<svg width="70" height="60" viewBox="0 0 70 60" fill="none" xmlns="http://www.w3.org/2000/svg">
<path d="M48.4699 50H21V10H40.8393L48.4699 17.6924V50Z" fill="#F0EBFE"/>
<path d="M40.759 10V17.7108H48.4699L40.759 10Z" fill="#F0EBFE"/>
<path d="M24.0981 32.1687H32.3598C32.7397 32.1687 33.0482 31.8744 33.0482 31.5117V26.9114C33.0482 26.6282 32.8588 26.377 32.5771 26.2877L28.4466 24.9733C28.3054 24.9286 28.1525 24.9286 28.0113 24.9733L23.8805 26.2877C23.5991 26.377 23.4097 26.6282 23.4097 26.9114V31.5117C23.4097 31.8744 23.7182 32.1687 24.0981 32.1687ZM24.7866 28.883H26.1635V30.8546H24.7866V28.883ZM28.9174 28.883V30.8546H27.5405V28.883H28.9174ZM30.2943 30.8546V28.883H31.6713V30.8546H30.2943ZM24.7866 27.3853L28.2289 26.2897L31.6713 27.3853V27.5686H24.7866V27.3853Z" fill="#DCD3F0"/>
<path d="M23.4097 20.1205H31.6024V21.5663H23.4097V20.1205Z" fill="#6041AF"/>
<path d="M23.4097 35.5422H46.0603V36.988H23.4097V35.5422Z" fill="#DCD3F0"/>
<path d="M23.4097 39.8795H46.0603V41.3253H23.4097V39.8795Z" fill="#DCD3F0"/>
<path d="M23.4097 44.2169H46.0603V45.6626H23.4097V44.2169Z" fill="#DCD3F0"/>
<path d="M23.4097 16.747H25.8193V18.6747H23.4097V16.747Z" fill="#6041AF"/>
</svg>
