<svg width="80" height="60" viewBox="0 0 80 60" fill="none" xmlns="http://www.w3.org/2000/svg">
<rect width="80" height="60" rx="3" fill="white"/>
<mask id="mask0" mask-type="alpha" maskUnits="userSpaceOnUse" x="0" y="0" width="80" height="60">
<rect width="80" height="60" rx="3" fill="white"/>
</mask>
<g mask="url(#mask0)">
<path opacity="0.05" d="M46.7494 -12.0001C38.4994 -12.0001 24.2494 -12.0001 21.2494 -3.75006C18.2494 4.49994 43.1929 4.01607 48.9994 9.82252C54.8058 15.629 64.168 14.9999 72.9994 14.9999C81.8308 14.9999 80.1573 24.7335 87.2494 23.2499C94.3415 21.7664 87.9994 14.332 90.2494 9.82252C90.2494 5.61872 90.2494 -12.0001 90.2494 -12.0001C90.2494 -12.0001 60.6244 -12.0001 46.7494 -12.0001Z" fill="#6041AF"/>
<path opacity="0.05" d="M7.28561 59.6752C36.7333 49.2049 49.8212 72.763 49.8212 59.6752C49.8212 46.5873 34.1158 40.0433 26.263 32.1906C18.4103 24.3379 21.8469 11.25 9.90318 11.25C-2.0405 11.25 3.97679 18.5866 -9.07424 24.3379C-22.1253 30.0892 -22.1621 70.1455 7.28561 59.6752Z" fill="#6041AF"/>
<path opacity="0.05" d="M56.0356 45.4252C26.5879 34.9549 13.5 58.513 13.5 45.4252C13.5 32.3373 29.2055 25.7933 37.0582 17.9406C44.9109 10.0879 41.4743 -3 53.418 -3C65.3617 -3 59.3444 4.33657 72.3955 10.0879C85.4465 15.8392 98.5712 0.926365 98.5712 17.9406C98.5712 34.9549 85.4833 55.8955 56.0356 45.4252Z" fill="#6041AF"/>
<path opacity="0.05" d="M9.27705 25.6173C10.3359 25.1112 11.4206 24.5273 12.3757 23.8422C12.726 23.5904 12.3809 23.1 12.0123 23.2946C10.9924 23.8292 9.99591 24.5195 9.0876 25.2228C8.90075 25.3629 9.0357 25.7314 9.27705 25.6173Z" fill="#3792FC"/>
<path opacity="0.05" d="M78.8123 35.9158C78.5917 34.7636 78.3036 33.5646 77.8832 32.4669C77.7301 32.0646 77.167 32.2722 77.2604 32.6797C77.5173 33.8034 77.9325 34.9401 78.3815 35.9989C78.4723 36.2143 78.8642 36.178 78.8123 35.9158Z" fill="#3792FC"/>
<path opacity="0.05" d="M13.1967 4.74398C13.1759 4.72581 13.1578 4.70764 13.137 4.69207C12.8749 4.45851 12.4441 4.41439 12.1898 4.69207C11.9329 4.97235 11.9406 5.35903 12.1898 5.6393C12.2079 5.66007 12.2261 5.67823 12.2417 5.69899C12.4752 5.9637 12.9605 5.95591 13.1967 5.69899C13.4303 5.44207 13.477 4.99311 13.1967 4.74398Z" fill="#3792FC"/>
<path opacity="0.05" d="M73.5064 8.82142C73.5723 8.39207 73.5597 7.98466 73.7979 7.60546C74.2774 6.85332 74.9575 7.04135 75.6156 7.37355C76.2862 7.71201 76.9193 7.91258 77.6464 7.59919C78.784 7.10716 79.3199 5.38978 78.2324 4.58123C77.8814 4.31798 77.5335 4.75046 77.5805 5.08265C77.6464 5.54334 77.8751 6.05417 77.4803 6.44904C76.9506 6.97867 76.3301 6.53366 75.8005 6.29548C75.2301 6.0385 74.6221 5.98209 74.0361 6.22027C73.0238 6.63081 72.2874 8.00346 73.0928 8.9311C73.2056 9.05959 73.4782 9.00005 73.5064 8.82142Z" fill="#3792FC"/>
<path opacity="0.05" d="M61.765 52.2428C60.7246 53.2418 60.3308 54.7963 61.3215 55.9984C62.2542 57.13 64.0656 57.3663 65.2304 56.4668C68.0492 54.2906 65.1102 50.2821 62.0718 51.1112C61.508 51.2646 61.649 52.0687 62.2044 52.0977C63.0915 52.1475 64.0449 52.1806 64.7537 52.8066C65.5165 53.4739 65.533 54.6056 64.9071 55.3766C63.249 57.4119 60.3723 54.4149 62.1132 52.591C62.3371 52.363 61.9972 52.0231 61.765 52.2428Z" fill="#3792FC"/>
<path opacity="0.05" d="M0.757268 45.6141C1.08196 46.8211 1.43842 48.014 1.81252 49.2069C1.90075 49.4928 2.17251 49.5845 2.41956 49.4151C3.39011 48.7552 4.35713 48.1093 5.27827 47.3788C5.45473 47.2376 5.41591 46.9552 5.24298 46.8352C4.16655 46.0976 2.71602 45.0071 1.35019 45C1.00432 44.9965 0.760797 45.4871 1.11372 45.6882C1.66429 46.0059 2.32427 46.1188 2.91366 46.3623C3.59128 46.6447 4.26537 46.9764 4.86535 47.4035C4.87946 47.2058 4.89358 47.0082 4.90417 46.8105C3.87715 47.4423 2.91013 48.1517 1.93605 48.8575C2.12663 48.8963 2.32074 48.9352 2.51132 48.974C2.09486 47.7952 1.66782 46.627 1.20549 45.4659C1.10667 45.2224 0.690212 45.3565 0.757268 45.6141Z" fill="#3792FC"/>
</g>
<path d="M53.0783 27.7925H26.8436L20 44.3963H60L53.0783 27.7925Z" fill="#E3DBF4"/>
<path d="M51.4161 30.0566H28.5839L23.7736 42.1321H56.2264L51.4161 30.0566Z" fill="#D5CCE9"/>
<path d="M33.6998 29.3019L35.8491 29.5921L34.2247 43.6415L32.0755 43.3513L33.6998 29.3019Z" fill="#E3DBF4"/>
<path d="M45.3737 43.6415L43.3962 29.5987L45.9474 29.3019L47.9245 43.3447L45.3737 43.6415Z" fill="#E3DBF4"/>
<path d="M25.283 35.3396H54.717V37.6038H25.283V35.3396Z" fill="#E3DBF4"/>
<path d="M39.5 14C35.3668 14 32 17.473 32 21.6679C32 23.1056 32.4 24.5658 33.15 25.7837L39.5 36L45.85 25.7837C46.6 24.5658 47 23.1056 47 21.6679C47 17.473 43.6332 14 39.5 14V14ZM39.5 25.9529C37.2001 25.9529 35.3333 24.002 35.3333 21.6679C35.3333 19.3338 37.2001 17.3829 39.5 17.3829C41.7999 17.3829 43.6667 19.3338 43.6667 21.6679C43.6667 24.002 41.7999 25.9529 39.5 25.9529Z" fill="#6041AF"/>
</svg>
