<svg width="320" height="152" viewBox="0 0 320 152" fill="none" xmlns="http://www.w3.org/2000/svg">
<path fill-rule="evenodd" clip-rule="evenodd" d="M0 6C0 2.6863 2.68629 0 6 0H314C317.314 0 320 2.68629 320 6V146C320 149.314 317.314 152 314 152H6C2.6863 152 0 149.314 0 146V6Z" fill="#E8ECF1"/>
<path d="M19.319 33C19.2603 33 19.2053 32.978 19.154 32.934C19.11 32.8827 19.088 32.8277 19.088 32.769C19.088 32.725 19.0917 32.692 19.099 32.67L21.662 25.619C21.7353 25.4063 21.882 25.3 22.102 25.3H23.818C24.038 25.3 24.1847 25.4063 24.258 25.619L26.821 32.67C26.8283 32.692 26.832 32.725 26.832 32.769C26.832 32.8277 26.8063 32.8827 26.755 32.934C26.711 32.978 26.6597 33 26.601 33H25.171C24.995 33 24.8703 32.9193 24.797 32.758L24.401 31.691H21.519L21.123 32.758C21.0497 32.9193 20.925 33 20.749 33H19.319ZM21.981 30.041H23.939L22.96 27.236L21.981 30.041ZM29.6245 33.11C28.9132 33.11 28.3522 32.8863 27.9415 32.439C27.5382 31.9917 27.3219 31.3537 27.2925 30.525L27.2815 30.14L27.2925 29.744C27.3219 28.9447 27.5419 28.3177 27.9525 27.863C28.3632 27.401 28.9205 27.17 29.6245 27.17C30.2845 27.17 30.8162 27.3827 31.2195 27.808V25.465C31.2195 25.3843 31.2452 25.3183 31.2965 25.267C31.3552 25.2157 31.4212 25.19 31.4945 25.19H32.9135C32.9942 25.19 33.0602 25.2157 33.1115 25.267C33.1702 25.3183 33.1995 25.3843 33.1995 25.465V32.725C33.1995 32.8057 33.1702 32.8717 33.1115 32.923C33.0602 32.9743 32.9942 33 32.9135 33H31.6045C31.5312 33 31.4652 32.9743 31.4065 32.923C31.3552 32.8643 31.3295 32.7983 31.3295 32.725V32.384C30.9335 32.868 30.3652 33.11 29.6245 33.11ZM30.2625 31.581C30.5779 31.581 30.8125 31.482 30.9665 31.284C31.1205 31.0787 31.2049 30.822 31.2195 30.514C31.2342 30.3087 31.2415 30.1693 31.2415 30.096C31.2415 30.0153 31.2342 29.8797 31.2195 29.689C31.2049 29.403 31.1169 29.1683 30.9555 28.985C30.8015 28.7943 30.5705 28.699 30.2625 28.699C29.9325 28.699 29.6942 28.798 29.5475 28.996C29.4082 29.1867 29.3275 29.4543 29.3055 29.799L29.2945 30.14L29.3055 30.481C29.3275 30.8257 29.4082 31.097 29.5475 31.295C29.6942 31.4857 29.9325 31.581 30.2625 31.581ZM36.5962 33.11C35.8849 33.11 35.3239 32.8863 34.9132 32.439C34.5099 31.9917 34.2936 31.3537 34.2642 30.525L34.2532 30.14L34.2642 29.744C34.2936 28.9447 34.5136 28.3177 34.9242 27.863C35.3349 27.401 35.8922 27.17 36.5962 27.17C37.2562 27.17 37.7879 27.3827 38.1912 27.808V25.465C38.1912 25.3843 38.2169 25.3183 38.2682 25.267C38.3269 25.2157 38.3929 25.19 38.4662 25.19H39.8852C39.9659 25.19 40.0319 25.2157 40.0832 25.267C40.1419 25.3183 40.1712 25.3843 40.1712 25.465V32.725C40.1712 32.8057 40.1419 32.8717 40.0832 32.923C40.0319 32.9743 39.9659 33 39.8852 33H38.5762C38.5029 33 38.4369 32.9743 38.3782 32.923C38.3269 32.8643 38.3012 32.7983 38.3012 32.725V32.384C37.9052 32.868 37.3369 33.11 36.5962 33.11ZM37.2342 31.581C37.5496 31.581 37.7842 31.482 37.9382 31.284C38.0922 31.0787 38.1766 30.822 38.1912 30.514C38.2059 30.3087 38.2132 30.1693 38.2132 30.096C38.2132 30.0153 38.2059 29.8797 38.1912 29.689C38.1766 29.403 38.0886 29.1683 37.9272 28.985C37.7732 28.7943 37.5422 28.699 37.2342 28.699C36.9042 28.699 36.6659 28.798 36.5192 28.996C36.3799 29.1867 36.2992 29.4543 36.2772 29.799L36.2662 30.14L36.2772 30.481C36.2992 30.8257 36.3799 31.097 36.5192 31.295C36.6659 31.4857 36.9042 31.581 37.2342 31.581ZM41.6979 33C41.6246 33 41.5586 32.9743 41.4999 32.923C41.4486 32.8643 41.4229 32.7983 41.4229 32.725V27.566C41.4229 27.4853 41.4486 27.4193 41.4999 27.368C41.5512 27.3093 41.6172 27.28 41.6979 27.28H43.0399C43.1206 27.28 43.1866 27.3093 43.2379 27.368C43.2966 27.4193 43.3259 27.4853 43.3259 27.566V27.984C43.5312 27.7567 43.7696 27.5843 44.0409 27.467C44.3196 27.3423 44.6276 27.28 44.9649 27.28H45.4599C45.5406 27.28 45.6066 27.3057 45.6579 27.357C45.7092 27.4083 45.7349 27.4743 45.7349 27.555V28.754C45.7349 28.8273 45.7092 28.8933 45.6579 28.952C45.6066 29.0033 45.5406 29.029 45.4599 29.029H44.3489C44.0556 29.029 43.8282 29.1097 43.6669 29.271C43.5129 29.4323 43.4359 29.6597 43.4359 29.953V32.725C43.4359 32.8057 43.4066 32.8717 43.3479 32.923C43.2966 32.9743 43.2306 33 43.1499 33H41.6979ZM49.1342 33.11C48.2396 33.11 47.5356 32.8717 47.0222 32.395C46.5089 31.911 46.2449 31.2107 46.2302 30.294V29.953C46.2596 29.0803 46.5309 28.3983 47.0442 27.907C47.5576 27.4157 48.2506 27.17 49.1232 27.17C49.7539 27.17 50.2856 27.2983 50.7182 27.555C51.1582 27.8043 51.4846 28.1527 51.6972 28.6C51.9172 29.04 52.0272 29.5423 52.0272 30.107V30.382C52.0272 30.4627 51.9979 30.5323 51.9392 30.591C51.8879 30.6423 51.8219 30.668 51.7412 30.668H48.2542V30.734C48.2616 31.064 48.3386 31.3317 48.4852 31.537C48.6319 31.735 48.8409 31.834 49.1122 31.834C49.2882 31.834 49.4276 31.801 49.5302 31.735C49.6402 31.6617 49.7429 31.57 49.8382 31.46C49.9042 31.3867 49.9556 31.3427 49.9922 31.328C50.0362 31.306 50.1022 31.295 50.1902 31.295H51.6312C51.6972 31.295 51.7522 31.317 51.7962 31.361C51.8476 31.3977 51.8732 31.4453 51.8732 31.504C51.8732 31.6947 51.7632 31.9183 51.5432 32.175C51.3306 32.4317 51.0152 32.6517 50.5972 32.835C50.1866 33.0183 49.6989 33.11 49.1342 33.11ZM50.0032 29.546V29.524C50.0032 29.172 49.9262 28.9007 49.7722 28.71C49.6182 28.512 49.4019 28.413 49.1232 28.413C48.8446 28.413 48.6282 28.512 48.4742 28.71C48.3276 28.9007 48.2542 29.172 48.2542 29.524V29.546H50.0032ZM55.4117 33.11C54.8104 33.11 54.3081 33.0257 53.9047 32.857C53.5014 32.6883 53.2007 32.4867 53.0027 32.252C52.8121 32.0173 52.7167 31.8047 52.7167 31.614C52.7167 31.5407 52.7424 31.482 52.7937 31.438C52.8524 31.3867 52.9147 31.361 52.9807 31.361H54.3117C54.3557 31.361 54.3924 31.3757 54.4217 31.405C54.5464 31.4857 54.6161 31.5333 54.6307 31.548C54.7701 31.6507 54.8984 31.7313 55.0157 31.79C55.1404 31.8413 55.2871 31.867 55.4557 31.867C55.6537 31.867 55.8151 31.8303 55.9397 31.757C56.0717 31.6763 56.1377 31.5663 56.1377 31.427C56.1377 31.3097 56.1011 31.2143 56.0277 31.141C55.9617 31.0677 55.8297 30.998 55.6317 30.932C55.4411 30.8587 55.1477 30.7853 54.7517 30.712C53.4831 30.4553 52.8487 29.8687 52.8487 28.952C52.8487 28.6513 52.9441 28.3653 53.1347 28.094C53.3327 27.8153 53.6187 27.5917 53.9927 27.423C54.3741 27.2543 54.8287 27.17 55.3567 27.17C55.8921 27.17 56.3541 27.2543 56.7427 27.423C57.1387 27.5843 57.4394 27.7823 57.6447 28.017C57.8501 28.2443 57.9527 28.4533 57.9527 28.644C57.9527 28.71 57.9271 28.7687 57.8757 28.82C57.8317 28.8713 57.7767 28.897 57.7107 28.897H56.5007C56.4347 28.897 56.3834 28.8823 56.3467 28.853C56.2587 28.809 56.1707 28.754 56.0827 28.688C55.9507 28.6 55.8334 28.534 55.7307 28.49C55.6354 28.4387 55.5107 28.413 55.3567 28.413C55.1734 28.413 55.0304 28.4533 54.9277 28.534C54.8251 28.6147 54.7737 28.7173 54.7737 28.842C54.7737 28.952 54.8031 29.0437 54.8617 29.117C54.9277 29.183 55.0561 29.249 55.2467 29.315C55.4447 29.381 55.7417 29.4507 56.1377 29.524C56.8564 29.6487 57.3771 29.8723 57.6997 30.195C58.0297 30.5103 58.1947 30.8807 58.1947 31.306C58.1947 31.856 57.9491 32.296 57.4577 32.626C56.9737 32.9487 56.2917 33.11 55.4117 33.11ZM61.5348 33.11C60.9334 33.11 60.4311 33.0257 60.0278 32.857C59.6244 32.6883 59.3238 32.4867 59.1258 32.252C58.9351 32.0173 58.8398 31.8047 58.8398 31.614C58.8398 31.5407 58.8654 31.482 58.9168 31.438C58.9754 31.3867 59.0378 31.361 59.1038 31.361H60.4348C60.4788 31.361 60.5154 31.3757 60.5448 31.405C60.6694 31.4857 60.7391 31.5333 60.7538 31.548C60.8931 31.6507 61.0214 31.7313 61.1388 31.79C61.2634 31.8413 61.4101 31.867 61.5788 31.867C61.7768 31.867 61.9381 31.8303 62.0628 31.757C62.1948 31.6763 62.2608 31.5663 62.2608 31.427C62.2608 31.3097 62.2241 31.2143 62.1508 31.141C62.0848 31.0677 61.9528 30.998 61.7548 30.932C61.5641 30.8587 61.2708 30.7853 60.8748 30.712C59.6061 30.4553 58.9718 29.8687 58.9718 28.952C58.9718 28.6513 59.0671 28.3653 59.2578 28.094C59.4558 27.8153 59.7418 27.5917 60.1158 27.423C60.4971 27.2543 60.9518 27.17 61.4798 27.17C62.0151 27.17 62.4771 27.2543 62.8658 27.423C63.2618 27.5843 63.5624 27.7823 63.7678 28.017C63.9731 28.2443 64.0758 28.4533 64.0758 28.644C64.0758 28.71 64.0501 28.7687 63.9988 28.82C63.9548 28.8713 63.8998 28.897 63.8338 28.897H62.6238C62.5578 28.897 62.5064 28.8823 62.4698 28.853C62.3818 28.809 62.2938 28.754 62.2058 28.688C62.0738 28.6 61.9564 28.534 61.8538 28.49C61.7584 28.4387 61.6338 28.413 61.4798 28.413C61.2964 28.413 61.1534 28.4533 61.0508 28.534C60.9481 28.6147 60.8968 28.7173 60.8968 28.842C60.8968 28.952 60.9261 29.0437 60.9848 29.117C61.0508 29.183 61.1791 29.249 61.3698 29.315C61.5678 29.381 61.8648 29.4507 62.2608 29.524C62.9794 29.6487 63.5001 29.8723 63.8228 30.195C64.1528 30.5103 64.3178 30.8807 64.3178 31.306C64.3178 31.856 64.0721 32.296 63.5808 32.626C63.0968 32.9487 62.4148 33.11 61.5348 33.11Z" fill="black"/>
<rect opacity="0.2" x="86" y="23" width="158" height="17" rx="8.5" fill="#C4ADF8"/>
<rect opacity="0.2" x="86" y="51" width="98" height="17" rx="8.5" fill="#C4ADF8"/>
<rect opacity="0.2" x="86" y="84" width="98" height="17" rx="8.5" fill="#C4ADF8"/>
</svg>
