<svg width="20" height="20" viewBox="0 0 20 20" fill="none" xmlns="http://www.w3.org/2000/svg">
<path d="M10.9434 11.2983H10.3313C10.2904 10.9384 10.1179 10.679 9.89562 10.5208H10.9434C10.9936 10.5208 11.0345 10.4808 11.0345 10.4328C11.0345 10.3848 10.9936 10.3448 10.9434 10.3448H8.36621C8.31676 10.3448 8.27588 10.3848 8.27588 10.4328C8.27588 10.4808 8.31676 10.5208 8.36621 10.5208H9.46187C9.75467 10.5734 10.0876 10.8101 10.1499 11.2983H8.36621C8.31676 11.2983 8.27588 11.3379 8.27588 11.3863C8.27588 11.4347 8.31676 11.4743 8.36621 11.4743H10.1612C10.1573 11.7194 10.0712 11.9176 9.90224 12.064C9.42332 12.4781 8.44525 12.3725 8.43552 12.3717C8.39931 12.3679 8.36232 12.3859 8.3448 12.4182C8.32766 12.4501 8.33234 12.4897 8.35609 12.5169L10.0763 14.4524C10.0938 14.4728 10.1191 14.4827 10.1452 14.4827C10.1658 14.4827 10.1869 14.4755 10.2044 14.4612C10.2422 14.4297 10.2464 14.374 10.2137 14.3368L8.63409 12.56C8.97478 12.5688 9.62735 12.5365 10.0218 12.1961C10.2316 12.0152 10.3379 11.772 10.3418 11.4743H10.9426C10.9928 11.4743 11.0337 11.4351 11.0337 11.3863C11.0337 11.3375 10.9936 11.2983 10.9434 11.2983Z" fill="#D6AF09" stroke="#D6AF09" stroke-width="0.5"/>
<path fill-rule="evenodd" clip-rule="evenodd" d="M5.65619 12.3084C5.65619 9.92012 7.59224 7.98407 9.98051 7.98407C12.3676 7.98681 14.3021 9.92128 14.3048 12.3084C14.3048 14.6967 12.3688 16.6327 9.98051 16.6327C7.59224 16.6327 5.65619 14.6967 5.65619 12.3084ZM6.32147 12.3084C6.32147 14.3292 7.95968 15.9674 9.98051 15.9674C12.0003 15.9651 13.6372 14.3282 13.6396 12.3084C13.6396 10.2876 12.0013 8.64935 9.98051 8.64935C7.95968 8.64935 6.32147 10.2876 6.32147 12.3084Z" fill="#4F2DA7"/>
<path fill-rule="evenodd" clip-rule="evenodd" d="M19.6271 7.31878C19.8108 7.31878 19.9598 7.16984 19.9598 6.98614V5.65558C19.9598 5.65342 19.9592 5.6515 19.9586 5.64959C19.958 5.64768 19.9574 5.64577 19.9574 5.6436C19.9561 5.60726 19.9489 5.57142 19.9358 5.53749C19.9358 5.5335 19.9358 5.52884 19.9328 5.52485C19.9166 5.48855 19.8941 5.45541 19.8663 5.42706C19.8564 5.41832 19.8461 5.41009 19.8353 5.40244C19.8205 5.38834 19.8043 5.37566 19.7871 5.36452L10.1405 0.0422736C10.0406 -0.0132774 9.91913 -0.0132774 9.81921 0.0422736L0.17264 5.36452C0.155426 5.37566 0.139293 5.38834 0.124407 5.40244C0.11368 5.41009 0.103326 5.41832 0.0934719 5.42706C0.0656133 5.45541 0.0431185 5.48855 0.0269439 5.52485C0.0269439 5.52884 0.0269439 5.5335 0.0239501 5.53749C0.010894 5.57142 0.00361746 5.60726 0.00232848 5.6436C0.00232848 5.64577 0.00174636 5.64768 0.00116424 5.64959C0.000582121 5.6515 0 5.65342 0 5.65558V6.98614C0 7.16984 0.14894 7.31878 0.33264 7.31878H1.33189V17.298H0.333971C0.15027 17.298 0.00133056 17.4469 0.00133056 17.6306V19.6265C0.00133056 19.8102 0.15027 19.9591 0.333971 19.9591H19.6271C19.8108 19.9591 19.9598 19.8102 19.9598 19.6265V17.6306C19.9598 17.4469 19.8108 17.298 19.6271 17.298H18.6292V7.31878H19.6271ZM9.98054 0.713209L18.3355 5.32294H1.62561L9.98054 0.713209ZM19.2945 19.2938V17.9633H0.666611V19.2938H19.2945ZM1.99717 17.298V7.31878H3.32773V17.298H1.99717ZM3.99301 7.31878V17.298H15.9681V7.31878H3.99301ZM16.6333 17.298V7.31878H17.9639V17.298H16.6333ZM0.666611 5.98822V6.6535H19.2945V5.98822H0.666611Z" fill="#4F2DA7"/>
</svg>
