<svg width="226" height="231" viewBox="0 0 226 231" fill="none" xmlns="http://www.w3.org/2000/svg">
<path fill-rule="evenodd" clip-rule="evenodd" d="M28.0235 135.717C42.396 120.622 15.3157 92.5085 22.0486 72.1952C31.1133 44.8482 104.855 21.4022 154.49 51.1738C196.057 76.1059 210.489 132.226 192.33 154.91C186.894 161.699 180.132 163.505 171.249 170.605C162.986 177.21 162.056 178.895 161.46 180.044C155.584 191.386 167.943 201.34 165.456 211.069C161.526 226.439 122.224 234.64 89.3572 229.436C80.4946 228.033 35.5811 219.876 19.0613 185.985C17.7829 183.363 5.68797 158.034 17.0696 143.942C21.0161 139.056 24.1918 139.741 28.0235 135.717Z" fill="#F9F7FF"/>
<path fill-rule="evenodd" clip-rule="evenodd" d="M151.585 80.5097C147.732 80.5097 144.609 77.3368 144.609 73.4229C144.609 69.5088 147.732 66.3359 151.585 66.3359C155.438 66.3359 158.561 69.5088 158.561 73.4229C158.561 77.3368 155.438 80.5097 151.585 80.5097ZM169.609 76.1257L167.406 74.9631C167.05 74.7753 166.828 74.3976 166.843 73.991C166.86 73.5614 166.859 73.1337 166.84 72.7087C166.823 72.3033 167.042 71.9254 167.394 71.735L169.584 70.5534C170.016 70.3206 170.231 69.8155 170.102 69.337L169.579 67.389C169.45 66.9104 169.013 66.5861 168.525 66.6082L166.041 66.7204C165.64 66.7388 165.263 66.5215 165.074 66.1607C164.88 65.7876 164.67 65.4226 164.446 65.0668C164.23 64.7226 164.229 64.2823 164.442 63.9361L165.761 61.7951C166.019 61.3745 165.957 60.8278 165.61 60.4788L164.198 59.0574C163.851 58.7082 163.313 58.6498 162.901 58.9167L160.81 60.2723C160.472 60.4919 160.039 60.4955 159.698 60.2795C159.347 60.0562 158.985 59.8469 158.612 59.652C158.254 59.4644 158.036 59.0825 158.05 58.6737L158.138 56.1525C158.156 55.6567 157.832 55.215 157.36 55.0889L155.438 54.5752C154.966 54.4488 154.47 54.6719 154.245 55.1122L153.101 57.3504C152.916 57.7114 152.544 57.9376 152.144 57.9219C151.721 57.9051 151.3 57.9061 150.882 57.925C150.483 57.943 150.111 57.7207 149.923 57.3624L148.76 55.1375C148.531 54.6994 148.034 54.4809 147.563 54.6115L145.645 55.1431C145.174 55.2736 144.855 55.7181 144.877 56.2138L144.987 58.7363C145.005 59.1419 144.795 59.5258 144.442 59.7162C144.071 59.9159 143.708 60.1308 143.354 60.3606C143.017 60.5796 142.585 60.5765 142.246 60.3608L140.139 59.0219C139.725 58.7588 139.187 58.8224 138.843 59.1746L137.444 60.6089C137.1 60.9614 137.043 61.5085 137.305 61.9267L138.64 64.0507C138.856 64.3945 138.859 64.8342 138.647 65.1802C138.427 65.5372 138.221 65.9054 138.029 66.2837C137.844 66.6475 137.469 66.8689 137.066 66.8544L134.584 66.7651C134.096 66.7475 133.662 67.0758 133.537 67.5556L133.032 69.5084C132.907 69.9881 133.127 70.4912 133.56 70.7201L135.763 71.8827C136.119 72.0703 136.341 72.448 136.326 72.8548C136.31 73.2844 136.311 73.7121 136.329 74.1371C136.347 74.5423 136.128 74.9202 135.775 75.1106L133.585 76.2924C133.154 76.525 132.939 77.0301 133.067 77.5086L133.591 79.4566C133.719 79.9352 134.157 80.2595 134.645 80.2374L137.128 80.1252C137.527 80.107 137.905 80.3205 138.092 80.6793C138.289 81.0564 138.501 81.425 138.727 81.7843C138.942 82.1266 138.939 82.5657 138.727 82.9101L137.409 85.0505C137.15 85.4712 137.212 86.0178 137.559 86.367L138.971 87.7882C139.318 88.1374 139.857 88.1958 140.268 87.9289L142.359 86.5733C142.697 86.3538 143.13 86.3501 143.471 86.5663C143.822 86.7894 144.185 86.9987 144.557 87.1938C144.915 87.3812 145.133 87.7631 145.119 88.1719L145.031 90.6931C145.014 91.1889 145.337 91.6306 145.809 91.7569L147.731 92.2706C148.204 92.3968 148.699 92.1737 148.924 91.7334L150.069 89.4952C150.253 89.1342 150.625 88.908 151.026 88.9239C151.448 88.9405 151.869 88.9395 152.288 88.9207C152.687 88.9026 153.059 89.1251 153.246 89.4832L154.409 91.7083C154.638 92.1462 155.136 92.3647 155.607 92.2341L157.524 91.7027C157.995 91.5722 158.314 91.1275 158.293 90.6319L158.182 88.1091C158.164 87.7013 158.378 87.3182 158.733 87.1268C159.101 86.9289 159.46 86.716 159.81 86.4884C160.149 86.2685 160.582 86.2679 160.923 86.4846L163.031 87.8237C163.445 88.0868 163.983 88.0234 164.326 87.671L165.725 86.2366C166.069 85.8842 166.127 85.3371 165.864 84.9189L164.53 82.7951C164.314 82.4511 164.31 82.0116 164.523 81.6655C164.742 81.3084 164.948 80.9402 165.14 80.5619C165.325 80.1983 165.701 79.9769 166.103 79.9912L168.585 80.0805C169.073 80.0981 169.508 79.7698 169.632 79.29L170.138 77.3372C170.262 76.8576 170.043 76.3544 169.609 76.1257Z" fill="#FEFEFF"/>
<path fill-rule="evenodd" clip-rule="evenodd" d="M172.213 104.899C169.34 104.899 167.011 102.523 167.011 99.5938C167.011 96.664 169.34 94.2889 172.213 94.2889C175.086 94.2889 177.415 96.664 177.415 99.5938C177.415 102.523 175.086 104.899 172.213 104.899ZM185.654 101.617L184.01 100.747C183.745 100.606 183.579 100.323 183.59 100.019C183.604 99.6974 183.602 99.3773 183.588 99.0591C183.575 98.7557 183.739 98.4729 184.001 98.3302L185.635 97.4459C185.956 97.2716 186.117 96.8935 186.02 96.5353L185.631 95.0772C185.534 94.7189 185.209 94.4762 184.845 94.4927L182.992 94.5768C182.694 94.5904 182.411 94.4278 182.272 94.1579C182.127 93.8786 181.97 93.6052 181.804 93.3389C181.641 93.0813 181.641 92.7518 181.8 92.4926L182.783 90.8899C182.977 90.5752 182.93 90.166 182.671 89.9046L181.618 88.8408C181.36 88.5794 180.958 88.5356 180.652 88.7354L179.091 89.7502C178.84 89.9144 178.516 89.9172 178.263 89.7554C178.002 89.5883 177.73 89.4317 177.454 89.2857C177.187 89.1454 177.024 88.8595 177.034 88.5535L177.099 86.6664C177.113 86.2952 176.871 85.9645 176.519 85.8701L175.086 85.4854C174.734 85.391 174.365 85.5579 174.197 85.8874L173.343 87.5628C173.206 87.8332 172.928 88.0025 172.63 87.9906C172.314 87.9782 172.001 87.979 171.689 87.9932C171.391 88.0065 171.114 87.8401 170.974 87.5718L170.107 85.9066C169.936 85.5785 169.565 85.4149 169.214 85.5127L167.784 85.9106C167.433 86.0084 167.195 86.3413 167.211 86.7122L167.293 88.6004C167.307 88.904 167.15 89.1914 166.886 89.3337C166.61 89.4833 166.339 89.6442 166.075 89.8164C165.824 89.9801 165.502 89.9777 165.249 89.8166L163.678 88.8141C163.369 88.6173 162.968 88.6647 162.712 88.9285L161.668 90.002C161.412 90.2658 161.369 90.6756 161.565 90.9885L162.56 92.5783C162.721 92.8357 162.724 93.165 162.565 93.4237C162.401 93.6911 162.248 93.9668 162.105 94.2499C161.967 94.5222 161.687 94.688 161.387 94.677L159.536 94.6103C159.172 94.5971 158.848 94.8428 158.755 95.2019L158.378 96.6636C158.286 97.0228 158.449 97.3993 158.772 97.5704L160.415 98.4408C160.68 98.5812 160.847 98.8641 160.835 99.1685C160.823 99.49 160.823 99.8102 160.837 100.128C160.85 100.432 160.687 100.715 160.424 100.857L158.791 101.742C158.469 101.916 158.309 102.294 158.405 102.652L158.795 104.11C158.891 104.468 159.217 104.711 159.581 104.695L161.433 104.611C161.73 104.597 162.012 104.757 162.152 105.025C162.298 105.308 162.456 105.584 162.625 105.853C162.786 106.109 162.783 106.438 162.625 106.695L161.642 108.298C161.449 108.612 161.496 109.021 161.754 109.283L162.807 110.347C163.066 110.608 163.468 110.652 163.775 110.452L165.334 109.437C165.586 109.273 165.909 109.27 166.162 109.432C166.425 109.599 166.695 109.756 166.973 109.902C167.24 110.042 167.402 110.328 167.392 110.634L167.326 112.521C167.313 112.892 167.554 113.223 167.906 113.317L169.34 113.702C169.692 113.796 170.061 113.63 170.229 113.3L171.082 111.625C171.22 111.354 171.498 111.185 171.796 111.197C172.111 111.209 172.425 111.208 172.737 111.195C173.034 111.181 173.312 111.347 173.452 111.616L174.319 113.281C174.49 113.609 174.862 113.772 175.212 113.675L176.643 113.277C176.993 113.179 177.231 112.846 177.216 112.475L177.132 110.587C177.119 110.282 177.279 109.995 177.543 109.852C177.818 109.703 178.085 109.544 178.346 109.374C178.6 109.209 178.923 109.209 179.177 109.371L180.749 110.373C181.056 110.57 181.457 110.523 181.715 110.259L182.758 109.185C183.013 108.922 183.056 108.512 182.861 108.199L181.866 106.609C181.705 106.352 181.701 106.023 181.86 105.764C182.024 105.496 182.177 105.221 182.32 104.938C182.458 104.665 182.739 104.5 183.039 104.51L184.889 104.577C185.253 104.59 185.579 104.345 185.67 103.986L186.047 102.524C186.14 102.165 185.975 101.788 185.654 101.617Z" fill="#FEFEFF"/>
<path fill-rule="evenodd" clip-rule="evenodd" d="M40.6104 221.546L135.837 220.929C138.852 220.909 141.229 218.299 141.035 215.221L132.61 81.8121C132.431 78.9686 130.108 76.7654 127.323 76.7959L31.9939 75.9933C29.8592 75.9863 27.3165 78.2992 27.443 80.479L35.3439 216.498C35.5077 219.346 37.822 221.563 40.6104 221.546Z" fill="#4F2DA7"/>
<path fill-rule="evenodd" clip-rule="evenodd" d="M43.6452 221.546L138.871 220.926C141.886 220.906 144.264 218.283 144.07 215.19L135.645 81.1446C135.465 78.2874 133.143 76.0728 130.358 76.1041L35.3401 76.0728C32.6366 76.0728 30.4903 78.4105 30.6489 81.1839L38.3785 216.474C38.5425 219.335 40.8566 221.564 43.6452 221.546Z" fill="white"/>
<path fill-rule="evenodd" clip-rule="evenodd" d="M47.3287 212.227L133.976 211.534L126.896 87.1378L40.1953 87.6403L47.3287 212.227Z" fill="#CDBFF3"/>
<path fill-rule="evenodd" clip-rule="evenodd" d="M53.0216 110.493L116.019 110.457L115.413 106.614H52.7197L53.0216 110.493Z" fill="white"/>
<path fill-rule="evenodd" clip-rule="evenodd" d="M53.3964 117.962L99.893 118.022L99.5122 114.179H53.1934L53.3964 117.962Z" fill="white"/>
<path fill-rule="evenodd" clip-rule="evenodd" d="M54.1829 131.015L116.771 130.925L116.166 127.082L53.8457 127.126L54.1829 131.015Z" fill="white"/>
<path fill-rule="evenodd" clip-rule="evenodd" d="M54.6318 138.523L101.544 138.49L100.938 134.647L54.332 134.672L54.6318 138.523Z" fill="white"/>
<path fill-rule="evenodd" clip-rule="evenodd" d="M55.3444 151.575L118.199 151.624L117.594 147.781L55.082 147.763L55.3444 151.575Z" fill="#CADDFF"/>
<path fill-rule="evenodd" clip-rule="evenodd" d="M55.7934 159.199L102.533 159.189L101.927 155.347H55.6084L55.7934 159.199Z" fill="#CADDFF"/>
<path fill-rule="evenodd" clip-rule="evenodd" d="M56.5053 172.058L119.401 172.092L118.795 168.249L56.2432 168.285L56.5053 172.058Z" fill="#CADDFF"/>
<path fill-rule="evenodd" clip-rule="evenodd" d="M56.9181 179.22L103.511 179.195L102.905 175.353L56.6934 175.37L56.9181 179.22Z" fill="#CADDFF"/>
<path fill-rule="evenodd" clip-rule="evenodd" d="M110.64 92.382L59.5509 92.1127C58.2599 92.1061 57.1954 91.1158 57.115 89.8475L56.1093 73.9502C56.0212 72.556 57.1492 71.379 58.5683 71.3845L109.656 71.5864C110.949 71.5917 112.016 72.5827 112.095 73.8523L113.102 89.8168C113.19 91.2121 112.06 92.3895 110.64 92.382Z" fill="#4F2DA7"/>
<path fill-rule="evenodd" clip-rule="evenodd" d="M110.401 92.2672L60.9035 91.9948C59.6529 91.9878 58.6212 90.9862 58.5436 89.7035L57.5691 73.6236C57.4838 72.2132 58.5765 71.0226 59.9514 71.0283L109.449 71.2324C110.701 71.2377 111.734 72.2402 111.812 73.5244L112.787 89.6724C112.872 91.0838 111.777 92.2747 110.401 92.2672Z" fill="#A38CEB"/>
<path fill-rule="evenodd" clip-rule="evenodd" d="M82.4139 68.9537C80.8932 68.9537 79.6604 67.3472 79.6604 65.3655C79.6604 63.384 80.8932 61.7775 82.4139 61.7775C83.9347 61.7775 85.1672 63.384 85.1672 65.3655C85.1672 67.3472 83.9347 68.9537 82.4139 68.9537ZM91.2891 64.3659C91.0059 59.6556 87.3008 55.9705 82.7923 55.9148L81.586 55.9C76.2153 55.834 71.9019 60.5189 72.1637 66.1341L72.4782 72.8824C72.5225 74.3387 72.8049 77.0337 74.3785 77.0337L92.1358 76.6872L91.2891 64.3659Z" fill="#4F2DA7"/>
<path fill-rule="evenodd" clip-rule="evenodd" d="M83.5378 68.6016C82.0171 68.6016 80.7843 67.0243 80.7843 65.0786C80.7843 63.1331 82.0171 61.5556 83.5378 61.5556C85.0583 61.5556 86.2914 63.1331 86.2914 65.0786C86.2914 67.0243 85.0583 68.6016 83.5378 68.6016ZM92.8624 64.4437C92.5791 59.8186 88.8743 56.2002 84.3656 56.1456L83.1592 56.1311C77.7886 56.0659 73.4754 60.666 73.7369 66.1795L74.3141 74.5805C74.4133 76.0229 75.5892 77.136 76.9961 77.1194L91.0152 76.9507C92.4769 76.933 93.6233 75.6549 93.5216 74.156L92.8624 64.4437Z" fill="#A38CEB"/>
<path fill-rule="evenodd" clip-rule="evenodd" d="M90.1293 223.864C93.0434 221.629 96.0761 219.545 99.1665 217.557C105.439 213.524 111.984 209.918 118.584 206.424C122.055 204.586 125.634 202.923 129.174 201.212C132.736 199.492 136.305 197.787 139.875 196.083C143.138 194.526 146.4 192.968 149.658 191.402C159.178 167.158 169.637 139.673 168.118 139.673L53.0235 136.354C50.306 136.354 48.2528 138.606 48.4462 141.374L54.1216 222.62C54.315 225.388 56.683 227.64 59.4002 227.64H85.0885C86.7358 226.34 88.4655 225.139 90.1293 223.864Z" fill="#4F2DA7"/>
<path fill-rule="evenodd" clip-rule="evenodd" d="M171.723 136.638H55.3869C52.8193 136.638 50.8859 138.758 51.0686 141.374L56.7439 222.62C56.9266 225.236 59.1565 227.356 61.7241 227.356H178.06C180.628 227.356 182.561 225.236 182.379 222.62L176.703 141.374C176.521 138.758 174.291 136.638 171.723 136.638Z" fill="white"/>
<path fill-rule="evenodd" clip-rule="evenodd" d="M168.058 140.619H59.9886C57.6034 140.619 55.8072 142.589 55.9769 145.019L61.2492 220.492C61.4189 222.921 63.49 224.891 65.8752 224.891H173.945C176.33 224.891 178.126 222.921 177.956 220.492L172.684 145.019C172.514 142.589 170.443 140.619 168.058 140.619Z" fill="#F0EBFE"/>
<path fill-rule="evenodd" clip-rule="evenodd" d="M168.498 143.615H59.96C58.8338 143.615 57.9856 144.546 58.0658 145.693L58.1726 147.221C58.2527 148.369 59.2309 149.299 60.3571 149.299H168.895C170.021 149.299 170.869 148.369 170.789 147.221L170.683 145.693C170.603 144.546 169.624 143.615 168.498 143.615Z" fill="#CDBFF3"/>
<path fill-rule="evenodd" clip-rule="evenodd" d="M86.498 171.352H123.701L125.737 200.497H88.5339L86.498 171.352Z" fill="#F0EBFE"/>
<path fill-rule="evenodd" clip-rule="evenodd" d="M131.728 158.651H104.615L127.689 168.913L152.845 168.271C152.933 168.271 152.95 168.149 152.867 168.112L131.728 158.651Z" fill="#CDBFF3"/>
<path fill-rule="evenodd" clip-rule="evenodd" d="M126.165 168.279H84.2207L104.585 158.652L126.165 168.279Z" fill="white"/>
<path fill-rule="evenodd" clip-rule="evenodd" d="M151.303 171.322H123.712L125.746 200.445H153.337L151.303 171.322Z" fill="#F0EBFE"/>
<path fill-rule="evenodd" clip-rule="evenodd" d="M98.2173 200.497H95.5436L93.5078 171.352H96.1814L98.2173 200.497Z" fill="white"/>
<path fill-rule="evenodd" clip-rule="evenodd" d="M105.119 200.497H102.445L100.409 171.352H103.083L105.119 200.497Z" fill="white"/>
<path fill-rule="evenodd" clip-rule="evenodd" d="M112.021 200.497H109.347L107.312 171.352H109.985L112.021 200.497Z" fill="white"/>
<path fill-rule="evenodd" clip-rule="evenodd" d="M118.922 200.497H116.248L114.212 171.352H116.886L118.922 200.497Z" fill="white"/>
<path fill-rule="evenodd" clip-rule="evenodd" d="M125.739 200.497H123.065L121.029 171.352H123.703L125.739 200.497Z" fill="white"/>
<path fill-rule="evenodd" clip-rule="evenodd" d="M91.3171 200.497H88.6432L86.6074 171.352H89.2812L91.3171 200.497Z" fill="white"/>
<path fill-rule="evenodd" clip-rule="evenodd" d="M132.639 200.497H129.966L127.93 171.352H130.604L132.639 200.497Z" fill="#CDBFF3"/>
<path fill-rule="evenodd" clip-rule="evenodd" d="M139.541 200.497H136.867L134.831 171.352H137.505L139.541 200.497Z" fill="#CDBFF3"/>
<path fill-rule="evenodd" clip-rule="evenodd" d="M146.441 200.497H143.767L141.731 171.352H144.405L146.441 200.497Z" fill="#CDBFF3"/>
<path fill-rule="evenodd" clip-rule="evenodd" d="M153.343 200.497H150.67L148.634 171.352H151.307L153.343 200.497Z" fill="#CDBFF3"/>
<path fill-rule="evenodd" clip-rule="evenodd" d="M136.738 171.357H151.305L151.091 168.291H123.5L123.714 171.357H136.738Z" fill="#CDBFF3"/>
<path fill-rule="evenodd" clip-rule="evenodd" d="M123.5 168.291H86.3936L86.6078 171.357H123.714L123.5 168.291Z" fill="white"/>
<path fill-rule="evenodd" clip-rule="evenodd" d="M88.5117 200.497H153.363L153.824 207.1H88.9731L88.5117 200.497Z" fill="#CDBFF3"/>
<path fill-rule="evenodd" clip-rule="evenodd" d="M146.105 217.495H99.2704C98.0836 217.495 97.0532 216.515 96.9688 215.307L96.8639 213.806C96.7795 212.597 97.6732 211.617 98.86 211.617H145.694C146.881 211.617 147.911 212.597 147.996 213.806L148.1 215.307C148.185 216.515 147.291 217.495 146.105 217.495Z" fill="white"/>
<path fill-rule="evenodd" clip-rule="evenodd" d="M115.621 119.317C115.737 128.06 108.934 135.244 100.427 135.363C91.9198 135.482 84.9296 128.491 84.814 119.748C84.6983 111.004 91.501 103.82 100.008 103.701C108.515 103.582 115.505 110.574 115.621 119.317Z" fill="#907CC2"/>
<path fill-rule="evenodd" clip-rule="evenodd" d="M115.818 118.844C115.93 127.328 109.329 134.299 101.075 134.414C92.8201 134.529 86.0374 127.746 85.9252 119.262C85.8129 110.778 92.4135 103.807 100.668 103.692C108.923 103.577 115.705 110.36 115.818 118.844Z" fill="#E1D8F4"/>
<path fill-rule="evenodd" clip-rule="evenodd" d="M113.413 118.878C113.507 125.997 107.968 131.847 101.041 131.944C94.1136 132.041 88.4215 126.348 88.3274 119.228C88.2332 112.109 93.7723 106.259 100.7 106.162C107.627 106.065 113.319 111.758 113.413 118.878Z" fill="white"/>
<path fill-rule="evenodd" clip-rule="evenodd" d="M81.0991 164.658C80.7521 170.984 75.4807 175.823 69.3258 175.467C63.1704 175.11 58.462 169.692 58.809 163.366C59.1563 157.04 64.4274 152.201 70.5826 152.558C76.7378 152.915 81.4462 158.332 81.0991 164.658Z" fill="#907CC2"/>
<path fill-rule="evenodd" clip-rule="evenodd" d="M81.2627 164.326C80.926 170.465 75.8113 175.16 69.8388 174.814C63.8664 174.468 59.2977 169.211 59.6347 163.073C59.9714 156.935 65.0861 152.239 71.0584 152.585C77.031 152.932 81.5997 158.188 81.2627 164.326Z" fill="#E1D8F4"/>
<path fill-rule="evenodd" clip-rule="evenodd" d="M79.5246 164.226C79.242 169.377 74.9499 173.317 69.9377 173.027C64.9255 172.736 61.0915 168.325 61.374 163.174C61.6568 158.022 65.949 154.082 70.9612 154.373C75.9732 154.663 79.8074 159.074 79.5246 164.226Z" fill="white"/>
<path fill-rule="evenodd" clip-rule="evenodd" d="M162.833 104.046L162.565 103.798L162.833 104.046Z" fill="white"/>
<path fill-rule="evenodd" clip-rule="evenodd" d="M53.9116 219.734H48.6828C48.0697 219.734 47.5304 219.231 47.4784 218.612L47.0353 213.329C46.9835 212.71 47.4384 212.207 48.0515 212.207H53.2803C53.8936 212.207 54.4327 212.71 54.4847 213.329L54.9278 218.612C54.9798 219.231 54.5249 219.734 53.9116 219.734Z" fill="#4F2DA7"/>
<path fill-rule="evenodd" clip-rule="evenodd" d="M143.821 66.833C143.777 66.833 143.733 66.8238 143.69 66.8041C128.286 59.7395 112.047 57.5533 96.7271 60.4812C96.5515 60.5156 96.3837 60.3957 96.3512 60.2161C96.3186 60.0361 96.434 59.8632 96.6091 59.8296C112.058 56.8771 128.429 59.0794 143.953 66.1992C144.115 66.2736 144.188 66.4695 144.116 66.6367C144.062 66.7597 143.945 66.833 143.821 66.833Z" fill="#AD95D6"/>
<path fill-rule="evenodd" clip-rule="evenodd" d="M135.252 68.4178C135.215 68.4178 135.178 68.4114 135.142 68.398C121.962 63.494 108.26 62.3714 95.5163 65.1514C95.3418 65.1897 95.171 65.0753 95.134 64.8961C95.0971 64.7173 95.2082 64.5412 95.3825 64.5035C108.243 61.6976 122.068 62.8288 135.362 67.7749C135.529 67.8372 135.616 68.0271 135.555 68.1992C135.507 68.3339 135.384 68.4178 135.252 68.4178Z" fill="#AD95D6"/>
<path fill-rule="evenodd" clip-rule="evenodd" d="M138.728 68.9916C138.484 68.9916 138.248 69.0722 138.049 69.2253C137.807 69.4121 137.65 69.6849 137.607 69.9932C137.519 70.6297 137.951 71.2215 138.57 71.3121C138.57 71.3121 138.57 71.3121 138.57 71.3121C138.87 71.3556 139.169 71.2774 139.411 71.0904C139.654 70.9035 139.811 70.6305 139.854 70.3222C139.942 69.6857 139.51 69.0943 138.891 69.0035C138.836 68.9956 138.782 68.9916 138.728 68.9916ZM138.734 71.9866C138.65 71.9866 138.564 71.9806 138.479 71.968C137.508 71.8258 136.831 70.898 136.969 69.8997C137.107 68.9017 138.01 68.2056 138.981 68.3476C139.953 68.4898 140.63 69.4176 140.492 70.4159C140.425 70.8993 140.178 71.3271 139.798 71.6202C139.487 71.8605 139.116 71.9866 138.734 71.9866Z" fill="#AD95D6"/>
<path fill-rule="evenodd" clip-rule="evenodd" d="M195.421 60.5109C195.243 60.5109 195.099 60.3627 195.099 60.1796V58.4665C195.099 58.2834 195.243 58.1352 195.421 58.1352C195.599 58.1352 195.743 58.2834 195.743 58.4665V60.1796C195.743 60.3627 195.599 60.5109 195.421 60.5109Z" fill="#AD95D6"/>
<path fill-rule="evenodd" clip-rule="evenodd" d="M195.421 64.5021C195.243 64.5021 195.099 64.3539 195.099 64.1709V62.4575C195.099 62.2746 195.243 62.1262 195.421 62.1262C195.599 62.1262 195.743 62.2746 195.743 62.4575V64.1709C195.743 64.3539 195.599 64.5021 195.421 64.5021Z" fill="#AD95D6"/>
<path fill-rule="evenodd" clip-rule="evenodd" d="M194.314 61.6498H192.647C192.469 61.6498 192.324 61.5016 192.324 61.3185C192.324 61.1357 192.469 60.9872 192.647 60.9872H194.314C194.492 60.9872 194.636 61.1357 194.636 61.3185C194.636 61.5016 194.492 61.6498 194.314 61.6498Z" fill="#AD95D6"/>
<path fill-rule="evenodd" clip-rule="evenodd" d="M198.195 61.6498H196.529C196.351 61.6498 196.207 61.5016 196.207 61.3185C196.207 61.1357 196.351 60.9872 196.529 60.9872H198.195C198.374 60.9872 198.518 61.1357 198.518 61.3185C198.518 61.5016 198.374 61.6498 198.195 61.6498Z" fill="#AD95D6"/>
<path fill-rule="evenodd" clip-rule="evenodd" d="M199.289 71.9417C199.111 71.9417 198.967 71.7935 198.967 71.6104V69.8971C198.967 69.7142 199.111 69.5658 199.289 69.5658C199.467 69.5658 199.611 69.7142 199.611 69.8971V71.6104C199.611 71.7935 199.467 71.9417 199.289 71.9417Z" fill="#AD95D6"/>
<path fill-rule="evenodd" clip-rule="evenodd" d="M199.289 75.9329C199.111 75.9329 198.967 75.7845 198.967 75.6016V73.8883C198.967 73.7052 199.111 73.557 199.289 73.557C199.467 73.557 199.611 73.7052 199.611 73.8883V75.6016C199.611 75.7845 199.467 75.9329 199.289 75.9329Z" fill="#AD95D6"/>
<path fill-rule="evenodd" clip-rule="evenodd" d="M198.18 73.0806H196.514C196.336 73.0806 196.191 72.9325 196.191 72.7494C196.191 72.5665 196.336 72.4181 196.514 72.4181H198.18C198.359 72.4181 198.503 72.5665 198.503 72.7494C198.503 72.9325 198.359 73.0806 198.18 73.0806Z" fill="#AD95D6"/>
<path fill-rule="evenodd" clip-rule="evenodd" d="M202.063 73.0806H200.398C200.219 73.0806 200.075 72.9325 200.075 72.7494C200.075 72.5665 200.219 72.4181 200.398 72.4181H202.063C202.241 72.4181 202.385 72.5665 202.385 72.7494C202.385 72.9325 202.241 73.0806 202.063 73.0806Z" fill="#AD95D6"/>
<path fill-rule="evenodd" clip-rule="evenodd" d="M6.37977 36.692C8.37089 36.0736 10.4187 35.5992 12.4453 35.073C13.3476 34.8388 13.4742 34.9263 13.4438 35.7391C13.3731 37.6277 13.5428 39.4951 13.958 41.3504C14.4638 43.6102 16.4384 44.7485 18.6924 44.0403C20.0054 43.628 20.8181 43.1384 20.8181 39.3516C20.8181 36.6559 21.6676 34.6182 22.7294 32.9142C23.5899 31.5332 24.6749 31.3376 25.5277 29.9526C25.642 29.767 25.7382 29.5302 25.9595 29.4512C24.2591 24.185 22.5253 18.9147 20.7806 13.6458C20.6357 13.7329 20.4435 13.7924 20.2246 13.8494C15.6753 15.0308 11.3489 15.6314 6.80216 16.8206C5.65306 17.1213 3.48143 17.0599 2.34253 17.3886C-0.171429 18.1142 -0.653706 21.7928 0.855985 22.69C1.49308 23.0687 0.577577 23.4998 0.431258 23.8261C0.00653165 24.7727 -0.205832 26.2874 1.30067 27.3036C1.63578 27.5299 1.53088 27.8682 1.3355 28.198C0.662947 29.3329 0.186616 30.5106 1.06835 31.5888C1.26712 31.8319 1.8233 32.0262 1.61773 32.3053C1.20511 32.8655 1.08661 33.5076 0.956645 34.1472C0.855985 36.3222 4.35616 37.3202 6.37977 36.692Z" fill="#F2EDFF"/>
<path fill-rule="evenodd" clip-rule="evenodd" d="M33.1215 12.9338L28.1587 13.8616C27.6629 13.9782 27.379 14.3955 27.5244 14.7934L32.7106 29.2913C32.805 30.1529 33.3823 30.1936 33.8781 30.0771L38.4778 28.464C38.9733 28.3473 39.8315 27.6938 39.6862 27.2957L35.0157 13.9017C34.8704 13.5037 34.5403 12.5997 33.1215 12.9338Z" fill="#EFE9FF"/>
<path fill-rule="evenodd" clip-rule="evenodd" d="M134.93 24.8994C135.169 23.821 137.251 23.3153 140.161 23.4634C141.607 23.5456 142.879 22.7291 143.468 21.3731C144.645 18.6286 145.997 16.9461 147.046 17.1915C148.112 17.4534 148.586 19.5776 148.442 22.5838C148.363 24.0708 149.158 25.3782 150.477 25.9831C153.148 27.1929 154.784 28.5823 154.545 29.6607C154.292 30.7392 152.224 31.2286 149.315 31.0804C147.852 31.0146 146.579 31.8147 145.993 33.1871C144.83 35.9316 143.464 37.614 142.413 37.3521C141.364 37.1067 140.887 34.9662 141.031 31.9761C141.096 30.4894 140.318 29.1819 138.983 28.577C136.312 27.367 134.675 25.9776 134.93 24.8994Z" fill="#F2EDFF"/>
<path fill-rule="evenodd" clip-rule="evenodd" d="M127.5 1.95652C127.666 1.58991 128.448 1.56098 129.501 1.81849C130.01 1.9521 130.536 1.73964 130.848 1.28535C131.454 0.373681 132.069 -0.13781 132.425 0.0324665C132.797 0.205834 132.825 1.00995 132.559 2.08881C132.445 2.6151 132.636 3.15199 133.079 3.472C133.964 4.09612 134.462 4.72665 134.312 5.09636C134.147 5.46297 133.345 5.50471 132.311 5.23439C131.783 5.11358 131.261 5.30992 130.966 5.76752C130.343 6.6761 129.746 7.19024 129.372 7.0171C129.013 6.86316 128.987 6.04292 129.236 4.9771C129.37 4.43756 129.161 3.8978 128.716 3.59369C127.833 2.95366 127.332 2.33903 127.5 1.95652Z" fill="#F2EDFF"/>
<path fill-rule="evenodd" clip-rule="evenodd" d="M168.021 24.5129C167.892 24.1344 168.47 23.569 169.422 23.0405C169.888 22.7916 170.144 22.2733 170.082 21.7214C169.944 20.6255 170.069 19.8242 170.445 19.707C170.823 19.5897 171.377 20.1617 171.878 21.1487C172.134 21.6198 172.624 21.8892 173.161 21.8254C174.229 21.6836 175.007 21.8132 175.123 22.2002C175.258 22.5924 174.68 23.158 173.732 23.6642C173.26 23.9354 172.998 24.4396 173.075 24.9833C173.2 26.0876 173.086 26.8802 172.703 27.02C172.327 27.1371 171.764 26.5509 171.272 25.5783C171.021 25.0849 170.518 24.8236 169.987 24.9014C168.913 25.0295 168.143 24.9135 168.021 24.5129Z" fill="#F2EDFF"/>
<path fill-rule="evenodd" clip-rule="evenodd" d="M207.698 118.979C208.009 118.732 208.716 119.077 209.535 119.804C209.927 120.164 210.49 120.225 210.97 119.969C211.917 119.447 212.691 119.284 212.932 119.604C213.184 119.934 212.848 120.661 212.128 121.492C211.791 121.906 211.719 122.473 211.969 122.966C212.475 123.94 212.634 124.735 212.335 124.992C212.024 125.239 211.294 124.896 210.498 124.167C210.083 123.809 209.531 123.736 209.065 124.003C208.104 124.514 207.344 124.687 207.089 124.356C206.84 124.05 207.185 123.31 207.884 122.482C208.244 122.066 208.301 121.488 208.043 121.008C207.546 120.021 207.378 119.239 207.698 118.979Z" fill="#F2EDFF"/>
<path fill-rule="evenodd" clip-rule="evenodd" d="M106.512 38.3351C106.567 37.9381 107.334 37.7102 108.416 37.6921C108.941 37.6922 109.4 37.3533 109.593 36.834C109.962 35.7963 110.432 35.1443 110.818 35.2184C111.207 35.2935 111.442 36.0637 111.444 37.1768C111.459 37.716 111.773 38.1872 112.279 38.385C113.29 38.7651 113.922 39.2487 113.852 39.647C113.796 40.0592 113.029 40.2873 111.961 40.2876C111.42 40.3044 110.961 40.6276 110.786 41.1468C110.402 42.1858 109.945 42.8353 109.543 42.7781C109.157 42.7039 108.92 41.917 108.919 40.8207C108.918 40.2638 108.589 39.7937 108.083 39.6113C107.072 39.216 106.441 38.7487 106.512 38.3351Z" fill="#F2EDFF"/>
<path fill-rule="evenodd" clip-rule="evenodd" d="M78.6011 15.2923C79.116 16.2634 77.8793 18.0585 75.602 19.9249C74.4639 20.8467 74.0354 22.324 74.4665 23.741C75.3495 26.5999 75.4182 28.7806 74.4734 29.3095C73.506 29.8374 71.7819 28.5677 69.9554 26.215C69.0585 25.0456 67.6213 24.605 66.2424 25.048C63.4609 25.9555 61.3389 26.0261 60.8243 25.0551C60.3212 24.0732 61.5566 22.301 63.834 20.4346C64.9733 19.4901 65.4125 18.0252 64.9709 16.5956C64.0759 13.7477 64.019 11.556 64.9744 11.0392C65.9192 10.51 67.654 11.7919 69.47 14.1327C70.3787 15.2912 71.8041 15.7427 73.1948 15.2888C75.9763 14.3811 78.0983 14.3104 78.6011 15.2923Z" fill="#F2EDFF"/>
<path fill-rule="evenodd" clip-rule="evenodd" d="M225.912 65.6341C226.305 66.3752 225.361 67.7452 223.622 69.1697C222.754 69.8732 222.426 71.0006 222.756 72.0821C223.43 74.264 223.482 75.9283 222.761 76.332C222.022 76.7348 220.706 75.7658 219.312 73.9702C218.627 73.0777 217.53 72.7414 216.478 73.0796C214.355 73.7721 212.735 73.8261 212.342 73.085C211.958 72.3356 212.901 70.9831 214.639 69.5587C215.509 68.8378 215.844 67.7198 215.507 66.6287C214.824 64.4552 214.781 62.7825 215.51 62.3881C216.231 61.9843 217.555 62.9625 218.941 64.749C219.635 65.6333 220.723 65.9778 221.785 65.6314C223.908 64.9386 225.528 64.8847 225.912 65.6341Z" fill="#F2EDFF"/>
<path fill-rule="evenodd" clip-rule="evenodd" d="M22.8169 134.688C23.2099 135.43 22.2659 136.8 20.5275 138.224C19.6588 138.928 19.3317 140.055 19.6608 141.136C20.3348 143.318 20.3873 144.983 19.666 145.386C18.9276 145.789 17.6116 144.82 16.2173 143.025C15.5326 142.132 14.4356 141.796 13.383 142.134C11.2598 142.826 9.63998 142.88 9.24713 142.139C8.86314 141.39 9.80615 140.037 11.5445 138.613C12.4142 137.892 12.7495 136.774 12.4124 135.683C11.7292 133.51 11.6858 131.837 12.4151 131.442C13.1363 131.039 14.4605 132.017 15.8467 133.803C16.5404 134.688 17.6284 135.032 18.69 134.686C20.8133 133.993 22.4331 133.939 22.8169 134.688Z" fill="#F2EDFF"/>
<path fill-rule="evenodd" clip-rule="evenodd" d="M198.425 186.408C198.818 187.149 197.874 188.519 196.136 189.943C195.267 190.647 194.94 191.774 195.269 192.856C195.943 195.038 195.996 196.702 195.274 197.106C194.536 197.508 193.22 196.539 191.826 194.744C191.141 193.851 190.044 193.515 188.991 193.853C186.868 194.546 185.248 194.6 184.856 193.859C184.472 193.109 185.415 191.757 187.153 190.332C188.023 189.611 188.358 188.493 188.021 187.402C187.338 185.229 187.294 183.556 188.023 183.162C188.745 182.758 190.069 183.736 191.455 185.523C192.149 186.407 193.237 186.751 194.298 186.405C196.422 185.712 198.041 185.658 198.425 186.408Z" fill="#F2EDFF"/>
<path fill-rule="evenodd" clip-rule="evenodd" d="M14.0154 54.9779C14.1273 55.3655 13.559 55.9188 12.6038 56.4413C12.1358 56.6871 11.8786 57.2034 11.9372 57.756C12.0685 58.8528 11.9374 59.6531 11.5603 59.768C11.1696 59.8912 10.6311 59.307 10.1365 58.317C9.88356 57.8443 9.39469 57.5716 8.85726 57.6321C7.79014 57.7668 7.01139 57.6323 6.8859 57.2529C6.77416 56.8653 7.34812 56.2896 8.2977 55.7896C8.77131 55.5214 9.03669 55.019 8.96427 54.4748C8.84673 53.3699 8.96406 52.5777 9.35472 52.4545C9.7239 52.3255 10.2704 52.9238 10.7706 53.8916C11.0179 54.3865 11.5203 54.6511 12.0498 54.5764C13.1249 54.4556 13.8957 54.5764 14.0154 54.9779Z" fill="#F2EDFF"/>
<path fill-rule="evenodd" clip-rule="evenodd" d="M50.8659 40.8844C51.2052 41.0811 51.1351 41.8985 50.761 42.9423C50.5715 43.446 50.7144 44.0074 51.1162 44.3793C51.9248 45.1073 52.3458 45.7941 52.1391 46.138C51.9323 46.4816 51.1471 46.4302 50.1368 46.0302C49.6417 45.8509 49.1004 45.9823 48.7385 46.3953C48.03 47.2263 47.3619 47.659 47.0274 47.4463C46.6728 47.2444 46.7431 46.4271 47.1273 45.4041C47.3065 44.8798 47.1789 44.3235 46.7721 43.9672C45.9684 43.2234 45.5425 42.5522 45.7389 42.1881C45.9458 41.8442 46.7459 41.9005 47.7414 42.2954C48.2466 42.4953 48.7929 42.3484 49.1395 41.9305C49.863 41.1046 50.516 40.6668 50.8659 40.8844Z" fill="#F2EDFF"/>
<path fill-rule="evenodd" clip-rule="evenodd" d="M160.338 127.813C160.338 138.864 151.621 147.823 140.868 147.823C130.115 147.823 121.398 138.864 121.398 127.813C121.398 116.762 130.115 107.803 140.868 107.803C151.621 107.803 160.338 116.762 160.338 127.813Z" fill="white"/>
<path fill-rule="evenodd" clip-rule="evenodd" d="M156.453 128.781C156.453 137.99 149.237 145.455 140.336 145.455C131.435 145.455 124.22 137.99 124.22 128.781C124.22 119.572 131.435 112.107 140.336 112.107C149.237 112.107 156.453 119.572 156.453 128.781Z" fill="#D6011B" fill-opacity="0.51"/>
<path fill-rule="evenodd" clip-rule="evenodd" d="M164.187 130.602L163.331 129.581C162.649 128.767 162.609 127.4 163.242 126.545L164.037 125.472C164.67 124.617 164.458 123.461 163.565 122.904L162.445 122.206C161.553 121.649 161.106 120.363 161.452 119.347L161.886 118.073C162.232 117.058 161.684 116.027 160.669 115.782L159.395 115.475C158.379 115.23 157.569 114.149 157.594 113.073L157.626 111.723C157.651 110.647 156.822 109.841 155.783 109.932L154.479 110.046C153.44 110.137 152.346 109.368 152.048 108.336L151.673 107.042C151.375 106.01 150.345 105.509 149.384 105.927L148.179 106.452C147.218 106.87 145.947 106.487 145.354 105.601L144.611 104.489C144.019 103.603 142.889 103.455 142.1 104.159L141.111 105.042C140.322 105.747 138.999 105.788 138.17 105.134L137.131 104.314C136.302 103.661 135.183 103.88 134.643 104.801L133.967 105.957C133.427 106.879 132.181 107.34 131.197 106.983L129.963 106.534C128.98 106.177 127.981 106.742 127.744 107.791L127.446 109.106C127.209 110.154 126.162 110.991 125.12 110.965L123.812 110.932C122.769 110.906 121.988 111.762 122.077 112.835L122.188 114.181C122.276 115.253 121.53 116.383 120.531 116.691L119.277 117.077C118.278 117.385 117.792 118.448 118.197 119.44L118.705 120.684C119.11 121.677 118.74 122.989 117.881 123.6L116.805 124.367C115.946 124.979 115.802 126.145 116.484 126.96L117.34 127.981C118.023 128.795 118.063 130.161 117.429 131.017L116.635 132.09C116.002 132.945 116.214 134.101 117.107 134.657L118.226 135.356C119.119 135.912 119.566 137.199 119.22 138.214L118.786 139.488C118.439 140.504 118.987 141.535 120.003 141.78L121.277 142.087C122.292 142.331 123.102 143.412 123.077 144.489L123.046 145.839C123.02 146.915 123.85 147.721 124.889 147.63L126.192 147.515C127.232 147.424 128.326 148.194 128.624 149.225L128.998 150.519C129.296 151.551 130.326 152.053 131.287 151.635L132.493 151.11C133.454 150.692 134.725 151.075 135.317 151.961L136.06 153.072C136.653 153.958 137.783 154.107 138.572 153.403L139.561 152.519C140.35 151.815 141.673 151.773 142.502 152.427L143.541 153.247C144.37 153.901 145.489 153.682 146.028 152.76L146.705 151.605C147.244 150.683 148.49 150.222 149.474 150.579L150.708 151.027C151.692 151.385 152.691 150.819 152.928 149.771L153.225 148.456C153.462 147.407 154.51 146.571 155.552 146.597L156.86 146.63C157.903 146.656 158.683 145.8 158.595 144.727L158.484 143.381C158.396 142.308 159.141 141.179 160.14 140.871L161.394 140.485C162.394 140.177 162.88 139.114 162.474 138.122L161.966 136.877C161.561 135.885 161.932 134.573 162.79 133.962L163.867 133.194C164.725 132.583 164.869 131.416 164.187 130.602ZM158.813 128.781C158.813 139.299 150.524 147.855 140.336 147.855C130.147 147.855 121.858 139.299 121.858 128.781C121.858 118.263 130.147 109.706 140.336 109.706C150.524 109.706 158.813 118.263 158.813 128.781Z" fill="#D6011B" fill-opacity="0.51"/>
<path d="M99.4009 128.213L95.4395 120.966V119.258H96.7599C97.5376 119.258 98.1905 119.081 98.7187 118.727C99.2469 118.358 99.5843 117.85 99.731 117.204H95.4395V115.496H99.709C99.577 114.912 99.3056 114.427 98.8947 114.042C98.4839 113.642 97.9117 113.442 97.1781 113.442H95.4395V111.734H105.365V113.442H101.91C102.423 114.027 102.746 114.712 102.878 115.496H105.365V117.204H102.922C102.776 118.343 102.357 119.235 101.668 119.881C100.978 120.512 100.091 120.943 99.0048 121.174L103.318 128.213H99.4009Z" fill="#C6BADF"/>
<path d="M69.601 170.693L66.5537 165.172V163.87H67.5695C68.1676 163.87 68.6699 163.736 69.0762 163.466C69.4825 163.185 69.7421 162.798 69.8549 162.305H66.5537V161.004H69.838C69.7364 160.559 69.5276 160.189 69.2116 159.896C68.8956 159.592 68.4554 159.439 67.8911 159.439H66.5537V158.138H74.1888V159.439H71.5309C71.926 159.885 72.1743 160.406 72.2758 161.004H74.1888V162.305H72.3097C72.1968 163.173 71.8752 163.853 71.3447 164.345C70.8143 164.826 70.1314 165.154 69.2963 165.33L72.6144 170.693H69.601Z" fill="#C6BADF"/>
<path fill-rule="evenodd" clip-rule="evenodd" d="M138.73 121.542C139.698 119.906 142.066 119.906 143.034 121.542L149.605 132.65C150.591 134.317 149.39 136.423 147.453 136.423H134.311C132.374 136.423 131.173 134.317 132.159 132.65L138.73 121.542ZM142.173 122.051C141.592 121.069 140.172 121.069 139.591 122.051L133.02 133.159C132.428 134.159 133.149 135.423 134.311 135.423H147.453C148.615 135.423 149.336 134.159 148.744 133.159L142.173 122.051Z" fill="white"/>
<path d="M143.034 121.542L142.173 122.051V122.051L143.034 121.542ZM138.73 121.542L139.591 122.051V122.051L138.73 121.542ZM149.605 132.65L148.744 133.159V133.159L149.605 132.65ZM132.159 132.65L133.02 133.159L132.159 132.65ZM139.591 122.051L138.73 121.542L139.591 122.051ZM142.173 122.051L143.034 121.542V121.542L142.173 122.051ZM133.02 133.159L132.159 132.65L133.02 133.159ZM148.744 133.159L147.884 133.668V133.668L148.744 133.159ZM143.894 121.033C142.539 118.742 139.225 118.742 137.87 121.033L139.591 122.051C140.172 121.069 141.592 121.069 142.173 122.051L143.894 121.033ZM150.466 132.141L143.894 121.033L142.173 122.051L148.744 133.159L150.466 132.141ZM147.453 137.423C150.164 137.423 151.846 134.474 150.466 132.141L148.744 133.159C149.336 134.159 148.615 135.423 147.453 135.423V137.423ZM134.311 137.423H147.453V135.423H134.311V137.423ZM131.298 132.141C129.918 134.474 131.6 137.423 134.311 137.423V135.423C133.149 135.423 132.428 134.159 133.02 133.159L131.298 132.141ZM137.87 121.033L131.298 132.141L133.02 133.159L139.591 122.051L137.87 121.033ZM140.452 122.56C140.645 122.233 141.119 122.233 141.312 122.56L143.034 121.542C142.066 119.906 139.698 119.906 138.73 121.542L140.452 122.56ZM133.88 133.668L140.452 122.56L138.73 121.542L132.159 132.65L133.88 133.668ZM134.311 134.423C133.923 134.423 133.683 134.002 133.88 133.668L132.159 132.65C131.173 134.317 132.374 136.423 134.311 136.423V134.423ZM147.453 134.423H134.311V136.423H147.453V134.423ZM147.884 133.668C148.081 134.002 147.841 134.423 147.453 134.423V136.423C149.39 136.423 150.591 134.317 149.605 132.65L147.884 133.668ZM141.312 122.56L147.884 133.668L149.605 132.65L143.034 121.542L141.312 122.56Z" fill="white"/>
<path fill-rule="evenodd" clip-rule="evenodd" d="M142.029 132.556C142.029 132.714 142 132.862 141.941 133C141.882 133.138 141.8 133.257 141.694 133.356C141.588 133.454 141.464 133.533 141.323 133.593C141.182 133.652 141.033 133.682 140.876 133.682C140.719 133.682 140.572 133.654 140.435 133.599C140.298 133.543 140.178 133.464 140.076 133.362C139.974 133.259 139.892 133.14 139.829 133.006C139.766 132.872 139.735 132.726 139.735 132.568C139.735 132.418 139.764 132.273 139.823 132.135C139.882 131.997 139.962 131.877 140.064 131.774C140.166 131.671 140.288 131.59 140.429 131.531C140.57 131.472 140.719 131.442 140.876 131.442C141.033 131.442 141.182 131.472 141.323 131.531C141.464 131.59 141.588 131.669 141.694 131.768C141.8 131.867 141.882 131.985 141.941 132.123C142 132.262 142.029 132.406 142.029 132.556Z" fill="white"/>
<path fill-rule="evenodd" clip-rule="evenodd" d="M140.308 130.322L139.735 124.724H142.029L141.456 130.322H140.308Z" fill="white"/>
</svg>
