<svg width="70" height="60" viewBox="0 0 70 60" fill="none" xmlns="http://www.w3.org/2000/svg">
<path d="M45.3333 50H22.8148C21.2603 50 20 48.7716 20 47.2565V15.7064C20 14.1914 21.2603 12.963 22.8148 12.963H48.1481V47.2565C48.1481 48.7716 46.8878 50 45.3333 50Z" fill="#E3DBF4"/>
<path d="M48.9669 45.5556H25.1072C24.7412 45.5556 24.4444 45.2434 24.4444 44.8584V15.5773L29.7466 10H48.3041C49.0361 10 49.6296 10.6243 49.6296 11.3943V44.8584C49.6296 45.2434 49.3329 45.5556 48.9669 45.5556Z" fill="#F0EBFE"/>
<path d="M29.6296 15.9259H24.4444L30.3704 10V15.1852C30.3704 15.5943 30.0387 15.9259 29.6296 15.9259Z" fill="#DCD3F0"/>
<path d="M44 27.3618C44.5514 27.3618 45 26.9132 45 26.3618V25.067C45 24.6564 44.7541 24.2925 44.3733 24.1393L36.8749 21.0733C36.6308 20.9749 36.3666 20.9767 36.1286 21.0719C36.1231 21.0741 36.2541 21.0206 28.6267 24.1393C28.2459 24.2925 28 24.6565 28 25.067V26.3619C28 26.9133 28.4486 27.3619 29 27.3619H29.6V34.8952H29C28.4486 34.8952 28 35.3438 28 35.8952V37.0618C28 37.6132 28.4486 38.0618 29 38.0618H44C44.5514 38.0618 45 37.6132 45 37.0618V35.8952C45 35.3438 44.5514 34.8952 44 34.8952H43.4V27.3619L44 27.3618ZM44 35.8951C44.0006 37.0885 44.0033 37.0618 44 37.0618H29V35.8951H44ZM30.6 34.8951V27.3618H31.7334V34.8951H30.6ZM32.7334 34.8951V27.3618H34.9334V34.8951H32.7334ZM35.9334 34.8951V27.3618H37.0667V34.8951H35.9334ZM38.0667 34.8951V27.3618H40.2667V34.8951H38.0667ZM41.2667 34.8951V27.3618H42.4V34.8951H41.2667ZM29 26.3618C29 24.967 28.9985 25.0676 29.0035 25.0656L36.5 22.0003L43.9965 25.0656C44.0017 25.0676 44 24.9703 44 26.3618C43.8338 26.3618 29.1975 26.3618 29 26.3618Z" fill="#6041AF"/>
<path d="M36.4998 23.1618C36.2237 23.1618 35.9998 23.3857 35.9998 23.6618V24.7285C35.9998 25.0046 36.2237 25.2285 36.4998 25.2285C36.7759 25.2285 36.9998 25.0046 36.9998 24.7285V23.6618C36.9998 23.3857 36.7759 23.1618 36.4998 23.1618Z" fill="#6041AF"/>
</svg>
