<svg width="324" height="144" viewBox="0 0 324 144" fill="none" xmlns="http://www.w3.org/2000/svg">
<g filter="url(#filter0_dd)">
<rect x="322" y="140" width="320" height="138" rx="4" transform="rotate(-180 322 140)" fill="white"/>
<rect x="321.75" y="139.75" width="319.5" height="137.5" rx="3.75" transform="rotate(-180 321.75 139.75)" stroke="url(#paint0_linear)" stroke-width="0.5"/>
<rect x="321.75" y="139.75" width="319.5" height="137.5" rx="3.75" transform="rotate(-180 321.75 139.75)" stroke="url(#paint1_linear)" stroke-width="0.5"/>
</g>
<mask id="mask0" mask-type="alpha" maskUnits="userSpaceOnUse" x="2" y="2" width="320" height="138">
<rect x="321.75" y="139.75" width="319.5" height="137.5" rx="3.75" transform="rotate(-180 321.75 139.75)" fill="white"/>
<rect x="321.75" y="139.75" width="319.5" height="137.5" rx="3.75" transform="rotate(-180 321.75 139.75)" stroke="white" stroke-width="0.5"/>
</mask>
<g mask="url(#mask0)">
<rect x="212" y="2" width="110" height="70" fill="#D8D8D8" fill-opacity="0.01"/>
<mask id="mask1" mask-type="alpha" maskUnits="userSpaceOnUse" x="212" y="2" width="110" height="70">
<rect x="212" y="2" width="110" height="70" fill="white"/>
</mask>
<g mask="url(#mask1)">
<path opacity="0.1" d="M281.93 3C273.991 3 260.277 3 257.39 10.9396C254.502 18.8793 278.508 18.4136 284.096 24.0016C289.684 29.5896 298.694 28.9843 307.193 28.9843C315.692 28.9843 314.081 38.3517 320.907 36.9239C327.732 35.4961 321.628 28.3415 323.794 24.0016C323.794 19.956 323.794 3 323.794 3C323.794 3 295.283 3 281.93 3Z" fill="#4F2DA7"/>
<path opacity="0.2" d="M270.031 67.1197C234.053 54.3371 218.063 83.098 218.063 67.1197C218.063 51.1414 237.251 43.1523 246.846 33.5653C256.44 23.9783 252.241 8 266.833 8C281.426 8 274.074 16.9568 290.019 23.9783C305.965 30.9998 322 12.7935 322 33.5653C322 54.3371 306.01 79.9024 270.031 67.1197Z" fill="#4F2DA7"/>
<rect x="230.617" y="11" width="65.2174" height="60" rx="3.65613" fill="#9076C1"/>
<path d="M230.617 14.6561C230.617 12.6369 232.254 11 234.273 11H292.178C294.198 11 295.835 12.6369 295.835 14.6561V36.6382H230.617V14.6561Z" fill="#7C57C0"/>
<rect x="279.04" y="52.6129" width="10.087" height="14.7826" rx="1.82806" fill="#FFDA2C"/>
<path d="M256.956 61.0952C256.956 60.3222 257.583 59.6957 258.356 59.6957H262.513C263.286 59.6957 263.913 60.3222 263.913 61.0952V65.2526C263.913 66.0256 263.286 66.6522 262.513 66.6522H258.356C257.583 66.6522 256.956 66.0256 256.956 65.2526V61.0952Z" fill="#7C57C0"/>
<path d="M246.522 61.0952C246.522 60.3222 247.148 59.6957 247.921 59.6957H252.079C252.852 59.6957 253.478 60.3222 253.478 61.0952V65.2526C253.478 66.0256 252.852 66.6522 252.079 66.6522H247.921C247.148 66.6522 246.522 66.0256 246.522 65.2526V61.0952Z" fill="#7C57C0"/>
<path d="M256.956 52.3995C256.956 51.6266 257.583 51 258.356 51H262.513C263.286 51 263.913 51.6266 263.913 52.3995V56.557C263.913 57.3299 263.286 57.9565 262.513 57.9565H258.356C257.583 57.9565 256.956 57.3299 256.956 56.557V52.3995Z" fill="#7C57C0"/>
<path d="M246.522 52.3995C246.522 51.6266 247.148 51 247.921 51H252.079C252.852 51 253.478 51.6266 253.478 52.3995V56.557C253.478 57.3299 252.852 57.9565 252.079 57.9565H247.921C247.148 57.9565 246.522 57.3299 246.522 56.557V52.3995Z" fill="#7C57C0"/>
<path d="M279.04 44.0062C279.04 42.9966 279.859 42.1781 280.868 42.1781H287.299C288.309 42.1781 289.127 42.9966 289.127 44.0062V47.3066C289.127 48.3162 288.309 49.1347 287.299 49.1347H280.868C279.859 49.1347 279.04 48.3162 279.04 47.3066V44.0062Z" fill="#F16FA0"/>
<path d="M256.956 42.8343C256.956 42.0614 257.583 41.4348 258.356 41.4348H262.513C263.286 41.4348 263.913 42.0614 263.913 42.8343V46.9918C263.913 47.7647 263.286 48.3913 262.513 48.3913H258.356C257.583 48.3913 256.956 47.7647 256.956 46.9918V42.8343Z" fill="#7C57C0"/>
<path d="M267.391 61.0952C267.391 60.3222 268.018 59.6957 268.791 59.6957H272.948C273.721 59.6957 274.348 60.3222 274.348 61.0952V65.2526C274.348 66.0256 273.721 66.6522 272.948 66.6522H268.791C268.018 66.6522 267.391 66.0256 267.391 65.2526V61.0952Z" fill="#7C57C0"/>
<path d="M267.391 52.3995C267.391 51.6266 268.018 51 268.791 51H272.948C273.721 51 274.348 51.6266 274.348 52.3995V56.557C274.348 57.3299 273.721 57.9565 272.948 57.9565H268.791C268.018 57.9565 267.391 57.3299 267.391 56.557V52.3995Z" fill="#7C57C0"/>
<path d="M267.391 42.8343C267.391 42.0614 268.018 41.4348 268.791 41.4348H272.948C273.721 41.4348 274.348 42.0614 274.348 42.8343V46.9918C274.348 47.7647 273.721 48.3913 272.948 48.3913H268.791C268.018 48.3913 267.391 47.7647 267.391 46.9918V42.8343Z" fill="#7C57C0"/>
<path d="M246.522 42.8343C246.522 42.0614 247.148 41.4348 247.921 41.4348H252.079C252.852 41.4348 253.478 42.0614 253.478 42.8343V46.9918C253.478 47.7647 252.852 48.3913 252.079 48.3913H247.921C247.148 48.3913 246.522 47.7647 246.522 46.9918V42.8343Z" fill="#7C57C0"/>
<path d="M236.087 61.0952C236.087 60.3222 236.714 59.6957 237.487 59.6957H241.644C242.417 59.6957 243.043 60.3222 243.043 61.0952V65.2526C243.043 66.0256 242.417 66.6522 241.644 66.6522H237.487C236.714 66.6522 236.087 66.0256 236.087 65.2526V61.0952Z" fill="#7C57C0"/>
<path d="M236.087 52.3995C236.087 51.6266 236.714 51 237.487 51H241.644C242.417 51 243.043 51.6266 243.043 52.3995V56.557C243.043 57.3299 242.417 57.9565 241.644 57.9565H237.487C236.714 57.9565 236.087 57.3299 236.087 56.557V52.3995Z" fill="#7C57C0"/>
<path d="M236.087 42.8343C236.087 42.0614 236.714 41.4348 237.487 41.4348H241.644C242.417 41.4348 243.043 42.0614 243.043 42.8343V46.9918C243.043 47.7647 242.417 48.3913 241.644 48.3913H237.487C236.714 48.3913 236.087 47.7647 236.087 46.9918V42.8343Z" fill="#7C57C0"/>
<rect x="235.909" y="16.3413" width="55.6522" height="17.0921" rx="1.82806" fill="#E1D7F1"/>
<path d="M242.741 29.49C242.542 29.49 242.368 29.4163 242.221 29.269C242.074 29.1217 242 28.9483 242 28.749V20.741C242 20.5417 242.074 20.3683 242.221 20.221C242.368 20.0737 242.542 20 242.741 20H247.161C247.36 20 247.534 20.0737 247.681 20.221C247.828 20.3683 247.902 20.5417 247.902 20.741C247.902 20.9403 247.828 21.1137 247.681 21.261C247.534 21.3997 247.36 21.469 247.161 21.469H243.937C243.859 21.469 243.82 21.508 243.82 21.586V23.679C243.82 23.757 243.859 23.796 243.937 23.796H246.94C247.139 23.796 247.304 23.8653 247.434 24.004C247.573 24.1427 247.642 24.3073 247.642 24.498C247.642 24.6887 247.573 24.8533 247.434 24.992C247.304 25.122 247.139 25.187 246.94 25.187H243.937C243.859 25.187 243.82 25.226 243.82 25.304V27.904C243.82 27.982 243.859 28.021 243.937 28.021H247.161C247.36 28.021 247.534 28.0947 247.681 28.242C247.828 28.3807 247.902 28.5497 247.902 28.749C247.902 28.9483 247.828 29.1217 247.681 29.269C247.534 29.4163 247.36 29.49 247.161 29.49H242.741Z" fill="#7C57C0"/>
<path d="M250.561 29.49C250.362 29.49 250.189 29.4163 250.041 29.269C249.894 29.1217 249.82 28.9483 249.82 28.749V20.741C249.82 20.5417 249.894 20.3683 250.041 20.221C250.189 20.0737 250.362 20 250.561 20H250.886C251.112 20 251.32 20.0607 251.51 20.182C251.701 20.3033 251.84 20.4637 251.926 20.663L254.201 25.577C254.201 25.5857 254.206 25.59 254.214 25.59C254.223 25.59 254.227 25.5857 254.227 25.577L256.502 20.663C256.589 20.4637 256.728 20.3033 256.918 20.182C257.109 20.0607 257.317 20 257.542 20H257.919C258.119 20 258.292 20.0737 258.439 20.221C258.587 20.3683 258.66 20.5417 258.66 20.741V28.749C258.66 28.9483 258.587 29.1217 258.439 29.269C258.292 29.4163 258.119 29.49 257.919 29.49H257.633C257.434 29.49 257.261 29.4163 257.113 29.269C256.966 29.1217 256.892 28.9483 256.892 28.749V23.094C256.892 23.0853 256.888 23.081 256.879 23.081C256.871 23.081 256.866 23.0853 256.866 23.094L255.306 26.435C255.211 26.6343 255.064 26.799 254.864 26.929C254.674 27.0503 254.47 27.111 254.253 27.111H254.175C253.959 27.111 253.751 27.0503 253.551 26.929C253.361 26.799 253.218 26.6343 253.122 26.435L251.562 23.094C251.562 23.0853 251.558 23.081 251.549 23.081C251.541 23.081 251.536 23.0853 251.536 23.094V28.749C251.536 28.9483 251.463 29.1217 251.315 29.269C251.168 29.4163 250.995 29.49 250.795 29.49H250.561Z" fill="#7C57C0"/>
<path d="M261.714 29.49C261.514 29.49 261.341 29.4163 261.194 29.269C261.046 29.1217 260.973 28.9483 260.973 28.749V20.741C260.973 20.5417 261.046 20.3683 261.194 20.221C261.341 20.0737 261.514 20 261.714 20H262.234C262.433 20 262.606 20.0737 262.754 20.221C262.901 20.3683 262.975 20.5417 262.975 20.741V28.749C262.975 28.9483 262.901 29.1217 262.754 29.269C262.606 29.4163 262.433 29.49 262.234 29.49H261.714Z" fill="#7C57C0"/>
<path opacity="0.05" d="M221.206 34.2021C222.225 33.7151 223.269 33.1531 224.188 32.4938C224.525 32.2515 224.193 31.7795 223.839 31.9668C222.857 32.4813 221.898 33.1456 221.024 33.8225C220.844 33.9573 220.974 34.312 221.206 34.2021Z" fill="#3792FC"/>
<path opacity="0.05" d="M288.126 44.1132C287.913 43.0043 287.636 41.8505 287.231 40.794C287.084 40.4069 286.542 40.6067 286.632 40.9988C286.879 42.0802 287.279 43.1742 287.711 44.1932C287.798 44.4004 288.176 44.3655 288.126 44.1132Z" fill="#3792FC"/>
<path opacity="0.05" d="M224.978 14.1141C224.958 14.0966 224.941 14.0791 224.921 14.0641C224.669 13.8393 224.254 13.7969 224.009 14.0641C223.762 14.3338 223.77 14.706 224.009 14.9757C224.027 14.9957 224.044 15.0132 224.059 15.0332C224.284 15.2879 224.751 15.2804 224.978 15.0332C225.203 14.7859 225.248 14.3538 224.978 14.1141Z" fill="#3792FC"/>
<path opacity="0.05" d="M283.019 18.0381C283.083 17.6249 283.071 17.2328 283.3 16.8679C283.761 16.144 284.416 16.325 285.049 16.6447C285.695 16.9704 286.304 17.1635 287.003 16.8619C288.098 16.3883 288.614 14.7356 287.567 13.9574C287.23 13.7041 286.895 14.1203 286.94 14.44C287.003 14.8834 287.224 15.375 286.844 15.755C286.334 16.2647 285.737 15.8364 285.227 15.6072C284.678 15.3599 284.093 15.3056 283.529 15.5348C282.555 15.9299 281.846 17.2509 282.621 18.1437C282.73 18.2673 282.992 18.21 283.019 18.0381Z" fill="#3792FC"/>
<path opacity="0.05" d="M271.72 59.826C270.718 60.7874 270.339 62.2834 271.293 63.4403C272.19 64.5293 273.934 64.7567 275.055 63.891C277.767 61.7967 274.939 57.9391 272.015 58.7369C271.472 58.8845 271.608 59.6584 272.143 59.6864C272.996 59.7342 273.914 59.7661 274.596 60.3685C275.33 61.0108 275.346 62.0999 274.744 62.8419C273.148 64.8006 270.379 61.9164 272.055 60.1611C272.27 59.9417 271.943 59.6146 271.72 59.826Z" fill="#3792FC"/>
<path opacity="0.05" d="M213.007 53.4467C213.319 54.6083 213.663 55.7563 214.023 56.9043C214.107 57.1794 214.369 57.2677 214.607 57.1047C215.541 56.4695 216.471 55.848 217.358 55.1449C217.528 55.009 217.49 54.7373 217.324 54.6218C216.288 53.912 214.892 52.8625 213.578 52.8557C213.245 52.8523 213.01 53.3244 213.35 53.518C213.88 53.8237 214.515 53.9324 215.082 54.1667C215.734 54.4384 216.383 54.7577 216.961 55.1687C216.974 54.9785 216.988 54.7883 216.998 54.5981C216.01 55.206 215.079 55.8887 214.141 56.568C214.325 56.6054 214.512 56.6428 214.695 56.6801C214.294 55.5457 213.883 54.4215 213.438 53.304C213.343 53.0696 212.942 53.1987 213.007 53.4467Z" fill="#3792FC"/>
</g>
</g>
<path d="M26.407 92.13C25.2457 92.13 24.3617 91.818 23.755 91.194C23.157 90.57 22.8364 89.7077 22.793 88.607C22.7844 88.373 22.78 87.9917 22.78 87.463C22.78 86.9257 22.7844 86.5357 22.793 86.293C22.8364 85.201 23.1614 84.343 23.768 83.719C24.3747 83.0863 25.2544 82.77 26.407 82.77C27.1784 82.77 27.8327 82.9087 28.37 83.186C28.9074 83.4547 29.3147 83.81 29.592 84.252C29.8694 84.694 30.021 85.1663 30.047 85.669V85.695C30.047 85.7643 30.0167 85.825 29.956 85.877C29.904 85.9203 29.8434 85.942 29.774 85.942H29.059C28.8857 85.942 28.7774 85.8423 28.734 85.643C28.5867 84.993 28.3224 84.538 27.941 84.278C27.5597 84.0093 27.0484 83.875 26.407 83.875C24.9164 83.875 24.145 84.7027 24.093 86.358C24.0844 86.592 24.08 86.9517 24.08 87.437C24.08 87.9223 24.0844 88.2907 24.093 88.542C24.145 90.1973 24.9164 91.025 26.407 91.025C27.0484 91.025 27.5597 90.895 27.941 90.635C28.331 90.3663 28.5954 89.907 28.734 89.257C28.76 89.1443 28.799 89.0663 28.851 89.023C28.903 88.9797 28.9724 88.958 29.059 88.958H29.774C29.852 88.958 29.917 88.984 29.969 89.036C30.0297 89.0793 30.0557 89.14 30.047 89.218C30.021 89.7293 29.8694 90.206 29.592 90.648C29.3147 91.09 28.9074 91.4497 28.37 91.727C27.8327 91.9957 27.1784 92.13 26.407 92.13Z" fill="#160D2E"/>
<path d="M33.5052 92.13C33.0806 92.13 32.6862 92.0433 32.3222 91.87C31.9582 91.6967 31.6679 91.4627 31.4512 91.168C31.2432 90.8647 31.1392 90.531 31.1392 90.167C31.1392 89.595 31.3732 89.127 31.8412 88.763C32.3179 88.3903 32.9592 88.1477 33.7652 88.035L35.7022 87.762V87.385C35.7022 86.501 35.1952 86.059 34.1812 86.059C33.7999 86.059 33.4879 86.1413 33.2452 86.306C33.0026 86.462 32.8206 86.6483 32.6992 86.865C32.6732 86.943 32.6386 86.9993 32.5952 87.034C32.5606 87.0687 32.5086 87.086 32.4392 87.086H31.8802C31.8022 87.086 31.7329 87.06 31.6722 87.008C31.6202 86.9473 31.5942 86.878 31.5942 86.8C31.6029 86.592 31.6982 86.358 31.8802 86.098C32.0709 85.8293 32.3612 85.5997 32.7512 85.409C33.1412 85.2097 33.6222 85.11 34.1942 85.11C35.1649 85.11 35.8626 85.3397 36.2872 85.799C36.7119 86.2497 36.9242 86.813 36.9242 87.489V91.701C36.9242 91.7877 36.8939 91.8613 36.8332 91.922C36.7812 91.974 36.7119 92 36.6252 92H36.0272C35.9406 92 35.8669 91.974 35.8062 91.922C35.7542 91.8613 35.7282 91.7877 35.7282 91.701V91.142C35.5376 91.4193 35.2602 91.6533 34.8962 91.844C34.5322 92.0347 34.0686 92.13 33.5052 92.13ZM33.7782 91.155C34.3416 91.155 34.8009 90.973 35.1562 90.609C35.5202 90.2363 35.7022 89.7033 35.7022 89.01V88.646L34.1942 88.867C33.5789 88.9537 33.1152 89.101 32.8032 89.309C32.4912 89.5083 32.3352 89.764 32.3352 90.076C32.3352 90.4227 32.4782 90.6913 32.7642 90.882C33.0502 91.064 33.3882 91.155 33.7782 91.155Z" fill="#160D2E"/>
<path d="M39.1051 92C39.0184 92 38.9447 91.974 38.8841 91.922C38.8321 91.8613 38.8061 91.7877 38.8061 91.701V83.069C38.8061 82.9823 38.8321 82.913 38.8841 82.861C38.9447 82.8003 39.0184 82.77 39.1051 82.77H39.7161C39.8027 82.77 39.8721 82.8003 39.9241 82.861C39.9848 82.913 40.0151 82.9823 40.0151 83.069V91.701C40.0151 91.7877 39.9848 91.8613 39.9241 91.922C39.8721 91.974 39.8027 92 39.7161 92H39.1051Z" fill="#160D2E"/>
<path d="M44.6842 92.13C43.7569 92.13 43.0289 91.87 42.5002 91.35C41.9802 90.8213 41.7029 90.0847 41.6682 89.14L41.6552 88.62L41.6682 88.1C41.7029 87.1553 41.9802 86.423 42.5002 85.903C43.0289 85.3743 43.7569 85.11 44.6842 85.11C45.3082 85.11 45.8369 85.2227 46.2702 85.448C46.7036 85.6733 47.0242 85.9507 47.2322 86.28C47.4489 86.6093 47.5659 86.9387 47.5832 87.268C47.5919 87.3547 47.5659 87.424 47.5052 87.476C47.4445 87.528 47.3709 87.554 47.2842 87.554H46.6602C46.5736 87.554 46.5085 87.5367 46.4652 87.502C46.4219 87.4673 46.3785 87.398 46.3352 87.294C46.1879 86.878 45.9799 86.5833 45.7112 86.41C45.4425 86.228 45.1045 86.137 44.6972 86.137C44.1599 86.137 43.7309 86.306 43.4102 86.644C43.0982 86.9733 42.9292 87.4803 42.9032 88.165L42.8902 88.633L42.9032 89.075C42.9292 89.7683 43.0982 90.2797 43.4102 90.609C43.7222 90.9383 44.1512 91.103 44.6972 91.103C45.1045 91.103 45.4425 91.0163 45.7112 90.843C45.9799 90.661 46.1879 90.362 46.3352 89.946C46.3785 89.842 46.4219 89.7727 46.4652 89.738C46.5085 89.6947 46.5736 89.673 46.6602 89.673H47.2842C47.3709 89.673 47.4445 89.7033 47.5052 89.764C47.5659 89.816 47.5919 89.8853 47.5832 89.972C47.5659 90.2927 47.4489 90.622 47.2322 90.96C47.0242 91.2893 46.7036 91.5667 46.2702 91.792C45.8455 92.0173 45.3169 92.13 44.6842 92.13Z" fill="#160D2E"/>
<path d="M51.6491 92.13C50.8257 92.13 50.1887 91.8657 49.7381 91.337C49.2874 90.7997 49.0621 90.089 49.0621 89.205V85.539C49.0621 85.4523 49.0881 85.383 49.1401 85.331C49.2007 85.2703 49.2744 85.24 49.3611 85.24H50.0111C50.0977 85.24 50.1671 85.2703 50.2191 85.331C50.2797 85.383 50.3101 85.4523 50.3101 85.539V89.14C50.3101 90.4313 50.8734 91.077 52.0001 91.077C52.5461 91.077 52.9794 90.908 53.3001 90.57C53.6207 90.2233 53.7811 89.7467 53.7811 89.14V85.539C53.7811 85.4523 53.8071 85.383 53.8591 85.331C53.9197 85.2703 53.9934 85.24 54.0801 85.24H54.7301C54.8167 85.24 54.8861 85.2703 54.9381 85.331C54.9901 85.383 55.0161 85.4523 55.0161 85.539V91.701C55.0161 91.7877 54.9901 91.8613 54.9381 91.922C54.8861 91.974 54.8167 92 54.7301 92H54.1191C54.0324 92 53.9587 91.974 53.8981 91.922C53.8461 91.8613 53.8201 91.7877 53.8201 91.701V91.129C53.5774 91.4583 53.2827 91.7097 52.9361 91.883C52.5894 92.0477 52.1604 92.13 51.6491 92.13Z" fill="#160D2E"/>
<path d="M57.2594 92C57.1727 92 57.099 91.974 57.0384 91.922C56.9864 91.8613 56.9604 91.7877 56.9604 91.701V83.069C56.9604 82.9823 56.9864 82.913 57.0384 82.861C57.099 82.8003 57.1727 82.77 57.2594 82.77H57.8704C57.957 82.77 58.0264 82.8003 58.0784 82.861C58.139 82.913 58.1694 82.9823 58.1694 83.069V91.701C58.1694 91.7877 58.139 91.8613 58.0784 91.922C58.0264 91.974 57.957 92 57.8704 92H57.2594Z" fill="#160D2E"/>
<path d="M61.9935 92.13C61.5688 92.13 61.1745 92.0433 60.8105 91.87C60.4465 91.6967 60.1562 91.4627 59.9395 91.168C59.7315 90.8647 59.6275 90.531 59.6275 90.167C59.6275 89.595 59.8615 89.127 60.3295 88.763C60.8062 88.3903 61.4475 88.1477 62.2535 88.035L64.1905 87.762V87.385C64.1905 86.501 63.6835 86.059 62.6695 86.059C62.2882 86.059 61.9762 86.1413 61.7335 86.306C61.4908 86.462 61.3088 86.6483 61.1875 86.865C61.1615 86.943 61.1269 86.9993 61.0835 87.034C61.0488 87.0687 60.9968 87.086 60.9275 87.086H60.3685C60.2905 87.086 60.2212 87.06 60.1605 87.008C60.1085 86.9473 60.0825 86.878 60.0825 86.8C60.0912 86.592 60.1865 86.358 60.3685 86.098C60.5592 85.8293 60.8495 85.5997 61.2395 85.409C61.6295 85.2097 62.1105 85.11 62.6825 85.11C63.6532 85.11 64.3508 85.3397 64.7755 85.799C65.2002 86.2497 65.4125 86.813 65.4125 87.489V91.701C65.4125 91.7877 65.3822 91.8613 65.3215 91.922C65.2695 91.974 65.2002 92 65.1135 92H64.5155C64.4288 92 64.3552 91.974 64.2945 91.922C64.2425 91.8613 64.2165 91.7877 64.2165 91.701V91.142C64.0258 91.4193 63.7485 91.6533 63.3845 91.844C63.0205 92.0347 62.5568 92.13 61.9935 92.13ZM62.2665 91.155C62.8298 91.155 63.2892 90.973 63.6445 90.609C64.0085 90.2363 64.1905 89.7033 64.1905 89.01V88.646L62.6825 88.867C62.0672 88.9537 61.6035 89.101 61.2915 89.309C60.9795 89.5083 60.8235 89.764 60.8235 90.076C60.8235 90.4227 60.9665 90.6913 61.2525 90.882C61.5385 91.064 61.8765 91.155 62.2665 91.155Z" fill="#160D2E"/>
<path d="M69.8569 92C68.4876 92 67.8029 91.2373 67.8029 89.712V86.28H66.7889C66.7022 86.28 66.6286 86.254 66.5679 86.202C66.5159 86.1413 66.4899 86.0677 66.4899 85.981V85.539C66.4899 85.4523 66.5159 85.383 66.5679 85.331C66.6286 85.2703 66.7022 85.24 66.7889 85.24H67.8029V83.069C67.8029 82.9823 67.8289 82.913 67.8809 82.861C67.9416 82.8003 68.0152 82.77 68.1019 82.77H68.7129C68.7996 82.77 68.8689 82.8003 68.9209 82.861C68.9816 82.913 69.0119 82.9823 69.0119 83.069V85.24H70.6239C70.7106 85.24 70.7799 85.2703 70.8319 85.331C70.8926 85.383 70.9229 85.4523 70.9229 85.539V85.981C70.9229 86.0677 70.8926 86.1413 70.8319 86.202C70.7799 86.254 70.7106 86.28 70.6239 86.28H69.0119V89.621C69.0119 90.0543 69.0856 90.3837 69.2329 90.609C69.3802 90.8257 69.6229 90.934 69.9609 90.934H70.7539C70.8406 90.934 70.9099 90.9643 70.9619 91.025C71.0226 91.077 71.0529 91.1463 71.0529 91.233V91.701C71.0529 91.7877 71.0226 91.8613 70.9619 91.922C70.9099 91.974 70.8406 92 70.7539 92H69.8569Z" fill="#160D2E"/>
<path d="M75 92.13C74.1073 92.13 73.3923 91.857 72.855 91.311C72.3263 90.7563 72.036 90.0023 71.984 89.049L71.971 88.607L71.984 88.178C72.0447 87.242 72.3393 86.4967 72.868 85.942C73.4053 85.3873 74.1117 85.11 74.987 85.11C75.949 85.11 76.6943 85.4177 77.223 86.033C77.7517 86.6397 78.016 87.463 78.016 88.503V88.724C78.016 88.8107 77.9857 88.8843 77.925 88.945C77.873 88.997 77.8037 89.023 77.717 89.023H73.219V89.14C73.245 89.7033 73.414 90.1843 73.726 90.583C74.0467 90.973 74.467 91.168 74.987 91.168C75.3857 91.168 75.7107 91.09 75.962 90.934C76.222 90.7693 76.4127 90.6003 76.534 90.427C76.612 90.323 76.6683 90.2623 76.703 90.245C76.7463 90.219 76.82 90.206 76.924 90.206H77.561C77.639 90.206 77.704 90.2277 77.756 90.271C77.808 90.3143 77.834 90.375 77.834 90.453C77.834 90.6437 77.7127 90.8733 77.47 91.142C77.236 91.4107 76.9023 91.6447 76.469 91.844C76.0443 92.0347 75.5547 92.13 75 92.13ZM76.781 88.126V88.087C76.781 87.489 76.6163 87.0037 76.287 86.631C75.9663 86.2497 75.533 86.059 74.987 86.059C74.441 86.059 74.0077 86.2497 73.687 86.631C73.375 87.0037 73.219 87.489 73.219 88.087V88.126H76.781Z" fill="#160D2E"/>
<path d="M83.5845 94.47C83.5152 94.47 83.4545 94.444 83.4025 94.392C83.3505 94.34 83.3245 94.2793 83.3245 94.21C83.3245 94.1493 83.3461 94.0713 83.3895 93.976L84.3905 91.597L81.9075 85.734C81.8641 85.6213 81.8425 85.5477 81.8425 85.513C81.8425 85.435 81.8685 85.37 81.9205 85.318C81.9725 85.266 82.0375 85.24 82.1155 85.24H82.7525C82.8912 85.24 82.9952 85.3137 83.0645 85.461L85.0405 90.193L87.0685 85.461C87.1378 85.3137 87.2462 85.24 87.3935 85.24H88.0045C88.0825 85.24 88.1475 85.266 88.1995 85.318C88.2515 85.37 88.2775 85.4307 88.2775 85.5C88.2775 85.526 88.2558 85.604 88.2125 85.734L84.5205 94.249C84.4512 94.3963 84.3428 94.47 84.1955 94.47H83.5845Z" fill="#160D2E"/>
<path d="M92.1148 92.13C91.1615 92.13 90.4205 91.8613 89.8918 91.324C89.3718 90.7867 89.0945 90.0717 89.0598 89.179L89.0468 88.62L89.0598 88.061C89.0945 87.177 89.3762 86.4663 89.9048 85.929C90.4335 85.383 91.1702 85.11 92.1148 85.11C93.0595 85.11 93.7962 85.383 94.3248 85.929C94.8535 86.4663 95.1352 87.177 95.1698 88.061C95.1785 88.1563 95.1828 88.3427 95.1828 88.62C95.1828 88.8973 95.1785 89.0837 95.1698 89.179C95.1352 90.0717 94.8535 90.7867 94.3248 91.324C93.8048 91.8613 93.0682 92.13 92.1148 92.13ZM92.1148 91.129C92.6608 91.129 93.0898 90.9557 93.4018 90.609C93.7225 90.2623 93.8958 89.764 93.9218 89.114C93.9305 89.0273 93.9348 88.8627 93.9348 88.62C93.9348 88.3773 93.9305 88.2127 93.9218 88.126C93.8958 87.476 93.7225 86.9777 93.4018 86.631C93.0898 86.2843 92.6608 86.111 92.1148 86.111C91.5688 86.111 91.1355 86.2843 90.8148 86.631C90.4942 86.9777 90.3252 87.476 90.3078 88.126L90.2948 88.62L90.3078 89.114C90.3252 89.764 90.4942 90.2623 90.8148 90.609C91.1355 90.9557 91.5688 91.129 92.1148 91.129Z" fill="#160D2E"/>
<path d="M99.3327 92.13C98.5093 92.13 97.8723 91.8657 97.4217 91.337C96.971 90.7997 96.7457 90.089 96.7457 89.205V85.539C96.7457 85.4523 96.7717 85.383 96.8237 85.331C96.8843 85.2703 96.958 85.24 97.0447 85.24H97.6947C97.7813 85.24 97.8507 85.2703 97.9027 85.331C97.9633 85.383 97.9937 85.4523 97.9937 85.539V89.14C97.9937 90.4313 98.557 91.077 99.6837 91.077C100.23 91.077 100.663 90.908 100.984 90.57C101.304 90.2233 101.465 89.7467 101.465 89.14V85.539C101.465 85.4523 101.491 85.383 101.543 85.331C101.603 85.2703 101.677 85.24 101.764 85.24H102.414C102.5 85.24 102.57 85.2703 102.622 85.331C102.674 85.383 102.7 85.4523 102.7 85.539V91.701C102.7 91.7877 102.674 91.8613 102.622 91.922C102.57 91.974 102.5 92 102.414 92H101.803C101.716 92 101.642 91.974 101.582 91.922C101.53 91.8613 101.504 91.7877 101.504 91.701V91.129C101.261 91.4583 100.966 91.7097 100.62 91.883C100.273 92.0477 99.844 92.13 99.3327 92.13Z" fill="#160D2E"/>
<path d="M104.93 92C104.843 92 104.77 91.974 104.709 91.922C104.657 91.8613 104.631 91.7877 104.631 91.701V85.552C104.631 85.4653 104.657 85.3917 104.709 85.331C104.77 85.2703 104.843 85.24 104.93 85.24H105.528C105.615 85.24 105.688 85.2703 105.749 85.331C105.81 85.3917 105.84 85.4653 105.84 85.552V86.124C106.195 85.5347 106.802 85.24 107.66 85.24H108.167C108.254 85.24 108.323 85.2703 108.375 85.331C108.436 85.383 108.466 85.4523 108.466 85.539V86.072C108.466 86.1587 108.436 86.228 108.375 86.28C108.323 86.332 108.254 86.358 108.167 86.358H107.387C106.919 86.358 106.551 86.4967 106.282 86.774C106.013 87.0427 105.879 87.411 105.879 87.879V91.701C105.879 91.7877 105.849 91.8613 105.788 91.922C105.727 91.974 105.654 92 105.567 92H104.93Z" fill="#160D2E"/>
<path d="M112.75 92C112.664 92 112.59 91.974 112.529 91.922C112.477 91.8613 112.451 91.7877 112.451 91.701V85.539C112.451 85.4523 112.477 85.383 112.529 85.331C112.59 85.2703 112.664 85.24 112.75 85.24H113.335C113.422 85.24 113.491 85.2703 113.543 85.331C113.604 85.383 113.634 85.4523 113.634 85.539V85.994C114.085 85.4047 114.713 85.11 115.519 85.11C116.481 85.11 117.162 85.5087 117.56 86.306C117.768 85.942 118.063 85.6517 118.444 85.435C118.826 85.2183 119.255 85.11 119.731 85.11C120.442 85.11 121.023 85.3527 121.473 85.838C121.924 86.3233 122.149 87.0253 122.149 87.944V91.701C122.149 91.7877 122.119 91.8613 122.058 91.922C122.006 91.974 121.937 92 121.85 92H121.239C121.153 92 121.079 91.974 121.018 91.922C120.966 91.8613 120.94 91.7877 120.94 91.701V88.061C120.94 87.385 120.797 86.8997 120.511 86.605C120.234 86.3103 119.866 86.163 119.406 86.163C118.999 86.163 118.648 86.3147 118.353 86.618C118.059 86.9127 117.911 87.3937 117.911 88.061V91.701C117.911 91.7877 117.881 91.8613 117.82 91.922C117.768 91.974 117.699 92 117.612 92H117.001C116.915 92 116.841 91.974 116.78 91.922C116.728 91.8613 116.702 91.7877 116.702 91.701V88.061C116.702 87.385 116.555 86.8997 116.26 86.605C115.974 86.3103 115.61 86.163 115.168 86.163C114.761 86.163 114.41 86.3147 114.115 86.618C113.821 86.9127 113.673 87.3893 113.673 88.048V91.701C113.673 91.7877 113.643 91.8613 113.582 91.922C113.53 91.974 113.461 92 113.374 92H112.75Z" fill="#160D2E"/>
<path d="M126.773 92.13C125.82 92.13 125.079 91.8613 124.55 91.324C124.03 90.7867 123.753 90.0717 123.718 89.179L123.705 88.62L123.718 88.061C123.753 87.177 124.034 86.4663 124.563 85.929C125.092 85.383 125.828 85.11 126.773 85.11C127.718 85.11 128.454 85.383 128.983 85.929C129.512 86.4663 129.793 87.177 129.828 88.061C129.837 88.1563 129.841 88.3427 129.841 88.62C129.841 88.8973 129.837 89.0837 129.828 89.179C129.793 90.0717 129.512 90.7867 128.983 91.324C128.463 91.8613 127.726 92.13 126.773 92.13ZM126.773 91.129C127.319 91.129 127.748 90.9557 128.06 90.609C128.381 90.2623 128.554 89.764 128.58 89.114C128.589 89.0273 128.593 88.8627 128.593 88.62C128.593 88.3773 128.589 88.2127 128.58 88.126C128.554 87.476 128.381 86.9777 128.06 86.631C127.748 86.2843 127.319 86.111 126.773 86.111C126.227 86.111 125.794 86.2843 125.473 86.631C125.152 86.9777 124.983 87.476 124.966 88.126L124.953 88.62L124.966 89.114C124.983 89.764 125.152 90.2623 125.473 90.609C125.794 90.9557 126.227 91.129 126.773 91.129Z" fill="#160D2E"/>
<path d="M131.768 92C131.681 92 131.608 91.974 131.547 91.922C131.495 91.8613 131.469 91.7877 131.469 91.701V85.539C131.469 85.4523 131.495 85.383 131.547 85.331C131.608 85.2703 131.681 85.24 131.768 85.24H132.379C132.466 85.24 132.535 85.2703 132.587 85.331C132.648 85.383 132.678 85.4523 132.678 85.539V86.111C132.929 85.7903 133.224 85.5433 133.562 85.37C133.909 85.1967 134.338 85.11 134.849 85.11C135.681 85.11 136.327 85.3787 136.786 85.916C137.254 86.4447 137.488 87.151 137.488 88.035V91.701C137.488 91.7877 137.458 91.8613 137.397 91.922C137.345 91.974 137.276 92 137.189 92H136.539C136.452 92 136.379 91.974 136.318 91.922C136.266 91.8613 136.24 91.7877 136.24 91.701V88.1C136.24 87.4847 136.088 87.008 135.785 86.67C135.49 86.332 135.061 86.163 134.498 86.163C133.952 86.163 133.519 86.3363 133.198 86.683C132.877 87.021 132.717 87.4933 132.717 88.1V91.701C132.717 91.7877 132.687 91.8613 132.626 91.922C132.574 91.974 132.505 92 132.418 92H131.768Z" fill="#160D2E"/>
<path d="M141.903 92C140.533 92 139.849 91.2373 139.849 89.712V86.28H138.835C138.748 86.28 138.674 86.254 138.614 86.202C138.562 86.1413 138.536 86.0677 138.536 85.981V85.539C138.536 85.4523 138.562 85.383 138.614 85.331C138.674 85.2703 138.748 85.24 138.835 85.24H139.849V83.069C139.849 82.9823 139.875 82.913 139.927 82.861C139.987 82.8003 140.061 82.77 140.148 82.77H140.759C140.845 82.77 140.915 82.8003 140.967 82.861C141.027 82.913 141.058 82.9823 141.058 83.069V85.24H142.67C142.756 85.24 142.826 85.2703 142.878 85.331C142.938 85.383 142.969 85.4523 142.969 85.539V85.981C142.969 86.0677 142.938 86.1413 142.878 86.202C142.826 86.254 142.756 86.28 142.67 86.28H141.058V89.621C141.058 90.0543 141.131 90.3837 141.279 90.609C141.426 90.8257 141.669 90.934 142.007 90.934H142.8C142.886 90.934 142.956 90.9643 143.008 91.025C143.068 91.077 143.099 91.1463 143.099 91.233V91.701C143.099 91.7877 143.068 91.8613 143.008 91.922C142.956 91.974 142.886 92 142.8 92H141.903Z" fill="#160D2E"/>
<path d="M144.654 92C144.567 92 144.494 91.974 144.433 91.922C144.381 91.8613 144.355 91.7877 144.355 91.701V83.069C144.355 82.9823 144.381 82.913 144.433 82.861C144.494 82.8003 144.567 82.77 144.654 82.77H145.304C145.391 82.77 145.46 82.8003 145.512 82.861C145.573 82.913 145.603 82.9823 145.603 83.069V86.098C145.854 85.7773 146.149 85.5347 146.487 85.37C146.825 85.1967 147.245 85.11 147.748 85.11C148.58 85.11 149.226 85.3787 149.685 85.916C150.153 86.4447 150.387 87.151 150.387 88.035V91.701C150.387 91.7877 150.357 91.8613 150.296 91.922C150.244 91.974 150.175 92 150.088 92H149.438C149.351 92 149.278 91.974 149.217 91.922C149.165 91.8613 149.139 91.7877 149.139 91.701V88.1C149.139 87.4847 148.987 87.008 148.684 86.67C148.389 86.332 147.96 86.163 147.397 86.163C146.851 86.163 146.413 86.3363 146.084 86.683C145.763 87.021 145.603 87.4933 145.603 88.1V91.701C145.603 91.7877 145.573 91.8613 145.512 91.922C145.46 91.974 145.391 92 145.304 92H144.654Z" fill="#160D2E"/>
<path d="M152.576 92C152.489 92 152.415 91.974 152.355 91.922C152.303 91.8613 152.277 91.7877 152.277 91.701V83.069C152.277 82.9823 152.303 82.913 152.355 82.861C152.415 82.8003 152.489 82.77 152.576 82.77H153.187C153.273 82.77 153.343 82.8003 153.395 82.861C153.455 82.913 153.486 82.9823 153.486 83.069V91.701C153.486 91.7877 153.455 91.8613 153.395 91.922C153.343 91.974 153.273 92 153.187 92H152.576Z" fill="#160D2E"/>
<path d="M156.608 94.47C156.539 94.47 156.478 94.444 156.426 94.392C156.374 94.34 156.348 94.2793 156.348 94.21C156.348 94.1493 156.37 94.0713 156.413 93.976L157.414 91.597L154.931 85.734C154.888 85.6213 154.866 85.5477 154.866 85.513C154.866 85.435 154.892 85.37 154.944 85.318C154.996 85.266 155.061 85.24 155.139 85.24H155.776C155.915 85.24 156.019 85.3137 156.088 85.461L158.064 90.193L160.092 85.461C160.161 85.3137 160.27 85.24 160.417 85.24H161.028C161.106 85.24 161.171 85.266 161.223 85.318C161.275 85.37 161.301 85.4307 161.301 85.5C161.301 85.526 161.279 85.604 161.236 85.734L157.544 94.249C157.475 94.3963 157.366 94.47 157.219 94.47H156.608Z" fill="#160D2E"/>
<path d="M165.754 92C165.667 92 165.593 91.974 165.533 91.922C165.481 91.8613 165.455 91.7877 165.455 91.701V83.069C165.455 82.9823 165.481 82.913 165.533 82.861C165.593 82.8003 165.667 82.77 165.754 82.77H166.365C166.451 82.77 166.521 82.8003 166.573 82.861C166.633 82.913 166.664 82.9823 166.664 83.069V91.701C166.664 91.7877 166.633 91.8613 166.573 91.922C166.521 91.974 166.451 92 166.365 92H165.754Z" fill="#160D2E"/>
<path d="M171.372 92.13C170.418 92.13 169.677 91.8613 169.149 91.324C168.629 90.7867 168.351 90.0717 168.317 89.179L168.304 88.62L168.317 88.061C168.351 87.177 168.633 86.4663 169.162 85.929C169.69 85.383 170.427 85.11 171.372 85.11C172.316 85.11 173.053 85.383 173.582 85.929C174.11 86.4663 174.392 87.177 174.427 88.061C174.435 88.1563 174.44 88.3427 174.44 88.62C174.44 88.8973 174.435 89.0837 174.427 89.179C174.392 90.0717 174.11 90.7867 173.582 91.324C173.062 91.8613 172.325 92.13 171.372 92.13ZM171.372 91.129C171.918 91.129 172.347 90.9557 172.659 90.609C172.979 90.2623 173.153 89.764 173.179 89.114C173.187 89.0273 173.192 88.8627 173.192 88.62C173.192 88.3773 173.187 88.2127 173.179 88.126C173.153 87.476 172.979 86.9777 172.659 86.631C172.347 86.2843 171.918 86.111 171.372 86.111C170.826 86.111 170.392 86.2843 170.072 86.631C169.751 86.9777 169.582 87.476 169.565 88.126L169.552 88.62L169.565 89.114C169.582 89.764 169.751 90.2623 170.072 90.609C170.392 90.9557 170.826 91.129 171.372 91.129Z" fill="#160D2E"/>
<path d="M177.952 92.13C177.528 92.13 177.133 92.0433 176.77 91.87C176.406 91.6967 176.115 91.4627 175.898 91.168C175.691 90.8647 175.587 90.531 175.587 90.167C175.587 89.595 175.82 89.127 176.288 88.763C176.765 88.3903 177.406 88.1477 178.212 88.035L180.15 87.762V87.385C180.15 86.501 179.642 86.059 178.628 86.059C178.247 86.059 177.935 86.1413 177.693 86.306C177.45 86.462 177.268 86.6483 177.146 86.865C177.12 86.943 177.086 86.9993 177.042 87.034C177.008 87.0687 176.956 87.086 176.887 87.086H176.327C176.249 87.086 176.18 87.06 176.12 87.008C176.068 86.9473 176.042 86.878 176.042 86.8C176.05 86.592 176.145 86.358 176.327 86.098C176.518 85.8293 176.809 85.5997 177.199 85.409C177.589 85.2097 178.069 85.11 178.641 85.11C179.612 85.11 180.31 85.3397 180.734 85.799C181.159 86.2497 181.372 86.813 181.372 87.489V91.701C181.372 91.7877 181.341 91.8613 181.281 91.922C181.229 91.974 181.159 92 181.072 92H180.475C180.388 92 180.314 91.974 180.253 91.922C180.201 91.8613 180.176 91.7877 180.176 91.701V91.142C179.985 91.4193 179.708 91.6533 179.344 91.844C178.98 92.0347 178.516 92.13 177.952 92.13ZM178.225 91.155C178.789 91.155 179.248 90.973 179.604 90.609C179.967 90.2363 180.15 89.7033 180.15 89.01V88.646L178.641 88.867C178.026 88.9537 177.562 89.101 177.251 89.309C176.939 89.5083 176.783 89.764 176.783 90.076C176.783 90.4227 176.926 90.6913 177.212 90.882C177.497 91.064 177.835 91.155 178.225 91.155Z" fill="#160D2E"/>
<path d="M183.539 92C183.453 92 183.379 91.974 183.318 91.922C183.266 91.8613 183.24 91.7877 183.24 91.701V85.539C183.24 85.4523 183.266 85.383 183.318 85.331C183.379 85.2703 183.453 85.24 183.539 85.24H184.15C184.237 85.24 184.306 85.2703 184.358 85.331C184.419 85.383 184.449 85.4523 184.449 85.539V86.111C184.701 85.7903 184.995 85.5433 185.333 85.37C185.68 85.1967 186.109 85.11 186.62 85.11C187.452 85.11 188.098 85.3787 188.557 85.916C189.025 86.4447 189.259 87.151 189.259 88.035V91.701C189.259 91.7877 189.229 91.8613 189.168 91.922C189.116 91.974 189.047 92 188.96 92H188.31C188.224 92 188.15 91.974 188.089 91.922C188.037 91.8613 188.011 91.7877 188.011 91.701V88.1C188.011 87.4847 187.86 87.008 187.556 86.67C187.262 86.332 186.833 86.163 186.269 86.163C185.723 86.163 185.29 86.3363 184.969 86.683C184.649 87.021 184.488 87.4933 184.488 88.1V91.701C184.488 91.7877 184.458 91.8613 184.397 91.922C184.345 91.974 184.276 92 184.189 92H183.539Z" fill="#160D2E"/>
<path d="M23.261 110C23.1744 110 23.1007 109.974 23.04 109.922C22.988 109.861 22.962 109.788 22.962 109.701V103.552C22.962 103.465 22.988 103.392 23.04 103.331C23.1007 103.27 23.1744 103.24 23.261 103.24H23.859C23.9457 103.24 24.0194 103.27 24.08 103.331C24.1407 103.392 24.171 103.465 24.171 103.552V104.124C24.5264 103.535 25.133 103.24 25.991 103.24H26.498C26.5847 103.24 26.654 103.27 26.706 103.331C26.7667 103.383 26.797 103.452 26.797 103.539V104.072C26.797 104.159 26.7667 104.228 26.706 104.28C26.654 104.332 26.5847 104.358 26.498 104.358H25.718C25.25 104.358 24.8817 104.497 24.613 104.774C24.3444 105.043 24.21 105.411 24.21 105.879V109.701C24.21 109.788 24.1797 109.861 24.119 109.922C24.0584 109.974 23.9847 110 23.898 110H23.261Z" fill="#160D2E"/>
<path d="M30.4776 110.13C29.5849 110.13 28.8699 109.857 28.3326 109.311C27.8039 108.756 27.5136 108.002 27.4616 107.049L27.4486 106.607L27.4616 106.178C27.5222 105.242 27.8169 104.497 28.3456 103.942C28.8829 103.387 29.5892 103.11 30.4646 103.11C31.4266 103.11 32.1719 103.418 32.7006 104.033C33.2292 104.64 33.4936 105.463 33.4936 106.503V106.724C33.4936 106.811 33.4632 106.884 33.4026 106.945C33.3506 106.997 33.2812 107.023 33.1946 107.023H28.6966V107.14C28.7226 107.703 28.8916 108.184 29.2036 108.583C29.5242 108.973 29.9446 109.168 30.4646 109.168C30.8632 109.168 31.1882 109.09 31.4396 108.934C31.6996 108.769 31.8902 108.6 32.0116 108.427C32.0896 108.323 32.1459 108.262 32.1806 108.245C32.2239 108.219 32.2976 108.206 32.4016 108.206H33.0386C33.1166 108.206 33.1816 108.228 33.2336 108.271C33.2856 108.314 33.3116 108.375 33.3116 108.453C33.3116 108.644 33.1902 108.873 32.9476 109.142C32.7136 109.411 32.3799 109.645 31.9466 109.844C31.5219 110.035 31.0322 110.13 30.4776 110.13ZM32.2586 106.126V106.087C32.2586 105.489 32.0939 105.004 31.7646 104.631C31.4439 104.25 31.0106 104.059 30.4646 104.059C29.9186 104.059 29.4852 104.25 29.1646 104.631C28.8526 105.004 28.6966 105.489 28.6966 106.087V106.126H32.2586Z" fill="#160D2E"/>
<path d="M35.36 112.47C35.2733 112.47 35.1996 112.44 35.139 112.379C35.087 112.327 35.061 112.258 35.061 112.171V103.539C35.061 103.452 35.087 103.383 35.139 103.331C35.1996 103.27 35.2733 103.24 35.36 103.24H35.958C36.0446 103.24 36.114 103.27 36.166 103.331C36.2266 103.383 36.257 103.452 36.257 103.539V104.111C36.7423 103.444 37.453 103.11 38.389 103.11C39.299 103.11 39.9793 103.396 40.43 103.968C40.8893 104.54 41.1363 105.277 41.171 106.178C41.1796 106.273 41.184 106.421 41.184 106.62C41.184 106.819 41.1796 106.967 41.171 107.062C41.1363 107.955 40.8893 108.691 40.43 109.272C39.9706 109.844 39.2903 110.13 38.389 110.13C37.4876 110.13 36.7856 109.805 36.283 109.155V112.171C36.283 112.258 36.257 112.327 36.205 112.379C36.153 112.44 36.0836 112.47 35.997 112.47H35.36ZM38.116 109.077C38.7313 109.077 39.1776 108.886 39.455 108.505C39.741 108.124 39.897 107.621 39.923 106.997C39.9316 106.91 39.936 106.785 39.936 106.62C39.936 104.982 39.3293 104.163 38.116 104.163C37.518 104.163 37.0673 104.362 36.764 104.761C36.4693 105.151 36.309 105.619 36.283 106.165L36.27 106.659L36.283 107.166C36.3003 107.677 36.465 108.124 36.777 108.505C37.089 108.886 37.5353 109.077 38.116 109.077Z" fill="#160D2E"/>
<path d="M44.6771 110.13C44.2524 110.13 43.8581 110.043 43.4941 109.87C43.1301 109.697 42.8398 109.463 42.6231 109.168C42.4151 108.865 42.3111 108.531 42.3111 108.167C42.3111 107.595 42.5451 107.127 43.0131 106.763C43.4898 106.39 44.1311 106.148 44.9371 106.035L46.8741 105.762V105.385C46.8741 104.501 46.3671 104.059 45.3531 104.059C44.9718 104.059 44.6598 104.141 44.4171 104.306C44.1744 104.462 43.9924 104.648 43.8711 104.865C43.8451 104.943 43.8104 104.999 43.7671 105.034C43.7324 105.069 43.6804 105.086 43.6111 105.086H43.0521C42.9741 105.086 42.9048 105.06 42.8441 105.008C42.7921 104.947 42.7661 104.878 42.7661 104.8C42.7748 104.592 42.8701 104.358 43.0521 104.098C43.2428 103.829 43.5331 103.6 43.9231 103.409C44.3131 103.21 44.7941 103.11 45.3661 103.11C46.3368 103.11 47.0344 103.34 47.4591 103.799C47.8838 104.25 48.0961 104.813 48.0961 105.489V109.701C48.0961 109.788 48.0658 109.861 48.0051 109.922C47.9531 109.974 47.8838 110 47.7971 110H47.1991C47.1124 110 47.0388 109.974 46.9781 109.922C46.9261 109.861 46.9001 109.788 46.9001 109.701V109.142C46.7094 109.419 46.4321 109.653 46.0681 109.844C45.7041 110.035 45.2404 110.13 44.6771 110.13ZM44.9501 109.155C45.5134 109.155 45.9728 108.973 46.3281 108.609C46.6921 108.236 46.8741 107.703 46.8741 107.01V106.646L45.3661 106.867C44.7508 106.954 44.2871 107.101 43.9751 107.309C43.6631 107.508 43.5071 107.764 43.5071 108.076C43.5071 108.423 43.6501 108.691 43.9361 108.882C44.2221 109.064 44.5601 109.155 44.9501 109.155Z" fill="#160D2E"/>
<path d="M51.0083 112.47C50.939 112.47 50.8783 112.444 50.8263 112.392C50.7743 112.34 50.7483 112.279 50.7483 112.21C50.7483 112.149 50.77 112.071 50.8133 111.976L51.8143 109.597L49.3313 103.734C49.288 103.621 49.2663 103.548 49.2663 103.513C49.2663 103.435 49.2923 103.37 49.3443 103.318C49.3963 103.266 49.4613 103.24 49.5393 103.24H50.1763C50.315 103.24 50.419 103.314 50.4883 103.461L52.4643 108.193L54.4923 103.461C54.5616 103.314 54.67 103.24 54.8173 103.24H55.4283C55.5063 103.24 55.5713 103.266 55.6233 103.318C55.6753 103.37 55.7013 103.431 55.7013 103.5C55.7013 103.526 55.6796 103.604 55.6363 103.734L51.9443 112.249C51.875 112.396 51.7666 112.47 51.6193 112.47H51.0083Z" fill="#160D2E"/>
<path d="M57.2972 110C57.2105 110 57.1368 109.974 57.0762 109.922C57.0242 109.861 56.9982 109.788 56.9982 109.701V103.539C56.9982 103.452 57.0242 103.383 57.0762 103.331C57.1368 103.27 57.2105 103.24 57.2972 103.24H57.8822C57.9688 103.24 58.0382 103.27 58.0902 103.331C58.1508 103.383 58.1812 103.452 58.1812 103.539V103.994C58.6318 103.405 59.2602 103.11 60.0662 103.11C61.0282 103.11 61.7085 103.509 62.1072 104.306C62.3152 103.942 62.6098 103.652 62.9912 103.435C63.3725 103.218 63.8015 103.11 64.2782 103.11C64.9888 103.11 65.5695 103.353 66.0202 103.838C66.4708 104.323 66.6962 105.025 66.6962 105.944V109.701C66.6962 109.788 66.6658 109.861 66.6052 109.922C66.5532 109.974 66.4838 110 66.3972 110H65.7862C65.6995 110 65.6258 109.974 65.5652 109.922C65.5132 109.861 65.4872 109.788 65.4872 109.701V106.061C65.4872 105.385 65.3442 104.9 65.0582 104.605C64.7808 104.31 64.4125 104.163 63.9532 104.163C63.5458 104.163 63.1948 104.315 62.9002 104.618C62.6055 104.913 62.4582 105.394 62.4582 106.061V109.701C62.4582 109.788 62.4278 109.861 62.3672 109.922C62.3152 109.974 62.2458 110 62.1592 110H61.5482C61.4615 110 61.3878 109.974 61.3272 109.922C61.2752 109.861 61.2492 109.788 61.2492 109.701V106.061C61.2492 105.385 61.1018 104.9 60.8072 104.605C60.5212 104.31 60.1572 104.163 59.7152 104.163C59.3078 104.163 58.9568 104.315 58.6622 104.618C58.3675 104.913 58.2202 105.389 58.2202 106.048V109.701C58.2202 109.788 58.1898 109.861 58.1292 109.922C58.0772 109.974 58.0078 110 57.9212 110H57.2972Z" fill="#160D2E"/>
<path d="M71.2549 110.13C70.3622 110.13 69.6472 109.857 69.1099 109.311C68.5812 108.756 68.2909 108.002 68.2389 107.049L68.2259 106.607L68.2389 106.178C68.2996 105.242 68.5942 104.497 69.1229 103.942C69.6602 103.387 70.3666 103.11 71.2419 103.11C72.2039 103.11 72.9492 103.418 73.4779 104.033C74.0066 104.64 74.2709 105.463 74.2709 106.503V106.724C74.2709 106.811 74.2406 106.884 74.1799 106.945C74.1279 106.997 74.0586 107.023 73.9719 107.023H69.4739V107.14C69.4999 107.703 69.6689 108.184 69.9809 108.583C70.3016 108.973 70.7219 109.168 71.2419 109.168C71.6406 109.168 71.9656 109.09 72.2169 108.934C72.4769 108.769 72.6676 108.6 72.7889 108.427C72.8669 108.323 72.9232 108.262 72.9579 108.245C73.0012 108.219 73.0749 108.206 73.1789 108.206H73.8159C73.8939 108.206 73.9589 108.228 74.0109 108.271C74.0629 108.314 74.0889 108.375 74.0889 108.453C74.0889 108.644 73.9676 108.873 73.7249 109.142C73.4909 109.411 73.1572 109.645 72.7239 109.844C72.2992 110.035 71.8096 110.13 71.2549 110.13ZM73.0359 106.126V106.087C73.0359 105.489 72.8712 105.004 72.5419 104.631C72.2212 104.25 71.7879 104.059 71.2419 104.059C70.6959 104.059 70.2626 104.25 69.9419 104.631C69.6299 105.004 69.4739 105.489 69.4739 106.087V106.126H73.0359Z" fill="#160D2E"/>
<path d="M76.1243 110C76.0376 110 75.964 109.974 75.9033 109.922C75.8513 109.861 75.8253 109.788 75.8253 109.701V103.539C75.8253 103.452 75.8513 103.383 75.9033 103.331C75.964 103.27 76.0376 103.24 76.1243 103.24H76.7353C76.822 103.24 76.8913 103.27 76.9433 103.331C77.004 103.383 77.0343 103.452 77.0343 103.539V104.111C77.2856 103.79 77.5803 103.543 77.9183 103.37C78.265 103.197 78.694 103.11 79.2053 103.11C80.0373 103.11 80.683 103.379 81.1423 103.916C81.6103 104.445 81.8443 105.151 81.8443 106.035V109.701C81.8443 109.788 81.814 109.861 81.7533 109.922C81.7013 109.974 81.632 110 81.5453 110H80.8953C80.8086 110 80.735 109.974 80.6743 109.922C80.6223 109.861 80.5963 109.788 80.5963 109.701V106.1C80.5963 105.485 80.4446 105.008 80.1413 104.67C79.8466 104.332 79.4176 104.163 78.8543 104.163C78.3083 104.163 77.875 104.336 77.5543 104.683C77.2336 105.021 77.0733 105.493 77.0733 106.1V109.701C77.0733 109.788 77.043 109.861 76.9823 109.922C76.9303 109.974 76.861 110 76.7743 110H76.1243Z" fill="#160D2E"/>
<path d="M86.2592 110C84.8899 110 84.2052 109.237 84.2052 107.712V104.28H83.1912C83.1046 104.28 83.0309 104.254 82.9702 104.202C82.9182 104.141 82.8922 104.068 82.8922 103.981V103.539C82.8922 103.452 82.9182 103.383 82.9702 103.331C83.0309 103.27 83.1046 103.24 83.1912 103.24H84.2052V101.069C84.2052 100.982 84.2312 100.913 84.2832 100.861C84.3439 100.8 84.4176 100.77 84.5042 100.77H85.1152C85.2019 100.77 85.2712 100.8 85.3232 100.861C85.3839 100.913 85.4142 100.982 85.4142 101.069V103.24H87.0262C87.1129 103.24 87.1822 103.27 87.2342 103.331C87.2949 103.383 87.3252 103.452 87.3252 103.539V103.981C87.3252 104.068 87.2949 104.141 87.2342 104.202C87.1822 104.254 87.1129 104.28 87.0262 104.28H85.4142V107.621C85.4142 108.054 85.4879 108.384 85.6352 108.609C85.7826 108.826 86.0252 108.934 86.3632 108.934H87.1562C87.2429 108.934 87.3122 108.964 87.3642 109.025C87.4249 109.077 87.4552 109.146 87.4552 109.233V109.701C87.4552 109.788 87.4249 109.861 87.3642 109.922C87.3122 109.974 87.2429 110 87.1562 110H86.2592Z" fill="#160D2E"/>
<path d="M91.0384 110.13C90.4317 110.13 89.9204 110.035 89.5044 109.844C89.097 109.645 88.7894 109.419 88.5814 109.168C88.382 108.917 88.2824 108.709 88.2824 108.544C88.2824 108.457 88.3127 108.392 88.3734 108.349C88.4427 108.297 88.512 108.271 88.5814 108.271H89.1664C89.253 108.271 89.331 108.314 89.4004 108.401C89.6084 108.644 89.8337 108.834 90.0764 108.973C90.319 109.112 90.644 109.181 91.0514 109.181C91.502 109.181 91.866 109.094 92.1434 108.921C92.4294 108.739 92.5724 108.492 92.5724 108.18C92.5724 107.972 92.5117 107.803 92.3904 107.673C92.2777 107.534 92.0784 107.417 91.7924 107.322C91.515 107.218 91.099 107.105 90.5444 106.984C89.7904 106.819 89.253 106.581 88.9324 106.269C88.6204 105.957 88.4644 105.554 88.4644 105.06C88.4644 104.731 88.5597 104.419 88.7504 104.124C88.9497 103.821 89.2357 103.578 89.6084 103.396C89.9897 103.205 90.4447 103.11 90.9734 103.11C91.528 103.11 92.0004 103.201 92.3904 103.383C92.7804 103.565 93.0707 103.782 93.2614 104.033C93.4607 104.276 93.5604 104.479 93.5604 104.644C93.5604 104.722 93.53 104.787 93.4694 104.839C93.4174 104.891 93.3524 104.917 93.2744 104.917H92.7284C92.6244 104.917 92.5377 104.874 92.4684 104.787C92.3297 104.622 92.2084 104.497 92.1044 104.41C92.009 104.315 91.866 104.232 91.6754 104.163C91.4934 104.094 91.2594 104.059 90.9734 104.059C90.5574 104.059 90.2367 104.15 90.0114 104.332C89.786 104.505 89.6734 104.735 89.6734 105.021C89.6734 105.203 89.721 105.359 89.8164 105.489C89.9117 105.61 90.0937 105.723 90.3624 105.827C90.6397 105.931 91.0384 106.039 91.5584 106.152C92.3817 106.325 92.9624 106.577 93.3004 106.906C93.647 107.227 93.8204 107.638 93.8204 108.141C93.8204 108.514 93.712 108.852 93.4954 109.155C93.2787 109.458 92.958 109.697 92.5334 109.87C92.1174 110.043 91.619 110.13 91.0384 110.13Z" fill="#160D2E"/>
<path d="M23.581 36C23.4677 36 23.3657 35.9603 23.275 35.881C23.1957 35.7903 23.156 35.6883 23.156 35.575V24.525C23.156 24.4003 23.1957 24.2983 23.275 24.219C23.3657 24.1397 23.4677 24.1 23.581 24.1H25.961C26.0857 24.1 26.1877 24.1397 26.267 24.219C26.3463 24.2983 26.386 24.4003 26.386 24.525V33.331H31.486C31.6107 33.331 31.7127 33.3763 31.792 33.467C31.8827 33.5463 31.928 33.6483 31.928 33.773V35.575C31.928 35.6997 31.8827 35.8017 31.792 35.881C31.7127 35.9603 31.6107 36 31.486 36H23.581Z" fill="#4F2DA7"/>
<path d="M37.3459 36.17C35.9179 36.17 34.8186 35.8413 34.0479 35.184C33.2886 34.5153 32.8749 33.569 32.8069 32.345C32.7956 32.1977 32.7899 31.9427 32.7899 31.58C32.7899 31.2173 32.7956 30.9623 32.8069 30.815C32.8749 29.6137 33.2999 28.6787 34.0819 28.01C34.8753 27.33 35.9633 26.99 37.3459 26.99C38.7286 26.99 39.8109 27.33 40.5929 28.01C41.3863 28.6787 41.8169 29.6137 41.8849 30.815C41.9076 31.1097 41.9189 31.3647 41.9189 31.58C41.9189 31.7953 41.9076 32.0503 41.8849 32.345C41.8169 33.569 41.3976 34.5153 40.6269 35.184C39.8676 35.8413 38.7739 36.17 37.3459 36.17ZM37.3459 34.028C37.8106 34.028 38.1563 33.8863 38.3829 33.603C38.6096 33.3083 38.74 32.8607 38.774 32.26C38.7853 32.1467 38.7909 31.92 38.7909 31.58C38.7909 31.24 38.7853 31.0133 38.774 30.9C38.74 30.3107 38.6096 29.8687 38.3829 29.574C38.1563 29.2793 37.8106 29.132 37.3459 29.132C36.8813 29.132 36.5356 29.2793 36.3089 29.574C36.0823 29.8687 35.952 30.3107 35.9179 30.9L35.9009 31.58L35.9179 32.26C35.952 32.8607 36.0823 33.3083 36.3089 33.603C36.5356 33.8863 36.8813 34.028 37.3459 34.028Z" fill="#4F2DA7"/>
<path d="M46.2073 36.17C45.6067 36.17 45.057 36.0567 44.5583 35.83C44.071 35.592 43.6857 35.269 43.4023 34.861C43.1303 34.453 42.9943 34.0053 42.9943 33.518C42.9943 32.7473 43.3117 32.124 43.9463 31.648C44.5923 31.1607 45.4763 30.8263 46.5983 30.645L48.7063 30.322V30.118C48.7063 29.6987 48.6213 29.3927 48.4513 29.2C48.2813 29.0073 47.9923 28.911 47.5843 28.911C47.3577 28.911 47.165 28.9507 47.0063 29.03C46.859 29.1093 46.689 29.2283 46.4963 29.387C46.349 29.5117 46.2187 29.6023 46.1053 29.659C46.06 29.7383 46.0033 29.778 45.9353 29.778H43.9633C43.85 29.778 43.7537 29.744 43.6743 29.676C43.6063 29.5967 43.578 29.506 43.5893 29.404C43.6007 29.098 43.7537 28.758 44.0483 28.384C44.343 27.9987 44.7907 27.67 45.3913 27.398C45.992 27.126 46.7343 26.99 47.6183 26.99C49.0237 26.99 50.0663 27.3017 50.7463 27.925C51.4263 28.537 51.7663 29.37 51.7663 30.424V35.575C51.7663 35.6883 51.7267 35.7903 51.6473 35.881C51.568 35.9603 51.466 36 51.3413 36H49.2503C49.137 36 49.035 35.9603 48.9443 35.881C48.865 35.7903 48.8253 35.6883 48.8253 35.575V34.98C48.576 35.3313 48.2303 35.6203 47.7883 35.847C47.3463 36.0623 46.8193 36.17 46.2073 36.17ZM47.0573 34.164C47.556 34.164 47.9583 33.9997 48.2643 33.671C48.5817 33.3423 48.7403 32.8663 48.7403 32.243V32.039L47.3293 32.277C46.3773 32.4583 45.9013 32.7983 45.9013 33.297C45.9013 33.5577 46.009 33.7673 46.2243 33.926C46.451 34.0847 46.7287 34.164 47.0573 34.164Z" fill="#4F2DA7"/>
<path d="M54.0405 36C53.9271 36 53.8251 35.9603 53.7345 35.881C53.6551 35.7903 53.6155 35.6883 53.6155 35.575V27.585C53.6155 27.4603 53.6551 27.3583 53.7345 27.279C53.8251 27.1997 53.9271 27.16 54.0405 27.16H56.1315C56.2561 27.16 56.3581 27.1997 56.4375 27.279C56.5168 27.3583 56.5565 27.4603 56.5565 27.585V28.231C56.8625 27.857 57.2535 27.5567 57.7295 27.33C58.2168 27.1033 58.7721 26.99 59.3955 26.99C60.0415 26.99 60.6138 27.1373 61.1125 27.432C61.6225 27.7267 62.0191 28.163 62.3025 28.741C62.5971 29.319 62.7445 30.016 62.7445 30.832V35.575C62.7445 35.6883 62.7048 35.7903 62.6255 35.881C62.5461 35.9603 62.4441 36 62.3195 36H60.0585C59.9338 36 59.8261 35.9603 59.7355 35.881C59.6561 35.8017 59.6165 35.6997 59.6165 35.575V30.934C59.6165 30.424 59.4918 30.033 59.2425 29.761C59.0045 29.489 58.6531 29.353 58.1885 29.353C57.7351 29.353 57.3781 29.4947 57.1175 29.778C56.8568 30.05 56.7265 30.4353 56.7265 30.934V35.575C56.7265 35.6883 56.6868 35.7903 56.6075 35.881C56.5281 35.9603 56.4261 36 56.3015 36H54.0405Z" fill="#4F2DA7"/>
<path d="M72.3231 36.17C70.9404 36.17 69.8524 35.8017 69.0591 35.065C68.2657 34.317 67.8577 33.2347 67.8351 31.818V31.291C67.8804 29.9423 68.2997 28.8883 69.0931 28.129C69.8864 27.3697 70.9574 26.99 72.306 26.99C73.2807 26.99 74.1024 27.1883 74.771 27.585C75.451 27.9703 75.9554 28.5087 76.284 29.2C76.6241 29.88 76.7941 30.6563 76.7941 31.529V31.954C76.7941 32.0787 76.7487 32.1863 76.6581 32.277C76.5787 32.3563 76.4767 32.396 76.3521 32.396H70.9631V32.498C70.9744 33.008 71.0934 33.4217 71.32 33.739C71.5467 34.045 71.8697 34.198 72.2891 34.198C72.5611 34.198 72.7764 34.147 72.9351 34.045C73.1051 33.9317 73.2637 33.79 73.4111 33.62C73.5131 33.5067 73.5924 33.4387 73.6491 33.416C73.7171 33.382 73.819 33.365 73.9551 33.365H76.1821C76.2841 33.365 76.369 33.399 76.437 33.467C76.5164 33.5237 76.556 33.5973 76.556 33.688C76.556 33.9827 76.3861 34.3283 76.0461 34.725C75.7174 35.1217 75.23 35.4617 74.584 35.745C73.9494 36.0283 73.1957 36.17 72.3231 36.17ZM73.666 30.662V30.628C73.666 30.084 73.5471 29.6647 73.3091 29.37C73.0711 29.064 72.7367 28.911 72.306 28.911C71.8754 28.911 71.541 29.064 71.3031 29.37C71.0764 29.6647 70.9631 30.084 70.9631 30.628V30.662H73.666Z" fill="#4F2DA7"/>
<path d="M78.7606 36C78.6359 36 78.5283 35.9603 78.4376 35.881C78.3583 35.8017 78.3186 35.6997 78.3186 35.575V24.355C78.3186 24.2303 78.3583 24.1283 78.4376 24.049C78.5283 23.9697 78.6359 23.93 78.7606 23.93H80.8856C81.0103 23.93 81.1123 23.9697 81.1916 24.049C81.2709 24.1283 81.3106 24.2303 81.3106 24.355V35.575C81.3106 35.6883 81.2709 35.7903 81.1916 35.881C81.1123 35.9603 81.0103 36 80.8856 36H78.7606Z" fill="#4F2DA7"/>
<path d="M83.6743 25.936C83.5496 25.936 83.4476 25.8963 83.3683 25.817C83.2889 25.7263 83.2493 25.6187 83.2493 25.494V23.913C83.2493 23.7883 83.2889 23.6863 83.3683 23.607C83.4589 23.5163 83.5609 23.471 83.6743 23.471H85.7993C85.9239 23.471 86.0259 23.5163 86.1053 23.607C86.1959 23.6863 86.2413 23.7883 86.2413 23.913V25.494C86.2413 25.6187 86.1959 25.7263 86.1053 25.817C86.0259 25.8963 85.9239 25.936 85.7993 25.936H83.6743ZM83.6743 36C83.5609 36 83.4589 35.9603 83.3683 35.881C83.2889 35.7903 83.2493 35.6883 83.2493 35.575V27.585C83.2493 27.4603 83.2889 27.3583 83.3683 27.279C83.4589 27.1997 83.5609 27.16 83.6743 27.16H85.7993C85.9239 27.16 86.0259 27.1997 86.1053 27.279C86.1959 27.3583 86.2413 27.4603 86.2413 27.585V35.575C86.2413 35.6997 86.1959 35.8017 86.1053 35.881C86.0259 35.9603 85.9239 36 85.7993 36H83.6743Z" fill="#4F2DA7"/>
<path d="M92.5999 39.74C91.5119 39.74 90.6279 39.5643 89.9479 39.213C89.2679 38.8617 88.7806 38.4537 88.4859 37.989C88.1913 37.5357 88.0439 37.156 88.0439 36.85C88.0439 36.7367 88.0893 36.6403 88.1799 36.561C88.2706 36.4817 88.3726 36.442 88.4859 36.442H90.7639C90.8773 36.442 90.9679 36.4647 91.0359 36.51C91.1039 36.5667 91.1663 36.6573 91.2229 36.782C91.3363 37.0313 91.4836 37.224 91.6649 37.36C91.8463 37.5073 92.1296 37.581 92.5149 37.581C93.0023 37.581 93.3649 37.4563 93.6029 37.207C93.8409 36.969 93.9599 36.5667 93.9599 36V34.861C93.3593 35.4843 92.5376 35.796 91.4949 35.796C90.3503 35.796 89.4719 35.4673 88.8599 34.81C88.2593 34.1413 87.9306 33.161 87.8739 31.869L87.8569 31.41C87.8569 30.0273 88.1629 28.945 88.7749 28.163C89.3983 27.381 90.3049 26.99 91.4949 26.99C92.0729 26.99 92.5829 27.1033 93.0249 27.33C93.4669 27.5453 93.8353 27.84 94.1299 28.214V27.602C94.1299 27.4773 94.1696 27.3753 94.2489 27.296C94.3283 27.2053 94.4303 27.16 94.5549 27.16H96.6289C96.7536 27.16 96.8556 27.2053 96.9349 27.296C97.0256 27.3753 97.0709 27.4773 97.0709 27.602V35.745C97.0709 37.0483 96.6799 38.04 95.8979 38.72C95.1159 39.4 94.0166 39.74 92.5999 39.74ZM92.4639 33.501C92.9513 33.501 93.3139 33.3537 93.5519 33.059C93.7899 32.7643 93.9259 32.3903 93.9599 31.937C93.9713 31.8577 93.9769 31.6877 93.9769 31.427C93.9769 31.155 93.9713 30.985 93.9599 30.917C93.9259 30.4523 93.7899 30.0783 93.5519 29.795C93.3139 29.5003 92.9513 29.353 92.4639 29.353C91.9653 29.353 91.6026 29.506 91.3759 29.812C91.1493 30.1067 91.0246 30.5203 91.0019 31.053L90.9849 31.427C90.9849 32.073 91.0926 32.583 91.3079 32.957C91.5233 33.3197 91.9086 33.501 92.4639 33.501Z" fill="#4F2DA7"/>
<path d="M99.4457 25.936C99.3211 25.936 99.2191 25.8963 99.1397 25.817C99.0604 25.7263 99.0208 25.6187 99.0208 25.494V23.913C99.0208 23.7883 99.0604 23.6863 99.1397 23.607C99.2304 23.5163 99.3324 23.471 99.4457 23.471H101.571C101.695 23.471 101.797 23.5163 101.877 23.607C101.967 23.6863 102.013 23.7883 102.013 23.913V25.494C102.013 25.6187 101.967 25.7263 101.877 25.817C101.797 25.8963 101.695 25.936 101.571 25.936H99.4457ZM99.4457 36C99.3324 36 99.2304 35.9603 99.1397 35.881C99.0604 35.7903 99.0208 35.6883 99.0208 35.575V27.585C99.0208 27.4603 99.0604 27.3583 99.1397 27.279C99.2304 27.1997 99.3324 27.16 99.4457 27.16H101.571C101.695 27.16 101.797 27.1997 101.877 27.279C101.967 27.3583 102.013 27.4603 102.013 27.585V35.575C102.013 35.6997 101.967 35.8017 101.877 35.881C101.797 35.9603 101.695 36 101.571 36H99.4457Z" fill="#4F2DA7"/>
<path d="M109.476 36.17C108.332 36.17 107.453 35.796 106.841 35.048V35.575C106.841 35.6883 106.802 35.7903 106.722 35.881C106.643 35.9603 106.541 36 106.416 36H104.393C104.269 36 104.161 35.9603 104.07 35.881C103.991 35.8017 103.951 35.6997 103.951 35.575V24.355C103.951 24.2303 103.991 24.1283 104.07 24.049C104.161 23.9697 104.269 23.93 104.393 23.93H106.586C106.711 23.93 106.813 23.9697 106.892 24.049C106.972 24.1283 107.011 24.2303 107.011 24.355V27.976C107.635 27.3187 108.456 26.99 109.476 26.99C110.564 26.99 111.426 27.347 112.06 28.061C112.695 28.7637 113.035 29.7327 113.08 30.968C113.092 31.1153 113.097 31.3193 113.097 31.58C113.097 31.8293 113.092 32.0277 113.08 32.175C113.035 33.4557 112.695 34.4417 112.06 35.133C111.437 35.8243 110.576 36.17 109.476 36.17ZM108.49 33.807C109 33.807 109.363 33.6597 109.578 33.365C109.805 33.059 109.935 32.6397 109.969 32.107C109.981 31.9937 109.986 31.818 109.986 31.58C109.986 31.342 109.981 31.1663 109.969 31.053C109.935 30.5203 109.805 30.1067 109.578 29.812C109.363 29.506 109 29.353 108.49 29.353C108.014 29.353 107.652 29.5003 107.402 29.795C107.164 30.0783 107.034 30.441 107.011 30.883C107 31.0303 106.994 31.24 106.994 31.512C106.994 31.784 107 31.9993 107.011 32.158C107.034 32.634 107.164 33.0307 107.402 33.348C107.64 33.654 108.003 33.807 108.49 33.807Z" fill="#4F2DA7"/>
<path d="M115.151 25.936C115.026 25.936 114.924 25.8963 114.845 25.817C114.765 25.7263 114.726 25.6187 114.726 25.494V23.913C114.726 23.7883 114.765 23.6863 114.845 23.607C114.935 23.5163 115.037 23.471 115.151 23.471H117.276C117.4 23.471 117.502 23.5163 117.582 23.607C117.672 23.6863 117.718 23.7883 117.718 23.913V25.494C117.718 25.6187 117.672 25.7263 117.582 25.817C117.502 25.8963 117.4 25.936 117.276 25.936H115.151ZM115.151 36C115.037 36 114.935 35.9603 114.845 35.881C114.765 35.7903 114.726 35.6883 114.726 35.575V27.585C114.726 27.4603 114.765 27.3583 114.845 27.279C114.935 27.1997 115.037 27.16 115.151 27.16H117.276C117.4 27.16 117.502 27.1997 117.582 27.279C117.672 27.3583 117.718 27.4603 117.718 27.585V35.575C117.718 35.6997 117.672 35.8017 117.582 35.881C117.502 35.9603 117.4 36 117.276 36H115.151Z" fill="#4F2DA7"/>
<path d="M120.098 36C119.974 36 119.866 35.9603 119.775 35.881C119.696 35.8017 119.656 35.6997 119.656 35.575V24.355C119.656 24.2303 119.696 24.1283 119.775 24.049C119.866 23.9697 119.974 23.93 120.098 23.93H122.223C122.348 23.93 122.45 23.9697 122.529 24.049C122.609 24.1283 122.648 24.2303 122.648 24.355V35.575C122.648 35.6883 122.609 35.7903 122.529 35.881C122.45 35.9603 122.348 36 122.223 36H120.098Z" fill="#4F2DA7"/>
<path d="M125.012 25.936C124.887 25.936 124.785 25.8963 124.706 25.817C124.627 25.7263 124.587 25.6187 124.587 25.494V23.913C124.587 23.7883 124.627 23.6863 124.706 23.607C124.797 23.5163 124.899 23.471 125.012 23.471H127.137C127.262 23.471 127.364 23.5163 127.443 23.607C127.534 23.6863 127.579 23.7883 127.579 23.913V25.494C127.579 25.6187 127.534 25.7263 127.443 25.817C127.364 25.8963 127.262 25.936 127.137 25.936H125.012ZM125.012 36C124.899 36 124.797 35.9603 124.706 35.881C124.627 35.7903 124.587 35.6883 124.587 35.575V27.585C124.587 27.4603 124.627 27.3583 124.706 27.279C124.797 27.1997 124.899 27.16 125.012 27.16H127.137C127.262 27.16 127.364 27.1997 127.443 27.279C127.534 27.3583 127.579 27.4603 127.579 27.585V35.575C127.579 35.6997 127.534 35.8017 127.443 35.881C127.364 35.9603 127.262 36 127.137 36H125.012Z" fill="#4F2DA7"/>
<path d="M134.159 36C131.756 36 130.555 34.8723 130.555 32.617V29.472H129.212C129.098 29.472 128.996 29.4323 128.906 29.353C128.826 29.2623 128.787 29.1603 128.787 29.047V27.585C128.787 27.4603 128.826 27.3583 128.906 27.279C128.996 27.1997 129.098 27.16 129.212 27.16H130.555V24.355C130.555 24.2303 130.594 24.1283 130.674 24.049C130.764 23.9697 130.866 23.93 130.98 23.93H133.071C133.195 23.93 133.297 23.9697 133.377 24.049C133.456 24.1283 133.496 24.2303 133.496 24.355V27.16H135.621C135.745 27.16 135.847 27.1997 135.927 27.279C136.017 27.3583 136.063 27.4603 136.063 27.585V29.047C136.063 29.1717 136.017 29.2737 135.927 29.353C135.847 29.4323 135.745 29.472 135.621 29.472H133.496V32.362C133.496 32.7587 133.569 33.059 133.717 33.263C133.864 33.467 134.102 33.569 134.431 33.569H135.774C135.898 33.569 136 33.6143 136.08 33.705C136.159 33.7843 136.199 33.8863 136.199 34.011V35.575C136.199 35.6883 136.159 35.7903 136.08 35.881C136 35.9603 135.898 36 135.774 36H134.159Z" fill="#4F2DA7"/>
<path d="M139.236 39.23C139.134 39.23 139.049 39.196 138.981 39.128C138.913 39.06 138.879 38.975 138.879 38.873C138.879 38.7937 138.89 38.72 138.913 38.652L140.256 35.456L136.992 27.738C136.958 27.6473 136.941 27.585 136.941 27.551C136.963 27.4377 137.009 27.347 137.077 27.279C137.156 27.1997 137.247 27.16 137.349 27.16H139.372C139.61 27.16 139.774 27.279 139.865 27.517L141.752 32.345L143.69 27.517C143.803 27.279 143.973 27.16 144.2 27.16H146.206C146.308 27.16 146.393 27.1997 146.461 27.279C146.54 27.347 146.58 27.4263 146.58 27.517C146.58 27.5963 146.568 27.67 146.546 27.738L141.735 38.873C141.621 39.111 141.446 39.23 141.208 39.23H139.236Z" fill="#4F2DA7"/>
<path d="M27.083 62.17C25.791 62.17 24.7427 61.83 23.938 61.15C23.1447 60.4587 22.7197 59.501 22.663 58.277L22.646 57.597L22.663 56.9C22.7083 55.676 23.1333 54.7183 23.938 54.027C24.7427 53.3357 25.791 52.99 27.083 52.99C28.069 52.99 28.8963 53.1657 29.565 53.517C30.2337 53.8683 30.7323 54.2877 31.061 54.775C31.3897 55.251 31.5653 55.6873 31.588 56.084C31.5993 56.2087 31.5597 56.3163 31.469 56.407C31.3783 56.4863 31.2707 56.526 31.146 56.526H28.868C28.7433 56.526 28.647 56.4977 28.579 56.441C28.511 56.3843 28.4487 56.2937 28.392 56.169C28.2673 55.8517 28.103 55.6193 27.899 55.472C27.7063 55.3247 27.457 55.251 27.151 55.251C26.2783 55.251 25.825 55.829 25.791 56.985L25.774 57.631L25.791 58.192C25.8023 58.7813 25.9213 59.2177 26.148 59.501C26.3747 59.773 26.709 59.909 27.151 59.909C27.4797 59.909 27.7347 59.841 27.916 59.705C28.1087 59.5577 28.2673 59.3197 28.392 58.991C28.4487 58.8663 28.511 58.7757 28.579 58.719C28.647 58.6623 28.7433 58.634 28.868 58.634H31.146C31.2593 58.634 31.3613 58.6737 31.452 58.753C31.5427 58.8323 31.588 58.9287 31.588 59.042C31.588 59.3933 31.4293 59.8183 31.112 60.317C30.806 60.8043 30.313 61.235 29.633 61.609C28.953 61.983 28.103 62.17 27.083 62.17Z" fill="#4F2DA7"/>
<path d="M35.7151 62.17C35.1145 62.17 34.5648 62.0567 34.0661 61.83C33.5788 61.592 33.1935 61.269 32.9101 60.861C32.6381 60.453 32.5021 60.0053 32.5021 59.518C32.5021 58.7473 32.8195 58.124 33.4541 57.648C34.1001 57.1607 34.9841 56.8263 36.1061 56.645L38.2141 56.322V56.118C38.2141 55.6987 38.1291 55.3927 37.9591 55.2C37.7891 55.0073 37.5001 54.911 37.0921 54.911C36.8655 54.911 36.6728 54.9507 36.5141 55.03C36.3668 55.1093 36.1968 55.2283 36.0041 55.387C35.8568 55.5117 35.7265 55.6023 35.6131 55.659C35.5678 55.7383 35.5111 55.778 35.4431 55.778H33.4711C33.3578 55.778 33.2615 55.744 33.1821 55.676C33.1141 55.5967 33.0858 55.506 33.0971 55.404C33.1085 55.098 33.2615 54.758 33.5561 54.384C33.8508 53.9987 34.2985 53.67 34.8991 53.398C35.4998 53.126 36.2421 52.99 37.1261 52.99C38.5315 52.99 39.5741 53.3017 40.2541 53.925C40.9341 54.537 41.2741 55.37 41.2741 56.424V61.575C41.2741 61.6883 41.2345 61.7903 41.1551 61.881C41.0758 61.9603 40.9738 62 40.8491 62H38.7581C38.6448 62 38.5428 61.9603 38.4521 61.881C38.3728 61.7903 38.3331 61.6883 38.3331 61.575V60.98C38.0838 61.3313 37.7381 61.6203 37.2961 61.847C36.8541 62.0623 36.3271 62.17 35.7151 62.17ZM36.5651 60.164C37.0638 60.164 37.4661 59.9997 37.7721 59.671C38.0895 59.3423 38.2481 58.8663 38.2481 58.243V58.039L36.8371 58.277C35.8851 58.4583 35.4091 58.7983 35.4091 59.297C35.4091 59.5577 35.5168 59.7673 35.7321 59.926C35.9588 60.0847 36.2365 60.164 36.5651 60.164Z" fill="#4F2DA7"/>
<path d="M43.5653 62C43.4406 62 43.333 61.9603 43.2423 61.881C43.163 61.8017 43.1233 61.6997 43.1233 61.575V50.355C43.1233 50.2303 43.163 50.1283 43.2423 50.049C43.333 49.9697 43.4406 49.93 43.5653 49.93H45.6903C45.815 49.93 45.917 49.9697 45.9963 50.049C46.0756 50.1283 46.1153 50.2303 46.1153 50.355V61.575C46.1153 61.6883 46.0756 61.7903 45.9963 61.881C45.917 61.9603 45.815 62 45.6903 62H43.5653Z" fill="#4F2DA7"/>
<path d="M52.168 62.17C50.876 62.17 49.8276 61.83 49.023 61.15C48.2296 60.4587 47.8046 59.501 47.748 58.277L47.731 57.597L47.748 56.9C47.7933 55.676 48.2183 54.7183 49.023 54.027C49.8276 53.3357 50.876 52.99 52.168 52.99C53.154 52.99 53.9813 53.1657 54.65 53.517C55.3186 53.8683 55.8173 54.2877 56.146 54.775C56.4746 55.251 56.6503 55.6873 56.673 56.084C56.6843 56.2087 56.6446 56.3163 56.554 56.407C56.4633 56.4863 56.3556 56.526 56.231 56.526H53.953C53.8283 56.526 53.732 56.4977 53.664 56.441C53.596 56.3843 53.5336 56.2937 53.477 56.169C53.3523 55.8517 53.188 55.6193 52.984 55.472C52.7913 55.3247 52.542 55.251 52.236 55.251C51.3633 55.251 50.91 55.829 50.876 56.985L50.859 57.631L50.876 58.192C50.8873 58.7813 51.0063 59.2177 51.233 59.501C51.4596 59.773 51.794 59.909 52.236 59.909C52.5646 59.909 52.8196 59.841 53.001 59.705C53.1936 59.5577 53.3523 59.3197 53.477 58.991C53.5336 58.8663 53.596 58.7757 53.664 58.719C53.732 58.6623 53.8283 58.634 53.953 58.634H56.231C56.3443 58.634 56.4463 58.6737 56.537 58.753C56.6276 58.8323 56.673 58.9287 56.673 59.042C56.673 59.3933 56.5143 59.8183 56.197 60.317C55.891 60.8043 55.398 61.235 54.718 61.609C54.038 61.983 53.188 62.17 52.168 62.17Z" fill="#4F2DA7"/>
<path d="M61.3781 62.17C60.3808 62.17 59.5761 61.8357 58.9641 61.167C58.3521 60.4983 58.0461 59.552 58.0461 58.328V53.585C58.0461 53.4603 58.0858 53.3583 58.1651 53.279C58.2558 53.1997 58.3578 53.16 58.4711 53.16H60.7321C60.8568 53.16 60.9588 53.1997 61.0381 53.279C61.1288 53.3583 61.1741 53.4603 61.1741 53.585V58.226C61.1741 59.28 61.6444 59.807 62.5851 59.807C63.0384 59.807 63.3898 59.671 63.6391 59.399C63.8998 59.1157 64.0301 58.7247 64.0301 58.226V53.585C64.0301 53.4603 64.0698 53.3583 64.1491 53.279C64.2398 53.1997 64.3474 53.16 64.4721 53.16H66.7161C66.8408 53.16 66.9428 53.1997 67.0221 53.279C67.1014 53.3583 67.1411 53.4603 67.1411 53.585V61.575C67.1411 61.6883 67.1014 61.7903 67.0221 61.881C66.9428 61.9603 66.8408 62 66.7161 62H64.6421C64.5174 62 64.4098 61.9603 64.3191 61.881C64.2398 61.8017 64.2001 61.6997 64.2001 61.575V60.929C63.6108 61.7563 62.6701 62.17 61.3781 62.17Z" fill="#4F2DA7"/>
<path d="M69.5135 62C69.3889 62 69.2812 61.9603 69.1905 61.881C69.1112 61.8017 69.0715 61.6997 69.0715 61.575V50.355C69.0715 50.2303 69.1112 50.1283 69.1905 50.049C69.2812 49.9697 69.3889 49.93 69.5135 49.93H71.6385C71.7632 49.93 71.8652 49.9697 71.9445 50.049C72.0239 50.1283 72.0635 50.2303 72.0635 50.355V61.575C72.0635 61.6883 72.0239 61.7903 71.9445 61.881C71.8652 61.9603 71.7632 62 71.6385 62H69.5135Z" fill="#4F2DA7"/>
<path d="M76.6712 62.17C76.0705 62.17 75.5209 62.0567 75.0222 61.83C74.5349 61.592 74.1495 61.269 73.8662 60.861C73.5942 60.453 73.4582 60.0053 73.4582 59.518C73.4582 58.7473 73.7755 58.124 74.4102 57.648C75.0562 57.1607 75.9402 56.8263 77.0622 56.645L79.1702 56.322V56.118C79.1702 55.6987 79.0852 55.3927 78.9152 55.2C78.7452 55.0073 78.4562 54.911 78.0482 54.911C77.8215 54.911 77.6289 54.9507 77.4702 55.03C77.3229 55.1093 77.1529 55.2283 76.9602 55.387C76.8129 55.5117 76.6825 55.6023 76.5692 55.659C76.5239 55.7383 76.4672 55.778 76.3992 55.778H74.4272C74.3139 55.778 74.2175 55.744 74.1382 55.676C74.0702 55.5967 74.0419 55.506 74.0532 55.404C74.0645 55.098 74.2175 54.758 74.5122 54.384C74.8069 53.9987 75.2545 53.67 75.8552 53.398C76.4559 53.126 77.1982 52.99 78.0822 52.99C79.4875 52.99 80.5302 53.3017 81.2102 53.925C81.8902 54.537 82.2302 55.37 82.2302 56.424V61.575C82.2302 61.6883 82.1905 61.7903 82.1112 61.881C82.0319 61.9603 81.9299 62 81.8052 62H79.7142C79.6009 62 79.4989 61.9603 79.4082 61.881C79.3289 61.7903 79.2892 61.6883 79.2892 61.575V60.98C79.0399 61.3313 78.6942 61.6203 78.2522 61.847C77.8102 62.0623 77.2832 62.17 76.6712 62.17ZM77.5212 60.164C78.0199 60.164 78.4222 59.9997 78.7282 59.671C79.0455 59.3423 79.2042 58.8663 79.2042 58.243V58.039L77.7932 58.277C76.8412 58.4583 76.3652 58.7983 76.3652 59.297C76.3652 59.5577 76.4729 59.7673 76.6882 59.926C76.9149 60.0847 77.1925 60.164 77.5212 60.164Z" fill="#4F2DA7"/>
<path d="M88.6539 62C86.2513 62 85.0499 60.8723 85.0499 58.617V55.472H83.7069C83.5936 55.472 83.4916 55.4323 83.4009 55.353C83.3216 55.2623 83.2819 55.1603 83.2819 55.047V53.585C83.2819 53.4603 83.3216 53.3583 83.4009 53.279C83.4916 53.1997 83.5936 53.16 83.7069 53.16H85.0499V50.355C85.0499 50.2303 85.0896 50.1283 85.1689 50.049C85.2596 49.9697 85.3616 49.93 85.4749 49.93H87.5659C87.6906 49.93 87.7926 49.9697 87.8719 50.049C87.9513 50.1283 87.9909 50.2303 87.9909 50.355V53.16H90.1159C90.2406 53.16 90.3426 53.1997 90.4219 53.279C90.5126 53.3583 90.5579 53.4603 90.5579 53.585V55.047C90.5579 55.1717 90.5126 55.2737 90.4219 55.353C90.3426 55.4323 90.2406 55.472 90.1159 55.472H87.9909V58.362C87.9909 58.7587 88.0646 59.059 88.2119 59.263C88.3593 59.467 88.5973 59.569 88.9259 59.569H90.2689C90.3936 59.569 90.4956 59.6143 90.5749 59.705C90.6543 59.7843 90.6939 59.8863 90.6939 60.011V61.575C90.6939 61.6883 90.6543 61.7903 90.5749 61.881C90.4956 61.9603 90.3936 62 90.2689 62H88.6539Z" fill="#4F2DA7"/>
<path d="M96.3147 62.17C94.8867 62.17 93.7874 61.8413 93.0167 61.184C92.2574 60.5153 91.8437 59.569 91.7757 58.345C91.7644 58.1977 91.7587 57.9427 91.7587 57.58C91.7587 57.2173 91.7644 56.9623 91.7757 56.815C91.8437 55.6137 92.2687 54.6787 93.0507 54.01C93.844 53.33 94.932 52.99 96.3147 52.99C97.6974 52.99 98.7797 53.33 99.5617 54.01C100.355 54.6787 100.786 55.6137 100.854 56.815C100.876 57.1097 100.888 57.3647 100.888 57.58C100.888 57.7953 100.876 58.0503 100.854 58.345C100.786 59.569 100.366 60.5153 99.5957 61.184C98.8364 61.8413 97.7427 62.17 96.3147 62.17ZM96.3147 60.028C96.7794 60.028 97.125 59.8863 97.3517 59.603C97.5784 59.3083 97.7087 58.8607 97.7427 58.26C97.754 58.1467 97.7597 57.92 97.7597 57.58C97.7597 57.24 97.754 57.0133 97.7427 56.9C97.7087 56.3107 97.5784 55.8687 97.3517 55.574C97.125 55.2793 96.7794 55.132 96.3147 55.132C95.85 55.132 95.5044 55.2793 95.2777 55.574C95.051 55.8687 94.9207 56.3107 94.8867 56.9L94.8697 57.58L94.8867 58.26C94.9207 58.8607 95.051 59.3083 95.2777 59.603C95.5044 59.8863 95.85 60.028 96.3147 60.028Z" fill="#4F2DA7"/>
<path d="M102.932 62C102.819 62 102.717 61.9603 102.626 61.881C102.547 61.7903 102.507 61.6883 102.507 61.575V53.602C102.507 53.4773 102.547 53.3753 102.626 53.296C102.705 53.2053 102.807 53.16 102.932 53.16H105.006C105.131 53.16 105.233 53.2053 105.312 53.296C105.403 53.3753 105.448 53.4773 105.448 53.602V54.248C105.765 53.8967 106.134 53.6303 106.553 53.449C106.984 53.2563 107.46 53.16 107.981 53.16H108.746C108.871 53.16 108.973 53.1997 109.052 53.279C109.131 53.3583 109.171 53.4603 109.171 53.585V55.438C109.171 55.5513 109.131 55.6533 109.052 55.744C108.973 55.8233 108.871 55.863 108.746 55.863H107.029C106.576 55.863 106.224 55.9877 105.975 56.237C105.737 56.4863 105.618 56.8377 105.618 57.291V61.575C105.618 61.6997 105.573 61.8017 105.482 61.881C105.403 61.9603 105.301 62 105.176 62H102.932Z" fill="#4F2DA7"/>
<defs>
<filter id="filter0_dd" x="0" y="0" width="324" height="144" filterUnits="userSpaceOnUse" color-interpolation-filters="sRGB">
<feFlood flood-opacity="0" result="BackgroundImageFix"/>
<feColorMatrix in="SourceAlpha" type="matrix" values="0 0 0 0 0 0 0 0 0 0 0 0 0 0 0 0 0 0 127 0"/>
<feOffset dy="2"/>
<feGaussianBlur stdDeviation="1"/>
<feColorMatrix type="matrix" values="0 0 0 0 0 0 0 0 0 0 0 0 0 0 0 0 0 0 0.0483186 0"/>
<feBlend mode="normal" in2="BackgroundImageFix" result="effect1_dropShadow"/>
<feColorMatrix in="SourceAlpha" type="matrix" values="0 0 0 0 0 0 0 0 0 0 0 0 0 0 0 0 0 0 127 0"/>
<feOffset/>
<feGaussianBlur stdDeviation="1"/>
<feColorMatrix type="matrix" values="0 0 0 0 0 0 0 0 0 0 0 0 0 0 0 0 0 0 0.12 0"/>
<feBlend mode="normal" in2="effect1_dropShadow" result="effect2_dropShadow"/>
<feBlend mode="normal" in="SourceGraphic" in2="effect2_dropShadow" result="shape"/>
</filter>
<linearGradient id="paint0_linear" x1="322" y1="140" x2="322" y2="278" gradientUnits="userSpaceOnUse">
<stop stop-color="white" stop-opacity="0.8"/>
<stop offset="0.05" stop-color="white" stop-opacity="0.4"/>
<stop offset="0.2" stop-color="white" stop-opacity="0.01"/>
<stop offset="1" stop-color="white" stop-opacity="0.01"/>
</linearGradient>
<linearGradient id="paint1_linear" x1="322" y1="140" x2="322" y2="278" gradientUnits="userSpaceOnUse">
<stop stop-opacity="0.01"/>
<stop offset="0.8" stop-opacity="0.01"/>
<stop offset="0.950255" stop-opacity="0.02"/>
<stop offset="1" stop-opacity="0.04"/>
</linearGradient>
</defs>
</svg>
