<svg xmlns="http://www.w3.org/2000/svg" xmlns:xlink="http://www.w3.org/1999/xlink" width="320" height="298" viewBox="0 0 320 298">
  <defs>
    <rect id="card_upload_selfie-a" width="320" height="298" x="0" y="0" rx="6"/>
    <linearGradient id="card_upload_selfie-c" x1="50%" x2="50%" y1="84.385%" y2="0%">
      <stop offset="0%" stop-color="#FFF"/>
      <stop offset="100%" stop-color="#DCDCDC"/>
    </linearGradient>
    <linearGradient id="card_upload_selfie-d" x1="50%" x2="50%" y1="0%" y2="84.48%">
      <stop offset="0%" stop-color="#A8A8A8"/>
      <stop offset="100%" stop-color="#FFF"/>
    </linearGradient>
  </defs>
  <g fill="none" fill-rule="evenodd">
    <g stroke-dasharray="8 6">
      <mask id="card_upload_selfie-b" fill="#fff">
        <use xlink:href="#card_upload_selfie-a"/>
      </mask>
      <path fill="#FFF" fill-rule="nonzero" d="M6,0 L314,0 C317.313708,-6.08718376e-16 320,2.6862915 320,6 L320,292 C320,295.313708 317.313708,298 314,298 L6,298 C2.6862915,298 4.05812251e-16,295.313708 0,292 L0,6 C-4.05812251e-16,2.6862915 2.6862915,6.08718376e-16 6,0 Z" mask="url(#card_upload_selfie-b)"/>
    </g>
    <path fill="url(#card_upload_selfie-c)" fill-rule="nonzero" stroke="url(#card_upload_selfie-d)" d="M115.327346,185.468688 L115.327346,166.069315 C110.364716,157.497499 107.657826,148.023387 106.304382,139.451571 C103.146344,139.000422 99.537158,134.940089 95.0256763,120.052198 C89.1607496,99.7505281 95.4768245,96.5924906 100.439455,97.0436388 C96.8302692,86.2160817 96.379121,75.8396729 99.08601,65.9144122 C101.7929,54.1845587 108.108974,45.1615945 114.876198,37.9432231 C119.38768,33.431741 124.35031,28.9202589 129.764089,25.7622214 C134.275571,22.6041839 138.787053,20.3484429 144.200831,18.54385 L144.200831,18.54385 C148.261165,17.1904054 152.772647,16.288109 157.28413,16.288109 C171.269724,14.9346643 182.097281,18.54385 189.766801,23.0553321 C201.496654,29.3714071 205.556988,37.9432231 205.556988,37.9432231 C205.556988,37.9432231 234.430474,40.1989642 221.798324,100.652824 C225.858658,102.006269 228.565547,107.420048 224.054065,123.210235 C218.640286,143.060756 213.226508,143.963053 210.519618,141.707312 C209.166174,148.474535 207.361581,156.144054 203.752395,162.911278 C203.752395,172.836538 203.752395,181.859503 203.752395,185.468688 C203.752395,186.370985 204.203543,187.273281 205.10584,187.724429 C211.421915,190.882467 240.746549,205.31921 270.522331,227.87662 C284.507925,238.253029 293.079741,254.945513 293.079741,272.540293 L293.079741,287.879332 C293.079741,292.390814 289.470555,296 284.959073,296 L34.1206678,296 C29.6091857,296 26,292.390814 26,287.879332 L26,272.540293 C26,254.945513 34.1206678,238.253029 48.5574106,227.87662 C78.3331925,205.31921 107.657826,190.882467 113.973901,187.724429 C114.876198,187.273281 115.327346,186.370985 115.327346,185.468688 Z"/>
  </g>
</svg>
