<svg xmlns="http://www.w3.org/2000/svg" width="320" height="150" viewBox="0 0 320 150">
    <defs>
        <linearGradient id="prefix__a" x1="100%" x2="0%" y1="89.04%" y2="30.566%">
            <stop offset="0%" stop-color="#FFF" stop-opacity="0"/>
            <stop offset="100%" stop-color="#4F2DA7"/>
        </linearGradient>
    </defs>
    <g fill="none" fill-rule="evenodd">
        <rect width="320" height="150" fill="#F6F2FF" rx="4"/>
        <path fill="#FAFCFF" fill-rule="nonzero" d="M263.342 142.522c-4.16 2.38-156.165 2.135-174.975 2.135-7.79 0-14.808 1.798-20.259-2.838-5.684-4.834-10.133-11.826-14.326-17.535-8.662-11.792-15.657-24.704-16.677-38.53-.39-5.302.198-10.885 3.692-15.395s10.535-7.57 16.86-6.012c6.017 1.481 11.506 6.736 17.255 4.68 3.868-1.383 4.939-5.294 5.65-8.644 2.66-12.556 7.553-25.453 18.86-34.39 11.31-8.933 30.54-12.415 43.3-4.84 7.037 4.178 11.02 10.86 13.978 17.474 2.959 6.614 5.23 13.534 9.977 19.437 4.747 5.902 12.71 10.752 21.451 10.412 7.675-.3 14.235-4.427 19.735-8.734 5.5-4.31 10.772-9.13 17.874-11.486 7.102-2.359 16.769-1.23 20.293 4.252 3.066 4.77.413 10.495-1.862 15.541-2.645 5.875-4.755 12.133-3.623 18.312 1.131 6.178 6.226 12.25 13.768 13.786 6.896 1.405 14.353-1.107 21.222.377 10.198 2.206 14.62 12.72 11.46 20.806-3.161 8.086-11.605 14.05-20.099 19.087h-.003c-1.357.81-2.508 1.507-3.551 2.105z"/>
        <g>
            <g>
                <g>
                    <path fill="#DFD8EF" d="M.52 0c1.718.018 3.336.68 4.782 1.47 6.095 3.33 10.005 9.037 11.883 15 1.882 5.964 1.928 12.228 1.698 18.4-.092 2.543.473 12.07-4.037 9.84-3.01-1.487-6.002-9.032-7.499-11.637C4.388 27.93 2.292 22.42 1.135 16.775.855 15.415-.835-.015.52 0zM24.051 48.818c6.594-8.676 15.76-15.913 26.407-20.846.285 3.495-1.492 6.883-3.692 9.845-5.215 7.012-10.102 11.91-17.157 17.504-2.008 1.592-10.454 6.325-11.024 5.513-1.802-2.565 3.794-9.82 5.466-12.016z" transform="translate(30 9) translate(127 18) translate(55.2)"/>
                    <path fill="#7F66BF" d="M12.952 92.72l-.797-.172c1.643-5.584 2.834-11.473 3.538-17.497.666-5.695.918-11.677.746-17.776-.16-5.724-.696-11.72-1.593-17.82-.855-5.81-2.02-11.708-3.462-17.536-1.149-4.636-2.859-10.679-5.927-16.313-.34-.623-.696-1.242-1.06-1.839l.729-.322c.369.608.733 1.234 1.077 1.867 3.106 5.7 4.829 11.792 5.986 16.464 1.446 5.845 2.615 11.766 3.47 17.594.902 6.124 1.438 12.145 1.602 17.89.171 6.128-.08 12.139-.75 17.862-.71 6.057-1.908 11.978-3.56 17.598z" opacity=".432" transform="translate(30 9) translate(127 18) translate(55.2)"/>
                    <path fill="#EFF6FF" fill-rule="nonzero" d="M16.686 68.157h-.016c-.227-.007-.403-.172-.395-.365.177-3.856 2.511-8.353 6.946-13.369 6.338-7.165 12.89-14.574 21.839-19.711.188-.108.444-.065.57.096.125.161.075.38-.114.487-8.836 5.07-15.345 12.431-21.641 19.55-4.33 4.898-6.61 9.263-6.778 12.972-.008.194-.193.34-.41.34z" transform="translate(30 9) translate(127 18) translate(55.2)"/>
                    <path fill="#7F66BF" d="M16.753 56.155c-.037 0-.075-.007-.113-.022-.146-.053-.213-.196-.15-.322 2.72-5.394 5.557-11.79 5.968-18.33.088-3.102-.184-6.307-.448-9.412-.13-1.532-.264-3.113-.352-4.658-.235-4.676-.063-10.697 3.361-15.83l.214-.322.264.293c1.082 1.195 1.35 1.531 1.342 1.696 2.36 3.445 2.946 7.194 2.988 9.906.059 3.988-.997 8.153-3.324 13.104-1.132 2.407-2.26 4.765-3.634 7.162-.008.014-.02.028-.03.043-.787 5.927-3.353 11.644-5.821 16.542-.047.096-.151.15-.265.15zm8.48-47.877c-3.072 4.926-3.223 10.643-3.001 15.115.088 1.538.222 3.116.352 4.643.264 3.116.537 6.336.449 9.466-.013.186-.026.376-.042.562 1.085-1.993 2.033-3.971 2.976-5.985 2.3-4.89 3.345-8.994 3.282-12.915-.042-2.697-.633-6.446-3.04-9.852-.209-.186-.682-.63-.976-1.034z" opacity=".432" transform="translate(30 9) translate(127 18) translate(55.2)"/>
                </g>
                <g>
                    <path fill="#DFD8EF" d="M59.802 24.743c-.822-1.088-2.159-1.807-3.53-2.362-5.771-2.321-12.6-2.142-18.702-.547-6.103 1.596-11.611 4.504-16.905 7.545-2.184 1.252-10.79 5.359-6.724 7.19 2.712 1.224 10.723-.407 13.707-.672 5.893-.526 11.699-1.77 17.186-3.681 1.312-.462 15.614-6.618 14.968-7.473z" transform="translate(30 9) translate(127 18) translate(60.668 39.225)"/>
                    <path fill="#7F66BF" d="M54.63 23.415c-.705.05-1.426.111-2.142.19-6.447.69-12.588 2.447-17.224 3.903-5.797 1.817-11.527 3.85-17.03 6.035-5.785 2.297-11.31 4.776-16.415 7.37-.612.31-1.215.622-1.819.94.42.022.838.047 1.257.072.31-.161.617-.322.931-.48 5.084-2.579 10.588-5.05 16.347-7.337 5.487-2.178 11.2-4.203 16.977-6.017 4.598-1.442 10.688-3.187 17.064-3.87.704-.076 1.412-.14 2.108-.187l-.054-.619z" opacity=".432" transform="translate(30 9) translate(127 18) translate(60.668 39.225)"/>
                    <path fill="#7F66BF" d="M2.972 40.3c4.464-5.523 9.892-11.683 16.77-16.366.009-.018.022-.04.034-.057 2.075-2.851 4.267-5.46 6.514-8.1 4.627-5.43 9.12-9.18 14.147-11.79C43.849 2.211 48.929.233 54.814.076c.197-.122.8-.1 3.014.082l.545.046-.264.408c-4.12 6.55-11.527 10.736-17.526 13.651-1.986.952-4.053 1.89-6.052 2.794-4.054 1.835-8.241 3.735-12.055 5.892C14.583 27.698 8.488 34.563 3.57 40.648c-.113.14-.34.175-.503.079-.042-.026-.075-.058-.1-.09-.08-.096-.08-.229.004-.336zM55.154.689C49.289.774 44.209 2.745 40.81 4.512c-4.938 2.569-9.369 6.264-13.937 11.63-1.882 2.208-3.723 4.394-5.487 6.715.222-.14.448-.275.675-.411 3.852-2.175 8.056-4.082 12.126-5.928 1.995-.905 4.057-1.839 6.036-2.787 5.734-2.79 12.78-6.754 16.88-12.846-.705.007-1.572-.13-1.95-.197z" opacity=".432" transform="translate(30 9) translate(127 18) translate(60.668 39.225)"/>
                    <path fill="#7F66BF" d="M20.246 23.25l.448.487c1.123-.758 2.561-1.842 4.083-2.994 1.802-1.36 3.663-2.769 5.03-3.638 4.46-2.851 9.054-5.649 13.66-8.321 4.607-2.67 9.348-5.284 14.097-7.774l-.378-.526c-4.757 2.494-9.51 5.112-14.125 7.788s-9.222 5.48-13.69 8.336c-1.388.887-3.261 2.303-5.076 3.67-1.51 1.148-2.943 2.229-4.05 2.973z" opacity=".432" transform="translate(30 9) translate(127 18) translate(60.668 39.225)"/>
                </g>
                <g>
                    <path fill="#F3F9FF" fill-rule="nonzero" d="M8.991 26.616C13.493 18.346 15.53 9.105 14.86 0c-3.194 1.456-5.327 4.178-6.887 6.972C4.28 13.587 2.28 19 .692 26.122c-.453 2.029-.638 9.63.34 9.617 3.093-.058 6.819-7.027 7.96-9.123z" transform="translate(30 9) translate(127 18) rotate(-60 23.434 12.646)"/>
                    <path fill="#7F66BF" d="M.868 36.01c1.312-1.724 2.515-3.806 3.6-6.239 3.303-7.401 6.72-15.053 7.017-23.17.008-.172-.15-.315-.352-.32-.201-.006-.369.13-.373.301-.298 8.01-3.689 15.616-6.97 22.971-1.14 2.554-2.407 4.708-3.79 6.454.293.003.583 0 .868.003z" opacity=".432" transform="translate(30 9) translate(127 18) rotate(-60 23.434 12.646)"/>
                </g>
                <g>
                    <path fill="#F6F2FF" d="M4.774 30.648C2.808 29.256.734 27.446.998 25.282c.037-.319.146-.655.444-.848.528-.347 1.29-.054 1.953-.111 1.4-.118 1.895-1.782 1.287-2.866-.608-1.084-1.844-1.788-2.77-2.69C1.101 17.98.52 17.03.225 16.013c-.381-1.328.139-3.145 1.727-3.292 1.153-.103 2.071.748 2.93 1.417.86.669 2.26 1.195 3.094.504.716-.593.415-1.606.13-2.425-.705-2-1.015-4.1-.918-6.189.067-1.456.36-2.966 1.366-4.143C9.557.708 11.431-.029 13.028.487c1.488.482 2.31 1.86 2.653 3.187.939 3.617-.629 7.323-1.107 11.004-.113.87.084 2.036 1.099 2.179.712.1 1.307-.408 1.856-.809 1.333-.976 3.106-1.51 4.867-1.456.302.011.616.04.868.183.574.322.553 1.048.347 1.606-.955 2.583-4.359 4.16-5.021 6.808-.088.354-.11.762.163 1.04.197.201.512.29.814.33 1.253.168 2.473-.347 3.705-.601 1.232-.254 2.817-.104 3.353.877.403.736.017 1.613-.473 2.31-1.518 2.143-4.012 3.682-6.694 4.694-2.406.905-5.66 1.975-8.325 1.993-2.515.01-4.552-1.903-6.359-3.184z" transform="translate(30 9) translate(127 18) rotate(40 -33.78 145.147)"/>
                    <path stroke="#B5A6D9" stroke-linecap="round" stroke-width=".8" d="M11.963 4.804L11.963 37.291" transform="translate(30 9) translate(127 18) rotate(40 -33.78 145.147)"/>
                    <path stroke="#E5EDF7" stroke-linecap="round" stroke-width=".8" d="M1.769 14.439c3.39 2.83 6.702 5.73 9.93 8.7M2.62 25.66c3.085 2.083 6.111 4.23 9.079 6.433" transform="translate(30 9) translate(127 18) rotate(40 -33.78 145.147)"/>
                    <path stroke="#B5A6D9" stroke-linecap="round" stroke-width=".8" d="M12.323 24.899c2.893-2.694 5.835-5.348 8.828-7.96" transform="translate(30 9) translate(127 18) rotate(40 -33.78 145.147)"/>
                </g>
                <g>
                    <path fill="#F2F8FF" fill-rule="nonzero" d="M15.065 4.164c-.512-.808-1.157-1.581-1.907-2.218C12.193.98 10.886.25 9.418.072 6.25-.318 3.392 1.9 1.963 4.347.524 6.804.008 9.645.503 12.36c.352 1.932 1.262 3.86 2.963 5.17.114.085.227.168.348.246 1.136 1.424 2.888 2.072 4.909 2.04 1.513-.026 3.441-.745 4.602-1.564 1.43-1.012 2.494-2.229 3.014-3.767 1.077-3.184.57-7.387-1.274-10.32z" transform="translate(30 9) translate(127 18) rotate(-50 57.016 15.345)"/>
                    <path stroke="#E2EEFF" stroke-linecap="round" stroke-width=".8" d="M8.501 3.127L8.501 22.885M1.974 6.51l5.57 5.517M1.639 11.408c.813.762 1.597 1.546 2.36 2.347M5.349 15.33c.951.969 1.936 1.913 2.955 2.833M8.564 9.527c1.32-1.478 2.594-2.987 3.826-4.522M8.706 15.934c1.182-1.127 2.39-2.232 3.617-3.324" transform="translate(30 9) translate(127 18) rotate(-50 57.016 15.345)"/>
                </g>
            </g>
            <g>
                <g>
                    <path fill="#DFD8EF" d="M37.918 7.817c-1.484.254-2.763 1.055-3.865 1.946-4.64 3.738-6.937 9.23-7.424 14.664-.486 5.43.68 10.868 2.063 16.188.57 2.193 1.907 10.528 5.39 7.966 2.322-1.71 3.467-8.668 4.267-11.136 1.58-4.876 2.34-9.942 2.255-14.997-.016-1.22-1.513-14.832-2.686-14.631z" transform="translate(30 9) translate(18 8) rotate(-20 46.28 7.167)"/>
                    <path fill="#EDF5FF" fill-rule="nonzero" d="M26.894 53.425C19.512 46.83 10.177 41.838 0 39.048c.423 3.07 2.616 5.76 5.093 8.017 5.868 5.348 11.04 8.911 18.233 12.771 2.046 1.098 10.274 4.021 10.614 3.238 1.069-2.472-5.173-7.974-7.046-9.649z" transform="translate(30 9) translate(18 8) rotate(-20 46.28 7.167)"/>
                    <path fill="#C5BBE3" fill-rule="nonzero" d="M44.947 89.93l.658-.258c-2.498-4.611-4.661-9.548-6.426-14.675-1.672-4.844-3.035-9.992-4.061-15.304-.96-4.983-1.648-10.257-2.042-15.67-.373-5.154-.499-10.43-.369-15.683.105-4.178.428-9.655 2.004-14.971.176-.587.365-1.174.566-1.742l-.692-.18c-.205.58-.398 1.174-.574 1.772-1.597 5.373-1.924 10.896-2.029 15.107-.13 5.27-.008 10.564.369 15.737.394 5.434 1.086 10.729 2.05 15.734 1.027 5.337 2.402 10.51 4.078 15.38 1.777 5.147 3.953 10.112 6.468 14.752z" transform="translate(30 9) translate(18 8) rotate(-20 46.28 7.167)"/>
                    <path fill="#E3EFFF" fill-rule="nonzero" d="M36.991 69.162c.004 0 .009 0 .013-.003.193-.04.318-.204.272-.369-.893-3.32-3.78-6.89-8.584-10.617-6.87-5.327-13.971-10.833-22.715-14.031-.184-.068-.398.007-.473.16-.08.158.004.34.188.405 8.63 3.159 15.69 8.629 22.514 13.92 4.694 3.638 7.507 7.101 8.366 10.296.042.168.226.268.42.24z" transform="translate(30 9) translate(18 8) rotate(-20 46.28 7.167)"/>
                    <path fill="#7F66BF" d="M34.153 58.652c-4.397-5.563-9.137-12.124-11.736-19.297-.017-.014-.034-.028-.05-.046-2.356-2.69-4.397-5.384-6.456-8.132-4.237-5.66-6.685-10.6-7.704-15.544-.691-3.362-.993-8.117.981-12.85-.059-.2.184-.672 1.19-2.364L10.626 0l.352.358c5.642 5.663 7.503 13.079 8.496 18.906.315 1.929.583 3.914.839 5.832.524 3.888 1.069 7.913 2.024 11.73 2.301 8.006 7.562 15.35 12.407 21.479.114.143.068.333-.096.43-.042.024-.088.039-.134.046-.13.025-.277-.022-.36-.13zM9.984 2.733c-2.045 4.694-1.747 9.448-1.06 12.793 1.002 4.862 3.416 9.73 7.6 15.319 1.722 2.3 3.432 4.56 5.323 6.807-.071-.229-.139-.457-.206-.686-.968-3.857-1.513-7.892-2.04-11.799-.26-1.917-.525-3.896-.84-5.817-.95-5.577-2.703-12.62-7.854-18.098-.248.565-.713 1.206-.923 1.481z" opacity=".432" transform="translate(30 9) translate(18 8) rotate(-20 46.28 7.167)"/>
                    <path fill="#7F66BF" d="M21.86 38.704l.691-.179c-.415-1.166-1.077-2.708-1.777-4.34-.826-1.927-1.681-3.92-2.134-5.322-1.484-4.583-2.858-9.259-4.09-13.891-1.233-4.633-2.352-9.359-3.333-14.038l-.713.107c.981 4.69 2.109 9.423 3.341 14.066 1.232 4.644 2.611 9.327 4.1 13.92.46 1.428 1.32 3.435 2.154 5.374.692 1.62 1.35 3.151 1.76 4.303z" opacity=".432" transform="translate(30 9) translate(18 8) rotate(-20 46.28 7.167)"/>
                </g>
                <g>
                    <path fill="#F2F8FF" fill-rule="nonzero" d="M.511 17.268C1.72 11.094 5.58 5.495 9.888.351c9.067 7.119 12.495 18.738 8.417 28.508-.713 1.703-1.66 3.384-3.186 4.672-4.183 3.524-8.471 1.803-11.078-1.667C.717 27.45-.495 22.427.51 17.268z" transform="translate(30 9) translate(18 8) rotate(30 -11.723 207.18)"/>
                    <path stroke="#EAF3FE" stroke-linecap="round" stroke-width=".8" d="M10.408 4.601L10.408 41.762M4.992 8.081c1.492 2.383 3.018 4.751 4.578 7.105M10.65 21.887c2.579-2.336 4.947-4.844 7.072-7.495" transform="translate(30 9) translate(18 8) rotate(30 -11.723 207.18)"/>
                </g>
                <g>
                    <path fill="#DFD8EF" d="M59.802 24.743c-.822-1.088-2.159-1.807-3.53-2.362-5.771-2.321-12.6-2.142-18.702-.547-6.103 1.596-11.611 4.504-16.905 7.545-2.184 1.252-10.79 5.359-6.724 7.19 2.712 1.224 10.723-.407 13.707-.672 5.893-.526 11.699-1.77 17.186-3.681 1.312-.462 15.614-6.618 14.968-7.473z" transform="translate(30 9) translate(18 8) scale(-1 1) rotate(-69 -.018 113.54)"/>
                    <path fill="#C5BBE3" fill-rule="nonzero" d="M54.63 23.415c-.705.05-1.426.111-2.142.19-6.447.69-12.588 2.447-17.224 3.903-5.797 1.817-11.527 3.85-17.03 6.035-5.785 2.297-11.31 4.776-16.415 7.37-.612.31-1.215.622-1.819.94.42.022.838.047 1.257.072.31-.161.617-.322.931-.48 5.084-2.579 10.588-5.05 16.347-7.337 5.487-2.178 11.2-4.203 16.977-6.017 4.598-1.442 10.688-3.187 17.064-3.87.704-.076 1.412-.14 2.108-.187l-.054-.619z" transform="translate(30 9) translate(18 8) scale(-1 1) rotate(-69 -.018 113.54)"/>
                    <path fill="#7F66BF" d="M2.972 40.3c4.464-5.523 9.892-11.683 16.77-16.366.009-.018.022-.04.034-.057 2.075-2.851 4.267-5.46 6.514-8.1 4.627-5.43 9.12-9.18 14.147-11.79C43.849 2.211 48.929.233 54.814.076c.197-.122.8-.1 3.014.082l.545.046-.264.408c-4.12 6.55-11.527 10.736-17.526 13.651-1.986.952-4.053 1.89-6.052 2.794-4.054 1.835-8.241 3.735-12.055 5.892C14.583 27.698 8.488 34.563 3.57 40.648c-.113.14-.34.175-.503.079-.042-.026-.075-.058-.1-.09-.08-.096-.08-.229.004-.336zM55.154.689C49.289.774 44.209 2.745 40.81 4.512c-4.938 2.569-9.369 6.264-13.937 11.63-1.882 2.208-3.723 4.394-5.487 6.715.222-.14.448-.275.675-.411 3.852-2.175 8.056-4.082 12.126-5.928 1.995-.905 4.057-1.839 6.036-2.787 5.734-2.79 12.78-6.754 16.88-12.846-.705.007-1.572-.13-1.95-.197z" opacity=".432" transform="translate(30 9) translate(18 8) scale(-1 1) rotate(-69 -.018 113.54)"/>
                    <path fill="#7F66BF" d="M20.246 23.25l.448.487c1.123-.758 2.561-1.842 4.083-2.994 1.802-1.36 3.663-2.769 5.03-3.638 4.46-2.851 9.054-5.649 13.66-8.321 4.607-2.67 9.348-5.284 14.097-7.774l-.378-.526c-4.757 2.494-9.51 5.112-14.125 7.788s-9.222 5.48-13.69 8.336c-1.388.887-3.261 2.303-5.076 3.67-1.51 1.148-2.943 2.229-4.05 2.973z" opacity=".432" transform="translate(30 9) translate(18 8) scale(-1 1) rotate(-69 -.018 113.54)"/>
                </g>
            </g>
            <g>
                <g>
                    <path fill="#F2F8FF" fill-rule="nonzero" d="M.654 25.902C2.464 16.64 8.255 8.242 14.719.526c13.6 10.679 18.743 28.108 12.625 42.763-1.069 2.554-2.49 5.076-4.778 7.008C16.29 55.583 9.859 53 5.948 47.797.968 41.173-.855 33.64.654 25.901z" transform="translate(30 9) translate(1 71) rotate(-48 26.246 10.786)"/>
                    <path stroke="#EAF3FE" stroke-linecap="round" d="M15.499 6.901L15.499 59.701M7.375 12.122c2.239 3.574 4.527 7.126 6.866 10.657M15.863 32.83c3.867-3.504 7.42-7.266 10.607-11.242" transform="translate(30 9) translate(1 71) rotate(-48 26.246 10.786)"/>
                </g>
                <g>
                    <path fill="#E8F3FF" fill-rule="nonzero" d="M5.014 29.59c-1.907-1.35-3.924-3.108-3.667-5.214.036-.309.141-.635.43-.828.513-.335 1.251-.053 1.901-.107 1.357-.116 1.84-1.73 1.247-2.781-.592-1.051-1.792-1.74-2.693-2.616-.786-.765-1.352-1.69-1.635-2.674-.372-1.288.137-3.055 1.677-3.198 1.121-.103 2.012.73 2.845 1.378.833.648 2.195 1.158 3.008.487.696-.577.403-1.56.125-2.357-.68-1.945-.985-3.984-.89-6.01.068-1.413.35-2.88 1.325-4.024C9.662.5 11.48-.214 13.031.286c1.446.47 2.242 1.807 2.578 3.1.911 3.514-.608 7.11-1.075 10.687-.11.845.084 1.976 1.064 2.115.692.098 1.273-.398 1.803-.787 1.294-.953 3.017-1.467 4.726-1.413.293.009.597.036.843.174.556.313.54 1.02.335 1.56-.927 2.51-4.233 4.043-4.878 6.615-.089.344-.104.742.158 1.01.194.197.497.282.79.322 1.216.161 2.4-.34 3.6-.581 1.195-.246 2.735-.103 3.254.85.393.715.016 1.565-.46 2.244-1.473 2.084-3.9 3.578-6.503 4.557-2.337.881-5.496 1.918-8.09 1.936-2.426.018-4.407-1.842-6.162-3.085z" transform="translate(30 9) translate(1 71) rotate(-70 39.78 20.003)"/>
                    <path stroke="#E5EDF7" stroke-linecap="round" d="M11.616 5.311L11.616 32.311M3.128 15.16c1.368 1.126 2.74 2.249 4.108 3.376M9.174 19.917c.676.622 1.352 1.239 2.028 1.86M3.83 24.94c2.489 1.837 4.946 3.706 7.372 5.611M11.826 26.07c2.32-2.647 4.679-5.267 7.073-7.865" transform="translate(30 9) translate(1 71) rotate(-70 39.78 20.003)"/>
                </g>
            </g>
            <path fill="url(#prefix__a)" fill-rule="nonzero" d="M43.694-.395l19.14 9.215-6.328 4.894 29.387 37.989 45.544 13.862.292.089.234.196 36.81 30.841 40.772 15.912-1.09 2.794-41-16-.23-.09-.188-.157-36.766-30.804-45.708-13.911-.457-.14-.292-.377L54.132 15.55l-6.326 4.895-4.112-20.84z" transform="translate(30 9)"/>
        </g>
        <g>
            <path fill="#DFD8EF" d="M57 15H1v64c0 1.105.895 2 2 2h52c1.105 0 2-.895 2-2V15z" transform="translate(40 60)"/>
            <path fill="#FFF" fill-rule="nonzero" d="M28.428 38.587c1.529 0 2.81-.228 3.842-.686 1.032-.457 1.862-1.052 2.489-1.783.078-.105.117-.203.117-.294.013-.144-.029-.262-.127-.353-.098-.092-.219-.137-.363-.137h-1.45c-.118 0-.225.026-.323.078-.098.052-.193.118-.285.196-.444.34-.934.595-1.47.764-.535.17-1.345.255-2.43.255-3.306 0-5.116-1.457-5.43-4.37-.038-.38-.058-.909-.058-1.588 0-.719.02-1.242.059-1.568.17-1.372.676-2.447 1.519-3.224.843-.778 2.061-1.167 3.655-1.167 1.32 0 2.372.157 3.156.47.784.314 1.359.791 1.725 1.432.365.64.581 1.47.646 2.489.013.222.02.549.02.98v.198c-.002.444-.008.764-.02.958 0 .353-.078.65-.235.892-.157.242-.411.363-.764.363-.314 0-.562-.108-.745-.324-.183-.215-.274-.526-.274-.93v-3.96c0-.144-.046-.261-.138-.353-.091-.091-.209-.137-.352-.137h-1.059c-.13 0-.245.046-.343.137-.098.092-.147.21-.147.353v.255c-.222-.288-.487-.51-.794-.667-.307-.156-.695-.235-1.166-.235-.967 0-1.721.36-2.264 1.078-.542.719-.813 1.699-.813 2.94 0 1.228.278 2.202.833 2.92.555.72 1.323 1.079 2.303 1.079.758 0 1.32-.111 1.686-.334.365-.222.653-.503.862-.842.196.248.5.473.911.676.412.202.912.304 1.5.304.81 0 1.502-.265 2.077-.794.575-.53.889-1.258.941-2.186.026-.418.04-.842.04-1.274 0-.3-.014-.699-.04-1.195-.144-1.947-.797-3.476-1.96-4.587-1.163-1.11-3.025-1.666-5.586-1.666-1.476 0-2.737.285-3.783.853-1.045.568-1.852 1.326-2.42 2.274-.569.947-.905 1.989-1.01 3.126-.039.326-.058.882-.058 1.666 0 .745.02 1.306.058 1.685.17 1.908.876 3.424 2.117 4.548 1.242 1.123 3.025 1.685 5.351 1.685zm-.294-5.9c-.483 0-.853-.173-1.107-.519-.255-.346-.383-.852-.383-1.519 0-1.372.497-2.058 1.49-2.058.51 0 .889.167 1.137.5.248.333.372.853.372 1.558 0 .706-.124 1.222-.372 1.549-.248.326-.627.49-1.137.49zM11.107 51.07c.36 0 .67-.058.934-.175.264-.117.465-.257.602-.42.138-.163.207-.306.207-.427 0-.037-.015-.069-.045-.095-.03-.025-.067-.038-.109-.038h-.917c-.056 0-.097.006-.123.017-.025.012-.059.041-.101.088-.06.07-.125.127-.192.171-.068.045-.158.067-.27.067-.173 0-.306-.064-.399-.193-.093-.128-.142-.297-.147-.507v-.042h2.219c.051 0 .095-.017.13-.052.034-.035.052-.079.052-.13v-.175c0-.36-.069-.68-.207-.962-.137-.283-.345-.505-.623-.666-.277-.16-.617-.241-1.018-.241-.555 0-.996.156-1.323.469-.327.313-.5.747-.518 1.302v.217c.01.583.177 1.028.504 1.334.327.305.775.458 1.344.458zm.553-2.268h-1.113v-.014c0-.224.048-.398.143-.521.096-.124.233-.186.41-.186.177 0 .315.062.413.185.098.124.147.298.147.522v.014zm4.991.623c.051 0 .093-.017.126-.052.033-.035.049-.076.049-.123v-.7c0-.051-.016-.093-.049-.126s-.075-.049-.126-.049h-2.205c-.051 0-.095.016-.13.049s-.052.075-.052.126v.7c0 .051.018.093.053.126.034.033.078.049.129.049h2.205zM19.367 51c.051 0 .093-.017.126-.053.033-.035.049-.075.049-.122v-1.946c0-.21.047-.365.14-.465.093-.1.212-.151.357-.151.15 0 .27.05.364.15.093.1.14.258.14.473v1.939c0 .051.018.093.053.126s.078.049.129.049h.861c.051 0 .093-.017.126-.053.033-.035.049-.075.049-.122v-1.939c0-.215.046-.372.137-.473.09-.1.208-.15.353-.15.154 0 .276.05.367.15.091.1.137.258.137.473v1.939c0 .051.018.093.053.126s.078.049.129.049h.861c.051 0 .093-.017.126-.053.033-.035.049-.075.049-.122v-1.988c0-.513-.12-.9-.36-1.159-.24-.258-.552-.388-.935-.388-.229 0-.443.056-.644.168-.2.112-.357.257-.469.434-.191-.401-.544-.602-1.057-.602-.224 0-.425.047-.602.14-.177.093-.322.208-.434.343v-.238c0-.051-.016-.093-.049-.126s-.075-.049-.126-.049h-.812c-.047 0-.087.016-.122.049s-.053.075-.053.126v3.29c0 .047.018.087.053.122s.075.053.122.053h.882zm7.168.07c.252 0 .469-.045.651-.136.182-.091.324-.21.427-.354v.245c0 .047.018.087.053.122s.075.053.122.053h.861c.051 0 .093-.017.126-.053.033-.035.049-.075.049-.122v-2.121c0-.434-.14-.778-.42-1.032-.28-.255-.71-.382-1.288-.382-.364 0-.67.056-.917.168-.247.112-.432.246-.553.403-.121.156-.184.297-.189.423-.005.042.008.078.038.108s.07.046.116.046h.812c.028 0 .051-.016.07-.049.047-.023.1-.06.161-.112.08-.065.15-.114.213-.147.063-.033.142-.049.235-.049.168 0 .287.04.357.119.07.08.105.205.105.378v.084l-.868.133c-.462.075-.825.211-1.088.41-.264.198-.396.456-.396.773 0 .2.057.385.172.553.114.168.273.3.476.395.203.096.428.144.675.144zm.35-.826c-.135 0-.248-.033-.34-.098-.09-.065-.136-.152-.136-.259 0-.205.196-.345.588-.42l.581-.098v.084c0 .257-.064.453-.192.588-.129.135-.296.203-.501.203zm4.452-3.388c.051 0 .095-.017.13-.053.035-.034.052-.078.052-.129v-.651c0-.051-.017-.095-.052-.13-.035-.035-.079-.052-.13-.052h-.875c-.047 0-.087.017-.122.053-.035.035-.053.078-.053.129v.651c0 .051.016.095.049.13s.075.052.126.052h.875zm0 4.144c.051 0 .095-.016.13-.049s.052-.075.052-.126v-3.29c0-.051-.017-.093-.052-.126-.035-.033-.079-.049-.13-.049h-.875c-.047 0-.087.016-.122.049s-.053.075-.053.126v3.29c0 .047.018.087.053.122s.075.053.122.053h.875zm2.737 0c.051 0 .093-.017.126-.053.033-.035.049-.075.049-.122v-4.62c0-.051-.016-.093-.049-.126s-.075-.049-.126-.049h-.875c-.051 0-.094.016-.13.049-.035.033-.052.075-.052.126v4.62c0 .051.017.093.052.126.035.033.079.049.13.049h.875z" transform="translate(40 60)"/>
            <path fill="#7F66BF" d="M39.083 0c1.105 0 2 .895 2 2v.5l13.93.061C56.665 2.57 58 3.91 58 5.561V15H0V5.561c0-1.651 1.335-2.992 2.987-3l13.93-.061V2c0-1.105.895-2 2-2zm-.208 1.25h-19.75c-.552 0-1 .448-1 1v1.5h21.75v-1.5c0-.552-.448-1-1-1z" transform="translate(40 60)"/>
            <path fill="#DFD8EF" d="M16 8h26c.552 0 1 .448 1 1s-.448 1-1 1H16c-.552 0-1-.448-1-1s.448-1 1-1z" transform="translate(40 60)"/>
            <path fill="#FFF" fill-rule="nonzero" d="M50 70v2H8v-2h42zm-14-4v2H8v-2h28zm7 0v2h-4v-2h4zM50 60v2H8v-2h42zm-14-4v2H8v-2h28zm7 0v2h-4v-2h4z" transform="translate(40 60)"/>
        </g>
        <g>
            <g transform="translate(76 52) translate(23.8)">
                <rect width="121.1" height="74.9" y="16.8" fill="#5F40AF" rx="10.5"/>
                <path fill="#7F66BF" d="M17.5 16.8h7v9.8c0 1.933-1.567 3.5-3.5 3.5s-3.5-1.567-3.5-3.5v-9.8zM96.6 16.8h7v9.8c0 1.933-1.567 3.5-3.5 3.5s-3.5-1.567-3.5-3.5v-9.8z"/>
                <path fill="#F0F7FF" d="M45.5 39.2H74.9V68.6H45.5z"/>
                <path fill="#4F2DA7" d="M59.671 53.9h1.058c4.734 0 8.571 3.837 8.571 8.571V65.1H51.1v-2.629c0-4.734 3.837-8.571 8.571-8.571z"/>
                <circle cx="60.2" cy="47.6" r="4.9" fill="#4F2DA7"/>
                <path fill="#7F66BF" d="M79.8 0c4.64 0 8.4 3.76 8.4 8.4v8.4h-4.9v-4.2c0-4.64-3.76-8.4-8.4-8.4H44.8c-4.64 0-8.4 3.76-8.4 8.4v4.2h-4.9V8.4c0-4.64 3.76-8.4 8.4-8.4h39.9z"/>
            </g>
            <g transform="translate(76 52) translate(0 45.5)">
                <rect width="59.5" height="35.7" fill="#FFF" rx="6.3"/>
                <path fill="#7F66BF" d="M49.932 19.576L46.155 14.6c-.495-.659-.832-1.082-1.012-1.224 1.192-.282 2.137-.8 2.856-1.552.495-.565.832-1.271.967-2.071h1.524c.486 0 .915-.314 1.063-.777.1-.313-.074-.648-.387-.748-.059-.019-.12-.028-.18-.028H49.01c-.09-.965-.382-1.788-.854-2.447h2.31c.486 0 .916-.314 1.063-.777.1-.313-.073-.648-.387-.748-.058-.019-.12-.028-.18-.028H41.91c-.486 0-.915.314-1.063.776-.1.314.074.649.387.749.059.018.12.028.18.028h1.592c1.102 0 1.935.235 2.52.753.45.4.719.965.831 1.694h-4.402c-.486 0-.915.314-1.063.776-.1.314.074.649.387.749.059.018.12.028.18.028h4.853c-.134.588-.45 1.059-.922 1.412-.697.517-1.754.776-3.17.776-.77 0-1.395.624-1.395 1.395v.44c.495 0 .99.165 1.44.495.404.282.786.658 1.146 1.176l2.977 4.105c.659.91 1.714 1.448 2.837 1.448.49 0 .887-.397.887-.888 0-.193-.063-.382-.18-.536z"/>
                <rect width="28.7" height="2.1" x="4.9" y="7" fill="#F6F2FF" rx="1.05"/>
                <rect width="28.7" height="2.1" x="4.9" y="11.2" fill="#F6F2FF" rx="1.05"/>
                <rect width="49.7" height="2.1" x="4.9" y="23.8" fill="#F6F2FF" rx="1.05"/>
                <rect width="28.7" height="2.1" x="4.9" y="15.4" fill="#F6F2FF" rx="1.05"/>
                <rect width="28.7" height="2.1" x="4.9" y="19.6" fill="#F6F2FF" rx="1.05"/>
                <rect width="49.7" height="2.1" x="4.9" y="28" fill="#F6F2FF" rx="1.05"/>
            </g>
            <g transform="translate(76 52) translate(122.5 33.6)">
                <path fill="#FFF" d="M2.8 0h37.8c.773 0 1.4.627 1.4 1.4v51.1H1.4V1.4C1.4.627 2.027 0 2.8 0z"/>
                <rect width="35" height="2.1" x="4.2" y="7.7" fill="#F6F2FF" rx="1.05"/>
                <rect width="35" height="2.1" x="4.2" y="11.9" fill="#F6F2FF" rx="1.05"/>
                <rect width="35" height="2.1" x="4.2" y="16.1" fill="#F6F2FF" rx="1.05"/>
                <rect width="35" height="2.1" x="4.2" y="20.3" fill="#F6F2FF" rx="1.05"/>
                <rect width="35" height="2.1" x="4.2" y="24.5" fill="#F6F2FF" rx="1.05"/>
                <path fill="#7F66BF" d="M3.5 26.226h18.706c1.21 0 2.334-.624 2.973-1.652l2.155-3.467c.639-1.028 1.763-1.653 2.973-1.653h6.617c1.7 0 3.078-1.377 3.078-3.077V14c0-.387.313-.7.7-.7H43.4c.387 0 .7.313.7.7v40.926c0 1.933-1.567 3.5-3.5 3.5H3.5c-1.933 0-3.5-1.567-3.5-3.5v-25.2c0-1.933 1.567-3.5 3.5-3.5z"/>
                <path fill="#F0F7FF" fill-rule="nonzero" d="M15.396 46.543c.786 0 1.459-.225 2.02-.673.602-.48.98-1.143 1.142-2h-1.162c-.143.551-.388.97-.735 1.245-.326.245-.755.377-1.275.377-.795 0-1.387-.255-1.764-.744-.347-.46-.52-1.122-.52-1.98 0-.836.173-1.488.53-1.958.387-.53.959-.785 1.724-.785.51 0 .928.102 1.254.326.337.225.561.572.684 1.051h1.162c-.112-.734-.428-1.326-.958-1.754-.551-.45-1.265-.674-2.122-.674-1.163 0-2.05.378-2.662 1.153-.54.673-.806 1.56-.806 2.642 0 1.101.255 1.979.775 2.631.592.755 1.5 1.143 2.713 1.143zm4.845-.143l.663-1.826h3.05l.663 1.826h1.275l-2.784-7.283H21.75L18.966 46.4h1.275zm3.356-2.805h-2.336l1.153-3.193h.04l1.143 3.193zm5.702 2.948c.928 0 1.652-.194 2.162-.561.51-.378.765-.898.765-1.55 0-.674-.316-1.194-.948-1.571-.286-.164-.918-.408-1.908-.714-.673-.215-1.091-.368-1.244-.45-.347-.183-.51-.438-.51-.744 0-.347.143-.602.449-.755.245-.132.591-.193 1.05-.193.53 0 .939.091 1.204.295.265.194.459.52.561.97h1.183c-.071-.796-.367-1.388-.877-1.765-.48-.357-1.153-.53-2.01-.53-.785 0-1.427.173-1.937.53-.551.367-.816.877-.816 1.52 0 .642.275 1.132.836 1.468.214.123.775.327 1.673.612.806.245 1.275.408 1.418.48.448.224.683.53.683.918 0 .306-.163.54-.47.724-.305.173-.734.265-1.264.265-.602 0-1.04-.112-1.326-.316-.316-.235-.51-.632-.592-1.183h-1.183c.051.928.388 1.601 1 2.03.5.346 1.203.52 2.101.52z"/>
            </g>
            <g transform="translate(76 52) translate(152 19)">
                <circle cx="16" cy="16" r="13" fill="#FFF"/>
                <path fill-rule="nonzero" d="M0 0H32V32H0z"/>
                <path fill="#D0021B" d="M16 0c8.837 0 16 7.163 16 16s-7.163 16-16 16S0 24.837 0 16 7.163 0 16 0zm-.015 22.857c-.636 0-1.173.222-1.612.665-.44.444-.659.981-.659 1.613 0 .724.23 1.287.689 1.69.46.402.997.604 1.612.604.606 0 1.135-.204 1.59-.612.454-.408.68-.968.68-1.682 0-.632-.224-1.17-.673-1.613-.449-.443-.991-.665-1.627-.665zm.121-18.286c-.717 0-1.294.205-1.733.614-.44.408-.659.978-.659 1.707 0 .537.046 1.42.137 2.65l.484 8.603c.09.818.242 1.426.454 1.826.212.4.59.6 1.135.6.535 0 .919-.206 1.15-.62.233-.413.384-1.006.455-1.78l.65-8.786c.071-.598.107-1.187.107-1.767 0-.985-.147-1.739-.44-2.262-.292-.523-.872-.785-1.74-.785z"/>
            </g>
        </g>
    </g>
</svg>
