<svg width="24" height="24" viewBox="0 0 24 24" fill="none" xmlns="http://www.w3.org/2000/svg">
<path d="M23.366 23.366C23.3148 23.4172 23.2054 23.4948 23.0459 23.44L17.5415 21.5486C17.4601 21.5207 17.3754 21.5068 17.291 21.5068C17.1666 21.5068 17.0427 21.5369 16.9306 21.5963C15.3398 22.4379 13.5421 22.8842 11.7319 22.887C5.661 22.8968 0.639137 17.9658 0.542957 11.8958C0.494563 8.8419 1.65623 5.97169 3.81398 3.81394C5.97173 1.65625 8.84107 0.494781 11.8959 0.543074C17.9657 0.639304 22.8964 5.65867 22.8869 11.732C22.8841 13.5423 22.4377 15.3399 21.5962 16.9306C21.4966 17.1189 21.4794 17.3401 21.5486 17.5415L23.44 23.0459C23.4948 23.2053 23.4172 23.315 23.366 23.366Z" fill="#E8E0FF"/>
</svg>
