<svg width="21" height="21" viewBox="0 0 21 21" fill="none" xmlns="http://www.w3.org/2000/svg">
<path d="M17.128 15.4122H16.7049C16.6764 15.1371 16.5576 14.9394 16.4041 14.8185H17.128C17.1625 14.8185 17.1906 14.7882 17.1906 14.7511C17.1906 14.7142 17.1625 14.6842 17.128 14.6842H15.3484C15.3139 14.6842 15.2858 14.7142 15.2858 14.7511C15.2858 14.788 15.3139 14.8185 15.3484 14.8185H16.1048C16.307 14.8586 16.5372 15.0394 16.5797 15.4122H15.3484C15.3139 15.4122 15.2858 15.4423 15.2858 15.4794C15.2858 15.5165 15.3139 15.5468 15.3484 15.5468H16.5879C16.5852 15.7336 16.5262 15.8848 16.4092 15.9966C16.0783 16.3124 15.4031 16.2319 15.3964 16.2313C15.3714 16.2283 15.3458 16.2422 15.3338 16.2669C15.3217 16.2912 15.325 16.3207 15.3418 16.3417L16.5293 17.8186C16.5417 17.8343 16.5589 17.8421 16.5766 17.8421C16.591 17.8421 16.6058 17.8368 16.6177 17.8257C16.6436 17.802 16.6467 17.759 16.6237 17.731L15.5338 16.3755C15.7689 16.3818 16.2199 16.3576 16.4921 16.0973C16.6365 15.9595 16.7104 15.7737 16.7126 15.547H17.128C17.1625 15.547 17.1906 15.5167 17.1906 15.4796C17.1906 15.4425 17.1627 15.4122 17.128 15.4122Z" fill="#D6AF09" stroke="#D6AF09" stroke-width="0.5"/>
<circle cx="16.3629" cy="16.2373" r="3.5" stroke="#4F2DA7" stroke-linecap="round" stroke-linejoin="round"/>
<path d="M10.1317 15.9688H1.67563C1.41498 15.9688 1.20361 15.7598 1.20361 15.5029V1.69819C1.20361 1.4405 1.41498 1.23193 1.67563 1.23193H19.7792C20.0399 1.23193 20.2512 1.44087 20.2512 1.69819V11.903" stroke="#4F2DA7" stroke-linecap="round" stroke-linejoin="round"/>
<path d="M1.2995 3.93553H19.5157" stroke="#4F2DA7" stroke-linecap="round" stroke-linejoin="round"/>
<path d="M1.2995 5.56175H19.5157" stroke="#4F2DA7" stroke-linecap="round" stroke-linejoin="round"/>
<path d="M2.5119 12.0637H8.09285" stroke="#4F2DA7" stroke-linecap="round" stroke-linejoin="round"/>
<path d="M9.93713 12.0009H11.7002" stroke="#4F2DA7" stroke-linecap="round" stroke-linejoin="round"/>
<path d="M2.5119 13.8295H7.10472" stroke="#4F2DA7" stroke-linecap="round" stroke-linejoin="round"/>
</svg>
