<svg width="122" height="133" viewBox="0 0 122 133" fill="none" xmlns="http://www.w3.org/2000/svg">
<g clip-path="url(#clip0)">
<path d="M-51.4163 81.3266C-51.3781 81.1477 -51.3418 80.9687 -51.2996 80.7918C-49.9789 74.7092 -47.8207 68.8478 -44.6116 63.465C-44.5049 63.2861 -44.3981 63.1071 -44.2894 62.9281C-42.1733 59.4649 -39.6414 56.2729 -36.7498 53.4233C-35.1513 51.8468 -33.4078 50.3488 -31.3342 49.269C-28.4291 47.7529 -25.0327 47.1376 -21.6947 46.6349C-18.2279 46.1101 -14.7128 45.6718 -11.2077 45.1992C-9.96219 45.0344 -8.72404 44.8594 -7.49329 44.6744C-4.10699 44.1738 -0.744873 43.5947 2.53673 42.8265C6.59343 41.8795 10.5253 40.6388 14.2397 38.8935C14.5364 38.7594 14.8296 38.6173 15.1195 38.4672C15.4094 38.3224 15.7014 38.1756 15.9872 38.0268C16.2731 37.8781 16.555 37.7293 16.8348 37.5764C16.9798 37.498 17.1247 37.4196 17.2677 37.3372C17.4106 37.2547 17.5515 37.1823 17.6904 37.1019C18.1092 36.8687 18.5199 36.6294 18.9306 36.3881L18.9467 36.378C19.2185 36.2192 19.4863 36.0563 19.752 35.8934C21.27 34.9725 22.7558 34.0114 24.2416 33.0442L25.1757 32.4409L26.6232 31.5059C26.9051 31.323 27.193 31.14 27.4769 30.959C27.6782 30.8263 27.8795 30.6936 28.099 30.5569C29.1539 29.8933 30.2229 29.2418 31.3201 28.6205C31.5799 28.4717 31.8416 28.3229 32.1053 28.1781C34.3221 26.9429 36.6404 25.8989 39.0349 25.0574L39.0671 25.0454C40.2718 24.6256 41.5008 24.2792 42.7474 24.0078C43.4661 23.851 44.1868 23.7223 44.9156 23.6237C46.8638 23.3479 48.8391 23.3202 50.7943 23.5413C54.6336 23.9857 58.2313 25.4576 62.0685 25.9542C69.9685 26.9596 77.641 23.7203 85.0699 21.1827C86.8966 20.5593 88.7367 19.9755 90.5902 19.4313C91.8223 19.0674 93.0584 18.7235 94.3046 18.3917C101.94 16.377 109.732 15.0122 117.598 14.3119C120.886 13.9901 124.194 13.9168 127.493 14.0927C128.747 14.1691 129.987 14.2938 131.205 14.4949C135.373 15.1383 139.258 16.4875 142.395 18.9588C144.964 20.9876 146.802 23.6318 148.201 26.3986C149.634 29.2218 150.645 32.2391 151.203 35.3545C151.28 35.7788 151.348 36.2051 151.404 36.6314C151.505 37.3606 151.58 38.0939 151.63 38.8312C151.901 42.761 151.431 46.7067 150.245 50.4634C148.916 54.6699 146.701 58.7076 145.727 62.9462C145.687 63.1259 145.649 63.3048 145.612 63.4831C145.479 64.1269 145.38 64.7773 145.316 65.4315C144.819 70.6394 146.726 75.7166 148.221 80.8099C148.274 80.9868 148.326 81.1658 148.376 81.3447C148.538 81.9104 148.692 82.4755 148.84 83.0398C150.225 88.4246 150.609 94.1895 149.375 99.5643C149.337 99.7432 149.291 99.9222 149.246 100.099C148.42 103.497 146.866 106.675 144.692 109.415C142.381 112.311 139.347 114.721 136.106 116.839C134.526 117.871 132.893 118.835 131.205 119.732C129.998 120.376 128.76 120.985 127.493 121.56C117.336 126.185 105.75 128.443 94.2926 127.944C93.6886 127.918 93.0846 127.886 92.4806 127.842C91.8767 127.797 91.2163 127.745 90.5842 127.687C83.2036 126.971 76.0223 125.244 68.8914 123.356C66.5017 122.722 64.116 122.073 61.7323 121.435C60.6713 121.154 59.6123 120.872 58.5514 120.599C53.3552 119.258 48.0825 118.043 42.7433 117.136C41.5072 116.923 40.2697 116.729 39.0309 116.553C34.7297 115.922 30.3937 115.555 26.0474 115.453C24.3577 115.42 22.6672 115.435 20.9761 115.498C20.1225 115.528 19.2682 115.575 18.4132 115.636C9.58511 116.258 1.05295 118.337 -7.49329 120.279C-8.72942 120.561 -9.96756 120.838 -11.2077 121.112C-12.8344 121.47 -14.4611 121.815 -16.0959 122.135C-26.2688 124.132 -35.3365 122.984 -44.7948 118.864C-46.9449 117.929 -49.093 116.799 -50.4097 115.043C-51.7264 113.288 -52.0565 111.132 -52.3022 109.051C-52.6505 106.087 -52.878 103.085 -52.9645 100.067C-52.9645 99.89 -52.9645 99.7111 -52.9766 99.5321C-53.1135 93.4355 -52.6585 87.2805 -51.4163 81.3266Z" fill="#F8F5FF"/>
<path d="M-4.18066 53.0357C-2.94555 53.4107 -1.71885 54.0158 -0.838402 54.9646C1.03372 56.9822 0.459305 60.0316 -0.574181 62.2589C-1.6866 64.6561 -3.37234 67.0657 -2.42206 69.8162C-1.98529 71.0807 -1.25081 72.2259 -0.836479 73.5001C-0.393806 74.8617 -0.202744 76.2797 -0.227085 77.7006C-0.272152 80.3105 -0.966366 83.0952 -2.85115 85.018C-4.51063 86.7108 -7.22409 87.6996 -7.84464 90.1862C-8.49203 92.7802 -6.90932 95.6849 -6.2066 98.1426C-5.41129 100.924 -5.00276 104.209 -5.93339 106.981C-6.82513 109.638 -9.07622 111.726 -11.6245 112.903C-16.716 115.255 -22.6276 114.893 -27.733 112.615C-29.9006 111.648 -32.3131 110.459 -33.6602 108.453C-34.0765 107.833 -34.1996 107.29 -34.2903 106.57C-34.3716 105.925 -34.6314 105.414 -34.9423 104.845C-35.6255 103.596 -35.898 102.199 -35.843 100.796C-35.6288 95.3446 -31.5873 90.2759 -27.1545 87.3171C-26.1041 86.6161 -25.1817 85.9024 -24.9618 84.6092C-24.7321 83.2592 -25.0101 81.8265 -25.2225 80.4843C-25.4323 79.1579 -25.7581 77.8367 -25.7843 76.4916C-25.8115 75.0825 -25.4203 73.7932 -24.7531 72.5602C-23.4998 70.2442 -21.4852 68.4875 -19.1709 67.2044C-16.9418 65.9683 -14.5048 64.9206 -13.4138 62.4894C-12.2573 59.9128 -12.9418 56.8609 -11.0419 54.5625C-10.2552 53.6108 -9.15169 52.7657 -7.8847 52.5479C-6.66961 52.339 -5.34227 52.683 -4.18066 53.0357Z" fill="#F5F2FD"/>
<path d="M44.779 100.867C46.6043 81.6396 144.538 44.5296 162.719 62.741C180.9 80.9524 176.298 119.258 138.197 128.01C100.096 136.762 42.9537 120.093 44.779 100.867Z" fill="#FDFCFF"/>
<path d="M34.2139 5.52393L43.2495 12.2919L39.1054 14.2691L70.486 80.0132L104.458 48.436L110.805 92.2618L123.09 82.3777L123.902 83.3871L109.848 94.6945L103.53 51.0674L70.0764 82.1628L37.9364 14.8271L33.7935 16.8053L34.2139 5.52393Z" fill="#DFD8EF"/>
<path d="M-51.9995 131.727L188 131.273" stroke="#DFD8EF"/>
<path fill-rule="evenodd" clip-rule="evenodd" d="M43.7189 74.9703L72.2147 74.6989C82.5302 74.6007 90.9722 82.8834 91.0704 93.1988C91.071 93.2581 91.0713 93.3174 91.0713 93.3767V130.872H79.2761H22.0005V96.8965C22.0005 84.8679 31.6908 75.0848 43.7189 74.9703Z" fill="#E4DAFF"/>
<path d="M56.6893 85.6586C56.6016 85.6586 56.5139 85.7463 56.4262 85.7463C56.3385 85.7463 56.2508 85.6586 56.1631 85.6586H56.6893Z" fill="#84DBFF"/>
<path d="M68.969 74.5193C68.969 74.5193 68.969 74.5193 68.969 74.607C68.969 75.4841 68.5305 81.0975 56.6898 85.5706H56.1635C44.3228 81.0975 43.8843 75.4841 43.8843 74.607C43.8843 74.5193 43.8843 74.5193 43.8843 74.5193C43.8843 73.3791 44.1474 72.2389 44.4105 71.0987C47.8312 75.3964 51.9535 78.2908 56.4267 78.2908C60.8998 78.2908 65.0221 75.3964 68.4428 71.0987C68.7059 72.2389 68.969 73.3791 68.969 74.5193Z" fill="#D4B69E"/>
<path d="M68.9685 74.5201C68.9685 74.5201 69.5825 80.8352 56.4261 85.7469C56.4261 85.7469 66.507 86.35 69.5892 93.1925C69.6167 93.2537 69.6058 93.3776 69.6702 93.3776C69.7346 93.3776 69.7346 93.3071 69.812 93.1378C70.7038 91.1883 75.1826 77.9904 68.9685 74.5201ZM43.8837 74.5201C37.1301 78.2916 43.0066 93.553 43.1821 93.2899C46.2519 86.2731 56.4261 85.6592 56.4261 85.6592C43.2698 80.8352 43.8837 74.5201 43.8837 74.5201Z" fill="#492E8E"/>
<path d="M74.8453 52.3293C74.056 57.7673 71.6878 62.8544 67.7409 66.7136C66.9515 67.503 66.2499 68.1169 65.3728 68.7309L63.9694 64.2577H48.8835L47.4802 68.7309C44.6735 66.6259 38.797 60.7494 38.7093 55.2237C36.2534 23.7362 60.3734 30.4021 60.3734 30.4021C76.5995 29.2619 76.0733 43.5584 74.8453 52.3293Z" fill="#D4B69E"/>
<path d="M78.0906 58.0304C76.8627 60.0477 75.1962 61.4511 73.6175 61.9773C74.2314 60.574 74.7577 59.0829 75.1962 57.5919C75.1962 57.5919 75.1962 57.5919 75.1962 57.5042C75.5471 56.1885 75.8979 54.8729 76.2487 53.5573H76.161C76.5119 52.2416 76.8627 50.926 77.1258 49.6104C77.4767 49.6104 77.8275 49.7858 78.1783 49.9612C80.1079 51.1891 80.0202 54.7852 78.0906 58.0304ZM39.2356 61.9773C37.6568 61.4511 35.9903 60.0477 34.7624 58.0304C32.7451 54.7852 32.7451 51.1891 34.6747 50.0489C34.8501 49.9612 34.9378 49.8735 35.1132 49.8735C36.1657 53.9958 37.3937 57.0656 37.6568 57.6796C38.0953 59.0829 38.6216 60.574 39.2356 61.9773Z" fill="#E3D2C8"/>
<path d="M65.9868 21.6308C66.6885 13.5616 53.883 14.0878 53.883 14.0878C34.4993 16.8945 32.3943 34.9626 32.3943 34.9626L35.0256 31.8051C30.9032 40.8391 37.1306 56.3636 37.6568 57.5915C40.9021 68.3797 48.0942 78.2908 56.4265 78.2908C64.7589 78.2908 71.951 68.3797 75.1963 57.5915C75.1963 57.5915 75.1963 57.5915 75.1963 57.5038C75.5471 56.1881 75.8979 54.8725 76.161 53.5569H76.0733C77.8275 46.5402 79.7571 39.4357 79.7571 39.4357C84.7565 14.2633 65.9868 21.6308 65.9868 21.6308ZM74.8454 52.3289C74.056 57.7669 71.6879 62.854 67.741 66.7132C66.9516 67.5026 66.1622 68.1166 65.3729 68.7305L63.9695 64.3451H48.8836L47.4802 68.8182C44.6735 66.7132 42.3054 63.8188 40.3758 60.4859C39.4987 58.7317 38.9725 56.8898 38.7093 55.3111C36.2535 23.8235 60.3734 30.4894 60.3734 30.4894C76.5996 29.2615 76.0733 43.5581 74.8454 52.3289Z" fill="#324A5E"/>
<path d="M65.9868 21.6308C66.6885 13.5616 53.883 14.0878 53.883 14.0878C34.4993 16.8945 32.3943 34.9626 32.3943 34.9626L35.0256 31.8051C30.9032 40.8391 37.1306 56.3636 37.6568 57.5915C40.9021 68.3797 48.0942 78.2908 56.4265 78.2908C64.7589 78.2908 71.951 68.3797 75.1963 57.5915C75.1963 57.5915 75.1963 57.5915 75.1963 57.5038C75.5471 56.1881 75.8979 54.8725 76.161 53.5569H76.0733C77.8275 46.5402 79.7571 39.4357 79.7571 39.4357C84.7565 14.2633 65.9868 21.6308 65.9868 21.6308ZM74.8454 52.3289C74.056 57.7669 71.6879 62.854 67.741 66.7132C66.9516 67.5026 66.1622 68.1166 65.3729 68.7305L63.9695 64.3451H48.8836L47.4802 68.8182C44.6735 66.7132 42.3054 63.8188 40.3758 60.4859C39.4987 58.7317 38.9725 56.8898 38.7093 55.3111C36.2535 23.8235 60.3734 30.4894 60.3734 30.4894C76.5996 29.2615 76.0733 43.5581 74.8454 52.3289Z" fill="#324A5E"/>
<path d="M65.9868 21.6308C66.6885 13.5616 53.883 14.0878 53.883 14.0878C34.4993 16.8945 32.3943 34.9626 32.3943 34.9626L35.0256 31.8051C30.9032 40.8391 37.1306 56.3636 37.6568 57.5915C40.9021 68.3797 48.0942 78.2908 56.4265 78.2908C64.7589 78.2908 71.951 68.3797 75.1963 57.5915C75.1963 57.5915 75.1963 57.5915 75.1963 57.5038C75.5471 56.1881 75.8979 54.8725 76.161 53.5569H76.0733C77.8275 46.5402 79.7571 39.4357 79.7571 39.4357C84.7565 14.2633 65.9868 21.6308 65.9868 21.6308ZM74.8454 52.3289C74.056 57.7669 71.6879 62.854 67.741 66.7132C66.9516 67.5026 66.1622 68.1166 65.3729 68.7305C64.5368 66.1179 62.1081 64.3451 59.365 64.3451H53.5717C50.782 64.3451 48.3153 66.1564 47.4802 68.8182C44.6735 66.7132 38.797 60.8367 38.7093 55.3111C36.2535 23.8235 60.3734 30.4894 60.3734 30.4894C76.5996 29.2615 76.0733 43.5581 74.8454 52.3289Z" fill="#324A5E"/>
<path d="M50.2869 67.3272C51.7779 68.9936 53.9706 70.1339 56.4265 70.1339C58.8823 70.1339 61.0751 69.0814 62.5661 67.3272H50.2869Z" fill="white"/>
<path d="M56.6455 100.955C57.1978 100.955 57.6455 100.507 57.6455 99.9551C57.6455 99.4029 57.1978 98.9551 56.6455 98.9551C56.0932 98.9551 55.6455 99.4029 55.6455 99.9551C55.6455 100.507 56.0932 100.955 56.6455 100.955Z" fill="#492E8E"/>
<path d="M56.6455 95.0341C57.1978 95.0341 57.6455 94.5864 57.6455 94.0341C57.6455 93.4818 57.1978 93.0341 56.6455 93.0341C56.0932 93.0341 55.6455 93.4818 55.6455 94.0341C55.6455 94.5864 56.0932 95.0341 56.6455 95.0341Z" fill="#492E8E"/>
<path d="M56.6455 89.1141C57.1978 89.1141 57.6455 88.6664 57.6455 88.1141C57.6455 87.5619 57.1978 87.1141 56.6455 87.1141C56.0932 87.1141 55.6455 87.5619 55.6455 88.1141C55.6455 88.6664 56.0932 89.1141 56.6455 89.1141Z" fill="#492E8E"/>
<path d="M54.2007 85.9215V102.066C54.2007 103.398 55.2806 104.478 56.6127 104.478H59.2439" stroke="#492E8E" stroke-width="0.644"/>
<path d="M34.535 100.832L34.5005 130.5M78.5822 100.832L78.5005 130.5L78.5822 100.832Z" stroke="#555555" stroke-linecap="round" stroke-linejoin="round"/>
</g>
<rect opacity="0.56" width="112" height="132" fill="black"/>
<circle cx="107" cy="15" r="12" fill="white"/>
<path fill-rule="evenodd" clip-rule="evenodd" d="M92 15C92 6.75 98.75 0 107 0C115.25 0 122 6.75 122 15C122 23.25 115.25 30 107 30C98.75 30 92 23.25 92 15ZM101.562 24.9375L98.5625 22.5L104.623 14.9048L98.5625 7.125L101.375 4.875L107 11.925L112.625 4.875L115.438 7.125L109.377 14.9048L115.438 22.5L112.438 24.9375L107 17.9569L101.562 24.9375Z" fill="#D0021B"/>
<defs>
<clipPath id="clip0">
<rect width="111" height="132" fill="white" transform="translate(0 1)"/>
</clipPath>
</defs>
</svg>
