<svg width="320" height="120" viewBox="0 0 320 120" fill="none" xmlns="http://www.w3.org/2000/svg">
<mask id="mask0" mask-type="alpha" maskUnits="userSpaceOnUse" x="0" y="0" width="320" height="120">
<rect width="320" height="120" rx="4" fill="#F7FAFF"/>
</mask>
<g mask="url(#mask0)">
<path d="M286.251 117.677C281.065 119.908 91.5116 119.678 68.0551 119.678C58.3408 119.678 49.5894 121.364 42.7922 117.018C35.7043 112.486 30.156 105.931 24.927 100.579C14.1259 89.5235 5.40304 77.4183 4.13036 64.4562C3.64417 59.4864 4.37822 54.2521 8.73489 50.0243C13.0916 45.7966 21.8716 42.9264 29.7603 44.3874C37.263 45.7765 44.1078 50.7031 51.2767 48.7762C56.1005 47.4791 57.4352 43.8122 58.3218 40.6716C61.6393 28.9001 67.7405 16.8093 81.8401 8.4315C95.9445 0.0565661 119.925 -3.2077 135.836 3.89316C144.611 7.81029 149.578 14.0742 153.268 20.2749C156.957 26.4756 159.788 32.9639 165.708 38.4973C171.628 44.0307 181.557 48.5777 192.458 48.2585C202.03 47.9766 210.209 44.1084 217.068 40.0705C223.928 36.0297 230.501 31.5115 239.357 29.3027C248.213 27.0911 260.268 28.1494 264.663 33.2888C268.486 37.761 265.178 43.1277 262.341 47.8587C259.043 53.3663 256.412 59.2333 257.823 65.0256C259.234 70.8179 265.588 76.5095 274.992 77.9504C283.591 79.2676 292.891 76.9122 301.456 78.3041C314.173 80.372 319.688 90.2281 315.746 97.8092C311.804 105.39 301.275 110.981 290.684 115.704C290.684 115.704 290.684 115.704 290.679 115.704C288.987 116.463 287.552 117.116 286.251 117.677Z" fill="#F8F5FF"/>
<path d="M178.954 9.00001C180.672 9.0179 182.29 9.67972 183.736 10.4703C189.831 13.8009 193.742 19.5069 195.62 25.4705C197.502 31.4341 197.548 37.6981 197.317 43.8692C197.225 46.4128 197.791 55.9394 193.281 53.7107C190.271 52.2225 187.278 44.6777 185.782 42.0733C182.823 36.929 180.727 31.4198 179.57 25.7746C179.289 24.4151 177.6 8.9857 178.954 9.00001Z" fill="#EDE6FF"/>
<path d="M202.485 57.8174C209.079 49.1421 218.246 41.905 228.893 36.9717C229.178 40.4668 227.4 43.8547 225.2 46.8168C219.985 53.8285 215.098 58.726 208.043 64.3211C206.036 65.9131 197.589 70.646 197.019 69.8339C195.217 67.2689 200.813 60.0139 202.485 57.8174Z" fill="#EDE6FF"/>
<path d="M191.386 101.72L190.59 101.548C192.233 95.964 193.423 90.0755 194.128 84.0511C194.794 78.3559 195.045 72.3744 194.874 66.2749C194.714 60.551 194.178 54.5552 193.281 48.4557C192.426 42.646 191.26 36.7468 189.819 30.9192C188.67 26.2828 186.96 20.2405 183.892 14.6061C183.552 13.9836 183.196 13.3647 182.831 12.7673L183.56 12.4453C183.929 13.0535 184.294 13.6795 184.638 14.3127C187.744 20.0116 189.466 26.1039 190.623 30.7761C192.069 36.6216 193.239 42.5422 194.094 48.3699C194.995 54.4944 195.532 60.5152 195.695 66.2606C195.867 72.3887 195.616 78.3988 194.945 84.1227C194.236 90.1793 193.038 96.0999 191.386 101.72Z" fill="#E3DAF9"/>
<path d="M195.121 77.1573C195.117 77.1573 195.108 77.1573 195.104 77.1573C194.878 77.1501 194.702 76.9855 194.71 76.7924C194.886 72.9359 197.221 68.4391 201.656 63.4235C207.994 56.2579 214.545 48.8491 223.494 43.7119C223.683 43.6046 223.939 43.6475 224.064 43.8085C224.19 43.9695 224.14 44.1877 223.951 44.295C215.115 49.3642 208.606 56.7266 202.31 63.8457C197.98 68.7432 195.699 73.1076 195.532 76.8174C195.523 77.0106 195.339 77.1573 195.121 77.1573Z" fill="#E3DAF9"/>
<path fill-rule="evenodd" clip-rule="evenodd" d="M195.075 65.1336C195.113 65.1479 195.15 65.1551 195.188 65.1551C195.301 65.1551 195.406 65.1014 195.452 65.0048C197.921 60.1073 200.486 54.3906 201.274 48.4628C201.278 48.4556 201.284 48.4485 201.289 48.4413C201.294 48.4342 201.299 48.427 201.304 48.4199C202.678 46.023 203.806 43.6655 204.938 41.2579C207.264 36.3067 208.32 32.1426 208.262 28.1537C208.22 25.442 207.633 21.6929 205.273 18.2478C205.282 18.0833 205.013 17.747 203.932 16.5521L203.668 16.2588L203.454 16.5808C200.029 21.7144 199.858 27.7352 200.092 32.4109C200.18 33.9563 200.314 35.5376 200.444 37.0687C200.708 40.1739 200.981 43.3793 200.893 46.4809C200.482 53.0204 197.644 59.4169 194.924 64.8116C194.861 64.9369 194.928 65.08 195.075 65.1336ZM200.667 32.393C200.444 27.9212 200.595 22.2045 203.668 17.2784C203.961 17.6826 204.435 18.1262 204.644 18.3122C207.05 21.7179 207.641 25.4671 207.683 28.1645C207.746 32.0853 206.702 36.1886 204.401 41.079C203.458 43.0931 202.511 45.0714 201.425 47.064C201.441 46.8876 201.453 46.708 201.465 46.5312L201.467 46.5024C201.555 43.3721 201.283 40.1524 201.019 37.0365C200.889 35.5089 200.755 33.9313 200.667 32.393Z" fill="#E3DAF9"/>
<path d="M243.705 72.9679C242.883 71.8803 241.546 71.1613 240.175 70.6068C234.404 68.285 227.575 68.4639 221.472 70.0594C215.369 71.6549 209.862 74.5634 204.567 77.6042C202.384 78.8563 193.778 82.9632 197.844 84.7948C200.556 86.0183 208.566 84.387 211.551 84.1223C217.444 83.5964 223.25 82.3515 228.736 80.4411C230.048 79.9796 244.35 73.8229 243.705 72.9679Z" fill="#F7F0FF"/>
<path d="M238.532 71.6406C237.828 71.6907 237.107 71.7515 236.39 71.8302C229.943 72.5207 223.803 74.2772 219.167 75.7332C213.37 77.5505 207.64 79.5825 202.136 81.7683C196.351 84.065 190.827 86.5442 185.722 89.1378C185.11 89.4491 184.506 89.7603 183.902 90.0787C184.322 90.1002 184.741 90.1252 185.16 90.1502C185.47 89.9893 185.776 89.8283 186.09 89.6709C191.175 87.0915 196.678 84.6195 202.438 82.3336C207.925 80.1549 213.638 78.1301 219.414 76.3163C224.012 74.8746 230.103 73.1288 236.478 72.4455C237.182 72.3704 237.891 72.306 238.586 72.2595L238.532 71.6406Z" fill="#EEE9FA"/>
<path fill-rule="evenodd" clip-rule="evenodd" d="M203.645 72.1592C196.766 76.842 191.338 83.0024 186.874 88.5259C186.79 88.6332 186.79 88.7656 186.87 88.8622C186.895 88.8944 186.928 88.9266 186.97 88.9516C187.134 89.0482 187.36 89.0125 187.473 88.8729C192.39 82.7877 198.485 75.9226 206.378 71.1754C210.192 69.0182 214.379 67.1186 218.433 65.2834C220.432 64.3783 222.499 63.441 224.485 62.4894C230.484 59.5738 237.89 55.3882 242.011 48.8379L242.275 48.4301L241.73 48.3836C239.517 48.2011 238.913 48.1797 238.716 48.3013C232.831 48.4587 227.751 50.437 224.339 52.2114C219.313 54.823 214.82 58.5721 210.192 64.0027C207.945 66.6428 205.753 69.2507 203.678 72.1019C203.666 72.1198 203.653 72.1413 203.645 72.1592ZM224.712 52.7373C228.111 50.9701 233.192 48.9989 239.056 48.9131C239.433 48.981 240.301 49.117 241.005 49.1098C236.905 55.2022 229.859 59.166 224.125 61.9564C222.213 62.8728 220.222 63.7758 218.289 64.6526L218.089 64.7432L218.088 64.7434C214.019 66.5893 209.815 68.496 205.963 70.671C205.736 70.8069 205.51 70.9429 205.288 71.0824C207.052 68.7606 208.893 66.5748 210.775 64.3675C215.344 59.0014 219.774 55.3059 224.712 52.7373Z" fill="#EDE6FF"/>
<path d="M204.147 71.4757L204.596 71.9623C205.719 71.2039 207.157 70.1199 208.679 68.968C210.481 67.6085 212.342 66.199 213.709 65.3297C218.168 62.4785 222.763 59.681 227.369 57.0086C231.976 54.3399 236.716 51.7248 241.466 49.2349L241.088 48.709C236.331 51.2025 231.578 53.8211 226.963 56.497C222.348 59.173 217.741 61.9777 213.273 64.8325C211.885 65.7197 210.012 67.1363 208.197 68.5029C206.688 69.6512 205.254 70.7316 204.147 71.4757Z" fill="#EDE6FF"/>
<path d="M121.546 31.1398C116.634 23.1057 109.65 16.7212 101.43 12.7497C101.094 16.2438 102.385 19.4528 104.025 22.2001C107.907 28.7055 111.595 33.1434 116.969 38.0805C118.499 39.4868 124.99 43.4475 125.466 42.5946C126.963 39.8869 122.791 33.1754 121.546 31.1398Z" fill="#F7F0FF"/>
<path d="M125.62 42.8717C124.783 40.8733 123.581 38.7905 122.017 36.634C117.259 30.0726 112.34 23.2881 105.459 18.9718C105.314 18.8786 105.111 18.945 105.007 19.1175C104.9 19.2881 104.934 19.5013 105.081 19.5908C111.869 23.8535 116.76 30.593 121.489 37.1129C123.131 39.3775 124.363 41.5505 125.183 43.6214C125.333 43.369 125.474 43.1168 125.62 42.8717Z" fill="#F0E4FD"/>
<path d="M192.588 91.2183C191.976 88.8886 191.55 86.1682 193.144 84.68C193.378 84.4603 193.677 84.2728 194.029 84.3161C194.657 84.3897 195.053 85.1048 195.597 85.4867C196.745 86.2961 198.193 85.3397 198.425 84.1187C198.656 82.8977 198.162 81.563 198.031 80.2769C197.918 79.154 198.083 78.0505 198.511 77.0836C199.072 75.8217 200.638 74.7637 201.95 75.6725C202.899 76.3339 203.055 77.5762 203.284 78.641C203.512 79.7058 204.246 81.0086 205.329 81.0159C206.26 81.0217 206.679 80.0521 206.988 79.2413C207.734 77.2568 208.846 75.4487 210.263 73.9103C211.25 72.838 212.445 71.8701 213.972 71.6152C215.496 71.3575 217.405 71.9973 218.297 73.4185C219.127 74.7449 218.871 76.3281 218.281 77.5658C216.676 80.9399 213.092 82.7714 210.36 85.2841C209.715 85.8773 209.116 86.8974 209.801 87.659C210.282 88.1938 211.065 88.1872 211.743 88.2332C213.392 88.3419 215.093 89.0733 216.407 90.246C216.631 90.4482 216.854 90.6722 216.954 90.9435C217.187 91.5592 216.704 92.1021 216.188 92.3976C213.796 93.7619 210.175 92.7826 207.966 94.3849C207.671 94.5996 207.392 94.8986 207.422 95.2874C207.444 95.5675 207.627 95.8381 207.833 96.0623C208.685 96.9967 209.951 97.3861 211.058 97.9837C212.165 98.5812 213.282 99.7148 213.063 100.811C212.898 101.634 212.039 102.057 211.215 102.276C208.675 102.943 205.776 102.518 203.07 101.569C200.645 100.716 197.466 99.4445 195.412 97.7446C193.479 96.1362 193.148 93.3606 192.588 91.2183Z" fill="#EDE6FF"/>
<path d="M214.706 76.0419L193.824 100.928" stroke="#E5DCFF" stroke-linecap="round"/>
<path d="M200.705 76.8691C201.484 81.2166 202.156 85.5676 202.719 89.9168" stroke="#E5DCFF" stroke-linecap="round"/>
<path d="M194.143 86.0132C195.168 89.5912 196.106 93.1808 196.963 96.7765" stroke="#E5DCFF" stroke-linecap="round"/>
<path d="M202.066 91.6669C206.013 91.4624 209.974 91.3204 213.945 91.2436" stroke="#E5DCFF" stroke-linecap="round"/>
<path d="M184.719 53.2945C183.771 53.1666 182.764 53.1644 181.794 53.3298C180.435 53.4475 179.035 53.9802 177.955 54.9891C175.619 57.1659 175.481 60.7815 176.437 63.4493C177.395 66.1305 179.24 68.3512 181.638 69.7177C183.344 70.6897 185.406 71.2324 187.503 70.7703C187.641 70.7388 187.777 70.705 187.915 70.6625C189.736 70.7075 191.358 69.7816 192.632 68.2132C193.586 67.0379 194.274 65.0987 194.393 63.6826C194.536 61.9369 194.289 60.3395 193.445 58.9525C191.698 56.0807 188.152 53.7673 184.719 53.2945Z" fill="#F7F0FF"/>
<path d="M179.705 57.6559L194.841 70.3561" stroke="#EDE6FF" stroke-width="0.8" stroke-linecap="round"/>
<path d="M178.103 64.8311C180.705 64.5905 183.307 64.35 185.909 64.1095" stroke="#EDE6FF" stroke-width="0.8" stroke-linecap="round"/>
<path d="M181.639 68.2358C182.745 68.1027 183.849 68.0059 184.953 67.9365" stroke="#EDE6FF" stroke-width="0.8" stroke-linecap="round"/>
<path d="M187.027 67.9146C188.382 67.8088 189.738 67.6613 191.097 67.472" stroke="#EDE6FF" stroke-width="0.8" stroke-linecap="round"/>
<path d="M184.649 61.7215C184.365 59.7604 184.028 57.8138 183.644 55.8833" stroke="#EDE6FF" stroke-width="0.8" stroke-linecap="round"/>
<path d="M189.648 65.731C189.545 64.1011 189.474 62.4658 189.428 60.8237" stroke="#EDE6FF" stroke-width="0.8" stroke-linecap="round"/>
<path d="M93.3045 25.9744C91.9971 26.7206 91.0698 27.9109 90.3385 29.125C87.2569 34.225 86.9765 40.1708 88.3782 45.4435C89.7786 50.7128 92.7334 55.424 95.8527 59.9497C97.1384 61.8155 101.246 69.1909 103.643 65.5926C105.24 63.1915 103.936 56.2616 103.844 53.6682C103.661 48.5458 102.641 43.5262 100.834 38.8048C100.401 37.6642 94.3389 25.3848 93.3045 25.9744Z" fill="#EDE6FF"/>
<path d="M98.5446 72.603C89.352 68.9287 78.8734 67.4318 68.3555 68.2905C69.8031 71.0301 72.7832 72.8083 75.8832 74.0822C83.2267 77.1009 89.3059 78.68 97.3852 79.8472C99.683 80.1796 108.415 80.1119 108.466 79.2595C108.625 76.571 100.878 73.5354 98.5446 72.603Z" fill="#EDE6FF"/>
<path d="M127.994 100.731L128.525 100.264C124.6 96.7849 120.879 92.8855 117.467 88.6718C114.239 84.6921 111.198 80.3206 108.416 75.6797C105.81 71.3252 103.36 66.6052 101.139 61.6537C99.0251 56.9371 97.1022 52.0216 95.4282 47.0422C94.0975 43.08 92.5276 37.8228 92.1904 32.2883C92.1551 31.6768 92.1317 31.061 92.1262 30.4577L91.4151 30.5261C91.4204 31.141 91.4423 31.7649 91.4812 32.3866C91.8183 37.982 93.4002 43.2843 94.7418 47.2768C96.422 52.273 98.3471 57.2067 100.471 61.9387C102.7 66.9103 105.16 71.6491 107.778 76.0223C110.569 80.6867 113.63 85.0775 116.871 89.0793C120.301 93.3089 124.044 97.2309 127.994 100.731Z" fill="#E5DBFE"/>
<path d="M113.415 83.9372C113.419 83.9358 113.423 83.9344 113.426 83.9296C113.594 83.8266 113.656 83.629 113.556 83.4901C111.582 80.6758 107.647 78.3086 101.858 76.4487C93.5801 73.7929 85.0247 71.0478 75.7144 71.033C75.5178 71.0322 75.3426 71.1759 75.3244 71.3463C75.3033 71.5214 75.4445 71.6642 75.6399 71.6616C84.8303 71.6782 93.3342 74.404 101.556 77.0419C107.212 78.8551 111.039 81.1473 112.94 83.8554C113.036 83.999 113.244 84.0301 113.415 83.9372Z" fill="#E5DBFE"/>
<path fill-rule="evenodd" clip-rule="evenodd" d="M89.5251 60.9127C94.4204 66.764 101.119 71.3079 107.154 75.0315C107.269 75.1036 107.423 75.0972 107.536 75.0292C107.577 75.0067 107.616 74.9775 107.647 74.9396C107.767 74.7929 107.746 74.599 107.59 74.5032C100.941 70.4019 93.4859 65.2996 88.5852 58.5632C86.3816 55.3032 84.493 51.7076 82.6707 48.2327C81.7746 46.5183 80.8434 44.7443 79.8885 43.0399C76.9619 37.9035 72.6766 31.5712 65.438 28.1793L64.9848 27.9636L64.8956 28.4415C64.529 30.3756 64.462 30.9025 64.5857 31.0707C64.3492 36.1935 66.2589 40.5579 68.059 43.4813C70.7071 47.7788 74.6971 51.5841 80.6149 55.4529C83.4886 57.3307 86.3282 59.1639 89.4619 60.8862C89.4838 60.8973 89.5044 60.905 89.5251 60.9127ZM68.6958 43.1353C66.9058 40.2273 65.0001 35.8614 65.3169 30.7513C65.4197 30.4207 65.6379 29.6599 65.6769 29.0441C72.391 32.4289 76.4467 38.4488 79.2483 43.3643C80.1387 44.9514 81.005 46.6006 81.8494 48.2083C81.9082 48.3203 81.9669 48.4321 82.0256 48.5436L82.0335 48.5587C83.8634 52.0444 85.7534 55.6443 87.979 58.9323C88.1204 59.1245 88.2617 59.3167 88.407 59.5075C85.8622 58.0429 83.4818 56.5033 81.0762 54.9309C75.2341 51.1107 71.3 47.3612 68.6958 43.1353Z" fill="#EDE6FF"/>
<path d="M88.779 60.4913L89.3678 60.0867C88.5789 59.1327 87.4293 57.9103 86.2135 56.6168C84.7781 55.0873 83.293 53.5073 82.388 52.3443C79.4263 48.5455 76.5352 44.622 73.7926 40.6901C71.0501 36.7582 68.3821 32.7002 65.86 28.6386L65.2271 28.9832C67.7529 33.0549 70.4312 37.1167 73.1774 41.0587C75.9236 45.0007 78.8211 48.9295 81.7904 52.7369C82.7119 53.9206 84.2058 55.5126 85.6528 57.0493C86.857 58.3356 87.999 59.5493 88.779 60.4913Z" fill="#EDE6FF"/>
<path d="M98.5182 98.7131C93.7744 94.5803 90.8561 88.4377 88.5554 82.1338C99.254 77.8415 111.031 80.6819 117.453 89.0989C118.571 90.5674 119.554 92.2285 119.906 94.1938C120.866 99.5785 117.232 102.432 112.923 102.955C107.438 103.626 102.483 102.164 98.5182 98.7131Z" fill="#F7F0FF"/>
<path d="M92.496 83.8088L124.679 102.389" stroke="#F0E4FD" stroke-linecap="round"/>
<path d="M92.8027 90.2393C95.6122 90.1382 98.4261 90.001 101.244 89.8276" stroke="#F0E4FD" stroke-linecap="round"/>
<path d="M107.587 92.241C106.853 88.8405 105.865 85.5356 104.632 82.3697" stroke="#F0E4FD" stroke-linecap="round"/>
<path d="M116.141 41.2088C117.451 41.5861 118.601 42.5767 119.61 43.6576C123.846 48.2141 126.126 54.6529 126.824 60.9223C127.521 67.1917 126.78 73.376 125.838 79.4082C125.452 81.8957 124.702 91.4013 121.534 88.2619C119.42 86.1685 118.073 78.1057 117.25 75.2246C115.629 69.5341 114.711 63.6682 114.528 57.8611C114.489 56.4709 115.111 40.9126 116.141 41.2088Z" fill="#EDE6FF"/>
<path d="M119.233 45.5619C119.439 46.2373 119.64 46.9321 119.824 47.6295C121.489 53.8955 122.05 60.2578 122.352 65.1077C122.733 71.1709 122.889 77.2485 122.821 83.1699C122.75 89.3932 122.415 95.4393 121.824 101.135C121.752 101.818 121.678 102.493 121.597 103.171C121.427 102.787 121.253 102.405 121.08 102.022C121.119 101.675 121.159 101.332 121.194 100.982C121.78 95.3107 122.115 89.2867 122.185 83.0907C122.253 77.1875 122.096 71.1282 121.719 65.0857C121.417 60.2763 120.865 53.9647 119.218 47.7678C119.035 47.0835 118.842 46.3991 118.636 45.7328L119.233 45.5619Z" fill="#CDBFEF"/>
<path fill-rule="evenodd" clip-rule="evenodd" d="M131.252 78.3177C129.345 86.4175 125.539 93.6928 121.982 99.8399C121.912 99.9566 121.788 100.004 121.67 99.9643C121.631 99.9524 121.589 99.9326 121.55 99.9024C121.401 99.7844 121.354 99.5603 121.443 99.4046C125.362 92.6337 129.587 84.4836 131.191 75.4137C131.838 71.0796 132.11 66.4896 132.371 62.0478C132.5 59.8568 132.634 57.5917 132.811 55.3958C133.383 48.7511 134.636 40.3365 139.275 34.1424L139.561 33.7497L139.8 34.2417C140.763 36.2425 140.999 36.7984 140.956 37.0259C142.919 42.5764 142.892 48.0282 142.458 51.8495C141.821 57.4773 139.932 63.0159 136.52 69.2822C134.86 72.3259 133.211 75.3071 131.293 78.2659C131.281 78.2841 131.265 78.3035 131.252 78.3177ZM141.834 51.6897C142.265 47.8827 142.285 42.4335 140.264 36.9281C140.065 36.6003 139.627 35.839 139.381 35.179C135.163 41.1894 133.987 49.1881 133.437 55.5413C133.267 57.6552 133.138 59.8374 133.012 61.9561L132.999 62.1751L132.999 62.1757C132.734 66.6368 132.46 71.2449 131.81 75.6204C131.765 75.8804 131.719 76.1405 131.668 76.3979C133.203 73.9183 134.584 71.4171 135.971 68.8691C139.343 62.6806 141.205 57.22 141.834 51.6897Z" fill="#CDBFEF"/>
<path d="M131.709 77.6032L131.094 77.3589C131.4 76.0383 131.897 74.3076 132.427 72.4743C133.05 70.3044 133.699 68.0618 134.021 66.4746C135.084 61.2891 136.05 55.9977 136.894 50.7394C137.734 45.4823 138.477 40.1193 139.099 34.7933L139.725 34.9571C139.103 40.2922 138.361 45.6682 137.517 50.9356C136.673 56.2031 135.705 61.5088 134.641 66.7034C134.31 68.3166 133.659 70.5735 133.034 72.7577C132.502 74.578 132.007 76.3035 131.709 77.6032Z" fill="#CDBFEF"/>
<path d="M119.561 104.931C119.718 104.562 120.08 104.323 120.48 104.323H199.52C199.92 104.323 200.282 104.562 200.439 104.931L202.407 109.547C202.688 110.206 202.204 110.939 201.487 110.939H118.513C117.796 110.939 117.312 110.206 117.593 109.547L119.561 104.931Z" fill="url(#paint0_linear)"/>
<rect x="118.323" y="17" width="49.0741" height="89.9692" rx="6" fill="#D7C1FF"/>
<path d="M158.69 21.311H154.382C153.829 21.311 153.381 21.76 153.381 22.3137V23.5962C153.381 24.7859 152.409 25.7595 151.222 25.7595H134.759C133.572 25.7595 132.6 24.7861 132.6 23.5962V22.7094C132.6 21.9371 131.975 21.311 131.205 21.311H127.291C125.231 21.311 123.562 22.9841 123.562 25.048V93.5054C123.562 95.8699 123.241 99.0809 125.332 100.544C127.038 101.736 134.787 101.615 134.787 101.615H158.69C160.75 101.615 162.42 99.9415 162.42 97.8776V25.048C162.42 22.9841 160.75 21.311 158.69 21.311Z" fill="#F1EAFF"/>
<rect x="127.669" y="91.7803" width="31.5477" height="7.01059" rx="1" fill="#E8D2FB"/>
<path d="M148.423 22.6632H141.378C140.632 22.6632 140.028 22.0579 140.028 21.3111C140.028 20.5642 140.632 19.959 141.378 19.959H148.423C149.169 19.959 149.773 20.5642 149.773 21.3111C149.773 22.0579 149.169 22.6632 148.423 22.6632Z" fill="#BA8EE0"/>
<path d="M136.384 22.4352C135.418 21.7989 135.652 20.2436 136.868 19.9852C137.695 19.8143 138.482 20.4561 138.482 21.3101C138.482 21.9381 138.05 22.5009 137.396 22.637C137.309 22.6533 136.659 22.6212 136.384 22.4352Z" fill="#BA8EE0"/>
<path d="M200.797 105.089C200.797 101.425 200.797 88.7347 200.797 85.6715V82.2385V74.4501C200.797 73.4157 199.989 72.5693 199 72.5693H198.362C195.798 72.5693 145.847 72.5693 143.056 72.5693C142.068 72.5693 141.259 73.4157 141.259 74.4501V82.2385C141.259 84.6398 141.259 86.7031 141.259 89.1044V105.089C141.259 106.123 142.068 106.969 143.056 106.969H151.67H152.373C153.219 106.969 197.255 106.969 199 106.969C199.989 106.969 200.797 106.123 200.797 105.089Z" fill="white"/>
<rect x="147.431" y="91.4692" width="21.1692" height="2.64615" rx="1.32308" fill="#F2ECFF"/>
<rect x="147.431" y="96.7612" width="29.1077" height="2.64615" rx="1.32308" fill="#F2ECFF"/>
<path fill-rule="evenodd" clip-rule="evenodd" d="M167.277 94.3233C167.54 94.1921 167.739 93.9658 167.936 93.7239C168.176 93.4295 168.411 93.1498 168.702 92.9105C169.051 92.6241 169.518 92.35 170.105 92.2632C169.989 92.9327 169.928 93.6209 169.928 94.3233H167.277ZM169.254 86.9426L169.254 86.9428L169.254 86.9424C169.548 86.9603 169.833 86.8636 170.124 86.7526C170.479 86.6176 170.822 86.4931 171.194 86.4314C171.642 86.3576 172.186 86.3542 172.741 86.576C171.862 87.6283 171.158 88.8317 170.674 90.142C170.208 89.7732 169.941 89.302 169.782 88.8791C169.649 88.5261 169.585 88.1663 169.525 87.7913C169.475 87.4833 169.416 87.188 169.254 86.9426ZM174.655 81.5393L174.655 81.5396V81.5392C174.9 81.7015 175.196 81.7604 175.503 81.81C175.878 81.8707 176.238 81.9345 176.591 82.0671C177.015 82.227 177.488 82.4963 177.858 82.9659C176.547 83.4478 175.342 84.151 174.289 85.029C174.067 84.4738 174.07 83.9284 174.144 83.4802C174.206 83.1083 174.33 82.7646 174.465 82.4095C174.576 82.1183 174.673 81.8329 174.655 81.5393ZM182.033 79.5615V79.5619L182.033 79.5615C182.164 79.8248 182.39 80.0236 182.632 80.2202C182.926 80.4604 183.206 80.6956 183.445 80.9869C183.733 81.3383 184.009 81.809 184.094 82.4015C183.424 82.2867 182.736 82.226 182.033 82.226C181.33 82.226 180.642 82.2867 179.971 82.4017C180.056 81.809 180.332 81.3383 180.62 80.9869C180.859 80.6956 181.139 80.4604 181.433 80.2202C181.675 80.0236 181.901 79.8248 182.033 79.5615ZM189.41 81.5392V81.5396L189.41 81.5393C189.393 81.8328 189.489 82.1182 189.6 82.4095C189.735 82.7646 189.86 83.1083 189.921 83.4802C189.995 83.9283 189.998 84.4737 189.776 85.0289C188.723 84.1509 187.518 83.448 186.207 82.9658C186.577 82.4963 187.05 82.227 187.475 82.0671C187.827 81.9344 188.187 81.8705 188.562 81.8099C188.87 81.7604 189.165 81.7015 189.41 81.5392ZM194.811 86.9423L194.811 86.9426H194.811C194.649 87.1878 194.59 87.4833 194.541 87.7913C194.48 88.1661 194.416 88.5261 194.284 88.8789C194.124 89.3019 193.857 89.773 193.392 90.1419C192.908 88.8316 192.204 87.6282 191.325 86.5758C191.879 86.3542 192.423 86.3574 192.871 86.4312C193.243 86.493 193.586 86.6175 193.941 86.7525C194.233 86.8636 194.518 86.9603 194.811 86.9423ZM193.96 92.2631C194.547 92.35 195.014 92.6239 195.363 92.9105C195.655 93.1497 195.89 93.4294 196.13 93.7239C196.326 93.9656 196.525 94.1921 196.788 94.3233H194.138C194.137 93.6209 194.076 92.9327 193.96 92.2631ZM185.551 83.7143C190.006 85.1865 193.226 89.378 193.244 94.3236H191.04C191.186 90.0035 189.301 86.1042 185.551 83.7143Z" fill="#FAB401"/>
<path fill-rule="evenodd" clip-rule="evenodd" d="M185.998 94.3233H187.144C187.2 93.0779 187.093 91.6024 186.69 90.314C186.611 90.0599 186.52 89.813 186.416 89.5774C186.173 89.0207 185.845 88.5167 185.453 88.0509C185.019 87.5336 184.5 87.0683 183.916 86.7018C183.744 86.5936 183.565 86.4938 183.381 86.4036V86.4034C183.197 86.3137 183.008 86.2338 182.813 86.1645L182.812 86.1642C180.581 85.3718 178.325 85.9353 176.432 86.9655C176.063 87.1662 175.708 87.3846 175.37 87.614C175.032 87.8434 174.71 88.0842 174.407 88.3298H174.407L174.406 88.3304C174.047 88.622 173.597 89.0208 173.153 89.4925C173.065 89.5853 172.978 89.6798 172.894 89.7755C172.669 90.0308 172.322 90.3887 172.425 90.759C172.507 91.0526 172.885 90.966 173.017 90.8648C173.219 90.7562 173.442 90.584 173.632 90.4228C173.89 90.2047 174.133 89.9699 174.388 89.7487C175.42 88.8539 176.495 88.164 177.554 87.6969C177.785 87.5952 178.016 87.5036 178.247 87.4227C178.476 87.342 178.705 87.2721 178.931 87.2133L178.932 87.2131C180.903 86.7009 183.045 87.0328 184.416 88.6407C185.737 90.1896 185.978 92.263 185.998 94.3233ZM171.783 92.5725C171.906 92.4575 172.031 92.3076 172.162 92.1414C172.345 91.9094 172.363 91.6847 172.291 91.5224C172.264 91.4619 172.224 91.4099 172.176 91.3693C172.128 91.3294 172.072 91.3007 172.011 91.2868C171.862 91.2527 171.683 91.306 171.532 91.4903C171.361 91.6987 171.125 92.0548 171.076 92.3699C171.067 92.4289 171.065 92.4864 171.071 92.5401C171.077 92.5927 171.091 92.6425 171.114 92.6878L171.115 92.6885L171.115 92.6883C171.153 92.7623 171.218 92.8013 171.305 92.8046C171.323 92.8052 171.343 92.8044 171.363 92.802C171.384 92.7999 171.406 92.7959 171.429 92.7904V92.7905L171.43 92.7903C171.547 92.7623 171.664 92.6838 171.783 92.5725ZM183.667 94.3233H184.804C184.858 92.9811 184.642 91.5948 184.018 90.3953C183.45 89.3041 182.512 88.5623 181.298 88.383C179.526 88.1215 177.737 88.872 176.225 89.9461C174.579 91.1156 173.22 92.7036 172.032 94.3233L173.533 94.3213C174.884 92.4051 177.993 89.4961 180.279 89.4771C181.008 89.471 181.748 89.6422 182.296 90.1311C182.693 90.4853 183.174 91.1733 183.151 91.7316C183.137 92.0627 182.843 92.1641 182.561 92.0617C182.343 91.9819 182.188 91.7818 182.035 91.5716C181.537 90.8882 180.761 90.5538 179.91 90.6703C178.895 90.8093 177.637 91.5978 176.825 92.315C176.125 92.9336 175.483 93.6106 174.876 94.3233H176.49C177.082 93.6091 177.706 92.9999 178.509 92.4995C178.763 92.3412 179.076 92.1736 179.405 92.0607C180.235 91.7752 181.06 91.8475 181.427 92.881C181.571 93.2873 181.592 93.6436 181.55 94.2968L181.55 94.3233H182.647L182.65 94.2898C182.651 93.9322 182.643 93.6913 182.676 93.3368C182.703 93.0312 182.798 92.7147 183.082 92.6772C183.684 92.5508 183.655 93.8923 183.667 94.3233ZM175.932 97.7923H175.041L174.82 98.5697H174.109L175.049 95.593H175.95L176.917 98.5697H176.175L175.932 97.7923ZM175.142 97.2888H175.826C175.647 96.7074 175.531 96.3084 175.478 96.0921H175.469L175.328 96.6574L175.142 97.2888ZM172.657 97.7923H171.765L171.545 98.5697H170.834L171.774 95.593H172.675L173.642 98.5697H172.9L172.657 97.7923ZM171.867 97.2888H172.551C172.372 96.7074 172.255 96.3084 172.203 96.0921H172.194L172.052 96.6574L171.867 97.2888ZM177.596 98.5564V95.6326C177.89 95.5886 178.205 95.5666 178.541 95.5666C179.175 95.5666 179.631 95.6989 179.907 95.9648C180.182 96.2305 180.32 96.5778 180.32 97.0062C180.32 97.5126 180.163 97.9051 179.849 98.1833C179.535 98.4615 179.05 98.6005 178.395 98.6005C178.092 98.6005 177.826 98.5859 177.596 98.5564ZM178.281 96.1186V98.0573C178.319 98.0662 178.401 98.0707 178.528 98.0707C178.868 98.0707 179.131 97.9808 179.317 97.8019C179.503 97.6231 179.596 97.3669 179.596 97.0328C179.596 96.7265 179.511 96.4932 179.342 96.3328C179.172 96.1723 178.927 96.0921 178.607 96.0921C178.473 96.0921 178.364 96.101 178.281 96.1186ZM181.052 95.593H181.737V96.7367H182.907V95.593H183.591V98.5697H182.907V97.3287H181.737V98.5697H181.052V95.593ZM186.072 97.7923H185.18L184.959 98.5697H184.248L185.189 95.593H186.089L187.056 98.5697H186.314L186.072 97.7923ZM185.281 97.2888H185.966C185.786 96.7074 185.67 96.3084 185.617 96.0921H185.608L185.467 96.6574L185.281 97.2888ZM189.347 97.7923H188.455L188.234 98.5697H187.524L188.464 95.593H189.364L190.331 98.5697H189.59L189.347 97.7923ZM188.557 97.2888H189.241C189.061 96.7074 188.945 96.3084 188.892 96.0921H188.883L188.742 96.6574L188.557 97.2888ZM191.011 98.5697V95.6326C191.261 95.5886 191.568 95.5666 191.933 95.5666C192.384 95.5666 192.707 95.6408 192.904 95.7895C193.102 95.9382 193.2 96.151 193.2 96.4277C193.2 96.5925 193.151 96.7413 193.052 96.8744C192.952 97.0077 192.823 97.102 192.666 97.1564V97.1741C192.852 97.2433 192.985 97.4257 193.068 97.7216C193.219 98.2546 193.302 98.5372 193.315 98.5697H192.618C192.559 98.4593 192.488 98.2281 192.406 97.8763C192.364 97.6997 192.309 97.576 192.238 97.5054C192.167 97.4346 192.054 97.3993 191.898 97.3993H191.686V98.5697H191.011ZM191.686 96.0921V96.9092H191.969C192.139 96.9092 192.274 96.8701 192.373 96.7927C192.471 96.7154 192.521 96.6117 192.521 96.4807C192.521 96.3496 192.476 96.248 192.387 96.1767C192.298 96.1052 192.172 96.0699 192.008 96.0699C191.848 96.0699 191.741 96.0774 191.686 96.0921ZM179.572 94.3261L180.482 94.3233C180.602 93.5537 180.368 92.9613 179.59 93.1025C178.934 93.2217 178.23 93.8734 177.804 94.3233L179.005 94.318C179.139 94.23 179.4 94.1297 179.508 94.2044C179.548 94.2324 179.569 94.272 179.572 94.3261ZM188.864 94.3239L188.872 94.3236H188.877C188.996 94.3302 189.204 94.2749 189.324 94.0724C189.348 94.0319 189.369 93.9856 189.384 93.9331C189.4 93.8797 189.411 93.819 189.416 93.7509H189.416L189.417 93.7369C189.508 90.5535 188.533 87.9182 186.879 86.1277C186.557 85.7801 186.21 85.4639 185.839 85.1814C185.469 84.8993 185.076 84.6512 184.663 84.4398V84.4399L184.657 84.4365L184.656 84.4364C183.266 83.7254 181.688 83.4523 180.14 83.5836C179.838 83.6091 179.538 83.6499 179.241 83.7057C178.944 83.7613 178.649 83.8326 178.359 83.9183L178.355 83.9196C176.762 84.3908 175.281 85.326 174.073 86.5532C173.838 86.7923 173.614 87.0423 173.401 87.3015C173.295 87.4303 173.192 87.5615 173.093 87.6948C173.939 86.964 174.848 86.3229 175.798 85.8135C176.012 85.6987 176.227 85.591 176.443 85.4911C176.659 85.3911 176.878 85.2976 177.099 85.2117L177.1 85.2114L177.1 85.2111C177.94 84.8848 178.767 84.6765 179.595 84.5835C180.423 84.4905 181.251 84.5127 182.092 84.6464C182.691 84.7417 183.275 84.8985 183.801 85.1179C183.903 85.1603 184.004 85.2056 184.102 85.2533C184.2 85.3003 184.295 85.3506 184.389 85.4034H184.389L184.39 85.4041V85.4042C186.243 86.4193 187.531 88.5024 188.098 90.8543C188.208 91.3129 188.292 91.7814 188.346 92.2534C188.401 92.7253 188.427 93.2022 188.424 93.6784V93.6786L188.423 93.7058C188.433 93.9607 188.52 94.1737 188.67 94.2696C188.698 94.2874 188.728 94.3014 188.76 94.3104H188.76C188.793 94.3197 188.827 94.3243 188.864 94.3239Z" fill="#D32828"/>
<path d="M156.331 88.8229H149.115C148.188 88.8229 147.431 87.6703 147.431 86.2614V80.7997C147.431 79.3909 148.188 78.2383 149.115 78.2383H156.331C157.258 78.2383 158.015 79.3909 158.015 80.7997V86.2614C158.015 87.6703 157.257 88.8229 156.331 88.8229Z" fill="#EDE6FF"/>
<path fill-rule="evenodd" clip-rule="evenodd" d="M141.588 30.8253C142.361 29.5101 144.263 29.5101 145.036 30.8253L159.915 56.1358C160.699 57.469 159.737 59.1493 158.191 59.1493H128.433C126.886 59.1493 125.925 57.469 126.709 56.1358L141.588 30.8253ZM145.403 52.9753C145.403 53.2651 145.35 53.5369 145.242 53.7905C145.135 54.0441 144.985 54.2615 144.792 54.4427C144.599 54.6239 144.374 54.7688 144.116 54.8775C143.859 54.9862 143.587 55.0406 143.301 55.0406C143.015 55.0406 142.747 54.9898 142.497 54.8884C142.246 54.7869 142.028 54.642 141.842 54.4536C141.656 54.2652 141.506 54.0478 141.392 53.8014C141.277 53.555 141.22 53.2869 141.22 52.997C141.22 52.7216 141.274 52.4571 141.381 52.2035C141.488 51.9499 141.635 51.7288 141.821 51.5404C142.007 51.352 142.228 51.2035 142.486 51.0948C142.743 50.9861 143.015 50.9317 143.301 50.9317C143.587 50.9317 143.859 50.9861 144.116 51.0948C144.374 51.2035 144.599 51.3484 144.792 51.5296C144.985 51.7107 145.135 51.9281 145.242 52.1818C145.35 52.4354 145.403 52.6999 145.403 52.9753ZM141.22 38.605L142.266 48.8771H144.358L145.403 38.605H141.22Z" fill="#D0021B"/>
</g>
<defs>
<linearGradient id="paint0_linear" x1="160" y1="104.323" x2="160" y2="110.939" gradientUnits="userSpaceOnUse">
<stop offset="0.130208" stop-color="#D6C7FD"/>
<stop offset="1" stop-color="#F8F4FF" stop-opacity="0"/>
</linearGradient>
</defs>
</svg>
