<svg width="22" height="21" viewBox="0 0 22 21" fill="none" xmlns="http://www.w3.org/2000/svg">
<path d="M17.5893 5.83466L17.8 4.23404L2.59998 17.5745" stroke="#4F2DA7" stroke-linecap="round" stroke-linejoin="round"/>
<path d="M16.2 3.82977L17.8 4.12777" stroke="#4F2DA7" stroke-linecap="round" stroke-linejoin="round"/>
<path d="M18.2453 15.2008H17.6536C17.6141 14.8324 17.4474 14.567 17.2324 14.405H18.2453C18.2938 14.405 18.3334 14.3641 18.3334 14.315C18.3334 14.2658 18.2938 14.2249 18.2453 14.2249H15.754C15.7062 14.2249 15.6667 14.2658 15.6667 14.315C15.6667 14.3641 15.7062 14.405 15.754 14.405H16.8131C17.0962 14.4589 17.418 14.7011 17.4782 15.2008H15.754C15.7062 15.2008 15.6667 15.2413 15.6667 15.2909C15.6667 15.3404 15.7062 15.3809 15.754 15.3809H17.4891C17.4854 15.6318 17.4022 15.8346 17.2388 15.9844C16.7759 16.4083 15.8304 16.3002 15.821 16.2994C15.786 16.2955 15.7502 16.3139 15.7333 16.347C15.7167 16.3796 15.7213 16.4201 15.7442 16.448L17.4071 18.4289C17.424 18.4497 17.4485 18.46 17.4737 18.46C17.4936 18.46 17.514 18.4525 17.5309 18.438C17.5674 18.4057 17.5716 18.3487 17.5399 18.3106L16.013 16.4921C16.3423 16.5011 16.9731 16.4681 17.3544 16.1197C17.5573 15.9345 17.66 15.6856 17.6638 15.3809H18.2445C18.2931 15.3809 18.3326 15.3408 18.3326 15.2909C18.3326 15.2409 18.2938 15.2008 18.2453 15.2008Z" fill="#D6AF09" stroke="#D6AF09" stroke-width="0.5"/>
<ellipse cx="17" cy="15.9574" rx="4" ry="4.04255" stroke="#4F2DA7"/>
<path d="M6.24528 4.28593H5.65361C5.61409 3.91751 5.44735 3.6521 5.23244 3.49011H6.24528C6.29383 3.49011 6.33335 3.44922 6.33335 3.40007C6.33335 3.35092 6.29383 3.31003 6.24528 3.31003H3.75401C3.70621 3.31003 3.66669 3.35092 3.66669 3.40007C3.66669 3.44922 3.70621 3.49011 3.75401 3.49011H4.81315C5.09619 3.54398 5.41799 3.78618 5.47821 4.28593H3.75401C3.70621 4.28593 3.66669 4.32643 3.66669 4.37597C3.66669 4.42551 3.70621 4.46601 3.75401 4.46601H5.48913C5.48536 4.71686 5.40218 4.91975 5.23883 5.06956C4.77588 5.49342 3.83041 5.38529 3.821 5.3845C3.786 5.38057 3.75024 5.39905 3.73331 5.43208C3.71675 5.46471 3.72126 5.50521 3.74422 5.53313L5.40708 7.51402C5.42401 7.53486 5.44848 7.54508 5.4737 7.54508C5.49365 7.54508 5.51397 7.53761 5.53091 7.52307C5.56742 7.49082 5.57156 7.43381 5.53994 7.39567L4.01296 5.57716C4.34229 5.58621 4.97311 5.55318 5.35438 5.20481C5.55725 5.01962 5.66001 4.77073 5.66377 4.46601H6.24453C6.29308 4.46601 6.3326 4.4259 6.3326 4.37597C6.3326 4.32603 6.29383 4.28593 6.24528 4.28593Z" fill="#D6AF09" stroke="#D6AF09" stroke-width="0.5"/>
<ellipse cx="5" cy="5.04255" rx="4" ry="4.04255" stroke="#4F2DA7"/>
</svg>
