<svg width="110" height="74" viewBox="0 0 110 74" fill="none" xmlns="http://www.w3.org/2000/svg">
<path d="M54.4505 68.7149C75.4095 68.7149 92.4001 66.8217 92.4001 64.4863C92.4001 62.1509 75.4095 60.2577 54.4505 60.2577C33.4915 60.2577 16.5009 62.1509 16.5009 64.4863C16.5009 66.8217 33.4915 68.7149 54.4505 68.7149Z" fill="#F6F2FF"/>
<path d="M71.3127 60.5466C74.4742 62.2383 80.4599 64.0346 82.4407 63.8443C84.4213 63.6541 82.65 61.447 84.5771 60.2075C86.5041 58.968 88.8582 61.8748 90.3168 61.1054C91.7754 60.336 89.3771 57.3694 90.451 56.1168C91.5249 54.8643 94.135 56.1762 95.5237 55.0317C96.9124 53.8871 95.4673 52.9685 96.0582 51.4954C96.57 50.2196 99.0788 48.0643 98.7953 47.0821C98.5118 46.0997 96.4446 47.4422 94.724 46.8729C93.0034 46.3036 93.0486 44.8442 92.0546 44.8516C91.0605 44.859 92.4421 47.59 89.7849 46.9098C87.1277 46.2297 87.1846 43.3318 85.5139 43.6759C83.8432 44.02 83.949 47.484 82.4026 48.4306C80.8562 49.3772 80.2934 45.6418 77.7711 47.337C75.2488 49.0324 75.4072 51.727 74.166 53.9667C73.0831 55.9206 71.3746 57.0948 70.9306 59.7875C70.9023 59.9592 71.1516 60.4607 71.3127 60.5469L71.3127 60.5466Z" fill="#E8E0FF"/>
<path d="M81.4719 62.1086C80.5224 60.9536 79.5836 60.087 78.6555 59.5088C77.7274 58.9306 76.3317 58.6543 74.4684 58.6799L74.7729 58.536C76.6374 58.585 77.9823 58.8853 78.8078 59.4368C79.6332 59.9883 80.5212 60.8789 81.4719 62.1086V62.1086Z" fill="#CABDE7"/>
<path d="M78.6488 49.6407C79.0034 51.0767 79.1301 52.327 79.0288 53.3916C78.9276 54.4562 78.3184 55.7423 77.2014 57.2501L77.5059 57.1062C78.563 55.5516 79.1213 54.2894 79.1811 53.3196C79.2408 52.3499 79.0634 51.1237 78.6488 49.6407Z" fill="#CABDE7"/>
<path d="M89.6786 59.8727C88.5277 58.316 87.4888 57.2489 86.5619 56.6713C85.635 56.0937 84.1144 55.5659 82.0003 55.088L82.3044 54.9442C84.4198 55.4967 85.8895 56.0485 86.7139 56.5994C87.5383 57.1503 88.5264 58.2414 89.6786 59.8727Z" fill="#CABDE7"/>
<path d="M85.5767 44.8473C86.1335 46.6848 86.3614 48.1354 86.2602 49.199C86.1591 50.2627 85.652 51.7492 84.7389 53.6583L85.0431 53.5145C85.8963 51.5585 86.3526 50.096 86.4123 49.1271C86.472 48.1583 86.1934 46.7317 85.5767 44.8473V44.8473Z" fill="#CABDE7"/>
<path d="M94.273 54.0569C92.999 53.2068 91.9417 52.69 91.101 52.5063C90.2603 52.3226 88.9963 52.3324 87.309 52.5355L87.4934 52.3488C89.202 52.2006 90.4352 52.222 91.1932 52.4129C91.9511 52.6038 92.9776 53.1519 94.273 54.0569L94.273 54.0569Z" fill="#CABDE7"/>
<path d="M92.3268 45.668C92.4636 46.8228 92.4449 47.7124 92.2707 48.3368C92.0966 48.9613 91.6343 49.7958 90.8839 50.8405L91.0813 50.7863C91.8008 49.7074 92.2302 48.8818 92.3694 48.3097C92.5087 47.7376 92.4945 46.857 92.3268 45.668L92.3268 45.668Z" fill="#CABDE7"/>
<path d="M98.8691 46.9968L65.7972 63.0382L65.5668 62.5767L98.8691 46.9968Z" fill="#CABDE7"/>
<path d="M62.2314 52.7451C68.2928 52.0937 78.4434 48.8745 81.0628 46.7014C83.6821 44.5284 79.099 43.1155 80.6538 39.5125C82.2083 35.9097 88.2742 37.7501 89.6099 35.2615C90.9457 32.7727 84.7612 30.8903 85.0981 28.0892C85.435 25.2882 90.3593 24.6309 91.2428 21.6797C92.1263 18.7284 89.2187 18.821 88.6652 16.1731C88.1859 13.8796 89.6995 8.42437 88.3732 7.31026C87.0468 6.19594 85.3912 10.079 82.4235 10.9295C79.4557 11.7801 78.1443 9.67614 76.7466 10.6424C75.3491 11.6087 79.8751 14.136 75.4795 15.7306C71.0839 17.3253 68.4333 13.1791 66.397 15.2713C64.3607 17.3636 67.7747 22.1526 66.4819 24.9759C65.189 27.7993 60.8733 23.0664 58.9071 27.8851C56.9411 32.7039 59.7045 36.3562 60.0615 40.7117C60.373 44.5115 59.0656 47.812 60.976 52.0407C61.0979 52.3104 61.9228 52.7787 62.2317 52.7455L62.2314 52.7451Z" fill="#C4AFFF"/>
<path d="M78.3147 45.0519C75.865 44.328 73.7046 44.0042 71.8335 44.0806C69.9623 44.1569 67.7122 45.1159 65.0831 46.9574L65.38 46.4575C68.0817 44.7211 70.2823 43.8456 71.9819 43.8306C73.6814 43.8158 75.7922 44.2229 78.3147 45.0519V45.0519Z" fill="#D2C2FF"/>
<path d="M62.2376 30.059C64.1075 31.7595 65.4764 33.4165 66.344 35.0301C67.2116 36.6436 67.5664 39.0647 67.4083 42.2934L67.7052 41.7935C67.7334 38.5562 67.3291 36.2185 66.4925 34.7801C65.6558 33.3418 64.2376 31.7682 62.2376 30.059Z" fill="#D2C2FF"/>
<path d="M87.7723 34.1865C84.6476 33.0842 82.1488 32.5712 80.276 32.6477C78.4032 32.7241 75.7304 33.4481 72.258 34.8196L72.5552 34.3192C76.1004 33.0529 78.7235 32.4124 80.4246 32.3975C82.1256 32.3826 84.5749 32.979 87.7723 34.1865Z" fill="#D2C2FF"/>
<path d="M67.3874 16.7687C69.9316 18.8485 71.6379 20.6959 72.5062 22.311C73.3746 23.9261 74.0661 26.5384 74.5805 30.1478L74.8777 29.6474C74.2331 26.0293 73.492 23.5006 72.6548 22.0608C71.8175 20.6211 70.0617 18.8571 67.3874 16.7687V16.7687Z" fill="#D2C2FF"/>
<path d="M88.6011 21.6347C85.9862 21.6506 83.9959 21.9352 82.6295 22.4882C81.2633 23.0413 79.4815 24.2841 77.2839 26.2165L77.3675 25.7687C79.6475 23.8946 81.4154 22.7267 82.6713 22.2644C83.9271 21.8021 85.9036 21.5924 88.6011 21.6348L88.6011 21.6347Z" fill="#D2C2FF"/>
<path d="M77.7317 11.6319C79.027 13.14 79.8471 14.4224 80.1918 15.479C80.5365 16.5357 80.6684 18.171 80.5873 20.385L80.8186 20.1161C80.8229 17.8835 80.6525 16.2929 80.3074 15.3446C79.9624 14.3962 79.1039 13.1586 77.7317 11.6319L77.7317 11.6319Z" fill="#D2C2FF"/>
<path d="M88.2444 7.41213L57.8665 59.6581L57.1202 59.2372L88.2444 7.41213Z" fill="#D2C2FF"/>
<path fill-rule="evenodd" clip-rule="evenodd" d="M75.2518 47.5289C83.7332 50.3076 90.541 49.9068 95.6903 46.2579C100.959 42.5243 103.486 36.133 103.271 27.0843C94.5138 24.0885 87.501 24.4577 82.2323 28.1913C77.0799 31.8425 74.5851 38.023 74.6771 46.7574C74.6792 46.9546 75.0556 47.465 75.2522 47.5295L75.2518 47.5289Z" fill="#E0D4FF"/>
<path d="M81.281 33.8691C81.9597 35.4053 82.347 36.7788 82.443 37.9895C82.539 39.2003 82.1108 40.7594 81.1583 42.6666L81.4704 42.4454C82.3467 40.4976 82.7229 38.9754 82.599 37.8789C82.4752 36.7824 82.0359 35.4458 81.2811 33.8691L81.281 33.8691Z" fill="#D0C2F4"/>
<path d="M95.6424 43.1732C94.049 41.659 92.6771 40.6703 91.5267 40.2072C90.3763 39.7442 88.5717 39.4544 86.1129 39.3377L86.4249 39.1166C88.8997 39.3166 90.6523 39.6433 91.6827 40.0967C92.713 40.5501 94.0329 41.5756 95.6424 43.1732L95.6424 43.1732Z" fill="#D0C2F4"/>
<path d="M88.0592 27.1803C89.0433 29.1263 89.5834 30.7045 89.6794 31.9147C89.7754 33.1249 89.5004 34.8884 88.8544 37.2053L89.1663 36.9843C89.7361 34.6268 89.9591 32.9001 89.8354 31.8042C89.7117 30.7083 89.1196 29.167 88.0592 27.1803L88.0592 27.1803Z" fill="#D0C2F4"/>
<path d="M99.6048 35.7923C98.0142 35.0904 96.7315 34.7191 95.7565 34.6786C94.7816 34.6381 93.3723 34.8974 91.5286 35.4566L91.6976 35.2112C93.576 34.7093 94.9572 34.4909 95.841 34.5559C96.7249 34.6208 97.9795 35.033 99.6048 35.7923L99.6048 35.7923Z" fill="#D0C2F4"/>
<path d="M95.7615 26.8004C96.141 28.0645 96.2945 29.0629 96.2218 29.7957C96.149 30.5284 95.7948 31.5534 95.1591 32.8705L95.3695 32.7707C95.964 31.4214 96.2831 30.4131 96.327 29.7458C96.3708 29.0784 96.1823 28.0966 95.7615 26.8004L95.7615 26.8004Z" fill="#D0C2F4"/>
<path d="M103.324 27.0267L75.0841 47.431L74.7377 46.9652L103.324 27.0267Z" fill="#D0C2F4"/>
<path d="M39.5461 55.8431C41.854 50.7206 43.9376 41.1403 43.3519 38.0362C42.7662 34.9321 39.4265 37.9081 37.1429 34.9766C34.8594 32.0452 39.2548 28.0924 37.8007 25.8594C36.3466 23.6264 31.8602 27.6537 29.6743 26.0674C27.4885 24.481 29.2566 20.2592 27.2025 18.1677C25.1484 16.0763 23.8573 18.4301 21.3809 17.6231C19.2358 16.9241 15.3828 13.1532 13.8258 13.6824C12.2689 14.2116 14.7394 17.3551 14.0543 20.1134C13.3693 22.8718 10.9912 22.9231 11.1421 24.4885C11.2929 26.0538 15.5385 23.6476 14.8039 27.8906C14.0693 32.1337 9.35174 32.2878 10.1443 34.8907C10.9368 37.4936 16.5517 37.0356 18.3059 39.3922C20.0602 41.7488 14.0679 42.9493 17.1753 46.7799C20.2827 50.6105 24.6399 50.1346 28.4535 51.9016C31.7801 53.443 33.927 56.0357 38.3651 56.5088C38.6482 56.539 39.4285 56.1041 39.5461 55.8431Z" fill="#E0D4FF"/>
<path d="M40.6109 39.4606C40.6109 39.4606 37.9723 41.8679 36.747 44.1511C35.5217 46.4343 35.978 50.867 35.978 50.867L35.6993 50.3959C35.6993 50.3959 35.4263 45.9507 36.6076 43.9155C37.789 41.8803 40.6109 39.4606 40.6109 39.4606Z" fill="#D0C2F4"/>
<path d="M20.536 45.1969C20.536 45.1969 23.9917 44.1699 26.6305 44.2756C29.2692 44.3813 33.2119 46.8498 33.2119 46.8498L32.9331 46.3786C32.9331 46.3786 28.8878 44.0589 26.4911 44.04C24.0943 44.0211 20.536 45.1969 20.536 45.1969Z" fill="#D0C2F4"/>
<path d="M36.0184 26.7941C36.0184 26.7941 32.4282 29.7391 31.2018 32.0248C29.9754 34.3105 29.2456 39.4168 29.2456 39.4168L28.9667 38.9451C28.9667 38.9451 29.8799 33.8264 31.0623 31.789C32.2447 29.7515 36.0184 26.7941 36.0184 26.7941Z" fill="#D0C2F4"/>
<path d="M11.8915 34.8254C11.8915 34.8254 16.2991 33.2624 18.94 33.3682C21.5809 33.474 26.4759 35.4099 26.4759 35.4099L26.1969 34.9382C26.1969 34.9382 21.1991 33.1513 18.8005 33.1323C16.4018 33.1134 11.8915 34.8254 11.8915 34.8254Z" fill="#D0C2F4"/>
<path d="M25.9693 20.2246C25.9693 20.2246 24.1313 23.3512 23.8537 25.3662C23.5762 27.3812 24.4364 31.3525 24.4364 31.3525L24.1018 31.0771C24.1018 31.0771 23.3733 27.0482 23.6865 25.2285C23.9996 23.4088 25.9693 20.2246 25.9693 20.2246Z" fill="#D0C2F4"/>
<path d="M12.4947 24.1493C12.4947 24.1493 15.3003 23.674 16.8699 24.0121C18.4396 24.3503 21.1629 26.0166 21.1629 26.0166L21.0464 25.7056C21.0464 25.7056 18.2455 24.1177 16.8116 23.8567C15.3778 23.5957 12.4947 24.1493 12.4947 24.1493Z" fill="#D0C2F4"/>
<path d="M13.9388 13.7844L43.9887 64.0359L43.2868 64.4335L13.9388 13.7844Z" fill="#D0C2F4"/>
<path d="M40.946 59.834C40.5236 55.2729 38.1594 47.6643 36.5045 45.7196C34.8496 43.775 33.6858 47.2503 30.9029 46.1284C28.1201 45.0065 29.6374 40.4072 27.7188 39.4347C25.8002 38.4623 24.2485 43.1516 22.0728 42.9368C19.897 42.722 19.4543 39.0181 17.1694 38.3932C14.8845 37.7682 14.9159 39.9593 12.8471 40.4135C11.0552 40.8068 6.8299 39.7417 5.94398 40.7574C5.05807 41.7731 8.05751 42.9672 8.67815 45.193C9.2988 47.4188 7.64277 48.437 8.37543 49.4772C9.10809 50.5175 11.1386 47.0695 12.3183 50.3616C13.4981 53.6537 10.2338 55.7102 11.834 57.2164C13.4342 58.7226 17.2095 56.0815 19.3892 57.017C21.5688 57.9526 17.8245 61.2726 21.5479 62.6877C25.2714 64.1028 28.1529 61.9683 31.5485 61.6382C34.5106 61.3503 37.0615 62.29 40.3798 60.7906C40.5914 60.695 40.9675 60.0665 40.946 59.834Z" fill="#E8E0FF"/>
<path d="M35.2199 48.0432C35.2199 48.0432 34.3304 50.8088 34.3804 52.9084C34.4303 55.0079 36.5108 57.9221 36.5108 57.9221L36.1286 57.7067C36.1286 57.7067 34.1715 54.7087 34.1893 52.8006C34.2071 50.8926 35.2199 48.0432 35.2199 48.0432Z" fill="#CABDE7"/>
<path d="M23.4537 60.1404C23.4537 60.1404 25.4627 58.0061 27.3503 56.9989C29.2379 55.9916 32.976 56.1028 32.976 56.1028L32.5938 55.8874C32.5938 55.8874 28.843 55.9224 27.1592 56.8912C25.4754 57.86 23.4537 60.1404 23.4537 60.1404Z" fill="#CABDE7"/>
<path d="M26.7849 40.9883C26.7849 40.9883 25.4459 44.5133 25.4958 46.611C25.5457 48.7086 27.0605 52.5726 27.0605 52.5726L26.6788 52.3574C26.6788 52.3574 25.2871 48.4097 25.3049 46.5034C25.3227 44.5971 26.7849 40.9883 26.7849 40.9883Z" fill="#CABDE7"/>
<path d="M13.1169 56.3099C13.1169 56.3099 15.5746 53.4154 17.4604 52.409C19.3462 51.4025 23.5312 50.7517 23.5312 50.7517L23.1495 50.5364C23.1495 50.5364 18.9517 51.3333 17.2695 52.3014C15.5873 53.2694 13.1169 56.3099 13.1169 56.3099Z" fill="#CABDE7"/>
<path d="M17.0245 40.3769C17.0245 40.3769 16.9891 43.3262 17.5944 44.8558C18.1997 46.3855 20.3672 48.8245 20.3672 48.8245L20.0265 48.7678C20.0265 48.7678 17.9274 46.2344 17.4241 44.8275C16.9207 43.4205 17.0245 40.3769 17.0245 40.3769Z" fill="#CABDE7"/>
<path d="M9.12734 48.5542C9.12734 48.5542 10.9043 47.0758 12.1379 46.6688C13.3714 46.2619 15.9396 46.307 15.9396 46.307L15.7347 46.1384C15.7347 46.1384 13.1433 46.1795 12.0354 46.5845C10.9275 46.9896 9.12734 48.5542 9.12734 48.5542Z" fill="#CABDE7"/>
<path d="M5.85649 40.6636L47.6404 63.9369L47.2992 64.5165L5.85649 40.6636Z" fill="#CABDE7"/>
<path d="M70.7278 38.5963V61.7285C70.7278 63.6412 69.1144 65.1917 67.1242 65.1917H37.5203C35.53 65.1917 33.9167 63.6411 33.9167 61.7285V25.4914C33.9167 23.5782 35.5305 22.0282 37.5203 22.0282H53.4878L70.7278 38.5963Z" fill="#A998D2"/>
<path d="M42.1076 60.7831C40.1173 60.7831 38.504 59.2326 38.504 57.3199V21.0827C38.5039 19.1695 40.1177 17.6195 42.1076 17.6195H58.075C60.8202 17.6195 75.315 31.5497 75.315 34.1877V57.3199C75.315 59.2327 73.7016 60.7831 71.7114 60.7831H42.1076Z" fill="#F6F2FF"/>
<path d="M75.3149 34.188V35.653C75.3149 32.5687 72.7124 30.0676 69.5031 30.0676H65.9659C63.9762 30.0676 62.3624 28.5167 62.3624 26.6044V23.2049C62.3624 20.1206 59.7599 17.6195 56.5507 17.6195H58.075C60.8198 17.6195 63.453 18.6676 65.3938 20.5329L72.2836 27.1543C74.2242 29.0195 75.3149 31.5501 75.3149 34.188Z" fill="#A998D2"/>
<path d="M53.853 43.9575V52.5844C53.853 52.9565 54.1669 53.2582 54.5542 53.2582H59.2653C59.6526 53.2582 59.9665 52.9565 59.9665 52.5844V43.9575H61.9693C62.594 43.9575 62.9068 43.2317 62.4651 42.8073L57.9898 38.5062C57.3934 37.933 56.4262 37.933 55.8298 38.5062L51.3545 42.8073C50.9128 43.2317 51.2256 43.9575 51.8502 43.9575H53.853Z" fill="#5F40AF"/>
<path d="M51.4463 36.139H62.3733C63.1279 36.139 63.7396 35.5511 63.7396 34.8259V34.7898C63.7396 34.0646 63.1279 33.4767 62.3733 33.4767H51.4463C50.6916 33.4767 50.08 34.0646 50.08 34.7898V34.8259C50.08 35.551 50.6916 36.139 51.4463 36.139Z" fill="#5F40AF"/>
</svg>
