<svg width="21" height="20" viewBox="0 0 21 20" fill="none" xmlns="http://www.w3.org/2000/svg">
<path fill-rule="evenodd" clip-rule="evenodd" d="M11.5467 13.0895C11.6623 13.2432 11.7853 13.3586 12.0121 13.2979C12.0488 13.2867 12.0934 13.2932 12.1373 13.2995C12.2066 13.3094 12.274 13.3191 12.305 13.2589C12.3351 13.2019 12.2741 13.1336 12.2181 13.0708C12.2028 13.0537 12.1879 13.037 12.1753 13.0211C12.0871 12.9092 11.9995 12.7969 11.9119 12.6846C11.685 12.3937 11.4582 12.1029 11.2202 11.8196C11.0776 11.6516 11.0418 11.5168 11.2191 11.3635C11.237 11.3476 11.2514 11.3285 11.2652 11.31C11.2688 11.3052 11.2724 11.3004 11.276 11.2958C11.3796 11.1615 11.4834 11.0275 11.5872 10.8935C11.8056 10.6116 12.0238 10.3299 12.2396 10.0467C12.2466 10.0374 12.2569 10.0273 12.2677 10.0166C12.3103 9.9746 12.3618 9.92379 12.261 9.87789C12.0741 9.79053 11.6823 9.9021 11.5596 10.0611C11.4501 10.2018 11.34 10.3418 11.2299 10.4818C11.1018 10.6447 10.9738 10.8076 10.8468 10.9712C10.7559 11.0895 10.6906 11.1351 10.5775 10.9758C10.4945 10.8574 10.4021 10.7442 10.3097 10.631C10.186 10.4795 10.0624 10.3281 9.96111 10.1642C9.7986 9.90245 9.58401 9.82947 9.28743 9.87193C9.2712 9.87436 9.25314 9.87322 9.23496 9.87207C9.19027 9.86924 9.14481 9.86636 9.12381 9.91649C9.10273 9.96381 9.1354 9.99649 9.16757 10.0287C9.17881 10.0399 9.18998 10.0511 9.19879 10.0628C9.3115 10.2074 9.42394 10.3523 9.53638 10.4972C9.78794 10.8213 10.0395 11.1455 10.2943 11.4663C10.3667 11.5561 10.3696 11.6154 10.2943 11.7077C10.0608 11.9953 9.83275 12.2864 9.60494 12.577C9.52205 12.6828 9.43919 12.7885 9.35613 12.894C9.34598 12.9072 9.33664 12.9222 9.32723 12.9373C9.29551 12.9883 9.26287 13.0407 9.19509 13.0302C9.14026 13.0223 9.12352 12.9759 9.10645 12.9285C9.09753 12.9038 9.08852 12.8788 9.07395 12.8589C9.06614 12.8481 9.06264 12.8351 9.05914 12.8221C9.05685 12.8136 9.05456 12.8051 9.05105 12.7972C8.90684 12.459 8.76258 12.1211 8.61836 11.7833C8.36514 11.1902 8.11204 10.5974 7.85954 10.0039C7.80488 9.87053 7.73803 9.79088 7.55816 9.79474C7.38863 9.79895 7.33433 9.87333 7.28521 10.0021C7.20751 10.203 7.12234 10.4016 7.03717 10.6001C7.0102 10.663 6.98323 10.7258 6.9565 10.7888C6.82985 11.0857 6.70305 11.3824 6.57631 11.679C6.36817 12.1661 6.16019 12.6528 5.95336 13.1393C5.94853 13.151 5.94044 13.1629 5.93223 13.175C5.90714 13.2121 5.88087 13.2509 5.94264 13.2895C6.0878 13.3821 6.48817 13.267 6.55465 13.1172C6.58421 13.0489 6.61468 12.9808 6.64516 12.9128C6.71331 12.7605 6.78148 12.6083 6.83941 12.4533C6.88706 12.3281 6.96204 12.2881 7.09758 12.2916L7.11278 12.2918C7.41171 12.297 7.7113 12.3022 8.00876 12.2881C8.17681 12.2825 8.26471 12.3368 8.31901 12.4821C8.36514 12.6043 8.41828 12.7232 8.47132 12.8418C8.51639 12.9426 8.56138 13.0433 8.60192 13.1456C8.64735 13.2593 8.71827 13.3046 8.84643 13.3C8.86227 13.2996 8.87812 13.2991 8.89398 13.2987C9.08041 13.2933 9.26809 13.288 9.45326 13.3032C9.64939 13.3186 9.77312 13.2474 9.87949 13.1035C9.98848 12.9561 10.1015 12.8114 10.2146 12.6666C10.3341 12.5135 10.4537 12.3604 10.5687 12.2039C10.6691 12.0695 10.7338 12.0344 10.8512 12.1947C10.9661 12.3503 11.0869 12.5021 11.2079 12.6542C11.3222 12.7979 11.4367 12.9419 11.5467 13.0895ZM7.6657 11.8195C7.6367 11.8201 7.60772 11.8207 7.57884 11.8207C7.11494 11.8207 7.11494 11.8207 7.26711 11.4249C7.29863 11.3444 7.32968 11.2638 7.36078 11.1831C7.40803 11.0604 7.45537 10.9375 7.5046 10.8144C7.5084 10.8049 7.51048 10.7935 7.5126 10.782C7.51851 10.7498 7.52473 10.7159 7.56961 10.7144C7.62726 10.7124 7.63979 10.7539 7.65226 10.7953C7.65497 10.8043 7.65767 10.8132 7.66083 10.8218C7.6871 10.8919 7.7131 10.9622 7.7391 11.0324C7.81657 11.2416 7.89394 11.4506 7.97773 11.6568C8.02612 11.7786 8.01097 11.833 7.85806 11.8221C7.79463 11.8168 7.73015 11.8181 7.6657 11.8195Z" fill="#D6AF09"/>
<path d="M5.31958 11.8467C5.32069 12.266 5.3085 12.6856 5.32549 13.1039C5.33288 13.2993 5.23279 13.313 5.07138 13.307C4.91404 13.3003 4.7663 13.3326 4.77074 13.0975C4.78145 12.266 4.7663 11.4337 4.78071 10.6042C4.7844 10.3951 4.71201 10.3407 4.50407 10.3558C4.27877 10.3709 4.05125 10.3512 3.82521 10.3603C3.64645 10.3688 3.63796 10.2702 3.65088 10.1526C3.6627 10.0361 3.58662 9.86947 3.82374 9.86772C4.6422 9.86772 5.45882 9.87087 6.27766 9.86772C6.51072 9.86631 6.42872 10.0239 6.43648 10.1298C6.44424 10.2407 6.47489 10.3702 6.26769 10.3618C6.01875 10.3509 5.76833 10.3646 5.51977 10.3572C5.3676 10.3526 5.31404 10.4025 5.31737 10.5453C5.32549 10.9796 5.31958 11.413 5.31958 11.8467Z" fill="#D6AF09"/>
<path d="M16.3884 13.2411V15.4733L17.7779 16.7137" stroke="#4F2DA7" stroke-linecap="round" stroke-linejoin="round"/>
<path d="M17.1949 2.31052H17.9528C18.6969 2.31052 19.3001 2.9644 19.3001 3.77052V10.3105" stroke="#4F2DA7" stroke-linecap="round" stroke-linejoin="round"/>
<path d="M5.82593 2.31052H13.8259" stroke="#4F2DA7" stroke-linecap="round" stroke-linejoin="round"/>
<path d="M11.0632 18.3109H2.56341C1.73488 18.3109 1.06323 17.5546 1.06323 16.6223V3.99942C1.06323 3.06675 1.73488 2.31087 2.56341 2.31087H3.43793" stroke="#4F2DA7" stroke-linecap="round" stroke-linejoin="round"/>
<path d="M1.06323 6.93474H18.9428" stroke="#4F2DA7" stroke-linecap="round" stroke-linejoin="round"/>
<circle cx="16.4671" cy="15.1846" r="3.5" stroke="#4F2DA7" stroke-linecap="round" stroke-linejoin="round"/>
<path d="M4.58977 3.51938C4.58977 3.51936 4.5901 3.51902 4.59079 3.51845C4.59012 3.51913 4.58978 3.51941 4.58977 3.51938ZM4.72512 3.51843C4.72581 3.519 4.72614 3.51934 4.72614 3.51936C4.72613 3.51939 4.72579 3.51911 4.72512 3.51843ZM4.72614 0.480617C4.72615 0.480643 4.72582 0.48098 4.72513 0.481548C4.7258 0.480874 4.72614 0.48059 4.72614 0.480617ZM4.5908 0.481572C4.59011 0.481002 4.58978 0.480663 4.58978 0.480637C4.58979 0.48061 4.59013 0.480895 4.5908 0.481572Z" stroke="#4F2DA7" stroke-linecap="round" stroke-linejoin="round"/>
<path d="M15.432 3.51934C15.432 3.51932 15.4323 3.51899 15.433 3.51843C15.4324 3.51909 15.432 3.51937 15.432 3.51934ZM15.5672 3.51842C15.5679 3.51899 15.5682 3.51933 15.5682 3.51936C15.5682 3.51938 15.5679 3.5191 15.5672 3.51842ZM15.5681 0.480639C15.5681 0.480664 15.5678 0.480989 15.5672 0.481538C15.5678 0.480888 15.5681 0.480614 15.5681 0.480639ZM15.4329 0.481563C15.4322 0.480991 15.4318 0.480651 15.4318 0.480624C15.4319 0.480597 15.4322 0.480883 15.4329 0.481563Z" stroke="#4F2DA7" stroke-linecap="round" stroke-linejoin="round"/>
</svg>
