<svg width="53" height="52" viewBox="0 0 53 52" fill="none" xmlns="http://www.w3.org/2000/svg">
<ellipse cx="26.5" cy="43.5" rx="21.5" ry="2.5" fill="#F6F2FF"/>
<path d="M36.9583 40.7354L34.4497 37.3837L33.3495 37.9496C33.0414 38.9798 32.4429 41.0575 32.5133 41.1271C34.3793 42.2066 36.2541 41.3158 36.9583 40.7354Z" fill="#4F2DA7"/>
<path d="M18.4741 42.7377C16.9601 38.1411 20.1905 35.8022 21.9949 35.2073C15.9097 34.4349 14.544 38.6351 14.6037 41.3265C14.612 41.7023 14.8946 42.0052 15.2629 42.0806L18.4741 42.7377Z" fill="#4F2DA7"/>
<path d="M20.5868 34.1191C12.0665 34.7111 11.022 40.953 11.5648 44C10.802 43.6953 9.15306 43.0337 8.66015 42.8247C8.04401 42.5636 8 42.3024 8 41.7365C8.70416 35.2247 13.78 31.1882 16.2298 29.984C13.5892 29.8969 11.0807 27.5899 11.7848 25.4135C13.0611 20.9737 16.7579 21.7136 18.3423 22.9324C19.9267 24.1512 20.9829 23.89 22.6112 22.7148C23.9139 21.7746 25.3545 22.1199 25.912 22.4101C23.8435 26.0229 18.9936 25.0392 18.0782 23.89C16.934 22.4536 13.0611 22.4101 12.7531 25.4135C12.5066 27.8163 14.8215 28.7652 16.0098 28.9393C24.3716 30.5063 29.8288 22.1924 30.8411 21.1478C31.8533 20.1031 32.1966 19.72 32.8655 20.1031C40.5672 23.5853 40.5672 33.118 40.5672 32.7262C41.3154 18.7537 28.4645 16.7079 28.0685 16.6208C27.6724 16.5338 27.2323 16.1856 27.4083 14.7927C27.5491 13.6784 28.1711 13.4578 28.4645 13.4868C32.5134 14.0962 31.7653 10.4399 36.2543 11.354C40.7433 12.268 42.7677 8.87285 42.9878 6C44.0088 9.62153 40.6259 12.5002 38.8068 13.4868C45.7604 21.0607 43.5159 30.811 42.5037 33.118C41.4914 35.425 41.6235 39.0813 42.7677 40.4307C43.6831 41.5102 43.9707 43.0569 44 43.6953L40.6993 43.3036C40.4921 42.7299 39.9412 41.8596 39.1705 41.2137C38.5318 40.6784 37.7515 40.3162 37.1544 39.7347C33.9296 36.5944 34.229 32.9853 34.7139 31.3333C33.9042 32.9352 34.0831 35.512 34.2738 36.6002C33.7017 37.732 30.313 37.9061 28.0244 37.4708C25.7359 37.0355 24.0636 34.4674 20.5868 34.1191Z" fill="url(#paint0_linear)"/>
<path d="M25.5601 8.95992C27.3557 12.268 30.8266 12.3116 32.3376 11.9198C31.7214 12.5292 30.1195 13.5478 28.6407 12.7469C27.162 11.9459 25.9708 9.88851 25.5601 8.95992Z" fill="#7F66BF"/>
<defs>
<linearGradient id="paint0_linear" x1="27.3203" y1="15.0538" x2="42.5105" y2="42.445" gradientUnits="userSpaceOnUse">
<stop stop-color="#4F2DA7"/>
<stop offset="1" stop-color="#7F66BF"/>
</linearGradient>
</defs>
</svg>
