<svg width="223" height="48" viewBox="0 0 223 48" fill="none" xmlns="http://www.w3.org/2000/svg">
<path d="M105.857 18.4535C101.739 14.416 96.0863 16.354 96.0863 16.354C89.4647 18.3728 90.7971 25.1155 90.7971 25.1155C92.4525 30.2028 97.661 30.7681 97.661 30.7681C97.1361 28.7897 98.4685 27.5784 98.4685 27.5784C97.2572 27.2554 95.7633 26.4479 95.7633 26.4479C90.6356 22.1277 97.2168 19.0995 97.2168 19.0995C104.323 17.2826 105.857 22.1277 105.857 22.1277C106.745 21.2798 105.857 18.4535 105.857 18.4535Z" fill="white"/>
<path d="M109.854 33.6347C108.764 29.476 101.86 28.3455 101.86 28.3455C99.9624 27.7399 99.4779 29.3145 99.4779 29.3145C99.0741 31.6563 101.577 31.5756 101.577 31.5756C103.152 31.8986 104.606 32.5446 104.606 32.5446C107.27 33.4329 106.867 36.5418 106.867 36.5418C105.413 41.508 99.3568 40.862 99.3568 40.862C94.0272 40.2563 93.7446 36.3803 93.7446 36.3803C93.2601 38.1972 93.7446 41.508 93.7446 41.508C102.546 47.4836 108.32 40.539 108.32 40.539C110.864 38.1568 109.854 33.6347 109.854 33.6347Z" fill="white"/>
<path d="M67.137 16.031H62.0093C61.4845 16.031 61.0403 16.4751 61.0403 17V18.4131C61.0403 18.938 61.4845 19.3822 62.0093 19.3822H67.0967C67.6215 19.3822 68.0657 18.938 68.0657 18.4131V17C68.1061 16.4751 67.6619 16.031 67.137 16.031Z" fill="white"/>
<path d="M108.28 15.708H106.826C106.301 15.708 105.857 16.1521 105.857 16.677V24.1868C105.857 24.7117 106.301 25.1559 106.826 25.1559H108.239C108.764 25.1559 109.208 24.7117 109.208 24.1868V16.7174C109.249 16.1521 108.805 15.708 108.28 15.708Z" fill="white"/>
<path d="M68.2676 3.55492C68.2676 3.55492 62.9784 2.58591 60.5963 5.49295C60.5963 5.49295 58.4563 7.26948 58.2141 11.2667V16.0714H55.3474C55.3474 16.0714 53.8535 16.354 54.0554 18.1709C54.0554 18.1709 54.0958 19.261 55.3474 19.4629H58.2141V40.9023H55.5089C55.5089 40.9023 53.2479 42.3962 55.5089 43.9305H65.9258C65.9258 43.9305 68.1061 42.1944 65.9258 40.9023H61.5249V20.5127C61.5249 20.5127 59.6676 20.1897 59.5869 17.8075C59.5869 17.8075 59.4254 15.7484 61.5249 15.1023V9.97464C61.5249 9.97464 62.8573 5.37183 68.1061 7.26948C68.1061 7.26948 70.1249 7.75398 70.5286 5.65445C70.4883 5.65445 70.8517 3.95868 68.2676 3.55492Z" fill="white"/>
<path d="M92.7352 34.4422H91.3221C90.7972 34.4422 90.3531 34.8864 90.3531 35.4113V42.9211C90.3531 43.446 90.7972 43.8901 91.3221 43.8901H92.7352C93.2601 43.8901 93.7042 43.446 93.7042 42.9211V35.4113C93.7042 34.8864 93.2601 34.4422 92.7352 34.4422Z" fill="white"/>
<path d="M78.0385 13.1643C80.0677 13.1643 81.7127 11.5193 81.7127 9.49015C81.7127 7.46095 80.0677 5.81597 78.0385 5.81597C76.0094 5.81597 74.3644 7.46095 74.3644 9.49015C74.3644 11.5193 76.0094 13.1643 78.0385 13.1643Z" fill="white"/>
<path d="M79.2902 16.031H74.6874C74.1625 16.031 73.7184 16.4751 73.7184 17V18.4132C73.7184 18.938 74.1625 19.3822 74.6874 19.3822H79.2902C79.8151 19.3822 80.2592 18.938 80.2592 18.4132V17C80.2592 16.4751 79.8151 16.031 79.2902 16.031Z" fill="white"/>
<path d="M80.2592 17.969H76.908V41.6291H80.2592V17.969Z" fill="white"/>
<path d="M82.4799 40.539H74.6874C74.1625 40.539 73.7184 40.9831 73.7184 41.508V42.9211C73.7184 43.446 74.1625 43.8902 74.6874 43.8902H82.5202C83.0451 43.8902 83.4892 43.446 83.4892 42.9211V41.508C83.4489 40.9427 83.0451 40.539 82.4799 40.539Z" fill="white"/>
<path d="M138.844 3.39342H134.241C133.717 3.39342 133.272 3.83756 133.272 4.36244V5.77558C133.272 6.30047 133.717 6.7446 134.241 6.7446H138.844C139.369 6.7446 139.813 6.30047 139.813 5.77558V4.36244C139.813 3.83756 139.369 3.39342 138.844 3.39342Z" fill="white"/>
<path d="M140.742 40.539H139.773V5.81596H136.341L136.22 21.4817C136.22 21.4817 133.393 16.677 127.579 16.1117H124.067C124.067 16.1117 114.215 17.4441 112.721 28.0629C112.721 28.0629 111.55 35.6535 116.88 40.539C116.88 40.539 122.573 46.7568 130.971 43.4056C130.971 43.4056 135.17 41.2657 136.906 38.4394C136.906 38.4394 138.198 37.7934 136.745 36.1784C136.745 36.1784 135.453 35.2094 134.363 36.3399C134.363 36.3399 131.859 40.9427 126.207 41.1446C126.207 41.1446 120.191 41.1446 117.405 35.6939C117.405 35.6939 111.873 25.4385 122.209 20.1897C122.209 20.1897 127.418 17.646 132.303 21.6432C132.303 21.6432 138.562 26.0845 135.816 34.1192C135.816 34.1192 139.934 34.6441 138.683 38.7624C138.683 38.7624 137.714 40.216 136.422 41.6291C136.422 41.6291 136.26 43.3249 137.391 43.8901H141.065C141.065 43.8901 143.609 41.7906 140.742 40.539Z" fill="white"/>
<path d="M201.709 40.539H195.007C194.482 40.539 194.038 40.9831 194.038 41.508V42.9211C194.038 43.446 194.482 43.8901 195.007 43.8901H201.709C202.234 43.8901 202.678 43.446 202.678 42.9211V41.508C202.678 40.9427 202.274 40.539 201.709 40.539Z" fill="white"/>
<path d="M221.251 40.539H214.548C214.023 40.539 213.579 40.9831 213.579 41.508V42.9211C213.579 43.446 214.023 43.8901 214.548 43.8901H221.251C221.776 43.8901 222.22 43.446 222.22 42.9211V41.508C222.22 40.9427 221.776 40.539 221.251 40.539Z" fill="white"/>
<path d="M177.887 20.3512C178.695 18.5746 180.431 17.646 180.431 17.646C180.512 16.3944 179.301 15.9502 179.301 15.9502H175.303C172.517 18.0498 175.465 19.3822 175.465 19.3822H177.08V40.4986H180.431V25.9634C180.512 25.4385 180.916 24.1869 180.916 24.1869C177.201 23.8235 177.887 20.3512 177.887 20.3512Z" fill="white"/>
<path d="M219.353 24.6714C219.353 24.6714 218.424 18.6554 212.772 17C212.772 17 204.051 13.0432 198.196 20.9972C198.196 20.9972 193.634 12.6798 183.055 17.4845C183.055 17.4845 180.593 18.4939 179.3 20.5127C179.3 20.5127 178.897 22.8948 181.521 22.7737C181.521 22.7737 184.469 19.8263 186.81 19.584C186.81 19.584 193.27 18.2113 195.935 23.9042C195.935 23.9042 196.379 24.7925 196.581 25.5192V40.5793H199.932V26.4479C199.932 26.4479 199.731 23.8235 201.87 21.8047C201.87 21.8047 205.908 17.646 212.449 20.3512C212.449 20.3512 215.154 21.1587 215.961 24.8329L216.123 40.4986H219.474L219.353 24.6714Z" fill="white"/>
<path d="M182.208 40.539H175.505C174.98 40.539 174.536 40.9831 174.536 41.508V42.9211C174.536 43.446 174.98 43.8901 175.505 43.8901H182.208C182.732 43.8901 183.177 43.446 183.177 42.9211V41.508C183.177 40.9427 182.732 40.539 182.208 40.539Z" fill="white"/>
<path d="M170.297 33.0291C169.368 33.0291 168.762 32.7868 168.48 32.6657C168.359 33.1906 168.197 33.7155 167.995 34.2404C167.026 36.8648 164.927 38.9239 162.343 39.8929C153.46 43.2441 145.183 34.9671 148.534 26.0845C149.503 23.4601 151.603 21.4009 154.187 20.4319C161.899 17.5249 169.126 23.3793 168.722 30.7681C169.731 31.5756 170.781 31.4545 172.114 30.3643L172.154 30.3239C172.154 30.2432 172.154 30.2028 172.154 30.1221C172.154 22.4103 165.936 16.1925 158.224 16.1925C150.513 16.1925 144.335 22.4507 144.335 30.1624C144.335 37.8742 150.553 44.092 158.265 44.092C165.048 44.092 170.741 39.2066 171.952 32.7868C171.629 32.8676 171.064 33.0291 170.297 33.0291Z" fill="white"/>
<path fill-rule="evenodd" clip-rule="evenodd" d="M0.364511 28.0883C-1.76168 15.8474 5.62004 4.13705 17.1242 0.765062L17.1249 0.767523L17.2012 0.722842L20.6378 6.76553C23.6375 6.83897 26.5289 8.45068 28.1389 11.2816L26.0797 12.4885C25.1822 10.9238 23.7495 9.87058 22.1531 9.42979L30.0461 23.308L32.6152 21.8023L33.8018 23.8887L31.2327 25.3944L33.3093 29.0456C35.7255 33.3589 34.2616 38.8499 30.0222 41.3346C29.3476 41.73 28.6432 42.0255 27.9256 42.2257L29.7153 45.3724C40.5446 42.526 47.5663 31.6531 45.5905 20.2782C43.6874 9.32187 34.0973 1.70152 23.4434 2.12519L23.3627 0.0185165C35.039 -0.446826 45.5498 7.90451 47.6355 19.9121C49.9115 33.0154 41.2927 45.5107 28.385 47.8212L28.3798 47.7913L28.358 47.8041L25.3662 42.5438C22.3666 42.4704 19.4752 40.8587 17.8652 38.0278L19.9244 36.8209C20.8219 38.3855 22.2546 39.4388 23.851 39.8796L15.8986 25.897L13.3296 27.4027L12.143 25.3164L14.712 23.8106L12.6355 20.1594L12.637 20.1586C10.3026 15.8616 11.7768 10.4394 15.9819 7.97479C16.6565 7.57942 17.3609 7.28389 18.0784 7.08369L15.9713 3.37866C6.47627 7.06798 0.578282 17.1795 2.40952 27.7223C4.2531 38.3361 13.3107 45.8193 23.5608 45.8916L23.5583 48C12.3194 47.9276 2.38572 39.7249 0.364511 28.0883ZM19.3341 9.29147C18.5946 9.42043 17.8646 9.682 17.1769 10.0851C14.0554 11.9146 12.9859 15.9665 14.7881 19.1353L14.792 19.133L16.7673 22.6061L20.364 20.498L21.5506 22.5844L17.9539 24.6924L26.67 40.0179C27.4095 39.889 28.1395 39.6274 28.8272 39.2243C31.9487 37.3948 33.0182 33.3429 31.216 30.1741L31.2121 30.1764L29.1775 26.599L25.5808 28.707L24.3942 26.6206L27.9909 24.5126L19.3341 9.29147Z" fill="white"/>
</svg>
