<svg width="40" height="40" viewBox="0 0 40 40" fill="none" xmlns="http://www.w3.org/2000/svg">
<path fill-rule="evenodd" clip-rule="evenodd" d="M0.303759 23.4069C-1.46807 13.2062 4.68337 3.44754 14.2702 0.637552L14.2708 0.639602L14.3343 0.602368L17.1982 5.63794C19.6979 5.69915 22.1074 7.04224 23.4491 9.40132L21.733 10.4071C20.9852 9.1032 19.7912 8.22548 18.4609 7.85816L25.0384 19.4234L27.1793 18.1686L28.1682 19.9073L26.0273 21.162L27.7577 24.2047L27.7576 24.2048C29.7711 27.7991 28.5513 32.3749 25.0185 34.4455C24.4563 34.775 23.8693 35.0212 23.2714 35.1881L24.7627 37.8104C33.7871 35.4383 39.6385 26.3776 37.9921 16.8985C36.4062 7.76822 28.4144 1.41793 19.5362 1.77099L19.469 0.0154304C29.1991 -0.372355 37.9582 6.5871 39.6962 16.5935C41.5929 27.5129 34.4106 37.9256 23.6542 39.851L23.6499 39.8261L23.6316 39.8368L21.1385 35.4532C18.6388 35.392 16.2294 34.0489 14.8877 31.6898L16.6037 30.6841C17.3516 31.988 18.5455 32.8657 19.8758 33.233L13.2489 21.5809L11.108 22.8356L10.1191 21.097L12.26 19.8422L10.5296 16.7995L10.5308 16.7988C8.58553 13.218 9.81403 8.69947 13.3183 6.64566C13.8804 6.31618 14.4674 6.06991 15.0654 5.90307L13.3094 2.81555C5.39689 5.88999 0.481901 14.3162 2.00793 23.1019C3.54425 31.9468 11.0923 38.1828 19.634 38.243L19.6319 40C10.2662 39.9397 1.9881 33.1041 0.303759 23.4069ZM16.1117 7.74289C15.4955 7.85036 14.8872 8.06834 14.3141 8.40424C11.7128 9.92882 10.8216 13.3054 12.3234 15.946L12.3267 15.9441L13.9727 18.8384L16.97 17.0817L17.9588 18.8204L14.9616 20.577L22.225 33.3483C22.8412 33.2408 23.4496 33.0228 24.0227 32.6869C26.6239 31.1623 27.5152 27.7858 26.0133 25.1451L26.0101 25.147L24.3146 22.1658L21.3173 23.9225L20.3285 22.1839L23.3257 20.4272L16.1117 7.74289Z" fill="white"/>
</svg>
