<svg width="140" height="62" viewBox="0 0 140 62" fill="none" xmlns="http://www.w3.org/2000/svg">
<path fill-rule="evenodd" clip-rule="evenodd" d="M44.7733 23.566H35.0879V29.3079H44.4964V33.8736H35.0879V43.2129H30.3147V19H44.7733V23.566Z" fill="white"/>
<path fill-rule="evenodd" clip-rule="evenodd" d="M48.0586 43.2126H52.5208V25.9178H48.0586V43.2126ZM50.2733 24.6695C49.535 24.6695 48.8949 24.3988 48.3535 23.8568C47.8113 23.3149 47.5404 22.6753 47.5404 21.937C47.5404 21.1992 47.8113 20.5532 48.3535 19.9999C48.8949 19.4464 49.535 19.1699 50.2733 19.1699C51.0342 19.1699 51.6855 19.4464 52.2277 19.9999C52.7691 20.5532 53.0403 21.1992 53.0403 21.937C53.0403 22.6753 52.7691 23.3149 52.2277 23.8568C51.6855 24.3988 51.0342 24.6695 50.2733 24.6695Z" fill="white"/>
<path fill-rule="evenodd" clip-rule="evenodd" d="M60.5807 30.5542C60.5807 31.0159 60.8861 31.3903 61.4974 31.6783C62.1083 31.967 62.8519 32.2203 63.7285 32.4395C64.6046 32.6589 65.4808 32.9355 66.3573 33.2695C67.2335 33.6041 67.9774 34.1635 68.5884 34.9472C69.1992 35.7314 69.5051 36.7111 69.5051 37.8873C69.5051 39.6633 68.8419 41.0294 67.5161 41.9862C66.1899 42.9426 64.5354 43.4217 62.5524 43.4217C59.0017 43.4217 56.5805 42.0503 55.2892 39.3068C55.2889 39.3061 55.2892 39.3052 55.29 39.3047L59.1621 37.1265C59.1623 37.1264 59.1624 37.1265 59.1626 37.1267C59.6696 38.6256 60.7999 39.3746 62.5524 39.3746C64.1437 39.3746 64.9394 38.8789 64.9394 37.8873C64.9394 37.4261 64.6333 37.0516 64.0225 36.7632C63.4113 36.475 62.6676 36.2157 61.7915 35.9848C60.9147 35.7545 60.0386 35.4658 59.1624 35.1199C58.2861 34.7743 57.5421 34.2265 56.9316 33.4769C56.3204 32.7279 56.0149 31.7881 56.0149 30.658C56.0149 28.9517 56.6427 27.6088 57.8999 26.6281C59.1565 25.6484 60.7192 25.1582 62.587 25.1582C63.9932 25.1582 65.2734 25.4754 66.4266 26.1093C67.5785 26.7437 68.489 27.6476 69.1579 28.8224C69.1587 28.8237 69.1583 28.8251 69.157 28.8257L65.3543 30.9001C64.8008 29.7239 63.8784 29.136 62.587 29.136C62.0103 29.136 61.5321 29.263 61.1514 29.5165C60.771 29.7706 60.5807 30.1162 60.5807 30.5542Z" fill="white"/>
<path fill-rule="evenodd" clip-rule="evenodd" d="M77.0303 38.0764C77.9409 38.9876 79.0883 39.4428 80.472 39.4428C81.8554 39.4428 82.9969 38.9876 83.8964 38.0764C84.7957 37.1658 85.2451 35.9958 85.2451 34.5658C85.2451 33.1362 84.7957 31.9659 83.8964 31.0546C82.9969 30.144 81.8554 29.6885 80.472 29.6885C79.0883 29.6885 77.9409 30.144 77.0303 31.0546C76.119 31.9659 75.6637 33.1362 75.6637 34.5658C75.6637 35.9958 76.119 37.1658 77.0303 38.0764ZM85.2442 19H89.7065V43.2129H85.2442V41.1725C85.2442 41.1723 85.2442 41.1723 85.244 41.1723C83.9297 42.8558 82.0619 43.6973 79.6407 43.6973C77.311 43.6973 75.3222 42.8152 73.6739 41.051C72.0249 39.2868 71.2006 37.1251 71.2006 34.5655C71.2006 32.0058 72.0249 29.8441 73.6739 28.0799C75.3222 26.3157 77.311 25.4337 79.6407 25.4337C82.0619 25.4337 83.9297 26.2759 85.244 27.9584C85.244 27.9586 85.2442 27.9586 85.2442 27.9584V19Z" fill="white"/>
<path fill-rule="evenodd" clip-rule="evenodd" d="M98.6808 37.7142C99.5683 38.6135 100.681 39.0631 102.019 39.0631C103.356 39.0631 104.475 38.6135 105.374 37.7142C106.273 36.8149 106.723 35.6736 106.723 34.2898C106.723 32.9062 106.273 31.7647 105.374 30.8656C104.475 29.9661 103.356 29.5164 102.019 29.5164C100.681 29.5164 99.5683 29.9661 98.6808 30.8656C97.7928 31.7647 97.3489 32.9062 97.3489 34.2898C97.3489 35.6736 97.7928 36.8149 98.6808 37.7142ZM108.523 40.7756C106.747 42.5396 104.579 43.4218 102.02 43.4218C99.46 43.4218 97.2981 42.5396 95.5339 40.7756C93.7697 39.0114 92.8876 36.8495 92.8876 34.2899C92.8876 31.7304 93.7697 29.5685 95.5339 27.8045C97.2981 26.0403 99.46 25.1582 102.02 25.1582C104.579 25.1582 106.747 26.0403 108.523 27.8045C110.298 29.5685 111.186 31.7304 111.186 34.2899C111.186 36.8495 110.298 39.0114 108.523 40.7756Z" fill="white"/>
<path fill-rule="evenodd" clip-rule="evenodd" d="M133.463 25.4336C135.446 25.4336 137.031 26.0796 138.219 27.3707C139.406 28.6624 140 30.3916 140 32.5591V43.2127H135.538V32.8702C135.538 31.8328 135.284 31.0258 134.777 30.4492C134.269 29.8732 133.554 29.5843 132.632 29.5843C131.617 29.5843 130.828 29.9189 130.263 30.5876C129.698 31.2565 129.415 32.2251 129.415 33.493V43.2127H124.953V32.8702C124.953 31.8328 124.699 31.0258 124.192 30.4492C123.685 29.8732 122.97 29.5843 122.048 29.5843C121.056 29.5843 120.266 29.9189 119.678 30.5876C119.09 31.2565 118.796 32.2251 118.796 33.493V43.2127H114.334V25.9179H118.796V27.7511C119.834 26.2063 121.436 25.4336 123.604 25.4336C125.726 25.4336 127.294 26.2639 128.308 27.9241C129.462 26.2639 131.18 25.4336 133.463 25.4336Z" fill="white"/>
<path fill-rule="evenodd" clip-rule="evenodd" d="M0 19.1699L10.3347 25.9219V43.1463L0 36.3944V19.1699Z" fill="white"/>
<mask id="mask0" style="mask-type:alpha" maskUnits="userSpaceOnUse" x="0" y="19" width="11" height="25">
<path fill-rule="evenodd" clip-rule="evenodd" d="M0 19.1699L10.3347 25.9219V43.1463L0 36.3944V19.1699Z" fill="white"/>
</mask>
<g mask="url(#mask0)">
</g>
<path fill-rule="evenodd" clip-rule="evenodd" d="M13.7797 26.0873L24.1143 19.1699V26.0321L13.7797 32.9495V26.0873Z" fill="white"/>
<mask id="mask1" style="mask-type:alpha" maskUnits="userSpaceOnUse" x="13" y="19" width="12" height="14">
<path fill-rule="evenodd" clip-rule="evenodd" d="M13.7797 26.0873L24.1143 19.1699V26.0321L13.7797 32.9495V26.0873Z" fill="white"/>
</mask>
<g mask="url(#mask1)">
</g>
<path fill-rule="evenodd" clip-rule="evenodd" d="M13.7797 36.4222L20.6694 31.7422V38.6044L13.7797 43.2844V36.4222Z" fill="white"/>
<mask id="mask2" style="mask-type:alpha" maskUnits="userSpaceOnUse" x="13" y="31" width="8" height="13">
<path fill-rule="evenodd" clip-rule="evenodd" d="M13.7797 36.4222L20.6694 31.7422V38.6044L13.7797 43.2844V36.4222Z" fill="white"/>
</mask>
<g mask="url(#mask2)">
</g>
</svg>
