<svg width="101" height="24" viewBox="0 0 101 24" fill="none" xmlns="http://www.w3.org/2000/svg">
<path fill-rule="evenodd" clip-rule="evenodd" d="M32.1406 6.27772H25.1879V10.3996H31.9418V13.6771H25.1879V20.3813H21.7615V3H32.1406V6.27772Z" fill="#1F0D50"/>
<path fill-rule="evenodd" clip-rule="evenodd" d="M34.5007 20.3816H37.7038V7.96647H34.5007V20.3816ZM36.0895 7.06997C35.5595 7.06997 35.1 6.87565 34.7113 6.48655C34.3221 6.09756 34.1277 5.63841 34.1277 5.10844C34.1277 4.5788 34.3221 4.11509 34.7113 3.71786C35.1 3.32052 35.5595 3.12207 36.0895 3.12207C36.6357 3.12207 37.1032 3.32052 37.4924 3.71786C37.8811 4.11509 38.0758 4.5788 38.0758 5.10844C38.0758 5.63841 37.8811 6.09756 37.4924 6.48655C37.1032 6.87565 36.6357 7.06997 36.0895 7.06997Z" fill="#1F0D50"/>
<path fill-rule="evenodd" clip-rule="evenodd" d="M43.4887 11.2934C43.4887 11.6248 43.7079 11.8937 44.1467 12.1004C44.5853 12.3076 45.119 12.4895 45.7483 12.6468C46.3772 12.8043 47.0062 13.0028 47.6354 13.2426C48.2644 13.4828 48.7984 13.8844 49.237 14.447C49.6755 15.0099 49.8951 15.7132 49.8951 16.5575C49.8951 17.8324 49.419 18.8131 48.4673 19.4999C47.5153 20.1865 46.3276 20.5304 44.9041 20.5304C42.3552 20.5304 40.6171 19.5459 39.6901 17.5765C39.6899 17.576 39.6901 17.5754 39.6907 17.575L42.4704 16.0114C42.4705 16.0113 42.4706 16.0114 42.4707 16.0115C42.8346 17.0875 43.646 17.6252 44.9041 17.6252C46.0464 17.6252 46.6175 17.2694 46.6175 16.5575C46.6175 16.2264 46.3978 15.9576 45.9594 15.7506C45.5206 15.5437 44.9867 15.3576 44.3579 15.1918C43.7284 15.0265 43.0996 14.8193 42.4706 14.5709C41.8415 14.3228 41.3074 13.9296 40.8692 13.3915C40.4304 12.8538 40.2111 12.1792 40.2111 11.3679C40.2111 10.1431 40.6618 9.17911 41.5643 8.47508C42.4663 7.77183 43.5881 7.41992 44.9289 7.41992C45.9383 7.41992 46.8573 7.64766 47.6852 8.10268C48.5121 8.55804 49.1657 9.20695 49.6459 10.0503C49.6464 10.0512 49.6461 10.0522 49.6452 10.0526L46.9154 11.5418C46.5181 10.6974 45.8559 10.2754 44.9289 10.2754C44.5149 10.2754 44.1717 10.3666 43.8984 10.5485C43.6253 10.7309 43.4887 10.9791 43.4887 11.2934Z" fill="#1F0D50"/>
<path fill-rule="evenodd" clip-rule="evenodd" d="M55.2952 16.6942C55.9489 17.3483 56.7726 17.6751 57.7658 17.6751C58.759 17.6751 59.5784 17.3483 60.2241 16.6942C60.8697 16.0405 61.1923 15.2006 61.1923 14.1741C61.1923 13.1479 60.8697 12.3078 60.2241 11.6536C59.5784 10.9999 58.759 10.673 57.7658 10.673C56.7726 10.673 55.9489 10.9999 55.2952 11.6536C54.6411 12.3078 54.3142 13.1479 54.3142 14.1741C54.3142 15.2006 54.6411 16.0405 55.2952 16.6942ZM61.1929 3H64.3962V20.3813H61.1929V18.9166C61.1929 18.9165 61.1929 18.9165 61.1928 18.9165C60.2493 20.125 58.9085 20.729 57.1705 20.729C55.4981 20.729 54.0704 20.0958 52.8872 18.8294C51.7035 17.563 51.1117 16.0111 51.1117 14.1738C51.1117 12.3363 51.7035 10.7844 52.8872 9.51803C54.0704 8.25162 55.4981 7.61842 57.1705 7.61842C58.9085 7.61842 60.2493 8.223 61.1928 9.43084C61.1928 9.43095 61.1929 9.43095 61.1929 9.43084V3Z" fill="#1F0D50"/>
<path fill-rule="evenodd" clip-rule="evenodd" d="M70.84 16.434C71.4771 17.0796 72.276 17.4023 73.2361 17.4023C74.1961 17.4023 74.9992 17.0796 75.6448 16.434C76.2903 15.7885 76.613 14.9692 76.613 13.9758C76.613 12.9826 76.2903 12.1632 75.6448 11.5177C74.9992 10.872 74.1961 10.5492 73.2361 10.5492C72.276 10.5492 71.4771 10.872 70.84 11.5177C70.2026 12.1632 69.884 12.9826 69.884 13.9758C69.884 14.9692 70.2026 15.7885 70.84 16.434ZM77.9043 18.6309C76.6295 19.8972 75.0735 20.5305 73.2361 20.5305C71.3987 20.5305 69.8467 19.8972 68.5803 18.6309C67.3139 17.3645 66.6807 15.8125 66.6807 13.9752C66.6807 12.1378 67.3139 10.5858 68.5803 9.31954C69.8467 8.05313 71.3987 7.41992 73.2361 7.41992C75.0735 7.41992 76.6295 8.05313 77.9043 9.31954C79.1787 10.5858 79.8163 12.1378 79.8163 13.9752C79.8163 15.8125 79.1787 17.3645 77.9043 18.6309Z" fill="#1F0D50"/>
<path fill-rule="evenodd" clip-rule="evenodd" d="M95.8071 7.61914C97.2305 7.61914 98.3684 8.08285 99.2212 9.00972C100.074 9.93692 100.5 11.1783 100.5 12.7342V20.3819H97.2968V12.9575C97.2968 12.2128 97.1145 11.6335 96.7505 11.2196C96.3862 10.8061 95.8729 10.5987 95.2109 10.5987C94.4824 10.5987 93.9155 10.839 93.5102 11.3189C93.1043 11.7991 92.9017 12.4945 92.9017 13.4046V20.3819H89.6984V12.9575C89.6984 12.2128 89.5162 11.6335 89.1523 11.2196C88.7879 10.8061 88.2747 10.5987 87.6128 10.5987C86.9008 10.5987 86.334 10.839 85.9119 11.3189C85.4897 11.7991 85.2787 12.4945 85.2787 13.4046V20.3819H82.0754V7.96681H85.2787V9.28278C86.0236 8.17384 87.174 7.61914 88.7302 7.61914C90.2531 7.61914 91.3786 8.21515 92.1071 9.40695C92.9349 8.21515 94.1681 7.61914 95.8071 7.61914Z" fill="#1F0D50"/>
<path fill-rule="evenodd" clip-rule="evenodd" d="M0 3.12207L7.41875 7.96899V20.3336L0 15.4867V3.12207Z" fill="url(#paint0_linear)"/>
<mask id="mask0" style="mask-type:alpha" maskUnits="userSpaceOnUse" x="0" y="3" width="8" height="18">
<path fill-rule="evenodd" clip-rule="evenodd" d="M0 3.12207L7.41875 7.96899V20.3336L0 15.4867V3.12207Z" fill="white"/>
</mask>
<g mask="url(#mask0)">
<path fill-rule="evenodd" clip-rule="evenodd" d="M2.17676 1.3418L9.59551 6.18872V18.5533L2.17676 13.7064V1.3418Z" fill="url(#paint1_linear)"/>
</g>
<path fill-rule="evenodd" clip-rule="evenodd" d="M9.89124 8.08769L17.31 3.12207V8.04812L9.89124 13.0137V8.08769Z" fill="url(#paint2_linear)"/>
<mask id="mask1" style="mask-type:alpha" maskUnits="userSpaceOnUse" x="9" y="3" width="9" height="11">
<path fill-rule="evenodd" clip-rule="evenodd" d="M9.89124 8.08769L17.31 3.12207V8.04812L9.89124 13.0137V8.08769Z" fill="white"/>
</mask>
<g mask="url(#mask1)">
<path fill-rule="evenodd" clip-rule="evenodd" d="M7.91296 7.09843L15.3317 2.13281V7.05887L7.91296 12.0245V7.09843Z" fill="url(#paint3_linear)"/>
</g>
<path fill-rule="evenodd" clip-rule="evenodd" d="M9.89124 15.5061L14.8371 12.1465V17.0725L9.89124 20.4321V15.5061Z" fill="url(#paint4_linear)"/>
<mask id="mask2" style="mask-type:alpha" maskUnits="userSpaceOnUse" x="9" y="12" width="6" height="9">
<path fill-rule="evenodd" clip-rule="evenodd" d="M9.89124 15.5061L14.8371 12.1465V17.0725L9.89124 20.4321V15.5061Z" fill="white"/>
</mask>
<g mask="url(#mask2)">
<path fill-rule="evenodd" clip-rule="evenodd" d="M8.70422 14.2209L13.6501 10.8613V15.7874L8.70422 19.147V14.2209Z" fill="url(#paint5_linear)"/>
</g>
<defs>
<linearGradient id="paint0_linear" x1="7.99557" y1="4.55943" x2="0.877678" y2="4.05112" gradientUnits="userSpaceOnUse">
<stop stop-color="#8F6AFF"/>
<stop offset="1" stop-color="#6434DF"/>
</linearGradient>
<linearGradient id="paint1_linear" x1="8.67568" y1="3.04352" x2="2.28009" y2="2.94909" gradientUnits="userSpaceOnUse">
<stop stop-color="#8F6AFF"/>
<stop offset="1" stop-color="#6434DF"/>
</linearGradient>
<linearGradient id="paint2_linear" x1="14.499" y1="-0.58636" x2="4.0969" y2="4.20402" gradientUnits="userSpaceOnUse">
<stop stop-color="#25D053"/>
<stop offset="1" stop-color="#47E37E"/>
</linearGradient>
<linearGradient id="paint3_linear" x1="16.395" y1="3.09518" x2="8.1349" y2="3.4692" gradientUnits="userSpaceOnUse">
<stop stop-color="#1EB646"/>
<stop offset="1" stop-color="#47E37E"/>
</linearGradient>
<linearGradient id="paint4_linear" x1="14.1542" y1="11.2955" x2="8.97206" y2="12.1497" gradientUnits="userSpaceOnUse">
<stop stop-color="#8534F2"/>
<stop offset="1" stop-color="#BA74FF"/>
</linearGradient>
<linearGradient id="paint5_linear" x1="11.1203" y1="9.22174" x2="3.67174" y2="10.8145" gradientUnits="userSpaceOnUse">
<stop stop-color="#8534F2"/>
<stop offset="1" stop-color="#BA74FF"/>
</linearGradient>
</defs>
</svg>
