<svg width="80" height="18" viewBox="0 0 80 18" fill="none" xmlns="http://www.w3.org/2000/svg">
<g clip-path="url(#clip0)">
<path d="M38.109 6.5841C36.6264 5.14352 34.5915 5.835 34.5915 5.835C32.2077 6.55529 32.6873 8.96105 32.6873 8.96105C33.2833 10.7762 35.1583 10.9779 35.1583 10.9779C34.9694 10.272 35.449 9.8398 35.449 9.8398C35.013 9.72455 34.4752 9.43644 34.4752 9.43644C32.6292 7.89502 34.9985 6.81459 34.9985 6.81459C37.5567 6.16633 38.109 7.89502 38.109 7.89502C38.4288 7.5925 38.109 6.5841 38.109 6.5841Z" fill="#4F2DA7"/>
<path d="M39.548 12.0007C39.1556 10.5169 36.67 10.1135 36.67 10.1135C35.9869 9.89742 35.8124 10.4592 35.8124 10.4592C35.6671 11.2948 36.5683 11.266 36.5683 11.266C37.1352 11.3812 37.6584 11.6117 37.6584 11.6117C38.6178 11.9286 38.4724 13.0379 38.4724 13.0379C37.9491 14.8098 35.7688 14.5793 35.7688 14.5793C33.8502 14.3632 33.7484 12.9803 33.7484 12.9803C33.574 13.6285 33.7484 14.8098 33.7484 14.8098C36.9171 16.9418 38.9957 14.4641 38.9957 14.4641C39.9114 13.6141 39.548 12.0007 39.548 12.0007Z" fill="#4F2DA7"/>
<path d="M24.1696 5.71975H22.3236C22.1347 5.71975 21.9748 5.87822 21.9748 6.06549V6.56969C21.9748 6.75697 22.1347 6.91543 22.3236 6.91543H24.1551C24.344 6.91543 24.5039 6.75697 24.5039 6.56969V6.06549C24.5184 5.87822 24.3586 5.71975 24.1696 5.71975Z" fill="#4F2DA7"/>
<path d="M38.9812 5.60451H38.4579C38.2689 5.60451 38.109 5.76297 38.109 5.95025V8.62972C38.109 8.81699 38.2689 8.97545 38.4579 8.97545H38.9666C39.1556 8.97545 39.3155 8.81699 39.3155 8.62972V5.96465C39.33 5.76297 39.1701 5.60451 38.9812 5.60451Z" fill="#4F2DA7"/>
<path d="M24.5766 1.26837C24.5766 1.26837 22.6725 0.922636 21.8149 1.95985C21.8149 1.95985 21.0445 2.5937 20.9573 4.01987V5.73416H19.9253C19.9253 5.73416 19.3875 5.835 19.4602 6.48326C19.4602 6.48326 19.4747 6.87221 19.9253 6.94424H20.9573V14.5937H19.9834C19.9834 14.5937 19.1695 15.1267 19.9834 15.6741H23.7336C23.7336 15.6741 24.5185 15.0547 23.7336 14.5937H22.1492V7.31879C22.1492 7.31879 21.4806 7.20355 21.4515 6.35361C21.4515 6.35361 21.3934 5.61891 22.1492 5.38842V3.55889C22.1492 3.55889 22.6289 1.91663 24.5185 2.5937C24.5185 2.5937 25.2452 2.76657 25.3906 2.01747C25.3761 2.01747 25.5069 1.41243 24.5766 1.26837Z" fill="#4F2DA7"/>
<path d="M33.385 12.2888H32.8763C32.6873 12.2888 32.5275 12.4472 32.5275 12.6345V15.314C32.5275 15.5013 32.6873 15.6597 32.8763 15.6597H33.385C33.574 15.6597 33.7339 15.5013 33.7339 15.314V12.6345C33.7339 12.4472 33.574 12.2888 33.385 12.2888Z" fill="#4F2DA7"/>
<path d="M28.0942 4.69695C28.8247 4.69695 29.4169 4.11003 29.4169 3.38602C29.4169 2.66202 28.8247 2.0751 28.0942 2.0751C27.3637 2.0751 26.7715 2.66202 26.7715 3.38602C26.7715 4.11003 27.3637 4.69695 28.0942 4.69695Z" fill="#4F2DA7"/>
<path d="M28.5448 5.71976H26.8878C26.6988 5.71976 26.5389 5.87822 26.5389 6.0655V6.5697C26.5389 6.75697 26.6988 6.91544 26.8878 6.91544H28.5448C28.7337 6.91544 28.8936 6.75697 28.8936 6.5697V6.0655C28.8936 5.87822 28.7337 5.71976 28.5448 5.71976Z" fill="#4F2DA7"/>
<path d="M28.8936 6.41123H27.6872V14.853H28.8936V6.41123Z" fill="#4F2DA7"/>
<path d="M29.6931 14.4641H26.8878C26.6988 14.4641 26.5389 14.6225 26.5389 14.8098V15.314C26.5389 15.5013 26.6988 15.6597 26.8878 15.6597H29.7076C29.8966 15.6597 30.0565 15.5013 30.0565 15.314V14.8098C30.0419 14.6081 29.8966 14.4641 29.6931 14.4641Z" fill="#4F2DA7"/>
<path d="M49.9845 1.21075H48.3274C48.1385 1.21075 47.9786 1.36922 47.9786 1.55649V2.06069C47.9786 2.24797 48.1385 2.40643 48.3274 2.40643H49.9845C50.1734 2.40643 50.3333 2.24797 50.3333 2.06069V1.55649C50.3333 1.36922 50.1734 1.21075 49.9845 1.21075Z" fill="#4F2DA7"/>
<path d="M50.6676 14.464H50.3188V2.0751H49.0833L49.0397 7.66453C49.0397 7.66453 48.0222 5.95025 45.9291 5.74857H44.6645C44.6645 5.74857 41.1179 6.22396 40.5801 10.0127C40.5801 10.0127 40.1585 12.721 42.0772 14.464C42.0772 14.464 44.1267 16.6825 47.1501 15.4869C47.1501 15.4869 48.6617 14.7234 49.2868 13.715C49.2868 13.715 49.7519 13.4845 49.2286 12.9082C49.2286 12.9082 48.7635 12.5625 48.371 12.9659C48.371 12.9659 47.4698 14.6081 45.4349 14.6801C45.4349 14.6801 43.2691 14.6801 42.2662 12.7354C42.2662 12.7354 40.2748 9.0763 43.9959 7.20355C43.9959 7.20355 45.871 6.29599 47.6297 7.72216C47.6297 7.72216 49.8827 9.30679 48.8943 12.1735C48.8943 12.1735 50.3769 12.3608 49.9263 13.8302C49.9263 13.8302 49.5775 14.3488 49.1123 14.853C49.1123 14.853 49.0542 15.458 49.4612 15.6597H50.7839C50.7839 15.6597 51.6996 14.9106 50.6676 14.464Z" fill="#4F2DA7"/>
<path d="M72.616 14.4641H70.2031C70.0142 14.4641 69.8543 14.6225 69.8543 14.8098V15.314C69.8543 15.5013 70.0142 15.6597 70.2031 15.6597H72.616C72.805 15.6597 72.9649 15.5013 72.9649 15.314V14.8098C72.9649 14.6081 72.8195 14.4641 72.616 14.4641Z" fill="#4F2DA7"/>
<path d="M79.6511 14.4641H77.2383C77.0493 14.4641 76.8894 14.6225 76.8894 14.8098V15.314C76.8894 15.5013 77.0493 15.6597 77.2383 15.6597H79.6511C79.8401 15.6597 80 15.5013 80 15.314V14.8098C80 14.6081 79.8401 14.4641 79.6511 14.4641Z" fill="#4F2DA7"/>
<path d="M64.0401 7.26117C64.3309 6.62732 64.9559 6.29598 64.9559 6.29598C64.9849 5.84941 64.5489 5.69094 64.5489 5.69094H63.1099C62.1069 6.44004 63.168 6.91543 63.168 6.91543H63.7494V14.4496H64.9559V9.26357C64.9849 9.0763 65.1303 8.62972 65.1303 8.62972C63.793 8.50006 64.0401 7.26117 64.0401 7.26117Z" fill="#4F2DA7"/>
<path d="M78.968 8.80259C78.968 8.80259 78.6337 6.65613 76.5987 6.06549C76.5987 6.06549 73.4591 4.65373 71.3514 7.49166C71.3514 7.49166 69.7089 4.52408 65.9007 6.23836C65.9007 6.23836 65.014 6.5985 64.5489 7.31879C64.5489 7.31879 64.4035 8.16873 65.3483 8.12551C65.3483 8.12551 66.4094 7.0739 67.2525 6.98746C67.2525 6.98746 69.5781 6.49766 70.5375 8.52888C70.5375 8.52888 70.6973 8.8458 70.77 9.10511V14.4785H71.9765V9.43644C71.9765 9.43644 71.9038 8.50007 72.6741 7.77978C72.6741 7.77978 74.1277 6.29598 76.4824 7.26117C76.4824 7.26117 77.4563 7.54928 77.747 8.86021L77.8051 14.4496H79.0116L78.968 8.80259Z" fill="#4F2DA7"/>
<path d="M65.5955 14.4641H63.1826C62.9936 14.4641 62.8337 14.6225 62.8337 14.8098V15.314C62.8337 15.5013 62.9936 15.6597 63.1826 15.6597H65.5955C65.7844 15.6597 65.9443 15.5013 65.9443 15.314V14.8098C65.9443 14.6081 65.7844 14.4641 65.5955 14.4641Z" fill="#4F2DA7"/>
<path d="M61.3075 11.7846C60.9732 11.7846 60.7552 11.6981 60.6534 11.6549C60.6098 11.8422 60.5517 12.0295 60.479 12.2167C60.1301 13.1531 59.3743 13.8878 58.444 14.2336C55.2463 15.4292 52.2665 12.4761 53.4729 9.30679C53.8218 8.37041 54.5776 7.63572 55.5079 7.28998C58.2841 6.25277 60.886 8.3416 60.7406 10.9779C61.104 11.266 61.4819 11.2228 61.9616 10.8338L61.9761 10.8194C61.9761 10.7906 61.9761 10.7762 61.9761 10.7474C61.9761 7.99586 59.7377 5.77738 56.9614 5.77738C54.1852 5.77738 51.9613 8.01027 51.9613 10.7618C51.9613 13.5133 54.1997 15.7318 56.976 15.7318C59.4179 15.7318 61.4674 13.9887 61.9035 11.6981C61.7872 11.727 61.5837 11.7846 61.3075 11.7846Z" fill="#4F2DA7"/>
<path fill-rule="evenodd" clip-rule="evenodd" d="M0.131225 10.0217C-0.634213 5.65425 2.02324 1.47607 6.16478 0.272969L6.16504 0.273847L6.19248 0.257905L7.4297 2.4139C8.50959 2.4401 9.55049 3.01515 10.1301 4.0252L9.38878 4.45582C9.06569 3.89756 8.5499 3.52176 7.9752 3.36449L10.8167 8.31616L11.7416 7.77893L12.1688 8.52334L11.2439 9.06057L11.9915 10.3633C12.8613 11.9022 12.3343 13.8614 10.8081 14.7479C10.5652 14.889 10.3117 14.9944 10.0533 15.0659L10.6976 16.1886C14.5962 15.173 17.124 11.2936 16.4128 7.23514C15.7276 3.32598 12.2751 0.60709 8.43973 0.758254L8.41068 0.00660655C12.6142 -0.159425 16.3981 2.82028 17.149 7.10453C17.9683 11.7797 14.8656 16.2379 10.2187 17.0623L10.2168 17.0516L10.209 17.0562L9.13195 15.1794C8.05206 15.1532 7.01116 14.5781 6.43154 13.5681L7.17287 13.1375C7.49596 13.6957 8.01175 14.0715 8.58645 14.2288L5.72357 9.2399L4.79869 9.77713L4.37151 9.03272L5.29639 8.49549L4.54882 7.19277L4.54936 7.19245C3.70899 5.65932 4.23971 3.7247 5.75355 2.84535C5.9964 2.70429 6.24998 2.59885 6.50831 2.52742L5.74972 1.20548C2.33148 2.52181 0.208184 6.12953 0.867437 9.89114C1.53113 13.6781 4.79191 16.348 8.48199 16.3738L8.48107 17.1261C4.43504 17.1003 0.85887 14.1736 0.131225 10.0217ZM6.96035 3.31514C6.69413 3.36115 6.43133 3.45448 6.18374 3.5983C5.05999 4.25105 4.67497 5.69674 5.32376 6.82734L5.32518 6.82652L6.03629 8.0657L7.33111 7.31357L7.7583 8.05799L6.46347 8.81011L9.60131 14.2781C9.86752 14.2321 10.1303 14.1388 10.3779 13.995C11.5017 13.3422 11.8867 11.8965 11.2379 10.7659L11.2365 10.7668L10.504 9.49036L9.20918 10.2425L8.782 9.49807L10.0768 8.74595L6.96035 3.31514Z" fill="#4F2DA7"/>
</g>
<defs>
<clipPath id="clip0">
<rect width="80" height="17.1261" fill="white"/>
</clipPath>
</defs>
</svg>
