<svg width="20" height="17" viewBox="0 0 20 17" fill="none" xmlns="http://www.w3.org/2000/svg">
<path fill-rule="evenodd" clip-rule="evenodd" d="M2.20148 8.22321H3.27566C3.31852 9.19375 3.57766 10.1349 4.0293 10.985L3.0998 11.5113C2.95969 11.5907 2.91168 11.7664 2.99258 11.9038C3.07434 12.0427 3.2548 12.0873 3.39277 12.009L4.32266 11.4824C4.51965 11.7854 4.74258 12.074 4.99062 12.3449C5.09906 12.4633 5.28434 12.4724 5.40434 12.3667C5.52473 12.2606 5.53465 12.079 5.42656 11.9609C4.40594 10.8466 3.85508 9.44511 3.85508 7.93576C3.85508 4.6126 6.61168 1.90901 10 1.90901C11.5426 1.90901 13.0205 2.4766 14.1498 3.49089C14.2691 3.59804 14.4544 3.59011 14.5637 3.47311C14.673 3.35611 14.6649 3.17436 14.5456 3.06713C14.2548 2.80588 13.9436 2.57245 13.6162 2.36756L14.153 1.45568C14.2339 1.31825 14.1859 1.14252 14.0457 1.06318C13.9056 0.983834 13.7264 1.03088 13.6455 1.16834L13.109 2.07988C12.2427 1.63693 11.2837 1.38277 10.293 1.34082V0.287335C10.293 0.128611 10.1618 0 10 0C9.8382 0 9.70703 0.128611 9.70703 0.287335V1.34101C8.69531 1.38373 7.74086 1.64647 6.89207 2.08164L6.35445 1.16838C6.27355 1.03096 6.09437 0.983911 5.95426 1.06322C5.81414 1.14256 5.76613 1.31829 5.84703 1.45571L6.38496 2.36955C5.55773 2.88814 4.85328 3.57908 4.32453 4.3904L3.39273 3.86281C3.25258 3.78351 3.07344 3.83048 2.99254 3.96798C2.91164 4.1054 2.95965 4.28113 3.09977 4.36048L4.03098 4.88776C3.58727 5.72018 3.31941 6.65628 3.27586 7.64854H2.20148C2.03969 7.64854 1.90852 7.77715 1.90852 7.93588C1.90852 8.0946 2.03969 8.22321 2.20148 8.22321ZM19.707 15.5161C18.8311 15.5161 18.3692 15.7348 17.9617 15.9278C17.5768 16.1101 17.2131 16.2823 16.4712 16.2823C15.7293 16.2823 15.3657 16.1101 14.9807 15.9278C14.5732 15.7348 14.1114 15.5161 13.2354 15.5161C12.3595 15.5161 11.8976 15.7348 11.4902 15.9278L11.4901 15.9278C11.1052 16.1101 10.7416 16.2823 9.99973 16.2823C9.25791 16.2823 8.89431 16.1101 8.50936 15.9278L8.50934 15.9278C8.10191 15.7348 7.64008 15.5161 6.76418 15.5161C5.88824 15.5161 5.42641 15.7348 5.01895 15.9278C4.63402 16.1101 4.27043 16.2823 3.52855 16.2823C2.78668 16.2823 2.42309 16.1101 2.03816 15.9278L2.03813 15.9278C1.63068 15.7348 1.16888 15.5161 0.292969 15.5161C0.131172 15.5161 0 15.6447 0 15.8034C0 15.9621 0.131172 16.0907 0.292969 16.0907C1.03484 16.0907 1.39844 16.263 1.78336 16.4453L1.78339 16.4453C2.19085 16.6383 2.65264 16.857 3.52855 16.857C4.40447 16.857 4.86626 16.6383 5.27372 16.4453L5.27375 16.4453L5.27377 16.4453C5.65872 16.263 6.02232 16.0907 6.76418 16.0907C7.50605 16.0907 7.86965 16.263 8.25457 16.4453L8.2546 16.4453C8.66206 16.6383 9.12385 16.857 9.99973 16.857C10.8757 16.857 11.3375 16.6383 11.745 16.4453L11.745 16.4453C12.1299 16.263 12.4935 16.0907 13.2354 16.0907C13.9773 16.0907 14.3409 16.263 14.7259 16.4453C15.1334 16.6383 15.5952 16.857 16.4712 16.857C17.3472 16.857 17.8091 16.6383 18.2165 16.4453C18.6015 16.263 18.9651 16.0907 19.707 16.0907C19.8688 16.0907 20 15.9621 20 15.8034C20 15.6447 19.8688 15.5161 19.707 15.5161ZM1.78336 13.5719C1.39844 13.3896 1.03484 13.2174 0.292969 13.2174C0.131172 13.2174 0 13.0888 0 12.9301C0 12.7713 0.131172 12.6427 0.292969 12.6427C1.16888 12.6427 1.63068 12.8614 2.03813 13.0544L2.03816 13.0544C2.42309 13.2367 2.78668 13.409 3.52855 13.409C4.27043 13.409 4.63402 13.2367 5.01895 13.0544C5.42641 12.8614 5.88824 12.6427 6.76418 12.6427C7.64008 12.6427 8.10191 12.8614 8.50937 13.0545L8.50939 13.0545C8.89435 13.2368 9.25794 13.409 9.99977 13.409C10.7416 13.409 11.1052 13.2368 11.4902 13.0545L11.4902 13.0545C11.8977 12.8615 12.3595 12.6428 13.2354 12.6428C13.4434 12.6428 13.6277 12.6552 13.7938 12.6766C15.2727 11.5358 16.1449 9.78524 16.1449 7.93584C16.1449 6.54683 15.7034 5.32385 14.8756 4.26719C14.777 4.14134 14.8011 3.96097 14.9294 3.86427C15.0578 3.76761 15.2416 3.79121 15.3402 3.91706C15.4604 4.07046 15.5729 4.22796 15.678 4.38898L16.6072 3.86281C16.7473 3.78355 16.9265 3.83052 17.0074 3.96798C17.0883 4.1054 17.0403 4.28113 16.9002 4.36048L15.972 4.88603C16.4264 5.73738 16.6825 6.67318 16.7245 7.64854H17.7985C17.9603 7.64854 18.0914 7.77716 18.0914 7.93588C18.0914 8.0946 17.9603 8.22321 17.7985 8.22321H16.724C16.6824 9.19463 16.4297 10.1226 15.9706 10.9849L16.9002 11.5113C17.0403 11.5907 17.0883 11.7664 17.0074 11.9038C16.9257 12.0427 16.7449 12.0871 16.6072 12.009L15.6768 11.4821C15.3489 11.985 14.9509 12.4457 14.4981 12.8458C14.6775 12.9109 14.8328 12.9844 14.9807 13.0544C15.3657 13.2367 15.7293 13.409 16.4712 13.409C17.2131 13.409 17.5768 13.2367 17.9617 13.0544C18.3692 12.8614 18.8311 12.6427 19.707 12.6427C19.8688 12.6427 20 12.7713 20 12.9301C20 13.0888 19.8688 13.2174 19.707 13.2174C18.9651 13.2174 18.6015 13.3896 18.2165 13.5719C17.8091 13.7649 17.3472 13.9836 16.4712 13.9836C15.5952 13.9836 15.1334 13.7649 14.7259 13.5719C14.3409 13.3896 13.9773 13.2174 13.2354 13.2174C12.4935 13.2174 12.1299 13.3896 11.745 13.5719L11.745 13.5719C11.3375 13.7649 10.8757 13.9836 9.99973 13.9836C9.12385 13.9836 8.66206 13.7649 8.2546 13.5719L8.25457 13.5719C7.86965 13.3896 7.50605 13.2174 6.76418 13.2174C6.02232 13.2174 5.65872 13.3896 5.27377 13.5719L5.27375 13.5719L5.27372 13.5719C4.86627 13.7649 4.40447 13.9836 3.52855 13.9836C2.65264 13.9836 2.19084 13.7649 1.78339 13.5719L1.78336 13.5719Z" fill="#4F2DA7"/>
<path d="M11.2453 6.78862H10.6536C10.6141 6.44734 10.4474 6.20149 10.2324 6.05143H11.2453C11.2938 6.05143 11.3334 6.01355 11.3334 5.96802C11.3334 5.92249 11.2938 5.88461 11.2453 5.88461H8.75401C8.70621 5.88461 8.66669 5.92249 8.66669 5.96802C8.66669 6.01355 8.70621 6.05143 8.75401 6.05143H9.81315C10.0962 6.10133 10.418 6.32569 10.4782 6.78862H8.75401C8.70621 6.78862 8.66669 6.82614 8.66669 6.87203C8.66669 6.91792 8.70621 6.95544 8.75401 6.95544H10.4891C10.4854 7.18781 10.4022 7.37575 10.2388 7.51452C9.77588 7.90716 8.83041 7.807 8.821 7.80627C8.786 7.80263 8.75024 7.81975 8.73331 7.85034C8.71675 7.88057 8.72126 7.91809 8.74422 7.94395L10.4071 9.77892C10.424 9.79822 10.4485 9.80769 10.4737 9.80769C10.4936 9.80769 10.514 9.80077 10.5309 9.78729C10.5674 9.75743 10.5716 9.70461 10.5399 9.66928L9.01296 7.98474C9.34229 7.99312 9.97311 7.96252 10.3544 7.63982C10.5573 7.46827 10.66 7.23771 10.6638 6.95544H11.2445C11.2931 6.95544 11.3326 6.91829 11.3326 6.87203C11.3326 6.82577 11.2938 6.78862 11.2453 6.78862Z" fill="#D6AF09" stroke="#D6AF09" stroke-width="0.5"/>
<path fill-rule="evenodd" clip-rule="evenodd" d="M6 7.84616C6 10.0093 7.79446 11.7692 10 11.7692C12.2055 11.7692 14 10.0093 14 7.84616C14 5.68303 12.2055 3.92308 10 3.92308C7.79446 3.92308 6 5.68303 6 7.84616ZM6.61538 7.84616C6.61538 6.01559 8.13354 4.52663 10 4.52663C11.8665 4.52663 13.3846 6.01559 13.3846 7.84616C13.3846 9.67673 11.8665 11.1657 10 11.1657C8.13354 11.1657 6.61538 9.67673 6.61538 7.84616Z" fill="#4F2DA7"/>
</svg>
