<svg width="54" height="54" viewBox="0 0 54 54" fill="none" xmlns="http://www.w3.org/2000/svg">
<path d="M19.6728 8.00007C17.4201 8.00007 15.5939 9.85003 15.5939 12.1321V22.2744C15.5939 22.8968 16.092 23.4014 16.7063 23.4014H19.4507C19.9829 23.4014 20.4144 23.8328 20.4144 24.365V25.0917C20.4144 26.6477 21.6594 27.909 23.1954 27.909C24.7313 27.909 25.9764 26.6477 25.9764 25.0917V24.6059C25.9764 23.9406 26.5157 23.4014 27.181 23.4014H29.5923C30.2575 23.4014 30.7968 22.8621 30.7968 22.1968V18.7903C30.7968 18.6027 30.6525 18.4466 30.4655 18.432L29.178 18.3312C28.2689 18.26 27.4525 17.7476 26.993 16.9599L26.9027 16.805C26.458 16.0426 26.4538 15.101 26.8917 14.3347C27.2689 13.6748 27.9289 13.2252 28.6811 13.1158L30.4384 12.8604C30.6442 12.8305 30.7968 12.654 30.7968 12.4461V8.00007H19.6728Z" fill="#DFD8EF"/>
<path d="M41.9209 8.00007H30.7968V11.6789C30.7968 12.3441 30.2575 12.8834 29.5922 12.8834H29.1282C27.5922 12.8834 26.3472 14.1447 26.3472 15.7007C26.3472 17.2567 27.5922 18.518 29.1282 18.518H29.8729C30.3832 18.518 30.7968 18.9316 30.7968 19.4419V22.2753C30.7968 22.8972 31.301 23.4014 31.9229 23.4014H34.3214C35.0698 23.4014 35.6766 22.7946 35.6766 22.0462C35.6766 21.9781 35.6817 21.91 35.6919 21.8427L35.7625 21.3782C35.8604 20.7332 36.1769 20.1413 36.6591 19.7018L36.694 19.6699C36.962 19.4255 37.2779 19.2394 37.6216 19.1234C38.2047 18.9264 38.8386 18.941 39.4121 19.1645L39.5127 19.2036C39.8766 19.3454 40.2003 19.5741 40.4556 19.8697C40.7445 20.2041 40.9352 20.6121 41.0066 21.0483L41.1157 21.7147C41.1284 21.7922 41.1348 21.8707 41.1348 21.9492C41.1348 22.7512 41.7849 23.4014 42.5869 23.4014H45.9997V12.1321C45.9997 9.85003 44.1736 8.00007 41.9209 8.00007Z" fill="#A998D2"/>
<path d="M12.0788 45.9999H22.0904C22.7048 45.9999 23.2028 45.4954 23.2028 44.873V42.3211C23.2028 41.6559 23.7421 41.1166 24.4074 41.1166H24.8715C26.4074 41.1166 27.6525 39.8553 27.6525 38.2993C27.6525 36.7433 26.4074 35.482 24.8715 35.482H24.1665C23.6343 35.482 23.2028 35.0505 23.2028 34.5183V31.7256C23.2028 31.1032 22.7048 30.5986 22.0904 30.5986H19.4948C18.8805 30.5986 18.3824 31.1032 18.3824 31.7256V32.289C18.3824 33.845 17.1373 35.1063 15.6014 35.1063C14.0655 35.1063 12.8204 33.845 12.8204 32.289V31.7256C12.8204 31.1032 12.3223 30.5986 11.708 30.5986H9.11235C8.498 30.5986 7.99994 31.1032 7.99994 31.7256V41.8679C7.99994 44.15 9.82607 45.9999 12.0788 45.9999Z" fill="#5F40AF"/>
<path d="M35.6172 21.4704C35.6172 22.404 34.8604 23.1608 33.9269 23.1608H31.7609C31.2285 23.1608 30.7968 23.5925 30.7968 24.1249V26.9172C30.7968 27.5396 31.2949 28.0442 31.9092 28.0442H32.4654C34.0014 28.0442 35.2464 29.3055 35.2464 30.8615C35.2464 32.4174 34.0014 33.6788 32.4654 33.6788H31.9092C31.2949 33.6788 30.7968 34.1833 30.7968 34.8057V37.4352C30.7968 38.0575 31.2949 38.5621 31.9092 38.5621H41.9209C44.1736 38.5621 45.9997 36.7122 45.9997 34.4301V23.1608H42.8697C41.9361 23.1608 41.1793 22.404 41.1793 21.4704C41.1793 19.9145 39.9342 18.6531 38.3983 18.6531C36.8623 18.6531 35.6172 19.9145 35.6172 21.4704Z" fill="#DFD8EF"/>
<path d="M9.99988 10.0986H14.3367V11.2407H11.5656V15.0479H13.7132V16.1759H11.5656V21.52H9.99988V10.0986Z" fill="#5F40AF"/>
<path d="M15.4123 10.0986H18.1973C19.1672 10.0986 19.8693 10.3665 20.3034 10.9023C20.7468 11.4381 20.9685 12.2231 20.9685 13.2571C20.9685 14.1877 20.7329 14.9116 20.2618 15.4286C19.7907 15.9456 19.1072 16.2041 18.2112 16.2041H16.978V21.52H15.4123V10.0986ZM17.6985 15.062C18.1604 15.062 18.516 15.0103 18.7654 14.9069C19.0241 14.8035 19.2088 14.6249 19.3196 14.371C19.4305 14.1172 19.4859 13.7506 19.4859 13.2712C19.4859 12.6884 19.4443 12.2607 19.3612 11.9881C19.2781 11.7154 19.1118 11.5227 18.8624 11.4099C18.6222 11.2971 18.2389 11.2407 17.7124 11.2407H16.978V15.062H17.6985Z" fill="#5F40AF"/>
<path d="M24.9377 21.6469C23.8385 21.6469 23.0487 21.332 22.5684 20.7022C22.0973 20.063 21.8618 19.1417 21.8618 17.9385V13.6096C21.8618 12.4252 22.1019 11.5274 22.5823 10.9164C23.0626 10.3054 23.8478 9.99988 24.9377 9.99988C26.0277 9.99988 26.8083 10.3101 27.2794 10.9305C27.7597 11.5415 27.9999 12.4346 27.9999 13.6096V17.9526C27.9999 19.137 27.7597 20.0489 27.2794 20.6881C26.799 21.3273 26.0185 21.6469 24.9377 21.6469ZM24.9377 20.392C25.5197 20.392 25.9123 20.2181 26.1155 19.8703C26.3187 19.5225 26.4203 18.996 26.4203 18.291V13.2853C26.4203 12.5897 26.3187 12.0774 26.1155 11.7483C25.9123 11.4099 25.5197 11.2407 24.9377 11.2407C24.3466 11.2407 23.9494 11.4099 23.7461 11.7483C23.5429 12.0774 23.4413 12.5897 23.4413 13.2853V18.291C23.4413 18.996 23.5429 19.5225 23.7461 19.8703C23.9494 20.2181 24.3466 20.392 24.9377 20.392Z" fill="#5F40AF"/>
</svg>
