<svg xmlns="http://www.w3.org/2000/svg" width="24" height="18" viewBox="0 0 24 18">
  <g fill="none">
    <path fill="#35CB5D" d="M21.4883721,9.83828403e-16 L2.51162791,9.83828403e-16 C1.12449412,0 2.47863745e-16,1.11584416 0,2.49230769 L0,15.5076923 C2.47863745e-16,16.8841558 1.12449412,18 2.51162791,18 L21.4883721,18 C22.8755059,18 24,16.8841558 24,15.5076923 L24,2.49230769 C24,1.11584416 22.8755059,0 21.4883721,9.83828403e-16 Z M21.1219512,17 L2.87804878,17 C1.84083108,17 1,16.1078831 1,15.0074011 L1,13.1372047 L7.12780488,7 L13,13 L18,9 L23,13.8516937 L23,15.0074011 C23,16.1078831 22.1591689,17 21.1219512,17 Z M23,13 C19.7357846,9.6105021 18.0691179,7.94383544 18,8 L13,12 C9.068603,7.93471236 7.068603,5.93471236 7,6 L1,12 L1,2.92714951 C1,1.86281423 1.84083108,1 2.87804878,1 L21.1219512,1 C22.1591689,1 23,1.86281423 23,2.92714951 L23,13 Z"/>
    <path stroke="#35CB5D" d="M13.5,2.5 C12.3954305,2.5 11.5,3.3954305 11.5,4.5 C11.5,5.6045695 12.3954305,6.5 13.5,6.5 C14.6045695,6.5 15.5,5.6045695 15.5,4.5 C15.5,3.3954305 14.6045695,2.5 13.5,2.5 Z"/>
  </g>
</svg>
