<svg xmlns="http://www.w3.org/2000/svg" width="58" height="58" viewBox="0 0 58 58">
    <g fill="#502DA8" fill-rule="evenodd">
        <circle cx="29" cy="29" r="29" opacity=".1"/>
        <path fill-rule="nonzero" d="M24.303 33.557h10.233v-1.102H24.303v1.102zm15.876-9.156h-3.24l-.48-2.912c-.078-.468-.333-.878-.719-1.155-.386-.277-.856-.387-1.325-.31l-16.926 2.79c-.469.077-.879.333-1.156.719-.276.386-.386.856-.309 1.325l1.686 10.227.098.597c.078.469.333.879.719 1.156.305.219.663.333 1.032.333.097 0 .195-.008.293-.024l1.395-.23v.232c0 .98.797 1.778 1.778 1.778h17.154c.98 0 1.778-.798 1.778-1.778V26.18c0-.98-.798-1.778-1.778-1.778zM21.246 35.8l-1.574.26c-.178.03-.356-.013-.503-.118-.146-.105-.243-.26-.272-.439l-.099-.597 2.448-.403v1.297zm0-9.62v6.26l-2.78.457-1.354-8.218c-.03-.178.012-.356.117-.503.105-.147.261-.243.44-.273l16.926-2.79c.178-.029.356.013.503.118.146.105.243.26.272.439l.45 2.732H23.025c-.98 0-1.778.798-1.778 1.778zm19.608 10.97c0 .373-.303.676-.675.676H23.024c-.372 0-.675-.303-.675-.676V26.18c0-.372.303-.675.675-.675h17.155c.372 0 .675.303.675.675v10.97zm-16.551-1.214h5.702v-1.103h-5.702v1.103z"/>
    </g>
</svg>
