<svg xmlns="http://www.w3.org/2000/svg" width="40" height="37" viewBox="0 0 40 37">
    <g fill="#502DA8" fill-rule="evenodd">
        <path fill-rule="nonzero" d="M36.654 34.747c-.648.436-1.427.69-2.266.69-2.244 0-4.062-1.818-4.062-4.062s1.818-4.063 4.062-4.063c.839 0 1.618.255 2.266.69-1.084.73-1.797 1.968-1.797 3.373 0 1.405.713 2.643 1.797 3.372zm-16.107-3.45c0-1.405.713-2.643 1.797-3.373-.648-.435-1.427-.69-2.266-.69-2.244 0-4.062 1.82-4.062 4.063 0 2.244 1.818 4.062 4.062 4.062.839 0 1.618-.254 2.266-.69-1.084-.73-1.797-1.967-1.797-3.372zm-14.453.078c0-1.405.713-2.643 1.797-3.372-.648-.436-1.427-.69-2.266-.69-2.244 0-4.063 1.818-4.063 4.062s1.82 4.063 4.063 4.063c.839 0 1.618-.255 2.266-.69-1.084-.73-1.797-1.968-1.797-3.373z" opacity=".3"/>
        <path fill-rule="nonzero" d="M34.453 23.016c-.863 0-1.562-.7-1.562-1.563v-7.11c0-2.9-2.05-5.464-4.874-6.098-.842-.189-1.371-1.024-1.182-1.866.189-.842 1.024-1.372 1.866-1.183 2.045.459 3.901 1.612 5.227 3.249 1.346 1.66 2.088 3.755 2.088 5.897v7.111c0 .863-.7 1.563-1.563 1.563zM7.031 21.453v-7.11c0-2.9 2.05-5.464 4.874-6.098.842-.189 1.371-1.024 1.182-1.866-.189-.843-1.025-1.372-1.867-1.183-2.044.459-3.9 1.612-5.226 3.249-1.346 1.66-2.088 3.755-2.088 5.897v7.111c0 .863.7 1.563 1.563 1.563s1.562-.7 1.562-1.563zm14.61-.156V16.53c0-.863-.7-1.562-1.563-1.562s-1.562.7-1.562 1.562v4.766c0 .863.7 1.562 1.562 1.562.863 0 1.563-.7 1.563-1.562zm4.062 10.078c0-3.102-2.523-5.625-5.625-5.625s-5.625 2.523-5.625 5.625S16.976 37 20.078 37s5.625-2.523 5.625-5.625zm-3.125 0c0 1.379-1.121 2.5-2.5 2.5-1.378 0-2.5-1.121-2.5-2.5s1.122-2.5 2.5-2.5c1.379 0 2.5 1.121 2.5 2.5zm17.422 0c0-3.102-2.523-5.625-5.625-5.625s-5.625 2.523-5.625 5.625S31.273 37 34.375 37 40 34.477 40 31.375zm-3.125 0c0 1.379-1.121 2.5-2.5 2.5s-2.5-1.121-2.5-2.5 1.121-2.5 2.5-2.5 2.5 1.121 2.5 2.5zm-25.625 0c0-3.102-2.523-5.625-5.625-5.625S0 28.273 0 31.375 2.523 37 5.625 37s5.625-2.523 5.625-5.625zm-3.125 0c0 1.379-1.121 2.5-2.5 2.5s-2.5-1.121-2.5-2.5 1.121-2.5 2.5-2.5 2.5 1.121 2.5 2.5z"/>
        <circle cx="20" cy="5" r="5" opacity=".3"/>
    </g>
</svg>
