<svg xmlns="http://www.w3.org/2000/svg" width="14" height="11" viewBox="0 0 14 11">
    <g fill="#FFF">
        <path d="M14.006 1.051c0 .55-.453.996-1.012.996H1.124c-.559 0-1.012-.446-1.012-.996S.565.055 1.124.055h11.87c.559 0 1.012.446 1.012.996zM12.325 5.237c0 .55-.453.996-1.012.996H2.805c-.56 0-1.012-.445-1.012-.996 0-.55.453-.996 1.012-.996h8.508c.559 0 1.012.446 1.012.996zM9.804 9.423c0 .55-.453.996-1.012.996H5.326c-.56 0-1.012-.445-1.012-.996 0-.55.453-.996 1.012-.996h3.466c.559 0 1.012.446 1.012.996z"/>
    </g>
</svg>
