<svg xmlns="http://www.w3.org/2000/svg" width="16" height="16" viewBox="0 0 16 16">
    <g fill="#150731">
        <path d="M8 0C3.582 0 0 3.582 0 8s3.582 8 8 8 8-3.582 8-8-3.582-8-8-8zm0 14.643c-3.668 0-6.643-2.975-6.643-6.643 0-3.668 2.975-6.643 6.643-6.643 3.668 0 6.643 2.975 6.643 6.643 0 3.668-2.975 6.643-6.643 6.643z"/>
        <path d="M7 4.857c0 .474.448.857 1 .857s1-.383 1-.857C9 4.384 8.552 4 8 4s-1 .384-1 .857zm1.5 2h-1c-.092 0-.167.064-.167.143v4.857c0 .079.075.143.167.143h1c.092 0 .167-.064.167-.143V7c0-.079-.075-.143-.167-.143z"/>
    </g>
</svg>
