<svg xmlns="http://www.w3.org/2000/svg" width="16" height="16" viewBox="0 0 16 16">
    <g fill="#502DA8">
        <path d="M8 0C3.582 0 0 3.582 0 8s3.582 8 8 8 8-3.582 8-8-3.582-8-8-8zm0 14.643c-3.668 0-6.643-2.975-6.643-6.643 0-3.668 2.975-6.643 6.643-6.643 3.668 0 6.643 2.975 6.643 6.643 0 3.668-2.975 6.643-6.643 6.643z"/>
        <path d="M7.143 4.857c0 .474.384.857.857.857s.857-.383.857-.857C8.857 4.384 8.473 4 8 4s-.857.384-.857.857zm1.286 2H7.57c-.078 0-.142.064-.142.143v4.857c0 .079.064.143.142.143h.858c.078 0 .142-.064.142-.143V7c0-.079-.064-.143-.142-.143z"/>
    </g>
</svg>
