<svg xmlns="http://www.w3.org/2000/svg" width="48" height="48" viewBox="0 0 48 48">
    <defs>
        <linearGradient id="prefix__a" x1="100%" x2="0%" y1="0%" y2="157.378%">
            <stop offset="0%" stop-color="#502DA8"/>
            <stop offset="100%" stop-color="#8582FF"/>
        </linearGradient>
    </defs>
    <g fill="none" fill-rule="evenodd">
        <rect width="48" height="48" fill="url(#prefix__a)" rx="10"/>
        <g fill="#FFF" fill-rule="nonzero">
            <path d="M16.106 1.217C14.32.41 12.267 0 10 0 7.72 0 5.664.41 3.895 1.218c-.293.134-.422.48-.287.772.136.291.482.42.777.285 1.616-.737 3.505-1.11 5.616-1.11 2.097 0 3.987.373 5.618 1.111.079.036.162.053.243.053.223 0 .436-.127.535-.341.133-.293.003-.638-.291-.771z" transform="translate(14 10)"/>
            <path d="M18.625 5.995c-2.376-2.398-5.36-3.666-8.626-3.666-3.254 0-6.235 1.268-8.62 3.665-.226.23-.224.599.006.825.23.226.6.222.828-.005 2.16-2.173 4.852-3.32 7.786-3.32 2.946 0 5.64 1.147 7.79 3.319.115.115.266.173.417.173.148 0 .297-.056.412-.167.23-.226.234-.594.007-.824z" transform="translate(14 10)"/>
            <path d="M9.999 4.658c-.836 0-1.666.102-2.468.305-.314.079-.504.395-.424.708.08.312.401.498.713.42.707-.178 1.44-.27 2.179-.27 4.848 0 8.791 3.918 8.791 8.734 0 .321.263.582.586.582.324 0 .586-.26.586-.582 0-5.458-4.47-9.897-9.963-9.897zM5.798 6.204c-.162-.276-.52-.37-.802-.209-.748.435-1.443.972-2.063 1.596C1.108 9.423.08 11.893.038 14.547c-.005.321.253.585.578.59h.01c.318 0 .58-.254.584-.573.038-2.352.945-4.537 2.556-6.156.55-.552 1.162-1.025 1.822-1.408.279-.162.373-.518.21-.796z" transform="translate(14 10)"/>
            <path d="M15.742 9.586c-1.45-1.652-3.544-2.6-5.743-2.6-2.044 0-3.96.797-5.398 2.242-1.432 1.437-2.22 3.38-2.22 5.5.004 1.253-.39 2.755-1.096 4.198l-.33.582c-.158.28-.058.635.225.793.09.052.19.076.287.076.205 0 .404-.107.51-.297l.347-.612c.81-1.656 1.234-3.296 1.23-4.77 0-1.782.666-3.434 1.88-4.652C6.65 8.824 8.27 8.151 9.998 8.151c1.86 0 3.632.802 4.86 2.202.212.242.583.266.827.056.244-.212.269-.58.056-.823zM18.708 21.266l-.661-2.148c-.372-1.685-.403-3.293-.423-4.255l-.006-.308c0-.863-.147-1.71-.435-2.52-.108-.303-.44-.46-.748-.354-.305.107-.464.44-.356.743.244.684.367 1.4.367 2.146l.007.317c.02 1.004.054 2.684.462 4.525l.67 2.193c.076.252.31.413.562.413.056 0 .113-.009.17-.025.31-.094.485-.418.391-.727z" transform="translate(14 10)"/>
            <path d="M16.998 23.956l-.545-1.734c-.967-2.999-1.148-6.371-1.18-7.667 0-2.889-2.366-5.24-5.274-5.24s-5.274 2.387-5.274 5.341c.003.613-.111 3.849-2.587 7.395-.185.265-.118.628.147.81.265.183.632.118.816-.145C5.71 18.98 5.9 15.6 5.897 14.638c0-2.293 1.84-4.157 4.102-4.157 2.262 0 4.102 1.828 4.102 4.089.043 1.69.26 4.979 1.235 8.005l.541 1.727c.079.25.31.409.56.409.058 0 .117-.008.175-.026.31-.097.482-.423.386-.729z" transform="translate(14 10)"/>
            <path d="M12.93 14.555c0-1.605-1.316-2.911-2.931-2.911s-2.93 1.306-2.93 2.933c.007.192.137 4.766-3.586 9.578-.197.255-.149.621.108.817.258.196.624.146.821-.108C8.39 19.723 8.247 14.742 8.24 14.555c0-.963.788-1.747 1.758-1.747s1.758.784 1.76 1.76c.016.652.02 6.534-4.557 12.44-.197.255-.15.62.107.816.107.082.233.122.357.122.176 0 .35-.078.464-.228 4.83-6.231 4.817-12.484 4.8-13.163z" transform="translate(14 10)"/>
            <path d="M10.583 14.53c-.016-.321-.269-.576-.611-.556-.322.014-.573.285-.56.607 0 .008.032.86-.186 2.207-.05.318.168.617.487.669.031.004.063.007.094.007.282 0 .532-.204.577-.49.24-1.477.2-2.406.199-2.445zM9.433 18.671c-.312-.092-.637.085-.73.392-.732 2.458-1.951 4.757-3.62 6.834-.202.252-.16.617.092.819.108.086.237.127.366.127.172 0 .342-.075.458-.22 1.765-2.193 3.053-4.625 3.83-7.228.091-.308-.086-.633-.396-.724zM15.113 25.647l-.707-2.23c-.281-.836-.544-1.72-.545-1.723-.07-.237-.281-.403-.528-.417-.254-.017-.478.127-.574.354-.013.03-1.318 3.08-2.815 5.42-.174.272-.093.631.18.804.098.061.207.09.314.09.195 0 .384-.095.495-.27.906-1.417 1.729-3.046 2.266-4.179.03.094.062.188.094.281l.702 2.22c.097.306.423.478.735.38.308-.097.48-.423.383-.73z" transform="translate(14 10)"/>
        </g>
    </g>
</svg>
