<svg xmlns="http://www.w3.org/2000/svg" width="16" height="16" viewBox="0 0 16 16">
    <path fill="#FFF" d="M.399 5.428C-.833 9.192.867 13.292 4.4 15.08c.329.175.672.318 1.027.43 3.764 1.23 7.864-.47 9.651-4.003.175-.328.318-.672.43-1.027 1.23-3.764-.47-7.864-4.003-9.651-.328-.175-.672-.318-1.027-.43C6.715-.831 2.615.869.828 4.402c-.175.329-.318.672-.43 1.027zM14.598 7.08c.374 2.847-1.106 5.616-3.681 6.886-2.575 1.27-5.673.758-7.704-1.272-2.03-2.03-2.541-5.128-1.272-7.704 1.27-2.575 4.04-4.055 6.886-3.68 3.007.397 5.373 2.763 5.77 5.77zm-9.62-.62l2.976 2.976 2.975-2.975c.115-.117.273-.183.437-.183.164 0 .321.066.436.183.117.116.183.274.183.44 0 .164-.066.322-.183.438l-3.848 3.85-3.85-3.85c-.116-.116-.182-.274-.182-.439 0-.165.066-.323.183-.44.115-.116.272-.182.437-.182.164 0 .32.066.436.183z" opacity=".7"/>
</svg>
