<svg xmlns="http://www.w3.org/2000/svg" width="156" height="88" viewBox="0 0 156 88">
    <g fill="none" fill-rule="evenodd">
        <path fill="#502DA8" d="M33.36 72.48c-2.784 0-5.04-2.256-5.04-5.04 0-2.784 2.256-5.04 5.04-5.04H5.28c-2.784 0-5.04-2.256-5.04-5.04 0-2.784 2.256-5.04 5.04-5.04h28.8c2.784 0 5.04-2.256 5.04-5.04 0-2.784-2.256-5.04-5.04-5.04h-18c-2.784 0-5.04-2.256-5.04-5.04 0-2.784 2.256-5.04 5.04-5.04h28.8c-2.784 0-5.04-2.256-5.04-5.04 0-2.784 2.256-5.04 5.04-5.04h41.04c2.784 0 5.04 2.256 5.04 5.04 0 2.784-2.256 5.04-5.04 5.04H132c2.784 0 5.04 2.256 5.04 5.04 0 2.784-2.256 5.04-5.04 5.04h15.84c2.784 0 5.04 2.256 5.04 5.04 0 2.784-2.256 5.04-5.04 5.04h-13.68c-2.784 0-5.04 2.256-5.04 5.04 0 2.784 2.256 5.04 5.04 5.04h4.32c2.784 0 5.04 2.256 5.04 5.04 0 2.784-2.256 5.04-5.04 5.04H33.36zm117.36 0c-2.784 0-5.04-2.256-5.04-5.04 0-2.784 2.256-5.04 5.04-5.04 2.784 0 5.04 2.256 5.04 5.04 0 2.784-2.256 5.04-5.04 5.04z" opacity=".2" transform="translate(0 -7)"/>
        <path fill="#FFF" stroke="#502DA8" stroke-linecap="round" stroke-width="1.8" d="M100.949 78.326c2.187-1.408 4.132-3.164 5.397-4.582m2.042-2.356c1.047-1.282 1.987-2.623 2.822-4.01 1.836-3.052 3.16-6.33 3.968-9.71.818-3.419 1.11-6.941.873-10.438-.206-3.052-.815-6.083-1.828-9.01-1.004-2.903-2.406-5.702-4.206-8.313-1.073-1.555-2.288-3.044-3.644-4.449-1.991-2.062-4.175-3.825-6.496-5.287-2.494-1.572-5.145-2.797-7.884-3.674-3.43-1.098-6.998-1.65-10.566-1.654-2.777-.003-5.554.326-8.266.988-3.054.745-6.026 1.913-8.825 3.505-2.46 1.399-4.786 3.126-6.915 5.182-2.675 2.584-4.843 5.496-6.5 8.613-1.622 3.052-2.755 6.3-3.397 9.627-.662 3.428-.803 6.94-.42 10.409.496 4.496 1.87 8.919 4.128 12.991 1.445 2.606 3.251 5.069 5.42 7.315 3.443 3.565 7.464 6.237 11.77 8.007 5.235 2.154 10.893 2.976 16.45 2.457 4.664-.435 9.257-1.815 13.469-4.146" transform="translate(0 -7)"/>
        <g stroke="#502DA8" stroke-linecap="round" stroke-linejoin="round" stroke-width="1.8" opacity=".3">
            <path d="M7.56 0v4.32M7.56 10.08v4.32M.36 7.2h4.32M10.44 7.2h4.32" transform="translate(0 -7) translate(107.52 8.4)"/>
        </g>
        <g stroke="#CAC0E4" stroke-linecap="round" stroke-linejoin="round" stroke-width="1.8">
            <path d="M6.12 0v2.88M6.12 8.64v2.88M.36 5.76h2.88M9 5.76h2.88" transform="translate(0 -7) translate(49.2 82.56)"/>
        </g>
        <path fill="#FCFAFF" fill-rule="nonzero" stroke="#502DA8" stroke-width="1.8" d="M67.906 48.985c-1.049-.944-2.675-.872-3.633.162-.958 1.034-.884 2.638.164 3.583L76.54 63.63c1.468 1.322 3.745 1.22 5.086-.227.056-.061.056-.061.11-.124l17.27-20.483c.909-1.077.76-2.676-.332-3.571s-2.714-.748-3.622.329L78.814 58.812l-10.908-9.827z" transform="translate(0 -7)"/>
    </g>
</svg>
