<svg xmlns="http://www.w3.org/2000/svg" width="31" height="30" viewBox="0 0 31 30">
    <g opacity=".5">
        <path d="M4.746 22.969V7.03c0-3.236 2.623-5.86 5.86-5.86H7.03c-3.236 0-5.86 2.624-5.86 5.86V22.97c0 3.236 2.624 5.86 5.86 5.86h3.574c-3.236 0-5.859-2.624-5.859-5.86z" opacity=".4" transform="translate(.5)"/>
        <path d="M22.969 30H7.03C3.154 30 0 26.846 0 22.969V7.03C0 3.154 3.154 0 7.031 0H22.97C26.846 0 30 3.154 30 7.031V22.97C30 26.846 26.846 30 22.969 30zM7.03 2.344c-2.584 0-4.687 2.103-4.687 4.687V22.97c0 2.584 2.103 4.687 4.687 4.687H22.97c2.584 0 4.687-2.103 4.687-4.687V7.03c0-2.584-2.103-4.687-4.687-4.687H7.03zm5.332 3.574c0-.647-.524-1.172-1.172-1.172H6.27c-.648 0-1.172.525-1.172 1.172 0 .647.524 1.172 1.172 1.172h4.921c.648 0 1.172-.525 1.172-1.172zM23.086 19.57c0-.647-.525-1.172-1.172-1.172H12.13c-.647 0-1.172.525-1.172 1.172 0 .648.525 1.172 1.172 1.172h9.785c.647 0 1.172-.524 1.172-1.172zm1.582 4.57c0-.647-.525-1.171-1.172-1.171h-2.578c-.647 0-1.172.524-1.172 1.172 0 .647.525 1.172 1.172 1.172h2.578c.647 0 1.172-.525 1.172-1.172z" transform="translate(.5)"/>
        <path d="M23.672 16.172H15.41c-.647 0-1.172-.525-1.172-1.172 0-.647.525-1.172 1.172-1.172h8.262c.647 0 1.172.525 1.172 1.172 0 .647-.525 1.172-1.172 1.172zm-2.93-5.684c0-.647-.524-1.172-1.172-1.172H8.613c-.647 0-1.172.525-1.172 1.172 0 .648.525 1.172 1.172 1.172H19.57c.648 0 1.172-.524 1.172-1.172z" opacity=".4" transform="translate(.5)"/>
    </g>
</svg>
