<svg xmlns="http://www.w3.org/2000/svg" width="40" height="40" viewBox="0 0 40 40">
    <g fill="#502DA8">
        <path d="M6.25 20c0-9.389 7.018-17.138 16.094-18.29-.768-.097-1.55-.147-2.344-.147C9.817 1.563 1.562 9.816 1.562 20c0 10.183 8.255 18.438 18.438 18.438.794 0 1.576-.05 2.344-.148C13.268 37.138 6.25 29.389 6.25 20z" opacity=".3"/>
        <path d="M38.438 10.703c-.863 0-1.563-.7-1.563-1.562V4.687c0-.861-.7-1.562-1.563-1.562h-4.374c-.863 0-1.563-.7-1.563-1.563 0-.862.7-1.562 1.563-1.562h4.375C37.897 0 40 2.103 40 4.688V9.14c0 .863-.7 1.562-1.563 1.562zm-24.599 17.59L34.074 8.057c.61-.61.61-1.6 0-2.21-.61-.61-1.6-.61-2.21 0L11.63 26.083c-.61.61-.61 1.6 0 2.21.305.304.704.457 1.104.457.4 0 .8-.153 1.105-.458z" opacity=".3"/>
        <path d="M26.25 31.328c-2.585 0-4.688-2.103-4.688-4.687 0-2.585 2.103-4.688 4.688-4.688 2.585 0 4.688 2.103 4.688 4.688 0 2.584-2.103 4.687-4.688 4.687zm0-6.25c-.862 0-1.563.701-1.563 1.563 0 .861.701 1.562 1.563 1.562s1.563-.7 1.563-1.562c0-.862-.701-1.563-1.563-1.563zm-12.5-7.031c-2.585 0-4.688-2.103-4.688-4.688 0-2.584 2.103-4.687 4.688-4.687 2.585 0 4.688 2.103 4.688 4.687 0 2.585-2.103 4.688-4.688 4.688zm0-6.25c-.862 0-1.563.7-1.563 1.562 0 .862.701 1.563 1.563 1.563s1.563-.701 1.563-1.563c0-.861-.701-1.562-1.563-1.562zm20.392 22.345C37.92 30.365 40 25.342 40 20c0-1.692-.212-3.374-.63-4.999-.215-.836-1.067-1.339-1.903-1.124-.836.215-1.339 1.067-1.124 1.903.353 1.37.532 2.79.532 4.22 0 9.305-7.57 16.875-16.875 16.875S3.125 29.305 3.125 20 10.695 3.125 20 3.125c1.453 0 2.896.185 4.291.551.835.219 1.69-.28 1.908-1.115.219-.835-.28-1.69-1.115-1.908C23.43.22 21.72 0 20 0 14.658 0 9.635 2.08 5.858 5.858 2.08 9.635 0 14.658 0 20c0 5.342 2.08 10.365 5.858 14.142C9.635 37.92 14.658 40 20 40c5.342 0 10.365-2.08 14.142-5.858z"/>
    </g>
</svg>
