<svg xmlns="http://www.w3.org/2000/svg" width="40" height="49" viewBox="0 0 40 49">
    <g fill="#502DA8">
        <path d="M7.547 36.985V11.317c0-5.208 4.212-9.43 9.407-9.43h-5.728c-5.21 0-9.434 4.223-9.434 9.434v25.66c0 5.21 4.224 9.434 9.434 9.434h5.728c-5.195 0-9.407-4.222-9.407-9.43z" opacity=".3"/>
        <path d="M28.68 48.302H11.32C5.079 48.302 0 43.223 0 36.982V11.32C0 5.078 5.078 0 11.32 0h17.36C34.921 0 40 5.078 40 11.32v25.661c0 6.242-5.078 11.32-11.32 11.32zM11.32 3.774c-4.16 0-7.546 3.385-7.546 7.547v25.66c0 4.162 3.385 7.547 7.547 7.547h17.358c4.162 0 7.547-3.385 7.547-7.547v-25.66c0-4.162-3.385-7.547-7.547-7.547H11.321zm21.038 13.584c0-1.042-.844-1.886-1.886-1.886h-3.208c-1.56 0-2.83-1.27-2.83-2.83V9.434c0-1.042-.845-1.887-1.887-1.887s-1.887.845-1.887 1.887v3.208c0 3.64 2.963 6.603 6.604 6.603h3.208c1.042 0 1.886-.844 1.886-1.887z"/>
        <path d="M14.796 23.962c1.302 0 2.358 1.056 2.358 2.359 0 1.302-1.056 2.358-2.358 2.358-1.303 0-2.359-1.056-2.359-2.358 0-1.303 1.056-2.359 2.359-2.359zm7.924 13.02c0 1.302 1.056 2.358 2.359 2.358 1.302 0 2.358-1.056 2.358-2.359 0-1.302-1.056-2.358-2.358-2.358-1.303 0-2.359 1.056-2.359 2.358zm-6.94 1.777l11.132-11.604c.721-.752.696-1.946-.055-2.667-.752-.722-1.947-.697-2.668.055L13.057 36.147c-.722.752-.697 1.946.055 2.667.366.351.836.526 1.306.526.496 0 .991-.195 1.362-.58z" opacity=".3"/>
    </g>
</svg>
