<svg xmlns="http://www.w3.org/2000/svg" xmlns:xlink="http://www.w3.org/1999/xlink" width="100" height="60" viewBox="0 0 100 60">
  <defs>
    <rect id="ic_auth_bank-a" width="100" height="60" x="0" y="0" rx="3"/>
  </defs>
  <g fill="none" fill-rule="evenodd">
    <mask id="ic_auth_bank-b" fill="#fff">
      <use xlink:href="#ic_auth_bank-a"/>
    </mask>
    <use fill="#FFF" xlink:href="#ic_auth_bank-a"/>
    <path fill="#4F2DA7" fill-rule="nonzero" d="M74.9745113,23.403866 C83.2245113,23.403866 97.4745113,23.403866 100.474511,15.153866 C103.474511,6.90386604 78.5309629,7.38773701 72.7245113,1.5812854 C66.9180597,-4.22516622 57.5558925,-3.59613396 48.7245113,-3.59613396 C39.8931301,-3.59613396 41.5666067,-13.3297199 34.4745113,-11.846134 C27.382416,-10.362548 33.7245113,-2.92821923 31.4745113,1.5812854 C31.4745113,4.38381957 31.4745113,11.6580131 31.4745113,23.403866 C51.2245113,23.403866 65.7245113,23.403866 74.9745113,23.403866 Z" mask="url(#ic_auth_bank-b)" opacity=".05" transform="rotate(180 65.862 5.702)"/>
    <path fill="#4F2DA7" fill-rule="nonzero" d="M17.2856144,59.675161 C46.7333474,49.2048559 59.8212288,72.7630423 59.8212288,59.675161 C59.8212288,46.5872797 44.1157711,40.043339 36.2630423,32.1906102 C28.4103136,24.3378814 31.8468778,11.25 19.9031907,11.25 C7.95950355,11.25 13.9767953,18.5865724 0.925762739,24.3378814 C-12.12527,30.0891903 -12.1621186,70.1454661 17.2856144,59.675161 Z" mask="url(#ic_auth_bank-b)" opacity=".05"/>
    <path fill="#4F2DA7" fill-rule="nonzero" d="M66.0356144,45.425161 C95.4833474,34.9548559 108.571229,58.5130423 108.571229,45.425161 C108.571229,32.3372797 92.8657711,25.793339 85.0130423,17.9406102 C77.1603136,10.0878814 80.5968778,-3 68.6531907,-3 C56.7095035,-3 62.7267953,4.33657244 49.6757627,10.0878814 C36.62473,15.8391903 23.5,0.926364402 23.5,17.9406102 C23.5,34.9548559 36.5878814,55.8954661 66.0356144,45.425161 Z" mask="url(#ic_auth_bank-b)" opacity=".05" transform="matrix(-1 0 0 1 132.071 0)"/>
    <g mask="url(#ic_auth_bank-b)">
      <g transform="translate(30.569 13.42)">
        <rect width="37.233" height="1.038" y="32.379" fill="#F1EBFF"/>
        <rect width="35.165" height="1.038" x="1.034" y="30.304" fill="#F1EBFF"/>
        <polygon fill="#BA8EE0" points="2.069 13.699 35.165 13.699 35.165 29.266 2.069 29.266"/>
        <path fill="#F6F2FF" d="M21.7784432,22.431248 L21.7784432,29.2658847 L15.4546033,29.2658847 L15.4546033,22.431248 L21.7784432,22.431248 Z M32.0618873,14.9486341 L32.0618873,19.317856 L31.0272721,19.3176341 L31.0276328,29.2658847 L29.9933784,29.2658847 L29.9932721,19.3176341 L28.959124,19.317856 L28.959124,14.9486341 L32.0618873,14.9486341 Z M26.8906151,14.9486341 L26.8906151,19.317856 L25.8562721,19.3176341 L25.8563607,29.2658847 L24.8221063,29.2658847 L24.8212721,19.3176341 L23.7878518,19.317856 L23.7878518,14.9486341 L26.8906151,14.9486341 Z M13.4453076,14.9486341 L13.4453076,19.317856 L12.4102721,19.3176341 L12.4110531,29.2658847 L11.3767987,29.2658847 L11.3762721,19.3176341 L10.3425443,19.317856 L10.3425443,14.9486341 L13.4453076,14.9486341 Z M8.27403542,14.9486341 L8.27403542,19.317856 L7.23927214,19.3176341 L7.23978099,29.2658847 L6.20552657,29.2658847 L6.20527214,19.3176341 L5.17127214,19.317856 L5.17127214,14.9486341 L8.27403542,14.9486341 Z"/>
        <polygon fill="#EDDEFF" points="3.103 7.879 18.616 .208 34.13 7.879 34.13 11.623 3.103 11.623"/>
        <polygon fill="#BA8EE0" points="18.575 1.404 31.865 7.641 31.865 10.076 3.855 10.076 3.855 8.521"/>
        <polygon fill="#EDDEFF" points="1.062 10.797 36.226 10.797 36.226 14.949 1.062 14.949"/>
        <g transform="translate(0 5.871)">
          <polygon fill="#E1DBEE" points="2.069 23.395 1.034 24.433 36.199 24.433 35.165 23.395"/>
          <polygon fill="#E1DBEE" points="1.034 25.471 0 26.508 37.233 26.508 36.199 25.471"/>
          <rect width="17.021" height="3.202" x="10.106" fill="#6107B5" rx="1.601"/>
          <ellipse cx="11.702" cy="1.601" fill="#FFF" rx="1" ry="1"/>
          <ellipse cx="25.531" cy="1.601" fill="#FFF" rx="1" ry="1"/>
          <path fill="#FFF" fill-rule="nonzero" d="M14.0563546,0.888117302 L14.8925049,0.888117302 C14.9690992,0.888117302 15.0386004,0.903417247 15.1010106,0.934017595 C15.1634208,0.964617944 15.2123553,1.00731546 15.2478157,1.06211144 C15.283276,1.11690741 15.3010059,1.17988625 15.3010059,1.25104985 C15.3010059,1.33217636 15.2786662,1.40227145 15.2339862,1.46133724 C15.1893062,1.52040303 15.1322159,1.56132149 15.0627137,1.58409384 L15.0627137,1.59263343 C15.1449816,1.60828942 15.2120006,1.64849625 15.2637727,1.71325513 C15.3155448,1.77801401 15.3414305,1.85451373 15.3414305,1.9427566 C15.3414305,2.0751209 15.2992333,2.17652751 15.2148377,2.24697947 C15.1304421,2.31743144 15.0229989,2.35265689 14.8925049,2.35265689 L14.0563546,2.35265689 L14.0563546,0.888117302 Z M14.805273,1.47307918 C14.8620095,1.47307918 14.9059796,1.45849086 14.9371847,1.42931378 C14.9683898,1.40013671 14.9839921,1.36277638 14.9839921,1.31723167 C14.9839921,1.26314733 14.9694536,1.22187307 14.9403761,1.19340762 C14.9112987,1.16494218 14.8712291,1.15070968 14.8201662,1.15070968 L14.3669855,1.15070968 L14.3669855,1.47307918 L14.805273,1.47307918 Z M14.8414423,2.09006452 C14.895342,2.09006452 14.9393122,2.07440876 14.9733541,2.04309677 C15.007396,2.01178479 15.0244167,1.96695239 15.0244167,1.90859824 C15.0244167,1.85593718 15.007396,1.81323966 14.9733541,1.7805044 C14.9393122,1.74776914 14.8896684,1.73140176 14.8244214,1.73140176 L14.3669855,1.73140176 L14.3669855,2.09006452 L14.8414423,2.09006452 Z M17.0881975,0.888117302 L17.4754224,0.888117302 L18.0456216,2.35265689 L17.7094594,2.35265689 L17.6052065,2.07298534 L16.9413925,2.07298534 L16.8371397,2.35265689 L16.5179983,2.35265689 L17.0881975,0.888117302 Z M17.5073365,1.81466276 L17.3690419,1.44319062 L17.3201069,1.2937478 L17.2775547,1.15497947 L17.2669167,1.15497947 L17.1961737,1.38341356 C17.1880179,1.40832064 17.1811032,1.42824626 17.1754295,1.44319062 L17.0371349,1.81466276 L17.5073365,1.81466276 Z M19.2562312,0.888117302 L19.5562241,0.888117302 L20.1306786,1.70317367 L20.1949796,1.81229066 C20.1984468,1.81861626 20.201126,1.82367675 20.2030173,1.82747214 L20.2136553,1.82106745 L20.2122369,1.78880682 L20.2104639,1.76556012 C20.2083363,1.73994122 20.2072725,1.71716921 20.2072725,1.6972434 L20.2072725,0.888117302 L20.5072654,0.888117302 L20.5072654,2.35265689 L20.2072725,2.35265689 L19.6434561,1.54993548 L19.6179248,1.51124048 L19.5604793,1.40903226 L19.5498413,1.41543695 L19.5554262,1.50670381 L19.5562241,2.35265689 L19.2562312,2.35265689 L19.2562312,0.888117302 Z M21.8561695,0.888117302 L22.1646729,0.888117302 L22.1646729,1.59476833 L22.839125,0.888117302 L23.2135842,0.888117302 L22.6433849,1.48375367 L23.2220946,2.35265689 L22.8561458,2.35265689 L22.4370068,1.7015132 L22.1646729,1.92781232 L22.1646729,2.35265689 L21.8561695,2.35265689 L21.8561695,0.888117302 Z"/>
        </g>
      </g>
    </g>
    <path fill="#3792FC" fill-rule="nonzero" d="M19.2770509 25.6172581C20.3358744 25.1112028 21.4206495 24.5272927 22.3756668 23.8421716 22.7260128 23.5904415 22.3808571 23.0999571 22.012345 23.2945938 20.9924488 23.8291958 19.995909 24.5195073 19.0876045 25.2227945 18.9007533 25.3629329 19.0357014 25.731445 19.2770509 25.6172581L19.2770509 25.6172581zM88.8122953 35.9158402C88.5917071 34.763591 88.3036448 33.5646291 87.8832296 32.4668782 87.7301154 32.0646291 87.1669666 32.2722416 87.2603922 32.679681 87.5173126 33.8033834 87.9325375 34.9400616 88.3814995 35.9988852 88.4723299 36.2142831 88.8641984 36.1779509 88.8122953 35.9158402L88.8122953 35.9158402zM23.1967024 4.74397584C23.1759412 4.72580975 23.1577751 4.70764366 23.1370138 4.69207273 22.8749031 4.45850871 22.4441072 4.41439107 22.189782 4.69207273 21.9328616 4.97234954 21.940647 5.35902774 22.189782 5.63930456 22.2079481 5.66006581 22.2261142 5.6782319 22.2416851 5.69899314 22.4752491 5.96369902 22.9605432 5.95591356 23.1967024 5.69899314 23.4302664 5.44207273 23.4769792 4.99311079 23.1967024 4.74397584L23.1967024 4.74397584zM83.5064484 8.82141525C83.5722606 8.39206882 83.5597249 7.98465979 83.7979025 7.60545601 84.2773916 6.85331628 84.9574513 7.04135121 85.6155735 7.37354626 86.2862315 7.71200914 86.9192824 7.91257974 87.6463508 7.59918818 88.7839622 7.10716344 89.3198617 5.38977771 88.232393 4.58122749 87.8813945 4.31797858 87.5335299 4.75045893 87.5805386 5.08265398 87.6463508 5.54333957 87.8751267 6.05416781 87.4802533 6.44904117 86.9506216 6.9786729 86.3301063 6.53365689 85.8004746 6.29547931 85.2301019 6.03849823 84.6221223 5.98208775 84.0360801 6.22026533 83.0238254 6.63080827 82.2873552 8.00346329 83.0927715 8.93110229 83.2055925 9.05959283 83.4782431 9.00004844 83.5064484 8.82141525L83.5064484 8.82141525zM71.7650465 52.2428221C70.7245991 53.2418174 70.3308043 54.7962706 71.3215091 55.9983811 72.2541811 57.1300231 74.0656373 57.3663 75.2304409 56.4667897 78.0491828 54.2905551 75.1102299 50.2821384 72.0717919 51.1111801 71.5080435 51.2645528 71.6489806 52.0687233 72.2044386 52.0977398 73.0915132 52.1474823 74.0449112 52.1806439 74.7537419 52.8065704 75.5164603 53.473949 75.5330411 54.605591 74.9071146 55.3765998 73.2490312 57.4118973 70.3722564 54.4149114 72.113244 52.5910196 72.3370853 52.3630331 71.9971782 52.023126 71.7650465 52.2428221L71.7650465 52.2428221zM10.757268 45.6141129C11.0819614 46.8211253 11.4384183 48.0140205 11.8125215 49.2069157 11.9007534 49.4927871 12.1725076 49.5845482 12.4195569 49.415143 13.3901078 48.7551684 14.3571294 48.1093109 15.2782704 47.3787508 15.4547342 47.2375798 15.4159121 46.9552377 15.2429776 46.8352424 14.1665485 46.0976237 12.7160161 45.0070775 11.3501864 45 11.0043173 44.9964897 10.7607973 45.487059 11.1137249 45.6882277 11.6642919 46.0058626 12.3242665 46.1187994 12.9136556 46.3623194 13.5912765 46.6446615 14.2653682 46.9764134 14.8653451 47.4034558 14.8794622 47.2058163 14.8935793 47.0081769 14.9041671 46.8105374 13.8771479 47.4422778 12.9101263 48.1516622 11.9360462 48.8575174 12.1266271 48.8963394 12.3207372 48.9351615 12.5113181 48.9739835 12.0948636 47.7952054 11.6678212 46.6270151 11.2054861 45.4658834 11.1066663 45.2223633 10.6902118 45.3564758 10.757268 45.6141129L10.757268 45.6141129z" mask="url(#ic_auth_bank-b)" opacity=".05"/>
  </g>
</svg>
