<svg xmlns="http://www.w3.org/2000/svg" xmlns:xlink="http://www.w3.org/1999/xlink" width="115" height="100" viewBox="0 0 115 100">
  <defs>
    <rect id="ic_db_kyc-b" width="39.033" height="48.648"/>
    <filter id="ic_db_kyc-a" width="110.2%" height="108.2%" x="-5.1%" y="-2.1%" filterUnits="objectBoundingBox">
      <feOffset dy="1" in="SourceAlpha" result="shadowOffsetOuter1"/>
      <feGaussianBlur in="shadowOffsetOuter1" result="shadowBlurOuter1" stdDeviation=".5"/>
      <feColorMatrix in="shadowBlurOuter1" values="0 0 0 0 0   0 0 0 0 0   0 0 0 0 0  0 0 0 0.0440443841 0"/>
    </filter>
  </defs>
  <g fill="none" fill-rule="evenodd" transform="translate(-16)">
    <path fill="#7F66BF" fill-rule="nonzero" d="M98.6326818,47.2051547 C109.632682,47.2051547 128.632682,47.2051547 132.632682,36.2051547 C136.632682,25.2051547 103.374617,25.850316 95.6326818,18.1083805 C87.8907463,10.366445 75.4078567,11.2051547 63.6326818,11.2051547 C51.8575068,11.2051547 54.0888089,-1.77295985 44.6326818,0.205154721 C35.1765546,2.18326929 43.6326818,12.0957077 40.6326818,18.1083805 C40.6326818,21.8450928 40.6326818,31.5440175 40.6326818,47.2051547 C66.9660151,47.2051547 86.2993484,47.2051547 98.6326818,47.2051547 Z" opacity=".052" transform="rotate(180 86.483 23.603)"/>
    <path fill="#7F66BF" fill-rule="nonzero" d="M77.7141525,71.5668814 C116.977797,57.6064746 134.428305,89.0173897 134.428305,71.5668814 C134.428305,54.1163729 113.487695,45.3911187 103.01739,34.9208136 C92.5470848,24.4505085 97.1291704,7 81.2042542,7 C65.2793381,7 73.3023938,16.7820966 55.901017,24.4505085 C38.4996401,32.1189204 21,12.2351525 21,34.9208136 C21,57.6064746 38.4505085,85.5272882 77.7141525,71.5668814 Z" opacity=".052" transform="matrix(-1 0 0 1 155.428 0)"/>
    <path fill="#3792FC" fill-rule="nonzero" d="M11.3694012 54.1563442C12.7811659 53.4816037 14.2275327 52.703057 15.5008891 51.7895622 15.9680171 51.453922 15.5078095 50.7999428 15.01646 51.0594583 13.6565984 51.7722611 12.3278787 52.6926763 11.1168061 53.6303926 10.8676711 53.8172438 11.0476019 54.3085933 11.3694012 54.1563442L11.3694012 54.1563442zM16.5956032 26.3253011C16.5679215 26.3010797 16.5437001 26.2768582 16.5160184 26.256097 16.1665375 25.9446783 15.592143 25.8858548 15.2530427 26.256097 14.9104821 26.6297994 14.9208627 27.1453703 15.2530427 27.5190727 15.2772641 27.5467544 15.3014856 27.5709759 15.3222468 27.5986575 15.6336655 27.9515987 16.2807243 27.9412181 16.5956032 27.5986575 16.9070219 27.256097 16.9693056 26.6574811 16.5956032 26.3253011L16.5956032 26.3253011zM.00969071669 80.8188172C.442615217 82.428167.917891027 84.018694 1.41669534 85.609221 1.53433787 85.9903827 1.89667685 86.112731 2.22607593 85.8868573 3.52014373 85.0068912 4.80950583 84.1457479 6.03769381 83.1716678 6.27297887 82.9834397 6.22121615 82.6069837 5.9906368 82.4469898 4.55539797 81.4634983 2.62135482 80.0094367.8002485 80 .339089793 79.9953196.0143964178 80.649412.484966527 80.917637 1.2190559 81.3411501 2.099022 81.4917325 2.88487408 81.8164259 3.78836869 82.192882 4.6871576 82.6352179 5.48712678 83.2046077 5.50594959 82.9410884 5.52477239 82.6775692 5.5388895 82.4140499 4.16953048 83.2563704 2.88016838 84.2022163 1.58139488 85.1433565 1.83550274 85.1951193 2.0943163 85.246882 2.34842416 85.2986447 1.79315143 83.7269405 1.2237616 82.1693535.607314755 80.6211778.475555125 80.2964844-.079717604 80.4753011.00969071669 80.8188172L.00969071669 80.8188172z" opacity=".05"/>
    <g transform="translate(61 18)">
      <polygon fill="#5F40AF" points=".813 .811 39.847 .811 39.847 49.458 .813 49.458" opacity=".23"/>
      <use fill="#000" filter="url(#ic_db_kyc-a)" xlink:href="#ic_db_kyc-b"/>
      <use fill="#DFD8EF" xlink:href="#ic_db_kyc-b"/>
      <path fill="#F5F3F6" d="M23.1748634,42.4856948 L32.9356084,42.4856948 C33.1595027,42.4856948 33.341005,42.667197 33.341005,42.8910914 C33.341005,43.1149857 33.1595027,43.296488 32.9356084,43.296488 L23.1748634,43.296488 C22.9509691,43.296488 22.7694668,43.1149857 22.7694668,42.8910914 C22.7694668,42.667197 22.9509691,42.4856948 23.1748634,42.4856948 Z"/>
      <rect width="7.319" height="1" x="13.824" y="42.486" fill="#F5F3F6" rx=".405"/>
      <rect width="6.506" height="1" x="5.692" y="42.486" fill="#F5F3F6" rx=".405"/>
      <rect width="19.517" height="1" x="15.451" y="38.432" fill="#F5F3F6" rx=".405"/>
      <rect width="6.506" height="1" x="5.692" y="38.432" fill="#F5F3F6" rx=".405"/>
      <g stroke="#7F66BF" stroke-width="2" transform="translate(10 8)">
        <path stroke-linecap="round" stroke-linejoin="round" d="M20.0592513,23 C20.0592513,17.4771525 15.5688349,13 10.0296256,13 C4.49041635,13 0,17.4771525 0,23"/>
        <ellipse cx="10.012" cy="4" rx="4.012" ry="4"/>
      </g>
    </g>
  </g>
</svg>
