<svg xmlns="http://www.w3.org/2000/svg" xmlns:xlink="http://www.w3.org/1999/xlink" width="115" height="100" viewBox="0 0 115 100">
  <defs>
    <path id="ic_db_portfolio-a" d="M10.801964,4.25531915 L10.801964,2.9787234 C10.801964,2.50869383 10.4209297,2.12765957 9.95090016,2.12765957 L2.81505728,2.12765957 C2.34502771,2.12765957 1.96399345,2.50869383 1.96399345,2.9787234 L1.96399345,4.25531915 L0,4.25531915 L0,1.70212766 C-3.37168648e-16,0.762068511 0.762068511,1.72686064e-16 1.70212766,0 L11.0638298,0 C12.0038889,-3.94730669e-16 12.7659574,0.762068511 12.7659574,1.70212766 L12.7659574,4.25531915 L10.801964,4.25531915 Z"/>
  </defs>
  <g fill="none" fill-rule="evenodd" transform="translate(-16 -.5)">
    <g opacity=".05">
      <path fill="#7F66BF" fill-rule="nonzero" d="M97.6326818,47.2051547 C108.632682,47.2051547 127.632682,47.2051547 131.632682,36.2051547 C135.632682,25.2051547 102.374617,25.850316 94.6326818,18.1083805 C86.8907463,10.366445 74.4078567,11.2051547 62.6326818,11.2051547 C50.8575068,11.2051547 53.0888089,-1.77295985 43.6326818,0.205154721 C34.1765546,2.18326929 42.6326818,12.0957077 39.6326818,18.1083805 C39.6326818,21.8450928 39.6326818,31.5440175 39.6326818,47.2051547 C65.9660151,47.2051547 85.2993484,47.2051547 97.6326818,47.2051547 Z" transform="rotate(180 85.483 23.603)"/>
      <path fill="#7F66BF" fill-rule="nonzero" d="M73.7141525,76.5668814 C112.977797,62.6064746 130.428305,94.0173897 130.428305,76.5668814 C130.428305,59.1163729 109.487695,50.3911187 99.0173897,39.9208136 C88.5470848,29.4505085 93.1291704,12 77.2042542,12 C61.2793381,12 69.3023938,21.7820966 51.901017,29.4505085 C34.4996401,37.1189204 17,17.2351525 17,39.9208136 C17,62.6064746 34.4505085,90.5272882 73.7141525,76.5668814 Z" transform="matrix(-1 0 0 1 147.428 0)"/>
      <path fill="#3792FC" fill-rule="nonzero" d="M11.3694012 50.1563442C12.7811659 49.4816037 14.2275327 48.703057 15.5008891 47.7895622 15.9680171 47.453922 15.5078095 46.7999428 15.01646 47.0594583 13.6565984 47.7722611 12.3278787 48.6926763 11.1168061 49.6303926 10.8676711 49.8172438 11.0476019 50.3085933 11.3694012 50.1563442L11.3694012 50.1563442zM104.08306 63.8877869C103.788943 62.3514547 103.40486 60.7528388 102.844306 59.289171 102.640154 58.7528388 101.889289 59.0296554 102.013856 59.572908 102.356417 61.0711779 102.91005 62.5867488 103.508666 63.9985135 103.629773 64.2857108 104.152265 64.2372679 104.08306 63.8877869L104.08306 63.8877869zM16.5956032 22.3253011C16.5679215 22.3010797 16.5437001 22.2768582 16.5160184 22.256097 16.1665375 21.9446783 15.592143 21.8858548 15.2530427 22.256097 14.9104821 22.6297994 14.9208627 23.1453703 15.2530427 23.5190727 15.2772641 23.5467544 15.3014856 23.5709759 15.3222468 23.5986575 15.6336655 23.9515987 16.2807243 23.9412181 16.5956032 23.5986575 16.9070219 23.256097 16.9693056 22.6574811 16.5956032 22.3253011L16.5956032 22.3253011zM97.0085978 27.761887C97.0963475 27.1894251 97.0796333 26.6462131 97.3972034 26.140608 98.0365221 25.137755 98.9432684 25.3884683 99.8207647 25.831395 100.714975 26.2826789 101.559043 26.5501063 102.528468 26.1322509 104.045283 25.4762179 104.759816 23.1863703 103.309857 22.1083033 102.841859 21.7573048 102.37804 22.3339452 102.440718 22.776872 102.528468 23.3911194 102.833502 24.0722237 102.307004 24.5987216 101.600829 25.3048972 100.773475 24.7115425 100.067299 24.3939724 99.3068026 24.051331 98.4961631 23.976117 97.7147735 24.2936871 96.3651005 24.8410777 95.3831403 26.6712844 96.4570287 27.9081364 96.6074566 28.0794571 96.9709908 28.0000646 97.0085978 27.761887L97.0085978 27.761887zM81.3533953 85.6570961C79.9661321 86.9890898 79.4410724 89.0616941 80.7620122 90.6645082 82.0055748 92.1733641 84.4208497 92.4884 85.9739212 91.2890529 89.7322437 88.3874069 85.8136398 83.0428511 81.7623892 84.1482401 81.0107247 84.3527371 81.1986408 85.4249644 81.9392514 85.463653 83.1220177 85.5299764 84.393215 85.5741919 85.3383226 86.4087606 86.3552804 87.2985987 86.3773882 88.8074547 85.5428195 89.8354664 83.3320416 92.5491964 79.4963418 88.5532152 81.8176587 86.1213595 82.1161137 85.8173775 81.6629042 85.364168 81.3533953 85.6570961L81.3533953 85.6570961zM.00969071669 76.8188172C.442615217 78.428167.917891027 80.018694 1.41669534 81.609221 1.53433787 81.9903827 1.89667685 82.112731 2.22607593 81.8868573 3.52014373 81.0068912 4.80950583 80.1457479 6.03769381 79.1716678 6.27297887 78.9834397 6.22121615 78.6069837 5.9906368 78.4469898 4.55539797 77.4634983 2.62135482 76.0094367.8002485 76 .339089793 75.9953196.0143964178 76.649412.484966527 76.917637 1.2190559 77.3411501 2.099022 77.4917325 2.88487408 77.8164259 3.78836869 78.192882 4.6871576 78.6352179 5.48712678 79.2046077 5.50594959 78.9410884 5.52477239 78.6775692 5.5388895 78.4140499 4.16953048 79.2563704 2.88016838 80.2022163 1.58139488 81.1433565 1.83550274 81.1951193 2.0943163 81.246882 2.34842416 81.2986447 1.79315143 79.7269405 1.2237616 78.1693535.607314755 76.6211778.475555125 76.2964844-.079717604 76.4753011.00969071669 76.8188172L.00969071669 76.8188172z"/>
    </g>
    <g transform="translate(58 27)">
      <path fill="#DFD8EF" stroke="#5F40AF" stroke-width="2" d="M1.70212766,5.25531915 C1.31435326,5.25531915 1,5.56967241 1,5.95744681 L1,30.6382979 C1,31.4961018 1.69538752,32.1914894 2.55319149,32.1914894 L37.4468085,32.1914894 C38.3046125,32.1914894 39,31.4961018 39,30.6382979 L39,5.95744681 C39,5.56967241 38.6856467,5.25531915 38.2978723,5.25531915 L1.70212766,5.25531915 Z"/>
      <path fill="#DFD8EF" stroke="#5F40AF" stroke-width="2" d="M1.98175094,5.25531915 L6.10079249,16.9678496 C6.43930569,17.9304148 7.34852525,18.5744681 8.36887961,18.5744681 L31.1961094,18.5744681 C32.2205207,18.5744681 33.1324225,17.9253634 33.4678376,16.9574195 L37.5228881,5.25531915 L1.98175094,5.25531915 Z"/>
      <rect width="7.66" height="3.404" x="16.17" y="17.021" fill="#DFD8EF" stroke="#6E54B7" stroke-width="1.702" rx=".851"/>
      <use fill="#5F40AF" transform="translate(13.617)" xlink:href="#ic_db_portfolio-a"/>
    </g>
  </g>
</svg>
