<svg xmlns="http://www.w3.org/2000/svg" width="18" height="21" viewBox="0 0 18 21">
    <path fill="#6650AB" stroke="#6D4CB0" stroke-width=".4" d="M14.027 10.184v8.42c0 .882-.872 1.6-1.944 1.6H2.945c-1.072 0-1.944-.718-1.944-1.6v-16c0-.882.872-1.6 1.944-1.6h9.138c1.072 0 1.944.718 1.944 1.6v.68c0 .176-.174.32-.388.32-.215 0-.39-.144-.39-.32v-.68c0-.53-.523-.96-1.166-.96H4.675l.374.553c.102.152.298.247.51.247h3.91c.215 0 .39.143.39.32 0 .176-.175.32-.39.32H5.56c-.494 0-.95-.221-1.19-.576l-.584-.864h-.84c-.643 0-1.167.43-1.167.96v16c0 .53.524.96 1.167.96h9.138c.643 0 1.167-.43 1.167-.96v-8.42c0-.177.174-.32.389-.32.214 0 .388.143.388.32zm.144-1.588c.46.457.13 1.237-.516 1.237-.644 0-.975-.78-.515-1.237.285-.283.746-.283 1.03 0 0 0 0 0 0 0h0zm-2.303-1.264c-.152.15-.152.396 0 .546.152.151.398.151.55 0 .684-.68 1.79-.68 2.475 0 .076.076.175.114.275.114.343 0 .52-.416.274-.66-.987-.982-2.586-.982-3.574 0h0zm5.018-1.435c-1.786-1.775-4.676-1.775-6.462 0-.151.15-.151.396 0 .547.152.15.398.15.55 0 1.479-1.47 3.884-1.47 5.362 0 .152.15.398.15.55 0 .152-.151.152-.396 0-.547z"/>
</svg>
