<svg xmlns="http://www.w3.org/2000/svg" xmlns:xlink="http://www.w3.org/1999/xlink" width="80" height="60" viewBox="0 0 80 60">
  <defs>
    <rect id="ic_esign_done_fisdom-a" width="80" height="60" x="0" y="0" rx="3"/>
    <rect id="ic_esign_done_fisdom-c" width="80" height="60" x="0" y="0" rx="3"/>
    <rect id="ic_esign_done_fisdom-e" width="80" height="60" x="0" y="0" rx="3"/>
    <rect id="ic_esign_done_fisdom-g" width="74" height="60" x="0" y="0" rx="3"/>
    <rect id="ic_esign_done_fisdom-i" width="80" height="60" x="0" y="0" rx="3"/>
  </defs>
  <g fill="none" fill-rule="evenodd">
    <rect width="80" height="60" fill="#FFF" fill-rule="nonzero" rx="3"/>
    <mask id="ic_esign_done_fisdom-b" fill="#fff">
      <use xlink:href="#ic_esign_done_fisdom-a"/>
    </mask>
    <path fill="#4F2DA7" fill-rule="nonzero" d="M59.6383122,23.404942 C66.1621189,23.404942 77.4305124,23.404942 79.8028057,15.154942 C82.1750991,6.904942 62.4494798,7.388942 57.8590922,1.580942 C53.2687046,-4.227058 45.8631955,-3.596058 38.8807454,-3.596058 C31.8982953,-3.596058 33.2204535,-13.330058 27.612352,-11.846058 C22.0042505,-10.362058 27.0192787,-2.928058 25.2400586,1.580942 L25.2400586,23.403942 L59.6383122,23.403942 L59.6383122,23.404942 Z" mask="url(#ic_esign_done_fisdom-b)" opacity=".05" transform="rotate(180 52.432 5.702)"/>
    <mask id="ic_esign_done_fisdom-d" fill="#fff">
      <use xlink:href="#ic_esign_done_fisdom-c"/>
    </mask>
    <path fill="#4F2DA7" fill-rule="nonzero" d="M18.6875676,59.675 C50.5232432,49.205 64.6724324,72.763 64.6724324,59.675 C64.6724324,46.587 47.692973,40.043 39.2032432,32.19 C30.7135135,24.337 34.4291892,11.25 21.5167568,11.25 C8.60432432,11.25 15.1102703,18.587 1.00108108,24.338 C-13.1081081,30.089 -13.1481081,70.146 18.6875676,59.675 L18.6875676,59.675 Z" mask="url(#ic_esign_done_fisdom-d)" opacity=".05"/>
    <mask id="ic_esign_done_fisdom-f" fill="#fff">
      <use xlink:href="#ic_esign_done_fisdom-e"/>
    </mask>
    <path fill="#4F2DA7" fill-rule="nonzero" d="M52.4324324,45.425 C76.008316,34.955 86.4864865,58.513 86.4864865,45.425 C86.4864865,32.337 73.9123617,25.793 67.6252993,17.94 C61.3382369,10.087 64.0898774,-3 54.5275862,-3 C44.9652949,-3 49.7832678,4.337 39.3347193,10.088 C28.8861708,15.839 18.3783784,0.926 18.3783784,17.94 C18.3783784,34.954 28.8565489,55.895 52.4324324,45.425 Z" mask="url(#ic_esign_done_fisdom-f)" opacity=".05" transform="matrix(-1 0 0 1 104.865 0)"/>
    <mask id="ic_esign_done_fisdom-h" fill="#fff">
      <use xlink:href="#ic_esign_done_fisdom-g"/>
    </mask>
    <g mask="url(#ic_esign_done_fisdom-h)">
      <g transform="translate(18 15)">
        <g transform="translate(12)">
          <rect width="20" height="30" fill="#EDDEFF" fill-rule="nonzero" stroke="#BA8EE0" rx="3"/>
          <path fill="#EDDEFF" fill-rule="nonzero" stroke="#BA8EE0" d="M3,0 L17,0 C18.6568542,0 20,1.34314575 20,3 L20,5 L0,5 L0,3 C0,1.34314575 1.34314575,0 3,0 Z"/>
        </g>
        <path fill="#BA8EE0" fill-rule="nonzero" d="M24.5,2 C24.7761424,2 25,2.22385763 25,2.5 C25,2.77614237 24.7761424,3 24.5,3 C24.2238576,3 24,2.77614237 24,2.5 C24,2.22385763 24.2238576,2 24.5,2 Z M22.5,2 C22.7761424,2 23,2.22385763 23,2.5 C23,2.77614237 22.7761424,3 22.5,3 L19.5,3 C19.2238576,3 19,2.77614237 19,2.5 C19,2.22385763 19.2238576,2 19.5,2 L22.5,2 Z"/>
        <path fill="#EDDEFF" fill-rule="nonzero" stroke="#BA8EE0" d="M15,30 L29,30 C30.6568542,30 32,28.6568542 32,27 L32,25 L12,25 L12,27 C12,28.6568542 13.3431458,30 15,30 Z"/>
        <path fill="#BA8EE0" fill-rule="nonzero" d="M23.5,26 C24.3284271,26 25,26.6715729 25,27.5 C25,28.3284271 24.3284271,29 23.5,29 L20.5,29 C19.6715729,29 19,28.3284271 19,27.5 C19,26.6715729 19.6715729,26 20.5,26 L23.5,26 L23.5,26 Z M23.5,26.9999991 L20.5,26.9999991 C20.2410109,26.9995232 20.0245256,27.1968916 20.0011247,27.4548218 C19.9777238,27.712752 20.1551539,27.9458587 20.41,27.992 L20.51,27.9999991 L23.51,27.9999991 C23.7689891,28.0004768 23.9854744,27.8031084 24.0088753,27.5451782 C24.0322762,27.287248 23.8548461,27.0541413 23.6,27.008 L23.5,26.9999991 Z"/>
        <path fill="#FFF" fill-rule="nonzero" d="M22.27,9.13 L23.036,10.01 L24.182,9.52 C24.368,9.44 24.582,9.543 24.642,9.735 L24.992,10.868 L26.235,10.89 C26.435,10.893 26.593,11.073 26.568,11.273 L26.43,12.453 L27.557,12.983 C27.727,13.063 27.801,13.268 27.722,13.439 C27.568,13.759 27.29,14.171 27.102,14.489 L27.918,15.434 C28.05,15.587 28.02,15.824 27.856,15.939 L26.892,16.624 L27.255,17.82 C27.315,18.015 27.192,18.217 26.995,18.256 L25.838,18.488 L25.686,19.728 C25.66,19.94 25.448,20.078 25.246,20.016 L24.118,19.759 L23.478,20.829 C23.4288444,20.912608 23.3463224,20.9712436 23.2511963,20.9901542 C23.1560703,21.0090648 23.0573961,20.9864501 22.98,20.928 L22.033,20.218 L21.013,20.935 C20.933795,20.990731 20.8345823,21.01004 20.7402573,20.9880818 C20.6459323,20.9661235 20.5654478,20.9049822 20.519,20.82 L19.943,19.785 L18.72,20.025 C18.512,20.065 18.32,19.909 18.314,19.698 L18.208,18.538 L16.996,18.256 C16.798,18.21 16.686,18.003 16.749,17.811 L17.129,16.687 L16.136,15.934 C15.966,15.804 15.954,15.551 16.111,15.406 L16.894,14.556 L16.291,13.462 C16.191,13.282 16.271,13.06 16.456,12.979 L17.539,12.511 L17.431,11.265 C17.413,11.05 17.595,10.872 17.806,10.893 L18.956,10.909 L19.361,9.726 C19.431,9.526 19.661,9.426 19.845,9.534 L20.9,10.024 L21.748,9.11 C21.8157826,9.0363288 21.9125876,8.99627389 22.0126073,9.00051365 C22.1126271,9.0047534 22.2056951,9.05285689 22.267,9.132 L22.27,9.13 Z"/>
        <path fill="#6107B5" fill-rule="nonzero" d="M22.27,9.13 L23.036,10.01 L24.182,9.52 C24.368,9.44 24.582,9.543 24.642,9.735 L24.992,10.868 L26.235,10.89 C26.435,10.893 26.593,11.073 26.568,11.273 L26.43,12.453 L27.557,12.983 C27.727,13.063 27.801,13.268 27.722,13.439 C27.568,13.759 27.29,14.171 27.102,14.489 L27.918,15.434 C28.05,15.587 28.02,15.824 27.856,15.939 L26.892,16.624 L27.255,17.82 C27.315,18.015 27.192,18.217 26.995,18.256 L25.838,18.488 L25.686,19.728 C25.66,19.94 25.448,20.078 25.246,20.016 L24.118,19.759 L23.478,20.829 C23.4288444,20.912608 23.3463224,20.9712436 23.2511963,20.9901542 C23.1560703,21.0090648 23.0573961,20.9864501 22.98,20.928 L22.033,20.218 L21.013,20.935 C20.933795,20.990731 20.8345823,21.01004 20.7402573,20.9880818 C20.6459323,20.9661235 20.5654478,20.9049822 20.519,20.82 L19.943,19.785 L18.72,20.025 C18.512,20.065 18.32,19.909 18.314,19.698 L18.208,18.538 L16.996,18.256 C16.798,18.21 16.686,18.003 16.749,17.811 L17.129,16.687 L16.136,15.934 C15.966,15.804 15.954,15.551 16.111,15.406 L16.894,14.556 L16.291,13.462 C16.191,13.282 16.271,13.06 16.456,12.979 L17.539,12.511 L17.431,11.265 C17.413,11.05 17.595,10.872 17.806,10.893 L18.956,10.909 L19.361,9.726 C19.431,9.526 19.661,9.426 19.845,9.534 L20.9,10.024 L21.748,9.11 C21.8157826,9.0363288 21.9125876,8.99627389 22.0126073,9.00051365 C22.1126271,9.0047534 22.2056951,9.05285689 22.267,9.132 L22.27,9.13 Z M19.2,15.13 C18.746,14.674 19.436,13.98 19.9,14.436 L21.428,15.972 L24.104,12.99 C24.532,12.512 25.257,13.167 24.828,13.645 L21.824,16.992 C21.642,17.217 21.304,17.236 21.1,17.029 L19.21,15.129 L19.2,15.13 Z"/>
        <path fill="#BA8EE0" fill-rule="nonzero" d="M37.063,16.943 C37.21,16.659 37.567,16.543 37.86,16.686 L42.465,18.914 C42.71,19.028 42.842,19.289 42.785,19.546 C42.728,19.803 42.5,20 42.228,20 L41.992,20 L37.387,17.772 L37.327,17.715 C37.034,17.573 36.915,17.228 37.061,16.945 L37.063,16.943 Z M43.4,9.43 C43.726,9.43 44,9.686 44,10 C44,10.314 43.736,10.57 43.4,10.57 L38.795,10.57 C38.469,10.57 38.195,10.314 38.195,10 C38.195,9.686 38.459,9.43 38.795,9.43 L43.4,9.43 Z M41.924,0.06 C42.114208,-0.0321679848 42.3385728,-0.0193038968 42.517,0.094 C42.6925231,0.204228688 42.7943789,0.401047697 42.783,0.608 C42.77,0.813 42.646,0.996 42.456,1.088 L37.851,3.316 L37.615,3.316 C37.345,3.306 37.115,3.12 37.058,2.863 C37.001,2.606 37.135,2.345 37.378,2.231 L41.983,0.003 L41.924,0.06 Z M6.937,16.943 C6.79,16.659 6.433,16.543 6.14,16.686 L1.535,18.914 C1.29,19.028 1.158,19.289 1.215,19.546 C1.272,19.803 1.501,19.99 1.772,19.999 L2.008,19.999 L6.613,17.771 L6.673,17.714 C6.966,17.572 7.085,17.227 6.939,16.944 L6.937,16.943 Z M0.6,9.43 C0.274,9.43 0,9.686 0,10 C0,10.314 0.264,10.57 0.6,10.57 L5.205,10.57 C5.531,10.57 5.805,10.314 5.805,10 C5.805,9.686 5.541,9.43 5.205,9.43 L0.6,9.43 Z M2.076,0.06 C1.88579199,-0.0321679848 1.66142716,-0.0193038968 1.483,0.094 C1.30747686,0.204228688 1.20562111,0.401047697 1.217,0.608 C1.23,0.813 1.354,0.996 1.544,1.088 L6.149,3.316 L6.385,3.316 C6.655,3.306 6.885,3.12 6.942,2.863 C6.999,2.606 6.865,2.345 6.622,2.231 L2.017,0.003 L2.076,0.06 Z" transform="translate(0 5)"/>
      </g>
    </g>
    <mask id="ic_esign_done_fisdom-j" fill="#fff">
      <use xlink:href="#ic_esign_done_fisdom-i"/>
    </mask>
    <path fill="#FFF" fill-rule="nonzero" d="M43.8190954,28.1830583 C43.5778892,27.9389806 43.1868167,27.9389806 42.9456105,28.1830583 L39.6764706,31.4911165 L38.0543895,29.8497249 C37.8131833,29.6056472 37.4221108,29.6056472 37.1809046,29.8497249 C36.9396985,30.0938026 36.9396985,30.4895307 37.1809046,30.7336084 L39.2397282,32.8169417 C39.4809344,33.0610194 39.8720068,33.0610194 40.113213,32.8169417 L43.8190954,29.0669417 C44.0603015,28.8228641 44.0603015,28.4271359 43.8190954,28.1830583 Z" mask="url(#ic_esign_done_fisdom-j)"/>
    <path fill="#3792FC" fill-rule="nonzero" d="M19.277,25.617 C20.337,25.111 21.421,24.517 22.377,23.842 C22.727,23.59 22.382,23.1 22.014,23.294 C20.994,23.829 19.998,24.519 19.089,25.222 C18.902,25.362 19.037,25.732 19.279,25.616 L19.277,25.617 Z M88.812,35.917 C88.592,34.765 88.302,33.567 87.882,32.467 C87.729,32.065 87.166,32.272 87.259,32.68 C87.516,33.804 87.931,34.94 88.379,36 C88.469,36.215 88.862,36.18 88.809,35.917 L88.812,35.917 Z M23.197,4.744 L23.137,4.692 C22.875,4.458 22.444,4.414 22.19,4.692 C21.936,4.97 21.94,5.359 22.19,5.639 L22.242,5.699 C22.476,5.964 22.962,5.956 23.197,5.699 C23.432,5.442 23.477,4.993 23.197,4.744 Z M83.497,8.821 C83.563,8.391 83.55,7.984 83.787,7.605 C84.267,6.853 84.947,7.041 85.605,7.373 C86.275,7.711 86.909,7.913 87.635,7.599 C88.773,7.107 89.309,5.389 88.221,4.581 C87.871,4.318 87.521,4.751 87.569,5.081 C87.635,5.541 87.864,6.053 87.469,6.447 C86.939,6.977 86.319,6.532 85.789,6.293 C85.219,6.036 84.611,5.98 84.025,6.218 C83.013,6.628 82.275,8.001 83.082,8.928 C83.195,9.056 83.467,8.998 83.496,8.828 L83.497,8.821 Z M71.757,52.241 C70.717,53.241 70.323,54.794 71.313,55.997 C72.246,57.129 74.057,57.365 75.223,56.465 C78.043,54.289 75.103,50.28 72.063,51.109 C71.499,51.262 71.64,52.067 72.196,52.096 C73.083,52.146 74.036,52.179 74.746,52.806 C75.509,53.473 75.526,54.606 74.899,55.376 C73.241,57.411 70.364,54.414 72.105,52.59 C72.329,52.362 71.989,52.022 71.757,52.242 L71.757,52.241 Z M10.749,45.611 L11.804,49.204 C11.892,49.49 12.164,49.582 12.411,49.412 L15.271,47.376 C15.447,47.236 15.409,46.952 15.236,46.832 C14.16,46.094 12.709,45.004 11.343,44.9969757 C10.997,44.993 10.753,45.484 11.107,45.685 C11.657,46.003 12.317,46.115 12.907,46.359 C13.585,46.641 14.259,46.973 14.859,47.399 L14.899,46.806 C13.872,47.438 12.905,48.146 11.931,48.853 L12.506,48.969 L11.2,45.461 C11.1,45.217 10.685,45.351 10.752,45.609 L10.749,45.611 Z" mask="url(#ic_esign_done_fisdom-j)" opacity=".05"/>
  </g>
</svg>
