<svg xmlns="http://www.w3.org/2000/svg" width="130" height="130" viewBox="0 0 130 130">
  <g fill="none" fill-rule="evenodd" transform="translate(3)">
    <g fill-rule="nonzero" opacity=".05">
      <path fill="#4F2DA7" d="M88.8216038,53.7484435 C101.357917,53.7484435 123.011548,53.7484435 127.570207,41.223691 C132.128866,28.6989385 94.2258208,29.4335281 85.4026094,20.6184531 C76.579398,11.803378 62.3530881,12.7583445 48.9333356,12.7583445 C35.5135832,12.7583445 38.0565196,-2.01871666 27.2797044,0.233592009 C16.5028891,2.48590068 26.1400396,13.7723404 22.7210451,20.6184531 C22.7210451,24.8731254 22.7210451,35.9164556 22.7210451,53.7484435 C52.7322183,53.7484435 74.7657379,53.7484435 88.8216038,53.7484435 Z" transform="rotate(180 74.975 26.874)"/>
      <path fill="#4F2DA7" d="M64,110.794349 C108.307692,95.0550304 128,130.468497 128,110.794349 C128,91.1202007 104.369231,81.2831266 92.5538461,69.4786375 C80.7384616,57.6741484 85.90919,38 67.9384615,38 C49.9677331,38 59.0214797,49.0285852 39.3846154,57.6741484 C19.747751,66.3197116 0,43.9022445 0,69.4786375 C0,95.0550304 19.6923077,126.533668 64,110.794349 Z"/>
      <path fill="#4F2DA7" d="M64,123.794349 C108.307692,108.05503 128,143.468497 128,123.794349 C128,104.120201 104.369231,94.2831266 92.5538461,82.4786375 C80.7384616,70.6741484 85.90919,51 67.9384615,51 C49.9677331,51 59.0214797,62.0285852 39.3846154,70.6741484 C19.747751,79.3197116 0,56.9022445 0,82.4786375 C0,108.05503 19.6923077,139.533668 64,123.794349 Z" transform="matrix(-1 0 0 1 128 0)"/>
      <path fill="#3792FC" d="M.661217021 57.1087087C2.27015557 56.3404398 3.91852888 55.4539757 5.36972836 54.4138579 5.90209773 54.0316934 5.37761531 53.2870636 4.8176416 53.5825516 3.26785521 54.3941587 1.7535601 55.4421562.373343213 56.509853.0894128808 56.7226043.294473676 57.2820617.661217021 57.1087087L.661217021 57.1087087zM105.323711 72.7435197C104.988516 70.9942306 104.55079 69.1740244 103.911947 67.5074719 103.679281 66.8967967 102.823547 67.2119839 102.965512 67.8305388 103.355916 69.5364897 103.986873 71.2621398 104.669094 72.8695946 104.807116 73.1966014 105.402581 73.1414436 105.323711 72.7435197L105.323711 72.7435197zM6.6173355 25.4198973C6.58578768 25.3923184 6.55818334 25.3647396 6.52663553 25.3411005 6.12834437 24.9865149 5.47372722 24.9195376 5.08726649 25.3411005 4.69686228 25.7666033 4.70869271 26.3536395 5.08726649 26.7791422 5.11487082 26.810661 5.14247516 26.8382398 5.16613602 26.8697586 5.52104894 27.2716223 6.25847911 27.2598028 6.6173355 26.8697586 6.97224841 26.4797144 7.04323099 25.798122 6.6173355 25.4198973L6.6173355 25.4198973zM97.2611953 31.6100694C97.3612005 30.9582563 97.3421519 30.3397475 97.7040753 29.7640586 98.4326844 28.6221963 99.4660712 28.9076619 100.466123 29.4119844 101.485223 29.9258225 102.447178 30.2303191 103.551997 29.7545431 105.280658 29.0075749 106.094985 26.4003226 104.442519 25.1728206 103.909158 24.7731688 103.380559 25.4297396 103.451992 25.9340622 103.551997 26.6334528 103.899634 27.4089676 103.299603 28.0084453 102.494799 28.8125067 101.551893 28.1369048 100.74709 27.7753151 99.8803784 27.3851788 98.9565211 27.2995392 98.0659988 27.6611289 96.527824 28.2843954 95.4087185 30.3682941 96.6325914 31.7765909 96.8040288 31.9716591 97.2183359 31.8812617 97.2611953 31.6100694L97.2611953 31.6100694zM80.4195119 97.5303569C78.8384969 99.0469834 78.2401048 101.406879 79.7455334 103.231866 81.162778 104.94987 83.9153818 105.308574 85.6853627 103.942981 89.9685906 100.639127 85.5026957 94.5537414 80.8856279 95.8123526 80.0289823 96.0451957 80.2431437 97.2660486 81.0871916 97.3101 82.4351486 97.3856166 83.8838875 97.4359611 84.9609933 98.3862126 86.1199844 99.3993946 86.1451798 101.117399 85.1940513 102.287907 82.6745055 105.377798 78.3030935 100.827918 80.9486166 98.0589736 81.2887553 97.7128556 80.7722484 97.196825 80.4195119 97.5303569L80.4195119 97.5303569zM17.7149548 87.4669701C18.2083436 89.2993981 18.7499987 91.1103941 19.3184684 92.9213902 19.4525415 93.3553863 19.8654865 93.4946937 20.240891 93.2375108 21.7156945 92.2355692 23.1851351 91.2550595 24.5848578 90.1459584 24.8530038 89.9316393 24.7940117 89.5030012 24.5312285 89.32083 22.8955374 88.2010129 20.6913764 86.5453982 18.6159257 86.5346535 18.0903593 86.5293242 17.7203177 87.274083 18.2566099 87.5794876 19.0932257 88.0617055 20.0960921 88.2331608 20.9917001 88.6028611 22.0213811 89.0314993 23.0456992 89.5351491 23.9573959 90.1834642 23.9788476 89.8834175 24.0002993 89.5833708 24.016388 89.2833242 22.4557778 90.242402 20.9863371 91.3193552 19.5061707 92.3909505 19.7957685 92.4498883 20.0907292 92.508826 20.380327 92.5677637 19.7475022 90.7781996 19.0985886 89.0047094 18.3960459 87.2419351 18.2458841 86.8722347 17.6130593 87.0758378 17.7149548 87.4669701L17.7149548 87.4669701z"/>
    </g>
    <g fill-rule="nonzero" transform="translate(39 41)">
      <path fill="#DFD8EF" d="M69.7787879,27.5161616 C67.758903,27.5161616 66.1151515,25.8724101 66.1151515,23.8525253 C66.1151515,23.1771949 65.5680485,22.6313131 64.8939394,22.6313131 C64.2198303,22.6313131 63.6727273,23.1771949 63.6727273,23.8525253 C63.6727273,25.8724101 62.0289758,27.5161616 60.0090909,27.5161616 C59.3349818,27.5161616 58.7878788,28.0620434 58.7878788,28.7373737 C58.7878788,29.412704 59.3349818,29.9585859 60.0090909,29.9585859 C62.0289758,29.9585859 63.6727273,31.6023374 63.6727273,33.6222222 C63.6727273,34.2975525 64.2198303,34.8434343 64.8939394,34.8434343 C65.5680485,34.8434343 66.1151515,34.2975525 66.1151515,33.6222222 C66.1151515,31.6023374 67.758903,29.9585859 69.7787879,29.9585859 C70.452897,29.9585859 71,29.412704 71,28.7373737 C71,28.0620434 70.452897,27.5161616 69.7787879,27.5161616 Z M64.8939394,29.9622495 C64.5458939,29.4981889 64.131903,29.0854192 63.6690636,28.7373737 C64.131903,28.3893283 64.5458939,27.9765586 64.8939394,27.512498 C65.2419848,27.9765586 65.6559758,28.3893283 66.1188152,28.7373737 C65.6559758,29.0854192 65.2419848,29.4981889 64.8939394,29.9622495 Z" opacity=".5"/>
      <path fill="#F5F3F6" d="M0.90530303,6.10606061 C0.90530303,6.78139091 1.45240606,7.32727273 2.12651515,7.32727273 C4.1464,7.32727273 5.79015152,8.97102424 5.79015152,10.9909091 C5.79015152,11.6662394 6.33725455,12.2121212 7.01136364,12.2121212 C7.68547273,12.2121212 8.23257576,11.6662394 8.23257576,10.9909091 C8.23257576,8.97102424 9.87632727,7.32727273 11.8962121,7.32727273 C12.5703212,7.32727273 13.1174242,6.78139091 13.1174242,6.10606061 C13.1174242,5.4307303 12.5703212,4.88484848 11.8962121,4.88484848 C9.87632727,4.88484848 8.23257576,3.24109697 8.23257576,1.22121212 C8.23257576,0.545881818 7.68547273,0 7.01136364,0 C6.33725455,0 5.79015152,0.545881818 5.79015152,1.22121212 C5.79015152,3.24109697 4.1464,4.88484848 2.12651515,4.88484848 C1.45240606,4.88484848 0.90530303,5.4307303 0.90530303,6.10606061 Z M7.01136364,4.88118485 C7.35940909,5.34524545 7.7734,5.75801515 8.23623939,6.10606061 C7.7734,6.45410606 7.35940909,6.86687576 7.01136364,7.33093636 C6.66331818,6.86687576 6.24932727,6.45410606 5.78648788,6.10606061 C6.24932727,5.75801515 6.66331818,5.34524545 7.01136364,4.88118485 Z"/>
    </g>
    <g transform="translate(45 46)">
      <g stroke-linejoin="round" transform="translate(16.364 10.91)">
        <path fill="#B39FE7" stroke="#6E54B7" stroke-width="2.727" d="M4.93125065,-6.21724894e-15 L25.0050276,-6.21724894e-15 C26.3023242,-7.78782608e-15 27.4200744,0.913838489 27.6778979,2.18525718 L30,13.6363636 L30,13.6363636 L0,13.6363636 L2.25551672,2.1995754 C2.5075915,0.921408917 3.62846469,-5.53384183e-15 4.93125065,-6.21724894e-15 Z"/>
        <path stroke="#DFD8EF" stroke-linecap="round" stroke-width="1.364" d="M4.53115694,7.56769437 L4.86740227,5.73652706 C5.10512343,4.44191513 6.23357086,3.5018106 7.54982745,3.5018106 L12.6332686,3.5018106 L12.6332686,3.5018106"/>
      </g>
      <path fill="#DFD8EF" fill-rule="nonzero" d="M37.2146993,10.5609233 C40.1310178,10.5609233 42.495161,12.9250665 42.495161,15.8413849 C42.495161,16.8134911 43.2832087,17.6015388 44.2553149,17.6015388 C45.227421,17.6015388 46.0154688,16.8134911 46.0154688,15.8413849 C46.0154688,12.9250665 48.379612,10.5609233 51.2959304,10.5609233 C52.2680365,10.5609233 53.0560843,9.77287556 53.0560843,8.80076941 C53.0560843,7.82866327 52.2680365,7.04061553 51.2959304,7.04061553 C48.379612,7.04061553 46.0154688,4.67647232 46.0154688,1.76015388 C46.0154688,0.788047736 45.227421,3.68594044e-14 44.2553149,3.68594044e-14 C43.2832087,3.68594044e-14 42.495161,0.788047736 42.495161,1.76015388 C42.495161,4.67647232 40.1310178,7.04061553 37.2146993,7.04061553 C36.2425932,7.04061553 35.4545455,7.82866327 35.4545455,8.80076941 C35.4545455,9.77287556 36.2425932,10.5609233 37.2146993,10.5609233 Z M44.2553149,6.98605076 C44.7680676,7.67657961 45.3795047,8.28801666 46.0700335,8.80076941 C45.3795047,9.31352216 44.7680676,9.92495922 44.2553149,10.6154881 C43.7425621,9.92495922 43.1311251,9.31352216 42.4405962,8.80076941 C43.1311251,8.28801666 43.7425621,7.67657961 44.2553149,6.98605076 L44.2553149,6.98605076 Z"/>
      <g stroke-linejoin="round" transform="translate(0 24.545)">
        <path fill="#B39FE7" stroke="#6E54B7" stroke-width="2.727" d="M4.93125065,-6.21724894e-15 L25.0050276,-6.21724894e-15 C26.3023242,-7.78782608e-15 27.4200744,0.913838489 27.6778979,2.18525718 L30,13.6363636 L30,13.6363636 L0,13.6363636 L2.25551672,2.1995754 C2.5075915,0.921408917 3.62846469,-5.53384183e-15 4.93125065,-6.21724894e-15 Z"/>
        <path stroke="#DFD8EF" stroke-linecap="round" stroke-width="1.364" d="M4.53115694,7.56769437 L4.86740227,5.73652706 C5.10512343,4.44191513 6.23357086,3.5018106 7.54982745,3.5018106 L12.6332686,3.5018106 L12.6332686,3.5018106"/>
      </g>
      <g stroke-linejoin="round" transform="translate(30 24.545)">
        <path fill="#B39FE7" stroke="#6E54B7" stroke-width="2.727" d="M4.93125065,-6.21724894e-15 L25.0050276,-6.21724894e-15 C26.3023242,-7.78782608e-15 27.4200744,0.913838489 27.6778979,2.18525718 L30,13.6363636 L30,13.6363636 L0,13.6363636 L2.25551672,2.1995754 C2.5075915,0.921408917 3.62846469,-5.53384183e-15 4.93125065,-6.21724894e-15 Z"/>
        <path stroke="#DFD8EF" stroke-linecap="round" stroke-width="1.364" d="M4.53115694,7.56769437 L4.86740227,5.73652706 C5.10512343,4.44191513 6.23357086,3.5018106 7.54982745,3.5018106 L12.6332686,3.5018106 L12.6332686,3.5018106"/>
      </g>
    </g>
  </g>
</svg>
