<svg width="80" height="60" viewBox="0 0 80 60" fill="none" xmlns="http://www.w3.org/2000/svg">
<rect width="80" height="60" rx="3" fill="white"/>
<mask id="mask0" mask-type="alpha" maskUnits="userSpaceOnUse" x="0" y="0" width="80" height="60">
<rect width="80" height="60" rx="3" fill="white"/>
</mask>
<g mask="url(#mask0)">
<path opacity="0.05" d="M46.7494 -12C38.4994 -12 24.2494 -12 21.2494 -3.75C18.2494 4.5 43.1929 4.01613 48.9994 9.82258C54.8058 15.629 64.168 15 72.9994 15C81.8307 15 80.1573 24.7336 87.2494 23.25C94.3415 21.7664 87.9994 14.3321 90.2494 9.82258C90.2494 5.61878 90.2494 -12 90.2494 -12C90.2494 -12 60.6244 -12 46.7494 -12Z" fill="#6041AF"/>
<path opacity="0.05" d="M7.28561 59.6752C36.7333 49.2049 49.8212 72.763 49.8212 59.6752C49.8212 46.5873 34.1158 40.0433 26.263 32.1906C18.4103 24.3379 21.8469 11.25 9.90318 11.25C-2.0405 11.25 3.97679 18.5866 -9.07424 24.3379C-22.1253 30.0892 -22.1621 70.1455 7.28561 59.6752Z" fill="#6041AF"/>
<path opacity="0.05" d="M56.0356 45.4252C26.5879 34.9549 13.5 58.513 13.5 45.4252C13.5 32.3373 29.2055 25.7933 37.0582 17.9406C44.9109 10.0879 41.4743 -3 53.418 -3C65.3617 -3 59.3444 4.33657 72.3955 10.0879C85.4465 15.8392 98.5712 0.926365 98.5712 17.9406C98.5712 34.9549 85.4833 55.8955 56.0356 45.4252Z" fill="#6041AF"/>
<path opacity="0.05" d="M9.27705 25.6173C10.3359 25.1112 11.4206 24.5273 12.3757 23.8422C12.726 23.5904 12.3809 23.1 12.0123 23.2946C10.9924 23.8292 9.99591 24.5195 9.0876 25.2228C8.90075 25.3629 9.0357 25.7314 9.27705 25.6173Z" fill="#3792FC"/>
<path opacity="0.05" d="M78.8123 35.9158C78.5917 34.7636 78.3036 33.5646 77.8832 32.4669C77.7301 32.0646 77.167 32.2722 77.2604 32.6797C77.5173 33.8034 77.9325 34.9401 78.3815 35.9989C78.4723 36.2143 78.8642 36.178 78.8123 35.9158Z" fill="#3792FC"/>
<path opacity="0.05" d="M13.1967 4.74398C13.1759 4.72581 13.1578 4.70764 13.137 4.69207C12.8749 4.45851 12.4441 4.41439 12.1898 4.69207C11.9329 4.97235 11.9406 5.35903 12.1898 5.6393C12.2079 5.66007 12.2261 5.67823 12.2417 5.69899C12.4752 5.9637 12.9605 5.95591 13.1967 5.69899C13.4303 5.44207 13.477 4.99311 13.1967 4.74398Z" fill="#3792FC"/>
<path opacity="0.05" d="M73.5064 8.82142C73.5723 8.39207 73.5597 7.98466 73.7979 7.60546C74.2774 6.85332 74.9575 7.04135 75.6156 7.37355C76.2862 7.71201 76.9193 7.91258 77.6464 7.59919C78.784 7.10716 79.3199 5.38978 78.2324 4.58123C77.8814 4.31798 77.5335 4.75046 77.5805 5.08265C77.6464 5.54334 77.8751 6.05417 77.4803 6.44904C76.9506 6.97867 76.3301 6.53366 75.8005 6.29548C75.2301 6.0385 74.6221 5.98209 74.0361 6.22027C73.0238 6.63081 72.2874 8.00346 73.0928 8.9311C73.2056 9.05959 73.4782 9.00005 73.5064 8.82142Z" fill="#3792FC"/>
<path opacity="0.05" d="M61.765 52.2428C60.7246 53.2418 60.3308 54.7963 61.3215 55.9984C62.2542 57.13 64.0656 57.3663 65.2304 56.4668C68.0492 54.2906 65.1102 50.2821 62.0718 51.1112C61.508 51.2646 61.649 52.0687 62.2044 52.0977C63.0915 52.1475 64.0449 52.1806 64.7537 52.8066C65.5165 53.4739 65.533 54.6056 64.9071 55.3766C63.249 57.4119 60.3723 54.4149 62.1132 52.591C62.3371 52.363 61.9972 52.0231 61.765 52.2428Z" fill="#3792FC"/>
<path opacity="0.05" d="M0.757268 45.6141C1.08196 46.8211 1.43842 48.014 1.81252 49.2069C1.90075 49.4928 2.17251 49.5845 2.41956 49.4151C3.39011 48.7552 4.35713 48.1093 5.27827 47.3788C5.45473 47.2376 5.41591 46.9552 5.24298 46.8352C4.16655 46.0976 2.71602 45.0071 1.35019 45C1.00432 44.9965 0.760797 45.4871 1.11372 45.6882C1.66429 46.0059 2.32427 46.1188 2.91366 46.3623C3.59128 46.6447 4.26537 46.9764 4.86535 47.4035C4.87946 47.2058 4.89358 47.0082 4.90417 46.8105C3.87715 47.4423 2.91013 48.1517 1.93605 48.8575C2.12663 48.8963 2.32074 48.9352 2.51132 48.974C2.09486 47.7952 1.66782 46.627 1.20549 45.4659C1.10667 45.2224 0.690212 45.3565 0.757268 45.6141Z" fill="#3792FC"/>
<path d="M47.7609 18.49C48.9478 15.618 48.1064 12.3776 46.3673 11.0995C44.9136 10.0311 43.2198 10.3379 43.2198 10.3379C43.2198 10.3379 41.9451 9 39.6464 9C36.5071 9 30.1321 10.5917 31.3451 18.5927L47.7609 18.49Z" fill="#6041AF"/>
<path d="M32.4453 21.6964L33.3701 20.7437L34.1084 19.6198L33.3701 18.4959C33.091 18.3588 32.7772 18.2816 32.4453 18.2816C31.5541 18.2816 30.7932 18.8367 30.4881 19.6199C30.4881 21.051 31.5541 21.6964 32.4453 21.6964Z" fill="#DFD8EF"/>
<path d="M30.488 19.6198C30.3959 19.8561 30.3449 20.1129 30.3449 20.3818C30.3449 21.5418 31.2853 22.4822 32.4453 22.4822C32.7772 22.4822 33.091 22.405 33.3701 22.2678L34.1084 21.5649L33.3701 20.7436C33.091 20.8807 32.7773 20.9579 32.4453 20.9579C31.5541 20.9581 30.7932 20.4029 30.488 19.6198Z" fill="#DFD8EF"/>
<path d="M30.2013 34.7435C30.0027 35.2199 29.8198 35.7271 29.657 36.2677L39.6927 37.006L49.6359 36.2677C49.473 35.7271 49.2901 35.2199 49.0916 34.7435L39.6927 34.0052L30.2013 34.7435Z" fill="#907CC2"/>
<path d="M49.0916 34.7435C46.8035 29.2515 42.4268 27.9011 42.4268 27.9011H42.425C41.5873 28.3155 40.6444 28.5494 39.6465 28.5494C38.6486 28.5494 37.7057 28.3155 36.8679 27.9011H36.8661C36.8661 27.9011 32.4894 29.2516 30.2013 34.7435H49.0916Z" fill="#907CC2"/>
<path d="M36.8673 27.9008L36.866 27.9011L38.2562 31.4242L39.6464 32.1625L41.0365 31.4242L42.4267 27.9011L42.4255 27.9008C42.4266 27.9011 36.8673 27.9008 36.8673 27.9008Z" fill="#E0D3FC"/>
<path d="M37.6501 34.7435L37.3719 36.2677L39.6926 37.006L41.9208 36.2677L41.6425 34.7435L39.6463 34.0052L37.6501 34.7435Z" fill="#E0D3FC"/>
<path d="M41.6427 34.7435L41.0367 31.4243H38.2564L37.6503 34.7435H41.6427Z" fill="#E0D3FC"/>
<path d="M24.5403 50.2141H54.6601C56.0631 50.2141 57.2004 49.4365 57.2004 46.9355V38.808C57.2004 37.405 56.0631 36.2676 54.6601 36.2676H24.5403C23.1374 36.2676 22 37.405 22 38.808V46.9355C22 49.1618 23.1374 50.2141 24.5403 50.2141Z" fill="#D5CCE9"/>
<path d="M54.6601 49.4758H24.5403C23.1374 49.4758 22 48.3384 22 46.9354V48.4596C22 49.8626 23.1374 51 24.5403 51H54.6601C56.0631 51 57.2004 49.8626 57.2004 48.4596V46.9354C57.2004 48.3385 56.0631 49.4758 54.6601 49.4758Z" fill="#C1B4DD"/>
<path d="M46.8474 21.6964L45.9225 20.7437L45.1843 19.6198L45.9225 18.4959C46.2016 18.3588 46.5154 18.2816 46.8474 18.2816C47.7385 18.2816 48.4994 18.8367 48.8045 19.6199C48.8046 21.051 47.7385 21.6964 46.8474 21.6964Z" fill="#DFD8EF"/>
<path d="M48.8046 19.6198C48.8968 19.8561 48.9478 20.1129 48.9478 20.3818C48.9478 21.5418 48.0074 22.4822 46.8474 22.4822C46.5155 22.4822 46.2017 22.405 45.9225 22.2678L45.1843 21.5649L45.9225 20.7436C46.2016 20.8807 46.5154 20.9579 46.8474 20.9579C47.7385 20.9581 48.4995 20.4029 48.8046 19.6198Z" fill="#DFD8EF"/>
<path d="M39.6463 27.7635C43.1126 27.7635 45.9225 25.5834 45.9225 20.749V18.4959C44.3013 17.7667 42.5635 15.608 41.9351 14.7765C41.7991 14.5965 41.5439 14.5606 41.3633 14.6956C40.2586 15.5215 36.562 18.1237 33.37 18.4959V20.749C33.37 25.2621 36.1799 27.7635 39.6463 27.7635Z" fill="#DFD8EF"/>
<path d="M39.6465 27.0252C36.1803 27.0252 33.3703 24.2153 33.3703 20.749V22.2732C33.3703 25.7395 36.1803 28.5495 39.6465 28.5495C43.1128 28.5495 45.9228 25.7395 45.9228 22.2732V20.749C45.9228 24.2153 43.1128 27.0252 39.6465 27.0252Z" fill="#DFD8EF"/>
<path d="M42.4783 21.643C42.8297 21.643 43.1146 21.3581 43.1146 21.0067V19.9881C43.1146 19.6367 42.8297 19.3518 42.4783 19.3518C42.1268 19.3518 41.8419 19.6367 41.8419 19.9881V21.0066C41.8419 21.3581 42.1268 21.643 42.4783 21.643Z" fill="#AD95D6"/>
<path d="M36.907 21.643C37.2584 21.643 37.5433 21.3581 37.5433 21.0067V19.9881C37.5433 19.6367 37.2584 19.3518 36.907 19.3518C36.5556 19.3518 36.2707 19.6367 36.2707 19.9881V21.0066C36.2707 21.3581 36.5556 21.643 36.907 21.643Z" fill="#AD95D6"/>
<path d="M37.4779 24.3299C37.6739 24.7985 38.3573 25.5834 39.6927 25.5834C41.0281 25.5834 41.7114 24.7985 41.9074 24.3299C41.9439 24.2497 41.9647 24.1608 41.9647 24.0669C41.9647 23.7149 41.6793 23.4294 41.3273 23.4294C41.0617 23.4294 40.8337 23.5917 40.7379 23.8226C40.7379 23.8225 40.7379 23.8226 40.7379 23.8225C40.714 23.8722 40.4812 24.3082 39.6927 24.3082C38.9041 24.3082 38.6714 23.8722 38.6474 23.8225C38.6474 23.8226 38.6475 23.8225 38.6474 23.8226C38.5516 23.5916 38.3237 23.4294 38.0581 23.4294C37.706 23.4294 37.4207 23.7148 37.4207 24.0669C37.4207 24.1608 37.4415 24.2497 37.4779 24.3299Z" fill="#AD95D6"/>
<path d="M32.2 46.29C32.14 46.29 32.09 46.2733 32.05 46.24C32.0167 46.2 32 46.15 32 46.09V45.65C32 45.5767 32.0167 45.5167 32.05 45.47C32.0833 45.4233 32.1433 45.37 32.23 45.31L34.9 43.48L32.23 41.65C32.1433 41.5967 32.0833 41.5467 32.05 41.5C32.0167 41.4533 32 41.3933 32 41.32V40.88C32 40.82 32.0167 40.7733 32.05 40.74C32.09 40.7 32.14 40.68 32.2 40.68C32.26 40.68 32.34 40.7133 32.44 40.78L35.59 42.94C35.6967 43.02 35.77 43.0933 35.81 43.16C35.8567 43.2267 35.88 43.3067 35.88 43.4V43.57C35.88 43.6633 35.8567 43.7433 35.81 43.81C35.7633 43.8767 35.69 43.9467 35.59 44.02L32.44 46.19C32.34 46.2567 32.26 46.29 32.2 46.29Z" fill="#4F2DA7"/>
<path d="M39.3121 47.1C38.7788 47.1 38.3154 46.9933 37.9221 46.78C37.5288 46.56 37.2288 46.2667 37.0221 45.9C36.8154 45.5333 36.7121 45.1333 36.7121 44.7C36.7121 44.3467 36.7821 44.0133 36.9221 43.7C37.0688 43.38 37.2321 43.0967 37.4121 42.85L39.3121 40.2C39.3188 40.1933 39.3388 40.17 39.3721 40.13C39.3988 40.09 39.4354 40.06 39.4821 40.04C39.5288 40.0133 39.5821 40 39.6421 40H40.1721C40.2321 40 40.2788 40.0233 40.3121 40.07C40.3521 40.11 40.3721 40.16 40.3721 40.22C40.3721 40.2667 40.3588 40.31 40.3321 40.35L38.8721 42.39C39.0188 42.3433 39.2088 42.32 39.4421 42.32C39.9221 42.3267 40.3454 42.4367 40.7121 42.65C41.0854 42.8633 41.3721 43.15 41.5721 43.51C41.7788 43.87 41.8821 44.2633 41.8821 44.69C41.8821 45.1167 41.7788 45.5167 41.5721 45.89C41.3721 46.2567 41.0754 46.55 40.6821 46.77C40.2954 46.99 39.8388 47.1 39.3121 47.1ZM39.3021 46.25C39.5888 46.25 39.8521 46.19 40.0921 46.07C40.3388 45.95 40.5321 45.7733 40.6721 45.54C40.8188 45.3 40.8921 45.0167 40.8921 44.69C40.8921 44.37 40.8188 44.0933 40.6721 43.86C40.5321 43.6267 40.3388 43.45 40.0921 43.33C39.8521 43.21 39.5888 43.15 39.3021 43.15C39.0221 43.15 38.7588 43.21 38.5121 43.33C38.2721 43.45 38.0788 43.6267 37.9321 43.86C37.7854 44.0933 37.7121 44.37 37.7121 44.69C37.7121 45.0167 37.7854 45.3 37.9321 45.54C38.0788 45.7733 38.2721 45.95 38.5121 46.07C38.7521 46.19 39.0154 46.25 39.3021 46.25Z" fill="#4F2DA7"/>
<path d="M45.1775 47.1C44.6708 47.1 44.2342 47.01 43.8675 46.83C43.5008 46.65 43.2175 46.4133 43.0175 46.12C42.8242 45.8267 42.7208 45.5133 42.7075 45.18V45.16C42.7075 45.1067 42.7275 45.0633 42.7675 45.03C42.8075 44.9967 42.8542 44.98 42.9075 44.98H43.4475C43.5875 44.98 43.6775 45.0533 43.7175 45.2C43.8108 45.5533 43.9908 45.8167 44.2575 45.99C44.5242 46.1633 44.8308 46.25 45.1775 46.25C45.6242 46.25 45.9942 46.1167 46.2875 45.85C46.5875 45.5767 46.7375 45.2 46.7375 44.72C46.7375 44.2867 46.5875 43.9367 46.2875 43.67C45.9942 43.4033 45.6242 43.27 45.1775 43.27C44.9375 43.27 44.7442 43.3033 44.5975 43.37C44.4508 43.43 44.3042 43.5167 44.1575 43.63C44.0775 43.69 44.0075 43.7367 43.9475 43.77C43.8942 43.7967 43.8342 43.81 43.7675 43.81H43.2475C43.1875 43.81 43.1342 43.79 43.0875 43.75C43.0408 43.7033 43.0208 43.65 43.0275 43.59L43.3475 40.25C43.3542 40.17 43.3775 40.11 43.4175 40.07C43.4642 40.0233 43.5242 40 43.5975 40H47.0875C47.1542 40 47.2075 40.0233 47.2475 40.07C47.2942 40.11 47.3175 40.1633 47.3175 40.23V40.62C47.3175 40.6867 47.2942 40.7433 47.2475 40.79C47.2075 40.83 47.1542 40.85 47.0875 40.85H44.2075L44.0175 42.82C44.3775 42.5933 44.8108 42.48 45.3175 42.48C45.7575 42.48 46.1608 42.57 46.5275 42.75C46.9008 42.93 47.1942 43.19 47.4075 43.53C47.6275 43.87 47.7375 44.27 47.7375 44.73C47.7375 45.2233 47.6275 45.65 47.4075 46.01C47.1942 46.3633 46.8942 46.6333 46.5075 46.82C46.1208 47.0067 45.6775 47.1 45.1775 47.1Z" fill="#4F2DA7"/>
</g>
</svg>
