<svg xmlns="http://www.w3.org/2000/svg" width="130" height="130" viewBox="0 0 130 130">
  <defs>
    <linearGradient id="ic_invest_learn-a" x1="39.335%" x2="61.817%" y1="42.721%" y2="55.123%">
      <stop offset="0%" stop-color="#8668D8"/>
      <stop offset="100%" stop-color="#7158B9"/>
    </linearGradient>
    <linearGradient id="ic_invest_learn-b" x1="38.581%" x2="59.487%" y1="50.112%" y2="42.291%">
      <stop offset="0%" stop-color="#7F66BF"/>
      <stop offset="100%" stop-color="#8668D8"/>
    </linearGradient>
  </defs>
  <g fill="none" fill-rule="evenodd" transform="translate(-71 4)">
    <g opacity=".05" transform="translate(70)">
      <path fill="#7F66BF" fill-rule="nonzero" d="M95.2964641,53.7484435 C107.832777,53.7484435 129.486408,53.7484435 134.045067,41.223691 C138.603727,28.6989385 100.700681,29.4335281 91.8774697,20.6184531 C83.0542583,11.803378 68.8279485,12.7583445 55.408196,12.7583445 C41.9884435,12.7583445 44.53138,-2.01871666 33.7545647,0.233592009 C22.9777494,2.48590068 32.6148999,13.7723404 29.1959055,20.6184531 C29.1959055,24.8731254 29.1959055,35.9164556 29.1959055,53.7484435 C59.2070787,53.7484435 81.2405982,53.7484435 95.2964641,53.7484435 Z" transform="rotate(180 81.45 26.874)"/>
      <path fill="#7F66BF" fill-rule="nonzero" d="M64.6351235,109.813776 C109.382517,93.9182631 129.270247,129.683167 129.270247,109.813776 C129.270247,89.944385 105.404971,80.0096896 93.4723324,68.0880551 C81.5396944,56.1664206 86.7617361,36.2970297 68.6126696,36.2970297 C50.4636032,36.2970297 59.6071974,47.4350605 39.7754607,56.1664206 C19.9437239,64.8977806 0,42.2578469 0,68.0880551 C0,93.9182631 19.8877303,125.709288 64.6351235,109.813776 Z"/>
      <path fill="#7F66BF" fill-rule="nonzero" d="M64.3484594,88.8493078 C108.656152,73.109989 128.348459,108.523456 128.348459,88.8493078 C128.348459,69.1751594 104.71769,59.3380852 92.9023055,47.5335961 C81.086921,35.7291071 86.2576493,16.0549586 68.2869209,16.0549586 C50.3161925,16.0549586 59.3699391,27.0835439 39.7330748,35.7291071 C20.0962104,44.3746702 0.348459362,21.9572031 0.348459362,47.5335961 C0.348459362,73.109989 20.0407671,104.588627 64.3484594,88.8493078 Z" transform="matrix(-1 0 0 1 128.697 0)"/>
      <path fill="#3792FC" fill-rule="nonzero" d="M6.66121702 57.1087087C8.27015557 56.3404398 9.91852888 55.4539757 11.3697284 54.4138579 11.9020977 54.0316934 11.3776153 53.2870636 10.8176416 53.5825516 9.26785521 54.3941587 7.7535601 55.4421562 6.37334321 56.509853 6.08941288 56.7226043 6.29447368 57.2820617 6.66121702 57.1087087L6.66121702 57.1087087zM112.323711 72.7435197C111.988516 70.9942306 111.55079 69.1740244 110.911947 67.5074719 110.679281 66.8967967 109.823547 67.2119839 109.965512 67.8305388 110.355916 69.5364897 110.986873 71.2621398 111.669094 72.8695946 111.807116 73.1966014 112.402581 73.1414436 112.323711 72.7435197L112.323711 72.7435197zM12.6173355 25.4198973C12.5857877 25.3923184 12.5581833 25.3647396 12.5266355 25.3411005 12.1283444 24.9865149 11.4737272 24.9195376 11.0872665 25.3411005 10.6968623 25.7666033 10.7086927 26.3536395 11.0872665 26.7791422 11.1148708 26.810661 11.1424752 26.8382398 11.166136 26.8697586 11.5210489 27.2716223 12.2584791 27.2598028 12.6173355 26.8697586 12.9722484 26.4797144 13.043231 25.798122 12.6173355 25.4198973L12.6173355 25.4198973zM104.261195 31.6100694C104.3612 30.9582563 104.342152 30.3397475 104.704075 29.7640586 105.432684 28.6221963 106.466071 28.9076619 107.466123 29.4119844 108.485223 29.9258225 109.447178 30.2303191 110.551997 29.7545431 112.280658 29.0075749 113.094985 26.4003226 111.442519 25.1728206 110.909158 24.7731688 110.380559 25.4297396 110.451992 25.9340622 110.551997 26.6334528 110.899634 27.4089676 110.299603 28.0084453 109.494799 28.8125067 108.551893 28.1369048 107.74709 27.7753151 106.880378 27.3851788 105.956521 27.2995392 105.065999 27.6611289 103.527824 28.2843954 102.408719 30.3682941 103.632591 31.7765909 103.804029 31.9716591 104.218336 31.8812617 104.261195 31.6100694L104.261195 31.6100694zM86.4195119 97.5303569C84.8384969 99.0469834 84.2401048 101.406879 85.7455334 103.231866 87.162778 104.94987 89.9153818 105.308574 91.6853627 103.942981 95.9685906 100.639127 91.5026957 94.5537414 86.8856279 95.8123526 86.0289823 96.0451957 86.2431437 97.2660486 87.0871916 97.3101 88.4351486 97.3856166 89.8838875 97.4359611 90.9609933 98.3862126 92.1199844 99.3993946 92.1451798 101.117399 91.1940513 102.287907 88.6745055 105.377798 84.3030935 100.827918 86.9486166 98.0589736 87.2887553 97.7128556 86.7722484 97.196825 86.4195119 97.5303569L86.4195119 97.5303569zM23.7149548 97.4669701C24.2083436 99.2993981 24.7499987 101.110394 25.3184684 102.92139 25.4525415 103.355386 25.8654865 103.494694 26.240891 103.237511 27.7156945 102.235569 29.1851351 101.25506 30.5848578 100.145958 30.8530038 99.9316393 30.7940117 99.5030012 30.5312285 99.32083 28.8955374 98.2010129 26.6913764 96.5453982 24.6159257 96.5346535 24.0903593 96.5293242 23.7203177 97.274083 24.2566099 97.5794876 25.0932257 98.0617055 26.0960921 98.2331608 26.9917001 98.6028611 28.0213811 99.0314993 29.0456992 99.5351491 29.9573959 100.183464 29.9788476 99.8834175 30.0002993 99.5833708 30.016388 99.2833242 28.4557778 100.242402 26.9863371 101.319355 25.5061707 102.390951 25.7957685 102.449888 26.0907292 102.508826 26.380327 102.567764 25.7475022 100.7782 25.0985886 99.0047094 24.3960459 97.2419351 24.2458841 96.8722347 23.6130593 97.0758378 23.7149548 97.4669701L23.7149548 97.4669701z"/>
    </g>
    <g transform="translate(120 37)">
      <path fill="url(#ic_invest_learn-a)" fill-rule="nonzero" d="M8.41333333,0.00907407407 C8.41185185,0.00907407407 8.41018519,0.00907407407 8.4087037,0.00907407407 C7.88851852,0.00907407407 7.39925926,0.211851852 7.02981481,0.58037037 C6.6562963,0.952962963 6.45055556,1.44907407 6.45055556,1.97722222 L6.45055556,31.4892593 C6.45055556,32.5714815 7.33444444,33.4540741 8.42111111,33.4568519 C13.0022222,33.4677778 20.6774074,34.4225926 25.9722222,39.9635185 L25.9722222,9.07833333 C25.9722222,8.71148148 25.8785185,8.36685185 25.7016667,8.08166667 C21.3559259,1.08314815 13.0048148,0.0198148148 8.41333333,0.00907407407 Z"/>
      <path fill="url(#ic_invest_learn-b)" fill-rule="nonzero" d="M48.5494444,31.4892593 L48.5494444,1.97703704 C48.5494444,1.44888889 48.3437037,0.952777778 47.9701852,0.580185185 C47.6007407,0.211666667 47.1111111,0.00888888889 46.5914815,0.00888888889 C46.5898148,0.00888888889 46.5881481,0.00888888889 46.5866667,0.00888888889 C41.9953704,0.0198148148 33.6442593,1.08314815 29.2983333,8.08166667 C29.1214815,8.36685185 29.027963,8.71148148 29.027963,9.07833333 L29.027963,39.9633333 C34.3227778,34.4224074 41.997963,33.4675926 46.5790741,33.4566667 C47.6655556,33.4538889 48.5494444,32.5712963 48.5494444,31.4892593 Z"/>
      <path fill="#6E54B7" fill-rule="nonzero" d="M53.032037 6.815L51.605 6.815 51.605 31.4892593C51.605 34.2524074 49.3537037 36.5055556 46.5862963 36.5124074 42.7005556 36.5216667 36.2935185 37.2814815 31.7559259 41.5761111 39.6037037 39.6546296 47.8766667 40.9037037 52.5914815 41.9781481 53.1801852 42.1122222 53.7885185 41.9737037 54.2601852 41.5977778 54.7301852 41.2227778 54.9998148 40.6622222 54.9998148 40.0605556L54.9998148 8.78277778C54.9998148 7.69777778 54.117037 6.815 53.032037 6.815zM3.39481481 31.4892593L3.39481481 6.815 1.96777778 6.815C.882962963 6.815 0 7.69777778 0 8.78277778L0 40.06C0 40.6618519.26962963 41.2222222.73962963 41.5972222 1.21092593 41.972963 1.8187037 42.112037 2.40833333 41.9775926 7.12314815 40.902963 15.3962963 39.6540741 23.2437037 41.5755556 18.7062963 37.2811111 12.2992593 36.5214815 8.41351852 36.5122222 5.6462963 36.5055556 3.39481481 34.2524074 3.39481481 31.4892593z"/>
    </g>
  </g>
</svg>
