<svg xmlns="http://www.w3.org/2000/svg" width="40" height="40" viewBox="0 0 40 40">
  <g fill="none" fill-rule="evenodd">
    <path fill="#331C6B" d="M4 35L12 35 12 38C12 38.5522847 11.5522847 39 11 39L5 39C4.44771525 39 4 38.5522847 4 38L4 35 4 35zM28 35L36 35 36 38C36 38.5522847 35.5522847 39 35 39L29 39C28.4477153 39 28 38.5522847 28 38L28 35 28 35z"/>
    <rect width="39" height="35" x=".5" y=".5" fill="#5F40AF" stroke="#4F2DA7" rx="3"/>
    <rect width="31" height="27" x="4.5" y="4.5" fill="#CAB7F4" stroke="#4F2DA7" rx="2"/>
    <g transform="translate(11 9)">
      <circle cx="9" cy="9" r="9" fill="#331C6B"/>
      <circle cx="9" cy="9" r="5" fill="#CAB7F4"/>
      <path stroke="#F0F7FF" stroke-linecap="round" stroke-linejoin="round" d="M9,1.38461538 L9,-2.08721929e-14 M14.3847692,3.61523077 L15.3636923,2.63630769 M16.6153846,9 L18,9 M14.3847692,14.3847692 L15.3636923,15.3636923 M9,16.6153846 L9,18 M3.61523077,14.3847692 L2.63630769,15.3636923 M1.38461538,9 L-2.06501483e-14,9 M3.61523077,3.61523077 L2.63630769,2.63630769 M8.30769231,9 L9.69230769,9"/>
    </g>
    <polygon fill="#331C6B" stroke="#4F2DA7" points="34 9 37 9 37 14 34 14"/>
    <polygon fill="#331C6B" stroke="#4F2DA7" points="34 22 37 22 37 27 34 27"/>
  </g>
</svg>
