<svg xmlns="http://www.w3.org/2000/svg" width="30" height="30" viewBox="0 0 30 30">
    <g fill="none" fill-rule="evenodd">
        <path d="M0 0H30V30H0z"/>
        <g transform="translate(5 2)">
            <path fill="#AD95D6" fill-rule="nonzero" d="M13.218 0H1C.448 0 0 .448 0 1v24c0 .552.448 1 1 1h18.367c.552 0 1-.448 1-1V7.149c0-.53-.211-1.04-.586-1.414L14.63.585C14.258.212 13.749 0 13.219 0z"/>
            <path fill="#EAE4FE" fill-rule="nonzero" d="M14.3 1.48l4.587 4.587H15.3c-.552 0-1-.448-1-1V1.479z"/>
            <path fill="#EAE4FE" fill-rule="nonzero" d="M.867 24.133V1.867c0-.553.447-1 1-1h11.566v5.066c0 .553.448 1 1 1H19.5v17.2c0 .553-.448 1-1 1H1.867c-.553 0-1-.447-1-1z"/>
            <rect width="14" height="1" x="3" y="20" fill="#5721AE" rx=".5"/>
            <rect width="14" height="1" x="3" y="17" fill="#5721AE" rx=".5"/>
            <rect width="14" height="1" x="3" y="14" fill="#5721AE" rx=".5"/>
            <rect width="14" height="1" x="3" y="11" fill="#5721AE" rx=".5"/>
            <rect width="6" height="1" x="3" y="8" fill="#5721AE" rx=".5"/>
        </g>
    </g>
</svg>
