<svg xmlns="http://www.w3.org/2000/svg" width="20" height="20" viewBox="0 0 20 20">
  <g fill="none" fill-rule="evenodd">
    <rect width="20" height="20"/>
    <path fill="#4F2DA7" fill-rule="nonzero" d="M5,0 L15,0 C16.3807119,0 17.5,1.11928813 17.5,2.5 L17.5,17.5 C17.5,18.8807119 16.3807119,20 15,20 L5,20 C3.61928813,20 2.5,18.8807119 2.5,17.5 L2.5,2.5 C2.5,1.11928813 3.61928813,0 5,0 Z M5,1 C4.17157288,1 3.5,1.67157288 3.5,2.5 L3.5,17.5 C3.5,18.3284271 4.17157288,19 5,19 L15,19 C15.8284271,19 16.5,18.3284271 16.5,17.5 L16.5,2.5 C16.5,1.67157288 15.8284271,1 15,1 L5,1 Z"/>
    <path stroke="#4F2DA7" stroke-linecap="round" d="M9,17.5 L11,17.5"/>
    <path fill="#4F2DA7" fill-rule="nonzero" d="M6,2 L14,2 C15.1045695,2 16,2.8954305 16,4 L16,14 C16,15.1045695 15.1045695,16 14,16 L6,16 C4.8954305,16 4,15.1045695 4,14 L4,4 C4,2.8954305 4.8954305,2 6,2 Z M6,3 C5.44771525,3 5,3.44771525 5,4 L5,14 C5,14.5522847 5.44771525,15 6,15 L14,15 C14.5522847,15 15,14.5522847 15,14 L15,4 C15,3.44771525 14.5522847,3 14,3 L6,3 Z"/>
  </g>
</svg>
