<svg xmlns="http://www.w3.org/2000/svg" width="115" height="84" viewBox="0 0 115 84">
    <defs>
        <linearGradient id="prefix__a" x1="50%" x2="50%" y1="0%" y2="100%">
            <stop offset="0%" stop-color="#F6F4FB"/>
            <stop offset="100%" stop-color="#CEAFFF"/>
        </linearGradient>
    </defs>
    <g fill="none" fill-rule="evenodd">
        <g transform="translate(-1153 -370) translate(1153 370)">
            <ellipse cx="61.163" cy="71.4" fill="#F6F0FF" rx="53.837" ry="12.6"/>
            <g fill-rule="nonzero">
                <g>
                    <path fill="#F3EFFE" d="M5.426.041c.64-.083 1.324-.054 1.92.214 1.267.57 1.627 2.155 1.61 3.443-.019 1.386-.297 2.9.698 4.018.458.514 1.027.907 1.477 1.43.48.559.857 1.198 1.136 1.885.512 1.262.763 2.745.295 4.068-.413 1.166-1.45 2.217-1.226 3.542.234 1.382 1.55 2.439 2.372 3.468.932 1.165 1.789 2.654 1.93 4.182.135 1.464-.467 2.944-1.39 4.051-1.846 2.212-4.62 3.296-7.417 3.289-1.188-.003-2.533-.06-3.557-.735-.317-.21-.484-.444-.672-.77-.17-.292-.392-.482-.65-.688-.568-.454-.977-1.066-1.238-1.751-1.015-2.66-.204-5.952 1.216-8.314.337-.56.613-1.098.45-1.765-.171-.697-.59-1.325-.962-1.924-.367-.591-.785-1.156-1.072-1.795-.3-.67-.384-1.372-.331-2.106.1-1.377.661-2.648 1.456-3.756.766-1.067 1.665-2.089 1.667-3.487.002-1.482-.933-2.8-.535-4.307C2.768 1.61 3.1.97 3.634.595 4.147.236 4.824.12 5.426.041z" transform="translate(78.58 13.44) translate(5.144)"/>
                    <path fill="#EDE5FB" d="M5.007 2.41c.012-.199.235-.318.41-.266.232.068.227.297.221.5-.019.626.067 1.235.209 1.842.295 1.263.841 2.426 1.274 3.64.432 1.211.635 2.463.381 3.745-.239 1.21-.614 2.387-.859 3.598-.215 1.067-.445 2.193-.117 3.257.316 1.025 1.015 1.859 1.518 2.785 1.04 1.917 1.502 4.043 1.564 6.231.029 1.016.003 2.042-.22 3.038-.128.574-.3 1.35-.764 1.746-.215.182-.58.246-.761-.025-.17-.254-.02-.647.033-.917.233-1.17.28-2.367.224-3.556-.054-1.152-.183-2.301-.525-3.401-.318-1.02-.8-1.937-1.368-2.83-.579-.91-1.18-1.822-1.42-2.9-.243-1.095-.045-2.209.219-3.283.279-1.136.644-2.24 1.022-3.345.369-1.077.5-2.096.296-3.223C5.942 6.82 4.867 4.73 5.007 2.41z" transform="translate(78.58 13.44) translate(5.144)"/>
                </g>
                <g>
                    <path fill="#E8E0FF" d="M20.33.375c.792.255 1.58.666 2.145 1.31 1.202 1.372.833 3.445.17 4.96-.715 1.629-1.797 3.266-1.187 5.136.28.86.752 1.638 1.018 2.504.284.926.407 1.89.391 2.855-.029 1.774-.474 3.667-1.684 4.974-1.065 1.151-2.807 1.823-3.206 3.513-.415 1.764.6 3.738 1.052 5.409.51 1.89.773 4.123.175 6.008-.572 1.805-2.017 3.225-3.653 4.025-3.268 1.599-7.063 1.353-10.34-.196-1.392-.658-2.94-1.465-3.805-2.829-.268-.422-.347-.79-.405-1.28-.052-.438-.219-.786-.418-1.172-.439-.85-.614-1.799-.579-2.753.138-3.705 2.732-7.15 5.578-9.162.674-.476 1.266-.961 1.407-1.84.148-.918-.03-1.892-.167-2.804-.135-.902-.344-1.8-.36-2.714-.018-.958.233-1.835.661-2.673.805-1.574 2.098-2.768 3.584-3.64 1.43-.84 2.995-1.553 3.695-3.205.743-1.752.303-3.826 1.523-5.388C16.43.766 17.138.19 17.952.043c.78-.142 1.632.092 2.377.332z" opacity=".918" transform="translate(78.58 13.44) translate(7.157 2.368)"/>
                    <path fill="#E3D4FF" d="M18.71 3.27c.112-.228.432-.246.612-.087.236.21.118.478.01.715-.332.731-.533 1.5-.667 2.297-.279 1.66-.216 3.34-.31 5.017-.095 1.675-.476 3.27-1.407 4.648-.878 1.3-1.9 2.486-2.784 3.784-.78 1.144-1.605 2.35-1.747 3.792-.138 1.389.266 2.764.396 4.14.27 2.848-.242 5.622-1.252 8.248-.47 1.219-1.007 2.419-1.76 3.475-.433.609-1.018 1.432-1.757 1.643-.341.098-.8-.03-.877-.451-.073-.395.295-.778.492-1.068.85-1.257 1.497-2.648 2.02-4.087.507-1.394.925-2.826 1.069-4.319.133-1.385.022-2.738-.2-4.11-.227-1.4-.48-2.813-.226-4.222.257-1.432 1.04-2.642 1.879-3.767.888-1.19 1.861-2.294 2.85-3.393.963-1.071 1.62-2.206 1.94-3.653.631-2.86.408-5.933 1.719-8.601z" transform="translate(78.58 13.44) translate(7.157 2.368)"/>
                </g>
                <g>
                    <path fill="#EBDEFF" d="M2.976 0c1.318 0 2.477.74 3.276 1.79.935 1.23 1.124 2.73 1.503 4.195.19.73.514 1.453 1.084 1.949.517.45 1.175.54 1.795.76 1.239.44 2.239 1.5 2.634 2.793.482 1.577-.029 3.167.06 4.765.08 1.468 1.447 2.384 2.546 3.087 1.085.694 2.061 1.344 2.388 2.695.346 1.434.462 3.034-.017 4.45-.799 2.358-3.136 3.396-5.394 3.557-2.05.146-4.626-.083-6.166-1.658-.92-.943-1.254-2.261-1.213-3.573.026-.816.179-1.624.376-2.412.14-.559.329-1.115.382-1.692.144-1.536-1.197-1.83-2.338-2.252-1.45-.536-2.465-1.549-3.17-2.959-.658-1.313-.934-2.787-.54-4.232.201-.738.566-1.408 1.061-1.978.218-.25.525-.46.722-.723.184-.246.144-.565.08-.853C1.753 6.38.841 5.276.515 3.948c-.294-1.2-.12-2.692.915-3.465.448-.335 1-.48 1.546-.483z" transform="translate(78.58 13.44) translate(0 13.263)"/>
                    <path fill="#E1CFFF" d="M4.772 3.468C6.17 5.044 6.55 7.182 6.661 9.255c.062 1.162-.003 2.388.32 3.515.276.965.923 1.703 1.59 2.4 1.342 1.403 2.838 2.83 3.23 4.86.231 1.192.076 2.423.394 3.602.29 1.071.799 2.124 1.419 3.029.499.728 1.149 1.286 1.694 1.965.167.207.405.512.336.805-.08.343-.492.451-.785.398-.682-.126-1.256-.816-1.702-1.317-.652-.733-1.206-1.522-1.656-2.406-.5-.982-.903-2.025-1.075-3.127-.179-1.143-.09-2.334-.497-3.432-.686-1.846-2.35-2.935-3.553-4.374-1.498-1.793-1.275-4.025-1.121-6.23.084-1.212.168-2.581-.41-3.688-.221-.422-.714-.816-.809-1.296-.087-.44.388-.885.736-.491z" transform="translate(78.58 13.44) translate(0 13.263)"/>
                </g>
                <path fill="#D2C2E4" d="M6.263 42.63c0 9.015 1.389 13.738 8.723 13.738 7.333 0 8.722-4.723 8.722-13.737H6.263z" transform="translate(78.58 13.44)"/>
            </g>
            <g fill-rule="nonzero">
                <path fill="#F6F4FB" d="M17.126 59.433c5.205-3.97 12.762-12.703 13.981-16.27 1.22-3.569-3.754-2.433-4.29-6.816-.537-4.383 6.03-5.915 5.9-9.087-.131-3.171-6.829-1.615-8.046-4.543-1.217-2.928 2.943-6.279 2.146-9.655-.797-3.376-3.414-1.686-5.364-3.975C19.764 7.104 18.182.93 16.358.567c-1.823-.361-1.227 4.352-3.486 6.816-2.259 2.464-4.608 1.125-5.363 2.84-.756 1.714 4.772 1.7 1.609 5.679-3.164 3.978-7.853 1.375-8.582 4.543-.728 3.169 5.012 5.981 5.364 9.457.351 3.476-6.185 1.213-5.364 7.013.822 5.8 5.345 7.857 8.045 11.926 2.356 3.55 2.954 7.5 7.01 10.592.258.197 1.27.202 1.535 0z" transform="rotate(-30 33.271 4.923)"/>
                <path fill="#E8E0FF" d="M27.568 43.172c-2.631.635-4.781 1.502-6.45 2.602-1.668 1.099-3.203 3.267-4.606 6.504v-.65c1.526-3.175 3.062-5.234 4.607-6.18 1.545-.945 3.694-1.704 6.45-2.276zM4.84 37.318c2.632.635 4.782 1.502 6.45 2.602 1.669 1.099 3.307 3.267 4.915 6.504v-.65c-1.732-3.175-3.37-5.234-4.915-6.18-1.544-.945-3.694-1.704-6.45-2.276zM30.332 27.236c-3.45.635-6.01 1.502-7.678 2.602-1.668 1.099-3.716 3.267-6.142 6.504v-.65c2.55-3.175 4.597-5.234 6.142-6.18 1.545-.945 4.105-1.704 7.678-2.276zM2.384 21.382c3.45.635 6.01 1.503 7.678 2.602 1.668 1.1 3.716 3.267 6.143 6.504v-.65c-2.55-3.174-4.598-5.234-6.143-6.18-1.545-.945-4.104-1.703-7.678-2.276zM24.352 14.428c-2.386 1.45-4.056 2.82-5.008 4.106-.953 1.286-1.915 3.47-2.885 6.55l-.165-.48c1.077-3.07 2.066-5.173 2.967-6.31.9-1.138 2.598-2.427 5.091-3.866zM9.043 10.57c2 .766 3.444 1.57 4.332 2.414.888.843 1.897 2.368 3.025 4.574l.065-.388c-1.209-2.183-2.228-3.643-3.057-4.38-.83-.739-2.285-1.478-4.365-2.22z" transform="rotate(-30 33.271 4.923)"/>
                <path fill="#E8E0FF" d="M16.354 0.568L16.819 70.791 15.897 70.791z" transform="rotate(-30 33.271 4.923)"/>
            </g>
            <g fill-rule="nonzero">
                <path fill="url(#prefix__a)" d="M13.864 48.112c4.213-3.214 10.331-10.283 11.318-13.171.987-2.889-3.04-1.97-3.473-5.517-.435-3.548 4.88-4.789 4.776-7.356-.106-2.568-5.528-1.308-6.513-3.678-.985-2.37 2.382-5.083 1.737-7.816-.646-2.733-2.764-1.365-4.342-3.218C16 5.75 14.718.753 13.242.46c-1.476-.293-.993 3.522-2.822 5.517-1.828 1.995-3.73.91-4.342 2.298-.611 1.388 3.864 1.378 1.303 4.598-2.561 3.22-6.357 1.113-6.947 3.678-.59 2.565 4.057 4.842 4.342 7.655.285 2.814-5.007.983-4.342 5.678.665 4.694 4.327 6.36 6.513 9.654 1.906 2.874 2.39 6.072 5.674 8.574.21.16 1.028.164 1.243 0z" transform="rotate(-60 46.102 26.626)"/>
                <path fill="#E8E0FF" d="M22.317 34.949c-2.13.514-3.87 1.216-5.221 2.106-1.35.89-2.594 2.645-3.73 5.265v-.526c1.236-2.57 2.48-4.237 3.73-5.003 1.25-.765 2.991-1.379 5.221-1.842zM3.919 30.21c2.13.514 3.87 1.216 5.22 2.106 1.352.89 2.678 2.645 3.979 5.265v-.526c-1.401-2.57-2.727-4.237-3.978-5.002-1.25-.766-2.991-1.38-5.221-1.843zM24.555 22.048c-2.793.514-4.865 1.216-6.216 2.106-1.35.89-3.008 2.645-4.972 5.266v-.527c2.064-2.57 3.721-4.237 4.972-5.002 1.25-.765 3.323-1.38 6.216-1.843zM1.93 17.31c2.793.513 4.865 1.216 6.215 2.105 1.351.89 3.009 2.645 4.973 5.266v-.527c-2.064-2.57-3.722-4.237-4.973-5.002-1.25-.765-3.322-1.38-6.215-1.843zM19.714 11.68c-1.932 1.174-3.284 2.282-4.055 3.323-.771 1.042-1.55 2.81-2.335 5.303l-.134-.389c.872-2.484 1.673-4.187 2.402-5.108.73-.92 2.103-1.964 4.122-3.13zM7.32 8.557c1.62.62 2.789 1.27 3.508 1.953.719.683 1.535 1.918 2.449 3.704l.052-.315c-.979-1.767-1.804-2.949-2.475-3.546-.672-.597-1.85-1.196-3.533-1.796z" transform="rotate(-60 46.102 26.626)"/>
                <path fill="#E8E0FF" d="M13.239 0.46L13.615 57.307 12.869 57.307z" transform="rotate(-60 46.102 26.626)"/>
            </g>
            <g fill-rule="nonzero">
                <path fill="#E8E0FF" d="M37.211 10.08H.791v43.36c0 1.105.896 2 2 2h32.42c1.105 0 2-.895 2-2V10.08z" transform="translate(43.745 15.96)"/>
                <path fill="#B099EC" d="M35.016 1.717c1.652.007 2.987 1.348 2.987 3v5.363H0V4.716c0-1.651 1.335-2.992 2.986-3l8.098-.036c0-.928.752-1.68 1.68-1.68H25.24c.928 0 1.68.752 1.68 1.68l8.097.037zM12.876.84c-.552 0-1 .448-1 1v.68h14.251v-.68c0-.552-.448-1-1-1H12.876zM9.5 5.88c0 .928.752 1.68 1.68 1.68h15.641c.928 0 1.68-.752 1.68-1.68 0-.928-.752-1.68-1.68-1.68H11.181c-.928 0-1.68.752-1.68 1.68z" transform="translate(43.745 15.96)"/>
                <path fill="#E8E0FF" d="M11.132 5.04H26.87c.464 0 .84.376.84.84 0 .464-.376.84-.84.84H11.132c-.463 0-.84-.376-.84-.84 0-.464.377-.84.84-.84z" transform="translate(43.745 15.96)"/>
                <path fill="#5721AE" d="M27.71 49.56H34.044V50.56H27.71zM5.542 28.56H20.585V29.56H5.542zM22.168 28.56H23.750999999999998V29.56H22.168zM5.542 30.24H25.335V31.24H5.542zM5.542 40.32H20.585V41.32H5.542zM22.168 40.32H23.750999999999998V41.32H22.168zM5.542 42H25.335V43H5.542zM5.542 34.44H20.585V35.44H5.542zM22.168 34.44H23.750999999999998V35.44H22.168zM5.542 36.12H25.335V37.12H5.542zM7.505 15.12L7.505 17.203 5.542 17.203 5.542 19.757 7.505 19.757 7.505 21.84 9.913 21.84 9.913 19.757 11.876 19.757 11.876 17.203 9.913 17.203 9.913 15.12zM36.013 20.691v-6.24c0-.411.257-.685.642-.685h2.375v-.48c0-.412.257-.686.642-.686h1.54c.707 0 1.284.617 1.284 1.371V15c0 .754-.577 1.371-1.283 1.371h-1.541c-.385 0-.642-.274-.642-.685v-.549h-1.733v5.554c0 5.075 3.595 9.189 8.024 9.189 4.43 0 8.024-4.114 8.024-9.189v-5.554h-2.247v.549c0 .411-.256.685-.641.685h-1.541c-.706 0-1.284-.617-1.284-1.371v-1.029c0-.754.578-1.371 1.284-1.371h1.54c.386 0 .642.274.642.686v.48h2.89c.384 0 .641.274.641.685v6.24c0 5.555-3.852 10.149-8.666 10.56v5.075c0 5.485-3.916 9.874-8.73 9.874-2.311 0-4.494-1.029-6.163-2.88-1.22-1.371-1.99-3.086-2.311-4.937-1.477-.274-2.632-1.714-2.632-3.429 0-1.92 1.412-3.497 3.081-3.497 1.67 0 3.082 1.577 3.082 3.497 0 1.577-.963 2.949-2.247 3.36.32 1.577.963 2.949 1.99 4.115 1.412 1.577 3.274 2.468 5.264 2.468 4.108 0 7.446-3.84 7.446-8.503V31.32c-4.878-.411-8.73-5.006-8.73-10.629zm4.3-6.24c0 .069 0 .069 0 0V15h.835v-1.029h-.898v.48h.064zm9.502-.48h-.835V15h.835v-1.029zm-18.81 20.915c0-1.166-.834-2.126-1.797-2.126s-1.797.96-1.797 2.126c0 1.165.834 2.125 1.797 2.125s1.798-.96 1.798-2.125z" transform="translate(43.745 15.96)"/>
            </g>
        </g>
        <g>
            <path fill-rule="nonzero" d="M0 0H15V15H0z" transform="translate(-1153 -370) translate(1209 399)"/>
            <path fill="#D0021B" d="M7.5 0C11.625 0 15 3.375 15 7.5S11.625 15 7.5 15 0 11.625 0 7.5 3.375 0 7.5 0zM6.311 7.452l-3.03 3.798 1.5 1.219L7.5 8.979l2.719 3.49 1.5-1.219-3.03-3.798 3.03-3.89-1.406-1.124L7.5 5.963 4.687 2.437 3.282 3.563l3.03 3.89z" transform="translate(-1153 -370) translate(1209 399)"/>
        </g>
    </g>
</svg>
