<svg xmlns="http://www.w3.org/2000/svg" xmlns:xlink="http://www.w3.org/1999/xlink" width="155" height="100" viewBox="0 0 155 100">
  <defs>
    <linearGradient id="ic_popup_kyc_pending-a" x1="50%" x2="50%" y1="0%" y2="100%">
      <stop offset="0%" stop-color="#7F66BF"/>
      <stop offset="100%" stop-color="#4F2DA7"/>
    </linearGradient>
    <linearGradient id="ic_popup_kyc_pending-d" x1="0%" x2="98.049%" y1="50%" y2="50%">
      <stop offset="2.752%" stop-color="#F1F8FF"/>
      <stop offset="100%" stop-color="#FBFDFF"/>
    </linearGradient>
    <rect id="ic_popup_kyc_pending-c" width="51.303" height="64.128"/>
    <filter id="ic_popup_kyc_pending-b" width="113.6%" height="110.9%" x="-6.8%" y="-3.9%" filterUnits="objectBoundingBox">
      <feOffset dy="1" in="SourceAlpha" result="shadowOffsetOuter1"/>
      <feGaussianBlur in="shadowOffsetOuter1" result="shadowBlurOuter1" stdDeviation="1"/>
      <feColorMatrix in="shadowBlurOuter1" values="0 0 0 0 0   0 0 0 0 0   0 0 0 0 0  0 0 0 0.0440443841 0"/>
    </filter>
    <linearGradient id="ic_popup_kyc_pending-e" x1="13.673%" x2="23.749%" y1="47.196%" y2="52.804%">
      <stop offset="0%" stop-opacity="0"/>
      <stop offset="100%" stop-opacity=".105"/>
    </linearGradient>
    <linearGradient id="ic_popup_kyc_pending-f" x1="50%" x2="50%" y1="50%" y2="100%">
      <stop offset="0%" stop-color="#EE817A" stop-opacity="0"/>
      <stop offset="100%" stop-color="#D86760"/>
    </linearGradient>
    <linearGradient id="ic_popup_kyc_pending-g" x1="50%" x2="50%" y1="0%" y2="73.495%">
      <stop offset="0%" stop-color="#FFBBB6"/>
      <stop offset="100%" stop-color="#D86760" stop-opacity="0"/>
    </linearGradient>
  </defs>
  <g fill="none" fill-rule="evenodd" transform="translate(0 -16)">
    <g transform="translate(7.437 34.8)">
      <g transform="rotate(-30 33.753 5.71)">
        <path fill="#331C6B" d="M17.8499377,58.4996351 C23.2750264,54.5919535 31.1517131,45.9963053 32.4222904,42.4843806 C33.6928677,38.9724558 28.5092554,40.0904658 27.9502504,35.7763205 C27.3912454,31.4621751 34.2350325,29.9539636 34.0993054,26.8322403 C33.9635783,23.7105171 26.9824526,25.2425236 25.7142303,22.3602003 C24.4460081,19.4778769 28.7809483,16.1799071 27.9502504,12.8571152 C27.1195524,9.53432328 24.3923089,11.1969321 22.3602003,8.94408012 C20.6000507,6.99272946 18.9503001,0.9153764 17.0496527,0.559005007 C15.1490053,0.202633615 15.7705118,4.84132826 13.4161202,7.26706509 C11.0617285,9.69280193 8.61364336,8.37443316 7.8260701,10.0620901 C7.03849685,11.7497471 12.8003019,11.7366953 9.50308512,15.6521402 C6.20586836,19.5675851 1.3180564,17.0055475 0.559005007,20.1241803 C-0.20004639,23.2428131 5.78250755,26.0113722 6.14905508,29.4324825 C6.51560261,32.8535928 -0.296889281,30.6267766 0.559005007,36.3353255 C1.4148993,42.0438743 6.12995914,44.0690119 8.94408012,48.0744306 C11.3988964,51.5684407 12.0225991,55.4572981 16.2493678,58.4996351 C16.5189625,58.6936836 17.5734849,58.6987636 17.8499377,58.4996351 Z"/>
        <path fill="#4F2DA7" fill-rule="nonzero" d="M28.7338129,42.4939362 C25.991174,43.1191932 23.7503761,43.9728305 22.0114194,45.054848 C20.2724626,46.1368656 18.6718928,48.2709587 17.2097097,51.4571276 L17.2097097,50.8168996 C18.8005929,47.692493 20.4011628,45.6651045 22.0114194,44.734734 C23.621676,43.8043636 25.8624738,43.057431 28.7338129,42.4939362 Z"/>
        <path fill="#4F2DA7" fill-rule="nonzero" d="M16.8895957,36.7318846 C14.1469568,37.3571416 11.9061589,38.2107789 10.1672022,39.2927964 C8.42824544,40.3748139 6.72097089,42.5089071 5.04537853,45.695076 L5.04537853,45.054848 C6.84967106,41.9304414 8.55694562,39.9030529 10.1672022,38.9726824 C11.7774588,38.042312 14.0182566,37.2953794 16.8895957,36.7318846 Z" transform="matrix(-1 0 0 1 21.935 0)"/>
        <path fill="#4F2DA7" fill-rule="nonzero" d="M31.6148387,26.8083512 C28.0185625,27.4336083 25.350946,28.2872455 23.6119893,29.3692631 C21.8730325,30.4512806 19.7389393,32.5853738 17.2097097,35.7715426 L17.2097097,35.1313147 C19.8676395,32.0069081 22.0017327,29.9795196 23.6119893,29.0491491 C25.2222458,28.1187786 27.8898623,27.371846 31.6148387,26.8083512 Z"/>
        <path fill="#4F2DA7" fill-rule="nonzero" d="M16.8895957,21.0462996 C13.2933195,21.6715567 10.625703,22.5251939 8.88674627,23.6072115 C7.14778953,24.689229 5.01369634,26.8233222 2.4844667,30.009491 L2.4844667,29.3692631 C5.14239651,26.2448565 7.2764897,24.2174679 8.88674627,23.2870975 C10.4970028,22.356727 13.1646193,21.6097944 16.8895957,21.0462996 Z" transform="matrix(-1 0 0 1 19.374 0)"/>
        <path fill="#4F2DA7" fill-rule="nonzero" d="M26.9274555,15.924476 C24.1018099,16.4157494 22.0058255,17.0864644 20.6395023,17.936621 C19.2731792,18.7867776 17.5963917,20.4635651 15.6091398,22.9669835 L15.6091398,22.4639473 C17.6975132,20.0090564 19.3743007,18.4161082 20.6395023,17.6851029 C21.9047039,16.9540975 24.0006883,16.3672219 26.9274555,15.924476 Z" transform="rotate(-20 21.268 19.446)"/>
        <path fill="#4F2DA7" fill-rule="nonzero" d="M17.6327175,11.1227663 C15.449264,11.5023866 13.8296397,12.0206664 12.7738446,12.6776056 C11.7180494,13.3345448 10.42235,14.6302443 8.88674627,16.5647039 L8.88674627,16.1759941 C10.5004894,14.279033 11.7961888,13.0481185 12.7738446,12.4832507 C13.7515004,11.9183829 15.3711246,11.4648881 17.6327175,11.1227663 Z" transform="scale(-1 1) rotate(-10 0 165.403)"/>
        <polygon fill="#4F2DA7" fill-rule="nonzero" points="17.046 .559 17.53 69.68 16.569 69.68"/>
      </g>
      <g transform="rotate(-60 46.084 26.606)">
        <path fill="url(#ic_popup_kyc_pending-a)" fill-rule="nonzero" d="M14.4499495,47.3568475 C18.841688,44.1934862 25.2180535,37.2351043 26.2466161,34.3921176 C27.2751787,31.5491309 23.078921,32.4541866 22.6263932,28.9617832 C22.1738653,25.4693798 27.714074,24.2484467 27.6041996,21.7213374 C27.4943253,19.1942281 21.8429378,20.4344239 20.8162817,18.1011145 C19.7896256,15.7678051 23.2988629,13.09802 22.6263932,10.4081408 C21.9539234,7.7182617 19.7461548,9.06418311 18.1011145,7.24044581 C16.6762315,5.66078099 15.3407192,0.74101899 13.8020998,0.452527863 C12.2634805,0.164036736 12.7666048,3.9191705 10.8606687,5.88286222 C8.95473263,7.84655394 6.97294938,6.77930303 6.33539008,8.14550153 C5.69783078,9.51170004 10.3621491,9.50113429 7.69297367,12.6707802 C5.0237982,15.840426 1.06699804,13.7663956 0.452527863,16.2910031 C-0.161942316,18.8156106 4.68107754,21.0568251 4.97780649,23.8262953 C5.27453545,26.5957656 -0.240338942,24.7931049 0.452527863,29.4143111 C1.14539467,34.0355173 4.96234788,35.6749144 7.24044581,38.9173962 C9.227678,41.7458805 9.73258026,44.8940032 13.1542501,47.3568475 C13.3724935,47.5139344 14.2261544,47.5180467 14.4499495,47.3568475 Z"/>
        <path fill="#7F66BF" d="M23.2607057,34.3998531 C21.0404742,34.9060136 19.226495,35.5970533 17.8187681,36.4729722 C16.4110412,37.3488912 15.1153418,39.0764904 13.9316698,41.65577 L13.9316698,41.1374902 C15.2195276,38.6082086 16.515227,36.9669894 17.8187681,36.2138323 C19.1223091,35.4606753 20.9362883,34.8560155 23.2607057,34.3998531 Z"/>
        <path fill="#7F66BF" d="M13.6725299,29.7353351 C11.4522983,30.2414956 9.63831913,30.9325353 8.23059224,31.8084542 C6.82286536,32.6843732 5.44078596,34.4119724 4.08435405,36.991252 L4.08435405,36.4729722 C5.54497181,33.9436907 6.92705121,32.3024714 8.23059224,31.5493143 C9.53413328,30.7961573 11.3481125,30.1914976 13.6725299,29.7353351 Z" transform="matrix(-1 0 0 1 17.757 0)"/>
        <path fill="#7F66BF" d="M25.5929647,21.7019986 C22.6816935,22.2081591 20.5221944,22.8991988 19.1144675,23.7751177 C17.7067406,24.6510367 15.9791414,26.3786359 13.9316698,28.9579155 L13.9316698,28.4396357 C16.0833272,25.9103542 17.8109265,24.2691349 19.1144675,23.5159778 C20.4180085,22.7628208 22.5775076,22.1581611 25.5929647,21.7019986 Z"/>
        <path fill="#7F66BF" d="M13.6725299,17.0374807 C10.7612586,17.5436411 8.60175958,18.2346808 7.19403269,19.1105998 C5.78630581,19.9865187 4.05870656,21.714118 2.01123495,24.2933975 L2.01123495,23.7751177 C4.16289241,21.2458362 5.89049166,19.6046169 7.19403269,18.8514599 C8.49757373,18.0983028 10.6570728,17.4936431 13.6725299,17.0374807 Z" transform="matrix(-1 0 0 1 15.684 0)"/>
        <path fill="#7F66BF" d="M21.7984163,12.8912425 C19.5109889,13.28894 17.8142397,13.8318997 16.7081686,14.5201217 C15.6020974,15.2083438 14.244698,16.5657432 12.6359703,18.59232 L12.6359703,18.1851002 C14.3265583,16.1978075 15.6839577,14.9082781 16.7081686,14.3165118 C17.7323794,13.7247456 19.4291286,13.2496558 21.7984163,12.8912425 Z" transform="rotate(-20 17.217 15.742)"/>
        <path fill="#7F66BF" d="M14.2741046,9.00414415 C12.5065471,9.31145585 11.1954227,9.73101566 10.3407313,10.2628236 C9.48604,10.7946315 8.43714046,11.8435311 7.19403269,13.4095222 L7.19403269,13.0948524 C8.50039616,11.5592172 9.5492957,10.5627626 10.3407313,10.1054887 C11.132167,9.64821475 12.4432914,9.28109991 14.2741046,9.00414415 Z" transform="scale(-1 1) rotate(-10 0 133.898)"/>
        <polygon fill="#7F66BF" points="13.799 .453 14.191 56.407 13.413 56.407"/>
      </g>
      <g transform="translate(91.171 11.88)">
        <g transform="translate(5.362)">
          <path fill="#482998" d="M5.65500738,0.0403514066 C6.32279669,-0.0412338821 7.03553074,-0.0124346083 7.65655526,0.251155283 C8.97710037,0.811724802 9.35246743,2.37179349 9.33435867,3.63981896 C9.31483604,5.00462369 9.02500866,6.4953355 10.0626397,7.59499168 C10.5396181,8.10055011 11.1329421,8.48744956 11.6013028,9.00229098 C12.101754,9.55246844 12.4944311,10.1819808 12.7851792,10.8579772 C13.3190272,12.0996545 13.5810491,13.5598508 13.0928743,14.8623783 C12.663045,16.0091774 11.5816425,17.0442619 11.8153074,18.3482835 C12.0590404,19.7086209 13.4305422,20.7486102 14.288011,21.761848 C15.2584235,22.9085158 16.1519099,24.3740622 16.2986896,25.8777968 C16.4394366,27.3189091 15.8121392,28.7763868 14.8494391,29.8657499 C12.9259618,32.0424773 10.034677,33.1095812 7.11937456,33.103 C5.88161653,33.1001021 4.48022313,33.0441997 3.41207128,32.37905 C3.08194348,32.173457 2.90777985,31.9428005 2.71152813,31.622155 C2.53556739,31.3346291 2.3031246,31.1476058 2.03407677,30.9441527 C1.44297955,30.4972796 1.0161025,29.8950032 0.743680289,29.2208175 C-0.314194044,26.6022289 0.531318712,23.3627138 2.01210333,21.0373867 C2.36298392,20.4864692 2.65025539,19.9563214 2.47979618,19.2996601 C2.30191683,18.6141854 1.86472801,17.9959244 1.47803944,17.4067006 C1.09592969,16.8243637 0.659700512,16.2688222 0.361045927,15.6391884 C0.0482541252,14.979602 -0.039825539,14.2889043 0.0154412683,13.567042 C0.119311444,12.2110707 0.704658529,10.9597693 1.5333826,9.86926902 C2.33159724,8.81887866 3.26883446,7.81381778 3.27093452,6.43748996 C3.27324068,4.97876997 2.29803159,3.68114855 2.71348506,2.19808095 C2.88551,1.58396956 3.23102864,0.953887554 3.78785738,0.58571866 C4.32186656,0.232617615 5.02695948,0.1170814 5.65500738,0.0403514066 Z"/>
          <path fill="#4F2DA7" d="M5.21865524,2.3723267 C5.23117799,2.17641508 5.46356832,2.05891455 5.64651105,2.11003676 C5.88731409,2.17736083 5.88268301,2.40236201 5.87632551,2.60282045 C5.85683695,3.21898197 5.94602061,3.81779037 6.09413546,4.41564178 C6.40197623,5.65864141 6.97090735,6.80386133 7.42164353,7.99786099 C7.87198686,9.19086113 8.08338751,10.4225977 7.81919722,11.6849621 C7.57014459,12.8751958 7.17887529,14.03458 6.92399396,15.226316 C6.69933674,16.2766782 6.4602907,17.3843441 6.80241492,18.4320316 C7.13162255,19.4405071 7.8594553,20.2618 8.38355799,21.1731669 C9.46851105,23.0597544 9.94984494,25.1526977 10.0142255,27.3065211 C10.0440617,28.3066739 10.0171935,29.3160236 9.78516945,30.2969557 C9.65162416,30.8617791 9.4721618,31.6251128 8.98814607,32.0150683 C8.76495404,32.1948973 8.38322476,32.2570794 8.19537489,31.9907732 C8.0190112,31.740999 8.17373012,31.3543235 8.22971951,31.0881034 C8.47219425,29.9356798 8.52097469,28.7579485 8.46292275,27.5877828 C8.40673787,26.4543238 8.27281943,25.3227574 7.91608863,24.2402569 C7.58499459,23.2356806 7.0820015,22.333376 6.49000897,21.4545854 C5.88677274,20.5590363 5.25965571,19.6615765 5.01040063,18.6004431 C4.75715016,17.5227081 4.96289076,16.426078 5.23799418,15.3689254 C5.52892274,14.2507562 5.90999366,13.1646639 6.30395304,12.0767909 C6.68787998,11.0167397 6.82396327,10.0137428 6.61201952,8.90427603 C6.1933348,6.71233956 5.07263896,4.65496172 5.21865524,2.3723267 Z"/>
        </g>
        <g transform="translate(7.46 2.331)">
          <path fill="#7F66BF" d="M21.1887949,0.36885915 C22.0151691,0.619773211 22.8359141,1.02461219 23.4249913,1.65941135 C24.6775657,3.00933265 24.2932415,5.04958505 23.6017718,6.53976457 C22.8574899,8.14366222 21.7296174,9.75584229 22.3654206,11.5961234 C22.6576505,12.4421448 23.149061,13.2083626 23.4262767,14.0608793 C23.7224539,14.9718795 23.8502896,15.9206368 23.8340026,16.8713414 C23.8038507,18.6175011 23.3393727,20.4806771 22.0783251,21.7671208 C20.9680231,22.8997486 19.1525379,23.5612969 18.7373478,25.2250245 C18.3042002,26.9605903 19.3631386,28.9039949 19.8333066,30.548351 C20.3654204,32.4092607 20.6387603,34.6072658 20.0161018,36.4619796 C19.4194672,38.2394965 17.9133418,39.6368137 16.2083931,40.4243047 C12.8018076,41.9979237 8.84658375,41.7557974 5.43071458,40.2313725 C3.9804614,39.584072 2.36631212,38.7889244 1.46504762,37.4466244 C1.18650862,37.0317449 1.10414809,36.6683605 1.04344504,36.1870622 C0.989035512,35.7554881 0.815256346,35.4133873 0.607227242,35.0328135 C0.150128142,34.196828 -0.0322163333,33.2624889 0.00460790381,32.3234593 C0.147911151,28.6763181 2.85189893,25.2850372 5.81779329,23.305382 C6.52053581,22.8363885 7.13769301,22.3588669 7.28484718,21.4936054 C7.43852797,20.5904082 7.25253751,19.6318012 7.11043099,18.7338057 C6.9700548,17.8463368 6.75203882,16.9624027 6.73454673,16.0624144 C6.71630481,15.1196491 6.97807249,14.2569908 7.42444393,13.4320486 C8.26298816,11.8824771 9.61093312,10.7071661 11.1593421,9.84863268 C12.6507659,9.02166272 14.2812901,8.32062319 15.0112277,6.69403444 C15.7849563,4.97011372 15.3270049,2.92818711 16.5981841,1.39040078 C17.1245483,0.753627793 17.8628451,0.188222865 18.7105507,0.0424914798 C19.5235269,-0.0972915157 20.4115997,0.132877462 21.1887949,0.36885915 Z"/>
          <path fill="#4F2DA7" d="M19.5007568,3.21958876 C19.6180037,2.99414681 19.9512778,2.97680126 20.1384203,3.13322772 C20.3847341,3.33916728 20.26148,3.60319434 20.1490608,3.83725213 C19.8035729,4.55671782 19.5942447,5.3125917 19.4543264,6.09821983 C19.1632962,7.73157237 19.2287711,9.38597597 19.1304922,11.0361968 C19.0322776,12.685028 18.6343779,14.2544953 17.664325,15.6109618 C16.7497494,16.8899426 15.6850354,18.0578504 14.7628574,19.3355553 C13.950062,20.4616818 13.0904301,21.6481277 12.9417778,23.0681537 C12.7985585,24.4349734 13.2194873,25.7890565 13.3550187,27.143027 C13.635609,29.9458468 13.1023083,32.6766655 12.0495761,35.2610428 C11.560658,36.4610972 11.0006181,37.6423223 10.2155708,38.6823661 C9.76360259,39.2812549 9.15397809,40.0911599 8.38378451,40.2992719 C8.02862303,40.3952503 7.54969726,40.2688129 7.46951429,39.8549858 C7.39410391,39.4667569 7.77753003,39.0899349 7.98242527,38.8040133 C8.86950713,37.5663609 9.54335483,36.1972174 10.0883202,34.7810391 C10.6162447,33.4093086 11.0522832,31.9990772 11.2020883,30.5301686 C11.3410598,29.1669778 11.2254658,27.834803 10.9934892,26.4838274 C10.7571421,25.1071126 10.4938716,23.7156182 10.7581585,22.3283445 C11.0264683,20.9193165 11.8413761,19.7284833 12.716715,18.6207558 C13.6425145,17.4490646 14.6569186,16.3626064 15.687326,15.2807946 C16.6914313,14.2266721 17.3758501,13.1102131 17.7090789,11.6852574 C18.3674811,8.87004373 18.1345437,5.84623423 19.5007568,3.21958876 Z"/>
        </g>
        <g transform="translate(0 13.055)">
          <path fill="#5F40AF" d="M3.10188549,-1.56319402e-13 C4.4759606,-1.56319402e-13 5.68400234,0.7283502 6.51641633,1.76190337 C7.49083591,2.97182416 7.68763861,4.44937801 8.0833183,5.89138814 C8.28020741,6.60901612 8.61884285,7.32140965 9.21227597,7.80897455 C9.75203563,8.25238422 10.4372581,8.34111682 11.0833275,8.55775604 C12.3745156,8.9906968 13.417129,10.0336213 13.8288848,11.3061868 C14.33122,12.8584584 13.7991527,14.4239006 13.8907692,15.9970256 C13.9748663,17.4417373 15.3993305,18.3430781 16.5454014,19.0356313 C17.6754827,19.7185599 18.6935498,20.3578398 19.0339138,21.6882377 C19.3948484,23.0992632 19.5159378,24.6742456 19.0160227,26.0681325 C18.1836951,28.3890258 15.747819,29.4110124 13.3941384,29.5694816 C11.2580904,29.7132605 8.57225672,29.4875032 6.9681031,27.9370046 C6.00820387,27.0091538 5.66057964,25.7115134 5.70370854,24.4204584 C5.73050206,23.6176438 5.88953454,22.8222588 6.09515314,22.0464607 C6.24087528,21.4965888 6.43776439,20.9490809 6.49385791,20.3808883 C6.64295084,18.8692261 5.24579875,18.5788822 4.05651247,18.16384 C2.54527186,17.6363412 1.48727378,16.6400202 0.751575753,15.2519588 C0.0664396752,13.959553 -0.221028799,12.5087625 0.189689839,11.0858328 C0.399457123,10.3592556 0.779925017,9.70005096 1.29591623,9.13937244 C1.52305609,8.89259284 1.84319536,8.68676023 2.04820896,8.42748546 C2.23956651,8.18534934 2.19790691,7.87161925 2.1319603,7.58802956 C1.82703282,6.27806298 0.876986683,5.19334716 0.537227641,3.88574453 C0.230485124,2.70545753 0.411816711,1.23651525 1.49090387,0.475069732 C1.95711101,0.146058404 2.53204796,0.00363035339 3.10188549,-1.56319402e-13 Z"/>
          <path fill="#4F2DA7" d="M4.97423659,3.41319361 C6.43060904,4.96452286 6.82646865,7.06934951 6.94264578,9.10942134 C7.00772212,10.2533947 6.93998786,11.4600123 7.276087,12.5696243 C7.56365754,13.5193333 8.23782783,14.2453132 8.93274708,14.9314439 C10.3315883,16.3126546 11.8916199,17.7168292 12.3007691,19.7157855 C12.5408399,20.8888859 12.3787922,22.100569 12.7105186,23.2607523 C13.0121504,24.3153184 13.5432214,25.3513952 14.1891833,26.2419216 C14.7092796,26.9590368 15.3868795,27.5080596 15.9554186,28.1765453 C16.1288698,28.3806032 16.377343,28.6809912 16.3057505,28.9690528 C16.2219829,29.3064195 15.7922562,29.4132186 15.4873662,29.360199 C14.7764994,29.2366836 14.1781229,28.557898 13.7133287,28.0644273 C13.033671,27.3428377 12.4561293,26.5667087 11.9867051,25.696107 C11.4655799,24.7292595 11.0459704,23.7033139 10.866689,22.6186075 C10.6806341,21.4932922 10.7732328,20.3205296 10.3483932,19.2405511 C9.63349666,17.4233641 7.89949946,16.3509841 6.64581537,14.9346521 C5.08381176,13.1698093 5.31676619,10.9732959 5.47675623,8.80236367 C5.56463931,7.60933873 5.65200792,6.2620673 5.04917297,5.17280202 C4.81904795,4.75700356 4.30598231,4.36931898 4.20703885,3.89670179 C4.11641211,3.46368042 4.61104373,3.02610004 4.97423659,3.41319361 Z"/>
        </g>
        <path fill="#331C6B" d="M6.52735211,41.9615493 C6.52735211,50.8337338 7.97531207,55.482493 15.6190428,55.482493 C23.2627736,55.482493 24.7106901,50.8337338 24.7106901,41.9615493 L6.52735211,41.9615493 Z"/>
      </g>
      <g transform="translate(37.267 4.658)">
        <polygon fill="#F0F0F0" points="1.069 1.069 52.371 1.069 52.371 65.197 1.069 65.197"/>
        <use fill="#000" filter="url(#ic_popup_kyc_pending-b)" xlink:href="#ic_popup_kyc_pending-c"/>
        <use fill="url(#ic_popup_kyc_pending-d)" xlink:href="#ic_popup_kyc_pending-c"/>
        <rect width="36.339" height="1.069" x="7.482" y="53.44" fill="#D3DBE4"/>
        <polygon fill="#D3DBE4" points="29.927 48.096 43.821 48.096 43.821 49.165 29.927 49.165"/>
        <rect width="9.619" height="1.069" x="18.17" y="48.096" fill="#D3DBE4"/>
        <rect width="8.55" height="1.069" x="7.482" y="48.096" fill="#D3DBE4"/>
        <rect width="25.651" height="1.069" x="20.307" y="42.752" fill="#B5B5B5"/>
        <rect width="8.55" height="1.069" x="7.482" y="42.752" fill="#B5B5B5"/>
        <path fill="#D0021B" fill-rule="nonzero" d="M27.3353354,14.8558837 L34.1862899,26.906271 C34.6201315,27.6693704 34.3532153,28.6396827 33.590116,29.0735243 C33.3506868,29.2096459 33.0799949,29.2812147 32.8045763,29.2812147 L19.1026673,29.2812147 C18.2248637,29.2812147 17.5132633,28.5696143 17.5132633,27.6918107 C17.5132633,27.4163921 17.5848321,27.1457002 17.7209537,26.906271 L24.5719082,14.8558837 C25.0057498,14.0927843 25.9760621,13.8258682 26.7391615,14.2597097 C26.9879315,14.4011419 27.1939032,14.6071137 27.3353354,14.8558837 Z M27.0445871,25.9517201 C27.0445871,25.8032208 27.0166171,25.6605854 26.9606763,25.5238097 C26.9047355,25.387034 26.8264195,25.2697995 26.7257261,25.1721025 C26.6250326,25.0744056 26.5075587,24.9962493 26.3733008,24.9376311 C26.2390429,24.8790129 26.0973283,24.8497043 25.9481528,24.8497043 C25.7989774,24.8497043 25.6572628,24.8790129 25.5230049,24.9376311 C25.3887469,24.9962493 25.2731377,25.0763595 25.1761736,25.1779643 C25.0792096,25.2795691 25.0027583,25.3987576 24.9468175,25.5355333 C24.8908767,25.672309 24.8629067,25.8149444 24.8629067,25.9634437 C24.8629067,26.1197588 24.8927414,26.264348 24.9524115,26.3972159 C25.0120817,26.5300837 25.0903977,26.6473182 25.1873617,26.748923 C25.2843258,26.8505278 25.3980704,26.9286842 25.5285989,26.9833945 C25.6591275,27.0381048 25.7989774,27.0654595 25.9481528,27.0654595 C26.0973283,27.0654595 26.2390429,27.0361508 26.3733008,26.9775327 C26.5075587,26.9189145 26.6250326,26.8407582 26.7257261,26.7430612 C26.8264195,26.6453643 26.9047355,26.5281298 26.9606763,26.3913541 C27.0166171,26.2545784 27.0445871,26.1080352 27.0445871,25.9517201 Z M25.4083268,23.7418267 L26.499167,23.7418267 L27.0445871,18.2024388 L24.8629067,18.2024388 L25.4083268,23.7418267 Z"/>
      </g>
      <g transform="translate(67.194 46.342)">
        <path fill="url(#ic_popup_kyc_pending-e)" fill-rule="nonzero" d="M35.1196953,21.7245845 C34.6553384,21.5472221 34.0458667,21.4998444 33.9792901,21.4937704 C33.7436896,21.476763 33.5549545,21.515637 33.5525867,21.5812368 C33.5503132,21.6273996 33.645393,21.6723476 33.780513,21.7015031 C33.8357883,21.7136512 33.9023413,21.7245845 33.9719979,21.7294437 C33.9760968,21.7294437 34.2762126,21.7549548 34.4930499,21.8375619 C34.7088684,21.9189543 34.7902555,22.0404354 34.7372818,22.1874275 C34.7102974,22.2578865 34.6413766,22.312553 34.5499711,22.3550714 C34.362321,22.1704201 34.0076138,21.9918429 33.494618,21.9128802 C33.4526344,21.9068061 33.4075708,21.9019469 33.3614884,21.8958728 C32.7839065,21.8229842 32.180241,21.8460656 31.8210387,21.9602578 C31.4392574,22.0817389 31.4434787,22.267605 31.8278966,22.4473971 C31.8820823,22.4729081 31.9465269,22.4959895 32.0150704,22.5190709 C32.4345288,22.6575594 33.1032331,22.7462406 33.7754421,22.7462406 C33.7341471,22.8094108 33.6222475,22.8519292 33.472581,22.8640773 C33.0430571,22.8993068 32.5472396,22.8701513 32.1570201,22.8300626 C32.032324,22.7644628 31.9004491,22.7000778 31.7603765,22.6356928 C28.6594222,21.1961417 22.2375198,20.1514041 15.7080756,20.1514041 C13.6750535,20.1514041 11.7911317,20.2558779 10.140419,20.447818 L5.75971285,19.4079398 C5.61130108,19.3727102 5.42690067,19.3629918 5.29052596,19.3812139 C5.15415125,19.3994361 5.08937643,19.4443841 5.13012892,19.4929765 L6.49431861,21.1196086 C5.47539715,21.4050892 4.70008515,21.7464511 4.23197349,22.1315462 L1.94892239,22.1315462 C0.61680101,22.1315462 -0.199405006,22.4534711 0.131708996,22.8482847 L1.36447189,24.3182061 C1.6955859,24.7130197 3.05176244,25.0349447 4.38388382,25.0349447 L5.03969742,25.0349447 C5.04789509,25.0349447 5.42156828,25.0357545 6.160717,25.0373743 C7.22943262,25.4710618 8.58937779,25.8610162 10.2139455,26.1999485 L10.9454527,27.0721828 C11.2765667,27.4669964 12.6327433,27.7889214 13.9648646,27.7889214 L17.0471886,27.7889214 C18.178467,27.7889214 18.9491849,27.5496036 18.929205,27.2325379 C20.793774,27.315145 22.6300521,27.315145 24.3601614,27.2325379 C24.8761003,27.5496036 26.0482303,27.7889214 27.1754099,27.7889214 L30.2577338,27.7889214 C31.5898552,27.7889214 32.4060612,27.4669964 32.0749472,27.0721828 L31.34344,26.1999485 C33.4309406,25.5318024 34.1494257,24.653494 33.3690155,23.7229487 C33.1917422,23.5115716 32.9355486,23.3038389 32.6229665,23.1021802 C32.8298987,23.1143283 33.0419721,23.122832 33.2592104,23.122832 C33.4641521,23.122832 33.6711787,23.1155432 33.8751724,23.0997506 C34.3969555,23.0572322 34.697944,22.9029512 34.7082455,22.6806408 C35.1461322,22.6113966 35.4961888,22.4814118 35.5781609,22.2712495 C35.6540201,22.0537983 35.5042782,21.8703618 35.1196953,21.7245845 Z M32.5015678,22.1461239 C32.5918837,22.1169685 32.7385173,22.0963167 32.9106684,22.0963167 C32.9147672,22.0963167 32.918866,22.0963167 32.9229649,22.0963167 C33.0254357,22.0963167 33.1340195,22.1036055 33.2476737,22.1218277 C33.4688457,22.1558424 33.7457929,22.3101234 33.835071,22.4947747 C33.7294966,22.5008488 33.640341,22.5020636 33.5839761,22.5032784 C33.1413019,22.5032784 32.6999296,22.4461823 32.5179442,22.3611455 C32.4852243,22.3465677 32.4617208,22.3332048 32.443335,22.3210567 C32.3023852,22.2263015 32.4338309,22.1679905 32.5015678,22.1461239 Z"/>
        <path fill="#F78780" fill-rule="nonzero" d="M40.2056064,7.76667397 C39.8899961,7.18108741 39.320258,7.0246636 39.2587755,7.00460927 C39.0374384,6.94845713 38.8161013,7.07680487 38.7587176,7.29339168 C38.7177293,7.44580462 38.775113,7.59420669 38.8857815,7.6904675 C38.9308687,7.73057617 38.9882524,7.76667397 39.0538338,7.78271744 C39.0579326,7.78271744 39.3366534,7.86694564 39.4842114,8.13968459 C39.6317695,8.40841267 39.6112753,8.80949935 39.4350254,9.29481424 C39.3489499,9.52744452 39.2341825,9.70793353 39.1071186,9.84831387 C39.0743279,9.23866211 38.8693862,8.64906468 38.4226132,8.38835833 C38.3857236,8.368304 38.3447353,8.35226053 38.3037469,8.3322062 C37.7872937,8.09155419 37.1642708,8.16776066 36.7093001,8.54478214 C36.2256376,8.94586883 36.0739807,9.55953146 36.3076143,10.1531398 C36.340405,10.237368 36.3854922,10.3135744 36.4346782,10.3897809 C36.737992,10.8470197 37.332323,11.139813 38.004532,11.139813 C37.9102588,11.3483781 37.7627007,11.4887584 37.6028462,11.5288671 C37.1437766,11.6451822 36.6724106,11.5489214 36.315812,11.4165628 C36.2461318,11.199976 36.1682539,10.9874001 36.0821784,10.7748241 C34.1885166,6.02194688 28.6427928,2.57260138 22.1133486,2.57260138 C20.0803265,2.57260138 18.1087868,2.91753593 16.2971018,3.55125289 L12.788499,0.117950859 C12.6696328,0.00163571963 12.4933829,-0.0304512153 12.341726,0.0297117877 C12.1900691,0.0898747906 12.0875982,0.238276865 12.0875982,0.398711539 L12.0875982,5.76926227 C10.8292559,6.71181598 9.76765759,7.83886957 8.97658243,9.11031437 L6.69353133,9.11031437 C5.36140995,9.11031437 4.27521867,10.1731941 4.27521867,11.4767258 L4.27521867,16.3298747 C4.27521867,17.6334065 5.36140995,18.6962862 6.69353133,18.6962862 L7.34934493,18.6962862 C7.3575426,18.6962862 7.73053659,18.6989601 8.46832689,18.7043079 C9.17332651,20.1361874 10.2062329,21.4236756 11.546552,22.5427075 L11.546552,25.4225099 C11.546552,26.7260416 12.6327433,27.7889214 13.9648646,27.7889214 L17.0471886,27.7889214 C18.178467,27.7889214 19.1498909,26.9987806 19.395821,25.9519443 C21.1911108,26.2246833 23.0273889,26.2246833 24.8267774,25.9519443 C25.0768064,26.9987806 26.0482303,27.7889214 27.1754099,27.7889214 L30.2577338,27.7889214 C31.5898552,27.7889214 32.6760465,26.7260416 32.6760465,25.4225099 L32.6760465,22.5427075 C35.3238939,20.3367307 36.7789803,17.436874 36.7789803,14.36455 C36.7789803,13.6666591 36.6970036,12.9808009 36.5535444,12.314997 C36.7502885,12.3551057 36.9552302,12.3831817 37.1724685,12.3831817 C37.3774102,12.3831817 37.5905497,12.3591165 37.8077879,12.3069753 C38.3652295,12.1665949 38.7956071,11.6572148 38.9923512,10.9232262 C39.4883103,10.6946068 39.9473798,10.265444 40.2056064,9.57156406 C40.463833,8.85361889 40.4679318,8.24797799 40.2056064,7.76667397 Z M37.233951,9.15844477 C37.3487184,9.06218397 37.5126718,8.99399923 37.6848229,8.99399923 C37.6889217,8.99399923 37.6930205,8.99399923 37.6971194,8.99399923 C37.7995902,8.99399923 37.9020611,9.01806443 38.0004332,9.07822743 C38.1930784,9.19053171 38.3406365,9.6999118 38.2750551,10.3095636 C38.1643866,10.3296179 38.0742122,10.3336288 38.0168285,10.3376396 C37.5741543,10.3376396 37.1806662,10.1491289 37.0699976,9.86836821 C37.0495034,9.8202378 37.0372069,9.77611827 37.0290093,9.7360096 C36.9675267,9.42316198 37.1478755,9.23064037 37.233951,9.15844477 Z"/>
        <path fill="url(#ic_popup_kyc_pending-f)" fill-rule="nonzero" d="M40.2056064,7.76667397 C39.8899961,7.18108741 39.320258,7.0246636 39.2587755,7.00460927 C39.0374384,6.94845713 38.8161013,7.07680487 38.7587176,7.29339168 C38.7177293,7.44580462 38.775113,7.59420669 38.8857815,7.6904675 C38.9308687,7.73057617 38.9882524,7.76667397 39.0538338,7.78271744 C39.0579326,7.78271744 39.3366534,7.86694564 39.4842114,8.13968459 C39.6317695,8.40841267 39.6112753,8.80949935 39.4350254,9.29481424 C39.3489499,9.52744452 39.2341825,9.70793353 39.1071186,9.84831387 C39.0743279,9.23866211 38.8693862,8.64906468 38.4226132,8.38835833 C38.3857236,8.368304 38.3447353,8.35226053 38.3037469,8.3322062 C37.7872937,8.09155419 37.1642708,8.16776066 36.7093001,8.54478214 C36.2256376,8.94586883 36.0739807,9.55953146 36.3076143,10.1531398 C36.340405,10.237368 36.3854922,10.3135744 36.4346782,10.3897809 C36.737992,10.8470197 37.332323,11.139813 38.004532,11.139813 C37.9102588,11.3483781 37.7627007,11.4887584 37.6028462,11.5288671 C37.1437766,11.6451822 36.6724106,11.5489214 36.315812,11.4165628 C36.2461318,11.199976 36.1682539,10.9874001 36.0821784,10.7748241 C34.1885166,6.02194688 28.6427928,2.57260138 22.1133486,2.57260138 C20.0803265,2.57260138 18.1087868,2.91753593 16.2971018,3.55125289 L12.788499,0.117950859 C12.6696328,0.00163571963 12.4933829,-0.0304512153 12.341726,0.0297117877 C12.1900691,0.0898747906 12.0875982,0.238276865 12.0875982,0.398711539 L12.0875982,5.76926227 C10.8292559,6.71181598 9.76765759,7.83886957 8.97658243,9.11031437 L6.69353133,9.11031437 C5.36140995,9.11031437 4.27521867,10.1731941 4.27521867,11.4767258 L4.27521867,16.3298747 C4.27521867,17.6334065 5.36140995,18.6962862 6.69353133,18.6962862 L7.34934493,18.6962862 C7.3575426,18.6962862 7.73053659,18.6989601 8.46832689,18.7043079 C9.17332651,20.1361874 10.2062329,21.4236756 11.546552,22.5427075 L11.546552,25.4225099 C11.546552,26.7260416 12.6327433,27.7889214 13.9648646,27.7889214 L17.0471886,27.7889214 C18.178467,27.7889214 19.1498909,26.9987806 19.395821,25.9519443 C21.1911108,26.2246833 23.0273889,26.2246833 24.8267774,25.9519443 C25.0768064,26.9987806 26.0482303,27.7889214 27.1754099,27.7889214 L30.2577338,27.7889214 C31.5898552,27.7889214 32.6760465,26.7260416 32.6760465,25.4225099 L32.6760465,22.5427075 C35.3238939,20.3367307 36.7789803,17.436874 36.7789803,14.36455 C36.7789803,13.6666591 36.6970036,12.9808009 36.5535444,12.314997 C36.7502885,12.3551057 36.9552302,12.3831817 37.1724685,12.3831817 C37.3774102,12.3831817 37.5905497,12.3591165 37.8077879,12.3069753 C38.3652295,12.1665949 38.7956071,11.6572148 38.9923512,10.9232262 C39.4883103,10.6946068 39.9473798,10.265444 40.2056064,9.57156406 C40.463833,8.85361889 40.4679318,8.24797799 40.2056064,7.76667397 Z M37.233951,9.15844477 C37.3487184,9.06218397 37.5126718,8.99399923 37.6848229,8.99399923 C37.6889217,8.99399923 37.6930205,8.99399923 37.6971194,8.99399923 C37.7995902,8.99399923 37.9020611,9.01806443 38.0004332,9.07822743 C38.1930784,9.19053171 38.3406365,9.6999118 38.2750551,10.3095636 C38.1643866,10.3296179 38.0742122,10.3336288 38.0168285,10.3376396 C37.5741543,10.3376396 37.1806662,10.1491289 37.0699976,9.86836821 C37.0495034,9.8202378 37.0372069,9.77611827 37.0290093,9.7360096 C36.9675267,9.42316198 37.1478755,9.23064037 37.233951,9.15844477 Z"/>
        <path fill="url(#ic_popup_kyc_pending-g)" fill-rule="nonzero" d="M40.2056064,7.76667397 C39.8899961,7.18108741 39.320258,7.0246636 39.2587755,7.00460927 C39.0374384,6.94845713 38.8161013,7.07680487 38.7587176,7.29339168 C38.7177293,7.44580462 38.775113,7.59420669 38.8857815,7.6904675 C38.9308687,7.73057617 38.9882524,7.76667397 39.0538338,7.78271744 C39.0579326,7.78271744 39.3366534,7.86694564 39.4842114,8.13968459 C39.6317695,8.40841267 39.6112753,8.80949935 39.4350254,9.29481424 C39.3489499,9.52744452 39.2341825,9.70793353 39.1071186,9.84831387 C39.0743279,9.23866211 38.8693862,8.64906468 38.4226132,8.38835833 C38.3857236,8.368304 38.3447353,8.35226053 38.3037469,8.3322062 C37.7872937,8.09155419 37.1642708,8.16776066 36.7093001,8.54478214 C36.2256376,8.94586883 36.0739807,9.55953146 36.3076143,10.1531398 C36.340405,10.237368 36.3854922,10.3135744 36.4346782,10.3897809 C36.737992,10.8470197 37.332323,11.139813 38.004532,11.139813 C37.9102588,11.3483781 37.7627007,11.4887584 37.6028462,11.5288671 C37.1437766,11.6451822 36.6724106,11.5489214 36.315812,11.4165628 C36.2461318,11.199976 36.1682539,10.9874001 36.0821784,10.7748241 C34.1885166,6.02194688 28.6427928,2.57260138 22.1133486,2.57260138 C20.0803265,2.57260138 18.1087868,2.91753593 16.2971018,3.55125289 L12.788499,0.117950859 C12.6696328,0.00163571963 12.4933829,-0.0304512153 12.341726,0.0297117877 C12.1900691,0.0898747906 12.0875982,0.238276865 12.0875982,0.398711539 L12.0875982,5.76926227 C10.8292559,6.71181598 9.76765759,7.83886957 8.97658243,9.11031437 L6.69353133,9.11031437 C5.36140995,9.11031437 4.27521867,10.1731941 4.27521867,11.4767258 L4.27521867,16.3298747 C4.27521867,17.6334065 5.36140995,18.6962862 6.69353133,18.6962862 L7.34934493,18.6962862 C7.3575426,18.6962862 7.73053659,18.6989601 8.46832689,18.7043079 C9.17332651,20.1361874 10.2062329,21.4236756 11.546552,22.5427075 L11.546552,25.4225099 C11.546552,26.7260416 12.6327433,27.7889214 13.9648646,27.7889214 L17.0471886,27.7889214 C18.178467,27.7889214 19.1498909,26.9987806 19.395821,25.9519443 C21.1911108,26.2246833 23.0273889,26.2246833 24.8267774,25.9519443 C25.0768064,26.9987806 26.0482303,27.7889214 27.1754099,27.7889214 L30.2577338,27.7889214 C31.5898552,27.7889214 32.6760465,26.7260416 32.6760465,25.4225099 L32.6760465,22.5427075 C35.3238939,20.3367307 36.7789803,17.436874 36.7789803,14.36455 C36.7789803,13.6666591 36.6970036,12.9808009 36.5535444,12.314997 C36.7502885,12.3551057 36.9552302,12.3831817 37.1724685,12.3831817 C37.3774102,12.3831817 37.5905497,12.3591165 37.8077879,12.3069753 C38.3652295,12.1665949 38.7956071,11.6572148 38.9923512,10.9232262 C39.4883103,10.6946068 39.9473798,10.265444 40.2056064,9.57156406 C40.463833,8.85361889 40.4679318,8.24797799 40.2056064,7.76667397 Z M37.233951,9.15844477 C37.3487184,9.06218397 37.5126718,8.99399923 37.6848229,8.99399923 C37.6889217,8.99399923 37.6930205,8.99399923 37.6971194,8.99399923 C37.7995902,8.99399923 37.9020611,9.01806443 38.0004332,9.07822743 C38.1930784,9.19053171 38.3406365,9.6999118 38.2750551,10.3095636 C38.1643866,10.3296179 38.0742122,10.3336288 38.0168285,10.3376396 C37.5741543,10.3376396 37.1806662,10.1491289 37.0699976,9.86836821 C37.0495034,9.8202378 37.0372069,9.77611827 37.0290093,9.7360096 C36.9675267,9.42316198 37.1478755,9.23064037 37.233951,9.15844477 Z"/>
        <path fill="#5C5C5C" d="M13.6833036,9.11873605 C12.0896348,9.11873605 11.5937425,10.646707 11.5558882,11.4568673 C11.5445319,11.6877421 11.7035202,11.885035 11.9117192,11.8976282 C11.9192901,11.8976282 11.926861,11.8976282 11.9344319,11.8976282 C12.13506,11.8976282 12.3016192,11.7255216 12.3129755,11.4988446 C12.3129755,11.4946468 12.3129755,11.4820537 12.316761,11.4652628 C12.3356881,11.2343881 12.4946765,9.95408278 13.6870891,9.95408278 C14.917356,9.95408278 14.9627812,11.2259926 14.9665667,11.3729129 C14.9665667,11.3771106 14.9703521,11.3813083 14.9703521,11.3855061 C14.977923,11.6121831 15.1406967,11.7926851 15.3451103,11.7926851 C15.5533093,11.7926851 15.723654,11.6037876 15.723654,11.3729129 C15.7160831,10.5921366 15.2921142,9.11873605 13.6833036,9.11873605 Z"/>
        <path fill="#A34842" d="M6.78813113,10.8535587 C6.40603346,10.8535587 6.0934081,11.0322018 6.0934081,11.2505433 L6.0934081,16.0143584 C6.0934081,16.2326999 6.40603346,16.411343 6.78813113,16.411343 C7.1702288,16.411343 7.48285416,16.2326999 7.48285416,16.0143584 L7.48285416,11.2505433 C7.48285416,11.0322018 7.17717603,10.8535587 6.78813113,10.8535587 Z"/>
        <path fill="#B34E48" d="M20.0886508,6.69932752 C20.3966535,6.63292499 23.1686785,6.06186315 25.9450416,6.929523 C25.9884223,6.9428035 26.031803,6.94723034 26.0708456,6.94723034 C26.2573825,6.94723034 26.4265671,6.82327893 26.4873,6.63292499 C26.5567091,6.39830268 26.4309052,6.15039986 26.2009876,6.07957049 C23.2727922,5.16321544 20.4400342,5.70771627 19.9021139,5.82724084 C19.6678582,5.88036287 19.5203639,6.11498518 19.5680827,6.35403432 C19.6201395,6.60193713 19.8543951,6.75244956 20.0886508,6.69932752 Z"/>
      </g>
    </g>
    <path fill="#4F2DA7" fill-rule="nonzero" d="M14.7477564,33.7794523 C5.20649047,27.6407219 0.290757509,16.4067945 0.0005575,0.0776699029 L158.000558,0.0776699029 C158.000558,56.9494276 158.000558,88.5448486 158.000558,94.8639328 C153.78724,103.815969 143.78061,105.92233 128.507334,105.92233 C113.234057,105.92233 92.1674688,103.289378 81.6341746,79.0662223 C71.1008804,54.8430662 74.72276,48.6293957 60.5675862,39.0453557 C46.4124123,29.4613158 29.0596553,42.9875478 14.7477564,33.7794523 Z" opacity=".05"/>
  </g>
</svg>
