<svg width="40" height="40" viewBox="0 0 40 40" fill="none" xmlns="http://www.w3.org/2000/svg">
<path d="M15.6907 21.5389C15.6803 21.5389 15.6701 21.5403 15.6597 21.5405C15.6701 21.5403 15.6803 21.5389 15.6907 21.5389Z" fill="#C3AFF6"/>
<path d="M15.5068 21.5512C15.5172 21.5499 15.5276 21.5475 15.5382 21.5465C15.5276 21.5475 15.5172 21.5498 15.5068 21.5512Z" fill="#C3AFF6"/>
<path d="M21.7915 17.7806L21.791 17.7811L22.219 18.2091L22.2195 18.2086L21.7915 17.7806Z" fill="#C3AFF6"/>
<path d="M22.0982 17.4736L27.9584 11.6134C28.0936 11.4782 28.1577 11.2859 28.1299 11.097L27.9861 10.1145L30.911 8.41294L31.5868 9.08872L29.8852 12.0136L28.9028 11.8698C28.7139 11.8438 28.5215 11.9062 28.3864 12.0413L22.5262 17.9016L23.3839 18.7593L29.0292 13.1139L30.1174 13.2733C30.3617 13.3097 30.6043 13.1919 30.7291 12.977L32.8708 9.29492C33.0077 9.05753 32.9695 8.75603 32.7737 8.56196L32.1066 7.89312L31.4378 7.22427C31.2437 7.0302 30.9422 6.99208 30.7048 7.12897L27.0227 9.27066C26.8078 9.39542 26.6917 9.63801 26.7264 9.88233L26.8858 10.9705L21.2405 16.6158L22.0982 17.4736Z" fill="#C3AFF6"/>
<path d="M31.4704 24.079C30.2114 22.8198 28.4024 22.2945 26.6755 22.6653L23.0769 19.0667L23.0774 19.0662L22.2197 18.2084L22.2192 18.209L21.7912 17.781L21.7917 17.7805L20.934 16.9227L20.9335 16.9233L17.3351 13.3247C17.7057 11.5974 17.1801 9.78878 15.9211 8.52958C14.6099 7.21857 12.6809 6.69839 10.8869 7.1723C10.8034 7.19431 10.7202 7.21857 10.6376 7.24473C10.4841 7.29342 10.3562 7.4012 10.2824 7.54433C10.2085 7.68745 10.1945 7.85397 10.2434 8.00732L10.2533 8.03799C10.2827 8.13018 10.3337 8.21387 10.4021 8.28231L13.0276 10.9078L12.5797 12.5797L10.9077 13.0277L8.28224 10.4022C8.21379 10.3337 8.1301 10.2828 8.03792 10.2533L8.00725 10.2435C7.8539 10.1946 7.68738 10.2083 7.54425 10.2824C7.40113 10.3564 7.29335 10.4843 7.24466 10.6377C7.21849 10.7203 7.19424 10.8035 7.1724 10.8867C6.69832 12.6811 7.21849 14.6104 8.5295 15.9212C9.7887 17.1802 11.5968 17.7052 13.3246 17.3351L16.2403 20.2509L16.1637 20.3276L15.7028 20.3259C14.9629 20.3259 14.2525 20.6187 13.7344 21.1368L8.10983 26.7614C6.69589 28.1753 6.69589 30.4764 8.10983 31.8903C8.81679 32.5973 9.74556 32.9508 10.6743 32.9508C11.6031 32.9508 12.5318 32.5973 13.2388 31.8903L18.8634 26.2658C19.3814 25.7477 19.6778 25.0321 19.6743 24.2991V24.2974L19.6726 23.8365L19.7493 23.7597L22.6652 26.6756C22.2944 28.4028 22.8198 30.2115 24.079 31.4705C25.0694 32.4611 26.4127 33 27.7845 33C28.2286 33 28.6756 32.9435 29.1146 32.8278C29.1976 32.8056 29.2806 32.7815 29.3629 32.7555C29.5162 32.7068 29.6439 32.599 29.7179 32.4559C29.7917 32.3131 29.8059 32.1466 29.7571 31.9933L29.7472 31.9624C29.7177 31.8701 29.6666 31.7862 29.5982 31.7178L26.9729 29.0923L27.4208 27.4205L29.0925 26.9726L31.718 29.5979C31.7866 29.6665 31.8703 29.7175 31.9627 29.7469L31.9935 29.7568C32.1467 29.8055 32.3134 29.7913 32.4562 29.7176C32.5991 29.6436 32.7069 29.5159 32.7558 29.3626C32.7818 29.2803 32.8059 29.1975 32.8282 29.1134C33.3018 27.3191 32.7816 25.3901 31.4704 24.079ZM18.6364 23.1572C18.619 23.1745 18.6034 23.1936 18.5878 23.2127C18.5047 23.3184 18.4579 23.4518 18.4579 23.5887L18.4596 23.7221L18.4614 24.2877V24.3026C18.4631 24.7132 18.2967 25.117 18.0056 25.4081L12.3811 31.0326C12.1777 31.236 11.946 31.3927 11.6998 31.5081C10.8275 31.9167 9.7608 31.7761 9.02299 31.0829C9.00567 31.0655 8.98487 31.0499 8.96755 31.0326C8.95022 31.0153 8.93462 30.9945 8.9173 30.9772C8.19491 30.2083 8.06997 29.0815 8.54388 28.1905C8.65322 27.985 8.79444 27.7922 8.96755 27.6191L14.5921 21.9945C14.8378 21.7488 15.1637 21.5931 15.5068 21.5513C15.5172 21.5501 15.5276 21.5477 15.5382 21.5466C15.5784 21.5426 15.6191 21.5412 15.6596 21.5405C15.67 21.5404 15.6803 21.539 15.6907 21.539H15.6908H15.6976H15.7125L16.2781 21.5407L16.4115 21.5425H16.4132C16.5501 21.5425 16.6818 21.4957 16.7875 21.4108C16.8066 21.3969 16.8256 21.3813 16.843 21.364L17.0982 21.1087L18.8916 22.9022L18.6364 23.1572ZM31.7842 27.9492L29.7023 25.8673C29.549 25.7139 29.3261 25.6543 29.1165 25.7103L26.7682 26.3396C26.5591 26.3957 26.3957 26.5593 26.3394 26.7685L25.71 29.1167C25.6541 29.326 25.7137 29.5494 25.867 29.7026L27.9487 31.7843C26.8408 31.8313 25.7372 31.4138 24.9363 30.6131C23.9031 29.5799 23.5132 28.0644 23.9192 26.6581C23.9805 26.4458 23.9216 26.2173 23.7653 26.0611L13.9394 16.2347C13.824 16.1193 13.6691 16.057 13.5103 16.057C13.4542 16.057 13.3977 16.0648 13.3423 16.0808C11.9352 16.4866 10.4201 16.0967 9.38687 15.0635C8.58634 14.2629 8.16978 13.1621 8.21587 12.0514L10.2976 14.133C10.4508 14.2862 10.6741 14.3458 10.8835 14.29L13.2319 13.6608C13.4412 13.6047 13.6046 13.4413 13.6607 13.2319L14.2899 10.8835C14.346 10.6742 14.2861 10.4509 14.1329 10.2977L12.0513 8.21612C13.161 8.17072 14.2629 8.58659 15.0634 9.3873C16.0968 10.4205 16.4865 11.9362 16.0807 13.3425C16.0194 13.5546 16.0785 13.7833 16.2346 13.9394L26.0609 23.7656C26.2169 23.9219 26.4457 23.9806 26.6578 23.9195C28.0645 23.5136 29.5798 23.9033 30.6129 24.9366C31.4136 25.7375 31.8301 26.839 31.7842 27.9492Z" fill="#C3AFF6"/>
<path d="M10.8349 30.7349C10.9195 30.8195 11.0304 30.8618 11.1413 30.8618C11.2522 30.8618 11.3631 30.8195 11.4476 30.7349L17.4849 24.6976C17.5716 24.611 17.6132 24.4968 17.6111 24.3833C17.609 24.2752 17.5674 24.1678 17.4849 24.0851C17.3158 23.9158 17.0413 23.9158 16.8724 24.0851L12.8943 28.0632L10.8353 30.1222C10.6656 30.2917 10.6656 30.5658 10.8349 30.7349Z" fill="#4AD0C0"/>
<path d="M9.2654 28.5532C9.09611 28.7225 9.09611 28.9966 9.2654 29.1657C9.34995 29.2503 9.46085 29.2925 9.57175 29.2925C9.68265 29.2925 9.79354 29.2503 9.8781 29.1657L11.9375 27.1065L15.9154 23.1288C16.0847 22.9595 16.0847 22.6854 15.9154 22.5162C15.8329 22.4338 15.7255 22.3922 15.6172 22.3901C15.5035 22.388 15.3893 22.4296 15.3027 22.5162L9.2654 28.5532Z" fill="#4AD0C0"/>
<path d="M15.7981 15.1857C15.629 15.0164 15.3545 15.0164 15.1856 15.1857C15.0163 15.3548 15.0163 15.6291 15.1856 15.7982L24.2011 24.8138C24.2857 24.8983 24.3966 24.9406 24.5075 24.9406C24.6184 24.9406 24.7291 24.8983 24.8138 24.8138C24.9831 24.6445 24.9831 24.3704 24.8138 24.2012L15.7981 15.1857Z" fill="#4AD0C0"/>
</svg>
