<svg width="40" height="40" viewBox="0 0 40 40" fill="none" xmlns="http://www.w3.org/2000/svg">
<path fill-rule="evenodd" clip-rule="evenodd" d="M25.0849 31.7219H25.7963C26.0871 31.7219 26.3232 31.9533 26.3232 32.2383C26.3232 32.5234 26.0871 32.7547 25.7963 32.7547H14.2037C13.9129 32.7547 13.6768 32.5234 13.6768 32.2383C13.6768 31.9533 13.9129 31.7219 14.2037 31.7219H14.9151L16.5544 28.1072H6.8267C5.98361 28.1072 5.2459 27.3409 5.2459 26.3407V9.01183C5.2459 8.01159 5.98361 7.24528 6.8267 7.24528H33.1733C34.0164 7.24528 34.7541 8.01159 34.7541 9.01183V26.3407C34.7541 27.3409 34.0164 28.1072 33.1733 28.1072H23.4456L25.0849 31.7219ZM17.7078 28.1072L16.0686 31.7219H23.9314L22.2922 28.1072H17.7078ZM33.7002 24.3893H6.29977V26.3407C6.29977 26.7228 6.50474 27.0745 6.8267 27.0745H33.1733C33.4953 27.0745 33.7002 26.7228 33.7002 26.3407V24.3893ZM33.7002 23.3565V9.01183C33.7002 8.62971 33.4953 8.27805 33.1733 8.27805H6.8267C6.50474 8.27805 6.29977 8.62971 6.29977 9.01183V23.3565H33.7002Z" fill="#C3AFF6"/>
<path fill-rule="evenodd" clip-rule="evenodd" d="M6.8267 7.49057C6.13999 7.49057 5.4918 8.12559 5.4918 9.01183V26.3407C5.4918 27.2269 6.13999 27.862 6.8267 27.862H16.9355L15.0738 31.9672H14.2037C14.0446 31.9672 13.9227 32.0928 13.9227 32.2383C13.9227 32.3838 14.0446 32.5094 14.2037 32.5094H25.7963C25.9554 32.5094 26.0773 32.3838 26.0773 32.2383C26.0773 32.0928 25.9554 31.9672 25.7963 31.9672H24.9262L23.0645 27.862H33.1733C33.86 27.862 34.5082 27.2269 34.5082 26.3407V9.01183C34.5082 8.12559 33.86 7.49057 33.1733 7.49057H6.8267ZM5 9.01183C5 7.8976 5.82723 7 6.8267 7H33.1733C34.1728 7 35 7.8976 35 9.01183V26.3407C35 27.4549 34.1728 28.3525 33.1733 28.3525H23.8267L25.2435 31.4767H25.7963C26.2188 31.4767 26.5691 31.8137 26.5691 32.2383C26.5691 32.6629 26.2188 33 25.7963 33H14.2037C13.7812 33 13.4309 32.6629 13.4309 32.2383C13.4309 31.8137 13.7812 31.4767 14.2037 31.4767H14.7565L16.1733 28.3525H6.8267C5.82723 28.3525 5 27.4549 5 26.3407V9.01183ZM6.23846 8.36475C6.36366 8.17908 6.56451 8.03277 6.8267 8.03277H33.1733C33.4355 8.03277 33.6363 8.17908 33.7615 8.36475C33.8847 8.54744 33.9461 8.78054 33.9461 9.01183V23.6018H6.05386V9.01183C6.05386 8.78054 6.11527 8.54744 6.23846 8.36475ZM6.64654 8.63854C6.58675 8.72721 6.54567 8.861 6.54567 9.01183V23.1112H33.4543V9.01183C33.4543 8.861 33.4132 8.72721 33.3535 8.63854C33.2957 8.55286 33.2331 8.52334 33.1733 8.52334H6.8267C6.76693 8.52334 6.70432 8.55286 6.64654 8.63854ZM6.05386 24.144H33.9461V26.3407C33.9461 26.572 33.8847 26.8051 33.7615 26.9878C33.6363 27.1735 33.4355 27.3198 33.1733 27.3198H6.8267C6.56451 27.3198 6.36366 27.1735 6.23846 26.9878C6.11527 26.8051 6.05386 26.572 6.05386 26.3407V24.144ZM6.54567 24.6346V26.3407C6.54567 26.4915 6.58675 26.6253 6.64654 26.714C6.70432 26.7997 6.76693 26.8292 6.8267 26.8292H33.1733C33.2331 26.8292 33.2957 26.7997 33.3535 26.714C33.4132 26.6253 33.4543 26.4915 33.4543 26.3407V24.6346H6.54567ZM17.5492 27.862H22.4508L24.3126 31.9672H15.6874L17.5492 27.862ZM17.8665 28.3525L16.4497 31.4767H23.5503L22.1335 28.3525H17.8665Z" fill="#C3AFF6"/>
<path fill-rule="evenodd" clip-rule="evenodd" d="M20.0131 18.0462C20.1603 18.047 20.3075 18.0629 20.4525 18.0931C20.5669 18.1165 20.6792 18.1498 20.7885 18.1921C20.874 18.2246 20.9565 18.2624 21.0368 18.3055C21.1788 18.3811 21.3126 18.4726 21.4345 18.5769C21.4709 18.6079 21.5066 18.6404 21.5408 18.6736C21.575 18.7069 21.6077 18.7409 21.6367 18.778C21.7259 18.8936 21.7794 19.035 21.7921 19.1808C21.7965 19.2383 21.7951 19.2957 21.7869 19.3524C21.7765 19.4235 21.7564 19.493 21.7274 19.558C21.6969 19.6268 21.6553 19.6903 21.6062 19.747C21.552 19.809 21.488 19.8619 21.4167 19.9027C21.346 19.9428 21.2687 19.9715 21.1884 19.9866C21.0524 20.0131 20.9089 19.9995 20.7796 19.9481C20.7082 19.9194 20.6413 19.88 20.5818 19.8309C20.5669 19.8181 20.5528 19.806 20.5394 19.7924C20.5231 19.7765 20.5075 19.7606 20.4904 19.7455C20.4532 19.7123 20.4131 19.6828 20.3699 19.6571C20.3097 19.6223 20.2443 19.5958 20.1766 19.5792C20.0124 19.5384 19.8354 19.5558 19.6823 19.6291C19.6065 19.6661 19.5373 19.7153 19.4778 19.775L19.4704 19.7818C19.4087 19.8438 19.3366 19.8952 19.257 19.9322C19.1686 19.973 19.0727 19.9957 18.9753 19.9995C18.8734 20.0033 18.7716 19.9859 18.6772 19.9481C18.6118 19.9216 18.5493 19.8861 18.4936 19.8423C18.4282 19.7909 18.3709 19.7274 18.3248 19.6563C18.2772 19.5815 18.2423 19.4983 18.2237 19.4106C18.2022 19.3161 18.1999 19.2179 18.2148 19.1219C18.2349 18.9957 18.2876 18.8747 18.3657 18.7742C18.3939 18.7387 18.4259 18.7062 18.4586 18.6736C18.4965 18.6374 18.5352 18.6018 18.5753 18.5678C18.73 18.437 18.9017 18.3282 19.0853 18.2443C19.2779 18.1566 19.483 18.0969 19.6927 18.0674C19.7945 18.0531 19.8971 18.0462 19.9997 18.0462H20.0131ZM17.3718 17.6411C18.8222 16.1656 21.1773 16.1656 22.6284 17.6411C22.9184 17.9359 23.3897 17.9359 23.6796 17.6411C23.9695 17.3455 23.9695 16.867 23.6796 16.5715C21.6486 14.5064 18.3508 14.5064 16.3198 16.5715C16.0299 16.867 16.0299 17.3455 16.3198 17.6411C16.6105 17.9359 17.0811 17.9359 17.3718 17.6411ZM15.2686 15.5026C17.8795 12.8479 22.1199 12.8479 24.7308 15.5026C25.0207 15.7974 25.4921 15.7974 25.782 15.5026C26.0727 15.2078 26.0727 14.7286 25.782 14.4338C22.5905 11.1887 17.4089 11.1887 14.2174 14.4338C13.9275 14.7286 13.9275 15.2078 14.2174 15.5026C14.5074 15.7974 14.9787 15.7974 15.2686 15.5026Z" fill="#4AD0C0"/>
</svg>
