<svg width="40" height="40" viewBox="0 0 40 40" fill="none" xmlns="http://www.w3.org/2000/svg">
<path d="M19.9398 5.00392C19.7779 5.02172 19.6286 5.09954 19.5212 5.22205C19.4139 5.34456 19.3563 5.50286 19.3598 5.66577V10.8791C19.3585 10.9654 19.3745 11.0512 19.4067 11.1313C19.4388 11.2115 19.4866 11.2844 19.5472 11.3459C19.6078 11.4074 19.68 11.4562 19.7597 11.4896C19.8393 11.5229 19.9247 11.54 20.011 11.54C20.0974 11.54 20.1828 11.5229 20.2624 11.4896C20.3421 11.4562 20.4143 11.4074 20.4749 11.3459C20.5355 11.2844 20.5833 11.2115 20.6154 11.1313C20.6476 11.0512 20.6636 10.9654 20.6623 10.8791V5.66577C20.6643 5.573 20.6465 5.48087 20.6101 5.39555C20.5736 5.31023 20.5194 5.23368 20.451 5.17102C20.3826 5.10837 20.3016 5.06105 20.2134 5.03223C20.1253 5.00341 20.032 4.99376 19.9398 5.00392ZM11.473 10.8689C11.3489 10.881 11.2308 10.9285 11.1329 11.0058C11.0349 11.083 10.9612 11.1868 10.9205 11.3048C10.8798 11.4227 10.8737 11.5499 10.9031 11.6712C10.9325 11.7925 10.9961 11.9028 11.0863 11.989L13.0402 13.944C13.1006 14.0061 13.1727 14.0555 13.2524 14.0894C13.3322 14.1233 13.4178 14.141 13.5044 14.1414C13.591 14.1417 13.6769 14.1248 13.7569 14.0916C13.8369 14.0584 13.9094 14.0095 13.9703 13.9479C14.0312 13.8863 14.0792 13.8132 14.1116 13.7328C14.1439 13.6523 14.1598 13.5663 14.1585 13.4797C14.1572 13.393 14.1386 13.3075 14.1038 13.2281C14.0691 13.1487 14.0188 13.0771 13.9561 13.0174L12.0022 11.0624C11.9341 10.9925 11.8512 10.9389 11.7596 10.9054C11.668 10.8719 11.5701 10.8595 11.473 10.8689ZM28.3964 10.8689C28.2529 10.8897 28.1204 10.9577 28.0199 11.0624L26.066 13.0174C26.0032 13.0771 25.953 13.1487 25.9183 13.2281C25.8835 13.3075 25.8649 13.393 25.8636 13.4797C25.8623 13.5663 25.8782 13.6523 25.9105 13.7328C25.9428 13.8132 25.9909 13.8863 26.0518 13.9479C26.1127 14.0095 26.1852 14.0584 26.2652 14.0916C26.3452 14.1248 26.431 14.1417 26.5177 14.1414C26.6043 14.141 26.6899 14.1233 26.7696 14.0894C26.8494 14.0555 26.9215 14.0061 26.9819 13.944L28.9358 11.989C29.0368 11.894 29.1049 11.7694 29.1302 11.6331C29.1555 11.4968 29.1368 11.3559 29.0766 11.231C29.0165 11.1061 28.9181 11.0036 28.7958 10.9385C28.6734 10.8734 28.5335 10.849 28.3964 10.8689ZM5.62161 19.3507C5.53607 19.3547 5.45215 19.3756 5.37465 19.412C5.29715 19.4484 5.22759 19.4998 5.16993 19.5632C5.11227 19.6265 5.06765 19.7006 5.03862 19.7812C5.00959 19.8618 4.99671 19.9474 5.00072 20.033C5.00472 20.1185 5.02555 20.2025 5.06199 20.28C5.09843 20.3576 5.14978 20.4272 5.21311 20.4849C5.27644 20.5425 5.3505 20.5872 5.43106 20.6162C5.51163 20.6452 5.59713 20.6581 5.68266 20.6541H10.893C10.9793 20.6553 11.065 20.6393 11.1451 20.6071C11.2252 20.5749 11.298 20.5271 11.3595 20.4665C11.421 20.4059 11.4698 20.3336 11.5031 20.2539C11.5364 20.1743 11.5536 20.0888 11.5536 20.0024C11.5536 19.916 11.5364 19.8305 11.5031 19.7509C11.4698 19.6712 11.421 19.5989 11.3595 19.5383C11.298 19.4777 11.2252 19.4299 11.1451 19.3977C11.065 19.3655 10.9793 19.3495 10.893 19.3507H5.68266C5.66232 19.3498 5.64195 19.3498 5.62161 19.3507ZM29.068 19.3507C28.9825 19.3547 28.8986 19.3756 28.8211 19.412C28.7436 19.4484 28.674 19.4998 28.6164 19.5632C28.5587 19.6265 28.5141 19.7006 28.4851 19.7812C28.456 19.8618 28.4431 19.9474 28.4472 20.033C28.4512 20.1185 28.472 20.2025 28.5084 20.28C28.5449 20.3576 28.5962 20.4272 28.6595 20.4849C28.7229 20.5425 28.7969 20.5872 28.8775 20.6162C28.9581 20.6452 29.0436 20.6581 29.1291 20.6541H34.3394C34.4257 20.6553 34.5114 20.6393 34.5915 20.6071C34.6716 20.5749 34.7445 20.5271 34.806 20.4665C34.8674 20.4059 34.9162 20.3336 34.9495 20.2539C34.9828 20.1743 35 20.0888 35 20.0024C35 19.916 34.9828 19.8305 34.9495 19.7509C34.9162 19.6712 34.8674 19.5989 34.806 19.5383C34.7445 19.4777 34.6716 19.4299 34.5915 19.3977C34.5114 19.3655 34.4257 19.3495 34.3394 19.3507H29.1291C29.1088 19.3498 29.0884 19.3498 29.068 19.3507ZM13.4167 25.8572C13.2732 25.878 13.1407 25.946 13.0402 26.0507L11.0863 28.0057C11.0236 28.0654 10.9733 28.137 10.9386 28.2164C10.9038 28.2958 10.8853 28.3813 10.8839 28.468C10.8826 28.5546 10.8986 28.6406 10.9309 28.7211C10.9632 28.8015 11.0112 28.8746 11.0721 28.9362C11.133 28.9978 11.2056 29.0467 11.2856 29.0799C11.3656 29.1131 11.4514 29.13 11.538 29.1297C11.6246 29.1293 11.7103 29.1116 11.79 29.0777C11.8697 29.0439 11.9418 28.9944 12.0022 28.9323L13.9561 26.9773C14.0571 26.8823 14.1252 26.7577 14.1505 26.6214C14.1759 26.4851 14.1571 26.3442 14.097 26.2193C14.0368 26.0944 13.9384 25.9919 13.8161 25.9268C13.6938 25.8617 13.5539 25.8373 13.4167 25.8572ZM26.4527 25.8572C26.3286 25.8693 26.2105 25.9168 26.1125 25.9941C26.0146 26.0713 25.9409 26.1751 25.9001 26.2931C25.8594 26.411 25.8534 26.5382 25.8828 26.6595C25.9122 26.7808 25.9758 26.8911 26.066 26.9773L28.0199 28.9323C28.0803 28.9944 28.1524 29.0439 28.2321 29.0777C28.3118 29.1116 28.3975 29.1293 28.4841 29.1297C28.5707 29.13 28.6565 29.1131 28.7365 29.0799C28.8165 29.0467 28.8891 28.9978 28.95 28.9362C29.0109 28.8746 29.0589 28.8015 29.0912 28.7211C29.1235 28.6406 29.1395 28.5546 29.1382 28.468C29.1368 28.3813 29.1183 28.2958 29.0835 28.2164C29.0487 28.137 28.9985 28.0654 28.9358 28.0057L26.9819 26.0507C26.9138 25.9809 26.8309 25.9272 26.7393 25.8937C26.6477 25.8603 26.5498 25.8478 26.4527 25.8572ZM19.9398 28.4639C19.7779 28.4817 19.6286 28.5595 19.5212 28.682C19.4139 28.8045 19.3563 28.9628 19.3598 29.1257V34.339C19.3585 34.4254 19.3745 34.5111 19.4067 34.5913C19.4388 34.6714 19.4866 34.7443 19.5472 34.8058C19.6078 34.8673 19.68 34.9162 19.7597 34.9495C19.8393 34.9828 19.9247 35 20.011 35C20.0974 35 20.1828 34.9828 20.2624 34.9495C20.3421 34.9162 20.4143 34.8673 20.4749 34.8058C20.5355 34.7443 20.5833 34.6714 20.6154 34.5913C20.6476 34.5111 20.6636 34.4254 20.6623 34.339V29.1257C20.6643 29.033 20.6465 28.9408 20.6101 28.8555C20.5736 28.7702 20.5194 28.6936 20.451 28.631C20.3826 28.5683 20.3016 28.521 20.2134 28.4922C20.1253 28.4634 20.032 28.4537 19.9398 28.4639Z" fill="#C3AFF6"/>
<path d="M18.6001 13.4857C18.4792 13.4982 18.3645 13.5451 18.2694 13.6209C18.1744 13.6966 18.103 13.798 18.0638 13.913L17.6268 15.1949C17.5938 15.2753 17.5776 15.3616 17.5792 15.4485C17.5809 15.5354 17.6003 15.621 17.6362 15.7001C17.6722 15.7792 17.724 15.8501 17.7884 15.9084C17.8529 15.9666 17.9285 16.0111 18.0108 16.039C18.0931 16.0669 18.1802 16.0776 18.2667 16.0705C18.3533 16.0634 18.4375 16.0386 18.5141 15.9977C18.5907 15.9568 18.6582 15.9006 18.7122 15.8326C18.7663 15.7646 18.8059 15.6862 18.8285 15.6023L19.1165 14.7577H22.6222L20.2983 18.8914C20.2423 18.9885 20.2129 19.0987 20.2132 19.2108C20.2135 19.3229 20.2433 19.433 20.2998 19.5298C20.3562 19.6267 20.4373 19.7069 20.5347 19.7623C20.6321 19.8177 20.7424 19.8463 20.8545 19.8454H22.2746L18.1929 24.3269L18.9179 21.9321C18.9455 21.8376 18.9509 21.738 18.9336 21.6411C18.9162 21.5442 18.8766 21.4527 18.8179 21.3737C18.7592 21.2947 18.6829 21.2304 18.5951 21.1859C18.5074 21.1414 18.4105 21.1179 18.3121 21.1173H16.9714L17.8751 18.4443C17.9081 18.3639 17.9243 18.2776 17.9227 18.1907C17.9211 18.1038 17.9017 18.0182 17.8657 17.9391C17.8297 17.86 17.7779 17.7891 17.7135 17.7308C17.6491 17.6725 17.5734 17.628 17.4912 17.6001C17.4089 17.5723 17.3218 17.5615 17.2352 17.5686C17.1487 17.5757 17.0645 17.6005 16.9878 17.6414C16.9112 17.6823 16.8438 17.7385 16.7897 17.8066C16.7356 17.8746 16.6961 17.9529 16.6734 18.0368L15.4817 21.5446C15.4483 21.6408 15.4385 21.7437 15.4531 21.8445C15.4678 21.9454 15.5064 22.0412 15.5658 22.124C15.6251 22.2068 15.7035 22.2741 15.7943 22.3203C15.8851 22.3664 15.9857 22.39 16.0875 22.3892H17.458L16.157 26.6521C16.1117 26.7914 16.1158 26.9421 16.1687 27.0787C16.2215 27.2153 16.3199 27.3294 16.4472 27.4019C16.5744 27.4743 16.7228 27.5005 16.8671 27.4762C17.0115 27.4518 17.143 27.3784 17.2395 27.2682L24.1814 19.6367C24.2638 19.5457 24.3182 19.4328 24.3379 19.3116C24.3576 19.1904 24.3419 19.0661 24.2925 18.9537C24.2431 18.8412 24.1623 18.7455 24.0598 18.678C23.9572 18.6106 23.8374 18.5742 23.7146 18.5734H21.937L24.2708 14.4297C24.3243 14.3329 24.3517 14.2238 24.3502 14.1131C24.3487 14.0025 24.3184 13.8941 24.2622 13.7988C24.2061 13.7035 24.126 13.6244 24.03 13.5695C23.9339 13.5146 23.8252 13.4857 23.7146 13.4857H18.6597C18.6398 13.4848 18.6199 13.4848 18.6001 13.4857Z" fill="#4AD0C0"/>
</svg>
