<svg xmlns="http://www.w3.org/2000/svg" xmlns:xlink="http://www.w3.org/1999/xlink" width="150" height="160" viewBox="0 0 150 160">
    <defs>
        <radialGradient id="prefix__e" cx="50%" cy="50%" r="169.969%" fx="50%" fy="50%" gradientTransform="matrix(.31123 .09 -.01212 .42918 .35 .24)">
            <stop offset="0%" stop-color="#482998"/>
            <stop offset="100%" stop-color="#331C6B"/>
        </radialGradient>
        <radialGradient id="prefix__f" cx="50%" cy="50%" r="172.982%" fx="50%" fy="50%" gradientTransform="matrix(.29888 .08643 -.01117 .42932 .356 .242)">
            <stop offset="0%" stop-color="#7F66BF"/>
            <stop offset="100%" stop-color="#6E54B7"/>
        </radialGradient>
        <linearGradient id="prefix__c" x1="50%" x2="100%" y1="43.622%" y2="56.378%">
            <stop offset="0%" stop-color="#F5F1FD"/>
            <stop offset="100%" stop-color="#E8DFFA"/>
        </linearGradient>
        <linearGradient id="prefix__d" x1="53.268%" x2="45.766%" y1="57.121%" y2="47.613%">
            <stop offset="0%" stop-color="#6E54B7"/>
            <stop offset="100%" stop-color="#A281EF"/>
        </linearGradient>
        <path id="prefix__a" d="M6 0h138c3.314 0 6 2.686 6 6v148c0 3.314-2.686 6-6 6H6c-3.314 0-6-2.686-6-6V6c0-3.314 2.686-6 6-6z"/>
    </defs>
    <g fill="none" fill-rule="evenodd">
        <mask id="prefix__b" fill="#fff">
            <use xlink:href="#prefix__a"/>
        </mask>
        <path fill="#4F2DA7" fill-rule="nonzero" d="M121.633 46.205c11 0 30 0 34-11s-29.258-10.355-37-18.097c-7.742-7.742-20.225-6.903-32-6.903-11.775 0-9.544-12.978-19-11-9.456 1.978-1 11.89-4 17.903v29.097h58z" mask="url(#prefix__b)" opacity=".05" transform="rotate(180 109.483 22.603)"/>
        <path fill="#4F2DA7" fill-rule="nonzero" d="M49.714 167.567c39.264-13.96 56.714 17.45 56.714 0s-20.94-26.176-31.41-36.646C64.547 120.45 69.128 103 53.203 103s-7.902 9.782-25.303 17.45C10.5 128.12-7 108.236-7 130.92c0 22.686 17.45 50.607 56.714 36.647z" mask="url(#prefix__b)" opacity=".05"/>
        <path fill="#4F2DA7" fill-rule="nonzero" d="M98.714 121.567c39.264-13.96 56.714 17.45 56.714 0s-20.94-26.176-31.41-36.646C113.547 74.45 118.128 57 102.203 57s-7.902 9.782-25.303 17.45C59.5 82.12 42 62.236 42 84.92c0 22.686 17.45 50.607 56.714 36.647z" mask="url(#prefix__b)" opacity=".05" transform="matrix(-1 0 0 1 197.428 0)"/>
        <g mask="url(#prefix__b)">
            <g transform="translate(28 111)">
                <ellipse cx="45" cy="30" fill="url(#prefix__c)" rx="14" ry="5"/>
                <ellipse cx="74" cy="30" fill="url(#prefix__c)" rx="14" ry="5"/>
                <g>
                    <path fill="url(#prefix__d)" d="M10.299 8.573c5.1 0 7.428-.389 9.236-1.987 1.808-1.597.765-4.302-1.32-5.008C16.131.87 5.021.326 2.382 1.578c-2.64 1.252-3.094 3.44-1.32 5.008C2.837 8.154 5.197 8.573 10.3 8.573z" transform="translate(34 24)"/>
                    <path fill="url(#prefix__e)" d="M10.232 5.53c4.887 0 8.849-1.237 8.849-2.765 0-1.527-3.962-2.765-8.85-2.765-4.886 0-8.848 1.238-8.848 2.765 0 1.528 3.962 2.766 8.849 2.766z" transform="translate(34 24)"/>
                    <path fill="url(#prefix__f)" d="M10.232 5.254c4.582 0 8.296-1.114 8.296-2.489 0-1.374-3.714-2.488-8.296-2.488-4.582 0-8.296 1.114-8.296 2.488 0 1.375 3.714 2.49 8.296 2.49z" transform="translate(34 24)"/>
                    <path fill="#FFF" d="M12.23.83L9.213.983l-1.46.074c-.163.008-.291.085-.286.171.004.086.14.15.303.141l1.46-.074c.44-.022.864.071 1.134.25.127.084.214.18.264.28l-2.826.143c-.162.008-.29.084-.286.17.005.087.14.15.303.142l2.837-.144c-.01.028-.021.055-.036.082-.113.2-.384.354-.764.436-.58.125-1.232.146-1.864.166l-.133.004c-.124.003-.236.05-.279.113-.042.063-.007.131.088.17l3.73 1.53c.058.024.129.033.198.03.082-.005.162-.026.218-.064.105-.07.088-.168-.036-.22L8.664 3.108c.463-.024.93-.066 1.381-.163.565-.122.97-.354 1.139-.654.034-.06.054-.122.067-.184l1.046-.053c.163-.008.29-.084.286-.17-.004-.087-.14-.15-.303-.142l-1.05.053c-.06-.164-.193-.321-.397-.456-.062-.041-.133-.078-.207-.113l1.621-.082c.163-.008.291-.085.287-.171-.005-.087-.14-.15-.304-.142z" transform="translate(34 24)"/>
                </g>
                <g>
                    <path fill="url(#prefix__d)" d="M10.299 8.573c5.1 0 7.428-.389 9.236-1.987 1.808-1.597.765-4.302-1.32-5.008C16.131.87 5.021.326 2.382 1.578c-2.64 1.252-3.094 3.44-1.32 5.008C2.837 8.154 5.197 8.573 10.3 8.573z" transform="translate(34 20)"/>
                    <path fill="url(#prefix__e)" d="M10.232 5.53c4.887 0 8.849-1.237 8.849-2.765 0-1.527-3.962-2.765-8.85-2.765-4.886 0-8.848 1.238-8.848 2.765 0 1.528 3.962 2.766 8.849 2.766z" transform="translate(34 20)"/>
                    <path fill="url(#prefix__f)" d="M10.232 5.254c4.582 0 8.296-1.114 8.296-2.489 0-1.374-3.714-2.488-8.296-2.488-4.582 0-8.296 1.114-8.296 2.488 0 1.375 3.714 2.49 8.296 2.49z" transform="translate(34 20)"/>
                    <path fill="#FFF" d="M12.23.83L9.213.983l-1.46.074c-.163.008-.291.085-.286.171.004.086.14.15.303.141l1.46-.074c.44-.022.864.071 1.134.25.127.084.214.18.264.28l-2.826.143c-.162.008-.29.084-.286.17.005.087.14.15.303.142l2.837-.144c-.01.028-.021.055-.036.082-.113.2-.384.354-.764.436-.58.125-1.232.146-1.864.166l-.133.004c-.124.003-.236.05-.279.113-.042.063-.007.131.088.17l3.73 1.53c.058.024.129.033.198.03.082-.005.162-.026.218-.064.105-.07.088-.168-.036-.22L8.664 3.108c.463-.024.93-.066 1.381-.163.565-.122.97-.354 1.139-.654.034-.06.054-.122.067-.184l1.046-.053c.163-.008.29-.084.286-.17-.004-.087-.14-.15-.303-.142l-1.05.053c-.06-.164-.193-.321-.397-.456-.062-.041-.133-.078-.207-.113l1.621-.082c.163-.008.291-.085.287-.171-.005-.087-.14-.15-.304-.142z" transform="translate(34 20)"/>
                </g>
                <g>
                    <path fill="url(#prefix__d)" d="M10.299 8.573c5.1 0 7.428-.389 9.236-1.987 1.808-1.597.765-4.302-1.32-5.008C16.131.87 5.021.326 2.382 1.578c-2.64 1.252-3.094 3.44-1.32 5.008C2.837 8.154 5.197 8.573 10.3 8.573z" transform="translate(36 16)"/>
                    <path fill="url(#prefix__e)" d="M10.232 5.53c4.887 0 8.849-1.237 8.849-2.765 0-1.527-3.962-2.765-8.85-2.765-4.886 0-8.848 1.238-8.848 2.765 0 1.528 3.962 2.766 8.849 2.766z" transform="translate(36 16)"/>
                    <path fill="url(#prefix__f)" d="M10.232 5.254c4.582 0 8.296-1.114 8.296-2.489 0-1.374-3.714-2.488-8.296-2.488-4.582 0-8.296 1.114-8.296 2.488 0 1.375 3.714 2.49 8.296 2.49z" transform="translate(36 16)"/>
                    <path fill="#FFF" d="M12.23.83L9.213.983l-1.46.074c-.163.008-.291.085-.286.171.004.086.14.15.303.141l1.46-.074c.44-.022.864.071 1.134.25.127.084.214.18.264.28l-2.826.143c-.162.008-.29.084-.286.17.005.087.14.15.303.142l2.837-.144c-.01.028-.021.055-.036.082-.113.2-.384.354-.764.436-.58.125-1.232.146-1.864.166l-.133.004c-.124.003-.236.05-.279.113-.042.063-.007.131.088.17l3.73 1.53c.058.024.129.033.198.03.082-.005.162-.026.218-.064.105-.07.088-.168-.036-.22L8.664 3.108c.463-.024.93-.066 1.381-.163.565-.122.97-.354 1.139-.654.034-.06.054-.122.067-.184l1.046-.053c.163-.008.29-.084.286-.17-.004-.087-.14-.15-.303-.142l-1.05.053c-.06-.164-.193-.321-.397-.456-.062-.041-.133-.078-.207-.113l1.621-.082c.163-.008.291-.085.287-.171-.005-.087-.14-.15-.304-.142z" transform="translate(36 16)"/>
                </g>
                <g>
                    <path fill="url(#prefix__d)" d="M10.299 8.573c5.1 0 7.428-.389 9.236-1.987 1.808-1.597.765-4.302-1.32-5.008C16.131.87 5.021.326 2.382 1.578c-2.64 1.252-3.094 3.44-1.32 5.008C2.837 8.154 5.197 8.573 10.3 8.573z" transform="translate(33 12)"/>
                    <path fill="url(#prefix__e)" d="M10.232 5.53c4.887 0 8.849-1.237 8.849-2.765 0-1.527-3.962-2.765-8.85-2.765-4.886 0-8.848 1.238-8.848 2.765 0 1.528 3.962 2.766 8.849 2.766z" transform="translate(33 12)"/>
                    <path fill="url(#prefix__f)" d="M10.232 5.254c4.582 0 8.296-1.114 8.296-2.489 0-1.374-3.714-2.488-8.296-2.488-4.582 0-8.296 1.114-8.296 2.488 0 1.375 3.714 2.49 8.296 2.49z" transform="translate(33 12)"/>
                    <path fill="#FFF" d="M12.23.83L9.213.983l-1.46.074c-.163.008-.291.085-.286.171.004.086.14.15.303.141l1.46-.074c.44-.022.864.071 1.134.25.127.084.214.18.264.28l-2.826.143c-.162.008-.29.084-.286.17.005.087.14.15.303.142l2.837-.144c-.01.028-.021.055-.036.082-.113.2-.384.354-.764.436-.58.125-1.232.146-1.864.166l-.133.004c-.124.003-.236.05-.279.113-.042.063-.007.131.088.17l3.73 1.53c.058.024.129.033.198.03.082-.005.162-.026.218-.064.105-.07.088-.168-.036-.22L8.664 3.108c.463-.024.93-.066 1.381-.163.565-.122.97-.354 1.139-.654.034-.06.054-.122.067-.184l1.046-.053c.163-.008.29-.084.286-.17-.004-.087-.14-.15-.303-.142l-1.05.053c-.06-.164-.193-.321-.397-.456-.062-.041-.133-.078-.207-.113l1.621-.082c.163-.008.291-.085.287-.171-.005-.087-.14-.15-.304-.142z" transform="translate(33 12)"/>
                </g>
                <g>
                    <path fill="url(#prefix__d)" d="M10.299 8.573c5.1 0 7.428-.389 9.236-1.987 1.808-1.597.765-4.302-1.32-5.008C16.131.87 5.021.326 2.382 1.578c-2.64 1.252-3.094 3.44-1.32 5.008C2.837 8.154 5.197 8.573 10.3 8.573z" transform="translate(34 8)"/>
                    <path fill="url(#prefix__e)" d="M10.232 5.53c4.887 0 8.849-1.237 8.849-2.765 0-1.527-3.962-2.765-8.85-2.765-4.886 0-8.848 1.238-8.848 2.765 0 1.528 3.962 2.766 8.849 2.766z" transform="translate(34 8)"/>
                    <path fill="url(#prefix__f)" d="M10.232 5.254c4.582 0 8.296-1.114 8.296-2.489 0-1.374-3.714-2.488-8.296-2.488-4.582 0-8.296 1.114-8.296 2.488 0 1.375 3.714 2.49 8.296 2.49z" transform="translate(34 8)"/>
                    <path fill="#FFF" d="M12.23.83L9.213.983l-1.46.074c-.163.008-.291.085-.286.171.004.086.14.15.303.141l1.46-.074c.44-.022.864.071 1.134.25.127.084.214.18.264.28l-2.826.143c-.162.008-.29.084-.286.17.005.087.14.15.303.142l2.837-.144c-.01.028-.021.055-.036.082-.113.2-.384.354-.764.436-.58.125-1.232.146-1.864.166l-.133.004c-.124.003-.236.05-.279.113-.042.063-.007.131.088.17l3.73 1.53c.058.024.129.033.198.03.082-.005.162-.026.218-.064.105-.07.088-.168-.036-.22L8.664 3.108c.463-.024.93-.066 1.381-.163.565-.122.97-.354 1.139-.654.034-.06.054-.122.067-.184l1.046-.053c.163-.008.29-.084.286-.17-.004-.087-.14-.15-.303-.142l-1.05.053c-.06-.164-.193-.321-.397-.456-.062-.041-.133-.078-.207-.113l1.621-.082c.163-.008.291-.085.287-.171-.005-.087-.14-.15-.304-.142z" transform="translate(34 8)"/>
                </g>
                <g>
                    <path fill="url(#prefix__d)" d="M10.299 8.573c5.1 0 7.428-.389 9.236-1.987 1.808-1.597.765-4.302-1.32-5.008C16.131.87 5.021.326 2.382 1.578c-2.64 1.252-3.094 3.44-1.32 5.008C2.837 8.154 5.197 8.573 10.3 8.573z" transform="translate(65 24)"/>
                    <path fill="url(#prefix__e)" d="M10.232 5.53c4.887 0 8.849-1.237 8.849-2.765 0-1.527-3.962-2.765-8.85-2.765-4.886 0-8.848 1.238-8.848 2.765 0 1.528 3.962 2.766 8.849 2.766z" transform="translate(65 24)"/>
                    <path fill="url(#prefix__f)" d="M10.232 5.254c4.582 0 8.296-1.114 8.296-2.489 0-1.374-3.714-2.488-8.296-2.488-4.582 0-8.296 1.114-8.296 2.488 0 1.375 3.714 2.49 8.296 2.49z" transform="translate(65 24)"/>
                    <path fill="#FFF" d="M12.23.83L9.213.983l-1.46.074c-.163.008-.291.085-.286.171.004.086.14.15.303.141l1.46-.074c.44-.022.864.071 1.134.25.127.084.214.18.264.28l-2.826.143c-.162.008-.29.084-.286.17.005.087.14.15.303.142l2.837-.144c-.01.028-.021.055-.036.082-.113.2-.384.354-.764.436-.58.125-1.232.146-1.864.166l-.133.004c-.124.003-.236.05-.279.113-.042.063-.007.131.088.17l3.73 1.53c.058.024.129.033.198.03.082-.005.162-.026.218-.064.105-.07.088-.168-.036-.22L8.664 3.108c.463-.024.93-.066 1.381-.163.565-.122.97-.354 1.139-.654.034-.06.054-.122.067-.184l1.046-.053c.163-.008.29-.084.286-.17-.004-.087-.14-.15-.303-.142l-1.05.053c-.06-.164-.193-.321-.397-.456-.062-.041-.133-.078-.207-.113l1.621-.082c.163-.008.291-.085.287-.171-.005-.087-.14-.15-.304-.142z" transform="translate(65 24)"/>
                </g>
                <g>
                    <path fill="url(#prefix__d)" d="M10.299 8.573c5.1 0 7.428-.389 9.236-1.987 1.808-1.597.765-4.302-1.32-5.008C16.131.87 5.021.326 2.382 1.578c-2.64 1.252-3.094 3.44-1.32 5.008C2.837 8.154 5.197 8.573 10.3 8.573z" transform="translate(65 20)"/>
                    <path fill="url(#prefix__e)" d="M10.232 5.53c4.887 0 8.849-1.237 8.849-2.765 0-1.527-3.962-2.765-8.85-2.765-4.886 0-8.848 1.238-8.848 2.765 0 1.528 3.962 2.766 8.849 2.766z" transform="translate(65 20)"/>
                    <path fill="url(#prefix__f)" d="M10.232 5.254c4.582 0 8.296-1.114 8.296-2.489 0-1.374-3.714-2.488-8.296-2.488-4.582 0-8.296 1.114-8.296 2.488 0 1.375 3.714 2.49 8.296 2.49z" transform="translate(65 20)"/>
                    <path fill="#FFF" d="M12.23.83L9.213.983l-1.46.074c-.163.008-.291.085-.286.171.004.086.14.15.303.141l1.46-.074c.44-.022.864.071 1.134.25.127.084.214.18.264.28l-2.826.143c-.162.008-.29.084-.286.17.005.087.14.15.303.142l2.837-.144c-.01.028-.021.055-.036.082-.113.2-.384.354-.764.436-.58.125-1.232.146-1.864.166l-.133.004c-.124.003-.236.05-.279.113-.042.063-.007.131.088.17l3.73 1.53c.058.024.129.033.198.03.082-.005.162-.026.218-.064.105-.07.088-.168-.036-.22L8.664 3.108c.463-.024.93-.066 1.381-.163.565-.122.97-.354 1.139-.654.034-.06.054-.122.067-.184l1.046-.053c.163-.008.29-.084.286-.17-.004-.087-.14-.15-.303-.142l-1.05.053c-.06-.164-.193-.321-.397-.456-.062-.041-.133-.078-.207-.113l1.621-.082c.163-.008.291-.085.287-.171-.005-.087-.14-.15-.304-.142z" transform="translate(65 20)"/>
                </g>
                <g>
                    <path fill="url(#prefix__d)" d="M10.299 8.573c5.1 0 7.428-.389 9.236-1.987 1.808-1.597.765-4.302-1.32-5.008C16.131.87 5.021.326 2.382 1.578c-2.64 1.252-3.094 3.44-1.32 5.008C2.837 8.154 5.197 8.573 10.3 8.573z" transform="translate(67 16)"/>
                    <path fill="url(#prefix__e)" d="M10.232 5.53c4.887 0 8.849-1.237 8.849-2.765 0-1.527-3.962-2.765-8.85-2.765-4.886 0-8.848 1.238-8.848 2.765 0 1.528 3.962 2.766 8.849 2.766z" transform="translate(67 16)"/>
                    <path fill="url(#prefix__f)" d="M10.232 5.254c4.582 0 8.296-1.114 8.296-2.489 0-1.374-3.714-2.488-8.296-2.488-4.582 0-8.296 1.114-8.296 2.488 0 1.375 3.714 2.49 8.296 2.49z" transform="translate(67 16)"/>
                    <path fill="#FFF" d="M12.23.83L9.213.983l-1.46.074c-.163.008-.291.085-.286.171.004.086.14.15.303.141l1.46-.074c.44-.022.864.071 1.134.25.127.084.214.18.264.28l-2.826.143c-.162.008-.29.084-.286.17.005.087.14.15.303.142l2.837-.144c-.01.028-.021.055-.036.082-.113.2-.384.354-.764.436-.58.125-1.232.146-1.864.166l-.133.004c-.124.003-.236.05-.279.113-.042.063-.007.131.088.17l3.73 1.53c.058.024.129.033.198.03.082-.005.162-.026.218-.064.105-.07.088-.168-.036-.22L8.664 3.108c.463-.024.93-.066 1.381-.163.565-.122.97-.354 1.139-.654.034-.06.054-.122.067-.184l1.046-.053c.163-.008.29-.084.286-.17-.004-.087-.14-.15-.303-.142l-1.05.053c-.06-.164-.193-.321-.397-.456-.062-.041-.133-.078-.207-.113l1.621-.082c.163-.008.291-.085.287-.171-.005-.087-.14-.15-.304-.142z" transform="translate(67 16)"/>
                </g>
                <g>
                    <path fill="url(#prefix__d)" d="M10.299 8.573c5.1 0 7.428-.389 9.236-1.987 1.808-1.597.765-4.302-1.32-5.008C16.131.87 5.021.326 2.382 1.578c-2.64 1.252-3.094 3.44-1.32 5.008C2.837 8.154 5.197 8.573 10.3 8.573z" transform="translate(64 12)"/>
                    <path fill="url(#prefix__e)" d="M10.232 5.53c4.887 0 8.849-1.237 8.849-2.765 0-1.527-3.962-2.765-8.85-2.765-4.886 0-8.848 1.238-8.848 2.765 0 1.528 3.962 2.766 8.849 2.766z" transform="translate(64 12)"/>
                    <path fill="url(#prefix__f)" d="M10.232 5.254c4.582 0 8.296-1.114 8.296-2.489 0-1.374-3.714-2.488-8.296-2.488-4.582 0-8.296 1.114-8.296 2.488 0 1.375 3.714 2.49 8.296 2.49z" transform="translate(64 12)"/>
                    <path fill="#FFF" d="M12.23.83L9.213.983l-1.46.074c-.163.008-.291.085-.286.171.004.086.14.15.303.141l1.46-.074c.44-.022.864.071 1.134.25.127.084.214.18.264.28l-2.826.143c-.162.008-.29.084-.286.17.005.087.14.15.303.142l2.837-.144c-.01.028-.021.055-.036.082-.113.2-.384.354-.764.436-.58.125-1.232.146-1.864.166l-.133.004c-.124.003-.236.05-.279.113-.042.063-.007.131.088.17l3.73 1.53c.058.024.129.033.198.03.082-.005.162-.026.218-.064.105-.07.088-.168-.036-.22L8.664 3.108c.463-.024.93-.066 1.381-.163.565-.122.97-.354 1.139-.654.034-.06.054-.122.067-.184l1.046-.053c.163-.008.29-.084.286-.17-.004-.087-.14-.15-.303-.142l-1.05.053c-.06-.164-.193-.321-.397-.456-.062-.041-.133-.078-.207-.113l1.621-.082c.163-.008.291-.085.287-.171-.005-.087-.14-.15-.304-.142z" transform="translate(64 12)"/>
                </g>
                <g>
                    <path fill="url(#prefix__d)" d="M10.299 8.573c5.1 0 7.428-.389 9.236-1.987 1.808-1.597.765-4.302-1.32-5.008C16.131.87 5.021.326 2.382 1.578c-2.64 1.252-3.094 3.44-1.32 5.008C2.837 8.154 5.197 8.573 10.3 8.573z" transform="translate(65 8)"/>
                    <path fill="url(#prefix__e)" d="M10.232 5.53c4.887 0 8.849-1.237 8.849-2.765 0-1.527-3.962-2.765-8.85-2.765-4.886 0-8.848 1.238-8.848 2.765 0 1.528 3.962 2.766 8.849 2.766z" transform="translate(65 8)"/>
                    <path fill="url(#prefix__f)" d="M10.232 5.254c4.582 0 8.296-1.114 8.296-2.489 0-1.374-3.714-2.488-8.296-2.488-4.582 0-8.296 1.114-8.296 2.488 0 1.375 3.714 2.49 8.296 2.49z" transform="translate(65 8)"/>
                    <path fill="#FFF" d="M12.23.83L9.213.983l-1.46.074c-.163.008-.291.085-.286.171.004.086.14.15.303.141l1.46-.074c.44-.022.864.071 1.134.25.127.084.214.18.264.28l-2.826.143c-.162.008-.29.084-.286.17.005.087.14.15.303.142l2.837-.144c-.01.028-.021.055-.036.082-.113.2-.384.354-.764.436-.58.125-1.232.146-1.864.166l-.133.004c-.124.003-.236.05-.279.113-.042.063-.007.131.088.17l3.73 1.53c.058.024.129.033.198.03.082-.005.162-.026.218-.064.105-.07.088-.168-.036-.22L8.664 3.108c.463-.024.93-.066 1.381-.163.565-.122.97-.354 1.139-.654.034-.06.054-.122.067-.184l1.046-.053c.163-.008.29-.084.286-.17-.004-.087-.14-.15-.303-.142l-1.05.053c-.06-.164-.193-.321-.397-.456-.062-.041-.133-.078-.207-.113l1.621-.082c.163-.008.291-.085.287-.171-.005-.087-.14-.15-.304-.142z" transform="translate(65 8)"/>
                </g>
                <g>
                    <path fill="url(#prefix__d)" d="M10.299 8.573c5.1 0 7.428-.389 9.236-1.987 1.808-1.597.765-4.302-1.32-5.008C16.131.87 5.021.326 2.382 1.578c-2.64 1.252-3.094 3.44-1.32 5.008C2.837 8.154 5.197 8.573 10.3 8.573z" transform="translate(66 4)"/>
                    <path fill="url(#prefix__e)" d="M10.232 5.53c4.887 0 8.849-1.237 8.849-2.765 0-1.527-3.962-2.765-8.85-2.765-4.886 0-8.848 1.238-8.848 2.765 0 1.528 3.962 2.766 8.849 2.766z" transform="translate(66 4)"/>
                    <path fill="url(#prefix__f)" d="M10.232 5.254c4.582 0 8.296-1.114 8.296-2.489 0-1.374-3.714-2.488-8.296-2.488-4.582 0-8.296 1.114-8.296 2.488 0 1.375 3.714 2.49 8.296 2.49z" transform="translate(66 4)"/>
                    <path fill="#FFF" d="M12.23.83L9.213.983l-1.46.074c-.163.008-.291.085-.286.171.004.086.14.15.303.141l1.46-.074c.44-.022.864.071 1.134.25.127.084.214.18.264.28l-2.826.143c-.162.008-.29.084-.286.17.005.087.14.15.303.142l2.837-.144c-.01.028-.021.055-.036.082-.113.2-.384.354-.764.436-.58.125-1.232.146-1.864.166l-.133.004c-.124.003-.236.05-.279.113-.042.063-.007.131.088.17l3.73 1.53c.058.024.129.033.198.03.082-.005.162-.026.218-.064.105-.07.088-.168-.036-.22L8.664 3.108c.463-.024.93-.066 1.381-.163.565-.122.97-.354 1.139-.654.034-.06.054-.122.067-.184l1.046-.053c.163-.008.29-.084.286-.17-.004-.087-.14-.15-.303-.142l-1.05.053c-.06-.164-.193-.321-.397-.456-.062-.041-.133-.078-.207-.113l1.621-.082c.163-.008.291-.085.287-.171-.005-.087-.14-.15-.304-.142z" transform="translate(66 4)"/>
                </g>
                <g>
                    <path fill="url(#prefix__d)" d="M10.299 8.573c5.1 0 7.428-.389 9.236-1.987 1.808-1.597.765-4.302-1.32-5.008C16.131.87 5.021.326 2.382 1.578c-2.64 1.252-3.094 3.44-1.32 5.008C2.837 8.154 5.197 8.573 10.3 8.573z" transform="translate(66)"/>
                    <path fill="url(#prefix__e)" d="M10.232 5.53c4.887 0 8.849-1.237 8.849-2.765 0-1.527-3.962-2.765-8.85-2.765-4.886 0-8.848 1.238-8.848 2.765 0 1.528 3.962 2.766 8.849 2.766z" transform="translate(66)"/>
                    <path fill="url(#prefix__f)" d="M10.232 5.254c4.582 0 8.296-1.114 8.296-2.489 0-1.374-3.714-2.488-8.296-2.488-4.582 0-8.296 1.114-8.296 2.488 0 1.375 3.714 2.49 8.296 2.49z" transform="translate(66)"/>
                    <path fill="#FFF" d="M12.23.83L9.213.983l-1.46.074c-.163.008-.291.085-.286.171.004.086.14.15.303.141l1.46-.074c.44-.022.864.071 1.134.25.127.084.214.18.264.28l-2.826.143c-.162.008-.29.084-.286.17.005.087.14.15.303.142l2.837-.144c-.01.028-.021.055-.036.082-.113.2-.384.354-.764.436-.58.125-1.232.146-1.864.166l-.133.004c-.124.003-.236.05-.279.113-.042.063-.007.131.088.17l3.73 1.53c.058.024.129.033.198.03.082-.005.162-.026.218-.064.105-.07.088-.168-.036-.22L8.664 3.108c.463-.024.93-.066 1.381-.163.565-.122.97-.354 1.139-.654.034-.06.054-.122.067-.184l1.046-.053c.163-.008.29-.084.286-.17-.004-.087-.14-.15-.303-.142l-1.05.053c-.06-.164-.193-.321-.397-.456-.062-.041-.133-.078-.207-.113l1.621-.082c.163-.008.291-.085.287-.171-.005-.087-.14-.15-.304-.142z" transform="translate(66)"/>
                </g>
                <ellipse cx="14" cy="30" fill="url(#prefix__c)" rx="14" ry="5"/>
                <g>
                    <path fill="url(#prefix__d)" d="M10.299 8.573c5.1 0 7.428-.389 9.236-1.987 1.808-1.597.765-4.302-1.32-5.008C16.131.87 5.021.326 2.382 1.578c-2.64 1.252-3.094 3.44-1.32 5.008C2.837 8.154 5.197 8.573 10.3 8.573z" transform="translate(4 24)"/>
                    <path fill="url(#prefix__e)" d="M10.232 5.53c4.887 0 8.849-1.237 8.849-2.765 0-1.527-3.962-2.765-8.85-2.765-4.886 0-8.848 1.238-8.848 2.765 0 1.528 3.962 2.766 8.849 2.766z" transform="translate(4 24)"/>
                    <path fill="url(#prefix__f)" d="M10.232 5.254c4.582 0 8.296-1.114 8.296-2.489 0-1.374-3.714-2.488-8.296-2.488-4.582 0-8.296 1.114-8.296 2.488 0 1.375 3.714 2.49 8.296 2.49z" transform="translate(4 24)"/>
                    <path fill="#FFF" d="M12.23.83L9.213.983l-1.46.074c-.163.008-.291.085-.286.171.004.086.14.15.303.141l1.46-.074c.44-.022.864.071 1.134.25.127.084.214.18.264.28l-2.826.143c-.162.008-.29.084-.286.17.005.087.14.15.303.142l2.837-.144c-.01.028-.021.055-.036.082-.113.2-.384.354-.764.436-.58.125-1.232.146-1.864.166l-.133.004c-.124.003-.236.05-.279.113-.042.063-.007.131.088.17l3.73 1.53c.058.024.129.033.198.03.082-.005.162-.026.218-.064.105-.07.088-.168-.036-.22L8.664 3.108c.463-.024.93-.066 1.381-.163.565-.122.97-.354 1.139-.654.034-.06.054-.122.067-.184l1.046-.053c.163-.008.29-.084.286-.17-.004-.087-.14-.15-.303-.142l-1.05.053c-.06-.164-.193-.321-.397-.456-.062-.041-.133-.078-.207-.113l1.621-.082c.163-.008.291-.085.287-.171-.005-.087-.14-.15-.304-.142z" transform="translate(4 24)"/>
                </g>
                <g>
                    <path fill="url(#prefix__d)" d="M10.299 8.573c5.1 0 7.428-.389 9.236-1.987 1.808-1.597.765-4.302-1.32-5.008C16.131.87 5.021.326 2.382 1.578c-2.64 1.252-3.094 3.44-1.32 5.008C2.837 8.154 5.197 8.573 10.3 8.573z" transform="translate(3 20)"/>
                    <path fill="url(#prefix__e)" d="M10.232 5.53c4.887 0 8.849-1.237 8.849-2.765 0-1.527-3.962-2.765-8.85-2.765-4.886 0-8.848 1.238-8.848 2.765 0 1.528 3.962 2.766 8.849 2.766z" transform="translate(3 20)"/>
                    <path fill="url(#prefix__f)" d="M10.232 5.254c4.582 0 8.296-1.114 8.296-2.489 0-1.374-3.714-2.488-8.296-2.488-4.582 0-8.296 1.114-8.296 2.488 0 1.375 3.714 2.49 8.296 2.49z" transform="translate(3 20)"/>
                    <path fill="#FFF" d="M12.23.83L9.213.983l-1.46.074c-.163.008-.291.085-.286.171.004.086.14.15.303.141l1.46-.074c.44-.022.864.071 1.134.25.127.084.214.18.264.28l-2.826.143c-.162.008-.29.084-.286.17.005.087.14.15.303.142l2.837-.144c-.01.028-.021.055-.036.082-.113.2-.384.354-.764.436-.58.125-1.232.146-1.864.166l-.133.004c-.124.003-.236.05-.279.113-.042.063-.007.131.088.17l3.73 1.53c.058.024.129.033.198.03.082-.005.162-.026.218-.064.105-.07.088-.168-.036-.22L8.664 3.108c.463-.024.93-.066 1.381-.163.565-.122.97-.354 1.139-.654.034-.06.054-.122.067-.184l1.046-.053c.163-.008.29-.084.286-.17-.004-.087-.14-.15-.303-.142l-1.05.053c-.06-.164-.193-.321-.397-.456-.062-.041-.133-.078-.207-.113l1.621-.082c.163-.008.291-.085.287-.171-.005-.087-.14-.15-.304-.142z" transform="translate(3 20)"/>
                </g>
                <g>
                    <path fill="url(#prefix__d)" d="M10.299 8.573c5.1 0 7.428-.389 9.236-1.987 1.808-1.597.765-4.302-1.32-5.008C16.131.87 5.021.326 2.382 1.578c-2.64 1.252-3.094 3.44-1.32 5.008C2.837 8.154 5.197 8.573 10.3 8.573z" transform="translate(4 16)"/>
                    <path fill="url(#prefix__e)" d="M10.232 5.53c4.887 0 8.849-1.237 8.849-2.765 0-1.527-3.962-2.765-8.85-2.765-4.886 0-8.848 1.238-8.848 2.765 0 1.528 3.962 2.766 8.849 2.766z" transform="translate(4 16)"/>
                    <path fill="url(#prefix__f)" d="M10.232 5.254c4.582 0 8.296-1.114 8.296-2.489 0-1.374-3.714-2.488-8.296-2.488-4.582 0-8.296 1.114-8.296 2.488 0 1.375 3.714 2.49 8.296 2.49z" transform="translate(4 16)"/>
                    <path fill="#FFF" d="M12.23.83L9.213.983l-1.46.074c-.163.008-.291.085-.286.171.004.086.14.15.303.141l1.46-.074c.44-.022.864.071 1.134.25.127.084.214.18.264.28l-2.826.143c-.162.008-.29.084-.286.17.005.087.14.15.303.142l2.837-.144c-.01.028-.021.055-.036.082-.113.2-.384.354-.764.436-.58.125-1.232.146-1.864.166l-.133.004c-.124.003-.236.05-.279.113-.042.063-.007.131.088.17l3.73 1.53c.058.024.129.033.198.03.082-.005.162-.026.218-.064.105-.07.088-.168-.036-.22L8.664 3.108c.463-.024.93-.066 1.381-.163.565-.122.97-.354 1.139-.654.034-.06.054-.122.067-.184l1.046-.053c.163-.008.29-.084.286-.17-.004-.087-.14-.15-.303-.142l-1.05.053c-.06-.164-.193-.321-.397-.456-.062-.041-.133-.078-.207-.113l1.621-.082c.163-.008.291-.085.287-.171-.005-.087-.14-.15-.304-.142z" transform="translate(4 16)"/>
                </g>
            </g>
        </g>
    </g>
</svg>
