<svg width="40" height="40" viewBox="0 0 40 40" fill="none" xmlns="http://www.w3.org/2000/svg">
<rect x="5" y="33" width="30" height="1" fill="#C3AFF6"/>
<rect x="6" y="31" width="28" height="1" fill="#C3AFF6"/>
<path fill-rule="evenodd" clip-rule="evenodd" d="M8.92323 18H9.84632V18.0003H10.7693V21.4288H9.84632V29.9999H8.92323V21.4288H8V18.0003H8.92323V18ZM13.5379 18H12.6154V21.4285H13.5379V29.9999H14.461V21.4285H15.3847V18H14.461H13.5379ZM30.1535 18H29.2306V21.4285H30.1535V29.9999H31.0766V21.4285H31.9998V18H31.0766H30.1535ZM22.7691 24H17.2306V30H18.1545V24.8576H21.8467V30H22.7691V24ZM25.5384 18H24.6154V21.4285H25.5384V29.9999H26.4615V21.4285H27.3847V18H26.4615H25.5384Z" fill="#C3AFF6"/>
<path fill-rule="evenodd" clip-rule="evenodd" d="M8 12.8767L20.4998 6L33 12.8767V14H8V12.8767Z" fill="#C3AFF6"/>
<rect x="6" y="15" width="28" height="2" fill="#4AD0C0"/>
</svg>
