<svg width="40" height="40" viewBox="0 0 40 40" fill="none" xmlns="http://www.w3.org/2000/svg">
<path d="M7.00024 13.7291C7.08516 11.1985 8.12327 8.2986 10.2972 5.84025C10.8088 5.26069 11.4032 4.61107 12.2184 5.29041C13.023 5.96126 12.5326 6.62361 12.0316 7.26049C8.274 12.0222 8.29311 16.7988 12.0847 21.6837C12.592 22.3375 13.0081 23.0147 12.2226 23.6665C11.4839 24.2821 10.9128 23.6983 10.3969 23.1867C8.39713 21.1996 7.00024 17.6098 7.00024 13.7291Z" fill="#4AD0C0"/>
<path d="M14.2267 7.6511C14.6109 7.67233 14.906 7.84216 15.0843 8.18608C15.3985 8.79111 15.095 9.26665 14.7277 9.70397C13.6153 11.0287 12.9678 12.5211 12.9317 14.2789C12.8914 16.1428 13.4624 17.7626 14.6576 19.185C15.1714 19.7964 15.6405 20.4906 14.7935 21.1487C14.0314 21.741 13.4815 21.1487 12.9805 20.6201C9.91925 17.406 9.90652 11.6231 12.9487 8.36653C13.2968 7.98864 13.6535 7.62775 14.2267 7.6511Z" fill="#4AD0C0"/>
<path d="M26.8072 33.4339C26.7839 33.2365 26.7393 33.0433 26.6905 32.8374C26.6692 32.7439 26.6459 32.6505 26.6268 32.555C26.4017 31.4872 26.1788 30.4172 25.9559 29.3473C25.3191 26.2987 24.6609 23.1441 23.9816 20.051C23.7842 19.1593 23.9073 18.5437 24.4019 17.928C25.2044 16.9302 25.6099 15.7839 25.6035 14.5207V14.5186C25.6269 12.0836 24.1854 9.9819 21.933 9.16457C19.6806 8.35149 17.1585 9.02871 15.6597 10.8544C14.0569 12.8054 13.9041 15.5121 15.2882 17.4334C16.1331 18.6052 16.131 19.6349 15.8656 20.8173C14.9146 25.0674 14.0421 29.2963 13.3139 32.8713C13.2927 32.9796 13.2651 33.0942 13.2375 33.211C13.1228 33.6929 12.9933 34.2385 13.2056 34.5782C13.3181 34.7586 13.5241 34.8817 13.8361 34.9497C14.698 35.1407 14.8594 34.6249 15.0526 33.7651C15.0908 33.5995 15.129 33.4275 15.1757 33.2726C15.4092 32.5083 15.8168 31.8226 16.3412 31.2537C17.3305 30.1816 18.7422 29.5213 20.2261 29.5213C20.2962 29.5213 20.3684 29.5235 20.4384 29.5256C20.6062 29.532 20.7696 29.5489 20.931 29.5723C22.9562 29.8674 24.4487 31.4341 24.9688 33.8585C25.0855 34.4041 25.2554 34.731 25.5037 34.8902C25.68 35.0027 25.8965 35.0282 26.1703 34.9688C26.9091 34.8053 26.9028 34.2555 26.8072 33.4339ZM19.9629 10.6973C19.9671 10.6973 19.9693 10.6973 19.9735 10.6973C20.9862 10.6973 21.9202 11.0731 22.6038 11.7545C23.298 12.4466 23.6802 13.4019 23.678 14.4422C23.678 15.4867 23.3044 16.4377 22.6251 17.1213C21.9478 17.8028 21.0053 18.1785 19.9714 18.1785C19.9693 18.1785 19.9671 18.1785 19.965 18.1785C18.9757 18.1764 18.0671 17.8049 17.4048 17.1319C16.7085 16.425 16.3348 15.4421 16.3518 14.3615C16.3815 12.2768 17.9334 10.7016 19.9629 10.6973ZM22.7418 23.0167H17.2753L17.8527 19.9278C18.5129 20.1911 19.2326 20.3354 19.9863 20.3354C20.7611 20.3354 21.4999 20.1826 22.175 19.9066L22.7418 23.0167ZM20.016 27.5385C18.6 27.5385 17.288 27.978 16.2053 28.7252L16.9399 24.7999H23.0645L23.7714 28.687C22.6994 27.961 21.4065 27.5385 20.016 27.5385Z" fill="#C3AFF6"/>
<path d="M33.0142 13.7291C32.9293 11.1985 31.8912 8.2986 29.7173 5.84025C29.2057 5.26069 28.6112 4.61107 27.796 5.29041C26.9914 5.96126 27.4818 6.62361 27.9829 7.26049C31.7383 12.0222 31.7213 16.7988 27.9277 21.6837C27.4203 22.3375 27.0042 23.0147 27.7897 23.6665C28.5284 24.2821 29.0995 23.6983 29.6154 23.1867C31.6173 21.1996 33.0142 17.6098 33.0142 13.7291Z" fill="#4AD0C0"/>
<path d="M25.788 7.6511C25.4038 7.67233 25.1087 7.84216 24.9304 8.18608C24.6162 8.79111 24.9197 9.26665 25.287 9.70397C26.3994 11.0287 27.0469 12.5211 27.083 14.2789C27.1233 16.1428 26.5523 17.7626 25.3571 19.185C24.8433 19.7964 24.3741 20.4906 25.2212 21.1487C25.9833 21.741 26.5332 21.1487 27.0342 20.6201C30.0954 17.406 30.1082 11.6231 27.066 8.36653C26.7157 7.98864 26.3612 7.62775 25.788 7.6511Z" fill="#4AD0C0"/>
</svg>
