<svg width="200" height="20" viewBox="0 0 200 20" fill="none" xmlns="http://www.w3.org/2000/svg">
<g opacity="0.4">
<path d="M32.7795 7.09141C32.3223 7.09141 31.9115 7.01754 31.547 6.86981C31.1892 6.71591 30.9076 6.50662 30.7022 6.24192C30.4968 5.97107 30.3908 5.6602 30.3841 5.30933H31.3482C31.3814 5.61096 31.5139 5.86642 31.7458 6.07572C31.9843 6.27886 32.3289 6.38043 32.7795 6.38043C33.2102 6.38043 33.5481 6.28193 33.7933 6.08495C34.0451 5.88181 34.171 5.62327 34.171 5.30933C34.171 5.0631 34.0981 4.86304 33.9523 4.70914C33.8065 4.55525 33.6243 4.43829 33.4057 4.35826C33.187 4.27824 32.8921 4.19206 32.5211 4.09972C32.0639 3.98892 31.6961 3.87812 31.4178 3.76731C31.1461 3.65651 30.9109 3.48415 30.7121 3.25023C30.52 3.01016 30.4239 2.69006 30.4239 2.28994C30.4239 1.93906 30.52 1.62819 30.7121 1.35734C30.9043 1.08649 31.1726 0.877193 31.5172 0.729455C31.8684 0.581717 32.2693 0.507849 32.7198 0.507849C33.3692 0.507849 33.8993 0.658664 34.3101 0.960296C34.7276 1.26193 34.9628 1.66205 35.0158 2.16067H34.0219C33.9888 1.91444 33.8496 1.69898 33.6044 1.51431C33.3593 1.32348 33.0346 1.22807 32.6304 1.22807C32.2527 1.22807 31.9446 1.32041 31.7061 1.50508C31.4675 1.6836 31.3482 1.93598 31.3482 2.26223C31.3482 2.49615 31.4178 2.68698 31.557 2.83472C31.7027 2.98246 31.8783 3.09634 32.0837 3.17636C32.2958 3.25023 32.5906 3.33641 32.9683 3.4349C33.4255 3.55186 33.7933 3.66882 34.0716 3.78578C34.3499 3.89658 34.5884 4.07202 34.7872 4.3121C34.986 4.54602 35.0854 4.86611 35.0854 5.27239C35.0854 5.58633 34.9959 5.88181 34.817 6.15882C34.6381 6.43583 34.3731 6.66051 34.0219 6.83287C33.6707 7.00523 33.2566 7.09141 32.7795 7.09141Z" fill="#767E86"/>
<path d="M37.3208 1.27424V3.42567H39.8454V4.11819H37.3208V6.33426H40.1436V7.02678H36.4164V0.581718H40.1436V1.27424H37.3208Z" fill="#767E86"/>
<path d="M44.9809 3.71191C45.2327 3.74885 45.4613 3.84426 45.6667 3.99815C45.8788 4.15205 46.0444 4.34288 46.1637 4.57064C46.2896 4.7984 46.3526 5.04155 46.3526 5.30009C46.3526 5.62635 46.2631 5.92182 46.0842 6.18652C45.9053 6.44506 45.6436 6.65128 45.299 6.80517C44.9611 6.95291 44.5602 7.02678 44.0964 7.02678H41.5122V0.590951H43.997C44.4674 0.590951 44.8683 0.66482 45.1996 0.812558C45.5309 0.95414 45.7794 1.14805 45.945 1.39428C46.1107 1.6405 46.1935 1.91751 46.1935 2.2253C46.1935 2.60696 46.0809 2.92398 45.8556 3.17636C45.6369 3.42259 45.3454 3.60111 44.9809 3.71191ZM42.4166 3.37027H43.9373C44.3614 3.37027 44.6894 3.27793 44.9213 3.09326C45.1532 2.90859 45.2692 2.65312 45.2692 2.32687C45.2692 2.00062 45.1532 1.74515 44.9213 1.56048C44.6894 1.37581 44.3548 1.28347 43.9174 1.28347H42.4166V3.37027ZM44.0168 6.33426C44.4674 6.33426 44.8186 6.23577 45.0704 6.03878C45.3222 5.8418 45.4481 5.56787 45.4481 5.21699C45.4481 4.85996 45.3156 4.57987 45.0505 4.37673C44.7855 4.16744 44.431 4.06279 43.987 4.06279H42.4166V6.33426H44.0168Z" fill="#767E86"/>
<path d="M48.5122 0.590951V7.02678H47.6077V0.590951H48.5122Z" fill="#767E86"/>
<path d="M53.6079 2.78855C53.767 2.49923 53.9922 2.27455 54.2838 2.1145C54.582 1.95445 54.9431 1.87442 55.3672 1.87442V2.74238H55.1286C54.1148 2.74238 53.6079 3.25331 53.6079 4.27516V7.02678H52.7035V1.96676H53.6079V2.78855Z" fill="#767E86"/>
<path d="M61.3809 4.30286C61.3809 4.46291 61.3709 4.6322 61.351 4.81071H56.9977C57.0308 5.30933 57.213 5.70022 57.5443 5.98338C57.8823 6.26039 58.2898 6.39889 58.7668 6.39889C59.1578 6.39889 59.4825 6.31579 59.7409 6.14959C60.0059 5.97722 60.1915 5.74946 60.2975 5.4663H61.2715C61.1257 5.9526 60.8342 6.34965 60.3969 6.65743C59.9595 6.95907 59.4162 7.10988 58.7668 7.10988C58.25 7.10988 57.7862 7.00216 57.3754 6.7867C56.9712 6.57125 56.6531 6.26654 56.4212 5.87258C56.1893 5.47245 56.0733 5.01077 56.0733 4.48754C56.0733 3.9643 56.186 3.50569 56.4113 3.11173C56.6365 2.71776 56.9513 2.41613 57.3555 2.20683C57.7663 1.99138 58.2368 1.88366 58.7668 1.88366C59.2837 1.88366 59.7409 1.9883 60.1385 2.1976C60.536 2.40689 60.8408 2.69621 61.0529 3.06556C61.2715 3.42875 61.3809 3.84118 61.3809 4.30286ZM60.4466 4.12742C60.4466 3.80733 60.3704 3.5334 60.218 3.30563C60.0656 3.07171 59.8568 2.89628 59.5918 2.77932C59.3334 2.6562 59.0451 2.59464 58.7271 2.59464C58.2699 2.59464 57.8789 2.73007 57.5543 3.00092C57.2362 3.27178 57.054 3.64728 57.0076 4.12742H60.4466Z" fill="#767E86"/>
<path d="M64.821 1.88366C65.2914 1.88366 65.7023 1.97907 66.0535 2.1699C66.4113 2.36073 66.6763 2.6008 66.8486 2.89012V1.96676H67.763V7.13758C67.763 7.59926 67.657 8.00862 67.4449 8.36565C67.2329 8.72884 66.9281 9.012 66.5305 9.21514C66.1396 9.41828 65.6824 9.51985 65.1589 9.51985C64.4433 9.51985 63.8469 9.36288 63.3699 9.04894C62.8928 8.735 62.6112 8.30717 62.525 7.76547H63.4196C63.5189 8.07325 63.7244 8.31948 64.0358 8.50416C64.3472 8.69498 64.7216 8.7904 65.1589 8.7904C65.6559 8.7904 66.0601 8.64574 66.3715 8.35642C66.6896 8.0671 66.8486 7.66082 66.8486 7.13758V6.07572C66.6697 6.37119 66.4046 6.61742 66.0535 6.81441C65.7023 7.01139 65.2914 7.10988 64.821 7.10988C64.3373 7.10988 63.8966 6.99908 63.4991 6.77747C63.1081 6.55586 62.8 6.245 62.5747 5.84488C62.3494 5.44475 62.2368 4.98923 62.2368 4.4783C62.2368 3.96122 62.3494 3.50877 62.5747 3.12096C62.8 2.72699 63.1081 2.42228 63.4991 2.20683C63.8966 1.99138 64.3373 1.88366 64.821 1.88366ZM66.8486 4.48754C66.8486 4.10588 66.7658 3.77347 66.6001 3.49031C66.4344 3.20714 66.2092 2.99169 65.9242 2.84395C65.6459 2.69006 65.3378 2.61311 64.9999 2.61311C64.662 2.61311 64.3538 2.68698 64.0755 2.83472C63.7972 2.98246 63.5753 3.19791 63.4096 3.48107C63.244 3.76424 63.1611 4.09665 63.1611 4.4783C63.1611 4.86611 63.244 5.20468 63.4096 5.494C63.5753 5.77716 63.7972 5.99569 64.0755 6.14959C64.3538 6.29732 64.662 6.37119 64.9999 6.37119C65.3378 6.37119 65.6459 6.29732 65.9242 6.14959C66.2092 5.99569 66.4344 5.77716 66.6001 5.494C66.7658 5.20468 66.8486 4.86919 66.8486 4.48754Z" fill="#767E86"/>
<path d="M69.7586 1.14497C69.5863 1.14497 69.4405 1.08957 69.3213 0.978763C69.202 0.867959 69.1424 0.732533 69.1424 0.572484C69.1424 0.412435 69.202 0.277008 69.3213 0.166205C69.4405 0.0554017 69.5863 0 69.7586 0C69.9242 0 70.0634 0.0554017 70.176 0.166205C70.2953 0.277008 70.3549 0.412435 70.3549 0.572484C70.3549 0.732533 70.2953 0.867959 70.176 0.978763C70.0634 1.08957 69.9242 1.14497 69.7586 1.14497ZM70.1959 1.96676V7.02678H69.2915V1.96676H70.1959Z" fill="#767E86"/>
<path d="M73.6656 7.10988C73.2482 7.10988 72.8738 7.04525 72.5425 6.91598C72.2112 6.78055 71.9495 6.59588 71.7573 6.36196C71.5651 6.12188 71.4591 5.84795 71.4392 5.54017H72.3735C72.4 5.79255 72.5259 5.99877 72.7512 6.15882C72.9831 6.31887 73.2846 6.39889 73.6557 6.39889C74.0002 6.39889 74.2719 6.3281 74.4707 6.18652C74.6695 6.04494 74.7689 5.86642 74.7689 5.65097C74.7689 5.42936 74.6629 5.26624 74.4508 5.16159C74.2388 5.05079 73.9108 4.94306 73.4668 4.83841C73.0626 4.73992 72.7313 4.64143 72.4729 4.54294C72.2211 4.43829 72.0025 4.28747 71.8169 4.09049C71.638 3.88735 71.5486 3.62265 71.5486 3.2964C71.5486 3.03786 71.6314 2.80086 71.7971 2.58541C71.9627 2.36996 72.1979 2.20068 72.5027 2.07756C72.8075 1.94829 73.1554 1.88366 73.5464 1.88366C74.1493 1.88366 74.6364 2.02524 75.0074 2.3084C75.3785 2.59157 75.5773 2.97938 75.6038 3.47184H74.6993C74.6794 3.20714 74.5635 2.99477 74.3514 2.83472C74.146 2.67467 73.8677 2.59464 73.5165 2.59464C73.1919 2.59464 72.9334 2.65928 72.7413 2.78855C72.5491 2.91782 72.4531 3.0871 72.4531 3.2964C72.4531 3.4626 72.5094 3.60111 72.622 3.71191C72.7413 3.81656 72.8871 3.90274 73.0593 3.97045C73.2382 4.03201 73.4834 4.1028 73.7948 4.18283C74.1858 4.28132 74.5038 4.37981 74.749 4.4783C74.9942 4.57064 75.2029 4.71222 75.3752 4.90305C75.5541 5.09388 75.6468 5.34318 75.6535 5.65097C75.6535 5.92798 75.5706 6.17729 75.405 6.39889C75.2393 6.6205 75.0041 6.79594 74.6993 6.92521C74.4011 7.04832 74.0566 7.10988 73.6656 7.10988Z" fill="#767E86"/>
<path d="M78.0335 2.65928V5.64174C78.0335 5.88797 78.0898 6.0634 78.2025 6.16805C78.3151 6.26654 78.5106 6.31579 78.7889 6.31579H79.4548V7.02678H78.6398C78.1362 7.02678 77.7585 6.91905 77.5067 6.7036C77.255 6.48815 77.1291 6.1342 77.1291 5.64174V2.65928H76.4234V1.96676H77.1291V0.692521H78.0335V1.96676H79.4548V2.65928H78.0335Z" fill="#767E86"/>
<path d="M85.5203 4.30286C85.5203 4.46291 85.5104 4.6322 85.4905 4.81071H81.1371C81.1702 5.30933 81.3525 5.70022 81.6838 5.98338C82.0217 6.26039 82.4292 6.39889 82.9063 6.39889C83.2972 6.39889 83.6219 6.31579 83.8803 6.14959C84.1454 5.97722 84.3309 5.74946 84.4369 5.4663H85.411C85.2652 5.9526 84.9736 6.34965 84.5363 6.65743C84.099 6.95907 83.5556 7.10988 82.9063 7.10988C82.3895 7.10988 81.9256 7.00216 81.5148 6.7867C81.1106 6.57125 80.7926 6.26654 80.5606 5.87258C80.3287 5.47245 80.2128 5.01077 80.2128 4.48754C80.2128 3.9643 80.3254 3.50569 80.5507 3.11173C80.776 2.71776 81.0907 2.41613 81.4949 2.20683C81.9057 1.99138 82.3762 1.88366 82.9063 1.88366C83.4231 1.88366 83.8803 1.9883 84.2779 2.1976C84.6755 2.40689 84.9803 2.69621 85.1923 3.06556C85.411 3.42875 85.5203 3.84118 85.5203 4.30286ZM84.586 4.12742C84.586 3.80733 84.5098 3.5334 84.3574 3.30563C84.205 3.07171 83.9963 2.89628 83.7312 2.77932C83.4728 2.6562 83.1846 2.59464 82.8665 2.59464C82.4093 2.59464 82.0184 2.73007 81.6937 3.00092C81.3757 3.27178 81.1934 3.64728 81.147 4.12742H84.586Z" fill="#767E86"/>
<path d="M87.6186 2.78855C87.7777 2.49923 88.003 2.27455 88.2945 2.1145C88.5927 1.95445 88.9538 1.87442 89.3779 1.87442V2.74238H89.1393C88.1255 2.74238 87.6186 3.25331 87.6186 4.27516V7.02678H86.7142V1.96676H87.6186V2.78855Z" fill="#767E86"/>
<path d="M95.3916 4.30286C95.3916 4.46291 95.3816 4.6322 95.3617 4.81071H91.0084C91.0415 5.30933 91.2237 5.70022 91.555 5.98338C91.893 6.26039 92.3005 6.39889 92.7775 6.39889C93.1685 6.39889 93.4932 6.31579 93.7516 6.14959C94.0166 5.97722 94.2022 5.74946 94.3082 5.4663H95.2822C95.1365 5.9526 94.8449 6.34965 94.4076 6.65743C93.9703 6.95907 93.4269 7.10988 92.7775 7.10988C92.2607 7.10988 91.7969 7.00216 91.3861 6.7867C90.9819 6.57125 90.6638 6.26654 90.4319 5.87258C90.2 5.47245 90.084 5.01077 90.084 4.48754C90.084 3.9643 90.1967 3.50569 90.422 3.11173C90.6472 2.71776 90.962 2.41613 91.3662 2.20683C91.777 1.99138 92.2475 1.88366 92.7775 1.88366C93.2944 1.88366 93.7516 1.9883 94.1492 2.1976C94.5467 2.40689 94.8515 2.69621 95.0636 3.06556C95.2822 3.42875 95.3916 3.84118 95.3916 4.30286ZM94.4573 4.12742C94.4573 3.80733 94.3811 3.5334 94.2287 3.30563C94.0763 3.07171 93.8675 2.89628 93.6025 2.77932C93.3441 2.6562 93.0558 2.59464 92.7378 2.59464C92.2806 2.59464 91.8896 2.73007 91.565 3.00092C91.2469 3.27178 91.0647 3.64728 91.0183 4.12742H94.4573Z" fill="#767E86"/>
<path d="M96.2475 4.4783C96.2475 3.96122 96.3601 3.50877 96.5854 3.12096C96.8107 2.72699 97.1188 2.42228 97.5098 2.20683C97.9073 1.99138 98.3513 1.88366 98.8416 1.88366C99.2657 1.88366 99.66 1.97599 100.024 2.16067C100.389 2.33918 100.667 2.57618 100.859 2.87165V0.193906H101.774V7.02678H100.859V6.07572C100.68 6.37735 100.415 6.62666 100.064 6.82364C99.713 7.01447 99.3021 7.10988 98.8317 7.10988C98.348 7.10988 97.9073 6.99908 97.5098 6.77747C97.1188 6.55586 96.8107 6.245 96.5854 5.84488C96.3601 5.44475 96.2475 4.98923 96.2475 4.4783ZM100.859 4.48754C100.859 4.10588 100.776 3.77347 100.611 3.49031C100.445 3.20714 100.22 2.99169 99.9349 2.84395C99.6566 2.69006 99.3485 2.61311 99.0106 2.61311C98.6727 2.61311 98.3645 2.68698 98.0862 2.83472C97.8079 2.98246 97.586 3.19791 97.4203 3.48107C97.2547 3.76424 97.1718 4.09665 97.1718 4.4783C97.1718 4.86611 97.2547 5.20468 97.4203 5.494C97.586 5.77716 97.8079 5.99569 98.0862 6.14959C98.3645 6.29732 98.6727 6.37119 99.0106 6.37119C99.3485 6.37119 99.6566 6.29732 99.9349 6.14959C100.22 5.99569 100.445 5.77716 100.611 5.494C100.776 5.20468 100.859 4.86919 100.859 4.48754Z" fill="#767E86"/>
<path d="M106.419 1.14497C106.247 1.14497 106.101 1.08957 105.982 0.978763C105.863 0.867959 105.803 0.732533 105.803 0.572484C105.803 0.412435 105.863 0.277008 105.982 0.166205C106.101 0.0554017 106.247 0 106.419 0C106.585 0 106.724 0.0554017 106.837 0.166205C106.956 0.277008 107.015 0.412435 107.015 0.572484C107.015 0.732533 106.956 0.867959 106.837 0.978763C106.724 1.08957 106.585 1.14497 106.419 1.14497ZM106.856 1.96676V7.02678H105.952V1.96676H106.856Z" fill="#767E86"/>
<path d="M111.052 1.87442C111.714 1.87442 112.251 2.06217 112.662 2.43767C113.073 2.80702 113.278 3.34257 113.278 4.04432V7.02678H112.384V4.16436C112.384 3.65959 112.248 3.27485 111.976 3.01016C111.704 2.7393 111.333 2.60388 110.863 2.60388C110.386 2.60388 110.005 2.74238 109.72 3.01939C109.442 3.2964 109.302 3.6996 109.302 4.22899V7.02678H108.398V1.96676H109.302V2.68698C109.481 2.42844 109.723 2.22838 110.028 2.0868C110.339 1.94521 110.681 1.87442 111.052 1.87442Z" fill="#767E86"/>
<path d="M116.783 6.25115L118.473 1.96676H119.437L117.3 7.02678H116.246L114.109 1.96676H115.084L116.783 6.25115Z" fill="#767E86"/>
<path d="M125.297 4.30286C125.297 4.46291 125.287 4.6322 125.267 4.81071H120.913C120.946 5.30933 121.129 5.70022 121.46 5.98338C121.798 6.26039 122.205 6.39889 122.683 6.39889C123.073 6.39889 123.398 6.31579 123.657 6.14959C123.922 5.97722 124.107 5.74946 124.213 5.4663H125.187C125.041 5.9526 124.75 6.34965 124.313 6.65743C123.875 6.95907 123.332 7.10988 122.683 7.10988C122.166 7.10988 121.702 7.00216 121.291 6.7867C120.887 6.57125 120.569 6.26654 120.337 5.87258C120.105 5.47245 119.989 5.01077 119.989 4.48754C119.989 3.9643 120.102 3.50569 120.327 3.11173C120.552 2.71776 120.867 2.41613 121.271 2.20683C121.682 1.99138 122.152 1.88366 122.683 1.88366C123.199 1.88366 123.657 1.9883 124.054 2.1976C124.452 2.40689 124.756 2.69621 124.969 3.06556C125.187 3.42875 125.297 3.84118 125.297 4.30286ZM124.362 4.12742C124.362 3.80733 124.286 3.5334 124.134 3.30563C123.981 3.07171 123.773 2.89628 123.507 2.77932C123.249 2.6562 122.961 2.59464 122.643 2.59464C122.186 2.59464 121.795 2.73007 121.47 3.00092C121.152 3.27178 120.97 3.64728 120.923 4.12742H124.362Z" fill="#767E86"/>
<path d="M128.419 7.10988C128.001 7.10988 127.627 7.04525 127.295 6.91598C126.964 6.78055 126.702 6.59588 126.51 6.36196C126.318 6.12188 126.212 5.84795 126.192 5.54017H127.126C127.153 5.79255 127.279 5.99877 127.504 6.15882C127.736 6.31887 128.038 6.39889 128.409 6.39889C128.753 6.39889 129.025 6.3281 129.224 6.18652C129.422 6.04494 129.522 5.86642 129.522 5.65097C129.522 5.42936 129.416 5.26624 129.204 5.16159C128.992 5.05079 128.664 4.94306 128.22 4.83841C127.816 4.73992 127.484 4.64143 127.226 4.54294C126.974 4.43829 126.755 4.28747 126.57 4.09049C126.391 3.88735 126.302 3.62265 126.302 3.2964C126.302 3.03786 126.384 2.80086 126.55 2.58541C126.716 2.36996 126.951 2.20068 127.256 2.07756C127.561 1.94829 127.908 1.88366 128.299 1.88366C128.902 1.88366 129.389 2.02524 129.76 2.3084C130.131 2.59157 130.33 2.97938 130.357 3.47184H129.452C129.432 3.20714 129.316 2.99477 129.104 2.83472C128.899 2.67467 128.621 2.59464 128.27 2.59464C127.945 2.59464 127.686 2.65928 127.494 2.78855C127.302 2.91782 127.206 3.0871 127.206 3.2964C127.206 3.4626 127.262 3.60111 127.375 3.71191C127.494 3.81656 127.64 3.90274 127.812 3.97045C127.991 4.03201 128.236 4.1028 128.548 4.18283C128.939 4.28132 129.257 4.37981 129.502 4.4783C129.747 4.57064 129.956 4.71222 130.128 4.90305C130.307 5.09388 130.4 5.34318 130.406 5.65097C130.406 5.92798 130.324 6.17729 130.158 6.39889C129.992 6.6205 129.757 6.79594 129.452 6.92521C129.154 7.04832 128.81 7.10988 128.419 7.10988Z" fill="#767E86"/>
<path d="M132.786 2.65928V5.64174C132.786 5.88797 132.843 6.0634 132.955 6.16805C133.068 6.26654 133.264 6.31579 133.542 6.31579H134.208V7.02678H133.393C132.889 7.02678 132.512 6.91905 132.26 6.7036C132.008 6.48815 131.882 6.1342 131.882 5.64174V2.65928H131.176V1.96676H131.882V0.692521H132.786V1.96676H134.208V2.65928H132.786Z" fill="#767E86"/>
<path d="M141.854 1.87442C142.278 1.87442 142.655 1.95753 142.987 2.12373C143.318 2.28378 143.58 2.52693 143.772 2.85319C143.964 3.17944 144.06 3.57649 144.06 4.04432V7.02678H143.166V4.16436C143.166 3.65959 143.03 3.27485 142.758 3.01016C142.493 2.7393 142.132 2.60388 141.675 2.60388C141.204 2.60388 140.83 2.74546 140.552 3.02862C140.273 3.30563 140.134 3.70883 140.134 4.23823V7.02678H139.24V4.16436C139.24 3.65959 139.104 3.27485 138.832 3.01016C138.567 2.7393 138.206 2.60388 137.749 2.60388C137.278 2.60388 136.904 2.74546 136.626 3.02862C136.347 3.30563 136.208 3.70883 136.208 4.23823V7.02678H135.304V1.96676H136.208V2.69621C136.387 2.43152 136.626 2.22838 136.924 2.0868C137.229 1.94521 137.563 1.87442 137.928 1.87442C138.385 1.87442 138.789 1.96984 139.14 2.16067C139.491 2.35149 139.753 2.63158 139.925 3.00092C140.078 2.64389 140.33 2.36688 140.681 2.1699C141.032 1.97291 141.423 1.87442 141.854 1.87442Z" fill="#767E86"/>
<path d="M150.513 4.30286C150.513 4.46291 150.503 4.6322 150.484 4.81071H146.13C146.163 5.30933 146.346 5.70022 146.677 5.98338C147.015 6.26039 147.422 6.39889 147.899 6.39889C148.29 6.39889 148.615 6.31579 148.873 6.14959C149.138 5.97722 149.324 5.74946 149.43 5.4663H150.404C150.258 5.9526 149.967 6.34965 149.529 6.65743C149.092 6.95907 148.549 7.10988 147.899 7.10988C147.383 7.10988 146.919 7.00216 146.508 6.7867C146.104 6.57125 145.786 6.26654 145.554 5.87258C145.322 5.47245 145.206 5.01077 145.206 4.48754C145.206 3.9643 145.318 3.50569 145.544 3.11173C145.769 2.71776 146.084 2.41613 146.488 2.20683C146.899 1.99138 147.369 1.88366 147.899 1.88366C148.416 1.88366 148.873 1.9883 149.271 2.1976C149.669 2.40689 149.973 2.69621 150.185 3.06556C150.404 3.42875 150.513 3.84118 150.513 4.30286ZM149.579 4.12742C149.579 3.80733 149.503 3.5334 149.35 3.30563C149.198 3.07171 148.989 2.89628 148.724 2.77932C148.466 2.6562 148.178 2.59464 147.86 2.59464C147.402 2.59464 147.011 2.73007 146.687 3.00092C146.369 3.27178 146.186 3.64728 146.14 4.12742H149.579Z" fill="#767E86"/>
<path d="M154.361 1.87442C155.024 1.87442 155.56 2.06217 155.971 2.43767C156.382 2.80702 156.587 3.34257 156.587 4.04432V7.02678H155.693V4.16436C155.693 3.65959 155.557 3.27485 155.285 3.01016C155.014 2.7393 154.643 2.60388 154.172 2.60388C153.695 2.60388 153.314 2.74238 153.029 3.01939C152.751 3.2964 152.612 3.6996 152.612 4.22899V7.02678H151.707V1.96676H152.612V2.68698C152.791 2.42844 153.032 2.22838 153.337 2.0868C153.649 1.94521 153.99 1.87442 154.361 1.87442Z" fill="#767E86"/>
<path d="M159.168 2.65928V5.64174C159.168 5.88797 159.224 6.0634 159.337 6.16805C159.45 6.26654 159.645 6.31579 159.923 6.31579H160.589V7.02678H159.774C159.271 7.02678 158.893 6.91905 158.641 6.7036C158.39 6.48815 158.264 6.1342 158.264 5.64174V2.65928H157.558V1.96676H158.264V0.692521H159.168V1.96676H160.589V2.65928H159.168Z" fill="#767E86"/>
<path d="M163.997 4.4783C163.997 3.96122 164.11 3.50877 164.335 3.12096C164.56 2.72699 164.868 2.42228 165.259 2.20683C165.657 1.99138 166.098 1.88366 166.581 1.88366C167.058 1.88366 167.473 1.97907 167.824 2.1699C168.175 2.36073 168.437 2.6008 168.609 2.89012V1.96676H169.523V7.02678H168.609V6.08495C168.43 6.38042 168.162 6.62666 167.804 6.82364C167.453 7.01447 167.042 7.10988 166.571 7.10988C166.088 7.10988 165.65 6.99908 165.259 6.77747C164.868 6.55586 164.56 6.245 164.335 5.84488C164.11 5.44475 163.997 4.98923 163.997 4.4783ZM168.609 4.48754C168.609 4.10588 168.526 3.77347 168.36 3.49031C168.195 3.20714 167.969 2.99169 167.685 2.84395C167.406 2.69006 167.098 2.61311 166.76 2.61311C166.422 2.61311 166.114 2.68698 165.836 2.83472C165.558 2.98246 165.336 3.19791 165.17 3.48107C165.004 3.76424 164.921 4.09665 164.921 4.4783C164.921 4.86611 165.004 5.20468 165.17 5.494C165.336 5.77716 165.558 5.99569 165.836 6.14959C166.114 6.29732 166.422 6.37119 166.76 6.37119C167.098 6.37119 167.406 6.29732 167.685 6.14959C167.969 5.99569 168.195 5.77716 168.36 5.494C168.526 5.20468 168.609 4.86919 168.609 4.48754Z" fill="#767E86"/>
<path d="M170.714 4.4783C170.714 3.96122 170.826 3.50877 171.052 3.12096C171.277 2.72699 171.585 2.42228 171.976 2.20683C172.374 1.99138 172.818 1.88366 173.308 1.88366C173.732 1.88366 174.126 1.97599 174.491 2.16067C174.855 2.33918 175.133 2.57618 175.326 2.87165V0.193906H176.24V7.02678H175.326V6.07572C175.147 6.37735 174.882 6.62666 174.53 6.82364C174.179 7.01447 173.768 7.10988 173.298 7.10988C172.814 7.10988 172.374 6.99908 171.976 6.77747C171.585 6.55586 171.277 6.245 171.052 5.84488C170.826 5.44475 170.714 4.98923 170.714 4.4783ZM175.326 4.48754C175.326 4.10588 175.243 3.77347 175.077 3.49031C174.912 3.20714 174.686 2.99169 174.401 2.84395C174.123 2.69006 173.815 2.61311 173.477 2.61311C173.139 2.61311 172.831 2.68698 172.553 2.83472C172.274 2.98246 172.052 3.19791 171.887 3.48107C171.721 3.76424 171.638 4.09665 171.638 4.4783C171.638 4.86611 171.721 5.20468 171.887 5.494C172.052 5.77716 172.274 5.99569 172.553 6.14959C172.831 6.29732 173.139 6.37119 173.477 6.37119C173.815 6.37119 174.123 6.29732 174.401 6.14959C174.686 5.99569 174.912 5.77716 175.077 5.494C175.243 5.20468 175.326 4.86919 175.326 4.48754Z" fill="#767E86"/>
<path d="M179.796 6.25115L181.486 1.96676H182.45L180.313 7.02678H179.259L177.122 1.96676H178.097L179.796 6.25115Z" fill="#767E86"/>
<path d="M183.807 1.14497C183.635 1.14497 183.489 1.08957 183.37 0.978763C183.25 0.867959 183.191 0.732533 183.191 0.572484C183.191 0.412435 183.25 0.277008 183.37 0.166205C183.489 0.0554017 183.635 0 183.807 0C183.973 0 184.112 0.0554017 184.224 0.166205C184.344 0.277008 184.403 0.412435 184.403 0.572484C184.403 0.732533 184.344 0.867959 184.224 0.978763C184.112 1.08957 183.973 1.14497 183.807 1.14497ZM184.244 1.96676V7.02678H183.34V1.96676H184.244Z" fill="#767E86"/>
<path d="M187.714 7.10988C187.297 7.10988 186.922 7.04525 186.591 6.91598C186.26 6.78055 185.998 6.59588 185.806 6.36196C185.614 6.12188 185.508 5.84795 185.488 5.54017H186.422C186.448 5.79255 186.574 5.99877 186.8 6.15882C187.032 6.31887 187.333 6.39889 187.704 6.39889C188.049 6.39889 188.32 6.3281 188.519 6.18652C188.718 6.04494 188.817 5.86642 188.817 5.65097C188.817 5.42936 188.711 5.26624 188.499 5.16159C188.287 5.05079 187.959 4.94306 187.515 4.83841C187.111 4.73992 186.78 4.64143 186.521 4.54294C186.27 4.43829 186.051 4.28747 185.865 4.09049C185.686 3.88735 185.597 3.62265 185.597 3.2964C185.597 3.03786 185.68 2.80086 185.845 2.58541C186.011 2.36996 186.246 2.20068 186.551 2.07756C186.856 1.94829 187.204 1.88366 187.595 1.88366C188.198 1.88366 188.685 2.02524 189.056 2.3084C189.427 2.59157 189.626 2.97938 189.652 3.47184H188.748C188.728 3.20714 188.612 2.99477 188.4 2.83472C188.194 2.67467 187.916 2.59464 187.565 2.59464C187.24 2.59464 186.982 2.65928 186.79 2.78855C186.598 2.91782 186.501 3.0871 186.501 3.2964C186.501 3.4626 186.558 3.60111 186.67 3.71191C186.79 3.81656 186.936 3.90274 187.108 3.97045C187.287 4.03201 187.532 4.1028 187.843 4.18283C188.234 4.28132 188.552 4.37981 188.797 4.4783C189.043 4.57064 189.251 4.71222 189.424 4.90305C189.603 5.09388 189.695 5.34318 189.702 5.65097C189.702 5.92798 189.619 6.17729 189.453 6.39889C189.288 6.6205 189.053 6.79594 188.748 6.92521C188.45 7.04832 188.105 7.10988 187.714 7.10988Z" fill="#767E86"/>
<path d="M193.354 7.10988C192.844 7.10988 192.38 7.00216 191.963 6.7867C191.552 6.57125 191.227 6.26654 190.989 5.87258C190.757 5.47245 190.641 5.01077 190.641 4.48754C190.641 3.97045 190.76 3.51493 190.999 3.12096C191.244 2.72084 191.575 2.41613 191.992 2.20683C192.41 1.99138 192.877 1.88366 193.394 1.88366C193.911 1.88366 194.378 1.99138 194.795 2.20683C195.213 2.41613 195.541 2.71776 195.779 3.11173C196.025 3.50569 196.147 3.9643 196.147 4.48754C196.147 5.01077 196.021 5.47245 195.769 5.87258C195.524 6.26654 195.19 6.57125 194.766 6.7867C194.341 7.00216 193.871 7.10988 193.354 7.10988ZM193.354 6.37119C193.679 6.37119 193.984 6.3004 194.269 6.15882C194.553 6.01724 194.782 5.80486 194.954 5.5217C195.133 5.23854 195.223 4.89381 195.223 4.48754C195.223 4.08126 195.137 3.73653 194.964 3.45337C194.792 3.17021 194.567 2.96091 194.288 2.82548C194.01 2.6839 193.709 2.61311 193.384 2.61311C193.053 2.61311 192.748 2.6839 192.47 2.82548C192.198 2.96091 191.979 3.17021 191.814 3.45337C191.648 3.73653 191.565 4.08126 191.565 4.48754C191.565 4.89997 191.645 5.24777 191.804 5.53093C191.969 5.8141 192.188 6.02647 192.46 6.16805C192.731 6.30348 193.03 6.37119 193.354 6.37119Z" fill="#767E86"/>
<path d="M198.241 2.78855C198.4 2.49923 198.625 2.27455 198.917 2.1145C199.215 1.95445 199.576 1.87442 200 1.87442V2.74238H199.761C198.748 2.74238 198.241 3.25331 198.241 4.27516V7.02678H197.336V1.96676H198.241V2.78855Z" fill="#767E86"/>
<path d="M31.4874 13.518V19.9538H30.5829V13.518H31.4874Z" fill="#767E86"/>
<path d="M38.4756 19.9538H37.5711L33.9334 14.8292V19.9538H33.0289V13.5088H33.9334L37.5711 18.6242V13.5088H38.4756V19.9538Z" fill="#767E86"/>
<path d="M44.1123 18.5226H41.0908L40.5342 19.9538H39.5801L42.0847 13.5549H43.1284L45.6231 19.9538H44.6689L44.1123 18.5226ZM43.8539 17.8393L42.6016 14.5891L41.3493 17.8393H43.8539Z" fill="#767E86"/>
<path d="M46.4563 19.2798C47.2978 18.6519 47.9571 18.1379 48.4342 17.7378C48.9113 17.3315 49.3122 16.9098 49.6368 16.4728C49.9681 16.0295 50.1338 15.5956 50.1338 15.1708C50.1338 14.7707 50.0278 14.4568 49.8157 14.229C49.6103 13.9951 49.2757 13.8781 48.8119 13.8781C48.3613 13.8781 48.0101 14.0105 47.7583 14.2752C47.5132 14.5337 47.3806 14.8815 47.3608 15.3186H46.4861C46.5126 14.6291 46.7379 14.0966 47.162 13.7211C47.586 13.3456 48.1327 13.1579 48.8019 13.1579C49.4844 13.1579 50.0245 13.3333 50.422 13.6842C50.8262 14.0351 51.0283 14.5183 51.0283 15.1339C51.0283 15.6448 50.8627 16.1434 50.5314 16.6297C50.2067 17.1099 49.8356 17.5346 49.4182 17.904C49.0007 18.2672 48.4673 18.6919 47.818 19.1782H51.237V19.88H46.4563V19.2798Z" fill="#767E86"/>
<path d="M52.2826 16.5466C52.2826 15.4878 52.4681 14.663 52.8392 14.072C53.2103 13.4749 53.8596 13.1764 54.7873 13.1764C55.7083 13.1764 56.3544 13.4749 56.7254 14.072C57.0965 14.663 57.282 15.4878 57.282 16.5466C57.282 17.6239 57.0965 18.4611 56.7254 19.0582C56.3544 19.6553 55.7083 19.9538 54.7873 19.9538C53.8596 19.9538 53.2103 19.6553 52.8392 19.0582C52.4681 18.4611 52.2826 17.6239 52.2826 16.5466ZM56.3875 16.5466C56.3875 16.0111 56.3477 15.5586 56.2682 15.1893C56.1953 14.8138 56.0396 14.5122 55.8011 14.2844C55.5692 14.0566 55.2312 13.9428 54.7873 13.9428C54.3367 13.9428 53.9921 14.0566 53.7536 14.2844C53.5217 14.5122 53.366 14.8138 53.2865 15.1893C53.2136 15.5586 53.1771 16.0111 53.1771 16.5466C53.1771 17.1006 53.2136 17.5654 53.2865 17.9409C53.366 18.3164 53.5217 18.618 53.7536 18.8458C53.9921 19.0736 54.3367 19.1874 54.7873 19.1874C55.2312 19.1874 55.5692 19.0736 55.8011 18.8458C56.0396 18.618 56.1953 18.3164 56.2682 17.9409C56.3477 17.5654 56.3875 17.1006 56.3875 16.5466Z" fill="#767E86"/>
<path d="M58.5237 16.5466C58.5237 15.4878 58.7093 14.663 59.0803 14.072C59.4514 13.4749 60.1007 13.1764 61.0284 13.1764C61.9494 13.1764 62.5955 13.4749 62.9665 14.072C63.3376 14.663 63.5231 15.4878 63.5231 16.5466C63.5231 17.6239 63.3376 18.4611 62.9665 19.0582C62.5955 19.6553 61.9494 19.9538 61.0284 19.9538C60.1007 19.9538 59.4514 19.6553 59.0803 19.0582C58.7093 18.4611 58.5237 17.6239 58.5237 16.5466ZM62.6286 16.5466C62.6286 16.0111 62.5889 15.5586 62.5093 15.1893C62.4365 14.8138 62.2807 14.5122 62.0422 14.2844C61.8103 14.0566 61.4724 13.9428 61.0284 13.9428C60.5778 13.9428 60.2333 14.0566 59.9947 14.2844C59.7628 14.5122 59.6071 14.8138 59.5276 15.1893C59.4547 15.5586 59.4183 16.0111 59.4183 16.5466C59.4183 17.1006 59.4547 17.5654 59.5276 17.9409C59.6071 18.3164 59.7628 18.618 59.9947 18.8458C60.2333 19.0736 60.5778 19.1874 61.0284 19.1874C61.4724 19.1874 61.8103 19.0736 62.0422 18.8458C62.2807 18.618 62.4365 18.3164 62.5093 17.9409C62.5889 17.5654 62.6286 17.1006 62.6286 16.5466Z" fill="#767E86"/>
<path d="M64.7648 16.5466C64.7648 15.4878 64.9504 14.663 65.3214 14.072C65.6925 13.4749 66.3419 13.1764 67.2695 13.1764C68.1906 13.1764 68.8366 13.4749 69.2077 14.072C69.5787 14.663 69.7643 15.4878 69.7643 16.5466C69.7643 17.6239 69.5787 18.4611 69.2077 19.0582C68.8366 19.6553 68.1906 19.9538 67.2695 19.9538C66.3419 19.9538 65.6925 19.6553 65.3214 19.0582C64.9504 18.4611 64.7648 17.6239 64.7648 16.5466ZM68.8697 16.5466C68.8697 16.0111 68.83 15.5586 68.7505 15.1893C68.6776 14.8138 68.5219 14.5122 68.2833 14.2844C68.0514 14.0566 67.7135 13.9428 67.2695 13.9428C66.8189 13.9428 66.4744 14.0566 66.2358 14.2844C66.0039 14.5122 65.8482 14.8138 65.7687 15.1893C65.6958 15.5586 65.6594 16.0111 65.6594 16.5466C65.6594 17.1006 65.6958 17.5654 65.7687 17.9409C65.8482 18.3164 66.0039 18.618 66.2358 18.8458C66.4744 19.0736 66.8189 19.1874 67.2695 19.1874C67.7135 19.1874 68.0514 19.0736 68.2833 18.8458C68.5219 18.618 68.6776 18.3164 68.7505 17.9409C68.83 17.5654 68.8697 17.1006 68.8697 16.5466Z" fill="#767E86"/>
<path d="M71.006 16.5466C71.006 15.4878 71.1915 14.663 71.5626 14.072C71.9336 13.4749 72.583 13.1764 73.5106 13.1764C74.4317 13.1764 75.0777 13.4749 75.4488 14.072C75.8198 14.663 76.0054 15.4878 76.0054 16.5466C76.0054 17.6239 75.8198 18.4611 75.4488 19.0582C75.0777 19.6553 74.4317 19.9538 73.5106 19.9538C72.583 19.9538 71.9336 19.6553 71.5626 19.0582C71.1915 18.4611 71.006 17.6239 71.006 16.5466ZM75.1109 16.5466C75.1109 16.0111 75.0711 15.5586 74.9916 15.1893C74.9187 14.8138 74.763 14.5122 74.5244 14.2844C74.2925 14.0566 73.9546 13.9428 73.5106 13.9428C73.0601 13.9428 72.7155 14.0566 72.477 14.2844C72.245 14.5122 72.0893 14.8138 72.0098 15.1893C71.9369 15.5586 71.9005 16.0111 71.9005 16.5466C71.9005 17.1006 71.9369 17.5654 72.0098 17.9409C72.0893 18.3164 72.245 18.618 72.477 18.8458C72.7155 19.0736 73.0601 19.1874 73.5106 19.1874C73.9546 19.1874 74.2925 19.0736 74.5244 18.8458C74.763 18.618 74.9187 18.3164 74.9916 17.9409C75.0711 17.5654 75.1109 17.1006 75.1109 16.5466Z" fill="#767E86"/>
<path d="M81.829 14.0074H78.3404V16.1127C78.4928 15.9157 78.7181 15.7556 79.0163 15.6325C79.3144 15.5032 79.6358 15.4386 79.9804 15.4386C80.5303 15.4386 80.9776 15.5463 81.3222 15.7618C81.6667 15.9711 81.9119 16.245 82.0577 16.5836C82.2101 16.916 82.2863 17.2699 82.2863 17.6454C82.2863 18.0886 82.1968 18.4857 82.0179 18.8366C81.839 19.1874 81.564 19.4645 81.1929 19.6676C80.8285 19.8707 80.3746 19.9723 79.8313 19.9723C79.1355 19.9723 78.5723 19.8061 78.1416 19.4737C77.7109 19.1413 77.4492 18.6981 77.3564 18.144H78.241C78.3271 18.4949 78.5094 18.7689 78.7877 18.9658C79.066 19.1628 79.4171 19.2613 79.8412 19.2613C80.3647 19.2613 80.7589 19.1167 81.024 18.8273C81.289 18.5319 81.4215 18.144 81.4215 17.6639C81.4215 17.1838 81.289 16.8144 81.024 16.5559C80.7589 16.2912 80.368 16.1588 79.8512 16.1588C79.5 16.1588 79.1918 16.2388 78.9268 16.3989C78.6684 16.5528 78.4795 16.7652 78.3603 17.036H77.5055V13.2687H81.829V14.0074Z" fill="#767E86"/>
<path d="M83.4683 14.9585C83.5147 14.3921 83.7499 13.9489 84.174 13.6288C84.5981 13.3087 85.148 13.1487 85.8239 13.1487C86.2745 13.1487 86.6621 13.2256 86.9868 13.3795C87.3181 13.5272 87.5666 13.7304 87.7322 13.9889C87.9045 14.2475 87.9907 14.5399 87.9907 14.8661C87.9907 15.2478 87.8714 15.5771 87.6329 15.8541C87.4009 16.1311 87.0961 16.3096 86.7184 16.3897V16.4358C87.1491 16.5343 87.4904 16.7282 87.7422 17.0175C87.994 17.3069 88.1199 17.6854 88.1199 18.1533C88.1199 18.5042 88.0337 18.8212 87.8615 19.1043C87.6892 19.3813 87.4308 19.5999 87.0862 19.7599C86.7416 19.92 86.3275 20 85.8438 20C85.1414 20 84.5649 19.8307 84.1144 19.4922C83.6638 19.1474 83.412 18.6611 83.359 18.0332H84.2336C84.28 18.4026 84.4424 18.7042 84.7207 18.9381C84.999 19.1721 85.37 19.289 85.8338 19.289C86.2977 19.289 86.6489 19.1782 86.8874 18.9566C87.1326 18.7288 87.2552 18.4364 87.2552 18.0794C87.2552 17.6177 87.0895 17.2853 86.7582 17.0822C86.4269 16.879 85.9266 16.7775 85.2574 16.7775H85.0288V16.0757H85.2673C85.8769 16.0696 86.3374 15.9772 86.6489 15.7987C86.9603 15.614 87.116 15.3309 87.116 14.9492C87.116 14.623 87 14.3613 86.7681 14.1644C86.5428 13.9674 86.2182 13.8689 85.7941 13.8689C85.3833 13.8689 85.052 13.9674 84.8002 14.1644C84.5484 14.3613 84.3993 14.626 84.3529 14.9585H83.4683Z" fill="#767E86"/>
<path d="M89.2317 19.2798C90.0732 18.6519 90.7326 18.1379 91.2096 17.7378C91.6867 17.3315 92.0876 16.9098 92.4123 16.4728C92.7436 16.0295 92.9092 15.5956 92.9092 15.1708C92.9092 14.7707 92.8032 14.4568 92.5912 14.229C92.3858 13.9951 92.0512 13.8781 91.5873 13.8781C91.1368 13.8781 90.7856 14.0105 90.5338 14.2752C90.2886 14.5337 90.1561 14.8815 90.1362 15.3186H89.2616C89.2881 14.6291 89.5134 14.0966 89.9374 13.7211C90.3615 13.3456 90.9081 13.1579 91.5774 13.1579C92.2599 13.1579 92.7999 13.3333 93.1975 13.6842C93.6017 14.0351 93.8038 14.5183 93.8038 15.1339C93.8038 15.6448 93.6381 16.1434 93.3068 16.6297C92.9821 17.1099 92.6111 17.5346 92.1936 17.904C91.7762 18.2672 91.2428 18.6919 90.5934 19.1782H94.0125V19.88H89.2317V19.2798Z" fill="#767E86"/>
<path d="M95.0382 14.9585C95.0846 14.3921 95.3198 13.9489 95.7439 13.6288C96.1679 13.3087 96.7179 13.1487 97.3938 13.1487C97.8443 13.1487 98.232 13.2256 98.5566 13.3795C98.888 13.5272 99.1364 13.7304 99.3021 13.9889C99.4744 14.2475 99.5605 14.5399 99.5605 14.8661C99.5605 15.2478 99.4412 15.5771 99.2027 15.8541C98.9708 16.1311 98.666 16.3096 98.2883 16.3897V16.4358C98.719 16.5343 99.0602 16.7282 99.312 17.0175C99.5638 17.3069 99.6897 17.6854 99.6897 18.1533C99.6897 18.5042 99.6036 18.8212 99.4313 19.1043C99.259 19.3813 99.0006 19.5999 98.656 19.7599C98.3115 19.92 97.8973 20 97.4136 20C96.7113 20 96.1348 19.8307 95.6842 19.4922C95.2336 19.1474 94.9818 18.6611 94.9288 18.0332H95.8035C95.8499 18.4026 96.0122 18.7042 96.2905 18.9381C96.5688 19.1721 96.9399 19.289 97.4037 19.289C97.8675 19.289 98.2187 19.1782 98.4573 18.9566C98.7024 18.7288 98.825 18.4364 98.825 18.0794C98.825 17.6177 98.6594 17.2853 98.328 17.0822C97.9967 16.879 97.4965 16.7775 96.8272 16.7775H96.5986V16.0757H96.8372C97.4468 16.0696 97.9073 15.9772 98.2187 15.7987C98.5302 15.614 98.6859 15.3309 98.6859 14.9492C98.6859 14.623 98.5699 14.3613 98.338 14.1644C98.1127 13.9674 97.788 13.8689 97.3639 13.8689C96.9531 13.8689 96.6218 13.9674 96.37 14.1644C96.1182 14.3613 95.9691 14.626 95.9228 14.9585H95.0382Z" fill="#767E86"/>
<path d="M0 14.9761C0.0356461 15.0091 0.0616468 15.0323 0.0863895 15.0564C0.877314 15.82 1.66866 16.5833 2.45833 17.3482C2.50781 17.3963 2.55688 17.4167 2.62733 17.4167C5.07307 17.415 7.51924 17.4154 9.96498 17.4154C9.99979 17.4154 10.0342 17.4154 10.0744 17.4154C10.0744 15.058 10.0744 12.7115 10.0744 10.3602C8.72072 10.3602 7.37204 10.3602 6.01581 10.3602C6.01581 10.9592 6.01581 11.5554 6.01581 12.1602C6.36975 12.1602 6.72496 12.1602 7.09358 12.1602C7.09358 11.9034 7.09358 11.6455 7.09358 11.3822C7.73018 11.3822 8.3542 11.3822 8.98534 11.3822C8.98786 11.4055 8.99289 11.4291 8.99289 11.4527C8.99289 11.8786 8.99876 12.3044 8.98954 12.7303C8.98534 12.9169 8.96689 13.1068 8.92495 13.2886C8.82682 13.7112 8.52026 13.9178 8.09922 13.9822C7.95957 14.0033 7.81741 14.0156 7.67608 14.016C6.43853 14.0184 5.2014 14.0176 3.96385 14.0176C3.93827 14.0176 3.91269 14.0176 3.87746 14.0176C3.87746 12.6989 3.87746 11.3859 3.87746 10.0574C3.83049 10.0574 3.79359 10.0574 3.75626 10.0574C3.07647 10.0574 2.39626 10.0623 1.71647 10.0546C1.50511 10.0521 1.28955 10.0379 1.08406 9.99263C0.492755 9.86264 0.151811 9.48895 0.0457109 8.91436C0.017194 8.76114 0.0050324 8.60343 0.0050324 8.44776C0.0025162 5.85192 0.00335493 3.25608 0.00335493 0.659831C0.00335493 0.629267 0.00335493 0.598704 0.00335493 0.563251C6.63102 0.563251 13.2486 0.563251 19.8784 0.563251C19.8784 0.600742 19.8784 0.634157 19.8784 0.667166C19.8784 2.92477 19.8788 5.18279 19.8759 7.44039C19.8759 7.4897 19.8507 7.55002 19.8159 7.58588C19.6213 7.78596 19.4213 7.98157 19.2196 8.17513C19.1889 8.20448 19.1386 8.23015 19.0971 8.23015C18.1141 8.233 17.1315 8.23259 16.1485 8.23219C16.136 8.23219 16.1234 8.23056 16.0911 8.22852C16.1221 8.19592 16.1431 8.17147 16.1666 8.14946C16.7394 7.59892 17.3119 7.04796 17.8864 6.49945C17.9363 6.45178 17.9573 6.4041 17.9568 6.33563C17.9543 5.58419 17.9543 4.83274 17.9568 4.08088C17.9573 4.01242 17.9355 3.96515 17.886 3.91706C17.3785 3.42723 16.874 2.93415 16.3658 2.44513C16.3297 2.41049 16.2672 2.3836 16.2169 2.3836C12.1339 2.38075 8.05099 2.38075 3.96804 2.38319C3.91982 2.38319 3.85985 2.40601 3.82588 2.43861C3.30251 2.93537 2.78208 3.43457 2.26332 3.93581C2.23313 3.96474 2.20922 4.01527 2.20922 4.05561C2.20629 5.40855 2.20671 6.76107 2.20712 8.11401C2.20712 8.1352 2.21048 8.1568 2.21258 8.18369C2.74559 8.18369 3.27567 8.18369 3.81456 8.18369C3.81456 7.04878 3.81456 5.91997 3.81456 4.77894C3.85733 4.77894 3.89172 4.77894 3.92611 4.77894C5.06678 4.77894 6.20746 4.77894 7.34856 4.77894C7.70502 4.77894 8.04764 4.8417 8.36216 5.01082C8.77859 5.23495 9.01176 5.56381 8.99708 6.04508C8.98492 6.45503 8.99457 6.8654 8.99457 7.27576C8.99457 7.30999 8.99457 7.34381 8.99457 7.38579C8.36258 7.38579 7.73689 7.38579 7.09987 7.38579C7.09987 7.13639 7.09987 6.88781 7.09987 6.63189C6.73293 6.63189 6.3773 6.63189 6.01581 6.63189C6.01581 7.15758 6.01581 7.67879 6.01581 8.21263C6.0611 8.21263 6.1022 8.21263 6.14288 8.21263C8.45988 8.21263 10.7769 8.19796 13.0939 8.21955C14.1134 8.22893 15.0322 8.55412 15.7501 9.29334C16.349 9.90991 16.5885 10.6479 16.4832 11.4931C16.4236 11.9715 16.266 12.4051 15.9313 12.769C15.7468 12.9699 15.5254 13.1243 15.2825 13.2519C15.2524 13.2678 15.2305 13.2992 15.205 13.3232C15.2326 13.3444 15.257 13.3737 15.2888 13.386C15.816 13.5926 16.2739 13.8888 16.6094 14.344C16.8703 14.6982 17.0036 15.0987 17.0783 15.5234C17.3752 17.2178 16.0261 18.7765 14.4686 18.9786C14.2425 19.008 14.0131 19.0271 13.7854 19.0275C9.23067 19.0312 4.67719 19.0304 0.123713 19.0304C0.0859701 19.0304 0.0482271 19.0304 0 19.0305C0 17.6762 0 16.3343 0 14.9761ZM11.9851 17.4464C12.0253 17.4464 12.0597 17.4464 12.0945 17.4464C12.5453 17.4464 12.9962 17.4448 13.4474 17.4468C13.7699 17.4484 14.0634 17.358 14.331 17.1893C14.8854 16.8396 15.1345 16.166 14.945 15.5425C14.7655 14.952 14.2065 14.5649 13.5325 14.5649C13.0528 14.5649 12.5726 14.5649 12.0928 14.5649C12.0585 14.5649 12.0241 14.5649 11.9855 14.5649C11.9851 15.5291 11.9851 16.4822 11.9851 17.4464ZM11.9838 12.674C12.0283 12.674 12.0631 12.674 12.0983 12.674C12.4623 12.674 12.8263 12.6757 13.1903 12.6736C13.6365 12.6712 14.0207 12.5106 14.339 12.214C14.8095 11.7751 14.8028 11.1092 14.3327 10.7127C14.0282 10.456 13.6634 10.3386 13.2692 10.3231C12.8674 10.3072 12.464 10.3195 12.0614 10.3199C12.0371 10.3199 12.0123 10.3239 11.9842 10.3264C11.9838 11.108 11.9838 11.8831 11.9838 12.674Z" fill="#767E86"/>
<path d="M16.4524 19.0228C16.527 18.9494 16.5874 18.8891 16.6491 18.83C17.0596 18.4364 17.4698 18.0423 17.8829 17.6507C17.9357 17.6006 17.9567 17.5504 17.9567 17.4791C17.955 15.4029 17.9554 13.327 17.9554 11.2507C17.9554 11.2079 17.9554 11.1652 17.9554 11.1179C18.5933 11.1179 19.2173 11.1179 19.8488 11.1179C19.8488 13.7524 19.8488 16.3837 19.8488 19.0228C18.722 19.0228 17.5964 19.0228 16.4524 19.0228Z" fill="#767E86"/>
<path d="M18.88 8.90653C19.4076 8.9049 19.8328 9.31812 19.8303 9.82954C19.8278 10.3373 19.405 10.7485 18.8842 10.7501C18.3621 10.7513 17.9297 10.3312 17.9318 9.82465C17.9343 9.3173 18.3566 8.90816 18.88 8.90653Z" fill="#767E86"/>
</g>
</svg>
