<svg xmlns="http://www.w3.org/2000/svg" width="140" height="103" viewBox="0 0 140 103">
  <defs>
    <linearGradient id="ic_short_term_inv-a" x1="50%" x2="50%" y1="0%" y2="100%">
      <stop offset="0%" stop-color="#7F66BF"/>
      <stop offset="100%" stop-color="#6E54B7"/>
    </linearGradient>
    <linearGradient id="ic_short_term_inv-b" x1="50%" x2="50%" y1="0%" y2="98.569%">
      <stop offset="0%" stop-color="#482998"/>
      <stop offset="100%" stop-color="#4F2DA7"/>
    </linearGradient>
  </defs>
  <g fill="none">
    <g opacity=".05">
      <path fill="#4F2DA7" d="M97.8372647,102.526316 C111.346037,102.526316 134.67937,102.526316 139.591651,89.0175439 C144.503931,75.5087719 103.660694,76.3010753 94.1530542,66.7934352 C84.6454141,57.2857951 69.3155497,58.3157895 54.8548085,58.3157895 C40.3940674,58.3157895 30.3811243,43.9807369 30.3811243,44.9937586 C30.3811243,46.0067802 30.8375209,102.526316 30.8375209,102.526316 C31.5768686,102.526316 83.3590146,102.526316 97.8372647,102.526316 Z" transform="matrix(-1 0 0 1 170.381 0)"/>
      <path fill="#4F2DA7" d="M69.6489592,79.2926613 C117.867469,62.1483021 139.297918,100.72311 139.297918,79.2926613 C139.297918,57.8622123 113.58138,47.1469879 100.72311,34.2887184 C87.8648409,21.430449 93.4919636,-1.98951966e-13 73.935049,-1.98951966e-13 C54.3781345,-1.98951966e-13 64.2310099,12.0131011 42.8608981,21.430449 C21.490786,30.8477969 -7.10542736e-14,6.42913469 -7.10542736e-14,34.2887184 C-7.10542736e-14,62.1483021 21.430449,96.4370205 69.6489592,79.2926613 Z"/>
      <path fill="#3792FC" d="M122.361436 91.4619665C122.469199 90.7589431 122.448672 90.0918406 122.838671 89.4709221 123.623799 88.2393483 124.737347 88.5472417 125.814974 89.0911869 126.913128 89.6453951 127.949702 89.9738148 129.140224 89.460659 131.002979 88.6550045 131.880475 85.8429109 130.099825 84.518969 129.52509 84.0879182 128.955488 84.7960731 129.032461 85.3400182 129.140224 86.0943572 129.514827 86.9308011 128.868251 87.5773774 128.001018 88.4446106 126.984969 87.7159294 126.117736 87.325931 125.183793 86.9051433 124.18827 86.8127753 123.228669 87.2027736 121.571176 87.8750077 120.36526 90.1226299 121.68407 91.641571 121.868806 91.8519649 122.315252 91.7544653 122.361436 91.4619665L122.361436 91.4619665zM125.584509 31.1145138C125.77714 31.7386384 126.370444 31.9389747 126.90981 31.5691231 129.028752 30.1282429 131.139988 28.7181837 133.151056 27.1231987 133.536318 26.8149891 133.451561 26.1985697 133.074004 25.9365915 130.723905 24.326196 127.557051 21.9452764 124.575122 21.9298246 123.820009 21.9221607 123.288347 22.9931893 124.058871 23.432388 125.260889 24.1258598 126.701769 24.3724275 127.988544 24.9040892 129.467951 25.5205085 130.939652 26.2448012 132.249543 27.1771354 132.280364 26.7456419 132.311185 26.3141484 132.334301 25.8826548 130.092075 27.2618931 127.980839 28.8106466 125.854192 30.3516949 126.270275 30.4364526 126.694064 30.5212102 127.110147 30.6059679 126.200928 28.0324172 125.268594 25.4819823 124.259207 22.9469578 124.035755 22.4152961 123.126537 22.7080953 123.280642 23.2705779 123.989524 25.9057706 124.767753 28.5101422 125.584509 31.1145138zM51.4096271 37.7597275C53.3809066 37.9083383 55.4527169 37.9651601 57.4239964 37.7684693 58.1495671 37.6985347 58.057778 36.7107096 57.3540619 36.6844841 55.4133787 36.6101787 53.3809066 36.7762732 51.462078 37.0341567 51.081809 37.0866076 50.9637945 37.7247602 51.4096271 37.7597275L51.4096271 37.7597275zM121.883173 65.7283434C123.410355 67.5813244 126.376482 67.9682105 128.283763 66.4953282 132.899247 62.9319032 128.086926 56.3684137 123.111706 57.7259089 122.188609 57.9770455 122.419383 59.2938159 123.328905 59.3413283 124.781425 59.422778 126.342545 59.4770778 127.503203 60.5019867 128.752099 61.5947704 128.779249 63.4477514 127.75434 64.7102219 125.039349 68.0428727 120.328841 63.1355274 123.179581 60.1490379 123.546105 59.7757267 122.989531 59.2191537 122.609433 59.5788899 120.905776 61.2146717 120.260966 63.7599753 121.883173 65.7283434zM40.0820763 91.7073194C40.613738 93.6837139 41.19741 95.6369926 41.8099767 97.5902713 41.95445 98.0583648 42.3994277 98.208617 42.8039529 97.9312283 44.393159 96.8505682 45.9765861 95.7930238 47.4848871 94.596785 47.7738337 94.3656278 47.7102655 93.9033133 47.4270978 93.7068296 45.6645238 92.499033 43.2893831 90.7133433 41.0529368 90.7017544 40.4866015 90.6960065 40.0878552 91.4992779 40.6657484 91.828677 41.5672616 92.3487808 42.6479218 92.5337066 43.6130033 92.9324528 44.722558 93.3947673 45.8263339 93.9379869 46.8087522 94.6372375 46.8318679 94.3136174 46.8549836 93.9899972 46.8723204 93.6663771 45.1906515 94.7008058 43.6072243 95.8623709 42.0122393 97.0181572 42.3243016 97.0817254 42.6421428 97.1452936 42.9542051 97.2088619 42.2722912 95.2786989 41.5730406 93.3658727 40.8160006 91.4646043 40.6541905 91.0658581 39.9722766 91.2854575 40.0820763 91.7073194L40.0820763 91.7073194z"/>
    </g>
    <g transform="translate(72 29.298)">
      <rect width="46.667" height="4.912" y="54.035" fill="#7F66BF" rx="2.456"/>
      <path fill="#DFD8EF" d="M6.14035088,4.9122807 L40.5263158,4.9122807 L40.5263158,20.877193 C37.251462,27.4269006 31.5204678,30.7017544 23.3333333,30.7017544 C15.1461988,30.7017544 9.41520468,27.4269006 6.14035088,20.877193 L6.14035088,4.9122807 Z"/>
      <path fill="url(#ic_short_term_inv-a)" d="M8.59649123,15.9649123 C10.2339181,14.3274854 12.2807018,13.5087719 14.7368421,13.5087719 C18.4210526,13.5087719 28.245614,17.1929825 31.9298246,17.1929825 C34.3859649,17.1929825 36.4327485,16.7836257 38.0701754,15.9649123 L38.0701754,20.877193 C33.9766082,25.7894737 29.0643275,28.245614 23.3333333,28.245614 C17.6023392,28.245614 12.6900585,25.7894737 8.59649123,20.877193 L8.59649123,15.9649123 Z"/>
      <path fill="#DFD8EF" d="M6.14035088,29.4736842 L40.5263158,29.4736842 L40.5263158,44.2105263 C38.0701754,50.7602339 32.3391813,54.0350877 23.3333333,54.0350877 C14.3274854,54.0350877 8.59649123,50.7602339 6.14035088,44.2105263 L6.14035088,29.4736842 Z" transform="matrix(1 0 0 -1 0 83.509)"/>
      <path fill="url(#ic_short_term_inv-b)" d="M12.2807018,47.8947368 L34.3859649,47.8947368 C31.1111111,51.9883041 27.4269006,54.0350877 23.3333333,54.0350877 C19.2397661,54.0350877 15.5555556,51.9883041 12.2807018,47.8947368 Z" transform="matrix(1 0 0 -1 0 101.93)"/>
      <rect width="46.667" height="4.912" fill="#7F66BF" rx="2.456"/>
      <rect width="2.456" height="6.14" x="22.105" y="27.018" fill="#5F40AF" rx="1.228"/>
      <circle cx="23.333" cy="36.842" r="1.228" fill="#5F40AF"/>
    </g>
  </g>
</svg>
