<svg width="40" height="40" viewBox="0 0 40 40" fill="none" xmlns="http://www.w3.org/2000/svg">
<path d="M32.6722 15.8309C32.0522 15.8309 32.0522 14.8879 32.6722 14.8879H33.6813C34.4052 14.8879 35 15.483 35 16.2066V19.7028C35 20.4264 34.4049 21.0215 33.6813 21.0215H32.6722C32.0522 21.0215 32.0522 20.0785 32.6722 20.0785H33.6813C33.8888 20.0785 34.057 19.9103 34.057 19.7028V16.2066C34.057 15.9991 33.8888 15.8309 33.6813 15.8309H32.6722ZM17.5535 12.5719C16.5195 12.5719 16.5195 11 17.5535 11H28.7275C29.7614 11 29.7614 12.5719 28.7275 12.5719H17.5535ZM27.3241 23.6646C26.8901 23.6646 26.5381 23.3126 26.5381 22.8786C26.5381 22.4446 26.8901 22.0926 27.3241 22.0926C28.7717 22.0926 29.995 23.0876 30.3451 24.4286H32.4446V23.8862C32.4446 22.8522 34.0165 22.8522 34.0165 23.8862V24.654C34.0165 25.3958 33.4117 26.0006 32.6699 26.0006H30.3447C29.9946 27.3412 28.7713 28.3362 27.3241 28.3362C25.8736 28.3362 24.6517 27.3431 24.3024 26.0006H20.2311C19.1971 26.0006 19.1971 24.4286 20.2311 24.4286H24.3042C24.4271 23.9594 24.658 23.5198 24.981 23.153C25.6623 22.3793 26.8407 23.4162 26.1594 24.1903C25.9051 24.4788 25.7741 24.8303 25.7741 25.2146C25.7741 26.0741 26.465 26.7643 27.3241 26.7643C28.1847 26.7643 28.8738 26.0752 28.8738 25.2146C28.8738 24.354 28.1847 23.6646 27.3241 23.6646ZM10.5284 22.0926C11.976 22.0926 13.1993 23.0876 13.5494 24.4286H17.8672C18.9012 24.4286 18.9012 26.0006 17.8672 26.0006H13.549C13.1989 27.3412 11.9756 28.3362 10.5284 28.3362C9.08123 28.3362 7.85791 27.3412 7.5078 26.0006H5.77548C4.74151 26.0006 4.74151 24.4286 5.77548 24.4286H7.50743C7.85754 23.0876 9.08086 22.0926 10.5284 22.0926ZM10.5284 23.6646C9.66783 23.6646 8.97876 24.354 8.97876 25.2146C8.97876 26.0752 9.66783 26.7643 10.5284 26.7643C11.389 26.7643 12.0781 26.0752 12.0781 25.2146C12.0781 24.354 11.389 23.6646 10.5284 23.6646ZM17.4254 15.3943C16.4211 15.3943 15.9092 15.4659 15.3783 16.3893L13.6927 19.3449H19.1577C19.6764 19.3449 20.1004 18.9209 20.1004 18.4023V16.3369C20.1004 15.8183 19.6764 15.3943 19.1577 15.3943H17.4254ZM18.485 19.9824H19.6534C20.2448 19.9824 20.2448 20.8764 19.6534 20.8764H18.485C17.8943 20.8764 17.894 19.9824 18.485 19.9824ZM20.0384 13.2614C21.0724 13.2614 21.0724 14.8333 20.0384 14.8333H17.3029C16.1412 14.8333 15.4989 14.9707 14.886 16.0381L13.1195 19.1084C12.9751 19.3601 12.7118 19.5008 12.4412 19.5008L8.98173 19.5046C8.42966 19.5046 8.16346 20.0963 8.06767 20.5597L7.51523 23.209C7.43838 23.5792 7.11166 23.8335 6.74782 23.8331L5.77548 23.8354C4.74151 23.8354 4.74151 22.2634 5.77548 22.2634H6.1111L6.53286 20.2404C6.78903 19.0089 7.63441 17.9326 8.98173 17.9326H11.9908L13.5294 15.2584C14.4297 13.6909 15.5709 13.2614 17.3029 13.2614H20.0384ZM31.839 22.8652C31.839 23.8992 30.2671 23.8992 30.2671 22.8652V15.1682C30.2671 14.9855 30.1149 14.8333 29.9322 14.8333H23.0486V17.9096H28.2478C29.2818 17.9096 29.2818 19.4815 28.2478 19.4815H22.2626C21.8286 19.4815 21.4767 19.1296 21.4767 18.6956V14.0473C21.4767 13.6133 21.8286 13.2614 22.2626 13.2614H29.9322C30.9811 13.2614 31.839 14.1194 31.839 15.1682V22.8652Z" fill="#C3AFF6"/>
<path d="M27.3241 23.6646C26.8901 23.6646 26.5381 23.3126 26.5381 22.8786C26.5381 22.4446 26.8901 22.0927 27.3241 22.0927C28.7717 22.0927 29.995 23.0876 30.3451 24.4286H32.4446V23.8862C32.4446 22.8523 34.0165 22.8523 34.0165 23.8862V24.654C34.0165 25.3958 33.4117 26.0006 32.6699 26.0006H30.3447C29.9946 27.3412 28.7713 28.3362 27.3241 28.3362C25.8736 28.3362 24.6517 27.3431 24.3024 26.0006H20.2311C19.1971 26.0006 19.1971 24.4286 20.2311 24.4286H24.3042C24.4271 23.9594 24.658 23.5198 24.981 23.153C25.6623 22.3793 26.8407 23.4162 26.1594 24.1903C25.9051 24.4788 25.7741 24.8304 25.7741 25.2146C25.7741 26.0741 26.465 26.7643 27.3241 26.7643C28.1847 26.7643 28.8738 26.0752 28.8738 25.2146C28.8738 24.354 28.1847 23.6646 27.3241 23.6646ZM10.5284 22.0927C11.976 22.0927 13.1993 23.0876 13.5494 24.4286H17.8672C18.9012 24.4286 18.9012 26.0006 17.8672 26.0006H13.549C13.1989 27.3412 11.9756 28.3362 10.5284 28.3362C9.08123 28.3362 7.85791 27.3412 7.5078 26.0006H5.77548C4.74151 26.0006 4.74151 24.4286 5.77548 24.4286H7.50743C7.85754 23.0876 9.08086 22.0927 10.5284 22.0927ZM10.5284 23.6646C9.66783 23.6646 8.97876 24.354 8.97876 25.2146C8.97876 26.0752 9.66783 26.7643 10.5284 26.7643C11.389 26.7643 12.0781 26.0752 12.0781 25.2146C12.0781 24.354 11.389 23.6646 10.5284 23.6646Z" fill="#4AD0C0"/>
</svg>
