<svg width="172" height="112" viewBox="0 0 172 112" fill="none" xmlns="http://www.w3.org/2000/svg">
<rect width="172" height="112" rx="4" fill="#F3EDFF"/>
<path opacity="0.5" d="M98.3329 21.9701C109.656 15.9674 110 0 110 0L0 0C0 0 0 62.8209 0 69C3.33332 74.8358 -3.75007 69 8.33322 69C20.4165 69 37.0831 67.2836 45.4164 51.4925C53.7497 35.7015 50.8843 31.6508 62.083 25.403C73.2817 19.1552 87.0102 27.9729 98.3329 21.9701Z" fill="#DCCCFF"/>
<path opacity="0.5" d="M167.093 49.4806C170.887 53.4367 171.358 57.0158 171.8 61.0297C172.142 64.1373 171.899 99.2264 171.821 109.307C171.81 110.811 170.594 112 169.09 112C161.586 112 140.971 112 139.233 112C141.729 106.315 117.709 85.978 117.044 71.0099C116.379 56.0417 123.273 46.7884 136.119 41.9441C148.965 37.0998 159.865 41.9441 167.093 49.4806Z" fill="#DCCCFF"/>
<path d="M24.774 31.14C23.5606 31.14 22.618 30.804 21.946 30.132C21.274 29.46 20.9146 28.55 20.868 27.402C20.8586 27.122 20.854 26.6833 20.854 26.086C20.854 25.4793 20.8586 25.0407 20.868 24.77C20.9053 23.6313 21.26 22.7307 21.932 22.068C22.6133 21.396 23.5606 21.06 24.774 21.06C25.5953 21.06 26.2906 21.2093 26.86 21.508C27.4293 21.8067 27.8586 22.166 28.148 22.586C28.4373 22.9967 28.5913 23.3793 28.61 23.734V23.762C28.61 23.8367 28.5773 23.902 28.512 23.958C28.456 24.0047 28.3906 24.028 28.316 24.028H27.532C27.448 24.028 27.3826 24.0093 27.336 23.972C27.2986 23.9347 27.2613 23.8647 27.224 23.762C27.0746 23.3233 26.7993 22.9547 26.398 22.656C25.9966 22.3573 25.4553 22.208 24.774 22.208C23.99 22.208 23.374 22.4227 22.926 22.852C22.478 23.2813 22.24 23.944 22.212 24.84C22.2026 25.1107 22.198 25.526 22.198 26.086C22.198 26.6367 22.2026 27.052 22.212 27.332C22.24 28.2373 22.478 28.9047 22.926 29.334C23.374 29.7633 23.99 29.978 24.774 29.978C25.5673 29.978 26.202 29.7633 26.678 29.334C27.154 28.8953 27.392 28.242 27.392 27.374V26.772H25.25C25.1566 26.772 25.0773 26.7393 25.012 26.674C24.956 26.6087 24.928 26.5293 24.928 26.436V26.016C24.928 25.9227 24.956 25.8433 25.012 25.778C25.0773 25.7127 25.1566 25.68 25.25 25.68H28.386C28.4886 25.68 28.568 25.7127 28.624 25.778C28.6893 25.834 28.722 25.9133 28.722 26.016V27.346C28.722 28.102 28.5633 28.7693 28.246 29.348C27.938 29.9173 27.4853 30.3607 26.888 30.678C26.2906 30.986 25.586 31.14 24.774 31.14Z" fill="black"/>
<path d="M33.4359 31.14C32.4839 31.14 31.7233 30.846 31.1539 30.258C30.5846 29.6607 30.2719 28.8487 30.2159 27.822L30.2019 27.346L30.2159 26.884C30.2719 25.876 30.5846 25.0733 31.1539 24.476C31.7233 23.8787 32.4839 23.58 33.4359 23.58C34.4626 23.58 35.2559 23.9067 35.8159 24.56C36.3853 25.2133 36.6699 26.1 36.6699 27.22V27.472C36.6699 27.5653 36.6373 27.6447 36.5719 27.71C36.5159 27.766 36.4413 27.794 36.3479 27.794H31.4899V27.92C31.5179 28.5267 31.7046 29.0447 32.0499 29.474C32.3953 29.9033 32.8526 30.118 33.4219 30.118C33.8606 30.118 34.2153 30.034 34.4859 29.866C34.7659 29.6887 34.9759 29.5067 35.1159 29.32C35.1999 29.208 35.2653 29.1427 35.3119 29.124C35.3586 29.096 35.4379 29.082 35.5499 29.082H36.1659C36.2499 29.082 36.3199 29.1053 36.3759 29.152C36.4413 29.1987 36.4739 29.2593 36.4739 29.334C36.4739 29.5393 36.3479 29.7867 36.0959 30.076C35.8439 30.3653 35.4846 30.6173 35.0179 30.832C34.5606 31.0373 34.0333 31.14 33.4359 31.14ZM35.3959 26.842V26.8C35.3959 26.1467 35.2186 25.6147 34.8639 25.204C34.5093 24.7933 34.0333 24.588 33.4359 24.588C32.8293 24.588 32.3533 24.7933 32.0079 25.204C31.6626 25.6147 31.4899 26.1467 31.4899 26.8V26.842H35.3959Z" fill="black"/>
<path d="M41.1312 31C39.6845 31 38.9612 30.1833 38.9612 28.55V24.798H37.8552C37.7619 24.798 37.6872 24.77 37.6312 24.714C37.5752 24.658 37.5472 24.5833 37.5472 24.49V24.042C37.5472 23.9487 37.5752 23.874 37.6312 23.818C37.6872 23.7527 37.7619 23.72 37.8552 23.72H38.9612V21.382C38.9612 21.2887 38.9892 21.214 39.0452 21.158C39.1012 21.0927 39.1759 21.06 39.2692 21.06H39.8852C39.9785 21.06 40.0532 21.0927 40.1092 21.158C40.1745 21.214 40.2072 21.2887 40.2072 21.382V23.72H41.9432C42.0366 23.72 42.1112 23.7527 42.1672 23.818C42.2325 23.874 42.2652 23.9487 42.2652 24.042V24.49C42.2652 24.5833 42.2325 24.658 42.1672 24.714C42.1112 24.77 42.0366 24.798 41.9432 24.798H40.2072V28.452C40.2072 28.928 40.2819 29.2873 40.4312 29.53C40.5899 29.7727 40.8559 29.894 41.2292 29.894H42.0832C42.1765 29.894 42.2512 29.9267 42.3072 29.992C42.3632 30.048 42.3912 30.1227 42.3912 30.216V30.678C42.3912 30.7713 42.3632 30.8507 42.3072 30.916C42.2512 30.972 42.1765 31 42.0832 31H41.1312Z" fill="black"/>
<path d="M50.1163 31.14C49.1176 31.14 48.3383 30.86 47.7783 30.3C47.2183 29.7307 46.9243 28.9373 46.8963 27.92L46.8823 27.36L46.8963 26.8C46.9243 25.7827 47.2183 24.994 47.7783 24.434C48.3383 23.8647 49.1176 23.58 50.1163 23.58C50.7883 23.58 51.3529 23.7013 51.8103 23.944C52.2769 24.1773 52.6223 24.4713 52.8463 24.826C53.0796 25.1807 53.2056 25.5353 53.2243 25.89C53.2336 25.974 53.2009 26.0487 53.1263 26.114C53.0609 26.1793 52.9863 26.212 52.9023 26.212H52.2863C52.1929 26.212 52.1229 26.1933 52.0763 26.156C52.0296 26.1093 51.9829 26.03 51.9363 25.918C51.7683 25.4607 51.5349 25.1387 51.2363 24.952C50.9469 24.756 50.5783 24.658 50.1303 24.658C49.5423 24.658 49.0756 24.84 48.7303 25.204C48.3849 25.568 48.1983 26.1233 48.1703 26.87L48.1563 27.36L48.1703 27.85C48.1983 28.5967 48.3849 29.152 48.7303 29.516C49.0756 29.88 49.5423 30.062 50.1303 30.062C50.5876 30.062 50.9609 29.9687 51.2503 29.782C51.5396 29.586 51.7683 29.2593 51.9363 28.802C51.9829 28.69 52.0296 28.6153 52.0763 28.578C52.1229 28.5313 52.1929 28.508 52.2863 28.508H52.9023C52.9863 28.508 53.0609 28.5407 53.1263 28.606C53.2009 28.6713 53.2336 28.746 53.2243 28.83C53.2056 29.1753 53.0796 29.5253 52.8463 29.88C52.6223 30.2347 52.2769 30.5333 51.8103 30.776C51.3529 31.0187 50.7883 31.14 50.1163 31.14Z" fill="black"/>
<path d="M57.8555 31.14C56.8289 31.14 56.0355 30.8507 55.4755 30.272C54.9249 29.6933 54.6309 28.9233 54.5935 27.962L54.5795 27.36L54.5935 26.758C54.6309 25.7967 54.9295 25.0267 55.4895 24.448C56.0589 23.8693 56.8475 23.58 57.8555 23.58C58.8635 23.58 59.6475 23.8693 60.2075 24.448C60.7769 25.0267 61.0802 25.7967 61.1175 26.758C61.1362 26.9633 61.1455 27.164 61.1455 27.36C61.1455 27.556 61.1362 27.7567 61.1175 27.962C61.0802 28.9233 60.7815 29.6933 60.2215 30.272C59.6709 30.8507 58.8822 31.14 57.8555 31.14ZM57.8555 30.09C58.4529 30.09 58.9242 29.9033 59.2695 29.53C59.6242 29.1473 59.8155 28.6013 59.8435 27.892C59.8529 27.7987 59.8575 27.6213 59.8575 27.36C59.8575 27.0987 59.8529 26.9213 59.8435 26.828C59.8155 26.1187 59.6242 25.5773 59.2695 25.204C58.9242 24.8213 58.4529 24.63 57.8555 24.63C57.2582 24.63 56.7822 24.8213 56.4275 25.204C56.0822 25.5773 55.8955 26.1187 55.8675 26.828L55.8535 27.36L55.8675 27.892C55.8955 28.6013 56.0822 29.1473 56.4275 29.53C56.7822 29.9033 57.2582 30.09 57.8555 30.09Z" fill="black"/>
<path d="M65.1875 31C64.9448 31 64.7721 30.8833 64.6695 30.65L62.0655 24.154C62.0561 24.126 62.0515 24.0793 62.0515 24.014C62.0515 23.93 62.0795 23.86 62.1355 23.804C62.1915 23.748 62.2568 23.72 62.3315 23.72H62.9755C63.1248 23.72 63.2368 23.7947 63.3115 23.944L65.4675 29.53L67.6235 23.944C67.6421 23.888 67.6795 23.8367 67.7355 23.79C67.8008 23.7433 67.8755 23.72 67.9595 23.72H68.6035C68.6781 23.72 68.7435 23.748 68.7995 23.804C68.8555 23.86 68.8835 23.93 68.8835 24.014L68.8555 24.154L66.2655 30.65C66.1628 30.8833 65.9902 31 65.7475 31H65.1875Z" fill="black"/>
<path d="M73.0023 31.14C72.0503 31.14 71.2897 30.846 70.7203 30.258C70.151 29.6607 69.8383 28.8487 69.7823 27.822L69.7683 27.346L69.7823 26.884C69.8383 25.876 70.151 25.0733 70.7203 24.476C71.2897 23.8787 72.0503 23.58 73.0023 23.58C74.029 23.58 74.8223 23.9067 75.3823 24.56C75.9517 25.2133 76.2363 26.1 76.2363 27.22V27.472C76.2363 27.5653 76.2037 27.6447 76.1383 27.71C76.0823 27.766 76.0077 27.794 75.9143 27.794H71.0563V27.92C71.0843 28.5267 71.271 29.0447 71.6163 29.474C71.9617 29.9033 72.419 30.118 72.9883 30.118C73.427 30.118 73.7817 30.034 74.0523 29.866C74.3323 29.6887 74.5423 29.5067 74.6823 29.32C74.7663 29.208 74.8317 29.1427 74.8783 29.124C74.925 29.096 75.0043 29.082 75.1163 29.082H75.7323C75.8163 29.082 75.8863 29.1053 75.9423 29.152C76.0077 29.1987 76.0403 29.2593 76.0403 29.334C76.0403 29.5393 75.9143 29.7867 75.6623 30.076C75.4103 30.3653 75.051 30.6173 74.5843 30.832C74.127 31.0373 73.5997 31.14 73.0023 31.14ZM74.9623 26.842V26.8C74.9623 26.1467 74.785 25.6147 74.4303 25.204C74.0757 24.7933 73.5997 24.588 73.0023 24.588C72.3957 24.588 71.9197 24.7933 71.5743 25.204C71.229 25.6147 71.0563 26.1467 71.0563 26.8V26.842H74.9623Z" fill="black"/>
<path d="M78.2606 31C78.1673 31 78.088 30.972 78.0226 30.916C77.9666 30.8507 77.9386 30.7713 77.9386 30.678V24.056C77.9386 23.9627 77.9666 23.8833 78.0226 23.818C78.088 23.7527 78.1673 23.72 78.2606 23.72H78.8486C78.9513 23.72 79.0306 23.7527 79.0866 23.818C79.152 23.874 79.1846 23.9533 79.1846 24.056V24.672C79.5673 24.0373 80.216 23.72 81.1306 23.72H81.6766C81.7793 23.72 81.8586 23.748 81.9146 23.804C81.9706 23.86 81.9986 23.9393 81.9986 24.042V24.56C81.9986 24.6533 81.9706 24.7327 81.9146 24.798C81.8586 24.854 81.7793 24.882 81.6766 24.882H80.8786C80.3653 24.882 79.9593 25.0313 79.6606 25.33C79.3713 25.6287 79.2266 26.0347 79.2266 26.548V30.678C79.2266 30.7713 79.194 30.8507 79.1286 30.916C79.0633 30.972 78.984 31 78.8906 31H78.2606Z" fill="black"/>
<path d="M85.1089 31.14C84.6516 31.14 84.2269 31.0467 83.8349 30.86C83.4523 30.6733 83.1443 30.4213 82.9109 30.104C82.6869 29.7773 82.5749 29.418 82.5749 29.026C82.5749 28.41 82.8269 27.906 83.3309 27.514C83.8349 27.122 84.5209 26.8607 85.3889 26.73L87.4889 26.436V26.03C87.4889 25.0687 86.9336 24.588 85.8229 24.588C85.3936 24.588 85.0483 24.6767 84.7869 24.854C84.5256 25.022 84.3343 25.2227 84.2129 25.456C84.1756 25.5493 84.1336 25.6147 84.0869 25.652C84.0496 25.68 83.9936 25.694 83.9189 25.694H83.3729C83.2889 25.694 83.2143 25.666 83.1489 25.61C83.0929 25.5447 83.0649 25.47 83.0649 25.386C83.0649 25.1713 83.1629 24.924 83.3589 24.644C83.5643 24.3547 83.8769 24.1073 84.2969 23.902C84.7169 23.6873 85.2303 23.58 85.8369 23.58C86.8823 23.58 87.6289 23.8227 88.0769 24.308C88.5343 24.7933 88.7629 25.4 88.7629 26.128V30.678C88.7629 30.7713 88.7303 30.8507 88.6649 30.916C88.6089 30.972 88.5343 31 88.4409 31H87.8249C87.7316 31 87.6569 30.972 87.6009 30.916C87.5449 30.8507 87.5169 30.7713 87.5169 30.678V30.062C87.3116 30.37 87.0129 30.6267 86.6209 30.832C86.2289 31.0373 85.7249 31.14 85.1089 31.14ZM85.3889 30.118C86.0049 30.118 86.5089 29.9173 86.9009 29.516C87.2929 29.1147 87.4889 28.5313 87.4889 27.766V27.374L85.8509 27.612C85.1789 27.7053 84.6703 27.864 84.3249 28.088C83.9796 28.312 83.8069 28.592 83.8069 28.928C83.8069 29.3107 83.9609 29.6047 84.2689 29.81C84.5863 30.0153 84.9596 30.118 85.3889 30.118Z" fill="black"/>
<path d="M93.7442 34.08C92.9695 34.08 92.3489 33.9493 91.8822 33.688C91.4155 33.4267 91.0842 33.128 90.8882 32.792C90.7015 32.456 90.6082 32.1667 90.6082 31.924C90.6082 31.84 90.6409 31.7653 90.7062 31.7C90.7715 31.644 90.8462 31.616 90.9302 31.616H91.5462C91.6302 31.616 91.7002 31.6347 91.7562 31.672C91.8122 31.7187 91.8589 31.798 91.8962 31.91C92.1575 32.6567 92.7502 33.03 93.6742 33.03C94.3742 33.03 94.8922 32.8807 95.2282 32.582C95.5642 32.2833 95.7322 31.756 95.7322 31V30.034C95.1909 30.7247 94.4349 31.07 93.4642 31.07C92.4749 31.07 91.7329 30.7527 91.2382 30.118C90.7529 29.4833 90.4962 28.6807 90.4682 27.71L90.4542 27.318L90.4682 26.94C90.4962 25.9787 90.7529 25.1807 91.2382 24.546C91.7329 23.902 92.4749 23.58 93.4642 23.58C94.4442 23.58 95.2095 23.9393 95.7602 24.658V24.056C95.7602 23.9627 95.7882 23.8833 95.8442 23.818C95.9095 23.7527 95.9889 23.72 96.0822 23.72H96.6842C96.7775 23.72 96.8522 23.7527 96.9082 23.818C96.9735 23.8833 97.0062 23.9627 97.0062 24.056V30.846C97.0062 33.002 95.9189 34.08 93.7442 34.08ZM93.7162 29.978C94.3695 29.978 94.8595 29.768 95.1862 29.348C95.5222 28.9187 95.7042 28.4053 95.7322 27.808C95.7415 27.724 95.7462 27.5607 95.7462 27.318C95.7462 27.0847 95.7415 26.926 95.7322 26.842C95.7042 26.2447 95.5222 25.736 95.1862 25.316C94.8595 24.8867 94.3695 24.672 93.7162 24.672C93.0442 24.672 92.5542 24.8867 92.2462 25.316C91.9475 25.736 91.7842 26.282 91.7562 26.954L91.7422 27.318L91.7562 27.696C91.7842 28.368 91.9475 28.9187 92.2462 29.348C92.5542 29.768 93.0442 29.978 93.7162 29.978Z" fill="black"/>
<path d="M102 31.14C101.048 31.14 100.288 30.846 99.7184 30.258C99.149 29.6607 98.8364 28.8487 98.7804 27.822L98.7664 27.346L98.7804 26.884C98.8364 25.876 99.149 25.0733 99.7184 24.476C100.288 23.8787 101.048 23.58 102 23.58C103.027 23.58 103.82 23.9067 104.38 24.56C104.95 25.2133 105.234 26.1 105.234 27.22V27.472C105.234 27.5653 105.202 27.6447 105.136 27.71C105.08 27.766 105.006 27.794 104.912 27.794H100.054V27.92C100.082 28.5267 100.269 29.0447 100.614 29.474C100.96 29.9033 101.417 30.118 101.986 30.118C102.425 30.118 102.78 30.034 103.05 29.866C103.33 29.6887 103.54 29.5067 103.68 29.32C103.764 29.208 103.83 29.1427 103.876 29.124C103.923 29.096 104.002 29.082 104.114 29.082H104.73C104.814 29.082 104.884 29.1053 104.94 29.152C105.006 29.1987 105.038 29.2593 105.038 29.334C105.038 29.5393 104.912 29.7867 104.66 30.076C104.408 30.3653 104.049 30.6173 103.582 30.832C103.125 31.0373 102.598 31.14 102 31.14ZM103.96 26.842V26.8C103.96 26.1467 103.783 25.6147 103.428 25.204C103.074 24.7933 102.598 24.588 102 24.588C101.394 24.588 100.918 24.7933 100.572 25.204C100.227 25.6147 100.054 26.1467 100.054 26.8V26.842H103.96Z" fill="black"/>
<path d="M111.172 31C111.079 31 111 30.972 110.934 30.916C110.878 30.8507 110.85 30.7713 110.85 30.678V24.798H109.646C109.553 24.798 109.474 24.77 109.408 24.714C109.352 24.658 109.324 24.5833 109.324 24.49V24.042C109.324 23.9487 109.352 23.874 109.408 23.818C109.474 23.7527 109.553 23.72 109.646 23.72H110.85V23.02C110.85 22.264 111.032 21.6807 111.396 21.27C111.77 20.85 112.376 20.64 113.216 20.64H114.042C114.136 20.64 114.21 20.6727 114.266 20.738C114.332 20.794 114.364 20.8687 114.364 20.962V21.41C114.364 21.5033 114.332 21.578 114.266 21.634C114.21 21.69 114.136 21.718 114.042 21.718H113.244C112.815 21.718 112.516 21.83 112.348 22.054C112.18 22.278 112.096 22.6233 112.096 23.09V23.72H113.902C113.996 23.72 114.07 23.7527 114.126 23.818C114.192 23.874 114.224 23.9487 114.224 24.042V24.49C114.224 24.5833 114.192 24.658 114.126 24.714C114.07 24.77 113.996 24.798 113.902 24.798H112.096V30.678C112.096 30.7713 112.064 30.8507 111.998 30.916C111.942 30.972 111.868 31 111.774 31H111.172Z" fill="black"/>
<path d="M118.285 31.14C117.259 31.14 116.465 30.8507 115.905 30.272C115.355 29.6933 115.061 28.9233 115.023 27.962L115.009 27.36L115.023 26.758C115.061 25.7967 115.359 25.0267 115.919 24.448C116.489 23.8693 117.277 23.58 118.285 23.58C119.293 23.58 120.077 23.8693 120.637 24.448C121.207 25.0267 121.51 25.7967 121.547 26.758C121.566 26.9633 121.575 27.164 121.575 27.36C121.575 27.556 121.566 27.7567 121.547 27.962C121.51 28.9233 121.211 29.6933 120.651 30.272C120.101 30.8507 119.312 31.14 118.285 31.14ZM118.285 30.09C118.883 30.09 119.354 29.9033 119.699 29.53C120.054 29.1473 120.245 28.6013 120.273 27.892C120.283 27.7987 120.287 27.6213 120.287 27.36C120.287 27.0987 120.283 26.9213 120.273 26.828C120.245 26.1187 120.054 25.5773 119.699 25.204C119.354 24.8213 118.883 24.63 118.285 24.63C117.688 24.63 117.212 24.8213 116.857 25.204C116.512 25.5773 116.325 26.1187 116.297 26.828L116.283 27.36L116.297 27.892C116.325 28.6013 116.512 29.1473 116.857 29.53C117.212 29.9033 117.688 30.09 118.285 30.09Z" fill="black"/>
<path d="M123.665 31C123.572 31 123.492 30.972 123.427 30.916C123.371 30.8507 123.343 30.7713 123.343 30.678V24.056C123.343 23.9627 123.371 23.8833 123.427 23.818C123.492 23.7527 123.572 23.72 123.665 23.72H124.253C124.356 23.72 124.435 23.7527 124.491 23.818C124.556 23.874 124.589 23.9533 124.589 24.056V24.672C124.972 24.0373 125.62 23.72 126.535 23.72H127.081C127.184 23.72 127.263 23.748 127.319 23.804C127.375 23.86 127.403 23.9393 127.403 24.042V24.56C127.403 24.6533 127.375 24.7327 127.319 24.798C127.263 24.854 127.184 24.882 127.081 24.882H126.283C125.77 24.882 125.364 25.0313 125.065 25.33C124.776 25.6287 124.631 26.0347 124.631 26.548V30.678C124.631 30.7713 124.598 30.8507 124.533 30.916C124.468 30.972 124.388 31 124.295 31H123.665Z" fill="black"/>
<path d="M24.732 52.14C23.4906 52.14 22.5433 51.804 21.89 51.132C21.246 50.4507 20.9006 49.522 20.854 48.346C20.8446 48.094 20.84 47.6833 20.84 47.114C20.84 46.5353 20.8446 46.1153 20.854 45.854C20.9006 44.678 21.246 43.754 21.89 43.082C22.5433 42.4007 23.4906 42.06 24.732 42.06C25.5626 42.06 26.2673 42.2093 26.846 42.508C27.4246 42.7973 27.8586 43.18 28.148 43.656C28.4466 44.132 28.61 44.6407 28.638 45.182C28.638 45.266 28.6053 45.336 28.54 45.392C28.484 45.4387 28.414 45.462 28.33 45.462H27.63C27.5366 45.462 27.462 45.4387 27.406 45.392C27.35 45.3453 27.308 45.266 27.28 45.154C27.1213 44.4353 26.832 43.9313 26.412 43.642C26.0013 43.3527 25.4413 43.208 24.732 43.208C23.108 43.208 22.2633 44.1133 22.198 45.924C22.1886 46.176 22.184 46.5633 22.184 47.086C22.184 47.6087 22.1886 48.0053 22.198 48.276C22.2633 50.0773 23.108 50.978 24.732 50.978C25.432 50.978 25.992 50.8333 26.412 50.544C26.832 50.2547 27.1213 49.7553 27.28 49.046C27.308 48.934 27.35 48.8547 27.406 48.808C27.462 48.7613 27.5366 48.738 27.63 48.738H28.33C28.414 48.738 28.484 48.766 28.54 48.822C28.6053 48.8687 28.638 48.934 28.638 49.018C28.61 49.5593 28.4466 50.068 28.148 50.544C27.8586 51.02 27.4246 51.4073 26.846 51.706C26.2673 51.9953 25.5626 52.14 24.732 52.14Z" fill="black"/>
<path d="M34.0425 52.14C32.8292 52.14 31.8912 51.8227 31.2285 51.188C30.5658 50.544 30.2158 49.578 30.1785 48.29C30.1692 48.01 30.1645 47.6133 30.1645 47.1C30.1645 46.5867 30.1692 46.1947 30.1785 45.924C30.2158 44.6547 30.5752 43.6933 31.2565 43.04C31.9472 42.3867 32.8758 42.06 34.0425 42.06C35.2092 42.06 36.1332 42.3867 36.8145 43.04C37.4958 43.6933 37.8552 44.6547 37.8925 45.924C37.9112 46.4653 37.9205 46.8573 37.9205 47.1C37.9205 47.3333 37.9112 47.73 37.8925 48.29C37.8552 49.578 37.5052 50.544 36.8425 51.188C36.1892 51.8227 35.2558 52.14 34.0425 52.14ZM34.0425 50.978C34.7892 50.978 35.3865 50.754 35.8345 50.306C36.2825 49.8487 36.5252 49.1533 36.5625 48.22C36.5812 47.66 36.5905 47.2867 36.5905 47.1C36.5905 46.8947 36.5812 46.5213 36.5625 45.98C36.5252 45.0467 36.2825 44.3513 35.8345 43.894C35.3865 43.4367 34.7892 43.208 34.0425 43.208C33.2958 43.208 32.6938 43.4367 32.2365 43.894C31.7885 44.3513 31.5505 45.0467 31.5225 45.98C31.5132 46.2507 31.5085 46.624 31.5085 47.1C31.5085 47.5667 31.5132 47.94 31.5225 48.22C31.5505 49.1533 31.7885 49.8487 32.2365 50.306C32.6845 50.754 33.2865 50.978 34.0425 50.978Z" fill="black"/>
<path d="M42.6283 52C42.3857 52 42.2177 51.8787 42.1243 51.636L38.9743 42.634L38.9463 42.48C38.9463 42.4053 38.9743 42.34 39.0303 42.284C39.0957 42.228 39.1657 42.2 39.2403 42.2H39.9123C40.015 42.2 40.0943 42.228 40.1503 42.284C40.2157 42.3307 40.2577 42.3867 40.2763 42.452L43.0483 50.46L45.8343 42.452C45.853 42.3867 45.8903 42.3307 45.9463 42.284C46.0117 42.228 46.0957 42.2 46.1983 42.2H46.8703C46.945 42.2 47.0103 42.228 47.0663 42.284C47.1223 42.34 47.1503 42.4053 47.1503 42.48C47.1503 42.5453 47.1457 42.5967 47.1363 42.634L43.9863 51.636C43.893 51.8787 43.725 52 43.4823 52H42.6283Z" fill="black"/>
<path d="M49.1708 52C49.0775 52 49.0028 51.972 48.9468 51.916C48.8908 51.8507 48.8628 51.7713 48.8628 51.678V42.522C48.8628 42.4287 48.8908 42.354 48.9468 42.298C49.0028 42.2327 49.0775 42.2 49.1708 42.2H49.8708C49.9735 42.2 50.0528 42.228 50.1088 42.284C50.1648 42.34 50.1928 42.4193 50.1928 42.522V51.678C50.1928 51.7713 50.1602 51.8507 50.0948 51.916C50.0388 51.972 49.9642 52 49.8708 52H49.1708Z" fill="black"/>
<path d="M52.9716 52C52.8783 52 52.8036 51.972 52.7476 51.916C52.6916 51.8507 52.6636 51.7713 52.6636 51.678V42.536C52.6636 42.4333 52.6916 42.354 52.7476 42.298C52.8036 42.2327 52.8783 42.2 52.9716 42.2H56.1356C57.5449 42.2 58.5623 42.5173 59.1876 43.152C59.8129 43.7773 60.1349 44.7247 60.1536 45.994C60.1629 46.2647 60.1676 46.6287 60.1676 47.086C60.1676 47.5433 60.1629 47.912 60.1536 48.192C60.1349 49.0787 59.9903 49.802 59.7196 50.362C59.4583 50.9127 59.0429 51.3233 58.4736 51.594C57.9043 51.8647 57.1483 52 56.2056 52H52.9716ZM56.1356 50.838C56.7889 50.838 57.3069 50.7493 57.6896 50.572C58.0816 50.3853 58.3616 50.1007 58.5296 49.718C58.7069 49.326 58.8049 48.7987 58.8236 48.136C58.8423 47.576 58.8516 47.226 58.8516 47.086C58.8516 46.9367 58.8423 46.5913 58.8236 46.05C58.8049 45.1167 58.5809 44.4353 58.1516 44.006C57.7316 43.5673 57.0363 43.348 56.0656 43.348H53.9796V50.838H56.1356Z" fill="black"/>
<path d="M62.3583 48.36C62.2649 48.36 62.1856 48.332 62.1203 48.276C62.0643 48.22 62.0363 48.1453 62.0363 48.052V47.548C62.0363 47.4547 62.0643 47.38 62.1203 47.324C62.1856 47.2587 62.2649 47.226 62.3583 47.226H66.5583C66.6516 47.226 66.7263 47.2587 66.7823 47.324C66.8476 47.38 66.8803 47.4547 66.8803 47.548V48.052C66.8803 48.1453 66.8476 48.22 66.7823 48.276C66.7263 48.332 66.6516 48.36 66.5583 48.36H62.3583Z" fill="black"/>
<path d="M71.196 52C71.1027 52 71.028 51.972 70.972 51.916C70.916 51.8507 70.888 51.7713 70.888 51.678V43.782L68.536 45.588C68.4707 45.644 68.4007 45.672 68.326 45.672C68.242 45.672 68.1627 45.6253 68.088 45.532L67.752 45.098C67.7053 45.0327 67.682 44.9673 67.682 44.902C67.682 44.7993 67.7287 44.7153 67.822 44.65L70.86 42.298C70.9627 42.2327 71.084 42.2 71.224 42.2H71.882C71.9753 42.2 72.05 42.2327 72.106 42.298C72.1713 42.354 72.204 42.4287 72.204 42.522V51.678C72.204 51.7713 72.1713 51.8507 72.106 51.916C72.05 51.972 71.9753 52 71.882 52H71.196Z" fill="black"/>
<path d="M75.9953 52C75.9113 52 75.8413 51.972 75.7853 51.916C75.7386 51.8507 75.7153 51.776 75.7153 51.692C75.7153 51.6267 75.7339 51.566 75.7713 51.51L77.9273 48.514C77.7033 48.57 77.4419 48.598 77.1433 48.598C76.4713 48.5887 75.8833 48.4347 75.3793 48.136C74.8753 47.828 74.4879 47.4313 74.2173 46.946C73.9559 46.4513 73.8253 45.924 73.8253 45.364C73.8253 44.804 73.9559 44.272 74.2173 43.768C74.4879 43.264 74.8846 42.8533 75.4073 42.536C75.9393 42.2187 76.5786 42.06 77.3253 42.06C78.0719 42.06 78.7113 42.214 79.2433 42.522C79.7753 42.83 80.1766 43.236 80.4473 43.74C80.7179 44.2347 80.8533 44.7667 80.8533 45.336C80.8533 45.8493 80.7599 46.302 80.5733 46.694C80.3959 47.086 80.1579 47.492 79.8593 47.912L77.1433 51.72C77.0779 51.804 77.0126 51.874 76.9473 51.93C76.8913 51.9767 76.8073 52 76.6953 52H75.9953ZM77.3253 47.492C77.7266 47.492 78.0953 47.4033 78.4313 47.226C78.7673 47.0487 79.0333 46.8013 79.2293 46.484C79.4253 46.1573 79.5233 45.784 79.5233 45.364C79.5233 44.9347 79.4253 44.5567 79.2293 44.23C79.0333 43.9033 78.7673 43.6513 78.4313 43.474C78.0953 43.2967 77.7266 43.208 77.3253 43.208C76.9333 43.208 76.5693 43.2967 76.2333 43.474C75.9066 43.6513 75.6453 43.9033 75.4493 44.23C75.2533 44.5567 75.1553 44.9347 75.1553 45.364C75.1553 45.784 75.2533 46.1573 75.4493 46.484C75.6453 46.8013 75.9066 47.0487 76.2333 47.226C76.5599 47.4033 76.9239 47.492 77.3253 47.492Z" fill="black"/>
<path d="M150.128 82.7325C150.688 82.7851 151.077 83.3076 150.978 83.8633L148.993 96.1492C148.76 97.4093 147.92 98.4636 146.757 98.9666L143.091 100.802C142.375 101.113 141.567 101.113 140.851 100.802L137.185 98.9666C136.022 98.4636 135.182 97.4093 134.949 96.1492L132.964 83.8633C132.865 83.3076 133.254 82.7851 133.814 82.7325L136.777 82.4595C137.584 82.3874 138.064 82.1431 138.766 81.7503L141.51 80.0732C141.795 79.915 142.147 79.915 142.432 80.0732L145.176 81.7503C145.878 82.1431 146.657 82.3874 147.459 82.4595L150.128 82.7325Z" fill="#C3B3F4"/>
<path d="M140.851 100.802L137.185 98.9666C136.022 98.4636 135.182 97.4093 134.949 96.1492L132.964 83.8633C132.865 83.3076 133.254 82.7851 133.814 82.7325L136.777 82.4595C137.584 82.3874 138.064 82.1431 138.766 81.7503L141.51 80.0732C141.795 79.9151 132 87.6201 140.851 100.802Z" fill="#EAE4FE"/>
<path fill-rule="evenodd" clip-rule="evenodd" d="M136.785 99.8363C135.339 99.2006 134.305 97.8899 134.016 96.3244L132.029 84.0242C131.937 83.4978 132.067 82.9534 132.387 82.5282C132.707 82.1015 133.196 81.8277 133.726 81.7779L136.691 81.5049C137.291 81.4513 137.627 81.2913 138.306 80.9118L141.017 79.2532C141.618 78.9193 142.321 78.9188 142.888 79.233L145.666 80.9302C146.223 81.2407 146.882 81.4459 147.542 81.5049L150.222 81.7788C150.745 81.8282 151.233 82.1015 151.554 82.5282C151.876 82.9557 152.006 83.5048 151.911 84.0338L149.929 96.3029C149.637 97.8894 148.602 99.2006 147.155 99.8363L143.513 101.66C143.497 101.668 143.482 101.675 143.466 101.682C142.991 101.888 142.48 101.992 141.97 101.992C141.46 101.992 140.95 101.888 140.475 101.682C140.459 101.675 140.444 101.668 140.428 101.66L136.785 99.8363ZM139.258 82.5701C138.46 83.0165 137.842 83.3265 136.86 83.4138L133.901 83.6859C133.902 83.6886 133.902 83.6928 133.902 83.6971C133.902 83.7014 133.902 83.7057 133.902 83.7086L135.887 95.9943C136.057 96.9173 136.684 97.7065 137.56 98.0855C137.576 98.0927 137.592 98.0998 137.608 98.1079L141.248 99.9303C141.715 100.127 142.228 100.127 142.695 99.9303L146.335 98.1079C146.351 98.0998 146.367 98.0927 146.383 98.0855C147.259 97.7069 147.886 96.9173 148.06 95.9732L150.041 83.7091L147.364 83.4124C146.454 83.331 145.534 83.0458 144.716 82.5881L141.971 80.9118L139.258 82.5701Z" fill="#6650AB"/>
<path d="M140.825 94.0474C141.01 94.2348 141.253 94.3284 141.496 94.3284C141.739 94.3284 141.982 94.2348 142.168 94.0474L146.915 89.2558C147.286 88.8816 147.286 88.275 146.915 87.9008C146.545 87.5265 145.943 87.5265 145.573 87.9008L141.496 92.0145L139.319 89.8175C138.948 89.4432 138.347 89.4432 137.976 89.8175C137.605 90.1916 137.605 90.7983 137.976 91.1724L140.825 94.0474Z" fill="#6650AB"/>
</svg>
