<svg width="173" height="112" viewBox="0 0 173 112" fill="none" xmlns="http://www.w3.org/2000/svg">
<rect width="172" height="112" rx="4" fill="#F3EDFF"/>
<path d="M171.647 50.7447C171.647 50.7447 171.518 58.9509 172 63.5C172.371 67.0001 171.856 99.2399 171.693 108.825C171.668 110.318 170.45 111.5 168.956 111.5H143C145.722 105.057 117.774 92.1084 117.048 75.1445C116.322 58.1806 123.843 47.6936 137.857 42.2034C151.871 36.7132 163.762 42.2034 171.647 50.7447Z" fill="#E8DDFF"/>
<path d="M106.08 21.9701C116.678 15.9674 117 0 117 0L0 0C0 0 0 55.6119 0 61.791C3.11999 67.6269 10.53 69 21.8399 69C33.1499 69 48.7498 67.2836 56.5498 51.4925C64.3498 35.7015 61.6677 31.6508 72.1497 25.403C82.6317 19.1552 95.4816 27.9729 106.08 21.9701Z" fill="#E8DDFF"/>
<path d="M21.54 25C21.4466 25 21.372 24.972 21.316 24.916C21.26 24.8507 21.232 24.7713 21.232 24.678V15.536C21.232 15.4333 21.26 15.354 21.316 15.298C21.372 15.2327 21.4466 15.2 21.54 15.2H25.082C26.1366 15.2 26.9626 15.4567 27.56 15.97C28.1666 16.474 28.47 17.2113 28.47 18.182C28.47 19.1527 28.1666 19.89 27.56 20.394C26.9626 20.898 26.1366 21.15 25.082 21.15H22.562V24.678C22.562 24.7713 22.5293 24.8507 22.464 24.916C22.408 24.972 22.3333 25 22.24 25H21.54ZM25.012 20.016C26.4213 20.016 27.126 19.4047 27.126 18.182C27.126 17.5847 26.9486 17.1273 26.594 16.81C26.2486 16.4927 25.7213 16.334 25.012 16.334H22.562V20.016H25.012Z" fill="black"/>
<path d="M30.3407 25C30.2474 25 30.168 24.972 30.1027 24.916C30.0467 24.8507 30.0187 24.7713 30.0187 24.678V18.056C30.0187 17.9627 30.0467 17.8833 30.1027 17.818C30.168 17.7527 30.2474 17.72 30.3407 17.72H30.9287C31.0314 17.72 31.1107 17.7527 31.1667 17.818C31.232 17.874 31.2647 17.9533 31.2647 18.056V18.672C31.6474 18.0373 32.296 17.72 33.2107 17.72H33.7567C33.8594 17.72 33.9387 17.748 33.9947 17.804C34.0507 17.86 34.0787 17.9393 34.0787 18.042V18.56C34.0787 18.6533 34.0507 18.7327 33.9947 18.798C33.9387 18.854 33.8594 18.882 33.7567 18.882H32.9587C32.4454 18.882 32.0394 19.0313 31.7407 19.33C31.4514 19.6287 31.3067 20.0347 31.3067 20.548V24.678C31.3067 24.7713 31.274 24.8507 31.2087 24.916C31.1434 24.972 31.064 25 30.9707 25H30.3407Z" fill="black"/>
<path d="M38.0297 25.14C37.0777 25.14 36.317 24.846 35.7477 24.258C35.1783 23.6607 34.8657 22.8487 34.8097 21.822L34.7957 21.346L34.8097 20.884C34.8657 19.876 35.1783 19.0733 35.7477 18.476C36.317 17.8787 37.0777 17.58 38.0297 17.58C39.0563 17.58 39.8497 17.9067 40.4097 18.56C40.979 19.2133 41.2637 20.1 41.2637 21.22V21.472C41.2637 21.5653 41.231 21.6447 41.1657 21.71C41.1097 21.766 41.035 21.794 40.9417 21.794H36.0837V21.92C36.1117 22.5267 36.2983 23.0447 36.6437 23.474C36.989 23.9033 37.4463 24.118 38.0157 24.118C38.4543 24.118 38.809 24.034 39.0797 23.866C39.3597 23.6887 39.5697 23.5067 39.7097 23.32C39.7937 23.208 39.859 23.1427 39.9057 23.124C39.9523 23.096 40.0317 23.082 40.1437 23.082H40.7597C40.8437 23.082 40.9137 23.1053 40.9697 23.152C41.035 23.1987 41.0677 23.2593 41.0677 23.334C41.0677 23.5393 40.9417 23.7867 40.6897 24.076C40.4377 24.3653 40.0783 24.6173 39.6117 24.832C39.1543 25.0373 38.627 25.14 38.0297 25.14ZM39.9897 20.842V20.8C39.9897 20.1467 39.8123 19.6147 39.4577 19.204C39.103 18.7933 38.627 18.588 38.0297 18.588C37.423 18.588 36.947 18.7933 36.6017 19.204C36.2563 19.6147 36.0837 20.1467 36.0837 20.8V20.842H39.9897Z" fill="black"/>
<path d="M48.4273 25.14C47.9699 25.14 47.5453 25.0467 47.1533 24.86C46.7706 24.6733 46.4626 24.4213 46.2293 24.104C46.0053 23.7773 45.8933 23.418 45.8933 23.026C45.8933 22.41 46.1453 21.906 46.6493 21.514C47.1533 21.122 47.8393 20.8607 48.7073 20.73L50.8073 20.436V20.03C50.8073 19.0687 50.2519 18.588 49.1413 18.588C48.7119 18.588 48.3666 18.6767 48.1053 18.854C47.8439 19.022 47.6526 19.2227 47.5313 19.456C47.4939 19.5493 47.4519 19.6147 47.4053 19.652C47.3679 19.68 47.3119 19.694 47.2373 19.694H46.6913C46.6073 19.694 46.5326 19.666 46.4673 19.61C46.4113 19.5447 46.3833 19.47 46.3833 19.386C46.3833 19.1713 46.4813 18.924 46.6773 18.644C46.8826 18.3547 47.1953 18.1073 47.6153 17.902C48.0353 17.6873 48.5486 17.58 49.1553 17.58C50.2006 17.58 50.9473 17.8227 51.3953 18.308C51.8526 18.7933 52.0813 19.4 52.0813 20.128V24.678C52.0813 24.7713 52.0486 24.8507 51.9833 24.916C51.9273 24.972 51.8526 25 51.7593 25H51.1433C51.0499 25 50.9753 24.972 50.9193 24.916C50.8633 24.8507 50.8353 24.7713 50.8353 24.678V24.062C50.6299 24.37 50.3313 24.6267 49.9393 24.832C49.5473 25.0373 49.0433 25.14 48.4273 25.14ZM48.7073 24.118C49.3233 24.118 49.8273 23.9173 50.2193 23.516C50.6113 23.1147 50.8073 22.5313 50.8073 21.766V21.374L49.1693 21.612C48.4973 21.7053 47.9886 21.864 47.6433 22.088C47.2979 22.312 47.1253 22.592 47.1253 22.928C47.1253 23.3107 47.2793 23.6047 47.5873 23.81C47.9046 24.0153 48.2779 24.118 48.7073 24.118Z" fill="black"/>
<path d="M54.4305 25C54.3372 25 54.2579 24.972 54.1925 24.916C54.1365 24.8507 54.1085 24.7713 54.1085 24.678V18.042C54.1085 17.9487 54.1365 17.874 54.1925 17.818C54.2579 17.7527 54.3372 17.72 54.4305 17.72H55.0325C55.1352 17.72 55.2145 17.748 55.2705 17.804C55.3265 17.86 55.3545 17.9393 55.3545 18.042V18.658C55.6345 18.3127 55.9565 18.0467 56.3205 17.86C56.6939 17.6733 57.1559 17.58 57.7065 17.58C58.6025 17.58 59.2979 17.8693 59.7925 18.448C60.2872 19.0173 60.5345 19.7733 60.5345 20.716V24.678C60.5345 24.7713 60.5019 24.8507 60.4365 24.916C60.3805 24.972 60.3059 25 60.2125 25H59.5685C59.4752 25 59.3959 24.972 59.3305 24.916C59.2745 24.8507 59.2465 24.7713 59.2465 24.678V20.8C59.2465 20.128 59.0832 19.6053 58.7565 19.232C58.4299 18.8587 57.9632 18.672 57.3565 18.672C56.7592 18.672 56.2832 18.8633 55.9285 19.246C55.5739 19.6193 55.3965 20.1373 55.3965 20.8V24.678C55.3965 24.7713 55.3639 24.8507 55.2985 24.916C55.2425 24.972 55.1679 25 55.0745 25H54.4305Z" fill="black"/>
<path d="M65.2178 25.14C64.2378 25.14 63.5004 24.8227 63.0058 24.188C62.5204 23.5533 62.2591 22.7507 62.2218 21.78L62.2078 21.36L62.2218 20.94C62.2591 19.9787 62.5251 19.1807 63.0198 18.546C63.5144 17.902 64.2471 17.58 65.2178 17.58C66.1884 17.58 66.9444 17.9253 67.4858 18.616V15.382C67.4858 15.2887 67.5138 15.214 67.5698 15.158C67.6351 15.0927 67.7144 15.06 67.8078 15.06H68.4378C68.5311 15.06 68.6058 15.0927 68.6618 15.158C68.7271 15.214 68.7598 15.2887 68.7598 15.382V24.678C68.7598 24.7713 68.7271 24.8507 68.6618 24.916C68.6058 24.972 68.5311 25 68.4378 25H67.8358C67.7424 25 67.6678 24.972 67.6118 24.916C67.5558 24.8507 67.5278 24.7713 67.5278 24.678V24.076C66.9958 24.7853 66.2258 25.14 65.2178 25.14ZM65.4838 24.048C66.1371 24.048 66.6271 23.8333 66.9538 23.404C67.2804 22.9653 67.4578 22.4473 67.4858 21.85C67.4951 21.7473 67.4998 21.57 67.4998 21.318C67.4998 21.0567 67.4951 20.8747 67.4858 20.772C67.4671 20.2027 67.2851 19.7127 66.9398 19.302C66.6038 18.882 66.1184 18.672 65.4838 18.672C64.8118 18.672 64.3218 18.882 64.0138 19.302C63.7058 19.722 63.5378 20.2727 63.5098 20.954L63.4958 21.36C63.4958 23.152 64.1584 24.048 65.4838 24.048Z" fill="black"/>
<path d="M74.6516 27.66C74.5582 27.66 74.4789 27.632 74.4136 27.576C74.3576 27.52 74.3296 27.4407 74.3296 27.338V18.042C74.3296 17.9393 74.3576 17.86 74.4136 17.804C74.4789 17.748 74.5582 17.72 74.6516 17.72H75.2396C75.3422 17.72 75.4216 17.748 75.4776 17.804C75.5336 17.86 75.5616 17.9393 75.5616 18.042V18.658C76.1029 17.9393 76.8729 17.58 77.8716 17.58C78.8516 17.58 79.5842 17.8927 80.0696 18.518C80.5642 19.134 80.8256 19.9227 80.8536 20.884C80.8629 20.9867 80.8676 21.1453 80.8676 21.36C80.8676 21.5747 80.8629 21.7333 80.8536 21.836C80.8256 22.788 80.5642 23.5767 80.0696 24.202C79.5842 24.8273 78.8516 25.14 77.8716 25.14C76.8729 25.14 76.1169 24.7853 75.6036 24.076V27.338C75.6036 27.4313 75.5709 27.506 75.5056 27.562C75.4496 27.6273 75.3749 27.66 75.2816 27.66H74.6516ZM77.6056 24.048C78.2776 24.048 78.7676 23.838 79.0756 23.418C79.3836 22.998 79.5516 22.4473 79.5796 21.766C79.5889 21.6727 79.5936 21.5373 79.5936 21.36C79.5936 19.568 78.9309 18.672 77.6056 18.672C76.9522 18.672 76.4576 18.8913 76.1216 19.33C75.7949 19.7593 75.6222 20.268 75.6036 20.856C75.5942 20.9587 75.5896 21.1407 75.5896 21.402C75.5896 21.6633 75.5942 21.8453 75.6036 21.948C75.6222 22.5173 75.7996 23.012 76.1356 23.432C76.4809 23.8427 76.9709 24.048 77.6056 24.048Z" fill="black"/>
<path d="M85.5821 25.14C84.5554 25.14 83.7621 24.8507 83.2021 24.272C82.6514 23.6933 82.3574 22.9233 82.3201 21.962L82.3061 21.36L82.3201 20.758C82.3574 19.7967 82.6561 19.0267 83.2161 18.448C83.7854 17.8693 84.5741 17.58 85.5821 17.58C86.5901 17.58 87.3741 17.8693 87.9341 18.448C88.5034 19.0267 88.8067 19.7967 88.8441 20.758C88.8627 20.9633 88.8721 21.164 88.8721 21.36C88.8721 21.556 88.8627 21.7567 88.8441 21.962C88.8067 22.9233 88.5081 23.6933 87.9481 24.272C87.3974 24.8507 86.6087 25.14 85.5821 25.14ZM85.5821 24.09C86.1794 24.09 86.6507 23.9033 86.9961 23.53C87.3507 23.1473 87.5421 22.6013 87.5701 21.892C87.5794 21.7987 87.5841 21.6213 87.5841 21.36C87.5841 21.0987 87.5794 20.9213 87.5701 20.828C87.5421 20.1187 87.3507 19.5773 86.9961 19.204C86.6507 18.8213 86.1794 18.63 85.5821 18.63C84.9847 18.63 84.5087 18.8213 84.1541 19.204C83.8087 19.5773 83.6221 20.1187 83.5941 20.828L83.5801 21.36L83.5941 21.892C83.6221 22.6013 83.8087 23.1473 84.1541 23.53C84.5087 23.9033 84.9847 24.09 85.5821 24.09Z" fill="black"/>
<path d="M93.1318 25.14C92.4878 25.14 91.9418 25.0373 91.4938 24.832C91.0551 24.6173 90.7285 24.3747 90.5138 24.104C90.2991 23.8333 90.1918 23.6093 90.1918 23.432C90.1918 23.3387 90.2245 23.2687 90.2898 23.222C90.3551 23.166 90.4251 23.138 90.4998 23.138H91.0878C91.1438 23.138 91.1858 23.1473 91.2138 23.166C91.2511 23.1847 91.2978 23.2267 91.3538 23.292C91.5685 23.5533 91.8065 23.7587 92.0678 23.908C92.3385 24.0573 92.6978 24.132 93.1458 24.132C93.6498 24.132 94.0511 24.0387 94.3498 23.852C94.6578 23.6653 94.8118 23.3947 94.8118 23.04C94.8118 22.8067 94.7465 22.62 94.6158 22.48C94.4851 22.34 94.2658 22.214 93.9578 22.102C93.6591 21.99 93.2111 21.8687 92.6138 21.738C91.8018 21.5607 91.2278 21.304 90.8918 20.968C90.5558 20.632 90.3878 20.198 90.3878 19.666C90.3878 19.3207 90.4905 18.9893 90.6958 18.672C90.9011 18.3453 91.2045 18.084 91.6058 17.888C92.0165 17.6827 92.5018 17.58 93.0618 17.58C93.6498 17.58 94.1491 17.678 94.5598 17.874C94.9798 18.07 95.2925 18.2987 95.4978 18.56C95.7125 18.8213 95.8198 19.0407 95.8198 19.218C95.8198 19.302 95.7871 19.372 95.7218 19.428C95.6658 19.484 95.5958 19.512 95.5118 19.512H94.9798C94.8491 19.512 94.7558 19.4607 94.6998 19.358C94.5411 19.1807 94.4058 19.0453 94.2938 18.952C94.1911 18.8493 94.0371 18.7653 93.8318 18.7C93.6265 18.6253 93.3698 18.588 93.0618 18.588C92.6045 18.588 92.2545 18.686 92.0118 18.882C91.7691 19.0687 91.6478 19.3207 91.6478 19.638C91.6478 19.834 91.6991 20.002 91.8018 20.142C91.9045 20.2727 92.1005 20.3987 92.3898 20.52C92.6791 20.632 93.1085 20.7487 93.6778 20.87C94.5645 21.0567 95.1898 21.3227 95.5538 21.668C95.9271 22.0133 96.1138 22.4567 96.1138 22.998C96.1138 23.3993 95.9971 23.7633 95.7638 24.09C95.5398 24.4167 95.1991 24.6733 94.7418 24.86C94.2938 25.0467 93.7571 25.14 93.1318 25.14Z" fill="black"/>
<path d="M100.535 25C99.0888 25 98.3655 24.1833 98.3655 22.55V18.798H97.2595C97.1662 18.798 97.0915 18.77 97.0355 18.714C96.9795 18.658 96.9515 18.5833 96.9515 18.49V18.042C96.9515 17.9487 96.9795 17.874 97.0355 17.818C97.0915 17.7527 97.1662 17.72 97.2595 17.72H98.3655V15.382C98.3655 15.2887 98.3935 15.214 98.4495 15.158C98.5055 15.0927 98.5802 15.06 98.6735 15.06H99.2895C99.3828 15.06 99.4575 15.0927 99.5135 15.158C99.5788 15.214 99.6115 15.2887 99.6115 15.382V17.72H101.348C101.441 17.72 101.516 17.7527 101.572 17.818C101.637 17.874 101.67 17.9487 101.67 18.042V18.49C101.67 18.5833 101.637 18.658 101.572 18.714C101.516 18.77 101.441 18.798 101.348 18.798H99.6115V22.452C99.6115 22.928 99.6862 23.2873 99.8355 23.53C99.9942 23.7727 100.26 23.894 100.633 23.894H101.488C101.581 23.894 101.656 23.9267 101.712 23.992C101.768 24.048 101.796 24.1227 101.796 24.216V24.678C101.796 24.7713 101.768 24.8507 101.712 24.916C101.656 24.972 101.581 25 101.488 25H100.535Z" fill="black"/>
<path d="M21.386 46C21.2926 46 21.2133 45.972 21.148 45.916C21.092 45.8507 21.064 45.7713 21.064 45.678V36.382C21.064 36.2793 21.092 36.2 21.148 36.144C21.2133 36.088 21.2926 36.06 21.386 36.06H22.03C22.1326 36.06 22.212 36.088 22.268 36.144C22.324 36.2 22.352 36.2793 22.352 36.382V39.644C22.6226 39.2987 22.94 39.0373 23.304 38.86C23.6773 38.6733 24.1346 38.58 24.676 38.58C25.572 38.58 26.2673 38.8693 26.762 39.448C27.266 40.0173 27.518 40.7733 27.518 41.716V45.678C27.518 45.7713 27.4853 45.8507 27.42 45.916C27.364 45.972 27.2893 46 27.196 46H26.538C26.4446 46 26.3653 45.972 26.3 45.916C26.244 45.8507 26.216 45.7713 26.216 45.678V41.8C26.216 41.128 26.0526 40.6053 25.726 40.232C25.3993 39.8587 24.928 39.672 24.312 39.672C23.7146 39.672 23.2386 39.8633 22.884 40.246C22.5293 40.6193 22.352 41.1373 22.352 41.8V45.678C22.352 45.7713 22.3193 45.8507 22.254 45.916C22.198 45.972 22.1233 46 22.03 46H21.386Z" fill="black"/>
<path d="M32.5079 46.14C31.4812 46.14 30.6879 45.8507 30.1279 45.272C29.5772 44.6933 29.2832 43.9233 29.2459 42.962L29.2319 42.36L29.2459 41.758C29.2832 40.7967 29.5819 40.0267 30.1419 39.448C30.7112 38.8693 31.4999 38.58 32.5079 38.58C33.5159 38.58 34.2999 38.8693 34.8599 39.448C35.4292 40.0267 35.7325 40.7967 35.7699 41.758C35.7885 41.9633 35.7979 42.164 35.7979 42.36C35.7979 42.556 35.7885 42.7567 35.7699 42.962C35.7325 43.9233 35.4339 44.6933 34.8739 45.272C34.3232 45.8507 33.5345 46.14 32.5079 46.14ZM32.5079 45.09C33.1052 45.09 33.5765 44.9033 33.9219 44.53C34.2765 44.1473 34.4679 43.6013 34.4959 42.892C34.5052 42.7987 34.5099 42.6213 34.5099 42.36C34.5099 42.0987 34.5052 41.9213 34.4959 41.828C34.4679 41.1187 34.2765 40.5773 33.9219 40.204C33.5765 39.8213 33.1052 39.63 32.5079 39.63C31.9105 39.63 31.4345 39.8213 31.0799 40.204C30.7345 40.5773 30.5479 41.1187 30.5199 41.828L30.5059 42.36L30.5199 42.892C30.5479 43.6013 30.7345 44.1473 31.0799 44.53C31.4345 44.9033 31.9105 45.09 32.5079 45.09Z" fill="black"/>
<path d="M40.0576 46.14C39.4136 46.14 38.8676 46.0373 38.4196 45.832C37.9809 45.6173 37.6542 45.3747 37.4396 45.104C37.2249 44.8333 37.1176 44.6093 37.1176 44.432C37.1176 44.3387 37.1502 44.2687 37.2156 44.222C37.2809 44.166 37.3509 44.138 37.4256 44.138H38.0136C38.0696 44.138 38.1116 44.1473 38.1396 44.166C38.1769 44.1847 38.2236 44.2267 38.2796 44.292C38.4942 44.5533 38.7322 44.7587 38.9936 44.908C39.2642 45.0573 39.6236 45.132 40.0716 45.132C40.5756 45.132 40.9769 45.0387 41.2756 44.852C41.5836 44.6653 41.7376 44.3947 41.7376 44.04C41.7376 43.8067 41.6722 43.62 41.5416 43.48C41.4109 43.34 41.1916 43.214 40.8836 43.102C40.5849 42.99 40.1369 42.8687 39.5396 42.738C38.7276 42.5607 38.1536 42.304 37.8176 41.968C37.4816 41.632 37.3136 41.198 37.3136 40.666C37.3136 40.3207 37.4162 39.9893 37.6216 39.672C37.8269 39.3453 38.1302 39.084 38.5316 38.888C38.9422 38.6827 39.4276 38.58 39.9876 38.58C40.5756 38.58 41.0749 38.678 41.4856 38.874C41.9056 39.07 42.2182 39.2987 42.4236 39.56C42.6382 39.8213 42.7456 40.0407 42.7456 40.218C42.7456 40.302 42.7129 40.372 42.6476 40.428C42.5916 40.484 42.5216 40.512 42.4376 40.512H41.9056C41.7749 40.512 41.6816 40.4607 41.6256 40.358C41.4669 40.1807 41.3316 40.0453 41.2196 39.952C41.1169 39.8493 40.9629 39.7653 40.7576 39.7C40.5522 39.6253 40.2956 39.588 39.9876 39.588C39.5302 39.588 39.1802 39.686 38.9376 39.882C38.6949 40.0687 38.5736 40.3207 38.5736 40.638C38.5736 40.834 38.6249 41.002 38.7276 41.142C38.8302 41.2727 39.0262 41.3987 39.3156 41.52C39.6049 41.632 40.0342 41.7487 40.6036 41.87C41.4902 42.0567 42.1156 42.3227 42.4796 42.668C42.8529 43.0133 43.0396 43.4567 43.0396 43.998C43.0396 44.3993 42.9229 44.7633 42.6896 45.09C42.4656 45.4167 42.1249 45.6733 41.6676 45.86C41.2196 46.0467 40.6829 46.14 40.0576 46.14Z" fill="black"/>
<path d="M45.011 48.66C44.9176 48.66 44.8383 48.632 44.773 48.576C44.717 48.52 44.6889 48.4407 44.6889 48.338V39.042C44.6889 38.9393 44.717 38.86 44.773 38.804C44.8383 38.748 44.9176 38.72 45.011 38.72H45.599C45.7016 38.72 45.781 38.748 45.837 38.804C45.893 38.86 45.9209 38.9393 45.9209 39.042V39.658C46.4623 38.9393 47.2323 38.58 48.231 38.58C49.211 38.58 49.9436 38.8927 50.429 39.518C50.9236 40.134 51.185 40.9227 51.213 41.884C51.2223 41.9867 51.227 42.1453 51.227 42.36C51.227 42.5747 51.2223 42.7333 51.213 42.836C51.185 43.788 50.9236 44.5767 50.429 45.202C49.9436 45.8273 49.211 46.14 48.231 46.14C47.2323 46.14 46.4763 45.7853 45.9629 45.076V48.338C45.9629 48.4313 45.9303 48.506 45.865 48.562C45.809 48.6273 45.7343 48.66 45.641 48.66H45.011ZM47.965 45.048C48.637 45.048 49.1269 44.838 49.4349 44.418C49.743 43.998 49.911 43.4473 49.939 42.766C49.9483 42.6727 49.953 42.5373 49.953 42.36C49.953 40.568 49.2903 39.672 47.965 39.672C47.3116 39.672 46.817 39.8913 46.481 40.33C46.1543 40.7593 45.9816 41.268 45.9629 41.856C45.9536 41.9587 45.9489 42.1407 45.9489 42.402C45.9489 42.6633 45.9536 42.8453 45.9629 42.948C45.9816 43.5173 46.159 44.012 46.495 44.432C46.8403 44.8427 47.3303 45.048 47.965 45.048Z" fill="black"/>
<path d="M53.1974 37.348C53.1041 37.348 53.0248 37.32 52.9594 37.264C52.9035 37.1987 52.8755 37.1193 52.8755 37.026V36.298C52.8755 36.2047 52.9035 36.1253 52.9594 36.06C53.0248 35.9947 53.1041 35.962 53.1974 35.962H54.0234C54.1168 35.962 54.1961 35.9947 54.2615 36.06C54.3268 36.1253 54.3595 36.2047 54.3595 36.298V37.026C54.3595 37.1193 54.3268 37.1987 54.2615 37.264C54.1961 37.32 54.1168 37.348 54.0234 37.348H53.1974ZM53.3095 46C53.2161 46 53.1368 45.972 53.0714 45.916C53.0154 45.8507 52.9874 45.7713 52.9874 45.678V39.042C52.9874 38.9487 53.0154 38.874 53.0714 38.818C53.1368 38.7527 53.2161 38.72 53.3095 38.72H53.9254C54.0188 38.72 54.0935 38.7527 54.1495 38.818C54.2148 38.874 54.2475 38.9487 54.2475 39.042V45.678C54.2475 45.7713 54.2148 45.8507 54.1495 45.916C54.0935 45.972 54.0188 46 53.9254 46H53.3095Z" fill="black"/>
<path d="M59.1507 46C57.7041 46 56.9807 45.1833 56.9807 43.55V39.798H55.8747C55.7814 39.798 55.7067 39.77 55.6507 39.714C55.5947 39.658 55.5667 39.5833 55.5667 39.49V39.042C55.5667 38.9487 55.5947 38.874 55.6507 38.818C55.7067 38.7527 55.7814 38.72 55.8747 38.72H56.9807V36.382C56.9807 36.2887 57.0087 36.214 57.0647 36.158C57.1207 36.0927 57.1954 36.06 57.2887 36.06H57.9047C57.9981 36.06 58.0727 36.0927 58.1287 36.158C58.1941 36.214 58.2267 36.2887 58.2267 36.382V38.72H59.9627C60.0561 38.72 60.1307 38.7527 60.1867 38.818C60.2521 38.874 60.2847 38.9487 60.2847 39.042V39.49C60.2847 39.5833 60.2521 39.658 60.1867 39.714C60.1307 39.77 60.0561 39.798 59.9627 39.798H58.2267V43.452C58.2267 43.928 58.3014 44.2873 58.4507 44.53C58.6094 44.7727 58.8754 44.894 59.2487 44.894H60.1027C60.1961 44.894 60.2707 44.9267 60.3267 44.992C60.3827 45.048 60.4107 45.1227 60.4107 45.216V45.678C60.4107 45.7713 60.3827 45.8507 60.3267 45.916C60.2707 45.972 60.1961 46 60.1027 46H59.1507Z" fill="black"/>
<path d="M63.7945 46.14C63.3371 46.14 62.9125 46.0467 62.5205 45.86C62.1378 45.6733 61.8298 45.4213 61.5965 45.104C61.3725 44.7773 61.2605 44.418 61.2605 44.026C61.2605 43.41 61.5125 42.906 62.0165 42.514C62.5205 42.122 63.2065 41.8607 64.0745 41.73L66.1745 41.436V41.03C66.1745 40.0687 65.6191 39.588 64.5085 39.588C64.0791 39.588 63.7338 39.6767 63.4725 39.854C63.2111 40.022 63.0198 40.2227 62.8985 40.456C62.8611 40.5493 62.8191 40.6147 62.7725 40.652C62.7351 40.68 62.6791 40.694 62.6045 40.694H62.0585C61.9745 40.694 61.8998 40.666 61.8345 40.61C61.7785 40.5447 61.7505 40.47 61.7505 40.386C61.7505 40.1713 61.8485 39.924 62.0445 39.644C62.2498 39.3547 62.5625 39.1073 62.9825 38.902C63.4025 38.6873 63.9158 38.58 64.5225 38.58C65.5678 38.58 66.3145 38.8227 66.7625 39.308C67.2198 39.7933 67.4485 40.4 67.4485 41.128V45.678C67.4485 45.7713 67.4158 45.8507 67.3505 45.916C67.2945 45.972 67.2198 46 67.1265 46H66.5105C66.4171 46 66.3425 45.972 66.2865 45.916C66.2305 45.8507 66.2025 45.7713 66.2025 45.678V45.062C65.9971 45.37 65.6985 45.6267 65.3065 45.832C64.9145 46.0373 64.4105 46.14 63.7945 46.14ZM64.0745 45.118C64.6905 45.118 65.1945 44.9173 65.5865 44.516C65.9785 44.1147 66.1745 43.5313 66.1745 42.766V42.374L64.5365 42.612C63.8645 42.7053 63.3558 42.864 63.0105 43.088C62.6651 43.312 62.4925 43.592 62.4925 43.928C62.4925 44.3107 62.6465 44.6047 62.9545 44.81C63.2718 45.0153 63.6451 45.118 64.0745 45.118Z" fill="black"/>
<path d="M69.8117 46C69.7184 46 69.6391 45.972 69.5737 45.916C69.5177 45.8507 69.4897 45.7713 69.4897 45.678V36.382C69.4897 36.2793 69.5177 36.2 69.5737 36.144C69.6391 36.088 69.7184 36.06 69.8117 36.06H70.4277C70.5211 36.06 70.5957 36.0927 70.6517 36.158C70.7171 36.214 70.7497 36.2887 70.7497 36.382V45.678C70.7497 45.7713 70.7171 45.8507 70.6517 45.916C70.5957 45.972 70.5211 46 70.4277 46H69.8117Z" fill="black"/>
<path d="M73.0627 37.348C72.9693 37.348 72.89 37.32 72.8247 37.264C72.7687 37.1987 72.7407 37.1193 72.7407 37.026V36.298C72.7407 36.2047 72.7687 36.1253 72.8247 36.06C72.89 35.9947 72.9693 35.962 73.0627 35.962H73.8887C73.982 35.962 74.0614 35.9947 74.1267 36.06C74.192 36.1253 74.2247 36.2047 74.2247 36.298V37.026C74.2247 37.1193 74.192 37.1987 74.1267 37.264C74.0614 37.32 73.982 37.348 73.8887 37.348H73.0627ZM73.1747 46C73.0814 46 73.002 45.972 72.9367 45.916C72.8807 45.8507 72.8527 45.7713 72.8527 45.678V39.042C72.8527 38.9487 72.8807 38.874 72.9367 38.818C73.002 38.7527 73.0814 38.72 73.1747 38.72H73.7907C73.884 38.72 73.9587 38.7527 74.0147 38.818C74.08 38.874 74.1127 38.9487 74.1127 39.042V45.678C74.1127 45.7713 74.08 45.8507 74.0147 45.916C73.9587 45.972 73.884 46 73.7907 46H73.1747Z" fill="black"/>
<path d="M78.708 46.14C78.064 46.14 77.518 46.0373 77.07 45.832C76.6313 45.6173 76.3046 45.3747 76.09 45.104C75.8753 44.8333 75.768 44.6093 75.768 44.432C75.768 44.3387 75.8006 44.2687 75.866 44.222C75.9313 44.166 76.0013 44.138 76.076 44.138H76.664C76.72 44.138 76.762 44.1473 76.79 44.166C76.8273 44.1847 76.874 44.2267 76.93 44.292C77.1446 44.5533 77.3826 44.7587 77.644 44.908C77.9146 45.0573 78.274 45.132 78.722 45.132C79.226 45.132 79.6273 45.0387 79.926 44.852C80.234 44.6653 80.388 44.3947 80.388 44.04C80.388 43.8067 80.3226 43.62 80.192 43.48C80.0613 43.34 79.842 43.214 79.534 43.102C79.2353 42.99 78.7873 42.8687 78.19 42.738C77.378 42.5607 76.804 42.304 76.468 41.968C76.132 41.632 75.964 41.198 75.964 40.666C75.964 40.3207 76.0666 39.9893 76.272 39.672C76.4773 39.3453 76.7806 39.084 77.182 38.888C77.5926 38.6827 78.078 38.58 78.638 38.58C79.226 38.58 79.7253 38.678 80.136 38.874C80.556 39.07 80.8686 39.2987 81.074 39.56C81.2886 39.8213 81.396 40.0407 81.396 40.218C81.396 40.302 81.3633 40.372 81.298 40.428C81.242 40.484 81.172 40.512 81.088 40.512H80.556C80.4253 40.512 80.332 40.4607 80.276 40.358C80.1173 40.1807 79.982 40.0453 79.87 39.952C79.7673 39.8493 79.6133 39.7653 79.408 39.7C79.2026 39.6253 78.946 39.588 78.638 39.588C78.1806 39.588 77.8306 39.686 77.588 39.882C77.3453 40.0687 77.224 40.3207 77.224 40.638C77.224 40.834 77.2753 41.002 77.378 41.142C77.4806 41.2727 77.6766 41.3987 77.966 41.52C78.2553 41.632 78.6846 41.7487 79.254 41.87C80.1406 42.0567 80.766 42.3227 81.13 42.668C81.5033 43.0133 81.69 43.4567 81.69 43.998C81.69 44.3993 81.5733 44.7633 81.34 45.09C81.116 45.4167 80.7753 45.6733 80.318 45.86C79.87 46.0467 79.3333 46.14 78.708 46.14Z" fill="black"/>
<path d="M85.3413 46.14C84.884 46.14 84.4593 46.0467 84.0673 45.86C83.6847 45.6733 83.3767 45.4213 83.1433 45.104C82.9193 44.7773 82.8073 44.418 82.8073 44.026C82.8073 43.41 83.0593 42.906 83.5633 42.514C84.0673 42.122 84.7533 41.8607 85.6213 41.73L87.7213 41.436V41.03C87.7213 40.0687 87.166 39.588 86.0553 39.588C85.626 39.588 85.2807 39.6767 85.0193 39.854C84.758 40.022 84.5667 40.2227 84.4453 40.456C84.408 40.5493 84.366 40.6147 84.3193 40.652C84.282 40.68 84.226 40.694 84.1513 40.694H83.6053C83.5213 40.694 83.4467 40.666 83.3813 40.61C83.3253 40.5447 83.2973 40.47 83.2973 40.386C83.2973 40.1713 83.3953 39.924 83.5913 39.644C83.7967 39.3547 84.1093 39.1073 84.5293 38.902C84.9493 38.6873 85.4627 38.58 86.0693 38.58C87.1147 38.58 87.8613 38.8227 88.3093 39.308C88.7667 39.7933 88.9953 40.4 88.9953 41.128V45.678C88.9953 45.7713 88.9627 45.8507 88.8973 45.916C88.8413 45.972 88.7667 46 88.6733 46H88.0573C87.964 46 87.8893 45.972 87.8333 45.916C87.7773 45.8507 87.7493 45.7713 87.7493 45.678V45.062C87.544 45.37 87.2453 45.6267 86.8533 45.832C86.4613 46.0373 85.9573 46.14 85.3413 46.14ZM85.6213 45.118C86.2373 45.118 86.7413 44.9173 87.1333 44.516C87.5253 44.1147 87.7213 43.5313 87.7213 42.766V42.374L86.0833 42.612C85.4113 42.7053 84.9027 42.864 84.5573 43.088C84.212 43.312 84.0393 43.592 84.0393 43.928C84.0393 44.3107 84.1933 44.6047 84.5013 44.81C84.8187 45.0153 85.192 45.118 85.6213 45.118Z" fill="black"/>
<path d="M93.7542 46C92.3076 46 91.5843 45.1833 91.5843 43.55V39.798H90.4782C90.3849 39.798 90.3102 39.77 90.2542 39.714C90.1982 39.658 90.1702 39.5833 90.1702 39.49V39.042C90.1702 38.9487 90.1982 38.874 90.2542 38.818C90.3102 38.7527 90.3849 38.72 90.4782 38.72H91.5843V36.382C91.5843 36.2887 91.6123 36.214 91.6683 36.158C91.7243 36.0927 91.7989 36.06 91.8923 36.06H92.5082C92.6016 36.06 92.6763 36.0927 92.7323 36.158C92.7976 36.214 92.8303 36.2887 92.8303 36.382V38.72H94.5663C94.6596 38.72 94.7343 38.7527 94.7903 38.818C94.8556 38.874 94.8883 38.9487 94.8883 39.042V39.49C94.8883 39.5833 94.8556 39.658 94.7903 39.714C94.7343 39.77 94.6596 39.798 94.5663 39.798H92.8303V43.452C92.8303 43.928 92.9049 44.2873 93.0543 44.53C93.2129 44.7727 93.4789 44.894 93.8522 44.894H94.7063C94.7996 44.894 94.8743 44.9267 94.9303 44.992C94.9863 45.048 95.0143 45.1227 95.0143 45.216V45.678C95.0143 45.7713 94.9863 45.8507 94.9303 45.916C94.8743 45.972 94.7996 46 94.7063 46H93.7542Z" fill="black"/>
<path d="M96.592 37.348C96.4987 37.348 96.4193 37.32 96.354 37.264C96.298 37.1987 96.27 37.1193 96.27 37.026V36.298C96.27 36.2047 96.298 36.1253 96.354 36.06C96.4193 35.9947 96.4987 35.962 96.592 35.962H97.418C97.5113 35.962 97.5907 35.9947 97.656 36.06C97.7213 36.1253 97.754 36.2047 97.754 36.298V37.026C97.754 37.1193 97.7213 37.1987 97.656 37.264C97.5907 37.32 97.5113 37.348 97.418 37.348H96.592ZM96.704 46C96.6107 46 96.5313 45.972 96.466 45.916C96.41 45.8507 96.382 45.7713 96.382 45.678V39.042C96.382 38.9487 96.41 38.874 96.466 38.818C96.5313 38.7527 96.6107 38.72 96.704 38.72H97.32C97.4133 38.72 97.488 38.7527 97.544 38.818C97.6093 38.874 97.642 38.9487 97.642 39.042V45.678C97.642 45.7713 97.6093 45.8507 97.544 45.916C97.488 45.972 97.4133 46 97.32 46H96.704Z" fill="black"/>
<path d="M102.699 46.14C101.673 46.14 100.879 45.8507 100.319 45.272C99.7686 44.6933 99.4746 43.9233 99.4373 42.962L99.4233 42.36L99.4373 41.758C99.4746 40.7967 99.7733 40.0267 100.333 39.448C100.903 38.8693 101.691 38.58 102.699 38.58C103.707 38.58 104.491 38.8693 105.051 39.448C105.621 40.0267 105.924 40.7967 105.961 41.758C105.98 41.9633 105.989 42.164 105.989 42.36C105.989 42.556 105.98 42.7567 105.961 42.962C105.924 43.9233 105.625 44.6933 105.065 45.272C104.515 45.8507 103.726 46.14 102.699 46.14ZM102.699 45.09C103.297 45.09 103.768 44.9033 104.113 44.53C104.468 44.1473 104.659 43.6013 104.687 42.892C104.697 42.7987 104.701 42.6213 104.701 42.36C104.701 42.0987 104.697 41.9213 104.687 41.828C104.659 41.1187 104.468 40.5773 104.113 40.204C103.768 39.8213 103.297 39.63 102.699 39.63C102.102 39.63 101.626 39.8213 101.271 40.204C100.926 40.5773 100.739 41.1187 100.711 41.828L100.697 42.36L100.711 42.892C100.739 43.6013 100.926 44.1473 101.271 44.53C101.626 44.9033 102.102 45.09 102.699 45.09Z" fill="black"/>
<path d="M108.079 46C107.986 46 107.906 45.972 107.841 45.916C107.785 45.8507 107.757 45.7713 107.757 45.678V39.042C107.757 38.9487 107.785 38.874 107.841 38.818C107.906 38.7527 107.986 38.72 108.079 38.72H108.681C108.784 38.72 108.863 38.748 108.919 38.804C108.975 38.86 109.003 38.9393 109.003 39.042V39.658C109.283 39.3127 109.605 39.0467 109.969 38.86C110.342 38.6733 110.804 38.58 111.355 38.58C112.251 38.58 112.946 38.8693 113.441 39.448C113.936 40.0173 114.183 40.7733 114.183 41.716V45.678C114.183 45.7713 114.15 45.8507 114.085 45.916C114.029 45.972 113.954 46 113.861 46H113.217C113.124 46 113.044 45.972 112.979 45.916C112.923 45.8507 112.895 45.7713 112.895 45.678V41.8C112.895 41.128 112.732 40.6053 112.405 40.232C112.078 39.8587 111.612 39.672 111.005 39.672C110.408 39.672 109.932 39.8633 109.577 40.246C109.222 40.6193 109.045 41.1373 109.045 41.8V45.678C109.045 45.7713 109.012 45.8507 108.947 45.916C108.891 45.972 108.816 46 108.723 46H108.079Z" fill="black"/>
<path d="M23.934 67.14C22.982 67.14 22.2213 66.846 21.652 66.258C21.0826 65.6607 20.77 64.8487 20.714 63.822L20.7 63.346L20.714 62.884C20.77 61.876 21.0826 61.0733 21.652 60.476C22.2213 59.8787 22.982 59.58 23.934 59.58C24.9606 59.58 25.754 59.9067 26.314 60.56C26.8833 61.2133 27.168 62.1 27.168 63.22V63.472C27.168 63.5653 27.1353 63.6447 27.07 63.71C27.014 63.766 26.9393 63.794 26.846 63.794H21.988V63.92C22.016 64.5267 22.2026 65.0447 22.548 65.474C22.8933 65.9033 23.3506 66.118 23.92 66.118C24.3586 66.118 24.7133 66.034 24.984 65.866C25.264 65.6887 25.474 65.5067 25.614 65.32C25.698 65.208 25.7633 65.1427 25.81 65.124C25.8566 65.096 25.936 65.082 26.048 65.082H26.664C26.748 65.082 26.818 65.1053 26.874 65.152C26.9393 65.1987 26.972 65.2593 26.972 65.334C26.972 65.5393 26.846 65.7867 26.594 66.076C26.342 66.3653 25.9826 66.6173 25.516 66.832C25.0586 67.0373 24.5313 67.14 23.934 67.14ZM25.894 62.842V62.8C25.894 62.1467 25.7166 61.6147 25.362 61.204C25.0073 60.7933 24.5313 60.588 23.934 60.588C23.3273 60.588 22.8513 60.7933 22.506 61.204C22.1606 61.6147 21.988 62.1467 21.988 62.8V62.842H25.894Z" fill="black"/>
<path d="M28.3839 67C28.2999 67 28.2299 66.972 28.1739 66.916C28.1179 66.86 28.0899 66.79 28.0899 66.706C28.0899 66.622 28.1225 66.5333 28.1879 66.44L30.6239 63.276L28.3419 60.266C28.2672 60.1633 28.2299 60.0793 28.2299 60.014C28.2299 59.93 28.2579 59.86 28.3139 59.804C28.3792 59.748 28.4492 59.72 28.5239 59.72H29.1959C29.3359 59.72 29.4572 59.7947 29.5599 59.944L31.4499 62.394L33.3399 59.944C33.3959 59.8693 33.4472 59.8133 33.4939 59.776C33.5499 59.7387 33.6199 59.72 33.7039 59.72H34.3479C34.4225 59.72 34.4879 59.748 34.5439 59.804C34.5999 59.86 34.6279 59.9253 34.6279 60C34.6279 60.0933 34.5952 60.182 34.5299 60.266L32.2199 63.304L34.6559 66.44C34.7212 66.5333 34.7539 66.622 34.7539 66.706C34.7539 66.79 34.7259 66.86 34.6699 66.916C34.6139 66.972 34.5439 67 34.4599 67H33.7739C33.6339 67 33.5125 66.93 33.4099 66.79L31.4079 64.2L29.4059 66.79C29.3499 66.8553 29.2939 66.9067 29.2379 66.944C29.1912 66.9813 29.1259 67 29.0419 67H28.3839Z" fill="black"/>
<path d="M36.5754 69.66C36.4821 69.66 36.4027 69.632 36.3374 69.576C36.2814 69.52 36.2534 69.4407 36.2534 69.338V60.042C36.2534 59.9393 36.2814 59.86 36.3374 59.804C36.4027 59.748 36.4821 59.72 36.5754 59.72H37.1634C37.2661 59.72 37.3454 59.748 37.4014 59.804C37.4574 59.86 37.4854 59.9393 37.4854 60.042V60.658C38.0267 59.9393 38.7967 59.58 39.7954 59.58C40.7754 59.58 41.5081 59.8927 41.9934 60.518C42.4881 61.134 42.7494 61.9227 42.7774 62.884C42.7867 62.9867 42.7914 63.1453 42.7914 63.36C42.7914 63.5747 42.7867 63.7333 42.7774 63.836C42.7494 64.788 42.4881 65.5767 41.9934 66.202C41.5081 66.8273 40.7754 67.14 39.7954 67.14C38.7967 67.14 38.0407 66.7853 37.5274 66.076V69.338C37.5274 69.4313 37.4947 69.506 37.4294 69.562C37.3734 69.6273 37.2987 69.66 37.2054 69.66H36.5754ZM39.5294 66.048C40.2014 66.048 40.6914 65.838 40.9994 65.418C41.3074 64.998 41.4754 64.4473 41.5034 63.766C41.5127 63.6727 41.5174 63.5373 41.5174 63.36C41.5174 61.568 40.8547 60.672 39.5294 60.672C38.8761 60.672 38.3814 60.8913 38.0454 61.33C37.7187 61.7593 37.5461 62.268 37.5274 62.856C37.5181 62.9587 37.5134 63.1407 37.5134 63.402C37.5134 63.6633 37.5181 63.8453 37.5274 63.948C37.5461 64.5173 37.7234 65.012 38.0594 65.432C38.4047 65.8427 38.8947 66.048 39.5294 66.048Z" fill="black"/>
<path d="M47.4359 67.14C46.4839 67.14 45.7232 66.846 45.1539 66.258C44.5846 65.6607 44.2719 64.8487 44.2159 63.822L44.2019 63.346L44.2159 62.884C44.2719 61.876 44.5846 61.0733 45.1539 60.476C45.7232 59.8787 46.4839 59.58 47.4359 59.58C48.4626 59.58 49.2559 59.9067 49.8159 60.56C50.3852 61.2133 50.6699 62.1 50.6699 63.22V63.472C50.6699 63.5653 50.6372 63.6447 50.5719 63.71C50.5159 63.766 50.4412 63.794 50.3479 63.794H45.4899V63.92C45.5179 64.5267 45.7046 65.0447 46.0499 65.474C46.3952 65.9033 46.8526 66.118 47.4219 66.118C47.8606 66.118 48.2152 66.034 48.4859 65.866C48.7659 65.6887 48.9759 65.5067 49.1159 65.32C49.1999 65.208 49.2652 65.1427 49.3119 65.124C49.3586 65.096 49.4379 65.082 49.5499 65.082H50.1659C50.2499 65.082 50.3199 65.1053 50.3759 65.152C50.4412 65.1987 50.4739 65.2593 50.4739 65.334C50.4739 65.5393 50.3479 65.7867 50.0959 66.076C49.8439 66.3653 49.4846 66.6173 49.0179 66.832C48.5606 67.0373 48.0332 67.14 47.4359 67.14ZM49.3959 62.842V62.8C49.3959 62.1467 49.2186 61.6147 48.8639 61.204C48.5092 60.7933 48.0332 60.588 47.4359 60.588C46.8292 60.588 46.3532 60.7933 46.0079 61.204C45.6626 61.6147 45.4899 62.1467 45.4899 62.8V62.842H49.3959Z" fill="black"/>
<path d="M52.6942 67C52.6009 67 52.5215 66.972 52.4562 66.916C52.4002 66.8507 52.3722 66.7713 52.3722 66.678V60.042C52.3722 59.9487 52.4002 59.874 52.4562 59.818C52.5215 59.7527 52.6009 59.72 52.6942 59.72H53.2962C53.3989 59.72 53.4782 59.748 53.5342 59.804C53.5902 59.86 53.6182 59.9393 53.6182 60.042V60.658C53.8982 60.3127 54.2202 60.0467 54.5842 59.86C54.9576 59.6733 55.4195 59.58 55.9702 59.58C56.8662 59.58 57.5616 59.8693 58.0562 60.448C58.5509 61.0173 58.7982 61.7733 58.7982 62.716V66.678C58.7982 66.7713 58.7655 66.8507 58.7002 66.916C58.6442 66.972 58.5695 67 58.4762 67H57.8322C57.7389 67 57.6595 66.972 57.5942 66.916C57.5382 66.8507 57.5102 66.7713 57.5102 66.678V62.8C57.5102 62.128 57.3469 61.6053 57.0202 61.232C56.6936 60.8587 56.2269 60.672 55.6202 60.672C55.0229 60.672 54.5469 60.8633 54.1922 61.246C53.8375 61.6193 53.6602 62.1373 53.6602 62.8V66.678C53.6602 66.7713 53.6276 66.8507 53.5622 66.916C53.5062 66.972 53.4315 67 53.3382 67H52.6942Z" fill="black"/>
<path d="M63.3134 67.14C62.6694 67.14 62.1234 67.0373 61.6754 66.832C61.2368 66.6173 60.9101 66.3747 60.6954 66.104C60.4808 65.8333 60.3734 65.6093 60.3734 65.432C60.3734 65.3387 60.4061 65.2687 60.4714 65.222C60.5368 65.166 60.6068 65.138 60.6814 65.138H61.2694C61.3254 65.138 61.3674 65.1473 61.3954 65.166C61.4328 65.1847 61.4794 65.2267 61.5354 65.292C61.7501 65.5533 61.9881 65.7587 62.2494 65.908C62.5201 66.0573 62.8794 66.132 63.3274 66.132C63.8314 66.132 64.2328 66.0387 64.5314 65.852C64.8394 65.6653 64.9934 65.3947 64.9934 65.04C64.9934 64.8067 64.9281 64.62 64.7974 64.48C64.6668 64.34 64.4474 64.214 64.1394 64.102C63.8408 63.99 63.3928 63.8687 62.7954 63.738C61.9834 63.5607 61.4094 63.304 61.0734 62.968C60.7374 62.632 60.5694 62.198 60.5694 61.666C60.5694 61.3207 60.6721 60.9893 60.8774 60.672C61.0828 60.3453 61.3861 60.084 61.7874 59.888C62.1981 59.6827 62.6834 59.58 63.2434 59.58C63.8314 59.58 64.3308 59.678 64.7414 59.874C65.1614 60.07 65.4741 60.2987 65.6794 60.56C65.8941 60.8213 66.0014 61.0407 66.0014 61.218C66.0014 61.302 65.9688 61.372 65.9034 61.428C65.8474 61.484 65.7774 61.512 65.6934 61.512H65.1614C65.0308 61.512 64.9374 61.4607 64.8814 61.358C64.7228 61.1807 64.5874 61.0453 64.4754 60.952C64.3728 60.8493 64.2188 60.7653 64.0134 60.7C63.8081 60.6253 63.5514 60.588 63.2434 60.588C62.7861 60.588 62.4361 60.686 62.1934 60.882C61.9508 61.0687 61.8294 61.3207 61.8294 61.638C61.8294 61.834 61.8808 62.002 61.9834 62.142C62.0861 62.2727 62.2821 62.3987 62.5714 62.52C62.8608 62.632 63.2901 62.7487 63.8594 62.87C64.7461 63.0567 65.3714 63.3227 65.7354 63.668C66.1088 64.0133 66.2954 64.4567 66.2954 64.998C66.2954 65.3993 66.1788 65.7633 65.9454 66.09C65.7214 66.4167 65.3808 66.6733 64.9234 66.86C64.4754 67.0467 63.9388 67.14 63.3134 67.14Z" fill="black"/>
<path d="M70.8148 67.14C69.8628 67.14 69.1021 66.846 68.5328 66.258C67.9635 65.6607 67.6508 64.8487 67.5948 63.822L67.5808 63.346L67.5948 62.884C67.6508 61.876 67.9635 61.0733 68.5328 60.476C69.1021 59.8787 69.8628 59.58 70.8148 59.58C71.8415 59.58 72.6348 59.9067 73.1948 60.56C73.7641 61.2133 74.0488 62.1 74.0488 63.22V63.472C74.0488 63.5653 74.0161 63.6447 73.9508 63.71C73.8948 63.766 73.8201 63.794 73.7268 63.794H68.8688V63.92C68.8968 64.5267 69.0835 65.0447 69.4288 65.474C69.7741 65.9033 70.2315 66.118 70.8008 66.118C71.2395 66.118 71.5941 66.034 71.8648 65.866C72.1448 65.6887 72.3548 65.5067 72.4948 65.32C72.5788 65.208 72.6441 65.1427 72.6908 65.124C72.7375 65.096 72.8168 65.082 72.9288 65.082H73.5448C73.6288 65.082 73.6988 65.1053 73.7548 65.152C73.8201 65.1987 73.8528 65.2593 73.8528 65.334C73.8528 65.5393 73.7268 65.7867 73.4748 66.076C73.2228 66.3653 72.8635 66.6173 72.3968 66.832C71.9395 67.0373 71.4121 67.14 70.8148 67.14ZM72.7748 62.842V62.8C72.7748 62.1467 72.5975 61.6147 72.2428 61.204C71.8881 60.7933 71.4121 60.588 70.8148 60.588C70.2081 60.588 69.7321 60.7933 69.3868 61.204C69.0415 61.6147 68.8688 62.1467 68.8688 62.8V62.842H72.7748Z" fill="black"/>
<path d="M78.2431 67.14C77.5991 67.14 77.0531 67.0373 76.6051 66.832C76.1665 66.6173 75.8398 66.3747 75.6251 66.104C75.4105 65.8333 75.3031 65.6093 75.3031 65.432C75.3031 65.3387 75.3358 65.2687 75.4011 65.222C75.4665 65.166 75.5365 65.138 75.6111 65.138H76.1991C76.2551 65.138 76.2971 65.1473 76.3251 65.166C76.3625 65.1847 76.4091 65.2267 76.4651 65.292C76.6798 65.5533 76.9178 65.7587 77.1791 65.908C77.4498 66.0573 77.8091 66.132 78.2571 66.132C78.7611 66.132 79.1625 66.0387 79.4611 65.852C79.7691 65.6653 79.9231 65.3947 79.9231 65.04C79.9231 64.8067 79.8578 64.62 79.7271 64.48C79.5965 64.34 79.3771 64.214 79.0691 64.102C78.7705 63.99 78.3225 63.8687 77.7251 63.738C76.9131 63.5607 76.3391 63.304 76.0031 62.968C75.6671 62.632 75.4991 62.198 75.4991 61.666C75.4991 61.3207 75.6018 60.9893 75.8071 60.672C76.0125 60.3453 76.3158 60.084 76.7171 59.888C77.1278 59.6827 77.6131 59.58 78.1731 59.58C78.7611 59.58 79.2605 59.678 79.6711 59.874C80.0911 60.07 80.4038 60.2987 80.6091 60.56C80.8238 60.8213 80.9311 61.0407 80.9311 61.218C80.9311 61.302 80.8985 61.372 80.8331 61.428C80.7771 61.484 80.7071 61.512 80.6231 61.512H80.0911C79.9605 61.512 79.8671 61.4607 79.8111 61.358C79.6525 61.1807 79.5171 61.0453 79.4051 60.952C79.3025 60.8493 79.1485 60.7653 78.9431 60.7C78.7378 60.6253 78.4811 60.588 78.1731 60.588C77.7158 60.588 77.3658 60.686 77.1231 60.882C76.8805 61.0687 76.7591 61.3207 76.7591 61.638C76.7591 61.834 76.8105 62.002 76.9131 62.142C77.0158 62.2727 77.2118 62.3987 77.5011 62.52C77.7905 62.632 78.2198 62.7487 78.7891 62.87C79.6758 63.0567 80.3011 63.3227 80.6651 63.668C81.0385 64.0133 81.2251 64.4567 81.2251 64.998C81.2251 65.3993 81.1085 65.7633 80.8751 66.09C80.6511 66.4167 80.3105 66.6733 79.8531 66.86C79.4051 67.0467 78.8685 67.14 78.2431 67.14Z" fill="black"/>
<path d="M89.2178 67.14C88.2191 67.14 87.4398 66.86 86.8798 66.3C86.3198 65.7307 86.0258 64.9373 85.9978 63.92L85.9838 63.36L85.9978 62.8C86.0258 61.7827 86.3198 60.994 86.8798 60.434C87.4398 59.8647 88.2191 59.58 89.2178 59.58C89.8898 59.58 90.4545 59.7013 90.9118 59.944C91.3785 60.1773 91.7238 60.4713 91.9478 60.826C92.1811 61.1807 92.3071 61.5353 92.3258 61.89C92.3351 61.974 92.3025 62.0487 92.2278 62.114C92.1625 62.1793 92.0878 62.212 92.0038 62.212H91.3878C91.2945 62.212 91.2245 62.1933 91.1778 62.156C91.1311 62.1093 91.0845 62.03 91.0378 61.918C90.8698 61.4607 90.6365 61.1387 90.3378 60.952C90.0485 60.756 89.6798 60.658 89.2318 60.658C88.6438 60.658 88.1772 60.84 87.8318 61.204C87.4865 61.568 87.2998 62.1233 87.2718 62.87L87.2578 63.36L87.2718 63.85C87.2998 64.5967 87.4865 65.152 87.8318 65.516C88.1772 65.88 88.6438 66.062 89.2318 66.062C89.6891 66.062 90.0625 65.9687 90.3518 65.782C90.6411 65.586 90.8698 65.2593 91.0378 64.802C91.0845 64.69 91.1311 64.6153 91.1778 64.578C91.2245 64.5313 91.2945 64.508 91.3878 64.508H92.0038C92.0878 64.508 92.1625 64.5407 92.2278 64.606C92.3025 64.6713 92.3351 64.746 92.3258 64.83C92.3071 65.1753 92.1811 65.5253 91.9478 65.88C91.7238 66.2347 91.3785 66.5333 90.9118 66.776C90.4545 67.0187 89.8898 67.14 89.2178 67.14Z" fill="black"/>
<path d="M96.9571 67.14C95.9304 67.14 95.1371 66.8507 94.5771 66.272C94.0264 65.6933 93.7324 64.9233 93.6951 63.962L93.6811 63.36L93.6951 62.758C93.7324 61.7967 94.0311 61.0267 94.5911 60.448C95.1604 59.8693 95.9491 59.58 96.9571 59.58C97.9651 59.58 98.7491 59.8693 99.3091 60.448C99.8784 61.0267 100.182 61.7967 100.219 62.758C100.238 62.9633 100.247 63.164 100.247 63.36C100.247 63.556 100.238 63.7567 100.219 63.962C100.182 64.9233 99.8831 65.6933 99.3231 66.272C98.7724 66.8507 97.9837 67.14 96.9571 67.14ZM96.9571 66.09C97.5544 66.09 98.0257 65.9033 98.3711 65.53C98.7257 65.1473 98.9171 64.6013 98.9451 63.892C98.9544 63.7987 98.9591 63.6213 98.9591 63.36C98.9591 63.0987 98.9544 62.9213 98.9451 62.828C98.9171 62.1187 98.7257 61.5773 98.3711 61.204C98.0257 60.8213 97.5544 60.63 96.9571 60.63C96.3597 60.63 95.8838 60.8213 95.5291 61.204C95.1837 61.5773 94.9971 62.1187 94.9691 62.828L94.9551 63.36L94.9691 63.892C94.9971 64.6013 95.1837 65.1473 95.5291 65.53C95.8838 65.9033 96.3597 66.09 96.9571 66.09Z" fill="black"/>
<path d="M104.289 67C104.046 67 103.874 66.8833 103.771 66.65L101.167 60.154C101.158 60.126 101.153 60.0793 101.153 60.014C101.153 59.93 101.181 59.86 101.237 59.804C101.293 59.748 101.358 59.72 101.433 59.72H102.077C102.226 59.72 102.338 59.7947 102.413 59.944L104.569 65.53L106.725 59.944C106.744 59.888 106.781 59.8367 106.837 59.79C106.902 59.7433 106.977 59.72 107.061 59.72H107.705C107.78 59.72 107.845 59.748 107.901 59.804C107.957 59.86 107.985 59.93 107.985 60.014L107.957 60.154L105.367 66.65C105.264 66.8833 105.092 67 104.849 67H104.289Z" fill="black"/>
<path d="M112.104 67.14C111.152 67.14 110.391 66.846 109.822 66.258C109.253 65.6607 108.94 64.8487 108.884 63.822L108.87 63.346L108.884 62.884C108.94 61.876 109.253 61.0733 109.822 60.476C110.391 59.8787 111.152 59.58 112.104 59.58C113.131 59.58 113.924 59.9067 114.484 60.56C115.053 61.2133 115.338 62.1 115.338 63.22V63.472C115.338 63.5653 115.305 63.6447 115.24 63.71C115.184 63.766 115.109 63.794 115.016 63.794H110.158V63.92C110.186 64.5267 110.373 65.0447 110.718 65.474C111.063 65.9033 111.521 66.118 112.09 66.118C112.529 66.118 112.883 66.034 113.154 65.866C113.434 65.6887 113.644 65.5067 113.784 65.32C113.868 65.208 113.933 65.1427 113.98 65.124C114.027 65.096 114.106 65.082 114.218 65.082H114.834C114.918 65.082 114.988 65.1053 115.044 65.152C115.109 65.1987 115.142 65.2593 115.142 65.334C115.142 65.5393 115.016 65.7867 114.764 66.076C114.512 66.3653 114.153 66.6173 113.686 66.832C113.229 67.0373 112.701 67.14 112.104 67.14ZM114.064 62.842V62.8C114.064 62.1467 113.887 61.6147 113.532 61.204C113.177 60.7933 112.701 60.588 112.104 60.588C111.497 60.588 111.021 60.7933 110.676 61.204C110.331 61.6147 110.158 62.1467 110.158 62.8V62.842H114.064Z" fill="black"/>
<path d="M117.362 67C117.269 67 117.19 66.972 117.124 66.916C117.068 66.8507 117.04 66.7713 117.04 66.678V60.056C117.04 59.9627 117.068 59.8833 117.124 59.818C117.19 59.7527 117.269 59.72 117.362 59.72H117.95C118.053 59.72 118.132 59.7527 118.188 59.818C118.254 59.874 118.286 59.9533 118.286 60.056V60.672C118.669 60.0373 119.318 59.72 120.232 59.72H120.778C120.881 59.72 120.96 59.748 121.016 59.804C121.072 59.86 121.1 59.9393 121.1 60.042V60.56C121.1 60.6533 121.072 60.7327 121.016 60.798C120.96 60.854 120.881 60.882 120.778 60.882H119.98C119.467 60.882 119.061 61.0313 118.762 61.33C118.473 61.6287 118.328 62.0347 118.328 62.548V66.678C118.328 66.7713 118.296 66.8507 118.23 66.916C118.165 66.972 118.086 67 117.992 67H117.362Z" fill="black"/>
<path d="M124.21 67.14C123.753 67.14 123.328 67.0467 122.936 66.86C122.554 66.6733 122.246 66.4213 122.012 66.104C121.788 65.7773 121.676 65.418 121.676 65.026C121.676 64.41 121.928 63.906 122.432 63.514C122.936 63.122 123.622 62.8607 124.49 62.73L126.59 62.436V62.03C126.59 61.0687 126.035 60.588 124.924 60.588C124.495 60.588 124.15 60.6767 123.888 60.854C123.627 61.022 123.436 61.2227 123.314 61.456C123.277 61.5493 123.235 61.6147 123.188 61.652C123.151 61.68 123.095 61.694 123.02 61.694H122.474C122.39 61.694 122.316 61.666 122.25 61.61C122.194 61.5447 122.166 61.47 122.166 61.386C122.166 61.1713 122.264 60.924 122.46 60.644C122.666 60.3547 122.978 60.1073 123.398 59.902C123.818 59.6873 124.332 59.58 124.938 59.58C125.984 59.58 126.73 59.8227 127.178 60.308C127.636 60.7933 127.864 61.4 127.864 62.128V66.678C127.864 66.7713 127.832 66.8507 127.766 66.916C127.71 66.972 127.636 67 127.542 67H126.926C126.833 67 126.758 66.972 126.702 66.916C126.646 66.8507 126.618 66.7713 126.618 66.678V66.062C126.413 66.37 126.114 66.6267 125.722 66.832C125.33 67.0373 124.826 67.14 124.21 67.14ZM124.49 66.118C125.106 66.118 125.61 65.9173 126.002 65.516C126.394 65.1147 126.59 64.5313 126.59 63.766V63.374L124.952 63.612C124.28 63.7053 123.772 63.864 123.426 64.088C123.081 64.312 122.908 64.592 122.908 64.928C122.908 65.3107 123.062 65.6047 123.37 65.81C123.688 66.0153 124.061 66.118 124.49 66.118Z" fill="black"/>
<path d="M132.846 70.08C132.071 70.08 131.45 69.9493 130.984 69.688C130.517 69.4267 130.186 69.128 129.99 68.792C129.803 68.456 129.71 68.1667 129.71 67.924C129.71 67.84 129.742 67.7653 129.808 67.7C129.873 67.644 129.948 67.616 130.032 67.616H130.648C130.732 67.616 130.802 67.6347 130.858 67.672C130.914 67.7187 130.96 67.798 130.998 67.91C131.259 68.6567 131.852 69.03 132.776 69.03C133.476 69.03 133.994 68.8807 134.33 68.582C134.666 68.2833 134.834 67.756 134.834 67V66.034C134.292 66.7247 133.536 67.07 132.566 67.07C131.576 67.07 130.834 66.7527 130.34 66.118C129.854 65.4833 129.598 64.6807 129.57 63.71L129.556 63.318L129.57 62.94C129.598 61.9787 129.854 61.1807 130.34 60.546C130.834 59.902 131.576 59.58 132.566 59.58C133.546 59.58 134.311 59.9393 134.862 60.658V60.056C134.862 59.9627 134.89 59.8833 134.946 59.818C135.011 59.7527 135.09 59.72 135.184 59.72H135.786C135.879 59.72 135.954 59.7527 136.01 59.818C136.075 59.8833 136.108 59.9627 136.108 60.056V66.846C136.108 69.002 135.02 70.08 132.846 70.08ZM132.818 65.978C133.471 65.978 133.961 65.768 134.288 65.348C134.624 64.9187 134.806 64.4053 134.834 63.808C134.843 63.724 134.848 63.5607 134.848 63.318C134.848 63.0847 134.843 62.926 134.834 62.842C134.806 62.2447 134.624 61.736 134.288 61.316C133.961 60.8867 133.471 60.672 132.818 60.672C132.146 60.672 131.656 60.8867 131.348 61.316C131.049 61.736 130.886 62.282 130.858 62.954L130.844 63.318L130.858 63.696C130.886 64.368 131.049 64.9187 131.348 65.348C131.656 65.768 132.146 65.978 132.818 65.978Z" fill="black"/>
<path d="M141.102 67.14C140.15 67.14 139.389 66.846 138.82 66.258C138.251 65.6607 137.938 64.8487 137.882 63.822L137.868 63.346L137.882 62.884C137.938 61.876 138.251 61.0733 138.82 60.476C139.389 59.8787 140.15 59.58 141.102 59.58C142.129 59.58 142.922 59.9067 143.482 60.56C144.051 61.2133 144.336 62.1 144.336 63.22V63.472C144.336 63.5653 144.303 63.6447 144.238 63.71C144.182 63.766 144.107 63.794 144.014 63.794H139.156V63.92C139.184 64.5267 139.371 65.0447 139.716 65.474C140.061 65.9033 140.519 66.118 141.088 66.118C141.527 66.118 141.881 66.034 142.152 65.866C142.432 65.6887 142.642 65.5067 142.782 65.32C142.866 65.208 142.931 65.1427 142.978 65.124C143.025 65.096 143.104 65.082 143.216 65.082H143.832C143.916 65.082 143.986 65.1053 144.042 65.152C144.107 65.1987 144.14 65.2593 144.14 65.334C144.14 65.5393 144.014 65.7867 143.762 66.076C143.51 66.3653 143.151 66.6173 142.684 66.832C142.227 67.0373 141.699 67.14 141.102 67.14ZM143.062 62.842V62.8C143.062 62.1467 142.885 61.6147 142.53 61.204C142.175 60.7933 141.699 60.588 141.102 60.588C140.495 60.588 140.019 60.7933 139.674 61.204C139.329 61.6147 139.156 62.1467 139.156 62.8V62.842H143.062Z" fill="black"/>
<path d="M125.504 84.5682H120.611C119.988 84.5682 119.483 85.067 119.483 85.6821V86.8403H126.631V85.6822C126.631 85.067 126.127 84.5682 125.504 84.5682Z" fill="#B9F6D3"/>
<path d="M151.517 86.8405V89.3883C151.517 90.2998 150.768 91.0392 149.846 91.0392H121.154C120.232 91.0392 119.483 90.2998 119.483 89.3883V86.8405H151.517Z" fill="#B9F6D3"/>
<path d="M149.28 86.8405V91.0393H128.874V84.5679H146.981C148.251 84.5679 149.28 85.5858 149.28 86.8405Z" fill="#B9F6D3"/>
<path d="M149.28 86.8405V91.0393H146.64V86.8405C146.64 85.5858 145.611 84.5679 144.341 84.5679H146.981C148.251 84.5679 149.28 85.5858 149.28 86.8405Z" fill="#B9F6D3"/>
<path d="M128.874 84.5679H131.452V91.0393H128.874V84.5679Z" fill="#B9F6D3"/>
<ellipse cx="124.897" cy="99.7842" rx="1.75003" ry="1.72943" fill="#B9F6D3"/>
<ellipse cx="146.103" cy="99.7842" rx="1.75003" ry="1.72943" fill="#B9F6D3"/>
<path fill-rule="evenodd" clip-rule="evenodd" d="M151.517 82.0087C151.25 82.0087 151.033 82.2225 151.033 82.4864V86.3627H149.722C149.492 85.0733 148.351 84.0905 146.981 84.0905H146.103C145.836 84.0905 145.62 84.3043 145.62 84.5682C145.62 84.8321 145.836 85.0459 146.103 85.0459H146.981C147.982 85.0459 148.797 85.851 148.797 86.8404V90.5615H131.935V85.0459H143.861C144.128 85.0459 144.344 84.8321 144.344 84.5682C144.344 84.3043 144.128 84.0905 143.861 84.0905H128.874C128.607 84.0905 128.391 84.3043 128.391 84.5682V86.3627H127.115V85.6822C127.115 84.8046 126.392 84.0906 125.504 84.0906H120.611C120.382 84.0906 120.164 84.138 119.967 84.2233V82.4864C119.967 82.2225 119.75 82.0087 119.483 82.0087C119.216 82.0087 119 82.2225 119 82.4864V89.3883C119 90.562 119.966 91.5169 121.154 91.5169H124.413V97.6291C123.414 97.848 122.663 98.7312 122.663 99.7841C122.663 101.001 123.665 101.991 124.897 101.991C126.128 101.991 127.13 101.001 127.13 99.7841C127.13 98.7311 126.38 97.848 125.38 97.6291V95.184H128.392C128.659 95.184 128.876 94.9701 128.876 94.7062C128.876 94.4424 128.659 94.2285 128.392 94.2285H125.38V91.5169L145.62 91.517V94.2285H130.63C130.363 94.2285 130.147 94.4424 130.147 94.7062C130.147 94.9701 130.363 95.184 130.63 95.184H145.62V97.6291C144.62 97.848 143.87 98.7312 143.87 99.7841C143.87 101.001 144.872 101.991 146.103 101.991C147.335 101.991 148.336 101.001 148.336 99.7841C148.336 98.7311 147.586 97.848 146.586 97.6291V91.517L149.846 91.5169C151.034 91.5169 152 90.562 152 89.3883V82.4864C152 82.2225 151.784 82.0087 151.517 82.0087ZM119.967 85.6822C119.967 85.3313 120.256 85.046 120.611 85.046H125.504C125.859 85.046 126.148 85.3313 126.148 85.6822V86.3627H119.967V85.6822ZM124.897 101.036C125.595 101.036 126.164 100.474 126.164 99.7842C126.164 99.094 125.595 98.5325 124.897 98.5325C124.198 98.5325 123.63 99.094 123.63 99.7842C123.63 100.474 124.198 101.036 124.897 101.036ZM128.391 90.5615H121.154C120.499 90.5615 119.967 90.0352 119.967 89.3883V87.3181H128.391V90.5615ZM129.357 90.5615H130.969V85.0459H129.357V90.5615ZM147.37 99.7842C147.37 100.474 146.802 101.036 146.103 101.036C145.405 101.036 144.836 100.474 144.836 99.7842C144.836 99.094 145.405 98.5325 146.103 98.5325C146.802 98.5325 147.37 99.094 147.37 99.7842ZM149.846 90.5615C150.501 90.5615 151.033 90.0352 151.033 89.3883V87.3181H149.764V90.5615H149.846Z" fill="#35CB5D"/>
</svg>
