<svg xmlns="http://www.w3.org/2000/svg" width="172" height="112" viewBox="0 0 172 112">
    <g fill="none" fill-rule="evenodd">
        <rect width="172" height="112" fill="#B099EC" opacity=".544" rx="4"/>
        <path fill="#FFF" fill-rule="nonzero" d="M98.333 21.97C105.88 17.968 109.77 10.645 110 0H-15v61.791C-11.667 67.627-3.75 69 8.333 69c12.084 0 28.75-1.716 37.083-17.507C53.75 35.7 50.884 31.65 62.083 25.403c11.199-6.248 24.927 2.57 36.25-3.433zM171.647 50.745c4.139 4.483 4.653 8.54 5.135 13.089.283 2.674.29 21.023.022 55.048-.012 1.505-1.235 2.718-2.74 2.718h-32.81c2.723-6.443-23.48-29.492-24.206-46.455-.726-16.964 6.795-27.451 20.809-32.942 14.014-5.49 25.905 0 33.79 8.542z" opacity=".26"/>
        <text fill="#5721AE" font-family="WorkSans-Medium, Work Sans" font-size="14" font-weight="400">
            <tspan x="20" y="25">Benefit of tax </tspan> <tspan x="20" y="46">saving upto </tspan> <tspan x="20" y="67">₹15,600</tspan>
        </text>
        <g fill-rule="nonzero">
            <path fill="#D1E7FF" d="M9.044 6.91h-1.11c-1.241 0-1.85-1.507-.983-2.375.252-.252.599-.408.982-.408L6.683 1.84c-.27-.494.086-1.098.649-1.098h2.314c.562 0 .92.604.649 1.098l-1.25 2.287c1.24 0 1.848 1.506.981 2.375-.251.251-.598.407-.982.407z" transform="translate(132 79)"/>
            <path fill="#FFDCE9" d="M13.656 22.25c-.17.012.572.008-10.108.008-1.86 0-3.26-1.697-2.91-3.527l1.212-6.326c.61-3.19 3.397-5.496 6.639-5.496 3.226 0 6.024 2.289 6.639 5.496l1.211 6.326c.346 1.805-1.017 3.427-2.683 3.519z" transform="translate(132 79)"/>
            <path fill="#E8F3FF" d="M10.328 1.196c.066.156-.064.325-.232.307-.057-.006.108-.004-2.394-.004-.274 0-.5.144-.627.348-.093.148-.308.147-.392-.007-.27-.494.086-1.098.649-1.098h2.314c.32 0 .573.195.682.454z" transform="translate(132 79)"/>
            <path fill="#B2B2B2" d="M9.335 4.158c.576.123.484.974-.105.974-.705 0-1.268.52-1.373 1.17-.06.369-.497.537-.788.305-1.04-.83-.425-2.48.895-2.48 1.13 0 1.18-.01 1.371.03z" transform="translate(132 79)"/>
            <path fill="#B9DCFF" d="M9.044 4.127c.767 0 1.389.623 1.389 1.391S9.81 6.91 9.044 6.91h-1.11c-1.242 0-1.85-1.506-.983-2.374.252-.252.599-.408.982-.408h1.111z" transform="translate(132 79)"/>
            <path fill="#FFF3F7" d="M11.635 7.687c.775.409.443 1.59-.432 1.538-3.223-.19-6.378 1.974-7.051 5.486-.411 2.146-.699 3.604-.895 4.62-.326 1.684-2.86 1.306-2.65-.397.018-.146-.067.312 1.243-6.53.859-4.483 5.8-6.819 9.785-4.717z" transform="translate(132 79)"/>
            <path fill="#FFDCE9" d="M12.886 9.552c3.503 0 6.342 2.845 6.342 6.353 0 3.509-2.84 6.353-6.342 6.353s-6.341-2.844-6.341-6.353c0-3.508 2.839-6.353 6.341-6.353z" transform="translate(132 79)"/>
            <path fill="#FFF3F7" d="M15.722 10.222c.857.43.534 1.718-.424 1.718-3.322 0-6.383 2.66-6.364 6.393.005.96-1.284 1.283-1.715.425-2.125-4.226.982-9.206 5.667-9.206 1.02 0 1.983.241 2.836.67z" transform="translate(132 79)"/>
            <path fill="#F16FA0" d="M6.637 21.516H3.733c-1.396 0-2.445-1.274-2.182-2.645l1.212-6.326c.676-3.53 4.284-5.697 7.715-4.617.39.123.806-.095.93-.486.121-.39-.094-.804-.481-.928.524-.992.191-2.24-.796-2.83l1.414-2.586C11.815.605 11.458 0 10.895 0H6.083c-.562 0-.92.604-.65 1.098l1.415 2.587c-1.03.615-1.34 1.937-.736 2.935-2.422.886-4.295 2.992-4.803 5.645L.096 18.591C-.342 20.881 1.41 23 3.733 23h2.904c.41 0 .74-.332.74-.742s-.33-.742-.74-.742zM9.645 1.484l-1.04 1.901h-.233l-1.04-1.901h2.313zM7.933 6.167c-.357 0-.648-.29-.648-.649 0-.357.29-.649.649-.649h1.105c.374 0 .653.3.653.65 0 .357-.29.648-.648.648h-1.11zm7.303 7.384c.29.29.29.76 0 1.05l-3.652 3.658c-.145.145-.335.218-.524.218-.654 0-.992-.798-.524-1.267l3.653-3.659c.29-.29.758-.29 1.047 0zm-.828 3.198c-.542 0-.984.442-.984.986 0 .543.442.986.984.986.543 0 .984-.443.984-.986 0-.544-.441-.986-.984-.986zm-3.044-1.687c.543 0 .984-.443.984-.986 0-.544-.441-.986-.984-.986-.542 0-.984.442-.984.986 0 .543.442.986.984.986zm1.522-6.252c-3.905 0-7.082 3.183-7.082 7.095S8.98 23 12.886 23s7.083-3.183 7.083-7.095S16.79 8.81 12.886 8.81zm0 12.706c-3.088 0-5.6-2.517-5.6-5.61 0-3.095 2.512-5.612 5.6-5.612 3.089 0 5.601 2.517 5.601 5.611s-2.512 5.611-5.6 5.611z" transform="translate(132 79)"/>
        </g>
    </g>
</svg>
