<svg width="30" height="30" viewBox="0 0 30 30" fill="none" xmlns="http://www.w3.org/2000/svg">
<path d="M22.5831 8.10807C22.5831 8.94088 21.9049 9.61116 21.0743 9.61116H9.92574C9.09514 9.61116 8.4169 8.94088 8.4169 8.10807V5.85377C8.4169 5.02096 9.09514 4.35068 9.92574 4.35068H21.0743C21.9049 4.35068 22.5831 5.02096 22.5831 5.85377V8.10807ZM22.4615 14.8986C22.4615 15.7314 21.7832 16.4017 20.9527 16.4017H19.69C18.8594 16.4017 18.1811 15.7314 18.1811 14.8986V13.643C18.1811 12.8102 18.8594 12.1399 19.69 12.1399H20.9527C21.7832 12.1399 22.4615 12.8102 22.4615 13.643V14.8986ZM22.4615 19.5224C22.4615 20.3552 21.7832 21.0255 20.9527 21.0255H19.69C18.8594 21.0255 18.1811 20.3552 18.1811 19.5224V18.2669C18.1811 17.4341 18.8594 16.7638 19.69 16.7638H20.9527C21.7832 16.7638 22.4615 17.4341 22.4615 18.2669V19.5224ZM22.4615 24.1462C22.4615 24.979 21.7832 25.6493 20.9527 25.6493H19.69C18.8594 25.6493 18.1811 24.979 18.1811 24.1462V22.8907C18.1811 22.0579 18.8594 21.3876 19.69 21.3876H20.9527C21.7832 21.3876 22.4615 22.0579 22.4615 22.8907V24.1462ZM17.6402 14.8986C17.6402 15.7314 16.9619 16.4017 16.1313 16.4017H14.8687C14.0381 16.4017 13.3598 15.7314 13.3598 14.8986V13.643C13.3598 12.8102 14.0381 12.1399 14.8687 12.1399H16.1313C16.9619 12.1399 17.6402 12.8102 17.6402 13.643V14.8986ZM17.6402 19.5224C17.6402 20.3552 16.9619 21.0255 16.1313 21.0255H14.8687C14.0381 21.0255 13.3598 20.3552 13.3598 19.5224V18.2669C13.3598 17.4341 14.0381 16.7638 14.8687 16.7638H16.1313C16.9619 16.7638 17.6402 17.4341 17.6402 18.2669V19.5224ZM17.6402 24.1462C17.6402 24.979 16.9619 25.6493 16.1313 25.6493H14.8687C14.0381 25.6493 13.3598 24.979 13.3598 24.1462V22.8907C13.3598 22.0579 14.0381 21.3876 14.8687 21.3876H16.1313C16.9619 21.3876 17.6402 22.0579 17.6402 22.8907V24.1462ZM12.8189 14.8986C12.8189 15.7314 12.1406 16.4017 11.31 16.4017H10.0473C9.21675 16.4017 8.53851 15.7314 8.53851 14.8986V13.643C8.53851 12.8102 9.21675 12.1399 10.0473 12.1399H11.31C12.1406 12.1399 12.8189 12.8102 12.8189 13.643V14.8986ZM12.8189 19.5224C12.8189 20.3552 12.1406 21.0255 11.31 21.0255H10.0473C9.21675 21.0255 8.53851 20.3552 8.53851 19.5224V18.2669C8.53851 17.4341 9.21675 16.7638 10.0473 16.7638H11.31C12.1406 16.7638 12.8189 17.4341 12.8189 18.2669V19.5224ZM12.8189 24.1462C12.8189 24.979 12.1406 25.6493 11.31 25.6493H10.0473C9.21675 25.6493 8.53851 24.979 8.53851 24.1462V22.8907C8.53851 22.0579 9.21675 21.3876 10.0473 21.3876H11.31C12.1406 21.3876 12.8189 22.0579 12.8189 22.8907V24.1462ZM22.7072 2.5H8.2928C7.29998 2.5 6.5 3.29952 6.5 4.27974V25.7203C6.5 26.7005 7.29998 27.5 8.2928 27.5H22.7072C23.7 27.5 24.5 26.7005 24.5 25.7203V4.27974C24.5 3.29952 23.7 2.5 22.7072 2.5Z" fill="#A998D2" stroke="#4F2DA7"/>
</svg>
