<svg width="80" height="60" viewBox="0 0 80 60" fill="none" xmlns="http://www.w3.org/2000/svg">
<rect width="80" height="60" rx="3" fill="white"/>
<mask id="mask0" mask-type="alpha" maskUnits="userSpaceOnUse" x="0" y="0" width="80" height="60">
<rect width="80" height="60" rx="3" fill="white"/>
</mask>
<g mask="url(#mask0)">
<path opacity="0.05" d="M49.7494 -12C41.4994 -12 27.2494 -12 24.2494 -3.75C21.2494 4.5 46.1929 4.01613 51.9994 9.82258C57.8058 15.629 67.168 15 75.9994 15C84.8308 15 83.1573 24.7336 90.2494 23.25C97.3415 21.7664 90.9994 14.3321 93.2494 9.82258C93.2494 5.61878 93.2494 -12 93.2494 -12C93.2494 -12 63.6244 -12 49.7494 -12Z" fill="#4F2DA7"/>
<path opacity="0.05" d="M10.2856 59.6752C39.7333 49.2049 52.8212 72.763 52.8212 59.6752C52.8212 46.5873 37.1158 40.0433 29.263 32.1906C21.4103 24.3379 24.8469 11.25 12.9032 11.25C0.959503 11.25 6.9768 18.5866 -6.07424 24.3379C-19.1253 30.0892 -19.1621 70.1455 10.2856 59.6752Z" fill="#4F2DA7"/>
<path opacity="0.05" d="M59.0356 45.4252C29.5879 34.9549 16.5 58.513 16.5 45.4252C16.5 32.3373 32.2055 25.7933 40.0582 17.9406C47.9109 10.0879 44.4743 -3 56.418 -3C68.3617 -3 62.3444 4.33657 75.3955 10.0879C88.4465 15.8392 101.571 0.926365 101.571 17.9406C101.571 34.9549 88.4833 55.8955 59.0356 45.4252Z" fill="#4F2DA7"/>
<path d="M103.451 -6.64442C102.156 -2.14875 98.0113 1.15286 93.1042 1.15286C87.1619 1.15286 82.3294 -3.6798 82.3294 -9.6203C82.3294 -14.0177 84.9823 -17.8025 88.7682 -19.475V-24.0422C82.5682 -22.1748 78.0382 -16.4194 78.0382 -9.6203C78.0382 -1.31387 84.7967 5.44472 93.1041 5.44472C99.1582 5.44472 104.376 1.84663 106.769 -3.31598L105.068 -6.65819C104.59 -6.65427 104.037 -6.64925 103.451 -6.64442Z" fill="#B392DB"/>
<path opacity="0.05" d="M12.2771 25.6173C13.3359 25.1112 14.4206 24.5273 15.3757 23.8422C15.726 23.5904 15.3809 23.1 15.0123 23.2946C13.9924 23.8292 12.9959 24.5195 12.0876 25.2228C11.9008 25.3629 12.0357 25.7314 12.2771 25.6173Z" fill="#3792FC"/>
<path opacity="0.05" d="M16.1967 4.74398C16.1759 4.72581 16.1578 4.70764 16.137 4.69207C15.8749 4.45851 15.4441 4.41439 15.1898 4.69207C14.9329 4.97235 14.9406 5.35903 15.1898 5.6393C15.2079 5.66007 15.2261 5.67823 15.2417 5.69899C15.4752 5.9637 15.9605 5.95591 16.1967 5.69899C16.4303 5.44207 16.477 4.99311 16.1967 4.74398Z" fill="#3792FC"/>
<path opacity="0.05" d="M76.5064 8.82142C76.5723 8.39207 76.5597 7.98466 76.7979 7.60546C77.2774 6.85332 77.9575 7.04135 78.6156 7.37355C79.2862 7.71201 79.9193 7.91258 80.6464 7.59919C81.784 7.10716 82.3199 5.38978 81.2324 4.58123C80.8814 4.31798 80.5335 4.75046 80.5805 5.08265C80.6464 5.54334 80.8751 6.05417 80.4803 6.44904C79.9506 6.97867 79.3301 6.53366 78.8005 6.29548C78.2301 6.0385 77.6221 5.98209 77.0361 6.22027C76.0238 6.63081 75.2874 8.00346 76.0928 8.9311C76.2056 9.05959 76.4782 9.00005 76.5064 8.82142Z" fill="#3792FC"/>
<path opacity="0.05" d="M64.765 52.2428C63.7246 53.2418 63.3308 54.7963 64.3215 55.9984C65.2542 57.13 67.0656 57.3663 68.2304 56.4668C71.0492 54.2906 68.1102 50.2821 65.0718 51.1112C64.508 51.2646 64.649 52.0687 65.2044 52.0977C66.0915 52.1475 67.0449 52.1806 67.7537 52.8066C68.5165 53.4739 68.533 54.6056 67.9071 55.3766C66.249 57.4119 63.3723 54.4149 65.1132 52.591C65.3371 52.363 64.9972 52.0231 64.765 52.2428Z" fill="#3792FC"/>
<path opacity="0.05" d="M3.75727 45.6141C4.08196 46.8211 4.43842 48.014 4.81252 49.2069C4.90075 49.4928 5.17251 49.5845 5.41956 49.4151C6.39011 48.7552 7.35713 48.1093 8.27827 47.3788C8.45473 47.2376 8.41591 46.9552 8.24298 46.8352C7.16655 46.0976 5.71602 45.0071 4.35019 45C4.00432 44.9965 3.7608 45.4871 4.11372 45.6882C4.66429 46.0059 5.32427 46.1188 5.91366 46.3623C6.59128 46.6447 7.26537 46.9764 7.86535 47.4035C7.87946 47.2058 7.89358 47.0082 7.90417 46.8105C6.87715 47.4423 5.91013 48.1517 4.93605 48.8575C5.12663 48.8963 5.32074 48.9352 5.51132 48.974C5.09486 47.7952 4.66782 46.627 4.20549 45.4659C4.10667 45.2224 3.69021 45.3565 3.75727 45.6141Z" fill="#3792FC"/>
</g>
<rect x="43" y="20.5" width="10" height="10" fill="#5721AE"/>
<circle cx="30" cy="39.6665" r="4.1665" fill="#AD95D6"/>
<path fill-rule="evenodd" clip-rule="evenodd" d="M36.6665 17.1665V20.5H33.3335V17.1665H30V20.5L26.6665 28.8335L20 30.5V40.5H23.3335V39.6665C23.3335 35.9895 26.3245 33 30 33C33.6755 33 36.6665 35.9895 36.6665 39.6665V40.5H43.3335V39.6665C43.3335 35.9895 46.323 33 50 33C53.677 33 56.6665 35.9895 56.6665 39.6665V40.5H60V17.1665H36.6665ZM36.6665 28.8335H30.2575L32.256 23.8335H36.6665V28.8335ZM49.5865 26.75H52.5V24.25H49.5865V21.333H47.0865V24.25H44.1665V26.75H47.0865V29.6665H49.5865V26.75Z" fill="#AD95D6"/>
<circle cx="50" cy="39.6665" r="4.1665" fill="#AD95D6"/>
</svg>
