<svg width="40" height="40" viewBox="0 0 40 40" fill="none" xmlns="http://www.w3.org/2000/svg">
<path d="M22.3438 14.375H5.46875C2.87992 14.375 0.78125 16.4737 0.78125 19.0625V31.0938C0.78125 33.6826 2.87992 35.7812 5.46875 35.7812H10.5452L10.4748 35.7873L13.9062 39.2188L13.9087 35.7812H22.3438C24.9326 35.7812 27.0312 33.6826 27.0312 31.0938V19.0625C27.0312 16.4737 24.9326 14.375 22.3438 14.375Z" fill="#D5C7F7"/>
<path d="M13.9064 40C13.703 40 13.5033 39.9206 13.3538 39.7712L10.1452 36.5625H5.46875C2.45328 36.5625 0 34.1092 0 31.0938V19.0625C0 16.047 2.45328 13.5938 5.46875 13.5938H13.3594C13.7908 13.5938 14.1406 13.9435 14.1406 14.375C14.1406 14.8065 13.7908 15.1562 13.3594 15.1562H5.46875C3.31484 15.1562 1.5625 16.9086 1.5625 19.0625V31.0938C1.5625 33.2477 3.31484 35 5.46875 35H10.5452C10.8648 35 11.141 35.1923 11.2617 35.4694L13.1264 37.334L13.1275 35.7807C13.1278 35.3495 13.4774 35 13.9087 35H22.3438C24.4977 35 26.25 33.2477 26.25 31.0938V25.7031C26.25 25.2716 26.5998 24.9219 27.0312 24.9219C27.4627 24.9219 27.8125 25.2716 27.8125 25.7031V31.0938C27.8125 34.1092 25.3592 36.5625 22.3438 36.5625H14.6894L14.6875 39.2193C14.6873 39.5352 14.4969 39.8198 14.2049 39.9406C14.1084 39.9805 14.007 40 13.9064 40Z" fill="#A38CEB"/>
<path d="M28.6449 0.78125H26.6677C20.8279 0.78125 16.0938 5.51531 16.0938 11.3552C16.0938 17.1949 20.8278 21.9291 26.6677 21.9291H28.6449C29.7273 21.9291 30.7715 21.7661 31.7547 21.464L35 24.7074V19.8064C37.562 17.8768 39.2188 14.8095 39.2188 11.3551C39.2188 5.51531 34.4847 0.78125 28.6449 0.78125Z" fill="#D5C7F7"/>
<path d="M35.0002 25.4887C34.7969 25.4887 34.5972 25.4093 34.4477 25.26L31.5269 22.3408C30.5894 22.5861 29.6221 22.7102 28.6448 22.7102H26.6676C20.4064 22.7102 15.3125 17.6164 15.3125 11.3552C15.3125 5.09391 20.4064 0 26.6677 0H28.6449C34.9061 0 40 5.09391 40 11.3552C40 13.1689 39.5849 14.9024 38.7661 16.5076C38.0452 17.9209 37.0179 19.1859 35.7812 20.1874V24.7074C35.7812 25.0234 35.5909 25.3082 35.2991 25.4291C35.2024 25.4692 35.1009 25.4887 35.0002 25.4887ZM31.7546 20.6827C31.9587 20.6827 32.1582 20.7627 32.307 20.9113L34.2188 22.8221V19.8065C34.2188 19.5611 34.3341 19.33 34.5299 19.1824C37.0133 17.3121 38.4375 14.4591 38.4375 11.3552C38.4375 5.95547 34.0446 1.5625 28.6449 1.5625H26.6677C21.268 1.5625 16.875 5.95547 16.875 11.3552C16.875 16.7548 21.2679 21.1478 26.6677 21.1478H28.6449C29.6263 21.1478 30.5953 21.003 31.5252 20.7172C31.6007 20.694 31.678 20.6827 31.7546 20.6827Z" fill="#A38CEB"/>
<path d="M27.875 14.5917C27.4436 14.5917 27.0937 14.2419 27.0937 13.8104V11.9335C27.0937 11.2337 27.5726 10.6378 28.2584 10.4844C29.1048 10.295 29.6757 9.52607 29.6157 8.65599C29.5563 7.79451 28.8619 7.10006 28.0003 7.04068C27.5089 7.00678 27.0419 7.17185 26.6845 7.50537C26.3269 7.8392 26.1298 8.2924 26.1298 8.78139C26.1298 9.21287 25.78 9.56264 25.3486 9.56264C24.9172 9.56264 24.5673 9.21287 24.5673 8.78139C24.5673 7.86803 24.9504 6.98662 25.6183 6.3631C26.2956 5.73084 27.1804 5.4181 28.1076 5.48178C29.7433 5.59451 31.0617 6.91295 31.1744 8.5485C31.2865 10.1751 30.2304 11.6156 28.6561 11.9959V13.8104C28.6562 14.2419 28.3065 14.5917 27.875 14.5917Z" fill="#4F2DA7"/>
<path d="M27.8749 17.682C27.6695 17.682 27.4679 17.5992 27.3226 17.4539C27.1774 17.3086 27.0937 17.107 27.0937 16.9008C27.0937 16.6953 27.1773 16.4937 27.3226 16.3484C27.4679 16.2031 27.6695 16.1195 27.8749 16.1195C28.0804 16.1195 28.282 16.2031 28.4273 16.3484C28.5725 16.4937 28.6562 16.6953 28.6562 16.9008C28.6562 17.107 28.5726 17.3078 28.4273 17.4539C28.282 17.5992 28.0804 17.682 27.8749 17.682Z" fill="#4F2DA7"/>
<path d="M21.4844 25.7812H5C4.56859 25.7812 4.21875 25.4315 4.21875 25C4.21875 24.5685 4.56859 24.2188 5 24.2188H21.4844C21.9158 24.2188 22.2656 24.5685 22.2656 25C22.2656 25.4315 21.9159 25.7812 21.4844 25.7812Z" fill="#A38CEB"/>
<path d="M21.4844 30.1562C21.2789 30.1562 21.0773 30.0727 20.932 29.9273C20.7867 29.782 20.7031 29.5805 20.7031 29.375C20.7031 29.1695 20.7866 28.968 20.932 28.8227C21.0773 28.6773 21.2789 28.5938 21.4844 28.5938C21.6898 28.5938 21.8914 28.6773 22.0366 28.8227C22.182 28.968 22.2656 29.1695 22.2656 29.375C22.2656 29.5813 22.182 29.782 22.0366 29.9273C21.8914 30.0727 21.6898 30.1562 21.4844 30.1562Z" fill="#A38CEB"/>
<path d="M18.4115 30.1562H5C4.56859 30.1562 4.21875 29.8065 4.21875 29.375C4.21875 28.9435 4.56859 28.5938 5 28.5938H18.4115C18.8429 28.5938 19.1927 28.9435 19.1927 29.375C19.1927 29.8065 18.843 30.1562 18.4115 30.1562Z" fill="#A38CEB"/>
<path d="M16.4062 21.4062H5C4.56859 21.4062 4.21875 21.0565 4.21875 20.625C4.21875 20.1935 4.56859 19.8438 5 19.8438H16.4062C16.8377 19.8438 17.1875 20.1935 17.1875 20.625C17.1875 21.0565 16.8377 21.4062 16.4062 21.4062Z" fill="#A38CEB"/>
</svg>
