<svg width="30" height="30" viewBox="0 0 30 30" fill="none" xmlns="http://www.w3.org/2000/svg">
<path fill-rule="evenodd" clip-rule="evenodd" d="M15.0001 9.31765C18.1029 9.31765 20.618 11.8104 20.618 14.8853C20.618 16.725 19.058 19.6409 18.2918 21.3253C18.2299 21.4609 18.2023 21.5883 18.2023 21.7372V22.7982V23.1044C18.2023 23.6562 17.8685 24.1064 17.4594 24.1064C15.82 24.1064 14.1803 24.1064 12.5408 24.1064C12.1316 24.1064 11.7978 23.6562 11.7978 23.1044V22.7982V21.7372C11.7978 21.5883 11.7702 21.4609 11.7085 21.3253C10.9422 19.6409 9.3822 16.725 9.3822 14.8853C9.3822 11.8104 11.8974 9.31765 15.0001 9.31765Z" fill="#4F2DA7"/>
<path fill-rule="evenodd" clip-rule="evenodd" d="M12.2473 24.5519H17.7529C18.0006 24.5519 18.2024 24.7521 18.2024 24.9973V25.0199C18.2024 25.2651 18.0006 25.4653 17.7529 25.4653H12.2473C11.9998 25.4653 11.7979 25.2651 11.7979 25.0199V24.9973C11.7979 24.7521 11.9998 24.5519 12.2473 24.5519Z" fill="#4F2DA7"/>
<path fill-rule="evenodd" clip-rule="evenodd" d="M12.8206 25.9105H17.1796C17.4271 25.9105 17.6291 26.1107 17.6291 26.356V26.3785C17.6291 26.624 17.4271 26.824 17.1796 26.824H12.8206C12.5731 26.824 12.3712 26.624 12.3712 26.3785V26.356C12.3712 26.1107 12.5731 25.9105 12.8206 25.9105Z" fill="#4F2DA7"/>
<path fill-rule="evenodd" clip-rule="evenodd" d="M16.5869 27.2694C16.3392 27.6971 15.722 28 15.0001 28C14.2781 28 13.6611 27.6971 13.4133 27.2694H16.5869Z" fill="#4F2DA7"/>
<path fill-rule="evenodd" clip-rule="evenodd" d="M11.8541 14.8853C11.8541 15.162 11.6277 15.3862 11.3485 15.3862C11.0693 15.3862 10.8429 15.162 10.8429 14.8853C10.8429 13.7476 11.3082 12.7175 12.0605 11.972C12.8129 11.2264 13.8522 10.7652 15.0001 10.7652C15.2793 10.7652 15.5058 10.9896 15.5058 11.2663C15.5058 11.543 15.2793 11.7675 15.0001 11.7675C14.1313 11.7675 13.3448 12.1163 12.7755 12.6805C12.2062 13.2447 11.8541 14.0243 11.8541 14.8853Z" fill="white"/>
<path fill-rule="evenodd" clip-rule="evenodd" d="M15.4495 5.59808C15.4495 5.844 15.2481 6.04333 15 6.04333C14.7518 6.04333 14.5505 5.844 14.5505 5.59808V2.44559C14.5505 2.19967 14.7518 2.00012 15 2.00012C15.2481 2.00012 15.4495 2.19967 15.4495 2.44559V5.59808Z" fill="#A998D2"/>
<path fill-rule="evenodd" clip-rule="evenodd" d="M10.7024 6.61947C10.8265 6.83181 10.7534 7.10351 10.5392 7.22657C10.3249 7.34964 10.0506 7.27706 9.92646 7.06472L8.33597 4.33472C8.21185 4.12239 8.28496 3.85047 8.49922 3.72741C8.7135 3.60456 8.98783 3.67692 9.11192 3.88926L10.7024 6.61947Z" fill="#A998D2"/>
<path fill-rule="evenodd" clip-rule="evenodd" d="M7.10692 9.85701C7.3212 9.97921 7.39505 10.2503 7.27194 10.4626C7.14881 10.6749 6.87524 10.7482 6.66099 10.6262L3.90617 9.04993C3.69189 8.92794 3.61802 8.65668 3.74117 8.44434C3.86428 8.23201 4.13785 8.15899 4.3521 8.28098L7.10692 9.85701Z" fill="#A998D2"/>
<path fill-rule="evenodd" clip-rule="evenodd" d="M5.62867 14.4416C5.8759 14.4416 6.07633 14.6403 6.07633 14.8853C6.07633 15.1302 5.8759 15.3289 5.62867 15.3289H2.44768C2.20044 15.3289 2 15.1304 2 14.8853C2 14.6403 2.20044 14.4416 2.44768 14.4416H5.62867Z" fill="#A998D2"/>
<path fill-rule="evenodd" clip-rule="evenodd" d="M6.65957 19.1444C6.87385 19.0216 7.14819 19.094 7.2723 19.3063C7.39639 19.5186 7.32331 19.7905 7.10905 19.9134L4.35426 21.4899C4.13998 21.6127 3.86567 21.5403 3.74155 21.328C3.61744 21.1157 3.69053 20.8438 3.9048 20.7207L6.65957 19.1444Z" fill="#A998D2"/>
<path fill-rule="evenodd" clip-rule="evenodd" d="M22.8929 19.9136C22.6786 19.7914 22.6047 19.5204 22.7278 19.308C22.8511 19.0957 23.1246 19.0225 23.3389 19.1444L26.0938 20.7207C26.3081 20.8427 26.3817 21.1139 26.2586 21.3263C26.1356 21.5386 25.8621 21.6116 25.6478 21.4896L22.8929 19.9136Z" fill="#A998D2"/>
<path fill-rule="evenodd" clip-rule="evenodd" d="M24.3715 15.329C24.1242 15.329 23.9237 15.1305 23.9237 14.8855C23.9237 14.6404 24.1242 14.4417 24.3715 14.4417H27.5525C27.7998 14.4417 28 14.6402 28 14.8852C28 15.1303 27.7998 15.329 27.5525 15.329H24.3715Z" fill="#A998D2"/>
<path fill-rule="evenodd" clip-rule="evenodd" d="M23.3409 10.6261C23.1266 10.7489 22.8523 10.6766 22.7283 10.4642C22.6041 10.2519 22.6772 9.97998 22.8914 9.85692L25.6463 8.28067C25.8606 8.15782 26.1347 8.23018 26.2589 8.44252C26.3831 8.65485 26.3099 8.92677 26.0956 9.04983L23.3409 10.6261Z" fill="#A998D2"/>
<path fill-rule="evenodd" clip-rule="evenodd" d="M20.0735 7.06293C19.9505 7.27527 19.677 7.3485 19.4627 7.22652C19.2484 7.10453 19.1746 6.83349 19.2976 6.62115L20.8882 3.89093C21.0112 3.6786 21.2847 3.60537 21.499 3.72735C21.7133 3.84933 21.7872 4.1206 21.6641 4.33293L20.0735 7.06293Z" fill="#A998D2"/>
</svg>
