<svg xmlns="http://www.w3.org/2000/svg" xmlns:xlink="http://www.w3.org/1999/xlink" width="320" height="200" viewBox="0 0 320 200">
    <defs>
        <linearGradient id="prefix__b" x1="47.468%" x2="29.553%" y1="43.311%" y2="54.547%">
            <stop offset="0%" stop-color="#FFF"/>
            <stop offset="100%" stop-color="#DDD1FF"/>
        </linearGradient>
        <linearGradient id="prefix__d" x1="44.61%" x2="92.673%" y1="51.49%" y2="34.341%">
            <stop offset="0%" stop-color="#B099EC"/>
            <stop offset="100%" stop-color="#FFF"/>
        </linearGradient>
        <path id="prefix__a" d="M0 0H320V200H0z"/>
    </defs>
    <g fill="none" fill-rule="evenodd">
        <mask id="prefix__c" fill="#fff">
            <use xlink:href="#prefix__a"/>
        </mask>
        <use fill="#FCFAFF" xlink:href="#prefix__a"/>
        <path fill="url(#prefix__b)" d="M208.348 230.11c23.13-38.667 54.927-58 95.39-58 60.696 0 70.418 51.757 143.617 58H208.348z" mask="url(#prefix__c)"/>
        <path fill="url(#prefix__d)" fill-rule="nonzero" d="M20.347 38.846C7.183 31.77.4 18.82 0 0h212c3.314 0 6 2.686 6 6v103.254C212.187 119.572 198.38 122 177.307 122c-21.073 0-50.14-3.035-64.673-30.955-14.534-27.92-9.536-35.083-29.067-46.13-19.53-11.046-43.473 4.544-63.22-6.07z" mask="url(#prefix__c)" opacity=".259" transform="matrix(-1 0 0 1 218 0)"/>
        <g mask="url(#prefix__c)">
            <g transform="translate(208 10)">
                <ellipse cx="80" cy="98.534" fill="#70C1AB" opacity=".335" rx="80" ry="6.466"/>
                <g>
                    <path fill="#FFEB8A" d="M60.156 93.91c-26.45 0-45.55-20.347-45.55-46.452C14.606 21.354 36.047.193 62.497.193s47.892 21.161 47.892 47.265c0 26.105-23.783 46.453-50.233 46.453z" transform="translate(16.469)"/>
                    <path fill="#D7D6D1" d="M48.328 93.786c0 .943-.775 1.708-1.731 1.708H4.727c-.956 0-1.73-.765-1.73-1.708V62.18c0-.943.774-1.708 1.73-1.708h41.87c.956 0 1.73.765 1.73 1.708v31.606M120.454 93.786c0 .943-.775 1.708-1.73 1.708h-41.87c-.956 0-1.731-.765-1.731-1.708V62.18c0-.943.775-1.708 1.73-1.708h41.87c.956 0 1.731.765 1.731 1.708v31.606" transform="translate(16.469)"/>
                    <path fill="#102F50" d="M45.731 60.614c0 .944-.775 1.709-1.73 1.709H1.733c-.956 0-1.73-.765-1.73-1.709v-.427c0-.943.774-1.708 1.73-1.708H44c.956 0 1.731.765 1.731 1.708v.427M123.628 60.614c0 .944-.775 1.709-1.731 1.709H79.63c-.955 0-1.73-.765-1.73-1.709v-.427c0-.943.775-1.708 1.73-1.708h42.267c.956 0 1.73.765 1.73 1.708v.427" transform="translate(16.469)"/>
                    <path fill="#D7D6D1" d="M68.812 33.992c0-.944-.775-1.708-1.732-1.708H55.54c-.956 0-1.73.764-1.73 1.708v11.46c0 .944.774 1.709 1.73 1.709h11.54c.957 0 1.732-.765 1.732-1.709v-11.46" transform="translate(16.469)"/>
                    <path fill="#EEEEEA" d="M80.64 93.786c0 .943-.775 1.708-1.73 1.708H43.711c-.956 0-1.731-.765-1.731-1.708V48.513c0-.943.775-1.708 1.73-1.708H78.91c.956 0 1.731.765 1.731 1.708v45.273" transform="translate(16.469)"/>
                    <path fill="#102F50" d="M82.083 46.947c0-.943-.783-1.708-1.75-1.708H42.287c-.966 0-1.749.765-1.749 1.708v.427c0 .944.783 1.709 1.75 1.709h38.045c.967 0 1.75-.765 1.75-1.709v-.427" transform="translate(16.469)"/>
                    <path fill="#F9F8F6" d="M66.215 39.117c0 2.673-2.196 4.84-4.905 4.84-2.708 0-4.904-2.167-4.904-4.84s2.196-4.84 4.904-4.84c2.71 0 4.905 2.167 4.905 4.84" transform="translate(16.469)"/>
                    <path fill="#AB262A" d="M64.43 37.647H62.8v-1.609c0-.304-.25-.551-.558-.551h-1.863c-.308 0-.559.247-.559.551v1.609h-1.63c-.308 0-.558.247-.558.551v1.838c0 .305.25.552.559.552h1.63v1.608c0 .304.25.551.558.551h1.863c.308 0 .558-.247.558-.551v-1.608h1.63c.309 0 .559-.247.559-.552v-1.838c0-.304-.25-.551-.559-.551" transform="translate(16.469)"/>
                    <path fill="#ABACA8" d="M51.213 95.494L71.601 95.494 71.601 77.983 51.213 77.983z" transform="translate(16.469)"/>
                    <path fill="#D7D6D1" d="M54.891 95.494L67.874 95.494 67.874 77.983 54.891 77.983z" transform="translate(16.469)"/>
                    <path fill="#ABACA8" d="M60.733 95.494L61.936 95.494 61.936 77.698 60.733 77.698z" transform="translate(16.469)"/>
                    <path fill="#102F50" d="M73.572 77.698c0 .944-.775 1.709-1.731 1.709H51.068c-.956 0-1.73-.765-1.73-1.709 0-.943.774-1.708 1.73-1.708h20.773c.956 0 1.73.765 1.73 1.708" transform="translate(16.469)"/>
                    <path fill="#153C42" d="M60.156 87.142c0 .223-.183.403-.408.403h-1.635c-.226 0-.409-.18-.409-.403 0-.223.183-.403.409-.403h1.635c.225 0 .408.18.408.403M64.917 87.142c0 .223-.183.403-.409.403h-1.635c-.226 0-.409-.18-.409-.403 0-.223.183-.403.409-.403h1.635c.226 0 .409.18.409.403" transform="translate(16.469)"/>
                    <path fill="#B1D5FE" d="M26.233 65.028h-6.059c-.956 0-1.73.765-1.73 1.708v5.98c0 .943.774 1.708 1.73 1.708h6.06c.955 0 1.73-.765 1.73-1.709v-5.979c0-.943-.775-1.708-1.73-1.708M40.065 66.51c-.112-.836-.836-1.482-1.715-1.482h-6.058c-.956 0-1.731.765-1.731 1.708v5.98c0 .048.003.096.007.143.074.876.817 1.565 1.724 1.565h6.058c.956 0 1.731-.765 1.731-1.709v-5.979c0-.076-.007-.151-.016-.225M38.35 76.417h-6.058c-.956 0-1.731.765-1.731 1.709v5.979c0 .214.041.418.114.606.248.644.877 1.102 1.617 1.102h6.058c.956 0 1.731-.765 1.731-1.708v-5.98c0-.943-.775-1.708-1.73-1.708" transform="translate(16.469)"/>
                    <path fill="#35AFB5" d="M14.253 65.052c-.092-.014-.186-.024-.281-.024H7.913c-.956 0-1.731.765-1.731 1.708v5.98c0 .943.775 1.708 1.731 1.708h6.059c.956 0 1.73-.765 1.73-1.709v-5.979c0-.848-.627-1.55-1.45-1.684M14.2 76.434c-.074-.01-.15-.017-.228-.017H7.913c-.956 0-1.731.765-1.731 1.709v5.979c0 .231.047.452.132.653.26.62.877 1.055 1.599 1.055h6.059c.956 0 1.73-.765 1.73-1.708v-5.98c0-.866-.654-1.58-1.501-1.691" transform="translate(16.469)"/>
                    <path fill="#B1D5FE" d="M27.019 76.605c-.236-.12-.503-.188-.786-.188h-6.059c-.956 0-1.73.765-1.73 1.709v5.979c0 .943.774 1.708 1.73 1.708h6.06c.955 0 1.73-.765 1.73-1.708v-5.98c0-.663-.384-1.237-.945-1.52M64.388 51.076h-6.059c-.956 0-1.73.765-1.73 1.708v5.98l.002.048c.026.921.789 1.66 1.728 1.66h6.059c.956 0 1.73-.765 1.73-1.708v-5.98c0-.943-.774-1.708-1.73-1.708M76.505 51.076h-6.059c-.956 0-1.73.765-1.73 1.708v5.98c0 .235.048.459.135.663.262.614.878 1.045 1.595 1.045h6.06c.054 0 .107-.003.16-.008.867-.08 1.547-.789 1.568-1.66l.002-.04v-5.98c0-.943-.775-1.708-1.73-1.708M52.954 62.673c-.246-.132-.528-.208-.828-.208h-6.058c-.956 0-1.731.765-1.731 1.708v5.98c0 .447.175.853.46 1.157.316.338.768.551 1.27.551h6.06c.51 0 .968-.22 1.285-.567.066-.144.156-.28.271-.402l.005-.005c.107-.222.17-.47.17-.734v-5.98c0-.647-.366-1.21-.904-1.5M76.505 62.465h-6.059c-.956 0-1.73.765-1.73 1.708v5.98c0 .943.774 1.708 1.73 1.708h6.06c.955 0 1.73-.765 1.73-1.708v-5.98c0-.943-.775-1.708-1.73-1.708M52.126 51.076h-6.058c-.956 0-1.731.765-1.731 1.708v5.98c0 .943.775 1.708 1.73 1.708h6.06c.955 0 1.73-.765 1.73-1.708v-5.98c0-.943-.775-1.708-1.73-1.708M64.388 62.465h-6.059c-.956 0-1.73.765-1.73 1.708v5.98c0 .595.308 1.119.776 1.425.274.179.601.283.954.283h6.059c.956 0 1.73-.765 1.73-1.708v-5.98c0-.498-.217-.945-.562-1.258-.308-.278-.717-.45-1.168-.45M91.435 65.028h-6.058c-.957 0-1.732.765-1.732 1.708v5.98c0 .943.775 1.708 1.732 1.708h6.058c.956 0 1.731-.765 1.731-1.709v-5.979c0-.943-.775-1.708-1.73-1.708M91.435 76.417h-6.058c-.957 0-1.732.765-1.732 1.709v5.979c0 .943.775 1.708 1.732 1.708h6.058c.956 0 1.731-.765 1.731-1.708v-5.98c0-.119-.012-.235-.036-.348-.163-.776-.86-1.36-1.695-1.36" transform="translate(16.469)"/>
                    <path fill="#EDF6FE" d="M27.019 76.605l-6.827 7.205c-.349.368-.329.946.044 1.29l.506.467c.373.345.959.325 1.307-.043l5.915-6.242v-1.156c0-.664-.384-1.238-.945-1.521M38.927 78.122l-.46-.424c-.338-.312-.868-.294-1.184.04l-6.608 6.973c.248.644.877 1.102 1.617 1.102h.495l6.18-6.522c.315-.334.298-.857-.04-1.17M53.857 52.784c0-.943-.775-1.708-1.73-1.708h-1.46l-6.33 6.702v.986c0 .943.775 1.708 1.73 1.708h.656l7.134-7.555v-.133" transform="translate(16.469)"/>
                    <path fill="#A6D7D0" d="M53.857 58.764V57.12l-3.164 3.351h1.433c.956 0 1.731-.765 1.731-1.708" transform="translate(16.469)"/>
                    <path fill="#EDF6FE" d="M56.6 58.812l3.97-4.204c.575-.607.54-1.56-.075-2.125l-.093-.086c-.615-.566-1.58-.533-2.154.075l-1.65 1.747v4.545l.003.048M52.126 62.465h-3.315l-4.474 4.738v2.95c0 .447.175.853.46 1.157l8.157-8.637c-.246-.132-.528-.208-.828-.208" transform="translate(16.469)"/>
                    <path fill="#A6D7D0" d="M64.388 60.472c.956 0 1.73-.765 1.73-1.708v-1.04l-2.594 2.748h.864" transform="translate(16.469)"/>
                    <path fill="#EDF6FE" d="M76.502 51.076h-4.105l-3.682 3.898v3.79c0 .235.049.459.136.663l7.3-7.73c.172-.182.288-.396.351-.621" transform="translate(16.469)"/>
                    <path fill="#A6D7D0" d="M53.683 70.892c-.115.122-.205.258-.27.402.11-.121.203-.258.275-.407l-.005.005" transform="translate(16.469)"/>
                    <path fill="#EDF6FE" d="M61.641 62.465l-5.043 5.34v2.348c0 .595.31 1.119.777 1.425l8.18-8.663c-.307-.278-.716-.45-1.167-.45H61.64M76.666 60.464l1.568-1.66.002-.04v-3.23l-4.663 4.938h2.932c.055 0 .108-.003.161-.008M68.715 65.616v3.26c.023-.02.044-.04.065-.061l5.997-6.35H71.69l-2.976 3.15M38.35 65.028h-.362l-7.42 7.831c.074.876.817 1.565 1.724 1.565h.275l7.498-7.913c-.112-.837-.836-1.483-1.715-1.483M8.715 72.729l.694.64c.511.472 1.314.446 1.792-.059l4.502-4.751v-1.823c0-.848-.628-1.55-1.45-1.684L8.655 70.96c-.478.505-.451 1.297.06 1.769M20.174 74.424h.703l4.278-4.515c.478-.504.45-1.296-.06-1.768l-.695-.64c-.511-.472-1.313-.446-1.791.059l-4.166 4.396v.76c0 .943.775 1.708 1.731 1.708" transform="translate(16.469)"/>
                    <path fill="#A6D7D0" d="M15.703 78.126c0-.867-.655-1.581-1.502-1.692l-7.887 8.324c.26.62.877 1.055 1.599 1.055h2.173l5.617-5.928v-1.76M9.47 78.125l-.374-.345c-.276-.255-.709-.24-.966.032l-1.948 2.055v2.717l3.321-3.505c.258-.272.244-.699-.032-.954" transform="translate(16.469)"/>
                    <path fill="#EDF6FE" d="M85.377 74.424h.8l6.99-7.401v-.287c0-.943-.776-1.708-1.732-1.708h-2.014l-5.776 6.116v1.571c0 .944.775 1.709 1.732 1.709M87.618 81.838l.069.064c.457.42 1.174.395 1.6-.056l3.843-4.069c-.163-.776-.86-1.36-1.695-1.36h-.245l-3.628 3.842c-.427.452-.401 1.158.056 1.58M93.166 84.105v-1.613l-3.136 3.321h1.405c.956 0 1.731-.765 1.731-1.708" transform="translate(16.469)"/>
                    <path fill="#009E71" d="M16.329 76.464c0 8.643-3.589 12.178-8.016 12.178S.298 85.107.298 76.464s4.829-16.46 8.015-16.46c2.649 0 8.016 7.817 8.016 16.46" transform="translate(16.469)"/>
                    <path fill="#89520C" d="M9.65 98.72c0 .506-.417.917-.93.917h-.813c-.514 0-.93-.41-.93-.917V76.565c0-.507.416-.917.93-.917h.813c.513 0 .93.41.93.917V98.72" transform="translate(16.469)"/>
                    <path fill="#3993FC" d="M55.23 82.956H27.254c-.854 0-.988.515-1.547 1.323l-3.69 6.183h-5.162c-.854 0-1.547.572-1.547 1.278v8.09c0 .706.693 1.277 1.547 1.277h38.373c.585 0 1.08-.372 1.26-.889l.007-.018c.005-.013.009-.025.012-.038.035-.106.055-.217.055-.332V84.272c0-.727-.597-1.316-1.334-1.316" transform="translate(16.469)"/>
                    <path fill="#102F50" d="M25.683 88.628c-.614 0-1.132.765-1.132 1.67v6.862c0 .906.518 1.671 1.132 1.671h7.564c.614 0 1.132-.765 1.132-1.67v-6.862c0-.906-.518-1.671-1.132-1.671h-7.564zm7.564 10.782h-7.564c-.956 0-1.734-1.009-1.734-2.25V90.3c0-1.24.778-2.25 1.734-2.25h7.564c.956 0 1.734 1.01 1.734 2.25v6.861c0 1.241-.778 2.25-1.734 2.25z" transform="translate(16.469)"/>
                    <path fill="#082549" d="M28.213 83.85c-.6 0-.695.363-1.088.932 0 0-2.748 4.273-2.84 4.759-.097.505.487.931 1.087.931h9.61V83.85h-6.769" transform="translate(16.469)"/>
                    <path fill="#597390" d="M31.294 85.632c-.202-.177-.511-.158-.69.04l-4.309 4.8h1.307l3.734-4.16c.179-.199.16-.504-.042-.68M34.107 83.85L29.6 88.87c-.179.2-.16.505.042.681.202.177.51.159.69-.04l4.65-5.18v-.48h-.875" transform="translate(16.469)"/>
                    <path fill="#1B5ABF" d="M28.13 84.07c-.359 0-.45.145-.693.535-.057.092-.12.193-.193.3-1.285 2.04-2.689 4.377-2.75 4.677-.023.12.012.237.104.348.161.196.455.323.748.323h9.2V84.07H28.13zm6.851 6.621h-9.635c-.424 0-.839-.184-1.083-.48-.174-.211-.244-.464-.197-.71.094-.503 2.36-4.117 2.814-4.837.074-.109.133-.204.188-.292.258-.414.462-.741 1.063-.741h6.85v7.06z" transform="translate(16.469)"/>
                    <path fill="#F9F8F6" d="M34.67 92.376c0 .19-.156.344-.348.344h-1.775c-.193 0-.349-.154-.349-.344 0-.19.156-.344.349-.344h1.775c.192 0 .348.154.348.344" transform="translate(16.469)"/>
                    <path fill="#C0C0BB" d="M15.426 92.302c0-.046.007-.09.016-.133-.027-.008-.056-.013-.086-.013-.141 0-.255.093-.255.209v2.268c0 .115.114.209.255.209.031 0 .061-.006.09-.014-.012-.047-.02-.095-.02-.145v-2.38" transform="translate(16.469)"/>
                    <path fill="#F9F8F6" d="M15.9 91.765c-.221 0-.405.172-.458.404-.01.043-.016.087-.016.133v2.38c0 .051.008.1.02.146.056.225.237.392.454.392.262 0 .474-.24.474-.537v-2.38c0-.297-.212-.538-.474-.538" transform="translate(16.469)"/>
                    <path fill="#D7D6D1" d="M54.004 96.54h-.998c-.368 0-.666.335-.666.75 0 0 .252.555.515.987.209.342.426.608.793.608h2.915V96.54h-2.56" transform="translate(16.469)"/>
                    <path fill="#252E2F" d="M56.99 100.469c0 .353-.29.638-.65.638H15.752c-.36 0-.65-.285-.65-.638 0-.353.29-.639.65-.639H56.34c.36 0 .65.286.65.639" transform="translate(16.469)"/>
                    <path fill="#CB2F34" d="M54.249 98.631L56.563 98.631 56.563 96.775 54.249 96.775z" transform="translate(16.469)"/>
                    <path fill="#EB8B2D" d="M53.347 96.775c-.333 0-.602.266-.602.594 0 0 .228.439.466.78.188.272.384.482.716.482h.322v-1.856h-.902" transform="translate(16.469)"/>
                    <path fill="#596F86" d="M23.112 96.663c-2.488 0-4.504 1.99-4.504 4.444h9.007c0-2.454-2.016-4.444-4.503-4.444" transform="translate(16.469)"/>
                    <path fill="#252E2F" d="M27.054 101.107c0 2.15-1.765 3.892-3.942 3.892-2.178 0-3.943-1.742-3.943-3.892 0-2.149 1.765-3.89 3.943-3.89 2.177 0 3.942 1.741 3.942 3.89" transform="translate(16.469)"/>
                    <path fill="#596F86" d="M48.013 96.663c-2.487 0-4.503 1.99-4.503 4.444h9.007c0-2.454-2.017-4.444-4.504-4.444" transform="translate(16.469)"/>
                    <path fill="#252E2F" d="M51.956 101.107c0 2.15-1.765 3.892-3.943 3.892-2.177 0-3.943-1.742-3.943-3.892 0-2.149 1.766-3.89 3.943-3.89 2.178 0 3.943 1.741 3.943 3.89" transform="translate(16.469)"/>
                    <path fill="#3993FC" d="M26.041 101.107c0 1.6-1.314 2.897-2.935 2.897-1.62 0-2.935-1.296-2.935-2.897 0-1.6 1.314-2.896 2.935-2.896s2.935 1.297 2.935 2.896" transform="translate(16.469)"/>
                    <path fill="#EEEEEA" d="M25.641 101.107c0 1.38-1.133 2.497-2.53 2.497-1.396 0-2.529-1.118-2.529-2.497 0-1.378 1.133-2.496 2.53-2.496 1.396 0 2.529 1.118 2.529 2.496" transform="translate(16.469)"/>
                    <path fill="#252E2F" d="M23.807 101.107c0 .382-.314.692-.7.692-.388 0-.701-.31-.701-.692 0-.382.313-.691.7-.691.387 0 .7.31.7.691" transform="translate(16.469)"/>
                    <path fill="#3993FC" d="M50.959 101.107c0 1.6-1.314 2.897-2.935 2.897s-2.935-1.296-2.935-2.897c0-1.6 1.314-2.896 2.935-2.896 1.62 0 2.935 1.297 2.935 2.896" transform="translate(16.469)"/>
                    <path fill="#EEEEEA" d="M50.558 101.107c0 1.38-1.132 2.497-2.53 2.497-1.396 0-2.528-1.118-2.528-2.497 0-1.378 1.132-2.496 2.529-2.496s2.53 1.118 2.53 2.496" transform="translate(16.469)"/>
                    <path fill="#252E2F" d="M48.724 101.107c0 .382-.313.692-.7.692-.387 0-.7-.31-.7-.692 0-.382.313-.691.7-.691.387 0 .7.31.7.691" transform="translate(16.469)"/>
                    <path fill="#EEEEEA" d="M49.412 88.077H46.82v-2.558c0-.27-.221-.489-.495-.489h-1.65c-.274 0-.496.219-.496.489v2.558h-2.591c-.274 0-.496.218-.496.488v1.63c0 .27.222.488.496.488h2.591v2.558c0 .27.222.488.495.488h1.651c.274 0 .495-.218.495-.488v-2.558h2.592c.273 0 .495-.218.495-.489v-1.629c0-.27-.222-.488-.495-.488" transform="translate(16.469)"/>
                    <path fill="#313880" d="M30.807 81.539c-.396 0-.718.317-.718.708 0 .391.322.709.718.709h.687l1.116-1.417h-1.803" transform="translate(16.469)"/>
                    <path fill="#D1242E" d="M36.56 81.539H33.19l-1.115 1.417h4.484c.396 0 .718-.318.718-.709 0-.391-.322-.708-.718-.708" transform="translate(16.469)"/>
                    <path fill="#949590" d="M32.61 81.539L31.494 82.956 32.076 82.956 33.191 81.539 32.61 81.539" transform="translate(16.469)"/>
                    <path fill="#EFE9FC" d="M6.39 18.715c0-3.295 2.87-5.966 6.412-5.966.853 0 1.667.157 2.411.438-.004-.088-.007-.176-.007-.265 0-3.512 2.841-6.359 6.346-6.359 3.216 0 5.873 2.4 6.287 5.51.308-.075.628-.116.96-.116 1.512 0 2.83.838 3.522 2.08.444-.102.909-.157 1.386-.157 3.21 0 5.811 2.418 5.811 5.4s-2.601 5.4-5.81 5.4c-.185 0-.367-.008-.547-.024-.079.016-.16.024-.244.024H12.03c-.192 0-.372-.045-.532-.124-2.916-.56-5.108-2.963-5.108-5.841" transform="translate(16.469)"/>
                    <path fill="#F9F8F6" d="M51.364 17.057c0-2.888-2.517-5.23-5.622-5.23-.747 0-1.46.137-2.113.384.003-.077.006-.155.006-.233 0-3.078-2.491-5.574-5.563-5.574-2.82 0-5.149 2.104-5.512 4.83-.27-.066-.551-.102-.841-.102-1.326 0-2.482.736-3.089 1.823-.39-.088-.796-.136-1.215-.136-2.814 0-5.094 2.12-5.094 4.734s2.28 4.734 5.094 4.734c.161 0 .321-.008.479-.022.069.015.14.022.213.022H46.42c.168 0 .326-.04.467-.109 2.556-.491 4.478-2.597 4.478-5.121M85.61 31.856c0-3.246 2.828-5.878 6.317-5.878.84 0 1.642.155 2.375.432-.004-.087-.007-.174-.007-.261 0-3.46 2.799-6.265 6.251-6.265 3.17 0 5.786 2.365 6.194 5.429.303-.075.62-.115.946-.115 1.49 0 2.788.826 3.47 2.048.438-.1.895-.153 1.367-.153 3.161 0 5.724 2.382 5.724 5.32s-2.563 5.32-5.724 5.32H91.166c-.189 0-.367-.045-.525-.122-2.872-.553-5.031-2.92-5.031-5.755" transform="translate(16.469)"/>
                </g>
            </g>
        </g>
        <g fill="#4F2DA7">
            <text font-family="WorkSans-SemiBold, Work Sans" font-size="20" font-weight="500" transform="translate(20 20)">
                <tspan x="0" y="22">10,000+ cashless </tspan> <tspan x="0" y="51">hospitals</tspan>
            </text>
            <text font-family="WorkSans-Medium, Work Sans" font-size="16" font-weight="400" transform="translate(20 20)">
                <tspan x="0" y="130">Avail cashless hospitalization </tspan> <tspan x="0" y="154">with no limit on room rent</tspan>
            </text>
        </g>
    </g>
</svg>
