<svg width="30" height="30" viewBox="0 0 26 30" fill="none" xmlns="http://www.w3.org/2000/svg">
<path d="M22.5333 30H3.46667C1.5522 30 0 28.5861 0 26.8421V3.15789C0 1.41395 1.5522 0 3.46667 0H9.53333H16.4667H22.5333C24.4478 0 26 1.41395 26 3.15789V26.8421C26 28.5861 24.4478 30 22.5333 30Z" fill="#EAE4FE"/>
<path d="M24 3.53846C24 2.68923 23.2418 2 22.3077 2H16.3846C16.3846 3.69923 14.8692 5.07692 13 5.07692C11.1308 5.07692 9.61538 3.69923 9.61538 2H3.69231C2.75815 2 2 2.68923 2 3.53846V20H24V3.53846Z" fill="#AD95D6"/>
<path d="M24 22H2V26C2 27.104 2.75815 28 3.69231 28H22.3077C23.2418 28 24 27.104 24 26V22Z" fill="#AD95D6"/>
<path fill-rule="evenodd" clip-rule="evenodd" d="M16 25C16 24.4477 16.4477 24 17 24H21C21.5523 24 22 24.4477 22 25C22 25.5523 21.5523 26 21 26H17C16.4477 26 16 25.5523 16 25Z" fill="white"/>
<rect x="4" y="24" width="10" height="2" rx="1" fill="white"/>
<path d="M7 20C7.15061 19.6281 7.42771 19.0218 7.75632 18.5855C7.77262 18.5766 8.30921 17.4873 11.015 17.4551C11.0189 17.4419 11.0215 16.7971 11.0293 16.8066C10.8207 16.6791 10.5488 16.4808 10.3441 16.2913C10.1778 16.1928 9.58712 15.6415 9.39739 14.6602C9.34067 14.3179 9.07922 12.7033 9.07922 12.0295C9.07922 10.027 9.90399 8 12.9606 8C12.9742 8 13.0258 8 13.0394 8C16.096 8 16.9208 10.027 16.9208 12.0295C16.9208 12.7033 16.6593 14.3179 16.6026 14.6602C16.4129 15.6415 15.8228 16.1928 15.6559 16.2913C15.4518 16.4814 15.18 16.6791 14.9707 16.8066C14.9791 16.7971 14.9824 17.4425 14.985 17.4551C17.6914 17.4873 18.228 18.5766 18.2437 18.5855C18.5723 19.0218 18.8494 19.6281 19 20H7Z" fill="#5721AE"/>
</svg>
