<svg width="50" height="40" viewBox="0 0 31 40" fill="none" xmlns="http://www.w3.org/2000/svg">
<path d="M25.0684 2.7284H0.852668C0.381752 2.7284 0 3.11015 0 3.58107V38.711C0 39.1819 0.381752 39.5636 0.852668 39.5636H25.0684C25.5393 39.5636 25.9211 39.1819 25.9211 38.711V3.58107C25.9211 3.11015 25.5393 2.7284 25.0684 2.7284Z" fill="#A998D2"/>
<mask id="path-2-inside-1" fill="white">
<path d="M23.1926 36.153V36.8351H2.72861V5.45696H23.1926V22.5103"/>
</mask>
<path d="M23.1926 36.153V36.8351H2.72861V5.45696H23.1926V22.5103" fill="#A998D2"/>
<path d="M23.1926 36.8351V37.8351H24.1926V36.8351H23.1926ZM2.72861 36.8351H1.72861V37.8351H2.72861V36.8351ZM2.72861 5.45696V4.45696H1.72861V5.45696H2.72861ZM23.1926 5.45696H24.1926V4.45696H23.1926V5.45696ZM22.1926 36.153V36.8351H24.1926V36.153H22.1926ZM23.1926 35.8351H2.72861V37.8351H23.1926V35.8351ZM3.72861 36.8351V5.45696H1.72861V36.8351H3.72861ZM2.72861 6.45696H23.1926V4.45696H2.72861V6.45696ZM22.1926 5.45696V22.5103H24.1926V5.45696H22.1926Z" fill="white" mask="url(#path-2-inside-1)"/>
<path d="M15.1192 2.17143L15.2161 2.54628H15.6033H19.9642V6.65068C19.9642 6.74422 19.927 6.83392 19.8609 6.90005C19.7948 6.96619 19.7051 7.00335 19.6115 7.00335H6.30991C6.21638 7.00335 6.12668 6.96619 6.06054 6.90005C5.9944 6.83392 5.95724 6.74421 5.95724 6.65068V2.54628H10.3181H10.7053L10.8022 2.17143C10.9259 1.69301 11.205 1.26925 11.5957 0.966706C11.9864 0.664166 12.4666 0.5 12.9607 0.5C13.4549 0.5 13.935 0.664166 14.3257 0.966706C14.7164 1.26925 14.9955 1.69301 15.1192 2.17143Z" fill="#A998D2" stroke="white"/>
<path d="M4.77515 25.2389H12.9608V26.6031H4.77515V25.2389Z" fill="#EAE5F4"/>
<path d="M14.3247 25.2389H17.0532V26.6031H14.3247V25.2389Z" fill="#EAE5F4"/>
<path d="M4.77515 28.6495H8.86795V30.0138H4.77515V28.6495Z" fill="#EAE5F4"/>
<path d="M10.232 28.6495H16.232V30.0138H10.232V28.6495Z" fill="#EAE5F4"/>
<path d="M4.77515 32.0602H12.9608V33.4244H4.77515V32.0602Z" fill="#EAE5F4"/>
<path d="M12.9607 20.4639C15.2211 20.4639 17.0535 18.6315 17.0535 16.3711C17.0535 14.1107 15.2211 12.2783 12.9607 12.2783C10.7003 12.2783 8.86789 14.1107 8.86789 16.3711C8.86789 18.6315 10.7003 20.4639 12.9607 20.4639Z" fill="#EAE5F4"/>
<path d="M19.782 17.7354V15.0068H18.4178V15.689H17.687C17.5733 14.8992 17.2624 14.1509 16.7832 13.513L17.3015 12.9947L17.7839 13.4771L18.7485 12.5124L16.8192 10.583L15.8545 11.5476L16.3368 12.03L15.8186 12.5483C15.1807 12.0692 14.4324 11.7585 13.6428 11.6448V10.914H14.325V9.54976H11.5964V10.914H12.2786V11.6448C11.4888 11.7585 10.7405 12.0694 10.1025 12.5486L9.58429 12.0303L10.0666 11.5479L9.10194 10.5833L7.17261 12.5126L8.13723 13.4773L8.61958 12.995L9.13792 13.5132C8.65883 14.1511 8.34808 14.8994 8.23435 15.689H7.50361V15.0068H6.13934V17.7354H7.50361V17.0532H8.23435C8.34811 17.843 8.65895 18.5913 9.13818 19.2292L8.61984 19.7475L8.13748 19.2651L7.17286 20.2299L9.10219 22.1592L10.0669 21.1946L9.58455 20.7122L10.1028 20.1939C10.7407 20.673 11.4889 20.9837 12.2786 21.0974V21.8282H11.5964V23.1924H14.325V21.8282H13.6428V21.0974C14.4325 20.9837 15.1809 20.6728 15.8188 20.1936L16.3371 20.712L15.8547 21.1943L16.8194 22.1589L18.7488 20.2296L17.7841 19.2649L17.3018 19.7472L16.7834 19.229C17.2625 18.5911 17.5733 17.8429 17.687 17.0532H18.4178V17.7354H19.782ZM12.9607 19.7818C12.2861 19.7818 11.6267 19.5817 11.0658 19.207C10.5049 18.8322 10.0678 18.2995 9.80964 17.6763C9.55149 17.0531 9.48395 16.3673 9.61555 15.7057C9.74715 15.0441 10.072 14.4364 10.549 13.9594C11.026 13.4824 11.6337 13.1576 12.2953 13.026C12.9569 12.8944 13.6427 12.9619 14.2659 13.2201C14.8891 13.4782 15.4218 13.9154 15.7966 14.4762C16.1713 15.0371 16.3714 15.6965 16.3714 16.3711C16.3703 17.2754 16.0107 18.1423 15.3713 18.7817C14.7319 19.4211 13.8649 19.7808 12.9607 19.7818Z" fill="#4F2DA7"/>
<path d="M7.50339 4.09268H8.86766V5.45695H7.50339V4.09268Z" fill="#EAE5F4"/>
<path d="M17.0533 4.09268H18.4176V5.45695H17.0533V4.09268Z" fill="#EAE5F4"/>
<path d="M12.2785 2.04628H13.6428V3.41055H12.2785V2.04628Z" fill="#EAE5F4"/>
<path d="M21.9156 38.0804C19.7481 36.5201 18.2998 34.265 17.8276 31.7324L17.8237 31.7098L17.2677 28.2583L23.7265 25.4432L30.1853 28.2582L29.6222 31.7456L29.6207 31.7534C29.6207 31.7535 29.6207 31.7537 29.6207 31.7538C29.1443 34.3102 27.6771 36.5795 25.4788 38.1415L23.7283 39.3853L21.9156 38.0804L21.6234 38.4861L21.9156 38.0804Z" fill="#4F2DA7" stroke="#FAFEFF"/>
<path d="M27.498 30.8622H24.8104V28.1746H22.6603V30.8622H19.9727V33.0122H22.6603V35.6998H24.8104V33.0122H27.498V30.8622Z" fill="#FAFEFF"/>
</svg>
