<svg width="30" height="30" viewBox="0 0 30 30" fill="none" xmlns="http://www.w3.org/2000/svg">
<path d="M26.7857 10.0001H21.4286V15H26.7857V10.0001Z" fill="#EAE4FE"/>
<path d="M20.3571 16H15.5357V21H20.3571V16Z" fill="#EAE4FE"/>
<path d="M20.3571 10.0001H15.5357V15H20.3571V10.0001Z" fill="#5721AE"/>
<path d="M8 10H3V15H8V10Z" fill="#EAE4FE"/>
<path d="M14.4643 16H9.64285V21H14.4643V16Z" fill="#EAE4FE"/>
<path d="M14.4642 10H9.64282V15H14.4642V10Z" fill="#EAE4FE"/>
<path d="M27.6423 1.99998H25.7143V0.499981C25.7143 0.224004 25.4743 0 25.1786 0H21.4285C21.1328 0 20.8928 0.224004 20.8928 0.499981V1.99998H9.10709V0.499981C9.10709 0.224004 8.86709 0 8.5714 0H4.82142C4.52574 0 4.28573 0.224004 4.28573 0.499981V1.99998H2.35766C1.05801 1.99998 0 2.98746 0 4.20047V6.99996H30V4.20053C29.9999 2.98752 28.9419 1.99998 27.6423 1.99998ZM8.03571 2.50002V4.00002H5.35712V2.50002V1.00002H8.03571V2.50002ZM24.6428 2.50002V4.00002H21.9642V2.50002V1.00002H24.6428V2.50002Z" fill="#EAE4FE"/>
<path d="M8.57141 16H3.21429V21H8.57141V16Z" fill="#EAE4FE"/>
<path d="M26.7857 16H21.4286V21H26.7857V16Z" fill="#EAE4FE"/>
<path d="M20.3571 22.0001H15.5357V27H20.3571V22.0001Z" fill="#EAE4FE"/>
<path d="M26.7857 22.0001H21.4286V27H26.7857V22.0001Z" fill="#EAE4FE"/>
<path d="M0 29.5C0 29.776 0.240004 30 0.535693 30H29.4642C29.7599 30 29.9999 29.776 29.9999 29.5V7.99998H0V29.5ZM2.14283 21.5V15.5V9.49998C2.14283 9.22401 2.38284 9 2.67853 9H9.10709H15H20.8928H27.3214C27.6171 9 27.8571 9.22401 27.8571 9.49998V15.5V21.5V27.5C27.8571 27.776 27.6171 28 27.3214 28H20.8928H15H9.10709H2.67853C2.38284 28 2.14283 27.776 2.14283 27.5V21.5Z" fill="#AD95D6"/>
<path d="M8.57141 22.0001H3.21429V27H8.57141V22.0001Z" fill="#EAE4FE"/>
<path d="M14.4643 22.0001H9.64285V27H14.4643V22.0001Z" fill="#EAE4FE"/>
</svg>
