<svg width="320" height="160" viewBox="0 0 320 160" fill="none" xmlns="http://www.w3.org/2000/svg">
<path d="M286.152 156.902C280.95 159.878 90.7911 159.571 67.2598 159.571C57.5144 159.571 48.735 161.818 41.9161 156.024C34.8056 149.981 29.2395 141.241 23.9939 134.105C13.1583 119.365 4.40752 103.224 3.13078 85.9416C2.64303 79.3152 3.37943 72.3361 7.75002 66.6991C12.1206 61.0621 20.9287 57.2351 28.8426 59.1832C36.3692 61.0353 43.2359 67.6041 50.4278 65.0349C55.267 63.3054 56.6059 58.4162 57.4953 54.2288C60.8235 38.5334 66.9442 22.4124 81.0888 11.242C95.2382 0.0754223 119.296 -4.27694 135.257 5.19088C144.061 10.4137 149.043 18.7656 152.744 27.0332C156.446 35.3008 159.286 43.9518 165.225 51.3297C171.164 58.7077 181.125 64.7703 192.061 64.3446C201.662 63.9688 209.868 58.8112 216.749 53.4273C223.63 48.0396 230.224 42.0153 239.109 39.0703C247.994 36.1214 260.087 37.5326 264.496 44.3851C268.331 50.3481 265.012 57.5036 262.167 63.8116C258.858 71.155 256.218 78.9778 257.634 86.7008C259.049 94.4239 265.423 102.013 274.858 103.934C283.484 105.69 292.814 102.55 301.407 104.406C314.164 107.163 319.697 120.304 315.742 130.412C311.788 140.521 301.225 147.975 290.6 154.272C290.6 154.272 290.6 154.272 290.595 154.272C288.897 155.284 287.458 156.155 286.152 156.902Z" fill="#FCFBFF"/>
<path d="M222.649 13C224.797 13.0224 226.82 13.8497 228.627 14.8379C236.246 19.0011 241.134 26.1336 243.481 33.5881C245.834 41.0426 245.892 48.8727 245.604 56.5865C245.488 59.7659 246.196 71.6743 240.558 68.8884C236.796 67.0281 233.055 57.5971 231.184 54.3417C227.485 47.9112 224.865 41.0247 223.419 33.9682C223.068 32.2689 220.957 12.9821 222.649 13Z" fill="#F8F5FF"/>
<path d="M252.064 74.022C260.306 63.1779 271.765 54.1315 285.073 47.9649C285.429 52.3338 283.208 56.5686 280.457 60.2713C273.939 69.036 267.83 75.1578 259.011 82.1517C256.502 84.1417 245.944 90.0578 245.231 89.0427C242.978 85.8365 249.973 76.7677 252.064 74.022Z" fill="#F8F5FF"/>
<path d="M238.19 128.9L237.194 128.685C239.248 121.705 240.736 114.344 241.616 106.814C242.449 99.6945 242.764 92.2177 242.549 84.5933C242.35 77.4384 241.679 69.9437 240.558 62.3193C239.489 55.0571 238.032 47.6832 236.23 40.3986C234.794 34.6032 232.657 27.0504 228.821 20.0073C228.397 19.2292 227.952 18.4556 227.496 17.7088L228.407 17.3063C228.868 18.0665 229.324 18.8491 229.754 19.6406C233.636 26.7642 235.79 34.3796 237.236 40.2198C239.044 47.5267 240.505 54.9275 241.574 62.212C242.701 69.8677 243.371 77.3937 243.576 84.5754C243.791 92.2356 243.476 99.7482 242.638 106.903C241.752 114.474 240.254 121.875 238.19 128.9Z" fill="#EDE9F4"/>
<path d="M242.858 98.1965C242.853 98.1965 242.842 98.1965 242.837 98.1965C242.554 98.1875 242.334 97.9818 242.344 97.7403C242.565 92.9198 245.483 87.2987 251.026 81.0293C258.949 72.0723 267.138 62.8112 278.324 56.3897C278.56 56.2556 278.88 56.3092 279.037 56.5105C279.194 56.7117 279.131 56.9845 278.896 57.1186C267.851 63.4552 259.714 72.6581 251.844 81.5569C246.431 87.6788 243.581 93.1344 243.371 97.7716C243.361 98.0131 243.13 98.1965 242.858 98.1965Z" fill="#EDE9F4"/>
<path fill-rule="evenodd" clip-rule="evenodd" d="M242.8 83.1668C242.847 83.1847 242.895 83.1936 242.942 83.1936C243.083 83.1936 243.214 83.1265 243.272 83.0058C246.358 76.8839 249.565 69.738 250.55 62.3283C250.555 62.3193 250.561 62.3104 250.568 62.3014C250.574 62.2925 250.581 62.2835 250.586 62.2746C252.305 59.2785 253.714 56.3316 255.129 53.3221C258.037 47.1331 259.357 41.928 259.284 36.9419C259.232 33.5523 258.498 28.8659 255.548 24.5596C255.559 24.3539 255.223 23.9335 253.871 22.4399L253.541 22.0732L253.274 22.4757C248.993 28.8927 248.779 36.4187 249.072 42.2634C249.182 44.1952 249.35 46.1717 249.512 48.0856C249.842 51.9671 250.183 55.9739 250.073 59.8509C249.559 68.0253 246.012 76.0209 242.612 82.7643C242.533 82.9208 242.617 83.0997 242.8 83.1668ZM249.79 42.241C249.512 36.6513 249.701 29.5053 253.541 23.3477C253.908 23.853 254.5 24.4075 254.762 24.64C257.77 28.8972 258.508 33.5836 258.561 36.9553C258.639 41.8564 257.335 46.9856 254.458 53.0985C253.279 55.6161 252.095 58.089 250.738 60.5798C250.758 60.3593 250.773 60.1347 250.788 59.9138L250.791 59.8777C250.901 55.9649 250.56 51.9403 250.23 48.0454C250.068 46.1359 249.9 44.1639 249.79 42.241Z" fill="#EDE9F4"/>
<path d="M303.587 92.9595C302.56 91.6 300.889 90.7012 299.176 90.0081C291.961 87.1059 283.426 87.3295 275.797 89.3239C268.168 91.3183 261.283 94.9539 254.666 98.7549C251.936 100.32 241.179 105.454 246.262 107.743C249.652 109.273 259.664 107.233 263.395 106.902C270.762 106.245 278.018 104.689 284.877 102.301C286.517 101.724 304.394 94.0282 303.587 92.9595Z" fill="#F8F5FF"/>
<path d="M297.122 91.3005C296.241 91.3631 295.34 91.4391 294.444 91.5375C286.386 92.4005 278.71 94.5962 272.915 96.4162C265.669 98.6879 258.506 101.228 251.627 103.96C244.396 106.831 237.491 109.93 231.109 113.172C230.344 113.561 229.589 113.95 228.835 114.348C229.359 114.375 229.883 114.406 230.407 114.437C230.794 114.236 231.177 114.035 231.57 113.838C237.925 110.614 244.805 107.524 252.004 104.667C258.863 101.943 266.004 99.4123 273.224 97.1451C278.972 95.343 286.585 93.1607 294.554 92.3066C295.435 92.2127 296.32 92.1322 297.19 92.0741L297.122 91.3005Z" fill="#EDE9F4"/>
<path fill-rule="evenodd" clip-rule="evenodd" d="M253.513 91.9489C244.915 97.8024 238.13 105.503 232.55 112.407C232.445 112.541 232.445 112.707 232.544 112.828C232.576 112.868 232.618 112.908 232.67 112.939C232.874 113.06 233.157 113.015 233.299 112.841C239.445 105.235 247.063 96.6532 256.929 90.7191C261.697 88.0226 266.931 85.6481 271.998 83.3541C274.497 82.2227 277.08 81.0511 279.564 79.8616C287.062 76.2171 296.32 70.9851 301.471 62.7973L301.801 62.2875L301.119 62.2294C298.353 62.0013 297.599 61.9745 297.352 62.1265C289.996 62.3233 283.646 64.7962 279.381 67.0142C273.098 70.2786 267.482 74.965 261.697 81.7532C258.889 85.0534 256.148 88.3133 253.555 91.8773C253.539 91.8997 253.523 91.9265 253.513 91.9489ZM279.847 67.6715C284.096 65.4625 290.447 62.9985 297.777 62.8912C298.248 62.9762 299.333 63.1461 300.213 63.1371C295.089 70.7526 286.281 75.7073 279.113 79.1953C276.723 80.3409 274.234 81.4697 271.818 82.5656L271.568 82.6789L271.568 82.6792C266.48 84.9865 261.225 87.3699 256.41 90.0886L256.41 90.0886C256.127 90.2586 255.845 90.4285 255.567 90.6029C257.773 87.7007 260.073 84.9684 262.425 82.2093C268.137 75.5016 273.675 70.8823 279.847 67.6715Z" fill="#EDE9F4"/>
<path d="M254.142 91.0947L254.702 91.7029C256.107 90.7549 257.904 89.3999 259.806 87.96C262.059 86.2607 264.385 84.4988 266.093 83.4122C271.668 79.8482 277.411 76.3513 283.169 73.0108C288.927 69.6749 294.853 66.406 300.789 63.2936L300.318 62.6363C294.371 65.7531 288.429 69.0265 282.661 72.3714C276.892 75.7163 271.134 79.2221 265.548 82.7906C263.814 83.8996 261.472 85.6705 259.203 87.3787C257.317 88.8141 255.525 90.1646 254.142 91.0947Z" fill="#EDE9F4"/>
<path d="M188.389 53.1744C182.249 43.1316 173.519 35.1511 163.244 30.1867C162.824 34.5544 164.437 38.5655 166.487 41.9997C171.34 50.1315 175.95 55.6788 182.667 61.8502C184.58 63.608 192.694 68.559 193.289 67.4928C195.161 64.1083 189.946 55.7188 188.389 53.1744Z" fill="#F8F5FF"/>
<path d="M193.481 67.8397C192.435 65.3417 190.933 62.7382 188.978 60.0425C183.03 51.8409 176.881 43.3602 168.28 37.9647C168.099 37.8484 167.845 37.9313 167.715 38.1469C167.582 38.3602 167.624 38.6267 167.807 38.7386C176.292 44.0669 182.406 52.4913 188.317 60.6412C190.37 63.4719 191.91 66.1882 192.935 68.7767C193.122 68.4614 193.299 68.146 193.481 67.8397Z" fill="#EDE9F4"/>
<path d="M239.691 115.773C238.927 112.861 238.395 109.46 240.386 107.6C240.678 107.325 241.053 107.091 241.493 107.145C242.278 107.237 242.773 108.131 243.453 108.608C244.888 109.62 246.698 108.425 246.987 106.898C247.276 105.372 246.658 103.704 246.496 102.096C246.354 100.693 246.56 99.3132 247.096 98.1046C247.797 96.5272 249.755 95.2047 251.394 96.3407C252.581 97.1675 252.776 98.7204 253.061 100.051C253.346 101.382 254.264 103.011 255.618 103.02C256.781 103.027 257.306 101.815 257.691 100.802C258.624 98.321 260.014 96.061 261.785 94.1379C263.019 92.7976 264.513 91.5877 266.422 91.269C268.327 90.9469 270.713 91.7467 271.828 93.5232C272.865 95.1812 272.545 97.1602 271.808 98.7073C269.801 102.925 265.322 105.214 261.907 108.355C261.1 109.097 260.351 110.372 261.208 111.324C261.81 111.992 262.788 111.984 263.635 112.042C265.697 112.177 267.823 113.092 269.465 114.558C269.746 114.81 270.024 115.09 270.15 115.429C270.441 116.199 269.837 116.878 269.192 117.247C266.202 118.952 261.675 117.728 258.914 119.731C258.545 120 258.197 120.373 258.234 120.859C258.261 121.209 258.491 121.548 258.748 121.828C259.813 122.996 261.395 123.483 262.779 124.23C264.163 124.977 265.56 126.394 265.286 127.763C265.079 128.792 264.005 129.322 262.975 129.596C259.801 130.428 256.176 129.897 252.794 128.711C249.763 127.645 245.789 126.056 243.222 123.931C240.805 121.92 240.392 118.451 239.691 115.773Z" fill="#F8F5FF"/>
<path d="M267.339 96.8024L241.237 127.91" stroke="#EDE9F4" stroke-linecap="round"/>
<path d="M249.837 97.8367C250.811 103.271 251.65 108.71 252.355 114.146" stroke="#EDE9F4" stroke-linecap="round"/>
<path d="M241.635 109.266C242.916 113.739 244.09 118.226 245.161 122.721" stroke="#EDE9F4" stroke-linecap="round"/>
<path d="M251.539 116.334C256.473 116.078 261.423 115.9 266.388 115.804" stroke="#EDE9F4" stroke-linecap="round"/>
<path d="M179.857 63.3683C178.672 63.2083 177.413 63.2056 176.2 63.4124C174.501 63.5595 172.751 64.2254 171.401 65.4865C168.482 68.2075 168.309 72.727 169.503 76.0618C170.701 79.4132 173.007 82.1892 176.005 83.8972C178.137 85.1123 180.714 85.7906 183.336 85.2131C183.509 85.1737 183.679 85.1314 183.852 85.0782C186.128 85.1345 188.155 83.9771 189.748 82.0166C190.94 80.5475 191.8 78.1234 191.949 76.3534C192.128 74.1713 191.819 72.1745 190.763 70.4408C188.58 66.851 184.148 63.9593 179.857 63.3683Z" fill="#F8F5FF"/>
<path d="M173.589 68.8202L192.509 84.6955" stroke="#EDE9F4" stroke-linecap="round"/>
<path d="M171.586 77.7888C174.839 77.4881 178.091 77.1875 181.344 76.8869" stroke="#E2EEFF" stroke-linecap="round"/>
<path d="M176.006 82.0449C177.389 81.8785 178.769 81.7574 180.149 81.6708" stroke="#E2EEFF" stroke-linecap="round"/>
<path d="M182.741 81.6431C184.434 81.511 186.13 81.3266 187.829 81.09" stroke="#EDE9F4" stroke-linecap="round"/>
<path d="M179.768 73.9023C179.414 71.4508 178.992 69.0177 178.513 66.6045" stroke="#E2EEFF" stroke-linecap="round"/>
<path d="M186.018 78.9139C185.888 76.8766 185.8 74.8325 185.742 72.7797" stroke="#EDE9F4" stroke-linecap="round"/>
<path d="M64.3051 13.2968C62.6708 14.2296 61.5117 15.7174 60.5976 17.235C56.7455 23.61 56.3951 31.0423 58.1472 37.6331C59.8977 44.2198 63.5912 50.1088 67.4903 55.766C69.0974 58.0982 74.2316 67.3174 77.228 62.8195C79.2246 59.8181 77.594 51.1558 77.4791 47.9141C77.2506 41.511 75.9761 35.2365 73.7165 29.3348C73.1753 27.909 65.5981 12.5598 64.3051 13.2968Z" fill="#F8F5FF"/>
<path d="M70.855 71.5825C59.3644 66.9896 46.266 65.1185 33.1187 66.1919C34.9282 69.6163 38.6534 71.8391 42.5283 73.4315C51.7078 77.2048 59.3067 79.1787 69.4058 80.6377C72.2781 81.0532 83.1926 80.9686 83.2564 79.9032C83.4551 76.5425 73.7716 72.748 70.855 71.5825Z" fill="#F8F5FF"/>
<path d="M107.667 106.742L108.33 106.159C103.424 101.81 98.773 96.9359 94.5085 91.6687C90.4732 86.6941 86.6721 81.2297 83.1946 75.4286C79.9366 69.9855 76.8748 64.0854 74.0979 57.8961C71.4558 52.0004 69.0522 45.856 66.9596 39.6318C65.2963 34.6789 63.3338 28.1075 62.9123 21.1894C62.8683 20.425 62.839 19.6552 62.8322 18.901L61.9433 18.9866C61.9498 19.7552 61.9772 20.5352 62.0259 21.3122C62.4472 28.3065 64.4246 34.9343 66.1017 39.925C68.2019 46.1703 70.6083 52.3374 73.263 58.2524C76.049 64.4669 79.125 70.3903 82.3971 75.8569C85.8853 81.6874 89.7118 87.1759 93.7628 92.1781C98.0512 97.4651 102.729 102.368 107.667 106.742Z" fill="#EDE9F4"/>
<path d="M89.4439 85.7506C89.4488 85.7488 89.4538 85.747 89.4572 85.741C89.6668 85.6123 89.7442 85.3653 89.6197 85.1917C87.1516 81.6738 82.2329 78.7149 74.9968 76.3899C64.6498 73.0701 53.9555 69.6388 42.3176 69.6203C42.0719 69.6193 41.8529 69.7989 41.8301 70.0119C41.8038 70.2308 41.9803 70.4093 42.2244 70.4061C53.7126 70.4267 64.3423 73.834 74.6199 77.1315C81.6898 79.3979 86.474 82.2631 88.8491 85.6482C88.9702 85.8278 89.2297 85.8666 89.4439 85.7506Z" fill="#EDE9F4"/>
<path fill-rule="evenodd" clip-rule="evenodd" d="M59.5814 56.9695C65.7005 64.2836 74.0741 69.9635 81.6172 74.6179C81.7615 74.7082 81.9537 74.7001 82.0956 74.6151C82.1467 74.587 82.1948 74.5505 82.2333 74.5031C82.384 74.3198 82.3571 74.0774 82.163 73.9577C73.8515 68.831 64.5324 62.4531 58.4065 54.0326C55.652 49.9576 53.2914 45.4632 51.0134 41.1195C49.8933 38.9765 48.7293 36.759 47.5357 34.6285C43.8774 28.2079 38.5208 20.2926 29.4726 16.0528L28.906 15.7831L28.7945 16.3805C28.3363 18.7982 28.2526 19.4568 28.4072 19.667C28.1116 26.0704 30.4987 31.526 32.7488 35.1803C36.0589 40.5521 41.0464 45.3087 48.4437 50.1447C52.0358 52.492 55.5852 54.7835 59.5024 56.9363C59.5298 56.9502 59.5556 56.9598 59.5814 56.9695ZM33.5448 34.7478C31.3074 31.1127 28.9252 25.6554 29.3212 19.2677C29.4496 18.8545 29.7224 17.9034 29.7712 17.1338C38.1638 21.3648 43.2334 28.8897 46.7354 35.034C47.8485 37.0179 48.9313 39.0794 49.9869 41.0891C50.0604 41.2291 50.1337 41.3688 50.207 41.5082L50.2169 41.527C52.5043 45.884 54.8668 50.384 57.6489 54.494C57.8255 54.7343 58.0022 54.9745 58.1838 55.213C55.0028 53.3823 52.0273 51.4577 49.0203 49.4923C41.7176 44.717 36.8001 40.0302 33.5448 34.7478Z" fill="#EDE9F4"/>
<path d="M58.6482 56.443L59.3841 55.9372C58.3981 54.7448 56.9609 53.2168 55.4413 51.5999C53.647 49.688 51.7907 47.713 50.6594 46.2593C46.9572 41.5108 43.3433 36.6064 39.9152 31.6916C36.487 26.7767 33.152 21.7042 29.9994 16.6272L29.2083 17.0579C32.3655 22.1475 35.7134 27.2248 39.1461 32.1523C42.5789 37.0798 46.2008 41.9908 49.9124 46.7501C51.0643 48.2296 52.9316 50.2196 54.7404 52.1406C56.2456 53.7484 57.6732 55.2656 58.6482 56.443Z" fill="#EDE9F4"/>
<path d="M133.285 61.0359C138.451 55.1062 146.129 51.4583 154.009 48.5825C159.374 61.9557 155.824 76.6771 145.303 84.7043C143.467 86.1024 141.391 87.3305 138.934 87.771C132.203 88.9711 128.637 84.4283 127.983 79.0423C127.144 72.186 128.972 65.9916 133.285 61.0359Z" fill="#F8F5FF"/>
<path d="M151.915 53.5081L128.69 93.7364" stroke="#EDE9F4" stroke-linecap="round"/>
<path d="M143.877 53.8914C144.004 57.4033 144.175 60.9206 144.392 64.4434" stroke="#EDE9F4" stroke-linecap="round"/>
<path d="M141.375 72.3728C145.625 71.4551 149.757 70.2205 153.714 68.6791" stroke="#EAF3FE" stroke-linecap="round"/>
<path d="M92.8506 32.3399C94.4878 32.8115 95.9259 34.0498 97.187 35.4009C102.482 41.0965 105.332 49.1449 106.204 56.9817C107.076 64.8185 106.149 72.5489 104.972 80.0891C104.489 83.1984 103.551 95.0805 99.5926 91.1562C96.9499 88.5394 95.2654 78.461 94.2374 74.8596C92.2111 67.7465 91.0633 60.4141 90.8347 53.1553C90.7855 51.4175 91.5637 31.9696 92.8506 32.3399Z" fill="#F8F5FF"/>
<path d="M96.7165 37.7815C96.9735 38.6257 97.2255 39.4943 97.4547 40.366C99.5369 48.1985 100.238 56.1515 100.615 62.2137C101.092 69.7928 101.287 77.3898 101.202 84.7915C101.113 92.5707 100.694 100.128 99.9546 107.248C99.8656 108.102 99.7728 108.945 99.6716 109.792C99.4588 109.313 99.2418 108.835 99.0248 108.357C99.0737 107.923 99.1245 107.494 99.1674 107.056C99.8997 99.9675 100.319 92.4375 100.407 84.6925C100.491 77.3136 100.295 69.7394 99.8242 62.1863C99.4468 56.1745 98.7558 48.2851 96.6972 40.539C96.4695 39.6835 96.2273 38.828 95.9699 37.9952L96.7165 37.7815Z" fill="#EDE9F4"/>
<path fill-rule="evenodd" clip-rule="evenodd" d="M111.739 78.7261C109.356 88.8509 104.598 97.945 100.152 105.629C100.064 105.775 99.91 105.834 99.7616 105.784C99.7128 105.769 99.6602 105.745 99.6122 105.707C99.4262 105.56 99.3666 105.279 99.4787 105.085C104.377 96.6211 109.659 86.4335 111.663 75.0962C112.472 69.6785 112.813 63.9409 113.139 58.3887C113.299 55.65 113.467 52.8186 113.688 50.0738C114.403 41.7679 115.97 31.2496 121.768 23.5069L122.126 23.0161L122.424 23.6312C123.628 26.1322 123.924 26.8269 123.87 27.1113C126.323 34.0495 126.29 40.8643 125.748 45.6409C124.951 52.6757 122.589 59.5989 118.325 67.4318C116.25 71.2363 114.189 74.9628 111.791 78.6614C111.776 78.6841 111.756 78.7084 111.739 78.7261ZM124.967 45.4411C125.506 40.6824 125.531 33.8709 123.004 26.9891C122.756 26.5793 122.208 25.6277 121.901 24.8027C116.628 32.3158 115.159 42.3141 114.471 50.2557C114.258 52.898 114.096 55.6259 113.939 58.2743L113.923 58.5478L113.923 58.5486C113.592 64.125 113.25 69.885 112.437 75.3545L112.437 75.3546C112.38 75.6796 112.323 76.0046 112.26 76.3263C114.179 73.2269 115.905 70.1004 117.638 66.9153C121.853 59.1797 124.181 52.3539 124.967 45.4411Z" fill="#EDE9F4"/>
<path d="M112.311 77.8331L111.542 77.5276C111.924 75.8769 112.545 73.7136 113.208 71.4219C113.987 68.7096 114.798 65.9064 115.2 63.9223C116.53 57.4405 117.737 50.8262 118.792 44.2533C119.842 37.682 120.77 30.9782 121.549 24.3207L122.331 24.5254C121.553 31.1942 120.626 37.9143 119.571 44.4986C118.515 51.0829 117.306 57.7151 115.976 64.2083C115.562 66.2248 114.748 69.0459 113.967 71.7761C113.302 74.0515 112.684 76.2084 112.311 77.8331Z" fill="#EDE9F4"/>
<path d="M48.3555 118.919C42.6841 111.376 40.318 101.453 38.9084 91.4868C55.9442 88.5256 72.3381 96.3659 79.1353 110.718C80.3183 113.222 81.2417 115.965 81.1459 118.959C80.8752 127.159 74.6532 130.212 68.1682 129.635C59.9152 128.905 53.0962 125.218 48.3555 118.919Z" fill="#F8F5FF"/>
<path d="M44.1676 95.1731L83.4057 130.503" stroke="#EDE9F4" stroke-linecap="round"/>
<path d="M42.6122 104.704C46.7658 105.432 50.9371 106.108 55.1262 106.732" stroke="#EDE9F4" stroke-linecap="round"/>
<path d="M63.6808 112.252C63.6641 107.034 63.2457 101.877 62.4237 96.8472" stroke="#EDE9F4" stroke-linecap="round"/>
<path d="M64.8981 134.951C62.9768 136.281 60.6354 137.576 58.744 136.614C58.4666 136.474 58.1957 136.264 58.1136 135.927C57.974 135.33 58.4914 134.732 58.6632 134.103C59.0181 132.789 57.666 131.783 56.476 131.98C55.286 132.177 54.2285 133.069 53.0967 133.616C52.1093 134.093 51.046 134.308 50.0247 134.238C48.6873 134.147 47.2013 133.065 47.5937 131.569C47.8805 130.48 48.9667 129.927 49.861 129.366C50.7552 128.805 51.7002 127.7 51.3476 126.707C51.0439 125.855 50.0191 125.794 49.1761 125.783C47.1153 125.758 45.0952 125.346 43.2239 124.564C41.9193 124.017 40.6378 123.249 39.8954 121.942C39.1529 120.635 39.1024 118.682 40.1035 117.395C41.0393 116.197 42.5681 115.906 43.8972 116.033C47.5119 116.378 50.3707 119.036 53.5729 120.698C54.3295 121.09 55.4589 121.295 55.9243 120.422C56.2533 119.805 55.9858 119.089 55.8012 118.459C55.3488 116.917 55.4551 115.121 56.0897 113.534C56.1985 113.262 56.3276 112.985 56.5421 112.801C57.0262 112.387 57.6848 112.643 58.1233 113.02C60.1635 114.749 60.4741 118.381 62.6699 119.866C62.963 120.067 63.3316 120.218 63.6733 120.064C63.9245 119.949 64.1083 119.692 64.2465 119.43C64.8135 118.343 64.7478 117.059 64.9313 115.849C65.1088 114.642 65.7701 113.244 66.8426 113.082C67.6493 112.958 68.3187 113.603 68.7943 114.283C70.2489 116.38 70.8227 119.17 70.8524 121.952C70.8809 124.449 70.7752 127.773 69.905 130.216C69.0921 132.502 66.6666 133.727 64.8981 134.951Z" fill="#F8F5FF"/>
<path d="M44.3412 120.443L69.7129 129.678" stroke="#EDE9F4" stroke-linecap="round"/>
<path d="M50.6927 131.788C52.2194 130.888 53.7436 129.982 55.2703 129.083" stroke="#EDE9F4" stroke-linecap="round"/>
<path d="M57.2318 127.733C58.0471 127.311 58.8581 126.887 59.6734 126.464" stroke="#EDE9F4" stroke-linecap="round"/>
<path d="M60.1229 134.473C62.7012 132.763 65.2981 131.093 67.918 129.465" stroke="#EDE9F4" stroke-linecap="round"/>
<path d="M63.9207 127.347C62.2269 124.26 60.5709 121.148 58.9484 118.01" stroke="#EDE9F4" stroke-linecap="round"/>
<path d="M132.254 116.254C134.096 114.287 134.128 111.145 132.197 109.341L127.904 105.048L113.177 119.774L112.216 121.606L103.901 129.922L104.648 130.668C106.888 132.909 108.748 135.404 110.166 138.218L110.228 138.28L132.191 116.317C132.191 116.317 132.254 116.254 132.254 116.254Z" fill="#2BA037"/>
<path d="M65.6803 83.8329C65.6803 83.8329 76.7705 93.1026 82.3157 97.7375C86.6907 101.394 126.132 125.5 126.132 125.5L106.882 143C106.882 143 91.4145 126.546 84.5129 119.636C83.2574 118.379 72.5001 106.716 72.1125 107.236L60.8093 95.9325C58.8379 93.961 58.8142 90.6987 60.7575 88.7555C60.7576 88.7556 65.6803 83.8329 65.6803 83.8329Z" fill="#7F66BF"/>
<path d="M132.203 93.7872L90.4371 52.0212C88.4754 50.0594 85.4038 50.0934 83.3348 52.036L61.0123 74.3585L60.9476 74.4231C59.0698 76.4274 59.0343 79.6272 60.9975 81.4608L81.5009 101.964L91.3948 111.858C94.3371 111.954 89.111 110.092 91.136 112.117C91.9587 112.94 107.509 128.422 108.073 129.503L112.779 120.172L127.79 105.161L132.125 100.826C134.066 98.8853 134.102 95.6858 132.203 93.7872Z" fill="#A891E2"/>
<path d="M106.339 79.2366C111.249 84.1471 111.092 92.161 105.985 97.2678C100.878 102.375 92.8644 102.532 87.954 97.6214C83.0435 92.7109 83.2007 84.697 88.3076 79.5902C93.4145 74.4834 101.428 74.3262 106.339 79.2366Z" fill="#7F66BF"/>
<ellipse cx="87.2469" cy="61.5589" rx="3.5" ry="4" transform="rotate(45 87.2469 61.5589)" fill="#7F66BF"/>
<path fill-rule="evenodd" clip-rule="evenodd" d="M257.785 122.258C256.176 118.158 254.975 113.806 253.662 109.21C252.778 106.112 251.352 102.647 248.261 101.67C245.254 100.72 242.016 102.689 240.166 105.226C238.317 107.763 237.385 110.839 235.803 113.549C232.935 118.459 227.857 120.517 223.659 116.2C217.664 110.033 214.965 101.627 211.163 94.1051C208.403 88.6443 206.093 82.2515 202.615 77.2186C197.312 69.5438 190.041 63 180.371 63C174.242 63.9215 168.842 69.3088 165.186 76.0411C161.531 82.7734 159.399 90.7803 157.582 98.7676C154.278 113.293 151.857 128.156 149.439 143L271.439 141.588C270.955 141.594 267.963 137.626 267.39 137.076C262.705 132.579 259.895 127.634 257.785 122.258Z" fill="#F8F5FF"/>
<path fill-rule="evenodd" clip-rule="evenodd" d="M234.425 131.171C234.188 135.924 229.089 144.235 224.403 143.995C219.717 143.755 217.218 135.056 217.455 130.303C217.691 125.55 222.681 101.762 227.368 102.002C232.054 102.241 234.661 126.417 234.425 131.171Z" fill="#C0DBF9"/>
<path fill-rule="evenodd" clip-rule="evenodd" d="M227.028 105.179L224.44 143.797C224.433 143.902 224.519 143.993 224.632 144C224.746 144.006 224.844 143.926 224.851 143.821L227.439 105.203C227.446 105.097 227.36 105.007 227.246 105C227.133 104.994 227.035 105.074 227.028 105.179Z" fill="#075697"/>
<path fill-rule="evenodd" clip-rule="evenodd" d="M224.081 130.009C222.993 132.415 222.167 134.939 221.666 137.568C221.413 138.901 221.253 140.346 221.852 141.562C222.506 142.89 223.957 143.664 225.409 143.904C228.956 144.491 232.503 142.302 234.582 139.348C236.661 136.393 237.561 132.782 238.388 129.257C239.038 126.482 239.678 123.665 240.904 121.079C241.429 119.97 244.508 115.69 243.052 114.58C241.06 113.003 235.295 114.719 231.6 118.783C228.557 122.13 225.939 125.896 224.081 130.009Z" fill="#D2E7FF"/>
<path fill-rule="evenodd" clip-rule="evenodd" d="M224.816 143.859C224.816 143.859 224.832 143.798 224.866 143.677C225.367 141.867 229.741 127.027 239.378 118.324C239.455 118.254 239.46 118.136 239.388 118.06C239.316 117.984 239.196 117.98 239.118 118.05C228.727 127.448 224.453 143.753 224.445 143.767C224.419 143.867 224.481 143.968 224.583 143.994C224.686 144.02 224.79 143.959 224.816 143.859Z" fill="#5191C1"/>
<path fill-rule="evenodd" clip-rule="evenodd" d="M248.213 126.271C247.854 126.932 247.181 127.382 246.57 127.736C245.817 128.172 245.015 128.555 244.24 128.926C243.244 129.401 242.214 129.894 241.264 130.506C240.571 130.954 239.956 131.459 239.439 132C240.255 130.096 241.208 128.433 242.332 126.946C243.811 124.991 245.328 124 246.845 124L246.95 124.002C247.42 124.016 247.784 124.135 248.036 124.357C248.551 124.811 248.531 125.687 248.213 126.271Z" fill="#C0DBF9"/>
<path fill-rule="evenodd" clip-rule="evenodd" d="M250.713 136.785C250.116 137.189 249.323 137.291 248.626 137.338C247.768 137.396 246.887 137.39 246.035 137.385C244.942 137.378 243.811 137.371 242.701 137.497C241.892 137.588 241.129 137.759 240.439 138C241.964 136.746 243.512 135.749 245.139 134.968C247.281 133.94 249.059 133.73 250.424 134.343L250.518 134.387C250.934 134.588 251.213 134.835 251.348 135.121C251.622 135.708 251.241 136.428 250.713 136.785Z" fill="#EBE2FF"/>
<path fill-rule="evenodd" clip-rule="evenodd" d="M246.238 141.99C245.734 141.925 245.282 141.621 244.906 141.333C244.444 140.978 244.002 140.58 243.574 140.197C243.025 139.704 242.458 139.194 241.835 138.76C241.379 138.444 240.909 138.188 240.439 138C241.838 138.055 243.12 138.249 244.334 138.586C245.932 139.031 246.935 139.721 247.317 140.639L247.342 140.703C247.452 140.99 247.469 141.238 247.393 141.442C247.238 141.858 246.684 142.047 246.238 141.99Z" fill="#EBE2FF"/>
<path fill-rule="evenodd" clip-rule="evenodd" d="M234.788 143.831C234.788 143.831 234.788 143.796 234.791 143.722C234.844 142.614 235.603 133.308 247.364 125.31C247.443 125.257 247.463 125.151 247.408 125.073C247.353 124.996 247.245 124.977 247.166 125.03C234.506 133.635 234.437 143.798 234.439 143.829C234.439 143.923 234.517 144 234.613 144C234.709 144 234.787 143.925 234.788 143.831Z" fill="#C0DBF9"/>
<path fill-rule="evenodd" clip-rule="evenodd" d="M234.755 143.907C234.755 143.907 234.768 143.88 234.797 143.826C235.01 143.416 236.066 141.536 238.223 139.764C240.382 137.991 243.635 136.323 248.274 136.323C248.365 136.323 248.439 136.25 248.439 136.161C248.439 136.072 248.365 136 248.274 136C243.236 135.999 239.774 137.94 237.584 139.881C235.391 141.821 234.461 143.758 234.455 143.771C234.416 143.851 234.452 143.947 234.535 143.985C234.618 144.022 234.717 143.988 234.755 143.907Z" fill="#1A1C3A"/>
<path fill-rule="evenodd" clip-rule="evenodd" d="M240.609 138.308L240.613 138.307L240.637 138.307C240.882 138.307 242.687 138.4 246.187 140.969C246.256 141.02 246.355 141.007 246.408 140.939C246.46 140.871 246.446 140.775 246.376 140.724C242.84 138.126 240.967 138 240.637 138L240.585 138.001C240.498 138.007 240.433 138.081 240.44 138.166C240.446 138.25 240.522 138.314 240.609 138.308Z" fill="#1A1C3A"/>
<path fill-rule="evenodd" clip-rule="evenodd" d="M181.287 144H98.5921C96.2984 144 94.4393 142.148 94.4393 139.862V28.1375C94.4393 25.8522 96.2984 24 98.5921 24H181.287C183.58 24 185.439 25.8522 185.439 28.1375V139.862C185.439 142.148 183.58 144 181.287 144Z" fill="#AD95D6"/>
<path fill-rule="evenodd" clip-rule="evenodd" d="M94.4393 53V139.852C94.4393 142.143 96.2984 144 98.5921 144H181.287C183.58 144 185.439 142.143 185.439 139.852V122.711L94.4393 53Z" fill="#AD95D6"/>
<path fill-rule="evenodd" clip-rule="evenodd" d="M177.751 138H101.128C100.195 138 99.4393 137.242 99.4393 136.308V30.6922C99.4393 29.7576 100.195 29 101.128 29H177.751C178.683 29 179.439 29.7576 179.439 30.6922V136.308C179.439 137.242 178.683 138 177.751 138Z" fill="#F0E9FF"/>
<path fill-rule="evenodd" clip-rule="evenodd" d="M146.329 20.994C146.329 17.1316 143.244 14 139.439 14C135.634 14 132.55 17.1316 132.55 20.994C132.55 21.1104 132.562 21.2237 132.567 21.3384H122.439V32H156.439V21.3384H146.311C146.317 21.2237 146.329 21.1104 146.329 20.994Z" fill="#7F66BF"/>
<path fill-rule="evenodd" clip-rule="evenodd" d="M122.439 22V32H156.439L122.439 22Z" fill="#9D87D7"/>
<path fill-rule="evenodd" clip-rule="evenodd" d="M139.439 25C137.23 25 135.439 23.2091 135.439 21C135.439 18.7909 137.23 17 139.439 17C141.648 17 143.439 18.7909 143.439 21C143.439 23.2091 141.648 25 139.439 25Z" fill="#9D87D7"/>
<path fill-rule="evenodd" clip-rule="evenodd" d="M136.64 18C135.039 19.6015 135.039 22.1979 136.64 23.7989C138.241 25.4004 140.838 25.4004 142.439 23.7989L136.64 18Z" fill="#AD95D6"/>
<path fill-rule="evenodd" clip-rule="evenodd" d="M122.439 33H156.439V32H122.439V33Z" fill="#CDBFF3"/>
<path fill-rule="evenodd" clip-rule="evenodd" d="M110.143 108C109.754 108 109.439 107.776 109.439 107.5C109.439 107.224 109.754 107 110.143 107H169.735C170.125 107 170.439 107.224 170.439 107.5C170.439 107.776 170.125 108 169.735 108H110.143Z" fill="#CDBFF3"/>
<path fill-rule="evenodd" clip-rule="evenodd" d="M169.735 114H110.143C109.754 114 109.439 113.776 109.439 113.5C109.439 113.224 109.754 113 110.143 113H169.735C170.125 113 170.439 113.224 170.439 113.5C170.439 113.776 170.125 114 169.735 114Z" fill="#CDBFF3"/>
<path fill-rule="evenodd" clip-rule="evenodd" d="M110.143 96C109.754 96 109.439 95.776 109.439 95.5C109.439 95.224 109.754 95 110.143 95H169.735C170.125 95 170.439 95.224 170.439 95.5C170.439 95.776 170.125 96 169.735 96H110.143Z" fill="#CDBFF3"/>
<path fill-rule="evenodd" clip-rule="evenodd" d="M169.735 102H110.143C109.754 102 109.439 101.776 109.439 101.5C109.439 101.224 109.754 101 110.143 101H169.735C170.125 101 170.439 101.224 170.439 101.5C170.439 101.776 170.125 102 169.735 102Z" fill="#CDBFF3"/>
<path fill-rule="evenodd" clip-rule="evenodd" d="M169.735 120H110.143C109.754 120 109.439 119.776 109.439 119.5C109.439 119.224 109.754 119 110.143 119H169.735C170.125 119 170.439 119.224 170.439 119.5C170.439 119.776 170.125 120 169.735 120Z" fill="#CDBFF3"/>
<path fill-rule="evenodd" clip-rule="evenodd" d="M169.735 126H110.143C109.754 126 109.439 125.776 109.439 125.5C109.439 125.224 109.754 125 110.143 125H169.735C170.125 125 170.439 125.224 170.439 125.5C170.439 125.776 170.125 126 169.735 126Z" fill="#CDBFF3"/>
<path fill-rule="evenodd" clip-rule="evenodd" d="M230.439 69C231.717 68.5637 232.763 67.4757 233.221 66.0439C232.763 67.4757 231.717 68.5637 230.439 69Z" fill="#CCCEC9"/>
<path fill-rule="evenodd" clip-rule="evenodd" d="M164.288 61L164.591 59L164.288 61Z" fill="#ECAC51"/>
<path fill-rule="evenodd" clip-rule="evenodd" d="M184.439 54L179.439 53.0032V53L184.439 53.9955V54Z" fill="#4E8EBF"/>
<path fill-rule="evenodd" clip-rule="evenodd" d="M179.439 53L170.222 51.6831C170.222 51.6831 170.222 51.6826 170.222 51.6821L179.439 52.9976V53ZM166.58 51.1627H166.578L165.439 51L166.58 51.1627Z" fill="#E4E6E3"/>
<path fill-rule="evenodd" clip-rule="evenodd" d="M170.439 52.236L166.439 51.7641H166.441L170.439 52.2351C170.439 52.2355 170.439 52.236 170.439 52.236Z" fill="#4E8EBF"/>
<path fill-rule="evenodd" clip-rule="evenodd" d="M185.949 54.1319L185.439 54.0059L185.44 54L185.949 54.1261L185.949 54.1319Z" fill="#E78276"/>
<path fill-rule="evenodd" clip-rule="evenodd" d="M189.439 54.2274L185.439 53.7756L185.44 53.7726L189.438 54.2234L189.439 54.2274Z" fill="#E26464"/>
<path fill-rule="evenodd" clip-rule="evenodd" d="M190.439 55.0744L189.439 54.9291L189.442 54.9256L190.439 55.0705C190.439 55.0718 190.439 55.0731 190.439 55.0744Z" fill="#E46B6A"/>
<path fill-rule="evenodd" clip-rule="evenodd" d="M225.439 59.1471L223.439 58.8529L225.437 59.1466L225.439 59.1471Z" fill="#E78276"/>
<path fill-rule="evenodd" clip-rule="evenodd" d="M224.413 69.2105L224.466 68.7894L224.413 69.2105Z" fill="#D4D5D0"/>
<path fill-rule="evenodd" clip-rule="evenodd" d="M225.26 69L225.618 66L225.26 69Z" fill="#AACDCF"/>
<path fill-rule="evenodd" clip-rule="evenodd" d="M225.362 68L225.516 67L225.362 68Z" fill="#97B2B6"/>
<path fill-rule="evenodd" clip-rule="evenodd" d="M227.44 127L227.439 130.685C227.439 131.962 233.707 132.999 241.439 133C249.171 133.001 255.439 131.967 255.439 130.69L255.439 127.005L227.44 127Z" fill="#CDBFF3"/>
<path fill-rule="evenodd" clip-rule="evenodd" d="M256.439 127.002C256.439 128.107 250.171 129.001 242.439 129C234.707 128.999 228.439 128.102 228.439 126.997C228.439 125.893 234.708 124.999 242.44 125C250.172 125.001 256.44 125.898 256.439 127.002Z" fill="#482998"/>
<path fill-rule="evenodd" clip-rule="evenodd" d="M252.439 127.002C252.439 127.554 247.514 128.001 241.439 128C235.364 127.999 230.439 127.55 230.439 126.998C230.439 126.446 235.364 125.999 241.439 126C247.515 126.001 252.44 126.45 252.439 127.002Z" fill="#EC953A"/>
<path fill-rule="evenodd" clip-rule="evenodd" d="M230.913 126.997C232.284 126.68 236.477 126.449 241.439 126.45C246.402 126.451 250.595 126.682 251.965 127C252.273 126.929 252.439 126.853 252.439 126.775C252.44 126.348 247.515 126.001 241.439 126C235.364 125.999 230.439 126.345 230.439 126.772C230.439 126.85 230.606 126.926 230.913 126.997Z" fill="#E46F35"/>
<path fill-rule="evenodd" clip-rule="evenodd" d="M229.44 123L229.439 126.685C229.439 127.962 235.707 128.999 243.439 129C251.17 129.002 257.439 127.967 257.439 126.69L257.439 123.005L229.44 123Z" fill="#CDBFF3"/>
<path fill-rule="evenodd" clip-rule="evenodd" d="M258.439 123.002C258.439 124.107 252.171 125.001 244.439 125C236.707 124.999 230.439 124.102 230.439 122.998C230.44 121.893 236.708 120.999 244.44 121C252.171 121.001 258.44 121.898 258.439 123.002Z" fill="#482998"/>
<path fill-rule="evenodd" clip-rule="evenodd" d="M254.439 123.002C254.439 123.554 249.514 124.001 243.439 124C237.364 123.999 232.439 123.55 232.439 122.998C232.44 122.446 237.365 121.999 243.44 122C249.514 122.001 254.439 122.45 254.439 123.002Z" fill="#EC953A"/>
<path fill-rule="evenodd" clip-rule="evenodd" d="M232.913 122.997C234.284 122.68 238.477 122.449 243.439 122.45C248.402 122.45 252.595 122.682 253.965 123C254.273 122.929 254.439 122.853 254.439 122.775C254.439 122.348 249.515 122.001 243.44 122C237.365 121.999 232.44 122.345 232.439 122.772C232.439 122.85 232.606 122.926 232.913 122.997Z" fill="#E46F35"/>
<path fill-rule="evenodd" clip-rule="evenodd" d="M231.44 119L231.439 122.684C231.439 123.962 237.707 124.999 245.439 125C253.171 125.001 259.438 123.967 259.439 122.69L259.439 119.005L231.44 119Z" fill="#CDBFF3"/>
<path fill-rule="evenodd" clip-rule="evenodd" d="M259.439 119.002C259.439 120.107 253.171 121.001 245.439 121C237.707 120.998 231.439 120.102 231.439 118.997C231.44 117.893 237.708 116.999 245.44 117C253.171 117.001 259.439 117.898 259.439 119.002Z" fill="#E6DDFF"/>
<path fill-rule="evenodd" clip-rule="evenodd" d="M256.439 119.002C256.439 119.555 251.514 120.001 245.439 120C239.364 119.999 234.439 119.551 234.439 118.998C234.439 118.446 239.364 117.999 245.44 118C251.515 118.001 256.44 118.45 256.439 119.002Z" fill="#482998"/>
<path fill-rule="evenodd" clip-rule="evenodd" d="M234.913 118.997C236.283 118.68 240.477 118.449 245.44 118.45C250.402 118.451 254.595 118.682 255.965 119C256.273 118.929 256.439 118.853 256.439 118.775C256.44 118.348 251.515 118.001 245.44 118C239.364 117.999 234.439 118.345 234.439 118.772C234.439 118.85 234.606 118.926 234.913 118.997Z" fill="#7F66BF"/>
<path fill-rule="evenodd" clip-rule="evenodd" d="M227.44 115L227.439 118.685C227.439 119.962 233.707 120.999 241.439 121C249.171 121.001 255.438 119.967 255.439 118.69L255.439 115.005L227.44 115Z" fill="#CDBFF3"/>
<path fill-rule="evenodd" clip-rule="evenodd" d="M256.439 115.002C256.439 116.107 250.171 117.001 242.439 117C234.707 116.999 228.439 116.102 228.439 114.998C228.439 113.893 234.708 112.999 242.439 113C250.172 113.001 256.439 113.898 256.439 115.002Z" fill="#482998"/>
<path fill-rule="evenodd" clip-rule="evenodd" d="M252.439 114.002C252.439 114.554 247.514 115.001 241.439 115C235.364 114.999 230.439 114.55 230.439 113.998C230.439 113.446 235.364 112.999 241.439 113C247.515 113.001 252.44 113.449 252.439 114.002Z" fill="#EC953A"/>
<path fill-rule="evenodd" clip-rule="evenodd" d="M230.913 114.997C232.283 114.68 236.477 114.449 241.439 114.45C246.402 114.45 250.595 114.682 251.965 115C252.273 114.929 252.439 114.853 252.439 114.775C252.44 114.348 247.515 114.001 241.439 114C235.364 113.999 230.439 114.345 230.439 114.772C230.439 114.85 230.606 114.926 230.913 114.997Z" fill="#E46F35"/>
<path fill-rule="evenodd" clip-rule="evenodd" d="M231.44 111L231.439 114.685C231.439 115.962 237.707 116.999 245.439 117C253.171 117.001 259.439 115.967 259.439 114.69L259.439 111.005L231.44 111Z" fill="#CDBFF3"/>
<path fill-rule="evenodd" clip-rule="evenodd" d="M259.439 111.002C259.439 112.107 253.171 113.001 245.439 113C237.707 112.999 231.439 112.102 231.439 110.998C231.44 109.893 237.708 108.999 245.44 109C253.172 109.001 259.44 109.898 259.439 111.002Z" fill="#E6DDFF"/>
<path fill-rule="evenodd" clip-rule="evenodd" d="M256.439 111.002C256.439 111.554 251.514 112.001 245.439 112C239.364 111.999 234.439 111.55 234.439 110.998C234.439 110.445 239.364 109.999 245.439 110C251.515 110.001 256.44 110.449 256.439 111.002Z" fill="#7F66BF"/>
<path fill-rule="evenodd" clip-rule="evenodd" d="M234.913 110.997C236.284 110.68 240.477 110.449 245.439 110.45C250.402 110.451 254.595 110.682 255.965 111C256.273 110.929 256.439 110.853 256.439 110.775C256.44 110.348 251.515 110.001 245.439 110C239.364 109.999 234.439 110.345 234.439 110.772C234.439 110.85 234.606 110.926 234.913 110.997Z" fill="#482998"/>
<path fill-rule="evenodd" clip-rule="evenodd" d="M227.44 105L227.439 108.685C227.439 109.962 233.707 110.999 241.439 111C249.171 111.001 255.439 109.967 255.439 108.69L255.439 105.005L227.44 105Z" fill="#CDBFF3"/>
<path fill-rule="evenodd" clip-rule="evenodd" d="M256.439 105.002C256.439 106.107 250.171 107.001 242.439 107C234.707 106.999 228.439 106.102 228.439 104.998C228.439 103.893 234.708 102.999 242.44 103C250.172 103.001 256.44 103.898 256.439 105.002Z" fill="#482998"/>
<path fill-rule="evenodd" clip-rule="evenodd" d="M252.439 105.002C252.439 105.554 247.514 106.001 241.439 106C235.364 105.999 230.439 105.55 230.439 104.998C230.439 104.446 235.364 103.999 241.439 104C247.515 104.001 252.44 104.45 252.439 105.002Z" fill="#EC953A"/>
<path fill-rule="evenodd" clip-rule="evenodd" d="M230.913 104.997C232.284 104.68 236.477 104.449 241.439 104.45C246.402 104.451 250.595 104.682 251.965 105C252.273 104.929 252.439 104.853 252.439 104.775C252.44 104.348 247.515 104.001 241.439 104C235.364 103.999 230.439 104.345 230.439 104.772C230.439 104.85 230.606 104.926 230.913 104.997Z" fill="#E46F35"/>
<path fill-rule="evenodd" clip-rule="evenodd" d="M229.44 101L229.439 104.685C229.439 105.962 235.707 106.999 243.439 107C251.17 107.002 257.439 105.967 257.439 104.69L257.439 101.005L229.44 101Z" fill="#CDBFF3"/>
<path fill-rule="evenodd" clip-rule="evenodd" d="M257.439 101.003C257.439 102.107 251.171 103.001 243.439 103C235.707 102.999 229.439 102.102 229.439 100.998C229.44 99.8931 235.708 98.9988 243.44 99C251.171 99.0013 257.44 99.8978 257.439 101.003Z" fill="#482998"/>
<path fill-rule="evenodd" clip-rule="evenodd" d="M254.439 101.002C254.439 101.554 249.514 102.001 243.439 102C237.364 101.999 232.439 101.55 232.439 100.998C232.44 100.446 237.365 99.9989 243.44 100C249.514 100.001 254.439 100.45 254.439 101.002Z" fill="#EC953A"/>
<path fill-rule="evenodd" clip-rule="evenodd" d="M232.913 100.997C234.284 100.68 238.477 100.449 243.439 100.45C248.402 100.45 252.595 100.683 253.965 101C254.273 100.929 254.439 100.853 254.439 100.775C254.439 100.348 249.515 100.001 243.44 100C237.365 99.9992 232.44 100.345 232.439 100.772C232.439 100.85 232.606 100.926 232.913 100.997Z" fill="#E46F35"/>
<path fill-rule="evenodd" clip-rule="evenodd" d="M231.44 97L231.439 100.684C231.439 101.962 237.707 102.999 245.439 103C253.171 103.001 259.438 101.967 259.439 100.69L259.439 97.0055L231.44 97Z" fill="#CDBFF3"/>
<path fill-rule="evenodd" clip-rule="evenodd" d="M259.439 97.0021C259.439 98.1067 253.171 99.0012 245.439 99C237.707 98.9985 231.439 98.1022 231.439 96.9976C231.44 95.893 237.708 94.9988 245.44 95C253.171 95.0013 259.439 95.8978 259.439 97.0021Z" fill="#E6DDFF"/>
<path fill-rule="evenodd" clip-rule="evenodd" d="M256.439 97.0022C256.439 97.5543 251.514 98.0011 245.439 98C239.364 97.9989 234.439 97.5503 234.439 96.9981C234.439 96.446 239.364 95.9992 245.44 96C251.515 96.0011 256.44 96.4497 256.439 97.0022Z" fill="#7F66BF"/>
<path fill-rule="evenodd" clip-rule="evenodd" d="M234.913 96.9973C236.283 96.6798 240.477 96.4492 245.44 96.4501C250.402 96.4507 254.595 96.6823 255.965 97C256.273 96.9289 256.439 96.8535 256.439 96.7753C256.44 96.3479 251.515 96.0008 245.44 96C239.364 95.9992 234.439 96.345 234.439 96.7721C234.439 96.8505 234.606 96.926 234.913 96.9973Z" fill="#7F66BF"/>
<path fill-rule="evenodd" clip-rule="evenodd" d="M227.44 93L227.439 96.6847C227.439 97.9621 233.707 98.9986 241.439 99C249.171 99.0014 255.438 97.9673 255.439 96.6899L255.439 93.0052L227.44 93Z" fill="#CDBFF3"/>
<path fill-rule="evenodd" clip-rule="evenodd" d="M255.439 93.0025C255.439 94.1069 249.171 95.0012 241.439 95C233.707 94.999 227.439 94.1024 227.439 92.9977C227.439 91.8933 233.708 90.9988 241.439 91C249.172 91.0013 255.439 91.8978 255.439 93.0025Z" fill="#E6DDFF"/>
<path fill-rule="evenodd" clip-rule="evenodd" d="M252.439 93.0019C252.439 93.5543 247.514 94.0011 241.439 94C235.364 93.9989 230.439 93.5505 230.439 92.9981C230.439 92.4457 235.364 91.9989 241.439 92C247.515 92.0013 252.44 92.4497 252.439 93.0019Z" fill="#482998"/>
<path fill-rule="evenodd" clip-rule="evenodd" d="M230.913 92.9971C232.283 92.6798 236.477 92.4492 241.439 92.4499C246.402 92.4507 250.595 92.6825 251.965 93C252.273 92.9289 252.439 92.8535 252.439 92.7751C252.44 92.3479 247.515 92.001 241.439 92C235.364 91.9992 230.439 92.3448 230.439 92.7721C230.439 92.8503 230.606 92.926 230.913 92.9971Z" fill="#7F66BF"/>
<path fill-rule="evenodd" clip-rule="evenodd" d="M231.44 89L231.439 92.6845C231.439 93.9619 237.707 94.9986 245.439 95C253.171 95.0012 259.439 93.9671 259.439 92.69L259.439 89.0055L231.44 89Z" fill="#CDBFF3"/>
<path fill-rule="evenodd" clip-rule="evenodd" d="M259.439 89.0023C259.439 90.1069 253.171 91.0012 245.439 91C237.707 90.9987 231.439 90.1022 231.439 88.9977C231.44 87.8931 237.708 86.9985 245.44 87C253.172 87.0013 259.44 87.8976 259.439 89.0023Z" fill="#E6DDFF"/>
<path fill-rule="evenodd" clip-rule="evenodd" d="M256.439 89.0019C256.439 89.5543 251.514 90.0011 245.439 90C239.364 89.9989 234.439 89.5503 234.439 88.9978C234.439 88.4457 239.364 87.9989 245.439 88C251.515 88.0011 256.44 88.4497 256.439 89.0019Z" fill="#7F66BF"/>
<path fill-rule="evenodd" clip-rule="evenodd" d="M234.913 88.9971C236.284 88.6796 240.477 88.449 245.439 88.4499C250.402 88.4505 254.595 88.6823 255.965 89C256.273 88.9287 256.439 88.8532 256.439 88.7751C256.44 88.3479 251.515 88.0008 245.439 88C239.364 87.9992 234.439 88.3448 234.439 88.7719C234.439 88.8503 234.606 88.9258 234.913 88.9971Z" fill="#482998"/>
<path fill-rule="evenodd" clip-rule="evenodd" d="M233.439 134V137.686C233.439 138.964 226.947 140 218.939 140C210.931 140 204.439 138.964 204.439 137.686V134H233.439Z" fill="#EC953A"/>
<path fill-rule="evenodd" clip-rule="evenodd" d="M204.439 134C204.439 135.104 210.931 136 218.939 136C226.947 136 233.439 135.104 233.439 134C233.439 132.896 226.947 132 218.939 132C210.931 132 204.439 132.896 204.439 134Z" fill="#FACA30"/>
<path fill-rule="evenodd" clip-rule="evenodd" d="M207.439 134C207.439 134.552 212.588 135 218.939 135C225.29 135 230.439 134.552 230.439 134C230.439 133.448 225.29 133 218.939 133C212.588 133 207.439 133.448 207.439 134Z" fill="#EC953A"/>
<path fill-rule="evenodd" clip-rule="evenodd" d="M229.944 134C228.511 133.682 224.127 133.451 218.939 133.451C213.751 133.451 209.367 133.682 207.935 134C207.613 133.929 207.439 133.853 207.439 133.775C207.439 133.347 212.588 133 218.939 133C225.29 133 230.439 133.347 230.439 133.775C230.439 133.853 230.265 133.929 229.944 134Z" fill="#E46F35"/>
<path fill-rule="evenodd" clip-rule="evenodd" d="M235.439 130V133.686C235.439 134.964 228.948 136 220.939 136C212.931 136 206.439 134.964 206.439 133.686V130H235.439Z" fill="#EC953A"/>
<path fill-rule="evenodd" clip-rule="evenodd" d="M206.439 130C206.439 131.105 212.931 132 220.939 132C228.948 132 235.439 131.105 235.439 130C235.439 128.896 228.948 128 220.939 128C212.931 128 206.439 128.896 206.439 130Z" fill="#FACA30"/>
<path fill-rule="evenodd" clip-rule="evenodd" d="M209.439 130C209.439 130.552 214.588 131 220.939 131C227.29 131 232.439 130.552 232.439 130C232.439 129.448 227.29 129 220.939 129C214.588 129 209.439 129.448 209.439 130Z" fill="#EC953A"/>
<path fill-rule="evenodd" clip-rule="evenodd" d="M231.944 130C230.512 129.682 226.127 129.451 220.939 129.451C215.751 129.451 211.367 129.682 209.935 130C209.613 129.929 209.439 129.853 209.439 129.775C209.439 129.347 214.588 129 220.939 129C227.29 129 232.439 129.347 232.439 129.775C232.439 129.853 232.265 129.929 231.944 130Z" fill="#E46F35"/>
<path fill-rule="evenodd" clip-rule="evenodd" d="M233.439 126V129.686C233.439 130.964 226.947 132 218.939 132C210.931 132 204.439 130.964 204.439 129.686V126H233.439Z" fill="#EC953A"/>
<path fill-rule="evenodd" clip-rule="evenodd" d="M204.439 126C204.439 127.104 210.931 128 218.939 128C226.947 128 233.439 127.104 233.439 126C233.439 124.896 226.947 124 218.939 124C210.931 124 204.439 124.896 204.439 126Z" fill="#FACA30"/>
<path fill-rule="evenodd" clip-rule="evenodd" d="M207.439 126C207.439 126.552 212.588 127 218.939 127C225.291 127 230.439 126.552 230.439 126C230.439 125.448 225.291 125 218.939 125C212.588 125 207.439 125.448 207.439 126Z" fill="#EC953A"/>
<path fill-rule="evenodd" clip-rule="evenodd" d="M229.944 126C228.511 125.682 224.127 125.451 218.939 125.451C213.751 125.451 209.367 125.682 207.935 126C207.613 125.929 207.439 125.853 207.439 125.775C207.439 125.347 212.588 125 218.939 125C225.291 125 230.439 125.347 230.439 125.775C230.439 125.853 230.265 125.929 229.944 126Z" fill="#E46F35"/>
<path fill-rule="evenodd" clip-rule="evenodd" d="M232.439 122V125.686C232.439 126.964 225.947 128 217.939 128C209.931 128 203.439 126.964 203.439 125.686V122H232.439Z" fill="#EC953A"/>
<path fill-rule="evenodd" clip-rule="evenodd" d="M203.439 122C203.439 123.105 209.931 124 217.939 124C225.947 124 232.439 123.105 232.439 122C232.439 120.895 225.947 120 217.939 120C209.931 120 203.439 120.895 203.439 122Z" fill="#FACA30"/>
<path fill-rule="evenodd" clip-rule="evenodd" d="M206.439 122C206.439 122.552 211.588 123 217.939 123C224.291 123 229.439 122.552 229.439 122C229.439 121.448 224.291 121 217.939 121C211.588 121 206.439 121.448 206.439 122Z" fill="#EC953A"/>
<path fill-rule="evenodd" clip-rule="evenodd" d="M228.944 122C227.511 121.682 223.127 121.451 217.939 121.451C212.751 121.451 208.367 121.682 206.935 122C206.613 121.929 206.439 121.853 206.439 121.775C206.439 121.347 211.588 121 217.939 121C224.291 121 229.439 121.347 229.439 121.775C229.439 121.853 229.265 121.929 228.944 122Z" fill="#E46F35"/>
<path fill-rule="evenodd" clip-rule="evenodd" d="M235.439 118V121.686C235.439 122.964 228.947 124 220.939 124C212.931 124 206.439 122.964 206.439 121.686V118H235.439Z" fill="#EC953A"/>
<path fill-rule="evenodd" clip-rule="evenodd" d="M206.439 118C206.439 119.105 212.931 120 220.939 120C228.947 120 235.439 119.105 235.439 118C235.439 116.895 228.947 116 220.939 116C212.931 116 206.439 116.895 206.439 118Z" fill="#FACA30"/>
<path fill-rule="evenodd" clip-rule="evenodd" d="M209.439 118C209.439 118.552 214.588 119 220.939 119C227.291 119 232.439 118.552 232.439 118C232.439 117.448 227.291 117 220.939 117C214.588 117 209.439 117.448 209.439 118Z" fill="#EC953A"/>
<path fill-rule="evenodd" clip-rule="evenodd" d="M231.944 118C230.511 117.682 226.127 117.451 220.939 117.451C215.751 117.451 211.367 117.682 209.935 118C209.614 117.929 209.439 117.853 209.439 117.775C209.439 117.347 214.588 117 220.939 117C227.291 117 232.439 117.347 232.439 117.775C232.439 117.853 232.265 117.929 231.944 118Z" fill="#E46F35"/>
<path fill-rule="evenodd" clip-rule="evenodd" d="M232.439 114V117.686C232.439 118.964 225.947 120 217.939 120C209.931 120 203.439 118.964 203.439 117.686V114H232.439Z" fill="#EC953A"/>
<path fill-rule="evenodd" clip-rule="evenodd" d="M203.439 114C203.439 115.105 209.931 116 217.939 116C225.947 116 232.439 115.105 232.439 114C232.439 112.896 225.947 112 217.939 112C209.931 112 203.439 112.896 203.439 114Z" fill="#FACA30"/>
<path fill-rule="evenodd" clip-rule="evenodd" d="M206.439 114C206.439 114.552 211.588 115 217.939 115C224.291 115 229.439 114.552 229.439 114C229.439 113.448 224.291 113 217.939 113C211.588 113 206.439 113.448 206.439 114Z" fill="#EC953A"/>
<path fill-rule="evenodd" clip-rule="evenodd" d="M228.944 114C227.511 113.682 223.127 113.451 217.939 113.451C212.751 113.451 208.367 113.682 206.935 114C206.614 113.929 206.439 113.853 206.439 113.775C206.439 113.347 211.588 113 217.939 113C224.291 113 229.439 113.347 229.439 113.775C229.439 113.853 229.265 113.929 228.944 114Z" fill="#E46F35"/>
<path fill-rule="evenodd" clip-rule="evenodd" d="M235.439 110V113.686C235.439 114.964 228.947 116 220.939 116C212.931 116 206.439 114.964 206.439 113.686V110H235.439Z" fill="#EC953A"/>
<path fill-rule="evenodd" clip-rule="evenodd" d="M206.439 110C206.439 111.104 212.931 112 220.939 112C228.947 112 235.439 111.104 235.439 110C235.439 108.895 228.947 108 220.939 108C212.931 108 206.439 108.895 206.439 110Z" fill="#FACA30"/>
<path fill-rule="evenodd" clip-rule="evenodd" d="M209.439 110C209.439 110.552 214.588 111 220.939 111C227.291 111 232.439 110.552 232.439 110C232.439 109.448 227.291 109 220.939 109C214.588 109 209.439 109.448 209.439 110Z" fill="#EC953A"/>
<path fill-rule="evenodd" clip-rule="evenodd" d="M231.944 110C230.511 109.682 226.127 109.451 220.939 109.451C215.751 109.451 211.367 109.682 209.935 110C209.614 109.929 209.439 109.853 209.439 109.775C209.439 109.347 214.588 109 220.939 109C227.291 109 232.439 109.347 232.439 109.775C232.439 109.853 232.265 109.929 231.944 110Z" fill="#E46F35"/>
<path fill-rule="evenodd" clip-rule="evenodd" d="M223.44 141C223.439 141 223.439 141 223.439 141C224.64 140.404 225.42 140.012 225.437 140.004C225.42 140.013 224.641 140.404 223.44 141Z" fill="#00654E"/>
<path fill-rule="evenodd" clip-rule="evenodd" d="M225.439 138V136.063C225.778 136.043 226.111 136.022 226.439 136C226.154 136.696 225.819 137.374 225.439 138Z" fill="#CE572E"/>
<path fill-rule="evenodd" clip-rule="evenodd" d="M223.439 140V136.04C223.777 136.027 224.11 136.014 224.439 136V139.96C224.11 139.975 223.777 139.988 223.439 140Z" fill="#CE572E"/>
<path fill-rule="evenodd" clip-rule="evenodd" d="M220.439 140V136.014C220.775 136.01 221.109 136.006 221.439 136V139.987C221.109 139.992 220.775 139.997 220.439 140Z" fill="#CE572E"/>
<path fill-rule="evenodd" clip-rule="evenodd" d="M209.439 140C209.095 139.965 208.762 139.929 208.439 139.891V136C208.762 136.037 209.095 136.074 209.439 136.109V140Z" fill="#CE572E"/>
<path fill-rule="evenodd" clip-rule="evenodd" d="M212.439 140C212.1 139.978 211.767 139.955 211.439 139.931V136C211.767 136.024 212.1 136.047 212.439 136.069V140Z" fill="#CE572E"/>
<path fill-rule="evenodd" clip-rule="evenodd" d="M214.439 140C214.103 139.988 213.769 139.975 213.439 139.96V136C213.769 136.014 214.103 136.027 214.439 136.04V140Z" fill="#CE572E"/>
<path fill-rule="evenodd" clip-rule="evenodd" d="M217.439 140C217.104 139.997 216.77 139.992 216.439 139.987V136C216.77 136.006 217.104 136.01 217.439 136.014V140Z" fill="#CE572E"/>
<path fill-rule="evenodd" clip-rule="evenodd" d="M218.476 137C218.024 137 217.577 136.996 217.135 136.988C216.901 136.984 216.669 136.979 216.438 136.973C215.619 136.951 214.822 136.916 214.051 136.87C213.817 136.855 213.584 136.84 213.355 136.823C212.614 136.77 211.902 136.706 211.223 136.632C210.987 136.606 210.754 136.579 210.527 136.551C209.863 136.468 209.236 136.376 208.651 136.275C208.411 136.233 208.179 136.19 207.954 136.146C207.778 136.111 207.606 136.076 207.439 136.039L207.628 135C207.753 135.045 207.885 135.09 208.023 135.133C208.241 135.202 208.473 135.27 208.72 135.335C209.136 135.445 209.593 135.549 210.085 135.645C210.31 135.69 210.542 135.733 210.781 135.774C211.366 135.876 211.993 135.968 212.657 136.05C212.885 136.078 213.118 136.105 213.354 136.131C214.032 136.205 214.745 136.27 215.485 136.323C215.715 136.339 215.947 136.354 216.182 136.368C216.953 136.415 217.75 136.45 218.569 136.472C218.799 136.478 219.032 136.483 219.266 136.488C219.707 136.495 220.155 136.499 220.607 136.499C221.059 136.499 221.506 136.495 221.948 136.488C222.182 136.483 222.414 136.478 222.645 136.472C223.464 136.45 224.261 136.415 225.032 136.368C225.267 136.354 225.498 136.339 225.728 136.323C225.968 136.305 226.206 136.287 226.439 136.267C226.419 136.364 226.398 136.461 226.376 136.557C226.164 136.583 225.948 136.608 225.729 136.632C225.051 136.706 224.338 136.77 223.598 136.823C223.368 136.84 223.136 136.855 222.901 136.87C222.131 136.916 221.333 136.951 220.514 136.973C220.284 136.979 220.051 136.984 219.817 136.988C219.375 136.996 218.929 137 218.476 137Z" fill="#CB9C33"/>
<path fill-rule="evenodd" clip-rule="evenodd" d="M225.439 136V132.04C225.777 132.027 226.11 132.014 226.439 132V135.961C226.11 135.975 225.777 135.988 225.439 136Z" fill="#CE572E"/>
<path fill-rule="evenodd" clip-rule="evenodd" d="M222.439 136V132.013C222.775 132.01 223.109 132.005 223.439 132V135.986C223.109 135.992 222.775 135.996 222.439 136Z" fill="#CE572E"/>
<path fill-rule="evenodd" clip-rule="evenodd" d="M209.439 135C209.085 134.944 208.752 134.887 208.439 134.828V132.853L209.004 131C209.146 131.024 209.29 131.048 209.439 131.071V135Z" fill="#CE572E"/>
<path fill-rule="evenodd" clip-rule="evenodd" d="M211.439 136C211.096 135.965 210.762 135.929 210.439 135.891V132C210.762 132.037 211.096 132.074 211.439 132.109V136Z" fill="#CE572E"/>
<path fill-rule="evenodd" clip-rule="evenodd" d="M214.439 136C214.1 135.978 213.767 135.955 213.439 135.931V132C213.767 132.024 214.1 132.047 214.439 132.069V136Z" fill="#CE572E"/>
<path fill-rule="evenodd" clip-rule="evenodd" d="M216.439 136C216.102 135.988 215.769 135.975 215.439 135.961V132C215.769 132.014 216.102 132.027 216.439 132.04V136Z" fill="#CE572E"/>
<path fill-rule="evenodd" clip-rule="evenodd" d="M219.439 136C219.104 135.996 218.77 135.992 218.439 135.986V132C218.77 132.005 219.104 132.01 219.439 132.013V136Z" fill="#CE572E"/>
<path fill-rule="evenodd" clip-rule="evenodd" d="M221.175 132C220.739 132 220.309 131.997 219.884 131.991C219.659 131.988 219.435 131.983 219.213 131.979C218.424 131.961 217.657 131.933 216.915 131.896C216.689 131.885 216.465 131.872 216.244 131.859C215.532 131.817 214.846 131.766 214.192 131.707C213.965 131.686 213.741 131.665 213.522 131.642C212.883 131.576 212.279 131.503 211.716 131.422C211.485 131.389 211.262 131.355 211.045 131.32C210.572 131.242 210.132 131.16 209.731 131.072C209.631 131.05 209.534 131.028 209.439 131.006L209.441 131C209.996 131.079 210.591 131.152 211.221 131.216C211.44 131.239 211.664 131.26 211.891 131.281C212.544 131.34 213.23 131.391 213.943 131.433C214.164 131.446 214.388 131.459 214.614 131.47C215.356 131.507 216.123 131.535 216.912 131.553C217.134 131.558 217.358 131.562 217.582 131.565C218.008 131.571 218.438 131.574 218.874 131.574C219.309 131.574 219.739 131.571 220.165 131.565C220.39 131.562 220.614 131.558 220.835 131.553C221.624 131.535 222.391 131.507 223.133 131.47C223.359 131.459 223.583 131.446 223.804 131.433C224.517 131.391 225.202 131.34 225.856 131.281C226.083 131.26 226.307 131.239 226.526 131.216C226.84 131.184 227.144 131.15 227.439 131.114C227.437 131.176 227.435 131.238 227.432 131.301C227.426 131.454 227.417 131.61 227.406 131.77C226.984 131.803 226.549 131.833 226.105 131.859C225.884 131.872 225.661 131.885 225.434 131.896C224.693 131.933 223.925 131.961 223.136 131.979C222.915 131.983 222.691 131.988 222.466 131.991C222.04 131.997 221.61 132 221.175 132Z" fill="#CB9C33"/>
<path fill-rule="evenodd" clip-rule="evenodd" d="M225.439 132V128.069C225.778 128.047 226.112 128.024 226.439 128V131.931C226.112 131.955 225.778 131.978 225.439 132Z" fill="#CE572E"/>
<path fill-rule="evenodd" clip-rule="evenodd" d="M222.439 132V128.039C222.777 128.027 223.11 128.014 223.439 128V131.96C223.11 131.974 222.777 131.988 222.439 132Z" fill="#CE572E"/>
<path fill-rule="evenodd" clip-rule="evenodd" d="M219.439 132V128.014C219.775 128.01 220.109 128.006 220.439 128V131.987C220.109 131.992 219.775 131.997 219.439 132Z" fill="#CE572E"/>
<path fill-rule="evenodd" clip-rule="evenodd" d="M211.439 132C211.1 131.978 210.766 131.955 210.439 131.931V128C210.766 128.024 211.1 128.047 211.439 128.069V132Z" fill="#CE572E"/>
<path fill-rule="evenodd" clip-rule="evenodd" d="M214.439 132C214.102 131.988 213.769 131.974 213.439 131.96V128C213.769 128.014 214.102 128.027 214.439 128.039V132Z" fill="#CE572E"/>
<path fill-rule="evenodd" clip-rule="evenodd" d="M217.439 132C217.104 131.997 216.77 131.992 216.439 131.987V128C216.77 128.006 217.104 128.01 217.439 128.014V132Z" fill="#CE572E"/>
<path fill-rule="evenodd" clip-rule="evenodd" d="M219.04 129C218.607 129 218.179 128.997 217.756 128.991C217.533 128.988 217.31 128.984 217.09 128.979C216.306 128.963 215.543 128.936 214.806 128.9C214.581 128.89 214.359 128.878 214.139 128.865C213.431 128.825 212.749 128.776 212.099 128.719C211.873 128.7 211.651 128.679 211.433 128.657C211.091 128.623 210.76 128.587 210.439 128.549L210.517 128.207C210.711 128.226 210.909 128.244 211.109 128.262C211.758 128.318 212.44 128.367 213.149 128.407C213.369 128.42 213.59 128.432 213.815 128.443C214.552 128.478 215.315 128.505 216.099 128.522C216.319 128.526 216.542 128.53 216.766 128.533C217.189 128.539 217.616 128.542 218.049 128.542C218.482 128.542 218.91 128.539 219.332 128.533C219.556 128.53 219.779 128.526 219.999 128.522C220.783 128.505 221.546 128.478 222.283 128.443C222.508 128.432 222.73 128.42 222.95 128.407C223.658 128.367 224.34 128.318 224.989 128.262C225.215 128.242 225.438 128.221 225.656 128.2C226.26 128.14 226.833 128.073 227.37 128C227.395 128.189 227.418 128.38 227.439 128.573C227.182 128.602 226.917 128.63 226.646 128.657C226.428 128.679 226.206 128.7 225.98 128.719C225.33 128.776 224.649 128.825 223.94 128.865C223.72 128.878 223.498 128.89 223.274 128.9C222.536 128.936 221.773 128.963 220.99 128.979C220.769 128.984 220.546 128.988 220.323 128.991C219.9 128.997 219.472 129 219.04 129Z" fill="#CB9C33"/>
<path fill-rule="evenodd" clip-rule="evenodd" d="M224.439 128V124.069C224.778 124.047 225.112 124.024 225.439 124V127.931C225.112 127.955 224.778 127.978 224.439 128Z" fill="#CE572E"/>
<path fill-rule="evenodd" clip-rule="evenodd" d="M221.439 128V124.039C221.777 124.027 222.11 124.014 222.439 124V127.96C222.11 127.975 221.777 127.988 221.439 128Z" fill="#CE572E"/>
<path fill-rule="evenodd" clip-rule="evenodd" d="M218.439 128V124.014C218.775 124.01 219.109 124.006 219.439 124V127.987C219.109 127.992 218.775 127.997 218.439 128Z" fill="#CE572E"/>
<path fill-rule="evenodd" clip-rule="evenodd" d="M210.439 128C210.101 127.98 209.767 127.959 209.439 127.938L210.439 125V128Z" fill="#CE572E"/>
<path fill-rule="evenodd" clip-rule="evenodd" d="M213.439 128C213.102 127.988 212.769 127.975 212.439 127.96V124C212.769 124.014 213.102 124.027 213.439 124.039V128Z" fill="#CE572E"/>
<path fill-rule="evenodd" clip-rule="evenodd" d="M216.439 128C216.104 127.997 215.77 127.992 215.439 127.987V124C215.77 124.006 216.104 124.01 216.439 124.014V128Z" fill="#CE572E"/>
<path fill-rule="evenodd" clip-rule="evenodd" d="M217.501 124C217.048 124 216.601 123.997 216.158 123.992C215.925 123.989 215.691 123.985 215.461 123.98C214.641 123.964 213.843 123.938 213.071 123.904C212.836 123.894 212.604 123.882 212.374 123.87C211.705 123.835 211.058 123.793 210.439 123.745L210.623 123C210.804 123.026 210.99 123.051 211.18 123.075C211.765 123.149 212.393 123.217 213.058 123.278C213.286 123.299 213.519 123.318 213.755 123.337C214.435 123.392 215.148 123.439 215.889 123.478C216.119 123.49 216.351 123.502 216.586 123.512C217.358 123.546 218.156 123.572 218.976 123.588C219.206 123.593 219.44 123.597 219.673 123.6C220.115 123.605 220.563 123.608 221.016 123.608C221.468 123.608 221.916 123.605 222.358 123.6C222.592 123.597 222.825 123.593 223.056 123.588C223.876 123.572 224.674 123.546 225.445 123.512C225.68 123.502 225.913 123.49 226.143 123.478C226.229 123.474 226.315 123.469 226.4 123.464C226.414 123.501 226.426 123.536 226.439 123.572C226.122 123.606 225.796 123.639 225.459 123.67C225.231 123.691 224.998 123.71 224.762 123.729C224.082 123.784 223.369 123.831 222.628 123.87C222.398 123.882 222.166 123.894 221.93 123.904C221.159 123.938 220.361 123.964 219.541 123.98C219.31 123.985 219.077 123.989 218.843 123.992C218.401 123.997 217.954 124 217.501 124Z" fill="#CB9C33"/>
<path fill-rule="evenodd" clip-rule="evenodd" d="M225.439 124V122C225.806 122.429 226.14 122.877 226.439 123.342V123.968C226.11 123.979 225.777 123.99 225.439 124Z" fill="#CE572E"/>
<path fill-rule="evenodd" clip-rule="evenodd" d="M222.439 124V120.013C222.775 120.01 223.109 120.005 223.439 120V123.986C223.109 123.992 222.775 123.996 222.439 124Z" fill="#CE572E"/>
<path fill-rule="evenodd" clip-rule="evenodd" d="M211.439 123C211.098 122.979 210.764 122.958 210.439 122.936L211.439 121V123Z" fill="#CE572E"/>
<path fill-rule="evenodd" clip-rule="evenodd" d="M214.439 124C214.1 123.978 213.767 123.955 213.439 123.931V120C213.767 120.024 214.1 120.047 214.439 120.069V124Z" fill="#CE572E"/>
<path fill-rule="evenodd" clip-rule="evenodd" d="M216.439 124C216.102 123.987 215.769 123.974 215.439 123.96V120C215.769 120.014 216.102 120.027 216.439 120.04V124Z" fill="#CE572E"/>
<path fill-rule="evenodd" clip-rule="evenodd" d="M219.439 124C219.104 123.996 218.77 123.992 218.439 123.986V120C218.77 120.005 219.104 120.01 219.439 120.013V124Z" fill="#CE572E"/>
<path fill-rule="evenodd" clip-rule="evenodd" d="M220.851 121C220.406 121 219.967 120.995 219.532 120.986C219.303 120.982 219.074 120.975 218.848 120.968C218.042 120.942 217.259 120.901 216.501 120.846C216.27 120.829 216.042 120.81 215.816 120.791C215.088 120.729 214.388 120.653 213.721 120.565C213.489 120.534 213.26 120.502 213.036 120.469C212.476 120.385 211.943 120.293 211.439 120.193L211.468 120C211.971 120.06 212.491 120.113 213.025 120.159C213.251 120.179 213.479 120.197 213.71 120.214C214.468 120.269 215.251 120.31 216.057 120.336C216.283 120.343 216.512 120.349 216.741 120.354C217.176 120.363 217.615 120.368 218.06 120.368C218.505 120.368 218.944 120.363 219.378 120.354C219.608 120.349 219.837 120.343 220.063 120.336C220.868 120.31 221.652 120.269 222.409 120.214C222.64 120.197 222.868 120.179 223.094 120.159C223.422 120.131 223.745 120.1 224.061 120.066C224.191 120.337 224.317 120.614 224.439 120.896C223.921 120.927 223.392 120.951 222.854 120.968C222.628 120.975 222.399 120.982 222.169 120.986C221.735 120.995 221.295 121 220.851 121Z" fill="#CB9C33"/>
<path fill-rule="evenodd" clip-rule="evenodd" d="M222.439 120V118C222.784 118.226 223.118 118.461 223.439 118.704V119.964C223.11 119.977 222.777 119.989 222.439 120Z" fill="#CE572E"/>
<path fill-rule="evenodd" clip-rule="evenodd" d="M219.439 120V116.014C219.775 116.01 220.109 116.006 220.439 116V119.987C220.109 119.992 219.775 119.997 219.439 120Z" fill="#CE572E"/>
<path fill-rule="evenodd" clip-rule="evenodd" d="M214.439 120C214.102 119.988 213.769 119.975 213.439 119.96V116C213.769 116.014 214.102 116.027 214.439 116.04V120Z" fill="#CE572E"/>
<path fill-rule="evenodd" clip-rule="evenodd" d="M217.439 120C217.104 119.997 216.77 119.992 216.439 119.987V116C216.77 116.006 217.104 116.01 217.439 116.014V120Z" fill="#CE572E"/>
<path fill-rule="evenodd" clip-rule="evenodd" d="M218.1 117C217.665 117 217.235 116.996 216.81 116.989C216.585 116.985 216.361 116.98 216.14 116.974C215.351 116.953 214.585 116.918 213.843 116.873C213.617 116.859 213.394 116.844 213.173 116.828C212.925 116.81 212.68 116.791 212.439 116.77L212.577 116C212.685 116.014 212.794 116.028 212.904 116.042C213.123 116.07 213.347 116.096 213.574 116.121C214.227 116.193 214.913 116.256 215.625 116.308C215.846 116.324 216.069 116.339 216.295 116.353C217.036 116.398 217.803 116.432 218.591 116.454C218.812 116.459 219.037 116.464 219.261 116.468C219.444 116.472 219.627 116.474 219.812 116.476C220.026 116.632 220.234 116.794 220.439 116.963C220.314 116.967 220.187 116.97 220.06 116.974C219.839 116.98 219.615 116.985 219.39 116.989C218.965 116.996 218.535 117 218.1 117Z" fill="#CB9C33"/>
<path fill-rule="evenodd" clip-rule="evenodd" d="M213.439 116C213.1 115.98 212.767 115.958 212.439 115.936V114.421L212.578 114L213.439 114.138V116Z" fill="#CE572E"/>
<path fill-rule="evenodd" clip-rule="evenodd" d="M216.439 116C216.102 115.985 215.769 115.97 215.439 115.953V114L215.609 114.035C215.889 114.093 216.165 114.154 216.439 114.22V116Z" fill="#CE572E"/>
<path fill-rule="evenodd" clip-rule="evenodd" d="M219.439 116C219.104 115.995 218.77 115.989 218.439 115.981V115C218.778 115.166 219.113 115.341 219.439 115.524V116Z" fill="#CE572E"/>
<path fill-rule="evenodd" clip-rule="evenodd" d="M219.082 72.2162H218.936C218.6 70.6069 218.751 69.3014 219.39 68.3309C220.116 67.2282 221.275 66.4146 222.24 65.4669C223.205 64.5194 224.018 63.2907 223.789 62.0302C223.56 60.7694 221.821 59.7469 220.621 60.4513C220.064 60.778 219.776 61.3573 219.328 61.7954C218.765 62.3451 217.909 62.666 217.078 62.5798C216.247 62.4937 215.474 61.9772 215.212 61.2716C214.852 60.2988 215.453 59.2804 215.78 58.2979C216.054 57.473 216.132 56.5732 215.82 55.7589C215.508 54.9448 214.76 54.2351 213.814 54.0499C212.534 53.7997 211.255 54.5274 210.405 55.4127C209.556 56.2982 208.96 57.3673 208.03 58.1866C207.1 59.0065 205.644 59.5412 204.474 59.0178C203.618 58.6354 203.16 57.813 202.644 57.0968C202.127 56.3806 201.345 55.6631 200.39 55.7246C199.184 55.8017 198.544 57.042 198.427 58.1095C198.187 60.3101 199.059 62.4732 199.917 64.5489C200.974 67.1047 202.03 69.6606 203.087 72.2162H202.796C202.796 85.6191 182.439 100.317 182.439 116.666C182.439 133.015 194.967 144 210.939 144C226.912 144 239.439 133.015 239.439 116.666C239.439 100.317 219.082 85.6191 219.082 72.2162Z" fill="#7F66BF"/>
<path fill-rule="evenodd" clip-rule="evenodd" d="M219.066 72.8835H218.92C218.584 71.2892 218.735 69.9959 219.374 69.0344C220.101 67.9419 221.261 67.1359 222.227 66.197C223.192 65.2583 224.006 64.041 223.776 62.7922C223.547 61.5432 221.807 60.5301 220.606 61.228C220.049 61.5516 219.761 62.1256 219.312 62.5597C218.749 63.1042 217.892 63.4221 217.06 63.3368C216.935 63.324 216.813 63.2986 216.693 63.2676C216.476 63.549 216.233 63.8162 215.978 64.0636C215.013 65.0023 213.852 65.8083 213.126 66.901C212.72 67.512 212.512 68.2585 212.5 69.13L212.499 69.1291C212.499 69.157 212.501 69.1898 212.502 69.2229C212.502 69.4133 212.513 69.61 212.531 69.8119C212.576 70.5934 212.661 71.7214 212.78 72.4568L212.782 72.4554C214.386 85.273 233.191 99.2795 233.191 114.787C233.191 130.984 220.654 141.866 204.668 141.866C202.162 141.866 199.741 141.598 197.439 141.085C201.433 142.973 206.012 144 210.917 144C226.902 144 239.439 133.117 239.439 116.92C239.439 100.723 219.066 86.1619 219.066 72.8835Z" fill="#482998"/>
<path fill-rule="evenodd" clip-rule="evenodd" d="M218.812 73H203.066C202.72 73 202.439 72.5556 202.439 72.0073V71.9927C202.439 71.4444 202.72 71 203.066 71H218.812C219.159 71 219.439 71.4444 219.439 71.9927V72.0073C219.439 72.5556 219.159 73 218.812 73Z" fill="#F2EDFF"/>
<path fill-rule="evenodd" clip-rule="evenodd" d="M195.184 113.649L192.422 113L185.439 144.016L188.196 144.686C195.539 146.411 203.055 140.861 204.984 132.29C206.914 123.72 202.526 115.374 195.184 113.649Z" fill="#CDBFF3"/>
<path fill-rule="evenodd" clip-rule="evenodd" d="M201.976 131.557C200.011 139.948 192.358 145.381 184.882 143.692C177.405 142.004 172.938 133.833 174.902 125.443C176.867 117.052 184.521 111.619 191.997 113.307C199.473 114.996 203.941 123.167 201.976 131.557Z" fill="#F2EDFF"/>
<path fill-rule="evenodd" clip-rule="evenodd" d="M175.302 126.228C177.228 117.723 184.73 112.216 192.057 113.927C195.113 114.641 197.653 116.5 199.439 119.038C197.642 116.186 194.945 114.082 191.647 113.312C184.32 111.6 176.818 117.107 174.893 125.612C173.77 130.571 174.793 135.451 177.291 139C175.094 135.513 174.243 130.906 175.302 126.228Z" fill="#D3C2FF"/>
<path fill-rule="evenodd" clip-rule="evenodd" d="M186.165 140.781C180.582 139.527 177.284 133.222 178.814 126.726C180.344 120.23 186.13 115.965 191.714 117.219C197.297 118.473 200.595 124.778 199.065 131.274C197.535 137.77 191.748 142.035 186.165 140.781Z" fill="#FACA30"/>
<path fill-rule="evenodd" clip-rule="evenodd" d="M186.165 140.781C180.582 139.527 177.284 133.222 178.814 126.726C180.343 120.23 186.13 115.965 191.714 117.219C197.297 118.473 200.595 124.778 199.065 131.274C197.535 137.77 191.748 142.035 186.165 140.781Z" fill="#CDBFF3"/>
<path fill-rule="evenodd" clip-rule="evenodd" d="M187.329 140.395C181.784 139.127 178.508 132.753 180.028 126.186C181.053 121.757 184.002 118.358 187.514 117C183.479 117.979 179.953 121.639 178.811 126.571C177.292 133.138 180.567 139.512 186.113 140.78C187.918 141.192 189.744 141.01 191.439 140.356C190.102 140.68 188.71 140.711 187.329 140.395Z" fill="#D3C2FF"/>
<path fill-rule="evenodd" clip-rule="evenodd" d="M194.972 123.296L192.248 122.623C192.077 122.58 191.932 122.777 192.008 122.946C192.276 123.549 192.399 124.272 192.306 125.134C192.294 125.245 192.356 125.346 192.455 125.371L194.328 125.834C194.438 125.861 194.502 125.981 194.472 126.101L194.267 126.91C194.236 127.03 194.122 127.106 194.012 127.078L192.165 126.622C192.063 126.596 191.959 126.66 191.918 126.767C191.075 129.002 189.199 130.133 186.797 129.788C186.631 129.764 186.501 129.951 186.572 130.112C187.56 132.339 188.555 134.994 189.53 137.686C189.591 137.854 189.446 138.035 189.282 137.994L187.799 137.628C187.736 137.612 187.685 137.565 187.662 137.501C186.671 134.826 185.731 132.334 184.459 129.435C184.438 129.389 184.434 129.334 184.447 129.283L184.763 128.037C184.793 127.917 184.907 127.842 185.017 127.869L185.951 128.1C188.064 128.622 189.504 127.905 190.141 126.392C190.195 126.264 190.132 126.119 190.008 126.088L185.737 125.032C185.627 125.005 185.563 124.885 185.593 124.765L185.798 123.956C185.829 123.836 185.943 123.761 186.053 123.788L190.228 124.82C190.363 124.854 190.497 124.734 190.491 124.584C190.44 123.238 189.537 122.349 187.866 121.935L186.602 121.623C186.492 121.596 186.428 121.476 186.458 121.356L186.758 120.174C186.789 120.054 186.903 119.978 187.013 120.006L195.288 122.052C195.398 122.079 195.462 122.199 195.432 122.319L195.227 123.127C195.196 123.248 195.082 123.323 194.972 123.296Z" fill="#D3C2FF"/>
<path fill-rule="evenodd" clip-rule="evenodd" d="M193.972 123.296L191.248 122.623C191.077 122.58 190.932 122.777 191.008 122.947C191.276 123.549 191.399 124.272 191.306 125.134C191.294 125.245 191.356 125.346 191.455 125.371L193.328 125.834C193.438 125.861 193.502 125.981 193.472 126.101L193.267 126.91C193.236 127.03 193.122 127.106 193.012 127.078L191.165 126.621C191.064 126.596 190.959 126.66 190.918 126.767C190.075 129.002 188.199 130.134 185.797 129.788C185.631 129.764 185.501 129.951 185.572 130.112C186.56 132.339 187.555 134.994 188.531 137.686C188.591 137.854 188.446 138.035 188.282 137.994L186.799 137.628C186.736 137.612 186.686 137.565 186.662 137.501C185.671 134.826 184.731 132.334 183.459 129.435C183.438 129.389 183.434 129.334 183.447 129.283L183.763 128.037C183.793 127.917 183.907 127.842 184.017 127.869L184.951 128.1C187.064 128.622 188.504 127.905 189.141 126.392C189.195 126.264 189.131 126.119 189.008 126.088L184.737 125.032C184.627 125.005 184.563 124.885 184.593 124.765L184.799 123.956C184.829 123.836 184.943 123.761 185.053 123.788L189.228 124.82C189.363 124.854 189.497 124.734 189.491 124.584C189.44 123.238 188.537 122.349 186.866 121.935L185.602 121.623C185.492 121.596 185.428 121.476 185.458 121.356L185.758 120.174C185.789 120.054 185.903 119.978 186.013 120.006L194.288 122.052C194.398 122.079 194.462 122.199 194.432 122.319L194.227 123.127C194.196 123.248 194.082 123.323 193.972 123.296Z" fill="white"/>
<path d="M201.764 104.136L201.082 106.182H208.894C208.708 106.957 208.274 107.577 207.623 108.042C206.662 108.724 205.205 109.065 203.252 109.065H201.33V111.483C202.012 111.483 202.694 111.7 203.314 112.134C203.872 112.506 204.399 113.002 204.895 113.684L210.444 121H215.373L208.677 112.568C207.995 111.7 207.53 111.142 207.282 110.956C208.925 110.584 210.227 109.902 211.219 108.91C211.901 108.166 212.366 107.236 212.552 106.182H215.776L216.458 104.136H212.614C212.49 102.865 212.087 101.78 211.436 100.912H215.745L216.427 98.866H201.702L201.02 100.912H204.337C205.856 100.912 207.003 101.222 207.809 101.904C208.429 102.431 208.801 103.175 208.956 104.136H201.764Z" fill="white"/>
<path fill-rule="evenodd" clip-rule="evenodd" d="M218.44 138L218.439 141.684C218.439 142.962 224.707 143.999 232.439 144C240.17 144.001 246.439 142.967 246.439 141.69L246.439 138.005L218.44 138Z" fill="#CDBFF3"/>
<path fill-rule="evenodd" clip-rule="evenodd" d="M246.439 138.002C246.439 139.107 240.171 140.001 232.439 140C224.707 139.999 218.439 139.102 218.439 137.998C218.44 136.893 224.708 135.999 232.44 136C240.171 136.001 246.439 136.898 246.439 138.002Z" fill="#7F66BF"/>
<path fill-rule="evenodd" clip-rule="evenodd" d="M243.439 138.002C243.439 138.554 238.514 139.001 232.439 139C226.364 138.999 221.439 138.55 221.439 137.998C221.44 137.446 226.365 136.999 232.44 137C238.515 137.001 243.44 137.45 243.439 138.002Z" fill="#EC953A"/>
<path fill-rule="evenodd" clip-rule="evenodd" d="M221.913 137.997C223.284 137.68 227.477 137.449 232.439 137.45C237.402 137.451 241.595 137.682 242.966 138C243.273 137.929 243.439 137.853 243.439 137.775C243.44 137.348 238.515 137.001 232.44 137C226.365 136.999 221.44 137.345 221.439 137.772C221.439 137.85 221.606 137.926 221.913 137.997Z" fill="#E46F35"/>
<path fill-rule="evenodd" clip-rule="evenodd" d="M217.44 134L217.439 137.685C217.439 138.962 223.707 139.999 231.439 140C239.17 140.001 245.439 138.967 245.439 137.69L245.439 134.005L217.44 134Z" fill="#CDBFF3"/>
<path fill-rule="evenodd" clip-rule="evenodd" d="M245.439 134.003C245.439 135.107 239.171 136.001 231.439 136C223.707 135.999 217.439 135.102 217.439 133.998C217.44 132.893 223.708 131.999 231.439 132C239.172 132.001 245.44 132.898 245.439 134.003Z" fill="#E6DDFF"/>
<path fill-rule="evenodd" clip-rule="evenodd" d="M242.439 134.002C242.439 134.554 237.514 135.001 231.439 135C225.364 134.999 220.439 134.55 220.439 133.998C220.439 133.446 225.364 132.999 231.439 133C237.515 133.001 242.439 133.45 242.439 134.002Z" fill="#D3C2FF"/>
<path fill-rule="evenodd" clip-rule="evenodd" d="M220.913 133.997C222.284 133.68 226.477 133.449 231.439 133.45C236.402 133.45 240.595 133.682 241.965 134C242.273 133.929 242.439 133.853 242.439 133.775C242.439 133.348 237.515 133.001 231.439 133C225.364 132.999 220.439 133.345 220.439 133.772C220.439 133.85 220.606 133.926 220.913 133.997Z" fill="#7F66BF"/>
<path d="M155.444 70L156.439 68.0717L155.011 66.4335L155.512 64.3248L153.728 63.0763L153.703 60.9099L151.671 60.1218L151.126 58.0237L148.963 57.7388L147.93 55.83L145.761 56.0675L144.297 54.4614L142.249 55.2106L140.439 54L138.63 55.2106L136.582 54.4614L135.117 56.0675L132.948 55.8301L131.916 57.7388L129.752 58.0238L129.208 60.1219L127.175 60.9101L127.15 63.0765L125.367 64.3248L125.868 66.4336L124.439 68.0717L125.435 70L124.439 71.9283L125.868 73.5665L125.367 75.6752L127.15 76.9237L127.175 79.0901L129.208 79.8782L129.752 81.9763L131.916 82.2612L132.948 84.17L135.117 83.9325L136.582 85.5386L138.63 84.7894L140.439 86L142.249 84.7894L144.297 85.5386L145.761 83.9325L147.93 84.1699L148.963 82.2612L151.126 81.9762L151.671 79.8781L153.704 79.0899L153.728 76.9235L155.512 75.6752L155.011 73.5664L156.439 71.9283L155.444 70Z" fill="#AD95D6"/>
<circle cx="140.439" cy="70" r="13" fill="#CDBFF3"/>
<path fill-rule="evenodd" clip-rule="evenodd" d="M140.445 60.1C140.791 60.1002 141.136 60.1182 141.48 60.154L141.594 59.0599C141.213 59.0202 140.829 59.0002 140.445 59L140.445 60.1ZM138.386 60.313L138.159 59.2366C138.535 59.1575 138.915 59.0981 139.297 59.0586L139.41 60.1529C139.066 60.1883 138.724 60.2418 138.386 60.3131V60.313ZM142.503 60.3151C142.841 60.3869 143.175 60.4764 143.503 60.5832L143.844 59.5369C143.478 59.4183 143.107 59.3189 142.731 59.239L142.503 60.3151ZM136.418 60.9506L135.971 59.9457C136.322 59.7894 136.681 59.6517 137.046 59.5332L137.385 60.5795C137.056 60.6862 136.734 60.8101 136.418 60.9506ZM144.47 60.9546C144.785 61.0956 145.093 61.2528 145.392 61.4258L145.943 60.4738C145.611 60.2815 145.269 60.1068 144.919 59.9502L144.47 60.9546ZM134.626 61.9853L133.979 61.0954C134.29 60.8698 134.612 60.6604 134.945 60.4682L135.495 61.4208C135.196 61.5938 134.906 61.7823 134.626 61.9856V61.9853ZM146.261 61.991C146.54 62.1945 146.809 62.4124 147.065 62.6437L147.802 61.8268C147.517 61.5698 147.219 61.3277 146.908 61.1017L146.261 61.991ZM133.087 63.37L132.27 62.6332C132.528 62.3482 132.8 62.0768 133.085 61.82L133.82 62.6377C133.564 62.869 133.319 63.1134 133.087 63.37ZM147.798 63.377C148.029 63.634 148.247 63.9028 148.451 64.1824L149.34 63.5352C149.114 63.225 148.872 62.9266 148.615 62.6414L147.798 63.377ZM131.868 65.0424L130.916 64.4906C131.109 64.1585 131.319 63.8368 131.545 63.5265L132.434 64.1745C132.23 64.4538 132.041 64.7435 131.868 65.0424ZM149.016 65.051C149.189 65.3502 149.346 65.6582 149.487 65.9739L150.492 65.5258C150.335 65.175 150.16 64.8326 149.968 64.5L149.016 65.051ZM131.024 66.9307L129.978 66.59C130.097 66.2248 130.236 65.8661 130.392 65.5154L131.396 65.9643C131.256 66.2797 131.131 66.6023 131.024 66.9307ZM149.858 66.9406C149.965 67.2694 150.054 67.6035 150.125 67.9416L151.202 67.7139C151.122 67.338 151.023 66.9666 150.904 66.6011L149.858 66.9406ZM130.594 68.954L129.5 68.8392C129.54 68.4573 129.6 68.0778 129.68 67.7022L130.756 67.9308C130.684 68.2688 130.63 68.6103 130.594 68.954ZM150.339 70.0231H151.439V70C151.439 69.6163 151.42 69.2329 151.38 68.8512L150.286 68.9648C150.321 69.3087 150.339 69.6542 150.339 70V70.0231ZM129.497 71.1368C129.459 70.7591 129.439 70.3797 129.439 70V69.9885H130.539V70C130.539 70.3421 130.557 70.684 130.592 71.0244L129.497 71.1368ZM150.121 72.08L151.196 72.31C151.276 71.9345 151.337 71.555 151.377 71.1732L150.284 71.0572C150.247 71.4007 150.193 71.7421 150.121 72.08ZM129.971 73.3872C129.853 73.0216 129.754 72.65 129.675 72.274L130.751 72.0477C130.822 72.3858 130.911 72.72 131.018 73.0488L129.971 73.3872ZM149.478 74.0456L150.481 74.4956V74.4958C150.639 74.1453 150.777 73.7869 150.897 73.4219L149.851 73.08C149.744 73.4082 149.619 73.7305 149.478 74.0456ZM130.905 75.489C130.713 75.1563 130.538 74.8137 130.382 74.4628L131.387 74.0159C131.528 74.3317 131.685 74.64 131.857 74.9394L130.905 75.489ZM148.438 75.8341L149.327 76.4831C149.553 76.1731 149.763 75.8515 149.956 75.5197L149.005 74.9668C148.831 75.2656 148.642 75.5551 148.438 75.8341ZM132.255 77.35C131.999 77.0644 131.757 76.7657 131.531 76.455L132.422 75.8088C132.625 76.0885 132.842 76.3575 133.073 76.6146L132.255 77.35ZM147.05 77.37L147.785 78.1881C148.07 77.9317 148.342 77.6606 148.6 77.376L147.784 76.6385C147.552 76.8949 147.307 77.139 147.05 77.37ZM133.961 78.8905C133.651 78.6641 133.353 78.4218 133.068 78.1645L133.805 77.3483C134.062 77.5801 134.33 77.7985 134.609 78.0025L133.961 78.8905ZM145.374 78.5841L145.923 79.5373V79.5375C146.256 79.3456 146.578 79.1364 146.889 78.9109L146.244 78.0204C145.964 78.2233 145.674 78.4114 145.374 78.5841ZM135.949 80.0444C135.599 79.8874 135.257 79.7122 134.925 79.5195L135.477 78.5682C135.776 78.7416 136.083 78.8992 136.399 79.0404L135.949 80.0444ZM143.483 79.4236L143.821 80.4704V80.4706C144.186 80.3525 144.546 80.2152 144.897 80.0594L144.451 79.0539C144.135 79.194 143.812 79.3174 143.483 79.4236ZM138.136 80.7583C137.76 80.6781 137.389 80.5783 137.023 80.4593L137.365 79.4135C137.693 79.5206 138.027 79.6104 138.365 79.6825L138.136 80.7583ZM141.458 79.8483L141.57 80.9426C141.952 80.9035 142.331 80.8446 142.707 80.766L142.482 79.6894C142.144 79.7601 141.802 79.8131 141.458 79.8483ZM139.272 80.9388C139.654 80.9789 140.037 80.9993 140.421 81L140.423 79.8999C140.077 79.8993 139.732 79.881 139.388 79.8449L139.272 80.9388Z" fill="#AD95D6"/>
<circle cx="140.439" cy="70" r="8" fill="#F0E9FF"/>
<path d="M138.604 74C138.325 74.0004 138.057 73.8878 137.86 73.6873L135.754 71.5521C135.484 71.2833 135.378 70.8882 135.474 70.5172C135.571 70.1463 135.857 69.8566 136.223 69.7585C136.588 69.6603 136.978 69.7687 137.243 70.0424L138.604 71.4226L143.649 66.3059C144.061 65.8954 144.723 65.8984 145.131 66.3127C145.539 66.7269 145.542 67.3976 145.138 67.8156L139.348 73.6873C139.151 73.8878 138.883 74.0004 138.604 74Z" fill="#35CB5D"/>
</svg>
