<svg width="218" height="163" viewBox="0 0 218 163" fill="none" xmlns="http://www.w3.org/2000/svg">
<rect width="218" height="163" rx="4" fill="#F3EDFF"/>
<path opacity="0.650507" d="M113.333 21.9701C124.656 15.9674 125 0 125 0L0 0C0 0 0 55.6119 0 61.791C3.33332 67.6269 11.25 69 23.3332 69C35.4165 69 52.0831 67.2836 60.4164 51.4925C68.7497 35.7015 65.8843 31.6508 77.083 25.403C88.2818 19.1552 102.01 27.9729 113.333 21.9701Z" fill="#E4DBF7"/>
<path opacity="0.58152" d="M212.647 91.7447C216.786 96.2282 217.3 100.285 217.782 104.834C218.159 108.394 217.884 148.986 217.803 159.908C217.791 161.412 216.584 162.6 215.08 162.6C207.116 162.6 184.17 162.6 182.254 162.6C184.977 156.157 158.774 133.108 158.048 116.145C157.322 99.1806 164.843 88.6936 178.857 83.2034C192.871 77.7132 204.762 83.2034 212.647 91.7447Z" fill="#E4DBF7"/>
<path d="M21.53 88C21.43 88 21.345 87.965 21.275 87.895C21.205 87.825 21.17 87.74 21.17 87.64V77.875C21.17 77.765 21.2 77.675 21.26 77.605C21.33 77.535 21.42 77.5 21.53 77.5H22.91C23.02 77.5 23.11 77.535 23.18 77.605C23.25 77.675 23.285 77.765 23.285 77.875V81.73H27.665V77.875C27.665 77.765 27.7 77.675 27.77 77.605C27.84 77.535 27.925 77.5 28.025 77.5H29.42C29.53 77.5 29.615 77.535 29.675 77.605C29.745 77.675 29.78 77.765 29.78 77.875V87.64C29.78 87.74 29.745 87.825 29.675 87.895C29.615 87.965 29.53 88 29.42 88H28.025C27.925 88 27.84 87.965 27.77 87.895C27.7 87.825 27.665 87.74 27.665 87.64V83.635H23.285V87.64C23.285 87.74 23.25 87.825 23.18 87.895C23.11 87.965 23.02 88 22.91 88H21.53Z" fill="#4F2DA7"/>
<path d="M34.212 88.15C33.702 88.15 33.232 88.05 32.802 87.85C32.382 87.64 32.047 87.36 31.797 87.01C31.557 86.66 31.437 86.275 31.437 85.855C31.437 85.175 31.712 84.625 32.262 84.205C32.812 83.785 33.567 83.5 34.527 83.35L36.582 83.05V82.735C36.582 82.305 36.472 81.98 36.252 81.76C36.032 81.54 35.682 81.43 35.202 81.43C34.872 81.43 34.607 81.49 34.407 81.61C34.207 81.73 34.042 81.855 33.912 81.985C33.792 82.105 33.712 82.185 33.672 82.225C33.632 82.345 33.557 82.405 33.447 82.405H32.277C32.187 82.405 32.107 82.375 32.037 82.315C31.977 82.255 31.947 82.175 31.947 82.075C31.957 81.825 32.077 81.545 32.307 81.235C32.547 80.915 32.912 80.64 33.402 80.41C33.892 80.17 34.497 80.05 35.217 80.05C36.397 80.05 37.257 80.315 37.797 80.845C38.337 81.375 38.607 82.07 38.607 82.93V87.64C38.607 87.74 38.572 87.825 38.502 87.895C38.442 87.965 38.357 88 38.247 88H37.002C36.902 88 36.817 87.965 36.747 87.895C36.677 87.825 36.642 87.74 36.642 87.64V87.055C36.422 87.375 36.112 87.64 35.712 87.85C35.312 88.05 34.812 88.15 34.212 88.15ZM34.722 86.71C35.272 86.71 35.722 86.53 36.072 86.17C36.422 85.81 36.597 85.29 36.597 84.61V84.31L35.097 84.55C33.947 84.73 33.372 85.115 33.372 85.705C33.372 86.025 33.502 86.275 33.762 86.455C34.032 86.625 34.352 86.71 34.722 86.71Z" fill="#4F2DA7"/>
<path d="M43.501 88.15C42.741 88.15 42.106 88.035 41.596 87.805C41.086 87.575 40.706 87.31 40.456 87.01C40.216 86.7 40.096 86.435 40.096 86.215C40.096 86.115 40.126 86.035 40.186 85.975C40.256 85.915 40.336 85.885 40.426 85.885H41.656C41.736 85.885 41.806 85.925 41.866 86.005C41.916 86.045 42.026 86.14 42.196 86.29C42.376 86.44 42.576 86.56 42.796 86.65C43.026 86.73 43.276 86.77 43.546 86.77C43.946 86.77 44.271 86.695 44.521 86.545C44.771 86.385 44.896 86.16 44.896 85.87C44.896 85.67 44.836 85.51 44.716 85.39C44.606 85.26 44.401 85.145 44.101 85.045C43.811 84.935 43.371 84.815 42.781 84.685C41.931 84.505 41.301 84.23 40.891 83.86C40.491 83.49 40.291 83 40.291 82.39C40.291 81.99 40.411 81.615 40.651 81.265C40.891 80.905 41.246 80.615 41.716 80.395C42.196 80.165 42.766 80.05 43.426 80.05C44.106 80.05 44.691 80.16 45.181 80.38C45.671 80.59 46.041 80.845 46.291 81.145C46.551 81.445 46.681 81.71 46.681 81.94C46.681 82.03 46.646 82.11 46.576 82.18C46.516 82.24 46.441 82.27 46.351 82.27H45.226C45.116 82.27 45.031 82.23 44.971 82.15C44.901 82.1 44.786 82.01 44.626 81.88C44.476 81.74 44.306 81.63 44.116 81.55C43.926 81.47 43.696 81.43 43.426 81.43C43.056 81.43 42.771 81.51 42.571 81.67C42.371 81.83 42.271 82.04 42.271 82.3C42.271 82.48 42.316 82.63 42.406 82.75C42.506 82.87 42.701 82.985 42.991 83.095C43.281 83.195 43.716 83.3 44.296 83.41C46.096 83.76 46.996 84.545 46.996 85.765C46.996 86.475 46.686 87.05 46.066 87.49C45.456 87.93 44.601 88.15 43.501 88.15Z" fill="#4F2DA7"/>
<path d="M51.4991 88.15C50.7391 88.15 50.1041 88.035 49.5941 87.805C49.0841 87.575 48.7041 87.31 48.4541 87.01C48.2141 86.7 48.0941 86.435 48.0941 86.215C48.0941 86.115 48.1241 86.035 48.1841 85.975C48.2541 85.915 48.3341 85.885 48.4241 85.885H49.6541C49.7341 85.885 49.8041 85.925 49.8641 86.005C49.9141 86.045 50.0241 86.14 50.1941 86.29C50.3741 86.44 50.5741 86.56 50.7941 86.65C51.0241 86.73 51.2741 86.77 51.5441 86.77C51.9441 86.77 52.2691 86.695 52.5191 86.545C52.7691 86.385 52.8941 86.16 52.8941 85.87C52.8941 85.67 52.8341 85.51 52.7141 85.39C52.6041 85.26 52.3991 85.145 52.0991 85.045C51.8091 84.935 51.3691 84.815 50.7791 84.685C49.9291 84.505 49.2991 84.23 48.8891 83.86C48.4891 83.49 48.2891 83 48.2891 82.39C48.2891 81.99 48.4091 81.615 48.6491 81.265C48.8891 80.905 49.2441 80.615 49.7141 80.395C50.1941 80.165 50.7641 80.05 51.4241 80.05C52.1041 80.05 52.6891 80.16 53.1791 80.38C53.6691 80.59 54.0391 80.845 54.2891 81.145C54.5491 81.445 54.6791 81.71 54.6791 81.94C54.6791 82.03 54.6441 82.11 54.5741 82.18C54.5141 82.24 54.4391 82.27 54.3491 82.27H53.2241C53.1141 82.27 53.0291 82.23 52.9691 82.15C52.8991 82.1 52.7841 82.01 52.6241 81.88C52.4741 81.74 52.3041 81.63 52.1141 81.55C51.9241 81.47 51.6941 81.43 51.4241 81.43C51.0541 81.43 50.7691 81.51 50.5691 81.67C50.3691 81.83 50.2691 82.04 50.2691 82.3C50.2691 82.48 50.3141 82.63 50.4041 82.75C50.5041 82.87 50.6991 82.985 50.9891 83.095C51.2791 83.195 51.7141 83.3 52.2941 83.41C54.0941 83.76 54.9941 84.545 54.9941 85.765C54.9941 86.475 54.6841 87.05 54.0641 87.49C53.4541 87.93 52.5991 88.15 51.4991 88.15Z" fill="#4F2DA7"/>
<path d="M56.9021 88C56.8021 88 56.7171 87.965 56.6471 87.895C56.5771 87.825 56.5421 87.74 56.5421 87.64V77.71C56.5421 77.6 56.5771 77.515 56.6471 77.455C56.7171 77.385 56.8021 77.35 56.9021 77.35H58.1621C58.2721 77.35 58.3571 77.385 58.4171 77.455C58.4871 77.515 58.5221 77.6 58.5221 77.71V87.64C58.5221 87.74 58.4871 87.825 58.4171 87.895C58.3571 87.965 58.2721 88 58.1621 88H56.9021Z" fill="#4F2DA7"/>
<path d="M63.8865 88.15C62.7665 88.15 61.8765 87.83 61.2165 87.19C60.5665 86.55 60.2215 85.64 60.1815 84.46L60.1665 84.085C60.1665 82.835 60.4915 81.85 61.1415 81.13C61.8015 80.41 62.7115 80.05 63.8715 80.05C65.0615 80.05 65.9765 80.41 66.6165 81.13C67.2665 81.85 67.5915 82.81 67.5915 84.01V84.325C67.5915 84.425 67.5565 84.51 67.4865 84.58C67.4165 84.65 67.3265 84.685 67.2165 84.685H62.2365V84.805C62.2565 85.365 62.4065 85.83 62.6865 86.2C62.9765 86.56 63.3715 86.74 63.8715 86.74C64.4415 86.74 64.9065 86.51 65.2665 86.05C65.3565 85.94 65.4265 85.875 65.4765 85.855C65.5265 85.825 65.6115 85.81 65.7315 85.81H67.0515C67.1415 85.81 67.2165 85.835 67.2765 85.885C67.3465 85.935 67.3815 86.005 67.3815 86.095C67.3815 86.335 67.2365 86.62 66.9465 86.95C66.6665 87.27 66.2615 87.55 65.7315 87.79C65.2015 88.03 64.5865 88.15 63.8865 88.15ZM65.5215 83.41V83.38C65.5215 82.79 65.3715 82.32 65.0715 81.97C64.7815 81.61 64.3815 81.43 63.8715 81.43C63.3615 81.43 62.9615 81.61 62.6715 81.97C62.3815 82.32 62.2365 82.79 62.2365 83.38V83.41H65.5215Z" fill="#4F2DA7"/>
<path d="M69.4834 84.37C69.3834 84.37 69.2984 84.335 69.2284 84.265C69.1584 84.195 69.1234 84.11 69.1234 84.01V82.99C69.1234 82.89 69.1584 82.805 69.2284 82.735C69.2984 82.665 69.3834 82.63 69.4834 82.63H74.1034C74.2134 82.63 74.2984 82.665 74.3584 82.735C74.4284 82.795 74.4634 82.88 74.4634 82.99V84.01C74.4634 84.11 74.4284 84.195 74.3584 84.265C74.2884 84.335 74.2034 84.37 74.1034 84.37H69.4834Z" fill="#4F2DA7"/>
<path d="M77.4 88C77.3 88 77.215 87.965 77.145 87.895C77.075 87.825 77.04 87.74 77.04 87.64V81.805H75.825C75.725 81.805 75.64 81.77 75.57 81.7C75.5 81.63 75.465 81.545 75.465 81.445V80.56C75.465 80.46 75.5 80.375 75.57 80.305C75.64 80.235 75.725 80.2 75.825 80.2H77.04V79.6C77.04 78.69 77.285 78.015 77.775 77.575C78.265 77.125 79.005 76.9 79.995 76.9H81.03C81.13 76.9 81.215 76.935 81.285 77.005C81.355 77.075 81.39 77.16 81.39 77.26V78.145C81.39 78.245 81.355 78.33 81.285 78.4C81.215 78.47 81.13 78.505 81.03 78.505H80.07C79.68 78.505 79.405 78.6 79.245 78.79C79.085 78.98 79.005 79.275 79.005 79.675V80.2H80.88C80.98 80.2 81.065 80.235 81.135 80.305C81.205 80.375 81.24 80.46 81.24 80.56V81.445C81.24 81.545 81.205 81.63 81.135 81.7C81.065 81.77 80.98 81.805 80.88 81.805H79.005V87.64C79.005 87.74 78.97 87.825 78.9 87.895C78.84 87.965 78.755 88 78.645 88H77.4Z" fill="#4F2DA7"/>
<path d="M82.7855 88C82.6855 88 82.6005 87.965 82.5306 87.895C82.4606 87.825 82.4255 87.74 82.4255 87.64V80.575C82.4255 80.465 82.4606 80.375 82.5306 80.305C82.6005 80.235 82.6855 80.2 82.7855 80.2H84.0156C84.1256 80.2 84.2155 80.235 84.2855 80.305C84.3555 80.375 84.3906 80.465 84.3906 80.575V81.19C84.8906 80.53 85.6105 80.2 86.5505 80.2H87.1806C87.2906 80.2 87.3756 80.235 87.4355 80.305C87.5055 80.365 87.5406 80.45 87.5406 80.56V81.655C87.5406 81.755 87.5055 81.84 87.4355 81.91C87.3756 81.98 87.2906 82.015 87.1806 82.015H85.9955C85.5255 82.015 85.1555 82.15 84.8855 82.42C84.6155 82.69 84.4805 83.06 84.4805 83.53V87.64C84.4805 87.74 84.4456 87.825 84.3756 87.895C84.3056 87.965 84.2205 88 84.1205 88H82.7855Z" fill="#4F2DA7"/>
<path d="M91.9822 88.15C90.8622 88.15 89.9722 87.83 89.3122 87.19C88.6622 86.55 88.3172 85.64 88.2772 84.46L88.2622 84.085C88.2622 82.835 88.5872 81.85 89.2372 81.13C89.8972 80.41 90.8072 80.05 91.9672 80.05C93.1572 80.05 94.0722 80.41 94.7122 81.13C95.3622 81.85 95.6872 82.81 95.6872 84.01V84.325C95.6872 84.425 95.6522 84.51 95.5822 84.58C95.5122 84.65 95.4222 84.685 95.3122 84.685H90.3322V84.805C90.3522 85.365 90.5022 85.83 90.7822 86.2C91.0722 86.56 91.4672 86.74 91.9672 86.74C92.5372 86.74 93.0022 86.51 93.3622 86.05C93.4522 85.94 93.5222 85.875 93.5722 85.855C93.6222 85.825 93.7072 85.81 93.8272 85.81H95.1472C95.2372 85.81 95.3122 85.835 95.3722 85.885C95.4422 85.935 95.4772 86.005 95.4772 86.095C95.4772 86.335 95.3322 86.62 95.0422 86.95C94.7622 87.27 94.3572 87.55 93.8272 87.79C93.2972 88.03 92.6822 88.15 91.9822 88.15ZM93.6172 83.41V83.38C93.6172 82.79 93.4672 82.32 93.1672 81.97C92.8772 81.61 92.4772 81.43 91.9672 81.43C91.4572 81.43 91.0572 81.61 90.7672 81.97C90.4772 82.32 90.3322 82.79 90.3322 83.38V83.41H93.6172Z" fill="#4F2DA7"/>
<path d="M100.654 88.15C99.5341 88.15 98.6441 87.83 97.9841 87.19C97.3341 86.55 96.9891 85.64 96.9491 84.46L96.9341 84.085C96.9341 82.835 97.2591 81.85 97.9091 81.13C98.5691 80.41 99.4791 80.05 100.639 80.05C101.829 80.05 102.744 80.41 103.384 81.13C104.034 81.85 104.359 82.81 104.359 84.01V84.325C104.359 84.425 104.324 84.51 104.254 84.58C104.184 84.65 104.094 84.685 103.984 84.685H99.0041V84.805C99.0241 85.365 99.1741 85.83 99.4541 86.2C99.7441 86.56 100.139 86.74 100.639 86.74C101.209 86.74 101.674 86.51 102.034 86.05C102.124 85.94 102.194 85.875 102.244 85.855C102.294 85.825 102.379 85.81 102.499 85.81H103.819C103.909 85.81 103.984 85.835 104.044 85.885C104.114 85.935 104.149 86.005 104.149 86.095C104.149 86.335 104.004 86.62 103.714 86.95C103.434 87.27 103.029 87.55 102.499 87.79C101.969 88.03 101.354 88.15 100.654 88.15ZM102.289 83.41V83.38C102.289 82.79 102.139 82.32 101.839 81.97C101.549 81.61 101.149 81.43 100.639 81.43C100.129 81.43 99.7291 81.61 99.4391 81.97C99.1491 82.32 99.0041 82.79 99.0041 83.38V83.41H102.289Z" fill="#4F2DA7"/>
<path d="M21.43 120C21.3433 120 21.274 119.974 21.222 119.922C21.17 119.861 21.144 119.788 21.144 119.701V111.212C21.144 111.117 21.17 111.043 21.222 110.991C21.274 110.93 21.3433 110.9 21.43 110.9H26.708C26.8033 110.9 26.877 110.93 26.929 110.991C26.9897 111.043 27.02 111.117 27.02 111.212V111.693C27.02 111.78 26.9897 111.853 26.929 111.914C26.877 111.966 26.8033 111.992 26.708 111.992H22.353V115.073H26.448C26.5433 115.073 26.617 115.103 26.669 115.164C26.7297 115.216 26.76 115.285 26.76 115.372V115.866C26.76 115.953 26.7297 116.026 26.669 116.087C26.6083 116.139 26.5347 116.165 26.448 116.165H22.353V119.701C22.353 119.788 22.3227 119.861 22.262 119.922C22.2013 119.974 22.1277 120 22.041 120H21.43Z" fill="#767E86"/>
<path d="M30.0452 120.13C29.6206 120.13 29.2262 120.043 28.8622 119.87C28.5069 119.697 28.2209 119.463 28.0042 119.168C27.7962 118.865 27.6922 118.531 27.6922 118.167C27.6922 117.595 27.9262 117.127 28.3942 116.763C28.8622 116.399 29.4992 116.156 30.3052 116.035L32.2552 115.762V115.385C32.2552 114.492 31.7396 114.046 30.7082 114.046C30.3096 114.046 29.9889 114.128 29.7462 114.293C29.5036 114.449 29.3259 114.635 29.2132 114.852C29.1786 114.939 29.1396 114.999 29.0962 115.034C29.0616 115.06 29.0096 115.073 28.9402 115.073H28.4332C28.3552 115.073 28.2859 115.047 28.2252 114.995C28.1732 114.934 28.1472 114.865 28.1472 114.787C28.1472 114.588 28.2382 114.358 28.4202 114.098C28.6109 113.829 28.9012 113.6 29.2912 113.409C29.6812 113.21 30.1579 113.11 30.7212 113.11C31.6919 113.11 32.3852 113.335 32.8012 113.786C33.2259 114.237 33.4382 114.8 33.4382 115.476V119.701C33.4382 119.788 33.4079 119.861 33.3472 119.922C33.2952 119.974 33.2259 120 33.1392 120H32.5672C32.4806 120 32.4112 119.974 32.3592 119.922C32.3072 119.861 32.2812 119.788 32.2812 119.701V119.129C32.0906 119.415 31.8132 119.653 31.4492 119.844C31.0852 120.035 30.6172 120.13 30.0452 120.13ZM30.3052 119.181C30.8772 119.181 31.3452 118.995 31.7092 118.622C32.0732 118.249 32.2552 117.708 32.2552 116.997V116.633L30.7342 116.854C30.1102 116.941 29.6379 117.088 29.3172 117.296C28.9966 117.504 28.8362 117.764 28.8362 118.076C28.8362 118.431 28.9792 118.704 29.2652 118.895C29.5599 119.086 29.9066 119.181 30.3052 119.181Z" fill="#767E86"/>
<path d="M37.6347 120.13C37.0367 120.13 36.5297 120.035 36.1137 119.844C35.7064 119.645 35.403 119.419 35.2037 119.168C35.0044 118.917 34.9047 118.709 34.9047 118.544C34.9047 118.457 34.935 118.392 34.9957 118.349C35.0564 118.297 35.1214 118.271 35.1907 118.271H35.7367C35.7887 118.271 35.8277 118.28 35.8537 118.297C35.8884 118.314 35.9317 118.353 35.9837 118.414C36.183 118.657 36.404 118.847 36.6467 118.986C36.898 119.125 37.2317 119.194 37.6477 119.194C38.1157 119.194 38.4884 119.107 38.7657 118.934C39.0517 118.761 39.1947 118.509 39.1947 118.18C39.1947 117.963 39.134 117.79 39.0127 117.66C38.8914 117.53 38.6877 117.413 38.4017 117.309C38.1244 117.205 37.7084 117.092 37.1537 116.971C36.3997 116.806 35.8667 116.568 35.5547 116.256C35.2427 115.944 35.0867 115.541 35.0867 115.047C35.0867 114.726 35.182 114.419 35.3727 114.124C35.5634 113.821 35.845 113.578 36.2177 113.396C36.599 113.205 37.0497 113.11 37.5697 113.11C38.1157 113.11 38.5794 113.201 38.9607 113.383C39.3507 113.565 39.641 113.777 39.8317 114.02C40.031 114.263 40.1307 114.466 40.1307 114.631C40.1307 114.709 40.1004 114.774 40.0397 114.826C39.9877 114.878 39.9227 114.904 39.8447 114.904H39.3507C39.2294 114.904 39.1427 114.856 39.0907 114.761C38.9434 114.596 38.8177 114.471 38.7137 114.384C38.6184 114.289 38.4754 114.211 38.2847 114.15C38.094 114.081 37.8557 114.046 37.5697 114.046C37.145 114.046 36.82 114.137 36.5947 114.319C36.3694 114.492 36.2567 114.726 36.2567 115.021C36.2567 115.203 36.3044 115.359 36.3997 115.489C36.495 115.61 36.677 115.727 36.9457 115.84C37.2144 115.944 37.613 116.052 38.1417 116.165C38.965 116.338 39.5457 116.585 39.8837 116.906C40.2304 117.227 40.4037 117.638 40.4037 118.141C40.4037 118.514 40.2954 118.852 40.0787 119.155C39.8707 119.458 39.5544 119.697 39.1297 119.87C38.7137 120.043 38.2154 120.13 37.6347 120.13Z" fill="#767E86"/>
<path d="M44.5096 120C43.1662 120 42.4946 119.242 42.4946 117.725V114.241H41.4676C41.3809 114.241 41.3116 114.215 41.2596 114.163C41.2076 114.111 41.1816 114.042 41.1816 113.955V113.539C41.1816 113.452 41.2076 113.383 41.2596 113.331C41.3116 113.27 41.3809 113.24 41.4676 113.24H42.4946V111.069C42.4946 110.982 42.5206 110.913 42.5726 110.861C42.6246 110.8 42.6939 110.77 42.7806 110.77H43.3526C43.4392 110.77 43.5086 110.8 43.5606 110.861C43.6212 110.913 43.6516 110.982 43.6516 111.069V113.24H45.2636C45.3502 113.24 45.4196 113.27 45.4716 113.331C45.5322 113.383 45.5626 113.452 45.5626 113.539V113.955C45.5626 114.042 45.5322 114.111 45.4716 114.163C45.4196 114.215 45.3502 114.241 45.2636 114.241H43.6516V117.634C43.6516 118.076 43.7209 118.41 43.8596 118.635C44.0069 118.86 44.2539 118.973 44.6006 118.973H45.3936C45.4802 118.973 45.5496 119.003 45.6016 119.064C45.6536 119.116 45.6796 119.185 45.6796 119.272V119.701C45.6796 119.788 45.6536 119.861 45.6016 119.922C45.5496 119.974 45.4802 120 45.3936 120H44.5096Z" fill="#767E86"/>
<path d="M52.0208 120.13C51.5962 120.13 51.2018 120.043 50.8378 119.87C50.4825 119.697 50.1965 119.463 49.9798 119.168C49.7718 118.865 49.6678 118.531 49.6678 118.167C49.6678 117.595 49.9018 117.127 50.3698 116.763C50.8378 116.399 51.4748 116.156 52.2808 116.035L54.2308 115.762V115.385C54.2308 114.492 53.7152 114.046 52.6838 114.046C52.2852 114.046 51.9645 114.128 51.7218 114.293C51.4792 114.449 51.3015 114.635 51.1888 114.852C51.1542 114.939 51.1152 114.999 51.0718 115.034C51.0372 115.06 50.9852 115.073 50.9158 115.073H50.4088C50.3308 115.073 50.2615 115.047 50.2008 114.995C50.1488 114.934 50.1228 114.865 50.1228 114.787C50.1228 114.588 50.2138 114.358 50.3958 114.098C50.5865 113.829 50.8768 113.6 51.2668 113.409C51.6568 113.21 52.1335 113.11 52.6968 113.11C53.6675 113.11 54.3608 113.335 54.7768 113.786C55.2015 114.237 55.4138 114.8 55.4138 115.476V119.701C55.4138 119.788 55.3835 119.861 55.3228 119.922C55.2708 119.974 55.2015 120 55.1148 120H54.5428C54.4562 120 54.3868 119.974 54.3348 119.922C54.2828 119.861 54.2568 119.788 54.2568 119.701V119.129C54.0662 119.415 53.7888 119.653 53.4248 119.844C53.0608 120.035 52.5928 120.13 52.0208 120.13ZM52.2808 119.181C52.8528 119.181 53.3208 118.995 53.6848 118.622C54.0488 118.249 54.2308 117.708 54.2308 116.997V116.633L52.7098 116.854C52.0858 116.941 51.6135 117.088 51.2928 117.296C50.9722 117.504 50.8118 117.764 50.8118 118.076C50.8118 118.431 50.9548 118.704 51.2408 118.895C51.5355 119.086 51.8822 119.181 52.2808 119.181Z" fill="#767E86"/>
<path d="M57.5953 120C57.5086 120 57.435 119.974 57.3743 119.922C57.3223 119.861 57.2963 119.788 57.2963 119.701V113.539C57.2963 113.452 57.3223 113.383 57.3743 113.331C57.435 113.27 57.5086 113.24 57.5953 113.24H58.1543C58.2496 113.24 58.3233 113.266 58.3753 113.318C58.4273 113.37 58.4533 113.444 58.4533 113.539V114.111C58.7133 113.79 59.0123 113.543 59.3503 113.37C59.697 113.197 60.126 113.11 60.6373 113.11C61.4693 113.11 62.115 113.379 62.5743 113.916C63.0336 114.445 63.2633 115.147 63.2633 116.022V119.701C63.2633 119.788 63.233 119.861 63.1723 119.922C63.1203 119.974 63.051 120 62.9643 120H62.3663C62.2796 120 62.206 119.974 62.1453 119.922C62.0933 119.861 62.0673 119.788 62.0673 119.701V116.1C62.0673 115.476 61.9156 114.991 61.6123 114.644C61.309 114.297 60.8756 114.124 60.3123 114.124C59.7576 114.124 59.3156 114.302 58.9863 114.657C58.657 115.004 58.4923 115.485 58.4923 116.1V119.701C58.4923 119.788 58.462 119.861 58.4013 119.922C58.3493 119.974 58.28 120 58.1933 120H57.5953Z" fill="#767E86"/>
<path d="M67.612 120.13C66.702 120.13 66.0173 119.835 65.558 119.246C65.1073 118.657 64.8647 117.911 64.83 117.01L64.817 116.62L64.83 116.23C64.8647 115.337 65.1117 114.596 65.571 114.007C66.0303 113.409 66.7107 113.11 67.612 113.11C68.5133 113.11 69.2153 113.431 69.718 114.072V111.069C69.718 110.982 69.744 110.913 69.796 110.861C69.8567 110.8 69.9303 110.77 70.017 110.77H70.602C70.6887 110.77 70.758 110.8 70.81 110.861C70.8707 110.913 70.901 110.982 70.901 111.069V119.701C70.901 119.788 70.8707 119.861 70.81 119.922C70.758 119.974 70.6887 120 70.602 120H70.043C69.9563 120 69.887 119.974 69.835 119.922C69.783 119.861 69.757 119.788 69.757 119.701V119.142C69.263 119.801 68.548 120.13 67.612 120.13ZM67.859 119.116C68.4657 119.116 68.9207 118.917 69.224 118.518C69.5273 118.111 69.692 117.63 69.718 117.075C69.7267 116.98 69.731 116.815 69.731 116.581C69.731 116.338 69.7267 116.169 69.718 116.074C69.7007 115.545 69.5317 115.09 69.211 114.709C68.899 114.319 68.4483 114.124 67.859 114.124C67.235 114.124 66.78 114.319 66.494 114.709C66.208 115.099 66.052 115.61 66.026 116.243L66.013 116.62C66.013 118.284 66.6283 119.116 67.859 119.116Z" fill="#767E86"/>
<path d="M78.374 120.13C77.776 120.13 77.269 120.035 76.853 119.844C76.4456 119.645 76.1423 119.419 75.943 119.168C75.7436 118.917 75.644 118.709 75.644 118.544C75.644 118.457 75.6743 118.392 75.735 118.349C75.7956 118.297 75.8606 118.271 75.93 118.271H76.476C76.528 118.271 76.567 118.28 76.593 118.297C76.6276 118.314 76.671 118.353 76.723 118.414C76.9223 118.657 77.1433 118.847 77.386 118.986C77.6373 119.125 77.971 119.194 78.387 119.194C78.855 119.194 79.2276 119.107 79.505 118.934C79.791 118.761 79.934 118.509 79.934 118.18C79.934 117.963 79.8733 117.79 79.752 117.66C79.6306 117.53 79.427 117.413 79.141 117.309C78.8636 117.205 78.4476 117.092 77.893 116.971C77.139 116.806 76.606 116.568 76.294 116.256C75.982 115.944 75.826 115.541 75.826 115.047C75.826 114.726 75.9213 114.419 76.112 114.124C76.3026 113.821 76.5843 113.578 76.957 113.396C77.3383 113.205 77.789 113.11 78.309 113.11C78.855 113.11 79.3186 113.201 79.7 113.383C80.09 113.565 80.3803 113.777 80.571 114.02C80.7703 114.263 80.87 114.466 80.87 114.631C80.87 114.709 80.8396 114.774 80.779 114.826C80.727 114.878 80.662 114.904 80.584 114.904H80.09C79.9686 114.904 79.882 114.856 79.83 114.761C79.6826 114.596 79.557 114.471 79.453 114.384C79.3576 114.289 79.2146 114.211 79.024 114.15C78.8333 114.081 78.595 114.046 78.309 114.046C77.8843 114.046 77.5593 114.137 77.334 114.319C77.1086 114.492 76.996 114.726 76.996 115.021C76.996 115.203 77.0436 115.359 77.139 115.489C77.2343 115.61 77.4163 115.727 77.685 115.84C77.9536 115.944 78.3523 116.052 78.881 116.165C79.7043 116.338 80.285 116.585 80.623 116.906C80.9696 117.227 81.143 117.638 81.143 118.141C81.143 118.514 81.0346 118.852 80.818 119.155C80.61 119.458 80.2936 119.697 79.869 119.87C79.453 120.043 78.9546 120.13 78.374 120.13Z" fill="#767E86"/>
<path d="M82.8565 111.966C82.7699 111.966 82.6962 111.94 82.6355 111.888C82.5835 111.827 82.5575 111.754 82.5575 111.667V110.991C82.5575 110.904 82.5835 110.831 82.6355 110.77C82.6962 110.709 82.7699 110.679 82.8565 110.679H83.6235C83.7102 110.679 83.7839 110.709 83.8445 110.77C83.9052 110.831 83.9355 110.904 83.9355 110.991V111.667C83.9355 111.754 83.9052 111.827 83.8445 111.888C83.7839 111.94 83.7102 111.966 83.6235 111.966H82.8565ZM82.9605 120C82.8739 120 82.8002 119.974 82.7395 119.922C82.6875 119.861 82.6615 119.788 82.6615 119.701V113.539C82.6615 113.452 82.6875 113.383 82.7395 113.331C82.8002 113.27 82.8739 113.24 82.9605 113.24H83.5325C83.6192 113.24 83.6885 113.27 83.7405 113.331C83.8012 113.383 83.8315 113.452 83.8315 113.539V119.701C83.8315 119.788 83.8012 119.861 83.7405 119.922C83.6885 119.974 83.6192 120 83.5325 120H82.9605Z" fill="#767E86"/>
<path d="M86.0836 120C85.9969 120 85.9232 119.974 85.8626 119.922C85.8106 119.861 85.7846 119.788 85.7846 119.701V113.539C85.7846 113.452 85.8106 113.383 85.8626 113.331C85.9232 113.27 85.9969 113.24 86.0836 113.24H86.6296C86.7162 113.24 86.7856 113.27 86.8376 113.331C86.8896 113.383 86.9156 113.452 86.9156 113.539V113.981C87.3836 113.4 88.0162 113.11 88.8136 113.11C89.7669 113.11 90.4429 113.509 90.8416 114.306C91.0496 113.942 91.3442 113.652 91.7256 113.435C92.1156 113.218 92.5489 113.11 93.0256 113.11C93.7362 113.11 94.3169 113.353 94.7676 113.838C95.2182 114.323 95.4436 115.025 95.4436 115.944V119.701C95.4436 119.788 95.4132 119.861 95.3526 119.922C95.3006 119.974 95.2312 120 95.1446 120H94.5856C94.4989 120 94.4252 119.974 94.3646 119.922C94.3126 119.861 94.2866 119.788 94.2866 119.701V116.061C94.2866 115.368 94.1436 114.874 93.8576 114.579C93.5716 114.276 93.1946 114.124 92.7266 114.124C92.3106 114.124 91.9509 114.28 91.6476 114.592C91.3529 114.895 91.2056 115.385 91.2056 116.061V119.701C91.2056 119.788 91.1752 119.861 91.1146 119.922C91.0626 119.974 90.9932 120 90.9066 120H90.3346C90.2479 120 90.1742 119.974 90.1136 119.922C90.0616 119.861 90.0356 119.788 90.0356 119.701V116.061C90.0356 115.376 89.8839 114.882 89.5806 114.579C89.2859 114.276 88.9176 114.124 88.4756 114.124C88.0596 114.124 87.6999 114.276 87.3966 114.579C87.1019 114.882 86.9546 115.372 86.9546 116.048V119.701C86.9546 119.788 86.9242 119.861 86.8636 119.922C86.8116 119.974 86.7422 120 86.6556 120H86.0836Z" fill="#767E86"/>
<path d="M97.6366 122.47C97.5499 122.47 97.4763 122.444 97.4156 122.392C97.3636 122.34 97.3376 122.266 97.3376 122.171V113.539C97.3376 113.444 97.3636 113.37 97.4156 113.318C97.4763 113.266 97.5499 113.24 97.6366 113.24H98.1826C98.2779 113.24 98.3516 113.266 98.4036 113.318C98.4556 113.37 98.4816 113.444 98.4816 113.539V114.111C98.9843 113.444 99.6993 113.11 100.627 113.11C101.537 113.11 102.217 113.4 102.668 113.981C103.127 114.553 103.37 115.285 103.396 116.178C103.404 116.273 103.409 116.421 103.409 116.62C103.409 116.819 103.404 116.967 103.396 117.062C103.37 117.946 103.127 118.678 102.668 119.259C102.217 119.84 101.537 120.13 100.627 120.13C99.6993 120.13 98.9973 119.801 98.5206 119.142V122.171C98.5206 122.258 98.4903 122.327 98.4296 122.379C98.3776 122.44 98.3083 122.47 98.2216 122.47H97.6366ZM100.38 119.116C101.004 119.116 101.459 118.921 101.745 118.531C102.031 118.141 102.187 117.63 102.213 116.997C102.221 116.91 102.226 116.785 102.226 116.62C102.226 114.956 101.61 114.124 100.38 114.124C99.7729 114.124 99.3136 114.328 99.0016 114.735C98.6983 115.134 98.5379 115.606 98.5206 116.152C98.5119 116.247 98.5076 116.416 98.5076 116.659C98.5076 116.902 98.5119 117.071 98.5206 117.166C98.5379 117.695 98.7026 118.154 99.0146 118.544C99.3353 118.925 99.7903 119.116 100.38 119.116Z" fill="#767E86"/>
<path d="M105.355 120C105.269 120 105.195 119.974 105.134 119.922C105.082 119.861 105.056 119.788 105.056 119.701V111.069C105.056 110.974 105.082 110.9 105.134 110.848C105.195 110.796 105.269 110.77 105.355 110.77H105.927C106.014 110.77 106.083 110.8 106.135 110.861C106.196 110.913 106.226 110.982 106.226 111.069V119.701C106.226 119.788 106.196 119.861 106.135 119.922C106.083 119.974 106.014 120 105.927 120H105.355Z" fill="#767E86"/>
<path d="M110.857 120.13C109.973 120.13 109.267 119.857 108.738 119.311C108.209 118.756 107.919 118.002 107.867 117.049L107.854 116.607L107.867 116.178C107.919 115.242 108.209 114.497 108.738 113.942C109.267 113.387 109.973 113.11 110.857 113.11C111.81 113.11 112.547 113.413 113.067 114.02C113.596 114.627 113.86 115.45 113.86 116.49V116.724C113.86 116.811 113.83 116.884 113.769 116.945C113.717 116.997 113.648 117.023 113.561 117.023H109.05V117.14C109.076 117.703 109.249 118.184 109.57 118.583C109.891 118.982 110.315 119.181 110.844 119.181C111.251 119.181 111.581 119.103 111.832 118.947C112.092 118.782 112.287 118.613 112.417 118.44C112.495 118.336 112.556 118.275 112.599 118.258C112.642 118.232 112.716 118.219 112.82 118.219H113.392C113.47 118.219 113.535 118.241 113.587 118.284C113.648 118.327 113.678 118.384 113.678 118.453C113.678 118.644 113.561 118.873 113.327 119.142C113.093 119.411 112.759 119.645 112.326 119.844C111.901 120.035 111.412 120.13 110.857 120.13ZM112.677 116.139V116.1C112.677 115.493 112.512 114.999 112.183 114.618C111.854 114.237 111.412 114.046 110.857 114.046C110.294 114.046 109.852 114.237 109.531 114.618C109.21 114.999 109.05 115.493 109.05 116.1V116.139H112.677Z" fill="#767E86"/>
<path d="M118.952 122.47C118.865 122.47 118.792 122.444 118.731 122.392C118.679 122.34 118.653 122.266 118.653 122.171V113.539C118.653 113.444 118.679 113.37 118.731 113.318C118.792 113.266 118.865 113.24 118.952 113.24H119.498C119.593 113.24 119.667 113.266 119.719 113.318C119.771 113.37 119.797 113.444 119.797 113.539V114.111C120.3 113.444 121.015 113.11 121.942 113.11C122.852 113.11 123.532 113.4 123.983 113.981C124.442 114.553 124.685 115.285 124.711 116.178C124.72 116.273 124.724 116.421 124.724 116.62C124.724 116.819 124.72 116.967 124.711 117.062C124.685 117.946 124.442 118.678 123.983 119.259C123.532 119.84 122.852 120.13 121.942 120.13C121.015 120.13 120.313 119.801 119.836 119.142V122.171C119.836 122.258 119.806 122.327 119.745 122.379C119.693 122.44 119.624 122.47 119.537 122.47H118.952ZM121.695 119.116C122.319 119.116 122.774 118.921 123.06 118.531C123.346 118.141 123.502 117.63 123.528 116.997C123.537 116.91 123.541 116.785 123.541 116.62C123.541 114.956 122.926 114.124 121.695 114.124C121.088 114.124 120.629 114.328 120.317 114.735C120.014 115.134 119.853 115.606 119.836 116.152C119.827 116.247 119.823 116.416 119.823 116.659C119.823 116.902 119.827 117.071 119.836 117.166C119.853 117.695 120.018 118.154 120.33 118.544C120.651 118.925 121.106 119.116 121.695 119.116Z" fill="#767E86"/>
<path d="M126.658 120C126.571 120 126.497 119.974 126.437 119.922C126.385 119.861 126.359 119.788 126.359 119.701V113.552C126.359 113.465 126.385 113.392 126.437 113.331C126.497 113.27 126.571 113.24 126.658 113.24H127.204C127.299 113.24 127.373 113.27 127.425 113.331C127.485 113.383 127.516 113.457 127.516 113.552V114.124C127.871 113.535 128.473 113.24 129.323 113.24H129.83C129.925 113.24 129.999 113.266 130.051 113.318C130.103 113.37 130.129 113.444 130.129 113.539V114.02C130.129 114.107 130.103 114.18 130.051 114.241C129.999 114.293 129.925 114.319 129.83 114.319H129.089C128.612 114.319 128.235 114.458 127.958 114.735C127.689 115.012 127.555 115.389 127.555 115.866V119.701C127.555 119.788 127.524 119.861 127.464 119.922C127.403 119.974 127.329 120 127.243 120H126.658Z" fill="#767E86"/>
<path d="M133.863 120.13C132.909 120.13 132.173 119.861 131.653 119.324C131.141 118.787 130.868 118.072 130.834 117.179L130.821 116.62L130.834 116.061C130.868 115.168 131.146 114.453 131.666 113.916C132.194 113.379 132.927 113.11 133.863 113.11C134.799 113.11 135.527 113.379 136.047 113.916C136.575 114.453 136.857 115.168 136.892 116.061C136.909 116.252 136.918 116.438 136.918 116.62C136.918 116.802 136.909 116.988 136.892 117.179C136.857 118.072 136.58 118.787 136.06 119.324C135.548 119.861 134.816 120.13 133.863 120.13ZM133.863 119.155C134.417 119.155 134.855 118.982 135.176 118.635C135.505 118.28 135.683 117.773 135.709 117.114C135.717 117.027 135.722 116.863 135.722 116.62C135.722 116.377 135.717 116.213 135.709 116.126C135.683 115.467 135.505 114.965 135.176 114.618C134.855 114.263 134.417 114.085 133.863 114.085C133.308 114.085 132.866 114.263 132.537 114.618C132.216 114.965 132.043 115.467 132.017 116.126L132.004 116.62L132.017 117.114C132.043 117.773 132.216 118.28 132.537 118.635C132.866 118.982 133.308 119.155 133.863 119.155Z" fill="#767E86"/>
<path d="M141.263 120.13C140.336 120.13 139.612 119.87 139.092 119.35C138.572 118.821 138.299 118.085 138.273 117.14L138.26 116.62L138.273 116.1C138.299 115.155 138.572 114.423 139.092 113.903C139.612 113.374 140.336 113.11 141.263 113.11C141.887 113.11 142.411 113.223 142.836 113.448C143.269 113.665 143.59 113.938 143.798 114.267C144.015 114.596 144.132 114.926 144.149 115.255C144.158 115.333 144.127 115.402 144.058 115.463C143.997 115.524 143.928 115.554 143.85 115.554H143.278C143.191 115.554 143.126 115.537 143.083 115.502C143.04 115.459 142.996 115.385 142.953 115.281C142.797 114.856 142.58 114.557 142.303 114.384C142.034 114.202 141.692 114.111 141.276 114.111C140.73 114.111 140.297 114.28 139.976 114.618C139.655 114.956 139.482 115.472 139.456 116.165L139.443 116.62L139.456 117.075C139.482 117.768 139.655 118.284 139.976 118.622C140.297 118.96 140.73 119.129 141.276 119.129C141.701 119.129 142.047 119.042 142.316 118.869C142.585 118.687 142.797 118.384 142.953 117.959C142.996 117.855 143.04 117.786 143.083 117.751C143.126 117.708 143.191 117.686 143.278 117.686H143.85C143.928 117.686 143.997 117.716 144.058 117.777C144.127 117.838 144.158 117.907 144.149 117.985C144.132 118.306 144.015 118.631 143.798 118.96C143.59 119.289 143.269 119.567 142.836 119.792C142.411 120.017 141.887 120.13 141.263 120.13Z" fill="#767E86"/>
<path d="M148.384 120.13C147.5 120.13 146.794 119.857 146.265 119.311C145.737 118.756 145.446 118.002 145.394 117.049L145.381 116.607L145.394 116.178C145.446 115.242 145.737 114.497 146.265 113.942C146.794 113.387 147.5 113.11 148.384 113.11C149.338 113.11 150.074 113.413 150.594 114.02C151.123 114.627 151.387 115.45 151.387 116.49V116.724C151.387 116.811 151.357 116.884 151.296 116.945C151.244 116.997 151.175 117.023 151.088 117.023H146.577V117.14C146.603 117.703 146.777 118.184 147.097 118.583C147.418 118.982 147.843 119.181 148.371 119.181C148.779 119.181 149.108 119.103 149.359 118.947C149.619 118.782 149.814 118.613 149.944 118.44C150.022 118.336 150.083 118.275 150.126 118.258C150.17 118.232 150.243 118.219 150.347 118.219H150.919C150.997 118.219 151.062 118.241 151.114 118.284C151.175 118.327 151.205 118.384 151.205 118.453C151.205 118.644 151.088 118.873 150.854 119.142C150.62 119.411 150.287 119.645 149.853 119.844C149.429 120.035 148.939 120.13 148.384 120.13ZM150.204 116.139V116.1C150.204 115.493 150.04 114.999 149.71 114.618C149.381 114.237 148.939 114.046 148.384 114.046C147.821 114.046 147.379 114.237 147.058 114.618C146.738 114.999 146.577 115.493 146.577 116.1V116.139H150.204Z" fill="#767E86"/>
<path d="M155.282 120.13C154.684 120.13 154.177 120.035 153.761 119.844C153.354 119.645 153.051 119.419 152.851 119.168C152.652 118.917 152.552 118.709 152.552 118.544C152.552 118.457 152.582 118.392 152.643 118.349C152.704 118.297 152.769 118.271 152.838 118.271H153.384C153.436 118.271 153.475 118.28 153.501 118.297C153.536 118.314 153.579 118.353 153.631 118.414C153.831 118.657 154.051 118.847 154.294 118.986C154.545 119.125 154.879 119.194 155.295 119.194C155.763 119.194 156.136 119.107 156.413 118.934C156.699 118.761 156.842 118.509 156.842 118.18C156.842 117.963 156.782 117.79 156.66 117.66C156.539 117.53 156.335 117.413 156.049 117.309C155.772 117.205 155.356 117.092 154.801 116.971C154.047 116.806 153.514 116.568 153.202 116.256C152.89 115.944 152.734 115.541 152.734 115.047C152.734 114.726 152.829 114.419 153.02 114.124C153.211 113.821 153.492 113.578 153.865 113.396C154.246 113.205 154.697 113.11 155.217 113.11C155.763 113.11 156.227 113.201 156.608 113.383C156.998 113.565 157.288 113.777 157.479 114.02C157.679 114.263 157.778 114.466 157.778 114.631C157.778 114.709 157.748 114.774 157.687 114.826C157.635 114.878 157.57 114.904 157.492 114.904H156.998C156.877 114.904 156.79 114.856 156.738 114.761C156.591 114.596 156.465 114.471 156.361 114.384C156.266 114.289 156.123 114.211 155.932 114.15C155.741 114.081 155.503 114.046 155.217 114.046C154.792 114.046 154.467 114.137 154.242 114.319C154.017 114.492 153.904 114.726 153.904 115.021C153.904 115.203 153.952 115.359 154.047 115.489C154.142 115.61 154.325 115.727 154.593 115.84C154.862 115.944 155.26 116.052 155.789 116.165C156.612 116.338 157.193 116.585 157.531 116.906C157.878 117.227 158.051 117.638 158.051 118.141C158.051 118.514 157.943 118.852 157.726 119.155C157.518 119.458 157.202 119.697 156.777 119.87C156.361 120.043 155.863 120.13 155.282 120.13Z" fill="#767E86"/>
<path d="M161.884 120.13C161.286 120.13 160.779 120.035 160.363 119.844C159.955 119.645 159.652 119.419 159.453 119.168C159.253 118.917 159.154 118.709 159.154 118.544C159.154 118.457 159.184 118.392 159.245 118.349C159.305 118.297 159.37 118.271 159.44 118.271H159.986C160.038 118.271 160.077 118.28 160.103 118.297C160.137 118.314 160.181 118.353 160.233 118.414C160.432 118.657 160.653 118.847 160.896 118.986C161.147 119.125 161.481 119.194 161.897 119.194C162.365 119.194 162.737 119.107 163.015 118.934C163.301 118.761 163.444 118.509 163.444 118.18C163.444 117.963 163.383 117.79 163.262 117.66C163.14 117.53 162.937 117.413 162.651 117.309C162.373 117.205 161.957 117.092 161.403 116.971C160.649 116.806 160.116 116.568 159.804 116.256C159.492 115.944 159.336 115.541 159.336 115.047C159.336 114.726 159.431 114.419 159.622 114.124C159.812 113.821 160.094 113.578 160.467 113.396C160.848 113.205 161.299 113.11 161.819 113.11C162.365 113.11 162.828 113.201 163.21 113.383C163.6 113.565 163.89 113.777 164.081 114.02C164.28 114.263 164.38 114.466 164.38 114.631C164.38 114.709 164.349 114.774 164.289 114.826C164.237 114.878 164.172 114.904 164.094 114.904H163.6C163.478 114.904 163.392 114.856 163.34 114.761C163.192 114.596 163.067 114.471 162.963 114.384C162.867 114.289 162.724 114.211 162.534 114.15C162.343 114.081 162.105 114.046 161.819 114.046C161.394 114.046 161.069 114.137 160.844 114.319C160.618 114.492 160.506 114.726 160.506 115.021C160.506 115.203 160.553 115.359 160.649 115.489C160.744 115.61 160.926 115.727 161.195 115.84C161.463 115.944 161.862 116.052 162.391 116.165C163.214 116.338 163.795 116.585 164.133 116.906C164.479 117.227 164.653 117.638 164.653 118.141C164.653 118.514 164.544 118.852 164.328 119.155C164.12 119.458 163.803 119.697 163.379 119.87C162.963 120.043 162.464 120.13 161.884 120.13Z" fill="#767E86"/>
<path d="M166.08 120.975C166.002 120.975 165.942 120.949 165.898 120.897C165.864 120.845 165.855 120.78 165.872 120.702L166.158 118.869C166.193 118.618 166.314 118.492 166.522 118.492H167.354C167.415 118.492 167.467 118.518 167.51 118.57C167.554 118.613 167.575 118.661 167.575 118.713C167.575 118.782 167.558 118.856 167.523 118.934L166.847 120.676C166.769 120.875 166.648 120.975 166.483 120.975H166.08Z" fill="#767E86"/>
<path d="M175.338 122.86C174.619 122.86 174.042 122.739 173.609 122.496C173.176 122.253 172.868 121.976 172.686 121.664C172.513 121.352 172.426 121.083 172.426 120.858C172.426 120.78 172.456 120.711 172.517 120.65C172.578 120.598 172.647 120.572 172.725 120.572H173.297C173.375 120.572 173.44 120.589 173.492 120.624C173.544 120.667 173.587 120.741 173.622 120.845C173.865 121.538 174.415 121.885 175.273 121.885C175.923 121.885 176.404 121.746 176.716 121.469C177.028 121.192 177.184 120.702 177.184 120V119.103C176.681 119.744 175.979 120.065 175.078 120.065C174.159 120.065 173.47 119.77 173.011 119.181C172.56 118.592 172.322 117.846 172.296 116.945L172.283 116.581L172.296 116.23C172.322 115.337 172.56 114.596 173.011 114.007C173.47 113.409 174.159 113.11 175.078 113.11C175.988 113.11 176.699 113.444 177.21 114.111V113.552C177.21 113.465 177.236 113.392 177.288 113.331C177.349 113.27 177.422 113.24 177.509 113.24H178.068C178.155 113.24 178.224 113.27 178.276 113.331C178.337 113.392 178.367 113.465 178.367 113.552V119.857C178.367 121.859 177.357 122.86 175.338 122.86ZM175.312 119.051C175.919 119.051 176.374 118.856 176.677 118.466C176.989 118.067 177.158 117.591 177.184 117.036C177.193 116.958 177.197 116.806 177.197 116.581C177.197 116.364 177.193 116.217 177.184 116.139C177.158 115.584 176.989 115.112 176.677 114.722C176.374 114.323 175.919 114.124 175.312 114.124C174.688 114.124 174.233 114.323 173.947 114.722C173.67 115.112 173.518 115.619 173.492 116.243L173.479 116.581L173.492 116.932C173.518 117.556 173.67 118.067 173.947 118.466C174.233 118.856 174.688 119.051 175.312 119.051Z" fill="#767E86"/>
<path d="M183.005 120.13C182.121 120.13 181.414 119.857 180.886 119.311C180.357 118.756 180.067 118.002 180.015 117.049L180.002 116.607L180.015 116.178C180.067 115.242 180.357 114.497 180.886 113.942C181.414 113.387 182.121 113.11 183.005 113.11C183.958 113.11 184.695 113.413 185.215 114.02C185.743 114.627 186.008 115.45 186.008 116.49V116.724C186.008 116.811 185.977 116.884 185.917 116.945C185.865 116.997 185.795 117.023 185.709 117.023H181.198V117.14C181.224 117.703 181.397 118.184 181.718 118.583C182.038 118.982 182.463 119.181 182.992 119.181C183.399 119.181 183.728 119.103 183.98 118.947C184.24 118.782 184.435 118.613 184.565 118.44C184.643 118.336 184.703 118.275 184.747 118.258C184.79 118.232 184.864 118.219 184.968 118.219H185.54C185.618 118.219 185.683 118.241 185.735 118.284C185.795 118.327 185.826 118.384 185.826 118.453C185.826 118.644 185.709 118.873 185.475 119.142C185.241 119.411 184.907 119.645 184.474 119.844C184.049 120.035 183.559 120.13 183.005 120.13ZM184.825 116.139V116.1C184.825 115.493 184.66 114.999 184.331 114.618C184.001 114.237 183.559 114.046 183.005 114.046C182.441 114.046 181.999 114.237 181.679 114.618C181.358 114.999 181.198 115.493 181.198 116.1V116.139H184.825Z" fill="#767E86"/>
<path d="M190.15 120C188.807 120 188.135 119.242 188.135 117.725V114.241H187.108C187.022 114.241 186.952 114.215 186.9 114.163C186.848 114.111 186.822 114.042 186.822 113.955V113.539C186.822 113.452 186.848 113.383 186.9 113.331C186.952 113.27 187.022 113.24 187.108 113.24H188.135V111.069C188.135 110.982 188.161 110.913 188.213 110.861C188.265 110.8 188.335 110.77 188.421 110.77H188.993C189.08 110.77 189.149 110.8 189.201 110.861C189.262 110.913 189.292 110.982 189.292 111.069V113.24H190.904C190.991 113.24 191.06 113.27 191.112 113.331C191.173 113.383 191.203 113.452 191.203 113.539V113.955C191.203 114.042 191.173 114.111 191.112 114.163C191.06 114.215 190.991 114.241 190.904 114.241H189.292V117.634C189.292 118.076 189.362 118.41 189.5 118.635C189.648 118.86 189.895 118.973 190.241 118.973H191.034C191.121 118.973 191.19 119.003 191.242 119.064C191.294 119.116 191.32 119.185 191.32 119.272V119.701C191.32 119.788 191.294 119.861 191.242 119.922C191.19 119.974 191.121 120 191.034 120H190.15Z" fill="#767E86"/>
<path d="M22.847 140.13C22.4223 140.13 22.028 140.043 21.664 139.87C21.3087 139.697 21.0227 139.463 20.806 139.168C20.598 138.865 20.494 138.531 20.494 138.167C20.494 137.595 20.728 137.127 21.196 136.763C21.664 136.399 22.301 136.156 23.107 136.035L25.057 135.762V135.385C25.057 134.492 24.5413 134.046 23.51 134.046C23.1113 134.046 22.7907 134.128 22.548 134.293C22.3053 134.449 22.1277 134.635 22.015 134.852C21.9803 134.939 21.9413 134.999 21.898 135.034C21.8633 135.06 21.8113 135.073 21.742 135.073H21.235C21.157 135.073 21.0877 135.047 21.027 134.995C20.975 134.934 20.949 134.865 20.949 134.787C20.949 134.588 21.04 134.358 21.222 134.098C21.4127 133.829 21.703 133.6 22.093 133.409C22.483 133.21 22.9597 133.11 23.523 133.11C24.4937 133.11 25.187 133.335 25.603 133.786C26.0277 134.237 26.24 134.8 26.24 135.476V139.701C26.24 139.788 26.2097 139.861 26.149 139.922C26.097 139.974 26.0277 140 25.941 140H25.369C25.2823 140 25.213 139.974 25.161 139.922C25.109 139.861 25.083 139.788 25.083 139.701V139.129C24.8923 139.415 24.615 139.653 24.251 139.844C23.887 140.035 23.419 140.13 22.847 140.13ZM23.107 139.181C23.679 139.181 24.147 138.995 24.511 138.622C24.875 138.249 25.057 137.708 25.057 136.997V136.633L23.536 136.854C22.912 136.941 22.4397 137.088 22.119 137.296C21.7983 137.504 21.638 137.764 21.638 138.076C21.638 138.431 21.781 138.704 22.067 138.895C22.3617 139.086 22.7083 139.181 23.107 139.181Z" fill="#767E86"/>
<path d="M31.6337 142.47C31.547 142.47 31.4733 142.444 31.4127 142.392C31.3607 142.34 31.3347 142.266 31.3347 142.171V133.539C31.3347 133.444 31.3607 133.37 31.4127 133.318C31.4733 133.266 31.547 133.24 31.6337 133.24H32.1797C32.275 133.24 32.3487 133.266 32.4007 133.318C32.4527 133.37 32.4787 133.444 32.4787 133.539V134.111C32.9813 133.444 33.6963 133.11 34.6237 133.11C35.5337 133.11 36.214 133.4 36.6647 133.981C37.124 134.553 37.3667 135.285 37.3927 136.178C37.4013 136.273 37.4057 136.421 37.4057 136.62C37.4057 136.819 37.4013 136.967 37.3927 137.062C37.3667 137.946 37.124 138.678 36.6647 139.259C36.214 139.84 35.5337 140.13 34.6237 140.13C33.6963 140.13 32.9943 139.801 32.5177 139.142V142.171C32.5177 142.258 32.4873 142.327 32.4267 142.379C32.3747 142.44 32.3053 142.47 32.2187 142.47H31.6337ZM34.3767 139.116C35.0007 139.116 35.4557 138.921 35.7417 138.531C36.0277 138.141 36.1837 137.63 36.2097 136.997C36.2183 136.91 36.2227 136.785 36.2227 136.62C36.2227 134.956 35.6073 134.124 34.3767 134.124C33.77 134.124 33.3107 134.328 32.9987 134.735C32.6953 135.134 32.535 135.606 32.5177 136.152C32.509 136.247 32.5047 136.416 32.5047 136.659C32.5047 136.902 32.509 137.071 32.5177 137.166C32.535 137.695 32.6997 138.154 33.0117 138.544C33.3323 138.925 33.7873 139.116 34.3767 139.116Z" fill="#767E86"/>
<path d="M41.7834 140.13C40.8301 140.13 40.0934 139.861 39.5734 139.324C39.0621 138.787 38.7891 138.072 38.7544 137.179L38.7414 136.62L38.7544 136.061C38.7891 135.168 39.0664 134.453 39.5864 133.916C40.1151 133.379 40.8474 133.11 41.7834 133.11C42.7194 133.11 43.4474 133.379 43.9674 133.916C44.4961 134.453 44.7778 135.168 44.8124 136.061C44.8298 136.252 44.8384 136.438 44.8384 136.62C44.8384 136.802 44.8298 136.988 44.8124 137.179C44.7778 138.072 44.5004 138.787 43.9804 139.324C43.4691 139.861 42.7368 140.13 41.7834 140.13ZM41.7834 139.155C42.3381 139.155 42.7758 138.982 43.0964 138.635C43.4258 138.28 43.6034 137.773 43.6294 137.114C43.6381 137.027 43.6424 136.863 43.6424 136.62C43.6424 136.377 43.6381 136.213 43.6294 136.126C43.6034 135.467 43.4258 134.965 43.0964 134.618C42.7758 134.263 42.3381 134.085 41.7834 134.085C41.2288 134.085 40.7868 134.263 40.4574 134.618C40.1368 134.965 39.9634 135.467 39.9374 136.126L39.9244 136.62L39.9374 137.114C39.9634 137.773 40.1368 138.28 40.4574 138.635C40.7868 138.982 41.2288 139.155 41.7834 139.155Z" fill="#767E86"/>
<path d="M46.7919 140C46.7052 140 46.6315 139.974 46.5709 139.922C46.5189 139.861 46.4929 139.788 46.4929 139.701V131.069C46.4929 130.974 46.5189 130.9 46.5709 130.848C46.6315 130.796 46.7052 130.77 46.7919 130.77H47.3639C47.4505 130.77 47.5199 130.8 47.5719 130.861C47.6325 130.913 47.6629 130.982 47.6629 131.069V139.701C47.6629 139.788 47.6325 139.861 47.5719 139.922C47.5199 139.974 47.4505 140 47.3639 140H46.7919Z" fill="#767E86"/>
<path d="M49.8106 131.966C49.724 131.966 49.6503 131.94 49.5896 131.888C49.5376 131.827 49.5116 131.754 49.5116 131.667V130.991C49.5116 130.904 49.5376 130.831 49.5896 130.77C49.6503 130.709 49.724 130.679 49.8106 130.679H50.5776C50.6643 130.679 50.738 130.709 50.7986 130.77C50.8593 130.831 50.8896 130.904 50.8896 130.991V131.667C50.8896 131.754 50.8593 131.827 50.7986 131.888C50.738 131.94 50.6643 131.966 50.5776 131.966H49.8106ZM49.9146 140C49.828 140 49.7543 139.974 49.6936 139.922C49.6416 139.861 49.6156 139.788 49.6156 139.701V133.539C49.6156 133.452 49.6416 133.383 49.6936 133.331C49.7543 133.27 49.828 133.24 49.9146 133.24H50.4866C50.5733 133.24 50.6426 133.27 50.6946 133.331C50.7553 133.383 50.7856 133.452 50.7856 133.539V139.701C50.7856 139.788 50.7553 139.861 50.6946 139.922C50.6426 139.974 50.5733 140 50.4866 140H49.9146Z" fill="#767E86"/>
<path d="M55.4427 140.13C54.5153 140.13 53.7917 139.87 53.2717 139.35C52.7517 138.821 52.4787 138.085 52.4527 137.14L52.4397 136.62L52.4527 136.1C52.4787 135.155 52.7517 134.423 53.2717 133.903C53.7917 133.374 54.5153 133.11 55.4427 133.11C56.0667 133.11 56.591 133.223 57.0157 133.448C57.449 133.665 57.7697 133.938 57.9777 134.267C58.1943 134.596 58.3113 134.926 58.3287 135.255C58.3373 135.333 58.307 135.402 58.2377 135.463C58.177 135.524 58.1077 135.554 58.0297 135.554H57.4577C57.371 135.554 57.306 135.537 57.2627 135.502C57.2193 135.459 57.176 135.385 57.1327 135.281C56.9767 134.856 56.76 134.557 56.4827 134.384C56.214 134.202 55.8717 134.111 55.4557 134.111C54.9097 134.111 54.4763 134.28 54.1557 134.618C53.835 134.956 53.6617 135.472 53.6357 136.165L53.6227 136.62L53.6357 137.075C53.6617 137.768 53.835 138.284 54.1557 138.622C54.4763 138.96 54.9097 139.129 55.4557 139.129C55.8803 139.129 56.227 139.042 56.4957 138.869C56.7643 138.687 56.9767 138.384 57.1327 137.959C57.176 137.855 57.2193 137.786 57.2627 137.751C57.306 137.708 57.371 137.686 57.4577 137.686H58.0297C58.1077 137.686 58.177 137.716 58.2377 137.777C58.307 137.838 58.3373 137.907 58.3287 137.985C58.3113 138.306 58.1943 138.631 57.9777 138.96C57.7697 139.289 57.449 139.567 57.0157 139.792C56.591 140.017 56.0667 140.13 55.4427 140.13Z" fill="#767E86"/>
<path d="M60.8787 142.47C60.8007 142.47 60.7357 142.444 60.6837 142.392C60.6317 142.34 60.6057 142.279 60.6057 142.21C60.6057 142.184 60.6274 142.106 60.6707 141.976L61.6847 139.597L59.2017 133.734C59.1497 133.63 59.1237 133.556 59.1237 133.513C59.1324 133.435 59.1627 133.37 59.2147 133.318C59.2667 133.266 59.3274 133.24 59.3967 133.24H59.9947C60.1334 133.24 60.2374 133.309 60.3067 133.448L62.3087 138.232L64.3627 133.448C64.432 133.309 64.536 133.24 64.6747 133.24H65.2597C65.329 133.24 65.3897 133.266 65.4417 133.318C65.4937 133.37 65.5197 133.431 65.5197 133.5C65.5197 133.561 65.498 133.639 65.4547 133.734L61.7757 142.262C61.7324 142.331 61.6847 142.383 61.6327 142.418C61.5894 142.453 61.5287 142.47 61.4507 142.47H60.8787Z" fill="#767E86"/>
<path d="M69.8692 131.966C69.7826 131.966 69.7089 131.94 69.6482 131.888C69.5962 131.827 69.5702 131.754 69.5702 131.667V130.991C69.5702 130.904 69.5962 130.831 69.6482 130.77C69.7089 130.709 69.7826 130.679 69.8692 130.679H70.6362C70.7229 130.679 70.7966 130.709 70.8572 130.77C70.9179 130.831 70.9482 130.904 70.9482 130.991V131.667C70.9482 131.754 70.9179 131.827 70.8572 131.888C70.7966 131.94 70.7229 131.966 70.6362 131.966H69.8692ZM69.9732 140C69.8866 140 69.8129 139.974 69.7522 139.922C69.7002 139.861 69.6742 139.788 69.6742 139.701V133.539C69.6742 133.452 69.7002 133.383 69.7522 133.331C69.8129 133.27 69.8866 133.24 69.9732 133.24H70.5452C70.6319 133.24 70.7012 133.27 70.7532 133.331C70.8139 133.383 70.8442 133.452 70.8442 133.539V139.701C70.8442 139.788 70.8139 139.861 70.7532 139.922C70.7012 139.974 70.6319 140 70.5452 140H69.9732Z" fill="#767E86"/>
<path d="M73.0963 140C73.0096 140 72.9359 139.974 72.8753 139.922C72.8233 139.861 72.7973 139.788 72.7973 139.701V133.539C72.7973 133.452 72.8233 133.383 72.8753 133.331C72.9359 133.27 73.0096 133.24 73.0963 133.24H73.6553C73.7506 133.24 73.8243 133.266 73.8763 133.318C73.9283 133.37 73.9543 133.444 73.9543 133.539V134.111C74.2143 133.79 74.5133 133.543 74.8513 133.37C75.1979 133.197 75.6269 133.11 76.1383 133.11C76.9703 133.11 77.6159 133.379 78.0753 133.916C78.5346 134.445 78.7643 135.147 78.7643 136.022V139.701C78.7643 139.788 78.7339 139.861 78.6733 139.922C78.6213 139.974 78.5519 140 78.4653 140H77.8673C77.7806 140 77.7069 139.974 77.6463 139.922C77.5943 139.861 77.5683 139.788 77.5683 139.701V136.1C77.5683 135.476 77.4166 134.991 77.1133 134.644C76.8099 134.297 76.3766 134.124 75.8133 134.124C75.2586 134.124 74.8166 134.302 74.4873 134.657C74.1579 135.004 73.9933 135.485 73.9933 136.1V139.701C73.9933 139.788 73.9629 139.861 73.9023 139.922C73.8503 139.974 73.7809 140 73.6943 140H73.0963Z" fill="#767E86"/>
<path d="M84.1412 140C84.0545 140 83.9809 139.974 83.9202 139.922C83.8682 139.861 83.8422 139.788 83.8422 139.701V133.539C83.8422 133.452 83.8682 133.383 83.9202 133.331C83.9809 133.27 84.0545 133.24 84.1412 133.24H84.6872C84.7739 133.24 84.8432 133.27 84.8952 133.331C84.9472 133.383 84.9732 133.452 84.9732 133.539V133.981C85.4412 133.4 86.0738 133.11 86.8712 133.11C87.8245 133.11 88.5005 133.509 88.8992 134.306C89.1072 133.942 89.4019 133.652 89.7832 133.435C90.1732 133.218 90.6065 133.11 91.0832 133.11C91.7939 133.11 92.3745 133.353 92.8252 133.838C93.2759 134.323 93.5012 135.025 93.5012 135.944V139.701C93.5012 139.788 93.4709 139.861 93.4102 139.922C93.3582 139.974 93.2889 140 93.2022 140H92.6432C92.5565 140 92.4829 139.974 92.4222 139.922C92.3702 139.861 92.3442 139.788 92.3442 139.701V136.061C92.3442 135.368 92.2012 134.874 91.9152 134.579C91.6292 134.276 91.2522 134.124 90.7842 134.124C90.3682 134.124 90.0085 134.28 89.7052 134.592C89.4105 134.895 89.2632 135.385 89.2632 136.061V139.701C89.2632 139.788 89.2329 139.861 89.1722 139.922C89.1202 139.974 89.0509 140 88.9642 140H88.3922C88.3055 140 88.2319 139.974 88.1712 139.922C88.1192 139.861 88.0932 139.788 88.0932 139.701V136.061C88.0932 135.376 87.9415 134.882 87.6382 134.579C87.3435 134.276 86.9752 134.124 86.5332 134.124C86.1172 134.124 85.7575 134.276 85.4542 134.579C85.1595 134.882 85.0122 135.372 85.0122 136.048V139.701C85.0122 139.788 84.9819 139.861 84.9212 139.922C84.8692 139.974 84.7999 140 84.7132 140H84.1412Z" fill="#767E86"/>
<path d="M95.5772 131.966C95.4906 131.966 95.4169 131.94 95.3562 131.888C95.3042 131.827 95.2782 131.754 95.2782 131.667V130.991C95.2782 130.904 95.3042 130.831 95.3562 130.77C95.4169 130.709 95.4906 130.679 95.5772 130.679H96.3442C96.4309 130.679 96.5046 130.709 96.5652 130.77C96.6259 130.831 96.6562 130.904 96.6562 130.991V131.667C96.6562 131.754 96.6259 131.827 96.5652 131.888C96.5046 131.94 96.4309 131.966 96.3442 131.966H95.5772ZM95.6812 140C95.5946 140 95.5209 139.974 95.4602 139.922C95.4082 139.861 95.3822 139.788 95.3822 139.701V133.539C95.3822 133.452 95.4082 133.383 95.4602 133.331C95.5209 133.27 95.5946 133.24 95.6812 133.24H96.2532C96.3399 133.24 96.4092 133.27 96.4612 133.331C96.5219 133.383 96.5522 133.452 96.5522 133.539V139.701C96.5522 139.788 96.5219 139.861 96.4612 139.922C96.4092 139.974 96.3399 140 96.2532 140H95.6812Z" fill="#767E86"/>
<path d="M98.8043 140C98.7176 140 98.6439 139.974 98.5833 139.922C98.5313 139.861 98.5053 139.788 98.5053 139.701V133.539C98.5053 133.452 98.5313 133.383 98.5833 133.331C98.6439 133.27 98.7176 133.24 98.8043 133.24H99.3633C99.4586 133.24 99.5323 133.266 99.5843 133.318C99.6363 133.37 99.6623 133.444 99.6623 133.539V134.111C99.9223 133.79 100.221 133.543 100.559 133.37C100.906 133.197 101.335 133.11 101.846 133.11C102.678 133.11 103.324 133.379 103.783 133.916C104.243 134.445 104.472 135.147 104.472 136.022V139.701C104.472 139.788 104.442 139.861 104.381 139.922C104.329 139.974 104.26 140 104.173 140H103.575C103.489 140 103.415 139.974 103.354 139.922C103.302 139.861 103.276 139.788 103.276 139.701V136.1C103.276 135.476 103.125 134.991 102.821 134.644C102.518 134.297 102.085 134.124 101.521 134.124C100.967 134.124 100.525 134.302 100.195 134.657C99.8659 135.004 99.7013 135.485 99.7013 136.1V139.701C99.7013 139.788 99.6709 139.861 99.6103 139.922C99.5583 139.974 99.4889 140 99.4023 140H98.8043Z" fill="#767E86"/>
<path d="M108.873 140.13C108.05 140.13 107.413 139.866 106.962 139.337C106.511 138.8 106.286 138.089 106.286 137.205V133.539C106.286 133.452 106.312 133.383 106.364 133.331C106.425 133.27 106.498 133.24 106.585 133.24H107.183C107.27 133.24 107.339 133.27 107.391 133.331C107.452 133.383 107.482 133.452 107.482 133.539V137.14C107.482 138.457 108.054 139.116 109.198 139.116C109.753 139.116 110.19 138.943 110.511 138.596C110.84 138.241 111.005 137.755 111.005 137.14V133.539C111.005 133.452 111.031 133.383 111.083 133.331C111.144 133.27 111.217 133.24 111.304 133.24H111.902C111.989 133.24 112.058 133.27 112.11 133.331C112.171 133.383 112.201 133.452 112.201 133.539V139.701C112.201 139.788 112.171 139.861 112.11 139.922C112.058 139.974 111.989 140 111.902 140H111.343C111.256 140 111.183 139.974 111.122 139.922C111.07 139.861 111.044 139.788 111.044 139.701V139.116C110.793 139.454 110.498 139.71 110.16 139.883C109.822 140.048 109.393 140.13 108.873 140.13Z" fill="#767E86"/>
<path d="M116.746 140C115.403 140 114.731 139.242 114.731 137.725V134.241H113.704C113.617 134.241 113.548 134.215 113.496 134.163C113.444 134.111 113.418 134.042 113.418 133.955V133.539C113.418 133.452 113.444 133.383 113.496 133.331C113.548 133.27 113.617 133.24 113.704 133.24H114.731V131.069C114.731 130.982 114.757 130.913 114.809 130.861C114.861 130.8 114.93 130.77 115.017 130.77H115.589C115.676 130.77 115.745 130.8 115.797 130.861C115.858 130.913 115.888 130.982 115.888 131.069V133.24H117.5C117.587 133.24 117.656 133.27 117.708 133.331C117.769 133.383 117.799 133.452 117.799 133.539V133.955C117.799 134.042 117.769 134.111 117.708 134.163C117.656 134.215 117.587 134.241 117.5 134.241H115.888V137.634C115.888 138.076 115.957 138.41 116.096 138.635C116.243 138.86 116.49 138.973 116.837 138.973H117.63C117.717 138.973 117.786 139.003 117.838 139.064C117.89 139.116 117.916 139.185 117.916 139.272V139.701C117.916 139.788 117.89 139.861 117.838 139.922C117.786 139.974 117.717 140 117.63 140H116.746Z" fill="#767E86"/>
<path d="M121.864 140.13C120.98 140.13 120.274 139.857 119.745 139.311C119.216 138.756 118.926 138.002 118.874 137.049L118.861 136.607L118.874 136.178C118.926 135.242 119.216 134.497 119.745 133.942C120.274 133.387 120.98 133.11 121.864 133.11C122.817 133.11 123.554 133.413 124.074 134.02C124.603 134.627 124.867 135.45 124.867 136.49V136.724C124.867 136.811 124.837 136.884 124.776 136.945C124.724 136.997 124.655 137.023 124.568 137.023H120.057V137.14C120.083 137.703 120.256 138.184 120.577 138.583C120.898 138.982 121.322 139.181 121.851 139.181C122.258 139.181 122.588 139.103 122.839 138.947C123.099 138.782 123.294 138.613 123.424 138.44C123.502 138.336 123.563 138.275 123.606 138.258C123.649 138.232 123.723 138.219 123.827 138.219H124.399C124.477 138.219 124.542 138.241 124.594 138.284C124.655 138.327 124.685 138.384 124.685 138.453C124.685 138.644 124.568 138.873 124.334 139.142C124.1 139.411 123.766 139.645 123.333 139.844C122.908 140.035 122.419 140.13 121.864 140.13ZM123.684 136.139V136.1C123.684 135.493 123.519 134.999 123.19 134.618C122.861 134.237 122.419 134.046 121.864 134.046C121.301 134.046 120.859 134.237 120.538 134.618C120.217 134.999 120.057 135.493 120.057 136.1V136.139H123.684Z" fill="#767E86"/>
<path d="M128.762 140.13C128.164 140.13 127.657 140.035 127.241 139.844C126.833 139.645 126.53 139.419 126.331 139.168C126.131 138.917 126.032 138.709 126.032 138.544C126.032 138.457 126.062 138.392 126.123 138.349C126.183 138.297 126.248 138.271 126.318 138.271H126.864C126.916 138.271 126.955 138.28 126.981 138.297C127.015 138.314 127.059 138.353 127.111 138.414C127.31 138.657 127.531 138.847 127.774 138.986C128.025 139.125 128.359 139.194 128.775 139.194C129.243 139.194 129.615 139.107 129.893 138.934C130.179 138.761 130.322 138.509 130.322 138.18C130.322 137.963 130.261 137.79 130.14 137.66C130.018 137.53 129.815 137.413 129.529 137.309C129.251 137.205 128.835 137.092 128.281 136.971C127.527 136.806 126.994 136.568 126.682 136.256C126.37 135.944 126.214 135.541 126.214 135.047C126.214 134.726 126.309 134.419 126.5 134.124C126.69 133.821 126.972 133.578 127.345 133.396C127.726 133.205 128.177 133.11 128.697 133.11C129.243 133.11 129.706 133.201 130.088 133.383C130.478 133.565 130.768 133.777 130.959 134.02C131.158 134.263 131.258 134.466 131.258 134.631C131.258 134.709 131.227 134.774 131.167 134.826C131.115 134.878 131.05 134.904 130.972 134.904H130.478C130.356 134.904 130.27 134.856 130.218 134.761C130.07 134.596 129.945 134.471 129.841 134.384C129.745 134.289 129.602 134.211 129.412 134.15C129.221 134.081 128.983 134.046 128.697 134.046C128.272 134.046 127.947 134.137 127.722 134.319C127.496 134.492 127.384 134.726 127.384 135.021C127.384 135.203 127.431 135.359 127.527 135.489C127.622 135.61 127.804 135.727 128.073 135.84C128.341 135.944 128.74 136.052 129.269 136.165C130.092 136.338 130.673 136.585 131.011 136.906C131.357 137.227 131.531 137.638 131.531 138.141C131.531 138.514 131.422 138.852 131.206 139.155C130.998 139.458 130.681 139.697 130.257 139.87C129.841 140.043 129.342 140.13 128.762 140.13Z" fill="#767E86"/>
<rect x="120" width="98" height="62.3636" fill="#D8D8D8" fill-opacity="0.01"/>
<mask id="mask0" mask-type="alpha" maskUnits="userSpaceOnUse" x="120" y="0" width="98" height="63">
<rect x="120" width="98" height="62.3636" fill="white"/>
</mask>
<g mask="url(#mask0)">
<path opacity="0.1" d="M182.302 0.890892C175.228 0.890892 163.01 0.89089 160.438 7.96438C157.866 15.0379 179.252 14.623 184.231 19.6014C189.209 24.5798 197.236 24.0405 204.808 24.0405C212.38 24.0405 210.945 32.386 217.026 31.114C223.107 29.842 217.669 23.4678 219.598 19.6014C219.598 15.9971 219.598 0.890892 219.598 0.890892C219.598 0.890892 194.198 0.890892 182.302 0.890892Z" fill="#4F2DA7"/>
<path opacity="0.2" d="M171.701 58.0158C139.647 46.6276 125.402 72.251 125.402 58.0158C125.402 43.7805 142.497 36.6629 151.044 28.1218C159.592 19.5807 155.851 5.34546 168.852 5.34546C181.852 5.34546 175.302 13.3252 189.508 19.5807C203.714 25.8362 218 9.61602 218 28.1218C218 46.6276 203.754 69.4039 171.701 58.0158Z" fill="#4F2DA7"/>
<path opacity="0.05" d="M128.202 28.6891C129.11 28.2552 130.04 27.7546 130.859 27.1672C131.159 26.9513 130.863 26.5308 130.547 26.6977C129.673 27.1561 128.818 27.7479 128.039 28.3509C127.879 28.4711 127.995 28.787 128.202 28.6891Z" fill="#3792FC"/>
<path opacity="0.05" d="M187.821 37.519C187.632 36.5311 187.385 35.5031 187.024 34.5619C186.893 34.217 186.41 34.395 186.49 34.7444C186.711 35.7078 187.067 36.6824 187.452 37.5902C187.529 37.7749 187.865 37.7438 187.821 37.519Z" fill="#3792FC"/>
<path opacity="0.05" d="M131.563 10.7925C131.545 10.777 131.529 10.7614 131.511 10.748C131.287 10.5478 130.917 10.5099 130.699 10.748C130.479 10.9883 130.486 11.3199 130.699 11.5602C130.715 11.578 130.73 11.5936 130.744 11.6114C130.944 11.8383 131.36 11.8316 131.563 11.6114C131.763 11.3911 131.803 11.0061 131.563 10.7925Z" fill="#3792FC"/>
<path opacity="0.05" d="M183.272 14.2885C183.328 13.9204 183.317 13.5711 183.522 13.2459C183.933 12.6011 184.516 12.7623 185.08 13.0471C185.655 13.3373 186.198 13.5093 186.821 13.2406C187.797 12.8187 188.256 11.3462 187.324 10.653C187.023 10.4273 186.725 10.7981 186.765 11.0829C186.821 11.4779 187.017 11.9159 186.679 12.2544C186.225 12.7085 185.693 12.327 185.239 12.1228C184.75 11.9024 184.228 11.8541 183.726 12.0583C182.858 12.4103 182.226 13.5872 182.917 14.3825C183.014 14.4927 183.248 14.4417 183.272 14.2885Z" fill="#3792FC"/>
<path opacity="0.05" d="M173.205 51.5177C172.313 52.3742 171.975 53.707 172.824 54.7377C173.624 55.7079 175.177 55.9105 176.176 55.1393C178.593 53.2734 176.073 49.8366 173.468 50.5474C172.984 50.6789 173.105 51.3684 173.581 51.3933C174.342 51.4359 175.16 51.4644 175.767 52.001C176.421 52.5732 176.435 53.5435 175.899 54.2046C174.477 55.9496 172.011 53.38 173.503 51.8162C173.695 51.6207 173.404 51.3293 173.205 51.5177Z" fill="#3792FC"/>
<path opacity="0.05" d="M120.897 45.8343C121.176 46.8692 121.481 47.8919 121.802 48.9147C121.878 49.1598 122.111 49.2385 122.322 49.0933C123.154 48.5274 123.984 47.9736 124.773 47.3473C124.925 47.2262 124.891 46.9841 124.743 46.8813C123.82 46.2488 122.577 45.3138 121.405 45.3078C121.109 45.3047 120.9 45.7253 121.203 45.8978C121.675 46.1702 122.241 46.267 122.746 46.4758C123.327 46.7179 123.905 47.0023 124.419 47.3684C124.431 47.199 124.444 47.0295 124.453 46.8601C123.572 47.4017 122.743 48.01 121.908 48.6151C122.071 48.6484 122.238 48.6817 122.401 48.715C122.044 47.7043 121.678 46.7027 121.281 45.7072C121.197 45.4984 120.84 45.6134 120.897 45.8343Z" fill="#3792FC"/>
</g>
<path fill-rule="evenodd" clip-rule="evenodd" d="M188.285 22.4731C187.732 23.2972 186.985 24.7086 186.151 26.4964C183.652 31.859 180.387 40.5972 179.428 46.8735L179.583 46.8969C180.219 42.7317 181.881 37.4595 183.657 32.8231C184.546 30.5048 185.463 28.3451 186.294 26.5616C187.125 24.7782 187.872 23.3698 188.416 22.5592L188.285 22.4731Z" fill="#7C57C0"/>
<path fill-rule="evenodd" clip-rule="evenodd" d="M189.176 20.1742C189.376 19.6962 189.58 19.2102 189.915 18.8129C190.117 18.573 190.583 18.2026 190.929 18.3909C191.954 18.9499 189.773 21.1913 189.403 21.5273C188.959 21.9311 188.142 22.8099 188.142 22.8099C188.142 22.8099 188.82 21.0255 189.176 20.1742Z" fill="#7C57C0"/>
<path fill-rule="evenodd" clip-rule="evenodd" d="M189.078 23.3518C189.429 23.1498 189.787 22.945 190.183 22.8558C190.422 22.802 190.886 22.7906 191.01 23.0682C191.377 23.8922 188.962 24.2586 188.574 24.2936C188.107 24.3359 187.183 24.4973 187.183 24.4973C187.183 24.4973 188.453 23.7116 189.078 23.3518Z" fill="#7C57C0"/>
<path fill-rule="evenodd" clip-rule="evenodd" d="M186.374 22.4512C186.234 22.0738 186.093 21.6893 186.073 21.2878C186.061 21.0453 186.131 20.5908 186.428 20.5185C187.312 20.3039 187.256 22.7223 187.223 23.1067C187.184 23.569 187.183 24.4973 187.183 24.4973C187.183 24.4973 186.623 23.1235 186.374 22.4512Z" fill="#7C57C0"/>
<path fill-rule="evenodd" clip-rule="evenodd" d="M187.844 25.7201C188.184 25.4993 188.53 25.2755 188.921 25.1651C189.156 25.0985 189.619 25.0619 189.758 25.3322C190.17 26.1352 187.779 26.6318 187.393 26.6878C186.929 26.7552 186.016 26.9663 186.016 26.9663C186.016 26.9663 187.24 26.1132 187.844 25.7201Z" fill="#7C57C0"/>
<path fill-rule="evenodd" clip-rule="evenodd" d="M185.095 24.9673C184.934 24.598 184.772 24.2217 184.73 23.8217C184.705 23.5804 184.749 23.1227 185.042 23.0345C185.913 22.7724 185.99 25.1901 185.979 25.5757C185.965 26.0395 186.016 26.9663 186.016 26.9663C186.016 26.9663 185.38 25.6249 185.095 24.9673Z" fill="#7C57C0"/>
<path fill-rule="evenodd" clip-rule="evenodd" d="M186.787 28.5462C187.174 28.2865 187.568 28.023 188.015 27.8895C188.286 27.8087 188.818 27.7588 188.982 28.0677C189.47 28.9847 186.727 29.5963 186.284 29.6674C185.752 29.7529 184.704 30.0112 184.704 30.0112C184.704 30.0112 186.098 29.0087 186.787 28.5462Z" fill="#7C57C0"/>
<path fill-rule="evenodd" clip-rule="evenodd" d="M183.61 27.7264C183.419 27.304 183.225 26.8737 183.17 26.4144C183.137 26.1369 183.18 25.6095 183.516 25.5031C184.513 25.1868 184.644 27.9676 184.637 28.4117C184.63 28.9455 184.704 30.0112 184.704 30.0112C184.704 30.0112 183.95 28.4783 183.61 27.7264Z" fill="#7C57C0"/>
<path fill-rule="evenodd" clip-rule="evenodd" d="M185.478 31.5868C185.854 31.3112 186.237 31.0316 186.678 30.8794C186.945 30.7874 187.474 30.7155 187.652 31.0173C188.178 31.913 185.463 32.6385 185.024 32.728C184.495 32.8355 183.46 33.1373 183.46 33.1373C183.46 33.1373 184.81 32.0777 185.478 31.5868Z" fill="#7C57C0"/>
<path fill-rule="evenodd" clip-rule="evenodd" d="M182.269 30.8999C182.06 30.4861 181.849 30.0641 181.774 29.6073C181.729 29.3316 181.75 28.803 182.081 28.6825C183.064 28.325 183.313 31.098 183.325 31.5419C183.34 32.0756 183.46 33.1373 183.46 33.1373C183.46 33.1373 182.641 31.6371 182.269 30.8999Z" fill="#7C57C0"/>
<path fill-rule="evenodd" clip-rule="evenodd" d="M184.325 35.0153C184.739 34.6765 185.162 34.3327 185.66 34.1317C185.961 34.0105 186.565 33.8964 186.787 34.2325C187.446 35.2302 184.371 36.2241 183.871 36.3528C183.271 36.5077 182.1 36.9156 182.1 36.9156C182.1 36.9156 183.586 35.6186 184.325 35.0153Z" fill="#7C57C0"/>
<path fill-rule="evenodd" clip-rule="evenodd" d="M180.597 34.4163C180.333 33.9532 180.064 33.481 179.951 32.9608C179.883 32.6468 179.874 32.0383 180.247 31.8805C181.355 31.4118 181.808 34.5819 181.849 35.0911C181.898 35.7033 182.1 36.9156 182.1 36.9156C182.1 36.9156 181.069 35.241 180.597 34.4163Z" fill="#9FC6BD"/>
<path fill-rule="evenodd" clip-rule="evenodd" d="M183.002 38.5644C183.389 38.1949 183.784 37.8199 184.265 37.5815C184.555 37.4375 185.148 37.2777 185.395 37.5958C186.131 38.5402 183.142 39.7661 182.655 39.9326C182.068 40.1327 180.932 40.629 180.932 40.629C180.932 40.629 182.313 39.2223 183.002 38.5644Z" fill="#7C57C0"/>
<path fill-rule="evenodd" clip-rule="evenodd" d="M179.239 38.2519C178.939 37.8104 178.634 37.3602 178.481 36.8502C178.389 36.5422 178.333 35.9363 178.692 35.7503C179.76 35.1985 180.459 38.3246 180.54 38.8289C180.637 39.4355 180.932 40.629 180.932 40.629C180.932 40.629 179.773 39.0381 179.239 38.2519Z" fill="#9FC6BD"/>
<path fill-rule="evenodd" clip-rule="evenodd" d="M143.134 29.706C144.769 30.7902 148.072 33.7675 151.511 37.3717C154.952 40.9761 158.533 45.2113 160.737 48.8147L160.872 48.7341C158.657 45.1139 155.071 40.8748 151.626 37.2648C149.903 35.4599 148.216 33.8127 146.753 32.4795C145.289 31.1461 144.051 30.1274 143.221 29.5767L143.134 29.706Z" fill="#7C57C0"/>
<path fill-rule="evenodd" clip-rule="evenodd" d="M141.506 27.7934C141.136 27.4282 140.758 27.0572 140.295 26.8179C140.015 26.6733 139.441 26.5086 139.195 26.8138C138.465 27.72 141.35 28.9593 141.821 29.129C142.388 29.3328 143.484 29.8333 143.484 29.8333C143.484 29.8333 142.165 28.4441 141.506 27.7934Z" fill="#7C57C0"/>
<path fill-rule="evenodd" clip-rule="evenodd" d="M142.83 30.6897C142.427 30.6366 142.017 30.5839 141.617 30.6522C141.376 30.6934 140.943 30.8596 140.936 31.1628C140.917 32.0632 143.289 31.4826 143.661 31.3674C144.108 31.2288 145.024 31.0266 145.024 31.0266C145.024 31.0266 143.547 30.784 142.83 30.6897Z" fill="#7C57C0"/>
<path fill-rule="evenodd" clip-rule="evenodd" d="M144.977 28.8297C144.959 28.4281 144.94 28.0193 144.803 27.6411C144.72 27.4127 144.479 27.0196 144.176 27.0661C143.277 27.2043 144.268 29.4153 144.447 29.7579C144.663 30.1696 145.024 31.0266 145.024 31.0266C145.024 31.0266 145.008 29.545 144.977 28.8297Z" fill="#7C57C0"/>
<path fill-rule="evenodd" clip-rule="evenodd" d="M144.888 32.4068C144.489 32.3321 144.083 32.2573 143.679 32.3038C143.436 32.3318 142.994 32.4743 142.971 32.7767C142.902 33.6748 145.303 33.2235 145.681 33.1286C146.135 33.0143 147.06 32.862 147.06 32.862C147.06 32.862 145.599 32.5399 144.888 32.4068Z" fill="#7C57C0"/>
<path fill-rule="evenodd" clip-rule="evenodd" d="M147.134 30.6659C147.139 30.2639 147.143 29.8548 147.026 29.4696C146.956 29.2371 146.737 28.8314 146.432 28.8615C145.527 28.9508 146.394 31.2123 146.554 31.564C146.747 31.9869 147.06 32.862 147.06 32.862C147.06 32.862 147.126 31.3817 147.134 30.6659Z" fill="#7C57C0"/>
<path fill-rule="evenodd" clip-rule="evenodd" d="M146.962 34.6136C146.504 34.521 146.037 34.4278 145.572 34.4747C145.292 34.503 144.781 34.6594 144.749 35.007C144.654 36.0393 147.425 35.5604 147.861 35.4574C148.386 35.3338 149.453 35.174 149.453 35.174C149.453 35.174 147.777 34.7787 146.962 34.6136Z" fill="#7C57C0"/>
<path fill-rule="evenodd" clip-rule="evenodd" d="M149.577 32.6482C149.589 32.1857 149.6 31.7148 149.473 31.2697C149.396 31.0009 149.151 30.5305 148.8 30.5599C147.757 30.6474 148.716 33.2644 148.894 33.6718C149.108 34.1617 149.453 35.174 149.453 35.174C149.453 35.174 149.555 33.4717 149.577 32.6482Z" fill="#7C57C0"/>
<path fill-rule="evenodd" clip-rule="evenodd" d="M149.35 36.923C148.897 36.8115 148.435 36.6988 147.968 36.7262C147.686 36.7428 147.17 36.8777 147.123 37.2238C146.984 38.2513 149.773 37.8882 150.213 37.8035C150.743 37.7018 151.816 37.5868 151.816 37.5868C151.816 37.5868 150.158 37.1218 149.35 36.923Z" fill="#7C57C0"/>
<path fill-rule="evenodd" clip-rule="evenodd" d="M152.046 35.068C152.079 34.6066 152.11 34.1367 152.001 33.6866C151.936 33.4147 151.712 32.9346 151.359 32.9494C150.313 32.9933 151.16 35.6479 151.321 36.0624C151.514 36.5609 151.816 37.5867 151.816 37.5867C151.816 37.5867 151.989 35.89 152.046 35.068Z" fill="#7C57C0"/>
<path fill-rule="evenodd" clip-rule="evenodd" d="M151.747 39.6493C151.232 39.4943 150.708 39.3378 150.171 39.3417C149.846 39.344 149.244 39.4685 149.17 39.8632C148.949 41.0351 152.173 40.783 152.684 40.7119C153.299 40.6263 154.538 40.5575 154.538 40.5575C154.538 40.5575 152.662 39.9256 151.747 39.6493Z" fill="#7C57C0"/>
<path fill-rule="evenodd" clip-rule="evenodd" d="M154.955 37.6784C155.02 37.1501 155.084 36.6121 154.987 36.0889C154.928 35.7729 154.699 35.208 154.294 35.2042C153.089 35.1927 153.902 38.2919 154.061 38.7776C154.254 39.3615 154.538 40.5575 154.538 40.5575C154.538 40.5575 154.84 38.6191 154.955 37.6784Z" fill="#7C57C0"/>
<path fill-rule="evenodd" clip-rule="evenodd" d="M154.345 42.4228C153.845 42.2289 153.335 42.0328 152.798 41.9956C152.475 41.973 151.865 42.0512 151.76 42.439C151.448 43.5906 154.683 43.5856 155.198 43.5537C155.817 43.5154 157.058 43.5414 157.058 43.5414C157.058 43.5414 155.237 42.7679 154.345 42.4228Z" fill="#7C57C0"/>
<path fill-rule="evenodd" clip-rule="evenodd" d="M170.64 58.9197C154.496 58.9197 141.41 57.9583 141.41 56.7726C141.41 55.5869 154.496 54.6257 170.64 54.6257C186.783 54.6257 199.87 55.5869 199.87 56.7726C199.87 57.9583 186.783 58.9197 170.64 58.9197Z" fill="#AD95D6" fill-opacity="0.63"/>
<path fill-rule="evenodd" clip-rule="evenodd" d="M180.981 30.1041C179.35 30.7631 177.293 30.5638 175.852 29.5495C174.404 28.53 173.077 27.7804 171.237 27.7264C170.094 27.6928 169.023 28.1658 167.934 28.436C166.977 28.6735 166.246 29.4343 165.214 29.5744C163.858 29.7583 162.465 28.9329 161.856 27.72C161.246 26.5071 161.379 24.9974 162.061 23.8228C162.559 22.9655 163.017 22.3256 162.458 21.3698C162.336 21.1616 162.182 20.9686 162.099 20.7426C162.02 20.5293 162.008 20.2974 162.017 20.0704C162.068 18.8319 163.015 17.9033 163.647 16.8805C163.795 16.6414 163.943 16.3934 163.988 16.1167C164.101 15.4127 163.536 14.8039 163.234 14.1562C162.258 12.0577 163.924 9.67076 165.546 8.41164C166.502 7.66871 167.649 7.36883 168.681 6.76347C169.151 6.48772 169.579 6.14613 170.054 5.88018C170.883 5.41628 171.787 5.39651 172.708 5.52428C175.33 5.88827 178.312 7.77516 178.919 10.4907C179.331 12.3315 178.657 14.4715 180.499 15.7602C181.054 16.1483 181.755 16.3792 182.133 16.9377C182.937 18.125 181.756 19.8835 182.491 21.1135C182.655 21.3878 182.9 21.6034 183.123 21.8332C184.301 23.0464 184.908 24.7806 184.743 26.4548C184.702 26.8635 184.616 27.2752 184.412 27.6327C184.132 28.1237 183.657 28.471 183.194 28.7984C182.5 29.2885 181.792 29.772 181.004 30.0947L180.981 30.1041Z" fill="#4F2DA7"/>
<path fill-rule="evenodd" clip-rule="evenodd" d="M166.018 27.3548C166.217 26.2812 166.462 24.7466 165.504 23.9315C165.114 23.5997 164.57 23.454 164.064 23.5461C163.76 23.6017 163.476 23.7371 163.208 23.8902C162.978 24.0214 162.756 24.168 162.566 24.3512C162.015 24.8832 161.843 25.6154 161.514 26.2709C161.142 27.0104 160.895 27.7902 160.672 28.5843C160.292 29.9416 159.951 31.3094 159.61 32.677C159.434 33.383 159.258 34.089 159.082 34.7953C158.786 35.9822 158.434 37.0646 158.429 38.3135C158.424 39.3418 158.944 40.5309 160.221 40.1924C161.013 39.982 161.461 39.1741 161.819 38.4428C162.807 36.4226 163.619 34.23 164.647 32.2012C165.401 30.7135 165.717 28.9771 166.018 27.3548Z" fill="#ED9B76"/>
<path fill-rule="evenodd" clip-rule="evenodd" d="M153.854 39.8222C154.968 39.1462 156.024 38.3801 157.136 37.6991C157.759 37.3173 158.407 36.885 159.1 36.6362C159.95 36.3309 161.187 36.3421 161.458 37.3977C161.561 37.796 161.529 38.2192 161.427 38.6179C161.17 39.6299 160.486 40.419 159.595 40.9461C158.582 41.5457 157.649 42.091 156.5 42.4428C154.642 43.0121 152.701 43.3131 150.756 43.3336C150.346 43.338 149.911 43.323 149.566 43.1042C148.246 42.2685 149.992 41.6573 150.604 41.412C151.724 40.9626 152.822 40.448 153.854 39.8222Z" fill="white"/>
<path fill-rule="evenodd" clip-rule="evenodd" d="M183.41 23.1702C182.836 22.6826 182.587 21.9204 182.587 21.144C182.587 20.8614 182.62 20.5775 182.682 20.306C182.826 19.6662 183.116 19.0286 183.117 18.3436C183.117 18.3133 183.116 18.2831 183.115 18.2526C183.078 17.3486 182.45 16.504 181.588 16.202C181.149 16.0504 180.687 16.03 180.302 15.8468C180.01 15.7091 179.783 15.4948 179.6 15.2384C179.417 14.9822 179.279 14.6845 179.169 14.3857C179.038 14.0339 179.009 13.7116 179.009 13.3739C179.009 13.1079 179.028 12.8331 179.028 12.532V12.5002C179.024 11.6168 179.001 10.731 178.91 9.84865C178.803 8.81066 178.181 7.79634 177.47 7.05917C177.368 6.95319 177.262 6.85141 177.151 6.75384L177.149 6.75166L177.151 6.75384C175.968 5.70916 174.11 5.04607 172.348 5.04514C171.353 5.04514 170.387 5.25756 169.592 5.73967C169.146 6.01076 168.874 6.37895 168.537 6.71867C168.199 7.06103 167.754 7.34317 167.336 7.60259C166.494 8.12578 165.585 8.53973 164.689 8.97951C164.116 9.26087 163.525 9.56651 163.091 10.0567C162.592 10.6215 162.362 11.379 162.362 12.1227C162.362 12.1584 162.362 12.194 162.363 12.2295C162.386 13.0065 162.644 13.758 163 14.4421C163.252 14.925 163.55 15.3789 163.704 15.8795C163.749 16.0283 163.77 16.1746 163.77 16.3184C163.772 16.9461 163.366 17.5345 162.866 17.9639C162.398 18.3685 161.841 18.7456 161.568 19.3376C161.463 19.5655 161.412 19.8148 161.412 20.064C161.412 20.3542 161.482 20.6448 161.621 20.9015C161.742 21.1234 161.905 21.3114 162.063 21.4965C162.22 21.6815 162.371 21.8633 162.473 22.0685C162.574 22.2705 162.624 22.4968 162.624 22.7232C162.624 22.937 162.579 23.1505 162.489 23.3437C162.386 23.5642 162.22 23.7861 162.077 24.0141C161.935 24.2422 161.812 24.4794 161.811 24.7399C161.811 24.8222 161.824 24.9064 161.853 24.9909L162.002 24.942C161.979 24.8733 161.969 24.8065 161.969 24.7399C161.968 24.5309 162.072 24.3171 162.211 24.0961C162.349 23.8751 162.518 23.6499 162.631 23.409C162.732 23.1943 162.782 22.9587 162.782 22.7232C162.782 22.4738 162.726 22.2243 162.614 21.9996C162.501 21.7728 162.34 21.5821 162.183 21.3964C162.025 21.2107 161.87 21.0301 161.76 20.8278C161.633 20.5951 161.569 20.3295 161.569 20.064C161.569 19.8362 161.616 19.6085 161.711 19.4018C161.957 18.8618 162.49 18.4924 162.969 18.0814C163.488 17.6345 163.926 17.0148 163.927 16.3184C163.927 16.1596 163.904 15.9975 163.854 15.8342C163.691 15.3054 163.386 14.8443 163.14 14.3706C162.791 13.7005 162.542 12.9705 162.521 12.225C162.519 12.1909 162.519 12.1568 162.519 12.1227C162.519 11.4101 162.741 10.6887 163.209 10.1591C163.616 9.69785 164.187 9.39875 164.759 9.11895C165.652 8.68041 166.566 8.26459 167.42 7.7344C167.838 7.4742 168.293 7.1874 168.649 6.82745C168.996 6.47621 169.259 6.12327 169.674 5.87225C170.437 5.40897 171.375 5.20076 172.348 5.20076C174.071 5.19998 175.9 5.85576 177.046 6.86993C177.154 6.9647 177.257 7.06368 177.357 7.1667C178.05 7.88457 178.653 8.87758 178.754 9.86452C178.844 10.7389 178.867 11.6198 178.87 12.501L178.871 12.532C178.871 12.8267 178.852 13.1009 178.852 13.3739C178.852 13.72 178.882 14.0652 179.021 14.4393C179.134 14.7457 179.277 15.0557 179.471 15.3283C179.666 15.6007 179.913 15.836 180.234 15.9872C180.659 16.1861 181.128 16.2049 181.536 16.3487C182.333 16.6259 182.926 17.4223 182.958 18.2586C182.959 18.287 182.959 18.3153 182.959 18.3436C182.961 18.984 182.679 19.6119 182.528 20.2719C182.464 20.5543 182.43 20.8494 182.43 21.144C182.43 21.9512 182.688 22.7607 183.307 23.2881L183.41 23.1702Z" fill="#4F2DA7"/>
<path fill-rule="evenodd" clip-rule="evenodd" d="M175.19 27.3548C174.991 26.2812 174.746 24.7466 175.704 23.9315C176.094 23.5997 176.638 23.454 177.144 23.5461C177.448 23.6017 177.732 23.7371 178 23.8902C178.229 24.0214 178.452 24.168 178.642 24.3512C179.193 24.8832 179.365 25.6154 179.694 26.2709C180.066 27.0104 180.313 27.7902 180.536 28.5843C180.916 29.9416 181.257 31.3094 181.598 32.677C181.774 33.383 181.95 34.089 182.126 34.7953C182.422 35.9822 182.774 37.0646 182.779 38.3135C182.784 39.3418 182.264 40.5309 180.987 40.1924C180.195 39.982 179.747 39.1741 179.389 38.4428C178.401 36.4226 177.589 34.23 176.561 32.2012C175.807 30.7135 175.491 28.9771 175.19 27.3548Z" fill="#ED9B76"/>
<path fill-rule="evenodd" clip-rule="evenodd" d="M187.354 39.8222C186.239 39.1462 185.184 38.3801 184.072 37.6991C183.449 37.3173 182.801 36.885 182.108 36.6362C181.258 36.3309 180.021 36.3421 179.75 37.3977C179.647 37.796 179.679 38.2192 179.781 38.6179C180.038 39.6299 180.722 40.419 181.613 40.9461C182.626 41.5457 183.559 42.091 184.708 42.4428C186.566 43.0121 188.507 43.3131 190.452 43.3336C190.862 43.338 191.297 43.323 191.642 43.1042C192.962 42.2685 191.216 41.6573 190.604 41.412C189.484 40.9626 188.386 40.448 187.354 39.8222Z" fill="white"/>
<path fill-rule="evenodd" clip-rule="evenodd" d="M177.526 22.0369C177.628 22.7084 177.551 23.3985 177.253 24.0114C176.451 25.6646 174.463 25.9869 172.787 26.0516C172.167 26.0754 171.543 26.0448 170.929 25.954C170.382 25.8734 169.894 25.9558 169.341 25.9433C168.248 25.9186 167.161 25.5992 166.237 25.0186C165.788 24.7362 165.365 24.3795 165.135 23.9048C164.818 23.252 164.91 22.4808 165.078 21.7758C165.174 21.369 165.296 20.9629 165.507 20.6007C165.733 20.2134 166.057 19.8843 166.245 19.4775C166.599 18.7132 166.308 17.8198 166.623 17.07C166.869 16.4829 167.489 15.8203 168.003 15.4531C168.702 14.9538 169.604 14.796 170.465 14.854C171.325 14.9119 172.158 15.1687 172.978 15.434C173.623 15.643 174.178 15.5137 174.651 16.0414C175.026 16.4597 174.895 17.1424 175.015 17.6492C175.419 19.3538 177.254 20.2532 177.526 22.0369Z" fill="#4F2DA7"/>
<path fill-rule="evenodd" clip-rule="evenodd" d="M165.94 29.7847C165.586 30.714 165.362 31.6928 165.009 32.6186C164.53 33.874 163.947 35.1726 163.546 36.4359C163.433 36.7921 163.315 37.1569 163.082 37.4509C162.94 37.6305 162.75 37.7946 162.715 38.0204C162.688 38.1915 162.758 38.3673 162.726 38.5374C162.624 39.076 161.641 39.1641 161.673 39.7111C161.678 39.8015 161.715 39.891 161.699 39.9799C161.645 40.2628 161.179 40.2246 161.015 40.4621C160.911 40.6128 160.964 40.8267 160.875 40.9867C160.803 41.117 160.654 41.1826 160.515 41.2397C159.021 41.8549 157.527 42.4701 156.032 43.0852C156.027 41.6461 155.784 40.0835 154.734 39.0875C154.805 39.1546 156.175 38.1876 156.298 38.0953C156.807 37.7103 157.226 37.1345 157.383 36.5072C157.405 36.4202 157.42 36.3292 157.468 36.2532C157.512 36.184 157.583 36.1317 157.662 36.1099C157.735 36.0897 157.817 36.0939 157.883 36.0564C157.997 35.9915 158.014 35.836 158.001 35.7064C157.988 35.5768 157.959 35.4359 158.026 35.3234C158.15 35.1135 158.535 35.1186 158.58 34.8796C158.615 34.6933 158.393 34.5366 158.411 34.3483C158.439 34.0732 158.914 34.0371 158.961 33.7646C158.989 33.6009 158.839 33.4611 158.806 33.2982C158.765 33.0921 158.915 32.9037 159.018 32.72C159.313 32.1936 159.433 31.5134 159.603 30.9376C159.957 29.7416 160.322 28.5491 160.713 27.3647C161.33 25.4928 162.957 22.1798 165.57 23.3675C167.142 24.0821 166.936 26.2085 166.638 27.583C166.473 28.3415 166.216 29.0611 165.94 29.7847Z" fill="#9076C1"/>
<path fill-rule="evenodd" clip-rule="evenodd" d="M175.268 29.7847C175.622 30.714 175.846 31.6928 176.199 32.6186C176.678 33.874 177.261 35.1726 177.662 36.4359C177.775 36.7921 177.893 37.1569 178.126 37.4509C178.268 37.6305 178.458 37.7946 178.494 38.0204C178.52 38.1915 178.45 38.3673 178.482 38.5374C178.584 39.076 179.567 39.1641 179.535 39.7111C179.529 39.8015 179.493 39.891 179.51 39.9799C179.563 40.2628 180.029 40.2246 180.193 40.4621C180.297 40.6128 180.244 40.8267 180.333 40.9867C180.405 41.117 180.554 41.1826 180.693 41.2397C182.187 41.8549 183.681 42.4701 185.176 43.0852C185.18 41.6461 185.424 40.0835 186.474 39.0875C186.403 39.1546 185.033 38.1876 184.91 38.0953C184.401 37.7103 183.982 37.1345 183.824 36.5072C183.803 36.4202 183.788 36.3292 183.74 36.2532C183.696 36.184 183.625 36.1317 183.546 36.1099C183.473 36.0897 183.391 36.0939 183.325 36.0564C183.211 35.9915 183.194 35.836 183.207 35.7064C183.22 35.5768 183.249 35.4359 183.182 35.3234C183.058 35.1135 182.673 35.1186 182.628 34.8796C182.593 34.6933 182.815 34.5366 182.797 34.3483C182.769 34.0732 182.294 34.0371 182.247 33.7646C182.219 33.6009 182.369 33.4611 182.402 33.2982C182.443 33.0921 182.293 32.9037 182.19 32.72C181.895 32.1936 181.775 31.5134 181.605 30.9376C181.251 29.7416 180.886 28.5491 180.495 27.3647C179.878 25.4928 178.251 22.1798 175.638 23.3675C174.067 24.0821 174.272 26.2085 174.57 27.583C174.735 28.3415 174.992 29.0611 175.268 29.7847Z" fill="#9076C1"/>
<path fill-rule="evenodd" clip-rule="evenodd" d="M189.992 42.0702C189.789 42.342 189.585 42.768 189.751 43.1005C189.825 43.2498 189.967 43.3539 190.11 43.441C191.243 44.1289 192.487 44.1189 193.756 43.948C193.964 43.9199 194.175 43.8867 194.367 43.8014C194.674 43.665 194.909 43.403 195.071 43.1116C195.308 42.6833 195.427 42.1869 195.513 41.7101C195.574 41.3761 195.592 41.0344 195.567 40.6959C195.55 40.471 195.543 39.936 195.345 39.7952C195.167 39.6685 194.94 39.6328 194.721 39.6075C194.503 39.5821 194.284 39.5633 194.064 39.5513C193.981 39.5466 193.888 39.5457 193.824 39.5994C193.703 39.7018 193.79 39.9105 193.926 39.9934C194.062 40.0765 194.232 40.096 194.362 40.1879C194.52 40.2998 194.591 40.5029 194.591 40.6954C194.59 40.8879 194.529 41.0743 194.467 41.2572C194.306 41.0659 193.963 41.0728 193.81 41.2704C193.592 41.0235 193.178 41.0916 192.999 41.3436C192.664 41.1761 192.629 40.7877 192.808 40.4779C192.931 40.2668 193.123 40.1069 193.294 39.9319C193.329 39.896 193.365 39.8548 193.367 39.8048C193.372 39.694 193.222 39.6512 193.11 39.6581C192.584 39.6907 192.118 40.0054 191.734 40.3635C191.416 40.661 191.128 40.9877 190.802 41.2785C190.525 41.527 190.217 41.7701 189.992 42.0702Z" fill="white"/>
<path fill-rule="evenodd" clip-rule="evenodd" d="M178.484 44.7424C178.032 43.5544 177.352 42.5823 176.962 41.3545C176.432 39.6881 176.071 37.3121 176.68 35.5873C177.325 33.7559 178.118 32.3112 178.166 30.2712C178.207 28.5247 177.851 26.8042 177.498 25.1031C177.147 23.4181 176.989 22.9289 175.322 22.672C174.728 22.5804 174.141 22.4212 173.549 22.317C172.543 22.1403 171.524 22.0609 170.503 22.0593V22.0587L170.463 22.059L170.423 22.0587V22.0593C169.402 22.0609 168.383 22.1403 167.377 22.317C166.785 22.4212 166.198 22.5804 165.604 22.672C163.937 22.9289 163.779 23.4181 163.428 25.1031C163.075 26.8042 162.719 28.5247 162.76 30.2712C162.808 32.3112 163.6 33.7559 164.246 35.5873C164.855 37.3121 164.494 39.6881 163.964 41.3545C163.573 42.5823 162.894 43.5544 162.442 44.7424C162.407 44.8354 162.372 44.9368 162.399 45.0336C162.434 45.1576 162.557 45.2308 162.669 45.2888C164.884 46.4345 167.366 46.7787 169.794 46.956C170.007 46.9715 170.215 46.9865 170.42 46.9997V47.0055L170.463 47.0027C170.477 47.0036 170.492 47.0047 170.506 47.0055V46.9997C170.711 46.9865 170.918 46.9715 171.132 46.956C173.559 46.7787 176.042 46.4345 178.257 45.2888C178.37 45.2308 178.492 45.1576 178.526 45.0336C178.554 44.9368 178.519 44.8354 178.484 44.7424Z" fill="#9076C1"/>
<path fill-rule="evenodd" clip-rule="evenodd" d="M175.737 23.0257C175.84 22.7123 176.228 22.0134 176.032 21.7399C175.836 21.4646 175.107 21.5236 174.821 21.533C171.688 21.6373 168.555 21.7416 165.422 21.8457C165.603 22.5106 165.61 23.1306 165.868 23.7884C166.087 24.3463 166.378 24.8784 166.748 25.3523C167.489 26.3004 168.535 26.9645 169.727 27.1959C171.745 27.5876 173.975 26.6132 174.997 24.8462C175.326 24.2774 175.533 23.649 175.737 23.0257Z" fill="#9076C1"/>
<path fill-rule="evenodd" clip-rule="evenodd" d="M168.114 25.3448C169.095 26.4494 170.982 26.5373 172.303 26.0852C173.202 25.7775 173.837 25.076 173.856 24.1116C173.877 23.0333 172.922 22.2672 172.68 21.2624C172.543 20.6927 172.557 20.1058 172.571 19.5262C172.587 18.8495 172.592 18.1712 172.625 17.4958C171.949 17.3542 171.4 17.2832 170.682 17.3126C170.088 17.3369 169.494 17.2756 168.9 17.31C168.852 17.3128 168.8 17.3176 168.766 17.349C168.732 17.3806 168.726 17.4303 168.722 17.476C168.642 18.3895 168.721 19.3147 168.658 20.2297C168.601 21.0707 168.41 21.9174 167.913 22.614C167.306 23.4632 167.456 24.604 168.114 25.3448Z" fill="white"/>
<path fill-rule="evenodd" clip-rule="evenodd" d="M169.92 7.70171C170.414 7.44789 170.971 7.32557 171.528 7.30223C172.086 7.27733 172.645 7.34876 173.188 7.47186C174.28 7.7112 175.304 8.26225 176.097 9.04937C176.893 9.83089 177.449 10.8661 177.607 11.9746C177.683 12.53 177.656 13.0846 177.667 13.631C177.678 14.1741 177.722 14.7286 177.95 15.2121C178.181 15.6943 178.581 16.0856 179.023 16.4008C179.468 16.7192 179.961 16.9741 180.436 17.265C180.67 17.4103 180.923 17.5619 181.096 17.8056C181.27 18.0524 181.307 18.354 181.311 18.6309C181.315 18.9122 181.279 19.1937 181.204 19.465C181.132 19.7383 181.003 19.991 180.897 20.2398C180.789 20.4891 180.721 20.7488 180.748 21.015C180.772 21.2803 180.863 21.5388 180.978 21.7851C181.213 22.2786 181.503 22.7509 181.743 23.2501C181.982 23.7479 182.166 24.2819 182.208 24.835C182.258 25.3855 182.187 25.9448 182.004 26.4641C182.175 25.9409 182.232 25.3827 182.17 24.8387C182.115 24.292 181.922 23.7714 181.673 23.2833C181.429 22.7918 181.134 22.3251 180.888 21.8268C180.768 21.5763 180.668 21.3091 180.638 21.0251C180.605 20.74 180.678 20.4497 180.785 20.1947C180.892 19.9359 181.012 19.6928 181.077 19.4312C181.146 19.171 181.18 18.9016 181.175 18.6329C181.171 18.3658 181.132 18.0935 180.981 17.8847C180.831 17.6737 180.596 17.5285 180.361 17.3856C179.891 17.1002 179.394 16.8462 178.936 16.5216C178.48 16.199 178.058 15.7949 177.808 15.2784C177.565 14.7559 177.527 14.1834 177.517 13.6335C177.508 13.081 177.537 12.5312 177.465 11.994C177.318 10.9159 176.777 9.91057 176.011 9.13309C175.244 8.35173 174.246 7.79772 173.17 7.54546C172.635 7.41132 172.083 7.32806 171.529 7.34005C170.976 7.35063 170.42 7.45925 169.92 7.70171Z" fill="#F3EDFF"/>
<path fill-rule="evenodd" clip-rule="evenodd" d="M172.641 21.127C172.534 20.5974 172.545 20.0549 172.559 19.5185C172.575 18.842 172.58 18.1637 172.613 17.4882C171.937 17.3467 171.388 17.2757 170.669 17.305C170.075 17.3294 169.481 17.268 168.887 17.3025C168.839 17.3051 168.787 17.3101 168.754 17.3416C168.72 17.3732 168.713 17.4226 168.709 17.4684C168.63 18.3819 168.708 19.307 168.646 20.2222C168.628 20.4843 168.595 20.7464 168.546 21.0048C168.639 21.0858 168.734 21.1633 168.832 21.2347C169.565 21.7719 170.554 21.9502 171.433 21.7037C171.879 21.5783 172.281 21.3804 172.641 21.127Z" fill="#D8D8D8"/>
<path fill-rule="evenodd" clip-rule="evenodd" d="M175.147 13.8678C175.128 12.9719 174.991 12.1238 174.748 11.4213C173.699 8.39048 169.85 7.69269 167.571 9.9112C165.029 12.3854 166.1 18.1997 168.844 20.2084C169.578 20.7454 170.567 20.9239 171.445 20.6774C174.102 19.9315 175.204 16.6666 175.147 13.8678Z" fill="white"/>
<path fill-rule="evenodd" clip-rule="evenodd" d="M175.142 11.2382C174.316 8.14042 170.529 7.17044 168.094 9.2212C167.706 9.54831 167.436 9.93876 167.159 10.3558C166.924 10.7099 166.597 10.9778 166.39 11.3669C166.177 11.7667 166.044 12.2085 166 12.6584C165.957 13.0963 166.101 13.4794 166.113 13.9004C166.101 13.4609 166.294 13.0203 166.626 12.7284C166.884 12.5015 167.21 12.3683 167.51 12.1999C167.811 12.0315 168.105 11.8053 168.218 11.4823C169.186 12.739 170.689 13.1238 172.168 13.4864C173.409 13.7908 174.77 14.565 174.798 15.9992C174.802 16.1811 174.814 16.2315 174.894 16.4692C174.981 16.2535 175.012 16.0955 175.039 15.8654C175.066 15.6316 175.134 15.3987 175.18 15.1649C175.276 14.6839 175.337 14.1962 175.362 13.7068C175.409 12.8118 175.334 11.9561 175.142 11.2382Z" fill="#D8D8D8"/>
<path fill-rule="evenodd" clip-rule="evenodd" d="M175.848 16.5562C176.093 16.3711 176.282 16.099 176.387 15.8135C176.718 14.851 176.682 13.7858 176.642 12.7547C176.619 12.1795 176.595 11.5963 176.436 11.0483C176.263 10.4504 175.934 9.91945 175.545 9.46442C174.423 8.15068 172.748 7.48323 171.138 7.61955C170.491 7.67433 170.016 7.98105 169.447 8.24141C168.893 8.49553 168.241 8.63512 167.658 8.82545C166.985 9.04518 166.292 9.27565 165.758 9.73691C165.368 10.074 165.084 10.5189 164.881 10.9906C164.637 11.5561 164.614 12.1851 164.683 12.7885C164.74 13.2857 164.806 13.8165 165.029 14.2805C165.238 14.7152 165.703 14.999 166.119 15.2157C166.057 15.1836 166.11 14.4662 166.109 14.3557C166.099 13.7222 166.134 13.0715 166.335 12.4652C166.528 11.8725 166.912 11.5097 167.41 11.1482C167.61 11.0032 167.809 10.8543 167.976 10.6716C168.06 10.5804 168.424 10.1599 168.364 10.0298C168.647 10.6474 169.09 11.2813 169.644 11.6862C170.697 12.4556 171.869 12.999 173.058 13.4572C173.146 13.4909 173.234 13.5247 173.321 13.5595C173.648 13.6893 173.97 13.8372 174.239 14.0792C174.839 14.6192 174.882 15.4492 174.86 16.1976C174.857 16.2796 174.856 16.3637 174.882 16.4413C175.007 16.8086 175.607 16.7375 175.848 16.5562Z" fill="#4F2DA7"/>
<path fill-rule="evenodd" clip-rule="evenodd" d="M191.792 48.0789C191.308 48.6826 190.674 49.207 190.047 49.6398C186.625 52.0023 182.536 53.6181 178.482 54.6592C174.861 55.5892 171.066 55.5478 167.362 55.1869C164.831 54.9402 162.312 54.1637 159.87 53.443C157.358 52.7016 154.881 51.8185 152.54 50.6446C150.695 49.72 149.043 48.572 148.761 46.3869C148.651 45.5273 148.841 44.5755 149.506 43.9925C150.307 43.2902 151.519 43.3139 152.599 43.3967C158.717 43.8655 164.642 45.9054 170.803 45.9431C174.241 45.9642 177.447 45.0792 180.75 44.2789C183.299 43.6614 186.128 42.9826 188.782 43.1119C191.188 43.2292 193.567 45.864 191.792 48.0789Z" fill="#4F2DA7"/>
<path fill-rule="evenodd" clip-rule="evenodd" d="M170.389 56.7055C171.239 56.9012 172.144 56.9749 172.938 57.1128C173.296 57.1749 173.654 57.2371 174.016 57.2756C174.59 57.3366 175.169 57.3374 175.746 57.3383C176.166 57.3389 176.585 57.3394 177.005 57.34C177.233 57.3403 177.472 57.3383 177.675 57.2336C177.917 57.1084 178.064 56.8605 178.198 56.6251C178.464 56.1578 178.785 55.7142 179.002 55.2208C179.132 54.9239 179.19 54.6864 179.382 54.426C179.567 54.1753 179.746 53.8482 179.614 53.534C179.458 53.1633 178.975 53.0709 178.57 53.0642C178.228 53.0584 177.885 53.0763 177.545 53.1174C176.2 53.2804 174.918 53.8057 173.571 53.9539C172.708 54.0485 171.84 53.9861 170.977 53.9416C170.288 53.9059 169.231 53.7302 168.615 54.1224C168.363 54.2827 167.973 54.6699 167.942 54.9757C167.904 55.3611 168.339 55.7633 168.616 55.9648C169.126 56.3369 169.742 56.5565 170.389 56.7055Z" fill="white"/>
<path fill-rule="evenodd" clip-rule="evenodd" d="M178.976 55.2749C178.984 55.2569 178.994 55.2391 179.002 55.2208C179.132 54.9239 179.19 54.6864 179.382 54.426C179.567 54.1753 179.746 53.8482 179.614 53.534C179.458 53.1633 178.975 53.0709 178.57 53.0642C178.228 53.0584 177.885 53.0763 177.545 53.1174C176.2 53.2804 174.918 53.8057 173.571 53.9539C172.863 54.0317 172.151 54.0032 171.441 53.966C170.927 54.1938 169.074 54.7919 168.196 55.5813C168.329 55.7373 168.489 55.8724 168.616 55.9648C169.126 56.3369 169.742 56.5565 170.389 56.7055C170.925 56.829 171.484 56.904 172.023 56.9773C173.822 56.6634 175.595 56.1148 177.35 55.6823C177.89 55.5494 178.432 55.4141 178.976 55.2749Z" fill="#D8D8D8"/>
<path fill-rule="evenodd" clip-rule="evenodd" d="M165.818 51.4198C166.998 52.1001 168.19 52.7869 169.395 53.4106C169.419 53.4229 169.443 53.4346 169.468 53.4461C169.982 53.6895 170.515 53.8919 171.027 54.1425C171.352 54.3017 171.673 54.4727 171.978 54.6683C172.121 54.7603 172.261 54.8577 172.394 54.964C172.448 55.0069 172.539 55.0608 172.573 55.121C172.617 55.1977 172.597 55.3213 172.567 55.3985C172.534 55.4805 172.48 55.5524 172.421 55.6181C172.184 55.88 171.865 56.0532 171.545 56.2049C171.347 56.2984 171.146 56.3857 170.942 56.4654C170.754 56.5385 170.546 56.6358 170.348 56.6738C170.254 56.6918 170.139 56.6602 170.044 56.6473C169.938 56.633 169.832 56.6174 169.726 56.601C169.515 56.568 169.304 56.5306 169.094 56.4901C168.133 56.3042 167.189 56.046 166.252 55.7684C165.323 55.4931 164.399 55.1976 163.467 54.9316C159.065 53.6764 154.486 52.2697 150.652 49.7196C149.769 49.1301 148.88 48.2602 148.504 47.2585C147.516 44.6246 150.343 42.5845 152.756 43.5767C156.785 45.2339 160.106 48.205 163.906 50.3282C164.54 50.6826 165.177 51.0503 165.818 51.4198Z" fill="white"/>
<path fill-rule="evenodd" clip-rule="evenodd" d="M175.117 51.4198C173.937 52.1001 172.746 52.7869 171.541 53.4106C170.883 53.7506 167.001 55.0781 168.062 56.4643C168.271 56.7365 168.665 56.7689 169.01 56.7721C171.92 56.7998 174.711 55.7178 177.468 54.9316C181.87 53.6764 186.45 52.2698 190.283 49.7196C191.166 49.1301 192.055 48.2602 192.432 47.2585C193.42 44.6246 190.592 42.5845 188.18 43.5767C184.15 45.2339 180.83 48.205 177.03 50.3282C176.396 50.6826 175.758 51.0503 175.117 51.4198Z" fill="white"/>
<path fill-rule="evenodd" clip-rule="evenodd" d="M151.216 42.0702C151.419 42.342 151.623 42.768 151.457 43.1005C151.383 43.2498 151.241 43.3539 151.098 43.441C149.966 44.1289 148.721 44.1189 147.452 43.948C147.244 43.9199 147.033 43.8867 146.841 43.8014C146.534 43.665 146.299 43.403 146.137 43.1116C145.9 42.6833 145.781 42.1869 145.695 41.7101C145.634 41.3761 145.616 41.0344 145.641 40.6959C145.658 40.471 145.665 39.936 145.863 39.7952C146.042 39.6685 146.268 39.6328 146.487 39.6075C146.705 39.5821 146.924 39.5633 147.144 39.5513C147.228 39.5466 147.32 39.5457 147.384 39.5994C147.505 39.7018 147.418 39.9105 147.282 39.9934C147.146 40.0765 146.976 40.096 146.846 40.1879C146.688 40.2998 146.616 40.5029 146.617 40.6954C146.617 40.8879 146.679 41.0743 146.741 41.2572C146.902 41.0659 147.245 41.0728 147.398 41.2704C147.616 41.0235 148.03 41.0916 148.209 41.3436C148.544 41.1761 148.579 40.7877 148.4 40.4779C148.277 40.2668 148.085 40.1069 147.914 39.9319C147.879 39.896 147.843 39.8548 147.841 39.8048C147.836 39.694 147.986 39.6512 148.098 39.6581C148.624 39.6907 149.09 40.0054 149.474 40.3635C149.792 40.661 150.08 40.9877 150.406 41.2785C150.683 41.527 150.991 41.7701 151.216 42.0702Z" fill="white"/>
<path fill-rule="evenodd" clip-rule="evenodd" d="M169.393 53.4106C169.034 53.2247 168.676 53.0323 168.32 52.837C167.7 52.9839 167.076 53.1162 166.44 53.1641C165.088 53.2654 163.73 52.9842 162.377 53.0707C162.036 53.0927 161.696 53.138 161.361 53.2063C160.963 53.2874 160.506 53.4666 160.422 53.8594C160.41 53.9178 160.41 53.9743 160.414 54.0295C161.433 54.3459 162.454 54.6434 163.465 54.9316C164.844 55.3249 166.232 55.7921 167.639 56.1575L167.653 56.1523C168.407 55.8711 169.283 55.6329 170.082 55.2847C170.614 55.0527 171.112 54.7723 171.518 54.3977C170.654 53.9234 169.691 53.565 169.393 53.4106Z" fill="#D8D8D8"/>
<path fill-rule="evenodd" clip-rule="evenodd" d="M170.463 56.7055C169.613 56.9012 168.708 56.9749 167.914 57.1128C167.556 57.1749 167.197 57.2371 166.836 57.2756C166.262 57.3366 165.683 57.3374 165.106 57.3383C164.686 57.3389 164.266 57.3394 163.847 57.34C163.618 57.3403 163.38 57.3383 163.177 57.2336C162.935 57.1084 162.788 56.8605 162.654 56.6251C162.388 56.1578 162.067 55.7142 161.85 55.2208C161.72 54.9239 161.662 54.6864 161.47 54.426C161.285 54.1753 161.105 53.8482 161.238 53.534C161.394 53.1633 161.876 53.0709 162.282 53.0642C162.624 53.0584 162.967 53.0763 163.306 53.1174C164.652 53.2804 165.934 53.8057 167.281 53.9539C168.143 54.0485 169.011 53.9861 169.875 53.9416C170.564 53.9059 171.621 53.7302 172.237 54.1224C172.488 54.2827 172.879 54.6699 172.909 54.9757C172.948 55.3611 172.513 55.7633 172.236 55.9648C171.725 56.3369 171.11 56.5565 170.463 56.7055Z" fill="white"/>
</svg>
