<svg width="30" height="30" viewBox="0 0 26 30" fill="none" xmlns="http://www.w3.org/2000/svg">
<path d="M23 3.42361V1.00013L3.00023 1V3.42349C3.00023 7.25122 5.22168 10.8774 9.0449 13.2054C9.73497 13.6257 10.1472 14.2902 10.1472 15.0003C10.1472 15.7091 9.73751 16.3736 9.04867 16.7928C5.14353 19.1695 3 22.827 3 26.5763V28.9999L22.9998 29V26.5765C22.9998 22.833 20.8622 19.1734 16.9509 16.7928C16.2622 16.3736 15.8528 15.7092 15.8528 15.0006C15.8528 14.2902 16.2653 13.6257 16.9555 13.2054C20.7701 10.8823 23 7.25978 23 3.42361Z" fill="#AD95D6"/>
<path d="M6 27V26.8943C6 26.3692 6.97411 25.8721 8.7103 25.4737C10.0625 25.1634 11.7607 25 13.4999 25C15.2392 25 16.9374 25.1635 18.2896 25.4738C20.0259 25.8722 21 26.3692 21 26.8944V27L6 27Z" fill="white"/>
<path d="M24.4903 1C25.3241 1 26 0.776143 26 0.5C26 0.223857 25.3241 0 24.4903 0H1.50968C0.675834 0 -8.38712e-05 0.223885 0 0.500055C8.38712e-05 0.77617 0.675918 1 1.50968 1H24.4903Z" fill="#5721AE"/>
<path d="M1.50968 30H24.4903C25.3241 30 26 29.7761 26 29.5C26 29.2239 25.3241 29 24.4903 29H1.50968C0.675834 29 -8.38712e-05 29.2239 0 29.5001C8.38712e-05 29.7762 0.675918 30 1.50968 30Z" fill="#5721AE"/>
<path fill-rule="evenodd" clip-rule="evenodd" d="M12 15.8C12 16.4628 12.4477 17 13 17C13.5523 17 14 16.4628 14 15.8V14.2C14 13.5372 13.5523 13 13 13C12.4477 13 12 13.5371 12 14.2V15.8ZM12 20.8C12 21.4628 12.4477 22 13 22C13.5523 22 14 21.4628 14 20.8V19.2C14 18.5372 13.5523 18 13 18C12.4477 18 12 18.5371 12 19.2V20.8Z" fill="white"/>
<path d="M6 10C6.35321 10.5987 7.44938 11.1508 9.13315 11.587C10.1576 11.8523 11.551 12 13.0001 12C14.4491 12 15.8425 11.8523 16.8669 11.587C18.5506 11.1509 19.6468 10.5987 20 10H6Z" fill="white"/>
</svg>
