<svg xmlns="http://www.w3.org/2000/svg" xmlns:xlink="http://www.w3.org/1999/xlink" width="70" height="60" viewBox="0 0 70 60">
    <defs>
        <rect id="prefix__a" width="70" height="60" x="0" y="0" rx="4"/>
    </defs>
    <g fill="none" fill-rule="evenodd">
        <g transform="translate(-23 -60) translate(23 60)">
            <mask id="prefix__b" fill="#fff">
                <use xlink:href="#prefix__a"/>
            </mask>
            <use fill="#FFF" xlink:href="#prefix__a"/>
            <g fill-rule="nonzero" mask="url(#prefix__b)" opacity=".05">
                <g>
                    <path fill="#5721AE" d="M66.577 0c-6.699 0-18.268 0-20.704 6.698-2.436 6.699 17.816 6.306 22.53 11.02 4.715 4.715 12.316 4.204 19.487 4.204 7.17 0 5.811 7.903 11.57 6.698 5.758-1.204.608-7.24 2.435-10.902V0H66.577zM34.535 63.194c23.91-8.5 34.536 10.627 34.536 0 0-10.626-12.752-15.94-19.127-22.315-6.376-6.376-3.586-17.002-13.283-17.002-9.698 0-4.812 5.957-15.408 10.626C10.656 39.173 0 27.065 0 40.88s10.626 30.816 34.535 22.315z" transform="translate(-28)"/>
                    <path fill="#5721AE" d="M74.116 51.625c-23.909-8.502-34.535 10.626-34.535 0 0-10.627 12.752-15.94 19.127-22.316 6.376-6.375 3.586-17.002 13.283-17.002s4.812 5.957 15.408 10.627c10.597 4.67 21.253-7.439 21.253 6.375S98.026 60.126 74.116 51.625z" transform="translate(-28)"/>
                    <path fill="#3792FC" d="M36.152 35.542c.86-.41 1.74-.885 2.516-1.441.285-.204.004-.603-.295-.445-.828.434-1.637.995-2.374 1.566-.152.114-.043.413.153.32zM92.61 43.904c-.18-.936-.414-1.91-.755-2.8-.124-.327-.582-.159-.506.172.209.913.546 1.835.91 2.695.074.175.392.146.35-.067zM39.335 18.595c-.017-.015-.032-.03-.049-.042-.213-.19-.562-.226-.769 0-.208.227-.202.541 0 .769.015.017.03.031.042.048.19.215.584.209.776 0 .19-.208.227-.573 0-.775zM88.301 21.905c.054-.348.044-.68.237-.987.39-.61.941-.458 1.476-.188.544.275 1.058.437 1.649.183.923-.4 1.358-1.794.475-2.45-.285-.214-.567.137-.529.407.054.374.24.789-.081 1.11-.43.43-.934.068-1.364-.126-.463-.208-.957-.254-1.433-.06-.822.333-1.42 1.447-.766 2.2.092.105.313.056.336-.089zM78.768 57.16c-.844.811-1.164 2.073-.36 3.05.757.918 2.228 1.11 3.174.38 2.288-1.768-.098-5.022-2.565-4.349-.457.125-.343.778.108.801.72.04 1.494.067 2.07.576.62.541.633 1.46.124 2.086-1.346 1.653-3.682-.78-2.268-2.261.182-.185-.094-.461-.283-.283zM29.235 51.778c.264.98.553 1.948.857 2.917.071.232.292.307.493.17.788-.537 1.573-1.061 2.32-1.654.144-.115.112-.344-.028-.442-.874-.598-2.052-1.484-3.16-1.49-.281-.003-.48.396-.193.56.447.257.983.349 1.462.546.55.23 1.097.499 1.584.846.012-.16.023-.321.032-.482-.834.513-1.62 1.09-2.41 1.662l.467.095c-.338-.957-.685-1.906-1.06-2.848-.08-.198-.418-.09-.364.12z" transform="translate(-28)"/>
                </g>
            </g>
        </g>
        <g fill-rule="nonzero">
            <path fill="#5721AE" d="M0 23.888v4.702c0 2.245.79 4.228 2.351 5.92.575.554.896.862.964.925.22.187.45.37.692.55 1.21.887 2.545 1.59 3.959 2.085 1.463-.493 2.847-1.197 4.11-2.09.274-.195.534-.396.78-.602.15-.15.858-.808 1.018-.959 1.563-1.672 2.353-3.625 2.353-5.829v-4.702c-2.868-1.27-5.589-2.855-8.114-4.724C5.59 21.034 2.868 22.617 0 23.888zm11.407 2.927c0 .155-.06.304-.17.413l-3.46 3.49c-.226.229-.593.229-.82 0L4.99 28.733c-.219-.23-.215-.593.008-.818.223-.225.583-.229.81-.009l1.56 1.572 3.05-3.077c.108-.11.256-.171.41-.171.153 0 .3.062.41.171.108.11.17.259.17.414zM14.366 7.094L27.875 7.094 21.12.281z" transform="translate(-23 -60) translate(37 69)"/>
            <path fill="#AD95D6" d="M32.172 5.498L26.722 0 24.295 2.448 27.32 5.498zM26.984 19.147c.003-2.67 2.147-4.833 4.794-4.836h6.445V9.227c-.003-1.828-1.472-3.31-3.285-3.312H25.74l-.01.009-.008-.01H12.9l-.01.01-.008-.01H7.894C6.08 5.918 4.612 7.4 4.61 9.228v10.907c1.084-.673 2.136-1.395 3.156-2.166.206-.156.49-.156.695 0 2.634 1.992 5.493 3.662 8.517 4.974l.058.025c.212.092.35.303.35.537v5.086c.005 1.304-.262 2.595-.784 3.788h18.336c1.813-.002 3.282-1.484 3.285-3.313v-5.083h-6.445c-2.646-.003-4.791-2.166-4.794-4.835z" transform="translate(-23 -60) translate(37 69)"/>
            <path fill="#9F75E7" d="M31.936 20.156c.405 0 .77-.246.925-.623.155-.378.07-.812-.217-1.1-.287-.29-.717-.376-1.091-.22-.374.157-.618.525-.618.934 0 .557.449 1.008 1 1.009z" transform="translate(-23 -60) translate(37 69)"/>
            <path fill="#5721AE" d="M28.143 19.147c.002 2.024 1.628 3.664 3.635 3.666h8.043V15.48h-8.043c-2.007.002-3.633 1.643-3.635 3.667zm5.953 0c0 1.203-.967 2.178-2.16 2.178s-2.16-.976-2.16-2.179c0-1.203.967-2.178 2.16-2.178s2.159.976 2.16 2.179z" transform="translate(-23 -60) translate(37 69)"/>
        </g>
    </g>
</svg>
