<svg xmlns="http://www.w3.org/2000/svg" xmlns:xlink="http://www.w3.org/1999/xlink" width="130" height="178" viewBox="0 0 130 178">
  <defs>
    <rect id="icn_top_equity_funds-a" width="130" height="178" x="0" y="0" rx="6"/>
    <filter id="icn_top_equity_funds-b" width="106.2%" height="105.6%" x="-3.1%" y="-2.2%" filterUnits="objectBoundingBox">
      <feOffset dy="2" in="SourceAlpha" result="shadowOffsetOuter1"/>
      <feGaussianBlur in="shadowOffsetOuter1" result="shadowBlurOuter1" stdDeviation="1"/>
      <feColorMatrix in="shadowBlurOuter1" result="shadowMatrixOuter1" values="0 0 0 0 0   0 0 0 0 0   0 0 0 0 0  0 0 0 0.0483186141 0"/>
      <feOffset in="SourceAlpha" result="shadowOffsetOuter2"/>
      <feGaussianBlur in="shadowOffsetOuter2" result="shadowBlurOuter2" stdDeviation="1"/>
      <feColorMatrix in="shadowBlurOuter2" result="shadowMatrixOuter2" values="0 0 0 0 0   0 0 0 0 0   0 0 0 0 0  0 0 0 0.12 0"/>
      <feMerge>
        <feMergeNode in="shadowMatrixOuter1"/>
        <feMergeNode in="shadowMatrixOuter2"/>
      </feMerge>
    </filter>
    <linearGradient id="icn_top_equity_funds-d" x1="50%" x2="50%" y1="100%" y2="55.061%">
      <stop offset="0%" stop-color="#FFF"/>
      <stop offset="100%" stop-color="#2F1089"/>
    </linearGradient>
    <linearGradient id="icn_top_equity_funds-e" x1="50%" x2="50%" y1="100%" y2="55.061%">
      <stop offset="0%" stop-color="#FFF"/>
      <stop offset="100%" stop-color="#2F1089"/>
    </linearGradient>
    <linearGradient id="icn_top_equity_funds-f" x1="50%" x2="50%" y1="0%" y2="100%">
      <stop offset="1.151%" stop-color="#A07BFF"/>
      <stop offset="100%" stop-color="#6E54B7"/>
    </linearGradient>
    <radialGradient id="icn_top_equity_funds-g" cx="50%" cy="50%" r="166.116%" fx="50%" fy="50%" gradientTransform="matrix(.31123 .09 -.01212 .42918 .35 .24)">
      <stop offset="0%" stop-color="#AAD1FF"/>
      <stop offset="100%" stop-color="#5826D8"/>
    </radialGradient>
    <radialGradient id="icn_top_equity_funds-h" cx="50%" cy="50%" r="172.982%" fx="50%" fy="50%" gradientTransform="matrix(.29888 .08643 -.01117 .42932 .356 .242)">
      <stop offset="0%" stop-color="#D5C5FF"/>
      <stop offset="100%" stop-color="#946AFF"/>
    </radialGradient>
  </defs>
  <g fill="none" fill-rule="evenodd">
    <mask id="icn_top_equity_funds-c" fill="#fff">
      <use xlink:href="#icn_top_equity_funds-a"/>
    </mask>
    <use fill="#000" filter="url(#icn_top_equity_funds-b)" xlink:href="#icn_top_equity_funds-a"/>
    <use fill="#FFF" xlink:href="#icn_top_equity_funds-a"/>
    <path fill="#4F2DA7" fill-rule="nonzero" d="M94.0407668,54 C107.55624,54 130.901148,54 135.815866,40.4845269 C140.730583,26.9690537 99.8670851,27.7617501 90.3547287,18.2493937 C80.8423722,8.73703722 65.5049033,9.7675425 51.0369887,9.7675425 C36.569074,9.7675425 39.3106289,-6.1783992 27.6920805,-3.74793063 C16.0735322,-1.31746205 26.4634012,10.8617466 22.777363,18.2493937 C22.777363,22.8406149 22.777363,34.7574837 22.777363,54 C55.1325866,54 78.8870545,54 94.0407668,54 Z" mask="url(#icn_top_equity_funds-c)" opacity=".05" transform="rotate(180 79.112 25)"/>
    <path fill="#4F2DA7" fill-rule="nonzero" d="M27.257179,127.686082 C94.5662831,103.753956 124.48144,157.60124 124.48144,127.686082 C124.48144,97.7709249 88.5832516,82.8133463 70.6341571,64.8642519 C52.6850629,46.9151574 60.5400668,17 33.2402105,17 C5.94035426,17 19.6941641,33.7693084 -10.1367676,46.9151574 C-39.9676995,60.0610063 -40.051925,151.618208 27.257179,127.686082 Z" mask="url(#icn_top_equity_funds-c)" opacity=".05"/>
    <path fill="#4F2DA7" fill-rule="nonzero" d="M78.7141525,178.566881 C117.977797,164.606475 135.428305,196.01739 135.428305,178.566881 C135.428305,161.116373 114.487695,152.391119 104.01739,141.920814 C93.5470848,131.450508 98.1291704,114 82.2042542,114 C66.2793381,114 74.3023938,123.782097 56.901017,131.450508 C39.4996401,139.11892 22,119.235153 22,141.920814 C22,164.606475 39.4505085,192.527288 78.7141525,178.566881 Z" mask="url(#icn_top_equity_funds-c)" opacity=".05" transform="matrix(-1 0 0 1 157.428 0)"/>
    <rect width="20" height="3" x="15" y="119" fill="#DFD8EF" mask="url(#icn_top_equity_funds-c)"/>
    <g mask="url(#icn_top_equity_funds-c)">
      <g transform="translate(20 30)">
        <g transform="translate(0 35.385)">
          <path fill="url(#icn_top_equity_funds-d)" d="M40.094092,22.0377817 C47.9419361,22.0377817 51.5221598,22.2994335 54.3038707,19.7571863 C57.0855817,17.2149391 55.4811663,13.7911546 52.2739023,12.6667653 C49.0666383,11.5423761 31.9742184,10.6741233 27.9142817,12.6667653 C23.8543449,14.6594074 23.1540097,16.3817739 25.8843133,18.8770392 C28.6146168,21.3723044 32.2462479,22.0377817 40.094092,22.0377817 Z" opacity=".16"/>
          <path fill="url(#icn_top_equity_funds-e)" d="M15.8439846,22.3710492 C23.6918286,22.3710492 27.2720524,22.6404394 30.0537633,20.0230052 C32.8354742,17.405571 31.2310589,13.880528 28.0237949,12.7228849 C24.8165309,11.5652418 7.72411101,10.6713105 3.66417423,12.7228849 C-0.395762552,14.7744594 -1.09609772,16.5477649 1.63420584,19.1168276 C4.3645094,21.6858904 7.99614047,22.3710492 15.8439846,22.3710492 Z" opacity=".16"/>
          <g transform="translate(0 7.624)">
            <path fill="url(#icn_top_equity_funds-f)" d="M15.8439846,13.1886549 C23.6918286,13.1886549 27.2720524,12.5907255 30.0537633,10.1330118 C32.8354742,7.67529812 31.2310589,3.51447859 28.0237949,2.42747695 C24.8165309,1.34047531 7.72411101,0.501093236 3.66417423,2.42747695 C-0.395762552,4.35386066 -1.09609772,7.72071786 1.63420584,10.1330118 C4.3645094,12.5453057 7.99614047,13.1886549 15.8439846,13.1886549 Z"/>
            <path fill="url(#icn_top_equity_funds-g)" d="M15.7412978,8.50880963 C23.2601551,8.50880963 29.3553932,6.60404771 29.3553932,4.25440481 C29.3553932,1.90476192 23.2601551,0 15.7412978,0 C8.22244054,0 2.12720241,1.90476192 2.12720241,4.25440481 C2.12720241,6.60404771 8.22244054,8.50880963 15.7412978,8.50880963 Z"/>
            <path fill="url(#icn_top_equity_funds-h)" d="M15.7412978,8.08336914 C22.7902265,8.08336914 28.5045122,6.36908342 28.5045122,4.25440481 C28.5045122,2.13972621 22.7902265,0.425440481 15.7412978,0.425440481 C8.69236912,0.425440481 2.97808337,2.13972621 2.97808337,4.25440481 C2.97808337,6.36908342 8.69236912,8.08336914 15.7412978,8.08336914 Z"/>
            <path fill="#FFF" d="M18.8159986,1.27743235 L14.1742601,1.51228612 L11.9277374,1.62595136 C11.6771392,1.63863065 11.4798781,1.75649588 11.4870843,1.88924543 C11.4942905,2.02199498 11.7032325,2.11930793 11.9538307,2.10662864 L14.2003534,1.9929634 C14.8778902,1.95868269 15.5298816,2.10201896 15.9444511,2.37636098 C16.1397328,2.50561962 16.2739532,2.65298306 16.3506237,2.80702391 L12.0037901,3.02695665 C11.7531919,3.03963594 11.5559308,3.15750117 11.563137,3.29025072 C11.5703432,3.42300027 11.7792851,3.52031322 12.0298834,3.50763393 L16.3930882,3.28687287 C16.3791246,3.32918931 16.3613296,3.37131129 16.3378408,3.41289762 C16.165194,3.71902157 15.7478707,3.95703537 15.162753,4.08313367 C14.2721601,4.27495866 13.2676998,4.30723481 12.2949835,4.33828139 L12.0906147,4.34485605 C11.899816,4.349332 11.7280849,4.42024755 11.662306,4.51799827 C11.5965219,4.6156551 11.6502032,4.72063536 11.7967019,4.78072157 L17.53591,7.13379516 C17.6246083,7.1701642 17.7332704,7.18471818 17.8404923,7.17929317 C17.9656142,7.17296249 18.0885493,7.13944181 18.175326,7.08148552 C18.3365372,6.97391688 18.3114548,6.8228672 18.1193359,6.74409595 L13.3294541,4.78027106 C14.0422284,4.74364263 14.7589831,4.6788532 15.4544204,4.52909824 C16.3235803,4.34184086 16.9457295,3.98454355 17.2060813,3.52298129 C17.2585659,3.42995125 17.2889734,3.33535522 17.3088174,3.24054054 L18.9181445,3.1591149 C19.1687428,3.14643561 19.3660039,3.02857038 19.3587977,2.89582083 C19.3515914,2.76307128 19.1426495,2.66575833 18.8920513,2.67843762 L17.2775846,2.7601233 C17.1856893,2.50731134 16.9796178,2.26604234 16.6668653,2.05898961 C16.5701593,1.99500727 16.4614813,1.93800867 16.3478952,1.88430619 L18.8420919,1.75810961 C19.0926901,1.74543035 19.2899512,1.62756511 19.282745,1.49481556 C19.2755387,1.36206602 19.0665968,1.26475306 18.8159986,1.27743235 Z"/>
          </g>
          <g transform="rotate(20 12.919 81.726)">
            <path fill="url(#icn_top_equity_funds-f)" d="M15.8439846,13.1886549 C23.6918286,13.1886549 27.2720524,12.5907255 30.0537633,10.1330118 C32.8354742,7.67529812 31.2310589,3.51447859 28.0237949,2.42747695 C24.8165309,1.34047531 7.72411101,0.501093236 3.66417423,2.42747695 C-0.395762552,4.35386066 -1.09609772,7.72071786 1.63420584,10.1330118 C4.3645094,12.5453057 7.99614047,13.1886549 15.8439846,13.1886549 Z"/>
            <path fill="url(#icn_top_equity_funds-g)" d="M15.7412978,8.50880963 C23.2601551,8.50880963 29.3553932,6.60404771 29.3553932,4.25440481 C29.3553932,1.90476192 23.2601551,0 15.7412978,0 C8.22244054,0 2.12720241,1.90476192 2.12720241,4.25440481 C2.12720241,6.60404771 8.22244054,8.50880963 15.7412978,8.50880963 Z"/>
            <path fill="url(#icn_top_equity_funds-h)" d="M15.7412978,8.08336914 C22.7902265,8.08336914 28.5045122,6.36908342 28.5045122,4.25440481 C28.5045122,2.13972621 22.7902265,0.425440481 15.7412978,0.425440481 C8.69236912,0.425440481 2.97808337,2.13972621 2.97808337,4.25440481 C2.97808337,6.36908342 8.69236912,8.08336914 15.7412978,8.08336914 Z"/>
            <path fill="#FFF" d="M18.8159986,1.27743235 L14.1742601,1.51228612 L11.9277374,1.62595136 C11.6771392,1.63863065 11.4798781,1.75649588 11.4870843,1.88924543 C11.4942905,2.02199498 11.7032325,2.11930793 11.9538307,2.10662864 L14.2003534,1.9929634 C14.8778902,1.95868269 15.5298816,2.10201896 15.9444511,2.37636098 C16.1397328,2.50561962 16.2739532,2.65298306 16.3506237,2.80702391 L12.0037901,3.02695665 C11.7531919,3.03963594 11.5559308,3.15750117 11.563137,3.29025072 C11.5703432,3.42300027 11.7792851,3.52031322 12.0298834,3.50763393 L16.3930882,3.28687287 C16.3791246,3.32918931 16.3613296,3.37131129 16.3378408,3.41289762 C16.165194,3.71902157 15.7478707,3.95703537 15.162753,4.08313367 C14.2721601,4.27495866 13.2676998,4.30723481 12.2949835,4.33828139 L12.0906147,4.34485605 C11.899816,4.349332 11.7280849,4.42024755 11.662306,4.51799827 C11.5965219,4.6156551 11.6502032,4.72063536 11.7967019,4.78072157 L17.53591,7.13379516 C17.6246083,7.1701642 17.7332704,7.18471818 17.8404923,7.17929317 C17.9656142,7.17296249 18.0885493,7.13944181 18.175326,7.08148552 C18.3365372,6.97391688 18.3114548,6.8228672 18.1193359,6.74409595 L13.3294541,4.78027106 C14.0422284,4.74364263 14.7589831,4.6788532 15.4544204,4.52909824 C16.3235803,4.34184086 16.9457295,3.98454355 17.2060813,3.52298129 C17.2585659,3.42995125 17.2889734,3.33535522 17.3088174,3.24054054 L18.9181445,3.1591149 C19.1687428,3.14643561 19.3660039,3.02857038 19.3587977,2.89582083 C19.3515914,2.76307128 19.1426495,2.66575833 18.8920513,2.67843762 L17.2775846,2.7601233 C17.1856893,2.50731134 16.9796178,2.26604234 16.6668653,2.05898961 C16.5701593,1.99500727 16.4614813,1.93800867 16.3478952,1.88430619 L18.8420919,1.75810961 C19.0926901,1.74543035 19.2899512,1.62756511 19.282745,1.49481556 C19.2755387,1.36206602 19.0665968,1.26475306 18.8159986,1.27743235 Z"/>
          </g>
        </g>
        <g stroke-linecap="round" stroke-linejoin="round" transform="translate(4.615)">
          <polyline stroke="#6E54B7" stroke-width="3" points="0 33.823 15.741 18.081 23.612 25.952 43.608 5.956"/>
          <polyline stroke="#6E54B7" stroke-width="3" points="34.886 0 49.351 0 49.351 14.465"/>
        </g>
      </g>
    </g>
  </g>
</svg>
