<svg xmlns="http://www.w3.org/2000/svg" xmlns:xlink="http://www.w3.org/1999/xlink" width="300" height="120" viewBox="0 0 300 120">
  <defs>
    <rect id="ils_timeout-a" width="300" height="120" x="0" y="0" rx="4"/>
    <linearGradient id="ils_timeout-c" x1="15.244%" x2="3.015%" y1="52.01%" y2="52.01%">
      <stop offset="0%" stop-color="#EAE3FD"/>
      <stop offset="100%" stop-color="#E7DDFF"/>
    </linearGradient>
    <path id="ils_timeout-d" d="M20.625,33 C22.5547784,33 25.986121,32.0439853 28.1875,30 C31.9969323,26.4629337 35.0625,23 37.125,16 C38.5,11.3333333 39.1875,6 39.1875,-1.84741111e-12 C31.3958333,-1.84741111e-12 25.2083333,-1.84741111e-12 20.625,-1.84741111e-12 C14.0833333,-1.84741111e-12 7.54166667,-1.84741111e-12 1,-1.84741111e-12 C0.44771525,-1.84730966e-12 3.23229309e-13,0.44771525 3.23296945e-13,1 C3.23296945e-13,1.66666667 3.23296945e-13,2.33333333 3.23296945e-13,3 C3.23296945e-13,19.5685425 9.23412704,33 20.625,33 Z"/>
    <linearGradient id="ils_timeout-f" x1="94.82%" x2="73.863%" y1="54.89%" y2="32%">
      <stop offset="0%" stop-color="#E4D8FF"/>
      <stop offset="100%" stop-color="#EDE6FF"/>
    </linearGradient>
    <linearGradient id="ils_timeout-g" x1="50%" x2="50%" y1="100%" y2="36.436%">
      <stop offset="0%" stop-color="#F4EBFF"/>
      <stop offset="100%" stop-color="#E8DFFE"/>
    </linearGradient>
    <linearGradient id="ils_timeout-h" x1="94.82%" x2="73.863%" y1="54.89%" y2="32%">
      <stop offset="0%" stop-color="#E4D8FF"/>
      <stop offset="100%" stop-color="#EDE6FF"/>
    </linearGradient>
    <linearGradient id="ils_timeout-i" x1="50%" x2="50%" y1="100%" y2="36.436%">
      <stop offset="0%" stop-color="#EDE6FF"/>
      <stop offset="100%" stop-color="#E8DFFE"/>
    </linearGradient>
  </defs>
  <g fill="none" fill-rule="evenodd">
    <mask id="ils_timeout-b" fill="#fff">
      <use xlink:href="#ils_timeout-a"/>
    </mask>
    <g mask="url(#ils_timeout-b)">
      <g transform="translate(0 -1)">
        <path fill="#F8F5FF" d="M224.958333,89.4802576 C272.00641,72.7277695 292.916667,110.420868 292.916667,89.4802576 C292.916667,68.5396474 267.824359,58.0693424 255.278205,45.5049763 C242.732051,32.9406102 248.222584,12 229.140385,12 C210.058185,12 219.671897,23.7385159 198.820513,32.9406102 C177.969129,42.1427044 157,18.282183 157,45.5049763 C157,72.7277695 177.910256,106.232746 224.958333,89.4802576 Z" opacity=".3" transform="scale(-1 1) rotate(10 0 -2517.286)"/>
        <path fill="#F8F5FF" fill-rule="nonzero" d="M50.7504545,100.617474 C111.206566,79.0785608 138.075949,127.541116 138.075949,100.617474 C138.075949,73.6938324 105.83269,60.2320117 89.7110598,44.0778267 C73.5894302,27.9236417 80.6446867,1 56.1243311,1 C31.6039756,1 43.9574585,16.0923776 17.1637258,27.9236417 C-9.63000703,39.7549057 -9.70565726,122.156387 50.7504545,100.617474 Z" opacity=".3"/>
        <path fill="#F8F5FF" fill-rule="nonzero" d="M154.753764,82.0773102 C201.720842,86.4063196 205.322795,69.9887622 203.890695,56.1032537 C202.458594,42.2177453 163.453779,42.9098514 149.249673,28.7101684 C135.045566,14.5104855 112.143245,16.0487845 90.5393663,16.0487845 C68.9354873,16.0487845 48.9121581,59.5664613 67.0939976,77.7483008 C85.2758371,95.9301403 107.786686,77.7483008 154.753764,82.0773102 Z" opacity=".3" transform="rotate(180 132.066 51)"/>
        <g transform="translate(12 6)">
          <path fill="#4F2DA7" fill-rule="nonzero" d="M69.506677,63.6072984 C69.6377603,62.7521358 69.6127921,61.9406676 70.0871889,61.185378 C71.0422245,59.6872828 72.3967522,60.0618066 73.7075854,60.7234653 C75.0433869,61.3976081 76.3042837,61.7971001 77.7524423,61.1728938 C80.0183112,60.1928899 81.085704,56.7722394 78.9197081,55.1617871 C78.220597,54.6374538 77.527728,55.4988585 77.621359,56.1605172 C77.7524423,57.0781005 78.2081129,58.0955567 77.421613,58.8820567 C76.3667043,59.9369654 75.1307758,59.0505924 74.0758672,58.5761956 C72.9398117,58.0643464 71.7288514,57.9519893 70.5615856,58.4263861 C68.5453993,59.2440964 67.0785145,61.97812 68.6827247,63.8257706 C68.9074389,64.0816952 69.4504984,63.963096 69.506677,63.6072984 L69.506677,63.6072984 Z" opacity=".1"/>
          <path fill="#4F2DA7" fill-rule="nonzero" d="M.714795096 6.40500842C4.09361412 5.48491811 7.58067906 4.35606782 10.7430062 2.85608867 11.9027839 2.30712723 11.1527944.68343845 9.96982112 1.05456731 6.69151616 2.07517169 3.40547935 3.56741899.359129935 5.14471666-.251686318 5.46172256-.050658184 6.61376841.714795096 6.40500842L.714795096 6.40500842zM190.348165 72.2907833C190.543022 72.9221172 191.143178 73.1247676 191.688776 72.7506438 193.832193 71.2931197 195.967817 69.8667727 198.002115 68.2533637 198.391827 67.9415939 198.306091 67.3180542 197.924173 67.0530498 195.546928 65.4240524 192.343492 63.0156303 189.327119 63 188.563283 62.9922476 188.02548 64.0756478 188.804905 64.5199198 190.020807 65.221402 191.478331 65.4708179 192.77997 66.0086209 194.276465 66.6321605 195.765166 67.3648197 197.090188 68.3079235 197.121365 67.8714457 197.152542 67.4349679 197.175925 66.9984901 194.907799 68.3936602 192.772176 69.9603037 190.620964 71.5191529 191.041853 71.6048896 191.470537 71.6906263 191.891426 71.776363 190.971705 69.1730848 190.028601 66.5931893 189.007555 64.0288823 188.781522 63.4910793 187.861801 63.7872607 188.017686 64.3562407 188.734756 67.0218729 189.521975 69.6563281 190.348165 72.2907833z" opacity=".2"/>
          <path fill="#4F2DA7" fill-rule="nonzero" d="M18.3600189 44.3720189C20.8343852 44.5585565 23.4349386 44.6298797 25.9093049 44.3829917 26.8200472 44.2952093 26.7048328 43.055283 25.8215225 43.0223646 23.385561 42.9290958 20.8343852 43.137579 18.4258557 43.4612766 17.9485389 43.5271134 17.8004061 44.3281277 18.3600189 44.3720189L18.3600189 44.3720189zM269.618038 17.2055237C266.934485 19.7821622 265.918798 23.7914544 268.474053 26.8919737 270.879629 29.8107385 275.551791 30.4201509 278.556087 28.1001071 285.82627 22.487098 278.246035 12.1484698 270.409205 14.286759 268.955168 14.6823425 269.318678 16.756483 270.751331 16.8313231 273.039301 16.9596205 275.498333 17.0451521 277.326571 18.6595604 279.293797 20.3808832 279.336562 23.2996479 277.722154 25.2882568 273.445576 30.5377568 266.025712 22.8078414 270.51612 18.1036052 271.093458 17.5155757 270.216759 16.6388771 269.618038 17.2055237L269.618038 17.2055237z" opacity=".1"/>
          <path fill="#4F2DA7" fill-rule="nonzero" d="M170.016151,4.36469541 C170.737692,7.04694503 171.529818,9.69782331 172.361159,12.3487016 C172.55723,12.9839712 173.161128,13.187885 173.710127,12.8114289 C175.866906,11.3448187 178.015843,9.90957986 180.062823,8.28611299 C180.454965,7.97239958 180.368694,7.34497277 179.984395,7.07831637 C177.59233,5.43916383 174.368925,3.01572777 171.333747,3 C170.56515,2.99219926 170.023994,4.08235335 170.808278,4.52939495 C172.03176,5.23525011 173.49837,5.48622084 174.808123,6.02737646 C176.313948,6.65480327 177.811929,7.39202978 179.145211,8.34101283 C179.176583,7.90181406 179.207954,7.46261529 179.231482,7.02341653 C176.949217,8.42728402 174.800281,10.0036939 172.635658,11.5722609 C173.059171,11.6585321 173.490527,11.7448033 173.91404,11.8310745 C172.988586,9.21156753 172.039603,6.6155891 171.012191,4.03529633 C170.792592,3.49414071 169.867137,3.79216844 170.016151,4.36469541 L170.016151,4.36469541 Z" opacity=".2" transform="rotate(50 175.159 8)"/>
          <path fill="#4F2DA7" fill-rule="nonzero" d="M227.369401,26.1563442 C228.781166,25.4816037 230.227533,24.703057 231.500889,23.7895622 C231.968017,23.453922 231.50781,22.7999428 231.01646,23.0594583 C229.656598,23.7722611 228.327879,24.6926763 227.116806,25.6303926 C226.867671,25.8172438 227.047602,26.3085933 227.369401,26.1563442 L227.369401,26.1563442 Z" opacity=".2" transform="rotate(-80 229.348 24.593)"/>
          <path fill="#4F2DA7" fill-rule="nonzero" d="M88.8864583,21.7729159 C88.4789049,19.6440488 87.9466881,17.4288763 87.1699393,15.4006989 C86.8870493,14.6575133 85.8465895,15.041093 86.0192004,15.793868 C86.4938802,17.8699929 87.2610395,19.9700915 88.0905305,21.9263478 C88.2583466,22.3243117 88.9823532,22.2571852 88.8864583,21.7729159 L88.8864583,21.7729159 Z" opacity=".2"/>
        </g>
      </g>
    </g>
    <path fill="#F4EBFF" d="M0,100 C16.6666667,91.3333333 35,87 55,87 C85,87 100.490768,92.7715524 159,96 C183.902888,97.3741023 230.902888,98.7074356 300,100 L300,120 L0,120 L0,100 Z" mask="url(#ils_timeout-b)"/>
    <path fill="#EDE6FF" d="M0,100 C18,86 39.3333333,79 64,79 C101,79 119.89431,101.577517 196,109 C214.944018,110.847584 249.610685,112.180917 300,113 L300,120 L0,120 L0,100 Z" mask="url(#ils_timeout-b)" transform="matrix(-1 0 0 1 300 0)"/>
    <path fill="url(#ils_timeout-c)" d="M156.344693,120.097117 C167.735566,120.097117 176.969693,133.528575 176.969693,150.097117 L176.970529,150.609855 C177.787432,151.137628 178.33259,152.051986 178.344498,153.097314 L178.344693,155.153751 C178.344693,157.892958 176.140677,160.122225 173.401647,160.153427 L141.378656,160.518221 L137.844039,160.558486 C135.11407,160.589585 132.875782,158.401718 132.844684,155.67175 L132.844363,153.58146 C132.844363,152.52449 133.391303,151.594064 134.218823,151.059594 L134.219363,150.61544 L134.219363,150.61544 C134.219363,138.609215 139.856057,127.978109 147.294645,123.033693 C150.121278,121.154835 153.2081,120.097117 156.344693,120.097117 Z M173.344693,80.0971174 C176.106116,80.0971174 178.344693,82.3356937 178.344693,85.0971174 L178.344693,87.0971174 C178.344693,88.1548953 177.797244,89.0848097 176.97022,89.6189866 L176.969693,90.0971174 C176.969693,106.66566 167.735566,120.097117 156.344693,120.097117 C152.977232,120.097117 149.798262,118.923263 146.990639,116.841527 C140.301112,111.88152 135.719693,101.767535 135.719693,90.0971174 L135.719693,90.0971174 L135.719165,89.6189866 C134.892142,89.0848097 134.344693,88.1548953 134.344693,87.0971174 L134.344693,85.0971174 C134.344693,82.3356937 136.583269,80.0971174 139.344693,80.0971174 L173.344693,80.0971174 Z" mask="url(#ils_timeout-b)" transform="rotate(76 155.595 120.328)"/>
    <path fill="#F8F5FF" d="M0,110 C81.6113044,110.439859 136.277971,110.439859 164,110 C214.985066,109.191031 246.249934,106 258,106 C279.333333,106 293.333333,108.333333 300,113 L300,120 L0,120 L0,110 Z" mask="url(#ils_timeout-b)" transform="matrix(-1 0 0 1 300 0)"/>
    <g mask="url(#ils_timeout-b)">
      <g transform="rotate(77 59.614 136.316)">
        <path fill="#BA8EE0" d="M3,70 L41,70 C42.6568542,70 44,71.3431458 44,73 L44,75 C44,77.7614237 41.7614237,80 39,80 L5,80 C2.23857625,80 -7.95469687e-13,77.7614237 -7.95807864e-13,75 L-7.95807864e-13,73 C-7.9601077e-13,71.3431458 1.34314575,70 3,70 Z"/>
        <path fill="#7F66BF" d="M5,75 L39,75 C41.7614237,75 44,77.2385763 44,80 L44,80 L44,80 L-1.36424205e-12,80 C-1.36458023e-12,77.2385763 2.23857625,75 5,75 Z" transform="matrix(1 0 0 -1 0 155)"/>
        <path fill="#BA8EE0" d="M5,-4.54747351e-12 L39,-4.54747351e-12 C41.7614237,-4.54798077e-12 44,2.23857625 44,5 L44,7 C44,8.65685425 42.6568542,10 41,10 L3,10 C1.34314575,10 -1.59141282e-12,8.65685425 -1.59161573e-12,7 L-1.59161573e-12,5 C-1.5919539e-12,2.23857625 2.23857625,-4.54696624e-12 5,-4.54747351e-12 Z"/>
        <path fill="#7F66BF" d="M5,-4.54747351e-12 L39,-4.54747351e-12 C41.7614237,-4.54798077e-12 44,2.23857625 44,5 L44,5 L44,5 L-1.59161573e-12,5 C-1.5919539e-12,2.23857625 2.23857625,-4.54696624e-12 5,-4.54747351e-12 Z"/>
        <path fill="#D7C1F1" d="M22,40 C33.390873,40 42.625,53.4314575 42.625,70 L42.625,72 L42.625,72 C42.625,72.5522847 42.1772847,73 41.625,73 L2.375,73 C1.82271525,73 1.375,72.5522847 1.375,72 L1.375,70 L1.375,70 C1.375,53.4314575 10.609127,40 22,40 Z M41.625,7 C42.1772847,7 42.625,7.44771525 42.625,8 L42.625,8 L42.625,10 C42.625,26.5685425 33.390873,40 22,40 C10.609127,40 1.375,26.5685425 1.375,10 L1.375,10 L1.375,8 C1.375,7.44771525 1.82271525,7 2.375,7 L2.375,7 Z"/>
        <path fill="#EDDEFF" d="M22,40 C23.9297784,40 27.361121,39.0439853 29.5625,37 C33.3719323,33.4629337 36.4375,30 38.5,23 C39.875,18.3333333 40.5625,13 40.5625,7 C32.7708333,7 26.5833333,7 22,7 C15.4583333,7 8.91666667,7 2.375,7 C1.82271525,7 1.375,7.44771525 1.375,8 C1.375,8.66666667 1.375,9.33333333 1.375,10 C1.375,26.5685425 10.609127,40 22,40 Z"/>
        <g transform="translate(1.375 40)">
          <mask id="ils_timeout-e" fill="#fff">
            <use xlink:href="#ils_timeout-d"/>
          </mask>
          <use fill="#EDDEFF" transform="matrix(1 0 0 -1 0 33)" xlink:href="#ils_timeout-d"/>
          <path fill="#E3CCFE" d="M24.59672,17.4442019 C31.3727493,18.1514843 36.7136165,18.6766417 40.6193217,19.0196742 C42.7654662,19.2081669 44.9870271,19.3943769 47.2905379,19.5773596 C43.8848984,22.6044306 37.1820786,25.7846328 27.1820786,29.1179661 L24.59672,17.4442019 Z" mask="url(#ils_timeout-e)" opacity=".6" transform="rotate(-77 35.944 23.281)"/>
          <path fill="#331C6B" d="M33.8908446,32.9854019 C35.1691206,30.9638532 35.2406253,28.5193398 36.1506299,25.4308392 C37.5256299,20.7641725 38.2131299,15.4308392 38.2131299,9.43083919 C39.5306412,9.55475315 38.8159495,9.48463549 36.0690547,9.2204862 C34.3286223,12.2598251 33.6106189,18.5871561 33.3651232,21.8174291 C33.3559619,21.9379745 33.7404594,27.8886006 33.8908446,32.9854019 Z" mask="url(#ils_timeout-e)" transform="matrix(1 0 0 -1 0 42.206)"/>
          <path fill="#482998" d="M33.8314474,33 C35.1097234,30.9784513 36.2149954,28.5785118 37.125,25.4900112 C38.5,20.8233445 39.1875,15.4900112 39.1875,9.49001118 C37.1344185,9.49001118 35.6913093,9.49001118 34.8581723,9.49001118 C34.2636739,12.6573684 35.6133802,18.5035888 35.3138633,21.65165 C35.0143464,24.7997113 33.9654105,29.1470937 33.8314474,33 Z" mask="url(#ils_timeout-e)" transform="matrix(1 0 0 -1 0 42.49)"/>
          <path fill="#4F2DA7" d="M33.8314474,33 C35.1097234,30.9784513 36.2149954,28.5785118 37.125,25.4900112 C38.5,20.8233445 39.1875,15.4900112 39.1875,9.49001118 C37.4182103,9.49001118 36.1555383,9.49001118 35.3994841,9.49001118 C35.9128971,15.3555276 34.189108,16.7797997 33.1401721,21.1271821 C32.0912362,25.4745645 32.9910404,29.3720447 33.8314474,33 Z" mask="url(#ils_timeout-e)" transform="matrix(1 0 0 -1 0 42.49)"/>
          <path stroke="#F7FAFF" stroke-linecap="round" stroke-linejoin="round" d="M2.03364239,31.6284907 C1.13889317,27.5098057 1.53908472,22.812778 3.23421702,17.5374077 C4.92934932,12.2620373 7.12831362,8.66449175 9.83110993,6.74477109" mask="url(#ils_timeout-e)"/>
          <circle cx="11.5" cy="5.5" r="1" fill="#F7FAFF" mask="url(#ils_timeout-e)"/>
        </g>
        <g transform="translate(29.456 7)">
          <path fill="#331C6B" d="M2.39495073,27.7594261 C5.15348733,24.8612459 7.41266467,21.5372674 9.04418097,16 C10.419181,11.3333333 11.106681,6 11.106681,2.47975862e-10 C7.95576921,2.47975862e-10 5.67136951,2.47975862e-10 4.25348186,2.47975862e-10 C3.5500723,2.47975862e-10 1.04428607,1.13305651 0.791550618,6.16754029 C0.670831591,8.57226024 2.88942244,14.862305 2.43952033,16.8110452 C1.76466717,19.7341554 2.88439831,20.4503746 3.03855414,23.1071677 C3.19270996,25.7639608 2.36370097,26.0302779 2.39495073,27.7594261 Z"/>
          <path fill="#39188C" d="M2.39495073,27.7594261 C5.15348733,24.8612459 7.41266467,21.5372674 9.04418097,16 C10.419181,11.3333333 11.106681,6 11.106681,3.99859701e-10 C7.95576921,3.99859701e-10 5.67136951,3.99859701e-10 4.25348186,3.99859701e-10 C3.5500723,3.99859701e-10 4.49186422,3.98160085 4.23912877,9.01608464 C3.96863408,14.404332 2.52172137,20.9004049 2.28913513,21.9078465 C1.61428196,24.8309567 2.36370097,26.0302779 2.39495073,27.7594261 Z"/>
          <path fill="#4F2DA7" d="M3.09271444,27.0042133 C5.53589541,24.2755872 7.55240977,21.062981 9.04418097,16 C10.419181,11.3333333 11.106681,6 11.106681,-1.23812072e-12 C7.95576921,-1.23812072e-12 5.6713695,-1.23812072e-12 4.25348186,-1.23812072e-12 C3.09874108,-1.23812072e-12 1.99044879,-1.23812072e-12 0.928604983,-1.23812072e-12 C1.14574675,0.284851826 -0.257385294,1.82015793 0.0421316078,4.96821918 C0.34164851,8.11628042 1.94680932,10.6526175 2.66447139,15.8366751 C3.38213345,21.0207327 4.0129242,23.3321187 3.09271444,27.0042133 Z"/>
        </g>
      </g>
    </g>
    <g mask="url(#ils_timeout-b)">
      <g transform="translate(33 63)">
        <path stroke="url(#ils_timeout-f)" stroke-linecap="round" stroke-linejoin="round" stroke-width="2" d="M8.21666667,16 C9.32123617,16 10.2166667,15.1045695 10.2166667,14 C10.2166667,12.8954305 9.32123617,12 8.21666667,12 C7.480287,12 5.92473144,12 3.55,12" transform="rotate(90 6.883 14)"/>
        <path stroke="url(#ils_timeout-f)" stroke-linecap="round" stroke-linejoin="round" stroke-width="2" d="M3.71666667,10.5 C4.82123617,10.5 5.71666667,9.6045695 5.71666667,8.5 C5.71666667,7.3954305 4.82123617,6.5 3.71666667,6.5 C2.980287,6.5 1.42473144,6.5 -0.95,6.5" transform="matrix(0 1 1 0 -6.117 6.117)"/>
        <path stroke="url(#ils_timeout-g)" stroke-width="4" d="M4.9,2 C4.34771525,2 3.9,1.55228475 3.9,1 L3.9,25 C3.9,24.4477153 4.34771525,24 4.9,24 C5.45228475,24 5.9,24.4477153 5.9,25 L5.9,1 C5.9,1.55228475 5.45228475,2 4.9,2 Z"/>
      </g>
    </g>
    <g stroke-width="4" mask="url(#ils_timeout-b)">
      <g transform="translate(261 48)">
        <path stroke="url(#ils_timeout-h)" stroke-linecap="round" stroke-linejoin="round" d="M17.5,29 C19.9852814,29 22,26.9852814 22,24.5 C22,22.0147186 19.9852814,20 17.5,20 C15.8431458,20 12.3431458,20 7,20" transform="rotate(90 14.5 24.5)"/>
        <path stroke="url(#ils_timeout-h)" stroke-linecap="round" stroke-linejoin="round" d="M7.5,19 C9.98528137,19 12,16.9852814 12,14.5 C12,12.0147186 9.98528137,10 7.5,10 C5.84314575,10 2.34314575,10 -3,10" transform="matrix(0 1 1 0 -10 10)"/>
        <path stroke="url(#ils_timeout-i)" d="M8,38 L10,38 L10,3 C10,2.44771525 9.55228475,2 9,2 C8.44771525,2 8,2.44771525 8,3 L8,38 Z"/>
      </g>
    </g>
  </g>
</svg>
