<svg width="404" height="242" viewBox="0 0 404 242" fill="none" xmlns="http://www.w3.org/2000/svg">
<path d="M148.664 236.484C46.7735 230.542 -34.9389 122.539 19.2795 59.86C61.3295 11.2479 117.396 82.0055 169.689 46.3568C250.139 -8.48778 380.477 -18.4595 397.728 50.6779C414.98 119.815 357.835 227.842 315.246 234.324C272.657 240.805 148.664 236.484 148.664 236.484Z" fill="#F6F6FE"/>
<path d="M364.067 239.997H40.3525C38.0154 239.997 36.1211 238.647 36.1211 236.982C36.1211 235.317 38.0154 233.967 40.3525 233.967H364.067C366.405 233.967 368.299 235.317 368.299 236.982C368.299 238.647 366.405 239.997 364.067 239.997Z" fill="#F4F4F4"/>
<path fill-rule="evenodd" clip-rule="evenodd" d="M57.8009 180.711H124.705C125.579 180.711 126.555 179.995 126.873 179.119C127.191 178.243 126.736 177.526 125.862 177.526H58.9581C58.0838 177.526 57.1083 178.243 56.7901 179.119C56.4719 179.995 56.9269 180.711 57.8009 180.711ZM55.2298 187.788H122.134C123.008 187.788 123.984 187.071 124.302 186.195C124.62 185.32 124.166 184.603 123.291 184.603H56.387C55.5127 184.603 54.5372 185.32 54.219 186.195C53.9008 187.071 54.3558 187.788 55.2298 187.788Z" fill="#EEEAFF"/>
<path d="M335.299 217.47C335.299 216.344 348.819 178.905 339.678 154.803C333.278 137.927 332.267 117.676 332.267 117.676C332.267 117.676 319.803 135.564 328.225 162.904C333.408 179.731 335.524 184.392 335.973 189.343C336.422 194.293 333.951 219.045 333.951 219.045L335.299 217.47Z" fill="#E6E6FF"/>
<path d="M333.952 219.461C333.897 219.461 333.841 219.45 333.788 219.427C333.621 219.356 333.52 219.184 333.538 219.003C333.563 218.756 335.999 194.235 335.559 189.38C335.266 186.15 334.27 183.097 332.089 176.408C330.972 172.982 329.581 168.718 327.828 163.026C323.448 148.81 324.789 137.183 326.686 129.932C328.744 122.061 331.798 117.622 331.927 117.437C332.028 117.291 332.212 117.226 332.382 117.275C332.553 117.325 332.673 117.477 332.682 117.655C332.692 117.857 333.764 138.037 340.067 154.655C343.485 163.668 344.172 175.553 342.107 189.981C340.459 201.5 337.519 211.346 336.264 215.55C335.978 216.508 335.73 217.335 335.714 217.488C335.714 217.587 335.679 217.664 335.614 217.74L334.267 219.315C334.186 219.409 334.07 219.461 333.952 219.461ZM331.938 118.999C330.914 120.768 328.924 124.64 327.48 130.182C325.618 137.32 324.306 148.771 328.622 162.781C330.373 168.466 331.762 172.726 332.879 176.15C335.08 182.9 336.085 185.981 336.387 189.305C336.78 193.636 335.002 212.536 334.494 217.77L334.905 217.29C334.953 217.043 335.098 216.549 335.468 215.311C343.276 189.158 344.562 168.85 339.29 154.951C333.867 140.654 332.29 123.758 331.938 118.999Z" fill="#DADAFC"/>
<path d="M338.218 221.295C336.197 179.667 346.079 156.941 366.291 138.94C386.504 120.939 387.402 116.214 387.402 116.214C387.402 116.214 384.258 151.316 372.58 163.467C360.901 175.617 343.833 184.618 341.363 190.918C338.892 197.219 339.79 218.37 339.79 218.37L338.218 222.195V221.295Z" fill="#E6E6FF"/>
<path d="M335.748 224.895C335.524 224.22 340.015 185.968 356.41 183.717C372.805 181.467 376.622 185.292 387.851 183.492C395.862 182.208 402 179.667 402 179.667C402 179.667 397.747 190.512 383.135 194.968C372.805 198.118 359.33 192.943 351.469 194.293C343.609 195.643 339.566 212.519 339.566 212.519L338.219 221.295L335.748 224.895Z" fill="#E6E6FF"/>
<path d="M337.994 219.236C337.782 219.236 337.601 219.074 337.581 218.858C337.556 218.589 335.23 191.716 346.615 171.14C352.495 160.512 358.916 154.352 365.126 148.396C370.911 142.847 376.375 137.605 380.518 129.303C380.621 129.097 380.87 129.014 381.076 129.117C381.281 129.219 381.364 129.469 381.262 129.675C377.054 138.106 371.539 143.396 365.701 148.997C359.535 154.91 353.161 161.026 347.341 171.543C336.083 191.89 338.384 218.515 338.408 218.781C338.429 219.01 338.261 219.213 338.032 219.234C338.02 219.235 338.007 219.236 337.994 219.236Z" fill="#DADAFC"/>
<path d="M336.871 213.835C336.833 213.835 336.794 213.83 336.755 213.819C336.535 213.755 336.408 213.524 336.472 213.303C340.771 198.457 345.705 189.795 351.999 186.044C357.626 182.69 363.441 183.72 369.598 184.809C371.105 185.076 372.664 185.352 374.206 185.555C387.585 187.313 394.11 184.055 394.174 184.022C394.378 183.917 394.629 183.998 394.733 184.202C394.839 184.406 394.759 184.656 394.556 184.762C394.285 184.903 387.77 188.177 374.098 186.38C372.537 186.175 370.97 185.898 369.453 185.629C363.454 184.567 357.786 183.564 352.423 186.76C346.322 190.396 341.507 198.905 337.27 213.535C337.217 213.717 337.051 213.835 336.871 213.835Z" fill="#DADAFC"/>
<path d="M358.319 156.119C358.194 156.119 358.071 156.064 357.989 155.957C357.849 155.776 357.883 155.514 358.064 155.374C358.144 155.312 366.131 149.213 377.217 147.081C377.442 147.039 377.66 147.186 377.703 147.412C377.747 147.637 377.599 147.856 377.374 147.899C366.48 149.994 358.65 155.973 358.572 156.033C358.497 156.091 358.407 156.119 358.319 156.119Z" fill="#DADAFC"/>
<path d="M345.63 174.233C345.557 174.233 345.485 174.215 345.418 174.175C345.221 174.058 345.155 173.802 345.273 173.604C351.121 163.723 357.97 161.233 372.905 156.544C373.122 156.474 373.357 156.597 373.426 156.816C373.494 157.036 373.372 157.269 373.153 157.338C358.429 161.962 351.68 164.411 345.987 174.029C345.91 174.16 345.771 174.233 345.63 174.233Z" fill="#DADAFC"/>
<path d="M341.998 235.132H331.969C328.428 235.132 325.386 232.611 324.721 229.127L321.487 212.181H352.48L349.246 229.127C348.581 232.611 345.539 235.132 341.998 235.132Z" fill="#DAD9FF"/>
<path d="M351.694 216.502H322.498C322.039 216.502 321.667 216.129 321.667 215.67C321.667 215.21 322.039 214.837 322.498 214.837H351.694C352.153 214.837 352.525 215.21 352.525 215.67C352.525 216.129 352.152 216.502 351.694 216.502Z" fill="#C4C4EC"/>
<path d="M180.633 234.266C180.633 232.601 181.984 231.25 183.65 231.25H227.795C229.461 231.25 230.811 232.601 230.811 234.266H180.633Z" fill="#E2E2E2"/>
<path d="M195.687 210.135H215.758V231.25H195.687V210.135Z" fill="#EFEFEF"/>
<rect x="111.388" y="100.537" width="188.669" height="111.609" rx="6" fill="white"/>
<rect x="113.395" y="102.549" width="184.655" height="107.587" rx="4" fill="#EBE2FF"/>
<path d="M290.064 206.393H120.686C118.842 206.393 117.348 204.499 117.348 202.162V109.794C117.348 107.457 118.843 105.563 120.686 105.563H290.064C291.908 105.563 293.403 107.457 293.403 109.794V202.162C293.403 204.499 291.908 206.393 290.064 206.393Z" fill="#EBE2FF"/>
<path d="M285.893 200.642H124.858C123.369 200.642 122.162 199.013 122.162 197.003V130.146C122.162 128.137 123.369 126.508 124.858 126.508H285.893C287.382 126.508 288.589 128.137 288.589 130.146V197.003C288.589 199.013 287.382 200.642 285.893 200.642Z" fill="#F0EAFF"/>
<path d="M130.008 117.648H126.099C125.274 117.648 124.605 116.978 124.605 116.151V112.927C124.605 112.099 125.274 111.429 126.099 111.429H130.008C130.834 111.429 131.503 112.099 131.503 112.927V116.151C131.502 116.978 130.833 117.648 130.008 117.648Z" fill="white"/>
<path d="M142.549 117.648H138.641C137.815 117.648 137.146 116.978 137.146 116.151V112.927C137.146 112.099 137.815 111.429 138.641 111.429H142.549C143.374 111.429 144.044 112.099 144.044 112.927V116.151C144.043 116.978 143.374 117.648 142.549 117.648Z" fill="white"/>
<path d="M155.087 117.648H151.179C150.353 117.648 149.684 116.978 149.684 116.151V112.927C149.684 112.099 150.354 111.429 151.179 111.429H155.087C155.913 111.429 156.582 112.099 156.582 112.927V116.151C156.583 116.978 155.913 117.648 155.087 117.648Z" fill="white"/>
<path d="M281.818 138.567H193.785C192.338 138.567 191.152 137.38 191.152 135.929C191.152 134.478 192.338 133.29 193.785 133.29H281.818C283.266 133.29 284.451 134.478 284.451 135.929C284.451 137.38 283.266 138.567 281.818 138.567Z" fill="#D1C1F9"/>
<path d="M215.605 179.277H127.574C126.125 179.277 124.94 178.089 124.94 176.639C124.94 175.188 126.125 174 127.574 174H215.605C217.054 174 218.239 175.188 218.239 176.639C218.239 178.09 217.054 179.277 215.605 179.277Z" fill="#DDD0FF"/>
<path d="M231.821 179.277H222.713C222.217 179.277 221.812 178.871 221.812 178.375V174.902C221.812 174.406 222.218 174 222.713 174H231.821C232.316 174 232.721 174.406 232.721 174.902V178.375C232.721 178.872 232.316 179.277 231.821 179.277Z" fill="#DDD0FF"/>
<path d="M245.553 179.277H236.445C235.949 179.277 235.545 178.871 235.545 178.375V174.902C235.545 174.406 235.95 174 236.445 174H245.553C246.049 174 246.454 174.406 246.454 174.902V178.375C246.454 178.872 246.049 179.277 245.553 179.277Z" fill="#DDD0FF"/>
<path d="M282.663 150.064H136.884C135.902 150.064 135.097 149.259 135.097 148.274C135.097 147.289 135.901 146.483 136.884 146.483H282.663C283.646 146.483 284.45 147.289 284.45 148.274C284.45 149.258 283.646 150.064 282.663 150.064Z" fill="#D1C1F9"/>
<path d="M282.663 157.791H136.884C135.902 157.791 135.097 156.986 135.097 156.001C135.097 155.016 135.901 154.21 136.884 154.21H282.663C283.646 154.21 284.45 155.016 284.45 156.001C284.45 156.986 283.646 157.791 282.663 157.791Z" fill="#D1C1F9"/>
<path d="M386.926 68.5919H286.347C283.768 68.5919 281.659 66.4784 281.659 63.8953V27.8915C281.659 25.3089 283.768 23.1954 286.347 23.1954H386.926C389.504 23.1954 391.613 25.3089 391.613 27.8915V63.8953C391.613 66.4784 389.504 68.5919 386.926 68.5919Z" fill="#FCFBFF"/>
<path d="M294.94 61.7427V86.7893L323.746 57.9274C323.746 57.9274 295.526 61.7427 294.94 61.7427Z" fill="#FCFBFF"/>
<path d="M381.952 64.0912H291.321C289.135 64.0912 287.347 62.2999 287.347 60.11V31.6774C287.347 29.4875 289.135 27.6962 291.321 27.6962H381.952C384.138 27.6962 385.926 29.4875 385.926 31.6774V60.11C385.926 62.2994 384.138 64.0912 381.952 64.0912Z" fill="#F3EDFF"/>
<path d="M341.031 36.6969H296.503C295.428 36.6969 294.55 35.8166 294.55 34.7403C294.55 33.6639 295.428 32.7831 296.503 32.7831H341.031C342.105 32.7831 342.984 33.6639 342.984 34.7403C342.984 35.8166 342.105 36.6969 341.031 36.6969Z" fill="#D1C1F9"/>
<path d="M378.224 44.1784H295.635C295.038 44.1784 294.55 43.6887 294.55 43.0905V43.0679C294.55 42.4696 295.038 41.9799 295.635 41.9799H378.224C378.82 41.9799 379.31 42.4696 379.31 43.0679V43.0905C379.31 43.6887 378.821 44.1784 378.224 44.1784Z" fill="#D1C1F9"/>
<path d="M378.224 48.4375H295.635C295.038 48.4375 294.55 47.9478 294.55 47.3496V47.3274C294.55 46.7287 295.038 46.2395 295.635 46.2395H378.224C378.82 46.2395 379.31 46.7292 379.31 47.3274V47.3496C379.31 47.9478 378.821 48.4375 378.224 48.4375Z" fill="#D1C1F9"/>
<path d="M361.153 62.5254H358.448C357.877 62.5254 357.414 62.0614 357.414 61.4888V59.2566C357.414 58.6845 357.877 58.22 358.448 58.22H361.153C361.725 58.22 362.188 58.684 362.188 59.2566V61.4888C362.188 62.0614 361.724 62.5254 361.153 62.5254Z" fill="#E0D3FF"/>
<path d="M369.834 62.5257H367.128C366.557 62.5257 366.094 62.0616 366.094 61.489V59.2569C366.094 58.6848 366.557 58.2202 367.128 58.2202H369.834C370.405 58.2202 370.868 58.6842 370.868 59.2569V61.489C370.868 62.0616 370.405 62.5257 369.834 62.5257Z" fill="#E0D3FF"/>
<path d="M378.514 62.5257H375.808C375.236 62.5257 374.773 62.0616 374.773 61.489V59.2569C374.773 58.6848 375.236 58.2202 375.808 58.2202H378.514C379.085 58.2202 379.548 58.6842 379.548 59.2569V61.489C379.548 62.0616 379.085 62.5257 378.514 62.5257Z" fill="#E0D3FF"/>
<path d="M98.4947 102.963H24.3241C23.6291 102.963 23.0657 102.399 23.0657 101.702V60.2875C23.0657 59.5907 23.6291 59.0261 24.3241 59.0261H98.4947C99.1901 59.0261 99.7536 59.5907 99.7536 60.2875V101.702C99.7531 102.399 99.1896 102.963 98.4947 102.963Z" fill="#FCFBFF"/>
<path d="M94.7239 98.5728H28.0951C27.3651 98.5728 26.7734 97.9796 26.7734 97.2481V64.7418C26.7734 64.0108 27.3651 63.4176 28.0951 63.4176H94.7239C95.454 63.4176 96.0455 64.0108 96.0455 64.7418V97.2481C96.0455 97.9796 95.454 98.5728 94.7239 98.5728Z" fill="#F3EDFF"/>
<path d="M61.409 93.1924C68.1327 93.1924 73.5833 87.7315 73.5833 80.995C73.5833 74.2586 68.1327 68.7975 61.409 68.7975C54.6854 68.7975 49.2349 74.2586 49.2349 80.995C49.2349 87.7315 54.6854 93.1924 61.409 93.1924Z" fill="white"/>
<path d="M66.5767 80.4339L62.7445 82.6505L58.9124 84.8671V80.4339V76.0003L62.7445 78.2179L66.5767 80.4339Z" fill="#E0D3FF"/>
</svg>
