<svg width="304" height="182" viewBox="0 0 304 182" fill="none" xmlns="http://www.w3.org/2000/svg">
<path d="M111.866 177.852C35.1958 173.383 -26.2907 92.1584 14.5073 45.0194C46.1489 8.45999 88.3375 61.6742 127.687 34.8641C188.224 -6.38248 286.299 -13.8819 299.281 38.1139C312.262 90.1096 269.262 171.352 237.215 176.227C205.167 181.101 111.866 177.852 111.866 177.852Z" fill="#F6F6FE"/>
<path d="M287.211 159.27H17.3069V165.529H287.211V159.27Z" fill="#F4F4F4"/>
<path d="M72.4989 182H65.8174L65.2253 165.529H73.0909L72.4989 182Z" fill="#F4F4F4"/>
<path d="M237.734 182H231.052L230.46 165.529H238.326L237.734 182Z" fill="#F4F4F4"/>
<path d="M72.8737 171.57H65.4425L65.2253 165.529H73.0909L72.8737 171.57Z" fill="#E7E7E7"/>
<path d="M238.109 171.57H230.677L230.46 165.529H238.326L238.109 171.57Z" fill="#E7E7E7"/>
<path d="M64.5705 153.739C66.1134 153.739 69.6839 153.538 72.1213 151.84C73.7262 150.721 74.5421 149.203 74.5421 147.326C74.5421 145.251 73.7035 143.622 72.0495 142.48C69.3765 140.636 65.5999 140.878 65.4392 140.888L65.7373 143.413C65.7637 143.416 68.2398 143.275 69.8023 144.362C70.7225 145.003 71.1882 146.001 71.1882 147.326C71.1882 148.482 70.7495 149.349 69.8483 149.975C67.8336 151.38 64.1325 151.194 64.0963 151.194L63.8208 153.719C63.8662 153.722 64.1386 153.739 64.5705 153.739Z" fill="#CECEF9"/>
<path d="M67.8015 135.832H43.262L46.8975 159.073H63.9844L67.8015 135.832Z" fill="#D9D9FF"/>
<path d="M55.649 130.735C57.1484 129.614 58.3747 128.444 59.5397 126.982C60.6557 125.525 61.6569 123.797 62.0882 121.642C62.5409 119.498 62.082 116.932 60.906 114.988C59.7465 113.031 58.1754 111.619 56.6079 110.481C56.3926 110.324 56.2386 110.204 56.0938 110.088L55.6398 109.73L54.7515 109.008C54.1723 108.523 53.6079 108.035 53.0883 107.542C52.0656 106.583 51.1012 105.506 50.811 104.799C50.6687 104.469 50.7902 104.304 50.9804 104.674C51.0577 104.843 51.1221 105.129 51.1294 105.335C51.1374 105.552 51.1227 105.69 51.1705 105.712C51.2153 105.781 51.5245 105.497 51.9356 105.196C52.354 104.88 52.8969 104.496 53.4889 104.093C56.1993 102.248 56.9005 98.5573 55.0545 95.8484C53.2092 93.1395 49.516 92.4387 46.8056 94.2836C46.435 94.5356 46.1019 94.8226 45.8074 95.1372L45.6872 95.269C45.0743 95.9318 44.4308 96.6382 43.7461 97.4947C43.0676 98.3709 42.3204 99.328 41.6382 100.837C40.9584 102.254 40.5155 104.581 41.04 106.54C41.5283 108.5 42.5013 109.761 43.3394 110.694C44.2032 111.619 45.0436 112.271 45.8596 112.842C46.6761 113.405 47.4786 113.9 48.2681 114.331C49.0595 114.772 49.8423 115.166 50.6221 115.543L52.8852 116.587C54.0527 117.122 55.0509 117.772 55.714 118.481C56.3576 119.195 56.7294 119.942 56.7643 120.999C56.8183 123.124 55.2441 126.001 53.4104 128.109L53.3116 128.223C52.6859 128.942 52.7625 130.032 53.4816 130.656C54.1067 131.198 55.0122 131.211 55.649 130.735Z" fill="#F3EDFF"/>
<path d="M203.372 145.395H101.304C97.0034 145.395 93.5176 141.911 93.5176 137.613V133.516H211.159V137.613C211.159 141.911 207.672 145.395 203.372 145.395Z" fill="#F3EDFF"/>
<path d="M164.644 145.396H140.5V155.79H164.644V145.396Z" fill="#DAD1EF"/>
<path d="M211.159 133.709H93.5176V70.4442C93.5176 67.4373 95.9562 65 98.9647 65H205.711C208.72 65 211.158 67.4373 211.158 70.4442V133.709H211.159Z" fill="#DED5F7"/>
<path d="M207.115 69.9431H98.2966V129.466H207.115V69.9431Z" fill="#F0EAFF"/>
<path d="M176.081 83.6339C178.134 83.6339 179.955 84.0475 181.544 84.8748C183.167 85.7021 184.425 86.8603 185.319 88.3494C186.246 89.8384 186.709 91.5757 186.709 93.5612C186.709 100.543 182.488 104.067 174.045 104.134L173.946 110.487H172.059L171.91 102.446H172.903C176.446 102.446 179.276 101.834 181.395 100.609C183.514 99.3851 184.574 97.0357 184.574 93.5612C184.574 91.1124 183.796 89.1601 182.24 87.7041C180.684 86.2481 178.647 85.5201 176.131 85.5201C173.582 85.5201 171.545 86.215 170.022 87.6048C168.533 88.9946 167.788 90.8643 167.788 93.2137H165.652C165.652 91.2613 166.099 89.5572 166.993 88.1012C167.887 86.6452 169.129 85.5366 170.718 84.7755C172.307 84.0145 174.095 83.6339 176.081 83.6339ZM173.002 118.975C172.439 118.975 171.976 118.793 171.612 118.429C171.248 118.065 171.065 117.602 171.065 117.039C171.065 116.477 171.248 116.013 171.612 115.649C171.976 115.285 172.439 115.103 173.002 115.103C173.532 115.103 173.979 115.285 174.343 115.649C174.707 116.013 174.889 116.477 174.889 117.039C174.889 117.602 174.707 118.065 174.343 118.429C173.979 118.793 173.532 118.975 173.002 118.975Z" fill="#D1C1F9"/>
<path d="M154.995 138.924C154.995 140.391 153.806 141.58 152.338 141.58C150.871 141.58 149.681 140.391 149.681 138.924C149.681 137.458 150.871 136.269 152.338 136.269C153.806 136.268 154.995 137.457 154.995 138.924Z" fill="white"/>
<path d="M174.972 159.269H129.732C129.732 157.348 131.291 155.79 133.214 155.79H171.49C173.413 155.79 174.972 157.348 174.972 159.269Z" fill="#EBE2FF"/>
<path d="M139.816 123.48H108.319C107.111 123.48 106.131 122.501 106.131 121.293V99.7192C106.131 98.5113 107.111 97.5321 108.319 97.5321H139.816C141.024 97.5321 142.004 98.5113 142.004 99.7192V121.293C142.004 122.501 141.024 123.48 139.816 123.48Z" fill="#E9E0FF"/>
<path d="M137.152 115.893H110.954C110.544 115.893 110.212 115.561 110.212 115.151V115.08C110.212 114.671 110.544 114.339 110.954 114.339H137.152C137.561 114.339 137.893 114.671 137.893 115.08V115.151C137.894 115.561 137.562 115.893 137.152 115.893Z" fill="#F0EAFF"/>
<path d="M125.886 119.539H110.954C110.544 119.539 110.212 119.207 110.212 118.797V118.726C110.212 118.317 110.544 117.985 110.954 117.985H125.886C126.296 117.985 126.628 118.317 126.628 118.726V118.797C126.628 119.207 126.296 119.539 125.886 119.539Z" fill="#F0EAFF"/>
<path d="M117.711 108.94C119.636 107.015 119.636 103.895 117.711 101.97C115.785 100.045 112.663 100.045 110.737 101.97C108.811 103.895 108.811 107.015 110.737 108.94C112.663 110.865 115.785 110.865 117.711 108.94Z" fill="#F0EAFF"/>
<path d="M126.628 84.052H107.175C106.766 84.052 106.434 83.7201 106.434 83.3109V83.2404C106.434 82.8312 106.766 82.4993 107.175 82.4993H126.628C127.037 82.4993 127.369 82.8312 127.369 83.2404V83.3109C127.369 83.7201 127.037 84.052 126.628 84.052Z" fill="#EBE2FF"/>
<path d="M134.555 93.828H107.175C106.766 93.828 106.434 93.4961 106.434 93.0869V93.0158C106.434 92.6066 106.766 92.2747 107.175 92.2747H134.555C134.964 92.2747 135.296 92.6066 135.296 93.0158V93.0869C135.296 93.4961 134.964 93.828 134.555 93.828Z" fill="#EBE2FF"/>
<path d="M141.068 88.9191H107.175C106.766 88.9191 106.434 88.5872 106.434 88.178V88.1068C106.434 87.6976 106.766 87.3657 107.175 87.3657H141.068C141.477 87.3657 141.809 87.6976 141.809 88.1068V88.178C141.809 88.5872 141.477 88.9191 141.068 88.9191Z" fill="#EBE2FF"/>
<path d="M227.748 131.363C224.929 131.363 222.644 133.647 222.644 136.465C222.644 139.283 224.929 141.567 227.748 141.567H277.55V139.156H228.591C227.104 139.156 225.899 137.951 225.899 136.465C225.899 134.979 227.104 133.774 228.591 133.774H277.55V131.363H227.748Z" fill="#E5E5FF"/>
<path d="M225.899 136.465C225.899 137.952 227.104 139.157 228.592 139.157H275.254V133.774H228.592C227.104 133.774 225.899 134.979 225.899 136.465Z" fill="#F6F6FE"/>
<path d="M228.483 141.61C223.713 141.61 219.846 145.475 219.846 150.243C219.846 155.011 223.713 158.876 228.483 158.876H272.523V155.694H229.029C226.03 155.694 223.599 153.264 223.599 150.267C223.599 147.27 226.03 144.84 229.029 144.84H272.523V141.61H228.483V141.61Z" fill="#D9D9FF"/>
<path d="M223.599 150.268C223.599 153.265 226.03 155.695 229.029 155.695H270.329V144.841H229.029C226.03 144.841 223.599 147.27 223.599 150.268Z" fill="#F0EAFF"/>
<path d="M231.451 148.454H236.354V153.865L233.902 152.391L231.451 153.865V148.454Z" fill="#E0D7F5"/>
<path d="M85.311 36.3955C88.6597 22.9886 80.5 9.40702 67.0858 6.06014C53.6715 2.71325 40.0825 10.8685 36.7338 24.2754C33.3851 37.6822 41.5448 51.2638 54.959 54.6107C68.3732 57.9576 81.9622 49.8024 85.311 36.3955Z" fill="#F0EAFF"/>
<path d="M61.0261 50.0757C71.9331 50.0757 80.7749 41.2387 80.7749 30.3377C80.7749 19.4367 71.9331 10.5997 61.0261 10.5997C50.1192 10.5997 41.2773 19.4367 41.2773 30.3377C41.2773 41.2387 50.1192 50.0757 61.0261 50.0757Z" fill="#FAF8FF"/>
<path fill-rule="evenodd" clip-rule="evenodd" d="M61.026 15.7708C61.5327 15.7708 61.9434 16.1813 61.9434 16.6877V30.3377C61.9434 30.6522 61.7821 30.9448 61.516 31.1128L53.5082 36.1701C53.0799 36.4406 52.5132 36.3128 52.2426 35.8847C51.9719 35.4566 52.0997 34.8903 52.5281 34.6198L60.1086 29.8324V16.6877C60.1086 16.1813 60.5193 15.7708 61.026 15.7708Z" fill="#D1C1F9"/>
</svg>
