<svg width="480" height="330" viewBox="0 0 480 330" fill="none" xmlns="http://www.w3.org/2000/svg">
<mask id="mask0" mask-type="alpha" maskUnits="userSpaceOnUse" x="0" y="0" width="480" height="330">
<path d="M0 7.99999C0 3.58171 3.58172 0 8 0H480V330H7.99999C3.58171 330 0 326.418 0 322V7.99999Z" fill="white"/>
</mask>
<g mask="url(#mask0)">
<path opacity="0.14" d="M29.4352 300.693C29.4352 300.693 -29.5379 304.102 19.4625 307.792C62.9392 311.067 113.627 310.843 150.817 309.514C166.656 308.948 212.323 309.444 251.192 312.776C304.197 317.32 487.936 314.564 454.436 307.574C438.223 304.191 503.777 304.068 470.374 300.686L29.4352 300.693Z" fill="url(#paint0_linear)"/>
<path opacity="0.06" d="M29.4348 300.59C29.4348 300.59 -29.5383 232.548 19.4621 158.88C62.9389 93.5194 113.627 97.987 150.816 124.511C166.655 135.808 212.322 125.903 251.191 59.396C304.197 -31.3025 487.935 23.7056 454.435 163.249C438.222 230.779 503.776 233.233 470.374 300.733L29.4348 300.59Z" fill="#4F2DA6"/>
<path opacity="0.2" d="M182.824 95.0743L187.603 92.1791C188.665 91.5358 189.867 92.7526 189.238 93.8155L186.345 98.5988C186.122 98.9765 186.122 99.452 186.345 99.8296L189.238 104.613C189.881 105.676 188.665 106.879 187.603 106.249L182.824 103.354C182.446 103.13 181.971 103.13 181.594 103.354L176.814 106.249C175.752 106.893 174.55 105.676 175.179 104.613L178.072 99.8296C178.296 99.452 178.296 98.9765 178.072 98.5988L175.179 93.8155C174.536 92.7526 175.752 91.5497 176.814 92.1791L181.594 95.0743C181.971 95.2981 182.446 95.2981 182.824 95.0743Z" fill="#4F2DA6"/>
<path opacity="0.3" d="M280.046 30.1959L285.468 31.5386C286.67 31.8323 286.67 33.5526 285.468 33.8463L280.046 35.189C279.613 35.3009 279.291 35.6226 279.179 36.0562L277.838 41.4828C277.544 42.6856 275.825 42.6856 275.532 41.4828L274.19 36.0562C274.079 35.6226 273.757 35.3009 273.324 35.189L267.902 33.8463C266.7 33.5526 266.7 31.8323 267.902 31.5386L273.324 30.1959C273.757 30.084 274.079 29.7623 274.19 29.3288L275.532 23.9021C275.825 22.6993 277.544 22.6993 277.838 23.9021L279.179 29.3288C279.277 29.7623 279.613 30.098 280.046 30.1959Z" fill="#4F2DA6"/>
<path opacity="0.6" d="M416.424 169.537L417.85 169.887C418.171 169.971 418.171 170.419 417.85 170.488L416.424 170.838C416.313 170.866 416.229 170.95 416.201 171.062L415.851 172.489C415.767 172.81 415.32 172.81 415.25 172.489L414.901 171.062C414.873 170.95 414.789 170.866 414.677 170.838L413.252 170.488C412.931 170.405 412.931 169.957 413.252 169.887L414.677 169.537C414.789 169.509 414.873 169.426 414.901 169.314L415.25 167.887C415.334 167.565 415.781 167.565 415.851 167.887L416.201 169.314C416.229 169.426 416.313 169.509 416.424 169.537Z" fill="#4F2DA6"/>
<path d="M299.337 228.017L304.198 228.816C304.585 228.879 304.927 229.043 305.197 229.268C305.481 229.506 305.685 229.815 305.771 230.154C305.798 230.257 305.815 230.362 305.817 230.469C305.821 230.566 305.815 230.665 305.8 230.764L294.617 298.546C294.471 299.419 293.563 300.01 292.57 299.892C292.538 299.888 292.505 299.884 292.473 299.877L287.612 299.078C287.581 299.072 287.549 299.067 287.516 299.061C286.537 298.855 285.864 298.005 286.01 297.13L297.193 229.348C297.21 229.249 297.235 229.155 297.271 229.064C297.309 228.966 297.357 228.869 297.416 228.78C297.608 228.488 297.898 228.261 298.245 228.126C298.573 227.998 298.95 227.954 299.337 228.017Z" fill="#6AB799"/>
<path d="M300.579 262.409L294.587 298.723C294.458 299.503 293.56 300.014 292.567 299.892C292.536 299.888 292.502 299.884 292.471 299.877L287.61 299.078C287.578 299.072 287.546 299.067 287.513 299.061C286.533 298.859 285.849 298.087 285.977 297.307L291.234 265.453C293.852 265.361 297.554 264.753 300.579 262.409Z" fill="#85CFB3"/>
<path d="M296.116 235.971L295.988 236.741L304.594 238.164L304.722 237.394L296.116 235.971Z" fill="#67A29B"/>
<path d="M295.68 238.566L295.553 239.336L304.16 240.755L304.287 239.985L295.68 238.566Z" fill="#67A29B"/>
<path d="M295.158 241.718L295.03 242.488L303.636 243.909L303.763 243.139L295.158 241.718Z" fill="#67A29B"/>
<path d="M294.377 246.469L294.25 247.239L302.856 248.659L302.983 247.889L294.377 246.469Z" fill="#67A29B"/>
<path d="M293.532 251.528L293.405 252.298L302.012 253.718L302.139 252.948L293.532 251.528Z" fill="#67A29B"/>
<path d="M292.247 259.319L292.12 260.089L300.727 261.508L300.854 260.738L292.247 259.319Z" fill="#67A29B"/>
<path d="M291.057 266.614L290.929 267.384L299.535 268.807L299.662 268.037L291.057 266.614Z" fill="#67A29B"/>
<path d="M289.988 273.08L289.861 273.85L298.468 275.27L298.595 274.5L289.988 273.08Z" fill="#67A29B"/>
<path d="M296.513 233.469L296.386 234.239L304.993 235.658L305.12 234.888L296.513 233.469Z" fill="#67A29B"/>
<path d="M296.785 231.811L296.658 232.581L305.264 234.001L305.391 233.231L296.785 231.811Z" fill="#67A29B"/>
<path d="M297.044 230.245L296.918 231.015L305.524 232.434L305.651 231.664L297.044 230.245Z" fill="#67A29B"/>
<path d="M297.112 229.83L305.719 231.246L305.799 230.764C305.816 230.665 305.82 230.566 305.816 230.469L297.268 229.064C297.232 229.155 297.207 229.249 297.19 229.348L297.112 229.83Z" fill="#67A29B"/>
<path d="M297.415 228.78L305.77 230.154C305.684 229.817 305.48 229.508 305.196 229.268L298.242 228.124C297.899 228.261 297.607 228.488 297.415 228.78Z" fill="#67A29B"/>
<path d="M308.157 228.017L313.018 228.816C313.405 228.879 313.748 229.043 314.017 229.268C314.301 229.506 314.505 229.815 314.591 230.154C314.619 230.257 314.633 230.362 314.638 230.469C314.642 230.566 314.635 230.665 314.621 230.764L303.437 298.546C303.292 299.419 302.383 300.01 301.39 299.892C301.359 299.888 301.325 299.884 301.294 299.877L296.433 299.078C296.401 299.072 296.37 299.067 296.336 299.061C295.358 298.855 294.685 298.005 294.83 297.13L306.014 229.348C306.03 229.249 306.056 229.155 306.091 229.064C306.129 228.966 306.178 228.869 306.237 228.78C306.428 228.488 306.718 228.261 307.065 228.126C307.393 227.998 307.77 227.954 308.157 228.017Z" fill="#6AB799"/>
<path d="M309.4 262.409L303.407 298.723C303.279 299.503 302.381 300.014 301.388 299.892C301.356 299.888 301.323 299.884 301.291 299.877L296.43 299.078C296.398 299.072 296.367 299.067 296.333 299.061C295.353 298.859 294.669 298.087 294.798 297.307L300.054 265.453C302.673 265.361 306.373 264.753 309.4 262.409Z" fill="#85CFB3"/>
<path d="M304.936 235.97L304.809 236.74L313.415 238.163L313.542 237.393L304.936 235.97Z" fill="#67A69B"/>
<path d="M304.509 238.574L304.382 239.344L312.989 240.762L313.116 239.992L304.509 238.574Z" fill="#67A69B"/>
<path d="M303.977 241.717L303.85 242.487L312.456 243.908L312.583 243.138L303.977 241.717Z" fill="#67A69B"/>
<path d="M303.187 246.459L303.06 247.229L311.667 248.649L311.794 247.879L303.187 246.459Z" fill="#67A69B"/>
<path d="M302.352 251.529L302.225 252.299L310.832 253.719L310.959 252.949L302.352 251.529Z" fill="#67A69B"/>
<path d="M301.067 259.35L300.94 260.12L309.546 261.541L309.673 260.771L301.067 259.35Z" fill="#67A69B"/>
<path d="M299.869 266.572L299.742 267.342L308.348 268.762L308.475 267.992L299.869 266.572Z" fill="#67A69B"/>
<path d="M298.799 273.071L298.672 273.841L307.279 275.262L307.406 274.492L298.799 273.071Z" fill="#67A69B"/>
<path d="M305.334 233.501L305.207 234.271L313.813 235.692L313.94 234.922L305.334 233.501Z" fill="#67A69B"/>
<path d="M305.619 231.843L305.492 232.613L314.099 234.032L314.226 233.262L305.619 231.843Z" fill="#67A69B"/>
<path d="M305.864 230.247L305.737 231.016L314.344 232.435L314.471 231.665L305.864 230.247Z" fill="#67A69B"/>
<path d="M305.934 229.83L314.541 231.246L314.621 230.764C314.638 230.665 314.642 230.566 314.638 230.469L306.09 229.064C306.054 229.155 306.029 229.249 306.012 229.348L305.934 229.83Z" fill="#67A69B"/>
<path d="M306.237 228.78L314.591 230.154C314.505 229.817 314.301 229.508 314.017 229.268L307.063 228.124C306.718 228.261 306.426 228.488 306.237 228.78Z" fill="#67A69B"/>
<path d="M275.905 293.09L275.897 298.016C275.897 298.409 275.792 298.773 275.611 299.076C275.421 299.394 275.148 299.644 274.83 299.785C274.734 299.829 274.63 299.86 274.525 299.882C274.431 299.9 274.332 299.911 274.233 299.911L205.534 299.747C204.648 299.745 203.921 298.941 203.876 297.942C203.876 297.909 203.874 297.877 203.874 297.845L203.883 292.919C203.883 292.888 203.883 292.854 203.885 292.823C203.931 291.823 204.663 291.024 205.549 291.026L274.248 291.19C274.347 291.19 274.445 291.201 274.54 291.222C274.645 291.243 274.746 291.276 274.845 291.321C275.163 291.462 275.436 291.714 275.623 292.034C275.802 292.332 275.907 292.696 275.905 293.09Z" fill="#73D8C1"/>
<path d="M242.158 299.835L205.353 299.747C204.562 299.745 203.912 298.941 203.874 297.942C203.874 297.909 203.872 297.877 203.872 297.845L203.881 292.919C203.881 292.888 203.881 292.854 203.883 292.823C203.925 291.823 204.577 291.024 205.368 291.026L237.653 291.102C238.166 293.67 239.361 297.225 242.158 299.835Z" fill="#87D9B9"/>
<path d="M266.774 291.169L266.753 299.891L267.534 299.893L267.555 291.17L266.774 291.169Z" fill="#67A29B"/>
<path d="M264.131 291.163L264.111 299.886L264.891 299.888L264.912 291.165L264.131 291.163Z" fill="#67A29B"/>
<path d="M260.962 291.156L260.939 299.879L261.719 299.881L261.742 291.158L260.962 291.156Z" fill="#67A29B"/>
<path d="M256.103 291.143L256.083 299.866L256.863 299.868L256.883 291.145L256.103 291.143Z" fill="#67A29B"/>
<path d="M250.966 291.133L250.945 299.855L251.725 299.857L251.746 291.134L250.966 291.133Z" fill="#67A29B"/>
<path d="M243.089 291.113L243.069 299.836L243.849 299.838L243.87 291.115L243.089 291.113Z" fill="#67A29B"/>
<path d="M235.716 291.097L235.696 299.819L236.476 299.821L236.497 291.098L235.716 291.097Z" fill="#67A29B"/>
<path d="M229.132 291.08L229.109 299.802L229.89 299.805L229.912 291.082L229.132 291.08Z" fill="#67A29B"/>
<path d="M269.29 291.175L269.27 299.898L270.05 299.899L270.071 291.177L269.29 291.175Z" fill="#67A29B"/>
<path d="M270.949 291.179L270.93 299.902L271.711 299.904L271.729 291.181L270.949 291.179Z" fill="#67A29B"/>
<path d="M272.556 291.183L272.535 299.906L273.315 299.907L273.336 291.185L272.556 291.183Z" fill="#67A29B"/>
<path d="M273.76 291.186L273.744 299.909L274.231 299.911C274.332 299.911 274.429 299.9 274.524 299.882L274.541 291.22C274.446 291.199 274.347 291.188 274.248 291.188L273.76 291.186Z" fill="#67A29B"/>
<path d="M274.844 291.316L274.829 299.785C275.149 299.644 275.42 299.396 275.609 299.076L275.622 292.03C275.435 291.71 275.164 291.457 274.844 291.316Z" fill="#67A29B"/>
<path d="M268.577 284.348L268.569 289.274C268.569 289.667 268.463 290.031 268.283 290.334C268.093 290.652 267.82 290.902 267.502 291.043C267.405 291.087 267.302 291.119 267.197 291.14C267.103 291.159 267.004 291.169 266.905 291.169L198.206 291.005C197.32 291.003 196.592 290.199 196.548 289.2C196.548 289.167 196.546 289.135 196.546 289.104L196.555 284.177C196.555 284.146 196.555 284.112 196.557 284.081C196.603 283.082 197.335 282.282 198.22 282.284L266.92 282.448C266.964 282.448 267.008 282.451 267.05 282.455C267.069 282.455 267.088 282.457 267.107 282.461C267.128 282.463 267.149 282.467 267.168 282.469C267.182 282.472 267.197 282.476 267.212 282.478C267.317 282.499 267.418 282.533 267.515 282.577C267.53 282.583 267.544 282.589 267.559 282.598C267.574 282.604 267.588 282.61 267.601 282.619C267.628 282.634 267.658 282.65 267.685 282.665C267.7 282.676 267.717 282.686 267.734 282.697C267.748 282.705 267.761 282.713 267.776 282.726C267.803 282.743 267.828 282.762 267.853 282.783C267.883 282.806 267.91 282.831 267.94 282.857C267.961 282.875 267.984 282.896 268.005 282.917C268.005 282.917 268.007 282.92 268.009 282.922C268.024 282.936 268.036 282.951 268.051 282.966C268.093 283.01 268.133 283.058 268.171 283.107C268.184 283.122 268.194 283.136 268.205 283.151C268.215 283.166 268.226 283.18 268.236 283.197C268.257 283.229 268.278 283.26 268.297 283.294C268.474 283.593 268.577 283.957 268.577 284.348Z" fill="#73D8C1"/>
<path d="M234.83 291.093L198.025 291.005C197.234 291.003 196.584 290.2 196.546 289.2C196.546 289.167 196.544 289.135 196.544 289.104L196.552 284.177C196.552 284.146 196.552 284.112 196.555 284.081C196.597 283.082 197.249 282.282 198.04 282.282L230.323 282.36C230.337 282.432 230.352 282.503 230.367 282.575C230.905 285.124 232.108 288.555 234.83 291.093Z" fill="#87D9B9"/>
<path d="M259.442 282.428L259.422 291.151L260.202 291.153L260.223 282.43L259.442 282.428Z" fill="#67A29B"/>
<path d="M256.8 282.421L256.779 291.144L257.56 291.146L257.58 282.423L256.8 282.421Z" fill="#67A29B"/>
<path d="M253.63 282.414L253.609 291.137L254.389 291.138L254.41 282.416L253.63 282.414Z" fill="#67A29B"/>
<path d="M248.773 282.403L248.752 291.126L249.532 291.128L249.553 282.405L248.773 282.403Z" fill="#67A29B"/>
<path d="M243.633 282.391L243.615 291.113L244.395 291.115L244.413 282.392L243.633 282.391Z" fill="#67A29B"/>
<path d="M235.76 282.371L235.737 291.094L236.518 291.096L236.541 282.373L235.76 282.371Z" fill="#67A29B"/>
<path d="M228.387 282.354L228.366 291.077L229.146 291.079L229.167 282.356L228.387 282.354Z" fill="#67A29B"/>
<path d="M221.799 282.34L221.781 291.063L222.561 291.065L222.579 282.342L221.799 282.34Z" fill="#67A29B"/>
<path d="M261.959 282.435L261.939 291.157L262.719 291.159L262.74 282.436L261.959 282.435Z" fill="#67A29B"/>
<path d="M263.621 282.439L263.601 291.162L264.381 291.163L264.401 282.441L263.621 282.439Z" fill="#67A29B"/>
<path d="M265.226 282.443L265.205 291.165L265.986 291.167L266.006 282.445L265.226 282.443Z" fill="#67A29B"/>
<path d="M266.429 282.444L266.412 291.167H266.9C267.001 291.167 267.098 291.157 267.192 291.138L267.209 282.476C267.115 282.455 267.016 282.444 266.917 282.444H266.429Z" fill="#67A29B"/>
<path d="M267.515 282.575L267.5 291.041C267.82 290.9 268.092 290.652 268.281 290.332L268.293 283.286C268.106 282.968 267.833 282.718 267.515 282.575Z" fill="#67A29B"/>
<path d="M272.142 275.848L272.134 280.774C272.134 281.168 272.029 281.531 271.848 281.834C271.658 282.152 271.385 282.404 271.067 282.543C270.971 282.587 270.868 282.619 270.762 282.64C270.666 282.659 270.569 282.669 270.47 282.669L201.769 282.507C201.493 282.507 201.233 282.427 201.003 282.291C200.517 281.998 200.17 281.439 200.118 280.787C200.116 280.759 200.114 280.73 200.112 280.703C200.112 280.671 200.109 280.637 200.109 280.606L200.118 275.68C200.118 275.648 200.118 275.615 200.12 275.583C200.166 274.584 200.898 273.785 201.784 273.787L270.483 273.949C270.584 273.949 270.68 273.959 270.775 273.98C270.88 274.001 270.981 274.035 271.08 274.079C271.398 274.22 271.669 274.472 271.858 274.792C272.037 275.093 272.142 275.457 272.142 275.848Z" fill="#85CFB3"/>
<path d="M238.395 282.594L201.59 282.505C201.343 282.505 201.11 282.425 200.906 282.289C200.473 281.996 200.163 281.439 200.115 280.787C200.113 280.759 200.111 280.73 200.109 280.703C200.109 280.671 200.107 280.638 200.107 280.606L200.115 275.68C200.115 275.648 200.115 275.615 200.117 275.583C200.159 274.584 200.811 273.785 201.602 273.787L233.887 273.862C234.384 276.361 235.528 279.792 238.165 282.381C238.243 282.451 238.317 282.522 238.395 282.594Z" fill="#87D9B9"/>
<path d="M273.802 267.129L273.793 272.056C273.793 272.449 273.688 272.813 273.507 273.116C273.318 273.433 273.045 273.686 272.727 273.825C272.63 273.869 272.527 273.9 272.422 273.921C272.325 273.94 272.228 273.951 272.13 273.951L203.43 273.787C202.545 273.785 201.817 272.981 201.773 271.982C201.773 271.948 201.771 271.917 201.771 271.885L201.779 266.959C201.779 266.928 201.779 266.894 201.781 266.862C201.824 265.937 202.452 265.184 203.247 265.079C203.313 265.07 203.378 265.066 203.445 265.066L272.144 265.23C272.245 265.23 272.342 265.241 272.437 265.262C272.542 265.283 272.643 265.316 272.742 265.361C273.059 265.501 273.333 265.754 273.52 266.074C273.699 266.372 273.804 266.736 273.802 267.129Z" fill="#85CFB3"/>
<path d="M240.057 273.875L203.252 273.787C202.461 273.785 201.811 272.981 201.773 271.982C201.773 271.948 201.771 271.917 201.771 271.885L201.779 266.959C201.779 266.928 201.779 266.894 201.781 266.862C201.819 265.939 202.381 265.184 203.092 265.079C203.149 265.07 203.208 265.066 203.266 265.066L235.551 265.142C235.551 265.146 235.554 265.152 235.554 265.156C236.067 267.721 237.264 271.267 240.057 273.875Z" fill="#87D9B9"/>
<path d="M268.768 258.407L268.759 263.333C268.759 263.726 268.654 264.09 268.473 264.393C268.284 264.711 268.011 264.961 267.693 265.102C267.596 265.146 267.493 265.178 267.388 265.199C267.356 265.205 267.323 265.211 267.291 265.215C267.274 265.218 267.256 265.22 267.237 265.222C267.22 265.224 267.201 265.226 267.182 265.226C267.152 265.228 267.123 265.228 267.094 265.228L198.395 265.064C197.509 265.062 196.781 264.258 196.737 263.259C196.737 263.228 196.735 263.194 196.735 263.163L196.743 258.236C196.743 258.203 196.743 258.171 196.746 258.14C196.746 258.112 196.748 258.087 196.75 258.06C196.817 257.256 197.33 256.594 197.999 256.4C198.016 256.394 198.033 256.392 198.05 256.385C198.165 256.356 198.285 256.341 198.409 256.341L267.108 256.505C267.159 256.505 267.209 256.509 267.258 256.514C267.281 256.518 267.302 256.52 267.325 256.522C267.35 256.526 267.375 256.533 267.403 256.537C267.508 256.558 267.609 256.591 267.708 256.636C268.025 256.777 268.299 257.029 268.486 257.349C268.665 257.65 268.768 258.016 268.768 258.407Z" fill="#85CFB3"/>
<path d="M235.021 265.152L198.216 265.064C197.425 265.062 196.775 264.258 196.737 263.259C196.737 263.228 196.735 263.194 196.735 263.163L196.743 258.236C196.743 258.203 196.743 258.171 196.746 258.14C196.746 258.112 196.748 258.087 196.75 258.06C196.811 257.237 197.288 256.566 197.905 256.387C197.926 256.379 197.947 256.375 197.968 256.371C198.054 256.352 198.14 256.341 198.231 256.341L230.516 256.417C230.52 256.438 230.524 256.457 230.528 256.478C231.046 259.038 232.24 262.548 235.004 265.138C235.011 265.142 235.017 265.148 235.021 265.152Z" fill="#87D9B9"/>
<path d="M268.64 249.745L268.632 254.671C268.632 255.064 268.527 255.428 268.346 255.731C268.156 256.051 267.883 256.299 267.563 256.44C267.488 256.474 267.408 256.501 267.326 256.522H267.324C267.3 256.528 267.279 256.533 267.258 256.537C267.164 256.556 267.065 256.566 266.966 256.566L198.267 256.404C198.195 256.404 198.122 256.398 198.052 256.387C198.025 256.385 197.998 256.379 197.97 256.373C197.224 256.217 196.647 255.485 196.61 254.6C196.61 254.566 196.607 254.534 196.607 254.503L196.616 249.577C196.616 249.543 196.616 249.511 196.618 249.48C196.664 248.481 197.396 247.681 198.282 247.684L266.981 247.848C267.025 247.848 267.069 247.85 267.111 247.854C267.13 247.856 267.149 247.858 267.168 247.86C267.189 247.862 267.21 247.867 267.229 247.871C267.244 247.873 267.258 247.877 267.273 247.879C267.378 247.9 267.479 247.934 267.578 247.978C267.593 247.984 267.605 247.991 267.622 247.999C267.637 248.005 267.65 248.012 267.664 248.02C267.692 248.035 267.721 248.052 267.748 248.066C267.778 248.085 267.809 248.104 267.839 248.125C267.866 248.144 267.891 248.163 267.917 248.182C267.946 248.205 267.974 248.231 268.001 248.256C268.024 248.275 268.045 248.294 268.066 248.317C268.066 248.317 268.068 248.319 268.07 248.321C268.085 248.334 268.1 248.35 268.112 248.365C268.154 248.409 268.194 248.458 268.232 248.506C268.245 248.521 268.255 248.535 268.266 248.55C268.276 248.567 268.287 248.58 268.297 248.596C268.318 248.628 268.339 248.66 268.358 248.693C268.537 248.988 268.64 249.354 268.64 249.745Z" fill="#85CFB3"/>
<path d="M234.894 256.491L198.088 256.402C198.059 256.402 198.03 256.4 198 256.398C197.969 256.396 197.937 256.392 197.905 256.385C197.199 256.272 196.643 255.517 196.608 254.595C196.608 254.562 196.606 254.53 196.606 254.499L196.614 249.572C196.614 249.539 196.614 249.507 196.616 249.476C196.658 248.477 197.31 247.677 198.101 247.677L230.384 247.753C230.399 247.825 230.413 247.896 230.428 247.968C230.958 250.496 232.147 253.893 234.822 256.425C234.849 256.448 234.87 256.469 234.894 256.491Z" fill="#87D9B9"/>
<path d="M272.205 241.245L272.197 246.171C272.197 246.565 272.092 246.928 271.911 247.231C271.722 247.549 271.448 247.799 271.131 247.94C271.034 247.984 270.931 248.016 270.826 248.037C270.731 248.056 270.632 248.066 270.533 248.066L201.834 247.902C201.559 247.902 201.298 247.822 201.069 247.686C200.583 247.393 200.238 246.834 200.183 246.182C200.181 246.154 200.179 246.125 200.177 246.098C200.177 246.066 200.175 246.032 200.175 246.001L200.183 241.075C200.183 241.043 200.185 241.01 200.185 240.978C200.231 239.979 200.963 239.18 201.849 239.182L270.548 239.344C270.649 239.344 270.746 239.354 270.84 239.375C270.945 239.396 271.046 239.43 271.145 239.474C271.463 239.615 271.736 239.867 271.924 240.187C272.1 240.488 272.205 240.854 272.205 241.245Z" fill="#85CFB3"/>
<path d="M238.457 247.991L201.652 247.904C201.406 247.904 201.175 247.825 200.968 247.688C200.535 247.395 200.226 246.838 200.177 246.186C200.175 246.159 200.173 246.129 200.171 246.102C200.171 246.07 200.169 246.037 200.169 246.005L200.177 241.079C200.177 241.047 200.18 241.014 200.18 240.982C200.222 239.983 200.876 239.184 201.665 239.184L233.95 239.259C234.446 241.758 235.59 245.191 238.228 247.778C238.308 247.848 238.381 247.919 238.457 247.991Z" fill="#87D9B9"/>
<path d="M277.834 232.535L277.826 237.461C277.826 237.854 277.72 238.218 277.54 238.521C277.35 238.839 277.077 239.089 276.759 239.23C276.662 239.274 276.559 239.306 276.454 239.327C276.36 239.346 276.261 239.356 276.162 239.356L207.463 239.192C206.577 239.19 205.849 238.387 205.805 237.387C205.805 237.356 205.803 237.322 205.803 237.291L205.812 232.365C205.812 232.333 205.812 232.299 205.814 232.268C205.856 231.344 206.485 230.589 207.28 230.484C207.345 230.476 207.41 230.471 207.475 230.471L276.174 230.636C276.275 230.636 276.372 230.646 276.467 230.667C276.572 230.688 276.673 230.722 276.77 230.766C277.087 230.907 277.361 231.159 277.548 231.479C277.731 231.778 277.834 232.144 277.834 232.535Z" fill="#85CFB3"/>
<path d="M244.086 239.28L207.281 239.192C206.49 239.19 205.84 238.387 205.803 237.387C205.803 237.356 205.8 237.322 205.8 237.291L205.809 232.365C205.809 232.333 205.809 232.299 205.811 232.268C205.849 231.344 206.41 230.589 207.121 230.484C207.178 230.476 207.237 230.471 207.296 230.471L239.581 230.547C239.581 230.551 239.583 230.556 239.583 230.562C240.098 233.128 241.293 236.674 244.086 239.28Z" fill="#87D9B9"/>
<path d="M268.832 223.804L268.824 228.73C268.824 229.123 268.718 229.487 268.538 229.79C268.348 230.108 268.075 230.358 267.757 230.499C267.66 230.543 267.557 230.575 267.452 230.596C267.421 230.602 267.387 230.608 267.355 230.612C267.33 230.617 267.303 230.619 267.278 230.621C267.265 230.621 267.252 230.623 267.24 230.625C267.212 230.625 267.187 230.627 267.16 230.627L198.461 230.463C197.575 230.461 196.848 229.657 196.803 228.658C196.803 228.627 196.801 228.593 196.801 228.562L196.81 223.635C196.81 223.604 196.812 223.57 196.812 223.539C196.858 222.54 197.59 221.74 198.476 221.742L267.175 221.906C267.204 221.906 267.234 221.906 267.263 221.911C267.332 221.915 267.402 221.925 267.467 221.938C267.572 221.959 267.673 221.993 267.772 222.037C267.822 222.06 267.871 222.083 267.915 222.11C267.944 222.127 267.974 222.144 268.001 222.163C268.003 222.163 268.008 222.165 268.01 222.169C268.037 222.188 268.066 222.209 268.094 222.23C268.1 222.232 268.104 222.237 268.108 222.241C268.134 222.26 268.159 222.281 268.182 222.302C268.241 222.352 268.296 222.407 268.348 222.468C268.365 222.485 268.38 222.504 268.395 222.523C268.397 222.525 268.401 222.529 268.403 222.533C268.413 222.544 268.422 222.556 268.432 222.569C268.435 222.571 268.437 222.573 268.439 222.577C268.456 222.598 268.472 222.622 268.487 222.647C268.51 222.681 268.531 222.714 268.552 222.75C268.729 223.046 268.832 223.41 268.832 223.804Z" fill="#85CFB3"/>
<path d="M235.085 230.549L198.28 230.461C197.489 230.459 196.839 229.655 196.801 228.656C196.801 228.625 196.799 228.591 196.799 228.559L196.808 223.633C196.808 223.602 196.81 223.568 196.81 223.537C196.852 222.537 197.506 221.738 198.295 221.738L230.58 221.816C230.593 221.881 230.607 221.949 230.622 222.018C231.152 224.565 232.353 227.996 235.069 230.537C235.075 230.539 235.081 230.545 235.085 230.549Z" fill="#87D9B9"/>
<path d="M273.897 215.293L273.888 220.22C273.888 220.613 273.783 220.977 273.602 221.28C273.413 221.597 273.14 221.848 272.822 221.988C272.725 222.033 272.622 222.064 272.517 222.085C272.42 222.104 272.323 222.115 272.225 222.115L203.526 221.951C203.258 221.951 203.006 221.877 202.783 221.747C202.282 221.458 201.925 220.888 201.872 220.222C201.87 220.196 201.868 220.171 201.868 220.144C201.868 220.112 201.866 220.079 201.866 220.047L201.874 215.121C201.874 215.087 201.874 215.056 201.877 215.024C201.919 214.099 202.548 213.346 203.343 213.24C203.408 213.232 203.473 213.228 203.54 213.228L272.239 213.392C272.34 213.392 272.437 213.402 272.532 213.423C272.637 213.445 272.738 213.478 272.837 213.522C273.154 213.663 273.426 213.916 273.615 214.235C273.794 214.536 273.899 214.902 273.897 215.293Z" fill="#85CFB3"/>
<path d="M240.149 222.039L203.344 221.951C203.106 221.951 202.881 221.877 202.681 221.747C202.236 221.458 201.916 220.888 201.87 220.224C201.867 220.199 201.865 220.173 201.865 220.146C201.865 220.114 201.863 220.081 201.863 220.049L201.872 215.123C201.872 215.089 201.872 215.058 201.874 215.026C201.912 214.103 202.473 213.348 203.184 213.243C203.241 213.234 203.3 213.23 203.359 213.23L235.644 213.306C235.644 213.31 235.646 213.314 235.646 213.32C236.144 215.823 237.293 219.254 239.937 221.839C240.008 221.904 240.078 221.972 240.149 222.039Z" fill="#87D9B9"/>
<path d="M268.863 206.573L268.855 211.499C268.855 211.892 268.749 212.256 268.569 212.559C268.379 212.879 268.106 213.129 267.788 213.268C267.691 213.312 267.588 213.344 267.483 213.365C267.452 213.371 267.418 213.377 267.386 213.381C267.37 213.384 267.351 213.386 267.332 213.388C267.315 213.39 267.296 213.39 267.277 213.392C267.248 213.394 267.218 213.394 267.189 213.394L198.49 213.23C197.604 213.228 196.876 212.424 196.832 211.425C196.832 211.392 196.83 211.36 196.83 211.328L196.839 206.402C196.839 206.371 196.839 206.337 196.841 206.306C196.887 205.306 197.619 204.507 198.504 204.509L267.203 204.673C267.304 204.673 267.401 204.684 267.496 204.705C267.601 204.726 267.702 204.76 267.801 204.804C268.118 204.945 268.392 205.197 268.579 205.517C268.76 205.815 268.863 206.179 268.863 206.573Z" fill="#85CFB3"/>
<path d="M235.116 213.316L198.311 213.23C197.52 213.228 196.87 212.424 196.832 211.425C196.832 211.392 196.83 211.36 196.83 211.329L196.839 206.402C196.839 206.371 196.839 206.337 196.841 206.306C196.883 205.306 197.535 204.507 198.326 204.509L230.611 204.585C231.12 207.151 232.312 210.695 235.099 213.306C235.106 213.308 235.11 213.312 235.116 213.316Z" fill="#87D9B9"/>
<path d="M263.009 273.928L262.988 282.651L263.768 282.653L263.789 273.93L263.009 273.928Z" fill="#6AB799"/>
<path d="M260.365 273.921L260.347 282.644L261.127 282.646L261.146 273.923L260.365 273.921Z" fill="#6AB799"/>
<path d="M257.193 273.914L257.175 282.637L257.955 282.639L257.974 273.916L257.193 273.914Z" fill="#6AB799"/>
<path d="M252.339 273.903L252.318 282.626L253.098 282.628L253.119 273.905L252.339 273.903Z" fill="#6AB799"/>
<path d="M247.2 273.89L247.18 282.613L247.96 282.615L247.981 273.892L247.2 273.89Z" fill="#6AB799"/>
<path d="M239.325 273.873L239.304 282.596L240.084 282.598L240.105 273.875L239.325 273.873Z" fill="#6AB799"/>
<path d="M231.95 273.854L231.932 282.577L232.712 282.579L232.731 273.856L231.95 273.854Z" fill="#6AB799"/>
<path d="M225.368 273.84L225.347 282.563L226.128 282.565L226.149 273.842L225.368 273.84Z" fill="#6AB799"/>
<path d="M265.525 273.934L265.504 282.657L266.284 282.659L266.305 273.936L265.525 273.934Z" fill="#6AB799"/>
<path d="M267.185 273.939L267.167 282.662L267.947 282.664L267.965 273.941L267.185 273.939Z" fill="#6AB799"/>
<path d="M268.79 273.942L268.769 282.665L269.55 282.667L269.57 273.944L268.79 273.942Z" fill="#6AB799"/>
<path d="M269.995 273.945L269.98 282.667L270.468 282.669C270.569 282.669 270.666 282.659 270.76 282.64L270.777 273.978C270.682 273.957 270.583 273.947 270.485 273.947L269.995 273.945Z" fill="#6AB799"/>
<path d="M271.081 274.075L271.066 282.543C271.386 282.402 271.657 282.154 271.847 281.834L271.859 274.788C271.67 274.468 271.399 274.216 271.081 274.075Z" fill="#6AB799"/>
<path d="M240.987 265.153L240.967 273.876L241.747 273.878L241.768 265.155L240.987 265.153Z" fill="#6AB799"/>
<path d="M233.611 265.134L233.591 273.857L234.371 273.859L234.392 265.136L233.611 265.134Z" fill="#6AB799"/>
<path d="M227.029 265.12L227.008 273.843L227.788 273.845L227.809 265.122L227.029 265.12Z" fill="#6AB799"/>
<path d="M267.947 273.94L267.964 265.218L267.278 265.215C267.314 265.211 267.352 265.207 267.387 265.199L267.404 256.537C267.356 256.526 267.308 256.52 267.259 256.514L267.274 248.06H267.579L267.564 256.44C267.884 256.299 268.155 256.051 268.345 255.731L268.357 248.685C268.202 248.422 267.987 248.207 267.739 248.06H268.012L268.029 239.337L267.249 239.335L267.234 247.867C267.152 247.852 267.07 247.843 266.984 247.843L266.496 247.841L266.479 256.564H266.624L266.607 265.226L267.095 265.228C267.125 265.228 267.154 265.226 267.183 265.224L267.167 273.938L267.947 273.94Z" fill="#6AB799"/>
<path d="M268.848 265.219L268.827 273.941L269.607 273.943L269.628 265.22L268.848 265.219Z" fill="#6AB799"/>
<path d="M270.455 265.222L270.432 273.945L271.212 273.947L271.235 265.224L270.455 265.222Z" fill="#6AB799"/>
<path d="M271.657 265.226L271.64 273.949L272.128 273.951C272.229 273.951 272.326 273.94 272.421 273.921L272.436 265.26C272.341 265.239 272.242 265.228 272.143 265.228L271.657 265.226Z" fill="#6AB799"/>
<path d="M272.742 265.356L272.727 273.825C273.047 273.684 273.318 273.435 273.507 273.116L273.52 266.069C273.331 265.75 273.059 265.497 272.742 265.356Z" fill="#6AB799"/>
<path d="M260.398 265.213L260.413 256.488H260.27L260.284 247.827L259.504 247.825L259.487 256.549H259.632L259.615 265.196L258.854 265.194L258.839 273.919H259.62L259.636 265.211L260.398 265.213Z" fill="#6AB799"/>
<path d="M254.6 256.476L254.455 256.474L254.472 247.814L253.692 247.812L253.675 256.535H253.82L253.803 265.197H253.997L253.98 273.907L254.76 273.909L254.777 265.186L254.583 265.184L254.6 256.476Z" fill="#6AB799"/>
<path d="M267.708 256.634L267.693 265.102C268.013 264.961 268.284 264.711 268.473 264.393L268.486 257.347C268.299 257.027 268.025 256.774 267.708 256.634Z" fill="#6AB799"/>
<path d="M249.613 247.801L248.833 247.799L248.816 256.524H248.961L248.946 265.171H248.858L248.843 273.894L249.624 273.896L249.64 265.186L249.727 265.188L249.741 256.463H249.598L249.613 247.801Z" fill="#6AB799"/>
<path d="M244.477 247.791L243.696 247.789L243.679 256.512H243.825L243.808 265.173L244.588 265.175L244.605 256.451H244.46L244.477 247.791Z" fill="#6AB799"/>
<path d="M236.601 247.772L235.819 247.77L235.804 256.493H235.947L235.932 265.154L236.713 265.157L236.73 256.432H236.584L236.601 247.772Z" fill="#6AB799"/>
<path d="M229.227 247.753L228.447 247.751L228.43 256.476H228.575L228.558 265.138H229.341L229.356 256.415H229.21L229.227 247.753Z" fill="#6AB799"/>
<path d="M222.641 247.738L221.861 247.736L221.846 256.459H221.989L221.975 265.121L222.755 265.123L222.772 256.4H222.627L222.641 247.738Z" fill="#6AB799"/>
<path d="M262.8 247.833L262.02 247.831L262.003 256.556H262.148L262.133 265.203H262.024L262.009 273.926L262.79 273.928L262.804 265.218H262.914L262.928 256.495H262.785L262.8 247.833Z" fill="#6AB799"/>
<path d="M264.461 247.837L263.835 247.835L263.849 239.327L263.069 239.325L263.052 248.05H263.681L263.666 256.558L263.809 256.56L263.795 265.22L264.575 265.222L264.59 256.499H264.447L264.461 247.837Z" fill="#6AB799"/>
<path d="M260.428 239.32L260.408 248.043L261.188 248.045L261.209 239.322L260.428 239.32Z" fill="#6AB799"/>
<path d="M257.24 247.82L256.86 247.818L256.845 256.543H256.988L256.973 265.205L257.754 265.207L257.771 256.482H257.625L257.64 248.037H258.021L258.038 239.314L257.255 239.312L257.24 247.82Z" fill="#6AB799"/>
<path d="M252.402 239.3L252.379 248.022L253.16 248.025L253.183 239.302L252.402 239.3Z" fill="#6AB799"/>
<path d="M247.265 239.287L247.244 248.01L248.024 248.012L248.045 239.289L247.265 239.287Z" fill="#6AB799"/>
<path d="M239.387 239.27L239.367 247.993L240.147 247.995L240.167 239.272L239.387 239.27Z" fill="#6AB799"/>
<path d="M232.014 239.251L231.995 247.974L232.776 247.976L232.794 239.253L232.014 239.251Z" fill="#6AB799"/>
<path d="M225.429 239.237L225.408 247.959L226.188 247.961L226.209 239.239L225.429 239.237Z" fill="#6AB799"/>
<path d="M265.567 247.839H265.286L265.271 256.562H265.414L265.399 265.211L264.667 265.209L264.65 273.932L265.431 273.934L265.448 265.224L266.18 265.226L266.194 256.503H266.051L266.066 248.056H266.348L266.365 239.333L265.584 239.331L265.567 247.839Z" fill="#6AB799"/>
<path d="M268.853 239.339L268.833 248.062L269.613 248.064L269.634 239.341L268.853 239.339Z" fill="#6AB799"/>
<path d="M270.824 248.037L270.84 239.375C270.744 239.354 270.647 239.344 270.548 239.344L270.06 239.341L270.043 248.064L270.531 248.066C270.63 248.066 270.727 248.056 270.824 248.037Z" fill="#6AB799"/>
<path d="M271.909 247.231L271.922 240.185C271.733 239.865 271.461 239.615 271.144 239.472L271.129 247.94C271.446 247.799 271.72 247.549 271.909 247.231Z" fill="#6AB799"/>
<path d="M268.701 230.614L268.681 239.337L269.461 239.339L269.482 230.616L268.701 230.614Z" fill="#6AB799"/>
<path d="M258.031 230.589L258.011 239.312L258.791 239.313L258.812 230.591L258.031 230.589Z" fill="#6AB799"/>
<path d="M252.894 230.578L252.873 239.301L253.654 239.303L253.674 230.58L252.894 230.578Z" fill="#6AB799"/>
<path d="M245.019 230.559L244.998 239.282L245.778 239.283L245.799 230.561L245.019 230.559Z" fill="#6AB799"/>
<path d="M237.645 230.542L237.624 239.265L238.404 239.267L238.425 230.544L237.645 230.542Z" fill="#6AB799"/>
<path d="M231.059 230.526L231.04 239.249L231.821 239.25L231.839 230.527L231.059 230.526Z" fill="#6AB799"/>
<path d="M271.218 230.62L271.197 239.343L271.977 239.345L271.998 230.622L271.218 230.62Z" fill="#6AB799"/>
<path d="M272.881 230.625L272.86 239.347L273.641 239.349L273.661 230.626L272.881 230.625Z" fill="#6AB799"/>
<path d="M274.485 230.628L274.464 239.351L275.244 239.353L275.265 230.63L274.485 230.628Z" fill="#6AB799"/>
<path d="M275.689 230.631L275.675 239.354L276.163 239.356C276.264 239.356 276.36 239.346 276.455 239.327L276.472 230.665C276.377 230.646 276.278 230.634 276.179 230.634L275.689 230.631Z" fill="#6AB799"/>
<path d="M276.772 230.762L276.757 239.23C277.077 239.089 277.349 238.839 277.538 238.521L277.55 231.475C277.363 231.155 277.092 230.903 276.772 230.762Z" fill="#6AB799"/>
<path d="M259.678 230.608L260.46 230.61L260.475 221.885L259.714 221.883L259.728 213.375L260.49 213.377L260.507 204.654L259.726 204.652L259.71 213.362L258.948 213.36L258.933 222.083L259.695 222.085L259.678 230.608Z" fill="#6AB799"/>
<path d="M257.057 221.876L257.034 230.599L257.814 230.601L257.837 221.878L257.057 221.876Z" fill="#6AB799"/>
<path d="M243.89 221.846L243.869 230.569L244.65 230.57L244.67 221.848L243.89 221.846Z" fill="#6AB799"/>
<path d="M236.015 221.827L235.994 230.549L236.775 230.551L236.795 221.828L236.015 221.827Z" fill="#6AB799"/>
<path d="M228.641 221.81L228.62 230.532L229.401 230.534L229.421 221.812L228.641 221.81Z" fill="#6AB799"/>
<path d="M222.056 221.795L222.035 230.518L222.816 230.52L222.836 221.797L222.056 221.795Z" fill="#6AB799"/>
<path d="M262.196 230.612L262.886 230.615L262.872 239.325L263.652 239.327L263.667 230.604L262.977 230.602L262.991 221.892H262.884L262.899 213.384H263.008L263.023 204.661L262.243 204.659L262.226 213.367H262.119L262.102 222.092H262.211L262.196 230.612Z" fill="#6AB799"/>
<path d="M263.873 221.895L263.857 230.618L264.638 230.619L264.654 221.896L263.873 221.895Z" fill="#6AB799"/>
<path d="M267.905 222.104H268.041L268.058 213.381L267.373 213.379C267.408 213.375 267.446 213.371 267.482 213.362L267.499 204.701C267.404 204.68 267.305 204.669 267.206 204.669L266.718 204.667L266.702 213.39H267.19C267.219 213.39 267.249 213.388 267.278 213.386L267.263 221.904C267.234 221.902 267.204 221.9 267.175 221.9H266.687L266.67 230.61H266.243L266.26 221.9L265.528 221.898L265.543 213.39L266.275 213.392L266.291 204.669L265.511 204.667L265.494 213.377L264.762 213.375L264.745 222.098L265.477 222.1L265.463 230.623L266.056 230.625L266.039 239.335L266.819 239.337L266.836 230.627H267.156C267.257 230.627 267.354 230.617 267.448 230.598L267.463 222.106H267.768L267.753 230.501C268.073 230.362 268.344 230.112 268.534 229.792L268.546 222.746C268.389 222.47 268.163 222.251 267.905 222.104Z" fill="#6AB799"/>
<path d="M241.078 213.318L241.06 222.041L241.84 222.042L241.859 213.319L241.078 213.318Z" fill="#6AB799"/>
<path d="M233.707 213.301L233.687 222.024L234.467 222.025L234.488 213.303L233.707 213.301Z" fill="#6AB799"/>
<path d="M227.121 213.284L227.1 222.007L227.881 222.009L227.901 213.286L227.121 213.284Z" fill="#6AB799"/>
<path d="M268.942 213.383L268.921 222.106L269.702 222.108L269.722 213.385L268.942 213.383Z" fill="#6AB799"/>
<path d="M270.546 213.387L270.525 222.11L271.305 222.112L271.326 213.389L270.546 213.387Z" fill="#6AB799"/>
<path d="M271.751 213.39L271.735 222.113H272.223C272.324 222.113 272.42 222.102 272.515 222.083L272.53 213.421C272.435 213.4 272.336 213.39 272.237 213.39H271.751Z" fill="#6AB799"/>
<path d="M273.602 221.28L273.615 214.233C273.426 213.914 273.154 213.663 272.837 213.52L272.822 221.989C273.14 221.848 273.413 221.597 273.602 221.28Z" fill="#6AB799"/>
<path d="M257.086 204.646L257.065 213.369L257.845 213.371L257.866 204.648L257.086 204.646Z" fill="#6AB799"/>
<path d="M254.695 204.64L253.915 204.638L253.898 213.362H254.09L254.075 221.871H253.884L253.867 230.593L254.647 230.596L254.664 222.073H254.855L254.872 213.35H254.679L254.695 204.64Z" fill="#6AB799"/>
<path d="M249.039 213.337L248.953 213.335L248.938 222.06H249.024L249.007 230.583H249.79L249.805 221.86H249.718L249.733 213.352H249.821L249.836 204.629L249.056 204.627L249.039 213.337Z" fill="#6AB799"/>
<path d="M243.92 204.614L243.899 213.336L244.68 213.338L244.7 204.615L243.92 204.614Z" fill="#6AB799"/>
<path d="M236.047 204.594L236.027 213.317L236.807 213.319L236.828 204.596L236.047 204.594Z" fill="#6AB799"/>
<path d="M228.673 204.577L228.65 213.3L229.43 213.302L229.453 204.579L228.673 204.577Z" fill="#6AB799"/>
<path d="M222.087 204.563L222.069 213.286L222.849 213.288L222.868 204.565L222.087 204.563Z" fill="#6AB799"/>
<path d="M263.908 204.662L263.885 213.384L264.666 213.387L264.689 204.664L263.908 204.662Z" fill="#6AB799"/>
<path d="M267.801 204.8L267.786 213.268C268.106 213.127 268.377 212.879 268.567 212.559L268.579 205.513C268.392 205.191 268.119 204.94 267.801 204.8Z" fill="#6AB799"/>
<path d="M290.689 228.057L295.539 228.917C295.926 228.986 296.267 229.153 296.532 229.382C296.814 229.624 297.012 229.935 297.096 230.274C297.123 230.377 297.136 230.484 297.138 230.589C297.14 230.686 297.134 230.785 297.117 230.884L285.066 298.516C284.911 299.389 283.994 299.966 283.003 299.835C282.971 299.831 282.938 299.827 282.906 299.82L278.056 298.958C278.024 298.952 277.993 298.945 277.959 298.939C276.983 298.72 276.323 297.862 276.476 296.989L288.527 229.357C288.535 229.312 288.543 229.27 288.556 229.228C288.56 229.209 288.566 229.193 288.573 229.174C288.579 229.155 288.585 229.134 288.594 229.115C288.598 229.1 288.604 229.087 288.611 229.073C288.651 228.974 288.699 228.879 288.76 228.791C288.768 228.778 288.777 228.766 288.787 228.751C288.796 228.738 288.806 228.726 288.815 228.713C288.834 228.688 288.855 228.663 288.876 228.639C288.888 228.625 288.901 228.612 288.914 228.597C288.926 228.585 288.937 228.572 288.949 228.562C288.972 228.538 288.996 228.517 289.019 228.494C289.046 228.469 289.076 228.446 289.105 228.423C289.128 228.404 289.151 228.387 289.174 228.37C289.176 228.37 289.176 228.368 289.179 228.368C289.195 228.358 289.212 228.345 289.229 228.334C289.28 228.301 289.334 228.269 289.389 228.24C289.406 228.231 289.423 228.223 289.437 228.215C289.454 228.206 289.471 228.2 289.488 228.191C289.524 228.177 289.557 228.162 289.593 228.147C289.925 228.027 290.302 227.987 290.689 228.057Z" fill="#6FCF97"/>
<path d="M291.493 262.462L285.038 298.695C284.899 299.473 283.995 299.974 283.004 299.839C282.973 299.835 282.939 299.831 282.907 299.825L278.057 298.962C278.025 298.956 277.994 298.95 277.96 298.943C276.984 298.729 276.309 297.948 276.448 297.168L282.11 265.386C282.184 265.384 282.255 265.382 282.329 265.379C284.933 265.295 288.521 264.702 291.493 262.462Z" fill="#8EEBB5"/>
<path d="M287.334 235.959L287.197 236.728L295.784 238.26L295.921 237.492L287.334 235.959Z" fill="#6AB799"/>
<path d="M286.872 238.559L286.735 239.328L295.323 240.856L295.459 240.088L286.872 238.559Z" fill="#6AB799"/>
<path d="M286.321 241.66L286.184 242.428L294.772 243.958L294.909 243.19L286.321 241.66Z" fill="#6AB799"/>
<path d="M285.47 246.442L285.333 247.21L293.921 248.74L294.058 247.972L285.47 246.442Z" fill="#6AB799"/>
<path d="M284.563 251.518L284.427 252.286L293.014 253.814L293.151 253.046L284.563 251.518Z" fill="#6AB799"/>
<path d="M283.217 259.272L283.08 260.041L291.668 261.571L291.805 260.803L283.217 259.272Z" fill="#6AB799"/>
<path d="M281.889 266.531L281.752 267.3L290.34 268.828L290.477 268.06L281.889 266.531Z" fill="#6AB799"/>
<path d="M280.746 273.031L280.609 273.8L289.196 275.332L289.333 274.564L280.746 273.031Z" fill="#6AB799"/>
<path d="M287.782 233.46L287.645 234.228L296.233 235.758L296.37 234.99L287.782 233.46Z" fill="#6AB799"/>
<path d="M288.105 231.843L287.968 232.611L296.555 234.142L296.692 233.374L288.105 231.843Z" fill="#6AB799"/>
<path d="M288.355 230.245L288.218 231.013L296.805 232.543L296.942 231.775L288.355 230.245Z" fill="#6AB799"/>
<path d="M288.442 229.84L297.03 231.365L297.117 230.886C297.133 230.787 297.142 230.69 297.138 230.591L288.608 229.077C288.573 229.167 288.545 229.262 288.526 229.361L288.442 229.84Z" fill="#6AB799"/>
<path d="M288.758 228.795L297.096 230.276C297.014 229.937 296.814 229.626 296.532 229.384L289.595 228.151C289.248 228.282 288.954 228.505 288.758 228.795Z" fill="#6AB799"/>
<path d="M454.419 299.831H424.898C423.316 298.489 425.994 295.441 428.79 295.237C430.005 295.145 431.541 295.399 433.295 295.771C433.701 290.376 436.021 266.12 444.765 267.094C454.596 268.185 444.765 277.777 441.986 283.454C439.927 287.661 437.756 293.691 436.763 296.537C437.561 296.709 438.387 296.88 439.231 297.036C440.535 293.035 445.383 279.577 451.548 280.36C458.788 281.279 455.877 286.674 450.747 289.878C446.982 292.233 442.361 295.58 440.163 297.197C442.024 297.5 443.965 297.707 445.936 297.66C450.995 297.538 453.464 299.027 454.419 299.831Z" fill="#4F2DA6"/>
<path d="M69.4923 298.851C68.3207 297.008 64.7912 292.229 60.0922 292.86C54.9705 293.55 65.7483 296.926 69.0464 298.863C68.3144 298.874 67.6834 298.815 67.2206 298.651C65.0142 297.864 61.2386 299.372 60.0291 299.902H81.0273C80.8822 299.4 80.5036 298.579 79.5255 297.982C79.1805 297.772 78.4885 297.742 77.5925 297.81C78.8419 296.337 79.7085 291.636 76.2316 292.846C73.6928 293.729 73.6991 296.602 73.9494 298.302C73.4088 298.386 72.8619 298.472 72.3193 298.55C71.2739 293.222 67.5761 277.607 60.0817 277.19C52.4843 276.767 66.5244 293.384 71.2003 298.699C70.6029 298.771 70.0266 298.826 69.4923 298.851Z" fill="#8769D3"/>
<path d="M277.701 166.226C289.51 154.417 289.51 135.271 277.701 123.462C265.893 111.654 246.747 111.654 234.938 123.462C223.13 135.271 223.13 154.417 234.938 166.226C246.747 178.034 265.893 178.034 277.701 166.226Z" fill="#64C48C"/>
<path d="M283.252 153.791C287.494 137.639 277.838 121.106 261.686 116.864C245.534 112.622 229.001 122.278 224.759 138.43C220.517 154.583 230.172 171.116 246.325 175.358C262.477 179.599 279.01 169.944 283.252 153.791Z" fill="#6FCF97"/>
<path d="M254.233 173.974C244.511 173.974 235.075 168.827 230.058 159.728C226.506 153.283 225.675 145.841 227.721 138.772C229.766 131.702 234.442 125.853 240.887 122.3C247.331 118.748 254.773 117.917 261.843 119.961C268.912 122.006 274.762 126.682 278.314 133.126C285.649 146.43 280.792 163.22 267.488 170.554C263.281 172.874 258.725 173.974 254.233 173.974ZM254.148 120.51C249.832 120.51 245.562 121.6 241.68 123.741C235.62 127.081 231.224 132.582 229.299 139.23C227.376 145.877 228.157 152.877 231.497 158.937C236.213 167.492 245.089 172.334 254.228 172.334C258.454 172.334 262.737 171.299 266.691 169.12C279.202 162.223 283.768 146.435 276.871 133.926C273.531 127.866 268.031 123.47 261.382 121.545C258.999 120.851 256.567 120.51 254.148 120.51Z" fill="#27AE60"/>
<path d="M241.862 141.55C243.398 140.663 244.933 139.777 246.469 138.89C247.209 138.463 247.945 137.984 248.734 137.653C248.631 137.696 248.527 137.738 248.424 137.781C249.02 137.536 249.644 137.37 250.284 137.289C250.176 137.302 250.069 137.316 249.962 137.329C250.572 137.255 251.186 137.259 251.795 137.338C251.69 137.323 251.584 137.309 251.478 137.295C252.098 137.379 252.703 137.541 253.283 137.778C253.184 137.738 253.085 137.697 252.987 137.657C253.554 137.893 254.088 138.197 254.579 138.566C254.493 138.501 254.406 138.436 254.32 138.37C254.833 138.761 255.291 139.216 255.685 139.726C255.617 139.638 255.548 139.549 255.48 139.461C255.863 139.964 256.18 140.512 256.424 141.095C256.381 140.992 256.339 140.888 256.296 140.785C256.541 141.381 256.707 142.005 256.788 142.645C256.775 142.538 256.761 142.43 256.748 142.323C256.822 142.933 256.818 143.547 256.739 144.157C256.754 144.051 256.768 143.945 256.782 143.839C256.698 144.46 256.535 145.065 256.299 145.644C256.339 145.545 256.38 145.447 256.42 145.348C256.184 145.915 255.879 146.449 255.511 146.94C255.576 146.854 255.641 146.768 255.707 146.681C255.316 147.195 254.861 147.652 254.35 148.046C254.439 147.978 254.528 147.91 254.616 147.841C254.02 148.295 253.344 148.647 252.696 149.021C251.716 149.587 250.736 150.153 249.755 150.719C249.105 151.094 248.456 151.469 247.806 151.844C247.215 152.186 247.006 152.964 247.347 153.555C247.458 153.746 247.568 153.937 247.678 154.128C247.868 154.457 248.137 154.643 248.489 154.765C248.601 154.804 248.712 154.843 248.824 154.882C249.381 155.076 249.938 155.27 250.495 155.464C252.452 156.145 254.409 156.826 256.366 157.507C258.503 158.251 260.641 158.995 262.779 159.739C263.967 160.152 265.155 160.566 266.343 160.979C266.369 160.988 266.396 160.997 266.422 161.007C267.067 161.231 267.789 160.744 267.955 160.121C268.041 159.802 267.996 159.457 267.83 159.171C267.655 158.867 267.393 158.7 267.07 158.588C266.131 158.261 265.191 157.934 264.252 157.607C262.187 156.888 260.122 156.17 258.058 155.451C255.999 154.735 253.94 154.018 251.881 153.301C250.958 152.98 250.036 152.659 249.113 152.338C249.367 152.533 249.62 152.727 249.874 152.922C249.754 152.715 249.635 152.509 249.516 152.303C249.363 152.873 249.211 153.443 249.058 154.013C250.593 153.126 252.129 152.24 253.665 151.353C254.251 151.015 254.855 150.694 255.424 150.325C256.182 149.834 256.876 149.227 257.433 148.515C258.042 147.737 258.497 146.917 258.836 145.986C259.433 144.346 259.457 142.463 258.952 140.797C258.685 139.919 258.278 139.069 257.737 138.327C257.14 137.508 256.455 136.837 255.628 136.251C254.213 135.246 252.412 134.736 250.683 134.772C249.209 134.803 247.791 135.235 246.519 135.97C244.825 136.948 243.132 137.925 241.438 138.903C241.162 139.062 240.886 139.222 240.61 139.381C240.019 139.722 239.811 140.5 240.152 141.092C240.493 141.683 241.271 141.891 241.862 141.55Z" fill="white"/>
<path d="M261.257 136.046C260.413 136.533 259.57 137.019 258.727 137.506C256.852 138.589 254.977 139.671 253.102 140.754C251.178 141.865 249.253 142.976 247.329 144.087C246.339 144.659 245.348 145.231 244.357 145.803C244.347 145.808 244.337 145.814 244.328 145.82C243.736 146.161 243.528 146.939 243.869 147.53C244.211 148.121 244.989 148.33 245.58 147.988C246.423 147.502 247.266 147.015 248.11 146.528C249.985 145.445 251.86 144.363 253.735 143.28C255.659 142.169 257.583 141.058 259.507 139.948C260.498 139.376 261.488 138.804 262.479 138.232C262.489 138.226 262.499 138.22 262.509 138.214C263.1 137.873 263.308 137.095 262.967 136.504C262.626 135.913 261.848 135.704 261.257 136.046Z" fill="white"/>
<path d="M241.862 141.549C242.705 141.062 243.549 140.575 244.392 140.088C246.267 139.006 248.142 137.923 250.017 136.841C251.941 135.73 253.865 134.619 255.789 133.508C256.78 132.936 257.771 132.364 258.761 131.792C258.771 131.787 258.781 131.781 258.791 131.775C259.382 131.434 259.591 130.656 259.249 130.065C258.908 129.474 258.13 129.265 257.539 129.606C256.696 130.093 255.852 130.58 255.009 131.067C253.134 132.15 251.259 133.232 249.384 134.315C247.46 135.426 245.536 136.536 243.612 137.647C242.621 138.219 241.63 138.791 240.639 139.363C240.63 139.369 240.62 139.375 240.61 139.38C240.019 139.722 239.81 140.5 240.151 141.091C240.493 141.682 241.271 141.89 241.862 141.549Z" fill="white"/>
<path d="M284.103 128.568C282.839 127.674 279.97 125.71 279.821 126.147C279.713 126.463 279.867 126.997 280.21 127.554C278.474 126.907 276.712 126.482 272.547 127.281C271.712 127.441 270.957 127.916 270.498 128.629C270.074 129.29 269.916 130.118 270.978 130.779C273.104 132.102 272.488 131.309 275.443 133.234C278.399 135.158 282.017 135.65 284.177 134.3L287.077 133.816L287.437 129.046C287.435 129.046 285.782 128.848 284.103 128.568Z" fill="url(#paint1_linear)"/>
<path d="M360.114 88.5511C360.114 88.5511 353.276 96.6639 344.568 93.2712C344.568 93.2712 342.694 88.7405 342.669 85.4003C342.666 84.988 342.66 84.5905 342.654 84.2118C342.608 80.451 342.481 78.3392 342.481 78.3392C342.481 78.3392 342.483 78.3392 342.49 78.3371C342.885 78.1709 355.802 72.8682 355.792 73.3099C355.569 83.482 360.114 88.5511 360.114 88.5511Z" fill="url(#paint2_linear)"/>
<path opacity="0.1" d="M354.494 75.7351C353.249 78.0447 348.975 82.5607 342.654 84.2097C342.608 80.4489 342.481 78.337 342.481 78.337C342.481 78.337 342.483 78.337 342.49 78.3349C342.845 78.2403 354.864 75.0536 354.494 75.7351Z" fill="black"/>
<path d="M339.774 77.9479C339.774 77.9479 354.3 81.3638 356.288 72.2835C358.275 63.2052 361.487 57.5324 352.297 54.9683C343.108 52.4043 340.542 55.4731 339.141 58.3422C337.74 61.2091 336.047 76.8247 339.774 77.9479Z" fill="url(#paint3_linear)"/>
<path d="M355.792 74.7571C355.99 74.8833 359.115 75.8446 365.034 64.0529C365.964 62.2019 366.597 58.1971 364.431 54.6592C362.264 51.1212 354.585 48.3384 348.203 47.129C341.823 45.9174 340.29 49.5079 338.788 53.1174C337.211 56.9056 332.655 60.0228 332.655 60.0228C338.157 63.0959 344.785 58.6998 347.08 59.4234C349.377 60.1469 350.186 63.7648 350.359 64.9237C350.531 66.0827 350.796 67.0482 353.682 66.0112C356.57 64.9763 354.988 70.1023 354.526 71.0825C354.528 71.0846 354.135 73.697 355.792 74.7571Z" fill="#00134F"/>
<path d="M393.21 301.158H402.006C403.851 301.158 405.899 299.311 406.411 295.931C406.924 292.549 410.714 290.704 411.534 287.938C412.355 285.17 408.152 281.277 408.152 281.277L407.45 280.375L406.72 279.434L399.753 281.073C399.753 281.073 399.581 282.733 399.474 284.844C399.4 286.369 399.358 288.134 399.446 289.68C399.65 293.369 398.413 297.343 395.136 298.06C391.851 298.779 393.21 301.158 393.21 301.158Z" fill="#0A1D32"/>
<path d="M331.978 301.158H355.292C355.515 301.114 355.685 301.066 355.786 301.015C357.342 300.235 356.854 294.276 356.667 292.436C356.632 292.095 356.606 291.895 356.606 291.895C356.606 291.895 348.407 285.339 347.28 290.359C347.244 290.515 347.202 290.671 347.16 290.822V290.824C345.736 295.521 339.375 297.656 335.701 298.251C332.893 298.706 332.165 300.342 331.978 301.158Z" fill="#0A1D32"/>
<path d="M336.676 166.711C336.676 166.711 337.921 182.245 339.385 200.919C341.375 226.284 343.767 257.441 344.002 263.345C344.413 273.595 346.053 289.989 346.053 289.989C346.053 289.989 349.944 293.885 357.735 292.242C357.735 292.242 364.677 268.837 366.66 244.074C366.692 243.668 366.721 243.26 366.753 242.85C368.597 217.641 371.466 164.557 371.466 164.557L336.676 166.711Z" fill="#4F2DA6"/>
<path opacity="0.2" d="M336.676 166.711C336.676 166.711 337.921 182.245 339.385 200.919L366.66 244.076C366.692 243.67 366.721 243.262 366.753 242.852C368.597 217.643 371.466 164.56 371.466 164.56L336.676 166.711Z" fill="#0A1D32"/>
<path d="M342.362 168.556C342.362 168.556 364.803 224.815 379.56 251.253C394.318 277.691 398.928 285.069 398.928 285.069C398.928 285.069 407.382 281.687 408.152 279.382C408.152 279.382 402.508 228.341 392.626 215.899C387.042 208.868 380.484 187.77 380.176 180.392C379.869 173.013 378.178 158.411 378.178 158.411L342.362 168.556Z" fill="#4F2DA6"/>
<path d="M393.543 158.333L393.78 161.951C393.78 161.951 391.395 168.379 398.08 171.675C398.08 171.675 400.943 172.83 401.058 170.603C401.174 168.375 400.808 169.212 401.041 166.076C401.275 162.938 400.04 159.974 397.964 158.975L396.26 157.01L393.543 158.333Z" fill="url(#paint4_linear)"/>
<path d="M396.155 160.969C393.671 161.766 393.274 161.585 393.274 161.585C393.274 161.585 381.183 139.573 379.959 137.558C378.735 135.543 354.289 112.875 354.289 112.875L360.572 89.4493C360.572 89.4493 388.375 125.453 391.378 130.619C396.34 139.157 399.247 158.983 399.247 158.983C399.247 158.983 398.105 160.342 396.155 160.969Z" fill="#BCCADB"/>
<path d="M331.94 122.073C332.027 126.883 332.306 132.291 332.685 137.785C332.708 138.111 332.731 138.437 332.754 138.763C332.996 142.167 333.257 145.576 333.558 148.902C333.678 150.235 333.806 151.554 333.941 152.848L333.962 153.022C333.972 153.506 334.031 154.032 334.084 154.512C335.31 166.97 336.593 176.812 336.833 176.963C337.117 177.152 337.439 177.247 337.79 177.207C341.057 176.797 350.804 177.537 358.784 175.802C365.517 174.382 371.316 171.688 377.46 168.057C378.276 167.576 380.136 166.299 379.984 165.344C379.835 164.294 379.561 162.78 379.212 160.874C378.003 154.249 375.912 142.85 375.199 129.511C375.06 127.026 374.858 124.572 374.595 122.159C373.91 115.874 372.814 109.905 371.341 104.602C368.605 94.7499 364.585 87.205 359.541 84.2539C358.883 83.8837 355.337 86.1407 352.078 88.2314C349.07 90.1602 345.903 90.6924 342.823 90.4232L340.112 93.4205C336.831 97.2361 333.335 102.316 332.38 109.537C332.309 110.071 332.248 110.637 332.195 111.238C331.93 114.179 331.865 117.902 331.94 122.073Z" fill="#D3DBE4"/>
<path opacity="0.1" d="M331.94 122.073C332.027 126.883 332.306 132.291 332.685 137.785C332.708 138.111 332.731 138.437 332.754 138.763C351.416 127.083 354.289 105.709 354.289 105.709C345.108 106.11 337.815 108.222 332.195 111.24C331.93 114.179 331.865 117.902 331.94 122.073Z" fill="#0A1D32"/>
<path d="M284.791 131.273C284.6 128.505 286.032 128.045 286.032 128.045C286.032 128.045 314.167 122.946 316.559 122.193C318.95 121.44 339.402 100.166 339.402 100.166C339.402 100.166 347.241 91.3255 353.661 93.2775C359.239 94.9749 361.418 99.3248 362.16 103.471C363.046 108.409 360.768 113.38 356.49 116.005C346.888 121.894 327.665 133.497 323.138 134.824C313.063 137.777 285.99 135.061 285.99 135.061C285.99 135.061 284.943 133.446 284.791 131.273Z" fill="#E4EDF7"/>
<path opacity="0.1" d="M317.897 185.314V289.895C317.897 295.994 312.905 300.988 306.805 300.988H199.307C198.375 300.988 197.467 300.872 196.598 300.658C194.736 300.197 193.052 299.274 191.674 298.016C190.689 297.118 189.865 296.049 189.244 294.861C189.211 294.798 189.179 294.734 189.148 294.667C188.504 293.374 188.1 291.941 187.997 290.431C187.978 290.172 187.97 289.913 187.97 289.651V185.985C187.97 180.118 191.001 174.694 195.946 171.536C195.946 171.536 195.95 171.534 195.958 171.53C200.077 168.895 202.807 164.275 202.807 159.023C202.807 157.465 202.567 155.965 202.121 154.554H303.745C303.299 155.965 303.059 157.465 303.059 159.023C303.059 164.061 305.569 168.512 309.405 171.194C309.407 171.194 309.407 171.196 309.409 171.196C309.666 171.374 309.927 171.545 310.194 171.707C310.196 171.709 310.196 171.709 310.196 171.709C314.956 174.603 317.897 179.74 317.897 185.314Z" fill="#4F2DA6"/>
<path opacity="0.05" d="M317.896 185.314V289.895C317.896 295.731 313.325 300.555 307.587 300.958C307.329 300.977 307.068 300.986 306.805 300.986H259.47C253.234 300.986 248.133 295.883 248.133 289.648V185.985C248.133 180.118 251.164 174.694 256.109 171.536C260.236 168.903 262.972 164.282 262.972 159.021C262.972 157.463 262.732 155.963 262.287 154.552H303.742C303.296 155.963 303.057 157.463 303.057 159.021C303.057 163.15 304.742 166.884 307.463 169.572C308.286 170.386 309.201 171.103 310.194 171.705C314.956 174.603 317.896 179.74 317.896 185.314Z" fill="#4F2DA6"/>
<path opacity="0.2" d="M309.406 171.191C306.087 169.204 291.706 162.159 255.138 162.458C213.251 162.801 196.472 171.267 195.959 171.53C200.077 168.895 202.808 164.276 202.808 159.023C202.808 157.465 202.568 155.965 202.122 154.554H303.745C303.299 155.965 303.06 157.465 303.06 159.023C303.06 164.057 305.569 168.51 309.406 171.191Z" fill="#4F2DA6"/>
<path d="M306.046 153.82V158.563C306.046 159.032 305.665 159.412 305.199 159.412H200.668C200.199 159.412 199.818 159.032 199.818 158.563V153.82C199.818 153.353 200.199 152.97 200.668 152.97H305.199C305.665 152.97 306.046 153.353 306.046 153.82Z" fill="#4F2DA6"/>
<path d="M306.047 153.82V158.563C306.047 159.032 305.666 159.412 305.199 159.412H265.632C265.165 159.412 264.782 159.032 264.782 158.563V153.82C264.782 153.353 265.165 152.97 265.632 152.97H305.199C305.666 152.97 306.047 153.353 306.047 153.82Z" fill="#411F97"/>
<path opacity="0.3" d="M202.784 293.085C202.233 293.376 201.677 293.649 201.12 293.914C200.588 294.221 200.047 294.524 199.496 294.812C196.955 296.148 194.337 297.212 191.672 298.016C190.687 297.117 189.863 296.049 189.242 294.861C188.817 295.088 188.394 295.304 187.967 295.517V216.608C189.926 216.869 191.865 217.26 193.764 217.773C204.424 220.655 213.917 227.436 219.691 237.413C231.161 257.233 223.59 282.158 202.784 293.085Z" fill="#80E0A8"/>
<path d="M209.993 234.306C198.523 213.499 172.359 205.931 151.552 217.401C130.745 228.871 123.177 255.035 134.645 275.842C146.114 296.649 172.279 304.217 193.085 292.749C213.894 281.277 221.462 255.113 209.993 234.306Z" fill="#64C48C"/>
<path d="M191.418 293.62C190.887 293.944 190.349 294.255 189.8 294.558C189.615 294.661 189.43 294.762 189.243 294.859C188.818 295.086 188.395 295.302 187.968 295.515C167.483 305.575 142.495 297.854 131.359 277.653C120.737 258.384 126.446 234.518 143.877 221.986C145.267 220.987 146.729 220.06 148.266 219.212C148.817 218.907 149.375 218.617 149.932 218.341C150.475 218.07 151.022 217.813 151.571 217.569C153.254 216.818 154.966 216.185 156.695 215.668C159.263 214.894 161.871 214.372 164.484 214.097C172.588 213.238 180.741 214.719 187.968 218.255C195.639 222.005 202.271 228.072 206.707 236.117C217.874 256.377 210.994 281.712 191.418 293.62Z" fill="#6FCF97"/>
<path d="M169.335 296.541C165.677 296.541 161.998 296.024 158.386 294.981C148.33 292.072 140.007 285.421 134.955 276.252C129.9 267.083 128.72 256.495 131.629 246.438C134.538 236.382 141.189 228.059 150.358 223.007C159.526 217.952 170.113 216.772 180.171 219.681C190.228 222.59 198.551 229.241 203.605 238.41C208.66 247.578 209.84 258.165 206.931 268.223C204.022 278.28 197.371 286.603 188.202 291.655C182.325 294.894 175.863 296.541 169.335 296.541ZM137.003 275.122C141.755 283.744 149.582 289.998 159.038 292.734C168.495 295.471 178.451 294.36 187.072 289.606C195.694 284.855 201.948 277.028 204.684 267.571C207.421 258.114 206.31 248.159 201.556 239.537C196.803 230.915 188.978 224.662 179.521 221.925C170.064 219.191 160.109 220.299 151.487 225.053C142.865 229.805 136.612 237.631 133.876 247.088C131.139 256.545 132.25 266.501 137.003 275.122Z" fill="#27AE60"/>
<path d="M148.884 249.225C151.092 247.95 153.299 246.676 155.507 245.401C156.57 244.787 157.628 244.098 158.763 243.623C158.614 243.684 158.465 243.745 158.316 243.807C159.174 243.454 160.071 243.217 160.99 243.099C160.836 243.119 160.682 243.138 160.527 243.157C161.404 243.051 162.288 243.056 163.163 243.17C163.011 243.149 162.859 243.129 162.707 243.108C163.599 243.23 164.469 243.463 165.302 243.803C165.16 243.745 165.018 243.687 164.876 243.628C165.691 243.968 166.458 244.406 167.165 244.936C167.041 244.842 166.917 244.748 166.793 244.654C167.531 245.216 168.188 245.87 168.755 246.604C168.657 246.476 168.558 246.349 168.46 246.221C169.011 246.945 169.466 247.733 169.817 248.572C169.756 248.423 169.695 248.274 169.633 248.125C169.986 248.983 170.223 249.879 170.34 250.799C170.321 250.645 170.302 250.49 170.283 250.336C170.388 251.213 170.384 252.096 170.27 252.972C170.291 252.82 170.311 252.668 170.332 252.516C170.21 253.408 169.977 254.277 169.637 255.11C169.695 254.968 169.753 254.826 169.811 254.684C169.472 255.5 169.034 256.267 168.504 256.973C168.598 256.849 168.692 256.725 168.786 256.601C168.224 257.339 167.57 257.997 166.836 258.564C166.964 258.465 167.091 258.367 167.219 258.269C166.361 258.921 165.39 259.427 164.458 259.964C163.049 260.778 161.64 261.591 160.231 262.405C159.297 262.944 158.362 263.484 157.428 264.023C156.579 264.514 156.279 265.632 156.769 266.482C156.928 266.756 157.087 267.031 157.245 267.306C157.518 267.778 157.904 268.046 158.411 268.222C158.571 268.278 158.731 268.334 158.891 268.39C159.692 268.668 160.493 268.947 161.294 269.226C164.107 270.205 166.92 271.184 169.733 272.163C172.806 273.232 175.879 274.302 178.952 275.371C180.66 275.966 182.368 276.56 184.075 277.154C184.113 277.167 184.151 277.181 184.189 277.194C185.116 277.517 186.154 276.816 186.394 275.921C186.517 275.462 186.451 274.967 186.214 274.555C185.961 274.118 185.585 273.878 185.121 273.717C183.77 273.247 182.42 272.777 181.069 272.307C178.101 271.274 175.134 270.241 172.166 269.208C169.206 268.178 166.246 267.148 163.287 266.118C161.96 265.656 160.634 265.194 159.308 264.733C159.672 265.013 160.036 265.292 160.401 265.572C160.23 265.275 160.058 264.978 159.887 264.682C159.667 265.501 159.448 266.321 159.228 267.141C161.436 265.866 163.643 264.592 165.85 263.317C166.694 262.83 167.562 262.369 168.379 261.839C169.469 261.133 170.466 260.261 171.267 259.238C172.142 258.118 172.797 256.939 173.284 255.602C174.142 253.245 174.178 250.537 173.451 248.142C173.068 246.88 172.483 245.658 171.705 244.592C170.847 243.414 169.861 242.45 168.673 241.607C166.639 240.164 164.05 239.43 161.565 239.482C159.446 239.526 157.407 240.147 155.578 241.203C153.144 242.609 150.709 244.015 148.275 245.42C147.878 245.649 147.481 245.878 147.085 246.107C146.235 246.598 145.935 247.716 146.426 248.566C146.916 249.416 148.035 249.715 148.884 249.225Z" fill="white"/>
<path d="M176.764 241.313C175.552 242.013 174.34 242.713 173.127 243.413C170.432 244.969 167.737 246.525 165.041 248.081C162.275 249.678 159.51 251.275 156.744 252.872C155.319 253.694 153.895 254.516 152.471 255.338C152.457 255.347 152.443 255.355 152.428 255.363C151.579 255.854 151.279 256.972 151.77 257.822C152.26 258.672 153.379 258.971 154.228 258.481C155.441 257.781 156.653 257.081 157.865 256.381C160.561 254.825 163.256 253.269 165.951 251.712C168.717 250.116 171.483 248.519 174.249 246.922C175.673 246.1 177.097 245.277 178.521 244.455C178.536 244.447 178.55 244.439 178.564 244.43C179.414 243.94 179.714 242.821 179.223 241.972C178.732 241.122 177.614 240.822 176.764 241.313Z" fill="white"/>
<path d="M148.884 249.224C150.096 248.524 151.309 247.824 152.521 247.124C155.216 245.568 157.912 244.012 160.607 242.456C163.373 240.859 166.139 239.262 168.905 237.665C170.329 236.843 171.753 236.021 173.177 235.199C173.191 235.19 173.206 235.182 173.22 235.174C174.07 234.683 174.369 233.565 173.879 232.715C173.388 231.865 172.27 231.566 171.42 232.056C170.208 232.756 168.995 233.456 167.783 234.156C165.088 235.712 162.392 237.268 159.697 238.824C156.931 240.421 154.165 242.018 151.399 243.615C149.975 244.437 148.551 245.26 147.127 246.082C147.113 246.09 147.098 246.098 147.084 246.106C146.235 246.597 145.935 247.716 146.425 248.565C146.916 249.415 148.034 249.715 148.884 249.224Z" fill="white"/>
<path d="M137.07 105.437C137.201 104.909 125.613 110.675 125.024 111.327C119.589 117.355 121.139 125.224 124.248 125.3C126.242 125.348 125.857 128.665 125.857 128.665L148.077 119.265C148.077 119.265 145.402 103.662 137.07 105.437Z" fill="#2C3A64"/>
<path d="M139.806 106.655C139.806 106.655 140.602 97.9996 130.928 97.9996C130.928 97.9996 133.858 98.7947 135.375 100.385C135.375 100.385 129.205 96.7628 122.493 102.328C115.779 107.894 119.952 121.85 117.91 124.5C115.87 127.151 107.919 127.681 108.891 136.248C109.862 144.815 134.121 155.546 132.562 162.637C132.562 162.637 142.07 148.662 135.271 142.284C135.271 142.284 138.584 145.406 138.923 149.116C138.923 149.116 139.823 141.872 135.213 139.556C131.134 137.506 127.792 130.009 128.147 128.669C128.501 127.325 139.806 106.655 139.806 106.655Z" fill="#2C3A64"/>
<path d="M131.026 147.379C129.534 140.198 120.223 137.97 115.816 143.835C115.023 144.889 114.466 146.136 114.285 147.608C113.279 155.761 126.314 188.965 128.18 191.971C131.579 197.444 151.588 216.208 151.588 216.208L155.276 213.972C155.276 213.972 141.082 189.943 138.884 187.695C136.343 185.095 133.857 161.015 131.026 147.379Z" fill="url(#paint5_linear)"/>
<path d="M131.026 147.379C129.534 140.198 120.223 137.97 115.816 143.835C115.023 144.889 114.466 146.136 114.285 147.608C113.279 155.761 126.314 188.965 128.18 191.971C131.579 197.444 151.588 216.208 151.588 216.208L155.276 213.972C155.276 213.972 141.082 189.943 138.884 187.695C136.343 185.095 133.857 161.015 131.026 147.379Z" fill="black" fill-opacity="0.08"/>
<path d="M150.184 213.983C150.184 213.983 155.567 210.449 157.605 210.676C159.643 210.904 165.541 212.601 165.613 213.468C165.684 214.334 159.042 214.875 158.596 215.35C158.15 215.823 153.638 218.835 152.004 217.891C150.367 216.947 150.184 213.983 150.184 213.983Z" fill="url(#paint6_linear)"/>
<path d="M150.184 213.983C150.184 213.983 155.567 210.449 157.605 210.676C159.643 210.904 165.541 212.601 165.613 213.468C165.684 214.334 159.042 214.875 158.596 215.35C158.15 215.823 153.638 218.835 152.004 217.891C150.367 216.947 150.184 213.983 150.184 213.983Z" fill="black" fill-opacity="0.08"/>
<path d="M112.638 293.828L107.83 293.121C107.83 293.121 91.6613 280.274 89.255 256.297C89.0089 253.857 88.9584 251.381 89.1393 248.885C89.1604 248.596 89.1288 248.308 88.971 248.066C88.971 248.064 88.9689 248.062 88.9647 248.06C88.4473 247.267 87.16 245.279 85.4163 242.452C83.6978 239.668 80.7552 234.403 77.5201 228.496C71.6895 217.857 64.904 205.134 62.5755 201.083C55.1568 188.168 58.7326 179.483 58.7326 179.483C58.7326 179.483 79.4258 177.436 85.0966 172.477L87.139 175.625C87.139 175.625 91.6234 195.475 91.411 195.568C91.6318 196.243 91.8569 196.931 92.0841 197.629C95.622 208.55 99.692 222.201 101.911 233.317C103.158 239.573 103.819 245.023 103.463 248.735C103.341 250.01 103.491 251.966 103.829 254.383C105.834 268.627 112.638 293.828 112.638 293.828Z" fill="#C8D0D9"/>
<path d="M122.726 299.911H102.664C102.664 299.911 102.183 296.853 103.232 294.535C104.236 292.309 105.668 292.238 103.415 288.748C104.69 290.061 108.787 290.603 111.688 290.214C112.043 290.791 113.978 294.657 115.167 295.509C116.475 296.449 122.323 296.114 122.726 299.911Z" fill="#4F2DA6"/>
<path d="M92.0841 197.627C90.3319 207.292 86.1924 223.377 77.5201 228.496C71.6895 217.857 64.904 205.134 62.5755 201.083C55.1568 188.168 58.7326 179.483 58.7326 179.483C58.7326 179.483 79.4258 177.436 85.0966 172.477L87.139 175.625C87.139 175.625 91.6234 195.475 91.411 195.568C91.6318 196.239 91.8569 196.927 92.0841 197.627Z" fill="#BBC5D1"/>
<path d="M128.878 142.924C128.878 142.924 131.715 145.873 133.009 149.407C133.009 149.407 128.484 162.401 117.909 164.029C117.911 164.029 126.278 142.92 128.878 142.924Z" fill="#7654CC"/>
<path d="M78.0146 180.974L78.0819 177.222C70.6064 178.164 52.3048 168.289 52.3048 168.289C52.3048 168.289 44.4843 173.49 43.4137 188.347C42.8921 195.597 39.5855 226.263 39.2195 235.419C39.087 238.738 39.0429 241.106 39.026 242.053C39.0281 242.057 39.0281 242.059 39.026 242.061C39.0218 242.349 38.8851 242.604 38.7084 242.833C37.1624 244.8 35.8205 246.882 34.6573 249.042C23.2506 270.266 29.2158 299.105 29.2158 299.105L31.864 298.432C31.864 298.432 41.5101 268.537 47.814 255.605C48.8846 253.411 49.8564 251.705 50.6683 250.719C53.0389 247.839 55.5377 242.951 58.0008 237.068C62.6577 225.943 67.1779 211.265 70.4024 199.899C70.6359 199.939 78.0146 180.974 78.0146 180.974Z" fill="#D3DBE4"/>
<path d="M121.761 155.931C109.54 153.127 117.348 135.953 118.055 136.256C119.748 135.911 123.467 132.937 126.794 127.132L127.244 127.521L134.749 134.102C134.749 134.102 133.014 136.662 131.554 139.169C130.414 141.132 129.445 143.067 129.598 143.729C130.204 144.205 125.021 156.68 121.761 155.931Z" fill="url(#paint7_linear)"/>
<path opacity="0.1" d="M134.752 134.104C134.752 134.104 133.017 136.66 131.557 139.171C126.89 136.294 126.885 130.518 127.245 127.525L134.752 134.104Z" fill="black"/>
<path d="M134.961 137.4C134.961 137.4 123.63 131.094 127.664 124.099C131.699 117.103 132.954 111.577 140.36 115.306C147.766 119.036 147.619 122.51 146.841 125.171C146.061 127.836 138.011 138.86 134.961 137.4Z" fill="url(#paint8_linear)"/>
<path d="M148.752 121.093C148.233 117.986 146.655 117.689 145.555 117.898C141.369 110.978 134.533 113.678 134.533 113.678C130.882 118.262 125.602 119.042 125.602 119.042C125.602 119.042 126.917 121.488 132.335 123.003C133.991 123.465 135.869 123.186 137.68 122.576C133.921 124.671 129.99 125.474 129.99 125.474C137.129 126.128 143.923 119.601 144.627 118.903C144.958 119.915 145.534 122.033 145.189 123.581C144.72 125.684 142.852 129.496 143.992 129.988C143.992 129.988 149.53 125.752 148.752 121.093Z" fill="#2C3A64"/>
<path d="M45.1725 299.911H25.1103C25.1103 299.911 24.6286 296.853 25.6782 294.535C26.6816 292.309 28.2549 291.297 27.8784 288.603C29.1531 289.916 31.2312 291.386 34.1318 290.995C34.4873 291.571 36.4266 294.655 37.6129 295.506C38.9212 296.449 44.7687 296.114 45.1725 299.911Z" fill="#4F2DA6"/>
<path d="M123.2 169.547C120.619 170.447 116.995 170.941 113.289 171.343C108.014 171.919 102.568 172.313 99.7135 173.451C98.6723 173.865 97.9761 174.378 97.7594 175.032C96.5227 178.751 91.0728 184.489 91.0728 184.489C56.1396 182.899 52.3051 168.287 52.3051 168.287C75.8084 140.957 115.603 133.046 115.603 133.046C115.603 133.046 118.444 131.841 125.602 137.531C130.379 141.33 129.75 142.787 129.75 142.787C129.75 142.787 130.797 166.896 123.2 169.547Z" fill="#4F2DA6"/>
<path d="M113.289 171.343C108.014 171.919 102.568 172.313 99.7139 173.45C98.5487 156.028 106.771 142.924 106.771 142.924C106.771 142.924 112.134 164.751 113.289 171.343Z" fill="#4A2B98"/>
<path d="M118.718 139.552C118.718 139.552 105.496 140.858 104.438 149.449C103.378 158.039 117.113 193.029 119.08 196.199C122.662 201.966 143.748 221.738 143.748 221.738L147.635 219.382C147.635 219.382 132.678 194.062 130.362 191.691C126.725 187.972 123.196 142.528 118.718 139.552Z" fill="url(#paint9_linear)"/>
<path d="M104.818 154.619C104.852 154.814 117.02 158.594 124.849 154.619C124.849 154.619 126.525 136.553 117.175 137.533C107.828 138.513 102.292 141.458 102.056 145.934C101.823 150.408 104.818 154.619 104.818 154.619Z" fill="#7B59D2"/>
<path d="M142.547 219.227C142.547 219.227 147.29 214.871 149.336 214.768C151.385 214.664 157.479 215.388 157.689 216.231C157.899 217.075 151.431 218.68 151.067 219.22C150.704 219.761 146.737 223.459 144.972 222.79C143.205 222.123 142.547 219.227 142.547 219.227Z" fill="url(#paint10_linear)"/>
</g>
<defs>
<linearGradient id="paint0_linear" x1="240" y1="315" x2="240" y2="300.686" gradientUnits="userSpaceOnUse">
<stop stop-color="white"/>
<stop offset="1" stop-color="#54379E"/>
</linearGradient>
<linearGradient id="paint1_linear" x1="271.993" y1="127.285" x2="272.609" y2="135.63" gradientUnits="userSpaceOnUse">
<stop stop-color="#FFE7CE"/>
<stop offset="1" stop-color="#FFDBD7"/>
</linearGradient>
<linearGradient id="paint2_linear" x1="344.34" y1="76.0663" x2="347.511" y2="94.9874" gradientUnits="userSpaceOnUse">
<stop stop-color="#FFE7CE"/>
<stop offset="1" stop-color="#FFDBD7"/>
</linearGradient>
<linearGradient id="paint3_linear" x1="339.725" y1="57.2922" x2="343.44" y2="79.6339" gradientUnits="userSpaceOnUse">
<stop stop-color="#FFE7CE"/>
<stop offset="1" stop-color="#FFDBD7"/>
</linearGradient>
<linearGradient id="paint4_linear" x1="394.18" y1="159.011" x2="397.759" y2="172.009" gradientUnits="userSpaceOnUse">
<stop stop-color="#FFE7CE"/>
<stop offset="1" stop-color="#FFDBD7"/>
</linearGradient>
<linearGradient id="paint5_linear" x1="118.555" y1="150.602" x2="135.9" y2="216.826" gradientUnits="userSpaceOnUse">
<stop stop-color="#FFE7CE"/>
<stop offset="1" stop-color="#FFDBD7"/>
</linearGradient>
<linearGradient id="paint6_linear" x1="151.81" y1="211.656" x2="152.28" y2="218.546" gradientUnits="userSpaceOnUse">
<stop stop-color="#FFE7CE"/>
<stop offset="1" stop-color="#FFDBD7"/>
</linearGradient>
<linearGradient id="paint7_linear" x1="117.036" y1="130.985" x2="122.377" y2="156.824" gradientUnits="userSpaceOnUse">
<stop stop-color="#FFE7CE"/>
<stop offset="1" stop-color="#FFDBD7"/>
</linearGradient>
<linearGradient id="paint8_linear" x1="128.946" y1="117.237" x2="132.422" y2="138.562" gradientUnits="userSpaceOnUse">
<stop stop-color="#FFE7CE"/>
<stop offset="1" stop-color="#FFDBD7"/>
</linearGradient>
<linearGradient id="paint9_linear" x1="108.938" y1="150.538" x2="128.248" y2="222.13" gradientUnits="userSpaceOnUse">
<stop stop-color="#FFE7CE"/>
<stop offset="1" stop-color="#FFDBD7"/>
</linearGradient>
<linearGradient id="paint10_linear" x1="144.143" y1="215.842" x2="144.716" y2="223.38" gradientUnits="userSpaceOnUse">
<stop stop-color="#FFE7CE"/>
<stop offset="1" stop-color="#FFDBD7"/>
</linearGradient>
</defs>
</svg>
