<svg width="320" height="140" viewBox="0 0 320 140" fill="none" xmlns="http://www.w3.org/2000/svg">
<path d="M286.152 137.483C280.95 139.901 90.7911 139.652 67.2598 139.652C57.5144 139.652 48.735 141.477 41.9161 136.77C34.8056 131.859 29.2395 124.759 23.9939 118.96C13.1583 106.984 4.40752 93.8699 3.13078 79.8275C2.64303 74.4436 3.37943 68.7731 7.75002 64.193C12.1206 59.613 20.9287 56.5036 28.8426 58.0863C36.3692 59.5912 43.2359 64.9283 50.4278 62.8408C55.267 61.4357 56.6059 57.4632 57.4953 54.0609C60.8235 41.3084 66.9442 28.2101 81.0888 19.1341C95.2382 10.0613 119.296 6.52499 135.257 14.2176C144.061 18.4611 149.043 25.2471 152.744 31.9645C156.446 38.6819 159.286 45.7108 165.225 51.7054C171.164 57.7 181.125 62.6259 192.061 62.28C201.662 61.9747 209.868 57.7841 216.749 53.4097C223.63 49.0322 230.224 44.1374 239.109 41.7446C247.994 39.3486 260.087 40.4952 264.496 46.0629C268.331 50.9078 265.012 56.7216 262.167 61.8469C258.858 67.8135 256.218 74.1694 257.634 80.4444C259.049 86.7194 265.423 92.8853 274.858 94.4463C283.484 95.8732 292.814 93.3215 301.407 94.8295C314.164 97.0697 319.697 107.747 315.742 115.96C311.788 124.173 301.225 130.23 290.6 135.346C290.6 135.346 290.6 135.346 290.595 135.346C288.897 136.168 287.458 136.876 286.152 137.483Z" fill="#F8F5FF"/>
<path d="M213.027 9.30334C214.756 10.3254 216.006 11.9402 217.008 13.5849C221.229 20.5152 221.852 28.5732 220.269 35.7043C218.689 42.8378 215.076 49.2028 211.238 55.3121C209.659 57.8319 204.666 67.8017 201.405 62.9119C199.229 59.648 200.608 50.2657 200.616 46.7564C200.627 39.8225 201.724 33.0238 203.852 26.6361C204.362 25.0966 211.666 8.49795 213.027 9.30334Z" fill="#EDE6FF"/>
<path d="M208.32 72.4446C220.059 67.5185 233.563 65.551 247.217 66.779C245.464 70.482 241.686 72.8716 237.729 74.5832C228.357 78.6317 220.551 80.732 210.145 82.2721C207.183 82.71 195.872 82.5649 195.77 81.4102C195.445 77.7619 205.345 73.6901 208.32 72.4446Z" fill="#EDE6FF"/>
<path d="M171.444 110.382L170.738 109.743C175.663 105.052 180.307 99.7896 184.539 94.1054C188.54 88.7321 192.289 82.8269 195.678 76.5549C198.861 70.6703 201.821 64.2903 204.476 57.5946C207.005 51.2167 209.272 44.5671 211.217 37.8283C212.764 32.4662 214.563 25.3535 214.75 17.86C214.77 17.0318 214.771 16.1975 214.751 15.38L215.677 15.4803C215.695 16.3111 215.698 17.1576 215.676 17.9991C215.49 25.5797 213.674 32.7504 212.115 38.1536C210.164 44.913 207.888 51.5868 205.349 57.9828C202.683 64.7062 199.709 71.1116 196.518 77.0203C193.112 83.3213 189.347 89.2555 185.324 94.6552C181.069 100.37 176.398 105.66 171.444 110.382Z" fill="#E3DAF9"/>
<path d="M189.571 87.7104C189.567 87.7079 189.559 87.703 189.554 87.7006C189.329 87.5611 189.248 87.2917 189.369 87.1012C191.8 83.302 196.789 80.1159 204.206 77.6317C214.805 74.0838 225.762 70.4146 237.818 70.4446C238.071 70.4462 238.305 70.639 238.338 70.8753C238.371 71.1117 238.193 71.3031 237.939 71.3015C226.038 71.2689 215.15 74.9155 204.621 78.4408C197.379 80.8668 192.522 83.9508 190.185 87.6065C190.064 87.797 189.792 87.8377 189.571 87.7104Z" fill="#E3DAF9"/>
<path fill-rule="evenodd" clip-rule="evenodd" d="M196.548 75.5178C196.578 75.5543 196.612 75.5835 196.65 75.6056C196.765 75.6717 196.902 75.6786 197.005 75.6078C202.364 72.0947 208.299 67.809 212.56 62.2715C212.568 62.2667 212.578 62.2625 212.587 62.2583C212.596 62.2541 212.606 62.25 212.614 62.2452C215.406 60.6231 217.924 58.8964 220.475 57.1215C225.722 53.4708 229.223 49.8745 231.494 45.8043C233.035 43.036 234.632 38.8998 234.256 34.0354C234.361 33.8738 234.286 33.3768 233.89 31.5361L233.794 31.085L233.39 31.2859C226.926 34.4797 223.235 40.4712 220.741 45.3393C219.927 46.9544 219.139 48.6327 218.376 50.2579C216.829 53.554 215.232 56.9564 213.331 60.0433C209.096 66.4202 202.488 71.2345 196.584 75.1038C196.447 75.1938 196.431 75.3778 196.548 75.5178ZM221.332 45.6567C223.72 41.0023 227.212 35.3061 233.199 32.1166C233.259 32.6971 233.48 33.4226 233.583 33.7333C234.028 38.5848 232.436 42.7235 230.902 45.4772C228.676 49.4811 225.222 53.0232 220.037 56.6271C217.906 58.114 215.792 59.5623 213.53 60.9443C213.649 60.7751 213.766 60.6004 213.881 60.4285L213.9 60.4005C215.818 57.2847 217.423 53.8678 218.976 50.5607C219.737 48.9392 220.523 47.2646 221.332 45.6567Z" fill="#E3DAF9"/>
<path d="M269.894 97.8173C268.753 96.307 266.896 95.3083 264.993 94.5382C256.977 91.3138 247.494 91.5622 239.018 93.7781C230.542 95.994 222.893 100.033 215.541 104.256C212.508 105.995 200.557 111.699 206.204 114.243C209.97 115.942 221.094 113.676 225.239 113.308C233.424 112.578 241.486 110.849 249.107 108.196C250.929 107.555 270.791 99.0047 269.894 97.8173Z" fill="#F7F0FF"/>
<path d="M262.711 95.9741C261.733 96.0437 260.732 96.1281 259.737 96.2374C250.783 97.1963 242.255 99.6358 235.817 101.658C227.766 104.182 219.808 107.004 212.165 110.039C204.132 113.229 196.459 116.672 189.369 120.274C188.519 120.706 187.681 121.139 186.842 121.581C187.424 121.611 188.007 121.645 188.589 121.68C189.019 121.457 189.444 121.233 189.881 121.014C196.942 117.432 204.586 113.999 212.584 110.824C220.204 107.799 228.139 104.987 236.16 102.468C242.546 100.465 251.005 98.0409 259.859 97.092C260.837 96.9877 261.821 96.8982 262.787 96.8336L262.711 95.9741Z" fill="#EEE9FA"/>
<path fill-rule="evenodd" clip-rule="evenodd" d="M214.26 96.6945C204.708 103.198 197.169 111.753 190.969 119.424C190.853 119.574 190.853 119.757 190.964 119.891C190.999 119.936 191.045 119.981 191.103 120.016C191.33 120.15 191.645 120.1 191.802 119.906C198.63 111.455 207.094 101.921 218.056 95.3282C223.353 92.3323 229.169 89.6942 234.798 87.1454C237.575 85.8885 240.445 84.5868 243.204 83.2652C251.534 79.216 261.82 73.4031 267.543 64.3062L267.91 63.7398L267.153 63.6752C264.079 63.4218 263.241 63.392 262.967 63.5609C254.794 63.7795 247.739 66.527 243 68.9913C236.02 72.6181 229.78 77.8249 223.353 85.3668C220.233 89.0334 217.189 92.6553 214.307 96.615C214.29 96.6399 214.272 96.6697 214.26 96.6945ZM243.518 69.7216C248.239 67.2673 255.294 64.5297 263.438 64.4105C263.962 64.5049 265.167 64.6937 266.145 64.6838C260.452 73.1448 250.666 78.6496 242.703 82.5249C240.046 83.7977 237.281 85.052 234.597 86.2697L234.32 86.3952L234.319 86.3955C228.667 88.9591 222.828 91.6071 217.479 94.6277C217.165 94.8165 216.85 95.0053 216.542 95.199C218.992 91.9746 221.548 88.939 224.162 85.8735C230.507 78.4211 236.66 73.2889 243.518 69.7216Z" fill="#EDE6FF"/>
<path d="M214.959 95.7457L215.582 96.4214C217.142 95.3681 219.139 93.8627 221.252 92.2629C223.755 90.375 226.34 88.4174 228.237 87.2101C234.431 83.2504 240.811 79.3652 247.209 75.6539C253.607 71.9475 260.19 68.3157 266.786 64.8578L266.262 64.1274C259.655 67.5903 253.054 71.2271 246.644 74.9434C240.235 78.6597 233.837 82.5549 227.632 86.5196C225.705 87.7517 223.103 89.7191 220.582 91.617C218.487 93.2119 216.496 94.7123 214.959 95.7457Z" fill="#EDE6FF"/>
<path d="M205.722 107.274C206.037 103.876 206.789 100.047 209.632 98.8379C210.049 98.6586 210.539 98.5541 210.987 98.7824C211.787 99.1847 211.967 100.329 212.507 101.101C213.643 102.735 216.035 102.163 216.935 100.65C217.834 99.1359 217.823 97.1193 218.273 95.3439C218.666 93.7936 219.42 92.4045 220.459 91.3246C221.818 89.9163 224.416 89.2665 225.721 91.112C226.665 92.453 226.271 94.1827 226.059 95.711C225.847 97.2394 226.193 99.3299 227.631 99.8643C228.868 100.323 229.897 99.2356 230.7 98.3054C232.655 96.0245 235.012 94.1561 237.644 92.7943C239.478 91.8451 241.539 91.1356 243.696 91.5362C245.85 91.9316 248.081 93.7087 248.581 96.0334C249.042 98.2015 247.934 100.185 246.549 101.547C242.776 105.262 237.117 105.964 232.262 107.986C231.115 108.463 229.823 109.531 230.366 110.877C230.748 111.822 231.793 112.193 232.674 112.583C234.817 113.526 236.727 115.324 237.908 117.523C238.109 117.901 238.297 118.307 238.299 118.717C238.311 119.649 237.405 120.138 236.575 120.282C232.728 120.939 228.381 117.88 224.663 118.943C224.166 119.086 223.651 119.349 223.502 119.881C223.395 120.265 223.508 120.714 223.674 121.112C224.355 122.769 225.852 123.901 227.036 125.233C228.221 126.565 229.159 128.616 228.337 129.969C227.717 130.985 226.369 131.132 225.165 131.025C221.461 130.681 217.806 128.71 214.663 126.136C211.848 123.825 208.231 120.591 206.32 117.332C204.525 114.254 205.431 110.398 205.722 107.274Z" fill="#EDE6FF"/>
<path d="M242.527 97.786L202.663 120.802" stroke="#E5DCFF" stroke-linecap="round"/>
<path d="M223.484 92.1023C222.414 98.2682 221.2 104.387 219.843 110.451" stroke="#E5DCFF" stroke-linecap="round"/>
<path d="M210.316 101.097C209.947 106.358 209.457 111.592 208.856 116.795" stroke="#E5DCFF" stroke-linecap="round"/>
<path d="M218.126 112.465C223.481 114.105 228.823 115.835 234.148 117.658" stroke="#E5DCFF" stroke-linecap="round"/>
<path d="M74.3051 26.4682C72.6708 27.4009 71.5117 28.8887 70.5976 30.4064C66.7455 36.7813 66.3951 44.2136 68.1472 50.8045C69.8977 57.3911 73.5912 63.2801 77.4903 68.9373C79.0974 71.2695 84.2316 80.4887 87.228 75.9908C89.2246 72.9895 87.594 64.3271 87.4791 61.0854C87.2506 54.6823 85.9761 48.4078 83.7165 42.5061C83.1753 41.0803 75.5981 25.7311 74.3051 26.4682Z" fill="#EDE6FF"/>
<path d="M80.855 84.7539C69.3644 80.161 56.266 78.2899 43.1187 79.3633C44.9282 82.7877 48.6534 85.0104 52.5283 86.6029C61.7078 90.3762 69.3067 92.3501 79.4058 93.8091C82.2781 94.2246 93.1926 94.14 93.2564 93.0745C93.4551 89.7139 83.7716 85.9194 80.855 84.7539Z" fill="#EDE6FF"/>
<path d="M117.667 119.914L118.33 119.33C113.424 114.982 108.773 110.107 104.508 104.84C100.473 99.8656 96.6721 94.4012 93.1946 88.6001C89.9366 83.157 86.8747 77.257 84.0979 71.0676C81.4557 65.1719 79.0521 59.0275 76.9595 52.8033C75.2962 47.8504 73.3338 41.279 72.9123 34.3609C72.8682 33.5965 72.839 32.8267 72.8321 32.0726L71.9433 32.1581C71.9498 32.9267 71.9772 33.7067 72.0258 34.4837C72.4471 41.478 74.4246 48.1058 76.1016 53.0965C78.2019 59.3418 80.6082 65.5089 83.2629 71.4239C86.0489 77.6384 89.1249 83.5618 92.397 89.0284C95.8852 94.8589 99.7117 100.347 103.763 105.35C108.051 110.637 112.729 115.539 117.667 119.914Z" fill="#E5DBFE"/>
<path d="M99.4439 98.922C99.4488 98.9202 99.4537 98.9184 99.4571 98.9124C99.6668 98.7838 99.7441 98.5367 99.6196 98.3631C97.1516 94.8453 92.2328 91.8863 84.9968 89.5614C74.6497 86.2416 63.9554 82.8102 52.3175 82.7917C52.0718 82.7907 51.8529 82.9704 51.83 83.1833C51.8037 83.4023 51.9802 83.5807 52.2244 83.5775C63.7125 83.5982 74.3423 87.0054 84.6199 90.3029C91.6897 92.5694 96.4739 95.4346 98.849 98.8197C98.9702 98.9993 99.2296 99.0381 99.4439 98.922Z" fill="#E5DBFE"/>
<path fill-rule="evenodd" clip-rule="evenodd" d="M69.5814 70.1409C75.7005 77.455 84.0741 83.1349 91.6172 87.7893C91.7615 87.8795 91.9537 87.8715 92.0956 87.7865C92.1467 87.7584 92.1948 87.7219 92.2333 87.6745C92.384 87.4912 92.3571 87.2487 92.163 87.129C83.8515 82.0024 74.5324 75.6245 68.4065 67.204C65.652 63.129 63.2914 58.6346 61.0134 54.2909C59.8933 52.1479 58.7293 49.9304 57.5357 47.7998C53.8774 41.3793 48.5208 33.464 39.4726 29.2242L38.906 28.9545L38.7945 29.5519C38.3363 31.9695 38.2526 32.6282 38.4072 32.8384C38.1116 39.2418 40.4987 44.6974 42.7488 48.3517C46.0589 53.7235 51.0464 58.4801 58.4437 63.3161C62.0358 65.6634 65.5852 67.9549 69.5024 70.1077C69.5298 70.1216 69.5556 70.1312 69.5814 70.1409ZM43.5448 47.9192C41.3074 44.2841 38.9252 38.8267 39.3212 32.4391C39.4496 32.0259 39.7224 31.0748 39.7712 30.3052C48.1638 34.5362 53.2334 42.0611 56.7354 48.2053C57.8485 50.1893 58.9313 52.2508 59.9869 54.2605C60.0604 54.4005 60.1337 54.5402 60.207 54.6796L60.2169 54.6984C62.5043 59.0554 64.8668 63.5554 67.6489 67.6654C67.8255 67.9056 68.0022 68.1459 68.1838 68.3844C65.0028 66.5537 62.0273 64.6291 59.0203 62.6636C51.7176 57.8884 46.8001 53.2016 43.5448 47.9192Z" fill="#EDE6FF"/>
<path d="M68.6482 69.6145L69.3841 69.1087C68.3981 67.9162 66.961 66.3882 65.4413 64.7714C63.647 62.8595 61.7907 60.8845 60.6594 59.4308C56.9573 54.6822 53.3434 49.7779 49.9152 44.863C46.4871 39.9482 43.1521 34.8756 39.9995 29.7986L39.2084 30.2293C42.3656 35.319 45.7135 40.3963 49.1462 45.3238C52.5789 50.2512 56.2008 55.1622 59.9125 59.9215C61.0643 61.4011 62.9317 63.3911 64.7404 65.312C66.2456 66.9199 67.6732 68.437 68.6482 69.6145Z" fill="#EDE6FF"/>
<path d="M143.285 67.2073C148.451 61.2776 156.129 57.6296 164.009 54.7538C169.374 68.127 165.824 82.8485 155.303 90.8757C153.467 92.2738 151.391 93.5019 148.934 93.9424C142.203 95.1425 138.637 90.5997 137.983 85.2137C137.144 78.3573 138.972 72.163 143.285 67.2073Z" fill="#F7F0FF"/>
<path d="M161.915 59.6793L138.69 99.9077" stroke="#F0E4FD" stroke-linecap="round"/>
<path d="M153.877 60.0627C154.004 63.5746 154.175 67.0919 154.392 70.6147" stroke="#F0E4FD" stroke-linecap="round"/>
<path d="M151.375 78.5442C155.626 77.6265 159.757 76.3919 163.714 74.8505" stroke="#F0E4FD" stroke-linecap="round"/>
<path d="M107.353 44.0516C109.047 44.2317 110.678 45.2014 112.155 46.313C118.358 51.0026 122.563 58.4339 124.782 66.0002C127.002 73.5666 127.431 81.3404 127.581 88.9704C127.646 92.1164 128.786 103.981 124.206 100.804C121.149 98.6855 117.74 89.0526 116.102 85.6845C112.871 79.0313 110.467 72.0096 108.982 64.9008C108.632 63.1979 106.021 43.9104 107.353 44.0516Z" fill="#EDE6FF"/>
<path d="M112.105 48.7391C112.504 49.5259 112.903 50.3375 113.281 51.1562C116.691 58.5081 118.763 66.2185 120.187 72.1231C121.972 79.5044 123.484 86.952 124.685 94.2561C125.948 101.933 126.849 109.448 127.356 116.588C127.417 117.444 127.472 118.291 127.52 119.143C127.227 118.708 126.93 118.275 126.633 117.842C126.606 117.406 126.582 116.974 126.548 116.536C126.038 109.428 125.144 101.939 123.885 94.2966C122.687 87.0151 121.178 79.59 119.403 72.2335C117.987 66.3785 115.937 58.729 112.565 51.458C112.192 50.6551 111.805 49.8546 111.407 49.0792L112.105 48.7391Z" fill="#E2EEFF"/>
<path fill-rule="evenodd" clip-rule="evenodd" d="M134.009 86.4532C133.42 96.838 130.314 106.62 127.27 114.959C127.209 115.118 127.067 115.203 126.912 115.18C126.861 115.174 126.805 115.159 126.752 115.13C126.543 115.017 126.435 114.751 126.512 114.54C129.867 105.355 133.299 94.4047 133.304 82.8916C133.159 77.4158 132.499 71.7062 131.856 66.1817C131.538 63.4567 131.212 60.6392 130.953 57.8977C130.215 49.5938 129.931 38.9632 134.297 30.3314L134.564 29.7859L134.964 30.3398C136.585 32.5937 136.996 33.2266 136.993 33.5159C140.613 39.9229 141.764 46.6398 142.059 51.438C142.497 58.5042 141.373 65.7324 138.533 74.1868C137.151 78.2938 135.768 82.3217 134.049 86.3804C134.038 86.4054 134.023 86.4327 134.009 86.4532ZM141.256 51.3768C140.961 46.5967 139.802 39.8844 136.119 33.546C135.803 33.1856 135.099 32.3434 134.653 31.5843C130.765 39.8989 131.054 50.0004 131.756 57.9408C132.005 60.58 132.319 63.2945 132.624 65.9299L132.656 66.2022L132.656 66.2029C133.298 71.7521 133.962 77.484 134.111 83.0114L134.111 83.0115C134.111 83.3416 134.111 83.6716 134.105 83.9994C135.457 80.6139 136.614 77.235 137.767 73.7975C140.575 65.4474 141.683 58.3211 141.256 51.3768Z" fill="#CDBFEF"/>
<path d="M134.417 85.4743L133.607 85.307C133.697 83.6151 133.933 81.3768 134.187 79.0049C134.483 76.1985 134.795 73.297 134.847 71.2732C135.031 64.659 135.071 57.9356 134.968 51.2794C134.862 44.6254 134.612 37.8623 134.222 31.1709L135.029 31.2365C135.42 37.9393 135.674 44.7181 135.778 51.3857C135.882 58.0532 135.843 64.7946 135.661 71.4201C135.603 73.4779 135.292 76.3975 134.996 79.2219C134.737 81.5781 134.502 83.8096 134.417 85.4743Z" fill="#CDBFEF"/>
<path d="M113.748 112.163C107.132 103.363 104.371 91.7863 102.727 80.1585C122.602 76.7038 141.728 85.8509 149.658 102.595C151.038 105.516 152.116 108.717 152.004 112.209C151.688 121.776 144.429 125.337 136.863 124.665C127.235 123.813 119.279 119.512 113.748 112.163Z" fill="#F7F0FF"/>
<path d="M108.863 84.4591L154.64 125.678" stroke="#F0E8FC" stroke-linecap="round"/>
<path d="M107.048 95.5781C111.894 96.4274 116.76 97.2164 121.648 97.9449" stroke="#F0E8FC" stroke-linecap="round"/>
<path d="M131.628 104.385C131.609 98.2968 131.12 92.2803 130.161 86.4124" stroke="#F0E8FC" stroke-linecap="round"/>
<path d="M128.837 130.648C126.334 132.381 123.283 134.068 120.818 132.815C120.457 132.633 120.104 132.359 119.997 131.92C119.815 131.142 120.489 130.363 120.713 129.544C121.175 127.83 119.414 126.521 117.863 126.777C116.312 127.034 114.934 128.196 113.46 128.909C112.173 129.531 110.787 129.811 109.457 129.719C107.714 129.6 105.778 128.191 106.289 126.241C106.663 124.822 108.078 124.102 109.243 123.371C110.409 122.64 111.64 121.199 111.181 119.906C110.785 118.796 109.449 118.716 108.351 118.702C105.666 118.669 103.033 118.132 100.595 117.114C98.8951 116.401 97.2253 115.401 96.2579 113.697C95.2905 111.994 95.2247 109.449 96.5291 107.773C97.7485 106.211 99.7406 105.832 101.472 105.997C106.182 106.447 109.908 109.91 114.08 112.076C115.066 112.587 116.538 112.854 117.144 111.716C117.573 110.913 117.224 109.98 116.984 109.158C116.394 107.149 116.533 104.809 117.36 102.742C117.501 102.386 117.67 102.026 117.949 101.786C118.58 101.246 119.438 101.58 120.01 102.071C122.668 104.325 123.073 109.057 125.934 110.992C126.316 111.254 126.796 111.451 127.241 111.25C127.569 111.1 127.808 110.766 127.988 110.424C128.727 109.008 128.641 107.335 128.88 105.758C129.112 104.185 129.973 102.363 131.371 102.152C132.422 101.99 133.294 102.831 133.914 103.717C135.81 106.449 136.557 110.085 136.596 113.71C136.633 116.964 136.495 121.295 135.361 124.478C134.302 127.457 131.142 129.053 128.837 130.648Z" fill="#F2ECFF"/>
<path d="M102.051 111.744L135.111 123.777" stroke="#EFE7FE" stroke-linecap="round"/>
<path d="M110.327 126.527C112.316 125.354 114.303 124.174 116.292 123.001" stroke="#EFE7FE" stroke-linecap="round"/>
<path d="M118.848 121.243C119.91 120.693 120.967 120.14 122.029 119.59" stroke="#EFE7FE" stroke-linecap="round"/>
<path d="M122.615 130.025C125.975 127.797 129.358 125.621 132.772 123.5" stroke="#EFE7FE" stroke-linecap="round"/>
<path d="M127.564 120.739C125.357 116.718 123.199 112.663 121.085 108.573" stroke="#EFE7FE" stroke-linecap="round"/>
<path fill-rule="evenodd" clip-rule="evenodd" d="M128.387 65.9761C128.333 65.8071 128.304 65.6275 128.304 65.4414V56.2781C128.304 52.2641 131.668 49 135.804 49H180.804C184.941 49 188.304 52.2641 188.304 56.2781V65.4414C188.304 65.6275 188.276 65.8071 188.222 65.9761C188.276 66.1503 188.304 66.3354 188.304 66.5272V122.572V122.777V131.669C188.304 135.712 184.941 139 180.804 139H135.804C131.668 139 128.304 135.712 128.304 131.669V122.777V122.572V66.5272C128.304 66.3354 128.333 66.1503 128.387 65.9761Z" fill="#D7C1FF"/>
<path fill-rule="evenodd" clip-rule="evenodd" d="M130.913 120.739H185.696V67.261H130.913V120.739Z" fill="#E2D2FF"/>
<path fill-rule="evenodd" clip-rule="evenodd" d="M130.913 123.348V132.017C130.913 134.429 132.669 136.391 134.826 136.391H181.783C183.94 136.391 185.696 134.429 185.696 132.017V123.348H130.913Z" fill="#E2D2FF"/>
<path fill-rule="evenodd" clip-rule="evenodd" d="M130.913 64.6521H185.696V55.9304C185.696 53.548 183.94 51.6086 181.783 51.6086H134.826C132.669 51.6086 130.913 53.548 130.913 55.9304V64.6521Z" fill="#E2D2FF"/>
<path d="M166.13 129.87C166.13 131.31 164.962 132.478 163.522 132.478H153.087C151.646 132.478 150.478 131.31 150.478 129.87C150.478 128.429 151.646 127.261 153.087 127.261H163.522C164.962 127.261 166.13 128.429 166.13 129.87Z" fill="#BA8EE0"/>
<path fill-rule="evenodd" clip-rule="evenodd" d="M159.609 59.4349C160.329 59.4349 160.913 58.8509 160.913 58.1305C160.913 57.4101 160.329 56.8262 159.609 56.8262H150.478C149.758 56.8262 149.174 57.4101 149.174 58.1305C149.174 58.8509 149.758 59.4349 150.478 59.4349H159.609ZM167.435 59.4349C168.155 59.4349 168.739 58.8509 168.739 58.1305C168.739 57.4101 168.155 56.8262 167.435 56.8262H164.826C164.106 56.8262 163.522 57.4101 163.522 58.1305C163.522 58.8509 164.106 59.4349 164.826 59.4349H167.435Z" fill="#BA8EE0"/>
<path opacity="0.5" d="M71 68C71 65.7909 72.7909 64 75 64H145C147.209 64 149 65.7909 149 68V104C149 106.209 147.209 108 145 108H75C72.7909 108 71 106.209 71 104V68Z" fill="#E8EFFB"/>
<path d="M72 67C72 64.7909 73.7909 63 76 63H146C148.209 63 150 64.7909 150 67V103C150 105.209 148.209 107 146 107H76C73.7909 107 72 105.209 72 103V67Z" fill="white"/>
<path fill-rule="evenodd" clip-rule="evenodd" d="M118.736 81.3589C118.963 81.2471 119.135 81.0544 119.305 80.8485C119.512 80.5978 119.715 80.3596 119.966 80.1559C120.267 79.912 120.67 79.6786 121.177 79.6047C121.077 80.1748 121.025 80.7607 121.024 81.3589H118.736ZM120.442 75.0743L120.443 75.0746L120.443 75.0742C120.696 75.0894 120.942 75.0071 121.193 74.9126C121.5 74.7976 121.797 74.6916 122.117 74.6391C122.504 74.5762 122.974 74.5733 123.452 74.7622C122.694 75.6582 122.086 76.6829 121.668 77.7986C121.266 77.4845 121.035 77.0833 120.898 76.7232C120.784 76.4227 120.728 76.1163 120.676 75.797C120.633 75.5348 120.583 75.2833 120.442 75.0743ZM125.105 70.4736L125.105 70.4738V70.4735C125.316 70.6117 125.571 70.6619 125.837 70.7041C126.161 70.7557 126.471 70.8101 126.775 70.923C127.142 71.0591 127.55 71.2885 127.869 71.6883C126.738 72.0987 125.698 72.6974 124.789 73.445C124.597 72.9723 124.6 72.5079 124.664 72.1262C124.717 71.8096 124.824 71.5169 124.941 71.2146C125.037 70.9666 125.12 70.7236 125.105 70.4736ZM131.473 68.7896V68.7899L131.473 68.7896C131.586 69.0138 131.782 69.183 131.991 69.3504C132.245 69.5549 132.486 69.7552 132.692 70.0032C132.941 70.3024 133.179 70.7032 133.252 71.2078C132.674 71.1099 132.08 71.0583 131.473 71.0583C130.867 71.0583 130.272 71.1099 129.694 71.2079C129.767 70.7032 130.005 70.3024 130.254 70.0032C130.46 69.7552 130.702 69.5549 130.956 69.3504C131.164 69.183 131.36 69.0138 131.473 68.7896ZM137.841 70.4735V70.4738L137.842 70.4736C137.826 70.7235 137.91 70.9665 138.006 71.2146C138.122 71.5169 138.23 71.8096 138.283 72.1262C138.346 72.5077 138.349 72.9722 138.157 73.4449C137.248 72.6973 136.208 72.0988 135.077 71.6882C135.396 71.2885 135.804 71.0591 136.171 70.923C136.475 70.81 136.786 70.7556 137.109 70.704C137.375 70.6619 137.63 70.6117 137.841 70.4735ZM142.504 75.0741L142.503 75.0743H142.504C142.364 75.2832 142.313 75.5348 142.27 75.797C142.218 76.1162 142.163 76.4227 142.048 76.7231C141.911 77.0832 141.68 77.4844 141.278 77.7985C140.861 76.6828 140.253 75.6581 139.494 74.7621C139.973 74.5733 140.442 74.5761 140.829 74.639C141.15 74.6915 141.446 74.7975 141.753 74.9125C142.004 75.0071 142.25 75.0894 142.504 75.0741ZM141.769 79.6046C142.276 79.6786 142.679 79.9119 142.98 80.1559C143.232 80.3595 143.435 80.5977 143.642 80.8485C143.811 81.0543 143.983 81.2471 144.21 81.3589H141.922C141.922 80.7607 141.869 80.1748 141.769 79.6046ZM134.51 72.3255C138.356 73.5791 141.135 77.148 141.151 81.3591H139.248C139.374 77.6806 137.747 74.3605 134.51 72.3255Z" fill="#FAB401"/>
<path fill-rule="evenodd" clip-rule="evenodd" d="M134.898 81.3582H135.887C135.934 80.2978 135.842 79.0415 135.495 77.9444C135.426 77.728 135.347 77.5178 135.258 77.3172C135.048 76.8432 134.765 76.414 134.427 76.0174C134.052 75.577 133.604 75.1808 133.1 74.8687C132.951 74.7766 132.797 74.6916 132.638 74.6148V74.6146C132.48 74.5383 132.316 74.4702 132.148 74.4112L132.147 74.4109C130.222 73.7362 128.274 74.2161 126.64 75.0932C126.321 75.2641 126.015 75.4501 125.723 75.6455C125.431 75.8407 125.153 76.0458 124.892 76.2549H124.892L124.891 76.2554C124.581 76.5037 124.193 76.8433 123.809 77.2449C123.733 77.3239 123.659 77.4044 123.586 77.4859C123.392 77.7032 123.092 78.008 123.181 78.3233C123.251 78.5734 123.578 78.4996 123.692 78.4134C123.867 78.321 124.059 78.1743 124.223 78.0371C124.445 77.8513 124.655 77.6514 124.876 77.463C125.766 76.7012 126.694 76.1137 127.609 75.716C127.808 75.6295 128.007 75.5514 128.206 75.4826C128.404 75.4138 128.602 75.3543 128.797 75.3043L128.798 75.3041C130.499 74.868 132.348 75.1505 133.532 76.5196C134.672 77.8385 134.88 79.604 134.898 81.3582ZM122.627 79.8675C122.733 79.7696 122.841 79.6419 122.954 79.5004C123.112 79.3028 123.128 79.1115 123.066 78.9734C123.042 78.9218 123.008 78.8775 122.966 78.843C122.925 78.809 122.876 78.7846 122.823 78.7728C122.695 78.7437 122.541 78.7891 122.41 78.946C122.263 79.1235 122.058 79.4267 122.017 79.6949C122.009 79.7452 122.007 79.7941 122.012 79.8399C122.017 79.8847 122.029 79.927 122.05 79.9657L122.05 79.9662L122.05 79.9661C122.083 80.0291 122.139 80.0623 122.214 80.0651C122.23 80.0656 122.247 80.065 122.265 80.0629C122.282 80.0611 122.301 80.0577 122.321 80.053V80.0531L122.322 80.0529C122.423 80.0291 122.524 79.9623 122.627 79.8675ZM132.885 81.3582H133.866C133.913 80.2154 133.726 79.035 133.188 78.0136C132.698 77.0845 131.888 76.4529 130.84 76.3002C129.31 76.0775 127.766 76.7166 126.461 77.6312C125.04 78.6269 123.867 79.9791 122.842 81.3582L124.137 81.3565C125.304 79.7249 127.987 77.248 129.961 77.2318C130.59 77.2266 131.229 77.3724 131.702 77.7887C132.044 78.0903 132.46 78.6761 132.439 79.1514C132.427 79.4334 132.174 79.5198 131.931 79.4325C131.742 79.3646 131.608 79.1942 131.476 79.0152C131.047 78.4334 130.377 78.1486 129.642 78.2478C128.766 78.3661 127.68 79.0375 126.979 79.6482C126.375 80.1749 125.82 80.7514 125.297 81.3582H126.69C127.201 80.7501 127.74 80.2314 128.433 79.8053C128.652 79.6705 128.922 79.5279 129.206 79.4317C129.922 79.1886 130.635 79.2502 130.951 80.1302C131.076 80.4761 131.094 80.7795 131.058 81.3357L131.058 81.3582H132.005L132.007 81.3297C132.008 81.0253 132.001 80.8201 132.029 80.5183C132.053 80.2581 132.135 79.9885 132.38 79.9566C132.9 79.849 132.875 80.9912 132.885 81.3582ZM126.209 84.312H125.439L125.248 84.9739H124.635L125.446 82.4394H126.224L127.058 84.9739H126.418L126.209 84.312ZM125.526 83.8833H126.117C125.962 83.3883 125.862 83.0485 125.816 82.8643H125.808L125.687 83.3457L125.526 83.8833ZM123.381 84.312H122.612L122.421 84.9739H121.808L122.619 82.4394H123.397L124.231 84.9739H123.591L123.381 84.312ZM122.699 83.8833H123.29C123.135 83.3883 123.035 83.0485 122.989 82.8643H122.981L122.859 83.3457L122.699 83.8833ZM127.645 84.9626V82.4731C127.899 82.4356 128.171 82.4169 128.46 82.4169C129.008 82.4169 129.401 82.5295 129.639 82.7559C129.877 82.9821 129.996 83.2779 129.996 83.6427C129.996 84.0739 129.861 84.408 129.59 84.6449C129.318 84.8818 128.9 85.0002 128.335 85.0002C128.073 85.0002 127.843 84.9877 127.645 84.9626ZM128.236 82.8869V84.5376C128.269 84.5452 128.34 84.549 128.449 84.549C128.742 84.549 128.97 84.4725 129.13 84.3202C129.291 84.1679 129.371 83.9498 129.371 83.6653C129.371 83.4045 129.298 83.2059 129.151 83.0693C129.005 82.9326 128.793 82.8643 128.517 82.8643C128.402 82.8643 128.308 82.8719 128.236 82.8869ZM130.628 82.4394H131.219V83.4132H132.229V82.4394H132.819V84.9739H132.229V83.9173H131.219V84.9739H130.628V82.4394ZM134.961 84.312H134.191L134 84.9739H133.387L134.199 82.4394H134.976L135.81 84.9739H135.17L134.961 84.312ZM134.279 83.8833H134.869C134.714 83.3883 134.614 83.0485 134.568 82.8643H134.561L134.439 83.3457L134.279 83.8833ZM137.788 84.312H137.018L136.828 84.9739H136.214L137.026 82.4394H137.803L138.638 84.9739H137.997L137.788 84.312ZM137.106 83.8833H137.696C137.541 83.3883 137.441 83.0485 137.395 82.8643H137.388L137.266 83.3457L137.106 83.8833ZM139.224 84.9739V82.4731C139.44 82.4356 139.706 82.4169 140.021 82.4169C140.409 82.4169 140.689 82.4801 140.859 82.6067C141.029 82.7333 141.114 82.9145 141.114 83.1501C141.114 83.2905 141.072 83.4171 140.986 83.5305C140.9 83.6439 140.789 83.7242 140.653 83.7706V83.7856C140.813 83.8445 140.929 83.9999 141 84.2518C141.131 84.7057 141.202 84.9463 141.213 84.9739H140.611C140.56 84.88 140.499 84.6831 140.428 84.3836C140.393 84.2331 140.344 84.1279 140.284 84.0677C140.222 84.0075 140.125 83.9774 139.99 83.9774H139.807V84.9739H139.224ZM139.807 82.8643V83.56H140.051C140.198 83.56 140.315 83.5267 140.4 83.4609C140.485 83.3951 140.527 83.3068 140.527 83.1952C140.527 83.0836 140.489 82.9971 140.412 82.9364C140.336 82.8755 140.226 82.8454 140.085 82.8454C139.947 82.8454 139.854 82.8518 139.807 82.8643ZM129.35 81.3606L130.136 81.3582C130.239 80.703 130.037 80.1985 129.366 80.3187C128.799 80.4203 128.191 80.9752 127.824 81.3582L128.861 81.3538C128.976 81.2788 129.202 81.1934 129.295 81.257C129.33 81.2808 129.348 81.3146 129.35 81.3606ZM137.371 81.3588L137.378 81.3585H137.382C137.485 81.3641 137.665 81.317 137.769 81.1446C137.789 81.1101 137.807 81.0707 137.82 81.026C137.834 80.9805 137.844 80.9289 137.848 80.8709H137.848L137.848 80.8589C137.927 78.1483 137.086 75.9045 135.657 74.3799C135.38 74.0839 135.08 73.8147 134.76 73.5742C134.44 73.334 134.101 73.1227 133.745 72.9427V72.9428L133.739 72.9399L133.739 72.9398C132.539 72.3344 131.177 72.1018 129.841 72.2136C129.58 72.2354 129.321 72.2701 129.065 72.3176C128.808 72.365 128.554 72.4257 128.303 72.4986L128.299 72.4997C126.925 72.9009 125.646 73.6972 124.604 74.7422C124.401 74.9458 124.207 75.1586 124.023 75.3793C123.932 75.489 123.843 75.6008 123.757 75.7142C124.488 75.0919 125.272 74.5461 126.092 74.1123C126.277 74.0146 126.463 73.9229 126.649 73.8378C126.836 73.7526 127.025 73.6731 127.216 73.5999L127.216 73.5997L127.217 73.5994C127.941 73.3216 128.656 73.1442 129.37 73.065C130.085 72.9858 130.8 73.0047 131.526 73.1186C132.043 73.1998 132.547 73.3332 133.001 73.52C133.089 73.5561 133.176 73.5948 133.261 73.6353C133.345 73.6754 133.427 73.7182 133.508 73.7631H133.508L133.509 73.7638V73.7639C135.109 74.6282 136.22 76.4019 136.71 78.4044C136.805 78.795 136.877 79.1939 136.924 79.5958C136.971 79.9976 136.994 80.4036 136.991 80.8091V80.8093L136.991 80.8325C136.999 81.0495 137.074 81.2309 137.203 81.3126C137.227 81.3277 137.253 81.3396 137.281 81.3472H137.281C137.31 81.3551 137.34 81.3591 137.371 81.3588Z" fill="#D32828"/>
<rect x="78.9469" y="94.2632" width="27.7895" height="2.31579" rx="1.15789" fill="#EDE6FF"/>
<rect x="78.9469" y="88.4736" width="27.7895" height="2.31579" rx="1.15789" fill="#EDE6FF"/>
<rect x="78.9469" y="82.6843" width="34.7368" height="2.31579" rx="1.15789" fill="#EDE6FF"/>
<path d="M79.156 75.7368C79.1029 75.7368 79.0531 75.719 79.0066 75.6834C78.9668 75.6477 78.9469 75.6032 78.9469 75.5498C78.9469 75.4963 78.9701 75.4429 79.0166 75.3894L80.7489 73.3676L79.1261 71.4526C79.0796 71.4051 79.0564 71.3516 79.0564 71.2923C79.0564 71.2388 79.0763 71.1943 79.1161 71.1587C79.156 71.123 79.2057 71.1052 79.2655 71.1052H79.7732C79.8728 71.1052 79.9591 71.1527 80.0321 71.2477L81.3562 72.7886L82.6803 71.2566C82.7201 71.2091 82.7566 71.1735 82.7898 71.1498C82.8296 71.1201 82.8794 71.1052 82.9391 71.1052H83.4269C83.4867 71.1052 83.5364 71.123 83.5763 71.1587C83.6161 71.1943 83.636 71.2388 83.636 71.2923C83.636 71.3516 83.6128 71.4051 83.5663 71.4526L81.9236 73.3854L83.6559 75.3894C83.7024 75.4429 83.7256 75.4963 83.7256 75.5498C83.7256 75.6032 83.7057 75.6477 83.6659 75.6834C83.626 75.719 83.5763 75.7368 83.5165 75.7368H82.9889C82.8893 75.7368 82.803 75.6923 82.73 75.6032L81.3362 73.9732L79.9225 75.6032C79.8827 75.6448 79.8429 75.6774 79.8031 75.7012C79.7699 75.7249 79.7234 75.7368 79.6637 75.7368H79.156Z" fill="#4F2DA7"/>
<path d="M86.0543 75.7368C86.0012 75.7368 85.9514 75.719 85.905 75.6834C85.8651 75.6477 85.8452 75.6032 85.8452 75.5498C85.8452 75.4963 85.8685 75.4429 85.9149 75.3894L87.6472 73.3676L86.0244 71.4526C85.978 71.4051 85.9547 71.3516 85.9547 71.2923C85.9547 71.2388 85.9747 71.1943 86.0145 71.1587C86.0543 71.123 86.1041 71.1052 86.1638 71.1052H86.6715C86.7711 71.1052 86.8574 71.1527 86.9304 71.2477L88.2545 72.7886L89.5786 71.2566C89.6184 71.2091 89.6549 71.1735 89.6881 71.1498C89.7279 71.1201 89.7777 71.1052 89.8374 71.1052H90.3253C90.385 71.1052 90.4348 71.123 90.4746 71.1587C90.5144 71.1943 90.5343 71.2388 90.5343 71.2923C90.5343 71.3516 90.5111 71.4051 90.4646 71.4526L88.822 73.3854L90.5542 75.3894C90.6007 75.4429 90.6239 75.4963 90.6239 75.5498C90.6239 75.6032 90.604 75.6477 90.5642 75.6834C90.5244 75.719 90.4746 75.7368 90.4149 75.7368H89.8872C89.7877 75.7368 89.7014 75.6923 89.6284 75.6032L88.2346 73.9732L86.8209 75.6032C86.7811 75.6448 86.7412 75.6774 86.7014 75.7012C86.6682 75.7249 86.6218 75.7368 86.562 75.7368H86.0543Z" fill="#4F2DA7"/>
<path d="M92.9526 75.7368C92.8995 75.7368 92.8498 75.719 92.8033 75.6834C92.7635 75.6477 92.7436 75.6032 92.7436 75.5498C92.7436 75.4963 92.7668 75.4429 92.8132 75.3894L94.5455 73.3676L92.9228 71.4526C92.8763 71.4051 92.8531 71.3516 92.8531 71.2923C92.8531 71.2388 92.873 71.1943 92.9128 71.1587C92.9526 71.123 93.0024 71.1052 93.0621 71.1052H93.5699C93.6694 71.1052 93.7557 71.1527 93.8287 71.2477L95.1528 72.7886L96.4769 71.2566C96.5167 71.2091 96.5532 71.1735 96.5864 71.1498C96.6262 71.1201 96.676 71.1052 96.7358 71.1052H97.2236C97.2833 71.1052 97.3331 71.123 97.3729 71.1587C97.4127 71.1943 97.4327 71.2388 97.4327 71.2923C97.4327 71.3516 97.4094 71.4051 97.363 71.4526L95.7203 73.3854L97.4526 75.3894C97.499 75.4429 97.5223 75.4963 97.5223 75.5498C97.5223 75.6032 97.5023 75.6477 97.4625 75.6834C97.4227 75.719 97.3729 75.7368 97.3132 75.7368H96.7855C96.686 75.7368 96.5997 75.6923 96.5267 75.6032L95.1329 73.9732L93.7192 75.6032C93.6794 75.6448 93.6396 75.6774 93.5997 75.7012C93.5666 75.7249 93.5201 75.7368 93.4604 75.7368H92.9526Z" fill="#4F2DA7"/>
<path d="M99.851 75.7368C99.7979 75.7368 99.7481 75.719 99.7016 75.6834C99.6618 75.6477 99.6419 75.6032 99.6419 75.5498C99.6419 75.4963 99.6651 75.4429 99.7116 75.3894L101.444 73.3676L99.8211 71.4526C99.7746 71.4051 99.7514 71.3516 99.7514 71.2923C99.7514 71.2388 99.7713 71.1943 99.8111 71.1587C99.851 71.123 99.9007 71.1052 99.9605 71.1052H100.468C100.568 71.1052 100.654 71.1527 100.727 71.2477L102.051 72.7886L103.375 71.2566C103.415 71.2091 103.452 71.1735 103.485 71.1498C103.525 71.1201 103.574 71.1052 103.634 71.1052H104.122C104.182 71.1052 104.231 71.123 104.271 71.1587C104.311 71.1943 104.331 71.2388 104.331 71.2923C104.331 71.3516 104.308 71.4051 104.261 71.4526L102.619 73.3854L104.351 75.3894C104.397 75.4429 104.421 75.4963 104.421 75.5498C104.421 75.6032 104.401 75.6477 104.361 75.6834C104.321 75.719 104.271 75.7368 104.212 75.7368H103.684C103.584 75.7368 103.498 75.6923 103.425 75.6032L102.031 73.9732L100.618 75.6032C100.578 75.6448 100.538 75.6774 100.498 75.7012C100.465 75.7249 100.418 75.7368 100.359 75.7368H99.851Z" fill="#4F2DA7"/>
<path d="M190.467 85.6015C196.182 82.2504 201.429 78.3013 205.822 73.1477C206.968 71.733 205.709 69.7621 204.02 69.8587C200.003 70.1191 197.223 72.919 194.507 75.5504C192.148 77.7398 189.967 80.0724 187.802 82.5649C181.927 85.9328 175.488 88.551 169.2 91.0724C166.796 92.0532 168.24 95.7844 170.644 94.8036C174.527 93.263 178.401 91.6424 182.179 89.8701C178.809 94.7544 175.962 99.9882 173.628 105.492C172.583 107.866 176.234 109.505 177.279 107.13C180.072 100.608 183.627 94.4098 187.961 88.6962C188.74 87.6435 189.599 86.5825 190.467 85.6015Z" fill="#4F2DA7"/>
<path d="M225.764 82.7815C223.709 83.2401 221.064 84.2462 218.815 84.4016C218.79 84.1616 218.685 83.93 218.571 83.6183C218.15 82.6918 217.026 82.0011 215.948 82.5188C215.333 82.8261 210.894 85.2341 210.419 84.5561C209.846 83.7264 208.435 83.3893 207.623 84.1219C205.399 86.0544 203.171 87.1784 200.484 87.7844C200.674 87.2791 200.855 86.6938 201.125 86.1801C201.862 84.7274 200.106 82.6469 198.573 83.4552C194.964 85.2906 191.54 87.3492 188.23 89.7195C186.124 91.2351 188.486 94.4653 190.592 92.9497C192.403 91.7078 194.214 90.4658 196.122 89.3754C196.138 89.5355 196.067 89.6239 196.084 89.7839C196.058 91.0809 196.824 92.2138 198.273 92.1424C202.21 91.8904 205.718 90.6318 208.797 88.3668C210.763 89.3735 213.239 88.3043 215.476 87.2604C215.783 87.8752 216.322 88.3848 216.979 88.4776C219.99 88.6465 223.266 87.4932 226.193 86.862C228.639 86.2813 228.299 82.2723 225.764 82.7815Z" fill="#4F2DA7"/>
</svg>
