<svg width="88" height="206" viewBox="0 0 88 206" fill="none" xmlns="http://www.w3.org/2000/svg">
<path fill-rule="evenodd" clip-rule="evenodd" d="M46.2254 0C47.1524 0 47.9039 0.750889 47.9039 1.67716V41.1474L60.2339 48.539C60.7848 48.8692 61.0987 49.4847 61.0424 50.1241C60.9861 50.7636 60.5695 51.3148 59.9694 51.5439L33.8104 61.5291L59.9082 70.35C60.5888 70.58 61.0474 71.2174 61.0489 71.9353C61.0503 72.6532 60.5944 73.2924 59.9147 73.5252L46.1488 78.241L46.1029 90.5798C46.0994 91.5061 45.3452 92.2542 44.4182 92.2507C43.4912 92.2473 42.7425 91.4936 42.7459 90.5674L42.7963 77.0352C42.799 76.3209 43.2542 75.6866 43.9304 75.4549L54.1637 71.9494L28.3179 63.2137C27.6474 62.9871 27.1913 62.3646 27.1776 61.6575C27.1639 60.9504 27.5955 60.3107 28.2567 60.0583L55.5473 49.6411L45.3619 43.5352C44.8563 43.2321 44.547 42.6862 44.547 42.0971V1.67716C44.547 0.750889 45.2984 0 46.2254 0Z" fill="url(#paint0_linear)"/>
<path fill-rule="evenodd" clip-rule="evenodd" d="M44.113 149.254C45.04 149.254 45.7915 150.004 45.7915 150.931V173.892C45.7915 174.818 45.04 175.569 44.113 175.569C43.186 175.569 42.4346 174.818 42.4346 173.892V150.931C42.4346 150.004 43.186 149.254 44.113 149.254Z" fill="url(#paint1_linear)"/>
<path d="M29.4448 195.371V188.549C29.4448 180.454 36.0119 173.892 44.113 173.892C52.2142 173.892 58.7812 180.454 58.7812 188.549V195.371H29.4448Z" fill="#F8F4FF"/>
<path fill-rule="evenodd" clip-rule="evenodd" d="M44.113 175.57C36.9389 175.57 31.1233 181.381 31.1233 188.549V193.694H57.1028V188.549C57.1028 181.381 51.2872 175.57 44.113 175.57ZM27.7664 188.549C27.7664 179.528 35.0849 172.215 44.113 172.215C53.1412 172.215 60.4597 179.528 60.4597 188.549V195.371C60.4597 196.297 59.7082 197.048 58.7812 197.048H29.4448C28.5178 197.048 27.7664 196.297 27.7664 195.371V188.549Z" fill="#E2D5FF"/>
<path fill-rule="evenodd" clip-rule="evenodd" d="M48.6658 193.694C49.5928 193.694 50.3443 194.445 50.3443 195.371V204.323C50.3443 205.249 49.5928 206 48.6658 206C47.7388 206 46.9873 205.249 46.9873 204.323V195.371C46.9873 194.445 47.7388 193.694 48.6658 193.694Z" fill="#E2D5FF"/>
<path fill-rule="evenodd" clip-rule="evenodd" d="M39.561 193.694C40.488 193.694 41.2395 194.445 41.2395 195.371V204.323C41.2395 205.249 40.488 206 39.561 206C38.634 206 37.8826 205.249 37.8826 204.323V195.371C37.8826 194.445 38.634 193.694 39.561 193.694Z" fill="#E2D5FF"/>
<path d="M24.5494 138.112L80.4074 103.43C80.4074 103.43 76.8826 96.4925 67.8557 102.26C58.8289 108.027 40.6963 120.17 40.6963 120.17C40.6963 120.17 41.6279 124.328 38.5009 126.188C35.3739 128.048 23.325 135.798 23.325 135.798" fill="#E0D3FF"/>
<path d="M24.5494 138.112L80.4074 103.43C80.4074 103.43 76.8826 96.4925 67.8557 102.26C58.8289 108.027 40.6963 120.17 40.6963 120.17C40.6963 120.17 41.6279 124.328 38.5009 126.188C35.3739 128.048 23.325 135.798 23.325 135.798" stroke="#E0D3FF" stroke-width="3" stroke-miterlimit="10" stroke-linecap="round" stroke-linejoin="round"/>
<path d="M16.8813 132.785C11.9609 131.778 7.15543 134.947 6.1475 139.864C5.13958 144.78 8.31105 149.582 13.2315 150.589C18.152 151.596 22.9574 148.427 23.9653 143.511C24.9733 138.594 21.8018 133.793 16.8813 132.785ZM19.9219 142.683C19.3714 145.368 16.7462 147.099 14.059 146.549C11.3717 145.999 9.63957 143.376 10.1901 140.691C10.7407 138.006 13.3658 136.275 16.053 136.825C18.7403 137.375 20.4724 139.998 19.9219 142.683Z" fill="#E0D3FF" stroke="#E0D3FF" stroke-width="3" stroke-miterlimit="10" stroke-linecap="round" stroke-linejoin="round"/>
<path d="M21.2387 115.849L86.0001 127.273C86.0001 127.273 85.3119 135.023 74.7854 133.026C64.2588 131.029 42.9069 126.5 42.9069 126.5C42.9069 126.5 42.2229 122.294 38.6277 121.73C35.0324 121.166 20.9634 118.452 20.9634 118.452" fill="#E0D3FF"/>
<path d="M21.2387 115.849L86.0001 127.273C86.0001 127.273 85.3119 135.023 74.7854 133.026C64.2588 131.029 42.9069 126.5 42.9069 126.5C42.9069 126.5 42.2229 122.294 38.6277 121.73C35.0324 121.166 20.9634 118.452 20.9634 118.452" stroke="#E0D3FF" stroke-width="3" stroke-miterlimit="10" stroke-linecap="round" stroke-linejoin="round"/>
<path d="M18.6856 111.054C15.9195 106.865 10.2781 105.71 6.08612 108.474C1.89413 111.238 0.738504 116.875 3.50463 121.064C6.27076 125.253 11.9121 126.407 16.1041 123.643C20.2969 120.879 21.4526 115.243 18.6856 111.054ZM13.8314 120.201C11.542 121.711 8.46117 121.08 6.9497 118.792C5.43907 116.505 6.07018 113.426 8.35962 111.916C10.6491 110.406 13.7299 111.037 15.2414 113.325C16.752 115.613 16.1209 118.692 13.8314 120.201Z" fill="#E0D3FF" stroke="#E0D3FF" stroke-width="3" stroke-miterlimit="10" stroke-linecap="round" stroke-linejoin="round"/>
<path d="M30.9286 90.3125L26.7249 80.9531" stroke="#E0D3FF" stroke-width="4" stroke-miterlimit="10" stroke-linecap="round" stroke-linejoin="round"/>
<path d="M26.3571 96.1749L16.2678 94.2722" stroke="#E0D3FF" stroke-width="4" stroke-miterlimit="10" stroke-linecap="round" stroke-linejoin="round"/>
<path d="M55.3267 148.72L59.5296 158.08" stroke="#E0D3FF" stroke-width="4" stroke-miterlimit="10" stroke-linecap="round" stroke-linejoin="round"/>
<path d="M59.8979 142.858L69.9873 144.761" stroke="#E0D3FF" stroke-width="4" stroke-miterlimit="10" stroke-linecap="round" stroke-linejoin="round"/>
<defs>
<linearGradient id="paint0_linear" x1="44.1131" y1="-60" x2="44.1131" y2="175.569" gradientUnits="userSpaceOnUse">
<stop stop-color="white" stop-opacity="0"/>
<stop offset="1" stop-color="#E2D3FF"/>
</linearGradient>
<linearGradient id="paint1_linear" x1="44.1131" y1="-60" x2="44.1131" y2="175.569" gradientUnits="userSpaceOnUse">
<stop stop-color="white" stop-opacity="0"/>
<stop offset="1" stop-color="#E2D3FF"/>
</linearGradient>
</defs>
</svg>
