<svg width="70" height="60" viewBox="0 0 70 60" fill="none" xmlns="http://www.w3.org/2000/svg">
<rect width="70" height="60" rx="4" fill="white"/>
<mask id="mask0" mask-type="alpha" maskUnits="userSpaceOnUse" x="0" y="0" width="70" height="60">
<rect width="70" height="60" rx="4" fill="white"/>
</mask>
<g mask="url(#mask0)">
<path opacity="0.05" d="M38.5768 -1.33514e-05C31.8784 -1.33514e-05 20.3086 -1.33514e-05 17.8728 6.69831C15.4371 13.3966 35.6892 13.0038 40.4036 17.7181C45.1179 22.4325 52.7192 21.9218 59.8896 21.9218C67.06 21.9218 65.7012 29.8246 71.4594 28.6201C77.2176 27.4155 72.0684 21.3795 73.8952 17.7181C73.8952 14.305 73.8952 -1.33514e-05 73.8952 -1.33514e-05C73.8952 -1.33514e-05 49.8421 -1.33514e-05 38.5768 -1.33514e-05Z" fill="#5721AE"/>
<path opacity="0.05" d="M6.53543 58.1944C30.4446 49.6933 41.0709 68.8207 41.0709 58.1944C41.0709 47.5681 28.3193 42.2549 21.9436 35.8792C15.5678 29.5034 18.358 18.8771 8.66069 18.8771C-1.03661 18.8771 3.84894 24.8338 -6.74743 29.5034C-17.3438 34.173 -28 22.065 -28 35.8792C-28 49.6933 -17.3737 66.6954 6.53543 58.1944Z" fill="#5721AE"/>
<path opacity="0.05" d="M46.1164 46.6245C22.2073 38.1235 11.581 57.2508 11.581 46.6245C11.581 35.9982 24.3325 30.6851 30.7083 24.3093C37.0841 17.9335 34.2939 7.30725 43.9912 7.30725C53.6885 7.30725 48.8029 13.2639 59.3993 17.9335C69.9956 22.6031 80.6519 10.4951 80.6519 24.3093C80.6519 38.1235 70.0256 55.1255 46.1164 46.6245Z" fill="#5721AE"/>
<path opacity="0.05" d="M8.15231 30.5421C9.01199 30.1313 9.89274 29.6572 10.6681 29.1009C10.9526 28.8965 10.6723 28.4983 10.3731 28.6563C9.54507 29.0904 8.73596 29.6509 7.9985 30.2219C7.84679 30.3356 7.95635 30.6348 8.15231 30.5421Z" fill="#3792FC"/>
<path opacity="0.05" d="M64.6092 38.9037C64.4301 37.9682 64.1962 36.9947 63.8549 36.1035C63.7306 35.7769 63.2733 35.9454 63.3492 36.2762C63.5578 37.1886 63.8949 38.1115 64.2594 38.9712C64.3332 39.146 64.6514 39.1165 64.6092 38.9037Z" fill="#3792FC"/>
<path opacity="0.05" d="M11.3348 13.5947C11.3179 13.58 11.3032 13.5652 11.2863 13.5526C11.0735 13.3629 10.7237 13.3271 10.5172 13.5526C10.3086 13.7801 10.315 14.0941 10.5172 14.3217C10.532 14.3385 10.5467 14.3533 10.5594 14.3701C10.749 14.585 11.143 14.5787 11.3348 14.3701C11.5244 14.1615 11.5623 13.797 11.3348 13.5947Z" fill="#3792FC"/>
<path opacity="0.05" d="M60.3013 16.9053C60.3547 16.5567 60.3446 16.2259 60.5379 15.918C60.9273 15.3073 61.4794 15.46 62.0137 15.7297C62.5583 16.0045 63.0722 16.1674 63.6626 15.9129C64.5862 15.5134 65.0213 14.1191 64.1384 13.4626C63.8534 13.2489 63.571 13.6 63.6091 13.8697C63.6626 14.2437 63.8483 14.6585 63.5277 14.9791C63.0977 15.4091 62.5939 15.0478 62.1639 14.8544C61.7008 14.6458 61.2071 14.6 60.7313 14.7934C59.9095 15.1267 59.3115 16.2412 59.9654 16.9943C60.057 17.0987 60.2784 17.0503 60.3013 16.9053Z" fill="#3792FC"/>
<path opacity="0.05" d="M50.7683 52.1599C49.9235 52.971 49.6038 54.2331 50.4082 55.2091C51.1654 56.1279 52.6362 56.3198 53.5819 55.5894C55.8705 53.8225 53.4843 50.568 51.0173 51.2411C50.5596 51.3656 50.6741 52.0186 51.125 52.0421C51.8453 52.0825 52.6194 52.1094 53.1949 52.6176C53.8141 53.1595 53.8276 54.0783 53.3194 54.7043C51.9732 56.3568 49.6375 53.9235 51.051 52.4426C51.2327 52.2575 50.9568 51.9815 50.7683 52.1599Z" fill="#3792FC"/>
<path opacity="0.05" d="M1.23497 46.7779C1.49859 47.7579 1.788 48.7265 2.09175 49.695C2.16338 49.9271 2.38402 50.0016 2.58461 49.8641C3.37262 49.3282 4.15776 48.8038 4.90565 48.2107C5.04892 48.0961 5.0174 47.8668 4.87699 47.7694C4.00302 47.1705 2.82531 46.2851 1.71637 46.2793C1.43555 46.2765 1.23783 46.6748 1.52438 46.8381C1.9714 47.096 2.50724 47.1877 2.98578 47.3854C3.53595 47.6147 4.08326 47.884 4.57039 48.2307C4.58185 48.0703 4.59331 47.9098 4.60191 47.7493C3.76805 48.2623 2.98291 48.8382 2.19204 49.4113C2.34677 49.4428 2.50437 49.4744 2.65911 49.5059C2.32098 48.5488 1.97426 47.6003 1.59888 46.6576C1.51865 46.4599 1.18052 46.5688 1.23497 46.7779Z" fill="#3792FC"/>
<path d="M31.892 44.1339C24.2548 44.1339 18.0411 37.9203 18.0411 30.2831C18.0411 22.6459 24.2548 16.4322 31.892 16.4322C39.5292 16.4322 45.7428 22.6459 45.7428 30.2831C45.7428 37.9203 39.5292 44.1339 31.892 44.1339Z" fill="#E0CDFF"/>
<path d="M38.3557 39.5169C30.7185 39.5169 24.5048 33.3033 24.5048 25.6661C24.5048 22.4692 25.6041 19.53 27.4303 17.1833C21.9782 19.0461 18.0411 24.2082 18.0411 30.2831C18.0411 37.9203 24.2548 44.1339 31.892 44.1339C36.3323 44.1339 40.2809 42.0252 42.8173 38.7658C41.4151 39.2448 39.918 39.5169 38.3557 39.5169Z" fill="#AD95D6"/>
<path fill-rule="evenodd" clip-rule="evenodd" d="M39.3531 22.5882H43.4021C43.1646 22.2341 42.9106 21.8922 42.6423 21.5622H38.9509C38.135 19.6458 37.0571 18.0763 35.8092 17C34.5662 16.6326 33.2524 16.4322 31.892 16.4322C30.5316 16.4322 29.2177 16.6327 27.9747 17C26.7269 18.0763 25.649 19.6458 24.8331 21.5622H21.1417C20.8734 21.8922 20.6193 22.2341 20.3818 22.5882H24.4309C23.6806 24.6974 23.2311 27.1493 23.1787 29.7701H18.0542L18.0527 29.8098C18.047 29.9672 18.0412 30.1243 18.0412 30.2831C18.0412 30.4418 18.047 30.599 18.0527 30.7563L18.0542 30.796H23.1787C23.2311 33.4169 23.6806 35.8687 24.4309 37.9779H20.3818C20.6193 38.332 20.8734 38.674 21.1417 39.004H24.8331C25.649 40.9204 26.727 42.4899 27.9748 43.5662C29.2178 43.9334 30.5316 44.1339 31.892 44.1339C33.2523 44.1339 34.5662 43.9335 35.8092 43.5662C37.0571 42.4898 38.135 40.9204 38.9509 39.004H42.6423C42.9106 38.674 43.1646 38.332 43.4021 37.9779H39.3531C40.1034 35.8687 40.5528 33.4169 40.6052 30.796H45.7298L45.7312 30.7565C45.737 30.5991 45.7427 30.4418 45.7427 30.2831C45.7427 30.1243 45.737 29.967 45.7312 29.8096L45.7298 29.7701H40.6052C40.5528 27.1493 40.1034 24.6974 39.3531 22.5882ZM31.379 44.0997C29.1796 43.8375 27.2304 41.9071 25.9195 39.004H31.379V44.0997ZM25.4974 37.978H31.379V30.7961H24.2044C24.2583 33.4462 24.7264 35.9087 25.4974 37.978ZM31.3789 29.7701H24.2043C24.2582 27.12 24.7263 24.6575 25.4973 22.5882H31.3789V29.7701ZM25.9195 21.5622H31.379V16.4665C29.1797 16.7286 27.2304 18.6591 25.9195 21.5622ZM32.4049 16.4665C34.6043 16.7286 36.5536 18.6591 37.8645 21.5622H32.4049V16.4665ZM32.4049 39.004V44.0997C34.6043 43.8375 36.5536 41.9071 37.8645 39.004H32.4049ZM38.2866 37.978H32.405V30.7961H39.5796C39.5257 33.4461 39.0576 35.9087 38.2866 37.978ZM32.4049 22.5882V29.7701H39.5795C39.5257 27.12 39.0576 24.6574 38.2866 22.5882H32.4049Z" fill="#F3ECFF"/>
<path fill-rule="evenodd" clip-rule="evenodd" d="M33.7708 44.0014C33.5449 44.0324 33.3168 44.0566 33.0876 44.0765C33.0554 44.0793 33.0233 44.0824 32.9912 44.0855C32.9375 44.0907 32.8837 44.0958 32.8295 44.0995C32.5195 44.1205 32.2073 44.1338 31.892 44.1338C31.5845 44.1338 31.2802 44.1204 30.9776 44.1002C30.9195 44.0964 30.8617 44.0917 30.8039 44.0871C30.7916 44.0861 30.7793 44.0851 30.767 44.0841C30.4824 44.0608 30.1995 44.0314 29.9199 43.991C29.912 43.9899 29.904 43.989 29.896 43.988C29.8905 43.9873 29.8851 43.9866 29.8797 43.9858C29.5594 43.9387 29.2426 43.8804 28.9297 43.8115C28.9251 43.8105 28.9205 43.8094 28.9159 43.8083C28.9114 43.8072 28.9068 43.8061 28.9022 43.8051C28.5892 43.7357 28.2797 43.6562 27.9748 43.5661C26.727 42.4898 25.649 40.9203 24.8331 39.0039H21.1417C20.8734 38.6739 20.6194 38.3321 20.3819 37.9781L20.3818 37.9779H24.4308C23.6805 35.8687 23.2311 33.4169 23.1787 30.796H18.0541C18.0536 30.7828 18.0532 30.7695 18.0527 30.7563C18.0469 30.599 18.0411 30.4418 18.0411 30.283C18.0411 30.1727 18.047 30.0639 18.0529 29.955C18.0563 29.8935 18.0596 29.832 18.0618 29.7702H23.1789C23.2313 27.1493 23.6808 24.6975 24.4311 22.5882H20.399C20.4184 22.5594 20.4376 22.5304 20.4568 22.5015C20.4935 22.446 20.5303 22.3906 20.5685 22.3363C20.6725 22.1887 20.7809 22.0447 20.8906 21.9014C20.9782 21.787 21.0673 21.6738 21.1584 21.5622H24.8331C25.2568 20.5669 25.7525 19.6676 26.3048 18.88C25.1655 20.8869 24.5048 23.1978 24.5048 25.6661C24.5048 25.8901 24.5112 26.1124 24.5217 26.3337C24.3404 27.4298 24.2285 28.5795 24.2043 29.77H25.1257C25.234 30.1187 25.3592 30.4598 25.4938 30.7961H24.2043C24.2582 33.4462 24.7262 35.9087 25.4973 37.978H31.3789V37.6239C32.3888 38.2154 33.4795 38.6819 34.6306 39.004H32.4049V44.0997C34.4769 43.8527 36.3264 42.1243 37.6298 39.4978C37.8702 39.5103 38.1121 39.517 38.3556 39.517C38.4278 39.517 38.499 39.5127 38.5702 39.5085C38.6219 39.5055 38.6735 39.5024 38.7256 39.501C37.9407 41.1901 36.9475 42.5838 35.8106 43.5648C35.7989 43.5683 35.7872 43.5713 35.7754 43.5744C35.7645 43.5772 35.7536 43.58 35.7429 43.5832C35.478 43.66 35.21 43.729 34.939 43.7904C34.8913 43.8012 34.8431 43.8111 34.7949 43.8209C34.7718 43.8256 34.7487 43.8303 34.7256 43.8351C34.4971 43.8832 34.2666 43.9255 34.0342 43.9622C33.9467 43.9759 33.859 43.9893 33.7708 44.0014ZM25.9195 39.004C27.2304 41.9071 29.1796 43.8375 31.379 44.0997V39.004H25.9195Z" fill="#E2D1FF"/>
<path d="M42.8173 38.7657C42.556 38.855 42.288 38.9295 42.0203 39.004H42.6213C42.6861 38.9242 42.7541 38.8471 42.8173 38.7657Z" fill="#E4EAF6"/>
</g>
<path d="M39.4348 44H42.5652C42.8261 44 43.087 43.7391 43.087 43.4783V40.087H46.4783C46.7391 40.087 47 39.8261 47 39.5652V36.4348C47 36.1739 46.7391 35.913 46.4783 35.913H43.087V32.5217C43.087 32.2609 42.8261 32 42.5652 32H39.4348C39.1739 32 38.913 32.2609 38.913 32.5217V35.913H35.5217C35.2609 35.913 35 36.1739 35 36.4348V39.5652C35 39.8261 35.2609 40.087 35.5217 40.087H38.913V43.4783C38.913 43.7391 39.1739 44 39.4348 44Z" fill="#5721AE"/>
</svg>
