<svg width="510" height="350" viewBox="0 0 510 350" fill="none" xmlns="http://www.w3.org/2000/svg">
<mask id="mask0" mask-type="alpha" maskUnits="userSpaceOnUse" x="0" y="0" width="510" height="350">
<rect width="510" height="350" fill="white"/>
</mask>
<g mask="url(#mask0)">
<path d="M389.104 174.179C389.104 176.166 387.489 177.779 385.5 177.779C383.511 177.779 381.895 176.166 381.895 174.179C381.895 172.193 383.511 170.58 385.5 170.58C387.489 170.58 389.104 172.193 389.104 174.179ZM387.32 174.179C387.32 173.181 386.508 172.361 385.509 172.361C384.51 172.361 383.688 173.172 383.688 174.179C383.688 175.177 384.5 175.998 385.509 175.998C386.508 175.998 387.32 175.177 387.32 174.179Z" fill="#5C36BD"/>
<path d="M449.65 42.4769H429.247C428.752 42.4769 428.351 42.8779 428.351 43.3722C428.351 43.8664 428.752 44.2674 429.247 44.2674H449.65C450.145 44.2674 450.546 43.8664 450.546 43.3722C450.546 42.8779 450.145 42.4769 449.65 42.4769Z" fill="#5C36BD"/>
<path d="M422.757 42.4678H418.77C418.275 42.4678 417.874 42.8688 417.874 43.363C417.874 43.8573 418.275 44.2582 418.77 44.2582H422.757C423.252 44.2582 423.654 43.8573 423.654 43.363C423.654 42.8688 423.252 42.4678 422.757 42.4678Z" fill="#5C36BD"/>
<path d="M440.069 49.5739C440.069 50.0681 439.668 50.4691 439.173 50.4691H436.624C436.129 50.4691 435.727 50.0681 435.727 49.5739C435.727 49.0796 436.129 48.6786 436.624 48.6786H439.173C439.668 48.6786 440.069 49.0796 440.069 49.5739ZM433.056 49.5739C433.056 50.0681 432.655 50.4691 432.16 50.4691H427.697C427.202 50.4691 426.8 50.0681 426.8 49.5739C426.8 49.0796 427.202 48.6786 427.697 48.6786H432.16C432.655 48.6786 433.056 49.0796 433.056 49.5739ZM424.13 49.5739C424.13 50.0681 423.728 50.4691 423.233 50.4691H418.77C418.275 50.4691 417.873 50.0681 417.873 49.5739C417.873 49.0796 418.275 48.6786 418.77 48.6786H423.233C423.728 48.6786 424.13 49.0796 424.13 49.5739Z" fill="#5C36BD"/>
<path d="M118.674 102.057C118.179 102.057 117.777 102.458 117.777 102.952V105.022C117.777 105.516 118.179 105.917 118.674 105.917C119.168 105.917 119.57 105.516 119.57 105.022V102.952C119.57 102.458 119.168 102.057 118.674 102.057Z" fill="#5C36BD"/>
<path d="M116.339 99.9867H114.266C113.771 99.9867 113.37 100.388 113.37 100.882C113.37 101.376 113.771 101.777 114.266 101.777H116.339C116.834 101.777 117.235 101.376 117.235 100.882C117.235 100.378 116.834 99.9867 116.339 99.9867Z" fill="#5C36BD"/>
<path d="M118.674 95.697C118.179 95.697 117.777 96.0979 117.777 96.5922V98.6624C117.777 99.1567 118.179 99.5577 118.674 99.5577C119.168 99.5577 119.57 99.1567 119.57 98.6624V96.5922C119.57 96.0979 119.168 95.697 118.674 95.697Z" fill="#5C36BD"/>
<path d="M123.081 99.8374H121.008C120.513 99.8374 120.112 100.238 120.112 100.733C120.112 101.227 120.513 101.628 121.008 101.628H123.081C123.576 101.628 123.977 101.227 123.977 100.733C123.977 100.238 123.576 99.8374 123.081 99.8374Z" fill="#5C36BD"/>
<path d="M343.153 44.277C342.658 44.277 342.257 44.678 342.257 45.1722V47.2424C342.257 47.7367 342.658 48.1377 343.153 48.1377C343.648 48.1377 344.05 47.7367 344.05 47.2424V45.1722C344.05 44.6686 343.648 44.277 343.153 44.277Z" fill="#5C36BD"/>
<path d="M340.819 42.1974H338.746C338.251 42.1974 337.849 42.5984 337.849 43.0927C337.849 43.5869 338.251 43.9879 338.746 43.9879H340.819C341.313 43.9879 341.715 43.5869 341.715 43.0927C341.715 42.5984 341.313 42.1974 340.819 42.1974Z" fill="#5C36BD"/>
<path d="M343.153 37.9172C342.658 37.9172 342.257 38.3182 342.257 38.8125V40.8827C342.257 41.377 342.658 41.7779 343.153 41.7779C343.648 41.7779 344.05 41.377 344.05 40.8827V38.8125C344.05 38.3182 343.648 37.9172 343.153 37.9172Z" fill="#5C36BD"/>
<path d="M347.561 42.0577H345.488C344.993 42.0577 344.591 42.4587 344.591 42.9529C344.591 43.4472 344.993 43.8482 345.488 43.8482H347.561C348.056 43.8482 348.457 43.4472 348.457 42.9529C348.457 42.4587 348.056 42.0577 347.561 42.0577Z" fill="#5C36BD"/>
<path d="M259.954 0H239.551C239.056 0 238.654 0.400994 238.654 0.895239C238.654 1.38948 239.056 1.79047 239.551 1.79047H259.954C260.449 1.79047 260.85 1.38948 260.85 0.895239C260.841 0.400994 260.439 0 259.954 0Z" fill="#5C36BD"/>
<path d="M233.062 0H229.074C228.58 0 228.178 0.400994 228.178 0.895239C228.178 1.38948 228.58 1.79047 229.074 1.79047H233.062C233.557 1.79047 233.958 1.38948 233.958 0.895239C233.949 0.400994 233.547 0 233.062 0Z" fill="#5C36BD"/>
<path d="M250.364 7.10605C250.364 7.6003 249.962 8.00129 249.467 8.00129H246.918C246.423 8.00129 246.022 7.6003 246.022 7.10605C246.022 6.61181 246.423 6.21082 246.918 6.21082H249.467C249.962 6.21082 250.364 6.61181 250.364 7.10605ZM243.351 7.10605C243.351 7.6003 242.95 8.00129 242.455 8.00129H237.991C237.496 8.00129 237.095 7.6003 237.095 7.10605C237.095 6.61181 237.496 6.21082 237.991 6.21082H242.455C242.95 6.21082 243.351 6.61181 243.351 7.10605ZM234.424 7.10605C234.424 7.6003 234.023 8.00129 233.528 8.00129H229.064C228.569 8.00129 228.168 7.6003 228.168 7.10605C228.168 6.61181 228.569 6.21082 229.064 6.21082H233.528C234.032 6.21082 234.424 6.61181 234.424 7.10605Z" fill="#5C36BD"/>
<path d="M479.232 93.375C479.232 95.1095 480.642 96.527 482.388 96.527C484.125 96.527 485.544 95.1188 485.544 93.375C485.544 91.6405 484.134 90.223 482.388 90.223C480.642 90.2323 479.232 91.6405 479.232 93.375Z" fill="#5C36BD"/>
<path d="M66.102 247.579H86.505C86.9999 247.579 87.4014 247.178 87.4014 246.684C87.4014 246.19 86.9999 245.789 86.505 245.789H66.102C65.6071 245.789 65.2056 246.19 65.2056 246.684C65.2149 247.188 65.6071 247.579 66.102 247.579Z" fill="#5C36BD"/>
<path d="M55.6247 247.589H59.6119C60.1068 247.589 60.5083 247.188 60.5083 246.694C60.5083 246.2 60.1068 245.799 59.6119 245.799H55.6247C55.1298 245.799 54.7283 246.2 54.7283 246.694C54.7283 247.188 55.1298 247.589 55.6247 247.589Z" fill="#5C36BD"/>
<path d="M451.573 262.08C451.573 262.08 452.787 270.762 442.637 270.557C442.637 270.557 451.359 270.65 451.135 278.791C451.135 278.791 451.919 272.385 459.921 270.949C459.921 270.949 453.152 272.506 451.573 262.08Z" fill="#5C36BD"/>
<path d="M500.055 139.62C500.055 139.62 501.269 148.302 491.119 148.097C491.119 148.097 499.84 148.19 499.616 156.331C499.616 156.331 500.4 149.924 508.403 148.488C508.394 148.498 501.633 150.046 500.055 139.62Z" fill="#5C36BD"/>
<path d="M177.987 22.0826C177.987 22.0826 179.201 30.7646 169.051 30.5594C169.051 30.5594 177.772 30.6527 177.548 38.7937C177.548 38.7937 178.332 32.3872 186.335 30.9511C186.335 30.9604 179.574 32.5084 177.987 22.0826Z" fill="#5C36BD"/>
<path d="M90.5756 46.0582C90.5756 46.0582 91.7895 54.7401 81.6394 54.5349C81.6394 54.5349 90.3609 54.6282 90.1368 62.7692C90.1368 62.7692 90.9211 56.3627 98.9236 54.9266C98.9236 54.9359 92.1537 56.4839 90.5756 46.0582Z" fill="#5C36BD"/>
<path d="M143.558 8.95245C143.558 8.95245 143.978 11.9739 140.439 11.9086C140.439 11.9086 143.484 11.9366 143.4 14.7808C143.4 14.7808 143.67 12.5427 146.462 12.0485C146.462 12.0485 144.109 12.5894 143.558 8.95245Z" fill="#5C36BD"/>
<path d="M302.571 113.276C302.571 113.276 302.991 116.297 299.452 116.232C299.452 116.232 302.496 116.26 302.412 119.104C302.412 119.104 302.683 116.866 305.475 116.372C305.485 116.372 303.122 116.912 302.571 113.276Z" fill="#5C36BD"/>
<path d="M7.9462 164.994C7.9462 164.994 8.3664 168.015 4.82739 167.95C4.82739 167.95 7.8715 167.978 7.78746 170.822C7.78746 170.822 8.05825 168.584 10.8502 168.09C10.8502 168.09 8.49713 168.631 7.9462 164.994Z" fill="#5C36BD"/>
<path d="M272.336 246.572C272.336 246.572 272.756 249.594 269.217 249.529C269.217 249.529 272.261 249.557 272.177 252.401C272.177 252.401 272.448 250.163 275.24 249.668C275.249 249.668 272.887 250.209 272.336 246.572Z" fill="#5C36BD"/>
<path d="M152.027 197.8H132.222C129.692 197.8 127.628 195.739 127.628 193.212C127.628 190.732 129.608 188.699 132.073 188.624C132.138 184.763 135.304 181.639 139.188 181.639C141.597 181.639 143.838 182.861 145.146 184.866C147.816 184.484 150.197 186.162 150.87 188.624H152.027C154.558 188.624 156.622 190.685 156.622 193.212C156.622 195.739 154.558 197.8 152.027 197.8ZM132.222 189.986C130.439 189.986 128.982 191.431 128.982 193.222C128.982 195.003 130.429 196.448 132.222 196.448H152.027C153.811 196.448 155.268 195.003 155.268 193.222C155.268 191.44 153.82 189.986 152.027 189.986H149.74L149.646 189.417C149.301 187.253 147.247 185.743 144.959 186.293L144.455 186.414L144.202 185.966C143.185 184.148 141.261 183.01 139.179 183.01C136.004 183.01 133.427 185.584 133.427 188.755C133.427 188.923 133.436 189.09 133.455 189.249L133.52 189.986H132.222Z" fill="#5C36BD"/>
<path d="M505.406 30.3912H485.601C483.07 30.3912 481.006 28.3302 481.006 25.8031C481.006 23.3225 482.986 21.2896 485.451 21.215C485.516 17.3543 488.682 14.2303 492.566 14.2303C494.976 14.2303 497.217 15.4519 498.524 17.4569C501.195 17.0745 503.576 18.7531 504.248 21.215H505.406C507.936 21.215 510 23.2759 510 25.8031C510 28.3302 507.936 30.3912 505.406 30.3912ZM485.601 22.5672C483.817 22.5672 482.37 24.0126 482.37 25.8031C482.37 27.5935 483.817 29.0297 485.601 29.0297H505.406C507.189 29.0297 508.646 27.5842 508.646 25.8031C508.646 24.0219 507.199 22.5672 505.406 22.5672H503.118L503.025 21.9983C502.679 19.8348 500.625 18.3241 498.337 18.8743L497.833 18.9956L497.581 18.5479C496.563 16.7295 494.639 15.5918 492.557 15.5918C489.382 15.5918 486.805 18.1656 486.805 21.3362C486.805 21.5041 486.814 21.6719 486.833 21.8305L486.898 22.5672H485.601Z" fill="#5C36BD"/>
<path d="M198.688 80.8976H178.883C176.352 80.8976 174.289 78.8367 174.289 76.3095C174.289 73.8289 176.268 71.796 178.734 71.7214C178.799 67.8607 181.964 64.7367 185.849 64.7367C188.258 64.7367 190.499 65.9583 191.806 67.9633C194.477 67.5809 196.858 69.2595 197.53 71.7214H198.688C201.219 71.7214 203.283 73.7823 203.283 76.3095C203.283 78.8367 201.228 80.8976 198.688 80.8976ZM178.883 73.0736C177.099 73.0736 175.652 74.519 175.652 76.3095C175.652 78.0999 177.099 79.5361 178.883 79.5361H198.688C200.472 79.5361 201.929 78.0906 201.929 76.3095C201.929 74.5283 200.481 73.0736 198.688 73.0736H196.401L196.307 72.5047C195.962 70.3412 193.907 68.8305 191.62 69.3807L191.115 69.502L190.863 69.0543C189.846 67.2359 187.922 66.0982 185.84 66.0982C182.665 66.0982 180.088 68.672 180.088 71.8426C180.088 72.0105 180.097 72.1783 180.116 72.3369L180.181 73.0736H178.883Z" fill="#5C36BD"/>
<path d="M363.159 248.043C362.661 248.043 362.164 247.856 361.778 247.471C361.019 246.713 361.019 245.483 361.778 244.726L380.387 226.141C381.146 225.383 382.378 225.383 383.136 226.141C383.895 226.899 383.895 228.129 383.136 228.887L364.527 247.471C364.154 247.844 363.656 248.043 363.159 248.043Z" fill="#7C5FC6"/>
<path d="M349.911 236.639C348.841 236.639 347.958 235.769 347.958 234.688V208.414C347.958 207.346 348.829 206.464 349.911 206.464C350.993 206.464 351.864 207.333 351.864 208.414V234.688C351.851 235.769 350.981 236.639 349.911 236.639Z" fill="#7C5FC6"/>
<path d="M400.887 261.273H374.566C373.496 261.273 372.613 260.404 372.613 259.323C372.613 258.254 373.483 257.372 374.566 257.372H400.887C401.957 257.372 402.84 258.242 402.84 259.323C402.84 260.404 401.969 261.273 400.887 261.273Z" fill="#7C5FC6"/>
<path d="M167.152 343.015H328.166C332.657 343.015 334.038 339.388 334.038 334.891H159.017C159.017 339.388 162.661 343.015 167.152 343.015Z" fill="#7C5CCE"/>
<path d="M157.811 334.891H214.882C214.882 339.375 210.752 343.015 205.64 343.015H168.235C168.185 343.015 157.612 343.015 157.562 343.015C152.312 342.941 152.549 334.891 157.811 334.891Z" fill="#7C5CCE"/>
<path d="M218.452 337.264H334.039C337.472 337.264 340.42 334.829 341.054 331.462L356.641 264.702C357.474 260.304 354.103 256.23 349.625 256.23H234.039C230.606 256.23 227.658 258.664 227.011 262.043L211.437 328.804C210.591 333.189 213.962 337.264 218.452 337.264Z" fill="#9A7CE8"/>
<path d="M227.011 262.031C227.359 260.18 228.416 258.615 229.859 257.571C232.024 259.124 233.255 261.832 232.708 264.689L217.134 331.45C216.786 333.301 215.728 334.866 214.285 335.909C212.121 334.357 210.889 331.648 211.424 328.791L227.011 262.031Z" fill="#7F58E3"/>
<path d="M299.706 305.25H280.748C276.855 305.25 273.708 302.107 273.708 298.219C273.708 294.33 276.855 291.188 280.748 291.188H299.706C303.599 291.188 306.747 294.33 306.747 298.219C306.747 302.107 303.599 305.25 299.706 305.25Z" fill="#B097F0"/>
<path d="M175.051 337.14H169.366C168.247 337.14 167.339 336.233 167.339 335.115C167.339 333.997 168.247 333.09 169.366 333.09H175.051C176.171 333.09 177.079 333.997 177.079 335.115C177.079 336.233 176.171 337.14 175.051 337.14Z" fill="#7C5CCE"/>
<path d="M186.147 337.14H180.462C179.343 337.14 178.435 336.233 178.435 335.115C178.435 333.997 179.343 333.09 180.462 333.09H186.147C187.266 333.09 188.175 333.997 188.175 335.115C188.175 336.233 187.266 337.14 186.147 337.14Z" fill="#7C5CCE"/>
<path d="M197.256 337.14H191.571C190.451 337.14 189.543 336.233 189.543 335.115C189.543 333.997 190.451 333.09 191.571 333.09H197.256C198.375 333.09 199.283 333.997 199.283 335.115C199.283 336.233 198.375 337.14 197.256 337.14Z" fill="#7C5CCE"/>
<path d="M208.351 337.14H202.667C201.547 337.14 200.639 336.233 200.639 335.115C200.639 333.997 201.547 333.09 202.667 333.09H208.351C209.471 333.09 210.379 333.997 210.379 335.115C210.391 336.233 209.471 337.14 208.351 337.14Z" fill="#7C5CCE"/>
<path d="M415.885 350H50.7788C48.7619 350 47.1184 348.368 47.1184 346.344C47.1184 344.33 48.7525 342.689 50.7788 342.689H415.885C417.902 342.689 419.545 344.321 419.545 346.344C419.545 348.359 417.902 350 415.885 350Z" fill="#3B1E86"/>
<path fill-rule="evenodd" clip-rule="evenodd" d="M97.5887 294.797C97.752 294.637 98.0142 294.64 98.1741 294.803C99.4571 296.111 100.562 298.375 101.5 300.97C102.445 303.581 103.242 306.584 103.884 309.423C104.526 312.263 105.016 314.946 105.345 316.919C105.509 317.906 105.634 318.715 105.717 319.278C105.759 319.56 105.79 319.78 105.811 319.93C105.822 320.005 105.83 320.062 105.835 320.101L105.841 320.145L105.843 320.159C105.843 320.159 105.843 320.16 105.433 320.215L105.843 320.16C105.873 320.387 105.714 320.595 105.487 320.625C105.261 320.655 105.052 320.496 105.022 320.269L105.433 320.215C105.023 320.269 105.022 320.27 105.022 320.269L105.02 320.255L105.015 320.213C105.009 320.175 105.002 320.119 104.991 320.045C104.97 319.897 104.939 319.679 104.898 319.399C104.815 318.84 104.692 318.036 104.528 317.055C104.201 315.092 103.714 312.425 103.076 309.605C102.438 306.783 101.65 303.816 100.722 301.251C99.7881 298.671 98.7321 296.554 97.5826 295.382C97.4226 295.218 97.4253 294.957 97.5887 294.797Z" fill="#3B1E86"/>
<path d="M98.6624 283.1C99.9604 287.399 99.6989 291.278 98.0648 291.773C96.44 292.267 94.0683 289.18 92.761 284.881C92.7516 284.835 92.733 284.797 92.7236 284.751C91.6218 280.927 97.4112 279.174 98.6158 282.97C98.6344 283.016 98.6531 283.063 98.6624 283.1Z" fill="#C9B4FC"/>
<path d="M106.385 292.705C102.08 294.001 98.1956 293.74 97.7007 292.108C97.2058 290.486 100.297 288.117 104.601 286.811C104.648 286.802 104.685 286.783 104.732 286.774C108.561 285.674 110.316 291.455 106.516 292.658C106.469 292.677 106.422 292.696 106.385 292.705Z" fill="#C9B4FC"/>
<path d="M91.6591 297.144C95.9638 295.848 99.0546 293.479 98.5597 291.847C98.0648 290.215 94.1803 289.954 89.8756 291.25C89.8289 291.26 89.7915 291.278 89.7448 291.288C85.9444 292.491 87.6905 298.272 91.5283 297.172C91.575 297.172 91.6217 297.163 91.6591 297.144Z" fill="#C9B4FC"/>
<path d="M98.9051 302.031C100.119 297.704 99.7642 293.834 98.1301 293.377C96.496 292.92 94.1802 296.053 92.9756 300.38C92.9663 300.427 92.9476 300.464 92.9383 300.511C91.9205 304.362 97.7379 305.985 98.8677 302.161C98.8771 302.115 98.8958 302.077 98.9051 302.031Z" fill="#C9B4FC"/>
<path d="M103.06 300.781C99.6521 297.853 97.7939 294.431 98.9051 293.144C100.016 291.857 103.677 293.19 107.076 296.118C107.113 296.146 107.141 296.174 107.178 296.202C110.166 298.841 106.217 303.42 103.163 300.856C103.126 300.837 103.098 300.809 103.06 300.781Z" fill="#C9B4FC"/>
<path d="M100.1 292.332C100.436 293.442 99.8108 294.617 98.6903 294.953C97.5791 295.288 96.4025 294.664 96.0664 293.545C95.7302 292.435 96.3558 291.26 97.4764 290.924C98.5876 290.598 99.7641 291.223 100.1 292.332Z" fill="#9369FF"/>
<path d="M97.4956 307.262C103.089 311.664 106.264 316.942 104.602 319.049C102.94 321.157 97.0568 319.31 91.4635 314.909C85.8701 310.507 84.3574 303.122 84.3574 303.122C84.3574 303.122 91.9023 302.86 97.4956 307.262Z" fill="#6D43D8"/>
<path d="M117.124 313.92C111.222 319.45 104.742 322.136 102.641 319.907C100.54 317.679 103.631 311.384 109.532 305.854C115.434 300.324 124.015 299.867 124.015 299.867C124.015 299.867 123.025 308.381 117.124 313.92Z" fill="#6D43D8"/>
<path d="M112.79 343.902H93.4799L90.0996 319.646H116.171L112.79 343.902Z" fill="#3A1697"/>
<path d="M117.179 325.866H89.0914C88.335 325.866 87.7188 325.251 87.7188 324.495V318.219C87.7188 317.464 88.335 316.849 89.0914 316.849H117.179C117.936 316.849 118.552 317.464 118.552 318.219V324.495C118.552 325.26 117.936 325.866 117.179 325.866Z" fill="#3A1697"/>
<path d="M180.714 166.309L190.285 176.557L263.269 146.166L180.714 166.309Z" fill="#603EB6"/>
<path d="M184.122 132.467L176.913 143.331L181.788 153.971L170.853 155.827L161.188 177.014L265.603 145.457L184.122 132.467Z" fill="#7556C5"/>
<path d="M181.787 153.971L176.913 143.331L233.463 145.97L181.787 153.971Z" fill="#603EB6"/>
<path d="M176.287 259.217C175.484 259.217 174.681 259.208 173.878 259.199C173.066 259.189 172.421 258.527 172.431 257.725C172.44 256.923 173.14 256.187 173.906 256.28C177.697 256.326 181.46 256.261 185.588 256.093C185.606 256.093 185.634 256.093 185.653 256.093C186.437 256.093 187.082 256.709 187.119 257.492C187.156 258.294 186.521 258.984 185.718 259.012C182.404 259.152 179.322 259.217 176.287 259.217ZM162.15 258.639C162.103 258.639 162.066 258.639 162.019 258.63C157.985 258.285 154.026 257.772 150.235 257.091C149.441 256.951 148.909 256.196 149.049 255.394C149.189 254.601 149.955 254.098 150.749 254.21C154.446 254.872 158.331 255.375 162.271 255.711C163.074 255.776 163.672 256.485 163.607 257.296C163.541 258.07 162.897 258.639 162.15 258.639ZM139.048 254.424C138.908 254.424 138.759 254.405 138.619 254.359C134.772 253.184 131.018 251.738 127.46 250.078C126.732 249.733 126.414 248.866 126.76 248.139C127.105 247.402 127.983 247.094 128.702 247.439C132.129 249.043 135.752 250.433 139.469 251.571C140.244 251.804 140.673 252.624 140.44 253.398C140.253 254.014 139.674 254.424 139.048 254.424ZM117.852 244.455C117.572 244.455 117.291 244.381 117.039 244.213C113.724 242.003 110.559 239.522 107.617 236.827C107.02 236.286 106.983 235.354 107.533 234.766C108.084 234.169 109.009 234.132 109.597 234.682C112.417 237.275 115.471 239.662 118.655 241.788C119.327 242.236 119.504 243.14 119.056 243.812C118.795 244.222 118.328 244.455 117.852 244.455ZM100.605 228.621C100.175 228.621 99.7457 228.434 99.4563 228.071C96.9724 224.947 94.7127 221.617 92.7424 218.167C92.3409 217.468 92.5837 216.572 93.2934 216.171C93.9937 215.78 94.8901 216.022 95.2916 216.722C97.1872 220.041 99.3629 223.249 101.753 226.252C102.258 226.886 102.155 227.8 101.52 228.304C101.249 228.518 100.932 228.621 100.605 228.621ZM89.0167 208.291C88.4284 208.291 87.8681 207.928 87.644 207.34C86.2153 203.554 85.1041 199.675 84.3571 195.823C84.1984 195.031 84.7213 194.266 85.515 194.108C86.3181 193.94 87.0744 194.471 87.2332 195.264C87.9522 198.957 89.0167 202.678 90.3893 206.314C90.6788 207.07 90.2959 207.909 89.5396 208.198C89.3622 208.263 89.1847 208.291 89.0167 208.291ZM84.3478 185.36C83.5821 185.36 82.9378 184.764 82.8911 183.99C82.7417 181.602 82.667 179.084 82.667 176.52V175.923C82.6763 174.655 82.695 173.377 82.7323 172.109C82.7604 171.316 83.4047 170.692 84.1984 170.692C84.2171 170.692 84.2264 170.692 84.2451 170.692C85.0481 170.72 85.6831 171.391 85.6644 172.202C85.6271 173.452 85.599 174.692 85.599 175.932V176.52C85.599 179.028 85.6738 181.481 85.8232 183.803C85.8792 184.605 85.2629 185.304 84.4598 185.351C84.4132 185.36 84.3758 185.36 84.3478 185.36Z" fill="#603EB6"/>
<path d="M96.6551 162.177C94.4233 162.177 92.2196 162.149 90.0626 162.093C89.2596 162.075 88.6153 161.403 88.6339 160.592C88.6526 159.799 89.3063 159.165 90.1 159.165C90.1093 159.165 90.128 159.165 90.1373 159.165C93.9191 159.258 97.813 159.268 101.828 159.193C102.734 159.147 103.304 159.818 103.322 160.629C103.341 161.441 102.697 162.103 101.884 162.121C100.119 162.159 98.3732 162.177 96.6551 162.177ZM113.603 161.692C112.837 161.692 112.184 161.086 112.146 160.312C112.1 159.51 112.716 158.82 113.528 158.774C117.31 158.559 121.241 158.279 125.21 157.925C125.994 157.841 126.732 158.447 126.797 159.249C126.872 160.051 126.274 160.76 125.471 160.834C121.475 161.189 117.506 161.478 113.687 161.683C113.659 161.692 113.631 161.692 113.603 161.692ZM78.3531 161.506C78.3157 161.506 78.2784 161.506 78.241 161.506C74.1698 161.189 70.2012 160.76 66.4568 160.219C65.6537 160.107 65.1028 159.361 65.2149 158.568C65.3269 157.776 66.0833 157.235 66.8676 157.328C70.5467 157.85 74.4499 158.279 78.4651 158.587C79.2682 158.652 79.8751 159.352 79.8098 160.163C79.7537 160.918 79.1094 161.506 78.3531 161.506ZM137.032 159.632C136.303 159.632 135.668 159.081 135.584 158.335C135.491 157.533 136.07 156.806 136.873 156.713C140.673 156.265 144.548 155.761 148.498 155.202C149.301 155.071 150.039 155.64 150.151 156.442C150.263 157.244 149.712 157.981 148.909 158.093C144.931 158.662 141.037 159.165 137.209 159.613C137.144 159.632 137.088 159.632 137.032 159.632ZM55.0834 158.139C54.9807 158.139 54.8686 158.13 54.7659 158.102C51.9366 157.468 49.1726 156.75 46.5674 155.976C45.4562 155.65 44.3637 155.305 43.2898 154.95C42.5241 154.698 42.1039 153.868 42.3654 153.104C42.6175 152.339 43.4486 151.91 44.2142 152.171C45.2601 152.516 46.3246 152.852 47.4078 153.169C49.957 153.924 52.6462 154.624 55.4102 155.239C56.2039 155.416 56.6988 156.2 56.5214 156.983C56.3627 157.673 55.7557 158.139 55.0834 158.139ZM32.8595 150.633C32.6448 150.633 32.43 150.586 32.2246 150.483C28.4801 148.665 24.9972 146.623 21.897 144.403C21.2434 143.928 21.0846 143.023 21.5609 142.361C22.0278 141.708 22.9429 141.55 23.6058 142.025C26.5846 144.151 29.9182 146.11 33.5132 147.854C34.2415 148.208 34.5403 149.085 34.1948 149.803C33.924 150.325 33.4011 150.633 32.8595 150.633ZM83.2461 149.318C82.443 149.318 81.78 148.665 81.78 147.854V147.331C81.78 143.648 81.6306 139.899 81.3412 136.197C81.2758 135.395 81.8828 134.686 82.6858 134.621C83.4608 134.546 84.1892 135.162 84.2639 135.964C84.5627 139.74 84.7121 143.564 84.7121 147.322V147.844C84.7028 148.665 84.0491 149.318 83.2461 149.318ZM13.9319 136.924C13.5397 136.924 13.1382 136.766 12.8487 136.449C10.1034 133.446 7.74099 130.154 5.81742 126.648C5.42523 125.939 5.68669 125.053 6.39636 124.661C7.11537 124.279 7.99311 124.54 8.3853 125.24C10.1968 128.541 12.4285 131.646 15.0151 134.481C15.5567 135.078 15.5193 136.001 14.9217 136.542C14.6416 136.803 14.2868 136.924 13.9319 136.924ZM81.3598 125.883C80.6595 125.883 80.0432 125.379 79.9218 124.671C79.2402 120.698 78.3717 116.893 77.3353 113.378C77.1111 112.604 77.55 111.792 78.3251 111.569C79.1001 111.326 79.9125 111.783 80.1366 112.557C81.2104 116.185 82.0975 120.092 82.7978 124.186C82.9379 124.978 82.3963 125.734 81.6026 125.874C81.5186 125.874 81.4439 125.883 81.3598 125.883ZM2.70794 116.548C2.06364 116.548 1.47536 116.119 1.29795 115.476C1.12053 114.823 0.94311 114.161 0.784368 113.49C0.261454 111.289 0 109.116 0 107.008C0 105.749 0.0933732 104.491 0.280128 103.26C0.401519 102.458 1.15788 101.907 1.94225 102.038C2.74529 102.159 3.28689 102.905 3.1655 103.698C2.99742 104.78 2.91337 105.889 2.91337 107.008C2.91337 108.883 3.15616 110.832 3.62305 112.818C3.77245 113.452 3.93119 114.077 4.1086 114.702C4.32337 115.485 3.86583 116.287 3.09079 116.502C2.9694 116.53 2.83867 116.548 2.70794 116.548ZM74.5713 103.437C74.0297 103.437 73.5068 103.129 73.2547 102.607C71.5085 98.9606 69.4822 95.7061 67.2505 92.9364C66.7462 92.3116 66.8396 91.3884 67.4746 90.8848C68.1002 90.3813 69.0153 90.4745 69.5289 91.1086C71.9007 94.0555 74.0484 97.5059 75.8879 101.348C76.2427 102.075 75.9346 102.952 75.2062 103.297C75.0008 103.39 74.7861 103.437 74.5713 103.437ZM6.34033 94.27C6.03218 94.27 5.7147 94.1767 5.45324 93.9715C4.80894 93.4773 4.68755 92.5634 5.17311 91.92C7.52622 88.8426 10.6077 86.1196 14.3334 83.8349C15.0244 83.4152 15.9302 83.6297 16.3504 84.3198C16.7706 85.0098 16.5558 85.9051 15.8648 86.3341C12.4379 88.4323 9.62722 90.9035 7.49821 93.7011C7.21808 94.0741 6.78854 94.27 6.34033 94.27ZM59.7709 85.5787C59.5001 85.5787 59.22 85.5041 58.9679 85.3362C55.8678 83.3033 52.4128 81.8112 48.7057 80.8974C47.9213 80.7015 47.4451 79.9089 47.6319 79.1255C47.828 78.3422 48.6217 77.8666 49.406 78.0531C53.4306 79.0416 57.1844 80.6736 60.574 82.8837C61.2463 83.322 61.4424 84.2358 60.9942 84.9073C60.7141 85.3549 60.2472 85.5787 59.7709 85.5787ZM25.8562 81.8579C25.2213 81.8579 24.6423 81.4476 24.4556 80.8041C24.2315 80.0301 24.6703 79.2188 25.4454 78.9857C29.1338 77.8946 33.0089 77.2045 36.9495 76.9061L37.3884 76.8875C38.1074 76.9248 38.8637 77.5122 38.8824 78.3236C38.9011 79.1255 38.2568 79.797 37.4444 79.8156L37.1269 79.8249C33.4291 80.0954 29.7594 80.7575 26.2671 81.7833C26.1364 81.8392 25.9963 81.8579 25.8562 81.8579Z" fill="#603EB6"/>
<path d="M333.487 73.1573H379.956C385.763 73.1573 390.472 77.8601 390.472 83.6596V107.594C390.472 113.394 385.763 118.097 379.956 118.097H349.566L338.634 127.729V118.097H333.481C327.674 118.097 322.965 113.394 322.965 107.594V83.6596C322.97 77.8601 327.679 73.1573 333.487 73.1573Z" fill="#7556C5"/>
<path d="M340.247 87.9753H373.199C373.926 87.9753 374.519 87.3881 374.519 86.657C374.519 85.9313 373.931 85.3386 373.199 85.3386H340.247C339.521 85.3386 338.927 85.9258 338.927 86.657C338.927 87.3826 339.521 87.9753 340.247 87.9753Z" fill="#4F2DA6"/>
<path d="M340.247 96.749H373.199C373.925 96.749 374.519 96.1618 374.519 95.4306C374.519 94.705 373.931 94.1123 373.199 94.1123H340.247C339.52 94.1123 338.927 94.6995 338.927 95.4306C338.927 96.1563 339.52 96.749 340.247 96.749Z" fill="#4F2DA6"/>
<path d="M368.363 105.523H373.194C373.92 105.523 374.514 104.936 374.514 104.205C374.514 103.479 373.926 102.886 373.194 102.886H368.363C367.636 102.886 367.043 103.473 367.043 104.205C367.048 104.93 367.636 105.523 368.363 105.523Z" fill="#4F2DA6"/>
<path d="M357.381 105.523H362.212C362.938 105.523 363.532 104.936 363.532 104.205C363.532 103.479 362.944 102.886 362.212 102.886H357.381C356.654 102.886 356.061 103.473 356.061 104.205C356.066 104.93 356.654 105.523 357.381 105.523Z" fill="#4F2DA6"/>
<path d="M340.247 105.523H351.229C351.956 105.523 352.549 104.936 352.549 104.205C352.549 103.479 351.961 102.886 351.229 102.886H340.247C339.52 102.886 338.927 103.473 338.927 104.205C338.927 104.93 339.52 105.523 340.247 105.523Z" fill="#4F2DA6"/>
<ellipse cx="447.362" cy="138.388" rx="26.1457" ry="26.1111" fill="#7556C5"/>
<path d="M446.933 129.995C457.531 129.995 466.122 135.665 466.122 142.659C466.122 142.668 466.122 142.687 466.122 142.696C466.113 144.524 464.675 145.774 463.321 145.196L458.288 143.051C457.074 142.538 456.485 140.775 457.036 139.283L457.653 137.595C457.653 137.595 448.399 139.246 436.297 137.595L436.923 139.759C437.315 141.13 436.802 142.659 435.756 143.228L430.779 145.942C429.565 146.604 428.155 145.718 427.875 144.067C427.8 143.601 427.753 143.135 427.753 142.65C427.744 135.665 436.335 129.995 446.933 129.995Z" fill="#4F2DA6"/>
<path d="M448.324 212.393V232.937C448.324 234.075 447.409 234.988 446.27 234.988H411.991C410.852 234.988 409.937 234.075 409.937 232.937V212.393C409.937 212.048 410.021 211.731 410.17 211.442C410.515 210.789 411.197 210.341 411.991 210.341H446.27C447.082 210.341 447.782 210.808 448.119 211.498C448.249 211.768 448.324 212.067 448.324 212.393Z" fill="#7556C5"/>
<path d="M448.109 211.498L429.126 224.488L410.161 211.442C410.506 210.789 411.188 210.342 411.982 210.342H446.26C447.082 210.342 447.782 210.808 448.109 211.498Z" fill="#A286EC"/>
</g>
</svg>
