<svg width="64" height="64" viewBox="0 0 64 64" fill="none" xmlns="http://www.w3.org/2000/svg">
<circle cx="32" cy="32" r="32" fill="#F8F8FA"/>
<path d="M29.9804 22.0003C29.8415 22.0043 29.7075 22.0542 29.5987 22.1425C28.183 23.2883 27.7323 24.2685 27.4649 25.057C27.4373 25.1384 27.4257 25.2245 27.4307 25.3106C27.4357 25.3967 27.4572 25.4809 27.4941 25.5584C27.531 25.636 27.5826 25.7055 27.6458 25.7627C27.709 25.8199 27.7826 25.8639 27.8624 25.8921C27.9423 25.9203 28.0267 25.9322 28.1111 25.9271C28.1954 25.9219 28.2778 25.8999 28.3538 25.8622C28.4298 25.8245 28.4977 25.7719 28.5538 25.7074C28.6098 25.6429 28.653 25.5678 28.6806 25.4863C28.8858 24.8814 29.2007 24.3282 29.9993 23.5791C30.8084 24.3384 31.1028 24.8784 31.3192 25.4939C31.3477 25.575 31.3918 25.6497 31.4486 25.7135C31.5053 25.7773 31.5737 25.8291 31.6501 25.8659C31.7265 25.9027 31.8094 25.9239 31.8938 25.928C31.9781 25.9322 32.0623 25.9192 32.1418 25.8901C32.2213 25.8609 32.2943 25.8162 32.3569 25.7582C32.4194 25.7002 32.4703 25.6303 32.5063 25.5523C32.5423 25.4744 32.5629 25.39 32.5669 25.3039C32.5709 25.2178 32.5584 25.1315 32.5299 25.0504C32.2621 24.2888 31.843 23.3152 30.3986 22.1425C30.28 22.0463 30.1319 21.9959 29.9804 22.0003ZM20.1382 24.6251C20.0111 24.6303 19.8884 24.6738 19.7856 24.7502C19.6828 24.8266 19.6044 24.9326 19.5605 25.0544C18.9417 26.7765 19.0271 27.8457 19.1712 28.6685C19.1858 28.7536 19.2167 28.835 19.2622 28.9078C19.3077 28.9807 19.3671 29.0436 19.4365 29.093C19.5059 29.1425 19.5839 29.1775 19.6666 29.1961C19.7493 29.2146 19.8348 29.2163 19.9181 29.201C20.0014 29.1858 20.0811 29.1539 20.1523 29.1071C20.2235 29.0604 20.285 28.9997 20.3332 28.9287C20.3814 28.8577 20.4155 28.7778 20.4333 28.6933C20.4511 28.6089 20.4524 28.5217 20.4371 28.4367C20.3267 27.8061 20.3306 27.1514 20.6267 26.0964C21.5651 26.3374 22.0396 26.6419 22.4854 27.0575C22.5477 27.1156 22.6208 27.1607 22.7002 27.1901C22.7796 27.2195 22.8638 27.2326 22.9482 27.2287C23.0326 27.2249 23.1153 27.2041 23.1918 27.1675C23.2683 27.131 23.3371 27.0796 23.394 27.016C23.451 26.9524 23.4952 26.8778 23.524 26.7968C23.5528 26.7158 23.5655 26.6298 23.5617 26.5437C23.5579 26.4576 23.5375 26.3731 23.5017 26.2951C23.4659 26.217 23.4156 26.1469 23.3532 26.0887C22.7878 25.5615 21.9855 24.9154 20.2675 24.6326C20.2248 24.6255 20.1815 24.6232 20.1382 24.6251ZM41.1313 24.6251C41.0931 24.6242 41.0548 24.6268 41.017 24.6329C39.2991 24.9157 38.4968 25.5617 37.9314 26.0889C37.8656 26.146 37.8118 26.216 37.7731 26.2947C37.7345 26.3735 37.712 26.4595 37.7066 26.5474C37.7011 26.6353 37.7131 26.7233 37.7417 26.8064C37.7704 26.8895 37.8151 26.9658 37.8733 27.0309C37.9315 27.0959 38.002 27.1485 38.0805 27.1852C38.159 27.2218 38.2438 27.2419 38.3301 27.2444C38.4164 27.2469 38.5021 27.2318 38.5825 27.1997C38.6629 27.1676 38.7362 27.1194 38.7979 27.0578C39.2437 26.6422 39.7183 26.3376 40.6566 26.0966C40.9528 27.1516 40.9566 27.8063 40.8462 28.4368C40.831 28.5218 40.8322 28.609 40.85 28.6935C40.8678 28.7779 40.902 28.858 40.9502 28.929C40.9984 29 41.0598 29.0606 41.131 29.1073C41.2022 29.154 41.2819 29.1859 41.3652 29.2012C41.4485 29.2164 41.534 29.2147 41.6167 29.1962C41.6994 29.1777 41.7774 29.1428 41.8469 29.0934C41.9163 29.0439 41.9756 28.9809 42.0211 28.908C42.0666 28.8352 42.0975 28.7539 42.1122 28.6688C42.2562 27.8461 42.3417 26.7767 41.7228 25.0546C41.6781 24.9305 41.5976 24.8231 41.4921 24.7465C41.3865 24.6699 41.2608 24.6275 41.1313 24.6251ZM17.8864 32.5572C16.9699 32.3897 15.9942 32.5787 14.3336 33.2388C14.1978 33.2927 14.084 33.3921 14.0108 33.5206C13.9376 33.6492 13.9091 33.7994 13.9304 33.9465C14.1941 35.7451 14.7768 36.8321 15.3659 37.5183C15.421 37.5847 15.4885 37.6394 15.5646 37.6789C15.6407 37.7185 15.7237 37.7422 15.8089 37.7486C15.894 37.7551 15.9797 37.7442 16.0607 37.7166C16.1417 37.689 16.2163 37.6452 16.2805 37.5878C16.3447 37.5304 16.3972 37.4604 16.4346 37.3821C16.4721 37.3038 16.4938 37.2187 16.4987 37.1317C16.5035 37.0447 16.4913 36.9577 16.4629 36.8755C16.4344 36.7934 16.3903 36.7178 16.3329 36.6533C15.9616 36.2209 15.5958 35.4699 15.3433 34.2848C16.4677 33.8819 17.1414 33.7543 17.6591 33.8489C17.7424 33.8645 17.8278 33.8633 17.9106 33.8451C17.9933 33.8269 18.0718 33.7922 18.1414 33.743C18.2109 33.6938 18.2701 33.631 18.3159 33.5583C18.3617 33.4856 18.3929 33.4045 18.4079 33.3194C18.4229 33.2344 18.4213 33.1472 18.4032 33.0628C18.3851 32.9784 18.3509 32.8986 18.3024 32.8278C18.2539 32.7569 18.1923 32.6965 18.1209 32.6501C18.0496 32.6036 17.9698 32.5721 17.8864 32.5572ZM15.1712 39.7177C15.1052 39.7204 15.04 39.7334 14.9778 39.7563C14.2347 40.0287 13.2836 40.4552 12.1395 41.9249C12.087 41.9924 12.0479 42.0698 12.0246 42.1527C12.0014 42.2355 11.9946 42.3223 12.0042 42.4079C12.0138 42.4935 12.0398 42.5764 12.0808 42.6517C12.1218 42.7271 12.177 42.7934 12.2432 42.847C12.3093 42.9006 12.3852 42.9404 12.4664 42.9641C12.5476 42.9878 12.6324 42.9949 12.7163 42.9851C12.8002 42.9753 12.8814 42.9488 12.9552 42.9069C13.0291 42.8651 13.0942 42.8088 13.1468 42.7413C13.7408 41.9782 14.1659 41.6289 14.5596 41.3943L14.5659 42.3376C14.5654 42.4244 14.5822 42.5105 14.6146 42.5908C14.647 42.6712 14.6947 42.7442 14.7549 42.8055C14.8151 42.8669 14.8865 42.9155 14.9653 42.9484C15.044 42.9813 15.1285 42.9979 15.2136 42.9973C15.2987 42.9967 15.3827 42.9788 15.461 42.9447C15.5393 42.9107 15.6104 42.8612 15.6698 42.799C15.7292 42.7367 15.7757 42.6631 15.807 42.5824C15.8383 42.5016 15.8535 42.4153 15.8519 42.3284L15.8384 40.3688C15.8378 40.281 15.8201 40.1942 15.786 40.1136C15.7519 40.0329 15.7022 39.9601 15.64 39.8994C15.5778 39.8387 15.5044 39.7912 15.424 39.76C15.3435 39.7288 15.2572 39.7145 15.1712 39.7177ZM45.3272 31.901C45.2428 31.9147 45.1618 31.9453 45.0892 31.9913C45.0166 32.0373 44.9538 32.0976 44.9043 32.1687C44.8548 32.2398 44.8197 32.3202 44.801 32.4053C44.7823 32.4904 44.7803 32.5785 44.7953 32.6643C44.8103 32.7502 44.8418 32.8322 44.8883 32.9055C44.9347 32.9787 44.9951 33.0416 45.0656 33.0908C45.1362 33.14 45.2155 33.1744 45.2992 33.1919C45.383 33.2094 45.4694 33.2096 45.5532 33.1927C46.071 33.0981 46.7447 33.2256 47.8691 33.6286C47.6165 34.8137 47.2507 35.5647 46.8794 35.9971C46.8238 36.062 46.7813 36.1373 46.7542 36.219C46.7271 36.3007 46.7159 36.387 46.7215 36.4731C46.7271 36.5591 46.7494 36.6431 46.7868 36.7204C46.8243 36.7977 46.8761 36.8668 46.9397 36.9236C47.0033 36.9804 47.0773 37.0239 47.1573 37.0516C47.2373 37.0792 47.322 37.0905 47.4063 37.0847C47.4906 37.079 47.5729 37.0565 47.6487 37.0183C47.7244 36.98 47.7921 36.9269 47.8477 36.8621C48.4368 36.1759 49.0182 35.0889 49.2819 33.2903C49.3032 33.1432 49.2748 32.993 49.2015 32.8644C49.1283 32.7359 49.0146 32.6365 48.8788 32.5826C47.2182 31.9227 46.2437 31.7336 45.3272 31.901Z" fill="#B99EFF"/>
<path d="M28.7128 35.124C24.8146 35.124 21.6396 38.3588 21.6397 42.3331C21.6385 42.4201 21.6544 42.5065 21.6862 42.5872C21.718 42.6679 21.7651 42.7412 21.825 42.8032C21.8848 42.8651 21.9561 42.9143 22.0347 42.9478C22.1133 42.9814 22.1975 42.9988 22.2827 42.9988C22.3679 42.9988 22.4525 42.9814 22.5311 42.9478C22.6097 42.9143 22.681 42.8651 22.7408 42.8032C22.8006 42.7412 22.8478 42.6679 22.8796 42.5872C22.9113 42.5065 22.9269 42.4201 22.9257 42.3331C22.9257 39.0691 25.5086 36.4364 28.7128 36.4364C30.2473 36.4364 31.636 37.044 32.67 38.0319L31.7545 38.9664C30.952 38.2129 29.885 37.7488 28.7128 37.7488C26.2355 37.7488 24.2117 39.8082 24.2117 42.3331C24.2105 42.4201 24.2264 42.5065 24.2582 42.5872C24.29 42.6679 24.3371 42.7412 24.397 42.8032C24.4568 42.8651 24.5281 42.9143 24.6067 42.9478C24.6853 42.9814 24.7695 42.9988 24.8547 42.9988C24.94 42.9988 25.0245 42.9814 25.1031 42.9478C25.1817 42.9143 25.253 42.8651 25.3128 42.8032C25.3726 42.7412 25.4198 42.6679 25.4516 42.5872C25.4834 42.5065 25.499 42.4201 25.4977 42.3331C25.4977 40.519 26.9289 39.0612 28.7128 39.0612C30.4966 39.0612 31.9265 40.519 31.9265 42.3331C31.9254 42.4209 31.9415 42.5081 31.974 42.5894C32.0064 42.6708 32.0543 42.7447 32.1152 42.8067C32.1761 42.8687 32.2487 42.9176 32.3284 42.9505C32.4082 42.9835 32.4936 42.9998 32.5796 42.9984H35.1416C35.2269 42.9986 35.3115 42.9814 35.3902 42.948C35.469 42.9145 35.5403 42.8654 35.6003 42.8035C35.6602 42.7416 35.7075 42.6681 35.7394 42.5874C35.7712 42.5066 35.787 42.4202 35.7858 42.3331C35.7858 38.3589 32.6109 35.124 28.7128 35.124Z" fill="#B99EFF"/>
<path d="M27.1785 32.6262C23.9118 33.1663 21.0449 35.4069 19.7601 38.6885C19.7286 38.7686 19.7129 38.8541 19.7139 38.9404C19.7149 39.0266 19.7324 39.1118 19.7657 39.1911C19.799 39.2704 19.8475 39.3422 19.9079 39.4024C19.9684 39.4626 20.0398 39.5101 20.1183 39.5421C20.1968 39.5741 20.2806 39.59 20.3651 39.5889C20.4496 39.5878 20.5333 39.5697 20.6109 39.5357C20.6886 39.5016 20.7589 39.4522 20.8178 39.3904C20.8768 39.3286 20.9231 39.2557 20.9544 39.1755C22.4417 35.377 26.3533 33.1951 30.2918 33.9669C34.2303 34.7388 37.0711 38.2445 37.0722 42.3346C37.071 42.4216 37.0866 42.508 37.1184 42.5887C37.1502 42.6694 37.1973 42.7428 37.2572 42.8047C37.317 42.8666 37.3883 42.9158 37.4669 42.9494C37.5455 42.9829 37.63 43.0003 37.7152 43.0003C37.8005 43.0003 37.8847 42.9829 37.9633 42.9494C38.0419 42.9158 38.1132 42.8666 38.173 42.8047C38.2328 42.7428 38.28 42.6694 38.3118 42.5887C38.3436 42.508 38.3595 42.4216 38.3582 42.3346C38.3582 37.6232 35.0699 33.5677 30.5342 32.6787C29.4002 32.4565 28.2674 32.4475 27.1785 32.6276V32.6262Z" fill="#B99EFF"/>
<path d="M20.3324 41.1995C20.4244 40.8494 20.2208 40.4896 19.8778 40.3958C19.5347 40.302 19.1822 40.5097 19.0903 40.8598C18.9983 41.2099 19.2019 41.5697 19.5449 41.6635C19.8879 41.7573 20.2405 41.5495 20.3324 41.1995Z" fill="#B99EFF"/>
<path d="M26.7843 42.3337C26.7843 41.2568 27.6577 40.374 28.7133 40.374C29.7688 40.374 30.6423 41.2568 30.6423 42.3337C30.6485 42.7774 30.324 42.9988 29.9993 42.9988H27.4273C27.1026 42.9988 26.7778 42.7774 26.7843 42.3337Z" fill="#B99EFF"/>
<path d="M36.4287 30.5312C36.4288 30.1688 36.7166 29.8751 37.0717 29.875C39.7756 29.8862 42.2605 31.077 44.3055 34.1004C45.9078 36.5259 46.7155 39.581 46.7155 42.3324C46.7155 42.6938 46.4292 42.9886 46.0751 42.9886L42.9417 42.999C42.5856 43.0004 42.2962 42.7062 42.2961 42.3428C42.2961 37.3115 39.9174 33.5815 36.6799 31.0515C36.5215 30.9273 36.4287 30.7351 36.4287 30.5312Z" fill="#33CF90"/>
<path d="M48.5793 39.223C48.6603 39.1921 48.7466 39.1783 48.833 39.1823C48.8973 39.1855 48.9611 39.1984 49.0217 39.2209C49.7648 39.4932 50.7158 39.9198 51.8599 41.3895C51.9125 41.4569 51.9516 41.5342 51.9748 41.6171C51.9981 41.7 52.0049 41.7867 51.9953 41.8723C51.9856 41.9579 51.9596 42.0408 51.9186 42.1161C51.8776 42.1915 51.8225 42.258 51.7563 42.3116C51.6902 42.3652 51.6146 42.405 51.5334 42.4287C51.4522 42.4524 51.3671 42.4595 51.2832 42.4497C51.1993 42.4399 51.1181 42.4132 51.0442 42.3714C50.9704 42.3295 50.9053 42.2734 50.8527 42.2059C50.2587 41.4428 49.8336 41.0934 49.4399 40.8589L49.4336 41.8021C49.434 41.889 49.4176 41.9751 49.3852 42.0554C49.3528 42.1358 49.3051 42.2087 49.2449 42.2701C49.1847 42.3315 49.113 42.3799 49.0342 42.4128C48.9555 42.4458 48.871 42.4625 48.7859 42.4619C48.7008 42.4613 48.6168 42.4434 48.5385 42.4093C48.4602 42.3753 48.3894 42.3258 48.33 42.2635C48.2706 42.2013 48.2238 42.1277 48.1925 42.0469C48.1612 41.9662 48.1459 41.8797 48.1476 41.7929L48.1611 39.8334C48.1617 39.7451 48.1797 39.6577 48.2141 39.5767C48.2485 39.4957 48.2987 39.4227 48.3614 39.3619C48.4241 39.3011 48.4982 39.2539 48.5793 39.223Z" fill="#B99EFF"/>
<path d="M28.3776 29.6362C24.9972 29.6362 21.9271 31.0299 19.7095 33.2838C19.6748 33.3192 19.6411 33.3543 19.6066 33.3902C19.5458 33.4513 19.4975 33.5242 19.4646 33.6045C19.4318 33.6849 19.4149 33.7712 19.415 33.8583C19.4152 33.9454 19.4325 34.0315 19.4656 34.1117C19.4987 34.192 19.5469 34.2648 19.6078 34.3258C19.6687 34.3867 19.7411 34.4347 19.8204 34.4669C19.8997 34.4991 19.9843 34.5149 20.0697 34.5134C20.155 34.5118 20.2393 34.493 20.3174 34.4579C20.3955 34.4229 20.4659 34.3723 20.5246 34.3091C20.5555 34.277 20.5864 34.2461 20.6175 34.2143C22.6033 32.196 25.3431 30.9486 28.3776 30.9486C34.4465 30.9486 39.3488 35.9327 39.3488 42.0949C39.3476 42.1819 39.3635 42.2683 39.3953 42.349C39.4271 42.4297 39.4743 42.5031 39.5341 42.565C39.5939 42.6269 39.6652 42.6761 39.7438 42.7096C39.8224 42.7432 39.9066 42.7606 39.9919 42.7606C40.0771 42.7606 40.1613 42.7432 40.2399 42.7096C40.3185 42.6761 40.3898 42.6269 40.4496 42.565C40.5094 42.5031 40.5566 42.4297 40.5884 42.349C40.6202 42.2683 40.6361 42.1819 40.6349 42.0949C40.6349 35.2204 35.1385 29.6362 28.3776 29.6362Z" fill="#33CF90"/>
</svg>
