<svg width="64" height="64" viewBox="0 0 64 64" fill="none" xmlns="http://www.w3.org/2000/svg">
<circle cx="32" cy="32" r="32" fill="#F8F8FA"/>
<path d="M37.4903 14C36.8247 16.5509 34.8154 18.5295 32.2534 19.189C34.8279 19.8485 36.8247 21.8395 37.4903 24.3779C38.1559 21.827 40.1653 19.8485 42.7273 19.189C40.1653 18.5295 38.1559 16.5385 37.4903 14Z" fill="#33CF90"/>
<path d="M46.5268 26.1007C47.3401 26.1007 47.9994 25.4569 47.9994 24.6627C47.9994 23.8685 47.3401 23.2246 46.5268 23.2246C45.7135 23.2246 45.0542 23.8685 45.0542 24.6627C45.0542 25.4569 45.7135 26.1007 46.5268 26.1007Z" fill="#33CF90"/>
<path d="M40.2281 28.9881C40.2281 28.346 39.7398 27.8323 39.1502 27.8323C38.5513 27.8323 38.0723 28.3559 38.0723 28.9881C38.0723 29.6203 38.5605 30.1439 39.1502 30.1439C39.7398 30.1439 40.2281 29.6302 40.2281 28.9881ZM44.1704 18.2033C44.6587 18.2033 45.0548 17.7785 45.0548 17.255C45.0548 16.7314 44.6587 16.3066 44.1704 16.3066C43.6821 16.3066 43.2859 16.7314 43.2859 17.255C43.2859 17.7785 43.6821 18.2033 44.1704 18.2033Z" fill="#33CF90"/>
<path d="M21.4584 32.8481H18C16.8954 32.8481 16 33.7436 16 34.8481V47.9997C16 49.1043 16.8954 49.9997 18 49.9997H21.4584C22.563 49.9997 23.4584 49.1043 23.4584 47.9997V34.8481C23.4584 33.7436 22.563 32.8481 21.4584 32.8481Z" fill="#B99EFF"/>
<path d="M41.4541 33.5342H32.5865C33.6314 32.7823 34.0026 28.0497 34.0026 28.0497C34.0714 27.0965 33.9889 26.1634 33.982 26.0694C33.7826 23.1224 29.1014 23.2634 29.1014 27.7342C29.1014 30.7819 26.503 32.7891 24.8257 33.7691V48.4034H25.2313C25.7468 48.4034 26.2349 48.6048 26.5992 48.9539C26.9635 49.3096 27.4516 49.5043 27.9671 49.5043H39.6325C40.1687 49.5043 40.6499 49.2962 41.0073 48.9539C41.3579 48.6048 41.571 48.1349 41.571 47.6113C41.571 46.5708 40.7049 45.7249 39.6325 45.7249H40.4024C40.9386 45.7249 41.4198 45.5168 41.7772 45.1677C42.1278 44.8254 42.3409 44.3555 42.3409 43.8319C42.3409 42.7914 41.4748 41.9455 40.4024 41.9455H41.0692C41.626 41.9455 42.1278 41.724 42.4921 41.3682C42.8496 41.0124 43.0764 40.5224 43.0764 39.9786C43.0764 38.8978 42.1759 38.0184 41.0692 38.0184H41.5504C42.1828 38.0184 42.7602 37.7701 43.1727 37.3606C43.6195 36.9242 43.8876 36.3066 43.8395 35.6219C43.7776 34.4337 42.6846 33.5342 41.4541 33.5342Z" fill="#B99EFF"/>
</svg>
