<svg width="111" height="110" viewBox="0 0 111 110" fill="none" xmlns="http://www.w3.org/2000/svg">
<path d="M106.5 60.7252C105.844 78.6953 85.8979 88.4727 70.0363 92.8169L70.0353 92.8179C69.8058 92.8812 69.5752 92.9424 69.3436 93.0036C69.2494 93.0283 69.1552 93.0518 69.061 93.0765C67.5919 93.4542 66.0796 93.79 64.5326 94.0808C64.2209 94.1398 63.908 94.1966 63.593 94.2524C62.0948 94.5143 60.5673 94.7342 59.0193 94.9091C54.4736 95.4252 49.7472 95.555 45.0597 95.2363C42.6824 95.0754 40.316 94.7974 37.9862 94.3972C36.8766 94.2051 35.7746 93.9863 34.6855 93.7363C32.1686 93.1634 29.7155 92.4349 27.362 91.5389C17.0139 87.6026 8.60792 80.4473 5.35916 69.1153C-0.0330257 46.0028 21.1795 51.3158 34.8739 40.0449C34.8739 40.0449 34.8739 40.0449 34.8749 40.0449C38.548 37.3368 41.8574 33.9207 44.5887 30.2224C46.8112 27.2108 48.5714 24.2807 50.3435 20.7819C56.2813 8.97785 79.6678 13.9873 91.945 25.0725C102.361 34.8692 106.211 49.1979 106.5 60.7252Z" fill="#F8F8FA"/>
<path fill-rule="evenodd" clip-rule="evenodd" d="M50.2468 68.5351C53.6939 59.3944 63.346 52.2847 63.346 52.2847H79.6964C88.4626 60.0042 93.5836 67.0122 94.2733 74.2235C94.9623 81.4351 92.6972 93.3186 70.1422 93.0141C47.5869 92.7091 46.7996 77.6766 50.2468 68.5351ZM76.7605 68.7022H74.6912C74.5214 67.9059 74.228 67.1575 73.7956 66.4727H76.7605C77.6098 66.4727 78.3047 65.7561 78.3047 64.8803C78.3047 64.0044 77.6098 63.2878 76.7605 63.2878H64.6847C63.8354 63.2878 63.1405 64.0044 63.1405 64.8803C63.1405 65.7561 63.8354 66.4727 64.6847 66.4727H68.1438C69.5953 66.4727 70.8616 67.4282 71.433 68.7022H64.6847C63.8354 68.7022 63.1405 69.4188 63.1405 70.2946C63.1405 71.1705 63.8354 71.8871 64.6847 71.8871H71.433C71.2322 72.2533 71.0006 72.5878 70.7226 72.8903C70.0277 73.591 69.1012 73.9732 68.1438 73.9573H64.6847C63.82 73.9732 63.1251 74.6898 63.1405 75.5816C63.1405 76.0115 63.3258 76.4256 63.6192 76.7281L72.2514 85.1522C72.8691 85.7573 73.8419 85.7255 74.4287 85.0885C75.0155 84.4515 74.9846 83.4483 74.367 82.8431L68.5453 77.1581C70.1821 77.0625 71.7264 76.3619 72.8845 75.1675C73.7647 74.2598 74.3824 73.1292 74.6912 71.8871H76.7605C77.6098 71.8871 78.3047 71.1705 78.3047 70.2946C78.3047 69.4188 77.6098 68.7022 76.7605 68.7022Z" fill="#8D61FF"/>
<path d="M79.8193 49.8467C79.8193 50.5197 79.29 51.0658 78.6374 51.0658H64.1588C63.5062 51.0658 62.9766 50.5197 62.9766 49.8467C62.9766 49.1736 63.5062 48.628 64.1588 48.628H78.6374C79.29 48.628 79.8193 49.1736 79.8193 49.8467Z" fill="#8D61FF"/>
<path d="M62.9766 47.4094C62.9766 47.4094 57.4367 37.0493 56.9933 35.5765C56.5503 34.1037 58.2738 32.7323 60.6375 34.1543C63.0016 35.5765 67.6806 36.2366 69.3544 35.4242C71.0284 34.6113 75.9531 32.1738 77.5785 34.6113C79.2037 37.0493 80.3359 36.998 81.8629 36.3889C83.3899 35.7796 84.8667 35.7796 84.1773 37.4047C83.4878 39.0298 79.8193 47.4094 79.8193 47.4094H62.9766Z" fill="#8D61FF"/>
<path d="M28.4845 57.4307C28.4243 57.4364 28.3658 57.4555 28.3131 57.4866C28.2604 57.5178 28.2147 57.5603 28.179 57.6113C28.1432 57.6623 28.1183 57.7207 28.1059 57.7825C28.0935 57.8443 28.0938 57.9081 28.107 57.9697C28.127 58.227 28.1837 58.4232 28.5447 58.4281C33.0541 58.4914 40.2156 58.7625 46.9078 51.4042L49.124 52.6961C49.2019 52.7417 49.2906 52.7637 49.3799 52.7596C49.4693 52.7555 49.5559 52.7255 49.6299 52.6729C49.704 52.6203 49.7625 52.5472 49.799 52.4619C49.8355 52.3766 49.8485 52.2824 49.8365 52.1899L48.82 44.2681C48.8105 44.1954 48.7859 44.1257 48.7478 44.0641C48.7098 44.0025 48.6593 43.9503 48.5998 43.9113C48.5403 43.8723 48.4733 43.8473 48.4035 43.8382C48.3338 43.8291 48.2629 43.8361 48.1958 43.8586L40.6513 46.4124C40.5636 46.4419 40.4858 46.4971 40.4271 46.5714C40.3685 46.6456 40.3315 46.7358 40.3205 46.8312C40.3095 46.9267 40.325 47.0233 40.3651 47.1096C40.4053 47.196 40.4684 47.2684 40.5469 47.3183C41.2933 47.7925 42.3359 48.4552 42.991 48.8741C37.8475 54.1574 35.7482 55.5156 28.4845 57.4307Z" fill="#DCDEE6"/>
<path d="M21.2188 90.6222C21.2188 92.6524 25.8116 94.297 31.4813 94.297C37.1461 94.297 41.734 92.6524 41.734 90.6222V86.6985H21.2188V90.6222Z" fill="#FFBD00"/>
<path d="M41.734 86.9474C41.734 88.9775 37.1411 90.6222 31.4813 90.6222C25.8116 90.6222 21.2188 88.9775 21.2188 86.9474C21.2188 84.9172 25.8116 83.2725 31.4813 83.2725C37.1461 83.2725 41.734 84.9172 41.734 86.9474Z" fill="#FFD766"/>
<path d="M21.2188 84.6976C21.2188 86.7277 25.8116 88.3724 31.4813 88.3724C37.1461 88.3724 41.734 86.7277 41.734 84.6976V80.7738H21.2188V84.6976Z" fill="#FFBD00"/>
<path d="M41.734 81.0227C41.734 83.0529 37.1411 84.6976 31.4813 84.6976C25.8116 84.6976 21.2188 83.0529 21.2188 81.0227C21.2188 78.9925 25.8116 77.3479 31.4813 77.3479C37.1461 77.3479 41.734 78.9925 41.734 81.0227Z" fill="#FFD766"/>
<path d="M21.2188 78.7681C21.2188 80.7982 25.8116 82.4429 31.4813 82.4429C37.1461 82.4429 41.734 80.7982 41.734 78.7681V74.8443H21.2188V78.7681Z" fill="#FFBD00"/>
<path d="M41.734 75.0932C41.734 77.1234 37.1411 78.7681 31.4813 78.7681C25.8116 78.7681 21.2188 77.1234 21.2188 75.0932C21.2188 73.063 25.8116 71.4184 31.4813 71.4184C37.1461 71.4184 41.734 73.063 41.734 75.0932Z" fill="#FFD766"/>
<path d="M21.2188 72.8434C21.2188 74.8736 25.8116 76.5183 31.4813 76.5183C37.1461 76.5183 41.734 74.8736 41.734 72.8434V68.9197H21.2188V72.8434Z" fill="#FFBD00"/>
<path d="M41.734 69.1686C41.734 71.1988 37.1411 72.8434 31.4813 72.8434C25.8116 72.8434 21.2188 71.1988 21.2188 69.1686C21.2188 67.1384 25.8116 65.4938 31.4813 65.4938C37.1461 65.4938 41.734 67.1384 41.734 69.1686Z" fill="#FFD766"/>
<path d="M43.6611 94.3019C48.6472 94.3019 52.6893 90.2663 52.6893 85.2881C52.6893 80.3099 48.6472 76.2743 43.6611 76.2743C38.6749 76.2743 34.6328 80.3099 34.6328 85.2881C34.6328 90.2663 38.6749 94.3019 43.6611 94.3019Z" fill="#FFD766"/>
<path d="M43.661 92.2083C47.4903 92.2083 50.5945 89.11 50.5945 85.2881C50.5945 81.4662 47.4903 78.3679 43.661 78.3679C39.8318 78.3679 36.7275 81.4662 36.7275 85.2881C36.7275 89.11 39.8318 92.2083 43.661 92.2083Z" fill="#FFBD00"/>
<path d="M43.661 92.2083C47.4903 92.2083 50.5945 89.11 50.5945 85.2881C50.5945 81.4662 47.4903 78.3679 43.661 78.3679C39.8318 78.3679 36.7275 81.4662 36.7275 85.2881C36.7275 89.11 39.8318 92.2083 43.661 92.2083Z" fill="#FFBD00"/>
<g clip-path="url(#clip0_1233_9257)">
<path d="M41.3008 82.0523H45.3576" stroke="#FFF5D9" stroke-width="0.7" stroke-linecap="round" stroke-linejoin="round"/>
<path d="M41.3008 83.7299H45.3576" stroke="#FFF5D9" stroke-width="0.7" stroke-linecap="round" stroke-linejoin="round"/>
<path d="M41.3008 85.4074L44.1744 88.0916" stroke="#FFF5D9" stroke-width="0.7" stroke-linecap="round" stroke-linejoin="round"/>
<path d="M41.3008 85.4074H42.3162" stroke="#FFF5D9" stroke-width="0.7" stroke-linecap="round" stroke-linejoin="round"/>
<path d="M42.3154 85.4075C44.5693 85.4075 44.5693 82.0523 42.3154 82.0523" stroke="#FFF5D9" stroke-width="0.7" stroke-linecap="round" stroke-linejoin="round"/>
</g>
<defs>
<clipPath id="clip0_1233_9257">
<rect width="8.11364" height="8.05241" fill="white" transform="translate(39.2725 81.0457)"/>
</clipPath>
</defs>
</svg>
