<svg width="141" height="120" viewBox="0 0 141 120" fill="none" xmlns="http://www.w3.org/2000/svg">
<path d="M113.996 66.1566C113.292 85.7461 91.8801 96.4046 74.8529 101.14L74.8517 101.141C74.6054 101.21 74.3578 101.277 74.1092 101.344C74.008 101.371 73.9069 101.396 73.8058 101.423C72.2288 101.835 70.6053 102.201 68.9447 102.518C68.61 102.582 68.2742 102.644 67.936 102.705C66.3277 102.991 64.6879 103.23 63.0261 103.421C58.1464 103.984 53.0726 104.125 48.0406 103.778C45.4886 103.602 42.9483 103.299 40.4473 102.863C39.2561 102.654 38.0731 102.415 36.9039 102.143C34.2021 101.518 31.5686 100.724 29.0423 99.7471C17.9336 95.4561 8.90982 87.656 5.42231 75.3028C-0.366176 50.1075 22.4054 55.8992 37.1062 43.6126C37.1062 43.6126 37.1062 43.6126 37.1073 43.6126C41.0504 40.6605 44.603 36.9366 47.535 32.905C49.9208 29.622 51.8104 26.4278 53.7127 22.6138C60.087 9.74595 85.1921 15.2068 98.3717 27.291C109.554 37.9705 113.686 53.5905 113.996 66.1566Z" fill="#F4F0FF"/>
<path d="M68.1151 15.3002C68.6055 15.2462 69.0951 15.1773 69.5872 15.1352L70.326 15.0769L70.6955 15.0491L71.0659 15.0338L71.8069 15.0058C72.0539 14.9954 72.3012 15.0027 72.5484 15.0003L73.2903 15.0016L74.0318 15.0278C76.0088 15.1064 77.983 15.3327 79.9281 15.7169C83.8169 16.495 87.5922 17.8321 91.1414 19.6205C98.2348 23.2062 104.414 28.6764 108.738 35.4082C110.889 38.7762 112.568 42.4569 113.653 46.3118C114.734 50.1669 115.234 54.1852 115.127 58.1825C115.027 62.1806 114.361 66.153 113.219 69.9696C112.641 71.8765 111.956 73.7474 111.185 75.5801C110.778 76.487 110.387 77.4007 109.939 78.2876C109.514 79.1854 109.029 80.0524 108.568 80.9303C108.999 80.0365 109.454 79.1549 109.848 78.2442C110.271 77.3472 110.639 76.426 111.022 75.512C111.744 73.6659 112.378 71.7869 112.904 69.8785C113.441 67.973 113.843 66.0315 114.131 64.0761C114.416 62.1203 114.584 60.1477 114.606 58.1733C114.628 56.1992 114.512 54.2247 114.255 52.2694C113.997 50.3144 113.593 48.3796 113.046 46.487C111.959 42.6992 110.304 39.0812 108.177 35.7718C106.06 32.4538 103.475 29.443 100.558 26.8072C97.6445 24.166 94.3889 21.9074 90.9087 20.0785C87.4264 18.2539 83.7066 16.8755 79.8624 16.0374C76.0222 15.1822 72.0463 14.9184 68.1151 15.3002ZM5.9001 61.2783C5.78622 62.1748 5.72673 63.0768 5.68622 63.9785C5.64407 64.8802 5.62826 65.7827 5.63846 66.6849C5.64846 67.5869 5.68367 68.4882 5.73989 69.3877C5.80142 70.287 5.88377 71.1844 5.99122 72.0785C6.20551 73.8665 6.51756 75.6417 6.93573 77.3897C7.36298 79.1353 7.88871 80.8556 8.54056 82.5262C9.19241 84.1959 9.96089 85.819 10.8577 87.3661C11.7559 88.9123 12.7812 90.3824 13.9268 91.7496C15.0722 93.1169 16.3306 94.3878 17.6929 95.5362C19.0514 96.6895 20.5213 97.7072 22.0558 98.6093C23.5902 99.5126 25.1915 100.303 26.8418 100.976C28.4981 101.635 30.1938 102.194 31.9165 102.659C35.3681 103.571 38.9177 104.098 42.4844 104.364C46.0542 104.611 49.6434 104.601 53.2229 104.4C54.1175 104.344 55.014 104.308 55.9068 104.221L57.2475 104.108L57.9179 104.05L58.5867 103.976L59.9246 103.827C60.3703 103.776 60.8175 103.734 61.2616 103.669L63.9326 103.318L61.2757 103.769C60.8332 103.849 60.3871 103.902 59.9425 103.966L58.6074 104.153L57.9398 104.246L57.2701 104.322L55.9303 104.474C55.0379 104.586 54.1406 104.648 53.2447 104.728C49.6587 105.008 46.0511 105.09 42.451 104.887C42.0012 104.861 41.5521 104.821 41.1025 104.788L40.4283 104.737L40.0911 104.711L39.7548 104.674L38.4104 104.52C38.1866 104.492 37.9615 104.474 37.7389 104.437L37.0697 104.335C36.6238 104.266 36.1769 104.202 35.7316 104.128L34.4011 103.873C34.1795 103.829 33.9569 103.791 33.7363 103.742L33.0761 103.588C32.6366 103.483 32.1944 103.389 31.757 103.275C30.8855 103.033 30.0107 102.802 29.1543 102.506C28.7241 102.366 28.2918 102.232 27.8702 102.065C27.4466 101.905 27.0205 101.752 26.5991 101.585C24.9191 100.905 23.2851 100.106 21.7184 99.1882C18.5858 97.3508 15.7589 94.9688 13.4433 92.1561C11.1266 89.3439 9.31578 86.1246 8.05637 82.7132C7.42207 81.0089 6.90685 79.2615 6.51185 77.4888C6.12541 75.7142 5.84326 73.9185 5.66805 72.1136C5.58458 71.2106 5.52672 70.3058 5.48978 69.4005C5.45825 68.495 5.44785 67.5892 5.46274 66.6839C5.49417 64.8745 5.61489 63.0638 5.9001 61.2783Z" fill="#F4F0FF"/>
<path d="M129.129 44.3102C131.789 44.3102 133.945 42.1405 133.945 39.4641C133.945 36.7877 131.789 34.6181 129.129 34.6181C126.47 34.6181 124.314 36.7877 124.314 39.4641C124.314 42.1405 126.47 44.3102 129.129 44.3102Z" fill="#4F2DA7"/>
<path d="M120.169 65.264C116.234 61.6315 113.019 57.9265 111.619 54.0395L108.955 55.7487L115.325 68.6118C115.641 69.2508 116.378 69.5198 116.898 69.1861L120.161 67.0929C120.743 66.7198 120.748 65.799 120.169 65.264Z" fill="#5A6389"/>
<path d="M120.169 65.264C116.234 61.6315 113.02 57.9265 111.62 54.0395L110.669 54.6497C111.748 58.1391 114.025 61.7063 116.829 65.3076C117.314 65.9305 117.16 66.8382 116.526 67.1109L114.923 67.7998L115.325 68.6118C115.642 69.2508 116.379 69.5198 116.899 69.1861L120.162 67.0929C120.744 66.7198 120.749 65.799 120.169 65.264Z" fill="#5A6389"/>
<path d="M105.247 56.3525C106.369 56.3525 107.278 55.4374 107.278 54.3085C107.278 53.1795 106.369 52.2644 105.247 52.2644C104.125 52.2644 103.216 53.1795 103.216 54.3085C103.216 55.4374 104.125 56.3525 105.247 56.3525Z" fill="#FFF5D9"/>
<path d="M108.655 46.6357L106.629 47.8771L111.595 55.7187L113.537 54.4733C115.891 52.9629 118.484 51.8941 121.128 51.3441L135.792 49.9842L122.191 28.5079L114.7 41.1945C113.088 43.3746 111.01 45.1253 108.655 46.6357Z" fill="#B99EFF"/>
<path d="M119.309 33.3873L122.32 38.1414C125.224 42.7254 120.711 49.5174 114.372 50.1052C112.597 50.4745 110.845 51.0789 109.172 51.8927L111.595 55.7187L113.537 54.4733C115.891 52.9629 118.484 51.8941 121.128 51.3441L135.792 49.9842L122.19 28.5079L119.309 33.3873Z" fill="#B99EFF"/>
<path d="M114.612 54.9052L113.933 55.3407C113.745 55.4616 113.495 55.4057 113.375 55.2162L107.901 46.5738C107.781 46.3843 107.837 46.1327 108.025 46.0118L108.704 45.5763C108.892 45.4554 109.142 45.5112 109.262 45.7008L114.736 54.3432C114.856 54.5327 114.8 54.7843 114.612 54.9052ZM136.238 50.1166L135.283 50.7287C135.019 50.8985 134.667 50.8202 134.499 50.5537L121.019 29.27C120.85 29.0036 120.928 28.65 121.193 28.4802L122.147 27.8681C122.412 27.6983 122.763 27.7766 122.932 28.043L136.411 49.3268C136.58 49.5932 136.502 49.9468 136.238 50.1166Z" fill="#8D61FF"/>
<path d="M107.199 47.3747C104.571 49.0607 103.586 52.2361 104.999 54.4671C106.412 56.6982 109.688 57.1401 112.316 55.4541L113.176 54.9025L108.059 46.8231L107.199 47.3747Z" fill="#B99EFF"/>
<path d="M107.199 47.3743C107.117 47.4267 107.037 47.4807 106.958 47.5359L109.667 51.8128C110.675 53.405 109.334 55.7497 107.205 56.0358C107.079 56.0526 106.965 56.0597 106.865 56.0553C108.459 56.7602 110.536 56.5954 112.316 55.4536L113.175 54.902L108.058 46.8226L107.199 47.3743Z" fill="#B99EFF"/>
<path d="M90.4704 38.6643C90.4704 38.6643 80.3455 36.0987 78.5321 53.4913C76.7122 70.9463 52.0013 66.1973 58.0248 79.2026C64.0481 92.208 81.6725 95.7604 85.7498 87.0352C89.827 78.3098 98.0923 66.6816 98.8766 52.9446C99.2982 45.5605 99.1446 40.9953 90.4704 38.6643Z" fill="#132056"/>
<path d="M115.089 68.1038C115.089 68.1038 119.41 63.8872 117.11 60.8018C113.794 56.3534 115.627 63.8734 113.932 63.0356C113.481 62.8128 113.763 61.352 113.44 60.6565C113.116 59.961 110.904 59.3427 110.669 60.2992C110.2 62.2122 110.984 66.5498 110.984 66.5498L115.089 68.1038Z" fill="#FFA283"/>
<path d="M95.626 63.3008C95.626 63.3008 99.2576 64.4255 100.155 65.1266C102.729 67.1382 107.278 74.3964 107.278 74.3964L109.969 66.0272L117.001 68.7632C115.548 70.0912 113.829 84.8253 108.956 86.494C105.675 87.6177 98.3304 82.3843 98.3304 82.3843L95.626 63.3008Z" fill="#FE794D"/>
<path d="M79.2872 74.527L80.9446 78.5226L75.5 100.744C72.7368 101.654 70.3393 102.095 67.5 102.762C68.9098 93.6442 72.4481 70.7556 75.0944 66.5864L75.0959 66.5848C75.4198 66.0751 75.765 65.642 76.1331 65.2976C76.1513 65.2793 76.1696 65.2608 76.1893 65.2441C76.1999 65.2333 76.2106 65.2227 76.2228 65.2135H76.2243C76.2258 65.2119 76.229 65.2104 76.229 65.2104C76.3035 65.2104 76.6381 66.1456 77.0608 67.4205V67.4221C77.9716 70.1771 79.2872 74.527 79.2872 74.527Z" fill="#FE794D"/>
<path d="M98.4551 85.1871C98.3851 85.9019 98.5097 90.4423 98.4551 91.1112C92.5894 95.2729 85.1876 97.6545 77.763 100.25C77.6854 98.1977 77.7228 89.1299 77.4947 86.5677C76.7084 77.7653 75.3602 71.0551 75.6157 67.0297C75.6644 66.2628 75.7708 65.7348 75.9518 65.5022C76.0051 65.4333 76.0659 65.3644 76.1329 65.2971C76.1511 65.2788 76.1694 65.2604 76.1891 65.2436C76.1997 65.2329 76.2104 65.2222 76.2226 65.213L76.2235 65.2131C77.2971 64.2078 79.7717 63.2465 81.3766 62.8115C82.3925 62.5361 83.3704 62.3325 84.152 62.1901H86.3815L91.5279 62.1886H92.4922C92.4982 62.1917 92.5043 62.1932 92.5103 62.1963C92.518 62.1993 92.5271 62.2024 92.5408 62.2069C92.6838 62.2651 92.8282 62.3202 92.9742 62.3738C92.9787 62.3753 92.9834 62.3768 92.9878 62.3799C93.9597 62.7443 94.9755 63.061 95.964 63.4207C97.1275 63.8446 97.9624 64.0253 98.738 64.5089C99.0619 64.711 99.3752 64.9665 99.6976 65.3124C99.7797 65.4012 99.8634 65.4961 99.947 65.5971C100.817 66.6471 99.2444 77.0995 98.4551 85.1871Z" fill="#FE794D"/>
<path d="M85.75 60.8016C87.2132 65.5063 92.4951 64.5329 91.717 60.8016C91.717 60.3171 91.7346 59.6335 91.7565 58.9589C91.7575 58.9287 91.7584 58.8991 91.7594 58.8694C91.7985 57.7109 91.8498 56.6044 91.8498 56.6044L88.4734 55.1366L87.6423 54.7756L86.7394 54.3831C86.7613 54.4798 86.7765 54.5909 86.7856 54.7139C86.8631 55.8007 86.4601 57.8281 86.1348 59.2433C85.9265 60.1472 85.75 60.8016 85.75 60.8016Z" fill="#FFA283"/>
<path d="M86.1348 59.2441C86.4425 58.4374 87.1713 57.7669 87.8758 58.3515C89.0799 59.3507 91.3286 58.5729 91.8277 58.132C91.8277 58.132 89.2063 55.9757 88.4733 55.1373C88.3216 54.9635 88.2292 54.8568 88.2231 54.8482C88.2103 54.8285 87.961 54.8022 87.6422 54.7763C87.373 54.7539 87.0538 54.7317 86.7855 54.7145C86.863 55.8013 86.4602 57.8288 86.1348 59.2441Z" fill="#E39298"/>
<path d="M83.4611 53.7433C83.5708 53.7793 83.679 53.7996 83.8065 53.8337L83.7831 53.6133L83.5841 51.2315C83.3207 50.7504 83.1246 50.2303 82.9595 49.6751L82.9579 49.6593C82.499 49.5016 81.7746 49.3404 81.175 49.6914C80.3757 50.159 79.8852 52.7104 83.4611 53.7433Z" fill="#E39298"/>
<path d="M83.3842 52.8267C83.4607 52.8433 83.535 52.8494 83.6235 52.8634L83.5926 52.7165L83.294 51.1239C83.0832 50.8179 82.915 50.4808 82.7654 50.118L82.7632 50.1075C82.4429 50.0331 81.9432 49.9751 81.563 50.2536C81.056 50.625 80.9012 52.3799 83.3842 52.8267Z" fill="#E39298"/>
<path d="M80.9516 49.6083C81.4484 55.2919 85.4895 62.0775 91.7797 61.2723C99.0716 60.3388 99.7776 47.076 94.91 40.9904C90.4336 42.4387 87.2951 42.8125 82.7404 42.772C81.8347 44.718 80.7828 47.312 80.9516 49.6083Z" fill="#FFA283"/>
<path d="M98.0762 51.2281C98.8581 46.0494 98.6592 44.4946 95.722 41.2556C94.7125 40.1423 92.6445 39.7266 92.6445 39.7266C93.3571 44.0693 97.7106 46.5278 98.0762 51.2281Z" fill="#132056"/>
<path d="M83.6669 58.234C82.7843 45.1885 97.4514 49.3435 95.0184 40.9328C94.1402 37.897 85.8669 37.5932 82.418 41.2081C80.9756 42.72 79.5164 45.8677 80.0041 49.342C80.3886 52.0821 82.0612 55.5654 83.6669 58.234Z" fill="#132056"/>
<path d="M85.7493 60.802C85.7493 60.802 85.4165 62.3066 84.1514 62.1903C84.1514 62.1903 86.0654 65.4439 89.1927 65.4439C92.3199 65.4439 92.4913 62.1899 92.4913 62.1899C92.4913 62.1899 91.9356 62.1893 91.7894 61.3649L85.7493 60.802Z" fill="#FFA283"/>
<path d="M89.9638 38.664C89.415 38.5698 88.856 38.6077 88.3116 38.6917C87.7661 38.7776 87.2306 38.9182 86.7095 39.0975C85.6687 39.4614 84.6811 39.9699 83.7802 40.5998C82.878 41.2278 82.0585 41.9717 81.3489 42.8079C80.6421 43.6462 80.0354 44.5683 79.5524 45.5526C79.0671 46.5361 78.7043 47.5777 78.4413 48.6433C78.3099 49.1763 78.205 49.7162 78.1239 50.26C78.0855 50.5323 78.05 50.8049 78.0223 51.0786C77.9942 51.354 77.9739 51.6219 77.9499 51.9079C77.9023 52.4723 77.8348 53.036 77.7414 53.5962C77.6453 54.1559 77.5248 54.7123 77.3779 55.2622C77.0841 56.3619 76.6768 57.4353 76.149 58.4481C75.6249 59.4632 74.9648 60.406 74.2161 61.2632C73.4661 62.1208 72.6222 62.8886 71.7252 63.5761C69.9204 64.9443 67.9271 65.9956 65.9366 66.9855C64.941 67.4825 63.9455 67.9722 62.9747 68.5005C62.0039 69.0268 61.0555 69.5958 60.1962 70.2807C59.3354 70.9591 58.5691 71.7708 58.033 72.7352C57.4911 73.6956 57.2049 74.7964 57.1328 75.9109C57.136 75.3521 57.1885 74.791 57.3067 74.2404C57.4272 73.6905 57.6153 73.1536 57.8663 72.6464C58.3688 71.6282 59.1307 70.756 59.9848 70.0219C60.8445 69.2885 61.793 68.6765 62.7579 68.1108C63.7256 67.548 64.7159 67.035 65.6972 66.5142C66.6782 65.9926 67.6562 65.4729 68.6058 64.9109C69.5551 64.349 70.4757 63.7437 71.3395 63.0695C72.2056 62.399 73.0131 61.656 73.7271 60.8318C74.4427 60.009 75.0578 59.1027 75.5671 58.1391C76.0756 57.1747 76.4707 56.1494 76.7584 55.0924C77.046 54.035 77.2329 52.9483 77.3415 51.8518C77.3683 51.5814 77.3938 51.2923 77.4265 51.0123C77.4588 50.7304 77.4989 50.4494 77.5425 50.1689C77.6335 49.6087 77.7492 49.052 77.8927 48.5022C78.1787 47.4026 78.5854 46.3332 79.1082 45.3245C80.1491 43.3047 81.7125 41.5586 83.6091 40.3408C84.5575 39.7343 85.5819 39.2473 86.6571 38.9308C87.1947 38.7743 87.7437 38.6555 88.2998 38.5978C88.8542 38.5439 89.4208 38.5386 89.9638 38.664Z" fill="#132056"/>
<path d="M98.0919 43.9276C98.7051 45.5093 99.0741 47.1806 99.3292 48.8601C99.5791 50.5423 99.7094 52.2456 99.6951 53.9487C99.704 54.3746 99.673 54.7997 99.6591 55.2251C99.6376 55.6502 99.6362 56.0763 99.5875 56.4996L99.4643 57.7699C99.4237 58.1932 99.3464 58.6125 99.2837 59.0327L99.1855 59.6625C99.1565 59.8729 99.1133 60.081 99.0663 60.2884L98.7938 61.5326C98.7071 61.9476 98.5795 62.3536 98.4624 62.761C98.3435 63.1679 98.2195 63.5728 98.0918 63.9757C98.1516 63.5552 98.2149 63.1369 98.2833 62.7205C98.3466 62.3031 98.4352 61.8917 98.4745 61.4709C98.5788 60.6346 98.7067 59.8048 98.7712 58.9666L98.8301 58.3399C98.8494 58.1311 98.8791 57.9234 98.8869 57.7135L98.962 56.4579C98.9962 56.0402 98.9985 55.6208 99.0126 55.2021C99.0214 54.7833 99.046 54.3647 99.0333 53.9458L99.0331 52.689C99.0182 52.2703 98.9976 51.8518 98.987 51.4328C98.953 50.5955 98.8934 49.7589 98.8183 48.923C98.6618 47.2519 98.4411 45.584 98.0919 43.9276Z" fill="#132056"/>
<path d="M12.4373 74.6406C12.4373 74.6406 7.45375 67.4491 9.77042 64.0712C11.5187 61.522 11.6386 70.1738 13.3959 69.1916C13.8631 68.9305 13.485 67.3932 13.7917 66.6365C14.0984 65.8798 15.0899 65.9036 15.3907 66.9073C15.9923 68.9149 16.7165 72.7669 16.7165 72.7669L12.4373 74.6406Z" fill="#FFA283"/>
<path d="M14.8008 70.0439C14.9571 70.557 14.669 71.1 14.1564 71.2581C13.6412 71.4171 13.0949 71.1271 12.9378 70.6114L10.0376 61.0901C9.8813 60.5769 10.1695 60.034 10.6821 59.8758C11.1973 59.7169 11.7435 60.0068 11.9006 60.5226L14.8008 70.0439Z" fill="#4F2DA7"/>
<path d="M32.7401 68.3089L28.1633 70.4285C25.7965 71.4426 23.2169 81.2406 23.2169 81.2406L19.2841 74.1064C18.6258 72.9123 17.1697 72.4227 15.9305 72.9789L13.0051 74.292C11.7064 74.8748 11.107 76.3947 11.6573 77.7143C13.764 82.7658 18.7864 94.1595 21.5403 94.9514C25.0866 95.9711 29.8026 90.3626 29.8026 90.3626L30.3828 89.7817L32.7401 68.3089Z" fill="#9CCCFA"/>
<path d="M50.5303 95.6012C50.5043 95.9612 50.4381 97.0361 50.3554 98.4402C50.2066 100.927 50.464 101.558 50.3555 103.967C41.2936 103.967 35.968 102.502 26.2852 98.595C26.303 97.8636 26.3812 94.264 26.399 93.4904C26.6094 84.0956 26.8376 72.1227 28.1631 70.4288C28.2116 70.3685 28.2586 70.3212 28.3087 70.2871C29.2781 69.5949 30.6246 68.9971 32.0989 68.5117C32.1247 68.5019 32.1507 68.4938 32.1766 68.4872L32.7397 68.3096C33.5668 68.0621 34.4212 67.847 35.2644 67.6696C35.3146 67.6581 35.3631 67.6483 35.4132 67.637C35.4601 67.6271 35.5071 67.6174 35.554 67.6093C36.0881 67.5017 36.6173 67.4074 37.1286 67.3308C37.161 67.3258 37.1933 67.3209 37.2241 67.3161C37.3244 67.2998 37.4233 67.2852 37.5219 67.2721C37.619 67.2591 37.716 67.2461 37.8115 67.2346C37.8957 67.2233 37.9798 67.2135 38.0623 67.2021L45.0989 67.6647H45.1021C45.1054 67.6647 45.107 67.6647 45.1086 67.6664L45.1134 67.668C45.5973 67.7462 46.3547 67.9253 47.2319 68.1777H47.2335C49.2094 68.7413 51.9283 69.888 53.2748 70.9303C54.3138 71.7349 54.9416 72.5706 55.2621 73.4744C56.7949 77.7906 51.3459 83.6917 50.5303 95.6012Z" fill="#5AAAF6"/>
<path d="M45.1027 67.6677C43.983 70.5851 40.0009 71.3548 40.0009 71.3548C40.0009 71.3548 36.9016 69.5007 37.5475 67.171C37.5874 66.5576 37.6213 65.6905 37.649 64.8346C37.6502 64.7963 37.6515 64.7586 37.6527 64.721C37.6985 63.2508 37.7245 61.8458 37.7245 61.8458L42.1201 60.2684L43.2019 59.8805L44.3773 59.4587C44.3417 59.5793 44.3132 59.7187 44.2917 59.8737C44.1042 61.2433 44.4477 63.8438 44.7434 65.6627C44.933 66.8244 45.1027 67.6677 45.1027 67.6677Z" fill="#FFA283"/>
<path d="M44.7428 65.6635C44.4194 64.6166 43.5519 63.707 42.6119 64.3885C41.0051 65.5532 38.2442 65.4353 37.6484 64.8355C37.6484 64.8355 41.1225 61.2696 42.1195 60.2692C42.3258 60.0618 42.4515 59.9344 42.4601 59.924C42.4779 59.9002 42.7957 59.8876 43.2014 59.8814C43.5441 59.8753 43.95 59.874 44.2911 59.8745C44.1037 61.2441 44.4473 63.8446 44.7428 65.6635Z" fill="#FFA283"/>
<path d="M45.6899 55.4083C44.969 60.4637 41.2308 65.5391 35.6794 64.7304C29.2442 63.7929 28.9734 52.0873 33.5989 46.7375C37.5064 48.0924 40.5245 46.9099 44.4541 47.9445C45.1635 49.6911 45.9528 53.3654 45.6899 55.4083Z" fill="#FFA283"/>
<path d="M28.8997 45.9487C30.1998 45.1769 31.9537 46.0593 33.3185 45.4345C34.1499 45.049 34.6421 44.1937 35.3149 43.5718C36.3207 42.6391 37.9373 42.1302 39.2665 42.437C40.5958 42.7439 41.5122 43.197 41.9888 44.4694C42.9202 43.5891 45.0451 44.497 45.9687 45.6506C46.8923 46.8041 47.0627 48.1912 47.0492 49.6746C47.0264 52.2348 46.5004 54.7702 45.5012 57.1371C45.4118 57.3452 45.2501 57.5915 45.027 57.5481C44.954 57.52 44.8888 57.475 44.8368 57.4168C44.7848 57.3586 44.7475 57.2888 44.7279 57.2131C44.2161 55.9868 44.0662 54.6407 43.8688 53.3243C43.6714 52.0079 43.4074 50.6638 42.7029 49.5345C41.9984 48.4052 40.766 47.5247 39.4306 47.5873C38.4431 47.633 37.5369 48.1807 36.8123 48.8542C36.0878 49.5277 35.5002 50.3376 34.8284 51.0664C34.1566 51.7952 33.3709 52.4711 32.4196 52.7441C31.4683 53.0172 30.3331 52.8251 29.7167 52.0586C29.1003 51.2921 29.2678 49.9553 30.1605 49.5331C29.7147 49.6019 29.2602 49.514 28.8749 49.2845C28.4896 49.055 28.1975 48.6983 28.0488 48.2754C27.9 47.8525 27.9038 47.3899 28.0596 46.9669C28.2154 46.5439 28.5134 46.1868 28.9025 45.9569L28.8997 45.9487Z" fill="#132056"/>
<path d="M30.5612 51.8951C31.4072 51.9315 32.2515 51.7671 33.0247 51.4154C33.798 51.0637 34.4781 50.5346 35.0093 49.8717C35.7426 48.9411 36.2087 47.7255 37.2514 47.1526C37.6087 46.973 37.9977 46.8658 38.3956 46.8373C38.7936 46.8088 39.1926 46.8596 39.5693 46.9867C40.3221 47.2455 41.0121 47.6564 41.5966 48.1938C41.2663 50.1786 42.1536 52.1321 43.0172 53.9395C43.0908 54.1506 43.2334 54.3305 43.4222 54.4503C43.7611 54.6129 44.1661 54.3445 44.3675 54.0242C44.6913 53.5108 44.7278 52.8755 44.7158 52.27C44.7058 50.8908 44.4219 49.5295 43.8807 48.2649C43.3318 46.9975 42.4213 45.9215 41.2616 45.1698C39.7736 44.2769 37.9911 43.9979 36.2896 44.3914C34.5983 44.8007 33.0744 45.7297 31.9341 47.0467C31.3793 47.631 30.9771 48.3421 30.7632 49.1163" fill="#132056"/>
<path d="M47.0303 49.5119C46.7698 49.5731 46.504 49.6093 46.2366 49.6199C45.9494 49.6128 45.6666 49.5488 45.4047 49.4315C45.0823 49.2869 44.7827 49.0966 44.5152 48.8664C44.0313 48.4413 43.7003 47.8706 43.5726 47.2411C43.5309 46.9777 43.506 46.7119 43.4982 46.4454C43.4738 46.5133 43.4608 46.5848 43.4599 46.657C43.4448 46.8555 43.4533 47.0552 43.4854 47.2517C43.592 47.9125 43.9269 48.5156 44.4323 48.9574C44.71 49.1955 45.0229 49.3896 45.36 49.5331C45.6366 49.6513 45.9356 49.7091 46.2366 49.7024C46.4386 49.6976 46.6387 49.6626 46.8303 49.5987C46.9013 49.5809 46.9689 49.5516 47.0303 49.5119Z" fill="#5A6389"/>
<path d="M46.7002 51.3114C46.7002 51.2882 46.3981 51.3114 45.9257 51.2353C45.3096 51.1319 44.7328 50.8656 44.2558 50.4642C43.7789 50.0628 43.4193 49.5411 43.2149 48.9539C43.0553 48.5031 43.0362 48.2026 43.0128 48.2068C43.0009 48.2768 43.0009 48.3484 43.0128 48.4184C43.0326 48.6102 43.0718 48.7995 43.1298 48.9835C43.3164 49.5965 43.6765 50.1432 44.1669 50.5582C44.6574 50.9732 45.2576 51.2391 45.8959 51.3241C46.0875 51.3512 46.2814 51.359 46.4747 51.3474C46.5515 51.3507 46.6282 51.3384 46.7002 51.3114Z" fill="#5A6389"/>
<path d="M28.9962 47.2004C29.0083 47.2706 29.0342 47.3377 29.0722 47.3978C29.1808 47.5819 29.3452 47.7266 29.542 47.811C29.8569 47.9371 30.2047 47.9597 30.5354 47.8757C30.745 47.8329 30.9491 47.7658 31.1436 47.6758C31.3646 47.5793 31.5563 47.4256 31.6987 47.2309C31.7779 47.1201 31.831 46.993 31.8539 46.8592C31.8768 46.7255 31.8689 46.5885 31.8308 46.4589C31.7763 46.3211 31.6835 46.2021 31.5633 46.1157C31.4431 46.0293 31.3004 45.9791 31.1518 45.9709C30.9981 45.9545 30.8422 45.9744 30.6968 46.029C30.5461 46.0904 30.4162 46.1943 30.3231 46.3278C30.2306 46.4668 30.1693 46.6239 30.1435 46.7882C30.1176 46.9525 30.1278 47.1201 30.1733 47.2794C30.2149 47.4484 30.2896 47.6072 30.3931 47.7467C30.4966 47.8862 30.6269 48.0037 30.7764 48.0924C31.085 48.2711 31.4362 48.3646 31.7944 48.3633C32.5402 48.3405 33.2591 48.0673 33.8348 47.588C34.4066 47.1281 34.9238 46.6042 35.3763 46.0269C35.7959 45.4969 36.2586 45.0023 36.7598 44.5483C37.2125 44.1429 37.7556 43.852 38.3428 43.7002C38.8585 43.5828 39.3926 43.5805 39.9071 43.6932C40.6553 43.8643 41.3449 44.2252 41.9095 44.7412C42.1112 44.921 42.2653 45.0719 42.3528 45.1807C42.3992 45.2405 42.4505 45.2964 42.5062 45.3477C42.4983 45.3305 42.4876 45.3148 42.4746 45.3011C42.4616 45.2675 42.4208 45.2267 42.3747 45.1721C42.2419 45.0097 42.0982 44.8566 41.9446 44.7138C41.3813 44.1754 40.6839 43.7968 39.9232 43.6165C39.3976 43.4951 38.8504 43.4924 38.3213 43.6087C37.7157 43.7614 37.1553 44.0593 36.6887 44.4762C36.1797 44.9313 35.7102 45.4286 35.2853 45.9627C34.8369 46.5312 34.3266 47.0484 33.7638 47.5045C33.2088 47.9659 32.5169 48.2301 31.7984 48.255C31.4627 48.257 31.1333 48.1707 30.8432 48.0049C30.5658 47.8487 30.3628 47.5884 30.279 47.2811C30.2374 47.1379 30.2271 46.9872 30.2489 46.8392C30.2707 46.6911 30.324 46.5491 30.4053 46.4228C30.4872 46.3088 30.5985 46.219 30.7273 46.1633C30.856 46.1076 30.9973 46.0881 31.1356 46.1068C31.2653 46.1122 31.3905 46.1542 31.4965 46.228C31.6026 46.3019 31.6852 46.4044 31.7348 46.5238C31.7688 46.6394 31.7759 46.7614 31.7558 46.8807C31.7356 46.9999 31.6887 47.1134 31.6184 47.2124C31.4874 47.4001 31.3078 47.5491 31.0991 47.6432C30.9142 47.7315 30.7197 47.7979 30.5197 47.841C30.2018 47.9278 29.8657 47.9135 29.5583 47.8C29.3669 47.7232 29.204 47.5898 29.0912 47.4175C29.0552 47.3472 29.0235 47.2747 28.9962 47.2004Z" fill="#5A6389"/>
<path d="M61.1441 103.479C57.7551 103.967 54.8503 103.967 51.4613 103.967L50.3555 98.4442V98.441L47.8633 83.5524L54.3496 71.9962C54.6798 72.4556 54.9824 72.9508 55.2623 73.4751C58.5427 79.6221 60.6375 93.9097 61.1441 103.479Z" fill="#9CCCFA"/>
<path d="M37.8933 58.6491C37.8937 58.6422 37.8957 58.6356 37.8942 58.6287C37.8919 58.6228 37.8898 58.617 37.8877 58.611C37.8818 58.5998 37.8736 58.5908 37.863 58.5839C37.8521 58.5765 37.8378 58.5718 37.8245 58.5713C37.8177 58.571 37.8108 58.5713 37.8042 58.573C37.801 58.5739 37.8003 58.5745 37.795 58.5764C37.7933 58.577 37.7885 58.5784 37.7857 58.5799C37.7855 58.58 37.7855 58.58 37.7854 58.5801C37.7854 58.5801 37.7854 58.5801 37.7853 58.5803C37.7828 58.582 37.7802 58.5837 37.7778 58.5856C37.7747 58.5878 37.7723 58.5892 37.7698 58.5913C37.7649 58.5956 37.7608 58.601 37.7571 58.6064C37.7531 58.6124 37.75 58.6191 37.7479 58.6258C37.7478 58.6263 37.7477 58.6268 37.7476 58.6273C37.7467 58.6317 37.7447 58.6422 37.7441 58.6466C37.7441 58.6467 37.7441 58.6468 37.744 58.647C37.744 58.6472 37.7439 58.6476 37.7439 58.6478C37.7432 58.6552 37.7447 58.6635 37.7456 58.6701C37.7457 58.6706 37.7457 58.6712 37.7458 58.6717C37.7458 58.672 37.746 58.6722 37.7461 58.6725C37.7469 58.6755 37.7509 58.6855 37.7494 58.6814C37.7492 58.6807 37.7515 58.6877 37.7528 58.6905C37.753 58.691 37.7531 58.6914 37.7534 58.6918C37.7538 58.6924 37.755 58.6941 37.756 58.6955C37.7556 58.695 37.7629 58.7057 37.7643 58.7073C37.7644 58.7074 37.7646 58.7077 37.7648 58.7078C37.7784 58.722 37.7969 58.7317 37.8167 58.7322C37.8235 58.7325 37.8306 58.732 37.8373 58.7303C37.8374 58.7303 37.8375 58.7303 37.8376 58.7303C37.8378 58.7302 37.8379 58.7303 37.8379 58.7302C37.8437 58.7281 37.8495 58.7259 37.8554 58.7237C37.8558 58.7236 37.8561 58.7235 37.8564 58.7232C37.865 58.7191 37.872 58.7132 37.8775 58.7055C37.8842 58.6987 37.8889 58.6908 37.8915 58.6814C37.8949 58.672 37.8958 58.6624 37.8941 58.6527C37.8942 58.6514 37.8933 58.6503 37.8933 58.6491ZM38.3487 58.4592C38.2561 58.4551 38.2495 58.5999 38.3423 58.604C38.435 58.6081 38.4415 58.4633 38.3487 58.4592ZM38.0684 59.0374C38.0655 59.0249 38.0598 59.014 38.0513 59.0046C38.0466 59.0006 38.0419 58.9967 38.0372 58.9927C38.0263 58.9856 38.0143 58.9819 38.0013 58.9811L37.9823 58.9802C37.9724 58.9795 37.9631 58.9811 37.9543 58.9853C37.9453 58.9878 37.9374 58.9924 37.9304 58.9993C37.9231 59.0055 37.9178 59.0131 37.9145 59.0219C37.9095 59.0304 37.907 59.0395 37.907 59.0496C37.9077 59.056 37.9082 59.0625 37.9088 59.069C37.9116 59.0814 37.9173 59.0924 37.9258 59.1017C37.9305 59.1057 37.9353 59.1097 37.94 59.1138C37.9508 59.1207 37.9628 59.1246 37.9758 59.1252L37.9949 59.1261C38.0048 59.127 38.0141 59.1252 38.0228 59.1211C38.0319 59.1186 38.0398 59.1139 38.0467 59.1072C38.054 59.101 38.0593 59.0934 38.0627 59.0845C38.0676 59.0761 38.0701 59.0669 38.0701 59.0569C38.0695 59.0502 38.0689 59.0438 38.0684 59.0374ZM38.6672 58.8721C38.6643 58.8596 38.6586 58.8487 38.6501 58.8394C38.6454 58.8354 38.6407 58.8314 38.636 58.8273C38.6251 58.8203 38.6131 58.8165 38.6001 58.8158L38.5811 58.815C38.5712 58.8141 38.5619 58.8158 38.5531 58.8199C38.5441 58.8224 38.5362 58.8272 38.5292 58.8339C38.5219 58.8401 38.5166 58.8476 38.5133 58.8565C38.5083 58.865 38.5059 58.8742 38.5059 58.8842C38.5065 58.8906 38.507 58.897 38.5076 58.9035C38.5104 58.9159 38.5161 58.9268 38.5247 58.9363C38.5294 58.9403 38.5341 58.9443 38.5388 58.9483C38.5496 58.9553 38.5616 58.9591 38.5746 58.9598L38.5937 58.9607C38.6036 58.9614 38.6129 58.9598 38.6216 58.9556C38.6307 58.9531 38.6386 58.9485 38.6455 58.9417C38.6528 58.9354 38.6582 58.9278 38.6615 58.919C38.6664 58.9105 38.6689 58.9015 38.6689 58.8914C38.6683 58.885 38.6677 58.8786 38.6672 58.8721ZM34.8542 58.0192C34.8514 58.0068 34.8457 57.9958 34.8372 57.9864C34.8325 57.9824 34.8278 57.9784 34.8231 57.9744C34.8122 57.9675 34.8002 57.9636 34.7872 57.9628L34.7614 57.9617C34.7515 57.961 34.7423 57.9626 34.7335 57.9668C34.7245 57.9693 34.7165 57.974 34.7096 57.9808C34.7023 57.987 34.697 57.9946 34.6936 58.0034C34.6887 58.0119 34.6862 58.0211 34.6862 58.031C34.6868 58.0375 34.6873 58.044 34.688 58.0505C34.6908 58.0629 34.6965 58.0739 34.705 58.0833C34.7097 58.0873 34.7144 58.0913 34.7191 58.0953C34.73 58.1022 34.742 58.1061 34.755 58.1067L34.7807 58.1078C34.7906 58.1087 34.7999 58.107 34.8087 58.1029C34.8177 58.1004 34.8257 58.0956 34.8326 58.0889C34.8399 58.0827 34.8452 58.0751 34.8485 58.0663C34.8535 58.0578 34.856 58.0487 34.856 58.0386C34.8555 58.0322 34.8549 58.0257 34.8542 58.0192ZM35.2587 57.8023C35.166 57.7982 35.1595 57.9431 35.2522 57.9472C35.3449 57.9513 35.3515 57.8064 35.2587 57.8023ZM35.079 58.3652C34.9864 58.3611 34.9798 58.506 35.0726 58.5101C35.1653 58.5142 35.1718 58.3693 35.079 58.3652ZM34.4869 58.3387C34.3942 58.3346 34.3877 58.4794 34.4805 58.4836C34.5731 58.4878 34.5797 58.3429 34.4869 58.3387ZM35.3813 58.1875C35.2886 58.1834 35.2821 58.3282 35.3749 58.3323C35.4675 58.3364 35.4741 58.1916 35.3813 58.1875Z" fill="#E39298"/>
<g opacity="0.7">
<ellipse cx="39.7586" cy="73.9244" rx="0.512551" ry="0.517038" fill="#FFEBE4"/>
<ellipse cx="39.7586" cy="80.1316" rx="0.512551" ry="0.517038" fill="#FFEBE4"/>
<ellipse cx="39.7586" cy="92.547" rx="0.512551" ry="0.517038" fill="#FFEBE4"/>
<ellipse cx="39.7586" cy="86.3393" rx="0.512551" ry="0.517038" fill="#FFEBE4"/>
<ellipse cx="39.7586" cy="98.7547" rx="0.512551" ry="0.517038" fill="#FFEBE4"/>
</g>
<path d="M65.3974 86.5295H40.7602C40.7602 86.5295 40.011 102.905 41.3735 103.436C43.8191 104.389 55.5582 104.866 65.8301 102.959C66.3106 102.87 65.3974 86.5295 65.3974 86.5295Z" fill="#FFD766"/>
<path d="M67.5 88.2548C67.5 88.807 67.0523 89.2548 66.5 89.2548H39.5C38.9477 89.2548 38.5 88.807 38.5 88.2548V87.2531C38.5 86.71 38.9334 86.2662 39.4763 86.2534L66.4763 85.6135C67.0377 85.6002 67.5 86.0517 67.5 86.6132V88.2548Z" fill="#FFBD00"/>
<path d="M54.51 85.6656H51.5647L51.5 104.275L54.51 104.19V85.6656Z" fill="#B99EFF"/>
<path d="M58.6641 79.0223C57.6068 78.1059 55.6432 78.5641 54.3594 80.0914C53 81.6187 53 85.5897 53 85.5897C53 85.5897 56.8516 85.0551 58.2109 83.5278C59.4948 81.9241 59.7214 79.9387 58.6641 79.0223ZM54.737 81.0841C55.5677 80.1678 56.776 79.8623 57.3802 80.3968C58.0599 81.0078 57.9089 82.2296 57.0781 83.146C56.2474 84.1387 53.9063 84.4442 53.9063 84.4442C53.9063 84.4442 53.9062 82.0769 54.737 81.0841Z" fill="#8D61FF"/>
<path d="M47.7147 84.6732C49.2251 86.0478 53.1522 86.0478 53.1522 86.0478C53.1522 86.0478 52.6235 82.1532 51.1131 80.855C49.6027 79.4804 47.5636 79.2513 46.6574 80.3204C45.7511 81.3895 46.2042 83.2987 47.7147 84.6732ZM52.0949 85.1314C52.0949 85.1314 49.6782 85.1314 48.772 84.2914C47.8657 83.4514 47.5636 82.2295 48.0923 81.6186C48.6964 80.9313 49.9048 81.0841 50.811 81.9241C51.7928 82.6877 52.0949 85.1314 52.0949 85.1314Z" fill="#8D61FF"/>
<path d="M54.964 85.2083C55.0395 86.1246 54.1333 86.8883 53.0005 87.041C51.8677 87.1174 50.8104 86.5065 50.7349 85.5901C50.6593 84.6737 51.5656 83.9101 52.6984 83.7573C53.9067 83.681 54.8885 84.3682 54.964 85.2083Z" fill="#8D61FF"/>
<path d="M70.2007 38.6312C71.6065 38.6312 72.7461 37.4774 72.7461 36.0541C72.7461 34.6308 71.6065 33.477 70.2007 33.477C68.7949 33.477 67.6553 34.6308 67.6553 36.0541C67.6553 37.4774 68.7949 38.6312 70.2007 38.6312Z" fill="#B99EFF"/>
<path d="M72.4854 45.3617C73.2313 45.3617 73.836 44.7498 73.836 43.9949C73.836 43.2401 73.2313 42.6282 72.4854 42.6282C71.7395 42.6282 71.1348 43.2401 71.1348 43.9949C71.1348 44.7498 71.7395 45.3617 72.4854 45.3617Z" fill="#B99EFF"/>
<path d="M53.3383 47.6614C54.1416 47.6614 54.7929 47.0024 54.7929 46.1895C54.7929 45.3766 54.1416 44.7176 53.3383 44.7176C52.535 44.7176 51.8838 45.3766 51.8838 46.1895C51.8838 47.0024 52.535 47.6614 53.3383 47.6614Z" fill="#B99EFF"/>
</svg>
