<svg width="30" height="26" viewBox="0 0 30 26" fill="none" xmlns="http://www.w3.org/2000/svg">
  <g>
    <path fill-rule="evenodd" clip-rule="evenodd" d="M20.0849 24.7219H20.7963C21.0871 24.7219 21.3232 24.9533 21.3232 25.2383C21.3232 25.5234 21.0871 25.7547 20.7963 25.7547H9.20375C8.91288 25.7547 8.67682 25.5234 8.67682 25.2383C8.67682 24.9533 8.91288 24.7219 9.20375 24.7219H9.91511L11.5544 21.1072H1.8267C0.983607 21.1072 0.245902 20.3409 0.245902 19.3407V2.01183C0.245902 1.01159 0.983607 0.245283 1.8267 0.245283H28.1733C29.0164 0.245283 29.7541 1.01159 29.7541 2.01183V19.3407C29.7541 20.3409 29.0164 21.1072 28.1733 21.1072H18.4456L20.0849 24.7219ZM12.7078 21.1072L11.0686 24.7219H18.9314L17.2922 21.1072H12.7078ZM28.7002 17.3893H1.29977V19.3407C1.29977 19.7228 1.50474 20.0745 1.8267 20.0745H28.1733C28.4953 20.0745 28.7002 19.7228 28.7002 19.3407V17.3893ZM28.7002 16.3565V2.01183C28.7002 1.62971 28.4953 1.27805 28.1733 1.27805H1.8267C1.50474 1.27805 1.29977 1.62971 1.29977 2.01183V16.3565H28.7002Z" fill="#C3AFF6"/>
    <path fill-rule="evenodd" clip-rule="evenodd" d="M1.8267 0.490566C1.13999 0.490566 0.491803 1.12559 0.491803 2.01183V19.3407C0.491803 20.2269 1.13999 20.862 1.8267 20.862H11.9355L10.0738 24.9672H9.20375C9.04457 24.9672 8.92272 25.0928 8.92272 25.2383C8.92272 25.3838 9.04457 25.5094 9.20375 25.5094H20.7963C20.9554 25.5094 21.0773 25.3838 21.0773 25.2383C21.0773 25.0928 20.9554 24.9672 20.7963 24.9672H19.9262L18.0645 20.862H28.1733C28.86 20.862 29.5082 20.2269 29.5082 19.3407V2.01183C29.5082 1.12559 28.86 0.490566 28.1733 0.490566H1.8267ZM0 2.01183C0 0.8976 0.827228 0 1.8267 0H28.1733C29.1728 0 30 0.8976 30 2.01183V19.3407C30 20.4549 29.1728 21.3525 28.1733 21.3525H18.8267L20.2435 24.4767H20.7963C21.2188 24.4767 21.5691 24.8137 21.5691 25.2383C21.5691 25.6629 21.2188 26 20.7963 26H9.20375C8.78119 26 8.43091 25.6629 8.43091 25.2383C8.43091 24.8137 8.78119 24.4767 9.20375 24.4767H9.75645L11.1733 21.3525H1.8267C0.827228 21.3525 0 20.4549 0 19.3407V2.01183ZM1.23846 1.36475C1.36366 1.17908 1.56451 1.03277 1.8267 1.03277H28.1733C28.4355 1.03277 28.6363 1.17908 28.7615 1.36475C28.8847 1.54744 28.9461 1.78054 28.9461 2.01183V16.6018H1.05386V2.01183C1.05386 1.78054 1.11527 1.54744 1.23846 1.36475ZM1.64654 1.63854C1.58675 1.72721 1.54567 1.861 1.54567 2.01183V16.1112H28.4543V2.01183C28.4543 1.861 28.4132 1.72721 28.3535 1.63854C28.2957 1.55286 28.2331 1.52334 28.1733 1.52334H1.8267C1.76693 1.52334 1.70432 1.55286 1.64654 1.63854ZM1.05386 17.144H28.9461V19.3407C28.9461 19.572 28.8847 19.8051 28.7615 19.9878C28.6363 20.1735 28.4355 20.3198 28.1733 20.3198H1.8267C1.56451 20.3198 1.36366 20.1735 1.23846 19.9878C1.11527 19.8051 1.05386 19.572 1.05386 19.3407V17.144ZM1.54567 17.6346V19.3407C1.54567 19.4915 1.58675 19.6253 1.64654 19.714C1.70432 19.7997 1.76693 19.8292 1.8267 19.8292H28.1733C28.2331 19.8292 28.2957 19.7997 28.3535 19.714C28.4132 19.6253 28.4543 19.4915 28.4543 19.3407V17.6346H1.54567ZM12.5492 20.862H17.4508L19.3126 24.9672H10.6874L12.5492 20.862ZM12.8665 21.3525L11.4497 24.4767H18.5503L17.1335 21.3525H12.8665Z" fill="#C3AFF6"/>
    <path fill-rule="evenodd"  transform="translate(9.5, 5.5)" clip-rule="evenodd" d="M6.01309 6.04624C6.16029 6.047 6.30749 6.06288 6.45246 6.09311C6.56694 6.11655 6.67919 6.14979 6.78848 6.19212C6.87397 6.22463 6.9565 6.26244 7.03679 6.30553C7.17878 6.38111 7.3126 6.47256 7.43452 6.57688C7.47094 6.60787 7.50663 6.64039 7.54083 6.67365C7.57502 6.70691 7.60773 6.74092 7.63673 6.77796C7.72594 6.89362 7.77945 7.03496 7.79209 7.18085C7.79655 7.2383 7.79507 7.29574 7.78689 7.35243C7.77649 7.42348 7.7564 7.49303 7.72741 7.55804C7.69693 7.62682 7.6553 7.69032 7.60624 7.74701C7.55197 7.809 7.48803 7.8619 7.41666 7.90272C7.34604 7.94278 7.26874 7.97153 7.18845 7.98664C7.0524 8.0131 6.90891 7.9995 6.77956 7.9481C6.70819 7.91937 6.64129 7.88004 6.58182 7.83091C6.56695 7.81806 6.55282 7.80597 6.53944 7.79236C6.52308 7.77649 6.50746 7.76063 6.49037 7.74551C6.4532 7.71225 6.41306 7.68277 6.36994 7.65707C6.30973 7.6223 6.2443 7.59584 6.17665 7.57921C6.01235 7.5384 5.83544 7.55576 5.68229 7.62909C5.60647 7.66613 5.53731 7.71528 5.47784 7.77499L5.47042 7.7818C5.40871 7.84378 5.33659 7.89516 5.25704 7.9322C5.16858 7.97302 5.07268 7.99571 4.97529 7.99949C4.87344 8.00327 4.7716 7.98589 4.67718 7.9481C4.61176 7.92164 4.54933 7.8861 4.49358 7.84226C4.42815 7.79086 4.3709 7.72736 4.3248 7.65631C4.27723 7.58147 4.2423 7.49831 4.22371 7.41063C4.20215 7.31614 4.19993 7.21789 4.2148 7.12189C4.23487 6.99565 4.28763 6.87471 4.36569 6.77418C4.39394 6.73865 4.4259 6.70615 4.45861 6.67365C4.49653 6.63737 4.5352 6.60183 4.57534 6.56781C4.72997 6.43704 4.9017 6.32819 5.08532 6.24428C5.27787 6.1566 5.48304 6.0969 5.69268 6.06742C5.79453 6.05305 5.89714 6.04624 5.99973 6.04624H6.01309ZM3.37176 5.64109C4.82216 4.16558 7.17729 4.16558 8.62843 5.64109C8.91836 5.93589 9.38969 5.93589 9.67962 5.64109C9.96955 5.34554 9.96955 4.86705 9.67962 4.57149C7.64861 2.50637 4.35083 2.50637 2.31982 4.57149C2.02989 4.86705 2.02989 5.34554 2.31982 5.64109C2.6105 5.93589 3.08109 5.93589 3.37176 5.64109ZM1.26864 3.50265C3.87951 0.84793 8.11994 0.84793 10.7308 3.50265C11.0207 3.79745 11.4921 3.79745 11.782 3.50265C12.0727 3.20785 12.0727 2.72861 11.782 2.43381C8.59052 -0.811268 3.40892 -0.811268 0.217449 2.43381C-0.0724828 2.72861 -0.0724828 3.20785 0.217449 3.50265C0.50738 3.79745 0.978705 3.79745 1.26864 3.50265Z" fill="#4AD0C0"/>
  </g>  
</svg>
