<svg width="110" height="110" viewBox="0 0 110 110" fill="none" xmlns="http://www.w3.org/2000/svg">
<path d="M6 55C6 66.4043 10.5303 77.3415 18.5944 85.4056C26.6585 93.4697 37.5957 98 49 98C60.4043 98 71.3415 93.4697 79.4056 85.4056C87.4697 77.3415 92 66.4043 92 55C92 43.5957 87.4697 32.6585 79.4056 24.5944C71.3415 16.5303 60.4043 12 49 12C37.5957 12 26.6585 16.5303 18.5944 24.5944C10.5303 32.6585 6 43.5957 6 55Z" fill="#F8F8FA"/>
<path d="M100.031 71.106L49.8519 61.4502C46.5558 60.8159 43.3818 63.0386 42.7626 66.4146C42.1434 69.7906 44.3134 73.0416 47.6094 73.6759L97.7891 83.3317C101.085 83.9659 104.259 81.7433 104.878 78.3672C105.498 74.9912 103.328 71.7402 100.031 71.106Z" fill="#33CF90"/>
<path d="M24.9199 60.1449L49.6078 38.6768L76.8614 57.4024L76.8771 88.666L27.4446 90.517L24.9199 60.1449Z" fill="#132056"/>
<path d="M29.3447 38.0237L33.1768 87.4086L69.8939 88.0189L72.2794 42.1234L67.1674 35.9297L29.3447 38.0237Z" fill="#E6F2FE"/>
<path d="M19.5405 93.4427C21.2374 93.5213 22.8799 93.4717 23.9766 93.4148C22.9781 92.6993 20.6777 91.1402 18.7527 90.5198L17.4314 90.4401C17.4314 90.4401 16.9836 91.1265 16.8238 92.6972C17.0428 92.9722 17.6829 93.3569 19.5405 93.4427Z" fill="#132056"/>
<path d="M23.9901 93.4253L23.9765 93.4149C22.8798 93.4718 21.2373 93.5214 19.5404 93.4428C17.6828 93.357 17.0427 92.9724 16.8237 92.6973C16.8164 92.7697 16.8089 92.8411 16.8027 92.9176C16.7753 93.2619 17.0291 93.5648 17.3712 93.5907C18.7609 93.6972 22.2067 93.9371 23.8683 93.8492C24.0875 93.8368 24.1688 93.5535 23.9901 93.4253Z" fill="#132056"/>
<path d="M7.40418 92.9853C7.28005 92.1826 7.07999 91.0219 6.92611 90.7251C6.68503 90.2597 5.85818 90.7251 5.85818 90.7251C5.85818 90.7251 5.27753 90.998 5.0108 91.4527C4.83948 91.7426 4.36862 92.5676 4.04957 93.127C4.01366 93.1911 3.99827 93.2603 4.00032 93.3265L7.31082 93.4434C7.39186 93.312 7.42982 93.1528 7.40418 92.9853Z" fill="#132056"/>
<path d="M4.00005 93.3257C4.00518 93.5162 4.15496 93.6901 4.36629 93.6952L6.72478 93.7615C6.97406 93.7677 7.19052 93.6373 7.31055 93.4427L4.00005 93.3257Z" fill="#132056"/>
<path d="M7.6582 88.0557C7.62948 88.1519 7.20169 90.2423 7.01498 91.1598C6.96266 91.4133 6.73594 91.5914 6.47947 91.5784C6.33995 91.5713 6.17684 91.5587 6.00552 91.5364C5.70289 91.4968 5.47207 91.2416 5.45976 90.9335C5.43001 90.1299 5.41461 88.5869 5.70699 87.9891C6.11118 87.1644 7.6582 88.0557 7.6582 88.0557Z" fill="#FFA283"/>
<path d="M17.1733 88.6538C17.3567 88.6479 17.1001 89.6087 17.3777 90.553C17.4403 90.766 17.5983 90.9332 17.8187 90.936C17.9616 90.9378 18.1308 90.9351 18.3026 90.9212C18.561 90.9003 18.7687 90.6982 18.7927 90.438L19.0186 87.9887L17.1733 88.6538Z" fill="#FFA283"/>
<path d="M22.3057 62.6177C22.2238 63.0195 19.3331 80.0138 19.1577 88.8074C19.1547 88.9549 19.0472 89.0785 18.9022 89.0989C18.5352 89.1505 17.8206 89.2168 17.1277 89.0872C17.0327 89.0695 16.9613 88.9907 16.9552 88.8937C16.8542 87.2549 16.0417 73.3996 17.0368 66.8772C17.0368 66.8772 8.81757 84.3125 7.57113 89.12C7.54138 89.2369 7.43469 89.3156 7.31466 89.3092C6.96279 89.2906 6.23032 89.2267 5.64967 89.011C5.44142 88.9338 5.32242 88.7131 5.37474 88.4957C6.07131 85.6185 10.9495 65.796 14.2618 61.4286L22.3057 62.6177Z" fill="#132056"/>
<path d="M25.0844 40.6875C22.6252 40.3146 17.7991 39.7811 14.6512 40.712L13.9512 61.4182L22.1584 62.4902L26.3978 49.2792L27.3652 47.8932C27.3652 47.8932 26.917 40.9652 25.0844 40.6875Z" fill="#FE794D"/>
<path d="M19.404 35.4372C19.404 35.4372 19.1761 39.3373 19.2193 40.551C19.2193 40.551 22.3875 41.0736 23.1416 40.5272L22.546 35.9035L19.404 35.4372Z" fill="#FFA283"/>
<path d="M22.5065 31.8379C22.5065 31.8379 23.5254 34.2219 23.5897 35.4717C23.654 36.7226 23.9179 37.5343 22.4837 37.7849C21.0494 38.0354 19.8448 37.313 19.1955 36.0667C19.1955 36.0667 18.178 34.146 18.4109 33.3607C18.6438 32.5744 22.5065 31.8379 22.5065 31.8379Z" fill="#FFA283"/>
<path d="M19.6468 35.0256L19.827 35.0449C19.827 35.0449 19.2543 33.4291 19.936 33.2299C20.6177 33.0307 23.2595 32.7778 23.9189 31.9127C24.5544 31.0795 24.2022 29.8764 23.5211 29.4761C23.478 29.4508 23.422 29.4671 23.3939 29.5087L23.322 29.6158C23.2729 29.6887 23.1605 29.6651 23.1456 29.5782C23.1315 29.4957 23.0265 29.4663 22.9751 29.5324C22.7739 29.7913 22.2624 30.1909 20.998 30.2879C19.204 30.4256 17.9626 31.0181 17.7988 32.2407C17.7882 32.3188 17.7012 32.3528 17.6402 32.3044C17.5191 32.2112 17.3154 32.1517 17.012 32.3565C16.4841 32.7143 16.5645 33.7976 17.5262 34.7857C17.5719 34.8328 17.5627 34.9123 17.5043 34.9419C17.2986 35.0472 16.9797 35.3164 17.6766 35.7953C18.3895 36.2861 18.843 36.2901 19.017 36.2647C19.0638 36.258 19.0992 36.2191 19.1015 36.1709L19.1548 35.0778C19.1576 35.0212 19.2071 34.978 19.2627 34.9849L19.6468 35.0256Z" fill="#132056"/>
<path d="M20.1172 35.3723C20.1172 35.3723 19.5655 33.903 18.9378 34.3993C18.3103 34.8966 19.4681 36.0568 20.0151 36.0547L20.1172 35.3723Z" fill="#FFA283"/>
<path d="M17.833 44.9876L14.6519 40.7115C14.6519 40.7115 9.54015 46.1848 8.55941 53.1318L11.748 54.6992C12.7378 52.36 14.5593 49.1908 17.833 44.9876Z" fill="#FE794D"/>
<path d="M22.9727 43.8836L25.3715 40.659C25.3715 40.659 29.2262 44.7864 29.9658 50.0251L27.5613 51.207C26.8149 49.443 25.4413 47.0532 22.9727 43.8836Z" fill="#FE794D"/>
<path d="M13.2753 64.2508C12.8985 63.6153 12.1625 62.4055 11.8047 62.0279C11.8047 62.0279 12.1319 61.8195 12.7595 61.8973C13.387 61.975 13.8786 61.6665 13.8598 61.3222L10.8653 60.3963C10.7308 60.1129 10.1383 58.5053 11.7483 54.7L8.55966 53.1325C8.1924 55.7334 8.4027 58.5404 9.67888 61.3446C9.67888 61.3446 10.6695 64.4444 11.8072 65.1323C14.7765 66.9274 13.4199 64.4946 13.2753 64.2508Z" fill="#FFA283"/>
<path d="M26.4109 58.4091C26.6951 57.9299 27.25 57.0176 27.5199 56.7328C27.5199 56.7328 27.2732 56.5757 26.7999 56.6343C26.3267 56.693 25.956 56.4603 25.9701 56.2006L28.2283 55.5025C28.3297 55.2888 28.7765 54.0765 27.5624 51.2069L29.9669 50.0249C30.2439 51.9862 30.0853 54.1029 29.1229 56.2176C29.1229 56.2176 28.3759 58.5551 27.518 59.0738C25.2789 60.4275 26.3018 58.593 26.4109 58.4091Z" fill="#FFA283"/>
<path d="M24.919 60.1448L24.915 93.2555L79.4851 92.4645L76.8604 57.4023L58.9076 75.1241L49.4245 65.7141L40.8293 73.7067L24.919 60.1448Z" fill="#4F2DA7"/>
<path d="M67.1678 35.9297L66.6641 42.4245L72.2798 42.1234L67.1678 35.9297Z" fill="#132056"/>
<path d="M33.3889 83.8856C33.3236 83.8848 33.2603 83.8623 33.2086 83.8213C33.1471 83.7725 33.107 83.7007 33.0971 83.6217C33.0872 83.5427 33.1083 83.4628 33.1557 83.3997L40.6042 73.5239C40.6518 73.4606 40.7219 73.4191 40.7993 73.4088C40.8767 73.3984 40.9549 73.42 41.0168 73.4687C41.0787 73.5174 41.1191 73.5893 41.1292 73.6686C41.1393 73.7478 41.1183 73.828 41.0707 73.8913L33.6222 83.7671C33.5949 83.804 33.5596 83.8339 33.5192 83.8544C33.4787 83.875 33.4341 83.8856 33.3889 83.8856Z" fill="#132056"/>
<path d="M68.9805 84.1541C68.9085 84.1546 68.8388 84.1282 68.7845 84.0798L58.631 74.979C58.6019 74.9527 58.5782 74.9207 58.5612 74.8849C58.5441 74.8492 58.5342 74.8103 58.5318 74.7706C58.527 74.6904 58.5535 74.6116 58.6055 74.5514C58.6575 74.4912 58.7307 74.4547 58.809 74.4498C58.8873 74.4449 58.9643 74.4721 59.023 74.5253L69.1745 83.6321C69.2198 83.6726 69.2519 83.7263 69.2664 83.786C69.281 83.8457 69.2774 83.9085 69.256 83.966C69.2347 84.0236 69.1966 84.073 69.147 84.1077C69.0974 84.1424 69.0386 84.1607 68.9785 84.1602L68.9805 84.1541Z" fill="#132056"/>
<path d="M93.2648 80.0846C93.2466 80.0866 93.2282 80.0866 93.2099 80.0846C93.172 80.0774 93.1358 80.0626 93.1034 80.041C93.071 80.0194 93.0431 79.9915 93.0213 79.9589C92.9994 79.9262 92.9841 79.8895 92.9761 79.8508C92.9681 79.8121 92.9676 79.7722 92.9747 79.7333L94.1351 73.5095C94.1399 73.4685 94.1529 73.4289 94.1733 73.3933C94.1936 73.3576 94.2209 73.3266 94.2534 73.3023C94.286 73.2779 94.3231 73.2606 94.3624 73.2515C94.4017 73.2424 94.4425 73.2417 94.4821 73.2495C94.5217 73.2572 94.5593 73.2732 94.5926 73.2964C94.626 73.3197 94.6542 73.3497 94.6758 73.3846C94.6973 73.4196 94.7115 73.4587 94.7177 73.4995C94.7238 73.5403 94.7217 73.582 94.7114 73.6219L93.553 79.8457C93.5387 79.9132 93.5023 79.9737 93.4499 80.0171C93.3975 80.0606 93.3322 80.0844 93.2648 80.0846Z" fill="white"/>
<path d="M96.99 77.6092C96.9698 77.6111 96.9495 77.6111 96.9293 77.6092L90.847 76.2901C90.7706 76.2736 90.7037 76.2267 90.661 76.1597C90.6184 76.0926 90.6035 76.011 90.6196 75.9327C90.6357 75.8545 90.6815 75.786 90.747 75.7423C90.8124 75.6986 90.8921 75.6833 90.9685 75.6999L97.0488 77.0069C97.0867 77.015 97.1226 77.0307 97.1546 77.053C97.1865 77.0754 97.2138 77.104 97.2349 77.1372C97.2561 77.1704 97.2706 77.2075 97.2777 77.2465C97.2847 77.2855 97.2842 77.3255 97.2762 77.3642C97.2639 77.4328 97.2285 77.4948 97.1763 77.5396C97.124 77.5843 97.0581 77.6089 96.99 77.6092Z" fill="white"/>
<path d="M95.8779 80.471C95.827 80.4711 95.7769 80.4576 95.7326 80.4319C95.6883 80.4062 95.6512 80.3692 95.6251 80.3244L91.9204 73.9581C91.8822 73.8895 91.8719 73.8082 91.8916 73.7319C91.9114 73.6556 91.9596 73.5902 92.0259 73.5499C92.0922 73.5097 92.1713 73.4977 92.2462 73.5166C92.321 73.5354 92.3856 73.5837 92.4261 73.6509L96.1386 80.0193C96.1652 80.0649 96.1796 80.1169 96.1803 80.17C96.181 80.2231 96.1679 80.2755 96.1424 80.3218C96.1169 80.368 96.0799 80.4066 96.0352 80.4335C95.9905 80.4604 95.9396 80.4747 95.8877 80.475L95.8779 80.471Z" fill="white"/>
<path d="M90.8304 78.9747C90.7668 78.9749 90.7049 78.9541 90.6538 78.9153C90.6028 78.8764 90.5654 78.8217 90.5473 78.7593C90.5292 78.6969 90.5314 78.6301 90.5534 78.5691C90.5755 78.508 90.6162 78.4559 90.6696 78.4206L96.7264 74.3731C96.7919 74.3294 96.8717 74.3142 96.9481 74.3308C97.0246 74.3473 97.0915 74.3943 97.1341 74.4614C97.1768 74.5285 97.1916 74.6102 97.1755 74.6885C97.1593 74.7668 97.1134 74.8353 97.0479 74.879L90.9852 78.9245C90.9396 78.9565 90.8857 78.974 90.8304 78.9747Z" fill="white"/>
<path d="M82.7193 77.4668H82.6644C82.6265 77.4596 82.5904 77.4448 82.5581 77.4232C82.5258 77.4016 82.498 77.3736 82.4763 77.341C82.4546 77.3083 82.4395 77.2715 82.4317 77.2329C82.424 77.1942 82.4238 77.1543 82.4312 77.1155L83.5896 70.8917C83.5968 70.8528 83.6114 70.8157 83.6326 70.7826C83.6538 70.7495 83.6812 70.721 83.7131 70.6988C83.7451 70.6765 83.781 70.6609 83.8188 70.6528C83.8566 70.6447 83.8957 70.6444 83.9336 70.6518C83.9716 70.6592 84.0078 70.6741 84.0401 70.6958C84.0724 70.7175 84.1002 70.7455 84.122 70.7783C84.1438 70.811 84.159 70.8478 84.1669 70.8865C84.1747 70.9253 84.1751 70.9652 84.1679 71.0041L83.0094 77.2279C82.9951 77.2957 82.9584 77.3565 82.9056 77.3999C82.8528 77.4434 82.7871 77.467 82.7193 77.4668Z" fill="white"/>
<path d="M86.444 74.9856H86.3832L80.2931 73.6786C80.2167 73.6623 80.1497 73.6157 80.1069 73.5488C80.064 73.482 80.0489 73.4005 80.0647 73.3222C80.0806 73.2439 80.1262 73.1753 80.1914 73.1315C80.2567 73.0876 80.3362 73.0721 80.4127 73.0883L86.5047 74.3973C86.5827 74.4056 86.6543 74.4452 86.7037 74.5075C86.7532 74.5699 86.7764 74.6497 86.7684 74.7296C86.7603 74.8095 86.7216 74.8828 86.6608 74.9334C86.5999 74.9841 86.5219 75.0079 86.444 74.9996V74.9856Z" fill="white"/>
<path d="M85.3326 77.852C85.2816 77.8521 85.2315 77.8386 85.1872 77.8129C85.1429 77.7872 85.1058 77.7502 85.0797 77.7054L81.377 71.3391C81.3548 71.3051 81.3395 71.267 81.3322 71.2268C81.3248 71.1867 81.3255 71.1454 81.3342 71.1056C81.3429 71.0657 81.3595 71.0281 81.3828 70.995C81.4062 70.9618 81.4358 70.9339 81.47 70.9129C81.5042 70.892 81.5423 70.8783 81.5818 70.8728C81.6213 70.8674 81.6615 70.8702 81.6999 70.8811C81.7383 70.8921 81.7742 70.9109 81.8053 70.9365C81.8364 70.962 81.862 70.9938 81.8808 71.0299L85.5854 77.3962C85.625 77.465 85.6366 77.547 85.6175 77.6245C85.5984 77.7019 85.5502 77.7685 85.4835 77.8098C85.4377 77.8372 85.3856 77.8517 85.3326 77.852Z" fill="white"/>
<path d="M80.2844 76.3552C80.2214 76.3548 80.1602 76.3337 80.1098 76.295C80.0594 76.2563 80.0225 76.202 80.0044 76.1401C79.9864 76.0783 79.9883 76.0121 80.0098 75.9515C80.0312 75.8908 80.0712 75.8388 80.1237 75.8031L86.1864 71.7556C86.2515 71.7186 86.3279 71.7083 86.4001 71.7267C86.4724 71.7451 86.5351 71.7909 86.5757 71.8549C86.6162 71.9189 86.6316 71.9962 86.6186 72.0713C86.6057 72.1464 86.5654 72.2137 86.5059 72.2596L80.4452 76.307C80.3975 76.3393 80.3415 76.3561 80.2844 76.3552Z" fill="white"/>
<path d="M69.6354 44.2495H33.9656C33.6831 44.2495 33.4541 44.0205 33.4541 43.738C33.4541 43.4555 33.6831 43.2266 33.9656 43.2266H69.6354C69.9179 43.2266 70.1469 43.4555 70.1469 43.738C70.1469 44.0205 69.9179 44.2495 69.6354 44.2495ZM69.6354 48.1951H33.9656C33.6831 48.1951 33.4541 47.9661 33.4541 47.6836C33.4541 47.4011 33.6831 47.1721 33.9656 47.1721H69.6354C69.9179 47.1721 70.1469 47.4011 70.1469 47.6836C70.1469 47.9661 69.9179 48.1951 69.6354 48.1951ZM69.6354 52.1406H33.9656C33.6831 52.1406 33.4541 51.9116 33.4541 51.6292V51.6292C33.4541 51.3467 33.6831 51.1177 33.9656 51.1177H69.6354C69.9179 51.1177 70.1469 51.3467 70.1469 51.6292V51.6292C70.1469 51.9116 69.9179 52.1406 69.6354 52.1406ZM69.6354 56.0862H33.9656C33.6831 56.0862 33.4541 55.8572 33.4541 55.5747C33.4541 55.2923 33.6831 55.0633 33.9656 55.0633H69.6354C69.9179 55.0633 70.1469 55.2923 70.1469 55.5747C70.1469 55.8572 69.9179 56.0862 69.6354 56.0862ZM69.6354 60.0318H33.9656C33.6831 60.0318 33.4541 59.8028 33.4541 59.5203V59.5203C33.4541 59.2378 33.6831 59.0089 33.9656 59.0089H69.6354C69.9179 59.0089 70.1469 59.2378 70.1469 59.5203V59.5203C70.1469 59.8028 69.9179 60.0318 69.6354 60.0318ZM52.355 62.9544H33.9656C33.6831 62.9544 33.4541 63.1834 33.4541 63.4659C33.4541 63.7484 33.6831 63.9773 33.9656 63.9773H52.355C52.6375 63.9773 52.8665 63.7484 52.8665 63.4659C52.8665 63.1834 52.6375 62.9544 52.355 62.9544Z" fill="#5AAAF6"/>
<path d="M84.8122 24.0588C82.773 24.2505 80.8088 24.9197 79.0808 26.0114C77.3529 27.1031 75.9106 28.5862 74.8725 30.3388C73.8343 32.0913 73.23 34.0634 73.1091 36.0928C72.9881 38.1223 73.3541 40.1513 74.1769 42.0131L71.0534 49.0991C71.0039 49.2113 70.9877 49.3352 71.0068 49.4562C71.0258 49.5771 71.0792 49.6902 71.1608 49.7821C71.2424 49.874 71.3487 49.9408 71.4672 49.9748C71.5858 50.0087 71.7116 50.0084 71.83 49.9738L79.2617 47.8039C81.0114 48.8722 82.992 49.512 85.0399 49.6707C87.0879 49.8293 89.1445 49.5021 91.0399 48.7162C92.9353 47.9303 94.6152 46.7082 95.9409 45.1508C97.2666 43.5933 98.2 41.7453 98.6641 39.7591C99.1282 37.773 99.1097 35.7058 98.6101 33.7282C98.1104 31.7505 97.144 29.9192 95.7906 28.3854C94.4373 26.8517 92.7357 25.6594 90.8265 24.9071C88.9172 24.1548 86.8551 23.864 84.8103 24.0588H84.8122Z" fill="#D04954"/>
<path d="M86.3636 38.0233C86.343 38.1072 86.2961 38.1816 86.2303 38.2347C86.1644 38.2879 86.0834 38.3167 86 38.3167C85.9166 38.3167 85.8356 38.2879 85.7697 38.2347C85.7039 38.1816 85.657 38.1072 85.6364 38.0233C84.1661 32.015 84.2293 32.2874 84.224 32.2254C84.2034 31.9703 84.234 31.7135 84.3139 31.4713C84.3938 31.2291 84.5212 31.0067 84.6881 30.8183C84.8551 30.6298 85.0579 30.4794 85.2837 30.3765C85.5095 30.2736 85.7534 30.2205 86 30.2205C86.2466 30.2205 86.4905 30.2736 86.7163 30.3765C86.9421 30.4794 87.1449 30.6298 87.3119 30.8183C87.4788 31.0067 87.6062 31.2291 87.6861 31.4713C87.766 31.7135 87.7966 31.9703 87.776 32.2254C87.7702 32.2856 87.8321 32.0131 86.3636 38.0233Z" fill="white"/>
<path fill-rule="evenodd" clip-rule="evenodd" d="M86 30.4409C85.7843 30.4409 85.5709 30.4874 85.373 30.5775C85.1752 30.6677 84.9971 30.7997 84.8503 30.9655C84.7034 31.1313 84.591 31.3273 84.5204 31.5411C84.4499 31.755 84.4228 31.9819 84.441 32.2074L84.4404 32.2075C84.4402 32.2124 84.4518 32.2664 84.5922 32.8416C84.6731 33.1727 84.796 33.6748 84.9832 34.4389C85.1863 35.2683 85.4651 36.4065 85.8478 37.9702C85.857 38.0077 85.8777 38.0399 85.9055 38.0623C85.9332 38.0847 85.9664 38.0963 86 38.0963C86.0336 38.0963 86.0668 38.0847 86.0945 38.0623C86.1223 38.0399 86.143 38.0077 86.1522 37.9702C86.6628 35.8805 86.9885 34.55 87.1963 33.7012C87.2872 33.3296 87.3556 33.0503 87.407 32.8401C87.5378 32.3049 87.5573 32.2208 87.5595 32.2075L87.559 32.2074C87.5772 31.9819 87.5501 31.755 87.4796 31.5411C87.409 31.3273 87.2966 31.1313 87.1497 30.9655C87.0029 30.7997 86.8248 30.6677 86.627 30.5775C86.4291 30.4874 86.2157 30.4409 86 30.4409ZM85.1943 30.1755C85.4481 30.0598 85.7225 30 86 30C86.2776 30 86.5519 30.0598 86.8057 30.1755C87.0595 30.2911 87.287 30.46 87.474 30.6711C87.6609 30.8822 87.8034 31.1309 87.8927 31.4015C87.9819 31.672 88.016 31.9587 87.993 32.2434L87.9929 32.2453C87.9939 32.2355 87.9917 32.264 87.9884 32.2832C87.9854 32.3007 87.9801 32.3248 87.9713 32.3623C87.953 32.4405 87.914 32.6013 87.8297 32.946C87.7782 33.1566 87.7098 33.4361 87.6188 33.808C87.4111 34.6567 87.0856 35.9865 86.575 38.0762C86.543 38.2065 86.4699 38.3233 86.366 38.4071C86.262 38.4911 86.1332 38.5372 86 38.5372C85.8668 38.5372 85.738 38.4911 85.634 38.4071C85.5301 38.3233 85.457 38.2067 85.4251 38.0764C85.0425 36.513 84.7637 35.3747 84.5605 34.5452C84.3733 33.7809 84.2503 33.2786 84.1694 32.9474C84.0853 32.6026 84.0463 32.4415 84.0281 32.3628C84.0194 32.325 84.014 32.3002 84.011 32.2816C84.0079 32.262 84.0056 32.2276 84.0071 32.2446L84.007 32.2434C83.984 31.9587 84.0181 31.672 84.1073 31.4015C84.1966 31.1309 84.3391 30.8822 84.526 30.6711C84.713 30.46 84.9405 30.2911 85.1943 30.1755Z" fill="white"/>
<path d="M86.0022 40.116C85.6495 40.1155 85.3047 40.2207 85.0112 40.4182C84.7178 40.6158 84.489 40.8967 84.3538 41.2256C84.2187 41.5544 84.1832 41.9164 84.2519 42.2656C84.3206 42.6148 84.4904 42.9356 84.7398 43.1873C84.9891 43.4391 85.3069 43.6105 85.6528 43.6798C85.9988 43.7492 86.3573 43.7134 86.6831 43.5769C87.0088 43.4405 87.2871 43.2095 87.4828 42.9133C87.6785 42.6171 87.7827 42.2689 87.7822 41.9129C87.7822 41.4363 87.5947 40.9792 87.2609 40.6423C86.9271 40.3053 86.4743 40.116 86.0022 40.116Z" fill="white"/>
</svg>
