<svg width="80" height="60" viewBox="0 0 80 60" fill="none" xmlns="http://www.w3.org/2000/svg">
<rect width="80" height="60" rx="3" fill="white"/>
<rect width="80" height="60" rx="3" fill="#EFF7FF"/>
<mask id="mask0" mask-type="alpha" maskUnits="userSpaceOnUse" x="0" y="0" width="80" height="60">
<rect width="80" height="60" rx="3" fill="white"/>
<rect width="80" height="60" rx="3" stroke="white"/>
</mask>
<g mask="url(#mask0)">
<rect width="80" height="60" rx="3" fill="white"/>
<mask id="mask1" mask-type="alpha" maskUnits="userSpaceOnUse" x="0" y="0" width="80" height="60">
<rect width="80" height="60" rx="3" fill="white"/>
</mask>
<g mask="url(#mask1)">
<path opacity="0.05" d="M66.7494 -2C58.4994 -2 44.2494 -2 41.2494 6.25C38.2494 14.5 63.1929 14.0161 68.9994 19.8226C74.8058 25.629 84.168 25 92.9994 25C101.831 25 100.157 34.7336 107.249 33.25C114.341 31.7664 107.999 24.3321 110.249 19.8226C110.249 15.6188 110.249 -2 110.249 -2C110.249 -2 80.6244 -2 66.7494 -2Z" fill="#4F2DA7"/>
<path opacity="0.05" d="M17.2856 59.6752C46.7333 49.2049 59.8212 72.763 59.8212 59.6752C59.8212 46.5873 44.1158 40.0433 36.263 32.1906C28.4103 24.3379 31.8469 11.25 19.9032 11.25C7.9595 11.25 13.9768 18.5866 0.925756 24.3379C-12.1253 30.0892 -12.1621 70.1455 17.2856 59.6752Z" fill="#4F2DA7"/>
<path opacity="0.05" d="M76.0357 55.4252C46.5879 44.9549 33.5001 68.513 33.5001 55.4252C33.5001 42.3373 49.2055 35.7933 57.0582 27.9406C64.911 20.0879 61.4744 7 73.4181 7C85.3618 7 79.3445 14.3366 92.3955 20.0879C105.447 25.8392 118.571 10.9264 118.571 27.9406C118.571 44.9549 105.483 65.8955 76.0357 55.4252Z" fill="#4F2DA7"/>
<path opacity="0.05" d="M19.2771 25.6173C20.3359 25.1112 21.4206 24.5273 22.3757 23.8422C22.726 23.5904 22.3809 23.1 22.0123 23.2946C20.9924 23.8292 19.9959 24.5195 19.0876 25.2228C18.9008 25.3629 19.0357 25.7314 19.2771 25.6173Z" fill="#4F2DA7"/>
<path opacity="0.05" d="M23.1967 4.74398C23.1759 4.72581 23.1578 4.70764 23.137 4.69207C22.8749 4.45851 22.4441 4.41439 22.1898 4.69207C21.9329 4.97235 21.9406 5.35903 22.1898 5.6393C22.2079 5.66007 22.2261 5.67823 22.2417 5.69899C22.4752 5.9637 22.9605 5.95591 23.1967 5.69899C23.4303 5.44207 23.477 4.99311 23.1967 4.74398Z" fill="#4F2DA7"/>
<path opacity="0.05" d="M71.765 52.2428C70.7246 53.2418 70.3308 54.7963 71.3215 55.9984C72.2542 57.13 74.0656 57.3663 75.2304 56.4668C78.0492 54.2906 75.1102 50.2821 72.0718 51.1112C71.508 51.2646 71.649 52.0687 72.2044 52.0977C73.0915 52.1475 74.0449 52.1806 74.7537 52.8066C75.5165 53.4739 75.533 54.6056 74.9071 55.3766C73.249 57.4119 70.3723 54.4149 72.1132 52.591C72.3371 52.363 71.9972 52.0231 71.765 52.2428Z" fill="#4F2DA7"/>
<path opacity="0.05" d="M10.7573 45.6141C11.082 46.8211 11.4384 48.014 11.8125 49.2069C11.9008 49.4928 12.1725 49.5845 12.4196 49.4151C13.3901 48.7552 14.3571 48.1093 15.2783 47.3788C15.4547 47.2376 15.4159 46.9552 15.243 46.8352C14.1665 46.0976 12.716 45.0071 11.3502 45C11.0043 44.9965 10.7608 45.4871 11.1137 45.6882C11.6643 46.0059 12.3243 46.1188 12.9137 46.3623C13.5913 46.6447 14.2654 46.9764 14.8653 47.4035C14.8795 47.2058 14.8936 47.0082 14.9042 46.8105C13.8771 47.4423 12.9101 48.1517 11.936 48.8575C12.1266 48.8963 12.3207 48.9352 12.5113 48.974C12.0949 47.7952 11.6678 46.627 11.2055 45.4659C11.1067 45.2224 10.6902 45.3565 10.7573 45.6141Z" fill="#4F2DA7"/>
<rect x="30" y="15" width="20" height="30" rx="3" fill="#DFD8EF" stroke="#CAB7F4"/>
<path fill-rule="evenodd" clip-rule="evenodd" d="M30 18C30 16.3431 31.3431 15 33 15H47C48.6569 15 50 16.3431 50 18V20H30V18Z" fill="#DFD8EF" stroke="#CAB7F4"/>
<path fill-rule="evenodd" clip-rule="evenodd" d="M37.5 17C37.2239 17 37 17.2239 37 17.5C37 17.7761 37.2239 18 37.5 18H40.5C40.7761 18 41 17.7761 41 17.5C41 17.2239 40.7761 17 40.5 17H37.5ZM42.5 17C42.2239 17 42 17.2239 42 17.5C42 17.7761 42.2239 18 42.5 18C42.7761 18 43 17.7761 43 17.5C43 17.2239 42.7761 17 42.5 17Z" fill="#CAB7F4"/>
<path fill-rule="evenodd" clip-rule="evenodd" d="M30 42C30 43.6569 31.3431 45 33 45H47C48.6569 45 50 43.6569 50 42V40H30V42Z" fill="#DFD8EF" stroke="#CAB7F4"/>
<path fill-rule="evenodd" clip-rule="evenodd" d="M43 42.5C43 41.6716 42.3284 41 41.5 41H38.5C37.6716 41 37 41.6716 37 42.5C37 43.3284 37.6716 44 38.5 44H41.5C42.3284 44 43 43.3284 43 42.5ZM38.5 42H41.5L41.5899 42.0081C41.8231 42.0504 42 42.2545 42 42.5C42 42.7761 41.7761 43 41.5 43H38.5L38.4101 42.9919C38.1769 42.9496 38 42.7455 38 42.5C38 42.2239 38.2239 42 38.5 42Z" fill="#CAB7F4"/>
<path fill-rule="evenodd" clip-rule="evenodd" d="M40.2694 24.1313L41.0359 25.0108L42.1822 24.522C42.3679 24.4433 42.5818 24.5446 42.6411 24.7373L42.9908 25.8708L44.2342 25.8929C44.4352 25.8961 44.5925 26.0755 44.5676 26.2762L44.4293 27.4559L45.5564 27.9847C45.727 28.065 45.8009 28.2692 45.721 28.4409C45.5673 28.7608 45.2891 29.1733 45.1009 29.4909L45.9173 30.4359C46.0491 30.5888 46.0197 30.8252 45.8556 30.9414L44.8912 31.6264L45.2545 32.8228C45.3133 33.0179 45.1912 33.2196 44.9933 33.2589L43.8367 33.4905L43.685 34.7313C43.6591 34.9438 43.4472 35.0811 43.245 35.0189L42.1174 34.7618L41.4767 35.8329C41.3727 36.0072 41.1407 36.0531 40.9792 35.9319L40.032 35.2212L39.013 35.938C38.8461 36.0551 38.6189 36.0004 38.5194 35.8234L37.9431 34.7887L36.7204 35.0273C36.5125 35.0671 36.3216 34.9109 36.3144 34.7001L36.2086 33.5389L34.9969 33.2574C34.7986 33.2117 34.6854 33.0046 34.7494 32.812L35.1293 31.688L34.136 30.9349C33.9648 30.8052 33.954 30.5518 34.1107 30.4072L34.8938 29.5563L34.2908 28.4623C34.1919 28.2836 34.2697 28.0599 34.4555 27.9796L35.539 27.5119L35.4311 26.2656C35.4126 26.0506 35.5953 25.8727 35.8065 25.8933L36.957 25.909L37.3625 24.7264C37.4312 24.5255 37.6612 24.4359 37.8467 24.534L38.9018 25.0234L39.7503 24.1095C39.8942 23.9541 40.1396 23.9666 40.2694 24.1313Z" fill="white"/>
<path fill-rule="evenodd" clip-rule="evenodd" d="M40.2694 24.1313L41.0359 25.0108L42.1822 24.522C42.3679 24.4433 42.5818 24.5446 42.6411 24.7373L42.9908 25.8708L44.2342 25.8929C44.4352 25.8961 44.5925 26.0755 44.5676 26.2762L44.4293 27.4559L45.5564 27.9847C45.727 28.065 45.8009 28.2692 45.721 28.4409C45.5673 28.7608 45.2891 29.1733 45.1009 29.4909L45.9173 30.4359C46.0491 30.5888 46.0197 30.8252 45.8556 30.9414L44.8912 31.6264L45.2545 32.8228C45.3133 33.0179 45.1912 33.2196 44.9933 33.2589L43.8367 33.4905L43.685 34.7313C43.6591 34.9438 43.4472 35.0811 43.245 35.0189L42.1174 34.7618L41.4767 35.8329C41.3727 36.0072 41.1407 36.0531 40.9792 35.9319L40.032 35.2212L39.013 35.938C38.8461 36.0551 38.6189 36.0004 38.5194 35.8234L37.9431 34.7887L36.7204 35.0273C36.5125 35.0671 36.3216 34.9109 36.3144 34.7001L36.2086 33.5389L34.9969 33.2574C34.7986 33.2117 34.6854 33.0046 34.7494 32.812L35.1293 31.688L34.136 30.9349C33.9648 30.8052 33.954 30.5518 34.1107 30.4072L34.8938 29.5563L34.2908 28.4623C34.1919 28.2836 34.2697 28.0599 34.4555 27.9796L35.539 27.5119L35.4311 26.2656C35.4126 26.0506 35.5953 25.8727 35.8065 25.8933L36.957 25.909L37.3625 24.7264C37.4312 24.5255 37.6612 24.4359 37.8467 24.534L38.9018 25.0234L39.7503 24.1095C39.8942 23.9541 40.1396 23.9666 40.2694 24.1313ZM37.1993 30.1308C36.7456 29.6747 37.4355 28.9811 37.8894 29.4371L39.4176 30.9734L42.0939 27.9916C42.5219 27.5135 43.2464 28.1685 42.8182 28.6469L39.8141 31.994C39.6319 32.2191 39.2952 32.2375 39.0904 32.0315L37.1993 30.1308Z" fill="#4F2DA7"/>
<path fill-rule="evenodd" clip-rule="evenodd" d="M59.9927 20.0036L55.3876 22.2317C55.143 22.3459 55.0105 22.6068 55.0664 22.864C55.1224 23.1211 55.3524 23.3082 55.6237 23.3173H55.8599L60.465 21.0891C60.6548 20.9972 60.7796 20.8144 60.7923 20.6093C60.805 20.4043 60.7037 20.2083 60.5266 20.0951C60.3495 19.982 60.1235 19.9688 59.9336 20.0607L59.9927 20.0036ZM62 30.0018C62 29.6862 61.7357 29.4305 61.4096 29.4305H56.8045C56.4784 29.4305 56.2141 29.6862 56.2141 30.0018C56.2141 30.3173 56.4784 30.5731 56.8045 30.5731H61.4096C61.7357 30.5731 62 30.3173 62 30.0018ZM59.9927 40L55.3876 37.7718L55.3285 37.7147C55.0351 37.5727 54.9161 37.2274 55.0628 36.9434C55.2096 36.6594 55.5664 36.5443 55.8599 36.6863L60.465 38.9145C60.7095 39.0287 60.842 39.2896 60.7861 39.5467C60.7301 39.8038 60.5002 39.9909 60.2288 40H59.9927Z" fill="#DFD8EF"/>
<path fill-rule="evenodd" clip-rule="evenodd" d="M20.0073 20.0036L24.6124 22.2317C24.857 22.3459 24.9895 22.6068 24.9336 22.864C24.8776 23.1211 24.6476 23.3082 24.3763 23.3173H24.1401L19.535 21.0891C19.3452 20.9972 19.2204 20.8144 19.2077 20.6093C19.195 20.4043 19.2963 20.2083 19.4734 20.0951C19.6505 19.982 19.8765 19.9688 20.0664 20.0607L20.0073 20.0036ZM18 30.0018C18 29.6862 18.2643 29.4305 18.5904 29.4305H23.1955C23.5215 29.4305 23.7859 29.6862 23.7859 30.0018C23.7859 30.3173 23.5215 30.5731 23.1955 30.5731H18.5904C18.2643 30.5731 18 30.3173 18 30.0018ZM20.0073 40L24.6124 37.7718L24.6715 37.7147C24.9649 37.5727 25.0839 37.2274 24.9372 36.9434C24.7904 36.6594 24.4336 36.5443 24.1401 36.6863L19.535 38.9145C19.2905 39.0287 19.158 39.2896 19.2139 39.5467C19.2699 39.8038 19.4998 39.9909 19.7712 40H20.0073Z" fill="#DFD8EF"/>
</g>
</g>
</svg>
