<svg width="54" height="54" viewBox="0 0 54 54" fill="none" xmlns="http://www.w3.org/2000/svg">
<path d="M35.9125 28.0653L41.0433 25.5172C42.1737 24.9179 43.5788 25.3209 44.234 26.4325L33.8459 33.4604C32.4471 34.1394 30.865 34.3459 29.334 34.0493L22.0171 32.1151C21.3438 31.9373 20.6299 32.0275 20.0245 32.3669L18.5215 33.4207L18.5589 25.7499L18.6192 25.7502C20.7575 24.1629 23.6066 23.916 26.0012 25.1105L26.441 25.3295C27.1294 25.6735 27.8853 25.8565 28.6521 25.8648L32.929 25.914C34.2713 25.9293 35.465 26.79 35.9125 28.0653Z" fill="url(#paint0_linear)"/>
<path d="M18.5215 33.4207L18.5186 34.0501L13.8287 33.9971L13.8787 23.6498L18.5689 23.7036L18.5589 25.7499L18.5215 33.4207Z" fill="url(#paint1_linear)"/>
<path d="M33.9416 34.0527L44.3296 27.0247C44.5539 26.873 44.6207 26.5711 44.482 26.336C43.6895 24.988 41.9872 24.4975 40.6162 25.2221L35.9694 27.5299C35.3255 26.3341 34.0881 25.5807 32.7393 25.5631L28.4621 25.5138C27.7727 25.5053 27.0931 25.3408 26.4737 25.0323L26.0342 24.8135C23.7609 23.6727 21.0789 23.7433 18.8835 25.0017L18.8889 23.8735C18.8897 23.7369 18.8363 23.6051 18.7407 23.5074C18.6451 23.4096 18.515 23.3539 18.379 23.3523L13.6888 23.2985C13.5528 23.2969 13.4222 23.3497 13.3256 23.4452C13.229 23.5407 13.1743 23.6712 13.1737 23.8079L13.1238 34.1552C13.1231 34.2919 13.1764 34.4236 13.2721 34.5213C13.3677 34.6191 13.4978 34.6748 13.6338 34.6763L18.3237 34.7294C18.4596 34.731 18.5903 34.6782 18.6869 34.5826C18.7835 34.487 18.8381 34.3565 18.8387 34.2199L18.8404 33.8564L20.105 32.9696C20.5906 32.7032 21.1604 32.6344 21.6975 32.7773L29.0144 34.7114C29.0252 34.7144 29.0366 34.7169 29.0479 34.7191C30.6871 35.033 32.3799 34.8121 33.8787 34.0887C33.9005 34.0782 33.9215 34.0662 33.9416 34.0527ZM14.1516 33.652L14.1965 24.3349L17.8685 24.3739L17.8306 33.5727L17.8231 33.69L14.1516 33.652ZM29.2524 33.7107L21.9524 31.7811C21.1512 31.5678 20.3009 31.6752 19.5808 32.0806C19.5659 32.0889 19.5515 32.098 19.5375 32.1077L18.8468 32.592L18.8776 26.2262C20.8468 24.8384 23.4204 24.6504 25.5841 25.7363L26.0231 25.955C26.7814 26.3325 27.6134 26.5338 28.4573 26.5441L32.7344 26.5934C33.8603 26.6075 34.8612 27.3294 35.2374 28.3987C35.2823 28.5262 35.3174 28.6569 35.3423 28.7897L28.8728 28.7162C28.6888 28.7126 28.5176 28.8085 28.4244 28.9674C28.3312 29.1263 28.3303 29.3239 28.422 29.4849C28.5136 29.6459 28.6838 29.7457 28.8678 29.7463L35.8985 29.8263C36.0345 29.8279 36.1651 29.7752 36.2617 29.6796C36.3583 29.5841 36.413 29.4536 36.4136 29.3169C36.4151 29.0437 36.3866 28.7709 36.3286 28.5035L41.0805 26.1435C41.0846 26.1416 41.0882 26.1399 41.0927 26.1378C41.8203 25.7509 42.7168 25.8869 43.3044 26.4734L33.3965 33.176C32.1084 33.7892 30.6582 33.9763 29.2524 33.7107Z" fill="#4F2DA7"/>
<path d="M39 17C39 20.3138 36.3139 23 33.0002 23C29.6865 23 27 20.3138 27 17C27 13.6862 29.6865 11 33.0002 11C36.3139 11 39 13.6862 39 17Z" fill="url(#paint2_linear)"/>
<path d="M33 20.6C34.9882 20.6 36.6 18.9882 36.6 17C36.6 15.0118 34.9882 13.4 33 13.4C31.0118 13.4 29.4 15.0118 29.4 17C29.4 18.9882 31.0118 20.6 33 20.6Z" fill="#4F2DA7"/>
<path fill-rule="evenodd" clip-rule="evenodd" d="M34.6802 15.373C34.6802 15.2775 34.5927 15.2001 34.4847 15.2001H32.484H31.5158C31.4078 15.2001 31.3202 15.2775 31.3202 15.373C31.3202 15.4686 31.4078 15.546 31.5158 15.546H32.484C32.7761 15.546 33.053 15.6725 33.2248 15.8845C33.3057 15.9843 33.3599 16.0949 33.3893 16.2083H31.5158C31.4078 16.2083 31.3202 16.2857 31.3202 16.3812C31.3202 16.4768 31.4078 16.5542 31.5158 16.5542H33.3963C33.3894 16.584 33.3807 16.6136 33.3697 16.6426C33.2883 16.856 33.1034 17.0117 32.8489 17.0809C32.4617 17.1863 32.0292 17.173 31.6103 17.1599L31.5223 17.1572C31.4402 17.1535 31.3647 17.1981 31.3342 17.2659C31.3036 17.3336 31.3243 17.4109 31.3858 17.4593L33.7978 19.3564C33.8351 19.3857 33.8814 19.4001 33.9277 19.4001C33.9816 19.4001 34.0352 19.3805 34.0739 19.3421C34.1457 19.2707 34.1384 19.1614 34.0577 19.0979L32.0447 17.5147C32.3519 17.5143 32.6615 17.4938 32.9639 17.4116C33.3419 17.3087 33.6176 17.0749 33.7403 16.7531C33.765 16.6883 33.7803 16.6215 33.791 16.5542H34.4847C34.5927 16.5542 34.6802 16.4768 34.6802 16.3812C34.6802 16.2857 34.5927 16.2083 34.4847 16.2083H33.7888C33.7552 16.0235 33.6723 15.8429 33.5427 15.6829C33.5026 15.6335 33.4572 15.5887 33.4096 15.546H34.4847C34.5927 15.546 34.6802 15.4686 34.6802 15.373Z" fill="white"/>
<path d="M33 23C36.3136 23 39 20.3136 39 17C39 13.6864 36.3136 11 33 11C29.6864 11 27 13.6864 27 17C27.004 20.312 29.688 22.9957 33 23ZM33 12.3333C35.5772 12.3333 37.6664 14.4225 37.6664 17C37.6664 19.5772 35.5772 21.6664 33 21.6664C30.4225 21.6664 28.3333 19.5772 28.3333 17C28.3364 14.4237 30.4237 12.3364 33 12.3333Z" fill="#4F2DA7"/>
<defs>
<linearGradient id="paint0_linear" x1="42.2039" y1="22.0789" x2="18.4071" y2="33.1755" gradientUnits="userSpaceOnUse">
<stop stop-color="#D7CEEB"/>
<stop offset="1" stop-color="#C6AFFE" stop-opacity="0.62"/>
</linearGradient>
<linearGradient id="paint1_linear" x1="20.1167" y1="27.0229" x2="12.2806" y2="30.677" gradientUnits="userSpaceOnUse">
<stop stop-color="#D7CEEB"/>
<stop offset="1" stop-color="#C6AFFE" stop-opacity="0.62"/>
</linearGradient>
<linearGradient id="paint2_linear" x1="33" y1="11" x2="33" y2="23" gradientUnits="userSpaceOnUse">
<stop stop-color="#D7CEEB"/>
<stop offset="1" stop-color="#C6AFFE" stop-opacity="0.62"/>
</linearGradient>
</defs>
</svg>
