<svg width="37" height="32" viewBox="0 0 37 32" fill="none" xmlns="http://www.w3.org/2000/svg">
<path d="M26.9124 17.0653L32.0432 14.5172C33.1736 13.9178 34.5788 14.3209 35.2339 15.4324L24.8458 22.4604C23.447 23.1394 21.8649 23.3459 20.3339 23.0493L13.017 21.1151C12.3437 20.9373 11.6298 21.0275 11.0244 21.3669L9.52138 22.4207L9.55877 14.7499L9.61913 14.7502C11.7574 13.1629 14.6065 12.916 17.0011 14.1105L17.4409 14.3295C18.1293 14.6734 18.8853 14.8565 19.652 14.8648L23.9289 14.9139C25.2712 14.9293 26.4649 15.79 26.9124 17.0653Z" fill="url(#paint0_linear)"/>
<path d="M9.52139 22.4207L9.51854 23.0501L4.82867 22.9971L4.87858 12.6498L9.56882 12.7036L9.55878 14.7499L9.52139 22.4207Z" fill="url(#paint1_linear)"/>
<path d="M24.9415 23.0526L35.3295 16.0247C35.5538 15.873 35.6206 15.5711 35.4819 15.336C34.6894 13.988 32.9871 13.4975 31.6161 14.2221L26.9693 16.5299C26.3254 15.3341 25.088 14.5807 23.7392 14.5631L19.462 14.5138C18.7726 14.5053 18.093 14.3407 17.4736 14.0323L17.0341 13.8135C14.7608 12.6727 12.0788 12.7433 9.88341 14.0017L9.88884 12.8735C9.88957 12.7368 9.83625 12.6051 9.74061 12.5074C9.64497 12.4096 9.51486 12.3538 9.37892 12.3523L4.68868 12.2985C4.55274 12.2969 4.42208 12.3497 4.32548 12.4452C4.22887 12.5407 4.17423 12.6712 4.17359 12.8079L4.12368 23.1552C4.12296 23.2918 4.1763 23.4236 4.27195 23.5213C4.36761 23.6191 4.49774 23.6748 4.63368 23.6763L9.32356 23.7293C9.45951 23.7309 9.59017 23.6781 9.68677 23.5826C9.78336 23.487 9.83797 23.3565 9.83857 23.2198L9.84032 22.8564L11.1049 21.9696C11.5905 21.7032 12.1603 21.6344 12.6974 21.7773L20.0143 23.7114C20.0251 23.7144 20.0365 23.7169 20.0478 23.719C21.687 24.033 23.3798 23.8121 24.8786 23.0887C24.9004 23.0782 24.9214 23.0662 24.9415 23.0526ZM5.15151 22.652L5.19639 13.3349L8.86845 13.3739L8.83049 22.5727L8.82302 22.69L5.15151 22.652ZM20.2523 22.7107L12.9523 20.7811C12.1511 20.5678 11.3008 20.6752 10.5807 21.0806C10.5658 21.0889 10.5514 21.0979 10.5374 21.1077L9.84669 21.592L9.87751 15.2261C11.8467 13.8384 14.4203 13.6504 16.584 14.7363L17.023 14.955C17.7813 15.3325 18.6133 15.5338 19.4572 15.5441L23.7343 15.5933C24.8602 15.6074 25.8611 16.3294 26.2373 17.3987C26.2822 17.5262 26.3173 17.6569 26.3422 17.7897L19.8727 17.7161C19.6887 17.7126 19.5175 17.8085 19.4243 17.9674C19.3311 18.1263 19.3302 18.3238 19.4219 18.4849C19.5135 18.6459 19.6837 18.7457 19.8677 18.7463L26.8984 18.8263C27.0344 18.8279 27.165 18.7751 27.2616 18.6796C27.3582 18.584 27.4129 18.4536 27.4135 18.3169C27.415 18.0436 27.3865 17.7709 27.3285 17.5035L32.0804 15.1435C32.0845 15.1415 32.0881 15.1399 32.0926 15.1378C32.8203 14.7509 33.7167 14.8869 34.3044 15.4733L24.3964 22.176C23.1083 22.7892 21.6581 22.9762 20.2523 22.7107Z" fill="#4F2DA7"/>
<path d="M29.9999 5.99998C29.9999 9.31379 27.3138 12 24.0001 12C20.6863 12 17.9999 9.31379 17.9999 5.99998C17.9999 2.68618 20.6863 -1.52588e-05 24.0001 -1.52588e-05C27.3138 -1.52588e-05 29.9999 2.68618 29.9999 5.99998Z" fill="url(#paint2_linear)"/>
<path d="M23.9999 9.59998C25.9881 9.59998 27.5999 7.9882 27.5999 5.99998C27.5999 4.01175 25.9881 2.39998 23.9999 2.39998C22.0117 2.39998 20.3999 4.01175 20.3999 5.99998C20.3999 7.9882 22.0117 9.59998 23.9999 9.59998Z" fill="#4F2DA7"/>
<path fill-rule="evenodd" clip-rule="evenodd" d="M25.6801 4.37302C25.6801 4.2775 25.5926 4.20007 25.4846 4.20007H23.4839H22.5157C22.4077 4.20007 22.3201 4.2775 22.3201 4.37302C22.3201 4.46855 22.4077 4.54597 22.5157 4.54597H23.4839C23.776 4.54597 24.0529 4.67251 24.2247 4.88444C24.3056 4.9843 24.3598 5.09492 24.3892 5.20825H22.5157C22.4077 5.20825 22.3201 5.28568 22.3201 5.3812C22.3201 5.47673 22.4077 5.55416 22.5157 5.55416H24.3963C24.3893 5.58402 24.3806 5.6136 24.3696 5.64259C24.2882 5.85601 24.1033 6.01166 23.8488 6.08091C23.4616 6.18624 23.0291 6.17293 22.6102 6.15989L22.5222 6.15719C22.4401 6.15347 22.3647 6.19813 22.3341 6.26589C22.3036 6.33358 22.3242 6.41087 22.3857 6.45931L24.7977 8.35636C24.835 8.38568 24.8814 8.40007 24.9276 8.40007C24.9815 8.40007 25.0351 8.38048 25.0738 8.34204C25.1456 8.2707 25.1383 8.16139 25.0576 8.09788L23.0446 6.51464C23.3518 6.51423 23.6614 6.49376 23.9638 6.41155C24.3418 6.30872 24.6175 6.0749 24.7402 5.75312C24.7649 5.68826 24.7802 5.62148 24.7909 5.55416H25.4846C25.5926 5.55416 25.6801 5.47673 25.6801 5.3812C25.6801 5.28568 25.5926 5.20825 25.4846 5.20825H24.7887C24.7551 5.02349 24.6722 4.84286 24.5426 4.68292C24.5025 4.63349 24.4571 4.58864 24.4096 4.54597H25.4846C25.5926 4.54597 25.6801 4.46855 25.6801 4.37302Z" fill="white"/>
<path d="M23.9999 12C27.3134 12 29.9999 9.31355 29.9999 5.99998C29.9999 2.68642 27.3134 -1.52588e-05 23.9999 -1.52588e-05C20.6863 -1.52588e-05 17.9999 2.68642 17.9999 5.99998C18.0038 9.31202 20.6878 11.9957 23.9999 12ZM23.9999 1.33328C26.5771 1.33328 28.6663 3.4225 28.6663 5.99998C28.6663 8.57717 26.5771 10.6664 23.9999 10.6664C21.4224 10.6664 19.3332 8.57717 19.3332 5.99998C19.3362 3.42372 21.4236 1.33634 23.9999 1.33328Z" fill="#4F2DA7"/>
<defs>
<linearGradient id="paint0_linear" x1="33.2038" y1="11.0789" x2="9.40703" y2="22.1755" gradientUnits="userSpaceOnUse">
<stop stop-color="#D7CEEB"/>
<stop offset="1" stop-color="#C6AFFE" stop-opacity="0.62"/>
</linearGradient>
<linearGradient id="paint1_linear" x1="11.1166" y1="16.0229" x2="3.28048" y2="19.677" gradientUnits="userSpaceOnUse">
<stop stop-color="#D7CEEB"/>
<stop offset="1" stop-color="#C6AFFE" stop-opacity="0.62"/>
</linearGradient>
<linearGradient id="paint2_linear" x1="23.9999" y1="-1.52588e-05" x2="23.9999" y2="12" gradientUnits="userSpaceOnUse">
<stop stop-color="#D7CEEB"/>
<stop offset="1" stop-color="#C6AFFE" stop-opacity="0.62"/>
</linearGradient>
</defs>
</svg>
