<svg width="116" height="116" viewBox="0 0 116 116" fill="none" xmlns="http://www.w3.org/2000/svg">
<rect width="116" height="116" rx="20" fill="#F6F2FF"/>
<path d="M58 57.3239C52.6432 57.3239 48.3334 53.0141 48.3334 47.6572C48.3334 42.3004 52.6432 37.9906 58 37.9906C63.3569 37.9906 67.6667 42.3004 67.6667 47.6572C67.6667 53.0141 63.3569 57.3239 58 57.3239Z" stroke="#5F40AF" stroke-width="3.86667"/>
<path d="M83.7134 50.2667C83.7134 53.6424 82.167 57.7107 79.6665 62.027C77.1856 66.3094 73.8589 70.6789 70.5032 74.6181C67.1518 78.5521 63.7966 82.0277 61.2772 84.5213C60.0182 85.7673 58.9699 86.7663 58.2376 87.4526C58.1543 87.5307 58.075 87.6048 58 87.6747C57.925 87.6048 57.8458 87.5307 57.7624 87.4526C57.0301 86.7663 55.9818 85.7673 54.7229 84.5213C52.2035 82.0277 48.8482 78.5521 45.4969 74.6181C42.1411 70.6789 38.8145 66.3094 36.3335 62.027C33.833 57.7107 32.2867 53.6424 32.2867 50.2667C32.2867 36.0656 43.7989 24.5533 58 24.5533C72.2011 24.5533 83.7134 36.0656 83.7134 50.2667Z" stroke="#4F2DA7" stroke-width="2.70667"/>
</svg>
