<svg width="39" height="40" viewBox="0 0 39 40" fill="none" xmlns="http://www.w3.org/2000/svg">
<path d="M20.6897 0H2.75862C1.23508 0 0 1.23508 0 2.75862V37.2414C0 38.7649 1.23508 40 2.75862 40H20.6897C22.2132 40 23.4483 38.7649 23.4483 37.2414V2.75862C23.4483 1.23508 22.2132 0 20.6897 0Z" fill="#C1ABFA"/>
<path d="M19.9999 2.75864H17.2412C17.2402 3.12412 17.0945 3.47432 16.836 3.73275C16.5776 3.99118 16.2274 4.13686 15.8619 4.13795H7.58607C7.22059 4.13686 6.87039 3.99118 6.61196 3.73275C6.35352 3.47432 6.20785 3.12412 6.20676 2.75864H3.44814C3.26523 2.75864 3.08981 2.8313 2.96048 2.96063C2.83114 3.08997 2.75848 3.26538 2.75848 3.44829V36.5517C2.75848 36.7346 2.83114 36.9101 2.96048 37.0394C3.08981 37.1687 3.26523 37.2414 3.44814 37.2414H19.9999C20.1828 37.2414 20.3582 37.1687 20.4875 37.0394C20.6169 36.9101 20.6895 36.7346 20.6895 36.5517V3.44829C20.6895 3.26538 20.6169 3.08997 20.4875 2.96063C20.3582 2.8313 20.1828 2.75864 19.9999 2.75864Z" fill="#F0EBFE"/>
<path d="M38.621 17.9311V27.5862C38.621 28.3179 38.3303 29.0195 37.813 29.5369C37.2956 30.0542 36.594 30.3449 35.8623 30.3449H23.4485V17.9311H38.621Z" fill="#4F2DA7"/>
<path d="M23.4485 13.7931H38.621V17.9311H23.4485V13.7931Z" fill="white"/>
<path d="M38.621 13.7931V12.4138C38.621 11.6822 38.3303 10.9805 37.813 10.4632C37.2956 9.94582 36.594 9.65518 35.8623 9.65518H23.4485V13.7931H38.621Z" fill="#4F2DA7"/>
<path d="M5.51691 12.4138V13.7931H20.6893V9.65518H8.27553C7.5439 9.65518 6.84223 9.94582 6.32489 10.4632C5.80755 10.9805 5.51691 11.6822 5.51691 12.4138Z" fill="#4F2DA7"/>
<path d="M20.6893 17.9311V30.3449H8.27553C7.5439 30.3449 6.84223 30.0542 6.32489 29.5369C5.80755 29.0195 5.51691 28.3179 5.51691 27.5862V17.9311H20.6893Z" fill="#4F2DA7"/>
<path d="M5.51691 13.7931H20.6893V17.9311H5.51691V13.7931Z" fill="white"/>
<path d="M32.414 27.5862C33.5567 27.5862 34.483 26.6599 34.483 25.5172C34.483 24.3745 33.5567 23.4482 32.414 23.4482C31.2713 23.4482 30.345 24.3745 30.345 25.5172C30.345 26.6599 31.2713 27.5862 32.414 27.5862Z" fill="#F2F8FF"/>
<path d="M28.9655 27.5862C30.1081 27.5862 31.0344 26.6599 31.0344 25.5172C31.0344 24.3745 30.1081 23.4482 28.9655 23.4482C27.8228 23.4482 26.8965 24.3745 26.8965 25.5172C26.8965 26.6599 27.8228 27.5862 28.9655 27.5862Z" fill="#F2F8FF"/>
<path d="M15.1727 24.8276V23.4482C15.1727 23.0824 15.0274 22.7316 14.7687 22.4729C14.51 22.2143 14.1592 22.0689 13.7934 22.0689H12.4141V24.8276H15.1727Z" fill="#F2F8FF"/>
<path d="M12.4141 27.5862H13.7934C14.1592 27.5862 14.51 27.4408 14.7687 27.1822C15.0274 26.9235 15.1727 26.5727 15.1727 26.2069V24.8275H12.4141V27.5862Z" fill="#F2F8FF"/>
<path d="M9.65537 27.5862H12.414V22.0689H9.65537C9.28956 22.0689 8.93872 22.2143 8.68005 22.4729C8.42138 22.7316 8.27606 23.0824 8.27606 23.4482V26.2069C8.27606 26.5727 8.42138 26.9235 8.68005 27.1822C8.93872 27.4409 9.28956 27.5862 9.65537 27.5862Z" fill="#F2F8FF"/>
<path d="M2.75849 20.6896V36.5517C2.75849 36.7346 2.83115 36.91 2.96048 37.0393C3.08982 37.1687 3.26523 37.2413 3.44814 37.2413H19.3102C17.1363 37.2426 14.9834 36.8153 12.9746 35.984C10.9659 35.1526 9.14077 33.9335 7.60354 32.3963C6.06632 30.859 4.84718 29.0339 4.01583 27.0252C3.18447 25.0165 2.75722 22.8636 2.75849 20.6896Z" fill="#4F2DA7" fill-opacity="0.09"/>
</svg>
