<svg width="54" height="54" viewBox="0 0 54 54" fill="none" xmlns="http://www.w3.org/2000/svg">
<rect width="54" height="54" fill="white"/>
<path d="M12.0267 19.106C12.2432 18.2946 12.978 17.73 13.8178 17.73H39.6116C40.4471 17.73 41.1793 18.2889 41.3997 19.0949L45.5301 34.2001H8L12.0267 19.106Z" fill="#482998"/>
<rect x="13.04" y="27.9901" width="27.1801" height="2.70001" rx="1.35" fill="#24154C"/>
<path d="M8 34.2001H45.5301V43.1463C45.5301 44.1701 44.7002 45.0001 43.6764 45.0001H9.85376C8.82995 45.0001 8 44.1701 8 43.1463V34.2001Z" fill="#5F40AF"/>
<path d="M17.0982 36.1657H17.9006L20.2974 41.3509V36.1657H21.2769V43.9725H20.5266L18.0986 38.6427V43.9725H17.0982V36.1657Z" fill="#DFD8EF"/>
<path d="M24.7191 44.0592C23.8854 44.0592 23.2984 43.8311 22.958 43.3749C22.6176 42.9123 22.4474 42.2762 22.4474 41.4666V38.7101C22.4474 37.8556 22.6141 37.2066 22.9476 36.7633C23.281 36.3199 23.8715 36.0983 24.7191 36.0983C25.4763 36.0983 26.0182 36.2878 26.3447 36.6669C26.6782 37.046 26.8449 37.605 26.8449 38.3439V38.9607H25.7299V38.4114C25.7299 38.0516 25.7125 37.7753 25.6778 37.5825C25.6431 37.3897 25.5527 37.2355 25.4069 37.1199C25.2679 37.0042 25.0421 36.9464 24.7295 36.9464C24.4099 36.9464 24.1703 37.0107 24.0105 37.1392C23.8576 37.2612 23.7569 37.4347 23.7083 37.6596C23.6597 37.8781 23.6353 38.1736 23.6353 38.5463V41.6401C23.6353 42.0384 23.6701 42.3501 23.7395 42.575C23.809 42.7998 23.9202 42.9605 24.073 43.0569C24.2328 43.1532 24.4516 43.2014 24.7295 43.2014C25.0282 43.2014 25.2505 43.1404 25.3964 43.0183C25.5423 42.8962 25.6326 42.7292 25.6674 42.5171C25.7091 42.3051 25.7299 42.016 25.7299 41.6497V41.0714H26.8449V41.6497C26.8449 42.4272 26.6851 43.0247 26.3656 43.4424C26.0529 43.8536 25.5041 44.0592 24.7191 44.0592Z" fill="#DFD8EF"/>
<path d="M27.9667 36.1657H29.8007C30.7108 36.1657 31.3534 36.3585 31.7286 36.744C32.1107 37.1295 32.3017 37.7303 32.3017 38.5463V41.4184C32.3017 42.2794 32.1141 42.9219 31.739 43.346C31.3708 43.7636 30.756 43.9725 29.8945 43.9725H27.9667V36.1657ZM29.8112 43.1918C30.221 43.1918 30.5163 43.1179 30.6969 42.9701C30.8845 42.8223 30.9991 42.6231 31.0408 42.3726C31.0894 42.1156 31.1138 41.73 31.1138 41.216V38.6812C31.1138 38.2379 31.0825 37.9006 31.02 37.6692C30.9644 37.4315 30.8428 37.258 30.6552 37.1488C30.4677 37.0331 30.1759 36.9753 29.7799 36.9753H29.1442V43.1918H29.8112Z" fill="#DFD8EF"/>
<path d="M34.7646 44.0496C34.2783 44.0496 33.8823 43.9082 33.5766 43.6255C33.2779 43.3428 33.1077 42.9637 33.066 42.4882L33.9935 42.228C34.049 42.5878 34.1428 42.8545 34.2748 43.0279C34.4138 43.2014 34.6083 43.2882 34.8584 43.2882C35.0529 43.2882 35.2023 43.2368 35.3065 43.134C35.4176 43.0247 35.4732 42.8802 35.4732 42.7003C35.4732 42.5396 35.435 42.395 35.3586 42.2665C35.2821 42.138 35.1571 42.0063 34.9834 41.8714L33.9518 41.0522C33.7156 40.8658 33.5315 40.6699 33.3995 40.4643C33.2744 40.2522 33.2119 39.9952 33.2119 39.6932C33.2119 39.2627 33.3508 38.9286 33.6287 38.6909C33.9066 38.4467 34.2852 38.3246 34.7646 38.3246C35.2231 38.3246 35.5809 38.4628 35.8379 38.7391C36.1019 39.0089 36.2547 39.3591 36.2964 39.7896L35.5461 40.0498C35.4975 39.735 35.4176 39.4972 35.3065 39.3366C35.1953 39.1696 35.0286 39.086 34.8063 39.086C34.6256 39.086 34.4798 39.1406 34.3686 39.2499C34.2644 39.3591 34.2123 39.494 34.2123 39.6547C34.2123 39.8603 34.313 40.0466 34.5145 40.2137L35.5774 41.1196C35.8483 41.3509 36.0568 41.579 36.2026 41.8039C36.3555 42.0288 36.4319 42.3019 36.4319 42.6231C36.4319 43.0858 36.2825 43.4392 35.9838 43.6833C35.6851 43.9275 35.2787 44.0496 34.7646 44.0496Z" fill="#DFD8EF"/>
<path d="M17.3151 9H39.2751C39.2751 9 38.2851 14.175 37.7001 19.35C37.1151 24.525 37.7001 29.4301 37.7001 29.4301H15.7401C15.7401 29.4301 15.7401 23.4 15.7401 19.35C15.7401 15.3 17.3151 9 17.3151 9Z" fill="#FAFCFF"/>
<path d="M32.0777 28.2734C31.6479 28.1583 31.2619 27.9182 30.9684 27.5836C30.675 27.2491 30.4874 26.835 30.4293 26.3938C30.3712 25.9526 30.4453 25.5041 30.6421 25.105C30.8389 24.7058 31.1497 24.374 31.5351 24.1515C31.9205 23.929 32.3632 23.8258 32.8072 23.8549C33.2513 23.884 33.6768 24.0442 34.0298 24.3151C34.3829 24.586 34.6476 24.9555 34.7907 25.3769C34.9337 25.7983 34.9486 26.2526 34.8334 26.6825C34.678 27.2583 34.3007 27.749 33.7842 28.0472C33.2677 28.3454 32.6541 28.4268 32.0777 28.2734Z" fill="#4F2DA7"/>
<path d="M32.2546 27.4078L31.9682 26.3239L32.0017 26.1986L32.0644 26.2154C32.2163 26.2561 32.3379 26.2653 32.4293 26.243C32.5227 26.2212 32.5912 26.1551 32.635 26.0448L32.0826 25.8968L32.1315 25.7145L32.681 25.8618C32.6905 25.7504 32.6608 25.66 32.5919 25.5907C32.5249 25.5219 32.4193 25.4681 32.275 25.4295L32.2123 25.4127L32.2612 25.2304L33.4401 25.5463L33.3912 25.7286L32.853 25.5844C32.9243 25.6828 32.9515 25.7979 32.9345 25.9297L33.3103 26.0304L33.2615 26.2127L32.8913 26.1135C32.8409 26.2485 32.7588 26.3424 32.6449 26.3954C32.5334 26.4469 32.3989 26.4627 32.2415 26.4429L32.545 27.4856L32.2546 27.4078Z" fill="white"/>
<rect x="19.5201" y="13.86" width="12.42" height="1.53" rx="0.765002" fill="#DFD8EF"/>
<rect x="19.5201" y="17.1901" width="14.76" height="1.53" rx="0.765002" fill="#DFD8EF"/>
<rect x="19.5201" y="20.61" width="14.76" height="1.53" rx="0.765002" fill="#DFD8EF"/>
</svg>
