<svg width="330" height="258" viewBox="0 0 330 258" fill="none" xmlns="http://www.w3.org/2000/svg">
<path fill-rule="evenodd" clip-rule="evenodd" d="M253.804 81.4557C254.009 82.6174 253.84 83.8102 253.192 84.8575C255.754 84.5551 260.925 87.4728 259.526 90.3283C259.07 91.2585 257.896 91.7 256.805 91.9511C254.342 92.5174 251.775 92.5563 249.235 92.5919C241.546 92.6998 233.859 92.8077 226.169 92.9156C224.05 92.9455 221.777 92.9358 220.027 91.8535C217.977 90.5853 217.216 87.8767 218.346 85.877C218.497 85.6098 218.677 85.3545 218.9 85.1324C220.26 83.7784 222.635 84.0213 224.637 84.2873C231.481 85.1977 228.944 80.4804 233.597 78.6335C235.499 77.8786 237.92 78.4041 239.237 79.8562C241.307 76.9059 245.615 75.2048 249.261 76.3648C251.657 77.1265 253.415 79.2343 253.804 81.4557Z" fill="#F6F3FD"/>
<path fill-rule="evenodd" clip-rule="evenodd" d="M309.426 198.269C305.706 197.412 301.81 197.353 298.08 198.169C293.761 189.589 293.914 180.747 289.312 172.362C283.922 162.538 278.531 152.714 273.138 142.891C268.635 134.684 264.097 126.427 257.723 118.965C246.86 106.25 230.711 96.1677 212.158 90.521C205.792 88.5836 199.075 87.1468 192.219 87.0108C185.572 86.8788 178.973 87.9714 172.638 89.5027C141.508 97.0261 115.577 115.882 104.16 139.047C97.4341 135.584 89.8685 133.635 81.8678 133.635C53.9267 133.635 31.2757 157.362 31.2757 186.63C31.2757 188.635 32.4097 192.548 31.8262 194.337C30.8591 197.304 31.2108 195.725 28.4177 197.436C24.9459 199.562 20.8667 200.538 17.3956 202.9C10.8425 207.36 5.4051 213.561 1.94032 220.792C0.403983 223.998 -0.759001 227.79 0.602424 231.077C2.14321 234.796 6.27932 236.502 10.0141 237.836C17.4878 240.509 22.9675 240.743 30.6759 240.865C68.4832 241.472 106.291 242.079 144.1 242.687C170.695 243.112 197.294 243.541 223.89 243.967C244.217 244.211 264.484 243.036 284.828 242.561C291.662 242.399 304.901 242.05 311.503 240.228C318.417 238.317 319.282 237.717 325.509 234.1C327.315 233.05 328.342 229.024 329.29 227.134C330.053 225.612 330.078 223.82 329.926 222.116C329.258 214.543 325.28 207.337 319.282 202.827C316.356 200.626 312.972 199.085 309.426 198.269Z" fill="#F6F3FD"/>
<path fill-rule="evenodd" clip-rule="evenodd" d="M86.8184 151.631C84.3936 150.233 81.1187 149.064 80.8222 146.282C80.6049 144.242 82.222 142.504 82.8083 140.539C84.0062 136.524 80.3705 132.296 76.2505 131.535C74.826 131.273 73.3447 131.309 71.9598 130.885C65.3514 128.86 65.0109 118.392 58.6596 115.666C58.0992 115.425 57.4776 115.255 56.8813 115.384C56.4063 115.487 56.0314 115.753 55.7377 116.112C57.4215 120.123 59.9866 123.624 62.8334 126.895C67.995 132.824 73.9618 138.382 75.9619 146.263C77.0978 150.739 77.6323 155.222 79.9123 159.326C81.0095 161.301 82.2182 163.326 83.6162 165.104C83.9798 165.566 84.3713 166.004 84.7647 166.44C87.8192 165.716 90.5528 164.122 91.4921 161.243C92.6888 157.577 90.1602 153.557 86.8184 151.631Z" fill="#C6C5E8"/>
<path fill-rule="evenodd" clip-rule="evenodd" d="M78.3724 158.651C76.3107 154.533 75.9251 149.992 74.6903 145.618C73.4842 141.346 70.9469 137.735 68.1181 134.377C63.4118 128.789 58.0457 123.775 55.0075 117.053C54.7907 117.625 54.681 118.267 54.6541 118.862C54.4684 122.989 56.1244 127.165 59.0883 130.042C60.8199 131.724 63.0887 133.167 63.645 135.515C64.6294 139.67 59.62 144.072 61.7339 147.781C63.6303 151.108 69.7649 150.509 70.8062 154.195C71.4453 156.456 69.648 159.31 71.2529 161.027C71.3669 161.149 71.494 161.255 71.6285 161.351C72.1433 163.466 73.5974 165.373 75.6135 166.222C77.0346 166.821 78.6117 166.927 80.1537 166.931C81.2737 166.933 82.4455 166.843 83.5945 166.641C83.1443 166.129 82.703 165.61 82.2971 165.057C80.8325 163.061 79.4803 160.864 78.3724 158.651Z" fill="#C6C5E8"/>
<path fill-rule="evenodd" clip-rule="evenodd" d="M229.772 150.177C230.571 148.83 231.104 147.334 231.671 145.879C232.693 143.239 233.874 140.882 235.688 138.683C236.698 137.46 237.856 136.309 238.743 134.993C239.491 133.884 239.604 132.541 240.436 131.457C241.372 130.239 242.33 129.106 243.114 127.777C243.89 126.463 244.698 125.167 245.407 123.816C246.145 122.414 246.904 121.084 247.852 119.812C248.7 118.671 249.574 117.548 250.363 116.365C252.082 113.793 252.846 111.106 253.415 108.101C253.953 105.264 254.552 102.555 255.982 100.02C256.19 99.6531 256.397 99.2808 256.6 98.9041C255.247 98.4736 253.866 99.6925 252.969 100.854C250.988 103.416 249.333 106.228 248.052 109.202C247.629 110.187 247.229 111.214 246.504 112.003C245.01 113.63 242.535 113.861 240.675 115.052C236.508 117.72 236.739 123.532 235.588 127.773C234.01 133.593 230.241 133.204 226.664 137.134C223.755 140.329 222.833 146.785 224.101 150.86C224.645 152.602 225.631 153.869 226.882 154.676C227.035 154.374 227.192 154.072 227.348 153.771C228.037 152.464 229.026 151.435 229.772 150.177Z" fill="#A998D2"/>
<path fill-rule="evenodd" clip-rule="evenodd" d="M254.058 109.888C253.463 112.734 252.4 115.178 250.724 117.557C249.904 118.721 249.02 119.837 248.187 120.992C247.252 122.288 246.581 123.729 245.815 125.125C245.092 126.444 244.3 127.747 243.503 129.022C242.717 130.277 241.584 131.307 240.839 132.571C240.475 133.194 240.339 133.906 240.07 134.569C239.834 135.147 239.493 135.623 239.112 136.112C238.202 137.279 237.197 138.368 236.262 139.513C234.264 141.964 233.198 144.688 232.042 147.591C231.519 148.9 230.979 150.239 230.143 151.383C229.246 152.613 228.447 153.759 227.745 155.12L227.735 155.138C229.662 156.001 232.039 155.941 234.348 154.995C239.455 152.906 243.076 147.329 243.878 142.018C244.231 139.69 244.157 137.155 245.497 135.22C246.353 133.984 247.678 133.172 248.895 132.291C252.118 129.963 254.962 126.636 255.311 122.676C255.544 120.028 254.642 117.307 255.311 114.734C255.857 112.622 257.389 110.913 258.273 108.919C259.423 106.326 259.411 103.242 258.237 100.661C258.032 100.212 257.773 99.7627 257.43 99.4183C257.256 99.7399 257.081 100.058 256.905 100.373C255.224 103.369 254.747 106.571 254.058 109.888Z" fill="#A998D2"/>
<path fill-rule="evenodd" clip-rule="evenodd" d="M275.63 135.096C274.969 136.08 274.157 136.907 273.419 137.826C272.627 138.813 272.053 139.955 271.366 141.012C270.656 142.102 269.867 143.151 269.081 144.185C267.738 145.943 266.311 147.649 264.632 149.097C263.018 150.491 261.201 151.646 259.708 153.178C258.009 154.922 256.861 157.23 255.792 159.395C254.731 161.543 254.022 163.765 253.186 166C252.387 168.145 251.049 169.974 249.906 171.941C248.784 173.872 247.664 175.463 245.84 176.78C244.977 177.404 244.141 178.012 243.447 178.83C242.701 179.71 241.979 180.603 241.202 181.456C239.647 183.159 237.881 184.654 236.367 186.392C233.472 189.715 231.337 193.619 228.47 196.967C226.973 198.712 225.195 200.129 223.906 202.053C222.912 203.539 222.043 205.099 221.036 206.57C225.231 209.486 231.596 208.418 236.323 205.899C240.17 203.85 243.729 200.898 245.456 196.898C246.455 194.585 246.816 191.986 248.19 189.875C251.71 184.461 259.725 184.742 265.191 181.302C270.367 178.045 272.799 171.457 272.263 165.366C271.835 160.464 269.752 155.534 270.995 150.772C271.886 147.348 274.367 144.605 276.642 141.894C278.918 139.183 281.154 136.135 281.39 132.603C281.506 130.848 280.898 128.996 279.825 127.608C279.005 129.058 278.177 130.505 277.403 131.981C276.847 133.04 276.296 134.102 275.63 135.096Z" fill="#DFD8EF"/>
<path fill-rule="evenodd" clip-rule="evenodd" d="M224.173 200.174C225.603 198.41 227.374 196.972 228.783 195.175C231.466 191.757 233.608 187.921 236.632 184.771C238.3 183.034 240.073 181.434 241.646 179.602C242.381 178.745 243.04 177.825 243.914 177.099C244.685 176.46 245.549 175.943 246.312 175.299C248.142 173.76 249.069 171.399 250.343 169.426C251.022 168.37 251.662 167.357 252.113 166.177C252.503 165.159 252.81 164.112 253.179 163.087C253.974 160.885 255.014 158.761 256.159 156.722C257.274 154.735 258.494 152.951 260.239 151.462C261.899 150.043 263.718 148.837 265.263 147.282C266.967 145.568 268.42 143.624 269.822 141.66C271.065 139.915 272.031 138.039 273.463 136.43C274.926 134.787 275.895 132.851 276.917 130.922C277.634 129.571 278.406 128.249 279.162 126.919C278.214 126.16 277.068 125.721 275.813 125.809C274.349 125.912 273.03 126.681 271.769 127.429C267.418 130.011 262.842 132.829 260.572 137.349C258.324 141.827 258.412 147.791 254.401 150.797C250.279 153.887 243.998 152.039 239.665 154.831C232.386 159.523 236.229 172.733 229.185 177.771C227.738 178.806 225.998 179.334 224.442 180.196C219.164 183.123 217.114 190.286 219.172 195.827C217.545 198.923 217.562 202.982 219.917 205.629C220.048 205.774 220.179 205.913 220.314 206.046C220.361 205.979 220.412 205.915 220.458 205.847C221.721 203.97 222.744 201.938 224.173 200.174Z" fill="#DFD8EF"/>
<path fill-rule="evenodd" clip-rule="evenodd" d="M243.937 170.438C243.916 170.479 243.901 170.522 243.88 170.563L243.906 170.524C243.916 170.494 243.929 170.466 243.937 170.438Z" fill="#EAADC4"/>
<path fill-rule="evenodd" clip-rule="evenodd" d="M91.5 251.194H220.701C226.548 251.194 231.33 246.41 231.33 240.566V56.8419C231.33 50.9954 226.548 46.212 220.701 46.212H91.5C85.6535 46.212 80.8701 50.9954 80.8701 56.8419V240.566C80.8701 246.41 85.6535 251.194 91.5 251.194Z" fill="#4F2DA7"/>
<path fill-rule="evenodd" clip-rule="evenodd" d="M123.575 58.17H187.834C189.563 58.17 190.965 56.7681 190.965 55.0385V42.7435C190.965 41.0139 189.563 39.6121 187.834 39.6121H123.575C121.845 39.6121 120.444 41.0139 120.444 42.7435V55.0385C120.444 56.7681 121.845 58.17 123.575 58.17Z" fill="#4F2DA7"/>
<path fill-rule="evenodd" clip-rule="evenodd" d="M155.704 20.861C155.261 20.861 153.519 20.861 153.075 20.861C152.632 20.861 150.887 20.861 150.446 20.861C140.197 20.861 131.887 29.1553 131.887 39.3871C131.887 49.6186 140.197 57.913 150.446 57.913C150.887 57.913 151.325 57.892 151.761 57.8617C152.194 57.892 152.632 57.913 153.075 57.913C153.519 57.913 153.954 57.892 154.39 57.8617C154.825 57.892 155.261 57.913 155.704 57.913C165.954 57.913 174.264 49.6186 174.264 39.3871C174.264 29.1553 165.954 20.861 155.704 20.861Z" fill="#4F2DA7"/>
<path fill-rule="evenodd" clip-rule="evenodd" d="M86.4852 251.194H214.405C220.603 251.194 225.674 246.123 225.674 239.925V57.4828C225.674 51.2837 220.603 46.212 214.405 46.212H86.4852C80.2863 46.212 75.2144 51.2837 75.2144 57.4828V239.925C75.2144 246.123 80.2863 251.194 86.4852 251.194Z" fill="#CDBFF3"/>
<path fill-rule="evenodd" clip-rule="evenodd" d="M83.4584 57.029V230.129C83.4584 231.618 84.9402 232.85 86.8169 232.979C86.924 232.989 87.0349 232.991 87.1456 232.991H213.742C215.768 232.991 217.431 231.702 217.431 230.129V57.029C217.431 56.9313 217.424 56.834 217.413 56.7366C217.401 56.662 217.39 56.5875 217.367 56.5129C217.298 56.2059 217.162 55.9192 216.97 55.6525C216.342 54.7695 215.125 54.1673 213.742 54.1673H87.1456C85.3463 54.1673 83.8353 55.1823 83.5214 56.5129C83.4807 56.682 83.4584 56.8511 83.4584 57.029Z" fill="white"/>
<path fill-rule="evenodd" clip-rule="evenodd" d="M118.317 59.4555H182.573C184.303 59.4555 185.707 58.0534 185.707 56.3238V42.7435C185.707 41.0139 184.303 39.6121 182.573 39.6121H118.317C116.587 39.6121 115.185 41.0139 115.185 42.7435V56.3238C115.185 58.0534 116.587 59.4555 118.317 59.4555Z" fill="#A38CEB"/>
<path fill-rule="evenodd" clip-rule="evenodd" d="M131.887 39.3551C131.887 49.6045 140.197 57.913 150.446 57.913C160.696 57.913 169.003 49.6045 169.003 39.3551C169.003 29.1057 160.696 20.7967 150.446 20.7967C140.197 20.7967 131.887 29.1057 131.887 39.3551Z" fill="#A38CEB"/>
<path fill-rule="evenodd" clip-rule="evenodd" d="M204.92 85.3989H157.168C156.501 85.3989 155.961 84.8585 155.961 84.1916V78.6451C155.961 77.9781 156.501 77.4377 157.168 77.4377H204.92C205.586 77.4377 206.127 77.9781 206.127 78.6451V84.1916C206.127 84.8585 205.586 85.3989 204.92 85.3989Z" fill="#DFD8EF"/>
<path fill-rule="evenodd" clip-rule="evenodd" d="M204.92 101.543H157.168C156.501 101.543 155.961 101.002 155.961 100.335V94.7887C155.961 94.1218 156.501 93.5814 157.168 93.5814H204.92C205.586 93.5814 206.127 94.1218 206.127 94.7887V100.335C206.127 101.002 205.586 101.543 204.92 101.543Z" fill="#DFD8EF"/>
<path fill-rule="evenodd" clip-rule="evenodd" d="M204.92 117.686H157.168C156.501 117.686 155.961 117.146 155.961 116.479V110.932C155.961 110.265 156.501 109.725 157.168 109.725H204.92C205.586 109.725 206.127 110.265 206.127 110.932V116.479C206.127 117.146 205.586 117.686 204.92 117.686Z" fill="#DFD8EF"/>
<path fill-rule="evenodd" clip-rule="evenodd" d="M183.073 133.119H157.168C156.501 133.119 155.961 132.578 155.961 131.912V127.787C155.961 127.12 156.501 126.579 157.168 126.579H183.073C183.739 126.579 184.28 127.12 184.28 127.787V131.912C184.28 132.578 183.739 133.119 183.073 133.119Z" fill="#DFD8EF"/>
<path fill-rule="evenodd" clip-rule="evenodd" d="M179.114 171.666H95.8234C95.2379 171.666 94.7631 171.192 94.7631 170.606V164.765C94.7631 164.18 95.2379 163.705 95.8234 163.705H179.114C179.698 163.705 180.172 164.18 180.172 164.765V170.606C180.172 171.192 179.698 171.666 179.114 171.666Z" fill="#DFD8EF"/>
<path fill-rule="evenodd" clip-rule="evenodd" d="M204.32 155.317H95.9705C95.3035 155.317 94.7631 154.776 94.7631 154.109V148.563C94.7631 147.896 95.3035 147.355 95.9705 147.355H204.32C204.986 147.355 205.527 147.896 205.527 148.563V154.109C205.527 154.776 204.986 155.317 204.32 155.317Z" fill="#DFD8EF"/>
<path fill-rule="evenodd" clip-rule="evenodd" d="M178.871 191.803H95.8528C95.3417 191.803 94.9276 191.226 94.9276 190.516V184.603C94.9276 183.892 95.3417 183.316 95.8528 183.316H178.871C179.382 183.316 179.796 183.892 179.796 184.603V190.516C179.796 191.226 179.382 191.803 178.871 191.803Z" fill="#DFD8EF"/>
<path fill-rule="evenodd" clip-rule="evenodd" d="M179.711 212.171H95.862C95.3458 212.171 94.9276 211.595 94.9276 210.884V204.971C94.9276 204.26 95.3458 203.684 95.862 203.684H179.314C180.05 203.684 180.645 204.506 180.645 205.52V210.884C180.645 211.595 180.226 212.171 179.711 212.171Z" fill="#DFD8EF"/>
<path fill-rule="evenodd" clip-rule="evenodd" d="M187.586 162.159C187.374 162.159 187.202 162.332 187.202 162.545V172.827C187.202 173.04 187.374 173.213 187.586 173.213H200.954C201.167 173.213 201.338 173.04 201.338 172.827V162.545C201.338 162.332 201.167 162.159 200.954 162.159H187.586ZM200.954 175.526H187.586C186.098 175.526 184.888 174.315 184.888 172.827V162.545C184.888 161.056 186.098 159.845 187.586 159.845H200.954C202.443 159.845 203.652 161.056 203.652 162.545V172.827C203.652 174.315 202.443 175.526 200.954 175.526Z" fill="#DFD8EF"/>
<path fill-rule="evenodd" clip-rule="evenodd" d="M187.586 181.386C187.374 181.386 187.202 181.559 187.202 181.772V192.054C187.202 192.266 187.374 192.439 187.586 192.439H200.954C201.167 192.439 201.339 192.266 201.339 192.054V181.772C201.339 181.559 201.167 181.386 200.954 181.386H187.586ZM200.954 194.753H187.586C186.1 194.753 184.888 193.542 184.888 192.054V181.772C184.888 180.283 186.1 179.072 187.586 179.072H200.954C202.443 179.072 203.652 180.283 203.652 181.772V192.054C203.652 193.542 202.443 194.753 200.954 194.753Z" fill="#DFD8EF"/>
<path fill-rule="evenodd" clip-rule="evenodd" d="M187.586 202.603C187.374 202.603 187.202 202.776 187.202 202.989V213.271C187.202 213.484 187.374 213.657 187.586 213.657H200.954C201.167 213.657 201.339 213.484 201.339 213.271V202.989C201.339 202.776 201.167 202.603 200.954 202.603H187.586ZM200.954 215.97H187.586C186.1 215.97 184.888 214.759 184.888 213.271V202.989C184.888 201.5 186.1 200.289 187.586 200.289H200.954C202.443 200.289 203.652 201.5 203.652 202.989V213.271C203.652 214.759 202.443 215.97 200.954 215.97Z" fill="#DFD8EF"/>
<path fill-rule="evenodd" clip-rule="evenodd" d="M147.348 103.732V105.545C147.348 114.473 142.9 122.361 136.1 127.112V127.115C131.838 130.091 126.652 131.839 121.059 131.839C118.414 131.839 115.86 131.448 113.456 130.723L113.453 130.72C113.32 130.681 113.19 130.639 113.059 130.598C112.877 130.54 112.692 130.48 112.511 130.417C112.347 130.363 112.18 130.303 112.019 130.243C111.847 130.183 111.678 130.118 111.509 130.052C111.457 130.031 111.404 130.011 111.352 129.99C111.193 129.927 111.035 129.862 110.876 129.794C110.709 129.726 110.54 129.653 110.376 129.58C101.175 125.485 94.7631 116.265 94.7631 105.545V103.732C94.7631 89.2112 106.535 77.4377 121.059 77.4377C128.318 77.4377 134.893 80.3803 139.648 85.1389C144.407 89.8974 147.348 96.4717 147.348 103.732Z" fill="#D5CCE9"/>
<path fill-rule="evenodd" clip-rule="evenodd" d="M154.075 39.355C154.075 41.359 152.45 42.9841 150.446 42.9841C148.44 42.9841 146.815 41.359 146.815 39.355C146.815 37.3505 148.44 35.726 150.446 35.726C152.45 35.726 154.075 37.3505 154.075 39.355Z" fill="#4F2DA7"/>
<path fill-rule="evenodd" clip-rule="evenodd" d="M203.267 22.6672C203.08 23.8507 203.234 25.0661 203.831 26.133C201.473 25.8248 196.71 28.7974 197.999 31.7062C198.419 32.6537 199.5 33.1037 200.505 33.3591C202.772 33.9362 205.137 33.9759 207.477 34.012C214.557 34.122 221.636 34.2321 228.716 34.3421C230.669 34.3723 232.762 34.3626 234.374 33.26C236.26 31.968 236.962 29.2086 235.922 27.1713C235.783 26.8992 235.617 26.6394 235.412 26.4128C234.159 25.0335 231.973 25.2808 230.131 25.5521C223.825 26.4795 226.162 21.6735 221.877 19.7922C220.127 19.0233 217.895 19.5585 216.683 21.0378C214.774 18.0321 210.81 16.2995 207.451 17.481C205.245 18.2569 203.628 20.4044 203.267 22.6672Z" fill="#F6F3FD"/>
<path fill-rule="evenodd" clip-rule="evenodd" d="M81.7686 27.332C81.6262 28.1224 81.7466 28.9337 82.2027 29.6455C80.4037 29.4423 76.7759 31.4322 77.7609 33.3732C78.0824 34.0054 78.906 34.3047 79.6724 34.4743C81.402 34.8568 83.2048 34.8807 84.9888 34.9024C90.3874 34.968 95.786 35.0336 101.185 35.0992C102.674 35.1172 104.27 35.1082 105.495 34.3702C106.935 33.5057 107.468 31.6623 106.671 30.3033C106.566 30.1216 106.438 29.9481 106.282 29.7972C105.326 28.8778 103.658 29.0454 102.254 29.2284C97.448 29.8546 99.2242 26.6432 95.9559 25.3917C94.6204 24.8803 92.919 25.2403 91.9968 26.2294C90.5393 24.2243 87.5135 23.0718 84.9539 23.8646C83.2735 24.385 82.041 25.8207 81.7686 27.332Z" fill="#F6F3FD"/>
<path fill-rule="evenodd" clip-rule="evenodd" d="M163.498 3.00185C163.383 3.63988 163.481 4.29456 163.85 4.86879C162.397 4.70505 159.47 6.31088 160.265 7.87726C160.524 8.38742 161.19 8.62905 161.807 8.76588C163.204 9.07465 164.657 9.09386 166.097 9.11129C170.455 9.16407 174.811 9.21712 179.167 9.27016C180.369 9.28476 181.658 9.27733 182.647 8.68184C183.808 7.98411 184.238 6.4964 183.595 5.39971C183.511 5.25314 183.408 5.11324 183.28 4.99153C182.509 4.24921 181.163 4.3845 180.031 4.53235C176.151 5.03765 177.586 2.44608 174.947 1.43599C173.871 1.0232 172.497 1.31377 171.754 2.11195C170.576 0.494071 168.134 -0.436066 166.069 0.203755C164.713 0.623726 163.719 1.78217 163.498 3.00185Z" fill="#F6F3FD"/>
<path fill-rule="evenodd" clip-rule="evenodd" d="M44.1561 76.7974C44.0703 77.2263 44.1612 77.6722 44.0298 78.0937C43.7815 78.89 42.8321 79.3956 42.0527 79.9368C41.2732 80.4777 40.5639 81.3194 40.9847 82.0692C41.2899 82.6132 42.0737 82.8714 42.8029 83.0183C44.449 83.3493 46.1655 83.3721 47.8638 83.3929C53.0037 83.4562 58.1435 83.5192 63.2831 83.5825C64.7003 83.5999 66.2196 83.5943 67.389 82.9611C68.7594 82.2193 69.2693 80.6353 68.5139 79.4658C68.413 79.3095 68.2923 79.1604 68.1431 79.0305C67.234 78.2384 65.6469 78.3804 64.3088 78.5362C62.9708 78.6917 61.3175 78.6861 60.6154 77.7718C59.9121 76.8566 60.6531 75.6041 60.0971 74.6273C59.498 73.5752 57.7663 73.3528 56.3102 73.2741C53.5218 73.1232 44.7429 73.8688 44.1561 76.7974Z" fill="#F6F3FD"/>
<path fill-rule="evenodd" clip-rule="evenodd" d="M127.764 93.6631C127.764 97.4132 124.727 100.453 120.981 100.453C117.221 100.453 114.184 97.4132 114.184 93.6631C114.184 89.9129 117.221 86.8728 120.981 86.8728C124.727 86.8728 127.764 89.9129 127.764 93.6631Z" fill="#FFFFFE"/>
<path fill-rule="evenodd" clip-rule="evenodd" d="M137.45 120.44C137.502 120.121 137.528 119.79 137.463 119.449C136.017 111.7 129.181 105.834 120.991 105.834C112.736 105.834 105.874 111.77 104.481 119.588C104.429 119.879 104.442 120.163 104.481 120.44H137.45Z" fill="#FFFFFE"/>
<path fill-rule="evenodd" clip-rule="evenodd" d="M85.7783 174.849L63.2167 173.614C60.9078 173.475 59.1923 175.281 59.4478 177.601L61.1282 192.87C61.3593 194.968 63.3277 196.579 65.465 196.476L74.3174 196.048L73.3622 202.134L78.1392 195.948L86.6311 195.548C88.362 195.465 89.7069 193.903 89.648 192.06L89.2227 178.726C89.1583 176.713 87.6225 174.96 85.7783 174.849Z" fill="#907CC2"/>
<path fill-rule="evenodd" clip-rule="evenodd" d="M124.866 244.75H125.786V257.236L124.507 257.242L114.271 257.288V252.319H120.669L122.704 246.303C122.978 245.488 123.68 244.911 124.507 244.778C124.625 244.76 124.743 244.75 124.866 244.75Z" fill="#6650AB"/>
<path fill-rule="evenodd" clip-rule="evenodd" d="M114.271 252.319H120.028V257.262L114.271 257.288V252.319Z" fill="#EDE9F4"/>
<path fill-rule="evenodd" clip-rule="evenodd" d="M124.866 244.75H125.786V257.236L124.507 257.242V244.778C124.625 244.76 124.743 244.75 124.866 244.75Z" fill="#A998D2"/>
<path fill-rule="evenodd" clip-rule="evenodd" d="M75.29 219.042L74.0137 216.355C73.8402 215.99 73.9573 215.514 74.2751 215.292L79.8895 211.366C80.2069 211.144 80.6051 211.26 80.7783 211.624L82.0547 214.311C82.2279 214.676 82.1108 215.151 81.793 215.373L76.1789 219.299C75.8612 219.522 75.4632 219.406 75.29 219.042Z" fill="#4F2DA7"/>
<path fill-rule="evenodd" clip-rule="evenodd" d="M80.6737 217.52L80.4538 215.178L78.2825 212.289C78.0778 212.015 77.6814 211.979 77.431 212.212L77.3495 212.288L79.4061 215.32C79.4427 215.374 79.4286 215.448 79.3746 215.485L79.3082 215.505C79.27 215.505 79.2329 215.487 79.2101 215.453L77.1738 212.452L76.742 212.853L78.7114 215.756C78.7483 215.81 78.7342 215.884 78.6799 215.92L78.6136 215.941C78.5754 215.941 78.5382 215.923 78.5154 215.889L76.5665 213.016L76.1347 213.416L78.017 216.191C78.0537 216.245 78.0396 216.319 77.9855 216.356L77.9192 216.376C77.881 216.376 77.8438 216.358 77.8208 216.324L75.9592 213.58L75.7796 213.747C75.5918 213.921 75.5426 214.198 75.6602 214.427L77.234 217.52L76.8207 218.551C76.4678 219.431 76.7013 220.442 77.399 221.081L83.3416 227.211L73.0453 222.805C72.9884 224.117 72.8575 225.425 72.6545 226.722C72.4498 228.033 71.3398 229.32 71.0062 231.121L85.2908 234.408L91.1171 230.239C92.9525 228.927 92.9448 226.197 91.1022 224.894L80.6737 217.52Z" fill="#EDE9F4"/>
<path fill-rule="evenodd" clip-rule="evenodd" d="M68.1422 241.311L64.1388 243.52L68.3618 247.074L80.7636 247.077L68.1422 241.311Z" fill="#6650AB"/>
<path fill-rule="evenodd" clip-rule="evenodd" d="M36.2968 234.431L24.44 254.51L24.0475 254.523C22.2651 254.59 20.5147 255.053 18.943 255.894L18.5978 256.071C18.0989 256.34 17.7861 256.86 17.7861 257.423V257.618H27.6122C28.6705 257.618 29.6621 257.09 30.2594 256.211L43.1573 238.39C41.5343 236.643 38.0356 235.664 36.2968 234.431Z" fill="#EDE9F4"/>
<path fill-rule="evenodd" clip-rule="evenodd" d="M73.3542 228.466C73.0708 229.855 72.5909 231.385 71.4942 232.307L71.0219 232.192L67.4777 231.328L68.1408 241.311L49.5091 251.169L49.3684 251.243L49.197 251.335L49.195 251.333C46.516 245.998 45.7799 238.531 45.5851 235.431C45.2323 235.971 44.8584 236.502 44.4692 237.014C44.0933 237.514 43.6982 238.001 43.2895 238.47C43.2395 238.529 43.1896 238.577 43.1355 238.626C43.012 238.795 42.8675 238.939 42.6922 239.031C42.6015 239.082 42.5013 239.118 42.3916 239.136C42.1449 239.179 41.9038 239.126 41.6744 239.023L41.7498 238.944C40.0576 238.608 37.9278 236.379 36.8949 235.631C36.5769 235.397 36.2356 235.131 36.0931 234.777C36.0603 234.703 36.039 234.621 36.0293 234.536C35.9811 234.121 36.2279 233.737 36.4631 233.391C38.4136 230.498 39.7529 227.047 42.1813 224.576C44.6601 222.055 46.9708 219.966 50.4669 218.96L52.8512 218.272C56.5689 217.21 60.5431 217.453 64.1028 218.977L73.0457 222.805L73.5005 223L73.5043 223.03C73.7859 224.802 73.7106 226.712 73.3542 228.466Z" fill="#CDBFF3"/>
<path fill-rule="evenodd" clip-rule="evenodd" d="M80.7637 247.077C83.4232 241.432 86.3568 237.565 87.9506 237.565C89.6428 237.565 92.0094 241.542 93.9534 247.077H105.912L98.2403 231.052C95.0622 224.411 86.3007 222.857 81.0338 228L68.1423 241.311L69.6154 246.923L80.7637 247.077Z" fill="#4F2DA7"/>
<path fill-rule="evenodd" clip-rule="evenodd" d="M116.462 257.926H55.0736C52.6414 257.236 50.8239 254.692 49.4728 252.122C49.3785 251.943 49.286 251.758 49.1973 251.574L49.1953 251.571L49.3687 251.476L49.5094 251.399L64.1397 243.52L68.3627 247.184H102.961C105.392 247.184 111.967 246.175 115.04 247.089C115.475 247.218 115.839 247.387 116.113 247.602C116.657 248.035 116.736 248.834 116.759 249.544C116.836 252.158 116.736 255.325 116.462 257.926Z" fill="#6650AB"/>
<path fill-rule="evenodd" clip-rule="evenodd" d="M25.001 256.114C23.5466 256.27 22.1227 256.796 20.9071 257.618H20.5791C21.8667 256.688 23.4044 256.094 24.9802 255.924L25.001 256.114Z" fill="#ED9C2D"/>
<path fill-rule="evenodd" clip-rule="evenodd" d="M49.3684 251.243C48.4242 245.57 47.6134 239.879 47.1222 234.152C46.6566 234.895 46.1677 235.618 45.6476 236.312C45.9192 239.784 46.7432 246.451 49.1949 251.333L49.197 251.335C49.2856 251.515 49.3781 251.694 49.4724 251.868C49.4358 251.658 49.4012 251.451 49.3684 251.243Z" fill="#A998D2"/>
<path fill-rule="evenodd" clip-rule="evenodd" d="M52.8772 212.349C52.8418 211.864 52.8065 211.373 52.8979 210.895C52.9894 210.417 53.2234 209.946 53.6295 209.664C53.9936 209.41 54.4518 209.334 54.8809 209.21C55.6545 208.987 56.3669 208.597 57.1289 208.339C57.8907 208.081 58.7547 207.962 59.4899 208.286C60.1866 208.593 60.6711 209.281 60.79 210.016C60.9089 210.752 60.6844 211.52 60.2491 212.132C59.9524 212.549 59.5637 212.899 59.28 213.325C59.035 213.692 58.8746 214.105 58.663 214.492C58.2297 215.281 57.5535 215.968 56.6992 216.299C55.9036 216.607 54.419 216.6 53.6977 216.045C52.7216 215.293 52.9553 213.416 52.8772 212.349Z" fill="#4F2DA7"/>
<path fill-rule="evenodd" clip-rule="evenodd" d="M58.6645 214.913V219.202C58.6645 220.381 57.6693 221.35 56.4581 221.35C55.2469 221.35 54.2563 220.381 54.2563 219.202V214.913C54.2563 214.004 54.8479 213.218 55.6789 212.911C55.9182 212.82 56.1857 212.77 56.4581 212.77C57.0636 212.77 57.6129 213.012 58.0165 213.4C58.4157 213.789 58.6645 214.324 58.6645 214.913Z" fill="#EDE9F4"/>
<path fill-rule="evenodd" clip-rule="evenodd" d="M58.6646 215.969V217.478C57.3219 217.002 56.2657 215.932 55.8337 214.602C55.7681 214.396 55.7163 214.186 55.6789 213.967C55.9182 213.875 56.1857 213.825 56.4581 213.825C57.0636 213.825 57.613 214.067 58.0165 214.456C58.4158 214.844 58.6646 215.379 58.6646 215.969Z" fill="#252256"/>
<path fill-rule="evenodd" clip-rule="evenodd" d="M60.4041 212.29V213.953C60.4041 215.523 59.0824 216.81 57.4697 216.81H57.4625C55.8498 216.81 54.5281 215.523 54.5281 213.953V212.29C54.5281 210.716 55.8498 209.432 57.4625 209.432H57.4697C58.2935 209.432 59.0473 209.767 59.5803 210.31C59.9239 210.658 60.1796 211.088 60.3096 211.57C60.369 211.802 60.4041 212.041 60.4041 212.29Z" fill="#EDE9F4"/>
<path fill-rule="evenodd" clip-rule="evenodd" d="M55.3671 215.237C54.767 215.574 53.9998 215.374 53.6534 214.79C53.307 214.205 53.5125 213.458 54.1126 213.121C54.7127 212.784 55.4798 212.984 55.8265 213.568C56.173 214.152 55.9672 214.9 55.3671 215.237Z" fill="#252256"/>
<path fill-rule="evenodd" clip-rule="evenodd" d="M60.4231 211.541C60.2917 211.053 60.0296 210.6 59.6652 210.231C59.0956 209.651 58.2954 209.318 57.4629 209.318C55.7799 209.318 54.4108 210.651 54.4108 212.29V213.935L54.5395 213.923C55.6064 213.822 56.5145 213.154 56.9094 212.178L57.1382 211.608L58.2933 211.778C58.95 211.877 59.606 211.851 60.2405 211.702L60.4542 211.655L60.4231 211.541Z" fill="#4F2DA7"/>
<path fill-rule="evenodd" clip-rule="evenodd" d="M55.6597 215.13C55.0596 215.468 54.2924 215.268 53.946 214.683C53.5995 214.099 53.805 213.352 54.4051 213.014C55.0052 212.677 55.7724 212.877 56.1188 213.461C56.4653 214.046 56.2598 214.793 55.6597 215.13Z" fill="#EDE9F4"/>
<path fill-rule="evenodd" clip-rule="evenodd" d="M16 258H76.4074V257.693H16V258Z" fill="#CDBFF3"/>
<path d="M191.253 211.322L189.98 210.049L196.345 203.684L197.618 204.957L191.253 211.322Z" fill="#E71D32"/>
<path d="M196.345 211.322L197.618 210.049L191.253 203.684L189.98 204.541L196.345 211.322Z" fill="#E71D32"/>
<path d="M192.102 190.954L190.829 189.681L197.194 183.316L198.467 184.589L192.102 190.954Z" fill="#E71D32"/>
<path d="M197.194 190.954L198.467 189.681L192.102 183.316L190.829 184.172L197.194 190.954Z" fill="#E71D32"/>
<path fill-rule="evenodd" clip-rule="evenodd" d="M198.503 164.076C198.883 163.703 199.499 163.703 199.879 164.076C200.26 164.449 200.26 165.053 199.879 165.426L194.038 171.155C193.658 171.527 193.042 171.527 192.662 171.155L189.417 167.972C189.037 167.599 189.037 166.995 189.417 166.622C189.797 166.249 190.413 166.249 190.793 166.622L193.35 169.129L198.503 164.076Z" fill="#DFD8EF"/>
<path fill-rule="evenodd" clip-rule="evenodd" d="M74.1203 179.984C75.0941 178.382 77.4188 178.382 78.3926 179.984L82.9833 187.534C83.9962 189.2 82.7969 191.333 80.8471 191.333H71.6658C69.716 191.333 68.5167 189.2 69.5297 187.534L74.1203 179.984ZM77.5382 180.503C76.9539 179.542 75.5591 179.542 74.9748 180.503L70.3841 188.053C69.7764 189.053 70.496 190.333 71.6658 190.333H80.8471C82.017 190.333 82.7366 189.053 82.1288 188.053L77.5382 180.503Z" fill="white"/>
<path fill-rule="evenodd" clip-rule="evenodd" d="M77.1839 188.186C77.1839 188.31 77.1601 188.427 77.1126 188.535C77.065 188.644 76.9984 188.737 76.9128 188.815C76.8272 188.893 76.7273 188.955 76.6132 189.001C76.499 189.048 76.3785 189.071 76.2517 189.071C76.1249 189.071 76.006 189.049 75.895 189.006C75.784 188.962 75.6873 188.9 75.6049 188.82C75.5225 188.739 75.4559 188.646 75.4051 188.54C75.3544 188.434 75.329 188.319 75.329 188.195C75.329 188.077 75.3528 187.964 75.4004 187.855C75.4479 187.746 75.5129 187.651 75.5954 187.571C75.6778 187.49 75.7761 187.426 75.8903 187.38C76.0044 187.333 76.1249 187.31 76.2517 187.31C76.3785 187.31 76.499 187.333 76.6132 187.38C76.7273 187.426 76.8272 187.488 76.9128 187.566C76.9984 187.644 77.065 187.737 77.1126 187.846C77.1601 187.954 77.1839 188.068 77.1839 188.186Z" fill="white"/>
<path fill-rule="evenodd" clip-rule="evenodd" d="M75.7928 186.429L75.329 182.025H77.1839L76.7202 186.429H75.7928Z" fill="white"/>
</svg>
