<svg xmlns="http://www.w3.org/2000/svg" xmlns:xlink="http://www.w3.org/1999/xlink" width="320" height="200" viewBox="0 0 320 200">
  <defs>
    <linearGradient id="error_illustration_fisdom-a" x1="44.719%" x2="44.719%" y1="0%" y2="57.873%">
      <stop offset="9.647%" stop-color="#9C87CE"/>
      <stop offset="100%" stop-color="#FCFAFF"/>
    </linearGradient>
    <rect id="error_illustration_fisdom-b" width="106.408" height="146.714" x="0" y="0"/>
    <linearGradient id="error_illustration_fisdom-d" x1="-13.052%" x2="97.963%" y1="106.251%" y2="2.096%">
      <stop offset="0%" stop-color="#F5F2FD"/>
      <stop offset="100%" stop-color="#3E1487"/>
    </linearGradient>
    <rect id="error_illustration_fisdom-e" width="106.408" height="146.714" x="0" y="0"/>
    <rect id="error_illustration_fisdom-g" width="106.408" height="146.714" x="0" y="0"/>
    <rect id="error_illustration_fisdom-i" width="106.408" height="146.714" x="0" y="0"/>
    <rect id="error_illustration_fisdom-k" width="106.408" height="146.714" x="0" y="0"/>
    <rect id="error_illustration_fisdom-m" width="106.408" height="146.714" x="0" y="0"/>
    <rect id="error_illustration_fisdom-o" width="106.408" height="146.714" x="0" y="0"/>
    <rect id="error_illustration_fisdom-q" width="106.408" height="146.714" x="0" y="0"/>
    <rect id="error_illustration_fisdom-s" width="106.408" height="146.714" x="0" y="0"/>
  </defs>
  <g fill="none" fill-rule="evenodd">
    <path fill="#F8F5FF" fill-rule="nonzero" d="M315.555225,54.0509285 C315.496176,54.2581202 315.440235,54.4653118 315.37497,54.6701755 C313.336233,61.7123641 310.004638,68.4984731 305.050756,74.730519 C304.886041,74.9377106 304.721326,75.1449023 304.553503,75.3520943 C301.286925,79.3617496 297.378336,83.0572966 292.914676,86.3565323 C290.447058,88.1816813 287.755676,89.9160383 284.55461,91.1661721 C280.07001,92.9214818 274.827099,93.6338483 269.674315,94.2158476 C264.32263,94.8234541 258.896357,95.3309573 253.485623,95.8780366 C251.562912,96.0689326 249.651596,96.2714678 247.751675,96.4856438 C242.524303,97.0653151 237.334225,97.7357776 232.268461,98.6250721 C226.006181,99.7215586 219.936587,101.157932 214.202639,103.178633 C213.744752,103.333832 213.292044,103.498344 212.844517,103.672168 C212.396989,103.839784 211.946353,104.009728 211.505041,104.181999 C211.063729,104.354271 210.628633,104.526542 210.196645,104.70347 C209.972881,104.794262 209.749117,104.885054 209.528461,104.980502 C209.307805,105.07595 209.090257,105.159758 208.875816,105.252878 C208.229388,105.522925 207.59539,105.799957 206.961392,106.079316 L206.93653,106.090956 C206.516973,106.274868 206.103631,106.463435 205.693397,106.652003 C203.350093,107.718226 201.056514,108.831008 198.762934,109.950774 L197.320901,110.649173 L195.08637,111.731691 C194.651274,111.943538 194.206854,112.155386 193.76865,112.364906 C193.457867,112.518554 193.147084,112.672202 192.80833,112.830505 C191.179826,113.598744 189.529568,114.353015 187.8358,115.072366 C187.43489,115.244637 187.030872,115.416909 186.623746,115.584524 C183.201708,117.014593 179.623009,118.223327 175.926592,119.197575 L175.876866,119.211543 C174.017262,119.697479 172.120086,120.098628 170.195751,120.412789 C169.086256,120.594373 167.973652,120.743364 166.848617,120.857436 C163.841247,121.176834 160.791907,121.208906 157.773751,120.952884 C151.847117,120.438397 146.293423,118.734304 140.369897,118.159289 C128.174768,116.99529 116.330824,120.745692 104.862927,123.683624 C102.043089,124.405302 99.2025309,125.081198 96.3412545,125.711309 C94.4392619,126.132676 92.5310536,126.530763 90.6073062,126.914882 C78.8211073,129.247497 66.792191,130.827654 54.6497011,131.638387 C49.573832,132.01097 44.4676408,132.095795 39.3747116,131.892138 C37.4385328,131.803674 35.5241089,131.659339 33.6438711,131.426539 C27.2106609,130.68158 21.212547,129.119495 16.3705462,126.258387 C12.4049538,123.909439 9.56750407,120.848124 7.4075615,117.644801 C5.19650989,114.376169 3.6354038,110.882918 2.77378542,107.275906 C2.65568784,106.784699 2.55002158,106.291164 2.46300232,105.797629 C2.30761076,104.953342 2.19158507,104.1044 2.11492524,103.250801 C1.69676085,98.7009818 2.4220396,94.1327858 4.25311299,89.7833423 C6.30428148,84.9131746 9.72289562,80.2385581 11.2270858,75.3311423 C11.2892425,75.1231741 11.3482913,74.9159827 11.4042322,74.709567 C11.609667,73.9642054 11.7621651,73.2112044 11.8610834,72.4537387 C12.6287176,66.4242284 9.68560165,60.546038 7.37648319,54.6492235 C7.29567958,54.4443599 7.21487597,54.2371682 7.1371802,54.0299766 C6.88855371,53.3750336 6.65028667,52.7208666 6.42237906,52.0674757 C4.2841913,45.8331018 3.69059558,39.1587366 5.595696,32.9360028 C5.65474479,32.7288111 5.72622491,32.5216194 5.79459719,32.3167557 C7.06999773,28.3832937 9.46835567,24.7036263 12.824511,21.5311493 C16.392301,18.1788347 21.0758024,15.3875672 26.0794104,12.9361872 C28.5180218,11.7411491 31.0395087,10.624487 33.6438711,9.58620062 C35.5085697,8.84124182 37.4188499,8.13585894 39.3747116,7.47005205 C55.0537191,2.11566073 72.9392868,-0.498679026 90.6259532,0.078664038 C91.5583025,0.108927989 92.4906518,0.146175929 93.4230011,0.197391845 C94.3553505,0.248607763 95.374719,0.309135665 96.350578,0.376647555 C107.743887,1.20541421 118.82952,3.20516296 129.837457,5.39115142 C133.526453,6.12447023 137.209233,6.87641301 140.888905,7.61438784 C142.526732,7.94030732 144.161451,8.26622679 145.799278,8.58283427 C153.82059,10.1356077 161.959999,11.5417175 170.201967,12.5916437 C172.110175,12.8384114 174.020455,13.063451 175.932807,13.2667626 C182.572577,13.9977245 189.26594,14.4229939 195.97521,14.5401766 C198.583716,14.5789765 201.193258,14.5619045 203.803836,14.4889607 C205.121557,14.4532647 206.440313,14.3997208 207.760105,14.3283289 C221.387944,13.6089781 234.558932,11.20183 247.751675,8.95298567 C249.659883,8.62706619 251.571199,8.30580272 253.485623,7.98919524 C255.996751,7.57481192 258.507878,7.17439653 261.031437,6.80424513 C276.735307,4.49254488 290.732978,5.82183072 305.333568,10.591895 C308.652732,11.6744132 311.968788,12.9827471 314.001309,15.0150878 C316.033831,17.0474285 316.543515,19.5430405 316.92267,21.9525165 C317.460325,25.383983 317.81151,28.8596814 317.945147,32.3540037 C317.945147,32.5588674 317.945147,32.7660591 317.963794,32.9732507 C318.175126,40.0317352 317.472756,47.1577317 315.555225,54.0509285 Z" transform="matrix(1 0 0 -1 0 132)"/>
    <path fill="#FBF9FF" fill-rule="nonzero" d="M104.094227,54.9632882 C107.242797,30.3970354 276.176951,-17.0184205 307.538988,6.25024863 C338.901025,29.5189177 308.750317,73.188123 243.027071,84.3706944 C177.303826,95.5532665 100.945658,79.5295407 104.094227,54.9632882 Z"/>
    <path fill="#F5F2FD" fill-rule="nonzero" d="M122.065866,150.175692 C124.883514,126.855376 276.062339,81.8447098 304.128161,103.933252 C332.193983,126.021794 325.089976,172.482483 266.27438,183.097905 C207.458784,193.713325 119.248218,173.496008 122.065866,150.175692 Z"/>
    <path fill="#F5F2FD" fill-rule="nonzero" d="M0.0658656061,145.060825 C2.88351373,124.920552 154.062339,86.047704 182.128161,105.124172 C210.193983,124.200641 203.089976,164.325781 144.27438,173.493645 C85.4587837,182.661508 -2.75178252,165.201098 0.0658656061,145.060825 Z" transform="matrix(-1 0 0 1 198 0)"/>
    <ellipse cx="160" cy="188" fill="#FCFAFF" fill-rule="nonzero" rx="150" ry="12"/>
    <ellipse cx="49" cy="190" fill="#F4F2FB" fill-rule="nonzero" rx="20" ry="4"/>
    <ellipse cx="230" cy="183" fill="#F4F2FB" fill-rule="nonzero" rx="45" ry="4"/>
    <g fill-rule="nonzero" transform="translate(39 115)">
      <path fill="#D5CCEB" d="M15.1280162,0.0554098207 C16.0450124,-0.056621618 17.0237259,-0.0170749776 17.8765055,0.34488188 C19.6898541,1.11464578 20.2053013,3.2569038 20.1804347,4.99813338 C20.1536266,6.87225848 19.7556409,8.91927686 21.180497,10.4293048 C21.835475,11.1235285 22.6502168,11.6548118 23.2933613,12.3617827 C23.9805717,13.1172764 24.5197889,13.9817114 24.9190389,14.9099774 C25.6521092,16.615026 26.011913,18.6201411 25.3415602,20.4087484 C24.7513264,21.9835121 23.2663641,23.4048713 23.5872284,25.1955301 C23.9219182,27.0635207 25.8052396,28.4916152 26.9827003,29.8829749 C28.3152531,31.4575583 29.5421724,33.4700201 29.7437276,35.5349212 C29.9369988,37.5138304 29.0756054,39.5152125 27.7536431,41.0111061 C25.1123589,44.0001487 21.1420991,45.4654763 17.1388587,45.4564807 C15.4391918,45.4524598 13.5148238,45.3756957 12.0480571,44.4623241 C11.5947316,44.1800076 11.3555733,43.8632742 11.0860839,43.4229697 C10.8444578,43.0281444 10.5252716,42.7713273 10.15582,42.4919491 C9.34413604,41.8783112 8.75795619,41.0512761 8.38387095,40.1254965 C6.93121712,36.5296982 8.09225991,32.0812549 10.1256465,28.8881579 C10.6074693,28.1316479 11.0019453,27.4036585 10.7678738,26.5019433 C10.5236131,25.5606617 9.92327333,24.711677 9.39227966,23.9025656 C8.86757346,23.1029111 8.26855148,22.3400516 7.85844438,21.4754498 C7.42892438,20.5697178 7.30797496,19.6212642 7.38386636,18.6300159 C7.52649899,16.7680208 8.330287,15.0497564 9.46827586,13.5523012 C10.5643697,12.1099242 11.8513669,10.7297928 11.8542507,8.83984443 C11.8574174,6.83675661 10.518278,5.05488641 11.0887711,3.01836489 C11.3249926,2.17507827 11.7994526,1.30986109 12.5640797,0.804298243 C13.2973714,0.31942629 14.2655923,0.160774056 15.1280162,0.0554098207 Z"/>
      <path fill="#CEC4E3" d="M14.5288254,3.257636 C14.5460214,2.98861372 14.8651356,2.82726412 15.1163492,2.89746421 C15.4470156,2.9899124 15.4406563,3.29887994 15.4319262,3.57414583 C15.405165,4.42024766 15.5276303,5.24252048 15.731019,6.06347921 C16.1537403,7.77034378 16.9349862,9.34293897 17.553929,10.9825177 C18.1723323,12.6207238 18.4626238,14.3121221 18.0998425,16.0455781 C17.7578479,17.6799853 17.220564,19.2720306 16.8705656,20.9085009 C16.5620704,22.3508392 16.2338167,23.8718659 16.7036155,25.3105315 C17.1556774,26.6953517 18.1551242,27.8231363 18.8748124,29.0746087 C20.3646503,31.6652364 21.0256093,34.5392283 21.1140155,37.4968195 C21.1549861,38.8702112 21.118091,40.2562318 20.7994799,41.60323 C20.6160979,42.3788353 20.3696634,43.4270313 19.7050219,43.9625111 C19.3985385,44.209449 18.8743549,44.2948363 18.6164028,43.9291496 C18.3742234,43.586164 18.5866806,43.0551884 18.6635643,42.6896197 C18.9965262,41.1071325 19.0635106,39.4898932 18.9837947,37.883043 C18.9066427,36.3265975 18.7227483,34.7727511 18.232892,33.2862811 C17.7782397,31.9068152 17.0875387,30.6677868 16.2746253,29.4610475 C15.4462723,28.2312958 14.5851265,26.9989202 14.242854,25.5417911 C13.895095,24.0618649 14.1776143,22.5559924 14.5553813,21.1043297 C14.9548791,19.5688799 15.4781588,18.0774777 16.0191366,16.5836301 C16.5463382,15.1279871 16.7332053,13.7506899 16.442168,12.2271904 C15.8672377,9.21726293 14.3283185,6.392109 14.5288254,3.257636 Z"/>
      <path fill="#D9D1EC" d="M39.3397734,3.70766838 C40.4745356,4.05221902 41.6015676,4.60813656 42.4104777,5.47983126 C44.1304902,7.33351873 43.6027432,10.1351563 42.6532295,12.1814438 C41.6311952,14.383887 40.0824211,16.5977034 40.9554944,19.124744 C41.3567792,20.2864852 42.0315753,21.3386417 42.4122429,22.5093022 C42.818948,23.760271 42.9944896,25.0630873 42.9721248,26.3685777 C42.9307206,28.7663725 42.2929079,31.324852 40.5612601,33.0913731 C39.0366137,34.6466771 36.5436222,35.5551032 35.9734907,37.8397038 C35.3787003,40.2229513 36.8328153,42.8915993 37.4784416,45.1495993 C38.2091305,47.7049666 38.5844759,50.7232274 37.7294524,53.2700867 C36.9101648,55.7109406 34.8419806,57.6297114 32.500776,58.7110797 C27.8229146,60.8719447 22.391673,60.5394612 17.7010634,58.4461487 C15.709602,57.5572874 13.4930815,56.4654052 12.2554814,54.622183 C11.8729967,54.0524781 11.7599007,53.5534852 11.6765444,52.8925751 C11.6018303,52.2999455 11.3631998,51.8301788 11.077538,51.3075817 C10.4498578,50.1596217 10.1994657,48.8766041 10.2500321,47.5871457 C10.4468135,42.5789576 14.1598805,37.9221122 18.2325928,35.2036855 C19.1975861,34.5596722 20.0450552,33.9039482 20.2471246,32.7157868 C20.4581563,31.4755328 20.2027575,30.1591911 20.0076195,28.9260798 C19.8148575,27.7074237 19.5154818,26.4936215 19.491462,25.2577738 C19.4664125,23.9631856 19.8258672,22.778599 20.4388163,21.6458032 C21.5902901,19.5179597 23.4412636,17.9040439 25.5675107,16.7251214 C27.6155068,15.5895413 29.8545131,14.6268865 30.8568502,12.3932843 C31.9193203,10.0260277 31.2904697,7.22209112 33.0360299,5.11043082 C33.7588238,4.23602571 34.7726395,3.45962191 35.9366935,3.25950622 C37.0530576,3.06755874 38.2725431,3.38362261 39.3397734,3.70766838 Z"/>
      <path fill="#CEC4E3" d="M37.0217901,7.62223855 C37.1827914,7.3126658 37.6404374,7.28884718 37.8974181,7.50364917 C38.2356517,7.78644161 38.0664014,8.14899883 37.9120294,8.47040271 C37.4376117,9.45835994 37.150166,10.4963122 36.9580328,11.5751225 C36.5583954,13.8180126 36.6483042,16.0898096 36.5133495,18.3558629 C36.3784829,20.620008 35.8320944,22.775172 34.5000353,24.6378473 C33.2441567,26.3941205 31.7821107,27.9978703 30.5157927,29.7523915 C29.3996767,31.2987679 28.2192457,32.9279739 28.0151192,34.877928 C27.818453,36.7548199 28.3964647,38.6142223 28.582574,40.47347 C28.9678756,44.3222514 28.2355567,48.0721621 26.7899639,51.6209822 C26.1185904,53.2688751 25.3495539,54.8909119 24.2715411,56.3190812 C23.6509066,57.1414644 22.8137813,58.2536112 21.7561654,58.5393869 C21.2684641,58.6711827 20.610812,58.4975612 20.5007062,57.9293013 C20.397154,57.3961924 20.9236678,56.8787473 21.2050262,56.486125 C22.4231509,54.7866032 23.3484664,52.90652 24.0968029,50.9618497 C24.8217392,49.0782142 25.4204994,47.1417101 25.6262091,45.1246315 C25.8170421,43.2527226 25.6583106,41.4234043 25.3397646,39.5682691 C25.015217,37.6777892 24.6536988,35.7670144 25.0166128,33.8620353 C25.3850509,31.9271837 26.5040674,30.2919531 27.706067,28.7708418 C28.9773581,27.1618967 30.3703194,25.669992 31.7852561,24.1844677 C33.1640753,22.7369658 34.1039068,21.2038645 34.5614905,19.2471412 C35.4655964,15.3813408 35.1457311,11.2291005 37.0217901,7.62223855 Z"/>
      <path fill="#DFD8EF" d="M4.25945289,17.926483 C6.14630791,17.926483 7.80516892,18.9266403 8.94822473,20.3458968 C10.28628,22.0073381 10.5565259,24.0362882 11.0998661,26.0164304 C11.3702306,27.0018641 11.8352387,27.98011 12.6501303,28.6496253 C13.3913184,29.2585074 14.3322536,29.3803534 15.2194243,29.6778385 C16.9924604,30.2723448 18.4241582,31.7044699 18.9895738,33.4519338 C19.6793713,35.5834849 18.9487461,37.7331216 19.0745523,39.8933084 C19.1900328,41.8771604 21.1460812,43.1148652 22.7198451,44.0658668 C24.2716522,45.0036518 25.6696435,45.8814994 26.1370252,47.7083777 C26.632654,49.6459723 26.7989318,51.8087096 26.1124574,53.7227698 C24.9695203,56.9097783 21.6246194,58.3131518 18.392588,58.5307588 C15.4594055,58.7281934 11.7712674,58.4181876 9.56847281,56.289071 C8.25035659,55.0149632 7.77300532,53.233067 7.8322291,51.4602136 C7.86902152,50.3578031 8.08740198,49.2655948 8.36975377,48.200283 C8.56985674,47.4452089 8.84022131,46.6933809 8.91724791,45.9131492 C9.12197963,43.8373621 7.2034357,43.4386671 5.57032934,42.8687386 C3.49512115,42.1443869 2.04229738,40.776257 1.03205019,38.8701963 C0.0912337564,37.0954881 -0.303512737,35.1032888 0.260478645,33.1493476 C0.548527276,32.1516249 1.07097888,31.2464171 1.77952866,30.4765035 C2.09143299,30.1376302 2.53104244,29.8549847 2.81256339,29.4989532 C3.0753321,29.1664563 3.01812591,28.7356479 2.92756921,28.3462276 C2.50884833,26.5474053 1.20426221,25.0578932 0.737711248,23.2623169 C0.316497992,21.6415683 0.565499237,19.6244434 2.04728215,18.5788402 C2.68746934,18.1270478 3.47696232,17.9314682 4.25945289,17.926483 Z"/>
      <path fill="#D8CFEB" d="M6.83053145,22.6134186 C8.83039569,24.7436758 9.37398292,27.6339856 9.53351523,30.4353752 C9.62287695,32.0062587 9.52986543,33.6631641 9.99139068,35.1868631 C10.3862773,36.4909863 11.3120358,37.4878887 12.2662863,38.430071 C14.1871497,40.3267245 16.3293568,42.2549116 16.8911931,44.9998422 C17.2208539,46.6107223 16.9983329,48.2745836 17.4538535,49.8677262 C17.8680489,51.3158373 18.5973059,52.7385591 19.4843291,53.9614139 C20.1985159,54.9461434 21.1289838,55.7000516 21.9096914,56.618004 C22.1478714,56.8982126 22.4890704,57.3107 22.3907608,57.706261 C22.2757327,58.1695267 21.6856397,58.3161813 21.2669704,58.2433758 C20.290821,58.0737667 19.4691412,57.1416705 18.8308942,56.4640456 C17.8976007,55.4731718 17.1045308,54.4074056 16.459926,53.2119111 C15.7443264,51.8842537 15.1681262,50.4754437 14.9219402,48.9859446 C14.666453,47.4406821 14.7936079,45.8302657 14.2102259,44.3472588 C13.2285429,41.8519307 10.8474494,40.3793578 9.12591314,38.4344764 C6.98099809,36.0110263 7.3008869,32.994814 7.52058231,30.0137292 C7.64126175,28.375489 7.76123475,26.5254403 6.93343273,25.029681 C6.61742924,24.4587141 5.91289681,23.9263526 5.77702943,23.2773633 C5.65258245,22.6827462 6.33180162,22.0818687 6.83053145,22.6134186 Z"/>
      <path fill="#FFF" d="M8.96324155,57.6208384 C8.96324155,69.8039612 10.9515539,76.1875528 21.4477863,76.1875528 C31.9440187,76.1875528 33.9322715,69.8039612 33.9322715,57.6208384 L8.96324155,57.6208384 Z"/>
    </g>
    <g transform="translate(111 28)">
      <path fill="url(#error_illustration_fisdom-a)" fill-rule="nonzero" d="M77.8989547,161.22449 C117.557272,161.22449 158,158.68586 158,153.835034 C158,148.984207 116.592081,143.489796 77.8989547,143.489796 C39.2058281,143.489796 1.6122449,149.727294 1.6122449,153.835034 C1.6122449,157.942774 38.2406374,161.22449 77.8989547,161.22449 Z"/>
      <g transform="translate(19.347)">
        <rect width="106.408" height="146.714" fill="#331C6B" fill-rule="nonzero"/>
        <mask id="error_illustration_fisdom-c" fill="#fff">
          <use xlink:href="#error_illustration_fisdom-b"/>
        </mask>
        <g fill-rule="nonzero" mask="url(#error_illustration_fisdom-c)">
          <g transform="translate(73.907 84.86)">
            <path fill="url(#error_illustration_fisdom-d)" d="M15.0547783,0.555299201 L11.5378834,4.07219414 C11.4076281,4.20244951 11.2019616,4.20244951 11.0717063,4.07219414 C10.9414509,3.94193878 10.9414509,3.73627241 11.0717063,3.60601704 L12.9364147,1.74130861 C13.0666701,1.61105324 13.0666701,1.39853132 12.9364147,1.26142041 C12.8061593,1.13116504 12.5936375,1.13116504 12.4565265,1.26142041 L9.73487488,3.98307205 C9.60461952,4.11332742 9.39895317,4.11332742 9.26869781,3.98307205 C9.13844245,3.85281668 9.13844245,3.64715031 9.26869781,3.51689494 L11.2910838,1.49450897 C11.4213391,1.3642536 11.4213391,1.14487613 11.2910838,1.01462076 C11.1608284,0.884365395 10.9414509,0.884365395 10.8111955,1.01462076 L1.30940922,10.5164071 L1.32312032,10.5301182 C0.0616999112,11.7915386 0.116544277,13.8619134 1.47394232,15.0616339 C2.7147961,16.1516657 4.61378226,16.0145547 5.78608057,14.8422564 L16.6246983,4.00363869 C16.8029425,3.8253945 16.8029425,3.53746158 16.6246983,3.35236185 C16.4464541,3.17411765 16.1585212,3.17411765 15.9734214,3.35236185 L13.6768137,5.64896966 C13.5465583,5.77922502 13.3408919,5.77922502 13.2106366,5.64896966 C13.0803812,5.51871429 13.0803812,5.31304792 13.2106366,5.18279255 L14.7668454,3.62658367 C14.9108119,3.48261722 14.9108119,3.24267311 14.7668454,3.09870666 C14.622879,2.95474019 14.3829348,2.95474019 14.2389684,3.09870666 L11.6681388,5.66953629 C11.5378834,5.79979166 11.3322171,5.79979166 11.2019616,5.66953629 C11.0717063,5.53928092 11.0717063,5.33361455 11.2019616,5.20335918 L15.4592555,0.946065306 C15.5689443,0.836376571 15.5689443,0.658132387 15.4592555,0.548443656 C15.3358557,0.445610471 15.1576115,0.445610471 15.0547783,0.555299201 Z" opacity=".64"/>
            <path fill="#F5F2FD" d="M5.15537037,11.0785619 C6.06715794,11.9903494 6.06715794,13.4642917 5.15537037,14.3692237 C4.24358278,15.2810114 2.76964046,15.2810114 1.86470843,14.3692237 C0.952920854,13.4574362 0.952920854,11.9834939 1.86470843,11.0785619 C2.76964046,10.1667742 4.24358278,10.1667742 5.15537037,11.0785619 Z"/>
          </g>
        </g>
        <mask id="error_illustration_fisdom-f" fill="#fff">
          <use xlink:href="#error_illustration_fisdom-e"/>
        </mask>
        <g mask="url(#error_illustration_fisdom-f)">
          <g transform="translate(46.86 4.03)">
            <path fill="#5F40AF" fill-rule="nonzero" d="M36.5735684,50.7857143 C42.5848582,50.7857143 47.8720301,49.2486617 52.2929562,45.9489796 C52.2929562,41.1122449 52.2929562,10.4795918 52.2929562,4.83673469 C47.983447,1.81887336 42.2964883,0 36.5735684,0 C22.1042715,0 10.3745888,11.3687694 10.3745888,25.3928571 C10.3745888,39.4169449 22.1042715,50.7857143 36.5735684,50.7857143 Z"/>
            <path fill="#7F66BF" fill-rule="nonzero" d="M36.5735684,50.7857143 C42.5848582,50.7857143 47.8720301,49.2486617 52.2929562,45.9489796 C24.8847929,56.4285714 12.7929562,35.2364669 12.7929562,24.9897959 C12.7929562,14.7431249 23.272548,-6.44897959 52.2929562,4.83673469 C47.983447,1.81887336 42.2964883,0 36.5735684,0 C22.1042715,0 10.3745888,11.3687694 10.3745888,25.3928571 C10.3745888,39.4169449 22.1042715,50.7857143 36.5735684,50.7857143 Z"/>
            <g transform="translate(28.687 37.412)">
              <path fill="#482998" fill-rule="nonzero" d="M4.56579343,1.34368695 C5.53242538,2.58454073 5.52556983,4.2161606 4.53837125,4.98398172 C3.55802822,5.75180284 1.97439716,5.36103673 1.00776522,4.12018296 C0.0411332742,2.87932919 0.0479888199,1.24770931 1.0351874,0.479888199 C2.01553043,-0.281077374 3.59230594,0.102833185 4.56579343,1.34368695 Z"/>
              <path fill="#331C6B" fill-rule="nonzero" d="M1.52193115,3.71570577 C0.63756575,2.58454073 0.582721384,1.13802059 1.31626477,0.315355102 C1.22028713,0.363343922 1.11745395,0.411332742 1.0351874,0.486743745 C0.0548443656,1.25456486 0.0411332742,2.8793292 1.00776522,4.12703851 C1.97439716,5.36789228 3.55802822,5.75865838 4.53837125,4.99083727 C4.62749334,4.92228181 4.6960488,4.84001527 4.77145981,4.75774871 C3.78426122,5.25820355 2.39944099,4.84687081 1.52193115,3.71570577 Z"/>
            </g>
            <g transform="translate(35.18 42.897)">
              <path fill="#482998" fill-rule="nonzero" d="M3.1946843,0.527877019 C4.07219414,1.10374286 4.42182698,2.12521917 3.96936096,2.82448482 C3.51689494,3.51689494 2.43371872,3.61972813 1.55620888,3.04386229 C0.678699024,2.46799645 0.329066194,1.44652014 0.781532209,0.747254481 C1.23399823,0.0548443656 2.31717445,-0.0411332742 3.1946843,0.527877019 Z"/>
              <path fill="#331C6B" fill-rule="nonzero" d="M1.78929742,2.68051837 C0.987198583,2.1594969 0.63756575,1.26142041 0.918643124,0.582721384 C0.8706543,0.63756575 0.815809937,0.68555457 0.774676663,0.747254481 C0.322210648,1.43966459 0.664987932,2.46799645 1.54935333,3.04386229 C2.42686318,3.61972813 3.5100394,3.51689494 3.96250541,2.82448482 C4.00363869,2.76278491 4.03106087,2.69422946 4.05848305,2.625674 C3.55117267,3.16040657 2.59139627,3.20153984 1.78929742,2.68051837 Z"/>
            </g>
            <g transform="translate(19.42 31.326)">
              <ellipse cx="2.321" cy="2.294" fill="#482998" fill-rule="nonzero" rx="1.09" ry="1.378" transform="rotate(-37.827 2.32 2.294)"/>
              <path fill="#331C6B" fill-rule="nonzero" d="M1.70017533,2.76278491 C1.2751315,2.21434126 1.24770931,1.5150756 1.60419769,1.11745395 C1.55620888,1.14487613 1.50822005,1.16544277 1.46708678,1.1997205 C0.994054122,1.56991996 0.987198583,2.35830772 1.45337569,2.96159574 C1.91955279,3.56488376 2.68737391,3.7499835 3.16040657,3.37978403 C3.20153984,3.3455063 3.23581757,3.30437302 3.27009529,3.27009529 C2.79706264,3.5100394 2.12521917,3.31122857 1.70017533,2.76278491 Z"/>
            </g>
            <g transform="translate(22.638 26.202)">
              <path fill="#482998" fill-rule="nonzero" d="M4.68919325,1.70017533 C5.53242538,2.89304028 5.45015883,4.40126033 4.51094907,5.07310381 C3.56488376,5.73809175 2.11836362,5.31304792 1.2751315,4.12018296 C0.431899379,2.92731801 0.514165927,1.41909796 1.45337569,0.747254481 C2.39258545,0.0754110027 3.84596114,0.507310381 4.68919325,1.70017533 Z"/>
              <path fill="#331C6B" fill-rule="nonzero" d="M1.76187524,3.77055013 C0.994054122,2.68051837 1.00090967,1.34368695 1.71388643,0.603288022 C1.62476433,0.644421296 1.52878669,0.68555457 1.44652014,0.747254481 C0.500454836,1.41224241 0.425043833,2.92731801 1.26827596,4.12018296 C2.11150807,5.31304792 3.56488376,5.7449473 4.50409352,5.07310381 C4.58636007,5.0114039 4.66177107,4.9359929 4.73032653,4.86743745 C3.79797232,5.29933682 2.53655191,4.85372635 1.76187524,3.77055013 Z"/>
            </g>
            <path fill="#482998" fill-rule="nonzero" d="M25.507554,39.5324972 C26.5290303,40.5539736 26.8169632,41.9113716 26.1519753,42.569504 C25.4938429,43.2276364 24.1295893,42.9397034 23.1149686,41.9250827 C22.1003478,40.9036064 21.8055594,39.5462083 22.4705473,38.8880759 C23.1286797,38.2299436 24.4860777,38.5178765 25.507554,39.5324972 Z"/>
            <path fill="#572BA1" fill-rule="nonzero" d="M18.3879226,32.4866366 C18.6415778,32.8774027 18.6141557,33.3435797 18.3399338,33.521824 C18.0657119,33.7000681 17.6338126,33.5286795 17.3801574,33.1379134 C17.1265022,32.7471473 17.1539244,32.2809702 17.4281462,32.102726 C17.7092236,31.9244818 18.1342674,32.0958704 18.3879226,32.4866366 Z"/>
            <path fill="#482998" fill-rule="nonzero" d="M30.2012195,44.572515 C30.5988411,44.8330258 30.7770854,45.2649251 30.5988411,45.5322914 C30.420597,45.8065132 29.9544198,45.8202243 29.5567982,45.5597135 C29.1591766,45.2992028 28.9809323,44.8673035 29.1591766,44.5999371 C29.3374207,44.3257153 29.8035979,44.3120042 30.2012195,44.572515 Z"/>
            <path fill="#4F2DA7" fill-rule="nonzero" d="M78.7108323,13.3728001 C80.0775811,17.843234 63.5832508,26.8487996 41.8697146,33.4872938 C20.1561783,40.1257881 1.44591045,41.8833482 0.0791616414,37.4129142 C-0.623948726,35.1131439 3.39985037,31.6131573 10.4294205,27.8526607 C10.5114236,29.0917673 10.6853427,30.3069298 10.9444842,31.4915802 C8.16851423,32.9754605 6.67649631,34.1771719 6.89940653,34.9062783 C7.54373098,37.0137687 22.2748194,34.3825364 39.9200071,29.0250809 L40.4555902,28.8619014 C58.337326,23.3949062 72.3057327,17.2373153 71.6549,15.1085372 C71.1876964,13.5803834 63.3139722,14.5437489 52.2932531,17.2313781 L52.2929563,13.2825117 C66.8427821,10.1712915 77.6828176,10.0103155 78.7108323,13.3728001 Z"/>
          </g>
        </g>
        <mask id="error_illustration_fisdom-h" fill="#fff">
          <use xlink:href="#error_illustration_fisdom-g"/>
        </mask>
        <g fill-rule="nonzero" mask="url(#error_illustration_fisdom-h)">
          <g transform="translate(10.48 128.98)">
            <path fill="#5F40AF" d="M49.9795918,17.7346939 C48.1985059,12.6939142 44.9092974,8.13320873 40.2143275,4.82755459 C28.2175877,-3.62175233 11.6760079,-0.693299365 3.26873628,11.3702809 C1.86297495,13.3865927 0.78476967,15.5263523 0,17.7346939 L49.9795918,17.7346939 Z"/>
            <path fill="#7F66BF" d="M1.9514216,17.7346939 C2.57915163,16.4042024 3.30922894,15.1080018 4.17576931,13.866667 C12.5818932,1.80994497 29.1212147,-1.1253662 41.1163168,7.32394071 C45.01916,10.0740804 47.9462924,13.6952119 49.8431288,17.7346939 L49.9795918,17.7346939 C48.198749,12.6939142 44.9031664,8.13320873 40.2088375,4.82755459 C28.2137355,-3.62175233 11.6744139,-0.693299365 3.26829003,11.3702809 C1.86272062,13.3865927 0.777839382,15.5263523 0,17.7346939 L1.9514216,17.7346939 Z"/>
            <path fill="#482998" d="M21.6635244,11.2088172 C20.0867489,11.2910838 18.7636286,10.3450185 18.7019287,9.10416467 C18.6402287,7.86331092 19.8605159,6.78699024 21.4372914,6.70472369 C23.0140669,6.62245714 24.3371872,7.56852245 24.3988871,8.81623176 C24.460587,10.0570856 23.2334444,11.1265506 21.6635244,11.2088172 Z"/>
            <path fill="#331C6B" d="M21.4647135,7.35600053 C22.8975226,7.28058953 24.1109542,8.0621217 24.3714649,9.13844245 C24.385176,9.02875369 24.3988871,8.91906493 24.3988871,8.80937626 C24.3371872,7.56852245 23.0072114,6.62245714 21.4372914,6.69786815 C19.8605159,6.78013469 18.6402287,7.84959982 18.7019287,9.09730917 C18.7087842,9.20699785 18.7362064,9.31668661 18.7567731,9.41951978 C18.9007395,8.32948801 20.0319045,7.43141153 21.4647135,7.35600053 Z"/>
            <path fill="#482998" d="M13.5122806,14.712001 C12.5387931,15.1027672 11.4967501,14.7942676 11.1882506,14.0264465 C10.879751,13.2586254 11.4144836,12.3125601 12.3879711,11.921794 C13.3614586,11.5310278 14.4035015,11.8395274 14.712001,12.6073486 C15.0205006,13.3751696 14.4857681,14.3143794 13.5122806,14.712001 Z"/>
            <path fill="#331C6B" d="M12.5525042,12.3262712 C13.4368695,11.9697828 14.3760793,12.1960158 14.7668454,12.8198704 C14.7531343,12.751315 14.7394232,12.675904 14.712001,12.6073486 C14.4035015,11.8395274 13.3614586,11.5310278 12.3879711,11.921794 C11.4144836,12.3125601 10.8728955,13.2517698 11.1882506,14.0264465 C11.2156727,14.0950019 11.256806,14.1567019 11.2979393,14.2184018 C11.1471173,13.4917139 11.6681388,12.6827596 12.5525042,12.3262712 Z"/>
            <path fill="#482998" d="M19.9907713,16.7069649 C19.2298057,16.7412426 18.5853844,16.2887765 18.5579622,15.6854885 C18.53054,15.0822005 19.120117,14.5680346 19.8810825,14.5269013 C20.6420481,14.4926236 21.2864694,14.9450897 21.3138916,15.5483777 C21.3413138,16.1516657 20.7517368,16.6726871 19.9907713,16.7069649 Z"/>
            <path fill="#331C6B" d="M19.8947936,14.8422564 C20.5872037,14.8079787 21.1767806,15.1850337 21.3001805,15.7060552 C21.307036,15.6512108 21.3138916,15.603222 21.3138916,15.5483777 C21.2864694,14.9450897 20.6420481,14.4857681 19.8810825,14.5269013 C19.120117,14.5611791 18.5236845,15.0822005 18.5579622,15.6854885 C18.5579622,15.7403329 18.5716733,15.7883217 18.5853844,15.8431661 C18.6539398,15.3152891 19.2023835,14.8765342 19.8947936,14.8422564 Z"/>
            <path fill="#482998" d="M33.0917191,10.99637 C31.6314879,11.0031509 30.4386229,10.0707967 30.4317084,8.91220943 C30.4249118,7.75362218 31.6109212,6.81441242 33.0711524,6.80748215 C34.5313837,6.80070133 35.7242486,7.73305555 35.7311634,8.89164274 C35.7379597,10.05023 34.5588059,10.9894398 33.0917191,10.99637 Z"/>
            <path fill="#331C6B" d="M33.078008,7.41770045 C34.4079838,7.4108449 35.5048712,8.18552156 35.6968264,9.19328675 C35.7173931,9.09045358 35.7379597,8.99447592 35.7311042,8.89164274 C35.7242486,7.73305555 34.5382392,6.80070133 33.0711524,6.80755688 C31.6109212,6.81441242 30.4249118,7.75362218 30.4317084,8.91220943 C30.4317084,9.0150426 30.4523339,9.11787577 30.4729006,9.21385343 C30.6580004,8.20608816 31.7480321,7.42455599 33.078008,7.41770045 Z"/>
            <path fill="#482998" d="M27.2028053,5.79979166 C26.7366282,5.77922502 26.3732843,5.49814765 26.3869954,5.16908145 C26.4007065,4.84001527 26.7846171,4.58636007 27.2507941,4.60692671 C27.7169713,4.62749334 28.0803152,4.90857072 28.0666041,5.23763691 C28.0597486,5.5667031 27.6689824,5.82035829 27.2028053,5.79979166 Z M14.7531343,9.53606404 C14.3143794,9.71430828 13.8619134,9.61147511 13.7385135,9.30983102 C13.6151138,9.00818701 13.8756245,8.61742093 14.3143794,8.43917677 C14.7531343,8.26093254 15.2056004,8.36376571 15.3290001,8.6654098 C15.4524,8.97390931 15.1918893,9.35781989 14.7531343,9.53606404 Z M22.1022793,5.0114039 C20.6831814,5.25820355 19.4011943,4.71661544 19.2435167,3.79797232 C19.0789837,2.8793292 20.10046,1.92640834 21.5195579,1.6796087 C22.9386559,1.43280905 24.220643,1.97439716 24.3783205,2.89304028 C24.5359981,3.81853895 23.5213773,4.76460426 22.1022793,5.0114039 Z"/>
          </g>
        </g>
        <mask id="error_illustration_fisdom-j" fill="#fff">
          <use xlink:href="#error_illustration_fisdom-i"/>
        </mask>
        <path fill="#7F66BF" fill-rule="nonzero" d="M34.6632653,63.6836735 C34.6632653,65.0191898 33.5804142,66.1020408 32.244898,66.1020408 C30.9093817,66.1020408 29.8265306,65.0191898 29.8265306,63.6836735 C29.8265306,62.3481572 30.9093817,61.2653061 32.244898,61.2653061 C33.5804142,61.2743299 34.6632653,62.3571809 34.6632653,63.6836735 Z M14.5102041,39.5 C14.5102041,40.3909775 13.7889367,41.1122449 12.8979592,41.1122449 C12.0069817,41.1122449 11.2857143,40.3909775 11.2857143,39.5 C11.2857143,38.6090225 12.0069817,37.8877551 12.8979592,37.8877551 C13.7818654,37.8877551 14.5102041,38.6090225 14.5102041,39.5 Z" mask="url(#error_illustration_fisdom-j)"/>
        <mask id="error_illustration_fisdom-l" fill="#fff">
          <use xlink:href="#error_illustration_fisdom-k"/>
        </mask>
        <circle cx="92.704" cy="144.296" r="3.224" fill="#7F66BF" fill-rule="nonzero" mask="url(#error_illustration_fisdom-l)"/>
        <mask id="error_illustration_fisdom-n" fill="#fff">
          <use xlink:href="#error_illustration_fisdom-m"/>
        </mask>
        <path fill="#DFD8EF" fill-rule="nonzero" d="M58.0408163,120.918367 C58.0408163,121.810984 57.3211877,122.530612 56.4285714,122.530612 C55.5359552,122.530612 54.8163265,121.810984 54.8163265,120.918367 C54.8163265,120.025751 55.5359552,119.306122 56.4285714,119.306122 C57.3142682,119.306122 58.0408163,120.025751 58.0408163,120.918367 Z" mask="url(#error_illustration_fisdom-n)"/>
        <mask id="error_illustration_fisdom-p" fill="#fff">
          <use xlink:href="#error_illustration_fisdom-o"/>
        </mask>
        <circle cx="40.306" cy="26.602" r="1" fill="#DFD8EF" fill-rule="nonzero" mask="url(#error_illustration_fisdom-p)"/>
        <mask id="error_illustration_fisdom-r" fill="#fff">
          <use xlink:href="#error_illustration_fisdom-q"/>
        </mask>
        <path fill="#F6F2FF" fill-rule="nonzero" d="M68.6205075,63.3844268 C68.6342186,63.1787604 68.7918962,63.0142273 69.0044181,63.0005162 C69.4226064,62.9799496 69.8202281,62.9319608 70.1904275,62.8565498 C69.8202281,62.7811388 69.4226064,62.73315 69.0044181,62.7125833 C68.7987518,62.6988722 68.6342186,62.5411947 68.6205075,62.3286727 C68.5999409,61.9104845 68.5519521,61.5128629 68.4765411,61.1426634 C68.4011301,61.5128629 68.3531412,61.9104845 68.3325746,62.3286727 C68.3188635,62.5343391 68.161186,62.6988722 67.948664,62.7125833 C67.5304758,62.73315 67.1328541,62.7811388 66.7626547,62.8565498 C67.1328541,62.9319608 67.5304758,62.9799496 67.948664,63.0005162 C68.1543305,63.0142273 68.3188635,63.1719049 68.3325746,63.3844268 C68.3531412,63.8026151 68.4011301,64.2002367 68.4765411,64.5704362 C68.5519521,64.1933812 68.5999409,63.7957596 68.6205075,63.3844268 Z M27.2911143,99.6931915 C27.2979698,99.5149473 27.4419363,99.3709803 27.627036,99.3572698 C27.99038,99.3367032 28.3331573,99.29557 28.6553679,99.2338694 C28.3331573,99.1721696 27.9835244,99.1310363 27.627036,99.1104697 C27.4487918,99.1036145 27.3048254,98.9596483 27.2911143,98.774548 C27.2705477,98.4112045 27.2294144,98.0684267 27.1677144,97.7462163 C27.1060145,98.0684267 27.0648813,98.4180597 27.0443147,98.774548 C27.0374591,98.9527922 26.8934926,99.0967592 26.7083929,99.1104697 C26.345049,99.1310363 26.0022717,99.1721696 25.6800611,99.2338694 C26.0022717,99.29557 26.3519045,99.3367032 26.7083929,99.3572698 C26.8866371,99.364125 27.0306036,99.5080913 27.0443147,99.6931915 C27.0648813,100.056535 27.1060145,100.399313 27.1677144,100.721523 C27.2294144,100.406168 27.2705477,100.056535 27.2911143,99.6931915 Z M84.2317766,126.264389 C84.1769321,126.093 84.2591993,125.907901 84.4237321,125.83249 C84.7527985,125.681668 85.0612976,125.52399 85.3423755,125.345746 C85.0201644,125.40059 84.6773874,125.489713 84.3346096,125.599401 C84.1632215,125.654246 83.9781213,125.571979 83.9027102,125.407446 C83.7518887,125.07838 83.5942111,124.76988 83.415967,124.488803 C83.4708115,124.811013 83.5599332,125.153791 83.6696223,125.496568 C83.724466,125.667957 83.6421996,125.853056 83.4776668,125.928468 C83.1486004,126.07929 82.8401013,126.236967 82.5590234,126.415212 C82.8812345,126.360367 83.2240115,126.271245 83.5667885,126.161556 C83.7381774,126.106712 83.9232776,126.188978 83.9986879,126.353511 C84.1495102,126.682577 84.3071878,126.991077 84.4854319,127.272154 C84.4305874,126.943088 84.348321,126.607166 84.2317766,126.264389 Z M24.6901707,19.6958286 C24.6970263,19.5175844 24.8409927,19.373618 25.0260925,19.3599069 C25.3894364,19.3393402 25.7322137,19.2982069 26.0544243,19.236507 C25.7322137,19.1748071 25.3825809,19.1336738 25.0260925,19.1131072 C24.8478482,19.1062517 24.7038818,18.9622852 24.6901707,18.7771855 C24.6696041,18.4138416 24.6284708,18.0710643 24.5667709,17.7488536 C24.505071,18.0710643 24.4639377,18.4206971 24.4433711,18.7771855 C24.4365155,18.9554296 24.2925491,19.0993961 24.1074494,19.1131072 C23.7441054,19.1336738 23.4013282,19.1748071 23.0791175,19.236507 C23.4013282,19.2982069 23.750961,19.3393402 24.1074494,19.3599069 C24.2856935,19.3667624 24.42966,19.5107288 24.4433711,19.6958286 C24.4639377,20.0591725 24.505071,20.4019498 24.5667709,20.7241604 C24.6353264,20.4019498 24.6764596,20.052317 24.6901707,19.6958286 Z" mask="url(#error_illustration_fisdom-r)"/>
        <mask id="error_illustration_fisdom-t" fill="#fff">
          <use xlink:href="#error_illustration_fisdom-s"/>
        </mask>
        <text fill="#F5F2FD" font-family="AvenirNext-Regular, Avenir Next" font-size="8.061" mask="url(#error_illustration_fisdom-t)">
          <tspan x="41.918" y="86.194">Oops!</tspan>
        </text>
      </g>
      <polygon fill="#DFD8EF" fill-rule="nonzero" points="19.347 0 19.347 146.714 29.468 146.714 29.468 9.463 115.641 9.463 115.641 146.714 125.755 146.714 125.755 0"/>
      <polygon fill="#7F66BF" fill-rule="nonzero" points="21.765 1.612 21.765 146.714 31.424 146.714 31.424 11.391 113.678 11.391 113.678 146.714 123.337 146.714 123.337 1.612"/>
      <polygon fill="#482998" fill-rule="nonzero" points="27.408 146.714 32.855 146.714 32.855 11.452 113.053 11.452 113.053 146.714 117.694 146.714 117.694 8.061 27.408 8.061"/>
      <path fill="#DFD8EF" fill-rule="nonzero" d="M3.22445582,85.4489796 L3.22445582,85.4489796 C2.33692556,85.4489796 1.6122449,84.9563106 1.6122449,84.3529296 L1.6122449,73.6470702 C1.6122449,73.0436892 2.33692556,72.5510204 3.22445582,72.5510204 L3.22445582,72.5510204 C4.11198607,72.5510204 4.83666675,73.0436892 4.83666675,73.6470702 L4.83666675,84.3529296 C4.84480922,84.9563106 4.12012856,85.4489796 3.22445582,85.4489796 Z"/>
      <path fill="#4F2DA7" fill-rule="nonzero" d="M7.25510204,80.6122449 L1.28442648,80.6122449 C0.572269223,80.6122449 0,79.893918 0,79 L0,79 C0,78.106082 0.572269223,77.3877551 1.28442648,77.3877551 L7.25510204,77.3877551 L7.25510204,80.6122449 L7.25510204,80.6122449 Z"/>
      <polygon fill="#7F66BF" fill-rule="nonzero" points="10.48 156.388 29.827 146.669 29.827 11.331 10.48 1.612"/>
      <polygon fill="#DFD8EF" fill-rule="nonzero" points="27.408 76.582 12.898 76.339 12.898 7.255 27.408 14.261"/>
      <polygon fill="#DFD8EF" fill-rule="nonzero" points="27.408 143.015 12.898 149.939 12.898 80.859 27.408 80.612"/>
      <polygon fill="#DFD8EF" fill-rule="nonzero" points="7.255 155.151 10.48 156.388 10.48 1.612 7.255 2.849"/>
    </g>
    <g fill-rule="nonzero" transform="translate(229 133)">
      <path fill="#FAFCFF" d="M24.9422341,-4.97379907e-15 L3.7816041,8.49705213 C0.917450133,9.6471533 -0.476167691,12.8978707 0.665603557,15.7653555 L0.749812519,15.9768409 L0.749812519,15.9768409 C5.46889349,26.9590957 7.95495281,33.1375939 8.20799056,34.5123356 C8.46102831,35.8870773 7.51175433,37.4980703 5.3601686,39.3453148 L27.0663513,30.8144391 C29.5850106,29.824566 30.8243365,26.9803385 29.8344633,24.4616793 C29.8019551,24.3789645 29.7672025,24.2971493 29.7302441,24.2163248 C24.9375816,13.73521 22.3288849,7.6109535 21.9041541,5.84355525 C21.4194354,3.82653487 22.4321287,1.87868312 24.9422341,-4.97379907e-15 Z"/>
      <path fill="#D5CCE9" d="M15.3886664,22.0002218 L13.8219998,22.0002218 L13.8219998,21.1705922 C13.8219998,20.8710022 13.8497772,20.600223 13.9053331,20.3582466 C13.9608889,20.11627 14.0414437,19.8973422 14.1469998,19.7014565 C14.2525558,19.5055707 14.3803324,19.3183297 14.530333,19.139728 C14.6803338,18.9611263 14.8497766,18.7796467 15.0386664,18.5952836 L15.6553331,17.9903453 C15.8997787,17.7714142 16.1025544,17.532322 16.2636664,17.2730614 C16.4247783,17.0138008 16.505333,16.6825285 16.505333,16.2792343 C16.505333,15.7261451 16.3358903,15.2854087 15.9969997,14.9570121 C15.6581091,14.6286153 15.2220024,14.4644195 14.6886664,14.4644195 C14.1331081,14.4644195 13.6886681,14.6487798 13.3553331,15.0175059 C13.0219981,15.386232 12.8275556,15.8356102 12.7719998,16.365654 L11.1719998,16.1755305 C11.2386668,15.6800549 11.3775543,15.2335573 11.5886665,14.8360244 C11.7997786,14.4384916 12.0636649,14.1014579 12.3803331,13.8249133 C12.6970014,13.5483687 13.0608866,13.3380828 13.4719998,13.1940492 C13.8831129,13.0500155 14.3219998,12.9779998 14.7886664,12.9779998 C15.2553354,12.9779998 15.6914421,13.0471348 16.0969997,13.1854072 C16.5025573,13.3236794 16.860887,13.5282042 17.1719998,13.7989874 C17.4831123,14.0697706 17.7275544,14.4039237 17.905333,14.8014565 C18.0831117,15.1989893 18.1719998,15.6570095 18.1719998,16.1755305 C18.1719998,16.5442567 18.1331112,16.8668886 18.055333,17.1434318 C17.9775549,17.4199764 17.8692226,17.6705911 17.730333,17.8952837 C17.5914434,18.1199761 17.4219997,18.330262 17.2219997,18.5261478 C17.0219987,18.7220336 16.8053342,18.9236776 16.5719997,19.1310861 C16.3497764,19.3269718 16.1608894,19.5026902 16.0053331,19.6582466 C15.8497767,19.8138029 15.7275557,19.9722375 15.6386664,20.1335552 C15.5497771,20.2948728 15.4858888,20.4734719 15.4469998,20.6693576 C15.4081106,20.8652434 15.3886664,21.1072163 15.3886664,21.3952836 L15.3886664,22.0002218 Z M15.805333,24.4372588 C15.805333,24.7368488 15.6997786,25.0018667 15.4886664,25.2323205 C15.2775543,25.4627744 15.0108903,25.5779995 14.6886664,25.5779995 C14.3775538,25.5779995 14.1136675,25.465655 13.8969997,25.2409625 C13.680332,25.0162701 13.5719997,24.7541327 13.5719997,24.4545428 C13.5719997,24.1434301 13.6775543,23.8755315 13.8886664,23.6508391 C14.0997786,23.4261466 14.3664426,23.3138021 14.6886664,23.3138021 C15.0108903,23.3138021 15.2775543,23.423266 15.4886664,23.6421971 C15.6997786,23.8611283 15.805333,24.1261462 15.805333,24.4372588 Z" transform="rotate(-20 14.672 19.278)"/>
    </g>
  </g>
</svg>
