<svg width="114" height="76" viewBox="0 0 114 76" fill="none" xmlns="http://www.w3.org/2000/svg">
<path fill-rule="evenodd" clip-rule="evenodd" d="M43.0185 55.0807C45.5643 49.4253 47.9052 38.8667 47.297 35.4562C46.6889 32.0456 43.0432 35.3479 40.5932 32.1415C38.1432 28.935 42.9416 24.5492 41.3846 22.1044C39.8277 19.6595 34.9301 24.1281 32.5744 22.4009C30.2187 20.6736 32.1715 16.0136 29.9631 13.7296C27.7546 11.4455 26.3348 14.0461 23.6575 13.1788C21.3384 12.4276 17.1944 8.31054 15.5022 8.90579C13.8101 9.50104 16.4608 12.9392 15.6945 15.9799C14.9282 19.0206 12.3501 19.0969 12.5002 20.818C12.6502 22.539 17.2729 19.8562 16.4401 24.5309C15.6073 29.2056 10.4924 29.4144 11.3291 32.2718C12.1658 35.1292 18.2559 34.5785 20.1371 37.1568C22.0183 39.7351 15.5127 41.1059 18.848 45.2949C22.1832 49.4838 26.9103 48.9238 31.0288 50.8363C34.6214 52.5046 36.9261 55.3394 41.7327 55.823C42.0393 55.8539 42.8888 55.3688 43.0185 55.0807Z" fill="#331C6B"/>
<path d="M44.3383 37.1746C44.3383 37.1746 41.4684 39.8361 40.1257 42.3497C38.7831 44.8634 39.2378 49.72 39.2378 49.72L38.9408 49.2057C38.9408 49.2057 38.6842 44.334 39.9773 42.0926C41.2704 39.8512 44.3383 37.1746 44.3383 37.1746Z" fill="#4F2DA7"/>
<path d="M22.6361 43.5326C22.6361 43.5326 26.376 42.378 29.2242 42.472C32.0724 42.566 36.3082 45.2397 36.3082 45.2397L36.0113 44.7254C36.0113 44.7254 31.6634 42.2157 29.0757 42.2149C26.4881 42.214 22.6361 43.5326 22.6361 43.5326Z" fill="#4F2DA7"/>
<path d="M39.3776 23.2375C39.3776 23.2375 35.4791 26.4929 34.1364 29.0066C32.7937 31.5202 31.9626 37.1192 31.9626 37.1192L31.6657 36.6049C31.6657 36.6049 32.6948 30.9908 33.9879 28.7494C35.281 26.508 39.3776 23.2375 39.3776 23.2375Z" fill="#4F2DA7"/>
<path d="M13.3036 32.1196C13.3036 32.1196 18.0722 30.371 20.9204 30.4651C23.7687 30.5591 29.0331 32.6388 29.0331 32.6388L28.7361 32.1245C28.7361 32.1245 23.3596 30.2087 20.7719 30.2079C18.1843 30.2071 13.3036 32.1196 13.3036 32.1196Z" fill="#4F2DA7"/>
<path d="M28.5232 16.0007C28.5232 16.0007 26.5196 19.4519 26.2038 21.6687C25.8879 23.8854 26.7789 28.2426 26.7789 28.2426L26.4215 27.9427C26.4215 27.9427 25.6726 23.5211 26.025 21.5187C26.3775 19.5163 28.5232 16.0007 28.5232 16.0007Z" fill="#4F2DA7"/>
<path d="M13.9441 20.3513C13.9441 20.3513 16.9797 19.8086 18.6728 20.1651C20.3659 20.5216 23.2943 22.3201 23.2943 22.3201L23.171 21.9813C23.171 21.9813 20.1582 20.269 18.6111 19.9957C17.064 19.7224 13.9441 20.3513 13.9441 20.3513Z" fill="#4F2DA7"/>
<path d="M15.4991 8.90761L47.9467 64.2106L47.1753 64.656L15.4991 8.90761Z" fill="#4F2DA7"/>
<path d="M44.7457 59.7175C44.2413 54.7222 41.6088 46.3725 39.802 44.2276C37.9952 42.0827 36.776 45.8735 33.7605 44.6172C30.745 43.3609 32.3338 38.344 30.2527 37.2601C28.1716 36.1763 26.5467 41.2915 24.1961 41.0341C21.8455 40.7766 21.3284 36.7192 18.8556 36.0119C16.3828 35.3045 16.4401 37.7023 14.212 38.178C12.2821 38.59 7.71045 37.381 6.76507 38.4833C5.81968 39.5855 9.06969 40.923 9.76321 43.3649C10.4567 45.8068 8.6802 46.9038 9.48202 48.0496C10.2838 49.1955 12.4387 45.4435 13.747 49.0579C15.0553 52.6723 11.554 54.889 13.2971 56.5535C15.0402 58.2181 19.0869 55.367 21.4494 56.4131C23.8118 57.4593 19.8058 61.0535 23.8396 62.6402C27.8733 64.227 30.9607 61.9211 34.6221 61.5949C37.816 61.3103 40.5792 62.3648 44.1447 60.7583C44.3721 60.6559 44.7714 59.972 44.7457 59.7175Z" fill="url(#paint0_linear)"/>
<path fill-rule="evenodd" clip-rule="evenodd" d="M38.4233 46.6298C38.4233 46.6298 37.4886 49.6573 37.5647 51.963C37.6408 54.2687 39.9254 57.4895 39.9254 57.4895L39.5091 57.2491C39.5091 57.2491 37.3572 53.9376 37.3565 51.8428C37.3559 49.7481 38.4233 46.6298 38.4233 46.6298Z" fill="#7F66BF"/>
<path fill-rule="evenodd" clip-rule="evenodd" d="M25.7819 59.8715C25.7819 59.8715 27.9365 57.5483 29.9714 56.4613C32.0062 55.3744 36.058 55.5343 36.058 55.5343L35.6416 55.2939C35.6416 55.2939 31.5776 55.2943 29.7632 56.3411C27.9487 57.3879 25.7819 59.8715 25.7819 59.8715Z" fill="#7F66BF"/>
<path fill-rule="evenodd" clip-rule="evenodd" d="M29.3044 38.8669C29.3044 38.8669 27.8889 42.7271 27.965 45.0328C28.0411 47.3386 29.7247 51.6002 29.7247 51.6002L29.3084 51.3598C29.3084 51.3598 27.7575 47.0074 27.7568 44.9127C27.7562 42.8179 29.3044 38.8669 29.3044 38.8669Z" fill="#7F66BF"/>
<path fill-rule="evenodd" clip-rule="evenodd" d="M14.6197 55.6475C14.6197 55.6475 17.255 52.4916 19.2899 51.4046C21.3248 50.3177 25.8573 49.6449 25.8573 49.6449L25.4409 49.4045C25.4409 49.4045 20.8962 50.2376 19.0817 51.2844C17.2673 52.3312 14.6197 55.6475 14.6197 55.6475Z" fill="#7F66BF"/>
<path fill-rule="evenodd" clip-rule="evenodd" d="M18.7654 38.1868C18.7654 38.1868 18.7577 41.4173 19.4335 43.0992C20.1093 44.7811 22.4976 47.4752 22.4976 47.4752L22.1256 47.4096C22.1256 47.4096 19.8109 44.6129 19.2475 43.0664C18.6841 41.52 18.7654 38.1868 18.7654 38.1868Z" fill="#7F66BF"/>
<path fill-rule="evenodd" clip-rule="evenodd" d="M10.3054 47.138C10.3054 47.138 12.2139 45.5288 13.5451 45.0935C14.8764 44.6581 17.6574 44.7337 17.6574 44.7337L17.4338 44.5461C17.4338 44.5461 14.6286 44.565 13.4333 44.9997C12.2381 45.4343 10.3054 47.138 10.3054 47.138Z" fill="#7F66BF"/>
<path fill-rule="evenodd" clip-rule="evenodd" d="M6.76369 38.4858L51.8962 64.1234L51.5356 64.7479L6.76369 38.4858Z" fill="#7F66BF"/>
<path fill-rule="evenodd" clip-rule="evenodd" d="M94.7912 11.0579C95.4107 10.9823 96.0718 11.009 96.6479 11.2535C97.8728 11.7735 98.221 13.2206 98.2042 14.3969C98.1861 15.6629 97.9173 17.0457 98.8798 18.0658C99.3223 18.5347 99.8726 18.8936 100.307 19.3712C100.771 19.8815 101.136 20.4655 101.405 21.0926C101.9 22.2444 102.144 23.5989 101.691 24.8071C101.292 25.8709 100.289 26.8311 100.506 28.0407C100.732 29.3026 102.004 30.2673 102.799 31.2072C103.7 32.2708 104.528 33.6303 104.664 35.0252C104.795 36.362 104.213 37.714 103.32 38.7245C101.536 40.7437 98.8539 41.7335 96.1496 41.7274C95.0014 41.7247 93.7015 41.6729 92.7106 41.0559C92.4044 40.8652 92.2428 40.6512 92.0608 40.3538C91.8976 40.0871 91.682 39.9136 91.4324 39.7248C90.8841 39.3103 90.4881 38.7516 90.2354 38.1262C89.2541 35.6972 90.0384 32.6922 91.412 30.5352C91.7375 30.0241 92.004 29.5323 91.8458 28.9232C91.6808 28.2874 91.2753 27.7138 90.9166 27.1673C90.5621 26.6271 90.1575 26.1118 89.8804 25.5277C89.5903 24.9158 89.5086 24.2751 89.5599 23.6055C89.6562 22.3477 90.1992 21.187 90.9679 20.1754C91.7084 19.2011 92.5778 18.2687 92.5797 16.992C92.5818 15.6389 91.6772 14.4352 92.0626 13.0595C92.2222 12.4898 92.5427 11.9054 93.0592 11.5638C93.5546 11.2363 94.2086 11.1291 94.7912 11.0579Z" fill="#482998"/>
<path fill-rule="evenodd" clip-rule="evenodd" d="M94.3864 13.2211C94.398 13.0393 94.6136 12.9303 94.7833 12.9778C95.0067 13.0402 95.0024 13.2489 94.9965 13.4349C94.9784 14.0064 95.0611 14.5619 95.1985 15.1165C95.4841 16.2695 96.0118 17.3318 96.43 18.4394C96.8477 19.5461 97.0438 20.6886 96.7987 21.8596C96.5677 22.9637 96.2048 24.0392 95.9683 25.1447C95.7599 26.119 95.5382 27.1465 95.8555 28.1183C96.1609 29.0538 96.8361 29.8157 97.3222 30.6611C98.3287 32.4111 98.7752 34.3525 98.8349 36.3505C98.8626 37.2782 98.8376 38.2145 98.6224 39.1244C98.4985 39.6484 98.332 40.3565 97.8831 40.7182C97.676 40.885 97.3219 40.9427 97.1477 40.6957C96.9841 40.464 97.1276 40.1053 97.1795 39.8583C97.4045 38.7893 97.4497 37.6968 97.3959 36.6114C97.3437 35.56 97.2195 34.5103 96.8886 33.5061C96.5815 32.5743 96.1149 31.7373 95.5658 30.9221C95.0062 30.0914 94.4245 29.2589 94.1932 28.2746C93.9583 27.2748 94.1492 26.2576 94.4044 25.2769C94.6742 24.2397 95.0277 23.2322 95.3932 22.2231C95.7493 21.2398 95.8755 20.3094 95.6789 19.2802C95.2906 17.2469 94.251 15.3385 94.3864 13.2211Z" fill="#4F2DA7"/>
<path fill-rule="evenodd" clip-rule="evenodd" d="M111.147 13.5251C111.913 13.7579 112.675 14.1334 113.221 14.7223C114.383 15.9745 114.027 17.8671 113.385 19.2494C112.695 20.7372 111.649 22.2327 112.238 23.9398C112.509 24.7245 112.965 25.4353 113.222 26.2261C113.497 27.0712 113.616 27.9512 113.601 28.8331C113.573 30.4529 113.142 32.1812 111.972 33.3745C110.942 34.4252 109.258 35.0389 108.873 36.5822C108.471 38.1921 109.453 39.9948 109.89 41.5202C110.383 43.2464 110.637 45.2853 110.059 47.0058C109.506 48.6546 108.109 49.9508 106.527 50.6813C103.367 52.141 99.6981 51.9164 96.5294 50.5023C95.1842 49.9019 93.6869 49.1643 92.8508 47.9191C92.5924 47.5343 92.516 47.1972 92.4597 46.7507C92.4093 46.3504 92.2481 46.0331 92.0551 45.68C91.6311 44.9046 91.4619 44.0378 91.4961 43.1668C91.629 39.7836 94.1373 36.6378 96.8885 34.8015C97.5404 34.3664 98.1129 33.9235 98.2494 33.1208C98.3919 32.283 98.2194 31.3938 98.0876 30.5608C97.9574 29.7376 97.7551 28.9176 97.7389 28.0828C97.722 27.2082 97.9648 26.408 98.3789 25.6428C99.1567 24.2054 100.407 23.1151 101.843 22.3187C103.227 21.5516 104.739 20.9013 105.416 19.3925C106.134 17.7933 105.709 15.8992 106.889 14.4727C107.377 13.8821 108.062 13.3576 108.848 13.2224C109.602 13.0927 110.426 13.3062 111.147 13.5251Z" fill="#7F66BF"/>
<path fill-rule="evenodd" clip-rule="evenodd" d="M109.581 16.1695C109.69 15.9604 109.999 15.9443 110.173 16.0894C110.401 16.2804 110.287 16.5253 110.182 16.7424C109.862 17.4098 109.668 18.111 109.538 18.8398C109.268 20.3549 109.329 21.8895 109.238 23.4203C109.147 24.9498 108.777 26.4057 107.878 27.6639C107.029 28.8504 106.042 29.9337 105.186 31.1189C104.432 32.1636 103.635 33.2641 103.497 34.5814C103.364 35.8493 103.755 37.1053 103.88 38.3613C104.141 40.9612 103.646 43.4944 102.669 45.8917C102.216 47.0049 101.696 48.1006 100.968 49.0654C100.549 49.6209 99.9833 50.3722 99.2688 50.5653C98.9394 50.6543 98.4951 50.537 98.4207 50.1531C98.3508 49.793 98.7064 49.4435 98.8965 49.1782C99.7194 48.0302 100.344 46.7601 100.85 45.4464C101.34 44.174 101.744 42.8658 101.883 41.5033C102.012 40.2387 101.905 39.003 101.69 37.7498C101.47 36.4727 101.226 35.182 101.471 33.8951C101.72 32.5881 102.476 31.4834 103.288 30.4559C104.147 29.369 105.088 28.3612 106.044 27.3577C106.975 26.3799 107.61 25.3442 107.919 24.0224C108.53 21.411 108.314 18.606 109.581 16.1695Z" fill="#4F2DA7"/>
<path fill-rule="evenodd" clip-rule="evenodd" d="M87.4493 23.1302C88.7239 23.1302 89.8445 23.8059 90.6166 24.7646C91.5205 25.887 91.7031 27.2576 92.0701 28.5952C92.2528 29.2609 92.5669 29.9217 93.1174 30.374C93.6181 30.7853 94.2537 30.8676 94.853 31.0686C96.0507 31.4702 97.0179 32.4376 97.3998 33.6181C97.8658 35.058 97.3722 36.5101 97.4572 37.9694C97.5352 39.3095 98.8566 40.1456 99.9197 40.788C100.968 41.4215 101.912 42.0145 102.228 43.2486C102.563 44.5575 102.675 46.0185 102.211 47.3115C101.439 49.4644 99.1799 50.4124 96.9965 50.5594C95.0151 50.6928 92.5237 50.4834 91.0356 49.0451C90.1452 48.1844 89.8228 46.9807 89.8628 45.7831C89.8876 45.0384 90.0351 44.3006 90.2259 43.5809C90.361 43.0709 90.5437 42.563 90.5957 42.0359C90.734 40.6337 89.438 40.3643 88.3348 39.9793C86.9329 39.49 85.9515 38.5658 85.2691 37.2782C84.6335 36.0794 84.3669 34.7336 84.7479 33.4137C84.9424 32.7397 85.2954 32.1282 85.774 31.6081C85.9847 31.3792 86.2817 31.1882 86.4719 30.9477C86.6494 30.7231 86.6107 30.4321 86.5495 30.169C86.2667 28.9539 85.3854 27.9477 85.0702 26.7347C84.7857 25.6399 84.9539 24.2773 85.9549 23.5709C86.3873 23.2657 86.9207 23.1336 87.4493 23.1302Z" fill="#5F40AF"/>
<path fill-rule="evenodd" clip-rule="evenodd" d="M89.1861 26.2964C90.5371 27.7355 90.9043 29.6879 91.012 31.5803C91.0724 32.6415 91.0096 33.7608 91.3214 34.7901C91.5881 35.671 92.2135 36.3445 92.8581 36.9809C94.1557 38.2622 95.6028 39.5647 95.9823 41.419C96.205 42.5072 96.0547 43.6311 96.3624 44.7074C96.6422 45.6856 97.1349 46.6467 97.7341 47.4727C98.2165 48.1379 98.8451 48.6472 99.3725 49.2673C99.5334 49.4566 99.7638 49.7353 99.6974 50.0025C99.6197 50.3154 99.2211 50.4145 98.9383 50.3653C98.2789 50.2507 97.7238 49.6211 97.2927 49.1633C96.6622 48.494 96.1265 47.774 95.691 46.9664C95.2076 46.0696 94.8184 45.1179 94.6521 44.1117C94.4795 43.0678 94.5654 41.98 94.1713 40.9781C93.5081 39.2925 91.8996 38.2977 90.7367 36.9839C89.2878 35.3468 89.5039 33.3093 89.6523 31.2955C89.7338 30.1888 89.8148 28.9391 89.2556 27.9287C89.0422 27.543 88.5662 27.1833 88.4745 26.7449C88.3904 26.3432 88.8492 25.9373 89.1861 26.2964Z" fill="#4F2DA7"/>
<path fill-rule="evenodd" clip-rule="evenodd" d="M90.6268 49.9448C90.6269 58.1748 91.97 62.4871 99.0604 62.4871C106.151 62.4871 107.494 58.1748 107.494 49.9448H90.6268Z" fill="#331C6B"/>
<path fill-rule="evenodd" clip-rule="evenodd" d="M35.561 5.31262H83.1502V64.7991H35.561V5.31262Z" fill="#F0F0F0"/>
<g filter="url(#filter0_d)">
<rect x="34.5696" y="4.32117" width="47.5892" height="59.4865" fill="url(#paint1_linear)"/>
</g>
<rect x="41.5096" y="53.8933" width="33.709" height="0.991442" fill="#D3DBE4"/>
<path fill-rule="evenodd" clip-rule="evenodd" d="M62.33 48.936H75.2187V49.9275H62.33V48.936Z" fill="#D3DBE4"/>
<rect x="51.4241" y="48.936" width="8.92298" height="0.991442" fill="#D3DBE4"/>
<rect x="41.5096" y="48.936" width="7.93154" height="0.991442" fill="#D3DBE4"/>
<rect x="53.407" y="43.9789" width="23.7946" height="0.991442" fill="#B5B5B5"/>
<rect x="41.5096" y="43.9789" width="7.93154" height="0.991442" fill="#B5B5B5"/>
<rect x="51.6027" y="30.9614" width="13.2692" height="1.47436" rx="0.737179" fill="#FFDA2C"/>
<path fill-rule="evenodd" clip-rule="evenodd" d="M53.077 30.9614H63.3975V26.5383C63.3975 26.5383 62.2918 23.5896 58.2373 23.5896C54.1828 23.5896 53.077 26.5383 53.077 26.5383V30.9614Z" fill="#FFDA2C"/>
<path fill-rule="evenodd" clip-rule="evenodd" d="M54.5514 30.9614H61.9232C61.9232 30.9614 60.285 29.4871 58.2373 29.4871C56.1896 29.4871 54.5514 30.9614 54.5514 30.9614Z" fill="#B39712"/>
<path fill-rule="evenodd" clip-rule="evenodd" d="M53.077 17.6923H63.3975V22.2558C63.3975 22.2558 61.9232 25.0641 58.2373 25.0641C54.5514 25.0641 53.077 22.2558 53.077 22.2558V17.6923Z" fill="#FFDA2C"/>
<path fill-rule="evenodd" clip-rule="evenodd" d="M53.8142 20.641C53.8142 20.641 54.5514 19.9038 55.6572 19.9038C56.7629 19.9038 59.7116 21.0096 60.8174 21.0096C61.9232 21.0096 62.6604 20.641 62.6604 20.641V22.1153C62.6604 22.1153 60.8174 24.3269 58.2373 24.3269C55.6572 24.3269 53.8142 22.1153 53.8142 22.1153V20.641Z" fill="#FFF6CE"/>
<rect x="51.6027" y="16.2179" width="13.2692" height="1.47436" rx="0.737179" fill="#FFDA2C"/>
<rect x="57.5001" y="23.5897" width="1.47436" height="2.94872" rx="0.737179" fill="#FFF6CE"/>
<path fill-rule="evenodd" clip-rule="evenodd" d="M58.2373 28.75C58.6444 28.75 58.9745 28.4199 58.9745 28.0128C58.9745 27.6057 58.6444 27.2756 58.2373 27.2756C57.8302 27.2756 57.5001 27.6057 57.5001 28.0128C57.5001 28.4199 57.8302 28.75 58.2373 28.75Z" fill="#FFF6CE"/>
<path fill-rule="evenodd" clip-rule="evenodd" d="M93.8598 62.9264C93.9579 62.935 94.4946 62.9819 94.9075 63.1396C95.2642 63.2748 95.4031 63.445 95.3328 63.6467C95.2567 63.8417 94.932 63.9622 94.5258 64.0265C94.5163 64.2327 94.2371 64.3758 93.753 64.4152C93.5638 64.4299 93.3718 64.4367 93.1817 64.4367C92.9802 64.4367 92.7834 64.4288 92.5915 64.4175C92.8814 64.6046 93.1191 64.7973 93.2835 64.9933C94.0075 65.8565 93.341 66.6713 91.4046 67.291L92.0831 68.1001C92.3903 68.4664 91.6332 68.765 90.3975 68.765H87.5382C86.4926 68.765 85.4054 68.543 84.9268 68.2489C83.3219 68.3255 81.6185 68.3255 79.8889 68.2489C79.9074 68.543 79.1925 68.765 78.1431 68.765H75.2839C74.0482 68.765 72.7902 68.4664 72.483 68.1001L71.8045 67.291C70.2975 66.9766 69.036 66.6149 68.0446 66.2126L67.0048 66.2104H66.3964C65.1607 66.2104 63.9027 65.9117 63.5956 65.5455L62.452 64.182C62.1449 63.8157 62.902 63.5171 64.1377 63.5171H66.2555C66.6897 63.1599 67.4089 62.8432 68.3541 62.5784L67.0886 61.0695C67.0508 61.0245 67.1109 60.9828 67.2374 60.9659C67.3639 60.949 67.535 60.958 67.6727 60.9907L71.7363 61.9553C73.2675 61.7772 75.0151 61.6803 76.9009 61.6803C82.9578 61.6803 88.9148 62.6494 91.7913 63.9848C91.9213 64.0445 92.0436 64.1042 92.1593 64.1651C92.5212 64.2023 92.9812 64.2293 93.3796 64.1966C93.5184 64.1854 93.6222 64.1459 93.6605 64.0873C93.037 64.0873 92.4167 64.0051 92.0276 63.8766C91.964 63.8552 91.9042 63.8338 91.854 63.8101C91.4974 63.6433 91.4935 63.4709 91.8476 63.3582C92.1808 63.2523 92.7408 63.2309 93.2765 63.2985C93.2939 63.3008 93.3112 63.3029 93.3281 63.305C93.3528 63.308 93.3769 63.3109 93.4 63.3143C93.8759 63.3875 94.2049 63.5532 94.379 63.7245C94.4638 63.685 94.5277 63.6343 94.5528 63.569C94.6019 63.4326 94.5264 63.3199 94.3262 63.2444C94.1251 63.1678 93.8467 63.1441 93.8429 63.1441C93.7783 63.1396 93.7165 63.1295 93.6652 63.1182C93.5399 63.0912 93.4517 63.0495 93.4538 63.0066C93.456 62.9458 93.6311 62.9097 93.8496 62.9255C93.8522 62.9257 93.8556 62.926 93.8598 62.9264ZM92.8584 63.4844C92.6987 63.4844 92.5626 63.5036 92.4789 63.5306C92.416 63.5509 92.2941 63.605 92.4249 63.6929C92.4419 63.7042 92.4637 63.7166 92.4941 63.7301C92.6629 63.809 93.0723 63.8619 93.4829 63.8619C93.4896 63.8618 93.4967 63.8617 93.5043 63.8615C93.5564 63.8605 93.6303 63.859 93.7159 63.8541C93.633 63.6828 93.3761 63.5397 93.171 63.5081C93.0655 63.4912 92.9648 63.4844 92.8698 63.4844H92.8584Z" fill="url(#paint2_linear)"/>
<path fill-rule="evenodd" clip-rule="evenodd" d="M98.7565 49.488C98.8473 49.5163 99.3447 49.6712 99.6253 50.1919C99.8687 50.6384 99.8648 51.2002 99.6253 51.8662C99.3858 52.5098 98.9599 52.9079 98.4999 53.12C98.3174 53.8009 97.9181 54.2734 97.4011 54.4036C97.1995 54.452 97.0018 54.4743 96.8117 54.4743C96.6102 54.4743 96.4201 54.4482 96.2376 54.411C96.3707 55.0286 96.4467 55.6649 96.4467 56.3122C96.4467 59.1622 95.097 61.8521 92.6408 63.8984V66.5698C92.6408 67.779 91.6332 68.7649 90.3975 68.7649H87.5383C86.4927 68.7649 85.5916 68.032 85.3596 67.0609C83.6905 67.3139 81.9871 67.3139 80.3218 67.0609C80.0937 68.032 79.1926 68.7649 78.1432 68.7649H75.2839C74.0482 68.7649 73.0407 67.779 73.0407 66.5698V63.8984C71.7974 62.8604 70.8392 61.6661 70.1853 60.3379L69.1473 60.3304H68.5389C67.3032 60.3304 66.2957 59.3445 66.2957 58.1353V53.6334C66.2957 52.4243 67.3032 51.4383 68.5389 51.4383H70.6567C71.3905 50.2589 72.3753 49.2134 73.5426 48.3391V43.3573C73.5426 43.2085 73.6376 43.0708 73.7783 43.015C73.919 42.9592 74.0825 42.9889 74.1927 43.0968L77.4474 46.2816C79.1279 45.6938 80.9567 45.3738 82.8426 45.3738C88.8994 45.3738 94.0438 48.5735 95.8003 52.9823C95.8802 53.1795 95.9524 53.3767 96.0171 53.5776C96.3479 53.7004 96.7851 53.7897 97.2109 53.6818C97.3592 53.6446 97.4961 53.5144 97.5836 53.3209C96.96 53.3209 96.4087 53.0493 96.1273 52.6252C96.0817 52.5545 96.0399 52.4838 96.0095 52.4057C95.7927 51.855 95.9334 51.2858 96.3821 50.9137C96.8041 50.564 97.382 50.4933 97.8611 50.7165C97.8766 50.7241 97.892 50.731 97.9072 50.7379C97.9294 50.7478 97.9511 50.7576 97.9714 50.7686C98.3858 51.0105 98.5759 51.5574 98.6063 52.1229C98.7242 51.9927 98.8307 51.8253 98.9105 51.6095C99.074 51.1593 99.093 50.7872 98.9561 50.5379C98.8193 50.2849 98.5607 50.2068 98.5569 50.2068C98.4961 50.1919 98.4428 50.1584 98.401 50.1212C98.2984 50.0319 98.2451 49.8943 98.2832 49.7529C98.3364 49.552 98.5417 49.4329 98.747 49.485C98.7494 49.4858 98.7525 49.4868 98.7565 49.488ZM97.287 51.3304C97.1273 51.3304 96.9752 51.3937 96.8688 51.483C96.7889 51.5499 96.6216 51.7285 96.6786 52.0187C96.6862 52.0559 96.6977 52.0969 96.7167 52.1415C96.8193 52.4019 97.1843 52.5768 97.595 52.5768C97.6017 52.5763 97.609 52.5759 97.6167 52.5754C97.6697 52.5719 97.7449 52.567 97.8345 52.5508C97.8953 51.9852 97.7585 51.5127 97.5798 51.4085C97.4885 51.3527 97.3934 51.3304 97.2984 51.3304H97.287Z" fill="#F78780"/>
<path fill-rule="evenodd" clip-rule="evenodd" d="M98.7565 49.488C98.8473 49.5163 99.3447 49.6712 99.6253 50.1919C99.8687 50.6384 99.8648 51.2002 99.6253 51.8662C99.3858 52.5098 98.9599 52.9079 98.4999 53.12C98.3174 53.8009 97.9181 54.2734 97.4011 54.4036C97.1995 54.452 97.0018 54.4743 96.8117 54.4743C96.6102 54.4743 96.4201 54.4482 96.2376 54.411C96.3707 55.0286 96.4467 55.6649 96.4467 56.3122C96.4467 59.1622 95.097 61.8521 92.6408 63.8984V66.5698C92.6408 67.779 91.6332 68.7649 90.3975 68.7649H87.5383C86.4927 68.7649 85.5916 68.032 85.3596 67.0609C83.6905 67.3139 81.9871 67.3139 80.3218 67.0609C80.0937 68.032 79.1926 68.7649 78.1432 68.7649H75.2839C74.0482 68.7649 73.0407 67.779 73.0407 66.5698V63.8984C71.7974 62.8604 70.8392 61.6661 70.1853 60.3379L69.1473 60.3304H68.5389C67.3032 60.3304 66.2957 59.3445 66.2957 58.1353V53.6334C66.2957 52.4243 67.3032 51.4383 68.5389 51.4383H70.6567C71.3905 50.2589 72.3753 49.2134 73.5426 48.3391V43.3573C73.5426 43.2085 73.6376 43.0708 73.7783 43.015C73.919 42.9592 74.0825 42.9889 74.1927 43.0968L77.4474 46.2816C79.1279 45.6938 80.9567 45.3738 82.8426 45.3738C88.8994 45.3738 94.0438 48.5735 95.8003 52.9823C95.8802 53.1795 95.9524 53.3767 96.0171 53.5776C96.3479 53.7004 96.7851 53.7897 97.2109 53.6818C97.3592 53.6446 97.4961 53.5144 97.5836 53.3209C96.96 53.3209 96.4087 53.0493 96.1273 52.6252C96.0817 52.5545 96.0399 52.4838 96.0095 52.4057C95.7927 51.855 95.9334 51.2858 96.3821 50.9137C96.8041 50.564 97.382 50.4933 97.8611 50.7165C97.8766 50.7241 97.892 50.731 97.9072 50.7379C97.9294 50.7478 97.9511 50.7576 97.9714 50.7686C98.3858 51.0105 98.5759 51.5574 98.6063 52.1229C98.7242 51.9927 98.8307 51.8253 98.9105 51.6095C99.074 51.1593 99.093 50.7872 98.9561 50.5379C98.8193 50.2849 98.5607 50.2068 98.5569 50.2068C98.4961 50.1919 98.4428 50.1584 98.401 50.1212C98.2984 50.0319 98.2451 49.8943 98.2832 49.7529C98.3364 49.552 98.5417 49.4329 98.747 49.485C98.7494 49.4858 98.7525 49.4868 98.7565 49.488ZM97.287 51.3304C97.1273 51.3304 96.9752 51.3937 96.8688 51.483C96.7889 51.5499 96.6216 51.7285 96.6786 52.0187C96.6862 52.0559 96.6977 52.0969 96.7167 52.1415C96.8193 52.4019 97.1843 52.5768 97.595 52.5768C97.6017 52.5763 97.609 52.5759 97.6167 52.5754C97.6697 52.5719 97.7449 52.567 97.8345 52.5508C97.8953 51.9852 97.7585 51.5127 97.5798 51.4085C97.4885 51.3527 97.3934 51.3304 97.2984 51.3304H97.287Z" fill="url(#paint3_linear)"/>
<path fill-rule="evenodd" clip-rule="evenodd" d="M98.7565 49.488C98.8473 49.5163 99.3447 49.6712 99.6253 50.1919C99.8687 50.6384 99.8648 51.2002 99.6253 51.8662C99.3858 52.5098 98.9599 52.9079 98.4999 53.12C98.3174 53.8009 97.9181 54.2734 97.4011 54.4036C97.1995 54.452 97.0018 54.4743 96.8117 54.4743C96.6102 54.4743 96.4201 54.4482 96.2376 54.411C96.3707 55.0286 96.4467 55.6649 96.4467 56.3122C96.4467 59.1622 95.097 61.8521 92.6408 63.8984V66.5698C92.6408 67.779 91.6332 68.7649 90.3975 68.7649H87.5383C86.4927 68.7649 85.5916 68.032 85.3596 67.0609C83.6905 67.3139 81.9871 67.3139 80.3218 67.0609C80.0937 68.032 79.1926 68.7649 78.1432 68.7649H75.2839C74.0482 68.7649 73.0407 67.779 73.0407 66.5698V63.8984C71.7974 62.8604 70.8392 61.6661 70.1853 60.3379L69.1473 60.3304H68.5389C67.3032 60.3304 66.2957 59.3445 66.2957 58.1353V53.6334C66.2957 52.4243 67.3032 51.4383 68.5389 51.4383H70.6567C71.3905 50.2589 72.3753 49.2134 73.5426 48.3391V43.3573C73.5426 43.2085 73.6376 43.0708 73.7783 43.015C73.919 42.9592 74.0825 42.9889 74.1927 43.0968L77.4474 46.2816C79.1279 45.6938 80.9567 45.3738 82.8426 45.3738C88.8994 45.3738 94.0438 48.5735 95.8003 52.9823C95.8802 53.1795 95.9524 53.3767 96.0171 53.5776C96.3479 53.7004 96.7851 53.7897 97.2109 53.6818C97.3592 53.6446 97.4961 53.5144 97.5836 53.3209C96.96 53.3209 96.4087 53.0493 96.1273 52.6252C96.0817 52.5545 96.0399 52.4838 96.0095 52.4057C95.7927 51.855 95.9334 51.2858 96.3821 50.9137C96.8041 50.564 97.382 50.4933 97.8611 50.7165C97.8766 50.7241 97.892 50.731 97.9072 50.7379C97.9294 50.7478 97.9511 50.7576 97.9714 50.7686C98.3858 51.0105 98.5759 51.5574 98.6063 52.1229C98.7242 51.9927 98.8307 51.8253 98.9105 51.6095C99.074 51.1593 99.093 50.7872 98.9561 50.5379C98.8193 50.2849 98.5607 50.2068 98.5569 50.2068C98.4961 50.1919 98.4428 50.1584 98.401 50.1212C98.2984 50.0319 98.2451 49.8943 98.2832 49.7529C98.3364 49.552 98.5417 49.4329 98.747 49.485C98.7494 49.4858 98.7525 49.4868 98.7565 49.488ZM97.287 51.3304C97.1273 51.3304 96.9752 51.3937 96.8688 51.483C96.7889 51.5499 96.6216 51.7285 96.6786 52.0187C96.6862 52.0559 96.6977 52.0969 96.7167 52.1415C96.8193 52.4019 97.1843 52.5768 97.595 52.5768C97.6017 52.5763 97.609 52.5759 97.6167 52.5754C97.6697 52.5719 97.7449 52.567 97.8345 52.5508C97.8953 51.9852 97.7585 51.5127 97.5798 51.4085C97.4885 51.3527 97.3934 51.3304 97.2984 51.3304H97.287Z" fill="url(#paint4_linear)"/>
<path fill-rule="evenodd" clip-rule="evenodd" d="M75.0228 51.446C73.5445 51.446 73.0845 52.8634 73.0494 53.6149C73.0388 53.8291 73.1863 54.0121 73.3794 54.0238C73.3865 54.0238 73.3935 54.0238 73.4005 54.0238C73.5866 54.0238 73.7411 53.8641 73.7516 53.6539C73.7516 53.65 73.7516 53.6383 73.7552 53.6227C73.7727 53.4086 73.9202 52.2209 75.0263 52.2209C76.1675 52.2209 76.2097 53.4008 76.2132 53.5371C76.2132 53.541 76.2167 53.5448 76.2167 53.5487C76.2237 53.759 76.3747 53.9264 76.5643 53.9264C76.7574 53.9264 76.9155 53.7512 76.9155 53.5371C76.9084 52.8128 76.5151 51.446 75.0228 51.446Z" fill="#5C5C5C"/>
<path fill-rule="evenodd" clip-rule="evenodd" d="M68.6266 53.0554C68.2722 53.0554 67.9822 53.2211 67.9822 53.4237V57.8427C67.9822 58.0452 68.2722 58.2109 68.6266 58.2109C68.9811 58.2109 69.2711 58.0452 69.2711 57.8427V53.4237C69.2711 53.2211 68.9875 53.0554 68.6266 53.0554Z" fill="#A34842"/>
<path fill-rule="evenodd" clip-rule="evenodd" d="M80.9645 49.2019C81.2502 49.1403 83.8216 48.6105 86.397 49.4154C86.4372 49.4277 86.4774 49.4318 86.5137 49.4318C86.6867 49.4318 86.8436 49.3168 86.9 49.1403C86.9643 48.9226 86.8476 48.6927 86.6344 48.627C83.9181 47.7769 81.2904 48.282 80.7914 48.3929C80.5741 48.4422 80.4373 48.6598 80.4816 48.8816C80.5299 49.1115 80.7472 49.2511 80.9645 49.2019Z" fill="#B34E48"/>
<defs>
<filter id="filter0_d" x="33.5696" y="4.32117" width="49.5892" height="61.4865" filterUnits="userSpaceOnUse" color-interpolation-filters="sRGB">
<feFlood flood-opacity="0" result="BackgroundImageFix"/>
<feColorMatrix in="SourceAlpha" type="matrix" values="0 0 0 0 0 0 0 0 0 0 0 0 0 0 0 0 0 0 127 0"/>
<feOffset dy="1"/>
<feGaussianBlur stdDeviation="0.5"/>
<feColorMatrix type="matrix" values="0 0 0 0 0 0 0 0 0 0 0 0 0 0 0 0 0 0 0.0440444 0"/>
<feBlend mode="normal" in2="BackgroundImageFix" result="effect1_dropShadow"/>
<feBlend mode="normal" in="SourceGraphic" in2="effect1_dropShadow" result="shape"/>
</filter>
<linearGradient id="paint0_linear" x1="0.532837" y1="49.2487" x2="38.3215" y2="71.0659" gradientUnits="userSpaceOnUse">
<stop stop-color="#7F66BF"/>
<stop offset="1" stop-color="#4F2DA7"/>
</linearGradient>
<linearGradient id="paint1_linear" x1="35.8539" y1="62.4247" x2="81.2304" y2="62.4247" gradientUnits="userSpaceOnUse">
<stop stop-color="#F1F8FF"/>
<stop offset="1" stop-color="#FBFDFF"/>
</linearGradient>
<linearGradient id="paint2_linear" x1="50.4079" y1="61.3508" x2="50.596" y2="69.2331" gradientUnits="userSpaceOnUse">
<stop stop-opacity="0.01"/>
<stop offset="1" stop-opacity="0.105387"/>
</linearGradient>
<linearGradient id="paint3_linear" x1="74.6733" y1="55.8762" x2="74.6733" y2="68.7649" gradientUnits="userSpaceOnUse">
<stop stop-color="#EE817A" stop-opacity="0.01"/>
<stop offset="1" stop-color="#D86760"/>
</linearGradient>
<linearGradient id="paint4_linear" x1="70.7366" y1="42.9874" x2="70.7366" y2="61.9326" gradientUnits="userSpaceOnUse">
<stop stop-color="#FFBBB6"/>
<stop offset="1" stop-color="#D86760" stop-opacity="0.01"/>
</linearGradient>
</defs>
</svg>
