<?xml version="1.0" encoding="UTF-8"?>
<svg width="18px" height="19px" viewBox="0 0 18 19" version="1.1" xmlns="http://www.w3.org/2000/svg" xmlns:xlink="http://www.w3.org/1999/xlink">
    <!-- Generator: Sketch 50.2 (55047) - http://www.bohemiancoding.com/sketch -->
    <title>verify_personal_details_icon copy</title>
    <desc>Created with Sketch.</desc>
    <defs></defs>
    <g id="Page-1" stroke="none" stroke-width="1" fill="none" fill-rule="evenodd">
        <g id="verify_personal_details_icon-copy" stroke="#4F2DA7">
            <path d="M5.51421293,11.5773559 C2.64968194,12.8107779 0.709299153,15.4692241 0.515917686,18.5 C3.55357978,18.5 3.70470457,18.5 6.66666667,18.5 C10.3551136,18.5 10.3551136,18.5 13.8068182,18.5 C15.694957,18.5 15.8616911,18.5 17.4845594,18.5 C17.2907008,15.4692241 15.3503181,12.8107779 12.4857871,11.5773559 C11.510617,12.3501918 10.2875607,12.7831772 9,12.7831772 C7.71243933,12.7831772 6.48938297,12.3501918 5.51421293,11.5773559 Z" id="Combined-Shape" fill-rule="nonzero"></path>
            <path d="M9,0.5 C6.52459237,0.5 4.5,2.52459237 4.5,5 C4.5,7.47540763 6.52459237,9.5 9,9.5 C11.4754076,9.5 13.5,7.47540763 13.5,5 C13.5,2.52459237 11.4754076,0.5 9,0.5 Z" id="Combined-Shape"></path>
        </g>
    </g>
</svg>