<svg width="80" height="61" viewBox="0 0 80 61" fill="none" xmlns="http://www.w3.org/2000/svg">
<rect y="0.821045" width="80" height="60" rx="4" fill="#F6F2FF"/>
<mask id="mask0" mask-type="alpha" maskUnits="userSpaceOnUse" x="0" y="0" width="80" height="61">
<rect y="0.821045" width="80" height="60" rx="4" fill="white"/>
</mask>
<g mask="url(#mask0)">
<path d="M57.2414 16.2747H22.7586C21.2352 16.2747 20 17.5099 20 19.0333V25.2402H60V19.0333C60 17.5099 58.7648 16.2747 57.2414 16.2747Z" fill="#A38CEB"/>
<path d="M60 25.2402V46.6195C60 48.143 58.7648 49.3781 57.2414 49.3781H22.7586C21.2352 49.3781 20 48.143 20 46.6195V25.2402H60Z" fill="#DFD8EF"/>
<path d="M28.2759 14.8954V19.0334C28.2759 20.1761 27.3497 21.1024 26.2069 21.1024C25.0641 21.1024 24.1379 20.1762 24.1379 19.0334V14.8954C24.1379 13.7527 25.0641 12.8264 26.2069 12.8264C27.3497 12.8264 28.2759 13.7526 28.2759 14.8954Z" fill="#DFD8EF"/>
<path d="M55.8621 14.8954V19.0334C55.8621 20.1761 54.9359 21.1024 53.7931 21.1024C52.6503 21.1024 51.7241 20.1762 51.7241 19.0334V14.8954C51.7241 13.7527 52.6503 12.8264 53.7931 12.8264C54.9359 12.8264 55.8621 13.7526 55.8621 14.8954Z" fill="#DFD8EF"/>
<path fill-rule="evenodd" clip-rule="evenodd" d="M31.0298 36.736C31.0298 41.6419 35.0067 45.6188 39.9125 45.6188C44.8184 45.6188 48.7953 41.6418 48.7953 36.736C48.7953 31.8301 44.8184 27.8532 39.9125 27.8532C35.0067 27.8532 31.0298 31.8302 31.0298 36.736ZM32.2987 36.736C32.2987 32.5313 35.7078 29.1222 39.9125 29.1222C44.1172 29.1222 47.5263 32.5313 47.5263 36.736C47.5263 40.9407 44.1172 44.3498 39.9125 44.3498C35.7078 44.3498 32.2987 40.9406 32.2987 36.736Z" fill="#F6F2FF"/>
<path d="M39.9126 38.005C39.5623 38.005 39.2781 37.7207 39.2781 37.3704V31.4555C39.2781 31.1052 39.5623 30.821 39.9126 30.821C40.2628 30.821 40.5471 31.1052 40.5471 31.4555V37.3704C40.5471 37.7207 40.2628 38.005 39.9126 38.005Z" fill="#F6F2FF"/>
<path d="M45.2534 38.005H39.9126C39.5623 38.005 39.2781 37.7207 39.2781 37.3705C39.2781 37.0202 39.5623 36.736 39.9126 36.736H45.2534C45.6037 36.736 45.8879 37.0202 45.8879 37.3705C45.8879 37.7207 45.6037 38.005 45.2534 38.005Z" fill="#F6F2FF"/>
</g>
</svg>
