<svg width="80" height="61" viewBox="0 0 80 61" fill="none" xmlns="http://www.w3.org/2000/svg">
<rect y="0.821045" width="80" height="60" rx="4" fill="#F6F2FF"/>
<path d="M57 14.821C57 12.6119 55.2091 10.821 53 10.821L26.0001 10.821C23.791 10.821 22.0001 12.6119 22.0001 14.821L22 47.2057C22 49.4148 23.7909 51.2057 26 51.2057H53C55.2091 51.2057 57 49.4148 57 47.2057V14.821Z" fill="#DFD8EF"/>
<path fill-rule="evenodd" clip-rule="evenodd" d="M27.3845 43.1288H44.4358V44.4749H27.3845V43.1288ZM46.2627 43.1288H48.6986V44.4749H46.2627V43.1288ZM52.9614 45.8211H27.3845V47.1672H52.9614V45.8211Z" fill="#A998D2"/>
<path fill-rule="evenodd" clip-rule="evenodd" d="M27.3845 36.3979H44.4358V37.7441H27.3845V36.3979ZM46.2627 36.3979H48.6986V37.7441H46.2627V36.3979ZM52.9614 39.0903H27.3845V40.4364H52.9614V39.0903Z" fill="#A998D2"/>
</svg>
