<svg width="40" height="38" viewBox="0 0 40 38" fill="none" xmlns="http://www.w3.org/2000/svg">
<path fill-rule="evenodd" clip-rule="evenodd" d="M12 3H40V33L35 38H12V3Z" fill="#F0EBFE"/>
<path fill-rule="evenodd" clip-rule="evenodd" d="M13 10H37V12H13V10Z" fill="#FAF7FB"/>
<path fill-rule="evenodd" clip-rule="evenodd" d="M17 17H37V19H17V17Z" fill="#FAF7FB"/>
<path fill-rule="evenodd" clip-rule="evenodd" d="M17 24H37V26H17V24Z" fill="#FAF7FB"/>
<rect width="30" height="34" fill="#E3DBF4"/>
<path fill-rule="evenodd" clip-rule="evenodd" d="M25 10H27V12H25V10Z" fill="#EDE9F4"/>
<path fill-rule="evenodd" clip-rule="evenodd" d="M21 10H23V12H21V10Z" fill="#EDE9F4"/>
<path fill-rule="evenodd" clip-rule="evenodd" d="M17 10H19V12H17V10Z" fill="#EDE9F4"/>
<path fill-rule="evenodd" clip-rule="evenodd" d="M15 4H3V18H15V4ZM13 16H5V6H13V16Z" fill="#6041AF"/>
<path fill-rule="evenodd" clip-rule="evenodd" d="M3 21H27V23H3V21Z" fill="#EDE9F4"/>
<path fill-rule="evenodd" clip-rule="evenodd" d="M3 26H23V28H3V26Z" fill="#EDE9F4"/>
</svg>
