<svg width="129" height="134" viewBox="0 0 129 134" fill="none" xmlns="http://www.w3.org/2000/svg">
<g clip-path="url(#clip0)">
<path d="M-51.4163 82.3266C-51.3781 82.1477 -51.3418 81.9687 -51.2996 81.7918C-49.9789 75.7092 -47.8207 69.8478 -44.6116 64.465C-44.5049 64.2861 -44.3981 64.1071 -44.2894 63.9281C-42.1733 60.4649 -39.6414 57.2729 -36.7498 54.4233C-35.1513 52.8468 -33.4078 51.3488 -31.3342 50.269C-28.4291 48.7529 -25.0327 48.1376 -21.6947 47.6349C-18.2279 47.1101 -14.7128 46.6718 -11.2077 46.1992C-9.96219 46.0344 -8.72404 45.8594 -7.49329 45.6744C-4.10699 45.1738 -0.744873 44.5947 2.53673 43.8265C6.59343 42.8795 10.5253 41.6388 14.2397 39.8935C14.5364 39.7594 14.8296 39.6173 15.1195 39.4672C15.4094 39.3224 15.7014 39.1756 15.9872 39.0268C16.2731 38.8781 16.555 38.7293 16.8348 38.5764C16.9798 38.498 17.1247 38.4196 17.2677 38.3372C17.4106 38.2547 17.5515 38.1823 17.6904 38.1019C18.1092 37.8687 18.5199 37.6294 18.9306 37.3881L18.9467 37.378C19.2185 37.2192 19.4863 37.0563 19.752 36.8934C21.27 35.9725 22.7558 35.0114 24.2416 34.0442L25.1757 33.4409L26.6232 32.5059C26.9051 32.323 27.193 32.14 27.4769 31.959C27.6782 31.8263 27.8795 31.6936 28.099 31.5569C29.1539 30.8933 30.2229 30.2418 31.3201 29.6205C31.5799 29.4717 31.8416 29.3229 32.1053 29.1781C34.3221 27.9429 36.6404 26.8989 39.0349 26.0574L39.0671 26.0454C40.2718 25.6256 41.5008 25.2792 42.7474 25.0078C43.4661 24.851 44.1868 24.7223 44.9156 24.6237C46.8638 24.3479 48.8391 24.3202 50.7943 24.5413C54.6336 24.9857 58.2313 26.4576 62.0685 26.9542C69.9685 27.9596 77.641 24.7203 85.0699 22.1827C86.8966 21.5593 88.7367 20.9755 90.5902 20.4313C91.8223 20.0674 93.0584 19.7235 94.3046 19.3917C101.94 17.377 109.732 16.0122 117.598 15.3119C120.886 14.9901 124.194 14.9168 127.493 15.0927C128.747 15.1691 129.987 15.2938 131.205 15.4949C135.373 16.1383 139.258 17.4875 142.395 19.9588C144.964 21.9876 146.802 24.6318 148.201 27.3986C149.634 30.2218 150.645 33.2391 151.203 36.3545C151.28 36.7788 151.348 37.2051 151.404 37.6314C151.505 38.3606 151.58 39.0939 151.63 39.8312C151.901 43.761 151.431 47.7067 150.245 51.4634C148.916 55.6699 146.701 59.7076 145.727 63.9462C145.687 64.1259 145.649 64.3048 145.612 64.4831C145.479 65.1269 145.38 65.7773 145.316 66.4315C144.819 71.6394 146.726 76.7166 148.221 81.8099C148.274 81.9868 148.326 82.1658 148.376 82.3447C148.538 82.9104 148.692 83.4755 148.84 84.0398C150.225 89.4246 150.609 95.1895 149.375 100.564C149.337 100.743 149.291 100.922 149.246 101.099C148.42 104.497 146.866 107.675 144.692 110.415C142.381 113.311 139.347 115.721 136.106 117.839C134.526 118.871 132.893 119.835 131.205 120.732C129.998 121.376 128.76 121.985 127.493 122.56C117.336 127.185 105.75 129.443 94.2926 128.944C93.6886 128.918 93.0846 128.886 92.4806 128.842C91.8767 128.797 91.2163 128.745 90.5842 128.687C83.2036 127.971 76.0223 126.244 68.8914 124.356C66.5017 123.722 64.116 123.073 61.7323 122.435C60.6713 122.154 59.6123 121.872 58.5514 121.599C53.3552 120.258 48.0825 119.043 42.7433 118.136C41.5072 117.923 40.2697 117.729 39.0309 117.553C34.7297 116.922 30.3937 116.555 26.0474 116.453C24.3577 116.42 22.6672 116.435 20.9761 116.498C20.1225 116.528 19.2682 116.575 18.4132 116.636C9.58511 117.258 1.05295 119.337 -7.49329 121.279C-8.72942 121.561 -9.96756 121.838 -11.2077 122.112C-12.8344 122.47 -14.4611 122.815 -16.0959 123.135C-26.2688 125.132 -35.3365 123.984 -44.7948 119.864C-46.9449 118.929 -49.093 117.799 -50.4097 116.043C-51.7264 114.288 -52.0565 112.132 -52.3022 110.051C-52.6505 107.087 -52.878 104.085 -52.9645 101.067C-52.9645 100.89 -52.9645 100.711 -52.9766 100.532C-53.1135 94.4355 -52.6585 88.2805 -51.4163 82.3266Z" fill="#F8F5FF"/>
<path d="M-4.18066 54.0357C-2.94555 54.4107 -1.71885 55.0158 -0.838402 55.9646C1.03372 57.9822 0.459305 61.0316 -0.574181 63.2589C-1.6866 65.6561 -3.37234 68.0657 -2.42206 70.8162C-1.98529 72.0807 -1.25081 73.2259 -0.836479 74.5001C-0.393806 75.8617 -0.202744 77.2797 -0.227085 78.7006C-0.272152 81.3105 -0.966366 84.0952 -2.85115 86.018C-4.51063 87.7108 -7.22409 88.6996 -7.84464 91.1862C-8.49203 93.7802 -6.90932 96.6849 -6.2066 99.1426C-5.41129 101.924 -5.00276 105.209 -5.93339 107.981C-6.82513 110.638 -9.07622 112.726 -11.6245 113.903C-16.716 116.255 -22.6276 115.893 -27.733 113.615C-29.9006 112.648 -32.3131 111.459 -33.6602 109.453C-34.0765 108.833 -34.1996 108.29 -34.2903 107.57C-34.3716 106.925 -34.6314 106.414 -34.9423 105.845C-35.6255 104.596 -35.898 103.199 -35.843 101.796C-35.6288 96.3446 -31.5873 91.2759 -27.1545 88.3171C-26.1041 87.6161 -25.1817 86.9024 -24.9618 85.6092C-24.7321 84.2592 -25.0101 82.8265 -25.2225 81.4843C-25.4323 80.1579 -25.7581 78.8367 -25.7843 77.4916C-25.8115 76.0825 -25.4203 74.7932 -24.7531 73.5602C-23.4998 71.2442 -21.4852 69.4875 -19.1709 68.2044C-16.9418 66.9683 -14.5048 65.9206 -13.4138 63.4894C-12.2573 60.9128 -12.9418 57.8609 -11.0419 55.5625C-10.2552 54.6108 -9.15169 53.7657 -7.8847 53.5479C-6.66961 53.339 -5.34227 53.683 -4.18066 54.0357Z" fill="#F5F2FD"/>
<path d="M44.779 101.867C46.6043 82.6396 144.538 45.5296 162.719 63.741C180.9 81.9524 176.298 120.258 138.197 129.01C100.096 137.762 42.9537 121.093 44.779 101.867Z" fill="#FDFCFF"/>
<path d="M34.2139 6.52393L43.2495 13.2919L39.1054 15.2691L70.486 81.0132L104.458 49.436L110.805 93.2618L123.09 83.3777L123.902 84.3871L109.848 95.6945L103.53 52.0674L70.0764 83.1628L37.9364 15.8271L33.7935 17.8053L34.2139 6.52393Z" fill="#DFD8EF"/>
<path d="M-51.9995 132.727L188 132.273" stroke="#DFD8EF"/>
<path fill-rule="evenodd" clip-rule="evenodd" d="M43.7189 75.9703L72.2147 75.6989C82.5302 75.6007 90.9722 83.8834 91.0704 94.1988C91.071 94.2581 91.0713 94.3174 91.0713 94.3767V131.872H79.2761H22.0005V97.8965C22.0005 85.8679 31.6908 76.0848 43.7189 75.9703Z" fill="#E4DAFF"/>
<path d="M56.6893 86.6586C56.6016 86.6586 56.5139 86.7463 56.4262 86.7463C56.3385 86.7463 56.2508 86.6586 56.1631 86.6586H56.6893Z" fill="#84DBFF"/>
<path d="M68.969 75.5193C68.969 75.5193 68.969 75.5193 68.969 75.607C68.969 76.4841 68.5305 82.0975 56.6898 86.5706H56.1635C44.3228 82.0975 43.8843 76.4841 43.8843 75.607C43.8843 75.5193 43.8843 75.5193 43.8843 75.5193C43.8843 74.3791 44.1474 73.2389 44.4105 72.0987C47.8312 76.3964 51.9535 79.2908 56.4267 79.2908C60.8998 79.2908 65.0221 76.3964 68.4428 72.0987C68.7059 73.2389 68.969 74.3791 68.969 75.5193Z" fill="#D4B69E"/>
<path d="M68.9685 75.5201C68.9685 75.5201 69.5825 81.8352 56.4261 86.7469C56.4261 86.7469 66.507 87.35 69.5892 94.1925C69.6167 94.2537 69.6058 94.3776 69.6702 94.3776C69.7346 94.3776 69.7346 94.3071 69.812 94.1378C70.7038 92.1883 75.1826 78.9904 68.9685 75.5201ZM43.8837 75.5201C37.1301 79.2916 43.0066 94.553 43.1821 94.2899C46.2519 87.2731 56.4261 86.6592 56.4261 86.6592C43.2698 81.8352 43.8837 75.5201 43.8837 75.5201Z" fill="#492E8E"/>
<path d="M74.8453 53.3293C74.056 58.7673 71.6878 63.8544 67.7409 67.7136C66.9515 68.503 66.2499 69.1169 65.3728 69.7309L63.9694 65.2577H48.8835L47.4802 69.7309C44.6735 67.6259 38.797 61.7494 38.7093 56.2237C36.2534 24.7362 60.3734 31.4021 60.3734 31.4021C76.5995 30.2619 76.0733 44.5584 74.8453 53.3293Z" fill="#D4B69E"/>
<path d="M78.0906 59.0304C76.8627 61.0477 75.1962 62.4511 73.6175 62.9773C74.2314 61.574 74.7577 60.0829 75.1962 58.5919C75.1962 58.5919 75.1962 58.5919 75.1962 58.5042C75.5471 57.1885 75.8979 55.8729 76.2487 54.5573H76.161C76.5119 53.2416 76.8627 51.926 77.1258 50.6104C77.4767 50.6104 77.8275 50.7858 78.1783 50.9612C80.1079 52.1891 80.0202 55.7852 78.0906 59.0304ZM39.2356 62.9773C37.6568 62.4511 35.9903 61.0477 34.7624 59.0304C32.7451 55.7852 32.7451 52.1891 34.6747 51.0489C34.8501 50.9612 34.9378 50.8735 35.1132 50.8735C36.1657 54.9958 37.3937 58.0656 37.6568 58.6796C38.0953 60.0829 38.6216 61.574 39.2356 62.9773Z" fill="#E3D2C8"/>
<path d="M65.9868 22.6308C66.6885 14.5616 53.883 15.0878 53.883 15.0878C34.4993 17.8945 32.3943 35.9626 32.3943 35.9626L35.0256 32.8051C30.9032 41.8391 37.1306 57.3636 37.6568 58.5915C40.9021 69.3797 48.0942 79.2908 56.4265 79.2908C64.7589 79.2908 71.951 69.3797 75.1963 58.5915C75.1963 58.5915 75.1963 58.5915 75.1963 58.5038C75.5471 57.1881 75.8979 55.8725 76.161 54.5569H76.0733C77.8275 47.5402 79.7571 40.4357 79.7571 40.4357C84.7565 15.2633 65.9868 22.6308 65.9868 22.6308ZM74.8454 53.3289C74.056 58.7669 71.6879 63.854 67.741 67.7132C66.9516 68.5026 66.1622 69.1166 65.3729 69.7305L63.9695 65.3451H48.8836L47.4802 69.8182C44.6735 67.7132 42.3054 64.8188 40.3758 61.4859C39.4987 59.7317 38.9725 57.8898 38.7093 56.3111C36.2535 24.8235 60.3734 31.4894 60.3734 31.4894C76.5996 30.2615 76.0733 44.5581 74.8454 53.3289Z" fill="#324A5E"/>
<path d="M65.9868 22.6308C66.6885 14.5616 53.883 15.0878 53.883 15.0878C34.4993 17.8945 32.3943 35.9626 32.3943 35.9626L35.0256 32.8051C30.9032 41.8391 37.1306 57.3636 37.6568 58.5915C40.9021 69.3797 48.0942 79.2908 56.4265 79.2908C64.7589 79.2908 71.951 69.3797 75.1963 58.5915C75.1963 58.5915 75.1963 58.5915 75.1963 58.5038C75.5471 57.1881 75.8979 55.8725 76.161 54.5569H76.0733C77.8275 47.5402 79.7571 40.4357 79.7571 40.4357C84.7565 15.2633 65.9868 22.6308 65.9868 22.6308ZM74.8454 53.3289C74.056 58.7669 71.6879 63.854 67.741 67.7132C66.9516 68.5026 66.1622 69.1166 65.3729 69.7305L63.9695 65.3451H48.8836L47.4802 69.8182C44.6735 67.7132 42.3054 64.8188 40.3758 61.4859C39.4987 59.7317 38.9725 57.8898 38.7093 56.3111C36.2535 24.8235 60.3734 31.4894 60.3734 31.4894C76.5996 30.2615 76.0733 44.5581 74.8454 53.3289Z" fill="#324A5E"/>
<path d="M65.9868 22.6308C66.6885 14.5616 53.883 15.0878 53.883 15.0878C34.4993 17.8945 32.3943 35.9626 32.3943 35.9626L35.0256 32.8051C30.9032 41.8391 37.1306 57.3636 37.6568 58.5915C40.9021 69.3797 48.0942 79.2908 56.4265 79.2908C64.7589 79.2908 71.951 69.3797 75.1963 58.5915C75.1963 58.5915 75.1963 58.5915 75.1963 58.5038C75.5471 57.1881 75.8979 55.8725 76.161 54.5569H76.0733C77.8275 47.5402 79.7571 40.4357 79.7571 40.4357C84.7565 15.2633 65.9868 22.6308 65.9868 22.6308ZM74.8454 53.3289C74.056 58.7669 71.6879 63.854 67.741 67.7132C66.9516 68.5026 66.1622 69.1166 65.3729 69.7305C64.5368 67.1179 62.1081 65.3451 59.365 65.3451H53.5717C50.782 65.3451 48.3153 67.1564 47.4802 69.8182C44.6735 67.7132 38.797 61.8367 38.7093 56.3111C36.2535 24.8235 60.3734 31.4894 60.3734 31.4894C76.5996 30.2615 76.0733 44.5581 74.8454 53.3289Z" fill="#324A5E"/>
<path d="M50.2869 68.3272C51.7779 69.9936 53.9706 71.1339 56.4265 71.1339C58.8823 71.1339 61.0751 70.0814 62.5661 68.3272H50.2869Z" fill="white"/>
<path d="M56.6455 101.955C57.1978 101.955 57.6455 101.507 57.6455 100.955C57.6455 100.403 57.1978 99.9551 56.6455 99.9551C56.0932 99.9551 55.6455 100.403 55.6455 100.955C55.6455 101.507 56.0932 101.955 56.6455 101.955Z" fill="#492E8E"/>
<path d="M56.6455 96.0341C57.1978 96.0341 57.6455 95.5864 57.6455 95.0341C57.6455 94.4818 57.1978 94.0341 56.6455 94.0341C56.0932 94.0341 55.6455 94.4818 55.6455 95.0341C55.6455 95.5864 56.0932 96.0341 56.6455 96.0341Z" fill="#492E8E"/>
<path d="M56.6455 90.1141C57.1978 90.1141 57.6455 89.6664 57.6455 89.1141C57.6455 88.5619 57.1978 88.1141 56.6455 88.1141C56.0932 88.1141 55.6455 88.5619 55.6455 89.1141C55.6455 89.6664 56.0932 90.1141 56.6455 90.1141Z" fill="#492E8E"/>
<path d="M54.2007 86.9215V103.066C54.2007 104.398 55.2806 105.478 56.6127 105.478H59.2439" stroke="#492E8E" stroke-width="0.644"/>
<path d="M34.535 101.832L34.5005 131.5M78.5822 101.832L78.5005 131.5L78.5822 101.832Z" stroke="#555555" stroke-linecap="round" stroke-linejoin="round"/>
</g>
<g clip-path="url(#clip1)">
<rect x="99" width="30" height="30" rx="15" fill="#35CB5D"/>
<path fill-rule="evenodd" clip-rule="evenodd" d="M121.486 9.1206C122.225 8.38837 123.422 8.38837 124.16 9.1206C124.899 9.85283 124.899 11.04 124.16 11.7723L112.816 23.0223C112.078 23.7545 110.88 23.7545 110.142 23.0223L103.839 16.7723C103.101 16.04 103.101 14.8528 103.839 14.1206C104.578 13.3884 105.775 13.3884 106.513 14.1206L111.479 19.0448L121.486 9.1206Z" fill="white"/>
</g>
<defs>
<clipPath id="clip0">
<rect width="111" height="132" fill="white" transform="translate(0 2)"/>
</clipPath>
<clipPath id="clip1">
<rect width="30" height="30" fill="white" transform="translate(99)"/>
</clipPath>
</defs>
</svg>
