<svg width="70" height="60" viewBox="0 0 70 60" fill="none" xmlns="http://www.w3.org/2000/svg">
<path d="M26.3036 20.7107L38.7623 17.3099L38.1026 15.9763C37.6709 15.1095 36.618 14.7515 35.7512 15.1832L24.598 20.7107H26.3036Z" fill="#6041AF"/>
<path d="M42.6296 17.4082C42.4752 17.4082 42.3208 17.4293 42.1663 17.4714L39.2395 18.2715L30.3007 20.7107H40.4467H44.8687L44.3212 18.7032C44.1106 17.9206 43.4017 17.4082 42.6296 17.4082Z" fill="#6041AF"/>
<path d="M46.6971 21.939H46.297H45.753H45.209H41.0573H25.8014H23.801H22.1164H21.8041H20.7583C20.2038 21.939 19.7089 22.1952 19.386 22.5988C19.2386 22.7848 19.1263 22.9988 19.0632 23.234C19.0246 23.3814 19 23.5358 19 23.6937V23.9043V25.9047V43.2452C19 44.2139 19.7861 45 20.7548 45H46.6936C47.6622 45 48.4483 44.2139 48.4483 43.2452V38.3494H38.0356C36.3896 38.3494 35.0525 37.0123 35.0525 35.3664V33.759V33.215V32.6711V31.4638C35.0525 30.6566 35.3753 29.9231 35.8983 29.3862C36.3616 28.9089 36.9827 28.586 37.6776 28.5053C37.7934 28.4913 37.9128 28.4842 38.0321 28.4842H46.9884H47.5323H48.0763H48.4483V23.6937C48.4518 22.7251 47.6657 21.939 46.6971 21.939Z" fill="#E3DBF4"/>
<path d="M49.68 30.1618C49.5045 30.0004 49.2974 29.8775 49.0658 29.7968C48.8868 29.7372 48.6973 29.7021 48.4972 29.7021H48.4516H48.4165H47.8726H45.9107H38.0354C37.0667 29.7021 36.2806 30.4882 36.2806 31.4568V32.3307V32.8747V33.4186V35.3629C36.2806 36.3315 37.0667 37.1177 38.0354 37.1177H48.4516H48.4972C48.6973 37.1177 48.8868 37.0826 49.0658 37.0229C49.2974 36.9457 49.5045 36.8193 49.68 36.6579C50.0309 36.3385 50.252 35.8753 50.252 35.3629V31.4568C50.252 30.9444 50.0309 30.4811 49.68 30.1618ZM41.6993 33.759C41.6993 34.2434 41.3063 34.6364 40.8219 34.6364H40.2394C39.7551 34.6364 39.362 34.2434 39.362 33.759V33.1765C39.362 32.8957 39.4918 32.6465 39.6989 32.4886C39.8498 32.3728 40.0359 32.2991 40.2394 32.2991H40.3868H40.8219C41.3063 32.2991 41.6993 32.6921 41.6993 33.1765V33.759Z" fill="#F0EBFE"/>
</svg>
