<svg width="320" height="200" viewBox="0 0 320 200" fill="none" xmlns="http://www.w3.org/2000/svg">
<path d="M314.571 98.0269C314.512 97.7663 314.456 97.5057 314.392 97.2481C312.366 88.392 309.055 79.858 304.133 72.0207C303.969 71.7602 303.805 71.4996 303.639 71.239C300.393 66.1966 296.509 61.5492 292.073 57.4001C289.621 55.1049 286.947 52.9238 283.766 51.3516C279.31 49.1442 274.1 48.2483 268.98 47.5164C263.662 46.7523 258.27 46.1141 252.894 45.4261C250.983 45.186 249.084 44.9313 247.196 44.662C242.002 43.933 236.845 43.0899 231.811 41.9715C225.588 40.5926 219.557 38.7862 213.86 36.2451C213.405 36.0499 212.955 35.843 212.51 35.6244C212.065 35.4136 211.618 35.1999 211.179 34.9832C210.741 34.7666 210.308 34.55 209.879 34.3275C209.657 34.2133 209.434 34.0991 209.215 33.9791C208.996 33.859 208.78 33.7536 208.566 33.6365C207.924 33.2969 207.294 32.9485 206.664 32.5972L206.639 32.5826C206.223 32.3513 205.812 32.1142 205.404 31.877C203.076 30.5362 200.797 29.1368 198.518 27.7286L197.085 26.8503L194.864 25.4889C194.432 25.2225 193.99 24.9561 193.555 24.6926C193.246 24.4994 192.937 24.3062 192.601 24.1071C190.982 23.141 189.343 22.1924 187.66 21.2878C187.261 21.0711 186.86 20.8545 186.455 20.6437C183.055 18.8453 179.499 17.3252 175.826 16.1L175.776 16.0825C173.929 15.4714 172.043 14.9669 170.131 14.5718C169.029 14.3434 167.923 14.1561 166.805 14.0126C163.817 13.6109 160.787 13.5706 157.788 13.8926C151.899 14.5396 146.38 16.6826 140.494 17.4057C128.376 18.8696 116.607 14.1532 105.212 10.4585C102.41 9.55092 99.5873 8.70093 96.7442 7.90851C94.8542 7.3786 92.9581 6.87799 91.0465 6.39493C79.3349 3.46149 67.3821 1.47432 55.3165 0.454758C50.2727 -0.0137939 45.1989 -0.120468 40.1382 0.135651C38.2142 0.246902 36.3119 0.428406 34.4436 0.721176C28.0511 1.65802 22.0909 3.62247 17.2796 7.22052C13.3391 10.1745 10.5196 14.0243 8.37334 18.0527C6.17628 22.1633 4.62505 26.5563 3.76889 31.0924C3.65154 31.7102 3.54654 32.3308 3.46007 32.9515C3.30566 34.0132 3.19037 35.0808 3.1142 36.1543C2.69868 41.876 3.41937 47.6209 5.23885 53.0906C7.27704 59.2152 10.674 65.0939 12.1687 71.2654C12.2304 71.5269 12.2891 71.7875 12.3447 72.0471C12.5488 72.9844 12.7004 73.9314 12.7987 74.8839C13.5614 82.4665 10.637 89.8588 8.34245 97.2745C8.26216 97.5321 8.18187 97.7927 8.10467 98.0532C7.85761 98.8769 7.62085 99.6995 7.39439 100.521C5.26973 108.361 4.6799 116.755 6.57294 124.58C6.63161 124.841 6.70264 125.102 6.77058 125.359C8.03791 130.306 10.4211 134.933 13.756 138.923C17.3012 143.139 21.9551 146.649 26.927 149.732C29.3502 151.235 31.8557 152.639 34.4436 153.945C36.2965 154.881 38.1947 155.769 40.1382 156.606C55.7179 163.339 73.4903 166.627 91.065 165.901C91.9915 165.863 92.9179 165.816 93.8444 165.752C94.7708 165.687 95.7837 165.611 96.7534 165.526C108.075 164.484 119.09 161.969 130.028 159.22C133.694 158.298 137.353 157.352 141.01 156.424C142.637 156.014 144.262 155.605 145.889 155.206C153.86 153.254 161.948 151.485 170.137 150.165C172.034 149.855 173.932 149.572 175.832 149.316C182.43 148.397 189.081 147.862 195.748 147.715C198.34 147.666 200.933 147.687 203.527 147.779C204.836 147.824 206.146 147.891 207.458 147.981C220.999 148.886 234.087 151.913 247.196 154.741C249.092 155.151 250.992 155.555 252.894 155.953C255.389 156.474 257.884 156.978 260.392 157.443C275.996 160.35 289.906 158.679 304.414 152.68C307.712 151.319 311.007 149.673 313.027 147.117C315.046 144.562 315.553 141.423 315.929 138.393C316.464 134.078 316.813 129.707 316.945 125.312C316.945 125.055 316.945 124.794 316.964 124.534C317.174 115.657 316.476 106.696 314.571 98.0269Z" fill="#F8F5FF"/>
<path d="M104.094 66.2058C107.243 36.6146 276.177 -20.4995 307.539 7.52871C338.901 35.5569 308.75 88.1584 243.027 101.628C177.304 115.098 100.946 95.797 104.094 66.2058Z" fill="#FBF9FF"/>
<path d="M120.066 134.547C122.884 110.167 274.062 63.1104 302.128 86.2029C330.194 109.296 323.09 157.868 264.274 168.966C205.459 180.064 117.248 158.928 120.066 134.547Z" fill="#F5F2FD"/>
<path d="M199.934 134.547C197.116 110.167 45.9377 63.1104 17.8718 86.2029C-10.194 109.296 -3.08998 157.868 55.7256 168.966C114.541 180.064 202.752 158.928 199.934 134.547Z" fill="#F5F2FD"/>
<ellipse cx="160" cy="184" rx="150" ry="12" fill="#FCFAFF"/>
<ellipse cx="49" cy="186" rx="20" ry="4" fill="#F4F2FB"/>
<ellipse cx="283" cy="185" rx="21" ry="4" fill="#F4F2FB"/>
<path d="M41.646 98.0646C42.7157 97.934 43.8573 97.9801 44.852 98.4023C46.9672 99.3002 47.5684 101.799 47.5394 103.83C47.5082 106.016 47.0439 108.404 48.706 110.165C49.47 110.975 50.4203 111.595 51.1705 112.419C51.9721 113.301 52.6011 114.309 53.0668 115.392C53.9219 117.381 54.3415 119.719 53.5596 121.806C52.8711 123.643 51.139 125.301 51.5133 127.389C51.9037 129.568 54.1005 131.234 55.4739 132.857C57.0283 134.694 58.4594 137.041 58.6945 139.45C58.92 141.758 57.9152 144.092 56.3732 145.837C53.2923 149.324 48.6612 151.033 43.9916 151.023C42.009 151.018 39.7643 150.928 38.0534 149.863C37.5247 149.534 37.2457 149.164 36.9313 148.651C36.6495 148.19 36.2772 147.891 35.8462 147.565C34.8995 146.849 34.2157 145.884 33.7794 144.804C32.0849 140.61 33.4392 135.421 35.811 131.697C36.3731 130.814 36.8332 129.965 36.5602 128.913C36.2753 127.815 35.575 126.825 34.9556 125.881C34.3436 124.948 33.6448 124.059 33.1665 123.05C32.6655 121.994 32.5244 120.887 32.6129 119.731C32.7793 117.559 33.7168 115.555 35.0443 113.808C36.3228 112.126 37.824 110.516 37.8274 108.311C37.8311 105.975 36.269 103.896 36.9345 101.521C37.21 100.537 37.7635 99.5279 38.6553 98.9382C39.5107 98.3726 40.6401 98.1875 41.646 98.0646Z" fill="#D5CCEB"/>
<path d="M40.9471 101.8C40.9672 101.486 41.3394 101.298 41.6324 101.38C42.0181 101.488 42.0107 101.848 42.0005 102.169C41.9693 103.156 42.1122 104.115 42.3494 105.073C42.8425 107.064 43.7538 108.898 44.4758 110.811C45.1971 112.721 45.5357 114.694 45.1125 116.716C44.7136 118.623 44.0869 120.48 43.6786 122.389C43.3188 124.071 42.9359 125.845 43.4839 127.523C44.0112 129.139 45.177 130.454 46.0165 131.914C47.7543 134.936 48.5253 138.288 48.6284 141.738C48.6762 143.34 48.6332 144.957 48.2615 146.528C48.0476 147.433 47.7602 148.655 46.9849 149.28C46.6274 149.568 46.016 149.668 45.7151 149.241C45.4326 148.841 45.6804 148.222 45.7701 147.795C46.1585 145.949 46.2366 144.063 46.1436 142.189C46.0536 140.373 45.8391 138.561 45.2677 136.827C44.7374 135.218 43.9317 133.772 42.9835 132.365C42.0173 130.93 41.0128 129.493 40.6136 127.793C40.2079 126.067 40.5375 124.31 40.9781 122.617C41.4441 120.826 42.0545 119.086 42.6855 117.344C43.3004 115.646 43.5184 114.039 43.1789 112.262C42.5083 108.751 40.7132 105.456 40.9471 101.8Z" fill="#CEC4E3"/>
<path d="M69.8878 102.325C71.2115 102.727 72.5261 103.375 73.4696 104.392C75.4759 106.554 74.8603 109.822 73.7528 112.209C72.5606 114.778 70.7541 117.36 71.7725 120.308C72.2405 121.663 73.0277 122.89 73.4717 124.256C73.9461 125.715 74.1509 127.235 74.1248 128.758C74.0765 131.554 73.3325 134.539 71.3126 136.599C69.5342 138.414 66.6262 139.473 65.9612 142.138C65.2674 144.918 66.9636 148.031 67.7167 150.665C68.569 153.645 69.0068 157.166 68.0095 160.137C67.0538 162.984 64.6414 165.222 61.9105 166.483C56.454 169.004 50.1187 168.616 44.6474 166.174C42.3244 165.138 39.739 163.864 38.2954 161.714C37.8492 161.049 37.7173 160.467 37.6201 159.696C37.5329 159.005 37.2546 158.457 36.9214 157.848C36.1892 156.509 35.8972 155.012 35.9561 153.508C36.1857 147.666 40.5168 142.234 45.2674 139.063C46.393 138.312 47.3815 137.547 47.6172 136.161C47.8634 134.715 47.5655 133.179 47.3379 131.741C47.113 130.319 46.7638 128.903 46.7358 127.462C46.7066 125.952 47.1259 124.57 47.8408 123.249C49.184 120.767 51.343 118.884 53.8232 117.509C56.2121 116.184 58.8237 115.061 59.9929 112.456C61.2322 109.695 60.4987 106.424 62.5348 103.961C63.3779 102.941 64.5605 102.035 65.9183 101.802C67.2205 101.578 68.6429 101.947 69.8878 102.325Z" fill="#D9D1EC"/>
<path d="M67.184 106.891C67.3718 106.53 67.9056 106.502 68.2054 106.753C68.5999 107.082 68.4025 107.505 68.2224 107.88C67.669 109.033 67.3337 110.243 67.1096 111.502C66.6435 114.118 66.7484 116.768 66.5909 119.411C66.4336 122.052 65.7963 124.566 64.2425 126.739C62.7776 128.787 61.0722 130.658 59.5951 132.705C58.2932 134.508 56.9163 136.409 56.6782 138.683C56.4488 140.873 57.123 143.041 57.3401 145.21C57.7895 149.7 56.9353 154.074 55.2491 158.213C54.466 160.135 53.5689 162.027 52.3115 163.693C51.5876 164.653 50.6111 165.95 49.3774 166.283C48.8086 166.437 48.0414 166.234 47.913 165.572C47.7922 164.95 48.4064 164.346 48.7346 163.888C50.1554 161.906 51.2348 159.713 52.1077 157.444C52.9533 155.247 53.6517 152.988 53.8917 150.636C54.1142 148.452 53.9291 146.318 53.5575 144.154C53.179 141.949 52.7573 139.72 53.1806 137.498C53.6104 135.241 54.9156 133.334 56.3177 131.56C57.8006 129.683 59.4254 127.943 61.0759 126.21C62.6842 124.521 63.7804 122.733 64.3142 120.451C65.3688 115.942 64.9957 111.098 67.184 106.891Z" fill="#CEC4E3"/>
<path d="M28.9684 118.91C31.1694 118.91 33.1043 120.077 34.4376 121.732C35.9984 123.67 36.3136 126.037 36.9474 128.347C37.2628 129.496 37.8052 130.637 38.7557 131.418C39.6203 132.129 40.7178 132.271 41.7527 132.618C43.8208 133.311 45.4908 134.982 46.1504 137.02C46.955 139.506 46.1027 142.014 46.2495 144.533C46.3842 146.848 48.6658 148.291 50.5015 149.401C52.3116 150.494 53.9423 151.518 54.4875 153.649C55.0656 155.909 55.2596 158.432 54.4588 160.665C53.1257 164.382 49.224 166.019 45.454 166.273C42.0326 166.503 37.7306 166.142 35.1611 163.658C33.6236 162.172 33.0668 160.094 33.1359 158.026C33.1788 156.74 33.4335 155.466 33.7629 154.223C33.9963 153.342 34.3117 152.465 34.4015 151.555C34.6403 149.134 32.4024 148.669 30.4975 148.004C28.0769 147.159 26.3822 145.563 25.2038 143.34C24.1064 141.27 23.646 138.946 24.3038 136.667C24.6398 135.503 25.2492 134.447 26.0757 133.549C26.4395 133.154 26.9523 132.824 27.2807 132.409C27.5872 132.021 27.5205 131.519 27.4149 131.064C26.9264 128.966 25.4047 127.229 24.8605 125.134C24.3692 123.244 24.6596 120.891 26.388 119.671C27.1348 119.144 28.0557 118.916 28.9684 118.91Z" fill="#DFD8EF"/>
<path d="M31.9675 124.377C34.3002 126.862 34.9343 130.234 35.1204 133.501C35.2246 135.334 35.1161 137.266 35.6544 139.044C36.1151 140.565 37.1949 141.728 38.308 142.827C40.5486 145.039 43.0474 147.288 43.7027 150.49C44.0872 152.369 43.8277 154.31 44.359 156.168C44.8422 157.857 45.6928 159.517 46.7275 160.943C47.5605 162.092 48.6459 162.971 49.5565 164.042C49.8343 164.369 50.2323 164.85 50.1177 165.311C49.9835 165.852 49.2952 166.023 48.8068 165.938C47.6682 165.74 46.7097 164.653 45.9653 163.862C44.8766 162.707 43.9516 161.463 43.1997 160.069C42.3649 158.52 41.6928 156.877 41.4057 155.14C41.1077 153.337 41.256 151.459 40.5755 149.729C39.4304 146.818 36.653 145.1 34.6449 142.832C32.143 140.005 32.5161 136.487 32.7724 133.009C32.9131 131.099 33.0531 128.941 32.0875 127.196C31.7189 126.53 30.8971 125.909 30.7386 125.152C30.5934 124.458 31.3857 123.757 31.9675 124.377Z" fill="#D8CFEB"/>
<path d="M34.4552 165.212C34.4552 179.423 36.7744 186.869 49.0177 186.869C61.261 186.869 63.5802 179.423 63.5802 165.212H34.4552Z" fill="white"/>
<path opacity="0.4" d="M170.606 192.619C210.115 192.619 250.406 190.089 250.406 185.257C250.406 180.424 209.154 174.951 170.606 174.951C132.058 174.951 94.6062 181.165 94.6062 185.257C94.6062 189.349 131.097 192.619 170.606 192.619Z" fill="url(#paint0_linear)"/>
<rect x="112.274" y="32" width="106.008" height="146.163" fill="#331C6B"/>
<mask id="mask0" mask-type="alpha" maskUnits="userSpaceOnUse" x="112" y="32" width="107" height="147">
<rect x="112.274" y="32" width="106.008" height="146.163" fill="white"/>
</mask>
<g mask="url(#mask0)">
<path opacity="0.64" d="M200.901 117.094L197.398 120.598C197.268 120.728 197.063 120.728 196.933 120.598C196.803 120.468 196.803 120.263 196.933 120.133L198.791 118.276C198.921 118.146 198.921 117.934 198.791 117.798C198.661 117.668 198.449 117.668 198.313 117.798L195.601 120.509C195.472 120.639 195.267 120.639 195.137 120.509C195.007 120.379 195.007 120.174 195.137 120.045L197.152 118.03C197.281 117.9 197.281 117.682 197.152 117.552C197.022 117.422 196.803 117.422 196.674 117.552L187.207 127.018L187.221 127.032C185.964 128.288 186.019 130.351 187.371 131.546C188.608 132.632 190.499 132.495 191.667 131.327L202.465 120.53C202.643 120.352 202.643 120.065 202.465 119.881C202.288 119.703 202.001 119.703 201.816 119.881L199.528 122.169C199.399 122.299 199.194 122.299 199.064 122.169C198.934 122.039 198.934 121.834 199.064 121.704L200.614 120.154C200.758 120.011 200.758 119.771 200.614 119.628C200.471 119.485 200.232 119.485 200.088 119.628L197.527 122.189C197.398 122.319 197.193 122.319 197.063 122.189C196.933 122.059 196.933 121.855 197.063 121.725L201.304 117.484C201.413 117.374 201.413 117.197 201.304 117.087C201.181 116.985 201.004 116.985 200.901 117.094Z" fill="url(#paint1_linear)"/>
<path d="M191.039 127.578C191.947 128.486 191.947 129.955 191.039 130.856C190.131 131.765 188.662 131.765 187.761 130.856C186.852 129.948 186.852 128.479 187.761 127.578C188.662 126.67 190.131 126.67 191.039 127.578Z" fill="#F5F2FD"/>
</g>
<mask id="mask1" mask-type="alpha" maskUnits="userSpaceOnUse" x="112" y="32" width="107" height="147">
<rect x="112.274" y="32" width="106.008" height="146.163" fill="white"/>
</mask>
<g mask="url(#mask1)">
<path d="M195.394 86.6099C201.383 86.6099 206.65 85.0786 211.054 81.7913C211.054 76.9727 211.054 46.4552 211.054 40.8336C206.761 37.8271 201.096 36.015 195.394 36.015C180.979 36.015 169.294 47.3411 169.294 61.3124C169.294 75.2838 180.979 86.6099 195.394 86.6099Z" fill="#5F40AF"/>
<path d="M195.394 86.6099C201.383 86.6099 206.65 85.0786 211.054 81.7913C183.749 92.2315 171.703 71.119 171.703 60.9109C171.703 50.7027 182.143 29.5903 211.054 40.8336C206.761 37.8271 201.096 36.015 195.394 36.015C180.979 36.015 169.294 47.3411 169.294 61.3124C169.294 75.2838 180.979 86.6099 195.394 86.6099Z" fill="#7F66BF"/>
<path d="M192.087 74.6256C193.05 75.8618 193.043 77.4873 192.059 78.2522C191.083 79.0172 189.505 78.6279 188.542 77.3917C187.579 76.1555 187.586 74.53 188.569 73.7651C189.546 73.007 191.117 73.3894 192.087 74.6256Z" fill="#482998"/>
<path d="M189.054 76.9887C188.173 75.8618 188.119 74.4207 188.849 73.6012C188.754 73.649 188.651 73.6968 188.569 73.7719C187.593 74.5368 187.579 76.1555 188.542 77.3985C189.505 78.6347 191.083 79.024 192.059 78.2591C192.148 78.1908 192.216 78.1088 192.292 78.0269C191.308 78.5254 189.928 78.1157 189.054 76.9887Z" fill="#331C6B"/>
<path d="M197.19 79.2769C198.064 79.8506 198.412 80.8683 197.961 81.5649C197.511 82.2547 196.432 82.3571 195.557 81.7834C194.683 81.2097 194.335 80.1921 194.786 79.4955C195.236 78.8057 196.315 78.71 197.19 79.2769Z" fill="#482998"/>
<path d="M195.79 81.4215C194.99 80.9024 194.642 80.0077 194.922 79.3315C194.874 79.3862 194.82 79.434 194.779 79.4955C194.328 80.1853 194.669 81.2097 195.551 81.7834C196.425 82.3571 197.504 82.2547 197.955 81.5649C197.996 81.5034 198.023 81.4351 198.05 81.3668C197.545 81.8995 196.589 81.9405 195.79 81.4215Z" fill="#331C6B"/>
<ellipse cx="180.617" cy="69.507" rx="1.086" ry="1.373" transform="rotate(-37.827 180.617 69.507)" fill="#482998"/>
<path d="M179.999 69.9744C179.575 69.428 179.548 68.7314 179.903 68.3353C179.855 68.3626 179.808 68.3831 179.767 68.4172C179.295 68.786 179.288 69.5715 179.753 70.1725C180.217 70.7735 180.982 70.9579 181.454 70.5891C181.495 70.5549 181.529 70.514 181.563 70.4798C181.092 70.7189 180.422 70.5208 179.999 69.9744Z" fill="#331C6B"/>
<path d="M186.182 63.8128C187.022 65.0012 186.94 66.5037 186.004 67.173C185.062 67.8355 183.62 67.4121 182.78 66.2237C181.94 65.0353 182.022 63.5328 182.958 62.8635C183.894 62.1941 185.342 62.6244 186.182 63.8128Z" fill="#482998"/>
<path d="M183.265 65.8754C182.5 64.7895 182.507 63.4576 183.217 62.72C183.129 62.761 183.033 62.802 182.951 62.8635C182.009 63.5259 181.933 65.0353 182.774 66.2237C183.614 67.4121 185.062 67.8424 185.997 67.173C186.079 67.1116 186.154 67.0365 186.223 66.9682C185.294 67.3984 184.037 66.9545 183.265 65.8754Z" fill="#331C6B"/>
<path fill-rule="evenodd" clip-rule="evenodd" d="M177.277 68.3796C177.53 68.7689 177.502 69.2333 177.229 69.4109C176.956 69.5884 176.526 69.4177 176.273 69.0284C176.02 68.6391 176.047 68.1747 176.321 67.9971C176.601 67.8195 177.024 67.9903 177.277 68.3796ZM184.37 75.3989C185.387 76.4166 185.674 77.7689 185.012 78.4245C184.356 79.0802 182.997 78.7933 181.986 77.7825C180.975 76.7649 180.682 75.4126 181.344 74.7569C182 74.1013 183.352 74.3881 184.37 75.3989ZM189.442 81.3762C189.619 81.1098 189.442 80.6795 189.046 80.42C188.65 80.1605 188.185 80.1741 188.008 80.4473C187.83 80.7137 188.008 81.144 188.404 81.4035C188.8 81.663 189.264 81.6494 189.442 81.3762Z" fill="#482998"/>
<path d="M237.373 49.3376C238.735 53.7912 222.302 62.7629 200.67 69.3765C179.038 75.99 160.398 77.741 159.037 73.2873C158.336 70.9961 162.345 67.5092 169.349 63.7628C169.43 64.9973 169.603 66.2077 169.861 67.3877C167.095 68.8668 165.609 70.0638 165.831 70.7901C166.48 72.9109 181.447 70.2149 199.262 64.7684C217.076 59.322 230.992 53.1875 230.344 51.0668C229.878 49.5443 222.034 50.5041 211.054 53.1817L211.055 49.2476C225.55 46.1481 236.349 45.9877 237.373 49.3376Z" fill="#4F2DA7"/>
</g>
<mask id="mask2" mask-type="alpha" maskUnits="userSpaceOnUse" x="112" y="32" width="107" height="147">
<rect x="112.274" y="32" width="106.008" height="146.163" fill="white"/>
</mask>
<g mask="url(#mask2)">
<path d="M172.506 178.163C170.731 173.141 167.455 168.598 162.777 165.304C150.826 156.887 134.346 159.804 125.97 171.823C124.57 173.831 123.496 175.963 122.714 178.163H172.506Z" fill="#5F40AF"/>
<path d="M124.658 178.163C125.283 176.838 126.011 175.546 126.874 174.31C135.249 162.298 151.726 159.374 163.676 167.791C167.564 170.531 170.48 174.139 172.37 178.163H172.506C170.732 173.141 167.448 168.598 162.772 165.304C150.822 156.887 134.345 159.804 125.97 171.823C124.57 173.831 123.489 175.963 122.714 178.163H124.658Z" fill="#7F66BF"/>
<path d="M144.296 171.662C142.725 171.744 141.407 170.801 141.346 169.565C141.284 168.329 142.5 167.256 144.071 167.175C145.642 167.093 146.96 168.035 147.021 169.278C147.083 170.514 145.86 171.58 144.296 171.662Z" fill="#482998"/>
<path d="M144.098 167.823C145.525 167.748 146.734 168.527 146.994 169.599C147.008 169.49 147.021 169.381 147.021 169.271C146.96 168.035 145.635 167.093 144.071 167.168C142.5 167.25 141.284 168.315 141.346 169.558C141.352 169.667 141.38 169.777 141.4 169.879C141.544 168.793 142.671 167.898 144.098 167.823Z" fill="#331C6B"/>
<path d="M136.175 175.152C135.206 175.541 134.168 175.234 133.86 174.469C133.553 173.704 134.086 172.761 135.055 172.372C136.025 171.983 137.063 172.29 137.371 173.055C137.678 173.82 137.145 174.756 136.175 175.152Z" fill="#482998"/>
<path d="M135.219 172.775C136.1 172.42 137.036 172.645 137.425 173.267C137.412 173.198 137.398 173.123 137.371 173.055C137.063 172.29 136.025 171.983 135.055 172.372C134.086 172.761 133.546 173.697 133.86 174.469C133.888 174.537 133.929 174.598 133.969 174.66C133.819 173.936 134.338 173.13 135.219 172.775Z" fill="#331C6B"/>
<path d="M142.63 177.139C141.872 177.173 141.23 176.723 141.202 176.122C141.175 175.521 141.762 175.008 142.52 174.967C143.278 174.933 143.92 175.384 143.948 175.985C143.975 176.586 143.388 177.105 142.63 177.139Z" fill="#482998"/>
<path d="M142.534 175.281C143.224 175.247 143.811 175.623 143.934 176.142C143.941 176.087 143.948 176.04 143.948 175.985C143.92 175.384 143.278 174.926 142.52 174.967C141.762 175.001 141.168 175.521 141.202 176.122C141.202 176.176 141.216 176.224 141.23 176.279C141.298 175.753 141.844 175.316 142.534 175.281Z" fill="#331C6B"/>
<path d="M155.681 171.45C154.227 171.457 153.038 170.528 153.031 169.374C153.025 168.219 154.206 167.284 155.661 167.277C157.116 167.27 158.304 168.199 158.311 169.353C158.318 170.507 157.143 171.443 155.681 171.45Z" fill="#482998"/>
<path d="M155.668 167.885C156.993 167.878 158.085 168.65 158.277 169.654C158.297 169.551 158.318 169.456 158.311 169.353C158.304 168.199 157.122 167.27 155.661 167.277C154.206 167.284 153.025 168.219 153.031 169.374C153.031 169.476 153.052 169.579 153.072 169.674C153.257 168.67 154.343 167.892 155.668 167.885Z" fill="#331C6B"/>
<path fill-rule="evenodd" clip-rule="evenodd" d="M141.885 164.279C142.042 165.194 143.319 165.733 144.733 165.488C146.147 165.242 147.158 164.299 147.001 163.377C146.844 162.462 145.566 161.922 144.153 162.168C142.739 162.414 141.721 163.364 141.885 164.279ZM149.815 166.273C149.35 166.252 148.988 165.972 149.002 165.645C149.015 165.317 149.398 165.064 149.862 165.085C150.327 165.105 150.689 165.385 150.675 165.713C150.668 166.041 150.279 166.293 149.815 166.273ZM137.412 169.995C136.975 170.173 136.524 170.07 136.401 169.77C136.278 169.469 136.537 169.08 136.975 168.902C137.412 168.725 137.862 168.827 137.985 169.128C138.108 169.435 137.849 169.818 137.412 169.995Z" fill="#482998"/>
</g>
<mask id="mask3" mask-type="alpha" maskUnits="userSpaceOnUse" x="112" y="32" width="107" height="147">
<rect x="112.274" y="32" width="106.008" height="146.163" fill="white"/>
</mask>
<g mask="url(#mask3)">
<path fill-rule="evenodd" clip-rule="evenodd" d="M125.123 72.9577C126.011 72.9577 126.73 72.2392 126.73 71.3515C126.73 70.4639 126.004 69.7454 125.123 69.7454C124.236 69.7454 123.517 70.4639 123.517 71.3515C123.517 72.2392 124.236 72.9577 125.123 72.9577ZM144.398 97.8536C145.728 97.8536 146.807 96.7748 146.807 95.4443C146.807 94.1228 145.728 93.044 144.398 93.0351C143.067 93.0351 141.988 94.1138 141.988 95.4443C141.988 96.7748 143.067 97.8536 144.398 97.8536Z" fill="#7F66BF"/>
</g>
<mask id="mask4" mask-type="alpha" maskUnits="userSpaceOnUse" x="112" y="32" width="107" height="147">
<rect x="112.274" y="32" width="106.008" height="146.163" fill="white"/>
</mask>
<g mask="url(#mask4)">
<circle cx="204.63" cy="175.754" r="3.212" fill="#7F66BF"/>
</g>
<mask id="mask5" mask-type="alpha" maskUnits="userSpaceOnUse" x="112" y="32" width="107" height="147">
<rect x="112.274" y="32" width="106.008" height="146.163" fill="white"/>
</mask>
<g mask="url(#mask5)">
<path d="M170.097 152.464C170.097 153.353 169.38 154.07 168.49 154.07C167.601 154.07 166.884 153.353 166.884 152.464C166.884 151.575 167.601 150.858 168.49 150.858C169.373 150.858 170.097 151.575 170.097 152.464Z" fill="#DFD8EF"/>
</g>
<mask id="mask6" mask-type="alpha" maskUnits="userSpaceOnUse" x="112" y="32" width="107" height="147">
<rect x="112.274" y="32" width="106.008" height="146.163" fill="white"/>
</mask>
<g mask="url(#mask6)">
<circle cx="152.429" cy="58.502" r="1" fill="#DFD8EF"/>
</g>
<mask id="mask7" mask-type="alpha" maskUnits="userSpaceOnUse" x="112" y="32" width="107" height="147">
<rect x="112.274" y="32" width="106.008" height="146.163" fill="white"/>
</mask>
<g mask="url(#mask7)">
<path fill-rule="evenodd" clip-rule="evenodd" d="M137.206 51.2872C137.022 51.3008 136.878 51.4442 136.871 51.6218C136.858 51.977 136.817 52.3253 136.748 52.6463C136.687 52.3253 136.646 51.9838 136.626 51.6218C136.612 51.4374 136.468 51.294 136.291 51.2872C135.936 51.2667 135.587 51.2257 135.266 51.1642C135.587 51.1028 135.929 51.0618 136.291 51.0413C136.475 51.0276 136.619 50.8842 136.626 50.7066C136.646 50.3515 136.687 50.0032 136.748 49.6822C136.81 50.0032 136.851 50.3446 136.871 50.7066C136.885 50.891 137.028 51.0345 137.206 51.0413C137.561 51.0618 137.91 51.1028 138.231 51.1642C137.91 51.2257 137.568 51.2667 137.206 51.2872ZM181.019 94.7638C180.807 94.7774 180.65 94.9413 180.637 95.1462C180.616 95.556 180.568 95.9521 180.493 96.3278C180.418 95.959 180.37 95.5628 180.35 95.1462C180.336 94.9345 180.172 94.7774 179.967 94.7638C179.551 94.7433 179.155 94.6955 178.786 94.6203C179.155 94.5452 179.551 94.4974 179.967 94.4769C180.179 94.4632 180.336 94.2993 180.35 94.0944C180.37 93.6778 180.418 93.2817 180.493 92.9129C180.568 93.2817 180.616 93.6778 180.637 94.0944C180.65 94.3062 180.814 94.4632 181.019 94.4769C181.436 94.4974 181.832 94.5452 182.201 94.6203C181.832 94.6955 181.436 94.7433 181.019 94.7638ZM139.797 130.984C139.613 130.998 139.469 131.141 139.463 131.319C139.442 131.681 139.401 132.029 139.34 132.343C139.278 132.022 139.237 131.681 139.217 131.319C139.203 131.134 139.06 130.991 138.882 130.984C138.527 130.963 138.179 130.922 137.858 130.861C138.179 130.799 138.52 130.758 138.882 130.738C139.066 130.724 139.21 130.581 139.217 130.403C139.237 130.048 139.278 129.7 139.34 129.379C139.401 129.7 139.442 130.041 139.463 130.403C139.476 130.588 139.62 130.731 139.797 130.738C140.152 130.758 140.501 130.799 140.822 130.861C140.501 130.922 140.159 130.963 139.797 130.984ZM196.189 157.79C196.135 157.619 196.217 157.435 196.38 157.36C196.708 157.209 197.016 157.052 197.296 156.875C196.975 156.929 196.633 157.018 196.292 157.127C196.121 157.182 195.937 157.1 195.861 156.936C195.711 156.608 195.554 156.301 195.376 156.021C195.431 156.342 195.52 156.683 195.629 157.025C195.684 157.196 195.602 157.38 195.438 157.455C195.11 157.605 194.803 157.763 194.523 157.94C194.844 157.885 195.185 157.797 195.527 157.687C195.697 157.633 195.882 157.715 195.957 157.879C196.107 158.206 196.264 158.514 196.442 158.794C196.387 158.466 196.305 158.131 196.189 157.79Z" fill="#F6F2FF"/>
</g>
<mask id="mask8" mask-type="alpha" maskUnits="userSpaceOnUse" x="112" y="32" width="107" height="147">
<rect x="112.274" y="32" width="106.008" height="146.163" fill="white"/>
</mask>
<g mask="url(#mask8)">
<path d="M155.664 116.1C154.791 116.1 154.114 115.873 153.634 115.42C153.161 114.96 152.911 114.27 152.884 113.35C152.877 113.15 152.874 112.867 152.874 112.5C152.874 112.133 152.877 111.853 152.884 111.66C152.911 110.76 153.171 110.077 153.664 109.61C154.157 109.137 154.824 108.9 155.664 108.9C156.497 108.9 157.161 109.137 157.654 109.61C158.147 110.077 158.407 110.76 158.434 111.66C158.447 112.047 158.454 112.327 158.454 112.5C158.454 112.667 158.447 112.95 158.434 113.35C158.407 114.27 158.154 114.96 157.674 115.42C157.201 115.873 156.531 116.1 155.664 116.1ZM155.664 115.25C156.191 115.25 156.611 115.09 156.924 114.77C157.237 114.45 157.407 113.96 157.434 113.3C157.447 112.9 157.454 112.633 157.454 112.5C157.454 112.353 157.447 112.087 157.434 111.7C157.407 111.04 157.234 110.55 156.914 110.23C156.601 109.91 156.184 109.75 155.664 109.75C155.137 109.75 154.714 109.91 154.394 110.23C154.081 110.55 153.911 111.04 153.884 111.7C153.877 111.893 153.874 112.16 153.874 112.5C153.874 112.833 153.877 113.1 153.884 113.3C153.911 113.96 154.081 114.45 154.394 114.77C154.714 115.09 155.137 115.25 155.664 115.25ZM161.912 116.1C161.178 116.1 160.608 115.893 160.202 115.48C159.802 115.067 159.588 114.517 159.562 113.83L159.552 113.4L159.562 112.97C159.588 112.29 159.805 111.743 160.212 111.33C160.618 110.91 161.185 110.7 161.912 110.7C162.638 110.7 163.205 110.91 163.612 111.33C164.018 111.743 164.235 112.29 164.262 112.97C164.268 113.043 164.272 113.187 164.272 113.4C164.272 113.613 164.268 113.757 164.262 113.83C164.235 114.517 164.018 115.067 163.612 115.48C163.212 115.893 162.645 116.1 161.912 116.1ZM161.912 115.33C162.332 115.33 162.662 115.197 162.902 114.93C163.148 114.663 163.282 114.28 163.302 113.78C163.308 113.713 163.312 113.587 163.312 113.4C163.312 113.213 163.308 113.087 163.302 113.02C163.282 112.52 163.148 112.137 162.902 111.87C162.662 111.603 162.332 111.47 161.912 111.47C161.492 111.47 161.158 111.603 160.912 111.87C160.665 112.137 160.535 112.52 160.522 113.02L160.512 113.4L160.522 113.78C160.535 114.28 160.665 114.663 160.912 114.93C161.158 115.197 161.492 115.33 161.912 115.33ZM165.764 117.9C165.697 117.9 165.64 117.877 165.594 117.83C165.554 117.79 165.534 117.737 165.534 117.67V111.03C165.534 110.963 165.554 110.91 165.594 110.87C165.64 110.823 165.697 110.8 165.764 110.8H166.224C166.29 110.8 166.344 110.823 166.384 110.87C166.43 110.91 166.454 110.963 166.454 111.03V111.47C166.827 110.957 167.374 110.7 168.094 110.7C168.794 110.7 169.317 110.92 169.664 111.36C170.017 111.8 170.207 112.367 170.234 113.06C170.24 113.133 170.244 113.247 170.244 113.4C170.244 113.553 170.24 113.667 170.234 113.74C170.207 114.427 170.017 114.993 169.664 115.44C169.31 115.88 168.787 116.1 168.094 116.1C167.4 116.1 166.86 115.85 166.474 115.35V117.67C166.474 117.737 166.454 117.79 166.414 117.83C166.374 117.877 166.32 117.9 166.254 117.9H165.764ZM167.884 115.29C168.357 115.29 168.7 115.143 168.914 114.85C169.134 114.557 169.254 114.17 169.274 113.69C169.28 113.623 169.284 113.527 169.284 113.4C169.284 112.14 168.817 111.51 167.884 111.51C167.424 111.51 167.077 111.663 166.844 111.97C166.617 112.27 166.494 112.63 166.474 113.05L166.464 113.43L166.474 113.82C166.487 114.213 166.614 114.557 166.854 114.85C167.094 115.143 167.437 115.29 167.884 115.29ZM173.281 116.1C172.814 116.1 172.421 116.027 172.101 115.88C171.787 115.727 171.551 115.553 171.391 115.36C171.237 115.167 171.161 115.007 171.161 114.88C171.161 114.813 171.184 114.763 171.231 114.73C171.284 114.69 171.337 114.67 171.391 114.67H171.841C171.907 114.67 171.967 114.703 172.021 114.77C172.181 114.957 172.354 115.103 172.541 115.21C172.727 115.317 172.977 115.37 173.291 115.37C173.637 115.37 173.917 115.303 174.131 115.17C174.351 115.03 174.461 114.84 174.461 114.6C174.461 114.44 174.414 114.31 174.321 114.21C174.234 114.103 174.081 114.013 173.861 113.94C173.647 113.86 173.327 113.773 172.901 113.68C172.321 113.553 171.907 113.37 171.661 113.13C171.421 112.89 171.301 112.58 171.301 112.2C171.301 111.947 171.374 111.707 171.521 111.48C171.674 111.247 171.894 111.06 172.181 110.92C172.474 110.773 172.824 110.7 173.231 110.7C173.657 110.7 174.021 110.77 174.321 110.91C174.621 111.05 174.844 111.217 174.991 111.41C175.144 111.597 175.221 111.753 175.221 111.88C175.221 111.94 175.197 111.99 175.151 112.03C175.111 112.07 175.061 112.09 175.001 112.09H174.581C174.501 112.09 174.434 112.057 174.381 111.99C174.274 111.863 174.181 111.767 174.101 111.7C174.027 111.627 173.917 111.563 173.771 111.51C173.631 111.457 173.451 111.43 173.231 111.43C172.911 111.43 172.664 111.5 172.491 111.64C172.317 111.773 172.231 111.95 172.231 112.17C172.231 112.31 172.267 112.43 172.341 112.53C172.414 112.623 172.554 112.71 172.761 112.79C172.974 112.87 173.281 112.953 173.681 113.04C174.314 113.173 174.761 113.367 175.021 113.62C175.287 113.867 175.421 114.183 175.421 114.57C175.421 114.857 175.337 115.117 175.171 115.35C175.004 115.583 174.757 115.767 174.431 115.9C174.111 116.033 173.727 116.1 173.281 116.1ZM176.828 114.34C176.762 114.34 176.705 114.32 176.658 114.28C176.618 114.233 176.598 114.177 176.598 114.11V109.23C176.598 109.163 176.618 109.11 176.658 109.07C176.705 109.023 176.762 109 176.828 109H177.298C177.365 109 177.418 109.023 177.458 109.07C177.505 109.11 177.528 109.163 177.528 109.23V114.11C177.528 114.177 177.505 114.233 177.458 114.28C177.418 114.32 177.365 114.34 177.298 114.34H176.828ZM176.738 116C176.672 116 176.615 115.98 176.568 115.94C176.528 115.893 176.508 115.837 176.508 115.77V115.14C176.508 115.073 176.528 115.017 176.568 114.97C176.615 114.923 176.672 114.9 176.738 114.9H177.378C177.445 114.9 177.498 114.923 177.538 114.97C177.585 115.017 177.608 115.073 177.608 115.14V115.77C177.608 115.837 177.585 115.893 177.538 115.94C177.498 115.98 177.445 116 177.378 116H176.738Z" fill="#F5F2FD"/>
</g>
<path d="M112.357 32V181.24H122.483V41.626H208.702V181.24H218.821V32H112.357Z" fill="#DFD8EF"/>
<path d="M114.777 33.64V181.24H124.441V43.587H206.737V181.24H216.401V33.64H114.777Z" fill="#7F66BF"/>
<path d="M120.422 181.24H125.872V43.649H206.112V181.24H210.755V40.2H120.422V181.24Z" fill="#482998"/>
<path d="M96.2261 118.92C95.3381 118.92 94.6131 118.419 94.6131 117.805V106.915C94.6131 106.301 95.3381 105.8 96.2261 105.8C97.1141 105.8 97.8392 106.301 97.8392 106.915V117.805C97.8473 118.419 97.1223 118.92 96.2261 118.92Z" fill="#DFD8EF"/>
<path d="M100.259 114H94.2851C93.5726 114 93 113.269 93 112.36C93 111.451 93.5726 110.72 94.2851 110.72H100.259V114Z" fill="#4F2DA7"/>
<path d="M103.485 191.08L122.842 181.194V43.526L103.485 33.64V191.08Z" fill="#7F66BF"/>
<path d="M120.422 109.9L105.905 109.653V39.38L120.422 46.507V109.9Z" fill="#DFD8EF"/>
<path d="M120.422 177.477L105.905 184.52V114.251L120.422 114V177.477Z" fill="#DFD8EF"/>
<path d="M100.259 189.822L103.485 191.08V33.64L100.259 34.898V189.822Z" fill="#DFD8EF"/>
<path d="M294.632 127L264.402 139.139C260.311 140.782 258.32 145.426 259.951 149.522L260.071 149.824C266.813 165.513 270.364 174.339 270.726 176.303C271.087 178.267 269.731 180.569 266.657 183.208L297.666 171.021C301.264 169.607 303.035 165.543 301.621 161.945C301.574 161.827 301.525 161.71 301.472 161.595C294.625 146.622 290.898 137.873 290.292 135.348C289.599 132.466 291.046 129.684 294.632 127Z" fill="white"/>
<path fill-rule="evenodd" clip-rule="evenodd" d="M280.149 158.61L282.252 157.844L281.957 157.032C281.816 156.645 281.724 156.311 281.68 156.029C281.637 155.747 281.635 155.476 281.676 155.216C281.716 154.956 281.803 154.684 281.936 154.399C282.068 154.114 282.236 153.786 282.439 153.414C282.651 153.022 282.843 152.645 283.016 152.285C283.189 151.924 283.313 151.559 283.39 151.19C283.467 150.82 283.49 150.431 283.459 150.021C283.428 149.612 283.323 149.16 283.143 148.665C282.889 147.969 282.546 147.398 282.113 146.951C281.68 146.504 281.189 146.175 280.639 145.963C280.089 145.752 279.508 145.652 278.896 145.665C278.284 145.677 277.665 145.798 277.038 146.026C276.412 146.254 275.858 146.565 275.376 146.959C274.895 147.353 274.509 147.813 274.219 148.339C273.929 148.865 273.74 149.447 273.651 150.084C273.561 150.72 273.593 151.388 273.746 152.085L275.986 151.559C275.802 150.82 275.843 150.122 276.111 149.464C276.378 148.806 276.885 148.341 277.63 148.07C278.346 147.809 279.012 147.817 279.627 148.092C280.243 148.367 280.686 148.876 280.956 149.619C281.153 150.16 281.207 150.644 281.117 151.071C281.027 151.498 280.872 151.918 280.651 152.331L280.119 153.444C279.955 153.784 279.816 154.111 279.702 154.424C279.588 154.737 279.508 155.05 279.462 155.365C279.416 155.68 279.415 156.013 279.459 156.365C279.502 156.717 279.597 157.094 279.744 157.496L280.149 158.61ZM283.966 162.134C284.136 161.722 284.149 161.314 284.002 160.912C283.85 160.494 283.579 160.19 283.189 160C282.798 159.809 282.387 159.792 281.954 159.95C281.522 160.107 281.219 160.388 281.045 160.793C280.871 161.198 280.861 161.609 281.013 162.027C281.159 162.429 281.432 162.728 281.833 162.923C282.234 163.119 282.643 163.141 283.061 162.989C283.493 162.832 283.795 162.547 283.966 162.134Z" fill="#D5CCE9"/>
<defs>
<linearGradient id="paint0_linear" x1="119.195" y1="174.951" x2="119.195" y2="185.176" gradientUnits="userSpaceOnUse">
<stop offset="0.09647" stop-color="#9C87CE"/>
<stop offset="1" stop-color="#FCFAFF"/>
</linearGradient>
<linearGradient id="paint1_linear" x1="193.824" y1="142.891" x2="210.68" y2="123.741" gradientUnits="userSpaceOnUse">
<stop stop-color="#F5F2FD"/>
<stop offset="1" stop-color="#3E1487"/>
</linearGradient>
</defs>
</svg>
