<svg width="241" height="132" viewBox="0 0 241 132" fill="none" xmlns="http://www.w3.org/2000/svg">
<g clip-path="url(#clip0)">
<path d="M1.5833 80.3265C1.62155 80.1475 1.65779 79.9686 1.70007 79.7916C3.02077 73.7091 5.17896 67.8477 8.38808 62.4649C8.49478 62.2859 8.60149 62.107 8.71021 61.928C10.8263 58.4647 13.3583 55.2728 16.2498 52.4231C17.8483 50.8467 19.5918 49.3487 21.6655 48.2689C24.5706 46.7528 27.9669 46.1375 31.3049 45.6348C34.7717 45.11 38.2868 44.6716 41.7919 44.1991C43.0374 44.0342 44.2756 43.8593 45.5063 43.6743C48.8926 43.1736 52.2548 42.5945 55.5364 41.8264C59.5931 40.8793 63.5249 39.6387 67.2394 37.8933C67.536 37.7593 67.8293 37.6172 68.1192 37.4671C68.4091 37.3223 68.701 37.1755 68.9869 37.0267C69.2728 36.8779 69.5546 36.7291 69.8345 36.5763C69.9794 36.4979 70.1244 36.4195 70.2673 36.337C70.4102 36.2546 70.5512 36.1822 70.6901 36.1018C71.1088 35.8685 71.5195 35.6292 71.9303 35.3879L71.9464 35.3779C72.2181 35.219 72.4859 35.0562 72.7516 34.8933C74.2696 33.9724 75.7554 33.0112 77.2412 32.044L78.1753 31.4408L79.6229 30.5058C79.9047 30.3228 80.1926 30.1398 80.4765 29.9589C80.6778 29.8262 80.8791 29.6935 81.0986 29.5567C82.1535 28.8932 83.2226 28.2417 84.3198 27.6203C84.5795 27.4715 84.8412 27.3228 85.1049 27.178C87.3217 25.9428 89.64 24.8988 92.0346 24.0573L92.0668 24.0452C93.2714 23.6255 94.5004 23.279 95.747 23.0077C96.4657 22.8508 97.1865 22.7221 97.9153 22.6236C99.8634 22.3477 101.839 22.32 103.794 22.5412C107.633 22.9855 111.231 24.4574 115.068 24.9541C122.968 25.9595 130.641 22.7201 138.07 20.1825C139.896 19.5592 141.736 18.9754 143.59 18.4312C144.822 18.0672 146.058 17.7234 147.304 17.3916C154.939 15.3768 162.732 14.012 170.598 13.3118C173.886 12.9899 177.193 12.9167 180.493 13.0926C181.747 13.169 182.987 13.2936 184.205 13.4947C188.373 14.1382 192.258 15.4874 195.395 17.9586C197.964 19.9875 199.802 22.6316 201.201 25.3985C202.633 28.2217 203.645 31.2389 204.203 34.3544C204.279 34.7787 204.348 35.2049 204.404 35.6312C204.505 36.3605 204.58 37.0937 204.63 37.831C204.9 41.7608 204.431 45.7065 203.244 49.4633C201.916 53.6698 199.701 57.7074 198.727 61.9461C198.686 62.1257 198.648 62.3047 198.612 62.483C198.479 63.1268 198.38 63.7772 198.316 64.4314C197.819 69.6393 199.725 74.7165 201.221 79.8097C201.273 79.9867 201.326 80.1656 201.376 80.3446C201.537 80.9103 201.692 81.4753 201.839 82.0397C203.224 87.4245 203.609 93.1894 202.375 98.5641C202.336 98.7431 202.29 98.922 202.246 99.099C201.42 102.496 199.866 105.675 197.692 108.415C195.381 111.31 192.347 113.721 189.105 115.839C187.526 116.871 185.892 117.835 184.205 118.732C182.997 119.376 181.76 119.985 180.493 120.56C170.336 125.185 158.75 127.443 147.292 126.944C146.688 126.918 146.084 126.886 145.48 126.842C144.876 126.797 144.216 126.745 143.584 126.687C136.203 125.971 129.022 124.244 121.891 122.355C119.501 121.722 117.116 121.073 114.732 120.435C113.671 120.154 112.612 119.872 111.551 119.599C106.355 118.258 101.082 117.043 95.743 116.136C94.5068 115.923 93.2693 115.729 92.0305 115.553C87.7293 114.922 83.3933 114.554 79.0471 114.453C77.3573 114.42 75.6668 114.434 73.9757 114.497C73.1221 114.528 72.2678 114.574 71.4128 114.636C62.5847 115.257 54.0526 117.337 45.5063 119.279C44.2702 119.561 43.0321 119.838 41.7919 120.111C40.1652 120.469 38.5385 120.815 36.9037 121.135C26.7308 123.132 17.6631 121.983 8.20488 117.863C6.05473 116.928 3.90659 115.798 2.58992 114.043C1.27325 112.288 0.943085 110.132 0.697464 108.051C0.349167 105.087 0.121674 102.085 0.0351105 99.0668C0.0351105 98.8899 0.0351105 98.7109 0.0230255 98.532C-0.113876 92.4353 0.341125 86.2804 1.5833 80.3265Z" fill="#F8F5FF"/>
<path d="M22.4659 48.0603C23.464 47.9384 24.5292 47.9814 25.4574 48.3754C27.4311 49.2132 27.9922 51.5449 27.9651 53.4401C27.9359 55.48 27.5027 57.7081 29.0536 59.3516C29.7665 60.1072 30.6533 60.6855 31.3533 61.455C32.1013 62.2773 32.6882 63.2182 33.1228 64.2285C33.9207 66.0844 34.3123 68.2668 33.5826 70.2136C32.9402 71.9276 31.3239 73.4747 31.6732 75.4237C32.0375 77.4569 34.0873 79.0113 35.3689 80.5257C36.8193 82.2395 38.1547 84.43 38.3741 86.6775C38.5845 88.8314 37.6469 91.0098 36.208 92.6379C33.3332 95.8913 29.0118 97.4862 24.6545 97.4764C22.8046 97.4721 20.71 97.3885 19.1135 96.3944C18.6201 96.0871 18.3598 95.7423 18.0665 95.2631C17.8035 94.8334 17.4561 94.5538 17.054 94.2497C16.1705 93.5818 15.5325 92.6817 15.1253 91.674C13.5442 87.7602 14.8079 82.9184 17.0211 79.4429C17.5455 78.6195 17.9749 77.8271 17.7201 76.8457C17.4543 75.8211 16.8008 74.8971 16.2229 74.0164C15.6518 73.146 14.9998 72.3157 14.5534 71.3746C14.0859 70.3888 13.9543 69.3565 14.0369 68.2776C14.1921 66.2509 15.067 64.3807 16.3056 62.7508C17.4986 61.1809 18.8994 59.6787 18.9026 57.6216C18.906 55.4414 17.4485 53.5019 18.0694 51.2853C18.3265 50.3674 18.8429 49.4257 19.6752 48.8754C20.4733 48.3477 21.5272 48.175 22.4659 48.0603Z" fill="#EFEBF7"/>
<path d="M21.8137 51.5457C21.8324 51.2529 22.1797 51.0773 22.4532 51.1537C22.8131 51.2543 22.8062 51.5906 22.7967 51.8902C22.7675 52.8112 22.9008 53.7062 23.1222 54.5997C23.5823 56.4575 24.4326 58.1692 25.1063 59.9538C25.7794 61.7368 26.0954 63.5778 25.7005 65.4646C25.3283 67.2435 24.7435 68.9764 24.3625 70.7576C24.0267 72.3275 23.6695 73.983 24.1808 75.5489C24.6728 77.0562 25.7607 78.2837 26.544 79.6458C28.1656 82.4656 28.885 85.5937 28.9812 88.8129C29.0258 90.3077 28.9857 91.8163 28.6389 93.2824C28.4393 94.1266 28.1711 95.2675 27.4476 95.8504C27.1141 96.1191 26.5435 96.2121 26.2627 95.814C25.9992 95.4407 26.2304 94.8628 26.3141 94.4649C26.6765 92.7425 26.7494 90.9822 26.6626 89.2333C26.5787 87.5392 26.3785 85.8479 25.8453 84.23C25.3505 82.7285 24.5987 81.3799 23.7139 80.0665C22.8123 78.7279 21.875 77.3866 21.5024 75.8006C21.1239 74.1898 21.4314 72.5507 21.8426 70.9707C22.2774 69.2995 22.847 67.6762 23.4358 66.0502C24.0096 64.4658 24.213 62.9667 23.8962 61.3085C23.2705 58.0324 21.5954 54.9574 21.8137 51.5457Z" fill="#E8E3F6"/>
<path d="M48.8188 52.0356C50.0539 52.4106 51.2806 53.0157 52.1611 53.9644C54.0332 55.9821 53.4588 59.0315 52.4253 61.2587C51.3129 63.6559 49.6271 66.0655 50.5774 68.816C51.0142 70.0805 51.7487 71.2257 52.163 72.4999C52.6057 73.8615 52.7967 75.2796 52.7724 76.7005C52.7273 79.3103 52.0331 82.0951 50.1483 84.0178C48.4888 85.7107 45.7754 86.6994 45.1548 89.1861C44.5074 91.7801 46.0901 94.6847 46.7929 97.1424C47.5882 99.9238 47.9967 103.209 47.0661 105.981C46.1743 108.638 43.9232 110.726 41.375 111.903C36.2834 114.255 30.3719 113.893 25.2665 111.615C23.0989 110.647 20.6863 109.459 19.3393 107.453C18.923 106.833 18.7999 106.29 18.7092 105.57C18.6278 104.925 18.3681 104.414 18.0572 103.845C17.374 102.596 17.1015 101.199 17.1565 99.7955C17.3707 94.3444 21.4121 89.2758 25.845 86.3169C26.8953 85.616 27.8177 84.9023 28.0377 83.609C28.2674 82.2591 27.9894 80.8263 27.777 79.4842C27.5672 78.1577 27.2413 76.8366 27.2152 75.4915C27.1879 74.0824 27.5792 72.793 28.2463 71.5601C29.4996 69.244 31.5143 67.4874 33.8286 66.2042C36.0577 64.9682 38.4947 63.9204 39.5857 61.4893C40.7421 58.9127 40.0577 55.8608 41.9576 53.5624C42.7443 52.6106 43.8478 51.7656 45.1148 51.5478C46.3299 51.3388 47.6572 51.6829 48.8188 52.0356Z" fill="#F5F2FD"/>
<path d="M46.2958 56.2963C46.4711 55.9594 46.9692 55.9335 47.2489 56.1672C47.617 56.475 47.4328 56.8697 47.2648 57.2195C46.7484 58.2948 46.4356 59.4246 46.2264 60.5988C45.7915 63.04 45.8893 65.5127 45.7424 67.9792C45.5956 70.4436 45.0009 72.7893 43.5511 74.8167C42.1841 76.7283 40.5928 78.4739 39.2145 80.3836C37.9997 82.0667 36.7148 83.84 36.4927 85.9624C36.2786 88.0053 36.9077 90.0291 37.1103 92.0528C37.5297 96.2419 36.7326 100.323 35.1591 104.186C34.4284 105.98 33.5914 107.745 32.418 109.3C31.7425 110.195 30.8313 111.405 29.6802 111.716C29.1494 111.86 28.4335 111.671 28.3137 111.052C28.201 110.472 28.7741 109.909 29.0803 109.482C30.4062 107.632 31.4133 105.585 32.2278 103.469C33.0169 101.418 33.6686 99.3107 33.8925 97.1153C34.1002 95.0778 33.9274 93.0867 33.5807 91.0675C33.2275 89.0098 32.834 86.9301 33.229 84.8566C33.63 82.7507 34.848 80.9708 36.1563 79.3152C37.54 77.564 39.0561 75.9401 40.5962 74.3232C42.097 72.7477 43.1199 71.079 43.618 68.9493C44.602 64.7416 44.2539 60.2222 46.2958 56.2963Z" fill="#EBE7F6"/>
<path d="M10.6361 67.5118C12.6899 67.5118 14.4954 68.6004 15.7396 70.1452C17.196 71.9536 17.4901 74.1619 18.0815 76.3172C18.3758 77.3898 18.8819 78.4545 19.7688 79.1833C20.5756 79.846 21.5997 79.9786 22.5654 80.3024C24.4952 80.9495 26.0535 82.5083 26.6689 84.4103C27.4197 86.7303 26.6245 89.0701 26.7614 91.4213C26.8871 93.5806 29.0161 94.9277 30.7291 95.9628C32.4181 96.9836 33.9397 97.939 34.4485 99.9275C34.9879 102.036 35.1689 104.39 34.4217 106.474C33.1777 109.943 29.537 111.47 26.0191 111.707C22.8266 111.922 18.8123 111.584 16.4147 109.267C14.98 107.88 14.4604 105.941 14.5249 104.011C14.5649 102.811 14.8026 101.622 15.1099 100.463C15.3277 99.641 15.622 98.8227 15.7058 97.9735C15.9287 95.7141 13.8405 95.2802 12.0629 94.6598C9.80421 93.8714 8.22291 92.3823 7.12332 90.3077C6.0993 88.376 5.66965 86.2077 6.28351 84.0809C6.59704 82.995 7.16569 82.0097 7.9369 81.1717C8.27639 80.8029 8.75488 80.4952 9.06129 80.1077C9.3473 79.7458 9.28504 79.2769 9.18647 78.853C8.73072 76.8951 7.31076 75.2739 6.80295 73.3195C6.34449 71.5554 6.61551 69.3599 8.22833 68.2219C8.92514 67.7301 9.78445 67.5172 10.6361 67.5118Z" fill="#F3EFFD"/>
<path d="M13.4346 72.6132C15.6113 74.9319 16.203 78.0778 16.3766 81.1269C16.4739 82.8367 16.3726 84.6402 16.875 86.2986C17.3048 87.7181 18.3124 88.8031 19.3511 89.8286C21.4418 91.893 23.7734 93.9917 24.385 96.9794C24.7438 98.7328 24.5016 100.544 24.9974 102.278C25.4482 103.854 26.242 105.403 27.2074 106.734C27.9848 107.805 28.9975 108.626 29.8473 109.625C30.1065 109.93 30.4779 110.379 30.3709 110.81C30.2457 111.314 29.6034 111.473 29.1477 111.394C28.0852 111.21 27.1909 110.195 26.4962 109.457C25.4804 108.379 24.6172 107.219 23.9156 105.918C23.1367 104.473 22.5095 102.939 22.2416 101.318C21.9635 99.6361 22.1019 97.8833 21.4669 96.2691C20.3984 93.5531 17.8067 91.9503 15.933 89.8334C13.5984 87.1957 13.9465 83.9127 14.1857 80.668C14.317 78.8849 14.4476 76.8712 13.5466 75.2432C13.2026 74.6217 12.4358 74.0423 12.2879 73.3359C12.1525 72.6887 12.8918 72.0347 13.4346 72.6132Z" fill="#EBE6F4"/>
<path d="M15.7559 110.717C15.7559 123.977 17.9201 130.925 29.3445 130.925C40.769 130.925 42.9331 123.977 42.9331 110.717H15.7559Z" fill="#D5CCE9"/>
<path d="M97.7785 99.8664C99.6038 80.6395 197.537 43.5295 215.718 61.7409C233.899 79.9522 229.297 118.258 191.197 127.01C153.096 135.762 95.9532 119.093 97.7785 99.8664Z" fill="#FDFCFF"/>
<path d="M87.2135 4.52377L96.2491 11.2917L92.105 13.269L123.486 79.0131L157.458 47.4358L163.805 91.2616L176.09 81.3775L176.902 82.387L162.848 93.6943L156.53 50.0673L123.076 81.1626L90.936 13.827L86.793 15.8052L87.2135 4.52377Z" fill="#DFD8EF"/>
<path d="M1 130.727L241 130.273" stroke="#DFD8EF"/>
<path fill-rule="evenodd" clip-rule="evenodd" d="M96.7184 73.9701L125.214 73.6987C135.53 73.6005 143.972 81.8832 144.07 92.1987C144.071 92.258 144.071 92.3173 144.071 92.3766V129.872H132.276H75V95.8964C75 83.8678 84.6904 74.0847 96.7184 73.9701Z" fill="#E4DAFF"/>
<path d="M109.689 84.6584C109.601 84.6584 109.513 84.7461 109.426 84.7461C109.338 84.7461 109.25 84.6584 109.162 84.6584H109.689Z" fill="#84DBFF"/>
<path d="M121.968 73.5192C121.968 73.5192 121.968 73.5192 121.968 73.6069C121.968 74.484 121.53 80.0973 109.689 84.5705H109.163C97.3221 80.0973 96.8836 74.484 96.8836 73.6069C96.8836 73.5192 96.8836 73.5192 96.8836 73.5192C96.8836 72.3789 97.1467 71.2387 97.4098 70.0985C100.83 74.3962 104.953 77.2906 109.426 77.2906C113.899 77.2906 118.021 74.3962 121.442 70.0985C121.705 71.2387 121.968 72.3789 121.968 73.5192Z" fill="#D4B69E"/>
<path d="M121.968 73.52C121.968 73.52 122.582 79.835 109.426 84.7467C109.426 84.7467 119.506 85.3499 122.589 92.1924C122.616 92.2535 122.605 92.3774 122.67 92.3774C122.734 92.3774 122.734 92.3069 122.811 92.1377C123.703 90.1881 128.182 76.9902 121.968 73.52ZM96.8832 73.52C90.1296 77.2915 96.0061 92.5528 96.1816 92.2897C99.2514 85.273 109.426 84.659 109.426 84.659C96.2693 79.835 96.8832 73.52 96.8832 73.52Z" fill="#492E8E"/>
<path d="M127.845 51.3292C127.055 56.7672 124.687 61.8543 120.74 65.7135C119.951 66.5028 119.249 67.1168 118.372 67.7308L116.969 63.2576H101.883L100.48 67.7308C97.6729 65.6258 91.7964 59.7493 91.7087 54.2236C89.2528 22.7361 113.373 29.402 113.373 29.402C129.599 28.2617 129.073 42.5583 127.845 51.3292Z" fill="#D4B69E"/>
<path d="M131.09 57.0303C129.862 59.0476 128.196 60.4509 126.617 60.9772C127.231 59.5738 127.757 58.0828 128.196 56.5917C128.196 56.5917 128.196 56.5917 128.196 56.504C128.546 55.1884 128.897 53.8728 129.248 52.5571H129.16C129.511 51.2415 129.862 49.9259 130.125 48.6102C130.476 48.6102 130.827 48.7856 131.178 48.9611C133.107 50.189 133.02 53.7851 131.09 57.0303ZM92.2349 60.9772C90.6562 60.4509 88.9897 59.0476 87.7618 57.0303C85.7445 53.7851 85.7445 50.189 87.6741 49.0488C87.8495 48.9611 87.9372 48.8734 88.1126 48.8734C89.1651 52.9957 90.393 56.0655 90.6562 56.6795C91.0947 58.0828 91.621 59.5738 92.2349 60.9772Z" fill="#E3D2C8"/>
<path d="M118.986 20.6307C119.688 12.5614 106.882 13.0877 106.882 13.0877C87.4987 15.8944 85.3937 33.9624 85.3937 33.9624L88.025 30.8049C83.9027 39.8389 90.13 55.3634 90.6562 56.5913C93.9015 67.3795 101.094 77.2906 109.426 77.2906C117.758 77.2906 124.95 67.3795 128.196 56.5913C128.196 56.5913 128.196 56.5913 128.196 56.5036C128.547 55.188 128.897 53.8724 129.16 52.5567H129.073C130.827 45.54 132.757 38.4356 132.757 38.4356C137.756 13.2631 118.986 20.6307 118.986 20.6307ZM127.845 51.3288C127.055 56.7667 124.687 61.8539 120.74 65.7131C119.951 66.5024 119.162 67.1164 118.372 67.7304L116.969 63.3449H101.883L100.48 67.8181C97.673 65.7131 95.3048 62.8187 93.3752 59.4857C92.4981 57.7315 91.9719 55.8897 91.7088 54.3109C89.2529 22.8234 113.373 29.4893 113.373 29.4893C129.599 28.2613 129.073 42.5579 127.845 51.3288Z" fill="#324A5E"/>
<path d="M118.986 20.6307C119.688 12.5614 106.882 13.0877 106.882 13.0877C87.4987 15.8944 85.3937 33.9624 85.3937 33.9624L88.025 30.8049C83.9027 39.8389 90.13 55.3634 90.6562 56.5913C93.9015 67.3795 101.094 77.2906 109.426 77.2906C117.758 77.2906 124.95 67.3795 128.196 56.5913C128.196 56.5913 128.196 56.5913 128.196 56.5036C128.547 55.188 128.897 53.8724 129.16 52.5567H129.073C130.827 45.54 132.757 38.4356 132.757 38.4356C137.756 13.2631 118.986 20.6307 118.986 20.6307ZM127.845 51.3288C127.055 56.7667 124.687 61.8539 120.74 65.7131C119.951 66.5024 119.162 67.1164 118.372 67.7304L116.969 63.3449H101.883L100.48 67.8181C97.673 65.7131 95.3048 62.8187 93.3752 59.4857C92.4981 57.7315 91.9719 55.8897 91.7088 54.3109C89.2529 22.8234 113.373 29.4893 113.373 29.4893C129.599 28.2613 129.073 42.5579 127.845 51.3288Z" fill="#324A5E"/>
<path d="M118.986 20.6307C119.688 12.5614 106.882 13.0877 106.882 13.0877C87.4987 15.8944 85.3937 33.9624 85.3937 33.9624L88.025 30.8049C83.9027 39.8389 90.13 55.3634 90.6562 56.5913C93.9015 67.3795 101.094 77.2906 109.426 77.2906C117.758 77.2906 124.95 67.3795 128.196 56.5913C128.196 56.5913 128.196 56.5913 128.196 56.5036C128.547 55.188 128.897 53.8724 129.16 52.5567H129.073C130.827 45.54 132.757 38.4356 132.757 38.4356C137.756 13.2631 118.986 20.6307 118.986 20.6307ZM127.845 51.3288C127.055 56.7667 124.687 61.8539 120.74 65.7131C119.951 66.5024 119.162 67.1164 118.372 67.7304C117.536 65.1177 115.108 63.3449 112.364 63.3449H106.571C103.781 63.3449 101.315 65.1563 100.48 67.8181C97.673 65.7131 91.7965 59.8366 91.7088 54.3109C89.2529 22.8234 113.373 29.4893 113.373 29.4893C129.599 28.2613 129.073 42.5579 127.845 51.3288Z" fill="#324A5E"/>
<path d="M103.286 66.327C104.777 67.9935 106.97 69.1337 109.426 69.1337C111.882 69.1337 114.075 68.0812 115.566 66.327H103.286Z" fill="white"/>
<path d="M109.645 99.955C110.197 99.955 110.645 99.5073 110.645 98.955C110.645 98.4027 110.197 97.955 109.645 97.955C109.093 97.955 108.645 98.4027 108.645 98.955C108.645 99.5073 109.093 99.955 109.645 99.955Z" fill="#492E8E"/>
<path d="M109.645 94.034C110.197 94.034 110.645 93.5863 110.645 93.034C110.645 92.4817 110.197 92.034 109.645 92.034C109.093 92.034 108.645 92.4817 108.645 93.034C108.645 93.5863 109.093 94.034 109.645 94.034Z" fill="#492E8E"/>
<path d="M109.645 88.114C110.197 88.114 110.645 87.6663 110.645 87.114C110.645 86.5617 110.197 86.114 109.645 86.114C109.093 86.114 108.645 86.5617 108.645 87.114C108.645 87.6663 109.093 88.114 109.645 88.114Z" fill="#492E8E"/>
<path d="M107.2 84.9213V101.066C107.2 102.398 108.28 103.478 109.612 103.478H112.243" stroke="#492E8E" stroke-width="0.644"/>
<path d="M87.5345 99.8318L87.5 129.5M131.582 99.8318L131.5 129.5L131.582 99.8318Z" stroke="#555555" stroke-linecap="round" stroke-linejoin="round"/>
</g>
<defs>
<clipPath id="clip0">
<rect width="241" height="132" fill="white"/>
</clipPath>
</defs>
</svg>
