<svg width="241" height="132" viewBox="0 0 241 132" fill="none" xmlns="http://www.w3.org/2000/svg">
<g clip-path="url(#clip0)">
<path d="M1.58342 80.3262C1.62167 80.1473 1.65791 79.9683 1.7002 79.7914C3.02089 73.7088 5.17908 67.8474 8.3882 62.4646C8.4949 62.2857 8.60161 62.1067 8.71033 61.9277C10.8264 58.4645 13.3584 55.2725 16.2499 52.4229C17.8485 50.8464 19.5919 49.3484 21.6656 48.2686C24.5707 46.7525 27.9671 46.1372 31.305 45.6345C34.7718 45.1097 38.287 44.6713 41.792 44.1988C43.0376 44.0339 44.2757 43.859 45.5065 43.674C48.8928 43.1733 52.2549 42.5942 55.5365 41.8261C59.5932 40.8791 63.5251 39.6384 67.2395 37.8931C67.5361 37.759 67.8294 37.6169 68.1193 37.4668C68.4092 37.322 68.7011 37.1752 68.987 37.0264C69.2729 36.8776 69.5547 36.7288 69.8346 36.576C69.9795 36.4976 70.1245 36.4192 70.2674 36.3367C70.4104 36.2543 70.5513 36.1819 70.6902 36.1015C71.109 35.8682 71.5197 35.6289 71.9304 35.3877L71.9465 35.3776C72.2183 35.2188 72.486 35.0559 72.7518 34.893C74.2698 33.9721 75.7555 33.0109 77.2413 32.0438L78.1755 31.4405L79.623 30.5055C79.9048 30.3225 80.1927 30.1396 80.4766 29.9586C80.6779 29.8259 80.8793 29.6932 81.0987 29.5564C82.1536 28.8929 83.2227 28.2414 84.3199 27.6201C84.5796 27.4713 84.8413 27.3225 85.1051 27.1777C87.3219 25.9425 89.6401 24.8985 92.0347 24.057L92.0669 24.0449C93.2715 23.6252 94.5005 23.2787 95.7471 23.0074C96.4658 22.8505 97.1866 22.7219 97.9154 22.6233C99.8635 22.3475 101.839 22.3198 103.794 22.5409C107.633 22.9853 111.231 24.4571 115.068 24.9538C122.968 25.9592 130.641 22.7198 138.07 20.1823C139.896 19.5589 141.736 18.9751 143.59 18.4309C144.822 18.0669 146.058 17.7231 147.304 17.3913C154.939 15.3766 162.732 14.0117 170.598 13.3115C173.886 12.9897 177.194 12.9164 180.493 13.0923C181.747 13.1687 182.987 13.2934 184.205 13.4945C188.373 14.1379 192.258 15.4871 195.395 17.9584C197.964 19.9872 199.802 22.6314 201.201 25.3982C202.633 28.2214 203.645 31.2386 204.203 34.3541C204.279 34.7784 204.348 35.2047 204.404 35.631C204.505 36.3602 204.58 37.0935 204.63 37.8307C204.901 41.7606 204.431 45.7063 203.245 49.463C201.916 53.6695 199.701 57.7071 198.727 61.9458C198.687 62.1255 198.648 62.3044 198.612 62.4827C198.479 63.1265 198.38 63.7769 198.316 64.4311C197.819 69.639 199.725 74.7162 201.221 79.8095C201.274 79.9864 201.326 80.1654 201.376 80.3443C201.537 80.91 201.692 81.475 201.839 82.0394C203.224 87.4242 203.609 93.1891 202.375 98.5639C202.337 98.7428 202.29 98.9218 202.246 99.0987C201.42 102.496 199.866 105.674 197.692 108.415C195.381 111.31 192.347 113.721 189.105 115.838C187.526 116.871 185.892 117.835 184.205 118.732C182.997 119.375 181.76 119.985 180.493 120.56C170.336 125.184 158.75 127.442 147.292 126.944C146.688 126.918 146.084 126.885 145.48 126.841C144.876 126.797 144.216 126.745 143.584 126.686C136.203 125.971 129.022 124.243 121.891 122.355C119.501 121.722 117.116 121.072 114.732 120.435C113.671 120.153 112.612 119.872 111.551 119.598C106.355 118.257 101.082 117.043 95.7431 116.136C94.5069 115.923 93.2695 115.728 92.0306 115.553C87.7294 114.921 83.3935 114.554 79.0472 114.453C77.3574 114.419 75.667 114.434 73.9758 114.497C73.1222 114.528 72.2679 114.574 71.413 114.636C62.5849 115.257 54.0527 117.336 45.5065 119.279C44.2703 119.56 43.0322 119.838 41.792 120.111C40.1653 120.469 38.5386 120.815 36.9039 121.135C26.7309 123.131 17.6632 121.983 8.205 117.863C6.05486 116.928 3.90671 115.798 2.59004 114.043C1.27338 112.287 0.943207 110.132 0.697586 108.051C0.349289 105.087 0.121796 102.085 0.0352325 99.0665C0.0352325 98.8896 0.0352325 98.7106 0.0231476 98.5317C-0.113754 92.435 0.341248 86.2801 1.58342 80.3262Z" fill="#F8F5FF"/>
<path d="M22.4658 48.0603C23.4638 47.9384 24.5291 47.9814 25.4573 48.3754C27.431 49.2132 27.9921 51.5449 27.965 53.4401C27.9358 55.48 27.5026 57.7081 29.0535 59.3516C29.7664 60.1072 30.6532 60.6855 31.3532 61.455C32.1012 62.2773 32.6881 63.2182 33.1227 64.2285C33.9206 66.0844 34.3122 68.2668 33.5825 70.2136C32.9401 71.9276 31.3238 73.4747 31.6731 75.4237C32.0374 77.4569 34.0872 79.0113 35.3688 80.5257C36.8192 82.2395 38.1546 84.43 38.374 86.6775C38.5844 88.8314 37.6468 91.0098 36.2079 92.6379C33.3331 95.8913 29.0117 97.4862 24.6544 97.4764C22.8045 97.4721 20.7099 97.3885 19.1134 96.3944C18.62 96.0871 18.3597 95.7423 18.0664 95.2631C17.8034 94.8334 17.456 94.5538 17.0538 94.2497C16.1704 93.5818 15.5324 92.6817 15.1252 91.674C13.5441 87.7602 14.8078 82.9184 17.021 79.4429C17.5454 78.6195 17.9748 77.8271 17.72 76.8457C17.4542 75.8211 16.8007 74.8971 16.2228 74.0164C15.6517 73.146 14.9997 72.3157 14.5533 71.3746C14.0858 70.3888 13.9541 69.3565 14.0368 68.2776C14.192 66.2509 15.0669 64.3807 16.3055 62.7508C17.4985 61.1809 18.8993 59.6787 18.9025 57.6216C18.9059 55.4414 17.4484 53.5019 18.0693 51.2853C18.3264 50.3674 18.8428 49.4257 19.6751 48.8754C20.4732 48.3477 21.5271 48.175 22.4658 48.0603Z" fill="#EFEBF7"/>
<path d="M21.8135 51.5466C21.8323 51.2538 22.1796 51.0782 22.453 51.1546C22.8129 51.2552 22.806 51.5915 22.7965 51.8911C22.7674 52.812 22.9007 53.707 23.1221 54.6006C23.5822 56.4584 24.4325 58.1701 25.1062 59.9547C25.7793 61.7377 26.0952 63.5787 25.7004 65.4655C25.3281 67.2444 24.7433 68.9773 24.3624 70.7584C24.0266 72.3283 23.6693 73.9839 24.1807 75.5498C24.6727 77.0571 25.7605 78.2846 26.5439 79.6467C28.1655 82.4665 28.8849 85.5946 28.9811 88.8138C29.0257 90.3086 28.9855 91.8172 28.6387 93.2833C28.4391 94.1275 28.1709 95.2684 27.4475 95.8512C27.1139 96.12 26.5434 96.213 26.2626 95.8149C25.999 95.4416 26.2303 94.8637 26.3139 94.4658C26.6763 92.7434 26.7493 90.9831 26.6625 89.2341C26.5785 87.54 26.3784 85.8488 25.8452 84.2309C25.3503 82.7294 24.5985 81.3808 23.7137 80.0673C22.8121 78.7288 21.8748 77.3875 21.5023 75.8015C21.1238 74.1907 21.4313 72.5516 21.8424 70.9716C22.2773 69.3004 22.8468 67.6771 23.4356 66.0511C24.0095 64.4667 24.2129 62.9676 23.8961 61.3094C23.2703 58.0333 21.5953 54.9583 21.8135 51.5466Z" fill="#E8E3F6"/>
<path d="M48.8186 52.0357C50.0537 52.4107 51.2804 53.0158 52.1609 53.9646C54.033 55.9822 53.4586 59.0316 52.4251 61.2588C51.3127 63.6561 49.6269 66.0656 50.5772 68.8162C51.014 70.0807 51.7485 71.2259 52.1628 72.5C52.6055 73.8616 52.7965 75.2797 52.7722 76.7006C52.7271 79.3105 52.0329 82.0952 50.1481 84.0179C48.4886 85.7108 45.7752 86.6996 45.1546 89.1862C44.5072 91.7802 46.0899 94.6849 46.7927 97.1425C47.588 99.9239 47.9965 103.209 47.0659 105.981C46.1741 108.638 43.923 110.726 41.3748 111.903C36.2832 114.255 30.3717 113.893 25.2663 111.615C23.0987 110.648 20.6862 109.459 19.3391 107.453C18.9228 106.833 18.7997 106.29 18.709 105.57C18.6276 104.925 18.3679 104.414 18.057 103.845C17.3738 102.596 17.1013 101.199 17.1563 99.7957C17.3705 94.3446 21.4119 89.2759 25.8448 86.3171C26.8951 85.6161 27.8176 84.9024 28.0375 83.6091C28.2672 82.2592 27.9892 80.8265 27.7768 79.4843C27.567 78.1579 27.2411 76.8367 27.215 75.4916C27.1877 74.0825 27.579 72.7932 28.2461 71.5602C29.4994 69.2442 31.5141 67.4875 33.8284 66.2043C36.0575 64.9683 38.4945 63.9205 39.5855 61.4894C40.7419 58.9128 40.0575 55.8609 41.9574 53.5625C42.7441 52.6108 43.8476 51.7657 45.1146 51.5479C46.3297 51.339 47.657 51.683 48.8186 52.0357Z" fill="#F5F2FD"/>
<path d="M46.2959 56.2982C46.4712 55.9612 46.9693 55.9353 47.249 56.1691C47.6171 56.4769 47.4329 56.8715 47.2649 57.2213C46.7485 58.2967 46.4357 59.4264 46.2265 60.6006C45.7915 63.0419 45.8894 65.5146 45.7425 67.981C45.5957 70.4454 45.001 72.7911 43.5512 74.8185C42.1842 76.7301 40.5929 78.4757 39.2146 80.3854C37.9997 82.0685 36.7149 83.8418 36.4927 85.9642C36.2787 88.0071 36.9078 90.0309 37.1104 92.0546C37.5298 96.2438 36.7327 100.325 35.1592 104.188C34.4285 105.982 33.5914 107.747 32.4181 109.302C31.7426 110.197 30.8314 111.407 29.6803 111.718C29.1494 111.862 28.4336 111.673 28.3138 111.054C28.2011 110.474 28.7742 109.911 29.0804 109.483C30.4062 107.634 31.4134 105.587 32.2279 103.471C33.017 101.42 33.6687 99.3125 33.8926 97.1171C34.1003 95.0796 33.9275 93.0885 33.5808 91.0693C33.2275 89.0117 32.8341 86.9319 33.2291 84.8585C33.6301 82.7525 34.8481 80.9727 36.1564 79.317C37.5401 77.5658 39.0562 75.942 40.5963 74.3251C42.097 72.7496 43.12 71.0809 43.618 68.9511C44.6021 64.7434 44.254 60.224 46.2959 56.2982Z" fill="#EBE7F6"/>
<path d="M10.6361 67.5117C12.6899 67.5117 14.4954 68.6003 15.7396 70.1451C17.196 71.9535 17.4901 74.1618 18.0815 76.3171C18.3758 77.3897 18.8819 78.4544 19.7688 79.1832C20.5756 79.8459 21.5997 79.9785 22.5654 80.3023C24.4952 80.9494 26.0535 82.5082 26.6689 84.4102C27.4197 86.7302 26.6245 89.07 26.7614 91.4212C26.8871 93.5805 29.0161 94.9276 30.7291 95.9627C32.4181 96.9835 33.9397 97.9389 34.4485 99.9274C34.9879 102.036 35.1689 104.39 34.4217 106.474C33.1777 109.943 29.537 111.47 26.0191 111.707C22.8266 111.922 18.8123 111.584 16.4147 109.267C14.98 107.88 14.4604 105.941 14.5249 104.011C14.5649 102.811 14.8026 101.622 15.1099 100.463C15.3277 99.6409 15.622 98.8226 15.7058 97.9734C15.9287 95.714 13.8405 95.2801 12.0629 94.6598C9.80421 93.8713 8.22291 92.3822 7.12332 90.3076C6.0993 88.3759 5.66965 86.2076 6.28351 84.0808C6.59704 82.9949 7.16569 82.0096 7.9369 81.1716C8.27639 80.8028 8.75488 80.4951 9.06129 80.1076C9.3473 79.7457 9.28504 79.2768 9.18647 78.8529C8.73072 76.895 7.31076 75.2738 6.80295 73.3194C6.34449 71.5553 6.61551 69.3598 8.22833 68.2218C8.92514 67.73 9.78445 67.5171 10.6361 67.5117Z" fill="#F3EFFD"/>
<path d="M13.4344 72.6141C15.6111 74.9327 16.2028 78.0787 16.3764 81.1278C16.4737 82.8376 16.3725 84.641 16.8748 86.2995C17.3046 87.7189 18.3122 88.804 19.3509 89.8295C21.4416 91.8939 23.7733 93.9926 24.3848 96.9803C24.7436 98.7336 24.5014 100.545 24.9972 102.279C25.448 103.855 26.2418 105.403 27.2073 106.734C27.9846 107.806 28.9974 108.627 29.8471 109.626C30.1064 109.931 30.4777 110.38 30.3707 110.81C30.2455 111.315 29.6032 111.474 29.1476 111.395C28.0851 111.21 27.1907 110.196 26.496 109.458C25.4802 108.38 24.617 107.22 23.9154 105.919C23.1365 104.474 22.5094 102.94 22.2414 101.319C21.9633 99.637 22.1017 97.8841 21.4667 96.27C20.3982 93.554 17.8066 91.9512 15.9328 89.8343C13.5982 87.1965 13.9464 83.9136 14.1855 80.6689C14.3168 78.8857 14.4474 76.8721 13.5464 75.244C13.2025 74.6226 12.4356 74.0431 12.2878 73.3368C12.1523 72.6896 12.8916 72.0355 13.4344 72.6141Z" fill="#EBE6F4"/>
<path d="M15.7559 110.715C15.7559 123.975 17.92 130.924 29.3445 130.924C40.769 130.924 42.933 123.975 42.933 110.715H15.7559Z" fill="#D5CCE9"/>
<path d="M97.7785 99.865C99.6038 80.6381 197.537 43.5281 215.718 61.7395C233.899 79.9508 229.297 118.256 191.197 127.008C153.096 135.761 95.9532 119.092 97.7785 99.865Z" fill="#FDFCFF"/>
<path d="M87.2135 4.52344L96.249 11.2914L92.1049 13.2687L123.485 79.0127L157.458 47.4355L163.805 91.2613L176.09 81.3772L176.902 82.3867L162.848 93.694L156.53 50.067L123.076 81.1623L90.9359 13.8267L86.793 15.8048L87.2135 4.52344Z" fill="#DFD8EF"/>
<path d="M1 130.727L241 130.273" stroke="#DFD8EF"/>
<path fill-rule="evenodd" clip-rule="evenodd" d="M96.7184 73.9715L125.214 73.7001C135.53 73.6018 143.972 81.8846 144.07 92.2C144.071 92.2593 144.071 92.3186 144.071 92.3779V129.873H132.276H75V95.8977C75 83.8691 84.6904 74.086 96.7184 73.9715Z" fill="#E4DAFF"/>
<path d="M109.688 84.6602C109.601 84.6602 109.513 84.7479 109.425 84.7479C109.338 84.7479 109.25 84.6602 109.162 84.6602H109.688Z" fill="#84DBFF"/>
<path d="M121.968 73.5222C121.968 73.5222 121.968 73.5222 121.968 73.6099C121.968 74.487 121.53 80.1004 109.689 84.5735H109.163C97.3218 80.1004 96.8833 74.487 96.8833 73.6099C96.8833 73.5222 96.8833 73.5222 96.8833 73.5222C96.8833 72.382 97.1464 71.2418 97.4096 70.1016C100.83 74.3993 104.953 77.2937 109.426 77.2937C113.899 77.2937 118.021 74.3993 121.442 70.1016C121.705 71.2418 121.968 72.382 121.968 73.5222Z" fill="#D4B69E"/>
<path d="M121.968 73.5195C121.968 73.5195 122.582 79.8346 109.426 84.7463C109.426 84.7463 119.506 85.3494 122.589 92.1919C122.616 92.2531 122.605 92.377 122.67 92.377C122.734 92.377 122.734 92.3065 122.811 92.1372C123.703 90.1876 128.182 76.9898 121.968 73.5195ZM96.8832 73.5195C90.1297 77.291 96.0062 92.5524 96.1816 92.2892C99.2514 85.2725 109.426 84.6586 109.426 84.6586C96.2693 79.8346 96.8832 73.5195 96.8832 73.5195Z" fill="#492E8E"/>
<path d="M127.844 51.3295C127.055 56.7675 124.687 61.8546 120.74 65.7138C119.951 66.5032 119.249 67.1171 118.372 67.7311L116.968 63.2579H101.883L100.479 67.7311C97.6725 65.6261 91.796 59.7496 91.7083 54.2239C89.2524 22.7364 113.372 29.4023 113.372 29.4023C129.599 28.2621 129.072 42.5586 127.844 51.3295Z" fill="#D4B69E"/>
<path d="M131.09 57.0294C129.862 59.0467 128.195 60.4501 126.616 60.9763C127.23 59.573 127.757 58.0819 128.195 56.5909C128.195 56.5909 128.195 56.5909 128.195 56.5032C128.546 55.1875 128.897 53.8719 129.248 52.5563H129.16C129.511 51.2406 129.862 49.925 130.125 48.6094C130.476 48.6094 130.827 48.7848 131.177 48.9602C133.107 50.1881 133.019 53.7842 131.09 57.0294ZM92.2346 60.9763C90.6558 60.4501 88.9894 59.0467 87.7614 57.0294C85.7441 53.7842 85.7441 50.1881 87.6737 49.0479C87.8491 48.9602 87.9368 48.8725 88.1123 48.8725C89.1648 52.9948 90.3927 56.0646 90.6558 56.6786C91.0944 58.0819 91.6206 59.573 92.2346 60.9763Z" fill="#E3D2C8"/>
<path d="M118.986 20.632C119.688 12.5628 106.882 13.089 106.882 13.089C87.4986 15.8957 85.3936 33.9638 85.3936 33.9638L88.0248 30.8062C83.9025 39.8403 90.1298 55.3647 90.6561 56.5927C93.9013 67.3809 101.093 77.292 109.426 77.292C117.758 77.292 124.95 67.3809 128.196 56.5927C128.196 56.5927 128.196 56.5927 128.196 56.505C128.546 55.1893 128.897 53.8737 129.16 52.5581H129.073C130.827 45.5413 132.756 38.4369 132.756 38.4369C137.756 13.2645 118.986 20.632 118.986 20.632ZM127.845 51.3301C127.055 56.7681 124.687 61.8552 120.74 65.7144C119.951 66.5038 119.161 67.1177 118.372 67.7317L116.969 63.3463H101.883L100.479 67.8194C97.6728 65.7144 95.3047 62.82 93.3751 59.4871C92.498 57.7329 91.9717 55.891 91.7086 54.3122C89.2527 22.8247 113.373 29.4906 113.373 29.4906C129.599 28.2627 129.073 42.5592 127.845 51.3301Z" fill="#324A5E"/>
<path d="M118.986 20.632C119.688 12.5628 106.882 13.089 106.882 13.089C87.4986 15.8957 85.3936 33.9638 85.3936 33.9638L88.0248 30.8062C83.9025 39.8403 90.1298 55.3647 90.6561 56.5927C93.9013 67.3809 101.093 77.292 109.426 77.292C117.758 77.292 124.95 67.3809 128.196 56.5927C128.196 56.5927 128.196 56.5927 128.196 56.505C128.546 55.1893 128.897 53.8737 129.16 52.5581H129.073C130.827 45.5413 132.756 38.4369 132.756 38.4369C137.756 13.2645 118.986 20.632 118.986 20.632ZM127.845 51.3301C127.055 56.7681 124.687 61.8552 120.74 65.7144C119.951 66.5038 119.161 67.1177 118.372 67.7317L116.969 63.3463H101.883L100.479 67.8194C97.6728 65.7144 95.3047 62.82 93.3751 59.4871C92.498 57.7329 91.9717 55.891 91.7086 54.3122C89.2527 22.8247 113.373 29.4906 113.373 29.4906C129.599 28.2627 129.073 42.5592 127.845 51.3301Z" fill="#324A5E"/>
<path d="M118.986 20.632C119.688 12.5628 106.882 13.089 106.882 13.089C87.4986 15.8957 85.3936 33.9638 85.3936 33.9638L88.0248 30.8062C83.9025 39.8403 90.1298 55.3647 90.6561 56.5927C93.9013 67.3809 101.093 77.292 109.426 77.292C117.758 77.292 124.95 67.3809 128.196 56.5927C128.196 56.5927 128.196 56.5927 128.196 56.505C128.546 55.1893 128.897 53.8737 129.16 52.5581H129.073C130.827 45.5413 132.756 38.4369 132.756 38.4369C137.756 13.2645 118.986 20.632 118.986 20.632ZM127.845 51.3301C127.055 56.7681 124.687 61.8552 120.74 65.7144C119.951 66.5038 119.161 67.1177 118.372 67.7317C117.536 65.1191 115.107 63.3463 112.364 63.3463H106.571C103.781 63.3463 101.315 65.1576 100.479 67.8194C97.6728 65.7144 91.7963 59.8379 91.7086 54.3122C89.2527 22.8247 113.373 29.4906 113.373 29.4906C129.599 28.2627 129.073 42.5592 127.845 51.3301Z" fill="#324A5E"/>
<path d="M103.286 66.3281C104.777 67.9946 106.97 69.1348 109.426 69.1348C111.882 69.1348 114.074 68.0823 115.565 66.3281H103.286Z" fill="white"/>
<path d="M109.645 99.957C110.197 99.957 110.645 99.5093 110.645 98.957C110.645 98.4047 110.197 97.957 109.645 97.957C109.093 97.957 108.645 98.4047 108.645 98.957C108.645 99.5093 109.093 99.957 109.645 99.957Z" fill="#492E8E"/>
<path d="M109.645 94.0352C110.197 94.0352 110.645 93.5874 110.645 93.0352C110.645 92.4829 110.197 92.0352 109.645 92.0352C109.093 92.0352 108.645 92.4829 108.645 93.0352C108.645 93.5874 109.093 94.0352 109.645 94.0352Z" fill="#492E8E"/>
<path d="M109.645 88.1172C110.197 88.1172 110.645 87.6695 110.645 87.1172C110.645 86.5649 110.197 86.1172 109.645 86.1172C109.093 86.1172 108.645 86.5649 108.645 87.1172C108.645 87.6695 109.093 88.1172 109.645 88.1172Z" fill="#492E8E"/>
<path d="M107.2 84.9219V101.066C107.2 102.399 108.28 103.478 109.612 103.478H112.243" stroke="#492E8E" stroke-width="0.644"/>
<path d="M87.5345 99.832L87.5 129.5M131.582 99.832L131.5 129.5L131.582 99.832Z" stroke="#555555" stroke-linecap="round" stroke-linejoin="round"/>
<path fill-rule="evenodd" clip-rule="evenodd" d="M144.01 53.5641C146.986 52.6692 149.204 51.8521 150.658 51.1169C151.66 50.6104 152.582 49.9997 153.424 49.2844L153.546 49.1801L191.653 49.1804C198.071 49.1804 203.275 43.9773 203.275 37.5589C203.275 31.1406 198.071 25.9375 191.653 25.9375H151.088C144.669 25.9375 139.466 31.1406 139.466 37.5589C139.466 42.9011 143.101 47.5171 148.206 48.819L148.898 48.9958L148.427 49.5332C147.3 50.8175 145.818 52.1694 144.01 53.5641Z" fill="white" stroke="black" stroke-width="0.877"/>
<path d="M148.273 42.1C148.204 42.1 148.139 42.074 148.078 42.022C148.026 41.9613 148 41.8963 148 41.827C148 41.775 148.013 41.723 148.039 41.671L150.873 37.459L148.26 33.429C148.234 33.377 148.221 33.325 148.221 33.273C148.221 33.2037 148.247 33.143 148.299 33.091C148.36 33.0303 148.425 33 148.494 33H150.483C150.674 33 150.83 33.0953 150.951 33.286L152.42 35.548L153.941 33.286C154.062 33.0953 154.214 33 154.396 33H156.294C156.363 33 156.424 33.0303 156.476 33.091C156.537 33.143 156.567 33.2037 156.567 33.273C156.567 33.325 156.554 33.377 156.528 33.429L153.889 37.433L156.749 41.671C156.775 41.723 156.788 41.775 156.788 41.827C156.788 41.8963 156.758 41.9613 156.697 42.022C156.645 42.074 156.584 42.1 156.515 42.1H154.461C154.27 42.1 154.119 42.0133 154.006 41.84L152.342 39.422L150.717 41.84C150.604 42.0133 150.453 42.1 150.262 42.1H148.273Z" fill="black"/>
<path d="M161.325 42.1C161.255 42.1 161.19 42.074 161.13 42.022C161.078 41.9613 161.052 41.8963 161.052 41.827C161.052 41.775 161.065 41.723 161.091 41.671L163.925 37.459L161.312 33.429C161.286 33.377 161.273 33.325 161.273 33.273C161.273 33.2037 161.299 33.143 161.351 33.091C161.411 33.0303 161.476 33 161.546 33H163.535C163.725 33 163.881 33.0953 164.003 33.286L165.472 35.548L166.993 33.286C167.114 33.0953 167.266 33 167.448 33H169.346C169.415 33 169.476 33.0303 169.528 33.091C169.588 33.143 169.619 33.2037 169.619 33.273C169.619 33.325 169.606 33.377 169.58 33.429L166.941 37.433L169.801 41.671C169.827 41.723 169.84 41.775 169.84 41.827C169.84 41.8963 169.809 41.9613 169.749 42.022C169.697 42.074 169.636 42.1 169.567 42.1H167.513C167.322 42.1 167.17 42.0133 167.058 41.84L165.394 39.422L163.769 41.84C163.656 42.0133 163.504 42.1 163.314 42.1H161.325Z" fill="black"/>
<path d="M174.377 42.1C174.307 42.1 174.242 42.074 174.182 42.022C174.13 41.9613 174.104 41.8963 174.104 41.827C174.104 41.775 174.117 41.723 174.143 41.671L176.977 37.459L174.364 33.429C174.338 33.377 174.325 33.325 174.325 33.273C174.325 33.2037 174.351 33.143 174.403 33.091C174.463 33.0303 174.528 33 174.598 33H176.587C176.777 33 176.933 33.0953 177.055 33.286L178.524 35.548L180.045 33.286C180.166 33.0953 180.318 33 180.5 33H182.398C182.467 33 182.528 33.0303 182.58 33.091C182.64 33.143 182.671 33.2037 182.671 33.273C182.671 33.325 182.658 33.377 182.632 33.429L179.993 37.433L182.853 41.671C182.879 41.723 182.892 41.775 182.892 41.827C182.892 41.8963 182.861 41.9613 182.801 42.022C182.749 42.074 182.688 42.1 182.619 42.1H180.565C180.374 42.1 180.222 42.0133 180.11 41.84L178.446 39.422L176.821 41.84C176.708 42.0133 176.556 42.1 176.366 42.1H174.377Z" fill="black"/>
<path d="M187.428 42.1C187.359 42.1 187.294 42.074 187.233 42.022C187.181 41.9613 187.155 41.8963 187.155 41.827C187.155 41.775 187.168 41.723 187.194 41.671L190.028 37.459L187.415 33.429C187.389 33.377 187.376 33.325 187.376 33.273C187.376 33.2037 187.402 33.143 187.454 33.091C187.515 33.0303 187.58 33 187.649 33H189.638C189.829 33 189.985 33.0953 190.106 33.286L191.575 35.548L193.096 33.286C193.218 33.0953 193.369 33 193.551 33H195.449C195.519 33 195.579 33.0303 195.631 33.091C195.692 33.143 195.722 33.2037 195.722 33.273C195.722 33.325 195.709 33.377 195.683 33.429L193.044 37.433L195.904 41.671C195.93 41.723 195.943 41.775 195.943 41.827C195.943 41.8963 195.913 41.9613 195.852 42.022C195.8 42.074 195.74 42.1 195.67 42.1H193.616C193.426 42.1 193.274 42.0133 193.161 41.84L191.497 39.422L189.872 41.84C189.76 42.0133 189.608 42.1 189.417 42.1H187.428Z" fill="black"/>
<g clip-path="url(#clip1)">
<path d="M173.342 48.565C172.621 48.6217 171.997 49.0776 171.737 49.7518L163.235 71.5105L155.687 75.8684C153.897 76.9017 153.281 79.2019 154.314 80.9915L161.815 93.9833C162.85 95.7761 165.148 96.3892 166.938 95.356L174.486 90.9981L197.577 94.5167C198.008 94.5799 198.438 94.4919 198.798 94.2838C199.039 94.145 199.247 93.951 199.409 93.7145C199.816 93.1205 199.845 92.3458 199.485 91.7222L175.107 49.4991C174.747 48.8755 174.062 48.5134 173.342 48.565Z" fill="#DACAFF"/>
<path d="M188.885 54.3828C187.882 54.1221 186.861 54.7244 186.596 55.7215C186.336 56.7252 186.935 57.7478 187.937 58.0136C191.791 59.0189 195.023 61.4965 197.039 64.988C199.055 68.4795 199.585 72.5173 198.528 76.3579C198.253 77.3523 198.841 78.3856 199.841 78.6617C200.345 78.7994 200.856 78.7167 201.271 78.4767C201.684 78.2385 202.006 77.8445 202.143 77.3456C203.472 72.5376 202.809 67.4813 200.287 63.1128C197.765 58.7443 193.718 55.6419 188.885 54.3828Z" fill="#C3B3E3"/>
<path d="M190.826 47.1582C189.82 46.8942 188.798 47.4933 188.532 48.4955C188.269 49.4959 188.87 50.5218 189.867 50.7862C195.674 52.3145 200.527 56.0255 203.535 61.2352C206.543 66.4449 207.328 72.5004 205.748 78.2929C205.481 79.2919 206.069 80.3253 207.066 80.5981C207.572 80.7307 208.079 80.6499 208.495 80.4098C208.907 80.1717 209.233 79.7758 209.37 79.2769C211.217 72.5157 210.295 65.4434 206.783 59.36C203.271 53.2766 197.607 48.9422 190.826 47.1582Z" fill="#A998D2"/>
</g>
</g>
<defs>
<clipPath id="clip0">
<rect width="241" height="132" fill="white"/>
</clipPath>
<clipPath id="clip1">
<rect width="56.2558" height="56.2558" fill="white" transform="translate(144 63.1289) rotate(-30)"/>
</clipPath>
</defs>
</svg>
