<svg width="20" height="20" viewBox="0 0 20 20" fill="none" xmlns="http://www.w3.org/2000/svg">
<circle cx="10" cy="10" r="9.5" fill="#D5C7F7" stroke="#A38CEB"/>
<path d="M6.56 14C6.49333 14 6.43666 13.9767 6.39 13.93C6.34333 13.8833 6.32 13.8267 6.32 13.76V8.25H4.47C4.40333 8.25 4.34666 8.22667 4.3 8.18C4.25333 8.13333 4.23 8.07333 4.23 8V7.25C4.23 7.17667 4.25 7.11667 4.29 7.07C4.33666 7.02333 4.39666 7 4.47 7H9.58C9.65333 7 9.71333 7.02333 9.76 7.07C9.80666 7.11667 9.83 7.17667 9.83 7.25V8C9.83 8.07333 9.80666 8.13333 9.76 8.18C9.71333 8.22667 9.65333 8.25 9.58 8.25H7.74V13.76C7.74 13.8267 7.71666 13.8833 7.67 13.93C7.63 13.9767 7.57333 14 7.5 14H6.56Z" fill="#4F2DA7"/>
<path d="M11.0844 14C11.0178 14 10.9611 13.9767 10.9144 13.93C10.8678 13.8833 10.8444 13.8267 10.8444 13.76V7.25C10.8444 7.17667 10.8644 7.11667 10.9044 7.07C10.9511 7.02333 11.0111 7 11.0844 7H15.4344C15.5078 7 15.5678 7.02333 15.6144 7.07C15.6611 7.11667 15.6845 7.17667 15.6845 7.25V7.97C15.6845 8.03667 15.6611 8.09333 15.6144 8.14C15.5678 8.18667 15.5078 8.21 15.4344 8.21H12.2344V10.09H15.2344C15.3078 10.09 15.3678 10.1133 15.4144 10.16C15.4611 10.2067 15.4844 10.2633 15.4844 10.33V11.05C15.4844 11.1167 15.4611 11.1733 15.4144 11.22C15.3678 11.2667 15.3078 11.29 15.2344 11.29H12.2344V13.76C12.2344 13.8267 12.2111 13.8833 12.1644 13.93C12.1178 13.9767 12.0578 14 11.9844 14H11.0844Z" fill="#4F2DA7"/>
</svg>
