<svg width="54" height="54" viewBox="0 0 54 54" fill="none" xmlns="http://www.w3.org/2000/svg">
<g opacity="0.04">
<path d="M27.4726 43.202C27.6807 43.202 27.8537 43.0521 27.8896 42.8544L27.8964 42.7783V40.529L27.77 40.2271C27.3652 39.8283 26.1916 39.6841 24.0289 39.6821L23.4903 39.6858C21.5992 39.7155 20.625 39.9276 20.3853 40.5021C20.2952 40.7181 20.3972 40.9663 20.6132 41.0564C20.8292 41.1465 21.0774 41.0445 21.1675 40.8285L21.1987 40.8136C21.2699 40.784 21.4633 40.7162 21.7786 40.662C22.2924 40.5736 23.0444 40.5287 24.0281 40.5296L24.5755 40.5343C25.7978 40.5547 26.6303 40.6389 26.992 40.7458L27.0487 40.7653L27.0488 42.7783C27.0488 42.9863 27.1987 43.1593 27.3964 43.1952L27.4726 43.202Z" fill="url(#paint0_linear)"/>
<path fill-rule="evenodd" clip-rule="evenodd" d="M27.9895 44.7646C27.9895 44.8119 27.743 44.8502 27.4394 44.8502C27.1357 44.8502 26.8892 44.8119 26.8892 44.7646V44.5356C19.0276 44.4959 12.6675 43.5499 12.2201 42.3597C12.2057 42.3204 12.3653 42.2845 12.6062 42.2729C12.8476 42.2612 13.1098 42.2768 13.2403 42.3104C13.9933 42.5042 15.38 42.6354 16.9786 42.6353C18.7551 42.6354 20.2735 42.4735 20.9443 42.2439C21.0337 42.2134 21.23 42.1937 21.4456 42.1937C21.6612 42.1937 21.8575 42.2134 21.9462 42.244C22.8029 42.5384 24.5613 42.7944 27.4038 42.7944C30.2463 42.7944 32.0142 42.5352 32.8621 42.244C32.9509 42.2134 33.1463 42.1938 33.3627 42.1937C33.5784 42.1937 33.7738 42.2134 33.8633 42.2439C34.5337 42.4735 36.0524 42.6354 37.829 42.6353C39.4276 42.6353 40.8147 42.5042 41.5672 42.3104C41.6974 42.2768 41.9597 42.2612 42.2013 42.2729C42.4419 42.2845 42.6018 42.3204 42.5875 42.3597C42.1416 43.5463 35.8177 44.4903 27.9895 44.5353V44.7646Z" fill="url(#paint1_linear)"/>
</g>
<path d="M21.3234 35.7227C21.3234 35.7227 21.5411 39.319 24.342 39.3008C27.1429 39.2827 27.5389 36.5942 27.5389 36.5942V22.2081" stroke="#4F2DA7" stroke-width="1.10185" stroke-linecap="round" stroke-linejoin="bevel"/>
<path fill-rule="evenodd" clip-rule="evenodd" d="M28.1383 9.55111C28.1383 9.24653 27.8861 9 27.5753 9C27.2646 9 27.0124 9.24653 27.0124 9.55111V11.0244C18.9673 11.2801 12.4588 17.3669 12.0009 25.0252C11.9863 25.2779 12.1495 25.5087 12.3961 25.5836C12.6431 25.6586 12.9114 25.5586 13.045 25.3422C13.8155 24.0952 15.2345 23.2513 16.8705 23.2517C18.6885 23.2513 20.2422 24.2925 20.9287 25.7699C21.0203 25.9664 21.221 26.0928 21.4417 26.0928C21.6624 26.0928 21.8632 25.9661 21.954 25.7692C22.8307 23.8752 24.6301 22.2277 27.5389 22.2277C30.4478 22.2277 32.2569 23.8957 33.1246 25.7692C33.2154 25.9661 33.4155 26.0925 33.6369 26.0928C33.8576 26.0928 34.0576 25.9664 34.1492 25.7699C34.8353 24.2925 36.3894 23.2513 38.2074 23.2517C39.8433 23.2517 41.2627 24.0952 42.0329 25.3422C42.1661 25.5586 42.4345 25.6586 42.6818 25.5836C42.928 25.5087 43.0916 25.2776 43.077 25.0252C42.6206 17.3901 36.1492 11.3161 28.1383 11.0262V9.55111Z" fill="#4F2DA7"/>
<path fill-rule="evenodd" clip-rule="evenodd" d="M16.9973 21.9474C15.6902 21.9474 14.4924 22.4067 13.5539 23.169C14.5977 17.6238 18.9928 13.2257 24.6095 12.1078C24.3902 12.3397 24.1797 12.5941 23.9791 12.8723C23.0824 14.1205 22.3551 15.8207 21.8266 17.8342C21.3726 19.5691 21.07 21.5381 20.9571 23.645C19.965 22.6001 18.5582 21.9478 16.9973 21.9474Z" fill="#A998D2"/>
<path fill-rule="evenodd" clip-rule="evenodd" d="M27.5402 21.2622C25.367 21.2626 23.4185 22.2019 22.1003 23.6876C22.3013 20.5329 22.9546 17.7293 23.8783 15.6784C24.4004 14.5158 25.0101 13.5986 25.6429 12.9964C25.9591 12.6945 26.2795 12.4715 26.5957 12.3252C26.9119 12.1793 27.2229 12.1082 27.5402 12.1078C27.858 12.1082 28.169 12.1793 28.4848 12.3252C29.0375 12.5797 29.6058 13.0768 30.1368 13.8031C30.9344 14.8906 31.6392 16.4781 32.1486 18.3949C32.5674 19.9665 32.8545 21.7608 32.9776 23.6846C31.6597 22.2012 29.7128 21.2626 27.5402 21.2622Z" fill="#A998D2"/>
<path fill-rule="evenodd" clip-rule="evenodd" d="M38.2612 21.9478C36.6995 21.9482 35.292 22.6008 34.2999 23.6461C34.118 20.2584 33.4498 17.23 32.442 14.9484C31.9311 13.7957 31.334 12.8334 30.6467 12.1078C36.2646 13.2249 40.6608 17.6234 41.7042 23.169C40.766 22.4071 39.5682 21.9482 38.2612 21.9478Z" fill="#A998D2"/>
<defs>
<linearGradient id="paint0_linear" x1="20.3525" y1="43.202" x2="20.3525" y2="39.6821" gradientUnits="userSpaceOnUse">
<stop stop-color="#C1A3F1"/>
<stop stop-color="#C1A3F1"/>
<stop offset="0.539889" stop-color="#D2BFFF"/>
<stop offset="1" stop-color="#2F0F83"/>
</linearGradient>
<linearGradient id="paint1_linear" x1="12.2192" y1="44.8502" x2="12.2192" y2="42.1937" gradientUnits="userSpaceOnUse">
<stop stop-color="#C1A3F1"/>
<stop stop-color="#C1A3F1"/>
<stop offset="0.539889" stop-color="#D2BFFF"/>
<stop offset="1" stop-color="#2F0F83"/>
</linearGradient>
</defs>
</svg>
