<svg width="110" height="74" viewBox="0 0 110 74" fill="none" xmlns="http://www.w3.org/2000/svg">
<path fill-rule="evenodd" clip-rule="evenodd" d="M80.5288 20.1465C79.4953 20.1465 78.4639 20.2506 77.4511 20.4583C76.6874 16.5956 74.2182 13.3007 70.7514 11.5172C67.2853 9.73373 63.2031 9.65892 59.6749 11.3137C56.482 2.40132 46.764 -2.2003 37.969 1.03524C29.174 4.27078 24.6331 14.1193 27.826 23.031C20.1217 23.2778 14.0361 29.7398 14.1513 37.5497C14.2672 45.3603 20.5419 51.6336 28.2503 51.6461H80.5288C89.112 51.6461 96.0711 44.5948 96.0711 35.8963C96.0711 27.1978 89.112 20.1465 80.5288 20.1465Z" fill="#F2EEFF"/>
<ellipse rx="12.2697" ry="21.0822" transform="matrix(0.496235 -0.868188 0.863835 0.503774 24.3002 48.6986)" fill="url(#paint0_linear)"/>
<path d="M36.5044 46.1771C36.5044 46.1771 35.6039 49.1289 35.6772 51.3769C35.7505 53.625 37.9515 56.7652 37.9515 56.7652L37.5504 56.5308C37.5504 56.5308 35.4773 53.3021 35.4766 51.2598C35.476 49.2174 36.5044 46.1771 36.5044 46.1771Z" fill="#CFC2F2"/>
<path d="M24.3251 59.0875C24.3251 59.0875 26.4009 56.8224 28.3613 55.7626C30.3217 54.7029 34.2252 54.8588 34.2252 54.8588L33.8241 54.6244C33.8241 54.6244 29.9088 54.6248 28.1607 55.6454C26.4127 56.6661 24.3251 59.0875 24.3251 59.0875Z" fill="#CFC2F2"/>
<path d="M27.7185 38.6083C27.7185 38.6083 26.3548 42.372 26.4282 44.62C26.5015 46.8681 28.1235 51.0231 28.1235 51.0231L27.7224 50.7887C27.7224 50.7887 26.2282 46.5452 26.2276 44.5028C26.227 42.4605 27.7185 38.6083 27.7185 38.6083Z" fill="#CFC2F2"/>
<path d="M13.5721 54.9692C13.5721 54.9692 16.111 51.8922 18.0714 50.8324C20.0319 49.7727 24.3985 49.1167 24.3985 49.1167L23.9974 48.8824C23.9974 48.8824 19.6189 49.6946 17.8709 50.7153C16.1228 51.7359 13.5721 54.9692 13.5721 54.9692Z" fill="#CFC2F2"/>
<path d="M17.5652 37.9452C17.5652 37.9452 17.5577 41.0949 18.2088 42.7348C18.8599 44.3746 21.1608 47.0013 21.1608 47.0013L20.8024 46.9374C20.8024 46.9374 18.5724 44.2106 18.0296 42.7028C17.4868 41.195 17.5652 37.9452 17.5652 37.9452Z" fill="#CFC2F2"/>
<path d="M9.41532 46.6725C9.41532 46.6725 11.2539 45.1036 12.5365 44.6792C13.8191 44.2547 16.4983 44.3284 16.4983 44.3284L16.2829 44.1454C16.2829 44.1454 13.5803 44.164 12.4288 44.5877C11.2773 45.0114 9.41532 46.6725 9.41532 46.6725Z" fill="#CFC2F2"/>
<path d="M6.00312 38.2367L49.4842 63.2329L49.1368 63.8418L6.00312 38.2367Z" fill="#CFC2F2"/>
<ellipse rx="9.89288" ry="17.1356" transform="matrix(0.762247 -0.647286 0.638277 0.769807 25.1687 33.142)" fill="url(#paint1_linear)"/>
<path d="M35.1579 34.6405C35.1579 34.6405 33.6653 36.6337 33.1061 38.3643C32.5468 40.0949 33.362 43.1004 33.362 43.1004L33.121 42.8097C33.121 42.8097 32.4273 39.7728 32.9856 38.2189C33.5438 36.6651 35.1579 34.6405 35.1579 34.6405Z" fill="#DACDF7"/>
<path d="M22.3616 41.0491C22.3616 41.0491 24.5603 39.9076 26.3415 39.6507C28.1227 39.3939 31.0495 40.6063 31.0495 40.6063L30.8085 40.3156C30.8085 40.3156 27.83 39.2188 26.221 39.5054C24.612 39.792 22.3616 41.0491 22.3616 41.0491Z" fill="#DACDF7"/>
<path d="M30.5456 26.4212C30.5456 26.4212 28.4786 28.9022 27.9193 30.6328C27.3601 32.3634 27.4572 35.9787 27.4572 35.9787L27.2162 35.688C27.2162 35.688 27.2406 32.0413 27.7988 30.4875C28.3571 28.9337 30.5456 26.4212 30.5456 26.4212Z" fill="#DACDF7"/>
<path d="M15.3079 34.903C15.3079 34.903 18.0811 33.2737 19.8623 33.0168C21.6435 32.76 25.1447 33.4845 25.1447 33.4845L24.9037 33.1939C24.9037 33.1939 21.3508 32.5849 19.7418 32.8715C18.1328 33.1581 15.3079 34.903 15.3079 34.903Z" fill="#DACDF7"/>
<path d="M23.0036 23.072C23.0036 23.072 22.1362 25.4659 22.1829 26.8958C22.2295 28.3256 23.2612 30.9685 23.2612 30.9685L23.0061 30.8194C23.0061 30.8194 22.0557 28.1203 22.0553 26.8212C22.0549 25.5222 23.0036 23.072 23.0036 23.072Z" fill="#DACDF7"/>
<path d="M14.4155 27.4271C14.4155 27.4271 16.2433 26.7488 17.3351 26.7853C18.4269 26.8218 20.4449 27.6286 20.4449 27.6286L20.331 27.4291C20.331 27.4291 18.2701 26.6859 17.2782 26.6856C16.2863 26.6852 14.4155 27.4271 14.4155 27.4271Z" fill="#DACDF7"/>
<path d="M14.1279 20.0539L40.3655 51.252L39.9346 51.6179L14.1279 20.0539Z" fill="#DACDF7"/>
<ellipse rx="12.2206" ry="21.1675" transform="matrix(0.762247 0.647286 -0.638277 0.769807 79.7032 33.5058)" fill="url(#paint2_linear)"/>
<path d="M80.0443 46.1254C80.0443 46.1254 77.3282 44.7153 75.1279 44.3981C72.9276 44.0808 69.4896 45.7291 69.4896 45.7291L69.7873 45.37C69.7873 45.37 73.2892 43.8645 75.2768 44.2185C77.2643 44.5725 80.0443 46.1254 80.0443 46.1254Z" fill="#C1B5E7"/>
<path d="M69.5959 31.7458C69.5959 31.7458 71.4397 34.2079 72.1305 36.3457C72.8214 38.4836 71.9918 42.3469 71.9918 42.3469L72.2895 41.9878C72.2895 41.9878 72.969 38.0856 72.2794 36.1662C71.5898 34.2468 69.5959 31.7458 69.5959 31.7458Z" fill="#C1B5E7"/>
<path d="M88.935 38.684C88.935 38.684 85.5093 36.6714 83.309 36.3541C81.1087 36.0368 76.7837 36.9318 76.7837 36.9318L77.0814 36.5728C77.0814 36.5728 81.4703 35.8205 83.4579 36.1745C85.4454 36.5285 88.935 38.684 88.935 38.684Z" fill="#C1B5E7"/>
<path d="M75.4707 21.7431C75.4707 21.7431 78.0241 24.8078 78.715 26.9456C79.4058 29.0835 79.2859 33.5494 79.2859 33.5494L79.5836 33.1903C79.5836 33.1903 79.5535 28.6855 78.8638 26.7661C78.1742 24.8467 75.4707 21.7431 75.4707 21.7431Z" fill="#C1B5E7"/>
<path d="M91.3438 28.6799C91.3438 28.6799 88.2801 28.1255 86.5713 28.4897C84.8625 28.8538 81.9069 30.6909 81.9069 30.6909L82.0313 30.3448C82.0313 30.3448 85.072 28.5958 86.6335 28.3166C88.195 28.0375 91.3438 28.6799 91.3438 28.6799Z" fill="#C1B5E7"/>
<path d="M84.2663 19.0413C84.2663 19.0413 85.4737 21.1462 85.6641 22.4982C85.8544 23.8501 85.3175 26.5076 85.3175 26.5076L85.5329 26.3246C85.5329 26.3246 85.9842 23.6279 85.7718 22.4067C85.5594 21.1855 84.2663 19.0413 84.2663 19.0413Z" fill="#C1B5E7"/>
<path d="M93.0679 17.1055L61.1933 56.0999L60.6611 55.648L93.0679 17.1055Z" fill="#C1B5E7"/>
<ellipse rx="11.5571" ry="17.8872" transform="matrix(0.638277 0.769807 -0.762247 0.647286 88.9878 47.2579)" fill="url(#paint3_linear)"/>
<path d="M87.5398 57.9471C87.5398 57.9471 85.479 56.3665 83.6896 55.7743C81.9002 55.182 78.7927 56.0453 78.7927 56.0453L79.0932 55.79C79.0932 55.79 82.2333 55.0555 83.8399 55.6466C85.4465 56.2378 87.5398 57.9471 87.5398 57.9471Z" fill="#B19DE3"/>
<path d="M80.9139 44.3961C80.9139 44.3961 82.0942 46.7244 82.3597 48.6107C82.6253 50.4969 81.3718 53.5962 81.3718 53.5962L81.6723 53.3409C81.6723 53.3409 82.8063 50.1869 82.51 48.4831C82.2137 46.7792 80.9139 44.3961 80.9139 44.3961Z" fill="#B19DE3"/>
<path d="M96.0378 53.0629C96.0378 53.0629 93.4726 50.8739 91.6832 50.2817C89.8938 49.6895 86.1558 49.7923 86.1558 49.7923L86.4564 49.5371C86.4564 49.5371 90.2269 49.5629 91.8335 50.1541C93.4401 50.7453 96.0378 53.0629 96.0378 53.0629Z" fill="#B19DE3"/>
<path d="M87.2683 36.9265C87.2683 36.9265 88.9529 39.8632 89.2185 41.7494C89.4841 43.6356 88.7349 47.3432 88.7349 47.3432L89.0355 47.088C89.0355 47.088 89.6651 43.3256 89.3688 41.6218C89.0725 39.918 87.2683 36.9265 87.2683 36.9265Z" fill="#B19DE3"/>
<path d="M99.501 45.076C99.501 45.076 97.0258 44.1574 95.5474 44.2068C94.069 44.2562 91.3364 45.3487 91.3364 45.3487L91.4905 45.0786C91.4905 45.0786 94.2813 44.0722 95.6245 44.0717C96.9676 44.0713 99.501 45.076 99.501 45.076Z" fill="#B19DE3"/>
<path d="M94.998 35.9821C94.998 35.9821 95.6994 37.9177 95.6617 39.0739C95.6239 40.23 94.7898 42.3669 94.7898 42.3669L94.996 42.2464C94.996 42.2464 95.7645 40.064 95.7648 39.0136C95.7651 37.9632 94.998 35.9821 94.998 35.9821Z" fill="#B19DE3"/>
<path d="M102.622 35.6774L75.613 59.0048L75.2347 58.5486L102.622 35.6774Z" fill="#B19DE3"/>
<path d="M31.4813 38.4881C31.4813 36.8752 32.7888 35.5676 34.4018 35.5676H76.7053C78.3182 35.5676 79.6257 36.8752 79.6257 38.4881V63.2981C79.6257 64.1283 78.9527 64.8013 78.1225 64.8013H33.4855C32.3786 64.8013 31.4813 63.904 31.4813 62.7971V38.4881Z" fill="#FFDA2C"/>
<path fill-rule="evenodd" clip-rule="evenodd" d="M31.4813 38.491H79.6257V62.8156C79.6257 63.9123 78.7459 64.8013 77.6606 64.8013H33.4464C32.3611 64.8013 31.4813 63.9123 31.4813 62.8156V38.491Z" fill="#B39712"/>
<path fill-rule="evenodd" clip-rule="evenodd" d="M39.6663 25.3354H70.4681C71.0057 25.3354 71.4415 25.7713 71.4415 26.3089V42.3884H39.6663V25.3354Z" fill="#DFD8EF"/>
<path d="M38.7028 25.8221C38.7028 25.2845 39.1386 24.8486 39.6762 24.8486H69.5046C70.0422 24.8486 70.478 25.2845 70.478 25.8221V42.3888H38.7028V25.8221Z" fill="white"/>
<path fill-rule="evenodd" clip-rule="evenodd" d="M43.0472 29.7209C42.5096 29.7209 42.0737 30.1568 42.0737 30.6944V36.5431C42.0737 37.0807 42.5096 37.5166 43.0472 37.5166H48.8034C49.341 37.5166 49.7768 37.0807 49.7768 36.5431V30.6944C49.7768 30.1568 49.341 29.7209 48.8034 29.7209H43.0472ZM53.1521 31.6699C52.8831 31.6699 52.6649 31.888 52.6649 32.1571C52.6649 32.4262 52.8831 32.6443 53.1521 32.6443H67.5839C67.853 32.6443 68.0711 32.4262 68.0711 32.1571C68.0711 31.888 67.853 31.6699 67.5839 31.6699H53.1521ZM53.1521 34.5932C52.8831 34.5932 52.6649 34.8113 52.6649 35.0804C52.6649 35.3495 52.8831 35.5676 53.1521 35.5676H60.8437C61.1128 35.5676 61.3309 35.3495 61.3309 35.0804C61.3309 34.8113 61.1128 34.5932 60.8437 34.5932H53.1521ZM42.0732 39.9527C42.0732 39.6836 42.2914 39.4654 42.5605 39.4654H67.584C67.8531 39.4654 68.0712 39.6836 68.0712 39.9527C68.0712 40.2218 67.8531 40.4399 67.584 40.4399H42.5605C42.2914 40.4399 42.0732 40.2218 42.0732 39.9527Z" fill="#DFD8EF"/>
<path fill-rule="evenodd" clip-rule="evenodd" d="M31.7054 42.3889H76.5826C77.5137 42.3889 78.3007 43.0835 78.4223 44.0127L79.4222 62.6898C79.556 63.7124 78.8409 64.6507 77.8249 64.7854C77.7446 64.7961 77.6636 64.8014 77.5826 64.8014H33.0757C32.1584 64.8014 31.3788 64.1267 31.2412 63.2138L29.8709 44.5367C29.7172 43.5169 30.4139 42.5647 31.4271 42.41C31.5192 42.396 31.6122 42.3889 31.7054 42.3889Z" fill="#FFDA2C"/>
<path d="M54.8845 46.5304H54.8252L54.7726 46.5576L48.5139 49.7953L48.3746 49.8674L48.3827 50.024C48.3883 50.1325 48.397 50.2545 48.4094 50.3889C48.4517 50.8492 48.528 51.3616 48.6464 51.9128C48.9847 53.4875 49.5938 55.0635 50.5404 56.5323L50.5404 56.5323C51.5834 58.1506 52.975 59.5368 54.7578 60.624L54.8845 60.7012L55.0112 60.624C56.7935 59.537 58.1851 58.1511 59.228 56.533C60.1749 55.0642 60.7841 53.488 61.1225 51.913C61.2409 51.3618 61.3172 50.8493 61.3596 50.389C61.372 50.2546 61.3807 50.1326 61.3863 50.024L61.3944 49.8674L61.2551 49.7953L54.9964 46.5576L54.9438 46.5304H54.8845H54.8845Z" fill="#5F40AF" stroke="#987DDF" stroke-width="0.48674"/>
<path fill-rule="evenodd" clip-rule="evenodd" d="M48.6257 50.0114C48.6312 50.1165 48.6396 50.2352 48.6517 50.3666C48.6932 50.8169 48.7679 51.3197 48.8844 51.8617C49.2171 53.4103 49.8157 54.9585 50.7449 56.4005C51.7681 57.9881 53.1333 59.3483 54.8845 60.4162C54.8845 57.98 54.8846 53.5949 54.8845 46.7738C51.7551 48.3926 48.6257 50.0114 48.6257 50.0114Z" fill="#6E54B7"/>
<path fill-rule="evenodd" clip-rule="evenodd" d="M61.1431 50.0114C61.1376 50.1165 61.1292 50.2352 61.1171 50.3666C61.0756 50.8169 61.0009 51.3197 60.8844 51.8617C60.5517 53.4103 59.9531 54.9585 59.0238 56.4005C58.0007 57.9881 56.6355 59.3483 54.8843 60.4162C54.8843 57.98 54.8842 53.5949 54.8843 46.7738C58.0137 48.3926 61.1431 50.0114 61.1431 50.0114Z" fill="#7F66BF"/>
<rect x="52.8951" y="49.0261" width="3.59689" height="4.24679" rx="1.01013" stroke="white" stroke-width="0.505065"/>
<rect x="51.9961" y="51.7561" width="5.39534" height="5.46016" rx="1.01013" fill="#DFD8EF"/>
<ellipse cx="54.6934" cy="54.4862" rx="0.899223" ry="0.910027" fill="#4F2DA7"/>
<path fill-rule="evenodd" clip-rule="evenodd" d="M54.4317 54.7896C54.3856 55.8253 54.473 56.3431 54.6939 56.3431C54.9148 56.3431 55.0009 55.8253 54.9521 54.7896H54.4317Z" fill="#4F2DA7"/>
<path fill-rule="evenodd" clip-rule="evenodd" d="M51.3686 18.3646C51.2736 18.4607 51.2203 18.5904 51.2203 18.7256C51.2203 19.1848 51.7767 19.4133 52.0994 19.0867L54.5907 16.5655V21.4438C54.5907 21.7097 54.8062 21.9252 55.0721 21.9252C55.338 21.9252 55.5536 21.7097 55.5536 21.4438V16.566L58.0444 19.0867C58.3671 19.4133 58.9234 19.1848 58.9234 18.7256C58.9234 18.5904 58.8702 18.4607 58.7751 18.3646L55.0719 14.6168L51.3686 18.3646Z" fill="#DFD8EF"/>
<defs>
<linearGradient id="paint0_linear" x1="23.9343" y1="41.3819" x2="23.9343" y2="1.29669" gradientUnits="userSpaceOnUse">
<stop stop-color="#DCCFFF"/>
<stop offset="1" stop-color="#DCCFFF"/>
</linearGradient>
<linearGradient id="paint1_linear" x1="19.2348" y1="34.2712" x2="19.2348" y2="1.90876" gradientUnits="userSpaceOnUse">
<stop stop-color="#DFD2FF"/>
<stop offset="1" stop-color="#EFE9FF"/>
</linearGradient>
<linearGradient id="paint2_linear" x1="24.0654" y1="42.335" x2="24.0654" y2="1.30194" gradientUnits="userSpaceOnUse">
<stop stop-color="#D0C2F4"/>
<stop offset="1" stop-color="#D5C5FF"/>
</linearGradient>
<linearGradient id="paint3_linear" x1="22.5442" y1="35.1105" x2="22.5442" y2="1.10018" gradientUnits="userSpaceOnUse">
<stop stop-color="#BEABED"/>
<stop offset="1" stop-color="#D0BEFF"/>
</linearGradient>
</defs>
</svg>
