<svg width="110" height="74" viewBox="0 0 110 74" fill="none" xmlns="http://www.w3.org/2000/svg">
<path d="M12.223 71.552C3.0048 71.2245 -0.829796 57.0214 0.148564 49.8078C0.831761 44.7704 3.29673 40.248 4.85219 35.4624C6.69145 29.8034 5.88174 24.4558 5.74536 18.6316C5.55932 10.686 12.1326 4.99761 19.1128 2.45676C26.345 -0.175728 37.0547 -0.690376 42.7934 5.20399C46.6994 9.21612 49.3195 14.1261 53.679 17.7407C60.2225 23.1662 68.6979 26.1619 77.0944 27.2076C83.7887 28.0412 90.5796 28.875 96.5534 32.335C104.135 36.7262 108.839 44.1645 109.274 52.7701C109.58 58.8104 103.547 67.0798 99.9185 71.6406C99.1295 72.6321 100.326 71.6375 12.223 71.552Z" fill="#F6F2FF"/>
<path d="M29.777 -6.00815e-05C29.132 0.00287342 28.4868 0.027132 27.8453 0.071928C27.6026 1.75342 26.8267 3.37252 25.5214 4.65795C22.3309 7.79888 17.1639 7.77743 14 4.61056C13.9384 4.54906 13.8776 4.48542 13.8183 4.42133C13.2543 4.73795 12.6996 5.07015 12.1545 5.41701C12.3096 5.59811 12.4737 5.77447 12.6448 5.94519C16.5478 9.85386 22.9278 9.88173 26.8652 6.00454C28.5654 4.33027 29.537 2.19766 29.777 -6.00815e-05Z" fill="white"/>
<path d="M53.9022 10.4153C54.5148 12.3083 55.725 13.974 57.0675 15.4592C61.3224 20.1662 67.1254 23.3338 73.2861 24.8193C77.9708 25.9489 87.5 27.5106 91.0799 23.1921C96.2299 16.9793 82.8833 13.4315 79.2421 12.0268C76.2712 10.8805 74.1317 8.68018 72.3459 6.12002C70.0377 2.81086 66.0168 -0.127407 61.7229 0.00427437C56.7339 0.15728 52.4307 4.98782 53.772 9.97633C53.8118 10.124 53.8552 10.2704 53.9022 10.4153Z" fill="#F6F2FF"/>
<path d="M67.2267 15.9317C66.578 15.9317 65.9825 15.6926 65.5284 15.2984C64.9844 14.8258 64.6388 14.1323 64.6388 13.3605C64.6388 12.9698 64.7271 12.5976 64.887 12.2654C65.3006 11.3951 66.1938 10.791 67.2267 10.791C68.6548 10.791 69.8164 11.9443 69.8164 13.3605C69.8164 14.7783 68.6548 15.9317 67.2267 15.9317ZM67.2267 10.6085C66.2177 10.6085 65.3318 11.1486 64.8484 11.9516C64.5985 12.364 64.4551 12.8457 64.4551 13.3605C64.4551 14.2838 64.9165 15.1031 65.6204 15.6032C66.0744 15.9243 66.6275 16.1141 67.2267 16.1141C68.7559 16.1141 70.0001 14.8787 70.0001 13.3605C70.0001 11.8439 68.7559 10.6085 67.2267 10.6085Z" fill="white"/>
<path d="M80.6086 15.981C80.6086 15.981 80.937 12.6801 80.1338 10.7883C79.3306 8.8965 78.6786 8.44301 77.665 8.42586C76.6515 8.40871 76.3371 10.1277 76.8026 11.1471C77.2679 12.1665 78.2517 13.7989 80.6086 15.981Z" fill="#F0D19A"/>
<path d="M79.0614 16.8516C79.0614 16.8516 78.1073 13.6985 76.6475 12.304C75.1877 10.9096 74.4147 10.7667 73.4748 11.1731C72.5351 11.5794 72.9001 13.2812 73.7166 14.019C74.5333 14.7569 76.0604 15.839 79.0614 16.8516Z" fill="#F0D19A"/>
<path d="M78.9431 18.1714C78.9431 18.1714 77.3056 17.1549 76.1086 17.1385C74.9117 17.122 74.5051 17.3804 74.2318 17.955C73.9587 18.5294 74.7742 19.1406 75.4277 19.1309C76.0811 19.1212 77.1897 18.9693 78.9431 18.1714Z" fill="#F0D19A"/>
<path d="M83.3396 13.6578C83.3396 13.6578 85.3221 11.5314 87.0272 11.0155C88.7325 10.4997 89.4047 10.7019 89.9976 11.4106C90.5903 12.1194 89.6399 13.3283 88.7025 13.5832C87.7649 13.8381 86.1268 14.0771 83.3396 13.6578Z" fill="#DFD8EF"/>
<path d="M83.9664 11.261C83.9664 11.261 84.0859 8.30545 85.0304 6.73014C85.9749 5.15471 86.6072 4.83212 87.5047 4.93818C88.4025 5.04425 88.4667 6.60061 87.9291 7.44564C87.3913 8.29067 86.3195 9.61515 83.9664 11.261Z" fill="#DFD8EF"/>
<path d="M81.6064 16.6238C81.6064 16.6238 84.3598 14.9552 86.3454 14.9403C88.331 14.9255 88.9959 15.3583 89.4274 16.3138C89.8592 17.2693 88.4842 18.2744 87.4007 18.2514C86.3173 18.2285 84.4846 17.9652 81.6064 16.6238Z" fill="#DFD8EF"/>
<path d="M81.4803 18.451C81.4803 18.451 84.6317 18.061 86.4521 18.8741C88.2722 19.6873 88.715 20.3627 88.7457 21.4223C88.7765 22.4818 87.1373 22.8348 86.1559 22.3626C85.1747 21.8902 83.6 20.8846 81.4803 18.451Z" fill="#DFD8EF"/>
<path d="M80.3739 19.1057C80.3739 19.1057 81.9365 20.243 82.4429 21.373C82.9493 22.5029 82.8904 22.9954 82.5 23.4909C82.1096 23.9865 81.2396 23.4634 80.9794 22.8387C80.7194 22.214 80.3966 21.0989 80.3739 19.1057Z" fill="#DFD8EF"/>
<path d="M82.4914 13.1156C82.4914 13.1156 83.5371 10.3587 83.2877 8.52732C83.0382 6.69587 82.5849 6.14049 81.7211 5.86889C80.857 5.59729 80.1898 6.9968 80.3522 7.99191C80.5146 8.98702 80.9789 10.641 82.4914 13.1156Z" fill="#DFD8EF"/>
<path d="M84.7751 10.3768C84.6607 10.5596 84.5465 10.7425 84.4323 10.9271C83.8317 11.8899 83.2348 12.8542 82.6472 13.8234C82.5691 13.9519 82.4909 14.0805 82.4147 14.2109C81.9362 15.0009 81.4654 15.796 81.0075 16.5974C80.9573 16.6847 80.9072 16.7721 80.8568 16.8596C80.6418 17.2369 80.4285 17.616 80.2191 17.9966C80.1963 18.0357 80.1738 18.0765 80.153 18.1173C80.1479 18.123 80.1447 18.1285 80.1416 18.1359C80.1224 18.1712 80.1012 18.2083 80.082 18.2454C80.0561 18.29 80.0303 18.3365 80.0062 18.3829C79.9981 18.3959 79.9919 18.4106 79.9837 18.4237C79.7519 18.8488 79.5237 19.2753 79.2993 19.7052C79.224 19.8498 79.1471 19.9962 79.0718 20.1425L79.0454 19.7378L78.9771 19.7422C79.0027 19.6921 79.0301 19.642 79.0557 19.592C79.2816 19.1584 79.5113 18.7282 79.7465 18.2994C79.7496 18.2919 79.7529 18.2864 79.7578 18.2788C79.7996 18.201 79.8414 18.1231 79.8851 18.0469C79.893 18.0303 79.9027 18.0135 79.9126 17.9986C80.1542 17.5567 80.4012 17.1164 80.6522 16.6794C80.7232 16.5512 80.7976 16.4229 80.8723 16.2963C81.3564 15.4539 81.8518 14.6197 82.3546 13.7885C82.4425 13.6432 82.5304 13.4978 82.62 13.3523C83.0661 12.6179 83.5177 11.8869 83.9714 11.1574C84.1705 10.8384 84.3678 10.5194 84.567 10.2021C84.6618 10.051 84.8698 10.2273 84.7751 10.3768Z" fill="#DFD8EF"/>
<path d="M82.3783 12.408C82.3094 12.8352 82.3942 13.2645 82.3334 13.6914C82.3079 13.8702 82.5722 13.9144 82.5976 13.7355C82.6584 13.3082 82.5739 12.8784 82.6426 12.4521C82.6714 12.2738 82.4071 12.2297 82.3783 12.408Z" fill="#DFD8EF"/>
<path d="M83.9716 13.2868C83.4331 13.5048 82.8948 13.7228 82.3566 13.9409C82.1953 14.0062 82.2899 14.2675 82.4514 14.2021C82.9897 13.984 83.528 13.766 84.0665 13.548C84.2277 13.4826 84.1331 13.2213 83.9716 13.2868Z" fill="#DFD8EF"/>
<path d="M81.9874 16.3544C81.6797 16.5049 81.2376 16.6467 80.8973 16.5833C80.7274 16.5516 80.6833 16.8284 80.8527 16.8601C81.2372 16.9317 81.7337 16.7862 82.0823 16.6156C82.2381 16.5393 82.1443 16.2775 81.9874 16.3544Z" fill="#F0D19A"/>
<path d="M80.3057 15.4475C80.349 15.6511 80.4274 15.8448 80.4966 16.0395C80.5378 16.1556 80.7018 16.5248 80.6656 16.6007C80.5878 16.7628 80.8325 16.8752 80.9098 16.7136C80.9871 16.5525 80.8725 16.3041 80.8222 16.1535C80.7415 15.9114 80.6259 15.6702 80.5725 15.419C80.5357 15.2454 80.2685 15.2721 80.3057 15.4475Z" fill="#F0D19A"/>
<path d="M82.1 18.5833C81.7773 18.4312 81.448 18.2793 81.1057 18.1808C80.7939 18.0912 80.4556 18.098 80.1536 17.9733C79.9939 17.9073 79.8831 18.1635 80.0435 18.2298C80.3135 18.3414 80.6057 18.3572 80.8887 18.4157C81.2705 18.4946 81.6371 18.6734 81.9898 18.8398C82.1467 18.9138 82.2568 18.6573 82.1 18.5833Z" fill="#F0D19A"/>
<path d="M78.5736 16.5308C78.8483 16.7584 79.027 17.1014 79.2267 17.3978C79.4298 17.6991 79.6106 18.0153 79.7887 18.3335C79.8753 18.4882 80.0913 18.3201 80.005 18.1661C79.6608 17.5511 79.2842 16.7604 78.7421 16.3113C78.6076 16.1998 78.4385 16.4189 78.5736 16.5308Z" fill="#F0D19A"/>
<path d="M80.698 19.3569C80.5188 18.9292 80.3032 18.5201 80.1401 18.0846C80.0775 17.9174 79.8267 18.0184 79.8895 18.1861C80.0526 18.6216 80.2682 19.0306 80.4474 19.4584C80.5161 19.6226 80.7671 19.522 80.698 19.3569Z" fill="#F0D19A"/>
<path d="M78.4697 18.2782C78.7172 18.176 79.0264 18.2064 79.2835 18.2317C79.5358 18.2568 79.8073 18.2888 80.0404 18.3974C80.1977 18.4706 80.3077 18.2141 80.1505 18.1409C79.8734 18.0119 79.5499 17.972 79.2501 17.948C78.9659 17.9253 78.6466 17.9047 78.375 18.0171C78.2141 18.0836 78.3087 18.3449 78.4697 18.2782Z" fill="#F0D19A"/>
<path d="M19.6897 14.3322C19.6897 14.3322 18.0698 11.9219 17.9624 10.1552C17.8551 8.3886 18.2099 7.78661 19.0423 7.37972C19.8748 6.97272 20.8371 8.1724 20.8679 9.13704C20.8988 10.1017 20.7506 11.7388 19.6897 14.3322Z" fill="#DFD8EF"/>
<path d="M17.4889 13.1677C17.4889 13.1677 14.6222 12.3627 13.2996 11.0833C11.9771 9.80384 11.8087 9.11813 12.122 8.27614C12.4354 7.43427 13.9745 7.73532 14.6768 8.4516C15.3788 9.16789 16.426 10.5117 17.4889 13.1677Z" fill="#DFD8EF"/>
<path d="M22.1902 16.6978C22.1902 16.6978 21.1983 13.65 21.6471 11.7294C22.0959 9.80885 22.6749 9.2679 23.7114 9.07416C24.7479 8.88031 25.4113 10.4424 25.1361 11.483C24.8608 12.5237 24.1754 14.2318 22.1902 16.6978Z" fill="#DFD8EF"/>
<path d="M23.9503 17.2457C23.9503 17.2457 24.3035 14.112 25.5246 12.5444C26.7456 10.9765 27.5103 10.7067 28.5553 10.9243C29.6002 11.1418 29.5633 12.8067 28.8719 13.644C28.1805 14.4813 26.8282 15.767 23.9503 17.2457Z" fill="#DFD8EF"/>
<path d="M24.3331 18.4666C24.3331 18.4666 25.8115 17.2232 27.0363 16.998C28.2611 16.7727 28.7297 16.9445 29.1239 17.4371C29.5181 17.9297 28.8028 18.6476 28.1303 18.753C27.4579 18.8584 26.2904 18.9098 24.3331 18.4666Z" fill="#DFD8EF"/>
<path d="M18.9609 15.0245C18.9609 15.0245 16.5049 13.3716 14.6531 13.1852C12.8013 12.9987 12.1515 13.3068 11.684 14.0776C11.2165 14.8483 12.4315 15.819 13.4439 15.8945C14.4564 15.9699 16.1843 15.9075 18.9609 15.0245Z" fill="#DFD8EF"/>
<path d="M21.3276 17.5111C21.3276 17.5111 18.1716 16.4238 16.1315 16.7579C14.0912 17.092 13.495 17.6157 13.2417 18.5904C12.9884 19.5649 14.5986 20.2694 15.7055 20.0579C16.8126 19.8465 18.6407 19.2774 21.3276 17.5111Z" fill="#DFD8EF"/>
<path d="M21.8194 19.208C21.8194 19.208 18.5086 19.3933 16.8023 20.4775C15.0962 21.5615 14.7759 22.2745 14.9546 23.2767C15.1332 24.279 16.8851 24.3236 17.7982 23.7073C18.7113 23.091 20.1274 21.869 21.8194 19.208Z" fill="#DFD8EF"/>
<path d="M23.0844 19.6299C23.0844 19.6299 21.7068 20.9737 21.4115 22.1255C21.1161 23.2774 21.2743 23.7303 21.7732 24.128C22.2721 24.5258 23.0609 23.881 23.2039 23.2479C23.3467 22.6147 23.4567 21.509 23.0844 19.6299Z" fill="#DFD8EF"/>
<path d="M16.8113 12.1807C16.9637 12.3336 17.1161 12.4866 17.2703 12.64C18.0731 13.4445 18.8782 14.2458 19.6902 15.0391C19.798 15.1446 19.9057 15.2501 20.0155 15.3541C20.6777 16.0004 21.3465 16.6405 22.0244 17.2697C22.0983 17.3385 22.1722 17.4073 22.2461 17.4762C22.5655 17.7719 22.887 18.0663 23.2108 18.3573C23.2439 18.3883 23.2786 18.4197 23.3136 18.4493C23.3181 18.4555 23.3227 18.4599 23.3292 18.4646C23.3592 18.4915 23.3907 18.5205 23.4226 18.5477C23.4602 18.5831 23.4997 18.6189 23.5395 18.6528C23.5504 18.6638 23.5633 18.6733 23.5742 18.6842C23.9364 19.0073 24.301 19.327 24.6696 19.644C24.7936 19.7503 24.9191 19.8588 25.0449 19.9656L24.6423 19.8967L24.6307 19.9637C24.5876 19.9272 24.545 19.8892 24.5019 19.8528C24.13 19.5335 23.7622 19.2114 23.3971 18.8842C23.3906 18.8795 23.3858 18.875 23.3797 18.8685C23.3132 18.81 23.2466 18.7515 23.1822 18.6915C23.1677 18.68 23.1535 18.6667 23.1412 18.6537C22.765 18.3174 22.3913 17.976 22.0219 17.6319C21.9129 17.5334 21.8046 17.4315 21.698 17.3298C20.9859 16.666 20.2845 15.993 19.5878 15.3137C19.466 15.1948 19.3442 15.0761 19.2227 14.9556C18.6075 14.3536 17.9968 13.7469 17.3882 13.1388C17.1223 12.8721 16.8559 12.6073 16.5917 12.3407C16.4658 12.2141 16.6871 12.0543 16.8113 12.1807Z" fill="#DFD8EF"/>
<path d="M18.2414 14.9686C18.6438 15.1348 19.0839 15.1532 19.4878 15.3115C19.657 15.3777 19.7619 15.133 19.5927 15.0666C19.1885 14.9082 18.7478 14.8896 18.3464 14.7237C18.1783 14.6543 18.0736 14.8993 18.2414 14.9686Z" fill="#DFD8EF"/>
<path d="M19.4738 13.6356C19.5618 14.2062 19.6497 14.7768 19.7377 15.3474C19.7639 15.5184 20.042 15.488 20.0157 15.3168C19.9277 14.7461 19.8397 14.1756 19.7518 13.605C19.7254 13.4339 19.4474 13.4643 19.4738 13.6356Z" fill="#DFD8EF"/>
<path d="M22.015 16.2671C22.0907 16.5991 22.1264 17.0591 21.9848 17.3729C21.9141 17.5295 22.175 17.6367 22.2455 17.4805C22.4054 17.126 22.3787 16.6127 22.293 16.2364C22.2546 16.0681 21.9764 16.0975 22.015 16.2671Z" fill="#DFD8EF"/>
<path d="M20.7346 17.679C20.9442 17.6848 21.1522 17.6542 21.359 17.6328C21.4824 17.6202 21.8822 17.5478 21.948 17.6006C22.0886 17.7135 22.2559 17.5036 22.1156 17.3911C21.9759 17.2791 21.7058 17.3316 21.5465 17.3451C21.2906 17.3665 21.0274 17.4219 20.7691 17.4147C20.5903 17.4098 20.5542 17.6741 20.7346 17.679Z" fill="#DFD8EF"/>
<path d="M24.2244 16.6784C24.0002 16.9544 23.7745 17.2369 23.5982 17.5444C23.4376 17.8246 23.3654 18.1528 23.1729 18.4152C23.0709 18.5541 23.296 18.7207 23.3983 18.5814C23.5705 18.3467 23.6544 18.0683 23.7776 17.8088C23.944 17.4585 24.2046 17.1463 24.4499 16.8446C24.559 16.7104 24.3334 16.5442 24.2244 16.6784Z" fill="#DFD8EF"/>
<path d="M21.3915 19.6042C21.6784 19.3921 22.0562 19.2995 22.3929 19.1759C22.7354 19.0501 23.0873 18.9493 23.4404 18.8516C23.6121 18.8041 23.498 18.5563 23.3271 18.6036C22.6444 18.7925 21.7822 18.9716 21.2158 19.3903C21.0753 19.4941 21.2503 19.7085 21.3915 19.6042Z" fill="#DFD8EF"/>
<path d="M24.6547 18.2123C24.194 18.2854 23.7431 18.3982 23.2786 18.4541C23.1001 18.4755 23.1407 18.7413 23.3195 18.7197C23.784 18.6639 24.2349 18.5511 24.6958 18.4779C24.8725 18.4499 24.8326 18.1841 24.6547 18.2123Z" fill="#DFD8EF"/>
<path d="M23.0787 20.112C23.0363 19.8492 23.1382 19.5577 23.2231 19.3154C23.3065 19.0776 23.4011 18.823 23.5618 18.6234C23.6702 18.4886 23.4447 18.3225 23.3364 18.4572C23.1453 18.6946 23.0307 18.9977 22.9374 19.2815C22.8487 19.5507 22.7542 19.854 22.8008 20.1425C22.8285 20.3134 23.1065 20.283 23.0787 20.112Z" fill="#DFD8EF"/>
<path d="M19.3812 60.4501C19.3812 60.4501 16.6259 61.1627 14.9513 60.6966C13.2769 60.2304 12.8314 59.7133 12.7195 58.8214C12.6078 57.9296 14.0289 57.4321 14.9343 57.7119C15.8398 57.992 17.3124 58.6505 19.3812 60.4501Z" fill="#DFD8EF"/>
<path d="M17.5969 62.0925C17.5969 62.0925 15.9337 64.4592 14.3233 65.2609C12.713 66.0627 12.0225 65.9977 11.3409 65.442C10.6594 64.8862 11.4306 63.5735 12.3199 63.1598C13.2094 62.746 14.7914 62.217 17.5969 62.0925Z" fill="#DFD8EF"/>
<path d="M22.376 58.9172C22.376 58.9172 19.2297 58.8515 17.5899 57.8271C15.9503 56.8028 15.6331 56.1 15.7842 55.0895C15.9354 54.0788 17.5976 53.9706 18.4759 54.555C19.354 55.1394 20.7208 56.3124 22.376 58.9172Z" fill="#DFD8EF"/>
<path d="M23.447 57.4813C23.447 57.4813 20.6505 56.157 19.5851 54.5384C18.5198 52.92 18.5134 52.134 19.0493 51.247C19.5851 50.3602 21.1191 50.9257 21.6755 51.8261C22.232 52.7264 22.9935 54.3749 23.447 57.4813Z" fill="#DFD8EF"/>
<path d="M24.703 57.5208C24.703 57.5208 24.021 55.7704 24.2032 54.5775C24.3853 53.3845 24.6946 53.0106 25.2778 52.807C25.861 52.6037 26.299 53.4877 26.1819 54.1368C26.065 54.7858 25.7399 55.871 24.703 57.5208Z" fill="#DFD8EF"/>
<path d="M19.791 61.3384C19.791 61.3384 17.4717 63.0583 16.707 64.6936C15.9424 66.3289 16.0208 67.022 16.587 67.6961C17.1532 68.3703 18.4426 67.5685 18.836 66.6659C19.2296 65.7633 19.7237 64.1617 19.791 61.3384Z" fill="#DFD8EF"/>
<path d="M22.8556 59.9658C22.8556 59.9658 20.8379 62.5069 20.4963 64.481C20.1547 66.4551 20.4505 67.1682 21.2744 67.7112C22.0983 68.2546 23.2667 67.0058 23.424 65.9251C23.5814 64.8443 23.6372 62.9892 22.8556 59.9658Z" fill="#DFD8EF"/>
<path d="M24.5882 60.0584C24.5882 60.0584 23.7027 63.1478 24.1641 65.0558C24.6255 66.9638 25.185 67.4846 26.1726 67.6413C27.1602 67.798 27.7612 66.2089 27.4809 65.1762C27.2004 64.1435 26.5182 62.4571 24.5882 60.0584Z" fill="#DFD8EF"/>
<path d="M25.384 59.0354C25.384 59.0354 26.1916 60.7254 27.1667 61.3637C28.1417 62.0022 28.6128 62.0021 29.1413 61.6725C29.67 61.343 29.3235 60.415 28.7812 60.0819C28.239 59.7488 27.2476 59.2949 25.384 59.0354Z" fill="#DFD8EF"/>
<path d="M16.4639 62.3972C16.6546 62.3066 16.8455 62.2159 17.0371 62.1238C18.0404 61.646 19.0415 61.1652 20.0376 60.6753C20.1699 60.6105 20.3023 60.5456 20.4339 60.4783C21.2454 60.0787 22.0534 59.6711 22.854 59.2516C22.9416 59.2059 23.0291 59.1603 23.1167 59.1147C23.4933 58.9168 23.8692 58.7165 24.2429 58.5132C24.2823 58.4929 24.3224 58.4711 24.3611 58.4484C24.3682 58.4464 24.3739 58.4434 24.3803 58.439C24.4149 58.4201 24.4519 58.4007 24.4872 58.3801C24.5322 58.357 24.578 58.3323 24.6223 58.3068C24.6359 58.3002 24.6488 58.2914 24.6625 58.285C25.0781 58.0567 25.4915 57.8252 25.9035 57.5889C26.0419 57.5095 26.1827 57.4293 26.3219 57.3482L26.1294 57.6949L26.1878 57.7268C26.1403 57.7546 26.0913 57.7814 26.0438 57.8092C25.6286 58.0477 25.2119 58.2813 24.7916 58.5109C24.7851 58.5154 24.7795 58.5184 24.7714 58.5219C24.6959 58.5642 24.6203 58.6064 24.544 58.6461C24.5287 58.6557 24.5119 58.6644 24.4957 58.6716C24.0633 58.9086 23.6271 59.1414 23.1895 59.3696C23.0634 59.4379 22.9342 59.5044 22.8057 59.5695C21.9618 60.0092 21.113 60.4362 20.2597 60.8567C20.1106 60.9304 19.9613 61.0039 19.8105 61.0766C19.0551 61.4474 18.2969 61.8124 17.5379 62.1752C17.2052 62.3334 16.8743 62.4925 16.5425 62.6493C16.3846 62.7241 16.307 62.4705 16.4639 62.3972Z" fill="#DFD8EF"/>
<path d="M19.5093 61.979C19.792 61.6639 19.9497 61.2668 20.2257 60.9477C20.3412 60.814 20.1475 60.6396 20.0319 60.7735C19.7557 61.0929 19.5976 61.4902 19.3154 61.8047C19.1972 61.9364 19.3912 62.1105 19.5093 61.979Z" fill="#DFD8EF"/>
<path d="M18.6653 60.4252C19.2232 60.527 19.7811 60.6289 20.339 60.7307C20.506 60.7613 20.5667 60.497 20.3993 60.4664C19.8414 60.3647 19.2836 60.2629 18.7257 60.161C18.5585 60.1306 18.4979 60.3947 18.6653 60.4252Z" fill="#DFD8EF"/>
<path d="M21.9201 58.9398C22.2527 58.9767 22.6911 59.0909 22.9372 59.3208C23.0601 59.4355 23.2429 59.231 23.1203 59.1164C22.8424 58.857 22.3573 58.7173 21.9806 58.6757C21.812 58.657 21.7504 58.9211 21.9201 58.9398Z" fill="#DFD8EF"/>
<path d="M22.8221 60.563C22.8945 60.3731 22.9325 60.173 22.9787 59.9767C23.0065 59.8597 23.067 59.4707 23.1369 59.4274C23.2867 59.3346 23.1452 59.1146 22.996 59.207C22.8474 59.2991 22.81 59.563 22.7716 59.7131C22.7097 59.9542 22.677 60.2128 22.5878 60.447C22.5261 60.609 22.76 60.7265 22.8221 60.563Z" fill="#DFD8EF"/>
<path d="M23.008 57.0493C23.1925 57.3426 23.3828 57.6395 23.6119 57.8989C23.8208 58.1354 24.1024 58.3065 24.2845 58.5665C24.3808 58.7041 24.6075 58.5513 24.5108 58.4132C24.348 58.1806 24.1161 58.015 23.9146 57.8193C23.6427 57.555 23.4361 57.2167 23.2342 56.8959C23.1445 56.7532 22.9182 56.9065 23.008 57.0493Z" fill="#DFD8EF"/>
<path d="M24.8192 60.5768C24.7139 60.2463 24.7488 59.8711 24.7416 59.5234C24.7342 59.1696 24.753 58.8153 24.7751 58.461C24.7858 58.2886 24.5194 58.3139 24.5086 58.4856C24.4659 59.1708 24.3568 60.0171 24.5644 60.6691C24.616 60.831 24.8709 60.7392 24.8192 60.5768Z" fill="#DFD8EF"/>
<path d="M24.5697 57.1453C24.4905 57.5903 24.451 58.0391 24.3544 58.482C24.3174 58.6522 24.577 58.7001 24.6142 58.5293C24.7107 58.0864 24.7501 57.6377 24.8294 57.1927C24.8598 57.0218 24.6003 56.9734 24.5697 57.1453Z" fill="#DFD8EF"/>
<path d="M25.8298 59.1948C25.5722 59.1496 25.3342 58.9632 25.1364 58.8082C24.9422 58.6559 24.736 58.4879 24.6021 58.2771C24.5116 58.1348 24.2852 58.2881 24.3757 58.4303C24.5351 58.681 24.7798 58.8827 25.0136 59.0589C25.2352 59.2259 25.4866 59.4094 25.7694 59.4589C25.9367 59.4882 25.9974 59.224 25.8298 59.1948Z" fill="#DFD8EF"/>
<path d="M2.00903 48.1132C1.45168 47.9512 0.890567 47.8768 0.337306 47.882C0.316264 48.0085 0.294911 48.1361 0.276001 48.2632C0.812436 48.2519 1.36002 48.3212 1.90129 48.4786C4.76392 49.3109 6.41163 52.3017 5.57426 55.1408C4.8773 57.5041 2.677 59.0336 0.308674 59.0024C0.329272 59.1295 0.352 59.2571 0.37615 59.384C2.88448 59.3856 5.2027 57.7556 5.94227 55.2478C6.83913 52.2068 5.07498 49.0046 2.00903 48.1132Z" fill="white"/>
<path d="M11.4896 51.4589C10.5695 46.3709 6.82382 42.4761 2.1471 41.0841C1.85503 41.8734 1.59059 42.6717 1.35278 43.4779C5.17535 44.5881 8.24122 47.756 8.99114 51.9041C9.96168 57.2698 6.72238 62.4366 1.62602 64.0466C1.90759 64.8366 2.22549 65.6176 2.57867 66.3892C8.76482 64.337 12.6748 58.0183 11.4896 51.4589Z" fill="white"/>
<path d="M101.492 72.3171C101.492 72.3171 101.491 72.3171 101.491 72.3171L1.49935 72.2083C1.31107 72.208 1.15859 72.0562 1.15881 71.8694C1.15903 71.6826 1.31165 71.5313 1.49975 71.5313C1.49987 71.5313 1.49996 71.5313 1.50014 71.5313L101.492 71.6401C101.68 71.6403 101.833 71.792 101.833 71.979C101.832 72.1658 101.68 72.3171 101.492 72.3171Z" fill="#24154C"/>
<path d="M88.5708 74C88.5707 74 88.5707 74 88.5706 74L44.0038 73.9514C43.8782 73.9513 43.7766 73.8501 43.7767 73.7255C43.7768 73.6009 43.8787 73.5 44.004 73.5C44.0041 73.5 44.0042 73.5 44.0044 73.5L88.571 73.5487C88.6966 73.5487 88.7982 73.6499 88.7981 73.7745C88.798 73.899 88.6963 74 88.5708 74Z" fill="#24154C"/>
<path d="M36.5428 73.943C36.5427 73.943 36.5427 73.943 36.5426 73.943L19.672 73.9246C19.5464 73.9245 19.4448 73.8233 19.4449 73.6987C19.4451 73.5741 19.5469 73.4733 19.6722 73.4733C19.6723 73.4733 19.6725 73.4733 19.6726 73.4733L36.5432 73.4916C36.6686 73.4917 36.7703 73.5928 36.7701 73.7175C36.77 73.842 36.6683 73.943 36.5428 73.943Z" fill="#24154C"/>
<path d="M45.3654 8.54293C45.0255 8.54293 44.6815 8.59214 44.342 8.69279C43.1219 9.05476 42.2179 10.0051 41.9234 11.2351L31.8408 53.3624C31.5465 54.5924 31.9233 55.845 32.849 56.7133C33.7747 57.5813 35.0558 57.8837 36.2758 57.5217L78.0615 45.1279C79.2816 44.766 80.1857 43.8156 80.48 42.5854C80.7745 41.3555 80.3975 40.1028 79.4719 39.2347L47.7688 9.50137C47.1007 8.87479 46.2473 8.54293 45.3654 8.54293ZM35.25 58.2365C34.2258 58.2365 33.2348 57.8511 32.4588 57.1233C31.3839 56.1151 30.9462 54.6603 31.2881 53.2319L41.3707 11.1047C41.7125 9.67616 42.7625 8.5725 44.1794 8.15229C45.5963 7.73198 47.084 8.08301 48.1591 9.09121L79.8621 38.8246C80.937 39.8328 81.3748 41.2876 81.0328 42.716C80.691 44.1445 79.641 45.2482 78.2241 45.6685L36.4384 58.0623C36.0444 58.1792 35.6447 58.2365 35.25 58.2365Z" fill="#5F40AF"/>
<path d="M74.0851 5.8711C74.0825 5.8711 74.0801 5.8711 74.0775 5.8711C73.722 5.87369 73.4052 6.05852 73.2297 6.36533L66.0641 18.9023C65.8887 19.2092 65.8916 19.574 66.0715 19.8783C66.2501 20.1803 66.5665 20.36 66.9188 20.36C66.9213 20.36 66.9239 20.36 66.9264 20.36L81.4441 20.253C81.7995 20.2504 82.1164 20.0656 82.2918 19.7588C82.4672 19.4519 82.4645 19.087 82.2846 18.7828L74.9325 6.3528C74.7538 6.05073 74.4374 5.8711 74.0851 5.8711ZM66.9186 20.9242C66.3626 20.9242 65.8635 20.6407 65.5814 20.164C65.2974 19.6839 65.2931 19.1081 65.5701 18.6238L72.7356 6.08695C73.0124 5.60254 73.5123 5.31109 74.0733 5.30691C74.0772 5.30691 74.0812 5.30691 74.0852 5.30691C74.6413 5.30691 75.1405 5.59047 75.4223 6.0671L82.7744 18.4971C83.0584 18.9772 83.0629 19.553 82.786 20.0372C82.5092 20.5215 82.0091 20.8131 81.4483 20.8172L66.9306 20.9242C66.9266 20.9242 66.9226 20.9242 66.9186 20.9242Z" fill="#5F40AF"/>
<path d="M73.8503 27.951L74.2313 26.6279L74.6121 25.3048L75.5758 26.2939L76.5394 27.2829L75.1949 27.6171L73.8503 27.951Z" fill="#4F2DA7"/>
<path d="M72.1497 54.8121L72.5306 53.4889L72.9114 52.1659L73.8751 53.1549L74.8387 54.144L73.4942 54.478L72.1497 54.8121Z" fill="#4F2DA7"/>
<path d="M19.9718 8.77002L20.3527 7.44689L20.7336 6.12377L21.6973 7.11279L22.6608 8.10191L21.3163 8.43591L19.9718 8.77002Z" fill="#4F2DA7"/>
<path d="M63.2087 10.0281L62.7279 8.73745L62.2471 7.44682L63.6133 7.67859L64.9794 7.91047L64.094 8.96933L63.2087 10.0281Z" fill="#4F2DA7"/>
<path d="M9.42703 19.7532C9.16902 19.7007 8.89735 19.768 8.61256 19.9546C8.35332 20.1246 8.19755 20.3375 8.14471 20.5936C8.07116 20.9503 8.14277 21.2922 8.35563 21.621C8.35891 21.6269 8.35922 21.6334 8.36299 21.6392C8.44489 21.7623 8.61177 21.7962 8.7358 21.715C8.85974 21.6336 8.89402 21.468 8.81211 21.3449C8.81181 21.3444 8.81132 21.3442 8.81104 21.3438C8.64151 21.0877 8.57843 20.8534 8.62234 20.6407C8.64875 20.5126 8.72022 20.4104 8.8368 20.334C8.97929 20.2406 9.115 20.2069 9.24405 20.2332C9.39436 20.2639 9.52972 20.3692 9.6494 20.5492C9.74355 20.6909 9.7728 20.8468 9.7376 21.0176C9.67594 21.3169 9.64695 21.5386 9.65054 21.684C9.65406 21.8838 9.74905 22.1241 9.93479 22.4048C9.93586 22.4065 9.93586 22.4085 9.93701 22.4103C10.001 22.5065 10.1316 22.5332 10.2286 22.4695C10.3256 22.406 10.3523 22.2764 10.2883 22.18C10.2878 22.1792 10.2869 22.1789 10.2864 22.1781C10.1338 21.9476 10.0767 21.7364 10.1161 21.5451C10.169 21.2888 10.2108 21.086 10.2416 20.9365C10.2945 20.6804 10.2484 20.4432 10.1029 20.2243C9.9319 19.967 9.70639 19.8102 9.42703 19.7532Z" fill="#5F40AF"/>
<path d="M10.4836 22.8532C10.354 22.938 10.3183 23.1112 10.4038 23.2399C10.4894 23.3685 10.6637 23.4039 10.7933 23.3191C10.9228 23.2341 10.9585 23.061 10.873 22.9324C10.7875 22.8036 10.6131 22.7683 10.4836 22.8532Z" fill="#5F40AF"/>
<path d="M14.0101 16.6892C13.7808 16.4557 13.4529 16.3361 13.0272 16.3305C12.6397 16.3256 12.3287 16.4369 12.0934 16.6646C11.7657 16.9816 11.5983 17.3844 11.5861 17.8719C11.5854 17.8802 11.581 17.8873 11.5808 17.8958C11.5785 18.0798 11.7268 18.231 11.9121 18.2334C12.0976 18.2358 12.2497 18.0885 12.2521 17.9045C12.2521 17.9038 12.2518 17.9033 12.2518 17.9025C12.2576 17.5204 12.3577 17.2346 12.5532 17.0455C12.6708 16.9316 12.8167 16.8759 12.991 16.8781C13.204 16.8808 13.3678 16.9406 13.4824 17.0574C13.616 17.1937 13.6813 17.3965 13.6779 17.6656C13.6751 17.8774 13.5953 18.0587 13.4384 18.2105C13.1636 18.4765 12.9772 18.6852 12.8783 18.8378C12.7409 19.0465 12.6693 19.3608 12.6631 19.7795C12.663 19.782 12.6615 19.7841 12.6615 19.7867C12.6597 19.9307 12.7757 20.049 12.9207 20.0508C13.0656 20.0527 13.1847 19.9375 13.1865 19.7935C13.1866 19.7923 13.1858 19.7914 13.1859 19.7901C13.1911 19.446 13.2811 19.1883 13.4569 19.0183C13.6922 18.7906 13.8786 18.6103 14.0159 18.4775C14.2512 18.2498 14.371 17.9728 14.3752 17.6458C14.3802 17.2612 14.2583 16.9424 14.0101 16.6892Z" fill="#5F40AF"/>
<path d="M12.9131 20.6242C12.7194 20.6217 12.5604 20.7756 12.5579 20.9678C12.5554 21.1602 12.7104 21.318 12.9041 21.3205C13.0977 21.323 13.2567 21.1692 13.2592 20.9769C13.2617 20.7846 13.1068 20.6267 12.9131 20.6242Z" fill="#5F40AF"/>
<path d="M94.3116 35.4046C94.0996 35.2495 93.8244 35.1975 93.4871 35.2484C93.18 35.2948 92.9487 35.4232 92.7926 35.6338C92.5753 35.927 92.4958 36.2672 92.5503 36.6543C92.5508 36.661 92.5483 36.6672 92.5493 36.6739C92.5716 36.8197 92.7088 36.9199 92.8557 36.8978C93.0026 36.8757 93.1037 36.7395 93.0813 36.5936C93.0813 36.5932 93.0809 36.5927 93.0809 36.5922C93.0351 36.2892 93.0768 36.0501 93.2062 35.8753C93.2844 35.77 93.3925 35.707 93.5306 35.6861C93.6993 35.6606 93.8367 35.6866 93.9429 35.7642C94.0664 35.8547 94.1447 36.0064 94.1774 36.2197C94.2031 36.3876 94.1638 36.5414 94.0597 36.6817C93.8774 36.9277 93.7575 37.1171 93.6993 37.2504C93.6182 37.4334 93.6029 37.6911 93.6531 38.0232C93.6533 38.0251 93.6525 38.027 93.6527 38.0291C93.6702 38.1432 93.7776 38.2216 93.8924 38.2043C94.0074 38.187 94.0864 38.0805 94.0689 37.9663C94.0688 37.9653 94.0681 37.9646 94.068 37.9637C94.0267 37.691 94.064 37.4754 94.1807 37.3181C94.3369 37.1076 94.4604 36.9408 94.5515 36.8179C94.7077 36.6073 94.766 36.3728 94.7262 36.1135C94.6796 35.8088 94.5412 35.5726 94.3116 35.4046Z" fill="#5F40AF"/>
<path d="M93.9621 38.6587C93.8086 38.6819 93.703 38.8242 93.7264 38.9766C93.7498 39.129 93.8931 39.2338 94.0465 39.2105C94.1999 39.1874 94.3055 39.0451 94.2822 38.8927C94.2589 38.7403 94.1155 38.6356 93.9621 38.6587Z" fill="#5F40AF"/>
<path d="M103.517 39.7157C102.117 41.2821 101.74 43.4056 102.333 45.2684C102.635 46.2288 103.195 47.1183 104.006 47.8322C105.459 49.1125 107.388 49.5335 109.152 49.1339C109.197 49.1234 109.242 49.1128 109.286 49.101C109.281 48.971 109.274 48.8412 109.268 48.7115C109.03 48.775 108.788 48.8224 108.544 48.8532C107.046 49.0425 105.475 48.6176 104.26 47.5474C103.646 47.0062 103.182 46.3524 102.88 45.6443C102.084 43.796 102.372 41.5711 103.804 39.9683C104.347 39.3598 105 38.9033 105.707 38.6016C105.625 38.4984 105.539 38.3976 105.452 38.297C104.735 38.6195 104.072 39.0938 103.517 39.7157Z" fill="white"/>
<path d="M99.8945 34.4343C95.3786 39.7951 95.8269 47.817 101.035 52.6414C103.409 54.8421 106.385 56.0163 109.401 56.183C109.64 55.3581 109.842 54.5238 110 53.685C107.402 53.6487 104.811 52.6933 102.767 50.7997C98.4018 46.7548 98.1634 39.9387 102.237 35.6053C102.414 35.4167 102.597 35.235 102.784 35.0624C101.881 34.6903 100.913 34.4687 99.8945 34.4343Z" fill="white"/>
<path d="M33.1949 6.12339C33.1949 6.61683 32.7921 7.01672 32.2951 7.01672C31.7983 7.01672 31.3954 6.61683 31.3954 6.12339C31.3954 5.63007 31.7983 5.23006 32.2951 5.23006C32.7921 5.23006 33.1949 5.63007 33.1949 6.12339Z" fill="white"/>
<path d="M9.75583 66.486C9.75583 66.9794 9.35302 67.3793 8.85604 67.3793C8.35912 67.3793 7.9563 66.9794 7.9563 66.486C7.9563 65.9926 8.35912 65.5926 8.85604 65.5926C9.35302 65.5926 9.75583 65.9926 9.75583 66.486Z" fill="white"/>
<path d="M104.972 58.1797C104.972 58.6731 104.569 59.0731 104.072 59.0731C103.575 59.0731 103.173 58.6731 103.173 58.1797C103.173 57.6864 103.575 57.2864 104.072 57.2864C104.569 57.2864 104.972 57.6864 104.972 58.1797Z" fill="white"/>
<path d="M32.2949 7.78958C31.8745 7.78958 31.4886 7.63466 31.1944 7.3792C30.8417 7.07284 30.6179 6.62342 30.6179 6.1231C30.6179 5.87001 30.675 5.62876 30.7787 5.41347C31.0467 4.8494 31.6256 4.45785 32.2949 4.45785C33.2205 4.45785 33.9733 5.20529 33.9733 6.1231C33.9733 7.04215 33.2205 7.78958 32.2949 7.78958ZM32.2949 4.3396C31.641 4.3396 31.0669 4.68973 30.7536 5.21014C30.5916 5.47733 30.4987 5.78955 30.4987 6.1231C30.4987 6.72159 30.7977 7.25259 31.2539 7.57666C31.5482 7.78484 31.9066 7.90784 32.2949 7.90784C33.286 7.90784 34.0924 7.10715 34.0924 6.1231C34.0924 5.14029 33.286 4.3396 32.2949 4.3396Z" fill="white"/>
<path d="M37.4957 65.3387C37.4957 65.8322 37.0929 66.2322 36.596 66.2322C36.099 66.2322 35.6962 65.8322 35.6962 65.3387C35.6962 64.8454 36.099 64.4454 36.596 64.4454C37.0929 64.4454 37.4957 64.8454 37.4957 65.3387Z" fill="white"/>
<path d="M36.5956 67.005C36.1751 67.005 35.7892 66.85 35.4949 66.5945C35.1423 66.2882 34.9184 65.8389 34.9184 65.3384C34.9184 65.0853 34.9756 64.8441 35.0791 64.6288C35.3472 64.0647 35.9261 63.6732 36.5956 63.6732C37.5211 63.6732 38.2739 64.4206 38.2739 65.3384C38.2739 66.2575 37.5211 67.005 36.5956 67.005ZM36.5956 63.5549C35.9416 63.5549 35.3674 63.9051 35.0542 64.4254C34.8922 64.6926 34.7993 65.005 34.7993 65.3384C34.7993 65.9369 35.0982 66.468 35.5545 66.7921C35.8487 67.0003 36.2073 67.1232 36.5956 67.1232C37.5866 67.1232 38.3931 66.3225 38.3931 65.3384C38.3931 64.3556 37.5866 63.5549 36.5956 63.5549Z" fill="white"/>
<path d="M80.0831 43.4078C81.8714 45.7122 80.4766 49.0748 77.5723 49.4602L55.9593 52.3286L34.3465 55.1969C31.4423 55.5824 29.2068 52.7018 30.3228 50.0118L38.6273 29.9932L46.9319 9.9747C48.0479 7.28467 51.6781 6.80286 53.4665 9.10744L66.7748 26.2575L80.0831 43.4078Z" fill="#A998D2"/>
<path d="M74.2137 41.9956C75.6097 43.8483 74.5385 46.5378 72.2857 46.8368L55.5196 49.0619L38.7537 51.2871C36.5008 51.586 34.7558 49.2703 35.6127 47.1186L41.99 31.1068L48.3671 15.0949C49.2241 12.9433 52.0403 12.5695 53.4362 14.4222L63.825 28.2089L74.2137 41.9956Z" fill="white"/>
<path d="M57.5227 43.5728C57.2353 44.7554 56.0368 45.4827 54.8459 45.1973C53.6548 44.9119 52.9223 43.722 53.2098 42.5394C53.4972 41.3569 54.6957 40.6296 55.8868 40.915C57.0776 41.2004 57.8102 42.3904 57.5227 43.5728Z" fill="#D0021B"/>
<path d="M50.4546 23.2186L53.5084 36.5505C53.6077 36.9838 54.0223 37.2713 54.4663 37.2145C54.9299 37.1552 55.263 36.7423 55.2201 36.2803L53.9576 22.6655C53.8654 21.6699 52.9594 20.9491 51.9607 21.077C50.9206 21.2099 50.222 22.2034 50.4546 23.2186Z" fill="#D0021B"/>
<path d="M83.7679 20.3271C84.0108 21.3053 83.096 22.1779 82.1214 21.8977L74.868 19.8127L67.6146 17.7276C66.64 17.4474 66.3363 16.2247 67.0679 15.5267L72.5133 10.3321L77.9585 5.1377C78.6903 4.43969 79.9088 4.78983 80.1516 5.76812L81.9597 13.0477L83.7679 20.3271Z" fill="#A998D2"/>
<path d="M82.1057 19.0664C82.2878 19.847 81.5705 20.551 80.8143 20.3337L75.1876 18.7163L69.5608 17.0988C68.8048 16.8815 68.5771 15.9058 69.151 15.3425L73.4224 11.1509L77.6937 6.95927C78.2677 6.39611 79.2129 6.66771 79.395 7.44831L80.7504 13.2574L82.1057 19.0664Z" fill="white"/>
<path d="M76.5939 17.254C76.3365 17.589 75.8546 17.6535 75.5172 17.3981C75.1797 17.1426 75.1148 16.664 75.3721 16.329C75.6293 15.994 76.1115 15.9295 76.4488 16.185C76.7862 16.4405 76.8511 16.9191 76.5939 17.254Z" fill="#D0021B"/>
<path d="M77.2139 9.82341L76.3082 14.4721C76.2788 14.6231 76.3698 14.7717 76.5186 14.8153C76.6738 14.8607 76.8374 14.7759 76.8887 14.6235L78.4019 10.1334C78.5125 9.80502 78.3267 9.45116 77.9921 9.35322C77.6438 9.25132 77.2827 9.46944 77.2139 9.82341Z" fill="#D0021B"/>
<path d="M36.5965 15.7318C36.5092 15.7318 36.4231 15.6921 36.3674 15.6168L33.2741 11.4398C33.1811 11.3144 33.2083 11.1378 33.3347 11.0455C33.4612 10.9532 33.6389 10.98 33.7319 11.1056L36.8251 15.2826C36.9181 15.4081 36.8909 15.5847 36.7646 15.677C36.7139 15.714 36.6549 15.7318 36.5965 15.7318Z" fill="#4F2DA7"/>
<path d="M35.9773 17.2675C35.9332 17.2675 35.8883 17.2573 35.8464 17.2356L26.3329 12.3215C26.1936 12.2496 26.1395 12.0792 26.212 11.941C26.2844 11.8029 26.4559 11.7491 26.5951 11.8209L36.1087 16.7351C36.2479 16.807 36.302 16.9774 36.2296 17.1156C36.179 17.2122 36.0799 17.2675 35.9773 17.2675Z" fill="#4F2DA7"/>
<path d="M35.3909 18.8646C35.3788 18.8646 35.3664 18.8638 35.354 18.8623L29.1639 18.0637C29.0083 18.0436 28.8986 17.9021 28.9188 17.7477C28.939 17.5932 29.082 17.4847 29.2372 17.5043L35.4272 18.3028C35.5829 18.3229 35.6925 18.4644 35.6723 18.6189C35.6538 18.761 35.5316 18.8646 35.3909 18.8646Z" fill="#4F2DA7"/>
<path d="M83.8679 33.8569C83.8652 33.8569 83.8624 33.8569 83.8596 33.8568L79.3505 33.7266C79.1937 33.7221 79.0703 33.5921 79.0748 33.4364C79.0793 33.2807 79.2137 33.159 79.367 33.1627L83.8761 33.2929C84.033 33.2974 84.1564 33.4274 84.1519 33.5831C84.1473 33.7361 84.0211 33.8569 83.8679 33.8569Z" fill="#4F2DA7"/>
<path d="M78.6924 32.5013C78.5846 32.5013 78.4815 32.4401 78.4338 32.3363C78.3687 32.1945 78.4316 32.0272 78.5743 31.9625L85.821 28.6804C85.9638 28.6158 86.1321 28.6782 86.1974 28.8199C86.2625 28.9617 86.1995 29.129 86.0567 29.1936L78.8102 32.4758C78.772 32.4931 78.7319 32.5013 78.6924 32.5013Z" fill="#4F2DA7"/>
<path d="M77.8388 31.2117C77.7654 31.2117 77.6921 31.1836 77.6364 31.1276C77.5264 31.0167 77.5275 30.8381 77.6393 30.7287L80.679 27.752C80.7907 27.6426 80.9706 27.6439 81.0809 27.7548C81.191 27.8657 81.1897 28.0443 81.0781 28.1537L78.0384 31.1303C77.9829 31.1846 77.9109 31.2117 77.8388 31.2117Z" fill="#4F2DA7"/>
<path d="M98.1609 38.835C98.0502 38.5977 97.8344 38.4204 97.5142 38.3037C97.2224 38.1974 96.9575 38.1993 96.7185 38.3092C96.3858 38.4621 96.1511 38.7225 96.0111 39.0876C96.0083 39.0938 96.0031 39.098 96.0006 39.1044C95.9495 39.2429 96.0211 39.3964 96.1605 39.4472C96.3001 39.4981 96.4547 39.427 96.5059 39.2886C96.506 39.288 96.506 39.2875 96.506 39.287C96.613 38.9996 96.7655 38.81 96.9639 38.7188C97.0834 38.6639 97.2087 38.6603 97.3398 38.708C97.5002 38.7665 97.6079 38.855 97.6633 38.9737C97.7276 39.112 97.7227 39.2826 97.6477 39.4851C97.5889 39.6444 97.4798 39.7604 97.3205 39.8337C97.0413 39.962 96.8444 40.0705 96.7288 40.1597C96.5689 40.2812 96.4304 40.4997 96.3134 40.8147C96.3126 40.8166 96.311 40.8177 96.3102 40.8197C96.2701 40.9282 96.3261 41.0481 96.4352 41.088C96.5443 41.1278 96.6653 41.0721 96.7054 40.9637C96.7057 40.9629 96.7055 40.9619 96.7058 40.961C96.8021 40.7023 96.9391 40.5313 97.1178 40.4493C97.3568 40.3393 97.546 40.2524 97.6854 40.1882C97.9244 40.0784 98.0893 39.9008 98.1803 39.6546C98.2873 39.3652 98.2806 39.092 98.1609 38.835Z" fill="#5F40AF"/>
<path d="M96.2758 41.5194C96.1301 41.4664 95.9685 41.5406 95.915 41.6853C95.8615 41.8299 95.9363 41.9904 96.082 42.0435C96.2277 42.0966 96.3893 42.0223 96.4428 41.8776C96.4963 41.7329 96.4215 41.5726 96.2758 41.5194Z" fill="#5F40AF"/>
<path d="M29.8524 27.832L30.5305 26.652L31.2084 25.4719L31.8988 26.645L32.589 27.818L31.2207 27.825L29.8524 27.832Z" fill="#4F2DA7"/>
</svg>
