<svg width="27" height="27" viewBox="0 0 27 27" fill="none" xmlns="http://www.w3.org/2000/svg">
<path fill-rule="evenodd" clip-rule="evenodd" d="M0.205037 15.7997C-0.990947 8.91416 3.16127 2.32709 9.63236 0.430347L9.63276 0.431732L9.67565 0.406598L11.6088 3.80561C13.2961 3.84692 14.9225 4.75351 15.8281 6.34589L14.6698 7.02478C14.165 6.14466 13.3591 5.5522 12.4611 5.30426L16.9009 13.1108L18.346 12.2638L19.0135 13.4374L17.5684 14.2844L18.7365 16.3382C20.0956 18.7644 19.2722 21.8531 16.8875 23.2507C16.508 23.4731 16.1118 23.6393 15.7082 23.752L16.7149 25.522C22.8063 23.9209 26.756 17.8049 25.6446 11.4065C24.5742 5.24355 19.1797 0.957103 13.1869 1.19542L13.1415 0.0104155C19.7094 -0.25134 25.6218 4.44629 26.795 11.2006C28.0752 18.5712 23.2272 25.5998 15.9666 26.8994L15.9637 26.8826L15.9514 26.8898L14.2685 23.9309C12.5812 23.8896 10.9548 22.983 10.0492 21.3906L11.2075 20.7117C11.7123 21.5919 12.5182 22.1843 13.4162 22.4323L8.94298 14.5671L7.49788 15.414L6.83041 14.2405L8.27551 13.3935L7.10745 11.3397L7.1083 11.3392C5.79523 8.92215 6.62447 5.87214 8.98983 4.48582C9.36928 4.26342 9.76549 4.09719 10.1691 3.98457L8.98383 1.9005C3.6429 3.97574 0.325284 9.66345 1.35536 15.5938C2.39237 21.5641 7.48727 25.7734 13.253 25.814L13.2515 27C6.92967 26.9593 1.34197 22.3452 0.205037 15.7997ZM10.8754 5.22645C10.4595 5.29899 10.0488 5.44613 9.66199 5.67286C7.90615 6.70195 7.30456 8.98114 8.31829 10.7636L8.3205 10.7623L9.43159 12.7159L11.4547 11.5301L12.1222 12.7037L10.0991 13.8895L15.0019 22.5101C15.4178 22.4375 15.8285 22.2904 16.2153 22.0637C17.9711 21.0346 18.5727 18.7554 17.559 16.9729L17.5568 16.9742L16.4123 14.9619L14.3892 16.1477L13.7217 14.9741L15.7449 13.7883L10.8754 5.22645Z" fill="#4F2DA7"/>
</svg>
