<svg width="40" height="40" viewBox="0 0 40 40" fill="none" xmlns="http://www.w3.org/2000/svg">
<path fill-rule="evenodd" clip-rule="evenodd" d="M0 0L17.1433 11.2003V39.7725L0 28.5722V0Z" fill="url(#paint0_linear)"/>
<mask id="mask0" style="mask-type:alpha" maskUnits="userSpaceOnUse" x="0" y="0" width="18" height="40">
<path fill-rule="evenodd" clip-rule="evenodd" d="M0 0L17.1433 11.2003V39.7725L0 28.5722V0Z" fill="white"/>
</mask>
<g mask="url(#mask0)">
<path fill-rule="evenodd" clip-rule="evenodd" d="M5.03015 -4.11328L22.1735 7.08701V35.6592L5.03015 24.4589V-4.11328Z" fill="url(#paint1_linear)"/>
</g>
<path fill-rule="evenodd" clip-rule="evenodd" d="M22.8567 11.4746L40 0V11.3832L22.8567 22.8577V11.4746Z" fill="url(#paint2_linear)"/>
<mask id="mask1" style="mask-type:alpha" maskUnits="userSpaceOnUse" x="22" y="0" width="18" height="23">
<path fill-rule="evenodd" clip-rule="evenodd" d="M22.8567 11.4746L40 0V11.3832L22.8567 22.8577V11.4746Z" fill="white"/>
</mask>
<g mask="url(#mask1)">
<path fill-rule="evenodd" clip-rule="evenodd" d="M18.2854 9.18943L35.4287 -2.28516V9.098L18.2854 20.5726V9.18943Z" fill="url(#paint3_linear)"/>
</g>
<path fill-rule="evenodd" clip-rule="evenodd" d="M22.8567 28.6178L34.2856 20.8545V32.2376L22.8567 40.001V28.6178Z" fill="url(#paint4_linear)"/>
<mask id="mask2" style="mask-type:alpha" maskUnits="userSpaceOnUse" x="22" y="20" width="13" height="21">
<path fill-rule="evenodd" clip-rule="evenodd" d="M22.8567 28.6178L34.2856 20.8545V32.2376L22.8567 40.001V28.6178Z" fill="white"/>
</mask>
<g mask="url(#mask2)">
<path fill-rule="evenodd" clip-rule="evenodd" d="M20.1136 25.6471L31.5425 17.8838V29.2669L20.1136 37.0303V25.6471Z" fill="url(#paint5_linear)"/>
</g>
<defs>
<linearGradient id="paint0_linear" x1="18.4762" y1="3.32147" x2="2.02814" y2="2.14685" gradientUnits="userSpaceOnUse">
<stop stop-color="#8F6AFF"/>
<stop offset="1" stop-color="#6434DF"/>
</linearGradient>
<linearGradient id="paint1_linear" x1="20.0479" y1="-0.180925" x2="5.26893" y2="-0.399135" gradientUnits="userSpaceOnUse">
<stop stop-color="#8F6AFF"/>
<stop offset="1" stop-color="#6434DF"/>
</linearGradient>
<linearGradient id="paint2_linear" x1="33.5042" y1="-8.56947" x2="9.4671" y2="2.50018" gradientUnits="userSpaceOnUse">
<stop stop-color="#25D053"/>
<stop offset="1" stop-color="#47E37E"/>
</linearGradient>
<linearGradient id="paint3_linear" x1="37.8857" y1="-0.061312" x2="18.7983" y2="0.802976" gradientUnits="userSpaceOnUse">
<stop stop-color="#1EB646"/>
<stop offset="1" stop-color="#47E37E"/>
</linearGradient>
<linearGradient id="paint4_linear" x1="32.7076" y1="18.8881" x2="20.7326" y2="20.8619" gradientUnits="userSpaceOnUse">
<stop stop-color="#8534F2"/>
<stop offset="1" stop-color="#BA74FF"/>
</linearGradient>
<linearGradient id="paint5_linear" x1="25.6966" y1="14.095" x2="8.48456" y2="17.7755" gradientUnits="userSpaceOnUse">
<stop stop-color="#8534F2"/>
<stop offset="1" stop-color="#BA74FF"/>
</linearGradient>
</defs>
</svg>
