<svg xmlns="http://www.w3.org/2000/svg" width="296" height="257" viewBox="0 0 296 257">
    <g fill="none" fill-rule="evenodd">
        <path fill="#ECF5FF" fill-rule="nonzero" d="M107.45 206.004c19.263 5.547 31.676 4.274 34.078 5.237 2.402.963 3.581 2.516 5.229 3.845 6.124 4.95 18.677 6.542 29.645 5.7 10.968-.84 21.032-3.62 31.387-5.735 17.895-3.66 27.837.423 46.647-3.81 18.81-4.232 22.028-7.212 19.85-11.154-2.178-3.942-14.164-7.995-29.956-7.142-15.792.853-31.312 3.2-47.175 3.212-19.774 0-38.88-3.605-58.461-5.087-13.563-1.022-50.507 9.387-31.244 14.934z" opacity=".8"/>
        <g fill-rule="nonzero">
            <path fill="#F4F9FF" d="M291.968 134.59c-4.656 19.9-14.512 37.103-30.087 45.452-32.375 17.33-105.384 8.39-159.87-1.877a124.77 124.77 0 0 1-70.952-40.558l260.91-3.018z" opacity=".6"/>
            <path fill="#ECF5FF" d="M6.234 40.915H36.13a2.583 2.583 0 0 0 0-5.165h-5.169a2.586 2.586 0 0 0 0-5.169h3.691a2.586 2.586 0 0 0 0-5.168H19.049c3.462-1.61 7.51-2.755 12.174-3.355 42.548-5.464 57.74-1.848 63.098 1.877 6.611 4.586 13.987 7.96 21.87 9.586 26.252 5.415 75.347 11.932 119.845-2.087 22.117-6.973 38.553 4.806 48.406 24.482H1.044c.37-5.718 1.478-10.996 3.51-15.62a2.564 2.564 0 0 0 1.68.62z" opacity=".6"/>
            <path fill="#ECF5FF" d="M294.506 93.052a131.72 131.72 0 0 1-1.159 34.72l-262.49 9.601a123.335 123.335 0 0 1-18.237-27.815l281.886-16.506zm-103.818 24.766h5.168a2.583 2.583 0 1 0 0 5.166h29.897a2.583 2.583 0 0 0 0-5.166h-5.168a2.586 2.586 0 0 0 0-5.168h3.69a2.586 2.586 0 0 0 0-5.168h-29.897a2.586 2.586 0 0 0 0 5.168h-3.69a2.586 2.586 0 0 0 0 5.168z" opacity=".5"/>
            <path fill="#ECF5FF" d="M1.03 56.088l286.575 6.973c3.486 8.96 5.785 19.086 6.858 29.591H6.05A122.587 122.587 0 0 1 1.886 73.79c-.858-6.171-1.201-12.141-.855-17.701zm235.253 22.84h5.169a2.583 2.583 0 1 0 0 5.166h29.897a2.583 2.583 0 0 0 0-5.166h-5.169a2.586 2.586 0 0 0 0-5.168h3.69a2.586 2.586 0 0 0 0-5.168h-29.896a2.586 2.586 0 0 0 0 5.168h-3.69a2.586 2.586 0 0 0 0 5.168z" opacity=".3"/>
        </g>
        <g transform="translate(49 65)">
            <path fill="#FFB9B9" fill-rule="nonzero" d="M71.332 44.05L67 54.455 76.187 57 79 52.351s-.898-9.097-7.668-8.302z"/>
            <ellipse cx="101.5" cy="185" fill="#6C63FF" fill-rule="nonzero" opacity=".1" rx="30.5" ry="7"/>
            <path fill="#FFB9B9" fill-rule="nonzero" d="M114 33.677s-4.438 5.625-7.992 10.059c-2.291 2.854-4.21 5.222-4.354 5.262-.144.006-.289 0-.432-.022-1.788-.156-8.584-1.096-11.675-1.53L88 47.229s.097-2.653.508-5.87c.486-3.86 1.426-8.528 3.172-10.393a5.292 5.292 0 0 0 1.124-1.897c.621-1.75.526-3.84.279-5.56a20.752 20.752 0 0 0-.808-3.394s11.279-6.599 10.684-.587a11.37 11.37 0 0 0 .413 4.577c.852 2.721 2.557 3.917 2.557 3.917l.048.034L114 33.677z"/>
            <path fill="#FFB9B9" fill-rule="nonzero" d="M107 15.993c.004 4.97-4.024 9.002-8.993 9.007A9 9 0 1 1 107 15.993z"/>
            <path fill="#050505" fill-rule="nonzero" d="M99.836 11.003c.495 1.03 1.78 1.437 2.942 1.532.983.084 2.115-.043 2.699-.823.192-.287.338-.604.431-.936l.677-1.987c.358-1.052.695-2.28.054-3.206-.57-.814-1.794-1.153-2.054-2.11-.122-.444 0-.917-.065-1.37-.151-.936-1.1-1.545-2.023-1.823a6.696 6.696 0 0 0-4.652.304 1.5 1.5 0 0 1-.654.195c-.37 0-.654-.306-.975-.488-1.034-.589-2.326.035-3.305.686a5.045 5.045 0 0 0-1.318 1.118c-.324.434-.518.953-.807 1.404-.951 1.427-2.844 1.887-4.214 2.934-1.486 1.13-2.314 2.95-2.515 4.783-.202 1.833.16 3.686.71 5.45.095.348.239.682.427.99.558.832 1.67 1.187 2.213 2.029.437.676.478 1.624 1.142 2.093.79.554 1.978 0 2.398-.87.418-.87.299-1.867.18-2.814-.119-.945-.214-1.962.24-2.804.404-.745 1.19-1.24 1.588-1.989.42-.793.349-1.738.423-2.63.076-.893.413-1.89 1.256-2.232 1.057-.43 2.52.32 3.62.442 1.25.147 1.124 1.165 1.582 2.122z"/>
            <path fill="#FFB9B9" fill-rule="nonzero" d="M88 120.198s1.142 4.71 1.617 6.562c.474 1.853 1.499 5.097 1.499 5.097s.117 4.206.825 5.018c.708.811.553 8.765 3.548 13.627 2.995 4.864 6.94 15.792 6.94 15.792l.523 3.706 5.048-5.752-4.193-21.046s-2.443-8.53-1.696-11.194c.747-2.663-3.113-13.008-3.113-13.008L88 120.198z"/>
            <path fill="#000" fill-rule="nonzero" d="M108 164.246L102.953 170l-.525-3.706s-3.93-10.925-6.939-15.792c-3.008-4.865-2.838-12.813-3.548-13.624-.71-.812-.826-5.021-.826-5.021s-1.024-3.244-1.499-5.097c-.282-1.105-.805-3.238-1.18-4.767-.261-1.028-.436-1.797-.436-1.797L99.005 119s.123.325.317.877c.91 2.553 3.407 9.94 2.797 12.13-.75 2.666 1.698 11.195 1.698 11.195L108 164.246z" opacity=".05"/>
            <path fill="#C7C0D9" fill-rule="nonzero" d="M108.862 173.471l-4.402 3.16c-2.128 2.185-8.376 3.992-11.103 3.164-2.314-.707-1.174-2.503-.2-3.183.143-.109.303-.193.474-.25.946-.266 3.191-2.11 3.191-2.11s2.204-2.86 2.557-4.555c.354-1.694 2.88-3.09 2.88-3.09s3.384-3.16 4.92-2.522c1.003.421 2.039 3.846 2.64 6.172l.101.398c.267 1.056-.148 2.164-1.058 2.816z"/>
            <path fill="#000" fill-rule="nonzero" d="M108.865 174.292l-4.403 3.247c-2.128 2.245-8.377 4.1-11.105 3.25-2.315-.726-1.173-2.571-.199-3.27.94 1.442 4.372 1.182 4.372 1.182l6.105-2.669 6.187-5.032.1.408a2.767 2.767 0 0 1-1.057 2.884z" opacity=".1"/>
            <path fill="#000" fill-rule="nonzero" d="M101.597 166.294s-3.788-10.927-6.685-15.79c-2.896-4.863-2.735-12.816-3.419-13.627-.684-.811-.799-5.017-.799-5.017s-.987-3.244-1.441-5.097c-.276-1.109-.778-3.239-1.14-4.768-.252-1.027-.421-1.797-.421-1.797l9.943-1.124-.028-.074L87 120.198s.177.77.422 1.797c.358 1.54.864 3.66 1.136 4.768.455 1.853 1.443 5.097 1.443 5.097s.114 4.206.798 5.017c.684.811.53 8.764 3.42 13.626 2.89 4.864 6.685 15.79 6.685 15.79l.505 3.707.591-.699-.403-3.007z" opacity=".05"/>
            <path fill="#FFB9B9" fill-rule="nonzero" d="M111.998 151.921c-.433 1.309-2.172 9.888-3.12 11.272-.949 1.383-2.054 9.346-2.054 9.346l-.213.146-.459.315s-6.8-.307-6.012-1.499c.162-.353.263-.73.298-1.116.525-3.236.571-11.845.571-11.845l.08-13.656s1.785-4.406.55-7.653a16.584 16.584 0 0 1-1.105-6s.196-3.154-.673-4.422c-.703-1.024-.838-6.465-.861-8.464v-.742l1.103-1.603 12.08.809s-.025.948-.1 2.178a35.994 35.994 0 0 1-.451 4.282c-.433 2.19-.04 7.883-.04 7.883l.673 7.415c1.59 3.586.17 12.047-.267 13.354z"/>
            <path fill="#000" fill-rule="nonzero" d="M99 119.8v.078c-4.219 2.455-8.11 2.324-10.575 1.834-.254-.93-.425-1.628-.425-1.628L98.698 119s.113.294.302.8z" opacity=".05"/>
            <path fill="#4C4C78" fill-rule="nonzero" d="M116 89.837l-.158 3.024-.351 6.828-17.06 2.768v17.177c-7.228 4.591-13.499 1.086-13.499 1.086s.117-5.802 0-6.387c-.117-.586-.47-2.959-.47-2.959s-.742-2.454-.584-3.193c.16-.737-.745-3.036-1.095-3.882-.351-.848-.74-3.815-.74-3.815l-.4-3.44a1.829 1.829 0 0 1-.626-.744c-.067-.22.074-2.268.203-3.97.099-1.265.19-2.332.19-2.332L97.34 87 116 89.837z"/>
            <path fill="#000" fill-rule="nonzero" d="M98 104.242V118c-.244-.19-.583-.664-.616-1.82-.054-1.831-.163-6.168-.357-8.118-.195-1.95.742-4.062.742-4.062l.231.242z" opacity=".05"/>
            <path fill="#000" fill-rule="nonzero" d="M89 99s.786 1.543 3.355 1.952C94.922 101.362 89 99 89 99zM86 102s5.648 1.043 7 .999M88 106.904s3.175.047 5-.904M87 115s8.036-2.627 9-4M89 119c.268-.038 7.393-3.964 8-5M112 116.812s-.026.953-.1 2.188l-12.9-.644v-.745l1.087-1.611 11.913.812zM101 101.9s6.496-1.572 7.862-.561c1.367 1.012-7.862.56-7.862.56zM95 90s1.3 12.163 2.374 12.966C98.448 103.77 103 90 103 90h-8z" opacity=".1"/>
            <path fill="#4C4C78" fill-rule="nonzero" d="M95 90s1.302 12.163 2.374 12.966C98.445 103.77 103 90 103 90h-8z"/>
            <path fill="#839BF2" fill-rule="nonzero" d="M117.058 92a4.43 4.43 0 0 1-.552-.154 11.354 11.354 0 0 1-3.422-1.922 1.472 1.472 0 0 0-.163-.123c-1.341-.936-3.096-.593-4.242-.196-.406.14-.8.31-1.18.512 0 0-17.377.59-17.377.118 0-.344-2.461.175-4.117.623-.442.115-.88.252-1.307.41-.628.257-2.163.145-3.047.046-.387-.045-.651-.082-.651-.082v-.134l.86-21.33 2.478-19 .907-7.962 2.942-1.4L91.145 40c.33.447.708.859 1.13 1.224 1.504 1.336 4.43 2.997 8.338.75.428-.248.84-.522 1.234-.82 1.333-1.005 2.586.133 3.737 2.578 4.496 9.54 7.43 38.999 7.43 38.999l4.448 2.812s.151.556.298 1.343c.29 1.641.551 4.309-.702 5.114z"/>
            <path fill="#000" fill-rule="nonzero" d="M111 93s4.16.76 3.995 2M112.269 138.57l-.677-7.416s-.397-5.691.039-7.884c.237-1.418.39-2.848.456-4.284.071-1.23.101-2.178.101-2.178L100.032 116l-.032.046 11.479.767s-.027.95-.099 2.179a36.86 36.86 0 0 1-.455 4.284c-.44 2.19-.043 7.883-.043 7.883l.679 7.417c1.585 3.58.157 12.04-.28 13.346-.435 1.307-2.189 9.89-3.143 11.273-.953 1.384-2.073 9.342-2.073 9.342l-.622.424.658.039.68-.463s1.11-7.961 2.065-9.347c.954-1.386 2.705-9.974 3.142-11.273.436-1.3 1.871-9.77.28-13.347z" opacity=".1"/>
            <path fill="#4C4C78" fill-rule="nonzero" d="M113.555 98L116 99.483V119l-17.774-.887L97 103.775l2.913-3.51z"/>
            <path fill="#000" fill-rule="nonzero" d="M101 109s7.662 5.634 10 6M107 172.96c-.093.22-.166.449-.221.685l-.476.355s-7.055-.349-6.237-1.69a4.11 4.11 0 0 0 .308-1.257c1.648-.401 4.442 1.603 4.442 1.603l2.184.304z" opacity=".1"/>
            <path fill="#C7C0D9" fill-rule="nonzero" d="M106.871 185.237c-.454.927-.607 3.131-.607 3.131s-1.408 2.164-3.385 1.508c-1.977-.655-7.872-.388-8.216-.54-1.11-.514-.625-1.696 0-2.787.36-.625.758-1.212.948-1.621.505-1.123 1.635-4.062 1.635-4.062-.15-2.398 1.598-4.446 1.598-4.446l.758-5.028c1.283-1.311 4.753 1.085 4.753 1.085l2.023.272c-1.027 2.28.038 8.658.038 8.658s.167.536.325 1.222c.207.914.392 2.078.13 2.608z"/>
            <path fill="#000" fill-rule="nonzero" d="M106.871 185.473c-.454.882-.607 2.976-.607 2.976s-1.408 2.057-3.385 1.433c-1.977-.622-7.872-.369-8.216-.513-1.11-.489-.625-1.612 0-2.648 2.677.143 8.666.412 9.998-.074 1.71-.622 2.094-2.774 2.077-3.647.21.864.395 1.97.133 2.473z" opacity=".1"/>
            <circle cx="103.49" cy="178.49" r="1" fill="#605B89" fill-rule="nonzero"/>
            <circle cx="98.49" cy="178.49" r="1" fill="#605B89" fill-rule="nonzero"/>
            <circle cx="103.49" cy="180.49" r="1" fill="#605B89" fill-rule="nonzero"/>
            <circle cx="98.49" cy="180.49" r="1" fill="#605B89" fill-rule="nonzero"/>
            <circle cx="102.49" cy="185.49" r="1" fill="#605B89" fill-rule="nonzero"/>
            <circle cx="98.49" cy="185.49" r="1" fill="#605B89" fill-rule="nonzero"/>
            <circle cx="102.49" cy="184.49" r="1" fill="#605B89" fill-rule="nonzero"/>
            <circle cx="98.49" cy="184.49" r="1" fill="#605B89" fill-rule="nonzero"/>
            <circle cx="102.491" cy="182.491" r="1" fill="#605B89" fill-rule="nonzero"/>
            <circle cx="98.491" cy="182.491" r="1" fill="#605B89" fill-rule="nonzero"/>
            <circle cx="103.49" cy="181.49" r="1" fill="#605B89" fill-rule="nonzero"/>
            <circle cx="98.49" cy="181.49" r="1" fill="#605B89" fill-rule="nonzero"/>
            <path stroke="#000" stroke-width=".316" d="M100 175s2.2 1.946 5 .409" opacity=".1"/>
            <path stroke="#605B89" stroke-width=".316" d="M98.479 178s4.877 1.242 4.5 2.086c0 0-4.29-.631-4.595 0-.306.631 4.219 1.222 4.219 1.222s-3.721.594-4.132 0c-.41-.593 3.747 1.223 3.747 1.223s-3.747-.386-3.747 0c0 .385 3.553 1.224 3.553 1.224s-3.32-.357-3.553 0c-.233.358 3.305.497 3.371 1.06.066.565-3.842-.383-3.842 0 0 .386 4.972-6.814 4.972-6.814" opacity=".2"/>
            <path fill="#839BF2" fill-rule="nonzero" d="M92.207 29.007c1.463-.15 6.308 7.949 8.81 6.55 8.177-4.57 4.07-7.557 4.07-7.557s9.704.982 12.25 2.838C119.94 32.736 124 41.916 124 41.916s-3.415 7.827-2.644 11.023c.77 3.197-5.367-1.996-5.367-1.996L116.807 86l-14.867-1.475-20.994-2.62 1.562-28.966-.141 2.623S70.997 43.343 70 46.84c0 0 5.174-10.98 7.953-13.928 2.544-2.7 14.254-3.905 14.254-3.905"/>
            <path fill="#FFB9B9" fill-rule="nonzero" d="M124.094 42L128 56l-10.882-.002L116 51.26z"/>
            <g fill-rule="nonzero" transform="translate(129.782 25)">
                <path fill="#F1B350" d="M51.564 14.487s9.052-.503 9.052 15.735c0 16.239-9.052 15.737-9.052 15.737V14.487z"/>
                <path fill="#E26A2E" d="M42.372 8.322S55.09 7.614 55.09 30.43 42.372 52.54 42.372 52.54V8.322z"/>
                <path fill="#F1B350" d="M30.346 60.502c9.8 0 17.746-13.464 17.746-30.072 0-16.609-7.666-30.073-17.746-30.073H18.35v60.144h11.997v.001z"/>
                <ellipse cx="18.348" cy="30.43" fill="#E26A2E" rx="17.746" ry="30.072"/>
            </g>
            <path stroke="#E26A2E" stroke-width="1.302" d="M161.628 33.473h9.563"/>
            <path stroke="#E26A2E" stroke-width="1.163" d="M166.88 55.69h10.994"/>
            <path stroke="#E26A2E" stroke-width=".953" d="M163.172 77.39h7.067"/>
            <path fill="#F1B350" fill-rule="nonzero" stroke="#F1B350" stroke-width="3.108" d="M158.173 47.147h-3.997c-.265-3.83-1.389-6.587-2.837-8.273h6.835c.325 0 .59-.419.59-.936 0-.518-.265-.938-.59-.938h-16.8c-.328 0-.592.42-.592.938 0 .517.264.936.592.936h7.14c1.909.56 4.08 3.077 4.485 8.273h-11.625c-.328 0-.592.42-.592.937 0 .516.264.937.592.937h11.699c-.024 2.604-.586 4.714-1.686 6.272-3.123 4.4-9.5 3.277-9.564 3.27-.236-.038-.477.148-.588.492-.114.34-.085.756.074 1.05l11.21 20.583c.117.214.283.323.447.323.138 0 .276-.074.388-.228.246-.336.274-.928.06-1.321l-10.29-18.895c2.219.091 6.475-.247 9.045-3.873 1.365-1.924 2.062-4.51 2.085-7.673h3.92c.325 0 .59-.42.59-.937 0-.516-.262-.937-.59-.937z"/>
            <path fill="#1B5B8C" fill-rule="nonzero" d="M145 55.572c0 1.894-1.908 3.428-4.262 3.428H61.71c-2.354 0-4.262-1.534-4.262-3.428 0-1.893 1.908-3.428 4.262-3.428h79.029c2.354 0 4.261 1.535 4.261 3.428z"/>
            <g transform="translate(0 25)">
                <path fill="#F1B350" fill-rule="nonzero" d="M45.743 60.727c10.076 0 18.246-13.565 18.246-30.297S55.82.133 45.743.133H32.745v60.594"/>
                <ellipse cx="32.745" cy="30.43" fill="#E26A2E" fill-rule="nonzero" rx="18.246" ry="30.297"/>
                <path stroke="#E26A2E" stroke-width="1.377" d="M46.221 8.213h10.694"/>
                <path stroke="#E26A2E" stroke-width="1.163" d="M51.991 30.43h10.997M46.473 52.129H56.99"/>
                <g transform="translate(5.714 8.947)">
                    <path fill="#F1B350" fill-rule="nonzero" d="M22.345 42.829c7.1 0 12.856-9.556 12.856-21.346C35.201 9.694 29.446.137 22.345.137h-9.157V42.83"/>
                    <ellipse cx="13.188" cy="21.483" fill="#E26A2E" fill-rule="nonzero" rx="12.856" ry="21.345"/>
                    <path stroke="#E26A2E" stroke-width=".97" d="M22.683 5.83h7.534"/>
                    <path stroke="#E26A2E" stroke-width=".819" d="M26.749 21.483h7.748M22.86 36.77h7.41"/>
                </g>
                <g transform="translate(0 16.267)">
                    <path fill="#F1B350" fill-rule="nonzero" d="M14.428 27.654c4.488 0 8.126-6.04 8.126-13.49 0-7.452-3.638-13.492-8.126-13.492H8.64v26.982"/>
                    <ellipse cx="8.64" cy="14.163" fill="#E26A2E" fill-rule="nonzero" rx="8.125" ry="13.491"/>
                    <path stroke="#E26A2E" stroke-width=".613" d="M14.642 4.27h4.76"/>
                    <path stroke="#E26A2E" stroke-width=".518" d="M17.21 14.163h4.898M14.754 23.826h4.682"/>
                </g>
                <path fill="#F1B350" fill-rule="nonzero" stroke="#F1B350" stroke-width="2.325" d="M11.26 26.617h-1.246c-.083-1.316-.433-2.263-.884-2.842h2.132c.102 0 .183-.144.183-.322 0-.178-.082-.323-.183-.323h-5.24c-.102 0-.184.146-.184.323 0 .178.082.322.184.322H8.25c.595.191 1.272 1.057 1.398 2.842H6.022c-.102 0-.184.145-.184.322 0 .178.082.322.184.322h3.649c-.008.895-.183 1.62-.527 2.155-.973 1.512-2.963 1.125-2.982 1.123-.073-.013-.149.051-.184.17a.523.523 0 0 0 .023.36l3.497 7.072c.036.073.088.11.14.11.042 0 .085-.024.12-.077a.505.505 0 0 0 .017-.455l-3.21-6.492c.693.032 2.02-.084 2.823-1.33.425-.66.643-1.55.65-2.637h1.222c.102 0 .184-.144.184-.322 0-.177-.08-.32-.183-.32z"/>
            </g>
            <path fill="#FFB9B9" fill-rule="nonzero" d="M120.015 59.234s-2.725-2.722-1.506-4.815c1.916-3.295 5.94-1.926 5.94-1.926s3.797.973 2.91 5.272c0 0 1.079 1.249 1.414 1.769 1.373 2.132 1.703 5.043 1.726 7.556.072 8.014-5.126 2.85-5.126 2.85s-2.588-1.762-3.765-8.096c-.502-2.7-.815-1.63-1.593-2.61zM74.955 59.278s2.88-2.512 1.804-4.714c-1.692-3.464-5.775-2.415-5.775-2.415s-3.832.671-3.226 5.06c0 0-1.152 1.167-1.517 1.663-1.499 2.03-2.014 4.926-2.198 7.45-.584 8.042 4.907 3.276 4.907 3.276s2.683-1.56 4.257-7.826c.67-2.671.912-1.572 1.748-2.494z"/>
        </g>
        <circle cx="62.5" cy="23.5" r="20.5" fill="#E9F3FF" fill-rule="nonzero"/>
        <circle cx="265.5" cy="84.5" r="20.5" fill="#E9F3FF" fill-rule="nonzero"/>
        <circle cx="36.5" cy="185.5" r="20.5" fill="#E9F3FF" fill-rule="nonzero"/>
        <circle cx="175.5" cy="20.5" r="20.5" fill="#E9F3FF" fill-rule="nonzero"/>
        <g fill-rule="nonzero">
            <path fill="#8A7474" d="M266.555 84c0 .829.015 3.436.015 4.32h3.887c.919 0 1.427.418 1.501 1.344.058.706.052 1.425.006 2.134-.046.717-.583.884-1.24.93-.213 1.176-.442 2.36-.637 3.55-.212 1.306-.658 1.719-1.928 1.72L263.83 98c-.847.002-1.369-.401-1.547-1.277-.227-1.104-.406-2.22-.609-3.33-.041-.222-.1-.44-.144-.63-.322-.078-.656-.065-.854-.23-.27-.225-.565-.56-.618-.889-.1-.59-.046-1.21-.025-1.817.028-.823.744-1.502 1.58-1.507 1.34-.009 2.678-.003 4.065-.003 0-.841-.017-3.451-.017-4.296l.893-.021zm4.63 7.788c0-.694.01-1.404-.007-2.11-.007-.34-.173-.518-.542-.517-3.025.01-6.051.007-9.077.006-.515-.001-.732.282-.733.785 0 .44.03.883-.01 1.32-.045.496.18.657.6.593.615-.093.88.183.972.797.182 1.219.412 2.43.62 3.644.134.782.26.896 1.044.897 1.381.002 2.762 0 4.144-.003.796-.002.911-.092 1.059-.875.195-1.048.38-2.098.57-3.148.214-1.18.214-1.18 1.36-1.389z"/>
            <path fill="#E26A2E" d="M266.036 84c-3.237.034-5.976-2.66-6.035-5.939-.058-3.188 2.742-6.044 5.941-6.06 3.273-.018 6.043 2.728 6.058 6 .014 3.244-2.692 5.965-5.964 5.999zm-.008-11.085c-2.904-.001-5.124 2.21-5.127 5.111-.005 2.825 2.278 5.124 5.08 5.117 2.883-.008 5.13-2.262 5.123-5.143-.006-2.868-2.217-5.084-5.076-5.085z"/>
            <path fill="#35CB5D" d="M262.526 87c-.345-.02-.692-.025-1.036-.066-1.411-.167-2.38-.964-2.885-2.353a17.687 17.687 0 0 1-.583-2.029c-.103-.44.166-.64.57-.515.767.24 1.544.452 2.314.681.405.12.823.219 1.208.39 1.294.576 1.983 1.827 1.875 3.307-.027.378-.203.555-.542.567-.306.013-.614.003-.921.003V87zm-3.585-3.946c.564 2.547 1.622 3.344 4.206 3.098.122-.996-.248-1.83-1.15-2.185-.957-.376-1.968-.595-3.056-.913zM269.406 87h-.23c-1.17.002-1.28-.16-1.116-1.381.207-1.53 1.12-2.335 2.43-2.742.987-.307 1.983-.579 2.978-.852.38-.105.615.137.505.487-.323 1.03-.623 2.088-1.107 3.036-.527 1.03-1.558 1.305-2.6 1.412-.284.029-.573.005-.86.005V87zM273 83c-.977.275-1.89.467-2.759.794-.963.362-1.387 1.226-1.197 2.173 2.352.209 3.523-.537 3.956-2.967z"/>
            <path fill="#8A7474" d="M266.031 90h2.45c.262 0 .578-.005.51.506-.028.198-.318.462-.49.465-1.668.037-3.337.039-5.006.005-.172-.004-.465-.28-.488-.48-.06-.51.261-.495.521-.495h2.503z"/>
            <path fill="#F1B350" stroke="#F1B350" stroke-width=".741" d="M267.867 76.383h-.888c-.059-.52-.308-.897-.63-1.127h1.518a.13.13 0 0 0 .132-.127c0-.07-.06-.129-.132-.129h-3.735a.13.13 0 0 0-.132.129c0 .069.06.127.132.127h1.588c.423.076.907.42.998 1.127h-2.586a.13.13 0 0 0-.132.128c0 .072.06.13.132.13h2.602c-.006.355-.132.643-.375.854-.694.6-2.113.447-2.127.445a.133.133 0 0 0-.13.068.123.123 0 0 0 .015.143l2.494 2.805c.026.03.063.044.1.044a.13.13 0 0 0 .087-.03.125.125 0 0 0 .012-.181l-2.288-2.575c.494.013 1.44-.034 2.013-.528.304-.263.458-.614.463-1.046h.87a.13.13 0 0 0 .132-.129.13.13 0 0 0-.133-.128z"/>
        </g>
        <g fill-rule="nonzero">
            <path fill="#C35EE3" d="M175.691 24c.022-1.925.01-3.851.01-5.874-.385.058-.75.044-1.055.17-.72.292-1.423.63-2.11.992-.248.13-.43.173-.672.014-1.317-.872-2.727-1.116-4.26-.616-.477.155-.613.036-.604-.464a9.07 9.07 0 0 1 7.682-8.783c.315-.05.729-.004.917-.184.163-.154.044-.571.101-.862.029-.142.174-.263.266-.393.108.125.287.239.31.377.048.292.015.596.015.821 1.105.305 2.173.47 3.126.884 3.022 1.311 4.788 3.635 5.414 6.79.088.442.13.894.165 1.343.036.468-.155.622-.602.475-1.51-.496-2.917-.287-4.222.58-.293.195-.507.16-.786-.035-.9-.627-1.885-1.056-3.075-1.143v.563c0 1.748.006 3.496-.004 5.244l-.616.101zm3.703-5.53c.153-1.447-.28-4.228-.997-5.893-.3-.697-.686-1.387-1.17-1.971-.746-.9-1.7-.906-2.487-.038a6.867 6.867 0 0 0-1.103 1.7c-.71 1.518-.966 3.152-1.113 4.8-.041.466-.007.936-.007 1.412 3.441-1.32 3.441-1.32 6.877-.01zm-5.262-8.253c-3.22.316-7.142 5.086-6.465 7.734.713-.036 1.43-.164 2.117-.078.683.086 1.339.388 2.046.608.16-2.875.459-5.753 2.302-8.264zm3.672.013c1.864 2.504 2.137 5.386 2.332 8.37 1.331-.812 2.705-.931 4.128-.576.49-2.976-3.415-7.689-6.46-7.794z"/>
            <path fill="#4686EA" d="M177.238 25.822c.186.095.356.176.52.265.47.25.902.542 1.247.921.395.435.63.938.762 1.471.119.478.201.964.267 1.448.12.863.178 1.731.2 2.6.022.815-.671 1.45-1.607 1.454-1.934.008-3.865.014-5.799.019-.84.001-1.53-.536-1.58-1.268a8.715 8.715 0 0 1 .028-1.28c.055-.71.133-1.418.215-2.127.05-.447.167-.886.33-1.317.283-.742.81-1.316 1.549-1.748.22-.13.445-.249.678-.376a2.895 2.895 0 0 0-.06-.08c-.245-.327-.493-.654-.733-.983a.692.692 0 0 1-.121-.615c.09-.325.39-.527.835-.561.162-.013.326-.015.489-.013.08 0 .125-.017.166-.083a1.153 1.153 0 0 1 1.281-.512c.235.058.422.182.56.353.063.075.114.085.208.051.185-.065.381-.089.58-.06.526.082.82.521.65.97-.025.068-.063.132-.092.197l-.573 1.274zm-1.515 7.581v-.019c.98 0 1.96.003 2.94 0 .393-.001.728-.22.834-.548.035-.111.053-.228.05-.342a24.28 24.28 0 0 0-.224-2.75c-.061-.448-.13-.895-.28-1.329-.174-.501-.425-.963-.88-1.322-.42-.332-.899-.583-1.402-.803-.096-.043-.198-.076-.298-.114-.06-.022-.062-.055-.04-.106.13-.292.257-.588.385-.881.142-.327.288-.653.423-.982.023-.056.028-.134-.002-.183-.042-.07-.14-.062-.22-.045-.064.015-.126.03-.187.051-.094.032-.187.07-.282.103-.216.076-.357.03-.466-.148a2.181 2.181 0 0 0-.192-.271c-.08-.092-.196-.123-.328-.107-.23.026-.382.223-.32.414.08.239.158.48.235.72.062.193-.037.358-.24.405a.358.358 0 0 1-.436-.243 40.828 40.828 0 0 1-.2-.606c-.014-.048-.037-.07-.097-.068-.133.004-.266 0-.398.001-.3.004-.38.108-.23.33.236.354.491.698.743 1.043.017.025.071.04.11.042.249.001.497-.002.745 0 .235.001.407.147.405.335-.003.192-.172.332-.408.332l-.775.001a.296.296 0 0 0-.126.023c-.32.169-.646.33-.95.518-.53.325-.917.753-1.112 1.295-.113.31-.22.626-.274.946-.097.593-.17 1.19-.223 1.787-.05.56-.07 1.125-.085 1.689-.013.509.376.835.957.835.95-.004 1.899-.003 2.848-.003z"/>
            <path fill="#F1B350" stroke="#F1B350" stroke-width=".423" d="M176.345 28.92h-.444c-.03-.347-.154-.596-.314-.75h.758c.037 0 .067-.039.067-.085 0-.047-.03-.085-.067-.085h-1.867c-.036 0-.066.038-.066.085 0 .046.03.085.066.085h.794c.212.05.454.278.499.75h-1.292c-.037 0-.067.04-.067.086 0 .046.03.086.067.086h1.3c-.003.236-.066.428-.186.57-.348.4-1.057.299-1.064.297-.027-.003-.054.014-.067.044-.013.031-.01.07.008.097l1.247 1.87c.013.02.032.03.05.03a.055.055 0 0 0 .042-.019.104.104 0 0 0 .007-.121l-1.144-1.718c.247.007.72-.024 1.006-.353.152-.175.229-.41.23-.697h.436c.037 0 .067-.04.067-.086 0-.046-.028-.085-.066-.085z"/>
        </g>
        <g transform="translate(51 11)">
            <path fill="#4A8A84" d="M9.995 20.99H2.02C.787 20.99 0 20.2 0 18.96V4.755C0 3.73.457 3.098 1.427 2.775c.184-.063.371-.04.559-.042.46-.006.92-.01 1.38.002.201.006.253-.069.257-.26.008-.47-.063-.945.058-1.41C3.827.493 4.295.064 4.827.008A1.383 1.383 0 0 1 6.24.776c.147.286.134.603.15.91.014.264.013.528-.001.791-.01.202.067.258.26.257.921-.009 1.842-.004 2.763-.004h3.83c.383 0 .373 0 .388-.398.017-.458-.07-.923.061-1.375.156-.535.682-.94 1.228-.953.61-.016 1.14.34 1.342.876.182.486.098.989.113 1.485.01.364.002.365.37.365.46 0 .92.008 1.38-.002 1.006-.02 1.873.848 1.87 1.889-.008 2.395-.003 4.79-.003 7.187 0 2.377-.021 4.754.009 7.13.018 1.294-.968 2.08-2.059 2.066-2.649-.034-5.297-.01-7.946-.01zm0-12.784H1.317c-.372 0-.373.001-.373.374v10.383c.001.77.31 1.077 1.081 1.077h15.947c.767 0 1.076-.309 1.076-1.08V8.576c0-.37 0-.37-.376-.37H9.995zm.002-.908c2.911 0 5.823-.002 8.735.004.246.002.326-.064.321-.316-.016-.792-.002-1.585-.007-2.378-.004-.575-.358-.933-.931-.94-.488-.007-.978.01-1.465-.008-.232-.008-.28.08-.281.295-.004.478.054.958-.079 1.433a1.363 1.363 0 0 1-1.448 1 1.366 1.366 0 0 1-1.213-1.306c-.008-.396-.01-.792 0-1.189.004-.168-.049-.232-.224-.232-2.273.005-4.546.005-6.82 0-.174 0-.228.062-.224.232.009.396.008.792-.001 1.188a1.362 1.362 0 0 1-1.211 1.307 1.365 1.365 0 0 1-1.448-1c-.13-.485-.077-.974-.08-1.462-.002-.19-.049-.27-.253-.265-.497.014-.995 0-1.493.008-.574.007-.928.364-.93.94-.006.783.008 1.567-.009 2.348-.007.278.082.347.352.347 2.903-.01 5.807-.006 8.709-.006zM5.462 3.196c0-.573.003-1.148 0-1.722-.004-.32-.19-.544-.447-.548-.248-.006-.45.202-.453.51a374.29 374.29 0 0 0 0 3.53c.001.195.07.37.268.46.316.142.625-.087.63-.481.008-.582.002-1.165.002-1.75zm9.069-.027c0 .574-.003 1.15.001 1.725.001.368.155.552.452.552.298 0 .447-.174.448-.554.004-1.131.004-2.262 0-3.395 0-.35-.186-.573-.45-.57-.268.001-.449.23-.45.574-.004.556-.001 1.112-.001 1.668z"/>
            <path fill="#F15A5A" d="M13.616 15.963c-.283.086-.436-.077-.58-.294-.282-.43-.589-.84-.867-1.269-.147-.227-.227-.178-.352.013-.28.432-.58.847-.86 1.275-.133.205-.287.305-.532.284-.25-.023-.504-.013-.757-.004-.159.006-.248-.059-.304-.22-.11-.315-.247-.62-.353-.939-.068-.207-.177-.284-.387-.275-.377.02-.757.013-1.136.005-.169-.005-.263.051-.322.23-.104.317-.236.626-.356.94-.082.211-.581.375-.763.244-.102-.072-.011-.146.014-.212.415-1.11.834-2.22 1.25-3.333.14-.37.283-.74.41-1.114.062-.182.13-.288.341-.294.224-.005.308.107.377.296l1.485 3.96c.011.027.012.062.028.087.053.082.047.226.151.243.11.02.146-.112.201-.193.388-.56.773-1.125 1.17-1.681.094-.13.09-.214 0-.343-.46-.658-.911-1.326-1.366-1.988-.042-.065-.129-.118-.093-.208.036-.1.133-.052.204-.064.369-.06.637.044.84.416.22.404.526.756.768 1.15.14.225.223.16.337-.006.294-.432.593-.86.888-1.29.153-.226.642-.384.875-.261.158.082.017.175-.027.24-.397.592-.8 1.179-1.202 1.77-.021.031-.042.067-.07.096-.221.216-.177.408 0 .646.412.556.797 1.134 1.192 1.703.073.105.21.234.162.337-.064.138-.248.013-.366.053zM8.087 13.87c.116 0 .234-.009.348.002.191.016.21-.062.15-.234-.14-.39-.265-.788-.396-1.184-.021-.067-.026-.155-.113-.151-.076.003-.064.09-.081.143-.102.288-.197.576-.297.864-.19.56-.19.56.39.56zM4.794 13.3c0 .488-.012.976.006 1.462.008.228-.1.244-.272.237-.169-.007-.327.03-.323-.244.012-.967-.004-1.934.01-2.9.004-.24-.073-.305-.296-.288-.242.018-.486-.005-.728.007-.191.009-.2-.106-.187-.243.014-.135-.068-.33.186-.33.877 0 1.753.003 2.631-.001.25-.002.162.181.17.305.008.129.042.28-.18.27-.268-.013-.536.003-.803-.006-.163-.005-.22.053-.217.22.01.504.003 1.008.003 1.512z"/>
            <circle cx="18.5" cy="18.5" r="4.5" fill="#E9F3FF" stroke="#9F9F9F" stroke-width=".839"/>
            <path stroke="#9F9F9F" stroke-linecap="round" stroke-width=".839" d="M18 16v3.214L20 21"/>
        </g>
        <g fill-rule="nonzero">
            <path fill="#F1B350" stroke="#F1B350" stroke-width=".741" d="M41.149 176.264h-.857c-.056-.579-.297-.996-.607-1.25h1.464c.069 0 .127-.064.127-.142 0-.078-.058-.142-.127-.142H37.55c-.07 0-.127.064-.127.142 0 .077.057.142.127.142h1.53c.409.084.874.464.96 1.25h-2.49c-.07 0-.127.063-.127.141 0 .079.057.143.127.143h2.506c-.005.393-.126.713-.361.948-.669.665-2.035.496-2.049.494a.125.125 0 0 0-.125.076.154.154 0 0 0 .015.159l2.401 3.111a.122.122 0 0 0 .097.049c.03 0 .059-.011.083-.034a.153.153 0 0 0 .013-.2l-2.204-2.856c.476.014 1.387-.038 1.938-.585.292-.292.441-.681.446-1.16h.84c.069 0 .127-.063.127-.143-.001-.079-.056-.143-.128-.143z"/>
            <path fill="#817C60" d="M48.017 185.94c-.012.02-.031.037-.035.057-.221 1.279-1.707 2.049-2.945 1.301-.025-.014-.053-.023-.094-.043-.066.219-.123.432-.195.635-.608 1.752-1.779 3.041-3.312 4.029-.176.113-.242.23-.238.436.014.547.005 1.096.001 1.645-.002.432-.181.611-.612.611h-2.696c-.412 0-.595-.188-.598-.604v-.525a12.78 12.78 0 0 1-3.895-.006c0 .209.002.398 0 .588-.005.336-.185.541-.513.543-.959.006-1.919.006-2.879-.002-.32 0-.5-.197-.501-.525a96.117 96.117 0 0 1 .001-1.781c.002-.152-.039-.246-.175-.33-1.241-.777-2.253-1.779-2.96-3.074-.036-.064-.149-.123-.227-.127-.32-.016-.64 0-.959-.006-.374-.006-.557-.193-.557-.568-.001-1.25-.002-2.498 0-3.746 0-.379.184-.557.561-.561.229-.004.508.072.671-.031.157-.104.194-.39.285-.596.499-1.129 1.248-2.067 2.199-2.845a.44.44 0 0 0 .181-.385c-.008-.784 0-1.568-.004-2.353 0-.226.039-.428.253-.548.212-.119.405-.051.599.066.729.44 1.462.876 2.196 1.308.071.041.173.074.248.057.682-.153 1.36-.318 2.033-.478.062-.443.096-.923.198-1.387.513-2.352 2.612-4.215 5.001-4.462.066-.007.132-.027.198-.042h1.006c.103.018.206.041.31.055 4.128.606 6.326 5.195 4.192 8.779-.231.389-.526.741-.802 1.124.01.017.029.059.053.097a6.653 6.653 0 0 1 1.094 3.456c.016.488.414.877.91.916.469.039.916-.307 1.01-.779.072-.357-.042-.652-.289-.914-.241-.256-.193-.617.09-.777.209-.119.424-.08.621.111.312.299.468.682.578 1.09-.003.194-.003.394-.003.591zm-9.744 7.672h1.942c0-.57.008-1.125-.003-1.678-.005-.291.102-.486.358-.629a7.393 7.393 0 0 0 1.863-1.459c1.561-1.721 2.114-3.678 1.328-5.92-.141-.403-.363-.776-.553-1.171-3.746 2.61-8.565.352-9.261-3.708-.687.171-1.372.334-2.052.519-.214.059-.396.051-.585-.066-.472-.292-.95-.574-1.426-.859-.115-.068-.231-.133-.38-.218v.287c-.001.571-.004 1.142-.001 1.712a.595.595 0 0 1-.248.51c-1.217.921-2.108 2.074-2.517 3.568-.063.232-.23.35-.472.354-.153.002-.306.012-.457-.002-.177-.014-.218.059-.217.223.007.838.003 1.676.005 2.514 0 .059.011.115.019.189.311 0 .606.004.903 0 .273-.006.465.104.573.361.062.146.14.287.218.426.668 1.176 1.629 2.059 2.791 2.727.271.156.387.354.376.664-.017.488-.005.975-.004 1.461 0 .066.007.133.012.197h1.941c0-.229-.003-.449 0-.666.005-.406.236-.604.636-.521 1.52.305 3.037.307 4.557 0 .406-.082.646.121.653.535.005.212.001.423.001.65zm1.446-10.701c2.656.019 4.856-2.158 4.88-4.83a4.871 4.871 0 0 0-4.833-4.921c-2.669-.029-4.891 2.158-4.907 4.83a4.878 4.878 0 0 0 4.86 4.921z"/>
            <path fill="#817C60" d="M29.5 184.854a.972.972 0 0 1-.98-.961.974.974 0 0 1 .965-.979.97.97 0 0 1 .015 1.94z"/>
        </g>
    </g>
</svg>
