<svg xmlns="http://www.w3.org/2000/svg" width="50" height="50" viewBox="0 0 50 50">
  <defs>
    <linearGradient id="health_suraksha-a" x1="50%" x2="50%" y1="0%" y2="100%">
      <stop offset="0%" stop-color="#FFF" stop-opacity="0"/>
      <stop offset="100%" stop-color="#F7F2FF" stop-opacity=".164"/>
    </linearGradient>
    <linearGradient id="health_suraksha-b" x1="50%" x2="50%" y1="0%" y2="100%">
      <stop offset="0%" stop-color="#FFF" stop-opacity="0"/>
      <stop offset="100%" stop-color="#F7F2FF" stop-opacity=".164"/>
    </linearGradient>
    <linearGradient id="health_suraksha-c" x1="50%" x2="50%" y1="0%" y2="100%">
      <stop offset="0%" stop-color="#FFF" stop-opacity="0"/>
      <stop offset="100%" stop-color="#F7F2FF" stop-opacity=".164"/>
    </linearGradient>
    <linearGradient id="health_suraksha-d" x1="50%" x2="50%" y1="0%" y2="100%">
      <stop offset="0%" stop-color="#FFF" stop-opacity="0"/>
      <stop offset="100%" stop-color="#F7F2FF" stop-opacity=".164"/>
    </linearGradient>
  </defs>
  <g fill="none" transform="translate(8 4.202)">
    <g transform="translate(1 8.048)">
      <circle cx="9.404" cy="3.104" r="3.104" fill="#AD95D6"/>
      <path fill="#A998D2" d="M12.5908899,7.05274117 L9.40399117,7.05274117 L6.21742867,7.05274117 C5.82734715,7.05274117 5.46484035,7.16640285 5.15781929,7.36009851 C6.29140965,7.87830163 7.08266984,9.02063519 7.08266984,10.3469124 C7.08266984,11.0604925 6.85131114,11.7199321 6.46291101,12.2596569 C7.66947351,12.42107 8.60365149,13.454786 8.60365149,14.7050645 L8.60365149,19.9829348 C8.60365149,20.6252242 8.35682405,21.2281692 7.92907948,21.6794531 L8.48023777,24.3737058 L8.50075068,24.4742527 L8.50075068,24.576481 C8.50075068,25.5960734 7.76060462,26.4468546 6.78909986,26.6166746 L6.78909986,29.1380808 C6.78909986,29.1622928 6.78607337,29.1861685 6.78540082,29.2097079 C6.98783967,29.8210598 7.55682065,30.2649457 8.23643682,30.2649457 L10.5712092,30.2649457 C11.4203091,30.2649457 12.1073234,29.5765863 12.1073234,28.7288315 L12.1073234,18.2346298 L12.5912262,18.2346298 C13.6911889,18.2346298 14.5833323,17.3421501 14.5833323,16.2421875 L14.5833323,9.04451087 C14.5836685,7.94421196 13.6915251,7.05274117 12.5908899,7.05274117 Z"/>
      <path fill="#4F2DA7" d="M7.49158288 24.5758084L6.81633832 21.2742391C7.27939198 21.0290931 7.5944837 20.5431726 7.5944837 19.9829348L7.5944837 14.7050645C7.5944837 13.8979993 6.9417697 13.2436039 6.13369565 13.2436039L5.34310802 13.2436039 4.22532269 13.2436039 2.25272079 13.2436039 1.46011549 13.2436039C.653722826 13.2436039 2.26693664e-13 13.897663 2.26693664e-13 14.7050645L2.26693664e-13 19.9829348C2.26693664e-13 20.5435088.315764266 21.0294293.778817935 21.2742391L.103909647 24.5758084C.103909647 25.1632846.580750679 25.6387806 1.16721807 25.6387806L1.81488791 25.6387806 1.81488791 29.1377446C1.81488791 29.7601936 2.31930367 30.2649457 2.94141644 30.2649457L4.65373981 30.2649457C5.27585258 30.2649457 5.78026834 29.7601936 5.78026834 29.1377446L5.78026834 25.6387806 6.42928329 25.6387806C6.52377717 25.6387806 6.61389946 25.6226393 6.70133152 25.5994361 7.15564198 25.4790489 7.49158288 25.0687908 7.49158288 24.5758084zM2.52712296 12.2347724C2.88996603 12.4799185 3.32712636 12.6225 3.79757812 12.6225 3.9438587 12.6225 4.08644022 12.6073675 4.22498641 12.5811379 4.53268003 12.5226257 4.8188519 12.4035836 5.06870584 12.2347724 5.67501359 11.8258594 6.07316576 11.1331284 6.07316576 10.3469124 6.07316576 9.31117867 5.38043478 8.43786685 4.43280571 8.16245584 4.2310394 8.10394361 4.01851223 8.07098845 3.79724185 8.07098845 2.54091033 8.07098845 1.52199049 9.09058084 1.52199049 10.3472486 1.52266304 11.1327921 1.92115149 11.8258594 2.52712296 12.2347724z"/>
    </g>
    <g transform="translate(.563 8.048)">
      <path fill="#AD95D6" d="M24.1786685,6.20700408 C25.8936821,6.20700408 27.2821705,4.81717052 27.2821705,3.10350204 C27.2821705,1.39050611 25.8936821,0 24.1786685,0 C22.465,0 21.075839,1.39050611 21.075839,3.10350204 C21.0761753,4.81717052 22.465,6.20700408 24.1786685,6.20700408 Z"/>
      <path fill="#A998D2" d="M26.3644701,22.3634409 C25.3189844,22.0762602 24.5492459,21.1168614 24.5492459,19.9815897 L24.5492459,14.7033832 C24.5492459,13.4537772 25.4834239,12.4203974 26.6903227,12.2586481 C26.3022588,11.7192595 26.0709001,11.0601562 26.0709001,10.3462398 C26.0709001,8.92580503 26.9785122,7.71722486 28.243587,7.25955163 C27.9782643,7.12873981 27.6803227,7.05341372 27.3642221,7.05341372 L20.9907609,7.05341372 C19.8911345,7.05341372 19,7.94522079 19,9.04585598 L19,16.2431963 C19,17.0075543 19.4307711,17.6703567 20.0626359,18.0039436 L19.141909,22.5070312 C19.141909,23.3077072 19.7919327,23.9560496 20.5922724,23.9560496 L21.475,23.9560496 L21.475,28.728159 C21.475,29.57625 22.1626868,30.2646094 23.0101053,30.2646094 L25.3448777,30.2646094 C25.7864096,30.2646094 26.1818716,30.0752853 26.4619905,29.7770075 C26.3987704,29.5745686 26.3641338,29.3606963 26.3641338,29.1380808 L26.3641338,22.3634409 L26.3644701,22.3634409 Z"/>
      <path fill="#4F2DA7" d="M31.6931182,13.2429314 L30.9025306,13.2429314 L29.3559918,13.2429314 L27.8084443,13.2429314 L27.0181929,13.2429314 C26.211464,13.2429314 25.5567323,13.8963179 25.5567323,14.7033832 L25.5567323,19.9815897 C25.5567323,20.7879823 26.2107914,21.4430503 27.0175204,21.4430503 L27.3726291,21.4430503 L27.3726291,23.9567221 L27.3726291,29.1387534 C27.3726291,29.7608662 27.8763723,30.2656182 28.4994939,30.2656182 L30.2118173,30.2656182 C30.8346026,30.2656182 31.3383458,29.7608662 31.3383458,29.1387534 L31.3383458,21.4430503 L31.6937908,21.4430503 C32.4995109,21.4430503 33.1545788,20.7889912 33.1545788,19.9815897 L33.1545788,14.7033832 C33.1545788,13.8963179 32.4995109,13.2429314 31.6931182,13.2429314 Z"/>
      <path fill="url(#health_suraksha-a)" d="M13.0283899,30.2656182 L9.84149117,30.2656182 L6.65492867,30.2656182 C6.26484715,30.2656182 5.90234035,30.2705148 5.59531929,30.2788594 C6.72890965,30.301184 7.52016984,30.3503966 7.52016984,30.4075337 C7.52016984,30.4382753 7.28881114,30.4666845 6.90041101,30.4899362 C8.10697351,30.49689 9.04115149,30.5414233 9.04115149,30.5952863 L9.04115149,30.8226611 C9.04115149,30.8503314 8.79432405,30.8763068 8.36657948,30.8957484 L8.91773777,31.011819 L8.93825068,31.0161506 L8.93825068,31.0205547 C8.93825068,31.0644795 8.19810462,31.1011318 7.22659986,31.1084478 L7.22659986,31.217072 C7.22659986,31.2181151 7.22357337,31.2191436 7.22290082,31.2201577 C7.42533967,31.2464953 7.99432065,31.2656182 8.67393682,31.2656182 L11.0087092,31.2656182 C11.8578091,31.2656182 12.5448234,31.2359631 12.5448234,31.1994412 L12.5448234,30.7473427 L13.0287262,30.7473427 C14.1286889,30.7473427 15.0208323,30.708894 15.0208323,30.6615068 L15.0208323,30.3514252 C15.0211685,30.3040235 14.1290251,30.2656182 13.0283899,30.2656182 Z" transform="matrix(1 0 0 -1 0 61.531)"/>
      <path fill="url(#health_suraksha-b)" d="M7.92908288,30.9313827 L7.25383832,30.7374162 C7.71689198,30.7230139 8.0319837,30.6944662 8.0319837,30.6615524 L8.0319837,30.3514787 C8.0319837,30.3040638 7.3792697,30.2656182 6.57119565,30.2656182 L5.78060802,30.2656182 L4.66282269,30.2656182 L2.69022079,30.2656182 L1.89761549,30.2656182 C1.09122283,30.2656182 0.4375,30.304044 0.4375,30.3514787 L0.4375,30.6615524 C0.4375,30.694486 0.753264266,30.7230337 1.21631793,30.7374162 L0.541409647,30.9313827 C0.541409647,30.9658968 1.01825068,30.993832 1.60471807,30.993832 L2.25238791,30.993832 L2.25238791,31.1993954 C2.25238791,31.2359641 2.75680367,31.2656182 3.37891644,31.2656182 L5.09123981,31.2656182 C5.71335258,31.2656182 6.21776834,31.2359641 6.21776834,31.1993954 L6.21776834,30.993832 L6.86678329,30.993832 C6.96127717,30.993832 7.05139946,30.9928837 7.13883152,30.9915206 C7.59314198,30.9844478 7.92908288,30.9603453 7.92908288,30.9313827 Z" transform="matrix(1 0 0 -1 0 61.531)"/>
      <path fill="url(#health_suraksha-c)" d="M26.3644701,30.9252149 C25.3189844,30.9128424 24.5492459,30.8715089 24.5492459,30.8225984 L24.5492459,30.5951992 C24.5492459,30.5413629 25.4834239,30.4968421 26.6903227,30.4898735 C26.3022588,30.4666352 26.0709001,30.4382393 26.0709001,30.4074819 C26.0709001,30.3462858 26.9785122,30.294217 28.243587,30.2744992 C27.9782643,30.2688635 27.6803227,30.2656182 27.3642221,30.2656182 L20.9907609,30.2656182 C19.8911345,30.2656182 19,30.3040396 19,30.3514579 L19,30.6615385 C19,30.694469 19.4307711,30.7230243 20.0626359,30.7373961 L19.141909,30.9314011 C19.141909,30.9658964 19.7919327,30.9938287 20.5922724,30.9938287 L21.475,30.9938287 L21.475,31.1994238 C21.475,31.2359619 22.1626868,31.2656182 23.0101053,31.2656182 L25.3448777,31.2656182 C25.7864096,31.2656182 26.1818716,31.2574616 26.4619905,31.244611 C26.3987704,31.2358894 26.3641338,31.2266752 26.3641338,31.2170844 L26.3641338,30.9252149 L26.3644701,30.9252149 Z" transform="matrix(1 0 0 -1 0 61.531)"/>
      <path fill="url(#health_suraksha-d)" d="M31.6931182,30.2656182 L30.9025306,30.2656182 L29.3559918,30.2656182 L27.8084443,30.2656182 L27.0181929,30.2656182 C26.211464,30.2656182 25.5567323,30.3040015 25.5567323,30.3514126 L25.5567323,30.6614816 C25.5567323,30.7088532 26.2107914,30.7473353 27.0175204,30.7473353 L27.3726291,30.7473353 L27.3726291,30.8950013 L27.3726291,31.1994204 C27.3726291,31.2359665 27.8763723,31.2656182 28.4994939,31.2656182 L30.2118173,31.2656182 C30.8346026,31.2656182 31.3383458,31.2359665 31.3383458,31.1994204 L31.3383458,30.7473353 L31.6937908,30.7473353 C32.4995109,30.7473353 33.1545788,30.7089125 33.1545788,30.6614816 L33.1545788,30.3514126 C33.1545788,30.3040015 32.4995109,30.2656182 31.6931182,30.2656182 Z" transform="matrix(1 0 0 -1 0 61.531)"/>
      <path fill="#4F2DA7" d="M27.0797317,10.3465761 C27.0797317,11.1321196 27.4785564,11.8248505 28.0838553,12.2340999 C28.4470346,12.4792459 28.8848675,12.6225 29.3559918,12.6225 C29.8264436,12.6225 30.2642765,12.4792459 30.6274558,12.2340999 C31.233091,11.8248505 31.6312433,11.1321196 31.6312433,10.3465761 C31.6315795,9.08957201 30.6123234,8.07065217 29.3556556,8.07065217 C29.2722588,8.07065217 29.1902072,8.07603261 29.1088281,8.08443954 C27.9685122,8.20785326 27.0797317,9.17263247 27.0797317,10.3465761 Z"/>
    </g>
    <g transform="translate(13.375)">
      <path fill="#4F2DA7" d="M7.65930546,2.7880379 L7.65930546,5.11710517 C7.65779604,7.2094921 6.41804194,9.1025322 4.50075016,9.94037252 L3.98935158,10.163166 L3.41284581,9.91400761 C1.45983058,9.09397871 0.189082632,7.18272467 0.188579466,5.064476 L0.188579466,2.7880379 L3.97647102,0.769613583 L7.65930546,2.7880379 Z M6.13939914,6.13104692 L6.13939914,4.80173265 L4.58859961,4.80173265 L4.58859961,3.2509331 L3.25928534,3.2509331 L3.25928534,4.80173265 L1.70848579,4.80173265 L1.70848579,6.13104692 L3.25928534,6.13104692 L3.25928534,7.68184644 L4.58859961,7.68184644 L4.58859961,6.13104692 L6.13939914,6.13104692 Z"/>
      <polygon fill="#A998D2" points="6.139 4.802 6.139 6.131 4.589 6.131 4.589 7.682 3.259 7.682 3.259 6.131 1.708 6.131 1.708 4.802 3.259 4.802 3.259 3.251 4.589 3.251 4.589 4.802"/>
    </g>
  </g>
</svg>
