<svg width="870" height="1080" viewBox="0 0 870 1080" fill="none" xmlns="http://www.w3.org/2000/svg">
<mask id="mask0" mask-type="alpha" maskUnits="userSpaceOnUse" x="0" y="0" width="870" height="1080">
<rect width="870" height="1080" fill="white"/>
</mask>
<g mask="url(#mask0)">
<path fill-rule="evenodd" clip-rule="evenodd" d="M453.952 -267.052L193.313 46.793L400.964 61.7325L453.952 -267.052ZM190.593 47.5647L190.803 46.9878L454.675 -270.751C454.939 -271.061 455.376 -271.162 455.745 -270.996C456.117 -270.827 456.32 -270.43 456.266 -270.034L402.616 62.8323C402.54 63.2939 402.124 63.622 401.658 63.5896L191.432 48.4662C191.096 48.4409 190.799 48.2282 190.666 47.9181L190.593 47.5647Z" fill="#E8E8E8"/>
<path fill-rule="evenodd" clip-rule="evenodd" d="M455.934 -267.967L402.747 62.0318L790.257 166.327L455.934 -267.967ZM400.82 62.6916L400.83 62.5474L454.48 -270.319C454.538 -270.672 454.799 -270.96 455.149 -271.047C455.504 -271.137 455.869 -271.007 456.089 -270.722L793.319 167.34L793.352 168.389C793.135 168.714 792.737 168.862 792.365 168.761L401.488 63.5606C401.087 63.4525 400.82 63.0919 400.82 62.6916Z" fill="#E8E8E8"/>
<path fill-rule="evenodd" clip-rule="evenodd" d="M789.023 167.863L402.966 63.9574L449.378 253.368L789.023 167.863ZM400.819 62.6916L401.09 62.0461L401.958 61.819L792.834 167.023C793.232 167.127 793.485 167.528 793.503 167.899C793.499 168.31 793.217 168.667 792.82 168.764L448.937 255.336L448.25 255.232L447.838 254.676L400.848 62.9044L400.819 62.6916Z" fill="#E8E8E8"/>
<path fill-rule="evenodd" clip-rule="evenodd" d="M790.929 169.241L450.232 255.012L628.72 499.907L790.929 169.241ZM447.813 254.464L447.867 254.157L448.492 253.588L792.378 167.019C792.718 166.929 793.079 167.048 793.304 167.322L793.412 168.289L629.685 502.049L628.951 502.55L628.142 502.182L447.986 254.994L447.813 254.464Z" fill="#E8E8E8"/>
<path fill-rule="evenodd" clip-rule="evenodd" d="M1092.66 -536.424L456.801 -269.796L792.375 166.121L1092.66 -536.424ZM454.469 -270.174L454.501 -270.405L455.022 -271.007L1094.02 -538.952C1094.36 -539.092 1094.75 -539.016 1095.01 -538.753C1095.27 -538.497 1095.35 -538.101 1095.2 -537.765L793.43 168.242L792.714 168.786L791.883 168.44L454.657 -269.626L454.469 -270.174Z" fill="#E8E8E8"/>
<path fill-rule="evenodd" clip-rule="evenodd" d="M449.205 256.667L407.265 470.745L626.898 500.473L449.205 256.667ZM405.291 471.51L405.309 471.337L447.827 254.291C447.896 253.937 448.171 253.66 448.518 253.584C448.872 253.504 449.237 253.642 449.447 253.93L629.602 501.118L629.649 502.11C629.461 502.42 629.111 502.59 628.753 502.543L406.072 472.404L405.461 472.036L405.291 471.51Z" fill="#E8E8E8"/>
<path fill-rule="evenodd" clip-rule="evenodd" d="M324.995 968.379L238.914 959.162L488.92 1354.1L324.995 968.379ZM236.246 958.069L236.38 957.593C236.564 957.297 236.901 957.135 237.248 957.171L325.718 966.644L326.456 967.189L494.922 1363.6C495.107 1364.04 494.93 1364.53 494.51 1364.75C494.095 1364.97 493.578 1364.83 493.328 1364.44L236.384 958.552L236.246 958.069Z" fill="#E8E8E8"/>
<path fill-rule="evenodd" clip-rule="evenodd" d="M192.353 48.5311L179.732 296.552L399.762 63.4525L192.353 48.5311ZM177.801 298.958L177.805 298.911L190.593 47.5214L190.897 46.8904L191.562 46.6668L401.787 61.7902C402.134 61.8154 402.438 62.039 402.564 62.3635L402.384 63.3083L179.367 299.571C179.106 299.852 178.702 299.935 178.354 299.783C178.018 299.643 177.801 299.315 177.801 298.958Z" fill="#E8E8E8"/>
<path fill-rule="evenodd" clip-rule="evenodd" d="M401.239 64.5163L181.201 297.631L447.604 253.728L401.239 64.5163ZM177.802 298.958L178.052 298.341L401.065 62.0714L401.954 61.819L402.601 62.4753L449.592 254.247L449.469 254.958L448.861 255.354L178.854 299.848C178.475 299.906 178.091 299.718 177.911 299.379L177.802 298.958Z" fill="#E8E8E8"/>
<path fill-rule="evenodd" clip-rule="evenodd" d="M447.582 255.564L180.927 299.506L405.585 469.916L447.582 255.564ZM177.803 298.958L177.832 298.738C177.919 298.388 178.208 298.125 178.562 298.063L448.569 253.573L449.365 253.836L449.604 254.633L407.082 471.683L406.518 472.35L405.65 472.228L178.161 299.675L177.803 298.958Z" fill="#E8E8E8"/>
<path fill-rule="evenodd" clip-rule="evenodd" d="M80.1417 1034.53L-339.723 1068.31L-254.644 1401.22L80.1417 1034.53ZM-341.77 1067.5L-341.6 1066.97L-340.935 1066.6L82.2782 1032.55C82.647 1032.52 83.0013 1032.72 83.164 1033.05C83.323 1033.39 83.2688 1033.78 83.0193 1034.06L-254.435 1403.68L-255.324 1403.94L-255.978 1403.29L-341.741 1067.72L-341.77 1067.5Z" fill="#E8E8E8"/>
<path fill-rule="evenodd" clip-rule="evenodd" d="M79.4712 1037.94L-254.002 1403.2L-152.559 1587.05L79.4712 1037.94ZM-256.008 1403.07L-255.777 1402.46L81.6806 1032.85C81.977 1032.52 82.4651 1032.46 82.8375 1032.69C83.2063 1032.93 83.3581 1033.39 83.181 1033.8L-151.619 1589.47C-151.753 1589.79 -152.056 1590.01 -152.403 1590.02C-152.747 1590.04 -153.076 1589.86 -153.242 1589.56L-255.9 1403.5L-256.008 1403.07Z" fill="#E8E8E8"/>
<path fill-rule="evenodd" clip-rule="evenodd" d="M79.896 1041.59L-151.31 1588.74L-36.2294 1656.45L79.896 1041.59ZM-153.353 1589.12L-153.285 1588.77L81.5152 1033.1C81.696 1032.68 82.1696 1032.46 82.6107 1032.59C83.0554 1032.72 83.3229 1033.17 83.2398 1033.62L-34.6934 1658.05L-35.2068 1658.7L-36.0383 1658.66L-152.909 1589.89L-153.353 1589.12Z" fill="#E8E8E8"/>
<path fill-rule="evenodd" clip-rule="evenodd" d="M236.821 959.234L84.0278 1033.64L490.429 1359.86L236.821 959.234ZM81.4467 1033.45L81.4539 1033.35L81.9564 1032.64L236.753 957.258C237.169 957.056 237.668 957.196 237.914 957.586L494.858 1363.47C495.093 1363.84 495.024 1364.33 494.695 1364.63C494.366 1364.92 493.871 1364.93 493.528 1364.66L81.7865 1034.15L81.4467 1033.45Z" fill="#E8E8E8"/>
<path fill-rule="evenodd" clip-rule="evenodd" d="M-315.533 844.954L-339.847 1066.51L78.9337 1032.82L-315.533 844.954ZM-341.77 1067.5L-341.763 1067.4L-317.189 843.493L-316.73 842.805L-315.898 842.779L82.7405 1032.64C83.1057 1032.81 83.3154 1033.22 83.2394 1033.61C83.1671 1034.01 82.8309 1034.32 82.4223 1034.35L-340.791 1068.39L-341.51 1068.12L-341.77 1067.5Z" fill="#E8E8E8"/>
<path fill-rule="evenodd" clip-rule="evenodd" d="M99.2203 673.848L-314.068 843.652L81.5153 1032.05L99.2203 673.848ZM-317.195 843.594V843.569C-317.184 843.212 -316.964 842.895 -316.635 842.758L99.8497 671.641L100.714 671.738C100.963 671.915 101.144 672.131 101.097 672.52L83.2547 1033.5L82.8136 1034.23L81.9639 1034.27L-316.678 844.406C-316.993 844.254 -317.195 843.937 -317.195 843.594Z" fill="#E8E8E8"/>
<path fill-rule="evenodd" clip-rule="evenodd" d="M179.297 300.537L101.525 670.519L404.632 471.456L179.297 300.537ZM99.288 672.474L99.3061 672.29L177.823 298.77L178.395 298.11L179.255 298.236L406.741 470.792L407.099 471.542L406.694 472.264L100.687 673.231L99.6821 673.224L99.288 672.474Z" fill="#E8E8E8"/>
<path fill-rule="evenodd" clip-rule="evenodd" d="M100.918 676.083L83.3284 1031.97L235.945 957.651L100.918 676.083ZM81.4456 1033.45L81.4492 1033.4L99.2916 672.43C99.3061 672.019 99.6061 671.673 100.015 671.59C100.42 671.511 100.828 671.716 101.005 672.088L237.967 957.68C238.18 958.12 237.992 958.664 237.547 958.877L82.7472 1034.26L81.8506 1034.21L81.4456 1033.45Z" fill="#E8E8E8"/>
<path fill-rule="evenodd" clip-rule="evenodd" d="M404.973 473.389L101.497 672.697L325.067 965.324L404.973 473.389ZM99.2883 672.474L99.3027 672.326L99.6932 671.72L405.696 470.756L406.687 470.753C406.987 470.951 407.149 471.301 407.084 471.654L326.514 967.686C326.459 968.04 326.192 968.328 325.841 968.415C325.49 968.501 325.122 968.375 324.905 968.086L99.4727 673.022L99.2883 672.474Z" fill="#E8E8E8"/>
<path fill-rule="evenodd" clip-rule="evenodd" d="M237.152 958.069V958.091V958.069ZM323.63 966.421L104.8 679.996L237.748 957.225L323.63 966.421ZM99.2897 672.474L99.7235 671.709C100.118 671.464 100.631 671.561 100.913 671.929L326.341 966.994L326.41 967.985C326.233 968.299 325.886 968.472 325.528 968.44L237.054 958.967L236.338 958.455L99.3764 672.863L99.2897 672.474Z" fill="#E8E8E8"/>
<path fill-rule="evenodd" clip-rule="evenodd" d="M82.6437 1036.77L-34.4687 1656.86L304.366 1620.43L82.6437 1036.77ZM-36.482 1657.88L-36.4676 1657.72L81.4656 1033.29C81.5379 1032.89 81.8705 1032.59 82.2718 1032.55C82.6768 1032.52 83.0528 1032.76 83.1974 1033.13L306.475 1620.88L306.399 1621.68L305.726 1622.1L-35.4841 1658.78L-36.2434 1658.49L-36.482 1657.88Z" fill="#E8E8E8"/>
<path fill-rule="evenodd" clip-rule="evenodd" d="M492.855 1364.11L84.3755 1036.24L305.881 1619.33L492.855 1364.11ZM81.4473 1033.45L81.8197 1032.72C82.1487 1032.48 82.6006 1032.49 82.9188 1032.75L494.66 1363.25C495.036 1363.55 495.108 1364.1 494.823 1364.49L306.359 1621.74C306.163 1622.01 305.834 1622.14 305.509 1622.1C305.18 1622.06 304.902 1621.84 304.782 1621.53L81.5087 1033.77L81.4473 1033.45Z" fill="#E8E8E8"/>
<path fill-rule="evenodd" clip-rule="evenodd" d="M564.272 958.408L326.963 968.386L493.73 1360.79L564.272 958.408ZM324.718 967.542L324.859 967.059L325.582 966.64L565.317 956.558L566.036 956.865L566.246 957.615L494.985 1364.11C494.913 1364.5 494.595 1364.8 494.197 1364.85C493.799 1364.89 493.416 1364.67 493.261 1364.31L324.794 967.892L324.718 967.542Z" fill="#E8E8E8"/>
<path fill-rule="evenodd" clip-rule="evenodd" d="M406.512 475.192L326.918 965.184L517.714 796.147L406.512 475.192ZM324.716 967.542L324.731 967.398L405.302 471.366C405.37 470.958 405.707 470.648 406.119 470.612C406.531 470.576 406.911 470.828 407.052 471.214L519.619 796.129C519.739 796.483 519.638 796.857 519.366 797.095L326.221 968.213C325.935 968.465 325.523 968.516 325.187 968.328L324.716 967.542Z" fill="#E8E8E8"/>
<path fill-rule="evenodd" clip-rule="evenodd" d="M627.632 502.395L407.529 472.603L518.799 793.753L627.632 502.395ZM405.292 471.51L405.498 470.94L406.315 470.616L628.996 500.754L629.65 501.187L629.719 501.962L519.613 796.735C519.479 797.095 519.136 797.33 518.756 797.326C518.377 797.323 518.04 797.077 517.914 796.72L405.342 471.806L405.292 471.51Z" fill="#E8E8E8"/>
<path fill-rule="evenodd" clip-rule="evenodd" d="M518.296 798.047L328.119 966.532L564.166 956.609L518.296 798.047ZM324.717 967.542L325.021 966.868L518.167 795.751L519.016 795.556L519.635 796.172L566.224 957.207L566.09 957.986L565.392 958.361L325.661 968.443C325.278 968.458 324.927 968.231 324.786 967.877L324.717 967.542Z" fill="#E8E8E8"/>
<path fill-rule="evenodd" clip-rule="evenodd" d="M299.883 138.875L174.766 172.479L737.894 588.613L299.883 138.875ZM171.823 172.093L171.837 171.923C171.902 171.584 172.155 171.31 172.488 171.224L299.93 136.996L300.812 137.241L746.936 595.31C747.265 595.649 747.276 596.175 746.969 596.532C746.661 596.885 746.13 596.94 745.75 596.662L172.188 172.818L171.823 172.093Z" fill="#E8E8E8"/>
<path fill-rule="evenodd" clip-rule="evenodd" d="M-0.142075 367.608L-25.7758 1252.38L170.754 1284.61L-0.142075 367.608ZM-27.6092 1253.14V1253.12L-1.70798 359.112C-1.69351 358.651 -1.33557 358.276 -0.876404 358.24C-0.41362 358.204 0.00215149 358.521 0.0853119 358.972L172.768 1285.55L172.525 1286.34L171.734 1286.6L-26.85 1254.03C-27.2874 1253.96 -27.6092 1253.58 -27.6092 1253.14Z" fill="#E8E8E8"/>
<path fill-rule="evenodd" clip-rule="evenodd" d="M172.84 173.297L0.826294 358.708L741.391 593.435L172.84 173.297ZM-1.70917 359.138L-1.47058 358.525L172.061 171.48C172.376 171.141 172.893 171.094 173.262 171.368L746.828 595.212C747.189 595.476 747.298 595.948 747.095 596.348C746.896 596.741 746.437 596.929 746.018 596.795L-1.07648 359.996L-1.6767 359.365L-1.70917 359.138Z" fill="#E8E8E8"/>
<path fill-rule="evenodd" clip-rule="evenodd" d="M171.453 172.14L-168.25 -146.483L-0.430756 357.407L171.453 172.14ZM-171.139 -149.584L-170.723 -150.345C-170.376 -150.565 -169.92 -150.525 -169.62 -150.24L173.344 171.437C173.702 171.776 173.723 172.345 173.391 172.706L-0.141068 359.75L-0.997925 360.017L-1.66319 359.422L-171.095 -149.299L-171.139 -149.584Z" fill="#E8E8E8"/>
<path fill-rule="evenodd" clip-rule="evenodd" d="M144.402 -588.97L-168.94 -149.847L298.841 136.001L144.402 -588.97ZM-171.138 -149.584L-170.972 -150.107L144.124 -591.685C144.33 -591.977 144.692 -592.118 145.042 -592.046C145.393 -591.974 145.671 -591.7 145.744 -591.35L301.046 137.681C301.111 138.038 300.978 138.391 300.685 138.604L299.691 138.637L-170.708 -148.812L-171.124 -149.404L-171.138 -149.584Z" fill="#E8E8E8"/>
<path fill-rule="evenodd" clip-rule="evenodd" d="M297.899 137.541L-163.215 -144.236L172.977 171.09L297.899 137.541ZM-171.137 -149.584L-170.953 -150.128C-170.671 -150.496 -170.157 -150.594 -169.763 -150.352L300.635 137.101C300.946 137.285 301.098 137.62 301.058 137.999C301.008 138.352 300.747 138.648 300.397 138.738L172.958 172.962L172.105 172.746L-170.855 -148.928L-171.137 -149.584Z" fill="#E8E8E8"/>
<path fill-rule="evenodd" clip-rule="evenodd" d="M622.542 1052.22L0.6698 362.123L172.542 1284.35L622.542 1052.22ZM-1.70923 359.138C-1.70923 358.799 -1.51764 358.481 -1.20306 358.326C-0.841492 358.153 -0.404053 358.236 -0.129272 358.535L624.672 1051.88L624.889 1052.64L624.415 1053.28L172.293 1286.51L171.479 1286.53L170.991 1285.88L-1.69116 359.303L-1.70923 359.138Z" fill="#E8E8E8"/>
<path fill-rule="evenodd" clip-rule="evenodd" d="M745.193 596.536L2.09027 361.002L623.554 1050.64L745.193 596.536ZM-1.70966 359.137L-1.56506 358.647C-1.34454 358.308 -0.917908 358.153 -0.531067 358.279L746.563 595.079C747.026 595.227 747.279 595.703 747.164 596.168L624.874 1052.71L624.208 1053.36L623.326 1053.08L-1.47827 359.74L-1.70966 359.137Z" fill="#E8E8E8"/>
<path fill-rule="evenodd" clip-rule="evenodd" d="M623.325 1053.84L175.216 1285.01L670.409 1314.19L623.325 1053.84ZM170.975 1285.71C170.975 1285.38 171.156 1285.07 171.459 1284.91L623.582 1051.68L624.395 1051.67L624.887 1052.32L672.391 1315L672.181 1315.76L671.447 1316.06L171.825 1286.62C171.42 1286.59 171.076 1286.3 170.993 1285.9L170.975 1285.71Z" fill="#E8E8E8"/>
<path fill-rule="evenodd" clip-rule="evenodd" d="M625.589 -3.03051L301.719 138.175L744.806 593.117L625.589 -3.03051ZM299.257 137.869L299.275 137.696L299.803 137.039L625.897 -5.12915L626.678 -5.10391L627.141 -4.48008L747.178 595.76C747.247 596.157 747.066 596.55 746.712 596.738C746.354 596.918 745.92 596.853 745.641 596.565L299.514 138.493L299.257 137.869Z" fill="#E8E8E8"/>
<path fill-rule="evenodd" clip-rule="evenodd" d="M474.16 -201.946L146.49 -587.848L300.52 135.2L474.16 -201.946ZM143.954 -591.162C143.954 -591.501 144.15 -591.819 144.464 -591.974C144.833 -592.154 145.281 -592.06 145.549 -591.746L475.931 -202.653C476.169 -202.375 476.213 -201.982 476.043 -201.657L300.967 138.28C300.79 138.619 300.421 138.81 300.042 138.763C299.662 138.709 299.358 138.428 299.279 138.053L143.976 -590.975L143.954 -591.162Z" fill="#E8E8E8"/>
<path fill-rule="evenodd" clip-rule="evenodd" d="M475.391 -200.385L302.123 136.026L624.84 -4.67123L475.391 -200.385ZM299.257 137.869L299.359 137.454L474.438 -202.483L475.165 -202.966L475.96 -202.617L626.978 -4.85153L627.134 -4.07985L626.62 -3.48126L300.526 138.694C300.176 138.846 299.767 138.763 299.503 138.482L299.257 137.869Z" fill="#E8E8E8"/>
<path fill-rule="evenodd" clip-rule="evenodd" d="M317.723 941.096C317.723 932.51 323.772 925.341 331.849 923.593L326.505 956.493C321.244 953.371 317.723 947.641 317.723 941.096ZM328.189 957.377L333.728 923.29C334.368 923.221 335.015 923.185 335.673 923.185C345.586 923.185 353.631 931.201 353.631 941.096C353.631 941.24 353.631 941.381 353.627 941.525L333.988 958.924C331.934 958.733 329.982 958.199 328.189 957.377ZM336.654 958.978L353.368 944.168C351.962 952.278 345.074 958.527 336.654 958.978Z" fill="#4F2CA5"/>
<path fill-rule="evenodd" clip-rule="evenodd" d="M326.504 956.493L331.848 923.593L326.504 956.493ZM328.189 957.377L333.728 923.29L328.189 957.377Z" fill="#DCD6ED"/>
<path opacity="0.195346" fill-rule="evenodd" clip-rule="evenodd" d="M598.618 918.988C598.618 915.09 601.785 911.935 605.69 911.935C609.595 911.935 612.762 915.09 612.762 918.988C612.762 922.882 609.595 926.041 605.69 926.041C601.785 926.041 598.618 922.882 598.618 918.988Z" fill="#4F2CA5"/>
<path opacity="0.29827" fill-rule="evenodd" clip-rule="evenodd" d="M216.097 881.597C216.097 873.798 222.439 867.477 230.259 867.477C238.075 867.477 244.417 873.798 244.417 881.597C244.417 889.397 238.075 895.722 230.259 895.722C222.439 895.722 216.097 889.397 216.097 881.597Z" fill="#4F2CA5"/>
<path opacity="0.195346" fill-rule="evenodd" clip-rule="evenodd" d="M417.142 598.313C417.142 592.789 421.629 588.314 427.164 588.314C432.7 588.314 437.187 592.789 437.187 598.313C437.187 603.831 432.7 608.309 427.164 608.309C421.629 608.309 417.142 603.831 417.142 598.313Z" fill="#4F2CA5"/>
<path fill-rule="evenodd" clip-rule="evenodd" d="M84.7396 620.598C84.7396 614.995 89.2987 610.451 94.9208 610.451C100.536 610.451 105.095 614.995 105.095 620.598C105.095 626.202 100.536 630.749 94.9208 630.749C89.2987 630.749 84.7396 626.202 84.7396 620.598Z" fill="#4F2CA5"/>
<path fill-rule="evenodd" clip-rule="evenodd" d="M273.166 136.278C273.166 131.966 274.742 128.021 277.349 124.985L297.896 137.54L274.847 143.732C273.77 141.471 273.166 138.947 273.166 136.278ZM275.733 145.362L299.881 138.875L305.724 144.871C302.723 150.114 297.068 153.652 290.586 153.652C284.302 153.652 278.799 150.334 275.733 145.362ZM278.627 123.65C281.747 120.708 285.955 118.909 290.587 118.909C292.232 118.909 293.826 119.136 295.338 119.561L298.841 136.001L278.627 123.65ZM297.336 120.261C300.452 121.57 303.109 123.759 304.99 126.513L300.517 135.2L297.336 120.261ZM301.718 138.175L307.98 135.442C307.995 135.719 308.002 135.997 308.002 136.278C308.002 138.723 307.496 141.053 306.581 143.166L301.718 138.175ZM302.127 136.026L306.082 128.345C306.91 129.95 307.496 131.706 307.789 133.556L302.123 136.026" fill="#4F2CA5"/>
<path fill-rule="evenodd" clip-rule="evenodd" d="M299.881 138.875H299.885L305.724 144.871L299.881 138.875ZM301.718 138.175L306.581 143.166C306.577 143.166 306.581 143.166 306.577 143.166L301.718 138.175Z" fill="#DCD6ED"/>
<path fill-rule="evenodd" clip-rule="evenodd" d="M278.624 123.65C278.628 123.65 278.628 123.65 278.628 123.65L298.842 136.001L295.339 119.561L298.842 136.004L278.624 123.65ZM297.333 120.261H297.337L300.519 135.2L297.333 120.261Z" fill="#DCD6ED"/>
<path fill-rule="evenodd" clip-rule="evenodd" d="M274.849 143.732L297.897 137.541L277.35 124.985C277.752 124.516 278.178 124.072 278.623 123.65L298.841 136.004L299.278 138.053C299.318 138.244 299.416 138.41 299.553 138.532L299.886 138.875H299.882L275.734 145.362C275.413 144.835 275.116 144.291 274.849 143.732Z" fill="#4F2CA5"/>
<path fill-rule="evenodd" clip-rule="evenodd" d="M299.553 138.532C299.683 138.655 299.853 138.734 300.041 138.763C300.085 138.767 300.125 138.77 300.168 138.77C300.287 138.77 300.41 138.745 300.526 138.694L301.719 138.175L306.578 143.166C306.325 143.75 306.039 144.32 305.725 144.871L299.886 138.875L299.553 138.532Z" fill="#DCD6ED"/>
<path fill-rule="evenodd" clip-rule="evenodd" d="M295.338 119.561C296.022 119.756 296.691 119.99 297.334 120.261L300.519 135.2L304.992 126.514C304.992 126.514 304.995 126.514 304.995 126.517L299.359 137.454L299.258 137.869L299.503 138.482C299.681 138.669 299.923 138.77 300.169 138.77C300.125 138.77 300.086 138.767 300.042 138.763C299.854 138.734 299.684 138.655 299.554 138.532C299.417 138.41 299.319 138.244 299.279 138.053L298.842 136.004L295.338 119.561ZM302.124 136.026L306.083 128.342C306.083 128.342 306.083 128.342 306.083 128.345L302.128 136.026H302.124Z" fill="#DCD6ED"/>
<path fill-rule="evenodd" clip-rule="evenodd" d="M299.257 137.869L299.359 137.454L304.995 126.517C305.393 127.101 305.758 127.711 306.083 128.342L302.124 136.026L307.79 133.556C307.887 134.176 307.953 134.804 307.981 135.442L300.526 138.694C300.411 138.745 300.288 138.77 300.168 138.77C299.923 138.77 299.68 138.669 299.503 138.482L299.257 137.869Z" fill="#DCD6ED"/>
<path opacity="0.29827" fill-rule="evenodd" clip-rule="evenodd" d="M563.088 51.8703C563.088 44.1679 569.343 37.926 577.066 37.926C584.788 37.926 591.047 44.1679 591.047 51.8703C591.047 59.5726 584.788 65.8145 577.066 65.8145C569.343 65.8145 563.088 59.5726 563.088 51.8703Z" fill="#4F2CA5"/>
<path opacity="0.195346" fill-rule="evenodd" clip-rule="evenodd" d="M527.808 1058.6C527.808 1049.49 535.209 1042.11 544.341 1042.11C546.127 1042.11 547.845 1042.39 549.454 1042.91L543.817 1075.08C534.927 1074.8 527.808 1067.52 527.808 1058.6ZM545.657 1075.04L551.174 1043.58C556.894 1046.17 560.871 1051.92 560.871 1058.6C560.871 1067.26 554.172 1074.36 545.657 1075.04Z" fill="#4F2CA5"/>
<path fill-rule="evenodd" clip-rule="evenodd" d="M543.817 1075.08L549.454 1042.91C550.043 1043.1 550.618 1043.32 551.175 1043.58L545.658 1075.04C545.224 1075.07 544.786 1075.09 544.342 1075.09C544.164 1075.09 543.991 1075.08 543.817 1075.08Z" fill="#DCD6ED"/>
<path opacity="0.195346" fill-rule="evenodd" clip-rule="evenodd" d="M140.815 884.241C140.815 877.238 146.502 871.562 153.527 871.562C160.541 871.562 166.235 877.238 166.235 884.241C166.235 891.24 160.541 896.919 153.527 896.919C146.502 896.919 140.815 891.24 140.815 884.241Z" fill="#4F2CA5"/>
<path opacity="0.195346" fill-rule="evenodd" clip-rule="evenodd" d="M343.471 638.776C343.471 631.117 349.693 624.911 357.372 624.911C365.048 624.911 371.277 631.117 371.277 638.776C371.277 646.431 365.048 652.641 357.372 652.641C349.693 652.641 343.471 646.431 343.471 638.776Z" fill="#4F2CA5"/>
<path fill-rule="evenodd" clip-rule="evenodd" d="M556.75 750.373C556.75 743.125 562.64 737.255 569.904 737.255C577.167 737.255 583.057 743.125 583.057 750.373C583.057 757.618 577.167 763.492 569.904 763.492C562.64 763.492 556.75 757.618 556.75 750.373Z" fill="#4F2CA5"/>
<path opacity="0.29827" fill-rule="evenodd" clip-rule="evenodd" d="M340.375 377.831C340.375 369.746 346.945 363.194 355.054 363.194C363.157 363.194 369.729 369.746 369.729 377.831C369.729 385.915 363.157 392.471 355.054 392.471C346.945 392.471 340.375 385.915 340.375 377.831Z" fill="#4F2CA5"/>
<path fill-rule="evenodd" clip-rule="evenodd" d="M252.939 462.131C252.939 456.52 257.498 451.976 263.124 451.976C268.749 451.976 273.309 456.52 273.309 462.131C273.309 467.738 268.749 472.289 263.124 472.289C257.498 472.289 252.939 467.738 252.939 462.131Z" fill="#4F2CA5"/>
<path fill-rule="evenodd" clip-rule="evenodd" d="M376.177 94.2546C376.177 91.1643 378.686 88.6618 381.784 88.6618C384.883 88.6618 387.396 91.1643 387.396 94.2546C387.396 97.345 384.883 99.8511 381.784 99.8511C378.686 99.8511 376.177 97.345 376.177 94.2546Z" fill="#DCD6ED"/>
<path fill-rule="evenodd" clip-rule="evenodd" d="M487.711 92.0874C487.711 90.3061 487.982 88.5897 488.484 86.9742L521.804 95.9422C520.047 103.594 513.178 109.306 504.974 109.306C495.44 109.306 487.711 101.596 487.711 92.0874ZM489.112 85.2758C491.759 79.1529 497.865 74.869 504.973 74.869C514.504 74.869 522.237 82.5786 522.237 92.0875C522.237 92.787 522.194 93.4794 522.114 94.1573L489.112 85.2758Z" fill="#4F2CA5"/>
<path fill-rule="evenodd" clip-rule="evenodd" d="M489.113 85.2758L522.115 94.1572L489.113 85.2758Z" fill="#DCD6ED"/>
<path fill-rule="evenodd" clip-rule="evenodd" d="M488.484 86.9742C488.665 86.3936 488.875 85.8275 489.113 85.2758L522.115 94.1572C522.043 94.763 521.938 95.358 521.804 95.9422L488.484 86.9742Z" fill="#DCD6ED"/>
<path opacity="0.195346" fill-rule="evenodd" clip-rule="evenodd" d="M223.487 992.008C223.487 989.033 225.906 986.621 228.889 986.621C231.872 986.621 234.294 989.033 234.294 992.008C234.294 994.983 231.872 997.399 228.889 997.399C225.906 997.399 223.487 994.983 223.487 992.008Z" fill="#4F2CA5"/>
<path fill-rule="evenodd" clip-rule="evenodd" d="M384.914 509.903C384.914 503.282 390.298 497.913 396.936 497.913C398.317 497.913 399.647 498.147 400.884 498.576L397.095 521.889C397.04 521.889 396.99 521.889 396.936 521.889C390.298 521.889 384.914 516.519 384.914 509.903ZM398.957 521.723L402.594 499.323C406.38 501.342 408.954 505.323 408.954 509.902C408.954 515.834 404.63 520.764 398.957 521.723Z" fill="#4F2CA5"/>
<path opacity="0.195346" fill-rule="evenodd" clip-rule="evenodd" d="M116.223 349.686C116.223 343.188 121.502 337.924 128.017 337.924C134.529 337.924 139.814 343.188 139.814 349.686C139.814 356.184 134.529 361.452 128.017 361.452C121.502 361.452 116.223 356.184 116.223 349.686Z" fill="#4F2CA5"/>
<path fill-rule="evenodd" clip-rule="evenodd" d="M427.132 658.104C427.132 652.814 431.427 648.534 436.731 648.534C442.024 648.534 446.323 652.814 446.323 658.104C446.323 663.387 442.024 667.674 436.731 667.674C431.427 667.674 427.132 663.387 427.132 658.104Z" fill="#4F2CA5"/>
<path opacity="0.195346" fill-rule="evenodd" clip-rule="evenodd" d="M519.129 463.198C519.129 454.829 525.93 448.046 534.321 448.046C542.709 448.046 549.514 454.829 549.514 463.198C549.514 471.564 542.709 478.354 534.321 478.354C525.93 478.354 519.129 471.564 519.129 463.198Z" fill="#4F2CA5"/>
<path fill-rule="evenodd" clip-rule="evenodd" d="M651.578 302.553C651.578 293.574 658.878 286.297 667.88 286.297C676.875 286.297 684.179 293.574 684.179 302.553C684.179 311.528 676.875 318.808 667.88 318.808C658.878 318.808 651.578 311.528 651.578 302.553Z" fill="#4F2CA5"/>
<path opacity="0.195346" fill-rule="evenodd" clip-rule="evenodd" d="M651.954 611.904C651.954 606.268 656.531 601.699 662.182 601.699C667.833 601.699 672.41 606.268 672.41 611.904C672.41 617.533 667.833 622.102 662.182 622.102C656.531 622.102 651.954 617.533 651.954 611.904Z" fill="#4F2CA5"/>
<path fill-rule="evenodd" clip-rule="evenodd" d="M42.9006 300.375C42.9006 291.226 50.3304 283.816 59.5029 283.816C61.9795 283.816 64.3296 284.357 66.441 285.327L44.9976 308.438C43.6635 306.05 42.9006 303.299 42.9006 300.375ZM46.0027 310.013L68.0933 286.203C72.8946 289.102 76.1016 294.364 76.1016 300.375C76.1016 309.516 68.6681 316.93 59.5029 316.93C53.9387 316.93 49.0144 314.2 46.0027 310.013Z" fill="#4F2CA5"/>
<path fill-rule="evenodd" clip-rule="evenodd" d="M44.999 308.438L66.4424 285.327L45.0026 308.438C44.999 308.438 44.999 308.438 44.999 308.438Z" fill="#DCD6ED"/>
<path fill-rule="evenodd" clip-rule="evenodd" d="M45.0017 308.438L66.4415 285.327C67.0091 285.587 67.5623 285.879 68.0938 286.203L46.0032 310.013C45.6417 309.509 45.3054 308.982 45.0017 308.438Z" fill="#DCD6ED"/>
</g>
</svg>
