<svg xmlns="http://www.w3.org/2000/svg" xmlns:xlink="http://www.w3.org/1999/xlink" width="80" height="60"><style><![CDATA[.B{fill:#fff}.C{fill-rule:nonzero}.D{fill:#378ffc}.E{opacity:.05}]]></style><defs><rect id="A" width="80" height="60" rx="3"/><rect id="B" width="80" height="60" rx="3"/><rect id="C" width="80" height="60" rx="3"/><rect id="D" width="80" height="60" rx="3"/><rect id="E" width="80" height="60" rx="3"/><rect id="F" width="80" height="60" rx="3"/><rect id="G" width="80" height="60" rx="3"/><rect id="H" width="80" height="60" rx="3"/><path id="I" d="M67.975 23.404c8.25 0 22.5 0 25.5-8.25S71.53 7.388 65.725 1.58s-15.17-5.177-24-5.177-7.158-9.734-14.25-8.25-.75 8.918-3 13.427v21.823h43.5z"/><path id="J" d="M10.286 59.675c29.448-10.47 42.536 13.088 42.536 0S37.116 40.043 29.263 32.19s-4.416-20.94-16.36-20.94-5.926 7.337-18.977 13.088-13.088 45.808 16.36 35.337z"/><path id="K" d="M59.035 45.425c29.448-10.47 42.536 13.088 42.536 0S85.866 25.793 78.013 17.94 73.597-3 61.653-3s-5.926 7.337-18.977 13.088S16.5.926 16.5 17.94s13.088 37.955 42.536 27.485z"/><path id="L" d="M12.277 25.617c1.06-.506 2.144-1.1 3.1-1.775.35-.252.005-.742-.363-.548-1.02.535-2.016 1.225-2.925 1.928-.187.14-.052.51.19.394zm3.92-20.873l-.06-.052c-.262-.234-.693-.278-.947 0s-.25.667 0 .947l.052.06c.234.265.72.257.955 0s.28-.706 0-.955zm60.3 4.077c.066-.43.053-.837.29-1.216.48-.752 1.16-.564 1.818-.232.67.338 1.304.54 2.03.226 1.138-.492 1.674-2.21.586-3.018-.35-.263-.7.17-.652.5.066.46.295.972-.1 1.366-.53.53-1.15.085-1.68-.154-.57-.257-1.178-.313-1.764-.075-1.012.41-1.75 1.783-.943 2.71.113.128.385.07.414-.1zm-11.74 43.42c-1.04 1-1.434 2.553-.444 3.756.933 1.132 2.744 1.368 3.91.468 2.82-2.176-.12-6.185-3.16-5.356-.564.153-.423.958.133.987.887.05 1.84.083 2.55.71.763.667.78 1.8.153 2.57-1.658 2.035-4.535-.962-2.794-2.786.224-.228-.116-.568-.348-.348zm-61.008-6.63l1.055 3.593c.088.286.36.378.607.208l2.86-2.036c.176-.14.138-.424-.035-.544C7.167 46.098 5.716 45.007 4.35 45c-.346-.003-.59.487-.236.688.55.318 1.21.43 1.8.674.678.282 1.352.614 1.952 1.04l.04-.593c-1.027.632-1.994 1.34-2.968 2.047l.575.116-1.306-3.508c-.1-.244-.515-.11-.448.148z"/></defs><g fill="none" fill-rule="evenodd"><rect width="80" height="60" rx="3" class="B C"/><mask id="M" class="B"><use xlink:href="#A"/></mask><use xlink:href="#I" mask="url(#M)" transform="rotate(180 58.862 5.702)" class="C D E"/><mask id="N" class="B"><use xlink:href="#B"/></mask><use xlink:href="#J" mask="url(#N)" class="C D E"/><mask id="O" class="B"><use xlink:href="#C"/></mask><use xlink:href="#K" mask="url(#O)" transform="matrix(-1 0 0 1 118.07 0)" class="C D E"/><mask id="P" class="B"><use xlink:href="#D"/></mask><use xlink:href="#L" mask="url(#P)" class="C D E"/><rect width="80" height="60" rx="3" class="B C"/><mask id="Q" class="B"><use xlink:href="#E"/></mask><use xlink:href="#I" mask="url(#Q)" transform="rotate(180 58.862 5.702)" class="C D E"/><mask id="R" class="B"><use xlink:href="#F"/></mask><use xlink:href="#J" mask="url(#R)" class="C D E"/><mask id="S" class="B"><use xlink:href="#G"/></mask><use xlink:href="#K" mask="url(#S)" transform="matrix(-1 0 0 1 118.07 0)" class="C D E"/><mask id="T" class="B"><use xlink:href="#H"/></mask><use xlink:href="#L" mask="url(#T)" class="C D E"/><path fill="#3792fc" d="M68.255 30.978c.37.3.445.833.168 1.163l-5.408 6.445c-.277.33-.805.346-1.174.037L52.28 30.6c-.37-.31-.64-.926-.6-1.37l.384-4.46c.04-.444.422-.9.853-1.016L57.24 22.6c.43-.115 1.085.044 1.454.354l9.562 8.023zM56.4 25.1a1.87 1.87 0 1 0-2.405 2.867 1.87 1.87 0 1 0 2.405-2.867z"/><path fill="#358df4" d="M55.89 25.73a1.06 1.06 0 0 1 .131 1.493 1.06 1.06 0 0 1-1.493.131 1.06 1.06 0 0 1-.131-1.493 1.06 1.06 0 0 1 1.493-.131l.522-.622a1.87 1.87 0 1 0-2.405 2.867 1.87 1.87 0 1 0 2.405-2.867l-.522.622z"/><path fill="#d3e8ff" d="M61.622 28.667c.3.25.45.555.453.912s-.142.712-.437 1.064-.62.56-.977.62-.683-.032-.982-.283-.45-.557-.45-.92.144-.72.44-1.072.616-.552.972-.61.683.037.982.287zm-.533.635c-.093-.078-.207-.094-.34-.048s-.268.148-.4.306-.21.308-.234.45.01.252.104.33.208.093.344.045.27-.15.403-.31.2-.307.232-.448-.013-.25-.107-.328zm2.73 1.245l.718.602-5.512 1.806-.718-.602 5.512-1.806zm-.654 1.983c.3.25.45.555.453.912s-.142.712-.437 1.064-.62.56-.977.62-.683-.032-.982-.283-.45-.557-.45-.92.144-.72.44-1.072.616-.552.972-.61.683.037.982.287zm-.533.635c-.093-.078-.207-.094-.34-.048s-.268.148-.4.306-.21.308-.234.45.01.252.104.33.208.093.344.045.27-.15.403-.31.2-.307.232-.448-.013-.25-.107-.328z"/><path fill="#96c7ff" d="M22.143 39.712V23.576h-3.09V21.06h8.854v2.515h-3.09v16.137h-2.672zm12.145-6.523l-1.3-6.76h-.052l-1.3 6.76h2.672zm-6.6 6.523l4.165-18.65h2.227l4.165 18.65h-2.672l-.786-4.008h-3.64l-.786 4.008h-2.672zm11.804 0l3.772-9.77-3.484-8.88h2.83l2.017 5.527 2.043-5.527h2.83l-3.563 8.88 3.85 9.77h-2.83l-2.33-6.287-2.305 6.287h-2.83z"/><path stroke="#96c7ff" stroke-linecap="round" stroke-linejoin="round" d="M52.94 23.636c-1.395-.39-2.607-.59-3.636-.606-1.544-.023-2.424 0-2.424 1.212s1.257 2.27 3.3 3.013 3.972.623 4.578.017c.404-.404.404-.808 0-1.212"/></g></svg>