<svg xmlns="http://www.w3.org/2000/svg" xmlns:xlink="http://www.w3.org/1999/xlink" width="80" height="60"><style><![CDATA[.B{fill-rule:nonzero}.C{mask:url(#B)}.D{opacity:.05}]]></style><defs><rect id="A" width="80" height="60" rx="3"/></defs><g fill="none" fill-rule="evenodd"><mask id="B" fill="#fff"><use xlink:href="#A"/></mask><use fill="#fff" xlink:href="#A"/><g class="C"><circle cx="40" cy="30" r="17" stroke="#4f2da7" stroke-width="2"/><g fill="#a991d3" class="B"><path d="M35.067 24.166a1.65 1.65 0 0 1 .161-.678l-.053-.003H32.61a.85.85 0 0 0-.831.68h3.287z"/><path d="M35.066 24.203l.001-.037h-3.28c-.13-.005-1.67-.044-2.35 1.03-.708 1.12-.898 2.01-1.96 3.652-.798 1.203-.876 1.76-.876 2.48l-.024 2.525c0 1.306.814 1.83 1.973 1.83h1.078a2.52 2.52 0 0 1 2.515-2.46 2.52 2.52 0 0 1 2.515 2.46h.406v-11.48zm-.944 6.304l-4.526-.015c-.376-.001-.824-.44-.483-1.194l1.22-2.302c.403-.638 1.34-.588 1.34-.588h2.467l-.016 4.1z"/><path d="M32.134 33.35c-1.274 0-2.3 1.02-2.342 2.29l-.002.06a2.35 2.35 0 0 0 2.344 2.351 2.35 2.35 0 0 0 2.344-2.351l-.001-.06c-.032-1.27-1.068-2.29-2.342-2.29zm1.252 2.35c0 .694-.56 1.256-1.252 1.256s-1.252-.562-1.252-1.256.56-1.256 1.252-1.256 1.252.562 1.252 1.256z"/></g><g fill="#fff" class="B"><ellipse cx="32.144" cy="35.748" rx="1.381" ry="1.385"/><path d="M30.332 26.997c-.23.362-.76 1.372-1.22 2.302-.34.754.108 1.193.483 1.194l4.526.015.016-4.1H31.67s-.935-.05-1.34.588z"/></g><g fill="#a991d3" class="B"><path d="M51.713 22.55H37.1a1.65 1.65 0 0 0-1.487.938c-.1.206-.226.6-.226.715v11.48l9.168.007c0-1.402 1.127-2.532 2.517-2.532a2.52 2.52 0 0 1 2.517 2.525l2.125.013a1.65 1.65 0 0 0 1.648-1.654v-9.84a1.65 1.65 0 0 0-1.648-1.654zm-5.182 6.12a.63.63 0 0 1-.631.633h-1.002v1.005c0 .35-.283.633-.63.633h-.422c-.35 0-.63-.284-.63-.633v-1.005H42.21c-.348 0-.63-.283-.63-.633v-.424c0-.35.283-.633.63-.633h1.002v-1.005c0-.35.283-.633.63-.633h.422a.63.63 0 0 1 .631.633v1.005H45.9c.35 0 .63.284.63.633v.424z"/><path d="M47.096 33.285a2.35 2.35 0 1 0 0 4.703c1.29 0 2.338-1.047 2.344-2.34a2.35 2.35 0 0 0-2.344-2.362zm.032 3.608c-.674 0-1.22-.548-1.22-1.224s.546-1.224 1.22-1.224 1.22.548 1.22 1.224-.546 1.224-1.22 1.224z"/></g><ellipse cx="47.071" cy="35.683" fill="#fff" rx="1.381" ry="1.385" class="B"/><path fill="#5621ad" d="M34.323 22.553c0-.323-.33-.584-.74-.584s-.74.26-.74.584v.74h1.48v-.74z" class="B"/><path fill="#fff" d="M45.9 27.613h-1.002v-1.005a.63.63 0 0 0-.631-.633h-.422c-.35 0-.63.283-.63.633v1.005H42.21c-.348 0-.63.284-.63.633v.424c0 .35.283.633.63.633h1.002v1.005c0 .35.283.633.63.633h.422c.35 0 .63-.284.63-.633v-1.005H45.9a.63.63 0 0 0 .631-.633v-.424a.63.63 0 0 0-.631-.633z" class="B"/></g><g fill="#4f2da7" class="B C"><path d="M67.975 23.404c8.25 0 22.5 0 25.5-8.25S71.53 7.388 65.725 1.58s-15.17-5.177-24-5.177-7.158-9.734-14.25-8.25-.75 8.918-3 13.427v21.823h43.5z" transform="rotate(180 58.862 5.702)" class="D"/><path d="M10.286 59.675c29.448-10.47 42.536 13.088 42.536 0S37.116 40.043 29.263 32.19s-4.416-20.94-16.36-20.94-5.926 7.337-18.977 13.088-13.088 45.808 16.36 35.337z" class="D"/><path d="M59.036 45.425c29.448-10.47 42.536 13.088 42.536 0S85.866 25.793 78.013 17.94 73.597-3 61.653-3s-5.926 7.337-18.977 13.088S16.5.926 16.5 17.94s13.088 37.955 42.536 27.485z" transform="matrix(-1 0 0 1 118.071 0)" class="D"/></g><g fill="#b392db" class="B C"><path d="M103.45-6.644c-1.295 4.496-5.44 7.797-10.346 7.797A10.79 10.79 0 0 1 82.329-9.62c0-4.397 2.653-8.182 6.44-9.855v-4.567c-6.2 1.867-10.73 7.623-10.73 14.422 0 8.306 6.758 15.065 15.066 15.065 6.054 0 11.272-3.598 13.665-8.76l-1.7-3.342-1.617.014z"/></g><path fill="#3792fc" d="M12.277 25.617c1.06-.506 2.144-1.1 3.1-1.775.35-.252.005-.742-.363-.548-1.02.535-2.016 1.225-2.925 1.928-.187.14-.052.51.19.394zm3.92-20.873l-.06-.052c-.262-.234-.693-.278-.947 0s-.25.667 0 .947l.052.06c.234.265.72.257.955 0s.28-.706 0-.955zm60.3 4.077c.066-.43.053-.837.29-1.216.48-.752 1.16-.564 1.818-.232.67.338 1.304.54 2.03.226 1.138-.492 1.674-2.21.586-3.018-.35-.263-.7.17-.652.5.066.46.295.972-.1 1.366-.53.53-1.15.085-1.68-.154-.57-.257-1.178-.313-1.764-.075-1.012.41-1.75 1.783-.943 2.71.113.128.385.07.414-.1zm-11.74 43.42c-1.04 1-1.434 2.553-.444 3.756.933 1.132 2.744 1.368 3.91.468 2.82-2.176-.12-6.185-3.16-5.356-.564.153-.423.958.133.987.887.05 1.84.083 2.55.71.763.667.78 1.8.153 2.57-1.658 2.035-4.535-.962-2.794-2.786.224-.228-.116-.568-.348-.348zm-61.008-6.63l1.055 3.593c.088.286.36.378.607.208l2.86-2.036c.176-.14.138-.424-.035-.544C7.167 46.098 5.716 45.007 4.35 45c-.346-.004-.59.487-.236.688.55.318 1.21.43 1.8.674.678.282 1.352.614 1.952 1.04l.04-.593c-1.027.632-1.994 1.34-2.968 2.047l.575.116-1.306-3.508c-.1-.244-.515-.11-.448.148z" class="B C D"/></g></svg>