<?xml version="1.0" encoding="UTF-8"?>
<svg width="80px" height="60px" viewBox="0 0 80 60" version="1.1" xmlns="http://www.w3.org/2000/svg" xmlns:xlink="http://www.w3.org/1999/xlink">
    <!-- Generator: Sketch 55.2 (78181) - https://sketchapp.com -->
    <title>ic_hospicash_b2</title>
    <desc>Created with Sketch.</desc>
    <defs>
        <rect id="path-1" x="0" y="0" width="80" height="60" rx="3"></rect>
        <rect id="path-3" x="0" y="0" width="80" height="60" rx="3"></rect>
        <rect id="path-5" x="0" y="0" width="80" height="60" rx="3"></rect>
        <rect id="path-7" x="0" y="0" width="80" height="60" rx="3"></rect>
        <rect id="path-9" x="0" y="0" width="80" height="60" rx="3"></rect>
    </defs>
    <g id="Page-1" stroke="none" stroke-width="1" fill="none" fill-rule="evenodd">
        <g id="ic_hospicash_b2">
            <g id="ic_hospicash_b2-a-link" fill="#FFFFFF" fill-rule="nonzero">
                <rect id="ic_hospicash_b2-a" x="0" y="0" width="80" height="60" rx="3"></rect>
            </g>
            <g id="Clipped">
                <mask id="mask-2" fill="white">
                    <use xlink:href="#path-1"></use>
                </mask>
                <g id="ic_hospicash_b2-a"></g>
                <path d="M67.9746152,23.404 C76.2246152,23.404 90.4746152,23.404 93.4746152,15.154 C96.4746152,6.90400007 71.5310668,7.38787104 65.7246152,1.58141943 C59.9181636,-4.22503219 50.5559964,-3.59599993 41.7246152,-3.59599993 C32.893234,-3.59599993 34.5667106,-13.3295859 27.4746152,-11.846 C20.3825199,-10.362414 26.7246152,-2.9280852 24.4746152,1.58141943 C24.4746152,4.3839536 24.4746152,11.6581471 24.4746152,23.404 C44.2246152,23.404 58.7246152,23.404 67.9746152,23.404 Z" id="Path" fill="#378EFC" fill-rule="nonzero" opacity="0.05" mask="url(#mask-2)" transform="translate(58.862052, 5.702067) rotate(180.000000) translate(-58.862052, -5.702067) "></path>
            </g>
            <g id="Clipped">
                <mask id="mask-4" fill="white">
                    <use xlink:href="#path-3"></use>
                </mask>
                <g id="ic_hospicash_b2-a"></g>
                <path d="M10.2856144,59.675161 C39.7333474,49.2048559 52.8212288,72.7630423 52.8212288,59.675161 C52.8212288,46.5872797 37.1157711,40.043339 29.2630423,32.1906102 C21.4103136,24.3378814 24.8468778,11.25 12.9031907,11.25 C0.959503549,11.25 6.97679534,18.5865724 -6.07423726,24.3378814 C-19.12527,30.0891903 -19.1621186,70.1454661 10.2856144,59.675161 Z" id="Path" fill="#378EFC" fill-rule="nonzero" opacity="0.05" mask="url(#mask-4)"></path>
            </g>
            <g id="Clipped">
                <mask id="mask-6" fill="white">
                    <use xlink:href="#path-5"></use>
                </mask>
                <g id="ic_hospicash_b2-a"></g>
                <path d="M59.0353854,45.425161 C88.4831184,34.9548559 101.571,58.5130423 101.571,45.425161 C101.571,32.3372797 85.8655421,25.793339 78.0128133,17.9406102 C70.1600846,10.0878814 73.5966488,-3 61.6529617,-3 C49.7092745,-3 55.7265663,4.33657244 42.6755337,10.0878814 C29.624501,15.8391903 16.499771,0.926364402 16.499771,17.9406102 C16.499771,34.9548559 29.5876524,55.8954661 59.0353854,45.425161 Z" id="Path" fill="#378EFC" fill-rule="nonzero" opacity="0.05" mask="url(#mask-6)" transform="translate(59.035385, 23.250000) scale(-1, 1) translate(-59.035385, -23.250000) "></path>
            </g>
            <g id="Clipped">
                <mask id="mask-8" fill="white">
                    <use xlink:href="#path-7"></use>
                </mask>
                <g id="ic_hospicash_b2-a"></g>
                <path d="M12.2770509,25.6172581 C13.3358744,25.1112028 14.4206495,24.5272927 15.3756668,23.8421716 C15.7260128,23.5904415 15.3808571,23.0999571 15.012345,23.2945938 C13.9924488,23.8291958 12.995909,24.5195073 12.0876045,25.2227945 C11.9007533,25.3629329 12.0357014,25.731445 12.2770509,25.6172581 L12.2770509,25.6172581 Z M16.1967024,4.74397584 C16.1759412,4.72580975 16.1577751,4.70764366 16.1370138,4.69207273 C15.8749031,4.45850871 15.4441072,4.41439107 15.189782,4.69207273 C14.9328616,4.97234954 14.940647,5.35902774 15.189782,5.63930456 C15.2079481,5.66006581 15.2261142,5.6782319 15.2416851,5.69899314 C15.4752491,5.96369902 15.9605432,5.95591356 16.1967024,5.69899314 C16.4302664,5.44207273 16.4769792,4.99311079 16.1967024,4.74397584 L16.1967024,4.74397584 Z M76.5064484,8.82141525 C76.5722606,8.39206882 76.5597249,7.98465979 76.7979025,7.60545601 C77.2773916,6.85331628 77.9574513,7.04135121 78.6155735,7.37354626 C79.2862315,7.71200914 79.9192824,7.91257974 80.6463508,7.59918818 C81.7839622,7.10716344 82.3198617,5.38977771 81.232393,4.58122749 C80.8813945,4.31797858 80.5335299,4.75045893 80.5805386,5.08265398 C80.6463508,5.54333957 80.8751267,6.05416781 80.4802533,6.44904117 C79.9506216,6.9786729 79.3301063,6.53365689 78.8004746,6.29547931 C78.2301019,6.03849823 77.6221223,5.98208775 77.0360801,6.22026533 C76.0238254,6.63080827 75.2873552,8.00346329 76.0927715,8.93110229 C76.2055925,9.05959283 76.4782431,9.00004844 76.5064484,8.82141525 L76.5064484,8.82141525 Z M64.7650465,52.2428221 C63.7245991,53.2418174 63.3308043,54.7962706 64.3215091,55.9983811 C65.2541811,57.1300231 67.0656373,57.3663 68.2304409,56.4667897 C71.0491828,54.2905551 68.1102299,50.2821384 65.0717919,51.1111801 C64.5080435,51.2645528 64.6489806,52.0687233 65.2044386,52.0977398 C66.0915132,52.1474823 67.0449112,52.1806439 67.7537419,52.8065704 C68.5164603,53.473949 68.5330411,54.605591 67.9071146,55.3765998 C66.2490312,57.4118973 63.3722564,54.4149114 65.113244,52.5910196 C65.3370853,52.3630331 64.9971782,52.023126 64.7650465,52.2428221 L64.7650465,52.2428221 Z M3.75726804,45.6141129 C4.08196141,46.8211253 4.43841827,48.0140205 4.81252151,49.2069157 C4.9007534,49.4927871 5.17250764,49.5845482 5.41955695,49.415143 C6.3901078,48.7551684 7.35712937,48.1093109 8.27827036,47.3787508 C8.45473415,47.2375798 8.41591212,46.9552377 8.2429776,46.8352424 C7.16654848,46.0976237 5.71601612,45.0070775 4.35018637,44.9999813 C4.00431734,44.9964897 3.76079731,45.487059 4.1137249,45.6882277 C4.66429192,46.0058626 5.3242665,46.1187994 5.91365556,46.3623194 C6.59127652,46.6446615 7.2653682,46.9764134 7.86534509,47.4034558 C7.87946219,47.2058163 7.8935793,47.0081769 7.90416712,46.8105374 C6.87714786,47.4422778 5.91012629,48.1516622 4.93604616,48.8575174 C5.12662705,48.8963394 5.32073722,48.9351615 5.51131812,48.9739835 C5.09486357,47.7952054 4.6678212,46.6270151 4.20548607,45.4658834 C4.10666634,45.2223633 3.6902118,45.3564758 3.75726804,45.6141129 L3.75726804,45.6141129 Z" id="Shape" fill="#378EFC" fill-rule="nonzero" opacity="0.05" mask="url(#mask-8)"></path>
            </g>
            <g id="Clipped">
                <mask id="mask-10" fill="white">
                    <use xlink:href="#path-9"></use>
                </mask>
                <g id="ic_hospicash_b2-a"></g>
                <g id="Group" mask="url(#mask-10)">
                    <g transform="translate(25.000000, 15.000000)">
                        <g id="Group" stroke="none" stroke-width="1" fill-rule="evenodd" transform="translate(4.773000, 4.773000)">
                            <path d="M2.2071476,1.73027807 L2.26998699,1.03836955 C1.59142336,0.919447775 0.902555478,1.184319 0.478389871,1.72706852 C-0.858804416,3.53640254 1.00897693,8.24901573 1.2262119,8.78044744 L1.27891587,8.75899421 L1.58753816,9.18417333 L2.01406867,9.00562176 L1.86693674,8.51827898 C1.3172614,7.17382099 0.0964550308,3.40734538 1.03499109,2.13839598 C1.31979521,1.79565127 1.77081958,1.63855288 2.2071476,1.73027807 Z M10.7560016,1.72706852 C10.332005,1.18398114 9.64296814,0.919109908 8.96423564,1.03836955 L9.0272439,1.73027807 C9.46340305,1.63889075 9.91425846,1.79598909 10.1992315,2.13839598 C11.1375986,3.40734538 9.91696123,7.17382099 9.36897509,8.51827898 L9.26525636,8.78044744 L9.87033849,9.09768477 L9.92354919,8.74548037 L10.0090242,8.78010957 C10.2252457,8.24901573 12.093027,3.53640254 10.7560016,1.72706852 Z" id="Shape" fill="#C3DEFF" fill-rule="nonzero"></path>
                            <path d="M3.80634143,0.000506771094 C3.11798029,0.000506771094 2.07657015,0.554067365 2.07657015,1.38432381 C2.07657015,2.21458025 3.11798029,2.76814084 3.80634143,2.76814084 C4.57071789,2.76814084 5.19015846,2.14853136 5.19015846,1.38432381 C5.19015846,0.619947348 4.57071789,0.000506771094 3.80634143,0.000506771094 Z M7.61183826,0.000506771094 C6.84763071,0.000506771094 6.22802123,0.619947348 6.22802123,1.38432381 C6.22802123,2.14853136 6.84763071,2.76814084 7.61183826,2.76814084 C8.30036832,2.76814084 9.34160955,2.21458025 9.34160955,1.38432381 C9.34160955,0.554067365 8.30036832,0.000506771094 7.61183826,0.000506771094 Z" id="Shape" fill="#378EFC" fill-rule="nonzero"></path>
                            <path d="M16.2606947,11.4169973 C14.8711343,11.4222338 13.7008359,12.457056 13.5256628,13.8356364 C13.3504896,15.2142168 14.2246661,16.5088425 15.5687862,16.8615537 L15.5687862,19.0279909 L6.22802123,19.0279909 L6.22802123,13.4621478 C8.68247211,13.191871 10.5404559,11.1185104 10.5411316,8.64936321 L9.15731457,8.64936321 C9.15731457,10.5598821 7.6084598,12.1089058 5.697772,12.1089058 C3.78708424,12.1089058 2.23822943,10.5598821 2.23822943,8.64936321 L0.854412397,8.64936321 C0.85627056,10.9935074 2.53671634,12.9999745 4.8442042,13.4131601 L4.8442042,19.0279909 C4.8442042,19.7921985 5.46381368,20.411808 6.22802123,20.411808 L15.5687862,20.411808 C16.3331626,20.411808 16.9526032,19.7921985 16.9526032,19.0279909 L16.9526032,16.8615537 C18.2967233,16.5088425 19.1710687,15.2142168 18.9957266,13.8356364 C18.8205535,12.457056 17.650424,11.4222338 16.2606947,11.4169973 L16.2606947,11.4169973 Z M16.2606947,15.5684484 C15.4964871,15.5684484 14.8768777,14.9488389 14.8768777,14.1846313 C14.8768777,13.4202549 15.4964871,12.8008143 16.2606947,12.8008143 C17.0250712,12.8008143 17.6445117,13.4202549 17.6445117,14.1846313 C17.6445117,14.9488389 17.0250712,15.5684484 16.2606947,15.5684484 Z" id="Shape" fill="#87BDFF" fill-rule="nonzero"></path>
                            <path d="M17.2981585,8.99536955 C17.2981585,9.5685252 16.8336203,10.0332323 16.2602957,10.0332323 C15.68714,10.0332323 15.2224329,9.5685252 15.2224329,8.99536955 C15.2224329,8.42204494 15.68714,7.95750678 16.2602957,7.95750678 C16.8336203,7.95750678 17.2981585,8.42204494 17.2981585,8.99536955 Z M20.4117468,10.0332323 C20.4117468,10.606388 19.9472086,11.0710951 19.373884,11.0710951 C18.8007283,11.0710951 18.3360212,10.606388 18.3360212,10.0332323 C18.3360212,9.45990772 18.8007283,8.99536955 19.373884,8.99536955 C19.9472086,8.99536955 20.4117468,9.45990772 20.4117468,10.0332323 L20.4117468,10.0332323 Z M14.1845702,10.0332323 C14.1845702,10.606388 13.720032,11.0710951 13.1467074,11.0710951 C12.5735517,11.0710951 12.1088446,10.606388 12.1088446,10.0332323 C12.1088446,9.45990772 12.5735517,8.99536955 13.1467074,8.99536955 C13.720032,8.99536955 14.1845702,9.45990772 14.1845702,10.0332323 L14.1845702,10.0332323 Z" id="Shape" fill="#378EFC" fill-rule="nonzero"></path>
                        </g>
                        <circle id="Oval" stroke="#87BDFF" stroke-width="0.682" cx="15" cy="15" r="14.659"></circle>
                        <path d="M25.227,4.773 L4.773,24.965" id="Path" stroke="#87BDFF" stroke-width="0.682" stroke-linecap="round" stroke-linejoin="round"></path>
                    </g>
                </g>
            </g>
        </g>
    </g>
</svg>