<?xml version="1.0" encoding="UTF-8"?>
<svg width="80px" height="60px" viewBox="0 0 80 60" version="1.1" xmlns="http://www.w3.org/2000/svg" xmlns:xlink="http://www.w3.org/1999/xlink">
    <!-- Generator: Sketch 55.2 (78181) - https://sketchapp.com -->
    <title>ic_hospicash_b3</title>
    <desc>Created with Sketch.</desc>
    <defs>
        <rect id="path-1" x="0" y="0" width="80" height="60" rx="3"></rect>
        <rect id="path-3" x="0" y="0" width="80" height="60" rx="3"></rect>
        <rect id="path-5" x="0" y="0" width="80" height="60" rx="3"></rect>
        <rect id="path-7" x="0" y="0" width="80" height="60" rx="3"></rect>
        <rect id="path-9" x="0" y="0" width="80" height="60" rx="3"></rect>
        <rect id="path-11" x="0" y="0" width="80" height="60" rx="3"></rect>
    </defs>
    <g id="Page-1" stroke="none" stroke-width="1" fill="none" fill-rule="evenodd">
        <g id="ic_hospicash_b3">
            <g id="ic_hospicash_b3-a-link" fill="#FFFFFF" fill-rule="nonzero">
                <rect id="ic_hospicash_b3-a" x="0" y="0" width="80" height="60" rx="3"></rect>
            </g>
            <g id="Clipped">
                <mask id="mask-2" fill="white">
                    <use xlink:href="#path-1"></use>
                </mask>
                <g id="ic_hospicash_b3-a"></g>
                <path d="M67.9746152,23.404 C76.2246152,23.404 90.4746152,23.404 93.4746152,15.154 C96.4746152,6.90400007 71.5310668,7.38787104 65.7246152,1.58141943 C59.9181636,-4.22503219 50.5559964,-3.59599993 41.7246152,-3.59599993 C32.893234,-3.59599993 34.5667106,-13.3295859 27.4746152,-11.846 C20.3825199,-10.362414 26.7246152,-2.9280852 24.4746152,1.58141943 C24.4746152,4.3839536 24.4746152,11.6581471 24.4746152,23.404 C44.2246152,23.404 58.7246152,23.404 67.9746152,23.404 Z" id="Path" fill="#378EFC" fill-rule="nonzero" opacity="0.05" mask="url(#mask-2)" transform="translate(58.862052, 5.702067) rotate(180.000000) translate(-58.862052, -5.702067) "></path>
            </g>
            <g id="Clipped">
                <mask id="mask-4" fill="white">
                    <use xlink:href="#path-3"></use>
                </mask>
                <g id="ic_hospicash_b3-a"></g>
                <path d="M10.2856144,59.675161 C39.7333474,49.2048559 52.8212288,72.7630423 52.8212288,59.675161 C52.8212288,46.5872797 37.1157711,40.043339 29.2630423,32.1906102 C21.4103136,24.3378814 24.8468778,11.25 12.9031907,11.25 C0.959503549,11.25 6.97679534,18.5865724 -6.07423726,24.3378814 C-19.12527,30.0891903 -19.1621186,70.1454661 10.2856144,59.675161 Z" id="Path" fill="#378EFC" fill-rule="nonzero" opacity="0.05" mask="url(#mask-4)"></path>
            </g>
            <g id="Clipped">
                <mask id="mask-6" fill="white">
                    <use xlink:href="#path-5"></use>
                </mask>
                <g id="ic_hospicash_b3-a"></g>
                <path d="M59.0353854,45.425161 C88.4831184,34.9548559 101.571,58.5130423 101.571,45.425161 C101.571,32.3372797 85.8655421,25.793339 78.0128133,17.9406102 C70.1600846,10.0878814 73.5966488,-3 61.6529617,-3 C49.7092745,-3 55.7265663,4.33657244 42.6755337,10.0878814 C29.624501,15.8391903 16.499771,0.926364402 16.499771,17.9406102 C16.499771,34.9548559 29.5876524,55.8954661 59.0353854,45.425161 Z" id="Path" fill="#378EFC" fill-rule="nonzero" opacity="0.05" mask="url(#mask-6)" transform="translate(59.035385, 23.250000) scale(-1, 1) translate(-59.035385, -23.250000) "></path>
            </g>
            <g id="Clipped">
                <mask id="mask-8" fill="white">
                    <use xlink:href="#path-7"></use>
                </mask>
                <g id="ic_hospicash_b3-a"></g>
                <g id="Group" mask="url(#mask-8)" fill="#B392DB" fill-rule="nonzero">
                    <g transform="translate(78.000000, -25.000000)" id="Path">
                        <path d="M25.4505528,18.3555779 C24.1557789,22.8512563 20.0112563,26.1528643 15.1042211,26.1528643 C9.16190955,26.1528643 4.32944724,21.320201 4.32944724,15.3796985 C4.32944724,10.9823116 6.98231156,7.1974874 10.7682412,5.5250251 L10.7682412,0.9577889 C4.56824121,2.8252261 0.0381909548,8.580603 0.0381909548,15.3796985 C0.0381909548,23.6861307 6.79668342,30.4447236 15.1041206,30.4447236 C21.158191,30.4447236 26.3763819,26.8466332 28.7690452,21.6840201 L27.0679397,18.341809 C26.5904523,18.3457286 26.0372864,18.3507538 25.4505528,18.3555779 Z"></path>
                    </g>
                </g>
            </g>
            <g id="Clipped">
                <mask id="mask-10" fill="white">
                    <use xlink:href="#path-9"></use>
                </mask>
                <g id="ic_hospicash_b3-a"></g>
                <path d="M12.2770509,25.6172581 C13.3358744,25.1112028 14.4206495,24.5272927 15.3756668,23.8421716 C15.7260128,23.5904415 15.3808571,23.0999571 15.012345,23.2945938 C13.9924488,23.8291958 12.995909,24.5195073 12.0876045,25.2227945 C11.9007533,25.3629329 12.0357014,25.731445 12.2770509,25.6172581 L12.2770509,25.6172581 Z M16.1967024,4.74397584 C16.1759412,4.72580975 16.1577751,4.70764366 16.1370138,4.69207273 C15.8749031,4.45850871 15.4441072,4.41439107 15.189782,4.69207273 C14.9328616,4.97234954 14.940647,5.35902774 15.189782,5.63930456 C15.2079481,5.66006581 15.2261142,5.6782319 15.2416851,5.69899314 C15.4752491,5.96369902 15.9605432,5.95591356 16.1967024,5.69899314 C16.4302664,5.44207273 16.4769792,4.99311079 16.1967024,4.74397584 L16.1967024,4.74397584 Z M76.5064484,8.82141525 C76.5722606,8.39206882 76.5597249,7.98465979 76.7979025,7.60545601 C77.2773916,6.85331628 77.9574513,7.04135121 78.6155735,7.37354626 C79.2862315,7.71200914 79.9192824,7.91257974 80.6463508,7.59918818 C81.7839622,7.10716344 82.3198617,5.38977771 81.232393,4.58122749 C80.8813945,4.31797858 80.5335299,4.75045893 80.5805386,5.08265398 C80.6463508,5.54333957 80.8751267,6.05416781 80.4802533,6.44904117 C79.9506216,6.9786729 79.3301063,6.53365689 78.8004746,6.29547931 C78.2301019,6.03849823 77.6221223,5.98208775 77.0360801,6.22026533 C76.0238254,6.63080827 75.2873552,8.00346329 76.0927715,8.93110229 C76.2055925,9.05959283 76.4782431,9.00004844 76.5064484,8.82141525 L76.5064484,8.82141525 Z M64.7650465,52.2428221 C63.7245991,53.2418174 63.3308043,54.7962706 64.3215091,55.9983811 C65.2541811,57.1300231 67.0656373,57.3663 68.2304409,56.4667897 C71.0491828,54.2905551 68.1102299,50.2821384 65.0717919,51.1111801 C64.5080435,51.2645528 64.6489806,52.0687233 65.2044386,52.0977398 C66.0915132,52.1474823 67.0449112,52.1806439 67.7537419,52.8065704 C68.5164603,53.473949 68.5330411,54.605591 67.9071146,55.3765998 C66.2490312,57.4118973 63.3722564,54.4149114 65.113244,52.5910196 C65.3370853,52.3630331 64.9971782,52.023126 64.7650465,52.2428221 L64.7650465,52.2428221 Z M3.75726804,45.6141129 C4.08196141,46.8211253 4.43841827,48.0140205 4.81252151,49.2069157 C4.9007534,49.4927871 5.17250764,49.5845482 5.41955695,49.415143 C6.3901078,48.7551684 7.35712937,48.1093109 8.27827036,47.3787508 C8.45473415,47.2375798 8.41591212,46.9552377 8.2429776,46.8352424 C7.16654848,46.0976237 5.71601612,45.0070775 4.35018637,44.9999813 C4.00431734,44.9964897 3.76079731,45.487059 4.1137249,45.6882277 C4.66429192,46.0058626 5.3242665,46.1187994 5.91365556,46.3623194 C6.59127652,46.6446615 7.2653682,46.9764134 7.86534509,47.4034558 C7.87946219,47.2058163 7.8935793,47.0081769 7.90416712,46.8105374 C6.87714786,47.4422778 5.91012629,48.1516622 4.93604616,48.8575174 C5.12662705,48.8963394 5.32073722,48.9351615 5.51131812,48.9739835 C5.09486357,47.7952054 4.6678212,46.6270151 4.20548607,45.4658834 C4.10666634,45.2223633 3.6902118,45.3564758 3.75726804,45.6141129 L3.75726804,45.6141129 Z" id="Shape" fill="#87BDFF" fill-rule="nonzero" opacity="0.05" mask="url(#mask-10)"></path>
            </g>
            <g id="Clipped">
                <mask id="mask-12" fill="white">
                    <use xlink:href="#path-11"></use>
                </mask>
                <g id="ic_hospicash_b3-a"></g>
                <g id="Group" mask="url(#mask-12)">
                    <g transform="translate(25.000000, 15.000000)">
                        <g id="Group" stroke="none" stroke-width="1" fill-rule="evenodd" transform="translate(5.192000, 5.192000)">
                            <path d="M2.89718407,1.43604396 L2.89718407,4.36957418 L0.214450549,4.36957418 C0.109574176,4.36957418 0.0245604396,4.28456044 0.0245604396,4.17968407 L0.0245604396,1.43604396 C0.0245604396,0.643021978 0.667541209,0 1.46118132,0 C1.85769231,0 2.21666209,0.161043956 2.47673077,0.420494505 C2.73671703,0.680480769 2.89718407,1.03953297 2.89718407,1.43604396 Z" id="Path" fill="#378EFC" fill-rule="nonzero"></path>
                            <path d="M16.8626786,0.420494505 C16.6026511,0.161043956 16.2436401,0 15.8471291,0 L1.46118132,0 C1.85769231,0 2.21666209,0.161043956 2.47673077,0.420494505 C2.73675824,0.680521978 2.89722527,1.03953297 2.89722527,1.43604396 L2.89722527,20.9074863 C2.89722527,20.9955495 3.00049451,21.0431456 3.06745879,20.9859478 L4.26869505,19.959272 C4.30726648,19.9263049 4.36417582,19.9263049 4.40274725,19.959272 L5.70778846,21.074217 C5.74635989,21.1071841 5.80326923,21.1071841 5.84184066,21.074217 L7.14688187,19.959272 C7.1854533,19.9263049 7.24236264,19.9263049 7.28097527,19.959272 L8.58539835,21.0741758 C8.62396978,21.1071429 8.68087912,21.1071429 8.71949176,21.0741758 L10.0239148,19.959272 C10.0624863,19.9263049 10.1193956,19.9263049 10.1580082,19.959272 L11.4630082,21.074217 C11.5015797,21.1071841 11.558489,21.1071841 11.5971016,21.074217 L12.9015247,19.9593132 C12.9400962,19.9263462 12.9970055,19.9263462 13.0356181,19.9593132 L14.34,21.0741758 C14.3786126,21.1071841 14.435522,21.1071429 14.4740934,21.0741758 L15.7777335,19.9593132 C15.8163049,19.9263049 15.8732555,19.9263049 15.9118269,19.9593132 L17.113022,20.9859478 C17.1799863,21.0431868 17.2832555,20.9955907 17.2832555,20.9074863 L17.2832555,4.36953297 L17.2832555,1.43604396 C17.2832555,1.03953297 17.122706,0.680480769 16.8626786,0.420494505 Z" id="Path" fill="#87BDFF" fill-rule="nonzero"></path>
                            <path d="M14.5819451,17.1262555 L10.4791566,17.1262555 C10.2968077,17.1262555 10.1489918,16.9783983 10.1489918,16.7960907 C10.1489918,16.613783 10.2968489,16.4659258 10.4791566,16.4659258 L14.5819039,16.4659258 C14.7642528,16.4659258 14.9120687,16.613783 14.9120687,16.7960907 C14.9120687,16.9783983 14.7642528,17.1262555 14.5819451,17.1262555 Z M14.5819451,14.9191126 L10.4791566,14.9191126 C10.2968077,14.9191126 10.1489918,14.7712555 10.1489918,14.5889478 C10.1489918,14.4066401 10.2968489,14.258783 10.4791566,14.258783 L14.5819039,14.258783 C14.7642528,14.258783 14.9120687,14.4066401 14.9120687,14.5889478 C14.9120687,14.7712967 14.7642528,14.9191126 14.5819451,14.9191126 Z" id="Shape" fill="#E0EEFF" fill-rule="nonzero"></path>
                            <path d="M14.9893929,11.7053434 L5.19010714,11.7053434 C5.00775824,11.7053434 4.85994231,11.5574863 4.85994231,11.3751786 C4.85994231,11.1928709 5.00779945,11.0450137 5.19010714,11.0450137 L14.9893929,11.0450137 C15.1717418,11.0450137 15.3195577,11.1928709 15.3195577,11.3751786 C15.3195577,11.5575687 15.1717418,11.7053434 14.9893929,11.7053434 Z M10.08975,9.70770604 L5.19010714,9.70770604 C5.00775824,9.70770604 4.85994231,9.5598489 4.85994231,9.37754121 C4.85994231,9.19523352 5.00779945,9.04737637 5.19010714,9.04737637 L10.08975,9.04737637 C10.2720989,9.04737637 10.4199148,9.19523352 10.4199148,9.37754121 C10.4199148,9.5598489 10.2720989,9.70770604 10.08975,9.70770604 Z" id="Shape" fill="#E0EEFF" fill-rule="nonzero"></path>
                            <circle id="Oval" fill="#FFFFFF" fill-rule="nonzero" cx="10.09" cy="4.369" r="3.01"></circle>
                            <path d="M10.5759066,3.88376374 L10.5759066,2.86244505 C10.5759066,2.81995879 10.5414973,2.78550824 10.499011,2.78550824 L9.68130495,2.78550824 C9.63881868,2.78550824 9.60440934,2.81991758 9.60440934,2.86244505 L9.60440934,3.88376374 L8.58309066,3.88376374 C8.5406044,3.88376374 8.50619505,3.91817308 8.50619505,3.96070055 L8.50619505,4.77840659 C8.50619505,4.82089286 8.5406044,4.8553022 8.58309066,4.8553022 L9.60440934,4.8553022 L9.60440934,5.87662088 C9.60440934,5.91910714 9.63881868,5.95351648 9.68130495,5.95351648 L10.499011,5.95351648 C10.5414973,5.95351648 10.5759066,5.91910714 10.5759066,5.87662088 L10.5759066,4.8553022 L11.5972253,4.8553022 C11.6397115,4.8553022 11.6741209,4.82089286 11.6741209,4.77840659 L11.6741209,3.96070055 C11.6741209,3.91821429 11.6397115,3.88376374 11.5972253,3.88376374 L10.5759066,3.88376374 Z" id="Path" fill="#87BDFF" fill-rule="nonzero"></path>
                        </g>
                        <circle id="Oval" stroke="#378EFC" stroke-width="0.577" cx="15" cy="15" r="14.712"></circle>
                        <path d="M25.385,4.615 L4.615,25.118" id="Path" stroke="#378EFC" stroke-width="0.577" stroke-linecap="round" stroke-linejoin="round"></path>
                    </g>
                </g>
            </g>
        </g>
    </g>
</svg>