<svg xmlns="http://www.w3.org/2000/svg" xmlns:xlink="http://www.w3.org/1999/xlink" width="80" height="60" viewBox="0 0 80 60">
  <defs>
    <rect id="ic_hospicash_b1-a" width="80" height="60" x="0" y="0" rx="3"/>
  </defs>
  <g fill="none" fill-rule="evenodd">
    <mask id="ic_hospicash_b1-b" fill="#fff">
      <use xlink:href="#ic_hospicash_b1-a"/>
    </mask>
    <use fill="#FFF" xlink:href="#ic_hospicash_b1-a"/>
    <g mask="url(#ic_hospicash_b1-b)">
      <g transform="translate(25 14)">
        <path fill="#4F2DA7" fill-rule="nonzero" d="M26.6709414,2.05449791 C24.600251,7.15575314 23.5597908,12.0878033 22.7376778,17.5685774 C19.8988494,17.3569456 18.598682,17.1984728 15.7905439,16.7193515 C16.2906276,11.1991004 16.4486611,6.15922594 15.6456904,0.706694561 C20.4059623,-0.48709205 22.3312343,-0.251736402 26.6709414,2.05449791 Z"/>
        <path fill="#A998D2" fill-rule="nonzero" d="M21.3956485,16.8185146 C19.7349791,16.6408996 18.9269874,16.5420502 17.2719665,16.3145397 C17.3389958,15.6973431 16.9789331,15.1482427 16.4667364,15.0817155 C16.80659,10.7272594 16.9084519,6.7682636 16.6274059,2.42228033 C17.3800418,2.20769874 17.9760251,1.62345188 17.9401883,1.02508368 C20.5746025,0.513263598 21.930251,0.678953975 24.3671548,1.81066946 C24.1909205,2.38311715 24.6313808,3.0940795 25.3113389,3.48376569 C24.0094142,7.63619247 23.1704812,11.5053766 22.4691213,15.8153975 C21.9564854,15.75659 21.4769247,16.2030753 21.3956485,16.8185146 Z"/>
        <g transform="translate(17.573 1.632)">
          <path fill="#4F2DA7" fill-rule="nonzero" d="M2.97997908,4.78606695 C4.57274059,4.98075314 5.58690377,6.4224477 5.34514644,7.63707113 C5.10338912,8.85169456 3.81753138,9.59661088 2.42246862,9.42608787 C1.02753138,9.25556485 -0.0446861925,8.22238494 0.0080334728,6.98466527 C0.0608786611,5.74694561 1.38746862,4.59144351 2.97997908,4.78606695 Z"/>
          <path fill="#3EA69B" fill-rule="nonzero" d="M3.55374477,0.010167364 C3.90608787,0.0532217573 4.15324268,0.342050209 4.10943515,0.630188285 C4.06562762,0.91832636 3.76198745,1.10096234 3.4276569,1.0601046 C3.09345188,1.01924686 2.841841,0.768702929 2.86757322,0.478430962 C2.89317992,0.188033473 3.2015272,-0.0328870293 3.55374477,0.010167364 Z"/>
          <ellipse cx="1.911" cy="13.681" fill="#3EA69B" fill-rule="nonzero" rx="1" ry="1" transform="rotate(-173.142 1.91 13.68)"/>
        </g>
        <path fill="#A998D2" fill-rule="nonzero" d="M22.3865272,9.25631799 C22.2379707,9.21985356 22.1636611,9.2023431 22.0146025,9.16882845 C21.8801674,9.66665272 21.6224686,10.0847071 21.2480335,10.4393724 C21.0996025,10.2443096 21.0247908,10.1469665 20.8730335,9.9534728 C21.1612343,9.67449791 21.3576151,9.37763598 21.4573431,9.05228033 C21.0594351,8.97546025 20.8596025,8.94257322 20.4585565,8.88878661 C20.3115063,9.30589958 20.1532218,9.60552301 19.9818828,9.78841004 C19.8104812,9.97123431 19.5816527,10.0474268 19.2915063,10.0230753 C19.0012343,9.99878661 18.7746025,9.86981172 18.6062134,9.63282427 C18.4380753,9.39589958 18.3559833,9.09866109 18.362636,8.73483264 C18.2580753,8.73320084 18.205795,8.73269874 18.1009833,8.7324477 C18.1095188,8.58947699 18.1135983,8.51799163 18.1215063,8.37508368 C18.2295188,8.37451883 18.2833682,8.37458159 18.3911297,8.37552301 C18.4457322,7.96387029 18.6013808,7.57361925 18.8710042,7.20709205 C19.0629916,7.3565272 19.1575105,7.43366109 19.3435983,7.5916318 C19.1528661,7.83364017 19.0289121,8.10025105 18.9665272,8.38983264 C19.3628661,8.40615063 19.5607531,8.4198954 19.9550209,8.45956067 C19.9557741,8.4526569 19.9560879,8.44920502 19.956841,8.44236402 C20.0994979,8.01420502 20.2661297,7.70610879 20.4561715,7.52146444 C20.6466527,7.33644351 20.9030335,7.26677824 21.2182845,7.32301255 C21.5338494,7.37930962 21.7712762,7.55253138 21.925795,7.82805439 C22.0808787,8.10364017 22.1299582,8.43225941 22.081318,8.81441423 C22.2294979,8.84887029 22.3036192,8.86688285 22.4512971,8.90441423 C22.4250628,9.045 22.4121967,9.11541841 22.3865272,9.25631799 Z M19.0245188,9.15935146 C19.0931799,9.26046025 19.1843724,9.31481172 19.2989749,9.32334728 C19.4133891,9.33188285 19.5075941,9.30119247 19.5820293,9.23127615 C19.6564017,9.16142259 19.7361088,9.02259414 19.8214644,8.81535565 C19.4622176,8.7807113 19.2820293,8.76809623 18.9211505,8.75177824 C18.9210879,8.92274059 18.9556695,9.05824268 19.0245188,9.15935146 Z M21.4496862,8.23820084 C21.385795,8.1174477 21.29159,8.04495816 21.1680753,8.02324268 C21.044749,8.0015272 20.9407531,8.02725941 20.8571548,8.09930962 C20.7735565,8.17186192 20.6853138,8.31753138 20.5933054,8.53638075 C20.9688703,8.58910042 21.1561506,8.62104603 21.5288285,8.69516736 C21.5399372,8.51177824 21.5137657,8.35945607 21.4496862,8.23820084 Z"/>
        <path fill="#4F2DA7" fill-rule="nonzero" d="M29.9493515,6.47786611 C26.5299163,10.6005439 24.1261506,14.9330962 21.7684519,19.868159 C19.165795,18.6429289 17.99159,18.0229707 15.4951883,16.5534728 C17.5620502,11.4646444 19.1689331,6.71115063 19.9934937,1.21738494 C24.8059833,1.79366109 26.544477,2.71236402 29.9493515,6.47786611 Z"/>
        <path fill="#A998D2" fill-rule="nonzero" d="M20.7262343,18.6684728 C19.2193305,17.9003347 18.4896653,17.5147908 17.0025314,16.7010251 C17.2440377,16.1361088 17.0651046,15.4821967 16.6037448,15.2341004 C18.182887,11.2003556 19.4242469,7.4582636 20.4183264,3.20868201 C21.1867155,3.27514644 21.915,2.93228033 22.0545816,2.34828452 C24.6748117,2.80933054 25.8989749,3.45615063 27.8582008,5.41474895 C27.5271339,5.89757322 27.7346862,6.735 28.26,7.35200837 C25.83659,10.8461297 23.9295188,14.2368828 22.023954,18.0979707 C21.5598954,17.8570293 20.9806067,18.1103347 20.7262343,18.6684728 Z"/>
        <g transform="translate(18.891 3.954)">
          <path fill="#4F2DA7" fill-rule="nonzero" d="M4.05458159,4.48355649 C5.49288703,5.24353556 6.02730126,6.98516736 5.44895397,8.05738494 C4.87054393,9.12960251 3.4483682,9.37713389 2.18861925,8.71148536 C0.928995816,8.04589958 0.221799163,6.67330544 0.629560669,5.51089958 C1.03725941,4.34849372 2.6165272,3.72370293 4.05458159,4.48355649 Z"/>
          <path fill="#A998D2" fill-rule="nonzero" d="M2.29168879,5.78972258 L3.20392403,5.78972258 L3.20392403,5.78972258 C3.18278238,5.6342604 3.12358577,5.51241166 3.02210585,5.41997468 C2.89525596,5.31073099 2.72189443,5.25610914 2.50202128,5.25610914 L2.22403551,5.25610914 C2.18021006,5.25610914 2.14468252,5.22058159 2.14468252,5.17675615 C2.14468252,5.16801624 2.14612637,5.15933637 2.14895574,5.15106712 C2.17045293,5.0882386 2.22951266,5.0460251 2.29591712,5.0460251 L3.99776604,5.0460251 C4.04159149,5.0460251 4.07711903,5.08155265 4.07711903,5.1253781 C4.07711903,5.134118 4.07567519,5.14279787 4.07284581,5.15106712 C4.05134862,5.21389564 3.99228889,5.25610914 3.92588444,5.25610914 L3.27580564,5.25610914 L3.27580564,5.25610914 C3.43648217,5.39056292 3.52950543,5.56703351 3.55064708,5.78972258 L3.98930938,5.78972258 C4.03313483,5.78972258 4.06866237,5.82525013 4.06866237,5.86907557 C4.06866237,5.87781548 4.06721853,5.88649535 4.06438915,5.8947646 C4.04289196,5.95759312 3.98383224,5.99980662 3.91742778,5.99980662 L3.54641875,5.99980662 L3.54641875,5.99980662 C3.5252771,6.16787384 3.45339549,6.30652931 3.33500226,6.415773 C3.19123904,6.5460251 3.00942086,6.63005872 2.78109105,6.66787384 C2.83183101,6.70148729 2.90371262,6.78131922 3.00519253,6.915773 L3.74056866,7.86081838 C3.77948539,7.91083098 3.7704904,7.98292245 3.7204778,8.02183918 C3.7003334,8.03751431 3.67553746,8.0460251 3.65001283,8.0460251 C3.50230168,8.0460251 3.36322983,7.97640672 3.27471525,7.85815381 L2.65424116,7.02921838 L2.65424116,7.02921838 C2.57390289,6.91997468 2.49779295,6.84434443 2.43013968,6.79812594 C2.34557308,6.7435041 2.24832149,6.71409233 2.13838492,6.71409233 L2.13838492,6.70292634 C2.13838492,6.57682327 2.24061166,6.47459653 2.36671473,6.47459653 L2.36671473,6.47459653 L2.36671473,6.47459653 C2.6457845,6.47459653 2.85720099,6.41997468 3.0009642,6.31493267 C3.11090078,6.23510073 3.17432572,6.13005872 3.1996957,5.99980662 L2.21980718,5.99980662 C2.17598173,5.99980662 2.14045419,5.96427907 2.14045419,5.92045363 C2.14045419,5.91171372 2.14189804,5.90303385 2.14472741,5.8947646 C2.1662246,5.83193608 2.22528433,5.78972258 2.29168879,5.78972258 Z" transform="rotate(-53 3.109 6.546)"/>
          <path fill="#4F2DA7" fill-rule="nonzero" d="M5.97514644,0.131799163 C6.29334728,0.299937238 6.44165272,0.664707113 6.31719665,0.923912134 C6.19274059,1.18311715 5.8548954,1.24801255 5.55301255,1.0884728 C5.25125523,0.929058577 5.08763598,0.5991841 5.19577406,0.331380753 C5.30384937,0.0634518828 5.65713389,-0.0362761506 5.97514644,0.131799163 Z"/>
          <path fill="#3EA69B" fill-rule="nonzero" d="M0.690125523,12.1065063 C0.90332636,12.2191632 0.980648536,12.5245607 0.863158996,12.7880335 C0.745794979,13.051569 0.4791841,13.1747699 0.267803347,13.0630544 C0.0564853556,12.9514017 -0.0209623431,12.6464435 0.0946443515,12.3819665 C0.210188285,12.1174895 0.476924686,11.9938494 0.690125523,12.1065063 Z"/>
        </g>
        <path fill="#DFD8EF" fill-rule="nonzero" d="M25.0365063,15.0804603 L25.0365063,15.0804603 C25.0365063,13.902364 24.1023013,12.9473849 22.9501255,12.9473849 L22.80841,12.9473849 C20.8154812,12.7616109 19.2378452,12.8286402 18.1328033,12.9473849 L17.8553347,12.9473849 L17.8553347,12.9793305 C16.8456904,13.1042887 16.3026151,13.262887 16.3026151,13.262887 L16.1917782,10.0464854 L14.7288075,10.3558996 C13.8947699,10.5424895 13.1375523,10.9792469 12.5584519,11.6078661 L9.36552301,15.0738703 C8.5710251,15.9363389 7.45186192,16.4270084 6.27916318,16.4270084 L5.87529289,16.4270084 L4.2976569,27.8822385 L8.29430962,27.9172594 C13.9737866,30.1609833 20.8100837,29.3716946 20.8100837,29.3716946 L21.3974059,29.3716946 C22.5497071,29.3716946 23.4837866,28.4166527 23.4837866,27.238682 L23.4837866,27.238682 C23.4837866,26.3804184 22.9867782,25.6424686 22.2720502,25.3040586 L22.4163389,25.3040586 C23.5686402,25.3040586 24.5027197,24.3490167 24.5027197,23.171046 L24.5027197,23.171046 C24.5027197,22.3243933 24.018954,21.5951046 23.3197908,21.2506067 C24.2953556,21.0719247 25.0365063,20.2017992 25.0365063,19.1529916 L25.0365063,19.1529916 C25.0365063,18.1968201 24.4210669,17.387636 23.5729707,17.1167573 C24.4210042,16.8457531 25.0365063,16.0366318 25.0365063,15.0804603 Z"/>
        <rect width="6.696" height="16.253" x=".021" y="14.595" fill="#4F2DA7" fill-rule="nonzero"/>
        <circle cx="3.369" cy="28.284" r="1.175" fill="#A998D2" fill-rule="nonzero"/>
      </g>
    </g>
    <path fill="#4F2DA7" fill-rule="nonzero" d="M67.9745113,23.403866 C76.2245113,23.403866 90.4745113,23.403866 93.4745113,15.153866 C96.4745113,6.90386604 71.5309629,7.38773701 65.7245113,1.5812854 C59.9180597,-4.22516622 50.5558925,-3.59613396 41.7245113,-3.59613396 C32.8931301,-3.59613396 34.5666067,-13.3297199 27.4745113,-11.846134 C20.382416,-10.362548 26.7245113,-2.92821923 24.4745113,1.5812854 C24.4745113,4.38381957 24.4745113,11.6580131 24.4745113,23.403866 C44.2245113,23.403866 58.7245113,23.403866 67.9745113,23.403866 Z" mask="url(#ic_hospicash_b1-b)" opacity=".05" transform="rotate(180 58.862 5.702)"/>
    <path fill="#4F2DA7" fill-rule="nonzero" d="M10.2856144,59.675161 C39.7333474,49.2048559 52.8212288,72.7630423 52.8212288,59.675161 C52.8212288,46.5872797 37.1157711,40.043339 29.2630423,32.1906102 C21.4103136,24.3378814 24.8468778,11.25 12.9031907,11.25 C0.959503549,11.25 6.97679534,18.5865724 -6.07423726,24.3378814 C-19.12527,30.0891903 -19.1621186,70.1454661 10.2856144,59.675161 Z" mask="url(#ic_hospicash_b1-b)" opacity=".05"/>
    <path fill="#4F2DA7" fill-rule="nonzero" d="M59.0356144,45.425161 C88.4833474,34.9548559 101.571229,58.5130423 101.571229,45.425161 C101.571229,32.3372797 85.8657711,25.793339 78.0130423,17.9406102 C70.1603136,10.0878814 73.5968778,-3 61.6531907,-3 C49.7095035,-3 55.7267953,4.33657244 42.6757627,10.0878814 C29.62473,15.8391903 16.5,0.926364402 16.5,17.9406102 C16.5,34.9548559 29.5878814,55.8954661 59.0356144,45.425161 Z" mask="url(#ic_hospicash_b1-b)" opacity=".05" transform="matrix(-1 0 0 1 118.071 0)"/>
    <g mask="url(#ic_hospicash_b1-b)">
      <path fill="#5721AE" fill-rule="nonzero" d="M1.21875,8.71875 L8.78125,8.71875 C9.09375,8.71875 9.375,8.46875 9.375,8.125 L9.375,0.59375 C9.375,0.28125 9.125,0 8.78125,0 L1.21875,0 C0.90625,0 0.625,0.25 0.625,0.59375 L0.625,8.125 C0.65625,8.46875 0.90625,8.71875 1.21875,8.71875 Z M2.71875,3.84375 C2.71875,3.71875 2.8125,3.625 2.9375,3.625 L4.25,3.625 L4.25,2.3125 C4.25,2.1875 4.34375,2.09375 4.46875,2.09375 L5.5,2.09375 C5.625,2.09375 5.71875,2.1875 5.71875,2.3125 L5.71875,3.625 L7.03125,3.625 C7.15625,3.625 7.25,3.71875 7.25,3.84375 L7.25,4.875 C7.25,5 7.15625,5.09375 7.03125,5.09375 L5.75,5.09375 L5.75,6.40625 C5.75,6.53125 5.65625,6.625 5.53125,6.625 L4.5,6.625 C4.375,6.625 4.28125,6.53125 4.28125,6.40625 L4.28125,5.09375 L2.9375,5.09375 C2.8125,5.09375 2.71875,5 2.71875,4.875 L2.71875,3.84375 Z" transform="translate(51 31)"/>
    </g>
    <g fill="#B392DB" fill-rule="nonzero" mask="url(#ic_hospicash_b1-b)">
      <path d="M25.4505528,37.3555779 C24.1557789,41.8512563 20.0112563,45.1528643 15.1042211,45.1528643 C9.16190955,45.1528643 4.32944724,40.320201 4.32944724,34.3796985 C4.32944724,29.9823116 6.98231156,26.1974874 10.7682412,24.5250251 L10.7682412,19.9577889 C4.56824121,21.8252261 0.0381909548,27.580603 0.0381909548,34.3796985 C0.0381909548,42.6861307 6.79668342,49.4447236 15.1041206,49.4447236 C21.158191,49.4447236 26.3763819,45.8466332 28.7690452,40.6840201 L27.0679397,37.341809 C26.5904523,37.3457286 26.0372864,37.3507538 25.4505528,37.3555779 Z" transform="translate(78 -44)"/>
    </g>
    <path fill="#3792FC" fill-rule="nonzero" d="M12.2770509 25.6172581C13.3358744 25.1112028 14.4206495 24.5272927 15.3756668 23.8421716 15.7260128 23.5904415 15.3808571 23.0999571 15.012345 23.2945938 13.9924488 23.8291958 12.995909 24.5195073 12.0876045 25.2227945 11.9007533 25.3629329 12.0357014 25.731445 12.2770509 25.6172581L12.2770509 25.6172581zM16.1967024 4.74397584C16.1759412 4.72580975 16.1577751 4.70764366 16.1370138 4.69207273 15.8749031 4.45850871 15.4441072 4.41439107 15.189782 4.69207273 14.9328616 4.97234954 14.940647 5.35902774 15.189782 5.63930456 15.2079481 5.66006581 15.2261142 5.6782319 15.2416851 5.69899314 15.4752491 5.96369902 15.9605432 5.95591356 16.1967024 5.69899314 16.4302664 5.44207273 16.4769792 4.99311079 16.1967024 4.74397584L16.1967024 4.74397584zM76.5064484 8.82141525C76.5722606 8.39206882 76.5597249 7.98465979 76.7979025 7.60545601 77.2773916 6.85331628 77.9574513 7.04135121 78.6155735 7.37354626 79.2862315 7.71200914 79.9192824 7.91257974 80.6463508 7.59918818 81.7839622 7.10716344 82.3198617 5.38977771 81.232393 4.58122749 80.8813945 4.31797858 80.5335299 4.75045893 80.5805386 5.08265398 80.6463508 5.54333957 80.8751267 6.05416781 80.4802533 6.44904117 79.9506216 6.9786729 79.3301063 6.53365689 78.8004746 6.29547931 78.2301019 6.03849823 77.6221223 5.98208775 77.0360801 6.22026533 76.0238254 6.63080827 75.2873552 8.00346329 76.0927715 8.93110229 76.2055925 9.05959283 76.4782431 9.00004844 76.5064484 8.82141525L76.5064484 8.82141525zM64.7650465 52.2428221C63.7245991 53.2418174 63.3308043 54.7962706 64.3215091 55.9983811 65.2541811 57.1300231 67.0656373 57.3663 68.2304409 56.4667897 71.0491828 54.2905551 68.1102299 50.2821384 65.0717919 51.1111801 64.5080435 51.2645528 64.6489806 52.0687233 65.2044386 52.0977398 66.0915132 52.1474823 67.0449112 52.1806439 67.7537419 52.8065704 68.5164603 53.473949 68.5330411 54.605591 67.9071146 55.3765998 66.2490312 57.4118973 63.3722564 54.4149114 65.113244 52.5910196 65.3370853 52.3630331 64.9971782 52.023126 64.7650465 52.2428221L64.7650465 52.2428221zM3.75726804 45.6141129C4.08196141 46.8211253 4.43841827 48.0140205 4.81252151 49.2069157 4.9007534 49.4927871 5.17250764 49.5845482 5.41955695 49.415143 6.3901078 48.7551684 7.35712937 48.1093109 8.27827036 47.3787508 8.45473415 47.2375798 8.41591212 46.9552377 8.2429776 46.8352424 7.16654848 46.0976237 5.71601612 45.0070775 4.35018637 45 4.00431734 44.9964897 3.76079731 45.487059 4.1137249 45.6882277 4.66429192 46.0058626 5.3242665 46.1187994 5.91365556 46.3623194 6.59127652 46.6446615 7.2653682 46.9764134 7.86534509 47.4034558 7.87946219 47.2058163 7.8935793 47.0081769 7.90416712 46.8105374 6.87714786 47.4422778 5.91012629 48.1516622 4.93604616 48.8575174 5.12662705 48.8963394 5.32073722 48.9351615 5.51131812 48.9739835 5.09486357 47.7952054 4.6678212 46.6270151 4.20548607 45.4658834 4.10666634 45.2223633 3.6902118 45.3564758 3.75726804 45.6141129L3.75726804 45.6141129z" mask="url(#ic_hospicash_b1-b)" opacity=".05"/>
  </g>
</svg>
