<svg xmlns="http://www.w3.org/2000/svg" xmlns:xlink="http://www.w3.org/1999/xlink" width="80" height="60" viewBox="0 0 80 60">
  <defs>
    <rect id="ic_hospicash_b4-a" width="80" height="60" x="0" y="0" rx="3"/>
  </defs>
  <g fill="none" fill-rule="evenodd">
    <mask id="ic_hospicash_b4-b" fill="#fff">
      <use xlink:href="#ic_hospicash_b4-a"/>
    </mask>
    <use fill="#FFF" xlink:href="#ic_hospicash_b4-a"/>
    <path fill="#4F2DA7" fill-rule="nonzero" d="M67.9745113,23.403866 C76.2245113,23.403866 90.4745113,23.403866 93.4745113,15.153866 C96.4745113,6.90386604 71.5309629,7.38773701 65.7245113,1.5812854 C59.9180597,-4.22516622 50.5558925,-3.59613396 41.7245113,-3.59613396 C32.8931301,-3.59613396 34.5666067,-13.3297199 27.4745113,-11.846134 C20.382416,-10.362548 26.7245113,-2.92821923 24.4745113,1.5812854 C24.4745113,4.38381957 24.4745113,11.6580131 24.4745113,23.403866 C44.2245113,23.403866 58.7245113,23.403866 67.9745113,23.403866 Z" mask="url(#ic_hospicash_b4-b)" opacity=".05" transform="rotate(180 58.862 5.702)"/>
    <path fill="#4F2DA7" fill-rule="nonzero" d="M10.2856144,59.675161 C39.7333474,49.2048559 52.8212288,72.7630423 52.8212288,59.675161 C52.8212288,46.5872797 37.1157711,40.043339 29.2630423,32.1906102 C21.4103136,24.3378814 24.8468778,11.25 12.9031907,11.25 C0.959503549,11.25 6.97679534,18.5865724 -6.07423726,24.3378814 C-19.12527,30.0891903 -19.1621186,70.1454661 10.2856144,59.675161 Z" mask="url(#ic_hospicash_b4-b)" opacity=".05"/>
    <path fill="#4F2DA7" fill-rule="nonzero" d="M59.0356144,45.425161 C88.4833474,34.9548559 101.571229,58.5130423 101.571229,45.425161 C101.571229,32.3372797 85.8657711,25.793339 78.0130423,17.9406102 C70.1603136,10.0878814 73.5968778,-3 61.6531907,-3 C49.7095035,-3 55.7267953,4.33657244 42.6757627,10.0878814 C29.62473,15.8391903 16.5,0.926364402 16.5,17.9406102 C16.5,34.9548559 29.5878814,55.8954661 59.0356144,45.425161 Z" mask="url(#ic_hospicash_b4-b)" opacity=".05" transform="matrix(-1 0 0 1 118.071 0)"/>
    <g mask="url(#ic_hospicash_b4-b)">
      <g transform="translate(25 18)">
        <path fill="#5721AE" fill-rule="nonzero" d="M19.21875,8.71875 L26.78125,8.71875 C27.09375,8.71875 27.375,8.46875 27.375,8.125 L27.375,0.59375 C27.375,0.28125 27.125,0 26.78125,0 L19.21875,0 C18.90625,0 18.625,0.25 18.625,0.59375 L18.625,8.125 C18.65625,8.46875 18.90625,8.71875 19.21875,8.71875 Z M20.71875,3.84375 C20.71875,3.71875 20.8125,3.625 20.9375,3.625 L22.25,3.625 L22.25,2.3125 C22.25,2.1875 22.34375,2.09375 22.46875,2.09375 L23.5,2.09375 C23.625,2.09375 23.71875,2.1875 23.71875,2.3125 L23.71875,3.625 L25.03125,3.625 C25.15625,3.625 25.25,3.71875 25.25,3.84375 L25.25,4.875 C25.25,5 25.15625,5.09375 25.03125,5.09375 L23.75,5.09375 L23.75,6.40625 C23.75,6.53125 23.65625,6.625 23.53125,6.625 L22.5,6.625 C22.375,6.625 22.28125,6.53125 22.28125,6.40625 L22.28125,5.09375 L20.9375,5.09375 C20.8125,5.09375 20.71875,5 20.71875,4.875 L20.71875,3.84375 Z"/>
        <circle cx="6.563" cy="7.656" r="2.531" fill="#5721AE" fill-rule="nonzero"/>
        <path fill="#AD95D6" fill-rule="nonzero" d="M28.9375,15.625 L14.15625,15.625 C13.3125,15.625 12.5,15.40625 11.78125,15 L2.875,9.8125 L2.875,8.21875 C2.875,7.46875 2.25,6.84375 1.5,6.84375 L1.5,6.84375 C0.75,6.84375 0.125,7.46875 0.125,8.21875 L0.125,23 C0.125,23.75 0.75,24.375 1.5,24.375 C2.25,24.375 2.875,23.75 2.875,23 L2.875,19.71875 L27.09375,19.71875 L27.09375,23.03125 C27.09375,23.78125 27.71875,24.40625 28.46875,24.40625 C29.21875,24.40625 29.84375,23.78125 29.84375,23.03125 L29.84375,16.53125 C29.84375,16.03125 29.4375,15.625 28.9375,15.625 Z"/>
        <path fill="#5721AE" fill-rule="nonzero" d="M10,12.3125 L12.5625,13.84375 C13.09375,14.15625 13.71875,14.34375 14.34375,14.34375 L27.84375,14.34375 C28.4375,14.34375 28.9375,13.875 28.9375,13.25 C28.9375,12.71875 28.53125,12.25 28,12.1875 L17.25,10.6875 C16.8125,10.625 16.40625,10.53125 16,10.375 L11.71875,8.71875 C11.0625,8.46875 10.3125,8.5625 9.75,9.03125 C8.6875,9.90625 8.78125,11.59375 10,12.3125 Z"/>
      </g>
    </g>
    <g fill="#B392DB" fill-rule="nonzero" mask="url(#ic_hospicash_b4-b)">
      <path d="M25.4505528,37.3555779 C24.1557789,41.8512563 20.0112563,45.1528643 15.1042211,45.1528643 C9.16190955,45.1528643 4.32944724,40.320201 4.32944724,34.3796985 C4.32944724,29.9823116 6.98231156,26.1974874 10.7682412,24.5250251 L10.7682412,19.9577889 C4.56824121,21.8252261 0.0381909548,27.580603 0.0381909548,34.3796985 C0.0381909548,42.6861307 6.79668342,49.4447236 15.1041206,49.4447236 C21.158191,49.4447236 26.3763819,45.8466332 28.7690452,40.6840201 L27.0679397,37.341809 C26.5904523,37.3457286 26.0372864,37.3507538 25.4505528,37.3555779 Z" transform="translate(78 -44)"/>
    </g>
    <path fill="#3792FC" fill-rule="nonzero" d="M12.2770509 25.6172581C13.3358744 25.1112028 14.4206495 24.5272927 15.3756668 23.8421716 15.7260128 23.5904415 15.3808571 23.0999571 15.012345 23.2945938 13.9924488 23.8291958 12.995909 24.5195073 12.0876045 25.2227945 11.9007533 25.3629329 12.0357014 25.731445 12.2770509 25.6172581L12.2770509 25.6172581zM16.1967024 4.74397584C16.1759412 4.72580975 16.1577751 4.70764366 16.1370138 4.69207273 15.8749031 4.45850871 15.4441072 4.41439107 15.189782 4.69207273 14.9328616 4.97234954 14.940647 5.35902774 15.189782 5.63930456 15.2079481 5.66006581 15.2261142 5.6782319 15.2416851 5.69899314 15.4752491 5.96369902 15.9605432 5.95591356 16.1967024 5.69899314 16.4302664 5.44207273 16.4769792 4.99311079 16.1967024 4.74397584L16.1967024 4.74397584zM76.5064484 8.82141525C76.5722606 8.39206882 76.5597249 7.98465979 76.7979025 7.60545601 77.2773916 6.85331628 77.9574513 7.04135121 78.6155735 7.37354626 79.2862315 7.71200914 79.9192824 7.91257974 80.6463508 7.59918818 81.7839622 7.10716344 82.3198617 5.38977771 81.232393 4.58122749 80.8813945 4.31797858 80.5335299 4.75045893 80.5805386 5.08265398 80.6463508 5.54333957 80.8751267 6.05416781 80.4802533 6.44904117 79.9506216 6.9786729 79.3301063 6.53365689 78.8004746 6.29547931 78.2301019 6.03849823 77.6221223 5.98208775 77.0360801 6.22026533 76.0238254 6.63080827 75.2873552 8.00346329 76.0927715 8.93110229 76.2055925 9.05959283 76.4782431 9.00004844 76.5064484 8.82141525L76.5064484 8.82141525zM64.7650465 52.2428221C63.7245991 53.2418174 63.3308043 54.7962706 64.3215091 55.9983811 65.2541811 57.1300231 67.0656373 57.3663 68.2304409 56.4667897 71.0491828 54.2905551 68.1102299 50.2821384 65.0717919 51.1111801 64.5080435 51.2645528 64.6489806 52.0687233 65.2044386 52.0977398 66.0915132 52.1474823 67.0449112 52.1806439 67.7537419 52.8065704 68.5164603 53.473949 68.5330411 54.605591 67.9071146 55.3765998 66.2490312 57.4118973 63.3722564 54.4149114 65.113244 52.5910196 65.3370853 52.3630331 64.9971782 52.023126 64.7650465 52.2428221L64.7650465 52.2428221zM3.75726804 45.6141129C4.08196141 46.8211253 4.43841827 48.0140205 4.81252151 49.2069157 4.9007534 49.4927871 5.17250764 49.5845482 5.41955695 49.415143 6.3901078 48.7551684 7.35712937 48.1093109 8.27827036 47.3787508 8.45473415 47.2375798 8.41591212 46.9552377 8.2429776 46.8352424 7.16654848 46.0976237 5.71601612 45.0070775 4.35018637 45 4.00431734 44.9964897 3.76079731 45.487059 4.1137249 45.6882277 4.66429192 46.0058626 5.3242665 46.1187994 5.91365556 46.3623194 6.59127652 46.6446615 7.2653682 46.9764134 7.86534509 47.4034558 7.87946219 47.2058163 7.8935793 47.0081769 7.90416712 46.8105374 6.87714786 47.4422778 5.91012629 48.1516622 4.93604616 48.8575174 5.12662705 48.8963394 5.32073722 48.9351615 5.51131812 48.9739835 5.09486357 47.7952054 4.6678212 46.6270151 4.20548607 45.4658834 4.10666634 45.2223633 3.6902118 45.3564758 3.75726804 45.6141129L3.75726804 45.6141129z" mask="url(#ic_hospicash_b4-b)" opacity=".05"/>
  </g>
</svg>
