<?xml version="1.0" encoding="UTF-8"?>
<svg width="80px" height="60px" viewBox="0 0 80 60" version="1.1" xmlns="http://www.w3.org/2000/svg" xmlns:xlink="http://www.w3.org/1999/xlink">
    <!-- Generator: Sketch 55.2 (78181) - https://sketchapp.com -->
    <title>Group 12</title>
    <desc>Created with Sketch.</desc>
    <defs>
        <rect id="path-1" x="0" y="0" width="80" height="60" rx="3"></rect>
        <rect id="path-3" x="0" y="0" width="80" height="60" rx="3"></rect>
        <rect id="path-5" x="0" y="0" width="80" height="60" rx="3"></rect>
        <rect id="path-7" x="0" y="0" width="80" height="60" rx="3"></rect>
    </defs>
    <g id="hospicash" stroke="none" stroke-width="1" fill="none" fill-rule="evenodd">
        <g id="Group-12">
            <g id="ic_pa_b4">
                <g id="ic_pa_b4-a-link" fill="#FFFFFF" fill-rule="nonzero">
                    <rect id="ic_pa_b4-a" x="0" y="0" width="80" height="60" rx="3"></rect>
                </g>
                <g id="Clipped">
                    <g id="Path-Clipped">
                        <mask id="mask-2" fill="white">
                            <use xlink:href="#path-1"></use>
                        </mask>
                        <g id="path-1"></g>
                        <path d="M67.9746153,23.404 C76.2246153,23.404 90.4746153,23.404 93.4746153,15.154 C96.4746153,6.9040001 71.5310669,7.38787107 65.7246153,1.58141946 C59.9181637,-4.22503216 50.5559965,-3.5959999 41.7246153,-3.5959999 C32.8932341,-3.5959999 34.5667107,-13.3295859 27.4746153,-11.846 C20.38252,-10.362414 26.7246153,-2.92808517 24.4746153,1.58141946 C24.4746153,4.38395363 24.4746153,11.6581471 24.4746153,23.404 C44.2246153,23.404 58.7246153,23.404 67.9746153,23.404 Z" id="Path" fill="#378FFC" fill-rule="nonzero" opacity="0.05" mask="url(#mask-2)" transform="translate(58.862052, 5.702067) rotate(180.000000) translate(-58.862052, -5.702067) "></path>
                    </g>
                </g>
                <g id="Clipped">
                    <g id="Path-Clipped">
                        <mask id="mask-4" fill="white">
                            <use xlink:href="#path-3"></use>
                        </mask>
                        <g id="path-3"></g>
                        <path d="M10.2856144,59.675161 C39.7333474,49.2048559 52.8212288,72.7630423 52.8212288,59.675161 C52.8212288,46.5872797 37.1157711,40.043339 29.2630423,32.1906102 C21.4103136,24.3378814 24.8468778,11.25 12.9031907,11.25 C0.959503549,11.25 6.97679534,18.5865724 -6.07423726,24.3378814 C-19.12527,30.0891903 -19.1621186,70.1454661 10.2856144,59.675161 Z" id="Path" fill="#378FFC" fill-rule="nonzero" opacity="0.05" mask="url(#mask-4)"></path>
                    </g>
                </g>
                <g id="Clipped">
                    <g id="Path-Clipped">
                        <mask id="mask-6" fill="white">
                            <use xlink:href="#path-5"></use>
                        </mask>
                        <g id="path-5"></g>
                        <path d="M59.0353844,45.425161 C88.4831174,34.9548559 101.570999,58.5130423 101.570999,45.425161 C101.570999,32.3372797 85.8655411,25.793339 78.0128123,17.9406102 C70.1600836,10.0878814 73.5966478,-3 61.6529607,-3 C49.7092735,-3 55.7265653,4.33657244 42.6755327,10.0878814 C29.6245,15.8391903 16.49977,0.926364402 16.49977,17.9406102 C16.49977,34.9548559 29.5876514,55.8954661 59.0353844,45.425161 Z" id="Path" fill="#378FFC" fill-rule="nonzero" opacity="0.05" mask="url(#mask-6)" transform="translate(59.035384, 23.250000) scale(-1, 1) translate(-59.035384, -23.250000) "></path>
                    </g>
                </g>
                <g id="Clipped">
                    <g id="Shape-Clipped">
                        <mask id="mask-8" fill="white">
                            <use xlink:href="#path-7"></use>
                        </mask>
                        <g id="path-7"></g>
                        <path d="M12.2770509,25.6172581 C13.3358744,25.1112028 14.4206495,24.5272927 15.3756668,23.8421716 C15.7260128,23.5904415 15.3808571,23.0999571 15.012345,23.2945938 C13.9924488,23.8291958 12.995909,24.5195073 12.0876045,25.2227945 C11.9007533,25.3629329 12.0357014,25.731445 12.2770509,25.6172581 L12.2770509,25.6172581 Z M16.1967024,4.74397584 C16.1759412,4.72580975 16.1577751,4.70764366 16.1370138,4.69207273 C15.8749031,4.45850871 15.4441072,4.41439107 15.189782,4.69207273 C14.9328616,4.97234954 14.940647,5.35902774 15.189782,5.63930456 C15.2079481,5.66006581 15.2261142,5.6782319 15.2416851,5.69899314 C15.4752491,5.96369902 15.9605432,5.95591356 16.1967024,5.69899314 C16.4302664,5.44207273 16.4769792,4.99311079 16.1967024,4.74397584 L16.1967024,4.74397584 Z M76.5064484,8.82141525 C76.5722606,8.39206882 76.5597249,7.98465979 76.7979025,7.60545601 C77.2773916,6.85331628 77.9574513,7.04135121 78.6155735,7.37354626 C79.2862315,7.71200914 79.9192824,7.91257974 80.6463508,7.59918818 C81.7839622,7.10716344 82.3198617,5.38977771 81.232393,4.58122749 C80.8813945,4.31797858 80.5335299,4.75045893 80.5805386,5.08265398 C80.6463508,5.54333957 80.8751267,6.05416781 80.4802533,6.44904117 C79.9506216,6.9786729 79.3301063,6.53365689 78.8004746,6.29547931 C78.2301019,6.03849823 77.6221223,5.98208775 77.0360801,6.22026533 C76.0238254,6.63080827 75.2873552,8.00346329 76.0927715,8.93110229 C76.2055925,9.05959283 76.4782431,9.00004844 76.5064484,8.82141525 L76.5064484,8.82141525 Z M64.7650465,52.2428221 C63.7245991,53.2418174 63.3308043,54.7962706 64.3215091,55.9983811 C65.2541811,57.1300231 67.0656373,57.3663 68.2304409,56.4667897 C71.0491828,54.2905551 68.1102299,50.2821384 65.0717919,51.1111801 C64.5080435,51.2645528 64.6489806,52.0687233 65.2044386,52.0977398 C66.0915132,52.1474823 67.0449112,52.1806439 67.7537419,52.8065704 C68.5164603,53.473949 68.5330411,54.605591 67.9071146,55.3765998 C66.2490312,57.4118973 63.3722564,54.4149114 65.113244,52.5910196 C65.3370853,52.3630331 64.9971782,52.023126 64.7650465,52.2428221 L64.7650465,52.2428221 Z M3.75726804,45.6141129 C4.08196141,46.8211253 4.43841827,48.0140205 4.81252151,49.2069157 C4.9007534,49.4927871 5.17250764,49.5845482 5.41955695,49.415143 C6.3901078,48.7551684 7.35712937,48.1093109 8.27827036,47.3787508 C8.45473415,47.2375798 8.41591212,46.9552377 8.2429776,46.8352424 C7.16654848,46.0976237 5.71601612,45.0070775 4.35018637,44.9999628 C4.00431734,44.9964897 3.76079731,45.487059 4.1137249,45.6882277 C4.66429192,46.0058626 5.3242665,46.1187994 5.91365556,46.3623194 C6.59127652,46.6446615 7.2653682,46.9764134 7.86534509,47.4034558 C7.87946219,47.2058163 7.8935793,47.0081769 7.90416712,46.8105374 C6.87714786,47.4422778 5.91012629,48.1516622 4.93604616,48.8575174 C5.12662705,48.8963394 5.32073722,48.9351615 5.51131812,48.9739835 C5.09486357,47.7952054 4.6678212,46.6270151 4.20548607,45.4658834 C4.10666634,45.2223633 3.6902118,45.3564758 3.75726804,45.6141129 L3.75726804,45.6141129 Z" id="Shape" fill="#378FFC" fill-rule="nonzero" opacity="0.05" mask="url(#mask-8)"></path>
                    </g>
                </g>
            </g>
            <g id="study" transform="translate(25.000000, 15.000000)" fill-rule="nonzero">
                <path d="M22.59375,13.1893945 L16.7578125,17.6367188 L13.2421875,17.6367188 L7.40625,13.1893945 C8.90044922,11.5370508 11.0273437,10.6054688 13.2421875,10.6054688 L16.7578125,10.6054688 C18.9726562,10.6054688 21.0995508,11.5370508 22.59375,13.1893945 Z" id="Path" fill="#8CC0FF"></path>
                <path d="M22.59375,13.1893945 L16.7578125,17.6367188 L15,17.6367188 L15,10.6054688 L16.7578125,10.6054688 C18.9726562,10.6054688 21.0995508,11.5370508 22.59375,13.1893945 Z" id="Path" fill="#8CC0FF"></path>
                <path d="M28.2421875,13.2421875 L28.2421875,25.546875 C28.2421875,26.0390039 27.8555273,26.4257812 27.3632812,26.4257812 C22.6875586,26.4257812 18.9726562,27.5214258 15.4922461,29.8593164 L15.4394531,29.8593164 C15.4394531,29.8768945 15.421875,29.8945312 15.421875,29.8945312 C15.2811914,29.9647852 15.1406836,30 15,30 C14.8417383,30 14.6835938,29.947207 14.5605469,29.8593164 L14.5077539,29.8593164 C11.0273438,27.5214258 7.31244141,26.4257812 2.63671875,26.4257812 C2.14447266,26.4257812 1.7578125,26.0390039 1.7578125,25.546875 L1.7578125,13.2421875 C1.7578125,12.7499414 2.14447266,12.3632812 2.63671875,12.3632812 C7.47070312,12.3632812 11.3436914,13.4179102 15,15.7206445 C18.6563086,13.4179102 22.5292969,12.3632812 27.3632812,12.3632812 C27.8555273,12.3632812 28.2421875,12.7499414 28.2421875,13.2421875 Z" id="Path" fill="#378FFC"></path>
                <path d="M28.2421875,13.2421875 L28.2421875,25.546875 C28.2421875,26.0390039 27.8555273,26.4257812 27.3632812,26.4257812 C22.6875586,26.4257812 18.9726562,27.5214258 15.4922461,29.8593164 L15.4394531,29.8593164 C15.4394531,29.8768945 15.421875,29.8945312 15.421875,29.8945312 C15.2811914,29.9647852 15.1406836,30 15,30 L15,15.7206445 C18.6563086,13.4179102 22.5292969,12.3632812 27.3632812,12.3632812 C27.8555273,12.3632812 28.2421875,12.7499414 28.2421875,13.2421875 Z" id="Path" fill="#378FFC"></path>
                <path d="M14.8476562,0.36328125 C12.0905134,0.36328125 9.84765625,2.6429021 9.84765625,5.38697793 C9.84765625,8.13105376 12.0905134,10.3632812 14.8476562,10.3632812 C17.6047991,10.3632812 19.8476562,8.13105376 19.8476562,5.38697793 C19.8476562,2.6429021 17.6047991,0.36328125 14.8476562,0.36328125 Z" id="Path" fill="#8CC0FF"></path>
                <path d="M1.7578125,22.9101562 L1.7578125,22.9101562 C0.786972656,22.9101562 0,22.1231836 0,21.1523438 L0,17.6367188 C0,16.6658789 0.786972656,15.8789062 1.7578125,15.8789062 L1.7578125,15.8789062 C2.72865234,15.8789062 3.515625,16.6658789 3.515625,17.6367188 L3.515625,21.1523438 C3.515625,22.1231836 2.72865234,22.9101562 1.7578125,22.9101562 Z" id="Path" fill="#8CC0FF"></path>
                <path d="M28.2421875,22.9101562 L28.2421875,22.9101562 C27.2713477,22.9101562 26.484375,22.1231836 26.484375,21.1523438 L26.484375,17.6367188 C26.484375,16.6658789 27.2713477,15.8789062 28.2421875,15.8789062 L28.2421875,15.8789062 C29.2130273,15.8789062 30,16.6658789 30,17.6367188 L30,21.1523438 C30,22.1231836 29.2130273,22.9101562 28.2421875,22.9101562 Z" id="Path" fill="#8CC0FF"></path>
                <path d="M19.8476562,5.38697793 C19.8476562,8.13105376 17.6047991,10.3632812 14.8476562,10.3632812 L14.8476562,0.36328125 C17.6047991,0.36328125 19.8476562,2.6429021 19.8476562,5.38697793 Z" id="Path" fill="#8CC0FF"></path>
            </g>
        </g>
    </g>
</svg>