<?xml version="1.0" encoding="UTF-8"?>
<svg width="80px" height="60px" viewBox="0 0 80 60" version="1.1" xmlns="http://www.w3.org/2000/svg" xmlns:xlink="http://www.w3.org/1999/xlink">
    <!-- Generator: Sketch 55.2 (78181) - https://sketchapp.com -->
    <title>ic_pa_b5</title>
    <desc>Created with Sketch.</desc>
    <defs>
        <rect id="path-1" x="0" y="0" width="80" height="60" rx="3"></rect>
        <rect id="path-3" x="0" y="0" width="80" height="60" rx="3"></rect>
        <rect id="path-5" x="0" y="0" width="80" height="60" rx="3"></rect>
        <rect id="path-7" x="0" y="0" width="80" height="60" rx="3"></rect>
        <rect id="path-9" x="0" y="0" width="80" height="60" rx="3"></rect>
        <rect id="path-11" x="0" y="0" width="80" height="60" rx="3"></rect>
    </defs>
    <g id="Page-1" stroke="none" stroke-width="1" fill="none" fill-rule="evenodd">
        <g id="ic_pa_b5">
            <g id="ic_pa_b5-a-link" fill="#FFFFFF" fill-rule="nonzero">
                <rect id="ic_pa_b5-a" x="0" y="0" width="80" height="60" rx="3"></rect>
            </g>
            <g id="Clipped">
                <mask id="mask-2" fill="white">
                    <use xlink:href="#path-1"></use>
                </mask>
                <g id="ic_pa_b5-a"></g>
                <g id="Group" mask="url(#mask-2)" fill-rule="nonzero">
                    <g transform="translate(26.000000, 12.000000)">
                        <circle id="Oval" fill="#3790FC" cx="14.849" cy="21.509" r="6.226"></circle>
                        <path d="M14.7997812,36.4706421 L14.7997812,36.7005258 C14.7997812,36.9187679 14.9767014,37.0956881 15.1949435,37.0956881 C15.4131856,37.0956881 15.5901058,36.9187679 15.5901058,36.7005258 L15.5901058,31.6838851 L15.5901058,31.6838851 L18.2057156,31.6838851 L18.2057156,34.2296384 C18.2057156,34.5422524 18.4591393,34.7956762 18.7717533,34.7956762 L20.2104441,34.7956762 C20.5230581,34.7956762 20.7764818,34.5422524 20.7764818,34.2296384 L20.7764818,32.6217525 C20.7764818,32.0212473 21.0150375,31.4453385 21.4396669,31.0207253 L24.2916609,28.1688406 C24.9286051,27.5319208 25.2864386,26.6680576 25.2864386,25.7672999 L25.2864386,10.7678906 C25.2864386,8.39417057 24.1251152,6.17061232 22.1770141,4.81434954 L21.0867168,4.05528747 C19.7722352,3.14014887 18.2089939,2.6495765 16.6073258,2.6495765 L14.147062,2.6495765 L11.6415746,2.6495765 C10.0104677,2.6495765 8.41849622,3.14918083 7.07987125,4.08116419 L6.02678355,4.81434954 C4.07875328,6.17061574 2.91747994,8.39412753 2.91747994,10.7677914 L2.91747994,25.5328686 C2.91747994,26.5837317 3.33493574,27.5915536 4.07801097,28.3346232 L6.51846524,30.7750588 C7.10038167,31.3569707 7.88962705,31.6838851 8.71257802,31.6838851 L9.99785749,31.6838851 L12.6136746,31.6838851 L12.6136746,31.6838851 L12.6136746,36.6791405 C12.6136746,36.9091934 12.8001694,37.0956882 13.0302223,37.0956882 L13.3951204,37.0956882 C13.4236457,37.0956882 13.44677,37.1188125 13.44677,37.1473378 L13.44677,37.1473378 L13.44677,37.1473378 L14.1234656,37.823757 L14.7997812,36.4706421 Z M12.6136746,31.1178474 L9.99785749,31.1178474 L8.82980007,31.1178474 C8.08190514,31.1178474 7.36464169,30.8207489 6.83579792,30.2919095 L4.64404957,28.1001793 C3.90097381,27.3571097 3.48351768,26.3492873 3.48351768,25.2984238 L3.48351768,10.8267797 C3.48351768,8.60137436 4.57225512,6.51674179 6.39860856,5.2451829 L7.33036902,4.59646494 C8.62154426,3.69751225 10.1570882,3.21561424 11.7303807,3.21561424 L14.147062,3.21561424 L16.5185023,3.21561424 C18.0623452,3.21561424 19.5691489,3.68847433 20.8361749,4.57057182 L21.8051718,5.2451829 C23.6316062,6.51673787 24.7204009,8.60142357 24.7204009,10.8268931 L24.7204009,25.5328544 C24.7204009,26.433613 24.3625667,27.297477 23.7256215,27.9343969 L20.376241,31.2836442 L20.376241,31.2836442 C20.2700743,31.3897763 20.2104441,31.5337732 20.2104441,31.6838851 L20.2104441,33.6636007 C20.2104441,33.9762148 19.9570204,34.2296385 19.6444064,34.2296385 L19.3377911,34.2296385 C19.0251771,34.2296385 18.7717534,33.9762148 18.7717534,33.6636007 L18.7717534,31.6838851 L18.7717534,31.6838851 C18.7717534,31.371293 18.5183078,31.1178474 18.2057156,31.1178474 L15.5901059,31.1178474 C15.3451246,31.1178474 15.1413938,31.2753872 15.0625549,31.4931445 L15.04763,29.8112689 L18.286249,29.8112689 C18.8579245,29.8112689 19.4084391,29.5950149 19.8272707,29.2059223 L21.9260548,27.2561613 C22.6177503,26.6135793 23.0107487,25.7120706 23.0107487,24.7679549 L23.0107487,10.5133144 C23.0107528,9.80495501 22.571044,9.17100913 21.9075831,8.92283031 C19.7140449,8.1023 17.3447776,7.69203484 14.7997812,7.69203484 C12.7765182,7.69203484 10.0517936,10.8360929 8.02125105,10.3051485 C7.82431346,10.2536535 7.59692561,10.1885978 7.33908749,10.1099814 C6.44202183,9.83647749 5.49307911,10.341958 5.21955996,11.2390191 C5.17061394,11.3995474 5.14573532,11.5664448 5.14573532,11.7342693 L5.14573532,24.521168 C5.14573532,25.6226549 5.60424879,26.6744311 6.41125066,27.4241119 L7.84061462,28.7519486 C8.57356546,29.4328382 9.53694973,29.8112689 10.5373634,29.8112689 L13.113518,29.8112689 L13.113518,29.8112689 L13.1212913,31.4429114 C13.0302568,31.2521017 12.8391362,31.1178474 12.6136746,31.1178474 Z M12.6846366,25.4479347 L12.6846366,22.5123395 L9.74904134,22.5123395 L9.74904134,19.471925 L12.6846366,19.471925 L12.6846366,16.5363297 L15.7250511,16.5363297 L15.7250511,19.471925 L18.660642,19.471925 L18.660642,22.5123395 L15.7250511,22.5123395 L15.7250511,25.4479347 L12.6846366,25.4479347 Z" id="Shape" fill="#91C3FF" transform="translate(14.101959, 20.236667) rotate(-10.000000) translate(-14.101959, -20.236667) "></path>
                    </g>
                </g>
            </g>
            <g id="Clipped">
                <mask id="mask-4" fill="white">
                    <use xlink:href="#path-3"></use>
                </mask>
                <g id="ic_pa_b5-a"></g>
                <path d="M67.9746152,23.404 C76.2246152,23.404 90.4746152,23.404 93.4746152,15.154 C96.4746152,6.90400007 71.5310668,7.38787104 65.7246152,1.58141943 C59.9181636,-4.22503219 50.5559964,-3.59599993 41.7246152,-3.59599993 C32.893234,-3.59599993 34.5667106,-13.3295859 27.4746152,-11.846 C20.3825199,-10.362414 26.7246152,-2.9280852 24.4746152,1.58141943 C24.4746152,4.3839536 24.4746152,11.6581471 24.4746152,23.404 C44.2246152,23.404 58.7246152,23.404 67.9746152,23.404 Z" id="Path" fill="#3790FC" fill-rule="nonzero" opacity="0.05" mask="url(#mask-4)" transform="translate(58.862052, 5.702067) rotate(180.000000) translate(-58.862052, -5.702067) "></path>
            </g>
            <g id="Clipped">
                <mask id="mask-6" fill="white">
                    <use xlink:href="#path-5"></use>
                </mask>
                <g id="ic_pa_b5-a"></g>
                <path d="M10.2856144,59.675161 C39.7333474,49.2048559 52.8212288,72.7630423 52.8212288,59.675161 C52.8212288,46.5872797 37.1157711,40.043339 29.2630423,32.1906102 C21.4103136,24.3378814 24.8468778,11.25 12.9031907,11.25 C0.959503549,11.25 6.97679534,18.5865724 -6.07423726,24.3378814 C-19.12527,30.0891903 -19.1621186,70.1454661 10.2856144,59.675161 Z" id="Path" fill="#3790FC" fill-rule="nonzero" opacity="0.05" mask="url(#mask-6)"></path>
            </g>
            <g id="Clipped">
                <mask id="mask-8" fill="white">
                    <use xlink:href="#path-7"></use>
                </mask>
                <g id="ic_pa_b5-a"></g>
                <path d="M59.0353854,45.425161 C88.4831184,34.9548559 101.571,58.5130423 101.571,45.425161 C101.571,32.3372797 85.8655421,25.793339 78.0128133,17.9406102 C70.1600846,10.0878814 73.5966488,-3 61.6529617,-3 C49.7092745,-3 55.7265663,4.33657244 42.6755337,10.0878814 C29.624501,15.8391903 16.499771,0.926364402 16.499771,17.9406102 C16.499771,34.9548559 29.5876524,55.8954661 59.0353854,45.425161 Z" id="Path" fill="#3791FC" fill-rule="nonzero" opacity="0.05" mask="url(#mask-8)" transform="translate(59.035385, 23.250000) scale(-1, 1) translate(-59.035385, -23.250000) "></path>
            </g>
            <g id="Clipped">
                <mask id="mask-10" fill="white">
                    <use xlink:href="#path-9"></use>
                </mask>
                <g id="ic_pa_b5-a"></g>
            </g>
            <g id="Clipped">
                <mask id="mask-12" fill="white">
                    <use xlink:href="#path-11"></use>
                </mask>
                <g id="ic_pa_b5-a"></g>
                <path d="M12.2770509,25.6172581 C13.3358744,25.1112028 14.4206495,24.5272927 15.3756668,23.8421716 C15.7260128,23.5904415 15.3808571,23.0999571 15.012345,23.2945938 C13.9924488,23.8291958 12.995909,24.5195073 12.0876045,25.2227945 C11.9007533,25.3629329 12.0357014,25.731445 12.2770509,25.6172581 L12.2770509,25.6172581 Z M16.1967024,4.74397584 C16.1759412,4.72580975 16.1577751,4.70764366 16.1370138,4.69207273 C15.8749031,4.45850871 15.4441072,4.41439107 15.189782,4.69207273 C14.9328616,4.97234954 14.940647,5.35902774 15.189782,5.63930456 C15.2079481,5.66006581 15.2261142,5.6782319 15.2416851,5.69899314 C15.4752491,5.96369902 15.9605432,5.95591356 16.1967024,5.69899314 C16.4302664,5.44207273 16.4769792,4.99311079 16.1967024,4.74397584 L16.1967024,4.74397584 Z M76.5064484,8.82141525 C76.5722606,8.39206882 76.5597249,7.98465979 76.7979025,7.60545601 C77.2773916,6.85331628 77.9574513,7.04135121 78.6155735,7.37354626 C79.2862315,7.71200914 79.9192824,7.91257974 80.6463508,7.59918818 C81.7839622,7.10716344 82.3198617,5.38977771 81.232393,4.58122749 C80.8813945,4.31797858 80.5335299,4.75045893 80.5805386,5.08265398 C80.6463508,5.54333957 80.8751267,6.05416781 80.4802533,6.44904117 C79.9506216,6.9786729 79.3301063,6.53365689 78.8004746,6.29547931 C78.2301019,6.03849823 77.6221223,5.98208775 77.0360801,6.22026533 C76.0238254,6.63080827 75.2873552,8.00346329 76.0927715,8.93110229 C76.2055925,9.05959283 76.4782431,9.00004844 76.5064484,8.82141525 L76.5064484,8.82141525 Z M64.7650465,52.2428221 C63.7245991,53.2418174 63.3308043,54.7962706 64.3215091,55.9983811 C65.2541811,57.1300231 67.0656373,57.3663 68.2304409,56.4667897 C71.0491828,54.2905551 68.1102299,50.2821384 65.0717919,51.1111801 C64.5080435,51.2645528 64.6489806,52.0687233 65.2044386,52.0977398 C66.0915132,52.1474823 67.0449112,52.1806439 67.7537419,52.8065704 C68.5164603,53.473949 68.5330411,54.605591 67.9071146,55.3765998 C66.2490312,57.4118973 63.3722564,54.4149114 65.113244,52.5910196 C65.3370853,52.3630331 64.9971782,52.023126 64.7650465,52.2428221 L64.7650465,52.2428221 Z M3.75726804,45.6141129 C4.08196141,46.8211253 4.43841827,48.0140205 4.81252151,49.2069157 C4.9007534,49.4927871 5.17250764,49.5845482 5.41955695,49.415143 C6.3901078,48.7551684 7.35712937,48.1093109 8.27827036,47.3787508 C8.45473415,47.2375798 8.41591212,46.9552377 8.2429776,46.8352424 C7.16654848,46.0976237 5.71601612,45.0070775 4.35018637,44.9999813 C4.00431734,44.9964897 3.76079731,45.487059 4.1137249,45.6882277 C4.66429192,46.0058626 5.3242665,46.1187994 5.91365556,46.3623194 C6.59127652,46.6446615 7.2653682,46.9764134 7.86534509,47.4034558 C7.87946219,47.2058163 7.8935793,47.0081769 7.90416712,46.8105374 C6.87714786,47.4422778 5.91012629,48.1516622 4.93604616,48.8575174 C5.12662705,48.8963394 5.32073722,48.9351615 5.51131812,48.9739835 C5.09486357,47.7952054 4.6678212,46.6270151 4.20548607,45.4658834 C4.10666634,45.2223633 3.6902118,45.3564758 3.75726804,45.6141129 L3.75726804,45.6141129 Z" id="Shape" fill="#3792FC" fill-rule="nonzero" opacity="0.05" mask="url(#mask-12)"></path>
            </g>
        </g>
    </g>
</svg>