<?xml version="1.0" encoding="UTF-8"?>
<svg width="80px" height="60px" viewBox="0 0 80 60" version="1.1" xmlns="http://www.w3.org/2000/svg" xmlns:xlink="http://www.w3.org/1999/xlink">
    <!-- Generator: Sketch 55.2 (78181) - https://sketchapp.com -->
    <title>Group 5</title>
    <desc>Created with Sketch.</desc>
    <defs>
        <rect id="path-1" x="0" y="0" width="80" height="60" rx="3"></rect>
    </defs>
    <g id="personal_accident_UI" stroke="none" stroke-width="1" fill="none" fill-rule="evenodd">
        <g id="2.1_group_personal_accident" transform="translate(-12.000000, -988.000000)">
            <g id="benefits" transform="translate(12.000000, 542.000000)">
                <g id="list">
                    <g transform="translate(0.000000, 40.000000)">
                        <g id="Group-5" transform="translate(0.000000, 406.000000)">
                            <g id="vehicle_modi">
                                <mask id="mask-2" fill="white">
                                    <use xlink:href="#path-1"></use>
                                </mask>
                                <use id="Rectangle-351" fill="#FFFFFF" xlink:href="#path-1"></use>
                                <path d="M67.9745113,23.403866 C76.2245113,23.403866 90.4745113,23.403866 93.4745113,15.153866 C96.4745113,6.90386604 71.5309629,7.38773701 65.7245113,1.5812854 C59.9180597,-4.22516622 50.5558925,-3.59613396 41.7245113,-3.59613396 C32.8931301,-3.59613396 34.5666067,-13.3297199 27.4745113,-11.846134 C20.382416,-10.362548 26.7245113,-2.92821923 24.4745113,1.5812854 C24.4745113,4.38381957 24.4745113,11.6580131 24.4745113,23.403866 C44.2245113,23.403866 58.7245113,23.403866 67.9745113,23.403866 Z" id="Oval" fill="#4F2DA7" fill-rule="nonzero" opacity="0.05" mask="url(#mask-2)" transform="translate(58.861948, 5.701933) scale(-1, -1) translate(-58.861948, -5.701933) "></path>
                                <path d="M10.2856144,59.675161 C39.7333474,49.2048559 52.8212288,72.7630423 52.8212288,59.675161 C52.8212288,46.5872797 37.1157711,40.043339 29.2630423,32.1906102 C21.4103136,24.3378814 24.8468778,11.25 12.9031907,11.25 C0.959503549,11.25 6.97679534,18.5865724 -6.07423726,24.3378814 C-19.12527,30.0891903 -19.1621186,70.1454661 10.2856144,59.675161 Z" id="Oval" fill="#4F2DA7" fill-rule="nonzero" opacity="0.05" mask="url(#mask-2)"></path>
                                <path d="M59.0356144,45.425161 C88.4833474,34.9548559 101.571229,58.5130423 101.571229,45.425161 C101.571229,32.3372797 85.8657711,25.793339 78.0130423,17.9406102 C70.1603136,10.0878814 73.5968778,-3 61.6531907,-3 C49.7095035,-3 55.7267953,4.33657244 42.6757627,10.0878814 C29.62473,15.8391903 16.5,0.926364402 16.5,17.9406102 C16.5,34.9548559 29.5878814,55.8954661 59.0356144,45.425161 Z" id="Oval" fill="#4F2DA7" fill-rule="nonzero" opacity="0.05" mask="url(#mask-2)" transform="translate(59.035614, 23.250000) scale(-1, 1) translate(-59.035614, -23.250000) "></path>
                                <g id="disabled" mask="url(#mask-2)" fill="#B392DB" fill-rule="nonzero">
                                    <g transform="translate(78.000000, -44.000000)" id="XMLID_30_">
                                        <path d="M25.4505528,37.3555779 C24.1557789,41.8512563 20.0112563,45.1528643 15.1042211,45.1528643 C9.16190955,45.1528643 4.32944724,40.320201 4.32944724,34.3796985 C4.32944724,29.9823116 6.98231156,26.1974874 10.7682412,24.5250251 L10.7682412,19.9577889 C4.56824121,21.8252261 0.0381909548,27.580603 0.0381909548,34.3796985 C0.0381909548,42.6861307 6.79668342,49.4447236 15.1041206,49.4447236 C21.158191,49.4447236 26.3763819,45.8466332 28.7690452,40.6840201 L27.0679397,37.341809 C26.5904523,37.3457286 26.0372864,37.3507538 25.4505528,37.3555779 Z"></path>
                                    </g>
                                </g>
                                <path d="M12.2770509,25.6172581 C13.3358744,25.1112028 14.4206495,24.5272927 15.3756668,23.8421716 C15.7260128,23.5904415 15.3808571,23.0999571 15.012345,23.2945938 C13.9924488,23.8291958 12.995909,24.5195073 12.0876045,25.2227945 C11.9007533,25.3629329 12.0357014,25.731445 12.2770509,25.6172581 L12.2770509,25.6172581 Z" id="Shape" fill="#3792FC" fill-rule="nonzero" opacity="0.05" mask="url(#mask-2)"></path>
                                <path d="M16.1967024,4.74397584 C16.1759412,4.72580975 16.1577751,4.70764366 16.1370138,4.69207273 C15.8749031,4.45850871 15.4441072,4.41439107 15.189782,4.69207273 C14.9328616,4.97234954 14.940647,5.35902774 15.189782,5.63930456 C15.2079481,5.66006581 15.2261142,5.6782319 15.2416851,5.69899314 C15.4752491,5.96369902 15.9605432,5.95591356 16.1967024,5.69899314 C16.4302664,5.44207273 16.4769792,4.99311079 16.1967024,4.74397584 L16.1967024,4.74397584 Z" id="Shape" fill="#3792FC" fill-rule="nonzero" opacity="0.05" mask="url(#mask-2)"></path>
                                <path d="M76.5064484,8.82141525 C76.5722606,8.39206882 76.5597249,7.98465979 76.7979025,7.60545601 C77.2773916,6.85331628 77.9574513,7.04135121 78.6155735,7.37354626 C79.2862315,7.71200914 79.9192824,7.91257974 80.6463508,7.59918818 C81.7839622,7.10716344 82.3198617,5.38977771 81.232393,4.58122749 C80.8813945,4.31797858 80.5335299,4.75045893 80.5805386,5.08265398 C80.6463508,5.54333957 80.8751267,6.05416781 80.4802533,6.44904117 C79.9506216,6.9786729 79.3301063,6.53365689 78.8004746,6.29547931 C78.2301019,6.03849823 77.6221223,5.98208775 77.0360801,6.22026533 C76.0238254,6.63080827 75.2873552,8.00346329 76.0927715,8.93110229 C76.2055925,9.05959283 76.4782431,9.00004844 76.5064484,8.82141525 L76.5064484,8.82141525 Z" id="Shape" fill="#3792FC" fill-rule="nonzero" opacity="0.05" mask="url(#mask-2)"></path>
                                <path d="M64.7650465,52.2428221 C63.7245991,53.2418174 63.3308043,54.7962706 64.3215091,55.9983811 C65.2541811,57.1300231 67.0656373,57.3663 68.2304409,56.4667897 C71.0491828,54.2905551 68.1102299,50.2821384 65.0717919,51.1111801 C64.5080435,51.2645528 64.6489806,52.0687233 65.2044386,52.0977398 C66.0915132,52.1474823 67.0449112,52.1806439 67.7537419,52.8065704 C68.5164603,53.473949 68.5330411,54.605591 67.9071146,55.3765998 C66.2490312,57.4118973 63.3722564,54.4149114 65.113244,52.5910196 C65.3370853,52.3630331 64.9971782,52.023126 64.7650465,52.2428221 L64.7650465,52.2428221 Z" id="Shape" fill="#3792FC" fill-rule="nonzero" opacity="0.05" mask="url(#mask-2)"></path>
                                <path d="M3.75726804,45.6141129 C4.08196141,46.8211253 4.43841827,48.0140205 4.81252151,49.2069157 C4.9007534,49.4927871 5.17250764,49.5845482 5.41955695,49.415143 C6.3901078,48.7551684 7.35712937,48.1093109 8.27827036,47.3787508 C8.45473415,47.2375798 8.41591212,46.9552377 8.2429776,46.8352424 C7.16654848,46.0976237 5.71601612,45.0070775 4.35018637,45 C4.00431734,44.9964897 3.76079731,45.487059 4.1137249,45.6882277 C4.66429192,46.0058626 5.3242665,46.1187994 5.91365556,46.3623194 C6.59127652,46.6446615 7.2653682,46.9764134 7.86534509,47.4034558 C7.87946219,47.2058163 7.8935793,47.0081769 7.90416712,46.8105374 C6.87714786,47.4422778 5.91012629,48.1516622 4.93604616,48.8575174 C5.12662705,48.8963394 5.32073722,48.9351615 5.51131812,48.9739835 C5.09486357,47.7952054 4.6678212,46.6270151 4.20548607,45.4658834 C4.10666634,45.2223633 3.6902118,45.3564758 3.75726804,45.6141129 L3.75726804,45.6141129 Z" id="Shape" fill="#3792FC" fill-rule="nonzero" opacity="0.05" mask="url(#mask-2)"></path>
                            </g>
                            <g id="Group-23" transform="translate(33.000000, 14.000000)" fill-rule="nonzero">
                                <g id="drug-container" transform="translate(7.000000, 16.000000) scale(-1, 1) translate(-7.000000, -16.000000) ">
                                    <path d="M11.2461294,8.73442811 L10.687718,8.73442811 L10.687718,4.94171248 C10.687718,4.42163607 10.2767273,4 9.76978153,4 L4.23015727,4 C3.72321155,4 3.31222079,4.42163607 3.31222079,4.94171248 L3.31222079,8.73442811 L2.75380944,8.73442811 C1.23535891,8.73442811 0,10.0017848 0,11.5595656 L0,14.4790626 L0.673214614,14.839864 L0.673214614,25.7428228 L0,26.25524 L0,27.2218764 L0,31.0582875 C0,31.5783639 0.410990759,32 0.917936479,32 L13.0820635,32 C13.5890092,32 14,31.5783639 14,31.0582875 L14,27.2218764 L14,26.25524 L13.3267854,25.7846976 L13.3267854,15.0177849 L14,14.4791254 L14,11.5596283 C14,10.0017848 12.7645799,8.73442811 11.2461294,8.73442811 L11.2461294,8.73442811 Z" id="Path" fill="#AD8CD7"></path>
                                    <path d="M11.2461906,8.73442811 L10.6877792,8.73442811 L10.6877792,4.94171248 C10.6877792,4.42163607 10.2767884,4 9.76984273,4 L7,4 L7,32 L13.0820635,32 C13.5890092,32 14,31.5783639 14,31.0582875 L14,26.2553655 L13.3267854,25.6796653 L13.3267854,14.9956861 L14,14.4791254 L14,11.5595656 C14,10.0017848 12.7646411,8.73442811 11.2461906,8.73442811 Z" id="Path" fill="#AD8CD7"></path>
                                    <polygon id="Path" fill="#5F09B1" points="6.22222222 16.8 13.2222222 16.8 13.2222222 24 6.22222222 24"></polygon>
                                    <path d="M11.5705181,0 L2.42948187,0 C1.9468415,0 1.55555556,0.447714679 1.55555556,0.999958335 L1.55555556,5.40004166 C1.55555556,5.95228532 1.9468415,6.4 2.42948187,6.4 L11.5705181,6.4 C12.0531585,6.4 12.4444444,5.95228532 12.4444444,5.40004166 L12.4444444,0.999958335 C12.4444444,0.447714679 12.0531585,0 11.5705181,0 Z" id="Path" fill="#5F09B1"></path>
                                </g>
                                <g id="pills" transform="translate(9.000000, 24.000000)">
                                    <path d="M2.61602145,4.79983566 L0.59265911,3.02677933 C-0.197553037,2.33432271 -0.197553037,1.21165301 0.59265911,0.519342466 C1.38287126,-0.173114155 2.66403054,-0.173114155 3.45407599,0.519342466 L8.13652523,4.62253551 C8.15565385,4.63929777 8.31514239,4.78276299 8.33333333,4.8 L2.61602145,4.8 L2.61602145,4.79983566 Z" id="Path" fill="#5F09B1"></path>
                                    <g id="Group" transform="translate(1.666667, 1.600000)" fill="#AD8CD7">
                                        <path d="M0.971882748,2.02241441 C0.93102531,2.02241441 0.890167872,2.00682883 0.859054752,1.97581982 L0.294752066,1.41340541 C-0.0785330579,1.04136937 -0.0785330579,0.435855856 0.294752066,0.0638198198 C0.357159091,0.00162162162 0.458019112,0.00162162162 0.520408058,0.0638198198 C0.582815083,0.125855856 0.582815083,0.226540541 0.520408058,0.288720721 C0.271448864,0.536846847 0.271448864,0.940522523 0.520408058,1.1885045 L1.08471074,1.75091892 C1.14711777,1.81311712 1.14711777,1.91363964 1.08471074,1.97581982 C1.05357955,2.00699099 1.01272211,2.02241441 0.971882748,2.02241441 Z" id="Path"></path>
                                        <polygon id="Rectangle" transform="translate(3.064974, 2.701327) rotate(-45.000000) translate(-3.064974, -2.701327) " points="1.39987866 2.53921781 4.72953508 2.544798 4.73006909 2.86343707 1.40041267 2.85785688"></polygon>
                                    </g>
                                    <path d="M1.89654297,8 L8.1034375,8 C9.15085937,8 10,7.28364726 10,6.4 L10,6.4 C10,5.51635274 9.15085937,4.8 8.10345703,4.8 L1.89654297,4.8 C0.849140625,4.8 0,5.51635274 0,6.4 L0,6.4 C0,7.28364726 0.849140625,8 1.89654297,8 Z" id="Path" fill="#5F09B1"></path>
                                    <g id="Group" transform="translate(0.000000, 4.800000)" fill="#AD8CD7">
                                        <path d="M2.20002262,2.46470204 L1.20142534,2.46470204 C0.540565611,2.46470204 0.00309954751,2.07686531 0.00309954751,1.59995102 C0.00309954751,1.52039184 0.0925791855,1.45582041 0.202828054,1.45582041 C0.313076923,1.45582041 0.402556561,1.52039184 0.402556561,1.59995102 C0.402556561,1.91789388 0.760859729,2.17644082 1.20142534,2.17644082 L2.20002262,2.17644082 C2.31027149,2.17644082 2.39975113,2.24101224 2.39975113,2.32057143 C2.39975113,2.40013061 2.31027149,2.46470204 2.20002262,2.46470204 Z" id="Path"></path>
                                        <rect id="Rectangle" x="4.59660633" y="0.014644898" width="1" height="3.17077551"></rect>
                                    </g>
                                </g>
                            </g>
                        </g>
                    </g>
                </g>
            </g>
        </g>
    </g>
</svg>