<?xml version="1.0" encoding="UTF-8"?>
<svg width="80px" height="60px" viewBox="0 0 80 60" version="1.1" xmlns="http://www.w3.org/2000/svg" xmlns:xlink="http://www.w3.org/1999/xlink">
    <!-- Generator: Sketch 55.2 (78181) - https://sketchapp.com -->
    <title>ic_wallet_b3</title>
    <desc>Created with Sketch.</desc>
    <defs>
        <rect id="path-1" x="0" y="0" width="80" height="60" rx="3"></rect>
        <rect id="path-3" x="0" y="0" width="80" height="60" rx="3"></rect>
        <rect id="path-5" x="0" y="0" width="80" height="60" rx="3"></rect>
        <rect id="path-7" x="0" y="0" width="80" height="60" rx="3"></rect>
        <rect id="path-9" x="0" y="0" width="80" height="60" rx="3"></rect>
    </defs>
    <g id="Page-1" stroke="none" stroke-width="1" fill="none" fill-rule="evenodd">
        <g id="ic_wallet_b3">
            <g id="ic_wallet_b3-a-link" fill="#FFFFFF" fill-rule="nonzero">
                <rect id="ic_wallet_b3-a" x="0" y="0" width="80" height="60" rx="3"></rect>
            </g>
            <g id="Clipped">
                <mask id="mask-2" fill="white">
                    <use xlink:href="#path-1"></use>
                </mask>
                <g id="ic_wallet_b3-a"></g>
                <g id="Group" mask="url(#mask-2)" fill-rule="nonzero">
                    <g transform="translate(20.000000, 19.000000)">
                        <path d="M33.11875,3.115625 C35.5375,3.115625 37.49375,5.078125 37.49375,7.490625 L37.49375,13.128125 L35.61875,13.128125 L35.61875,7.490625 C35.61875,6.115625 34.5,4.990625 33.11875,4.990625 C31.74375,4.990625 30.61875,6.115625 30.61875,7.490625 L30.61875,13.128125 L28.74375,13.128125 L28.74375,7.490625 C28.74375,5.078125 30.70625,3.115625 33.11875,3.115625 Z" id="Path" fill="#83BAFF"></path>
                        <path d="M33.11875,16.253125 C33.811875,16.253125 34.36875,16.81 34.36875,17.503125 C34.36875,18.19125 33.811875,18.753125 33.11875,18.753125 C32.430625,18.753125 31.86875,18.19125 31.86875,17.503125 C31.86875,16.81 32.43125,16.253125 33.11875,16.253125 Z" id="Path" fill="#378CFC"></path>
                        <path d="M33.11875,18.753125 C33.811875,18.753125 34.36875,18.19125 34.36875,17.503125 C34.36875,16.81 33.811875,16.253125 33.11875,16.253125 C32.430625,16.253125 31.86875,16.81 31.86875,17.503125 C31.86875,18.190625 32.43125,18.753125 33.11875,18.753125 Z M39.36875,14.378125 L39.36875,22.503125 C39.36875,23.19125 38.80625,23.753125 38.11875,23.753125 L28.11875,23.753125 C27.430625,23.753125 26.86875,23.19125 26.86875,22.503125 L26.86875,14.378125 C26.86875,13.690625 27.430625,13.128125 28.11875,13.128125 L28.74375,13.128125 L30.61875,13.128125 L35.61875,13.128125 L37.49375,13.128125 L38.11875,13.128125 C38.80625,13.128125 39.36875,13.690625 39.36875,14.378125 Z" id="Shape" fill="#83BAFF"></path>
                        <path d="M24.3625,1.878125 L24.3625,3.128125 L0.63125,3.128125 L0.63125,1.878125 C0.63125,1.190625 1.188125,0.628125 1.88125,0.628125 L23.1125,0.628125 C23.80625,0.628125 24.3625,1.190625 24.3625,1.878125 L24.3625,1.878125 Z M20.61875,18.121875 L20.61875,14.365625 L19.99375,14.365625 L19.99375,12.496875 L19.99375,8.740625 C19.99375,7.703125 19.15625,6.865625 18.11875,6.865625 L6.25,6.865625 C5.2125,6.865625 4.375,7.709375 4.375,8.740625 L4.375,19.996875 L4.36875,19.996875 C4.36875,21.034375 5.2125,21.871875 6.25,21.871875 L18.74375,21.871875 C19.436875,21.871875 19.99375,21.309375 19.99375,20.621875 L19.99375,18.121875 L20.61875,18.121875 Z M24.3625,3.128125 L24.3625,25.621875 L0.63125,25.621875 L0.63125,3.128125 L24.3625,3.128125 Z" id="Shape" fill="#B2D4FF"></path>
                        <path d="M19.99375,8.740625 L19.99375,12.496875 C19.99375,11.459375 19.15625,10.615625 18.11875,10.615625 L6.25,10.615625 C5.2125,10.615625 4.375,9.778125 4.375,8.740625 C4.375,7.709375 5.2125,6.865625 6.25,6.865625 L18.11875,6.865625 C19.15625,6.865625 19.99375,7.703125 19.99375,8.740625 Z" id="Path" fill="#83BAFF"></path>
                        <polygon id="Path" fill="#83BAFF" points="20.619 14.366 20.619 18.122 19.994 18.122 16.869 18.122 15.619 16.241 16.869 14.366 19.994 14.366"></polygon>
                        <path d="M19.99375,12.496875 L19.99375,14.365625 L16.86875,14.365625 L15.61875,16.240625 L16.86875,18.121875 L19.99375,18.121875 L19.99375,20.621875 C19.99375,21.309375 19.436875,21.871875 18.74375,21.871875 L6.25,21.871875 C5.2125,21.871875 4.36875,21.034375 4.36875,19.996875 L4.375,19.996875 L4.375,8.740625 C4.375,9.778125 5.2125,10.615625 6.25,10.615625 L18.11875,10.615625 C19.15625,10.615625 19.99375,11.459375 19.99375,12.496875 Z" id="Path" fill="#83BAFF"></path>
                        <path d="M0.62875,2.5025 C0.283125,2.5025 0.00375,2.223125 0.00375,1.8775 C0.00375,0.84375 0.845,0.0025 1.87875,0.0025 C2.224375,0.0025 2.50375,0.281875 2.50375,0.6275 C2.50375,0.973125 2.224375,1.2525 1.87875,1.2525 C1.53375,1.2525 1.25375,1.5325 1.25375,1.8775 C1.25375,2.223125 0.974375,2.5025 0.62875,2.5025 Z M24.36375,2.5025 C24.018125,2.5025 23.73875,2.223125 23.73875,1.8775 C23.73875,1.5325 23.45875,1.2525 23.11375,1.2525 C22.768125,1.2525 22.48875,0.973125 22.48875,0.6275 C22.48875,0.281875 22.768125,0.0025 23.11375,0.0025 C24.1475,0.0025 24.98875,0.84375 24.98875,1.8775 C24.98875,2.223125 24.709375,2.5025 24.36375,2.5025 Z" id="Shape" fill="#378CFC"></path>
                        <path d="M23.11375,1.2525 L1.87875,1.2525 C1.533125,1.2525 1.25375,0.973125 1.25375,0.6275 C1.25375,0.281875 1.533125,0.0025 1.87875,0.0025 L23.114375,0.0025 C23.46,0.0025 23.739375,0.281875 23.739375,0.6275 C23.739375,0.973125 23.459375,1.2525 23.11375,1.2525 Z M2.5225,2.5025 C2.176875,2.5025 1.894375,2.223125 1.894375,1.8775 C1.894375,1.531875 2.170625,1.2525 2.515625,1.2525 L2.5225,1.2525 C2.8675,1.2525 3.1475,1.531875 3.1475,1.8775 C3.1475,2.223125 2.8675,2.5025 2.5225,2.5025 Z M4.396875,2.5025 C4.05125,2.5025 3.76875,2.223125 3.76875,1.8775 C3.76875,1.531875 4.045,1.2525 4.39,1.2525 L4.396875,1.2525 C4.741875,1.2525 5.021875,1.531875 5.021875,1.8775 C5.021875,2.223125 4.741875,2.5025 4.396875,2.5025 Z M6.27375,2.5025 C5.928125,2.5025 5.645625,2.223125 5.645625,1.8775 C5.645625,1.531875 5.921875,1.2525 6.266875,1.2525 L6.27375,1.2525 C6.61875,1.2525 6.89875,1.531875 6.89875,1.8775 C6.89875,2.223125 6.61875,2.5025 6.27375,2.5025 Z M0.62875,26.2475 C0.283125,26.2475 0.00375,25.968125 0.00375,25.6225 L0.00375,1.8775 C0.00375,1.531875 0.283125,1.2525 0.62875,1.2525 C0.974375,1.2525 1.25375,1.531875 1.25375,1.8775 L1.25375,25.6225 C1.25375,25.968125 0.974375,26.2475 0.62875,26.2475 Z M24.36375,26.2475 C24.018125,26.2475 23.73875,25.968125 23.73875,25.6225 L23.73875,1.8775 C23.73875,1.531875 24.018125,1.2525 24.36375,1.2525 C24.709375,1.2525 24.98875,1.531875 24.98875,1.8775 L24.98875,25.6225 C24.98875,25.968125 24.709375,26.2475 24.36375,26.2475 Z" id="Shape" fill="#378CFC"></path>
                        <path d="M24.36375,3.7525 L0.62875,3.7525 C0.283125,3.7525 0.00375,3.473125 0.00375,3.1275 C0.00375,2.781875 0.283125,2.5025 0.62875,2.5025 L24.364375,2.5025 C24.71,2.5025 24.989375,2.781875 24.989375,3.1275 C24.989375,3.473125 24.709375,3.7525 24.36375,3.7525 Z M24.36375,26.2475 L0.62875,26.2475 C0.283125,26.2475 0.00375,25.968125 0.00375,25.6225 C0.00375,25.276875 0.283125,24.9975 0.62875,24.9975 L24.364375,24.9975 C24.71,24.9975 24.989375,25.276875 24.989375,25.6225 C24.989375,25.968125 24.709375,26.2475 24.36375,26.2475 Z M37.49625,8.116875 C37.150625,8.116875 36.87125,7.8375 36.87125,7.491875 C36.87125,5.42375 35.189375,3.741875 33.12125,3.741875 C31.053125,3.741875 29.37125,5.42375 29.37125,7.491875 C29.37125,7.8375 29.091875,8.116875 28.74625,8.116875 C28.400625,8.116875 28.12125,7.8375 28.12125,7.491875 C28.12125,4.735 30.364375,2.491875 33.12125,2.491875 C35.878125,2.491875 38.12125,4.735 38.12125,7.491875 C38.12125,7.8375 37.841875,8.116875 37.49625,8.116875 Z" id="Shape" fill="#378CFC"></path>
                        <path d="M35.62125,8.116875 C35.275625,8.116875 34.99625,7.8375 34.99625,7.491875 C34.99625,6.458125 34.155,5.616875 33.12125,5.616875 C32.0875,5.616875 31.24625,6.458125 31.24625,7.491875 C31.24625,7.8375 30.966875,8.116875 30.62125,8.116875 C30.275625,8.116875 29.99625,7.8375 29.99625,7.491875 C29.99625,5.76875 31.398125,4.366875 33.12125,4.366875 C34.844375,4.366875 36.24625,5.76875 36.24625,7.491875 C36.24625,7.8375 35.966875,8.116875 35.62125,8.116875 Z" id="Path" fill="#378CFC"></path>
                        <path d="M30.62125,13.75125 C30.275625,13.75125 29.99625,13.471875 29.99625,13.12625 L29.99625,7.491875 C29.99625,7.14625 30.275625,6.866875 30.62125,6.866875 C30.966875,6.866875 31.24625,7.14625 31.24625,7.491875 L31.24625,13.12625 C31.24625,13.471875 30.966875,13.75125 30.62125,13.75125 Z M28.74625,13.75125 C28.400625,13.75125 28.12125,13.471875 28.12125,13.12625 L28.12125,7.491875 C28.12125,7.14625 28.400625,6.866875 28.74625,6.866875 C29.091875,6.866875 29.37125,7.14625 29.37125,7.491875 L29.37125,13.12625 C29.37125,13.471875 29.091875,13.75125 28.74625,13.75125 Z M35.62125,13.75125 C35.275625,13.75125 34.99625,13.471875 34.99625,13.12625 L34.99625,7.491875 C34.99625,7.14625 35.275625,6.866875 35.62125,6.866875 C35.966875,6.866875 36.24625,7.14625 36.24625,7.491875 L36.24625,13.12625 C36.24625,13.471875 35.966875,13.75125 35.62125,13.75125 Z M37.49625,13.75125 C37.150625,13.75125 36.87125,13.471875 36.87125,13.12625 L36.87125,7.491875 C36.87125,7.14625 37.150625,6.866875 37.49625,6.866875 C37.841875,6.866875 38.12125,7.14625 38.12125,7.491875 L38.12125,13.12625 C38.12125,13.471875 37.841875,13.75125 37.49625,13.75125 Z M6.2475,11.241875 C4.86875,11.241875 3.7475,10.120625 3.7475,8.741875 C3.7475,7.363125 4.86875,6.241875 6.2475,6.241875 C6.593125,6.241875 6.8725,6.52125 6.8725,6.866875 C6.8725,7.2125 6.593125,7.491875 6.2475,7.491875 C5.558125,7.491875 4.9975,8.0525 4.9975,8.741875 C4.9975,9.43125 5.558125,9.991875 6.2475,9.991875 C6.593125,9.991875 6.8725,10.27125 6.8725,10.616875 C6.8725,10.9625 6.593125,11.241875 6.2475,11.241875 Z" id="Shape" fill="#378CFC"></path>
                        <path d="M18.11875,7.491875 L6.2475,7.491875 C5.901875,7.491875 5.6225,7.2125 5.6225,6.866875 C5.6225,6.52125 5.901875,6.241875 6.2475,6.241875 L18.11875,6.241875 C18.464375,6.241875 18.74375,6.52125 18.74375,6.866875 C18.74375,7.2125 18.464375,7.491875 18.11875,7.491875 Z M18.11875,11.241875 L6.2475,11.241875 C5.901875,11.241875 5.6225,10.9625 5.6225,10.616875 C5.6225,10.27125 5.901875,9.991875 6.2475,9.991875 L18.11875,9.991875 C18.464375,9.991875 18.74375,10.27125 18.74375,10.616875 C18.74375,10.9625 18.464375,11.241875 18.11875,11.241875 Z" id="Shape" fill="#378CFC"></path>
                        <path d="M19.995625,9.36625 C19.65,9.36625 19.370625,9.086875 19.370625,8.74125 C19.370625,8.05125 18.809375,7.49 18.119375,7.49 C17.77375,7.49 17.494375,7.210625 17.494375,6.865 C17.494375,6.519375 17.77375,6.24 18.119375,6.24 C19.49875,6.24 20.620625,7.361875 20.620625,8.74125 C20.620625,9.086875 20.34125,9.36625 19.995625,9.36625 L19.995625,9.36625 Z M19.995625,13.1175 C19.65,13.1175 19.370625,12.838125 19.370625,12.4925 C19.370625,11.8025 18.809375,11.24125 18.119375,11.24125 C17.77375,11.24125 17.494375,10.961875 17.494375,10.61625 C17.494375,10.270625 17.77375,9.99125 18.119375,9.99125 C19.49875,9.99125 20.620625,11.113125 20.620625,12.4925 C20.620625,12.838125 20.34125,13.1175 19.995625,13.1175 L19.995625,13.1175 Z M18.744375,22.49375 C18.39875,22.49375 18.119375,22.214375 18.119375,21.86875 C18.119375,21.523125 18.39875,21.24375 18.744375,21.24375 C19.09,21.24375 19.370625,20.963125 19.370625,20.6175 C19.370625,20.271875 19.65,19.9925 19.995625,19.9925 C20.34125,19.9925 20.620625,20.271875 20.620625,20.6175 C20.620625,21.6525 19.77875,22.49375 18.744375,22.49375 L18.744375,22.49375 Z M6.2475,22.495 C4.868125,22.495 3.74625,21.373125 3.74625,19.99375 C3.74625,19.648125 4.025625,19.36875 4.37125,19.36875 C4.716875,19.36875 4.99625,19.648125 4.99625,19.99375 C4.99625,20.68375 5.5575,21.245 6.2475,21.245 C6.593125,21.245 6.8725,21.524375 6.8725,21.87 C6.8725,22.215625 6.593125,22.495 6.2475,22.495 Z" id="Shape" fill="#378CFC"></path>
                        <path d="M19.995625,14.991875 C19.65,14.991875 19.370625,14.7125 19.370625,14.366875 L19.370625,8.741875 C19.370625,8.39625 19.65,8.116875 19.995625,8.116875 C20.34125,8.116875 20.620625,8.39625 20.620625,8.741875 L20.620625,14.366875 C20.620625,14.7125 20.34125,14.991875 19.995625,14.991875 L19.995625,14.991875 Z M18.744375,22.49375 L6.248125,22.49375 C5.9025,22.49375 5.623125,22.214375 5.623125,21.86875 C5.623125,21.523125 5.9025,21.24375 6.248125,21.24375 L18.744375,21.24375 C19.09,21.24375 19.369375,21.523125 19.369375,21.86875 C19.369375,22.214375 19.09,22.49375 18.744375,22.49375 Z M4.3725,20.61875 C4.026875,20.61875 3.7475,20.339375 3.7475,19.99375 L3.7475,8.741875 C3.7475,8.39625 4.026875,8.116875 4.3725,8.116875 C4.718125,8.116875 4.9975,8.39625 4.9975,8.741875 L4.9975,19.99375 C4.9975,20.339375 4.718125,20.61875 4.3725,20.61875 Z M17.495625,9.366875 L6.87125,9.366875 C6.525625,9.366875 6.24625,9.0875 6.24625,8.741875 C6.24625,8.39625 6.525625,8.116875 6.87125,8.116875 L17.495625,8.116875 C17.84125,8.116875 18.120625,8.39625 18.120625,8.741875 C18.120625,9.0875 17.84125,9.366875 17.495625,9.366875 Z" id="Shape" fill="#378CFC"></path>
                        <path d="M20.62125,18.7425 L16.87,18.7425 C16.66125,18.7425 16.46625,18.638125 16.35,18.464375 L15.09875,16.58875 C14.95875,16.37875 14.95875,16.105625 15.09875,15.895625 L16.35,14.020625 C16.46625,13.846875 16.66125,13.7425 16.87,13.7425 L20.62125,13.7425 C20.966875,13.7425 21.24625,14.021875 21.24625,14.3675 L21.24625,18.118125 C21.24625,18.463125 20.966875,18.7425 20.62125,18.7425 Z M17.204375,17.4925 L19.99625,17.4925 L19.99625,14.991875 L17.204375,14.991875 L16.37,16.241875 L17.204375,17.4925 Z" id="Shape" fill="#378CFC"></path>
                        <path d="M19.995625,21.2425 C19.65,21.2425 19.370625,20.963125 19.370625,20.6175 L19.370625,18.1175 C19.370625,17.771875 19.65,17.4925 19.995625,17.4925 C20.34125,17.4925 20.620625,17.771875 20.620625,18.1175 L20.620625,20.6175 C20.620625,20.963125 20.34125,21.2425 19.995625,21.2425 L19.995625,21.2425 Z M33.12125,19.374375 C32.0875,19.374375 31.24625,18.533125 31.24625,17.499375 C31.24625,16.465625 32.0875,15.624375 33.12125,15.624375 C34.155,15.624375 34.99625,16.465625 34.99625,17.499375 C34.99625,18.533125 34.155,19.374375 33.12125,19.374375 Z M33.12125,16.874375 C32.77625,16.874375 32.49625,17.154375 32.49625,17.499375 C32.49625,17.844375 32.77625,18.124375 33.12125,18.124375 C33.46625,18.124375 33.74625,17.844375 33.74625,17.499375 C33.74625,17.154375 33.46625,16.874375 33.12125,16.874375 Z" id="Shape" fill="#378DFC"></path>
                        <path d="M33.12125,21.25 C32.775625,21.25 32.49625,20.970625 32.49625,20.625 L32.49625,18.749375 C32.49625,18.40375 32.775625,18.124375 33.12125,18.124375 C33.466875,18.124375 33.74625,18.40375 33.74625,18.749375 L33.74625,20.625 C33.74625,20.970625 33.466875,21.25 33.12125,21.25 Z" id="Path" fill="#378DFC"></path>
                        <path d="M38.12125,24.374375 L28.12125,24.374375 C27.0875,24.374375 26.24625,23.533125 26.24625,22.499375 L26.24625,14.37625 C26.24625,13.3425 27.0875,12.50125 28.12125,12.50125 L38.12125,12.50125 C39.155,12.50125 39.99625,13.3425 39.99625,14.37625 L39.99625,22.499375 C39.99625,23.533125 39.155,24.374375 38.12125,24.374375 Z M28.12125,13.75125 C27.77625,13.75125 27.49625,14.03125 27.49625,14.37625 L27.49625,22.499375 C27.49625,22.844375 27.77625,23.124375 28.12125,23.124375 L38.12125,23.124375 C38.46625,23.124375 38.74625,22.844375 38.74625,22.499375 L38.74625,14.37625 C38.74625,14.03125 38.46625,13.75125 38.12125,13.75125 L28.12125,13.75125 Z M18.1375,16.874375 C17.791875,16.874375 17.509375,16.595 17.509375,16.249375 C17.509375,15.90375 17.785625,15.624375 18.130625,15.624375 L18.1375,15.624375 C18.4825,15.624375 18.7625,15.90375 18.7625,16.249375 C18.7625,16.595 18.481875,16.874375 18.1375,16.874375 Z" id="Shape" fill="#378CFC"></path>
                    </g>
                </g>
            </g>
            <g id="Clipped">
                <mask id="mask-4" fill="white">
                    <use xlink:href="#path-3"></use>
                </mask>
                <g id="ic_wallet_b3-a"></g>
                <path d="M67.9746152,23.404 C76.2246152,23.404 90.4746152,23.404 93.4746152,15.154 C96.4746152,6.90400007 71.5310668,7.38787104 65.7246152,1.58141943 C59.9181636,-4.22503219 50.5559964,-3.59599993 41.7246152,-3.59599993 C32.893234,-3.59599993 34.5667106,-13.3295859 27.4746152,-11.846 C20.3825199,-10.362414 26.7246152,-2.9280852 24.4746152,1.58141943 C24.4746152,4.3839536 24.4746152,11.6581471 24.4746152,23.404 C44.2246152,23.404 58.7246152,23.404 67.9746152,23.404 Z" id="Path" fill="#378CFC" fill-rule="nonzero" opacity="0.05" mask="url(#mask-4)" transform="translate(58.862052, 5.702067) rotate(180.000000) translate(-58.862052, -5.702067) "></path>
            </g>
            <g id="Clipped">
                <mask id="mask-6" fill="white">
                    <use xlink:href="#path-5"></use>
                </mask>
                <g id="ic_wallet_b3-a"></g>
                <path d="M10.2856144,59.675161 C39.7333474,49.2048559 52.8212288,72.7630423 52.8212288,59.675161 C52.8212288,46.5872797 37.1157711,40.043339 29.2630423,32.1906102 C21.4103136,24.3378814 24.8468778,11.25 12.9031907,11.25 C0.959503549,11.25 6.97679534,18.5865724 -6.07423726,24.3378814 C-19.12527,30.0891903 -19.1621186,70.1454661 10.2856144,59.675161 Z" id="Path" fill="#378CFC" fill-rule="nonzero" opacity="0.05" mask="url(#mask-6)"></path>
            </g>
            <g id="Clipped">
                <mask id="mask-8" fill="white">
                    <use xlink:href="#path-7"></use>
                </mask>
                <g id="ic_wallet_b3-a"></g>
                <path d="M59.0353854,45.425161 C88.4831184,34.9548559 101.571,58.5130423 101.571,45.425161 C101.571,32.3372797 85.8655421,25.793339 78.0128133,17.9406102 C70.1600846,10.0878814 73.5966488,-3 61.6529617,-3 C49.7092745,-3 55.7265663,4.33657244 42.6755337,10.0878814 C29.624501,15.8391903 16.499771,0.926364402 16.499771,17.9406102 C16.499771,34.9548559 29.5876524,55.8954661 59.0353854,45.425161 Z" id="Path" fill="#378CFC" fill-rule="nonzero" opacity="0.05" mask="url(#mask-8)" transform="translate(59.035385, 23.250000) scale(-1, 1) translate(-59.035385, -23.250000) "></path>
            </g>
            <g id="Clipped">
                <mask id="mask-10" fill="white">
                    <use xlink:href="#path-9"></use>
                </mask>
                <g id="ic_wallet_b3-a"></g>
                <path d="M12.2770509,25.6172581 C13.3358744,25.1112028 14.4206495,24.5272927 15.3756668,23.8421716 C15.7260128,23.5904415 15.3808571,23.0999571 15.012345,23.2945938 C13.9924488,23.8291958 12.995909,24.5195073 12.0876045,25.2227945 C11.9007533,25.3629329 12.0357014,25.731445 12.2770509,25.6172581 L12.2770509,25.6172581 Z M16.1967024,4.74397584 C16.1759412,4.72580975 16.1577751,4.70764366 16.1370138,4.69207273 C15.8749031,4.45850871 15.4441072,4.41439107 15.189782,4.69207273 C14.9328616,4.97234954 14.940647,5.35902774 15.189782,5.63930456 C15.2079481,5.66006581 15.2261142,5.6782319 15.2416851,5.69899314 C15.4752491,5.96369902 15.9605432,5.95591356 16.1967024,5.69899314 C16.4302664,5.44207273 16.4769792,4.99311079 16.1967024,4.74397584 L16.1967024,4.74397584 Z M76.5064484,8.82141525 C76.5722606,8.39206882 76.5597249,7.98465979 76.7979025,7.60545601 C77.2773916,6.85331628 77.9574513,7.04135121 78.6155735,7.37354626 C79.2862315,7.71200914 79.9192824,7.91257974 80.6463508,7.59918818 C81.7839622,7.10716344 82.3198617,5.38977771 81.232393,4.58122749 C80.8813945,4.31797858 80.5335299,4.75045893 80.5805386,5.08265398 C80.6463508,5.54333957 80.8751267,6.05416781 80.4802533,6.44904117 C79.9506216,6.9786729 79.3301063,6.53365689 78.8004746,6.29547931 C78.2301019,6.03849823 77.6221223,5.98208775 77.0360801,6.22026533 C76.0238254,6.63080827 75.2873552,8.00346329 76.0927715,8.93110229 C76.2055925,9.05959283 76.4782431,9.00004844 76.5064484,8.82141525 L76.5064484,8.82141525 Z M64.7650465,52.2428221 C63.7245991,53.2418174 63.3308043,54.7962706 64.3215091,55.9983811 C65.2541811,57.1300231 67.0656373,57.3663 68.2304409,56.4667897 C71.0491828,54.2905551 68.1102299,50.2821384 65.0717919,51.1111801 C64.5080435,51.2645528 64.6489806,52.0687233 65.2044386,52.0977398 C66.0915132,52.1474823 67.0449112,52.1806439 67.7537419,52.8065704 C68.5164603,53.473949 68.5330411,54.605591 67.9071146,55.3765998 C66.2490312,57.4118973 63.3722564,54.4149114 65.113244,52.5910196 C65.3370853,52.3630331 64.9971782,52.023126 64.7650465,52.2428221 L64.7650465,52.2428221 Z M3.75726804,45.6141129 C4.08196141,46.8211253 4.43841827,48.0140205 4.81252151,49.2069157 C4.9007534,49.4927871 5.17250764,49.5845482 5.41955695,49.415143 C6.3901078,48.7551684 7.35712937,48.1093109 8.27827036,47.3787508 C8.45473415,47.2375798 8.41591212,46.9552377 8.2429776,46.8352424 C7.16654848,46.0976237 5.71601612,45.0070775 4.35018637,44.9999813 C4.00431734,44.9964897 3.76079731,45.487059 4.1137249,45.6882277 C4.66429192,46.0058626 5.3242665,46.1187994 5.91365556,46.3623194 C6.59127652,46.6446615 7.2653682,46.9764134 7.86534509,47.4034558 C7.87946219,47.2058163 7.8935793,47.0081769 7.90416712,46.8105374 C6.87714786,47.4422778 5.91012629,48.1516622 4.93604616,48.8575174 C5.12662705,48.8963394 5.32073722,48.9351615 5.51131812,48.9739835 C5.09486357,47.7952054 4.6678212,46.6270151 4.20548607,45.4658834 C4.10666634,45.2223633 3.6902118,45.3564758 3.75726804,45.6141129 L3.75726804,45.6141129 Z" id="Shape" fill="#3792FC" fill-rule="nonzero" opacity="0.05" mask="url(#mask-10)"></path>
            </g>
        </g>
    </g>
</svg>