<?xml version="1.0" encoding="UTF-8"?>
<svg width="30px" height="30px" viewBox="0 0 30 30" version="1.1" xmlns="http://www.w3.org/2000/svg" xmlns:xlink="http://www.w3.org/1999/xlink">
    <!-- Generator: Sketch 55.2 (78181) - https://sketchapp.com -->
    <title>Insurance</title>
    <desc>Created with Sketch.</desc>
    <g id="Page-1" stroke="none" stroke-width="1" fill="none" fill-rule="evenodd">
        <g id="Insurance" transform="translate(0.000000, 1.000000)" fill-rule="nonzero">
            <path d="M28.4463934,5.87704918 C27.3935462,5.61731143 26.3286264,6.25679075 26.0631148,7.30819672 L24.8931148,12 C24.67254,11.9197935 24.4392781,11.880139 24.2045902,11.8829508 C23.6816775,11.891508 23.1835522,12.1073151 22.8196721,12.4829508 L19.3352459,16.0932787 C18.2092733,17.2608258 17.3736639,18.676813 16.8959016,20.2268852 L16.864918,20.317377 C16.5654013,21.3869579 16.4339959,22.4966032 16.4754098,23.6065574 L16.4754098,25.5737705 C16.2037944,25.5737705 15.9836066,25.7939583 15.9836066,26.0655738 L15.9836066,28.0163934 C15.9836066,28.2880089 16.2037944,28.5081967 16.4754098,28.5081967 L24.3442623,28.5081967 C24.6158777,28.5081967 24.8360656,28.2880089 24.8360656,28.0163934 L24.8360656,26.0655738 C24.8360656,25.7939583 24.6158777,25.5737705 24.3442623,25.5737705 L23.852459,25.5737705 C23.7981896,24.3315727 24.2338842,23.1177387 25.0657377,22.1936066 L25.6834426,21.5508197 C26.4636876,20.7433271 27.0175069,19.7445865 27.2891803,18.655082 L29.8804918,8.26229508 C30.0569016,7.57974334 29.8498834,6.85517992 29.3395082,6.36885246 C29.0911153,6.12803342 28.7827067,5.95820488 28.4463934,5.87704918 Z" id="Path" fill="#378EFC"></path>
            <path d="M28.8287342,7.9986562 L28.8279899,7.99769953 C28.885609,7.77062968 28.8502217,7.52995428 28.7296805,7.32907994 C28.6091393,7.12820561 28.413414,6.98374624 28.1855614,6.92766472 C27.9581233,6.87075274 27.7173908,6.906563 27.5163657,7.02721121 C27.3153406,7.14785942 27.1705048,7.3434537 27.1137472,7.57092822 L25.8333257,12.5378956 C26.4970465,13.3541644 26.4460134,14.5376883 25.714526,15.2937601 L21.9630506,19.1750716 L21.8216471,19.1774743 L21.1144339,18.4938677 L21.1120269,18.352474 L24.8642089,14.4699469 C25.1842691,14.1454021 25.2049355,13.630655 24.9108768,13.2802276 C24.832625,13.1838039 24.7317903,13.1081779 24.6115549,13.0574166 C24.2707937,12.8880374 23.8593984,12.9608364 23.596868,13.2374821 L20.1139669,16.8457912 C19.1024215,17.8952614 18.3523236,19.1682608 17.9234009,20.5648618 L17.8948099,20.6472307 C17.6322716,21.6059835 17.5189851,22.5994565 17.5590164,23.5967213 L17.5590164,25.4737705 L22.7658955,25.4737705 C22.73581,23.9870334 23.2780426,22.543849 24.2844286,21.4422119 L24.9028683,20.7981892 C25.5514102,20.1275357 26.0119153,19.2979272 26.2380505,18.3928648 L28.8287342,7.9986562 Z" id="Path" stroke="#378EFC" stroke-width="0.2" fill="#FFFFFF"></path>
            <path d="M13.5245902,23.6163934 C13.5671677,22.4969067 13.4344164,21.3776475 13.1311475,20.2991803 L13.1114754,20.2436066 C12.6338477,18.6876027 11.7964916,17.2659506 10.6672131,16.0937705 L7.18032787,12.4804918 C6.81633592,12.1055636 6.31839298,11.8904664 5.79590164,11.882459 C5.56115925,11.8772263 5.32754518,11.9164401 5.10737705,11.9980328 L3.93442623,7.3052459 C3.67049782,6.25529937 2.60781442,5.61593101 1.55655738,5.87459016 C1.04836878,5.99903889 0.610829255,6.32108916 0.340964119,6.76932564 C0.0710989829,7.21756212 -0.00878867846,7.75494018 0.119016393,8.26229508 L2.71131148,18.655082 C2.98240074,19.7439578 3.53555099,20.7422065 4.31508197,21.5493443 L4.9352459,22.1945902 C5.76654561,23.1186016 6.20187027,24.332036 6.14754098,25.5737705 L5.6557377,25.5737705 C5.38412225,25.5737705 5.16393443,25.7939583 5.16393443,26.0655738 L5.16393443,28.0163934 C5.16393443,28.2880089 5.38412225,28.5081967 5.6557377,28.5081967 L13.5245902,28.5081967 C13.7962056,28.5081967 14.0163934,28.2880089 14.0163934,28.0163934 L14.0163934,26.0655738 C14.0163934,25.7939583 13.7962056,25.5737705 13.5245902,25.5737705 L13.5245902,23.6163934 Z" id="Path" fill="#378EFC"></path>
            <path d="M7.23410968,25.4737705 L12.4409877,25.4737705 L12.4410651,23.6025213 C12.481572,22.5997144 12.3662933,21.596692 12.1014862,20.6360394 L12.0809216,20.5777445 C11.6534906,19.1787784 10.9021606,17.9003339 9.8880558,16.8463405 L6.40236031,13.2357337 C6.23842312,13.0669258 6.01427635,12.9699545 5.77780126,12.9660248 C5.65779615,12.9625979 5.53871003,12.9879037 5.42300157,13.0430487 C5.29216054,13.0931962 5.17643246,13.1761824 5.08687388,13.2841202 C4.79634362,13.6333305 4.81793297,14.1459341 5.13749507,14.4701932 L8.88700327,18.3515046 L8.88458245,18.4928841 L8.17736934,19.1764907 L8.03596137,19.1740834 L4.28454368,15.2923398 C3.55285132,14.5364849 3.50180753,13.3529348 4.14625334,12.6242091 L2.88481889,7.56863498 C2.76636203,7.0972686 2.28946071,6.81006189 1.81666253,6.92599434 C1.6655893,6.96179015 1.52705923,7.03790558 1.41477917,7.14724305 C1.18486398,7.36469208 1.09127144,7.68990082 1.17063645,7.99712056 L3.76243912,18.3928558 C3.98796684,19.2973522 4.44781011,20.1264686 5.09589387,20.7969603 L5.7165496,21.4431898 L5.71827282,21.4450299 C6.72243651,22.5447641 7.26425884,23.987504 7.23410968,25.4737705 Z" id="Path" stroke="#378EFC" stroke-width="0.2" fill="#FFFFFF"></path>
            <path d="M21.3934467,8.67934426 L21.3934467,0.491803279 C21.3934467,0.220187828 21.1732548,0 20.9016393,0 L9.09836066,0 C8.82674521,0 8.60655327,0.220187828 8.60655327,0.491803279 L8.60655327,8.67934426 C8.60498228,10.4886669 9.50973215,12.1785181 11.0163934,13.1803279 L14.7280328,15.6545902 C14.8932968,15.7648522 15.1086704,15.7648522 15.2739344,15.6545902 L18.9836066,13.1803279 C20.4902678,12.1785181 21.3950177,10.4886669 21.3934467,8.67934426 L21.3934467,8.67934426 Z" id="Path" stroke="#35CB5D" stroke-width="1.2" fill="#FFFFFF"></path>
            <path d="M11.5,6.125 L13.25,6.125 C13.7332492,6.125 14.125,5.73324916 14.125,5.25 L14.125,3.5 L15.875,3.5 L15.875,5.25 C15.875,5.73324916 16.2667508,6.125 16.75,6.125 L18.5,6.125 L18.5,7.875 L16.75,7.875 C16.2667508,7.875 15.875,8.26675084 15.875,8.75 L15.875,10.5 L14.125,10.5 L14.125,8.75 C14.125,8.26675084 13.7332492,7.875 13.25,7.875 L11.5,7.875 L11.5,6.125 Z" id="Path" fill="#35CB5D"></path>
        </g>
    </g>
</svg>