<?xml version="1.0" encoding="UTF-8"?>
<svg version="1.1" viewBox="0 0 17 17" xmlns="http://www.w3.org/2000/svg">
<title>restart_nav_icn</title>
<desc>Created with Sketch.</desc>
<g fill="none" fill-rule="evenodd">
<g transform="translate(-222 -88)" fill="#fff" stroke="#fff" stroke-width=".2">
<g transform="translate(223 89)">
<path d="m7.0664 0.012931c-3.6305 0.21475-6.5904 3.0627-7.0148 6.7492-0.42439 3.6866 1.8081 7.157 5.291 8.2249 0.15888 0.048542 0.32623-0.043534 0.3738-0.20566 0.047569-0.16212-0.042662-0.3329-0.20154-0.38144-3.2078-0.98359-5.2577-4.1704-4.8668-7.566 0.39091-3.3956 3.1085-6.0121 6.4523-6.2099 3.3438-0.19785 6.3407 2.0807 7.1132 5.4075 0.77248 3.3268-0.90345 6.7346-3.9785 8.0898-0.10014 0.042196-0.17021 0.13621-0.18331 0.24595s0.032786 0.21817 0.12006 0.28368c0.087277 0.065502 0.20238 0.077901 0.30114 0.032439 3.3387-1.4714 5.1628-5.1811 4.3242-8.793-0.83866-3.6118-4.1003-6.0922-7.7308-5.8775h6.8e-7z" fill-rule="nonzero"/>
<path d="m10.328 11c-0.18358 0.0028742-0.33028 0.15364-0.32814 0.33722v3.3282c2.07e-5 0.18409 0.14925 0.33332 0.33335 0.33334h3.3282c0.12028 0.001806 0.23221-0.061331 0.29288-0.16521 0.06067-0.10388 0.06067-0.23239 0-0.33626-0.060669-0.10388-0.1726-0.16702-0.29288-0.16521h-2.9949v-2.9949c0.0010482-0.089986-0.034328-0.17657-0.098087-0.24008-0.063759-0.063508-0.15049-0.098543-0.24047-0.09714z"/>
</g>
</g>
</g>
</svg>
