<?xml version="1.0" encoding="UTF-8"?>
<svg width="296px" height="260px" viewBox="0 0 296 260" version="1.1" xmlns="http://www.w3.org/2000/svg" xmlns:xlink="http://www.w3.org/1999/xlink">
    <!-- Generator: Sketch 50.2 (55047) - http://www.bohemiancoding.com/sketch -->
    <title>undraw_report_mx0a</title>
    <desc>Created with Sketch.</desc>
    <defs>
        <linearGradient x1="49.9963627%" y1="100.004109%" x2="49.9963627%" y2="7.92274891e-06%" id="linearGradient-1">
            <stop stop-color="#808080" stop-opacity="0.25" offset="0%"></stop>
            <stop stop-color="#808080" stop-opacity="0.12" offset="54%"></stop>
            <stop stop-color="#808080" stop-opacity="0.1" offset="100%"></stop>
        </linearGradient>
        <linearGradient x1="49.9850541%" y1="99.9893978%" x2="49.9850541%" y2="0.00591134653%" id="linearGradient-2">
            <stop stop-color="#808080" stop-opacity="0.25" offset="0%"></stop>
            <stop stop-color="#808080" stop-opacity="0.12" offset="54%"></stop>
            <stop stop-color="#808080" stop-opacity="0.1" offset="100%"></stop>
        </linearGradient>
    </defs>
    <g id="Page-1" stroke="none" stroke-width="1" fill="none" fill-rule="evenodd">
        <g id="Risk-profiler(home)" transform="translate(-32.000000, -125.000000)" fill-rule="nonzero">
            <g id="undraw_report_mx0a" transform="translate(32.000000, 125.000000)">
                <path d="M64.1886179,0.2018893 C54.6706569,-0.195319134 44.7282758,-0.474606314 36.1221332,4.14914811 C27.5159906,8.77290253 20.8621801,19.9754216 23.7482362,30.2749122 C24.6901748,33.6325647 26.5247645,36.5588737 28.0718439,39.6155167 C35.8072409,54.901835 36.1659443,74.6598514 28.9946152,90.2968303 C23.4744168,102.334108 14.1180092,111.494727 7.38205285,122.709659 C0.646096521,133.924591 -3.18189818,149.468474 3.44453041,160.767192 C7.98171726,168.503447 16.4016627,172.267618 24.5587415,173.179956 C32.7158203,174.092294 40.9194485,172.655516 49.1121238,172.286237 C65.0544308,171.591987 80.9287571,174.99422 95.5464114,182.23817 C115.669396,192.236651 133.0049,209.341439 154.193043,215.941926 C156.736824,216.73324 159.395611,217.372497 161.996894,216.835645 C166.610751,215.882965 169.965038,211.560221 173.576715,208.146711 C185.107249,197.325884 201.070918,195.305707 216.037884,194.80299 C231.00485,194.300273 246.593387,194.688172 260.122801,187.404983 C271.935369,181.046545 281.02891,169.217181 286.68328,155.854841 C292.33765,142.492501 294.793809,127.643733 295.719319,112.857028 C296.266957,104.056379 296.24779,94.9702358 293.468523,86.731264 C290.344245,77.4682392 284.008065,70.0919544 277.362469,63.6435238 C270.41841,56.9033932 262.850042,50.7963135 254.276758,47.1593738 C244.035914,42.8149065 232.918848,42.1942684 222.015361,41.164009 C199.656533,39.0477388 177.471794,35.0102574 155.6525,29.0863901 C134.943541,23.4758209 112.205581,17.3470189 93.3449037,5.91796691 C83.8789683,0.180166963 74.8593585,0.636336024 64.1886179,0.2018893 Z" id="Shape" fill="#008EFF" opacity="0.1"></path>
                <g id="Group" opacity="0.1" transform="translate(189.690141, 142.118644)" fill="#008EFF">
                    <path d="M5.0655585,53.8806692 C5.0655585,53.8806692 6.01535072,38.4892948 13.5063673,30.0971021 C16.6688043,26.6005718 18.764575,22.0117728 19.4787896,17.0201734 C19.8012602,14.6472793 19.9359692,12.2453303 19.8812439,9.84415059" id="Shape"></path>
                    <path d="M24.5738614,4.52340736 C24.0238405,6.22356322 19.7712397,10.0023768 19.7712397,10.0023768 C19.7712397,10.0023768 18.6980282,3.92462985 19.2534151,2.22447399 C19.8024206,0.525589216 21.4384998,-0.336995233 22.9077004,0.297837667 C24.376901,0.932670567 25.1228667,2.82452253 24.5738614,4.52340736 Z" id="Shape"></path>
                    <path d="M25.931474,15.8381307 C24.6704504,16.9177917 19.3258569,17.4172901 19.3258569,17.4172901 C19.3258569,17.4172901 21.284468,11.6435856 22.5454916,10.5608221 C23.8058094,9.53889889 25.5406832,9.86332208 26.4582016,11.2925029 C27.37572,12.7216838 27.142172,14.7358141 25.931474,15.8350282 L25.931474,15.8381307 Z" id="Shape"></path>
                    <path d="M20.541269,31.8375901 C18.9797462,32.0361485 14.1476112,29.3556108 14.1476112,29.3556108 C14.1476112,29.3556108 18.3599665,25.5147477 19.9188063,25.3223943 C21.4234274,25.2269132 22.7303652,26.5075204 22.8958335,28.2394442 C23.0613017,29.9713679 22.0276298,31.5509816 20.541269,31.8375901 Z" id="Shape"></path>
                    <path d="M14.1046827,42.8823982 C12.5968205,43.3818966 7.44003905,41.6755357 7.44003905,41.6755357 C7.44003905,41.6755357 11.0299317,37.0683616 12.5377939,36.5688632 C13.5235468,36.2062866 14.6018233,36.4918303 15.3528695,37.3143372 C16.1039156,38.1368441 16.4090516,39.3663424 16.1494936,40.5242102 C15.8899355,41.6820779 15.1066985,42.5853498 14.1046827,42.8823982 Z" id="Shape"></path>
                    <path d="M13.6324697,15.3324274 C14.3032269,16.9705338 18.8160814,20.3181034 18.8160814,20.3181034 C18.8160814,20.3181034 19.4385441,14.1596922 18.7651039,12.5184833 C18.0667998,10.9346758 16.4057041,10.2804263 15.0165174,11.0420418 C13.6273308,11.8036573 13.0140234,13.7048382 13.6324697,15.3324274 Z" id="Shape"></path>
                    <path d="M6.2460912,28.3597165 C7.31930275,29.690678 12.4841333,31.3256819 12.4841333,31.3256819 C12.4841333,31.3256819 11.4833635,25.2324226 10.4182011,23.8983587 C9.35140265,22.5737523 7.55904324,22.4963671 6.40979136,23.7252954 C5.26053948,24.9542237 5.18734099,27.026504 6.2460912,28.3597165 Z" id="Shape"></path>
                    <path d="M0.571485149,42.1595217 C1.42468833,43.6797341 6.28633663,46.3013248 6.28633663,46.3013248 C6.28633663,46.3013248 6.18974759,40.0963764 5.33386139,38.5792665 C4.45946348,37.1162809 2.7371174,36.7233513 1.44771654,37.692696 C0.158315682,38.6620407 -0.230031578,40.6417455 0.571485149,42.1595217 Z" id="Shape"></path>
                    <path d="M24.5738614,4.52340736 C24.0238405,6.22356322 19.7712397,10.0023768 19.7712397,10.0023768 C19.7712397,10.0023768 18.6980282,3.92462985 19.2534151,2.22447399 C19.8024206,0.525589216 21.4384998,-0.336995233 22.9077004,0.297837667 C24.376901,0.932670567 25.1228667,2.82452253 24.5738614,4.52340736 Z" id="Shape"></path>
                    <path d="M25.931474,15.8381307 C24.6704504,16.9177917 19.3258569,17.4172901 19.3258569,17.4172901 C19.3258569,17.4172901 21.284468,11.6435856 22.5454916,10.5608221 C23.8058094,9.53889889 25.5406832,9.86332208 26.4582016,11.2925029 C27.37572,12.7216838 27.142172,14.7358141 25.931474,15.8350282 L25.931474,15.8381307 Z" id="Shape"></path>
                    <path d="M20.541269,31.8375901 C18.9797462,32.0361485 14.1476112,29.3556108 14.1476112,29.3556108 C14.1476112,29.3556108 18.3599665,25.5147477 19.9188063,25.3223943 C21.4234274,25.2269132 22.7303652,26.5075204 22.8958335,28.2394442 C23.0613017,29.9713679 22.0276298,31.5509816 20.541269,31.8375901 Z" id="Shape"></path>
                    <path d="M14.1046827,42.8823982 C12.5968205,43.3818966 7.44003905,41.6755357 7.44003905,41.6755357 C7.44003905,41.6755357 11.0299317,37.0683616 12.5377939,36.5688632 C13.5235468,36.2062866 14.6018233,36.4918303 15.3528695,37.3143372 C16.1039156,38.1368441 16.4090516,39.3663424 16.1494936,40.5242102 C15.8899355,41.6820779 15.1066985,42.5853498 14.1046827,42.8823982 Z" id="Shape"></path>
                    <path d="M13.6324697,15.3324274 C14.3032269,16.9705338 18.8160814,20.3181034 18.8160814,20.3181034 C18.8160814,20.3181034 19.4385441,14.1596922 18.7651039,12.5184833 C18.0667998,10.9346758 16.4057041,10.2804263 15.0165174,11.0420418 C13.6273308,11.8036573 13.0140234,13.7048382 13.6324697,15.3324274 Z" id="Shape"></path>
                    <path d="M6.2460912,28.3597165 C7.31930275,29.690678 12.4841333,31.3256819 12.4841333,31.3256819 C12.4841333,31.3256819 11.4833635,25.2324226 10.4182011,23.8983587 C9.35140265,22.5737523 7.55904324,22.4963671 6.40979136,23.7252954 C5.26053948,24.9542237 5.18734099,27.026504 6.2460912,28.3597165 Z" id="Shape"></path>
                    <path d="M0.571485149,42.1595217 C1.42468833,43.6797341 6.28633663,46.3013248 6.28633663,46.3013248 C6.28633663,46.3013248 6.18974759,40.0963764 5.33386139,38.5792665 C4.45946348,37.1162809 2.7371174,36.7233513 1.44771654,37.692696 C0.158315682,38.6620407 -0.230031578,40.6417455 0.571485149,42.1595217 Z" id="Shape"></path>
                </g>
                <g id="Group" opacity="0.1" transform="translate(193.859155, 82.627119)" fill="#008EFF">
                    <path d="M5.01189792,53.9489236 C5.01189792,53.9489236 5.96169014,38.5575492 13.4527067,30.1653565 C16.6140485,26.6678699 18.7096139,22.0795205 19.425129,17.0884278 C19.7501691,14.7158638 19.8848935,12.3136412 19.8275833,9.91240503" id="Shape"></path>
                    <path d="M24.5202008,4.5916618 C23.983595,6.28871518 19.7202622,10.0675287 19.7202622,10.0675287 C19.7202622,10.0675287 18.6470506,3.9897818 19.1997546,2.29272842 C19.74876,0.593843562 21.3848392,-0.268740967 22.8540399,0.366091954 C24.3232405,1.00092488 25.0692062,2.89277693 24.5202008,4.5916618 Z" id="Shape"></path>
                    <path d="M25.8858625,15.9032827 C24.627522,16.9860462 19.2802454,17.482442 19.2802454,17.482442 C19.2802454,17.482442 21.2388565,11.7118401 22.4998801,10.6290766 C23.3127017,9.89110141 24.4079463,9.72163618 25.3599637,10.1865409 C26.3119812,10.6514457 26.9706346,11.6774032 27.0799484,12.8656906 C27.1892623,14.0539781 26.7319973,15.217198 25.8858625,15.9032827 Z" id="Shape"></path>
                    <path d="M20.4876084,31.9058445 C18.9287687,32.1044029 14.0966337,29.4238652 14.0966337,29.4238652 C14.0966337,29.4238652 18.308989,25.5861046 19.8678288,25.3906487 C20.8870958,25.2391744 21.8976614,25.7359212 22.5106048,26.6897139 C23.1235482,27.6435067 23.2433314,28.9056801 22.8238554,29.9904812 C22.4043794,31.0752823 21.5110269,31.8136258 20.4876084,31.9213569 L20.4876084,31.9058445 Z" id="Shape"></path>
                    <path d="M14.0510222,42.9506526 C12.5431599,43.450151 7.38637847,41.7437902 7.38637847,41.7437902 C7.38637847,41.7437902 10.9789541,37.136616 12.4841333,36.6340152 C13.9844231,36.1612588 15.5346615,37.1708733 15.9627252,38.8994968 C16.3907888,40.6281202 15.5376405,42.4335225 14.0483391,42.9506526 L14.0510222,42.9506526 Z" id="Shape"></path>
                    <path d="M13.5788091,15.3975794 C14.2495663,17.0387882 18.7651039,20.3863579 18.7651039,20.3863579 C18.7651039,20.3863579 19.3848836,14.2248441 18.7141263,12.5867378 C18.2923241,11.5023655 17.3967707,10.7661298 16.3724829,10.6616691 C15.348195,10.5572084 14.3550247,11.1008251 13.775596,12.0830881 C13.1961673,13.0653511 13.1209069,14.3329666 13.5788091,15.3975794 Z" id="Shape"></path>
                    <path d="M6.19243062,28.4248685 C7.26564217,29.7589324 12.4331558,31.3908338 12.4331558,31.3908338 C12.4331558,31.3908338 11.429703,25.2975745 10.3645405,23.9666131 C9.29013915,22.689327 7.53108134,22.6351305 6.39938299,23.8444467 C5.26768464,25.053763 5.17587462,27.0857697 6.19243062,28.4248685 Z" id="Shape"></path>
                    <path d="M0.517824571,42.2277762 C1.37371078,43.7479885 6.23267606,46.3695792 6.23267606,46.3695792 C6.23267606,46.3695792 6.13608702,40.1646308 5.28020081,38.6475209 C4.7411859,37.6268261 3.76510083,37.0254297 2.73181594,37.0773818 C1.69853105,37.1293338 0.771272468,37.8264275 0.310908369,38.8973696 C-0.149455729,39.9683118 -0.0702024659,41.2439276 0.517824571,42.2277762 Z" id="Shape"></path>
                    <path d="M24.5202008,4.5916618 C23.983595,6.28871518 19.7202622,10.0675287 19.7202622,10.0675287 C19.7202622,10.0675287 18.6470506,3.9897818 19.1997546,2.29272842 C19.74876,0.593843562 21.3848392,-0.268740967 22.8540399,0.366091954 C24.3232405,1.00092488 25.0692062,2.89277693 24.5202008,4.5916618 Z" id="Shape"></path>
                    <path d="M25.8858625,15.9032827 C24.627522,16.9860462 19.2802454,17.482442 19.2802454,17.482442 C19.2802454,17.482442 21.2388565,11.7118401 22.4998801,10.6290766 C23.3127017,9.89110141 24.4079463,9.72163618 25.3599637,10.1865409 C26.3119812,10.6514457 26.9706346,11.6774032 27.0799484,12.8656906 C27.1892623,14.0539781 26.7319973,15.217198 25.8858625,15.9032827 Z" id="Shape"></path>
                    <path d="M20.4876084,31.9058445 C18.9287687,32.1044029 14.0966337,29.4238652 14.0966337,29.4238652 C14.0966337,29.4238652 18.308989,25.5861046 19.8678288,25.3906487 C20.8870958,25.2391744 21.8976614,25.7359212 22.5106048,26.6897139 C23.1235482,27.6435067 23.2433314,28.9056801 22.8238554,29.9904812 C22.4043794,31.0752823 21.5110269,31.8136258 20.4876084,31.9213569 L20.4876084,31.9058445 Z" id="Shape"></path>
                    <path d="M14.0510222,42.9506526 C12.5431599,43.450151 7.38637847,41.7437902 7.38637847,41.7437902 C7.38637847,41.7437902 10.9789541,37.136616 12.4841333,36.6340152 C13.9844231,36.1612588 15.5346615,37.1708733 15.9627252,38.8994968 C16.3907888,40.6281202 15.5376405,42.4335225 14.0483391,42.9506526 L14.0510222,42.9506526 Z" id="Shape"></path>
                    <path d="M13.5788091,15.3975794 C14.2495663,17.0387882 18.7651039,20.3863579 18.7651039,20.3863579 C18.7651039,20.3863579 19.3848836,14.2248441 18.7141263,12.5867378 C18.2923241,11.5023655 17.3967707,10.7661298 16.3724829,10.6616691 C15.348195,10.5572084 14.3550247,11.1008251 13.775596,12.0830881 C13.1961673,13.0653511 13.1209069,14.3329666 13.5788091,15.3975794 Z" id="Shape"></path>
                    <path d="M6.19243062,28.4248685 C7.26564217,29.7589324 12.4331558,31.3908338 12.4331558,31.3908338 C12.4331558,31.3908338 11.429703,25.2975745 10.3645405,23.9666131 C9.29013915,22.689327 7.53108134,22.6351305 6.39938299,23.8444467 C5.26768464,25.053763 5.17587462,27.0857697 6.19243062,28.4248685 Z" id="Shape"></path>
                    <path d="M0.517824571,42.2277762 C1.37371078,43.7479885 6.23267606,46.3695792 6.23267606,46.3695792 C6.23267606,46.3695792 6.13608702,40.1646308 5.28020081,38.6475209 C4.7411859,37.6268261 3.76510083,37.0254297 2.73181594,37.0773818 C1.69853105,37.1293338 0.771272468,37.8264275 0.310908369,38.8973696 C-0.149455729,39.9683118 -0.0702024659,41.2439276 0.517824571,42.2277762 Z" id="Shape"></path>
                </g>
                <g id="Group" opacity="0.1" transform="translate(18.760563, 113.474576)" fill="#008EFF">
                    <path d="M35.2141107,42.9323426 C35.2141107,42.9323426 23.4815679,35.1186501 20.286778,23.7387712 C18.978309,18.9523478 16.3137055,14.77022 12.6940015,11.821816 C10.96561,10.4348059 9.12648322,9.22870096 7.19995196,8.21880145" id="Shape"></path>
                    <path d="M5.1534185,1.04960048 C6.25222841,2.3662046 7.27686865,8.39373487 7.27686865,8.39373487 C7.27686865,8.39373487 1.97785784,6.78250605 0.887289005,5.46590194 C-0.151332047,4.14238417 -0.0581378542,2.13566443 1.09750737,0.939339355 C2.2531526,-0.256985722 4.05122272,-0.208104661 5.1534185,1.04960048 Z" id="Shape"></path>
                    <path d="M14.7267999,4.71092615 C15.0015023,6.47867433 12.9357397,12.1624758 12.9357397,12.1624758 C12.9357397,12.1624758 9.27120865,7.59272397 8.99650617,5.82497579 C8.78961651,4.66746586 9.16071739,3.47563075 9.96595534,2.71147319 C10.7711933,1.94731562 11.8839689,1.73097641 12.8729259,2.14631725 C13.861883,2.56165808 14.5715378,3.54337909 14.7267999,4.71092615 Z" id="Shape"></path>
                    <path d="M24.9017797,17.318408 C24.3523747,19.000224 19.9873523,22.7413438 19.9873523,22.7413438 C19.9873523,22.7413438 18.8885424,16.7291586 19.4516825,15.0504116 C19.7932228,13.9307035 20.6523391,13.1067383 21.694737,12.8991324 C22.7371349,12.6915265 23.7981809,13.1330688 24.4650068,14.0519489 C25.1318327,14.9708289 25.2991219,16.2219212 24.9017797,17.318408 Z" id="Shape"></path>
                    <path d="M30.6732787,28.8057022 C30.3766001,30.5703814 26.6516345,35.0940981 26.6516345,35.0940981 C26.6516345,35.0940981 24.6600415,29.3765375 24.9594672,27.6149274 C25.1523157,26.4746186 25.8750382,25.5358724 26.8553922,25.1523054 C27.8357462,24.7687384 28.9247926,24.9986235 29.7122981,25.7553653 C30.4998036,26.5121071 30.8661273,27.6807385 30.6732787,28.8210472 L30.6732787,28.8057022 Z" id="Shape"></path>
                    <path d="M8.66686319,17.0360593 C10.2711257,17.0790254 14.9987553,13.9670521 14.9987553,13.9670521 C14.9987553,13.9670521 10.4112239,10.5911441 8.80421443,10.548178 C7.21987426,10.5411928 5.92185535,11.9519282 5.88444603,13.7214913 C5.8470367,15.4910545 7.08399443,16.9686795 8.66686319,17.0452663 L8.66686319,17.0360593 Z" id="Shape"></path>
                    <path d="M15.5701365,30.3770339 C17.1139644,29.8798547 20.7894836,25.3193099 20.7894836,25.3193099 C20.7894836,25.3193099 15.5097019,23.6344249 13.965874,24.1316041 C12.4580103,24.6590093 11.6026365,26.4346407 12.0391684,28.1311641 C12.4757003,29.8276876 14.0445167,30.8247565 15.5728835,30.3770339 L15.5701365,30.3770339 Z" id="Shape"></path>
                    <path d="M23.8716454,42.3124031 C25.4704138,42.1159867 29.7804957,38.3226937 29.7804957,38.3226937 C29.7804957,38.3226937 24.8358511,35.6649334 23.2343356,35.8674879 C22.1593032,35.9333999 21.2049641,36.6578665 20.7542124,37.7502217 C20.3034607,38.842577 20.4301577,40.1238245 21.0834709,41.0799103 C21.7367841,42.035996 22.8096597,42.5102531 23.8716454,42.3124031 Z" id="Shape"></path>
                    <path d="M5.1534185,1.04960048 C6.25222841,2.3662046 7.27686865,8.39373487 7.27686865,8.39373487 C7.27686865,8.39373487 1.97785784,6.78250605 0.887289005,5.46590194 C-0.151332047,4.14238417 -0.0581378542,2.13566443 1.09750737,0.939339355 C2.2531526,-0.256985722 4.05122272,-0.208104661 5.1534185,1.04960048 Z" id="Shape"></path>
                    <path d="M14.7267999,4.71092615 C15.0015023,6.47867433 12.9357397,12.1624758 12.9357397,12.1624758 C12.9357397,12.1624758 9.27120865,7.59272397 8.99650617,5.82497579 C8.78961651,4.66746586 9.16071739,3.47563075 9.96595534,2.71147319 C10.7711933,1.94731562 11.8839689,1.73097641 12.8729259,2.14631725 C13.861883,2.56165808 14.5715378,3.54337909 14.7267999,4.71092615 Z" id="Shape"></path>
                    <path d="M24.9017797,17.318408 C24.3523747,19.000224 19.9873523,22.7413438 19.9873523,22.7413438 C19.9873523,22.7413438 18.8885424,16.7291586 19.4516825,15.0504116 C19.7932228,13.9307035 20.6523391,13.1067383 21.694737,12.8991324 C22.7371349,12.6915265 23.7981809,13.1330688 24.4650068,14.0519489 C25.1318327,14.9708289 25.2991219,16.2219212 24.9017797,17.318408 Z" id="Shape"></path>
                    <path d="M30.6732787,28.8057022 C30.3766001,30.5703814 26.6516345,35.0940981 26.6516345,35.0940981 C26.6516345,35.0940981 24.6600415,29.3765375 24.9594672,27.6149274 C25.1523157,26.4746186 25.8750382,25.5358724 26.8553922,25.1523054 C27.8357462,24.7687384 28.9247926,24.9986235 29.7122981,25.7553653 C30.4998036,26.5121071 30.8661273,27.6807385 30.6732787,28.8210472 L30.6732787,28.8057022 Z" id="Shape"></path>
                    <path d="M8.66686319,17.0360593 C10.2711257,17.0790254 14.9987553,13.9670521 14.9987553,13.9670521 C14.9987553,13.9670521 10.4112239,10.5911441 8.80421443,10.548178 C7.21987426,10.5411928 5.92185535,11.9519282 5.88444603,13.7214913 C5.8470367,15.4910545 7.08399443,16.9686795 8.66686319,17.0452663 L8.66686319,17.0360593 Z" id="Shape"></path>
                    <path d="M15.5701365,30.3770339 C17.1139644,29.8798547 20.7894836,25.3193099 20.7894836,25.3193099 C20.7894836,25.3193099 15.5097019,23.6344249 13.965874,24.1316041 C12.4580103,24.6590093 11.6026365,26.4346407 12.0391684,28.1311641 C12.4757003,29.8276876 14.0445167,30.8247565 15.5728835,30.3770339 L15.5701365,30.3770339 Z" id="Shape"></path>
                    <path d="M23.8716454,42.3124031 C25.4704138,42.1159867 29.7804957,38.3226937 29.7804957,38.3226937 C29.7804957,38.3226937 24.8358511,35.6649334 23.2343356,35.8674879 C22.1593032,35.9333999 21.2049641,36.6578665 20.7542124,37.7502217 C20.3034607,38.842577 20.4301577,40.1238245 21.0834709,41.0799103 C21.7367841,42.035996 22.8096597,42.5102531 23.8716454,42.3124031 Z" id="Shape"></path>
                </g>
                <path d="M195.943662,250.738693 C203.755394,254.546317 213.286741,252.229428 222.151464,252.497699 C223.362269,252.534282 224.64926,252.647078 225.620624,253.305562 C226.591989,253.964046 227.07359,255.027986 227.740213,255.942548 C230.224404,259.33862 235.315226,260.429996 239.763913,259.853822 C244.2126,259.277649 248.291244,257.369264 252.489608,255.91816 C259.746274,253.406164 268.039607,252.259913 275.19832,255.003598 C275.85406,255.253578 276.558775,255.543189 277.249886,255.442588 C278.819851,255.220044 279.287848,253.397018 280.384374,252.357467 C282.365197,250.476519 286.669676,250.988673 287.540367,248.510211 C288.049177,247.059107 286.876465,245.57142 285.597637,244.580645 C280.7,240.788264 273.707262,240.163313 267.304961,240.748633 C260.902661,241.333952 254.609196,242.946629 248.174245,242.952726 C240.155724,242.952726 232.409294,240.477313 224.469679,239.46215 C218.970721,238.760986 212.968394,238.852442 207.81227,240.916302 C202.223522,243.147832 200.99367,248.174872 195.943662,250.738693 Z" id="Shape" fill="#008EFF" opacity="0.1"></path>
                <path d="M47.943662,237.642257 C61.4351948,241.849007 77.9003715,239.287988 93.2091312,239.586127 C95.3044488,239.627867 97.5236683,239.750104 99.2059799,240.480546 C100.888291,241.210988 101.714304,242.38864 102.867967,243.396352 C107.157724,247.149929 115.949247,248.357395 123.631161,247.719376 C131.313075,247.081357 138.361712,244.97351 145.614099,243.369519 C158.147458,240.593839 172.476016,239.329727 184.838666,242.355844 C185.973056,242.633114 187.16802,242.952124 188.385012,242.841812 C191.094332,242.594356 191.90107,240.581914 193.798145,239.431095 C197.220589,237.344117 204.651946,237.919527 206.155288,235.182605 C207.036367,233.578614 205.009884,231.932883 202.801678,230.838711 C194.354327,226.649849 182.267015,225.958165 171.206711,226.605128 C160.146408,227.252091 149.276087,229.031985 138.166223,229.040929 C124.316751,229.040929 110.935353,226.306989 97.2207972,225.183002 C87.7216567,224.407839 77.3552035,224.503244 68.4480385,226.792956 C58.7919557,229.264534 56.6635976,234.818875 47.943662,237.642257 Z" id="Shape" fill="#008EFF" opacity="0.1"></path>
                <path d="M12.5070423,249.263895 C16.4219118,251.865422 21.175682,250.283496 25.61067,250.465788 C26.2174748,250.490506 26.860632,250.567748 27.3471943,251.015755 C27.8337567,251.463761 28.0742415,252.19602 28.4070054,252.820139 C29.6485784,255.140504 32.1932436,255.888211 34.4163303,255.49273 C36.6394169,255.097248 38.6807418,253.796484 40.7807897,252.801601 C44.4160257,251.086818 48.5573985,250.305124 52.1339115,252.183661 C52.4403983,252.40016 52.799459,252.507967 53.1629629,252.492631 C53.9459368,252.338146 54.180829,251.092997 54.7289107,250.382366 C55.7188135,249.097051 57.8719917,249.455456 58.3054237,247.753031 C58.5598903,246.761238 57.9726598,245.744726 57.3350953,245.068082 C54.8910982,242.475824 51.3900862,242.049445 48.1882822,242.448017 C44.9864781,242.846588 41.8406008,243.927983 38.6220187,243.927983 C34.6148701,243.927983 30.7419455,242.237917 26.7711492,241.542734 C24.0195552,241.060741 21.0190873,241.122535 18.440866,242.537618 C15.6473269,244.082468 15.0321331,247.518214 12.5070423,249.263895 Z" id="Shape" fill="#008EFF" opacity="0.1"></path>
                <path d="M190.564037,12.118662 L63.7458221,12.118662 C60.6651138,12.1128755 57.7086088,13.5039763 55.5268914,15.9858501 C53.3451739,18.467724 52.117016,21.8370038 52.1126761,25.3522734 L52.1126761,225.84351 C52.1262301,233.160123 57.3336894,239.079831 63.7458221,239.067778 L190.564037,239.067778 C193.644745,239.073565 196.60125,237.682464 198.782968,235.20059 C200.964685,232.718716 202.192843,229.349436 202.197183,225.834167 L202.197183,25.3522734 C202.192843,21.8370038 200.964685,18.467724 198.782968,15.9858501 C196.60125,13.5039763 193.644745,12.1128755 190.564037,12.118662 Z" id="Shape" fill="url(#linearGradient-1)"></path>
                <rect id="Rectangle-path" fill="#535461" x="54.1971831" y="14.3220339" width="145.915493" height="222.542373" rx="20"></rect>
                <rect id="Rectangle-path" fill="#F6F7F9" x="60.4507042" y="35.2542373" width="131.323944" height="179.576271"></rect>
                <ellipse id="Oval" fill="#F6F7F9" cx="127.15493" cy="23.1355932" rx="2.08450704" ry="2.20338983"></ellipse>
                <circle id="Oval" fill="#F6F7F9" cx="125.901408" cy="222.033898" r="5"></circle>
                <g id="Group" opacity="0.2" transform="translate(60.450704, 35.254237)" fill="#008EFF">
                    <rect id="Rectangle-path" x="0.0163135334" y="0.290847458" width="131.100992" height="9.52855932"></rect>
                </g>
                <ellipse id="Oval" fill="#F6F7F9" cx="64.6197183" cy="39.6610169" rx="2.08450704" ry="2.20338983"></ellipse>
                <ellipse id="Oval" fill="#F6F7F9" cx="68.7887324" cy="39.6610169" rx="2.08450704" ry="2.20338983"></ellipse>
                <ellipse id="Oval" fill="#F6F7F9" cx="72.9577465" cy="39.6610169" rx="2.08450704" ry="2.20338983"></ellipse>
                <rect id="Rectangle-path" fill="#DCE0ED" x="64.6197183" y="87.0338983" width="122.985915" height="1.10169492"></rect>
                <rect id="Rectangle-path" fill="#DCE0ED" x="64.6197183" y="99.1525424" width="122.985915" height="1.10169492"></rect>
                <rect id="Rectangle-path" fill="#DCE0ED" x="64.6197183" y="109.067797" width="122.985915" height="1.10169492"></rect>
                <rect id="Rectangle-path" fill="#DCE0ED" x="64.6197183" y="120.084746" width="122.985915" height="1.10169492"></rect>
                <rect id="Rectangle-path" fill="#DCE0ED" x="64.6197183" y="130" width="122.985915" height="1.10169492"></rect>
                <g id="Group" opacity="0.2" transform="translate(64.619718, 94.745763)" fill="#F1B350">
                    <polygon id="Shape" points="0.248153399 37.3827119 0.248153399 16.0006497 11.4914113 22.3434746 23.1273514 24.1508051 33.3370913 20.6266667 45.6547716 9.69216102 51.8504257 5.59679379 56.3799069 4.59792373 60.7130471 4.86324859 67.8385947 8.89306497 77.5274851 15.9569492 85.1302508 17.074435 91.1568333 14.6958757 103.93537 2.71879944 110.458259 0.0561864407 117.283841 1.26419492 122.841387 4.93816384 122.841387 37.3827119"></polygon>
                </g>
                <path d="M86.0307859,117.8803 C74.9687197,117.8803 64.7481246,110.48194 64.6197183,110.386323 L64.9257078,109.890311 C65.0841666,110.006844 80.8153045,121.388246 94.18322,115.687087 C99.0571953,113.595467 102.526897,110.374371 105.884586,107.245905 C109.389804,103.979989 112.698316,100.896343 117.211661,99.5577061 C122.386161,98.0248472 128.041503,99.4112927 132.339016,103.274814 C136.013621,106.576586 143.330049,111.87735 151.059015,110.293695 C154.99863,109.483939 158.318069,106.337544 161.834216,103.005892 C168.574181,96.6174856 175.54637,90.0109533 187.605634,99.4889815 L187.285984,99.9730422 C175.576422,90.7699127 168.77362,97.2210674 162.192114,103.457084 C158.618594,106.842521 155.244514,110.030748 151.160101,110.879348 C143.209838,112.510812 135.740417,107.102479 131.992045,103.734971 C127.831135,99.9969464 122.361573,98.6553214 117.353727,100.134396 C112.960592,101.437176 109.70399,104.47899 106.23702,107.700085 C102.846547,110.86142 99.3413284,114.127336 94.3826596,116.24286 C91.7164438,117.353599 88.8837543,117.908966 86.0307859,117.8803 Z" id="Shape" fill="#008EFF"></path>
                <ellipse id="Oval" fill="#008EFF" cx="124.028169" cy="98.6016949" rx="3.12676056" ry="3.8559322"></ellipse>
                <g id="Group" opacity="0.2" transform="translate(125.070423, 51.779661)" fill="#FF9600">
                    <path d="M38.9774065,0.107966102 L0.628227295,0.107966102 C0.284283987,0.107966102 0.00546284604,0.422854102 0.00546284604,0.811288136 L0.00546284604,30.1009492 C0.00579229919,30.3891086 0.161730811,30.6478896 0.398966347,30.7539708 C0.636201882,30.8600521 0.90673483,30.7919702 1.08164352,30.5821695 L7.72719573,22.5772542 C7.84454691,22.4354516 8.00874923,22.3550186 8.18061195,22.3551525 L38.9774065,22.3551525 C39.3213498,22.3551525 39.600171,22.0402645 39.600171,21.6518305 L39.600171,0.805118644 C39.5971725,0.419096099 39.3192277,0.107951249 38.9774065,0.107966102 Z" id="Shape"></path>
                </g>
                <rect id="Rectangle-path" fill="#F6F7F9" x="133.408451" y="58.3898305" width="20.8450704" height="2.20338983"></rect>
                <rect id="Rectangle-path" fill="#F6F7F9" x="133.408451" y="66.1016949" width="6.25352113" height="2.20338983"></rect>
                <g id="Group" opacity="0.2" transform="translate(75.042254, 153.135593)" fill="#008EFF">
                    <rect id="Rectangle-path" x="0.103319045" y="0.0640986133" width="5.96803429" height="2.00308166"></rect>
                </g>
                <g id="Group" opacity="0.2" transform="translate(75.042254, 158.644068)" fill="#008EFF">
                    <rect id="Rectangle-path" x="0.103319045" y="0.130200308" width="5.96803429" height="2.00308166"></rect>
                </g>
                <g id="Group" opacity="0.2" transform="translate(75.042254, 165.254237)" fill="#008EFF">
                    <rect id="Rectangle-path" x="0.103319045" y="0.196302003" width="5.96803429" height="2.00308166"></rect>
                </g>
                <g id="Group" opacity="0.2" transform="translate(75.042254, 172.966102)" fill="#008EFF">
                    <rect id="Rectangle-path" x="0.103319045" y="0.0640986133" width="5.96803429" height="2.00308166"></rect>
                </g>
                <g id="Group" opacity="0.2" transform="translate(75.042254, 177.372881)" fill="#008EFF">
                    <rect id="Rectangle-path" x="0.103319045" y="0.130200308" width="5.96803429" height="2.00308166"></rect>
                </g>
                <g id="Group" opacity="0.2" transform="translate(75.042254, 183.983051)" fill="#008EFF">
                    <rect id="Rectangle-path" x="0.103319045" y="0.196302003" width="5.96803429" height="2.00308166"></rect>
                </g>
                <g id="Group" opacity="0.2" transform="translate(75.042254, 188.389831)" fill="#008EFF">
                    <rect id="Rectangle-path" x="0.103319045" y="0.0640986133" width="5.96803429" height="2.00308166"></rect>
                </g>
                <g id="Group" opacity="0.2" transform="translate(75.042254, 196.101695)" fill="#008EFF">
                    <rect id="Rectangle-path" x="0.103319045" y="0.130200308" width="5.96803429" height="2.00308166"></rect>
                </g>
                <g id="Group" opacity="0.2" transform="translate(85.464789, 198.305085)" fill="#008EFF">
                    <rect id="Rectangle-path" x="0.193043478" y="0.130200308" width="5.96803429" height="2.00308166"></rect>
                </g>
                <g id="Group" opacity="0.2" transform="translate(95.887324, 198.305085)" fill="#008EFF">
                    <rect id="Rectangle-path" x="0.103319045" y="0.130200308" width="5.96803429" height="2.00308166"></rect>
                </g>
                <g id="Group" opacity="0.2" transform="translate(108.394366, 198.305085)" fill="#008EFF">
                    <rect id="Rectangle-path" x="0.014212548" y="0.130200308" width="6.23930858" height="2.00308166"></rect>
                </g>
                <g id="Group" opacity="0.2" transform="translate(118.816901, 198.305085)" fill="#008EFF">
                    <rect id="Rectangle-path" x="0.193043478" y="0.130200308" width="5.96803429" height="2.00308166"></rect>
                </g>
                <g id="Group" opacity="0.2" transform="translate(129.239437, 198.305085)" fill="#008EFF">
                    <rect id="Rectangle-path" x="0.103319045" y="0.130200308" width="5.96803429" height="2.00308166"></rect>
                </g>
                <g id="Group" opacity="0.2" transform="translate(139.661972, 198.305085)" fill="#008EFF">
                    <rect id="Rectangle-path" x="0.014212548" y="0.130200308" width="6.23930858" height="2.00308166"></rect>
                </g>
                <g id="Group" opacity="0.2" transform="translate(150.084507, 198.305085)" fill="#008EFF">
                    <rect id="Rectangle-path" x="0.193043478" y="0.130200308" width="5.96803429" height="2.00308166"></rect>
                </g>
                <g id="Group" opacity="0.2" transform="translate(160.507042, 198.305085)" fill="#008EFF">
                    <rect id="Rectangle-path" x="0.103319045" y="0.130200308" width="5.96803429" height="2.00308166"></rect>
                </g>
                <g id="Group" opacity="0.2" transform="translate(170.929577, 198.305085)" fill="#008EFF">
                    <rect id="Rectangle-path" x="0.0135946111" y="0.130200308" width="5.96803429" height="2.00308166"></rect>
                </g>
                <rect id="Rectangle-path" fill="#F6F7F9" x="145.915493" y="66.1016949" width="8.33802817" height="2.20338983"></rect>
                <rect id="Rectangle-path" fill="#008EFF" x="85.4647887" y="177.372881" width="6.25352113" height="18.7288136"></rect>
                <rect id="Rectangle-path" fill="#F1B350" x="97.971831" y="167.457627" width="6.25352113" height="28.6440678"></rect>
                <rect id="Rectangle-path" fill="#008EFF" x="108.394366" y="160.847458" width="6.25352113" height="35.2542373"></rect>
                <rect id="Rectangle-path" fill="#F1B350" x="118.816901" y="163.050847" width="6.25352113" height="33.0508475"></rect>
                <rect id="Rectangle-path" fill="#008EFF" x="129.239437" y="155.338983" width="6.25352113" height="37.4576271"></rect>
                <g id="Group" opacity="0.2" transform="translate(139.661972, 172.966102)" fill="#008EFF">
                    <rect id="Rectangle-path" x="0.014212548" y="0.0949152542" width="6.23930858" height="22.9368644"></rect>
                </g>
                <g id="Group" opacity="0.2" transform="translate(150.084507, 172.966102)" fill="#008EFF">
                    <rect id="Rectangle-path" x="0.193043478" y="0.0949152542" width="5.96803429" height="22.9368644"></rect>
                </g>
                <g id="Group" opacity="0.2" transform="translate(160.507042, 172.966102)" fill="#008EFF">
                    <rect id="Rectangle-path" x="0.103319045" y="0.0949152542" width="5.96803429" height="22.9368644"></rect>
                </g>
                <g id="Group" opacity="0.2" transform="translate(170.929577, 172.966102)" fill="#008EFF">
                    <rect id="Rectangle-path" x="0.0135946111" y="0.0949152542" width="5.96803429" height="22.9368644"></rect>
                </g>
                <path d="M272.27185,84.5967107 C265.678651,80.3286213 263.187825,79.2701851 263.173956,79.2639406 L263.040816,79.1546625 C262.321717,78.5329981 261.75006,77.721143 261.376568,76.7911339 C261.376568,76.6194112 261.376568,76.4508107 261.376568,76.2822103 L261.376568,76.332166 C261.48197,74.0716709 262.91045,72.0141208 264.266813,70.2188382 L267.731225,65.629159 C268.126329,65.1760731 268.430846,64.6331688 268.624372,64.0368213 C268.695846,63.7175534 268.727585,63.3886593 268.718679,63.0595631 C268.718679,62.9253072 268.718679,62.7910513 268.718679,62.6599176 C268.702036,61.5203033 268.671525,60.3775669 268.635467,59.2254638 C268.602182,58.2294721 268.374734,56.9743354 267.489909,56.7682682 C267.029466,56.6621123 266.422015,56.8494462 266.177926,56.4029672 C266.096067,56.2205622 266.075386,56.0110481 266.119677,55.8128656 C266.118374,55.8284423 266.118374,55.8441223 266.119677,55.859699 L266.119677,55.8034989 C266.291925,55.0346188 266.402396,54.2498596 266.449753,53.4587036 C266.467178,53.0565883 266.418275,52.6543187 266.305518,52.2722559 C265.792375,50.6174736 264.028271,49.9399495 262.466651,49.6277265 C260.90503,49.3155034 259.157569,49.0469916 258.178436,47.67321 C257.876097,47.2485866 257.67084,46.7365408 257.326895,46.3525064 C256.875099,45.9019962 256.324406,45.5958292 255.73199,45.4657929 C253.795206,44.9269918 251.754335,45.1268506 249.929309,46.0340389 C249.174849,46.4118288 248.417616,46.9238747 247.591039,46.8676745 C246.764462,46.8114743 245.996134,46.1401947 245.147367,45.9778387 C243.777135,45.7155714 242.465152,46.8489411 241.791132,48.1883781 C241.390787,48.9850777 241.176982,49.8832796 241.169812,50.798563 C241.169812,50.8485187 241.169812,50.9015966 241.169812,50.9515523 C241.14952,51.9355002 241.468639,52.8900406 242.060185,53.6148151 C242.650993,54.3048281 243.533045,54.7794072 243.777135,55.6879763 C243.87699,56.0563996 243.852026,56.4560451 243.940786,56.8307128 C243.940786,56.8775462 243.96575,56.9243797 243.979619,56.9680909 L243.935239,57.0336578 C242.520862,59.0740186 241.755172,61.5893236 241.76062,64.1773217 C241.790307,69.3288497 244.777461,73.8668292 249.147112,75.398619 C249.147112,75.5141415 249.147112,75.6327863 249.147112,75.7483088 C249.147112,77.1658016 248.789298,78.6113944 247.713084,79.6760751 L238.376647,83.9035755 C238.376647,83.9035755 232.748712,83.1511179 230.718329,92.4116542 C230.391647,93.9491115 230.273812,95.5334129 230.368836,97.1106115 C230.443728,98.5062486 230.271755,100.966566 228.829406,104.14812 C226.518874,109.237356 227.045886,120.920743 231.766806,122.079091 C236.224219,123.171871 237.968907,122.703537 238.146426,122.662948 L238.146426,122.865893 C238.074309,125.051454 237.367003,143.96905 234.795739,146.257646 C234.085659,146.882092 234.218799,147.319204 234.795739,147.606449 C234.795739,147.606449 234.795739,147.728216 234.779096,147.946772 C234.701431,149.329921 234.304785,154.597124 232.585061,157.594465 C230.590736,161.063264 230.798767,181.079885 230.798767,181.079885 L229.459047,192.891284 C229.459047,192.891284 230.291172,200.17857 229.459047,201.45244 C228.710135,202.58581 227.711586,229.552517 227.517423,235.394211 L227.428663,235.394211 C226.594378,235.450551 225.839115,235.968594 225.412148,236.777359 C224.302649,238.79432 220.447139,242.519141 220.447139,242.519141 C219.615015,243.858578 216.51119,245.138693 214.871905,245.744406 C214.652186,245.823912 214.440277,245.928532 214.239491,246.056629 C213.627087,246.432762 213.135156,247.015985 212.8332,247.7239 C212.617567,248.145908 212.562552,248.648082 212.680644,249.116415 C213.102254,250.27164 221.811823,251.080298 224.014179,249.925073 C225.747772,249.013381 232.612799,247.817567 235.461438,247.349232 C236.525316,247.196985 237.36344,246.254846 237.500143,245.057515 C237.550939,244.647956 237.450723,244.232829 237.222768,243.908534 C236.668019,243.14671 236.390644,241.070426 236.271373,239.715378 C236.503001,239.61023 236.719056,239.465995 236.912108,239.287633 C236.678216,235.08444 237.213507,230.871952 238.484824,226.91111 C240.584551,220.666648 241.214192,209.092539 240.703822,201.574207 C240.703822,201.574207 247.105633,170.570456 252.14276,167.676148 C252.220425,167.785426 254.664097,171.319792 254.974757,182.250721 C255.290964,193.356496 258.858004,200.643783 258.858004,200.643783 C258.858004,200.643783 257.282515,219.502056 258.858004,226.558298 L256.797109,237.692173 C256.647327,237.545428 256.550246,237.433027 256.550246,237.433027 C256.550246,237.433027 256.611268,237.745251 256.697254,238.238563 L256.652874,238.47273 L256.741634,238.497708 C256.974629,239.890223 257.321348,242.316196 257.179886,243.739934 C257.096674,244.548591 256.902512,245.660105 256.758277,246.749764 C256.541924,248.463869 256.480902,250.124895 257.282515,250.496441 C258.594498,251.089665 266.308292,251.901445 267.620275,249.993762 C268.220604,249.199922 268.368956,248.091494 268.003052,247.133798 C267.907498,246.871681 267.778553,246.626618 267.620275,246.406319 C267.620275,246.406319 265.573249,242.637786 266.150188,239.980768 C266.260776,239.455773 266.172347,238.902656 265.906098,238.453997 C265.994858,237.148904 266.460848,231.113632 267.672976,225.98693 C268.984959,220.419992 271.755933,208.215192 269.717228,200.187937 C269.639563,199.875714 269.550803,199.563491 269.456496,199.251268 C268.280085,194.870021 267.887882,190.26952 268.302617,185.716398 C267.545783,181.828508 267.545783,177.802255 268.302617,173.914365 C269.561898,167.435737 270.441177,161.07263 270.441177,161.07263 C270.441177,161.07263 271.137387,152.514596 270.529937,147.266126 L270.48833,146.928925 L270.82118,146.844625 C270.82118,146.844625 269.03766,137.936901 268.408019,132.270052 C268.258237,130.930615 268.064074,129.235244 267.85327,127.42435 C268.434691,127.319766 269.007203,127.159961 269.564672,126.946648 C275.212023,124.739231 276.987222,104.844377 276.987222,104.844377 L276.987222,98.537471 C276.987222,98.537471 278.884466,88.8772891 272.27185,84.5967107 Z M230.055403,238.232319 C229.880657,238.132407 229.778028,238.06684 229.778028,238.06684 L230.055403,238.232319 Z" id="Shape" fill="url(#linearGradient-2)"></path>
                <path d="M267.625388,198.554739 C270.05018,206.495301 267.220343,219.381575 265.906686,225.134431 C264.593029,230.887287 264.187984,237.796324 264.187984,237.796324 C259.034616,238.715659 255.296166,237.562595 255.296166,237.562595 L257.417176,225.720312 C255.900996,218.702202 257.417176,199.944649 257.417176,199.944649 C257.417176,199.944649 253.982509,192.695925 253.678726,181.648322 C253.380416,170.772121 251.02678,167.259949 250.94194,167.150875 C246.092355,170.027303 239.926376,200.870217 239.926376,200.870217 C240.432681,208.349553 239.825115,219.855266 237.805367,226.069348 C236.580332,230.01643 236.064722,234.203687 236.289187,238.382206 C235.583096,239.061579 234.60059,239.176885 233.538717,238.983669 C230.662355,238.438301 227.211268,235.608618 227.211268,235.608618 C227.211268,235.608618 228.305982,202.010816 229.127018,200.742445 C229.948054,199.474074 229.127018,192.225351 229.127018,192.225351 L230.437938,180.489025 C230.437938,180.489025 230.238153,160.578408 232.15664,157.116099 C233.815132,154.133713 234.195546,148.895061 234.269439,147.520733 C234.269439,147.302586 234.28586,147.181047 234.28586,147.181047 L237.208747,143.192067 C237.208747,143.192067 265.507115,140.776865 267.628124,143.192067 C268.150851,143.787298 268.471055,145.133578 268.66263,146.832011 C269.245565,152.051965 268.577789,160.565943 268.577789,160.565943 C268.577789,160.565943 267.729386,166.895331 266.516989,173.343142 C265.786745,177.211065 265.786745,181.211546 266.516989,185.079468 C266.114546,189.610568 266.491022,194.187547 267.625388,198.554739 Z" id="Shape" fill="#65617D"></path>
                <path d="M264.213691,247.88031 C263.039263,249.643641 256.140136,248.893719 254.965708,248.346478 C254.24885,248.00771 254.304775,246.473119 254.497971,244.889306 C254.619989,243.881688 254.800475,242.862489 254.874195,242.106775 C255.062306,240.181298 254.309859,236.278227 254.309859,236.278227 C254.309859,236.278227 255.86051,238.14869 256.234192,236.278227 C256.399425,235.461709 256.976471,235.041868 257.573853,234.8305 C258.378626,234.555195 259.243309,234.616815 260.01168,235.004227 C261.229323,235.606481 263.265506,236.892063 262.89945,238.629335 C262.39104,241.08468 264.213691,244.567911 264.213691,244.567911 C264.354929,244.772062 264.469649,244.998294 264.554326,245.239656 C264.882177,246.123329 264.750849,247.141402 264.213691,247.88031 Z" id="Shape" fill="#A27772"></path>
                <path d="M264.209897,248.897682 C263.028501,250.795849 256.088438,249.988583 254.907041,249.399496 C254.18593,249.034824 254.242187,247.382888 254.436529,245.677966 C255.180655,246.101859 256.448994,246.457181 258.561187,246.217183 C259.054992,246.161089 259.551175,246.142351 260.046882,246.161079 C261.549109,246.245222 263.054252,246.20878 264.552553,246.051989 C264.883396,247.004102 264.751244,248.1016 264.209897,248.897682 Z" id="Shape" fill="#000000" opacity="0.1"></path>
                <path d="M239.585549,201.033045 C240.070699,208.480499 239.488519,219.937165 237.553163,226.124758 C236.379314,230.055014 235.885248,234.224422 236.100335,238.385128 C235.423747,239.061605 234.482293,239.17642 233.464789,238.984028 C234.049591,234.143183 236.538281,213.32755 238.145833,196.877987 C239.950067,178.144538 248.446753,165.254237 248.446753,165.254237 L250.140845,167.460545 C245.488648,170.321609 239.585549,201.033045 239.585549,201.033045 Z" id="Shape" fill="#000000" opacity="0.1"></path>
                <path d="M262.647887,80.2508514 L261.398457,87.3158608 L255.281509,99.1525424 L247.737829,95.4430137 C247.737829,95.4430137 237.48751,83.0768551 243.928589,81.3098054 C244.700229,81.1200552 245.428783,80.7462837 246.067304,80.2125759 C247.333357,79.1153465 247.729518,77.5173466 247.729518,75.9544326 C247.729518,73.3740296 246.682323,70.8861256 246.682323,70.8861256 L259.877531,66.1016949 C259.332487,68.0980646 259.014024,70.1672215 258.930069,72.2576624 C258.830336,76.4041691 260.165648,78.4327677 261.259939,79.405602 C261.669549,79.7901473 262.141284,80.0774298 262.647887,80.2508514 Z" id="Shape" fill="#FBBEBE"></path>
                <path d="M258.478873,66.1016949 C257.962255,68.0006281 257.6604,69.9687959 257.580824,71.9572091 C257.353472,72.270507 257.11061,72.568332 256.853457,72.849189 C254.223329,75.754162 250.425214,76.7562826 246.964412,75.4583818 C246.964412,73.0039202 245.971831,70.6374429 245.971831,70.6374429 L258.478873,66.1016949 Z" id="Shape" fill="#000000" opacity="0.1"></path>
                <path d="M260.563273,65.5537821 C260.562151,70.2332775 258.020923,74.4510764 254.124918,76.2398308 C250.228912,78.0285853 245.745669,77.0358985 242.76635,73.7247988 C239.787031,70.4136991 238.898583,65.4364956 240.515412,61.1147527 C242.132241,56.7930098 245.935821,53.9781402 250.152013,53.9831103 C252.918365,53.9732535 255.573775,55.1896313 257.528591,57.362139 C259.483408,59.5346466 260.575828,62.4834623 260.563273,65.5537821 Z" id="Shape" fill="#FBBEBE"></path>
                <path d="M262.647887,81.2109082 L261.398457,87.9170708 L255.281509,99.1525424 L247.737829,95.6314285 C247.737829,95.6314285 237.48751,83.8933732 243.928589,82.2160757 C244.700229,82.0359633 245.428783,81.6811764 246.067304,81.1745768 C244.903754,84.6714697 249.707552,91.943796 249.707552,91.943796 C250.261624,92.8520799 251.549839,92.2768334 251.549839,92.2768334 C254.641557,91.7681944 260.34018,82.0404741 261.26825,80.4237288 C261.676539,80.7822992 262.145288,81.0497529 262.647887,81.2109082 Z" id="Shape" fill="#000000" opacity="0.1"></path>
                <path d="M266.816901,147.19757 C265.078568,147.697926 255.45006,150.397831 251.798233,149.722855 C247.782816,148.977359 239.969605,148.483719 239.969605,148.483719 C239.969605,148.483719 234.996114,148.819528 233.464789,147.939709 C233.464789,147.704642 233.480712,147.573677 233.480712,147.573677 L236.315124,143.27532 C236.315124,143.27532 263.756904,140.672799 265.813711,143.27532 C266.320614,143.909999 266.631125,145.360695 266.816901,147.19757 Z" id="Shape" fill="#000000" opacity="0.1"></path>
                <path d="M250.048714,92.2582678 C250.048714,92.2582678 244.713437,84.0143939 246.723752,80.8114962 L237.710202,84.9303799 C237.710202,84.9303799 232.284544,84.1975911 230.315312,93.2231064 C230.000982,94.7228665 229.88746,96.2662258 229.978433,97.8030364 C230.049643,99.1648022 229.885313,101.561632 228.493978,104.660718 C226.267294,109.622309 226.773981,121.008015 231.325947,122.137731 C235.877913,123.267447 237.493833,122.699536 237.493833,122.699536 C237.493833,122.699536 236.888548,143.333647 234.259253,145.699944 C231.629959,148.066241 240.961215,147.504436 240.961215,147.504436 C240.961215,147.504436 249.024384,147.956323 253.171001,148.631099 C257.317617,149.305875 268.946767,146.264802 268.946767,146.264802 C268.946767,146.264802 267.22677,137.581255 266.621485,132.057859 C266.016199,126.534464 264.597476,114.77015 264.597476,114.77015 L274.914717,99.1983884 C274.914717,99.1983884 276.733313,89.7851057 270.362751,85.6143161 C263.99219,81.4435266 261.598437,80.4237288 261.598437,80.4237288 C261.598437,80.4237288 255.205965,92.026218 251.870048,92.5971826 C251.870048,92.5971826 250.601961,93.165094 250.048714,92.2582678 Z" id="Shape" fill="#7C7CDD"></path>
                <path d="M236.967574,94.7457627 C236.967574,94.7457627 236.884013,98.3536485 237.38312,99.7772687 C237.882227,101.200889 239.71831,109.067797 239.71831,109.067797 L235.549296,109.067797 C235.549296,109.067797 237.8077,105.897948 237.633803,104.367778 C237.459906,102.837608 236.967574,94.7457627 236.967574,94.7457627 Z" id="Shape" fill="#000000" opacity="0.1"></path>
                <path d="M253.026168,125.59322 C253.026168,125.59322 242.36368,122.400519 241.370118,119.6963 C240.376557,116.992082 237.633803,110.919564 237.633803,110.919564 L238.758097,109.067797 L243.945535,114.038833 C243.945535,114.038833 250.123922,120.05069 253.020939,120.64134 C255.917956,121.23199 253.026168,125.59322 253.026168,125.59322 Z" id="Shape" fill="#FBBEBE"></path>
                <path d="M253.026168,125.59322 C253.026168,125.59322 242.36368,122.400519 241.370118,119.6963 C240.376557,116.992082 237.633803,110.919564 237.633803,110.919564 L238.758097,109.067797 L243.945535,114.038833 C243.945535,114.038833 250.123922,120.05069 253.020939,120.64134 C255.917956,121.23199 253.026168,125.59322 253.026168,125.59322 Z" id="Shape" fill="#000000" opacity="0.05"></path>
                <path d="M262.647887,109.125019 L262.647887,115.825136 L261.640578,115.825136 C256.669528,115.826157 251.780469,117.181231 247.433561,119.762817 L245.549101,120.883542 L245.042617,121.186441 L241.802817,113.377715 L244.833232,110.469889 L244.988856,110.469889 C245.73019,110.545613 248.936036,110.833367 250.294205,110.342671 C251.584466,109.873178 253.185974,108.385946 256.986019,109.433975 C258.859161,109.945874 260.457839,112.193382 262.274391,111.490657 L262.647887,109.125019 Z" id="Shape" fill="#FBBEBE"></path>
                <path d="M273.049402,97.3391216 L275.15493,100.015485 L275.15493,106.506473 C275.15493,106.506473 273.365658,126.985493 267.684438,129.249116 C262.003217,131.512739 251.863064,127.93673 251.863064,127.93673 C251.863064,127.93673 249.241838,120.07854 250.466976,119.604533 C251.692114,119.130526 261.293776,116.257466 261.293776,116.257466 C261.293776,116.257466 261.159866,104.24285 263.262544,100.670066 C263.262544,100.670066 261.894949,89.4809307 266.630249,89.2423152 C271.36555,89.0036996 273.049402,97.3391216 273.049402,97.3391216 Z" id="Shape" fill="#000000" opacity="0.1"></path>
                <path d="M273.050383,97.3391216 L275.15493,100.015485 L275.15493,106.506473 C275.15493,106.506473 273.372188,126.985493 267.676528,129.249116 C261.980869,131.512739 251.859681,127.93673 251.859681,127.93673 C251.859681,127.93673 249.242526,120.07854 250.467092,119.604533 C251.691659,119.130526 261.288846,116.257466 261.288846,116.257466 C261.288846,116.257466 261.15215,104.24285 263.256696,100.670066 C263.256696,100.670066 261.889738,89.4809307 266.622831,89.2423152 C271.355925,89.0036996 273.050383,97.3391216 273.050383,97.3391216 Z" id="Shape" fill="#7C7CDD"></path>
                <path d="M257.68109,71.2821825 C257.722663,70.4988316 257.736521,69.6703494 257.448279,68.9643665 C257.160037,68.2583836 256.483776,67.694242 255.824144,67.8747673 C254.948331,68.1133186 254.571399,69.4382454 253.712215,69.7573884 C252.988837,70.0249527 252.198942,69.4350218 251.855269,68.6419999 C251.511595,67.848978 251.500509,66.9334568 251.497737,66.0630669 C251.497737,65.0701778 251.497737,64.0740649 251.497737,63.0811757 C251.497737,61.9980239 251.46725,60.8246094 250.893537,59.9800089 C250.181246,58.9194227 248.504451,58.4584384 247.384741,58.5003461 C246.638887,58.5104276 245.92358,58.8464458 245.380902,59.4416566 C244.782245,60.0315875 244.089355,60.4700061 243.271744,60.3120465 C242.578561,60.1898552 242.007259,59.6156311 241.802817,58.8356074 L241.802817,58.7969234 C244.175238,55.1511894 248.107518,53.3650151 251.976258,54.1758035 C255.844998,54.9865919 258.993979,58.2568165 260.123177,62.6363997 C261.252375,67.015983 260.170255,71.7620565 257.323559,74.9152542 C257.501354,73.7130098 257.620721,72.5000604 257.68109,71.2821825 Z" id="Shape" fill="#000000" opacity="0.1"></path>
                <path d="M243.917337,59.8802178 C243.217813,59.7647688 242.641749,59.226746 242.435872,58.4965846 C242.349221,58.1378649 242.371582,57.7550296 242.27375,57.3963099 C242.033361,56.522119 241.155663,56.0669369 240.59662,55.4037576 C239.433811,54.0713702 239.509281,51.8828785 240.33387,50.2791904 C240.999131,48.9890053 242.290521,47.9007884 243.63502,48.1509878 C244.473585,48.3077393 245.191955,48.9498174 246.038905,49.007092 C246.885856,49.0643666 247.59584,48.5699966 248.339368,48.205248 C250.12873,47.3312712 252.14035,47.1388848 254.044403,47.6596323 C254.629667,47.7864159 255.172374,48.0811348 255.615314,48.512722 C255.914941,48.9198732 256.194836,49.3434673 256.453879,49.781806 C257.418228,51.1051501 259.140081,51.3643929 260.674655,51.6628236 C262.209228,51.9612543 263.942262,52.6153902 264.448196,54.2070205 C264.780827,55.2620784 264.448196,56.4075699 264.266507,57.5048302 C264.201785,57.7284136 264.215717,57.9698753 264.30564,58.1830817 C264.546029,58.6111338 265.144205,58.4332812 265.59703,58.5357725 C266.469137,58.7317118 266.692754,59.9405068 266.715116,60.8991023 C266.752385,61.9963626 266.780338,63.0936228 266.798972,64.1908831 C266.904014,65.2229956 266.54322,66.2467463 265.829033,66.9430771 L262.421665,71.3592483 C260.909453,73.3186416 259.304999,75.6005812 259.609678,78.1266914 C258.894102,78.4733533 258.044357,77.8041451 257.809559,76.9962721 C257.574761,76.1883992 257.764835,75.3202372 257.921367,74.4912631 C258.197168,73.0580604 258.377454,71.6053996 258.460844,70.1444244 C258.502772,69.4088983 258.516748,68.6371987 258.226046,67.9770339 C257.935343,67.3168691 257.253311,66.7712534 256.588049,66.9551349 C255.704761,67.1782043 255.324612,68.4171438 254.458095,68.7155745 C253.731339,68.9657739 252.931907,68.4141293 252.585301,67.6725743 C252.238694,66.9310193 252.227513,66.0749152 252.224718,65.2610133 L252.224718,62.4696314 C252.224718,61.4597902 252.19397,60.3595155 251.615361,59.5697293 C250.89699,58.5779748 249.205885,58.1469083 248.076618,58.1860962 C247.324508,58.1961117 246.603286,58.5102393 246.055677,59.0663159 C245.440729,59.6179605 244.741925,60.0249114 243.917337,59.8802178 Z" id="Shape" fill="#7C5C5C"></path>
                <path d="M245.971831,94.7457627 L249.525138,109.067797 C249.525138,109.067797 252.32844,109.052721 245.971831,94.7457627 Z" id="Shape" fill="#000000" opacity="0.1"></path>
                <path d="M256.394366,92.5423729 C256.394366,92.5423729 253.416749,100.635392 254.579082,108.999267 L255.133698,109.067797 C255.133698,109.067797 254.14247,105.194243 256.394366,92.5423729 Z" id="Shape" fill="#000000" opacity="0.1"></path>
                <path d="M260.56338,134.714471 C260.56338,134.714471 266.393519,133.27869 266.816901,136.610169 C266.816901,136.610169 265.716106,134.326927 260.56338,134.714471 Z" id="Shape" fill="#000000" opacity="0.1"></path>
                <path d="M247.156551,111.271186 C247.156551,111.271186 246.049813,118.955511 248.056338,122.029241 C248.056338,122.029241 244.001297,123.676095 238.308643,123.346129 L237.633803,111.271186 L247.156551,111.271186 Z" id="Shape" fill="#000000" opacity="0.1"></path>
                <path d="M245.971831,123.047302 L245.408195,123.389831 L241.802817,114.559456 L245.175184,111.271186 L245.348368,111.271186 C245.294839,111.695921 244.356495,119.300045 245.971831,123.047302 Z" id="Shape" fill="#000000" opacity="0.1"></path>
                <path d="M245.145738,111.271186 C245.145738,111.271186 244.129644,118.954423 245.971831,122.028907 C245.971831,122.028907 242.248907,123.676165 237.022494,123.346119 L233.464789,111.271186 L245.145738,111.271186 Z" id="Shape" fill="#7C7CDD"></path>
                <path d="M235.533036,243.835046 C235.417806,244.960832 234.645487,245.85492 233.65645,246.007506 C231.039175,246.453291 224.710604,247.588557 223.114066,248.450409 C221.085678,249.547041 213.06373,248.78029 212.676373,247.683658 C212.567197,247.240287 212.617071,246.765867 212.815089,246.364134 C213.094331,245.693451 213.552101,245.13935 214.123726,244.78011 C214.308248,244.659418 214.502885,244.559864 214.704761,244.48292 C216.214929,243.909343 219.067759,242.699779 219.839855,241.421862 C219.839855,241.421862 223.396732,237.888271 224.409617,235.977338 C224.797653,235.215316 225.494426,234.722778 226.267882,234.663758 C227.115879,234.619179 228.058098,235.103599 228.442838,237.210677 C228.442838,237.210677 233.080649,240.21527 234.334324,237.579193 C234.334324,237.579193 234.528002,241.626923 235.297481,242.73247 C235.502945,243.049305 235.587808,243.446528 235.533036,243.835046 Z" id="Shape" fill="#A27772"></path>
                <path d="M235.533718,244.82887 C235.418484,246.21917 234.646142,247.32333 233.657076,247.511767 C231.039723,248.062293 224.710964,249.4643 223.114378,250.52865 C221.08593,251.882944 213.063743,250.936039 212.676375,249.581745 C212.567196,249.034201 212.617071,248.448312 212.815095,247.952188 C213.094345,247.123923 213.552129,246.439631 214.123771,245.995986 C215.432448,247.214483 218.335092,248.40362 224.721433,247.005283 C230.812013,245.67301 233.827204,244.366428 235.298156,243.474576 C235.502246,243.86395 235.587041,244.351458 235.533718,244.82887 Z" id="Shape" fill="#000000" opacity="0.1"></path>
                <g id="Group" opacity="0.1" transform="translate(239.718310, 51.779661)" fill="#000000">
                    <path d="M24.5231285,4.90574497 L24.5231285,4.85270989 C24.9577604,4.03655893 25.605608,3.19389042 25.4579972,2.38068585 C25.2636413,3.04811003 24.9513887,3.71041993 24.5231285,4.36360859 C24.4085224,4.5419751 24.4085224,4.72737847 24.5231285,4.90574497 Z" id="Shape"></path>
                    <path d="M18.5044668,15.0884805 C18.6654437,15.4808703 18.7510042,15.9036506 18.7560966,16.3318585 C18.8034396,15.7412338 18.7171496,15.1471243 18.5044668,14.5993792 C18.2279506,13.9482263 17.5449554,13.4355538 16.8868468,13.6005518 C16.0130555,13.8185849 15.6369934,15.0295526 14.779793,15.3212456 C14.0580857,15.5657962 13.2700144,15.0266062 12.9243691,14.3017935 C12.5787238,13.5769807 12.5731934,12.740205 12.5704283,11.9446788 C12.5704283,11.0342432 12.5704283,10.126754 12.5704283,9.21631849 C12.5704283,8.2292767 12.5400115,7.15384312 11.9676229,6.38188806 C11.2569761,5.41252464 9.58128773,4.99119038 8.46692728,5.0294935 C7.72279588,5.03870786 7.00914006,5.34582458 6.46771486,5.88984036 C5.86767462,6.43197674 5.17914918,6.82973985 4.36342627,6.68831297 C3.67142418,6.57547055 3.10155355,6.04959476 2.8978902,5.33591841 C2.81217016,4.9852976 2.83429146,4.61110564 2.73751078,4.26048482 C2.49694165,3.40603074 1.63144582,2.96112534 1.07841334,2.3129188 C0.540741544,1.68145211 0.235332575,0.864225467 0.21844783,0.0117855735 C0.132321362,1.02835864 0.44343176,2.03778398 1.07841334,2.8020201 C1.65356712,3.45022665 2.5080023,3.89807844 2.73751078,4.75253252 C2.83429146,5.10020694 2.81217016,5.4743989 2.8978902,5.82501971 C3.10155355,6.53869606 3.67142418,7.06457185 4.36342627,7.17741427 C5.19297499,7.31884115 5.86767462,6.92107804 6.46771486,6.37894166 C7.00914006,5.83492588 7.72279588,5.52780916 8.46692728,5.5185948 C9.57299224,5.48029168 11.2569761,5.90457233 11.9676229,6.87098936 C12.5400115,7.64883721 12.5676631,8.71837801 12.5704283,9.70541979 C12.5704283,10.6158553 12.5704283,11.5233445 12.5704283,12.4337801 C12.5704283,13.2410918 12.5704283,14.080814 12.9243691,14.7908948 C13.2783099,15.5009756 14.0580857,16.0548975 14.779793,15.8103469 C15.6369934,15.5157075 16.0130555,14.3076862 16.8868468,14.0896531 C17.5532509,13.9276015 18.2196551,14.4373276 18.5044668,15.0884805 Z" id="Shape"></path>
                    <path d="M26.8967347,12.0919984 C26.7103925,12.6509805 26.4143992,13.1612341 26.0284737,13.5887663 C24.9058178,15.0285705 23.7822401,16.4673926 22.6577407,17.9052326 C21.2392124,19.7231573 19.7349641,21.8268821 19.8455706,24.1456937 C19.9478816,22.0183977 21.3387583,20.0826173 22.6577407,18.3943339 L26.0284737,14.080814 C26.4138618,13.6517058 26.7097523,13.1406254 26.8967347,12.5810997 C26.9801988,12.1949782 27.0100117,11.797892 26.9852199,11.4025424 C26.9824131,11.6353613 26.9526941,11.8669246 26.8967347,12.0919984 Z" id="Shape"></path>
                    <path d="M18.1062834,23.4149882 C18.0517837,23.2233358 18.0183776,23.0255823 18.0067376,22.8257095 C17.9777554,23.1866861 18.0115017,23.5502627 18.1062834,23.8981967 C18.3385571,24.6878301 19.1819316,25.3389831 19.8898132,25.0001478 C19.870457,24.8410426 19.8593964,24.6819373 19.8538661,24.5228321 C19.1404542,24.8351498 18.3219661,24.192836 18.1062834,23.4149882 Z" id="Shape"></path>
                </g>
                <path d="M225.126761,236.864407 C225.126761,236.864407 226.028801,239.150003 229.295775,237.137063" id="Shape" fill="#000000" opacity="0.1"></path>
                <path d="M256.394366,239.067797 C256.394366,239.067797 260.083164,243.002194 264.732394,240.356173" id="Shape" fill="#000000" opacity="0.1"></path>
                <path d="M266.816901,186.186441 C266.816901,186.186441 264.798936,187.445189 264.735061,188.165487 C264.671186,188.885784 265.775981,187.641205 265.775981,187.641205 L266.816901,186.186441 Z" id="Shape" fill="#000000" opacity="0.1"></path>
                <path d="M266.816901,198.305085 C266.009343,198.815173 265.005381,199.112606 263.955924,199.152675 C262.220264,199.210559 262.364676,200.92848 263.498168,200.411657 C264.63166,199.894834 266.816901,198.305085 266.816901,198.305085 Z" id="Shape" fill="#000000" opacity="0.1"></path>
                <path d="M266.816901,201.610169 C266.816901,201.610169 265.666344,206.908663 264.732394,205.885869" id="Shape" fill="#000000" opacity="0.1"></path>
                <path d="M37.9453471,229.152542 C37.9453471,229.152542 39.6116412,231.449955 37.1744206,234.912073 C34.7371999,238.374192 32.7279346,241.311552 33.5322477,243.474576 C33.5322477,243.474576 37.2078071,237.030301 40.2095646,236.940708 C43.211322,236.851116 41.2384784,233.027427 37.9453471,229.152542 Z" id="Shape" fill="#3DCB0C"></path>
                <path d="M37.895688,229.152542 C38.0433943,229.373601 38.1592352,229.61599 38.2395261,229.872002 C41.1928501,233.485285 42.7677515,236.858749 39.928017,236.945085 C37.2847613,237.021827 34.0950486,241.949323 33.3521127,243.193188 C33.377162,243.288504 33.4068773,243.382423 33.4411422,243.474576 C33.4411422,243.474576 37.158892,237.034617 40.1951055,236.945085 C43.231319,236.855552 41.2266199,233.024832 37.895688,229.152542 Z" id="Shape" fill="#000000" opacity="0.1"></path>
                <path d="M40.6478873,231.930182 C40.6478873,232.830122 40.4180991,233.559322 40.1308639,233.559322 C39.8436287,233.559322 39.6056338,232.830122 39.6056338,231.930182 C39.6056338,231.030242 39.9010757,231.457091 40.188311,231.457091 C40.4755462,231.457091 40.6478873,231.037356 40.6478873,231.930182 Z" id="Shape" fill="#FFD037"></path>
                <path d="M41.1961233,231.910233 C40.3829129,232.298174 39.6722695,232.532221 39.6099967,232.436037 C39.5477238,232.339853 40.1594631,231.942294 40.9726735,231.554353 C41.7858839,231.166412 41.4635303,231.448551 41.5258031,231.554353 C41.588076,231.660155 42.0093337,231.522291 41.1961233,231.910233 Z" id="Shape" fill="#FFD037"></path>
                <path d="M30.8429933,229.152542 C30.8429933,229.152542 29.1765571,231.449955 31.6139857,234.912073 C34.0514143,238.374192 36.0608511,241.311552 35.2564693,243.474576 C35.2564693,243.474576 31.5805963,237.030301 28.5785827,236.940708 C25.5765691,236.851116 27.5526165,233.027427 30.8429933,229.152542 Z" id="Shape" fill="#3DCB0C"></path>
                <path d="M30.8926532,229.152542 C30.7462841,229.374431 30.6305331,229.616612 30.5487854,229.872002 C27.5952072,233.485285 26.0201701,236.858749 28.8601492,236.945085 C31.5067027,237.021827 34.6936198,241.949323 35.4366197,243.193188 C35.4129402,243.288929 35.383196,243.382931 35.3475825,243.474576 C35.3475825,243.474576 31.6295126,237.034617 28.5930377,236.945085 C25.5565627,236.855552 27.5645047,233.024832 30.8926532,229.152542 Z" id="Shape" fill="#000000" opacity="0.1"></path>
                <path d="M27.0985915,231.930182 C27.0985915,232.830122 27.3283797,233.559322 27.6156149,233.559322 C27.9028502,233.559322 28.1408451,232.830122 28.1408451,231.930182 C28.1408451,231.030242 27.8454031,231.457091 27.5581679,231.457091 C27.2709327,231.457091 27.0985915,231.037356 27.0985915,231.930182 Z" id="Shape" fill="#FFD037"></path>
                <path d="M25.510269,231.910233 C26.3242462,232.298174 27.031893,232.532221 27.0942246,232.436037 C27.1565562,232.339853 26.54424,231.942294 25.7302628,231.554353 C24.9162857,231.166412 25.2389433,231.448551 25.1766117,231.554353 C25.1142801,231.660155 24.6962918,231.522291 25.510269,231.910233 Z" id="Shape" fill="#FFD037"></path>
                <path d="M27.0985915,244.106243 C27.0985915,244.106243 31.5799576,243.945679 32.9337036,242.818312 C34.2874497,241.690945 39.824971,240.348353 40.16049,242.155556 C40.4960089,243.96276 46.8942093,251.136914 41.8351672,251.184742 C36.776125,251.23257 30.0803338,250.262351 28.7324229,249.298964 C27.384512,248.335578 27.0985915,244.106243 27.0985915,244.106243 Z" id="Shape" fill="#A8A8A8"></path>
                <path d="M40.072762,250.507365 C35.6450486,250.55946 29.7848398,249.502681 28.6051376,248.453344 C27.7063169,247.657039 27.3488314,244.79555 27.2288184,243.474576 L27.0985915,243.474576 C27.0985915,243.474576 27.3539383,248.08496 28.5259801,249.130576 C29.6980219,250.176191 35.5658911,251.236691 39.9936045,251.184597 C41.2703385,251.184597 41.7146419,250.507365 41.6891072,249.525007 C41.5129179,250.124097 41.0252055,250.496202 40.072762,250.507365 Z" id="Shape" fill="#000000" opacity="0.2"></path>
            </g>
        </g>
    </g>
</svg>