<?xml version="1.0" encoding="UTF-8"?>
<svg version="1.1" viewBox="0 0 300 300" xmlns="http://www.w3.org/2000/svg">
<title>secure_family_myway</title>
<desc>Created with Sketch.</desc>
<g fill="none" fill-rule="evenodd">
<g transform="translate(-30 -30)">
<g transform="translate(30 30)">
<rect width="300" height="300" fill="#fff" fill-rule="nonzero"/>
<path d="m145 265c71.245 0 129-5.1487 129-11.5s-57.755-11.5-129-11.5c-71.245 0-129 5.1487-129 11.5s57.755 11.5 129 11.5z" fill="#ECF5FF" fill-rule="nonzero" opacity=".8"/>
<g transform="translate(5 36)" fill-rule="nonzero">
<path transform="translate(145 150) scale(-1 1) translate(-145 -150)" d="m13 122c4.7112 20.175 14.685 37.615 30.444 46.079 32.759 17.567 106.63 8.505 161.76-1.9033 27.859-5.2419 53.147-19.725 71.792-41.117l-264-3.0589z" fill="#F4F9FF" opacity=".6"/>
<path transform="translate(145 98) scale(-1 1) translate(-145 -98)" d="m5.6378 76c-1.138 11.49-0.75188 23.08 1.1483 34.468l260.14 9.5322c7.242-8.3449 13.322-17.634 18.075-27.614l-279.36-16.386zm102.89 24.587h-5.1221c1.4137 0 2.5597 1.148 2.5597 2.5641 0 1.4161-1.146 2.5641-2.5597 2.5641h-29.629c-0.9145 0-1.7595-0.48872-2.2168-1.2821s-0.45725-1.7708 0-2.5641 1.3023-1.2821 2.2168-1.2821h5.1221c-1.3823-0.044615-2.4799-1.18-2.4799-2.5654s1.0975-2.5208 2.4799-2.5654h-3.6575c-1.3823-0.044615-2.4799-1.18-2.4799-2.5654s1.0975-2.5208 2.4799-2.5654h29.629c1.3823 0.044615 2.4799 1.18 2.4799 2.5654s-1.0975 2.5208-2.4799 2.5654h3.6575c1.3823 0.044615 2.4799 1.18 2.4799 2.5654s-1.0975 2.5208-2.4799 2.5654z" fill="#ECF5FF" opacity=".5"/>
<path transform="translate(145 56) scale(-1 1) translate(-145 -56)" d="m289.87 38-283.09 6.8657c-3.4443 8.8224-5.715 18.791-6.7748 29.134h284.91c1.8596-6.0731 3.2354-12.283 4.1147-18.572 0.84784-6.0761 1.187-11.954 0.84519-17.428zm-232.4 22.488h-5.1056c0.91155-1e-7 1.7539 0.48468 2.2096 1.2715 0.45578 0.78679 0.45578 1.7562 0 2.5429-0.45578 0.78679-1.2981 1.2715-2.2096 1.2715h-29.534c-1.4091-1e-7 -2.5515-1.1385-2.5515-2.5429 0-1.4044 1.1423-2.5429 2.5515-2.5429h5.1056c-1.3779-0.044247-2.4719-1.1703-2.4719-2.5443s1.094-2.5 2.4719-2.5443h-3.6457c-1.3779-0.044247-2.4719-1.1703-2.4719-2.5443s1.094-2.5 2.4719-2.5443h29.534c1.3779 0.044247 2.4719 1.1703 2.4719 2.5443s-1.094 2.5-2.4719 2.5443h3.6457c1.3779 0.044247 2.4719 1.1703 2.4719 2.5443s-1.094 2.5-2.4719 2.5443z" fill="#ECF5FF" opacity=".3"/>
<path transform="translate(145 18) scale(-1 1) translate(-145 -18)" d="m278.91 21.265h-29.328c-1.3993 0-2.5336-1.1359-2.5336-2.5371 0-1.4012 1.1343-2.5371 2.5336-2.5371h5.0699c-1.3682-0.044146-2.4546-1.1676-2.4546-2.5384 0-1.3708 1.0864-2.4943 2.4546-2.5384h-3.6202c-1.3682-0.044146-2.4546-1.1676-2.4546-2.5384s1.0864-2.4943 2.4546-2.5384h15.307c-3.3966-1.5808-7.3667-2.7057-11.942-3.2959-41.738-5.3667-56.64-1.8152-61.896 1.8442-6.4854 4.5052-13.721 7.8195-21.453 9.4161-25.752 5.3193-73.912 11.721-117.56-2.0497-21.695-6.85-37.818 4.7212-47.484 24.049h278c-0.36308-5.617-1.4497-10.802-3.444-15.344-0.45819 0.39436-1.0428 0.6104-1.647 0.60859z" fill="#ECF5FF" opacity=".6"/>
</g>
<g transform="translate(6 183)">
<ellipse cx="42" cy="49" rx="7" ry="1" fill="#6C63FF" fill-rule="nonzero" opacity=".1"/>
<path d="m46.037 46.487c0.44603-0.36264 0.77137-0.85133 0.93322-1.4017 0.11908-0.55439-0.11908-1.2105-0.65131-1.4259-0.59784-0.22757-1.237 0.18641-1.723 0.60281-0.48605 0.4164-1.0377 0.89333-1.672 0.80375 0.66357-0.59855 0.96258-1.5004 0.7874-2.3749-0.027654-0.17812-0.10324-0.34544-0.21872-0.48419-0.33294-0.35346-0.93322-0.20336-1.3318 0.075049-1.2637 0.88606-1.6161 2.5977-1.6234 4.135-0.12637-0.55439-0.019442-1.133-0.021872-1.6947-0.0024302-0.56166-0.1604-1.2105-0.64159-1.5082-0.29862-0.15887-0.6337-0.23732-0.9721-0.22757-0.56868-0.021788-1.2005 0.036314-1.5894 0.44787-0.48605 0.51566-0.35725 1.3775 0.063187 1.9367s1.0572 0.92238 1.6429 1.3121c0.47136 0.27915 0.87342 0.66064 1.1762 1.1161 0.034406 0.064591 0.06366 0.13178 0.087489 0.20094h3.5603c0.79666-0.40346 1.5349-0.91244 2.1945-1.5131z" fill="#4A90E2" fill-rule="nonzero"/>
<ellipse cx="13" cy="55" rx="13" ry="2" fill="#6C63FF" fill-rule="nonzero" opacity=".1"/>
<path d="m12.412 49s-3.5846-12.531 0.67053-21.753c1.8114-3.8572 2.3589-8.2158 1.5603-12.421-0.39399-1.9917-0.96494-3.9418-1.7056-5.8257" stroke="#535461" stroke-width="2"/>
<path d="m16 3.1035c0 1.7687-2.9986 6.8965-2.9986 6.8965s-3.0014-5.1399-3.0014-6.8965c0.049829-1.7292 1.3783-3.1035 3-3.1035s2.9502 1.3743 3 3.1035z" fill="#80BBFF" fill-rule="nonzero"/>
<path d="m20.593 10.368c-0.83319 1.3319-5.5931 3.6322-5.5931 3.6322s0.086736-5.4253 0.92255-6.7545c0.85399-1.282 2.5417-1.6294 3.8069-0.78365 1.2652 0.84578 1.6481 2.5773 0.86373 3.9059z" fill="#80BBFF" fill-rule="nonzero"/>
<path d="m20.455 26.604c-1.3408 0.73175-6.4547 0.22537-6.4547 0.22537s2.6661-4.755 4.0069-5.4867c0.87038-0.49931 1.9219-0.44995 2.7492 0.12904 0.82725 0.57899 1.3009 1.5972 1.2384 2.6619s-0.65149 2.0097-1.5398 2.4704z" fill="#80BBFF" fill-rule="nonzero"/>
<path d="m18.723 37.774c-1.283 0.85329-6.7234 1.226-6.7234 1.226s2.0036-4.5582 3.2757-5.4115c0.82499-0.60743 1.9553-0.75739 2.9406-0.39013 0.98526 0.36726 1.6653 1.192 1.7691 2.1457 0.1038 0.95363-0.38551 1.8811-1.2729 2.4128l0.010919 0.017164z" fill="#80BBFF" fill-rule="nonzero"/>
<path transform="translate(10.5 14.5) rotate(-20) translate(-10.5 -14.5)" d="m7.884 15.822c1.0799 1.0681 6.116 2.1781 6.116 2.1781s-1.2345-5.0937-2.3196-6.1644c-0.69361-0.7218-1.7172-1.0037-2.6736-0.73634-0.95639 0.26737-1.6951 1.0419-1.9294 2.0232-0.23437 0.98124 0.072448 2.0147 0.80142 2.6994h0.0051547z" fill="#80BBFF" fill-rule="nonzero"/>
<path d="m5.4655 29.6c1.3573 0.73827 6.5345 0.22738 6.5345 0.22738s-2.6991-4.7946-4.0564-5.5356c-1.3521-0.69897-2.9737-0.1019-3.6484 1.3433-0.67467 1.4452-0.1545 3.2075 1.1703 3.9649z" fill="#80BBFF" fill-rule="nonzero"/>
<path d="m4.946 41.742c1.1557 0.87292 6.054 1.2578 6.054 1.2578s-1.8024-4.6766-2.9508-5.552c-1.155-0.78821-2.7114-0.51073-3.5377 0.63073-0.82632 1.1415-0.63193 2.7454 0.44185 3.6458l-0.007377 0.017609z" fill="#80BBFF" fill-rule="nonzero"/>
<path d="m4 49.95s4.5868-1.0081 5.8085-2.3513c1.2217-1.3432 6.7248-3.6945 7.3357-2.0163s8.252 7.3891 3.0543 8.3972c-5.1977 1.0081-12.225 1.3432-13.752 0.67012-1.5272-0.67308-2.4461-4.6997-2.4461-4.6997z" fill="#A8A8A8" fill-rule="nonzero"/>
<path d="m20.208 53.381c-5.1954 0.99092-12.226 1.3203-13.754 0.66158-1.1629-0.5042-1.9721-2.9145-2.2909-4.0424l-0.16345 0.037888s0.91904 3.9608 2.4463 4.6194 8.5581 0.32934 13.754-0.65867c1.5005-0.29145 1.9292-0.95886 1.7684-1.807-0.12057 0.55083-0.64306 0.97635-1.7604 1.1891z" fill="#000" fill-rule="nonzero" opacity=".2"/>
</g>
<g transform="translate(257 214)" fill-rule="nonzero">
<ellipse cx="12" cy="30.938" rx="12" ry="2.0625" fill="#6C63FF" opacity=".1"/>
<path d="m9.7804 11.362c0.65459-5.6128 2.2265-11.362 2.2265-11.362 0.46857 0.68532 1.1802 4.9624 1.5444 9.5517 1.0062-2.2977 2.5774-4.0228 2.815-4.1384-0.0028253 0-0.022464 3.219-0.45651 6.8224 0.0065863-0.0089739 0.01317-0.017937 0.019749-0.02689 1.0703-1.4064 2.3189-2.6581 3.7125-3.7215 0.043154 6.7156-3.4593 10.641-5.1936 12.171 1.6395-1.3258 6.9974-5.8018 7.3992-7.9883 0 0 0.30027 8.3044-7.3949 9.2897l-0.47085-0.91009c-0.30044 0.23856-0.48183 0.35553-0.48183 0.35553l-0.18016-0.042226-0.28369-0.062084c-0.2256 0.2169-0.48462 0.395-0.76727 0.52657-0.11976 0.056963-0.24515 0.10038-0.37398 0.12949-0.23707 0.058911-0.44175 0.068509-0.6166 0.033721-0.19109 0.041417-0.39179 0.031088-0.58176-0.033721-0.4285-0.10319-0.80352-0.33105-1.1313-0.65943l-0.29908 0.065452-0.18016 0.042226s-4.7716-3.9974-4.7116-12.918c0.63945 1.3147 1.4029 2.5612 2.2793 3.7215 0.26453 0.36059 0.53393 0.73829 0.80265 1.1287-0.1935-4.0215 0.19917-7.9243 0.19917-7.9243 0.25387 0.12386 0.54595 2.086 1.5887 4.6223 0.17802 0.42773 0.35781 0.87178 0.53606 1.326zm-7.6143 1.3089c0.47771 2.5842 6.4422 8.3664 6.4422 8.3664l-0.47771 0.92334c-7.6924-0.98527-5.9645-9.2897-5.9645-9.2897z" fill="#3792FC"/>
<path d="m9.7804 11.362c0.65459-5.6128 2.2265-11.362 2.2265-11.362 0.46857 0.68532 1.1802 4.9624 1.5444 9.5517 1.0062-2.2977 2.5774-4.0228 2.815-4.1384-0.0028253 0-0.022464 3.219-0.45651 6.8224 0.0065863-0.0089739 0.01317-0.017937 0.019749-0.02689 1.0703-1.4064 2.3189-2.6581 3.7125-3.7215 0.043154 6.7156-3.4593 10.641-5.1936 12.171 1.6395-1.3258 6.9974-5.8018 7.3992-7.9883 0 0 0.30027 8.3044-7.3949 9.2897l-0.47085-0.91009c-0.30044 0.23856-0.48183 0.35553-0.48183 0.35553l-0.18016-0.042226-0.28369-0.062084c-0.2256 0.2169-0.48462 0.395-0.76727 0.52657-0.11976 0.056963-0.24515 0.10038-0.37398 0.12949-0.23707 0.058911-0.44175 0.068509-0.6166 0.033721-0.19109 0.041417-0.39179 0.031088-0.58176-0.033721-0.4285-0.10319-0.80352-0.33105-1.1313-0.65943l-0.29908 0.065452-0.18016 0.042226s-4.7716-3.9974-4.7116-12.918c0.63945 1.3147 1.4029 2.5612 2.2793 3.7215 0.26453 0.36059 0.53393 0.73829 0.80265 1.1287-0.1935-4.0215 0.19917-7.9243 0.19917-7.9243 0.25387 0.12386 0.54595 2.086 1.5887 4.6223 0.17802 0.42773 0.35781 0.87178 0.53606 1.326zm-7.6143 1.3089c0.47771 2.5842 6.4422 8.3664 6.4422 8.3664l-0.47771 0.92334c-7.6924-0.98527-5.9645-9.2897-5.9645-9.2897z" fill="#000" opacity=".1"/>
<path d="m2.387 12.723s-1.0127 8.3044 6.6797 9.2897l0.47771-0.92334s-6.6797-5.7821-7.1574-8.3664z" fill="#2D8EFF"/>
<path d="m11.998 21.024-1.788 0.39129-0.18016 0.042226s-5.4868-3.9974-5.4268-12.918c0 0 1.4058 1.5539 3.0027 3.7215 1.8781 2.5786 4.0264 6.0327 4.3922 8.7633z" fill="#2D8EFF"/>
<path d="m11.998 21.024-1.788 0.39129c-1.6952-1.5342-2.3694-5.5429-2.6124-9.1546 1.8863 2.5786 4.0346 6.0327 4.4004 8.7633z" fill="#000" opacity=".1"/>
<path d="m12.596 21.88c-0.28533 0.19221-0.64004 0.23988-0.9636 0.12949-4.5942-1.1063-3.7561-16.544-3.7561-16.544 0.25387 0.12386 1.2475 2.086 2.3039 4.6223 1.8535 4.4534 3.8899 10.675 2.4158 11.792z" fill="#2D8EFF"/>
<path d="m22.069 12.723s1.0155 8.3044-6.6797 9.2897l-0.47498-0.92334s6.6797-5.7821 7.1547-8.3664z" fill="#2D8EFF"/>
<path d="m19.863 8.5396c0.057325 8.9209-5.4268 12.918-5.4268 12.918l-0.18016-0.042226-1.788-0.39129c0.35487-2.7391 2.5086-6.1931 4.3976-8.7633 1.5914-2.1676 2.9973-3.7215 2.9973-3.7215z" fill="#2D8EFF"/>
<path d="m16.866 12.261c-0.2293 3.3781-0.81893 7.0771-2.2793 8.8111-0.10034 0.12404-0.21085 0.23894-0.3303 0.34344l-1.788-0.39129c0.34941-2.7306 2.5086-6.1847 4.3976-8.7633z" fill="#000" opacity=".1"/>
<path d="m14.229 21.072c-0.27601 0.34735-0.62642 0.62391-1.0237 0.80792-0.12087 0.056538-0.24712 0.099937-0.37671 0.12949-1.1301 0.28151-1.5259-0.56301-1.4604-1.9959 0.10646-2.5336 1.657-6.9532 3.0491-10.252 1.0018-2.3759 1.9108-4.1775 2.1674-4.2958-0.0027297 0 0.64695 12.02-2.3558 15.607z" fill="#2D8EFF"/>
<path d="m12.596 21.88c-0.26021-4.255e-4 -0.51389-0.084022-0.72611-0.23928-2.162-1.3878-2.2056-6.5985-1.6897-11.542 1.8535 4.4422 3.8899 10.663 2.4158 11.781z" fill="#000" opacity=".1"/>
<path d="m14.229 21.072c-0.24841 0.56301-0.58417 0.84452-1.0237 0.80792-0.22088-0.029248-0.4321-0.11117-0.61692-0.23928-0.56086-0.39838-0.98737-0.96712-1.2202-1.6271 0.10646-2.5336 1.657-6.9532 3.0491-10.252 0.49409 4.5914 0.65787 9.4333-0.18835 11.311z" fill="#000" opacity=".1"/>
<path d="m12.228 0.052235s-4.4113 18.76 0 21.589c4.4113 2.8291 1.1356-19.928 0-21.589z" fill="#2D8EFF"/>
<polygon points="21 21.656 3 21.656 3 24.729 5.7445 24.729 5.8141 25.091 6.9135 31.057 17.378 31.057 18.477 25.091 18.544 24.729 21 24.729" fill="#4B4770"/>
<polygon points="21 20.625 3 20.625 3 23.996 5.7445 23.996 5.8141 24.392 6.9135 30.938 17.378 30.938 18.477 24.392 18.544 23.996 21 23.996" fill="#000" opacity=".1"/>
<polygon points="19 22.688 18.684 24.75 5.319 24.75 5 22.688" fill="#000" opacity=".1"/>
<rect x="3" y="20.625" width="18" height="3.0938" fill="#4B4770"/>
</g>
<g transform="translate(123 73)" fill-rule="nonzero">
<path d="m42.813 72.577s-0.85871 7.0363 5.952 7.7566l1.0253-4.8703-2.1455-2.8863-3.0734-1.0407-1.7584 1.0407z" fill="#77B6FF"/>
<path d="m44.572 71.536-1.7584 1.0381s-0.85871 7.0363 5.952 7.7566" fill="#000" opacity=".1"/>
<path d="m55.171 32.792s-4.596 0.28196-9.2048 1.0458c-0.47165 0.080317-0.94073 0.16576-1.4073 0.25633-0.27171 0.051266-0.53829 0.1051-0.80488 0.16405-2.4146 0.49728-4.614 1.1432-5.8956 1.9686-1.538 0.98687-2.0506-1.6713-2.0993-5.365-0.020506-1.2996 0.02307-2.7248 0.092279-4.1654 0.089716-1.6661 0.22044-3.3528 0.35886-4.8703 0.30503-3.3631 0.65621-5.9776 0.65621-5.9776s1.6098 0 3.7604-0.074336l0.69209-0.025633c0.67415-0.025633 1.3893-0.061519 2.1096-0.1051 0.34092-0.017943 0.6844-0.03845 1.0253-0.064083 1.3637-0.097406 2.7094-0.23582 3.845-0.41526 1.2099-0.19481 2.1916-0.44089 2.7248-0.76899 2.4351-1.4508 4.1474 18.397 4.1474 18.397z" fill="#F8BDC5"/>
<path d="m75.649 58.774-0.89716 5.9546s-1.9558 2.4351-1.6995 3.7886 2.512 61.166 2.512 61.166 4.4217 25.259 2.8863 28.507c-1.5354 3.2477-0.089716 10.827-0.089716 10.827l9.2023-1.4431 3.076-110.42-14.99 1.6251z" fill="#474463"/>
<path d="m75.649 58.774-0.89716 5.9546s-1.9558 2.4351-1.6995 3.7886 2.512 61.166 2.512 61.166 4.4217 25.259 2.8863 28.507c-1.5354 3.2477-0.089716 10.827-0.089716 10.827l9.2023-1.4431 3.076-110.42-14.99 1.6251z" fill="#000" opacity=".1"/>
<path d="m95.948 170.55c-0.29222 0.48446-0.26915 1.9097-0.18712 3.1221 0.071772 1.0433 0.18712 1.9302 0.18712 1.9302v6.134s-9.8328-3.4271-15.247-7.0363c-2.2326-1.4893-2.8683-2.8735-2.7453-3.9808 0.17943-1.5764 1.8968-2.6043 2.7453-2.6043 0.81 0 3.3682-1.4124 5.465-2.6607 1.6482-0.97662 3.017-1.8507 3.017-1.8507s7.3054 6.0443 6.7646 6.9466z" fill="#575988"/>
<path d="m95.948 170.55c-0.29222 0.48446-0.26915 1.9097-0.18712 3.1221-2.1865-1.0253-8.9562-7.5925-9.5945-8.218 1.6482-0.97662 3.017-1.8507 3.017-1.8507s7.3054 6.0443 6.7646 6.9466z" fill="#000" opacity=".1"/>
<path d="m116.16 62.924-2.3454 8.6614s-1.3534 2.6146-1.538 3.8783c-0.18456 1.2637-1.4431 3.158-1.4431 3.158-0.56963 1.2468-0.87675 2.5975-0.90228 3.968-0.089716 2.4377-1.7943 13.714-3.6988 15.608l-0.45114 7.308s-1.7943 1.2611-0.54086 3.076c1.2535 1.8148 0.81257 6.4954 0.81257 6.4954s-1.7149 1.3534-0.63057 2.7069c1.0843 1.3534 0.35886 5.324 0.35886 5.324s-0.992 1.2611-0.54086 1.984-0.44602 19.307-0.44602 19.307l-2.1686 9.11s-0.99456 7.5797-1.538 9.8354-0.54086 5.0497-0.54086 5.0497-2.3454 4.9626-4.0603 4.6934c-1.7149-0.26915-10.012-8.3923-10.012-8.3923l1.1714-27.427s0.992-11.637 0.36143-13.893c-0.63057-2.2557-1.0817-13.532-1.0817-13.532l-1.2637-17.771-12.617-19.848s-0.9151-5.7751 1.6995-7.4874l0.47421-3.1195 0.42807-2.835 14.977-1.6251 22.913-5.952s1.7661 1.0894 2.6915 3.8091c0.63314 1.8328 0.87665 4.4166-0.06921 7.9104z" fill="#474463"/>
<path d="m95.948 180.46v1.2817s-9.8328-3.4271-15.247-7.0363c-2.2326-1.4893-2.8683-2.8735-2.7453-3.9808 2.9888 1.5124 8.5486 4.3961 10.233 5.6957 1.4303 1.1022 5.1266 2.8478 7.7591 4.0398z" fill="#fff" opacity=".3"/>
<g transform="translate(35 165)">
<circle cx="59" cy="19" r="3" fill="#474463"/>
<circle cx="28" cy="13" r="3" fill="#474463"/>
<path d="m71.995 13.475c-0.016867 0.21041-0.076949 0.41527-0.17661 0.60216l-1.7917 1.9224-25.042-0.39556-6.7341-0.10834s-14.175-2.5396-16.936-3.7238-13.619-3.3509-13.619-3.3509-6.5575-1.0834-7.5198-4.2151c-0.32506-1.0607-0.16125-1.8191 0.19452-2.3582 0.69875-1.0557 2.1474-1.2774 2.1474-1.2774 2.9591-0.8604 6.1229-0.74538 9.0095 0.32753l41.976 10.63 0.65011 0.16377s14.963-0.27462 15.265-0.22171c2.2959 0.41319 2.6312 1.3731 2.5774 2.0055z" fill="#2C8DFF"/>
<path d="m71.995 13.833c-2.5186-0.32821-6.9107-0.81282-8.042-0.34615 0 0-7.9882-0.98974-18.979 2.5128l-6.7238-0.11026s-14.175-2.5846-16.936-3.7897c-2.7617-1.2051-13.619-3.4103-13.619-3.4103s-6.5575-1.1026-7.5198-4.2897c-0.32506-1.0795-0.16125-1.8513 0.19452-2.4 0.44791 1.3077 1.3105 3.2026 2.6875 3.7333 2.1628 0.83333 11.052 2.5308 11.052 2.5308l17.594 4.3154s10.159 2.2077 14.113 0.76923c1.6202-0.58462 4.6609-1.1051 7.6785-1.5128l0.65011 0.16667s14.963-0.27949 15.265-0.22564c2.3036 0.4359 2.6389 1.4128 2.5851 2.0564z" fill="#fff" opacity=".3"/>
<path d="m48.188 10.919c-0.02137 0.37786-0.068473 0.75383-0.14098 1.1253 0 0-9.9661 0.3563-15.154-0.41269-1.4329-0.21275-2.2429-0.67159-2.6453-1.2201 1.3304-0.079462 3.0606-0.12304 4.132 0.13842 1.5277 0.37937 10.666 0.37937 13.809 0.36912z" fill="#000" opacity=".1"/>
<path d="m22.747 8.5278s-12.365-0.76899-14.214-2.0301c-0.16681-0.10963-0.30625-0.25608-0.40757-0.42807 2.5043 0.20506 6.68 0.55111 7.4336 0.74336 1.0843 0.25633 7.1773 0.63057 7.1773 0.63057h7.4925l0.035886 0.64339c0.32554 1.8148-7.5182 0.44089-7.5182 0.44089z" fill="#000" opacity=".1"/>
<circle cx="13" cy="13" r="3" fill="#474463"/>
<circle cx="46" cy="19" r="3" fill="#474463"/>
</g>
<path d="m49.939 75.825s-0.56905 1.0253-1.4252 2.5479c-2.0506 3.6194-5.7392 10.035-7.3259 12.065-2.2557 2.8863-2.0737 0.18199-4.5114-5.8623-1.8097-4.496 3.7604-9.6406 6.7389-11.978 1.0253-0.81257 1.743-1.2817 1.743-1.2817l4.7806 4.5089z" fill="#F8BDC5"/>
<path d="m45.3 27.56c0.92279 2.3608 0.34605 4.4166-0.7408 6.5262-2.7222 0.51266-5.283 1.2176-6.7082 2.1327-4.0603 2.6171-0.992-20.389-0.992-20.389s1.9635 0 4.4525-0.099969c-0.75361 3.44 2.1019 7.0106 3.9885 11.83z" fill="#000" opacity=".1"/>
<path d="m44.767 26.665c-0.009727 7.6285-5.744 14.034-13.325 14.885-7.5809 0.85109-14.593-4.1238-16.294-11.56-1.701-7.4364 2.4509-14.965 9.6478-17.494 7.197-2.5293 15.146 0.74663 18.471 7.6123 0.98988 2.0438 1.5027 4.2858 1.4998 6.5567z" fill="#F8BDC5"/>
<path d="m116.23 55.006c-0.48698 0.70863-1.2164 1.2146-2.0506 1.4226-3.5194 0.992-28.33 6.9466-29.952 6.5851-1.4329-0.31785-7.5823-1.2022-8.9998-1.4047l0.42807-2.835 14.977-1.6251 22.913-5.952s1.7584 1.0894 2.6838 3.8091z" fill="#000" opacity=".1"/>
<path d="m55.171 32.792c-2.9325 0.17578-5.8542 0.50088-8.7537 0.97406 0.041197-0.13194 0.035766-0.27403-0.01538-0.40244l5.9981-0.7408s-0.87665-14.098-4.1013-17.477c1.2099-0.19481 2.1916-0.44089 2.7248-0.76899 2.4351-1.4329 4.1474 18.415 4.1474 18.415z" fill="#000" opacity=".1"/>
<path d="m47.325 11.619s5.324-0.47934 6.0443-1.3816c0.72029-0.90228 5.8648-1.1714 5.8648-1.1714s2.5249-0.45114 3.076-1.0843c0.55111-0.63314 14.252-1.4431 15.605-0.72029s2.6171 1.1714 3.4297 1.2637c0.81257 0.092279 7.126 4.5986 7.7566 4.5986 0.63057 0 17.943 16.331 17.943 16.331s1.7943 4.15 2.5274 4.3294c0.73311 0.17943 7.2183 16.6 7.2183 16.6s0.90228 3.968-2.6146 4.9626c-3.5169 0.99456-28.33 6.9466-29.952 6.5851-1.6226-0.36143-9.292-1.4431-9.292-1.4431s0.089716 0-0.089716-0.992-0.45114-0.72285-0.092279-1.6251c0.35886-0.90228 0.72285-0.81257 0.27171-1.3534-0.45114-0.54086 0-0.81257-1.4431-1.7149s-3.076-1.8943-3.158-2.1634c-0.082026-0.26915-1.3534-2.0763-1.984-2.166-0.63057-0.089716-18.315-5.0523-18.315-5.0523l-4.15-1.3534s-1.984-1.3534-1.538-2.1634c0.44602-0.81 1.9814-8.1385 1.9814-8.1385l6.3442-0.78181s-0.94586-15.277-4.4986-17.841c-3.5527-2.5633-0.93561-3.5245-0.93561-3.5245z" fill="#77B6FF"/>
<path d="m49.939 75.825s-0.56905 1.0253-1.4252 2.5479c-0.13329-4.7062-3.4246-5.6188-5.0984-5.7751 1.0253-0.81257 1.743-1.2817 1.743-1.2817l4.7806 4.5089z" fill="#000" opacity=".1"/>
<path d="m45.53 41.633 0.43576 2.4351s1.7149 2.0763 1.7149 2.7069c0 0.63057 1.984 2.4351 2.5274 3.4271 0.54342 0.992 2.4351 1.174 1.7123 2.8888-0.72285 1.7149-4.8703 14.795-4.8703 14.795l-4.2397 4.6908s7.0363-0.63314 5.952 7.7566l9.1126-7.9462 7.1362-12.983s-6.9466-13.17-7.2157-14.252c-0.26915-1.0817-12.265-3.5194-12.265-3.5194z" fill="#77B6FF"/>
<path d="m66.629 46.144s5.7726-4.0603 5.7726-4.5114c0-0.45114-5.7726 4.5114-5.7726 4.5114z" fill="#000" opacity=".1"/>
<path d="m76.29 51.197s3.076-0.72285 3.3323-2.3454-3.3323 2.3454-3.3323 2.3454z" fill="#000" opacity=".1"/>
<path d="m78.807 55.347s4.332-2.1455 4.15-2.5172c-0.18199-0.37168-4.15 2.5172-4.15 2.5172z" fill="#000" opacity=".1"/>
<path d="m101.99 41.605s-1.7943 1.1714-1.2611 2.2685c0.53317 1.0971 1.2611-2.2685 1.2611-2.2685z" fill="#000" opacity=".1"/>
<path d="m107.31 42.084s-5.1112 4.8703-3.9552 4.9626 3.9552-4.9626 3.9552-4.9626z" fill="#000" opacity=".1"/>
<path d="m95.679 117.59s6.5851 1.2637 6.7646 1.7149c0.17943 0.45114-6.7646-1.7149-6.7646-1.7149z" fill="#000" opacity=".1"/>
<path d="m98.024 121.92s3.5169 2.166 3.6066 2.7966-3.6066-2.7966-3.6066-2.7966z" fill="#000" opacity=".1"/>
<path d="m97.212 126.8s0.54086 2.4351 1.4431 2.7966-1.4431-2.7966-1.4431-2.7966z" fill="#000" opacity=".1"/>
<path transform="translate(22.218 24.419) scale(-1 1) rotate(60) translate(-22.218 -24.419)" d="m11.414 25.627c2.7084-2.0118 8.165-0.31196 9.9132 0.33477 6.6602 2.464 13.823 6.3202 17.341-0.716 2.2385-4.477 4.9351-9.3766 2.2208-12.338-2.2208 3.9481-19.565-1.7273-23.688-1.7273-3.6447 0-10.676 1.5697-13.325 6.6623-2.6482 5.0927-1.4983 18.397 1.7074 19.814 0.74026-2.7143 3.1222-10.018 5.8306-12.03z" fill="#242548" stroke="#242548" stroke-linecap="round" stroke-linejoin="round" stroke-width="3"/>
<g transform="translate(36 43)">
<g transform="translate(0 25)">
<path d="m46.976 108.8c-0.021022 0.37465-0.067357 0.74742-0.13868 1.1157 0 0-9.8036 0.35327-14.907-0.40918-1.4095-0.21094-2.2063-0.66587-2.6022-1.2098-0.35919-0.52226-0.42862-1.1933-0.18407-1.779 0.056433-0.16568 0.12819-0.32565 0.21433-0.4778 0.38075-0.67096 0.96574-1.1462 1.286-1.0827 0.88757 0.18045 2.4106-1.6545 2.4106-1.6545-0.12103-1.1208 1.6264-1.5249 1.8987-1.3419 0.098809 0.076669 0.23025 0.095558 0.34638 0.049778s0.19998-0.14954 0.22096-0.27343c0.017651-0.08387 0.022694-0.48797 0.022694-0.96069 0-0.78786-0.022694-1.779-0.022694-1.779l9.854 1.2072 0.39083 1.8985c0.35805 1.6926 0.85731 4.0181 1.0716 4.8136 0.149 0.61574 0.19586 1.2521 0.13868 1.8832z" fill="#474463"/>
<path d="m28.997 105.11c0.02194 0.18757-0.060808 0.37199-0.21505 0.47929-1.2448 0.96877-7.2181-0.08413-7.2181-0.08413s-12.205-0.76482-14.029-2.0191c-0.16465-0.10904-0.30227-0.25469-0.40227-0.42575-0.759-1.3818 1.9886-3.7017 2.2264-3.7017 0.23782 0 3.5192-0.45124 3.7394-0.49458 1.518-0.30848 3.036-1.2569 3.289-0.98662 0.253 0.27024 1.518-0.35947 2.1353-0.44869 0.22517-0.033142 0.3289-0.35437 0.36685-0.76482 0.035582-0.55542 0.016939-1.113-0.05566-1.6648l9.7481 2.6437 0.08602 1.5653 0.28083 5.211 0.03542 0.6399c0.0061198 0.016458 0.010364 0.033564 0.01265 0.050988z" fill="#474463"/>
<path d="m24.854 14.771s-7.4874 0.63057-8.9306 1.0817c-1.4431 0.45114-7.6668 0.17943-8.2026 0s-11.189 2.2557-6.316 4.6908 7.9462 0 7.9462 0 6.316-0.36143 7.9462 0.63314c1.6303 0.99456 7.5771 0.45114 7.5771 0.45114l-0.020506-6.8568z" fill="#FFC1C8"/>
<path d="m27.921 97.955 0.078724 1.7494c-0.94237 0.25643-2.7345 0.59263-3.7787-0.19375-1.3499-1.0172-3.3435-1.265-5.1703-2.6498 0.032564-0.62073 0.015503-1.2439-0.050939-1.8605l8.9213 2.9546z" fill="#000" opacity=".1"/>
<path d="m45.377 102.04c-0.066486 0.18936-0.12805 0.30546-0.12805 0.30546s-7.0227-0.783-9.2265-1.376c0-0.42847-0.022162-0.96752-0.022162-0.96752l9 1 0.37675 1.038z" fill="#000" opacity=".1"/>
<path d="m42.951 65.003c-0.53314 1.4581-0.80098 1.7326-0.26531 2.4604 0.53567 0.72776 0.26531 4.5582-0.58368 4.9208-0.84899 0.36259-4.0428 2.5511-4.0428 2.5511s1.7687 2.3698 1.8218 3.3669c0.046464 0.63706 0.28686 1.2431 0.68727 1.7326 0 0 2.739 6.0163 3.2848 7.9303 0.54578 1.9139 1.0461 4.9208 1.0461 4.9208s-0.95763 2.7349-0.29563 4.2863c0.66201 1.5514 0 3.8279 0 3.8279s-9.5536-1.0023-10.612-2.2895c-1.0587-1.2872-0.35374-4.1827-0.35374-4.1827-0.21832-1.2903-0.67085-2.5273-1.3341-3.6466-1.0688-1.7326 0.25267-3.5533 0-3.6466-0.25267-0.093236-1.0688-1.0929-1.8723-2.7323-0.8035-1.6394-1.3038-1.0049-1.3038-1.0049s1.041 9.2071 0 10.028-1.1825 0.45582-0.91468 1.5539c0.20751 1.054 0.35599 2.1193 0.44471 3.1908 0 0-3.2014 1.0023-4.8008 0-1.5994-1.0023-4.0074-1.1862-6.1223-2.7349s0.95763-4.1931 1.4908-4.5582-0.17687-5.6512-0.17687-5.6512l-0.71254-5.1953s2.4004 0.54647 1.6121-1.4581c-0.78834-2.0046-1.7005-8.9326-2.1452-10.026-0.44471-1.0929 1.516-2.5536 1.2457-3.2814s1.1547-4.9208 1.1547-4.9208 0.090963-3.4627 0.97785-4.1128c0.33858-0.24345 0.55841-0.9997 0.70496-1.8362 0.15549-0.98726 0.24749-1.9839 0.27541-2.9836 0 0 20.363-1.4581 23.653 0.54647 1.4807 0.90129 1.3771 2.5614 0.75802 4.2423-0.75802 2.0512-2.3145 4.1438-2.7061 4.9027-0.73528 1.3985-0.38154 2.3413-0.91468 3.7994z" fill="#575988"/>
<path d="m47.808 56.769c-2.5633 0.72029-5.9776 1.7789-6.5339 2.3864-0.90228 0.99456-3.9706-5.5931-3.9706-5.5931s0.18199 4.9523-3.8783 2.8812c-3.5143-1.7943-9.1869-1.5585-10.653-1.4611 0.15774-0.97712 0.25107-1.9636 0.2794-2.9529 0 0 20.658-1.4431 23.995 0.54086 1.5021 0.89203 1.397 2.5351 0.7613 4.1987z" fill="#000" opacity=".1"/>
<path d="m37.795 2.2453s1.8508-2.1852 2.2342-1.3654c0.38338 0.81978 2.5673 2.4568 2.5673 2.4568s0.62662 1.9111 1.7292 2.1852c1.1025 0.27412 9.3835 11.195 9.3835 11.195l-2.9798 5.9143-2.4192 14.381s0.10576 2.2757-0.55259 3.1033c-0.65835 0.82754-3.1728 0.63617-2.0068 1.637 1.166 1.0008 2.8396 1.9111 3.7703 6.4652 0.93068 4.5541 2.0464 7.1893 2.0464 7.1893s-8.7463 2.1852-9.6769 3.186c-0.93068 1.0008-4.0955-5.6428-4.0955-5.6428s0.18772 4.9937-4.0003 2.9067c-4.1881-2.087-11.353-1.4508-11.353-1.4508v-5.379s1.396-2.0947 0.65306-3.5507c-0.74296-1.456 0.50764-4.1868 0.50764-4.1868s-0.4151-2.8214-1.1607-4.4584c-0.7456-1.637-0.46534-9.3745-0.46534-9.3745s-0.56581-5.0066-0.050235-7.5565c0.43752-2.2101 1.2102-4.3439 2.2923-6.3307 1.0232-1.9499 1.671-3.7705 1.3934-4.4998s2.4563-2.3068 2.4563-2.3068l1.515 2.3973 0.38602 1.4327s8.0139-5.6169 7.8262-8.3478z" fill="#DCE6F2"/>
<path d="m50.287 14.771s5.0523 4.96 5.5931 5.7726c0.54086 0.81257 2.3531 5.0369 0.00769 6.3185-2.3454 1.2817-11.535 3.258-12.447 2.5761-0.91254-0.68184-6.4083 0.76899-6.4083 0.76899s-9.192 2.2557-7.208-1.4431 6.6774-3.076 6.6774-3.076 7.5823-0.012816 8.3923-0.76899c0.81-0.75618 6.9209-2.3787 5.5367-5.7213s-0.14355-4.4268-0.14355-4.4268z" fill="#FFC1C8"/>
<path d="m35 37s-11.02 10-9.9232 10 9.9232-10 9.9232-10z" fill="#000" opacity=".1"/>
<path d="m44 41s-4.8105 1.1705-3.8807 1.8775c0.92979 0.70699 3.8807-1.8775 3.8807-1.8775z" fill="#000" opacity=".1"/>
<path d="m31 16s4.7362 0.37161 3.9013 1.6711c-0.83488 1.2995-3.9013-1.6711-3.9013-1.6711z" fill="#000" opacity=".1"/>
<path d="m27.159 60.209s-0.53767 1.8039 0 2.7714c0.53767 0.96748 0 3.2753 0 3.2753v8.0623s-0.074011 5.8527 1.761 7.891l-1.761-22z" fill="#000" opacity=".1"/>
<path d="m21 82.965s2.572-1.6093 2.9676-0.67119c0.39568 0.93814-2.9676 0.67119-2.9676 0.67119z" fill="#000" opacity=".1"/>
<path d="m20.475 93.121s-0.83542 0.063586 0.83293 0.72669c1.6684 0.66311 4.9153 1.5024 4.9577 1.2154s-5.7906-1.9421-5.7906-1.9421z" fill="#000" opacity=".1"/>
<path d="m33 82.043c0.30247 0 4.0782-0.22557 3.8603 0.36143-0.21788 0.587-3.8603-0.36143-3.8603-0.36143z" fill="#000" opacity=".1"/>
<path d="m38 83s1.4089-1.4691 1.9278-0.84601c0.51885 0.62311-1.9278 0.84601-1.9278 0.84601z" fill="#000" opacity=".1"/>
</g>
<g transform="translate(6)">
<path d="m35 29c1 0.38991-12.46 12.71-12 9 0.28764-2.3302 0.40306-3.8303-0.75271-5.6294-0.68248-1.0701-1.2473-2.3706-1.2473-2.3706l6.9948-9.8457c0.76562 1.5566 1.434 2.8385 2.0052 3.8457 2.1356 3.7656 4 4.6101 5 5z" fill="#FFC1C8"/>
<path d="m30 24c-0.071681 0.37885-0.61858 0.42178-0.73009 0.79052-1.0619 3.5637-3.6646 5.8961-7.2699 7.2095-0.69292-1.038-1-2.2826-1-2 0 0.18838 2.3333-3.145 7-10 0.84661 2 1.5133 3.3333 2 4z" fill="#000" opacity=".1"/>
<path d="m28.632 19.694c0.0010012 4.6515-2.8002 8.8455-7.0973 10.626s-9.2438 0.79747-12.533-2.4913c-3.2894-3.2887-4.2738-8.2352-2.494-12.533 1.7798-4.2975 5.9732-7.0996 10.625-7.0996 3.0529-0.01123 5.9841 1.1964 8.1431 3.3549 2.159 2.1585 3.3673 5.0894 3.3567 8.1424z" fill="#FFC1C8"/>
<path transform="translate(16.416 17.035) scale(-1 1) rotate(60) translate(-16.416 -17.035)" d="m12.377 29.035c0.3232-2.4006 0.28568-4.1281-0.11256-5.1825-1.0072-2.6668-0.80276-4.621-0.80276-5.7101 0-1.2911 2.6691-0.84017 4.4026-2.4642 1.761-1.6498 0.72716-3.9092 2.7126-4.6611 1.9855-0.75194 4.7399 0.95612 5.1547 1.0403 0.41483 0.084214-0.39085-1.9675 0.76109-1.3078 0.76796 0.43986 2.0749 1.7696 3.9207 3.9893 0.058883-4.2971-1.2936-7.2371-4.0574-8.8201-4.1457-2.3745-18.999-0.28027-19.917 10.161-0.21207 2.4129 0.95715 6.0724 4.6641 10.349 0.53728 0.61978 1.6285 1.4885 3.2738 2.6063z" fill="#824A3A" stroke="#824A3A" stroke-linecap="round" stroke-linejoin="round" stroke-width="3"/>
</g>
</g>
<path d="m78.356 82.771s-13.26 12.268-10.556 18.402c2.7043 6.134 14.611-4.6908 14.611-4.6908l4.2448-9.8226-8.3-3.8885z" fill="#F8BDC5"/>
<path d="m62.479 20.342s-4.8703 8.8408 1.7943 13.352 7.308 4.0603 7.308 4.0603-0.092279 1.0817 0 1.3534c0.092279 0.27171 1.7943 0.89972 1.7943 0.89972s2.0737 3.3323 5.0497 4.7831c2.976 1.4508 3.5194 4.8703 3.5194 4.8703s0 1.174 1.538 2.2557c1.538 1.0817 2.7222 4.2397 2.7222 4.2397v2.8888c0 0.45114 0.54086 1.7943-0.63057 1.9379s-0.18199 2.8427-0.18199 2.8427-1.2611 1.538-0.992 2.2557c0.26915 0.71773-0.54086 2.1634-0.54086 2.1634s-0.992 1.4431-0.90228 1.7149c0.089716 0.27171-1.0817 1.2637-0.81257 1.8943 0.26915 0.63057-1.3509 1.4431-1.0817 2.166 0.26915 0.72285-1.1535 1.0817-1.1535 1.0817l-3.8988 9.0228s8.2026 1.7943 10.32 6.3134l10.34-18.945s5.7726-14.162 5.9546-15.065c0.18199-0.90228-1.2637-4.15-1.2637-4.15l-7.0363-12.817-10.556-14.885s-8.3897-17.856-21.291-4.2346z" fill="#000" opacity=".1"/>
<path d="m72.894 24.072s-12.673 4.4473-5.9981 8.9588c6.6748 4.5114 7.308 4.0577 7.308 4.0577s-0.089716 1.0843 0 1.3534c0.089716 0.26915 1.7943 0.90228 1.7943 0.90228s2.0763 3.3323 5.0523 4.7831c2.976 1.4508 3.5194 4.8703 3.5194 4.8703s0 1.174 1.538 2.2557c1.538 1.0817 2.7069 4.2397 2.7069 4.2397v2.8863c0 0.45114 0.54086 1.7943-0.63314 1.9404-1.174 0.14611-0.17943 2.8427-0.17943 2.8427s-1.2637 1.538-0.992 2.2531c0.27171 0.71516-0.54086 2.166-0.54086 2.166s-0.992 1.4431-0.90228 1.7149c0.089716 0.27171-1.0843 1.2637-0.81257 1.8943 0.27171 0.63057-1.3534 1.4431-1.0817 2.166 0.27171 0.72285-1.1561 1.0817-1.1561 1.0817l-3.8962 9.0203s6.7569 0.34861 8.8895 4.8703l11.768-17.489s5.7751-14.162 5.9546-15.065c0.17943-0.90228-1.2586-4.1602-1.2586-4.1602l-7.0363-12.817-16.051-9.2587s4.9087-19.092-7.9924-5.4675z" fill="#000" opacity=".053125"/>
<path d="m63.202 20.342s-4.8703 8.8408 1.7943 13.352 7.308 4.0603 7.308 4.0603-0.089716 1.0817 0 1.3534c0.089716 0.27171 1.7943 0.89972 1.7943 0.89972s2.0763 3.3323 5.0523 4.7831 3.5194 4.8703 3.5194 4.8703 0 1.174 1.538 2.2557c1.538 1.0817 2.7197 4.2397 2.7197 4.2397v2.8888c0 0.45114 0.54086 1.7943-0.63314 1.9379s-0.17943 2.8427-0.17943 2.8427-1.2637 1.538-0.992 2.2557c0.27171 0.71773-0.54086 2.1634-0.54086 2.1634s-0.992 1.4431-0.90228 1.7149-1.0843 1.2637-0.81257 1.8943c0.27171 0.63057-1.3534 1.4431-1.0817 2.166 0.27171 0.72285-1.1561 1.0817-1.1561 1.0817l-3.8962 9.0228s8.1872 1.7943 10.317 6.3134l10.34-18.945s5.7751-14.162 5.9546-15.065c0.17943-0.90228-1.2637-4.15-1.2637-4.15l-7.0363-12.817-10.553-14.88s-8.3923-17.861-21.291-4.2397z" fill="#77B6FF"/>
</g>
<g transform="translate(50 55)" fill-rule="nonzero">
<g transform="translate(6.8862 89.207)">
<path d="m21.762 101.16-2.4609 2.4609s-8.7498 4.6484-7.6561-1.6406c0.29919-1.8695 0.36258-3.7693 0.18867-5.6546-0.22599-2.6315-0.7479-5.2291-1.5558-7.7436l8.203-1.6406c-1.3672 4.2874 0.88319 9.685 2.2859 12.433 0.56054 1.1074 0.99529 1.7855 0.99529 1.7855z" fill="#FFB9B9"/>
<path d="m40.394 96.185c-0.061415 0.84234-0.16545 1.681-0.31171 2.5128 0 0-6.8358 4.6484-7.3827-0.54686-0.35546-3.3851 0.44843-4.9218 1.0554-5.5671 0.36396-0.38561 0.56902-0.89436 0.57421-1.4246v-6.1331l6.0155 1.914-0.27343 5.1952c0.41562 1.0801 0.42109 2.6933 0.32265 4.0495z" fill="#FFB9B9"/>
<path d="m21.762 101.16-2.4609 2.4609s-8.7498 4.6484-7.6561-1.6406c0.29919-1.8695 0.36258-3.7693 0.18867-5.6546 1.914-0.27343 4.1862 1.8265 4.1862 1.8265 3.2046 4.5226 4.0687 2.8109 4.7468 1.2222 0.56054 1.1074 0.99529 1.7855 0.99529 1.7855z" fill="#000" opacity=".05"/>
<path d="m16.02 98.698s-3.8281-3.5546-5.7421-0.8203c-1.914 2.7343 0.27343 4.9218-7.1092 10.39s0 9.0233 4.9218 6.8358c4.9218-2.1875 15.039-7.9295 15.039-7.9295s0-9.0233-1.3672-8.7498c-1.3672 0.27343-1.0937 6.8358-5.7421 0.27343z" fill="#8189A6"/>
<path d="m40.394 96.185c-0.061415 0.84234-0.16545 1.681-0.31171 2.5128 0 0-6.8358 4.6484-7.3827-0.54686-0.35546-3.3851 0.44843-4.9218 1.0554-5.5671 0.48439-0.36383 1.1299-0.43111 1.6789-0.175 1.0937-0.48671 2.2968 0.32538 3.2812 1.3672 0.67903 0.7128 1.2452 1.5251 1.6789 2.4089z" fill="#000" opacity=".05"/>
<path d="m35.434 92.956s-3.0078-1.6406-3.5546 5.7421c-0.54686 7.3827-0.8203 6.5624-0.8203 6.5624s-2.7343 6.5624 3.0078 5.7421 8.4764-1.3672 8.203-4.6484c-0.16406-1.9769-0.62889-4.8507-0.97068-6.8194-0.32739-1.9473-1.2225-3.7546-2.573-5.1952-0.99256-1.0609-2.1984-1.8703-3.2921-1.3836z" fill="#8189A6"/>
<path d="m45.278 57.957s1.0937 11.484 0 14.765c-0.66444 1.9906-1.0254 7.0053-1.2058 10.639-0.12031 2.3515-0.16133 4.1261-0.16133 4.1261-5.1952 5.4686-11.211 0-11.211 0s0-1.914 0.043749-4.7358c0.057421-3.7378 0.1914-9.0615 0.50312-13.584 0.31992-4.6265-0.19961-8.0416-0.68632-10.084-0.50201-2.0732-0.85654-4.1793-1.0609-6.3026l-0.71366-7.6725c-2.4609-17.226-5.4686-17.773-5.4686-17.773-0.098436 0.076561-0.19414 0.16133-0.29257 0.24882-4.2027 3.8281-7.019 17.393-8.4491 26.167-0.73553 4.5144-1.0937 7.7627-1.0937 7.7627s3.5546 14.765 3.2812 16.679c-0.12578 0.88866 0.21875 3.1363 0.62343 5.2854 0.46757 2.48 1.0172 4.8316 1.0172 4.8316-6.8358 7.3827-11.484 1.6406-11.484 1.6406l-0.91873-4.3913-5.3702-25.686s-2.4609-16.133 0-28.71c0.79752-3.9473 1.3455-7.941 1.6406-11.957 0.31024-4.5334 1.0426-9.0281 2.1875-13.426 0.33359-1.3015 0.70363-2.5931 1.1101-3.8745 0 0 10.267-1.7855 19.936-1.7855 7.2514 0 14.164 1.0035 16.157 4.5198 0.45937 0.80936 0.87681 1.6205 1.2523 2.4335 3.4617 7.4401 3.5546 15.083 0.11484 22.722-3.8527 8.4737 0.24882 28.161 0.24882 28.161z" fill="#4C4C78"/>
<path d="m45.278 8.192c-2.4882 3.2347-34.206-1.0062-38.844-2.4144 0.33359-1.3015 0.70363-2.5931 1.1101-3.8745 0 0 10.267-1.7855 19.936-1.7855 7.2514 0 14.164 1.0035 16.157 4.5198 0.45937 0.80936 0.87681 1.6205 1.2523 2.4335 0.175 0.97889 0.38827 1.1211 0.38827 1.1211z" fill="#000" opacity=".1"/>
<path d="m25.025 27.581c-4.2027 3.8281-7.019 17.393-8.4491 26.167-1.9906-12.214 6.2889-32.432 6.2889-32.432l2.1601 6.2643z" fill="#000" opacity=".1"/>
<path d="m20.395 88.308c-6.8358 7.3827-11.484 1.6406-11.484 1.6406l-0.91873-4.3913c2.5839 1.3426 6.9507 2.3843 11.386-2.0808 0.46757 2.48 1.0172 4.8316 1.0172 4.8316z" fill="#000" opacity=".1"/>
<path d="m44.072 83.361c-0.12031 2.3515-0.16133 4.1261-0.16133 4.1261-5.1952 5.4686-11.211 0-11.211 0s0-1.914 0.043749-4.7358c2.2558 1.4328 6.3108 3.0105 11.328 0.60975z" fill="#000" opacity=".1"/>
<path d="m8.0909 114.01c-3.1964 1.4191-7.4264 0.41835-7.9815-1.9523-0.66991 3.1335 4.3312 4.6702 7.9815 3.046 4.9218-2.1875 15.039-7.9295 15.039-7.9295s0-0.42382-0.013672-1.0937c-0.29531 0.175-10.177 5.7612-15.025 7.9295z" fill="#fff" opacity=".3"/>
<path d="m42.256 106.2c-0.31445 2.4609-3.0433 2.9777-8.1893 3.7132-2.6167 0.3746-3.4699-0.78748-3.6284-2.1601-0.17226 1.7582 0.32812 3.7242 3.6284 3.2538 5.7421-0.8203 8.4764-1.3672 8.203-4.6484-0.0054687-0.051952-0.010937-0.10664-0.013672-0.15859z" fill="#fff" opacity=".3"/>
</g>
<path d="m44.049 38.07-1.3457 8.0103s-11.663 6.1519-11.855 6.1519c-0.19225 0-8.523-1.4098-8.8434-1.4098s-5.7674-16.469-1.9225-17.495c1.0407-0.27684 2.5505-0.9433 4.1987-1.7712 4.4448-2.2224 9.8995-5.5983 9.8995-5.5983s8.1385-0.89716 6.1519 4.7421c-0.76899 2.2121-0.37424 3.8219 0.40244 4.9626 1.2201 1.7687 3.3144 2.4069 3.3144 2.4069z" fill="#FDC2CC"/>
<path d="m44.049 38.07-1.3457 8.0103s-11.663 6.1519-11.855 6.1519c-0.19225 0-8.523-1.4098-8.8434-1.4098s-5.7674-16.469-1.9225-17.495c1.0407-0.27684 2.5505-0.9433 4.1987-1.7712 1.0484 0.069209 1.761 0.16918 1.761 0.16918s2.5633 9.8046 2.7556 12.817 6.8568 3.3323 7.3054 3.2041 2.307-7.4977 2.307-7.4977-0.19225-2.5633 0.3845-2.5633c0.4819 0 1.5944-1.538 1.9404-2.0224 1.2201 1.7687 3.3144 2.4069 3.3144 2.4069z" fill="#000" opacity=".1"/>
<path d="m53.203 94.53c-0.89203 0.43576-3.0247 1.4303-3.5886 1.2817-0.70491-0.19225-2.4351-0.19225-2.4351-0.19225s-1.0253 1.1535-2.1147 0.89716-5.3829-0.064083-5.3829-0.064083-7.6899 0.32041-9.1638-0.19225c-1.4739-0.51266-6.7287-0.96124-6.7287-0.96124s-7.1773-0.83307-8.3948-1.3457c-0.69913-0.3051-1.5087-0.20696-2.1147 0.25633 0 0-0.22301-0.14611-0.49728-0.35886 0.30247-1.1689 0.68953-2.3967 0.68953-2.3967s32.938-3.076 37.681 0.12817c1.0253 0.6844 1.6687 1.7277 2.0506 2.9478z" fill="#000" opacity=".1"/>
<path d="m26.042 32.239s-6.4723-0.89716-9.0357 0.83307c-0.91084 0.60159-1.9408 0.99942-3.0196 1.1663-1.4463 0.22416-2.7493 1.0006-3.6348 2.166-0.16405 0.22044-0.32298 0.36912-0.45883 0.3845-0.57674 0.064083-3.7809 9.9969-3.7809 9.9969l7.754 10.83s-0.19225 6.0238 0.89716 7.1773c1.0894 1.1535-1.538 14.355-1.538 14.355s-1.2817 4.5499-0.70491 5.2548c0.57674 0.70491 0 1.6021 0 1.6021s-0.12817 1.1535 0.19225 1.1535c0.32041 0 0.70491 1.4739 0.3845 1.538-0.32041 0.064083-1.7943 1.2817-1.2817 1.538s0 0.83307 0 1.4098 1.4739 1.538 1.4739 1.538c0.60599-0.46329 1.4156-0.56143 2.1147-0.25633 1.2176 0.51266 8.3948 1.3457 8.3948 1.3457s5.2548 0.44858 6.7287 0.96124c1.4739 0.51266 9.1638 0.19225 9.1638 0.19225s4.2935-0.19225 5.3829 0.064083 2.1147-0.89716 2.1147-0.89716 1.7302 0 2.4351 0.19225c0.70491 0.19225 3.9731-1.4739 3.9731-1.4739s-0.83307-2.4351-0.44858-3.3323c0.3845-0.89716 0.12817-2.6274 0.12817-2.6274s-1.538-0.89716-1.6021-1.2817c-0.064083-0.3845-0.70491-0.89716-0.51266-1.4098 0.19225-0.51266 1.2817-0.25633 1.1535-1.4098-0.12817-1.1535-1.4739-2.3711-1.3457-3.076 0.12817-0.70491 0.64083-1.9866 0-2.7556-0.64083-0.76899-0.89716-1.9866-0.96124-2.9478-0.064083-0.96124 0.96124-9.6765 0.96124-9.6765l-2.3711-17.559 7.2413-3.5886s-0.32041-2.4992-0.76899-3.845c-0.44858-1.3457-1.0894-3.7168-1.0894-3.7168s-1.4739-2.8837-1.7943-3.0119c-0.32041-0.12817-3.7168-2.3711-4.4858-2.0506-0.76899 0.32041-6.8568 4.9984-6.8568 4.9984s-1.4739 2.1788-2.0506 2.1788c-0.57674 0-0.3845 2.5633-0.3845 2.5633s-1.8584 7.3695-2.307 7.4977c-0.44858 0.12817-7.1132-0.19225-7.3054-3.2041s-2.7556-12.817-2.7556-12.817z" fill="#D39999"/>
<path d="m15.994 70.127c-0.889 0.19553-1.7944 0.3071-2.7043 0.33323-1.315 0.035886-2.471-0.13073-2.7556-0.60494-0.76899-1.2817-0.76899-3.7168-0.76899-3.7168s3.4758 0.80231 5.8751 1.679l0.39731 0.14867c0.93048 0.36143 1.638 0.73054 1.7943 1.0535 0.22301 0.4332-0.6357 0.8382-1.8379 1.1073z" fill="#FDC2CC"/>
<circle cx="41.166" cy="22.754" r="11.727" fill="#000" opacity=".1"/>
<circle cx="41.166" cy="22.242" r="11.727" fill="#FDC2CC"/>
<path d="m15.212 85.555s3.3323 0 4.614 0.32041c1.2817 0.32041 3.9731 0.3845 3.9731 0.3845s-7.4336-0.25633-8.5871-0.70491z" fill="#000" opacity=".1"/>
<path d="m15.34 87.606s4.2935 0.32041 4.3576 0.96124c0.064083 0.64083-4.3576-0.96124-4.3576-0.96124z" fill="#000" opacity=".1"/>
<path d="m48.022 79.724s2.6274 0.96124 2.5633 1.2817c-0.064083 0.32041-2.307-0.51266-2.5633-1.2817z" fill="#000" opacity=".1"/>
<path d="m7.7785 45.632-1.6661 1.1535s-0.70491 4.1013-0.70491 5.0625-1.1535 7.8822-1.1535 7.8822-0.3845 1.2817-0.25633 1.7943c0.12817 0.51266-0.51266 3.14-0.51266 3.14s-2.307 5.3189-2.1788 5.6393c0.12817 0.32041 10.958 1.3457 10.958 1.3457l1.538-14.355-6.0238-11.663z" fill="#D39999"/>
<path d="m2.9082 68.574-1.6021 1.7302s-0.064083 5.6393 1.538 6.216c1.6021 0.57674 2.6274 0.32041 3.14 0.76899 0.51266 0.44858 3.2682 1.2817 3.2682 1.2817s3.0119 0.44858 3.909 0.32041c0.89716-0.12817-5.2548-5.0625-1.2176-9.2279l-9.0357-1.0894z" fill="#D39999"/>
<path d="m53.598 41.146 2.2429 2.4992s0.96124 5.9597 0.70491 6.7928c-0.25633 0.83307 1.3457 15.316 1.3457 15.316s1.538 6.2801-1.9225 7.1132c-0.30733 0.2701-0.58645 0.57069-0.83307 0.89716-0.12817 0.25633-2.8837-0.12817-2.8837-0.12817l-4.2295-27.748 5.5752-4.7421z" fill="#D39999"/>
<path d="m23.094 64.088s8.3948-4.9984 9.9328-5.2548c1.538-0.25633 11.086-4.8062 11.086-4.8062s4.7421 2.4351 5.1907 4.2935c0.44858 1.8584-1.9866 9.292-1.9866 9.292s-7.8181 5.447-8.2667 6.6005c-0.44858 1.1535-7.1773 4.5499-7.1773 5.1266 0 0.57674-10.638 6.8568-15.316 1.3457-4.678-5.5111-4.614-7.1132-4.614-7.1132l11.855-2.7556 1.1535-5.1266-1.8584-1.6021z" fill="#000" opacity=".1"/>
<path d="m23.094 63.575s8.3948-4.9984 9.9328-5.2548c1.538-0.25633 11.086-4.8062 11.086-4.8062s4.7421 2.4351 5.1907 4.2935-1.9866 9.292-1.9866 9.292-7.8181 5.447-8.2667 6.6005c-0.44858 1.1535-7.1773 4.5499-7.1773 5.1266 0 0.57674-10.638 6.8568-15.316 1.3457-4.678-5.5111-4.614-7.1132-4.614-7.1132l11.855-2.7556 1.1535-5.1266-1.8584-1.6021z" fill="#C4C8E2"/>
<path d="m10.15 65.818-0.3845 3.2041-3.0478-0.22301-2.976-0.22044s-1.7302 0-2.8196-2.5633c-1.0894-2.5633 2.4351-2.9478 2.6274-2.5633 0.14611 0.28965 3.845 1.497 5.6393 2.0686l0.96124 0.29734z" fill="#FDC2CC"/>
<path d="m10.15 65.818-0.3845 3.2041-3.0478-0.22301c0.49728-0.73823 1.538-2.0891 2.4736-3.2785l0.95868 0.29734z" fill="#000" opacity=".1"/>
<path d="m9.7651 66.138s3.4758 0.80231 5.8751 1.679c-0.15892 0.25633-1.2201 1.9174-2.3506 2.6428-1.315 0.035886-2.471-0.13073-2.7556-0.60494-0.76899-1.2817-0.76899-3.7168-0.76899-3.7168z" fill="#000" opacity=".1"/>
<path d="m15.994 70.127-0.056393-0.44345s-0.025633-0.094842-0.048703-0.23839c-0.04614-0.29222-0.079462-0.78437 0.13586-1.0843 0.1256-0.17687 0.097406-0.30247 0.01538-0.39219 0.93048 0.36143 1.638 0.73054 1.7943 1.0535 0.22044 0.43064-0.63826 0.83564-1.8405 1.1048z" fill="#000" opacity=".1"/>
<path d="m26.875 68.03s-3.481 3.4835-3.6963 4.2295-6.7928 0.76899-6.7928 0.76899l-0.44858-3.5886s-0.025633-0.094842-0.048703-0.23839c-0.04614-0.29222-0.079462-0.78437 0.13586-1.0843 0.32041-0.44858-0.36399-0.57674-0.36399-0.57674s-1.7738 2.9247-3.2682 3.0119c0 0-2.0712 1.4944-2.0506 1.7943 0 0-1.0048 0.91766-1.0253 2.0276-0.020506 1.1099-1.3022 1.5611-2.2429 1.2406-0.94073-0.32041-3.2682-1.0048-4.0167-0.89716-0.74849 0.10766-3.117 0.81-3.0324-1.3893 0 0 3.076-2.307 3.845-2.2429 0.76899 0.064083 2.5633-0.83307 2.8196-1.538 0.25633-0.70491 4.614-6.0879 4.614-6.0879s2.7556-2.6069 3.8655-2.8632c0 0 2.2224-1.7302 5.5752 0.89716 0 0 4.637 2.8606 4.7857 3.2451 0.11791 0.30247 1.4636 1.5944 1.5764 2.5633 0.05288 0.26616-0.034173 0.54086-0.2307 0.72798z" fill="#FDC2CC"/>
<path d="m16.002 62.934s0.34092 1.9661 0.17174 2.671-0.51266 1.9225-0.51266 1.9225 2.0712-3.2477 0.34092-4.5934z" fill="#000" opacity=".1"/>
<path d="m16.15 67.72s1.0689-1.1766 1.3047-0.87665c0.23582 0.29991-1.3047 0.87665-1.3047 0.87665z" fill="#000" opacity=".1"/>
<path d="m59.911 55.726c6.59e-5 3.3506-2.2222 6.2948-5.4445 7.2131-0.65592 0.18855-1.3348 0.28517-2.0173 0.28709h-0.03845c-1.9885-6.797e-4 -3.8953-0.79126-5.3009-2.1978-1.4056-1.4066-2.1949-3.3139-2.1942-5.3024-0.0012264-0.44017 0.038246-0.87951 0.11791-1.3124 0.60139-3.373 3.4163-5.9071 6.8338-6.1519 0.17943-0.01538 0.36143-0.02307 0.54342-0.02307 4.1378-0.0014185 7.4946 3.3496 7.5002 7.4874z" fill="#F8BDC5"/>
<path d="m63.866 54.806c0.36612 0.43811 0.58019 0.98319 0.61007 1.5534-0.74849 0.069209-1.538 0.15892-2.1327 0.62801-0.51266 0.39988-0.76899 1.0253-1.0253 1.6072-0.23412 0.54855-0.46652 1.0971-0.69722 1.6456-0.36399 0.85871-0.73823 1.7354-1.3714 2.4198-0.26851 0.24678-0.50763 0.52374-0.7126 0.82538-0.17687 0.32041-0.25633 0.72542-0.54342 0.94073-0.2935 0.17932-0.65737 0.19954-0.96893 0.053829-0.31529-0.11791-0.59725-0.31529-0.91254-0.44089-0.20255-0.077978-0.4132-0.13301-0.62801-0.16405-0.93817-0.13842-1.9712 0.064083-2.7684-0.44089-0.09228-0.061286-0.17816-0.1317-0.25633-0.21019-0.3114-0.30527-0.53685-0.68721-0.65364-1.1073-0.05863-0.17034-0.079619-0.35137-0.061519-0.5306 0.074279-0.33188 0.29216-0.61362 0.59469-0.76899 0.043576-0.025633 0.087152-0.051266 0.13329-0.074336 0.76899-0.40244 1.8379-0.49728 2.2403-1.2817 0.3845-0.74336-0.092279-1.6482-0.67671-2.248-0.27684-0.28196-0.60494-0.60238-0.56649-0.99713 0.035886-0.34861 0.34605-0.59212 0.60494-0.82538 0.7326-0.66257 1.2263-1.5482 1.4047-2.5197 0.068081-0.30015 0.062805-0.61229-0.01538-0.90997-0.079757-0.21346-0.18936-0.41454-0.32554-0.59725l-0.83051-1.2304c-0.2563-0.43432-0.60666-0.80569-1.0253-1.0868-0.34605-0.20763-0.74336-0.2794-1.092-0.48446-0.13266-0.072589-0.24401-0.17864-0.32298-0.3076-0.043942-0.072131-0.058617-0.15834-0.041013-0.24095 0.043576-0.20506 0.25633-0.30503 0.46908-0.36399 0.5505-0.15977 1.1262-0.21455 1.6969-0.16149 0.18082 0.038486 0.36772 0.038486 0.54855 0 0.18525-0.04956 0.30628-0.22729 0.28453-0.41782 0.63057-0.16405 1.2278 0.3281 1.6892 0.7895 0.4614 0.4614 1.0253 0.96637 1.6764 0.83564 0.23326-0.04614 0.44858-0.17943 0.6844-0.20506 0.23582-0.025633 0.52804 0.12817 0.51266 0.36655-0.01538 0.23839-0.31272 0.39219-0.28709 0.62288 0.015343 0.079814 0.051612 0.15412 0.1051 0.21532 0.29582 0.40728 0.64696 0.77135 1.0433 1.0817v-1.3637c0.51266 0.12817 0.69978 0.78437 0.64083 1.315-0.058956 0.5306-0.25633 1.0663-0.13329 1.5841 0.031329 0.17981 0.14521 0.3345 0.3076 0.41782 0.13177 0.035724 0.27067 0.035724 0.40244 0 1.1766-0.16661 2.5505 0.14611 3.1349 1.1791l-1.0253-0.37168 1.1919 0.65108c0.16315 0.075086 0.30827 0.18436 0.42551 0.32041 0.11637 0.1418 0.12877 0.34222 0.03076 0.49728-0.39934-0.26859-0.89876-0.34209-1.3586-0.19994z" fill="#585268"/>
<g transform="translate(51.626 46.916)" fill="#000" opacity=".1">
<path d="m9.9815 5.7942c0.13177 0.069683 0.27067 0.069683 0.40244 0 0.11535-0.03 0.2307-0.05 0.34861-0.065-0.25649-0.031681-0.51394-0.016616-0.76899 0.045l0.017943 0.02z"/>
<polygon points="12.483 6.5698 12.983 7.0448 12.89 6.8198"/>
<path d="m9.1766 3.8014v-0.89716c-0.089835-0.22622-0.279-0.39836-0.51266-0.46652v0.90228c0.16109 0.16435 0.33231 0.31845 0.51266 0.4614z"/>
<path d="m12.996 7.8144c0.22624 0.071116 0.44136 0.23099 0.63057 0.46862 0.045089-0.10884 0.067776-0.24322 0.064083-0.37958-0.22534-0.1208-0.4623-0.15117-0.69466-0.089038z"/>
<path d="m5.9648 17.525c-0.31529-0.11791-0.59725-0.31529-0.91254-0.44089-0.20255-0.077978-0.4132-0.13301-0.62801-0.16405-0.93817-0.13842-1.9712 0.064083-2.7684-0.44089-0.09228-0.061286-0.17816-0.1317-0.25633-0.21019-0.3114-0.30527-0.53685-0.68721-0.65364-1.1073-0.05863-0.17034-0.079619-0.35137-0.061519-0.5306 0.074279-0.33188 0.29216-0.61362 0.59469-0.76899 0.043576-0.025633 0.087152-0.051266 0.13329-0.074336 0.78181-0.40244 1.8379-0.49728 2.2403-1.2817 0.3845-0.74336-0.092279-1.6482-0.67671-2.248-0.27684-0.28196-0.60494-0.60238-0.56649-0.99713 0.035886-0.34861 0.34605-0.59212 0.60494-0.82538 0.7326-0.66257 1.2263-1.5482 1.4047-2.5197 0.068081-0.30015 0.062805-0.61229-0.01538-0.90997-0.079757-0.21346-0.18936-0.41454-0.32554-0.59725l-0.83051-1.2304c-0.25631-0.43432-0.60666-0.80569-1.0253-1.0868-0.34605-0.20763-0.74336-0.2794-1.092-0.48446-0.13266-0.072589-0.24401-0.17864-0.32298-0.3076-0.043942-0.072131-0.058617-0.15834-0.041013-0.24095 0.043576-0.20506 0.26915-0.30503 0.46908-0.36399 0.33454-0.093804 0.67838-0.15054 1.0253-0.16918-0.51853-0.030581-1.0385 0.026616-1.538 0.16918-0.19994 0.058956-0.42551 0.15892-0.46908 0.36399-0.017604 0.082607-0.0029294 0.16882 0.041013 0.24095 0.07897 0.12896 0.19032 0.23501 0.32298 0.3076 0.34861 0.20506 0.74592 0.27684 1.092 0.48446 0.41866 0.28115 0.76902 0.65252 1.0253 1.0868l0.83051 1.2304c0.13618 0.18271 0.24578 0.38379 0.32554 0.59725 0.078185 0.29768 0.083461 0.60982 0.01538 0.90997-0.17838 0.97153-0.6721 1.8572-1.4047 2.5197-0.25633 0.23326-0.56905 0.47677-0.60494 0.82538-0.03845 0.39475 0.28965 0.71516 0.56649 0.99713 0.58443 0.59981 1.0612 1.5047 0.67671 2.248-0.40244 0.78181-1.4585 0.87665-2.2403 1.2817-0.04614 0.02307-0.089716 0.048703-0.13329 0.074336-0.30253 0.15537-0.52041 0.43711-0.59469 0.76899-0.018099 0.17924 0.0028894 0.36026 0.061519 0.5306 0.11679 0.42014 0.34224 0.80208 0.65364 1.1073 0.078175 0.078487 0.16405 0.14891 0.25633 0.21019 0.79719 0.51266 1.8302 0.30247 2.7684 0.44089 0.21481 0.031046 0.42546 0.086073 0.62801 0.16405 0.31529 0.1256 0.59725 0.32298 0.91254 0.44089 0.22899 0.093963 0.48128 0.11544 0.72285 0.061519-0.071456-0.015408-0.1417-0.035969-0.21019-0.061519z"/>
<path d="m7.1183 1.9171c0.15776-0.078676 0.31274-0.17722 0.46396-0.295-0.09064-0.086526-0.19172-0.12285-0.29222-0.105-0.21744 0.10067-0.43146 0.22758-0.64083 0.38 0.15367 0.074351 0.31389 0.081182 0.46908 0.02z"/>
<path d="m2.9196 0.54124c0.18172 0.035444 0.36862 0.030928 0.54855-0.013255 0.18419-0.051115 0.30493-0.23337 0.28453-0.42947-0.16813-0.044897-0.34453-0.044897-0.51266 0 0.021755 0.19705-0.099278 0.38086-0.28453 0.43212-0.017634 0.0056666-0.035618 0.010095-0.053829 0.013255l0.017943-0.002651z"/>
</g>
<path d="m45.651 51.625c-0.95611 0.71516-2.4813 1.0253-3.8834 1.1279-1.0962 0.08683-2.1976 0.08683-3.2938 0l-2.4685-0.92792s0.19994-0.39731 0.53829-0.92279c0.67415-1.0458 1.8994-2.6018 3.1785-2.5377 1.9225 0.094842 3.9424 0.18968 4.1346 0.18968s3.9398 1.4688 1.7943 3.0708z" fill="#FDC2CC"/>
<path d="m36.544 50.894c1.5226 0.31272 3.3759 1.0074 5.224 1.8558-1.0962 0.08683-2.1976 0.08683-3.2938 0l-2.4685-0.92792s0.19994-0.40244 0.53829-0.92792z" fill="#000" opacity=".1"/>
<path d="m55.487 63.875c-0.93817-0.13842-1.9712 0.064083-2.7684-0.44089-0.09228-0.061286-0.17816-0.1317-0.25633-0.21019h-0.03845c-1.9903 0.0027218-3.9-0.78601-5.3083-2.1924-1.4083-1.4064-2.1996-3.315-2.1996-5.3053-0.0012264-0.44017 0.038246-0.87951 0.11791-1.3124 2.6274 1.4688 4.7575 2.9786 5.1676 3.7168 0.60621 0.97161 1.3199 1.8719 2.1275 2.6838 0.71516 0.76899 1.4816 1.5072 2.1378 2.125 0.38962 0.36143 0.7408 0.68184 1.0202 0.93561z" fill="#000" opacity=".1"/>
<path d="m55.905 64.729s-4.678-4.0372-5.9597-6.3442c-1.2817-2.307-19.289-12.112-16.982-4.678 2.307 7.4336 10.253 8.1385 10.253 8.1385s2.5633 2.8837 2.8196 4.2935c0.25633 1.4098 1.1535 3.4605 1.1535 3.4605l4.2935 1.9225 1.9866-0.44858s4.678-2.5633 2.4351-6.3442z" fill="#FDC2CC"/>
<path d="m46.933 69.343s7.5618 4.2935 8.3307-5.7674l1.9225 0.64083-1.9225 6.7928-3.2682 2.3711s-4.5499-2.1147-5.0625-4.0372z" fill="#000" opacity=".1"/>
<path d="m47.189 69.599s7.5618 4.2935 8.3307-5.7674l1.9225 0.64083-1.9225 6.7928-3.2682 2.3711s-4.5499-2.1147-5.0625-4.0372z" fill="#D39999"/>
<g transform="translate(22.667 3)" fill="#242548">
<path d="m11.901 5.3981c-4.1658 6.2487 9.7202 6.943 9.7202 15.101s-7.1166 10.414-6.4223 12.497c0.46287 1.3886 4.1079 2.4879 10.935 3.2979 4.7444-10.299 6.3644-17.878 4.8601-22.738-2.2565-7.2901-14.927-14.407-19.093-8.158z"/>
<path d="m10.74 2.9263c-5.0833 7.625 11.861 8.4722 11.861 18.427s-8.684 12.708-7.8368 15.25c0.56481 1.6944 5.0127 3.0359 13.344 4.0243 5.7894-12.567 7.7662-21.816 5.9306-27.747-2.7535-8.8958-18.215-17.58-23.299-9.9549z"/>
<path d="m12.073 5.3499c-3.8125 0.1412-6.4248 2.6829-7.8368 7.625-2.1181 7.4132-1.4826 18.639-4.2361 22.028 0.63542 1.2708 2.3299 1.6944 4.2361 1.6944s5.2951-0.84722 5.2951-3.1771c0-1.5532 0.84722-9.2488 2.5417-23.087v-5.0833z"/>
</g>
<g transform="translate(17.534 8.9793)" fill="#000" opacity=".1">
<path d="m2.7889 33.469c-0.01538-1.8815-1.9507-3.1888-2.4659-4.9984-0.079326-0.28541-0.1283-0.5784-0.14611-0.87409-0.057113 0.63686-0.007734 1.2788 0.14611 1.8994 0.47165 1.6533 2.1224 2.8888 2.4172 4.5268 0.03291-0.18271 0.04921-0.36802 0.048703-0.55367z"/>
<path d="m10.792 39.593c-0.99456 0.017943-1.9814-0.91254-2.8709-0.47165-0.25633 0.13073-0.4614 0.36655-0.72798 0.48959-0.37635 0.12876-0.78275 0.14126-1.1663 0.035886-1.5969-0.27427-3.5245-0.84589-3.8706-2.4249-0.065376 0.33347-0.065376 0.67647 0 1.0099 0.34092 1.5918 2.2737 2.166 3.8757 2.4403 0.38356 0.10538 0.78995 0.092871 1.1663-0.035886 0.25633-0.12304 0.46652-0.35886 0.72798-0.48959 0.88947-0.44089 1.8763 0.48959 2.8709 0.47165 1.2483-0.02307 1.9507-1.497 1.9814-2.7453 0-0.25633 0-0.51266-0.017943-0.76899-0.13073 1.1842-0.80744 2.4659-1.9686 2.489z"/>
<path d="m20.263 26.1c-0.47677 1.7661-1.9968 3.058-3.5886 3.9526-1.4431 0.81-3.1529 1.538-3.7501 3.076-0.21985 0.66422-0.29501 1.3678-0.22044 2.0635 0.02222-0.35498 0.096496-0.70476 0.22044-1.0381 0.59725-1.538 2.307-2.2685 3.7501-3.076 1.5969-0.89459 3.117-2.1865 3.5886-3.9526 0.16267-0.67059 0.21719-1.3629 0.16149-2.0506-0.019976 0.34625-0.074068 0.68969-0.16149 1.0253z"/>
<path d="m34.297 7.8617c-0.61776-0.04614-1.2611-0.18968-1.7943 0.10766-0.44858 0.25633-0.67671 0.76899-1.0253 1.1407-0.90485 0.93304-2.4044 0.81-3.6989 0.70491h-0.082026c-4.4012-0.34348-8.059 3.3323-7.8078 7.7386v0.10253c0.12352-1.9413 1.017-3.753 2.482-5.0328s3.3804-1.9216 5.3207-1.7831h0.082026c1.2817 0.1051 2.794 0.22813 3.6989-0.70491 0.35886-0.37168 0.587-0.88434 1.0253-1.1407 0.51266-0.29734 1.1663-0.1538 1.7943-0.10766 0.49303 1.2254 0.77471 2.5254 0.83307 3.845 0-0.16661 0.012816-0.33323 0.012816-0.51266 9.38e-5 -1.4929-0.28529-2.972-0.84076-4.3576z"/>
<path d="m1.9481 15.844c0.076852-1.1145-0.083012-2.2327-0.46908-3.281-0.405-1.0484-1.0997-2.0763-1.2817-3.1452-0.2794 1.4483 0.75361 2.7889 1.2817 4.1705 0.27394 0.72258 0.43225 1.4838 0.46908 2.2557z"/>
<path d="m36.994 4.9959c-0.023389 0.33036-0.07137 0.65852-0.14355 0.98175-0.19225 0.88434-0.5588 1.7328-0.64595 2.6325-0.030761 0.32053-0.030761 0.64327 0 0.9638 0.097406-0.87665 0.44858-1.7072 0.63826-2.5633 0.14837-0.66062 0.19932-1.3394 0.15124-2.0148z"/>
<path d="m36.963 14.724c-0.41013 2.489-3.1221 4.291-3.0426 6.8107 0.0040945 0.13643 0.016077 0.27252 0.035886 0.40757 0.32298-2.207 2.6325-3.9116 3.0068-6.1929 0.063557-0.41316 0.072176-0.83291 0.025633-1.2483-0.00769 0.074336-0.00769 0.14867-0.025633 0.22301z"/>
<path d="m37.429 0.48703c-0.24208 0.54923-0.5521 1.0659-0.92279 1.538 0.10632 0.20644 0.19217 0.42279 0.25633 0.64595 0.27034-0.35968 0.49186-0.75358 0.65877-1.1714 0.16067-0.4784 0.20116-0.98898 0.11791-1.4867-0.022436 0.16106-0.059325 0.31977-0.11022 0.47421z"/>
<path d="m34.505 25.315c-0.22813 1.5687-1.456 2.935-2.8196 3.8296-0.46652 0.30503-0.97918 0.60238-1.2227 1.1048-0.16862 0.37805-0.19323 0.8047-0.069209 1.1996 0.018157-0.059934 0.041308-0.11824 0.069209-0.1743 0.24351-0.51266 0.75618-0.79975 1.2227-1.1048 1.5764-1.0253 2.9734-2.6966 2.8504-4.5755-0.0051266-0.094842-0.017943-0.18712-0.03076-0.2794z"/>
<path d="m29.378 37.896c-0.094984 0.072629-0.2111 0.11223-0.33067 0.11279-0.66133 0.056393-1.3022-0.2025-1.9148-0.45883-1.0253-0.42551-2.1429-0.9433-2.5633-1.9661-0.18968-0.45627-0.21532-0.9638-0.36143-1.438-0.1799-0.49309-0.41646-0.96361-0.70491-1.4021-0.82724-1.4126-1.4862-2.9173-1.9635-4.4832-0.074425-0.2366-0.13603-0.47705-0.18456-0.72029-0.017943 0.084589-0.033323 0.17174-0.043576 0.25633-0.021373 0.50569 0.056119 1.0107 0.22813 1.4867 0.47726 1.5659 1.1362 3.0706 1.9635 4.4832 0.28845 0.43851 0.52501 0.90904 0.70491 1.4021 0.14611 0.47421 0.17174 0.98175 0.36143 1.438 0.42551 1.0253 1.538 1.538 2.5633 1.9661 0.61263 0.25633 1.2535 0.51266 1.9148 0.45883 0.1253 0.009413 0.24876-0.034463 0.34001-0.12084s0.14184-0.20724 0.13933-0.33287c0.033763-0.25883 0.0074498-0.52197-0.076899-0.76899-0.018391 0.033197-0.042718 0.062737-0.071772 0.087152z"/>
<path d="m32.039 36.322c-0.105 0.050072-0.21948 0.077163-0.33579 0.079462-0.90926 0.060817-1.8219-0.047831-2.6915-0.32041 0.31772 0.30737 0.50574 0.72468 0.52548 1.1663 0.70907 0.16713 1.4391 0.22761 2.166 0.17943 0.16619 0.034702 0.33734-0.030878 0.43779-0.16775 0.10045-0.13688 0.11168-0.31981 0.028733-0.46795-0.03845-0.15892-0.084589-0.31529-0.13073-0.46908z"/>
</g>
<path d="m13.802 50.951s-0.25633 5.2548 0.51266 5.6393c0.76899 0.3845-0.51266-5.6393-0.51266-5.6393z" fill="#000" opacity=".1"/>
<path d="m28.349 64.793c0.25633 0 1.2817 0.51266 1.4098 1.0894 0.12817 0.57674-1.4098-1.0894-1.4098-1.0894z" fill="#000" opacity=".1"/>
<path d="m27.708 65.626c0.25633 0 1.2817 0.51266 1.4098 1.0894 0.12817 0.57674-1.4098-1.0894-1.4098-1.0894z" fill="#000" opacity=".1"/>
<path d="m30.079 67.933c0.25633 0 1.2817 0.51266 1.4098 1.0894 0.12817 0.57674-1.4098-1.0894-1.4098-1.0894z" fill="#000" opacity=".1"/>
<path d="m26.875 68.03s-3.481 3.4835-3.6963 4.2295-6.7928 0.76899-6.7928 0.76899l-0.44858-3.5886s-0.025633-0.094842-0.048703-0.23839c1.8174-0.46652 7.7104-2.6428 11.217-1.8712 0.042884 0.25701-0.043377 0.51867-0.2307 0.69978z" fill="#000" opacity=".1"/>
<path d="m11.024 72.439s3.3554-2.9683 4.3807-2.9042c1.0253 0.064083 13.521-5.2548 14.355 0.70491s-15.957 6.2801-15.957 6.2801l-2.5633 0.96124s-2.1378-4.6575-0.21532-5.042z" fill="#FDC2CC"/>
<path d="m10.042 72.867s1.538-2.1352 2.0071 0.46908c0.46908 2.6043 1.1766 5.811 1.1766 5.811l-3.44-1.7097 0.25633-4.5704z" fill="#D39999"/>
<path d="m44.049 38.07-1.3457 8.0103s-11.663 6.1519-11.855 6.1519c-0.19225 0-8.523-1.4098-8.8434-1.4098s-5.7674-16.469-1.9225-17.495c1.0407-0.27684 2.5505-0.9433 4.1987-1.7712 4.4448-2.2224 9.8995-5.5983 9.8995-5.5983s8.1385-0.89716 6.1519 4.7421c-0.76899 2.2121-0.37424 3.8219 0.40244 4.9626 1.2201 1.7687 3.3144 2.4069 3.3144 2.4069z" fill="#FDC2CC"/>
<path d="m44.049 38.07-1.3457 8.0103s-11.663 6.1519-11.855 6.1519c-0.19225 0-8.523-1.4098-8.8434-1.4098s-5.7674-16.469-1.9225-17.495c1.0407-0.27684 2.5505-0.9433 4.1987-1.7712 1.0484 0.069209 1.761 0.16918 1.761 0.16918s2.5633 9.8046 2.7556 12.817 6.8568 3.3323 7.3054 3.2041 2.307-7.4977 2.307-7.4977-0.19225-2.5633 0.3845-2.5633c0.4819 0 1.5944-1.538 1.9404-2.0224 1.2201 1.7687 3.3144 2.4069 3.3144 2.4069z" fill="#000" opacity=".1"/>
<path d="m53.203 94.53c-0.89203 0.43576-3.0247 1.4303-3.5886 1.2817-0.70491-0.19225-2.4351-0.19225-2.4351-0.19225s-1.0253 1.1535-2.1147 0.89716-5.3829-0.064083-5.3829-0.064083-7.6899 0.32041-9.1638-0.19225c-1.4739-0.51266-6.7287-0.96124-6.7287-0.96124s-7.1773-0.83307-8.3948-1.3457c-0.69913-0.3051-1.5087-0.20696-2.1147 0.25633 0 0-0.22301-0.14611-0.49728-0.35886 0.30247-1.1689 0.68953-2.3967 0.68953-2.3967s32.938-3.076 37.681 0.12817c1.0253 0.6844 1.6687 1.7277 2.0506 2.9478z" fill="#000" opacity=".1"/>
<path d="m26.042 32.239s-6.4723-0.89716-9.0357 0.83307c-0.91084 0.60159-1.9408 0.99942-3.0196 1.1663-1.4463 0.22416-2.7493 1.0006-3.6348 2.166-0.16405 0.22044-0.32298 0.36912-0.45883 0.3845-0.57674 0.064083-3.7809 9.9969-3.7809 9.9969l7.754 10.83s-0.19225 6.0238 0.89716 7.1773c1.0894 1.1535-1.538 14.355-1.538 14.355s-1.2817 4.5499-0.70491 5.2548c0.57674 0.70491 0 1.6021 0 1.6021s-0.12817 1.1535 0.19225 1.1535c0.32041 0 0.70491 1.4739 0.3845 1.538-0.32041 0.064083-1.7943 1.2817-1.2817 1.538s0 0.83307 0 1.4098 1.4739 1.538 1.4739 1.538c0.60599-0.46329 1.4156-0.56143 2.1147-0.25633 1.2176 0.51266 8.3948 1.3457 8.3948 1.3457s5.2548 0.44858 6.7287 0.96124c1.4739 0.51266 9.1638 0.19225 9.1638 0.19225s4.2935-0.19225 5.3829 0.064083 2.1147-0.89716 2.1147-0.89716 1.7302 0 2.4351 0.19225c0.70491 0.19225 3.9731-1.4739 3.9731-1.4739s-0.83307-2.4351-0.44858-3.3323c0.3845-0.89716 0.12817-2.6274 0.12817-2.6274s-1.538-0.89716-1.6021-1.2817c-0.064083-0.3845-0.70491-0.89716-0.51266-1.4098 0.19225-0.51266 1.2817-0.25633 1.1535-1.4098-0.12817-1.1535-1.4739-2.3711-1.3457-3.076 0.12817-0.70491 0.64083-1.9866 0-2.7556-0.64083-0.76899-0.89716-1.9866-0.96124-2.9478-0.064083-0.96124 0.96124-9.6765 0.96124-9.6765l-2.3711-17.559 7.2413-3.5886s-0.32041-2.4992-0.76899-3.845c-0.44858-1.3457-1.0894-3.7168-1.0894-3.7168s-1.4739-2.8837-1.7943-3.0119c-0.32041-0.12817-3.7168-2.3711-4.4858-2.0506-0.76899 0.32041-6.8568 4.9984-6.8568 4.9984s-1.4739 2.1788-2.0506 2.1788c-0.57674 0-0.3845 2.5633-0.3845 2.5633s-1.8584 7.3695-2.307 7.4977c-0.44858 0.12817-7.1132-0.19225-7.3054-3.2041s-2.7556-12.817-2.7556-12.817z" fill="#3FC0A1"/>
<path d="m15.994 70.127c-0.889 0.19553-1.7944 0.3071-2.7043 0.33323-1.315 0.035886-2.471-0.13073-2.7556-0.60494-0.76899-1.2817-0.76899-3.7168-0.76899-3.7168s3.4758 0.80231 5.8751 1.679l0.39731 0.14867c0.93048 0.36143 1.638 0.73054 1.7943 1.0535 0.22301 0.4332-0.6357 0.8382-1.8379 1.1073z" fill="#FDC2CC"/>
<circle cx="41.166" cy="22.754" r="11.727" fill="#000" opacity=".1"/>
<circle cx="41.166" cy="22.242" r="11.727" fill="#FDC2CC"/>
<path d="m41.333 7c-1.0829 0.91602-5.067 2.9979-4 4 2.8156 2.6444 13 5.6916 13 11.134 0 7.5046-3.525 15.617-2.8863 17.533 0.42579 1.2774 3.0546 1.2774 7.8863 0 2.4949-11.751 3.0505-19.863 1.6667-24.333-2.0757-6.7062-11.726-11.667-15.667-8.3333z" fill="#242548"/>
<path d="m34.333 8.3333c-4.2083-0.30324-7.0185 2.0162-8.4306 6.9583-2.1181 7.4132-1.4826 18.639-4.2361 22.028 0.63542 1.2708 2.3299 1.6944 4.2361 1.6944s3.8759-0.48704 5.4306-2.6806c1.5546-2.1935 1.5362-1.8128 1.6667-7.3333s-0.33333-8.3333 1.3333-11.667c1.6667-3.3333 4.4347-4.6587 4.3333-5.6667-0.051315-0.51012-1.4958-1.6212-4.3333-3.3333z" fill="#242548"/>
<path d="m15.212 85.555s3.3323 0 4.614 0.32041c1.2817 0.32041 3.9731 0.3845 3.9731 0.3845s-7.4336-0.25633-8.5871-0.70491z" fill="#000" opacity=".1"/>
<path d="m15.34 87.606s4.2935 0.32041 4.3576 0.96124c0.064083 0.64083-4.3576-0.96124-4.3576-0.96124z" fill="#000" opacity=".1"/>
<path d="m48.022 79.724s2.6274 0.96124 2.5633 1.2817c-0.064083 0.32041-2.307-0.51266-2.5633-1.2817z" fill="#000" opacity=".1"/>
<path d="m7.7785 45.632-1.6661 1.1535s-0.70491 4.1013-0.70491 5.0625-1.1535 7.8822-1.1535 7.8822-0.3845 1.2817-0.25633 1.7943c0.12817 0.51266-0.51266 3.14-0.51266 3.14s-2.307 5.3189-2.1788 5.6393c0.12817 0.32041 10.958 1.3457 10.958 1.3457l1.538-14.355-6.0238-11.663z" fill="#3FC0A1"/>
<path d="m2.9082 68.574-1.6021 1.7302s-0.064083 5.6393 1.538 6.216c1.6021 0.57674 2.6274 0.32041 3.14 0.76899 0.51266 0.44858 3.2682 1.2817 3.2682 1.2817s3.0119 0.44858 3.909 0.32041c0.89716-0.12817-5.2548-5.0625-1.2176-9.2279l-9.0357-1.0894z" fill="#3FC0A1"/>
<path d="m53.598 41.146 2.2429 2.4992s0.96124 5.9597 0.70491 6.7928c-0.25633 0.83307 1.3457 15.316 1.3457 15.316s1.538 6.2801-1.9225 7.1132c-0.30733 0.2701-0.58645 0.57069-0.83307 0.89716-0.12817 0.25633-2.8837-0.12817-2.8837-0.12817l-4.2295-27.748 5.5752-4.7421z" fill="#3FC0A1"/>
<path d="m23.094 64.088s8.3948-4.9984 9.9328-5.2548c1.538-0.25633 11.086-4.8062 11.086-4.8062s4.7421 2.4351 5.1907 4.2935c0.44858 1.8584-1.9866 9.292-1.9866 9.292s-7.8181 5.447-8.2667 6.6005c-0.44858 1.1535-7.1773 4.5499-7.1773 5.1266 0 0.57674-10.638 6.8568-15.316 1.3457-4.678-5.5111-4.614-7.1132-4.614-7.1132l11.855-2.7556 1.1535-5.1266-1.8584-1.6021z" fill="#000" opacity=".1"/>
<path d="m23.094 63.575s8.3948-4.9984 9.9328-5.2548c1.538-0.25633 11.086-4.8062 11.086-4.8062s4.7421 2.4351 5.1907 4.2935-1.9866 9.292-1.9866 9.292-7.8181 5.447-8.2667 6.6005c-0.44858 1.1535-7.1773 4.5499-7.1773 5.1266 0 0.57674-10.638 6.8568-15.316 1.3457-4.678-5.5111-4.614-7.1132-4.614-7.1132l11.855-2.7556 1.1535-5.1266-1.8584-1.6021z" fill="#C4C8E2"/>
<path d="m10.15 65.818-0.3845 3.2041-3.0478-0.22301-2.976-0.22044s-1.7302 0-2.8196-2.5633c-1.0894-2.5633 2.4351-2.9478 2.6274-2.5633 0.14611 0.28965 3.845 1.497 5.6393 2.0686l0.96124 0.29734z" fill="#FDC2CC"/>
<path d="m10.15 65.818-0.3845 3.2041-3.0478-0.22301c0.49728-0.73823 1.538-2.0891 2.4736-3.2785l0.95868 0.29734z" fill="#000" opacity=".1"/>
<path d="m9.7651 66.138s3.4758 0.80231 5.8751 1.679c-0.15892 0.25633-1.2201 1.9174-2.3506 2.6428-1.315 0.035886-2.471-0.13073-2.7556-0.60494-0.76899-1.2817-0.76899-3.7168-0.76899-3.7168z" fill="#000" opacity=".1"/>
<path d="m15.994 70.127-0.056393-0.44345s-0.025633-0.094842-0.048703-0.23839c-0.04614-0.29222-0.079462-0.78437 0.13586-1.0843 0.1256-0.17687 0.097406-0.30247 0.01538-0.39219 0.93048 0.36143 1.638 0.73054 1.7943 1.0535 0.22044 0.43064-0.63826 0.83564-1.8405 1.1048z" fill="#000" opacity=".1"/>
<path d="m26.875 68.03s-3.481 3.4835-3.6963 4.2295-6.7928 0.76899-6.7928 0.76899l-0.44858-3.5886s-0.025633-0.094842-0.048703-0.23839c-0.04614-0.29222-0.079462-0.78437 0.13586-1.0843 0.32041-0.44858-0.36399-0.57674-0.36399-0.57674s-1.7738 2.9247-3.2682 3.0119c0 0-2.0712 1.4944-2.0506 1.7943 0 0-1.0048 0.91766-1.0253 2.0276-0.020506 1.1099-1.3022 1.5611-2.2429 1.2406-0.94073-0.32041-3.2682-1.0048-4.0167-0.89716-0.74849 0.10766-3.117 0.81-3.0324-1.3893 0 0 3.076-2.307 3.845-2.2429 0.76899 0.064083 2.5633-0.83307 2.8196-1.538 0.25633-0.70491 4.614-6.0879 4.614-6.0879s2.7556-2.6069 3.8655-2.8632c0 0 2.2224-1.7302 5.5752 0.89716 0 0 4.637 2.8606 4.7857 3.2451 0.11791 0.30247 1.4636 1.5944 1.5764 2.5633 0.05288 0.26616-0.034173 0.54086-0.2307 0.72798z" fill="#FDC2CC"/>
<path d="m16.002 62.934s0.34092 1.9661 0.17174 2.671-0.51266 1.9225-0.51266 1.9225 2.0712-3.2477 0.34092-4.5934z" fill="#000" opacity=".1"/>
<path d="m16.15 67.72s1.0689-1.1766 1.3047-0.87665c0.23582 0.29991-1.3047 0.87665-1.3047 0.87665z" fill="#000" opacity=".1"/>
<path d="m59.911 55.726c6.59e-5 3.3506-2.2222 6.2948-5.4445 7.2131-0.65592 0.18855-1.3348 0.28517-2.0173 0.28709h-0.03845c-1.9885-6.797e-4 -3.8953-0.79126-5.3009-2.1978-1.4056-1.4066-2.1949-3.3139-2.1942-5.3024-0.0012264-0.44017 0.038246-0.87951 0.11791-1.3124 0.60139-3.373 3.4163-5.9071 6.8338-6.1519 0.17943-0.01538 0.36143-0.02307 0.54342-0.02307 4.1378-0.0014185 7.4946 3.3496 7.5002 7.4874z" fill="#F8BDC5"/>
<path d="m63.866 54.806c0.36612 0.43811 0.58019 0.98319 0.61007 1.5534-0.74849 0.069209-1.538 0.15892-2.1327 0.62801-0.51266 0.39988-0.76899 1.0253-1.0253 1.6072-0.23412 0.54855-0.46652 1.0971-0.69722 1.6456-0.36399 0.85871-0.73823 1.7354-1.3714 2.4198-0.26851 0.24678-0.50763 0.52374-0.7126 0.82538-0.17687 0.32041-0.25633 0.72542-0.54342 0.94073-0.2935 0.17932-0.65737 0.19954-0.96893 0.053829-0.31529-0.11791-0.59725-0.31529-0.91254-0.44089-0.20255-0.077978-0.4132-0.13301-0.62801-0.16405-0.93817-0.13842-1.9712 0.064083-2.7684-0.44089-0.09228-0.061286-0.17816-0.1317-0.25633-0.21019-0.3114-0.30527-0.53685-0.68721-0.65364-1.1073-0.05863-0.17034-0.079619-0.35137-0.061519-0.5306 0.074279-0.33188 0.29216-0.61362 0.59469-0.76899 0.043576-0.025633 0.087152-0.051266 0.13329-0.074336 0.76899-0.40244 1.8379-0.49728 2.2403-1.2817 0.3845-0.74336-0.092279-1.6482-0.67671-2.248-0.27684-0.28196-0.60494-0.60238-0.56649-0.99713 0.035886-0.34861 0.34605-0.59212 0.60494-0.82538 0.7326-0.66257 1.2263-1.5482 1.4047-2.5197 0.068081-0.30015 0.062805-0.61229-0.01538-0.90997-0.079757-0.21346-0.18936-0.41454-0.32554-0.59725l-0.83051-1.2304c-0.2563-0.43432-0.60666-0.80569-1.0253-1.0868-0.34605-0.20763-0.74336-0.2794-1.092-0.48446-0.13266-0.072589-0.24401-0.17864-0.32298-0.3076-0.043942-0.072131-0.058617-0.15834-0.041013-0.24095 0.043576-0.20506 0.25633-0.30503 0.46908-0.36399 0.5505-0.15977 1.1262-0.21455 1.6969-0.16149 0.18082 0.038486 0.36772 0.038486 0.54855 0 0.18525-0.04956 0.30628-0.22729 0.28453-0.41782 0.63057-0.16405 1.2278 0.3281 1.6892 0.7895 0.4614 0.4614 1.0253 0.96637 1.6764 0.83564 0.23326-0.04614 0.44858-0.17943 0.6844-0.20506 0.23582-0.025633 0.52804 0.12817 0.51266 0.36655-0.01538 0.23839-0.31272 0.39219-0.28709 0.62288 0.015343 0.079814 0.051612 0.15412 0.1051 0.21532 0.29582 0.40728 0.64696 0.77135 1.0433 1.0817v-1.3637c0.51266 0.12817 0.69978 0.78437 0.64083 1.315-0.058956 0.5306-0.25633 1.0663-0.13329 1.5841 0.031329 0.17981 0.14521 0.3345 0.3076 0.41782 0.13177 0.035724 0.27067 0.035724 0.40244 0 1.1766-0.16661 2.5505 0.14611 3.1349 1.1791l-1.0253-0.37168 1.1919 0.65108c0.16315 0.075086 0.30827 0.18436 0.42551 0.32041 0.11637 0.1418 0.12877 0.34222 0.03076 0.49728-0.39934-0.26859-0.89876-0.34209-1.3586-0.19994z" fill="#585268"/>
<g transform="translate(51.626 46.916)" fill="#000" opacity=".1">
<path d="m9.9815 5.7942c0.13177 0.069683 0.27067 0.069683 0.40244 0 0.11535-0.03 0.2307-0.05 0.34861-0.065-0.25649-0.031681-0.51394-0.016616-0.76899 0.045l0.017943 0.02z"/>
<polygon points="12.483 6.5698 12.983 7.0448 12.89 6.8198"/>
<path d="m9.1766 3.8014v-0.89716c-0.089835-0.22622-0.279-0.39836-0.51266-0.46652v0.90228c0.16109 0.16435 0.33231 0.31845 0.51266 0.4614z"/>
<path d="m12.996 7.8144c0.22624 0.071116 0.44136 0.23099 0.63057 0.46862 0.045089-0.10884 0.067776-0.24322 0.064083-0.37958-0.22534-0.1208-0.4623-0.15117-0.69466-0.089038z"/>
<path d="m5.9648 17.525c-0.31529-0.11791-0.59725-0.31529-0.91254-0.44089-0.20255-0.077978-0.4132-0.13301-0.62801-0.16405-0.93817-0.13842-1.9712 0.064083-2.7684-0.44089-0.09228-0.061286-0.17816-0.1317-0.25633-0.21019-0.3114-0.30527-0.53685-0.68721-0.65364-1.1073-0.05863-0.17034-0.079619-0.35137-0.061519-0.5306 0.074279-0.33188 0.29216-0.61362 0.59469-0.76899 0.043576-0.025633 0.087152-0.051266 0.13329-0.074336 0.78181-0.40244 1.8379-0.49728 2.2403-1.2817 0.3845-0.74336-0.092279-1.6482-0.67671-2.248-0.27684-0.28196-0.60494-0.60238-0.56649-0.99713 0.035886-0.34861 0.34605-0.59212 0.60494-0.82538 0.7326-0.66257 1.2263-1.5482 1.4047-2.5197 0.068081-0.30015 0.062805-0.61229-0.01538-0.90997-0.079757-0.21346-0.18936-0.41454-0.32554-0.59725l-0.83051-1.2304c-0.25631-0.43432-0.60666-0.80569-1.0253-1.0868-0.34605-0.20763-0.74336-0.2794-1.092-0.48446-0.13266-0.072589-0.24401-0.17864-0.32298-0.3076-0.043942-0.072131-0.058617-0.15834-0.041013-0.24095 0.043576-0.20506 0.26915-0.30503 0.46908-0.36399 0.33454-0.093804 0.67838-0.15054 1.0253-0.16918-0.51853-0.030581-1.0385 0.026616-1.538 0.16918-0.19994 0.058956-0.42551 0.15892-0.46908 0.36399-0.017604 0.082607-0.0029294 0.16882 0.041013 0.24095 0.07897 0.12896 0.19032 0.23501 0.32298 0.3076 0.34861 0.20506 0.74592 0.27684 1.092 0.48446 0.41866 0.28115 0.76902 0.65252 1.0253 1.0868l0.83051 1.2304c0.13618 0.18271 0.24578 0.38379 0.32554 0.59725 0.078185 0.29768 0.083461 0.60982 0.01538 0.90997-0.17838 0.97153-0.6721 1.8572-1.4047 2.5197-0.25633 0.23326-0.56905 0.47677-0.60494 0.82538-0.03845 0.39475 0.28965 0.71516 0.56649 0.99713 0.58443 0.59981 1.0612 1.5047 0.67671 2.248-0.40244 0.78181-1.4585 0.87665-2.2403 1.2817-0.04614 0.02307-0.089716 0.048703-0.13329 0.074336-0.30253 0.15537-0.52041 0.43711-0.59469 0.76899-0.018099 0.17924 0.0028894 0.36026 0.061519 0.5306 0.11679 0.42014 0.34224 0.80208 0.65364 1.1073 0.078175 0.078487 0.16405 0.14891 0.25633 0.21019 0.79719 0.51266 1.8302 0.30247 2.7684 0.44089 0.21481 0.031046 0.42546 0.086073 0.62801 0.16405 0.31529 0.1256 0.59725 0.32298 0.91254 0.44089 0.22899 0.093963 0.48128 0.11544 0.72285 0.061519-0.071456-0.015408-0.1417-0.035969-0.21019-0.061519z"/>
<path d="m7.1183 1.9171c0.15776-0.078676 0.31274-0.17722 0.46396-0.295-0.09064-0.086526-0.19172-0.12285-0.29222-0.105-0.21744 0.10067-0.43146 0.22758-0.64083 0.38 0.15367 0.074351 0.31389 0.081182 0.46908 0.02z"/>
<path d="m2.9196 0.54124c0.18172 0.035444 0.36862 0.030928 0.54855-0.013255 0.18419-0.051115 0.30493-0.23337 0.28453-0.42947-0.16813-0.044897-0.34453-0.044897-0.51266 0 0.021755 0.19705-0.099278 0.38086-0.28453 0.43212-0.017634 0.0056666-0.035618 0.010095-0.053829 0.013255l0.017943-0.002651z"/>
</g>
<path d="m45.651 51.625c-0.95611 0.71516-2.4813 1.0253-3.8834 1.1279-1.0962 0.08683-2.1976 0.08683-3.2938 0l-2.4685-0.92792s0.19994-0.39731 0.53829-0.92279c0.67415-1.0458 1.8994-2.6018 3.1785-2.5377 1.9225 0.094842 3.9424 0.18968 4.1346 0.18968s3.9398 1.4688 1.7943 3.0708z" fill="#FDC2CC"/>
<path d="m36.544 50.894c1.5226 0.31272 3.3759 1.0074 5.224 1.8558-1.0962 0.08683-2.1976 0.08683-3.2938 0l-2.4685-0.92792s0.19994-0.40244 0.53829-0.92792z" fill="#000" opacity=".1"/>
<path d="m55.487 63.875c-0.93817-0.13842-1.9712 0.064083-2.7684-0.44089-0.09228-0.061286-0.17816-0.1317-0.25633-0.21019h-0.03845c-1.9903 0.0027218-3.9-0.78601-5.3083-2.1924-1.4083-1.4064-2.1996-3.315-2.1996-5.3053-0.0012264-0.44017 0.038246-0.87951 0.11791-1.3124 2.6274 1.4688 4.7575 2.9786 5.1676 3.7168 0.60621 0.97161 1.3199 1.8719 2.1275 2.6838 0.71516 0.76899 1.4816 1.5072 2.1378 2.125 0.38962 0.36143 0.7408 0.68184 1.0202 0.93561z" fill="#000" opacity=".1"/>
<path d="m55.905 64.729s-4.678-4.0372-5.9597-6.3442c-1.2817-2.307-19.289-12.112-16.982-4.678 2.307 7.4336 10.253 8.1385 10.253 8.1385s2.5633 2.8837 2.8196 4.2935c0.25633 1.4098 1.1535 3.4605 1.1535 3.4605l4.2935 1.9225 1.9866-0.44858s4.678-2.5633 2.4351-6.3442z" fill="#FDC2CC"/>
<path d="m46.933 69.343s7.5618 4.2935 8.3307-5.7674l1.9225 0.64083-1.9225 6.7928-3.2682 2.3711s-4.5499-2.1147-5.0625-4.0372z" fill="#000" opacity=".1"/>
<path d="m47.189 69.599s7.5618 4.2935 8.3307-5.7674l1.9225 0.64083-1.9225 6.7928-3.2682 2.3711s-4.5499-2.1147-5.0625-4.0372z" fill="#3FC0A1"/>
<path d="m13.802 50.951s-0.25633 5.2548 0.51266 5.6393c0.76899 0.3845-0.51266-5.6393-0.51266-5.6393z" fill="#000" opacity=".1"/>
<path d="m28.349 64.793c0.25633 0 1.2817 0.51266 1.4098 1.0894 0.12817 0.57674-1.4098-1.0894-1.4098-1.0894z" fill="#000" opacity=".1"/>
<path d="m27.708 65.626c0.25633 0 1.2817 0.51266 1.4098 1.0894 0.12817 0.57674-1.4098-1.0894-1.4098-1.0894z" fill="#000" opacity=".1"/>
<path d="m30.079 67.933c0.25633 0 1.2817 0.51266 1.4098 1.0894 0.12817 0.57674-1.4098-1.0894-1.4098-1.0894z" fill="#000" opacity=".1"/>
<path d="m26.875 68.03s-3.481 3.4835-3.6963 4.2295-6.7928 0.76899-6.7928 0.76899l-0.44858-3.5886s-0.025633-0.094842-0.048703-0.23839c1.8174-0.46652 7.7104-2.6428 11.217-1.8712 0.042884 0.25701-0.043377 0.51867-0.2307 0.69978z" fill="#000" opacity=".1"/>
<path d="m11.024 72.439s3.3554-2.9683 4.3807-2.9042c1.0253 0.064083 13.521-5.2548 14.355 0.70491s-15.957 6.2801-15.957 6.2801l-2.5633 0.96124s-2.1378-4.6575-0.21532-5.042z" fill="#FDC2CC"/>
<path d="m10.042 72.867s1.538-2.1352 2.0071 0.46908c0.46908 2.6043 1.1766 5.811 1.1766 5.811l-3.44-1.7097 0.25633-4.5704z" fill="#3FC0A1"/>
</g>
</g>
</g>
</g>
</svg>
