<?xml version="1.0" encoding="UTF-8"?>
<svg version="1.1" viewBox="0 0 12 12" xmlns="http://www.w3.org/2000/svg">
<title>text_error_icon</title>
<desc>Created with Sketch.</desc>
<g fill="none" fill-rule="evenodd">
<g transform="translate(-50 -111)">
<g transform="translate(50 111)">
<circle cx="6" cy="6" r="6" fill="#D0021B"/>
<path d="m6.7792 7h-1.5584l-0.22078-5h2l-0.22078 5zm-0.78232 1c0.30134 0 0.54386 0.093988 0.72755 0.28197 0.1837 0.18798 0.27554 0.42841 0.27554 0.72131 0 0.28853-0.091846 0.52678-0.27554 0.71475-0.1837 0.18798-0.42621 0.28197-0.72755 0.28197-0.29722 0-0.53767-0.093988-0.72136-0.28197-0.1837-0.18798-0.27554-0.42623-0.27554-0.71475s0.091846-0.52787 0.27554-0.71803c0.1837-0.19016 0.42415-0.28525 0.72136-0.28525z" fill="#fff"/>
</g>
</g>
</g>
</svg>
