<svg xmlns="http://www.w3.org/2000/svg" width="225" height="150" viewBox="0 0 225 150">
    <defs>
        <radialGradient id="prefix__a" cx="50%" cy="50.362%" r="196.035%" fx="50%" fy="50.362%">
            <stop offset="0%" stop-color="#ECF5FF"/>
            <stop offset="100%" stop-color="#FFF"/>
        </radialGradient>
    </defs>
    <g fill="none" fill-rule="evenodd">
        <g transform="translate(1) translate(0 10)">
            <path fill="#E4F1FF" d="M0 139C20.444 65.743 47.741 34.05 81.893 43.92c51.227 14.805 104.323-46.312 128.18-30.93 10.06 6.487 11.466 25.113 12 57.01.206 12.35.206 35.35 0 69H0z"/>
            <path fill="#E4F1FF" stroke="#D3E8FF" d="M0 139C20.444 65.743 47.741 34.05 81.893 43.92 133.12 58.725 213.705-16.732 222 3.82c1.143 2.832 1.167 16.637.072 41.418V139H0z"/>
            <path fill="#FFF" fill-rule="nonzero" d="M107.75 46.735v3h1v-3h-1zm0 6v3h1v-3h-1zm0 6v3h1v-3h-1zm0 6v3h1v-3h-1zm0 6v3h1v-3h-1zm0 6v3h1v-3h-1zm0 6v3h1v-3h-1zm0 6v3h1v-3h-1zm0 6v3h1v-3h-1zm0 6v3h1v-3h-1zm0 6v3h1v-3h-1zm0 6v3h1v-3h-1zm0 6v3h1v-3h-1zm0 6v3h1v-3h-1zm0 6v3h1v-3h-1zm0 6V139h1v-2.265h-1zM158 28.055l-.007 3 1 .002.007-3-1-.002zm-.014 6l-.006 3 1 .002.006-3-1-.002zm-.013 6l-.007 3 1 .002.007-3-1-.002zm-.014 6l-.006 3 1 .002.006-3-1-.002zm-.013 6l-.007 3 1 .002.007-3-1-.002zm-.014 6l-.007 3 1 .002.007-3-1-.002zm-.013 6l-.007 3 1 .002.007-3-1-.002zm-.014 6l-.007 3 1 .002.007-3-1-.002zm-.013 6l-.007 3 1 .002.007-3-1-.002zm-.014 6l-.007 3 1 .002.007-3-1-.002zm-.013 6l-.007 3 1 .002.007-3-1-.002zm-.014 6l-.007 3 1 .002.007-3-1-.002zm-.014 6l-.006 3 1 .002.006-3-1-.002zm-.013 6l-.007 3 1 .002.007-3-1-.002zm-.014 6l-.006 3 1 .002.006-3-1-.002zm-.013 6l-.007 3 1 .002.007-3-1-.002zm-.014 6l-.007 3 1 .002.007-3-1-.002zm-.013 6l-.007 3 1 .002.007-3-1-.002zm-.014 6l-.007 2.944 1 .002.007-2.944-1-.002zM199 28.055l-.007 3 1 .002.007-3-1-.002zm-.014 6l-.006 3 1 .002.006-3-1-.002zm-.013 6l-.007 3 1 .002.007-3-1-.002zm-.014 6l-.006 3 1 .002.006-3-1-.002zm-.013 6l-.007 3 1 .002.007-3-1-.002zm-.014 6l-.007 3 1 .002.007-3-1-.002zm-.013 6l-.007 3 1 .002.007-3-1-.002zm-.014 6l-.007 3 1 .002.007-3-1-.002zm-.013 6l-.007 3 1 .002.007-3-1-.002zm-.014 6l-.007 3 1 .002.007-3-1-.002zm-.013 6l-.007 3 1 .002.007-3-1-.002zm-.014 6l-.007 3 1 .002.007-3-1-.002zm-.014 6l-.006 3 1 .002.006-3-1-.002zm-.013 6l-.007 3 1 .002.007-3-1-.002zm-.014 6l-.006 3 1 .002.006-3-1-.002zm-.013 6l-.007 3 1 .002.007-3-1-.002zm-.014 6l-.007 3 1 .002.007-3-1-.002zm-.013 6l-.007 3 1 .002.007-3-1-.002zm-.014 6l-.007 2.944 1 .002.007-2.944-1-.002zM55.75 46.735v3h1v-3h-1zm0 6v3h1v-3h-1zm0 6v3h1v-3h-1zm0 6v3h1v-3h-1zm0 6v3h1v-3h-1zm0 6v3h1v-3h-1zm0 6v3h1v-3h-1zm0 6v3h1v-3h-1zm0 6v3h1v-3h-1zm0 6v3h1v-3h-1zm0 6v3h1v-3h-1zm0 6v3h1v-3h-1zm0 6v3h1v-3h-1zm0 6v3h1v-3h-1zm0 6v3h1v-3h-1zm0 6V139h1v-2.265h-1z"/>
            <circle cx="56" cy="44.622" r="7" fill="url(#prefix__a)"/>
        </g>
        <g>
            <g transform="translate(1) translate(101) translate(14.286)">
                <rect width="72.689" height="44.958" y="10.084" fill="#2871C6" rx="6.303"/>
                <path fill="#9CC0FF" d="M10.504 10.084h4.202v5.882c0 1.16-.94 2.101-2.101 2.101-1.16 0-2.1-.94-2.1-2.1v-5.883zM57.983 10.084h4.202v5.882c0 1.16-.94 2.101-2.101 2.101-1.16 0-2.1-.94-2.1-2.1v-5.883z"/>
                <path fill="#F0F7FF" d="M27.311 23.529H44.958V41.176H27.311z"/>
                <path fill="#3792FC" d="M35.817 32.353h.635c2.841 0 5.145 2.303 5.145 5.145v1.578H30.672v-1.578c0-2.842 2.304-5.145 5.145-5.145z"/>
                <circle cx="36.134" cy="28.571" r="2.941" fill="#3792FC"/>
                <path fill="#9CC0FF" d="M47.9 0c2.784 0 5.041 2.257 5.041 5.042v5.042H50V7.563c0-2.785-2.257-5.042-5.042-5.042H26.891c-2.785 0-5.042 2.257-5.042 5.042v2.521h-2.941V5.042C18.908 2.257 21.165 0 23.95 0H47.9z"/>
            </g>
            <g transform="translate(1) translate(101) translate(0 27.31)">
                <rect width="35.714" height="21.429" fill="#FFF" rx="3.782"/>
                <path fill="#9CC0FF" d="M29.971 11.75l-2.267-2.986c-.297-.396-.5-.65-.607-.735.715-.17 1.282-.48 1.714-.932.297-.339.5-.763.58-1.243h.915c.292 0 .55-.188.638-.466.06-.188-.044-.39-.232-.45-.035-.01-.072-.016-.109-.016H29.42c-.054-.58-.23-1.073-.513-1.469h1.387c.291 0 .549-.188.637-.466.06-.188-.044-.39-.232-.45-.035-.01-.071-.016-.108-.016h-5.434c-.291 0-.55.188-.638.466-.06.188.044.39.232.45.035.01.072.016.109.016h.955c.662 0 1.161.141 1.512.452.27.24.432.58.5 1.017h-2.643c-.291 0-.55.188-.638.466-.06.188.044.39.232.45.035.01.072.016.109.016h2.913c-.081.353-.27.636-.554.848-.418.31-1.053.466-1.903.466-.463 0-.837.374-.837.837v.264c.297 0 .594.1.864.297.243.17.472.395.688.706l1.787 2.464c.395.546 1.029.869 1.703.869.294 0 .533-.238.533-.533 0-.116-.039-.23-.109-.322z"/>
                <rect width="17.227" height="1.261" x="2.941" y="4.202" fill="#DFE7F5" rx=".63"/>
                <rect width="17.227" height="1.261" x="2.941" y="6.723" fill="#DFE7F5" rx=".63"/>
                <rect width="29.832" height="1.261" x="2.941" y="14.286" fill="#DFE7F5" rx=".63"/>
                <rect width="17.227" height="1.261" x="2.941" y="9.244" fill="#DFE7F5" rx=".63"/>
                <rect width="17.227" height="1.261" x="2.941" y="11.765" fill="#DFE7F5" rx=".63"/>
                <rect width="29.832" height="1.261" x="2.941" y="16.807" fill="#DFE7F5" rx=".63"/>
            </g>
            <g transform="translate(1) translate(101) translate(73.53 20.168)">
                <path fill="#FFF" d="M1.68 0h22.69c.464 0 .84.376.84.84v30.673H.84V.84c0-.464.377-.84.84-.84z"/>
                <rect width="21.008" height="1.261" x="2.521" y="4.622" fill="#DFE7F5" rx=".63"/>
                <rect width="21.008" height="1.261" x="2.521" y="7.143" fill="#DFE7F5" rx=".63"/>
                <rect width="21.008" height="1.261" x="2.521" y="9.664" fill="#DFE7F5" rx=".63"/>
                <rect width="21.008" height="1.261" x="2.521" y="12.185" fill="#DFE7F5" rx=".63"/>
                <rect width="21.008" height="1.261" x="2.521" y="14.706" fill="#DFE7F5" rx=".63"/>
                <path fill="#94C5FF" d="M2.1 15.742h11.23c.725 0 1.4-.375 1.783-.992l1.294-2.081c.383-.617 1.058-.992 1.784-.992h3.973c1.02 0 1.847-.827 1.847-1.847V8.403c0-.232.188-.42.42-.42h1.62c.231 0 .42.188.42.42V32.97c0 1.16-.941 2.1-2.101 2.1H2.1c-1.16 0-2.1-.94-2.1-2.1V17.843c0-1.16.94-2.1 2.1-2.1z"/>
            </g>
        </g>
    </g>
</svg>
