<svg xmlns="http://www.w3.org/2000/svg" xmlns:xlink="http://www.w3.org/1999/xlink" width="318" height="196" viewBox="0 0 318 196">
  <defs>
    <radialGradient id="oops_illustration-a" cx="49.981%" cy="50%" r="99.987%" fx="49.981%" fy="50%" gradientTransform="matrix(0 1 -.2 0 .6 0)">
      <stop offset=".013%" stop-color="#EBF5FF"/>
      <stop offset="100%" stop-color="#F7FBFF"/>
    </radialGradient>
    <radialGradient id="oops_illustration-b" cx="49.981%" cy="50%" r="99.987%" fx="49.981%" fy="50%" gradientTransform="matrix(0 1 -.19048 0 .595 0)">
      <stop offset=".013%" stop-color="#EBF5FF"/>
      <stop offset="100%" stop-color="#F7FBFF"/>
    </radialGradient>
    <linearGradient id="oops_illustration-c" x1="44.719%" x2="44.719%" y1="5.583%" y2="57.873%">
      <stop offset="0%" stop-color="#D1E5F9"/>
      <stop offset="100%" stop-color="#FCFAFF"/>
    </linearGradient>
    <rect id="oops_illustration-d" width="106.008" height="146.163" x="0" y="0"/>
    <linearGradient id="oops_illustration-f" x1="-13.052%" x2="97.963%" y1="106.251%" y2="2.096%">
      <stop offset="0%" stop-color="#F5F2FD"/>
      <stop offset="100%" stop-color="#3792FC"/>
    </linearGradient>
  </defs>
  <g fill="none" fill-rule="evenodd" transform="translate(-2)">
    <path d="M6,0 L314,0 C317.313708,-6.08718376e-16 320,2.6862915 320,6 L320,194 C320,197.313708 317.313708,200 314,200 L6,200 C2.6862915,200 4.05812251e-16,197.313708 0,194 L0,6 C-4.05812251e-16,2.6862915 2.6862915,6.08718376e-16 6,0 Z"/>
    <g fill-rule="nonzero" transform="translate(2)">
      <path fill="#F9FCFF" d="M312.570698,67.9731373 C312.512023,68.2336965 312.456436,68.4942557 312.391585,68.7518873 C310.365751,77.6079729 307.055242,86.1420191 302.132713,93.9792889 C301.96904,94.2398481 301.805368,94.5004074 301.638607,94.7609666 C298.392704,99.8034124 294.508853,104.450842 290.073443,108.599881 C287.621443,110.895144 284.947096,113.07623 281.76629,114.648368 C277.310073,116.855802 272.100345,117.751658 266.980174,118.483566 C261.66236,119.247677 256.270431,119.885901 250.893942,120.573895 C248.9834,120.81396 247.08418,121.068664 245.196285,121.338006 C240.001997,122.066987 234.844768,122.910145 229.811065,124.0285 C223.58842,125.407414 217.557242,127.213763 211.859584,129.754947 C211.404595,129.950123 210.954753,130.157009 210.510058,130.375605 C210.065362,130.586395 209.617579,130.800112 209.17906,131.016756 C208.740541,131.233401 208.308199,131.450046 207.878944,131.672546 C207.656597,131.786724 207.434249,131.900901 207.21499,132.020934 C206.99573,132.140967 206.779559,132.246362 206.566476,132.363467 C205.924138,132.703072 205.294153,133.05146 204.664168,133.402776 L204.639463,133.417414 C204.222561,133.648697 203.811836,133.885835 203.404199,134.122974 C201.075725,135.463829 198.796662,136.863237 196.517599,138.271428 L195.084692,139.149717 L192.864304,140.511066 C192.431962,140.77748 191.990355,141.043895 191.554924,141.307382 C191.246108,141.500605 190.937292,141.693829 190.600682,141.892908 C188.982486,142.859026 187.342672,143.807579 185.659624,144.712217 C185.261252,144.928862 184.859791,145.145507 184.455241,145.356296 C181.054861,147.154715 177.498812,148.67479 173.825791,149.89998 L173.77638,149.917546 C171.928545,150.528647 170.043377,151.033123 168.131221,151.428204 C167.028748,151.656559 165.923186,151.843928 164.805272,151.987382 C161.816935,152.389048 158.786895,152.429382 155.787841,152.107415 C149.898717,151.460408 144.380173,149.317382 138.494138,148.594257 C126.376193,147.130441 114.607211,151.846855 103.211896,155.541526 C100.409904,156.449092 97.587325,157.299081 94.7441579,158.091494 C92.8542033,158.621395 90.9580723,159.12202 89.0465005,159.605079 C77.3348978,162.538519 65.3821138,164.525686 53.3164752,165.545244 C48.2727318,166.013795 43.1988582,166.120469 38.1381628,165.864356 C36.2142383,165.753106 34.311931,165.571592 32.4435935,165.278829 C26.0510997,164.341987 20.0909486,162.377546 15.2795934,158.779487 C11.3390997,155.825507 8.51960847,151.975671 6.37333642,147.94725 C4.17627881,143.836697 2.62505314,139.443669 1.76888804,134.907579 C1.65153792,134.289849 1.54654044,133.669191 1.46007192,133.048533 C1.30566386,131.986778 1.19037251,130.919169 1.11419786,129.845704 C0.698680089,124.123962 1.41936847,118.379109 3.23885278,112.909355 C5.27703919,106.78475 8.67401653,100.906065 10.1686866,94.7346179 C10.2304498,94.4730828 10.2891249,94.2125236 10.3447118,93.9529402 C10.5488464,93.0155916 10.7003792,92.0686357 10.7986715,91.1160652 C11.5614473,83.5334993 8.6369586,76.1412295 6.34245481,68.7255386 C6.26216262,68.467907 6.18187043,68.2073478 6.1046664,67.9467886 C5.8576135,67.1231483 5.62085447,66.3004838 5.39438932,65.4787952 C3.2697344,57.6385977 2.6798956,49.2450779 4.57293843,41.4195186 C4.6316135,41.1589594 4.7026412,40.8984001 4.77058075,40.6407686 C6.03790914,35.6941421 8.4210876,31.0666815 11.7560014,27.0770513 C15.3012105,22.8612618 19.9550695,19.3510315 24.927009,16.2682354 C27.3501862,14.7653845 29.8557144,13.3610972 32.4435935,12.0553735 C34.2964902,11.1185314 36.19468,10.231459 38.1381628,9.39415634 C53.7179361,2.66060363 71.4903039,-0.627126669 89.0650295,0.0989259713 C89.9914778,0.136985182 90.9179262,0.183827288 91.8443746,0.248235184 C92.7708229,0.312643079 93.7837398,0.388761501 94.7534224,0.473662818 C106.074621,1.51589967 117.090093,4.03073523 128.02836,6.77978131 C131.694007,7.70198527 135.353478,8.64761028 139.009861,9.5756695 C140.637322,9.98553793 142.261695,10.3954064 143.889156,10.7935643 C151.8597,12.7462945 159.947594,14.514584 168.137398,15.8349459 C170.033529,16.1452748 171.931718,16.4282792 173.831967,16.6839591 C180.429713,17.6031989 187.080713,18.1380075 193.747519,18.2853736 C196.339515,18.3341674 198.932541,18.3126981 201.526597,18.2209657 C202.835977,18.1760753 204.146387,18.1087398 205.457826,18.0189591 C218.999413,17.1143209 232.08704,14.0871498 245.196285,11.2590577 C247.092416,10.8491893 248.991635,10.4451761 250.893942,10.0470182 C253.389176,9.52589977 255.88441,9.02234713 258.391997,8.5568537 C273.996476,5.64971551 287.905554,7.32139316 302.413736,13.3201103 C305.711892,14.681459 309.00696,16.326788 311.026617,18.8826104 C313.046275,21.4384328 313.552733,24.5768539 313.929489,27.6069526 C314.463741,31.9222816 314.812703,36.2932356 314.945494,40.6876107 C314.945494,40.9452422 314.945494,41.2058015 314.964023,41.4663607 C315.174018,50.3429397 314.476093,59.3044201 312.570698,67.9731373 Z" transform="matrix(1 0 0 -1 0 166)"/>
      <path fill="#EFF7FF" d="M102.094227,66.2057788 C105.242797,36.6146107 274.176951,-20.499461 305.538988,7.52870854 C336.901025,35.5568781 306.750317,88.1584203 241.027071,101.628337 C175.303826,115.098253 98.945658,95.7969466 102.094227,66.2057788 Z"/>
      <path fill="#F4F9FE" d="M118.065866,134.547314 C120.883514,110.166984 272.062339,63.1103785 300.128161,86.2029454 C328.193983,109.295512 321.089976,157.868051 262.27438,168.965991 C203.458784,180.063931 115.248218,158.927644 118.065866,134.547314 Z"/>
      <path fill="#F4F9FF" d="M0.0658656275,134.547314 C2.88351375,110.166984 154.062339,63.1103785 182.128161,86.2029454 C210.193983,109.295512 203.089976,157.868051 144.27438,168.965991 C85.4587837,180.063931 -2.7517825,158.927644 0.0658656275,134.547314 Z" transform="matrix(-1 0 0 1 198 0)"/>
      <ellipse cx="158" cy="184" fill="#F9FCFF" rx="150" ry="12"/>
      <ellipse cx="47" cy="186" fill="url(#oops_illustration-a)" rx="20" ry="4"/>
      <ellipse cx="281" cy="185" fill="url(#oops_illustration-b)" rx="21" ry="4"/>
    </g>
    <g transform="translate(24 98)">
      <path fill="#E1ECF7" fill-rule="nonzero" d="M17.6460481,0.0646326881 C18.7156767,-0.0660461876 19.8572953,-0.019917078 20.8520186,0.402286865 C22.9671958,1.30017662 23.5684384,3.79900974 23.5394327,5.83006394 C23.5081625,8.01613388 23.0439327,10.4038749 24.7059537,12.1652444 C25.4699516,12.9750203 26.4203057,13.5947348 27.1705005,14.4193798 C27.9720959,15.3006241 28.6010648,16.3089428 29.0667693,17.391717 C29.9218579,19.3805681 30.3415503,21.719431 29.5596186,23.8057488 C28.8711414,25.6426292 27.1390097,27.3005712 27.5132814,29.389282 C27.9036796,31.5681963 30.1004766,33.2339947 31.4739235,34.8569438 C33.0282775,36.6936139 34.4594153,39.0410465 34.694519,41.4496466 C34.9199599,43.7579419 33.9151891,46.0924504 32.3731884,47.8373329 C29.2922671,51.3238964 24.6611645,53.0331254 19.9915917,53.0225839 C18.0090183,53.0179422 15.7643426,52.9284009 14.0534351,51.8630002 C13.5246543,51.5336926 13.2456885,51.1642395 12.9313432,50.650647 C12.6494989,50.1901037 12.2771847,49.8905399 11.8462385,49.5646597 C10.8994511,48.8488829 10.2157027,47.8841892 9.77935162,46.8043152 C8.08490608,42.6100026 9.4392024,37.4211236 11.8110426,33.6965412 C12.3730641,32.8141115 12.8331999,31.9649496 12.5601676,30.9131453 C12.2752501,29.8151891 11.5749848,28.8248924 10.9556081,27.8811057 C10.3435655,26.9483502 9.64483738,26.0585141 9.16646872,25.0500008 C8.66545584,23.9935114 8.52437462,22.8871893 8.61289799,21.7309495 C8.77927158,19.5590285 9.71684869,17.5547621 11.0442538,15.808058 C12.3227906,14.1255999 13.8240062,12.5157481 13.8273699,10.3112211 C13.8310638,7.9747228 12.2690269,5.89626342 12.9344777,3.52076645 C13.2100179,2.53711624 13.7634509,1.52788518 14.6553488,0.938172276 C15.5106957,0.372594237 16.6400751,0.187534617 17.6460481,0.0646326881 Z"/>
      <path fill="#D6E5F4" fill-rule="nonzero" d="M16.947123,3.79986381 C16.9671812,3.48606324 17.3394114,3.29785728 17.6324391,3.37974206 C18.0181443,3.48757808 18.0107265,3.84797274 18.0005434,4.16905615 C17.9693277,5.15599014 18.1121772,6.11512885 18.3494195,7.07273471 C18.8425021,9.06370387 19.753785,10.8980548 20.4757497,12.8105385 C21.1970852,14.7214212 21.5356952,16.6943498 21.1125296,18.7163365 C20.7136106,20.622788 20.0868968,22.4798264 19.6786417,24.3886843 C19.318798,26.0710973 18.9359071,27.8452963 19.483903,29.5234252 C20.0112099,31.1387463 21.1770128,32.4542486 22.016492,33.9140265 C23.7543107,36.9358596 24.5252852,40.2882224 24.6284064,43.7380995 C24.6761965,45.3400899 24.6331604,46.9568112 24.2615169,48.5280148 C24.0476113,49.4327183 23.7601583,50.6553847 22.9848883,51.2799941 C22.6273914,51.5680344 22.0159582,51.6676344 21.7150705,51.2410796 C21.4325807,50.8410048 21.6804011,50.2216491 21.7700819,49.7952322 C22.1584647,47.9493428 22.2365986,46.0629169 22.1436141,44.1886092 C22.0536202,42.3730962 21.839117,40.5606147 21.267725,38.8267243 C20.7373966,37.2176487 19.9317296,35.7723863 18.9835082,34.3647873 C18.0172772,32.9303456 17.0127953,31.4928433 16.6135521,29.7931775 C16.2079093,28.0669202 16.5374534,26.3103979 16.978099,24.6171084 C17.4440926,22.8260858 18.0544712,21.0864422 18.6854939,19.3439464 C19.3004472,17.6460141 19.518418,16.0394682 19.178938,14.2623848 C18.5083116,10.7514602 16.713242,7.45606436 16.947123,3.79986381 Z"/>
      <path fill="#E3F1FF" d="M45.8878099,4.3248033 C47.2114512,4.72670379 48.5260758,5.37515283 49.4696276,6.39193958 C51.4759331,8.55417006 50.8603435,11.8221353 49.752785,14.2090238 C48.5606348,16.7780598 46.75407,19.3603621 47.7724649,22.3080242 C48.2405428,23.6631352 49.0276575,24.8904213 49.4716865,26.2559361 C49.946087,27.7151266 50.1508472,29.2347943 50.1247597,30.7575814 C50.076464,33.5544849 49.3324884,36.5388188 47.3126109,38.5993743 C45.5341897,40.4135559 42.6262442,41.4731879 41.9612153,44.1380563 C41.2674231,46.9179912 42.9635729,50.0308309 43.7166626,52.664671 C44.5689735,55.6453748 45.0067944,59.1660199 44.0094538,62.1367994 C43.0537971,64.9839292 40.6413673,67.222076 37.9104733,68.4834362 C32.4539901,71.0039734 26.1187277,70.6161487 20.6473744,68.1744079 C18.3244378,67.1375972 15.7389813,65.8639731 14.2953849,63.7139499 C13.8492363,63.0494186 13.7173156,62.4673691 13.6200848,61.6964517 C13.5329346,61.0051799 13.2545846,60.4572214 12.9213749,59.847639 C12.1892184,58.5086029 11.8971489,57.0120293 11.956132,55.5079429 C12.1856673,49.6661506 16.5167678,44.2341814 21.267376,41.0632774 C22.3929907,40.3120692 23.3815195,39.547201 23.6172231,38.1612723 C23.8633806,36.7145801 23.5654712,35.1791357 23.3378527,33.7407752 C23.1130058,32.3192759 22.7637996,30.9034384 22.7357818,29.4618861 C22.7065628,27.9518159 23.1258481,26.5700569 23.8408216,25.2487093 C25.1839561,22.76669 27.343021,20.8841407 29.8231782,19.5089887 C32.2120596,18.1843932 34.8237446,17.0615062 35.9929189,14.4561249 C37.2322354,11.6948425 36.4987137,8.42419554 38.5348193,5.96105309 C39.3779209,4.94110477 40.5604846,4.03546993 41.9182932,3.80204532 C43.2204742,3.57814853 44.642941,3.94682067 45.8878099,4.3248033 Z"/>
      <path fill="#DBE9F7" fill-rule="nonzero" d="M43.1840023,8.89094685 C43.3718021,8.52984621 43.9056224,8.50206305 44.2053771,8.75261843 C44.599909,9.08248122 44.4024873,9.5053854 44.2224204,9.88028643 C43.6690367,11.0326874 43.3337462,12.2434051 43.1096327,13.5017815 C42.6434764,16.1179967 42.7483504,18.7679303 42.5909327,21.4111642 C42.4336178,24.0521723 41.7962837,26.5660596 40.2425058,28.7387739 C38.7775884,30.7873757 37.0721874,32.6580668 35.595093,34.7046251 C34.2932014,36.5083931 32.9162898,38.4087776 32.6781867,40.6832981 C32.4487858,42.8725954 33.1230066,45.0414921 33.3400934,47.2102083 C33.7895278,51.6996126 32.9353157,56.0736894 31.2491066,60.2132043 C30.4659841,62.1353861 29.5689427,64.0274082 28.3114967,65.6932937 C27.5875586,66.6525612 26.6110953,67.9498229 25.3774411,68.2831654 C24.8085628,68.4368984 24.0414455,68.2343779 23.9130128,67.5715322 C23.7922246,66.9496881 24.4063757,66.3461153 24.7345657,65.8881417 C26.1554452,63.9057374 27.2347777,61.7127177 28.1076737,59.4443604 C28.9532743,57.2471972 29.6516971,54.9883653 29.8916468,52.6355475 C30.1142437,50.4520625 29.9290916,48.3182575 29.5575241,46.1543383 C29.1789561,43.9491913 28.7572638,41.7203714 29.1805842,39.4983119 C29.6103482,37.2414076 30.9156231,35.3339958 32.3176934,33.5596981 C33.8005886,31.682947 35.4254059,29.9427173 37.0758564,28.20993 C38.6841777,26.521494 39.7804425,24.7332106 40.3141901,22.4507942 C41.3687829,17.9415381 40.9956765,13.0981646 43.1840023,8.89094685 Z"/>
      <path fill="#EBF5FF" d="M4.96843138,20.9103148 C7.16935011,20.9103148 9.10432563,22.0769465 10.4376411,23.7324357 C11.9984133,25.670421 12.3136412,28.0370864 12.9474194,30.3468197 C13.2627856,31.4962772 13.8051934,32.6373503 14.7557223,33.4183053 C15.62028,34.1285348 16.7178321,34.2706618 17.7526709,34.6176627 C19.8208257,35.3111237 21.4908271,36.9816234 22.1503552,39.0199496 C22.9549683,41.5062937 22.1027318,44.0137338 22.2494782,46.5334798 C22.3841803,48.8475405 24.6658095,50.2912591 26.5015236,51.4005532 C28.3116262,52.494431 29.9423107,53.5183947 30.4874873,55.6493537 C31.0656127,57.9094575 31.2595671,60.4321786 30.4588303,62.6648308 C29.1256533,66.3823114 25.2239995,68.0192739 21.4540021,68.2731012 C18.0325965,68.5033985 13.7305743,68.1417927 11.1611283,65.6582884 C9.623614,64.1721075 9.06680842,62.0936178 9.13588994,60.0256761 C9.17880634,58.7397713 9.43353591,57.4657669 9.76288461,56.2231358 C9.99629439,55.3423809 10.3116607,54.4654125 10.4015082,53.5553126 C10.6403172,51.1340143 8.40243496,50.6689573 6.49750091,50.0041652 C4.07687795,49.1592463 2.38223421,47.5633937 1.20383314,45.3400725 C0.106419456,43.2699672 -0.354031901,40.9461699 0.303834861,38.6669985 C0.639828681,37.5032067 1.24924145,36.4473285 2.0757281,35.5492642 C2.43954836,35.1539861 2.95233003,34.8242946 3.28070965,34.4090024 C3.58721575,34.0211619 3.52048769,33.5186461 3.41485798,33.0644076 C2.92644175,30.9661744 1.40470954,29.2287357 0.860501999,27.1342889 C0.369178529,25.2437694 0.659625596,22.8908976 2.38804869,21.6712556 C3.13479391,21.1442632 4.05569662,20.9161297 4.96843138,20.9103148 Z"/>
      <path fill="#DFEAF5" d="M7.96746147,26.3773826 C10.3001996,28.8622173 10.934266,32.2336141 11.1203522,35.5012902 C11.2245879,37.3336445 11.1160949,39.2663388 11.6544402,41.0436549 C12.115055,42.5648471 13.1949043,43.7276822 14.3079882,44.8266891 C16.5485759,47.0390372 19.0473496,49.2881677 19.7027026,52.4899871 C20.087235,54.3689955 19.8276756,56.3098036 20.359017,58.1681219 C20.8421544,59.8572686 21.6927949,61.5168 22.7274617,62.9431968 C23.5605236,64.0918329 24.6458662,64.9712277 25.5565212,66.0419717 C25.8343458,66.3688205 26.2323368,66.8499657 26.1176638,67.3113671 C25.9834895,67.8517427 25.2951765,68.0228077 24.8068204,67.9378839 C23.6681926,67.7400435 22.7097457,66.6528016 21.9652636,65.8623872 C20.876625,64.7065842 19.95155,63.463423 19.1996519,62.0689406 C18.364942,60.5202969 17.6928343,58.876993 17.4056711,57.1395694 C17.1076584,55.3371006 17.2559781,53.4586332 16.5754931,51.7287825 C15.4304107,48.8181113 12.6529883,47.1004312 10.6449054,44.8318278 C8.14297301,42.0049986 8.51610675,38.4867431 8.77237009,35.0094619 C8.91313643,33.0985395 9.05307871,30.9405534 8.08749048,29.1958276 C7.71888875,28.5298242 6.89708814,27.9088522 6.73860588,27.1518397 C6.5934449,26.4582496 7.38571892,25.7573572 7.96746147,26.3773826 Z"/>
      <path fill="#BED6F2" d="M10.4551574,67.2117261 C10.4551574,81.4227084 12.7744209,88.8688379 25.0177328,88.8688379 C37.2610447,88.8688379 39.5802387,81.4227084 39.5802387,67.2117261 L10.4551574,67.2117261 Z"/>
    </g>
    <g transform="translate(93 32)">
      <path fill="url(#oops_illustration-c)" d="M77.6061856,160.618557 C117.115454,160.618557 157.406186,158.089468 157.406186,153.256873 C157.406186,148.424277 116.153891,142.950515 77.6061856,142.950515 C39.0584801,142.950515 1.60618557,149.164571 1.60618557,153.256873 C1.60618557,157.349175 38.0969169,160.618557 77.6061856,160.618557 Z"/>
      <g transform="translate(19.274)">
        <mask id="oops_illustration-e" fill="#fff">
          <use xlink:href="#oops_illustration-d"/>
        </mask>
        <use fill="#19487F" xlink:href="#oops_illustration-d"/>
        <g fill-rule="nonzero" mask="url(#oops_illustration-e)">
          <g transform="translate(73.629 84.541)">
            <path fill="url(#oops_illustration-f)" d="M14.9981977,0.55321221 L11.4945204,4.05688954 C11.3647545,4.18665537 11.1598611,4.18665537 11.0300953,4.05688954 C10.9003295,3.92712371 10.9003295,3.7222303 11.0300953,3.59246447 L12.8877956,1.73476421 C13.0175614,1.60499839 13.0175614,1.39327519 12.8877956,1.25667959 C12.7580297,1.12691376 12.5463065,1.12691376 12.4097109,1.25667959 L9.69828812,3.96810239 C9.56852229,4.09786822 9.36362888,4.09786822 9.23386306,3.96810239 C9.10409723,3.83833657 9.10409723,3.63344316 9.23386306,3.50367733 L11.2486483,1.48889212 C11.3784141,1.35912629 11.3784141,1.14057332 11.2486483,1.01080749 C11.1188824,0.881041667 10.9003295,0.881041667 10.7705636,1.01080749 L1.30448805,10.4768831 L1.31814761,10.4905426 C0.0614680233,11.7472222 0.116106266,13.8098159 1.46840278,15.0050275 C2.70459303,16.0909625 4.59644219,15.9543669 5.76433463,14.7864745 L16.5622174,3.98859173 C16.7397917,3.81101745 16.7397917,3.52416667 16.5622174,3.3397626 C16.3846431,3.16218831 16.0977923,3.16218831 15.9133883,3.3397626 L13.6254118,5.62773902 C13.495646,5.75750485 13.2907526,5.75750485 13.1609868,5.62773902 C13.0312209,5.4979732 13.0312209,5.29307978 13.1609868,5.16331396 L14.7113469,3.61295381 C14.8547723,3.46952843 14.8547723,3.23048611 14.7113469,3.08706073 C14.5679215,2.94363534 14.3288792,2.94363534 14.1854538,3.08706073 L11.6242862,5.64822836 C11.4945204,5.77799419 11.2896269,5.77799419 11.1598611,5.64822836 C11.0300953,5.51846254 11.0300953,5.31356913 11.1598611,5.1838033 L15.4011547,0.942509691 C15.5104312,0.833233205 15.5104312,0.655658915 15.4011547,0.546382429 C15.2782187,0.443935724 15.1006444,0.443935724 14.9981977,0.55321221 Z" opacity=".64"/>
            <path fill="#F5F2FD" d="M5.13599484,11.0369251 C6.04435563,11.9452859 6.04435563,13.4136886 5.13599484,14.3152197 C4.22763405,15.2235804 2.75923127,15.2235804 1.85770026,14.3152197 C0.949339471,13.4068589 0.949339471,11.9384561 1.85770026,11.0369251 C2.75923127,10.1285643 4.22763405,10.1285643 5.13599484,11.0369251 Z"/>
          </g>
        </g>
        <g mask="url(#oops_illustration-e)">
          <g transform="translate(46.684 4.015)">
            <path fill="#94C5FF" d="M36.4361133,50.5948454 C42.4248107,50.5948454 47.6921117,49.0635695 52.0964225,45.7762887 C52.0964225,40.957732 52.0964225,10.4402062 52.0964225,4.8185567 C47.8031099,1.81203746 42.1375246,0 36.4361133,0 C22.0211966,0 10.3355978,11.3260419 10.3355978,25.2974227 C10.3355978,39.2688034 22.0211966,50.5948454 36.4361133,50.5948454 Z"/>
            <path fill="#68AEFF" d="M36.4361133,50.5948454 C42.4248107,50.5948454 47.6921117,49.0635695 52.0964225,45.7762887 C24.7912679,56.2164948 12.7448761,35.104037 12.7448761,24.8958763 C12.7448761,14.6877156 23.1850823,-6.42474227 52.0964225,4.8185567 C47.8031099,1.81203746 42.1375246,0 36.4361133,0 C22.0211966,0 10.3355978,11.3260419 10.3355978,25.2974227 C10.3355978,39.2688034 22.0211966,50.5948454 36.4361133,50.5948454 Z"/>
            <g transform="translate(28.58 37.272)">
              <path fill="#2871C6" d="M4.54863372,1.33863695 C5.51163276,2.5748272 5.50480298,4.20031493 4.5213146,4.96525033 C3.54465601,5.73018573 1.96697675,5.34088825 1.00397771,4.104698 C0.0409786822,2.86850775 0.0478084626,1.24302003 1.03129684,0.478084626 C2.00795543,-0.280020995 3.57880491,0.102446706 4.54863372,1.33863695 Z"/>
              <path fill="#19487F" d="M1.51621124,3.70174096 C0.635169574,2.5748272 0.580531331,1.13374354 1.31131783,0.314169897 C1.21570091,0.361978359 1.1132542,0.409786822 1.03129684,0.484914406 C0.0546382429,1.24984981 0.0409786822,2.86850775 1.00397771,4.11152778 C1.96697675,5.34771803 3.54465601,5.73701551 4.5213146,4.97208011 C4.61010175,4.9037823 4.67839955,4.82182494 4.75352714,4.73986758 C3.77003876,5.23844154 2.39042313,4.82865472 1.51621124,3.70174096 Z"/>
            </g>
            <g transform="translate(35.049 42.736)">
              <path fill="#2871C6" d="M3.18267765,0.525893088 C4.05688954,1.09959464 4.40520834,2.11723191 3.95444283,2.81386951 C3.50367733,3.50367733 2.42457203,3.60612403 1.55036014,3.03242248 C0.676148256,2.45872093 0.327829458,1.44108366 0.778594962,0.74444606 C1.22936047,0.0546382429 2.30846576,-0.0409786822 3.18267765,0.525893088 Z"/>
              <path fill="#19487F" d="M1.78257268,2.67044412 C0.983488373,2.15138082 0.635169574,1.25667959 0.915190569,0.580531331 C0.867382107,0.635169574 0.812743864,0.682978037 0.771765182,0.74444606 C0.320999677,1.43425388 0.662488696,2.45872093 1.54353036,3.03242248 C2.41774225,3.60612403 3.49684755,3.50367733 3.94761305,2.81386951 C3.98859173,2.75240149 4.01591086,2.68410368 4.04322998,2.61580588 C3.53782623,3.14852875 2.58165698,3.18950743 1.78257268,2.67044412 Z"/>
            </g>
            <g transform="translate(19.347 31.207)">
              <ellipse cx="2.312" cy="2.285" fill="#2871C6" rx="1.086" ry="1.373" transform="rotate(-37.827 2.312 2.285)"/>
              <path fill="#19487F" d="M1.69378553,2.75240149 C1.27033915,2.20601906 1.24302003,1.50938146 1.59816861,1.1132542 C1.55036014,1.14057332 1.50255168,1.16106266 1.461573,1.19521156 C0.990318153,1.5640197 0.983488373,2.34944445 1.44791344,2.95046512 C1.9123385,3.55148579 2.6772739,3.73588986 3.14852875,3.36708172 C3.18950743,3.33293282 3.22365633,3.29195414 3.25780524,3.25780524 C2.78655039,3.49684755 2.11723191,3.29878392 1.69378553,2.75240149 Z"/>
            </g>
            <g transform="translate(22.552 26.104)">
              <path fill="#2871C6" d="M4.67156977,1.69378553 C5.51163276,2.88216732 5.42967539,4.384719 4.49399548,5.05403747 C3.55148579,5.71652617 2.11040213,5.29307978 1.27033915,4.104698 C0.430276163,2.91631622 0.512233528,1.41376454 1.44791344,0.74444606 C2.38359335,0.075127584 3.83150679,0.505403747 4.67156977,1.69378553 Z"/>
              <path fill="#19487F" d="M1.75525355,3.7563792 C0.990318153,2.67044412 0.997147934,1.33863695 1.70744509,0.601020672 C1.61865795,0.641999355 1.52304102,0.682978037 1.44108366,0.74444606 C0.498573967,1.40693476 0.423446383,2.91631622 1.26350937,4.104698 C2.10357235,5.29307978 3.55148579,5.72335595 4.4871657,5.05403747 C4.56912307,4.99256945 4.64425065,4.91744186 4.71254845,4.84914406 C3.78369832,5.27942022 2.52701874,4.8354845 1.75525355,3.7563792 Z"/>
            </g>
            <path fill="#2871C6" d="M25.4116885 39.3839215C26.4293258 40.4015588 26.7161765 41.7538553 26.0536878 42.4095142 25.3980289 43.0651731 24.0389026 42.7783223 23.0280951 41.7675149 22.0172876 40.7498776 21.7236071 39.3975811 22.3860958 38.7419222 23.0417547 38.0862632 24.3940512 38.373114 25.4116885 39.3839215zM18.3188149 32.3645414C18.5715168 32.7538389 18.5441977 33.218264 18.2710065 33.3958382 17.9978152 33.5734125 17.5675391 33.402668 17.3148372 33.0133705 17.0621353 32.6240731 17.0894545 32.159648 17.3626457 31.9820737 17.6426667 31.8044994 18.0661131 31.9752439 18.3188149 32.3645414zM30.0877137 44.4049973C30.4838409 44.6645289 30.6614152 45.0948051 30.4838409 45.3611665 30.3062667 45.6343577 29.8418416 45.6480173 29.4457143 45.3884856 29.0495871 45.128954 28.8720128 44.6986778 29.0495871 44.4323164 29.2271614 44.1591252 29.6915864 44.1454656 30.0877137 44.4049973z"/>
            <path fill="#3792FC" d="M78.4150119,13.3225408 C79.776624,17.7761734 63.3442847,26.7478932 41.7123549,33.3614379 C20.080425,39.9749825 1.44047626,41.7259372 0.0788641267,37.2723046 C-0.62161707,34.9811338 3.38722536,31.4942121 10.3906236,27.7477674 C10.4719099,28.9822797 10.6451374,30.1926973 10.9032425,31.3727276 C8.13745867,32.8518146 6.65143048,34.0488101 6.87347636,34.7750894 C7.52186309,36.8958669 22.4890147,34.1998777 40.3035452,28.7534292 C58.1180757,23.3069807 72.0339848,17.1725319 71.385598,15.0517545 C70.920147,13.5293326 63.0759019,14.4891031 52.0964745,17.1666765 L52.096525,13.2325699 C66.5916165,10.1330638 77.3908632,9.97270138 78.4150119,13.3225408 Z"/>
          </g>
        </g>
        <g mask="url(#oops_illustration-e)">
          <g transform="translate(10.44 128.495)">
            <path fill="#94C5FF" d="M49.7917526,17.6680412 C48.0173605,12.6462064 44.7405139,8.10264155 40.0631892,4.80941109 C28.111537,-3.60814063 11.6321257,-0.690693724 3.25645132,11.3275477 C1.8559733,13.3362817 0.781820255,15.4679993 0,17.6680412 L49.7917526,17.6680412 Z"/>
            <path fill="#68AEFF" d="M1.94408754,17.6680412 C2.56945836,16.3425501 3.29679181,15.0512212 4.16007544,13.8145517 C12.5346064,1.80314262 29.0117679,-1.12113671 40.9617885,7.29641501 C44.8499636,10.0362188 47.7660949,13.6437409 49.6558024,17.6680412 L49.7917526,17.6680412 C48.0176028,12.6462064 44.734406,8.10264155 40.0577199,4.80941109 C28.1076992,-3.60814063 11.6305377,-0.690693724 3.25600676,11.3275477 C1.85571993,13.3362817 0.774916013,15.4679993 0,17.6680412 L1.94408754,17.6680412 Z"/>
            <path fill="#2871C6" d="M21.582106,11.1666909 C20.0112565,11.2486483 18.6931089,10.3061386 18.6316408,9.06994833 C18.5701728,7.83375808 19.7858737,6.76148256 21.3567232,6.6795252 C22.9275727,6.59756784 24.2457203,7.54007753 24.3071883,8.78309755 C24.3686564,10.0192878 23.1461257,11.0847335 21.582106,11.1666909 Z"/>
            <path fill="#19487F" d="M21.3840423,7.32835433 C22.8114664,7.25322675 24.0203376,8.03182171 24.2798692,9.10409723 C24.2935288,8.99482074 24.3071883,8.88554426 24.3071883,8.77626777 C24.2457203,7.54007753 22.9207429,6.59756784 21.3567232,6.67269542 C19.7858737,6.75465278 18.5701728,7.82009852 18.6316408,9.06311855 C18.6384706,9.17239503 18.6657897,9.28167152 18.6862791,9.38411823 C18.8297045,8.29818315 19.9566182,7.40348192 21.3840423,7.32835433 Z"/>
            <path fill="#2871C6" d="M13.4614971,14.6567087 C12.4916683,15.0460061 11.4535417,14.738666 11.1462016,13.9737306 C10.8388614,13.2087952 11.3715843,12.2662855 12.3414131,11.8769881 C13.3112419,11.4876906 14.3493686,11.7950307 14.6567087,12.5599661 C14.9640488,13.3249015 14.4313259,14.2605814 13.4614971,14.6567087 Z"/>
            <path fill="#19487F" d="M12.5053279,12.2799451 C13.3863695,11.9247965 14.3220494,12.1501793 14.7113469,12.7716893 C14.6976874,12.7033915 14.6840278,12.6282639 14.6567087,12.5599661 C14.3493686,11.7950307 13.3112419,11.4876906 12.3414131,11.8769881 C11.3715843,12.2662855 10.8320317,13.2019655 11.1462016,13.9737306 C11.1735207,14.0420284 11.2144994,14.1034965 11.255478,14.1649645 C11.1052229,13.4410078 11.6242862,12.6350937 12.5053279,12.2799451 Z"/>
            <path fill="#2871C6" d="M19.9156396,16.6441748 C19.1575339,16.6783237 18.5155346,16.2275582 18.4882155,15.6265375 C18.4608963,15.0255168 19.0482574,14.5132833 19.8063631,14.4723046 C20.5644687,14.4381557 21.206468,14.8889212 21.2337872,15.4899419 C21.2611063,16.0909625 20.6737452,16.6100259 19.9156396,16.6441748 Z"/>
            <path fill="#19487F" d="M19.8200226,14.7864745 C20.5098304,14.7523256 21.0971916,15.1279635 21.2201276,15.6470268 C21.2269574,15.5923886 21.2337872,15.5445801 21.2337872,15.4899419 C21.206468,14.8889212 20.5644687,14.4313259 19.8063631,14.4723046 C19.0482574,14.5064535 18.4540666,15.0255168 18.4882155,15.6265375 C18.4882155,15.6811757 18.501875,15.7289842 18.5155346,15.7836224 C18.5838324,15.2577293 19.1302148,14.8206234 19.8200226,14.7864745 Z"/>
            <path fill="#2871C6" d="M32.9673498,10.9550051 C31.5126066,10.9617975 30.3242248,10.0329474 30.3173656,8.87871448 C30.3105653,7.7244816 31.4921173,6.78880169 32.9468605,6.78193448 C34.4016037,6.77514212 35.5899855,7.70399225 35.5968449,8.85822514 C35.6036451,10.012458 34.4289228,10.9481379 32.9673498,10.9550051 Z"/>
            <path fill="#19487F" d="M32.9536903,7.38982236 C34.2786677,7.38299258 35.3714325,8.15475776 35.5626664,9.15873547 C35.5831557,9.05628877 35.6036451,8.96067184 35.5968153,8.85822514 C35.5899855,7.70399225 34.4084335,6.77514212 32.9468605,6.7819719 C31.4921173,6.78880169 30.3105653,7.7244816 30.3173656,8.87871448 C30.3173656,8.98116118 30.3378844,9.08360789 30.3583737,9.17922481 C30.5427778,8.1752471 31.6287129,7.39665214 32.9536903,7.38982236 Z"/>
            <path fill="#2871C6" d="M27.1005685 5.77799419C26.6361434 5.75750485 26.2741651 5.47748385 26.2878246 5.1496544 26.3014842 4.82182494 26.6839519 4.56912307 27.148377 4.58961241 27.612802 4.61010175 27.9747804 4.89012274 27.9611208 5.2179522 27.954291 5.54578166 27.5649936 5.79848353 27.1005685 5.77799419zM14.6976874 9.50022449C14.2605814 9.67779878 13.8098159 9.57535208 13.6868799 9.27484174 13.5639438 8.9743314 13.8234755 8.58503392 14.2605814 8.40745963 14.6976874 8.22988534 15.1484529 8.33233205 15.2713889 8.63284238 15.3943249 8.9401825 15.1347933 9.3226502 14.6976874 9.50022449zM22.0192119 4.99256945C20.6054474 5.23844154 19.3282784 4.69888889 19.1711935 3.78369832 19.0072788 2.86850775 20.024916 1.91916828 21.4386806 1.67329619 22.8524451 1.4274241 24.129614 1.96697675 24.286699 2.88216732 24.4437839 3.80418766 23.4329764 4.74669736 22.0192119 4.99256945z"/>
          </g>
        </g>
        <path fill="#6FB1FE" d="M34.5329897,63.4443299 C34.5329897,64.7748269 33.4542083,65.8536082 32.1237113,65.8536082 C30.7932143,65.8536082 29.714433,64.7748269 29.714433,63.4443299 C29.714433,62.1138329 30.7932143,61.0350515 32.1237113,61.0350515 C33.4542083,61.0440414 34.5329897,62.1228227 34.5329897,63.4443299 Z" mask="url(#oops_illustration-e)"/>
        <path fill="#7F66BF" d="M14.4556701,39.3515464 C14.4556701,40.2391753 13.7371134,40.957732 12.8494845,40.957732 C11.9618557,40.957732 11.243299,40.2391753 11.243299,39.3515464 C11.243299,38.4639175 11.9618557,37.7453608 12.8494845,37.7453608 C13.7300687,37.7453608 14.4556701,38.4639175 14.4556701,39.3515464 Z" mask="url(#oops_illustration-e)"/>
        <circle cx="92.356" cy="143.754" r="3.212" fill="#6FB1FE" mask="url(#oops_illustration-e)"/>
        <path fill="#DFD8EF" d="M57.8226804,120.463918 C57.8226804,121.353179 57.1057564,122.070103 56.2164948,122.070103 C55.3272333,122.070103 54.6103093,121.353179 54.6103093,120.463918 C54.6103093,119.574656 55.3272333,118.857732 56.2164948,118.857732 C57.0988629,118.857732 57.8226804,119.574656 57.8226804,120.463918 Z" mask="url(#oops_illustration-e)"/>
        <circle cx="40.155" cy="26.502" r="1" fill="#DFD8EF" mask="url(#oops_illustration-e)"/>
        <path fill="#F6F2FF" d="M68.3626098 63.1462079C68.3762693 62.9413145 68.5333543 62.7773997 68.7450775 62.7637402 69.1616941 62.7432508 69.5578213 62.6954424 69.9266295 62.6203148 69.5578213 62.5451872 69.1616941 62.4973788 68.7450775 62.4768894 68.5401841 62.4632299 68.3762693 62.3061449 68.3626098 62.0944217 68.3421204 61.6778051 68.294312 61.2816778 68.2191844 60.9128697 68.1440568 61.2816778 68.0962483 61.6778051 68.075759 62.0944217 68.0620994 62.2993151 67.9050145 62.4632299 67.6932913 62.4768894 67.2766747 62.4973788 66.8805474 62.5451872 66.5117393 62.6203148 66.8805474 62.6954424 67.2766747 62.7432508 67.6932913 62.7637402 67.8981847 62.7773997 68.0620994 62.9344847 68.075759 63.1462079 68.0962483 63.5628245 68.1440568 63.9589518 68.2191844 64.3277599 68.294312 63.952122 68.3421204 63.5559947 68.3626098 63.1462079zM27.1885456 99.3185125C27.1953753 99.1409382 27.3388007 98.9975128 27.5232048 98.9838532 27.8851832 98.9633639 28.2266722 98.9223852 28.5476719 98.8609172 28.2266722 98.7994492 27.8783534 98.7584705 27.5232048 98.7379811 27.3456305 98.7311514 27.2022051 98.587726 27.1885456 98.4033219 27.1680562 98.0413435 27.1270775 97.6998545 27.0656095 97.3788548 27.0041415 97.6998545 26.9631628 98.0481733 26.9426735 98.4033219 26.9358437 98.5808962 26.7924183 98.7243216 26.6080142 98.7379811 26.2460359 98.7584705 25.9045469 98.7994492 25.5835472 98.8609172 25.9045469 98.9223852 26.2528657 98.9633639 26.6080142 98.9838532 26.7855885 98.990683 26.9290139 99.1341084 26.9426735 99.3185125 26.9631628 99.6804908 27.0041415 100.02198 27.0656095 100.34298 27.1270775 100.02881 27.1680562 99.6804908 27.1885456 99.3185125zM83.9152068 125.789847C83.8605686 125.619103 83.942526 125.434699 84.1064407 125.359571 84.4342702 125.209316 84.7416103 125.052231 85.0216313 124.874657 84.7006316 124.929295 84.3591426 125.018082 84.0176536 125.127359 83.846909 125.181997 83.662505 125.100039 83.5873774 124.936125 83.4371222 124.608295 83.2800373 124.300955 83.102463 124.020934 83.1571012 124.341934 83.2458884 124.683423 83.3551649 125.024912 83.4098031 125.195656 83.3278457 125.38006 83.163931 125.455188 82.8361016 125.605443 82.5287614 125.762528 82.2487404 125.940102 82.5697401 125.885464 82.9112291 125.796677 83.2527182 125.687401 83.4234627 125.632762 83.6078667 125.71472 83.6829943 125.878634 83.8332495 126.206464 83.9903344 126.513804 84.1679087 126.793825 84.1132705 126.465996 84.0313131 126.131336 83.9152068 125.789847zM24.5973772 19.6218054C24.604207 19.4442311 24.7476323 19.3008057 24.9320364 19.2871461 25.2940148 19.2666568 25.6355038 19.2256781 25.9565035 19.1642101 25.6355038 19.1027421 25.287185 19.0617634 24.9320364 19.041274 24.7544621 19.0344442 24.6110367 18.8910189 24.5973772 18.7066148 24.5768878 18.3446364 24.5359092 18.0031474 24.4744411 17.6821477 24.4129731 18.0031474 24.3719944 18.3514662 24.3515051 18.7066148 24.3446753 18.8841891 24.2012499 19.0276145 24.0168458 19.041274 23.6548675 19.0617634 23.3133785 19.1027421 22.9923788 19.1642101 23.3133785 19.2256781 23.6616973 19.2666568 24.0168458 19.2871461 24.1944201 19.2939759 24.3378455 19.4374013 24.3515051 19.6218054 24.3719944 19.9837837 24.4129731 20.3252727 24.4744411 20.6462724 24.5427389 20.3252727 24.5837176 19.9769539 24.5973772 19.6218054z" mask="url(#oops_illustration-e)"/>
        <text fill="#F5F2FD" font-family="AvenirNext-Medium, Avenir Next" font-size="10" font-weight="400" mask="url(#oops_illustration-e)" opacity=".7">
          <tspan x="40" y="85">Oops!</tspan>
        </text>
      </g>
      <polygon fill="#D3DBE4" points="19.357 0 19.357 149.24 29.483 149.24 29.483 9.626 115.702 9.626 115.702 149.24 125.821 149.24 125.821 0"/>
      <polygon fill="#68AEFF" points="21.777 1.64 21.777 149.24 31.441 149.24 31.441 11.587 113.737 11.587 113.737 149.24 123.401 149.24 123.401 1.64"/>
      <polygon fill="#2871C6" points="27.422 149.24 32.872 149.24 32.872 11.649 113.112 11.649 113.112 149.24 117.755 149.24 117.755 8.2 27.422 8.2"/>
      <path fill="#E1ECF7" d="M3.22613895,86.92 L3.22613895,86.92 C2.33814541,86.92 1.61308647,86.4188498 1.61308647,85.8050815 L1.61308647,74.9149185 C1.61308647,74.3011502 2.33814541,73.8 3.22613895,73.8 L3.22613895,73.8 C4.11413249,73.8 4.83919143,74.3011502 4.83919143,74.9149185 L4.83919143,85.8050815 C4.84733816,86.4188498 4.12227922,86.92 3.22613895,86.92 Z"/>
      <path fill="#3792FC" d="M7.25888912,82 L1.28509693,82 C0.572567941,82 0,81.2693069 0,80.36 L0,80.36 C0,79.4506931 0.572567941,78.72 1.28509693,78.72 L7.25888912,78.72 L7.25888912,82 L7.25888912,82 Z"/>
      <polygon fill="#68AEFF" points="10.485 159.08 29.842 149.194 29.842 11.526 10.485 1.64"/>
      <polygon fill="#E1ECF7" points="27.422 77.9 12.905 77.653 12.905 7.38 27.422 14.507"/>
      <polygon fill="#E1ECF7" points="27.422 145.477 12.905 152.52 12.905 82.251 27.422 82"/>
      <polygon fill="#E1ECF7" points="7.259 157.822 10.485 159.08 10.485 1.64 7.259 2.898"/>
    </g>
    <g transform="translate(257 127)">
      <path fill="#FFF" d="M37.6317636,-7.10542736e-15 L7.40229167,12.1386461 C3.31064307,13.7816478 1.31976043,18.4255299 2.95086224,22.5219368 L3.07116076,22.8240588 L3.07116076,22.8240588 C9.81270512,38.5129945 13.3642185,47.3394207 13.725701,49.3033374 C14.0871835,51.2672541 12.7310778,53.5686728 9.65738385,56.2075936 L40.6662168,44.020628 C44.2643016,42.6065236 46.0347672,38.5433414 44.6206626,34.9452567 C44.5742223,34.8270927 44.5245757,34.7102139 44.471778,34.5947503 C37.6251172,19.6217289 33.8984076,10.8727909 33.2916492,8.34793622 C32.5991939,5.46647848 34.0458987,2.68383307 37.6317636,-7.10542736e-15 Z"/>
      <path fill="#EBF5FF" fill-rule="nonzero" d="M23.9838095,31.4288889 L21.7457143,31.4288889 L21.7457143,30.2437037 C21.7457143,29.815718 21.7853964,29.4288906 21.8647619,29.0832099 C21.9441274,28.7375291 22.0592056,28.4247751 22.21,28.1449383 C22.3607944,27.8651015 22.5433323,27.5976144 22.757619,27.3424691 C22.9719058,27.0873238 23.2139669,26.8280672 23.4838095,26.5646914 L24.3647619,25.7004938 C24.71397,25.3877351 25.0036496,25.0461747 25.2338095,24.6758025 C25.4639694,24.3054302 25.5790476,23.832184 25.5790476,23.2560494 C25.5790476,22.465922 25.3369865,21.8362986 24.8528571,21.3671605 C24.3687277,20.8980223 23.7457181,20.6634568 22.9838095,20.6634568 C22.1901548,20.6634568 21.5552405,20.9268286 21.0790476,21.4535802 C20.6028548,21.9803319 20.3250798,22.6223007 20.2457143,23.3795062 L17.96,23.1079012 C18.0552386,22.4000788 18.2536493,21.7622251 18.5552381,21.194321 C18.8568269,20.6264169 19.2338073,20.1449402 19.6861905,19.7498765 C20.1385737,19.3548128 20.6584098,19.0544043 21.2457143,18.848642 C21.8330188,18.6428796 22.46,18.54 23.1266667,18.54 C23.7933367,18.54 24.4163463,18.6387644 24.9957143,18.8362963 C25.5750823,19.0338281 26.0869819,19.3260063 26.5314286,19.7128395 C26.9758752,20.0996727 27.3250781,20.5770342 27.5790476,21.1449383 C27.8330171,21.7128423 27.96,22.3671568 27.96,23.1079012 C27.96,23.6346528 27.904445,24.0955556 27.7933333,24.4906173 C27.6822217,24.885681 27.5274613,25.2437021 27.3290476,25.5646914 C27.1306339,25.8856806 26.8885714,26.1860891 26.6028571,26.4659259 C26.3171414,26.7457627 26.0076207,27.0338257 25.6742857,27.3301235 C25.3568238,27.6099602 25.0869852,27.8609865 24.8647619,28.0832099 C24.6425386,28.3054332 24.4679371,28.5317684 24.3409524,28.7622222 C24.2139676,28.992676 24.1226987,29.2478175 24.0671429,29.5276543 C24.011587,29.8074911 23.9838095,30.1531667 23.9838095,30.5646914 L23.9838095,31.4288889 Z M24.5790476,34.9103704 C24.5790476,35.338356 24.4282555,35.7169531 24.1266667,36.0461728 C23.8250779,36.3753926 23.4441293,36.54 22.9838095,36.54 C22.5393629,36.54 22.1623825,36.3795078 21.8528571,36.0585185 C21.5433318,35.7375293 21.3885714,35.3630474 21.3885714,34.9350617 C21.3885714,34.4906151 21.5393636,34.1079028 21.8409524,33.7869136 C22.1425412,33.4659243 22.5234898,33.3054321 22.9838095,33.3054321 C23.4441293,33.3054321 23.8250779,33.4618091 24.1266667,33.7745679 C24.4282555,34.0873267 24.5790476,34.4659237 24.5790476,34.9103704 Z" transform="rotate(-20 22.96 27.54)"/>
    </g>
  </g>
</svg>
