<svg width="218" height="163" viewBox="0 0 218 163" fill="none" xmlns="http://www.w3.org/2000/svg">
<rect width="218" height="163" rx="4" fill="#B8DAFF"/>
<path opacity="0.650507" d="M113.333 21.9701C124.656 15.9674 125 0 125 0L0 0C0 0 0 55.6119 0 61.791C3.33332 67.6269 11.25 69 23.3332 69C35.4165 69 52.0831 67.2836 60.4164 51.4925C68.7497 35.7015 65.8843 31.6508 77.083 25.403C88.2818 19.1552 102.01 27.9729 113.333 21.9701Z" fill="#E5EFFB"/>
<path opacity="0.58152" d="M212.647 91.7447C216.786 96.2282 217.3 100.285 217.782 104.834C218.159 108.394 217.884 148.986 217.803 159.908C217.791 161.412 216.584 162.6 215.08 162.6C207.116 162.6 184.17 162.6 182.254 162.6C184.977 156.157 158.774 133.108 158.048 116.145C157.322 99.1806 164.843 88.6936 178.857 83.2034C192.871 77.7132 204.762 83.2034 212.647 91.7447Z" fill="#E5EFFB"/>
<path d="M21.43 117C21.3434 117 21.274 116.974 21.222 116.922C21.17 116.861 21.144 116.788 21.144 116.701V108.212C21.144 108.117 21.17 108.043 21.222 107.991C21.274 107.93 21.3434 107.9 21.43 107.9H26.708C26.8034 107.9 26.877 107.93 26.929 107.991C26.9897 108.043 27.02 108.117 27.02 108.212V108.693C27.02 108.78 26.9897 108.853 26.929 108.914C26.877 108.966 26.8034 108.992 26.708 108.992H22.353V112.073H26.448C26.5434 112.073 26.617 112.103 26.669 112.164C26.7297 112.216 26.76 112.285 26.76 112.372V112.866C26.76 112.953 26.7297 113.026 26.669 113.087C26.6084 113.139 26.5347 113.165 26.448 113.165H22.353V116.701C22.353 116.788 22.3227 116.861 22.262 116.922C22.2014 116.974 22.1277 117 22.041 117H21.43Z" fill="#767E86"/>
<path d="M30.0453 117.13C29.6206 117.13 29.2263 117.043 28.8623 116.87C28.5069 116.697 28.2209 116.463 28.0043 116.168C27.7963 115.865 27.6923 115.531 27.6923 115.167C27.6923 114.595 27.9263 114.127 28.3943 113.763C28.8623 113.399 29.4993 113.156 30.3053 113.035L32.2553 112.762V112.385C32.2553 111.492 31.7396 111.046 30.7083 111.046C30.3096 111.046 29.9889 111.128 29.7463 111.293C29.5036 111.449 29.3259 111.635 29.2133 111.852C29.1786 111.939 29.1396 111.999 29.0963 112.034C29.0616 112.06 29.0096 112.073 28.9403 112.073H28.4333C28.3553 112.073 28.2859 112.047 28.2253 111.995C28.1733 111.934 28.1473 111.865 28.1473 111.787C28.1473 111.588 28.2383 111.358 28.4203 111.098C28.6109 110.829 28.9013 110.6 29.2913 110.409C29.6813 110.21 30.1579 110.11 30.7213 110.11C31.6919 110.11 32.3853 110.335 32.8013 110.786C33.2259 111.237 33.4383 111.8 33.4383 112.476V116.701C33.4383 116.788 33.4079 116.861 33.3473 116.922C33.2953 116.974 33.2259 117 33.1393 117H32.5673C32.4806 117 32.4113 116.974 32.3593 116.922C32.3073 116.861 32.2813 116.788 32.2813 116.701V116.129C32.0906 116.415 31.8133 116.653 31.4493 116.844C31.0853 117.035 30.6173 117.13 30.0453 117.13ZM30.3053 116.181C30.8773 116.181 31.3453 115.995 31.7093 115.622C32.0733 115.249 32.2553 114.708 32.2553 113.997V113.633L30.7343 113.854C30.1103 113.941 29.6379 114.088 29.3173 114.296C28.9966 114.504 28.8363 114.764 28.8363 115.076C28.8363 115.431 28.9793 115.704 29.2653 115.895C29.5599 116.086 29.9066 116.181 30.3053 116.181Z" fill="#767E86"/>
<path d="M37.6347 117.13C37.0367 117.13 36.5297 117.035 36.1137 116.844C35.7064 116.645 35.4031 116.419 35.2037 116.168C35.0044 115.917 34.9047 115.709 34.9047 115.544C34.9047 115.457 34.9351 115.392 34.9957 115.349C35.0564 115.297 35.1214 115.271 35.1907 115.271H35.7367C35.7887 115.271 35.8277 115.28 35.8537 115.297C35.8884 115.314 35.9317 115.353 35.9837 115.414C36.1831 115.657 36.4041 115.847 36.6467 115.986C36.8981 116.125 37.2317 116.194 37.6477 116.194C38.1157 116.194 38.4884 116.107 38.7657 115.934C39.0517 115.761 39.1947 115.509 39.1947 115.18C39.1947 114.963 39.1341 114.79 39.0127 114.66C38.8914 114.53 38.6877 114.413 38.4017 114.309C38.1244 114.205 37.7084 114.092 37.1537 113.971C36.3997 113.806 35.8667 113.568 35.5547 113.256C35.2427 112.944 35.0867 112.541 35.0867 112.047C35.0867 111.726 35.1821 111.419 35.3727 111.124C35.5634 110.821 35.8451 110.578 36.2177 110.396C36.5991 110.205 37.0497 110.11 37.5697 110.11C38.1157 110.11 38.5794 110.201 38.9607 110.383C39.3507 110.565 39.6411 110.777 39.8317 111.02C40.0311 111.263 40.1307 111.466 40.1307 111.631C40.1307 111.709 40.1004 111.774 40.0397 111.826C39.9877 111.878 39.9227 111.904 39.8447 111.904H39.3507C39.2294 111.904 39.1427 111.856 39.0907 111.761C38.9434 111.596 38.8177 111.471 38.7137 111.384C38.6184 111.289 38.4754 111.211 38.2847 111.15C38.0941 111.081 37.8557 111.046 37.5697 111.046C37.1451 111.046 36.8201 111.137 36.5947 111.319C36.3694 111.492 36.2567 111.726 36.2567 112.021C36.2567 112.203 36.3044 112.359 36.3997 112.489C36.4951 112.61 36.6771 112.727 36.9457 112.84C37.2144 112.944 37.6131 113.052 38.1417 113.165C38.9651 113.338 39.5457 113.585 39.8837 113.906C40.2304 114.227 40.4037 114.638 40.4037 115.141C40.4037 115.514 40.2954 115.852 40.0787 116.155C39.8707 116.458 39.5544 116.697 39.1297 116.87C38.7137 117.043 38.2154 117.13 37.6347 117.13Z" fill="#767E86"/>
<path d="M44.5096 117C43.1663 117 42.4946 116.242 42.4946 114.725V111.241H41.4676C41.3809 111.241 41.3116 111.215 41.2596 111.163C41.2076 111.111 41.1816 111.042 41.1816 110.955V110.539C41.1816 110.452 41.2076 110.383 41.2596 110.331C41.3116 110.27 41.3809 110.24 41.4676 110.24H42.4946V108.069C42.4946 107.982 42.5206 107.913 42.5726 107.861C42.6246 107.8 42.6939 107.77 42.7806 107.77H43.3526C43.4393 107.77 43.5086 107.8 43.5606 107.861C43.6213 107.913 43.6516 107.982 43.6516 108.069V110.24H45.2636C45.3503 110.24 45.4196 110.27 45.4716 110.331C45.5323 110.383 45.5626 110.452 45.5626 110.539V110.955C45.5626 111.042 45.5323 111.111 45.4716 111.163C45.4196 111.215 45.3503 111.241 45.2636 111.241H43.6516V114.634C43.6516 115.076 43.7209 115.41 43.8596 115.635C44.0069 115.86 44.2539 115.973 44.6006 115.973H45.3936C45.4803 115.973 45.5496 116.003 45.6016 116.064C45.6536 116.116 45.6796 116.185 45.6796 116.272V116.701C45.6796 116.788 45.6536 116.861 45.6016 116.922C45.5496 116.974 45.4803 117 45.3936 117H44.5096Z" fill="#767E86"/>
<path d="M52.0208 117.13C51.5962 117.13 51.2018 117.043 50.8378 116.87C50.4825 116.697 50.1965 116.463 49.9798 116.168C49.7718 115.865 49.6678 115.531 49.6678 115.167C49.6678 114.595 49.9018 114.127 50.3698 113.763C50.8378 113.399 51.4748 113.156 52.2808 113.035L54.2308 112.762V112.385C54.2308 111.492 53.7152 111.046 52.6838 111.046C52.2852 111.046 51.9645 111.128 51.7218 111.293C51.4792 111.449 51.3015 111.635 51.1888 111.852C51.1542 111.939 51.1152 111.999 51.0718 112.034C51.0372 112.06 50.9852 112.073 50.9158 112.073H50.4088C50.3308 112.073 50.2615 112.047 50.2008 111.995C50.1488 111.934 50.1228 111.865 50.1228 111.787C50.1228 111.588 50.2138 111.358 50.3958 111.098C50.5865 110.829 50.8768 110.6 51.2668 110.409C51.6568 110.21 52.1335 110.11 52.6968 110.11C53.6675 110.11 54.3608 110.335 54.7768 110.786C55.2015 111.237 55.4138 111.8 55.4138 112.476V116.701C55.4138 116.788 55.3835 116.861 55.3228 116.922C55.2708 116.974 55.2015 117 55.1148 117H54.5428C54.4562 117 54.3868 116.974 54.3348 116.922C54.2828 116.861 54.2568 116.788 54.2568 116.701V116.129C54.0662 116.415 53.7888 116.653 53.4248 116.844C53.0608 117.035 52.5928 117.13 52.0208 117.13ZM52.2808 116.181C52.8528 116.181 53.3209 115.995 53.6848 115.622C54.0488 115.249 54.2308 114.708 54.2308 113.997V113.633L52.7098 113.854C52.0858 113.941 51.6135 114.088 51.2928 114.296C50.9722 114.504 50.8118 114.764 50.8118 115.076C50.8118 115.431 50.9548 115.704 51.2408 115.895C51.5355 116.086 51.8822 116.181 52.2808 116.181Z" fill="#767E86"/>
<path d="M57.5953 117C57.5086 117 57.435 116.974 57.3743 116.922C57.3223 116.861 57.2963 116.788 57.2963 116.701V110.539C57.2963 110.452 57.3223 110.383 57.3743 110.331C57.435 110.27 57.5086 110.24 57.5953 110.24H58.1543C58.2496 110.24 58.3233 110.266 58.3753 110.318C58.4273 110.37 58.4533 110.444 58.4533 110.539V111.111C58.7133 110.79 59.0123 110.543 59.3503 110.37C59.697 110.197 60.126 110.11 60.6373 110.11C61.4693 110.11 62.115 110.379 62.5743 110.916C63.0336 111.445 63.2633 112.147 63.2633 113.022V116.701C63.2633 116.788 63.233 116.861 63.1723 116.922C63.1203 116.974 63.051 117 62.9643 117H62.3663C62.2796 117 62.206 116.974 62.1453 116.922C62.0933 116.861 62.0673 116.788 62.0673 116.701V113.1C62.0673 112.476 61.9156 111.991 61.6123 111.644C61.309 111.297 60.8756 111.124 60.3123 111.124C59.7576 111.124 59.3156 111.302 58.9863 111.657C58.657 112.004 58.4923 112.485 58.4923 113.1V116.701C58.4923 116.788 58.462 116.861 58.4013 116.922C58.3493 116.974 58.28 117 58.1933 117H57.5953Z" fill="#767E86"/>
<path d="M67.612 117.13C66.702 117.13 66.0173 116.835 65.558 116.246C65.1073 115.657 64.8647 114.911 64.83 114.01L64.817 113.62L64.83 113.23C64.8647 112.337 65.1117 111.596 65.571 111.007C66.0303 110.409 66.7107 110.11 67.612 110.11C68.5133 110.11 69.2153 110.431 69.718 111.072V108.069C69.718 107.982 69.744 107.913 69.796 107.861C69.8567 107.8 69.9303 107.77 70.017 107.77H70.602C70.6887 107.77 70.758 107.8 70.81 107.861C70.8707 107.913 70.901 107.982 70.901 108.069V116.701C70.901 116.788 70.8707 116.861 70.81 116.922C70.758 116.974 70.6887 117 70.602 117H70.043C69.9563 117 69.887 116.974 69.835 116.922C69.783 116.861 69.757 116.788 69.757 116.701V116.142C69.263 116.801 68.548 117.13 67.612 117.13ZM67.859 116.116C68.4657 116.116 68.9207 115.917 69.224 115.518C69.5273 115.111 69.692 114.63 69.718 114.075C69.7267 113.98 69.731 113.815 69.731 113.581C69.731 113.338 69.7267 113.169 69.718 113.074C69.7007 112.545 69.5317 112.09 69.211 111.709C68.899 111.319 68.4483 111.124 67.859 111.124C67.235 111.124 66.78 111.319 66.494 111.709C66.208 112.099 66.052 112.61 66.026 113.243L66.013 113.62C66.013 115.284 66.6283 116.116 67.859 116.116Z" fill="#767E86"/>
<path d="M78.374 117.13C77.776 117.13 77.269 117.035 76.853 116.844C76.4456 116.645 76.1423 116.419 75.943 116.168C75.7436 115.917 75.644 115.709 75.644 115.544C75.644 115.457 75.6743 115.392 75.735 115.349C75.7956 115.297 75.8606 115.271 75.93 115.271H76.476C76.528 115.271 76.567 115.28 76.593 115.297C76.6276 115.314 76.671 115.353 76.723 115.414C76.9223 115.657 77.1433 115.847 77.386 115.986C77.6373 116.125 77.971 116.194 78.387 116.194C78.855 116.194 79.2276 116.107 79.505 115.934C79.791 115.761 79.934 115.509 79.934 115.18C79.934 114.963 79.8733 114.79 79.752 114.66C79.6306 114.53 79.427 114.413 79.141 114.309C78.8636 114.205 78.4476 114.092 77.893 113.971C77.139 113.806 76.606 113.568 76.294 113.256C75.982 112.944 75.826 112.541 75.826 112.047C75.826 111.726 75.9213 111.419 76.112 111.124C76.3026 110.821 76.5843 110.578 76.957 110.396C77.3383 110.205 77.789 110.11 78.309 110.11C78.855 110.11 79.3186 110.201 79.7 110.383C80.09 110.565 80.3803 110.777 80.571 111.02C80.7703 111.263 80.87 111.466 80.87 111.631C80.87 111.709 80.8396 111.774 80.779 111.826C80.727 111.878 80.662 111.904 80.584 111.904H80.09C79.9686 111.904 79.882 111.856 79.83 111.761C79.6826 111.596 79.557 111.471 79.453 111.384C79.3576 111.289 79.2146 111.211 79.024 111.15C78.8333 111.081 78.595 111.046 78.309 111.046C77.8843 111.046 77.5593 111.137 77.334 111.319C77.1086 111.492 76.996 111.726 76.996 112.021C76.996 112.203 77.0436 112.359 77.139 112.489C77.2343 112.61 77.4163 112.727 77.685 112.84C77.9536 112.944 78.3523 113.052 78.881 113.165C79.7043 113.338 80.285 113.585 80.623 113.906C80.9697 114.227 81.143 114.638 81.143 115.141C81.143 115.514 81.0346 115.852 80.818 116.155C80.61 116.458 80.2936 116.697 79.869 116.87C79.453 117.043 78.9546 117.13 78.374 117.13Z" fill="#767E86"/>
<path d="M82.8565 108.966C82.7699 108.966 82.6962 108.94 82.6355 108.888C82.5835 108.827 82.5575 108.754 82.5575 108.667V107.991C82.5575 107.904 82.5835 107.831 82.6355 107.77C82.6962 107.709 82.7699 107.679 82.8565 107.679H83.6235C83.7102 107.679 83.7839 107.709 83.8445 107.77C83.9052 107.831 83.9355 107.904 83.9355 107.991V108.667C83.9355 108.754 83.9052 108.827 83.8445 108.888C83.7839 108.94 83.7102 108.966 83.6235 108.966H82.8565ZM82.9605 117C82.8739 117 82.8002 116.974 82.7395 116.922C82.6875 116.861 82.6615 116.788 82.6615 116.701V110.539C82.6615 110.452 82.6875 110.383 82.7395 110.331C82.8002 110.27 82.8739 110.24 82.9605 110.24H83.5325C83.6192 110.24 83.6885 110.27 83.7405 110.331C83.8012 110.383 83.8315 110.452 83.8315 110.539V116.701C83.8315 116.788 83.8012 116.861 83.7405 116.922C83.6885 116.974 83.6192 117 83.5325 117H82.9605Z" fill="#767E86"/>
<path d="M86.0836 117C85.9969 117 85.9233 116.974 85.8626 116.922C85.8106 116.861 85.7846 116.788 85.7846 116.701V110.539C85.7846 110.452 85.8106 110.383 85.8626 110.331C85.9233 110.27 85.9969 110.24 86.0836 110.24H86.6296C86.7163 110.24 86.7856 110.27 86.8376 110.331C86.8896 110.383 86.9156 110.452 86.9156 110.539V110.981C87.3836 110.4 88.0163 110.11 88.8136 110.11C89.7669 110.11 90.4429 110.509 90.8416 111.306C91.0496 110.942 91.3443 110.652 91.7256 110.435C92.1156 110.218 92.5489 110.11 93.0256 110.11C93.7363 110.11 94.3169 110.353 94.7676 110.838C95.2183 111.323 95.4436 112.025 95.4436 112.944V116.701C95.4436 116.788 95.4133 116.861 95.3526 116.922C95.3006 116.974 95.2313 117 95.1446 117H94.5856C94.4989 117 94.4253 116.974 94.3646 116.922C94.3126 116.861 94.2866 116.788 94.2866 116.701V113.061C94.2866 112.368 94.1436 111.874 93.8576 111.579C93.5716 111.276 93.1946 111.124 92.7266 111.124C92.3106 111.124 91.9509 111.28 91.6476 111.592C91.3529 111.895 91.2056 112.385 91.2056 113.061V116.701C91.2056 116.788 91.1753 116.861 91.1146 116.922C91.0626 116.974 90.9933 117 90.9066 117H90.3346C90.2479 117 90.1743 116.974 90.1136 116.922C90.0616 116.861 90.0356 116.788 90.0356 116.701V113.061C90.0356 112.376 89.8839 111.882 89.5806 111.579C89.2859 111.276 88.9176 111.124 88.4756 111.124C88.0596 111.124 87.6999 111.276 87.3966 111.579C87.1019 111.882 86.9546 112.372 86.9546 113.048V116.701C86.9546 116.788 86.9243 116.861 86.8636 116.922C86.8116 116.974 86.7423 117 86.6556 117H86.0836Z" fill="#767E86"/>
<path d="M97.6366 119.47C97.55 119.47 97.4763 119.444 97.4156 119.392C97.3636 119.34 97.3376 119.266 97.3376 119.171V110.539C97.3376 110.444 97.3636 110.37 97.4156 110.318C97.4763 110.266 97.55 110.24 97.6366 110.24H98.1826C98.278 110.24 98.3516 110.266 98.4036 110.318C98.4556 110.37 98.4816 110.444 98.4816 110.539V111.111C98.9843 110.444 99.6993 110.11 100.627 110.11C101.537 110.11 102.217 110.4 102.668 110.981C103.127 111.553 103.37 112.285 103.396 113.178C103.404 113.273 103.409 113.421 103.409 113.62C103.409 113.819 103.404 113.967 103.396 114.062C103.37 114.946 103.127 115.678 102.668 116.259C102.217 116.84 101.537 117.13 100.627 117.13C99.6993 117.13 98.9973 116.801 98.5206 116.142V119.171C98.5206 119.258 98.4903 119.327 98.4296 119.379C98.3776 119.44 98.3083 119.47 98.2216 119.47H97.6366ZM100.38 116.116C101.004 116.116 101.459 115.921 101.745 115.531C102.031 115.141 102.187 114.63 102.213 113.997C102.221 113.91 102.226 113.785 102.226 113.62C102.226 111.956 101.61 111.124 100.38 111.124C99.773 111.124 99.3136 111.328 99.0016 111.735C98.6983 112.134 98.538 112.606 98.5206 113.152C98.512 113.247 98.5076 113.416 98.5076 113.659C98.5076 113.902 98.512 114.071 98.5206 114.166C98.538 114.695 98.7026 115.154 99.0146 115.544C99.3353 115.925 99.7903 116.116 100.38 116.116Z" fill="#767E86"/>
<path d="M105.355 117C105.269 117 105.195 116.974 105.134 116.922C105.082 116.861 105.056 116.788 105.056 116.701V108.069C105.056 107.974 105.082 107.9 105.134 107.848C105.195 107.796 105.269 107.77 105.355 107.77H105.927C106.014 107.77 106.083 107.8 106.135 107.861C106.196 107.913 106.226 107.982 106.226 108.069V116.701C106.226 116.788 106.196 116.861 106.135 116.922C106.083 116.974 106.014 117 105.927 117H105.355Z" fill="#767E86"/>
<path d="M110.857 117.13C109.973 117.13 109.267 116.857 108.738 116.311C108.209 115.756 107.919 115.002 107.867 114.049L107.854 113.607L107.867 113.178C107.919 112.242 108.209 111.497 108.738 110.942C109.267 110.387 109.973 110.11 110.857 110.11C111.81 110.11 112.547 110.413 113.067 111.02C113.596 111.627 113.86 112.45 113.86 113.49V113.724C113.86 113.811 113.83 113.884 113.769 113.945C113.717 113.997 113.648 114.023 113.561 114.023H109.05V114.14C109.076 114.703 109.249 115.184 109.57 115.583C109.891 115.982 110.315 116.181 110.844 116.181C111.251 116.181 111.581 116.103 111.832 115.947C112.092 115.782 112.287 115.613 112.417 115.44C112.495 115.336 112.556 115.275 112.599 115.258C112.642 115.232 112.716 115.219 112.82 115.219H113.392C113.47 115.219 113.535 115.241 113.587 115.284C113.648 115.327 113.678 115.384 113.678 115.453C113.678 115.644 113.561 115.873 113.327 116.142C113.093 116.411 112.759 116.645 112.326 116.844C111.901 117.035 111.412 117.13 110.857 117.13ZM112.677 113.139V113.1C112.677 112.493 112.512 111.999 112.183 111.618C111.854 111.237 111.412 111.046 110.857 111.046C110.294 111.046 109.852 111.237 109.531 111.618C109.21 111.999 109.05 112.493 109.05 113.1V113.139H112.677Z" fill="#767E86"/>
<path d="M118.952 119.47C118.865 119.47 118.792 119.444 118.731 119.392C118.679 119.34 118.653 119.266 118.653 119.171V110.539C118.653 110.444 118.679 110.37 118.731 110.318C118.792 110.266 118.865 110.24 118.952 110.24H119.498C119.593 110.24 119.667 110.266 119.719 110.318C119.771 110.37 119.797 110.444 119.797 110.539V111.111C120.3 110.444 121.015 110.11 121.942 110.11C122.852 110.11 123.532 110.4 123.983 110.981C124.442 111.553 124.685 112.285 124.711 113.178C124.72 113.273 124.724 113.421 124.724 113.62C124.724 113.819 124.72 113.967 124.711 114.062C124.685 114.946 124.442 115.678 123.983 116.259C123.532 116.84 122.852 117.13 121.942 117.13C121.015 117.13 120.313 116.801 119.836 116.142V119.171C119.836 119.258 119.806 119.327 119.745 119.379C119.693 119.44 119.624 119.47 119.537 119.47H118.952ZM121.695 116.116C122.319 116.116 122.774 115.921 123.06 115.531C123.346 115.141 123.502 114.63 123.528 113.997C123.537 113.91 123.541 113.785 123.541 113.62C123.541 111.956 122.926 111.124 121.695 111.124C121.088 111.124 120.629 111.328 120.317 111.735C120.014 112.134 119.853 112.606 119.836 113.152C119.827 113.247 119.823 113.416 119.823 113.659C119.823 113.902 119.827 114.071 119.836 114.166C119.853 114.695 120.018 115.154 120.33 115.544C120.651 115.925 121.106 116.116 121.695 116.116Z" fill="#767E86"/>
<path d="M126.658 117C126.571 117 126.497 116.974 126.437 116.922C126.385 116.861 126.359 116.788 126.359 116.701V110.552C126.359 110.465 126.385 110.392 126.437 110.331C126.497 110.27 126.571 110.24 126.658 110.24H127.204C127.299 110.24 127.373 110.27 127.425 110.331C127.485 110.383 127.516 110.457 127.516 110.552V111.124C127.871 110.535 128.473 110.24 129.323 110.24H129.83C129.925 110.24 129.999 110.266 130.051 110.318C130.103 110.37 130.129 110.444 130.129 110.539V111.02C130.129 111.107 130.103 111.18 130.051 111.241C129.999 111.293 129.925 111.319 129.83 111.319H129.089C128.612 111.319 128.235 111.458 127.958 111.735C127.689 112.012 127.555 112.389 127.555 112.866V116.701C127.555 116.788 127.524 116.861 127.464 116.922C127.403 116.974 127.329 117 127.243 117H126.658Z" fill="#767E86"/>
<path d="M133.863 117.13C132.909 117.13 132.173 116.861 131.653 116.324C131.141 115.787 130.868 115.072 130.834 114.179L130.821 113.62L130.834 113.061C130.868 112.168 131.146 111.453 131.666 110.916C132.194 110.379 132.927 110.11 133.863 110.11C134.799 110.11 135.527 110.379 136.047 110.916C136.575 111.453 136.857 112.168 136.892 113.061C136.909 113.252 136.918 113.438 136.918 113.62C136.918 113.802 136.909 113.988 136.892 114.179C136.857 115.072 136.58 115.787 136.06 116.324C135.548 116.861 134.816 117.13 133.863 117.13ZM133.863 116.155C134.417 116.155 134.855 115.982 135.176 115.635C135.505 115.28 135.683 114.773 135.709 114.114C135.717 114.027 135.722 113.863 135.722 113.62C135.722 113.377 135.717 113.213 135.709 113.126C135.683 112.467 135.505 111.965 135.176 111.618C134.855 111.263 134.417 111.085 133.863 111.085C133.308 111.085 132.866 111.263 132.537 111.618C132.216 111.965 132.043 112.467 132.017 113.126L132.004 113.62L132.017 114.114C132.043 114.773 132.216 115.28 132.537 115.635C132.866 115.982 133.308 116.155 133.863 116.155Z" fill="#767E86"/>
<path d="M141.263 117.13C140.336 117.13 139.612 116.87 139.092 116.35C138.572 115.821 138.299 115.085 138.273 114.14L138.26 113.62L138.273 113.1C138.299 112.155 138.572 111.423 139.092 110.903C139.612 110.374 140.336 110.11 141.263 110.11C141.887 110.11 142.411 110.223 142.836 110.448C143.269 110.665 143.59 110.938 143.798 111.267C144.015 111.596 144.132 111.926 144.149 112.255C144.158 112.333 144.127 112.402 144.058 112.463C143.997 112.524 143.928 112.554 143.85 112.554H143.278C143.191 112.554 143.126 112.537 143.083 112.502C143.04 112.459 142.996 112.385 142.953 112.281C142.797 111.856 142.58 111.557 142.303 111.384C142.034 111.202 141.692 111.111 141.276 111.111C140.73 111.111 140.297 111.28 139.976 111.618C139.655 111.956 139.482 112.472 139.456 113.165L139.443 113.62L139.456 114.075C139.482 114.768 139.655 115.284 139.976 115.622C140.297 115.96 140.73 116.129 141.276 116.129C141.701 116.129 142.047 116.042 142.316 115.869C142.585 115.687 142.797 115.384 142.953 114.959C142.996 114.855 143.04 114.786 143.083 114.751C143.126 114.708 143.191 114.686 143.278 114.686H143.85C143.928 114.686 143.997 114.716 144.058 114.777C144.127 114.838 144.158 114.907 144.149 114.985C144.132 115.306 144.015 115.631 143.798 115.96C143.59 116.289 143.269 116.567 142.836 116.792C142.411 117.017 141.887 117.13 141.263 117.13Z" fill="#767E86"/>
<path d="M148.384 117.13C147.5 117.13 146.794 116.857 146.265 116.311C145.737 115.756 145.446 115.002 145.394 114.049L145.381 113.607L145.394 113.178C145.446 112.242 145.737 111.497 146.265 110.942C146.794 110.387 147.5 110.11 148.384 110.11C149.338 110.11 150.074 110.413 150.594 111.02C151.123 111.627 151.387 112.45 151.387 113.49V113.724C151.387 113.811 151.357 113.884 151.296 113.945C151.244 113.997 151.175 114.023 151.088 114.023H146.577V114.14C146.603 114.703 146.777 115.184 147.097 115.583C147.418 115.982 147.843 116.181 148.371 116.181C148.779 116.181 149.108 116.103 149.359 115.947C149.619 115.782 149.814 115.613 149.944 115.44C150.022 115.336 150.083 115.275 150.126 115.258C150.17 115.232 150.243 115.219 150.347 115.219H150.919C150.997 115.219 151.062 115.241 151.114 115.284C151.175 115.327 151.205 115.384 151.205 115.453C151.205 115.644 151.088 115.873 150.854 116.142C150.62 116.411 150.287 116.645 149.853 116.844C149.429 117.035 148.939 117.13 148.384 117.13ZM150.204 113.139V113.1C150.204 112.493 150.04 111.999 149.71 111.618C149.381 111.237 148.939 111.046 148.384 111.046C147.821 111.046 147.379 111.237 147.058 111.618C146.738 111.999 146.577 112.493 146.577 113.1V113.139H150.204Z" fill="#767E86"/>
<path d="M155.282 117.13C154.684 117.13 154.177 117.035 153.761 116.844C153.354 116.645 153.051 116.419 152.851 116.168C152.652 115.917 152.552 115.709 152.552 115.544C152.552 115.457 152.583 115.392 152.643 115.349C152.704 115.297 152.769 115.271 152.838 115.271H153.384C153.436 115.271 153.475 115.28 153.501 115.297C153.536 115.314 153.579 115.353 153.631 115.414C153.831 115.657 154.052 115.847 154.294 115.986C154.546 116.125 154.879 116.194 155.295 116.194C155.763 116.194 156.136 116.107 156.413 115.934C156.699 115.761 156.842 115.509 156.842 115.18C156.842 114.963 156.782 114.79 156.66 114.66C156.539 114.53 156.335 114.413 156.049 114.309C155.772 114.205 155.356 114.092 154.801 113.971C154.047 113.806 153.514 113.568 153.202 113.256C152.89 112.944 152.734 112.541 152.734 112.047C152.734 111.726 152.829 111.419 153.02 111.124C153.211 110.821 153.493 110.578 153.865 110.396C154.247 110.205 154.697 110.11 155.217 110.11C155.763 110.11 156.227 110.201 156.608 110.383C156.998 110.565 157.289 110.777 157.479 111.02C157.679 111.263 157.778 111.466 157.778 111.631C157.778 111.709 157.748 111.774 157.687 111.826C157.635 111.878 157.57 111.904 157.492 111.904H156.998C156.877 111.904 156.79 111.856 156.738 111.761C156.591 111.596 156.465 111.471 156.361 111.384C156.266 111.289 156.123 111.211 155.932 111.15C155.742 111.081 155.503 111.046 155.217 111.046C154.793 111.046 154.467 111.137 154.242 111.319C154.017 111.492 153.904 111.726 153.904 112.021C153.904 112.203 153.952 112.359 154.047 112.489C154.143 112.61 154.325 112.727 154.593 112.84C154.862 112.944 155.261 113.052 155.789 113.165C156.613 113.338 157.193 113.585 157.531 113.906C157.878 114.227 158.051 114.638 158.051 115.141C158.051 115.514 157.943 115.852 157.726 116.155C157.518 116.458 157.202 116.697 156.777 116.87C156.361 117.043 155.863 117.13 155.282 117.13Z" fill="#767E86"/>
<path d="M161.884 117.13C161.286 117.13 160.779 117.035 160.363 116.844C159.955 116.645 159.652 116.419 159.453 116.168C159.253 115.917 159.154 115.709 159.154 115.544C159.154 115.457 159.184 115.392 159.245 115.349C159.305 115.297 159.37 115.271 159.44 115.271H159.986C160.038 115.271 160.077 115.28 160.103 115.297C160.137 115.314 160.181 115.353 160.233 115.414C160.432 115.657 160.653 115.847 160.896 115.986C161.147 116.125 161.481 116.194 161.897 116.194C162.365 116.194 162.737 116.107 163.015 115.934C163.301 115.761 163.444 115.509 163.444 115.18C163.444 114.963 163.383 114.79 163.262 114.66C163.14 114.53 162.937 114.413 162.651 114.309C162.373 114.205 161.957 114.092 161.403 113.971C160.649 113.806 160.116 113.568 159.804 113.256C159.492 112.944 159.336 112.541 159.336 112.047C159.336 111.726 159.431 111.419 159.622 111.124C159.812 110.821 160.094 110.578 160.467 110.396C160.848 110.205 161.299 110.11 161.819 110.11C162.365 110.11 162.828 110.201 163.21 110.383C163.6 110.565 163.89 110.777 164.081 111.02C164.28 111.263 164.38 111.466 164.38 111.631C164.38 111.709 164.349 111.774 164.289 111.826C164.237 111.878 164.172 111.904 164.094 111.904H163.6C163.478 111.904 163.392 111.856 163.34 111.761C163.192 111.596 163.067 111.471 162.963 111.384C162.867 111.289 162.724 111.211 162.534 111.15C162.343 111.081 162.105 111.046 161.819 111.046C161.394 111.046 161.069 111.137 160.844 111.319C160.618 111.492 160.506 111.726 160.506 112.021C160.506 112.203 160.553 112.359 160.649 112.489C160.744 112.61 160.926 112.727 161.195 112.84C161.463 112.944 161.862 113.052 162.391 113.165C163.214 113.338 163.795 113.585 164.133 113.906C164.479 114.227 164.653 114.638 164.653 115.141C164.653 115.514 164.544 115.852 164.328 116.155C164.12 116.458 163.803 116.697 163.379 116.87C162.963 117.043 162.464 117.13 161.884 117.13Z" fill="#767E86"/>
<path d="M166.379 117C166.293 117 166.219 116.974 166.158 116.922C166.106 116.861 166.08 116.788 166.08 116.701V115.804C166.08 115.717 166.106 115.644 166.158 115.583C166.219 115.522 166.293 115.492 166.379 115.492H167.276C167.363 115.492 167.432 115.522 167.484 115.583C167.545 115.644 167.575 115.717 167.575 115.804V116.701C167.575 116.788 167.545 116.861 167.484 116.922C167.432 116.974 167.363 117 167.276 117H166.379Z" fill="#767E86"/>
<path d="M176.079 117.13C174.952 117.13 174.077 116.818 173.453 116.194C172.829 115.57 172.495 114.725 172.452 113.659C172.443 113.399 172.439 112.992 172.439 112.437C172.439 111.874 172.443 111.466 172.452 111.215C172.486 110.158 172.816 109.321 173.44 108.706C174.072 108.082 174.952 107.77 176.079 107.77C176.841 107.77 177.487 107.909 178.016 108.186C178.544 108.463 178.943 108.797 179.212 109.187C179.48 109.568 179.623 109.924 179.641 110.253V110.279C179.641 110.348 179.61 110.409 179.55 110.461C179.498 110.504 179.437 110.526 179.368 110.526H178.64C178.562 110.526 178.501 110.509 178.458 110.474C178.423 110.439 178.388 110.374 178.354 110.279C178.215 109.872 177.959 109.529 177.587 109.252C177.214 108.975 176.711 108.836 176.079 108.836C175.351 108.836 174.779 109.035 174.363 109.434C173.947 109.833 173.726 110.448 173.7 111.28C173.691 111.531 173.687 111.917 173.687 112.437C173.687 112.948 173.691 113.334 173.7 113.594C173.726 114.435 173.947 115.054 174.363 115.453C174.779 115.852 175.351 116.051 176.079 116.051C176.815 116.051 177.405 115.852 177.847 115.453C178.289 115.046 178.51 114.439 178.51 113.633V113.074H176.521C176.434 113.074 176.36 113.044 176.3 112.983C176.248 112.922 176.222 112.849 176.222 112.762V112.372C176.222 112.285 176.248 112.212 176.3 112.151C176.36 112.09 176.434 112.06 176.521 112.06H179.433C179.528 112.06 179.602 112.09 179.654 112.151C179.714 112.203 179.745 112.277 179.745 112.372V113.607C179.745 114.309 179.597 114.929 179.303 115.466C179.017 115.995 178.596 116.406 178.042 116.701C177.487 116.987 176.833 117.13 176.079 117.13Z" fill="#767E86"/>
<path d="M184.122 117.13C183.238 117.13 182.531 116.857 182.003 116.311C181.474 115.756 181.184 115.002 181.132 114.049L181.119 113.607L181.132 113.178C181.184 112.242 181.474 111.497 182.003 110.942C182.531 110.387 183.238 110.11 184.122 110.11C185.075 110.11 185.812 110.413 186.332 111.02C186.86 111.627 187.125 112.45 187.125 113.49V113.724C187.125 113.811 187.094 113.884 187.034 113.945C186.982 113.997 186.912 114.023 186.826 114.023H182.315V114.14C182.341 114.703 182.514 115.184 182.835 115.583C183.155 115.982 183.58 116.181 184.109 116.181C184.516 116.181 184.845 116.103 185.097 115.947C185.357 115.782 185.552 115.613 185.682 115.44C185.76 115.336 185.82 115.275 185.864 115.258C185.907 115.232 185.981 115.219 186.085 115.219H186.657C186.735 115.219 186.8 115.241 186.852 115.284C186.912 115.327 186.943 115.384 186.943 115.453C186.943 115.644 186.826 115.873 186.592 116.142C186.358 116.411 186.024 116.645 185.591 116.844C185.166 117.035 184.676 117.13 184.122 117.13ZM185.942 113.139V113.1C185.942 112.493 185.777 111.999 185.448 111.618C185.118 111.237 184.676 111.046 184.122 111.046C183.558 111.046 183.116 111.237 182.796 111.618C182.475 111.999 182.315 112.493 182.315 113.1V113.139H185.942Z" fill="#767E86"/>
<path d="M191.267 117C189.924 117 189.252 116.242 189.252 114.725V111.241H188.225C188.139 111.241 188.069 111.215 188.017 111.163C187.965 111.111 187.939 111.042 187.939 110.955V110.539C187.939 110.452 187.965 110.383 188.017 110.331C188.069 110.27 188.139 110.24 188.225 110.24H189.252V108.069C189.252 107.982 189.278 107.913 189.33 107.861C189.382 107.8 189.452 107.77 189.538 107.77H190.11C190.197 107.77 190.266 107.8 190.318 107.861C190.379 107.913 190.409 107.982 190.409 108.069V110.24H192.021C192.108 110.24 192.177 110.27 192.229 110.331C192.29 110.383 192.32 110.452 192.32 110.539V110.955C192.32 111.042 192.29 111.111 192.229 111.163C192.177 111.215 192.108 111.241 192.021 111.241H190.409V114.634C190.409 115.076 190.479 115.41 190.617 115.635C190.765 115.86 191.012 115.973 191.358 115.973H192.151C192.238 115.973 192.307 116.003 192.359 116.064C192.411 116.116 192.437 116.185 192.437 116.272V116.701C192.437 116.788 192.411 116.861 192.359 116.922C192.307 116.974 192.238 117 192.151 117H191.267Z" fill="#767E86"/>
<path d="M22.847 137.13C22.4224 137.13 22.028 137.043 21.664 136.87C21.3087 136.697 21.0227 136.463 20.806 136.168C20.598 135.865 20.494 135.531 20.494 135.167C20.494 134.595 20.728 134.127 21.196 133.763C21.664 133.399 22.301 133.156 23.107 133.035L25.057 132.762V132.385C25.057 131.492 24.5414 131.046 23.51 131.046C23.1114 131.046 22.7907 131.128 22.548 131.293C22.3054 131.449 22.1277 131.635 22.015 131.852C21.9804 131.939 21.9414 131.999 21.898 132.034C21.8634 132.06 21.8114 132.073 21.742 132.073H21.235C21.157 132.073 21.0877 132.047 21.027 131.995C20.975 131.934 20.949 131.865 20.949 131.787C20.949 131.588 21.04 131.358 21.222 131.098C21.4127 130.829 21.703 130.6 22.093 130.409C22.483 130.21 22.9597 130.11 23.523 130.11C24.4937 130.11 25.187 130.335 25.603 130.786C26.0277 131.237 26.24 131.8 26.24 132.476V136.701C26.24 136.788 26.2097 136.861 26.149 136.922C26.097 136.974 26.0277 137 25.941 137H25.369C25.2824 137 25.213 136.974 25.161 136.922C25.109 136.861 25.083 136.788 25.083 136.701V136.129C24.8924 136.415 24.615 136.653 24.251 136.844C23.887 137.035 23.419 137.13 22.847 137.13ZM23.107 136.181C23.679 136.181 24.147 135.995 24.511 135.622C24.875 135.249 25.057 134.708 25.057 133.997V133.633L23.536 133.854C22.912 133.941 22.4397 134.088 22.119 134.296C21.7984 134.504 21.638 134.764 21.638 135.076C21.638 135.431 21.781 135.704 22.067 135.895C22.3617 136.086 22.7084 136.181 23.107 136.181Z" fill="#767E86"/>
<path d="M31.6337 139.47C31.547 139.47 31.4734 139.444 31.4127 139.392C31.3607 139.34 31.3347 139.266 31.3347 139.171V130.539C31.3347 130.444 31.3607 130.37 31.4127 130.318C31.4734 130.266 31.547 130.24 31.6337 130.24H32.1797C32.275 130.24 32.3487 130.266 32.4007 130.318C32.4527 130.37 32.4787 130.444 32.4787 130.539V131.111C32.9814 130.444 33.6964 130.11 34.6237 130.11C35.5337 130.11 36.214 130.4 36.6647 130.981C37.124 131.553 37.3667 132.285 37.3927 133.178C37.4014 133.273 37.4057 133.421 37.4057 133.62C37.4057 133.819 37.4014 133.967 37.3927 134.062C37.3667 134.946 37.124 135.678 36.6647 136.259C36.214 136.84 35.5337 137.13 34.6237 137.13C33.6964 137.13 32.9944 136.801 32.5177 136.142V139.171C32.5177 139.258 32.4874 139.327 32.4267 139.379C32.3747 139.44 32.3054 139.47 32.2187 139.47H31.6337ZM34.3767 136.116C35.0007 136.116 35.4557 135.921 35.7417 135.531C36.0277 135.141 36.1837 134.63 36.2097 133.997C36.2184 133.91 36.2227 133.785 36.2227 133.62C36.2227 131.956 35.6074 131.124 34.3767 131.124C33.77 131.124 33.3107 131.328 32.9987 131.735C32.6954 132.134 32.535 132.606 32.5177 133.152C32.509 133.247 32.5047 133.416 32.5047 133.659C32.5047 133.902 32.509 134.071 32.5177 134.166C32.535 134.695 32.6997 135.154 33.0117 135.544C33.3324 135.925 33.7874 136.116 34.3767 136.116Z" fill="#767E86"/>
<path d="M41.7834 137.13C40.8301 137.13 40.0934 136.861 39.5734 136.324C39.0621 135.787 38.7891 135.072 38.7544 134.179L38.7414 133.62L38.7544 133.061C38.7891 132.168 39.0664 131.453 39.5864 130.916C40.1151 130.379 40.8474 130.11 41.7834 130.11C42.7194 130.11 43.4474 130.379 43.9674 130.916C44.4961 131.453 44.7778 132.168 44.8125 133.061C44.8298 133.252 44.8384 133.438 44.8384 133.62C44.8384 133.802 44.8298 133.988 44.8125 134.179C44.7778 135.072 44.5005 135.787 43.9804 136.324C43.4691 136.861 42.7368 137.13 41.7834 137.13ZM41.7834 136.155C42.3381 136.155 42.7758 135.982 43.0964 135.635C43.4258 135.28 43.6034 134.773 43.6294 134.114C43.6381 134.027 43.6424 133.863 43.6424 133.62C43.6424 133.377 43.6381 133.213 43.6294 133.126C43.6034 132.467 43.4258 131.965 43.0964 131.618C42.7758 131.263 42.3381 131.085 41.7834 131.085C41.2288 131.085 40.7868 131.263 40.4574 131.618C40.1368 131.965 39.9634 132.467 39.9374 133.126L39.9244 133.62L39.9374 134.114C39.9634 134.773 40.1368 135.28 40.4574 135.635C40.7868 135.982 41.2288 136.155 41.7834 136.155Z" fill="#767E86"/>
<path d="M46.7919 137C46.7052 137 46.6316 136.974 46.5709 136.922C46.5189 136.861 46.4929 136.788 46.4929 136.701V128.069C46.4929 127.974 46.5189 127.9 46.5709 127.848C46.6316 127.796 46.7052 127.77 46.7919 127.77H47.3639C47.4506 127.77 47.5199 127.8 47.5719 127.861C47.6326 127.913 47.6629 127.982 47.6629 128.069V136.701C47.6629 136.788 47.6326 136.861 47.5719 136.922C47.5199 136.974 47.4506 137 47.3639 137H46.7919Z" fill="#767E86"/>
<path d="M49.8106 128.966C49.724 128.966 49.6503 128.94 49.5896 128.888C49.5376 128.827 49.5116 128.754 49.5116 128.667V127.991C49.5116 127.904 49.5376 127.831 49.5896 127.77C49.6503 127.709 49.724 127.679 49.8106 127.679H50.5776C50.6643 127.679 50.738 127.709 50.7986 127.77C50.8593 127.831 50.8896 127.904 50.8896 127.991V128.667C50.8896 128.754 50.8593 128.827 50.7986 128.888C50.738 128.94 50.6643 128.966 50.5776 128.966H49.8106ZM49.9146 137C49.828 137 49.7543 136.974 49.6936 136.922C49.6416 136.861 49.6156 136.788 49.6156 136.701V130.539C49.6156 130.452 49.6416 130.383 49.6936 130.331C49.7543 130.27 49.828 130.24 49.9146 130.24H50.4866C50.5733 130.24 50.6426 130.27 50.6946 130.331C50.7553 130.383 50.7856 130.452 50.7856 130.539V136.701C50.7856 136.788 50.7553 136.861 50.6946 136.922C50.6426 136.974 50.5733 137 50.4866 137H49.9146Z" fill="#767E86"/>
<path d="M55.4427 137.13C54.5154 137.13 53.7917 136.87 53.2717 136.35C52.7517 135.821 52.4787 135.085 52.4527 134.14L52.4397 133.62L52.4527 133.1C52.4787 132.155 52.7517 131.423 53.2717 130.903C53.7917 130.374 54.5154 130.11 55.4427 130.11C56.0667 130.11 56.591 130.223 57.0157 130.448C57.449 130.665 57.7697 130.938 57.9777 131.267C58.1944 131.596 58.3114 131.926 58.3287 132.255C58.3374 132.333 58.307 132.402 58.2377 132.463C58.177 132.524 58.1077 132.554 58.0297 132.554H57.4577C57.371 132.554 57.306 132.537 57.2627 132.502C57.2194 132.459 57.176 132.385 57.1327 132.281C56.9767 131.856 56.76 131.557 56.4827 131.384C56.214 131.202 55.8717 131.111 55.4557 131.111C54.9097 131.111 54.4764 131.28 54.1557 131.618C53.835 131.956 53.6617 132.472 53.6357 133.165L53.6227 133.62L53.6357 134.075C53.6617 134.768 53.835 135.284 54.1557 135.622C54.4764 135.96 54.9097 136.129 55.4557 136.129C55.8804 136.129 56.227 136.042 56.4957 135.869C56.7644 135.687 56.9767 135.384 57.1327 134.959C57.176 134.855 57.2194 134.786 57.2627 134.751C57.306 134.708 57.371 134.686 57.4577 134.686H58.0297C58.1077 134.686 58.177 134.716 58.2377 134.777C58.307 134.838 58.3374 134.907 58.3287 134.985C58.3114 135.306 58.1944 135.631 57.9777 135.96C57.7697 136.289 57.449 136.567 57.0157 136.792C56.591 137.017 56.0667 137.13 55.4427 137.13Z" fill="#767E86"/>
<path d="M60.8787 139.47C60.8007 139.47 60.7357 139.444 60.6837 139.392C60.6317 139.34 60.6057 139.279 60.6057 139.21C60.6057 139.184 60.6274 139.106 60.6707 138.976L61.6847 136.597L59.2017 130.734C59.1497 130.63 59.1237 130.556 59.1237 130.513C59.1324 130.435 59.1627 130.37 59.2147 130.318C59.2667 130.266 59.3274 130.24 59.3967 130.24H59.9947C60.1334 130.24 60.2374 130.309 60.3067 130.448L62.3087 135.232L64.3627 130.448C64.4321 130.309 64.5361 130.24 64.6747 130.24H65.2597C65.3291 130.24 65.3897 130.266 65.4417 130.318C65.4937 130.37 65.5197 130.431 65.5197 130.5C65.5197 130.561 65.4981 130.639 65.4547 130.734L61.7757 139.262C61.7324 139.331 61.6847 139.383 61.6327 139.418C61.5894 139.453 61.5287 139.47 61.4507 139.47H60.8787Z" fill="#767E86"/>
<path d="M69.8692 128.966C69.7826 128.966 69.7089 128.94 69.6482 128.888C69.5962 128.827 69.5702 128.754 69.5702 128.667V127.991C69.5702 127.904 69.5962 127.831 69.6482 127.77C69.7089 127.709 69.7826 127.679 69.8692 127.679H70.6362C70.7229 127.679 70.7966 127.709 70.8572 127.77C70.9179 127.831 70.9482 127.904 70.9482 127.991V128.667C70.9482 128.754 70.9179 128.827 70.8572 128.888C70.7966 128.94 70.7229 128.966 70.6362 128.966H69.8692ZM69.9732 137C69.8866 137 69.8129 136.974 69.7522 136.922C69.7002 136.861 69.6742 136.788 69.6742 136.701V130.539C69.6742 130.452 69.7002 130.383 69.7522 130.331C69.8129 130.27 69.8866 130.24 69.9732 130.24H70.5452C70.6319 130.24 70.7012 130.27 70.7532 130.331C70.8139 130.383 70.8442 130.452 70.8442 130.539V136.701C70.8442 136.788 70.8139 136.861 70.7532 136.922C70.7012 136.974 70.6319 137 70.5452 137H69.9732Z" fill="#767E86"/>
<path d="M73.0963 137C73.0096 137 72.936 136.974 72.8753 136.922C72.8233 136.861 72.7973 136.788 72.7973 136.701V130.539C72.7973 130.452 72.8233 130.383 72.8753 130.331C72.936 130.27 73.0096 130.24 73.0963 130.24H73.6553C73.7506 130.24 73.8243 130.266 73.8763 130.318C73.9283 130.37 73.9543 130.444 73.9543 130.539V131.111C74.2143 130.79 74.5133 130.543 74.8513 130.37C75.198 130.197 75.627 130.11 76.1383 130.11C76.9703 130.11 77.616 130.379 78.0753 130.916C78.5346 131.445 78.7643 132.147 78.7643 133.022V136.701C78.7643 136.788 78.734 136.861 78.6733 136.922C78.6213 136.974 78.552 137 78.4653 137H77.8673C77.7806 137 77.707 136.974 77.6463 136.922C77.5943 136.861 77.5683 136.788 77.5683 136.701V133.1C77.5683 132.476 77.4166 131.991 77.1133 131.644C76.81 131.297 76.3766 131.124 75.8133 131.124C75.2586 131.124 74.8166 131.302 74.4873 131.657C74.158 132.004 73.9933 132.485 73.9933 133.1V136.701C73.9933 136.788 73.963 136.861 73.9023 136.922C73.8503 136.974 73.781 137 73.6943 137H73.0963Z" fill="#767E86"/>
<path d="M84.1412 137C84.0545 137 83.9809 136.974 83.9202 136.922C83.8682 136.861 83.8422 136.788 83.8422 136.701V130.539C83.8422 130.452 83.8682 130.383 83.9202 130.331C83.9809 130.27 84.0545 130.24 84.1412 130.24H84.6872C84.7739 130.24 84.8432 130.27 84.8952 130.331C84.9472 130.383 84.9732 130.452 84.9732 130.539V130.981C85.4412 130.4 86.0739 130.11 86.8712 130.11C87.8245 130.11 88.5005 130.509 88.8992 131.306C89.1072 130.942 89.4019 130.652 89.7832 130.435C90.1732 130.218 90.6065 130.11 91.0832 130.11C91.7939 130.11 92.3745 130.353 92.8252 130.838C93.2759 131.323 93.5012 132.025 93.5012 132.944V136.701C93.5012 136.788 93.4709 136.861 93.4102 136.922C93.3582 136.974 93.2889 137 93.2022 137H92.6432C92.5565 137 92.4829 136.974 92.4222 136.922C92.3702 136.861 92.3442 136.788 92.3442 136.701V133.061C92.3442 132.368 92.2012 131.874 91.9152 131.579C91.6292 131.276 91.2522 131.124 90.7842 131.124C90.3682 131.124 90.0085 131.28 89.7052 131.592C89.4105 131.895 89.2632 132.385 89.2632 133.061V136.701C89.2632 136.788 89.2329 136.861 89.1722 136.922C89.1202 136.974 89.0509 137 88.9642 137H88.3922C88.3055 137 88.2319 136.974 88.1712 136.922C88.1192 136.861 88.0932 136.788 88.0932 136.701V133.061C88.0932 132.376 87.9415 131.882 87.6382 131.579C87.3435 131.276 86.9752 131.124 86.5332 131.124C86.1172 131.124 85.7575 131.276 85.4542 131.579C85.1595 131.882 85.0122 132.372 85.0122 133.048V136.701C85.0122 136.788 84.9819 136.861 84.9212 136.922C84.8692 136.974 84.7999 137 84.7132 137H84.1412Z" fill="#767E86"/>
<path d="M95.5772 128.966C95.4906 128.966 95.4169 128.94 95.3562 128.888C95.3042 128.827 95.2782 128.754 95.2782 128.667V127.991C95.2782 127.904 95.3042 127.831 95.3562 127.77C95.4169 127.709 95.4906 127.679 95.5772 127.679H96.3442C96.4309 127.679 96.5046 127.709 96.5652 127.77C96.6259 127.831 96.6562 127.904 96.6562 127.991V128.667C96.6562 128.754 96.6259 128.827 96.5652 128.888C96.5046 128.94 96.4309 128.966 96.3442 128.966H95.5772ZM95.6812 137C95.5946 137 95.5209 136.974 95.4602 136.922C95.4082 136.861 95.3822 136.788 95.3822 136.701V130.539C95.3822 130.452 95.4082 130.383 95.4602 130.331C95.5209 130.27 95.5946 130.24 95.6812 130.24H96.2532C96.3399 130.24 96.4092 130.27 96.4612 130.331C96.5219 130.383 96.5522 130.452 96.5522 130.539V136.701C96.5522 136.788 96.5219 136.861 96.4612 136.922C96.4092 136.974 96.3399 137 96.2532 137H95.6812Z" fill="#767E86"/>
<path d="M98.8043 137C98.7176 137 98.644 136.974 98.5833 136.922C98.5313 136.861 98.5053 136.788 98.5053 136.701V130.539C98.5053 130.452 98.5313 130.383 98.5833 130.331C98.644 130.27 98.7176 130.24 98.8043 130.24H99.3633C99.4586 130.24 99.5323 130.266 99.5843 130.318C99.6363 130.37 99.6623 130.444 99.6623 130.539V131.111C99.9223 130.79 100.221 130.543 100.559 130.37C100.906 130.197 101.335 130.11 101.846 130.11C102.678 130.11 103.324 130.379 103.783 130.916C104.243 131.445 104.472 132.147 104.472 133.022V136.701C104.472 136.788 104.442 136.861 104.381 136.922C104.329 136.974 104.26 137 104.173 137H103.575C103.489 137 103.415 136.974 103.354 136.922C103.302 136.861 103.276 136.788 103.276 136.701V133.1C103.276 132.476 103.125 131.991 102.821 131.644C102.518 131.297 102.085 131.124 101.521 131.124C100.967 131.124 100.525 131.302 100.195 131.657C99.866 132.004 99.7013 132.485 99.7013 133.1V136.701C99.7013 136.788 99.671 136.861 99.6103 136.922C99.5583 136.974 99.489 137 99.4023 137H98.8043Z" fill="#767E86"/>
<path d="M108.873 137.13C108.05 137.13 107.413 136.866 106.962 136.337C106.511 135.8 106.286 135.089 106.286 134.205V130.539C106.286 130.452 106.312 130.383 106.364 130.331C106.425 130.27 106.498 130.24 106.585 130.24H107.183C107.27 130.24 107.339 130.27 107.391 130.331C107.452 130.383 107.482 130.452 107.482 130.539V134.14C107.482 135.457 108.054 136.116 109.198 136.116C109.753 136.116 110.19 135.943 110.511 135.596C110.84 135.241 111.005 134.755 111.005 134.14V130.539C111.005 130.452 111.031 130.383 111.083 130.331C111.144 130.27 111.217 130.24 111.304 130.24H111.902C111.989 130.24 112.058 130.27 112.11 130.331C112.171 130.383 112.201 130.452 112.201 130.539V136.701C112.201 136.788 112.171 136.861 112.11 136.922C112.058 136.974 111.989 137 111.902 137H111.343C111.256 137 111.183 136.974 111.122 136.922C111.07 136.861 111.044 136.788 111.044 136.701V136.116C110.793 136.454 110.498 136.71 110.16 136.883C109.822 137.048 109.393 137.13 108.873 137.13Z" fill="#767E86"/>
<path d="M116.746 137C115.403 137 114.731 136.242 114.731 134.725V131.241H113.704C113.617 131.241 113.548 131.215 113.496 131.163C113.444 131.111 113.418 131.042 113.418 130.955V130.539C113.418 130.452 113.444 130.383 113.496 130.331C113.548 130.27 113.617 130.24 113.704 130.24H114.731V128.069C114.731 127.982 114.757 127.913 114.809 127.861C114.861 127.8 114.93 127.77 115.017 127.77H115.589C115.676 127.77 115.745 127.8 115.797 127.861C115.858 127.913 115.888 127.982 115.888 128.069V130.24H117.5C117.587 130.24 117.656 130.27 117.708 130.331C117.769 130.383 117.799 130.452 117.799 130.539V130.955C117.799 131.042 117.769 131.111 117.708 131.163C117.656 131.215 117.587 131.241 117.5 131.241H115.888V134.634C115.888 135.076 115.957 135.41 116.096 135.635C116.243 135.86 116.49 135.973 116.837 135.973H117.63C117.717 135.973 117.786 136.003 117.838 136.064C117.89 136.116 117.916 136.185 117.916 136.272V136.701C117.916 136.788 117.89 136.861 117.838 136.922C117.786 136.974 117.717 137 117.63 137H116.746Z" fill="#767E86"/>
<path d="M121.864 137.13C120.98 137.13 120.274 136.857 119.745 136.311C119.216 135.756 118.926 135.002 118.874 134.049L118.861 133.607L118.874 133.178C118.926 132.242 119.216 131.497 119.745 130.942C120.274 130.387 120.98 130.11 121.864 130.11C122.817 130.11 123.554 130.413 124.074 131.02C124.603 131.627 124.867 132.45 124.867 133.49V133.724C124.867 133.811 124.837 133.884 124.776 133.945C124.724 133.997 124.655 134.023 124.568 134.023H120.057V134.14C120.083 134.703 120.256 135.184 120.577 135.583C120.898 135.982 121.322 136.181 121.851 136.181C122.258 136.181 122.588 136.103 122.839 135.947C123.099 135.782 123.294 135.613 123.424 135.44C123.502 135.336 123.563 135.275 123.606 135.258C123.649 135.232 123.723 135.219 123.827 135.219H124.399C124.477 135.219 124.542 135.241 124.594 135.284C124.655 135.327 124.685 135.384 124.685 135.453C124.685 135.644 124.568 135.873 124.334 136.142C124.1 136.411 123.766 136.645 123.333 136.844C122.908 137.035 122.419 137.13 121.864 137.13ZM123.684 133.139V133.1C123.684 132.493 123.519 131.999 123.19 131.618C122.861 131.237 122.419 131.046 121.864 131.046C121.301 131.046 120.859 131.237 120.538 131.618C120.217 131.999 120.057 132.493 120.057 133.1V133.139H123.684Z" fill="#767E86"/>
<path d="M128.762 137.13C128.164 137.13 127.657 137.035 127.241 136.844C126.833 136.645 126.53 136.419 126.331 136.168C126.131 135.917 126.032 135.709 126.032 135.544C126.032 135.457 126.062 135.392 126.123 135.349C126.183 135.297 126.248 135.271 126.318 135.271H126.864C126.916 135.271 126.955 135.28 126.981 135.297C127.015 135.314 127.059 135.353 127.111 135.414C127.31 135.657 127.531 135.847 127.774 135.986C128.025 136.125 128.359 136.194 128.775 136.194C129.243 136.194 129.615 136.107 129.893 135.934C130.179 135.761 130.322 135.509 130.322 135.18C130.322 134.963 130.261 134.79 130.14 134.66C130.018 134.53 129.815 134.413 129.529 134.309C129.251 134.205 128.835 134.092 128.281 133.971C127.527 133.806 126.994 133.568 126.682 133.256C126.37 132.944 126.214 132.541 126.214 132.047C126.214 131.726 126.309 131.419 126.5 131.124C126.69 130.821 126.972 130.578 127.345 130.396C127.726 130.205 128.177 130.11 128.697 130.11C129.243 130.11 129.706 130.201 130.088 130.383C130.478 130.565 130.768 130.777 130.959 131.02C131.158 131.263 131.258 131.466 131.258 131.631C131.258 131.709 131.227 131.774 131.167 131.826C131.115 131.878 131.05 131.904 130.972 131.904H130.478C130.356 131.904 130.27 131.856 130.218 131.761C130.07 131.596 129.945 131.471 129.841 131.384C129.745 131.289 129.602 131.211 129.412 131.15C129.221 131.081 128.983 131.046 128.697 131.046C128.272 131.046 127.947 131.137 127.722 131.319C127.496 131.492 127.384 131.726 127.384 132.021C127.384 132.203 127.431 132.359 127.527 132.489C127.622 132.61 127.804 132.727 128.073 132.84C128.341 132.944 128.74 133.052 129.269 133.165C130.092 133.338 130.673 133.585 131.011 133.906C131.357 134.227 131.531 134.638 131.531 135.141C131.531 135.514 131.422 135.852 131.206 136.155C130.998 136.458 130.681 136.697 130.257 136.87C129.841 137.043 129.342 137.13 128.762 137.13Z" fill="#767E86"/>
<path d="M133.257 137C133.171 137 133.097 136.974 133.036 136.922C132.984 136.861 132.958 136.788 132.958 136.701V135.804C132.958 135.717 132.984 135.644 133.036 135.583C133.097 135.522 133.171 135.492 133.257 135.492H134.154C134.241 135.492 134.31 135.522 134.362 135.583C134.423 135.644 134.453 135.717 134.453 135.804V136.701C134.453 136.788 134.423 136.861 134.362 136.922C134.31 136.974 134.241 137 134.154 137H133.257Z" fill="#767E86"/>
<path d="M21.53 88C21.43 88 21.345 87.965 21.275 87.895C21.205 87.825 21.17 87.74 21.17 87.64V77.875C21.17 77.765 21.2 77.675 21.26 77.605C21.33 77.535 21.42 77.5 21.53 77.5H22.91C23.02 77.5 23.11 77.535 23.18 77.605C23.25 77.675 23.285 77.765 23.285 77.875V81.73H27.665V77.875C27.665 77.765 27.7 77.675 27.77 77.605C27.84 77.535 27.925 77.5 28.025 77.5H29.42C29.53 77.5 29.615 77.535 29.675 77.605C29.745 77.675 29.78 77.765 29.78 77.875V87.64C29.78 87.74 29.745 87.825 29.675 87.895C29.615 87.965 29.53 88 29.42 88H28.025C27.925 88 27.84 87.965 27.77 87.895C27.7 87.825 27.665 87.74 27.665 87.64V83.635H23.285V87.64C23.285 87.74 23.25 87.825 23.18 87.895C23.11 87.965 23.02 88 22.91 88H21.53Z" fill="#3792FC"/>
<path d="M34.2121 88.15C33.7021 88.15 33.2321 88.05 32.8021 87.85C32.3821 87.64 32.0471 87.36 31.7971 87.01C31.5571 86.66 31.4371 86.275 31.4371 85.855C31.4371 85.175 31.7121 84.625 32.2621 84.205C32.8121 83.785 33.5671 83.5 34.5271 83.35L36.5821 83.05V82.735C36.5821 82.305 36.4721 81.98 36.2521 81.76C36.0321 81.54 35.6821 81.43 35.2021 81.43C34.8721 81.43 34.6071 81.49 34.4071 81.61C34.2071 81.73 34.0421 81.855 33.9121 81.985C33.7921 82.105 33.7121 82.185 33.6721 82.225C33.6321 82.345 33.5571 82.405 33.4471 82.405H32.2771C32.1871 82.405 32.1071 82.375 32.0371 82.315C31.9771 82.255 31.9471 82.175 31.9471 82.075C31.9571 81.825 32.0771 81.545 32.3071 81.235C32.5471 80.915 32.9121 80.64 33.4021 80.41C33.8921 80.17 34.4971 80.05 35.2171 80.05C36.3971 80.05 37.2571 80.315 37.7971 80.845C38.3371 81.375 38.6071 82.07 38.6071 82.93V87.64C38.6071 87.74 38.5721 87.825 38.5021 87.895C38.4421 87.965 38.3571 88 38.2471 88H37.0021C36.9021 88 36.8171 87.965 36.7471 87.895C36.6771 87.825 36.6421 87.74 36.6421 87.64V87.055C36.4221 87.375 36.1121 87.64 35.7121 87.85C35.3121 88.05 34.8121 88.15 34.2121 88.15ZM34.7221 86.71C35.2721 86.71 35.7221 86.53 36.0721 86.17C36.4221 85.81 36.5971 85.29 36.5971 84.61V84.31L35.0971 84.55C33.9471 84.73 33.3721 85.115 33.3721 85.705C33.3721 86.025 33.5021 86.275 33.7621 86.455C34.0321 86.625 34.3521 86.71 34.7221 86.71Z" fill="#3792FC"/>
<path d="M43.5011 88.15C42.7411 88.15 42.1061 88.035 41.5961 87.805C41.0861 87.575 40.7061 87.31 40.4561 87.01C40.2161 86.7 40.0961 86.435 40.0961 86.215C40.0961 86.115 40.1261 86.035 40.1861 85.975C40.2561 85.915 40.3361 85.885 40.4261 85.885H41.6561C41.7361 85.885 41.8061 85.925 41.8661 86.005C41.9161 86.045 42.0261 86.14 42.1961 86.29C42.3761 86.44 42.5761 86.56 42.7961 86.65C43.0261 86.73 43.2761 86.77 43.5461 86.77C43.9461 86.77 44.2711 86.695 44.5211 86.545C44.7711 86.385 44.8961 86.16 44.8961 85.87C44.8961 85.67 44.8361 85.51 44.7161 85.39C44.6061 85.26 44.4011 85.145 44.1011 85.045C43.8111 84.935 43.3711 84.815 42.7811 84.685C41.9311 84.505 41.3011 84.23 40.8911 83.86C40.4911 83.49 40.2911 83 40.2911 82.39C40.2911 81.99 40.4111 81.615 40.6511 81.265C40.8911 80.905 41.2461 80.615 41.7161 80.395C42.1961 80.165 42.7661 80.05 43.4261 80.05C44.1061 80.05 44.6911 80.16 45.1811 80.38C45.6711 80.59 46.0411 80.845 46.2911 81.145C46.5511 81.445 46.6811 81.71 46.6811 81.94C46.6811 82.03 46.6461 82.11 46.5761 82.18C46.5161 82.24 46.4411 82.27 46.3511 82.27H45.2261C45.1161 82.27 45.0311 82.23 44.9711 82.15C44.9011 82.1 44.7861 82.01 44.6261 81.88C44.4761 81.74 44.3061 81.63 44.1161 81.55C43.9261 81.47 43.6961 81.43 43.4261 81.43C43.0561 81.43 42.7711 81.51 42.5711 81.67C42.3711 81.83 42.2711 82.04 42.2711 82.3C42.2711 82.48 42.3161 82.63 42.4061 82.75C42.5061 82.87 42.7011 82.985 42.9911 83.095C43.2811 83.195 43.7161 83.3 44.2961 83.41C46.0961 83.76 46.9961 84.545 46.9961 85.765C46.9961 86.475 46.6861 87.05 46.0661 87.49C45.4561 87.93 44.6011 88.15 43.5011 88.15Z" fill="#3792FC"/>
<path d="M51.4991 88.15C50.7391 88.15 50.1041 88.035 49.5941 87.805C49.0841 87.575 48.7041 87.31 48.4541 87.01C48.2141 86.7 48.0941 86.435 48.0941 86.215C48.0941 86.115 48.1241 86.035 48.1841 85.975C48.2541 85.915 48.3341 85.885 48.4241 85.885H49.6541C49.7341 85.885 49.8041 85.925 49.8641 86.005C49.9141 86.045 50.0241 86.14 50.1941 86.29C50.3741 86.44 50.5741 86.56 50.7941 86.65C51.0241 86.73 51.2741 86.77 51.5441 86.77C51.9441 86.77 52.2691 86.695 52.5191 86.545C52.7691 86.385 52.8941 86.16 52.8941 85.87C52.8941 85.67 52.8341 85.51 52.7141 85.39C52.6041 85.26 52.3991 85.145 52.0991 85.045C51.8091 84.935 51.3691 84.815 50.7791 84.685C49.9291 84.505 49.2991 84.23 48.8891 83.86C48.4891 83.49 48.2891 83 48.2891 82.39C48.2891 81.99 48.4091 81.615 48.6491 81.265C48.8891 80.905 49.2441 80.615 49.7141 80.395C50.1941 80.165 50.7641 80.05 51.4241 80.05C52.1041 80.05 52.6891 80.16 53.1791 80.38C53.6691 80.59 54.0391 80.845 54.2891 81.145C54.5491 81.445 54.6791 81.71 54.6791 81.94C54.6791 82.03 54.6441 82.11 54.5741 82.18C54.5141 82.24 54.4391 82.27 54.3491 82.27H53.2241C53.1141 82.27 53.0291 82.23 52.9691 82.15C52.8991 82.1 52.7841 82.01 52.6241 81.88C52.4741 81.74 52.3041 81.63 52.1141 81.55C51.9241 81.47 51.6941 81.43 51.4241 81.43C51.0541 81.43 50.7691 81.51 50.5691 81.67C50.3691 81.83 50.2691 82.04 50.2691 82.3C50.2691 82.48 50.3141 82.63 50.4041 82.75C50.5041 82.87 50.6991 82.985 50.9891 83.095C51.2791 83.195 51.7141 83.3 52.2941 83.41C54.0941 83.76 54.9941 84.545 54.9941 85.765C54.9941 86.475 54.6841 87.05 54.0641 87.49C53.4541 87.93 52.5991 88.15 51.4991 88.15Z" fill="#3792FC"/>
<path d="M56.9022 88C56.8022 88 56.7172 87.965 56.6472 87.895C56.5772 87.825 56.5422 87.74 56.5422 87.64V77.71C56.5422 77.6 56.5772 77.515 56.6472 77.455C56.7172 77.385 56.8022 77.35 56.9022 77.35H58.1622C58.2722 77.35 58.3572 77.385 58.4172 77.455C58.4872 77.515 58.5222 77.6 58.5222 77.71V87.64C58.5222 87.74 58.4872 87.825 58.4172 87.895C58.3572 87.965 58.2722 88 58.1622 88H56.9022Z" fill="#3792FC"/>
<path d="M63.8865 88.15C62.7665 88.15 61.8765 87.83 61.2165 87.19C60.5665 86.55 60.2215 85.64 60.1815 84.46L60.1665 84.085C60.1665 82.835 60.4915 81.85 61.1415 81.13C61.8015 80.41 62.7115 80.05 63.8715 80.05C65.0615 80.05 65.9765 80.41 66.6165 81.13C67.2665 81.85 67.5915 82.81 67.5915 84.01V84.325C67.5915 84.425 67.5565 84.51 67.4865 84.58C67.4165 84.65 67.3265 84.685 67.2165 84.685H62.2365V84.805C62.2565 85.365 62.4065 85.83 62.6865 86.2C62.9765 86.56 63.3715 86.74 63.8715 86.74C64.4415 86.74 64.9065 86.51 65.2665 86.05C65.3565 85.94 65.4265 85.875 65.4765 85.855C65.5265 85.825 65.6115 85.81 65.7315 85.81H67.0515C67.1415 85.81 67.2165 85.835 67.2765 85.885C67.3465 85.935 67.3815 86.005 67.3815 86.095C67.3815 86.335 67.2365 86.62 66.9465 86.95C66.6665 87.27 66.2615 87.55 65.7315 87.79C65.2015 88.03 64.5865 88.15 63.8865 88.15ZM65.5215 83.41V83.38C65.5215 82.79 65.3715 82.32 65.0715 81.97C64.7815 81.61 64.3815 81.43 63.8715 81.43C63.3615 81.43 62.9615 81.61 62.6715 81.97C62.3815 82.32 62.2365 82.79 62.2365 83.38V83.41H65.5215Z" fill="#3792FC"/>
<path d="M69.4834 84.37C69.3834 84.37 69.2984 84.335 69.2284 84.265C69.1584 84.195 69.1234 84.11 69.1234 84.01V82.99C69.1234 82.89 69.1584 82.805 69.2284 82.735C69.2984 82.665 69.3834 82.63 69.4834 82.63H74.1034C74.2134 82.63 74.2984 82.665 74.3584 82.735C74.4284 82.795 74.4634 82.88 74.4634 82.99V84.01C74.4634 84.11 74.4284 84.195 74.3584 84.265C74.2884 84.335 74.2034 84.37 74.1034 84.37H69.4834Z" fill="#3792FC"/>
<path d="M77.4 88C77.3 88 77.215 87.965 77.145 87.895C77.075 87.825 77.04 87.74 77.04 87.64V81.805H75.825C75.725 81.805 75.64 81.77 75.57 81.7C75.5 81.63 75.465 81.545 75.465 81.445V80.56C75.465 80.46 75.5 80.375 75.57 80.305C75.64 80.235 75.725 80.2 75.825 80.2H77.04V79.6C77.04 78.69 77.285 78.015 77.775 77.575C78.265 77.125 79.005 76.9 79.995 76.9H81.03C81.13 76.9 81.215 76.935 81.285 77.005C81.355 77.075 81.39 77.16 81.39 77.26V78.145C81.39 78.245 81.355 78.33 81.285 78.4C81.215 78.47 81.13 78.505 81.03 78.505H80.07C79.68 78.505 79.405 78.6 79.245 78.79C79.085 78.98 79.005 79.275 79.005 79.675V80.2H80.88C80.98 80.2 81.065 80.235 81.135 80.305C81.205 80.375 81.24 80.46 81.24 80.56V81.445C81.24 81.545 81.205 81.63 81.135 81.7C81.065 81.77 80.98 81.805 80.88 81.805H79.005V87.64C79.005 87.74 78.97 87.825 78.9 87.895C78.84 87.965 78.755 88 78.645 88H77.4Z" fill="#3792FC"/>
<path d="M82.7856 88C82.6856 88 82.6006 87.965 82.5306 87.895C82.4606 87.825 82.4256 87.74 82.4256 87.64V80.575C82.4256 80.465 82.4606 80.375 82.5306 80.305C82.6006 80.235 82.6856 80.2 82.7856 80.2H84.0156C84.1256 80.2 84.2156 80.235 84.2856 80.305C84.3556 80.375 84.3906 80.465 84.3906 80.575V81.19C84.8906 80.53 85.6106 80.2 86.5506 80.2H87.1806C87.2906 80.2 87.3756 80.235 87.4356 80.305C87.5056 80.365 87.5406 80.45 87.5406 80.56V81.655C87.5406 81.755 87.5056 81.84 87.4356 81.91C87.3756 81.98 87.2906 82.015 87.1806 82.015H85.9956C85.5256 82.015 85.1556 82.15 84.8856 82.42C84.6156 82.69 84.4806 83.06 84.4806 83.53V87.64C84.4806 87.74 84.4456 87.825 84.3756 87.895C84.3056 87.965 84.2206 88 84.1206 88H82.7856Z" fill="#3792FC"/>
<path d="M91.9822 88.15C90.8622 88.15 89.9722 87.83 89.3122 87.19C88.6622 86.55 88.3172 85.64 88.2772 84.46L88.2622 84.085C88.2622 82.835 88.5872 81.85 89.2372 81.13C89.8972 80.41 90.8072 80.05 91.9672 80.05C93.1572 80.05 94.0722 80.41 94.7122 81.13C95.3622 81.85 95.6872 82.81 95.6872 84.01V84.325C95.6872 84.425 95.6522 84.51 95.5822 84.58C95.5122 84.65 95.4222 84.685 95.3122 84.685H90.3322V84.805C90.3522 85.365 90.5022 85.83 90.7822 86.2C91.0722 86.56 91.4672 86.74 91.9672 86.74C92.5372 86.74 93.0022 86.51 93.3622 86.05C93.4522 85.94 93.5222 85.875 93.5722 85.855C93.6222 85.825 93.7072 85.81 93.8272 85.81H95.1472C95.2372 85.81 95.3122 85.835 95.3722 85.885C95.4422 85.935 95.4772 86.005 95.4772 86.095C95.4772 86.335 95.3322 86.62 95.0422 86.95C94.7622 87.27 94.3572 87.55 93.8272 87.79C93.2972 88.03 92.6822 88.15 91.9822 88.15ZM93.6172 83.41V83.38C93.6172 82.79 93.4672 82.32 93.1672 81.97C92.8772 81.61 92.4772 81.43 91.9672 81.43C91.4572 81.43 91.0572 81.61 90.7672 81.97C90.4772 82.32 90.3322 82.79 90.3322 83.38V83.41H93.6172Z" fill="#3792FC"/>
<path d="M100.654 88.15C99.5341 88.15 98.6441 87.83 97.9841 87.19C97.3341 86.55 96.9891 85.64 96.9491 84.46L96.9341 84.085C96.9341 82.835 97.2591 81.85 97.9091 81.13C98.5691 80.41 99.4791 80.05 100.639 80.05C101.829 80.05 102.744 80.41 103.384 81.13C104.034 81.85 104.359 82.81 104.359 84.01V84.325C104.359 84.425 104.324 84.51 104.254 84.58C104.184 84.65 104.094 84.685 103.984 84.685H99.0041V84.805C99.0241 85.365 99.1741 85.83 99.4541 86.2C99.7441 86.56 100.139 86.74 100.639 86.74C101.209 86.74 101.674 86.51 102.034 86.05C102.124 85.94 102.194 85.875 102.244 85.855C102.294 85.825 102.379 85.81 102.499 85.81H103.819C103.909 85.81 103.984 85.835 104.044 85.885C104.114 85.935 104.149 86.005 104.149 86.095C104.149 86.335 104.004 86.62 103.714 86.95C103.434 87.27 103.029 87.55 102.499 87.79C101.969 88.03 101.354 88.15 100.654 88.15ZM102.289 83.41V83.38C102.289 82.79 102.139 82.32 101.839 81.97C101.549 81.61 101.149 81.43 100.639 81.43C100.129 81.43 99.7291 81.61 99.4391 81.97C99.1491 82.32 99.0041 82.79 99.0041 83.38V83.41H102.289Z" fill="#3792FC"/>
<rect x="120" width="98" height="62.3636" fill="#D8D8D8" fill-opacity="0.01"/>
<mask id="mask0" mask-type="alpha" maskUnits="userSpaceOnUse" x="120" y="0" width="98" height="63">
<rect x="120" width="98" height="62.3636" fill="white"/>
</mask>
<g mask="url(#mask0)">
<path opacity="0.1" d="M182.301 0.890923C175.228 0.890923 163.01 0.890921 160.438 7.96441C157.866 15.0379 179.252 14.623 184.231 19.6014C189.209 24.5799 197.236 24.0405 204.808 24.0405C212.38 24.0405 210.945 32.386 217.026 31.114C223.107 29.842 217.669 23.4679 219.598 19.6014C219.598 15.9971 219.598 0.890923 219.598 0.890923C219.598 0.890923 194.198 0.890923 182.301 0.890923Z" fill="#2C89F4"/>
<path opacity="0.2" d="M171.701 58.0158C139.647 46.6276 125.402 72.251 125.402 58.0158C125.402 43.7806 142.497 36.663 151.044 28.1218C159.592 19.5807 155.851 5.34549 168.852 5.34549C181.852 5.34549 175.302 13.3252 189.508 19.5807C203.714 25.8362 218 9.61605 218 28.1218C218 46.6276 203.754 69.404 171.701 58.0158Z" fill="#2C89F4" fill-opacity="0.51"/>
<path opacity="0.05" d="M128.202 28.6892C129.11 28.2553 130.04 27.7546 130.859 27.1672C131.159 26.9514 130.863 26.5308 130.547 26.6977C129.673 27.1561 128.818 27.748 128.039 28.3509C127.879 28.4711 127.995 28.7871 128.202 28.6892Z" fill="#3792FC"/>
<path opacity="0.05" d="M187.821 37.5191C187.632 36.5311 187.385 35.5032 187.024 34.562C186.893 34.2171 186.41 34.3951 186.49 34.7444C186.711 35.7079 187.067 36.6824 187.452 37.5903C187.529 37.775 187.865 37.7438 187.821 37.5191Z" fill="#3792FC"/>
<path opacity="0.05" d="M131.563 10.7926C131.545 10.777 131.529 10.7614 131.511 10.7481C131.287 10.5478 130.917 10.51 130.699 10.7481C130.479 10.9884 130.486 11.3199 130.699 11.5602C130.715 11.578 130.73 11.5936 130.744 11.6114C130.944 11.8383 131.36 11.8317 131.563 11.6114C131.763 11.3911 131.803 11.0062 131.563 10.7926Z" fill="#3792FC"/>
<path opacity="0.05" d="M183.272 14.2885C183.328 13.9204 183.317 13.5711 183.522 13.246C183.933 12.6011 184.516 12.7623 185.08 13.0471C185.655 13.3373 186.198 13.5093 186.821 13.2406C187.797 12.8187 188.256 11.3463 187.324 10.653C187.023 10.4273 186.725 10.7981 186.765 11.0829C186.821 11.4779 187.017 11.9159 186.679 12.2545C186.225 12.7086 185.693 12.327 185.239 12.1228C184.75 11.9025 184.228 11.8541 183.726 12.0583C182.858 12.4103 182.227 13.5872 182.917 14.3826C183.014 14.4927 183.248 14.4417 183.272 14.2885Z" fill="#3792FC"/>
<path opacity="0.05" d="M173.205 51.5177C172.313 52.3743 171.975 53.707 172.824 54.7377C173.624 55.708 175.177 55.9106 176.176 55.1393C178.593 53.2734 176.073 49.8367 173.468 50.5475C172.984 50.679 173.105 51.3685 173.581 51.3933C174.342 51.436 175.16 51.4644 175.767 52.0011C176.421 52.5733 176.435 53.5436 175.899 54.2046C174.477 55.9497 172.011 53.3801 173.503 51.8163C173.695 51.6208 173.404 51.3294 173.205 51.5177Z" fill="#3792FC"/>
<path opacity="0.05" d="M120.897 45.8343C121.175 46.8692 121.481 47.892 121.802 48.9147C121.878 49.1599 122.111 49.2385 122.322 49.0933C123.154 48.5274 123.984 47.9737 124.773 47.3473C124.925 47.2263 124.891 46.9842 124.743 46.8813C123.82 46.2489 122.577 45.3138 121.405 45.3078C121.109 45.3048 120.9 45.7254 121.203 45.8979C121.675 46.1702 122.241 46.267 122.746 46.4758C123.327 46.7179 123.905 47.0023 124.419 47.3685C124.431 47.199 124.444 47.0296 124.453 46.8601C123.572 47.4018 122.743 48.01 121.908 48.6152C122.071 48.6485 122.238 48.6817 122.401 48.715C122.044 47.7044 121.678 46.7028 121.281 45.7072C121.197 45.4984 120.84 45.6134 120.897 45.8343Z" fill="#3792FC"/>
</g>
<path fill-rule="evenodd" clip-rule="evenodd" d="M188.285 22.4731C187.732 23.2972 186.985 24.7086 186.151 26.4964C183.652 31.859 180.387 40.5972 179.427 46.8735L179.583 46.8969C180.219 42.7317 181.881 37.4595 183.657 32.8231C184.546 30.5048 185.463 28.3451 186.294 26.5616C187.125 24.7782 187.872 23.3698 188.416 22.5592L188.285 22.4731Z" fill="#75B5FF"/>
<path fill-rule="evenodd" clip-rule="evenodd" d="M189.176 20.1742C189.376 19.6962 189.58 19.2102 189.915 18.8129C190.117 18.573 190.583 18.2026 190.929 18.3909C191.954 18.9499 189.773 21.1913 189.403 21.5273C188.959 21.9311 188.142 22.8099 188.142 22.8099C188.142 22.8099 188.82 21.0255 189.176 20.1742Z" fill="#75B5FF"/>
<path fill-rule="evenodd" clip-rule="evenodd" d="M189.078 23.3518C189.429 23.1498 189.787 22.945 190.183 22.8558C190.422 22.802 190.886 22.7906 191.01 23.0682C191.377 23.8922 188.962 24.2586 188.574 24.2936C188.107 24.3359 187.183 24.4973 187.183 24.4973C187.183 24.4973 188.453 23.7116 189.078 23.3518Z" fill="#75B5FF"/>
<path fill-rule="evenodd" clip-rule="evenodd" d="M186.374 22.4512C186.234 22.0738 186.093 21.6893 186.073 21.2878C186.061 21.0453 186.131 20.5908 186.428 20.5185C187.312 20.3039 187.256 22.7223 187.223 23.1067C187.184 23.569 187.183 24.4973 187.183 24.4973C187.183 24.4973 186.623 23.1235 186.374 22.4512Z" fill="#75B5FF"/>
<path fill-rule="evenodd" clip-rule="evenodd" d="M187.844 25.7201C188.184 25.4993 188.53 25.2755 188.92 25.1651C189.156 25.0985 189.619 25.0619 189.758 25.3322C190.17 26.1352 187.779 26.6318 187.393 26.6878C186.929 26.7552 186.016 26.9663 186.016 26.9663C186.016 26.9663 187.24 26.1132 187.844 25.7201Z" fill="#75B5FF"/>
<path fill-rule="evenodd" clip-rule="evenodd" d="M185.095 24.9673C184.934 24.598 184.772 24.2217 184.73 23.8217C184.705 23.5804 184.749 23.1227 185.042 23.0345C185.913 22.7724 185.99 25.1901 185.979 25.5757C185.965 26.0395 186.016 26.9663 186.016 26.9663C186.016 26.9663 185.38 25.6249 185.095 24.9673Z" fill="#75B5FF"/>
<path fill-rule="evenodd" clip-rule="evenodd" d="M186.787 28.5462C187.174 28.2865 187.568 28.023 188.015 27.8895C188.286 27.8087 188.818 27.7588 188.982 28.0677C189.47 28.9847 186.727 29.5963 186.284 29.6674C185.752 29.7529 184.704 30.0112 184.704 30.0112C184.704 30.0112 186.098 29.0087 186.787 28.5462Z" fill="#75B5FF"/>
<path fill-rule="evenodd" clip-rule="evenodd" d="M183.61 27.7264C183.419 27.304 183.225 26.8737 183.17 26.4144C183.137 26.1369 183.18 25.6095 183.516 25.5031C184.513 25.1868 184.644 27.9676 184.637 28.4117C184.63 28.9455 184.704 30.0112 184.704 30.0112C184.704 30.0112 183.95 28.4783 183.61 27.7264Z" fill="#75B5FF"/>
<path fill-rule="evenodd" clip-rule="evenodd" d="M185.478 31.5868C185.854 31.3112 186.237 31.0316 186.678 30.8794C186.945 30.7874 187.474 30.7155 187.652 31.0173C188.178 31.913 185.463 32.6385 185.024 32.728C184.495 32.8355 183.46 33.1373 183.46 33.1373C183.46 33.1373 184.81 32.0777 185.478 31.5868Z" fill="#75B5FF"/>
<path fill-rule="evenodd" clip-rule="evenodd" d="M182.269 30.8999C182.06 30.4861 181.849 30.0641 181.774 29.6073C181.729 29.3316 181.75 28.803 182.081 28.6825C183.064 28.325 183.313 31.098 183.325 31.5419C183.34 32.0756 183.46 33.1373 183.46 33.1373C183.46 33.1373 182.641 31.6371 182.269 30.8999Z" fill="#75B5FF"/>
<path fill-rule="evenodd" clip-rule="evenodd" d="M184.325 35.0153C184.739 34.6765 185.162 34.3327 185.66 34.1317C185.961 34.0105 186.565 33.8964 186.787 34.2325C187.446 35.2302 184.371 36.2241 183.871 36.3528C183.271 36.5077 182.1 36.9156 182.1 36.9156C182.1 36.9156 183.586 35.6186 184.325 35.0153Z" fill="#75B5FF"/>
<path fill-rule="evenodd" clip-rule="evenodd" d="M180.597 34.4163C180.332 33.9532 180.064 33.481 179.951 32.9608C179.883 32.6468 179.874 32.0383 180.247 31.8805C181.355 31.4118 181.808 34.5819 181.849 35.0911C181.898 35.7033 182.1 36.9156 182.1 36.9156C182.1 36.9156 181.069 35.241 180.597 34.4163Z" fill="#9FC6BD"/>
<path fill-rule="evenodd" clip-rule="evenodd" d="M183.002 38.5644C183.389 38.1949 183.784 37.8199 184.264 37.5815C184.555 37.4375 185.148 37.2777 185.395 37.5958C186.13 38.5402 183.142 39.7661 182.655 39.9326C182.068 40.1327 180.932 40.629 180.932 40.629C180.932 40.629 182.313 39.2223 183.002 38.5644Z" fill="#75B5FF"/>
<path fill-rule="evenodd" clip-rule="evenodd" d="M179.239 38.2519C178.939 37.8104 178.634 37.3602 178.481 36.8502C178.389 36.5422 178.333 35.9363 178.692 35.7503C179.76 35.1985 180.459 38.3246 180.54 38.8289C180.637 39.4355 180.932 40.629 180.932 40.629C180.932 40.629 179.773 39.0381 179.239 38.2519Z" fill="#9FC6BD"/>
<path fill-rule="evenodd" clip-rule="evenodd" d="M143.134 29.706C144.769 30.7902 148.072 33.7675 151.511 37.3717C154.952 40.9761 158.533 45.2113 160.737 48.8147L160.872 48.7341C158.657 45.1139 155.071 40.8748 151.626 37.2648C149.903 35.4599 148.216 33.8127 146.753 32.4795C145.289 31.1461 144.051 30.1274 143.221 29.5767L143.134 29.706Z" fill="#75B5FF"/>
<path fill-rule="evenodd" clip-rule="evenodd" d="M141.506 27.7934C141.136 27.4282 140.758 27.0572 140.295 26.8179C140.015 26.6733 139.441 26.5086 139.195 26.8138C138.465 27.72 141.35 28.9593 141.821 29.129C142.388 29.3328 143.484 29.8333 143.484 29.8333C143.484 29.8333 142.165 28.4441 141.506 27.7934Z" fill="#75B5FF"/>
<path fill-rule="evenodd" clip-rule="evenodd" d="M142.83 30.6897C142.427 30.6366 142.017 30.5839 141.617 30.6522C141.376 30.6934 140.943 30.8596 140.936 31.1628C140.917 32.0632 143.289 31.4826 143.661 31.3674C144.108 31.2288 145.024 31.0266 145.024 31.0266C145.024 31.0266 143.547 30.784 142.83 30.6897Z" fill="#75B5FF"/>
<path fill-rule="evenodd" clip-rule="evenodd" d="M144.977 28.8297C144.959 28.4281 144.94 28.0193 144.803 27.6411C144.72 27.4127 144.479 27.0196 144.176 27.0661C143.277 27.2043 144.268 29.4153 144.447 29.7579C144.663 30.1696 145.024 31.0266 145.024 31.0266C145.024 31.0266 145.008 29.545 144.977 28.8297Z" fill="#75B5FF"/>
<path fill-rule="evenodd" clip-rule="evenodd" d="M144.888 32.4068C144.489 32.3321 144.083 32.2573 143.679 32.3038C143.436 32.3318 142.994 32.4743 142.971 32.7767C142.902 33.6748 145.303 33.2235 145.681 33.1286C146.135 33.0143 147.06 32.862 147.06 32.862C147.06 32.862 145.599 32.5399 144.888 32.4068Z" fill="#75B5FF"/>
<path fill-rule="evenodd" clip-rule="evenodd" d="M147.134 30.6659C147.139 30.2639 147.143 29.8548 147.026 29.4696C146.956 29.2371 146.737 28.8314 146.432 28.8615C145.527 28.9508 146.394 31.2123 146.554 31.564C146.747 31.9869 147.06 32.862 147.06 32.862C147.06 32.862 147.126 31.3817 147.134 30.6659Z" fill="#75B5FF"/>
<path fill-rule="evenodd" clip-rule="evenodd" d="M146.962 34.6136C146.504 34.521 146.037 34.4278 145.572 34.4747C145.292 34.503 144.781 34.6594 144.749 35.007C144.654 36.0393 147.425 35.5604 147.861 35.4574C148.386 35.3338 149.453 35.174 149.453 35.174C149.453 35.174 147.777 34.7787 146.962 34.6136Z" fill="#75B5FF"/>
<path fill-rule="evenodd" clip-rule="evenodd" d="M149.577 32.6482C149.589 32.1857 149.6 31.7148 149.473 31.2697C149.396 31.0009 149.151 30.5305 148.8 30.5599C147.756 30.6474 148.716 33.2644 148.894 33.6718C149.108 34.1617 149.453 35.174 149.453 35.174C149.453 35.174 149.554 33.4717 149.577 32.6482Z" fill="#75B5FF"/>
<path fill-rule="evenodd" clip-rule="evenodd" d="M149.35 36.923C148.897 36.8115 148.435 36.6988 147.968 36.7262C147.686 36.7428 147.17 36.8777 147.123 37.2238C146.984 38.2513 149.773 37.8882 150.213 37.8035C150.743 37.7018 151.816 37.5868 151.816 37.5868C151.816 37.5868 150.158 37.1218 149.35 36.923Z" fill="#75B5FF"/>
<path fill-rule="evenodd" clip-rule="evenodd" d="M152.046 35.068C152.078 34.6066 152.11 34.1367 152.001 33.6866C151.936 33.4147 151.711 32.9346 151.359 32.9494C150.313 32.9933 151.16 35.6479 151.321 36.0624C151.514 36.5609 151.816 37.5867 151.816 37.5867C151.816 37.5867 151.989 35.89 152.046 35.068Z" fill="#75B5FF"/>
<path fill-rule="evenodd" clip-rule="evenodd" d="M151.746 39.6493C151.232 39.4943 150.708 39.3378 150.171 39.3417C149.846 39.344 149.244 39.4685 149.17 39.8632C148.949 41.0351 152.173 40.783 152.684 40.7119C153.299 40.6263 154.538 40.5575 154.538 40.5575C154.538 40.5575 152.662 39.9256 151.746 39.6493Z" fill="#75B5FF"/>
<path fill-rule="evenodd" clip-rule="evenodd" d="M154.955 37.6784C155.02 37.1501 155.084 36.6121 154.987 36.0889C154.928 35.7729 154.699 35.208 154.293 35.2042C153.089 35.1927 153.902 38.2919 154.061 38.7776C154.254 39.3615 154.538 40.5575 154.538 40.5575C154.538 40.5575 154.84 38.6191 154.955 37.6784Z" fill="#75B5FF"/>
<path fill-rule="evenodd" clip-rule="evenodd" d="M154.345 42.4228C153.845 42.2289 153.334 42.0328 152.798 41.9956C152.474 41.973 151.865 42.0512 151.76 42.439C151.448 43.5906 154.683 43.5856 155.197 43.5537C155.817 43.5154 157.058 43.5414 157.058 43.5414C157.058 43.5414 155.237 42.7679 154.345 42.4228Z" fill="#75B5FF"/>
<path fill-rule="evenodd" clip-rule="evenodd" d="M170.64 58.9197C154.496 58.9197 141.41 57.9583 141.41 56.7726C141.41 55.5869 154.496 54.6257 170.64 54.6257C186.783 54.6257 199.87 55.5869 199.87 56.7726C199.87 57.9583 186.783 58.9197 170.64 58.9197Z" fill="#3792FC" fill-opacity="0.31"/>
<path fill-rule="evenodd" clip-rule="evenodd" d="M180.981 30.1041C179.35 30.7631 177.293 30.5638 175.852 29.5495C174.404 28.53 173.077 27.7804 171.237 27.7264C170.094 27.6928 169.023 28.1658 167.934 28.436C166.977 28.6735 166.246 29.4343 165.214 29.5744C163.858 29.7583 162.465 28.9329 161.856 27.72C161.246 26.5071 161.379 24.9974 162.061 23.8228C162.559 22.9655 163.017 22.3256 162.458 21.3698C162.336 21.1616 162.182 20.9686 162.099 20.7426C162.02 20.5293 162.008 20.2974 162.017 20.0704C162.068 18.8319 163.015 17.9033 163.647 16.8805C163.795 16.6414 163.943 16.3934 163.988 16.1167C164.101 15.4127 163.536 14.8039 163.234 14.1562C162.258 12.0577 163.924 9.67076 165.546 8.41164C166.502 7.66871 167.649 7.36883 168.681 6.76347C169.151 6.48772 169.579 6.14613 170.054 5.88018C170.883 5.41628 171.787 5.39651 172.708 5.52428C175.33 5.88827 178.312 7.77516 178.919 10.4907C179.331 12.3315 178.657 14.4715 180.499 15.7602C181.054 16.1483 181.755 16.3792 182.133 16.9377C182.937 18.125 181.756 19.8835 182.491 21.1135C182.655 21.3878 182.9 21.6034 183.123 21.8332C184.301 23.0464 184.908 24.7806 184.743 26.4548C184.702 26.8635 184.616 27.2752 184.412 27.6327C184.132 28.1237 183.657 28.471 183.194 28.7984C182.5 29.2885 181.792 29.772 181.004 30.0947L180.981 30.1041Z" fill="#3792FC"/>
<path fill-rule="evenodd" clip-rule="evenodd" d="M166.018 27.3548C166.217 26.2812 166.462 24.7466 165.504 23.9315C165.114 23.5997 164.57 23.454 164.064 23.5461C163.76 23.6017 163.476 23.7371 163.208 23.8902C162.978 24.0214 162.756 24.168 162.566 24.3512C162.015 24.8832 161.843 25.6154 161.514 26.2709C161.142 27.0104 160.895 27.7902 160.672 28.5843C160.292 29.9416 159.951 31.3094 159.61 32.677C159.434 33.383 159.258 34.089 159.082 34.7953C158.786 35.9822 158.434 37.0646 158.429 38.3135C158.424 39.3418 158.944 40.5309 160.221 40.1924C161.013 39.982 161.461 39.1741 161.819 38.4428C162.806 36.4226 163.619 34.23 164.647 32.2012C165.401 30.7135 165.717 28.9771 166.018 27.3548Z" fill="#ED9B76"/>
<path fill-rule="evenodd" clip-rule="evenodd" d="M153.854 39.8222C154.968 39.1462 156.024 38.3801 157.136 37.6991C157.759 37.3173 158.407 36.885 159.1 36.6362C159.95 36.3309 161.187 36.3421 161.458 37.3977C161.561 37.796 161.529 38.2192 161.427 38.6179C161.17 39.6299 160.486 40.419 159.595 40.9461C158.582 41.5457 157.649 42.091 156.5 42.4428C154.642 43.0121 152.701 43.3131 150.756 43.3336C150.346 43.338 149.911 43.323 149.565 43.1042C148.246 42.2685 149.992 41.6573 150.603 41.412C151.724 40.9626 152.822 40.448 153.854 39.8222Z" fill="white"/>
<path fill-rule="evenodd" clip-rule="evenodd" d="M183.41 23.1702C182.836 22.6826 182.587 21.9204 182.587 21.144C182.587 20.8614 182.62 20.5775 182.682 20.306C182.826 19.6662 183.116 19.0286 183.117 18.3436C183.117 18.3133 183.116 18.2831 183.115 18.2526C183.078 17.3486 182.45 16.504 181.588 16.202C181.149 16.0504 180.687 16.03 180.302 15.8468C180.01 15.7091 179.783 15.4948 179.6 15.2384C179.417 14.9822 179.279 14.6845 179.168 14.3857C179.038 14.0339 179.009 13.7116 179.009 13.3739C179.009 13.1079 179.028 12.8331 179.028 12.532V12.5002C179.024 11.6168 179.001 10.731 178.91 9.84865C178.802 8.81066 178.181 7.79634 177.47 7.05917C177.368 6.95319 177.262 6.85141 177.151 6.75384L177.149 6.75166L177.151 6.75384C175.968 5.70916 174.11 5.04607 172.348 5.04514C171.353 5.04514 170.387 5.25756 169.591 5.73967C169.146 6.01076 168.874 6.37895 168.537 6.71867C168.199 7.06103 167.754 7.34317 167.336 7.60259C166.494 8.12578 165.585 8.53973 164.689 8.97951C164.116 9.26087 163.524 9.56651 163.091 10.0567C162.592 10.6215 162.362 11.379 162.362 12.1227C162.362 12.1584 162.362 12.194 162.363 12.2295C162.386 13.0065 162.644 13.758 163 14.4421C163.252 14.925 163.55 15.3789 163.704 15.8795C163.749 16.0283 163.77 16.1746 163.77 16.3184C163.771 16.9461 163.366 17.5345 162.866 17.9639C162.398 18.3685 161.841 18.7456 161.568 19.3376C161.463 19.5655 161.412 19.8148 161.412 20.064C161.412 20.3542 161.482 20.6448 161.621 20.9015C161.742 21.1234 161.905 21.3114 162.062 21.4965C162.22 21.6815 162.37 21.8633 162.473 22.0685C162.573 22.2705 162.624 22.4968 162.624 22.7232C162.624 22.937 162.579 23.1505 162.489 23.3437C162.386 23.5642 162.22 23.7861 162.077 24.0141C161.935 24.2422 161.812 24.4794 161.811 24.7399C161.811 24.8222 161.824 24.9064 161.852 24.9909L162.002 24.942C161.979 24.8733 161.969 24.8065 161.969 24.7399C161.968 24.5309 162.072 24.3171 162.211 24.0961C162.349 23.8751 162.518 23.6499 162.631 23.409C162.732 23.1943 162.781 22.9587 162.781 22.7232C162.781 22.4738 162.726 22.2243 162.614 21.9996C162.501 21.7728 162.34 21.5821 162.183 21.3964C162.025 21.2107 161.87 21.0301 161.76 20.8278C161.633 20.5951 161.569 20.3295 161.569 20.064C161.569 19.8362 161.616 19.6085 161.711 19.4018C161.957 18.8618 162.49 18.4924 162.969 18.0814C163.488 17.6345 163.926 17.0148 163.927 16.3184C163.927 16.1596 163.904 15.9975 163.854 15.8342C163.691 15.3054 163.386 14.8443 163.14 14.3706C162.791 13.7005 162.542 12.9705 162.52 12.225C162.519 12.1909 162.519 12.1568 162.519 12.1227C162.519 11.4101 162.741 10.6887 163.209 10.1591C163.616 9.69785 164.187 9.39875 164.758 9.11895C165.652 8.68041 166.566 8.26459 167.42 7.7344C167.838 7.4742 168.293 7.1874 168.649 6.82745C168.996 6.47621 169.259 6.12327 169.674 5.87225C170.437 5.40897 171.375 5.20076 172.348 5.20076C174.071 5.19998 175.9 5.85576 177.046 6.86993C177.154 6.9647 177.257 7.06368 177.357 7.1667C178.05 7.88457 178.653 8.87758 178.754 9.86452C178.844 10.7389 178.867 11.6198 178.87 12.501L178.871 12.532C178.871 12.8267 178.852 13.1009 178.852 13.3739C178.852 13.72 178.882 14.0652 179.021 14.4393C179.134 14.7457 179.277 15.0557 179.471 15.3283C179.666 15.6007 179.913 15.836 180.234 15.9872C180.659 16.1861 181.128 16.2049 181.536 16.3487C182.333 16.6259 182.926 17.4223 182.958 18.2586C182.959 18.287 182.959 18.3153 182.959 18.3436C182.961 18.984 182.679 19.6119 182.528 20.2719C182.464 20.5543 182.43 20.8494 182.43 21.144C182.43 21.9512 182.688 22.7607 183.307 23.2881L183.41 23.1702Z" fill="#3792FC"/>
<path fill-rule="evenodd" clip-rule="evenodd" d="M175.19 27.3548C174.991 26.2812 174.745 24.7466 175.704 23.9315C176.093 23.5997 176.638 23.454 177.144 23.5461C177.448 23.6017 177.732 23.7371 178 23.8902C178.229 24.0214 178.452 24.168 178.642 24.3512C179.193 24.8832 179.365 25.6154 179.694 26.2709C180.066 27.0104 180.313 27.7902 180.536 28.5843C180.916 29.9416 181.257 31.3094 181.598 32.677C181.774 33.383 181.95 34.089 182.126 34.7953C182.422 35.9822 182.774 37.0646 182.779 38.3135C182.784 39.3418 182.264 40.5309 180.987 40.1924C180.194 39.982 179.747 39.1741 179.389 38.4428C178.401 36.4226 177.589 34.23 176.561 32.2012C175.807 30.7135 175.491 28.9771 175.19 27.3548Z" fill="#ED9B76"/>
<path fill-rule="evenodd" clip-rule="evenodd" d="M187.354 39.8222C186.239 39.1462 185.184 38.3801 184.072 37.6991C183.449 37.3173 182.801 36.885 182.108 36.6362C181.258 36.3309 180.021 36.3421 179.75 37.3977C179.647 37.796 179.679 38.2192 179.781 38.6179C180.038 39.6299 180.722 40.419 181.613 40.9461C182.626 41.5457 183.559 42.091 184.708 42.4428C186.566 43.0121 188.507 43.3131 190.452 43.3336C190.862 43.338 191.297 43.323 191.642 43.1042C192.962 42.2685 191.216 41.6573 190.604 41.412C189.484 40.9626 188.386 40.448 187.354 39.8222Z" fill="white"/>
<path fill-rule="evenodd" clip-rule="evenodd" d="M177.526 22.0369C177.628 22.7084 177.551 23.3985 177.253 24.0114C176.45 25.6646 174.463 25.9869 172.787 26.0516C172.167 26.0754 171.543 26.0448 170.929 25.954C170.382 25.8734 169.894 25.9558 169.341 25.9433C168.248 25.9186 167.161 25.5992 166.237 25.0186C165.788 24.7362 165.365 24.3795 165.135 23.9048C164.818 23.252 164.91 22.4808 165.078 21.7758C165.174 21.369 165.296 20.9629 165.507 20.6007C165.733 20.2134 166.057 19.8843 166.245 19.4775C166.599 18.7132 166.308 17.8198 166.623 17.07C166.869 16.4829 167.489 15.8203 168.003 15.4531C168.702 14.9538 169.604 14.796 170.465 14.854C171.325 14.9119 172.158 15.1687 172.978 15.434C173.623 15.643 174.178 15.5137 174.651 16.0414C175.026 16.4597 174.895 17.1424 175.015 17.6492C175.419 19.3538 177.254 20.2532 177.526 22.0369Z" fill="#3792FC"/>
<path fill-rule="evenodd" clip-rule="evenodd" d="M165.94 29.7847C165.586 30.714 165.362 31.6928 165.009 32.6186C164.53 33.874 163.947 35.1726 163.546 36.4359C163.433 36.7921 163.315 37.1569 163.082 37.4509C162.94 37.6305 162.75 37.7946 162.714 38.0204C162.688 38.1915 162.758 38.3673 162.726 38.5374C162.624 39.076 161.641 39.1641 161.673 39.7111C161.678 39.8015 161.715 39.891 161.699 39.9799C161.645 40.2628 161.179 40.2246 161.015 40.4621C160.911 40.6128 160.964 40.8267 160.875 40.9867C160.803 41.117 160.654 41.1826 160.515 41.2397C159.021 41.8549 157.526 42.4701 156.032 43.0852C156.027 41.6461 155.784 40.0835 154.734 39.0875C154.805 39.1546 156.175 38.1876 156.298 38.0953C156.807 37.7103 157.226 37.1345 157.383 36.5072C157.405 36.4202 157.42 36.3292 157.468 36.2532C157.512 36.184 157.582 36.1317 157.662 36.1099C157.735 36.0897 157.817 36.0939 157.883 36.0564C157.997 35.9915 158.014 35.836 158.001 35.7064C157.987 35.5768 157.959 35.4359 158.026 35.3234C158.15 35.1135 158.535 35.1186 158.58 34.8796C158.615 34.6933 158.393 34.5366 158.411 34.3483C158.438 34.0732 158.914 34.0371 158.961 33.7646C158.989 33.6009 158.838 33.4611 158.806 33.2982C158.765 33.0921 158.915 32.9037 159.018 32.72C159.313 32.1936 159.433 31.5134 159.603 30.9376C159.957 29.7416 160.322 28.5491 160.713 27.3647C161.33 25.4928 162.957 22.1798 165.57 23.3675C167.142 24.0821 166.936 26.2085 166.638 27.583C166.473 28.3415 166.216 29.0611 165.94 29.7847Z" fill="#89BCF8"/>
<path fill-rule="evenodd" clip-rule="evenodd" d="M175.268 29.7847C175.622 30.714 175.846 31.6928 176.199 32.6186C176.678 33.874 177.26 35.1726 177.662 36.4359C177.775 36.7921 177.893 37.1569 178.126 37.4509C178.268 37.6305 178.458 37.7946 178.494 38.0204C178.52 38.1915 178.45 38.3673 178.482 38.5374C178.583 39.076 179.567 39.1641 179.535 39.7111C179.529 39.8015 179.493 39.891 179.509 39.9799C179.563 40.2628 180.029 40.2246 180.193 40.4621C180.297 40.6128 180.244 40.8267 180.333 40.9867C180.405 41.117 180.554 41.1826 180.693 41.2397C182.187 41.8549 183.681 42.4701 185.176 43.0852C185.18 41.6461 185.424 40.0835 186.474 39.0875C186.403 39.1546 185.033 38.1876 184.91 38.0953C184.401 37.7103 183.982 37.1345 183.824 36.5072C183.803 36.4202 183.788 36.3292 183.74 36.2532C183.696 36.184 183.625 36.1317 183.546 36.1099C183.473 36.0897 183.391 36.0939 183.325 36.0564C183.211 35.9915 183.194 35.836 183.207 35.7064C183.22 35.5768 183.249 35.4359 183.182 35.3234C183.058 35.1135 182.673 35.1186 182.628 34.8796C182.593 34.6933 182.815 34.5366 182.797 34.3483C182.769 34.0732 182.294 34.0371 182.247 33.7646C182.219 33.6009 182.369 33.4611 182.402 33.2982C182.443 33.0921 182.293 32.9037 182.19 32.72C181.895 32.1936 181.775 31.5134 181.605 30.9376C181.251 29.7416 180.886 28.5491 180.495 27.3647C179.878 25.4928 178.25 22.1798 175.638 23.3675C174.066 24.0821 174.272 26.2085 174.57 27.583C174.735 28.3415 174.992 29.0611 175.268 29.7847Z" fill="#89BCF8"/>
<path fill-rule="evenodd" clip-rule="evenodd" d="M189.992 42.0702C189.789 42.342 189.585 42.768 189.751 43.1005C189.825 43.2498 189.967 43.3539 190.11 43.441C191.243 44.1289 192.487 44.1189 193.756 43.948C193.964 43.9199 194.175 43.8867 194.367 43.8014C194.673 43.665 194.909 43.403 195.071 43.1116C195.308 42.6833 195.427 42.1869 195.513 41.7101C195.574 41.3761 195.592 41.0344 195.567 40.6959C195.55 40.471 195.543 39.936 195.345 39.7952C195.167 39.6685 194.94 39.6328 194.721 39.6075C194.503 39.5821 194.284 39.5633 194.064 39.5513C193.98 39.5466 193.888 39.5457 193.824 39.5994C193.703 39.7018 193.79 39.9105 193.926 39.9934C194.062 40.0765 194.232 40.096 194.362 40.1879C194.52 40.2998 194.591 40.5029 194.591 40.6954C194.59 40.8879 194.529 41.0743 194.467 41.2572C194.306 41.0659 193.963 41.0728 193.81 41.2704C193.592 41.0235 193.178 41.0916 192.999 41.3436C192.664 41.1761 192.629 40.7877 192.808 40.4779C192.931 40.2668 193.123 40.1069 193.294 39.9319C193.329 39.896 193.365 39.8548 193.367 39.8048C193.372 39.694 193.222 39.6512 193.11 39.6581C192.584 39.6907 192.118 40.0054 191.734 40.3635C191.415 40.661 191.127 40.9877 190.802 41.2785C190.525 41.527 190.217 41.7701 189.992 42.0702Z" fill="white"/>
<path fill-rule="evenodd" clip-rule="evenodd" d="M178.484 44.7424C178.032 43.5544 177.352 42.5823 176.962 41.3545C176.432 39.6881 176.071 37.3121 176.68 35.5873C177.325 33.7559 178.117 32.3112 178.166 30.2712C178.207 28.5247 177.851 26.8042 177.498 25.1031C177.147 23.4181 176.988 22.9289 175.322 22.672C174.728 22.5804 174.141 22.4212 173.549 22.317C172.543 22.1403 171.524 22.0609 170.503 22.0593V22.0587L170.463 22.059L170.423 22.0587V22.0593C169.402 22.0609 168.383 22.1403 167.377 22.317C166.784 22.4212 166.198 22.5804 165.604 22.672C163.937 22.9289 163.778 23.4181 163.428 25.1031C163.074 26.8042 162.719 28.5247 162.76 30.2712C162.808 32.3112 163.6 33.7559 164.246 35.5873C164.854 37.3121 164.494 39.6881 163.964 41.3545C163.573 42.5823 162.894 43.5544 162.442 44.7424C162.407 44.8354 162.372 44.9368 162.399 45.0336C162.434 45.1576 162.556 45.2308 162.669 45.2888C164.884 46.4345 167.366 46.7787 169.794 46.956C170.007 46.9715 170.215 46.9865 170.42 46.9997V47.0055L170.463 47.0027C170.477 47.0036 170.491 47.0047 170.506 47.0055V46.9997C170.711 46.9865 170.918 46.9715 171.131 46.956C173.559 46.7787 176.042 46.4345 178.257 45.2888C178.369 45.2308 178.492 45.1576 178.526 45.0336C178.554 44.9368 178.519 44.8354 178.484 44.7424Z" fill="#89BCF8"/>
<path fill-rule="evenodd" clip-rule="evenodd" d="M175.737 23.0257C175.84 22.7123 176.228 22.0134 176.032 21.7399C175.836 21.4646 175.106 21.5236 174.821 21.533C171.688 21.6373 168.555 21.7416 165.422 21.8457C165.603 22.5106 165.61 23.1306 165.868 23.7884C166.087 24.3463 166.378 24.8784 166.748 25.3523C167.489 26.3004 168.535 26.9645 169.727 27.1959C171.745 27.5876 173.975 26.6132 174.997 24.8462C175.326 24.2774 175.533 23.649 175.737 23.0257Z" fill="#89BCF8"/>
<path fill-rule="evenodd" clip-rule="evenodd" d="M168.114 25.3448C169.095 26.4494 170.982 26.5373 172.303 26.0852C173.202 25.7775 173.837 25.076 173.856 24.1116C173.877 23.0333 172.922 22.2672 172.68 21.2624C172.543 20.6927 172.557 20.1058 172.571 19.5262C172.587 18.8495 172.592 18.1712 172.625 17.4958C171.949 17.3542 171.4 17.2832 170.682 17.3126C170.087 17.3369 169.494 17.2756 168.9 17.31C168.852 17.3128 168.8 17.3176 168.766 17.349C168.732 17.3806 168.726 17.4303 168.722 17.476C168.642 18.3895 168.72 19.3147 168.658 20.2297C168.601 21.0707 168.41 21.9174 167.913 22.614C167.306 23.4632 167.456 24.604 168.114 25.3448Z" fill="white"/>
<path fill-rule="evenodd" clip-rule="evenodd" d="M169.92 7.70171C170.414 7.44789 170.971 7.32557 171.528 7.30223C172.086 7.27733 172.645 7.34876 173.188 7.47186C174.28 7.7112 175.303 8.26225 176.097 9.04937C176.893 9.83089 177.449 10.8661 177.607 11.9746C177.683 12.53 177.656 13.0846 177.667 13.631C177.678 14.1741 177.722 14.7286 177.95 15.2121C178.181 15.6943 178.581 16.0856 179.023 16.4008C179.468 16.7192 179.961 16.9741 180.436 17.265C180.67 17.4103 180.923 17.5619 181.096 17.8056C181.27 18.0524 181.307 18.354 181.311 18.6309C181.315 18.9122 181.279 19.1937 181.204 19.465C181.132 19.7383 181.003 19.991 180.897 20.2398C180.789 20.4891 180.721 20.7488 180.748 21.015C180.772 21.2803 180.863 21.5388 180.978 21.7851C181.213 22.2786 181.503 22.7509 181.743 23.2501C181.982 23.7479 182.166 24.2819 182.208 24.835C182.258 25.3855 182.187 25.9448 182.004 26.4641C182.175 25.9409 182.232 25.3827 182.17 24.8387C182.115 24.292 181.922 23.7714 181.673 23.2833C181.428 22.7918 181.134 22.3251 180.888 21.8268C180.768 21.5763 180.668 21.3091 180.638 21.0251C180.605 20.74 180.678 20.4497 180.785 20.1947C180.892 19.9359 181.012 19.6928 181.077 19.4312C181.146 19.171 181.18 18.9016 181.175 18.6329C181.171 18.3658 181.132 18.0935 180.981 17.8847C180.831 17.6737 180.596 17.5285 180.361 17.3856C179.891 17.1002 179.394 16.8462 178.936 16.5216C178.48 16.199 178.058 15.7949 177.808 15.2784C177.565 14.7559 177.527 14.1834 177.517 13.6335C177.508 13.081 177.537 12.5312 177.465 11.994C177.318 10.9159 176.777 9.91057 176.011 9.13309C175.244 8.35173 174.246 7.79772 173.17 7.54546C172.635 7.41132 172.083 7.32806 171.529 7.34005C170.976 7.35063 170.42 7.45925 169.92 7.70171Z" fill="#F3EDFF"/>
<path fill-rule="evenodd" clip-rule="evenodd" d="M172.641 21.127C172.534 20.5974 172.545 20.0549 172.558 19.5185C172.575 18.842 172.58 18.1637 172.613 17.4882C171.937 17.3467 171.388 17.2757 170.669 17.305C170.075 17.3294 169.481 17.268 168.887 17.3025C168.839 17.3051 168.787 17.3101 168.754 17.3416C168.72 17.3732 168.713 17.4226 168.709 17.4684C168.63 18.3819 168.708 19.307 168.646 20.2222C168.628 20.4843 168.595 20.7464 168.546 21.0048C168.639 21.0858 168.734 21.1633 168.832 21.2347C169.565 21.7719 170.554 21.9502 171.433 21.7037C171.879 21.5783 172.281 21.3804 172.641 21.127Z" fill="#D8D8D8"/>
<path fill-rule="evenodd" clip-rule="evenodd" d="M175.147 13.8678C175.128 12.9719 174.991 12.1238 174.748 11.4213C173.699 8.39048 169.85 7.69269 167.571 9.9112C165.029 12.3854 166.1 18.1997 168.844 20.2084C169.578 20.7454 170.567 20.9239 171.445 20.6774C174.102 19.9315 175.204 16.6666 175.147 13.8678Z" fill="white"/>
<path fill-rule="evenodd" clip-rule="evenodd" d="M175.142 11.2382C174.316 8.14042 170.528 7.17044 168.094 9.2212C167.705 9.54831 167.436 9.93876 167.159 10.3558C166.924 10.7099 166.597 10.9778 166.39 11.3669C166.177 11.7667 166.044 12.2085 166 12.6584C165.957 13.0963 166.101 13.4794 166.113 13.9004C166.101 13.4609 166.294 13.0203 166.626 12.7284C166.884 12.5015 167.21 12.3683 167.51 12.1999C167.811 12.0315 168.105 11.8053 168.218 11.4823C169.186 12.739 170.689 13.1238 172.168 13.4864C173.409 13.7908 174.77 14.565 174.798 15.9992C174.802 16.1811 174.814 16.2315 174.894 16.4692C174.981 16.2535 175.012 16.0955 175.039 15.8654C175.066 15.6316 175.134 15.3987 175.18 15.1649C175.275 14.6839 175.337 14.1962 175.362 13.7068C175.409 12.8118 175.334 11.9561 175.142 11.2382Z" fill="#D8D8D8"/>
<path fill-rule="evenodd" clip-rule="evenodd" d="M175.848 16.5562C176.093 16.3711 176.282 16.099 176.387 15.8135C176.718 14.851 176.682 13.7858 176.642 12.7547C176.619 12.1795 176.595 11.5963 176.436 11.0483C176.263 10.4504 175.934 9.91945 175.545 9.46442C174.423 8.15068 172.748 7.48323 171.138 7.61955C170.491 7.67433 170.015 7.98105 169.447 8.24141C168.893 8.49553 168.241 8.63512 167.658 8.82545C166.985 9.04518 166.292 9.27565 165.758 9.73691C165.368 10.074 165.084 10.5189 164.881 10.9906C164.637 11.5561 164.614 12.1851 164.683 12.7885C164.74 13.2857 164.806 13.8165 165.029 14.2805C165.238 14.7152 165.703 14.999 166.119 15.2157C166.057 15.1836 166.11 14.4662 166.108 14.3557C166.099 13.7222 166.134 13.0715 166.335 12.4652C166.528 11.8725 166.912 11.5097 167.41 11.1482C167.61 11.0032 167.809 10.8543 167.976 10.6716C168.06 10.5804 168.424 10.1599 168.364 10.0298C168.647 10.6474 169.09 11.2813 169.644 11.6862C170.697 12.4556 171.869 12.999 173.058 13.4572C173.145 13.4909 173.234 13.5247 173.321 13.5595C173.648 13.6893 173.97 13.8372 174.239 14.0792C174.839 14.6192 174.882 15.4492 174.86 16.1976C174.857 16.2796 174.856 16.3637 174.882 16.4413C175.007 16.8086 175.607 16.7375 175.848 16.5562Z" fill="#3792FC"/>
<path fill-rule="evenodd" clip-rule="evenodd" d="M191.792 48.0789C191.308 48.6826 190.674 49.207 190.047 49.6398C186.625 52.0023 182.536 53.6181 178.482 54.6592C174.861 55.5892 171.066 55.5478 167.362 55.1869C164.83 54.9402 162.312 54.1637 159.87 53.443C157.358 52.7016 154.881 51.8185 152.54 50.6446C150.695 49.72 149.042 48.572 148.761 46.3869C148.651 45.5273 148.841 44.5755 149.506 43.9925C150.307 43.2902 151.519 43.3139 152.599 43.3967C158.717 43.8655 164.642 45.9054 170.802 45.9431C174.241 45.9642 177.446 45.0792 180.75 44.2789C183.299 43.6614 186.128 42.9826 188.782 43.1119C191.188 43.2292 193.567 45.864 191.792 48.0789Z" fill="#3792FC"/>
<path fill-rule="evenodd" clip-rule="evenodd" d="M170.388 56.7055C171.239 56.9012 172.144 56.9749 172.938 57.1128C173.296 57.1749 173.654 57.2371 174.016 57.2756C174.59 57.3366 175.169 57.3374 175.746 57.3383C176.166 57.3389 176.585 57.3394 177.005 57.34C177.233 57.3403 177.472 57.3383 177.675 57.2336C177.917 57.1084 178.063 56.8605 178.198 56.6251C178.464 56.1578 178.785 55.7142 179.001 55.2208C179.132 54.9239 179.189 54.6864 179.382 54.426C179.567 54.1753 179.746 53.8482 179.614 53.534C179.458 53.1633 178.975 53.0709 178.57 53.0642C178.227 53.0584 177.885 53.0763 177.545 53.1174C176.2 53.2804 174.918 53.8057 173.571 53.9539C172.708 54.0485 171.84 53.9861 170.977 53.9416C170.288 53.9059 169.231 53.7302 168.615 54.1224C168.363 54.2827 167.973 54.6699 167.942 54.9757C167.904 55.3611 168.339 55.7633 168.616 55.9648C169.126 56.3369 169.742 56.5565 170.388 56.7055Z" fill="white"/>
<path fill-rule="evenodd" clip-rule="evenodd" d="M178.976 55.2749C178.984 55.2569 178.993 55.2391 179.002 55.2208C179.132 54.9239 179.19 54.6864 179.382 54.426C179.567 54.1753 179.746 53.8482 179.614 53.534C179.458 53.1633 178.975 53.0709 178.57 53.0642C178.228 53.0584 177.885 53.0763 177.545 53.1174C176.2 53.2804 174.918 53.8057 173.571 53.9539C172.863 54.0317 172.151 54.0032 171.441 53.966C170.927 54.1938 169.074 54.7919 168.196 55.5813C168.329 55.7373 168.489 55.8724 168.616 55.9648C169.126 56.3369 169.742 56.5565 170.389 56.7055C170.925 56.829 171.484 56.904 172.023 56.9773C173.822 56.6634 175.595 56.1148 177.35 55.6823C177.89 55.5494 178.432 55.4141 178.976 55.2749Z" fill="#D8D8D8"/>
<path fill-rule="evenodd" clip-rule="evenodd" d="M165.818 51.4198C166.998 52.1001 168.19 52.7869 169.395 53.4106C169.419 53.4229 169.443 53.4346 169.468 53.4461C169.982 53.6895 170.515 53.8919 171.027 54.1425C171.352 54.3017 171.673 54.4727 171.978 54.6683C172.121 54.7603 172.261 54.8577 172.394 54.964C172.448 55.0069 172.539 55.0608 172.573 55.121C172.617 55.1977 172.597 55.3213 172.567 55.3985C172.534 55.4805 172.48 55.5524 172.421 55.6181C172.184 55.88 171.865 56.0532 171.545 56.2049C171.347 56.2984 171.146 56.3857 170.942 56.4654C170.754 56.5385 170.546 56.6358 170.347 56.6738C170.254 56.6918 170.139 56.6602 170.044 56.6473C169.938 56.633 169.832 56.6174 169.726 56.601C169.515 56.568 169.304 56.5306 169.093 56.4901C168.133 56.3042 167.189 56.046 166.252 55.7684C165.323 55.4931 164.399 55.1976 163.467 54.9316C159.065 53.6764 154.486 52.2697 150.652 49.7196C149.769 49.1301 148.88 48.2602 148.503 47.2585C147.516 44.6246 150.343 42.5845 152.756 43.5767C156.785 45.2339 160.106 48.205 163.906 50.3282C164.54 50.6826 165.177 51.0503 165.818 51.4198Z" fill="white"/>
<path fill-rule="evenodd" clip-rule="evenodd" d="M175.117 51.4198C173.937 52.1001 172.746 52.7869 171.54 53.4106C170.883 53.7506 167.001 55.0781 168.062 56.4643C168.271 56.7365 168.665 56.7689 169.01 56.7721C171.92 56.7998 174.711 55.7178 177.468 54.9316C181.87 53.6764 186.45 52.2698 190.283 49.7196C191.166 49.1301 192.055 48.2602 192.432 47.2585C193.42 44.6246 190.592 42.5845 188.18 43.5767C184.15 45.2339 180.83 48.205 177.03 50.3282C176.396 50.6826 175.758 51.0503 175.117 51.4198Z" fill="white"/>
<path fill-rule="evenodd" clip-rule="evenodd" d="M151.216 42.0702C151.419 42.342 151.623 42.768 151.457 43.1005C151.383 43.2498 151.241 43.3539 151.097 43.441C149.966 44.1289 148.721 44.1189 147.452 43.948C147.244 43.9199 147.033 43.8867 146.841 43.8014C146.534 43.665 146.299 43.403 146.137 43.1116C145.9 42.6833 145.781 42.1869 145.695 41.7101C145.634 41.3761 145.616 41.0344 145.641 40.6959C145.658 40.471 145.665 39.936 145.863 39.7952C146.042 39.6685 146.268 39.6328 146.486 39.6075C146.705 39.5821 146.924 39.5633 147.144 39.5513C147.228 39.5466 147.32 39.5457 147.384 39.5994C147.505 39.7018 147.418 39.9105 147.282 39.9934C147.146 40.0765 146.976 40.096 146.846 40.1879C146.688 40.2998 146.616 40.5029 146.617 40.6954C146.617 40.8879 146.679 41.0743 146.741 41.2572C146.902 41.0659 147.245 41.0728 147.398 41.2704C147.616 41.0235 148.03 41.0916 148.209 41.3436C148.544 41.1761 148.579 40.7877 148.399 40.4779C148.277 40.2668 148.085 40.1069 147.914 39.9319C147.879 39.896 147.843 39.8548 147.841 39.8048C147.836 39.694 147.986 39.6512 148.098 39.6581C148.624 39.6907 149.09 40.0054 149.474 40.3635C149.792 40.661 150.08 40.9877 150.406 41.2785C150.683 41.527 150.991 41.7701 151.216 42.0702Z" fill="white"/>
<path fill-rule="evenodd" clip-rule="evenodd" d="M169.393 53.4106C169.034 53.2247 168.676 53.0323 168.32 52.837C167.7 52.9839 167.076 53.1162 166.44 53.1641C165.088 53.2654 163.73 52.9842 162.377 53.0707C162.036 53.0927 161.696 53.138 161.361 53.2063C160.963 53.2874 160.506 53.4666 160.422 53.8594C160.41 53.9178 160.41 53.9743 160.414 54.0295C161.433 54.3459 162.454 54.6434 163.465 54.9316C164.844 55.3249 166.232 55.7921 167.638 56.1575L167.652 56.1523C168.407 55.8711 169.283 55.6329 170.082 55.2847C170.614 55.0527 171.112 54.7723 171.517 54.3977C170.654 53.9234 169.691 53.565 169.393 53.4106Z" fill="#D8D8D8"/>
<path fill-rule="evenodd" clip-rule="evenodd" d="M170.463 56.7055C169.613 56.9012 168.708 56.9749 167.914 57.1128C167.556 57.1749 167.197 57.2371 166.836 57.2756C166.262 57.3366 165.683 57.3374 165.106 57.3383C164.686 57.3389 164.266 57.3394 163.847 57.34C163.618 57.3403 163.38 57.3383 163.177 57.2336C162.935 57.1084 162.788 56.8605 162.654 56.6251C162.388 56.1578 162.067 55.7142 161.85 55.2208C161.72 54.9239 161.662 54.6864 161.47 54.426C161.285 54.1753 161.105 53.8482 161.238 53.534C161.394 53.1633 161.876 53.0709 162.282 53.0642C162.624 53.0584 162.967 53.0763 163.306 53.1174C164.652 53.2804 165.934 53.8057 167.281 53.9539C168.143 54.0485 169.011 53.9861 169.874 53.9416C170.564 53.9059 171.621 53.7302 172.237 54.1224C172.488 54.2827 172.879 54.6699 172.909 54.9757C172.948 55.3611 172.513 55.7633 172.236 55.9648C171.725 56.3369 171.11 56.5565 170.463 56.7055Z" fill="white"/>
</svg>
