<svg xmlns="http://www.w3.org/2000/svg" width="115" height="84" viewBox="0 0 115 84">
  <defs>
    <linearGradient id="ic_bank_not_added-a" x1="50%" x2="50%" y1="0%" y2="100%">
      <stop offset="0%" stop-color="#D9EBFF"/>
      <stop offset="100%" stop-color="#ACC8E9"/>
    </linearGradient>
  </defs>
  <g fill="none" fill-rule="evenodd">
    <ellipse cx="57.5" cy="71.029" fill="#F0F7FF" rx="57.5" ry="12.684"/>
    <g transform="translate(-6.765)">
      <g fill-rule="nonzero" transform="translate(82.868 13.53)">
        <g transform="translate(5.494)">
          <path fill="#EAF4FF" d="M5.79474075,0.0412677967 C6.47903092,-0.0421703133 7.20937639,-0.0127170011 7.84574622,0.256859079 C9.19892156,0.830159265 9.58356382,2.42565748 9.5650076,3.72248011 C9.54500257,5.11827988 9.24801365,6.6428461 10.3112842,7.76747574 C10.8000485,8.28451552 11.4080334,8.68020155 11.8879672,9.20673514 C12.4007843,9.76940726 12.8031644,10.413216 13.1010968,11.1045645 C13.648136,12.3744405 13.9166323,13.8677982 13.4163949,15.1999065 C12.9759447,16.3727497 11.8678211,17.4313411 12.1072597,18.7649773 C12.3570153,20.1562083 13.7624064,21.219816 14.6410631,22.2560647 C15.6354541,23.4287736 16.5510183,24.927603 16.7014248,26.4654877 C16.8456497,27.939328 16.202852,29.4299054 15.2163638,30.5440082 C13.245358,32.7701696 10.2826306,33.8615076 7.29529196,33.854777 C6.02694934,33.8518133 4.59092796,33.7946414 3.49638244,33.1143859 C3.15809729,32.9041239 2.97963013,32.668229 2.7785291,32.3403016 C2.59822042,32.046246 2.36003405,31.8549753 2.08433813,31.6469017 C1.4786351,31.1898801 1.04121006,30.5739258 0.762056384,29.8844292 C-0.321957675,27.2063718 0.544447422,23.8932866 2.06182174,21.5151508 C2.42137247,20.9517218 2.71574233,20.4095342 2.54107112,19.73796 C2.35879644,19.0369179 1.91080482,18.4046161 1.51456131,17.8020109 C1.12300975,17.206449 0.676001495,16.638291 0.369967253,15.994358 C0.0494464687,15.3197924 -0.040809615,14.6134087 0.0158228169,13.8751527 C0.122259591,12.488387 0.722070409,11.2086683 1.57127198,10.0934025 C2.38921024,9.01915748 3.34960628,7.99127143 3.35175823,6.58368688 C3.35412138,5.09183902 2.35481519,3.7647483 2.78053438,2.24799989 C2.95681,1.61994188 3.3108663,0.975550567 3.88145408,0.59902047 C4.42865846,0.237900416 5.15117399,0.119740347 5.79474075,0.0412677967 Z"/>
          <path fill="#D7EBFF" d="M5.34760649,2.42620281 C5.36043868,2.22584199 5.5985713,2.10567299 5.78603448,2.1579562 C6.03278768,2.22680921 6.02804217,2.45692022 6.02152757,2.66193112 C6.00155746,3.29208581 6.09294482,3.90449329 6.24471954,4.51592205 C6.56016695,5.7871505 7.14315617,6.95837864 7.60502989,8.17949431 C8.06650106,9.39958776 8.28312535,10.6592974 8.01240701,11.9503304 C7.75720037,13.1675945 7.35626293,14.3533086 7.09508357,15.5721092 C6.86487515,16.6463254 6.61992236,17.7791466 6.97050035,18.8506274 C7.30784259,19.8820056 8.05365985,20.7219503 8.59071294,21.6540145 C9.70247484,23.5834468 10.1957023,25.7239214 10.2616737,27.9266587 C10.2922472,28.9495252 10.264715,29.9817974 10.0269578,30.9850067 C9.89011262,31.5626574 9.70621579,32.3433266 9.2102402,32.7421381 C8.98153316,32.926051 8.59037149,32.9896453 8.3978799,32.7172913 C8.21715832,32.4618446 8.3757003,32.0663877 8.43307317,31.7941216 C8.68153938,30.6155262 8.73152517,29.4110483 8.67203879,28.2143079 C8.61446559,27.0551077 8.47723807,25.8978432 8.11169257,24.7907589 C7.77241731,23.7633684 7.25699543,22.8405723 6.65037495,21.9418241 C6.03223296,21.0259369 5.38962007,20.1080956 5.13420598,19.0228636 C4.87469778,17.9206529 5.08552216,16.7991182 5.36742329,15.7179574 C5.6655406,14.5743943 6.05602765,13.4636365 6.45972165,12.3510576 C6.85313529,11.2669325 6.99258115,10.2411572 6.77540034,9.10649425 C6.34637006,6.86477838 5.1979822,4.760677 5.34760649,2.42620281 Z"/>
        </g>
        <g transform="translate(7.644 2.384)">
          <path fill="#D4E8FF" d="M21.712363,0.377236029 C22.5591567,0.633848408 23.400182,1.04788137 24.0038151,1.69709697 C25.2873402,3.07767531 24.8935195,5.16426232 24.1849638,6.68828418 C23.422291,8.32860672 22.2665491,9.97739978 22.9180627,11.8594741 C23.2175136,12.7247089 23.7210667,13.5083277 24.0051323,14.3802052 C24.3086279,15.3118944 24.4396223,16.2821982 24.422933,17.2544936 C24.392036,19.040309 23.9160809,20.9457981 22.6238732,22.2614573 C21.4861361,23.4198073 19.6257908,24.0963795 19.2003415,25.7978908 C18.7564909,27.5728717 19.8415953,29.5604115 20.3233811,31.2421113 C20.8686432,33.1452827 21.1487373,35.393205 20.510693,37.2900398 C19.8993159,39.1079245 18.3559745,40.5369752 16.6088972,41.3423503 C13.1181361,42.9517065 9.06517992,42.7040814 5.56490574,41.1450365 C4.07881729,40.4830357 2.42478292,39.6698301 1.50124846,38.2970461 C1.21582686,37.8727446 1.13143122,37.5011076 1.06922823,37.008879 C1.01347425,36.5675037 0.835401061,36.2176337 0.622231627,35.828417 C0.153837759,34.9734461 -0.0330123883,34.0178879 0.00472176359,33.0575327 C0.151565987,29.3275641 2.92236842,25.8592664 5.96154905,23.8346528 C6.6816561,23.3550083 7.31406305,22.8666421 7.46485335,21.9817303 C7.62233154,21.0580213 7.43174532,20.0776441 7.2861274,19.1592548 C7.14228256,18.2516313 6.91887947,17.3476229 6.90095516,16.4271956 C6.88226248,15.4630199 7.15049836,14.5807705 7.60789949,13.7370936 C8.46716388,12.152331 9.84841611,10.9503284 11.4350857,10.0722975 C12.9633621,9.22654682 14.6341761,8.50958652 15.3821502,6.84605754 C16.1749974,5.08298618 15.7057301,2.99468693 17.0083197,1.42197711 C17.5476903,0.770742859 18.3042301,0.192497451 19.1728822,0.0434564714 C20.0059468,-0.0995010291 20.9159636,0.13589514 21.712363,0.377236029 Z"/>
          <path fill="#CBE2FD" d="M19.9826141,3.29270638 C20.1027581,3.0621446 20.4442673,3.04440512 20.6360341,3.20438406 C20.8884341,3.41500056 20.7621345,3.68502374 20.6469374,3.92439704 C20.2929127,4.66020196 20.078412,5.43324191 19.9350364,6.23671185 C19.636815,7.90715821 19.7039076,9.59913371 19.6032004,11.2868314 C19.5025589,12.973108 19.0948272,14.5782182 18.1008046,15.9654904 C17.1636302,17.2735172 16.0726074,18.4679484 15.1276428,19.7746704 C14.2947634,20.9263714 13.4138903,22.1397618 13.2615649,23.592037 C13.1148066,24.9898974 13.5461364,26.3747321 13.6850168,27.7594516 C13.9725404,30.6259241 13.426062,33.4187603 12.3473172,36.0618295 C11.846318,37.2891374 11.2724398,38.4971884 10.4679942,39.5608518 C10.004858,40.1733415 9.38016987,41.0016396 8.59094506,41.2144779 C8.22700766,41.312636 7.73624779,41.1833272 7.65408353,40.760102 C7.57680978,40.3630563 7.96971024,39.9776766 8.17966837,39.6852617 C9.08866973,38.4195019 9.77916799,37.0192648 10.3375993,35.5709247 C10.8785686,34.1680419 11.3253815,32.7257838 11.4788883,31.223516 C11.6212936,29.8293667 11.5028434,28.466938 11.2651347,27.0852814 C11.0229475,25.677301 10.7531717,24.2542055 11.0239891,22.8354265 C11.2989287,21.3943992 12.1339726,20.1765219 13.0309409,19.0436376 C13.9796165,17.845337 15.0190862,16.7342051 16.0749547,15.6278251 C17.1038711,14.5497632 17.8052017,13.4079491 18.1466644,11.9506323 C18.8213355,9.07148452 18.5826423,5.97900359 19.9826141,3.29270638 Z"/>
        </g>
        <g transform="translate(0 13.351)">
          <path fill="#D7E9FF" d="M3.17853206,-1.56319402e-13 C4.58656011,-1.56319402e-13 5.82445217,0.744891206 6.67743483,1.80191661 C7.675932,3.03931499 7.87759762,4.55042444 8.28305443,6.02518296 C8.48480861,6.75910844 8.83181162,7.4876806 9.43990828,7.98631821 C9.99300522,8.43979783 10.6951593,8.53054556 11.3571929,8.75210471 C12.6802858,9.19487765 13.7486619,10.2614873 14.170592,11.562953 C14.6853397,13.150477 14.1401252,14.7514708 14.2340055,16.3603218 C14.3201806,17.8378433 15.7798428,18.7596538 16.9542328,19.467935 C18.112238,20.1663731 19.1554612,20.8201712 19.5042355,22.1807827 C19.8740887,23.6238529 19.9981702,25.2346036 19.4859023,26.660146 C18.6330082,29.0337473 16.1369424,30.0789434 13.7251032,30.2410115 C11.5362741,30.3880557 8.78407436,30.1571713 7.14028263,28.5714606 C6.15666461,27.6225381 5.8004507,26.295428 5.8446453,24.9750528 C5.87210088,24.1540061 6.03506299,23.3405577 6.24576237,22.547141 C6.39508525,21.9847814 6.59683943,21.4248394 6.654319,20.8437431 C6.80709597,19.2977507 5.37542071,19.0008131 4.15674755,18.5763451 C2.60816469,18.0368667 1.52402383,17.017919 0.770146942,15.5983344 C0.0680813777,14.2765778 -0.226490347,12.7928395 0.194377012,11.3375947 C0.409327577,10.5945167 0.799196708,9.92034142 1.3279379,9.34692976 C1.5606903,9.09454573 1.88874011,8.88403861 2.09881953,8.61887565 C2.29490546,8.37124057 2.25221647,8.05038559 2.18464033,7.76035551 C1.8721782,6.42063928 0.898656735,5.31128931 0.550502359,3.97399071 C0.236180336,2.76689911 0.421992566,1.2645968 1.52774361,0.485858678 C2.00547058,0.149375425 2.59461403,0.00371279958 3.17853206,-1.56319402e-13 Z"/>
          <path fill="#C4DEFE" d="M5.09714833,3.49070805 C6.58950727,5.07726835 6.99514844,7.22989612 7.11419627,9.31629845 C7.18088063,10.4862518 7.11147267,11.7202719 7.45587672,12.8550834 C7.75055303,13.8263605 8.44138184,14.5688276 9.15347232,15.2705405 C10.5868784,16.6831189 12.1854579,18.1191826 12.6047171,20.1635357 C12.85072,21.3632775 12.684668,22.6024782 13.0245913,23.7890095 C13.3336764,24.867525 13.8778699,25.9271314 14.5397934,26.8378819 C15.072741,27.5712829 15.7670842,28.1327742 16.3496717,28.8164414 C16.5274088,29.0251334 16.7820218,29.3323433 16.7086602,29.6269469 C16.6228228,29.9719752 16.1824776,30.0811998 15.8700539,30.0269761 C15.1416219,29.9006556 14.5284596,29.2064546 14.0521805,28.7017771 C13.3557288,27.9638 12.7639161,27.1700449 12.2828926,26.2796717 C11.7488906,25.2908669 11.3189127,24.2416217 11.1352013,23.1322814 C10.944549,21.98141 11.0394359,20.7820136 10.6040986,19.6775086 C9.87153718,17.8190529 8.09469349,16.7223188 6.81003128,15.2738216 C5.20943107,13.4688988 5.44814174,11.2225021 5.61208508,9.00226743 C5.70213972,7.78214861 5.79166718,6.40428034 5.17393637,5.29027758 C4.93812504,4.86503623 4.41238172,4.46854725 4.31099339,3.98519681 C4.2181273,3.54234142 4.7249811,3.09482349 5.09714833,3.49070805 Z"/>
        </g>
        <path fill="#C2D2E4" d="M6.68864083,42.914506 C6.68864083,51.9881799 8.1723794,56.7425135 16.0049842,56.7425135 C23.837589,56.7425135 25.3212832,51.9881799 25.3212832,42.914506 L6.68864083,42.914506 Z"/>
      </g>
      <g fill-rule="nonzero" transform="rotate(-30 34.525 4.916)">
        <path fill="#F5F7FB" d="M18.2910037,59.8281757 C23.8501446,55.8317497 31.9214617,47.0408923 33.2234345,43.4492109 C34.5254074,39.8575295 29.2137097,41.0009298 28.6408918,36.5888092 C28.068074,32.1766886 35.0809689,30.6342252 34.941888,27.4416069 C34.8028072,24.2489886 27.6491801,25.8157873 26.3496205,22.8680057 C25.0500609,19.9202241 29.4921161,16.5473566 28.6408918,13.1491033 C27.7896676,9.75085002 24.9950348,11.4512171 22.9127135,9.1472023 C21.1090711,7.151536 19.4185558,0.936164815 17.470944,0.571700143 C15.5233322,0.207235472 16.160196,4.95127597 13.7476281,7.43210187 C11.3350602,9.91292776 8.82648364,8.56461852 8.01944972,10.2906026 C7.21241579,12.0165866 13.1165931,12.0032384 9.73790323,16.007604 C6.35921333,20.0119696 1.35062514,17.3917475 0.572817837,20.5812052 C-0.204989471,23.7706628 5.92539141,26.6020966 6.3009962,30.1009011 C6.676601,33.5997057 -0.304225318,31.322318 0.572817837,37.1605093 C1.44986099,42.9987007 6.28142841,45.0698296 9.16508539,49.1662123 C11.6805593,52.7395722 12.3196736,56.7167465 16.6508843,59.8281757 C16.9271407,60.0266311 18.0077199,60.0318264 18.2910037,59.8281757 Z"/>
        <path fill="#CBDEF6" d="M29.443816,43.4589836 C26.6334073,44.0984403 24.3372401,44.9714639 22.5553143,46.0780543 C20.7733885,47.1846447 19.1332691,49.3672037 17.634956,52.6257312 L17.634956,51.9709635 C19.2651494,48.7756009 20.9052688,46.7021699 22.5553143,45.7506705 C24.2053598,44.7991711 26.501527,44.0352754 29.443816,43.4589836 Z"/>
        <path fill="#CBDEF6" d="M17.3069321,37.5660744 C14.4965234,38.2055311 12.2003562,39.0785547 10.4184304,40.1851451 C8.63650461,41.2917355 6.88704386,43.4742945 5.17004817,46.732822 L5.17004817,46.0780543 C7.01892418,42.8826917 8.76838492,40.8092607 10.4184304,39.8577613 C12.0684759,38.9062619 14.3646431,38.1423663 17.3069321,37.5660744 Z" transform="matrix(-1 0 0 1 22.477 0)"/>
        <path fill="#CBDEF6" d="M32.396031,27.4171753 C28.710892,28.056632 25.9773595,28.9296556 24.1954338,30.036246 C22.413508,31.1428364 20.226682,33.3253954 17.634956,36.5839229 L17.634956,35.9291552 C20.3585623,32.7337926 22.5453883,30.6603616 24.1954338,29.7088622 C25.8454792,28.7573628 28.5790116,27.9934671 32.396031,27.4171753 Z"/>
        <path fill="#CBDEF6" d="M17.3069321,21.5242661 C13.621793,22.1637228 10.8882606,23.0367464 9.10633484,24.1433368 C7.32440905,25.2499272 5.13758312,27.4324862 2.54585705,30.6910137 L2.54585705,30.036246 C5.26946343,26.8408834 7.45628936,24.7674524 9.10633484,23.815953 C10.7563803,22.8644536 13.4899127,22.100558 17.3069321,21.5242661 Z" transform="matrix(-1 0 0 1 19.853 0)"/>
        <path fill="#CBDEF6" d="M27.5892474,16.2889929 C24.6947576,16.7897223 22.5479034,17.4744794 21.1486847,18.3432641 C19.749466,19.2120489 18.0327154,20.9262313 15.9984327,23.4858114 L15.9981094,22.9712334 C18.1360199,20.4613592 19.8528244,18.8329398 21.1485231,18.0859752 C22.4442217,17.3390105 24.5911298,16.7400165 27.5892474,16.2889929 Z" transform="rotate(-20 21.794 19.887)"/>
        <path fill="#CBDEF6" d="M18.067354,11.3767097 C15.8302096,11.7642276 14.1708398,12.2937551 13.0892445,12.9652921 C12.0076493,13.6368292 10.6804547,14.9615894 9.10766075,16.9395726 L9.10752784,16.5420117 C10.7604001,14.6024075 12.0876168,13.3439075 13.0891781,12.7665117 C14.0907393,12.1891158 15.7501313,11.7258485 18.067354,11.3767097 Z" transform="scale(-1 1) rotate(-10 0 169.463)"/>
        <polygon fill="#CBDEF6" points="17.467 .572 17.963 71.262 16.979 71.262"/>
      </g>
      <g fill-rule="nonzero" transform="rotate(-60 47.268 26.744)">
        <path fill="url(#ic_bank_not_added-a)" d="M14.807003,48.4323327 C19.3072599,45.1971307 25.8411833,38.0807223 26.8951613,35.1731707 C27.9491393,32.2656191 23.6491935,33.1912289 23.1854839,29.6195122 C22.7217742,26.0477955 28.3988796,24.7991347 28.2862903,22.2146341 C28.173701,19.6301336 22.3826696,20.8984945 21.3306452,18.5121951 C20.2786207,16.1258957 23.8745702,13.3954791 23.1854839,10.6445122 C22.4963976,7.89354526 20.2340758,9.27003285 18.5483871,7.40487805 C17.0882957,5.78933867 15.7197833,0.757847707 14.1431452,0.462804878 C12.566507,0.167762049 13.0820634,4.00817579 11.1290323,6.01646341 C9.17600112,8.02475104 7.14524866,6.93326261 6.49193548,8.3304878 C5.8386223,9.727713 10.6181944,9.7169073 7.88306452,12.9585366 C5.1479346,16.2001659 1.09336321,14.0790337 0.463709677,16.6609756 C-0.165943857,19.2429175 4.79674542,21.5350306 5.10080645,24.3673962 C5.40486748,27.1997617 -0.246277638,25.3561622 0.463709677,30.0823171 C1.17369699,34.808472 5.08496586,36.4851002 7.41935484,39.8012195 C9.45569088,42.6939394 9.97306911,45.9135567 13.4792873,48.4323327 C13.7029234,48.5929871 14.577678,48.5971928 14.807003,48.4323327 Z"/>
        <path fill="#CBDEF6" d="M23.8354701,35.1810819 C21.5603774,35.6987374 19.7015753,36.4054708 18.259064,37.3012821 C16.8165526,38.1970933 15.4888369,39.9639268 14.2759167,42.6017824 L14.2759167,42.0717323 C15.5955971,39.4850102 16.9233129,37.8065185 18.259064,37.036257 C19.5948151,36.2659956 21.4536171,35.6476039 23.8354701,35.1810819 Z"/>
        <path fill="#CBDEF6" d="M14.0103736,30.4106316 C11.7352809,30.9282871 9.87647882,31.6350205 8.43396747,32.5308318 C6.99145611,33.426643 5.57522599,35.1934765 4.18527709,37.8313321 L4.18527709,37.3012821 C5.68198624,34.7145599 7.09821637,33.0360682 8.43396747,32.2658068 C9.76971857,31.4955453 11.6285206,30.8771536 14.0103736,30.4106316 Z" transform="matrix(-1 0 0 1 18.196 0)"/>
        <path fill="#CBDEF6" d="M26.2253584,22.1948562 C23.2421506,22.7125116 21.0292911,23.419245 19.5867797,24.3150563 C18.1442684,25.2108676 16.3739807,26.977701 14.2759167,29.6155566 L14.2759167,29.0855066 C16.4807409,26.4987845 18.2510286,24.8202927 19.5867797,24.0500313 C20.9225308,23.2797699 23.1353904,22.6613782 26.2253584,22.1948562 Z"/>
        <path fill="#CBDEF6" d="M14.0103736,17.4244059 C11.0271658,17.9420613 8.81430623,18.6487947 7.37179487,19.544606 C5.92928352,20.4404173 4.15899586,22.2072507 2.0609319,24.8451063 L2.0609319,24.3150563 C4.26575611,21.7283342 6.03604377,20.0498424 7.37179487,19.279581 C8.70754597,18.5093196 10.9204055,17.8909279 14.0103736,17.4244059 Z" transform="matrix(-1 0 0 1 16.071 0)"/>
        <path fill="#CBDEF6" d="M22.3341527,13.1863276 C19.9909942,13.59168 18.2530646,14.1460072 17.1203638,14.8493091 C15.987663,15.552611 14.5979124,16.9402825 12.9511122,19.0123235 L12.9508505,18.5957604 C14.6815399,16.5639574 16.0713341,15.2457131 17.120233,14.6410275 C18.1691319,14.0363419 19.9071051,13.5514419 22.3341527,13.1863276 Z" transform="rotate(-20 17.643 16.1)"/>
        <path fill="#CBDEF6" d="M14.6259532,9.20971736 C12.8149316,9.52342234 11.4716322,9.95208745 10.5960551,10.4957127 C9.720478,11.0393379 8.64608238,12.1117628 7.37286823,13.7129874 L7.37276063,13.3911523 C8.71080008,11.8209966 9.78521363,10.8022108 10.5960013,10.3347952 C11.406789,9.86737949 12.7501063,9.49235355 14.6259532,9.20971736 Z" transform="scale(-1 1) rotate(-10 0 137.185)"/>
        <polygon fill="#CBDEF6" points="14.14 .463 14.541 57.688 13.745 57.688"/>
      </g>
      <g transform="translate(34.67 18.603)">
        <rect width="59.191" height="1.644" y="51.299" fill="#E9F0FF"/>
        <rect width="55.903" height="1.644" x="1.644" y="48.011" fill="#E9F0FF"/>
        <polygon fill="#94C5FF" points="3.288 21.703 55.903 21.703 55.903 46.366 3.288 46.366"/>
        <path fill="#F0F7FF" d="M34.6221405,35.5381944 L34.6221405,46.3664216 L32.9779412,46.3664216 L32.9779412,37.1824967 L26.2132353,37.1824967 L26.2132353,46.3664216 L24.5688565,46.3664216 L24.5688565,35.5381944 L34.6221405,35.5381944 Z M50.9701797,23.6833664 L50.9701797,30.6055964 L49.3249967,30.6053664 L49.3259804,46.3664216 L47.681781,46.3664216 L47.6809967,30.6053664 L46.0375817,30.6055964 L46.0375817,23.6833664 L50.9701797,23.6833664 Z M42.749183,23.6833664 L42.749183,30.6055964 L41.1039967,30.6053664 L41.1049837,46.3664216 L39.4607843,46.3664216 L39.4599967,30.6053664 L37.816585,30.6055964 L37.816585,23.6833664 L42.749183,23.6833664 Z M21.3745915,23.6833664 L21.3745915,30.6055964 L19.7299967,30.6053664 L19.7303922,46.3664216 L18.0861928,46.3664216 L18.0859967,30.6053664 L16.4419935,30.6055964 L16.4419935,23.6833664 L21.3745915,23.6833664 Z M13.1535948,23.6833664 L13.1535948,30.6055964 L11.5089967,30.6053664 L11.5093954,46.3664216 L9.86519608,46.3664216 L9.86499673,30.6053664 L8.22099673,30.6055964 L8.22099673,23.6833664 L13.1535948,23.6833664 Z"/>
        <polygon fill="#68AEFF" points="4.933 12.483 29.595 .329 54.259 12.483 54.259 18.415 4.933 18.415"/>
        <polygon fill="#439AFF" points="29.529 2.225 50.657 12.105 50.657 15.964 6.128 15.964 6.128 13.499"/>
        <polygon fill="#3792FC" points="1.688 17.107 57.59 17.107 57.59 23.683 1.688 23.683"/>
        <g transform="translate(0 9.301)">
          <polygon fill="#C5E0FF" points="3.288 37.065 1.644 38.709 57.547 38.709 55.903 37.065"/>
          <polygon fill="#C5E0FF" points="1.644 40.353 0 41.998 59.191 41.998 57.547 40.353"/>
          <rect width="3.382" height="9.301" x="29.596" y="27.904" fill="#2871C6"/>
          <polygon fill="#19487F" points="26.213 27.904 30.441 27.448 30.441 37.725 26.213 37.206"/>
          <path fill="#FFF" d="M29.2119772,32.4628324 L29.8461684,32.4628324 C29.904544,32.4628324 29.9518669,32.5101552 29.9518669,32.5685309 C29.9518669,32.6269066 29.904544,32.6742294 29.8461684,32.6742294 L29.2119772,32.6742294 C29.1536015,32.6742294 29.1062786,32.6269066 29.1062786,32.5685309 C29.1062786,32.5101552 29.1536015,32.4628324 29.2119772,32.4628324 Z"/>
          <rect width="27.059" height="5.074" x="16.066" fill="#19487F" rx="2.537"/>
          <circle cx="18.603" cy="2.537" r="1" fill="#FFF"/>
          <circle cx="40.588" cy="2.537" r="1" fill="#FFF"/>
          <path fill="#FFF" fill-rule="nonzero" d="M22.3459995,1.40705882 L23.6752642,1.40705882 C23.7970296,1.40705882 23.9075187,1.43129878 24.0067348,1.47977941 C24.105951,1.52826005 24.1837444,1.59590643 24.2401172,1.68272059 C24.29649,1.76953475 24.324676,1.86931316 24.324676,1.98205882 C24.324676,2.11058888 24.2891617,2.22164169 24.2181319,2.31522059 C24.1471021,2.40879949 24.0563432,2.47362727 23.9458525,2.50970588 L23.9458525,2.52323529 C24.0766375,2.54803934 24.1831805,2.61173968 24.2654848,2.71433824 C24.3477892,2.81693679 24.3889407,2.93813656 24.3889407,3.07794118 C24.3889407,3.28764811 24.3218581,3.44830827 24.1876907,3.55992647 C24.0535234,3.67154468 23.8827163,3.72735294 23.6752642,3.72735294 L22.3459995,3.72735294 L22.3459995,1.40705882 Z M23.5365878,2.33382353 C23.6267843,2.33382353 23.6966856,2.31071102 23.7462937,2.26448529 C23.7959018,2.21825957 23.8207054,2.15906899 23.8207054,2.08691176 C23.8207054,2.00122506 23.7975929,1.93583356 23.7513672,1.89073529 C23.7051415,1.84563703 23.6414411,1.82308824 23.5602642,1.82308824 L22.8398231,1.82308824 L22.8398231,2.33382353 L23.5365878,2.33382353 Z M23.5940878,3.31132353 C23.6797745,3.31132353 23.7496757,3.28651986 23.8037937,3.23691176 C23.8579116,3.18730367 23.8849701,3.11627497 23.8849701,3.02382353 C23.8849701,2.94039174 23.8579116,2.87274536 23.8037937,2.82088235 C23.7496757,2.76901935 23.670755,2.74308824 23.567029,2.74308824 L22.8398231,2.74308824 L22.8398231,3.31132353 L23.5940878,3.31132353 Z M27.1658525,1.40705882 L27.7814407,1.40705882 L28.6879113,3.72735294 L28.1534995,3.72735294 L27.9877642,3.28426471 L26.9324701,3.28426471 L26.7667348,3.72735294 L26.2593819,3.72735294 L27.1658525,1.40705882 Z M27.832176,2.875 L27.6123231,2.28647059 L27.534529,2.04970588 L27.4668819,1.82985294 L27.4499701,1.82985294 L27.3375069,2.19176482 C27.3245412,2.23122551 27.3135486,2.262794 27.304529,2.28647059 L27.084676,2.875 L27.832176,2.875 Z M30.6124701,1.40705882 L31.0893819,1.40705882 L32.0026172,2.69836601 L32.1048394,2.87124185 C32.1103514,2.88126361 32.1146106,2.88928102 32.1176172,2.89529412 L32.134529,2.88514706 L32.1322741,2.83403602 L32.1294554,2.79720588 C32.1260731,2.75661744 32.1243819,2.72053937 32.1243819,2.68897059 L32.1243819,1.40705882 L32.6012937,1.40705882 L32.6012937,3.72735294 L32.1243819,3.72735294 L31.2280584,2.45558824 L31.1874701,2.39428311 L31.0961466,2.23235294 L31.0792348,2.2425 L31.0881135,2.38709559 L31.0893819,3.72735294 L30.6124701,3.72735294 L30.6124701,1.40705882 Z M34.7457054,1.40705882 L35.2361466,1.40705882 L35.2361466,2.52661765 L36.3083525,1.40705882 L36.9036466,1.40705882 L35.997176,2.35073529 L36.917176,3.72735294 L36.3354113,3.72735294 L35.6690878,2.69573529 L35.2361466,3.05426471 L35.2361466,3.72735294 L34.7457054,3.72735294 L34.7457054,1.40705882 Z"/>
        </g>
      </g>
    </g>
    <g transform="translate(71.875 22.83)">
      <rect width="7.047" height="13.086" x="7.892" y="4.872" fill="#FFF"/>
      <path fill="#D0021B" fill-rule="nonzero" d="M11.9560359,0.363103507 C12.271154,0.542256268 12.5320594,0.803161634 12.7112121,1.11827979 L21.3893477,16.3825609 C21.9388968,17.3491823 21.6007929,18.5782814 20.6341715,19.1278305 C20.3308855,19.3002564 19.9879988,19.3909129 19.6391248,19.3909129 L2.2828536,19.3909129 C1.17093577,19.3909129 0.269548275,18.4895254 0.269548275,17.3776075 C0.269548275,17.0287336 0.360204775,16.6858468 0.532630632,16.3825609 L9.21076622,1.11827979 C9.76031533,0.15165834 10.9894144,-0.186445599 11.9560359,0.363103507 Z M10.9540616,13.7774983 C10.7651004,13.7774983 10.5855899,13.8146237 10.4155247,13.8888756 C10.2454596,13.9631275 10.0990168,14.0646035 9.97619201,14.1933068 C9.8533672,14.3220101 9.75652601,14.4729866 9.68566554,14.646241 C9.61480507,14.8194954 9.57937536,15.0001723 9.57937536,15.1882771 C9.57937536,15.3862821 9.61716705,15.569434 9.69275155,15.7377383 C9.76833605,15.9060426 9.86753922,16.0545441 9.99036403,16.1832474 C10.1131888,16.3119507 10.2572696,16.4109517 10.4226107,16.4802535 C10.5879518,16.5495552 10.7651004,16.5842056 10.9540616,16.5842056 C11.1430229,16.5842056 11.3225334,16.5470802 11.4925985,16.4728283 C11.6626636,16.3985764 11.8114684,16.2995754 11.9390172,16.1758223 C12.0665661,16.0520691 12.1657692,15.9035676 12.2366297,15.7303132 C12.3074902,15.5570588 12.3429199,15.3714318 12.3429199,15.1734268 C12.3429199,14.985322 12.3074902,14.8046451 12.2366297,14.6313907 C12.1657692,14.4581363 12.0665661,14.3096348 11.9390172,14.1858817 C11.8114684,14.0621285 11.6626636,13.9631275 11.4925985,13.8888756 C11.3225334,13.8146237 11.1430229,13.7774983 10.9540616,13.7774983 Z M12.3429199,5.35737649 L9.57937536,5.35737649 L10.2702615,12.3741447 L11.6520337,12.3741447 L12.3429199,5.35737649 Z"/>
    </g>
  </g>
</svg>
