<svg xmlns="http://www.w3.org/2000/svg" width="110" height="70" viewBox="0 0 110 70">
    <g fill="none" fill-rule="evenodd">
        <path fill="#F3F8FF" d="M9.103 1.942C29.76-.12 63.098-.12 109.116 1.942v61.353c-36.804 5.41-61.478 7.221-74.023 5.436C16.275 66.053 7.6 55.176 9.103 46.471c1.502-8.707 25.99-8.707 18.318-16.943-3.494-3.75-17.093-4.194-22.685-8.801-5.914-4.872-7.772-17.574 4.367-18.785z"/>
        <g>
            <g fill-rule="nonzero">
                <path fill="#D7EAFF" d="M40.29 10.603H.708V55.84c0 .781.633 1.414 1.414 1.414h36.756c.78 0 1.414-.633 1.414-1.414V10.603z" transform="translate(29 12) translate(0 .545)"/>
                <path fill="#B3CEEC" d="M20.094 27.578c1.081 0 1.986-.161 2.716-.484.73-.324 1.316-.744 1.76-1.261.055-.074.083-.143.083-.208.009-.102-.021-.185-.09-.25-.07-.064-.155-.096-.257-.096h-1.025c-.083 0-.16.018-.229.055-.069.037-.136.083-.2.139-.315.24-.66.42-1.04.54-.378.12-.95.18-1.718.18-2.336 0-3.616-1.03-3.837-3.09-.028-.267-.042-.641-.042-1.122v-.184c.004-.414.018-.722.042-.924.12-.97.478-1.73 1.074-2.28.595-.549 1.457-.823 2.583-.823.933 0 1.677.11 2.23.332.555.222.961.559 1.22 1.011.259.453.411 1.04.457 1.76.01.157.014.388.014.693 0 .388-.004.66-.014.817 0 .25-.055.46-.166.63-.11.171-.29.257-.54.257-.222 0-.397-.076-.527-.229-.13-.152-.194-.372-.194-.658v-2.798c0-.102-.032-.185-.097-.25-.064-.065-.147-.097-.25-.097H21.3c-.093 0-.173.032-.243.097-.069.065-.104.148-.104.25v.18c-.157-.204-.344-.36-.56-.471-.218-.111-.493-.167-.825-.167-.683 0-1.217.254-1.6.762s-.575 1.201-.575 2.078c0 .869.196 1.557.589 2.065.392.508.935.762 1.628.762.535 0 .932-.079 1.191-.236.259-.157.462-.355.61-.596.138.176.353.335.644.478.29.144.644.215 1.06.215.572 0 1.062-.187 1.468-.56.407-.375.628-.89.665-1.546.019-.295.028-.595.028-.9 0-.213-.01-.494-.028-.845-.101-1.377-.563-2.457-1.385-3.242-.822-.785-2.138-1.178-3.949-1.178-1.043 0-1.935.201-2.674.603-.738.402-1.309.937-1.71 1.607-.402.67-.64 1.406-.714 2.21-.028.23-.042.623-.042 1.177 0 .527.014.924.042 1.192.12 1.348.619 2.42 1.496 3.214.878.794 2.138 1.191 3.782 1.191zm-.207-4.17c-.342 0-.603-.122-.783-.367-.18-.245-.27-.602-.27-1.074 0-.97.35-1.454 1.053-1.454.36 0 .628.118.803.353.176.236.263.603.263 1.101 0 .5-.087.864-.263 1.095-.175.23-.443.346-.803.346zM7.851 36.16c.254 0 .474-.042.66-.124.187-.083.329-.181.426-.297.097-.115.146-.216.146-.302 0-.026-.01-.048-.032-.067-.022-.018-.047-.027-.077-.027h-.648c-.04 0-.068.004-.087.013-.018.008-.042.028-.071.061-.043.05-.089.09-.136.122-.048.031-.112.047-.19.047-.123 0-.217-.046-.283-.136-.066-.091-.1-.21-.104-.36v-.029h1.569c.036 0 .067-.012.091-.037.025-.025.037-.055.037-.091v-.124c0-.254-.048-.48-.146-.68-.097-.2-.244-.357-.44-.47-.196-.114-.436-.171-.72-.171-.392 0-.704.11-.935.331-.231.221-.353.528-.366.92v.154c.006.412.125.726.356.943.23.216.548.324.95.324zm.39-1.604h-.786v-.01c0-.158.034-.28.102-.368.067-.087.164-.131.29-.131.124 0 .222.044.291.131.07.087.104.21.104.369v.01zm3.529.44c.036 0 .066-.012.089-.036.023-.025.035-.054.035-.087v-.495c0-.036-.012-.066-.035-.089-.023-.023-.053-.034-.09-.034h-1.558c-.036 0-.067.011-.091.034-.025.023-.037.053-.037.09v.494c0 .036.012.066.037.09.024.022.055.034.091.034h1.559zm1.92 1.114c.036 0 .066-.012.089-.037.023-.025.034-.054.034-.087v-1.375c0-.149.033-.258.1-.33.065-.07.15-.106.252-.106.105 0 .191.036.257.107.066.07.099.182.099.334v1.37c0 .037.012.066.037.09.025.023.055.034.092.034h.608c.036 0 .066-.012.09-.037.022-.025.034-.054.034-.087v-1.37c0-.152.032-.263.096-.334.065-.071.148-.107.25-.107.11 0 .196.036.26.107.064.07.096.182.096.334v1.37c0 .037.013.066.038.09.024.023.055.034.091.034h.609c.036 0 .066-.012.089-.037.023-.025.034-.054.034-.087v-1.405c0-.363-.085-.636-.254-.819-.17-.183-.39-.274-.661-.274-.162 0-.313.04-.455.118-.142.08-.253.182-.332.307-.135-.283-.384-.425-.747-.425-.158 0-.3.033-.425.099-.126.066-.228.146-.307.242v-.168c0-.036-.012-.066-.035-.09-.023-.022-.053-.034-.089-.034h-.574c-.033 0-.062.012-.086.035-.025.023-.037.053-.037.089v2.325c0 .033.012.062.037.087.024.025.053.037.086.037h.624zm5.066.05c.179 0 .332-.033.46-.097.13-.064.23-.147.302-.25v.173c0 .033.013.062.037.087.025.025.054.037.087.037h.609c.036 0 .066-.012.089-.037.023-.025.034-.054.034-.087v-1.499c0-.307-.099-.55-.297-.73-.197-.18-.5-.27-.91-.27-.257 0-.473.04-.648.12-.175.079-.305.173-.391.284-.086.11-.13.21-.134.3-.003.029.006.055.028.076.021.021.048.032.081.032h.574c.02 0 .036-.011.05-.034.033-.017.07-.043.113-.08.057-.046.107-.08.151-.104.045-.023.1-.034.166-.034.119 0 .203.028.253.084.049.056.074.145.074.267v.06l-.614.094c-.326.052-.583.149-.77.289-.186.14-.279.322-.279.547 0 .142.04.272.121.39.081.12.193.213.337.28.143.068.303.102.477.102zm.248-.584c-.096 0-.176-.023-.24-.07-.065-.046-.097-.107-.097-.183 0-.145.139-.244.416-.296l.41-.07v.06c0 .181-.045.32-.135.415-.091.096-.21.144-.354.144zm3.147-2.395c.036 0 .066-.012.091-.037.025-.025.037-.055.037-.092v-.46c0-.036-.012-.067-.037-.091-.025-.025-.055-.038-.091-.038h-.619c-.033 0-.062.013-.086.038-.025.024-.038.055-.038.091v.46c0 .037.012.067.035.092.023.025.053.037.09.037h.618zm0 2.93c.036 0 .066-.012.091-.035.025-.024.037-.053.037-.09v-2.325c0-.036-.012-.066-.037-.09-.025-.022-.055-.034-.091-.034h-.619c-.033 0-.062.012-.086.035-.025.023-.038.053-.038.089v2.325c0 .033.013.062.038.087.024.025.053.037.086.037h.619zm1.934 0c.037 0 .066-.013.09-.038.023-.025.034-.054.034-.087v-3.265c0-.036-.011-.066-.035-.09-.023-.022-.052-.034-.089-.034h-.618c-.036 0-.067.012-.092.035-.024.023-.037.053-.037.089v3.265c0 .037.013.066.037.09.025.023.056.034.092.034h.618z" transform="translate(29 12) translate(0 .545)"/>
                <path fill="#94C5FF" d="M27.626 0c.781 0 1.414.633 1.414 1.414v.353l9.846.043c1.168.006 2.112.953 2.112 2.121v6.672H0V3.93c0-1.168.944-2.115 2.111-2.12l9.847-.044v-.353C11.958.633 12.59 0 13.37 0zm-.147.884h-13.96c-.39 0-.707.316-.707.706v1.06h15.374V1.59c0-.39-.317-.706-.707-.706z" transform="translate(29 12) translate(0 .545)"/>
                <path fill="#BBD7F7" d="M11.31 5.655h18.378c.39 0 .707.316.707.707 0 .39-.317.707-.707.707H11.31c-.39 0-.707-.317-.707-.707 0-.39.316-.707.707-.707z" transform="translate(29 12) translate(0 .545)"/>
                <path fill="#B3CEEC" d="M35.343 49.48v1.414H5.655V49.48h29.688zm-9.896-2.828v1.414H5.655v-1.414h19.792zm4.948 0v1.414h-2.828v-1.414h2.828zM35.343 42.411v1.414H5.655v-1.414h29.688zm-9.896-2.827v1.414H5.655v-1.414h19.792zm4.948 0v1.414h-2.828v-1.414h2.828z" transform="translate(29 12) translate(0 .545)"/>
            </g>
            <g transform="translate(29 12) translate(34.161 16.197)">
                <path fill="#FFF" d="M1.98 0h26.718c.547 0 .99.443.99.99v36.12H.99V.99c0-.547.443-.99.99-.99z"/>
                <rect width="24.74" height="1.484" x="2.969" y="5.443" fill="#DFE7F5" rx=".742"/>
                <rect width="24.74" height="1.484" x="2.969" y="8.412" fill="#DFE7F5" rx=".742"/>
                <rect width="24.74" height="1.484" x="2.969" y="11.38" fill="#DFE7F5" rx=".742"/>
                <rect width="24.74" height="1.484" x="2.969" y="14.349" fill="#DFE7F5" rx=".742"/>
                <rect width="24.74" height="1.484" x="2.969" y="17.318" fill="#DFE7F5" rx=".742"/>
                <path fill="#94C5FF" d="M2.474 18.538h13.223c.855 0 1.65-.441 2.1-1.168l1.524-2.45c.452-.727 1.246-1.169 2.102-1.169H26.1c1.201 0 2.175-.974 2.175-2.175v-1.68c0-.273.222-.495.495-.495h1.907c.274 0 .495.222.495.495v28.929c0 1.366-1.107 2.474-2.474 2.474H2.474C1.108 41.299 0 40.191 0 38.825V21.012c0-1.366 1.108-2.474 2.474-2.474z"/>
                <path fill="#F0F7FF" fill-rule="nonzero" d="M10.883 32.94c.555 0 1.031-.16 1.428-.476.425-.34.692-.808.807-1.414h-.822c-.1.39-.274.685-.519.88-.23.173-.533.267-.901.267-.563 0-.98-.18-1.248-.527-.245-.324-.367-.793-.367-1.398 0-.592.122-1.053.375-1.385.274-.375.677-.555 1.218-.555.36 0 .656.072.887.231.238.159.397.404.483.743h.822c-.08-.52-.303-.938-.678-1.24-.39-.318-.894-.476-1.5-.476-.821 0-1.449.266-1.881.814-.382.476-.57 1.103-.57 1.868 0 .778.18 1.398.548 1.86.418.533 1.06.807 1.918.807zm3.425-.102l.468-1.29h2.156l.469 1.29h.901l-1.968-5.147h-.96l-1.968 5.147h.902zm2.372-1.982h-1.651l.814-2.257h.03l.807 2.257zm4.03 2.083c.656 0 1.168-.137 1.529-.396.36-.267.54-.635.54-1.096 0-.476-.223-.844-.67-1.11-.202-.116-.65-.289-1.348-.505-.476-.152-.772-.26-.88-.317-.245-.13-.36-.31-.36-.527 0-.245.1-.425.317-.533.173-.094.418-.137.742-.137.375 0 .664.065.851.209.188.137.325.368.397.685h.836c-.05-.563-.26-.98-.62-1.247-.339-.253-.815-.375-1.42-.375-.556 0-1.01.122-1.37.375-.39.26-.577.62-.577 1.074 0 .454.195.8.591 1.038.152.087.548.23 1.183.433.57.173.9.288 1.002.338.317.16.483.375.483.65 0 .216-.116.382-.332.511-.216.123-.519.188-.894.188-.425 0-.735-.08-.937-.224-.224-.166-.36-.447-.418-.836h-.837c.036.656.274 1.132.707 1.435.353.245.85.367 1.485.367z"/>
            </g>
            <g transform="translate(29 12) translate(43.421 .868)">
                <circle cx="10.724" cy="10.421" r="9.987" fill="#3792FC" stroke="#3792FC" stroke-width=".868"/>
                <path fill="#FFF" d="M15.246 3.433c-.28 0-.506.208-.506.463v1.692c-2.609-2.308-6.77-2.247-9.295.138-1.19 1.124-1.853 2.627-1.85 4.191 0 .256.227.464.506.464.28 0 .507-.208.507-.464 0-2.813 2.496-5.094 5.573-5.093 1.563 0 3.054.6 4.11 1.655l-2.244.684c-.266.08-.41.343-.322.586.089.243.376.374.642.294l3.04-.927c.207-.063.346-.24.346-.44v-2.78c0-.255-.227-.463-.507-.463zM16.983 10.38c-.28 0-.507.208-.507.464 0 2.814-2.495 5.094-5.573 5.094-1.563 0-3.054-.601-4.11-1.655l2.245-.684c.266-.081.41-.344.321-.587-.088-.243-.376-.374-.641-.293l-3.04.926c-.207.063-.347.241-.346.44v2.78c0 .256.227.463.506.463.28 0 .507-.207.507-.463v-1.692c2.608 2.308 6.77 2.247 9.294-.138 1.19-1.123 1.854-2.627 1.85-4.191 0-.256-.226-.463-.506-.463z"/>
            </g>
        </g>
    </g>
</svg>
