<svg xmlns="http://www.w3.org/2000/svg" xmlns:xlink="http://www.w3.org/1999/xlink" width="70" height="60" viewBox="0 0 70 60">
  <defs>
    <rect id="ic_benefit_gold-a" width="70" height="60" x="0" y="0" rx="4"/>
  </defs>
  <g fill="none" fill-rule="evenodd">
    <mask id="ic_benefit_gold-b" fill="#fff">
      <use xlink:href="#ic_benefit_gold-a"/>
    </mask>
    <use fill="#FFF" opacity=".05" xlink:href="#ic_benefit_gold-a"/>
    <g fill="#3792FC" fill-rule="nonzero" mask="url(#ic_benefit_gold-b)" opacity=".05">
      <g transform="translate(-12 -8)">
        <path d="M30.4306617,49.7575949 C50.7426607,42.5355508 59.7702159,58.78515 59.7702159,49.7575949 C59.7702159,40.7300398 48.9371497,36.2162623 43.5206166,30.7997292 C38.1040836,25.3831961 40.4745034,16.355641 32.2361728,16.355641 C23.9978421,16.355641 28.148356,21.4161477 19.1462179,25.3831961 C10.1440796,29.3502445 1.09110761,19.0639075 1.09110761,30.7997292 C1.09110761,42.5355508 10.1186627,56.979639 30.4306617,49.7575949 Z" transform="rotate(120 30.43 34.462)"/>
        <path d="M63.9340984,54.6163796 C69.6246551,54.6163796 93.2494124,52.6250134 91.558826,47.6275386 C89.8682397,42.6300638 83.1237107,48.1065423 82.0947948,40.5471756 C81.0658789,32.9878088 94.2419408,30.5472499 88.2419854,23.2589623 C81.3455372,14.8816837 59.6488122,33.2701644 53.5572395,33.2701644 C47.4656668,33.2701644 47.0703532,28.511456 43.7956308,28.0127037 C41.1075399,29.5646737 36.9260652,31.9788492 31.2512067,35.2552303 L52.9787865,72.8885024 C53.9020068,60.7070872 57.5537774,54.6163796 63.9340984,54.6163796 Z" transform="scale(-1 1) rotate(30 0 -182.348)"/>
        <circle cx="21.986" cy="60.268" r="2.845"/>
        <path d="M76.4833085 48.7779877C76.3776958 48.5005306 75.9892558 48.6437343 76.0536974 48.9247715 76.230912 49.6998615 76.5173194 50.4839017 76.8269973 51.2142405 76.8896489 51.3628143 77.1599459 51.3377537 77.124145 51.156959 76.9719911 50.3621786 76.773296 49.5351773 76.4833085 48.7779877zM28.1409423 55.9436593C28.4716768 55.42486 28.9407578 55.5545598 29.3947071 55.7836962 29.8573031 56.0171558 30.2939591 56.1555023 30.7954651 55.9393359 31.5801489 55.5999548 31.9497934 54.4153632 31.1996961 53.857654 30.9575898 53.6760742 30.7176452 53.9743838 30.7500701 54.2035201 30.7954651 54.5212847 30.9532665 54.8736358 30.6808969 55.1460054 30.3155758 55.5113266 29.8875664 55.2043703 29.5222453 55.0400839 29.1288225 54.8628275 28.7094598 54.8239176 28.3052287 54.988204 27.6070114 55.2713819 27.0990205 56.2181905 27.654568 56.8580429 27.7323879 56.9466711 27.9204526 56.9055995 27.9399076 56.7823847 27.9853025 56.4862368 27.9766559 56.2052205 28.1409423 55.9436593zM21.6707999 27.6659142C21.7519456 27.9288261 22.0018741 28.0132175 22.2290819 27.8574179 23.1216838 27.2504486 24.0110399 26.6564626 24.8582003 25.9845767 25.0204916 25.8547437 24.9847875 25.5950777 24.8257421 25.4847197 23.8357654 24.8063422 22.5017312 23.8033822 21.2455968 23.7968731 20.9275059 23.7936447 20.703544 24.2448144 21.0281265 24.4298264 21.5344753 24.7219507 22.1414446 24.8258171 22.6834974 25.0497791 23.3066959 25.3094451 23.9266485 25.6145527 24.4784388 26.0072975 24.4914221 25.8255313 24.5044054 25.6437651 24.5141429 25.4619989 23.5696077 26.0430016 22.6802516 26.6954125 21.7844038 27.3445775 21.9596784 27.3802816 22.1381988 27.4159857 22.3134733 27.4516898 21.9304659 26.3675841 21.5377211 25.293216 21.112518 24.2253395 21.018389 24.0013775 20.6353817 24.1247189 20.7002982 24.3616641 20.9989141 25.4717364 21.3267424 26.5688253 21.6707999 27.6659142zM81.2875156 24.7783297C81.5931615 24.7488698 81.5544955 24.3327494 81.2580557 24.321702 80.4405449 24.2904009 79.5843681 24.3603681 78.7760634 24.4690013 78.6158755 24.4910961 78.566162 24.7599173 78.7539686 24.7746472 79.5843681 24.8372494 80.4571161 24.8611855 81.2875156 24.7783297zM57.2997728 27.761902C57.9430967 28.5424684 59.1925748 28.7054438 59.9960149 28.0849935 61.9402828 26.5839043 59.9130976 23.819041 57.8172912 24.3908845 57.4284376 24.4966756 57.525651 25.0513638 57.9087861 25.0713783 58.5206587 25.1056889 59.1782787 25.1285626 59.6672049 25.5603045 60.1933009 26.0206385 60.2047378 26.8012049 59.7729959 27.3330193 58.6293089 28.7368951 56.645012 26.6696809 57.8458833 25.4116252 58.0002811 25.2543682 57.7658252 25.0199124 57.6057091 25.1714509 56.8880455 25.8605223 56.6164198 26.9327289 57.2997728 27.761902zM62.2943656 60.8419936C62.3552248 61.0391775 62.5426712 61.1024711 62.7130771 60.9856214 63.3825285 60.5303944 64.0495456 60.0849049 64.6849159 59.5809905 64.8066344 59.4836157 64.7798563 59.2888662 64.6605722 59.2060977 63.9180897 58.6973146 62.9175641 57.9450946 61.9754633 57.9402128 61.7368951 57.9377915 61.5689237 58.2761687 61.8123606 58.4149278 62.1921221 58.634021 62.6473491 58.7119208 63.0538887 58.8798922 63.5212876 59.0746418 63.986252 59.3034724 64.4000947 59.5980311 64.4098322 59.4617064 64.4195697 59.3253818 64.4268728 59.1890571 63.7184714 59.6248091 63.0514543 60.1141173 62.3795685 60.6009911 62.5110244 60.6277691 62.6449147 60.6545472 62.7763707 60.6813253 62.4891151 59.868246 62.1945565 59.0624699 61.8756541 58.2615625 61.8074918 58.0935911 61.5202363 58.1860971 61.5664893 58.363806 61.7904512 59.1963602 62.0363225 60.0191769 62.2943656 60.8419936z"/>
      </g>
    </g>
    <g mask="url(#ic_benefit_gold-b)">
      <g transform="translate(15 10)">
        <path fill="#94C5FF" d="M20,7 C27.1899724,7 33,12.8101333 33,20 C33,27.19004 27.1899724,33 20,33 C12.8100276,33 7,27.19004 7,20 C7,12.8101333 12.8100276,7 20,7 Z"/>
        <path fill="#CBE2FF" fill-rule="nonzero" d="M20,5 C11.7261765,5 5,11.7261765 5,20 C5,28.2738235 11.7261765,35 20,35 C28.2738235,35 35,28.2738235 35,20 C35,11.7261765 28.2738235,5 20,5 Z M20,7 C27.1899724,7 33,12.8101333 33,20 C33,27.19004 27.1899724,33 20,33 C12.8100276,33 7,27.19004 7,20 C7,12.8101333 12.8100276,7 20,7 Z"/>
        <polygon fill="#CBE2FF" points="18.957 6.216 18.957 33.566 20.667 33.566 20.667 6.216"/>
        <polygon fill="#CBE2FF" points="6.137 19.036 6.137 20.746 33.487 20.746 33.487 19.036"/>
        <path fill="#CBE2FF" fill-rule="nonzero" d="M19.8119658,5.36119658 C17.2772017,5.36119658 15.1118462,7.16837607 13.6287385,9.80495726 C12.1456325,12.4417094 11.2649573,15.9849573 11.2649573,19.8911111 C11.2649573,23.7974359 12.1456325,27.3439316 13.6287385,29.9806838 C15.1118462,32.617265 17.2772017,34.4210256 19.8119658,34.4210256 C22.3467299,34.4210256 24.5120855,32.617265 25.9951932,29.9806838 C27.4782991,27.3439316 28.3589744,23.7974359 28.3589744,19.8911111 C28.3589744,15.9849573 27.4782991,12.4417094 25.9951932,9.80495726 C24.5120855,7.16837607 22.3467299,5.36119658 19.8119658,5.36119658 Z M19.8119658,7.07059829 C21.525547,7.07059829 23.2051829,8.33025641 24.5061436,10.6430769 C25.8071043,12.9558974 26.6495726,16.2447863 26.6495726,19.8911111 C26.6495726,23.5376068 25.8071043,26.8297436 24.5061436,29.1425641 C23.2051829,31.4553846 21.525547,32.7116239 19.8119658,32.7116239 C18.0983846,32.7116239 16.4187487,31.4553846 15.117788,29.1425641 C13.8168274,26.8297436 12.974359,23.5376068 12.974359,19.8911111 C12.974359,16.2447863 13.8168274,12.9558974 15.117788,10.6430769 C16.4187487,8.33025641 18.0983846,7.07059829 19.8119658,7.07059829 Z"/>
        <polygon fill="#CBE2FF" points="7.419 12.626 7.419 14.336 32.205 14.336 32.205 12.626"/>
        <polygon fill="#CBE2FF" points="7.419 25.447 7.419 27.156 32.205 27.156 32.205 25.447"/>
        <path fill="#3792FC" fill-rule="nonzero" d="M2.15791934,27.8440099 C1.89335086,27.8440099 1.65444719,27.6857385 1.55124938,27.4421267 C1.04641028,26.2468138 0.661088303,25.0044791 0.400915226,23.7332807 C-0.133746992,21.10674 -0.133637264,18.3993895 0.40123786,15.7728922 C1.98500689,8.03835437 8.02595562,1.99196678 15.759065,0.40123786 C18.3835487,-0.13117363 21.0882208,-0.13117363 23.7127045,0.40123786 C27.4944296,1.18056186 30.9642227,3.05278941 33.6918058,5.78575144 C34.5884796,6.72988458 35.395089,7.75563661 36.1011424,8.84966584 C36.2335174,9.04458028 36.2516355,9.29537732 36.1486508,9.50729455 C36.0456661,9.71921185 35.8372817,9.85993626 35.6022346,9.87629577 C35.3671875,9.89265534 35.1413176,9.78215552 35.0099687,9.58654815 C34.3502533,8.56262235 33.5971907,7.6019495 32.7604148,6.71681975 C31.081528,5.03488687 29.0934639,3.69320309 26.9055407,2.76554403 C25.7915214,2.29429306 24.6336215,1.93438686 23.4487506,1.69108148 C20.9983947,1.19467982 18.4733749,1.19467982 16.0230189,1.69108148 C13.6675077,2.17481505 11.4302143,3.11736212 9.43865679,4.46500082 C6.4761819,6.46678565 4.15767499,9.28460174 2.76395062,12.5771588 C2.29319272,13.692074 1.93393289,14.850843 1.69142387,16.0365235 C1.19213061,18.4890675 1.19202089,21.017062 1.69110123,23.4696494 C1.93387001,24.6553013 2.2932333,25.8140555 2.76395062,26.929014 C2.84979452,27.1322954 2.82815293,27.3650567 2.70630328,27.5490273 C2.58445362,27.7329979 2.37858299,27.8440099 2.15791934,27.8440099 Z"/>
        <path fill="#3792FC" fill-rule="nonzero" d="M35.556214 9.87654626C35.5125931 9.87667766 35.469072 9.87236899 35.4263243 9.86368395L32.844023 9.34735144C32.6129356 9.30168013 32.4238573 9.13602528 32.348197 8.91294953 32.2725367 8.68987378 32.3218246 8.44337258 32.4774463 8.26654163 32.6330679 8.08971075 32.8713075 8.00949807 33.1021893 8.05619753L35.0392362 8.4432856 35.4266469 6.50656132C35.4980248 6.15001901 35.8449227 5.9188476 36.201465 5.99022551 36.5580073 6.06160343 36.7891787 6.40850131 36.7178008 6.76504362L36.2011457 9.34735144C36.1395974 9.6548104 35.8697728 9.87621208 35.556214 9.87654626zM19.7701267 39.506173C18.4344626 39.506173 17.1021815 39.3719029 15.7934683 39.1049416 12.0117451 38.3256084 8.54195391 36.4533796 5.81436708 33.7204214 4.91769322 32.7762883 4.11108386 31.7505362 3.40503045 30.656507 3.27265541 30.4615926 3.25453733 30.2107955 3.35752202 29.9988783 3.46050672 29.786961 3.66889112 29.6462366 3.90393823 29.6298771 4.13898534 29.6135175 4.36485524 29.7240173 4.49620412 29.9196247 5.15591951 30.9435505 5.90898218 31.9042233 6.74575802 32.7893531 8.42464481 34.471286 10.4127089 35.8129697 12.6006321 36.7406288 13.7146514 37.2118798 14.8725514 37.571786 16.0574222 37.8150914 18.5077782 38.311493 21.032798 38.311493 23.4831539 37.8150914 25.8386652 37.3313578 28.0759585 36.3888107 30.067516 35.041172 33.0299909 33.0393872 35.3484978 30.2215711 36.7422222 26.929014 37.2129801 25.8140988 37.5722399 24.6553298 37.814749 23.4696494 38.3140422 21.0171053 38.314152 18.4891108 37.8150716 16.0365235 37.5723028 14.8508715 37.2129395 13.6921173 36.7422222 12.5771588 36.6018458 12.2425695 36.7586299 11.8574754 37.0927925 11.716086 37.4269551 11.5746966 37.8125224 11.7303133 37.9549235 12.0640461 38.4597626 13.2593591 38.8450845 14.5016937 39.1052576 15.7728922 39.6399182 18.3994328 39.6398107 21.1067825 39.1049416 23.7332807 37.5211579 31.4678143 31.480213 37.5141981 23.7471078 39.1049416 22.4382833 39.3718869 21.1058968 39.506173 19.7701267 39.506173z"/>
        <path fill="#3792FC" fill-rule="nonzero" d="M3.43460741,33.528813 C3.39098617,33.5289453 3.34746471,33.5246344 3.3047177,33.515944 C3.13347837,33.4817089 2.98286191,33.3808294 2.88602307,33.2355119 C2.78918422,33.0901944 2.75406108,32.9123507 2.78838519,32.7411292 L3.30504033,30.1588214 C3.33858776,29.9872107 3.43931828,29.8361202 3.58482835,29.7391538 C3.7303384,29.6421875 3.90856253,29.6073858 4.07986173,29.6424889 L6.66216296,30.1588214 C6.89325037,30.2044927 7.08232869,30.3701476 7.157989,30.5932233 C7.23364932,30.8162991 7.18436142,31.0628003 7.02873975,31.2396312 C6.87311809,31.4164621 6.63487855,31.4966748 6.40399671,31.4499753 L4.46694979,31.0628872 L4.07953909,32.9996115 C4.01799352,33.3070731 3.7481682,33.5284782 3.43460741,33.528813 Z"/>
      </g>
    </g>
  </g>
</svg>
