<svg xmlns="http://www.w3.org/2000/svg" xmlns:xlink="http://www.w3.org/1999/xlink" width="100" height="60" viewBox="0 0 100 60">
  <defs>
    <rect id="ic_input-a" width="100" height="60" x="0" y="0" rx="3"/>
  </defs>
  <g fill="none" fill-rule="evenodd">
    <mask id="ic_input-b" fill="#fff">
      <use xlink:href="#ic_input-a"/>
    </mask>
    <use fill="#FFF" xlink:href="#ic_input-a"/>
    <path fill="#3792FC" fill-rule="nonzero" d="M74.9745113,23.403866 C83.2245113,23.403866 97.4745113,23.403866 100.474511,15.153866 C103.474511,6.90386604 78.5309629,7.38773701 72.7245113,1.5812854 C66.9180597,-4.22516622 57.5558925,-3.59613396 48.7245113,-3.59613396 C39.8931301,-3.59613396 41.5666067,-13.3297199 34.4745113,-11.846134 C27.382416,-10.362548 33.7245113,-2.92821923 31.4745113,1.5812854 C31.4745113,4.38381957 31.4745113,11.6580131 31.4745113,23.403866 C51.2245113,23.403866 65.7245113,23.403866 74.9745113,23.403866 Z" mask="url(#ic_input-b)" opacity=".05" transform="rotate(180 65.862 5.702)"/>
    <path fill="#3792FC" fill-rule="nonzero" d="M17.2856144,59.675161 C46.7333474,49.2048559 59.8212288,72.7630423 59.8212288,59.675161 C59.8212288,46.5872797 44.1157711,40.043339 36.2630423,32.1906102 C28.4103136,24.3378814 31.8468778,11.25 19.9031907,11.25 C7.95950355,11.25 13.9767953,18.5865724 0.925762739,24.3378814 C-12.12527,30.0891903 -12.1621186,70.1454661 17.2856144,59.675161 Z" mask="url(#ic_input-b)" opacity=".05"/>
    <path fill="#3792FC" fill-rule="nonzero" d="M66.0356144,45.425161 C95.4833474,34.9548559 108.571229,58.5130423 108.571229,45.425161 C108.571229,32.3372797 92.8657711,25.793339 85.0130423,17.9406102 C77.1603136,10.0878814 80.5968778,-3 68.6531907,-3 C56.7095035,-3 62.7267953,4.33657244 49.6757627,10.0878814 C36.62473,15.8391903 23.5,0.926364402 23.5,17.9406102 C23.5,34.9548559 36.5878814,55.8954661 66.0356144,45.425161 Z" mask="url(#ic_input-b)" opacity=".05" transform="matrix(-1 0 0 1 132.071 0)"/>
    <path fill="#3792FC" fill-rule="nonzero" d="M19.2770509 25.6172581C20.3358744 25.1112028 21.4206495 24.5272927 22.3756668 23.8421716 22.7260128 23.5904415 22.3808571 23.0999571 22.012345 23.2945938 20.9924488 23.8291958 19.995909 24.5195073 19.0876045 25.2227945 18.9007533 25.3629329 19.0357014 25.731445 19.2770509 25.6172581L19.2770509 25.6172581zM88.8122953 35.9158402C88.5917071 34.763591 88.3036448 33.5646291 87.8832296 32.4668782 87.7301154 32.0646291 87.1669666 32.2722416 87.2603922 32.679681 87.5173126 33.8033834 87.9325375 34.9400616 88.3814995 35.9988852 88.4723299 36.2142831 88.8641984 36.1779509 88.8122953 35.9158402L88.8122953 35.9158402zM23.1967024 4.74397584C23.1759412 4.72580975 23.1577751 4.70764366 23.1370138 4.69207273 22.8749031 4.45850871 22.4441072 4.41439107 22.189782 4.69207273 21.9328616 4.97234954 21.940647 5.35902774 22.189782 5.63930456 22.2079481 5.66006581 22.2261142 5.6782319 22.2416851 5.69899314 22.4752491 5.96369902 22.9605432 5.95591356 23.1967024 5.69899314 23.4302664 5.44207273 23.4769792 4.99311079 23.1967024 4.74397584L23.1967024 4.74397584zM83.5064484 8.82141525C83.5722606 8.39206882 83.5597249 7.98465979 83.7979025 7.60545601 84.2773916 6.85331628 84.9574513 7.04135121 85.6155735 7.37354626 86.2862315 7.71200914 86.9192824 7.91257974 87.6463508 7.59918818 88.7839622 7.10716344 89.3198617 5.38977771 88.232393 4.58122749 87.8813945 4.31797858 87.5335299 4.75045893 87.5805386 5.08265398 87.6463508 5.54333957 87.8751267 6.05416781 87.4802533 6.44904117 86.9506216 6.9786729 86.3301063 6.53365689 85.8004746 6.29547931 85.2301019 6.03849823 84.6221223 5.98208775 84.0360801 6.22026533 83.0238254 6.63080827 82.2873552 8.00346329 83.0927715 8.93110229 83.2055925 9.05959283 83.4782431 9.00004844 83.5064484 8.82141525L83.5064484 8.82141525zM71.7650465 52.2428221C70.7245991 53.2418174 70.3308043 54.7962706 71.3215091 55.9983811 72.2541811 57.1300231 74.0656373 57.3663 75.2304409 56.4667897 78.0491828 54.2905551 75.1102299 50.2821384 72.0717919 51.1111801 71.5080435 51.2645528 71.6489806 52.0687233 72.2044386 52.0977398 73.0915132 52.1474823 74.0449112 52.1806439 74.7537419 52.8065704 75.5164603 53.473949 75.5330411 54.605591 74.9071146 55.3765998 73.2490312 57.4118973 70.3722564 54.4149114 72.113244 52.5910196 72.3370853 52.3630331 71.9971782 52.023126 71.7650465 52.2428221L71.7650465 52.2428221zM10.757268 45.6141129C11.0819614 46.8211253 11.4384183 48.0140205 11.8125215 49.2069157 11.9007534 49.4927871 12.1725076 49.5845482 12.4195569 49.415143 13.3901078 48.7551684 14.3571294 48.1093109 15.2782704 47.3787508 15.4547342 47.2375798 15.4159121 46.9552377 15.2429776 46.8352424 14.1665485 46.0976237 12.7160161 45.0070775 11.3501864 45 11.0043173 44.9964897 10.7607973 45.487059 11.1137249 45.6882277 11.6642919 46.0058626 12.3242665 46.1187994 12.9136556 46.3623194 13.5912765 46.6446615 14.2653682 46.9764134 14.8653451 47.4034558 14.8794622 47.2058163 14.8935793 47.0081769 14.9041671 46.8105374 13.8771479 47.4422778 12.9101263 48.1516622 11.9360462 48.8575174 12.1266271 48.8963394 12.3207372 48.9351615 12.5113181 48.9739835 12.0948636 47.7952054 11.6678212 46.6270151 11.2054861 45.4658834 11.1066663 45.2223633 10.6902118 45.3564758 10.757268 45.6141129L10.757268 45.6141129z" mask="url(#ic_input-b)" opacity=".05"/>
    <g mask="url(#ic_input-b)">
      <g transform="translate(30 17)">
        <path fill="#FFF" stroke="#68AEFF" d="M39,0.5 L1,0.5 C0.723857625,0.5 0.5,0.723857625 0.5,1 L0.5,9 C0.5,9.27614237 0.723857625,9.5 1,9.5 L39,9.5 C39.2761424,9.5 39.5,9.27614237 39.5,9 L39.5,1 C39.5,0.723857625 39.2761424,0.5 39,0.5 Z"/>
        <path fill="#3792FC" d="M3.9580292,2 L3.0419708,2 C3.01916058,2 3,2.10218978 3,2.22384428 L3,6.77615572 C3,6.89781022 3.01916058,7 3.0419708,7 L3.9580292,7 C3.98083942,7 4,6.89781022 4,6.77615572 L4,2.22384428 C4,2.10218978 3.98083942,2 3.9580292,2 Z"/>
        <path fill="#BCD9FA" d="M36.5310219,8 L3.4689781,8 C2.67062044,8 2,8.61313869 2,9.34306569 L2,26.6569343 C2,27.3868613 2.67062044,28 3.4689781,28 L36.5310219,28 C37.3293796,28 38,27.3868613 38,26.6569343 L38,9.34306569 C38,8.61313869 37.3293796,8 36.5310219,8 Z"/>
        <path fill="#D0E6FF" d="M33.9702857,26 L6,26 C4.8954305,26 4,25.1045695 4,24 L4,12 C4,10.8954305 4.8954305,10 6,10 L33.9957512,10 C35.1003207,10 35.9957512,10.8954305 35.9957512,12 C35.9957512,12.0014147 35.9957497,12.0028295 35.9957467,12.0042442 L35.9702812,24.0042442 C35.9679407,25.1071541 35.0731981,26 33.9702857,26 Z"/>
        <path fill="#94C5FF" d="M32.1208791 15L32.8791209 15C33.4725275 15 34 14.4725275 34 13.8791209L34 13.1208791C34 12.5274725 33.4725275 12 32.8791209 12L32.1208791 12C31.5274725 12 31 12.5274725 31 13.1208791L31 13.8791209C31 14.4725275 31.5274725 15 32.1208791 15zM32.1208791 23L32.8791209 23C33.4725275 23 34 22.4725275 34 21.8791209L34 21.1208791C34 20.5274725 33.4725275 20 32.8791209 20L32.1208791 20C31.5274725 20 31 20.5274725 31 21.1208791L31 21.8791209C31 22.4725275 31.5274725 23 32.1208791 23zM32.1208791 19L32.8791209 19C33.4725275 19 34 18.4725275 34 17.8791209L34 17.1208791C34 16.5274725 33.4725275 16 32.8791209 16L32.1208791 16C31.5274725 16 31 16.5274725 31 17.1208791L31 17.8791209C31 18.4725275 31.5274725 19 32.1208791 19zM24.1208791 15L24.8791209 15C25.4725275 15 26 14.4725275 26 13.8791209L26 13.1208791C26 12.5274725 25.4725275 12 24.8791209 12L24.1208791 12C23.5274725 12 23 12.5274725 23 13.1208791L23 13.8791209C23 14.4725275 23.5274725 15 24.1208791 15zM20.1208791 15L20.8791209 15C21.4725275 15 22 14.4725275 22 13.8791209L22 13.1208791C22 12.5274725 21.4725275 12 20.8791209 12L20.1208791 12C19.5274725 12 19 12.5274725 19 13.1208791L19 13.8791209C19 14.4725275 19.5274725 15 20.1208791 15zM20.1208791 19L20.8791209 19C21.4725275 19 22 18.4725275 22 17.8791209L22 17.1208791C22 16.5274725 21.4725275 16 20.8791209 16L20.1208791 16C19.5274725 16 19 16.5274725 19 17.1208791L19 17.8791209C19 18.4725275 19.5274725 19 20.1208791 19zM24.1208791 19L24.8791209 19C25.4725275 19 26 18.4725275 26 17.8791209L26 17.1208791C26 16.5274725 25.4725275 16 24.8791209 16L24.1208791 16C23.5274725 16 23 16.5274725 23 17.1208791L23 17.8791209C23 18.4725275 23.5274725 19 24.1208791 19zM28.1208791 15L28.8791209 15C29.4725275 15 30 14.4725275 30 13.8791209L30 13.1208791C30 12.5274725 29.4725275 12 28.8791209 12L28.1208791 12C27.5274725 12 27 12.5274725 27 13.1208791L27 13.8791209C27 14.4725275 27.5274725 15 28.1208791 15zM28.1208791 23L28.8791209 23C29.4725275 23 30 22.4725275 30 21.8791209L30 21.1208791C30 20.5274725 29.4725275 20 28.8791209 20L28.1208791 20C27.5274725 20 27 20.5274725 27 21.1208791L27 21.8791209C27 22.4725275 27.5274725 23 28.1208791 23zM28.1208791 19L28.8791209 19C29.4725275 19 30 18.4725275 30 17.8791209L30 17.1208791C30 16.5274725 29.4725275 16 28.8791209 16L28.1208791 16C27.5274725 16 27 16.5274725 27 17.1208791L27 17.8791209C27 18.4725275 27.5274725 19 28.1208791 19zM16.1208791 15L16.8791209 15C17.4725275 15 18 14.4725275 18 13.8791209L18 13.1208791C18 12.5274725 17.4725275 12 16.8791209 12L16.1208791 12C15.5274725 12 15 12.5274725 15 13.1208791L15 13.8791209C15 14.4725275 15.5274725 15 16.1208791 15zM8.12087912 15L8.87912088 15C9.47252747 15 10 14.4725275 10 13.8791209L10 13.1208791C10 12.5274725 9.47252747 12 8.87912088 12L8.12087912 12C7.52747253 12 7 12.5274725 7 13.1208791L7 13.8791209C7 14.4725275 7.52747253 15 8.12087912 15zM8.12087912 23L8.87912088 23C9.47252747 23 10 22.4725275 10 21.8791209L10 21.1208791C10 20.5274725 9.47252747 20 8.87912088 20L8.12087912 20C7.52747253 20 7 20.5274725 7 21.1208791L7 21.8791209C7 22.4725275 7.52747253 23 8.12087912 23zM8.12087912 19L8.87912088 19C9.47252747 19 10 18.4725275 10 17.8791209L10 17.1208791C10 16.5274725 9.47252747 16 8.87912088 16L8.12087912 16C7.52747253 16 7 16.5274725 7 17.1208791L7 17.8791209C7 18.4725275 7.52747253 19 8.12087912 19zM12.1208791 15L12.8791209 15C13.4725275 15 14 14.4725275 14 13.8791209L14 13.1208791C14 12.5274725 13.4725275 12 12.8791209 12L12.1208791 12C11.5274725 12 11 12.5274725 11 13.1208791L11 13.8791209C11 14.4725275 11.5274725 15 12.1208791 15z"/>
        <path fill="#68AEFF" d="M12.0559006,23 L24.9440994,23 C25.5031056,23 26,22.4725275 26,21.8791209 L26,21.1208791 C26,20.5274725 25.5031056,20 24.9440994,20 L12.0559006,20 C11.4968944,20 11,20.5274725 11,21.1208791 L11,21.8791209 C11,22.4725275 11.4968944,23 12.0559006,23 Z"/>
        <path fill="#94C5FF" d="M16.1208791 19L16.8791209 19C17.4725275 19 18 18.4725275 18 17.8791209L18 17.1208791C18 16.5274725 17.4725275 16 16.8791209 16L16.1208791 16C15.5274725 16 15 16.5274725 15 17.1208791L15 17.8791209C15 18.4725275 15.5274725 19 16.1208791 19zM12.1208791 19L12.8791209 19C13.4725275 19 14 18.4725275 14 17.8791209L14 17.1208791C14 16.5274725 13.4725275 16 12.8791209 16L12.1208791 16C11.5274725 16 11 16.5274725 11 17.1208791L11 17.8791209C11 18.4725275 11.5274725 19 12.1208791 19z"/>
      </g>
    </g>
  </g>
</svg>
