<svg xmlns="http://www.w3.org/2000/svg" width="25" height="20" viewBox="0 0 25 20">
    <g fill="none" fill-rule="evenodd">
        <path fill="#CCE4FF" fill-rule="nonzero" d="M0 1.04V18.1c0 .511.415.926.926.926.036 0 .072-.002.108-.007L12.5 17.676V1.465L1.034.12C.526.061.066.425.006.933.002.969 0 1.005 0 1.041z"/>
        <path fill="#CCE4FF" fill-rule="nonzero" d="M23.977.107L11.035 1.465v16.21l12.942 1.358c.51.054.965-.315 1.018-.824.003-.032.005-.064.005-.097V1.028c0-.511-.415-.926-.926-.926-.032 0-.064.002-.097.005z"/>
        <path fill="#9FCBFF" fill-rule="nonzero" d="M25 18.408c0-.978-.38-1.898-1.073-2.59L15.09 6.982c-.692-.692-1.612-1.073-2.59-1.073l-2.93 6.616 2.93 6.617h11.768c.404 0 .732-.328.732-.733z"/>
        <path fill="#9FCBFF" fill-rule="nonzero" d="M9.91 6.98L1.073 15.82C.38 16.51 0 17.43 0 18.409c0 .404.328.732.732.732H12.5V5.908c-.978 0-1.898.381-2.59 1.073z"/>
        <path fill="#58A5FF" fill-rule="nonzero" d="M12.5 0L9.57 6.616l2.93 6.616c.978 0 1.898-.38 2.59-1.072l8.837-8.838C24.62 2.63 25 1.71 25 .732 25 .328 24.672 0 24.268 0H12.5z"/>
        <path fill="#58A5FF" fill-rule="nonzero" d="M0 .732c0 .979.38 1.898 1.073 2.59L9.91 12.16c.692.692 1.612 1.072 2.59 1.072V0H.732C.328 0 0 .328 0 .732z"/>
        <text fill="#FFF" font-family="Rubik-Medium, Rubik" font-size="6.019" font-weight="400">
            <tspan x="10.185" y="9.704">@</tspan>
        </text>
    </g>
</svg>
