<svg xmlns="http://www.w3.org/2000/svg" width="172" height="112" viewBox="0 0 172 112">
    <g fill="none" fill-rule="evenodd">
        <rect width="172" height="112" fill="#3993FC" opacity=".185" rx="4"/>
        <path fill="#EFF5FF" fill-rule="nonzero" d="M98.333 21.97C105.88 17.968 109.77 10.645 110 0H-15v61.791C-11.667 67.627-3.75 69 8.333 69c12.084 0 28.75-1.716 37.083-17.507C53.75 35.7 50.884 31.65 62.083 25.403c11.199-6.248 24.927 2.57 36.25-3.433z" opacity=".651"/>
        <path fill="#EFF5FF" fill-rule="nonzero" d="M171.647 50.745c4.139 4.483 4.653 8.54 5.135 13.089.283 2.674.29 21.023.022 55.048-.012 1.505-1.235 2.718-2.74 2.718h-32.81c2.723-6.443-23.48-29.492-24.206-46.455-.726-16.964 6.795-27.451 20.809-32.942 14.014-5.49 25.905 0 33.79 8.542z" opacity=".582"/>
        <text fill="#19487F" font-family="WorkSans-Medium, Work Sans" font-size="14" font-weight="400">
            <tspan x="20" y="25">Free periodic </tspan> <tspan x="20" y="46">health </tspan> <tspan x="20" y="67">checkups</tspan>
        </text>
        <g fill-rule="nonzero">
            <path fill="#CBE2FF" d="M15.217 3.048c-1.235 0-2.39-.59-3.137-1.577C11.604.843 10.85.435 10 .435c-.85 0-1.604.407-2.08 1.036-.747.987-1.902 1.577-3.137 1.577V4.79c0 .482.389.871.87.871h8.695c.48 0 .87-.39.87-.87V3.047z" transform="translate(132 75)"/>
            <path fill="#3792FC" d="M1.304 27h17.391c.72 0 1.305-.587 1.305-1.307V3.92c0-.72-.586-1.306-1.305-1.306h-3.478c-1.082 0-2.125-.525-2.79-1.405C11.845.44 10.96 0 10 0c-.961 0-1.846.44-2.427 1.208-.666.88-1.709 1.405-2.79 1.405H1.304C.585 2.613 0 3.199 0 3.919v21.775C0 26.414.585 27 1.304 27zM5.217 3.46c1.193-.123 2.31-.75 3.05-1.726C8.68 1.185 9.312.87 10 .87s1.318.315 1.733.864c.74.977 1.857 1.603 3.05 1.726V4.79c0 .24-.195.435-.435.435H5.652c-.24 0-.435-.195-.435-.435V3.46z" transform="translate(132 75)"/>
            <path fill="#CBE2FF" d="M5.652 6.096h8.696c.566 0 1.044-.365 1.224-.87h1.82v19.16H2.608V5.227h1.819c.18.505.658.87 1.224.87z" transform="translate(132 75)"/>
            <path fill="#CBE2FF" d="M.87 3.92c0-.241.194-.436.434-.436h3.044v.87H2.174c-.24 0-.435.196-.435.436v20.033c0 .24.194.435.435.435h15.652c.24 0 .435-.195.435-.435V4.79c0-.24-.194-.435-.435-.435h-2.174v-.871h3.044c.24 0 .434.195.434.435v21.775c0 .24-.194.435-.434.435H1.304c-.24 0-.434-.195-.434-.435V3.919z" transform="translate(132 75)"/>
            <path fill="#3792FC" d="M6.869 8.242c-.08-.11-.202-.186-.347-.186H3.913c-.24 0-.435.195-.435.436v2.613c0 .24.195.435.435.435h2.609c.24 0 .435-.194.435-.435v-1.79l1.587-1.363-.566-.661-1.11.951zm-2.521.685H6.07l-.714.613-.185-.372-.778.39.435.87c.06.12.171.206.302.233.028.005.056.008.084.008h-.867V8.927zm1.739 1.742h-.868c.102 0 .202-.037.281-.105l.587-.503v.608zM7.978 11.645l-1.11.952c-.078-.11-.201-.186-.346-.186H3.913c-.24 0-.435.195-.435.436v2.613c0 .24.195.435.435.435h2.609c.24 0 .435-.194.435-.435v-1.79l1.587-1.363-.566-.662zm-3.63 1.637H6.07l-.714.613-.185-.372-.778.39.435.87c.06.12.171.206.302.232.028.006.056.009.084.01h-.867v-1.743zm1.739 1.742h-.868c.102 0 .202-.037.281-.105l.587-.504v.609zM10.87 13.881L16.087 13.881 16.087 14.752 10.87 14.752zM10.87 15.623L15.217 15.623 15.217 16.494 10.87 16.494zM10.87 17.964L16.087 17.964 16.087 18.835 10.87 18.835zM12.609 19.706L16.087 19.706 16.087 20.577 12.609 20.577zM10.87 19.706L11.739 19.706 11.739 20.577 10.87 20.577zM10.87 21.448L14.348 21.448 14.348 22.319 10.87 22.319zM15.217 21.448L16.087 21.448 16.087 22.319 15.217 22.319zM8.696 3.484L9.565 3.484 9.565 4.354 10.434 4.354 10.434 3.483 11.304 3.483 11.304 2.613 10.434 2.613 10.434 1.742 9.565 1.742 9.565 2.613 8.695 2.613z" transform="translate(132 75)"/>
        </g>
    </g>
</svg>
