<svg xmlns="http://www.w3.org/2000/svg" xmlns:xlink="http://www.w3.org/1999/xlink" width="126" height="96" viewBox="0 0 126 96">
    <defs>
        <path id="prefix__a" d="M1.55 8.001c-.838 0-1.525-.687-1.525-1.528V2.127c0-.84.687-1.528 1.526-1.528h26.83c.839 0 1.525.687 1.525 1.528v4.346c0 .84-.686 1.528-1.525 1.528H1.55z"/>
        <path id="prefix__d" d="M1.51 6.646h27.005c.791 0 1.439-.648 1.439-1.44v-3.7c0-.792-.648-1.44-1.44-1.44H1.512C.72.066.073.714.073 1.506v3.7c0 .792.647 1.44 1.438 1.44"/>
        <path id="prefix__e" d="M1.483 6.626h27.005c.79 0 1.438-.648 1.438-1.44v-3.7c0-.792-.647-1.44-1.438-1.44H1.483C.692.046.045.694.045 1.486v3.7c0 .792.647 1.44 1.438 1.44"/>
        <path id="prefix__f" d="M1.505 6.592H28.51c.79 0 1.438-.648 1.438-1.44v-3.7c0-.793-.647-1.44-1.438-1.44H1.505C.714.012.067.659.067 1.452v3.7c0 .792.647 1.44 1.438 1.44"/>
        <path id="prefix__g" d="M1.496 6.652H28.5c.792 0 1.438-.649 1.438-1.44v-3.7c0-.793-.646-1.44-1.438-1.44H1.496C.706.071.058.718.058 1.511v3.7c0 .791.647 1.44 1.438 1.44"/>
        <path id="prefix__h" d="M52.54 84.043H24.793V60.14c0-2.061-1.668-3.732-3.726-3.732H6.107L.043 1.912C-.064.903.724.024 1.737.024H43.57c.871 0 1.602.657 1.694 1.524l8.97 80.607c.107 1.008-.682 1.888-1.694 1.888"/>
        <path id="prefix__k" d="M3.707 7.442C1.67 7.442.018 5.788.018 3.748.018 1.707 1.67.053 3.708.053c.973 0 1.857.377 2.517.995-.72.674-1.171 1.634-1.171 2.7 0 1.065.45 2.025 1.171 2.7-.66.617-1.544.994-2.518.994z"/>
        <path id="prefix__m" d="M15.32 0.022L33.455 6.8 0.031 6.8 15.32 0.022"/>
        <linearGradient id="prefix__c" x1="-71.21%" x2="240.718%" y1="-27.39%" y2="171.766%">
            <stop offset="0%" stop-color="#F9EA90"/>
            <stop offset="100%" stop-color="#FFE662"/>
        </linearGradient>
        <linearGradient id="prefix__i" x1="80.403%" x2="10.91%" y1="-3.6%" y2="118.915%">
            <stop offset="0%" stop-color="#EEF6FF"/>
            <stop offset="100%" stop-color="#94C5FF"/>
        </linearGradient>
        <linearGradient id="prefix__n" x1="56.94%" x2="46.234%" y1="44.458%" y2="56.18%">
            <stop offset="0%" stop-color="#1C46AB"/>
            <stop offset="100%" stop-color="#4687D6"/>
        </linearGradient>
    </defs>
    <g fill="none" fill-rule="evenodd">
        <g transform="translate(1) translate(92.996 85.942)">
            <mask id="prefix__b" fill="#fff">
                <use xlink:href="#prefix__a"/>
            </mask>
            <path fill="#FFE065" fill-opacity=".64" d="M1.464 7.59h27.004c.79 0 1.438-.648 1.438-1.44v-3.7c0-.792-.647-1.44-1.438-1.44H1.464c-.792 0-1.44.648-1.44 1.44v3.7c0 .792.648 1.44 1.44 1.44" mask="url(#prefix__b)"/>
        </g>
        <g opacity=".582">
            <path fill="#FD9" d="M53.364 51.071c.28 0 .51-.23.51-.51v-4.66c0-.28-.23-.51-.51-.51s-.51.23-.51.51v4.66c0 .28.23.51.51.51M51.586 51.071c.28 0 .51-.23.51-.51v-4.66c0-.28-.23-.51-.51-.51s-.51.23-.51.51v4.66c0 .28.23.51.51.51M49.809 51.071c.28 0 .509-.23.509-.51v-4.66c0-.28-.23-.51-.51-.51s-.509.23-.509.51v4.66c0 .28.23.51.51.51M48.031 51.071c.28 0 .51-.23.51-.51v-4.66c0-.28-.23-.51-.51-.51s-.51.23-.51.51v4.66c0 .28.23.51.51.51M46.253 51.071c.28 0 .51-.23.51-.51v-4.66c0-.28-.23-.51-.51-.51s-.51.23-.51.51v4.66c0 .28.23.51.51.51M44.476 51.071c.28 0 .509-.23.509-.51v-4.66c0-.28-.23-.51-.51-.51s-.509.23-.509.51v4.66c0 .28.23.51.51.51M42.697 51.071c.281 0 .51-.23.51-.51v-4.66c0-.28-.229-.51-.51-.51-.28 0-.508.23-.508.51v4.66c0 .28.228.51.508.51M40.92 51.071c.28 0 .51-.23.51-.51v-4.66c0-.28-.23-.51-.51-.51s-.51.23-.51.51v4.66c0 .28.23.51.51.51M39.143 51.071c.28 0 .509-.23.509-.51v-4.66c0-.28-.23-.51-.51-.51s-.509.23-.509.51v4.66c0 .28.23.51.51.51M37.364 51.071c.281 0 .51-.23.51-.51v-4.66c0-.28-.229-.51-.51-.51-.28 0-.509.23-.509.51v4.66c0 .28.23.51.51.51M35.587 51.071c.28 0 .51-.23.51-.51v-4.66c0-.28-.23-.51-.51-.51s-.51.23-.51.51v4.66c0 .28.23.51.51.51M33.81 51.071c.28 0 .51-.23.51-.51v-4.66c0-.28-.23-.51-.51-.51-.281 0-.51.23-.51.51v4.66c0 .28.229.51.51.51M32.032 51.071c.28 0 .509-.23.509-.51v-4.66c0-.28-.229-.51-.51-.51-.28 0-.509.23-.509.51v4.66c0 .28.23.51.51.51M30.254 51.071c.28 0 .51-.23.51-.51v-4.66c0-.28-.23-.51-.51-.51s-.51.23-.51.51v4.66c0 .28.23.51.51.51M28.477 51.071c.28 0 .508-.23.508-.51v-4.66c0-.28-.228-.51-.508-.51-.281 0-.51.23-.51.51v4.66c0 .28.229.51.51.51M26.699 51.071c.28 0 .509-.23.509-.51v-4.66c0-.28-.23-.51-.51-.51s-.509.23-.509.51v4.66c0 .28.23.51.51.51" transform="translate(1) translate(68.01 42.012)"/>
            <path fill="#FFD840" d="M27.976 44.793h26.83c.84 0 1.526-.688 1.526-1.528v-4.347c0-.84-.687-1.528-1.526-1.528h-26.83c-.84 0-1.525.688-1.525 1.528v4.347c0 .84.686 1.528 1.525 1.528" transform="translate(1) translate(68.01 42.012)"/>
            <path fill="#FFE065" fill-opacity=".64" d="M27.889 44.382h27.004c.792 0 1.439-.648 1.439-1.44v-3.7c0-.792-.647-1.44-1.439-1.44H27.89c-.791 0-1.438.648-1.438 1.44v3.7c0 .792.647 1.44 1.438 1.44" transform="translate(1) translate(68.01 42.012)"/>
            <path fill="#FFC34E" d="M54.804 43.932c.28 0 .509-.229.509-.51v-4.66c0-.28-.23-.51-.51-.51s-.509.23-.509.51v4.66c0 .281.23.51.51.51M53.025 43.932c.281 0 .51-.229.51-.51v-4.66c0-.28-.229-.51-.51-.51-.28 0-.508.23-.508.51v4.66c0 .281.229.51.508.51M51.248 43.932c.28 0 .51-.229.51-.51v-4.66c0-.28-.23-.51-.51-.51s-.51.23-.51.51v4.66c0 .281.23.51.51.51M49.47 43.932c.28 0 .51-.229.51-.51v-4.66c0-.28-.23-.51-.51-.51s-.509.23-.509.51v4.66c0 .281.229.51.51.51M47.693 43.932c.28 0 .509-.229.509-.51v-4.66c0-.28-.229-.51-.51-.51-.28 0-.509.23-.509.51v4.66c0 .281.23.51.51.51M45.915 43.932c.28 0 .51-.229.51-.51v-4.66c0-.28-.23-.51-.51-.51s-.51.23-.51.51v4.66c0 .281.23.51.51.51M44.138 43.932c.28 0 .51-.229.51-.51v-4.66c0-.28-.23-.51-.51-.51-.281 0-.51.23-.51.51v4.66c0 .281.229.51.51.51M42.36 43.932c.28 0 .509-.229.509-.51v-4.66c0-.28-.23-.51-.51-.51s-.509.23-.509.51v4.66c0 .281.23.51.51.51M40.582 43.932c.28 0 .51-.229.51-.51v-4.66c0-.28-.23-.51-.51-.51s-.51.23-.51.51v4.66c0 .281.23.51.51.51M38.805 43.932c.28 0 .508-.229.508-.51v-4.66c0-.28-.228-.51-.508-.51-.281 0-.51.23-.51.51v4.66c0 .281.229.51.51.51M26.702 37.871h26.83c.84 0 1.526-.687 1.526-1.528v-4.347c0-.84-.687-1.527-1.525-1.527h-26.83c-.84 0-1.526.688-1.526 1.527v4.347c0 .841.686 1.528 1.525 1.528" transform="translate(1) translate(68.01 42.012)"/>
            <path fill="#FFE065" fill-opacity=".64" d="M26.615 37.46H53.62c.79 0 1.438-.648 1.438-1.44v-3.7c0-.792-.647-1.44-1.438-1.44H26.615c-.79 0-1.438.648-1.438 1.44v3.7c0 .792.647 1.44 1.438 1.44" transform="translate(1) translate(68.01 42.012)"/>
            <path fill="#FFC34E" d="M53.53 37.012c.28 0 .51-.23.51-.51V31.84c0-.28-.23-.51-.51-.51s-.51.23-.51.51v4.66c0 .28.23.51.51.51M51.752 37.012c.28 0 .509-.23.509-.51V31.84c0-.28-.229-.51-.509-.51s-.509.23-.509.51v4.66c0 .28.229.51.51.51M49.974 37.012c.28 0 .51-.23.51-.51V31.84c0-.28-.23-.51-.51-.51s-.51.23-.51.51v4.66c0 .28.23.51.51.51M48.197 37.012c.28 0 .51-.23.51-.51V31.84c0-.28-.23-.51-.51-.51s-.51.23-.51.51v4.66c0 .28.23.51.51.51M46.419 37.012c.28 0 .51-.23.51-.51V31.84c0-.28-.23-.51-.51-.51s-.509.23-.509.51v4.66c0 .28.229.51.509.51M44.641 37.012c.28 0 .51-.23.51-.51V31.84c0-.28-.23-.51-.51-.51s-.51.23-.51.51v4.66c0 .28.23.51.51.51M6.348 15.078h26.83c.84 0 1.526-.688 1.526-1.528V9.204c0-.841-.687-1.528-1.525-1.528H6.349c-.84 0-1.526.687-1.526 1.528v4.346c0 .84.686 1.528 1.525 1.528" transform="translate(1) translate(68.01 42.012)"/>
            <path fill="#FFE065" fill-opacity=".64" d="M6.26 14.667h27.006c.79 0 1.438-.648 1.438-1.44v-3.7c0-.793-.647-1.44-1.438-1.44H6.26c-.791 0-1.438.647-1.438 1.44v3.7c0 .792.647 1.44 1.438 1.44" transform="translate(1) translate(68.01 42.012)"/>
            <path fill="#FFC34E" d="M33.176 14.218c.28 0 .51-.23.51-.51v-4.66c0-.281-.23-.511-.51-.511s-.51.23-.51.51v4.66c0 .281.23.51.51.51M31.398 14.218c.28 0 .51-.23.51-.51v-4.66c0-.281-.23-.511-.51-.511s-.51.23-.51.51v4.66c0 .281.23.51.51.51M29.62 14.218c.28 0 .51-.23.51-.51v-4.66c0-.281-.23-.511-.51-.511s-.509.23-.509.51v4.66c0 .281.23.51.51.51M27.843 14.218c.28 0 .51-.23.51-.51v-4.66c0-.281-.23-.511-.51-.511s-.51.23-.51.51v4.66c0 .281.23.51.51.51M26.065 14.218c.28 0 .51-.23.51-.51v-4.66c0-.281-.23-.511-.51-.511s-.51.23-.51.51v4.66c0 .281.23.51.51.51M24.287 14.218c.28 0 .51-.23.51-.51v-4.66c0-.281-.23-.511-.51-.511s-.51.23-.51.51v4.66c0 .281.23.51.51.51M22.51 14.218c.28 0 .51-.23.51-.51v-4.66c0-.281-.23-.511-.51-.511s-.51.23-.51.51v4.66c0 .281.23.51.51.51M2.455 7.943h26.83c.839 0 1.525-.687 1.525-1.528V2.068c0-.84-.686-1.527-1.526-1.527H2.454C1.616.54.93 1.228.93 2.068v4.347c0 .84.686 1.528 1.526 1.528" transform="translate(1) translate(68.01 42.012)"/>
            <path fill="#FFE065" fill-opacity=".64" d="M2.367 7.532h27.005c.791 0 1.438-.648 1.438-1.44v-3.7c0-.792-.647-1.44-1.438-1.44H2.367C1.577.952.93 1.6.93 2.392v3.7c0 .792.648 1.44 1.438 1.44" transform="translate(1) translate(68.01 42.012)"/>
            <path fill="#FFC34E" d="M29.282 7.083c.28 0 .51-.23.51-.51v-4.66c0-.28-.23-.51-.51-.51s-.51.23-.51.51v4.66c0 .28.23.51.51.51M27.504 7.083c.28 0 .51-.23.51-.51v-4.66c0-.28-.23-.51-.51-.51s-.509.23-.509.51v4.66c0 .28.23.51.51.51M25.727 7.083c.28 0 .51-.23.51-.51v-4.66c0-.28-.23-.51-.51-.51s-.51.23-.51.51v4.66c0 .28.23.51.51.51M23.95 7.083c.28 0 .509-.23.509-.51v-4.66c0-.28-.23-.51-.51-.51s-.51.23-.51.51v4.66c0 .28.23.51.51.51M22.171 7.083c.28 0 .51-.23.51-.51v-4.66c0-.28-.23-.51-.51-.51s-.51.23-.51.51v4.66c0 .28.23.51.51.51" transform="translate(1) translate(68.01 42.012)"/>
            <path fill="#FFCD6B" d="M10.799 29.373c0 9.437 7.636 17.086 17.057 17.086s17.058-7.649 17.058-17.086c0-9.436-7.637-17.085-17.058-17.085-9.42 0-17.057 7.65-17.057 17.085" transform="translate(1) translate(68.01 42.012)"/>
            <path fill="#FFE065" fill-opacity=".64" d="M27.856 45.638c8.968 0 16.238-7.281 16.238-16.265 0-8.982-7.27-16.264-16.238-16.264s-16.237 7.282-16.237 16.264c0 8.984 7.27 16.265 16.237 16.265z" transform="translate(1) translate(68.01 42.012)"/>
            <path fill="#FFC34E" d="M14.407 29.373c0 7.441 6.021 13.472 13.449 13.472s13.45-6.031 13.45-13.472c0-7.44-6.022-13.47-13.45-13.47-7.428 0-13.45 6.03-13.45 13.47" transform="translate(1) translate(68.01 42.012)"/>
            <path fill="url(#prefix__c)" d="M14.735 29.784c0 7.305 5.91 13.226 13.203 13.226 7.292 0 13.203-5.921 13.203-13.226 0-7.304-5.91-13.225-13.203-13.225-7.292 0-13.203 5.921-13.203 13.225" transform="translate(1) translate(68.01 42.012)"/>
            <text fill="#FFC34E" font-family="PingFangTC-Medium, PingFang TC" font-size="23" font-weight="400" transform="translate(1) translate(68.01 42.012)">
                <tspan x="22.99" y="38.988">₹</tspan>
            </text>
        </g>
        <g transform="translate(1) translate(94.389 79.747)"/>
        <g transform="translate(1) translate(93.142 72.846)"/>
        <path fill="#FFC34E" d="M91.334 63.632c.28 0 .51-.23.51-.51v-4.66c0-.28-.23-.51-.51-.51s-.51.23-.51.51v4.66c0 .28.23.51.51.51M89.556 63.632c.28 0 .51-.23.51-.51v-4.66c0-.28-.23-.51-.51-.51s-.509.23-.509.51v4.66c0 .28.23.51.51.51M87.779 63.632c.28 0 .51-.23.51-.51v-4.66c0-.28-.23-.51-.51-.51s-.51.23-.51.51v4.66c0 .28.23.51.51.51M86.001 63.632c.28 0 .51-.23.51-.51v-4.66c0-.28-.23-.51-.51-.51s-.51.23-.51.51v4.66c0 .28.23.51.51.51M84.223 63.632c.28 0 .51-.23.51-.51v-4.66c0-.28-.23-.51-.51-.51s-.51.23-.51.51v4.66c0 .28.23.51.51.51M82.446 63.632c.28 0 .51-.23.51-.51v-4.66c0-.28-.23-.51-.51-.51s-.51.23-.51.51v4.66c0 .28.23.51.51.51M80.668 63.632c.28 0 .509-.23.509-.51v-4.66c0-.28-.229-.51-.509-.51s-.509.23-.509.51v4.66c0 .28.229.51.51.51M78.89 63.632c.28 0 .51-.23.51-.51v-4.66c0-.28-.23-.51-.51-.51s-.51.23-.51.51v4.66c0 .28.23.51.51.51M77.113 63.632c.28 0 .51-.23.51-.51v-4.66c0-.28-.23-.51-.51-.51s-.51.23-.51.51v4.66c0 .28.23.51.51.51M75.335 63.632c.28 0 .51-.23.51-.51v-4.66c0-.28-.23-.51-.51-.51s-.509.23-.509.51v4.66c0 .28.229.51.509.51M73.557 63.632c.28 0 .51-.23.51-.51v-4.66c0-.28-.23-.51-.51-.51s-.51.23-.51.51v4.66c0 .28.23.51.51.51" transform="translate(1)"/>
        <g transform="translate(1) translate(72.766 50.087)"/>
        <path fill="#FFC34E" d="M88.743 56.23c.28 0 .509-.23.509-.51v-4.661c0-.28-.23-.51-.51-.51s-.509.23-.509.51v4.66c0 .28.229.51.51.51M86.964 56.23c.281 0 .51-.23.51-.51v-4.661c0-.28-.229-.51-.51-.51-.28 0-.509.23-.509.51v4.66c0 .28.23.51.51.51M85.187 56.23c.28 0 .51-.23.51-.51v-4.661c0-.28-.23-.51-.51-.51s-.51.23-.51.51v4.66c0 .28.23.51.51.51M83.41 56.23c.28 0 .508-.23.508-.51v-4.661c0-.28-.228-.51-.508-.51-.281 0-.51.23-.51.51v4.66c0 .28.229.51.51.51M81.631 56.23c.28 0 .51-.23.51-.51v-4.661c0-.28-.23-.51-.51-.51s-.509.23-.509.51v4.66c0 .28.23.51.51.51M79.854 56.23c.28 0 .51-.23.51-.51v-4.661c0-.28-.23-.51-.51-.51s-.51.23-.51.51v4.66c0 .28.23.51.51.51M78.076 56.23c.28 0 .51-.23.51-.51v-4.661c0-.28-.23-.51-.51-.51s-.509.23-.509.51v4.66c0 .28.229.51.509.51M76.298 56.23c.28 0 .51-.23.51-.51v-4.661c0-.28-.23-.51-.51-.51s-.509.23-.509.51v4.66c0 .28.23.51.51.51M74.521 56.23c.28 0 .51-.23.51-.51v-4.661c0-.28-.23-.51-.51-.51s-.51.23-.51.51v4.66c0 .28.23.51.51.51" transform="translate(1)"/>
        <g transform="translate(1) translate(68.882 42.892)"/>
        <path fill="#FFC34E" d="M88.404 49.094c.28 0 .51-.229.51-.51v-4.66c0-.28-.23-.51-.51-.51s-.51.23-.51.51v4.66c0 .281.23.51.51.51M86.627 49.094c.28 0 .508-.229.508-.51v-4.66c0-.28-.228-.51-.508-.51-.281 0-.51.23-.51.51v4.66c0 .281.229.51.51.51M84.848 49.094c.28 0 .51-.229.51-.51v-4.66c0-.28-.23-.51-.51-.51s-.509.23-.509.51v4.66c0 .281.23.51.51.51M83.071 49.094c.28 0 .51-.229.51-.51v-4.66c0-.28-.23-.51-.51-.51s-.51.23-.51.51v4.66c0 .281.23.51.51.51M81.293 49.094c.28 0 .51-.229.51-.51v-4.66c0-.28-.23-.51-.51-.51s-.509.23-.509.51v4.66c0 .281.229.51.509.51M79.515 49.094c.28 0 .51-.229.51-.51v-4.66c0-.28-.23-.51-.51-.51s-.509.23-.509.51v4.66c0 .281.23.51.51.51M77.738 49.094c.28 0 .51-.229.51-.51v-4.66c0-.28-.23-.51-.51-.51s-.51.23-.51.51v4.66c0 .281.23.51.51.51M75.96 49.094c.28 0 .51-.229.51-.51v-4.66c0-.28-.23-.51-.51-.51s-.509.23-.509.51v4.66c0 .281.229.51.509.51M74.182 49.094c.28 0 .51-.229.51-.51v-4.66c0-.28-.23-.51-.51-.51s-.509.23-.509.51v4.66c0 .281.23.51.51.51M72.405 49.094c.28 0 .51-.229.51-.51v-4.66c0-.28-.23-.51-.51-.51s-.51.23-.51.51v4.66c0 .281.23.51.51.51M70.627 49.094c.28 0 .51-.229.51-.51v-4.66c0-.28-.23-.51-.51-.51s-.51.23-.51.51v4.66c0 .281.23.51.51.51" transform="translate(1)"/>
        <path fill="#94C5FF" d="M91.712 94.196h-50c-1.003 0-1.843-.757-1.95-1.756L30.213 3.048c-.124-1.161.785-2.174 1.95-2.174h50c1.003 0 1.844.757 1.951 1.756l9.548 89.392c.124 1.161-.784 2.174-1.95 2.174" transform="translate(1)"/>
        <g transform="translate(1) translate(36.119 4.349)">
            <mask id="prefix__j" fill="#fff">
                <use xlink:href="#prefix__h"/>
            </mask>
            <path fill="url(#prefix__i)" d="M52.54 84.043H24.793V60.14c0-2.061-1.668-3.732-3.726-3.732H6.107L.043 1.912C-.064.903.724.024 1.737.024H43.57c.871 0 1.602.657 1.694 1.524l8.97 80.607c.107 1.008-.682 1.888-1.694 1.888" mask="url(#prefix__j)"/>
        </g>
        <path fill="#94C5FF" d="M41.998 94.196h-1.764c-.667 0-1.228-.503-1.301-1.169l-9.927-90.56c-.094-.85.571-1.593 1.425-1.593h1.513c.731 0 1.346.551 1.425 1.28L43.3 92.74c.085.777-.522 1.455-1.301 1.455" transform="translate(1)"/>
        <path fill="#0F2D5C" d="M76.546 91.625H67.64c-.272 0-.495-.223-.495-.495 0-.273.223-.496.495-.496h8.905c.272 0 .494.223.494.496 0 .272-.222.495-.494.495M66.385 3.277c-.35 0-.636-.286-.636-.636 0-.35.286-.636.636-.636.348 0 .634.286.634.636 0 .35-.286.636-.634.636M68.877 3.277c-.35 0-.636-.286-.636-.636 0-.35.286-.636.636-.636.348 0 .634.286.634.636 0 .35-.286.636-.634.636M62.427 3.277h-6.842c-.349 0-.634-.286-.634-.636 0-.35.285-.636.634-.636h6.842c.349 0 .634.286.634.636 0 .35-.285.636-.634.636" transform="translate(1)"/>
        <path fill="#2A66C6" d="M57.213 64.852H82.23l-5.536-45.297c-.067-.553-.57-1.001-1.122-1.001H45.94c-.552 0-.945.448-.878 1l4.726 38.672c.447 3.659 3.771 6.626 7.425 6.626" transform="translate(1)"/>
        <path fill="#FFF" d="M57.79 63.57h23.927l-5.29-43.282c-.063-.525-.54-.951-1.065-.951H47.05c-.524 0-.897.426-.833.95l4.52 36.988c.425 3.476 3.583 6.295 7.054 6.295" transform="translate(1)"/>
        <path fill="#2A66C6" d="M62.829 54.494l-.097-.798c-.077-.63.3-1.14.843-1.14h30.298c.542 0 1.044.51 1.12 1.14l.098.798c.692 5.655-2.702 10.238-7.58 10.238H56.557c4.877 0 7.094-4.068 6.273-10.238" transform="translate(1)"/>
        <path fill="#FFF" d="M63.671 55.286l-.079-.645c-.062-.509.3-.921.808-.921h28.37c.508 0 .97.412 1.033.92l.079.646c.559 4.575-2.69 8.284-7.257 8.284h-30.21c4.566 0 7.998-2.214 7.256-8.284" transform="translate(1)"/>
        <path fill="#2455A3" d="M54.278 42.812h21.43c.305 0 .523-.25.486-.555-.038-.305-.317-.554-.622-.554h-21.43c-.305 0-.523.25-.486.554.037.305.317.555.622.555M54.525 44.835h21.43c.305 0 .523-.25.486-.555-.037-.304-.317-.554-.621-.554H54.39c-.305 0-.524.25-.487.554.037.305.317.555.622.555M54.764 46.788h21.43c.305 0 .523-.25.486-.555-.038-.304-.317-.554-.622-.554h-21.43c-.305 0-.523.25-.486.554.037.306.317.555.622.555M63.002 35.45H51.048c-.234 0-.447-.19-.475-.423l-1.464-11.974c-.029-.235.138-.425.372-.425h11.954c.234 0 .447.19.476.425l1.463 11.974c.029.234-.138.424-.372.424" transform="translate(1)"/>
        <path fill="#FFF" d="M62.555 35.027H51.392c-.22 0-.418-.178-.444-.397L49.58 23.45c-.026-.219.129-.396.347-.396h11.163c.219 0 .418.177.444.396l1.367 11.181c.027.22-.129.397-.347.397" transform="translate(1)"/>
        <path fill="#2455A3" d="M53.433 26.74h-4.042c-.189 0-.361-.153-.384-.342l-.495-4.05c-.023-.189.11-.342.3-.342h4.043c.19 0 .36.153.384.343l.495 4.05c.023.188-.112.342-.3.342" transform="translate(1)"/>
        <path fill="#FFF" d="M52.7 26.087h-2.736c-.189 0-.361-.154-.384-.343l-.335-2.741c-.023-.19.11-.343.3-.343h2.737c.189 0 .36.154.384.343L53 25.744c.023.19-.112.343-.3.343" transform="translate(1)"/>
        <path fill="#2455A3" d="M52.055 25.51h-1.587c-.188 0-.36-.153-.384-.342l-.193-1.589c-.024-.19.11-.343.3-.343h1.586c.189 0 .36.154.384.343l.194 1.589c.023.189-.111.342-.3.342M53.724 35.45h-2.966c-.139 0-.265-.112-.282-.25l-.363-2.972c-.017-.139.081-.252.22-.252H53.3c.138 0 .264.113.281.252l.364 2.971c.017.14-.081.252-.22.252" transform="translate(1)"/>
        <path fill="#FFF" d="M53.187 34.97h-2.008c-.139 0-.266-.112-.282-.25l-.246-2.012c-.017-.139.081-.252.22-.252h2.008c.139 0 .266.113.282.252l.246 2.011c.017.14-.081.252-.22.252" transform="translate(1)"/>
        <path fill="#2455A3" d="M52.713 34.548h-1.164c-.139 0-.265-.113-.282-.251l-.143-1.166c-.016-.14.083-.252.221-.252h1.164c.139 0 .265.113.281.252l.143 1.166c.017.138-.082.251-.22.251M62.033 26.11h-2.966c-.139 0-.265-.112-.282-.25l-.363-2.972c-.017-.14.081-.252.22-.252h2.967c.138 0 .264.113.282.252l.363 2.971c.017.139-.082.252-.221.252" transform="translate(1)"/>
        <path fill="#FFF" d="M61.496 25.63h-2.009c-.138 0-.265-.112-.282-.25l-.245-2.012c-.017-.14.081-.252.22-.252h2.008c.14 0 .265.113.282.252l.246 2.011c.017.14-.082.252-.22.252" transform="translate(1)"/>
        <path fill="#2455A3" d="M61.022 25.208h-1.164c-.139 0-.265-.113-.282-.252l-.143-1.166c-.017-.138.082-.25.22-.25h1.165c.138 0 .264.112.281.25l.143 1.166c.017.14-.082.252-.22.252M59.83 32l-.055-.446h-.587l.055.446h-.966l-.176-1.44h.708l-.067-.549h-2.898l-.05-.412h4.244l.294 2.4h-.502zm-4.792-4.663l.044.365h-.479l-.117-.96h.959l-.084-.686h-.959l-.124-1.017h.958l.085.697h.845l-.085-.697h.342l.166 1.36h-.342l.042.343h.342l.05.412h-.67l.067.548h.67l.081.663h.48l-.081-.663h.365l.162 1.326h-2.031l-.207-1.691h-.48zm.206 1.691H53.5l.02.16.05.411.05.412h-.787l-.201-1.646h2.533l.08.663zm.12.983h-1.072l-.05-.412h1.072l.05.412zm2.112-3.269l.05.412h-.366l-.05-.412h.366zm.87.96h1.46l.162 1.326h-1.46l-.162-1.326zm4.57 3.575h-.902l-.087-.717h-.585l.176 1.44h-.616l-.293-2.4h.367l-.07-.572h-.367l-.162-1.326h.981l-.067-.548h-.981l-.087-.715h-.571l.088.715h-1.461l-.05-.412h.958l-.042-.343h-.959l-.248-2.034h-.753l.249 2.034h-.365l-.266-2.174h.456l-.194-1.589H55.48l.194 1.589h.65l.017.14h-1.665l-.083-.677h.937l-.05-.412h-.937l-.079-.64h-.536l.211 1.729h-.856l.083.674h.205l.326 2.663h-1.347L52.39 26.4h-.547l.159 1.303h-.558l-.026-.22H49.65l.216 1.77h1.767l-.109-.887h.557l.202 1.646h-1.54l.067.549h1.54l.064.525h.548l-.064-.525h.787l.084.685h.673l-.084-.685h1.073l.195 1.6H54.03l.237 1.943h1.597l.086.694h-1.073l.08.654h1.552l-.165-1.348h.228l-.047-.39h-1.33l-.122-1.002h.621l.028.226h.48l-.028-.226h.684l-.067-.551h-.685l-.195-1.6h1.479l.29 2.377h.712l-.047-.389h.965l.095.777h-2.311l.094.778h1.734l.165 1.348h.708l-.165-1.348h.456l-.058-.48-.036-.298-.096-.777h.503l.084.69.037.307.08.644h1.094l.096.782h-1.095l.058.48h1.53l-.155-1.262h.23l-.117-.951h-1.188l-.084-.69h1.2l-.052-.426h.902l-.103-.845z" transform="translate(1)"/>
        <path fill="#19487F" d="M57.185 95.175H4.91c-2.057 0-3.726-1.671-3.726-3.733V64.49c0-2.06 1.669-3.732 3.726-3.732h52.276c2.058 0 3.727 1.671 3.727 3.732v26.953c0 2.062-1.669 3.733-3.727 3.733" transform="translate(1)"/>
        <path fill="#EFF6FF" d="M55.823 94.563H3.904c-2.032 0-3.679-1.65-3.679-3.684V64.442c0-2.035 1.647-3.685 3.679-3.685h51.92c2.031 0 3.678 1.65 3.678 3.685v26.437c0 2.035-1.647 3.684-3.679 3.684L43.307 76.53" transform="translate(1)"/>
        <path fill="#4789D6" d="M53.178 68.428H40.126c-1.336 0-2.43-1.095-2.43-2.434 0-1.338 1.094-2.434 2.43-2.434h13.052c1.336 0 2.43 1.096 2.43 2.434 0 1.34-1.094 2.434-2.43 2.434" opacity=".348" transform="translate(1)"/>
        <g transform="translate(1) translate(40.956 82.977)">
            <mask id="prefix__l" fill="#fff">
                <use xlink:href="#prefix__k"/>
            </mask>
            <path fill="#67AEE7" d="M0.018 7.442L6.225 7.442 6.225 0.053 0.018 0.053z" mask="url(#prefix__l)"/>
        </g>
        <path fill="#67AEE7" d="M49.698 90.42c-.972 0-1.858-.378-2.517-.995.72-.674 1.17-1.634 1.17-2.7 0-1.066-.45-2.026-1.17-2.7.66-.617 1.545-.995 2.517-.995 2.038 0 3.69 1.654 3.69 3.695 0 2.04-1.652 3.695-3.69 3.695" transform="translate(1)"/>
        <path fill="#5EA3E3" d="M47.181 89.425c-.72-.674-1.171-1.634-1.171-2.7 0-1.066.45-2.026 1.171-2.7.72.674 1.17 1.634 1.17 2.7 0 1.066-.45 2.026-1.17 2.7" transform="translate(1)"/>
        <path fill="#4789D6" d="M50.805 76.53H9.077c-2.55 0-4.636-.342-4.636-.76V74.29c0-.418 2.086-.76 4.636-.76h41.728c2.55 0 4.636.342 4.636.76v1.479c0 .418-2.086.76-4.636.76M22.04 88.42H5.53c-.599 0-1.089-.491-1.089-1.092v-.984c0-.6.49-1.091 1.09-1.091h16.51c.6 0 1.09.49 1.09 1.091v.984c0 .6-.49 1.092-1.09 1.092" opacity=".348" transform="translate(1)"/>
        <path fill="#3792FC" d="M58.524 7.097c.154-.068.342-.068.524 0l21.79 8.144c.77.289.788 1.347.02 1.347h-40.16c-.766 0-1.194-1.058-.544-1.347l18.37-8.144" transform="translate(1)"/>
        <g transform="translate(1) translate(43.741 8.386)">
            <mask id="prefix__o" fill="#fff">
                <use xlink:href="#prefix__m"/>
            </mask>
            <path fill="url(#prefix__n)" d="M15.32 0.022L33.455 6.8 0.031 6.8 15.32 0.022" mask="url(#prefix__o)"/>
        </g>
        <path fill="#4789D6" d="M62.562 11.926c.32 1.525-.654 2.762-2.177 2.762-1.523 0-3.017-1.237-3.338-2.762-.32-1.525.655-2.762 2.178-2.762 1.522 0 3.017 1.237 3.337 2.762" transform="translate(1)"/>
        <path fill="#1C47AB" d="M59.225 9.348c-.67 0-1.245.255-1.621.72-.39.48-.523 1.126-.378 1.82.303 1.443 1.72 2.616 3.159 2.616.669 0 1.244-.255 1.62-.72.39-.48.524-1.126.378-1.82-.303-1.443-1.72-2.616-3.158-2.616zm1.16 5.524c-1.603 0-3.18-1.305-3.517-2.908-.169-.804-.009-1.56.451-2.128.448-.552 1.124-.856 1.906-.856 1.602 0 3.18 1.305 3.516 2.908.17.805.009 1.56-.451 2.128-.448.552-1.124.856-1.905.856z" transform="translate(1)"/>
        <path fill="#3792FC" d="M40.371 17.747L43.772 17.747 48.022 51.386 43.596 51.434 40.371 17.747M77.503 17.977L80.904 17.977 85.019 50.615 81.425 50.67 77.503 17.977" transform="translate(1)"/>
    </g>
</svg>
