<svg xmlns="http://www.w3.org/2000/svg" xmlns:xlink="http://www.w3.org/1999/xlink" width="320" height="200" viewBox="0 0 320 200">
    <defs>
        <linearGradient id="prefix__b" x1="50%" x2="5.2%" y1="36.667%" y2="57.085%">
            <stop offset="0%" stop-color="#D5E9FD"/>
            <stop offset="100%" stop-color="#FAFCFF"/>
        </linearGradient>
        <path id="prefix__a" d="M0.677 0H320.677V200H0.677z"/>
    </defs>
    <g fill="none" fill-rule="evenodd">
        <g transform="translate(-1353 -40) translate(1352 40)">
            <mask id="prefix__c" fill="#fff">
                <use xlink:href="#prefix__a"/>
            </mask>
            <use fill="#FBFDFF" xlink:href="#prefix__a"/>
            <path fill="url(#prefix__b)" d="M65 0C21.668 7.208-10.886 18.003-32.663 32.384c-32.664 21.572-88.123 49.719-100.624 22.19-8.334-18.351-5.615-36.543 8.159-54.574H65z" mask="url(#prefix__c)"/>
            <g mask="url(#prefix__c)">
                <g>
                    <g>
                        <path fill="#CDBCFF" d="M129.492 70.803c-.987 6.47-5.485 12.518-11.252 14.044-.78.207-1.584.332-2.405.362-6.372.238-11.808-4.718-17.893-6.773-6.035-2.041-12.883-1.064-18.22 2.598-4.755 3.261-8.208 8.408-12.982 11.634-7.209 4.868-16.382 4.696-24.762 3.13-3.584-.671-7.543-1.878-9.343-5.297-1.472-2.8-1.073-6.364-2.337-9.281-1.403-3.24-4.604-5.112-7.761-6.198-3.154-1.086-6.503-1.632-9.436-3.294-2.933-1.662-5.47-4.866-5.187-8.43.377-4.756 5.242-7.518 7.26-11.723.22-.45.403-.917.545-1.409.9-3.1-.065-6.48-1.44-9.376-1.37-2.893-3.159-5.59-4.06-8.692-1.23-4.241-.626-9.06 1.607-12.794 2.233-3.733 6.052-6.31 10.136-6.836 2.754-.356 5.501.17 8.252.698 2.579.494 5.16.987 7.75.754 8.076-.726 14.153-8.14 21.68-11.385C67.286-.762 76.51.665 82.993 6.148c3.693 3.124 6.432 7.343 9.556 11.126 3.124 3.78 6.914 7.294 11.523 8.233 1.888.384 3.827.318 5.761.252 2.37-.08 4.733-.16 6.98.586 3.538 1.173 6.345 4.514 7.242 8.375.167.718.268 1.455.296 2.197.106 2.896-.764 5.693-.892 8.57-.14 3.181 1.217 5.19 2.511 7.905 2.58 5.409 4.463 11.252 3.521 17.41" transform="translate(203 10) translate(17.155)"/>
                        <path fill="#C3DBFB" d="M65.83 105.405c-35.932 0-65.06-1.72-65.06-3.84 0-2.121 29.128-3.84 65.06-3.84 35.931 0 65.06 1.719 65.06 3.84 0 2.12-29.129 3.84-65.06 3.84" opacity=".665" transform="translate(203 10) translate(17.155)"/>
                        <path fill="#C6A1F9" d="M141.542 62.469c-1.098 7.244-6.1 14.013-12.513 15.721L86.807 39.905l43.363-24.07 5.327 6.241c.186.804.298 1.628.328 2.46.12 3.24-.848 6.372-.991 9.592-.155 3.562 1.354 5.81 2.792 8.85 2.87 6.055 4.962 12.596 3.916 19.491" transform="translate(203 10) translate(17.155)"/>
                    </g>
                    <path fill="#623C97" d="M46.262 16L36 16 36 31 56 31 56 16 46.262 16" transform="translate(203 10)"/>
                    <path fill="#DDE5FD" d="M47 21L51 21 51 17 47 17zM47 25L51 25 51 21 47 21zM47 30L51 30 51 26 47 26zM51 21L55 21 55 17 51 17zM51 25L55 25 55 21 51 21zM51 30L55 30 55 26 51 26zM37 21L41 21 41 17 37 17zM37 25L41 25 41 21 37 21zM37 30L41 30 41 26 37 26zM42 21L46 21 46 17 42 17zM42 25L46 25 46 21 42 21zM42 30L46 30 46 26 42 26z" transform="translate(203 10)"/>
                    <path fill="#83969E" d="M78.923 24.014V20.67h-2.126V19.9h2.126v-2.266h.686V19.9h6.042v-8.29h1.016v8.29h6.486v-2.266h.685V19.9h1.684v.771h-1.684v3.343h-.685V20.67h-6.486v78.112h5.435c.884 0 1.6.72 1.6 1.607H78.617c0-.887.716-1.607 1.6-1.607h5.435V20.67H79.61v3.343h-.686" transform="translate(203 10)"/>
                    <path fill="#E2625D" d="M77.152 33.402h4.227c.938 0 1.7-.764 1.7-1.707V25.72c0-.942-.762-1.706-1.7-1.706h-4.227c-.938 0-1.699.764-1.699 1.706v5.975c0 .943.76 1.707 1.7 1.707" transform="translate(203 10)"/>
                    <path fill="#FFFFFE" d="M77.477 32.68h3.577c.795 0 1.439-.646 1.439-1.443v-5.058c0-.797-.644-1.444-1.439-1.444h-3.577c-.794 0-1.438.647-1.438 1.444v5.058c0 .797.644 1.444 1.438 1.444" transform="translate(203 10)"/>
                    <path fill="#E2625D" d="M79.945 24.433L81.041 24.433 81.041 22.44 79.945 22.44zM77.49 24.433L78.587 24.433 78.587 22.44 77.49 22.44zM79.945 34.976L81.041 34.976 81.041 32.982 79.945 32.982zM77.49 34.976L78.587 34.976 78.587 32.982 77.49 32.982zM78.039 28.787c0 .68.549 1.232 1.227 1.232s1.227-.551 1.227-1.232c0-.415-.455-1.579-.812-2.425-.155-.37-.676-.37-.83 0-.357.846-.812 2.01-.812 2.425" transform="translate(203 10)"/>
                    <path fill="#AAADA9" d="M77.125 30.989L81.512 30.989 81.512 30.727 77.125 30.727zM77.125 31.795L81.512 31.795 81.512 31.532 77.125 31.532z" transform="translate(203 10)"/>
                    <path fill="#83969E" d="M41.323 84h28.298v-7.407H41.323V84zm-.196 1.528h28.69l2.79 9.24 1.409-.455-2.92-9.665v-9.583H39.848v9.582l-2.94 9.664 1.407.46 2.812-9.243zM107.272 84h28.298v-7.407h-28.298V84zm-.196 1.528h28.69l2.791 9.24 1.408-.455-2.92-9.665v-9.583h-31.248v9.582l-2.94 9.664 1.407.46 2.812-9.243z" transform="translate(203 10)"/>
                    <path fill="#C0CECE" d="M34.425 98.167c0 1.822 1.471 3.299 3.285 3.299s3.285-1.477 3.285-3.299c0-1.822-1.47-3.299-3.285-3.299-1.814 0-3.285 1.477-3.285 3.299" transform="translate(203 10)"/>
                    <path fill="#77868D" d="M35.3 98.167c0 1.337 1.08 2.42 2.41 2.42 1.331 0 2.41-1.083 2.41-2.42 0-1.336-1.079-2.42-2.41-2.42-1.33 0-2.41 1.084-2.41 2.42" transform="translate(203 10)"/>
                    <path fill="#83969E" d="M77.92 75.288H34.647V49.246c0-1.59 1.283-2.878 2.866-2.878h37.54c1.584 0 2.867 1.288 2.867 2.878v26.042" transform="translate(203 10)"/>
                    <path fill="#C0CECE" d="M80.052 75.288H36.778V49.246c0-1.59 1.283-2.878 2.867-2.878h37.54c1.584 0 2.867 1.288 2.867 2.878v26.042" transform="translate(203 10)"/>
                    <path fill="#83969E" d="M44.144 51.48c.044-.646-.03-1.26-.15-1.895-.096-.5-.872-1.171-.806-1.617.096-.667 1.288-.09 1.638.012.584.172 1.137.152 1.743.058.415-.065.786-.216 1.156-.395.111-.055.222-.11.335-.168.808-.41 1.595-.703 2.467-.941 2.143-.589 4.572-.546 6.76-.312 1.532.165 3.19.481 4.724.318.588-.062 1.148-.05 1.65-.372.485-.309 1.338-1.069 1.92-.616.759.584.444 2.565.537 3.44l.081-.157c.052.492.084.992.201 1.46.267 1.07.958 2.112 1.355 3.156.462 1.218.5 2.726.368 3.996-.065.603-.187 1.264-.357 1.85-.175.609-.482 1.232-.034 1.765.234.277.532.33.523.75-.008.335-.261.597-.562.714-.598.233-1.294-.096-1.891-.138-.75-.054-1.464.127-2.172.328-.42.12-.838.247-1.257.338-1.429.311-2.806.806-4.252 1.09-2.592.506-5.206.267-7.792.182-1.27-.043-2.555.058-3.812-.185-.665-.13-.956-.405-1.52.028-.256.197-.263.344-.654.277-.42-.072-.487-.207-.392-.65.171-.799.674-1.165.485-2.067-.132-.626-.403-1.257-.587-1.878-.37-1.246-.56-2.812-.525-4.122.038-1.455.721-2.799.82-4.25" transform="translate(203 10)"/>
                    <path fill="#ACBBC0" d="M36.778 75.065L80.052 75.065 80.052 68.344 36.778 68.344z" transform="translate(203 10)"/>
                    <path fill="#EAFDFF" d="M106.633 68.344H39.428v-4.199c0-.549.444-.994.99-.994h66.215v5.193" transform="translate(203 10)"/>
                    <path fill="#EAFDFF" d="M46.084 63.673c.392.067.398-.08.654-.277.564-.433.855-.157 1.52-.028 1.258.244 2.542.142 3.813.184 2.585.086 5.2.325 7.792-.181 1.446-.284 2.823-.779 4.251-1.09.42-.091.838-.218 1.258-.337.707-.202 1.422-.383 2.171-.329.597.042 1.293.37 1.892.138.3-.117.554-.38.561-.713.01-.421-.288-.474-.523-.751-.448-.533-.14-1.156.035-1.766.17-.585.291-1.245.356-1.849.134-1.27.094-2.778-.368-3.996-.397-1.044-1.088-2.085-1.354-3.156-.117-.468-.15-.969-.201-1.46l-.082.156c-.092-.874.222-2.854-.535-3.439-.584-.452-1.437.307-1.921.616-.503.322-1.063.31-1.65.372-1.534.164-3.192-.153-4.724-.318-2.188-.234-4.617-.276-6.76.312-.873.238-1.66.532-2.468.941-.112.058-.223.114-.334.168-.37.18-.741.33-1.157.395-.606.094-1.158.115-1.743-.058-.35-.103-1.541-.68-1.638-.012-.065.446.71 1.117.806 1.617.12.635.195 1.25.15 1.895-.098 1.45-.781 2.794-.82 4.25-.035 1.31.155 2.876.525 4.122.184.62.456 1.251.588 1.878.189.9-.314 1.267-.486 2.066-.095.443-.028.578.392.65" transform="translate(203 10)"/>
                    <path fill="#CEEEF6" d="M46.252 63.69c-.047 0-.102-.006-.168-.017-.313-.053-.43-.142-.43-.368 0-.077.014-.17.038-.282.146-.676.527-1.042.528-1.684 0-.117-.013-.243-.042-.382-.132-.627-.404-1.257-.588-1.878-.34-1.15-.53-2.57-.529-3.811 0-.105.002-.21.005-.312.038-1.455.72-2.799.82-4.25.008-.127.012-.255.012-.382 0-.508-.067-1.004-.163-1.512-.092-.48-.809-1.116-.81-1.561 0-.02.002-.038.004-.056.034-.237.207-.317.43-.317.407 0 .983.263 1.208.329.314.092.618.13.925.13.267 0 .537-.028.818-.072.416-.065.787-.216 1.157-.395l.015.065c.383 1.488 2.38 2.42 3.437 3.408 1.18 1.104 2.403 1.767 3.808 2.58 1.555.9 3.2 1.504 4.823 2.258-.386.118-.832.17-1.315.17-2.13 0-4.971-1-6.54-1.668.074 1 1.89 2.427 2.61 3.111 1.254 1.19 2.798 2.087 4.289 2.945 1.51.869 3.149 1.535 4.778 2.205-.42.119-.839.246-1.258.337-1.428.311-2.805.806-4.251 1.09-1.236.241-2.477.313-3.718.313-1.361 0-2.722-.086-4.074-.132-.549-.018-1.1-.01-1.65-.013-.063-1.452-.42-3.44-1.671-3.974-.242-.103-.45-.15-.628-.15-.876 0-1.047 1.123-1.047 2.19 0 .437.029.865.05 1.202.005.1.015.227.027.376-.126.03-.26.095-.414.213-.213.165-.253.293-.486.293" transform="translate(203 10)"/>
                    <path fill="#D6EEF1" d="M64.181 51.112c-2.262 0-5.478-1.671-6.636-2.484 1.4.675 3.04.941 4.561 1.224.63.116 1.472.323 2.257.323.634 0 1.23-.135 1.648-.56l-.105.13c.282-.1.428-.323.636-.53-.18 1.4-1.129 1.897-2.361 1.897M65.056 54.22c-2.082 0-5.646-1.436-6.226-1.82 1.473.426 3.457 1.21 5.243 1.21.877 0 1.707-.19 2.404-.703l.071.112c.134.887-.516 1.201-1.492 1.201M66.253 57.693c-1.006 0-4.172-1.068-4.18-2.1.057-.016.122-.023.193-.023.106 0 .224.015.342.044l-.132-.072c.075.032.151.064.227.098.148.044.29.106.405.181.492.226.992.473 1.467.72.454.237 1.625.641 1.749 1.15l-.071.002" transform="translate(203 10)"/>
                    <path fill="#3993FC" d="M106.633 75.065H40.267c-.463 0-.839-.377-.839-.842v-5.879h67.205v6.721" transform="translate(203 10)"/>
                    <path fill="#121725" d="M58.749 27.764c.769-.816 1.83-1.357 2.946-1.435 1.047-.073 2.104.254 2.979.839.874.583 1.57 1.413 2.075 2.338.763 1.397 1.205 3.255.686 4.807-.523 1.561-1.907 2.697-3.54 2.917-1.674.224-3.397-.487-4.605-1.673-.951-.934-1.622-2.168-1.817-3.489-.196-1.32.1-2.722.872-3.81.123-.174.258-.339.404-.494" transform="translate(203 10)"/>
                    <path fill="#F2BCB5" d="M69.644 54.406l11.493-1.06c1.445.923 2.514.874 2.794.82.169-.033.183-.23.024-.288l-.963-.346c2.339.211 3.229-.13 3.568-.417.173-.146.247-.402.084-.557-2.599-2.477-5.655-.413-5.655-.413l-13.712-.625c.877.911 1.697 1.854 2.367 2.886" transform="translate(203 10)"/>
                    <path fill="#D1EBEB" d="M77.523 52L76.896 52.63 74.215 52.468 74.958 51.87 77.523 52" transform="translate(203 10)"/>
                    <path fill="#BFE1DB" d="M56.337 41.643c.414 1.311 1.804 5.695 2.112 6.837 1.262 4.727 2.932 14.67 2.932 14.67h13.197l-2.309-6.54s-.66-5.374-.709-5.945l-.042-.483c-.238-2.765-1.284-5.395-3.018-7.555-.505-.626-1.032-1.256-1.527-1.8-.49-.53-.943-.983-1.327-1.28-.234-.18-.553-.32-.934-.42-1.54-.41-4.085-.215-5.99.347-.897.266-1.651.614-2.09 1.018-.316.29-.425.742-.295 1.151" transform="translate(203 10)"/>
                    <path fill="#9FD3C8" d="M58.722 39.474v.003s6.274 2.509 8.242 3.883c0 0 .09-2.114-2.252-4.234-1.54-.41-4.085-.214-5.99.348" transform="translate(203 10)"/>
                    <path fill="#7CB8FF" d="M64.247 72.184c2.808.865 6.145.07 9.047.764 1.899.455 2.924 1.51 4.46 2.649 2.03 1.506 3.702.229 5.737-.611 1.838-.758 4.165-1.433 6.112-.611.885.372 1.397 1.203 2.242 1.628.721.36 1.387.284 2.19.284 3.177.003 5.799-3.407 9.142-2.24 1.457.508 3.334 1.9 3.915-.305.323-1.225.302-2.578.268-3.892-.006-.406-.015-.806-.018-1.2-.006-1.62-.718-3.492-.125-5.072.329-.883 1.238-1.05 2.187-1.03.548.01 1.108.083 1.582.117 5.512.37 11.557 3.226 16.945.687.7-.33 1.682-.85 1.688-1.735-1.414-1.152-4.122-.773-5.856-.957-2.613-.28-5.153-1.353-7.422-2.569l-.068-.036c-1.782-.956-3.391-.532-5.28-.993-1.796-.437-3.46-1.28-5.267-1.75-3.306-.865-6.866-.767-10.248-.92-3.554-.162-7.125-.507-10.645-.819-3.024-.266-6.05-.623-9.078-.898-1.737-.156-3.501.092-5.095.803-.22.101-.435.208-.639.327-1.33.776-2.558 1.726-3.91 2.481-1.13.635-1.962 1.081-2.64 1.946-.216.272-.414.583-.605.956-.715 1.406-1.244 2.847-1.625 4.369-.694 2.792-.17 7.653 3.006 8.627" transform="translate(203 10)"/>
                    <path fill="#3993FC" d="M66.391 67.183c2.809.861 6.146.067 9.048.764 1.898.455 2.924 1.506 4.46 2.646 2.029 1.506 3.702.229 5.737-.611 1.837-.758 4.165-1.433 6.115-.611.882.372 1.393 1.203 2.239 1.628.72.36 1.387.284 2.193.284 3.173.003 5.799-3.406 9.139-2.24.645.227 1.375.624 2.038.807.828.229 1.555.116 1.877-1.112.423-1.604.259-3.43.252-5.093 0-.354-.036-.72-.085-1.096-.17-1.33-.501-2.74-.042-3.975.52-1.393 2.473-1.002 3.77-.913 1.052.07 2.125.232 3.209.43l-.068-.036c-1.782-.956-3.391-.532-5.28-.993-1.796-.437-3.46-1.28-5.267-1.75-3.306-.865-6.866-.767-10.248-.92-3.554-.162-7.125-.507-10.645-.819-3.024-.266-6.05-.623-9.078-.898-1.737-.156-3.501.092-5.095.803-.22.101-.435.208-.639.327-1.33.776-2.558 1.726-3.91 2.481-1.13.635-1.962 1.081-2.64 1.946-.03.107-.058.214-.085.32-.694 2.793-.17 7.654 3.005 8.631" transform="translate(203 10)"/>
                    <path fill="#F2BCB5" d="M55.7 44.275l4.468 11.387c.275.7.934 1.164 1.674 1.178l14.944-.239s4.397 1.565 6.145-.304c.184-.197.117-.54-.062-.742-.353-.394-1.299-.886-3.841-.706l1.06-.417c.176-.07.17-.332-.01-.383-.301-.084-1.456-.195-3.069.967l-14.03-2.153-2.01-10.453c-.362-1.78-2.243-2.768-3.88-2.038-1.474.658-2.108 2.438-1.389 3.903" transform="translate(203 10)"/>
                    <path fill="#EFAAA5" d="M60.584 38.715l.257-3.776 2.86 1.488-.005 2.676c2.323 1.901 2.586 3.33 2.586 3.33-1.215-1.057-6.787-3.159-6.787-3.159.583-.05 1.04-.178 1.089-.56" transform="translate(203 10)"/>
                    <path fill="#F2BCB5" d="M58.223 33.833c.38.973 1.187 1.175 1.92 1.271.037.055.073.105.115.16.5.684 1.148 1.318 1.846 1.78.95.636 1.987.952 2.85.664 1.417-.478 2.404-1.836 2.733-3.352.016-.076.032-.152.043-.227.11-.62.109-1.27-.024-1.883-1.162-5.563-3.193-6.35-5.322-5.838-1.63.39-2.925 3.167-3.08 5.507-.24-.097-.472-.139-.67-.094-.652.157-.71 1.24-.411 2.012" transform="translate(203 10)"/>
                    <path fill="#9FD3C8" d="M62.698 47.994l-5.412 2.062s-3.668-7.486-.693-9.603c0 0 3.667-2.478 5.094 3.12l1.01 4.42" transform="translate(203 10)"/>
                    <path fill="#121725" d="M58.669 29.555c-.006.55.022 1.084.123 1.621.075.404.256.736.419 1.108.228.522.368 1.336.85 1.67.024-.688-.26-1.61.023-2.258.145.43.188.994.5 1.343.527-.968 1.001-1.852 2.067-2.331.488-.22.935-.424 1.451-.577.47-.14.99-.43 1.215-.89-.073.208-.012.45-.028.669-.014.192-.105.384-.075.577.144-.062.295-.15.444-.25.126-.012.254-.024.379-.074.357-.143.702-.453.952-.747.359-.421.649-1.055.6-1.621-.067-.766-.769-1.279-1.346-1.684-.76-.533-1.343-.913-2.3-1.01-.72-.075-1.632-.086-2.301.223-.46.212-.86.545-1.277.83-1.048.718-1.684 2.134-1.696 3.401" transform="translate(203 10)"/>
                    <path fill="#FFFFFE" d="M80.418 34.976c.053.792.177 1.571.561 2.286.53.986 1.37 1.756 1.987 2.684.872 1.313 1.913 3.484.823 4.971-.83 1.132-2.186.879-2.63 2.566-.275 1.047.26 1.893-.456 2.873-1.052 1.441-3.063 1.395-4.588 2.016-.094.038-.2.014-.267-.063l-.048-.056c-.108-.127-.057-.323.1-.38 1.575-.57 4.097-.704 4.635-2.518.334-1.126-.316-2.284.505-3.289.431-.527 1.067-.658 1.617-1.005 2.69-1.695-.605-5.175-1.728-6.752-.762-1.069-1.005-2.124-1.105-3.333h.594" transform="translate(203 10)"/>
                    <path fill="#C0CECE" d="M103.76 68.344h45.746V53.928c0-1.852-1.496-3.353-3.34-3.353H107.1c-1.844 0-3.34 1.501-3.34 3.353v14.416" transform="translate(203 10)"/>
                    <path fill="#ACBBC0" d="M103.76 75.065L149.506 75.065 149.506 68.344 103.76 68.344zM37.685 99.206c.75 0 1.36-.611 1.36-1.365v-4.323h-2.72v4.323c0 .754.61 1.365 1.36 1.365" transform="translate(203 10)"/>
                    <path fill="#C0CECE" d="M69.863 98.167c0 1.822 1.47 3.299 3.285 3.299 1.814 0 3.285-1.477 3.285-3.299 0-1.822-1.471-3.299-3.285-3.299s-3.285 1.477-3.285 3.299" transform="translate(203 10)"/>
                    <path fill="#77868D" d="M70.738 98.167c0 1.337 1.079 2.42 2.41 2.42 1.33 0 2.41-1.083 2.41-2.42 0-1.336-1.08-2.42-2.41-2.42-1.331 0-2.41 1.084-2.41 2.42" transform="translate(203 10)"/>
                    <path fill="#ACBBC0" d="M73.122 99.206c.75 0 1.36-.611 1.36-1.365v-4.323h-2.719v4.323c0 .754.609 1.365 1.36 1.365" transform="translate(203 10)"/>
                    <path fill="#C0CECE" d="M100.475 98.167c0 1.822 1.471 3.299 3.285 3.299s3.285-1.477 3.285-3.299c0-1.822-1.47-3.299-3.285-3.299-1.814 0-3.285 1.477-3.285 3.299" transform="translate(203 10)"/>
                    <path fill="#77868D" d="M101.35 98.167c0 1.337 1.08 2.42 2.41 2.42 1.331 0 2.41-1.083 2.41-2.42 0-1.336-1.079-2.42-2.41-2.42-1.33 0-2.41 1.084-2.41 2.42" transform="translate(203 10)"/>
                    <path fill="#ACBBC0" d="M103.735 99.206c.75 0 1.36-.611 1.36-1.365v-4.323h-2.72v4.323c0 .754.61 1.365 1.36 1.365" transform="translate(203 10)"/>
                    <path fill="#38B299" d="M5.04 75.056c2.416-.905.25-1.997-1.26-2.436-1.222-.356-4.285-.944-3.027-3.034 1.318-2.19 2.549.534 3.583.847 2.313.7-.08-2.234-.65-3.016-.781-1.072-2.426-3.261-.375-3.61 1.658-.283 3.359 2.046 4.039 3.205.484.827 1.663 4.692 2.923 3.845.953-.64-.004-4.51 2.244-1.734.914 1.129.754 2.931 1.16 4.218.597 1.884.848 2.666 2.513 2.194.864-.245.898-1.33 1.957-.59.545.381.696 2.12.687 2.723-.079 5.543-2.31 9.241-3.354 9.713-1.414.639-4.027-.314-5.228-1.018-.597-.35-1.686-.928-1.603-1.804.092-.982 1.603-.83 1.663-1.408.109-1.049-1.088-.791-2.18-.534-.613.145-1.192.289-1.49.203-1.074-.31-2.844-2.252-1.709-3.265.117-.104 4.81-.415 2.136-1.932-.656-.372-1.336-.129-2.015.114-.853.305-1.703.61-2.495-.306-2.047-2.367 1.574-2.035 2.48-2.375" transform="translate(203 10)"/>
                    <path fill="#009E71" d="M14.336 87.591c-1.405 0-3.161-.687-4.084-1.228-.575-.336-1.606-.885-1.608-1.707 0-.032.001-.064.005-.097.092-.982 1.603-.83 1.663-1.408.005-.045.007-.086.007-.126 0-.483-.328-.636-.794-.636-.403 0-.908.114-1.393.228-.485.115-.95.229-1.27.229-.084 0-.158-.008-.22-.026-.83-.239-2.075-1.452-2.075-2.46 0-.296.108-.575.366-.805.091-.081 2.957-.287 2.958-1.091 0-.229-.23-.505-.822-.84-.243-.14-.49-.192-.74-.192-.421 0-.849.152-1.275.305-.427.152-.852.305-1.27.305-.418 0-.829-.153-1.225-.61-.44-.51-.618-.893-.617-1.186 0-1.07 2.386-.923 3.097-1.19.782-.292 1.084-.604 1.084-.908.001-.635-1.322-1.23-2.344-1.528-1.02-.298-3.323-.756-3.323-2.116 0-.269.09-.573.297-.918.372-.617.737-.844 1.093-.844.904 0 1.748 1.466 2.49 1.691.243.074.434.107.581.107.292 0 .408-.132.408-.343.002-.694-1.247-2.244-1.639-2.78-.504-.69-1.365-1.846-1.366-2.673 0-.457.262-.813.991-.938.093-.015.187-.023.28-.023 1.567 0 3.117 2.135 3.759 3.23.436.745 1.44 3.965 2.556 3.965.122 0 .244-.038.367-.12.706-.476.363-2.726 1.055-2.726.114 0 .256.061.437.202-.268.006-.492.392-.654 1.503-.019.13-.027.26-.027.389 0 .529.147 1.06.34 1.583-.082.03-.149.1-.161.215-.086.786.004 1.58-.142 2.36-.132.716-.416 1.344-.8 1.946-.882-1.239-1.937-2.417-2.781-3.694.26-.366.236-.849.208-1.294-.056-.906-.33-1.698-.678-2.529-.049-.115-.143-.164-.238-.164-.177 0-.36.165-.27.378.269.64.525 1.268.602 1.964.03.27.131.775.042 1.112-.08-.132-.16-.263-.232-.398-.059-.108-.157-.153-.254-.153-.185 0-.364.162-.254.366.596 1.11 1.421 2.102 2.208 3.102-1.129.09-2.202.479-3.24.91-.29.122-.157.534.104.534.034 0 .07-.007.109-.023 1.006-.42 2.036-.795 3.131-.876.11-.008.174-.068.207-.144.158.206.315.414.465.624.261.365.519.733.771 1.105-.095-.021-.186-.037-.273-.037-.255 0-.485.13-.706.62-.04.09-.058.2-.058.327 0 .699.549 1.846.828 2.318-.326.045-.655.068-.985.068-.378 0-.759-.03-1.139-.093-.017-.003-.034-.004-.05-.004-.307 0-.353.497-.022.552.401.066.804.098 1.205.098.44 0 .878-.038 1.311-.112 1.256 1.933 2.654 3.382 3.92 4.388-.166.027-.333.04-.5.04-.704 0-1.419-.218-2.054-.479-.038-.015-.074-.022-.108-.022-.261 0-.391.415-.1.534.695.286 1.49.526 2.266.526.264 0 .525-.028.78-.09.213.52.434 1.037.675 1.544l.016.023.043.11c-.28.091-.597.13-.934.13m1.423-.39l-.033-.085c-.026-.128-.106-.273-.146-.379-.02-.05-.05-.085-.085-.112-.096-.216-.19-.433-.282-.651.392.259.762.47 1.1.633-.197.256-.384.455-.554.593m-4.794-9.927c-.1-.153-.203-.305-.305-.456.4-.597.725-1.216.907-1.917.194-.744.167-1.487.2-2.238.2.478.392.945.497 1.395.175.75.31 1.33.31 1.784 0 .712-.33 1.117-1.35 1.392-.09.024-.175.036-.259.04" transform="translate(203 10)"/>
                    <path fill="#7FC5B0" d="M5.434 75.93c1.038-.431 2.111-.82 3.24-.91-.787-1-1.612-1.992-2.208-3.102-.168-.312.34-.524.508-.213.072.135.153.266.232.398.09-.337-.012-.842-.042-1.112-.077-.696-.333-1.324-.602-1.964-.137-.328.37-.542.508-.214.348.83.622 1.623.678 2.53.028.444.051.927-.208 1.293.844 1.277 1.9 2.455 2.78 3.694.385-.602.669-1.23.801-1.947.146-.78.056-1.573.142-2.359.039-.354.585-.282.546.072-.103.945 0 1.874-.242 2.804-.182.701-.506 1.32-.907 1.917 1.012 1.491 1.947 3.04 2.712 4.675.254.543.486 1.097.71 1.653.519-.767.95-1.569 1.251-2.452.168-.492.354-1.013.423-1.528.052-.39.014-.76.169-1.13.138-.327.648-.119.51.21-.19.452-.132 1.045-.254 1.53-.118.467-.263.932-.428 1.385-.337.928-.83 1.768-1.399 2.57l-.028.027c.379.961.748 1.927 1.17 2.868.034.027.064.061.084.112.04.106.12.251.146.38.752 1.942 1.51 3.884 2.237 5.836.123.332-.384.548-.508.214-.724-1.945-1.48-3.88-2.228-5.816l-.016-.023c-.24-.507-.462-1.024-.675-1.545-1.003.25-2.115-.052-3.046-.435-.329-.135-.12-.647.208-.512.81.333 1.749.594 2.627.426-.474-1.19-.92-2.395-1.46-3.555-.216-.462-.447-.916-.688-1.364l-.056.037c-1.37.548-2.845.761-4.305.521-.348-.057-.279-.606.072-.548 1.369.225 2.736.031 4.02-.482l.007-.002c-.744-1.322-1.583-2.59-2.465-3.824-.15-.21-.307-.418-.465-.624-.033.076-.097.136-.207.144-1.095.08-2.125.457-3.131.876-.327.136-.541-.374-.213-.51" transform="translate(203 10)"/>
                    <path fill="#38B299" d="M20.56 71.09c-2.538.465-1.234-1.587-.16-2.741.868-.934 3.199-3.013 1.053-4.162-2.248-1.203-1.917 1.769-2.646 2.57-1.63 1.79-1.071-1.96-.98-2.925.125-1.323.422-4.049-1.517-3.295-1.569.61-1.843 3.485-1.835 4.83.005.96.962 4.886-.552 4.806-1.145-.06-2.296-3.875-2.812-.336-.21 1.44.847 2.905 1.153 4.22.449 1.925.631 2.726-1.04 3.176-.307.083-.578.022-.824-.04-.449-.111-.814-.223-1.158.54-.273.607.483 2.178.799 2.692 2.893 4.722 6.694 6.751 7.832 6.62 1.54-.178 3.3-2.34 3.972-3.562.335-.608.976-1.664.458-2.374-.321-.441-.84-.36-1.296-.279-.369.066-.697.132-.85-.076-.981-1.319 2.393-1.54 2.983-2.171.765-.818 1.295-3.396-.197-3.683-.048-.01-.485.191-1.02.392-1.185.446-2.848.892-1.799-.953.843-1.483 3.393-.34 3.777-2.484.551-3.085-2.39-.94-3.342-.765" transform="translate(203 10)"/>
                    <path fill="#38B299" d="M20.56 71.09c-2.538.465-1.234-1.587-.16-2.741.868-.934 3.199-3.013 1.053-4.162-2.248-1.203-1.917 1.769-2.646 2.57-1.63 1.79-1.071-1.96-.98-2.925.125-1.323.422-4.049-1.517-3.295-1.569.61-1.843 3.485-1.835 4.83.005.96.962 4.886-.552 4.806-1.145-.06-2.296-3.875-2.812-.336-.21 1.44.847 2.905 1.153 4.22.449 1.925.631 2.726-1.04 3.176-.307.083-.578.022-.824-.04-.449-.111-.814-.223-1.158.54-.273.607.483 2.178.799 2.692 2.893 4.722 6.694 6.751 7.832 6.62 1.54-.178 3.3-2.34 3.972-3.562.335-.608.976-1.664.458-2.374-.321-.441-.84-.36-1.296-.279-.369.066-.697.132-.85-.076-.981-1.319 2.393-1.54 2.983-2.171.765-.818 1.295-3.396-.197-3.683-.048-.01-.485.191-1.02.392-1.185.446-2.848.892-1.799-.953.843-1.483 3.393-.34 3.777-2.484.551-3.085-2.39-.94-3.342-.765" transform="translate(203 10)"/>
                    <path fill="#7FC5B0" d="M20.666 72.044c-1.112.163-2.233.38-3.248.884.166-1.265.37-2.54.317-3.8-.015-.356-.56-.276-.545.076.006.154.003.309.003.463-.249-.244-.42-.73-.531-.977-.29-.638-.388-1.309-.484-1.997-.05-.352-.594-.276-.545.077.124.893.293 1.715.706 2.522.203.397.429.823.84 1.004-.076 1.531-.382 3.085-.507 4.603-.637-.32-1.201-.714-1.68-1.26-.523-.595-.85-1.324-1.325-1.955-.213-.284-.646.059-.432.343.57.758.954 1.61 1.637 2.284.515.509 1.108.874 1.757 1.18-.11 1.802-.123 3.613.053 5.411.059.598.141 1.192.232 1.786-.836-.393-1.614-.86-2.324-1.465-.395-.336-.82-.688-1.142-1.095-.244-.308-.399-.645-.72-.883-.287-.21-.619.23-.332.442.394.29.645.83.997 1.184.34.341.702.665 1.074.97.763.624 1.615 1.092 2.512 1.489l.038.008c.165 1.02.34 2.04.457 3.065-.015.04-.024.086-.015.14.02.11.025.278.068.401.344 2.056.683 4.112 1.054 6.163.063.35.609.274.545-.077-.37-2.043-.707-4.093-1.05-6.142l.001-.027c-.051-.56-.125-1.117-.208-1.674.99-.302 1.79-1.132 2.396-1.94.213-.285-.227-.618-.44-.333-.526.703-1.2 1.41-2.04 1.717-.2-1.267-.43-2.53-.558-3.806-.05-.507-.083-1.015-.104-1.524l.067.003c1.456-.234 2.831-.809 3.963-1.766.271-.228-.07-.663-.341-.433-1.061.896-2.333 1.432-3.698 1.651l-.008.003c-.035-1.518.039-3.04.168-4.553.022-.257.051-.516.082-.775.066.049.152.068.251.018.982-.493 2.058-.7 3.136-.858.35-.05.275-.598-.077-.547" transform="translate(203 10)"/>
                    <path fill="#38B299" d="M18.064 69.971c2.52.549 1.284-1.545.25-2.734-.838-.962-3.1-3.116-.917-4.194 2.286-1.128 1.858 1.83 2.56 2.656 1.57 1.843 1.135-1.924 1.075-2.892-.081-1.325-.288-4.06 1.626-3.242 1.547.662 1.727 3.544 1.675 4.888-.037.959-1.122 4.852.393 4.822 1.147-.023 2.422-3.798 2.822-.243.162 1.445-.942 2.876-1.291 4.18-.512 1.909-.72 2.703.935 3.208.306.094.58.04.83-.013.45-.096.817-.193 1.134.578.254.616-.554 2.161-.886 2.665-3.046 4.622-6.912 6.525-8.045 6.356-1.534-.229-3.22-2.448-3.853-3.691-.315-.618-.92-1.696-.38-2.388.335-.429.847-.332 1.3-.236.368.078.696.156.857-.047 1.023-1.286-2.341-1.618-2.91-2.269-.738-.842-1.184-3.437.317-3.675.049-.007.491.215 1.03.436 1.168.482 2.788.963 1.806-.903-.794-1.51-3.38-.452-3.693-2.607-.45-3.103 2.42-.86 3.365-.655" transform="translate(203 10)"/>
                    <path fill="#009E71" d="M20.376 86.016c-.055 0-.105-.003-.151-.01-.612-.091-1.248-.499-1.831-1.035-.144-.132-.285-.272-.421-.417-.083-.088-.164-.178-.243-.269-.258-.295-.496-.604-.706-.903-.27-.386-.494-.757-.652-1.067-.224-.44-.597-1.115-.596-1.716 0-.242.06-.473.216-.672.191-.245.441-.319.704-.319.198 0 .402.042.596.083.194.04.376.082.53.082.137 0 .251-.033.327-.13.134-.168.193-.32.193-.458 0-.047-.007-.093-.02-.138-.053-.173-.2-.324-.406-.46-.222-.146-.511-.274-.818-.393-.18-.07-.367-.136-.55-.2-.574-.204-1.111-.392-1.31-.619-.379-.433-.68-1.328-.681-2.128 0-.758.27-1.431.999-1.547h.003c.06 0 .497.218 1.027.436.529.218 1.15.436 1.581.436.315 0 .528-.116.528-.435 0-.208-.091-.501-.303-.904-.017-.033-.036-.065-.055-.096-.112-.181-.254-.322-.415-.434-.135-.094-.285-.168-.443-.23-.159-.061-.327-.11-.498-.154-.985-.253-2.085-.335-2.282-1.693-.033-.224-.048-.42-.047-.591 0-.78.32-1.039.771-1.039.82 0 2.075.852 2.64.975.284.062.52.09.713.09.559 0 .771-.234.77-.584v-.042c-.03-.611-.662-1.542-1.233-2.198l-.038-.044c-.162-.183-.369-.406-.584-.654-.577-.663-1.217-1.506-1.217-2.257 0-.471.25-.906.923-1.239.358-.177.65-.253.89-.253 1.29 0 1.078 2.213 1.67 2.91.302.353.53.5.7.5.379 0 .476-.729.476-1.531 0-.525-.042-1.081-.073-1.486-.012-.149-.022-.277-.028-.376-.02-.337-.05-.765-.05-1.203 0-1.066.172-2.189 1.048-2.189.178 0 .386.047.628.15 1.405.6 1.682 3.033 1.682 4.482 0 .147-.002.283-.007.406-.022.567-.41 2.16-.41 3.362 0 .822.18 1.46.786 1.46h.017c.78-.016 1.62-1.767 2.203-1.767.274 0 .491.387.619 1.524.011.099.016.197.016.296-.001 1.344-.982 2.669-1.307 3.883-.21.784-.369 1.379-.369 1.844 0 .668.328 1.067 1.304 1.365.122.038.238.051.35.051.17 0 .33-.032.48-.064.15-.032.29-.064.424-.064.265 0 .499.128.71.642.034.082.049.18.049.29-.001.718-.647 1.938-.935 2.375-1.176 1.785-2.475 3.164-3.691 4.176l-.214.175c-.862.691-1.675 1.196-2.366 1.527-.687.33-1.253.488-1.623.488" transform="translate(203 10)"/>
                    <path fill="#7FC5B0" d="M17.926 70.921c1.106.2 2.219.454 3.217.991-.125-1.269-.286-2.551-.192-3.808.027-.355.57-.258.543.095-.012.153-.014.308-.019.462.256-.236.443-.716.563-.96.31-.627.43-1.294.549-1.979.06-.35.603-.256.542.095-.153.888-.349 1.704-.788 2.497-.216.39-.456.809-.872.976.025 1.533.28 3.096.355 4.618.648-.3 1.224-.674 1.721-1.205.541-.577.893-1.295 1.387-1.91.223-.276.644.08.42.357-.594.74-1.005 1.578-1.71 2.23-.53.49-1.136.836-1.794 1.12.05 1.805.003 3.616-.231 5.407-.078.595-.18 1.186-.291 1.776.849-.364 1.642-.805 2.371-1.386.406-.323.842-.66 1.177-1.057.255-.3.42-.632.75-.858.293-.201.61.25.317.452-.404.278-.673.809-1.036 1.15-.35.33-.723.642-1.105.934-.783.598-1.65 1.038-2.56 1.405l-.037.007c-.199 1.014-.407 2.028-.558 3.049.014.04.02.086.01.14-.023.11-.034.276-.08.398-.412 2.043-.819 4.088-1.256 6.126-.075.346-.618.253-.543-.095.436-2.03.842-4.069 1.252-6.105l-.001-.027c.07-.558.162-1.113.263-1.667-.979-.334-1.752-1.19-2.33-2.017-.205-.292.246-.61.45-.318.503.719 1.152 1.448 1.982 1.783.242-1.26.514-2.515.682-3.785.068-.506.117-1.013.155-1.52h-.068c-1.446-.281-2.803-.901-3.903-1.896-.262-.237.091-.66.356-.422 1.03.932 2.285 1.51 3.642 1.774l.007.003c.085-1.517.06-3.04-.018-4.556-.014-.258-.034-.518-.056-.778-.068.047-.155.063-.252.01-.965-.526-2.034-.768-3.106-.96-.349-.064-.255-.609.095-.546" transform="translate(203 10)"/>
                    <path fill="#38B299" d="M32.03 74.6c-2.496-.652-.453-1.961 1.005-2.554 1.18-.479 4.165-1.378 2.701-3.328-1.534-2.042-2.48.792-3.478 1.21-2.229.935-.148-2.23.34-3.067.668-1.146 2.08-3.493.006-3.63-1.68-.11-3.133 2.38-3.691 3.604-.398.873-1.178 4.839-2.516 4.125-1.014-.54-.457-4.486-2.41-1.494-.794 1.216-.45 2.993-.725 4.315-.4 1.936-.571 2.739-2.276 2.44-.884-.155-1.029-1.23-2.006-.386-.503.436-.476 2.18-.407 2.78.644 5.506 3.24 8.955 4.327 9.317 1.472.49 3.974-.726 5.097-1.549.558-.41 1.582-1.096 1.411-1.959-.193-.968-1.68-.662-1.798-1.23-.336-1.611 2.816-.384 3.617-.707 1.036-.417 2.6-2.531 1.366-3.423-.126-.092-4.825.081-2.321-1.702 1.387-.988 3.22 1.128 4.467-.654 1.795-2.565-1.773-1.864-2.709-2.109" transform="translate(203 10)"/>
                    <path fill="#38B299" d="M32.03 74.6c-2.496-.652-.453-1.961 1.005-2.554 1.18-.479 4.165-1.378 2.701-3.328-1.534-2.042-2.48.792-3.478 1.21-2.229.935-.148-2.23.34-3.067.668-1.146 2.08-3.493.006-3.63-1.68-.11-3.133 2.38-3.691 3.604-.398.873-1.178 4.839-2.516 4.125-1.014-.54-.457-4.486-2.41-1.494-.794 1.216-.45 2.993-.725 4.315-.4 1.936-.571 2.739-2.276 2.44-.884-.155-1.029-1.23-2.006-.386-.503.436-.476 2.18-.407 2.78.644 5.506 3.24 8.955 4.327 9.317 1.472.49 3.974-.726 5.097-1.549.558-.41 1.582-1.096 1.411-1.959-.193-.968-1.68-.662-1.798-1.23-.336-1.611 2.816-.384 3.617-.707 1.036-.417 2.6-2.531 1.366-3.423-.126-.092-4.825.081-2.321-1.702 1.387-.988 3.22 1.128 4.467-.654 1.795-2.565-1.773-1.864-2.709-2.109" transform="translate(203 10)"/>
                    <path fill="#7FC5B0" d="M31.727 75.51c-1.077-.323-2.185-.6-3.316-.573.68-1.076 1.4-2.147 1.88-3.312.136-.329-.392-.487-.526-.16-.059.141-.126.28-.19.42-.124-.326-.075-.84-.073-1.11.006-.701.198-1.352.4-2.016.103-.34-.424-.502-.528-.161-.262.862-.453 1.679-.417 2.585.018.446.044.928.34 1.266-.711 1.357-1.64 2.637-2.391 3.96-.444-.56-.79-1.155-.995-1.854-.224-.76-.215-1.56-.38-2.332-.075-.349-.611-.22-.536.128.198.928.19 1.864.525 2.764.254.679.639 1.261 1.099 1.813-.856 1.588-1.627 3.225-2.222 4.93-.198.567-.372 1.14-.539 1.717-.594-.71-1.104-1.463-1.494-2.311-.216-.472-.454-.97-.576-1.476-.091-.383-.09-.755-.283-1.106-.17-.312-.657-.052-.486.26.236.43.237 1.027.408 1.496.165.453.357.9.567 1.335.43.887 1.007 1.673 1.654 2.412l.03.023c-.278.996-.547 1.994-.871 2.974-.03.03-.058.068-.072.12-.03.11-.095.263-.107.393-.55 2.01-1.106 4.019-1.63 6.035-.09.344.437.506.527.161.522-2.01 1.076-4.012 1.624-6.015l.013-.024c.188-.529.355-1.066.514-1.606 1.023.145 2.098-.27 2.986-.746.313-.168.054-.656-.259-.488-.772.415-1.68.77-2.57.694.35-1.233.67-2.477 1.09-3.687.168-.482.351-.956.545-1.427l.06.031c1.418.405 2.907.465 4.335.076.341-.093.216-.631-.127-.538-1.339.365-2.718.312-4.048-.066l-.007-.001c.605-1.392 1.31-2.74 2.062-4.058.128-.224.263-.446.4-.668.04.072.11.125.22.122 1.097-.032 2.16.236 3.203.55.34.101.5-.427.16-.53" transform="translate(203 10)"/>
                    <path fill="#E2625D" d="M26.687 89.591c0 .249-.101.475-.263.638-.163.165-.39.267-.637.267l-13.3.014c-.496 0-.902-.407-.903-.904 0-.25.102-.477.265-.64.162-.165.388-.267.636-.267l13.3-.014c.495 0 .902.407.902.906M22.76 100.265c.001.249-.1.476-.264.64-.164.165-.39.267-.637.268l-5.423.005c-.497 0-.903-.407-.904-.906 0-.248.102-.475.265-.64.075-.075.164-.137.262-.183.918.44 1.945.685 3.028.684 1.105 0 2.151-.257 3.081-.716.346.128.592.46.593.848" transform="translate(203 10)"/>
                    <path fill="#F3B145" d="M26.11 93.067c.003 2.789-1.604 5.2-3.942 6.35-.93.459-1.976.716-3.08.716-1.084.001-2.11-.244-3.029-.684-2.37-1.133-4.006-3.559-4.009-6.368 0-.907.168-1.774.478-2.571l13.1-.013c.311.797.481 1.663.482 2.57" transform="translate(203 10)"/>
                </g>
            </g>
        </g>
        <g fill="#2871C6">
            <text font-family="WorkSans-SemiBold, Work Sans" font-size="20" font-weight="500" transform="translate(-1353 -40) translate(1372 60)">
                <tspan x="0" y="22">Pre and post </tspan> <tspan x="0" y="51">hospitalization </tspan> <tspan x="0" y="80">coverage</tspan>
            </text>
            <text font-family="WorkSans-Medium, Work Sans" font-size="16" font-weight="400" transform="translate(-1353 -40) translate(1372 60)">
                <tspan x="0" y="130">60 days pre and 180 days post </tspan> <tspan x="0" y="154">hospitalization expenses covered</tspan>
            </text>
        </g>
    </g>
</svg>
