<svg xmlns="http://www.w3.org/2000/svg" xmlns:xlink="http://www.w3.org/1999/xlink" width="320" height="192" viewBox="0 0 320 192">
  <defs>
    <rect id="ils_alternate_assets-a" width="320" height="192" x="0" y="0"/>
    <linearGradient id="ils_alternate_assets-c" x1="100%" x2="0%" y1="89.04%" y2="30.566%">
      <stop offset="0%" stop-color="#FFF" stop-opacity="0"/>
      <stop offset="100%" stop-color="#3792FC"/>
    </linearGradient>
    <linearGradient id="ils_alternate_assets-d" x1="50%" x2="50%" y1="100%" y2="2.057%">
      <stop offset="0%" stop-color="#FFF"/>
      <stop offset="100%" stop-color="#2A7FE2"/>
    </linearGradient>
    <linearGradient id="ils_alternate_assets-e" x1="50%" x2="50%" y1=".295%" y2="99.705%">
      <stop offset="0%" stop-color="#D9EDFF"/>
      <stop offset="99.926%" stop-color="#BEDCFF"/>
    </linearGradient>
    <linearGradient id="ils_alternate_assets-f" x1="50%" x2="50%" y1=".298%" y2="100%">
      <stop offset="0%" stop-color="#D5EBFF"/>
      <stop offset="100%" stop-color="#AAD1FD"/>
    </linearGradient>
    <linearGradient id="ils_alternate_assets-g" x1="50%" x2="50%" y1="76.868%" y2="17.026%">
      <stop offset=".016%" stop-color="#C0E0FD"/>
      <stop offset="100%" stop-color="#BDDBFF"/>
    </linearGradient>
    <polygon id="ils_alternate_assets-h" points="18.237 0 98.2 0 86.977 7.014 8.417 7.014"/>
    <filter id="ils_alternate_assets-i" width="103.3%" height="142.8%" x="-1.7%" y="-21.4%" filterUnits="objectBoundingBox">
      <feGaussianBlur in="SourceAlpha" result="shadowBlurInner1" stdDeviation="1"/>
      <feOffset dy="1" in="shadowBlurInner1" result="shadowOffsetInner1"/>
      <feComposite in="shadowOffsetInner1" in2="SourceAlpha" k2="-1" k3="1" operator="arithmetic" result="shadowInnerInner1"/>
      <feColorMatrix in="shadowInnerInner1" values="0 0 0 0 1   0 0 0 0 0.970636977   0 0 0 0 0.828715701  0 0 0 0.400513549 0"/>
    </filter>
    <linearGradient id="ils_alternate_assets-j" x1="50%" x2="50%" y1=".295%" y2="99.705%">
      <stop offset="0%" stop-color="#D9EDFF"/>
      <stop offset="99.926%" stop-color="#BEDCFF"/>
    </linearGradient>
    <linearGradient id="ils_alternate_assets-k" x1="50%" x2="50%" y1=".298%" y2="100%">
      <stop offset="0%" stop-color="#D5EBFF"/>
      <stop offset="100%" stop-color="#AAD1FD"/>
    </linearGradient>
    <linearGradient id="ils_alternate_assets-l" x1="50%" x2="50%" y1="76.868%" y2="17.026%">
      <stop offset=".016%" stop-color="#C0E0FD"/>
      <stop offset="100%" stop-color="#BDDBFF"/>
    </linearGradient>
    <polygon id="ils_alternate_assets-m" points="7.014 0 48.374 0 42.569 3.628 3.141 3.544"/>
    <filter id="ils_alternate_assets-n" width="106.6%" height="182.7%" x="-3.3%" y="-41.3%" filterUnits="objectBoundingBox">
      <feGaussianBlur in="SourceAlpha" result="shadowBlurInner1" stdDeviation="1"/>
      <feOffset dy="1" in="shadowBlurInner1" result="shadowOffsetInner1"/>
      <feComposite in="shadowOffsetInner1" in2="SourceAlpha" k2="-1" k3="1" operator="arithmetic" result="shadowInnerInner1"/>
      <feColorMatrix in="shadowInnerInner1" values="0 0 0 0 1   0 0 0 0 0.970636977   0 0 0 0 0.828715701  0 0 0 0.400513549 0"/>
    </filter>
  </defs>
  <g fill="none" fill-rule="evenodd">
    <mask id="ils_alternate_assets-b" fill="#fff">
      <use xlink:href="#ils_alternate_assets-a"/>
    </mask>
    <g mask="url(#ils_alternate_assets-b)">
      <g transform="translate(0 7)">
        <path fill="#F4F9FE" fill-rule="nonzero" d="M253.440469,76.3192038 C307.68738,81.3192038 311.847632,62.3569472 310.193558,46.3192038 C308.539484,30.2814604 263.488975,31.0808419 247.083251,14.6802273 C230.677527,-1.72038723 204.225378,0.0563460158 179.272927,0.0563460158 C154.320476,0.0563460158 131.193558,50.3192038 152.193558,71.3192038 C173.193558,92.3192038 199.193558,71.3192038 253.440469,76.3192038 Z" transform="rotate(180 227.236 40.425)"/>
        <path fill="#F4F9FF" fill-rule="nonzero" d="M74.2460353,145.736675 C162.691088,114.226043 202,185.124965 202,145.736675 C202,106.348384 154.829305,86.6542393 131.243958,63.021265 C107.658611,39.3882906 117.98019,0 82.1078178,0 C46.2354458,0 64.3081337,22.0795894 25.1098952,39.3882906 C-14.0883436,56.6969917 -14.1990171,177.247308 74.2460353,145.736675 Z"/>
        <path fill="#F0F7FF" d="M203.5,166.823299 C284.153846,138.104748 320,202.721487 320,166.823299 C320,130.92511 276.984615,112.976016 255.476923,91.4371022 C233.969231,69.8981889 243.381572,34 210.669231,34 C177.956889,34 194.437537,54.1231701 158.692308,69.8981889 C122.947078,85.6732076 87,44.7694566 87,91.4371022 C87,138.104748 122.846154,195.54185 203.5,166.823299 Z" transform="matrix(-1 0 0 1 407 0)"/>
        <g transform="translate(20 11)">
          <path fill="#3792FC" fill-rule="nonzero" d="M61.506677,68.6072984 C61.6377603,67.7521358 61.6127921,66.9406676 62.0871889,66.185378 C63.0422245,64.6872828 64.3967522,65.0618066 65.7075854,65.7234653 C67.0433869,66.3976081 68.3042837,66.7971001 69.7524423,66.1728938 C72.0183112,65.1928899 73.085704,61.7722394 70.9197081,60.1617871 C70.220597,59.6374538 69.527728,60.4988585 69.621359,61.1605172 C69.7524423,62.0781005 70.2081129,63.0955567 69.421613,63.8820567 C68.3667043,64.9369654 67.1307758,64.0505924 66.0758672,63.5761956 C64.9398117,63.0643464 63.7288514,62.9519893 62.5615856,63.4263861 C60.5453993,64.2440964 59.0785145,66.97812 60.6827247,68.8257706 C60.9074389,69.0816952 61.4504984,68.963096 61.506677,68.6072984 L61.506677,68.6072984 Z" opacity=".1"/>
          <path fill="#3792FC" fill-rule="nonzero" d="M2.7147951 133.405008C6.09361412 132.484918 9.58067906 131.356068 12.7430062 129.856089 13.9027839 129.307127 13.1527944 127.683438 11.9698211 128.054567 8.69151616 129.075172 5.40547935 130.567419 2.35912994 132.144717 1.74831368 132.461723 1.94934182 133.613768 2.7147951 133.405008L2.7147951 133.405008zM222.348165 77.2907833C222.543022 77.9221172 223.143178 78.1247676 223.688776 77.7506438 225.832193 76.2931197 227.967817 74.8667727 230.002115 73.2533637 230.391827 72.9415939 230.306091 72.3180542 229.924173 72.0530498 227.546928 70.4240524 224.343492 68.0156303 221.327119 68 220.563283 67.9922476 220.02548 69.0756478 220.804905 69.5199198 222.020807 70.221402 223.478331 70.4708179 224.77997 71.0086209 226.276465 71.6321605 227.765166 72.3648197 229.090188 73.3079235 229.121365 72.8714457 229.152542 72.4349679 229.175925 71.9984901 226.907799 73.3936602 224.772176 74.9603037 222.620964 76.5191529 223.041853 76.6048896 223.470537 76.6906263 223.891426 76.776363 222.971705 74.1730848 222.028601 71.5931893 221.007555 69.0288823 220.781522 68.4910793 219.861801 68.7872607 220.017686 69.3562407 220.734756 72.0218729 221.521975 74.6563281 222.348165 77.2907833z" opacity=".2"/>
          <path fill="#3792FC" fill-rule="nonzero" d="M.360018916 49.3720189C2.83438518 49.5585565 5.43493863 49.6298797 7.90930489 49.3829917 8.82004724 49.2952093 8.70483284 48.055283 7.82152249 48.0223646 5.38556103 47.9290958 2.83438518 48.137579.425855712 48.4612766-.0514610605 48.5271134-.199593852 49.3281277.360018916 49.3720189L.360018916 49.3720189zM281.618038 12.2055237C278.934485 14.7821622 277.918798 18.7914544 280.474053 21.8919737 282.879629 24.8107385 287.551791 25.4201509 290.556087 23.1001071 297.82627 17.487098 290.246035 7.14846984 282.409205 9.28675902 280.955168 9.68234252 281.318678 11.756483 282.751331 11.8313231 285.039301 11.9596205 287.498333 12.0451521 289.326571 13.6595604 291.293797 15.3808832 291.336562 18.2996479 289.722154 20.2882568 285.445576 25.5377568 278.025712 17.8078414 282.51612 13.1036052 283.093458 12.5155757 282.216759 11.6388771 281.618038 12.2055237L281.618038 12.2055237z" opacity=".1"/>
          <path fill="#3792FC" fill-rule="nonzero" d="M162.016151,9.36469541 C162.737692,12.046945 163.529818,14.6978233 164.361159,17.3487016 C164.55723,17.9839712 165.161128,18.187885 165.710127,17.8114289 C167.866906,16.3448187 170.015843,14.9095799 172.062823,13.286113 C172.454965,12.9723996 172.368694,12.3449728 171.984395,12.0783164 C169.59233,10.4391638 166.368925,8.01572777 163.333747,8 C162.56515,7.99219926 162.023994,9.08235335 162.808278,9.52939495 C164.03176,10.2352501 165.49837,10.4862208 166.808123,11.0273765 C168.313948,11.6548033 169.811929,12.3920298 171.145211,13.3410128 C171.176583,12.9018141 171.207954,12.4626153 171.231482,12.0234165 C168.949217,13.427284 166.800281,15.0036939 164.635658,16.5722609 C165.059171,16.6585321 165.490527,16.7448033 165.91404,16.8310745 C164.988586,14.2115675 164.039603,11.6155891 163.012191,9.03529633 C162.792592,8.49414071 161.867137,8.79216844 162.016151,9.36469541 L162.016151,9.36469541 Z" opacity=".2" transform="rotate(50 167.159 13)"/>
          <path fill="#3792FC" fill-rule="nonzero" d="M259.369401,151.156344 C260.781166,150.481604 262.227533,149.703057 263.500889,148.789562 C263.968017,148.453922 263.50781,147.799943 263.01646,148.059458 C261.656598,148.772261 260.327879,149.692676 259.116806,150.630393 C258.867671,150.817244 259.047602,151.308593 259.369401,151.156344 L259.369401,151.156344 Z" opacity=".2" transform="rotate(-80 261.348 149.593)"/>
          <path fill="#3792FC" fill-rule="nonzero" d="M80.8864583,6.77291593 C80.4789049,4.64404883 79.9466881,2.42887632 79.1699393,0.400698886 C78.8870493,-0.342486699 77.8465895,0.0410929578 78.0192004,0.793868033 C78.4938802,2.86999292 79.2610395,4.97009154 80.0905305,6.92634779 C80.2583466,7.32431168 80.9823532,7.25718524 80.8864583,6.77291593 L80.8864583,6.77291593 Z" opacity=".2"/>
        </g>
      </g>
    </g>
    <g mask="url(#ils_alternate_assets-b)">
      <g transform="translate(31.466 35.555)">
        <g transform="rotate(50 75.288 252.656)">
          <path fill="#E1ECF7" d="M28.2140039,83.7169625 C45.4443261,71.3059925 54.1153846,57.550123 54.1153846,42.3210059 C54.1153846,26.7388418 45.0961538,12.6318398 27.0576923,0 C9.01923077,12.6318398 0,26.7388418 0,42.3210059 C0,57.5590836 8.65077643,71.3003492 25.9013807,83.7169625 C26.2909114,83.9973383 27.8145642,84.0046782 28.2140039,83.7169625 Z"/>
          <path fill="#CCDAE8" fill-rule="nonzero" d="M43.9398422,60.5907298 C39.977072,61.494148 36.7393994,62.727547 34.2268245,64.290927 C31.7142495,65.854307 29.4016262,68.9378047 27.2889546,73.5414201 L27.2889546,72.6163708 C29.5875819,68.1019941 31.9002051,65.1726713 34.2268245,63.8284024 C36.5534438,62.4841334 39.7911164,61.4049092 43.9398422,60.5907298 Z"/>
          <path fill="#CCDAE8" fill-rule="nonzero" d="M26.82643,52.265286 C22.8636598,53.1687042 19.6259872,54.4021033 17.1134122,55.9654832 C14.6008373,57.5288632 12.1340391,60.6123609 9.71301775,65.2159763 L9.71301775,64.290927 C12.3199948,59.7765503 14.7867929,56.8472275 17.1134122,55.5029586 C19.4400315,54.1586896 22.6777041,53.0794655 26.82643,52.265286 Z" transform="matrix(-1 0 0 1 36.54 0)"/>
          <path fill="#CCDAE8" fill-rule="nonzero" d="M48.1025641,37.9270217 C42.9063948,38.8304399 39.0520227,40.063839 36.5394477,41.6272189 C34.0268728,43.1905989 30.9433751,46.2740966 27.2889546,50.877712 L27.2889546,49.9526627 C31.1293307,45.438286 34.2128284,42.5089632 36.5394477,41.1646943 C38.866067,39.8204253 42.7204392,38.7412012 48.1025641,37.9270217 Z"/>
          <path fill="#CCDAE8" fill-rule="nonzero" d="M26.82643,29.6015779 C21.6302607,30.5049961 17.7758886,31.7383952 15.2633136,33.3017751 C12.7507386,34.8651551 9.66724095,37.9486528 6.01282051,42.5522682 L6.01282051,41.6272189 C9.8531966,37.1128422 12.9366943,34.1835194 15.2633136,32.8392505 C17.5899329,31.4949816 21.444305,30.4157574 26.82643,29.6015779 Z" transform="matrix(-1 0 0 1 32.84 0)"/>
          <path fill="#CCDAE8" fill-rule="nonzero" d="M41.3298817,22.2011834 C37.2471772,22.911012 34.218742,23.8801113 32.2445759,25.1084813 C30.2704099,26.3368512 27.8476617,28.7595994 24.9763314,32.3767258 L24.9763314,31.6499014 C27.9937697,28.1028911 30.4165179,25.8012803 32.2445759,24.745069 C34.072634,23.6888577 37.1010692,22.8408959 41.3298817,22.2011834 Z" transform="rotate(-20 33.153 27.289)"/>
          <path fill="#CCDAE8" fill-rule="nonzero" d="M27.9001479,15.2633136 C24.7453309,15.8118175 22.4051764,16.5606669 20.8796844,17.5098619 C19.3541925,18.4590569 17.4820689,20.3311805 15.2633136,23.1262327 L15.2633136,22.5645957 C17.5949705,19.8237241 19.4670941,18.0452067 20.8796844,17.2290434 C22.2922747,16.4128801 24.6324292,15.7576369 27.9001479,15.2633136 Z" transform="scale(-1 1) rotate(-10 0 265.875)"/>
          <polygon fill="#CCDAE8" fill-rule="nonzero" points="27.052 0 27.751 83.717 26.364 83.717"/>
        </g>
        <g transform="rotate(30 78.075 342.941)">
          <path fill="#E9F4FF" fill-rule="nonzero" d="M26.8225641,87.905641 C34.9746816,82.0336855 46.8107417,69.1172636 48.72,63.84 C50.6292583,58.5627364 42.84,60.2427364 42,53.76 C41.16,47.2772636 51.443953,45.0109195 51.24,40.32 C51.036047,35.6290805 40.5457194,37.9311806 38.64,33.6 C36.7342806,29.2688194 43.2482648,24.3130594 42,19.32 C40.7517352,14.3269406 36.6535885,16.8252928 33.6,13.44 C30.9550761,10.5077641 28.4760457,1.37550857 25.62,0.84 C22.7639543,0.304491434 23.6978734,7.27491827 20.16,10.92 C16.6221266,14.5650817 12.9434626,12.5840087 11.76,15.12 C10.5765374,17.6559913 19.2346284,17.6363788 14.28,23.52 C9.32537161,29.4036212 1.98060369,25.5537244 0.84,30.24 C-0.30060369,34.9262756 8.68920006,39.0865061 9.24,44.2273056 C9.79079994,49.3681051 -0.446126588,46.0219355 0.84,54.6 C2.12612659,63.1780645 9.21130511,66.2211779 13.44,72.24 C17.1287785,77.4903437 18.0659979,83.3340128 24.4174359,87.905641 C24.8225478,88.1972319 26.4071468,88.2048654 26.8225641,87.905641 Z"/>
          <path fill="#C0D2E4" fill-rule="nonzero" d="M43.1774359,63.854359 C39.0561549,64.7939139 35.6889754,66.0766489 33.0758974,67.7025641 C30.4628195,69.3284793 28.0576913,72.5353169 25.8605128,77.3230769 L25.8605128,76.3610256 C28.2510851,71.6660739 30.6562134,68.6195782 33.0758974,67.2215385 C35.4955815,65.8234988 38.862761,64.7011056 43.1774359,63.854359 Z"/>
          <path fill="#C0D2E4" fill-rule="nonzero" d="M25.3794872,55.1958974 C21.2582062,56.1354523 17.8910267,57.4181874 15.2779487,59.0441026 C12.6648708,60.6700177 10.0994007,63.8768553 7.58153846,68.6646154 L7.58153846,67.7025641 C10.2927946,63.0076123 12.8582646,59.9611166 15.2779487,58.5630769 C17.6976328,57.1650372 21.0648123,56.0426441 25.3794872,55.1958974 Z" transform="matrix(-1 0 0 1 32.961 0)"/>
          <path fill="#C0D2E4" fill-rule="nonzero" d="M47.5066667,40.2841026 C42.1026506,41.2236575 38.0941036,42.5063925 35.4810256,44.1323077 C32.8679477,45.7582229 29.6611101,48.9650605 25.8605128,53.7528205 L25.8605128,52.7907692 C29.854504,48.0958175 33.0613416,45.0493217 35.4810256,43.6512821 C37.9007097,42.2532424 41.9092567,41.1308492 47.5066667,40.2841026 Z"/>
          <path fill="#C0D2E4" fill-rule="nonzero" d="M25.3794872,31.625641 C19.9754711,32.5651959 15.9669241,33.847931 13.3538462,35.4738462 C10.7407682,37.0997613 7.53393059,40.3065989 3.73333333,45.094359 L3.73333333,44.1323077 C7.72732447,39.4373559 10.9341621,36.3908602 13.3538462,34.9928205 C15.7735302,33.5947808 19.7820772,32.4723877 25.3794872,31.625641 Z" transform="matrix(-1 0 0 1 29.113 0)"/>
          <path fill="#C0D2E4" fill-rule="nonzero" d="M40.4630769,23.9292308 C36.2170643,24.6674525 33.0674917,25.6753157 31.014359,26.9528205 C28.9612263,28.2303253 26.4415682,30.7499834 23.4553846,34.5117949 L23.4553846,33.7558974 C26.5935205,30.0670068 29.1131786,27.6733316 31.014359,26.5748718 C32.9155393,25.476412 36.065112,24.5945317 40.4630769,23.9292308 Z" transform="rotate(-20 31.96 29.22)"/>
          <path fill="#C0D2E4" fill-rule="nonzero" d="M26.4961538,16.7138462 C23.2151441,17.2842902 20.7813834,18.0630936 19.1948718,19.0502564 C17.6083602,20.0374192 15.6613516,21.9844277 13.3538462,24.8912821 L13.3538462,24.3071795 C15.7787693,21.4566731 17.7257779,19.6070149 19.1948718,18.7582051 C20.6639657,17.9093953 23.0977264,17.2279423 26.4961538,16.7138462 Z" transform="scale(-1 1) rotate(-10 0 248.546)"/>
          <polygon fill="#C0D2E4" fill-rule="nonzero" points="25.614 .84 26.342 104.706 24.898 104.706"/>
        </g>
        <g transform="rotate(-30 60.607 -32.09)">
          <path fill="#E9F4FF" fill-rule="nonzero" d="M26.8225641,87.905641 C34.9746816,82.0336855 46.8107417,69.1172636 48.72,63.84 C50.6292583,58.5627364 42.84,60.2427364 42,53.76 C41.16,47.2772636 51.443953,45.0109195 51.24,40.32 C51.036047,35.6290805 40.5457194,37.9311806 38.64,33.6 C36.7342806,29.2688194 43.2482648,24.3130594 42,19.32 C40.7517352,14.3269406 36.6535885,16.8252928 33.6,13.44 C30.9550761,10.5077641 28.4760457,1.37550857 25.62,0.84 C22.7639543,0.304491434 23.6978734,7.27491827 20.16,10.92 C16.6221266,14.5650817 12.9434626,12.5840087 11.76,15.12 C10.5765374,17.6559913 19.2346284,17.6363788 14.28,23.52 C9.32537161,29.4036212 1.98060369,25.5537244 0.84,30.24 C-0.30060369,34.9262756 8.68920006,39.0865061 9.24,44.2273056 C9.79079994,49.3681051 -0.446126588,46.0219355 0.84,54.6 C2.12612659,63.1780645 9.21130511,66.2211779 13.44,72.24 C17.1287785,77.4903437 18.0659979,83.3340128 24.4174359,87.905641 C24.8225478,88.1972319 26.4071468,88.2048654 26.8225641,87.905641 Z"/>
          <path fill="#C9DAEC" fill-rule="nonzero" d="M43.1774359,63.854359 C39.0561549,64.7939139 35.6889754,66.0766489 33.0758974,67.7025641 C30.4628195,69.3284793 28.0576913,72.5353169 25.8605128,77.3230769 L25.8605128,76.3610256 C28.2510851,71.6660739 30.6562134,68.6195782 33.0758974,67.2215385 C35.4955815,65.8234988 38.862761,64.7011056 43.1774359,63.854359 Z"/>
          <path fill="#C9DAEC" fill-rule="nonzero" d="M25.3794872,55.1958974 C21.2582062,56.1354523 17.8910267,57.4181874 15.2779487,59.0441026 C12.6648708,60.6700177 10.0994007,63.8768553 7.58153846,68.6646154 L7.58153846,67.7025641 C10.2927946,63.0076123 12.8582646,59.9611166 15.2779487,58.5630769 C17.6976328,57.1650372 21.0648123,56.0426441 25.3794872,55.1958974 Z" transform="matrix(-1 0 0 1 32.961 0)"/>
          <path fill="#C9DAEC" fill-rule="nonzero" d="M47.5066667,40.2841026 C42.1026506,41.2236575 38.0941036,42.5063925 35.4810256,44.1323077 C32.8679477,45.7582229 29.6611101,48.9650605 25.8605128,53.7528205 L25.8605128,52.7907692 C29.854504,48.0958175 33.0613416,45.0493217 35.4810256,43.6512821 C37.9007097,42.2532424 41.9092567,41.1308492 47.5066667,40.2841026 Z"/>
          <path fill="#C9DAEC" fill-rule="nonzero" d="M25.3794872,31.625641 C19.9754711,32.5651959 15.9669241,33.847931 13.3538462,35.4738462 C10.7407682,37.0997613 7.53393059,40.3065989 3.73333333,45.094359 L3.73333333,44.1323077 C7.72732447,39.4373559 10.9341621,36.3908602 13.3538462,34.9928205 C15.7735302,33.5947808 19.7820772,32.4723877 25.3794872,31.625641 Z" transform="matrix(-1 0 0 1 29.113 0)"/>
          <path fill="#C9DAEC" fill-rule="nonzero" d="M40.4630769,23.9292308 C36.2170643,24.6674525 33.0674917,25.6753157 31.014359,26.9528205 C28.9612263,28.2303253 26.4415682,30.7499834 23.4553846,34.5117949 L23.4553846,33.7558974 C26.5935205,30.0670068 29.1131786,27.6733316 31.014359,26.5748718 C32.9155393,25.476412 36.065112,24.5945317 40.4630769,23.9292308 Z" transform="rotate(-20 31.96 29.22)"/>
          <path fill="#C9DAEC" fill-rule="nonzero" d="M26.4961538,16.7138462 C23.2151441,17.2842902 20.7813834,18.0630936 19.1948718,19.0502564 C17.6083602,20.0374192 15.6613516,21.9844277 13.3538462,24.8912821 L13.3538462,24.3071795 C15.7787693,21.4566731 17.7257779,19.6070149 19.1948718,18.7582051 C20.6639657,17.9093953 23.0977264,17.2279423 26.4961538,16.7138462 Z" transform="scale(-1 1) rotate(-10 0 248.546)"/>
          <polygon fill="#C9DAEC" fill-rule="nonzero" points="25.614 .84 26.342 104.706 24.898 104.706"/>
        </g>
        <g transform="rotate(-70 68.715 47.291)">
          <path fill="#DCEEFF" fill-rule="nonzero" d="M26.8225641,87.905641 C34.9746816,82.0336855 46.8107417,69.1172636 48.72,63.84 C50.6292583,58.5627364 42.84,60.2427364 42,53.76 C41.16,47.2772636 51.443953,45.0109195 51.24,40.32 C51.036047,35.6290805 40.5457194,37.9311806 38.64,33.6 C36.7342806,29.2688194 43.2482648,24.3130594 42,19.32 C40.7517352,14.3269406 36.6535885,16.8252928 33.6,13.44 C30.9550761,10.5077641 28.4760457,1.37550857 25.62,0.84 C22.7639543,0.304491434 23.6978734,7.27491827 20.16,10.92 C16.6221266,14.5650817 12.9434626,12.5840087 11.76,15.12 C10.5765374,17.6559913 19.2346284,17.6363788 14.28,23.52 C9.32537161,29.4036212 1.98060369,25.5537244 0.84,30.24 C-0.30060369,34.9262756 8.68920006,39.0865061 9.24,44.2273056 C9.79079994,49.3681051 -0.446126588,46.0219355 0.84,54.6 C2.12612659,63.1780645 9.21130511,66.2211779 13.44,72.24 C17.1287785,77.4903437 18.0659979,83.3340128 24.4174359,87.905641 C24.8225478,88.1972319 26.4071468,88.2048654 26.8225641,87.905641 Z"/>
          <path fill="#BED7EE" fill-rule="nonzero" d="M43.1774359,63.854359 C39.0561549,64.7939139 35.6889754,66.0766489 33.0758974,67.7025641 C30.4628195,69.3284793 28.0576913,72.5353169 25.8605128,77.3230769 L25.8605128,76.3610256 C28.2510851,71.6660739 30.6562134,68.6195782 33.0758974,67.2215385 C35.4955815,65.8234988 38.862761,64.7011056 43.1774359,63.854359 Z"/>
          <path fill="#BED7EE" fill-rule="nonzero" d="M25.3794872,55.1958974 C21.2582062,56.1354523 17.8910267,57.4181874 15.2779487,59.0441026 C12.6648708,60.6700177 10.0994007,63.8768553 7.58153846,68.6646154 L7.58153846,67.7025641 C10.2927946,63.0076123 12.8582646,59.9611166 15.2779487,58.5630769 C17.6976328,57.1650372 21.0648123,56.0426441 25.3794872,55.1958974 Z" transform="matrix(-1 0 0 1 32.961 0)"/>
          <path fill="#BED7EE" fill-rule="nonzero" d="M47.5066667,40.2841026 C42.1026506,41.2236575 38.0941036,42.5063925 35.4810256,44.1323077 C32.8679477,45.7582229 29.6611101,48.9650605 25.8605128,53.7528205 L25.8605128,52.7907692 C29.854504,48.0958175 33.0613416,45.0493217 35.4810256,43.6512821 C37.9007097,42.2532424 41.9092567,41.1308492 47.5066667,40.2841026 Z"/>
          <path fill="#BED7EE" fill-rule="nonzero" d="M25.3794872,31.625641 C19.9754711,32.5651959 15.9669241,33.847931 13.3538462,35.4738462 C10.7407682,37.0997613 7.53393059,40.3065989 3.73333333,45.094359 L3.73333333,44.1323077 C7.72732447,39.4373559 10.9341621,36.3908602 13.3538462,34.9928205 C15.7735302,33.5947808 19.7820772,32.4723877 25.3794872,31.625641 Z" transform="matrix(-1 0 0 1 29.113 0)"/>
          <path fill="#BED7EE" fill-rule="nonzero" d="M40.4630769,23.9292308 C36.2170643,24.6674525 33.0674917,25.6753157 31.014359,26.9528205 C28.9612263,28.2303253 26.4415682,30.7499834 23.4553846,34.5117949 L23.4553846,33.7558974 C26.5935205,30.0670068 29.1131786,27.6733316 31.014359,26.5748718 C32.9155393,25.476412 36.065112,24.5945317 40.4630769,23.9292308 Z" transform="rotate(-20 31.96 29.22)"/>
          <path fill="#BED7EE" fill-rule="nonzero" d="M26.4961538,16.7138462 C23.2151441,17.2842902 20.7813834,18.0630936 19.1948718,19.0502564 C17.6083602,20.0374192 15.6613516,21.9844277 13.3538462,24.8912821 L13.3538462,24.3071795 C15.7787693,21.4566731 17.7257779,19.6070149 19.1948718,18.7582051 C20.6639657,17.9093953 23.0977264,17.2279423 26.4961538,16.7138462 Z" transform="scale(-1 1) rotate(-10 0 248.546)"/>
          <polygon fill="#BED7EE" fill-rule="nonzero" points="25.614 .84 26.342 104.706 24.898 104.706"/>
        </g>
      </g>
    </g>
    <path fill="url(#ils_alternate_assets-c)" fill-rule="nonzero" d="M77.6940639,23.6045217 L96.8337232,32.8199132 L90.506,37.714 L119.893,75.703 L165.436742,89.5649892 L165.72909,89.6539647 L165.96333,89.8502193 L202.773,120.691 L243.545314,136.602634 L242.454686,139.397366 L201.454686,123.397366 L201.225362,123.307874 L201.03667,123.149781 L164.271,92.346 L118.563258,78.4350108 L118.106012,78.295849 L117.813565,77.9178082 L88.132,39.55 L81.8055463,44.445484 L77.6940639,23.6045217 Z"/>
    <g mask="url(#ils_alternate_assets-b)">
      <g transform="translate(71 81)">
        <path fill="url(#ils_alternate_assets-d)" fill-rule="nonzero" d="M76.676873,72.0184142 C79.2079036,73.2076061 77.7435371,74.5031196 72.7329154,75.5076021 C67.7222937,76.5120846 59.7634602,77.1056461 51.2975024,77.1062328 L34.4788523,77.1062328 L34.4788523,77.287217 C34.4768638,77.3600733 34.2750272,77.4297221 33.9191482,77.480357 L28.0468426,78.3136949 C27.7066572,78.3619612 27.2531079,78.3890532 26.7806267,78.3893301 L19.3760164,78.3893301 C18.3625212,78.3893301 17.540921,78.2683907 17.540921,78.1192044 L17.540921,77.7734434 L13.2100956,77.7734434 C12.2371402,77.7734434 11.4484039,77.6573416 11.4484039,77.5141227 L11.4484039,75.8933681 C10.6498943,75.6298444 10.2372243,75.3445273 10.2372409,75.0559783 C10.2372409,74.6606345 8.06000031,74.340145 5.37423789,74.340145 L3.88781055,74.340145 C2.87478054,74.340156 1.90389515,74.2804608 1.19189764,74.174386 C0.479900125,74.0683113 0.0860740841,73.9246891 0.098060275,73.7755822 L0.098060275,72.2426185 C0.103380399,71.9602184 1.65736317,71.7314724 3.57584432,71.7307302 C5.24305072,71.7312177 6.79797503,71.6071114 7.70480916,71.4011768 L12.0172835,70.4260228 C15.0133634,69.7470003 20.0393913,69.3205807 25.5327618,69.279339 L25.5327618,68.8565922 C25.5229556,68.7288527 25.8608331,68.6058478 26.4710397,68.5150106 C27.0812463,68.4241733 27.9130292,68.3730671 28.7808808,68.3730671 L34.8733978,68.3730671 C36.6601251,68.373809 38.1073012,68.5868331 38.1123413,68.849839 L38.1123413,69.2685339 L45.4527233,69.2685339 L45.4527233,68.849839 C45.4577634,68.5868331 46.9049396,68.373809 48.6916668,68.3730671 L54.7841838,68.3730671 C56.5709111,68.373809 58.0180872,68.5868331 58.0231274,68.849839 L58.0231274,69.3900905 C65.8536991,69.6962296 72.3169973,70.5090153 75.5941666,71.5997192 C76.559322,71.2749376 78.6103037,71.0483813 80.9985228,71.0027413 C81.6429026,70.9975198 82.0824587,71.0537566 82.1179311,71.1283498 C82.1534034,71.202943 81.7713593,71.2676455 81.2646117,71.2728671 C77.3558583,71.3539048 76.7686277,71.9049613 76.676873,72.0184142 Z" opacity=".1"/>
        <path fill="#96C7FF" fill-rule="nonzero" d="M81.2646117,48.3940419 C77.3558583,47.8251623 76.7686277,44.0815675 76.676873,43.3108274 C79.2079036,35.2320688 77.7435371,26.4310166 72.7329154,19.6070788 C67.7222937,12.783141 59.7634602,8.75078951 51.2975024,8.74680393 L34.4788523,8.74680393 L34.4788523,7.51728996 C34.4768638,7.02234215 34.2750272,6.5491842 33.9191482,6.20519669 L28.0468426,0.543927115 C27.7066572,0.216030932 27.2531079,0.0319819511 26.7806267,0.0301003792 L19.3760164,0.0301003792 C18.3625212,0.0301003792 17.540921,0.851700613 17.540921,1.86519586 L17.540921,4.21411808 L13.2100956,4.21411808 C12.2371402,4.21411808 11.4484039,5.00285431 11.4484039,5.97580975 L11.4484039,16.9863827 C10.6498943,18.7766271 10.2372243,20.7149254 10.2372409,22.6751787 C10.2372409,25.3609411 8.06000031,27.5381817 5.37423789,27.5381817 L3.88781055,27.5381817 C2.87478054,27.5381075 1.90389515,27.9436458 1.19189764,28.6642631 C0.479900125,29.3848805 0.0860740841,30.3605755 0.098060275,31.3735313 L0.098060275,41.7876981 C0.103380399,43.7061793 1.65736317,45.2601621 3.57584432,45.2652041 C5.24305072,45.2618921 6.79797503,46.1050066 7.70480916,47.5040206 L12.0172835,54.1287153 C15.0133634,58.7416452 20.0393913,61.6385208 25.5327618,61.9186956 L25.5327618,64.79062 C25.5229556,65.6584162 25.8608331,66.4940481 26.4710397,67.1111497 C27.0812463,67.7282513 27.9130292,68.075441 28.7808808,68.075441 L34.8733978,68.075441 C36.6601251,68.0704008 38.1073012,66.6232247 38.1123413,64.8364974 L38.1123413,61.9920994 L45.4527233,61.9920994 L45.4527233,64.8364974 C45.4577634,66.6232247 46.9049396,68.0704008 48.6916668,68.075441 L54.7841838,68.075441 C56.5709111,68.0704008 58.0180872,66.6232247 58.0231274,64.8364974 L58.0231274,61.1663065 C65.8536991,59.0865549 72.3169973,53.564907 75.5941666,46.1552254 C76.559322,48.3616251 78.6103037,49.9007319 80.9985228,50.2107864 L81.136155,50.2107864 C81.6429026,50.2462587 82.0824587,49.8642146 82.1179311,49.357467 C82.1534034,48.8507194 81.7713593,48.4111633 81.2646117,48.3756909 L81.2646117,48.3940419 Z"/>
        <path fill="#83B5EF" d="M36.2313685 64.7722691C36.2487554 65.1493021 36.1135904 65.517454 35.8563683 65.7936658 35.5991461 66.0698775 35.2415372 66.2308786 34.8642223 66.2403455L28.7808808 66.2403455C28.0055569 66.2403455 27.3770328 65.6118213 27.3770328 64.8364974L27.3770328 61.9920994 36.2772459 61.9920994 36.2313685 64.7722691zM56.15133 64.7722691C56.1687169 65.1493021 56.0335519 65.517454 55.7763297 65.7936658 55.5191076 66.0698775 55.1614987 66.2308786 54.7841838 66.2403455L48.6916668 66.2403455C47.9163429 66.2403455 47.2878188 65.6118213 47.2878188 64.8364974L47.2878188 61.9920994 51.2975024 61.9920994C52.9383372 61.990289 54.5754874 61.8367102 56.1880319 61.5333256L56.15133 64.7722691z"/>
        <path fill="#96C7FF" d="M51.3530077,59.6023794 L26.5425167,59.6023794 C21.3373626,59.618473 16.4795432,56.9926247 13.6417954,52.6290166 L9.32932106,46.0043219 C8.08518755,44.0864152 5.95414705,42.9293672 3.66805148,42.9305369 C2.76305821,42.925523 2.03065495,42.1931197 2.02564103,41.2881265 L2.02564103,30.8831351 C2.03066321,29.8109172 2.89862442,28.942956 3.97084224,28.9379338 L5.47562054,28.9379338 C9.17278265,28.9328796 12.1686648,25.9369974 12.1737191,22.2398353 C12.1866669,18.1616855 14.2572526,14.3656118 17.6790055,12.1468102 L17.6790055,16.5510393 C17.6790055,21.2232524 21.4665826,25.0108295 26.1387957,25.0108295 C30.8110088,25.0108295 34.5985859,21.2232524 34.5985859,16.5510393 L34.5985859,10.1282051 L51.3897096,10.1282051 C60.240532,10.1282051 68.4190293,14.8500625 72.8444405,22.5150995 C77.2698518,30.1801366 77.2698518,39.6238517 72.8444405,47.2888888 C68.4190293,54.9539259 60.240532,59.6757832 51.3897096,59.6757832 L51.3530077,59.6023794 Z"/>
        <path fill="#83B5EF" d="M26.7714512 1.86519586L32.6437568 7.51728996 32.6437568 16.9680317C32.6437568 19.3348072 31.3810972 21.521798 29.3314095 22.7051857 27.2817218 23.8885735 24.7564024 23.8885735 22.7067147 22.7051857 20.657027 21.521798 19.3943674 19.3348072 19.3943674 16.9680317L19.3943674 1.87437134 26.7714512 1.86519586zM13.2926749 6.04921357L17.5592719 6.04921357 17.5592719 10.4350918C15.9132321 11.3244119 14.4623916 12.5350057 13.2926749 13.995177L13.2926749 6.04921357z"/>
        <path fill="#71A9EA" fill-rule="nonzero" d="M55.2292246,13.8866234 L39.0240964,13.8866234 C37.9053657,13.8866234 36.9984554,14.7935338 36.9984554,15.9122644 C36.9984554,17.0309951 37.9053657,17.9379055 39.0240964,17.9379055 L55.2292246,17.9379055 C56.3479552,17.9379055 57.2548656,17.0309951 57.2548656,15.9122644 C57.2548656,14.7935338 56.3479552,13.8866234 55.2292246,13.8866234 Z"/>
        <g transform="translate(18.23 32.41)">
          <rect width="46.59" height="12.154" y="2.026" fill="#3A4360" fill-rule="nonzero" opacity=".04" rx="4"/>
          <rect width="46.59" height="12.154" fill="#3792FC" fill-rule="nonzero" rx="4"/>
          <text fill="#0A1D32" font-family="WorkSans-Regular, Work Sans" font-size="6">
            <tspan x="10" y="8">GROWTH</tspan>
          </text>
          <circle cx="6.077" cy="6.077" r="2.026" fill="#2A7FE2" fill-rule="nonzero"/>
          <circle cx="40.513" cy="6.077" r="2.026" fill="#2A7FE2" fill-rule="nonzero"/>
        </g>
      </g>
    </g>
    <g mask="url(#ils_alternate_assets-b)">
      <g transform="translate(110 87)">
        <g transform="translate(105.917 43.278)">
          <g fill-rule="nonzero" transform="translate(0 4.556)">
            <path fill="#95C1F5" d="M.170317817 10.1753978C.170317817 13.083902 3.79939745 15.5818967 9.00500866 16.6998803L9.00500866 3.65091525C3.79939745 4.76889886.170317817 7.26689351.170317817 10.1753978zM12.9703568 3.10939193L12.9703568 17.2414036C13.6079568 17.2850748 14.2542911 17.3156447 14.9093596 17.3200118L14.9093596 3.03515083C14.2542911 3.03515083 13.6079568 3.0657207 12.9703568 3.10939193z"/>
            <rect width="29.862" height="3.502" x=".17" y="7.258" fill="#95C1F5"/>
            <path fill="#95C1F5" d="M30.0327083,10.1753978 C30.0327083,7.81278394 27.6351575,5.71656466 23.9449382,4.41952898 L23.9449382,15.9356337 C27.6351575,14.6298637 30.0327083,12.5380116 30.0327083,10.1753978 Z"/>
            <path fill="#A4CEFF" d="M9.00500866 3.65091525L9.00500866 16.6998803C10.2452717 16.9662748 11.5816115 17.1453269 12.9703568 17.2414036L12.9703568 3.10939193C11.5816115 3.20546865 10.2452717 3.38452071 9.00500866 3.65091525zM15.1015131 3.02641659C15.0403733 3.02641659 14.9792336 3.03078371 14.9137268 3.03078371L14.9137268 17.3156447C14.9748665 17.3156447 15.0360062 17.3200118 15.1015131 17.3200118 18.4117927 17.3200118 21.4687791 16.8046912 23.9449382 15.9312665L23.9449382 4.41516186C21.4687791 3.54610428 18.4117927 3.02641659 15.1015131 3.02641659z"/>
            <ellipse cx="15.102" cy="8.049" fill="#94C5FF" rx="14.931" ry="7.149"/>
            <ellipse cx="15.102" cy="7.516" fill="#B3D6FF" rx="14.931" ry="7.149"/>
            <ellipse cx="15.102" cy="7.516" fill="#98C7FF" rx="11.874" ry="5.503"/>
            <g fill="#FFA340" transform="translate(9.171 3.494)">
              <path d="M2.51546314,4.51997282 L0.655068525,3.53300291 L2.10932065,2.77749055 L3.96971526,3.76446046 C4.84750709,4.22737555 6.28865784,4.22737555 7.18391816,3.76446046 C8.07917848,3.29717824 8.09664697,2.54166588 7.21885515,2.07875079 L5.27548519,1.04810964 L6.72973731,0.292597275 L8.67310727,1.32323842 C10.3326142,2.20539737 10.3020443,3.63781388 8.60760042,4.51997282 C6.90878938,5.40213177 4.17497007,5.40213177 2.51546314,4.51997282 Z"/>
              <polygon points="9.542 5.778 2.922 2.267 4.376 1.511 10.996 5.022"/>
              <polygon points="11.892 4.555 5.275 1.044 6.725 .288 13.346 3.799"/>
              <polygon points="2.044 7.756 2.69 3.616 .664 3.542 .162 6.756"/>
            </g>
          </g>
          <path fill="#95C1F5" fill-rule="nonzero" d="M.170317817 10.114258C.170317817 13.0227623 3.79939745 15.5207569 9.00500866 16.6387405L9.00500866 3.58977552C3.79939745 4.70775913.170317817 7.20575378.170317817 10.114258zM12.9703568 3.0482522L12.9703568 17.1802639C13.6079568 17.2239351 14.2542911 17.254505 14.9093596 17.2588721L14.9093596 2.96964398C14.2542911 2.9740111 13.6079568 3.00458097 12.9703568 3.0482522z"/>
          <rect width="29.862" height="3.502" x=".17" y="7.197" fill="#95C1F5" fill-rule="nonzero"/>
          <path fill="#95C1F5" fill-rule="nonzero" d="M30.0327083,10.114258 C30.0327083,7.75164421 27.6351575,5.65542493 23.9449382,4.35838925 L23.9449382,15.8744939 C27.6351575,14.568724 30.0327083,12.4768718 30.0327083,10.114258 Z"/>
          <path fill="#A4CEFF" fill-rule="nonzero" d="M9.00500866 3.58977552L9.00500866 16.6387405C10.2452717 16.9051351 11.5816115 17.0841871 12.9703568 17.1802639L12.9703568 3.0482522C11.5816115 3.14432892 10.2452717 3.32338098 9.00500866 3.58977552zM15.1015131 2.96527686C15.0403733 2.96527686 14.9792336 2.96964398 14.9137268 2.96964398L14.9137268 17.254505C14.9748665 17.254505 15.0360062 17.2588721 15.1015131 17.2588721 18.4117927 17.2588721 21.4687791 16.7435515 23.9449382 15.8701268L23.9449382 4.35402213C21.4687791 3.48496455 18.4117927 2.96527686 15.1015131 2.96527686z"/>
          <ellipse cx="15.102" cy="7.987" fill="#94C5FF" rx="14.931" ry="7.149"/>
          <ellipse cx="15.102" cy="7.455" fill="#B3D6FF" fill-rule="nonzero" rx="14.931" ry="7.149"/>
          <ellipse cx="15.102" cy="7.455" fill="#DCEEFF" fill-rule="nonzero" rx="11.874" ry="5.503"/>
          <g fill="#94C5FF" transform="translate(9.171 3.494)">
            <path d="M2.51546314,4.45883309 L0.655068525,3.47186318 L2.10932065,2.71635082 L3.96971526,3.70332073 C4.84750709,4.16623582 6.28865784,4.16623582 7.18391816,3.70332073 C8.07917848,3.23603851 8.09664697,2.48052615 7.21885515,2.01761106 L5.27548519,0.986969911 L6.72973731,0.231457546 L8.67310727,1.26209869 C10.3326142,2.14425764 10.3020443,3.57667415 8.60760042,4.45883309 C6.90878938,5.34099204 4.17497007,5.34099204 2.51546314,4.45883309 Z"/>
            <polygon points="9.542 5.717 2.922 2.205 4.376 1.45 10.996 4.961"/>
            <polygon points="11.892 4.494 5.275 .983 6.725 .227 13.346 3.738"/>
            <polygon points="2.044 7.695 2.69 3.555 .664 3.481 .162 6.695"/>
          </g>
        </g>
        <g transform="translate(59.222)">
          <g fill-rule="nonzero" transform="translate(0 45.556)">
            <path fill="#95C1F5" d="M.170317817 9.92210459C.170317817 12.8306088 3.79939745 15.3286035 9.00500866 16.4465871L9.00500866 3.39762208C3.79939745 4.5156057.170317817 7.01360034.170317817 9.92210459zM12.9703568 2.85609877L12.9703568 16.9881104C13.6079568 17.0317817 14.2542911 17.0623515 14.9093596 17.0667186L14.9093596 2.78185767C14.2542911 2.78622479 13.6079568 2.81242753 12.9703568 2.85609877z"/>
            <rect width="29.862" height="3.502" x=".17" y="7.005" fill="#95C1F5"/>
            <path fill="#95C1F5" d="M30.0327083,9.92210459 C30.0327083,7.55949078 27.6351575,5.4632715 23.9449382,4.16623582 L23.9449382,15.6823405 C27.6351575,14.3809377 30.0327083,12.2847184 30.0327083,9.92210459 Z"/>
            <path fill="#A4CEFF" d="M9.00500866 3.39762208L9.00500866 16.4465871C10.2452717 16.7129816 11.5816115 16.8920337 12.9703568 16.9881104L12.9703568 2.85609877C11.5816115 2.95217549 10.2452717 3.13122755 9.00500866 3.39762208zM15.1015131 2.77312342C15.0403733 2.77312342 14.9792336 2.77749055 14.9137268 2.77749055L14.9137268 17.0623515C14.9748665 17.0623515 15.0360062 17.0667186 15.1015131 17.0667186 18.4117927 17.0667186 21.4687791 16.5513981 23.9449382 15.6779734L23.9449382 4.1618687C21.4687791 3.29281112 18.4117927 2.77312342 15.1015131 2.77312342z"/>
            <ellipse cx="15.102" cy="7.795" fill="#94C5FF" rx="14.931" ry="7.149"/>
            <ellipse cx="15.102" cy="7.263" fill="#B3D6FF" rx="14.931" ry="7.149"/>
            <ellipse cx="15.102" cy="7.263" fill="#98C7FF" rx="11.874" ry="5.503"/>
            <g fill="#FFA340" transform="translate(9.171 3.494)">
              <path d="M2.51546314,4.26667966 L0.655068525,3.27970975 L2.10932065,2.52419738 L3.96971526,3.51116729 C4.84750709,3.97408239 6.28865784,3.97408239 7.18391816,3.51116729 C8.07917848,3.04388508 8.09664697,2.28837271 7.21885515,1.82545762 L5.27548519,0.794816477 L6.72973731,0.0393041115 L8.67310727,1.06994526 C10.3326142,1.9521042 10.3020443,3.38452071 8.60760042,4.26667966 C6.90878938,5.14883861 4.17497007,5.14883861 2.51546314,4.26667966 Z"/>
              <polygon points="9.542 5.524 2.922 2.013 4.376 1.258 10.996 4.769"/>
              <polygon points="11.892 4.302 5.275 .79 6.725 .035 13.346 3.546"/>
              <polygon points="2.044 7.503 2.69 3.363 .664 3.288 .162 6.503"/>
            </g>
          </g>
          <g fill-rule="nonzero" transform="translate(0 41)">
            <path fill="#95C1F5" d="M.170317817 9.92210459C.170317817 12.8306088 3.79939745 15.3286035 9.00500866 16.4465871L9.00500866 3.39762208C3.79939745 4.5156057.170317817 7.01360034.170317817 9.92210459zM12.9703568 2.85609877L12.9703568 16.9881104C13.6079568 17.0317817 14.2542911 17.0623515 14.9093596 17.0667186L14.9093596 2.78185767C14.2542911 2.78622479 13.6079568 2.81242753 12.9703568 2.85609877z"/>
            <rect width="29.862" height="3.502" x=".17" y="7.005" fill="#95C1F5"/>
            <path fill="#95C1F5" d="M30.0327083,9.92210459 C30.0327083,7.55949078 27.6351575,5.4632715 23.9449382,4.16623582 L23.9449382,15.6823405 C27.6351575,14.3809377 30.0327083,12.2847184 30.0327083,9.92210459 Z"/>
            <path fill="#A4CEFF" d="M9.00500866 3.39762208L9.00500866 16.4465871C10.2452717 16.7129816 11.5816115 16.8920337 12.9703568 16.9881104L12.9703568 2.85609877C11.5816115 2.95217549 10.2452717 3.13122755 9.00500866 3.39762208zM15.1015131 2.77312342C15.0403733 2.77312342 14.9792336 2.77749055 14.9137268 2.77749055L14.9137268 17.0623515C14.9748665 17.0623515 15.0360062 17.0667186 15.1015131 17.0667186 18.4117927 17.0667186 21.4687791 16.5513981 23.9449382 15.6779734L23.9449382 4.1618687C21.4687791 3.29281112 18.4117927 2.77312342 15.1015131 2.77312342z"/>
            <ellipse cx="15.102" cy="7.795" fill="#94C5FF" rx="14.931" ry="7.149"/>
            <ellipse cx="15.102" cy="7.263" fill="#B3D6FF" rx="14.931" ry="7.149"/>
            <ellipse cx="15.102" cy="7.263" fill="#98C7FF" rx="11.874" ry="5.503"/>
            <g fill="#FFA340" transform="translate(9.171 3.494)">
              <path d="M2.51546314,4.26667966 L0.655068525,3.27970975 L2.10932065,2.52419738 L3.96971526,3.51116729 C4.84750709,3.97408239 6.28865784,3.97408239 7.18391816,3.51116729 C8.07917848,3.04388508 8.09664697,2.28837271 7.21885515,1.82545762 L5.27548519,0.794816477 L6.72973731,0.0393041115 L8.67310727,1.06994526 C10.3326142,1.9521042 10.3020443,3.38452071 8.60760042,4.26667966 C6.90878938,5.14883861 4.17497007,5.14883861 2.51546314,4.26667966 Z"/>
              <polygon points="9.542 5.524 2.922 2.013 4.376 1.258 10.996 4.769"/>
              <polygon points="11.892 4.302 5.275 .79 6.725 .035 13.346 3.546"/>
              <polygon points="2.044 7.503 2.69 3.363 .664 3.288 .162 6.503"/>
            </g>
          </g>
          <g fill-rule="nonzero" transform="translate(0 36.444)">
            <path fill="#95C1F5" d="M.170317817 9.92210459C.170317817 12.8306088 3.79939745 15.3286035 9.00500866 16.4465871L9.00500866 3.39762208C3.79939745 4.5156057.170317817 7.01360034.170317817 9.92210459zM12.9703568 2.85609877L12.9703568 16.9881104C13.6079568 17.0317817 14.2542911 17.0623515 14.9093596 17.0667186L14.9093596 2.78185767C14.2542911 2.78622479 13.6079568 2.81242753 12.9703568 2.85609877z"/>
            <rect width="29.862" height="3.502" x=".17" y="7.005" fill="#95C1F5"/>
            <path fill="#95C1F5" d="M30.0327083,9.92210459 C30.0327083,7.55949078 27.6351575,5.4632715 23.9449382,4.16623582 L23.9449382,15.6823405 C27.6351575,14.3809377 30.0327083,12.2847184 30.0327083,9.92210459 Z"/>
            <path fill="#A4CEFF" d="M9.00500866 3.39762208L9.00500866 16.4465871C10.2452717 16.7129816 11.5816115 16.8920337 12.9703568 16.9881104L12.9703568 2.85609877C11.5816115 2.95217549 10.2452717 3.13122755 9.00500866 3.39762208zM15.1015131 2.77312342C15.0403733 2.77312342 14.9792336 2.77749055 14.9137268 2.77749055L14.9137268 17.0623515C14.9748665 17.0623515 15.0360062 17.0667186 15.1015131 17.0667186 18.4117927 17.0667186 21.4687791 16.5513981 23.9449382 15.6779734L23.9449382 4.1618687C21.4687791 3.29281112 18.4117927 2.77312342 15.1015131 2.77312342z"/>
            <ellipse cx="15.102" cy="7.795" fill="#94C5FF" rx="14.931" ry="7.149"/>
            <ellipse cx="15.102" cy="7.263" fill="#B3D6FF" rx="14.931" ry="7.149"/>
            <ellipse cx="15.102" cy="7.263" fill="#98C7FF" rx="11.874" ry="5.503"/>
            <g fill="#FFA340" transform="translate(9.171 3.494)">
              <path d="M2.51546314,4.26667966 L0.655068525,3.27970975 L2.10932065,2.52419738 L3.96971526,3.51116729 C4.84750709,3.97408239 6.28865784,3.97408239 7.18391816,3.51116729 C8.07917848,3.04388508 8.09664697,2.28837271 7.21885515,1.82545762 L5.27548519,0.794816477 L6.72973731,0.0393041115 L8.67310727,1.06994526 C10.3326142,1.9521042 10.3020443,3.38452071 8.60760042,4.26667966 C6.90878938,5.14883861 4.17497007,5.14883861 2.51546314,4.26667966 Z"/>
              <polygon points="9.542 5.524 2.922 2.013 4.376 1.258 10.996 4.769"/>
              <polygon points="11.892 4.302 5.275 .79 6.725 .035 13.346 3.546"/>
              <polygon points="2.044 7.503 2.69 3.363 .664 3.288 .162 6.503"/>
            </g>
          </g>
          <g fill-rule="nonzero" transform="translate(0 31.889)">
            <path fill="#95C1F5" d="M.170317817 9.92210459C.170317817 12.8306088 3.79939745 15.3286035 9.00500866 16.4465871L9.00500866 3.39762208C3.79939745 4.5156057.170317817 7.01360034.170317817 9.92210459zM12.9703568 2.85609877L12.9703568 16.9881104C13.6079568 17.0317817 14.2542911 17.0623515 14.9093596 17.0667186L14.9093596 2.78185767C14.2542911 2.78622479 13.6079568 2.81242753 12.9703568 2.85609877z"/>
            <rect width="29.862" height="3.502" x=".17" y="7.005" fill="#95C1F5"/>
            <path fill="#95C1F5" d="M30.0327083,9.92210459 C30.0327083,7.55949078 27.6351575,5.4632715 23.9449382,4.16623582 L23.9449382,15.6823405 C27.6351575,14.3809377 30.0327083,12.2847184 30.0327083,9.92210459 Z"/>
            <path fill="#A4CEFF" d="M9.00500866 3.39762208L9.00500866 16.4465871C10.2452717 16.7129816 11.5816115 16.8920337 12.9703568 16.9881104L12.9703568 2.85609877C11.5816115 2.95217549 10.2452717 3.13122755 9.00500866 3.39762208zM15.1015131 2.77312342C15.0403733 2.77312342 14.9792336 2.77749055 14.9137268 2.77749055L14.9137268 17.0623515C14.9748665 17.0623515 15.0360062 17.0667186 15.1015131 17.0667186 18.4117927 17.0667186 21.4687791 16.5513981 23.9449382 15.6779734L23.9449382 4.1618687C21.4687791 3.29281112 18.4117927 2.77312342 15.1015131 2.77312342z"/>
            <ellipse cx="15.102" cy="7.795" fill="#94C5FF" rx="14.931" ry="7.149"/>
            <ellipse cx="15.102" cy="7.263" fill="#B3D6FF" rx="14.931" ry="7.149"/>
            <ellipse cx="15.102" cy="7.263" fill="#98C7FF" rx="11.874" ry="5.503"/>
            <g fill="#FFA340" transform="translate(9.171 3.494)">
              <path d="M2.51546314,4.26667966 L0.655068525,3.27970975 L2.10932065,2.52419738 L3.96971526,3.51116729 C4.84750709,3.97408239 6.28865784,3.97408239 7.18391816,3.51116729 C8.07917848,3.04388508 8.09664697,2.28837271 7.21885515,1.82545762 L5.27548519,0.794816477 L6.72973731,0.0393041115 L8.67310727,1.06994526 C10.3326142,1.9521042 10.3020443,3.38452071 8.60760042,4.26667966 C6.90878938,5.14883861 4.17497007,5.14883861 2.51546314,4.26667966 Z"/>
              <polygon points="9.542 5.524 2.922 2.013 4.376 1.258 10.996 4.769"/>
              <polygon points="11.892 4.302 5.275 .79 6.725 .035 13.346 3.546"/>
              <polygon points="2.044 7.503 2.69 3.363 .664 3.288 .162 6.503"/>
            </g>
          </g>
          <g fill-rule="nonzero" transform="translate(0 27.333)">
            <path fill="#95C1F5" d="M.170317817 9.92210459C.170317817 12.8306088 3.79939745 15.3286035 9.00500866 16.4465871L9.00500866 3.39762208C3.79939745 4.5156057.170317817 7.01360034.170317817 9.92210459zM12.9703568 2.85609877L12.9703568 16.9881104C13.6079568 17.0317817 14.2542911 17.0623515 14.9093596 17.0667186L14.9093596 2.78185767C14.2542911 2.78622479 13.6079568 2.81242753 12.9703568 2.85609877z"/>
            <rect width="29.862" height="3.502" x=".17" y="7.005" fill="#95C1F5"/>
            <path fill="#95C1F5" d="M30.0327083,9.92210459 C30.0327083,7.55949078 27.6351575,5.4632715 23.9449382,4.16623582 L23.9449382,15.6823405 C27.6351575,14.3809377 30.0327083,12.2847184 30.0327083,9.92210459 Z"/>
            <path fill="#A4CEFF" d="M9.00500866 3.39762208L9.00500866 16.4465871C10.2452717 16.7129816 11.5816115 16.8920337 12.9703568 16.9881104L12.9703568 2.85609877C11.5816115 2.95217549 10.2452717 3.13122755 9.00500866 3.39762208zM15.1015131 2.77312342C15.0403733 2.77312342 14.9792336 2.77749055 14.9137268 2.77749055L14.9137268 17.0623515C14.9748665 17.0623515 15.0360062 17.0667186 15.1015131 17.0667186 18.4117927 17.0667186 21.4687791 16.5513981 23.9449382 15.6779734L23.9449382 4.1618687C21.4687791 3.29281112 18.4117927 2.77312342 15.1015131 2.77312342z"/>
            <ellipse cx="15.102" cy="7.795" fill="#94C5FF" rx="14.931" ry="7.149"/>
            <ellipse cx="15.102" cy="7.263" fill="#B3D6FF" rx="14.931" ry="7.149"/>
            <ellipse cx="15.102" cy="7.263" fill="#98C7FF" rx="11.874" ry="5.503"/>
            <g fill="#FFA340" transform="translate(9.171 3.494)">
              <path d="M2.51546314,4.26667966 L0.655068525,3.27970975 L2.10932065,2.52419738 L3.96971526,3.51116729 C4.84750709,3.97408239 6.28865784,3.97408239 7.18391816,3.51116729 C8.07917848,3.04388508 8.09664697,2.28837271 7.21885515,1.82545762 L5.27548519,0.794816477 L6.72973731,0.0393041115 L8.67310727,1.06994526 C10.3326142,1.9521042 10.3020443,3.38452071 8.60760042,4.26667966 C6.90878938,5.14883861 4.17497007,5.14883861 2.51546314,4.26667966 Z"/>
              <polygon points="9.542 5.524 2.922 2.013 4.376 1.258 10.996 4.769"/>
              <polygon points="11.892 4.302 5.275 .79 6.725 .035 13.346 3.546"/>
              <polygon points="2.044 7.503 2.69 3.363 .664 3.288 .162 6.503"/>
            </g>
          </g>
          <g fill-rule="nonzero" transform="translate(0 22.778)">
            <path fill="#95C1F5" d="M.170317817 9.92210459C.170317817 12.8306088 3.79939745 15.3286035 9.00500866 16.4465871L9.00500866 3.39762208C3.79939745 4.5156057.170317817 7.01360034.170317817 9.92210459zM12.9703568 2.85609877L12.9703568 16.9881104C13.6079568 17.0317817 14.2542911 17.0623515 14.9093596 17.0667186L14.9093596 2.78185767C14.2542911 2.78622479 13.6079568 2.81242753 12.9703568 2.85609877z"/>
            <rect width="29.862" height="3.502" x=".17" y="7.005" fill="#95C1F5"/>
            <path fill="#95C1F5" d="M30.0327083,9.92210459 C30.0327083,7.55949078 27.6351575,5.4632715 23.9449382,4.16623582 L23.9449382,15.6823405 C27.6351575,14.3809377 30.0327083,12.2847184 30.0327083,9.92210459 Z"/>
            <path fill="#A4CEFF" d="M9.00500866 3.39762208L9.00500866 16.4465871C10.2452717 16.7129816 11.5816115 16.8920337 12.9703568 16.9881104L12.9703568 2.85609877C11.5816115 2.95217549 10.2452717 3.13122755 9.00500866 3.39762208zM15.1015131 2.77312342C15.0403733 2.77312342 14.9792336 2.77749055 14.9137268 2.77749055L14.9137268 17.0623515C14.9748665 17.0623515 15.0360062 17.0667186 15.1015131 17.0667186 18.4117927 17.0667186 21.4687791 16.5513981 23.9449382 15.6779734L23.9449382 4.1618687C21.4687791 3.29281112 18.4117927 2.77312342 15.1015131 2.77312342z"/>
            <ellipse cx="15.102" cy="7.795" fill="#94C5FF" rx="14.931" ry="7.149"/>
            <ellipse cx="15.102" cy="7.263" fill="#B3D6FF" rx="14.931" ry="7.149"/>
            <ellipse cx="15.102" cy="7.263" fill="#98C7FF" rx="11.874" ry="5.503"/>
            <g fill="#FFA340" transform="translate(9.171 3.494)">
              <path d="M2.51546314,4.26667966 L0.655068525,3.27970975 L2.10932065,2.52419738 L3.96971526,3.51116729 C4.84750709,3.97408239 6.28865784,3.97408239 7.18391816,3.51116729 C8.07917848,3.04388508 8.09664697,2.28837271 7.21885515,1.82545762 L5.27548519,0.794816477 L6.72973731,0.0393041115 L8.67310727,1.06994526 C10.3326142,1.9521042 10.3020443,3.38452071 8.60760042,4.26667966 C6.90878938,5.14883861 4.17497007,5.14883861 2.51546314,4.26667966 Z"/>
              <polygon points="9.542 5.524 2.922 2.013 4.376 1.258 10.996 4.769"/>
              <polygon points="11.892 4.302 5.275 .79 6.725 .035 13.346 3.546"/>
              <polygon points="2.044 7.503 2.69 3.363 .664 3.288 .162 6.503"/>
            </g>
          </g>
          <g fill-rule="nonzero" transform="translate(0 18.222)">
            <path fill="#95C1F5" d="M.170317817 9.92210459C.170317817 12.8306088 3.79939745 15.3286035 9.00500866 16.4465871L9.00500866 3.39762208C3.79939745 4.5156057.170317817 7.01360034.170317817 9.92210459zM12.9703568 2.85609877L12.9703568 16.9881104C13.6079568 17.0317817 14.2542911 17.0623515 14.9093596 17.0667186L14.9093596 2.78185767C14.2542911 2.78622479 13.6079568 2.81242753 12.9703568 2.85609877z"/>
            <rect width="29.862" height="3.502" x=".17" y="7.005" fill="#95C1F5"/>
            <path fill="#95C1F5" d="M30.0327083,9.92210459 C30.0327083,7.55949078 27.6351575,5.4632715 23.9449382,4.16623582 L23.9449382,15.6823405 C27.6351575,14.3809377 30.0327083,12.2847184 30.0327083,9.92210459 Z"/>
            <path fill="#A4CEFF" d="M9.00500866 3.39762208L9.00500866 16.4465871C10.2452717 16.7129816 11.5816115 16.8920337 12.9703568 16.9881104L12.9703568 2.85609877C11.5816115 2.95217549 10.2452717 3.13122755 9.00500866 3.39762208zM15.1015131 2.77312342C15.0403733 2.77312342 14.9792336 2.77749055 14.9137268 2.77749055L14.9137268 17.0623515C14.9748665 17.0623515 15.0360062 17.0667186 15.1015131 17.0667186 18.4117927 17.0667186 21.4687791 16.5513981 23.9449382 15.6779734L23.9449382 4.1618687C21.4687791 3.29281112 18.4117927 2.77312342 15.1015131 2.77312342z"/>
            <ellipse cx="15.102" cy="7.795" fill="#94C5FF" rx="14.931" ry="7.149"/>
            <ellipse cx="15.102" cy="7.263" fill="#B3D6FF" rx="14.931" ry="7.149"/>
            <ellipse cx="15.102" cy="7.263" fill="#98C7FF" rx="11.874" ry="5.503"/>
            <g fill="#FFA340" transform="translate(9.171 3.494)">
              <path d="M2.51546314,4.26667966 L0.655068525,3.27970975 L2.10932065,2.52419738 L3.96971526,3.51116729 C4.84750709,3.97408239 6.28865784,3.97408239 7.18391816,3.51116729 C8.07917848,3.04388508 8.09664697,2.28837271 7.21885515,1.82545762 L5.27548519,0.794816477 L6.72973731,0.0393041115 L8.67310727,1.06994526 C10.3326142,1.9521042 10.3020443,3.38452071 8.60760042,4.26667966 C6.90878938,5.14883861 4.17497007,5.14883861 2.51546314,4.26667966 Z"/>
              <polygon points="9.542 5.524 2.922 2.013 4.376 1.258 10.996 4.769"/>
              <polygon points="11.892 4.302 5.275 .79 6.725 .035 13.346 3.546"/>
              <polygon points="2.044 7.503 2.69 3.363 .664 3.288 .162 6.503"/>
            </g>
          </g>
          <g fill-rule="nonzero" transform="translate(0 13.667)">
            <path fill="#95C1F5" d="M.170317817 9.86096487C.170317817 12.7694691 3.79939745 15.2674638 9.00500866 16.3854474L9.00500866 3.33648235C3.79939745 4.45446597.170317817 6.95246061.170317817 9.86096487zM12.9703568 2.79495904L12.9703568 16.9269707C13.6079568 16.9706419 14.2542911 17.0012118 14.9093596 17.0055789L14.9093596 2.72071794C14.2542911 2.72508506 13.6079568 2.75128781 12.9703568 2.79495904z"/>
            <rect width="29.862" height="3.502" x=".17" y="6.944" fill="#95C1F5"/>
            <path fill="#95C1F5" d="M30.0327083,9.86096487 C30.0327083,7.49835105 27.6351575,5.40213177 23.9449382,4.10509609 L23.9449382,15.6212008 C27.6351575,14.319798 30.0327083,12.2235787 30.0327083,9.86096487 Z"/>
            <path fill="#A4CEFF" d="M9.00500866 3.33648235L9.00500866 16.3854474C10.2452717 16.6518419 11.5816115 16.830894 12.9703568 16.9269707L12.9703568 2.79495904C11.5816115 2.89103576 10.2452717 3.07008782 9.00500866 3.33648235zM15.1015131 2.71198369C15.0403733 2.71198369 14.9792336 2.71635082 14.9137268 2.71635082L14.9137268 17.0012118C14.9748665 17.0012118 15.0360062 17.0055789 15.1015131 17.0055789 18.4117927 17.0055789 21.4687791 16.4902583 23.9449382 15.6168336L23.9449382 4.10072897C21.4687791 3.23167139 18.4117927 2.71198369 15.1015131 2.71198369z"/>
            <ellipse cx="15.102" cy="7.734" fill="#94C5FF" rx="14.931" ry="7.149"/>
            <ellipse cx="15.102" cy="7.201" fill="#B3D6FF" rx="14.931" ry="7.149"/>
            <ellipse cx="15.102" cy="7.201" fill="#98C7FF" rx="11.874" ry="5.503"/>
            <g fill="#FFA340" transform="translate(9.171 3.057)">
              <path d="M2.51546314,4.64225228 L0.655068525,3.65528237 L2.10932065,2.89977 L3.96971526,3.88673992 C4.84750709,4.34965501 6.28865784,4.34965501 7.18391816,3.88673992 C8.07917848,3.4194577 8.09664697,2.66394534 7.21885515,2.20103024 L5.27548519,1.1703891 L6.72973731,0.414876733 L8.67310727,1.44551788 C10.3326142,2.32767683 10.3020443,3.76009333 8.60760042,4.64225228 C6.90878938,5.52441123 4.17497007,5.52441123 2.51546314,4.64225228 Z"/>
              <polygon points="9.542 5.9 2.922 2.389 4.376 1.633 10.996 5.144"/>
              <polygon points="11.892 4.677 5.275 1.166 6.725 .411 13.346 3.922"/>
              <polygon points="2.044 7.878 2.69 3.738 .664 3.664 .162 6.878"/>
            </g>
          </g>
          <g fill-rule="nonzero" transform="translate(0 9.111)">
            <path fill="#95C1F5" d="M.170317817 10.2365375C.170317817 13.1450417 3.79939745 15.6430364 9.00500866 16.76102L9.00500866 3.71205498C3.79939745 4.83003859.170317817 7.32803323.170317817 10.2365375zM12.9703568 3.17053166L12.9703568 17.3025433C13.6079568 17.3462145 14.2542911 17.3767844 14.9093596 17.3811515L14.9093596 3.09629056C14.2542911 3.10065769 13.6079568 3.12686043 12.9703568 3.17053166z"/>
            <rect width="29.862" height="3.502" x=".17" y="7.319" fill="#95C1F5"/>
            <path fill="#95C1F5" d="M30.0327083,10.2365375 C30.0327083,7.87392367 27.6351575,5.77770439 23.9449382,4.47630159 L23.9449382,15.9924063 C27.6351575,14.6910035 30.0327083,12.5991513 30.0327083,10.2365375 Z"/>
            <path fill="#A4CEFF" d="M9.00500866 3.71205498L9.00500866 16.76102C10.2452717 17.0274145 11.5816115 17.2064666 12.9703568 17.3025433L12.9703568 3.17053166C11.5816115 3.26660838 10.2452717 3.44566044 9.00500866 3.71205498zM15.1015131 3.08755632C15.0403733 3.08755632 14.9792336 3.09192344 14.9137268 3.09192344L14.9137268 17.3767844C14.9748665 17.3767844 15.0360062 17.3811515 15.1015131 17.3811515 18.4117927 17.3811515 21.4687791 16.865831 23.9449382 15.9924063L23.9449382 4.47630159C21.4687791 3.60724401 18.4117927 3.08755632 15.1015131 3.08755632z"/>
            <ellipse cx="15.102" cy="8.11" fill="#94C5FF" rx="14.931" ry="7.149"/>
            <ellipse cx="15.102" cy="7.577" fill="#B3D6FF" rx="14.931" ry="7.149"/>
            <ellipse cx="15.102" cy="7.577" fill="#98C7FF" rx="11.874" ry="5.503"/>
            <g fill="#FFA340" transform="translate(9.171 3.494)">
              <path d="M2.51546314,4.58111255 L0.655068525,3.59414264 L2.10932065,2.83863028 L3.96971526,3.82560019 C4.84750709,4.28851528 6.28865784,4.28851528 7.18391816,3.82560019 C8.07917848,3.35831797 8.09664697,2.60280561 7.21885515,2.13989052 L5.27548519,1.10924937 L6.72973731,0.353737004 L8.67310727,1.38437815 C10.3326142,2.2665371 10.3020443,3.69895361 8.60760042,4.58111255 C6.90878938,5.4632715 4.17497007,5.4632715 2.51546314,4.58111255 Z"/>
              <polygon points="9.542 5.839 2.922 2.328 4.376 1.572 10.996 5.083"/>
              <polygon points="11.892 4.616 5.275 1.105 6.725 .349 13.346 3.861"/>
              <polygon points="2.044 7.817 2.69 3.677 .664 3.603 .162 6.817"/>
            </g>
          </g>
          <g fill-rule="nonzero" transform="translate(0 4.556)">
            <path fill="#95C1F5" d="M.170317817 10.1753978C.170317817 13.083902 3.79939745 15.5818967 9.00500866 16.6998803L9.00500866 3.65091525C3.79939745 4.76889886.170317817 7.26689351.170317817 10.1753978zM12.9703568 3.10939193L12.9703568 17.2414036C13.6079568 17.2850748 14.2542911 17.3156447 14.9093596 17.3200118L14.9093596 3.03515083C14.2542911 3.03515083 13.6079568 3.0657207 12.9703568 3.10939193z"/>
            <rect width="29.862" height="3.502" x=".17" y="7.258" fill="#95C1F5"/>
            <path fill="#95C1F5" d="M30.0327083,10.1753978 C30.0327083,7.81278394 27.6351575,5.71656466 23.9449382,4.41952898 L23.9449382,15.9356337 C27.6351575,14.6298637 30.0327083,12.5380116 30.0327083,10.1753978 Z"/>
            <path fill="#A4CEFF" d="M9.00500866 3.65091525L9.00500866 16.6998803C10.2452717 16.9662748 11.5816115 17.1453269 12.9703568 17.2414036L12.9703568 3.10939193C11.5816115 3.20546865 10.2452717 3.38452071 9.00500866 3.65091525zM15.1015131 3.02641659C15.0403733 3.02641659 14.9792336 3.03078371 14.9137268 3.03078371L14.9137268 17.3156447C14.9748665 17.3156447 15.0360062 17.3200118 15.1015131 17.3200118 18.4117927 17.3200118 21.4687791 16.8046912 23.9449382 15.9312665L23.9449382 4.41516186C21.4687791 3.54610428 18.4117927 3.02641659 15.1015131 3.02641659z"/>
            <ellipse cx="15.102" cy="8.049" fill="#94C5FF" rx="14.931" ry="7.149"/>
            <ellipse cx="15.102" cy="7.516" fill="#B3D6FF" rx="14.931" ry="7.149"/>
            <ellipse cx="15.102" cy="7.516" fill="#98C7FF" rx="11.874" ry="5.503"/>
            <g fill="#FFA340" transform="translate(9.171 3.494)">
              <path d="M2.51546314,4.51997282 L0.655068525,3.53300291 L2.10932065,2.77749055 L3.96971526,3.76446046 C4.84750709,4.22737555 6.28865784,4.22737555 7.18391816,3.76446046 C8.07917848,3.29717824 8.09664697,2.54166588 7.21885515,2.07875079 L5.27548519,1.04810964 L6.72973731,0.292597275 L8.67310727,1.32323842 C10.3326142,2.20539737 10.3020443,3.63781388 8.60760042,4.51997282 C6.90878938,5.40213177 4.17497007,5.40213177 2.51546314,4.51997282 Z"/>
              <polygon points="9.542 5.778 2.922 2.267 4.376 1.511 10.996 5.022"/>
              <polygon points="11.892 4.555 5.275 1.044 6.725 .288 13.346 3.799"/>
              <polygon points="2.044 7.756 2.69 3.616 .664 3.542 .162 6.756"/>
            </g>
          </g>
          <path fill="#95C1F5" fill-rule="nonzero" d="M.170317817 10.114258C.170317817 13.0227623 3.79939745 15.5207569 9.00500866 16.6387405L9.00500866 3.58977552C3.79939745 4.70775913.170317817 7.20575378.170317817 10.114258zM12.9703568 3.0482522L12.9703568 17.1802639C13.6079568 17.2239351 14.2542911 17.254505 14.9093596 17.2588721L14.9093596 2.96964398C14.2542911 2.9740111 13.6079568 3.00458097 12.9703568 3.0482522z"/>
          <rect width="29.862" height="3.502" x=".17" y="7.197" fill="#95C1F5" fill-rule="nonzero"/>
          <path fill="#95C1F5" fill-rule="nonzero" d="M30.0327083,10.114258 C30.0327083,7.75164421 27.6351575,5.65542493 23.9449382,4.35838925 L23.9449382,15.8744939 C27.6351575,14.568724 30.0327083,12.4768718 30.0327083,10.114258 Z"/>
          <path fill="#A4CEFF" fill-rule="nonzero" d="M9.00500866 3.58977552L9.00500866 16.6387405C10.2452717 16.9051351 11.5816115 17.0841871 12.9703568 17.1802639L12.9703568 3.0482522C11.5816115 3.14432892 10.2452717 3.32338098 9.00500866 3.58977552zM15.1015131 2.96527686C15.0403733 2.96527686 14.9792336 2.96964398 14.9137268 2.96964398L14.9137268 17.254505C14.9748665 17.254505 15.0360062 17.2588721 15.1015131 17.2588721 18.4117927 17.2588721 21.4687791 16.7435515 23.9449382 15.8701268L23.9449382 4.35402213C21.4687791 3.48496455 18.4117927 2.96527686 15.1015131 2.96527686z"/>
          <ellipse cx="15.102" cy="7.987" fill="#94C5FF" rx="14.931" ry="7.149"/>
          <ellipse cx="15.102" cy="7.455" fill="#B3D6FF" fill-rule="nonzero" rx="14.931" ry="7.149"/>
          <ellipse cx="15.102" cy="7.455" fill="#DCEEFF" fill-rule="nonzero" rx="11.874" ry="5.503"/>
          <g fill="#94C5FF" transform="translate(9.171 3.494)">
            <path d="M2.51546314,4.45883309 L0.655068525,3.47186318 L2.10932065,2.71635082 L3.96971526,3.70332073 C4.84750709,4.16623582 6.28865784,4.16623582 7.18391816,3.70332073 C8.07917848,3.23603851 8.09664697,2.48052615 7.21885515,2.01761106 L5.27548519,0.986969911 L6.72973731,0.231457546 L8.67310727,1.26209869 C10.3326142,2.14425764 10.3020443,3.57667415 8.60760042,4.45883309 C6.90878938,5.34099204 4.17497007,5.34099204 2.51546314,4.45883309 Z"/>
            <polygon points="9.542 5.717 2.922 2.205 4.376 1.45 10.996 4.961"/>
            <polygon points="11.892 4.494 5.275 .983 6.725 .227 13.346 3.738"/>
            <polygon points="2.044 7.695 2.69 3.555 .664 3.481 .162 6.695"/>
          </g>
        </g>
        <g transform="rotate(10 -151.837 145.057)">
          <polygon fill="url(#ils_alternate_assets-e)" points="8.417 7.014 86.977 7.014 93.991 35.071 0 35.071"/>
          <polygon fill="url(#ils_alternate_assets-f)" points="86.977 7.014 98.2 0 106.188 22.633 106.617 23.849 93.991 35.071"/>
          <use fill="url(#ils_alternate_assets-g)" xlink:href="#ils_alternate_assets-h"/>
          <use fill="#000" filter="url(#ils_alternate_assets-i)" xlink:href="#ils_alternate_assets-h"/>
          <path stroke="#C2DEFF" stroke-linejoin="square" stroke-width=".2" d="M18.2691542,0.1 L8.72908859,6.91433261 L86.9239755,6.92947238 L97.8511313,0.1 L18.2691542,0.1 Z"/>
          <path fill="#68AEFF" d="M31.1354446,25.2513799 C32.4199609,25.2513799 33.3395578,24.8277729 33.8942353,23.9805589 L33.9672192,25.1069685 L35.7188323,25.1069685 L35.7188323,19.9514784 L31.1938317,19.9514784 L31.1938317,21.6266516 L33.587703,21.6266516 L33.587703,21.7710631 C33.587703,22.281317 33.4052433,22.6712281 33.0403239,22.9407962 C32.6754045,23.2103643 32.1961437,23.3451483 31.6025415,23.3451483 C30.0260897,23.3451483 29.2378638,22.3438953 29.2378638,20.3413894 C29.2378638,19.3690187 29.4349202,18.6325201 29.8290332,18.1318937 C30.2231461,17.6312672 30.7899876,17.3809539 31.5295576,17.3809539 C32.0063856,17.3809539 32.4053642,17.4964831 32.7264932,17.7275415 C33.0476223,17.9585999 33.2665739,18.3100012 33.3833482,18.7817453 L35.7042355,17.871953 C35.3149882,17.0151115 34.7846387,16.3941421 34.113187,16.0090448 C33.4417353,15.6239475 32.5561975,15.4313989 31.4565737,15.4313989 C30.4737241,15.4313989 29.6222455,15.6287612 28.9021379,16.023486 C28.1820303,16.4182107 27.6273528,16.9838223 27.2381054,17.7203209 C26.8488581,18.4568195 26.6542344,19.3353227 26.6542344,20.3558306 C26.6542344,21.3859658 26.8439925,22.2692827 27.2235087,23.0057813 C27.6030248,23.7422799 28.1309416,24.300671 28.8072589,24.6809546 C29.4835761,25.0612382 30.2596381,25.2513799 31.1354446,25.2513799 Z M44.7573646,25.2513799 C45.730483,25.2513799 46.5697976,25.0564244 47.2753084,24.6665134 C47.9808193,24.2766024 48.5233328,23.7133976 48.902849,22.976899 C49.2823652,22.2404005 49.4721232,21.3618972 49.4721232,20.3413894 C49.4721232,19.3208816 49.2823652,18.4423784 48.902849,17.7058798 C48.5233328,16.9693812 47.9808193,16.4061764 47.2753084,16.0162654 C46.5697976,15.6263544 45.730483,15.4313989 44.7573646,15.4313989 C43.7842462,15.4313989 42.9424988,15.6263544 42.2321223,16.0162654 C41.5217459,16.4061764 40.9767996,16.9693812 40.5972834,17.7058798 C40.2177672,18.4423784 40.0280091,19.3208816 40.0280091,20.3413894 C40.0280091,21.3618972 40.2177672,22.2404005 40.5972834,22.976899 C40.9767996,23.7133976 41.5217459,24.2766024 42.2321223,24.6665134 C42.9424988,25.0564244 43.7842462,25.2513799 44.7573646,25.2513799 Z M44.7573646,23.3018249 C44.0567193,23.3018249 43.5215042,23.0515116 43.1517192,22.5508851 C42.7819342,22.0502587 42.5970417,21.3137601 42.5970417,20.3413894 C42.5970417,19.3690187 42.7819342,18.6325201 43.1517192,18.1318937 C43.5215042,17.6312672 44.0567193,17.3809539 44.7573646,17.3809539 C45.4580098,17.3809539 45.9907922,17.6312672 46.3557116,18.1318937 C46.720631,18.6325201 46.9030907,19.3690187 46.9030907,20.3413894 C46.9030907,21.3137601 46.720631,22.0502587 46.3557116,22.5508851 C45.9907922,23.0515116 45.4580098,23.3018249 44.7573646,23.3018249 Z M61.3424301,25.1069685 L61.3424301,23.1862957 L56.5108972,23.1862957 L56.5108972,15.5758103 L54.0002517,15.5758103 L54.0002517,25.1069685 L61.3424301,25.1069685 Z M69.6803171,25.1069685 C71.1886506,25.1069685 72.3442287,24.6953957 73.1470514,23.8722503 C73.9498741,23.0491048 74.3512854,21.8721512 74.3512854,20.3413894 C74.3512854,18.8106276 73.9498741,17.633674 73.1470514,16.8105286 C72.3442287,15.9873831 71.1886506,15.5758103 69.6803171,15.5758103 L65.5932198,15.5758103 L65.5932198,25.1069685 L69.6803171,25.1069685 Z M68.1038652,23.2296191 L68.1038652,17.4531597 L69.4321719,17.4531597 C70.2398601,17.4531597 70.8334624,17.6938455 71.2129785,18.1752171 C71.5924947,18.6565887 71.7822528,19.3786462 71.7822528,20.3413894 C71.7822528,21.3041326 71.5924947,22.0261901 71.2129785,22.5075617 C70.8334624,22.9889333 70.2398601,23.2296191 69.4321719,23.2296191 L68.1038652,23.2296191 Z"/>
        </g>
        <g transform="translate(11.92 38.367)">
          <g fill-rule="nonzero" transform="translate(0 18.222)">
            <path fill="#95C1F5" d="M.170317817 9.92210459C.170317817 12.8306088 3.79939745 15.3286035 9.00500866 16.4465871L9.00500866 3.39762208C3.79939745 4.5156057.170317817 7.01360034.170317817 9.92210459zM12.9703568 2.85609877L12.9703568 16.9881104C13.6079568 17.0317817 14.2542911 17.0623515 14.9093596 17.0667186L14.9093596 2.78185767C14.2542911 2.78622479 13.6079568 2.81242753 12.9703568 2.85609877z"/>
            <rect width="29.862" height="3.502" x=".17" y="7.005" fill="#95C1F5"/>
            <path fill="#95C1F5" d="M30.0327083,9.92210459 C30.0327083,7.55949078 27.6351575,5.4632715 23.9449382,4.16623582 L23.9449382,15.6823405 C27.6351575,14.3809377 30.0327083,12.2847184 30.0327083,9.92210459 Z"/>
            <path fill="#A4CEFF" d="M9.00500866 3.39762208L9.00500866 16.4465871C10.2452717 16.7129816 11.5816115 16.8920337 12.9703568 16.9881104L12.9703568 2.85609877C11.5816115 2.95217549 10.2452717 3.13122755 9.00500866 3.39762208zM15.1015131 2.77312342C15.0403733 2.77312342 14.9792336 2.77749055 14.9137268 2.77749055L14.9137268 17.0623515C14.9748665 17.0623515 15.0360062 17.0667186 15.1015131 17.0667186 18.4117927 17.0667186 21.4687791 16.5513981 23.9449382 15.6779734L23.9449382 4.1618687C21.4687791 3.29281112 18.4117927 2.77312342 15.1015131 2.77312342z"/>
            <ellipse cx="15.102" cy="7.795" fill="#94C5FF" rx="14.931" ry="7.149"/>
            <ellipse cx="15.102" cy="7.263" fill="#B3D6FF" rx="14.931" ry="7.149"/>
            <ellipse cx="15.102" cy="7.263" fill="#98C7FF" rx="11.874" ry="5.503"/>
            <g fill="#FFA340" transform="translate(9.171 3.494)">
              <path d="M2.51546314,4.26667966 L0.655068525,3.27970975 L2.10932065,2.52419738 L3.96971526,3.51116729 C4.84750709,3.97408239 6.28865784,3.97408239 7.18391816,3.51116729 C8.07917848,3.04388508 8.09664697,2.28837271 7.21885515,1.82545762 L5.27548519,0.794816477 L6.72973731,0.0393041115 L8.67310727,1.06994526 C10.3326142,1.9521042 10.3020443,3.38452071 8.60760042,4.26667966 C6.90878938,5.14883861 4.17497007,5.14883861 2.51546314,4.26667966 Z"/>
              <polygon points="9.542 5.524 2.922 2.013 4.376 1.258 10.996 4.769"/>
              <polygon points="11.892 4.302 5.275 .79 6.725 .035 13.346 3.546"/>
              <polygon points="2.044 7.503 2.69 3.363 .664 3.288 .162 6.503"/>
            </g>
          </g>
          <g fill-rule="nonzero" transform="translate(0 13.667)">
            <path fill="#95C1F5" d="M.170317817 9.86096487C.170317817 12.7694691 3.79939745 15.2674638 9.00500866 16.3854474L9.00500866 3.33648235C3.79939745 4.45446597.170317817 6.95246061.170317817 9.86096487zM12.9703568 2.79495904L12.9703568 16.9269707C13.6079568 16.9706419 14.2542911 17.0012118 14.9093596 17.0055789L14.9093596 2.72071794C14.2542911 2.72508506 13.6079568 2.75128781 12.9703568 2.79495904z"/>
            <rect width="29.862" height="3.502" x=".17" y="6.944" fill="#95C1F5"/>
            <path fill="#95C1F5" d="M30.0327083,9.86096487 C30.0327083,7.49835105 27.6351575,5.40213177 23.9449382,4.10509609 L23.9449382,15.6212008 C27.6351575,14.319798 30.0327083,12.2235787 30.0327083,9.86096487 Z"/>
            <path fill="#A4CEFF" d="M9.00500866 3.33648235L9.00500866 16.3854474C10.2452717 16.6518419 11.5816115 16.830894 12.9703568 16.9269707L12.9703568 2.79495904C11.5816115 2.89103576 10.2452717 3.07008782 9.00500866 3.33648235zM15.1015131 2.71198369C15.0403733 2.71198369 14.9792336 2.71635082 14.9137268 2.71635082L14.9137268 17.0012118C14.9748665 17.0012118 15.0360062 17.0055789 15.1015131 17.0055789 18.4117927 17.0055789 21.4687791 16.4902583 23.9449382 15.6168336L23.9449382 4.10072897C21.4687791 3.23167139 18.4117927 2.71198369 15.1015131 2.71198369z"/>
            <ellipse cx="15.102" cy="7.734" fill="#94C5FF" rx="14.931" ry="7.149"/>
            <ellipse cx="15.102" cy="7.201" fill="#B3D6FF" rx="14.931" ry="7.149"/>
            <ellipse cx="15.102" cy="7.201" fill="#98C7FF" rx="11.874" ry="5.503"/>
            <g fill="#FFA340" transform="translate(9.171 3.057)">
              <path d="M2.51546314,4.64225228 L0.655068525,3.65528237 L2.10932065,2.89977 L3.96971526,3.88673992 C4.84750709,4.34965501 6.28865784,4.34965501 7.18391816,3.88673992 C8.07917848,3.4194577 8.09664697,2.66394534 7.21885515,2.20103024 L5.27548519,1.1703891 L6.72973731,0.414876733 L8.67310727,1.44551788 C10.3326142,2.32767683 10.3020443,3.76009333 8.60760042,4.64225228 C6.90878938,5.52441123 4.17497007,5.52441123 2.51546314,4.64225228 Z"/>
              <polygon points="9.542 5.9 2.922 2.389 4.376 1.633 10.996 5.144"/>
              <polygon points="11.892 4.677 5.275 1.166 6.725 .411 13.346 3.922"/>
              <polygon points="2.044 7.878 2.69 3.738 .664 3.664 .162 6.878"/>
            </g>
          </g>
          <g fill-rule="nonzero" transform="translate(0 9.111)">
            <path fill="#95C1F5" d="M.170317817 10.2365375C.170317817 13.1450417 3.79939745 15.6430364 9.00500866 16.76102L9.00500866 3.71205498C3.79939745 4.83003859.170317817 7.32803323.170317817 10.2365375zM12.9703568 3.17053166L12.9703568 17.3025433C13.6079568 17.3462145 14.2542911 17.3767844 14.9093596 17.3811515L14.9093596 3.09629056C14.2542911 3.10065769 13.6079568 3.12686043 12.9703568 3.17053166z"/>
            <rect width="29.862" height="3.502" x=".17" y="7.319" fill="#95C1F5"/>
            <path fill="#95C1F5" d="M30.0327083,10.2365375 C30.0327083,7.87392367 27.6351575,5.77770439 23.9449382,4.47630159 L23.9449382,15.9924063 C27.6351575,14.6910035 30.0327083,12.5991513 30.0327083,10.2365375 Z"/>
            <path fill="#A4CEFF" d="M9.00500866 3.71205498L9.00500866 16.76102C10.2452717 17.0274145 11.5816115 17.2064666 12.9703568 17.3025433L12.9703568 3.17053166C11.5816115 3.26660838 10.2452717 3.44566044 9.00500866 3.71205498zM15.1015131 3.08755632C15.0403733 3.08755632 14.9792336 3.09192344 14.9137268 3.09192344L14.9137268 17.3767844C14.9748665 17.3767844 15.0360062 17.3811515 15.1015131 17.3811515 18.4117927 17.3811515 21.4687791 16.865831 23.9449382 15.9924063L23.9449382 4.47630159C21.4687791 3.60724401 18.4117927 3.08755632 15.1015131 3.08755632z"/>
            <ellipse cx="15.102" cy="8.11" fill="#94C5FF" rx="14.931" ry="7.149"/>
            <ellipse cx="15.102" cy="7.577" fill="#B3D6FF" rx="14.931" ry="7.149"/>
            <ellipse cx="15.102" cy="7.577" fill="#98C7FF" rx="11.874" ry="5.503"/>
            <g fill="#FFA340" transform="translate(9.171 3.494)">
              <path d="M2.51546314,4.58111255 L0.655068525,3.59414264 L2.10932065,2.83863028 L3.96971526,3.82560019 C4.84750709,4.28851528 6.28865784,4.28851528 7.18391816,3.82560019 C8.07917848,3.35831797 8.09664697,2.60280561 7.21885515,2.13989052 L5.27548519,1.10924937 L6.72973731,0.353737004 L8.67310727,1.38437815 C10.3326142,2.2665371 10.3020443,3.69895361 8.60760042,4.58111255 C6.90878938,5.4632715 4.17497007,5.4632715 2.51546314,4.58111255 Z"/>
              <polygon points="9.542 5.839 2.922 2.328 4.376 1.572 10.996 5.083"/>
              <polygon points="11.892 4.616 5.275 1.105 6.725 .349 13.346 3.861"/>
              <polygon points="2.044 7.817 2.69 3.677 .664 3.603 .162 6.817"/>
            </g>
          </g>
          <g fill-rule="nonzero" transform="translate(0 4.556)">
            <path fill="#95C1F5" d="M.170317817 10.1753978C.170317817 13.083902 3.79939745 15.5818967 9.00500866 16.6998803L9.00500866 3.65091525C3.79939745 4.76889886.170317817 7.26689351.170317817 10.1753978zM12.9703568 3.10939193L12.9703568 17.2414036C13.6079568 17.2850748 14.2542911 17.3156447 14.9093596 17.3200118L14.9093596 3.03515083C14.2542911 3.03515083 13.6079568 3.0657207 12.9703568 3.10939193z"/>
            <rect width="29.862" height="3.502" x=".17" y="7.258" fill="#95C1F5"/>
            <path fill="#95C1F5" d="M30.0327083,10.1753978 C30.0327083,7.81278394 27.6351575,5.71656466 23.9449382,4.41952898 L23.9449382,15.9356337 C27.6351575,14.6298637 30.0327083,12.5380116 30.0327083,10.1753978 Z"/>
            <path fill="#A4CEFF" d="M9.00500866 3.65091525L9.00500866 16.6998803C10.2452717 16.9662748 11.5816115 17.1453269 12.9703568 17.2414036L12.9703568 3.10939193C11.5816115 3.20546865 10.2452717 3.38452071 9.00500866 3.65091525zM15.1015131 3.02641659C15.0403733 3.02641659 14.9792336 3.03078371 14.9137268 3.03078371L14.9137268 17.3156447C14.9748665 17.3156447 15.0360062 17.3200118 15.1015131 17.3200118 18.4117927 17.3200118 21.4687791 16.8046912 23.9449382 15.9312665L23.9449382 4.41516186C21.4687791 3.54610428 18.4117927 3.02641659 15.1015131 3.02641659z"/>
            <ellipse cx="15.102" cy="8.049" fill="#94C5FF" rx="14.931" ry="7.149"/>
            <ellipse cx="15.102" cy="7.516" fill="#B3D6FF" rx="14.931" ry="7.149"/>
            <ellipse cx="15.102" cy="7.516" fill="#98C7FF" rx="11.874" ry="5.503"/>
            <g fill="#FFA340" transform="translate(9.171 3.494)">
              <path d="M2.51546314,4.51997282 L0.655068525,3.53300291 L2.10932065,2.77749055 L3.96971526,3.76446046 C4.84750709,4.22737555 6.28865784,4.22737555 7.18391816,3.76446046 C8.07917848,3.29717824 8.09664697,2.54166588 7.21885515,2.07875079 L5.27548519,1.04810964 L6.72973731,0.292597275 L8.67310727,1.32323842 C10.3326142,2.20539737 10.3020443,3.63781388 8.60760042,4.51997282 C6.90878938,5.40213177 4.17497007,5.40213177 2.51546314,4.51997282 Z"/>
              <polygon points="9.542 5.778 2.922 2.267 4.376 1.511 10.996 5.022"/>
              <polygon points="11.892 4.555 5.275 1.044 6.725 .288 13.346 3.799"/>
              <polygon points="2.044 7.756 2.69 3.616 .664 3.542 .162 6.756"/>
            </g>
          </g>
          <path fill="#95C1F5" fill-rule="nonzero" d="M.170317817 10.114258C.170317817 13.0227623 3.79939745 15.5207569 9.00500866 16.6387405L9.00500866 3.58977552C3.79939745 4.70775913.170317817 7.20575378.170317817 10.114258zM12.9703568 3.0482522L12.9703568 17.1802639C13.6079568 17.2239351 14.2542911 17.254505 14.9093596 17.2588721L14.9093596 2.96964398C14.2542911 2.9740111 13.6079568 3.00458097 12.9703568 3.0482522z"/>
          <rect width="29.862" height="3.502" x=".17" y="7.197" fill="#95C1F5" fill-rule="nonzero"/>
          <path fill="#95C1F5" fill-rule="nonzero" d="M30.0327083,10.114258 C30.0327083,7.75164421 27.6351575,5.65542493 23.9449382,4.35838925 L23.9449382,15.8744939 C27.6351575,14.568724 30.0327083,12.4768718 30.0327083,10.114258 Z"/>
          <path fill="#A4CEFF" fill-rule="nonzero" d="M9.00500866 3.58977552L9.00500866 16.6387405C10.2452717 16.9051351 11.5816115 17.0841871 12.9703568 17.1802639L12.9703568 3.0482522C11.5816115 3.14432892 10.2452717 3.32338098 9.00500866 3.58977552zM15.1015131 2.96527686C15.0403733 2.96527686 14.9792336 2.96964398 14.9137268 2.96964398L14.9137268 17.254505C14.9748665 17.254505 15.0360062 17.2588721 15.1015131 17.2588721 18.4117927 17.2588721 21.4687791 16.7435515 23.9449382 15.8701268L23.9449382 4.35402213C21.4687791 3.48496455 18.4117927 2.96527686 15.1015131 2.96527686z"/>
          <ellipse cx="15.102" cy="7.987" fill="#94C5FF" rx="14.931" ry="7.149"/>
          <ellipse cx="15.102" cy="7.455" fill="#B3D6FF" fill-rule="nonzero" rx="14.931" ry="7.149"/>
          <ellipse cx="15.102" cy="7.455" fill="#DCEEFF" fill-rule="nonzero" rx="11.874" ry="5.503"/>
          <g fill="#94C5FF" transform="translate(9.171 3.494)">
            <path d="M2.51546314,4.45883309 L0.655068525,3.47186318 L2.10932065,2.71635082 L3.96971526,3.70332073 C4.84750709,4.16623582 6.28865784,4.16623582 7.18391816,3.70332073 C8.07917848,3.23603851 8.09664697,2.48052615 7.21885515,2.01761106 L5.27548519,0.986969911 L6.72973731,0.231457546 L8.67310727,1.26209869 C10.3326142,2.14425764 10.3020443,3.57667415 8.60760042,4.45883309 C6.90878938,5.34099204 4.17497007,5.34099204 2.51546314,4.45883309 Z"/>
            <polygon points="9.542 5.717 2.922 2.205 4.376 1.45 10.996 4.961"/>
            <polygon points="11.892 4.494 5.275 .983 6.725 .227 13.346 3.738"/>
            <polygon points="2.044 7.695 2.69 3.555 .664 3.481 .162 6.695"/>
          </g>
        </g>
        <g transform="rotate(4 -858.513 52.641)">
          <polygon fill="url(#ils_alternate_assets-j)" points="3.141 3.544 42.569 3.628 46.197 18.14 .525 17.46"/>
          <polygon fill="url(#ils_alternate_assets-k)" points="42.569 3.628 48.374 0 52.506 11.707 52.728 12.335 46.197 18.14"/>
          <use fill="url(#ils_alternate_assets-l)" xlink:href="#ils_alternate_assets-m"/>
          <use fill="#000" filter="url(#ils_alternate_assets-n)" xlink:href="#ils_alternate_assets-m"/>
          <path stroke="#C2DEFF" stroke-linejoin="square" stroke-width=".2" d="M7.05311855,0.1 L3.3980984,3.44436013 L42.5163763,3.543272 L48.0256115,0.1 L7.05311855,0.1 Z"/>
          <path fill="#68AEFF" d="M19.0507572,13.5619034 L19.0507572,12.4529228 L17.7386045,12.4529228 C17.3604788,12.4529228 16.9851749,12.4642101 16.6126929,12.4867848 L16.6126929,12.4867848 C17.40845,12.0240041 18.002446,11.5725107 18.3946808,11.1323046 C18.7869157,10.6920986 18.9830331,10.209565 18.9830331,9.68470398 C18.9830331,9.37430228 18.9068436,9.08365342 18.7544646,8.81275739 C18.6020856,8.54186136 18.3678734,8.32034741 18.051828,8.14821556 C17.7357827,7.97608371 17.3435478,7.89001778 16.8751234,7.89001778 C16.2317453,7.89001778 15.7082952,8.05650597 15.304773,8.38948234 C14.9012508,8.72245871 14.693846,9.19088309 14.6825587,9.7947555 L14.6825587,9.7947555 L15.9269873,10.175703 C15.932631,9.803221 16.0102314,9.51962671 16.1597886,9.32492019 C16.3093458,9.13021367 16.5167505,9.03286041 16.7820029,9.03286041 C17.0246806,9.03286041 17.2109216,9.10199533 17.340726,9.24026518 C17.4705303,9.37853503 17.5354325,9.5605433 17.5354325,9.78628999 C17.5354325,10.1869904 17.3252059,10.6144982 16.9047527,11.0688134 C16.4842994,11.5231286 15.8028266,12.0437569 14.8603342,12.6306983 L14.8603342,12.6306983 L14.8603342,13.5619034 L19.0507572,13.5619034 Z M23.7745067,13.5619034 L23.7745067,12.3344058 L24.6295223,12.3344058 L24.6295223,11.3354767 L23.7745067,11.3354767 L23.7745067,7.97467279 L22.072941,7.97467279 L19.6772042,11.6487002 L19.6772042,12.3344058 L22.4877505,12.3344058 L22.4877505,13.5619034 L23.7745067,13.5619034 Z M22.4877505,11.3354767 L21.0316844,11.3354767 L22.0136825,9.8455485 C22.2394292,9.48999746 22.4030955,9.18523943 22.5046815,8.9312744 L22.5046815,8.9312744 L22.5216125,8.9312744 L22.4877505,9.8455485 L22.4877505,11.3354767 Z M26.940604,13.5619034 L26.940604,11.9873202 L27.6178441,11.1661666 L29.0061863,13.5619034 L30.6569589,13.5619034 L28.6591007,10.243427 L30.5553729,7.97467279 L28.9384622,7.97467279 L26.940604,10.4550646 L26.940604,7.97467279 L25.4845379,7.97467279 L25.4845379,13.5619034 L26.940604,13.5619034 Z"/>
        </g>
      </g>
    </g>
  </g>
</svg>
