<svg xmlns="http://www.w3.org/2000/svg" xmlns:xlink="http://www.w3.org/1999/xlink" width="320" height="160" viewBox="0 0 320 160">
  <defs>
    <radialGradient id="ils_gold_purchase_failed-a" cx="38.638%" cy="23.087%" r="62.436%" fx="38.638%" fy="23.087%" gradientTransform="matrix(0 1 -.17956 0 .428 -.156)">
      <stop offset="0%" stop-color="#98C7FF"/>
      <stop offset="54.417%" stop-color="#153D6C"/>
      <stop offset="100%" stop-color="#083160"/>
    </radialGradient>
    <linearGradient id="ils_gold_purchase_failed-b" x1="50%" x2="50%" y1=".295%" y2="99.705%">
      <stop offset="0%" stop-color="#D9EDFF"/>
      <stop offset="99.926%" stop-color="#BEDCFF"/>
    </linearGradient>
    <linearGradient id="ils_gold_purchase_failed-c" x1="50%" x2="50%" y1=".298%" y2="100%">
      <stop offset="0%" stop-color="#D5EBFF"/>
      <stop offset="100%" stop-color="#AAD1FD"/>
    </linearGradient>
    <linearGradient id="ils_gold_purchase_failed-d" x1="50%" x2="50%" y1="76.868%" y2="17.026%">
      <stop offset=".016%" stop-color="#C0E0FD"/>
      <stop offset="100%" stop-color="#BDDBFF"/>
    </linearGradient>
    <polygon id="ils_gold_purchase_failed-e" points="16.013 0 86.224 0 76.37 6.159 7.391 6.159"/>
    <filter id="ils_gold_purchase_failed-f" width="103.8%" height="148.7%" x="-1.9%" y="-24.4%" filterUnits="objectBoundingBox">
      <feGaussianBlur in="SourceAlpha" result="shadowBlurInner1" stdDeviation="1"/>
      <feOffset dy="1" in="shadowBlurInner1" result="shadowOffsetInner1"/>
      <feComposite in="shadowOffsetInner1" in2="SourceAlpha" k2="-1" k3="1" operator="arithmetic" result="shadowInnerInner1"/>
      <feColorMatrix in="shadowInnerInner1" values="0 0 0 0 1   0 0 0 0 0.970636977   0 0 0 0 0.828715701  0 0 0 0.400513549 0"/>
    </filter>
    <linearGradient id="ils_gold_purchase_failed-g" x1="50%" x2="50%" y1=".295%" y2="99.705%">
      <stop offset="0%" stop-color="#D9EDFF"/>
      <stop offset="99.926%" stop-color="#BEDCFF"/>
    </linearGradient>
    <linearGradient id="ils_gold_purchase_failed-h" x1="50%" x2="50%" y1=".298%" y2="100%">
      <stop offset="0%" stop-color="#D5EBFF"/>
      <stop offset="100%" stop-color="#AAD1FD"/>
    </linearGradient>
    <linearGradient id="ils_gold_purchase_failed-i" x1="50%" x2="50%" y1="76.868%" y2="17.026%">
      <stop offset=".016%" stop-color="#C0E0FD"/>
      <stop offset="100%" stop-color="#BDDBFF"/>
    </linearGradient>
    <polygon id="ils_gold_purchase_failed-j" points="6.159 0 42.475 0 37.378 3.186 2.758 3.112"/>
    <filter id="ils_gold_purchase_failed-k" width="107.6%" height="194.2%" x="-3.8%" y="-47.1%" filterUnits="objectBoundingBox">
      <feGaussianBlur in="SourceAlpha" result="shadowBlurInner1" stdDeviation="1"/>
      <feOffset dy="1" in="shadowBlurInner1" result="shadowOffsetInner1"/>
      <feComposite in="shadowOffsetInner1" in2="SourceAlpha" k2="-1" k3="1" operator="arithmetic" result="shadowInnerInner1"/>
      <feColorMatrix in="shadowInnerInner1" values="0 0 0 0 1   0 0 0 0 0.970636977   0 0 0 0 0.828715701  0 0 0 0.400513549 0"/>
    </filter>
  </defs>
  <g fill="none" fill-rule="evenodd">
    <polygon points="320 0 0 0 0 160 320 160"/>
    <path fill="#FAFCFF" fill-rule="nonzero" d="M286.152502,156.902278 C280.94988,159.877988 90.7911469,159.571214 67.2597987,159.571214 C57.5144445,159.571214 48.7350186,161.818336 41.9161398,156.024136 C34.8055698,149.980683 29.2395285,141.24145 23.9938693,134.105113 C13.1582597,119.364608 4.4075246,103.224445 3.13077801,85.9415478 C2.64303212,79.315223 3.37943278,72.3361077 7.75001848,66.6991299 C12.1206042,61.0621522 20.9287211,57.2351428 28.8426372,59.1831596 C36.3692257,61.0353095 43.2359228,67.6041141 50.4277837,65.0348794 C55.266988,63.3054393 56.6058983,58.4162239 57.4953173,54.2287547 C60.8234657,38.5334147 66.9441984,22.4124253 81.0888291,11.2420061 C95.2382417,0.0754216797 119.29559,-4.27693868 135.257314,5.19088311 C144.060649,10.4137155 149.043308,18.7656458 152.744438,27.0332132 C156.445569,35.3007805 159.285971,43.9518157 165.224995,51.3297376 C171.164018,58.7076595 181.124554,64.7702865 192.060582,64.3446372 C201.662482,63.9688387 209.868089,58.8111958 216.749132,53.4273069 C223.630174,48.0395832 230.224307,42.015303 239.108933,39.0702697 C247.993559,36.1214017 260.086788,37.5325635 264.495629,44.3851344 C268.33065,50.3480598 265.012065,57.5035703 262.166881,63.8116169 C258.85786,71.1550266 256.218294,78.9777712 257.633713,86.7008142 C259.049133,94.4238572 265.423302,102.012686 274.857838,103.93386 C283.484245,105.690143 292.813581,102.549541 301.406516,104.405526 C314.164418,107.16266 319.696987,120.304104 315.74242,130.412317 C311.787852,140.52053 301.224807,147.975146 290.599597,154.271688 C290.599597,154.271688 290.599597,154.271688 290.594815,154.271688 C288.897268,155.284043 287.45794,156.154515 286.152502,156.902278 Z"/>
    <g transform="translate(153 13)">
      <g fill-rule="nonzero" transform="translate(69)">
        <path fill="#EDF5FF" d="M0.64906396,-1.0658141e-14 C2.79727644,0.0223713616 4.81973989,0.849651684 6.6273821,1.83791628 C14.2456771,6.00114861 19.1341703,13.1336465 21.4814854,20.588113 C23.8340401,28.0425795 23.891675,35.8726759 23.6035002,43.5865059 C23.4882303,46.7659454 24.1955685,58.6743103 18.5578207,55.8883879 C14.795829,54.0281251 11.0547956,44.5971295 9.1842789,41.3416696 C5.4851618,34.911242 2.86539049,28.0246923 1.41927673,20.9682148 C1.06822737,19.2689363 -1.04330831,-0.0178747082 0.64906396,-1.0658141e-14 Z"/>
        <path fill="#E3EFFF" d="M30.0638563 61.0219977C38.3056568 50.1779178 49.7645365 41.1314957 63.0729748 34.9649034 63.4292637 39.3338379 61.2076976 43.5686188 58.4569377 47.2712572 51.9389467 56.0359568 45.82964 62.1578312 37.0114898 69.1517038 34.5017489 71.1416483 23.9440705 77.0578206 23.2314927 76.0427253 20.9784893 72.8364551 27.9732788 63.767674 30.0638563 61.0219977zM16.1895474 115.89975L15.1940343 115.685104C17.247935 108.704647 18.7359651 101.344088 19.6162083 93.813601 20.4492955 86.6945184 20.7636681 79.217693 20.5488469 71.5932987 20.3497442 64.4384418 19.6790828 56.9437293 18.5578207 49.319335 17.488954 42.0571553 16.0323611 34.683181 14.2299584 27.3986423 12.7943238 21.6032083 10.6565904 14.0503626 6.82124517 7.00730035 6.39684222 6.22920967 5.9514811 5.45559077 5.49564089 4.70880259L6.40732131 4.30634189C6.86840106 5.06654543 7.32424126 5.8491079 7.75388376 6.64061394 11.6363848 13.7641683 13.7898369 21.379619 15.2359506 27.2197709 17.0435928 34.5266685 18.5054252 41.9274735 19.5742919 49.2120121 20.7007936 56.8677089 21.371455 64.393724 21.5757972 71.5754115 21.7906185 79.2355801 21.4762459 86.7481798 20.6379191 93.9030367 19.7524364 101.47377 18.2539272 108.874575 16.1895474 115.89975z"/>
        <path fill="#EFF6FF" d="M20.8579799,85.1964702 C20.8527403,85.1964702 20.8422612,85.1964702 20.8370217,85.1964702 C20.5540864,85.1875267 20.3340256,84.9818245 20.3441455,84.7403481 C20.5645655,79.9197633 23.4829907,74.2987289 29.0264268,68.0292856 C36.9486153,59.0722992 45.1380204,49.8112314 56.3244439,43.3897474 C56.5602233,43.2555938 56.8798354,43.3092552 57.0370217,43.5104856 C57.194208,43.7117159 57.1313335,43.9844949 56.895554,44.1186484 C45.8505982,50.4551685 37.7135885,59.6581031 29.8437955,68.5569563 C24.4313479,74.6788307 21.5810367,80.134409 21.371455,84.7716506 C21.360976,85.013127 21.1304361,85.1964702 20.8579799,85.1964702 Z"/>
        <path fill="#E3EFFF" d="M20.9418125,70.1936298 C20.8946567,70.1936298 20.8475008,70.1846862 20.8003449,70.1667991 C20.6169609,70.0997223 20.5331282,69.9208509 20.6117214,69.7643384 C24.0121845,63.0208858 27.5593549,55.0253333 28.0728301,46.8509094 C28.1828605,42.9738713 27.8422902,38.9671515 27.512199,35.0856417 C27.3497732,33.1717175 27.1821078,31.1951883 27.0720774,29.2633769 C26.778663,23.4187532 26.9934843,15.8927382 31.2741906,9.47572596 L31.5414073,9.07326526 L31.8714985,9.43995168 C33.2233005,10.933528 33.5586312,11.3538759 33.5481521,11.559578 C36.4980146,15.8659075 37.2315506,20.5523387 37.283946,23.9419521 C37.3572996,28.927993 36.0369349,34.1331513 33.1289887,40.3221025 C31.7143122,43.3316142 30.3048752,46.2785208 28.5863052,49.2746171 C28.5758262,49.2925043 28.5601075,49.3103914 28.5496284,49.3282786 C27.5645944,56.7380272 24.3579943,63.8839404 21.2719037,70.0058148 C21.2142688,70.126553 21.0832802,70.1936298 20.9418125,70.1936298 Z M31.5414073,10.3477241 C27.7008225,16.5053728 27.512199,23.6512861 27.7898948,29.241018 C27.8999252,31.1638858 28.0675905,33.1359432 28.2300163,35.0453956 C28.5601075,38.9403208 28.9006778,42.9649278 28.7906474,46.8777401 C28.7749288,47.1102729 28.7592101,47.3472776 28.738252,47.5798104 C30.0952935,45.0890259 31.2794301,42.6161285 32.4583272,40.0985132 C35.3348361,33.9855824 36.6394823,28.8564444 36.5608891,23.9553675 C36.5084937,20.5836412 35.7697182,15.89721 32.7622207,11.6400702 C32.5002436,11.4075373 31.9081753,10.8530359 31.5414073,10.3477241 Z"/>
      </g>
      <g fill-rule="nonzero" transform="translate(75.835 49.031)">
        <path fill="#F2F8FF" d="M74.7525546,30.9282357 C73.7256043,29.5688129 72.0541902,28.669984 70.3408597,27.9768573 C63.1260096,25.0746685 54.5907946,25.2982577 46.9620206,27.2926741 C39.3332465,29.2870904 32.4484875,32.9226521 25.8309451,36.7236698 C23.1011434,38.2887947 12.3443624,43.4224045 17.4267188,45.7119587 C20.8167029,47.2413093 30.8294688,45.2021751 34.5600232,44.871263 C41.9268201,44.2139105 49.1835866,42.6577291 56.0421479,40.2697957 C57.6821248,39.6929353 75.5594442,31.9969925 74.7525546,30.9282357 Z"/>
        <path fill="#E2EEFF" d="M68.286959,29.2692033 C67.4067159,29.3318083 66.5055145,29.4078286 65.6095528,29.5062079 C57.5511362,30.3692625 49.8752063,32.5649092 44.0802721,34.3849259 C36.8339847,36.656593 29.6715299,39.1965671 22.7920104,41.9288281 C15.5614416,44.7997144 8.65572442,47.8986618 2.2739615,51.1407063 C1.50898828,51.5297516 0.754494138,51.918797 -7.531753e-13,52.3167859 C0.523954263,52.3436166 1.04790853,52.3749191 1.57186279,52.4062216 C1.95958894,52.2049912 2.34207555,52.0037609 2.73504125,51.8070023 C9.09060646,48.582845 15.9701259,45.4928412 23.1692575,42.6353702 C30.0278188,39.9120528 37.1693154,37.3810222 44.3894051,35.113827 C50.1371834,33.3116974 57.7502388,31.1294661 65.7195832,30.275355 C66.5998263,30.1814475 67.485309,30.1009554 68.3550731,30.0428222 L68.286959,29.2692033 Z"/>
        <path fill="#D3E6FD" d="M3.71483572,50.376031 C9.29494862,43.4715941 16.0801563,35.7711794 24.6782458,29.9176122 C24.6887249,29.8952533 24.7044435,29.8684225 24.7201621,29.8460636 C27.3137357,26.2820506 30.0540165,23.0221189 32.8624113,19.7219412 C38.6468664,12.9337708 44.2636561,8.24733953 50.5458677,4.9829361 C54.8108554,2.76493048 61.1611811,0.292033083 68.5174989,0.0952745196 C68.7637574,-0.0567661882 69.5182516,-0.0299354751 72.2847301,0.198125587 L72.9658706,0.256258799 L72.6357794,0.766042348 C67.485309,8.95388164 58.2270372,14.1858707 50.7292517,17.8303759 C48.2457085,19.0198709 45.662614,20.1914787 43.1633521,21.3228404 C38.0967144,23.6168664 32.8624113,25.9913845 28.0944276,28.6878712 C18.2283688,34.6219306 10.6100738,43.203287 4.46409032,50.8097942 C4.32262267,50.9841938 4.03968736,51.0289116 3.8353452,50.9081734 C3.78294978,50.8768709 3.74103343,50.8366249 3.70959618,50.7963788 C3.61004487,50.6756406 3.61004487,50.5101845 3.71483572,50.376031 Z M68.9419019,0.859949844 C61.6117817,0.967272697 55.2614561,3.43122652 51.012187,5.64028857 C44.8400058,8.85103058 39.3018092,13.470385 33.5907078,20.1780633 C31.2381531,22.937155 28.9379939,25.6694159 26.7321465,28.5716047 C27.0098422,28.3972051 27.2927775,28.2272773 27.5757128,28.0573494 C32.3908525,25.3385038 37.6461138,22.9550421 42.7337097,20.6476008 C45.2277319,19.5162391 47.8055869,18.349103 50.278651,17.1640799 C57.4463453,13.6760872 66.2540165,8.7213488 71.3782892,1.10589805 C70.498046,1.11484162 69.4134607,0.944913769 68.9419019,0.859949844 Z"/>
        <path fill="#D3E6FD" d="M25.3069909,29.0635011 L25.8676219,29.671664 C27.2718194,28.7236454 29.0689825,27.3686944 30.9709365,25.9287795 C33.2239398,24.229501 35.5502967,22.4676175 37.2583876,21.3809736 C42.833261,17.8169606 48.5757997,14.3200243 54.334057,10.9796005 C60.0923144,7.64364848 66.0182371,4.37477327 71.9546389,1.26241054 L71.48308,0.605058069 C65.5361992,3.72189258 59.5945578,6.99523958 53.8258214,10.3401352 C48.057085,13.6850307 42.2988276,17.1909106 36.7134752,20.7593954 C34.9791866,21.8683982 32.637111,23.6392253 30.3683891,25.3474474 C28.4821537,26.7828905 26.6902301,28.1333698 25.3069909,29.0635011 Z"/>
      </g>
      <g fill-rule="nonzero" transform="rotate(-60 29.293 15.808)">
        <path fill="#F3F9FF" d="M11.2388189,33.2700843 C16.8660877,22.9313162 19.4125054,11.3806942 18.5741786,-2.48689958e-14 C14.5816471,1.82001671 11.9147199,5.22304549 9.96561007,8.71550999 C5.34957302,16.9838414 2.85031119,23.7496529 0.864524533,32.6529779 C0.29865393,35.1884803 0.0681140541,44.6910245 1.28892749,44.6731626 C5.15570994,44.6015888 9.81366334,35.8905506 11.2388189,33.2700843 Z"/>
        <path fill="#D5E8FF" d="M1.08458532,45.0129931 C2.72456217,42.8575925 4.2283109,40.2550133 5.58535244,37.2141991 C9.71411203,27.9620749 13.9843393,18.3969256 14.3563468,8.25044429 C14.3668259,8.03579859 14.1677233,7.85692717 13.9162252,7.85211787 C13.6647272,7.84351181 13.4551455,8.01343966 13.4499059,8.22808536 C13.0778984,18.2404132 8.83910841,27.7474292 4.73654653,36.9414202 C3.31139094,40.1342751 1.72904907,42.82629 6.30606678e-14,45.0085213 C0.366767984,45.0129931 0.728296425,45.0085213 1.08458532,45.0129931 Z"/>
      </g>
      <g transform="rotate(40 -42.226 181.434)">
        <path fill="#E8F3FF" fill-rule="nonzero" d="M5.96783905,38.3097866 C3.51049356,36.570262 0.916919959,34.3075385 1.24701114,31.6021083 C1.29416703,31.2041194 1.43039514,30.7837716 1.80240266,30.5422951 C2.46258503,30.1085319 3.41618179,30.4752183 4.24402953,30.4036698 C5.99403676,30.2561009 6.61230279,28.1767206 5.85256911,26.8217696 C5.09283543,25.4668186 3.54717036,24.5858768 2.38923144,23.4589869 C1.37799971,22.475194 0.649703286,21.2856991 0.282935302,20.015712 C-0.193863077,18.3566796 0.455840208,16.0850125 2.44162686,15.9016693 C3.88250109,15.7719875 5.02996092,16.8362725 6.10406716,17.6724964 C7.1781734,18.5087203 8.92818063,19.1660728 9.97084962,18.3030182 C10.8668114,17.5607018 10.4895643,16.2951865 10.1332754,15.2711476 C9.25303228,12.7714195 8.86530612,10.1464814 8.9858156,7.53495861 C9.06964828,5.7149419 9.43641627,3.82784841 10.6939065,2.35663097 C11.9461572,0.885413534 14.2882327,-0.0357742842 16.2844985,0.608162831 C18.1445361,1.21185388 19.1714865,2.9334913 19.601129,4.59252373 C20.7747865,9.1134989 18.8151976,13.7462687 18.2178897,18.347736 C18.0764221,19.4343799 18.3226806,20.892182 19.5906499,21.0710534 C20.4813721,21.1962634 21.2253872,20.5612698 21.9117673,20.0604299 C23.5779418,18.8396324 25.7942683,18.1733364 27.9948762,18.2404132 C28.3721233,18.2538285 28.765089,18.2896028 29.0794616,18.4684742 C29.7972789,18.8709349 29.7710812,19.7787074 29.5143436,20.4763059 C28.3197279,23.7049351 24.0652193,25.6769925 23.2373715,28.9861138 C23.1273411,29.4288205 23.1011434,29.9386041 23.4417137,30.2874034 C23.6879722,30.5378233 24.0809379,30.649618 24.458185,30.6988076 C26.0248082,30.9089815 27.5495151,30.2650444 29.0899407,29.9475477 C30.6303662,29.6300509 32.6109133,29.8178659 33.2815748,31.0431351 C33.7845708,31.9643229 33.3025329,33.0599104 32.6895064,33.9319086 C30.792792,36.6105081 27.6752641,38.5333759 24.3219569,39.7988912 C21.3144594,40.9302529 17.2485743,42.2673168 13.9162252,42.2897319 C10.7724996,42.3030911 8.22608192,39.9106858 5.96783905,38.3097866 Z"/>
        <line x1="14.954" x2="14.954" y1="6.006" y2="46.614" stroke="#E5EDF7" stroke-linecap="round"/>
        <path stroke="#E5EDF7" stroke-linecap="round" d="M2.21108699 18.0481264C6.44987697 21.5853087 10.5891156 25.2119268 14.6235635 28.9235088M3.27471414 32.0761176C7.13101751 34.6786967 10.9139673 37.3617681 14.6235635 40.1163879M15.4042553 31.1236272C19.0195397 27.7563728 22.6976987 24.4383079 26.4387321 21.1739045"/>
      </g>
      <g transform="rotate(-50 71.27 19.181)">
        <path fill="#F2F8FF" fill-rule="nonzero" d="M18.8309162,5.20515835 C18.191692,4.19453482 17.3848024,3.22862915 16.4469243,2.43265133 C15.2418295,1.22526923 13.6070922,0.313024987 11.7732523,0.0894357105 C7.81215805,-0.397988912 4.23878998,2.37451811 2.45210595,5.43321941 C0.654942828,8.50533607 0.0104790853,12.0559338 0.628745115,15.450019 C1.0688667,17.8647832 2.20584745,20.2750756 4.33310175,21.9117491 C4.4745694,22.0190719 4.61603705,22.121923 4.76798379,22.2203023 C6.18789984,24.0000729 8.37802866,24.8094661 10.9034882,24.76922 C12.7949631,24.7379175 15.2051527,23.8390886 16.656506,22.8150497 C18.44319,21.5495344 19.7740339,20.0291274 20.4237372,18.1062596 C21.7702996,14.1263705 21.136315,8.87202248 18.8309162,5.20515835 Z"/>
        <line x1="10.626" x2="10.626" y1="3.908" y2="28.606" stroke="#E2EEFF" stroke-linecap="round"/>
        <path stroke="#E2EEFF" stroke-linecap="round" d="M2.46782458 8.13864965C4.78894196 10.4371474 7.11005934 12.7356452 9.43117673 15.0341429M2.04866117 14.260524C3.06513244 15.2130144 4.04492691 16.1923354 4.99852366 17.1940153M6.68565639 19.161601C7.87503257 20.3734548 9.10632508 21.5540062 10.3795339 22.7032551M10.7043856 11.9083649C12.3548415 10.0615174 13.9476625 8.17442394 15.488088 6.25602795M10.88253 19.9173327C12.3600811 18.5087203 13.8690693 17.1269386 15.4042553 15.763044"/>
      </g>
    </g>
    <g transform="translate(16 10)">
      <g fill-rule="nonzero" transform="rotate(-20 57.85 8.958)">
        <path fill="#EDF5FF" d="M47.3969026 9.77085137C45.5421045 10.0883481 43.944044 11.0900281 42.5660443 12.2035027 36.7658706 16.8765186 33.8946012 23.7407093 33.2868143 30.5333516 32.6790274 37.321522 34.1356202 44.118636 35.8646693 50.7681811 36.5772471 53.5093856 38.2486612 63.9286459 42.6027211 60.7268474 45.5054277 58.5893339 46.9358228 49.8917111 47.9365755 46.8061791 49.9118831 40.7111354 50.8602403 34.3790871 50.7554494 28.0604542 50.7344912 26.5355753 48.8639745 9.52043138 47.3969026 9.77085137zM33.6169055 66.781645C24.3900709 58.5356725 12.7216095 52.2975317-1.17239551e-13 48.809539.529193805 52.646331 3.2694746 56.0091137 6.36604429 58.8308104 13.701404 65.5161297 20.1669996 69.9700281 29.1580547 74.7950847 31.7149515 76.1679228 42.0001737 79.8213716 42.4245766 78.8420506 43.76066 75.7520468 35.958981 68.8744406 33.6169055 66.781645z"/>
        <path fill="#E3EFFF" d="M56.1836156,112.411745 L57.0062238,112.089776 C53.8834564,106.325644 51.1798524,100.15458 48.9740049,93.7465117 C46.8834274,87.6917141 45.1805761,81.2568148 43.8968881,74.6162133 C42.6970329,68.387016 41.8377479,61.7956042 41.3452309,55.0297927 C40.8789116,48.5859497 40.7217253,41.9900661 40.8841511,35.4254849 C41.0151397,30.2024394 41.4185845,23.3561358 43.3886525,16.7110625 C43.6087133,15.9776897 43.8444927,15.2443169 44.0959907,14.533303 L43.2314662,14.3097137 C42.9747286,15.0341429 42.7337097,15.7764593 42.5136489,16.5232475 C40.5173831,23.2398694 40.1086988,30.1443062 39.9777102,35.4075978 C39.8152844,41.9945379 39.9672311,48.6127804 40.43879,55.0789823 C40.931307,61.8716245 41.7958315,68.4898671 43.0009263,74.745895 C44.2846143,81.417799 46.0031843,87.8840009 48.0990013,93.970101 C50.3205674,100.405 53.03989,106.611839 56.1836156,112.411745 Z"/>
        <path fill="#E3EFFF" d="M46.2389637 86.4530295C46.2442032 86.4530295 46.2494428 86.4530295 46.2546823 86.4485578 46.4957013 86.3993681 46.6528875 86.193666 46.5952526 85.9879638 45.47923 81.8381469 41.8691851 77.3753049 35.8646693 72.7157044 27.2770589 66.0572158 18.4012737 59.1751378 7.47158778 55.1773616 7.24104791 55.0923977 6.97383123 55.1863052 6.87951947 55.3785919 6.77996816 55.5753505 6.88475901 55.8034116 7.11529889 55.8839037 17.9035172 59.8324903 26.7269069 66.6698504 35.2568823 73.2836212 41.1251701 77.8314271 44.6409032 82.1601154 45.7150094 86.1534199 45.7674048 86.3635938 45.9979447 86.4888038 46.2389637 86.4530295zM42.6917933 73.3149237C37.1955131 66.3612972 31.2695904 58.1600425 28.021074 49.1941126 28.0001158 49.1762254 27.9791576 49.1583383 27.9581994 49.1359793 25.0135765 45.7731966 22.4619192 42.4059421 19.8893038 38.9716108 14.5921262 31.8972461 11.5322333 25.7217103 10.2590245 19.5417027 9.39449993 15.3382243 9.01725286 9.39522139 11.4850774 3.47904914 11.4117238 3.22862915 11.7156173 2.63835346 12.9731075.523198906L13.2822406-7.10542736e-15 13.7223621.447178552C20.7747865 7.52601504 23.1011434 16.7960264 24.342915 24.080565 24.7358807 26.4908574 25.0712115 28.9726984 25.3908236 31.3695755 26.0457664 36.2304063 26.7269069 41.261165 27.9215227 46.0325602 30.7980316 56.0404162 37.3736575 65.2209919 43.4305688 72.8811605 43.5720365 73.0600319 43.5144015 73.2970365 43.3100593 73.4177747 43.2576639 73.4490772 43.2000289 73.4669644 43.142394 73.475908 42.9799682 73.5072105 42.7965842 73.4490772 42.6917933 73.3149237zM12.4805905 3.41644414C9.92369373 9.28342675 10.2957013 15.2264297 11.1549862 19.4075492 12.4072369 25.4847057 15.4252135 31.5708058 20.654277 38.5557348 22.807729 41.4310929 24.9454624 44.2572613 27.3084962 47.0655426 27.2194239 46.7793484 27.1355913 46.4931541 27.0517586 46.2069598 25.8414242 41.386375 25.1602837 36.342201 24.5001013 31.4590112 24.1752497 29.0621341 23.8451585 26.5892367 23.4521928 24.1878879 22.2628166 17.2163743 20.0726878 8.41142857 13.6332899 1.56512493 13.3241569 2.27166705 12.7425677 3.07211666 12.4805905 3.41644414z"/>
        <path fill="#E3EFFF" d="M27.3242148,48.3802476 L28.1887393,48.1566583 C27.6700246,46.6988562 26.8421769,44.7715167 25.9671733,42.7323825 C24.9349834,40.3220901 23.8661167,37.8313055 23.3002461,36.0783656 C21.445448,30.3500084 19.726878,24.5053847 18.1864525,18.7144224 C16.6460269,12.9234602 15.247069,7.01623149 14.0210161,1.16713602 L13.1302938,1.30128959 C14.3563468,7.16380041 15.7657838,13.0799727 17.3062093,18.8843503 C18.8466348,24.6887279 20.5704443,30.5422951 22.430482,36.2840677 C23.0068317,38.0683102 24.0809379,40.5769818 25.1236069,43.0006896 C25.9881314,45.0264084 26.8107396,46.9403326 27.3242148,48.3802476 Z"/>
      </g>
      <g transform="rotate(30 -1.592 255.474)">
        <path fill="#F2F8FF" fill-rule="nonzero" d="M0.6392242,21.5853087 C2.14821248,13.8670069 6.97383123,6.86866257 12.3600811,0.438234981 C23.6932118,9.33708817 27.9791576,23.8614476 22.8810826,36.0738938 C21.9903604,38.2024637 20.8062238,40.3042029 18.8990303,41.9140457 C13.6699667,46.3187545 8.3099146,44.1678256 5.05091909,39.8301937 C0.895961789,34.3120103 -0.61826603,28.0336235 0.6392242,21.5853087 Z"/>
        <line x1="13.01" x2="13.01" y1="5.751" y2="52.202" stroke="#EAF3FE" stroke-linecap="round"/>
        <path stroke="#EAF3FE" stroke-linecap="round" d="M6.24029527 10.1017635C8.10557244 13.0799727 10.012766 16.0402947 11.9618758 18.9827296M13.3136778 27.3583838C16.5359965 24.4383079 19.4963381 21.3035862 22.1527862 17.9899932"/>
      </g>
      <g fill-rule="nonzero" transform="scale(-1 1) rotate(-59 -3.342 168.862)">
        <path fill="#F2F8FF" d="M74.7525546,30.9282357 C73.7256043,29.5688129 72.0541902,28.669984 70.3408597,27.9768573 C63.1260096,25.0746685 54.5907946,25.2982577 46.9620206,27.2926741 C39.3332465,29.2870904 32.4484875,32.9226521 25.8309451,36.7236698 C23.1011434,38.2887947 12.3443624,43.4224045 17.4267188,45.7119587 C20.8167029,47.2413093 30.8294688,45.2021751 34.5600232,44.871263 C41.9268201,44.2139105 49.1835866,42.6577291 56.0421479,40.2697957 C57.6821248,39.6929353 75.5594442,31.9969925 74.7525546,30.9282357 Z"/>
        <path fill="#E2EEFF" d="M68.286959,29.2692033 C67.4067159,29.3318083 66.5055145,29.4078286 65.6095528,29.5062079 C57.5511362,30.3692625 49.8752063,32.5649092 44.0802721,34.3849259 C36.8339847,36.656593 29.6715299,39.1965671 22.7920104,41.9288281 C15.5614416,44.7997144 8.65572442,47.8986618 2.2739615,51.1407063 C1.50898828,51.5297516 0.754494138,51.918797 -7.531753e-13,52.3167859 C0.523954263,52.3436166 1.04790853,52.3749191 1.57186279,52.4062216 C1.95958894,52.2049912 2.34207555,52.0037609 2.73504125,51.8070023 C9.09060646,48.582845 15.9701259,45.4928412 23.1692575,42.6353702 C30.0278188,39.9120528 37.1693154,37.3810222 44.3894051,35.113827 C50.1371834,33.3116974 57.7502388,31.1294661 65.7195832,30.275355 C66.5998263,30.1814475 67.485309,30.1009554 68.3550731,30.0428222 L68.286959,29.2692033 Z"/>
        <path fill="#D3E6FD" d="M3.71483572,50.376031 C9.29494862,43.4715941 16.0801563,35.7711794 24.6782458,29.9176122 C24.6887249,29.8952533 24.7044435,29.8684225 24.7201621,29.8460636 C27.3137357,26.2820506 30.0540165,23.0221189 32.8624113,19.7219412 C38.6468664,12.9337708 44.2636561,8.24733953 50.5458677,4.9829361 C54.8108554,2.76493048 61.1611811,0.292033083 68.5174989,0.0952745196 C68.7637574,-0.0567661882 69.5182516,-0.0299354751 72.2847301,0.198125587 L72.9658706,0.256258799 L72.6357794,0.766042348 C67.485309,8.95388164 58.2270372,14.1858707 50.7292517,17.8303759 C48.2457085,19.0198709 45.662614,20.1914787 43.1633521,21.3228404 C38.0967144,23.6168664 32.8624113,25.9913845 28.0944276,28.6878712 C18.2283688,34.6219306 10.6100738,43.203287 4.46409032,50.8097942 C4.32262267,50.9841938 4.03968736,51.0289116 3.8353452,50.9081734 C3.78294978,50.8768709 3.74103343,50.8366249 3.70959618,50.7963788 C3.61004487,50.6756406 3.61004487,50.5101845 3.71483572,50.376031 Z M68.9419019,0.859949844 C61.6117817,0.967272697 55.2614561,3.43122652 51.012187,5.64028857 C44.8400058,8.85103058 39.3018092,13.470385 33.5907078,20.1780633 C31.2381531,22.937155 28.9379939,25.6694159 26.7321465,28.5716047 C27.0098422,28.3972051 27.2927775,28.2272773 27.5757128,28.0573494 C32.3908525,25.3385038 37.6461138,22.9550421 42.7337097,20.6476008 C45.2277319,19.5162391 47.8055869,18.349103 50.278651,17.1640799 C57.4463453,13.6760872 66.2540165,8.7213488 71.3782892,1.10589805 C70.498046,1.11484162 69.4134607,0.944913769 68.9419019,0.859949844 Z"/>
        <path fill="#D3E6FD" d="M25.3069909,29.0635011 L25.8676219,29.671664 C27.2718194,28.7236454 29.0689825,27.3686944 30.9709365,25.9287795 C33.2239398,24.229501 35.5502967,22.4676175 37.2583876,21.3809736 C42.833261,17.8169606 48.5757997,14.3200243 54.334057,10.9796005 C60.0923144,7.64364848 66.0182371,4.37477327 71.9546389,1.26241054 L71.48308,0.605058069 C65.5361992,3.72189258 59.5945578,6.99523958 53.8258214,10.3401352 C48.057085,13.6850307 42.2988276,17.1909106 36.7134752,20.7593954 C34.9791866,21.8683982 32.637111,23.6392253 30.3683891,25.3474474 C28.4821537,26.7828905 26.6902301,28.1333698 25.3069909,29.0635011 Z"/>
      </g>
    </g>
    <g transform="translate(62 92)">
      <g transform="rotate(-48 26.246 10.786)">
        <path fill="#F2F8FF" fill-rule="nonzero" d="M0.65389492,25.9023705 C2.46468085,16.6404083 8.25542336,8.24239508 14.7189231,0.525881978 C28.31868,11.2045058 33.461815,28.6337371 27.3441251,43.2886726 C26.2752584,45.8429565 24.8542944,48.3650435 22.5656622,50.2968549 C16.2907859,55.5825054 9.8587234,53.0013907 5.94792879,47.7962324 C0.968267477,41.1744124 -0.855093356,33.6403481 0.65389492,25.9023705 Z"/>
        <line x1="15.499" x2="15.499" y1="6.901" y2="59.701" stroke="#EAF3FE" stroke-linecap="round"/>
        <path stroke="#EAF3FE" stroke-linecap="round" d="M7.3751802 12.1221162C9.61351281 15.6959672 11.902145 19.2483536 14.2410769 22.7792755M15.8632393 32.8300606C19.7300217 29.3259695 23.2824316 25.5643035 26.4701693 21.5879918"/>
      </g>
      <g transform="rotate(-70 39.78 20.003)">
        <path fill="#E8F3FF" fill-rule="nonzero" d="M5.01424229,29.5898048 C3.10704878,28.2393256 1.08982487,26.4819139 1.34656245,24.3757029 C1.38323925,24.0671497 1.48803011,23.7407093 1.77620495,23.5484226 C2.28968013,23.2130387 3.02845564,23.4947611 3.67815892,23.4410997 C5.03520046,23.3248333 5.51723838,21.7105187 4.92517007,20.6596491 C4.33310175,19.6087795 3.13324649,18.9201246 2.23204516,18.0436546 C1.44611376,17.2789793 0.880243161,16.3533197 0.597307859,15.3695268 C0.225300333,14.0816526 0.733535968,12.3152973 2.2739615,12.1722002 C3.39522362,12.0693491 4.28594587,12.9011012 5.11903315,13.5495101 C5.95212042,14.197919 7.31440151,14.7077026 8.12653061,14.0369348 C8.82338978,13.4600744 8.52997539,12.4762816 8.25227964,11.6803038 C7.57113909,9.73507709 7.26724562,7.69594289 7.36155739,5.67022404 C7.42967144,4.25713982 7.71260674,2.79039417 8.68716167,1.64561707 C9.6617166,0.500839979 11.4798379,-0.214645705 13.0307425,0.286194274 C14.4768563,0.755731754 15.2732668,2.09279563 15.6085975,3.38514164 C16.5202779,6.89996506 15.0008105,10.4952806 14.5344912,14.072709 C14.4244608,14.9178765 14.6183239,16.0492382 15.5981184,16.1878636 C16.289738,16.2862429 16.8713273,15.7898747 17.4005211,15.4008293 C18.6946881,14.448339 20.4184976,13.9340837 22.1265885,13.9877451 C22.4200029,13.9966887 22.7238964,14.0235194 22.9701549,14.1621448 C23.5255464,14.4751697 23.5098278,15.1817119 23.3054856,15.7227979 C22.3780866,18.2314696 19.0719352,19.765292 18.4274714,22.3365687 C18.3383992,22.6808962 18.3226806,23.0788851 18.5846577,23.3471922 C18.7785208,23.5439508 19.0824142,23.6289147 19.3758286,23.6691608 C20.5914025,23.8301451 21.7755392,23.3293051 22.9753944,23.0878287 C24.1700101,22.8418805 25.7104357,22.9849776 26.2291504,23.9374679 C26.6221161,24.6529536 26.244869,25.5025928 25.7680706,26.1823042 C24.2957592,28.2661563 21.8698509,29.7597327 19.2657982,30.7390537 C16.9289622,31.6199954 13.769518,32.6574497 11.1759444,32.6754649 C8.75003618,32.693224 6.76948907,30.8329612 5.01424229,29.5898048 Z"/>
        <line x1="11.616" x2="11.616" y1="5.311" y2="32.311" stroke="#E5EDF7" stroke-linecap="round"/>
        <path stroke="#E5EDF7" stroke-linecap="round" d="M3.12800695 15.1593529C4.49552757 16.2862429 5.86828774 17.408661 7.23580837 18.535551M9.17443914 19.9173327C9.85034014 20.5389109 10.5262411 21.1560173 11.2021421 21.7775955M3.83010566 24.9391479C6.31888841 26.7770517 8.7762339 28.6462581 11.2021421 30.5512387M11.8256477 26.0705096C14.1467651 23.4232126 16.5045593 20.8027463 18.8990303 18.2046389"/>
      </g>
    </g>
    <g transform="translate(84 51)">
      <path fill="url(#ils_gold_purchase_failed-a)" fill-opacity=".4" d="M121.259865,76.7899168 C122.426291,76.7899168 123.557139,76.8628501 124.633601,76.9997119 L154,77 L154,81 C154,82.1045695 153.104569,83 152,83 L152,83 L134.36945,83.0000224 C134.369938,83.0223442 134.370183,83.0446939 134.370183,83.067071 C134.370183,86.5338475 128.500494,89.3442252 121.259865,89.3442252 L121.20774,89.3441766 L121.20774,89.3441766 L122.358954,89.5100742 L127.721438,90.1059057 C128.019083,90.1389774 128.286238,90.3037067 128.44945,90.5548011 C128.728939,90.9847851 128.635617,91.5495585 128.250108,91.8690351 L128.155995,91.9382331 L115.439416,100.204009 C113.587114,101.408005 111.360196,101.886584 109.18358,101.556053 L108.857518,101.500395 L59.9443196,92.2237539 L64.2789947,94.6398931 C64.3889585,94.7011867 64.4863598,94.782693 64.5660798,94.8801285 C64.8889052,95.274693 64.8600555,95.8418682 64.51751,96.2018614 L64.4253603,96.2873236 L59.1003946,100.644114 C57.9756712,101.564342 56.5579796,102.043014 55.1119928,101.997399 L54.8224966,101.981262 L14.5181486,98.7569137 C14.2431119,98.7349108 13.9893881,98.6002472 13.8170251,98.3847935 C13.4985547,97.9867055 13.533635,97.4198816 13.8801156,97.0636741 L13.9731988,96.9792296 L16.5254437,94.9374337 L47.2804808,78.6553552 L114.044685,88.3089397 C110.492854,87.1859178 108.149547,85.2575187 108.149547,83.067071 L108.150857,82.9999168 L100,83 C98.9456382,83 98.0818349,82.1841222 98.0054857,81.1492623 L98,81 L98,77 L117.886129,76.9997119 C118.962592,76.8628501 120.093439,76.7899168 121.259865,76.7899168 Z" opacity=".12"/>
      <g transform="translate(0 29)">
        <path fill="#68AEFF" d="M4.89102564,1.89102564 L55.6217949,1.89102564 C57.2786491,1.89102564 58.6217949,3.23417139 58.6217949,4.89102564 L58.6217949,36.7115385 C58.6217949,38.3683927 57.2786491,39.7115385 55.6217949,39.7115385 L4.89102564,39.7115385 C3.23417139,39.7115385 1.89102564,38.3683927 1.89102564,36.7115385 L1.89102564,4.89102564 C1.89102564,3.23417139 3.23417139,1.89102564 4.89102564,1.89102564 Z" opacity=".2"/>
        <path fill="#94C5FF" d="M3,0 L53.7307692,0 C55.3876235,4.11038738e-15 56.7307692,1.34314575 56.7307692,3 L56.7307692,34.8205128 C56.7307692,36.4773671 55.3876235,37.8205128 53.7307692,37.8205128 L3,37.8205128 C1.34314575,37.8205128 2.02906125e-16,36.4773671 0,34.8205128 L0,3 C-2.02906125e-16,1.34314575 1.34314575,-1.39730022e-16 3,0 Z"/>
        <rect width="56.731" height="7.564" y="5.673" fill="#3792FC"/>
        <rect width="7.564" height="3.782" x="20.801" y="22.692" fill="#3792FC" rx="1.891"/>
        <rect width="11.346" height="3.782" x="5.673" y="22.692" fill="#3792FC" rx="1.891"/>
        <circle cx="47.276" cy="24.583" r="5.673" fill="#2871C6"/>
        <circle cx="39.712" cy="24.583" r="5.673" fill="#3792FC"/>
      </g>
      <g transform="translate(97)">
        <path fill="#E4F0FF" fill-rule="nonzero" d="M57,15 L1,15 L1,79 C1,80.1045695 1.8954305,81 3,81 L55,81 C56.1045695,81 57,80.1045695 57,79 L57,15 L57,15 Z"/>
        <path fill="#D2E7FF" fill-rule="nonzero" d="M39.0833333,0 C40.1879028,-2.02906125e-16 41.0833333,0.8954305 41.0833333,2 L41.0833333,2 L41.0833333,2.5 L55.013194,2.56126394 C56.664882,2.56852811 58,3.90953091 58,5.56123493 L58,5.56123493 L58,15 L0,15 L0,5.56123493 C6.85903016e-16,3.90953091 1.335118,2.56852811 2.98680604,2.56126394 L2.98680604,2.56126394 L16.9166667,2.5 L16.9166667,2 C16.9166667,0.8954305 17.8120972,2.02906125e-16 18.9166667,0 L18.9166667,0 Z M38.875,1.25 L19.125,1.25 C18.5727153,1.25 18.125,1.69771525 18.125,2.25 L18.125,2.25 L18.125,3.75 L39.875,3.75 L39.875,2.25 C39.875,1.69771525 39.4272847,1.25 38.875,1.25 L38.875,1.25 Z"/>
        <path fill="#BBD7F7" fill-rule="nonzero" d="M16,8 L42,8 C42.5522847,8 43,8.44771525 43,9 C43,9.55228475 42.5522847,10 42,10 L16,10 C15.4477153,10 15,9.55228475 15,9 C15,8.44771525 15.4477153,8 16,8 Z"/>
        <rect width="10" height="2" x="41" y="68" fill="#AED3FF" fill-rule="nonzero"/>
        <path fill="#BED5EF" fill-rule="nonzero" d="M50 56L50 58 8 58 8 56 50 56zM36 52L36 54 8 54 8 52 36 52zM43 52L43 54 39 54 39 52 43 52zM50 46L50 48 8 48 8 46 50 46zM36 42L36 44 8 44 8 42 36 42zM43 42L43 44 39 44 39 42 43 42zM50 36L50 38 8 38 8 36 50 36zM36 32L36 34 8 34 8 32 36 32zM43 32L43 34 39 34 39 32 43 32z"/>
        <path fill="#91BFF3" fill-rule="nonzero" d="M8.8089316,26.9463087 C8.84624081,26.9463087 8.87761447,26.9337808 8.90305257,26.9087248 C8.92849067,26.8836689 8.94120972,26.8514541 8.94120972,26.8120805 L8.94120972,26.8120805 L8.94120972,23.3221477 C8.94120972,23.282774 8.92849067,23.2505593 8.90305257,23.2255034 C8.87761447,23.2004474 8.84624081,23.1879195 8.8089316,23.1879195 L8.8089316,23.1879195 L8.1271905,23.1879195 C8.09327304,23.1879195 8.06359525,23.2004474 8.03815715,23.2255034 C8.01271905,23.2505593 8,23.282774 8,23.3221477 L8,23.3221477 L8,26.8120805 C8,26.8478747 8.01271905,26.8791946 8.03815715,26.9060403 C8.06359525,26.9328859 8.09327304,26.9463087 8.1271905,26.9463087 L8.1271905,26.9463087 L8.8089316,26.9463087 Z M10.3555681,26.9463087 C10.3928773,26.9463087 10.4234031,26.9328859 10.4471453,26.9060403 C10.4708875,26.8791946 10.4827586,26.8478747 10.4827586,26.8120805 L10.4827586,26.8120805 L10.4827586,25.3463087 C10.4827586,25.1780761 10.5234596,25.0483221 10.6048615,24.957047 C10.6862634,24.8657718 10.7981911,24.8201342 10.9406444,24.8201342 C11.0864895,24.8201342 11.1984172,24.8657718 11.2764274,24.957047 C11.3544375,25.0483221 11.3934426,25.1780761 11.3934426,25.3463087 L11.3934426,25.3463087 L11.3934426,26.8120805 C11.3934426,26.8478747 11.4061617,26.8791946 11.4315998,26.9060403 C11.4570379,26.9328859 11.4867157,26.9463087 11.5206331,26.9463087 L11.5206331,26.9463087 L12.1616733,26.9463087 C12.1989825,26.9463087 12.2295082,26.9328859 12.2532504,26.9060403 C12.2769927,26.8791946 12.2888638,26.8478747 12.2888638,26.8120805 L12.2888638,26.8120805 L12.2888638,25.314094 C12.2888638,24.9310962 12.1955907,24.6331096 12.0090447,24.4201342 C11.8224986,24.2071588 11.5799887,24.1006711 11.281515,24.1006711 C11.0983607,24.1006711 10.9347089,24.1364653 10.7905596,24.2080537 C10.6464104,24.2796421 10.5285472,24.3744966 10.43697,24.4926174 L10.43697,24.4926174 L10.43697,24.2885906 C10.43697,24.249217 10.424251,24.2170022 10.3988129,24.1919463 C10.3733748,24.1668904 10.3420011,24.1543624 10.3046919,24.1543624 L10.3046919,24.1543624 L9.7196156,24.1543624 C9.68230639,24.1543624 9.65178067,24.1668904 9.62803844,24.1919463 C9.60429621,24.2170022 9.5924251,24.249217 9.5924251,24.2885906 L9.5924251,24.2885906 L9.5924251,26.8120805 C9.5924251,26.8514541 9.60429621,26.8836689 9.62803844,26.9087248 C9.65178067,26.9337808 9.68230639,26.9463087 9.7196156,26.9463087 L9.7196156,26.9463087 L10.3555681,26.9463087 Z M14.3442623,26.9463087 C14.3917467,26.9463087 14.429056,26.9346756 14.4561899,26.9114094 C14.4833239,26.8881432 14.5053703,26.8550336 14.522329,26.8120805 L14.522329,26.8120805 L15.4838892,24.3208054 L15.4940644,24.2724832 C15.4940644,24.2402685 15.4821933,24.212528 15.4584511,24.1892617 C15.4347089,24.1659955 15.4075749,24.1543624 15.3770492,24.1543624 L15.3770492,24.1543624 L14.8021481,24.1543624 C14.7275297,24.1543624 14.6783493,24.1919463 14.6546071,24.2671141 L14.6546071,24.2671141 L14.0746184,25.9154362 L13.4997174,24.2671141 C13.4759751,24.1919463 13.4267948,24.1543624 13.3521764,24.1543624 L13.3521764,24.1543624 L12.7772753,24.1543624 C12.7433578,24.1543624 12.7153759,24.1659955 12.6933296,24.1892617 C12.6712832,24.212528 12.66026,24.2402685 12.66026,24.2724832 L12.66026,24.2724832 L12.6704353,24.3208054 L13.6319955,26.8120805 C13.6489542,26.8550336 13.6701526,26.8881432 13.6955907,26.9114094 C13.7210288,26.9346756 13.7574901,26.9463087 13.8049746,26.9463087 L13.8049746,26.9463087 L14.3442623,26.9463087 Z M17.1424534,27 C17.5664217,27 17.8920294,26.8944072 18.1192764,26.6832215 C18.3465235,26.4720358 18.4703222,26.1749441 18.4906727,25.7919463 C18.4940644,25.7454139 18.4957603,25.664877 18.4957603,25.5503356 C18.4957603,25.4357942 18.4940644,25.3552573 18.4906727,25.3087248 C18.4703222,24.9293065 18.3431317,24.6331096 18.1091012,24.4201342 C17.8750707,24.2071588 17.5528547,24.1006711 17.1424534,24.1006711 C16.7354438,24.1006711 16.4149237,24.2071588 16.1808932,24.4201342 C15.9468626,24.6331096 15.8196721,24.9293065 15.7993217,25.3087248 C15.7959299,25.3552573 15.794234,25.4357942 15.794234,25.5503356 L15.794552,25.6298658 C15.795188,25.7030201 15.7967778,25.757047 15.7993217,25.7919463 C15.8196721,26.1749441 15.9434709,26.4720358 16.1707179,26.6832215 C16.397965,26.8944072 16.7218768,27 17.1424534,27 Z M17.1424534,26.3449664 C16.9966083,26.3449664 16.8872244,26.2975391 16.8143019,26.2026846 C16.7413793,26.10783 16.7015263,25.9619687 16.6947428,25.7651007 L16.6947428,25.7651007 L16.6896552,25.5503356 L16.6947428,25.3355705 C16.7117015,24.9489933 16.8609384,24.7557047 17.1424534,24.7557047 C17.2882985,24.7557047 17.3976823,24.8040268 17.4706049,24.9006711 C17.5435274,24.9973154 17.5850763,25.1422819 17.5952516,25.3355705 C17.5986433,25.3713647 17.6003392,25.442953 17.6003392,25.5503356 C17.6003392,25.6577181 17.5986433,25.7293065 17.5952516,25.7651007 C17.5850763,25.9619687 17.5443754,26.10783 17.4731487,26.2026846 C17.401922,26.2975391 17.2916902,26.3449664 17.1424534,26.3449664 Z M19.732052,23.7516779 C19.7693612,23.7516779 19.7998869,23.7391499 19.8236292,23.714094 C19.8473714,23.689038 19.8592425,23.6568233 19.8592425,23.6174497 L19.8592425,23.6174497 L19.8592425,23.1342282 C19.8592425,23.0948546 19.8473714,23.0626398 19.8236292,23.0375839 C19.7998869,23.012528 19.7693612,23 19.732052,23 L19.732052,23 L19.1215376,23 C19.0842284,23 19.0537027,23.012528 19.0299604,23.0375839 C19.0062182,23.0626398 18.9943471,23.0948546 18.9943471,23.1342282 L18.9943471,23.1342282 L18.9943471,23.6174497 C18.9943471,23.6568233 19.0062182,23.689038 19.0299604,23.714094 C19.0537027,23.7391499 19.0842284,23.7516779 19.1215376,23.7516779 L19.1215376,23.7516779 L19.732052,23.7516779 Z M19.7269644,26.9463087 C19.7642736,26.9463087 19.7947993,26.9328859 19.8185415,26.9060403 C19.8422838,26.8791946 19.8541549,26.8478747 19.8541549,26.8120805 L19.8541549,26.8120805 L19.8541549,24.2885906 C19.8541549,24.249217 19.8422838,24.2170022 19.8185415,24.1919463 C19.7947993,24.1668904 19.7642736,24.1543624 19.7269644,24.1543624 L19.7269644,24.1543624 L19.1266252,24.1543624 C19.089316,24.1543624 19.0587903,24.1668904 19.035048,24.1919463 C19.0113058,24.2170022 18.9994347,24.249217 18.9994347,24.2885906 L18.9994347,24.2885906 L18.9994347,26.8120805 C18.9994347,26.8514541 19.0113058,26.8836689 19.035048,26.9087248 C19.0587903,26.9337808 19.089316,26.9463087 19.1266252,26.9463087 L19.1266252,26.9463087 L19.7269644,26.9463087 Z M21.6704353,27 C21.968909,27 22.2182024,26.9418345 22.4183154,26.8255034 C22.6184285,26.7091723 22.7651215,26.5740492 22.8583946,26.4201342 C22.9516676,26.2662192 22.9983041,26.1319911 22.9983041,26.0174497 C22.9983041,25.9816555 22.9855851,25.9521253 22.960147,25.9288591 C22.9347089,25.9055928 22.9050311,25.8939597 22.8711136,25.8939597 L22.8711136,25.8939597 L22.2249859,25.8939597 C22.1876767,25.8939597 22.1588468,25.9029083 22.1384963,25.9208054 C22.1181458,25.9387025 22.0994912,25.9655481 22.0825325,26.0013423 C22.0452233,26.1123043 21.996043,26.1910515 21.9349915,26.2375839 C21.8739401,26.2841163 21.7908423,26.3073826 21.6856981,26.3073826 C21.5500283,26.3073826 21.4457321,26.261745 21.3728095,26.1704698 C21.2998869,26.0791946 21.2600339,25.9369128 21.2532504,25.7436242 L21.2532504,25.7436242 L21.2481628,25.566443 L21.2532504,25.3624161 C21.2634257,24.9829978 21.4075749,24.7932886 21.6856981,24.7932886 C21.7840588,24.7932886 21.8646128,24.8165548 21.9273601,24.8630872 C21.9901074,24.9096197 22.0418315,24.9883669 22.0825325,25.0993289 C22.0994912,25.135123 22.1181458,25.1619687 22.1384963,25.1798658 C22.1588468,25.1977629 22.1876767,25.2067114 22.2249859,25.2067114 L22.2249859,25.2067114 L22.8711136,25.2067114 C22.9084228,25.2067114 22.9397965,25.1932886 22.9652346,25.166443 C22.9906727,25.1395973 23.0016959,25.1082774 22.9983041,25.0724832 C22.9915206,24.9472036 22.9397965,24.8085011 22.8431317,24.6563758 C22.7464669,24.5042506 22.5989259,24.3736018 22.4005088,24.2644295 C22.2020916,24.1552573 21.9587337,24.1006711 21.6704353,24.1006711 C21.2871679,24.1006711 20.9759751,24.2098434 20.736857,24.4281879 C20.4977388,24.6465324 20.3713963,24.9489933 20.3578293,25.3355705 L20.3578293,25.3355705 L20.3527417,25.5557047 L20.3578293,25.7704698 C20.374788,26.157047 20.5019785,26.458613 20.7394008,26.6751678 C20.9768231,26.8917226 21.2871679,27 21.6704353,27 Z M24.6772188,27 C24.9349915,27 25.1588468,26.9552573 25.3487846,26.8657718 C25.5387224,26.7762864 25.6837196,26.6706935 25.7837761,26.5489933 C25.8838327,26.4272931 25.9338609,26.3199105 25.9338609,26.2268456 C25.9338609,26.1946309 25.9228378,26.1686801 25.9007914,26.1489933 C25.8787451,26.1293065 25.852459,26.1194631 25.8219333,26.1194631 L25.8219333,26.1194631 L25.1910684,26.1194631 C25.1503674,26.1194631 25.1206897,26.1239374 25.102035,26.1328859 C25.0833804,26.1418345 25.0587903,26.1659955 25.0282646,26.2053691 C24.9841718,26.2590604 24.9349915,26.304698 24.8807236,26.3422819 C24.8264556,26.3798658 24.7569248,26.3986577 24.6721311,26.3986577 C24.5364613,26.3986577 24.433013,26.3467562 24.3617863,26.242953 C24.2905596,26.1391499 24.2515546,26.003132 24.2447711,25.8348993 L24.2447711,25.8348993 L24.2447711,25.7973154 L25.8728095,25.7973154 C25.9101187,25.7973154 25.9406444,25.7838926 25.9643867,25.757047 C25.9881289,25.7302013 26,25.6988814 26,25.6630872 L26,25.6630872 L26,25.5342282 C26,25.2550336 25.9499717,25.0080537 25.8499152,24.7932886 C25.7498587,24.5785235 25.6006218,24.409396 25.4022046,24.285906 C25.2037875,24.1624161 24.9604296,24.1006711 24.6721311,24.1006711 C24.2752968,24.1006711 23.9590164,24.2196868 23.72329,24.4577181 C23.4875636,24.6957494 23.3629169,25.0259508 23.3493499,25.4483221 L23.3493499,25.4483221 L23.3493499,25.6362416 C23.3595252,26.0800895 23.481628,26.4183445 23.7156586,26.6510067 C23.9496891,26.8836689 24.2702092,27 24.6772188,27 Z M25.1045789,25.2657718 L24.2447711,25.2657718 L24.2447711,25.2550336 C24.2447711,25.0796421 24.2829282,24.9409396 24.3592425,24.8389262 C24.4355568,24.7369128 24.539853,24.685906 24.6721311,24.685906 C24.807801,24.685906 24.9137931,24.7369128 24.9901074,24.8389262 C25.0664217,24.9409396 25.1045789,25.0796421 25.1045789,25.2550336 L25.1045789,25.2550336 L25.1045789,25.2657718 Z"/>
        <g transform="translate(43 55)">
          <path fill="#FFF" d="M15,0 C6.75,0 0,6.75 0,15 C0,23.25 6.75,30 15,30 C23.25,30 30,23.25 30,15 C30,6.75 23.25,0 15,0 Z"/>
          <rect width="30" height="30"/>
          <path fill="#D0021B" d="M15,0 C23.25,0 30,6.75 30,15 C30,23.25 23.25,30 15,30 C6.75,30 0,23.25 0,15 C0,6.75 6.75,0 15,0 Z M20.625,4.875 L14.9995,11.925 L9.375,4.875 L6.5625,7.125 L12.6225,14.904 L6.5625,22.5 L9.5625,24.9375 L14.9995,17.956 L20.4375,24.9375 L23.4375,22.5 L17.3775,14.904 L23.4375,7.125 L20.625,4.875 Z"/>
        </g>
      </g>
      <g transform="translate(15 29)">
        <g transform="translate(93 38)">
          <g fill-rule="nonzero" transform="translate(0 4)">
            <path fill="#95C1F5" d="M.149547351 8.93449559C.149547351 11.4883042 3.33605629 13.6816654 7.90683687 14.6633095L7.90683687 3.20568168C3.33605629 4.18732583.149547351 6.38068698.149547351 8.93449559zM11.388606 2.73019779L11.388606 15.1387934C11.9484499 15.1771389 12.5159629 15.2039807 13.091145 15.2078152L13.091145 2.66501049C12.5159629 2.66501049 11.9484499 2.69185232 11.388606 2.73019779z"/>
            <rect width="26.221" height="3.075" x=".15" y="6.373" fill="#95C1F5"/>
            <path fill="#95C1F5" d="M26.3701829,8.93449559 C26.3701829,6.86000541 24.2650164,5.01942263 21.0248237,3.88056203 L21.0248237,13.9922637 C24.2650164,12.845734 26.3701829,11.0089858 26.3701829,8.93449559 Z"/>
            <path fill="#A4CEFF" d="M7.90683687 3.20568168L7.90683687 14.6633095C8.99584835 14.8972169 10.1692199 15.0544333 11.388606 15.1387934L11.388606 2.73019779C10.1692199 2.81455784 8.99584835 2.97177428 7.90683687 3.20568168zM13.2598651 2.65734139C13.2061815 2.65734139 13.1524978 2.66117594 13.0949796 2.66117594L13.0949796 15.2039807C13.1486633 15.2039807 13.2023469 15.2078152 13.2598651 15.2078152 16.1664521 15.2078152 18.8506353 14.7553386 21.0248237 13.9884291L21.0248237 3.87672749C18.8506353 3.11365254 16.1664521 2.65734139 13.2598651 2.65734139z"/>
            <ellipse cx="13.26" cy="7.067" fill="#94C5FF" rx="13.11" ry="6.277"/>
            <ellipse cx="13.26" cy="6.599" fill="#B3D6FF" rx="13.11" ry="6.277"/>
            <ellipse cx="13.26" cy="6.599" fill="#98C7FF" rx="10.426" ry="4.832"/>
            <g fill="#FFA340" transform="translate(8.053 3.068)">
              <path d="M2.20869934,3.96875663 L0.57518212,3.1021489 L1.85208643,2.43877219 L3.48560364,3.30537991 C4.25634769,3.71184195 5.52174835,3.71184195 6.30783058,3.30537991 C7.09391281,2.89508334 7.109251,2.23170662 6.33850696,1.82524459 L4.63213334,0.920291391 L5.90903764,0.25691468 L7.61541126,1.16186788 C9.0725393,1.93644647 9.04569747,3.19417804 7.55789305,3.96875663 C6.06625409,4.74333521 3.66582738,4.74333521 2.20869934,3.96875663 Z"/>
              <polygon points="8.378 5.073 2.565 1.99 3.842 1.327 9.655 4.41"/>
              <polygon points="10.441 3.999 4.632 .916 5.905 .253 11.718 3.336"/>
              <polygon points="1.795 6.81 2.362 3.175 .583 3.11 .142 5.932"/>
            </g>
          </g>
          <path fill="#95C1F5" fill-rule="nonzero" d="M.149547351 8.88081193C.149547351 11.4346205 3.33605629 13.6279817 7.90683687 14.6096258L7.90683687 3.15199802C3.33605629 4.13364217.149547351 6.32700332.149547351 8.88081193zM11.388606 2.67651413L11.388606 15.0851097C11.9484499 15.1234552 12.5159629 15.150297 13.091145 15.1541316L13.091145 2.60749228C12.5159629 2.61132682 11.9484499 2.63816866 11.388606 2.67651413z"/>
          <rect width="26.221" height="3.075" x=".15" y="6.319" fill="#95C1F5" fill-rule="nonzero"/>
          <path fill="#95C1F5" fill-rule="nonzero" d="M26.3701829,8.88081193 C26.3701829,6.80632175 24.2650164,4.96573897 21.0248237,3.82687837 L21.0248237,13.93858 C24.2650164,12.7920503 26.3701829,10.9553021 26.3701829,8.88081193 Z"/>
          <path fill="#A4CEFF" fill-rule="nonzero" d="M7.90683687 3.15199802L7.90683687 14.6096258C8.99584835 14.8435332 10.1692199 15.0007497 11.388606 15.0851097L11.388606 2.67651413C10.1692199 2.76087417 8.99584835 2.91809062 7.90683687 3.15199802zM13.2598651 2.60365773C13.2061815 2.60365773 13.1524978 2.60749228 13.0949796 2.60749228L13.0949796 15.150297C13.1486633 15.150297 13.2023469 15.1541316 13.2598651 15.1541316 16.1664521 15.1541316 18.8506353 14.701655 21.0248237 13.9347455L21.0248237 3.82304382C18.8506353 3.05996888 16.1664521 2.60365773 13.2598651 2.60365773z"/>
          <ellipse cx="13.26" cy="7.013" fill="#94C5FF" rx="13.11" ry="6.277"/>
          <ellipse cx="13.26" cy="6.546" fill="#B3D6FF" fill-rule="nonzero" rx="13.11" ry="6.277"/>
          <ellipse cx="13.26" cy="6.546" fill="#DCEEFF" fill-rule="nonzero" rx="10.426" ry="4.832"/>
          <g fill="#94C5FF" transform="translate(8.053 3.068)">
            <path d="M2.20869934,3.91507296 L0.57518212,3.04846523 L1.85208643,2.38508852 L3.48560364,3.25169625 C4.25634769,3.65815828 5.52174835,3.65815828 6.30783058,3.25169625 C7.09391281,2.84139967 7.109251,2.17802296 6.33850696,1.77156093 L4.63213334,0.866607727 L5.90903764,0.203231016 L7.61541126,1.10818422 C9.0725393,1.8827628 9.04569747,3.14049437 7.55789305,3.91507296 C6.06625409,4.68965155 3.66582738,4.68965155 2.20869934,3.91507296 Z"/>
            <polygon points="8.378 5.019 2.565 1.936 3.842 1.273 9.655 4.356"/>
            <polygon points="10.441 3.946 4.632 .863 5.905 .199 11.718 3.282"/>
            <polygon points="1.795 6.756 2.362 3.121 .583 3.056 .142 5.878"/>
          </g>
        </g>
        <g transform="translate(52)">
          <g fill-rule="nonzero" transform="translate(0 40)">
            <path fill="#95C1F5" d="M.149547351 8.71209184C.149547351 11.2659004 3.33605629 13.4592616 7.90683687 14.4409058L7.90683687 2.98327793C3.33605629 3.96492208.149547351 6.15828323.149547351 8.71209184zM11.388606 2.50779404L11.388606 14.9163896C11.9484499 14.9547351 12.5159629 14.9815769 13.091145 14.9854115L13.091145 2.44260673C12.5159629 2.44644128 11.9484499 2.46944857 11.388606 2.50779404z"/>
            <rect width="26.221" height="3.075" x=".15" y="6.151" fill="#95C1F5"/>
            <path fill="#95C1F5" d="M26.3701829,8.71209184 C26.3701829,6.63760166 24.2650164,4.79701888 21.0248237,3.65815828 L21.0248237,13.7698599 C24.2650164,12.6271648 26.3701829,10.786582 26.3701829,8.71209184 Z"/>
            <path fill="#A4CEFF" d="M7.90683687 2.98327793L7.90683687 14.4409058C8.99584835 14.6748131 10.1692199 14.8320296 11.388606 14.9163896L11.388606 2.50779404C10.1692199 2.59215409 8.99584835 2.74937053 7.90683687 2.98327793zM13.2598651 2.43493764C13.2061815 2.43493764 13.1524978 2.43877219 13.0949796 2.43877219L13.0949796 14.9815769C13.1486633 14.9815769 13.2023469 14.9854115 13.2598651 14.9854115 16.1664521 14.9854115 18.8506353 14.5329349 21.0248237 13.7660254L21.0248237 3.65432373C18.8506353 2.89124879 16.1664521 2.43493764 13.2598651 2.43493764z"/>
            <ellipse cx="13.26" cy="6.845" fill="#94C5FF" rx="13.11" ry="6.277"/>
            <ellipse cx="13.26" cy="6.377" fill="#B3D6FF" rx="13.11" ry="6.277"/>
            <ellipse cx="13.26" cy="6.377" fill="#98C7FF" rx="10.426" ry="4.832"/>
            <g fill="#FFA340" transform="translate(8.053 3.068)">
              <path d="M2.20869934,3.74635287 L0.57518212,2.87974515 L1.85208643,2.21636843 L3.48560364,3.08297616 C4.25634769,3.48943819 5.52174835,3.48943819 6.30783058,3.08297616 C7.09391281,2.67267958 7.109251,2.00930287 6.33850696,1.60284084 L4.63213334,0.697887638 L5.90903764,0.0345109272 L7.61541126,0.939464129 C9.0725393,1.71404272 9.04569747,2.97177428 7.55789305,3.74635287 C6.06625409,4.52093146 3.66582738,4.52093146 2.20869934,3.74635287 Z"/>
              <polygon points="8.378 4.851 2.565 1.768 3.842 1.104 9.655 4.187"/>
              <polygon points="10.441 3.777 4.632 .694 5.905 .031 11.718 3.114"/>
              <polygon points="1.795 6.588 2.362 2.953 .583 2.887 .142 5.71"/>
            </g>
          </g>
          <g fill-rule="nonzero" transform="translate(0 36)">
            <path fill="#95C1F5" d="M.149547351 8.71209184C.149547351 11.2659004 3.33605629 13.4592616 7.90683687 14.4409058L7.90683687 2.98327793C3.33605629 3.96492208.149547351 6.15828323.149547351 8.71209184zM11.388606 2.50779404L11.388606 14.9163896C11.9484499 14.9547351 12.5159629 14.9815769 13.091145 14.9854115L13.091145 2.44260673C12.5159629 2.44644128 11.9484499 2.46944857 11.388606 2.50779404z"/>
            <rect width="26.221" height="3.075" x=".15" y="6.151" fill="#95C1F5"/>
            <path fill="#95C1F5" d="M26.3701829,8.71209184 C26.3701829,6.63760166 24.2650164,4.79701888 21.0248237,3.65815828 L21.0248237,13.7698599 C24.2650164,12.6271648 26.3701829,10.786582 26.3701829,8.71209184 Z"/>
            <path fill="#A4CEFF" d="M7.90683687 2.98327793L7.90683687 14.4409058C8.99584835 14.6748131 10.1692199 14.8320296 11.388606 14.9163896L11.388606 2.50779404C10.1692199 2.59215409 8.99584835 2.74937053 7.90683687 2.98327793zM13.2598651 2.43493764C13.2061815 2.43493764 13.1524978 2.43877219 13.0949796 2.43877219L13.0949796 14.9815769C13.1486633 14.9815769 13.2023469 14.9854115 13.2598651 14.9854115 16.1664521 14.9854115 18.8506353 14.5329349 21.0248237 13.7660254L21.0248237 3.65432373C18.8506353 2.89124879 16.1664521 2.43493764 13.2598651 2.43493764z"/>
            <ellipse cx="13.26" cy="6.845" fill="#94C5FF" rx="13.11" ry="6.277"/>
            <ellipse cx="13.26" cy="6.377" fill="#B3D6FF" rx="13.11" ry="6.277"/>
            <ellipse cx="13.26" cy="6.377" fill="#98C7FF" rx="10.426" ry="4.832"/>
            <g fill="#FFA340" transform="translate(8.053 3.068)">
              <path d="M2.20869934,3.74635287 L0.57518212,2.87974515 L1.85208643,2.21636843 L3.48560364,3.08297616 C4.25634769,3.48943819 5.52174835,3.48943819 6.30783058,3.08297616 C7.09391281,2.67267958 7.109251,2.00930287 6.33850696,1.60284084 L4.63213334,0.697887638 L5.90903764,0.0345109272 L7.61541126,0.939464129 C9.0725393,1.71404272 9.04569747,2.97177428 7.55789305,3.74635287 C6.06625409,4.52093146 3.66582738,4.52093146 2.20869934,3.74635287 Z"/>
              <polygon points="8.378 4.851 2.565 1.768 3.842 1.104 9.655 4.187"/>
              <polygon points="10.441 3.777 4.632 .694 5.905 .031 11.718 3.114"/>
              <polygon points="1.795 6.588 2.362 2.953 .583 2.887 .142 5.71"/>
            </g>
          </g>
          <g fill-rule="nonzero" transform="translate(0 32)">
            <path fill="#95C1F5" d="M.149547351 8.71209184C.149547351 11.2659004 3.33605629 13.4592616 7.90683687 14.4409058L7.90683687 2.98327793C3.33605629 3.96492208.149547351 6.15828323.149547351 8.71209184zM11.388606 2.50779404L11.388606 14.9163896C11.9484499 14.9547351 12.5159629 14.9815769 13.091145 14.9854115L13.091145 2.44260673C12.5159629 2.44644128 11.9484499 2.46944857 11.388606 2.50779404z"/>
            <rect width="26.221" height="3.075" x=".15" y="6.151" fill="#95C1F5"/>
            <path fill="#95C1F5" d="M26.3701829,8.71209184 C26.3701829,6.63760166 24.2650164,4.79701888 21.0248237,3.65815828 L21.0248237,13.7698599 C24.2650164,12.6271648 26.3701829,10.786582 26.3701829,8.71209184 Z"/>
            <path fill="#A4CEFF" d="M7.90683687 2.98327793L7.90683687 14.4409058C8.99584835 14.6748131 10.1692199 14.8320296 11.388606 14.9163896L11.388606 2.50779404C10.1692199 2.59215409 8.99584835 2.74937053 7.90683687 2.98327793zM13.2598651 2.43493764C13.2061815 2.43493764 13.1524978 2.43877219 13.0949796 2.43877219L13.0949796 14.9815769C13.1486633 14.9815769 13.2023469 14.9854115 13.2598651 14.9854115 16.1664521 14.9854115 18.8506353 14.5329349 21.0248237 13.7660254L21.0248237 3.65432373C18.8506353 2.89124879 16.1664521 2.43493764 13.2598651 2.43493764z"/>
            <ellipse cx="13.26" cy="6.845" fill="#94C5FF" rx="13.11" ry="6.277"/>
            <ellipse cx="13.26" cy="6.377" fill="#B3D6FF" rx="13.11" ry="6.277"/>
            <ellipse cx="13.26" cy="6.377" fill="#98C7FF" rx="10.426" ry="4.832"/>
            <g fill="#FFA340" transform="translate(8.053 3.068)">
              <path d="M2.20869934,3.74635287 L0.57518212,2.87974515 L1.85208643,2.21636843 L3.48560364,3.08297616 C4.25634769,3.48943819 5.52174835,3.48943819 6.30783058,3.08297616 C7.09391281,2.67267958 7.109251,2.00930287 6.33850696,1.60284084 L4.63213334,0.697887638 L5.90903764,0.0345109272 L7.61541126,0.939464129 C9.0725393,1.71404272 9.04569747,2.97177428 7.55789305,3.74635287 C6.06625409,4.52093146 3.66582738,4.52093146 2.20869934,3.74635287 Z"/>
              <polygon points="8.378 4.851 2.565 1.768 3.842 1.104 9.655 4.187"/>
              <polygon points="10.441 3.777 4.632 .694 5.905 .031 11.718 3.114"/>
              <polygon points="1.795 6.588 2.362 2.953 .583 2.887 .142 5.71"/>
            </g>
          </g>
          <g fill-rule="nonzero" transform="translate(0 28)">
            <path fill="#95C1F5" d="M.149547351 8.71209184C.149547351 11.2659004 3.33605629 13.4592616 7.90683687 14.4409058L7.90683687 2.98327793C3.33605629 3.96492208.149547351 6.15828323.149547351 8.71209184zM11.388606 2.50779404L11.388606 14.9163896C11.9484499 14.9547351 12.5159629 14.9815769 13.091145 14.9854115L13.091145 2.44260673C12.5159629 2.44644128 11.9484499 2.46944857 11.388606 2.50779404z"/>
            <rect width="26.221" height="3.075" x=".15" y="6.151" fill="#95C1F5"/>
            <path fill="#95C1F5" d="M26.3701829,8.71209184 C26.3701829,6.63760166 24.2650164,4.79701888 21.0248237,3.65815828 L21.0248237,13.7698599 C24.2650164,12.6271648 26.3701829,10.786582 26.3701829,8.71209184 Z"/>
            <path fill="#A4CEFF" d="M7.90683687 2.98327793L7.90683687 14.4409058C8.99584835 14.6748131 10.1692199 14.8320296 11.388606 14.9163896L11.388606 2.50779404C10.1692199 2.59215409 8.99584835 2.74937053 7.90683687 2.98327793zM13.2598651 2.43493764C13.2061815 2.43493764 13.1524978 2.43877219 13.0949796 2.43877219L13.0949796 14.9815769C13.1486633 14.9815769 13.2023469 14.9854115 13.2598651 14.9854115 16.1664521 14.9854115 18.8506353 14.5329349 21.0248237 13.7660254L21.0248237 3.65432373C18.8506353 2.89124879 16.1664521 2.43493764 13.2598651 2.43493764z"/>
            <ellipse cx="13.26" cy="6.845" fill="#94C5FF" rx="13.11" ry="6.277"/>
            <ellipse cx="13.26" cy="6.377" fill="#B3D6FF" rx="13.11" ry="6.277"/>
            <ellipse cx="13.26" cy="6.377" fill="#98C7FF" rx="10.426" ry="4.832"/>
            <g fill="#FFA340" transform="translate(8.053 3.068)">
              <path d="M2.20869934,3.74635287 L0.57518212,2.87974515 L1.85208643,2.21636843 L3.48560364,3.08297616 C4.25634769,3.48943819 5.52174835,3.48943819 6.30783058,3.08297616 C7.09391281,2.67267958 7.109251,2.00930287 6.33850696,1.60284084 L4.63213334,0.697887638 L5.90903764,0.0345109272 L7.61541126,0.939464129 C9.0725393,1.71404272 9.04569747,2.97177428 7.55789305,3.74635287 C6.06625409,4.52093146 3.66582738,4.52093146 2.20869934,3.74635287 Z"/>
              <polygon points="8.378 4.851 2.565 1.768 3.842 1.104 9.655 4.187"/>
              <polygon points="10.441 3.777 4.632 .694 5.905 .031 11.718 3.114"/>
              <polygon points="1.795 6.588 2.362 2.953 .583 2.887 .142 5.71"/>
            </g>
          </g>
          <g fill-rule="nonzero" transform="translate(0 24)">
            <path fill="#95C1F5" d="M.149547351 8.71209184C.149547351 11.2659004 3.33605629 13.4592616 7.90683687 14.4409058L7.90683687 2.98327793C3.33605629 3.96492208.149547351 6.15828323.149547351 8.71209184zM11.388606 2.50779404L11.388606 14.9163896C11.9484499 14.9547351 12.5159629 14.9815769 13.091145 14.9854115L13.091145 2.44260673C12.5159629 2.44644128 11.9484499 2.46944857 11.388606 2.50779404z"/>
            <rect width="26.221" height="3.075" x=".15" y="6.151" fill="#95C1F5"/>
            <path fill="#95C1F5" d="M26.3701829,8.71209184 C26.3701829,6.63760166 24.2650164,4.79701888 21.0248237,3.65815828 L21.0248237,13.7698599 C24.2650164,12.6271648 26.3701829,10.786582 26.3701829,8.71209184 Z"/>
            <path fill="#A4CEFF" d="M7.90683687 2.98327793L7.90683687 14.4409058C8.99584835 14.6748131 10.1692199 14.8320296 11.388606 14.9163896L11.388606 2.50779404C10.1692199 2.59215409 8.99584835 2.74937053 7.90683687 2.98327793zM13.2598651 2.43493764C13.2061815 2.43493764 13.1524978 2.43877219 13.0949796 2.43877219L13.0949796 14.9815769C13.1486633 14.9815769 13.2023469 14.9854115 13.2598651 14.9854115 16.1664521 14.9854115 18.8506353 14.5329349 21.0248237 13.7660254L21.0248237 3.65432373C18.8506353 2.89124879 16.1664521 2.43493764 13.2598651 2.43493764z"/>
            <ellipse cx="13.26" cy="6.845" fill="#94C5FF" rx="13.11" ry="6.277"/>
            <ellipse cx="13.26" cy="6.377" fill="#B3D6FF" rx="13.11" ry="6.277"/>
            <ellipse cx="13.26" cy="6.377" fill="#98C7FF" rx="10.426" ry="4.832"/>
            <g fill="#FFA340" transform="translate(8.053 3.068)">
              <path d="M2.20869934,3.74635287 L0.57518212,2.87974515 L1.85208643,2.21636843 L3.48560364,3.08297616 C4.25634769,3.48943819 5.52174835,3.48943819 6.30783058,3.08297616 C7.09391281,2.67267958 7.109251,2.00930287 6.33850696,1.60284084 L4.63213334,0.697887638 L5.90903764,0.0345109272 L7.61541126,0.939464129 C9.0725393,1.71404272 9.04569747,2.97177428 7.55789305,3.74635287 C6.06625409,4.52093146 3.66582738,4.52093146 2.20869934,3.74635287 Z"/>
              <polygon points="8.378 4.851 2.565 1.768 3.842 1.104 9.655 4.187"/>
              <polygon points="10.441 3.777 4.632 .694 5.905 .031 11.718 3.114"/>
              <polygon points="1.795 6.588 2.362 2.953 .583 2.887 .142 5.71"/>
            </g>
          </g>
          <g fill-rule="nonzero" transform="translate(0 20)">
            <path fill="#95C1F5" d="M.149547351 8.71209184C.149547351 11.2659004 3.33605629 13.4592616 7.90683687 14.4409058L7.90683687 2.98327793C3.33605629 3.96492208.149547351 6.15828323.149547351 8.71209184zM11.388606 2.50779404L11.388606 14.9163896C11.9484499 14.9547351 12.5159629 14.9815769 13.091145 14.9854115L13.091145 2.44260673C12.5159629 2.44644128 11.9484499 2.46944857 11.388606 2.50779404z"/>
            <rect width="26.221" height="3.075" x=".15" y="6.151" fill="#95C1F5"/>
            <path fill="#95C1F5" d="M26.3701829,8.71209184 C26.3701829,6.63760166 24.2650164,4.79701888 21.0248237,3.65815828 L21.0248237,13.7698599 C24.2650164,12.6271648 26.3701829,10.786582 26.3701829,8.71209184 Z"/>
            <path fill="#A4CEFF" d="M7.90683687 2.98327793L7.90683687 14.4409058C8.99584835 14.6748131 10.1692199 14.8320296 11.388606 14.9163896L11.388606 2.50779404C10.1692199 2.59215409 8.99584835 2.74937053 7.90683687 2.98327793zM13.2598651 2.43493764C13.2061815 2.43493764 13.1524978 2.43877219 13.0949796 2.43877219L13.0949796 14.9815769C13.1486633 14.9815769 13.2023469 14.9854115 13.2598651 14.9854115 16.1664521 14.9854115 18.8506353 14.5329349 21.0248237 13.7660254L21.0248237 3.65432373C18.8506353 2.89124879 16.1664521 2.43493764 13.2598651 2.43493764z"/>
            <ellipse cx="13.26" cy="6.845" fill="#94C5FF" rx="13.11" ry="6.277"/>
            <ellipse cx="13.26" cy="6.377" fill="#B3D6FF" rx="13.11" ry="6.277"/>
            <ellipse cx="13.26" cy="6.377" fill="#98C7FF" rx="10.426" ry="4.832"/>
            <g fill="#FFA340" transform="translate(8.053 3.068)">
              <path d="M2.20869934,3.74635287 L0.57518212,2.87974515 L1.85208643,2.21636843 L3.48560364,3.08297616 C4.25634769,3.48943819 5.52174835,3.48943819 6.30783058,3.08297616 C7.09391281,2.67267958 7.109251,2.00930287 6.33850696,1.60284084 L4.63213334,0.697887638 L5.90903764,0.0345109272 L7.61541126,0.939464129 C9.0725393,1.71404272 9.04569747,2.97177428 7.55789305,3.74635287 C6.06625409,4.52093146 3.66582738,4.52093146 2.20869934,3.74635287 Z"/>
              <polygon points="8.378 4.851 2.565 1.768 3.842 1.104 9.655 4.187"/>
              <polygon points="10.441 3.777 4.632 .694 5.905 .031 11.718 3.114"/>
              <polygon points="1.795 6.588 2.362 2.953 .583 2.887 .142 5.71"/>
            </g>
          </g>
          <g fill-rule="nonzero" transform="translate(0 16)">
            <path fill="#95C1F5" d="M.149547351 8.71209184C.149547351 11.2659004 3.33605629 13.4592616 7.90683687 14.4409058L7.90683687 2.98327793C3.33605629 3.96492208.149547351 6.15828323.149547351 8.71209184zM11.388606 2.50779404L11.388606 14.9163896C11.9484499 14.9547351 12.5159629 14.9815769 13.091145 14.9854115L13.091145 2.44260673C12.5159629 2.44644128 11.9484499 2.46944857 11.388606 2.50779404z"/>
            <rect width="26.221" height="3.075" x=".15" y="6.151" fill="#95C1F5"/>
            <path fill="#95C1F5" d="M26.3701829,8.71209184 C26.3701829,6.63760166 24.2650164,4.79701888 21.0248237,3.65815828 L21.0248237,13.7698599 C24.2650164,12.6271648 26.3701829,10.786582 26.3701829,8.71209184 Z"/>
            <path fill="#A4CEFF" d="M7.90683687 2.98327793L7.90683687 14.4409058C8.99584835 14.6748131 10.1692199 14.8320296 11.388606 14.9163896L11.388606 2.50779404C10.1692199 2.59215409 8.99584835 2.74937053 7.90683687 2.98327793zM13.2598651 2.43493764C13.2061815 2.43493764 13.1524978 2.43877219 13.0949796 2.43877219L13.0949796 14.9815769C13.1486633 14.9815769 13.2023469 14.9854115 13.2598651 14.9854115 16.1664521 14.9854115 18.8506353 14.5329349 21.0248237 13.7660254L21.0248237 3.65432373C18.8506353 2.89124879 16.1664521 2.43493764 13.2598651 2.43493764z"/>
            <ellipse cx="13.26" cy="6.845" fill="#94C5FF" rx="13.11" ry="6.277"/>
            <ellipse cx="13.26" cy="6.377" fill="#B3D6FF" rx="13.11" ry="6.277"/>
            <ellipse cx="13.26" cy="6.377" fill="#98C7FF" rx="10.426" ry="4.832"/>
            <g fill="#FFA340" transform="translate(8.053 3.068)">
              <path d="M2.20869934,3.74635287 L0.57518212,2.87974515 L1.85208643,2.21636843 L3.48560364,3.08297616 C4.25634769,3.48943819 5.52174835,3.48943819 6.30783058,3.08297616 C7.09391281,2.67267958 7.109251,2.00930287 6.33850696,1.60284084 L4.63213334,0.697887638 L5.90903764,0.0345109272 L7.61541126,0.939464129 C9.0725393,1.71404272 9.04569747,2.97177428 7.55789305,3.74635287 C6.06625409,4.52093146 3.66582738,4.52093146 2.20869934,3.74635287 Z"/>
              <polygon points="8.378 4.851 2.565 1.768 3.842 1.104 9.655 4.187"/>
              <polygon points="10.441 3.777 4.632 .694 5.905 .031 11.718 3.114"/>
              <polygon points="1.795 6.588 2.362 2.953 .583 2.887 .142 5.71"/>
            </g>
          </g>
          <g fill-rule="nonzero" transform="translate(0 12)">
            <path fill="#95C1F5" d="M.149547351 8.65840817C.149547351 11.2122168 3.33605629 13.4055779 7.90683687 14.3872221L7.90683687 2.92959426C3.33605629 3.91123841.149547351 6.10459956.149547351 8.65840817zM11.388606 2.45411038L11.388606 14.862706C11.9484499 14.9010514 12.5159629 14.9278933 13.091145 14.9317278L13.091145 2.38892307C12.5159629 2.39275762 11.9484499 2.4157649 11.388606 2.45411038z"/>
            <rect width="26.221" height="3.075" x=".15" y="6.097" fill="#95C1F5"/>
            <path fill="#95C1F5" d="M26.3701829,8.65840817 C26.3701829,6.583918 24.2650164,4.74333521 21.0248237,3.60447462 L21.0248237,13.7161763 C24.2650164,12.5734811 26.3701829,10.7328984 26.3701829,8.65840817 Z"/>
            <path fill="#A4CEFF" d="M7.90683687 2.92959426L7.90683687 14.3872221C8.99584835 14.6211295 10.1692199 14.7783459 11.388606 14.862706L11.388606 2.45411038C10.1692199 2.53847042 8.99584835 2.69568687 7.90683687 2.92959426zM13.2598651 2.38125398C13.2061815 2.38125398 13.1524978 2.38508852 13.0949796 2.38508852L13.0949796 14.9278933C13.1486633 14.9278933 13.2023469 14.9317278 13.2598651 14.9317278 16.1664521 14.9317278 18.8506353 14.4792512 21.0248237 13.7123417L21.0248237 3.60064007C18.8506353 2.83756512 16.1664521 2.38125398 13.2598651 2.38125398z"/>
            <ellipse cx="13.26" cy="6.791" fill="#94C5FF" rx="13.11" ry="6.277"/>
            <ellipse cx="13.26" cy="6.323" fill="#B3D6FF" rx="13.11" ry="6.277"/>
            <ellipse cx="13.26" cy="6.323" fill="#98C7FF" rx="10.426" ry="4.832"/>
            <g fill="#FFA340" transform="translate(8.053 2.684)">
              <path d="M2.20869934,4.07612395 L0.57518212,3.20951623 L1.85208643,2.54613952 L3.48560364,3.41274724 C4.25634769,3.81920927 5.52174835,3.81920927 6.30783058,3.41274724 C7.09391281,3.00245066 7.109251,2.33907395 6.33850696,1.93261192 L4.63213334,1.02765872 L5.90903764,0.364282009 L7.61541126,1.26923521 C9.0725393,2.0438138 9.04569747,3.30154537 7.55789305,4.07612395 C6.06625409,4.85070254 3.66582738,4.85070254 2.20869934,4.07612395 Z"/>
              <polygon points="8.378 5.18 2.565 2.097 3.842 1.434 9.655 4.517"/>
              <polygon points="10.441 4.107 4.632 1.024 5.905 .36 11.718 3.443"/>
              <polygon points="1.795 6.918 2.362 3.282 .583 3.217 .142 6.039"/>
            </g>
          </g>
          <g fill-rule="nonzero" transform="translate(0 8)">
            <path fill="#95C1F5" d="M.149547351 8.98817926C.149547351 11.5419879 3.33605629 13.735349 7.90683687 14.7169932L7.90683687 3.25936534C3.33605629 4.2410095.149547351 6.43437064.149547351 8.98817926zM11.388606 2.78388146L11.388606 15.1924771C11.9484499 15.2308225 12.5159629 15.2576644 13.091145 15.2614989L13.091145 2.71869415C12.5159629 2.7225287 11.9484499 2.74553598 11.388606 2.78388146z"/>
            <rect width="26.221" height="3.075" x=".15" y="6.427" fill="#95C1F5"/>
            <path fill="#95C1F5" d="M26.3701829,8.98817926 C26.3701829,6.91368908 24.2650164,5.0731063 21.0248237,3.93041115 L21.0248237,14.0421128 C24.2650164,12.8994177 26.3701829,11.0626694 26.3701829,8.98817926 Z"/>
            <path fill="#A4CEFF" d="M7.90683687 3.25936534L7.90683687 14.7169932C8.99584835 14.9509006 10.1692199 15.108117 11.388606 15.1924771L11.388606 2.78388146C10.1692199 2.8682415 8.99584835 3.02545795 7.90683687 3.25936534zM13.2598651 2.71102506C13.2061815 2.71102506 13.1524978 2.7148596 13.0949796 2.7148596L13.0949796 15.2576644C13.1486633 15.2576644 13.2023469 15.2614989 13.2598651 15.2614989 16.1664521 15.2614989 18.8506353 14.8090223 21.0248237 14.0421128L21.0248237 3.93041115C18.8506353 3.16733621 16.1664521 2.71102506 13.2598651 2.71102506z"/>
            <ellipse cx="13.26" cy="7.121" fill="#94C5FF" rx="13.11" ry="6.277"/>
            <ellipse cx="13.26" cy="6.653" fill="#B3D6FF" rx="13.11" ry="6.277"/>
            <ellipse cx="13.26" cy="6.653" fill="#98C7FF" rx="10.426" ry="4.832"/>
            <g fill="#FFA340" transform="translate(8.053 3.068)">
              <path d="M2.20869934,4.02244029 L0.57518212,3.15583256 L1.85208643,2.49245585 L3.48560364,3.35906358 C4.25634769,3.76552561 5.52174835,3.76552561 6.30783058,3.35906358 C7.09391281,2.948767 7.109251,2.28539029 6.33850696,1.87892826 L4.63213334,0.973975056 L5.90903764,0.310598345 L7.61541126,1.21555155 C9.0725393,1.99013013 9.04569747,3.2478617 7.55789305,4.02244029 C6.06625409,4.79701888 3.66582738,4.79701888 2.20869934,4.02244029 Z"/>
              <polygon points="8.378 5.127 2.565 2.044 3.842 1.38 9.655 4.463"/>
              <polygon points="10.441 4.053 4.632 .97 5.905 .307 11.718 3.39"/>
              <polygon points="1.795 6.864 2.362 3.229 .583 3.164 .142 5.986"/>
            </g>
          </g>
          <g fill-rule="nonzero" transform="translate(0 4)">
            <path fill="#95C1F5" d="M.149547351 8.93449559C.149547351 11.4883042 3.33605629 13.6816654 7.90683687 14.6633095L7.90683687 3.20568168C3.33605629 4.18732583.149547351 6.38068698.149547351 8.93449559zM11.388606 2.73019779L11.388606 15.1387934C11.9484499 15.1771389 12.5159629 15.2039807 13.091145 15.2078152L13.091145 2.66501049C12.5159629 2.66501049 11.9484499 2.69185232 11.388606 2.73019779z"/>
            <rect width="26.221" height="3.075" x=".15" y="6.373" fill="#95C1F5"/>
            <path fill="#95C1F5" d="M26.3701829,8.93449559 C26.3701829,6.86000541 24.2650164,5.01942263 21.0248237,3.88056203 L21.0248237,13.9922637 C24.2650164,12.845734 26.3701829,11.0089858 26.3701829,8.93449559 Z"/>
            <path fill="#A4CEFF" d="M7.90683687 3.20568168L7.90683687 14.6633095C8.99584835 14.8972169 10.1692199 15.0544333 11.388606 15.1387934L11.388606 2.73019779C10.1692199 2.81455784 8.99584835 2.97177428 7.90683687 3.20568168zM13.2598651 2.65734139C13.2061815 2.65734139 13.1524978 2.66117594 13.0949796 2.66117594L13.0949796 15.2039807C13.1486633 15.2039807 13.2023469 15.2078152 13.2598651 15.2078152 16.1664521 15.2078152 18.8506353 14.7553386 21.0248237 13.9884291L21.0248237 3.87672749C18.8506353 3.11365254 16.1664521 2.65734139 13.2598651 2.65734139z"/>
            <ellipse cx="13.26" cy="7.067" fill="#94C5FF" rx="13.11" ry="6.277"/>
            <ellipse cx="13.26" cy="6.599" fill="#B3D6FF" rx="13.11" ry="6.277"/>
            <ellipse cx="13.26" cy="6.599" fill="#98C7FF" rx="10.426" ry="4.832"/>
            <g fill="#FFA340" transform="translate(8.053 3.068)">
              <path d="M2.20869934,3.96875663 L0.57518212,3.1021489 L1.85208643,2.43877219 L3.48560364,3.30537991 C4.25634769,3.71184195 5.52174835,3.71184195 6.30783058,3.30537991 C7.09391281,2.89508334 7.109251,2.23170662 6.33850696,1.82524459 L4.63213334,0.920291391 L5.90903764,0.25691468 L7.61541126,1.16186788 C9.0725393,1.93644647 9.04569747,3.19417804 7.55789305,3.96875663 C6.06625409,4.74333521 3.66582738,4.74333521 2.20869934,3.96875663 Z"/>
              <polygon points="8.378 5.073 2.565 1.99 3.842 1.327 9.655 4.41"/>
              <polygon points="10.441 3.999 4.632 .916 5.905 .253 11.718 3.336"/>
              <polygon points="1.795 6.81 2.362 3.175 .583 3.11 .142 5.932"/>
            </g>
          </g>
          <path fill="#95C1F5" fill-rule="nonzero" d="M.149547351 8.88081193C.149547351 11.4346205 3.33605629 13.6279817 7.90683687 14.6096258L7.90683687 3.15199802C3.33605629 4.13364217.149547351 6.32700332.149547351 8.88081193zM11.388606 2.67651413L11.388606 15.0851097C11.9484499 15.1234552 12.5159629 15.150297 13.091145 15.1541316L13.091145 2.60749228C12.5159629 2.61132682 11.9484499 2.63816866 11.388606 2.67651413z"/>
          <rect width="26.221" height="3.075" x=".15" y="6.319" fill="#95C1F5" fill-rule="nonzero"/>
          <path fill="#95C1F5" fill-rule="nonzero" d="M26.3701829,8.88081193 C26.3701829,6.80632175 24.2650164,4.96573897 21.0248237,3.82687837 L21.0248237,13.93858 C24.2650164,12.7920503 26.3701829,10.9553021 26.3701829,8.88081193 Z"/>
          <path fill="#A4CEFF" fill-rule="nonzero" d="M7.90683687 3.15199802L7.90683687 14.6096258C8.99584835 14.8435332 10.1692199 15.0007497 11.388606 15.0851097L11.388606 2.67651413C10.1692199 2.76087417 8.99584835 2.91809062 7.90683687 3.15199802zM13.2598651 2.60365773C13.2061815 2.60365773 13.1524978 2.60749228 13.0949796 2.60749228L13.0949796 15.150297C13.1486633 15.150297 13.2023469 15.1541316 13.2598651 15.1541316 16.1664521 15.1541316 18.8506353 14.701655 21.0248237 13.9347455L21.0248237 3.82304382C18.8506353 3.05996888 16.1664521 2.60365773 13.2598651 2.60365773z"/>
          <ellipse cx="13.26" cy="7.013" fill="#94C5FF" rx="13.11" ry="6.277"/>
          <ellipse cx="13.26" cy="6.546" fill="#B3D6FF" fill-rule="nonzero" rx="13.11" ry="6.277"/>
          <ellipse cx="13.26" cy="6.546" fill="#DCEEFF" fill-rule="nonzero" rx="10.426" ry="4.832"/>
          <g fill="#94C5FF" transform="translate(8.053 3.068)">
            <path d="M2.20869934,3.91507296 L0.57518212,3.04846523 L1.85208643,2.38508852 L3.48560364,3.25169625 C4.25634769,3.65815828 5.52174835,3.65815828 6.30783058,3.25169625 C7.09391281,2.84139967 7.109251,2.17802296 6.33850696,1.77156093 L4.63213334,0.866607727 L5.90903764,0.203231016 L7.61541126,1.10818422 C9.0725393,1.8827628 9.04569747,3.14049437 7.55789305,3.91507296 C6.06625409,4.68965155 3.66582738,4.68965155 2.20869934,3.91507296 Z"/>
            <polygon points="8.378 5.019 2.565 1.936 3.842 1.273 9.655 4.356"/>
            <polygon points="10.441 3.946 4.632 .863 5.905 .199 11.718 3.282"/>
            <polygon points="1.795 6.756 2.362 3.121 .583 3.056 .142 5.878"/>
          </g>
        </g>
        <g transform="rotate(10 -133.32 127.367)">
          <polygon fill="url(#ils_gold_purchase_failed-b)" points="7.391 6.159 76.37 6.159 82.529 30.794 0 30.794"/>
          <polygon fill="url(#ils_gold_purchase_failed-c)" points="76.37 6.159 86.224 0 93.238 19.873 93.615 20.94 82.529 30.794"/>
          <use fill="url(#ils_gold_purchase_failed-d)" xlink:href="#ils_gold_purchase_failed-e"/>
          <use fill="#000" filter="url(#ils_gold_purchase_failed-f)" xlink:href="#ils_gold_purchase_failed-e"/>
          <path stroke="#C2DEFF" stroke-linejoin="square" stroke-width=".2" d="M16.0451167,0.1 L7.70259798,6.05894195 L76.3170273,6.07407333 L85.8755446,0.1 L16.0451167,0.1 Z"/>
          <path fill="#68AEFF" d="M27.3384392,22.1719434 C28.4663072,22.1719434 29.2737581,21.7999957 29.760792,21.0561005 L29.8248754,22.045143 L31.3628772,22.045143 L31.3628772,17.5183713 L27.3897059,17.5183713 L27.3897059,18.9892551 L29.4916417,18.9892551 L29.4916417,19.1160554 C29.4916417,19.5640833 29.3314332,19.9064441 29.0110161,20.1431381 C28.6905991,20.379832 28.2697847,20.498179 27.748573,20.498179 C26.3643714,20.498179 25.6722706,19.6190301 25.6722706,17.8607322 C25.6722706,17.0069433 25.8452958,16.3602616 26.1913462,15.9206871 C26.5373966,15.4811126 27.0351111,15.2613254 27.6844896,15.2613254 C28.1031679,15.2613254 28.4534905,15.3627657 28.7354575,15.5656462 C29.0174245,15.7685267 29.2096747,16.0770742 29.3122081,16.4912886 L31.3500605,15.6924465 C31.0082823,14.9400979 30.5426095,14.3948565 29.9530422,14.0567223 C29.3634749,13.7185881 28.5859295,13.5495209 27.6204062,13.5495209 C26.7574163,13.5495209 26.0097766,13.7228147 25.3774869,14.0694023 C24.7451973,14.4159899 24.2581634,14.9126245 23.9163853,15.5593062 C23.5746071,16.2059879 23.403718,16.9773565 23.403718,17.8734122 C23.403718,18.7779212 23.5703349,19.5535166 23.9035686,20.2001982 C24.2368023,20.8468799 24.7003389,21.3371745 25.2941785,21.6710821 C25.8880181,22.0049896 26.5694383,22.1719434 27.3384392,22.1719434 Z M39.2991494,22.1719434 C40.1535948,22.1719434 40.890554,22.0007629 41.5100269,21.658402 C42.1294999,21.3160411 42.6058532,20.8215199 42.9390869,20.1748382 C43.2723206,19.5281565 43.4389375,18.7567878 43.4389375,17.8607322 C43.4389375,16.9646765 43.2723206,16.1933078 42.9390869,15.5466261 C42.6058532,14.8999445 42.1294999,14.4054232 41.5100269,14.0630623 C40.890554,13.7207014 40.1535948,13.5495209 39.2991494,13.5495209 C38.444704,13.5495209 37.7056087,13.7207014 37.0818635,14.0630623 C36.4581183,14.4054232 35.9796289,14.8999445 35.6463952,15.5466261 C35.3131615,16.1933078 35.1465446,16.9646765 35.1465446,17.8607322 C35.1465446,18.7567878 35.3131615,19.5281565 35.6463952,20.1748382 C35.9796289,20.8215199 36.4581183,21.3160411 37.0818635,21.658402 C37.7056087,22.0007629 38.444704,22.1719434 39.2991494,22.1719434 Z M39.2991494,20.4601389 C38.6839487,20.4601389 38.2140037,20.2403517 37.8893144,19.8007772 C37.5646252,19.3612027 37.4022805,18.714521 37.4022805,17.8607322 C37.4022805,17.0069433 37.5646252,16.3602616 37.8893144,15.9206871 C38.2140037,15.4811126 38.6839487,15.2613254 39.2991494,15.2613254 C39.9143501,15.2613254 40.382159,15.4811126 40.702576,15.9206871 C41.022993,16.3602616 41.1832016,17.0069433 41.1832016,17.8607322 C41.1832016,18.714521 41.022993,19.3612027 40.702576,19.8007772 C40.382159,20.2403517 39.9143501,20.4601389 39.2991494,20.4601389 Z M53.8616459,22.045143 L53.8616459,20.3586987 L49.6193244,20.3586987 L49.6193244,13.6763213 L47.4148552,13.6763213 L47.4148552,22.045143 L53.8616459,22.045143 Z M61.1827174,22.045143 C62.5071078,22.045143 63.5217618,21.6837621 64.2266793,20.9610002 C64.9315967,20.2382383 65.2840555,19.2048157 65.2840555,17.8607322 C65.2840555,16.5166487 64.9315967,15.483226 64.2266793,14.7604641 C63.5217618,14.0377022 62.5071078,13.6763213 61.1827174,13.6763213 L57.5940466,13.6763213 L57.5940466,22.045143 L61.1827174,22.045143 Z M59.7985158,20.3967388 L59.7985158,15.3247256 L60.9648338,15.3247256 C61.6740235,15.3247256 62.1952353,15.5360594 62.528469,15.9587272 C62.8617027,16.381395 63.0283195,17.0153966 63.0283195,17.8607322 C63.0283195,18.7060677 62.8617027,19.3400693 62.528469,19.7627371 C62.1952353,20.1854049 61.6740235,20.3967388 60.9648338,20.3967388 L59.7985158,20.3967388 Z"/>
        </g>
        <g transform="translate(10.466 33.688)">
          <g fill-rule="nonzero" transform="translate(0 16)">
            <path fill="#95C1F5" d="M.149547351 8.71209184C.149547351 11.2659004 3.33605629 13.4592616 7.90683687 14.4409058L7.90683687 2.98327793C3.33605629 3.96492208.149547351 6.15828323.149547351 8.71209184zM11.388606 2.50779404L11.388606 14.9163896C11.9484499 14.9547351 12.5159629 14.9815769 13.091145 14.9854115L13.091145 2.44260673C12.5159629 2.44644128 11.9484499 2.46944857 11.388606 2.50779404z"/>
            <rect width="26.221" height="3.075" x=".15" y="6.151" fill="#95C1F5"/>
            <path fill="#95C1F5" d="M26.3701829,8.71209184 C26.3701829,6.63760166 24.2650164,4.79701888 21.0248237,3.65815828 L21.0248237,13.7698599 C24.2650164,12.6271648 26.3701829,10.786582 26.3701829,8.71209184 Z"/>
            <path fill="#A4CEFF" d="M7.90683687 2.98327793L7.90683687 14.4409058C8.99584835 14.6748131 10.1692199 14.8320296 11.388606 14.9163896L11.388606 2.50779404C10.1692199 2.59215409 8.99584835 2.74937053 7.90683687 2.98327793zM13.2598651 2.43493764C13.2061815 2.43493764 13.1524978 2.43877219 13.0949796 2.43877219L13.0949796 14.9815769C13.1486633 14.9815769 13.2023469 14.9854115 13.2598651 14.9854115 16.1664521 14.9854115 18.8506353 14.5329349 21.0248237 13.7660254L21.0248237 3.65432373C18.8506353 2.89124879 16.1664521 2.43493764 13.2598651 2.43493764z"/>
            <ellipse cx="13.26" cy="6.845" fill="#94C5FF" rx="13.11" ry="6.277"/>
            <ellipse cx="13.26" cy="6.377" fill="#B3D6FF" rx="13.11" ry="6.277"/>
            <ellipse cx="13.26" cy="6.377" fill="#98C7FF" rx="10.426" ry="4.832"/>
            <g fill="#FFA340" transform="translate(8.053 3.068)">
              <path d="M2.20869934,3.74635287 L0.57518212,2.87974515 L1.85208643,2.21636843 L3.48560364,3.08297616 C4.25634769,3.48943819 5.52174835,3.48943819 6.30783058,3.08297616 C7.09391281,2.67267958 7.109251,2.00930287 6.33850696,1.60284084 L4.63213334,0.697887638 L5.90903764,0.0345109272 L7.61541126,0.939464129 C9.0725393,1.71404272 9.04569747,2.97177428 7.55789305,3.74635287 C6.06625409,4.52093146 3.66582738,4.52093146 2.20869934,3.74635287 Z"/>
              <polygon points="8.378 4.851 2.565 1.768 3.842 1.104 9.655 4.187"/>
              <polygon points="10.441 3.777 4.632 .694 5.905 .031 11.718 3.114"/>
              <polygon points="1.795 6.588 2.362 2.953 .583 2.887 .142 5.71"/>
            </g>
          </g>
          <g fill-rule="nonzero" transform="translate(0 12)">
            <path fill="#95C1F5" d="M.149547351 8.65840817C.149547351 11.2122168 3.33605629 13.4055779 7.90683687 14.3872221L7.90683687 2.92959426C3.33605629 3.91123841.149547351 6.10459956.149547351 8.65840817zM11.388606 2.45411038L11.388606 14.862706C11.9484499 14.9010514 12.5159629 14.9278933 13.091145 14.9317278L13.091145 2.38892307C12.5159629 2.39275762 11.9484499 2.4157649 11.388606 2.45411038z"/>
            <rect width="26.221" height="3.075" x=".15" y="6.097" fill="#95C1F5"/>
            <path fill="#95C1F5" d="M26.3701829,8.65840817 C26.3701829,6.583918 24.2650164,4.74333521 21.0248237,3.60447462 L21.0248237,13.7161763 C24.2650164,12.5734811 26.3701829,10.7328984 26.3701829,8.65840817 Z"/>
            <path fill="#A4CEFF" d="M7.90683687 2.92959426L7.90683687 14.3872221C8.99584835 14.6211295 10.1692199 14.7783459 11.388606 14.862706L11.388606 2.45411038C10.1692199 2.53847042 8.99584835 2.69568687 7.90683687 2.92959426zM13.2598651 2.38125398C13.2061815 2.38125398 13.1524978 2.38508852 13.0949796 2.38508852L13.0949796 14.9278933C13.1486633 14.9278933 13.2023469 14.9317278 13.2598651 14.9317278 16.1664521 14.9317278 18.8506353 14.4792512 21.0248237 13.7123417L21.0248237 3.60064007C18.8506353 2.83756512 16.1664521 2.38125398 13.2598651 2.38125398z"/>
            <ellipse cx="13.26" cy="6.791" fill="#94C5FF" rx="13.11" ry="6.277"/>
            <ellipse cx="13.26" cy="6.323" fill="#B3D6FF" rx="13.11" ry="6.277"/>
            <ellipse cx="13.26" cy="6.323" fill="#98C7FF" rx="10.426" ry="4.832"/>
            <g fill="#FFA340" transform="translate(8.053 2.684)">
              <path d="M2.20869934,4.07612395 L0.57518212,3.20951623 L1.85208643,2.54613952 L3.48560364,3.41274724 C4.25634769,3.81920927 5.52174835,3.81920927 6.30783058,3.41274724 C7.09391281,3.00245066 7.109251,2.33907395 6.33850696,1.93261192 L4.63213334,1.02765872 L5.90903764,0.364282009 L7.61541126,1.26923521 C9.0725393,2.0438138 9.04569747,3.30154537 7.55789305,4.07612395 C6.06625409,4.85070254 3.66582738,4.85070254 2.20869934,4.07612395 Z"/>
              <polygon points="8.378 5.18 2.565 2.097 3.842 1.434 9.655 4.517"/>
              <polygon points="10.441 4.107 4.632 1.024 5.905 .36 11.718 3.443"/>
              <polygon points="1.795 6.918 2.362 3.282 .583 3.217 .142 6.039"/>
            </g>
          </g>
          <g fill-rule="nonzero" transform="translate(0 8)">
            <path fill="#95C1F5" d="M.149547351 8.98817926C.149547351 11.5419879 3.33605629 13.735349 7.90683687 14.7169932L7.90683687 3.25936534C3.33605629 4.2410095.149547351 6.43437064.149547351 8.98817926zM11.388606 2.78388146L11.388606 15.1924771C11.9484499 15.2308225 12.5159629 15.2576644 13.091145 15.2614989L13.091145 2.71869415C12.5159629 2.7225287 11.9484499 2.74553598 11.388606 2.78388146z"/>
            <rect width="26.221" height="3.075" x=".15" y="6.427" fill="#95C1F5"/>
            <path fill="#95C1F5" d="M26.3701829,8.98817926 C26.3701829,6.91368908 24.2650164,5.0731063 21.0248237,3.93041115 L21.0248237,14.0421128 C24.2650164,12.8994177 26.3701829,11.0626694 26.3701829,8.98817926 Z"/>
            <path fill="#A4CEFF" d="M7.90683687 3.25936534L7.90683687 14.7169932C8.99584835 14.9509006 10.1692199 15.108117 11.388606 15.1924771L11.388606 2.78388146C10.1692199 2.8682415 8.99584835 3.02545795 7.90683687 3.25936534zM13.2598651 2.71102506C13.2061815 2.71102506 13.1524978 2.7148596 13.0949796 2.7148596L13.0949796 15.2576644C13.1486633 15.2576644 13.2023469 15.2614989 13.2598651 15.2614989 16.1664521 15.2614989 18.8506353 14.8090223 21.0248237 14.0421128L21.0248237 3.93041115C18.8506353 3.16733621 16.1664521 2.71102506 13.2598651 2.71102506z"/>
            <ellipse cx="13.26" cy="7.121" fill="#94C5FF" rx="13.11" ry="6.277"/>
            <ellipse cx="13.26" cy="6.653" fill="#B3D6FF" rx="13.11" ry="6.277"/>
            <ellipse cx="13.26" cy="6.653" fill="#98C7FF" rx="10.426" ry="4.832"/>
            <g fill="#FFA340" transform="translate(8.053 3.068)">
              <path d="M2.20869934,4.02244029 L0.57518212,3.15583256 L1.85208643,2.49245585 L3.48560364,3.35906358 C4.25634769,3.76552561 5.52174835,3.76552561 6.30783058,3.35906358 C7.09391281,2.948767 7.109251,2.28539029 6.33850696,1.87892826 L4.63213334,0.973975056 L5.90903764,0.310598345 L7.61541126,1.21555155 C9.0725393,1.99013013 9.04569747,3.2478617 7.55789305,4.02244029 C6.06625409,4.79701888 3.66582738,4.79701888 2.20869934,4.02244029 Z"/>
              <polygon points="8.378 5.127 2.565 2.044 3.842 1.38 9.655 4.463"/>
              <polygon points="10.441 4.053 4.632 .97 5.905 .307 11.718 3.39"/>
              <polygon points="1.795 6.864 2.362 3.229 .583 3.164 .142 5.986"/>
            </g>
          </g>
          <g fill-rule="nonzero" transform="translate(0 4)">
            <path fill="#95C1F5" d="M.149547351 8.93449559C.149547351 11.4883042 3.33605629 13.6816654 7.90683687 14.6633095L7.90683687 3.20568168C3.33605629 4.18732583.149547351 6.38068698.149547351 8.93449559zM11.388606 2.73019779L11.388606 15.1387934C11.9484499 15.1771389 12.5159629 15.2039807 13.091145 15.2078152L13.091145 2.66501049C12.5159629 2.66501049 11.9484499 2.69185232 11.388606 2.73019779z"/>
            <rect width="26.221" height="3.075" x=".15" y="6.373" fill="#95C1F5"/>
            <path fill="#95C1F5" d="M26.3701829,8.93449559 C26.3701829,6.86000541 24.2650164,5.01942263 21.0248237,3.88056203 L21.0248237,13.9922637 C24.2650164,12.845734 26.3701829,11.0089858 26.3701829,8.93449559 Z"/>
            <path fill="#A4CEFF" d="M7.90683687 3.20568168L7.90683687 14.6633095C8.99584835 14.8972169 10.1692199 15.0544333 11.388606 15.1387934L11.388606 2.73019779C10.1692199 2.81455784 8.99584835 2.97177428 7.90683687 3.20568168zM13.2598651 2.65734139C13.2061815 2.65734139 13.1524978 2.66117594 13.0949796 2.66117594L13.0949796 15.2039807C13.1486633 15.2039807 13.2023469 15.2078152 13.2598651 15.2078152 16.1664521 15.2078152 18.8506353 14.7553386 21.0248237 13.9884291L21.0248237 3.87672749C18.8506353 3.11365254 16.1664521 2.65734139 13.2598651 2.65734139z"/>
            <ellipse cx="13.26" cy="7.067" fill="#94C5FF" rx="13.11" ry="6.277"/>
            <ellipse cx="13.26" cy="6.599" fill="#B3D6FF" rx="13.11" ry="6.277"/>
            <ellipse cx="13.26" cy="6.599" fill="#98C7FF" rx="10.426" ry="4.832"/>
            <g fill="#FFA340" transform="translate(8.053 3.068)">
              <path d="M2.20869934,3.96875663 L0.57518212,3.1021489 L1.85208643,2.43877219 L3.48560364,3.30537991 C4.25634769,3.71184195 5.52174835,3.71184195 6.30783058,3.30537991 C7.09391281,2.89508334 7.109251,2.23170662 6.33850696,1.82524459 L4.63213334,0.920291391 L5.90903764,0.25691468 L7.61541126,1.16186788 C9.0725393,1.93644647 9.04569747,3.19417804 7.55789305,3.96875663 C6.06625409,4.74333521 3.66582738,4.74333521 2.20869934,3.96875663 Z"/>
              <polygon points="8.378 5.073 2.565 1.99 3.842 1.327 9.655 4.41"/>
              <polygon points="10.441 3.999 4.632 .916 5.905 .253 11.718 3.336"/>
              <polygon points="1.795 6.81 2.362 3.175 .583 3.11 .142 5.932"/>
            </g>
          </g>
          <path fill="#95C1F5" fill-rule="nonzero" d="M.149547351 8.88081193C.149547351 11.4346205 3.33605629 13.6279817 7.90683687 14.6096258L7.90683687 3.15199802C3.33605629 4.13364217.149547351 6.32700332.149547351 8.88081193zM11.388606 2.67651413L11.388606 15.0851097C11.9484499 15.1234552 12.5159629 15.150297 13.091145 15.1541316L13.091145 2.60749228C12.5159629 2.61132682 11.9484499 2.63816866 11.388606 2.67651413z"/>
          <rect width="26.221" height="3.075" x=".15" y="6.319" fill="#95C1F5" fill-rule="nonzero"/>
          <path fill="#95C1F5" fill-rule="nonzero" d="M26.3701829,8.88081193 C26.3701829,6.80632175 24.2650164,4.96573897 21.0248237,3.82687837 L21.0248237,13.93858 C24.2650164,12.7920503 26.3701829,10.9553021 26.3701829,8.88081193 Z"/>
          <path fill="#A4CEFF" fill-rule="nonzero" d="M7.90683687 3.15199802L7.90683687 14.6096258C8.99584835 14.8435332 10.1692199 15.0007497 11.388606 15.0851097L11.388606 2.67651413C10.1692199 2.76087417 8.99584835 2.91809062 7.90683687 3.15199802zM13.2598651 2.60365773C13.2061815 2.60365773 13.1524978 2.60749228 13.0949796 2.60749228L13.0949796 15.150297C13.1486633 15.150297 13.2023469 15.1541316 13.2598651 15.1541316 16.1664521 15.1541316 18.8506353 14.701655 21.0248237 13.9347455L21.0248237 3.82304382C18.8506353 3.05996888 16.1664521 2.60365773 13.2598651 2.60365773z"/>
          <ellipse cx="13.26" cy="7.013" fill="#94C5FF" rx="13.11" ry="6.277"/>
          <ellipse cx="13.26" cy="6.546" fill="#B3D6FF" fill-rule="nonzero" rx="13.11" ry="6.277"/>
          <ellipse cx="13.26" cy="6.546" fill="#DCEEFF" fill-rule="nonzero" rx="10.426" ry="4.832"/>
          <g fill="#94C5FF" transform="translate(8.053 3.068)">
            <path d="M2.20869934,3.91507296 L0.57518212,3.04846523 L1.85208643,2.38508852 L3.48560364,3.25169625 C4.25634769,3.65815828 5.52174835,3.65815828 6.30783058,3.25169625 C7.09391281,2.84139967 7.109251,2.17802296 6.33850696,1.77156093 L4.63213334,0.866607727 L5.90903764,0.203231016 L7.61541126,1.10818422 C9.0725393,1.8827628 9.04569747,3.14049437 7.55789305,3.91507296 C6.06625409,4.68965155 3.66582738,4.68965155 2.20869934,3.91507296 Z"/>
            <polygon points="8.378 5.019 2.565 1.936 3.842 1.273 9.655 4.356"/>
            <polygon points="10.441 3.946 4.632 .863 5.905 .199 11.718 3.282"/>
            <polygon points="1.795 6.756 2.362 3.121 .583 3.056 .142 5.878"/>
          </g>
        </g>
        <g transform="rotate(4 -753.816 46.222)">
          <polygon fill="url(#ils_gold_purchase_failed-g)" points="2.758 3.112 37.378 3.186 40.564 15.928 .461 15.331"/>
          <polygon fill="url(#ils_gold_purchase_failed-h)" points="37.378 3.186 42.475 0 46.103 10.279 46.298 10.831 40.564 15.928"/>
          <use fill="url(#ils_gold_purchase_failed-i)" xlink:href="#ils_gold_purchase_failed-j"/>
          <use fill="#000" filter="url(#ils_gold_purchase_failed-k)" xlink:href="#ils_gold_purchase_failed-j"/>
          <path stroke="#C2DEFF" stroke-linejoin="square" stroke-width=".2" d="M6.1977195,0.1 L3.0149878,3.01221405 L37.3249889,3.10082422 L42.1263077,0.1 L6.1977195,0.1 Z"/>
          <path fill="#68AEFF" d="M16.7274941,11.9080128 L16.7274941,10.9342737 L15.5753601,10.9342737 C15.2433472,10.9342737 14.9138121,10.9441845 14.5867547,10.9640062 L14.5867547,10.9640062 C15.2854683,10.5576621 15.8070257,10.1612289 16.1514271,9.77470652 C16.4958284,9.38818413 16.6680291,8.96449613 16.6680291,8.50364252 C16.6680291,8.23109469 16.601131,7.9758908 16.4673348,7.73803088 C16.3335386,7.50017095 16.1278888,7.3056709 15.8503856,7.15453074 C15.5728823,7.00339057 15.228481,6.92782049 14.8171815,6.92782049 C14.2522642,6.92782049 13.7926494,7.07400524 13.4383373,7.36637474 C13.0840251,7.65874423 12.9019136,8.07004369 12.8920027,8.60027312 L12.8920027,8.60027312 L13.9846718,8.93476364 C13.9896272,8.60770624 14.0577642,8.35869663 14.1890827,8.1877348 C14.3204012,8.01677298 14.5025127,7.93129207 14.7354172,7.93129207 C14.9485,7.93129207 15.1120287,7.9919959 15.2260033,8.11340358 C15.3399778,8.23481125 15.3969651,8.39462339 15.3969651,8.59283999 C15.3969651,8.94467447 15.2123759,9.32004717 14.8431975,9.7189581 C14.474019,10.117869 13.8756526,10.5750061 13.0480983,11.0903692 L13.0480983,11.0903692 L13.0480983,11.9080128 L16.7274941,11.9080128 Z M20.8751766,11.9080128 L20.8751766,10.83021 L21.625922,10.83021 L21.625922,9.95310146 L20.8751766,9.95310146 L20.8751766,7.00215172 L19.3811189,7.00215172 L17.2775452,10.228127 L17.2775452,10.83021 L19.7453419,10.83021 L19.7453419,11.9080128 L20.8751766,11.9080128 Z M19.7453419,9.95310146 L18.4668448,9.95310146 L19.3290871,8.64487185 C19.5273037,8.3326807 19.6710107,8.06508828 19.7602082,7.84209459 L19.7602082,7.84209459 L19.7750744,7.84209459 L19.7453419,8.64487185 L19.7453419,9.95310146 Z M23.6551645,11.9080128 L23.6551645,10.5254519 L24.2498143,9.80443901 L25.4688465,11.9080128 L26.9183054,11.9080128 L25.1640884,8.99422862 L26.8291079,7.00215172 L25.4093815,7.00215172 L23.6551645,9.18005669 L23.6551645,7.00215172 L22.3766674,7.00215172 L22.3766674,11.9080128 L23.6551645,11.9080128 Z"/>
        </g>
      </g>
    </g>
  </g>
</svg>
