<svg xmlns="http://www.w3.org/2000/svg" xmlns:xlink="http://www.w3.org/1999/xlink" width="320" height="192" viewBox="0 0 320 192">
  <defs>
    <rect id="ils_hassle_free-a" width="320" height="192" x="0" y="0"/>
    <linearGradient id="ils_hassle_free-c" x1="39.356%" x2="56.455%" y1="18.936%" y2="81.378%">
      <stop offset="0%" stop-color="#D2E7FA"/>
      <stop offset="100%" stop-color="#A9CCEB"/>
    </linearGradient>
    <linearGradient id="ils_hassle_free-d" x1="24.932%" x2="65.203%" y1="18.936%" y2="81.378%">
      <stop offset="0%" stop-color="#D2E7FA"/>
      <stop offset="100%" stop-color="#A9CCEB"/>
    </linearGradient>
  </defs>
  <g fill="none" fill-rule="evenodd">
    <mask id="ils_hassle_free-b" fill="#fff">
      <use xlink:href="#ils_hassle_free-a"/>
    </mask>
    <g mask="url(#ils_hassle_free-b)">
      <path fill="#F4F9FE" fill-rule="nonzero" d="M253.440469,78.3192038 C307.68738,83.3192038 311.847632,64.3569472 310.193558,48.3192038 C308.539484,32.2814604 263.488975,33.0808419 247.083251,16.6802273 C230.677527,0.279612771 204.225378,2.05634602 179.272927,2.05634602 C154.320476,2.05634602 131.193558,52.3192038 152.193558,73.3192038 C173.193558,94.3192038 199.193558,73.3192038 253.440469,78.3192038 Z" transform="rotate(180 227.236 42.425)"/>
      <path fill="#F4F9FF" fill-rule="nonzero" d="M74.2460353,145.736675 C162.691088,114.226043 202,185.124965 202,145.736675 C202,106.348384 154.829305,86.6542393 131.243958,63.021265 C107.658611,39.3882906 117.98019,0 82.1078178,0 C46.2354458,0 64.3081337,22.0795894 25.1098952,39.3882906 C-14.0883436,56.6969917 -14.1990171,177.247308 74.2460353,145.736675 Z"/>
      <path fill="#F0F7FF" d="M203.5,180.823299 C284.153846,152.104748 320,216.721487 320,180.823299 C320,144.92511 276.984615,126.976016 255.476923,105.437102 C233.969231,83.8981889 243.381572,48 210.669231,48 C177.956889,48 194.437537,68.1231701 158.692308,83.8981889 C122.947078,99.6732076 87,58.7694566 87,105.437102 C87,152.104748 122.846154,209.54185 203.5,180.823299 Z" transform="matrix(-1 0 0 1 407 0)"/>
      <g fill="#3792FC" fill-rule="nonzero" transform="translate(20 15)">
        <path d="M61.506677,68.6072984 C61.6377603,67.7521358 61.6127921,66.9406676 62.0871889,66.185378 C63.0422245,64.6872828 64.3967522,65.0618066 65.7075854,65.7234653 C67.0433869,66.3976081 68.3042837,66.7971001 69.7524423,66.1728938 C72.0183112,65.1928899 73.085704,61.7722394 70.9197081,60.1617871 C70.220597,59.6374538 69.527728,60.4988585 69.621359,61.1605172 C69.7524423,62.0781005 70.2081129,63.0955567 69.421613,63.8820567 C68.3667043,64.9369654 67.1307758,64.0505924 66.0758672,63.5761956 C64.9398117,63.0643464 63.7288514,62.9519893 62.5615856,63.4263861 C60.5453993,64.2440964 59.0785145,66.97812 60.6827247,68.8257706 C60.9074389,69.0816952 61.4504984,68.963096 61.506677,68.6072984 L61.506677,68.6072984 Z" opacity=".1"/>
        <path d="M2.7147951 133.405008C6.09361412 132.484918 9.58067906 131.356068 12.7430062 129.856089 13.9027839 129.307127 13.1527944 127.683438 11.9698211 128.054567 8.69151616 129.075172 5.40547935 130.567419 2.35912994 132.144717 1.74831368 132.461723 1.94934182 133.613768 2.7147951 133.405008L2.7147951 133.405008zM222.348165 77.2907833C222.543022 77.9221172 223.143178 78.1247676 223.688776 77.7506438 225.832193 76.2931197 227.967817 74.8667727 230.002115 73.2533637 230.391827 72.9415939 230.306091 72.3180542 229.924173 72.0530498 227.546928 70.4240524 224.343492 68.0156303 221.327119 68 220.563283 67.9922476 220.02548 69.0756478 220.804905 69.5199198 222.020807 70.221402 223.478331 70.4708179 224.77997 71.0086209 226.276465 71.6321605 227.765166 72.3648197 229.090188 73.3079235 229.121365 72.8714457 229.152542 72.4349679 229.175925 71.9984901 226.907799 73.3936602 224.772176 74.9603037 222.620964 76.5191529 223.041853 76.6048896 223.470537 76.6906263 223.891426 76.776363 222.971705 74.1730848 222.028601 71.5931893 221.007555 69.0288823 220.781522 68.4910793 219.861801 68.7872607 220.017686 69.3562407 220.734756 72.0218729 221.521975 74.6563281 222.348165 77.2907833z" opacity=".2"/>
        <path d="M.360018916 49.3720189C2.83438518 49.5585565 5.43493863 49.6298797 7.90930489 49.3829917 8.82004724 49.2952093 8.70483284 48.055283 7.82152249 48.0223646 5.38556103 47.9290958 2.83438518 48.137579.425855712 48.4612766-.0514610605 48.5271134-.199593852 49.3281277.360018916 49.3720189L.360018916 49.3720189zM281.618038 12.2055237C278.934485 14.7821622 277.918798 18.7914544 280.474053 21.8919737 282.879629 24.8107385 287.551791 25.4201509 290.556087 23.1001071 297.82627 17.487098 290.246035 7.14846984 282.409205 9.28675902 280.955168 9.68234252 281.318678 11.756483 282.751331 11.8313231 285.039301 11.9596205 287.498333 12.0451521 289.326571 13.6595604 291.293797 15.3808832 291.336562 18.2996479 289.722154 20.2882568 285.445576 25.5377568 278.025712 17.8078414 282.51612 13.1036052 283.093458 12.5155757 282.216759 11.6388771 281.618038 12.2055237L281.618038 12.2055237z" opacity=".1"/>
        <path d="M162.016151,9.36469541 C162.737692,12.046945 163.529818,14.6978233 164.361159,17.3487016 C164.55723,17.9839712 165.161128,18.187885 165.710127,17.8114289 C167.866906,16.3448187 170.015843,14.9095799 172.062823,13.286113 C172.454965,12.9723996 172.368694,12.3449728 171.984395,12.0783164 C169.59233,10.4391638 166.368925,8.01572777 163.333747,8 C162.56515,7.99219926 162.023994,9.08235335 162.808278,9.52939495 C164.03176,10.2352501 165.49837,10.4862208 166.808123,11.0273765 C168.313948,11.6548033 169.811929,12.3920298 171.145211,13.3410128 C171.176583,12.9018141 171.207954,12.4626153 171.231482,12.0234165 C168.949217,13.427284 166.800281,15.0036939 164.635658,16.5722609 C165.059171,16.6585321 165.490527,16.7448033 165.91404,16.8310745 C164.988586,14.2115675 164.039603,11.6155891 163.012191,9.03529633 C162.792592,8.49414071 161.867137,8.79216844 162.016151,9.36469541 L162.016151,9.36469541 Z" opacity=".2" transform="rotate(50 167.159 13)"/>
        <path d="M259.369401,151.156344 C260.781166,150.481604 262.227533,149.703057 263.500889,148.789562 C263.968017,148.453922 263.50781,147.799943 263.01646,148.059458 C261.656598,148.772261 260.327879,149.692676 259.116806,150.630393 C258.867671,150.817244 259.047602,151.308593 259.369401,151.156344 L259.369401,151.156344 Z" opacity=".2" transform="rotate(-80 261.348 149.593)"/>
        <path d="M80.8864583,6.77291593 C80.4789049,4.64404883 79.9466881,2.42887632 79.1699393,0.400698886 C78.8870493,-0.342486699 77.8465895,0.0410929578 78.0192004,0.793868033 C78.4938802,2.86999292 79.2610395,4.97009154 80.0905305,6.92634779 C80.2583466,7.32431168 80.9823532,7.25718524 80.8864583,6.77291593 L80.8864583,6.77291593 Z" opacity=".2"/>
      </g>
    </g>
    <g mask="url(#ils_hassle_free-b)">
      <g transform="translate(120 51)">
        <path fill="#AECFED" fill-rule="nonzero" d="M67.696875,62.3109375 C67.8375,61.2984375 63.0234375,60.9234375 55.6546875,61.25625 C44.4140625,61.7625 29.221875,60.69375 23.728125,60.253125 C21.6796875,60.0890625 23.5125,59.8359375 21.984375,61.7015625 C21.0421875,62.85 20.7609375,65.68125 20.821875,67.528125 C20.990625,72.4453125 25.3265625,72.58125 32.0671875,74.653125 C36.5671875,76.0359375 49.2515625,75.7078125 59.2171875,75.9375 C59.3671875,75.84375 57.9046875,75.7359375 58.0546875,75.6421875 C60.4359375,74.1515625 67.321875,65.0109375 67.696875,62.3109375 Z"/>
        <path fill="#A9CCEB" fill-rule="nonzero" d="M71.4140625,76.209375 C71.371875,75.3328125 66.815625,74.9578125 60.0046875,75.178125 C49.6078125,75.5109375 40.3359375,73.4203125 35.1421875,72.99375 C33.20625,72.834375 31.575,75.0140625 30.8015625,77.653125 C30.4640625,78.80625 29.371875,82.0453125 30.4921875,83.2453125 C32.6625,85.575 38.3625,87.7640625 45,89.428125 C51.5109375,91.059375 58.2234375,94.2609375 67.55625,94.55625 C70.434375,91.1390625 70.8703125,80.6859375 72.440625,82.903125 C73.7953125,84.8203125 71.53125,78.553125 71.4140625,76.209375 Z"/>
        <path fill="#B9D6F0" fill-rule="nonzero" d="M56.5828125,51.7359375 C56.9203125,50.775 52.2796875,49.434375 44.9953125,48.28125 C33.88125,46.51875 19.209375,42.4171875 13.9171875,40.884375 C11.94375,40.3125 8.38125,40.096875 6.5109375,41.615625 C5.3578125,42.553125 4.7765625,43.809375 4.603125,45.646875 C4.1390625,50.465625 13.4390625,54.0375 19.2046875,56.6671875 C23.4890625,58.621875 35.8265625,61.153125 45.5484375,63.3796875 C45.7171875,63.31875 44.3015625,62.9203125 44.4703125,62.8546875 C47.1,61.8796875 55.678125,54.3046875 56.5828125,51.7359375 Z"/>
        <path fill="#D9EDFF" fill-rule="nonzero" d="M64.51875,96.9609375 C64.8421875,96.853125 76.228125,104.38125 90.8015625,107.803125 C93.321215,108.394608 110.213312,129.14992 119.7051,141.018906 C128,141 171,141 189,141 C182.333333,135.666667 156.283333,114.905729 110.85,78.7171875 L75.1078125,76.0640625 L64.51875,96.9609375 Z"/>
        <path fill="#DCEEFF" fill-rule="nonzero" d="M36.35625,9.975 C36.590625,9.7828125 36.9515625,9.815625 37.153125,10.0453125 C37.359375,10.2796875 37.33125,10.621875 37.096875,10.81875 L31.6265625,15.2953125 C31.3921875,15.4875 31.0359375,15.4546875 30.8296875,15.2203125 C30.6234375,14.9859375 30.6515625,14.64375 30.8859375,14.4515625 L36.35625,9.975 Z"/>
        <polygon fill="#FFF" fill-rule="nonzero" points="80.714 56.123 86.517 62.719 57.023 86.845 51.22 80.25"/>
        <path fill="#94C5FF" d="M96.121875,66.91875 L37.884375,0.7359375 C37.1390625,-0.1078125 35.8453125,-0.225 34.9875,0.4734375 L1.3734375,27.965625 C0.515625,28.6640625 0.4265625,29.9203125 1.1671875,30.7640625 L59.4046875,96.946875 C60.15,97.790625 61.44375,97.9078125 62.3015625,97.209375 L95.915625,69.7171875 C96.7734375,69.01875 96.8671875,67.7625 96.121875,66.91875 Z M79.0875,79.3640625 C79.0125,80.4046875 78.50625,81.3046875 77.7515625,81.91875 C76.996875,82.5375 75.99375,82.8703125 74.9203125,82.771875 C72.76875,82.5796875 71.1515625,80.7375 71.3015625,78.6609375 C71.3765625,77.625 71.8828125,76.7203125 72.6375,76.10625 C73.3921875,75.4875 74.3953125,75.1546875 75.46875,75.253125 C77.6203125,75.4453125 79.2421875,77.2875 79.0875,79.3640625 M57.01875,86.840625 L51.3,80.1796875 L8.3203125,31.340625 L37.603125,7.3875 L80.709375,56.1234375 L86.5125,62.71875 L57.01875,86.840625"/>
        <path fill="#DCEEFF" fill-rule="nonzero" d="M16.0125,26.6203125 C16.246875,26.428125 16.6078125,26.4609375 16.809375,26.690625 C17.015625,26.925 16.9875,27.2671875 16.753125,27.4640625 L11.2828125,31.940625 C11.0484375,32.1328125 10.6921875,32.1 10.4859375,31.865625 C10.2796875,31.63125 10.3078125,31.2890625 10.5421875,31.096875 L16.0125,26.6203125 Z"/>
        <path fill="#DCEEFF" fill-rule="nonzero" d="M8.325,31.340625 L37.5609375,7.425 L47.19375,18.3703125 L17.9578125,42.2859375 L8.325,31.340625 Z M11.278125,31.940625 L16.7484375,27.4640625 C16.9828125,27.271875 17.0109375,26.925 16.8046875,26.690625 C16.5984375,26.45625 16.2421875,26.428125 16.0078125,26.6203125 L10.5375,31.096875 C10.303125,31.2890625 10.2796875,31.63125 10.48125,31.865625 C10.6875,32.1 11.04375,32.1328125 11.278125,31.940625 Z M37.1578125,10.0453125 C36.9515625,9.8109375 36.5953125,9.7828125 36.3609375,9.975 L30.890625,14.4515625 C30.65625,14.64375 30.6328125,14.990625 30.834375,15.2203125 C31.040625,15.4546875 31.396875,15.4875 31.63125,15.2953125 L37.1015625,10.81875 C37.3359375,10.6265625 37.3640625,10.2796875 37.1578125,10.0453125 Z"/>
        <path fill="#84BCFF" fill-rule="nonzero" d="M0.075,31.2375 L0.7453125,28.921875 C0.5671875,29.540625 0.703125,30.234375 1.171875,30.76875 L0.5015625,33.084375 C0.0328125,32.55 -0.103125,31.85625 0.075,31.2375 Z"/>
        <polygon fill="#FFF" fill-rule="nonzero" points="37.561 7.425 80.588 56.227 51.3 80.184 17.953 42.291 47.189 18.375"/>
        <circle cx="33" cy="30" r="3" fill="#94C5FF" stroke="#FFF"/>
        <path fill="#3792FC" fill-rule="nonzero" d="M37.1394433,45.4112326 C37.80334,45.4112326 38.3350199,45.5265706 38.7344831,45.7572465 C39.1339463,45.9879225 39.4462028,46.3648807 39.6712525,46.8881213 L39.6712525,46.8881213 L38.0677734,47.4873161 L38.0340857,47.3554946 C37.9066815,46.9370138 37.6281592,46.7277734 37.1985189,46.7277734 C36.4502286,46.7277734 36.0760835,47.2453877 36.0760835,48.2806163 C36.0760835,48.8319881 36.1717296,49.2342644 36.3630219,49.4874453 C36.5543141,49.7406262 36.8496918,49.8672167 37.2491551,49.8672167 C37.5417197,49.8672167 37.7752087,49.805328 37.9496223,49.6815507 C38.1240358,49.5577734 38.2112425,49.3749205 38.2112425,49.132992 L38.2112425,49.132992 L38.2112425,49.0907952 L37.0634891,49.0907952 L37.0634891,47.9852386 L39.6628131,47.9852386 L39.6628131,51.0656064 L38.4981809,51.0656064 L38.4391054,50.4242147 L38.3600449,50.5401388 C38.0536101,50.9467129 37.5651624,51.15 36.8947018,51.15 C36.3995924,51.15 35.9565258,51.0402883 35.565502,50.8208648 C35.1744781,50.6014414 34.8664414,50.2779324 34.6413917,49.850338 C34.4163419,49.4227435 34.3038171,48.9051292 34.3038171,48.297495 C34.3038171,47.6954871 34.4177485,47.1778728 34.6456113,46.7446521 C34.8734742,46.3114314 35.1997962,45.9808897 35.6245775,45.7530268 C36.0493588,45.525164 36.5543141,45.4112326 37.1394433,45.4112326 Z M43.1904672,45.4112326 C44.0625348,45.4112326 44.7433101,45.663007 45.2327932,46.1665557 C45.7222763,46.6701044 45.9670179,47.3747913 45.9670179,48.2806163 C45.9670179,49.1864414 45.7222763,49.8911282 45.2327932,50.3946769 C44.7433101,50.8982256 44.0625348,51.15 43.1904672,51.15 C42.6165905,51.15 42.1200746,51.0374751 41.7009195,50.8124254 C41.2817644,50.5873757 40.959662,50.2582406 40.7346123,49.8250199 C40.5095626,49.3917992 40.3970378,48.876998 40.3970378,48.2806163 C40.3970378,47.6842346 40.5095626,47.1694334 40.7346123,46.7362127 C40.959662,46.302992 41.2817644,45.9738569 41.7009195,45.7488072 C42.1200746,45.5237575 42.6165905,45.4112326 43.1904672,45.4112326 Z M48.5157058,45.4956262 L48.5157058,49.7743837 L51.165666,49.7743837 L51.165666,51.0656064 L46.7940755,51.0656064 L46.7940755,45.4956262 L48.5157058,45.4956262 Z M54.4485785,45.4956262 L54.6798241,45.5015896 C55.4337871,45.5413453 56.0191953,45.7798794 56.4360487,46.2171918 C56.8945875,46.6982356 57.1238569,47.3860437 57.1238569,48.2806163 C57.1238569,49.1751889 56.8945875,49.862997 56.4360487,50.3440408 C55.9775099,50.8250845 55.3150199,51.0656064 54.4485785,51.0656064 L54.4485785,51.0656064 L51.8914513,51.0656064 L51.8914513,45.4956262 L54.4485785,45.4956262 Z M43.1904672,46.7277734 C42.8472664,46.7277734 42.5912724,46.8557704 42.4224851,47.1117644 C42.2536978,47.3677584 42.1693042,47.7573757 42.1693042,48.2806163 C42.1693042,48.8038569 42.2536978,49.1934742 42.4224851,49.4494682 C42.5912724,49.7054622 42.8472664,49.8334592 43.1904672,49.8334592 C43.533668,49.8334592 43.7882555,49.7068688 43.9542296,49.4536879 C44.1202038,49.200507 44.2031909,48.8094831 44.2031909,48.2806163 C44.2031909,47.7517495 44.1202038,47.3607256 43.9542296,47.1075447 C43.7882555,46.8543638 43.533668,46.7277734 43.1904672,46.7277734 Z M54.2375944,46.7530915 L53.6130815,46.7530915 L53.6130815,49.8081412 L54.2375944,49.8081412 C54.6426839,49.8081412 54.9296223,49.6857704 55.0984095,49.4410288 C55.2671968,49.1962873 55.3515905,48.8094831 55.3515905,48.2806163 C55.3515905,47.7517495 55.2671968,47.3649453 55.0984095,47.1202038 C54.9296223,46.8754622 54.6426839,46.7530915 54.2375944,46.7530915 L54.2375944,46.7530915 Z M55.6297964,41.1370912 C55.8099955,41.0257951 56.0438576,41.0852202 56.1525472,41.2677759 C56.2613606,41.4505835 56.2036077,41.6885354 56.0236565,41.7988243 L56.0236565,41.7988243 L54.0647664,43.0019297 C54.0031715,43.0399517 53.935256,43.0578295 53.8682081,43.0578295 C53.7393174,43.0578295 53.6135251,42.9913541 53.5420156,42.871245 C53.4332021,42.6884374 53.490955,42.4504854 53.6709062,42.3401966 L53.6709062,42.3401966 Z M34.0549706,41.2677759 C34.1636601,41.0852202 34.3975224,41.0257951 34.5777214,41.1370912 L34.5777214,41.1370912 L36.5366116,42.3401966 C36.7165627,42.4504854 36.7743157,42.6884374 36.6655022,42.871245 C36.5939927,42.9913541 36.4682004,43.0578295 36.3393097,43.0578295 C36.2722618,43.0578295 36.2043463,43.0399516 36.1427514,43.0019297 L36.1427514,43.0019297 L34.1838613,41.7988243 C34.0039101,41.6885354 33.9461572,41.4505835 34.0549706,41.2677759 Z M51.2563463,38.2882141 C51.3620614,38.1033922 51.5953039,38.0409455 51.7767423,38.147961 C51.9586764,38.2552282 52.0205192,38.4919212 51.914928,38.6764913 L51.914928,38.6764913 L50.7731302,40.6742808 C50.7024882,40.7979152 50.574713,40.8669086 50.4434676,40.8669086 C50.3785265,40.8669086 50.3128419,40.850038 50.2527342,40.814534 C50.0708001,40.7072668 50.0089573,40.4705738 50.1145485,40.2860036 L50.1145485,40.2860036 Z M38.9933997,38.147961 C39.1750859,38.0406937 39.4083285,38.1033922 39.5137957,38.2882141 L39.5137957,38.2882141 L40.6555935,40.2860036 C40.7611847,40.4705738 40.699342,40.7072668 40.5174078,40.814534 C40.4573002,40.850038 40.3914916,40.8669086 40.3266744,40.8669086 C40.1954291,40.8669086 40.0676538,40.7979152 39.9970118,40.6742808 L39.9970118,40.6742808 L38.855214,38.6764913 C38.7496228,38.4919212 38.8114656,38.2552282 38.9933997,38.147961 Z M45.54321,37 C45.7535248,37 45.9239331,37.1732391 45.9239331,37.3867664 L45.9239331,37.3867664 L45.9239331,39.5779391 C45.9239331,39.7914664 45.7535248,39.9647055 45.54321,39.9647055 C45.3328951,39.9647055 45.1624868,39.7914664 45.1624868,39.5779391 L45.1624868,39.5779391 L45.1624868,37.3867664 C45.1624868,37.1732391 45.3328951,37 45.54321,37 Z" transform="rotate(-40 45.562 44.075)"/>
        <path fill="#BDCBE9" fill-rule="nonzero" d="M57,69 C57.5522847,69 58,69.4477153 58,70 L58,72 C58,72.5522847 57.5522847,73 57,73 L55,73 C54.4477153,73 54,72.5522847 54,72 L54,70 C54,69.4477153 54.4477153,69 55,69 L57,69 Z M65,69 C65.5522847,69 66,69.4477153 66,70 L66,72 C66,72.5522847 65.5522847,73 65,73 L63,73 C62.4477153,73 62,72.5522847 62,72 L62,70 C62,69.4477153 62.4477153,69 63,69 L65,69 Z M73,69 C73.5522847,69 74,69.4477153 74,70 L74,72 C74,72.5522847 73.5522847,73 73,73 L71,73 C70.4477153,73 70,72.5522847 70,72 L70,70 C70,69.4477153 70.4477153,69 71,69 L73,69 Z M81,69 C81.5522847,69 82,69.4477153 82,70 L82,72 C82,72.5522847 81.5522847,73 81,73 L79,73 C78.4477153,73 78,72.5522847 78,72 L78,70 C78,69.4477153 78.4477153,69 79,69 L81,69 Z" transform="rotate(-40 68 71)"/>
        <path fill="#68AEFF" d="M72.8015625,76.29375 C74.325,75.046875 76.63125,75.253125 77.953125,76.7578125 C79.275,78.2578125 79.1109375,80.484375 77.5875,81.73125 C76.0640625,82.978125 73.7578125,82.7671875 72.440625,81.2671875 C71.11875,79.7671875 71.278125,77.540625 72.8015625,76.29375 Z"/>
        <path fill="#94C5FF" d="M75.46875,75.253125 C77.6203125,75.4453125 79.2375,77.2875 79.0828125,79.3640625 C79.0078125,80.4046875 78.5015625,81.3046875 77.746875,81.91875 C76.9921875,82.5375 75.9890625,82.8703125 74.915625,82.771875 C72.7640625,82.5796875 71.146875,80.7375 71.3015625,78.6609375 C71.3765625,77.625 71.8828125,76.7203125 72.6375,76.10625 C73.3921875,75.4875 74.3953125,75.1546875 75.46875,75.253125 Z M77.5875,81.73125 C79.1109375,80.484375 79.275,78.2578125 77.953125,76.7578125 C76.63125,75.2578125 74.325,75.046875 72.8015625,76.29375 C71.278125,77.540625 71.1140625,79.7671875 72.4359375,81.2671875 C73.7578125,82.7671875 76.0640625,82.978125 77.5875,81.73125"/>
        <polygon fill="#84BCFF" fill-rule="nonzero" points="95.92 69.717 95.25 72.033 61.636 99.53 62.306 97.209"/>
        <polygon fill="#84BCFF" fill-rule="nonzero" points="59.409 96.952 58.739 99.267 .502 33.084 1.172 30.769"/>
        <path fill="#84BCFF" fill-rule="nonzero" d="M62.30625,97.209375 L61.6359375,99.525 C60.778125,100.223437 59.484375,100.10625 58.7390625,99.2625 L59.409375,96.946875 C60.1546875,97.7953125 61.4484375,97.9125 62.30625,97.209375"/>
        <path fill="url(#ils_hassle_free-c)" fill-rule="nonzero" d="M30.084375,60.5578125 C28.51875,57.3046875 25.36875,54.253125 21.496875,54.928125 C21.3140625,54.9609375 21.16875,55.096875 21.13125,55.2796875 C20.64375,57.54375 20.6578125,57.7453125 20.41875,59.6296875 C20.1234375,61.9453125 19.809375,65.840625 20.484375,68.0765625 C21.45,71.2734375 25.2421875,74.2828125 28.6546875,72.16875 C28.865625,72.0375 29.0578125,71.8921875 29.240625,71.728125 C31.940625,69.2953125 31.4484375,63.3890625 30.084375,60.5578125 Z"/>
        <path stroke="#A9CCEB" stroke-width=".331" d="M21.2671875,55.0453125 C20.86875,56.934375 21.65625,59.1609375 23.671875,60.4078125"/>
        <path fill="url(#ils_hassle_free-d)" fill-rule="nonzero" d="M34.096875,72.759375 C36.8484375,71.7515625 40.040625,74.2734375 41.2546875,76.3453125 C42.46875,78.4171875 42.609375,81.0796875 41.625,83.2734375 C41.390625,83.7890625 41.0953125,84.2859375 40.7015625,84.69375 C39.4078125,86.0109375 36.965625,85.621875 35.1328125,85.425 C33.6375,85.265625 30.740625,84.69375 30.09375,82.9640625 C29.1609375,80.4703125 31.659375,73.940625 34.059375,72.8015625"/>
        <path stroke="#A9CCEB" stroke-width=".331" d="M33.3984375,73.190625 C32.2359375,74.784375 33.2484375,77.04375 35.0296875,77.4890625 C35.0859375,77.503125 35.1421875,77.5171875 35.203125,77.53125"/>
        <path fill="#D9EDFF" fill-rule="nonzero" d="M75.5015625,35.8875 C74.4609375,35.49375 73.3171875,35.4609375 72.2578125,35.803125 C67.809375,37.228125 55.678125,41.165625 55.0640625,41.878125 C53.7421875,43.425 51.590625,44.240625 53.915625,48.4921875 C55.0359375,50.540625 58.3265625,52.8234375 67.171875,51.7546875 C68.1234375,51.6375 73.59375,49.996875 73.59375,49.996875 C73.59375,49.996875 80.259375,54.3421875 80.1046875,57.4546875 C79.95,60.5671875 78.2859375,66.0796875 77.625,68.953125 C76.303125,74.7046875 80.259375,85.2703125 85.378125,91.3265625 C88.7390625,95.3109375 111.548438,81.9 111.548438,81.9 C111.548438,81.9 104.540625,57.9140625 100.570313,50.615625 C97.2421875,44.5078125 80.7796875,37.884375 75.5015625,35.8875 Z"/>
        <path stroke="#B5D6F3" stroke-width=".331" d="M61.3453125,39.43125 C61.0359375,40.5984375 61.134375,42.4171875 61.6546875,43.8609375 C58.7109375,45.1828125 56.184375,45.4734375 52.9734375,46.115625"/>
      </g>
    </g>
    <g stroke="#94C5FF" stroke-dasharray="2 2" stroke-linecap="round" stroke-linejoin="round" mask="url(#ils_hassle_free-b)">
      <g transform="rotate(10 34.05 501.796)">
        <path d="M5.56996012,117.038853 C3.00810445,113.258973 2.32189311,108.301096 3.21396785,103.777819 C4.22041115,98.694137 7.01100394,94.1193947 10.3848764,90.1908348 C12.8037713,87.3773683 15.6115194,84.7869205 19.0197024,83.3287214 C22.4278854,81.8705223 26.5222797,81.6875326 29.7417546,83.5288663 C32.9612295,85.3702001 34.9398055,89.4817497 33.7274988,92.9928644 C32.5151921,96.5039791 27.7574601,98.4596814 24.7266934,96.3267078 C21.3299472,93.936405 21.8274505,88.7154804 23.411455,84.8669785 C27.9747604,73.7560732 38.7711521,65.4643528 50.6597636,63.9375326 C62.1709588,62.4564598 75.2896724,64.3967425 82.5921048,73.4204216" transform="rotate(-6 42.717 90.264)"/>
        <path d="M9.13128434,55.5477011 C10.4646177,60.8810345 15.1312843,63.8810345 23.1312843,64.5477011 C35.1312843,65.5477011 43.1312843,55.5477011 57.1312843,57.5477011 C71.1312843,59.5477011 74.6471363,64.304021 79.2809601,67.5486593"/>
        <path d="M71.3440742,62.8488625 C62.0107409,54.1821959 56.6774076,46.5155292 55.3440742,39.8488625 C53.3440742,29.8488625 59.3440742,20.8488625 65.3440742,17.8488625 C71.3440742,14.8488625 80.3440742,14.8488625 81.3440742,22.8488625 C82.3440742,30.8488625 73.3440742,34.8488625 67.3440742,30.8488625 C61.3440742,26.8488625 62.3440742,8.84886254 79.3440742,6.84886254 C96.3440742,4.84886254 115.344074,22.8488625 126.344074,25.8488625" transform="rotate(-10 90.648 34.772)"/>
      </g>
    </g>
    <g mask="url(#ils_hassle_free-b)">
      <g transform="rotate(10 69.705 1235.225)">
        <polygon fill="#B3D6FF" points="47.375 51.75 32.313 46.813 32.313 26.188 47.438 31.125 47.438 51.75"/>
        <polygon fill="#B3D6FF" points="48.938 28.375 35.75 24.063 48.938 19.75 62.125 24.063"/>
        <polygon fill="#B3D6FF" points="65.563 46.813 50.5 51.75 50.5 31.125 65.563 26.188"/>
        <path fill="#94C5FF" fill-rule="nonzero" d="M67.625 22.5625L49.4375 16.625C49.125 16.5 48.8125 16.5 48.4375 16.625L30.25 22.5625C29.625 22.75 29.1875 23.375 29.1875 24.0625L29.1875 47.9375C29.1875 48.625 29.625 49.1875 30.25 49.4375L48.4375 55.375C48.625 55.4375 48.75 55.4375 48.9375 55.4375 49.125 55.4375 49.25 55.4375 49.4375 55.375L67.625 49.375C68.25 49.1875 68.6875 48.5625 68.6875 47.875L68.6875 24.0625C68.6875 23.375 68.25 22.8125 67.625 22.5625zM47.375 51.75L32.3125 46.8125 32.3125 26.1875 38.3125 28.125 38.3125 39.8125C38.3125 40.6875 39 41.375 39.875 41.375 40.75 41.375 41.4375 40.6875 41.4375 39.8125L41.4375 29.1875 47.4375 31.125 47.4375 51.75 47.375 51.75zM48.9375 28.375L44.6875 27 47.6875 25.9375C48.5 25.625 48.9375 24.75 48.625 23.9375 48.3125 23.125 47.4375 22.75 46.625 23L39.9375 25.4375 35.75 24.0625 48.9375 19.75 62.125 24.0625 48.9375 28.375zM65.5625 46.8125L59.5625 48.75 59.5625 42C59.5625 41.125 58.875 40.4375 58 40.4375 57.125 40.4375 56.5 41.125 56.5 42L56.5 49.8125 50.5 51.75 50.5 31.125 65.5625 26.1875 65.5625 46.8125zM22.9375 28.75L11.875 28.75C11 28.75 10.3125 29.4375 10.3125 30.3125 10.3125 31.1875 11 31.875 11.875 31.875L22.9375 31.875C23.8125 31.875 24.5 31.1875 24.5 30.3125 24.4375 29.4375 23.75 28.75 22.9375 28.75zM19.9375 37.4375L8.875 37.4375C8 37.4375 7.3125 38.125 7.3125 39 7.3125 39.875 8 40.5625 8.875 40.5625L19.9375 40.5625C20.8125 40.5625 21.5 39.875 21.5 39 21.5 38.125 20.75 37.4375 19.9375 37.4375zM22.9375 46.125L11.875 46.125C11 46.125 10.3125 46.8125 10.3125 47.6875 10.3125 48.5625 11 49.25 11.875 49.25L22.9375 49.25C23.8125 49.25 24.5 48.5625 24.5 47.6875 24.5 46.8125 23.75 46.125 22.9375 46.125z"/>
      </g>
    </g>
    <g mask="url(#ils_hassle_free-b)">
      <g transform="translate(56 124)">
        <path fill="#94C5FF" d="M7.06811739,7 L32.9318826,7 C34.0068282,7 34.8895123,7.84969835 34.9304329,8.92386475 L36,37 L36,37 L4,37 L5.06956706,8.92386475 C5.11048768,7.84969835 5.99317183,7 7.06811739,7 Z"/>
        <polygon fill="#68AEFF" points="5.143 36 34.857 36 36 37 4 37"/>
        <path fill="#3792FC" d="M20.560584,18.1911883 C20.4282174,18.0601507 20.2466618,18 20.0563847,18 C20.0534942,18 20.0500555,18 20.0471649,18 C19.8607253,18 19.6806648,18.0533448 19.5463545,18.179254 L15.2162806,22.2326468 C14.933008,22.4984603 14.9271771,22.9309704 15.2036221,23.2033502 C15.4805654,23.4762572 15.9721061,23.4792768 16.2563256,23.2134153 L19.3526487,20.3419006 L19.3526487,29.3105432 C19.3526487,29.6915777 19.7045416,30 20.1002013,30 C20.4963444,30 20.8477539,29.6915777 20.8477539,29.3105432 L20.8477539,20.2986208 L23.8252958,23.3044802 C23.9654868,23.443239 24.1172898,23.5129755 24.304178,23.5129755 C24.4847867,23.5129755 24.6483113,23.4476964 24.787994,23.3171382 C25.0717152,23.0515116 25.0683263,22.6232239 24.7918813,22.3505566 L20.560584,18.1911883 Z"/>
        <path stroke="#3792FC" d="M15,1 L21,1 C23.209139,1 25,2.790861 25,5 L25,10 C25,12.209139 23.209139,14 21,14 L15,14 L15,14" transform="rotate(-90 20 7.5)"/>
        <circle cx="13" cy="12" r="1" fill="#3792FC" stroke="#3792FC"/>
        <circle cx="27" cy="12" r="1" fill="#3792FC" stroke="#3792FC"/>
      </g>
    </g>
    <g mask="url(#ils_hassle_free-b)">
      <g transform="translate(64 19)">
        <path fill="#94C5FF" d="M7.06811739,7 L32.9318826,7 C34.0068282,7 34.8895123,7.84969835 34.9304329,8.92386475 L36,37 L36,37 L4,37 L5.06956706,8.92386475 C5.11048768,7.84969835 5.99317183,7 7.06811739,7 Z"/>
        <polygon fill="#68AEFF" points="5.143 36 34.857 36 36 37 4 37"/>
        <path fill="#3792FC" d="M20.560584,18.1911883 C20.4282174,18.0601507 20.2466618,18 20.0563847,18 C20.0534942,18 20.0500555,18 20.0471649,18 C19.8607253,18 19.6806648,18.0533448 19.5463545,18.179254 L15.2162806,22.2326468 C14.933008,22.4984603 14.9271771,22.9309704 15.2036221,23.2033502 C15.4805654,23.4762572 15.9721061,23.4792768 16.2563256,23.2134153 L19.3526487,20.3419006 L19.3526487,29.3105432 C19.3526487,29.6915777 19.7045416,30 20.1002013,30 C20.4963444,30 20.8477539,29.6915777 20.8477539,29.3105432 L20.8477539,20.2986208 L23.8252958,23.3044802 C23.9654868,23.443239 24.1172898,23.5129755 24.304178,23.5129755 C24.4847867,23.5129755 24.6483113,23.4476964 24.787994,23.3171382 C25.0717152,23.0515116 25.0683263,22.6232239 24.7918813,22.3505566 L20.560584,18.1911883 Z" transform="matrix(1 0 0 -1 0 48)"/>
        <path stroke="#3792FC" d="M15,1 L21,1 C23.209139,1 25,2.790861 25,5 L25,10 C25,12.209139 23.209139,14 21,14 L15,14 L15,14" transform="rotate(-90 20 7.5)"/>
        <circle cx="13" cy="12" r="1" fill="#3792FC" stroke="#3792FC"/>
        <circle cx="27" cy="12" r="1" fill="#3792FC" stroke="#3792FC"/>
      </g>
    </g>
  </g>
</svg>
