<svg width="320" height="192" viewBox="0 0 320 192" fill="none" xmlns="http://www.w3.org/2000/svg">
<mask id="mask0" mask-type="alpha" maskUnits="userSpaceOnUse" x="0" y="0" width="320" height="192">
<rect width="320" height="192" fill="white"/>
</mask>
<g mask="url(#mask0)">
<path d="M201.031 11.5307C146.784 6.53071 142.624 25.493 144.278 41.5307C145.932 57.5685 190.982 56.7691 207.388 73.1697C223.794 89.5703 250.246 87.7936 275.198 87.7936C300.151 87.7936 323.278 37.5307 302.278 16.5307C281.278 -4.46929 255.278 16.5307 201.031 11.5307Z" fill="#F4F9FE"/>
<path d="M74.246 152.737C162.691 121.226 202 192.125 202 152.737C202 113.348 154.829 93.6542 131.244 70.0213C107.659 46.3883 117.98 7 82.1078 7C46.2354 7 64.3081 29.0796 25.1099 46.3883C-14.0883 63.697 -14.199 184.247 74.246 152.737Z" fill="#F4F9FF"/>
<path fill-rule="evenodd" clip-rule="evenodd" d="M203.5 173.823C122.846 145.105 87 209.721 87 173.823C87 137.925 130.015 119.976 151.523 98.4371C173.031 76.8982 163.618 41 196.331 41C229.043 41 212.562 61.1232 248.308 76.8982C284.053 92.6732 320 51.7695 320 98.4371C320 145.105 284.154 202.542 203.5 173.823Z" fill="#F0F7FF"/>
<path opacity="0.1" d="M81.5067 86.6073C81.6378 85.7521 81.6128 84.9407 82.0872 84.1854C83.0422 82.6873 84.3968 83.0618 85.7076 83.7235C87.0434 84.3976 88.3043 84.7971 89.7524 84.1729C92.0183 83.1929 93.0857 79.7722 90.9197 78.1618C90.2206 77.6375 89.5277 78.4989 89.6214 79.1605C89.7524 80.0781 90.2081 81.0956 89.4216 81.8821C88.3667 82.937 87.1308 82.0506 86.0759 81.5762C84.9398 81.0643 83.7289 80.952 82.5616 81.4264C80.5454 82.2441 79.0785 84.9781 80.6827 86.8258C80.9074 87.0817 81.4505 86.9631 81.5067 86.6073Z" fill="#3792FC"/>
<path opacity="0.2" d="M22.7148 151.405C26.0936 150.485 29.5807 149.356 32.743 147.856C33.9028 147.307 33.1528 145.683 31.9698 146.055C28.6915 147.075 25.4055 148.567 22.3591 150.145C21.7483 150.462 21.9493 151.614 22.7148 151.405Z" fill="#3792FC"/>
<path opacity="0.2" d="M242.348 95.2908C242.543 95.9221 243.143 96.1248 243.689 95.7506C245.832 94.2931 247.968 92.8668 250.002 91.2534C250.392 90.9416 250.306 90.3181 249.924 90.0531C247.547 88.4241 244.343 86.0156 241.327 86C240.563 85.9922 240.025 87.0756 240.805 87.5199C242.021 88.2214 243.478 88.4708 244.78 89.0086C246.276 89.6322 247.765 90.3648 249.09 91.3079C249.121 90.8714 249.153 90.435 249.176 89.9985C246.908 91.3937 244.772 92.9603 242.621 94.5192C243.042 94.6049 243.471 94.6906 243.891 94.7764C242.972 92.1731 242.029 89.5932 241.008 87.0289C240.782 86.4911 239.862 86.7873 240.018 87.3562C240.735 90.0219 241.522 92.6563 242.348 95.2908Z" fill="#3792FC"/>
<path opacity="0.1" d="M20.36 67.372C22.8344 67.5586 25.4349 67.6299 27.9093 67.383C28.82 67.2952 28.7048 66.0553 27.8215 66.0224C25.3856 65.9291 22.8344 66.1376 20.4259 66.4613C19.9485 66.5271 19.8004 67.3281 20.36 67.372Z" fill="#3792FC"/>
<path opacity="0.1" d="M301.618 30.2055C298.934 32.7822 297.919 36.7915 300.474 39.892C302.88 42.8107 307.552 43.4202 310.556 41.1001C317.826 35.4871 310.246 25.1485 302.409 27.2868C300.955 27.6823 301.319 29.7565 302.751 29.8313C305.039 29.9596 307.498 30.0452 309.327 31.6596C311.294 33.3809 311.337 36.2996 309.722 38.2883C305.446 43.5378 298.026 35.8078 302.516 31.1036C303.093 30.5156 302.217 29.6389 301.618 30.2055Z" fill="#3792FC"/>
<path opacity="0.2" d="M186.638 24.7236C185.047 27.0005 183.526 29.3112 182.029 31.652C181.669 32.2106 181.901 32.8043 182.542 32.9828C185.052 33.6923 187.533 34.4159 190.092 34.9405C190.584 35.0392 191.01 34.5698 190.967 34.104C190.685 31.218 190.469 27.1909 188.53 24.8558C188.042 24.262 186.859 24.5481 187.021 25.4363C187.267 26.8273 188.017 28.1121 188.445 29.4632C188.932 31.0201 189.33 32.6415 189.46 34.2728C189.817 34.0145 190.173 33.7563 190.525 33.492C187.982 32.646 185.394 32.0132 182.801 31.3632C183.007 31.7431 183.218 32.129 183.424 32.5089C184.836 30.1162 186.214 27.7205 187.531 25.2749C187.804 24.7588 186.981 24.2415 186.638 24.7236Z" fill="#3792FC"/>
<path opacity="0.2" d="M282.544 169.812C282.125 168.305 281.609 166.745 280.931 165.333C280.681 164.814 279.957 165.154 280.128 165.683C280.593 167.146 281.269 168.614 281.982 169.97C282.123 170.247 282.638 170.156 282.544 169.812Z" fill="#3792FC"/>
<path opacity="0.2" d="M100.886 24.7729C100.479 22.644 99.9467 20.4289 99.1699 18.4007C98.887 17.6575 97.8466 18.0411 98.0192 18.7939C98.4939 20.87 99.261 22.9701 100.091 24.9263C100.258 25.3243 100.982 25.2572 100.886 24.7729Z" fill="#3792FC"/>
<ellipse cx="237.151" cy="115.835" rx="27.0577" ry="41.965" transform="rotate(50 237.151 115.835)" fill="#E1ECF7"/>
<path d="M233.734 140.74C233.734 140.74 228.875 137.058 224.656 135.678C220.437 134.298 213.111 136.309 213.111 136.309L213.819 135.715C213.819 135.715 221.223 134.003 225.011 135.381C228.799 136.758 233.734 140.74 233.734 140.74Z" fill="#CCDAE8"/>
<path d="M218.111 109.169C218.111 109.169 220.894 114.594 221.52 118.988C222.146 123.383 219.191 130.604 219.191 130.604L219.9 130.009C219.9 130.009 222.573 122.661 221.875 118.691C221.176 114.722 218.111 109.169 218.111 109.169Z" fill="#CCDAE8"/>
<path d="M253.771 129.361C253.771 129.361 247.723 124.261 243.504 122.882C239.285 121.502 230.472 121.741 230.472 121.741L231.181 121.147C231.181 121.147 240.071 121.207 243.859 122.584C247.647 123.962 253.771 129.361 253.771 129.361Z" fill="#CCDAE8"/>
<path d="M233.094 91.767C233.094 91.767 237.066 98.6088 237.692 103.003C238.319 107.398 236.552 116.036 236.552 116.036L237.261 115.441C237.261 115.441 238.745 106.676 238.047 102.706C237.348 98.7364 233.094 91.767 233.094 91.767Z" fill="#CCDAE8"/>
<path d="M261.937 110.753C261.937 110.753 256.101 108.613 252.615 108.729C249.129 108.844 242.686 111.389 242.686 111.389L243.05 110.759C243.05 110.759 249.63 108.415 252.797 108.414C255.963 108.413 261.937 110.753 261.937 110.753Z" fill="#CCDAE8"/>
<path d="M251.319 89.5664C251.319 89.5664 252.973 94.076 252.884 96.7696C252.795 99.4632 250.828 104.442 250.828 104.442L251.315 104.161C251.315 104.161 253.127 99.0763 253.127 96.6292C253.128 94.1821 251.319 89.5664 251.319 89.5664Z" fill="#CCDAE8"/>
<path d="M269.294 88.8565L205.613 143.204L204.721 142.142L269.294 88.8565Z" fill="#CCDAE8"/>
<ellipse cx="213.667" cy="93.9675" rx="25.2574" ry="43.6582" transform="rotate(30 213.667 93.9675)" fill="#E9F4FF"/>
<path d="M218.862 119.352C218.862 119.352 212.804 117.481 208.19 117.634C203.576 117.786 197.131 122.357 197.131 122.357L197.612 121.524C197.612 121.524 204.239 117.218 208.431 117.217C212.622 117.216 218.862 119.352 218.862 119.352Z" fill="#C0D2E4"/>
<path d="M192.365 94.0553C192.365 94.0553 197.014 98.3668 199.189 102.439C201.364 106.511 201.044 114.619 201.044 114.619L201.525 113.785C201.525 113.785 201.524 105.653 199.429 102.022C197.335 98.3913 192.365 94.0553 192.365 94.0553Z" fill="#C0D2E4"/>
<path d="M234.397 101.104C234.397 101.104 226.672 98.2713 222.058 98.4237C217.444 98.576 208.916 101.945 208.916 101.945L209.397 101.112C209.397 101.112 218.107 98.0084 222.299 98.0071C226.491 98.0057 234.397 101.104 234.397 101.104Z" fill="#C0D2E4"/>
<path d="M200.817 71.7187C200.817 71.7187 207.133 76.9923 209.308 81.0642C211.483 85.1361 212.829 94.2061 212.829 94.2061L213.31 93.3729C213.31 93.3729 211.643 84.2785 209.548 80.6476C207.453 77.0167 200.817 71.7187 200.817 71.7187Z" fill="#C0D2E4"/>
<path d="M235.758 80.0146C235.758 80.0146 229.293 79.9991 225.927 81.3515C222.562 82.7038 217.171 87.483 217.171 87.483L217.302 86.7386C217.302 86.7386 222.898 82.1067 225.993 80.9793C229.088 79.8518 235.758 80.0146 235.758 80.0146Z" fill="#C0D2E4"/>
<path d="M217.845 63.0855C217.845 63.0855 221.066 66.9045 221.937 69.5685C222.808 72.2325 222.657 77.7975 222.657 77.7975L223.032 77.35C223.032 77.35 222.994 71.7365 222.125 69.3447C221.255 66.9529 217.845 63.0855 217.845 63.0855Z" fill="#C0D2E4"/>
<path d="M235.159 55.998L183.856 146.312L182.607 145.59L235.159 55.998Z" fill="#C0D2E4"/>
<ellipse cx="100.37" cy="87.0782" rx="25.2574" ry="43.6582" transform="rotate(-30 100.37 87.0782)" fill="#E9F4FF"/>
<path d="M124.951 95.2704C124.951 95.2704 120.302 99.5819 118.127 103.654C115.952 107.726 116.688 115.593 116.688 115.593L116.207 114.76C116.207 114.76 115.791 106.868 117.886 103.237C119.981 99.6064 124.951 95.2704 124.951 95.2704Z" fill="#C9DAEC"/>
<path d="M89.7947 105.57C89.7947 105.57 95.853 103.699 100.467 103.852C105.081 104.004 111.942 108.335 111.942 108.335L111.461 107.502C111.461 107.502 104.418 103.437 100.226 103.435C96.0346 103.434 89.7947 105.57 89.7947 105.57Z" fill="#C9DAEC"/>
<path d="M116.915 72.6934C116.915 72.6934 110.6 77.9669 108.425 82.0389C106.249 86.1108 104.903 95.1807 104.903 95.1807L104.422 94.3476C104.422 94.3476 106.089 85.2532 108.184 81.6223C110.279 77.9914 116.915 72.6934 116.915 72.6934Z" fill="#C9DAEC"/>
<path d="M74.6769 87.0816C74.6769 87.0816 82.4015 84.2491 87.0155 84.4014C91.6294 84.5538 100.157 87.9228 100.157 87.9228L99.6763 87.0896C99.6763 87.0896 90.9667 83.9862 86.775 83.9849C82.5832 83.9835 74.6769 87.0816 74.6769 87.0816Z" fill="#C9DAEC"/>
<path d="M99.3314 60.9703C99.3314 60.9703 96.0858 66.561 95.5741 70.1519C95.0625 73.7428 96.5058 80.8012 96.5058 80.8012L95.9268 80.3154C95.9268 80.3154 94.7137 73.1527 95.2846 69.909C95.8555 66.6653 99.3314 60.9703 99.3314 60.9703Z" fill="#C9DAEC"/>
<path d="M75.7144 68.0181C75.7144 68.0181 80.6318 67.1389 83.3745 67.7164C86.1172 68.2939 90.861 71.2074 90.861 71.2074L90.6612 70.6585C90.6612 70.6585 85.7808 67.8847 83.2746 67.4419C80.7684 66.9992 75.7144 68.0181 75.7144 68.0181Z" fill="#C9DAEC"/>
<path d="M78.2335 49.48L130.796 139.067L129.546 139.788L78.2335 49.48Z" fill="#C9DAEC"/>
<ellipse cx="82.9147" cy="122.033" rx="25.2574" ry="43.6582" transform="rotate(-70 82.9147 122.033)" fill="#DCEEFF"/>
<path d="M107.011 112.509C107.011 112.509 106.221 118.8 107.172 123.317C108.123 127.834 113.745 133.388 113.745 133.388L112.841 133.059C112.841 133.059 107.449 127.28 106.72 123.153C105.991 119.025 107.011 112.509 107.011 112.509Z" fill="#BED7EE"/>
<path d="M86.7002 142.996C86.7002 142.996 90.1388 137.669 93.7712 134.82C97.4036 131.971 105.444 130.878 105.444 130.878L104.54 130.549C104.54 130.549 96.5312 131.962 93.3192 134.656C90.1072 137.349 86.7002 142.996 86.7002 142.996Z" fill="#BED7EE"/>
<path d="M86.3429 100.379C86.3429 100.379 84.8948 108.478 85.846 112.995C86.7972 117.513 91.5959 125.326 91.5959 125.326L90.6919 124.997C90.6919 124.997 86.1232 116.959 85.394 112.831C84.6648 108.703 86.3429 100.379 86.3429 100.379Z" fill="#BED7EE"/>
<path d="M63.2352 138.551C63.2352 138.551 67.332 131.416 70.9643 128.567C74.5967 125.718 83.2951 122.817 83.2951 122.817L82.391 122.488C82.391 122.488 73.7243 125.709 70.5123 128.402C67.3004 131.096 63.2352 138.551 63.2352 138.551Z" fill="#BED7EE"/>
<path d="M65.3376 102.701C65.3376 102.701 66.445 109.07 68.3612 112.15C70.2775 115.229 75.9202 119.709 75.9202 119.709H75.1643C75.1643 119.709 69.631 115.001 67.9833 112.15C66.3356 109.298 65.3376 102.701 65.3376 102.701Z" fill="#BED7EE"/>
<path d="M51.7762 123.28C51.7762 123.28 54.978 119.446 57.4502 118.126C59.9225 116.805 65.4292 115.988 65.4292 115.988L64.9234 115.696C64.9234 115.696 59.4018 116.708 57.1973 117.98C54.9928 119.251 51.7762 123.28 51.7762 123.28Z" fill="#BED7EE"/>
<path d="M41.7899 107.46L139.64 142.301L139.147 143.657L41.7899 107.46Z" fill="#BED7EE"/>
<path d="M119 122L119.963 123.15L119.775 123.308L119.545 123.397L119 122ZM156 91L155.037 89.8502L155.271 89.654L155.563 89.565L156 91ZM202 77L203.186 77.9178L202.894 78.2958L202.437 78.435L202 77ZM243 24L240.672 41.1633L226.972 30.5654L243 24ZM77.4547 136.603L118.455 120.603L119.545 123.397L78.5453 139.397L77.4547 136.603ZM118.037 120.85L155.037 89.8502L156.963 92.1498L119.963 123.15L118.037 120.85ZM155.563 89.565L201.563 75.565L202.437 78.435L156.437 92.435L155.563 89.565ZM200.814 76.0822L233.553 33.7601L235.926 35.5957L203.186 77.9178L200.814 76.0822Z" fill="url(#paint0_linear)"/>
<path opacity="0.1" d="M147.677 153.018C150.208 154.208 148.744 155.503 143.733 156.508C138.722 157.512 130.763 158.106 122.298 158.106H105.479V158.287C105.477 158.36 105.275 158.43 104.919 158.48L99.0469 159.314C98.7067 159.362 98.2531 159.389 97.7806 159.389H90.376C89.3625 159.389 88.5409 159.268 88.5409 159.119V158.773H84.2101C83.2372 158.773 82.4484 158.657 82.4484 158.514V156.893C81.6499 156.63 81.2372 156.345 81.2373 156.056C81.2373 155.661 79.06 155.34 76.3743 155.34H74.8878C73.8748 155.34 72.9039 155.28 72.1919 155.174C71.4799 155.068 71.0861 154.925 71.0984 154.776V153.243C71.1034 152.96 72.6574 152.731 74.5759 152.731C76.2431 152.731 77.798 152.607 78.7048 152.401L83.0173 151.426C86.0134 150.747 91.0394 150.321 96.5328 150.279V149.857C96.523 149.729 96.8609 149.606 97.4711 149.515C98.0813 149.424 98.9131 149.373 99.7809 149.373H105.873C107.66 149.374 109.107 149.587 109.112 149.85V150.269H116.453V149.85C116.458 149.587 117.905 149.374 119.692 149.373H125.784C127.571 149.374 129.018 149.587 129.023 149.85V150.39C136.854 150.696 143.317 151.509 146.594 152.6C147.559 152.275 149.61 152.048 151.999 152.003C152.643 151.997 153.082 152.054 153.118 152.128C153.153 152.203 152.771 152.268 152.265 152.273C148.356 152.354 147.769 152.905 147.677 153.018Z" fill="url(#paint1_linear)"/>
<path d="M152.265 129.394C148.356 128.825 147.769 125.082 147.677 124.311C150.208 116.232 148.744 107.431 143.733 100.607C138.722 93.7831 130.763 89.7508 122.298 89.7468H105.479V88.5173C105.477 88.0223 105.275 87.5492 104.919 87.2052L99.0469 81.5439C98.7067 81.216 98.2531 81.032 97.7806 81.0301H90.376C89.3625 81.0301 88.5409 81.8517 88.5409 82.8652V85.2141H84.2101C83.2372 85.2141 82.4484 86.0028 82.4484 86.9758V97.9864C81.6499 99.7766 81.2372 101.715 81.2373 103.675C81.2373 106.361 79.06 108.538 76.3743 108.538H74.8878C73.8748 108.538 72.9039 108.944 72.1919 109.664C71.4799 110.385 71.0861 111.361 71.0984 112.374V122.788C71.1034 124.706 72.6574 126.26 74.5759 126.265C76.2431 126.262 77.798 127.105 78.7048 128.504L83.0173 135.129C86.0134 139.742 91.0394 142.639 96.5328 142.919V145.791C96.523 146.658 96.8609 147.494 97.4711 148.111C98.0813 148.728 98.9131 149.075 99.7809 149.075H105.873C107.66 149.07 109.107 147.623 109.112 145.836V142.992H116.453V145.836C116.458 147.623 117.905 149.07 119.692 149.075H125.784C127.571 149.07 129.018 147.623 129.023 145.836V142.166C136.854 140.087 143.317 134.565 146.594 127.155C147.559 129.362 149.61 130.901 151.999 131.211H152.136C152.643 131.246 153.082 130.864 153.118 130.357C153.153 129.851 152.771 129.411 152.265 129.376V129.394Z" fill="#96C7FF"/>
<path fill-rule="evenodd" clip-rule="evenodd" d="M107.231 145.772C107.249 146.149 107.114 146.517 106.856 146.794C106.599 147.07 106.242 147.231 105.864 147.24H99.7809C99.0056 147.24 98.3771 146.612 98.3771 145.836V142.992H107.277L107.231 145.772Z" fill="#83B5EF"/>
<path fill-rule="evenodd" clip-rule="evenodd" d="M127.151 145.772C127.169 146.149 127.034 146.517 126.776 146.794C126.519 147.07 126.162 147.231 125.784 147.24H119.692C118.916 147.24 118.288 146.612 118.288 145.836V142.992H122.298C123.938 142.99 125.576 142.837 127.188 142.533L127.151 145.772Z" fill="#83B5EF"/>
<path fill-rule="evenodd" clip-rule="evenodd" d="M122.353 140.602H97.5425C92.3374 140.618 87.4795 137.993 84.6418 133.629L80.3293 127.004C79.0852 125.086 76.9541 123.929 74.668 123.931C73.7631 123.925 73.0306 123.193 73.0256 122.288V111.883C73.0307 110.811 73.8986 109.943 74.9708 109.938H76.4756C80.1728 109.933 83.1687 106.937 83.1737 103.24C83.1867 99.1617 85.2572 95.3656 88.679 93.1468V97.551C88.679 102.223 92.4666 106.011 97.1388 106.011C101.811 106.011 105.599 102.223 105.599 97.551V91.1282H122.39C131.241 91.1282 139.419 95.85 143.844 103.515C148.27 111.18 148.27 120.624 143.844 128.289C139.419 135.954 131.241 140.676 122.39 140.676L122.353 140.602Z" fill="#96C7FF"/>
<path fill-rule="evenodd" clip-rule="evenodd" d="M97.7715 82.8652L103.644 88.5173V97.968C103.644 100.335 102.381 102.522 100.331 103.705C98.2818 104.889 95.7564 104.889 93.7068 103.705C91.6571 102.522 90.3944 100.335 90.3944 97.968V82.8743L97.7715 82.8652Z" fill="#83B5EF"/>
<path fill-rule="evenodd" clip-rule="evenodd" d="M84.2927 87.0492H88.5593V91.4351C86.9133 92.3244 85.4624 93.535 84.2927 94.9952V87.0492Z" fill="#83B5EF"/>
<path d="M128.255 96.9122C128.255 95.7935 127.348 94.8866 126.229 94.8866H110.024C108.905 94.8866 107.998 95.7935 107.998 96.9122C107.998 98.031 108.905 98.9379 110.024 98.9379H126.229C127.348 98.9379 128.255 98.031 128.255 96.9122Z" fill="#71A9EA"/>
<g clip-path="url(#clip0)">
<rect opacity="0.04" x="89.2308" y="115.436" width="46.5897" height="12.1538" rx="4" fill="#3A4360"/>
<rect x="89.2308" y="113.41" width="46.5897" height="12.1538" rx="4" fill="#3792FC"/>
<path d="M101.475 121.47C101.099 121.47 100.773 121.388 100.497 121.224C100.225 121.056 100.013 120.82 99.8608 120.516C99.7128 120.212 99.6388 119.85 99.6388 119.43C99.6388 119.01 99.7168 118.648 99.8728 118.344C100.033 118.04 100.255 117.806 100.539 117.642C100.823 117.474 101.149 117.39 101.517 117.39C101.909 117.39 102.227 117.464 102.471 117.612C102.719 117.76 102.919 117.988 103.071 118.296L102.633 118.536C102.545 118.308 102.405 118.136 102.213 118.02C102.025 117.9 101.793 117.84 101.517 117.84C101.249 117.84 101.011 117.904 100.803 118.032C100.599 118.156 100.437 118.338 100.317 118.578C100.201 118.814 100.143 119.098 100.143 119.43C100.143 119.762 100.193 120.048 100.293 120.288C100.397 120.524 100.549 120.706 100.749 120.834C100.953 120.958 101.201 121.02 101.493 121.02C101.657 121.02 101.809 121 101.949 120.96C102.093 120.916 102.217 120.852 102.321 120.768C102.429 120.684 102.513 120.578 102.573 120.45C102.633 120.322 102.663 120.172 102.663 120V119.862H101.403V119.412H103.101V121.41H102.723L102.699 120.672L102.801 120.69C102.697 120.938 102.533 121.13 102.309 121.266C102.085 121.402 101.807 121.47 101.475 121.47ZM105.721 117.45C106.125 117.45 106.449 117.554 106.693 117.762C106.937 117.97 107.059 118.252 107.059 118.608C107.059 118.964 106.935 119.242 106.687 119.442C106.443 119.638 106.119 119.736 105.715 119.736L105.673 119.766H104.701V121.41H104.221V117.45H105.721ZM105.715 119.316C105.999 119.316 106.209 119.258 106.345 119.142C106.485 119.022 106.555 118.844 106.555 118.608C106.555 118.372 106.485 118.196 106.345 118.08C106.209 117.96 105.999 117.9 105.715 117.9H104.701V119.316H105.715ZM105.991 119.412L107.299 121.41H106.729L105.589 119.676L105.991 119.412ZM109.772 117.39C110.148 117.39 110.472 117.474 110.744 117.642C111.02 117.806 111.232 118.04 111.38 118.344C111.532 118.648 111.608 119.01 111.608 119.43C111.608 119.85 111.532 120.212 111.38 120.516C111.232 120.82 111.02 121.056 110.744 121.224C110.472 121.388 110.148 121.47 109.772 121.47C109.396 121.47 109.07 121.388 108.794 121.224C108.522 121.056 108.31 120.82 108.158 120.516C108.01 120.212 107.936 119.85 107.936 119.43C107.936 119.01 108.01 118.648 108.158 118.344C108.31 118.04 108.522 117.806 108.794 117.642C109.07 117.474 109.396 117.39 109.772 117.39ZM109.772 117.84C109.5 117.84 109.264 117.904 109.064 118.032C108.864 118.156 108.71 118.338 108.602 118.578C108.494 118.814 108.44 119.098 108.44 119.43C108.44 119.762 108.494 120.048 108.602 120.288C108.71 120.524 108.864 120.706 109.064 120.834C109.264 120.958 109.5 121.02 109.772 121.02C110.048 121.02 110.284 120.958 110.48 120.834C110.68 120.706 110.834 120.524 110.942 120.288C111.05 120.048 111.104 119.762 111.104 119.43C111.104 119.098 111.05 118.814 110.942 118.578C110.834 118.338 110.68 118.156 110.48 118.032C110.284 117.904 110.048 117.84 109.772 117.84ZM113.355 121.41L112.185 117.45H112.683L113.661 120.972L114.591 117.45H115.137L116.067 120.984L117.045 117.45H117.519L116.355 121.41H115.761L115.059 118.842L114.855 117.948H114.849L114.645 118.842L113.949 121.41H113.355ZM121.167 117.45V117.9H119.787V121.41H119.307V117.9H117.927V117.45H121.167ZM125.112 117.45V121.41H124.632V117.45H125.112ZM122.484 117.45V121.41H122.004V117.45H122.484ZM124.854 119.178V119.628H122.256V119.178H124.854Z" fill="#0A1D32"/>
<circle cx="95.3077" cy="119.487" r="2.02564" fill="#2A7FE2"/>
<circle cx="129.744" cy="119.487" r="2.02564" fill="#2A7FE2"/>
</g>
<path d="M216.087 145.009C216.087 147.917 219.716 150.415 224.922 151.533V138.484C219.716 139.602 216.087 142.1 216.087 145.009Z" fill="#95C1F5"/>
<path d="M228.887 137.943V152.075C229.525 152.118 230.171 152.149 230.826 152.153V137.869C230.171 137.869 229.525 137.899 228.887 137.943Z" fill="#95C1F5"/>
<rect x="216.087" y="142.092" width="29.8624" height="3.50243" fill="#95C1F5"/>
<path d="M245.949 145.009C245.949 142.646 243.552 140.55 239.862 139.253V150.769C243.552 149.463 245.949 147.371 245.949 145.009Z" fill="#95C1F5"/>
<path d="M224.922 138.484V151.533C226.162 151.8 227.498 151.979 228.887 152.075V137.943C227.498 138.039 226.162 138.218 224.922 138.484Z" fill="#A4CEFF"/>
<path d="M231.018 137.86C230.957 137.86 230.896 137.864 230.83 137.864V152.149C230.892 152.149 230.953 152.153 231.018 152.153C234.328 152.153 237.385 151.638 239.862 150.765V139.248C237.385 138.379 234.328 137.86 231.018 137.86Z" fill="#A4CEFF"/>
<ellipse cx="231.018" cy="142.882" rx="14.9312" ry="7.14898" fill="#94C5FF"/>
<ellipse cx="231.018" cy="142.349" rx="14.9312" ry="7.14898" fill="#B3D6FF"/>
<ellipse cx="231.018" cy="142.349" rx="11.8742" ry="5.50258" fill="#98C7FF"/>
<path d="M227.603 142.847L225.743 141.86L227.197 141.105L229.057 142.091C229.935 142.554 231.376 142.554 232.272 142.091C233.167 141.624 233.184 140.869 232.306 140.406L230.363 139.375L231.817 138.62L233.761 139.65C235.42 140.532 235.39 141.965 233.695 142.847C231.996 143.729 229.263 143.729 227.603 142.847Z" fill="#FFA340"/>
<path d="M234.63 144.105L228.009 140.594L229.463 139.838L236.084 143.349L234.63 144.105Z" fill="#FFA340"/>
<path d="M236.979 142.882L230.363 139.371L231.813 138.615L238.434 142.126L236.979 142.882Z" fill="#FFA340"/>
<path d="M227.131 146.083L227.778 141.943L225.751 141.869L225.249 145.083L227.131 146.083Z" fill="#FFA340"/>
<path d="M216.087 140.392C216.087 143.301 219.716 145.799 224.922 146.917V133.868C219.716 134.986 216.087 137.484 216.087 140.392Z" fill="#95C1F5"/>
<path d="M228.887 133.326V147.458C229.525 147.502 230.171 147.532 230.826 147.537V133.247C230.171 133.252 229.525 133.282 228.887 133.326Z" fill="#95C1F5"/>
<rect x="216.087" y="137.475" width="29.8624" height="3.50243" fill="#95C1F5"/>
<path d="M245.949 140.392C245.949 138.029 243.552 135.933 239.862 134.636V146.152C243.552 144.847 245.949 142.755 245.949 140.392Z" fill="#95C1F5"/>
<path d="M224.922 133.868V146.917C226.162 147.183 227.498 147.362 228.887 147.458V133.326C227.498 133.422 226.162 133.601 224.922 133.868Z" fill="#A4CEFF"/>
<path d="M231.018 133.243C230.957 133.243 230.896 133.247 230.83 133.247V147.532C230.892 147.532 230.953 147.537 231.018 147.537C234.328 147.537 237.385 147.021 239.862 146.148V134.632C237.385 133.763 234.328 133.243 231.018 133.243Z" fill="#A4CEFF"/>
<ellipse cx="231.018" cy="138.265" rx="14.9312" ry="7.14898" fill="#94C5FF"/>
<ellipse cx="231.018" cy="137.732" rx="14.9312" ry="7.14898" fill="#B3D6FF"/>
<ellipse cx="231.018" cy="137.732" rx="11.8742" ry="5.50258" fill="#DCEEFF"/>
<path fill-rule="evenodd" clip-rule="evenodd" d="M227.603 138.23L225.743 137.243L227.197 136.488L229.057 137.475C229.935 137.938 231.376 137.938 232.272 137.475C233.167 137.008 233.184 136.252 232.306 135.789L230.363 134.759L231.817 134.003L233.761 135.034C235.42 135.916 235.39 137.348 233.695 138.23C231.996 139.113 229.263 139.113 227.603 138.23Z" fill="#94C5FF"/>
<path fill-rule="evenodd" clip-rule="evenodd" d="M234.63 139.488L228.009 135.977L229.463 135.221L236.084 138.733L234.63 139.488Z" fill="#94C5FF"/>
<path fill-rule="evenodd" clip-rule="evenodd" d="M236.979 138.265L230.363 134.754L231.813 133.999L238.434 137.51L236.979 138.265Z" fill="#94C5FF"/>
<path fill-rule="evenodd" clip-rule="evenodd" d="M227.131 141.466L227.778 137.326L225.751 137.252L225.249 140.466L227.131 141.466Z" fill="#94C5FF"/>
<path d="M169.393 142.478C169.393 145.386 173.022 147.884 178.227 149.002V135.953C173.022 137.071 169.393 139.569 169.393 142.478Z" fill="#95C1F5"/>
<path d="M182.193 135.412V149.544C182.83 149.587 183.477 149.618 184.132 149.622V135.337C183.477 135.342 182.83 135.368 182.193 135.412Z" fill="#95C1F5"/>
<rect x="169.393" y="139.56" width="29.8624" height="3.50243" fill="#95C1F5"/>
<path d="M199.255 142.478C199.255 140.115 196.857 138.019 193.167 136.722V148.238C196.857 146.937 199.255 144.84 199.255 142.478Z" fill="#95C1F5"/>
<path d="M178.227 135.953V149.002C179.467 149.269 180.804 149.448 182.193 149.544V135.412C180.804 135.508 179.467 135.687 178.227 135.953Z" fill="#A4CEFF"/>
<path d="M184.324 135.329C184.263 135.329 184.201 135.333 184.136 135.333V149.618C184.197 149.618 184.258 149.622 184.324 149.622C187.634 149.622 190.691 149.107 193.167 148.234V136.717C190.691 135.848 187.634 135.329 184.324 135.329Z" fill="#A4CEFF"/>
<ellipse cx="184.324" cy="140.351" rx="14.9312" ry="7.14898" fill="#94C5FF"/>
<ellipse cx="184.324" cy="139.818" rx="14.9312" ry="7.14898" fill="#B3D6FF"/>
<ellipse cx="184.324" cy="139.818" rx="11.8742" ry="5.50258" fill="#98C7FF"/>
<path d="M180.909 140.316L179.048 139.329L180.502 138.574L182.363 139.56C183.241 140.023 184.682 140.023 185.577 139.56C186.472 139.093 186.49 138.338 185.612 137.875L183.669 136.844L185.123 136.089L187.066 137.119C188.726 138.001 188.695 139.434 187.001 140.316C185.302 141.198 182.568 141.198 180.909 140.316Z" fill="#FFA340"/>
<path d="M187.935 141.574L181.315 138.063L182.769 137.307L189.39 140.818L187.935 141.574Z" fill="#FFA340"/>
<path d="M190.285 140.351L183.669 136.84L185.119 136.084L191.739 139.595L190.285 140.351Z" fill="#FFA340"/>
<path d="M180.437 143.552L181.083 139.412L179.057 139.338L178.555 142.552L180.437 143.552Z" fill="#FFA340"/>
<path d="M169.393 137.922C169.393 140.831 173.022 143.329 178.227 144.447V131.398C173.022 132.516 169.393 135.014 169.393 137.922Z" fill="#95C1F5"/>
<path d="M182.193 130.856V144.988C182.83 145.032 183.477 145.062 184.132 145.067V130.782C183.477 130.786 182.83 130.812 182.193 130.856Z" fill="#95C1F5"/>
<rect x="169.393" y="135.005" width="29.8624" height="3.50243" fill="#95C1F5"/>
<path d="M199.255 137.922C199.255 135.56 196.857 133.463 193.167 132.166V143.682C196.857 142.381 199.255 140.285 199.255 137.922Z" fill="#95C1F5"/>
<path d="M178.227 131.398V144.447C179.467 144.713 180.804 144.892 182.193 144.988V130.856C180.804 130.952 179.467 131.131 178.227 131.398Z" fill="#A4CEFF"/>
<path d="M184.324 130.773C184.263 130.773 184.201 130.778 184.136 130.778V145.062C184.197 145.062 184.258 145.067 184.324 145.067C187.634 145.067 190.691 144.551 193.167 143.678V132.162C190.691 131.293 187.634 130.773 184.324 130.773Z" fill="#A4CEFF"/>
<ellipse cx="184.324" cy="135.795" rx="14.9312" ry="7.14898" fill="#94C5FF"/>
<ellipse cx="184.324" cy="135.263" rx="14.9312" ry="7.14898" fill="#B3D6FF"/>
<ellipse cx="184.324" cy="135.263" rx="11.8742" ry="5.50258" fill="#98C7FF"/>
<path d="M180.909 135.76L179.048 134.773L180.502 134.018L182.363 135.005C183.241 135.468 184.682 135.468 185.577 135.005C186.472 134.538 186.49 133.782 185.612 133.319L183.669 132.289L185.123 131.533L187.066 132.564C188.726 133.446 188.695 134.878 187.001 135.76C185.302 136.643 182.568 136.643 180.909 135.76Z" fill="#FFA340"/>
<path d="M187.935 137.018L181.315 133.507L182.769 132.751L189.39 136.263L187.935 137.018Z" fill="#FFA340"/>
<path d="M190.285 135.795L183.669 132.284L185.119 131.529L191.739 135.04L190.285 135.795Z" fill="#FFA340"/>
<path d="M180.437 138.996L181.083 134.856L179.057 134.782L178.555 137.996L180.437 138.996Z" fill="#FFA340"/>
<path d="M169.393 133.367C169.393 136.275 173.022 138.773 178.227 139.891V126.842C173.022 127.96 169.393 130.458 169.393 133.367Z" fill="#95C1F5"/>
<path d="M182.193 126.301V140.433C182.83 140.476 183.477 140.507 184.132 140.511V126.226C183.477 126.231 182.83 126.257 182.193 126.301Z" fill="#95C1F5"/>
<rect x="169.393" y="130.449" width="29.8624" height="3.50243" fill="#95C1F5"/>
<path d="M199.255 133.367C199.255 131.004 196.857 128.908 193.167 127.611V139.127C196.857 137.825 199.255 135.729 199.255 133.367Z" fill="#95C1F5"/>
<path d="M178.227 126.842V139.891C179.467 140.157 180.804 140.336 182.193 140.433V126.301C180.804 126.397 179.467 126.576 178.227 126.842Z" fill="#A4CEFF"/>
<path d="M184.324 126.218C184.263 126.218 184.201 126.222 184.136 126.222V140.507C184.197 140.507 184.258 140.511 184.324 140.511C187.634 140.511 190.691 139.996 193.167 139.122V127.606C190.691 126.737 187.634 126.218 184.324 126.218Z" fill="#A4CEFF"/>
<ellipse cx="184.324" cy="131.24" rx="14.9312" ry="7.14898" fill="#94C5FF"/>
<ellipse cx="184.324" cy="130.707" rx="14.9312" ry="7.14898" fill="#B3D6FF"/>
<ellipse cx="184.324" cy="130.707" rx="11.8742" ry="5.50258" fill="#98C7FF"/>
<path d="M180.909 131.205L179.048 130.218L180.502 129.462L182.363 130.449C183.241 130.912 184.682 130.912 185.577 130.449C186.472 129.982 186.49 129.227 185.612 128.764L183.669 127.733L185.123 126.977L187.066 128.008C188.726 128.89 188.695 130.323 187.001 131.205C185.302 132.087 182.568 132.087 180.909 131.205Z" fill="#FFA340"/>
<path d="M187.935 132.463L181.315 128.951L182.769 128.196L189.39 131.707L187.935 132.463Z" fill="#FFA340"/>
<path d="M190.285 131.24L183.669 127.729L185.119 126.973L191.739 130.484L190.285 131.24Z" fill="#FFA340"/>
<path d="M180.437 134.441L181.083 130.301L179.057 130.227L178.555 133.441L180.437 134.441Z" fill="#FFA340"/>
<path d="M169.393 128.811C169.393 131.719 173.022 134.217 178.227 135.335V122.286C173.022 123.404 169.393 125.902 169.393 128.811Z" fill="#95C1F5"/>
<path d="M182.193 121.745V135.877C182.83 135.921 183.477 135.951 184.132 135.956V121.671C183.477 121.675 182.83 121.701 182.193 121.745Z" fill="#95C1F5"/>
<rect x="169.393" y="125.894" width="29.8624" height="3.50243" fill="#95C1F5"/>
<path d="M199.255 128.811C199.255 126.448 196.857 124.352 193.167 123.055V134.571C196.857 133.27 199.255 131.174 199.255 128.811Z" fill="#95C1F5"/>
<path d="M178.227 122.287V135.335C179.467 135.602 180.804 135.781 182.193 135.877V121.745C180.804 121.841 179.467 122.02 178.227 122.287Z" fill="#A4CEFF"/>
<path d="M184.324 121.662C184.263 121.662 184.201 121.666 184.136 121.666V135.951C184.197 135.951 184.258 135.956 184.324 135.956C187.634 135.956 190.691 135.44 193.167 134.567V123.051C190.691 122.182 187.634 121.662 184.324 121.662Z" fill="#A4CEFF"/>
<ellipse cx="184.324" cy="126.684" rx="14.9312" ry="7.14898" fill="#94C5FF"/>
<ellipse cx="184.324" cy="126.151" rx="14.9312" ry="7.14898" fill="#B3D6FF"/>
<ellipse cx="184.324" cy="126.151" rx="11.8742" ry="5.50258" fill="#98C7FF"/>
<path d="M180.909 126.649L179.048 125.662L180.502 124.907L182.363 125.894C183.241 126.357 184.682 126.357 185.577 125.894C186.472 125.427 186.49 124.671 185.612 124.208L183.669 123.177L185.123 122.422L187.066 123.453C188.726 124.335 188.695 125.767 187.001 126.649C185.302 127.531 182.568 127.531 180.909 126.649Z" fill="#FFA340"/>
<path d="M187.935 127.907L181.315 124.396L182.769 123.64L189.39 127.151L187.935 127.907Z" fill="#FFA340"/>
<path d="M190.285 126.684L183.669 123.173L185.119 122.418L191.739 125.929L190.285 126.684Z" fill="#FFA340"/>
<path d="M180.437 129.885L181.083 125.745L179.057 125.671L178.555 128.885L180.437 129.885Z" fill="#FFA340"/>
<path d="M169.393 124.255C169.393 127.164 173.022 129.662 178.227 130.78V117.731C173.022 118.849 169.393 121.347 169.393 124.255Z" fill="#95C1F5"/>
<path d="M182.193 117.189V131.321C182.83 131.365 183.477 131.396 184.132 131.4V117.115C183.477 117.12 182.83 117.146 182.193 117.189Z" fill="#95C1F5"/>
<rect x="169.393" y="121.338" width="29.8624" height="3.50243" fill="#95C1F5"/>
<path d="M199.255 124.255C199.255 121.893 196.857 119.797 193.167 118.5V130.016C196.857 128.714 199.255 126.618 199.255 124.255Z" fill="#95C1F5"/>
<path d="M178.227 117.731V130.78C179.467 131.046 180.804 131.225 182.193 131.321V117.189C180.804 117.286 179.467 117.465 178.227 117.731Z" fill="#A4CEFF"/>
<path d="M184.324 117.107C184.263 117.107 184.201 117.111 184.136 117.111V131.396C184.197 131.396 184.258 131.4 184.324 131.4C187.634 131.4 190.691 130.885 193.167 130.011V118.495C190.691 117.626 187.634 117.107 184.324 117.107Z" fill="#A4CEFF"/>
<ellipse cx="184.324" cy="122.129" rx="14.9312" ry="7.14898" fill="#94C5FF"/>
<ellipse cx="184.324" cy="121.596" rx="14.9312" ry="7.14898" fill="#B3D6FF"/>
<ellipse cx="184.324" cy="121.596" rx="11.8742" ry="5.50258" fill="#98C7FF"/>
<path d="M180.909 122.094L179.048 121.107L180.502 120.351L182.363 121.338C183.241 121.801 184.682 121.801 185.577 121.338C186.472 120.871 186.49 120.115 185.612 119.653L183.669 118.622L185.123 117.866L187.066 118.897C188.726 119.779 188.695 121.212 187.001 122.094C185.302 122.976 182.568 122.976 180.909 122.094Z" fill="#FFA340"/>
<path d="M187.935 123.351L181.315 119.84L182.769 119.085L189.39 122.596L187.935 123.351Z" fill="#FFA340"/>
<path d="M190.285 122.129L183.669 118.618L185.119 117.862L191.739 121.373L190.285 122.129Z" fill="#FFA340"/>
<path d="M180.437 125.33L181.083 121.19L179.057 121.115L178.555 124.33L180.437 125.33Z" fill="#FFA340"/>
<path d="M169.393 119.7C169.393 122.608 173.022 125.106 178.227 126.224V113.175C173.022 114.293 169.393 116.791 169.393 119.7Z" fill="#95C1F5"/>
<path d="M182.193 112.634V126.766C182.83 126.81 183.477 126.84 184.132 126.845V112.56C183.477 112.564 182.83 112.59 182.193 112.634Z" fill="#95C1F5"/>
<rect x="169.393" y="116.783" width="29.8624" height="3.50243" fill="#95C1F5"/>
<path d="M199.255 119.7C199.255 117.337 196.857 115.241 193.167 113.944V125.46C196.857 124.159 199.255 122.063 199.255 119.7Z" fill="#95C1F5"/>
<path d="M178.227 113.175V126.224C179.467 126.491 180.804 126.67 182.193 126.766V112.634C180.804 112.73 179.467 112.909 178.227 113.175Z" fill="#A4CEFF"/>
<path d="M184.324 112.551C184.263 112.551 184.201 112.555 184.136 112.555V126.84C184.197 126.84 184.258 126.845 184.324 126.845C187.634 126.845 190.691 126.329 193.167 125.456V113.94C190.691 113.071 187.634 112.551 184.324 112.551Z" fill="#A4CEFF"/>
<ellipse cx="184.324" cy="117.573" rx="14.9312" ry="7.14898" fill="#94C5FF"/>
<ellipse cx="184.324" cy="117.04" rx="14.9312" ry="7.14898" fill="#B3D6FF"/>
<ellipse cx="184.324" cy="117.04" rx="11.8742" ry="5.50258" fill="#98C7FF"/>
<path d="M180.909 117.538L179.048 116.551L180.502 115.796L182.363 116.783C183.241 117.246 184.682 117.246 185.577 116.783C186.472 116.315 186.49 115.56 185.612 115.097L183.669 114.066L185.123 113.311L187.066 114.341C188.726 115.224 188.695 116.656 187.001 117.538C185.302 118.42 182.568 118.42 180.909 117.538Z" fill="#FFA340"/>
<path d="M187.935 118.796L181.315 115.285L182.769 114.529L189.39 118.04L187.935 118.796Z" fill="#FFA340"/>
<path d="M190.285 117.573L183.669 114.062L185.119 113.306L191.739 116.818L190.285 117.573Z" fill="#FFA340"/>
<path d="M180.437 120.774L181.083 116.634L179.057 116.56L178.555 119.774L180.437 120.774Z" fill="#FFA340"/>
<path d="M169.393 115.144C169.393 118.053 173.022 120.551 178.227 121.669V108.62C173.022 109.738 169.393 112.236 169.393 115.144Z" fill="#95C1F5"/>
<path d="M182.193 108.078V122.21C182.83 122.254 183.477 122.285 184.132 122.289V108.004C183.477 108.009 182.83 108.035 182.193 108.078Z" fill="#95C1F5"/>
<rect x="169.393" y="112.227" width="29.8624" height="3.50243" fill="#95C1F5"/>
<path d="M199.255 115.144C199.255 112.782 196.857 110.686 193.167 109.388V120.905C196.857 119.603 199.255 117.507 199.255 115.144Z" fill="#95C1F5"/>
<path d="M178.227 108.62V121.669C179.467 121.935 180.804 122.114 182.193 122.21V108.078C180.804 108.174 179.467 108.353 178.227 108.62Z" fill="#A4CEFF"/>
<path d="M184.324 107.995C184.263 107.995 184.201 108 184.136 108V122.285C184.197 122.285 184.258 122.289 184.324 122.289C187.634 122.289 190.691 121.774 193.167 120.9V109.384C190.691 108.515 187.634 107.995 184.324 107.995Z" fill="#A4CEFF"/>
<ellipse cx="184.324" cy="113.018" rx="14.9312" ry="7.14898" fill="#94C5FF"/>
<ellipse cx="184.324" cy="112.485" rx="14.9312" ry="7.14898" fill="#B3D6FF"/>
<ellipse cx="184.324" cy="112.485" rx="11.8742" ry="5.50258" fill="#98C7FF"/>
<path d="M180.909 112.983L179.048 111.996L180.502 111.24L182.363 112.227C183.241 112.69 184.682 112.69 185.577 112.227C186.472 111.76 186.49 111.004 185.612 110.541L183.669 109.511L185.123 108.755L187.066 109.786C188.726 110.668 188.695 112.101 187.001 112.983C185.302 113.865 182.568 113.865 180.909 112.983Z" fill="#FFA340"/>
<path d="M187.935 114.24L181.315 110.729L182.769 109.974L189.39 113.485L187.935 114.24Z" fill="#FFA340"/>
<path d="M190.285 113.018L183.669 109.506L185.119 108.751L191.739 112.262L190.285 113.018Z" fill="#FFA340"/>
<path d="M180.437 116.219L181.083 112.079L179.057 112.004L178.555 115.219L180.437 116.219Z" fill="#FFA340"/>
<path d="M169.393 110.528C169.393 113.436 173.022 115.934 178.227 117.052V104.003C173.022 105.121 169.393 107.619 169.393 110.528Z" fill="#95C1F5"/>
<path d="M182.193 103.462V117.594C182.83 117.637 183.477 117.668 184.132 117.672V103.387C183.477 103.392 182.83 103.418 182.193 103.462Z" fill="#95C1F5"/>
<rect x="169.393" y="107.61" width="29.8624" height="3.50243" fill="#95C1F5"/>
<path d="M199.255 110.528C199.255 108.165 196.857 106.069 193.167 104.772V116.288C196.857 114.986 199.255 112.89 199.255 110.528Z" fill="#95C1F5"/>
<path d="M178.227 104.003V117.052C179.467 117.319 180.804 117.498 182.193 117.594V103.462C180.804 103.558 179.467 103.737 178.227 104.003Z" fill="#A4CEFF"/>
<path d="M184.324 103.379C184.263 103.379 184.201 103.383 184.136 103.383V117.668C184.197 117.668 184.258 117.672 184.324 117.672C187.634 117.672 190.691 117.157 193.167 116.284V104.767C190.691 103.898 187.634 103.379 184.324 103.379Z" fill="#A4CEFF"/>
<ellipse cx="184.324" cy="108.401" rx="14.9312" ry="7.14898" fill="#94C5FF"/>
<ellipse cx="184.324" cy="107.868" rx="14.9312" ry="7.14898" fill="#B3D6FF"/>
<ellipse cx="184.324" cy="107.868" rx="11.8742" ry="5.50258" fill="#98C7FF"/>
<path d="M180.909 108.366L179.048 107.379L180.502 106.624L182.363 107.61C183.241 108.073 184.682 108.073 185.577 107.61C186.472 107.143 186.49 106.388 185.612 105.925L183.669 104.894L185.123 104.139L187.066 105.169C188.726 106.051 188.695 107.484 187.001 108.366C185.302 109.248 182.568 109.248 180.909 108.366Z" fill="#FFA340"/>
<path d="M187.935 109.624L181.315 106.113L182.769 105.357L189.39 108.868L187.935 109.624Z" fill="#FFA340"/>
<path d="M190.285 108.401L183.669 104.89L185.119 104.134L191.739 107.645L190.285 108.401Z" fill="#FFA340"/>
<path d="M180.437 111.602L181.083 107.462L179.057 107.388L178.555 110.602L180.437 111.602Z" fill="#FFA340"/>
<path d="M169.393 106.348C169.393 109.256 173.022 111.754 178.227 112.872V99.8232C173.022 100.941 169.393 103.439 169.393 106.348Z" fill="#95C1F5"/>
<path d="M182.193 99.2817V113.414C182.83 113.457 183.477 113.488 184.132 113.492V99.2075C183.477 99.2118 182.83 99.238 182.193 99.2817Z" fill="#95C1F5"/>
<rect x="169.393" y="103.43" width="29.8624" height="3.50243" fill="#95C1F5"/>
<path d="M199.255 106.348C199.255 103.985 196.857 101.889 193.167 100.587V112.104C196.857 110.802 199.255 108.71 199.255 106.348Z" fill="#95C1F5"/>
<path d="M178.227 99.8232V112.872C179.467 113.139 180.804 113.318 182.193 113.414V99.2817C180.804 99.3778 179.467 99.5568 178.227 99.8232Z" fill="#A4CEFF"/>
<path d="M184.324 99.1987C184.263 99.1987 184.201 99.2031 184.136 99.2031V113.488C184.197 113.488 184.258 113.492 184.324 113.492C187.634 113.492 190.691 112.977 193.167 112.104V100.587C190.691 99.7184 187.634 99.1987 184.324 99.1987Z" fill="#A4CEFF"/>
<ellipse cx="184.324" cy="104.221" rx="14.9312" ry="7.14898" fill="#94C5FF"/>
<ellipse cx="184.324" cy="103.688" rx="14.9312" ry="7.14898" fill="#B3D6FF"/>
<ellipse cx="184.324" cy="103.688" rx="11.8742" ry="5.50258" fill="#98C7FF"/>
<path d="M180.909 104.186L179.048 103.199L180.502 102.444L182.363 103.43C183.241 103.893 184.682 103.893 185.577 103.43C186.472 102.963 186.49 102.208 185.612 101.745L183.669 100.714L185.123 99.9586L187.066 100.989C188.726 101.871 188.695 103.304 187.001 104.186C185.302 105.068 182.568 105.068 180.909 104.186Z" fill="#FFA340"/>
<path d="M187.935 105.444L181.315 101.933L182.769 101.177L189.39 104.688L187.935 105.444Z" fill="#FFA340"/>
<path d="M190.285 104.221L183.669 100.71L185.119 99.9542L191.739 103.465L190.285 104.221Z" fill="#FFA340"/>
<path d="M180.437 107.422L181.083 103.282L179.057 103.208L178.555 106.422L180.437 107.422Z" fill="#FFA340"/>
<path d="M169.393 101.731C169.393 104.639 173.022 107.137 178.227 108.255V95.2065C173.022 96.3245 169.393 98.8225 169.393 101.731Z" fill="#95C1F5"/>
<path d="M182.193 94.665V108.797C182.83 108.841 183.477 108.871 184.132 108.876V94.5908C183.477 94.5908 182.83 94.6213 182.193 94.665Z" fill="#95C1F5"/>
<rect x="169.393" y="98.8137" width="29.8624" height="3.50243" fill="#95C1F5"/>
<path d="M199.255 101.731C199.255 99.3684 196.857 97.2721 193.167 95.9751V107.491C196.857 106.185 199.255 104.094 199.255 101.731Z" fill="#95C1F5"/>
<path d="M178.227 95.2065V108.255C179.467 108.522 180.804 108.701 182.193 108.797V94.665C180.804 94.7611 179.467 94.9401 178.227 95.2065Z" fill="#A4CEFF"/>
<path d="M184.324 94.582C184.263 94.582 184.201 94.5864 184.136 94.5864V108.871C184.197 108.871 184.258 108.876 184.324 108.876C187.634 108.876 190.691 108.36 193.167 107.487V95.9708C190.691 95.1017 187.634 94.582 184.324 94.582Z" fill="#A4CEFF"/>
<ellipse cx="184.324" cy="99.6042" rx="14.9312" ry="7.14898" fill="#94C5FF"/>
<ellipse cx="184.324" cy="99.0714" rx="14.9312" ry="7.14898" fill="#B3D6FF"/>
<ellipse cx="184.324" cy="99.0714" rx="11.8742" ry="5.50258" fill="#98C7FF"/>
<path d="M180.909 99.5693L179.048 98.5823L180.502 97.8268L182.363 98.8138C183.241 99.2767 184.682 99.2767 185.577 98.8138C186.472 98.3465 186.49 97.591 185.612 97.1281L183.669 96.0974L185.123 95.3419L187.066 96.3726C188.726 97.2547 188.695 98.6871 187.001 99.5693C185.302 100.451 182.568 100.451 180.909 99.5693Z" fill="#FFA340"/>
<path d="M187.935 100.827L181.315 97.3158L182.769 96.5603L189.39 100.071L187.935 100.827Z" fill="#FFA340"/>
<path d="M190.285 99.6042L183.669 96.093L185.119 95.3375L191.739 98.8487L190.285 99.6042Z" fill="#FFA340"/>
<path d="M180.437 102.805L181.083 98.6652L179.057 98.591L178.555 101.805L180.437 102.805Z" fill="#FFA340"/>
<path d="M169.393 97.1143C169.393 100.023 173.022 102.521 178.227 103.639V90.5898C173.022 91.7078 169.393 94.2058 169.393 97.1143Z" fill="#95C1F5"/>
<path d="M182.193 90.0483V104.18C182.83 104.224 183.477 104.255 184.132 104.259V89.9697C183.477 89.974 182.83 90.0046 182.193 90.0483Z" fill="#95C1F5"/>
<rect x="169.393" y="94.197" width="29.8624" height="3.50243" fill="#95C1F5"/>
<path d="M199.255 97.1143C199.255 94.7517 196.857 92.6554 193.167 91.3584V102.875C196.857 101.569 199.255 99.4769 199.255 97.1143Z" fill="#95C1F5"/>
<path d="M178.227 90.5898V103.639C179.467 103.905 180.804 104.084 182.193 104.18V90.0483C180.804 90.1444 179.467 90.3234 178.227 90.5898Z" fill="#A4CEFF"/>
<path d="M184.324 89.9653C184.263 89.9653 184.201 89.9697 184.136 89.9697V104.255C184.197 104.255 184.258 104.259 184.324 104.259C187.634 104.259 190.691 103.744 193.167 102.87V91.3541C190.691 90.485 187.634 89.9653 184.324 89.9653Z" fill="#A4CEFF"/>
<ellipse cx="184.324" cy="94.9875" rx="14.9312" ry="7.14898" fill="#94C5FF"/>
<ellipse cx="184.324" cy="94.4547" rx="14.9312" ry="7.14898" fill="#B3D6FF"/>
<ellipse cx="184.324" cy="94.4547" rx="11.8742" ry="5.50258" fill="#DCEEFF"/>
<path fill-rule="evenodd" clip-rule="evenodd" d="M180.909 94.9526L179.048 93.9656L180.502 93.2101L182.363 94.1971C183.241 94.66 184.682 94.66 185.577 94.1971C186.472 93.7298 186.49 92.9743 185.612 92.5114L183.669 91.4807L185.123 90.7252L187.066 91.7559C188.726 92.638 188.695 94.0704 187.001 94.9526C185.302 95.8348 182.568 95.8348 180.909 94.9526Z" fill="#94C5FF"/>
<path fill-rule="evenodd" clip-rule="evenodd" d="M187.935 96.2103L181.315 92.6991L182.769 91.9436L189.39 95.4548L187.935 96.2103Z" fill="#94C5FF"/>
<path fill-rule="evenodd" clip-rule="evenodd" d="M190.285 94.9875L183.669 91.4763L185.119 90.7208L191.739 94.232L190.285 94.9875Z" fill="#94C5FF"/>
<path fill-rule="evenodd" clip-rule="evenodd" d="M180.437 98.1886L181.083 94.0485L179.057 93.9743L178.555 97.1885L180.437 98.1886Z" fill="#94C5FF"/>
<path fill-rule="evenodd" clip-rule="evenodd" d="M139.953 123.939L217.32 137.581L219.355 166.43L126.792 150.109L139.953 123.939Z" fill="url(#paint2_linear)"/>
<path fill-rule="evenodd" clip-rule="evenodd" d="M217.32 137.581L229.59 132.622L233.527 156.299L233.738 157.57L219.355 166.43L217.32 137.581Z" fill="url(#paint3_linear)"/>
<g filter="url(#filter0_i)">
<path fill-rule="evenodd" clip-rule="evenodd" d="M150.842 118.737L229.59 132.622L217.32 137.581L139.953 123.939L150.842 118.737Z" fill="url(#paint4_linear)"/>
</g>
<path d="M140.278 123.895L150.856 118.841L229.229 132.66L217.309 137.478L140.278 123.895Z" stroke="#C2DEFF" stroke-width="0.2"/>
<path fill-rule="evenodd" clip-rule="evenodd" d="M159.16 145.844C160.425 146.068 161.404 145.81 162.097 145.072L161.973 146.194L163.698 146.498L164.594 141.421L160.137 140.635L159.847 142.285L162.204 142.701L162.179 142.843C162.09 143.345 161.843 143.698 161.437 143.9C161.031 144.102 160.535 144.151 159.951 144.048C158.398 143.775 157.796 142.652 158.143 140.68C158.312 139.722 158.634 139.031 159.109 138.606C159.584 138.182 160.186 138.034 160.914 138.162C161.384 138.245 161.757 138.428 162.033 138.711C162.309 138.995 162.464 139.379 162.497 139.863L164.94 139.371C164.706 138.459 164.291 137.755 163.697 137.26C163.103 136.764 162.264 136.42 161.181 136.229C160.213 136.059 159.34 136.105 158.563 136.369C157.785 136.633 157.14 137.093 156.629 137.751C156.118 138.409 155.774 139.24 155.597 140.245C155.418 141.26 155.451 142.162 155.697 142.954C155.943 143.745 156.366 144.386 156.966 144.878C157.566 145.37 158.297 145.692 159.16 145.844ZM172.575 148.21C173.533 148.379 174.393 148.333 175.156 148.071C175.918 147.81 176.55 147.349 177.052 146.69C177.554 146.03 177.893 145.198 178.07 144.193C178.248 143.188 178.213 142.29 177.967 141.499C177.722 140.708 177.285 140.059 176.658 139.552C176.031 139.046 175.238 138.708 174.28 138.539C173.321 138.37 172.459 138.416 171.691 138.677C170.924 138.937 170.29 139.397 169.788 140.057C169.286 140.716 168.947 141.548 168.77 142.553C168.592 143.558 168.627 144.456 168.873 145.248C169.119 146.039 169.557 146.688 170.189 147.195C170.821 147.703 171.616 148.041 172.575 148.21ZM172.913 146.29C172.223 146.168 171.74 145.829 171.462 145.272C171.185 144.714 171.131 143.957 171.3 142.999C171.469 142.042 171.779 141.349 172.23 140.92C172.681 140.491 173.251 140.337 173.941 140.459C174.631 140.581 175.113 140.92 175.385 141.476C175.657 142.032 175.709 142.789 175.54 143.747C175.371 144.705 175.064 145.398 174.618 145.828C174.171 146.258 173.603 146.412 172.913 146.29ZM188.933 150.948L189.266 149.056L184.508 148.217L185.83 140.722L183.357 140.286L181.702 149.673L188.933 150.948ZM197.144 152.395C198.629 152.657 199.839 152.453 200.772 151.782C201.706 151.11 202.306 150.021 202.572 148.513C202.837 147.006 202.646 145.777 201.999 144.827C201.351 143.877 200.284 143.271 198.799 143.009L194.774 142.299L193.119 151.686L197.144 152.395ZM195.917 150.273L196.921 144.584L198.229 144.815C199.024 144.955 199.567 145.295 199.857 145.835C200.147 146.375 200.209 147.119 200.042 148.067C199.874 149.015 199.562 149.694 199.105 150.102C198.647 150.51 198.021 150.644 197.226 150.504L195.917 150.273Z" fill="#68AEFF"/>
<path d="M122.09 153.511C122.09 156.42 125.719 158.918 130.925 160.036V146.987C125.719 148.105 122.09 150.603 122.09 153.511Z" fill="#95C1F5"/>
<path d="M134.89 146.445V160.577C135.528 160.621 136.174 160.651 136.829 160.656V146.371C136.174 146.375 135.528 146.401 134.89 146.445Z" fill="#95C1F5"/>
<rect x="122.09" y="150.594" width="29.8624" height="3.50243" fill="#95C1F5"/>
<path d="M151.952 153.511C151.952 151.149 149.555 149.052 145.865 147.755V159.271C149.555 157.97 151.952 155.874 151.952 153.511Z" fill="#95C1F5"/>
<path d="M130.925 146.987V160.036C132.165 160.302 133.501 160.481 134.89 160.577V146.445C133.501 146.541 132.165 146.72 130.925 146.987Z" fill="#A4CEFF"/>
<path d="M137.021 146.362C136.96 146.362 136.899 146.366 136.833 146.366V160.651C136.895 160.651 136.956 160.656 137.021 160.656C140.332 160.656 143.388 160.14 145.865 159.267V147.751C143.388 146.882 140.332 146.362 137.021 146.362Z" fill="#A4CEFF"/>
<ellipse cx="137.021" cy="151.384" rx="14.9312" ry="7.14898" fill="#94C5FF"/>
<ellipse cx="137.021" cy="150.852" rx="14.9312" ry="7.14898" fill="#B3D6FF"/>
<ellipse cx="137.021" cy="150.851" rx="11.8742" ry="5.50258" fill="#98C7FF"/>
<path d="M133.606 151.349L131.746 150.362L133.2 149.607L135.06 150.594C135.938 151.057 137.379 151.057 138.275 150.594C139.17 150.127 139.187 149.371 138.31 148.908L136.366 147.877L137.82 147.122L139.764 148.153C141.423 149.035 141.393 150.467 139.698 151.349C137.999 152.231 135.266 152.231 133.606 151.349Z" fill="#FFA340"/>
<path d="M140.633 152.607L134.012 149.096L135.467 148.34L142.087 151.851L140.633 152.607Z" fill="#FFA340"/>
<path d="M142.982 151.384L136.366 147.873L137.816 147.118L144.437 150.629L142.982 151.384Z" fill="#FFA340"/>
<path d="M133.134 154.585L133.781 150.445L131.754 150.371L131.252 153.585L133.134 154.585Z" fill="#FFA340"/>
<path d="M122.09 148.894C122.09 151.803 125.719 154.301 130.925 155.419V142.37C125.719 143.488 122.09 145.986 122.09 148.894Z" fill="#95C1F5"/>
<path d="M134.89 141.828V155.96C135.528 156.004 136.174 156.035 136.829 156.039V141.754C136.174 141.759 135.528 141.785 134.89 141.828Z" fill="#95C1F5"/>
<rect x="122.09" y="145.977" width="29.8624" height="3.50243" fill="#95C1F5"/>
<path d="M151.952 148.894C151.952 146.532 149.555 144.436 145.865 143.139V154.655C149.555 153.353 151.952 151.257 151.952 148.894Z" fill="#95C1F5"/>
<path d="M130.925 142.37V155.419C132.165 155.685 133.501 155.864 134.89 155.96V141.828C133.501 141.924 132.165 142.103 130.925 142.37Z" fill="#A4CEFF"/>
<path d="M137.021 141.745C136.96 141.745 136.899 141.75 136.833 141.75V156.035C136.895 156.035 136.956 156.039 137.021 156.039C140.332 156.039 143.388 155.524 145.865 154.65V143.134C143.388 142.265 140.332 141.745 137.021 141.745Z" fill="#A4CEFF"/>
<ellipse cx="137.021" cy="146.768" rx="14.9312" ry="7.14898" fill="#94C5FF"/>
<ellipse cx="137.021" cy="146.235" rx="14.9312" ry="7.14898" fill="#B3D6FF"/>
<ellipse cx="137.021" cy="146.235" rx="11.8742" ry="5.50258" fill="#98C7FF"/>
<path d="M133.606 146.733L131.746 145.746L133.2 144.99L135.06 145.977C135.938 146.44 137.379 146.44 138.275 145.977C139.17 145.51 139.187 144.754 138.31 144.291L136.366 143.261L137.82 142.505L139.764 143.536C141.423 144.418 141.393 145.85 139.698 146.733C137.999 147.615 135.266 147.615 133.606 146.733Z" fill="#FFA340"/>
<path d="M140.633 147.99L134.012 144.479L135.467 143.724L142.087 147.235L140.633 147.99Z" fill="#FFA340"/>
<path d="M142.982 146.768L136.366 143.256L137.816 142.501L144.437 146.012L142.982 146.768Z" fill="#FFA340"/>
<path d="M133.134 149.969L133.781 145.829L131.754 145.754L131.252 148.969L133.134 149.969Z" fill="#FFA340"/>
<path d="M122.09 144.714C122.09 147.623 125.719 150.121 130.925 151.239V138.19C125.719 139.308 122.09 141.806 122.09 144.714Z" fill="#95C1F5"/>
<path d="M134.89 137.648V151.78C135.528 151.824 136.174 151.855 136.829 151.859V137.574C136.174 137.579 135.528 137.605 134.89 137.648Z" fill="#95C1F5"/>
<rect x="122.09" y="141.797" width="29.8624" height="3.50243" fill="#95C1F5"/>
<path d="M151.952 144.714C151.952 142.352 149.555 140.256 145.865 138.954V150.47C149.555 149.169 151.952 147.077 151.952 144.714Z" fill="#95C1F5"/>
<path d="M130.925 138.19V151.239C132.165 151.505 133.501 151.684 134.89 151.78V137.648C133.501 137.745 132.165 137.924 130.925 138.19Z" fill="#A4CEFF"/>
<path d="M137.021 137.565C136.96 137.565 136.899 137.57 136.833 137.57V151.855C136.895 151.855 136.956 151.859 137.021 151.859C140.332 151.859 143.388 151.344 145.865 150.47V138.954C143.388 138.085 140.332 137.565 137.021 137.565Z" fill="#A4CEFF"/>
<ellipse cx="137.021" cy="142.588" rx="14.9312" ry="7.14898" fill="#94C5FF"/>
<ellipse cx="137.021" cy="142.055" rx="14.9312" ry="7.14898" fill="#B3D6FF"/>
<ellipse cx="137.021" cy="142.055" rx="11.8742" ry="5.50258" fill="#98C7FF"/>
<path d="M133.606 142.553L131.746 141.566L133.2 140.81L135.06 141.797C135.938 142.26 137.379 142.26 138.275 141.797C139.17 141.33 139.187 140.574 138.31 140.111L136.366 139.081L137.82 138.325L139.764 139.356C141.423 140.238 141.393 141.671 139.698 142.553C137.999 143.435 135.266 143.435 133.606 142.553Z" fill="#FFA340"/>
<path d="M140.633 143.81L134.012 140.299L135.467 139.544L142.087 143.055L140.633 143.81Z" fill="#FFA340"/>
<path d="M142.982 142.588L136.366 139.076L137.816 138.321L144.437 141.832L142.982 142.588Z" fill="#FFA340"/>
<path d="M133.134 145.789L133.781 141.649L131.754 141.574L131.252 144.789L133.134 145.789Z" fill="#FFA340"/>
<path d="M122.09 140.098C122.09 143.006 125.719 145.504 130.925 146.622V133.573C125.719 134.691 122.09 137.189 122.09 140.098Z" fill="#95C1F5"/>
<path d="M134.89 133.032V147.164C135.528 147.207 136.174 147.238 136.829 147.242V132.958C136.174 132.958 135.528 132.988 134.89 133.032Z" fill="#95C1F5"/>
<rect x="122.09" y="137.181" width="29.8624" height="3.50243" fill="#95C1F5"/>
<path d="M151.952 140.098C151.952 137.735 149.555 135.639 145.865 134.342V145.858C149.555 144.552 151.952 142.46 151.952 140.098Z" fill="#95C1F5"/>
<path d="M130.925 133.573V146.622C132.165 146.889 133.501 147.068 134.89 147.164V133.032C133.501 133.128 132.165 133.307 130.925 133.573Z" fill="#A4CEFF"/>
<path d="M137.021 132.949C136.96 132.949 136.899 132.953 136.833 132.953V147.238C136.895 147.238 136.956 147.242 137.021 147.242C140.332 147.242 143.388 146.727 145.865 145.854V134.338C143.388 133.468 140.332 132.949 137.021 132.949Z" fill="#A4CEFF"/>
<ellipse cx="137.021" cy="137.971" rx="14.9312" ry="7.14898" fill="#94C5FF"/>
<ellipse cx="137.021" cy="137.438" rx="14.9312" ry="7.14898" fill="#B3D6FF"/>
<ellipse cx="137.021" cy="137.438" rx="11.8742" ry="5.50258" fill="#98C7FF"/>
<path d="M133.606 137.936L131.746 136.949L133.2 136.194L135.06 137.181C135.938 137.643 137.379 137.643 138.275 137.181C139.17 136.713 139.187 135.958 138.31 135.495L136.366 134.464L137.82 133.709L139.764 134.739C141.423 135.621 141.393 137.054 139.698 137.936C137.999 138.818 135.266 138.818 133.606 137.936Z" fill="#FFA340"/>
<path d="M140.633 139.194L134.012 135.683L135.467 134.927L142.087 138.438L140.633 139.194Z" fill="#FFA340"/>
<path d="M142.982 137.971L136.366 134.46L137.816 133.704L144.437 137.215L142.982 137.971Z" fill="#FFA340"/>
<path d="M133.134 141.172L133.781 137.032L131.754 136.958L131.252 140.172L133.134 141.172Z" fill="#FFA340"/>
<path d="M122.09 135.481C122.09 138.39 125.719 140.888 130.925 142.006V128.957C125.719 130.075 122.09 132.573 122.09 135.481Z" fill="#95C1F5"/>
<path d="M134.89 128.415V142.547C135.528 142.591 136.174 142.621 136.829 142.626V128.336C136.174 128.341 135.528 128.371 134.89 128.415Z" fill="#95C1F5"/>
<rect x="122.09" y="132.564" width="29.8624" height="3.50243" fill="#95C1F5"/>
<path d="M151.952 135.481C151.952 133.118 149.555 131.022 145.865 129.725V141.241C149.555 139.935 151.952 137.844 151.952 135.481Z" fill="#95C1F5"/>
<path d="M130.925 128.957V142.006C132.165 142.272 133.501 142.451 134.89 142.547V128.415C133.501 128.511 132.165 128.69 130.925 128.957Z" fill="#A4CEFF"/>
<path d="M137.021 128.332C136.96 128.332 136.899 128.336 136.833 128.336V142.621C136.895 142.621 136.956 142.626 137.021 142.626C140.332 142.626 143.388 142.11 145.865 141.237V129.721C143.388 128.852 140.332 128.332 137.021 128.332Z" fill="#A4CEFF"/>
<ellipse cx="137.021" cy="133.354" rx="14.9312" ry="7.14898" fill="#94C5FF"/>
<ellipse cx="137.021" cy="132.821" rx="14.9312" ry="7.14898" fill="#B3D6FF"/>
<ellipse cx="137.021" cy="132.821" rx="11.8742" ry="5.50258" fill="#DCEEFF"/>
<path fill-rule="evenodd" clip-rule="evenodd" d="M133.606 133.319L131.746 132.332L133.2 131.577L135.06 132.564C135.938 133.027 137.379 133.027 138.275 132.564C139.17 132.097 139.187 131.341 138.31 130.878L136.366 129.847L137.82 129.092L139.764 130.123C141.423 131.005 141.393 132.437 139.698 133.319C137.999 134.202 135.266 134.202 133.606 133.319Z" fill="#94C5FF"/>
<path fill-rule="evenodd" clip-rule="evenodd" d="M140.633 134.577L134.012 131.066L135.467 130.31L142.087 133.822L140.633 134.577Z" fill="#94C5FF"/>
<path fill-rule="evenodd" clip-rule="evenodd" d="M142.982 133.354L136.366 129.843L137.816 129.088L144.437 132.599L142.982 133.354Z" fill="#94C5FF"/>
<path fill-rule="evenodd" clip-rule="evenodd" d="M133.134 136.555L133.781 132.415L131.754 132.341L131.252 135.555L133.134 136.555Z" fill="#94C5FF"/>
<path fill-rule="evenodd" clip-rule="evenodd" d="M114.467 150.769L153.793 153.604L156.4 168.334L110.887 164.469L114.467 150.769Z" fill="url(#paint5_linear)"/>
<path fill-rule="evenodd" clip-rule="evenodd" d="M153.793 153.604L159.837 150.39L163.142 162.356L163.32 162.999L156.4 168.334L153.793 153.604Z" fill="url(#paint6_linear)"/>
<g filter="url(#filter1_i)">
<path fill-rule="evenodd" clip-rule="evenodd" d="M118.578 147.504L159.837 150.39L153.793 153.604L114.467 150.769L118.578 147.504Z" fill="url(#paint7_linear)"/>
</g>
<path d="M114.73 150.688L118.61 147.607L159.482 150.465L153.772 153.502L114.73 150.688Z" stroke="#C2DEFF" stroke-width="0.2"/>
<path fill-rule="evenodd" clip-rule="evenodd" d="M129.639 161.873L129.716 160.767L128.407 160.675C128.03 160.649 127.655 160.634 127.282 160.63C128.108 160.224 128.732 159.815 129.154 159.403C129.576 158.992 129.805 158.524 129.842 158C129.864 157.691 129.808 157.396 129.675 157.115C129.542 156.834 129.324 156.597 129.02 156.403C128.717 156.209 128.332 156.096 127.864 156.063C127.223 156.018 126.689 156.148 126.263 156.452C125.837 156.756 125.598 157.209 125.544 157.81L126.759 158.277C126.791 157.906 126.888 157.628 127.051 157.445C127.213 157.261 127.427 157.178 127.692 157.197C127.934 157.214 128.115 157.296 128.235 157.443C128.355 157.59 128.407 157.776 128.391 158.001C128.363 158.401 128.123 158.812 127.672 159.236C127.221 159.66 126.505 160.132 125.524 160.652L125.459 161.581L129.639 161.873ZM134.351 162.202L134.437 160.978L135.29 161.038L135.36 160.041L134.507 159.981L134.741 156.629L133.044 156.51L130.397 160.008L130.35 160.692L133.153 160.888L133.068 162.113L134.351 162.202ZM133.223 159.892L131.771 159.79L132.854 158.372C133.104 158.033 133.289 157.741 133.408 157.495L133.425 157.496L133.327 158.405L133.223 159.892ZM137.51 162.423L137.62 160.853L138.352 160.081L139.57 162.567L141.217 162.683L139.456 159.233L141.505 157.102L139.892 156.989L137.726 159.324L137.899 156.85L136.447 156.748L136.057 162.322L137.51 162.423Z" fill="#68AEFF"/>
</g>
<defs>
<filter id="filter0_i" x="139.953" y="117.032" width="89.6367" height="23.4983" filterUnits="userSpaceOnUse" color-interpolation-filters="sRGB">
<feFlood flood-opacity="0" result="BackgroundImageFix"/>
<feBlend mode="normal" in="SourceGraphic" in2="BackgroundImageFix" result="shape"/>
<feColorMatrix in="SourceAlpha" type="matrix" values="0 0 0 0 0 0 0 0 0 0 0 0 0 0 0 0 0 0 127 0" result="hardAlpha"/>
<feOffset dy="1"/>
<feGaussianBlur stdDeviation="1"/>
<feComposite in2="hardAlpha" operator="arithmetic" k2="-1" k3="1"/>
<feColorMatrix type="matrix" values="0 0 0 0 1 0 0 0 0 0.970637 0 0 0 0 0.828716 0 0 0 0.400514 0"/>
<feBlend mode="normal" in2="shape" result="effect1_innerShadow"/>
</filter>
<filter id="filter1_i" x="114.467" y="147.504" width="45.3699" height="7.09943" filterUnits="userSpaceOnUse" color-interpolation-filters="sRGB">
<feFlood flood-opacity="0" result="BackgroundImageFix"/>
<feBlend mode="normal" in="SourceGraphic" in2="BackgroundImageFix" result="shape"/>
<feColorMatrix in="SourceAlpha" type="matrix" values="0 0 0 0 0 0 0 0 0 0 0 0 0 0 0 0 0 0 127 0" result="hardAlpha"/>
<feOffset dy="1"/>
<feGaussianBlur stdDeviation="1"/>
<feComposite in2="hardAlpha" operator="arithmetic" k2="-1" k3="1"/>
<feColorMatrix type="matrix" values="0 0 0 0 1 0 0 0 0 0.970637 0 0 0 0 0.828716 0 0 0 0.400514 0"/>
<feBlend mode="normal" in2="shape" result="effect1_innerShadow"/>
</filter>
<linearGradient id="paint0_linear" x1="-23.0585" y1="117.234" x2="76.5183" y2="-59.311" gradientUnits="userSpaceOnUse">
<stop stop-color="white" stop-opacity="0.01"/>
<stop offset="1" stop-color="#3792FC"/>
</linearGradient>
<linearGradient id="paint1_linear" x1="152.277" y1="159.389" x2="152.277" y2="149.579" gradientUnits="userSpaceOnUse">
<stop stop-color="white"/>
<stop offset="1" stop-color="#2A7FE2"/>
</linearGradient>
<linearGradient id="paint2_linear" x1="131.923" y1="122.608" x2="127.08" y2="150.075" gradientUnits="userSpaceOnUse">
<stop stop-color="#D9EDFF"/>
<stop offset="0.999261" stop-color="#BEDCFF"/>
</linearGradient>
<linearGradient id="paint3_linear" x1="218.548" y1="130.782" x2="212.476" y2="165.217" gradientUnits="userSpaceOnUse">
<stop stop-color="#D5EBFF"/>
<stop offset="1" stop-color="#AAD1FD"/>
</linearGradient>
<linearGradient id="paint4_linear" x1="210.9" y1="134.802" x2="211.629" y2="130.668" gradientUnits="userSpaceOnUse">
<stop offset="0.000158361" stop-color="#C0E0FD"/>
<stop offset="1" stop-color="#BDDBFF"/>
</linearGradient>
<linearGradient id="paint5_linear" x1="111.989" y1="150.639" x2="110.977" y2="165.114" gradientUnits="userSpaceOnUse">
<stop stop-color="#D9EDFF"/>
<stop offset="0.999261" stop-color="#BEDCFF"/>
</linearGradient>
<linearGradient id="paint6_linear" x1="154.058" y1="150.04" x2="152.796" y2="168.082" gradientUnits="userSpaceOnUse">
<stop stop-color="#D5EBFF"/>
<stop offset="1" stop-color="#AAD1FD"/>
</linearGradient>
<linearGradient id="paint7_linear" x1="150.582" y1="152.538" x2="150.734" y2="150.372" gradientUnits="userSpaceOnUse">
<stop offset="0.000158361" stop-color="#C0E0FD"/>
<stop offset="1" stop-color="#BDDBFF"/>
</linearGradient>
<clipPath id="clip0">
<rect width="47" height="15" fill="white" transform="translate(89.2308 113.41)"/>
</clipPath>
</defs>
</svg>
