<svg width="70" height="60" viewBox="0 0 70 60" fill="none" xmlns="http://www.w3.org/2000/svg">
<rect width="70" height="60" rx="4" fill="white"/>
<mask id="mask0" mask-type="alpha" maskUnits="userSpaceOnUse" x="0" y="0" width="70" height="60">
<rect width="70" height="60" rx="4" fill="white"/>
</mask>
<g mask="url(#mask0)">
<path opacity="0.05" d="M5.18417 18.8141C1.28264 40.0159 -17.3037 39.7092 -9.48561 44.2229C-1.66752 48.7367 7.65806 41.6119 15.0572 39.6293C22.4563 37.6467 29.0892 44.2133 33.2084 37.0787C37.3275 29.9441 30.8697 31.0083 31.9352 21.2287C33.0007 11.4491 46.4355 8.75219 36.2719 2.88428C26.1084 -2.98363 9.08569 -2.38758 5.18417 18.8141Z" fill="#3792FC"/>
<path opacity="0.05" d="M51.1134 46.8363C46.1853 49.6816 24.73 59.7694 23.6953 54.5961C22.6607 49.4229 31.2398 50.7934 28.3512 43.7323C25.4626 36.6713 12.8315 41.1457 14.3835 31.8339C16.1674 21.1307 44.1515 26.2073 49.427 23.1615C54.7024 20.1157 52.6654 15.7969 55.252 13.7276C59.9079 13.7276 69.7371 13.7276 69.7371 13.7276L69.7371 57.1827C69.7371 57.1827 59.4017 42.051 51.1134 46.8363Z" fill="#3792FC"/>
<circle opacity="0.05" cx="9.98615" cy="52.2682" r="2.84528" fill="#3792FC"/>
<path opacity="0.05" d="M64.4833 40.778C64.3777 40.5005 63.9892 40.6437 64.0537 40.9248C64.2309 41.6999 64.5173 42.4839 64.827 43.2142C64.8896 43.3628 65.1599 43.3377 65.1241 43.157C64.972 42.3622 64.7733 41.5352 64.4833 40.778Z" fill="#3792FC"/>
<path opacity="0.05" d="M16.1409 47.9437C16.4716 47.4249 16.9407 47.5546 17.3947 47.7837C17.8573 48.0172 18.2939 48.1555 18.7954 47.9393C19.5801 47.5999 19.9497 46.4154 19.1997 45.8576C18.9575 45.6761 18.7176 45.9744 18.75 46.2035C18.7954 46.5213 18.9532 46.8736 18.6809 47.146C18.3155 47.5113 17.8875 47.2044 17.5222 47.0401C17.1288 46.8628 16.7094 46.8239 16.3052 46.9882C15.607 47.2714 15.099 48.2182 15.6545 48.858C15.7323 48.9467 15.9204 48.9056 15.9399 48.7824C15.9853 48.4862 15.9766 48.2052 16.1409 47.9437Z" fill="#3792FC"/>
<path opacity="0.05" d="M9.67074 19.6659C9.75188 19.9288 10.0018 20.0132 10.229 19.8574C11.1216 19.2505 12.011 18.6565 12.8581 17.9846C13.0204 17.8547 12.9847 17.5951 12.8257 17.4847C11.8357 16.8063 10.5017 15.8034 9.24553 15.7969C8.92744 15.7936 8.70348 16.2448 9.02806 16.4298C9.53441 16.722 10.1414 16.8258 10.6834 17.0498C11.3066 17.3094 11.9266 17.6146 12.4784 18.0073C12.4914 17.8255 12.5043 17.6438 12.5141 17.462C11.5695 18.043 10.6802 18.6954 9.78434 19.3446C9.95962 19.3803 10.1381 19.416 10.3134 19.4517C9.9304 18.3676 9.53766 17.2932 9.11246 16.2253C9.01833 16.0014 8.63532 16.1247 8.70024 16.3617C8.99885 17.4717 9.32668 18.5688 9.67074 19.6659Z" fill="#3792FC"/>
<path opacity="0.05" d="M69.2874 16.7783C69.5931 16.7489 69.5544 16.3327 69.258 16.3217C68.4405 16.2904 67.5843 16.3604 66.776 16.469C66.6158 16.4911 66.5661 16.7599 66.7539 16.7746C67.5843 16.8372 68.457 16.8612 69.2874 16.7783Z" fill="#3792FC"/>
<path opacity="0.05" d="M45.2997 19.7619C45.943 20.5425 47.1925 20.7054 47.996 20.085C49.9402 18.5839 47.913 15.819 45.8172 16.3909C45.4284 16.4967 45.5256 17.0514 45.9087 17.0714C46.5206 17.1057 47.1782 17.1286 47.6672 17.5603C48.1933 18.0206 48.2047 18.8012 47.7729 19.333C46.6293 20.7369 44.645 18.6697 45.8458 17.4116C46.0002 17.2544 45.7658 17.0199 45.6057 17.1714C44.888 17.8605 44.6164 18.9327 45.2997 19.7619Z" fill="#3792FC"/>
<path opacity="0.05" d="M50.2943 52.842C50.3552 53.0392 50.5426 53.1025 50.713 52.9856C51.3825 52.5304 52.0495 52.0849 52.6848 51.581C52.8066 51.4836 52.7798 51.2889 52.6605 51.2061C51.918 50.6973 50.9175 49.9451 49.9754 49.9402C49.7368 49.9378 49.5688 50.2762 49.8123 50.4149C50.192 50.634 50.6473 50.7119 51.0538 50.8799C51.5212 51.0746 51.9862 51.3035 52.4 51.598C52.4098 51.4617 52.4195 51.3254 52.4268 51.1891C51.7184 51.6248 51.0514 52.1141 50.3795 52.601C50.5109 52.6278 50.6448 52.6546 50.7763 52.6813C50.489 51.8682 50.1945 51.0625 49.8756 50.2616C49.8074 50.0936 49.5202 50.1861 49.5664 50.3638C49.7904 51.1964 50.0362 52.0192 50.2943 52.842Z" fill="#3792FC"/>
</g>
<path fill-rule="evenodd" clip-rule="evenodd" d="M50.7083 24.625H40.6249C40.2083 24.625 39.8749 24.2917 39.8333 23.8333V13.7917C39.8333 13.3333 40.2083 13 40.6249 13H50.7083C51.1666 13 51.4999 13.375 51.4999 13.7917V23.8333C51.4999 24.2917 51.1249 24.625 50.7083 24.625ZM42.9166 17.8333C42.7499 17.8333 42.6249 17.9583 42.6249 18.125V19.5C42.6249 19.6667 42.7499 19.7917 42.9166 19.7917H44.7083V21.5417C44.7083 21.7083 44.8333 21.8333 44.9999 21.8333H46.3749C46.5416 21.8333 46.6666 21.7083 46.6666 21.5417V19.7917H48.3749C48.5416 19.7917 48.6666 19.6667 48.6666 19.5V18.125C48.6666 17.9583 48.5416 17.8333 48.3749 17.8333H46.6249V16.0833C46.6249 15.9167 46.4999 15.7917 46.3333 15.7917H44.9583C44.7916 15.7917 44.6666 15.9167 44.6666 16.0833V17.8333H42.9166Z" fill="#3792FC"/>
<circle cx="23.75" cy="23.2083" r="3.375" fill="#3792FC"/>
<path d="M53.5833 33.8333H33.875C32.75 33.8333 31.6666 33.5417 30.7083 33L18.8333 26.0833V23.9583C18.8333 22.9583 18 22.125 17 22.125C16 22.125 15.1666 22.9583 15.1666 23.9583V43.6667C15.1666 44.6667 16 45.5 17 45.5C18 45.5 18.8333 44.6667 18.8333 43.6667V39.2917H51.125V43.7083C51.125 44.7083 51.9583 45.5417 52.9583 45.5417C53.9583 45.5417 54.7916 44.7083 54.7916 43.7083V35.0417C54.7916 34.375 54.25 33.8333 53.5833 33.8333Z" fill="#A1CCFF"/>
<path d="M28.3333 29.4167L31.75 31.4583C32.4583 31.875 33.2916 32.125 34.125 32.125H52.125C52.9166 32.125 53.5833 31.5 53.5833 30.6667C53.5833 29.9583 53.0416 29.3333 52.3333 29.25L38 27.25C37.4166 27.1667 36.875 27.0417 36.3333 26.8333L30.625 24.625C29.75 24.2917 28.75 24.4167 28 25.0417C26.5833 26.2083 26.7083 28.4583 28.3333 29.4167Z" fill="#3792FC"/>
</svg>
