<?xml version="1.0" encoding="UTF-8"?>
<svg width="30px" height="30px" viewBox="0 0 30 30" version="1.1" xmlns="http://www.w3.org/2000/svg" xmlns:xlink="http://www.w3.org/1999/xlink">
    <!-- Generator: Sketch 55.2 (78181) - https://sketchapp.com -->
    <title>placeholder</title>
    <desc>Created with Sketch.</desc>
    <g id="assets" stroke="none" stroke-width="1" fill="none" fill-rule="evenodd">
        <g id="placeholder" fill-rule="nonzero">
            <path d="M8.56037109,22.0000195 C3.80671875,22.5903516 0.500039063,24.2325586 0.500039063,25.7500195 C0.500039063,27.8210742 6.65613281,29.5000195 14.2500586,29.5000195 C21.8439844,29.5000195 28.0000781,27.8210742 28.0000781,25.7500195 C28.0000781,24.2325586 24.6933984,22.5903516 19.9397461,22.0000195" id="Path" fill="#96C7FF"></path>
            <path d="M21,22.0000195 L19.9396875,22.0000195 C24.6933398,22.5903516 28.0000195,24.2325586 28.0000195,25.7500195 C28.0000195,27.7876172 22.0396875,29.4445898 14.6150977,29.4974414 C14.743418,29.4983203 14.870918,29.5000195 15.0000586,29.5000195 C23.0081836,29.5000195 29.5000781,27.8210742 29.5000781,25.7500195 C29.5000781,24.2325586 26.0129297,22.5903516 21,22.0000195 Z" id="Path" fill="#96C7FF"></path>
            <path d="M9,22.0000195 L10.0603125,22.0000195 C5.30666016,22.5903516 1.99998047,24.2325586 1.99998047,25.7500195 C1.99998047,27.7876172 7.9603125,29.4445898 15.3849023,29.4974414 C15.256582,29.4983203 15.129082,29.5000195 14.9999414,29.5000195 C6.99181641,29.5000195 0.499921875,27.8210742 0.499921875,25.7500195 C0.499921875,24.2325586 3.98707031,22.5903516 9,22.0000195 Z" id="Path" fill="#96C7FF"></path>
            <path d="M14.911582,26.5000195 L7.64091797,16.0000195 C4.92726563,12.3817969 5.28703125,6.36 8.48513672,3.16195312 L8.48513672,3.16195312 C12.0343359,-0.387246094 17.7887109,-0.387246094 21.3379102,3.16195312 L21.3379102,3.16195312 C24.5360156,6.36005859 24.8958398,12.3817969 22.1821875,16.0000195 L14.911582,26.5000195 Z" id="Path" fill="#D3E7FF"></path>
            <path d="M14.8231641,26.5000195 L7.97888672,16.0000195 C5.26523438,12.3817383 5.62505859,6.36 8.82316406,3.16189453 L8.82316406,3.16189453 C12.3723633,-0.387304687 16.1119336,-0.387304687 19.6611914,3.16189453 L19.6611914,3.16189453 C22.8592969,6.36 23.2191211,12.3817383 20.5054688,15.9999609 L14.8231641,26.5000195 Z" id="Path" fill="#D3E7FF"></path>
            <circle id="Oval" fill="#96C7FF" cx="15" cy="9.49998047" r="3"></circle>
            <ellipse id="Oval" fill="#96C7FF" cx="14.0749805" cy="9.49998047" rx="2.25" ry="3"></ellipse>
            <path d="M8.48519531,3.16189453 L8.48519531,3.16189453 C10.2810938,1.36546875 12.7490625,0.406113281 15.2867578,0.51796875 C13.5628125,0.608320313 11.8410938,1.48283203 10.1620313,3.16189453 L10.1620313,3.16189453 C6.96392578,6.36005859 6.60410156,12.3817383 9.3178125,16.0000195 L14.9612695,26.4283594 L14.9116406,26.5000195 L7.64097656,16.0000195 C4.92726563,12.3817383 5.28708984,6.36 8.48519531,3.16189453 Z" id="Path" fill="#D3E7FF"></path>
            <g id="Group" fill="#3792FC">
                <path d="M15,13.0000195 C13.0669922,13.0000195 11.5000195,11.4329883 11.5000195,9.50003906 C11.5000195,7.56708984 13.0669922,6 15,6 C16.9330078,6 18.4999805,7.56703125 18.4999805,9.49998047 C18.4977539,11.4320508 16.9320703,12.9977344 15,13.0000195 L15,13.0000195 Z M15,7.00001953 C13.6192969,7.00001953 12.4999805,8.11933594 12.4999805,9.50003906 C12.4999805,10.8807422 13.6192969,12 15,12 C16.3807031,12 17.5000195,10.8806836 17.5000195,9.49998047 C17.4983789,8.11998047 16.3800586,7.00160156 15,7.00001953 L15,7.00001953 Z" id="Shape"></path>
                <path d="M14.9116406,27 C14.7475781,27 14.5940039,26.9194922 14.5004883,26.784668 L7.22970703,16.284668 C4.36400391,12.4638867 4.78025391,6.15966797 8.13158203,2.80857422 C9.92964844,1.01027344 12.3684961,0 14.9115234,0 C17.4545508,0 19.8933984,1.01027344 21.6914062,2.80857422 C25.0429687,6.15966797 25.4592187,12.4643555 22.5820312,16.2997852 L15.3227344,26.784668 C15.2292773,26.9194922 15.0757031,27 14.9116406,27 Z M14.9116406,0.999988396 C12.6325781,0.993925781 10.4458008,1.89972656 8.83863281,3.515625 C5.81396484,6.54005859 5.44119141,12.2339063 8.04076172,15.7001953 L14.9116406,25.621582 L21.7710352,15.7153125 C24.3821484,12.2338477 24.0093164,6.54 20.9844141,3.515625 C19.3773047,1.89972656 17.1905859,0.993867188 14.9116406,0.999988396 Z" id="Shape"></path>
                <path d="M15,30 C5.15232422,30 0,27.8617969 0,25.7500195 C0,23.8696289 3.67699219,22.1235352 8.94140625,21.5034375 C9.21568359,21.4710937 9.46423828,21.6671484 9.49658203,21.9414258 C9.52892578,22.2157031 9.33287109,22.4642578 9.05859375,22.4966016 C3.80050781,23.1157617 1.00001953,24.7836914 1.00001953,25.7500195 C1.00001953,27.1069336 6.32619141,29.0000391 15,29.0000391 C23.6738086,29.0000391 28.9999805,27.1069922 28.9999805,25.7500195 C28.9999805,24.7836914 26.1994336,23.1157617 20.9414062,22.4966016 C20.6671289,22.4642578 20.4710742,22.2157031 20.503418,21.9414258 C20.5357617,21.6671484 20.7843164,21.4710938 21.0585938,21.5034375 C26.3230078,22.1235352 30,23.8696289 30,25.7500195 C30,27.8617969 24.8476758,30 15,30 Z" id="Path"></path>
            </g>
        </g>
    </g>
</svg>