<svg xmlns="http://www.w3.org/2000/svg" xmlns:xlink="http://www.w3.org/1999/xlink" width="110" height="70" viewBox="0 0 110 70">
    <defs>
        <path id="prefix__a" d="M0 0H110V70H0z"/>
    </defs>
    <g fill="none" fill-rule="evenodd">
        <mask id="prefix__b" fill="#fff">
            <use xlink:href="#prefix__a"/>
        </mask>
        <use fill="#D8D8D8" fill-opacity="0" xlink:href="#prefix__a"/>
        <g mask="url(#prefix__b)">
            <g>
                <path fill="#3792FC" fill-rule="nonzero" d="M72.93 0c-7.94 0-21.653 0-24.54 7.94-2.888 7.94 21.118 7.474 26.706 13.062 5.588 5.588 14.598 4.982 23.097 4.982s6.888 9.368 13.714 7.94c6.825-1.428.721-8.583 2.887-12.922V0H72.93z" opacity=".228" transform="translate(1)"/>
                <path fill="#3792FC" fill-rule="nonzero" d="M57.031 65.12c-35.978-12.783-51.968 15.978-51.968 0 0-15.979 19.188-23.968 28.783-33.555C43.44 21.978 39.24 6 53.833 6c14.593 0 7.241 8.957 23.186 15.978C92.965 29 109 10.793 109 31.565S93.01 77.902 57.031 65.12z" opacity=".2" transform="translate(1)"/>
                <g>
                    <g transform="translate(1) translate(1.732 7.055) translate(13.61)">
                        <rect width="69.255" height="42.834" y="9.608" fill="#3792FC" rx="6.005"/>
                        <path fill="#9CC0FF" d="M10.008 9.608h4.003v5.604c0 1.106-.896 2.002-2.001 2.002-1.106 0-2.002-.896-2.002-2.002V9.608zM55.244 9.608h4.003v5.604c0 1.106-.896 2.002-2.002 2.002-1.105 0-2.001-.896-2.001-2.002V9.608z"/>
                        <path fill="#F0F7FF" d="M26.021 22.418H42.834V39.230999999999995H26.021z"/>
                        <path fill="#3792FC" d="M34.125 30.824h.605c2.707 0 4.901 2.195 4.901 4.902v1.504H29.223v-1.504c0-2.707 2.195-4.902 4.902-4.902z"/>
                        <circle cx="34.427" cy="27.222" r="2.802" fill="#3792FC"/>
                        <path fill="#9CC0FF" d="M45.636 0c2.653 0 4.804 2.15 4.804 4.804v4.804h-2.802V7.206c0-2.653-2.15-4.804-4.804-4.804H25.62c-2.653 0-4.803 2.15-4.803 4.804v2.402h-2.803V4.804C18.014 2.15 20.165 0 22.818 0h22.818z"/>
                    </g>
                    <g transform="translate(1) translate(1.732 7.055) translate(0 26.02)">
                        <rect width="34.027" height="20.416" fill="#FFF" rx="3.603"/>
                        <path fill="#9CC0FF" d="M28.555 11.195l-2.16-2.846c-.283-.376-.476-.618-.579-.7.682-.16 1.222-.457 1.634-.887.283-.323.476-.727.553-1.184h.872c.277 0 .523-.18.607-.445.057-.179-.042-.37-.221-.427-.034-.011-.068-.017-.104-.017H28.03c-.052-.551-.219-1.022-.49-1.399h1.323c.277 0 .523-.18.607-.444.057-.18-.042-.37-.221-.428-.033-.01-.068-.016-.103-.016h-5.178c-.277 0-.523.18-.607.444-.057.18.042.37.221.428.033.01.068.016.103.016h.91c.63 0 1.107.135 1.441.43.257.23.412.552.476.97h-2.518c-.277 0-.523.179-.607.443-.057.18.042.371.22.428.034.011.07.017.104.017h2.775c-.077.336-.257.605-.527.807-.399.296-1.003.444-1.814.444-.44 0-.797.357-.797.797v.253c.283 0 .566.094.823.282.232.162.45.377.656.673l1.702 2.348c.377.52.98.828 1.623.828.28 0 .507-.228.507-.508 0-.11-.036-.219-.103-.307z"/>
                        <rect width="16.413" height="1.201" x="2.802" y="4.003" fill="#DFE7F5" rx=".6"/>
                        <rect width="16.413" height="1.201" x="2.802" y="6.405" fill="#DFE7F5" rx=".6"/>
                        <rect width="28.423" height="1.201" x="2.802" y="13.611" fill="#DFE7F5" rx=".6"/>
                        <rect width="16.413" height="1.201" x="2.802" y="8.807" fill="#DFE7F5" rx=".6"/>
                        <rect width="16.413" height="1.201" x="2.802" y="11.209" fill="#DFE7F5" rx=".6"/>
                        <rect width="28.423" height="1.201" x="2.802" y="16.013" fill="#DFE7F5" rx=".6"/>
                    </g>
                    <g transform="translate(1) translate(1.732 7.055) translate(70.056 19.215)">
                        <path fill="#F3F4F6" d="M1.601 0h21.617c.443 0 .801.358.801.8v29.224H.801V.8C.8.358 1.159 0 1.6 0z"/>
                        <rect width="20.016" height="1.201" x="2.402" y="4.403" fill="#DFE7F5" rx=".6"/>
                        <rect width="20.016" height="1.201" x="2.402" y="6.805" fill="#DFE7F5" rx=".6"/>
                        <rect width="20.016" height="1.201" x="2.402" y="9.207" fill="#DFE7F5" rx=".6"/>
                        <rect width="20.016" height="1.201" x="2.402" y="11.609" fill="#DFE7F5" rx=".6"/>
                        <rect width="20.016" height="1.201" x="2.402" y="14.011" fill="#DFE7F5" rx=".6"/>
                        <path fill="#B4D6FF" d="M2.002 14.998h10.697c.692 0 1.335-.357 1.7-.944l1.233-1.984c.365-.587 1.008-.944 1.7-.944h3.784c.972 0 1.76-.788 1.76-1.76v-1.36c0-.22.18-.4.4-.4h1.544c.22 0 .4.18.4.4v23.405c0 1.106-.896 2.002-2.002 2.002H2.002C.896 33.413 0 32.517 0 31.411V17c0-1.105.896-2.002 2.002-2.002z"/>
                    </g>
                </g>
                <path fill="#3792FC" fill-rule="nonzero" d="M8.206 32.202c1.02-.487 2.063-1.049 2.982-1.708.337-.242.005-.715-.35-.527-.98.514-1.94 1.179-2.814 1.855-.18.135-.05.49.182.38zM75.126 42.113c-.213-1.109-.49-2.263-.895-3.319-.147-.387-.689-.187-.599.205.247 1.081.647 2.175 1.079 3.194.087.207.465.172.415-.08zM11.978 12.114c-.02-.017-.037-.035-.057-.05-.252-.225-.667-.267-.912 0-.247.27-.24.642 0 .912.018.02.035.037.05.057.225.255.692.247.92 0 .224-.247.27-.68 0-.919zM70.02 16.038c.063-.413.05-.805.28-1.17.461-.724 1.116-.543 1.75-.223.645.325 1.254.518 1.953.217 1.095-.474 1.611-2.126.564-2.905-.337-.253-.672.163-.627.483.063.443.284.935-.096 1.315-.51.51-1.107.081-1.617-.148-.549-.247-1.134-.301-1.698-.072-.974.395-1.683 1.716-.908 2.609.109.123.371.066.398-.106zM58.72 57.826c-1.002.961-1.38 2.457-.427 3.614.897 1.09 2.64 1.317 3.762.451 2.712-2.094-.116-5.952-3.04-5.154-.543.148-.407.921.128.95.853.047 1.77.08 2.453.682.734.642.75 1.73.148 2.473-1.596 1.959-4.365-.926-2.69-2.68.216-.22-.111-.547-.334-.336zM.007 51.447c.312 1.161.656 2.31 1.016 3.457.084.275.346.364.584.2.934-.634 1.864-1.256 2.75-1.96.17-.135.133-.407-.033-.522-1.036-.71-2.432-1.76-3.746-1.766-.333-.004-.568.468-.228.662.53.306 1.165.414 1.732.649.652.271 1.301.59 1.879 1.002.013-.19.027-.38.037-.57-.988.607-1.92 1.29-2.857 1.969l.554.112c-.4-1.134-.812-2.259-1.257-3.376-.095-.234-.496-.105-.431.143z" opacity=".05" transform="translate(1)"/>
            </g>
        </g>
    </g>
</svg>
