<?xml version="1.0" encoding="UTF-8"?>
<svg width="338px" height="321px" viewBox="0 0 338 321" version="1.1" xmlns="http://www.w3.org/2000/svg" xmlns:xlink="http://www.w3.org/1999/xlink">
    <!-- Generator: Sketch 55.2 (78181) - https://sketchapp.com -->
    <title>illustration_1</title>
    <desc>Created with Sketch.</desc>
    <defs>
        <linearGradient x1="50%" y1="-2.48949813e-15%" x2="50%" y2="100%" id="linearGradient-1">
            <stop stop-color="#64ABFF" offset="0%"></stop>
            <stop stop-color="#60A0ED" offset="100%"></stop>
        </linearGradient>
        <path d="M98.7818928,8.94108056 L98.7818928,207.928237 C98.7809038,212.865322 94.7778974,216.866055 89.8408122,216.866055 L9.05467564,216.866055 C4.1175905,216.866055 0.114584061,212.865322 0.113595074,207.928237 L0.113595074,8.94108056 C0.113595074,6.56969597 1.05532932,4.29537851 2.73215145,2.61855638 C4.40897358,0.94173425 6.68329105,0 9.05467564,0 L21.1435645,0 L21.1435645,1.55270136 C21.1447313,5.61829481 24.4402545,8.91381799 28.5058479,8.91498474 L69.5904555,8.91498474 C73.6565278,8.91497393 76.952728,5.61877372 76.9527388,1.55270136 L76.9527388,0 L89.8408122,0 C92.2121968,0 94.4865143,0.94173425 96.1633364,2.61855638 C97.8401585,4.29537851 98.7818928,6.56969597 98.7818928,8.94108056 L98.7818928,8.94108056 Z" id="path-2"></path>
        <rect id="path-4" x="0.529607788" y="0.529607788" width="90.213054" height="53.7874058" rx="1.36170648"></rect>
        <rect id="path-6" x="0" y="0" width="90.213054" height="53.7874058" rx="1.36170648"></rect>
        <rect id="path-8" x="0" y="0" width="18.3830374" height="18.3830374" rx="1.36170648"></rect>
        <rect id="path-10" x="0.529607788" y="0.529607788" width="90.213054" height="53.7874058" rx="1.36170648"></rect>
        <rect id="path-12" x="-8.52651283e-14" y="-3.90798505e-14" width="90.213054" height="53.7874058" rx="1.36170648"></rect>
        <rect id="path-14" x="0" y="0" width="18.3830374" height="18.3830374" rx="1.36170648"></rect>
        <rect id="path-16" x="-7.10542736e-14" y="2.04494382" width="90.4376435" height="52.7156933" rx="1.34966297"></rect>
        <rect id="path-18" x="4.26325641e-14" y="4.26325641e-14" width="89.4151721" height="53.3116875" rx="1.34966297"></rect>
        <rect id="path-20" x="0" y="0" width="18.2204502" height="18.2204502" rx="1.34966297"></rect>
    </defs>
    <g id="personal_accident_UI" stroke="none" stroke-width="1" fill="none" fill-rule="evenodd">
        <g id="illustration_1">
            <ellipse id="ground" fill="#C6E0FF" fill-rule="nonzero" opacity="0.222330729" cx="168" cy="282.203264" rx="168" ry="38"></ellipse>
            <g id="Group-7" transform="translate(78.439905, 194.009343)" fill-rule="nonzero">
                <g id="leave_right" transform="translate(42.000000, 47.500000) rotate(-30.000000) translate(-42.000000, -47.500000) translate(21.000000, 5.000000)">
                    <path d="M21.6311001,70.7533208 C28.2053884,66.0271127 37.7505981,55.6309683 39.2903226,51.3834146 C40.830047,47.135861 34.5483871,48.4880561 33.8709677,43.2702439 C33.1935484,38.0524317 41.4870589,36.2283011 41.3225806,32.4526829 C41.1581024,28.6770648 32.6981608,30.5299746 31.1612903,27.0439024 C29.6244198,23.5578303 34.8776329,19.5690478 33.8709677,15.5502439 C32.8643025,11.53144 29.5593456,13.5423089 27.0967742,10.817561 C24.9637711,8.45746866 22.964553,1.10711665 20.6612903,0.676097561 C18.3580277,0.245078471 19.1111883,5.85542202 16.2580645,8.78926829 C13.4049408,11.7231146 10.4382763,10.1285923 9.48387097,12.1697561 C8.52946563,14.2109199 15.5117971,14.1951341 11.516129,18.9307317 C7.52046098,23.6663293 1.59726104,20.5676318 0.677419355,24.3395122 C-0.242422331,28.1113926 7.0074194,31.4598708 7.4516129,35.5975874 C7.89580641,39.7353041 -0.359779506,37.0420456 0.677419355,43.9463415 C1.71461822,50.8506373 7.42847186,53.2999724 10.8387097,58.1443902 C13.813531,62.3702766 14.5693531,67.0737176 19.6914806,70.7533208 C20.0181837,70.9880159 21.2960861,70.9941599 21.6311001,70.7533208 Z" id="Oval" fill="#3F7ABF"></path>
                    <path d="M34.8205128,51.3949719 C31.4968991,52.151199 28.7814318,53.1836443 26.6741108,54.4923077 C24.5667899,55.8009711 22.6271704,58.3820843 20.8552523,62.2356473 L20.8552523,61.4613133 C22.7831332,57.6824497 24.7227527,55.2303922 26.6741108,54.1051407 C28.625469,52.9798893 31.3409363,52.0764996 34.8205128,51.3949719 Z" id="Rectangle-2" fill="#376BA8"></path>
                    <path d="M20.4673284,44.4259662 C17.1437146,45.1821934 14.4282473,46.2146386 12.3209264,47.5233021 C10.2136055,48.8319655 8.14467796,51.4130787 6.11414392,55.2666417 L6.11414392,54.4923077 C8.30064077,50.7134441 10.3695683,48.2613865 12.3209264,47.1361351 C14.2722845,46.0108836 16.9877518,45.107494 20.4673284,44.4259662 Z" id="Rectangle-2" fill="#376BA8" transform="translate(13.290736, 49.846304) scale(-1, 1) translate(-13.290736, -49.846304) "></path>
                    <path d="M38.311828,32.4237899 C33.9537505,33.180017 30.7210513,34.2124623 28.6137304,35.5211257 C26.5064094,36.8297891 23.9202501,39.4109023 20.8552523,43.2644653 L20.8552523,42.4901313 C24.0762129,38.7112677 26.6623722,36.2592102 28.6137304,35.1339587 C30.5650885,34.0087073 33.7977877,33.1053176 38.311828,32.4237899 Z" id="Rectangle-2" fill="#376BA8"></path>
                    <path d="M20.4673284,25.4547842 C16.1092509,26.2110114 12.8765517,27.2434566 10.7692308,28.5521201 C8.66190983,29.8607835 6.07575047,32.4418967 3.01075269,36.2954597 L3.01075269,35.5211257 C6.23171328,31.7422621 8.81787264,29.2902046 10.7692308,28.1649531 C12.7205889,27.0397016 15.9532881,26.136312 20.4673284,25.4547842 Z" id="Rectangle-2" fill="#376BA8" transform="translate(11.739041, 30.875122) scale(-1, 1) translate(-11.739041, -30.875122) "></path>
                    <path d="M32.6272839,19.2635046 C29.2042351,19.8556716 26.6653466,20.6654713 25.0106184,21.6929037 C23.3558903,22.7203361 21.325646,24.7475431 18.9198856,27.7745248 L18.9195033,27.1659804 C21.4478148,24.1977813 23.4781228,22.2719983 25.0104273,21.3886315 C26.5427318,20.5052646 29.081684,19.796889 32.6272839,19.2635046 Z" id="Rectangle-2" fill="#376BA8" transform="translate(25.773394, 23.519015) rotate(-20.000000) translate(-25.773394, -23.519015) "></path>
                    <path d="M21.3666099,13.4541958 C18.7209435,13.9124778 16.7585583,14.5387017 15.4794544,15.3328672 C14.2003505,16.1270328 12.6307986,17.6937057 10.7707988,20.0328859 L10.7706416,19.5627269 C12.7253427,17.2689341 14.2949208,15.780621 15.4793758,15.0977877 C16.6638309,14.4149544 18.6262422,13.8670904 21.3666099,13.4541958 Z" id="Rectangle-2" fill="#376BA8" transform="translate(16.068626, 16.743541) scale(-1, 1) rotate(-10.000000) translate(-16.068626, -16.743541) "></path>
                    <polygon id="Rectangle" fill="#376BA8" points="20.6566557 0.676097561 21.2431762 84.275272 20.0794045 84.275272"></polygon>
                </g>
                <g id="leave_left" transform="translate(38.937971, 66.752111) rotate(-60.000000) translate(-38.937971, -66.752111) translate(21.937971, 32.252111)">
                    <path d="M17.5108905,57.2764978 C22.8329335,53.4505198 30.560008,45.0345934 31.8064516,41.5960976 C33.0528952,38.1576018 27.9677419,39.2522359 27.4193548,35.0282927 C26.8709677,30.8043495 33.584762,29.3276723 33.4516129,26.2712195 C33.3184638,23.2147667 26.4699397,24.7147413 25.2258065,21.8926829 C23.9816732,19.0706245 28.2342743,15.8416101 27.4193548,12.5882927 C26.6044354,9.33497526 23.928994,10.9628215 21.9354839,8.75707317 C20.2087671,6.84652225 18.5903524,0.896237289 16.7258065,0.547317073 C14.8612605,0.198396858 15.4709619,4.74010354 13.1612903,7.11512195 C10.8516187,9.49014036 8.4500332,8.19933665 7.67741935,9.85170732 C6.90480551,11.504078 12.5571691,11.4912991 9.32258065,15.324878 C6.08799222,19.158457 1.29302084,16.6499877 0.548387097,19.7034146 C-0.196246649,22.7568416 5.67267285,25.4675145 6.03225806,28.8170946 C6.39184328,32.1666747 -0.291250077,29.9864179 0.548387097,35.5756098 C1.38802427,41.1648016 6.01352484,43.1475967 8.77419355,47.0692683 C11.1823823,50.4902239 11.7942382,54.2977714 15.9407224,57.2764978 C16.2051964,57.4664891 17.2396888,57.4714628 17.5108905,57.2764978 Z" id="Oval" fill="url(#linearGradient-1)"></path>
                    <path d="M28.1880342,41.6054534 C25.4974897,42.2176373 23.2992543,43.0534263 21.5933278,44.1128205 C19.8874013,45.1722147 18.3172332,47.2616873 16.8828233,50.3812383 L16.8828233,49.7543965 C18.4434888,46.6953164 20.013657,44.7103175 21.5933278,43.7993996 C23.1729987,42.8884818 25.3712341,42.1571664 28.1880342,41.6054534 Z" id="Rectangle-2" fill="#97C6FF"></path>
                    <path d="M16.5687896,35.9638774 C13.8782452,36.5760613 11.6800097,37.4118503 9.97408326,38.4712445 C8.26815679,39.5306387 6.59331073,41.6201113 4.94954508,44.7396623 L4.94954508,44.1128205 C6.71956634,41.0537404 8.3944124,39.0687415 9.97408326,38.1578236 C11.5537541,37.2469058 13.7519896,36.5155904 16.5687896,35.9638774 Z" id="Rectangle-2" fill="#97C6FF" transform="translate(10.759167, 40.351770) scale(-1, 1) translate(-10.759167, -40.351770) "></path>
                    <path d="M31.0143369,26.2478299 C27.4863694,26.8600138 24.8694225,27.6958028 23.163496,28.755197 C21.4575695,29.8145912 19.364012,31.9040638 16.8828233,35.0236148 L16.8828233,34.396773 C19.4902676,31.3376929 21.5838251,29.352694 23.163496,28.4417761 C24.7431669,27.5308583 27.3601138,26.7995429 31.0143369,26.2478299 Z" id="Rectangle-2" fill="#97C6FF"></path>
                    <path d="M16.5687896,20.6062539 C13.0408222,21.2184378 10.4238752,22.0542268 8.71794872,23.113621 C7.01202225,24.1730152 4.91846467,26.2624878 2.43727599,29.3820388 L2.43727599,28.755197 C5.04472027,25.6961169 7.13827785,23.711118 8.71794872,22.8002001 C10.2976196,21.8892823 12.9145666,21.1579669 16.5687896,20.6062539 Z" id="Rectangle-2" fill="#97C6FF" transform="translate(9.503033, 24.994146) scale(-1, 1) translate(-9.503033, -24.994146) "></path>
                    <path d="M26.4125631,15.5942657 C23.6415236,16.0736389 21.5862329,16.7291911 20.2466911,17.560922 C18.9071493,18.392653 17.2636182,20.0337254 15.3160979,22.4841391 L15.3157884,21.9915079 C17.3625168,19.5886801 19.0060994,18.0297129 20.2465364,17.3146064 C21.4869733,16.5994999 23.5423156,16.026053 26.4125631,15.5942657 Z" id="Rectangle-2" fill="#97C6FF" transform="translate(20.864176, 19.039202) rotate(-20.000000) translate(-20.864176, -19.039202) "></path>
                    <path d="M17.2967795,10.8914918 C15.1550495,11.2624821 13.566452,11.7694252 12.5309869,12.4123211 C11.4955218,13.055217 10.2249322,14.323476 8.71921808,16.2170981 L8.71909084,15.8364932 C10.3014679,13.9796133 11.5720787,12.7747885 12.5309233,12.2220186 C13.4897678,11.6692488 15.0783866,11.2257399 17.2967795,10.8914918 Z" id="Rectangle-2" fill="#97C6FF" transform="translate(13.007935, 13.554295) scale(-1, 1) rotate(-10.000000) translate(-13.007935, -13.554295) "></path>
                    <polygon id="Rectangle" fill="#97C6FF" points="16.7220546 0.547317073 17.1968569 68.2228393 16.254756 68.2228393"></polygon>
                </g>
            </g>
            <g id="Group-7" transform="translate(214.000000, 247.703264) scale(-1, 1) translate(-214.000000, -247.703264) translate(173.000000, 198.203264)" fill-rule="nonzero">
                <g id="leave_right" transform="translate(42.000000, 47.500000) rotate(-30.000000) translate(-42.000000, -47.500000) translate(21.000000, 5.000000)">
                    <path d="M21.6311001,70.7533208 C28.2053884,66.0271127 37.7505981,55.6309683 39.2903226,51.3834146 C40.830047,47.135861 34.5483871,48.4880561 33.8709677,43.2702439 C33.1935484,38.0524317 41.4870589,36.2283011 41.3225806,32.4526829 C41.1581024,28.6770648 32.6981608,30.5299746 31.1612903,27.0439024 C29.6244198,23.5578303 34.8776329,19.5690478 33.8709677,15.5502439 C32.8643025,11.53144 29.5593456,13.5423089 27.0967742,10.817561 C24.9637711,8.45746866 22.964553,1.10711665 20.6612903,0.676097561 C18.3580277,0.245078471 19.1111883,5.85542202 16.2580645,8.78926829 C13.4049408,11.7231146 10.4382763,10.1285923 9.48387097,12.1697561 C8.52946563,14.2109199 15.5117971,14.1951341 11.516129,18.9307317 C7.52046098,23.6663293 1.59726104,20.5676318 0.677419355,24.3395122 C-0.242422331,28.1113926 7.0074194,31.4598708 7.4516129,35.5975874 C7.89580641,39.7353041 -0.359779506,37.0420456 0.677419355,43.9463415 C1.71461822,50.8506373 7.42847186,53.2999724 10.8387097,58.1443902 C13.813531,62.3702766 14.5693531,67.0737176 19.6914806,70.7533208 C20.0181837,70.9880159 21.2960861,70.9941599 21.6311001,70.7533208 Z" id="Oval" fill="#3F7ABF"></path>
                    <path d="M34.8205128,51.3949719 C31.4968991,52.151199 28.7814318,53.1836443 26.6741108,54.4923077 C24.5667899,55.8009711 22.6271704,58.3820843 20.8552523,62.2356473 L20.8552523,61.4613133 C22.7831332,57.6824497 24.7227527,55.2303922 26.6741108,54.1051407 C28.625469,52.9798893 31.3409363,52.0764996 34.8205128,51.3949719 Z" id="Rectangle-2" fill="#376BA8"></path>
                    <path d="M20.4673284,44.4259662 C17.1437146,45.1821934 14.4282473,46.2146386 12.3209264,47.5233021 C10.2136055,48.8319655 8.14467796,51.4130787 6.11414392,55.2666417 L6.11414392,54.4923077 C8.30064077,50.7134441 10.3695683,48.2613865 12.3209264,47.1361351 C14.2722845,46.0108836 16.9877518,45.107494 20.4673284,44.4259662 Z" id="Rectangle-2" fill="#376BA8" transform="translate(13.290736, 49.846304) scale(-1, 1) translate(-13.290736, -49.846304) "></path>
                    <path d="M38.311828,32.4237899 C33.9537505,33.180017 30.7210513,34.2124623 28.6137304,35.5211257 C26.5064094,36.8297891 23.9202501,39.4109023 20.8552523,43.2644653 L20.8552523,42.4901313 C24.0762129,38.7112677 26.6623722,36.2592102 28.6137304,35.1339587 C30.5650885,34.0087073 33.7977877,33.1053176 38.311828,32.4237899 Z" id="Rectangle-2" fill="#376BA8"></path>
                    <path d="M20.4673284,25.4547842 C16.1092509,26.2110114 12.8765517,27.2434566 10.7692308,28.5521201 C8.66190983,29.8607835 6.07575047,32.4418967 3.01075269,36.2954597 L3.01075269,35.5211257 C6.23171328,31.7422621 8.81787264,29.2902046 10.7692308,28.1649531 C12.7205889,27.0397016 15.9532881,26.136312 20.4673284,25.4547842 Z" id="Rectangle-2" fill="#376BA8" transform="translate(11.739041, 30.875122) scale(-1, 1) translate(-11.739041, -30.875122) "></path>
                    <path d="M32.6272839,19.2635046 C29.2042351,19.8556716 26.6653466,20.6654713 25.0106184,21.6929037 C23.3558903,22.7203361 21.325646,24.7475431 18.9198856,27.7745248 L18.9195033,27.1659804 C21.4478148,24.1977813 23.4781228,22.2719983 25.0104273,21.3886315 C26.5427318,20.5052646 29.081684,19.796889 32.6272839,19.2635046 Z" id="Rectangle-2" fill="#376BA8" transform="translate(25.773394, 23.519015) rotate(-20.000000) translate(-25.773394, -23.519015) "></path>
                    <path d="M21.3666099,13.4541958 C18.7209435,13.9124778 16.7585583,14.5387017 15.4794544,15.3328672 C14.2003505,16.1270328 12.6307986,17.6937057 10.7707988,20.0328859 L10.7706416,19.5627269 C12.7253427,17.2689341 14.2949208,15.780621 15.4793758,15.0977877 C16.6638309,14.4149544 18.6262422,13.8670904 21.3666099,13.4541958 Z" id="Rectangle-2" fill="#376BA8" transform="translate(16.068626, 16.743541) scale(-1, 1) rotate(-10.000000) translate(-16.068626, -16.743541) "></path>
                    <polygon id="Rectangle" fill="#376BA8" points="20.6566557 0.676097561 21.2431762 84.275272 20.0794045 84.275272"></polygon>
                </g>
                <g id="leave_left" transform="translate(38.937971, 66.752111) rotate(-60.000000) translate(-38.937971, -66.752111) translate(21.937971, 32.252111)">
                    <path d="M17.5108905,57.2764978 C22.8329335,53.4505198 30.560008,45.0345934 31.8064516,41.5960976 C33.0528952,38.1576018 27.9677419,39.2522359 27.4193548,35.0282927 C26.8709677,30.8043495 33.584762,29.3276723 33.4516129,26.2712195 C33.3184638,23.2147667 26.4699397,24.7147413 25.2258065,21.8926829 C23.9816732,19.0706245 28.2342743,15.8416101 27.4193548,12.5882927 C26.6044354,9.33497526 23.928994,10.9628215 21.9354839,8.75707317 C20.2087671,6.84652225 18.5903524,0.896237289 16.7258065,0.547317073 C14.8612605,0.198396858 15.4709619,4.74010354 13.1612903,7.11512195 C10.8516187,9.49014036 8.4500332,8.19933665 7.67741935,9.85170732 C6.90480551,11.504078 12.5571691,11.4912991 9.32258065,15.324878 C6.08799222,19.158457 1.29302084,16.6499877 0.548387097,19.7034146 C-0.196246649,22.7568416 5.67267285,25.4675145 6.03225806,28.8170946 C6.39184328,32.1666747 -0.291250077,29.9864179 0.548387097,35.5756098 C1.38802427,41.1648016 6.01352484,43.1475967 8.77419355,47.0692683 C11.1823823,50.4902239 11.7942382,54.2977714 15.9407224,57.2764978 C16.2051964,57.4664891 17.2396888,57.4714628 17.5108905,57.2764978 Z" id="Oval" fill="url(#linearGradient-1)"></path>
                    <path d="M28.1880342,41.6054534 C25.4974897,42.2176373 23.2992543,43.0534263 21.5933278,44.1128205 C19.8874013,45.1722147 18.3172332,47.2616873 16.8828233,50.3812383 L16.8828233,49.7543965 C18.4434888,46.6953164 20.013657,44.7103175 21.5933278,43.7993996 C23.1729987,42.8884818 25.3712341,42.1571664 28.1880342,41.6054534 Z" id="Rectangle-2" fill="#97C6FF"></path>
                    <path d="M16.5687896,35.9638774 C13.8782452,36.5760613 11.6800097,37.4118503 9.97408326,38.4712445 C8.26815679,39.5306387 6.59331073,41.6201113 4.94954508,44.7396623 L4.94954508,44.1128205 C6.71956634,41.0537404 8.3944124,39.0687415 9.97408326,38.1578236 C11.5537541,37.2469058 13.7519896,36.5155904 16.5687896,35.9638774 Z" id="Rectangle-2" fill="#97C6FF" transform="translate(10.759167, 40.351770) scale(-1, 1) translate(-10.759167, -40.351770) "></path>
                    <path d="M31.0143369,26.2478299 C27.4863694,26.8600138 24.8694225,27.6958028 23.163496,28.755197 C21.4575695,29.8145912 19.364012,31.9040638 16.8828233,35.0236148 L16.8828233,34.396773 C19.4902676,31.3376929 21.5838251,29.352694 23.163496,28.4417761 C24.7431669,27.5308583 27.3601138,26.7995429 31.0143369,26.2478299 Z" id="Rectangle-2" fill="#97C6FF"></path>
                    <path d="M16.5687896,20.6062539 C13.0408222,21.2184378 10.4238752,22.0542268 8.71794872,23.113621 C7.01202225,24.1730152 4.91846467,26.2624878 2.43727599,29.3820388 L2.43727599,28.755197 C5.04472027,25.6961169 7.13827785,23.711118 8.71794872,22.8002001 C10.2976196,21.8892823 12.9145666,21.1579669 16.5687896,20.6062539 Z" id="Rectangle-2" fill="#97C6FF" transform="translate(9.503033, 24.994146) scale(-1, 1) translate(-9.503033, -24.994146) "></path>
                    <path d="M26.4125631,15.5942657 C23.6415236,16.0736389 21.5862329,16.7291911 20.2466911,17.560922 C18.9071493,18.392653 17.2636182,20.0337254 15.3160979,22.4841391 L15.3157884,21.9915079 C17.3625168,19.5886801 19.0060994,18.0297129 20.2465364,17.3146064 C21.4869733,16.5994999 23.5423156,16.026053 26.4125631,15.5942657 Z" id="Rectangle-2" fill="#97C6FF" transform="translate(20.864176, 19.039202) rotate(-20.000000) translate(-20.864176, -19.039202) "></path>
                    <path d="M17.2967795,10.8914918 C15.1550495,11.2624821 13.566452,11.7694252 12.5309869,12.4123211 C11.4955218,13.055217 10.2249322,14.323476 8.71921808,16.2170981 L8.71909084,15.8364932 C10.3014679,13.9796133 11.5720787,12.7747885 12.5309233,12.2220186 C13.4897678,11.6692488 15.0783866,11.2257399 17.2967795,10.8914918 Z" id="Rectangle-2" fill="#97C6FF" transform="translate(13.007935, 13.554295) scale(-1, 1) rotate(-10.000000) translate(-13.007935, -13.554295) "></path>
                    <polygon id="Rectangle" fill="#97C6FF" points="16.7220546 0.547317073 17.1968569 68.2228393 16.254756 68.2228393"></polygon>
                </g>
            </g>
            <path d="M334.797016,74.8744183 C334.735662,75.161432 334.677537,75.4484456 334.609725,75.7322344 C332.491391,85.4874743 329.029725,94.8879782 323.882433,103.520962 C323.711287,103.807976 323.540141,104.09499 323.365766,104.382003 C319.971655,109.936406 315.910467,115.055688 311.272537,119.625977 C308.708579,122.154277 305.91212,124.556807 302.586079,126.288564 C297.926391,128.720118 292.478787,129.706929 287.124829,130.513147 C281.564204,131.354839 275.926079,132.057861 270.3041,132.815706 C268.306322,133.080145 266.320384,133.360709 264.346287,133.657398 C258.914829,134.460391 253.52212,135.389154 248.258579,136.621056 C241.751808,138.139971 235.445245,140.129717 229.487433,142.928907 C229.011669,143.143898 228.541287,143.371789 228.076287,143.61258 C227.611287,143.84477 227.143058,144.080186 226.684516,144.318827 C226.225975,144.557467 225.773891,144.796108 225.325037,145.041198 C225.092537,145.166968 224.860037,145.292738 224.630766,145.424958 C224.401495,145.557178 224.175454,145.673273 223.952641,145.802268 C223.280975,146.176353 222.622225,146.560113 221.963475,146.947098 L221.937641,146.963222 C221.501704,147.217987 221.072225,147.479202 220.645975,147.740417 C218.211183,149.217408 215.828058,150.758898 213.444933,152.310061 L211.9466,153.277523 L209.624829,154.777089 C209.172745,155.070552 208.710975,155.364016 208.255662,155.654254 C207.932745,155.867096 207.609829,156.079937 207.25785,156.299229 C205.565766,157.363437 203.851079,158.408296 202.091183,159.404781 C201.67462,159.643422 201.254829,159.882062 200.831808,160.114253 C197.276166,162.095265 193.557748,163.769672 189.717016,165.119256 L189.66535,165.138605 C187.733143,165.811751 185.761897,166.367445 183.762433,166.802639 C182.60962,167.054179 181.453579,167.260571 180.28462,167.41859 C177.159837,167.861038 173.991445,167.905466 170.855454,167.55081 C164.697433,166.838113 158.926912,164.477506 152.77212,163.680962 C140.10087,162.068526 127.794516,167.263796 115.878891,171.333585 C112.948961,172.333296 109.997502,173.269584 107.024516,174.142449 C105.048266,174.726151 103.065558,175.277605 101.066704,175.809709 C88.8203493,179.040979 76.3218012,181.229902 63.7052455,182.352975 C58.4312048,182.869098 53.1256582,182.986603 47.8338913,182.704486 C45.8221205,182.581941 43.8329538,182.381999 41.879308,182.059512 C35.194933,181.027553 28.9626413,178.863663 23.9315996,174.900294 C19.811183,171.646398 16.8629538,167.40569 14.618683,162.968266 C12.3213077,158.44037 10.6992531,153.60132 9.80399547,148.604683 C9.68128714,147.924234 9.57149547,147.240561 9.48107881,146.556888 C9.31962047,145.387335 9.19906492,144.211331 9.11941214,143.028878 C8.68492182,136.72621 9.43851683,130.398085 11.3410788,124.372989 C13.4723288,117.626556 17.0244121,111.151011 18.5873288,104.35298 C18.6519121,104.064891 18.7132663,103.777877 18.7713913,103.491939 C18.9848467,102.459421 19.1432986,101.416321 19.2460788,100.367037 C20.043683,92.0146166 16.9856621,83.8718131 14.5863913,75.7032106 C14.502433,75.4194218 14.4184746,75.1324081 14.3377455,74.8453944 C14.0794121,73.9381302 13.8318427,73.031941 13.5950371,72.1268268 C11.3733705,63.4906177 10.7565996,54.2449077 12.7360788,45.624823 C12.797433,45.3378093 12.8717038,45.0507957 12.9427455,44.7670069 C14.2679401,39.3181517 16.7599345,34.2208672 20.2471205,29.8261717 C23.9542038,25.182355 28.820558,21.3157327 34.0195163,17.9199417 C36.5533357,16.2645071 39.1732663,14.7176432 41.879308,13.2793499 C43.816808,12.2473907 45.8016691,11.2702543 47.8338913,10.3479407 C64.1250371,2.93073348 82.7088913,-0.690798548 101.086079,0.108969879 C102.054829,0.150893224 103.023579,0.202491187 103.992329,0.273438386 C104.961079,0.344385585 106.020245,0.428232275 107.034204,0.521753583 C118.872329,1.66980826 130.390766,4.4399739 141.828475,7.46812935 C145.661495,8.48396425 149.488058,9.52559813 153.311391,10.5478828 C155.013162,10.9993649 156.711704,11.4508471 158.413475,11.8894298 C166.747954,14.0404199 175.205141,15.988243 183.768891,17.4426606 C185.7516,17.7844971 187.736461,18.0962348 189.723475,18.3778737 C196.622474,19.3904435 203.577158,19.9795509 210.54837,20.141879 C213.258718,20.1956269 215.970141,20.1719778 218.682641,20.0709318 C220.051808,20.0214838 221.422051,19.9473117 222.79337,19.8484156 C236.953266,18.8519299 250.638475,15.5174116 264.346287,12.4021846 C266.328995,11.9507024 268.314933,11.50567 270.3041,11.0670873 C272.913266,10.4930599 275.522433,9.93838183 278.144516,9.42562708 C294.461495,6.2233285 309.005662,8.0647308 324.176287,14.6724949 C327.625037,16.1720607 331.070558,17.9844392 333.182433,20.799753 C335.294308,23.6150669 335.823891,27.0721304 336.21785,30.4098737 C336.776495,35.163336 337.141391,39.9780709 337.280245,44.8186048 C337.280245,45.1023936 337.280245,45.3894073 337.29962,45.676421 C337.519204,55.454235 336.789412,65.3255703 334.797016,74.8744183 Z" id="cloud" fill="#3792FC" fill-rule="nonzero" opacity="0.0463634673" transform="translate(173.168620, 91.426951) scale(1, -1) translate(-173.168620, -91.426951) "></path>
            <ellipse id="shadow_phone" fill="#C6E0FF" fill-rule="nonzero" opacity="0.400000006" cx="161.5" cy="282.597015" rx="89.5" ry="8.59701493"></ellipse>
            <g id="fillers" transform="translate(15.000000, 99.919633)" fill-rule="nonzero">
                <g id="big_tree" transform="translate(213.333333, 0.000000)">
                    <path d="M106.411143,91.0452681 C106.411143,131.115215 82.5901961,145.106143 53.2055715,145.106143 C23.8209468,145.106143 -3.55271368e-13,131.115224 -3.55271368e-13,91.0452681 C-3.55271368e-13,50.9753117 53.2055715,4.56676862e-05 53.2055715,4.56676862e-05 C53.2055715,4.56676862e-05 106.411143,50.9753346 106.411143,91.0452681 Z" id="Path" fill="#D7EAFF"></path>
                    <path d="M51.8122732,105.441794 L71.1468406,70.0702235 C71.1998197,69.9733011 71.1641966,69.8517819 71.0672742,69.7988028 C70.9742609,69.7479605 70.8577352,69.7785191 70.8016429,69.868464 L51.897737,100.181203 L52.1427115,85.1023853 L64.6372645,61.1065746 C64.6882779,61.0086033 64.650211,60.8878274 64.5522397,60.836814 C64.4583255,60.7879131 64.3425719,60.8206818 64.2882259,60.9115535 L52.2072987,81.1120082 L52.6479918,53.9922528 L66.9166875,33.6191685 C66.9800528,33.5286944 66.9580768,33.4039828 66.8676027,33.3406175 C66.783018,33.2813769 66.6672389,33.2962734 66.600405,33.374996 L52.7171458,49.7278695 L52.885658,19.2904467 C52.8862695,19.1799914 52.7972236,19.089954 52.6867683,19.0893425 C52.5779291,19.0887399 52.4885891,19.1752825 52.4857301,19.2840859 L51.26263,65.8306218 L51.4048522,63.1150255 L36.9031405,40.9179323 C36.8427274,40.8254607 36.7187898,40.7994722 36.6263183,40.8598853 C36.5394833,40.916616 36.510429,41.0303173 36.5594031,41.1217515 L51.1318247,68.328318 L49.5465036,98.616106 L49.4992049,97.8123547 L34.8097528,77.2872799 C34.7454679,77.1974568 34.6205387,77.176754 34.5307156,77.2410389 C34.4438786,77.3031866 34.4211816,77.4225906 34.4791591,77.5122656 L49.4398369,100.652232 L49.2415087,104.440041 L49.2059531,104.497125 L49.222263,104.807992 L45.1999185,181.651376 L50.5740265,181.651376 L51.2189195,141.960285 L66.1318944,118.89401 C66.1918655,118.801251 66.1652858,118.677439 66.072527,118.617468 C65.982852,118.55949 65.8634484,118.582187 65.8013006,118.669024 L51.2675229,138.976555 L51.8122732,105.441794 Z" id="Path" fill="#C9C9C9"></path>
                </g>
                <g id="medium_tree" transform="translate(0.000000, 132.808661)">
                    <path d="M28.7760767,24.620787 C28.7760767,35.4566426 22.3343233,39.2401191 14.3880383,39.2401191 C6.44175331,39.2401191 1.98951966e-13,35.4566426 1.98951966e-13,24.620787 C1.98951966e-13,13.7849313 14.3880383,-7.81597009e-14 14.3880383,-7.81597009e-14 C14.3880383,-7.81597009e-14 28.7760767,13.7849182 28.7760767,24.620787 Z" id="Path" fill="#C6E0FF"></path>
                    <polygon id="Path" fill="#C9C9C9" points="13.8640571 37.5826952 14.0111723 28.5140714 20.1436901 17.2948257 14.0343323 27.0911967 14.1005505 23.0137248 18.3270948 14.8966198 14.1181651 21.9346626 14.1181651 21.9346626 14.2372273 14.6007584 18.7632212 8.13878084 14.2561468 13.4476493 14.3305199 0.000146788991 13.8627523 17.8020632 13.9009174 17.067792 9.29957187 10.0245301 13.8271967 18.4776188 13.3985729 26.6681182 13.3858512 26.4508705 8.08122324 19.0386789 13.3695413 27.2187401 13.3160449 28.243001 13.3065851 28.2583323 13.3108257 28.3424913 12.2229562 49.1229195 13.6764934 49.1229195 13.850683 38.3893823 19.1266055 30.2295454"></polygon>
                </g>
                <g id="small_tree" transform="translate(272.382379, 155.566356)">
                    <path d="M19.4634862,16.6530283 C19.4634862,23.982219 15.1066455,26.5413023 9.73174149,26.5413023 C9.60722963,26.5413023 9.48291458,26.5399193 9.35879633,26.5371531 C9.10976065,26.5318133 8.86309969,26.5199592 8.61940714,26.5033558 C3.76866055,26.1600489 -1.08357767e-13,23.4693382 -1.08357767e-13,16.6530283 C-1.08357767e-13,9.59895291 9.01430214,0.697906626 9.69142018,0.0391567788 L9.69260754,0.0379759429 C9.71870336,0.0124803262 9.73175127,2.60958206e-05 9.73175127,2.60958206e-05 C9.73175127,2.60958206e-05 19.4634862,9.32383445 19.4634862,16.6530283 Z" id="Path" fill="#94C5FF"></path>
                    <path d="M9.37717431,25.4200726 L12.9365203,20.4465778 L9.3682789,25.96617 L9.35879633,26.5371629 C9.10976065,26.531823 8.86309969,26.519969 8.61940714,26.5033655 L9.00303853,19.1706128 L9.00007013,19.1136913 L9.00659409,19.1030181 L9.0427629,18.4104775 L5.46561631,12.8772567 L9.05402324,17.891063 L9.0623315,18.0381064 L9.35226585,12.4977843 L6.28979409,6.78016718 L9.38962202,11.525366 L9.69142018,0.0391437309 L9.69260754,3.90798505e-14 L9.69260754,0.0379498471 L9.64220999,9.09553191 L12.6910532,5.50474699 L9.62976228,9.87581651 L9.54912294,14.8362601 L12.3957757,10.0756355 L9.53726891,15.566157 L9.49220469,18.3238687 L13.624915,11.6978854 L9.47678858,19.2861945 L9.37717431,25.4200726 Z" id="Path" fill="#3F3D56"></path>
                </g>
            </g>
            <g id="mobile" transform="translate(113.573014, 53.000000)">
                <g transform="translate(0.000000, 0.000000)" fill-rule="nonzero">
                    <g id="phone_case">
                        <rect id="Rectangle" fill="#767E86" x="111.894615" y="51.8989668" width="3.36370234" height="27.7333888" rx="0.747534353"></rect>
                        <rect id="Rectangle" fill="#767E86" x="0.068648318" y="30.17219" width="1.88779123" height="9.13005015" rx="0.490363303"></rect>
                        <rect id="Rectangle" fill="#767E86" x="-1.02140518e-13" y="46.8877374" width="2.12805872" height="15.8917806" rx="0.55277472"></rect>
                        <rect id="Rectangle" fill="#767E86" x="0.03432579" y="68.3399242" width="2.02508787" height="16.029074" rx="0.526026504"></rect>
                        <rect id="Rectangle" fill="#0A1D32" x="1.13785933" y="0" width="112.572255" height="228.786557" rx="11.6432864"></rect>
                    </g>
                    <g id="camera" transform="translate(46.564890, 6.617688)" fill="#E6E8EC">
                        <rect id="Rectangle" x="-2.0783375e-13" y="0.214520693" width="15.7201647" height="3.19208644" rx="0.829158818"></rect>
                        <circle id="Oval" cx="19.9076306" cy="1.81056391" r="1.81056391"></circle>
                    </g>
                </g>
                <g id="mobile_screen" transform="translate(7.976426, 5.959633)">
                    <mask id="mask-3" fill="white">
                        <use xlink:href="#path-2"></use>
                    </mask>
                    <use id="screen" fill="#F3F4F6" fill-rule="nonzero" xlink:href="#path-2"></use>
                    <g id="card_1" opacity="0.638020833" mask="url(#mask-3)">
                        <g transform="translate(5.000000, 32.000000)">
                            <mask id="mask-5" fill="white">
                                <use xlink:href="#path-4"></use>
                            </mask>
                            <use id="shadow" stroke="none" fill="#ECECED" fill-rule="evenodd" xlink:href="#path-4"></use>
                            <mask id="mask-7" fill="white">
                                <use xlink:href="#path-6"></use>
                            </mask>
                            <use id="card" stroke="none" fill="#FFFFFF" fill-rule="evenodd" xlink:href="#path-6"></use>
                            <g id="btn" stroke="none" stroke-width="1" fill="none" fill-rule="evenodd" mask="url(#mask-7)">
                                <g transform="translate(5.106399, 37.787355)" fill="#3792FC" id="Background">
                                    <rect x="0" y="0" width="29.9575425" height="10.2127986" rx="1.36170648"></rect>
                                </g>
                            </g>
                            <g id="text" stroke="none" stroke-width="1" fill="none" fill-rule="evenodd" mask="url(#mask-7)" opacity="0.200000003">
                                <g transform="translate(5.106399, 6.808532)" fill="#767E86">
                                    <rect id="Rectangle" x="-2.09610107e-13" y="4.88498131e-15" width="46.9788734" height="3.74469281" rx="1.8723464"></rect>
                                    <rect id="Rectangle-Copy-6" x="1.63424829e-13" y="7.148959" width="33.7022353" height="3.74469281" rx="1.8723464"></rect>
                                    <rect id="Rectangle-Copy-7" x="1.77635684e-13" y="14.297918" width="48.6810065" height="3.74469281" rx="1.8723464"></rect>
                                </g>
                            </g>
                            <g id="image" stroke="none" stroke-width="1" fill="none" fill-rule="evenodd" mask="url(#mask-7)">
                                <g transform="translate(66.383191, 5.787253)">
                                    <mask id="mask-9" fill="white">
                                        <use xlink:href="#path-8"></use>
                                    </mask>
                                    <use id="Mask" stroke="none" fill="#F3F4F6" fill-rule="evenodd" xlink:href="#path-8"></use>
                                    <circle id="Oval" stroke="none" fill="#94C5FF" fill-rule="evenodd" mask="url(#mask-9)" cx="15.3191979" cy="16.0000511" r="5.10639929"></circle>
                                    <rect id="Rectangle" stroke="none" fill="#68AEFF" fill-rule="evenodd" mask="url(#mask-9)" x="-2.38298633" y="14.297918" width="6.80853238" height="6.80853238" rx="1.36170648"></rect>
                                    <rect id="Rectangle" stroke="none" fill="#C6E0FF" fill-rule="evenodd" mask="url(#mask-9)" x="-9.87237195" y="0" width="23.4894367" height="7.48938562" rx="3.74469281"></rect>
                                </g>
                            </g>
                            <g id="stars" stroke="none" stroke-width="1" fill="none" fill-rule="evenodd" mask="url(#mask-7)">
                                <g transform="translate(5.446826, 28.595836)">
                                    <g id="flaticon1563861756-svg" transform="translate(-0.000000, -0.000000)">
                                        <path d="M1.96029575,0.572845473 L2.14491844,0.961360973 C2.19349155,1.06357705 2.28968502,1.1349724 2.40158767,1.15186235 L2.80924459,1.21339176 C2.97407525,1.23827037 3.08752881,1.39206011 3.0626502,1.55689077 C3.05311835,1.62004311 3.02379976,1.67854419 2.97891241,1.72397767 L2.66888623,2.03777578 C2.59225223,2.11534215 2.55741118,2.22492382 2.57517839,2.33250466 L2.64990238,2.78496025 C2.67613339,2.94378968 2.56864113,3.09381081 2.4098117,3.12004183 C2.34562585,3.13064225 2.27973862,3.11946567 2.22263909,3.08829137 L1.86109883,2.89090327 C1.75943026,2.83539585 1.63651354,2.8353943 1.53484357,2.89089914 L1.17327404,3.08829137 C1.03196688,3.16543541 0.854877196,3.11342092 0.777733158,2.97211376 C0.746559062,2.91501119 0.735382894,2.84912135 0.745983742,2.78493295 L0.820703223,2.33250466 C0.838470424,2.22492382 0.803629381,2.11534215 0.726995382,2.03777578 L0.416969197,1.72397767 C0.299811047,1.60539411 0.300966565,1.41428771 0.419550118,1.29712956 C0.464983591,1.25224221 0.523484676,1.22292362 0.586637019,1.21339176 L0.994303994,1.15186083 C1.1062011,1.13497172 1.20239096,1.06358252 1.25096642,0.961373778 L1.43562318,0.572833253 C1.50447977,0.427950526 1.67774972,0.366319163 1.82263245,0.435175751 C1.88299168,0.463861925 1.93161239,0.512484899 1.96029575,0.572845473 Z" id="Path" fill="#FFF4B4" fill-rule="nonzero"></path>
                                    </g>
                                    <g id="flaticon1563861756-svg-copy" transform="translate(5.106399, -0.000000)">
                                        <path d="M1.96029575,0.572845473 L2.14491844,0.961360973 C2.19349155,1.06357705 2.28968502,1.1349724 2.40158767,1.15186235 L2.80924459,1.21339176 C2.97407525,1.23827037 3.08752881,1.39206011 3.0626502,1.55689077 C3.05311835,1.62004311 3.02379976,1.67854419 2.97891241,1.72397767 L2.66888623,2.03777578 C2.59225223,2.11534215 2.55741118,2.22492382 2.57517839,2.33250466 L2.64990238,2.78496025 C2.67613339,2.94378968 2.56864113,3.09381081 2.4098117,3.12004183 C2.34562585,3.13064225 2.27973862,3.11946567 2.22263909,3.08829137 L1.86109883,2.89090327 C1.75943026,2.83539585 1.63651354,2.8353943 1.53484357,2.89089914 L1.17327404,3.08829137 C1.03196688,3.16543541 0.854877196,3.11342092 0.777733158,2.97211376 C0.746559062,2.91501119 0.735382894,2.84912135 0.745983742,2.78493295 L0.820703223,2.33250466 C0.838470424,2.22492382 0.803629381,2.11534215 0.726995382,2.03777578 L0.416969197,1.72397767 C0.299811047,1.60539411 0.300966565,1.41428771 0.419550118,1.29712956 C0.464983591,1.25224221 0.523484676,1.22292362 0.586637019,1.21339176 L0.994303994,1.15186083 C1.1062011,1.13497172 1.20239096,1.06358252 1.25096642,0.961373778 L1.43562318,0.572833253 C1.50447977,0.427950526 1.67774972,0.366319163 1.82263245,0.435175751 C1.88299168,0.463861925 1.93161239,0.512484899 1.96029575,0.572845473 Z" id="Path" fill="#FFF4B4" fill-rule="nonzero"></path>
                                    </g>
                                    <g id="flaticon1563861756-svg-copy-3" transform="translate(15.319198, -0.000000)">
                                        <path d="M1.96029575,0.572845473 L2.14491844,0.961360973 C2.19349155,1.06357705 2.28968502,1.1349724 2.40158767,1.15186235 L2.80924459,1.21339176 C2.97407525,1.23827037 3.08752881,1.39206011 3.0626502,1.55689077 C3.05311835,1.62004311 3.02379976,1.67854419 2.97891241,1.72397767 L2.66888623,2.03777578 C2.59225223,2.11534215 2.55741118,2.22492382 2.57517839,2.33250466 L2.64990238,2.78496025 C2.67613339,2.94378968 2.56864113,3.09381081 2.4098117,3.12004183 C2.34562585,3.13064225 2.27973862,3.11946567 2.22263909,3.08829137 L1.86109883,2.89090327 C1.75943026,2.83539585 1.63651354,2.8353943 1.53484357,2.89089914 L1.17327404,3.08829137 C1.03196688,3.16543541 0.854877196,3.11342092 0.777733158,2.97211376 C0.746559062,2.91501119 0.735382894,2.84912135 0.745983742,2.78493295 L0.820703223,2.33250466 C0.838470424,2.22492382 0.803629381,2.11534215 0.726995382,2.03777578 L0.416969197,1.72397767 C0.299811047,1.60539411 0.300966565,1.41428771 0.419550118,1.29712956 C0.464983591,1.25224221 0.523484676,1.22292362 0.586637019,1.21339176 L0.994303994,1.15186083 C1.1062011,1.13497172 1.20239096,1.06358252 1.25096642,0.961373778 L1.43562318,0.572833253 C1.50447977,0.427950526 1.67774972,0.366319163 1.82263245,0.435175751 C1.88299168,0.463861925 1.93161239,0.512484899 1.96029575,0.572845473 Z" id="Path" fill="#FFF4B4" fill-rule="nonzero"></path>
                                    </g>
                                    <g id="flaticon1563861756-svg-copy-2" transform="translate(10.212799, -0.000000)">
                                        <path d="M1.96029575,0.572845473 L2.14491844,0.961360973 C2.19349155,1.06357705 2.28968502,1.1349724 2.40158767,1.15186235 L2.80924459,1.21339176 C2.97407525,1.23827037 3.08752881,1.39206011 3.0626502,1.55689077 C3.05311835,1.62004311 3.02379976,1.67854419 2.97891241,1.72397767 L2.66888623,2.03777578 C2.59225223,2.11534215 2.55741118,2.22492382 2.57517839,2.33250466 L2.64990238,2.78496025 C2.67613339,2.94378968 2.56864113,3.09381081 2.4098117,3.12004183 C2.34562585,3.13064225 2.27973862,3.11946567 2.22263909,3.08829137 L1.86109883,2.89090327 C1.75943026,2.83539585 1.63651354,2.8353943 1.53484357,2.89089914 L1.17327404,3.08829137 C1.03196688,3.16543541 0.854877196,3.11342092 0.777733158,2.97211376 C0.746559062,2.91501119 0.735382894,2.84912135 0.745983742,2.78493295 L0.820703223,2.33250466 C0.838470424,2.22492382 0.803629381,2.11534215 0.726995382,2.03777578 L0.416969197,1.72397767 C0.299811047,1.60539411 0.300966565,1.41428771 0.419550118,1.29712956 C0.464983591,1.25224221 0.523484676,1.22292362 0.586637019,1.21339176 L0.994303994,1.15186083 C1.1062011,1.13497172 1.20239096,1.06358252 1.25096642,0.961373778 L1.43562318,0.572833253 C1.50447977,0.427950526 1.67774972,0.366319163 1.82263245,0.435175751 C1.88299168,0.463861925 1.93161239,0.512484899 1.96029575,0.572845473 Z" id="Path" fill="#FFF4B4" fill-rule="nonzero"></path>
                                    </g>
                                    <g id="flaticon1563861756-svg-copy-4" transform="translate(20.425597, -0.000000)">
                                        <path d="M1.96029575,0.572845473 L2.14491844,0.961360973 C2.19349155,1.06357705 2.28968502,1.1349724 2.40158767,1.15186235 L2.80924459,1.21339176 C2.97407525,1.23827037 3.08752881,1.39206011 3.0626502,1.55689077 C3.05311835,1.62004311 3.02379976,1.67854419 2.97891241,1.72397767 L2.66888623,2.03777578 C2.59225223,2.11534215 2.55741118,2.22492382 2.57517839,2.33250466 L2.64990238,2.78496025 C2.67613339,2.94378968 2.56864113,3.09381081 2.4098117,3.12004183 C2.34562585,3.13064225 2.27973862,3.11946567 2.22263909,3.08829137 L1.86109883,2.89090327 C1.75943026,2.83539585 1.63651354,2.8353943 1.53484357,2.89089914 L1.17327404,3.08829137 C1.03196688,3.16543541 0.854877196,3.11342092 0.777733158,2.97211376 C0.746559062,2.91501119 0.735382894,2.84912135 0.745983742,2.78493295 L0.820703223,2.33250466 C0.838470424,2.22492382 0.803629381,2.11534215 0.726995382,2.03777578 L0.416969197,1.72397767 C0.299811047,1.60539411 0.300966565,1.41428771 0.419550118,1.29712956 C0.464983591,1.25224221 0.523484676,1.22292362 0.586637019,1.21339176 L0.994303994,1.15186083 C1.1062011,1.13497172 1.20239096,1.06358252 1.25096642,0.961373778 L1.43562318,0.572833253 C1.50447977,0.427950526 1.67774972,0.366319163 1.82263245,0.435175751 C1.88299168,0.463861925 1.93161239,0.512484899 1.96029575,0.572845473 Z" id="Path" fill="#DFDFDF" fill-rule="nonzero"></path>
                                    </g>
                                </g>
                            </g>
                        </g>
                    </g>
                    <g id="card_2" opacity="0.638020833" mask="url(#mask-3)">
                        <g transform="translate(4.000000, 155.000000)">
                            <mask id="mask-11" fill="white">
                                <use xlink:href="#path-10"></use>
                            </mask>
                            <use id="shadow" stroke="none" fill="#ECECED" fill-rule="evenodd" xlink:href="#path-10"></use>
                            <mask id="mask-13" fill="white">
                                <use xlink:href="#path-12"></use>
                            </mask>
                            <use id="card" stroke="none" fill="#FFFFFF" fill-rule="evenodd" xlink:href="#path-12"></use>
                            <g id="btn" stroke="none" stroke-width="1" fill="none" fill-rule="evenodd" mask="url(#mask-13)">
                                <g transform="translate(5.106399, 37.787355)" fill="#3792FC" id="Background">
                                    <rect x="0" y="0" width="29.9575425" height="10.2127986" rx="1.36170648"></rect>
                                </g>
                            </g>
                            <g id="text" stroke="none" stroke-width="1" fill="none" fill-rule="evenodd" mask="url(#mask-13)" opacity="0.200000003">
                                <g transform="translate(5.106399, 6.808532)" fill="#767E86">
                                    <rect id="Rectangle" x="2.45137244e-13" y="5.55111512e-15" width="46.9788734" height="3.74469281" rx="1.8723464"></rect>
                                    <rect id="Rectangle-Copy-6" x="1.66977543e-13" y="7.148959" width="33.7022353" height="3.74469281" rx="1.8723464"></rect>
                                    <rect id="Rectangle-Copy-7" x="-2.73558953e-13" y="14.297918" width="48.6810065" height="3.74469281" rx="1.8723464"></rect>
                                </g>
                            </g>
                            <g id="illustration" stroke="none" stroke-width="1" fill="none" fill-rule="evenodd" mask="url(#mask-13)">
                                <g transform="translate(66.383191, 5.787253)">
                                    <mask id="mask-15" fill="white">
                                        <use xlink:href="#path-14"></use>
                                    </mask>
                                    <use id="Mask" stroke="none" fill="#F3F4F6" fill-rule="evenodd" xlink:href="#path-14"></use>
                                    <circle id="Oval" stroke="none" fill="#94C5FF" fill-rule="evenodd" mask="url(#mask-15)" cx="15.3191979" cy="16.0000511" r="5.10639929"></circle>
                                    <rect id="Rectangle" stroke="none" fill="#68AEFF" fill-rule="evenodd" mask="url(#mask-15)" x="-2.38298633" y="14.297918" width="6.80853238" height="6.80853238" rx="1.36170648"></rect>
                                    <rect id="Rectangle" stroke="none" fill="#C6E0FF" fill-rule="evenodd" mask="url(#mask-15)" x="-9.87237195" y="0" width="23.4894367" height="7.48938562" rx="3.74469281"></rect>
                                </g>
                            </g>
                            <g id="stars" stroke="none" stroke-width="1" fill="none" fill-rule="evenodd" mask="url(#mask-13)">
                                <g transform="translate(5.446826, 28.595836)">
                                    <g id="flaticon1563861756-svg" transform="translate(-0.000000, 0.000000)">
                                        <path d="M1.96029575,0.572845473 L2.14491844,0.961360973 C2.19349155,1.06357705 2.28968502,1.1349724 2.40158767,1.15186235 L2.80924459,1.21339176 C2.97407525,1.23827037 3.08752881,1.39206011 3.0626502,1.55689077 C3.05311835,1.62004311 3.02379976,1.67854419 2.97891241,1.72397767 L2.66888623,2.03777578 C2.59225223,2.11534215 2.55741118,2.22492382 2.57517839,2.33250466 L2.64990238,2.78496025 C2.67613339,2.94378968 2.56864113,3.09381081 2.4098117,3.12004183 C2.34562585,3.13064225 2.27973862,3.11946567 2.22263909,3.08829137 L1.86109883,2.89090327 C1.75943026,2.83539585 1.63651354,2.8353943 1.53484357,2.89089914 L1.17327404,3.08829137 C1.03196688,3.16543541 0.854877196,3.11342092 0.777733158,2.97211376 C0.746559062,2.91501119 0.735382894,2.84912135 0.745983742,2.78493295 L0.820703223,2.33250466 C0.838470424,2.22492382 0.803629381,2.11534215 0.726995382,2.03777578 L0.416969197,1.72397767 C0.299811047,1.60539411 0.300966565,1.41428771 0.419550118,1.29712956 C0.464983591,1.25224221 0.523484676,1.22292362 0.586637019,1.21339176 L0.994303994,1.15186083 C1.1062011,1.13497172 1.20239096,1.06358252 1.25096642,0.961373778 L1.43562318,0.572833253 C1.50447977,0.427950526 1.67774972,0.366319163 1.82263245,0.435175751 C1.88299168,0.463861925 1.93161239,0.512484899 1.96029575,0.572845473 Z" id="Path" fill="#FFF4B4" fill-rule="nonzero"></path>
                                    </g>
                                    <g id="flaticon1563861756-svg-copy" transform="translate(5.106399, 0.000000)">
                                        <path d="M1.96029575,0.572845473 L2.14491844,0.961360973 C2.19349155,1.06357705 2.28968502,1.1349724 2.40158767,1.15186235 L2.80924459,1.21339176 C2.97407525,1.23827037 3.08752881,1.39206011 3.0626502,1.55689077 C3.05311835,1.62004311 3.02379976,1.67854419 2.97891241,1.72397767 L2.66888623,2.03777578 C2.59225223,2.11534215 2.55741118,2.22492382 2.57517839,2.33250466 L2.64990238,2.78496025 C2.67613339,2.94378968 2.56864113,3.09381081 2.4098117,3.12004183 C2.34562585,3.13064225 2.27973862,3.11946567 2.22263909,3.08829137 L1.86109883,2.89090327 C1.75943026,2.83539585 1.63651354,2.8353943 1.53484357,2.89089914 L1.17327404,3.08829137 C1.03196688,3.16543541 0.854877196,3.11342092 0.777733158,2.97211376 C0.746559062,2.91501119 0.735382894,2.84912135 0.745983742,2.78493295 L0.820703223,2.33250466 C0.838470424,2.22492382 0.803629381,2.11534215 0.726995382,2.03777578 L0.416969197,1.72397767 C0.299811047,1.60539411 0.300966565,1.41428771 0.419550118,1.29712956 C0.464983591,1.25224221 0.523484676,1.22292362 0.586637019,1.21339176 L0.994303994,1.15186083 C1.1062011,1.13497172 1.20239096,1.06358252 1.25096642,0.961373778 L1.43562318,0.572833253 C1.50447977,0.427950526 1.67774972,0.366319163 1.82263245,0.435175751 C1.88299168,0.463861925 1.93161239,0.512484899 1.96029575,0.572845473 Z" id="Path" fill="#FFF4B4" fill-rule="nonzero"></path>
                                    </g>
                                    <g id="flaticon1563861756-svg-copy-3" transform="translate(15.319198, 0.000000)">
                                        <path d="M1.96029575,0.572845473 L2.14491844,0.961360973 C2.19349155,1.06357705 2.28968502,1.1349724 2.40158767,1.15186235 L2.80924459,1.21339176 C2.97407525,1.23827037 3.08752881,1.39206011 3.0626502,1.55689077 C3.05311835,1.62004311 3.02379976,1.67854419 2.97891241,1.72397767 L2.66888623,2.03777578 C2.59225223,2.11534215 2.55741118,2.22492382 2.57517839,2.33250466 L2.64990238,2.78496025 C2.67613339,2.94378968 2.56864113,3.09381081 2.4098117,3.12004183 C2.34562585,3.13064225 2.27973862,3.11946567 2.22263909,3.08829137 L1.86109883,2.89090327 C1.75943026,2.83539585 1.63651354,2.8353943 1.53484357,2.89089914 L1.17327404,3.08829137 C1.03196688,3.16543541 0.854877196,3.11342092 0.777733158,2.97211376 C0.746559062,2.91501119 0.735382894,2.84912135 0.745983742,2.78493295 L0.820703223,2.33250466 C0.838470424,2.22492382 0.803629381,2.11534215 0.726995382,2.03777578 L0.416969197,1.72397767 C0.299811047,1.60539411 0.300966565,1.41428771 0.419550118,1.29712956 C0.464983591,1.25224221 0.523484676,1.22292362 0.586637019,1.21339176 L0.994303994,1.15186083 C1.1062011,1.13497172 1.20239096,1.06358252 1.25096642,0.961373778 L1.43562318,0.572833253 C1.50447977,0.427950526 1.67774972,0.366319163 1.82263245,0.435175751 C1.88299168,0.463861925 1.93161239,0.512484899 1.96029575,0.572845473 Z" id="Path" fill="#FFF4B4" fill-rule="nonzero"></path>
                                    </g>
                                    <g id="flaticon1563861756-svg-copy-2" transform="translate(10.212799, 0.000000)">
                                        <path d="M1.96029575,0.572845473 L2.14491844,0.961360973 C2.19349155,1.06357705 2.28968502,1.1349724 2.40158767,1.15186235 L2.80924459,1.21339176 C2.97407525,1.23827037 3.08752881,1.39206011 3.0626502,1.55689077 C3.05311835,1.62004311 3.02379976,1.67854419 2.97891241,1.72397767 L2.66888623,2.03777578 C2.59225223,2.11534215 2.55741118,2.22492382 2.57517839,2.33250466 L2.64990238,2.78496025 C2.67613339,2.94378968 2.56864113,3.09381081 2.4098117,3.12004183 C2.34562585,3.13064225 2.27973862,3.11946567 2.22263909,3.08829137 L1.86109883,2.89090327 C1.75943026,2.83539585 1.63651354,2.8353943 1.53484357,2.89089914 L1.17327404,3.08829137 C1.03196688,3.16543541 0.854877196,3.11342092 0.777733158,2.97211376 C0.746559062,2.91501119 0.735382894,2.84912135 0.745983742,2.78493295 L0.820703223,2.33250466 C0.838470424,2.22492382 0.803629381,2.11534215 0.726995382,2.03777578 L0.416969197,1.72397767 C0.299811047,1.60539411 0.300966565,1.41428771 0.419550118,1.29712956 C0.464983591,1.25224221 0.523484676,1.22292362 0.586637019,1.21339176 L0.994303994,1.15186083 C1.1062011,1.13497172 1.20239096,1.06358252 1.25096642,0.961373778 L1.43562318,0.572833253 C1.50447977,0.427950526 1.67774972,0.366319163 1.82263245,0.435175751 C1.88299168,0.463861925 1.93161239,0.512484899 1.96029575,0.572845473 Z" id="Path" fill="#FFF4B4" fill-rule="nonzero"></path>
                                    </g>
                                    <g id="flaticon1563861756-svg-copy-4" transform="translate(20.425597, 0.000000)">
                                        <path d="M1.96029575,0.572845473 L2.14491844,0.961360973 C2.19349155,1.06357705 2.28968502,1.1349724 2.40158767,1.15186235 L2.80924459,1.21339176 C2.97407525,1.23827037 3.08752881,1.39206011 3.0626502,1.55689077 C3.05311835,1.62004311 3.02379976,1.67854419 2.97891241,1.72397767 L2.66888623,2.03777578 C2.59225223,2.11534215 2.55741118,2.22492382 2.57517839,2.33250466 L2.64990238,2.78496025 C2.67613339,2.94378968 2.56864113,3.09381081 2.4098117,3.12004183 C2.34562585,3.13064225 2.27973862,3.11946567 2.22263909,3.08829137 L1.86109883,2.89090327 C1.75943026,2.83539585 1.63651354,2.8353943 1.53484357,2.89089914 L1.17327404,3.08829137 C1.03196688,3.16543541 0.854877196,3.11342092 0.777733158,2.97211376 C0.746559062,2.91501119 0.735382894,2.84912135 0.745983742,2.78493295 L0.820703223,2.33250466 C0.838470424,2.22492382 0.803629381,2.11534215 0.726995382,2.03777578 L0.416969197,1.72397767 C0.299811047,1.60539411 0.300966565,1.41428771 0.419550118,1.29712956 C0.464983591,1.25224221 0.523484676,1.22292362 0.586637019,1.21339176 L0.994303994,1.15186083 C1.1062011,1.13497172 1.20239096,1.06358252 1.25096642,0.961373778 L1.43562318,0.572833253 C1.50447977,0.427950526 1.67774972,0.366319163 1.82263245,0.435175751 C1.88299168,0.463861925 1.93161239,0.512484899 1.96029575,0.572845473 Z" id="Path" fill="#DFDFDF" fill-rule="nonzero"></path>
                                    </g>
                                </g>
                            </g>
                        </g>
                    </g>
                    <g id="card_3" mask="url(#mask-3)">
                        <g transform="translate(5.000000, 94.000000)">
                            <mask id="mask-17" fill="white">
                                <use xlink:href="#path-16"></use>
                            </mask>
                            <use id="shadow" stroke="none" fill="#D0D0D0" fill-rule="evenodd" xlink:href="#path-16"></use>
                            <mask id="mask-19" fill="white">
                                <use xlink:href="#path-18"></use>
                            </mask>
                            <use id="card" stroke="none" fill="#FFFFFF" fill-rule="evenodd" xlink:href="#path-18"></use>
                            <g id="btn" stroke="none" stroke-width="1" fill="none" fill-rule="evenodd" mask="url(#mask-19)">
                                <g transform="translate(5.061236, 37.453148)" fill="#3792FC" id="Background">
                                    <rect x="0" y="0" width="29.6925854" height="10.1224723" rx="1.34966297"></rect>
                                </g>
                            </g>
                            <g id="text" stroke="none" stroke-width="1" fill="none" fill-rule="evenodd" mask="url(#mask-19)" opacity="0.200000003">
                                <g transform="translate(5.061236, 6.748315)" fill="#767E86">
                                    <rect id="Rectangle" x="-1.38555833e-13" y="3.55271368e-15" width="46.5633726" height="3.71157318" rx="1.85578659"></rect>
                                    <rect id="Rectangle-Copy-6" x="-3.05533376e-13" y="7.08573062" width="33.4041586" height="3.71157318" rx="1.85578659"></rect>
                                    <rect id="Rectangle-Copy-7" x="-2.91322522e-13" y="14.1714612" width="48.2504514" height="3.71157318" rx="1.85578659"></rect>
                                </g>
                            </g>
                            <g id="image" stroke="none" stroke-width="1" fill="none" fill-rule="evenodd" mask="url(#mask-19)">
                                <g transform="translate(65.796070, 5.736068)">
                                    <mask id="mask-21" fill="white">
                                        <use xlink:href="#path-20"></use>
                                    </mask>
                                    <use id="Mask" stroke="none" fill="#F3F4F6" fill-rule="evenodd" xlink:href="#path-20"></use>
                                    <circle id="Oval" stroke="none" fill="#94C5FF" fill-rule="evenodd" mask="url(#mask-21)" cx="15.1837085" cy="15.85854" r="5.06123616"></circle>
                                    <rect id="Rectangle" stroke="none" fill="#68AEFF" fill-rule="evenodd" mask="url(#mask-21)" x="-2.36191021" y="14.1714612" width="6.74831487" height="6.74831487" rx="1.34966297"></rect>
                                    <rect id="Rectangle" stroke="none" fill="#C6E0FF" fill-rule="evenodd" mask="url(#mask-21)" x="-9.78505657" y="0" width="23.2816863" height="7.42314636" rx="3.71157318"></rect>
                                </g>
                            </g>
                            <g id="stars" stroke="none" stroke-width="1" fill="none" fill-rule="evenodd" mask="url(#mask-19)">
                                <g transform="translate(5.398652, 28.342922)">
                                    <g id="flaticon1563861756-svg" transform="translate(-0.000000, -0.000000)">
                                        <path d="M1.94295808,0.567778988 L2.12594788,0.952858295 C2.17409139,1.05417033 2.26943409,1.12493423 2.38034703,1.1416748 L2.78439846,1.20266002 C2.94777128,1.22731858 3.06022141,1.37974815 3.03556285,1.54312097 C3.02611529,1.60571477 2.99705601,1.66369845 2.95256567,1.70873009 L2.64528148,2.01975284 C2.56932527,2.09663318 2.53479237,2.20524566 2.55240243,2.31187501 L2.62646553,2.7603289 C2.65246455,2.91775357 2.545923,3.06644786 2.38849832,3.09244687 C2.32488015,3.10295355 2.25957565,3.09187582 2.20298114,3.06097723 L1.84463849,2.86533491 C1.74386913,2.81031843 1.62203953,2.81031689 1.52126877,2.86533082 L1.16289711,3.06097723 C1.02283973,3.13743897 0.847316305,3.08588453 0.770854561,2.94582715 C0.739956182,2.88922962 0.72887886,2.82392253 0.73938595,2.76030184 L0.813444581,2.31187501 C0.831054642,2.20524566 0.796521747,2.09663318 0.720565531,2.01975284 L0.413281347,1.70873009 C0.297159393,1.59119534 0.298304691,1.40177915 0.415839442,1.2856572 C0.460871082,1.24116685 0.518854759,1.21210757 0.581448556,1.20266002 L0.985509954,1.14167329 C1.09641739,1.12493355 1.19175651,1.05417576 1.23990235,0.952870987 L1.42292593,0.567766876 C1.49117352,0.424165553 1.662911,0.363079284 1.80651232,0.431326875 C1.86633772,0.459759337 1.9145284,0.507952268 1.94295808,0.567778988 Z" id="Path" fill="#FFF4B4" fill-rule="nonzero"></path>
                                    </g>
                                    <g id="flaticon1563861756-svg-copy" transform="translate(5.061236, -0.000000)">
                                        <path d="M1.94295808,0.567778988 L2.12594788,0.952858295 C2.17409139,1.05417033 2.26943409,1.12493423 2.38034703,1.1416748 L2.78439846,1.20266002 C2.94777128,1.22731858 3.06022141,1.37974815 3.03556285,1.54312097 C3.02611529,1.60571477 2.99705601,1.66369845 2.95256567,1.70873009 L2.64528148,2.01975284 C2.56932527,2.09663318 2.53479237,2.20524566 2.55240243,2.31187501 L2.62646553,2.7603289 C2.65246455,2.91775357 2.545923,3.06644786 2.38849832,3.09244687 C2.32488015,3.10295355 2.25957565,3.09187582 2.20298114,3.06097723 L1.84463849,2.86533491 C1.74386913,2.81031843 1.62203953,2.81031689 1.52126877,2.86533082 L1.16289711,3.06097723 C1.02283973,3.13743897 0.847316305,3.08588453 0.770854561,2.94582715 C0.739956182,2.88922962 0.72887886,2.82392253 0.73938595,2.76030184 L0.813444581,2.31187501 C0.831054642,2.20524566 0.796521747,2.09663318 0.720565531,2.01975284 L0.413281347,1.70873009 C0.297159393,1.59119534 0.298304691,1.40177915 0.415839442,1.2856572 C0.460871082,1.24116685 0.518854759,1.21210757 0.581448556,1.20266002 L0.985509954,1.14167329 C1.09641739,1.12493355 1.19175651,1.05417576 1.23990235,0.952870987 L1.42292593,0.567766876 C1.49117352,0.424165553 1.662911,0.363079284 1.80651232,0.431326875 C1.86633772,0.459759337 1.9145284,0.507952268 1.94295808,0.567778988 Z" id="Path" fill="#FFF4B4" fill-rule="nonzero"></path>
                                    </g>
                                    <g id="flaticon1563861756-svg-copy-3" transform="translate(15.183708, -0.000000)">
                                        <path d="M1.94295808,0.567778988 L2.12594788,0.952858295 C2.17409139,1.05417033 2.26943409,1.12493423 2.38034703,1.1416748 L2.78439846,1.20266002 C2.94777128,1.22731858 3.06022141,1.37974815 3.03556285,1.54312097 C3.02611529,1.60571477 2.99705601,1.66369845 2.95256567,1.70873009 L2.64528148,2.01975284 C2.56932527,2.09663318 2.53479237,2.20524566 2.55240243,2.31187501 L2.62646553,2.7603289 C2.65246455,2.91775357 2.545923,3.06644786 2.38849832,3.09244687 C2.32488015,3.10295355 2.25957565,3.09187582 2.20298114,3.06097723 L1.84463849,2.86533491 C1.74386913,2.81031843 1.62203953,2.81031689 1.52126877,2.86533082 L1.16289711,3.06097723 C1.02283973,3.13743897 0.847316305,3.08588453 0.770854561,2.94582715 C0.739956182,2.88922962 0.72887886,2.82392253 0.73938595,2.76030184 L0.813444581,2.31187501 C0.831054642,2.20524566 0.796521747,2.09663318 0.720565531,2.01975284 L0.413281347,1.70873009 C0.297159393,1.59119534 0.298304691,1.40177915 0.415839442,1.2856572 C0.460871082,1.24116685 0.518854759,1.21210757 0.581448556,1.20266002 L0.985509954,1.14167329 C1.09641739,1.12493355 1.19175651,1.05417576 1.23990235,0.952870987 L1.42292593,0.567766876 C1.49117352,0.424165553 1.662911,0.363079284 1.80651232,0.431326875 C1.86633772,0.459759337 1.9145284,0.507952268 1.94295808,0.567778988 Z" id="Path" fill="#FFF4B4" fill-rule="nonzero"></path>
                                    </g>
                                    <g id="flaticon1563861756-svg-copy-2" transform="translate(10.122472, -0.000000)">
                                        <path d="M1.94295808,0.567778988 L2.12594788,0.952858295 C2.17409139,1.05417033 2.26943409,1.12493423 2.38034703,1.1416748 L2.78439846,1.20266002 C2.94777128,1.22731858 3.06022141,1.37974815 3.03556285,1.54312097 C3.02611529,1.60571477 2.99705601,1.66369845 2.95256567,1.70873009 L2.64528148,2.01975284 C2.56932527,2.09663318 2.53479237,2.20524566 2.55240243,2.31187501 L2.62646553,2.7603289 C2.65246455,2.91775357 2.545923,3.06644786 2.38849832,3.09244687 C2.32488015,3.10295355 2.25957565,3.09187582 2.20298114,3.06097723 L1.84463849,2.86533491 C1.74386913,2.81031843 1.62203953,2.81031689 1.52126877,2.86533082 L1.16289711,3.06097723 C1.02283973,3.13743897 0.847316305,3.08588453 0.770854561,2.94582715 C0.739956182,2.88922962 0.72887886,2.82392253 0.73938595,2.76030184 L0.813444581,2.31187501 C0.831054642,2.20524566 0.796521747,2.09663318 0.720565531,2.01975284 L0.413281347,1.70873009 C0.297159393,1.59119534 0.298304691,1.40177915 0.415839442,1.2856572 C0.460871082,1.24116685 0.518854759,1.21210757 0.581448556,1.20266002 L0.985509954,1.14167329 C1.09641739,1.12493355 1.19175651,1.05417576 1.23990235,0.952870987 L1.42292593,0.567766876 C1.49117352,0.424165553 1.662911,0.363079284 1.80651232,0.431326875 C1.86633772,0.459759337 1.9145284,0.507952268 1.94295808,0.567778988 Z" id="Path" fill="#FFF4B4" fill-rule="nonzero"></path>
                                    </g>
                                    <g id="flaticon1563861756-svg-copy-4" transform="translate(20.244945, -0.000000)">
                                        <path d="M1.94295808,0.567778988 L2.12594788,0.952858295 C2.17409139,1.05417033 2.26943409,1.12493423 2.38034703,1.1416748 L2.78439846,1.20266002 C2.94777128,1.22731858 3.06022141,1.37974815 3.03556285,1.54312097 C3.02611529,1.60571477 2.99705601,1.66369845 2.95256567,1.70873009 L2.64528148,2.01975284 C2.56932527,2.09663318 2.53479237,2.20524566 2.55240243,2.31187501 L2.62646553,2.7603289 C2.65246455,2.91775357 2.545923,3.06644786 2.38849832,3.09244687 C2.32488015,3.10295355 2.25957565,3.09187582 2.20298114,3.06097723 L1.84463849,2.86533491 C1.74386913,2.81031843 1.62203953,2.81031689 1.52126877,2.86533082 L1.16289711,3.06097723 C1.02283973,3.13743897 0.847316305,3.08588453 0.770854561,2.94582715 C0.739956182,2.88922962 0.72887886,2.82392253 0.73938595,2.76030184 L0.813444581,2.31187501 C0.831054642,2.20524566 0.796521747,2.09663318 0.720565531,2.01975284 L0.413281347,1.70873009 C0.297159393,1.59119534 0.298304691,1.40177915 0.415839442,1.2856572 C0.460871082,1.24116685 0.518854759,1.21210757 0.581448556,1.20266002 L0.985509954,1.14167329 C1.09641739,1.12493355 1.19175651,1.05417576 1.23990235,0.952870987 L1.42292593,0.567766876 C1.49117352,0.424165553 1.662911,0.363079284 1.80651232,0.431326875 C1.86633772,0.459759337 1.9145284,0.507952268 1.94295808,0.567778988 Z" id="Path" fill="#FFF4B4" fill-rule="nonzero"></path>
                                    </g>
                                </g>
                            </g>
                        </g>
                    </g>
                </g>
            </g>
        </g>
    </g>
</svg>