<?xml version="1.0" encoding="UTF-8"?>
<svg width="14px" height="14px" viewBox="0 0 14 14" version="1.1" xmlns="http://www.w3.org/2000/svg" xmlns:xlink="http://www.w3.org/1999/xlink">
    <!-- Generator: Sketch 55.2 (78181) - https://sketchapp.com -->
    <title>14x14_icons/attention_icon</title>
    <desc>Created with Sketch.</desc>
    <g id="14x14_icons/attention_icon" stroke="none" stroke-width="1" fill="none" fill-rule="evenodd">
        <g id="14x14_icons">
            <rect id="Rectangle-2" fill-rule="nonzero" x="0" y="0" width="14" height="14"></rect>
            <path d="M7,14 C3.13400675,14 0,10.8659932 0,7 C0,3.13400675 3.13400675,0 7,0 C10.8659932,0 14,3.13400675 14,7 C14,10.8659932 10.8659932,14 7,14 Z M6.27152318,7.93846154 C6.31125848,8.29615563 6.37748298,8.56249912 6.47019868,8.7375 C6.56291437,8.91250088 6.72847563,9 6.96688742,9 C7.20088417,9 7.36865291,8.90961629 7.47019868,8.72884615 C7.57174444,8.54807602 7.63796894,8.28846323 7.66887417,7.95 L7.95364238,4.10576923 C7.98454762,3.84422946 8,3.58653973 8,3.33269231 C8,2.90192092 7.93598298,2.57211653 7.80794702,2.34326923 C7.67991106,2.11442193 7.42605046,2 7.04635762,2 C6.73289026,2 6.48013341,2.08942218 6.28807947,2.26826923 C6.09602553,2.44711628 6,2.69615225 6,3.01538462 C6,3.25000117 6.01986735,3.63653577 6.05960265,4.175 L6.27152318,7.93846154 Z M7.00662252,12 C7.2715245,12 7.50331026,11.9108147 7.70198675,11.7324415 C7.90066325,11.5540682 8,11.3088087 8,10.9966555 C8,10.720177 7.90176699,10.4849508 7.70529801,10.2909699 C7.50882904,10.096989 7.27152457,10 6.99337748,10 C6.7152304,10 6.48013341,10.096989 6.28807947,10.2909699 C6.09602553,10.4849508 6,10.720177 6,10.9966555 C6,11.313268 6.1004405,11.5596424 6.3013245,11.735786 C6.50220851,11.9119295 6.7373055,12 7.00662252,12 Z" id="icon_color" fill="#D0021B"></path>
        </g>
    </g>
</svg>
