<svg id="Bajaj_markets_white-01" xmlns="http://www.w3.org/2000/svg" width="237.9" height="50" viewBox="0 0 237.9 50">
  <g id="Group_57" data-name="Group 57">
    <path id="Path_68" data-name="Path 68" d="M40.6,31.4c0,6.8-7.6,7.5-13,7.5H22.7V32.8h9.6V28.1H22.7V21.7H33.3V16.8H17.1V38.9H10.9V11.1H27.6c5,0,13,.7,13,7.3,0,3.3-2.8,5.6-6.1,6.5C38.6,26.1,40.6,28.1,40.6,31.4ZM25,0A25,25,0,1,0,50,25,25.009,25.009,0,0,0,25,0Z" fill="#fff"/>
  </g>
  <g id="Group_58" data-name="Group 58">
    <path id="Path_69" data-name="Path 69" d="M78.8,39.6v-14l-4.4,7.5H69.8l-4.5-7.5v14H58.4V10.4h7L72,23.3l6.6-12.9h7V39.6Zm23-19-2.6,8.7h5.1Zm5.7,19-1.4-4.5H97.3l-1.6,4.5H88.2L98.8,10.4h5.5L115,39.6Zm31.5,0-6.3-12.2a9.428,9.428,0,0,0,3.4-2.9,8.154,8.154,0,0,0,1.4-4.7,8.424,8.424,0,0,0-.7-3.5,9.53,9.53,0,0,0-1.9-3,8.124,8.124,0,0,0-3.2-2.1,11.623,11.623,0,0,0-4.2-.8H110l2.3,6.4h14.8a3.013,3.013,0,0,1,2.3.9,2.782,2.782,0,0,1,.8,2.1,3.5,3.5,0,0,1-.8,2.2,3.013,3.013,0,0,1-2.3.9H114.5l2.1,5.8h8.9l5.2,10.9Zm28.1,0L156.8,22.2l10-11.8H158l-8.4,10.3V10.4h-7.1V39.6h7.1V30.5l2.5-2.8,6.7,12,8.3-.1Zm22.8,0V33.2H177.2V27.5H188V21.7H177.2V16.8h12.7V10.4H170.1V39.6Zm24.9-22.8V10.4H193.3v6.4h7.2V39.6h7.2V16.8Zm23.1,13.8c0-2.8-.7-5-2.2-6.4a9.385,9.385,0,0,0-5.7-2.4l-1.9-.3-1.6-.2a3.117,3.117,0,0,1-2-.9,1.816,1.816,0,0,1-.6-1.4,2.62,2.62,0,0,1,.9-1.9,4.033,4.033,0,0,1,2.6-.8,14.162,14.162,0,0,1,3.1.3,4.929,4.929,0,0,1,2.4,1.4l4.5-4.5a11.661,11.661,0,0,0-4.2-2.7,18.9,18.9,0,0,0-5.6-.8,11.471,11.471,0,0,0-7.8,2.6,8.488,8.488,0,0,0-2.9,6.6,8.42,8.42,0,0,0,2,5.9,10.443,10.443,0,0,0,5.9,2.6l1.8.2,1.7.2a3.055,3.055,0,0,1,1.9.8,2.352,2.352,0,0,1,.6,1.7c0,1.7-1.4,2.6-4.2,2.6a15.012,15.012,0,0,1-3.7-.5,5.2,5.2,0,0,1-2.8-1.6l-4.6,4.6a11.131,11.131,0,0,0,4.8,3,20.092,20.092,0,0,0,6.3.8,15.6,15.6,0,0,0,4.4-.6,10.152,10.152,0,0,0,3.6-1.8,8.491,8.491,0,0,0,2.4-2.9,6.178,6.178,0,0,0,.9-3.6" fill="#fff"/>
  </g>
</svg>
