<svg width="910" height="75" viewBox="0 0 910 75" fill="none" xmlns="http://www.w3.org/2000/svg">
<g clip-path="url(#clip0_6202_62127)">
<path d="M908 0H370C368.895 0 368 0.89543 368 2V74C368 75.1046 368.895 76 370 76H908C909.105 76 910 75.1046 910 74V2C910 0.89543 909.105 0 908 0Z" fill="white"/>
<path d="M432.956 24.4563C432.838 24.4563 432.731 24.4148 432.637 24.3317C432.554 24.2368 432.513 24.13 432.513 24.0114V12.4449C432.513 12.3144 432.554 12.2076 432.637 12.1246C432.731 12.0415 432.838 12 432.956 12H435.334C435.464 12 435.57 12.0415 435.653 12.1246C435.748 12.2076 435.795 12.3144 435.795 12.4449V24.0114C435.795 24.1419 435.748 24.2487 435.653 24.3317C435.57 24.4148 435.464 24.4563 435.334 24.4563H432.956Z" fill="#0C2343"/>
<path d="M438.886 24.4563C438.767 24.4563 438.661 24.4148 438.566 24.3317C438.484 24.2368 438.442 24.13 438.442 24.0114V12.4449C438.442 12.3144 438.484 12.2076 438.566 12.1246C438.661 12.0415 438.767 12 438.886 12H440.766C441.062 12 441.263 12.1127 441.37 12.3381L445.699 19.1713V12.4449C445.699 12.3144 445.74 12.2076 445.823 12.1246C445.917 12.0415 446.024 12 446.142 12H448.271C448.401 12 448.508 12.0415 448.59 12.1246C448.673 12.2076 448.715 12.3144 448.715 12.4449V23.9936C448.715 24.1241 448.673 24.2368 448.59 24.3317C448.508 24.4148 448.401 24.4563 448.271 24.4563H446.373C446.113 24.4563 445.917 24.3436 445.787 24.1182L441.458 17.5341V24.0114C441.458 24.13 441.417 24.2368 441.334 24.3317C441.251 24.4148 441.145 24.4563 441.015 24.4563H438.886Z" fill="#0C2343"/>
<path d="M379.945 44.2277C379.85 44.2277 379.762 44.1921 379.679 44.121C379.608 44.0379 379.573 43.949 379.573 43.8541C379.573 43.7829 379.578 43.7295 379.59 43.6939L383.76 32.2697C383.795 32.1274 383.872 32.0087 383.99 31.9138C384.108 31.8189 384.262 31.7715 384.451 31.7715H387.077C387.267 31.7715 387.42 31.8189 387.539 31.9138C387.657 32.0087 387.734 32.1274 387.769 32.2697L391.921 43.6939L391.956 43.8541C391.956 43.949 391.915 44.0379 391.832 44.121C391.761 44.1921 391.672 44.2277 391.566 44.2277H389.384C389.1 44.2277 388.911 44.1032 388.816 43.8541L388.124 42.039H383.387L382.713 43.8541C382.618 44.1032 382.423 44.2277 382.127 44.2277H379.945ZM387.414 39.4766L385.764 34.7788L384.114 39.4766H387.414Z" fill="#0C2343"/>
<path d="M397.972 44.406C396.848 44.406 395.884 44.2398 395.08 43.9076C394.276 43.5755 393.667 43.1425 393.253 42.6086C392.851 42.0629 392.638 41.4698 392.614 40.8292C392.614 40.7342 392.65 40.6512 392.721 40.58C392.803 40.497 392.898 40.4555 393.004 40.4555H395.24C395.382 40.4555 395.494 40.4852 395.577 40.5445C395.672 40.592 395.766 40.6691 395.861 40.7759C396.015 41.0843 396.263 41.3393 396.606 41.5409C396.949 41.7426 397.404 41.8435 397.972 41.8435C398.646 41.8435 399.161 41.7367 399.516 41.5231C399.87 41.3096 400.048 41.0191 400.048 40.6513C400.048 40.3903 399.953 40.1767 399.764 40.0106C399.587 39.8445 399.303 39.6962 398.912 39.5657C398.522 39.4352 397.943 39.287 397.174 39.121C395.754 38.8244 394.69 38.3914 393.98 37.822C393.282 37.2407 392.933 36.4161 392.933 35.3484C392.933 34.6247 393.134 33.9782 393.537 33.4088C393.939 32.8393 394.512 32.3946 395.258 32.0743C396.003 31.754 396.872 31.5938 397.866 31.5938C398.895 31.5938 399.788 31.7717 400.545 32.1276C401.302 32.4835 401.875 32.9343 402.266 33.4801C402.668 34.0139 402.881 34.5417 402.904 35.0637C402.904 35.1704 402.869 35.2594 402.798 35.3306C402.727 35.4018 402.638 35.4374 402.532 35.4374H400.19C400.048 35.4374 399.93 35.4137 399.835 35.3663C399.752 35.3188 399.675 35.2417 399.604 35.135C399.533 34.8621 399.338 34.6308 399.019 34.441C398.711 34.2512 398.327 34.1561 397.866 34.1561C397.333 34.1561 396.925 34.2512 396.641 34.441C396.358 34.6308 396.216 34.9096 396.216 35.2773C396.216 35.5264 396.293 35.7339 396.446 35.9C396.612 36.0661 396.872 36.2203 397.227 36.3627C397.594 36.4932 398.114 36.6297 398.788 36.7721C399.888 36.9737 400.763 37.2287 401.414 37.5371C402.076 37.8337 402.561 38.2252 402.869 38.7116C403.176 39.1861 403.33 39.7852 403.33 40.5088C403.33 41.3037 403.099 41.9977 402.638 42.5908C402.189 43.1721 401.556 43.623 400.74 43.9433C399.935 44.2518 399.013 44.406 397.972 44.406Z" fill="#0C2343"/>
<path d="M409.914 44.406C408.79 44.406 407.826 44.2398 407.022 43.9076C406.218 43.5755 405.608 43.1425 405.194 42.6086C404.792 42.0629 404.579 41.4698 404.556 40.8292C404.556 40.7342 404.591 40.6512 404.662 40.58C404.745 40.497 404.84 40.4555 404.946 40.4555H407.182C407.323 40.4555 407.436 40.4852 407.519 40.5445C407.613 40.592 407.708 40.6691 407.803 40.7759C407.956 41.0843 408.205 41.3393 408.548 41.5409C408.891 41.7426 409.346 41.8435 409.914 41.8435C410.588 41.8435 411.102 41.7367 411.457 41.5231C411.812 41.3096 411.99 41.0191 411.99 40.6513C411.99 40.3903 411.895 40.1767 411.706 40.0106C411.528 39.8445 411.244 39.6962 410.854 39.5657C410.464 39.4352 409.884 39.287 409.115 39.121C407.696 38.8244 406.632 38.3914 405.922 37.822C405.224 37.2407 404.875 36.4161 404.875 35.3484C404.875 34.6247 405.076 33.9782 405.478 33.4088C405.88 32.8393 406.454 32.3946 407.199 32.0743C407.944 31.754 408.814 31.5938 409.807 31.5938C410.836 31.5938 411.729 31.7717 412.486 32.1276C413.243 32.4835 413.817 32.9343 414.207 33.4801C414.609 34.0139 414.822 34.5417 414.846 35.0637C414.846 35.1704 414.811 35.2594 414.74 35.3306C414.669 35.4018 414.58 35.4374 414.473 35.4374H412.132C411.99 35.4374 411.871 35.4137 411.777 35.3663C411.694 35.3188 411.617 35.2417 411.546 35.135C411.475 34.8621 411.28 34.6308 410.961 34.441C410.653 34.2512 410.269 34.1561 409.807 34.1561C409.275 34.1561 408.867 34.2512 408.583 34.441C408.299 34.6308 408.157 34.9096 408.157 35.2773C408.157 35.5264 408.234 35.7339 408.388 35.9C408.554 36.0661 408.814 36.2203 409.169 36.3627C409.535 36.4932 410.056 36.6297 410.73 36.7721C411.83 36.9737 412.705 37.2287 413.356 37.5371C414.018 37.8337 414.503 38.2252 414.811 38.7116C415.118 39.1861 415.272 39.7852 415.272 40.5088C415.272 41.3037 415.041 41.9977 414.58 42.5908C414.13 43.1721 413.498 43.623 412.681 43.9433C411.877 44.2518 410.955 44.406 409.914 44.406Z" fill="#0C2343"/>
<path d="M422.299 44.406C420.631 44.406 419.318 43.9966 418.36 43.178C417.402 42.3595 416.894 41.1554 416.835 39.5657C416.823 39.2217 416.817 38.7116 416.817 38.0354C416.817 37.3473 416.823 36.8313 416.835 36.4873C416.894 34.9213 417.408 33.7172 418.378 32.8749C419.36 32.0208 420.667 31.5938 422.299 31.5938C423.931 31.5938 425.238 32.0208 426.22 32.8749C427.202 33.7172 427.716 34.9213 427.763 36.4873C427.787 37.1753 427.799 37.6914 427.799 38.0354C427.799 38.3676 427.787 38.8777 427.763 39.5657C427.704 41.1554 427.196 42.3595 426.238 43.178C425.28 43.9966 423.967 44.406 422.299 44.406ZM422.299 41.8435C422.95 41.8435 423.464 41.6478 423.843 41.2563C424.233 40.8647 424.44 40.2658 424.464 39.4591C424.487 38.771 424.499 38.2845 424.499 37.9998C424.499 37.6914 424.487 37.205 424.464 36.5406C424.44 35.7339 424.233 35.1349 423.843 34.7434C423.452 34.3519 422.938 34.1561 422.299 34.1561C421.66 34.1561 421.146 34.3519 420.756 34.7434C420.377 35.1349 420.17 35.7339 420.135 36.5406C420.123 36.8728 420.117 37.3592 420.117 37.9998C420.117 38.6285 420.123 39.115 420.135 39.4591C420.17 40.2658 420.377 40.8647 420.756 41.2563C421.134 41.6478 421.649 41.8435 422.299 41.8435Z" fill="#0C2343"/>
<path d="M435.125 44.406C433.433 44.406 432.109 43.9966 431.151 43.178C430.204 42.3476 429.702 41.1495 429.643 39.5835C429.631 39.2632 429.625 38.7412 429.625 38.0176C429.625 37.2821 429.631 36.7483 429.643 36.4162C429.702 34.874 430.216 33.6876 431.186 32.8571C432.156 32.0149 433.469 31.5938 435.125 31.5938C436.166 31.5938 437.1 31.7717 437.928 32.1276C438.756 32.4716 439.406 32.9699 439.88 33.6224C440.365 34.263 440.613 35.0162 440.625 35.8822V35.9178C440.625 36.0127 440.583 36.0958 440.501 36.1669C440.43 36.2263 440.347 36.2559 440.252 36.2559H437.857C437.703 36.2559 437.585 36.2263 437.502 36.1669C437.419 36.0958 437.348 35.9712 437.289 35.7933C437.124 35.1882 436.863 34.7671 436.509 34.5298C436.154 34.2807 435.687 34.1561 435.107 34.1561C433.711 34.1561 432.99 34.9391 432.943 36.505C432.931 36.8254 432.925 37.3177 432.925 37.982C432.925 38.6463 432.931 39.1505 432.943 39.4946C432.99 41.0605 433.711 41.8435 435.107 41.8435C435.687 41.8435 436.16 41.719 436.526 41.4699C436.893 41.2089 437.147 40.7877 437.289 40.2064C437.337 40.0285 437.402 39.9099 437.484 39.8505C437.567 39.7794 437.691 39.7437 437.857 39.7437H440.252C440.359 39.7437 440.447 39.7794 440.518 39.8505C440.601 39.9217 440.637 40.0106 440.625 40.1174C440.613 40.9834 440.365 41.7427 439.88 42.3952C439.406 43.0358 438.756 43.5339 437.928 43.8898C437.1 44.2339 436.166 44.406 435.125 44.406Z" fill="#0C2343"/>
<path d="M443.111 44.2277C442.993 44.2277 442.886 44.1862 442.792 44.1032C442.709 44.0083 442.668 43.9015 442.668 43.7829V32.2163C442.668 32.0858 442.709 31.9791 442.792 31.896C442.886 31.813 442.993 31.7715 443.111 31.7715H445.489C445.619 31.7715 445.725 31.813 445.808 31.896C445.903 31.9791 445.95 32.0858 445.95 32.2163V43.7829C445.95 43.9134 445.903 44.0201 445.808 44.1032C445.725 44.1862 445.619 44.2277 445.489 44.2277H443.111Z" fill="#0C2343"/>
<path d="M447.888 44.2277C447.793 44.2277 447.704 44.1921 447.621 44.121C447.551 44.0379 447.515 43.949 447.515 43.8541C447.515 43.7829 447.521 43.7295 447.533 43.6939L451.702 32.2697C451.738 32.1274 451.814 32.0087 451.933 31.9138C452.051 31.8189 452.205 31.7715 452.394 31.7715H455.02C455.209 31.7715 455.363 31.8189 455.481 31.9138C455.599 32.0087 455.676 32.1274 455.712 32.2697L459.863 43.6939L459.899 43.8541C459.899 43.949 459.857 44.0379 459.775 44.121C459.704 44.1921 459.615 44.2277 459.508 44.2277H457.326C457.042 44.2277 456.853 44.1032 456.758 43.8541L456.067 42.039H451.329L450.655 43.8541C450.561 44.1032 450.366 44.2277 450.07 44.2277H447.888ZM455.357 39.4766L453.707 34.7788L452.057 39.4766H455.357Z" fill="#0C2343"/>
<path d="M463.386 44.2277C463.267 44.2277 463.161 44.1862 463.066 44.1032C462.983 44.0083 462.942 43.9015 462.942 43.7829V34.5652H459.784C459.666 34.5652 459.559 34.5237 459.465 34.4407C459.382 34.3458 459.34 34.239 459.34 34.1204V32.2163C459.34 32.0858 459.382 31.9791 459.465 31.896C459.559 31.813 459.666 31.7715 459.784 31.7715H469.329C469.459 31.7715 469.566 31.813 469.648 31.896C469.731 31.9791 469.773 32.0858 469.773 32.2163V34.1204C469.773 34.2509 469.731 34.3576 469.648 34.4407C469.566 34.5237 469.459 34.5652 469.329 34.5652H466.171V43.7829C466.171 43.9015 466.13 44.0083 466.047 44.1032C465.964 44.1862 465.858 44.2277 465.727 44.2277H463.386Z" fill="#0C2343"/>
<path d="M472.006 44.2277C471.888 44.2277 471.781 44.1862 471.687 44.1032C471.604 44.0083 471.562 43.9015 471.562 43.7829V32.2163C471.562 32.0858 471.604 31.9791 471.687 31.896C471.781 31.813 471.888 31.7715 472.006 31.7715H474.383C474.513 31.7715 474.62 31.813 474.703 31.896C474.797 31.9791 474.845 32.0858 474.845 32.2163V43.7829C474.845 43.9134 474.797 44.0201 474.703 44.1032C474.62 44.1862 474.513 44.2277 474.383 44.2277H472.006Z" fill="#0C2343"/>
<path d="M482.566 44.406C480.898 44.406 479.586 43.9966 478.628 43.178C477.669 42.3595 477.161 41.1554 477.102 39.5657C477.09 39.2217 477.084 38.7116 477.084 38.0354C477.084 37.3473 477.09 36.8313 477.102 36.4873C477.161 34.9213 477.675 33.7172 478.645 32.8749C479.627 32.0208 480.934 31.5938 482.566 31.5938C484.198 31.5938 485.505 32.0208 486.487 32.8749C487.469 33.7172 487.983 34.9213 488.031 36.4873C488.054 37.1753 488.066 37.6914 488.066 38.0354C488.066 38.3676 488.054 38.8777 488.031 39.5657C487.971 41.1554 487.463 42.3595 486.505 43.178C485.547 43.9966 484.234 44.406 482.566 44.406ZM482.566 41.8435C483.217 41.8435 483.731 41.6478 484.11 41.2563C484.5 40.8647 484.707 40.2658 484.731 39.4591C484.754 38.771 484.766 38.2845 484.766 37.9998C484.766 37.6914 484.754 37.205 484.731 36.5406C484.707 35.7339 484.5 35.1349 484.11 34.7434C483.719 34.3519 483.205 34.1561 482.566 34.1561C481.927 34.1561 481.413 34.3519 481.023 34.7434C480.644 35.1349 480.437 35.7339 480.402 36.5406C480.39 36.8728 480.384 37.3592 480.384 37.9998C480.384 38.6285 480.39 39.115 480.402 39.4591C480.437 40.2658 480.644 40.8647 481.023 41.2563C481.401 41.6478 481.916 41.8435 482.566 41.8435Z" fill="#0C2343"/>
<path d="M490.744 44.2277C490.625 44.2277 490.519 44.1862 490.424 44.1032C490.341 44.0083 490.3 43.9015 490.3 43.7829V32.2163C490.3 32.0858 490.341 31.9791 490.424 31.896C490.519 31.813 490.625 31.7715 490.744 31.7715H492.624C492.92 31.7715 493.121 31.8842 493.227 32.1096L497.556 38.9427V32.2163C497.556 32.0858 497.598 31.9791 497.681 31.896C497.775 31.813 497.882 31.7715 498 31.7715H500.129C500.259 31.7715 500.366 31.813 500.448 31.896C500.531 31.9791 500.573 32.0858 500.573 32.2163V43.7651C500.573 43.8956 500.531 44.0083 500.448 44.1032C500.366 44.1862 500.259 44.2277 500.129 44.2277H498.231C497.97 44.2277 497.775 44.115 497.645 43.8896L493.316 37.3056V43.7829C493.316 43.9015 493.275 44.0083 493.192 44.1032C493.109 44.1862 493.003 44.2277 492.873 44.2277H490.744Z" fill="#0C2343"/>
<path d="M421.129 64.0002C420.927 64.0002 420.768 63.9468 420.65 63.84C420.531 63.7214 420.46 63.5791 420.437 63.413L418.503 52.0422C418.491 52.0066 418.485 51.9651 418.485 51.9176C418.485 51.8227 418.521 51.7397 418.592 51.6685C418.674 51.5854 418.763 51.5439 418.858 51.5439H421.058C421.389 51.5439 421.572 51.6744 421.608 51.9354L422.761 58.8753L424.038 54.7826C424.168 54.4623 424.363 54.3021 424.624 54.3021H425.901C426.197 54.3021 426.392 54.4623 426.487 54.7826L427.764 58.8753L428.917 51.9354C428.953 51.6744 429.136 51.5439 429.467 51.5439H431.667C431.774 51.5439 431.862 51.5854 431.933 51.6685C432.016 51.7397 432.057 51.8227 432.057 51.9176L432.04 52.0422L430.106 63.413C430.082 63.5791 430.005 63.7214 429.875 63.84C429.757 63.9468 429.603 64.0002 429.414 64.0002H427.728C427.539 64.0002 427.391 63.9527 427.285 63.8578C427.179 63.7629 427.102 63.6562 427.054 63.5375L425.262 58.4483L423.47 63.5375C423.364 63.846 423.145 64.0002 422.814 64.0002H421.129Z" fill="#0C2343"/>
<path d="M434.507 64.0002C434.389 64.0002 434.282 63.9587 434.187 63.8756C434.105 63.7807 434.063 63.674 434.063 63.5553V51.9888C434.063 51.8583 434.105 51.7515 434.187 51.6685C434.282 51.5854 434.389 51.5439 434.507 51.5439H436.884C437.014 51.5439 437.121 51.5854 437.204 51.6685C437.298 51.7515 437.345 51.8583 437.345 51.9888V63.5553C437.345 63.6858 437.298 63.7926 437.204 63.8756C437.121 63.9587 437.014 64.0002 436.884 64.0002H434.507Z" fill="#0C2343"/>
<path d="M443.169 64.0002C443.05 64.0002 442.944 63.9587 442.849 63.8756C442.767 63.7807 442.725 63.674 442.725 63.5553V54.3377H439.567C439.449 54.3377 439.342 54.2962 439.248 54.2131C439.165 54.1182 439.124 54.0115 439.124 53.8928V51.9888C439.124 51.8583 439.165 51.7515 439.248 51.6685C439.342 51.5854 439.449 51.5439 439.567 51.5439H449.112C449.242 51.5439 449.349 51.5854 449.431 51.6685C449.514 51.7515 449.556 51.8583 449.556 51.9888V53.8928C449.556 54.0233 449.514 54.1301 449.431 54.2131C449.349 54.2962 449.242 54.3377 449.112 54.3377H445.954V63.5553C445.954 63.674 445.913 63.7807 445.83 63.8756C445.747 63.9587 445.641 64.0002 445.511 64.0002H443.169Z" fill="#0C2343"/>
<path d="M451.789 64.0002C451.659 64.0002 451.552 63.9587 451.47 63.8756C451.387 63.7926 451.346 63.6858 451.346 63.5553V51.9888C451.346 51.8583 451.387 51.7515 451.47 51.6685C451.564 51.5854 451.671 51.5439 451.789 51.5439H454.078C454.208 51.5439 454.314 51.5854 454.397 51.6685C454.492 51.7515 454.539 51.8583 454.539 51.9888V56.2773H458.903V51.9888C458.903 51.8583 458.945 51.7515 459.028 51.6685C459.11 51.5854 459.217 51.5439 459.347 51.5439H461.636C461.766 51.5439 461.872 51.5854 461.955 51.6685C462.038 51.7515 462.079 51.8583 462.079 51.9888V63.5553C462.079 63.6858 462.038 63.7926 461.955 63.8756C461.872 63.9587 461.766 64.0002 461.636 64.0002H459.347C459.217 64.0002 459.11 63.9587 459.028 63.8756C458.945 63.7926 458.903 63.6858 458.903 63.5553V59.1245H454.539V63.5553C454.539 63.6858 454.492 63.7926 454.397 63.8756C454.314 63.9587 454.208 64.0002 454.078 64.0002H451.789Z" fill="#0C2343"/>
<path fill-rule="evenodd" clip-rule="evenodd" d="M106.497 18.8606H83.4593V32.5182H105.838V43.378H83.4593V65.5922H72.106V8H106.497V18.8606Z" fill="#D8D8D8"/>
<path fill-rule="evenodd" clip-rule="evenodd" d="M114.311 65.5933H124.924V24.4565H114.311V65.5933ZM119.578 21.4845C117.822 21.4845 116.3 20.8406 115.012 19.5514C113.722 18.2625 113.078 16.7411 113.078 14.9851C113.078 13.2301 113.722 11.6936 115.012 10.3774C116.3 9.06087 117.822 8.40332 119.578 8.40332C121.388 8.40332 122.937 9.06087 124.227 10.3774C125.515 11.6936 126.16 13.2301 126.16 14.9851C126.16 16.7411 125.515 18.2625 124.227 19.5514C122.937 20.8406 121.388 21.4845 119.578 21.4845Z" fill="#D8D8D8"/>
<path fill-rule="evenodd" clip-rule="evenodd" d="M144.095 35.4822C144.095 36.5803 144.822 37.471 146.276 38.1559C147.729 38.8426 149.498 39.4452 151.583 39.9665C153.667 40.4883 155.751 41.1462 157.835 41.9407C159.92 42.7366 161.689 44.0672 163.142 45.9313C164.595 47.7966 165.323 50.1268 165.323 52.9245C165.323 57.1487 163.745 60.3981 160.592 62.674C157.437 64.9489 153.502 66.0883 148.785 66.0883C140.34 66.0883 134.581 62.8264 131.509 56.3008C131.508 56.2993 131.509 56.2971 131.511 56.296L140.721 51.115C140.722 51.1146 140.722 51.115 140.722 51.1153C141.928 54.6805 144.617 56.462 148.785 56.462C152.57 56.462 154.463 55.2831 154.463 52.9245C154.463 51.8275 153.735 50.9367 152.282 50.2508C150.828 49.5652 149.059 48.9486 146.975 48.3992C144.89 47.8516 142.806 47.1649 140.722 46.342C138.638 45.5199 136.868 44.217 135.416 42.434C133.962 40.6525 133.235 38.4171 133.235 35.729C133.235 31.6705 134.729 28.4765 137.719 26.1437C140.708 23.8135 144.425 22.6475 148.868 22.6475C152.212 22.6475 155.257 23.4021 158 24.9098C160.74 26.4186 162.906 28.5687 164.497 31.3631C164.499 31.366 164.498 31.3694 164.495 31.3708L155.45 36.305C154.133 33.5073 151.939 32.1088 148.868 32.1088C147.496 32.1088 146.358 32.411 145.453 33.014C144.548 33.6184 144.095 34.4405 144.095 35.4822Z" fill="#D8D8D8"/>
<path fill-rule="evenodd" clip-rule="evenodd" d="M183.222 53.376C185.388 55.5435 188.117 56.6261 191.408 56.6261C194.699 56.6261 197.414 55.5435 199.554 53.376C201.693 51.21 202.762 48.4271 202.762 45.0257C202.762 41.6254 201.693 38.8417 199.554 36.6742C197.414 34.5083 194.699 33.4249 191.408 33.4249C188.117 33.4249 185.388 34.5083 183.222 36.6742C181.055 38.8417 179.972 41.6254 179.972 45.0257C179.972 48.4271 181.055 51.21 183.222 53.376ZM202.759 8H213.373V65.5922H202.759V60.7388C199.633 64.7431 195.19 66.7442 189.431 66.7442C183.89 66.7442 179.159 64.6461 175.239 60.4499C171.317 56.2537 169.356 51.1117 169.356 45.0237C169.356 38.9353 171.317 33.7934 175.239 29.5972C179.159 25.401 183.89 23.3029 189.431 23.3029C195.19 23.3029 199.633 25.3062 202.759 29.3083C202.759 29.3086 202.759 29.3086 202.759 29.3083V8Z" fill="#D8D8D8"/>
<path fill-rule="evenodd" clip-rule="evenodd" d="M234.719 52.5113C236.83 54.6503 239.477 55.7197 242.658 55.7197C245.839 55.7197 248.5 54.6503 250.639 52.5113C252.778 50.3722 253.847 47.6575 253.847 44.3661C253.847 41.075 252.778 38.36 250.639 36.2213C248.5 34.0819 245.839 33.0122 242.658 33.0122C239.477 33.0122 236.83 34.0819 234.719 36.2213C232.607 38.36 231.551 41.075 231.551 44.3661C231.551 47.6575 232.607 50.3722 234.719 52.5113ZM258.128 59.7944C253.904 63.9903 248.748 66.0887 242.66 66.0887C236.572 66.0887 231.43 63.9903 227.234 59.7944C223.037 55.5982 220.939 50.4559 220.939 44.3679C220.939 38.2799 223.037 33.1376 227.234 28.9418C231.43 24.7456 236.572 22.6475 242.66 22.6475C248.748 22.6475 253.904 24.7456 258.128 28.9418C262.351 33.1376 264.463 38.2799 264.463 44.3679C264.463 50.4559 262.351 55.5982 258.128 59.7944Z" fill="#D8D8D8"/>
<path fill-rule="evenodd" clip-rule="evenodd" d="M317.45 23.3027C322.167 23.3027 325.937 24.8392 328.763 27.9104C331.588 30.9826 333 35.0958 333 40.2514V65.5916H322.387V40.9912C322.387 38.5237 321.782 36.6042 320.577 35.2327C319.369 33.8626 317.668 33.1755 315.475 33.1755C313.061 33.1755 311.183 33.9714 309.84 35.5618C308.495 37.1529 307.824 39.4569 307.824 42.4727V65.5916H297.21V40.9912C297.21 38.5237 296.606 36.6042 295.4 35.2327C294.193 33.8626 292.492 33.1755 290.299 33.1755C287.94 33.1755 286.062 33.9714 284.663 35.5618C283.264 37.1529 282.565 39.4569 282.565 42.4727V65.5916H271.951V24.4547H282.565V28.8151C285.033 25.1407 288.845 23.3027 294.002 23.3027C299.048 23.3027 302.777 25.2776 305.191 29.2266C307.934 25.2776 312.02 23.3027 317.45 23.3027Z" fill="#D8D8D8"/>
<path fill-rule="evenodd" clip-rule="evenodd" d="M0 8.40332L24.5817 24.4634V65.4329L0 49.3728V8.40332Z" fill="#D8D8D8"/>
<path fill-rule="evenodd" clip-rule="evenodd" d="M32.776 24.8567L57.3577 8.40332V24.7256L32.776 41.1789V24.8567Z" fill="#D8D8D8"/>
<path fill-rule="evenodd" clip-rule="evenodd" d="M32.776 49.4394L49.1638 38.3076V54.6299L32.776 65.7616V49.4394Z" fill="#D8D8D8"/>
<path d="M853.718 43.799V39.7164C852.666 40.3347 851.882 40.9934 851.37 41.6976C851.026 42.1691 850.86 42.6423 850.86 43.1177C850.86 43.5181 851.002 43.8714 851.291 44.1784C851.508 44.4135 851.811 44.5301 852.203 44.5301C852.639 44.5301 853.143 44.2836 853.718 43.799ZM853.718 44.7513C852.23 46.0662 850.893 46.7209 849.711 46.7209C849.016 46.7209 848.436 46.4934 847.978 46.0338C847.512 45.5814 847.286 45.0071 847.286 44.3198C847.286 43.3904 847.684 42.5527 848.485 41.8085C849.286 41.0659 851.026 40.0757 853.718 38.8427V37.6133C853.718 36.6918 853.669 36.1135 853.565 35.8729C853.467 35.6326 853.276 35.4226 853.001 35.2453C852.721 35.0674 852.407 34.978 852.062 34.978C851.495 34.978 851.026 35.1058 850.664 35.3559C850.441 35.5122 850.324 35.6956 850.324 35.9037C850.324 36.087 850.449 36.3139 850.689 36.585C851.018 36.959 851.187 37.3197 851.187 37.667C851.187 38.0947 851.026 38.4551 850.713 38.7586C850.392 39.0563 849.978 39.2069 849.465 39.2069C848.918 39.2069 848.458 39.0394 848.09 38.7093C847.719 38.3788 847.534 37.9915 847.534 37.5504C847.534 36.9228 847.782 36.327 848.275 35.7563C848.776 35.1862 849.465 34.7509 850.351 34.4436C851.236 34.1401 852.16 33.9892 853.116 33.9892C854.273 33.9892 855.189 34.2338 855.864 34.7242C856.537 35.2186 856.973 35.7471 857.172 36.3216C857.297 36.688 857.354 37.5294 857.354 38.8427V43.5756C857.354 44.1327 857.379 44.4857 857.423 44.6271C857.466 44.7704 857.529 44.8772 857.619 44.9475L857.916 45.051C858.144 45.051 858.376 44.8905 858.61 44.5699L859 44.881C858.567 45.528 858.117 45.9935 857.649 46.2836C857.186 46.5735 856.657 46.7209 856.063 46.7209C855.369 46.7209 854.826 46.5547 854.434 46.2305C854.042 45.9058 853.802 45.4116 853.718 44.7513ZM840.19 34.354V37.1195C840.999 35.8598 841.707 35.0219 842.315 34.6078C842.925 34.1935 843.511 33.9892 844.077 33.9892C844.562 33.9892 844.954 34.1363 845.243 34.4381C845.537 34.7375 845.679 35.1611 845.679 35.707C845.679 36.2908 845.543 36.7452 845.257 37.0658C844.976 37.3862 844.633 37.5504 844.232 37.5504C843.772 37.5504 843.374 37.3998 843.034 37.1058C842.691 36.8084 842.492 36.6441 842.432 36.6117L842.132 36.5313C841.882 36.5313 841.642 36.625 841.416 36.8176C841.059 37.1157 840.792 37.5373 840.609 38.0871C840.326 38.9283 840.19 39.858 840.19 40.879V43.6786L840.201 44.4135C840.201 44.9077 840.233 45.2245 840.293 45.3618C840.4 45.5985 840.549 45.7723 840.754 45.8791C840.961 45.9897 841.307 46.0564 841.792 46.0831V46.5509H835.205V46.0831C835.736 46.0393 836.093 45.8922 836.281 45.6424C836.466 45.398 836.559 44.7437 836.559 43.6786V36.9359C836.559 36.2415 836.529 35.7966 836.458 35.6057C836.368 35.3597 836.245 35.1824 836.079 35.0718C835.913 34.9552 835.619 34.8786 835.205 34.8348V34.354H840.19ZM831.07 29.8921V34.354H833.963V35.6457H831.07V43.1708C831.07 43.8752 831.1 44.3296 831.168 44.5334C831.233 44.7399 831.35 44.9036 831.514 45.0335C831.68 45.1578 831.83 45.2207 831.969 45.2207C832.535 45.2207 833.069 44.7876 833.576 43.9286L833.963 44.2185C833.26 45.8884 832.116 46.7209 830.533 46.7209C829.759 46.7209 829.105 46.507 828.572 46.0739C828.035 45.6424 827.694 45.1616 827.547 44.6309C827.463 44.3389 827.417 43.5356 827.417 42.2321V35.6457H825.823V35.1862C826.918 34.4112 827.855 33.6018 828.623 32.747C829.394 31.8959 830.062 30.9436 830.636 29.8921H831.07ZM816.351 28.8595V35.9168C817.024 35.2148 817.632 34.7146 818.19 34.4267C818.748 34.1308 819.326 33.9892 819.928 33.9892C820.693 33.9892 821.35 34.2071 821.892 34.6403C822.434 35.0756 822.796 35.5866 822.973 36.1709C823.151 36.7585 823.24 37.7471 823.24 39.1424V43.9019C823.24 44.833 823.33 45.4155 823.505 45.6424C823.676 45.8753 824.028 46.0202 824.559 46.0831V46.5509H818.372V46.0831C818.811 46.0202 819.135 45.8467 819.353 45.5585C819.508 45.3351 819.59 44.7837 819.59 43.9019V38.4649C819.59 37.4534 819.549 36.8214 819.47 36.564C819.394 36.3101 819.261 36.1096 819.073 35.9666C818.885 35.8198 818.678 35.7471 818.441 35.7471C818.092 35.7471 817.754 35.8691 817.424 36.1096C817.092 36.3445 816.733 36.7683 816.351 37.3635V43.9019C816.351 44.7739 816.417 45.3179 816.547 45.5318C816.714 45.8293 817.054 46.0126 817.569 46.0831V46.5509H811.38V46.0831C811.895 46.03 812.26 45.8658 812.478 45.5854C812.625 45.3942 812.698 44.833 812.698 43.9019V31.5084C812.698 30.5865 812.616 30.012 812.445 29.7853C812.279 29.5637 811.922 29.4109 811.38 29.3441V28.8595H816.351ZM808.683 34.0159L808.879 38.1748H808.435C807.904 36.9419 807.352 36.0944 806.782 35.6457C806.211 35.1916 805.645 34.965 805.081 34.965C804.724 34.965 804.421 35.0848 804.167 35.3254C803.913 35.5659 803.789 35.8405 803.789 36.1535C803.789 36.39 803.878 36.6174 804.053 36.8313C804.327 37.1862 805.107 37.8008 806.385 38.6649C807.663 39.5298 808.506 40.2644 808.912 40.8692C809.318 41.4742 809.516 42.1517 809.516 42.9003C809.516 43.5756 809.348 44.2397 809.007 44.8943C808.669 45.5451 808.188 46.0488 807.574 46.3964C806.955 46.7437 806.274 46.9156 805.526 46.9156C804.942 46.9156 804.163 46.7339 803.188 46.3697C802.931 46.2706 802.751 46.2267 802.654 46.2267C802.37 46.2267 802.129 46.4441 801.936 46.8772H801.505L801.295 42.4952H801.741C802.132 43.6445 802.67 44.5032 803.352 45.0777C804.033 45.6519 804.68 45.9363 805.289 45.9363C805.709 45.9363 806.046 45.8066 806.314 45.5528C806.577 45.2951 806.711 44.984 806.711 44.6195C806.711 44.2032 806.581 43.8428 806.318 43.5356C806.06 43.234 805.476 42.7701 804.573 42.1555C803.241 41.234 802.383 40.5257 801.989 40.0411C801.415 39.3293 801.127 38.5412 801.127 37.6804C801.127 36.7414 801.451 35.8903 802.102 35.1287C802.748 34.3673 803.686 33.9892 804.911 33.9892C805.569 33.9892 806.211 34.1496 806.832 34.4703C807.062 34.6002 807.253 34.665 807.4 34.665C807.56 34.665 807.686 34.6343 807.78 34.5678C807.877 34.5011 808.028 34.3194 808.237 34.0159H808.683ZM794.344 43.799V39.7164C793.293 40.3347 792.508 40.9934 791.997 41.6976C791.655 42.1691 791.485 42.6423 791.485 43.1177C791.485 43.5181 791.628 43.8714 791.917 44.1784C792.136 44.4135 792.437 44.5301 792.831 44.5301C793.265 44.5301 793.77 44.2836 794.344 43.799ZM794.344 44.7513C792.856 46.0662 791.521 46.7209 790.336 46.7209C789.642 46.7209 789.061 46.4934 788.604 46.0338C788.14 45.5814 787.914 45.0071 787.914 44.3198C787.914 43.3904 788.31 42.5527 789.111 41.8085C789.912 41.0659 791.655 40.0757 794.344 38.8427V37.6133C794.344 36.6918 794.295 36.1135 794.193 35.8729C794.094 35.6326 793.903 35.4226 793.626 35.2453C793.346 35.0674 793.034 34.978 792.688 34.978C792.12 34.978 791.655 35.1058 791.289 35.3559C791.065 35.5122 790.951 35.6956 790.951 35.9037C790.951 36.087 791.075 36.3139 791.315 36.585C791.645 36.959 791.813 37.3197 791.813 37.667C791.813 38.0947 791.655 38.4551 791.338 38.7586C791.018 39.0563 790.603 39.2069 790.092 39.2069C789.542 39.2069 789.084 39.0394 788.714 38.7093C788.346 38.3788 788.159 37.9915 788.159 37.5504C788.159 36.9228 788.407 36.327 788.903 35.7563C789.401 35.1862 790.092 34.7509 790.978 34.4436C791.863 34.1401 792.785 33.9892 793.743 33.9892C794.902 33.9892 795.813 34.2338 796.489 34.7242C797.163 35.2186 797.6 35.7471 797.798 36.3216C797.925 36.688 797.981 37.5294 797.981 38.8427V43.5756C797.981 44.1327 798.004 44.4857 798.048 44.6271C798.094 44.7704 798.156 44.8772 798.245 44.9475L798.542 45.051C798.77 45.051 799.002 44.8905 799.237 44.5699L799.625 44.881C799.194 45.528 798.743 45.9935 798.276 46.2836C797.814 46.5735 797.283 46.7209 796.692 46.7209C795.997 46.7209 795.453 46.5547 795.062 46.2305C794.669 45.9058 794.428 45.4116 794.344 44.7513ZM780.816 34.354V37.1195C781.626 35.8598 782.334 35.0219 782.939 34.6078C783.55 34.1935 784.137 33.9892 784.703 33.9892C785.19 33.9892 785.581 34.1363 785.87 34.4381C786.165 34.7375 786.305 35.1611 786.305 35.707C786.305 36.2908 786.168 36.7452 785.884 37.0658C785.604 37.3862 785.26 37.5504 784.859 37.5504C784.401 37.5504 784 37.3998 783.66 37.1058C783.319 36.8084 783.119 36.6441 783.06 36.6117L782.758 36.5313C782.508 36.5313 782.267 36.625 782.04 36.8176C781.683 37.1157 781.416 37.5373 781.235 38.0871C780.954 38.9283 780.816 39.858 780.816 40.879V43.6786L780.829 44.4135C780.829 44.9077 780.86 45.2245 780.918 45.3618C781.025 45.5985 781.176 45.7723 781.382 45.8791C781.586 45.9897 781.933 46.0564 782.418 46.0831V46.5509H775.832V46.0831C776.362 46.0393 776.719 45.8922 776.907 45.6424C777.093 45.398 777.187 44.7437 777.187 43.6786V36.9359C777.187 36.2415 777.154 35.7966 777.084 35.6057C776.994 35.3597 776.87 35.1824 776.706 35.0718C776.54 34.9552 776.246 34.8786 775.832 34.8348V34.354H780.816ZM769.126 43.799V39.7164C768.074 40.3347 767.292 40.9934 766.78 41.6976C766.437 42.1691 766.267 42.6423 766.267 43.1177C766.267 43.5181 766.41 43.8714 766.7 44.1784C766.918 44.4135 767.221 44.5301 767.612 44.5301C768.05 44.5301 768.551 44.2836 769.126 43.799ZM769.126 44.7513C767.639 46.0662 766.303 46.7209 765.118 46.7209C764.423 46.7209 763.845 46.4934 763.385 46.0338C762.923 45.5814 762.696 45.0071 762.696 44.3198C762.696 43.3904 763.091 42.5527 763.895 41.8085C764.695 41.0659 766.437 40.0757 769.126 38.8427V37.6133C769.126 36.6918 769.076 36.1135 768.975 35.8729C768.878 35.6326 768.685 35.4226 768.41 35.2453C768.13 35.0674 767.817 34.978 767.469 34.978C766.904 34.978 766.437 35.1058 766.072 35.3559C765.848 35.5122 765.733 35.6956 765.733 35.9037C765.733 36.087 765.858 36.3139 766.097 36.585C766.427 36.959 766.597 37.3197 766.597 37.667C766.597 38.0947 766.437 38.4551 766.12 38.7586C765.799 39.0563 765.385 39.2069 764.873 39.2069C764.326 39.2069 763.866 39.0394 763.497 38.7093C763.127 38.3788 762.941 37.9915 762.941 37.5504C762.941 36.9228 763.19 36.327 763.685 35.7563C764.183 35.1862 764.873 34.7509 765.759 34.4436C766.647 34.1401 767.568 33.9892 768.525 33.9892C769.683 33.9892 770.595 34.2338 771.272 34.7242C771.945 35.2186 772.381 35.7471 772.582 36.3216C772.706 36.688 772.765 37.5294 772.765 38.8427V43.5756C772.765 44.1327 772.786 44.4857 772.83 44.6271C772.876 44.7704 772.939 44.8772 773.026 44.9475L773.324 45.051C773.554 45.051 773.785 44.8905 774.019 44.5699L774.407 44.881C773.975 45.528 773.526 45.9935 773.057 46.2836C772.595 46.5735 772.064 46.7209 771.473 46.7209C770.779 46.7209 770.234 46.5547 769.843 46.2305C769.452 45.9058 769.209 45.4116 769.126 44.7513ZM752.516 28.8595V35.9168C753.188 35.2148 753.799 34.7146 754.354 34.4267C754.912 34.1308 755.489 33.9892 756.091 33.9892C756.858 33.9892 757.513 34.2071 758.055 34.6403C758.598 35.0756 758.959 35.5866 759.137 36.1709C759.316 36.7585 759.404 37.7471 759.404 39.1424V43.9019C759.404 44.833 759.494 45.4155 759.667 45.6424C759.841 45.8753 760.192 46.0202 760.723 46.0831V46.5509H754.537V46.0831C754.975 46.0202 755.299 45.8467 755.516 45.5585C755.673 45.3351 755.753 44.7837 755.753 43.9019V38.4649C755.753 37.4534 755.713 36.8214 755.633 36.564C755.557 36.3101 755.423 36.1096 755.236 35.9666C755.049 35.8198 754.841 35.7471 754.605 35.7471C754.257 35.7471 753.919 35.8691 753.589 36.1096C753.255 36.3445 752.898 36.7683 752.516 37.3635V43.9019C752.516 44.7739 752.583 45.3179 752.711 45.5318C752.877 45.8293 753.219 46.0126 753.732 46.0831V46.5509H747.547V46.0831C748.058 46.03 748.423 45.8658 748.642 45.5854C748.789 45.3942 748.863 44.833 748.863 43.9019V31.5084C748.863 30.5865 748.779 30.012 748.61 29.7853C748.442 29.5637 748.085 29.4109 747.547 29.3441V28.8595H752.516ZM740.907 43.799V39.7164C739.856 40.3347 739.072 40.9934 738.56 41.6976C738.217 42.1691 738.047 42.6423 738.047 43.1177C738.047 43.5181 738.189 43.8714 738.48 44.1784C738.697 44.4135 739.001 44.5301 739.392 44.5301C739.829 44.5301 740.333 44.2836 740.907 43.799ZM740.907 44.7513C739.418 46.0662 738.083 46.7209 736.897 46.7209C736.203 46.7209 735.625 46.4934 735.166 46.0338C734.703 45.5816 734.476 45.0071 734.476 44.3198C734.476 43.3904 734.873 42.5527 735.674 41.8085C736.476 41.0659 738.217 40.0757 740.907 38.8427V37.6136C740.907 36.6918 740.857 36.1135 740.755 35.8729C740.657 35.6326 740.466 35.4226 740.19 35.2453C739.909 35.0674 739.598 34.978 739.25 34.978C738.684 34.978 738.217 35.1058 737.852 35.3559C737.628 35.5122 737.512 35.6956 737.512 35.9037C737.512 36.087 737.638 36.3139 737.879 36.585C738.209 36.959 738.377 37.3197 738.377 37.667C738.377 38.0947 738.217 38.4551 737.902 38.7586C737.58 39.0563 737.164 39.2069 736.653 39.2069C736.105 39.2069 735.648 39.0394 735.277 38.7093C734.909 38.3788 734.72 37.9915 734.72 37.5504C734.72 36.9228 734.97 36.327 735.465 35.7563C735.964 35.1862 736.653 34.7509 737.541 34.4436C738.426 34.1401 739.348 33.9892 740.306 33.9892C741.463 33.9892 742.375 34.2338 743.052 34.7242C743.724 35.2186 744.161 35.7471 744.362 36.3216C744.487 36.688 744.545 37.5294 744.545 38.8427V43.5756C744.545 44.1327 744.568 44.4857 744.611 44.6271C744.655 44.7704 744.718 44.8772 744.809 44.9475L745.106 45.051C745.333 45.051 745.564 44.8905 745.8 44.5699L746.188 44.881C745.756 45.528 745.306 45.9935 744.839 46.2836C744.375 46.5735 743.847 46.7209 743.253 46.7209C742.558 46.7209 742.014 46.5547 741.623 46.2305C741.232 45.9058 740.991 45.4116 740.907 44.7513ZM720.788 40.5219L725.591 28.8595H732.792V29.3441H732.218C731.697 29.3441 731.279 29.4341 730.967 29.6172C730.749 29.7413 730.575 29.9453 730.442 30.2315C730.348 30.4396 730.298 30.9837 730.298 31.8596V43.5241C730.298 44.4266 730.348 44.9935 730.442 45.2207C730.541 45.4479 730.736 45.6424 731.029 45.8124C731.328 45.9859 731.719 46.0701 732.218 46.0701H732.792V46.5509H723.553V46.0701H724.126C724.653 46.0701 725.067 45.9764 725.383 45.7952C725.598 45.6732 725.775 45.465 725.905 45.1654C725.999 44.9611 726.046 44.4135 726.046 43.5241V30.413L719.265 46.5509H718.948L712.059 30.5295V42.9896C712.059 43.8581 712.082 44.3964 712.126 44.5969C712.236 45.0278 712.486 45.3849 712.864 45.6557C713.244 45.9325 713.836 46.0701 714.647 46.0701V46.5509H708.591V46.0701H708.772C709.165 46.0793 709.53 46.0126 709.868 45.8791C710.208 45.7453 710.465 45.5623 710.639 45.3389C710.813 45.1117 710.947 44.793 711.044 44.3866C711.061 44.2893 711.07 43.8483 711.07 43.0547V31.8596C711.07 30.9664 711.021 30.4091 710.927 30.1859C710.83 29.9643 710.634 29.7679 710.342 29.5979C710.041 29.4302 709.647 29.3441 709.152 29.3441H708.591V28.8595H715.818L720.788 40.5219ZM698.727 35.6326V44.0964C698.727 44.9172 698.816 45.4288 698.99 45.6386C699.265 45.9595 699.782 46.1063 700.53 46.0831V46.5509H693.339V46.0831C693.886 46.0739 694.278 46.0088 694.511 45.8922C694.736 45.7761 694.899 45.6119 694.986 45.4018C695.07 45.1921 695.115 44.7606 695.115 44.0964V35.6326H693.339V34.354H695.115V33.455L695.102 32.8404C695.102 31.5886 695.561 30.5426 696.478 29.7088C697.397 28.8726 698.637 28.4585 700.2 28.4585C701.274 28.4585 702.066 28.6552 702.583 29.0542C703.099 29.4548 703.359 29.9014 703.359 30.3864C703.359 30.7794 703.198 31.1171 702.877 31.4072C702.557 31.6917 702.129 31.8348 701.598 31.8348C701.144 31.8348 700.788 31.7182 700.521 31.4818C700.259 31.245 700.126 30.9875 700.126 30.6992C700.126 30.6228 700.152 30.4628 700.2 30.2184C700.236 30.0694 700.253 29.9322 700.253 29.7984C700.253 29.6172 700.2 29.4834 700.098 29.394C699.959 29.264 699.791 29.201 699.591 29.201C699.337 29.201 699.128 29.3041 698.958 29.5139C698.79 29.722 698.7 30.058 698.7 30.516L698.727 32.8007V34.354H700.53V35.6326H698.727ZM685.825 34.9151C685.38 34.9151 685.002 35.081 684.686 35.4188C684.365 35.7525 684.155 36.4112 684.058 37.3998C683.955 38.3884 683.908 39.7608 683.908 41.5143C683.908 42.4456 683.969 43.3144 684.088 44.1253C684.185 44.7437 684.392 45.2109 684.703 45.5318C685.017 45.8559 685.371 46.0164 685.772 46.0164C686.165 46.0164 686.489 45.9058 686.753 45.6922C687.091 45.3942 687.317 44.9782 687.428 44.4498C687.602 43.6249 687.692 41.9553 687.692 39.4399C687.692 37.9607 687.607 36.9457 687.442 36.3943C687.278 35.8405 687.032 35.4398 686.713 35.1862C686.485 35.0045 686.192 34.9151 685.825 34.9151ZM685.772 33.9892C686.833 33.9892 687.822 34.2602 688.734 34.8083C689.646 35.3559 690.341 36.1363 690.814 37.1459C691.289 38.1516 691.526 39.2568 691.526 40.4589C691.526 42.1918 691.089 43.6385 690.208 44.8006C689.148 46.2131 687.682 46.9156 685.812 46.9156C683.978 46.9156 682.562 46.2706 681.573 44.984C680.581 43.6976 680.086 42.2054 680.086 40.5126C680.086 38.7624 680.595 37.2393 681.603 35.9399C682.619 34.6403 684.009 33.9892 685.772 33.9892ZM663.435 28.8595V40.499L666.268 37.7204C666.852 37.1557 667.216 36.7452 667.359 36.4913C667.502 36.2415 667.573 35.9971 667.573 35.7607C667.573 35.5259 667.479 35.3292 667.289 35.1747C667.096 35.0181 666.721 34.9075 666.164 34.8348V34.354H671.628V34.8348C671.107 34.8615 670.655 34.9857 670.262 35.2088C669.871 35.4283 669.104 36.0944 667.964 37.2088L666.634 38.5142L669.506 42.717C670.663 44.419 671.35 45.3751 671.567 45.5854C671.861 45.8829 672.236 46.0488 672.689 46.0831V46.5509H666.388V46.0831C666.664 46.0831 666.865 46.03 666.992 45.9232L667.18 45.5854C667.18 45.3849 666.999 45.0147 666.634 44.4765L664.22 40.9398L663.435 41.7109V43.9019C663.435 44.833 663.525 45.4155 663.699 45.6424C663.872 45.8753 664.229 46.0202 664.767 46.0831V46.5509H658.466V46.0831C658.979 46.03 659.344 45.8658 659.561 45.5854C659.714 45.3942 659.785 44.833 659.785 43.9019V31.5084C659.785 30.5865 659.699 30.012 659.531 29.7853C659.361 29.5637 659.004 29.4109 658.466 29.3441V28.8595H663.435ZM648.603 34.354V35.9304C649.231 35.2545 649.832 34.7604 650.406 34.4534C650.981 34.1401 651.595 33.9892 652.257 33.9892C653.046 33.9892 653.706 34.2071 654.227 34.6479C654.747 35.0848 655.095 35.6326 655.269 36.2815C655.41 36.7814 655.477 37.7338 655.477 39.1424V43.8886C655.477 44.8276 655.562 45.4155 655.731 45.6424C655.901 45.8753 656.257 46.0202 656.796 46.0831V46.5509H650.624V46.0831C651.088 46.0202 651.416 45.8293 651.616 45.5089C651.756 45.2912 651.826 44.7513 651.826 43.8886V38.4649C651.826 37.4627 651.786 36.8313 651.709 36.5716C651.63 36.3101 651.496 36.1096 651.309 35.9666C651.122 35.8198 650.918 35.7471 650.69 35.7471C649.942 35.7471 649.248 36.2815 648.603 37.3559V43.8886C648.603 44.8006 648.687 45.379 648.857 45.6255C649.03 45.8696 649.341 46.0202 649.805 46.0831V46.5509H643.633V46.0831C644.144 46.03 644.509 45.8658 644.728 45.5854C644.875 45.3942 644.95 44.8276 644.95 43.8886V36.9991C644.95 36.0772 644.865 35.5084 644.697 35.2793C644.528 35.0524 644.171 34.9075 643.633 34.8348V34.354H648.603ZM636.993 43.799V39.7164C635.942 40.3347 635.158 40.9934 634.646 41.6976C634.303 42.1691 634.133 42.6423 634.133 43.1177C634.133 43.5181 634.275 43.8714 634.566 44.1784C634.784 44.4135 635.087 44.5301 635.478 44.5301C635.915 44.5301 636.419 44.2836 636.993 43.799ZM636.993 44.7513C635.505 46.0662 634.17 46.7209 632.984 46.7209C632.289 46.7209 631.711 46.4934 631.253 46.0338C630.789 45.5814 630.563 45.0071 630.563 44.3198C630.563 43.3904 630.959 42.5527 631.761 41.8085C632.562 41.0659 634.303 40.0757 636.993 38.8427V37.6133C636.993 36.6918 636.944 36.1135 636.841 35.8729C636.744 35.6326 636.553 35.4226 636.276 35.2453C635.995 35.0674 635.684 34.978 635.337 34.978C634.77 34.978 634.303 35.1058 633.938 35.3559C633.715 35.5122 633.599 35.6956 633.599 35.9037C633.599 36.087 633.724 36.3139 633.965 36.585C634.295 36.959 634.463 37.3197 634.463 37.667C634.463 38.0947 634.303 38.4551 633.988 38.7586C633.667 39.0563 633.251 39.2069 632.739 39.2069C632.192 39.2069 631.734 39.0394 631.363 38.7093C630.995 38.3788 630.807 37.9915 630.807 37.5504C630.807 36.9228 631.056 36.327 631.551 35.7563C632.051 35.1862 632.739 34.7509 633.627 34.4436C634.513 34.1401 635.434 33.9892 636.392 33.9892C637.549 33.9892 638.461 34.2338 639.138 34.7242C639.811 35.2186 640.247 35.7471 640.448 36.3216C640.574 36.688 640.631 37.5294 640.631 38.8427V43.5756C640.631 44.1327 640.654 44.4857 640.698 44.6271C640.742 44.7704 640.805 44.8772 640.895 44.9475L641.192 45.051C641.42 45.051 641.651 44.8905 641.887 44.5699L642.275 44.881C641.842 45.528 641.392 45.9935 640.925 46.2836C640.461 46.5735 639.933 46.7209 639.339 46.7209C638.644 46.7209 638.1 46.5547 637.709 46.2305C637.318 45.9058 637.077 45.4116 636.993 44.7513ZM618.678 37.837V43.5105L618.665 44.1654C618.665 44.6309 618.779 44.9878 619.02 45.2283C619.26 45.465 619.613 45.5854 620.085 45.5854C620.779 45.5854 621.42 45.4326 622.008 45.1215C622.596 44.8142 623.046 44.3637 623.358 43.7777C623.675 43.1939 623.829 42.5393 623.829 41.8177C623.829 40.9896 623.638 40.2454 623.255 39.5905C622.873 38.9364 622.346 38.478 621.674 38.2148C621.006 37.953 620.004 37.8275 618.678 37.837ZM618.678 36.8176C619.911 36.8176 620.819 36.6784 621.407 36.4017C621.995 36.1233 622.445 35.7299 622.76 35.2262C623.073 34.7242 623.228 34.0791 623.228 33.2948C623.228 32.5141 623.073 31.8749 622.766 31.3709C622.459 30.871 622.018 30.4932 621.444 30.2315C620.869 29.9681 619.947 29.8423 618.678 29.8519V36.8176ZM623.425 37.1726C625.104 37.5602 626.283 38.0372 626.961 38.5927C627.936 39.3865 628.421 40.4113 628.421 41.6709C628.421 43.0011 627.886 44.1024 626.817 44.9706C625.505 46.0262 623.594 46.5509 621.09 46.5509H612.1V46.0701C612.92 46.0701 613.472 45.9935 613.766 45.8391C614.056 45.6862 614.26 45.4917 614.375 45.2455C614.497 45.0011 614.554 44.4037 614.554 43.4476V31.9682C614.554 31.0103 614.497 30.4091 614.375 30.1592C614.26 29.911 614.05 29.7144 613.756 29.5675C613.462 29.4147 612.911 29.3441 612.1 29.3441V28.8595H620.579C622.606 28.8595 624.043 29.0427 624.885 29.4016C625.732 29.7621 626.394 30.3023 626.88 31.02C627.37 31.7356 627.609 32.5026 627.609 33.3079C627.609 34.1633 627.302 34.9189 626.684 35.5866C626.07 36.2507 624.984 36.7814 623.425 37.1726Z" fill="#4185CD"/>
<path d="M568.688 5C586.74 5 601.376 19.6341 601.376 37.688C601.376 55.7403 586.74 70.3762 568.688 70.3762C550.634 70.3762 536 55.7403 536 37.688C536 19.6341 550.634 5 568.688 5Z" fill="white"/>
<path d="M541.199 48.7759L540.504 49.3504L540.852 49.8124L541.199 50.0453V48.7759ZM541.199 47.0414L540.39 46.5794L540.042 47.1559L541.199 47.9649V47.0414ZM541.199 42.7665H540.852C540.737 42.1901 540.504 41.6118 540.159 41.0334L539.697 41.2644C540.39 42.6521 539.811 43.5756 539.121 42.8828C538.312 42.1901 538.888 40.8043 539.121 39.8806L538.773 39.7645C538.195 41.0334 537.848 42.1901 538.773 43.5756C539.468 44.6156 540.159 44.2683 540.852 43.69L541.199 43.5756V42.7665ZM541.199 37.2224C540.621 37.3384 540.042 38.0312 540.042 38.9552C540.042 39.7645 540.39 40.3426 541.199 40.6883V39.6498C540.966 39.6498 540.737 39.4172 540.737 39.0715C540.621 38.7245 540.737 38.2625 541.082 38.2625H541.199V37.2224ZM541.199 33.4111L540.737 34.1057H541.199V33.4111ZM541.199 31.3328L540.852 32.0276H541.199V31.3328ZM541.199 55.3565C537.964 50.276 536.002 44.1539 536.002 37.6841C536.002 31.2184 537.964 25.0961 541.199 20.0137V21.8614C538.542 26.4817 537.038 31.9091 537.038 37.6841C537.038 43.459 538.542 48.8887 541.199 53.5093V55.3565ZM543.97 45.0776V46.1177C543.855 46.0011 543.739 46.0011 543.51 46.0011C542.47 46.0011 542.584 47.3866 543.161 47.9649C543.51 48.0815 543.739 48.0815 543.97 48.3125V49.3504L543.855 49.467L542.815 49.236L541.775 49.8124C541.661 49.9287 541.43 50.0453 541.199 50.0453V48.7759L541.313 48.6577L541.775 49.0052L542.237 48.5432L541.199 47.9649V47.0414L542.008 47.6176C541.775 46.1177 542.237 45.194 543.392 45.0776C543.625 45.0776 543.855 45.0776 543.97 45.0776ZM543.97 39.6498V40.5739H543.046L543.277 42.3045L543.97 42.1901V43.2282L541.199 43.5756V42.7665L542.237 42.5374L542.008 40.8043C541.775 40.8043 541.43 40.6883 541.199 40.6883V39.6498H541.43C541.775 39.5335 541.89 39.1862 541.775 38.8408C541.661 38.4935 541.43 38.2625 541.199 38.2625V37.2224C542.008 37.1077 542.815 37.6841 543.046 39.6498H543.97ZM543.97 33.1801V34.1057H541.199V33.4111L541.43 33.1801H543.97ZM543.97 19.2044V32.0276H541.199V31.3328L541.43 30.9854H543.97V19.2044ZM541.199 20.0137C542.123 18.7426 543.046 17.4737 543.97 16.317V17.821C542.932 19.09 542.008 20.4755 541.199 21.8614V20.0137ZM543.97 59.0531C543.046 57.8986 542.123 56.6276 541.199 55.3565V53.5093C542.008 54.8964 542.932 56.2822 543.97 57.5513V59.0531ZM543.97 32.0276V30.9854H545.125L544.779 32.0276H543.97ZM543.97 34.1057V33.1801H545.125L544.663 34.1057H543.97ZM543.97 49.3504L544.432 48.7759C544.317 48.5432 544.203 48.4269 543.97 48.3125V49.3504ZM545.125 46.0011V48.6577L545.01 48.7759C544.779 47.3866 544.432 46.4631 543.97 46.1177V45.0776C544.432 45.194 544.894 45.5394 545.125 46.0011ZM545.125 40.2263V43.8066C545.125 43.5756 545.01 43.3446 545.01 42.9972L543.97 43.2282V42.1901L544.894 42.0738L544.663 40.4589L543.97 40.5739V39.6498L544.432 39.5335C544.432 38.9552 544.432 38.3788 544.432 37.6841H545.01C545.01 38.4935 545.125 39.4172 545.125 40.2263ZM545.125 19.6683V21.3992C544.779 20.7064 544.317 19.8972 543.97 19.2044L545.125 19.6683ZM543.97 16.317C544.432 15.9696 544.779 15.5078 545.125 15.046V16.4314C544.779 16.8953 544.432 17.3572 543.97 17.821V16.317ZM545.125 60.3223C544.779 59.8624 544.432 59.5151 543.97 59.0531V57.5513C544.432 58.0131 544.779 58.477 545.125 58.9387V60.3223ZM549.747 51.7765V52.5853L548.936 51.6618C548.591 53.1636 547.781 53.5093 546.396 52.8163C546.396 53.971 547.55 54.5491 548.936 54.7804L549.747 54.2037V55.3565L547.667 57.0893L547.434 56.1658L548.245 55.3565C545.356 54.5491 545.356 53.0492 546.05 51.3148C546.972 52.5853 547.898 52.4709 548.245 50.7361C547.667 49.9287 547.205 49.0052 546.741 48.0815L545.125 48.6577V46.0011C545.472 46.3487 545.588 46.927 545.818 47.5032L546.396 47.2722C545.934 46.1177 545.472 44.961 545.125 43.8066V40.2263C545.356 42.3045 545.818 44.2683 546.627 46.1177C547.205 45.423 547.434 44.6156 546.972 43.8066L547.667 43.459C548.014 44.3849 547.898 45.5394 547.205 46.927L547.55 47.6176L547.321 47.8505C548.014 49.236 548.821 50.6215 549.747 51.7765ZM549.747 27.8671C548.245 30.7545 547.321 34.1057 547.321 37.6841C547.321 41.2644 548.245 44.6156 549.747 47.5032V45.3086C548.821 42.8828 548.245 40.3426 548.245 37.6841C548.245 35.0295 548.821 32.4895 549.747 30.0618V27.8671ZM549.747 21.2847V22.5541L545.472 21.0539C547.205 23.8247 549.167 27.8671 547.667 29.9474L547.205 30.0618C548.36 27.4052 546.741 24.2848 545.125 21.3992V19.6683L549.747 21.2847ZM549.747 15.5078L548.245 14.8171L549.747 20.0137V18.0499L549.399 16.7789L549.747 16.8953V15.5078ZM545.125 15.046C546.627 13.6605 548.127 12.273 549.747 11.1205V12.273C548.127 13.5461 546.51 14.9316 545.125 16.4314V15.046ZM549.747 64.2518C548.127 63.0951 546.627 61.7097 545.125 60.3223V58.9387C546.51 60.4386 548.127 61.8263 549.747 63.0951V64.2518ZM549.747 22.5541V21.2847L550.207 21.5156L549.747 20.0137V18.0499L551.133 23.0158L549.747 22.5541ZM551.825 54.2037C551.016 53.5093 550.321 52.7 549.747 51.7765V52.5853L550.552 53.6253L549.747 54.2037V55.3565L551.016 54.3181C551.249 54.5491 551.48 54.7804 551.709 55.0108L551.825 54.8964V54.2037ZM551.825 52.0091V53.1636C551.595 53.0492 551.48 52.8163 551.48 52.5853C551.48 52.2379 551.595 52.1235 551.825 52.0091ZM551.825 49.1197V50.7361C551.016 49.6977 550.321 48.6577 549.747 47.5032V45.3086C550.321 46.696 551.016 47.9649 551.825 49.1197ZM551.825 24.634V26.2525C551.016 27.5217 550.321 28.7928 549.747 30.0618V27.8671C550.321 26.7125 551.016 25.6724 551.825 24.634ZM551.825 16.55V17.821L549.747 16.8953V15.5078L551.825 16.55ZM549.747 11.1205C550.44 10.6566 551.133 10.1965 551.825 9.73296V10.8896C551.133 11.3514 550.44 11.8132 549.747 12.273V11.1205ZM551.825 65.6373C551.133 65.1755 550.44 64.7135 549.747 64.2518V63.0951C550.44 63.5572 551.133 64.0208 551.825 64.4828V65.6373ZM551.825 54.8964V54.2037L552.171 54.5491L551.825 54.8964ZM552.171 51.8925V53.278L551.825 53.1636V52.0091L552.171 51.8925ZM552.171 49.6977V51.1998L551.825 50.7361V49.1197C551.942 49.3504 552.056 49.467 552.171 49.6977ZM552.171 24.1722V25.6724C552.056 25.9054 551.942 26.1342 551.825 26.2525V24.634L552.171 24.1722ZM552.171 16.6644V18.0499L551.825 17.821V16.55L552.171 16.6644ZM551.825 9.73296L552.171 9.50375V10.6566L551.825 10.8896V9.73296ZM552.171 65.8683L551.825 65.6373V64.4828L552.171 64.7135V65.8683ZM552.171 53.278C552.633 53.278 552.978 52.931 552.978 52.5853C552.978 52.1235 552.633 51.8925 552.171 51.8925V53.278ZM557.6 62.75V63.6735C557.369 63.6735 557.138 63.6735 556.793 63.5572V62.519C557.022 62.6353 557.369 62.75 557.6 62.75ZM557.6 60.3223H557.253C556.56 59.1675 555.636 58.477 554.595 58.477C553.558 58.477 552.751 59.4007 553.904 61.7097L554.711 61.3623C554.02 60.6718 553.673 59.8624 554.249 59.4007C554.711 58.8224 555.404 59.2863 556.098 60.3223L555.982 60.5552L556.098 61.2458C556.679 61.1335 557.253 61.1335 557.6 61.1335V60.3223ZM557.6 58.5914V59.2863C557.484 59.2863 557.253 59.1675 557.022 59.0531L557.369 58.477L557.6 58.5914ZM557.6 54.8964V55.9329C555.522 54.6638 553.673 53.1636 552.171 51.1998V49.6977C553.673 51.7765 555.522 53.5093 557.6 54.8964ZM557.6 45.0776L556.793 41.381H555.058V47.0414H556.215V42.3045L557.253 47.0414H557.6V45.0776ZM557.6 32.14H554.711L555.058 33.2967H555.636V34.7985C554.711 35.1439 554.595 35.4912 555.175 36.415C555.404 36.8767 555.867 37.2224 556.446 37.2224C556.793 36.8767 556.679 36.5313 556.679 35.9532H557.6V34.7985H556.679V33.2967H557.6V32.14ZM557.6 27.0578V27.9835H553.787V48.3125H557.6V49.1197H552.978V27.0578H557.6ZM557.6 19.4354C555.522 20.7064 553.673 22.3231 552.171 24.1722V25.6724C553.673 23.7103 555.522 21.8614 557.6 20.592V19.4354ZM557.6 16.317V18.6282C557.022 19.4354 555.982 19.7827 554.942 19.321L552.171 18.0499V16.6644L555.289 18.1643C557.022 19.09 557.831 18.3973 557.6 16.317ZM552.171 9.50375C553.904 8.5784 555.751 7.65479 557.6 6.96171V8.00176C555.751 8.69458 553.904 9.61854 552.171 10.6566V9.50375ZM557.6 68.4085C555.751 67.7158 553.904 66.9083 552.171 65.8683V64.7135C553.904 65.7539 555.751 66.6773 557.6 67.3701V68.4085ZM557.6 18.6282C558.062 18.0499 558.177 17.2407 558.062 16.317H557.6V18.6282ZM557.6 35.9532V34.7985H558.755V33.2967H557.6V32.1403H560.255L560.604 33.2967H559.795V39.1862L558.755 38.3788V35.9532H557.6ZM557.6 47.0414V45.0776L557.831 45.8848L558.871 41.381H560.486V47.0414H559.448V42.3045L558.408 47.0414H557.6ZM568.689 61.3623C566.608 61.3623 564.532 61.0169 562.566 60.5552L562.45 59.7459H561.643C560.95 58.3604 560.026 57.6679 558.986 57.4369V58.2441C559.91 58.2441 560.373 58.9387 560.719 59.9769C559.678 59.6314 558.639 59.1675 557.6 58.5914V59.2863C557.948 59.5151 558.177 59.6314 558.408 59.7459L558.177 60.4386L557.6 60.3223V61.1335C558.755 61.1335 559.331 61.5952 559.219 62.1717C559.102 62.75 558.408 62.8663 557.6 62.75V63.6735C558.755 63.5572 559.564 63.0951 559.795 62.288C560.026 61.4789 559.678 60.9025 559.102 60.6718L559.219 60.0935C559.91 60.3223 560.604 60.6718 561.295 60.7862L560.255 64.2518L560.604 65.29L562.104 61.1335C564.184 61.7097 566.261 61.9407 568.458 61.9407L568.572 63.9045C566.379 64.7135 565.108 64.7135 564.992 64.0208C564.875 63.4408 565.801 63.0951 567.072 63.5572C567.186 63.3281 567.416 63.0951 567.648 62.9807C566.608 62.4024 565.684 62.4024 564.875 62.8663C563.49 63.4408 563.837 64.3662 564.761 64.9429C565.917 65.5212 567.301 65.29 568.572 64.8279V65.8683L568.689 66.099V61.3623ZM568.689 58.1313V59.0531C564.647 59.0531 560.833 57.8986 557.6 55.9329V54.8964C560.833 56.8602 564.647 58.1313 568.689 58.1313ZM568.689 19.2044C568.572 19.09 568.458 18.8591 568.458 18.5117C568.343 18.2808 567.996 18.1643 567.879 18.3973C567.186 18.9736 566.379 18.3973 566.608 20.2446L566.956 21.1683C566.032 21.8614 566.494 22.5541 566.723 23.4777C566.723 23.7103 566.723 23.9413 566.723 24.1725L566.494 24.5196C566.146 24.403 565.801 24.1725 565.684 23.7103C565.337 23.7103 565.108 23.7103 564.761 23.7103C564.761 23.9413 564.761 24.1725 564.875 24.2848H565.223C565.337 24.9797 565.801 25.6724 566.379 25.6724V26.7125H565.917C565.684 26.3672 565.57 25.7868 565.223 25.7868H564.761C564.299 25.7868 564.761 26.5978 565.223 26.8269C565.337 27.4052 565.801 27.6361 566.379 27.8671V28.7928C566.032 28.9072 565.454 28.9072 565.223 27.8671H564.416V28.6763L564.992 28.7928C565.108 29.4855 565.57 29.9474 566.146 30.2947V31.1019L565.684 31.2184C565.454 30.9854 565.337 30.6401 565.337 30.4091H564.299V31.1019H564.761C564.875 31.9091 565.337 32.3729 566.032 32.7184V33.8747C565.801 33.8747 565.57 33.8747 565.454 33.8747C565.108 33.6418 564.992 33.4111 564.992 33.1801H563.954V33.8747L564.416 33.9894C564.761 34.4512 565.223 35.0295 565.684 35.1439L565.801 36.415C565.801 36.415 564.761 36.5313 564.761 36.0679V35.4912H563.837C563.837 35.7222 563.837 35.9532 563.837 36.184L564.184 36.3006C564.532 36.9914 564.992 37.5697 565.57 38.0317L565.454 39.1862H564.875L564.761 38.3788H563.606V38.8408C563.721 39.0715 563.954 39.1862 564.184 39.1862L564.299 39.5335C564.647 40.2263 564.992 40.5739 565.454 40.5739V42.3045C564.992 42.3045 564.416 41.9593 564.299 41.15H563.49V41.8444L563.954 42.0738C564.184 43.1138 564.647 43.5756 565.223 43.9229V46.3487L564.647 47.1559H563.721V48.3125H562.335V27.0578H557.6V27.9835H561.528V48.3125H557.6V49.1197H568.689V19.2044ZM568.689 16.317V17.2407C564.647 17.2407 560.833 18.5117 557.6 20.592V19.4354C560.833 17.4737 564.647 16.317 568.689 16.317ZM568.689 11.6967L567.879 12.9678L565.337 6.96171C564.068 10.5439 563.145 15.3934 559.678 16.6644L560.026 16.8953C562.566 16.55 564.299 12.3894 565.108 9.27288L567.416 14.7007L568.689 12.6221V11.6967ZM557.6 6.96171C561.064 5.69272 564.875 5 568.689 5V6.03625C564.875 6.03625 561.064 6.73075 557.6 8.00176V6.96171ZM568.689 70.3723C564.875 70.3723 561.064 69.6796 557.6 68.4085V67.3701C561.064 68.6395 564.875 69.4505 568.689 69.4505V70.3723ZM568.689 12.6224L570.883 9.27288L572.731 15.046C573.309 16.7789 575.503 17.3572 577.004 15.2769L576.658 14.9316C575.387 16.55 574.349 16.4314 573.771 14.5862L571.46 7.07817L568.689 11.6967V12.6224ZM577.813 61.3623C575.734 62.288 575.965 64.0208 577.235 64.5972C577.351 64.5972 577.582 64.7135 577.813 64.7135V64.1352L577.351 64.0208C576.658 63.5572 576.775 62.75 577.813 62.288V61.3623ZM577.813 59.5151V60.5552L577.696 60.3223C575.04 61.3623 572.269 61.9407 569.265 61.9407V63.4408C570.189 62.9807 571.114 62.519 571.923 62.6353C573.54 62.6353 573.885 63.6735 573.423 64.8279C572.961 65.8683 571.46 65.7539 570.536 65.6373C570.652 65.4063 570.769 65.059 570.883 64.7135C571.923 64.9429 573.192 64.4828 572.961 63.7882C572.614 62.9807 571.229 63.4408 570.421 64.0208C570.074 64.2518 569.726 64.3662 569.265 64.5972V66.561L568.689 66.099V61.3623C571.923 61.3623 574.925 60.6718 577.813 59.5151ZM577.813 55.9329V57.0893C575.04 58.3604 571.923 59.0531 568.689 59.0531V58.1313C571.923 58.1313 575.04 57.3203 577.813 55.9329ZM577.582 41.381H577.811V47.0414H577.582V41.381ZM577.813 34.3368V36.6463C577.467 36.3006 577.235 35.9532 577.235 35.4912C577.12 35.0295 577.351 34.5678 577.813 34.3368ZM577.813 32.0276V33.2967H577.235L576.775 32.0276H577.813ZM577.813 30.2947V31.1019H577.235L576.658 30.1783C577.004 30.1783 577.235 30.1783 577.582 30.1783L577.813 30.2947ZM577.813 28.7928V29.6H577.12L576.658 28.7928H577.813ZM577.813 27.0578H575.04V48.3125H573.656V47.0414H572.614L572.154 46.3487V43.9229C572.502 43.459 572.731 43.69 573.192 42.7665L573.423 42.0738C573.656 41.9593 573.771 41.4973 573.771 41.0334H572.847C572.847 41.9593 572.038 42.3045 571.576 42.3045V40.5739C571.923 40.4589 572.154 40.4589 572.614 39.8806L572.961 39.3044C573.192 39.1862 573.309 39.0715 573.423 38.8408V38.3788H572.269L572.154 39.1862H570.883V38.0317C571.46 37.6841 572.269 37.3384 572.385 36.5316L573.078 36.184V35.4912H572.154L571.805 36.0679C571.576 36.5313 570.536 36.415 570.652 36.415V35.1439C571.229 34.9134 571.805 34.5678 572.038 34.1057L572.614 33.8747V32.9491H571.576C571.576 33.2967 571.343 33.6418 570.998 33.8747C570.769 33.8747 570.652 33.8747 570.421 33.8747V32.7184C570.997 32.3729 571.692 32.1403 571.805 31.3328L572.385 31.1019V30.4091H571.343C571.343 30.6401 570.997 30.9854 570.883 31.2184H570.305V30.2947C570.883 29.9474 571.229 29.4855 571.343 28.7928L572.038 28.6763V27.8671H570.998C570.769 28.9072 570.305 28.9072 570.074 28.7928V27.8671C570.652 27.5217 570.652 27.4052 571.229 26.8269C571.692 26.5978 572.038 25.558 571.576 25.6724H571.114C570.769 25.6724 570.769 26.2525 570.536 26.4817C570.421 26.4817 570.074 26.5978 569.843 26.5978V25.558C570.421 25.4432 571.114 24.9797 571.229 24.2848H571.576C571.576 24.1725 571.576 23.9413 571.692 23.7103C571.343 23.7103 570.997 23.7103 570.769 23.7103C570.652 24.1725 570.305 24.403 569.96 24.5196C569.498 24.1725 569.381 24.1725 569.265 23.5942C569.265 22.7849 570.074 22.0919 569.498 21.1683L569.381 20.592C569.381 19.6683 569.034 19.5519 568.689 19.2044V49.1197H577.813V48.3125H575.734V27.9835H577.813V27.0578ZM577.813 18.3973V19.4354C575.04 18.0499 571.923 17.2407 568.689 17.2407V16.317C571.923 16.317 575.04 17.0097 577.813 18.3973ZM577.813 69.1032C574.925 69.9106 571.805 70.3723 568.689 70.3723V69.4505C571.805 69.4505 574.925 68.9868 577.813 68.0628V69.1032ZM568.689 5C571.805 5 574.925 5.46176 577.813 6.38367V7.30905C574.925 6.49987 571.805 6.03625 568.689 6.03625V5ZM578.62 59.1675V59.8624H578.507L578.62 60.0935V64.5972C578.391 64.7135 578.044 64.7135 577.813 64.7135V64.1352C578.507 64.2518 578.853 63.2117 578.391 62.1717C578.158 62.1717 577.929 62.288 577.813 62.288V61.3623L578.044 61.1335L577.813 60.5552V59.5151C578.044 59.4007 578.391 59.2863 578.62 59.1675ZM578.62 55.4731V56.6276C578.391 56.7436 578.044 56.8602 577.813 57.0893V55.9329C578.044 55.8182 578.391 55.7038 578.62 55.4731ZM577.813 48.3125H578.62V49.1197H577.813V48.3125ZM577.813 41.381H578.62V47.0414H577.813V41.381ZM578.62 33.9894V35.3749L578.507 35.0295C578.044 35.3749 577.929 35.7222 578.158 36.0679C578.275 36.184 578.391 36.3006 578.62 36.3006V36.9914C578.275 36.9914 578.044 36.7623 577.813 36.646V34.3368C578.044 34.1057 578.275 33.9894 578.62 33.9894ZM577.813 32.0276H578.62V33.2986H577.813V32.0276ZM578.62 30.7545V31.5637L577.929 31.1019H577.813V30.2947C578.044 30.2947 578.275 30.4091 578.507 30.6401L578.62 30.7545ZM578.62 29.1361V29.8308C578.391 29.7164 578.158 29.6 577.929 29.6H577.813V28.7928C578.044 28.9072 578.391 29.0237 578.62 29.1361ZM577.813 27.0578H578.62V27.9835H577.813V27.0578ZM578.62 18.7426V19.8972C578.391 19.6683 578.044 19.5519 577.813 19.4354V18.3973C578.044 18.5117 578.391 18.6282 578.62 18.7426ZM578.62 17.1263V17.5881V17.0097V17.1263ZM578.62 68.7556C578.391 68.8722 578.044 68.9868 577.813 69.1032V68.0628C578.044 67.9484 578.391 67.9484 578.62 67.8321V68.7556ZM577.813 6.38367C578.044 6.38367 578.391 6.49987 578.62 6.61632V7.65479C578.391 7.53824 578.044 7.42347 577.813 7.30905V6.38367ZM579.2 60.7862V64.0208C579.086 64.2518 578.853 64.4828 578.62 64.5972V60.0935L578.967 60.9025L579.2 60.7862ZM579.2 58.9387V59.6314C579.086 59.6314 578.853 59.7459 578.62 59.8624V59.1675C578.853 59.0531 579.086 58.9387 579.2 58.9387ZM579.2 55.1258V56.2822C579.086 56.3985 578.853 56.5132 578.62 56.6276V55.4731C578.853 55.3565 579.086 55.2402 579.2 55.1258ZM578.62 48.3125H579.2V49.1197H578.62V48.3125ZM578.62 46.1177H579.2V47.0414H578.62V46.1177ZM578.62 43.5756H579.2V44.4993H578.62V43.5756ZM578.62 41.381H579.2V42.4211H578.62V41.381ZM579.2 36.3006V37.1077C578.967 37.1077 578.853 37.1077 578.62 36.9914V36.3006C578.853 36.3006 578.967 36.3006 579.2 36.3006ZM579.2 33.9894V36.184L578.62 35.3749V33.9894H578.967H579.2ZM578.62 32.0276H579.2V33.2986H578.62V32.0276ZM579.2 31.1019V32.0276L578.62 31.5637V30.7545C578.853 30.8693 579.086 30.9854 579.2 31.1019ZM579.2 29.6V30.4091C579.086 30.1783 578.967 30.0618 578.853 29.9474L578.62 29.8308V29.1361L578.737 29.2546C578.967 29.369 579.086 29.4855 579.2 29.6ZM578.62 27.0578H579.2V27.9835H578.62V27.0578ZM579.2 19.09V20.2446C579.086 20.1285 578.853 20.0137 578.62 19.8972V18.7426C578.853 18.8591 579.086 18.9736 579.2 19.09ZM579.2 17.3572V17.9334C578.967 17.821 578.853 17.7025 578.62 17.5881V17.1263C578.853 17.2407 579.086 17.2407 579.2 17.3572ZM579.2 68.6395C579.086 68.6395 578.853 68.7556 578.62 68.7556V67.8321C578.853 67.7158 579.086 67.7158 579.2 67.6011V68.6395ZM578.62 6.61632C578.853 6.61632 579.086 6.73074 579.2 6.73074V7.77089C579.086 7.77089 578.853 7.65479 578.62 7.65479V6.61632ZM579.662 60.6718V61.5952L579.429 61.7097C579.662 62.6353 579.546 63.4408 579.2 64.0208V60.7862L579.662 60.6718ZM579.662 58.7058V59.4007L579.2 59.6314V58.9387L579.662 58.7058ZM579.662 54.8964V56.0512C579.429 56.1658 579.315 56.1658 579.2 56.2822V55.1258L579.662 54.8964ZM579.2 48.3125H579.662V49.1197H579.2V48.3125ZM579.2 46.1177H579.662V47.0414H579.2V46.1177ZM579.2 43.5756H579.662V44.4993H579.2V43.5756ZM579.2 41.381H579.662V42.4211H579.2V41.381ZM579.662 35.4912V37.1077H579.2V36.3006H579.315L579.2 36.184V34.9129L579.662 35.4912ZM579.662 33.9894V34.6822L579.2 34.7985V33.9894H579.662ZM579.662 31.4493V33.2967H579.2V32.0276H579.315H579.2V31.1019C579.315 31.2184 579.429 31.3328 579.662 31.4493ZM579.662 29.9474V30.8693C579.546 30.6401 579.315 30.5257 579.2 30.4091V29.6L579.662 29.9474ZM579.2 27.0578H579.662V27.9835H579.2V27.0578ZM579.662 19.321V20.4755L579.2 20.2446V19.09C579.315 19.2044 579.429 19.2044 579.662 19.321ZM579.662 17.4737V18.0499C579.429 18.0499 579.315 17.9334 579.2 17.9334V17.3572C579.315 17.3572 579.429 17.4737 579.662 17.4737ZM579.662 68.5248C579.429 68.5248 579.315 68.5248 579.2 68.6395V67.6011C579.315 67.6011 579.429 67.4845 579.662 67.4845V68.5248ZM579.2 6.73074C579.315 6.84729 579.429 6.84729 579.662 6.96171V7.88735C579.429 7.88735 579.315 7.88735 579.2 7.77089V6.73074ZM581.626 57.5513V58.2441C581.393 58.3604 581.279 58.477 581.162 58.477L581.626 59.2863V61.2458L581.279 60.7862L579.662 61.5952V60.6718L580.931 59.9769L580.355 59.0531C580.124 59.1675 579.893 59.2863 579.662 59.4007V58.7058C580.24 58.3604 580.931 58.0131 581.626 57.5513ZM581.626 53.5093V54.7804C580.931 55.2402 580.24 55.7038 579.662 56.0512V54.8964C580.355 54.5491 580.931 54.0873 581.626 53.5093ZM579.662 48.3125H581.626V49.1197H579.662V48.3125ZM581.626 41.8444V43.8066L581.279 44.0373L581.626 44.1539V46.5794C581.279 46.927 580.931 47.0414 579.893 47.0414H579.662V46.1177H580.124C580.702 46.1177 580.931 45.7723 580.931 45.194C580.931 44.7322 580.584 44.4993 580.124 44.4993H579.662V43.5756H580.007C580.469 43.5756 580.815 43.459 580.815 42.9972C580.815 42.5371 580.469 42.4211 580.007 42.4211H579.662V41.381H580.24C580.931 41.381 581.279 41.6118 581.626 41.8444ZM581.626 32.0276H581.279C580.584 31.4493 580.24 30.6401 579.662 29.9474V30.8693C579.893 31.2184 580.24 31.6781 580.584 32.0276H580.24C580.007 31.7947 579.777 31.6781 579.662 31.4493V33.2967H580.584V34.6822C580.355 34.3368 580.007 34.1058 579.662 33.9894V34.6822C580.007 34.6822 580.355 34.7985 580.469 35.0295H580.584V35.6078C580.469 35.7222 580.24 35.9532 580.007 36.0679L579.662 35.4912V37.1077C580.007 36.9914 580.355 36.7623 580.584 36.5316V38.1478L581.626 38.7245V32.0276ZM581.626 29.8308V31.3328C581.162 31.3328 580.815 30.9854 580.815 30.6401C580.815 30.1783 581.162 29.8308 581.626 29.8308ZM579.662 27.0578H581.626V27.9835H579.662V27.0578ZM581.626 20.7064V21.8614C580.931 21.3992 580.355 20.9373 579.662 20.4755V19.321C580.24 19.7827 580.931 20.1285 581.626 20.7064ZM581.626 17.7025V18.2808C580.815 18.2808 580.24 18.2808 579.662 18.0499V17.4737C580.24 17.7025 580.931 17.7025 581.626 17.7025ZM581.626 67.7158C580.931 67.9484 580.24 68.1778 579.662 68.5248V67.4845C580.24 67.2557 580.931 66.9083 581.626 66.6773V67.7158ZM579.662 6.96171C580.24 7.19259 580.931 7.42347 581.626 7.65479V8.69458C580.931 8.4636 580.24 8.23097 579.662 7.88735V6.96171ZM581.626 31.3328V29.8308C581.971 29.8308 582.319 30.1783 582.319 30.6401C582.319 30.9854 581.971 31.3328 581.626 31.3328ZM581.626 38.7245V32.0276H581.971L582.548 33.1801H581.738V38.8408L581.626 38.7245ZM581.626 43.8066C581.738 43.69 581.971 43.3446 581.971 42.8828C581.971 42.5374 581.857 42.1901 581.626 41.8444V43.8066ZM581.626 46.5794C581.971 46.2321 582.202 45.7723 582.202 45.3086C582.202 44.8444 581.971 44.3849 581.626 44.1539V46.5794ZM581.626 49.1197V48.3125H583.473V27.9835H581.626V27.0578H584.282V49.1197H581.626ZM581.626 61.2458L582.319 62.75H583.357L581.626 59.2863V61.2458ZM588.901 54.5491C588.439 54.5491 588.206 54.7804 588.206 55.2402C588.206 55.5875 588.439 55.9329 588.901 55.9329V54.5491ZM588.901 50.276C587.053 53.1636 584.511 55.7038 581.626 57.5513V58.2441C583.009 57.4369 584.282 56.3985 585.437 55.3565L586.013 56.1658C584.282 56.8602 583.357 58.2441 584.282 59.0531C584.742 59.4007 586.13 58.8224 586.708 58.2441C587.284 57.5513 587.979 57.8986 587.515 58.5914C587.053 59.2863 586.361 59.6314 585.437 59.8624V60.3223L586.708 60.0935L586.361 60.9025L587.053 61.0169L587.399 60.2079L588.901 59.9769V59.1675H588.092C588.786 58.3604 589.016 57.4369 588.206 56.973C587.399 56.3985 586.708 57.2056 586.013 57.8986C585.206 58.7058 584.742 57.7823 585.321 57.4369C585.897 56.973 586.592 56.5132 587.17 56.0512L586.13 54.6638C587.17 53.6253 588.092 52.4709 588.901 51.1998V50.276ZM588.901 40.8043V44.7322C587.515 48.7759 584.859 52.2382 581.626 54.7804V53.5093C585.437 50.3905 588.092 45.8848 588.901 40.8043ZM588.901 30.6401C587.515 26.5978 584.859 23.132 581.626 20.7064V21.8614C585.437 24.9797 588.092 29.4855 588.901 34.5678V30.6401ZM588.901 25.0961V28.9072C587.979 28.2145 587.746 27.0578 588.324 26.0198L588.901 25.0961ZM588.901 15.2769V16.4314L586.708 20.9373L588.901 20.592V21.1683L585.09 21.7448L587.63 16.317C585.897 17.2407 583.588 18.1643 581.626 18.2808V17.7025C583.935 17.5881 586.592 16.317 588.901 15.2769ZM588.901 63.3281C586.708 65.059 584.164 66.561 581.626 67.7158V66.6773C584.164 65.5212 586.708 63.9045 588.901 62.1717V63.3281ZM581.626 7.65479C584.164 8.80927 586.708 10.3113 588.901 12.0441V13.3131C586.708 11.4658 584.164 9.96559 581.626 8.69458V7.65479ZM588.901 16.4314L589.594 15.046C589.363 15.1624 589.132 15.2769 588.901 15.2769V16.4314ZM588.901 27.6361V25.0961L591.441 20.7064L588.901 21.1683V20.592L593.521 19.7827L589.363 26.4817C589.132 26.9452 588.901 27.2908 588.901 27.6361ZM588.901 28.9072V27.9835C589.016 28.6763 589.71 28.9072 590.979 28.9072V29.369C590.056 29.4855 589.363 29.2546 588.901 28.9072ZM588.901 44.7322C589.71 42.5374 590.056 40.11 590.056 37.6841C590.056 35.2605 589.71 32.8347 588.901 30.6401V34.5678C589.016 35.6078 589.132 36.646 589.132 37.6841C589.132 38.7245 589.016 39.8806 588.901 40.8043V44.7322ZM588.901 55.9329V54.5491C589.248 54.5491 589.594 54.7804 589.594 55.2402C589.594 55.5875 589.248 55.9329 588.901 55.9329ZM588.901 59.9769H589.477V59.1675H588.901V59.9769ZM594.214 36.7623V37.6841H593.059C593.059 38.6095 592.943 39.5335 592.829 40.3426H593.636C593.636 39.8806 593.867 39.5335 594.214 39.3044V43.459C593.636 44.3849 593.521 45.0776 594.098 45.423H594.214V46.3487C593.752 46.2321 593.405 46.0011 593.176 45.423C592.712 44.3849 593.176 43.2282 593.983 42.1901L593.752 41.2644H592.712C592.481 43.2282 591.905 45.0776 591.212 46.927L594.214 48.1981V49.1197L590.864 47.7361C590.636 48.1981 590.403 48.7759 590.056 49.236C591.558 48.8887 593.867 49.5814 593.29 52.1235C593.059 53.278 591.672 54.2037 590.75 53.7419C589.363 53.1636 589.479 51.6618 590.864 50.7361C590.979 50.9688 591.098 51.1998 591.325 51.4308C590.403 52.1235 590.287 53.1636 591.212 52.931C591.905 52.8163 593.059 51.4308 591.672 50.1597C591.212 49.6977 590.287 49.8124 589.594 50.0453C589.363 50.507 589.132 50.8525 588.901 51.1998V50.276C591.212 46.5794 592.481 42.3045 592.367 37.6841C592.367 37.1077 592.367 36.5316 592.25 35.8366H592.943C592.943 36.184 592.943 36.5316 592.943 36.7623H594.214ZM594.214 32.9491V33.8747H592.019L592.712 32.9491H594.214ZM594.214 30.7545V31.6781H592.134L592.712 30.7545H594.214ZM594.214 58.0131C592.597 59.9769 590.864 61.8263 588.901 63.3281V62.1717C590.864 60.4386 592.712 58.5914 594.214 56.5132V58.0131ZM588.901 12.0441C590.864 13.6605 592.597 15.3934 594.214 17.3572V18.8591C592.712 16.7789 590.864 14.9316 588.901 13.3131V12.0441ZM594.214 31.6781H595.947L596.409 30.7545H594.214V31.6781ZM594.214 33.8747H595.947L596.409 32.8347L594.214 32.9491V33.8747ZM594.214 37.6841H596.871L597.449 36.7623H594.214V37.6841ZM594.214 43.459L594.331 43.3446L594.562 43.69L595.369 42.9972C594.214 41.2644 594.331 39.7645 595.021 39.6498C595.832 39.5335 596.409 40.8043 596.292 42.0738L597.218 41.4973C596.871 39.9953 596.063 39.0715 594.907 39.0715C594.676 39.0715 594.445 39.1862 594.214 39.3044V43.459ZM594.214 46.3487C595.138 46.4631 596.409 45.5394 596.523 44.1539L595.716 44.2683C595.369 45.0776 594.907 45.656 594.214 45.423V46.3487ZM594.214 49.1197L594.562 49.3504L595.602 48.7759L594.214 48.1981V49.1197ZM594.214 17.3572C598.718 22.9011 601.376 30.0618 601.376 37.6841C601.376 45.423 598.718 52.4709 594.214 58.0131V56.5132C598.142 51.1998 600.451 44.7322 600.451 37.6841C600.451 30.6401 598.142 24.1722 594.214 18.8591V17.3572Z" fill="#4185CD"/>
</g>
<defs>
<clipPath id="clip0_6202_62127">
<rect width="910" height="75" fill="white"/>
</clipPath>
</defs>
</svg>
