<svg width="14" height="14" viewBox="0 0 14 14" fill="none" xmlns="http://www.w3.org/2000/svg">
<rect width="14" height="14" fill="white"/>
<path fill-rule="evenodd" clip-rule="evenodd" d="M0.512563 2.48816C0.184375 2.80072 0 3.22464 0 3.66667V10.3333C0 10.7754 0.184375 11.1993 0.512563 11.5118C0.840752 11.8244 1.28587 12 1.75 12H12.25C12.7141 12 13.1592 11.8244 13.4874 11.5118C13.8156 11.1993 14 10.7754 14 10.3333V3.66667C14 3.22464 13.8156 2.80072 13.4874 2.48816C13.1592 2.17559 12.7141 2 12.25 2H1.75C1.28587 2 0.840752 2.17559 0.512563 2.48816ZM1.13128 3.07741C1.29538 2.92113 1.51794 2.83333 1.75 2.83333H12.25C12.4821 2.83333 12.7046 2.92113 12.8687 3.07741C13.0328 3.23369 13.125 3.44565 13.125 3.66667V4.5H0.875V3.66667C0.875 3.44565 0.967187 3.23369 1.13128 3.07741ZM0.875 6.16667H13.125V10.3333C13.125 10.5543 13.0328 10.7663 12.8687 10.9226C12.7046 11.0789 12.4821 11.1667 12.25 11.1667H1.75C1.51794 11.1667 1.29538 11.0789 1.13128 10.9226C0.967187 10.7663 0.875 10.5543 0.875 10.3333V6.16667ZM2.00628 8.07741C1.84219 8.23369 1.75 8.44565 1.75 8.66667V9.5C1.75 9.72101 1.84219 9.93298 2.00628 10.0893C2.17038 10.2455 2.39294 10.3333 2.625 10.3333H3.5C3.73207 10.3333 3.95462 10.2455 4.11872 10.0893C4.28281 9.93298 4.375 9.72101 4.375 9.5V8.66667C4.375 8.44565 4.28281 8.23369 4.11872 8.07741C3.95462 7.92113 3.73207 7.83333 3.5 7.83333H2.625C2.39294 7.83333 2.17038 7.92113 2.00628 8.07741Z" fill="#767E86"/>
</svg>
