<svg width="141" height="120" viewBox="0 0 141 120" fill="none" xmlns="http://www.w3.org/2000/svg">
<path d="M7.08899 60.5C7.08899 75.2195 12.9518 89.3362 23.3877 99.7444C33.8236 110.153 47.9777 116 62.7363 116C77.4949 116 91.649 110.153 102.085 99.7444C112.521 89.3362 118.384 75.2195 118.384 60.5C118.384 45.7805 112.521 31.6638 102.085 21.2556C91.649 10.8473 77.4949 5 62.7363 5C47.9777 5 33.8236 10.8473 23.3877 21.2556C12.9518 31.6638 7.08899 45.7805 7.08899 60.5Z" fill="#F8F8FA"/>
<path d="M128.777 81.287L63.8387 68.8243C59.5731 68.0056 55.4656 70.8744 54.6643 75.2319C53.8629 79.5893 56.6712 83.7853 60.9367 84.604L125.875 97.0667C130.141 97.8853 134.248 95.0165 135.05 90.6591C135.851 86.3016 133.043 82.1056 128.777 81.287Z" fill="#33CF90"/>
<path d="M31.5732 67.1396L63.5224 39.4308L98.7919 63.5999L98.8122 103.952L34.8404 106.341L31.5732 67.1396Z" fill="#132056"/>
<path d="M37.2998 38.5882L42.259 102.329L89.7755 103.117L92.8626 43.8797L86.247 35.8855L37.2998 38.5882Z" fill="#E6F2FE"/>
<path d="M24.6107 110.117C26.8067 110.219 28.9323 110.155 30.3516 110.081C29.0594 109.158 26.0824 107.145 23.5913 106.345L21.8813 106.242C21.8813 106.242 21.3018 107.128 21.0949 109.155C21.3784 109.51 22.2068 110.006 24.6107 110.117Z" fill="#132056"/>
<path d="M30.3695 110.095L30.3519 110.082C28.9327 110.155 26.807 110.219 24.6111 110.118C22.2072 110.007 21.3787 109.511 21.0953 109.156C21.0859 109.249 21.0762 109.341 21.0682 109.44C21.0327 109.884 21.3612 110.275 21.8038 110.309C23.6023 110.446 28.0616 110.756 30.212 110.642C30.4955 110.626 30.6008 110.261 30.3695 110.095Z" fill="#132056"/>
<path d="M8.90477 109.527C8.74413 108.491 8.48524 106.993 8.2861 106.61C7.97411 106.009 6.90407 106.61 6.90407 106.61C6.90407 106.61 6.15263 106.962 5.80745 107.549C5.58574 107.923 4.97638 108.988 4.5635 109.71C4.51703 109.793 4.49711 109.882 4.49976 109.967L8.78395 110.118C8.88883 109.949 8.93796 109.743 8.90477 109.527Z" fill="#132056"/>
<path d="M4.49999 109.966C4.50663 110.212 4.70046 110.436 4.97395 110.443L8.02612 110.528C8.34873 110.536 8.62885 110.368 8.78418 110.117L4.49999 109.966Z" fill="#132056"/>
<path d="M9.23438 103.164C9.1972 103.288 8.64359 105.986 8.40196 107.17C8.33425 107.498 8.04085 107.727 7.70895 107.711C7.52839 107.702 7.31731 107.685 7.0956 107.656C6.70396 107.605 6.40525 107.276 6.38931 106.878C6.35081 105.841 6.33089 103.85 6.70926 103.078C7.23234 102.014 9.23438 103.164 9.23438 103.164Z" fill="#FFA283"/>
<path d="M21.5486 103.936C21.7859 103.929 21.4538 105.169 21.813 106.388C21.8941 106.663 22.0986 106.878 22.3838 106.882C22.5687 106.884 22.7876 106.881 23.01 106.863C23.3444 106.836 23.6132 106.575 23.6442 106.239L23.9365 103.078L21.5486 103.936Z" fill="#FFA283"/>
<path d="M28.1904 70.3308C28.0845 70.8494 24.3435 92.7838 24.1165 104.134C24.1127 104.324 23.9736 104.484 23.786 104.51C23.3109 104.577 22.3863 104.662 21.4895 104.495C21.3665 104.472 21.2741 104.37 21.2663 104.245C21.1355 102.13 20.0841 84.2469 21.3718 75.8285C21.3718 75.8285 10.7352 98.3322 9.12213 104.537C9.08363 104.688 8.94555 104.79 8.79022 104.781C8.33485 104.757 7.38694 104.675 6.63552 104.397C6.36601 104.297 6.21201 104.012 6.27972 103.731C7.18117 100.018 13.4942 74.4329 17.7807 68.7959L28.1904 70.3308Z" fill="#132056"/>
<path d="M31.7856 42.026C28.6031 41.5447 22.3575 40.8561 18.2837 42.0576L17.3778 68.7831L27.999 70.1667L33.4854 53.1153L34.7373 51.3263C34.7373 51.3263 34.1573 42.3844 31.7856 42.026Z" fill="#FE794D"/>
<path d="M24.4346 35.2487C24.4346 35.2487 24.1396 40.2827 24.1955 41.8492C24.1955 41.8492 28.2956 42.5236 29.2715 41.8185L28.5007 35.8506L24.4346 35.2487Z" fill="#FFA283"/>
<path d="M28.4505 30.6043C28.4505 30.6043 29.769 33.6813 29.8523 35.2945C29.9354 36.909 30.2769 37.9566 28.4209 38.2801C26.5647 38.6035 25.0058 37.6711 24.1655 36.0624C24.1655 36.0624 22.8489 33.5834 23.1503 32.5698C23.4517 31.5549 28.4505 30.6043 28.4505 30.6043Z" fill="#FFA283"/>
<path d="M24.7489 34.7194L24.9822 34.7443C24.9822 34.7443 24.241 32.6588 25.1232 32.4017C26.0055 32.1446 29.4242 31.8181 30.2776 30.7016C31.1 29.6262 30.6443 28.0733 29.7628 27.5567C29.707 27.524 29.6346 27.5451 29.5982 27.5987L29.5051 27.737C29.4416 27.8311 29.2961 27.8007 29.2768 27.6885C29.2586 27.5819 29.1227 27.5441 29.0562 27.6294C28.7958 27.9635 28.1339 28.4793 26.4975 28.6044C24.1759 28.7823 22.5693 29.547 22.3574 31.1249C22.3437 31.2258 22.2312 31.2696 22.1521 31.2072C21.9954 31.0868 21.7319 31.0101 21.3392 31.2744C20.656 31.7363 20.7601 33.1344 22.0047 34.4098C22.0638 34.4705 22.0519 34.5732 21.9763 34.6114C21.7101 34.7474 21.2973 35.0947 22.1993 35.7128C23.1218 36.3464 23.7087 36.3515 23.9339 36.3187C23.9945 36.31 24.0403 36.2599 24.0433 36.1976L24.1123 34.7867C24.1158 34.7137 24.18 34.658 24.2519 34.6669L24.7489 34.7194Z" fill="#132056"/>
<path d="M25.3574 35.1651C25.3574 35.1651 24.6434 33.2687 23.8312 33.9092C23.0191 34.5512 24.5174 36.0485 25.2253 36.0459L25.3574 35.1651Z" fill="#FFA283"/>
<path d="M22.4023 47.5766L18.2856 42.0574C18.2856 42.0574 11.6704 49.1219 10.4012 58.0883L14.5276 60.1114C15.8085 57.0921 18.1658 53.0017 22.4023 47.5766Z" fill="#FE794D"/>
<path d="M29.0527 46.1515L32.1572 41.9895C32.1572 41.9895 37.1456 47.3167 38.1027 54.0783L34.991 55.6038C34.0251 53.327 32.2475 50.2425 29.0527 46.1515Z" fill="#FE794D"/>
<path d="M16.5036 72.4393C16.016 71.6191 15.0635 70.0575 14.6005 69.5702C14.6005 69.5702 15.0239 69.3013 15.8361 69.4016C16.6482 69.502 17.2844 69.1037 17.2601 68.6593L13.3848 67.4644C13.2107 67.0986 12.4439 65.0236 14.5275 60.1121L10.401 58.089C9.92571 61.4459 10.1979 65.0689 11.8494 68.6883C11.8494 68.6883 13.1313 72.6892 14.6037 73.577C18.4463 75.8939 16.6908 72.754 16.5036 72.4393Z" fill="#FFA283"/>
<path d="M33.5026 64.8988C33.8703 64.2802 34.5885 63.1027 34.9377 62.7352C34.9377 62.7352 34.6185 62.5324 34.006 62.608C33.3936 62.6837 32.9138 62.3834 32.9321 62.0483L35.8545 61.1472C35.9857 60.8713 36.564 59.3066 34.9928 55.6029L38.1045 54.0773C38.4629 56.6088 38.2577 59.3408 37.0123 62.0701C37.0123 62.0701 36.0456 65.0871 34.9353 65.7567C32.0376 67.5039 33.3614 65.1361 33.5026 64.8988Z" fill="#FFA283"/>
<path d="M31.5725 67.1392L31.5674 109.875L102.188 108.854L98.7911 63.5995L75.558 86.473L63.2857 74.3275L52.1624 84.6435L31.5725 67.1392Z" fill="#4F2DA7"/>
<path d="M86.2476 35.8855L85.5957 44.2684L92.8632 43.8797L86.2476 35.8855Z" fill="#132056"/>
<path d="M42.5341 97.7812C42.4495 97.7803 42.3676 97.7512 42.3007 97.6983C42.2211 97.6353 42.1693 97.5427 42.1564 97.4407C42.1436 97.3387 42.1708 97.2356 42.2322 97.1541L51.8715 84.4075C51.933 84.3257 52.0239 84.2723 52.124 84.2589C52.2242 84.2455 52.3254 84.2734 52.4055 84.3362C52.4855 84.3991 52.5378 84.4919 52.5509 84.5942C52.564 84.6965 52.5368 84.7999 52.4752 84.8817L42.8359 97.6283C42.8006 97.6759 42.755 97.7145 42.7026 97.741C42.6502 97.7676 42.5925 97.7813 42.5341 97.7812Z" fill="#132056"/>
<path d="M88.5939 98.1282C88.5008 98.1289 88.4106 98.0948 88.3402 98.0324L75.2004 86.286C75.1627 86.2519 75.132 86.2107 75.11 86.1645C75.088 86.1184 75.0751 86.0682 75.072 86.017C75.0658 85.9135 75.1001 85.8117 75.1674 85.734C75.2347 85.6564 75.3294 85.6092 75.4307 85.6029C75.5321 85.5966 75.6317 85.6316 75.7077 85.7003L88.845 97.4545C88.9036 97.5067 88.9451 97.576 88.964 97.6531C88.9828 97.7301 88.9781 97.8112 88.9505 97.8855C88.9228 97.9597 88.8736 98.0235 88.8094 98.0683C88.7452 98.1131 88.6691 98.1367 88.5914 98.136L88.5939 98.1282Z" fill="#132056"/>
<path d="M120.021 92.8757C119.997 92.8783 119.973 92.8783 119.95 92.8757C119.9 92.8664 119.854 92.8472 119.812 92.8194C119.77 92.7915 119.734 92.7555 119.705 92.7134C119.677 92.6713 119.657 92.6239 119.647 92.5739C119.637 92.524 119.636 92.4724 119.645 92.4222L121.147 84.3892C121.153 84.3363 121.17 84.2852 121.196 84.2392C121.223 84.1932 121.258 84.1532 121.3 84.1217C121.342 84.0902 121.39 84.0679 121.441 84.0562C121.492 84.0445 121.545 84.0436 121.596 84.0536C121.647 84.0635 121.696 84.0842 121.739 84.1142C121.782 84.1442 121.819 84.183 121.846 84.2281C121.874 84.2731 121.893 84.3236 121.901 84.3763C121.909 84.429 121.906 84.4827 121.893 84.5343L120.393 92.5674C120.375 92.6544 120.328 92.7325 120.26 92.7886C120.192 92.8446 120.108 92.8754 120.021 92.8757Z" fill="white"/>
<path d="M124.841 89.681C124.815 89.6835 124.789 89.6835 124.763 89.681L116.891 87.9785C116.792 87.9572 116.706 87.8966 116.651 87.8101C116.596 87.7236 116.576 87.6182 116.597 87.5172C116.618 87.4162 116.677 87.3278 116.762 87.2714C116.847 87.215 116.95 87.1953 117.049 87.2166L124.917 88.9036C124.966 88.914 125.013 88.9343 125.054 88.9632C125.095 88.992 125.131 89.0289 125.158 89.0718C125.185 89.1146 125.204 89.1626 125.213 89.2129C125.223 89.2632 125.222 89.3148 125.212 89.3648C125.196 89.4534 125.15 89.5334 125.082 89.5911C125.015 89.6489 124.929 89.6806 124.841 89.681Z" fill="white"/>
<path d="M123.402 93.374C123.336 93.3741 123.271 93.3567 123.214 93.3236C123.156 93.2904 123.109 93.2426 123.075 93.1848L118.28 84.9678C118.231 84.8792 118.218 84.7744 118.243 84.6759C118.269 84.5773 118.331 84.493 118.417 84.441C118.503 84.389 118.605 84.3735 118.702 84.3979C118.799 84.4223 118.882 84.4845 118.935 84.5713L123.739 92.7909C123.774 92.8498 123.792 92.9169 123.793 92.9855C123.794 93.0541 123.777 93.1216 123.744 93.1814C123.711 93.2411 123.663 93.2909 123.605 93.3256C123.548 93.3603 123.482 93.3788 123.415 93.3792L123.402 93.374Z" fill="white"/>
<path d="M116.87 91.4433C116.788 91.4436 116.708 91.4167 116.642 91.3666C116.576 91.3165 116.527 91.2459 116.504 91.1653C116.481 91.0847 116.483 90.9986 116.512 90.9198C116.54 90.8409 116.593 90.7737 116.662 90.7281L124.501 85.504C124.585 85.4476 124.689 85.428 124.787 85.4494C124.886 85.4708 124.973 85.5314 125.028 85.618C125.083 85.7046 125.103 85.8101 125.082 85.9111C125.061 86.0122 125.001 86.1007 124.917 86.157L117.071 91.3785C117.012 91.4198 116.942 91.4424 116.87 91.4433Z" fill="white"/>
<path d="M106.373 89.4973H106.302C106.253 89.488 106.206 89.4688 106.164 89.4409C106.123 89.413 106.087 89.377 106.059 89.3348C106.031 89.2927 106.011 89.2452 106.001 89.1953C105.991 89.1453 105.991 89.0939 106 89.0438L107.499 81.0108C107.509 80.9606 107.528 80.9127 107.555 80.87C107.582 80.8273 107.618 80.7905 107.659 80.7617C107.7 80.733 107.747 80.7128 107.796 80.7024C107.845 80.692 107.895 80.6916 107.945 80.7011C107.994 80.7106 108.04 80.7299 108.082 80.758C108.124 80.786 108.16 80.8221 108.188 80.8644C108.216 80.9066 108.236 80.9541 108.246 81.0041C108.257 81.0541 108.257 81.1057 108.248 81.1559L106.748 89.1889C106.73 89.2765 106.682 89.3548 106.614 89.411C106.546 89.4671 106.461 89.4976 106.373 89.4973Z" fill="white"/>
<path d="M111.193 86.2947H111.115L103.233 84.6077C103.134 84.5868 103.048 84.5265 102.992 84.4403C102.937 84.354 102.917 84.2488 102.938 84.1478C102.958 84.0468 103.017 83.9582 103.102 83.9016C103.186 83.845 103.289 83.8249 103.388 83.8459L111.272 85.5354C111.373 85.5461 111.465 85.5973 111.529 85.6777C111.593 85.7581 111.623 85.8612 111.613 85.9643C111.603 86.0674 111.552 86.162 111.474 86.2274C111.395 86.2927 111.294 86.3235 111.193 86.3128V86.2947Z" fill="white"/>
<path d="M109.755 89.994C109.689 89.9942 109.624 89.9768 109.567 89.9436C109.509 89.9105 109.461 89.8627 109.428 89.8049L104.636 81.5878C104.607 81.5441 104.587 81.4948 104.578 81.443C104.568 81.3911 104.569 81.3379 104.58 81.2864C104.592 81.235 104.613 81.1864 104.643 81.1437C104.674 81.101 104.712 81.0649 104.756 81.0379C104.8 81.0108 104.85 80.9931 104.901 80.9861C104.952 80.979 105.004 80.9827 105.054 80.9968C105.103 81.0109 105.15 81.0352 105.19 81.0682C105.23 81.1012 105.264 81.1422 105.288 81.1888L110.082 89.4058C110.133 89.4946 110.148 89.6005 110.123 89.7004C110.099 89.8004 110.036 89.8863 109.95 89.9396C109.891 89.975 109.823 89.9937 109.755 89.994Z" fill="white"/>
<path d="M103.222 88.0619C103.14 88.0614 103.061 88.0341 102.996 87.9841C102.931 87.9342 102.883 87.8641 102.86 87.7843C102.836 87.7044 102.839 87.6191 102.867 87.5408C102.894 87.4625 102.946 87.3953 103.014 87.3493L110.86 82.1252C110.944 82.0774 111.043 82.0641 111.136 82.0879C111.23 82.1116 111.311 82.1708 111.364 82.2533C111.416 82.3359 111.436 82.4357 111.419 82.5327C111.402 82.6296 111.35 82.7164 111.273 82.7756L103.43 87.9997C103.368 88.0413 103.296 88.063 103.222 88.0619Z" fill="white"/>
<path d="M89.4412 46.6236H43.2801C42.9145 46.6236 42.6182 46.3281 42.6182 45.9635C42.6182 45.5989 42.9145 45.3034 43.2801 45.3034H89.4412C89.8068 45.3034 90.1031 45.5989 90.1031 45.9635C90.1031 46.3281 89.8068 46.6236 89.4412 46.6236ZM89.4412 51.7162H43.2801C42.9145 51.7162 42.6182 51.4206 42.6182 51.056C42.6182 50.6914 42.9145 50.3959 43.2801 50.3959H89.4412C89.8068 50.3959 90.1031 50.6914 90.1031 51.056C90.1031 51.4206 89.8068 51.7162 89.4412 51.7162ZM89.4412 56.8087H43.2801C42.9145 56.8087 42.6182 56.5132 42.6182 56.1486V56.1486C42.6182 55.784 42.9145 55.4884 43.2801 55.4884H89.4412C89.8068 55.4884 90.1031 55.784 90.1031 56.1486V56.1486C90.1031 56.5132 89.8068 56.8087 89.4412 56.8087ZM89.4412 61.9013H43.2801C42.9145 61.9013 42.6182 61.6057 42.6182 61.2411C42.6182 60.8765 42.9145 60.581 43.2801 60.581H89.4412C89.8068 60.581 90.1031 60.8765 90.1031 61.2411C90.1031 61.6057 89.8068 61.9013 89.4412 61.9013ZM89.4412 66.9938H43.2801C42.9145 66.9938 42.6182 66.6982 42.6182 66.3337V66.3337C42.6182 65.9691 42.9145 65.6735 43.2801 65.6735H89.4412C89.8068 65.6735 90.1031 65.9691 90.1031 66.3337V66.3337C90.1031 66.6982 89.8068 66.9938 89.4412 66.9938ZM67.0783 70.7661H43.2801C42.9145 70.7661 42.6182 71.0616 42.6182 71.4262C42.6182 71.7908 42.9145 72.0863 43.2801 72.0863H67.0783C67.4438 72.0863 67.7402 71.7908 67.7402 71.4262C67.7402 71.0616 67.4438 70.7661 67.0783 70.7661Z" fill="#5AAAF6"/>
<path d="M108.503 18.4473C105.864 18.698 103.322 19.5731 101.086 21.0007C98.8497 22.4284 96.9832 24.3678 95.6397 26.6596C94.2962 28.9514 93.5141 31.5302 93.3576 34.1841C93.2011 36.8381 93.6747 39.4914 94.7395 41.926L90.6973 51.1923C90.6333 51.339 90.6124 51.501 90.637 51.6592C90.6616 51.8175 90.7308 51.9653 90.8363 52.0855C90.9419 52.2056 91.0795 52.293 91.2329 52.3374C91.3863 52.3818 91.5491 52.3814 91.7023 52.3361L101.32 49.4986C103.584 50.8956 106.147 51.7323 108.798 51.9397C111.448 52.1472 114.109 51.7194 116.562 50.6917C119.015 49.6639 121.189 48.0658 122.905 46.0291C124.62 43.9925 125.828 41.5758 126.429 38.9785C127.03 36.3813 127.006 33.678 126.359 31.0919C125.712 28.5057 124.462 26.1109 122.71 24.1052C120.959 22.0995 118.757 20.5404 116.286 19.5566C113.815 18.5728 111.147 18.1926 108.5 18.4473L108.503 18.4473Z" fill="#33CF90"/>
<path d="M110.558 40.3054L110.558 29.7647" stroke="white" stroke-width="1.5" stroke-linecap="round" stroke-linejoin="round"/>
<path d="M105.274 35.0351L110.558 29.7647L115.842 35.0351" stroke="white" stroke-width="1.5" stroke-linecap="round" stroke-linejoin="round"/>
</svg>
