<?xml version="1.0" encoding="UTF-8"?>
<svg width="18px" height="18px" viewBox="0 0 18 18" version="1.1" xmlns="http://www.w3.org/2000/svg" xmlns:xlink="http://www.w3.org/1999/xlink">
    <!-- Generator: Sketch 51.3 (57544) - http://www.bohemiancoding.com/sketch -->
    <title>call_help_icn</title>
    <desc>Created with Sketch.</desc>
    <defs></defs>
    <g id="Page-1" stroke="none" stroke-width="1" fill="none" fill-rule="evenodd">
        <g id="2.1_help_reply" transform="translate(-20.000000, -369.000000)">
            <g id="outline-local_phone-24px" transform="translate(20.000000, 369.000000)">
                <polygon id="Shape" points="0 0 18 0 18 18 0 18"></polygon>
                <path d="M4.90561224,3.75 C4.95153061,4.45448549 5.06632653,5.14313984 5.25,5.80013193 L4.33163265,6.75 C4.01785714,5.80013193 3.81887755,4.79485488 3.75,3.75 L4.90561224,3.75 Z M12.1973684,12.75 C12.8684211,12.935567 13.5552632,13.0515464 14.25,13.0979381 L14.25,14.25 C13.2078947,14.1804124 12.2052632,13.9793814 11.25,13.6701031 L12.1973684,12.75 Z M5.625,2.25 L3,2.25 C2.5875,2.25 2.25,2.5875 2.25,3 C2.25,10.0425 7.9575,15.75 15,15.75 C15.4125,15.75 15.75,15.4125 15.75,15 L15.75,12.3825 C15.75,11.97 15.4125,11.6325 15,11.6325 C14.07,11.6325 13.1625,11.4825 12.3225,11.205 C12.2475,11.175 12.165,11.1675 12.09,11.1675 C11.895,11.1675 11.7075,11.2425 11.5575,11.385 L9.9075,13.035 C7.785,11.9475 6.045,10.215 4.965,8.0925 L6.615,6.4425 C6.825,6.2325 6.885,5.94 6.8025,5.6775 C6.525,4.8375 6.375,3.9375 6.375,3 C6.375,2.5875 6.0375,2.25 5.625,2.25 Z" id="Shape" fill="#878787" fill-rule="nonzero"></path>
            </g>
        </g>
    </g>
</svg>