<svg width="49" height="50" viewBox="0 0 49 50" fill="none" xmlns="http://www.w3.org/2000/svg">
<g id="CARE HI LOGO WITH TAGLINE">
<g id="Group">
<path id="Path" d="M0.00985718 37.2053H48.9868" stroke="black" stroke-width="0.5"/>
<g id="Group_2">
<path id="Shape" fill-rule="evenodd" clip-rule="evenodd" d="M5.04634 45.9222C5.10553 45.8742 5.13513 45.8146 5.13513 45.7434C5.13513 45.6838 5.10718 45.6325 5.05456 45.5911C5.00194 45.5513 4.94932 45.5232 4.89506 45.5116C4.99701 45.197 5.10718 44.8692 5.22885 44.5298C5.35053 44.1904 5.47385 43.8609 5.59718 43.5381C5.72214 43.2169 5.84218 42.9139 5.96057 42.6275C6.07895 42.3427 6.18255 42.0977 6.27134 41.8957C6.30093 41.8245 6.30093 41.7533 6.27134 41.6821C6.24174 41.6109 6.18912 41.5745 6.11184 41.5745C6.03127 41.5745 5.96221 41.601 5.90795 41.6556C5.86684 41.697 5.80436 41.808 5.71721 41.9851C5.63171 42.1639 5.53634 42.3775 5.43439 42.6275C5.32916 42.8775 5.21899 43.1474 5.10553 43.4355C4.99043 43.7235 4.88026 44.0017 4.77832 44.2699C4.68709 44.5024 4.60699 44.715 4.5348 44.9066C4.52371 44.936 4.5128 44.965 4.50208 44.9934C4.4215 45.2086 4.36395 45.3626 4.32942 45.4586C3.92657 45.4404 3.53194 45.4404 3.14553 45.4586C2.75912 45.4752 2.36942 45.5017 1.97973 45.5381C1.99124 45.4851 2.01261 45.4023 2.0455 45.2881C2.06935 45.2065 2.09406 45.1179 2.12089 45.0217C2.13106 44.9852 2.14153 44.9476 2.15238 44.909C2.1722 44.8361 2.19293 44.7609 2.21409 44.6841C2.2333 44.6145 2.25285 44.5436 2.27241 44.4719C2.31352 44.3179 2.34969 44.1755 2.38258 44.0431C2.41546 43.909 2.44177 43.7914 2.46315 43.6904C2.48288 43.5894 2.49439 43.5215 2.49439 43.4851C2.49439 43.3725 2.44835 43.303 2.3612 43.2798C2.27077 43.2566 2.18691 43.26 2.11127 43.2898C2.08825 43.2947 2.05865 43.3527 2.01919 43.4586C1.97973 43.5662 1.93698 43.697 1.89093 43.856C1.84325 44.0149 1.79228 44.1871 1.73966 44.3742C1.68704 44.5613 1.63771 44.7368 1.59332 44.9007C1.57095 44.9833 1.55026 45.0608 1.53102 45.1328C1.51207 45.2038 1.49454 45.2695 1.47822 45.3295C1.44697 45.452 1.42395 45.5282 1.41244 45.558C1.33501 45.5712 1.24376 45.5852 1.1387 45.6014C1.09875 45.6076 1.05682 45.614 1.01288 45.6209C0.855029 45.6441 0.700465 45.6755 0.552478 45.7186C0.404492 45.7583 0.277881 45.8146 0.171002 45.8825C0.0657669 45.952 0.0115051 46.0364 0.0115051 46.1374C0.0115051 46.202 0.0476796 46.2699 0.121673 46.3378C0.197311 46.4073 0.282814 46.4719 0.379827 46.5348C0.478485 46.596 0.578787 46.6474 0.682378 46.6855C0.784324 46.7252 0.86325 46.7434 0.915868 46.7434C0.981639 46.7434 1.03755 46.7169 1.08523 46.6623C1.07865 46.6871 1.06385 46.7434 1.04083 46.8328C1.03084 46.8716 1.0196 46.9136 1.00753 46.9586C0.9918 47.0173 0.974651 47.0814 0.956975 47.1507C0.940671 47.2085 0.924001 47.269 0.906618 47.332C0.887185 47.4024 0.866861 47.4761 0.845163 47.553C0.834939 47.5892 0.824816 47.625 0.814846 47.6602C0.78473 47.7664 0.756004 47.8678 0.730062 47.9636C0.705341 48.0518 0.683692 48.1316 0.664065 48.2039C0.654971 48.2374 0.646312 48.2693 0.637982 48.2997C0.630885 48.3236 0.624425 48.3457 0.618519 48.3658C0.601163 48.425 0.588602 48.4679 0.578787 48.4951C0.547545 48.5845 0.554123 48.6573 0.591941 48.7136C0.62976 48.7699 0.682378 48.8047 0.751438 48.8162C0.81721 48.8278 0.88627 48.8179 0.955331 48.7848C1.02275 48.7517 1.07043 48.6871 1.10003 48.5927C1.17073 48.3725 1.23979 48.1424 1.30885 47.9007C1.37627 47.659 1.44204 47.4239 1.50781 47.1954C1.57194 46.9653 1.63442 46.75 1.69362 46.548C1.75281 46.3444 1.80543 46.1689 1.85312 46.0199C2.07838 46.0017 2.39573 45.9802 2.80681 45.9537C3.21788 45.9272 3.66842 45.9222 4.16006 45.9404C4.15265 45.9639 4.14303 45.9937 4.13135 46.0298C4.10675 46.106 4.07306 46.2103 4.03181 46.3427C3.97097 46.5398 3.89862 46.7649 3.81476 47.0215C3.73255 47.2765 3.64869 47.5513 3.56318 47.8427C3.55381 47.8747 3.54449 47.9064 3.53524 47.9379C3.46011 48.1938 3.38918 48.4354 3.32476 48.6639C3.25077 48.9189 3.18993 49.1424 3.14224 49.3328C3.09456 49.5232 3.07154 49.6507 3.07154 49.7169C3.07154 49.8047 3.09291 49.8725 3.13731 49.9172C3.18171 49.9603 3.23268 49.9868 3.29187 49.9917C3.35107 49.9984 3.40862 49.9851 3.46453 49.952C3.52043 49.9206 3.55989 49.8643 3.58291 49.7881C3.75557 49.1573 3.92822 48.5166 4.10087 47.8692C4.27681 47.2202 4.48399 46.5911 4.72734 45.9851L4.86053 45.9934C4.92466 45.9934 4.9855 45.9702 5.04634 45.9222ZM1.18389 46.3229C1.16251 46.399 1.13785 46.4768 1.10825 46.5547C1.10825 46.5133 1.08359 46.4752 1.03261 46.4404C0.983284 46.4057 0.925733 46.3725 0.859962 46.3427C0.79419 46.3129 0.728418 46.2881 0.661002 46.2666C0.593586 46.2467 0.540968 46.2268 0.504794 46.2086L0.504926 46.2086C0.629848 46.1854 0.75477 46.1623 0.878049 46.1407C0.993491 46.1206 1.11037 46.1034 1.226 46.0863C1.23389 46.0851 1.24178 46.084 1.24966 46.0828C1.23534 46.1343 1.22166 46.1845 1.20822 46.2338C1.20005 46.2638 1.19197 46.2934 1.18389 46.3229Z" fill="black"/>
<path id="Shape_2" fill-rule="evenodd" clip-rule="evenodd" d="M7.48646 47.4851C7.47167 47.4719 7.45851 47.4752 7.447 47.4934C7.41247 47.5464 7.34834 47.6192 7.24969 47.7103C7.15596 47.803 7.0425 47.8941 6.9126 47.9835C6.78106 48.0729 6.63636 48.149 6.47358 48.2153C6.31079 48.2798 6.13979 48.3129 5.96385 48.3129C5.85697 48.3129 5.77475 48.2898 5.71885 48.2417C5.66294 48.1937 5.62677 48.1407 5.60868 48.0778C5.59059 48.0149 5.58566 47.9504 5.59059 47.8808C5.59717 47.8129 5.60539 47.755 5.61854 47.707C5.73036 47.75 5.83559 47.75 5.9326 47.7119C6.03126 47.6739 6.11512 47.6109 6.18583 47.5249C6.25653 47.4388 6.31244 47.3394 6.35354 47.2252C6.39465 47.1126 6.41603 47.005 6.41603 46.904C6.41603 46.8047 6.39136 46.7202 6.34532 46.6507C6.29599 46.5811 6.22036 46.548 6.11348 46.548C6.03784 46.548 5.96713 46.5646 5.90136 46.601C5.83559 46.6358 5.77475 46.6821 5.71556 46.7384C5.65801 46.7947 5.60539 46.8543 5.56099 46.9206C5.5166 46.9868 5.47549 47.0497 5.44096 47.1076C5.36368 47.2318 5.29955 47.3709 5.25022 47.5182C5.20089 47.6672 5.17787 47.8179 5.18445 47.9653C5.18938 48.1441 5.23707 48.2815 5.32586 48.3808C5.4163 48.4785 5.52482 48.5464 5.65472 48.5861C5.78462 48.6258 5.92603 48.6374 6.07566 48.6225C6.22858 48.6093 6.36834 48.5778 6.49824 48.5298C6.71529 48.4454 6.92576 48.3311 7.12636 48.1855C7.32861 48.0398 7.47002 47.8758 7.55224 47.6987C7.56375 47.6739 7.56703 47.649 7.56046 47.6192C7.55552 47.5878 7.54401 47.5613 7.53086 47.5381C7.51442 47.5133 7.49962 47.4967 7.48646 47.4851ZM5.74516 47.3593C5.75009 47.3411 5.75667 47.3262 5.76324 47.3146C5.78133 47.2782 5.80435 47.2351 5.83559 47.1855C5.86354 47.1358 5.89314 47.0911 5.92438 47.0513C5.95234 47.0133 5.98358 46.9802 6.01646 46.9537C6.04771 46.9272 6.07895 46.9172 6.10854 46.9222C6.14965 46.9355 6.16609 46.9669 6.15787 47.0166C6.14801 47.0662 6.12334 47.1192 6.08224 47.1772C6.04113 47.2335 5.9918 47.2881 5.93589 47.3411C5.87999 47.3957 5.82901 47.4305 5.78133 47.4487C5.75667 47.4619 5.74351 47.4619 5.73693 47.4537C5.73036 47.4454 5.72871 47.4305 5.732 47.4139C5.73364 47.3957 5.73858 47.3775 5.74516 47.3593Z" fill="black"/>
<path id="Shape_3" fill-rule="evenodd" clip-rule="evenodd" d="M10.4396 47.3891C10.4199 47.3328 10.392 47.3047 10.3574 47.3047C10.3147 47.3709 10.2588 47.4437 10.1831 47.5249C10.1141 47.606 10.0319 47.6821 9.93978 47.7566C9.84934 47.8311 9.75068 47.8957 9.64709 47.9454C9.54515 47.9967 9.43991 48.0215 9.33303 48.0215C9.26726 48.0215 9.22122 47.9901 9.19656 47.9272C9.17025 47.8659 9.15545 47.8013 9.15545 47.7368C9.15545 47.606 9.17025 47.4884 9.19656 47.3808C9.22122 47.2749 9.25904 47.1573 9.30672 47.0265C9.27713 46.9388 9.23766 46.8907 9.18669 46.8808C9.13572 46.8725 9.09296 46.856 9.05843 46.8311C9.04692 46.7434 9.00417 46.6722 8.93018 46.6225C8.85619 46.5729 8.78055 46.548 8.70491 46.548C8.53226 46.548 8.37276 46.5994 8.22478 46.7037C8.07843 46.808 7.94689 46.9123 7.83508 47.0199C7.77095 47.0845 7.70025 47.1557 7.62625 47.2335C7.55226 47.3096 7.48484 47.3924 7.42236 47.4785C7.36152 47.5646 7.31055 47.6573 7.27273 47.7517C7.23327 47.846 7.21518 47.9421 7.21518 48.0364C7.21518 48.1672 7.25958 48.2765 7.34837 48.3626C7.43716 48.4487 7.54733 48.4917 7.67723 48.4917C7.77917 48.4917 7.87947 48.4686 7.97649 48.4206C8.07515 48.3742 8.16887 48.3162 8.25766 48.2467C8.3481 48.1788 8.43196 48.1027 8.5076 48.0199C8.56384 47.9584 8.61748 47.9005 8.66787 47.846C8.68671 47.8257 8.7051 47.8058 8.723 47.7864C8.72958 47.9305 8.77562 48.0613 8.86276 48.1805C8.94827 48.2997 9.0831 48.3576 9.26397 48.3576C9.40538 48.3576 9.5435 48.3311 9.67669 48.2749C9.80988 48.2202 9.92991 48.1507 10.0368 48.0696C10.1437 47.9868 10.2341 47.899 10.3065 47.803C10.3804 47.7086 10.4298 47.6192 10.4528 47.5364C10.466 47.4951 10.461 47.4454 10.4396 47.3891ZM8.05541 48.0414C7.93538 48.1523 7.82357 48.207 7.72327 48.207C7.62132 48.207 7.5835 48.1523 7.60488 48.0431C7.62625 47.9321 7.68545 47.8047 7.78246 47.659C7.87783 47.5133 8.00444 47.3659 8.15407 47.2169C8.30535 47.0679 8.46484 46.957 8.62927 46.8858C8.6934 46.856 8.73451 46.856 8.7526 46.8858C8.77068 46.9156 8.7789 46.9537 8.7789 47.0017C8.7789 47.0431 8.74273 47.1292 8.66709 47.26C8.59474 47.3907 8.50431 47.5249 8.39743 47.6656C8.29055 47.8063 8.17709 47.9305 8.05541 48.0414Z" fill="black"/>
<path id="Path_2" d="M12.2977 42.5563C12.3388 42.5861 12.3602 42.6242 12.3602 42.6722C12.3371 42.702 12.2895 42.8096 12.2188 42.9934C12.1464 43.1788 12.0609 43.409 11.9606 43.6855C11.8603 43.9636 11.7485 44.2732 11.6284 44.6159C11.5068 44.9586 11.3867 45.308 11.2683 45.6623C11.15 46.0166 11.0414 46.3626 10.9411 46.6987C10.8392 47.0348 10.7553 47.3345 10.6879 47.5977C10.6189 47.8593 10.5745 48.0696 10.5547 48.2285C10.5333 48.3858 10.5465 48.4653 10.5942 48.4653C10.7126 48.4653 10.8491 48.4255 11.002 48.3494C11.1565 48.2715 11.3078 48.1805 11.4558 48.0778C11.6021 47.9735 11.7386 47.8676 11.8636 47.76C11.9869 47.654 12.0823 47.5696 12.1464 47.51C12.1645 47.4984 12.1809 47.5033 12.1957 47.5282C12.2089 47.5513 12.2188 47.5845 12.222 47.6259C12.2253 47.6672 12.222 47.7136 12.2138 47.76C12.2056 47.808 12.1842 47.8494 12.1563 47.8858C12.0856 47.957 11.9853 48.0497 11.8537 48.1623C11.7238 48.2749 11.5841 48.3841 11.4328 48.4901C11.2831 48.596 11.1286 48.6855 10.9757 48.7616C10.8227 48.8378 10.6863 48.8759 10.5679 48.8759C10.415 48.8759 10.2916 48.8278 10.2012 48.7335C10.1091 48.6391 10.0631 48.5166 10.0631 48.3676C10.0631 48.2964 10.0861 48.1606 10.1338 47.9603C10.1815 47.7616 10.244 47.5199 10.3212 47.2368C10.3969 46.9537 10.4873 46.6441 10.5909 46.308C10.6945 45.9719 10.803 45.6308 10.9198 45.2848C11.0349 44.9404 11.15 44.606 11.2651 44.2798C11.3802 43.9553 11.4887 43.6672 11.5939 43.4139C11.6975 43.1606 11.7912 42.9537 11.8784 42.7931C11.9639 42.6325 12.0297 42.5447 12.0773 42.5265L12.1661 42.5083C12.2122 42.5116 12.2549 42.5265 12.2977 42.5563Z" fill="black"/>
<path id="Path_3" d="M13.3878 44.9934C13.4585 44.9934 13.5424 44.9917 13.6394 44.9884C13.7381 44.9851 13.8318 44.9851 13.919 44.9884C14.0077 44.9917 14.085 45.005 14.1459 45.0282C14.2083 45.053 14.2379 45.0944 14.2379 45.154C14.2379 45.2202 14.2116 45.2649 14.159 45.2881C14.1048 45.3113 14.0521 45.3245 13.9995 45.3245L13.2448 45.3328C13.1856 45.505 13.1165 45.707 13.0327 45.9388C12.9488 46.1706 12.8682 46.409 12.7877 46.6557C12.7087 46.9023 12.6413 47.1457 12.5854 47.3858C12.5295 47.6258 12.4999 47.8361 12.4999 48.0133C12.4999 48.0431 12.5049 48.0845 12.5131 48.1374C12.5213 48.1904 12.5591 48.2169 12.6249 48.2169C12.7318 48.2169 12.8419 48.1821 12.962 48.1143C13.0804 48.0464 13.1889 47.9669 13.2843 47.8775C13.3813 47.7881 13.4651 47.7037 13.5375 47.6242C13.6082 47.5431 13.6526 47.4951 13.6707 47.4768C13.7956 47.4603 13.8334 47.5066 13.7858 47.6209C13.7447 47.7219 13.6772 47.8295 13.5868 47.9421C13.4947 48.0547 13.3911 48.1606 13.276 48.2566C13.1609 48.3527 13.0393 48.4355 12.9126 48.5017C12.7844 48.5679 12.666 48.601 12.5525 48.601C12.37 48.601 12.2303 48.5464 12.1316 48.4371C12.0346 48.3262 11.9853 48.1838 11.9853 48.0033C11.9853 47.8543 12.0149 47.6573 12.0741 47.409C12.1332 47.1623 12.204 46.9073 12.2878 46.6457C12.37 46.3841 12.4539 46.1325 12.541 45.8908C12.6265 45.649 12.6956 45.4586 12.7482 45.3146C12.7186 45.3146 12.6726 45.3179 12.6068 45.3229C12.541 45.3295 12.4769 45.3295 12.4111 45.3229C12.3454 45.3162 12.2878 45.3013 12.2385 45.2782C12.1892 45.255 12.1628 45.2169 12.1628 45.1623C12.1628 45.1093 12.1924 45.0712 12.25 45.0513C12.3108 45.0298 12.3782 45.0166 12.4539 45.0116C12.5312 45.005 12.6084 45.005 12.689 45.0116C12.7696 45.0166 12.8288 45.0149 12.8699 45.0017C12.9587 44.7881 13.0343 44.6109 13.0968 44.4719C13.1576 44.3311 13.2234 44.1904 13.2925 44.048C13.3599 43.9057 13.4224 43.7947 13.4832 43.7169C13.4947 43.7004 13.5145 43.6937 13.5441 43.7004C13.5736 43.7053 13.6049 43.7169 13.6361 43.7351C13.669 43.7517 13.697 43.7749 13.72 43.8013C13.7447 43.8278 13.7562 43.8543 13.7562 43.8775C13.7562 43.9073 13.7381 43.9818 13.6986 44.101C13.6592 44.2202 13.6197 44.3444 13.5753 44.4719C13.5309 44.5994 13.4881 44.7169 13.447 44.8245C13.4092 44.9305 13.3878 44.9868 13.3878 44.9934Z" fill="black"/>
<path id="Path_4" d="M16.2078 47.2865C16.2423 47.3163 16.2539 47.361 16.2391 47.4206C16.2243 47.4802 16.198 47.5414 16.1585 47.6076C16.1207 47.6722 16.0763 47.7351 16.0253 47.7947C15.976 47.8543 15.9382 47.899 15.9135 47.9288C15.8263 48.0232 15.7277 48.1192 15.6224 48.2153C15.5156 48.3096 15.3939 48.3725 15.2591 48.4023C15.1407 48.4255 15.0354 48.4023 14.9434 48.3312C14.8513 48.26 14.7987 48.1639 14.7789 48.0447C14.7674 47.9735 14.7674 47.8874 14.7789 47.7898C14.7921 47.6921 14.8019 47.5977 14.8151 47.5083C14.8266 47.4189 14.8348 47.3427 14.8414 47.2815C14.8463 47.2186 14.8348 47.1871 14.8052 47.1871C14.746 47.1871 14.6786 47.2268 14.6013 47.308C14.5257 47.3874 14.4468 47.4917 14.3679 47.6209C14.2873 47.7484 14.2067 47.8941 14.1229 48.058C14.039 48.2219 13.9666 48.3858 13.9009 48.5497C13.8367 48.7136 13.7808 48.8692 13.7332 49.0182C13.6855 49.1672 13.6559 49.2931 13.6444 49.3941C13.6329 49.4835 13.6181 49.5696 13.6 49.6523C13.5819 49.7351 13.5194 49.7831 13.4142 49.7947C13.2908 49.8129 13.2185 49.7649 13.202 49.6523C13.1724 49.4619 13.1757 49.2682 13.2103 49.0762C13.2448 48.8825 13.2859 48.6904 13.3336 48.5C13.5046 47.75 13.7167 47.0066 13.9683 46.2666C14.2182 45.5298 14.5306 44.7732 14.9039 44C14.9499 43.9106 14.996 43.8196 15.0404 43.7268C15.0848 43.6341 15.1308 43.5447 15.1785 43.4553C15.2081 43.3957 15.2443 43.3212 15.2887 43.2318C15.3331 43.1424 15.3873 43.0861 15.4531 43.0629C15.5304 43.0398 15.5978 43.0497 15.6537 43.0944C15.708 43.1391 15.7228 43.2004 15.6932 43.2765C15.6636 43.3427 15.629 43.4106 15.5912 43.4818C15.5517 43.553 15.5189 43.6225 15.4893 43.6871C15.2048 44.2467 14.9434 44.8378 14.7033 45.4586C14.4649 46.0812 14.2593 46.7037 14.0867 47.3295C14.1344 47.2699 14.1903 47.2053 14.2544 47.1374C14.3202 47.0696 14.3909 47.0083 14.4682 46.9504C14.5438 46.8941 14.6227 46.8527 14.7066 46.8262C14.7888 46.7997 14.8759 46.798 14.9631 46.8212C15.0519 46.8461 15.1127 46.8941 15.1489 46.9636C15.1834 47.0348 15.2032 47.1143 15.2064 47.2004C15.2097 47.2865 15.2032 47.3759 15.1884 47.4686C15.1752 47.5613 15.1637 47.6358 15.1588 47.6954C15.1588 47.707 15.1571 47.7335 15.1538 47.7749C15.1505 47.8163 15.1505 47.8593 15.1505 47.904C15.1505 47.9487 15.1538 47.9884 15.1637 48.0249C15.1719 48.0613 15.1867 48.0778 15.2032 48.0778C15.2508 48.0778 15.31 48.0497 15.3807 47.9934C15.4514 47.9371 15.5254 47.8692 15.6027 47.7931C15.6784 47.7169 15.7523 47.6358 15.8198 47.553C15.8888 47.4686 15.9447 47.3974 15.9924 47.3378C16.0401 47.2798 16.0746 47.2467 16.0993 47.2401C16.124 47.2368 16.1601 47.2517 16.2078 47.2865Z" fill="black"/>
<path id="Path_5" d="M19.3813 48.1358C19.475 48.1358 19.5786 48.1143 19.6904 48.0729C19.8039 48.0315 19.9141 47.9785 20.0242 47.9172C20.1344 47.8543 20.2363 47.7831 20.3301 47.7037C20.4254 47.6242 20.4994 47.5414 20.5521 47.4586C20.5586 47.4454 20.5734 47.4454 20.5964 47.4537C20.6195 47.4619 20.6408 47.4785 20.6622 47.5033C20.6836 47.5265 20.6984 47.553 20.7066 47.5828C20.7148 47.6126 20.7115 47.6424 20.6935 47.6722C20.6343 47.7732 20.5553 47.8709 20.455 47.9669C20.3547 48.0629 20.2462 48.1457 20.1262 48.2169C20.0078 48.2881 19.8861 48.3444 19.7595 48.3858C19.6312 48.4272 19.5129 48.4487 19.3994 48.4487C19.1676 48.4487 18.9702 48.3775 18.8042 48.2351C18.6381 48.0927 18.5181 47.9073 18.4408 47.6821C18.3947 47.8494 18.3553 47.9917 18.3257 48.1109C18.2961 48.2301 18.2698 48.346 18.2418 48.4586C18.2155 48.5729 18.1925 48.6888 18.1711 48.8113C18.1497 48.9321 18.1267 49.0778 18.0955 49.2434C18.0955 49.3328 18.0692 49.3957 18.0165 49.4305C17.9623 49.4669 17.9031 49.4835 17.839 49.4835C17.7502 49.4835 17.6943 49.4354 17.6696 49.3411C17.6466 49.245 17.64 49.1358 17.6466 49.0099C17.6564 48.8858 17.6745 48.7599 17.7041 48.6341C17.7337 48.5083 17.7584 48.4172 17.7748 48.3576C17.8932 47.9835 18.0034 47.6258 18.1086 47.2864C18.2106 46.947 18.3224 46.5861 18.4408 46.202C18.5592 45.8179 18.6956 45.3874 18.8486 44.9073C19.0031 44.4288 19.1922 43.8609 19.4158 43.207C19.429 43.1722 19.4487 43.1176 19.4767 43.0414C19.5063 42.9669 19.5425 42.8924 19.5836 42.8179C19.6247 42.7434 19.6674 42.6772 19.7118 42.6225C19.7562 42.5646 19.7957 42.5364 19.8319 42.5364C19.8565 42.5364 19.8976 42.5513 19.9601 42.5811C20.0226 42.6109 20.044 42.6606 20.0259 42.7318C20.0029 42.8212 19.965 42.9404 19.9124 43.0894C19.8582 43.2384 19.8105 43.3725 19.7694 43.4917C19.5671 44.0811 19.3731 44.6623 19.1791 45.2368C18.9867 45.8113 18.8058 46.3924 18.6348 46.9818C18.694 46.9338 18.7598 46.8758 18.8338 46.808C18.9078 46.7401 18.985 46.6755 19.064 46.6126C19.1445 46.5497 19.2185 46.4967 19.2909 46.452C19.3616 46.4073 19.4208 46.3858 19.4685 46.3858C19.4981 46.3858 19.5326 46.4023 19.5737 46.4354C19.6148 46.4686 19.6362 46.505 19.6362 46.548C19.6 46.596 19.5342 46.659 19.4372 46.7384C19.3402 46.8196 19.2415 46.9007 19.1445 46.9851C19.0475 47.0679 18.9587 47.1474 18.8831 47.2219C18.8075 47.2964 18.768 47.3543 18.768 47.3957C18.768 47.4619 18.7861 47.5364 18.8223 47.6242C18.8568 47.7103 18.9028 47.7914 18.9587 47.8643C19.0146 47.9388 19.0804 48.0033 19.1544 48.0563C19.2284 48.1093 19.304 48.1358 19.3813 48.1358Z" fill="black"/>
<path id="Shape_4" fill-rule="evenodd" clip-rule="evenodd" d="M21.6866 45.6722C21.6817 45.601 21.6192 45.5646 21.5008 45.5646C21.4055 45.5646 21.3282 45.6159 21.269 45.7169C21.2394 45.7699 21.2164 45.8146 21.2032 45.846C21.1884 45.8791 21.1752 45.9089 21.1637 45.9354C21.1596 45.9455 21.1551 45.9559 21.1503 45.9666C21.1418 45.9858 21.1327 46.0065 21.1243 46.0298C21.1202 46.0399 21.1157 46.0507 21.1109 46.0624C21.0983 46.0929 21.0834 46.1291 21.0667 46.1722C21.0421 46.2202 21.0536 46.2583 21.1013 46.2881C21.1489 46.3179 21.1933 46.3361 21.2344 46.3411C21.2986 46.3477 21.3611 46.3146 21.417 46.2434C21.4712 46.1722 21.5485 46.0497 21.6422 45.8775C21.6784 45.8129 21.6932 45.7434 21.6866 45.6722ZM20.9368 46.6672C20.8875 46.6887 20.8447 46.7318 20.8086 46.7964C20.6902 47.0099 20.5932 47.2252 20.5208 47.4371C20.4747 47.5711 20.4242 47.7148 20.37 47.8688C20.3372 47.9622 20.303 48.0594 20.2676 48.1606C20.2561 48.1954 20.2446 48.2401 20.2331 48.2947C20.2216 48.3477 20.2232 48.3924 20.2413 48.4288C20.2594 48.4752 20.289 48.5083 20.3301 48.5265C20.3712 48.5447 20.4156 48.553 20.4633 48.553C20.5093 48.553 20.5553 48.5414 20.5965 48.5182C20.6376 48.495 20.6639 48.4603 20.677 48.4123C20.7395 48.2152 20.8086 47.9851 20.8793 47.7202C20.9516 47.4553 21.0355 47.197 21.1374 46.947C21.167 46.8709 21.1736 46.808 21.1555 46.7566C21.1374 46.707 21.1095 46.6738 21.07 46.6589C21.0322 46.644 20.9878 46.6457 20.9368 46.6672Z" fill="black"/>
<path id="Path_6" d="M28.2819 42.6358C28.466 42.6954 28.6305 42.7914 28.7785 42.9255C28.9281 43.0596 29.0004 43.2451 29.0004 43.4835C29.0004 43.5315 28.9955 43.5894 28.9823 43.6573C28.9692 43.7252 28.9478 43.7947 28.9199 43.8626C28.8903 43.9305 28.8524 43.9901 28.8064 44.0364C28.762 44.0845 28.7028 44.1076 28.6305 44.1076C28.6009 44.1076 28.5663 44.096 28.5285 44.0712C28.4891 44.048 28.471 44.0149 28.471 43.9735C28.471 43.9255 28.4841 43.8676 28.5154 43.7997C28.545 43.7302 28.5581 43.659 28.5581 43.5811C28.5581 43.3725 28.4841 43.2219 28.3328 43.1292C28.1816 43.0381 27.9925 42.9917 27.7623 42.9917C27.4778 42.9917 27.1917 43.058 26.9023 43.1888C26.6113 43.3196 26.3334 43.4951 26.0654 43.7153C25.7957 43.9355 25.5458 44.1921 25.3156 44.4868C25.0854 44.7815 24.8815 45.0927 24.7088 45.4189C24.5329 45.7467 24.3964 46.0828 24.301 46.4272C24.2024 46.7732 24.1547 47.1043 24.1547 47.4189C24.1547 47.5679 24.1777 47.6937 24.2254 47.7964C24.2714 47.9023 24.3356 47.9884 24.4161 48.0563C24.4967 48.1242 24.5871 48.1739 24.6924 48.2037C24.796 48.2335 24.9045 48.2484 25.0163 48.2484C25.2284 48.2484 25.4668 48.1904 25.7316 48.0745C25.9947 47.9586 26.2528 47.8146 26.5044 47.6407C26.756 47.4669 26.9878 47.2782 27.2016 47.0696C27.4137 46.8609 27.5814 46.6656 27.6982 46.4818C27.4449 46.548 27.1868 46.6027 26.9237 46.6457C26.6622 46.6904 26.4024 46.7119 26.1492 46.7119C26.0736 46.7119 25.9947 46.6954 25.9141 46.6623C25.8352 46.6308 25.7957 46.5729 25.7957 46.4884C25.7957 46.4288 25.822 46.3808 25.8746 46.346C25.9289 46.3096 25.9848 46.2898 26.044 46.2831C26.4353 46.2533 26.8185 46.2037 27.1999 46.1358C27.5798 46.0679 27.9481 45.9586 28.3016 45.8113C28.3312 45.7997 28.3641 45.7864 28.3986 45.7765C28.4348 45.7633 28.4743 45.7583 28.5154 45.7583C28.5861 45.7583 28.6486 45.7815 28.7012 45.8295C28.7538 45.8775 28.7801 45.9338 28.7801 45.9984C28.7801 46.0696 28.7538 46.1258 28.6962 46.1623C28.642 46.202 28.5811 46.2268 28.5154 46.2384C28.4266 46.3229 28.3312 46.4636 28.2309 46.6623C28.1306 46.8609 28.0402 47.0795 27.9612 47.3179C27.8807 47.5563 27.8133 47.7914 27.759 48.0282C27.7031 48.2633 27.6768 48.4619 27.6768 48.6225C27.6768 48.6341 27.6784 48.6474 27.6801 48.6623C27.6834 48.6788 27.685 48.6904 27.685 48.702C27.685 48.8212 27.6505 48.9255 27.583 49.0149C27.5156 49.1043 27.4318 49.149 27.3298 49.149C27.2591 49.149 27.195 49.1275 27.1358 49.0828C27.0766 49.0381 27.047 48.9835 27.047 48.9172C27.047 48.7268 27.0766 48.5249 27.1358 48.3113C27.195 48.0977 27.2493 47.8891 27.3035 47.6855C27.1506 47.8047 26.9812 47.9255 26.7987 48.0464C26.6146 48.1689 26.4238 48.2798 26.2216 48.3825C26.021 48.4835 25.8154 48.5679 25.605 48.6325C25.3945 48.6987 25.1873 48.7302 24.9801 48.7302C24.7779 48.7302 24.5937 48.697 24.426 48.6325C24.2583 48.5679 24.1136 48.4768 23.9919 48.3593C23.8702 48.2434 23.7749 48.106 23.7074 47.9437C23.64 47.7831 23.6055 47.6076 23.6055 47.4172C23.6055 47.1722 23.6499 46.8825 23.7387 46.5464C23.8275 46.2103 23.9574 45.8609 24.1251 45.5017C24.2928 45.1424 24.5 44.7864 24.7417 44.4355C24.9851 44.0845 25.2597 43.7699 25.5639 43.4934C25.868 43.2169 26.2035 42.9917 26.5702 42.8196C26.9385 42.6474 27.3315 42.5613 27.7524 42.5613C27.8412 42.5613 27.93 42.5646 28.0171 42.5745C28.1043 42.5878 28.1931 42.6076 28.2819 42.6358Z" fill="black"/>
<path id="Path_7" d="M31.8286 47.2335C31.8582 47.2103 31.8878 47.2235 31.9174 47.2732C31.947 47.3229 31.9503 47.3676 31.9256 47.4023C31.8368 47.5447 31.7283 47.6854 31.6017 47.8229C31.4751 47.9603 31.3419 48.0828 31.2038 48.1904C31.064 48.298 30.9226 48.3858 30.7779 48.4487C30.6332 48.5133 30.4951 48.5447 30.3652 48.5447C30.2632 48.5447 30.181 48.5265 30.1169 48.4917C30.0511 48.4553 30.0018 48.4089 29.9706 48.3493C29.9377 48.2897 29.9163 48.2285 29.9081 48.1623C29.8999 48.096 29.8999 48.0315 29.913 47.9652C29.8308 48.0497 29.7387 48.1291 29.6368 48.207C29.5365 48.2831 29.4247 48.3378 29.2997 48.3676C29.1994 48.3907 29.1024 48.3924 29.0119 48.3709C28.9199 48.351 28.8508 48.2931 28.8048 48.197C28.7702 48.1209 28.7604 48.0199 28.7768 47.894C28.7949 47.7699 28.8261 47.6407 28.8705 47.5099C28.9149 47.3791 28.9692 47.2533 29.035 47.1358C29.1007 47.0166 29.1616 46.9238 29.2208 46.8576C29.2865 46.7815 29.3572 46.75 29.4329 46.7682C29.5217 46.7864 29.5661 46.8129 29.5661 46.8493C29.5661 46.8841 29.5529 46.9255 29.5299 46.9735C29.5003 47.0397 29.4559 47.1325 29.3967 47.2517C29.3359 47.3709 29.2849 47.4901 29.2421 47.6093C29.1977 47.7285 29.1714 47.8311 29.1632 47.9205C29.1533 48.0099 29.1813 48.0546 29.2471 48.0546C29.3474 48.0546 29.4427 48.0182 29.5299 47.9437C29.6187 47.8692 29.7009 47.7798 29.7798 47.6755C29.8555 47.5712 29.9245 47.4669 29.9821 47.3626C30.0413 47.2583 30.0955 47.1755 30.1416 47.1176C30.1597 47.0944 30.1777 47.0613 30.1991 47.0232C30.2188 46.9851 30.2435 46.9454 30.2698 46.9023C30.2961 46.8609 30.3224 46.8229 30.3504 46.7914C30.3767 46.7583 30.4063 46.7351 30.4425 46.7235C30.4885 46.7119 30.5362 46.7136 30.5839 46.7285C30.6316 46.7434 30.6694 46.7682 30.699 46.8046C30.7335 46.8527 30.7401 46.904 30.7171 46.9603C30.694 47.0166 30.6677 47.0679 30.6365 47.1159C30.5839 47.2053 30.5296 47.3113 30.477 47.4371C30.4227 47.5613 30.3833 47.6838 30.3586 47.798C30.3307 47.9139 30.3241 48.0116 30.3356 48.0894C30.3487 48.1656 30.3915 48.2053 30.4688 48.2053C30.5625 48.2053 30.6727 48.1689 30.7976 48.0944C30.921 48.0199 31.0476 47.9321 31.1742 47.8295C31.3008 47.7285 31.4225 47.6225 31.5376 47.5083C31.656 47.3974 31.753 47.3046 31.8286 47.2335Z" fill="black"/>
<path id="Shape_5" fill-rule="evenodd" clip-rule="evenodd" d="M34.7045 47.3891C34.6848 47.3328 34.6552 47.3047 34.6207 47.3047C34.5795 47.3709 34.5236 47.4437 34.4546 47.5249C34.3822 47.606 34.3017 47.6821 34.2096 47.7566C34.1191 47.8311 34.0205 47.8957 33.9169 47.9454C33.8133 47.9967 33.7097 48.0215 33.6028 48.0215C33.5371 48.0215 33.491 47.9901 33.4647 47.9272C33.4384 47.8659 33.4253 47.8013 33.4253 47.7368C33.4253 47.606 33.4384 47.4884 33.4647 47.3808C33.491 47.2749 33.5288 47.1573 33.5765 47.0265C33.5469 46.9388 33.5058 46.8907 33.4565 46.8808C33.4072 46.8725 33.3644 46.856 33.3282 46.8311C33.3167 46.7434 33.274 46.6722 33.2 46.6225C33.126 46.5729 33.0504 46.548 32.9731 46.548C32.8021 46.548 32.6426 46.5994 32.4946 46.7037C32.3466 46.808 32.2167 46.9123 32.1049 47.0199C32.0391 47.0845 31.97 47.1557 31.8961 47.2335C31.8221 47.3096 31.7546 47.3924 31.6922 47.4785C31.6297 47.5646 31.5804 47.6573 31.5425 47.7517C31.5031 47.846 31.4833 47.9421 31.4833 48.0364C31.4833 48.1672 31.5294 48.2765 31.6182 48.3626C31.707 48.4487 31.8171 48.4917 31.947 48.4917C32.0473 48.4917 32.1476 48.4686 32.2446 48.4206C32.3433 48.3742 32.437 48.3162 32.5258 48.2467C32.6146 48.1788 32.6985 48.1027 32.7758 48.0199C32.8514 47.9355 32.9221 47.8576 32.9879 47.7864C32.9944 47.9305 33.0405 48.0613 33.1276 48.1805C33.2148 48.2997 33.348 48.3576 33.5288 48.3576C33.6719 48.3576 33.8084 48.3311 33.9416 48.2749C34.0747 48.2202 34.1948 48.1507 34.3017 48.0696C34.4069 47.9868 34.4973 47.899 34.5713 47.803C34.6453 47.7086 34.6946 47.6192 34.7177 47.5364C34.7308 47.4951 34.7259 47.4454 34.7045 47.3891ZM32.3219 48.0414C32.2003 48.1523 32.0884 48.207 31.9898 48.207C31.8878 48.207 31.8484 48.1523 31.873 48.0431C31.8928 47.9321 31.9536 47.8047 32.0506 47.659C32.146 47.5133 32.271 47.3659 32.4206 47.2169C32.5719 47.0679 32.7297 46.957 32.8958 46.8858C32.9599 46.856 33.001 46.856 33.0191 46.8858C33.0356 46.9156 33.0454 46.9537 33.0454 47.0017C33.0454 47.0431 33.0076 47.1292 32.9336 47.26C32.8596 47.3907 32.7692 47.5249 32.6639 47.6656C32.5554 47.8063 32.4436 47.9305 32.3219 48.0414Z" fill="black"/>
<path id="Path_8" d="M35.0564 46.2252C35.0218 46.303 34.9972 46.3576 34.9857 46.3941C34.9741 46.4288 34.9659 46.4884 34.9593 46.5729C34.9593 46.6209 34.9676 46.6805 34.9824 46.755C34.9972 46.8295 35.0366 46.8676 35.1008 46.8676C35.183 46.8676 35.2635 46.8361 35.3408 46.7782C35.4165 46.7169 35.4954 46.6888 35.571 46.6888C35.6467 46.6888 35.7026 46.707 35.7355 46.7417C35.7667 46.7782 35.7782 46.8196 35.7667 46.8676C35.7667 46.8725 35.7535 46.9057 35.7305 46.9653C35.7075 47.0249 35.6812 47.101 35.6516 47.1954C35.6204 47.2881 35.5957 47.3874 35.571 47.4917C35.548 47.5961 35.5332 47.6937 35.5316 47.7798C35.5283 47.8676 35.5414 47.9404 35.571 48C35.599 48.0613 35.6532 48.0894 35.7305 48.0894C35.8012 48.0894 35.8884 48.0712 35.992 48.0348C36.0956 48 36.2008 47.9537 36.306 47.8974C36.4145 47.8411 36.5132 47.7782 36.6086 47.7103C36.7023 47.6424 36.7796 47.5745 36.8388 47.51C36.8569 47.4917 36.8881 47.5017 36.9374 47.5414C36.9835 47.5795 36.9835 47.6374 36.9374 47.7153C36.8766 47.8179 36.7977 47.909 36.7023 47.9917C36.6036 48.0762 36.5001 48.1474 36.3866 48.207C36.2748 48.2682 36.158 48.3163 36.0413 48.351C35.9229 48.3858 35.8144 48.4023 35.7124 48.4023C35.5233 48.4023 35.3902 48.3593 35.3096 48.2732C35.229 48.1871 35.1813 48.0795 35.1682 47.952C35.1534 47.8245 35.1616 47.6888 35.1945 47.5464C35.2257 47.404 35.2668 47.2749 35.3145 47.1623C35.2849 47.1689 35.2487 47.1722 35.2076 47.1755C35.1649 47.1788 35.1304 47.1788 35.0991 47.1788C35.0169 47.1788 34.9511 47.1672 34.9051 47.1441C34.887 47.2103 34.8607 47.2997 34.8245 47.4123C34.79 47.5249 34.7505 47.6424 34.7094 47.7633C34.6683 47.8858 34.6288 47.9984 34.5943 48.1027C34.5581 48.207 34.5285 48.2831 34.5055 48.3312C34.4595 48.4321 34.3986 48.4851 34.3296 48.4917C34.2589 48.4967 34.1931 48.4504 34.1339 48.3494C34.1635 48.3146 34.2046 48.2351 34.2572 48.1126C34.3099 47.9901 34.3658 47.8576 34.425 47.7153C34.4858 47.5729 34.5384 47.4338 34.5894 47.2997C34.6404 47.1672 34.6765 47.0696 34.7012 47.01C34.619 46.909 34.5779 46.7815 34.5779 46.6259C34.5779 46.6027 34.5812 46.5596 34.591 46.5017C34.6009 46.4421 34.614 46.3825 34.6354 46.3229C34.6552 46.2633 34.6864 46.2103 34.7275 46.1656C34.7686 46.1225 34.8229 46.0994 34.887 46.0994C34.933 46.0994 34.9741 46.1093 35.0054 46.1292C35.0399 46.1523 35.0564 46.1838 35.0564 46.2252Z" fill="black"/>
<path id="Shape_6" fill-rule="evenodd" clip-rule="evenodd" d="M39.8741 47.3891C39.8544 47.3328 39.8248 47.3047 39.7903 47.3047C39.7492 47.3709 39.6933 47.4437 39.6176 47.5249C39.5469 47.606 39.4664 47.6821 39.3743 47.7566C39.2822 47.8311 39.1835 47.8957 39.0816 47.9454C38.978 47.9967 38.8728 48.0215 38.7675 48.0215C38.7001 48.0215 38.6557 47.9901 38.6294 47.9272C38.6031 47.8659 38.59 47.8013 38.59 47.7368C38.59 47.606 38.6031 47.4884 38.6294 47.3808C38.6557 47.2749 38.6935 47.1573 38.7396 47.0265C38.7116 46.9388 38.6705 46.8907 38.6212 46.8808C38.5719 46.8725 38.5275 46.856 38.4929 46.8311C38.4814 46.7434 38.437 46.6722 38.3647 46.6225C38.289 46.5729 38.2134 46.548 38.1378 46.548C37.9668 46.548 37.8056 46.5994 37.6593 46.7037C37.5113 46.808 37.3798 46.9123 37.2679 47.0199C37.2038 47.0845 37.1331 47.1557 37.0608 47.2335C36.9868 47.3096 36.9177 47.3924 36.8569 47.4785C36.7944 47.5646 36.7451 47.6573 36.7056 47.7517C36.6678 47.846 36.648 47.9421 36.648 48.0364C36.648 48.1672 36.6941 48.2765 36.7829 48.3626C36.8717 48.4487 36.9818 48.4917 37.1134 48.4917C37.2153 48.4917 37.314 48.4686 37.4126 48.4206C37.5113 48.3742 37.6034 48.3162 37.6938 48.2467C37.7842 48.1788 37.8665 48.1027 37.9437 48.0199C37.9686 47.9927 37.9928 47.9662 38.0164 47.9404C38.066 47.8861 38.1129 47.8347 38.1575 47.7864C38.1641 47.9305 38.2101 48.0613 38.2973 48.1805C38.3828 48.2997 38.5176 48.3576 38.6985 48.3576C38.8415 48.3576 38.978 48.3311 39.1112 48.2749C39.246 48.2202 39.3644 48.1507 39.4713 48.0696C39.5765 47.9868 39.667 47.899 39.741 47.803C39.815 47.7086 39.8643 47.6192 39.8873 47.5364C39.8988 47.4951 39.8939 47.4454 39.8741 47.3891ZM37.4916 48.0414C37.3699 48.1523 37.2581 48.207 37.1578 48.207C37.0575 48.207 37.0164 48.1523 37.0377 48.0431C37.0591 47.9321 37.1183 47.8047 37.2153 47.659C37.3123 47.5133 37.4373 47.3659 37.5869 47.2169C37.7399 47.0679 37.8961 46.957 38.0621 46.8858C38.1279 46.856 38.1674 46.856 38.1855 46.8858C38.2035 46.9156 38.2118 46.9537 38.2118 47.0017C38.2118 47.0431 38.1756 47.1292 38.1016 47.26C38.0292 47.3907 37.9388 47.5249 37.8319 47.6656C37.7251 47.8063 37.6116 47.9305 37.4916 48.0414Z" fill="black"/>
<path id="Path_9" d="M42.9375 47.5911C42.9917 47.5431 43.0345 47.5249 43.0657 47.5331C43.0986 47.5431 43.1167 47.5646 43.1233 47.601C43.1282 47.6358 43.1233 47.6805 43.1052 47.7301C43.0871 47.7798 43.0608 47.8278 43.0246 47.8692C42.9589 47.9404 42.8832 48.0116 42.7944 48.0828C42.7056 48.154 42.6086 48.2186 42.5017 48.2749C42.3949 48.3311 42.288 48.3775 42.1795 48.4139C42.0693 48.4487 41.9657 48.4669 41.8638 48.4669C41.7108 48.4669 41.5694 48.4421 41.4395 48.3957C41.3096 48.3477 41.211 48.2583 41.1468 48.1275C41.1107 48.0513 41.0909 47.9619 41.086 47.8643C41.0794 47.7666 41.0778 47.6722 41.0794 47.5845C41.0827 47.495 41.0827 47.4205 41.0794 47.3609C41.0761 47.303 41.0581 47.2715 41.0219 47.2715C40.9347 47.2715 40.8279 47.3295 40.7045 47.4421C40.5796 47.5563 40.4546 47.6821 40.3231 47.8262C40.1948 47.9686 40.0698 48.1027 39.9514 48.2285C39.8331 48.3527 39.7328 48.4255 39.6489 48.4437C39.5831 48.4619 39.519 48.457 39.4499 48.4305C39.3825 48.404 39.3431 48.3576 39.3315 48.2914C39.3315 48.2682 39.3496 48.1954 39.3842 48.0729C39.4203 47.952 39.4598 47.8162 39.5091 47.6705C39.5552 47.5249 39.6045 47.3858 39.6538 47.25C39.7032 47.1159 39.7377 47.0282 39.7558 46.9868C39.7854 46.9205 39.8413 46.8858 39.9235 46.8792C40.0057 46.8725 40.0715 46.9007 40.1192 46.9586C40.1488 47.0066 40.1603 47.0696 40.1537 47.1507C40.1471 47.2301 40.0994 47.3758 40.0123 47.5845C40.0879 47.5066 40.1718 47.4222 40.2655 47.3311C40.3576 47.2384 40.453 47.1556 40.5565 47.0845C40.6601 47.0133 40.7654 46.9619 40.8755 46.9288C40.9841 46.8941 41.0959 46.8974 41.2077 46.9321C41.3146 46.9669 41.3886 47.0249 41.4297 47.106C41.4708 47.1854 41.4987 47.2749 41.5102 47.3725C41.5234 47.4719 41.5267 47.5729 41.5234 47.6772C41.5201 47.7798 41.53 47.8709 41.5546 47.9487C41.5957 48.0927 41.6944 48.1556 41.8473 48.1374C42.0298 48.1192 42.2173 48.058 42.4097 47.9537C42.602 47.8477 42.778 47.7285 42.9375 47.5911Z" fill="black"/>
<path id="Path_10" d="M44.2858 44.9934C44.3565 44.9934 44.4404 44.9917 44.539 44.9884C44.636 44.9851 44.7298 44.9851 44.8186 44.9884C44.9073 44.9917 44.983 45.005 45.0438 45.0282C45.1063 45.053 45.1375 45.0944 45.1375 45.154C45.1375 45.2202 45.1112 45.2649 45.057 45.2881C45.0044 45.3113 44.9501 45.3245 44.8975 45.3245L44.1444 45.3328C44.0852 45.505 44.0145 45.707 43.9323 45.9388C43.8501 46.1706 43.7678 46.409 43.6889 46.6557C43.61 46.9023 43.5426 47.1457 43.4867 47.3858C43.4291 47.6258 43.4012 47.8361 43.4012 48.0133C43.4012 48.0431 43.4061 48.0845 43.4143 48.1374C43.4225 48.1904 43.4587 48.2169 43.5245 48.2169C43.6314 48.2169 43.7432 48.1821 43.8616 48.1143C43.98 48.0464 44.0885 47.9669 44.1855 47.8775C44.2825 47.7881 44.3664 47.7037 44.4387 47.6242C44.5094 47.5431 44.5538 47.4951 44.5719 47.4768C44.6952 47.4603 44.7347 47.5066 44.687 47.6209C44.6459 47.7219 44.5801 47.8295 44.4864 47.9421C44.3943 48.0547 44.2924 48.1606 44.1773 48.2566C44.0622 48.3527 43.9405 48.4355 43.8122 48.5017C43.6856 48.5679 43.5656 48.601 43.4538 48.601C43.2696 48.601 43.1299 48.5464 43.0328 48.4371C42.9358 48.3262 42.8865 48.1838 42.8865 48.0033C42.8865 47.8543 42.9161 47.6573 42.9737 47.409C43.0328 47.1623 43.1036 46.9073 43.1858 46.6457C43.268 46.3841 43.3518 46.1325 43.439 45.8908C43.5261 45.649 43.5936 45.4586 43.6478 45.3146C43.6182 45.3146 43.5705 45.3179 43.5048 45.3229C43.4406 45.3295 43.3749 45.3295 43.3107 45.3229C43.245 45.3162 43.1874 45.3013 43.1364 45.2782C43.0871 45.255 43.0608 45.2169 43.0608 45.1623C43.0608 45.1093 43.0904 45.0712 43.1496 45.0513C43.2088 45.0298 43.2762 45.0166 43.3535 45.0116C43.4291 45.005 43.508 45.005 43.587 45.0116C43.6675 45.0166 43.7267 45.0149 43.7695 45.0017C43.8566 44.7881 43.9339 44.6109 43.9948 44.4719C44.0572 44.3311 44.123 44.1904 44.1904 44.048C44.2578 43.9057 44.322 43.7947 44.3812 43.7169C44.3927 43.7004 44.4141 43.6937 44.442 43.7004C44.4716 43.7053 44.5028 43.7169 44.5357 43.7351C44.5686 43.7517 44.5966 43.7749 44.6196 43.8013C44.6426 43.8278 44.6558 43.8543 44.6558 43.8775C44.6558 43.9073 44.636 43.9818 44.5982 44.101C44.5588 44.2202 44.5176 44.3444 44.4733 44.4719C44.4289 44.5994 44.3861 44.7169 44.345 44.8245C44.3055 44.9305 44.2858 44.9868 44.2858 44.9934Z" fill="black"/>
<path id="Shape_7" fill-rule="evenodd" clip-rule="evenodd" d="M46.7539 47.4851C46.7391 47.4719 46.7259 47.4752 46.7144 47.4934C46.6799 47.5464 46.6141 47.6192 46.5171 47.7103C46.4234 47.803 46.3099 47.8941 46.18 47.9835C46.0501 48.0729 45.9038 48.149 45.741 48.2153C45.5782 48.2798 45.4072 48.3129 45.2296 48.3129C45.1244 48.3129 45.0422 48.2898 44.9863 48.2417C44.9304 48.1937 44.8925 48.1407 44.8745 48.0778C44.858 48.0149 44.8514 47.9504 44.858 47.8808C44.8629 47.8129 44.8712 47.755 44.8843 47.707C44.9961 47.75 45.1014 47.75 45.1984 47.7119C45.297 47.6739 45.3809 47.6109 45.4516 47.5249C45.5223 47.4388 45.5782 47.3394 45.6193 47.2252C45.6604 47.1126 45.6818 47.005 45.6818 46.904C45.6818 46.8047 45.6588 46.7202 45.6111 46.6507C45.5634 46.5811 45.4878 46.548 45.3809 46.548C45.3053 46.548 45.2346 46.5646 45.1688 46.601C45.1047 46.6358 45.0438 46.6821 44.983 46.7384C44.9238 46.7947 44.8728 46.8543 44.8284 46.9206C44.784 46.9868 44.7446 47.0497 44.7084 47.1076C44.6311 47.2318 44.567 47.3709 44.5176 47.5182C44.4683 47.6672 44.4453 47.8179 44.4519 47.9653C44.4568 48.1441 44.5045 48.2815 44.5933 48.3808C44.6821 48.4785 44.7922 48.5464 44.9221 48.5861C45.052 48.6258 45.1935 48.6374 45.3431 48.6225C45.4944 48.6093 45.6358 48.5778 45.7657 48.5298C45.9827 48.4454 46.1932 48.3311 46.3938 48.1855C46.596 48.0398 46.7374 47.8758 46.8197 47.6987C46.8312 47.6739 46.8345 47.649 46.8279 47.6192C46.8229 47.5878 46.8114 47.5613 46.7983 47.5381C46.7835 47.5133 46.7687 47.4967 46.7539 47.4851ZM45.0153 47.3518C45.0206 47.337 45.025 47.3246 45.0307 47.3146C45.0471 47.2782 45.0718 47.2351 45.103 47.1855C45.131 47.1358 45.1606 47.0911 45.1902 47.0513C45.2198 47.0133 45.251 46.9802 45.2839 46.9537C45.3151 46.9272 45.3464 46.9172 45.376 46.9222C45.4171 46.9355 45.4335 46.9669 45.4253 47.0166C45.4154 47.0662 45.3891 47.1192 45.3497 47.1772C45.3086 47.2335 45.2592 47.2881 45.2033 47.3411C45.1474 47.3957 45.0964 47.4305 45.0488 47.4487C45.0241 47.4619 45.0093 47.4619 45.0044 47.4537C44.9978 47.4454 44.9961 47.4305 44.9994 47.4139C45.0011 47.3957 45.006 47.3775 45.0126 47.3593C45.0135 47.3567 45.0144 47.3543 45.0153 47.3518Z" fill="black"/>
<path id="Shape_8" fill-rule="evenodd" clip-rule="evenodd" d="M48.9096 47.4851C48.8948 47.4719 48.8816 47.4752 48.8701 47.4934C48.8323 47.5464 48.7682 47.6192 48.6728 47.7103C48.5774 47.803 48.4656 47.8941 48.3357 47.9835C48.2058 48.0729 48.0595 48.149 47.8967 48.2153C47.7355 48.2798 47.5645 48.3129 47.3869 48.3129C47.2801 48.3129 47.1978 48.2898 47.1436 48.2417C47.086 48.1937 47.0499 48.1407 47.0318 48.0778C47.0137 48.0149 47.0071 47.9504 47.0137 47.8808C47.0186 47.8129 47.0285 47.755 47.04 47.707C47.1518 47.75 47.257 47.75 47.3541 47.7119C47.4527 47.6739 47.5366 47.6109 47.6073 47.5249C47.6796 47.4388 47.7339 47.3394 47.7766 47.2252C47.8177 47.1126 47.8375 47.005 47.8375 46.904C47.8375 46.8047 47.8128 46.7202 47.7668 46.6507C47.7191 46.5811 47.6435 46.548 47.5366 46.548C47.4593 46.548 47.3886 46.5646 47.3245 46.601C47.2587 46.6358 47.1978 46.6821 47.1387 46.7384C47.0811 46.7947 47.0285 46.8543 46.9841 46.9206C46.9397 46.9868 46.9002 47.0497 46.8641 47.1076C46.7868 47.2318 46.7226 47.3709 46.6733 47.5182C46.624 47.6672 46.601 47.8179 46.6075 47.9653C46.6141 48.1441 46.6618 48.2815 46.749 48.3808C46.8394 48.4785 46.9479 48.5464 47.0778 48.5861C47.2094 48.6258 47.3508 48.6374 47.5004 48.6225C47.6517 48.6093 47.7914 48.5778 47.9213 48.5298C48.1384 48.4454 48.3489 48.3311 48.5511 48.1855C48.7517 48.0398 48.8931 47.8758 48.9753 47.6987C48.9885 47.6739 48.9901 47.649 48.9852 47.6192C48.9786 47.5878 48.9688 47.5613 48.954 47.5381C48.9392 47.5133 48.9244 47.4967 48.9096 47.4851ZM47.1676 47.3518C47.173 47.337 47.1774 47.3246 47.183 47.3146C47.2028 47.2782 47.2258 47.2351 47.2521 47.1855C47.2817 47.1358 47.3113 47.0911 47.3409 47.0513C47.3689 47.0133 47.4001 46.9802 47.433 46.9537C47.4659 46.9272 47.4971 46.9172 47.5267 46.9222C47.5678 46.9355 47.5843 46.9669 47.576 47.0166C47.5662 47.0662 47.5415 47.1192 47.5004 47.1772C47.4593 47.2335 47.41 47.2881 47.3541 47.3411C47.2982 47.3957 47.2455 47.4305 47.1995 47.4487C47.1748 47.4619 47.1617 47.4619 47.1551 47.4537C47.1485 47.4454 47.1485 47.4305 47.1518 47.4139C47.1551 47.3957 47.16 47.3775 47.165 47.3593C47.1659 47.3567 47.1668 47.3543 47.1676 47.3518Z" fill="black"/>
</g>
</g>
<g id="Group_3">
<rect id="Rectangle" x="0.00985718" y="0.00662231" width="48.977" height="25.3278" fill="#FCDF00"/>
<path id="Path_11" d="M13.6953 8.96853C13.4717 8.89237 13.2201 8.81621 12.9307 8.73674C12.6463 8.65562 12.3322 8.58442 11.9836 8.52648C11.6285 8.47019 11.2421 8.44204 10.8211 8.43707C10.3097 8.43707 9.80165 8.51489 9.30179 8.66389C8.80356 8.81124 8.33494 9.04138 7.89262 9.3427C7.44867 9.64734 7.05732 10.0298 6.7186 10.4934C6.37658 10.9503 6.11185 11.4934 5.91618 12.1175C5.7238 12.7351 5.62514 13.4404 5.62021 14.2268C5.6235 15.0596 5.7386 15.7831 5.95893 16.3973C6.1842 17.0132 6.48018 17.5348 6.8485 17.9569C7.22175 18.3791 7.63283 18.7218 8.08665 18.9752C8.54212 19.2318 9.00417 19.4172 9.47608 19.5348C9.94964 19.6457 10.3936 19.7036 10.8195 19.7036C11.2651 19.6987 11.6745 19.6705 12.0461 19.6142C12.421 19.553 12.763 19.4818 13.0689 19.3957C13.3714 19.3129 13.6444 19.2318 13.8828 19.1473V17.942C13.6592 18.043 13.4076 18.144 13.1281 18.2467C12.8469 18.3477 12.5262 18.4387 12.1744 18.5066C11.8208 18.5778 11.4246 18.6142 10.9855 18.6175C10.244 18.6126 9.61256 18.4801 9.08638 18.2268C8.55692 17.9735 8.13269 17.6324 7.80054 17.202C7.4684 16.7732 7.22504 16.293 7.07377 15.7583C6.91591 15.2235 6.84192 14.6738 6.84192 14.1076C6.84192 13.5397 6.9192 12.9851 7.08034 12.442C7.24148 11.904 7.48813 11.4139 7.81863 10.9768C8.14914 10.5348 8.56679 10.1838 9.07323 9.92714C9.57967 9.66555 10.1798 9.52813 10.8639 9.52482C11.2684 9.52813 11.6383 9.56456 11.9688 9.6374C12.3026 9.7086 12.6085 9.80131 12.888 9.90893C13.1675 10.0165 13.4339 10.1308 13.6904 10.2467V8.96853" fill="#0B67B2"/>
<path id="Shape_9" fill-rule="evenodd" clip-rule="evenodd" d="M24.0741 17.8642C24.209 17.7599 24.3208 17.6705 24.4013 17.6026H24.4079V18.5662C23.9097 18.9321 23.4822 19.2086 23.1352 19.404C22.7833 19.5993 22.4874 19.697 22.2506 19.7003C22.0319 19.7003 21.8675 19.6424 21.7639 19.5314C21.6603 19.4238 21.5879 19.2649 21.5485 19.0646C21.5074 18.8642 21.4811 18.6225 21.4597 18.3493C21.3232 18.4619 21.144 18.5944 20.9319 18.7434C20.7165 18.8957 20.4682 19.0397 20.1854 19.1854C19.8976 19.3344 19.5836 19.4536 19.2267 19.5497C18.8765 19.6457 18.4967 19.697 18.0823 19.7003C17.6811 19.697 17.3062 19.6275 16.9593 19.4901C16.6074 19.3526 16.2966 19.1606 16.0319 18.9155C15.7589 18.6705 15.5485 18.3824 15.3939 18.0513C15.2393 17.7218 15.162 17.3642 15.1588 16.9735C15.167 16.3891 15.2854 15.8758 15.5221 15.4553C15.7573 15.0281 16.073 14.6722 16.4643 14.3808C16.8524 14.096 17.2832 13.8593 17.7535 13.6821C18.2204 13.5066 18.6923 13.3659 19.1675 13.2732C19.6395 13.1755 20.0768 13.1076 20.4764 13.0662C20.8776 13.0314 21.2081 13.0033 21.458 12.995V11.6208C21.463 11.1987 21.3906 10.8295 21.2443 10.5066C21.0947 10.1871 20.848 9.93376 20.5011 9.75164C20.1541 9.57118 19.6789 9.48012 19.087 9.47515C18.6595 9.47515 18.2681 9.52317 17.908 9.6225C17.5528 9.7235 17.201 9.86754 16.8622 10.0662C16.5186 10.2583 16.1601 10.495 15.777 10.7748V9.59436C15.8617 9.54454 15.9537 9.49085 16.0538 9.4324C16.15 9.37625 16.2537 9.3157 16.3657 9.24999C16.5942 9.12085 16.8524 8.99668 17.1451 8.8725C17.4377 8.74833 17.7551 8.64734 18.102 8.5629C18.4473 8.48177 18.8255 8.44204 19.2284 8.43707C19.5276 8.43707 19.8483 8.47019 20.187 8.53475C20.5208 8.5927 20.8464 8.70032 21.1539 8.83939C21.4597 8.98509 21.7244 9.17052 21.9349 9.40396C22.1388 9.63244 22.2917 9.86257 22.3854 10.091C22.4824 10.3245 22.54 10.5861 22.5696 10.8791C22.5959 11.1672 22.6091 11.5215 22.6041 11.9354V17.4818V17.8559C22.6041 17.9715 22.6074 18.075 22.6103 18.1701C22.611 18.1922 22.6117 18.2138 22.6123 18.2351C22.6156 18.3477 22.6206 18.4189 22.6288 18.4487C22.6419 18.4768 22.6617 18.5016 22.6929 18.5298C22.7225 18.553 22.7718 18.5695 22.8442 18.5695C22.933 18.5662 23.0431 18.5298 23.1829 18.4569C23.326 18.3841 23.4756 18.2914 23.6302 18.1871C23.7913 18.0778 23.9393 17.9718 24.0741 17.8642ZM20.9171 17.803C21.121 17.6391 21.3002 17.4851 21.4548 17.3377H21.4564V13.9371C21.2311 13.942 20.9516 13.9553 20.6195 13.9735C20.289 13.9934 19.9404 14.0364 19.5737 14.0977C19.2054 14.1606 18.8486 14.2583 18.5098 14.394C18.2385 14.5033 17.9721 14.6357 17.7156 14.7963C17.4542 14.9553 17.224 15.1457 17.0152 15.3593C16.8096 15.5728 16.6436 15.8129 16.5186 16.0828C16.3936 16.3526 16.3361 16.6506 16.3328 16.9752C16.3344 17.2914 16.4068 17.5662 16.5465 17.7947C16.6863 18.0215 16.8606 18.2053 17.0793 18.346C17.2996 18.4884 17.5298 18.5944 17.7748 18.6589C18.0165 18.7285 18.2451 18.7583 18.4621 18.7583C18.8058 18.755 19.1199 18.7136 19.4191 18.6208C19.7151 18.5281 19.9864 18.4106 20.2363 18.2649C20.4846 18.1225 20.7115 17.9685 20.9171 17.803Z" fill="#0B67B2"/>
<path id="Path_12" d="M33.4088 9.71524C33.269 9.59107 33.1145 9.45862 32.9385 9.31458C32.7576 9.16557 32.5653 9.02816 32.3581 8.89736C32.146 8.76491 31.9256 8.65564 31.6905 8.5712C31.4587 8.48676 31.2169 8.44372 30.9637 8.43875C30.6036 8.44372 30.2517 8.52816 29.9179 8.69206C29.5825 8.85431 29.2652 9.06127 28.9659 9.31623C28.6699 9.56955 28.4003 9.83941 28.1618 10.1242C27.9168 10.4073 27.708 10.6705 27.5288 10.9156C27.3578 11.1623 27.2213 11.3576 27.1309 11.5033V8.65729H25.9815V19.4868H27.1309V12.6821C27.3644 12.2931 27.6159 11.9139 27.8922 11.553C28.1635 11.1871 28.4512 10.8626 28.7505 10.5729C29.0514 10.2848 29.3523 10.0497 29.6647 9.88246C29.9771 9.71359 30.2912 9.62418 30.602 9.62087C30.8651 9.62418 31.1282 9.69206 31.3863 9.81789C31.6412 9.94537 31.8845 10.0993 32.1131 10.2798C32.3433 10.4619 32.5521 10.6341 32.7346 10.803L33.4088 9.71524Z" fill="#0B67B2"/>
<path id="Shape_10" fill-rule="evenodd" clip-rule="evenodd" d="M43.3748 13.6424C43.3748 13.644 43.3748 13.6457 43.3749 13.6473V13.6424H43.3748ZM43.2844 12.4901C43.3385 12.8791 43.3713 13.2632 43.3748 13.6424H34.9396C34.9199 14.3328 34.984 14.9454 35.1353 15.4834C35.2816 16.0232 35.4987 16.4901 35.7766 16.8824C36.0577 17.2765 36.3817 17.5977 36.7484 17.8576C37.1117 18.1159 37.5014 18.3046 37.9125 18.4288C38.3252 18.553 38.7396 18.6126 39.1556 18.6126C39.6719 18.6076 40.1389 18.548 40.5615 18.4338C40.9824 18.3146 41.3639 18.1656 41.6993 17.9867C42.0315 17.8129 42.3209 17.6275 42.5692 17.442C42.8142 17.2583 43.0213 17.0927 43.1808 16.9503V18.2516C42.8487 18.5182 42.4705 18.7616 42.0578 18.9785C41.6451 19.197 41.1879 19.3725 40.6864 19.5016C40.1849 19.6308 39.6357 19.6954 39.0372 19.7003C38.3302 19.6954 37.6955 19.5861 37.1282 19.3791C36.556 19.1689 36.061 18.8758 35.6286 18.505C35.1961 18.1324 34.8377 17.702 34.5466 17.2152C34.254 16.7252 34.0402 16.202 33.8922 15.6473C33.7442 15.0894 33.6719 14.5182 33.6719 13.9354C33.6719 13.2119 33.7886 12.5215 34.009 11.8659C34.2342 11.2103 34.5565 10.6242 34.9824 10.1076C35.405 9.59437 35.9246 9.18708 36.5313 8.89072C37.143 8.59105 37.8336 8.4437 38.608 8.43542C39.2066 8.44039 39.741 8.52483 40.2129 8.6937C40.6881 8.86258 41.0975 9.08443 41.4543 9.35761C41.8095 9.63576 42.1104 9.93542 42.3488 10.2699C42.5922 10.5993 42.7846 10.9305 42.9194 11.2583C43.1019 11.6904 43.2285 12.0993 43.2844 12.4901ZM35.5858 11.2765C35.3425 11.6854 35.1649 12.1722 35.0629 12.7301V12.7318H42.0101C41.9657 12.4917 41.9016 12.2268 41.8095 11.9371C41.724 11.6473 41.5694 11.3344 41.3639 10.995C41.0844 10.5281 40.7029 10.1639 40.2277 9.88907C39.7558 9.6192 39.2099 9.48013 38.608 9.47516C38.2447 9.47516 37.878 9.53973 37.5064 9.66887C37.1348 9.79635 36.7812 9.99503 36.4491 10.2632C36.1169 10.5281 35.8292 10.8659 35.5858 11.2765Z" fill="#0B67B2"/>
<rect id="Rectangle_2" x="33.6785" y="5.63907" width="9.69312" height="1.11921" fill="#0B67B2"/>
<path id="Path_13" d="M0.00985718 28.6126H0.452173V29.9652H2.12442V28.6126H2.56838V31.8858H2.12442V30.3543H0.452173V31.8858H0.00985718V28.6126Z" fill="#0B67B2"/>
<path id="Path_14" d="M3.58621 28.6126H5.94413V29.0132H4.01373V30.0066H5.79779V30.3858H4.01373V31.4967H5.97702V31.8858H3.58621V28.6126Z" fill="#0B67B2"/>
<path id="Shape_11" fill-rule="evenodd" clip-rule="evenodd" d="M8.28396 28.6126H7.78738L6.56403 31.8858H7.01456L7.36809 30.9056H8.64242L8.98114 31.8858H9.46456L8.28396 28.6126ZM8.01594 29.0977L8.5158 30.5447H7.4947L8.01594 29.0977Z" fill="#0B67B2"/>
<path id="Path_15" d="M10.1321 28.6126H10.5728V31.4967H12.204V31.8858H10.1321V28.6126Z" fill="#0B67B2"/>
<path id="Path_16" d="M14.9532 28.6126V29.0017H13.8598V31.8858H13.4142V29.0017H12.3174V28.6126H14.9532Z" fill="#0B67B2"/>
<path id="Path_17" d="M15.6422 28.6126H16.0878V29.9652H17.7567V28.6126H18.2023V31.8858H17.7567V30.3543H16.0878V31.8858H15.6422V28.6126Z" fill="#0B67B2"/>
<rect id="Rectangle_3" x="20.8069" y="28.6126" width="0.445604" height="3.27318" fill="#0B67B2"/>
<path id="Path_18" d="M22.2375 28.6126H22.7571L24.3783 31.2566V28.6126H24.7993V31.8858H24.3043L22.6584 29.2434V31.8858H22.2375V28.6126Z" fill="#0B67B2"/>
<path id="Path_19" d="M26.0703 30.8295C26.0802 31.0149 26.1213 31.1655 26.1953 31.2814C26.3367 31.4983 26.585 31.6076 26.9385 31.6076C27.098 31.6076 27.2427 31.5844 27.3742 31.5364C27.6275 31.4437 27.7524 31.2798 27.7524 31.0414C27.7524 30.8642 27.6998 30.7367 27.5929 30.6606C27.4844 30.5861 27.3134 30.5215 27.0816 30.4669L26.6557 30.3659C26.3762 30.2997 26.1805 30.2285 26.0637 30.1506C25.8648 30.0132 25.7645 29.8096 25.7645 29.5381C25.7645 29.2434 25.8615 29.0016 26.0588 28.8129C26.2561 28.6242 26.534 28.5298 26.8941 28.5298C27.2263 28.5298 27.5074 28.6126 27.7409 28.7781C27.9728 28.9453 28.0879 29.2086 28.0879 29.5728H27.6751C27.6538 29.3973 27.6094 29.2632 27.5387 29.1689C27.4104 28.9983 27.1934 28.9139 26.8842 28.9139C26.6343 28.9139 26.4567 28.9669 26.3466 29.0778C26.238 29.1871 26.1838 29.3162 26.1838 29.4619C26.1838 29.6225 26.2479 29.7401 26.3762 29.8146C26.4617 29.8626 26.6524 29.9222 26.9484 29.9934L27.3907 30.0977C27.6028 30.1473 27.7672 30.2169 27.8823 30.3046C28.0846 30.4586 28.1849 30.6804 28.1849 30.9702C28.1849 31.3328 28.0566 31.5927 27.8001 31.7483C27.5452 31.904 27.2493 31.9818 26.9105 31.9818C26.5159 31.9818 26.2084 31.8791 25.9848 31.6705C25.7612 31.4636 25.651 31.1854 25.656 30.8295H26.0703Z" fill="#0B67B2"/>
<path id="Path_20" d="M29.5529 28.6126V30.6358C29.5529 30.8742 29.5973 31.0712 29.6861 31.2285C29.8193 31.4669 30.0413 31.5844 30.3553 31.5844C30.7319 31.5844 30.9884 31.457 31.1232 31.2003C31.1972 31.0596 31.2317 30.8725 31.2317 30.6358V28.6126H31.6773V30.4503C31.6773 30.8526 31.6231 31.1639 31.5145 31.3808C31.3172 31.7748 30.9423 31.9735 30.3915 31.9735C29.8407 31.9735 29.4674 31.7765 29.2701 31.3808C29.1616 31.1639 29.1073 30.8543 29.1073 30.4503V28.6126H29.5529V28.6126Z" fill="#0B67B2"/>
<path id="Shape_12" fill-rule="evenodd" clip-rule="evenodd" d="M34.1553 28.6126H32.6771V31.8874H33.1178V30.4834H34.0912C34.2671 30.4834 34.3954 30.5033 34.4776 30.5447C34.619 30.6159 34.6963 30.7599 34.7062 30.9735L34.7325 31.5199C34.739 31.6473 34.7473 31.7334 34.7555 31.7781C34.7637 31.8228 34.7752 31.8593 34.79 31.8874H35.3293V31.8129C35.2619 31.7848 35.2142 31.7169 35.1896 31.6126C35.1715 31.5513 35.1616 31.4586 35.1583 31.3344L35.1419 30.8957C35.1337 30.7053 35.0991 30.5679 35.035 30.4834C34.9709 30.3973 34.8755 30.3295 34.7489 30.2781C34.8936 30.202 35.0054 30.101 35.086 29.9768C35.1666 29.8526 35.2077 29.6904 35.2077 29.495C35.2077 29.1192 35.058 28.8609 34.7571 28.7219C34.5993 28.649 34.3987 28.6126 34.1553 28.6126ZM34.5812 29.9868C34.4644 30.0695 34.3082 30.1109 34.106 30.1109H33.1161V28.9934H34.1602C34.3066 28.9934 34.425 29.0149 34.5121 29.0596C34.6766 29.144 34.7571 29.303 34.7571 29.5364C34.7571 29.7533 34.6996 29.904 34.5812 29.9868Z" fill="#0B67B2"/>
<path id="Shape_13" fill-rule="evenodd" clip-rule="evenodd" d="M37.6132 28.6126H37.1167L35.8917 31.8858H36.3438L36.6974 30.9056H37.9717L38.3121 31.8858H38.7922L37.6132 28.6126ZM37.3452 29.0977L37.8467 30.5447H36.8256L37.3452 29.0977Z" fill="#0B67B2"/>
<path id="Path_21" d="M39.4631 28.6126H39.9827L41.6023 31.2566V28.6126H42.0216V31.8858H41.5283L39.884 29.2434V31.8858H39.4631V28.6126Z" fill="#0B67B2"/>
<path id="Path_22" d="M45.3069 28.851C45.5305 29.0696 45.6555 29.3162 45.6818 29.596H45.2526C45.205 29.3841 45.108 29.2169 44.9665 29.0944C44.8235 28.9719 44.6229 28.909 44.3647 28.909C44.0507 28.909 43.7958 29.0215 43.6034 29.25C43.4094 29.4752 43.3124 29.8245 43.3124 30.2914C43.3124 30.6755 43.3995 30.9868 43.5755 31.2252C43.7498 31.4636 44.0112 31.5828 44.3565 31.5828C44.6755 31.5828 44.9189 31.4586 45.0849 31.2053C45.1721 31.0729 45.2378 30.9007 45.2822 30.6838H45.7114C45.6719 31.0282 45.547 31.3179 45.3349 31.5513C45.08 31.8311 44.7347 31.9719 44.3022 31.9719C43.9273 31.9719 43.6149 31.8576 43.3617 31.6258C43.0279 31.3212 42.8602 30.851 42.8602 30.2152C42.8602 29.7318 42.9852 29.3361 43.2351 29.0265C43.5064 28.6904 43.8813 28.5232 44.3582 28.5232C44.7659 28.5232 45.0833 28.6325 45.3069 28.851Z" fill="#0B67B2"/>
<path id="Path_23" d="M46.5944 28.6126H48.954V29.0132H47.0236V30.0066H48.8076V30.3858H47.0236V31.4967H48.9868V31.8858H46.5944V28.6126Z" fill="#0B67B2"/>
</g>
</g>
</svg>
