<svg width="16" height="17" viewBox="0 0 16 17" fill="none" xmlns="http://www.w3.org/2000/svg">
<path d="M11.0746 6.5L6.53711 11.0375L4.47461 8.975" stroke="#33CF90" stroke-width="1.4" stroke-linecap="round" stroke-linejoin="round"/>
<path d="M8 15.17C4.31626 15.17 1.33 12.1837 1.33 8.5H-1.33C-1.33 13.6528 2.84718 17.83 8 17.83V15.17ZM14.67 8.5C14.67 12.1837 11.6837 15.17 8 15.17V17.83C13.1528 17.83 17.33 13.6528 17.33 8.5H14.67ZM8 1.83C11.6837 1.83 14.67 4.81626 14.67 8.5H17.33C17.33 3.34718 13.1528 -0.83 8 -0.83V1.83ZM8 -0.83C2.84718 -0.83 -1.33 3.34718 -1.33 8.5H1.33C1.33 4.81626 4.31626 1.83 8 1.83V-0.83Z" fill="#33CF90"/>
</svg>
