<svg xmlns="http://www.w3.org/2000/svg" width="24" height="24" viewBox="0 0 24 24">
  <g fill="#FFF">
    <path d="M0.304608948,1.77539105 L21.9221859,23.392968 C22.3283311,23.7991132 22.9868227,23.7991132 23.392968,23.392968 C23.7991132,22.9868227 23.7991132,22.3283311 23.392968,21.9221859 L1.77539105,0.304608948 C1.36924579,-0.101536316 0.710754211,-0.101536316 0.304608948,0.304608948 C-0.101536316,0.710754211 -0.101536316,1.36924579 0.304608948,1.77539105 Z"/>
    <path d="M0.304608948,1.77539105 L21.9221859,23.392968 C22.3283311,23.7991132 22.9868227,23.7991132 23.392968,23.392968 C23.7991132,22.9868227 23.7991132,22.3283311 23.392968,21.9221859 L1.77539105,0.304608948 C1.36924579,-0.101536316 0.710754211,-0.101536316 0.304608948,0.304608948 C-0.101536316,0.710754211 -0.101536316,1.36924579 0.304608948,1.77539105 Z" transform="matrix(-1 0 0 1 23.698 0)"/>
  </g>
</svg>
