<svg xmlns="http://www.w3.org/2000/svg" width="50" height="50" viewBox="0 0 50 50">
  <defs>
    <linearGradient id="dengue_insurance-a" x1="50%" x2="50%" y1="0%" y2="100%">
      <stop offset="0%" stop-color="#FFF" stop-opacity="0"/>
      <stop offset="46.523%" stop-color="#FBFAFD" stop-opacity="0"/>
      <stop offset="100%" stop-color="#5721AE" stop-opacity=".072"/>
    </linearGradient>
  </defs>
  <g fill="none" fill-rule="evenodd" transform="translate(5 6)">
    <rect width="8.163" height="6.809" x="17.959" y="17.402" fill="#96C7FF"/>
    <polygon fill="#96C7FF" points="26.28 18.089 38.636 18.269 36.034 21.941 33.651 22.786 26.122 22.247"/>
    <ellipse cx="15.51" cy="20.428" fill="#96C7FF" rx="2.449" ry="2.27"/>
    <polygon fill="#96C7FF" points="22.041 14.7 29.072 4.549 28.354 1.867 25.457 1.117 23.674 3.782 22.041 12.142"/>
    <polygon fill="#96C7FF" points="23.136 16.006 35.894 12.749 37.936 10.267 36.967 7.909 33.176 7.909"/>
    <path fill="#3792FC" fill-rule="nonzero" d="M34.6481633,28.7506222 L31.4530612,23.2516874 L33.3795918,23.4499154 C33.4094111,23.4529567 33.4393885,23.4544721 33.4693878,23.454455 C35.421508,23.3618793 37.2005293,22.3878936 38.2302041,20.8479841 L39.8628571,18.5781981 C40.0299855,18.3460303 40.0456342,18.04744 39.9035706,17.8013525 C39.761507,17.5552649 39.4848056,17.4016506 39.1836735,17.4016924 L26.7885714,17.4016924 C26.6214822,16.9657445 26.3150997,16.5873013 25.9102041,16.3167347 L35.324898,13.5929915 C36.6572577,13.2219728 37.7501349,12.3330189 38.32,11.1567546 C38.7077528,10.3831425 38.6899911,9.48721468 38.2718367,8.72732703 C37.6991718,7.81808154 36.7145076,7.19679126 35.5918367,7.03633649 C34.3804771,6.78441374 33.1109765,7.04474292 32.1273469,7.74677949 L23.5804082,14.4464311 L29.2644898,5.69640617 C29.8098125,4.88930224 29.923924,3.89447073 29.5738776,2.99914385 C29.1806818,1.978341 28.3160792,1.17367237 27.2163265,0.805017422 C26.357709,0.497429585 25.3940747,0.573624261 24.6040816,1.01156794 C23.6276514,1.60590134 22.9915265,2.57584521 22.8718367,3.65284221 L20.5159184,15.8885017 L19.5918367,15.8885017 C18.3754159,15.891552 17.3465641,16.723225 17.1779592,17.8397611 C15.8854702,17.1143566 14.2240533,17.3102897 13.1687533,18.3125719 C12.1134532,19.314854 11.9427125,20.8590318 12.7567347,22.0388651 L7.34747035,28.782305 L34.6481633,28.7506222 Z M32.7934694,28.7506222 L27.6130612,28.7506222 L25.6244898,24.6967845 C26.3975567,24.322321 26.8956946,23.5934299 26.9306122,22.7856247 L29.4987755,23.0504331 L29.4865306,23.0564858 L32.7934694,28.7506222 Z M22.0408163,23.454455 L19.5918367,23.454455 C19.140992,23.454455 18.7755102,23.1157157 18.7755102,22.6978596 L18.7755102,20.4280737 L22.0408163,20.4280737 L22.0408163,23.454455 Z M19.3134694,24.9419214 C19.4056449,24.9554697 19.4985896,24.9640588 19.5918367,24.9676456 L23.9640816,24.9676456 L25.8195918,28.7506222 L17.4457143,28.7506222 L19.3134694,24.9419214 Z M29.8440816,21.5629667 L30.7918367,18.914883 L32.964898,18.914883 L31.4465306,21.728661 L29.8440816,21.5629667 Z M28.1853061,21.3919761 L26.9387755,21.2603285 L26.9387755,18.914883 L29.0718367,18.914883 L28.1853061,21.3919761 Z M36.8759184,20.0081633 C36.1472787,21.1091471 34.8998404,21.8259621 33.5118367,21.9412643 L33.1763265,21.9064609 L34.7902041,18.914883 L37.6587755,18.914883 L36.8759184,20.0081633 Z M33.1787755,8.90210055 C33.6053346,8.60176364 34.1307698,8.44727436 34.6661224,8.46478845 C34.8719084,8.4650485 35.0771961,8.48354313 35.2791837,8.52001991 C35.9156961,8.59935284 36.4826407,8.93343534 36.8302041,9.43398706 C37.0171108,9.79041587 37.0128802,10.2074489 36.8187755,10.5605575 C36.43513,11.319533 35.7236939,11.8931935 34.8595918,12.1403285 L25.6473469,14.807327 L33.1787755,8.90210055 Z M24.482449,3.88511697 C24.5380761,3.25192062 24.891218,2.67340079 25.4481633,2.30307616 C25.6483436,2.18925179 25.8786192,2.12905922 26.1134694,2.12905922 C26.3006509,2.13103155 26.4860219,2.16329343 26.6612245,2.22439024 C27.2994782,2.43716082 27.8018325,2.9030349 28.0310204,3.49471379 C28.216582,3.96244533 28.1581085,4.48344333 27.8726531,4.90576406 L22.7755102,12.7493878 L24.482449,3.88511697 Z M19.5918367,17.4016924 L24.4897959,17.4016924 C24.9406406,17.4016924 25.3061224,17.7404316 25.3061224,18.1582877 L25.3061224,22.6978596 C25.3061224,23.1157157 24.9406406,23.454455 24.4897959,23.454455 L23.6734694,23.454455 L23.6734694,19.6714783 C23.6734694,19.2536223 23.3079876,18.914883 22.8571429,18.914883 L18.7755102,18.914883 L18.7755102,18.1582877 C18.7755102,17.7404316 19.140992,17.4016924 19.5918367,17.4016924 Z M15.5102041,18.914883 C16.4118935,18.914883 17.1428571,19.5923616 17.1428571,20.4280737 C17.1428571,21.2637858 16.4118935,21.9412643 15.5102041,21.9412643 C14.6085147,21.9412643 13.877551,21.2637858 13.877551,20.4280737 C13.877551,19.5923616 14.6085147,18.914883 15.5102041,18.914883 Z M13.9591837,23.0761573 C14.9637327,23.6042135 16.1990451,23.5824579 17.1812245,23.0194126 C17.2516334,23.496691 17.4850694,23.9405375 17.8473469,24.2859532 C16.890674,26.2317524 16.1731694,27.6911018 15.6948329,28.6640014 C15.6853689,28.6832505 15.6711729,28.7121241 15.6522449,28.7506222 L9.06380452,28.782305 L13.9591837,23.0761573 Z M5.84160482,30.2638128 L4.47265306,31.8102937 C3.15434434,31.9699654 2.07212165,32.854504 1.73632653,34.0467894 L6.49639073e-14,34.0467894 L6.49639073e-14,35.5599801 L2.44897959,35.5599801 C2.89982429,35.5599801 3.26530612,35.2212408 3.26530612,34.8033848 C3.26530612,33.9676727 3.9962698,33.2901941 4.89795918,33.2901941 C5.79964857,33.2901941 6.53061224,33.9676727 6.53061224,34.8033848 C6.53061224,35.2212408 6.89609408,35.5599801 7.34693878,35.5599801 L9.79591837,35.5599801 L9.79591837,34.0467894 L8.05959184,34.0467894 C7.81597987,33.1880583 7.17834015,32.4715223 6.31510204,32.086451 L7.80875579,30.2638128 L14.9110204,30.2638128 L14.1681633,31.7770035 L12.244898,31.7770035 L12.244898,33.2901941 L14.6938776,33.2901941 C15.0138488,33.290112 15.3042666,33.1167799 15.4367347,32.8468293 L16.7036735,30.2638128 L26.5616327,30.2638128 L27.8285714,32.8468293 C27.9610395,33.1167799 28.2514573,33.290112 28.5714286,33.2901941 L31.0204082,33.2901941 L31.0204082,31.7770035 L29.0971429,31.7770035 L28.3542857,30.2638128 L33.6726531,30.2638128 L35.1991837,32.892225 C35.3416133,33.1374493 35.6178828,33.2903264 35.9183673,33.2901941 L38.3673469,33.2901941 L38.3673469,31.7770035 L36.4081633,31.7770035 L35.5289796,30.2638128 L5.84160482,30.2638128 Z"/>
    <rect width="1.633" height="1.513" x="13.061" y="35.56" fill="#96C7FF" fill-rule="nonzero"/>
    <rect width="1.633" height="1.513" x="18.776" y="33.29" fill="#96C7FF" fill-rule="nonzero"/>
    <rect width="1.633" height="1.513" x="25.306" y="36.317" fill="#96C7FF" fill-rule="nonzero"/>
    <rect width="1.633" height="1.513" x="35.102" y="34.803" fill="#96C7FF" fill-rule="nonzero"/>
    <polygon fill="#3792FC" points="5.842 30.264 7.347 28.782 9.064 28.782 7.809 30.264"/>
    <polygon fill="#3792FC" points="14.911 30.264 15.644 28.766 17.416 28.751 16.666 30.264"/>
    <polygon fill="#3792FC" points="25.82 28.751 26.562 30.264 28.354 30.264 27.613 28.751"/>
    <polygon fill="#3792FC" points="32.793 28.751 34.648 28.751 35.529 30.264 33.673 30.264"/>
    <path fill="url(#dengue_insurance-a)" fill-rule="nonzero" d="M34.6481633,5.89756353 L31.4530612,4.7695769 L33.3795918,4.81023905 C33.4094111,4.8108629 33.4393885,4.81117377 33.4693878,4.81117025 C35.421508,4.79218037 37.2005293,4.59238843 38.2302041,4.27650955 L39.8628571,3.81091243 C40.0299855,3.76328826 40.0456342,3.70203898 39.9035706,3.65155948 C39.761507,3.60107999 39.4848056,3.56956936 39.1836735,3.56957792 L26.7885714,3.56957792 C26.6214822,3.48015271 26.3150997,3.40252335 25.9102041,3.3470225 L35.324898,2.78830596 C36.6572577,2.71219955 37.7501349,2.52985003 38.32,2.28856505 C38.7077528,2.12987537 38.6899911,1.94609532 38.2718367,1.79022093 C37.6991718,1.60370903 36.7145076,1.47626487 35.5918367,1.44335107 C34.3804771,1.39167461 33.1109765,1.44507547 32.1273469,1.58908297 L23.5804082,2.96337047 L29.2644898,1.16849357 C29.8098125,1.00293379 29.923924,0.798865791 29.5738776,0.615208995 C29.1806818,0.405813539 28.3160792,0.240753306 27.2163265,0.165131779 C26.357709,0.102036838 25.3940747,0.117666515 24.6040816,0.207501117 C23.6276514,0.329415659 22.9915265,0.528378505 22.8718367,0.749300966 L20.5159184,3.25917984 L19.5918367,3.25917984 C18.3754159,3.25980554 17.3465641,3.43040513 17.1779592,3.65943817 C15.8854702,3.51063726 14.2240533,3.55082865 13.1687533,3.756425 C12.1134532,3.96202134 11.9427125,4.27877576 12.7567347,4.52079284 L7.34747035,5.90406256 L34.6481633,5.89756353 Z M32.7934694,5.89756353 L27.6130612,5.89756353 L25.6244898,5.06600707 C26.3975567,4.98919406 26.8956946,4.83967792 26.9306122,4.6739743 L29.4987755,4.72829396 L29.4865306,4.72953555 L32.7934694,5.89756353 Z M22.0408163,4.81117025 L19.5918367,4.81117025 C19.140992,4.81117025 18.7755102,4.74168527 18.7755102,4.65597121 L18.7755102,4.19037409 L22.0408163,4.19037409 L22.0408163,4.81117025 Z M19.3134694,5.11629156 C19.4056449,5.1190707 19.4985896,5.12083257 19.5918367,5.12156833 L23.9640816,5.12156833 L25.8195918,5.89756353 L17.4457143,5.89756353 L19.3134694,5.11629156 Z M29.8440816,4.42317265 L30.7918367,3.87997601 L32.964898,3.87997601 L31.4465306,4.45716124 L29.8440816,4.42317265 Z M28.1853061,4.38809766 L26.9387755,4.36109303 L26.9387755,3.87997601 L29.0718367,3.87997601 L28.1853061,4.38809766 Z M36.8759184,4.10423862 C36.1472787,4.33008145 34.8998404,4.47712043 33.5118367,4.50077217 L33.1763265,4.49363301 L34.7902041,3.87997601 L37.6587755,3.87997601 L36.8759184,4.10423862 Z M33.1787755,1.82607191 C33.6053346,1.76446434 34.1307698,1.73277423 34.6661224,1.73636686 C34.8719084,1.73642021 35.0771961,1.74021398 35.2791837,1.74769639 C35.9156961,1.76396981 36.4826407,1.83249956 36.8302041,1.93517683 C37.0171108,2.00829044 37.0128802,2.09383568 36.8187755,2.1662682 C36.43513,2.3219555 35.7236939,2.43962943 34.8595918,2.4903238 L25.6473469,3.03740042 L33.1787755,1.82607191 Z M24.482449,0.796947072 C24.5380761,0.667060639 24.891218,0.548389906 25.4481633,0.472425878 C25.6483436,0.449077291 25.8786192,0.436730095 26.1134694,0.436730095 C26.3006509,0.437134677 26.4860219,0.443752498 26.6612245,0.456285178 C27.2994782,0.499930424 27.8018325,0.595494338 28.0310204,0.716864367 C28.216582,0.812809299 28.1581085,0.919680683 27.8726531,1.00631058 L22.7755102,2.61525903 L24.482449,0.796947072 Z M19.5918367,3.56957792 L24.4897959,3.56957792 C24.9406406,3.56957792 25.3061224,3.6390629 25.3061224,3.72477697 L25.3061224,4.65597121 C25.3061224,4.74168527 24.9406406,4.81117025 24.4897959,4.81117025 L23.6734694,4.81117025 L23.6734694,4.03517505 C23.6734694,3.94946098 23.3079876,3.87997601 22.8571429,3.87997601 L18.7755102,3.87997601 L18.7755102,3.72477697 C18.7755102,3.6390629 19.140992,3.56957792 19.5918367,3.56957792 Z M15.5102041,3.87997601 C16.4118935,3.87997601 17.1428571,4.01894596 17.1428571,4.19037409 C17.1428571,4.36180221 16.4118935,4.50077217 15.5102041,4.50077217 C14.6085147,4.50077217 13.877551,4.36180221 13.877551,4.19037409 C13.877551,4.01894596 14.6085147,3.87997601 15.5102041,3.87997601 Z M13.9591837,4.73357073 C14.9637327,4.84188995 16.1990451,4.83742727 17.1812245,4.7219308 C17.2516334,4.81983405 17.4850694,4.9108795 17.8473469,4.98173399 C16.890674,5.38087229 16.1731694,5.68022602 15.6948329,5.87979517 C15.6853689,5.88374369 15.6711729,5.88966648 15.6522449,5.89756353 L9.06380452,5.90406256 L13.9591837,4.73357073 Z M5.84160482,6.20796161 L4.47265306,6.52518845 C3.15434434,6.55794162 2.07212165,6.73938544 1.73632653,6.98395681 L0,6.98395681 L0,7.29435489 L2.44897959,7.29435489 C2.89982429,7.29435489 3.26530612,7.22486991 3.26530612,7.13915585 C3.26530612,6.96772772 3.9962698,6.82875777 4.89795918,6.82875777 C5.79964857,6.82875777 6.53061224,6.96772772 6.53061224,7.13915585 C6.53061224,7.22486991 6.89609408,7.29435489 7.34693878,7.29435489 L9.79591837,7.29435489 L9.79591837,6.98395681 L8.05959184,6.98395681 C7.81597987,6.80780682 7.17834015,6.66082509 6.31510204,6.5818361 L7.80875579,6.20796161 L14.9110204,6.20796161 L14.1681633,6.51835969 L12.244898,6.51835969 L12.244898,6.82875777 L14.6938776,6.82875777 C15.0138488,6.82874093 15.3042666,6.79318561 15.4367347,6.73781113 L16.7036735,6.20796161 L26.5616327,6.20796161 L27.8285714,6.73781113 C27.9610395,6.79318561 28.2514573,6.82874093 28.5714286,6.82875777 L31.0204082,6.82875777 L31.0204082,6.51835969 L29.0971429,6.51835969 L28.3542857,6.20796161 L33.6726531,6.20796161 L35.1991837,6.74712307 C35.3416133,6.7974255 35.6178828,6.82878491 35.9183673,6.82875777 L38.3673469,6.82875777 L38.3673469,6.51835969 L36.4081633,6.51835969 L35.5289796,6.20796161 L5.84160482,6.20796161 Z" transform="matrix(1 0 0 -1 0 38)"/>
  </g>
</svg>
