<svg width="32" height="33" viewBox="0 0 32 33" fill="none" xmlns="http://www.w3.org/2000/svg">
<path fill-rule="evenodd" clip-rule="evenodd" d="M18.9991 2.50018H13.0009C12.4503 2.50018 11.9992 2.94547 11.9992 3.49621V29.4983C11.9992 30.0549 12.4503 30.5002 13.0009 30.5002H18.9991C19.5556 30.5002 20.0008 30.049 20.0008 29.4983V3.50207C20.0008 2.94547 19.5498 2.50018 18.9991 2.50018ZM8.99998 13.496H3.0017C2.45107 13.496 2.00589 13.9412 2.00003 14.4978V29.4968C2.00003 30.0534 2.45107 30.4987 3.0017 30.4987H8.99998C9.55646 30.4987 10.0016 30.0475 10.0016 29.4968V14.4978C10.0016 13.9412 9.5506 13.496 8.99998 13.496ZM23.0001 10.4965H28.9984C29.549 10.4965 30 10.9418 30 11.4984V29.4971C30 30.0479 29.5548 30.499 28.9984 30.499H23.0001C22.4495 30.499 21.9984 30.0537 21.9984 29.4971V11.4984C21.9984 10.9418 22.4436 10.4965 23.0001 10.4965Z" fill="#33CF90"/>
</svg>
