<svg width="60" height="26" viewBox="0 0 60 26" fill="none" xmlns="http://www.w3.org/2000/svg">
<rect width="60" height="26" rx="13" fill="#4F2DA6"/>
<path fill-rule="evenodd" clip-rule="evenodd" d="M29.3877 6.59101V14.0304L27.1891 11.9105C26.9497 11.6797 26.5617 11.6797 26.3223 11.9105C26.0829 12.1413 26.0829 12.5155 26.3223 12.7463L29.3147 15.6317C29.6931 15.9966 30.3067 15.9966 30.6851 15.6317L33.6775 12.7463C33.9169 12.5155 33.9169 12.1413 33.6775 11.9105C33.4382 11.6797 33.0501 11.6797 32.8107 11.9105L30.6135 14.029V6.59101C30.6135 6.2646 30.3391 6 30.0006 6C29.6621 6 29.3877 6.2646 29.3877 6.59101ZM24.8571 7.85692H21V19H39V7.85692H35.1429C34.7878 7.85692 34.5 8.13408 34.5 8.47598C34.5 8.81787 34.7878 9.09504 35.1429 9.09504H37.7143V17.7619H22.2857V9.09504H24.8571C25.2122 9.09504 25.5 8.81787 25.5 8.47598C25.5 8.13408 25.2122 7.85692 24.8571 7.85692Z" fill="white"/>
</svg>
