<svg width="12" height="14" viewBox="0 0 12 14" fill="none" xmlns="http://www.w3.org/2000/svg">
<path fill-rule="evenodd" clip-rule="evenodd" d="M4 0.636364C4 0.28491 4.29848 0 4.66667 0H7.33333C7.70152 0 8 0.28491 8 0.636364C8 0.987818 7.70152 1.27273 7.33333 1.27273H4.66667C4.29848 1.27273 4 0.987818 4 0.636364ZM8.4714 5.91366C8.73175 6.16217 8.73175 6.5651 8.4714 6.81361L6.4714 8.7227C6.21106 8.97122 5.78895 8.97122 5.5286 8.7227C5.26825 8.47419 5.26825 8.07127 5.5286 7.82275L7.5286 5.91366C7.78895 5.66514 8.21106 5.66514 8.4714 5.91366ZM1.33333 8.27273C1.33333 5.81255 3.42267 3.81818 6 3.81818C8.57733 3.81818 10.6667 5.81255 10.6667 8.27273C10.6667 10.7329 8.57733 12.7273 6 12.7273C3.42267 12.7273 1.33333 10.7329 1.33333 8.27273ZM6 2.54545C2.68629 2.54545 0 5.10964 0 8.27273C0 11.4358 2.68629 14 6 14C9.31371 14 12 11.4358 12 8.27273C12 5.10964 9.31371 2.54545 6 2.54545Z" fill="#132056"/>
</svg>
