<?xml version="1.0" encoding="UTF-8"?>
<svg width="14px" height="14px" viewBox="0 0 14 14" version="1.1" xmlns="http://www.w3.org/2000/svg" xmlns:xlink="http://www.w3.org/1999/xlink">
    <!-- Generator: Sketch 50.2 (55047) - http://www.bohemiancoding.com/sketch -->
    <title>outline-edit-24px copy</title>
    <desc>Created with Sketch.</desc>
    <defs></defs>
    <g id="Page-1" stroke="none" stroke-width="1" fill="none" fill-rule="evenodd">
        <g id="2.4_help_fisdom" transform="translate(-314.000000, -452.000000)">
            <g id="outline-edit-24px-copy" transform="translate(312.000000, 450.000000)">
                <polygon id="Shape" points="0 0 18 0 18 18 0 18"></polygon>
                <path d="M10.545,6.765 L11.235,7.455 L4.44,14.25 L3.75,14.25 L3.75,13.56 L10.545,6.765 Z M13.245,2.25 C13.0575,2.25 12.8625,2.325 12.72,2.4675 L11.3475,3.84 L14.16,6.6525 L15.5325,5.28 C15.825,4.9875 15.825,4.515 15.5325,4.2225 L13.7775,2.4675 C13.6275,2.3175 13.44,2.25 13.245,2.25 Z M10.545,4.6425 L2.25,12.9375 L2.25,15.75 L5.0625,15.75 L13.3575,7.455 L10.545,4.6425 Z" id="Shape" fill="#878787" fill-rule="nonzero"></path>
            </g>
        </g>
    </g>
</svg>