<svg width="141" height="120" viewBox="0 0 141 120" fill="none" xmlns="http://www.w3.org/2000/svg">
<g clip-path="url(#clip0_2303_47833)">
<path d="M129.612 69.082L69.9852 57.6244C66.0686 56.8718 62.2971 59.5092 61.5613 63.5152C60.8254 67.5212 63.404 71.3788 67.3206 72.1314L126.948 83.589C130.864 84.3416 134.636 81.7042 135.372 77.6982C136.107 73.6922 133.529 69.8346 129.612 69.082Z" fill="#33CF90"/>
<path d="M40.3584 56.0751L69.6942 30.6011L102.079 52.8209L102.098 89.9182L43.3584 92.1147L40.3584 56.0751Z" fill="#41275B"/>
<path d="M45.6172 29.827L50.1707 88.4271L93.8006 89.1514L96.6352 34.6917L90.5608 27.3423L45.6172 29.827Z" fill="#FC643A"/>
<path d="M40.3582 56.075L40.3535 95.3641L105.197 94.4255L102.079 52.8208L80.7459 73.8495L69.4774 62.6836L59.264 72.1675L40.3582 56.075Z" fill="#7835F9"/>
<path d="M100.546 12C101.943 15.7307 100.546 20.3595 97.334 22.6275C99.3837 22.1129 101.578 22.556 103.483 23.4827C105.388 24.4095 107.051 25.8007 108.605 27.2468C108.011 26.4439 107.613 25.507 107.446 24.5146C107.279 23.5222 107.348 22.5034 107.645 21.5435C108.344 19.3733 110.128 17.7914 111.838 16.3215C110.047 17.0362 107.985 16.8123 106.22 16.0309C104.454 15.2495 102.801 14.6015 101.466 13.1721L100.546 12Z" fill="#FFBD02"/>
<path d="M103.325 32.1162C103.961 33.0691 103.819 34.4056 103.274 35.4229C102.729 36.4401 101.856 37.2144 100.996 37.9672C102.161 37.4097 103.558 37.5455 104.723 38.1149C105.887 38.6842 106.819 39.6419 107.588 40.6973C107.147 39.6463 106.961 38.5023 107.045 37.3621C107.168 36.2281 107.718 35.1108 108.659 34.5033C106.861 34.8463 105.035 34.6867 104.052 33.1073L103.325 32.1162Z" fill="#FFBD02"/>
<path d="M90.5615 27.3423L89.9629 35.0491L96.6359 34.6917L90.5615 27.3423Z" fill="#41275B"/>
<path d="M70.7285 55.4748C75.8327 55.4748 79.9706 51.2425 79.9706 46.0217C79.9706 40.801 75.8327 36.5687 70.7285 36.5687C65.6242 36.5687 61.4863 40.801 61.4863 46.0217C61.4863 51.2425 65.6242 55.4748 70.7285 55.4748Z" fill="white"/>
<path d="M69.4283 51.4821L65.7739 47.8252C65.6754 47.7268 65.5968 47.6096 65.5426 47.4801C65.4884 47.3507 65.4597 47.2116 65.4581 47.0707C65.4565 46.9299 65.482 46.7902 65.5332 46.6595C65.5843 46.5287 65.6602 46.4096 65.7564 46.3089C65.8526 46.2081 65.9672 46.1278 66.0938 46.0724C66.2204 46.0169 66.3564 45.9876 66.494 45.9859C66.6317 45.9842 66.7683 46.0103 66.8961 46.0627C67.0239 46.115 67.1404 46.1926 67.2389 46.291L69.2164 48.2707L74.443 41.424C74.5251 41.3061 74.6297 41.2065 74.7504 41.1311C74.8711 41.0558 75.0055 41.0062 75.1455 40.9853C75.2855 40.9645 75.4281 40.9728 75.5649 41.0099C75.7016 41.0469 75.8296 41.1119 75.9411 41.2008C76.0527 41.2898 76.1455 41.401 76.2139 41.5276C76.2823 41.6542 76.325 41.7937 76.3393 41.9376C76.3536 42.0816 76.3393 42.227 76.2972 42.3651C76.2551 42.5033 76.1861 42.6312 76.0944 42.7414L69.4283 51.4821Z" fill="#33CF90"/>
<path d="M35.6675 107.074L19.9922 83.5077L27.4199 78.2476L28.6124 80.0105L22.8943 84.0604L37.4004 105.866L35.6675 107.074Z" fill="#33CF90"/>
<path d="M34.0626 106.928C36.4784 106.928 38.4368 104.925 38.4368 102.454C38.4368 99.983 36.4784 97.98 34.0626 97.98C31.6469 97.98 29.6885 99.983 29.6885 102.454C29.6885 104.925 31.6469 106.928 34.0626 106.928Z" fill="white"/>
<path d="M34.0629 108.007C32.9905 108.007 31.9421 107.682 31.0505 107.072C30.1588 106.463 29.4638 105.597 29.0534 104.583C28.643 103.57 28.5356 102.455 28.7448 101.379C28.954 100.303 29.4705 99.3151 30.2288 98.5394C30.9871 97.7638 31.9533 97.2356 33.0051 97.0216C34.0569 96.8076 35.1471 96.9174 36.1379 97.3372C37.1287 97.757 37.9756 98.4678 38.5714 99.3799C39.1672 100.292 39.4852 101.364 39.4852 102.461C39.484 103.932 38.9123 105.341 37.8957 106.381C36.8791 107.421 35.5006 108.006 34.0629 108.007ZM34.0629 99.0591C33.4051 99.0591 32.762 99.2586 32.2151 99.6325C31.6681 100.006 31.2418 100.538 30.9901 101.159C30.7383 101.781 30.6724 102.465 30.8008 103.125C30.9291 103.785 31.2459 104.391 31.7111 104.867C32.1762 105.342 32.7689 105.666 33.414 105.798C34.0592 105.929 34.728 105.862 35.3357 105.604C35.9435 105.347 36.463 104.911 36.8284 104.351C37.1939 103.792 37.389 103.134 37.389 102.461C37.3896 102.014 37.304 101.571 37.1372 101.157C36.9703 100.744 36.7255 100.368 36.4166 100.052C36.1077 99.735 35.7409 99.4838 35.337 99.3122C34.9331 99.1407 34.5002 99.0523 34.0629 99.052V99.0591Z" fill="#33CF90"/>
<path d="M29.4026 85.2181L23.8281 89.1279L25.0136 90.8962L30.5881 86.9863L29.4026 85.2181Z" fill="#33CF90"/>
<path d="M5.80521 85.0823L14.3905 83.6529C14.4853 83.6441 14.5797 83.6728 14.6545 83.7329C14.7293 83.7931 14.7788 83.8802 14.7928 83.9765C14.8068 84.0727 14.7842 84.1708 14.7298 84.2506C14.6754 84.3304 14.5931 84.3859 14.5 84.4057L5.91235 85.8351C5.44651 85.9138 5.33006 85.1633 5.80521 85.0847V85.0823Z" fill="#FFBD02"/>
<path d="M9.58061 75.815L16.7405 80.1937C17.1318 80.4319 16.7731 81.1347 16.3771 80.8917L9.22657 76.513C8.83527 76.2748 9.19397 75.572 9.58992 75.815H9.58061Z" fill="#FFBD02"/>
<path d="M16.7711 71.7508C18.1849 74.2403 18.6577 75.0408 20.0715 77.5279C20.3044 77.9353 19.6942 78.4189 19.4589 78.0044C18.0451 75.5172 17.5723 74.7144 16.1585 72.2273C15.9256 71.8199 16.5358 71.3363 16.7711 71.7508Z" fill="#FFBD02"/>
<path d="M50.4229 84.2458C50.3452 84.2449 50.27 84.2182 50.2086 84.1695C50.1355 84.1116 50.0879 84.0265 50.0761 83.9327C50.0643 83.8389 50.0893 83.7442 50.1457 83.6693L58.9965 71.9507C59.053 71.8755 59.1364 71.8263 59.2284 71.814C59.3203 71.8018 59.4133 71.8273 59.4868 71.8852C59.5603 71.943 59.6084 72.0283 59.6204 72.1223C59.6324 72.2164 59.6074 72.3114 59.5508 72.3866L50.7 84.1052C50.6676 84.149 50.6257 84.1844 50.5776 84.2088C50.5295 84.2332 50.4765 84.2459 50.4229 84.2458Z" fill="#41275B"/>
<path d="M92.7154 84.5652C92.6298 84.5657 92.547 84.5344 92.4824 84.477L80.4174 73.678C80.3828 73.6467 80.3546 73.6088 80.3344 73.5663C80.3142 73.5239 80.3023 73.4778 80.2995 73.4307C80.2938 73.3355 80.3253 73.242 80.3871 73.1706C80.4489 73.0992 80.5358 73.0558 80.6289 73.05C80.7219 73.0442 80.8134 73.0764 80.8832 73.1396L92.9459 83.9458C92.9997 83.9938 93.0378 84.0575 93.0551 84.1283C93.0725 84.1992 93.0681 84.2737 93.0428 84.342C93.0174 84.4102 92.9722 84.4689 92.9132 84.5101C92.8543 84.5512 92.7844 84.573 92.713 84.5723L92.7154 84.5652Z" fill="#41275B"/>
<path d="M68.6903 90.1637C67.1437 90.1637 65.8953 89.8325 64.8797 89.1535C62.9116 87.8385 61.8844 85.0846 62.2618 82.14C62.6111 79.3908 64.0482 76.8608 66.1026 75.3743C68.3525 73.7471 71.3478 73.4041 73.7306 74.5023C76.3159 75.6935 77.9836 78.4832 77.788 81.2848C77.6762 82.8785 76.7515 84.7248 74.9813 85.0202C73.7492 85.2251 72.6522 84.5676 71.9534 83.6433C71.8106 83.891 71.6553 84.1293 71.4876 84.358C70.5699 85.6539 69.3913 86.2424 68.264 85.9708C67.8012 85.8408 67.3798 85.5893 67.0415 85.2411C66.7031 84.893 66.4598 84.4604 66.3355 83.9863C66.149 83.2502 66.1189 82.4817 66.247 81.7326C66.3844 80.6797 66.6872 79.1526 67.7516 78.052C68.816 76.9514 70.8098 76.4773 72.1328 77.6827C72.2265 77.763 72.3054 77.8598 72.3657 77.9686C72.591 78.026 72.7914 78.1581 72.9355 78.3443C73.0796 78.5305 73.1593 78.7603 73.1622 78.9978C73.1646 79.3431 73.1483 79.6882 73.1133 80.0317C73.0725 80.6505 73.1516 81.2715 73.3463 81.8589C73.5675 82.4259 74.1428 82.981 74.6436 82.8952C75.2329 82.7975 75.6405 81.9185 75.6964 81.1252C75.8268 79.2312 74.6389 77.2658 72.8688 76.4511C71.1475 75.6578 68.9651 75.9198 67.3091 77.1181C65.7252 78.264 64.6142 80.2437 64.337 82.4116C64.1041 84.1578 64.549 86.3639 66.0257 87.3525C66.806 87.8766 67.889 88.0863 69.3261 87.991C70.3766 87.9243 72.913 87.5622 73.8424 85.6801C73.8966 85.5423 73.9782 85.4176 74.0821 85.3137C74.1859 85.2099 74.3098 85.1293 74.4457 85.077C74.5816 85.0247 74.7267 85.0019 74.8717 85.01C75.0167 85.018 75.1585 85.0569 75.2881 85.124C75.4177 85.191 75.5322 85.285 75.6244 85.3997C75.7166 85.5145 75.7845 85.6476 75.8238 85.7906C75.863 85.9336 75.8728 86.0834 75.8525 86.2305C75.8322 86.3775 75.7822 86.5187 75.7057 86.645C74.7111 88.6676 72.4309 89.9373 69.4542 90.1327C69.198 90.1565 68.9395 90.1637 68.6903 90.1637ZM70.2508 79.124C69.8739 79.1355 69.5155 79.2941 69.2493 79.5671C68.7834 80.0555 68.4853 80.8345 68.3316 82.0209C68.25 82.4688 68.2563 82.9287 68.3502 83.3741C68.3735 83.4854 68.4215 83.5897 68.4906 83.6789C68.5597 83.7682 68.6479 83.8399 68.7485 83.8886C68.9954 83.9482 69.4356 83.6194 69.7966 83.1072C70.4643 82.1589 70.8844 81.0519 71.0171 79.8911C71.0171 79.7506 71.0171 79.6124 71.0334 79.4766C70.9279 79.4311 70.8304 79.3683 70.7446 79.2908C70.6059 79.1744 70.4299 79.115 70.2508 79.124Z" fill="#41275B"/>
<path d="M121.571 79.7361C121.55 79.7384 121.528 79.7384 121.506 79.7361C121.461 79.7275 121.418 79.7099 121.38 79.6843C121.341 79.6587 121.308 79.6256 121.282 79.5868C121.256 79.5481 121.238 79.5046 121.228 79.4586C121.219 79.4127 121.218 79.3653 121.227 79.3192L122.606 71.934C122.611 71.8853 122.627 71.8384 122.651 71.7961C122.675 71.7538 122.707 71.717 122.746 71.6881C122.785 71.6592 122.829 71.6387 122.876 71.6279C122.922 71.6171 122.971 71.6163 123.018 71.6255C123.065 71.6346 123.11 71.6536 123.149 71.6812C123.189 71.7088 123.222 71.7444 123.248 71.7859C123.273 71.8273 123.29 71.8737 123.298 71.9221C123.305 71.9706 123.302 72.02 123.29 72.0674L121.914 79.4526C121.897 79.5326 121.854 79.6044 121.791 79.6559C121.729 79.7075 121.651 79.7358 121.571 79.7361Z" fill="white"/>
<path d="M125.997 76.7987C125.973 76.801 125.949 76.801 125.925 76.7987L118.698 75.2335C118.607 75.2139 118.527 75.1582 118.477 75.0787C118.426 74.9992 118.408 74.9023 118.427 74.8094C118.447 74.7166 118.501 74.6353 118.579 74.5834C118.657 74.5316 118.751 74.5135 118.842 74.5331L126.067 76.084C126.112 76.0936 126.155 76.1122 126.193 76.1388C126.231 76.1653 126.263 76.1993 126.288 76.2387C126.313 76.278 126.331 76.3221 126.339 76.3683C126.347 76.4146 126.347 76.462 126.337 76.508C126.323 76.5894 126.281 76.663 126.219 76.7161C126.156 76.7692 126.078 76.7984 125.997 76.7987Z" fill="white"/>
<path d="M124.676 80.1936C124.616 80.1937 124.556 80.1778 124.503 80.1473C124.451 80.1168 124.407 80.0728 124.376 80.0197L119.974 72.4654C119.928 72.384 119.916 72.2876 119.939 72.1971C119.963 72.1065 120.02 72.0289 120.099 71.9811C120.178 71.9333 120.272 71.9191 120.361 71.9415C120.45 71.9639 120.526 72.0212 120.574 72.1009L124.986 79.6576C125.018 79.7117 125.035 79.7734 125.035 79.8365C125.036 79.8995 125.021 79.9617 124.99 80.0166C124.96 80.0715 124.916 80.1172 124.863 80.1492C124.81 80.1811 124.749 80.1981 124.688 80.1984L124.676 80.1936Z" fill="white"/>
<path d="M118.679 78.4186C118.603 78.4189 118.53 78.3942 118.469 78.3481C118.409 78.3021 118.364 78.2371 118.343 78.1631C118.321 78.089 118.324 78.0098 118.35 77.9373C118.376 77.8649 118.424 77.803 118.488 77.7611L125.685 72.9584C125.763 72.9066 125.858 72.8885 125.948 72.9081C126.039 72.9278 126.119 72.9836 126.17 73.0632C126.22 73.1428 126.238 73.2397 126.219 73.3327C126.199 73.4256 126.145 73.5069 126.067 73.5587L118.863 78.3591C118.809 78.3971 118.745 78.4178 118.679 78.4186Z" fill="white"/>
<path d="M109.041 76.6297H108.976C108.931 76.6211 108.888 76.6035 108.85 76.5778C108.811 76.5522 108.778 76.519 108.752 76.4803C108.727 76.4415 108.709 76.3979 108.699 76.352C108.69 76.3061 108.69 76.2588 108.699 76.2128L110.075 68.8276C110.084 68.7814 110.101 68.7375 110.126 68.6982C110.152 68.6589 110.184 68.6251 110.222 68.5986C110.26 68.5722 110.303 68.5537 110.348 68.5441C110.393 68.5346 110.439 68.5341 110.484 68.5429C110.529 68.5517 110.572 68.5694 110.611 68.5952C110.649 68.6209 110.682 68.6542 110.708 68.693C110.734 68.7318 110.752 68.7755 110.761 68.8214C110.771 68.8674 110.771 68.9148 110.762 68.961L109.386 76.3462C109.369 76.4266 109.325 76.4987 109.263 76.5503C109.2 76.6019 109.122 76.6299 109.041 76.6297Z" fill="white"/>
<path d="M113.466 73.685H113.394L106.158 72.1341C106.067 72.1149 105.987 72.0595 105.936 71.9802C105.885 71.9009 105.867 71.8041 105.886 71.7113C105.905 71.6184 105.959 71.537 106.037 71.4849C106.114 71.4329 106.209 71.4145 106.3 71.4337L113.539 72.987C113.631 72.9968 113.716 73.0438 113.775 73.1178C113.834 73.1917 113.862 73.2865 113.852 73.3813C113.842 73.476 113.796 73.563 113.724 73.6231C113.652 73.6832 113.559 73.7115 113.466 73.7017V73.685Z" fill="white"/>
<path d="M112.145 77.0869C112.085 77.087 112.025 77.0711 111.973 77.0406C111.92 77.0101 111.876 76.9661 111.845 76.913L107.445 69.3587C107.419 69.3184 107.4 69.2731 107.392 69.2255C107.383 69.1779 107.384 69.1289 107.394 69.0816C107.405 69.0343 107.424 68.9897 107.452 68.9504C107.48 68.9111 107.515 68.878 107.556 68.8531C107.596 68.8282 107.641 68.812 107.688 68.8055C107.735 68.799 107.783 68.8023 107.829 68.8153C107.874 68.8283 107.917 68.8506 107.954 68.881C107.991 68.9113 108.021 68.949 108.044 68.9918L112.446 76.5461C112.493 76.6277 112.506 76.7251 112.484 76.817C112.461 76.9089 112.404 76.9879 112.325 77.0369C112.27 77.0694 112.208 77.0866 112.145 77.0869Z" fill="white"/>
<path d="M106.148 75.3099C106.073 75.3095 106 75.2844 105.941 75.2385C105.881 75.1925 105.837 75.1281 105.815 75.0547C105.794 74.9813 105.796 74.9028 105.822 74.8308C105.847 74.7588 105.895 74.6971 105.957 74.6548L113.161 69.852C113.239 69.8081 113.329 69.7959 113.415 69.8177C113.501 69.8396 113.576 69.894 113.624 69.9699C113.672 70.0458 113.69 70.1375 113.675 70.2266C113.659 70.3158 113.611 70.3956 113.541 70.45L106.339 75.2528C106.282 75.291 106.216 75.3109 106.148 75.3099Z" fill="white"/>
</g>
<defs>
<clipPath id="clip0_2303_47833">
<rect width="130" height="96" fill="white" transform="translate(5.5 12)"/>
</clipPath>
</defs>
</svg>
