<svg width="124" height="24" viewBox="0 0 124 24" fill="none" xmlns="http://www.w3.org/2000/svg">
<path d="M26.88 9C26.8267 9 26.784 8.984 26.752 8.952C26.72 8.91467 26.704 8.86933 26.704 8.816V3.592C26.704 3.53333 26.72 3.488 26.752 3.456C26.784 3.41867 26.8267 3.4 26.88 3.4H30.168C30.2267 3.4 30.272 3.41867 30.304 3.456C30.3413 3.488 30.36 3.53333 30.36 3.592V3.88C30.36 3.93333 30.3413 3.976 30.304 4.008C30.272 4.04 30.2267 4.056 30.168 4.056H27.44V5.84H29.992C30.0507 5.84 30.096 5.85867 30.128 5.896C30.1653 5.928 30.184 5.97333 30.184 6.032V6.304C30.184 6.35733 30.1653 6.40267 30.128 6.44C30.096 6.472 30.0507 6.488 29.992 6.488H27.44V8.336H30.232C30.2907 8.336 30.336 8.35467 30.368 8.392C30.4053 8.424 30.424 8.46933 30.424 8.528V8.816C30.424 8.86933 30.4053 8.91467 30.368 8.952C30.3307 8.984 30.2853 9 30.232 9H26.88ZM32.7238 9C32.6704 9 32.6278 8.984 32.5958 8.952C32.5638 8.91467 32.5478 8.86933 32.5478 8.816V3.592C32.5478 3.53333 32.5638 3.488 32.5958 3.456C32.6278 3.41867 32.6704 3.4 32.7238 3.4H33.0758C33.1291 3.4 33.1691 3.41067 33.1958 3.432C33.2224 3.45333 33.2491 3.48 33.2758 3.512L35.9557 7.64V3.592C35.9557 3.53333 35.9718 3.488 36.0038 3.456C36.0411 3.41867 36.0864 3.4 36.1398 3.4H36.4998C36.5584 3.4 36.6038 3.41867 36.6358 3.456C36.6731 3.488 36.6918 3.53333 36.6918 3.592V8.808C36.6918 8.86133 36.6731 8.90667 36.6358 8.944C36.6038 8.98133 36.5611 9 36.5078 9H36.1478C36.0571 9 35.9931 8.96267 35.9557 8.888L33.2758 4.8V8.816C33.2758 8.86933 33.2571 8.91467 33.2198 8.952C33.1878 8.984 33.1451 9 33.0918 9H32.7238ZM41.0946 9.08C40.3853 9.08 39.844 8.888 39.4706 8.504C39.1026 8.11467 38.9053 7.584 38.8786 6.912C38.8733 6.768 38.8706 6.53333 38.8706 6.208C38.8706 5.87733 38.8733 5.63733 38.8786 5.488C38.9053 4.816 39.1026 4.288 39.4706 3.904C39.844 3.51467 40.3853 3.32 41.0946 3.32C41.5693 3.32 41.972 3.40533 42.3026 3.576C42.6333 3.74133 42.8813 3.96 43.0466 4.232C43.2173 4.504 43.3106 4.79467 43.3266 5.104C43.3266 5.152 43.308 5.192 43.2706 5.224C43.2386 5.25067 43.1986 5.264 43.1506 5.264H42.7506C42.6973 5.264 42.6546 5.25067 42.6226 5.224C42.5906 5.19733 42.5666 5.152 42.5506 5.088C42.46 4.67733 42.2946 4.38933 42.0546 4.224C41.82 4.05867 41.5 3.976 41.0946 3.976C40.1666 3.976 39.684 4.49333 39.6466 5.528C39.6413 5.672 39.6386 5.89333 39.6386 6.192C39.6386 6.49067 39.6413 6.71733 39.6466 6.872C39.684 7.90133 40.1666 8.416 41.0946 8.416C41.4946 8.416 41.8146 8.33333 42.0546 8.168C42.2946 8.00267 42.46 7.71733 42.5506 7.312C42.5666 7.248 42.5906 7.20267 42.6226 7.176C42.6546 7.14933 42.6973 7.136 42.7506 7.136H43.1506C43.1986 7.136 43.2386 7.152 43.2706 7.184C43.308 7.21067 43.3266 7.248 43.3266 7.296C43.3106 7.60533 43.2173 7.896 43.0466 8.168C42.8813 8.44 42.6333 8.66133 42.3026 8.832C41.972 8.99733 41.5693 9.08 41.0946 9.08ZM45.5909 9C45.5376 9 45.4949 8.984 45.4629 8.952C45.4309 8.91467 45.4149 8.86933 45.4149 8.816V3.592C45.4149 3.53333 45.4309 3.488 45.4629 3.456C45.4949 3.41867 45.5376 3.4 45.5909 3.4H47.5429C48.1509 3.4 48.6256 3.544 48.9669 3.832C49.3136 4.11467 49.4869 4.528 49.4869 5.072C49.4869 5.47733 49.3856 5.81067 49.1829 6.072C48.9803 6.33333 48.6976 6.51467 48.3349 6.616L49.5669 8.752C49.5829 8.784 49.5909 8.81333 49.5909 8.84C49.5909 8.88267 49.5749 8.92 49.5429 8.952C49.5109 8.984 49.4736 9 49.4309 9H49.0789C48.9989 9 48.9349 8.98133 48.8869 8.944C48.8443 8.90667 48.8043 8.85333 48.7669 8.784L47.5909 6.736H46.1669V8.816C46.1669 8.86933 46.1483 8.91467 46.1109 8.952C46.0736 8.984 46.0283 9 45.9749 9H45.5909ZM47.5109 6.08C48.3163 6.08 48.7189 5.74133 48.7189 5.064C48.7189 4.38667 48.3163 4.048 47.5109 4.048H46.1669V6.08H47.5109ZM53.134 9C53.0807 9 53.0353 8.984 52.998 8.952C52.966 8.91467 52.95 8.86933 52.95 8.816V6.92L51.022 3.664C51.006 3.632 50.998 3.59733 50.998 3.56C50.998 3.51733 51.014 3.48 51.046 3.448C51.078 3.416 51.1153 3.4 51.158 3.4H51.542C51.638 3.4 51.7073 3.44533 51.75 3.536L53.334 6.152L54.91 3.536C54.9633 3.44533 55.0327 3.4 55.118 3.4H55.502C55.5447 3.4 55.582 3.416 55.614 3.448C55.6513 3.48 55.67 3.51733 55.67 3.56C55.67 3.58667 55.6593 3.62133 55.638 3.664L53.71 6.92V8.816C53.71 8.86933 53.6913 8.91467 53.654 8.952C53.622 8.984 53.5767 9 53.518 9H53.134ZM57.7863 9C57.7329 9 57.6903 8.984 57.6583 8.952C57.6263 8.91467 57.6103 8.86933 57.6103 8.816V3.592C57.6103 3.53333 57.6263 3.488 57.6583 3.456C57.6903 3.41867 57.7329 3.4 57.7863 3.4H59.8103C60.4129 3.4 60.8849 3.54667 61.2263 3.84C61.5729 4.128 61.7463 4.54933 61.7463 5.104C61.7463 5.65867 61.5729 6.08 61.2263 6.368C60.8849 6.656 60.4129 6.8 59.8103 6.8H58.3703V8.816C58.3703 8.86933 58.3516 8.91467 58.3143 8.952C58.2823 8.984 58.2396 9 58.1863 9H57.7863ZM59.7703 6.152C60.5756 6.152 60.9783 5.80267 60.9783 5.104C60.9783 4.76267 60.8769 4.50133 60.6743 4.32C60.4769 4.13867 60.1756 4.048 59.7703 4.048H58.3703V6.152H59.7703ZM65.1432 9C65.0899 9 65.0446 8.984 65.0073 8.952C64.9753 8.91467 64.9593 8.86933 64.9593 8.816V4.088H63.4153C63.3619 4.088 63.3166 4.072 63.2793 4.04C63.2473 4.00267 63.2313 3.95733 63.2313 3.904V3.592C63.2313 3.53333 63.2473 3.488 63.2793 3.456C63.3166 3.41867 63.3619 3.4 63.4153 3.4H67.2552C67.3139 3.4 67.3593 3.41867 67.3913 3.456C67.4233 3.488 67.4392 3.53333 67.4392 3.592V3.904C67.4392 3.95733 67.4206 4.00267 67.3833 4.04C67.3513 4.072 67.3086 4.088 67.2552 4.088H65.7193V8.816C65.7193 8.86933 65.7006 8.91467 65.6633 8.952C65.6259 8.984 65.5806 9 65.5273 9H65.1432ZM69.5284 9C69.4751 9 69.4324 8.984 69.4004 8.952C69.3684 8.91467 69.3524 8.86933 69.3524 8.816V3.584C69.3524 3.53067 69.3684 3.488 69.4004 3.456C69.4324 3.41867 69.4751 3.4 69.5284 3.4H69.9284C69.9871 3.4 70.0324 3.416 70.0644 3.448C70.0964 3.48 70.1124 3.52533 70.1124 3.584V8.816C70.1124 8.86933 70.0938 8.91467 70.0564 8.952C70.0244 8.984 69.9818 9 69.9284 9H69.5284ZM74.5243 9.08C73.831 9.08 73.295 8.89867 72.9163 8.536C72.5376 8.168 72.3376 7.616 72.3163 6.88C72.311 6.72 72.3083 6.49333 72.3083 6.2C72.3083 5.90667 72.311 5.68267 72.3163 5.528C72.3376 4.80267 72.543 4.25333 72.9323 3.88C73.327 3.50667 73.8576 3.32 74.5243 3.32C75.191 3.32 75.719 3.50667 76.1083 3.88C76.4976 4.25333 76.703 4.80267 76.7243 5.528C76.735 5.83733 76.7403 6.06133 76.7403 6.2C76.7403 6.33333 76.735 6.56 76.7243 6.88C76.703 7.616 76.503 8.168 76.1243 8.536C75.751 8.89867 75.2176 9.08 74.5243 9.08ZM74.5243 8.416C74.951 8.416 75.2923 8.288 75.5483 8.032C75.8043 7.77067 75.943 7.37333 75.9643 6.84C75.975 6.52 75.9803 6.30667 75.9803 6.2C75.9803 6.08267 75.975 5.86933 75.9643 5.56C75.943 5.02667 75.8043 4.62933 75.5483 4.368C75.2923 4.10667 74.951 3.976 74.5243 3.976C74.0976 3.976 73.7536 4.10667 73.4923 4.368C73.2363 4.62933 73.1003 5.02667 73.0843 5.56C73.079 5.71467 73.0763 5.928 73.0763 6.2C73.0763 6.46667 73.079 6.68 73.0843 6.84C73.1003 7.37333 73.2363 7.77067 73.4923 8.032C73.7483 8.288 74.0923 8.416 74.5243 8.416ZM79.0988 9C79.0454 9 79.0028 8.984 78.9708 8.952C78.9388 8.91467 78.9228 8.86933 78.9228 8.816V3.592C78.9228 3.53333 78.9388 3.488 78.9708 3.456C79.0028 3.41867 79.0454 3.4 79.0988 3.4H79.4508C79.5041 3.4 79.5441 3.41067 79.5708 3.432C79.5974 3.45333 79.6241 3.48 79.6508 3.512L82.3307 7.64V3.592C82.3307 3.53333 82.3468 3.488 82.3788 3.456C82.4161 3.41867 82.4614 3.4 82.5148 3.4H82.8748C82.9334 3.4 82.9788 3.41867 83.0108 3.456C83.0481 3.488 83.0668 3.53333 83.0668 3.592V8.808C83.0668 8.86133 83.0481 8.90667 83.0108 8.944C82.9788 8.98133 82.9361 9 82.8828 9H82.5228C82.4321 9 82.3681 8.96267 82.3307 8.888L79.6508 4.8V8.816C79.6508 8.86933 79.6321 8.91467 79.5948 8.952C79.5628 8.984 79.5201 9 79.4668 9H79.0988ZM26.66 21C26.5933 21 26.5333 20.9767 26.48 20.93C26.4333 20.8767 26.41 20.8167 26.41 20.75V20C26.41 19.8 26.4933 19.6333 26.66 19.5L27.59 18.59C28.2233 18.11 28.7 17.7367 29.02 17.47C29.3467 17.2033 29.5933 16.9633 29.76 16.75C29.9333 16.53 30.02 16.3233 30.02 16.13C30.02 15.6367 29.7733 15.39 29.28 15.39C29.02 15.39 28.82 15.47 28.68 15.63C28.54 15.7833 28.4467 15.9767 28.4 16.21C28.36 16.3633 28.2467 16.44 28.06 16.44H26.74C26.68 16.44 26.6267 16.42 26.58 16.38C26.54 16.3333 26.52 16.2833 26.52 16.23C26.5333 15.79 26.6533 15.3933 26.88 15.04C27.1133 14.68 27.4367 14.3967 27.85 14.19C28.2633 13.9767 28.74 13.87 29.28 13.87C29.84 13.87 30.3233 13.96 30.73 14.14C31.1367 14.32 31.4433 14.5733 31.65 14.9C31.8633 15.2267 31.97 15.6067 31.97 16.04C31.97 16.52 31.82 16.9533 31.52 17.34C31.2267 17.7267 30.7767 18.1467 30.17 18.6L29.34 19.43H31.87C31.9433 19.43 32.0033 19.4533 32.05 19.5C32.0967 19.5467 32.12 19.6067 32.12 19.68V20.75C32.12 20.8167 32.0967 20.8767 32.05 20.93C32.0033 20.9767 31.9433 21 31.87 21H26.66ZM36.7925 21.11C36.1858 21.11 35.6625 21.0133 35.2225 20.82C34.7892 20.6267 34.4592 20.37 34.2325 20.05C34.0125 19.73 33.8958 19.38 33.8825 19C33.8825 18.94 33.9025 18.89 33.9425 18.85C33.9825 18.81 34.0325 18.79 34.0925 18.79H35.5025C35.6625 18.79 35.7725 18.8533 35.8325 18.98C35.9258 19.2 36.0492 19.36 36.2025 19.46C36.3625 19.56 36.5592 19.61 36.7925 19.61C37.0792 19.61 37.3158 19.5233 37.5025 19.35C37.6958 19.1767 37.7925 18.9333 37.7925 18.62C37.7925 18.3467 37.6992 18.12 37.5125 17.94C37.3258 17.76 37.0858 17.67 36.7925 17.67C36.6258 17.67 36.4925 17.6933 36.3925 17.74C36.2925 17.78 36.1958 17.8367 36.1025 17.91C36.0025 17.99 35.9158 18.03 35.8425 18.03H34.4525C34.3925 18.03 34.3392 18.01 34.2925 17.97C34.2525 17.9233 34.2325 17.87 34.2325 17.81L34.6025 14.3C34.6092 14.2067 34.6425 14.1333 34.7025 14.08C34.7692 14.0267 34.8458 14 34.9325 14H39.0025C39.0758 14 39.1358 14.0233 39.1825 14.07C39.2292 14.1167 39.2525 14.1767 39.2525 14.25V15.25C39.2525 15.3167 39.2292 15.3767 39.1825 15.43C39.1358 15.4767 39.0758 15.5 39.0025 15.5H36.0925L35.9725 16.73C36.1325 16.6167 36.3125 16.5333 36.5125 16.48C36.7125 16.42 36.9725 16.39 37.2925 16.39C37.7192 16.39 38.1192 16.4867 38.4925 16.68C38.8658 16.8667 39.1625 17.1333 39.3825 17.48C39.6092 17.8267 39.7225 18.2233 39.7225 18.67C39.7225 19.1367 39.6058 19.5567 39.3725 19.93C39.1392 20.2967 38.7992 20.5867 38.3525 20.8C37.9125 21.0067 37.3925 21.11 36.7925 21.11ZM44.4062 21.1C43.8128 21.1 43.2895 20.9967 42.8362 20.79C42.3828 20.5767 42.0295 20.28 41.7762 19.9C41.5228 19.52 41.3962 19.0833 41.3962 18.59C41.3962 18.0167 41.6795 17.3333 42.2462 16.54L43.9962 14.2C44.0895 14.0667 44.2095 14 44.3562 14H45.7562C45.8162 14 45.8662 14.0233 45.9062 14.07C45.9528 14.11 45.9762 14.16 45.9762 14.22C45.9762 14.2533 45.9595 14.2967 45.9262 14.35L44.5862 16.17C44.6662 16.15 44.7595 16.14 44.8662 16.14C45.2728 16.16 45.6662 16.2733 46.0462 16.48C46.4328 16.6867 46.7462 16.97 46.9862 17.33C47.2328 17.6833 47.3562 18.09 47.3562 18.55C47.3562 19.0167 47.2328 19.4467 46.9862 19.84C46.7395 20.2267 46.3928 20.5333 45.9462 20.76C45.4995 20.9867 44.9862 21.1 44.4062 21.1ZM44.3862 19.6C44.6795 19.6 44.9295 19.51 45.1362 19.33C45.3428 19.1433 45.4462 18.8933 45.4462 18.58C45.4462 18.26 45.3428 18.01 45.1362 17.83C44.9362 17.65 44.6862 17.56 44.3862 17.56C44.0862 17.56 43.8328 17.65 43.6262 17.83C43.4262 18.01 43.3262 18.26 43.3262 18.58C43.3262 18.9 43.4262 19.15 43.6262 19.33C43.8328 19.51 44.0862 19.6 44.3862 19.6ZM55.0585 21.1C54.4118 21.1 53.8618 21.0067 53.4085 20.82C52.9552 20.6333 52.6118 20.3867 52.3785 20.08C52.1452 19.7733 52.0218 19.44 52.0085 19.08C52.0085 19.02 52.0285 18.97 52.0685 18.93C52.1152 18.89 52.1685 18.87 52.2285 18.87H53.5585C53.6385 18.87 53.7018 18.8833 53.7485 18.91C53.8018 18.9367 53.8585 18.9833 53.9185 19.05C54.0052 19.21 54.1385 19.3433 54.3185 19.45C54.5052 19.55 54.7518 19.6 55.0585 19.6C55.4185 19.6 55.6952 19.5467 55.8885 19.44C56.0818 19.3267 56.1785 19.1733 56.1785 18.98C56.1785 18.84 56.1285 18.7267 56.0285 18.64C55.9285 18.5467 55.7685 18.4667 55.5485 18.4C55.3285 18.3267 55.0118 18.2467 54.5985 18.16C53.7918 18 53.1885 17.7567 52.7885 17.43C52.3885 17.1033 52.1885 16.6367 52.1885 16.03C52.1885 15.6167 52.3018 15.25 52.5285 14.93C52.7618 14.6033 53.0885 14.35 53.5085 14.17C53.9352 13.99 54.4285 13.9 54.9885 13.9C55.5752 13.9 56.0818 14.0033 56.5085 14.21C56.9418 14.41 57.2718 14.6633 57.4985 14.97C57.7318 15.27 57.8552 15.5667 57.8685 15.86C57.8685 15.92 57.8485 15.9733 57.8085 16.02C57.7685 16.06 57.7185 16.08 57.6585 16.08H56.2585C56.1118 16.08 55.9985 16.02 55.9185 15.9C55.8785 15.76 55.7752 15.6433 55.6085 15.55C55.4418 15.45 55.2352 15.4 54.9885 15.4C54.7085 15.4 54.4918 15.45 54.3385 15.55C54.1852 15.65 54.1085 15.7967 54.1085 15.99C54.1085 16.1833 54.2085 16.3367 54.4085 16.45C54.6085 16.5567 54.9818 16.6667 55.5285 16.78C56.1552 16.8933 56.6518 17.0367 57.0185 17.21C57.3918 17.3767 57.6652 17.5967 57.8385 17.87C58.0185 18.1367 58.1085 18.4767 58.1085 18.89C58.1085 19.3433 57.9785 19.7367 57.7185 20.07C57.4585 20.4033 57.0985 20.66 56.6385 20.84C56.1785 21.0133 55.6518 21.1 55.0585 21.1ZM62.7187 21.1C62.072 21.1 61.522 21.0067 61.0687 20.82C60.6153 20.6333 60.272 20.3867 60.0387 20.08C59.8053 19.7733 59.682 19.44 59.6687 19.08C59.6687 19.02 59.6887 18.97 59.7287 18.93C59.7753 18.89 59.8287 18.87 59.8887 18.87H61.2187C61.2987 18.87 61.362 18.8833 61.4087 18.91C61.462 18.9367 61.5187 18.9833 61.5787 19.05C61.6653 19.21 61.7987 19.3433 61.9787 19.45C62.1653 19.55 62.412 19.6 62.7187 19.6C63.0787 19.6 63.3553 19.5467 63.5487 19.44C63.742 19.3267 63.8387 19.1733 63.8387 18.98C63.8387 18.84 63.7887 18.7267 63.6887 18.64C63.5887 18.5467 63.4287 18.4667 63.2087 18.4C62.9887 18.3267 62.672 18.2467 62.2587 18.16C61.452 18 60.8487 17.7567 60.4487 17.43C60.0487 17.1033 59.8487 16.6367 59.8487 16.03C59.8487 15.6167 59.962 15.25 60.1887 14.93C60.422 14.6033 60.7487 14.35 61.1687 14.17C61.5953 13.99 62.0887 13.9 62.6487 13.9C63.2353 13.9 63.742 14.0033 64.1687 14.21C64.602 14.41 64.932 14.6633 65.1587 14.97C65.392 15.27 65.5153 15.5667 65.5287 15.86C65.5287 15.92 65.5087 15.9733 65.4687 16.02C65.4287 16.06 65.3787 16.08 65.3187 16.08H63.9187C63.772 16.08 63.6587 16.02 63.5787 15.9C63.5387 15.76 63.4353 15.6433 63.2687 15.55C63.102 15.45 62.8953 15.4 62.6487 15.4C62.3687 15.4 62.152 15.45 61.9987 15.55C61.8453 15.65 61.7687 15.7967 61.7687 15.99C61.7687 16.1833 61.8687 16.3367 62.0687 16.45C62.2687 16.5567 62.642 16.6667 63.1887 16.78C63.8153 16.8933 64.312 17.0367 64.6787 17.21C65.052 17.3767 65.3253 17.5967 65.4987 17.87C65.6787 18.1367 65.7687 18.4767 65.7687 18.89C65.7687 19.3433 65.6387 19.7367 65.3787 20.07C65.1187 20.4033 64.7587 20.66 64.2987 20.84C63.8387 21.0133 63.312 21.1 62.7187 21.1ZM67.9788 21C67.9122 21 67.8522 20.9767 67.7988 20.93C67.7522 20.8767 67.7288 20.8167 67.7288 20.75V14.25C67.7288 14.1767 67.7522 14.1167 67.7988 14.07C67.8522 14.0233 67.9122 14 67.9788 14H69.3788C69.4522 14 69.5122 14.0233 69.5588 14.07C69.6055 14.1167 69.6288 14.1767 69.6288 14.25V19.43H72.6288C72.7022 19.43 72.7622 19.4567 72.8088 19.51C72.8622 19.5567 72.8888 19.6167 72.8888 19.69V20.75C72.8888 20.8233 72.8622 20.8833 72.8088 20.93C72.7622 20.9767 72.7022 21 72.6288 21H67.9788ZM80.2402 21.1C79.5935 21.1 79.0435 21.0067 78.5902 20.82C78.1368 20.6333 77.7935 20.3867 77.5602 20.08C77.3268 19.7733 77.2035 19.44 77.1902 19.08C77.1902 19.02 77.2102 18.97 77.2502 18.93C77.2968 18.89 77.3502 18.87 77.4102 18.87H78.7402C78.8202 18.87 78.8835 18.8833 78.9302 18.91C78.9835 18.9367 79.0402 18.9833 79.1002 19.05C79.1868 19.21 79.3202 19.3433 79.5002 19.45C79.6868 19.55 79.9335 19.6 80.2402 19.6C80.6002 19.6 80.8768 19.5467 81.0702 19.44C81.2635 19.3267 81.3602 19.1733 81.3602 18.98C81.3602 18.84 81.3102 18.7267 81.2102 18.64C81.1102 18.5467 80.9502 18.4667 80.7302 18.4C80.5102 18.3267 80.1935 18.2467 79.7802 18.16C78.9735 18 78.3702 17.7567 77.9702 17.43C77.5702 17.1033 77.3702 16.6367 77.3702 16.03C77.3702 15.6167 77.4835 15.25 77.7102 14.93C77.9435 14.6033 78.2702 14.35 78.6902 14.17C79.1168 13.99 79.6102 13.9 80.1702 13.9C80.7568 13.9 81.2635 14.0033 81.6902 14.21C82.1235 14.41 82.4535 14.6633 82.6802 14.97C82.9135 15.27 83.0368 15.5667 83.0502 15.86C83.0502 15.92 83.0302 15.9733 82.9902 16.02C82.9502 16.06 82.9002 16.08 82.8402 16.08H81.4402C81.2935 16.08 81.1802 16.02 81.1002 15.9C81.0602 15.76 80.9568 15.6433 80.7902 15.55C80.6235 15.45 80.4168 15.4 80.1702 15.4C79.8902 15.4 79.6735 15.45 79.5202 15.55C79.3668 15.65 79.2902 15.7967 79.2902 15.99C79.2902 16.1833 79.3902 16.3367 79.5902 16.45C79.7902 16.5567 80.1635 16.6667 80.7102 16.78C81.3368 16.8933 81.8335 17.0367 82.2002 17.21C82.5735 17.3767 82.8468 17.5967 83.0202 17.87C83.2002 18.1367 83.2902 18.4767 83.2902 18.89C83.2902 19.3433 83.1602 19.7367 82.9002 20.07C82.6402 20.4033 82.2802 20.66 81.8202 20.84C81.3602 21.0133 80.8335 21.1 80.2402 21.1ZM85.5003 21C85.4336 21 85.3736 20.9767 85.3203 20.93C85.2736 20.8767 85.2503 20.8167 85.2503 20.75V14.26C85.2503 14.1867 85.2736 14.1267 85.3203 14.08C85.367 14.0267 85.427 14 85.5003 14H90.2203C90.2936 14 90.3536 14.0267 90.4003 14.08C90.4536 14.1267 90.4803 14.1867 90.4803 14.26V15.25C90.4803 15.3233 90.4536 15.3833 90.4003 15.43C90.3536 15.4767 90.2936 15.5 90.2203 15.5H87.0603V16.77H90.0003C90.0736 16.77 90.1336 16.7967 90.1803 16.85C90.2336 16.8967 90.2603 16.9567 90.2603 17.03V17.94C90.2603 18.0133 90.2336 18.0767 90.1803 18.13C90.1336 18.1767 90.0736 18.2 90.0003 18.2H87.0603V19.5H90.3003C90.3736 19.5 90.4336 19.5267 90.4803 19.58C90.5336 19.6267 90.5603 19.6867 90.5603 19.76V20.75C90.5603 20.8233 90.5336 20.8833 90.4803 20.93C90.4336 20.9767 90.3736 21 90.3003 21H85.5003ZM95.5077 21.1C94.5544 21.1 93.8044 20.87 93.2577 20.41C92.7177 19.95 92.4311 19.2767 92.3977 18.39C92.3911 18.21 92.3877 17.9167 92.3877 17.51C92.3877 17.0967 92.3911 16.7967 92.3977 16.61C92.4311 15.7433 92.7211 15.0767 93.2677 14.61C93.8211 14.1367 94.5677 13.9 95.5077 13.9C96.1011 13.9 96.6311 13.9967 97.0977 14.19C97.5711 14.3833 97.9444 14.6633 98.2177 15.03C98.4911 15.3967 98.6344 15.83 98.6477 16.33C98.6477 16.39 98.6244 16.44 98.5777 16.48C98.5377 16.52 98.4877 16.54 98.4277 16.54H97.0077C96.9144 16.54 96.8444 16.5233 96.7977 16.49C96.7577 16.45 96.7211 16.38 96.6877 16.28C96.5944 15.9533 96.4511 15.7267 96.2577 15.6C96.0711 15.4667 95.8211 15.4 95.5077 15.4C94.7544 15.4 94.3644 15.82 94.3377 16.66C94.3311 16.84 94.3277 17.1167 94.3277 17.49C94.3277 17.8633 94.3311 18.1467 94.3377 18.34C94.3644 19.18 94.7544 19.6 95.5077 19.6C95.8144 19.6 96.0644 19.5333 96.2577 19.4C96.4577 19.2667 96.6011 19.04 96.6877 18.72C96.7144 18.62 96.7511 18.5533 96.7977 18.52C96.8444 18.48 96.9144 18.46 97.0077 18.46H98.4277C98.4877 18.46 98.5377 18.48 98.5777 18.52C98.6244 18.56 98.6477 18.61 98.6477 18.67C98.6344 19.17 98.4911 19.6033 98.2177 19.97C97.9444 20.3367 97.5711 20.6167 97.0977 20.81C96.6311 21.0033 96.1011 21.1 95.5077 21.1ZM103.638 21.1C102.692 21.1 101.948 20.87 101.408 20.41C100.875 19.95 100.608 19.26 100.608 18.34V14.26C100.608 14.1867 100.632 14.1267 100.678 14.08C100.725 14.0267 100.785 14 100.858 14H102.228C102.302 14 102.362 14.0267 102.408 14.08C102.462 14.1267 102.488 14.1867 102.488 14.26V18.32C102.488 18.7333 102.585 19.0433 102.778 19.25C102.978 19.4567 103.262 19.56 103.628 19.56C103.995 19.56 104.275 19.4567 104.468 19.25C104.668 19.0367 104.768 18.7267 104.768 18.32V14.26C104.768 14.1867 104.792 14.1267 104.838 14.08C104.892 14.0267 104.955 14 105.028 14H106.388C106.462 14 106.522 14.0267 106.568 14.08C106.622 14.1267 106.648 14.1867 106.648 14.26V18.34C106.648 19.26 106.382 19.95 105.848 20.41C105.315 20.87 104.578 21.1 103.638 21.1ZM109.194 21C109.127 21 109.067 20.9767 109.014 20.93C108.967 20.8767 108.944 20.8167 108.944 20.75V14.26C108.944 14.1867 108.967 14.1267 109.014 14.08C109.06 14.0267 109.12 14 109.194 14H111.944C112.824 14 113.51 14.2 114.004 14.6C114.504 15 114.754 15.5633 114.754 16.29C114.754 16.7567 114.644 17.1533 114.424 17.48C114.21 17.8067 113.914 18.06 113.534 18.24L114.884 20.68C114.904 20.72 114.914 20.7567 114.914 20.79C114.914 20.8433 114.894 20.8933 114.854 20.94C114.814 20.98 114.764 21 114.704 21H113.294C113.1 21 112.964 20.91 112.884 20.73L111.784 18.56H110.824V20.75C110.824 20.8233 110.797 20.8833 110.744 20.93C110.697 20.9767 110.637 21 110.564 21H109.194ZM111.934 17.09C112.22 17.09 112.437 17.02 112.584 16.88C112.737 16.7333 112.814 16.5333 112.814 16.28C112.814 16.0267 112.737 15.8233 112.584 15.67C112.437 15.5167 112.22 15.44 111.934 15.44H110.824V17.09H111.934ZM117.147 21C117.08 21 117.02 20.9767 116.967 20.93C116.92 20.8767 116.897 20.8167 116.897 20.75V14.26C116.897 14.1867 116.92 14.1267 116.967 14.08C117.013 14.0267 117.073 14 117.147 14H121.867C121.94 14 122 14.0267 122.047 14.08C122.1 14.1267 122.127 14.1867 122.127 14.26V15.25C122.127 15.3233 122.1 15.3833 122.047 15.43C122 15.4767 121.94 15.5 121.867 15.5H118.707V16.77H121.647C121.72 16.77 121.78 16.7967 121.827 16.85C121.88 16.8967 121.907 16.9567 121.907 17.03V17.94C121.907 18.0133 121.88 18.0767 121.827 18.13C121.78 18.1767 121.72 18.2 121.647 18.2H118.707V19.5H121.947C122.02 19.5 122.08 19.5267 122.127 19.58C122.18 19.6267 122.207 19.6867 122.207 19.76V20.75C122.207 20.8233 122.18 20.8833 122.127 20.93C122.08 20.9767 122.02 21 121.947 21H117.147Z" fill="#767E86"/>
<path fill-rule="evenodd" clip-rule="evenodd" d="M8 2C4.13401 2 1 5.13401 1 9L2 9C2 5.68629 4.68629 3 8 3C11.3137 3 14 5.68629 14 9L15 9C15 5.13401 11.866 2 8 2Z" fill="#818181"/>
<path fill-rule="evenodd" clip-rule="evenodd" d="M16 20.5996C16 21.373 15.556 22 15.0082 22H0.991756C0.444024 22 0 21.373 0 20.5996V9.40045C0 8.627 0.444024 8 0.991756 8H15.0082C15.556 8 16 8.627 16 9.40045V20.5996Z" fill="#35CB5D"/>
<path fill-rule="evenodd" clip-rule="evenodd" d="M15 19.6796C15 20.4088 14.5791 21 14.0599 21H1.9401C1.4209 21 1 20.4088 1 19.6796V10.3204C1 9.59117 1.4209 9 1.9401 9H14.0599C14.5791 9 15 9.59117 15 10.3204V19.6796Z" fill="#35CB5D"/>
<path fill-rule="evenodd" clip-rule="evenodd" d="M11.3333 11L7.16667 15.4444L4.66667 12.7778L3 14.5556L7.16667 19L13 12.7778L11.3333 11Z" fill="white"/>
</svg>
