<svg width="32" height="32" viewBox="0 0 32 32" fill="none" xmlns="http://www.w3.org/2000/svg">
<path d="M0 10C0 4.47715 4.47715 0 10 0H22C27.5228 0 32 4.47715 32 10V22C32 27.5228 27.5228 32 22 32H10C4.47715 32 0 27.5228 0 22V10Z" fill="#E0F8EE"/>
<path fill-rule="evenodd" clip-rule="evenodd" d="M17.7139 8.00244H14.2863C13.9716 8.00244 13.7139 8.25683 13.7139 8.57148V23.4267C13.7139 23.7447 13.9716 23.9991 14.2863 23.9991H17.7139C18.0318 23.9991 18.2862 23.7414 18.2862 23.4267V8.57483C18.2862 8.25683 18.0285 8.00244 17.7139 8.00244ZM12 14.2844H8.57238C8.25774 14.2844 8.00335 14.5388 8 14.8568V23.4258C8 23.7438 8.25774 23.9982 8.57238 23.9982H12C12.318 23.9982 12.5724 23.7405 12.5724 23.4258V14.8568C12.5724 14.5388 12.3146 14.2844 12 14.2844ZM20.0001 12.5708H23.4277C23.7424 12.5708 24.0001 12.8252 24.0001 13.1432V23.426C24.0001 23.7407 23.7457 23.9984 23.4277 23.9984H20.0001C19.6855 23.9984 19.4277 23.744 19.4277 23.426V13.1432C19.4277 12.8252 19.6821 12.5708 20.0001 12.5708Z" fill="#33CF90"/>
</svg>
