<svg xmlns="http://www.w3.org/2000/svg" xmlns:xlink="http://www.w3.org/1999/xlink" width="320" height="252" viewBox="0 0 320 252">
  <defs>
    <linearGradient id="error_illustration-a" x1="44.719%" x2="44.719%" y1="0%" y2="57.873%">
      <stop offset="9.647%" stop-color="#9C87CE"/>
      <stop offset="100%" stop-color="#FCFAFF"/>
    </linearGradient>
    <rect id="error_illustration-b" width="132" height="182" x="0" y="0"/>
    <linearGradient id="error_illustration-d" x1="-13.052%" x2="97.963%" y1="106.251%" y2="2.096%">
      <stop offset="0%" stop-color="#F5F2FD"/>
      <stop offset="100%" stop-color="#3E1487"/>
    </linearGradient>
  </defs>
  <g fill="none" fill-rule="evenodd" transform="translate(0 6)">
    <path fill="#F8F5FF" fill-rule="nonzero" d="M315.555225,72.0679046 C315.496176,72.3441602 315.440235,72.6204157 315.37497,72.8935673 C313.336233,82.283152 310.004638,91.3312974 305.050756,99.6406919 C304.886041,99.9169474 304.721326,100.193203 304.553503,100.469459 C301.286925,105.815666 297.378336,110.743062 292.914676,115.142043 C290.447058,117.575575 287.755676,119.888051 284.55461,121.554896 C280.07001,123.895309 274.827099,124.845131 269.674315,125.62113 C264.32263,126.431272 258.896357,127.107943 253.485623,127.837382 C251.562912,128.09191 249.651596,128.361957 247.751675,128.647525 C242.524303,129.42042 237.334225,130.31437 232.268461,131.500096 C226.006181,132.962078 219.936587,134.877243 214.202639,137.57151 C213.744752,137.778443 213.292044,137.997792 212.844517,138.229557 C212.396989,138.453045 211.946353,138.679637 211.505041,138.909332 C211.063729,139.139028 210.628633,139.368723 210.196645,139.604627 C209.972881,139.725683 209.749117,139.846739 209.528461,139.974002 C209.307805,140.101266 209.090257,140.21301 208.875816,140.33717 C208.229388,140.697233 207.59539,141.066609 206.961392,141.439088 L206.93653,141.454608 C206.516973,141.699824 206.103631,141.951247 205.693397,142.202671 C203.350093,143.624301 201.056514,145.10801 198.762934,146.601032 L197.320901,147.53223 L195.08637,148.975588 C194.651274,149.258051 194.206854,149.540515 193.76865,149.819874 C193.457867,150.024738 193.147084,150.229602 192.80833,150.440673 C191.179826,151.464992 189.529568,152.470686 187.8358,153.429821 C187.43489,153.659516 187.030872,153.889212 186.623746,154.112699 C183.201708,156.019457 179.623009,157.631103 175.926592,158.9301 L175.876866,158.948724 C174.017262,159.596638 172.120086,160.131504 170.195751,160.550385 C169.086256,160.792497 167.973652,160.991152 166.848617,161.143248 C163.841247,161.569112 160.791907,161.611875 157.773751,161.270512 C151.847117,160.584529 146.293423,158.312405 140.369897,157.545718 C128.174768,155.99372 116.330824,160.994256 104.862927,164.911498 C102.043089,165.873736 99.2025309,166.77493 96.3412545,167.615078 C94.4392619,168.176901 92.5310536,168.707684 90.6073062,169.219843 C78.8211073,172.329996 66.792191,174.436872 54.6497011,175.517849 C49.573832,176.014626 44.4676408,176.127726 39.3747116,175.856184 C37.4385328,175.738232 35.5241089,175.545785 33.6438711,175.235385 C27.2106609,174.242107 21.212547,172.159326 16.3705462,168.344516 C12.4049538,165.212585 9.56750407,161.130832 7.4075615,156.859735 C5.19650989,152.501559 3.6354038,147.84389 2.77378542,143.034541 C2.65568784,142.379599 2.55002158,141.721552 2.46300232,141.063505 C2.30761076,139.937789 2.19158507,138.805866 2.11492524,137.667734 C1.69676085,131.601309 2.4220396,125.510381 4.25311299,119.711123 C6.30428148,113.217566 9.72289562,106.984744 11.2270858,100.441523 C11.2892425,100.164232 11.3482913,99.8879768 11.4042322,99.6127559 C11.609667,98.6189405 11.7621651,97.6149391 11.8610834,96.6049848 C12.6287176,88.5656378 9.68560165,80.7280506 7.37648319,72.8656313 C7.29567958,72.5924798 7.21487597,72.3162242 7.1371802,72.0399687 C6.88855371,71.1667114 6.65028667,70.2944888 6.42237906,69.4233009 C4.2841913,61.1108024 3.69059558,52.2116488 5.595696,43.9146703 C5.65474479,43.6384147 5.72622491,43.3621592 5.79459719,43.0890076 C7.06999773,37.8443916 9.46835567,32.9381684 12.824511,28.708199 C16.392301,24.2384462 21.0758024,20.5167562 26.0794104,17.2482496 C28.5180218,15.6548655 31.0395087,14.1659826 33.6438711,12.7816008 C35.5085697,11.7883224 37.4188499,10.8478119 39.3747116,9.96006938 C55.0537191,2.82088096 72.9392868,-0.664905384 90.6259532,0.104885367 C91.5583025,0.145237302 92.4906518,0.194901221 93.4230011,0.26318911 C94.3553505,0.331477 95.374719,0.412180869 96.350578,0.502196723 C107.743887,1.60721893 118.82952,4.2735506 129.837457,7.18820187 C133.526453,8.16596029 137.209233,9.16855066 140.888905,10.1525171 C142.526732,10.5870764 144.161451,11.0216357 145.799278,11.443779 C153.82059,13.5141436 161.959999,15.3889566 170.201967,16.7888583 C172.110175,17.1178818 174.020455,17.4179346 175.932807,17.6890168 C182.572577,18.6636326 189.26594,19.2306585 195.97521,19.3869021 C198.583716,19.4386353 201.193258,19.4158727 203.803836,19.3186142 C205.121557,19.2710196 206.440313,19.1996277 207.760105,19.1044385 C221.387944,18.1453041 234.558932,14.9357733 247.751675,11.9373142 C249.659883,11.5027549 251.571199,11.0744036 253.485623,10.6522603 C255.996751,10.0997492 258.507878,9.56586202 261.031437,9.07232682 C276.735307,5.99005982 290.732978,7.76244094 305.333568,14.1225266 C308.652732,15.5658843 311.968788,17.3103295 314.001309,20.0201171 C316.033831,22.7299047 316.543515,26.0573873 316.92267,29.270022 C317.460325,33.8453106 317.81151,38.4795751 317.945147,43.1386715 C317.945147,43.4118231 317.945147,43.6880787 317.963794,43.9643342 C318.175126,53.3756469 317.472756,62.8769755 315.555225,72.0679046 Z" transform="matrix(1 0 0 -1 0 176)"/>
    <path fill="#FBF9FF" fill-rule="nonzero" d="M104.094227,78.6974352 C107.242797,43.5230278 276.176951,-24.3672838 307.538988,8.94921958 C338.901025,42.265723 308.750317,104.792085 243.027071,120.803494 C177.303826,136.814904 100.945658,113.871842 104.094227,78.6974352 Z"/>
    <path fill="#F5F2FD" fill-rule="nonzero" d="M122.065866,180.405426 C124.883514,150.725024 276.062339,93.4387217 304.128161,121.551412 C332.193983,149.664102 325.089976,208.795888 266.27438,222.306424 C207.458784,235.816959 119.248218,210.085828 122.065866,180.405426 Z"/>
    <path fill="#F5F2FD" fill-rule="nonzero" d="M0.0658656275,180.405426 C2.88351375,150.725024 154.062339,93.4387217 182.128161,121.551412 C210.193983,149.664102 203.089976,208.795888 144.27438,222.306424 C85.4587837,235.816959 -2.7517825,210.085828 0.0658656275,180.405426 Z" transform="matrix(-1 0 0 1 198 0)"/>
    <ellipse cx="160" cy="228" fill="#FCFAFF" rx="150" ry="12"/>
    <ellipse cx="49" cy="230" fill="#F4F2FB" rx="20" ry="4"/>
    <ellipse cx="230" cy="223" fill="#F4F2FB" rx="45" ry="4"/>
    <g transform="translate(19 122)">
      <path fill="#D5CCEB" fill-rule="nonzero" d="M21.6114521,0.079156888 C22.9214467,-0.0808880271 24.3196088,-0.0243928255 25.5378654,0.492688408 C28.1283635,1.59235114 28.8647167,4.65271979 28.8291929,7.14019067 C28.7908956,9.81751228 28.2223446,12.7418243 30.2578534,14.8990071 C31.1935363,15.8907552 32.3574531,16.6497314 33.276231,17.6596899 C34.2579602,18.7389666 35.0282704,19.9738738 35.5986276,21.2999681 C36.6458709,23.7357519 37.1598763,26.600202 36.2022295,29.1553553 C35.3590383,31.4050178 33.2376636,33.435531 33.6960412,35.993615 C34.1741694,38.6621731 36.8646286,40.7023081 38.5467153,42.6899649 C40.4503623,44.9393698 42.2031042,47.8143153 42.4910401,50.764174 C42.7671419,53.5911872 41.5365799,56.4503045 39.6480622,58.5872954 C35.8747991,62.8573563 30.2029993,64.9506816 24.4840843,64.9377713 C22.0559887,64.9320865 19.3068915,64.8224236 17.2115104,63.517607 C16.5639025,63.1142977 16.2222478,62.6618214 15.837263,62.0328149 C15.4920829,61.4687787 15.0361026,61.1018972 14.5083145,60.7027855 C13.348766,59.8261599 12.5113662,58.6446812 11.9769587,57.3221389 C9.90173891,52.185284 11.5603715,45.8303649 14.4652095,41.2687977 C15.1535279,40.1880691 15.717065,39.1480843 15.3826771,37.8599196 C15.0337333,36.5152316 14.176105,35.3023963 13.4175426,34.1465228 C12.6679623,33.0041593 11.8122166,31.91436 11.2263493,30.6792145 C10.6127493,29.3853117 10.4399644,28.0303779 10.5483807,26.6143089 C10.7521416,23.9543158 11.9004102,21.4996524 13.5261086,19.3604306 C15.091957,17.299892 16.9305244,15.3282757 16.9346441,12.6283494 C16.939168,9.76679533 15.0261117,7.22126643 15.8411019,4.31194992 C16.1785612,3.10725472 16.8563612,1.87123016 17.9486856,1.14899751 C18.9962452,0.456323279 20.3794179,0.229677227 21.6114521,0.079156888 Z"/>
      <path fill="#CEC4E3" fill-rule="nonzero" d="M20.7554652,4.6537658 C20.7800309,4.26944824 21.2359084,4.03894881 21.594785,4.13923466 C22.0671655,4.2713035 22.0580808,4.71268571 22.0456093,5.1059227 C22.0073789,6.31463962 22.1823294,7.4893151 22.4728846,8.6621133 C23.0767723,11.1004913 24.1928379,13.3470559 25.0770418,15.6893112 C25.9604751,18.0296057 26.3751773,20.4458891 25.8569183,22.9222548 C25.3683546,25.2571223 24.6008062,27.5314728 24.1008084,29.8692875 C23.660101,31.9297709 23.1911671,34.1026662 23.8623082,36.1579027 C24.508111,38.1362174 25.9358921,39.7473382 26.9640182,41.535156 C29.0923581,45.2360528 30.0365852,49.3417555 30.1628798,53.5668859 C30.2214092,55.5288741 30.168702,57.5089036 29.7135432,59.4331867 C29.451569,60.5411943 29.0995197,62.0386172 28.1500317,62.8035883 C27.7121984,63.1563568 26.9633646,63.2783387 26.5948616,62.755929 C26.248891,62.2659497 26.5524013,61.507413 26.6622351,60.985172 C27.137895,58.724476 27.233587,56.4141341 27.1197072,54.1186338 C27.00949,51.8951402 26.7467837,49.6753596 26.046989,47.5518309 C25.3974857,45.5811653 24.41077,43.8111248 23.2494651,42.0872114 C22.0661036,40.3304232 20.8358954,38.5698867 20.3469346,36.4882736 C19.8501361,34.3740933 20.253735,32.2228469 20.7934022,30.1490429 C21.3641134,27.9555432 22.1116558,25.8249686 22.8844813,23.6909006 C23.6376264,21.6114105 23.9045794,19.6438431 23.4888118,17.4674151 C22.6674828,13.1675187 20.4690268,9.13158444 20.7554652,4.6537658 Z"/>
      <path fill="#D9D1EC" d="M56.1996773,5.29666921 C57.8207661,5.78888441 59.4308119,6.58305234 60.5863978,7.8283305 C63.0435585,10.4764555 62.2896342,14.4787949 60.9331861,17.4020628 C59.473137,20.5484103 57.2606026,23.7110052 58.5078502,27.3210633 C59.0811142,28.9806937 60.0451086,30.4837744 60.5889194,32.1561465 C61.1699268,33.9432449 61.4207005,35.8044111 61.3887507,37.6693974 C61.3296019,41.0948186 60.4184409,44.7497893 57.9446583,47.273391 C55.7665919,49.4952538 52.2051755,50.7930054 51.3907019,54.0567206 C50.5410013,57.46136 52.6183084,61.2737143 53.5406317,64.4994286 C54.5844731,68.1499534 55.1206808,72.4617547 53.8992187,76.1001252 C52.7288077,79.5870594 49.7742588,82.3281605 46.4296808,83.8729724 C39.7470216,86.9599225 31.9881048,86.4849461 25.2872338,83.4944996 C22.4422889,82.2246977 19.275831,80.6648659 17.5078309,78.0316914 C16.9614242,77.2178272 16.7998585,76.5049802 16.680778,75.5608229 C16.5740435,74.7142091 16.2331429,74.0431138 15.8250546,73.2965466 C14.9283686,71.6566036 14.5706656,69.8237213 14.6429032,67.9816379 C14.9240196,60.8270833 20.228401,54.1744469 26.0465616,50.2909802 C27.4251235,49.3709611 28.6357936,48.4342125 28.9244642,46.7368391 C29.2259381,44.9650476 28.8610827,43.0845594 28.582314,41.3229719 C28.3069397,39.5820345 27.8792602,37.8480313 27.8449462,36.0825346 C27.8091612,34.2331228 28.3226679,32.5408562 29.1983095,30.9225765 C30.8432721,27.8828001 33.48752,25.577206 36.5250159,23.893031 C39.4507247,22.2707737 42.6493052,20.8955525 44.0812153,17.7046922 C45.5990298,14.322897 44.7006718,10.3172732 47.1943293,7.30061558 C48.2268919,6.0514654 49.6752002,4.9423171 51.3381344,4.65643753 C52.9329403,4.38222685 54.6750625,4.83374667 56.1996773,5.29666921 Z"/>
      <path fill="#CEC4E3" fill-rule="nonzero" d="M52.8882725,10.8889124 C53.1182744,10.4466656 53.7720544,10.412639 54.1391697,10.719499 C54.6223605,11.1234882 54.3805743,11.6414271 54.1600429,12.1005755 C53.4823034,13.511943 53.0716666,14.994732 52.7971906,16.5358896 C52.22628,19.7400184 52.3547212,22.9854427 52.1619288,26.2226617 C51.9692622,29.4571548 51.1887071,32.5359606 49.2857655,35.1969253 C47.4916532,37.7058871 45.403016,39.9969582 43.5939903,42.5034172 C41.9995388,44.7125264 40.3132089,47.0399635 40.0215995,49.8256123 C39.7406478,52.5068865 40.5663789,55.1631757 40.8322492,57.8192439 C41.3826801,63.3175031 40.3365103,68.6745184 38.2713777,73.7442615 C37.3122727,76.0983943 36.213649,78.4155898 34.6736308,80.4558317 C33.78701,81.6306648 32.5911167,83.219446 31.0802368,83.627697 C30.3835207,83.8159767 29.4440176,83.567946 29.2867236,82.7561461 C29.1387919,81.9945619 29.8909545,81.2553547 30.2928951,80.6944656 C32.0330733,78.2665773 33.3549525,75.5807442 34.4240048,72.8026437 C35.4596281,70.1117358 36.3149998,67.3453013 36.6088708,64.4637604 C36.8814894,61.7896047 36.6547301,59.1762929 36.1996644,56.5260997 C35.7360249,53.8254141 35.2195703,51.0957357 35.7380189,48.374337 C36.264359,45.6102632 37.8629541,43.2742195 39.5800964,41.1012033 C41.3962265,38.8027103 43.3861713,36.6714178 45.4075095,34.5492401 C47.3772513,32.4813803 48.7198677,30.2912355 49.3735587,27.4959164 C50.6651386,21.9733444 50.2081881,16.0415724 52.8882725,10.8889124 Z"/>
      <path fill="#DFD8EF" d="M6.08493281,25.6092619 C8.78044002,25.6092619 11.1502415,27.0380581 12.7831784,29.0655674 C14.694686,31.4390549 15.0807515,34.3375552 15.8569518,37.1663298 C16.2431869,38.5740922 16.9074841,39.9715864 18.071615,40.9280368 C19.1304552,41.7978684 20.4746483,41.9719341 21.7420351,42.3969128 C24.2749438,43.2462076 26.3202265,45.2921006 27.1279631,47.7884776 C28.1133881,50.8335507 27.0696378,53.9044604 27.2493609,56.9904415 C27.4143331,59.8245159 30.208688,61.5926656 32.4569221,62.9512393 C34.6737894,64.2909323 36.6709199,65.5450003 37.3386081,68.1548264 C38.0466492,70.9228188 38.2841889,74.0124435 37.3035112,76.7468153 C35.6707439,81.2996847 30.892314,83.304504 26.2751261,83.6153712 C22.0848654,83.8974206 16.8160966,83.4545551 13.6692471,80.4129599 C11.7862239,78.5928059 11.1042935,76.0472398 11.1888989,73.5145921 C11.2414595,71.9397199 11.5534316,70.3794224 11.9567913,68.8575483 C12.2426527,67.778871 12.6288878,66.704831 12.7389258,65.5902143 C13.0313997,62.624804 10.2906226,62.0552398 7.95761348,61.2410562 C4.9930303,60.206268 2.91756774,58.2517967 1.47435744,55.5288528 C0.13033394,52.9935553 -0.433589632,50.1475563 0.372112357,47.3562117 C0.783610407,45.9308935 1.52996986,44.6377395 2.54218385,43.5378629 C2.98776147,43.0537582 3.61577498,42.6499788 4.01794777,42.1413625 C4.39333165,41.6663669 4.31160851,41.0509262 4.1822418,40.4946116 C3.58406911,37.9248653 1.72037461,35.7969909 1.05387323,33.2318819 C0.452139996,30.9165266 0.807856067,28.0349196 2.92468884,26.5412007 C3.83924198,25.895783 4.96708912,25.6163836 6.08493281,25.6092619 Z"/>
      <path fill="#D8CFEB" d="M9.75790224,32.3048843 C12.6148512,35.3481089 13.3914044,39.4771229 13.6193077,43.4791082 C13.7469673,45.7232275 13.6140937,48.0902352 14.2734155,50.2669482 C14.8375393,52.1299813 16.1600514,53.5541276 17.5232664,54.9001024 C20.267357,57.6096074 23.3276529,60.3641604 24.1302762,64.2854899 C24.6012203,66.5867473 24.2833331,68.963692 24.9340769,71.23961 C25.5257846,73.3083402 26.5675803,75.3408 27.8347564,77.0877354 C28.8550232,78.4944919 30.1842631,79.5715036 31.2995597,80.8828643 C31.6398168,81.2831622 32.127244,81.8724299 31.9868017,82.4375171 C31.8224758,83.0993253 30.9794858,83.3088319 30.3813868,83.204824 C28.9868876,82.9625252 27.8130593,81.6309593 26.9012779,80.6629237 C25.5680014,79.2473896 24.4350444,77.7248664 23.5141804,76.0170172 C22.4918952,74.1203637 21.6687521,72.107778 21.3170578,69.979922 C20.9520761,67.7724042 21.133726,65.4718092 20.3003231,63.353228 C18.8979187,59.7884734 15.4963565,57.6847978 13.037019,54.9063958 C9.97285459,51.4443242 10.4298386,47.1354494 10.7436892,42.8767567 C10.9160884,40.5364135 11.0874784,37.8934868 9.90490407,35.7566877 C9.4534705,34.9410207 8.44699559,34.1805043 8.25289933,33.2533767 C8.07511792,32.4039237 9.04543104,31.5455273 9.75790224,32.3048843 Z"/>
      <path fill="#FFF" d="M12.804631,82.3154848 C12.804631,99.7199462 15.6450772,108.839363 30.6396953,108.839363 C45.6343132,108.839363 48.4746744,99.7199462 48.4746744,82.3154848 L12.804631,82.3154848 Z"/>
    </g>
    <g transform="translate(92 38)">
      <path fill="url(#error_illustration-a)" d="M96.6341463,200 C145.83054,200 196,196.850814 196,190.833333 C196,184.815852 144.633215,178 96.6341463,178 C48.6350779,178 2,185.737656 2,190.833333 C2,195.929011 47.4377527,200 96.6341463,200 Z"/>
      <g transform="translate(24)">
        <mask id="error_illustration-c" fill="#fff">
          <use xlink:href="#error_illustration-b"/>
        </mask>
        <use fill="#331C6B" xlink:href="#error_illustration-b"/>
        <g fill-rule="nonzero" mask="url(#error_illustration-c)">
          <g transform="translate(91.682 105.27)">
            <path fill="url(#error_illustration-d)" d="M18.6755478,0.688852174 L14.3128174,5.05158261 C14.1512348,5.21316522 13.8961043,5.21316522 13.7345217,5.05158261 C13.5729391,4.89 13.5729391,4.63486957 13.7345217,4.47328696 L16.0477043,2.16010435 C16.209287,1.99852174 16.209287,1.73488696 16.0477043,1.5648 C15.8861217,1.40321739 15.622487,1.40321739 15.4524,1.5648 L12.0761739,4.94102609 C11.9145913,5.1026087 11.6594609,5.1026087 11.4978783,4.94102609 C11.3362957,4.77944348 11.3362957,4.52431304 11.4978783,4.36273043 L14.0066609,1.85394783 C14.1682435,1.69236522 14.1682435,1.42022609 14.0066609,1.25864348 C13.8450783,1.09706087 13.5729391,1.09706087 13.4113565,1.25864348 L1.62433043,13.0456696 L1.64133913,13.0626783 C0.0765391304,14.6274783 0.144573913,17.1957913 1.82843478,18.6840522 C3.36772174,20.0362435 5.72342609,19.8661565 7.17766957,18.411913 L20.6230435,4.96653913 C20.8441565,4.74542609 20.8441565,4.38824348 20.6230435,4.15862609 C20.4019304,3.93751304 20.0447478,3.93751304 19.8151304,4.15862609 L16.9661739,7.00758261 C16.8045913,7.16916522 16.5494609,7.16916522 16.3878783,7.00758261 C16.2262957,6.846 16.2262957,6.59086957 16.3878783,6.42928696 L18.3183652,4.4988 C18.4969565,4.3202087 18.4969565,4.02255652 18.3183652,3.84396522 C18.1397739,3.66537391 17.8421217,3.66537391 17.6635304,3.84396522 L14.4744,7.03309565 C14.3128174,7.19467826 14.057687,7.19467826 13.8961043,7.03309565 C13.7345217,6.87151304 13.7345217,6.61638261 13.8961043,6.4548 L19.1773043,1.1736 C19.3133739,1.03753043 19.3133739,0.816417391 19.1773043,0.680347826 C19.0242261,0.552782609 18.803113,0.552782609 18.6755478,0.688852174 Z" opacity=".64"/>
            <path fill="#F5F2FD" d="M6.39526957,13.7430261 C7.52634783,14.8741043 7.52634783,16.7025391 6.39526957,17.825113 C5.2641913,18.9561913 3.43575652,18.9561913 2.31318261,17.825113 C1.18210435,16.6940348 1.18210435,14.8656 2.31318261,13.7430261 C3.43575652,12.6119478 5.2641913,12.6119478 6.39526957,13.7430261 Z"/>
          </g>
        </g>
        <g mask="url(#error_illustration-c)">
          <g transform="translate(58.13 5)">
            <path fill="#5F40AF" d="M45.3697431,63 C52.8267861,63 59.3855563,61.0932765 64.8697431,57 C64.8697431,51 64.8697431,13 64.8697431,6 C59.5237697,2.25632392 52.4690614,0 45.3697431,0 C27.4204887,0 12.8697431,14.1030304 12.8697431,31.5 C12.8697431,48.8969696 27.4204887,63 45.3697431,63 Z"/>
            <path fill="#7F66BF" d="M45.3697431,63 C52.8267861,63 59.3855563,61.0932765 64.8697431,57 C30.8697431,70 15.8697431,43.7110602 15.8697431,31 C15.8697431,18.2889398 28.8697431,-8 64.8697431,6 C59.5237697,2.25632392 52.4690614,0 45.3697431,0 C27.4204887,0 12.8697431,14.1030304 12.8697431,31.5 C12.8697431,48.8969696 27.4204887,63 45.3697431,63 Z"/>
            <g transform="translate(35.586 46.41)">
              <path fill="#482998" d="M5.66389565,1.66685217 C6.8630087,3.20613913 6.85450435,5.23017391 5.62987826,6.18266087 C4.41375652,7.13514783 2.44925217,6.6504 1.25013913,5.11111304 C0.051026087,3.57182609 0.0595304348,1.5477913 1.28415652,0.595304348 C2.50027826,-0.348678261 4.45627826,0.127565217 5.66389565,1.66685217 Z"/>
              <path fill="#331C6B" d="M1.88796522,4.60935652 C0.790904348,3.20613913 0.722869565,1.41172174 1.63283478,0.3912 C1.51377391,0.450730435 1.3862087,0.51026087 1.28415652,0.603808696 C0.0680347826,1.55629565 0.051026087,3.57182609 1.25013913,5.11961739 C2.44925217,6.65890435 4.41375652,7.14365217 5.62987826,6.19116522 C5.74043478,6.10612174 5.82547826,6.00406957 5.91902609,5.90201739 C4.6944,6.52283478 2.97652174,6.01257391 1.88796522,4.60935652 Z"/>
            </g>
            <g transform="translate(43.642 53.214)">
              <path fill="#482998" d="M3.96302609,0.654834783 C5.05158261,1.3692 5.48530435,2.63634783 4.92401739,3.5037913 C4.36273043,4.36273043 3.01904348,4.49029565 1.93048696,3.77593043 C0.841930435,3.06156522 0.408208696,1.79441739 0.969495652,0.926973913 C1.53078261,0.0680347826 2.87446957,-0.051026087 3.96302609,0.654834783 Z"/>
              <path fill="#331C6B" d="M2.21963478,3.3252 C1.22462609,2.67886957 0.790904348,1.5648 1.13958261,0.722869565 C1.08005217,0.790904348 1.01201739,0.850434783 0.960991304,0.926973913 C0.399704348,1.78591304 0.824921739,3.06156522 1.92198261,3.77593043 C3.01053913,4.49029565 4.35422609,4.36273043 4.91551304,3.5037913 C4.96653913,3.42725217 5.00055652,3.3422087 5.03457391,3.25716522 C4.40525217,3.92050435 3.21464348,3.97153043 2.21963478,3.3252 Z"/>
            </g>
            <g transform="translate(24.09 38.86)">
              <ellipse cx="2.879" cy="2.846" fill="#482998" rx="1.352" ry="1.709" transform="rotate(-37.827 2.879 2.846)"/>
              <path fill="#331C6B" d="M2.10907826,3.42725217 C1.5818087,2.74690435 1.5477913,1.87946087 1.99001739,1.3862087 C1.93048696,1.42022609 1.87095652,1.44573913 1.81993043,1.48826087 C1.23313043,1.94749565 1.22462609,2.92549565 1.80292174,3.67387826 C2.38121739,4.42226087 3.33370435,4.65187826 3.92050435,4.19264348 C3.97153043,4.15012174 4.01405217,4.09909565 4.05657391,4.05657391 C3.46977391,4.35422609 2.63634783,4.1076 2.10907826,3.42725217 Z"/>
            </g>
            <g transform="translate(28.082 32.504)">
              <path fill="#482998" d="M5.81697391,2.10907826 C6.8630087,3.58883478 6.76095652,5.4597913 5.59586087,6.29321739 C4.42226087,7.11813913 2.62784348,6.59086957 1.5818087,5.11111304 C0.535773913,3.63135652 0.637826087,1.7604 1.80292174,0.926973913 C2.96801739,0.0935478261 4.77093913,0.629321739 5.81697391,2.10907826 Z"/>
              <path fill="#331C6B" d="M2.18561739,4.6773913 C1.23313043,3.3252 1.24163478,1.66685217 2.12608696,0.748382609 C2.01553043,0.799408696 1.89646957,0.850434783 1.79441739,0.926973913 C0.620817391,1.75189565 0.527269565,3.63135652 1.57330435,5.11111304 C2.61933913,6.59086957 4.42226087,7.12664348 5.58735652,6.29321739 C5.6894087,6.21667826 5.78295652,6.12313043 5.868,6.03808696 C4.7114087,6.57386087 3.1466087,6.02107826 2.18561739,4.6773913 Z"/>
            </g>
            <path fill="#482998" d="M31.6422822,49.040313 C32.90943,50.3074609 33.2666126,51.9913217 32.4416909,52.8077391 C31.6252735,53.6241565 29.9329083,53.2669739 28.6742648,52.0083304 C27.4156213,50.7411826 27.0499344,49.0573217 27.8748561,48.2409043 C28.6912735,47.424487 30.3751344,47.7816696 31.6422822,49.040313 Z"/>
            <path fill="#572BA1" fill-rule="nonzero" d="M22.8103344,40.2998783 C23.1249952,40.7846261 23.0909779,41.3629217 22.7508039,41.5840348 C22.41063,41.8051478 21.8748561,41.5925391 21.5601952,41.1077913 C21.2455344,40.6230435 21.2795518,40.0447478 21.6197257,39.8236348 C21.9684039,39.6025217 22.4956735,39.8151304 22.8103344,40.2998783 Z"/>
            <path fill="#482998" d="M37.4648039,55.292487 C37.9580561,55.6156522 38.1791692,56.1514261 37.9580561,56.4830957 C37.7369431,56.8232696 37.1586474,56.8402783 36.6653952,56.517113 C36.1721431,56.1939478 35.95103,55.6581739 36.1721431,55.3265043 C36.3932561,54.9863304 36.9715518,54.9693217 37.4648039,55.292487 Z"/>
            <path fill="#4F2DA7" d="M97.6412856,16.5890431 C99.3367462,22.1346447 78.8754251,33.3061058 51.939646,41.5411999 C25.0038668,49.7762941 1.79366107,51.9565585 0.0982005172,46.4109569 C-0.774012344,43.5580772 4.2175359,39.2163217 12.9377621,34.5514019 C13.0394875,36.0885215 13.2552352,37.5959382 13.5767019,39.0655046 C10.1330936,40.9062674 8.28223593,42.396998 8.55875747,43.3014592 C9.35804602,45.9158143 27.6320545,42.651754 49.5210215,36.0057966 L50.1854157,35.8033714 C72.3678221,29.0215292 89.6957191,21.3829987 88.888357,18.742236 C88.308788,16.8465515 78.5413832,18.0416126 64.8701115,21.3756336 L64.8697433,16.4770398 C82.9188943,12.6175515 96.3660269,12.4178597 97.6412856,16.5890431 Z"/>
          </g>
        </g>
        <g mask="url(#error_illustration-c)">
          <g transform="translate(13 160)">
            <path fill="#5F40AF" d="M62,22 C59.7905516,15.7468809 55.7102676,10.0892969 49.8861278,5.98861202 C35.0040961,-4.49280669 14.4841617,-0.86004225 4.05488804,14.1049054 C2.31103222,16.606153 0.973511742,19.2605383 0,22 L62,22 Z"/>
            <path fill="#7F66BF" d="M2.42075085,22 C3.19945392,20.3495169 4.10511945,18.7415719 5.18006826,17.2016882 C15.6079181,2.24524819 36.1250512,-1.39602389 51.0050512,9.08539481 C55.8465529,12.4969605 59.4776792,16.9889971 61.8307167,22 L62,22 C59.7908532,15.7468809 55.7026621,10.0892969 49.8793174,5.98861202 C34.9993174,-4.49280669 14.4821843,-0.86004225 4.05433447,14.1049054 C2.31071672,16.606153 0.964914676,19.2605383 0,22 L2.42075085,22 Z"/>
            <path fill="#482998" d="M26.8737391,13.9046087 C24.9177391,14.0066609 23.2764,12.8330609 23.1998609,11.2937739 C23.1233217,9.75448696 24.6370957,8.41930435 26.5930957,8.31725217 C28.5490957,8.2152 30.1904348,9.3888 30.2669739,10.9365913 C30.343513,12.4758783 28.8212348,13.8025565 26.8737391,13.9046087 Z"/>
            <path fill="#331C6B" d="M26.627113,9.12516522 C28.4045217,9.03161739 29.9097913,10.001113 30.2329565,11.3362957 C30.2499652,11.2002261 30.2669739,11.0641565 30.2669739,10.928087 C30.1904348,9.3888 28.5405913,8.2152 26.5930957,8.30874783 C24.6370957,8.4108 23.1233217,9.73747826 23.1998609,11.2852696 C23.2083652,11.4213391 23.2423826,11.5574087 23.2678957,11.6849739 C23.446487,10.3327826 24.8497043,9.21871304 26.627113,9.12516522 Z"/>
            <path fill="#482998" d="M16.7620696,18.2503304 C15.5544522,18.7350783 14.2617913,18.3523826 13.8790957,17.3998957 C13.4964,16.4474087 14.1597391,15.2738087 15.3673565,14.7890609 C16.5749739,14.304313 17.8676348,14.6870087 18.2503304,15.6394957 C18.6330261,16.5919826 17.969687,17.7570783 16.7620696,18.2503304 Z"/>
            <path fill="#331C6B" d="M15.5714609,15.2908174 C16.6685217,14.8485913 17.8336174,15.1292348 18.3183652,15.9031304 C18.3013565,15.818087 18.2843478,15.7245391 18.2503304,15.6394957 C17.8676348,14.6870087 16.5749739,14.304313 15.3673565,14.7890609 C14.1597391,15.2738087 13.4878957,16.4389043 13.8790957,17.3998957 C13.913113,17.4849391 13.9641391,17.5614783 14.0151652,17.6380174 C13.8280696,16.7365565 14.4744,15.7330435 15.5714609,15.2908174 Z"/>
            <path fill="#482998" d="M24.7986783,20.7250957 C23.8546957,20.7676174 23.055287,20.2063304 23.0212696,19.4579478 C22.9872522,18.7095652 23.7186261,18.0717391 24.6626087,18.020713 C25.6065913,17.9781913 26.406,18.5394783 26.4400174,19.2878609 C26.4740348,20.0362435 25.7426609,20.6825739 24.7986783,20.7250957 Z"/>
            <path fill="#331C6B" d="M24.6796174,18.411913 C25.5385565,18.3693913 26.2699304,18.8371304 26.4230087,19.4834609 C26.431513,19.4154261 26.4400174,19.3558957 26.4400174,19.2878609 C26.406,18.5394783 25.6065913,17.969687 24.6626087,18.020713 C23.7186261,18.0632348 22.9787478,18.7095652 23.0212696,19.4579478 C23.0212696,19.5259826 23.0382783,19.585513 23.055287,19.6535478 C23.1403304,18.998713 23.8206783,18.4544348 24.6796174,18.411913 Z"/>
            <path fill="#482998" d="M41.050487,13.6410205 C39.2390609,13.6494783 37.7593043,12.492887 37.7507633,11.0556522 C37.7422957,9.61841739 39.2135478,8.45332174 41.0249739,8.44477079 C42.8364,8.43631304 44.3161565,9.59290435 44.3246978,11.0301391 C44.3331652,12.4673739 42.8704174,13.6324696 41.050487,13.6410205 Z"/>
            <path fill="#331C6B" d="M41.0334783,9.20170435 C42.6833217,9.1932 44.0440174,10.1541913 44.2821391,11.4043304 C44.3076522,11.2767652 44.3331652,11.1577043 44.3246609,11.0301391 C44.3161565,9.59290435 42.8449043,8.43631304 41.0249739,8.44481739 C39.2135478,8.45332174 37.7422957,9.61841739 37.7507633,11.0556522 C37.7507633,11.1832174 37.776313,11.3107826 37.8018261,11.4298435 C38.0314435,10.1797043 39.3836348,9.2102087 41.0334783,9.20170435 Z"/>
            <path fill="#482998" d="M33.7452522 7.19467826C33.1669565 7.16916522 32.7162261 6.82048696 32.7332348 6.41227826 32.7502435 6.00406957 33.226487 5.6894087 33.8047826 5.71492174 34.3830783 5.74043478 34.8338087 6.08911304 34.8168 6.49732174 34.8082957 6.90553043 34.3235478 7.2201913 33.7452522 7.19467826zM18.3013565 11.8295478C17.7570783 12.0506609 17.1957913 11.9230957 17.042713 11.5489043 16.8896348 11.174713 17.2128 10.6899652 17.7570783 10.4688522 18.3013565 10.2477391 18.8626435 10.3753043 19.0157217 10.7494957 19.1688 11.1321913 18.8456348 11.6084348 18.3013565 11.8295478zM27.4180174 6.21667826C25.6576174 6.52283478 24.0673043 5.8509913 23.8717043 4.7114087 23.6676 3.57182609 24.9347478 2.38972174 26.6951478 2.08356522 28.4555478 1.7774087 30.0458609 2.44925217 30.2414609 3.58883478 30.4370609 4.73692174 29.1784174 5.91052174 27.4180174 6.21667826z"/>
          </g>
        </g>
        <path fill="#7F66BF" d="M43 79C43 80.6567164 41.6567164 82 40 82 38.3432836 82 37 80.6567164 37 79 37 77.3432836 38.3432836 76 40 76 41.6567164 76.011194 43 77.3544776 43 79zM18 49C18 50.1052632 17.1052632 51 16 51 14.8947368 51 14 50.1052632 14 49 14 47.8947368 14.8947368 47 16 47 17.0964912 47 18 47.8947368 18 49z" mask="url(#error_illustration-c)"/>
        <circle cx="115" cy="179" r="4" fill="#7F66BF" mask="url(#error_illustration-c)"/>
        <path fill="#DFD8EF" d="M72,150 C72,151.107296 71.1072961,152 70,152 C68.8927039,152 68,151.107296 68,150 C68,148.892704 68.8927039,148 70,148 C71.0987124,148 72,148.892704 72,150 Z" mask="url(#error_illustration-c)"/>
        <circle cx="50" cy="33" r="1" fill="#DFD8EF" mask="url(#error_illustration-c)"/>
        <path fill="#F6F2FF" d="M85.1241739 78.6287826C85.1411826 78.3736522 85.3367826 78.1695478 85.6004174 78.1525391 86.1191826 78.1270261 86.6124348 78.0674957 87.0716696 77.9739478 86.6124348 77.8804 86.1191826 77.8208696 85.6004174 77.7953565 85.345287 77.7783478 85.1411826 77.5827478 85.1241739 77.319113 85.0986609 76.8003478 85.0391304 76.3070957 84.9455826 75.8478609 84.8520348 76.3070957 84.7925043 76.8003478 84.7669913 77.319113 84.7499826 77.5742435 84.5543826 77.7783478 84.2907478 77.7953565 83.7719826 77.8208696 83.2787304 77.8804 82.8194957 77.9739478 83.2787304 78.0674957 83.7719826 78.1270261 84.2907478 78.1525391 84.5458783 78.1695478 84.7499826 78.3651478 84.7669913 78.6287826 84.7925043 79.1475478 84.8520348 79.6408 84.9455826 80.1000348 85.0391304 79.6322957 85.0986609 79.1390435 85.1241739 78.6287826zM33.8548 123.670035C33.8633043 123.448922 34.0418957 123.27033 34.271513 123.253322 34.7222435 123.227809 35.1474609 123.176783 35.5471652 123.100243 35.1474609 123.023704 34.7137391 122.972678 34.271513 122.947165 34.0504 122.938661 33.8718087 122.76007 33.8548 122.530452 33.829287 122.079722 33.7782609 121.654504 33.7017217 121.2548 33.6251826 121.654504 33.5741565 122.088226 33.5486435 122.530452 33.5401391 122.751565 33.3615478 122.930157 33.1319304 122.947165 32.6812 122.972678 32.2559826 123.023704 31.8562783 123.100243 32.2559826 123.176783 32.6897043 123.227809 33.1319304 123.253322 33.3530435 123.261826 33.5316348 123.440417 33.5486435 123.670035 33.5741565 124.120765 33.6251826 124.545983 33.7017217 124.945687 33.7782609 124.554487 33.829287 124.120765 33.8548 123.670035zM104.490052 156.631774C104.422017 156.419165 104.52407 156.189548 104.728174 156.096 105.136383 155.908904 105.519078 155.713304 105.867757 155.492191 105.468052 155.560226 105.042835 155.670783 104.617617 155.806852 104.405009 155.874887 104.175391 155.772835 104.081843 155.56873 103.894748 155.160522 103.699148 154.777826 103.478035 154.429148 103.54607 154.828852 103.656626 155.25407 103.792696 155.679287 103.86073 155.891896 103.758678 156.121513 103.554574 156.215061 103.146365 156.402157 102.76367 156.597757 102.414991 156.81887 102.814696 156.750835 103.239913 156.640278 103.66513 156.504209 103.877739 156.436174 104.107357 156.538226 104.200904 156.74233 104.388 157.150539 104.5836 157.533235 104.804713 157.881913 104.736678 157.473704 104.634626 157.056991 104.490052 156.631774zM30.628313 24.4328C30.6368174 24.211687 30.8154087 24.0330957 31.0450261 24.016087 31.4957565 23.9905739 31.9209739 23.9395478 32.3206783 23.8630087 31.9209739 23.7864696 31.4872522 23.7354435 31.0450261 23.7099304 30.823913 23.7014261 30.6453217 23.5228348 30.628313 23.2932174 30.6028 22.842487 30.5517739 22.4172696 30.4752348 22.0175652 30.3986957 22.4172696 30.3476696 22.8509913 30.3221565 23.2932174 30.3136522 23.5143304 30.1350609 23.6929217 29.9054435 23.7099304 29.454713 23.7354435 29.0294957 23.7864696 28.6297913 23.8630087 29.0294957 23.9395478 29.4632174 23.9905739 29.9054435 24.016087 30.1265565 24.0245913 30.3051478 24.2031826 30.3221565 24.4328 30.3476696 24.8835304 30.3986957 25.3087478 30.4752348 25.7084522 30.5602783 25.3087478 30.6113043 24.8750261 30.628313 24.4328z" mask="url(#error_illustration-c)"/>
        <text fill="#F5F2FD" font-family="AvenirNext-Medium, Avenir Next" font-size="10" font-weight="400" mask="url(#error_illustration-c)" opacity=".7">
          <tspan x="52" y="107">Oops!</tspan>
        </text>
      </g>
      <polygon fill="#DFD8EF" points="24 0 24 182 36.555 182 36.555 11.739 143.454 11.739 143.454 182 156 182 156 0"/>
      <polygon fill="#7F66BF" points="27 2 27 182 38.982 182 38.982 14.131 141.018 14.131 141.018 182 153 182 153 2"/>
      <polygon fill="#482998" points="34 182 40.757 182 40.757 14.206 140.243 14.206 140.243 182 146 182 146 10 34 10"/>
      <path fill="#DFD8EF" d="M3.99995785,106 L3.99995785,106 C2.89897095,106 2,105.388841 2,104.640343 L2,91.3596567 C2,90.6111588 2.89897095,90 3.99995785,90 L3.99995785,90 C5.10094475,90 5.99991571,90.6111588 5.99991571,91.3596567 L5.99991571,104.640343 C6.0100165,105.388841 5.11104555,106 3.99995785,106 Z"/>
      <path fill="#4F2DA7" d="M9,100 L1.59333918,100 C0.709903593,100 0,99.1089109 0,98 L0,98 C0,96.8910891 0.709903593,96 1.59333918,96 L9,96 L9,100 L9,100 Z"/>
      <polygon fill="#7F66BF" points="13 194 37 181.944 37 14.056 13 2"/>
      <polygon fill="#DFD8EF" points="34 95 16 94.699 16 9 34 17.691"/>
      <polygon fill="#DFD8EF" points="34 177.411 16 186 16 100.306 34 100"/>
      <polygon fill="#DFD8EF" points="9 192.466 13 194 13 2 9 3.534"/>
    </g>
    <g transform="translate(256 171)">
      <path fill="#FAFCFF" d="M37.6317636,-7.10542736e-15 L7.40229167,12.1386461 C3.31064307,13.7816478 1.31976043,18.4255299 2.95086224,22.5219368 L3.07116076,22.8240588 L3.07116076,22.8240588 C9.81270512,38.5129945 13.3642185,47.3394207 13.725701,49.3033374 C14.0871835,51.2672541 12.7310778,53.5686728 9.65738385,56.2075936 L40.6662168,44.020628 C44.2643016,42.6065236 46.0347672,38.5433414 44.6206626,34.9452567 C44.5742223,34.8270927 44.5245757,34.7102139 44.471778,34.5947503 C37.6251172,19.6217289 33.8984076,10.8727909 33.2916492,8.34793622 C32.5991939,5.46647848 34.0458987,2.68383307 37.6317636,-7.10542736e-15 Z"/>
      <path fill="#D5CCE9" fill-rule="nonzero" d="M23.9838095,31.4288889 L21.7457143,31.4288889 L21.7457143,30.2437037 C21.7457143,29.815718 21.7853964,29.4288906 21.8647619,29.0832099 C21.9441274,28.7375291 22.0592056,28.4247751 22.21,28.1449383 C22.3607944,27.8651015 22.5433323,27.5976144 22.757619,27.3424691 C22.9719058,27.0873238 23.2139669,26.8280672 23.4838095,26.5646914 L24.3647619,25.7004938 C24.71397,25.3877351 25.0036496,25.0461747 25.2338095,24.6758025 C25.4639694,24.3054302 25.5790476,23.832184 25.5790476,23.2560494 C25.5790476,22.465922 25.3369865,21.8362986 24.8528571,21.3671605 C24.3687277,20.8980223 23.7457181,20.6634568 22.9838095,20.6634568 C22.1901548,20.6634568 21.5552405,20.9268286 21.0790476,21.4535802 C20.6028548,21.9803319 20.3250798,22.6223007 20.2457143,23.3795062 L17.96,23.1079012 C18.0552386,22.4000788 18.2536493,21.7622251 18.5552381,21.194321 C18.8568269,20.6264169 19.2338073,20.1449402 19.6861905,19.7498765 C20.1385737,19.3548128 20.6584098,19.0544043 21.2457143,18.848642 C21.8330188,18.6428796 22.46,18.54 23.1266667,18.54 C23.7933367,18.54 24.4163463,18.6387644 24.9957143,18.8362963 C25.5750823,19.0338281 26.0869819,19.3260063 26.5314286,19.7128395 C26.9758752,20.0996727 27.3250781,20.5770342 27.5790476,21.1449383 C27.8330171,21.7128423 27.96,22.3671568 27.96,23.1079012 C27.96,23.6346528 27.904445,24.0955556 27.7933333,24.4906173 C27.6822217,24.885681 27.5274613,25.2437021 27.3290476,25.5646914 C27.1306339,25.8856806 26.8885714,26.1860891 26.6028571,26.4659259 C26.3171414,26.7457627 26.0076207,27.0338257 25.6742857,27.3301235 C25.3568238,27.6099602 25.0869852,27.8609865 24.8647619,28.0832099 C24.6425386,28.3054332 24.4679371,28.5317684 24.3409524,28.7622222 C24.2139676,28.992676 24.1226987,29.2478175 24.0671429,29.5276543 C24.011587,29.8074911 23.9838095,30.1531667 23.9838095,30.5646914 L23.9838095,31.4288889 Z M24.5790476,34.9103704 C24.5790476,35.338356 24.4282555,35.7169531 24.1266667,36.0461728 C23.8250779,36.3753926 23.4441293,36.54 22.9838095,36.54 C22.5393629,36.54 22.1623825,36.3795078 21.8528571,36.0585185 C21.5433318,35.7375293 21.3885714,35.3630474 21.3885714,34.9350617 C21.3885714,34.4906151 21.5393636,34.1079028 21.8409524,33.7869136 C22.1425412,33.4659243 22.5234898,33.3054321 22.9838095,33.3054321 C23.4441293,33.3054321 23.8250779,33.4618091 24.1266667,33.7745679 C24.4282555,34.0873267 24.5790476,34.4659237 24.5790476,34.9103704 Z" transform="rotate(-20 22.96 27.54)"/>
    </g>
  </g>
</svg>
