<svg xmlns="http://www.w3.org/2000/svg" xmlns:xlink="http://www.w3.org/1999/xlink" width="320" height="150" viewBox="0 0 320 150">
  <defs>
    <path id="esign_intro_illustration-a" d="M0,5.99598526 C0,2.68449404 2.69417877,0 6.00121896,0 L313.998781,0 C317.313163,0 320,2.68322128 320,5.99598526 L320,150 L0,150 L0,5.99598526 Z"/>
  </defs>
  <g fill="none" fill-rule="evenodd">
    <mask id="esign_intro_illustration-b" fill="#fff">
      <use xlink:href="#esign_intro_illustration-a"/>
    </mask>
    <path fill="#F4F9FE" fill-rule="nonzero" d="M285.632682,47.2051547 C296.632682,47.2051547 315.632682,47.2051547 319.632682,36.2051547 C323.632682,25.2051547 290.374617,25.850316 282.632682,18.1083805 C274.890746,10.366445 262.407857,11.2051547 250.632682,11.2051547 C238.857507,11.2051547 241.088809,-1.77295985 231.632682,0.205154721 C222.176555,2.18326929 230.632682,12.0957077 227.632682,18.1083805 C227.632682,21.8450928 227.632682,31.5440175 227.632682,47.2051547 C253.966015,47.2051547 273.299348,47.2051547 285.632682,47.2051547 Z" mask="url(#esign_intro_illustration-b)" transform="rotate(180 273.483 23.603)"/>
    <path fill="#F9FCFF" fill-rule="nonzero" d="M51.3379688,100.567618 C112.493953,78.8232682 139.67439,127.748055 139.67439,100.567618 C139.67439,73.3871807 107.057865,59.7969622 90.7496028,43.4886997 C74.4413406,27.1804373 81.5782724,0 56.7740562,0 C31.96984,0 44.4663334,15.2363275 17.3624222,27.1804373 C-9.74148911,39.1245471 -9.81801511,122.311968 51.3379688,100.567618 Z" mask="url(#esign_intro_illustration-b)"/>
    <path fill="#F4F9FF" fill-rule="nonzero" d="M205.266302,132.238402 C261.357223,112.294964 286.28652,157.1677 286.28652,132.238402 C286.28652,107.309104 256.371363,94.8444553 241.413784,79.8868766 C226.456206,64.9292978 233.002042,40 210.252162,40 C187.502282,40 198.96379,53.9744237 174.10468,64.9292978 C149.24557,75.8841719 124.246085,47.4787893 124.246085,79.8868766 C124.246085,112.294964 149.175382,152.18184 205.266302,132.238402 Z" mask="url(#esign_intro_illustration-b)" transform="matrix(-1 0 0 1 410.533 0)"/>
    <g fill="#3792FC" fill-rule="nonzero" mask="url(#esign_intro_illustration-b)">
      <path d="M309.008598,93.761887 C309.096347,93.1894251 309.079633,92.6462131 309.397203,92.140608 C310.036522,91.137755 310.943268,91.3884683 311.820765,91.831395 C312.714975,92.2826789 313.559043,92.5501063 314.528468,92.1322509 C316.045283,91.4762179 316.759816,89.1863703 315.309857,88.1083033 C314.841859,87.7573048 314.37804,88.3339452 314.440718,88.776872 C314.528468,89.3911194 314.833502,90.0722237 314.307004,90.5987216 C313.600829,91.3048972 312.773475,90.7115425 312.067299,90.3939724 C311.306803,90.051331 310.496163,89.976117 309.714773,90.2936871 C308.365101,90.8410777 307.38314,92.6712844 308.457029,93.9081364 C308.607457,94.0794571 308.970991,94.0000646 309.008598,93.761887 L309.008598,93.761887 Z" opacity=".1"/>
      <path d="M.583159963 102.409634C3.33974291 101.658985 6.18463745 100.738022 8.76459724 99.5142754 9.71079276 99.0664095 9.09891965 97.7417357 8.13380022 98.0445183 5.45922088 98.8771704 2.77833357 100.094609.292993336 101.381435-.205336305 101.640061-.0413290814 102.579949.583159963 102.409634L.583159963 102.409634zM249.890243 45.4789613C250.0471 45.987177 250.530218 46.150308 250.969417 45.8491431 252.694841 44.675855 254.41399 43.5276639 256.051574 42.2288904 256.365288 41.9779197 256.296271 41.4759782 255.988832 41.2626531 254.07518 39.9513311 251.496456 38.0125822 249.068314 38 248.453436 37.9937594 248.020511 38.8658827 248.647938 39.223516 249.626724 39.7882001 250.800012 39.9889767 251.847815 40.4219012 253.052474 40.9238426 254.250859 41.5136238 255.317485 42.2728103 255.342582 41.9214513 255.367679 41.5700922 255.386502 41.2187332 253.56069 42.3418272 251.84154 43.6029551 250.109842 44.8578087 250.448653 44.9268257 250.793738 44.9958426 251.132548 45.0648596 250.392184 42.969254 249.632998 40.8924713 248.811069 38.8282371 248.629115 38.3953126 247.888751 38.6337348 248.014237 39.0917563 248.591469 41.237556 249.225171 43.3582586 249.890243 45.4789613z" opacity=".2"/>
      <path d="M18.2335535 48.8900638C19.8387382 49.0110755 21.5257838 49.0573447 23.1309685 48.8971821 23.7217904 48.8402354 23.6470478 48.0358635 23.0740218 48.0145085 21.4937513 47.9540026 19.8387382 48.089251 18.2762635 48.2992419 17.9666159 48.3419519 17.8705184 48.8615904 18.2335535 48.8900638L18.2335535 48.8900638zM303.353395 9.65709608C301.966132 10.9890898 301.441072 13.0616941 302.762012 14.6645082 304.005575 16.1733641 306.42085 16.4884 307.973921 15.2890529 311.732244 12.3874069 307.81364 7.04285115 303.762389 8.14824013 303.010725 8.35273709 303.198641 9.4249644 303.939251 9.46365301 305.122018 9.52997635 306.393215 9.57419191 307.338323 10.4087606 308.35528 11.2985987 308.377388 12.8074547 307.54282 13.8354664 305.332042 16.5491964 301.496342 12.5532152 303.817659 10.1213595 304.116114 9.81737749 303.662904 9.364168 303.353395 9.65709608L303.353395 9.65709608z" opacity=".1"/>
      <path d="M200.009691,8.81881725 C200.442615,10.428167 200.917891,12.018694 201.416695,13.609221 C201.534338,13.9903827 201.896677,14.112731 202.226076,13.8868573 C203.520144,13.0068912 204.809506,12.1457479 206.037694,11.1716678 C206.272979,10.9834397 206.221216,10.6069837 205.990637,10.4469898 C204.555398,9.4634983 202.621355,8.00943666 200.800248,8 C200.33909,7.99531956 200.014396,8.64941201 200.484967,8.91763697 C201.219056,9.34115007 202.099022,9.4917325 202.884874,9.81642588 C203.788369,10.192882 204.687158,10.6352179 205.487127,11.2046077 C205.50595,10.9410884 205.524772,10.6775692 205.538889,10.4140499 C204.16953,11.2563704 202.880168,12.2022163 201.581395,13.1433565 C201.835503,13.1951193 202.094316,13.246882 202.348424,13.2986447 C201.793151,11.7269405 201.223762,10.1693535 200.607315,8.6211778 C200.475555,8.29648443 199.920282,8.47530107 200.009691,8.81881725 L200.009691,8.81881725 Z" opacity=".2" transform="rotate(50 203.095 11)"/>
      <path d="M187.369401,61.1563442 C188.781166,60.4816037 190.227533,59.703057 191.500889,58.7895622 C191.968017,58.453922 191.50781,57.7999428 191.01646,58.0594583 C189.656598,58.7722611 188.327879,59.6926763 187.116806,60.6303926 C186.867671,60.8172438 187.047602,61.3085933 187.369401,61.1563442 L187.369401,61.1563442 Z" opacity=".2" transform="rotate(-80 189.348 59.593)"/>
      <path d="M122.08306,4.8877869 C121.788943,3.35145472 121.40486,1.7528388 120.844306,0.289170984 C120.640154,-0.247161196 119.889289,0.0296554133 120.013856,0.572908008 C120.356417,2.0711779 120.91005,3.58674884 121.508666,4.99851354 C121.629773,5.28571078 122.152265,5.23726787 122.08306,4.8877869 L122.08306,4.8877869 Z" opacity=".2"/>
    </g>
    <g mask="url(#esign_intro_illustration-b)">
      <g transform="translate(158.352 58.045)">
        <g transform="rotate(40 53.636 150.53)">
          <path fill="#E9F4FF" fill-rule="nonzero" d="M45.7346578,59.0294251 C44.7948841,51.7766804 56.9220244,49.7248862 56.6938462,44.4767873 C56.4656679,39.2286884 44.7293173,41.804228 42.5972398,36.9585973 C40.4651623,32.1129666 47.7528664,26.5685698 46.3563348,20.9824434 C44.9598032,15.3963171 40.3748858,18.1914192 36.9585973,14.4040271 C33.9995139,11.1235053 31.2260285,0.906536167 28.0307466,0.307420814 C24.8354647,-0.291694538 25.8803132,7.50666761 21.9222172,11.5847059 C17.9641212,15.6627442 13.8485119,13.4463626 12.5244796,16.2835747 C11.2004474,19.1207867 20.8869315,19.0988446 15.3438009,25.6813122 C9.80067027,32.2637798 1.58350345,27.9565989 0.307420814,33.1995023 C-0.96866182,38.4424057 9.08893536,43.0967812 9.70515837,48.848196 C10.3213814,54.5996108 -1.13146968,50.8559889 0.307420814,60.4529412 C1.74631131,70.0498935 11.9390584,76.6838157 16.6700304,83.4175432 C21.514135,79.3528569 40.8905533,63.0941114 45.7346578,59.0294251 Z"/>
          <path fill="#C0D2E4" fill-rule="nonzero" d="M47.6736246,70.806517 C43.0628249,71.8576706 39.2956976,73.2927667 36.3722427,75.1118053 C33.4487879,76.9308439 30.7579827,80.5185842 28.2998271,85.8750261 L28.2998271,84.798704 C30.9743475,79.546094 33.6651527,76.1377407 36.3722427,74.5736443 C39.0793327,73.0095478 42.84646,71.7538387 47.6736246,70.806517 Z"/>
          <path fill="#C0D2E4" fill-rule="nonzero" d="M27.7616661,61.1196183 C23.1508664,62.1707719 19.3837391,63.605868 16.4602843,65.4249066 C13.5368294,67.2439452 10.6666372,70.8316854 7.84970762,76.1881274 L7.84970762,75.1118053 C10.883002,69.8591953 13.7531943,66.450842 16.4602843,64.8867456 C19.1673743,63.3226491 22.9345015,62.06694 27.7616661,61.1196183 Z" transform="matrix(-1 0 0 1 35.611 0)"/>
          <path fill="#C0D2E4" fill-rule="nonzero" d="M52.5170739,44.4366261 C46.4711781,45.4877797 41.9865028,46.9228758 39.0630479,48.7419144 C36.1395931,50.560953 32.5518528,54.1486932 28.2998271,59.5051352 L28.2998271,58.4288131 C32.7682177,53.176203 36.3559579,49.7678498 39.0630479,48.2037533 C41.7701379,46.6396569 46.2548132,45.3839478 52.5170739,44.4366261 Z"/>
          <path fill="#C0D2E4" fill-rule="nonzero" d="M27.7616661,34.7497273 C21.7157703,35.800881 17.231095,37.2359771 14.3076401,39.0550157 C11.3841852,40.8740542 7.79644497,44.4617945 3.54441931,49.8182365 L3.54441931,48.7419144 C8.01280984,43.4893043 11.6005501,40.0809511 14.3076401,38.5168546 C17.0147301,36.9527582 21.4994054,35.6970491 27.7616661,34.7497273 Z" transform="matrix(-1 0 0 1 31.306 0)"/>
          <path fill="#C0D2E4" fill-rule="nonzero" d="M44.6368587,26.1391507 C39.886512,26.9650571 36.3628385,28.0926326 34.0658383,29.5218772 C31.768838,30.9511218 28.9498992,33.7700606 25.6090219,37.9786936 L25.6090219,37.133012 C29.1199002,33.0059612 31.938839,30.3279693 34.0658383,29.0990364 C36.1928375,27.8701035 39.716511,26.8834749 44.6368587,26.1391507 Z" transform="rotate(-20 35.123 32.059)"/>
          <path fill="#C0D2E4" fill-rule="nonzero" d="M29.0109685,18.0667351 C25.3402461,18.7049355 22.6174075,19.5762439 20.8424527,20.6806602 C19.067498,21.7850765 16.8892271,23.9633473 14.3076401,27.2154728 L14.3076401,26.5619915 C17.0205915,23.3729069 19.1988624,21.3035495 20.8424527,20.3539195 C22.4860431,19.4042896 25.2088817,18.6418947 29.0109685,18.0667351 Z" transform="scale(-1 1) rotate(-10 0 270.208)"/>
          <polygon fill="#C0D2E4" fill-rule="nonzero" points="28.024 .307 28.78 73.256 27.811 74.069"/>
        </g>
        <g transform="scale(-1 1) rotate(50 -56.18 -11.205)">
          <path fill="#E9F4FF" fill-rule="nonzero" d="M35.0986909,45.3016518 C34.3774692,39.7355919 43.6843443,38.1609592 43.5092308,34.1333484 C43.3341173,30.1057376 34.3271505,32.0823145 32.690905,28.3635747 C31.0546594,24.6448348 36.6475487,20.3898326 35.5757919,16.1028054 C34.5040351,11.8157782 30.9853774,13.9608566 28.3635747,11.0542534 C26.0926502,8.5366436 23.9641614,0.695713803 21.5119683,0.235927602 C19.0597753,-0.223858599 19.8616357,5.76093096 16.8240271,8.89058824 C13.7864186,12.0202455 10.6279278,10.3193016 9.61180995,12.4966968 C8.59569216,14.6740921 16.0295056,14.6572528 11.7754751,19.708914 C7.52144463,24.7605752 1.21524683,21.4550642 0.235927602,25.4786878 C-0.74339163,29.5023113 6.97522946,33.0742739 7.4481448,37.4881504 C7.92106013,41.9020269 -0.868337195,39.0290147 0.235927602,46.3941176 C1.3401924,53.7592206 9.16253322,58.8503702 12.7932792,64.0181146 C16.5108478,60.8987041 31.3811223,48.4210623 35.0986909,45.3016518 Z"/>
          <path fill="#C0D2E4" fill-rule="nonzero" d="M36.5867351,54.3398851 C33.0482144,55.1465844 30.1571633,56.2479373 27.9135816,57.6439436 C25.67,59.03995 23.6049634,61.793332 21.718472,65.9040898 L21.718472,65.0780752 C23.7710109,61.0470023 25.8360474,58.4312894 27.9135816,57.2309363 C29.9911158,56.0305832 32.882167,55.0668995 36.5867351,54.3398851 Z"/>
          <path fill="#C0D2E4" fill-rule="nonzero" d="M21.3054647,46.9057536 C17.766944,47.7124529 14.8758928,48.8138057 12.6323112,50.209812 C10.3887295,51.6058184 8.18602388,54.3592005 6.02419422,58.4699582 L6.02419422,57.6439436 C8.35207134,53.6128708 10.554777,50.9971578 12.6323112,49.7968047 C14.7098454,48.5964517 17.6008965,47.6327679 21.3054647,46.9057536 Z" transform="matrix(-1 0 0 1 27.33 0)"/>
          <path fill="#C0D2E4" fill-rule="nonzero" d="M40.3038009,34.102527 C35.6639274,34.9092263 32.2221998,36.0105791 29.9786182,37.4065855 C27.7350365,38.8025918 24.9816545,41.5559739 21.718472,45.6667316 L21.718472,44.840717 C25.1477019,40.8096442 27.901084,38.1939312 29.9786182,36.9935781 C32.0561524,35.7932251 35.4978799,34.8295413 40.3038009,34.102527 Z"/>
          <path fill="#C0D2E4" fill-rule="nonzero" d="M21.3054647,26.6683954 C16.6655912,27.4750947 13.2238636,28.5764475 10.9802819,29.9724539 C8.73670029,31.3684602 5.98331823,34.1218423 2.72013575,38.2326001 L2.72013575,37.4065855 C6.14936569,33.3755126 8.90274775,30.7597997 10.9802819,29.5594466 C13.0578161,28.3590935 16.4995437,27.3954098 21.3054647,26.6683954 Z" transform="matrix(-1 0 0 1 24.026 0)"/>
          <path fill="#C0D2E4" fill-rule="nonzero" d="M34.2561939,20.0602785 C30.610579,20.6941136 27.9063644,21.5594623 26.1435503,22.6563244 C24.3807361,23.7531865 22.2173645,25.9165582 19.6534354,29.1464393 L19.6534354,28.4974278 C22.3478304,25.3301563 24.511202,23.2749532 26.1435503,22.3318187 C27.7758986,21.3886841 30.4801131,20.631504 34.2561939,20.0602785 Z" transform="rotate(-20 26.955 24.603)"/>
          <path fill="#C0D2E4" fill-rule="nonzero" d="M22.2642316,13.8651688 C19.4471656,14.3549505 17.3575453,15.023629 15.9953707,15.8712043 C14.6331961,16.7187796 12.9614999,18.3904759 10.9802819,20.8862931 L10.9802819,20.3847842 C13.0623144,17.9373471 14.7340107,16.3492357 15.9953707,15.6204499 C17.2567307,14.8916641 19.346351,14.3065704 22.2642316,13.8651688 Z" transform="scale(-1 1) rotate(-10 0 207.369)"/>
          <polygon fill="#C0D2E4" fill-rule="nonzero" points="21.507 .236 22.087 56.22 21.344 56.843"/>
        </g>
        <g transform="rotate(60 36.722 138.945)">
          <path fill="#E1ECF7" d="M46.4903811,28.0455173 C44.7988374,20.996005 37.2475566,11.6474992 23.8365385,0 C7.94551282,11.1280494 0,23.5556464 0,37.2827909 C0,50.7068117 5.7923073,61.2737254 20.9892682,72.2121704 C21.4892682,71.346145 45.4903811,29.7775681 46.4903811,28.0455173 Z"/>
          <path fill="#A9C3DE" fill-rule="nonzero" d="M28.1949488,57.5893294 C26.0658082,60.1602336 24.7324749,62.4696347 24.1949488,64.5175326 L24.0834073,61.9733241 C25.0171973,60.0683613 26.099036,58.4403631 27.3289234,57.0893294 C28.5588108,55.7382957 29.9694944,54.6282533 31.5609742,53.7592024 C31.4460978,53.7417161 30.3240894,55.0184251 28.1949488,57.5893294 Z"/>
          <path fill="#A9C3DE" fill-rule="nonzero" d="M23.6328074,46.0432281 C20.1417955,46.8390965 17.2895601,47.9256624 15.0761012,49.3029257 C12.8626424,50.680189 10.6895106,53.3966037 8.55670611,57.4521696 L8.55670611,56.6372452 C10.8533287,52.6602943 13.0264604,50.0797004 15.0761012,48.8954635 C17.1257421,47.7112266 19.9779774,46.7604815 23.6328074,46.0432281 Z" transform="matrix(-1 0 0 1 32.19 0)"/>
          <path fill="#A9C3DE" fill-rule="nonzero" d="M42.3760684,33.4119001 C37.7984907,34.2077685 34.4029724,35.2943343 32.1895135,36.6715976 C29.9760546,38.0488609 27.2596399,40.7652756 24.0402696,44.8208416 L24.0402696,44.0059172 C27.423458,40.0289663 30.1398727,37.4483724 32.1895135,36.2641354 C34.2391543,35.0798985 37.6346726,34.1291534 42.3760684,33.4119001 Z"/>
          <path fill="#A9C3DE" fill-rule="nonzero" d="M23.6328074,26.0775805 C19.0552297,26.8734489 15.6597114,27.9600148 13.4462525,29.3372781 C11.2327936,30.7145414 8.51637893,33.4309561 5.29700855,37.486522 L5.29700855,36.6715976 C8.68019701,32.6946467 11.3966116,30.1140528 13.4462525,28.9298159 C15.4958933,27.745579 18.8914116,26.7948339 23.6328074,26.0775805 Z" transform="matrix(-1 0 0 1 28.93 0)"/>
          <path fill="#A9C3DE" fill-rule="nonzero" d="M36.4096577,19.5581854 C32.8129895,20.1835106 30.1450822,21.0372409 28.4059359,22.1193764 C26.6667897,23.2015118 24.5324639,25.3358376 22.0029586,28.5223537 L22.0029586,27.882056 C24.6611781,24.7573088 26.7955039,22.7296993 28.4059359,21.7992275 C30.016368,20.8687556 32.6842753,20.1217416 36.4096577,19.5581854 Z" transform="rotate(-20 29.206 24.04)"/>
          <path fill="#A9C3DE" fill-rule="nonzero" d="M24.5787017,13.4462525 C21.7994581,13.9294583 19.7378935,14.589159 18.3940077,15.4253546 C17.0501219,16.2615501 15.4008702,17.9108019 13.4462525,20.3731098 L13.4462525,19.8783343 C15.5003312,17.4637569 17.1495829,15.8969678 18.3940077,15.1779668 C19.6384325,14.4589658 21.6999972,13.8817277 24.5787017,13.4462525 Z" transform="scale(-1 1) rotate(-10 0 234.223)"/>
          <polygon fill="#A9C3DE" fill-rule="nonzero" points="23.832 0 24.49 66.151 23.49 67.883"/>
        </g>
      </g>
    </g>
    <g mask="url(#esign_intro_illustration-b)">
      <g transform="rotate(-50 135.02 68.202)">
        <path fill="#DCEEFF" d="M26.7081285,66.3770556 C34.4149926,58.7378716 38.6589497,53.8388531 39.44,51.68 C40.9855901,47.4079295 34.68,48.7679295 34,43.52 C33.32,38.2720705 41.6451048,36.4374111 41.48,32.64 C41.3148952,28.8425889 32.8227253,30.7061938 31.28,27.2 C29.7372747,23.6938062 35.0105001,19.6820004 34,15.64 C32.9894999,11.5979996 29.6719526,13.6204751 27.2,10.88 C25.0588712,8.50628522 23.052037,1.11350693 20.74,0.68 C18.427963,0.246493066 19.1839928,5.88921955 16.32,8.84 C13.4560072,11.7907804 10.4780412,10.1870546 9.52,12.24 C8.56195883,14.2929454 15.5708896,14.2770685 11.56,19.04 C7.54911035,23.8029315 1.60334584,20.6863483 0.68,24.48 C-0.243345844,28.2736517 7.03411433,31.6414574 7.48,35.8030569 C7.73029107,38.1391069 5.62635922,37.8705247 3.56777455,38.7994556 C3.99629962,39.3101519 11.7097509,48.5026852 26.7081285,66.3770556 Z"/>
        <path fill="#BED7EE" fill-rule="nonzero" d="M34.9531624,51.6916239 C31.6168873,52.452216 28.8910753,53.4906206 26.7757265,54.8068376 C24.6603777,56.1230547 22.7133691,58.719066 20.9347009,62.5948718 L20.9347009,61.8160684 C22.8699261,58.0153931 24.8169346,55.5491823 26.7757265,54.4174359 C28.7345184,53.2856895 31.4603303,52.3770855 34.9531624,51.6916239 Z"/>
        <path fill="#BED7EE" fill-rule="nonzero" d="M20.5452991,44.6823932 C17.209024,45.4429852 14.4832121,46.4813898 12.3678632,47.7976068 C10.2525144,49.1138239 8.17570531,51.7098353 6.1374359,55.585641 L6.1374359,54.8068376 C8.33226226,51.0061624 10.4090714,48.5399515 12.3678632,47.4082051 C14.3266551,46.2764587 17.0524671,45.3678547 20.5452991,44.6823932 Z" transform="matrix(-1 0 0 1 26.683 0)"/>
        <path fill="#BED7EE" fill-rule="nonzero" d="M38.4577778,32.6109402 C34.0830981,33.3715322 30.8380839,34.4099368 28.722735,35.7261538 C26.6073862,37.0423709 24.0113748,39.6383823 20.9347009,43.514188 L20.9347009,42.7353846 C24.1679318,38.9347094 26.7639432,36.4684986 28.722735,35.3367521 C30.6815269,34.2050057 33.9265412,33.2964017 38.4577778,32.6109402 Z"/>
        <path fill="#BED7EE" fill-rule="nonzero" d="M20.5452991,25.6017094 C16.1706195,26.3623015 12.9256052,27.400706 10.8102564,28.7169231 C8.69490759,30.0331401 6.09889619,32.6291515 3.02222222,36.5049573 L3.02222222,35.7261538 C6.25545314,31.9254786 8.85146454,29.4592678 10.8102564,28.3275214 C12.7690483,27.195775 16.0140625,26.287171 20.5452991,25.6017094 Z" transform="matrix(-1 0 0 1 23.568 0)"/>
        <path fill="#BED7EE" fill-rule="nonzero" d="M32.7558242,19.3712821 C29.3185759,19.9688901 26.7689218,20.7847794 25.106862,21.8189499 C23.4448022,22.8531205 21.405079,24.8928437 18.9876923,27.9381197 L18.9876923,27.3262027 C21.528088,24.3399579 23.5678113,22.4022208 25.106862,21.5129915 C26.6459128,20.6237621 29.1955668,19.909859 32.7558242,19.3712821 Z" transform="rotate(-20 25.872 23.655)"/>
        <path fill="#BED7EE" fill-rule="nonzero" d="M21.4492674,13.5302564 C18.7932119,13.9920445 16.8230247,14.6225044 15.5387057,15.4216361 C14.2543868,16.2207679 12.678237,17.7969177 10.8102564,20.1500855 L10.8102564,19.6772405 C12.7732895,17.3696877 14.3494392,15.8723454 15.5387057,15.1852137 C16.7279722,14.4980819 18.6981595,13.9464295 21.4492674,13.5302564 Z" transform="scale(-1 1) rotate(-10 0 201.204)"/>
        <polygon fill="#BED7EE" fill-rule="nonzero" points="20.735 .68 20.923 59.483 20.28 58.717"/>
      </g>
    </g>
    <g fill-rule="nonzero" mask="url(#esign_intro_illustration-b)">
      <g transform="rotate(-30 183.207 36.602)">
        <path fill="#E9F4FF" d="M48.72,63.84 C50.6292583,58.5627364 42.84,60.2427364 42,53.76 C41.16,47.2772636 51.443953,45.0109195 51.24,40.32 C51.036047,35.6290805 40.5457194,37.9311806 38.64,33.6 C36.7342806,29.2688194 43.2482648,24.3130594 42,19.32 C40.7517352,14.3269406 36.6535885,16.8252928 33.6,13.44 C30.9550761,10.5077641 28.4760457,1.37550857 25.62,0.84 C22.7639543,0.304491434 23.6978734,7.27491827 20.16,10.92 C16.6221266,14.5650817 12.9434626,12.5840087 11.76,15.12 C10.5765374,17.6559913 19.2346284,17.6363788 14.28,23.52 C9.32537161,29.4036212 1.98060369,25.5537244 0.84,30.24 C-0.30060369,34.9262756 8.68920006,39.0865061 9.24,44.2273056 C9.79079994,49.3681051 -0.446126588,46.0219355 0.84,54.6 C1.69741773,60.3187097 6.28799636,65.5200015 14.6117359,70.2038755 C36.0777398,69.4794676 47.4471611,67.3581757 48.72,63.84 Z"/>
        <path fill="#C9DAEC" d="M43.1774359,63.854359 C39.0561549,64.7939139 35.6889754,66.0766489 33.0758974,67.7025641 C30.4628195,69.3284793 28.0576913,72.5353169 25.8605128,77.3230769 L25.8605128,76.3610256 C28.2510851,71.6660739 30.6562134,68.6195782 33.0758974,67.2215385 C35.4955815,65.8234988 38.862761,64.7011056 43.1774359,63.854359 Z"/>
        <path fill="#C9DAEC" d="M25.3794872,55.1958974 C21.2582062,56.1354523 17.8910267,57.4181874 15.2779487,59.0441026 C12.6648708,60.6700177 10.0994007,63.8768553 7.58153846,68.6646154 L7.58153846,67.7025641 C10.2927946,63.0076123 12.8582646,59.9611166 15.2779487,58.5630769 C17.6976328,57.1650372 21.0648123,56.0426441 25.3794872,55.1958974 Z" transform="matrix(-1 0 0 1 32.961 0)"/>
        <path fill="#C9DAEC" d="M47.5066667,40.2841026 C42.1026506,41.2236575 38.0941036,42.5063925 35.4810256,44.1323077 C32.8679477,45.7582229 29.6611101,48.9650605 25.8605128,53.7528205 L25.8605128,52.7907692 C29.854504,48.0958175 33.0613416,45.0493217 35.4810256,43.6512821 C37.9007097,42.2532424 41.9092567,41.1308492 47.5066667,40.2841026 Z"/>
        <path fill="#C9DAEC" d="M25.3794872,31.625641 C19.9754711,32.5651959 15.9669241,33.847931 13.3538462,35.4738462 C10.7407682,37.0997613 7.53393059,40.3065989 3.73333333,45.094359 L3.73333333,44.1323077 C7.72732447,39.4373559 10.9341621,36.3908602 13.3538462,34.9928205 C15.7735302,33.5947808 19.7820772,32.4723877 25.3794872,31.625641 Z" transform="matrix(-1 0 0 1 29.113 0)"/>
        <path fill="#C9DAEC" d="M40.4630769,23.9292308 C36.2170643,24.6674525 33.0674917,25.6753157 31.014359,26.9528205 C28.9612263,28.2303253 26.4415682,30.7499834 23.4553846,34.5117949 L23.4553846,33.7558974 C26.5935205,30.0670068 29.1131786,27.6733316 31.014359,26.5748718 C32.9155393,25.476412 36.065112,24.5945317 40.4630769,23.9292308 Z" transform="rotate(-20 31.96 29.22)"/>
        <path fill="#C9DAEC" d="M26.4961538,16.7138462 C23.2151441,17.2842902 20.7813834,18.0630936 19.1948718,19.0502564 C17.6083602,20.0374192 15.6613516,21.9844277 13.3538462,24.8912821 L13.3538462,24.3071795 C15.7787693,21.4566731 17.7257779,19.6070149 19.1948718,18.7582051 C20.6639657,17.9093953 23.0977264,17.2279423 26.4961538,16.7138462 Z" transform="scale(-1 1) rotate(-10 0 248.546)"/>
        <polygon fill="#C9DAEC" points="25.614 .84 25.87 76.704 25.004 76.204"/>
      </g>
    </g>
    <g mask="url(#esign_intro_illustration-b)">
      <g transform="rotate(20 -5.914 95.086)">
        <g fill-rule="nonzero" transform="rotate(-15 75.808 -272.676)">
          <path fill="#B28B67" d="M6.99719717,28.9506883 C3.09482695,24.4106337 0.45362116,18.8467341 0.8949682,12.6122248 C2.16661191,-5.35113238 27.3954907,-1.39942267 32.3030299,7.66693747 C37.2105691,16.7332976 36.6274259,39.730872 30.2848687,41.3512834 C27.7554656,41.9975013 22.3670851,40.4145263 16.8829707,37.1382548 L20.3252439,61.2755141 L0,61.2755141 L6.99719717,28.9506883 Z" transform="translate(.386 1.785)"/>
          <path fill="#191847" d="M18.2854655,16.3808192 C19.0634853,27.1226488 21.1215535,32.4935637 24.45967,32.4935637 C29.467138,32.4935637 33.7156188,29.3427856 35.9127752,29.3427856 C37.5144279,29.3427856 37.1568285,31.3293682 36.0951689,32.802278 C35.2192665,34.017476 30.9536921,35.1887816 30.9536921,37.0727464 C30.9536921,38.9567113 34.3238498,37.4991916 34.3238498,38.6165343 C34.3238498,40.4647556 34.9161497,43.9397422 31.6797324,43.9397422 C28.4043702,43.9397422 19.013327,42.7567003 17.4039565,37.9385045 C16.3653159,34.828982 15.69376,28.3854695 15.3892891,18.607967 C15.1905951,18.5845655 14.9883842,18.5725276 14.7833367,18.5725276 C11.9770062,18.5725276 9.70202569,20.8273755 9.70202569,23.6088712 C9.70202569,25.0209094 10.2883174,26.2972237 11.2327834,27.2117153 C10.0570369,28.856587 8.73936241,30.5748758 7.22944817,32.3479265 C1.55702752,28.9748218 -2.6522312,19.1004802 2.89348072,9.61478468 C4.42633291,4.96788996 7.89649586,2.4858088 11.9948418,1.33329887 C15.3147132,-0.0431243617 18.7610539,-0.198317337 21.6702563,0.626836001 C27.3730986,1.11166167 32.4654632,2.83522394 33.9086804,3.85880516 C33.9086804,9.21010853 32.8625313,10.7978245 23.9269912,10.6578732 C21.7313842,11.8071536 20.0435123,13.786213 18.2854655,16.3808192 Z"/>
        </g>
        <g fill-rule="nonzero" transform="translate(0 139.505)">
          <path fill="#B28B67" d="M91.0397862,0 C90.5971624,36.8273432 84.1420797,86.4093834 83.1107759,88.7050123 C82.4232394,90.2354319 58.6883745,109.697382 11.9061816,147.090862 L19.4885281,155.173539 C74.6871813,123.113321 103.56367,104.945191 106.117991,100.669148 C109.949474,94.255083 122.423464,35.2320229 132.438388,0 L91.0397862,0 Z"/>
          <path fill="#89C5CC" d="M22.7328492,134.050881 L57.0656093,174.53217 C93.2275655,135.189325 114.310081,109.518112 120.313155,97.5185298 C126.316228,85.5189485 131.712686,53.0127717 136.502528,0 L83.723984,0 C81.1075293,46.6383241 79.3438571,71.0426409 78.4329667,73.2129504 C77.5220762,75.3832598 58.9553703,95.6625701 22.7328492,134.050881 Z"/>
        </g>
        <g fill-rule="nonzero" transform="rotate(-10 372.685 -80.12)">
          <path fill="#3792FC" d="M76.8930585,9.54799248 L84.0793773,7.66461117 C99.6941791,18.8777098 110.550618,36.3570574 123.359108,53.6423125 C112.733924,56.489322 99.2109622,60.1127886 89.5517039,62.700979 C80.523226,45.8471036 77.8554945,26.2750194 76.8930585,9.54799248 Z" transform="rotate(5 100.126 35.183)"/>
          <path fill="#FFF" d="M101.965691,59.0699235 C95.6581061,43.2924672 89.8409721,26.1618405 89.8409721,6.04368005 L71.1506365,3.12727654 C59.8045121,21.2853512 54.2982078,41.9262663 50.7555065,68.0996287 C53.7101113,67.5786842 96.0568447,60.1118126 101.965691,59.0699235 Z"/>
          <path fill="#3792FC" d="M47.8130566,27.4462624 C45.0985199,26.6698115 42.9488879,24.8588857 41.3641605,22.0134849 C34.5328097,9.74769621 36.9999302,2.99447101 44.3004777,0.774647744 C51.6010254,-1.44517551 58.1115852,3.12727654 69.7433089,3.12727654 C70.375978,3.12727654 70.9554311,3.16674294 71.4816689,3.24567574 L77.3327173,3.57790902 C81.7110417,18.3434716 86.3110713,37.4775197 91.1328059,60.9800535 C55.6797268,67.2313879 33.685687,71.1095305 25.1506864,72.6144814 C31.3521522,50.1970368 37.7897039,41.1833877 47.8130566,27.4462624 Z"/>
        </g>
      </g>
    </g>
    <g mask="url(#esign_intro_illustration-b)">
      <g transform="translate(183 81)">
        <g transform="translate(24)">
          <path fill="#9FCBFF" d="M40.25,0 C43.4212036,0 46,2.50248125 46,5.57983848 L46,12.6050404 C46,12.7477984 45.9779597,12.885513 45.9369975,13.0151579 C45.9778972,13.1480721 46,13.29018 46,13.4375 L46,63.3796923 C46,66.4793688 43.4212036,69 40.25,69 L5.75,69 C2.57879637,69 0,66.4793688 0,63.3796923 L0,13.4375 C0,13.29018 0.0221028321,13.1480721 0.0631767419,13.0143079 C0.0220403403,12.885513 0,12.7477984 0,12.6050404 L0,5.57983848 C0,2.50248125 2.57879637,0 5.75,0 L40.25,0 Z"/>
          <polygon fill="#D7EAFF" points="2 55 44 55 44 14 2 14"/>
          <path fill="#D7EAFF" d="M2 57L2 63.6464713C2 65.4951695 3.34619135 67 5 67L41 67C42.6538087 67 44 65.4951695 44 63.6464713L44 57 2 57zM2 12L44 12 44 5.31337972C44 3.48681437 42.6538087 2 41 2L5 2C3.34619135 2 2 3.48681437 2 5.31337972L2 12z"/>
          <path fill="#A3CEFF" fill-rule="nonzero" d="M27 64L19 64C17.8954305 64 17 63.1045695 17 62 17 60.8954305 17.8954305 60 19 60L27 60C28.1045695 60 29 60.8954305 29 62 29 63.1045695 28.1045695 64 27 64zM24 6C24.5522847 6 25 6.44771525 25 7 25 7.55228475 24.5522847 8 24 8L17 8C16.4477153 8 16 7.55228475 16 7 16 6.44771525 16.4477153 6 17 6L24 6zM30 6C30.5522847 6 31 6.44771525 31 7 31 7.55228475 30.5522847 8 30 8L28 8C27.4477153 8 27 7.55228475 27 7 27 6.44771525 27.4477153 6 28 6L30 6z"/>
        </g>
        <g transform="translate(0 19)">
          <path fill="#3792FC" d="M4,0 L32,0 C34.209139,-4.05812251e-16 36,1.790861 36,4 L36,18 C36,20.209139 34.209139,22 32,22 L4,22 C1.790861,22 2.705415e-16,20.209139 0,18 L0,4 C-2.705415e-16,1.790861 1.790861,4.05812251e-16 4,0 Z"/>
          <path fill="#D7EAFF" d="M26.5 13.75C26.7761424 13.75 27 13.9738576 27 14.25L27 14.375C27 14.6511424 26.7761424 14.875 26.5 14.875L18.5 14.875C18.2238576 14.875 18 14.6511424 18 14.375L18 14.25C18 13.9738576 18.2238576 13.75 18.5 13.75L26.5 13.75zM26.5 10.375C26.7761424 10.375 27 10.5988576 27 10.875L27 11C27 11.2761424 26.7761424 11.5 26.5 11.5L18.5 11.5C18.2238576 11.5 18 11.2761424 18 11L18 10.875C18 10.5988576 18.2238576 10.375 18.5 10.375L26.5 10.375zM31 7C31.2761424 7 31.5 7.22385763 31.5 7.5L31.5 7.625C31.5 7.90114237 31.2761424 8.125 31 8.125L18.5 8.125C18.2238576 8.125 18 7.90114237 18 7.625L18 7.5C18 7.22385763 18.2238576 7 18.5 7L31 7zM13.5 16.875C13.5 14.3897186 11.4852814 12.375 9 12.375 6.51471863 12.375 4.5 14.3897186 4.5 16.875 6.75 16.875 11.25 16.875 13.5 16.875z"/>
          <circle cx="9" cy="7.875" r="2.25" fill="#D7EAFF" stroke="#D7EAFF"/>
        </g>
        <g transform="rotate(-6 307.564 -424.553)">
          <path fill="#3792FC" fill-rule="nonzero" d="M13.0225891,7.93842762 C16.3674322,6.42209875 19.4892858,4.54898661 22.2097582,1.96230795 C22.9233247,1.24874142 22.3435519,0.0891958159 21.4069958,0.044597908 C19.1771004,-0.044597908 17.4823799,1.33793724 15.8322573,2.63127657 C14.4051243,3.70162636 13.067187,4.86117197 11.7292498,6.10991339 C8.29521088,7.62624226 4.59358452,8.69659205 0.981153975,9.72234393 C-0.401381172,10.1237251 0.178391632,12.2644247 1.56092678,11.8630435 C3.79082218,11.2386728 6.02071757,10.5697042 8.20601506,9.81153975 C6.06531548,12.3090226 4.19220335,15.029495 2.58667866,17.928359 C1.87311213,19.1771004 3.79082218,20.2920481 4.5043887,19.0433067 C6.42209875,15.6092678 8.74118996,12.3982184 11.4616623,9.49935439 C11.9522393,8.9641795 12.4874142,8.4290046 13.0225891,7.93842762 Z"/>
          <path fill="#3792FC" fill-rule="nonzero" d="M32.6456686,8.4290046 C31.486123,8.56279833 29.9697941,8.9641795 28.7210527,8.91958159 C28.7210527,8.78578787 28.6764548,8.65199414 28.6318569,8.47360251 C28.4534653,7.93842762 27.8736925,7.49244854 27.2493218,7.71543808 C26.8925385,7.8492318 24.3058598,8.91958159 24.0828703,8.51820042 C23.8152828,8.02762343 23.0571184,7.76003598 22.5665414,8.11681925 C21.2286042,9.05337531 19.9352649,9.5439523 18.418936,9.72234393 C18.5527297,9.45475649 18.6865234,9.14257113 18.8649151,8.87498368 C19.3554921,8.11681925 18.5081318,6.86807782 17.6161736,7.22486109 C15.520072,8.02762343 13.5131661,8.9641795 11.5508582,10.0791272 C10.3021167,10.7926937 11.4170644,12.7104038 12.6658059,11.9968372 C13.7361556,11.4170644 14.8065054,10.8372916 15.9214531,10.3467146 C15.9214531,10.4359105 15.8768552,10.4805084 15.8768552,10.5697042 C15.7876594,11.2832707 16.1444427,11.9522393 16.947205,11.9968372 C19.1325025,12.0860331 21.1394084,11.5954561 22.9679226,10.5251063 C23.9936745,11.1940749 25.4208075,10.7480958 26.7141469,10.3021167 C26.8479406,10.6589 27.115528,10.9710854 27.4723113,11.0602812 C29.1224339,11.3278686 30.995546,10.8818895 32.6456686,10.7034979 C34.0282038,10.5251063 34.0728017,8.29521088 32.6456686,8.4290046 Z"/>
        </g>
      </g>
    </g>
    <path fill="#3792FC" d="M139.469727,29.7373047 C139.071289,29.7373047 138.689453,29.6376953 138.324219,29.421875 C137.59375,29.0068359 137.37793,28.2597656 137.37793,27.6621094 C137.37793,27.3964844 137.411133,27.1142578 137.494141,26.7988281 C137.958984,24.8564453 138.97168,23.2958984 140.050781,21.7685547 C141.461914,19.7929688 142.823242,17.734375 142.823242,14.8125 C142.823242,12.4716797 142.192383,11.3095703 140.947266,11.3095703 C139.834961,11.3095703 138.457031,12.2558594 137.37793,13.8496094 C137.162109,14.1484375 136.929688,14.2978516 136.664062,14.2978516 C136.348633,14.2978516 136.116211,14.1982422 136,14.015625 C135.883789,13.8164062 135.817383,13.6503906 135.817383,13.5341797 C135.817383,13.3515625 135.883789,13.1689453 136.016602,12.9697266 C137.228516,11.0273438 139.204102,9.43359375 141.611328,9.43359375 C145.164062,9.3671875 146.774414,12.6542969 146.791016,15.8085938 C146.791016,18.265625 145.479492,20.4570312 144.101562,22.5986328 C142.956055,24.3916016 141.860352,26.234375 141.378906,28.3427734 C141.163086,29.2558594 140.349609,29.7373047 139.469727,29.7373047 Z M139.635742,35.9628906 C139.087891,35.9628906 138.606445,35.6972656 138.208008,35.1826172 C137.826172,34.6679688 137.626953,34.0371094 137.626953,33.2900391 C137.626953,32.5429688 137.826172,31.9121094 138.208008,31.3974609 C138.606445,30.8662109 139.087891,30.6005859 139.635742,30.6005859 C140.183594,30.6005859 140.665039,30.8662109 141.046875,31.3974609 C141.445312,31.9121094 141.644531,32.5429688 141.644531,33.2900391 C141.644531,34.0371094 141.445312,34.6679688 141.046875,35.1826172 C140.665039,35.6972656 140.183594,35.9628906 139.635742,35.9628906 Z" mask="url(#esign_intro_illustration-b)" transform="rotate(7 141.304 22.698)"/>
    <path fill="#DCEEFF" d="M153.449219,43.2851562 C153.167969,43.2851562 152.898438,43.2148438 152.640625,43.0625 C152.125,42.7695312 151.972656,42.2421875 151.972656,41.8203125 C151.972656,41.6328125 151.996094,41.4335938 152.054688,41.2109375 C152.382812,39.8398438 153.097656,38.7382812 153.859375,37.6601562 C154.855469,36.265625 155.816406,34.8125 155.816406,32.75 C155.816406,31.0976562 155.371094,30.2773438 154.492188,30.2773438 C153.707031,30.2773438 152.734375,30.9453125 151.972656,32.0703125 C151.820312,32.28125 151.65625,32.3867188 151.46875,32.3867188 C151.246094,32.3867188 151.082031,32.3164062 151,32.1875 C150.917969,32.046875 150.871094,31.9296875 150.871094,31.8476562 C150.871094,31.71875 150.917969,31.5898438 151.011719,31.4492188 C151.867188,30.078125 153.261719,28.953125 154.960938,28.953125 C157.46875,28.90625 158.605469,31.2265625 158.617188,33.453125 C158.617188,35.1875 157.691406,36.734375 156.71875,38.2460938 C155.910156,39.5117188 155.136719,40.8125 154.796875,42.3007812 C154.644531,42.9453125 154.070312,43.2851562 153.449219,43.2851562 Z M153.566406,47.6796875 C153.179688,47.6796875 152.839844,47.4921875 152.558594,47.1289062 C152.289062,46.765625 152.148438,46.3203125 152.148438,45.7929688 C152.148438,45.265625 152.289062,44.8203125 152.558594,44.4570312 C152.839844,44.0820312 153.179688,43.8945312 153.566406,43.8945312 C153.953125,43.8945312 154.292969,44.0820312 154.5625,44.4570312 C154.84375,44.8203125 154.984375,45.265625 154.984375,45.7929688 C154.984375,46.3203125 154.84375,46.765625 154.5625,47.1289062 C154.292969,47.4921875 153.953125,47.6796875 153.566406,47.6796875 Z" mask="url(#esign_intro_illustration-b)" transform="scale(1 -1) rotate(-5 -722.838 0)"/>
    <path fill="#DCEEFF" d="M112.0718,20.5881381 C113.6918,17.9781381 116.5718,16.6881381 118.7618,18.1281381 C120.4118,19.2081381 120.8918,21.4881381 119.6918,23.9781381 C118.5518,26.3481381 116.4518,27.7281381 114.1418,28.9881381 C111.9218,30.2181381 111.1118,31.7781381 110.6918,33.3381381 C110.6018,33.6681381 110.3918,33.6681381 110.1518,33.4281381 C109.7618,33.0381381 109.3418,32.0481381 109.9418,30.6381381 C110.4818,29.3781381 111.4718,28.4181381 113.7218,27.1281381 C115.5518,26.0781381 117.1418,24.5181381 118.0418,22.5981381 C118.6118,21.3681381 119.0618,19.5081381 118.0718,18.9681381 C116.5118,18.1281381 113.8418,20.8281381 112.1618,24.2781381 C111.9518,24.6681381 111.8018,24.6681381 111.5918,24.3681381 C111.1418,23.6781381 111.0518,22.2381381 112.0718,20.5881381 Z M110.1518,34.8681381 C110.4518,35.6481381 110.3618,36.3681381 109.9718,36.7881381 C109.5818,37.2081381 108.7718,37.1181381 108.3218,36.3681381 C107.8718,35.5881381 107.9918,34.6881381 108.4718,34.1781381 C108.9518,33.6681381 109.8218,34.0281381 110.1518,34.8681381 Z" mask="url(#esign_intro_illustration-b)" transform="rotate(-20 114.2 27.284)"/>
    <path fill="#94C5FF" d="M88.666,14.106 C88.3779986,13.8899989 87.9640027,13.782 87.424,13.782 C86.9199975,13.782 86.3620031,13.8629992 85.75,14.025 C85.1379969,14.1870008 84.5440029,14.3579991 83.968,14.538 C83.3919971,14.7180009 82.8970021,14.8889992 82.483,15.051 C82.0689979,15.2130008 81.8080005,15.294 81.7,15.294 C81.4839989,15.294 81.2860009,15.2040009 81.106,15.024 C80.9259991,14.8439991 80.836,14.6100014 80.836,14.322 C80.836,13.8899978 81.1509968,13.476002 81.781,13.08 C82.4110031,12.683998 83.1399959,12.3420014 83.968,12.054 C84.7960041,11.7659986 85.6149959,11.5410008 86.425,11.379 C87.2350041,11.2169992 87.8199982,11.136 88.18,11.136 C89.3320058,11.136 90.2499966,11.4509968 90.934,12.081 C91.6180034,12.7110031 91.96,13.6919933 91.96,15.024 C91.96,16.2480061 91.7440022,17.3549951 91.312,18.345 C90.8799978,19.335005 90.3580031,20.2619957 89.746,21.126 C89.1339969,21.9900043 88.4590037,22.8359959 87.721,23.664 C86.9829963,24.4920041 86.3260029,25.3559955 85.75,26.256 C85.2099973,27.048004 84.8050013,27.6959975 84.535,28.2 C84.2649986,28.7040025 84.0490008,29.2079975 83.887,29.712 C83.7249992,30.2160025 83.5630008,30.7919968 83.401,31.44 C83.2389992,32.0880032 82.9960016,32.915995 82.672,33.924 C82.4919991,34.3560022 82.204002,34.572 81.808,34.572 C81.6279991,34.572 81.4660007,34.5000007 81.322,34.356 C81.1779993,34.2119993 81.106,33.9960014 81.106,33.708 C81.1420002,31.9799914 81.3039986,30.4950062 81.592,29.253 C81.8800014,28.0109938 82.2669976,26.8500054 82.753,25.77 C83.2390024,24.6899946 83.8419964,23.6100054 84.562,22.53 L87.046,18.804 C87.1540005,18.6599993 87.3159989,18.4260016 87.532,18.102 C87.7480011,17.7779984 87.954999,17.4270019 88.153,17.049 C88.351001,16.6709981 88.5309992,16.284002 88.693,15.888 C88.8550008,15.491998 88.936,15.1320016 88.936,14.808 C88.936,14.5199986 88.8460009,14.2860009 88.666,14.106 Z M82.24,36.894 C82.4200009,37.1820014 82.51,37.4519987 82.51,37.704 C82.51,38.0280016 82.411001,38.3069988 82.213,38.541 C82.014999,38.7750012 81.7720014,38.892 81.484,38.892 C81.1599984,38.892 80.8900011,38.7570013 80.674,38.487 C80.4579989,38.2169987 80.35,37.9560013 80.35,37.704 C80.35,37.4159986 80.4579989,37.1640011 80.674,36.948 C80.8900011,36.7319989 81.1419986,36.624 81.43,36.624 C81.7540016,36.624 82.0239989,36.7139991 82.24,36.894 Z" mask="url(#esign_intro_illustration-b)" transform="matrix(1 0 0 -1 0 50.028)"/>
    <path fill="#DCEEFF" d="M75.3718984,47.1250381 C75.1905641,46.9890374 74.9299001,46.9210381 74.5898984,46.9210381 C74.2725635,46.9210381 73.9212336,46.9720376 73.5358984,47.0740381 C73.1505631,47.1760386 72.7765669,47.2837042 72.4138984,47.3970381 C72.0512299,47.510372 71.7395664,47.6180376 71.4788984,47.7200381 C71.2182304,47.8220386 71.0538987,47.8730381 70.9858984,47.8730381 C70.8498977,47.8730381 70.7252323,47.816372 70.6118984,47.7030381 C70.4985645,47.5897042 70.4418984,47.4423723 70.4418984,47.2610381 C70.4418984,46.9890367 70.6402297,46.7283727 71.0368984,46.4790381 C71.433567,46.2297035 71.8925624,46.0143723 72.4138984,45.8330381 C72.9352343,45.6517039 73.4508958,45.5100386 73.9608984,45.4080381 C74.4709009,45.3060376 74.8392306,45.2550381 75.0658984,45.2550381 C75.7912353,45.2550381 76.3692296,45.4533695 76.7998984,45.8500381 C77.2305672,46.2467068 77.4458984,46.8643672 77.4458984,47.7030381 C77.4458984,48.4737086 77.3098997,49.1707017 77.0378984,49.7940381 C76.765897,50.4173746 76.4372336,51.0010354 76.0518984,51.5450381 C75.6665631,52.0890408 75.2415674,52.6217022 74.7768984,53.1430381 C74.3122294,53.664374 73.8985669,54.2083686 73.5358984,54.7750381 C73.1958967,55.2737073 72.9408992,55.6817032 72.7708984,55.9990381 C72.6008975,56.316373 72.4648989,56.6337032 72.3628984,56.9510381 C72.2608979,57.268373 72.1588989,57.6310361 72.0568984,58.0390381 C71.9548979,58.4470401 71.8018994,58.9683683 71.5978984,59.6030381 C71.4845645,59.8750395 71.303233,60.0110381 71.0538984,60.0110381 C70.9405645,60.0110381 70.8385655,59.9657052 70.7478984,59.8750381 C70.6572313,59.784371 70.6118984,59.6483723 70.6118984,59.4670381 C70.6345652,58.3790327 70.7365641,57.444042 70.9178984,56.6620381 C71.0992326,55.8800342 71.3428969,55.1490415 71.6488984,54.4690381 C71.9548999,53.7890347 72.3345628,53.1090415 72.7878984,52.4290381 L74.3518984,50.0830381 C74.4198987,49.992371 74.5218977,49.8450391 74.6578984,49.6410381 C74.7938991,49.4370371 74.9242311,49.2160393 75.0488984,48.9780381 C75.1735657,48.7400369 75.2868979,48.4963727 75.3888984,48.2470381 C75.4908989,47.9977035 75.5418984,47.7710391 75.5418984,47.5670381 C75.5418984,47.3857039 75.4852323,47.238372 75.3718984,47.1250381 Z M71.3258984,61.4730381 C71.4392323,61.6543723 71.4958984,61.8243706 71.4958984,61.9830381 C71.4958984,62.1870391 71.4335657,62.362704 71.3088984,62.5100381 C71.1842311,62.6573722 71.0312326,62.7310381 70.8498984,62.7310381 C70.6458974,62.7310381 70.4758991,62.646039 70.3398984,62.4760381 C70.2038977,62.3060373 70.1358984,62.1417056 70.1358984,61.9830381 C70.1358984,61.8017039 70.2038977,61.6430388 70.3398984,61.5070381 C70.4758991,61.3710374 70.6345641,61.3030381 70.8158984,61.3030381 C71.0198994,61.3030381 71.1898977,61.3597042 71.3258984,61.4730381 Z" mask="url(#esign_intro_illustration-b)" transform="scale(1 -1) rotate(10 690.934 0)"/>
  </g>
</svg>
