<svg xmlns="http://www.w3.org/2000/svg" xmlns:xlink="http://www.w3.org/1999/xlink" width="128" height="60" viewBox="0 0 128 60">
    <defs>
        <rect id="prefix__a" width="128" height="60" x="0" y="0" rx="4"/>
    </defs>
    <g fill="none" fill-rule="evenodd">
        <rect width="127" height="59" x=".5" y=".5" stroke="#A4A4A4" rx="4"/>
        <mask id="prefix__b" fill="#fff">
            <use xlink:href="#prefix__a"/>
        </mask>
        <g mask="url(#prefix__b)">
            <g fill-rule="nonzero">
                <path fill="#264796" d="M0 0H100V25H0z" transform="translate(14 11)"/>
                <g>
                    <path fill="#E85222" d="M80.181 5.377c-.186 0-.373-.08-.546-.226-.173-.146-.266-.318-.266-.544 0-.332.16-.717.493-1.129.32-.411.652-.624.999-.624.24 0 .426.067.573.213.16.146.24.345.24.61 0 .332-.16.704-.48 1.102-.307.399-.653.598-1.013.598zm6.874 4.806c.693-.266 1.292-.598 1.785-1.01.493-.384.853-.77 1.093-1.14.226-.36.346-.625.346-.797 0-.173-.08-.266-.24-.266-.146 0-.373.093-.68.266-.306.172-.625.411-.945.69-.32.279-.6.624-.853 1.009-.253.372-.426.797-.506 1.248zm-1.958 2.297c-.213.146-.466.305-.773.464 0 .69-.026 1.288-.093 1.78-.08.49-.226.783-.466 1.327-.24.531-.613 1.129-1.106 1.78-.493.636-.986 1.128-1.452 1.46-.48.345-.852.517-1.119.517-.306 0-.586-.252-.84-.743-.252-.491-.372-1.102-.372-1.82 0-.703.12-1.446.346-2.216.24-.77.613-1.554 1.12-2.775l-.054-.08c-.493.571-.96 1.01-1.412 1.341-.64.491-1.186.73-1.652.73-.626 0-1.092-.318-1.399-.982-.133-.266-.226-.544-.306-.836-1.172 1.327-2.158 1.991-2.957 1.991-.547 0-.973-.292-1.293-.89-.28-.53-.44-1.234-.452-2.084-6.022 4.527-15.067 6.213-22.98 4.13l-.146-.505c9.71 2.336 18.223-.784 23.179-4.74.08-.57.253-1.221.493-1.925.36-1.075.866-2.164 1.478-3.28.626-1.101 1.266-2.07 1.932-2.894.666-.823 1.279-1.394 1.852-1.726.226-.146.4-.212.532-.212.174 0 .28.066.334.212.053.147.08.386.08.73 0 1.063-.44 2.377-1.306 3.93-.866 1.554-2.078 3.134-3.637 4.753-.066.399-.106.704-.106.916 0 .492.106.89.306 1.195.213.306.506.465.88.465.2 0 .412-.08.625-.226.227-.146.467-.332.706-.557l.333-.292c-.013-.107-.013-.213-.013-.319 0-.292.027-.584.093-.85.067-.279.134-.504.213-.677.094-.172.254-.451.48-.823 1.092-1.7 2.092-2.549 2.997-2.549.467 0 .706.186.706.544 0 .24-.146.624-.453 1.155-.306.518-.586.89-.812 1.116-.68.637-1.106 1.088-1.319 1.34-.2.253-.306.545-.306.863 0 .28.106.505.32.69.2.187.479.28.799.28.373 0 .759-.133 1.199-.399.173-.106.373-.239.586-.398-.067-.2-.094-.398-.094-.597 0-.399.107-.69.307-.903.2-.2.48-.398.852-.558.267-.425.52-.783.773-1.075.24-.305.56-.69.973-1.182.799-1.965 1.745-3.876 2.824-5.748.293-.531.52-.877.64-1.05.132-.185.279-.278.425-.278.12 0 .24.093.347.292.093.186.146.438.146.744 0 .371-.04.716-.12 1.035-.08.319-.2.637-.346.956-.147.305-.36.69-.626 1.142-.267.438-.426.717-.493.823-.386.677-.813 1.42-1.305 2.244-.48.823-.866 1.473-1.146 1.938-.28.478-.48.836-.6 1.075.413.359.746.664.986.93.24.265.453.57.626.929.253-.093.493-.212.72-.358.08-.054.16-.107.253-.173v-.093c0-.81.186-1.54.573-2.19.373-.664.985-1.355 1.838-2.072.586-.504 1.172-.876 1.745-1.128.573-.252 1.092-.385 1.545-.385.36 0 .653.08.853.252.213.16.32.412.32.744 0 .477-.174.955-.547 1.433-.346.478-.905.956-1.651 1.434-.733.465-1.652.916-2.731 1.354v.292c0 .452.106.797.333 1.05.213.265.52.384.866.384.386 0 .772-.08 1.185-.265.4-.173.8-.412 1.2-.704.399-.292.892-.677 1.465-1.168v.703c-.866 1.036-1.679 1.846-2.452 2.403-.759.545-1.532.824-2.318.824-.679 0-1.225-.266-1.625-.797-.24-.319-.413-.704-.506-1.168zm-2.185 1.115l-.026-.239c-.213.027-.387.027-.52.013-.133-.013-.28-.04-.453-.093s-.306-.106-.4-.146c-.106-.053-.213-.093-.32-.146-.585 1.434-.878 2.39-.878 3.333 0 .464.066.863.213 1.194.133.332.306.505.506.505s.453-.186.746-.531c.306-.359.573-.876.8-1.567.226-.69.332-1.314.332-2.323zm-9.87-5.27c.385-.4.772-.837 1.158-1.342.373-.49.72-1.035 1.053-1.593.333-.57.586-1.088.772-1.54.187-.451.28-.783.28-1.022 0-.173-.053-.252-.187-.252-.04 0-.133.04-.253.12-.48.384-.999 1.128-1.585 2.243s-.999 2.243-1.239 3.385z" transform="translate(14 11) translate(4 4)"/>
                    <g fill="#FEFEFE">
                        <path d="M42.882 13.794c-.014-.465.08-.863.266-1.208s.52-.518 1.012-.531c.493.013.826.186 1.013.53.173.346.266.744.266 1.21 0 .45-.093.849-.266 1.18-.187.36-.52.545-1.013.545-.492 0-.826-.186-1.012-.544-.187-.332-.28-.73-.266-1.182zm-1.452 0c0 .876.253 1.567.746 2.058.48.518 1.145.783 1.984.796.84-.013 1.506-.278 1.999-.796.48-.491.732-1.182.732-2.058 0-.876-.253-1.567-.732-2.084-.493-.505-1.16-.757-1.999-.77-.839.013-1.505.265-1.984.77-.493.517-.746 1.208-.746 2.084zm-1-4.793h-1.452v1.222h1.452V9zm-1.452 7.501h1.452V11.06h-1.452v5.443zm-5.901 0h1.452V14.63l.56-.557 1.452 2.43h1.758l-2.225-3.44 1.999-2.004h-1.719l-1.825 1.965V9.001h-1.452v7.501zm-5.235-2.708c0-.465.093-.863.28-1.208.186-.345.519-.518.999-.531.506.013.839.186 1.025.53.173.346.267.744.267 1.21 0 .45-.094.849-.267 1.18-.186.36-.52.545-1.025.545-.48 0-.813-.186-1-.544-.186-.332-.28-.73-.28-1.182zm-1.439 0c0 .876.253 1.567.746 2.058.48.518 1.146.783 1.985.796.84-.013 1.505-.278 1.998-.796.48-.491.72-1.182.733-2.058-.014-.876-.253-1.567-.733-2.084-.493-.505-1.159-.757-1.998-.77-.84.013-1.505.265-1.985.77-.493.517-.746 1.208-.746 2.084zm-3.317 2.708h1.665v-6.12h2.185v-1.38H20.9v1.38h2.185v6.12zM65.102 5.735c.053.704.32 1.195.812 1.487.48.28 1.04.425 1.679.425.626 0 1.185-.133 1.665-.411.493-.28.733-.77.746-1.474 0-.252-.04-.465-.133-.637-.094-.173-.213-.319-.373-.425-.16-.12-.333-.213-.533-.292-.213-.067-.413-.12-.64-.16-.2-.053-.4-.106-.586-.159-.2-.04-.386-.093-.533-.133-.16-.053-.293-.12-.386-.199-.093-.093-.133-.186-.133-.318 0-.213.093-.346.28-.412.173-.066.346-.093.52-.093.279 0 .505.053.692.146.173.106.266.305.293.598h1.385c-.066-.664-.333-1.116-.772-1.381-.44-.24-.96-.359-1.559-.359-.28 0-.546.027-.826.08-.266.04-.52.133-.732.266-.227.132-.4.305-.52.544-.147.226-.213.504-.213.85 0 .239.04.424.146.584.094.172.227.305.373.425.16.106.347.185.547.265.106.027.213.053.306.08.093.026.2.053.306.093.52.106.933.212 1.226.332.28.106.413.278.413.504-.013.266-.107.438-.32.531-.2.12-.413.173-.64.16-.292 0-.545-.067-.772-.213-.2-.146-.32-.372-.346-.704h-1.372zm-5.609 0c.054.704.333 1.195.813 1.487.493.28 1.052.425 1.678.425.627 0 1.186-.133 1.679-.411.48-.28.733-.77.746-1.474 0-.252-.053-.465-.133-.637-.094-.173-.227-.319-.387-.425-.146-.12-.333-.213-.532-.292-.2-.067-.413-.12-.64-.16-.2-.053-.4-.106-.586-.159-.2-.04-.373-.093-.533-.133-.16-.053-.28-.12-.386-.199-.093-.093-.133-.186-.133-.318 0-.213.093-.346.28-.412.172-.066.359-.093.519-.093.28 0 .506.053.693.146.173.106.28.305.306.598h1.372c-.067-.664-.32-1.116-.76-1.381-.452-.24-.972-.359-1.571-.359-.267 0-.546.027-.826.08-.267.04-.52.133-.733.266-.213.132-.386.305-.52.544-.146.226-.212.504-.212.85 0 .239.053.424.146.584.093.172.227.305.386.425.16.106.333.185.533.265.107.027.213.053.307.08.106.026.2.053.306.093.52.106.933.212 1.226.332.28.106.426.278.426.504-.013.266-.12.438-.32.531-.2.12-.413.173-.64.16-.292 0-.559-.067-.772-.213-.213-.146-.333-.372-.346-.704h-1.386zM58.587 0h-1.452v1.235h1.452V0zm-1.452 7.501h1.452v-5.43h-1.452v5.43zM52.3 4.195c0-.225.093-.464.266-.73.093-.12.213-.212.387-.292.146-.08.333-.106.559-.106.346 0 .613.093.8.279.186.199.306.478.346.85H52.3zm3.81.956c.04-.438.013-.836-.08-1.221-.054-.2-.12-.385-.187-.545-.08-.172-.186-.331-.293-.477-.426-.624-1.092-.956-1.998-.97-.813.014-1.452.28-1.945.823-.493.532-.746 1.209-.76 2.045.014.85.254 1.527.747 2.045.466.53 1.119.796 1.958.796 1.226.013 2.051-.597 2.478-1.832h-1.28c-.052.186-.172.345-.385.478-.214.16-.467.239-.76.239-.826 0-1.252-.451-1.305-1.38h3.81zm-5.822-3.08h-1.545l-1 3.678h-.026l-.919-3.678h-1.465l-.906 3.69h-.013L43.4 2.072H41.83l1.732 5.43h1.545l.92-3.65h.026l.973 3.65h1.531l1.732-5.43zm-10.324 5.43h1.452V0h-1.452v7.501zM35.13 4.195c0-.225.093-.464.266-.73.093-.12.213-.212.386-.292.147-.08.333-.106.56-.106.346 0 .613.093.799.279.187.199.293.478.346.85H35.13zm3.81.956c.04-.438.013-.836-.08-1.221-.054-.2-.12-.385-.187-.545-.08-.172-.187-.331-.293-.477-.426-.624-1.092-.956-1.998-.97-.813.014-1.466.28-1.945.823-.493.532-.746 1.209-.76 2.045.014.85.254 1.527.746 2.045.467.53 1.12.796 1.959.796 1.225.013 2.038-.597 2.477-1.832H37.58c-.054.186-.174.345-.387.478-.213.16-.466.239-.759.239-.826 0-1.252-.451-1.305-1.38h3.81zm-7.5-.385c0 .465-.08.863-.254 1.208-.186.359-.532.545-1.025.545-.467 0-.786-.186-1-.558-.213-.345-.32-.743-.32-1.182-.013-.464.094-.876.294-1.208.2-.345.546-.517 1.026-.53.48.013.812.185 1.012.53.187.346.266.744.266 1.195zm.026 2.735h1.426V0h-1.492v2.722h-.027c-.173-.266-.4-.465-.68-.598-.293-.133-.599-.199-.932-.199-.8.013-1.399.292-1.812.85-.4.544-.6 1.195-.6 1.965s.2 1.433.6 2.004c.413.585 1.013.89 1.839.903.36 0 .679-.066.959-.199.293-.133.52-.345.692-.637h.027v.69zm-10.564 0h5.595v-1.38h-3.93V4.274h3.53V2.987h-3.53V1.381h3.85V0h-5.515v7.501zM.866 8.75h5.288c-.32.079-.626.158-.852.318-.48.279-.68.85-.44 1.261.24.425.84.531 1.32.252.665-.318 1.118-1.234 1.877-1.739-.066.903-.639 1.766-.586 2.496 0 .544.4.996.88.996.492 0 .879-.452.879-.996.053-.73-.506-1.593-.573-2.496.746.505 1.212 1.42 1.878 1.74.48.278 1.066.172 1.306-.253.253-.412.053-.982-.427-1.261-.612-.412-1.638-.345-2.464-.744.826-.398 1.852-.332 2.464-.743.48-.279.68-.85.427-1.261-.24-.425-.826-.545-1.306-.266-.666.319-1.132 1.235-1.878 1.752.067-.902.626-1.765.573-2.495 0-.558-.387-1.01-.88-1.01-.48 0-.879.452-.879 1.01-.053.73.52 1.593.586 2.495-.759-.504-1.212-1.433-1.878-1.752-.48-.279-1.079-.16-1.319.266-.24.411-.04.982.44 1.26.24.16.533.24.852.32H.866C1.092 3.97 4.356.85 8.353.85c2.597 0 4.875 1.314 6.22 3.319h1.013C14.134 1.673 11.443 0 8.353 0 3.743 0 0 3.73 0 8.324c0 4.594 3.743 8.324 8.353 8.324 3.077 0 5.781-1.672 7.22-4.155h-1c-1.358 1.991-3.636 3.306-6.22 3.306-3.997 0-7.26-3.12-7.487-7.05z" transform="translate(14 11) translate(4 4) translate(0 .305)"/>
                    </g>
                </g>
                <g>
                    <path fill="#E85222" d="M.161 5.031l2.066-2.033H.376l.174-1.03h3.502l-.161 1.03-1.973 2.02h1.624c.013.013-.161 1.043-.161 1.043H0l.161-1.03zm4.481-3.063h1.301l-.67 4.093H3.97l.671-4.093zM4.83.6c.013-.118.094-.196.228-.196h.993c.107 0 .16.078.134.196l-.12.782c-.014.117-.095.17-.202.17H4.87c-.12 0-.174-.066-.161-.17L4.829.6zm1.865 1.368h1.073l.16.417c.363-.247.699-.495 1.342-.495 1.034 0 1.14.678 1.007 1.5L9.834 6.06H8.533l.442-2.698c.054-.378-.067-.495-.295-.495-.389 0-.617.104-.885.326l-.47 2.867H6.024l.67-4.093zm5.849-.065c.362 0 .818.091 1.14.248L14.034 0h1.3l-.979 6.061h-1.1l-.148-.39c-.322.22-.737.442-1.22.442-.993 0-1.288-1.042-1.06-2.307.201-1.147.563-1.903 1.717-1.903zm-.107 3.155c.335 0 .617-.066.805-.209l.295-1.864c-.175-.091-.443-.13-.752-.13-.281 0-.482.156-.643 1.12-.148.874-.014 1.083.295 1.083zm4.99-3.168c.631-.026 1.543.104 1.946.482l-.55 3.69h-1.02l-.201-.418c-.201.3-.738.47-1.208.47-.791 0-1.395-.757-1.06-2.386.35-1.708 1.302-1.825 2.093-1.838zm-.47 3.18c.403 0 .605-.143.766-.39l.268-1.76c-.174-.065-.47-.091-.67-.052-.296.065-.578.17-.712 1.042-.107.678-.107 1.16.349 1.16zm2.496 2.073h1.69c.417 0 .712-.248.792-.73l.108-.652c-.282.209-.618.287-.966.287-1.235 0-1.476-.912-1.248-2.32.228-1.42.912-1.838 1.892-1.838.831 0 1.838.117 2.24.248l-.724 4.445c-.188 1.082-.792 1.72-2.08 1.59l-1.838-.196.134-.834zm2.04-2.046c.268 0 .429-.026.684-.157l.349-2.137h-.631c-.563 0-.684.625-.765 1.055-.12.795-.174 1.239.363 1.239zm3.26-3.129h1.301l-.67 4.093h-1.302l.67-4.093zM24.94.6c.027-.118.094-.196.229-.196h.992c.121 0 .161.078.148.196l-.12.782c-.014.117-.108.17-.216.17h-.992c-.108 0-.175-.066-.161-.17L24.94.6z" transform="translate(14 11) translate(33 27)"/>
                    <path fill="#264796" d="M28.885 1.968h1.301l-.443 2.712c-.067.378.067.482.296.482.389 0 .63-.104.885-.326l.47-2.868h1.3l-.67 4.093h-1.073l-.161-.417c-.39.3-.698.495-1.342.495-1.033 0-1.14-.651-1.006-1.486l.443-2.685zm4.575 0h1.073l.174.417c.35-.247.698-.495 1.342-.495 1.033 0 1.127.678.993 1.5l-.43 2.671h-1.314l.442-2.698c.067-.378-.053-.495-.295-.495-.375 0-.617.104-.872.326l-.47 2.867h-1.3l.657-4.093zM38.29.013h1.314l-.71 4.367c-.095.586.013.678.214.769 0 0 .375.156.416.156l-.121.756h-.778c-.765 0-1.248-.39-1.073-1.46l.737-4.588zm2.32 1.955h1.302l-.671 4.093H39.94l.67-4.093zM40.798.6c.014-.118.094-.196.228-.196h.993c.12 0 .161.078.148.196l-.135.782c-.013.117-.093.17-.2.17h-.994c-.107 0-.174-.066-.16-.17l.12-.782zm1.865 1.368h1.073l.161.417c.39-.26.685-.482 1.328-.482.537 0 .86.209.98.521.402-.247.885-.52 1.543-.52.993 0 1.14.638 1.006 1.485l-.443 2.672H47.01l.443-2.698c.053-.352-.08-.482-.296-.482-.362 0-.644.065-.885.273-.013.053-.04.183-.04.235l-.443 2.672h-1.301l.442-2.698c.054-.352-.067-.482-.295-.482-.375 0-.604.091-.872.326l-.456 2.854h-1.315l.671-4.093zm7.003 0h1.315l-.67 4.093h-1.302l.657-4.093zM49.867.6c.014-.118.094-.196.215-.196h1.006c.108 0 .161.078.134.196l-.12.782c-.014.117-.094.17-.202.17h-1.006c-.107 0-.174-.066-.147-.17l.12-.782zm1.543 1.616l.685-.26.389-1.148h1.113l-.201 1.147h.845l-.147.926h-.846l-.241 1.486c-.094.6.013.704.201.782 0 0 .39.156.43.156l-.121.77h-.859c-.657 0-1.167-.405-.993-1.474l.282-1.72h-.644l.107-.665zm5.22-.326c.871-.013 1.743.222 1.703 1.186-.094 1.93-2.334 1.551-2.63 1.434-.093.508.068.626.631.626.43.013 1.194-.052 1.637-.13l-.161.886c-.617.195-1.315.3-2.281.234-1.006-.065-1.355-.938-1.06-2.437.242-1.265.604-1.786 2.16-1.799zm.361 1.382c.054-.326-.12-.417-.47-.404-.563.013-.643.39-.71.82 0 0 1.06.222 1.18-.416zm3.529-1.369c.362 0 .818.091 1.127.248L62.009 0h1.301l-.992 6.061h-1.1l-.148-.39c-.322.22-.725.442-1.208.442-.992 0-1.3-1.042-1.073-2.307.215-1.147.564-1.903 1.73-1.903zm-.12 3.155c.348 0 .616-.066.804-.209l.309-1.864c-.175-.091-.457-.13-.752-.13s-.496.156-.657 1.12c-.134.874-.014 1.083.295 1.083z" transform="translate(14 11) translate(33 27)"/>
                </g>
            </g>
        </g>
    </g>
</svg>
