<?xml version="1.0" encoding="UTF-8"?>
<svg width="9px" height="18px" viewBox="0 0 9 18" version="1.1" xmlns="http://www.w3.org/2000/svg" xmlns:xlink="http://www.w3.org/1999/xlink">
    <!-- Generator: Sketch 50.2 (55047) - http://www.bohemiancoding.com/sketch -->
    <title>round-attach_file-24px</title>
    <desc>Created with Sketch.</desc>
    <defs></defs>
    <g id="Page-1" stroke="none" stroke-width="1" fill="none" fill-rule="evenodd">
        <g id="2.2_help_attachment" transform="translate(-33.000000, -494.000000)">
            <g id="Group-2" transform="translate(20.000000, 483.000000)">
                <g id="round-attach_file-24px" transform="translate(8.000000, 11.000000)">
                    <polygon id="Shape" points="0 0 18 0 18 18 0 18"></polygon>
                    <path d="M12.375,5.0625 L12.375,12.9975 C12.375,14.565 11.2275,15.96 9.6675,16.11 C7.875,16.2825 6.375,14.88 6.375,13.125 L6.375,3.855 C6.375,2.8725 7.08,1.98 8.055,1.8825 C9.18,1.77 10.125,2.6475 10.125,3.75 L10.125,11.625 C10.125,12.0375 9.7875,12.375 9.375,12.375 C8.9625,12.375 8.625,12.0375 8.625,11.625 L8.625,5.0625 C8.625,4.755 8.37,4.5 8.0625,4.5 C7.755,4.5 7.5,4.755 7.5,5.0625 L7.5,11.52 C7.5,12.5025 8.205,13.395 9.18,13.4925 C10.305,13.605 11.25,12.7275 11.25,11.625 L11.25,3.8775 C11.25,2.31 10.1025,0.915 8.5425,0.765 C6.7575,0.5925 5.25,1.995 5.25,3.75 L5.25,12.9525 C5.25,15.105 6.825,17.0325 8.97,17.235 C11.4375,17.46 13.5,15.54 13.5,13.125 L13.5,5.0625 C13.5,4.755 13.245,4.5 12.9375,4.5 C12.63,4.5 12.375,4.755 12.375,5.0625 Z" id="Shape" fill="#878787" fill-rule="nonzero"></path>
                </g>
            </g>
        </g>
    </g>
</svg>