<svg id="Layer_1" data-name="Layer 1" xmlns="http://www.w3.org/2000/svg" xmlns:xlink="http://www.w3.org/1999/xlink" viewBox="0 0 1704 315"><defs><style>.cls-1,.cls-3{fill:none;}.cls-2{fill:#fff;}.cls-3{stroke:#fff;stroke-miterlimit:10;stroke-width:5px;}.cls-4{clip-path:url(#clip-path);}</style><clipPath id="clip-path"><path class="cls-1" d="M190.5,87.84a10.63,10.63,0,0,0,1.88,14.89c.23.18,22.82,18.11,22.82,43.94,0,45.81-31.77,67.67-61.27,68.6-10.41.3-16.46,0-16.51,0a10.62,10.62,0,0,0-11.17,10c0,.18,0,.37,0,.56v69.55a10.63,10.63,0,0,0,21.25,0v-58.8c2.1,0,4.47-.06,7.09-.14a83.67,83.67,0,0,0,56-23.49c16.89-16.47,25.81-39.4,25.81-66.3,0-36.45-29.81-59.78-31.08-60.76a10.62,10.62,0,0,0-14.86,1.93M129.62,8.32H21.87a10.61,10.61,0,0,0-10.62,10.6V232.63a10.62,10.62,0,0,0,21.24,0V29.53h97.14a51.9,51.9,0,0,1,14.92,2.66c11.39,4,11.39,10.24,11.39,12.89a10.1,10.1,0,0,1-3,7.76c-5.74,5.73-18.42,7-22.52,7H78.82A10.63,10.63,0,0,0,68.2,70.47v51.71A10.61,10.61,0,0,0,78.82,132.8h50.77c.26,0,26.35.31,26.35,14.76,0,13.86-25.69,15.4-27.29,15.48H81.13a10.61,10.61,0,0,0-10.62,10.62h0V295.44a10.63,10.63,0,0,0,21.25,0V184.3h37.36c16.62-.43,48.06-8.65,48.06-36.73,0-15.13-9.1-26.59-25.64-32.26a73.55,73.55,0,0,0-21.91-3.75H89.45V81.1H130.3c2.48,0,24.49-.17,37.58-13.15a31.44,31.44,0,0,0,9.3-22.87c0-15.4-9.07-27.1-25.55-32.92a71.68,71.68,0,0,0-22-3.87Z"/></clipPath></defs><title>FP_Logo01d</title><polygon class="cls-2" points="357.89 98.37 357.89 144.51 422.85 144.51 422.85 167.77 357.89 167.77 357.89 241.05 330.36 241.05 330.36 74.9 427.5 74.9 427.5 98.17 357.88 98.17 357.89 98.37"/><path class="cls-2" d="M462.11,78.59a15,15,0,0,1,11.07,4.08,16.56,16.56,0,0,1,0,21.77,15.55,15.55,0,1,1-13.26-25.85,16,16,0,0,1,2.19,0M474.35,241H449.86V123.26h24.49Z"/><path class="cls-2" d="M608.24,163.9v77.33h-24.5V167.38c0-17.29-8.16-26-24.67-26a27.2,27.2,0,0,0-22,9.34c-5.45,6.21-8.16,14.57-8.16,25.26v65.3H504.47V150.49c0-12.24-.2-21.37-.78-27.21h21.76A141.27,141.27,0,0,1,526.81,142c8.74-14.18,22.35-21.37,41-21.37,12.64,0,22.54,3.69,29.73,11.27s10.7,18.25,10.7,32"/><path class="cls-2" d="M635.43,124.25a42.84,42.84,0,0,1,6.41-23.32A43.74,43.74,0,0,1,660.3,85a65.11,65.11,0,0,1,28.54-5.82c13.61,0,24.88,2.73,33.81,8.36a42.28,42.28,0,0,1,18.47,23.91l-21.37,9.71a29.9,29.9,0,0,0-10.69-14.57c-4.86-3.31-11.27-4.86-19.62-4.86-9.14,0-16.13,1.74-20.6,5.45a18.77,18.77,0,0,0-6.8,15.74,20.25,20.25,0,0,0,3,11.25,21.86,21.86,0,0,0,9.71,7.37A94,94,0,0,0,693.52,147c17.87,3.31,30.89,8.94,38.85,16.9,8,7.77,11.86,18.67,11.86,32.44A41.92,41.92,0,0,1,737,220.6a47.1,47.1,0,0,1-20,16.72,67.16,67.16,0,0,1-29.35,6c-15.15,0-27.58-3.11-37.69-9.34a46,46,0,0,1-20.4-26.62l21.57-9.91A31.13,31.13,0,0,0,664,215a43.49,43.49,0,0,0,23.51,6c9.72,0,17.3-2.14,22.35-6.22a21.17,21.17,0,0,0,7.77-17.7,20.93,20.93,0,0,0-7.77-17.29c-5.25-4.27-14.19-7.58-27-10.1-16.12-3.11-28.17-8.36-35.74-15.94a39.19,39.19,0,0,1-11.67-29.49"/><path class="cls-2" d="M871.13,163.89v77.34h-24.5V167.39c0-17.3-8.17-26-24.68-26a27.26,27.26,0,0,0-22,9.34c-5.45,6.21-8.16,14.57-8.16,25.27v65.28H767.37V74.9h24.48v63.74c8.74-11.86,21.76-17.88,38.86-17.88,12.64,0,22.54,3.69,29.72,11.27,7,7.58,10.7,18.07,10.7,31.86"/><path class="cls-2" d="M1000,188.38H919c.58,11.28,3.69,20,9.52,26.24a28.57,28.57,0,0,0,49-7.77l20.21,9.52q-11.36,27.39-46.63,27.39A57.34,57.34,0,0,1,920.79,236,52.44,52.44,0,0,1,901,214.23a77.45,77.45,0,0,1,.2-63.93,53.69,53.69,0,0,1,19.23-21.76A49.7,49.7,0,0,1,948,120.78a51.11,51.11,0,0,1,28,7.58,48.75,48.75,0,0,1,18.27,21.57,76.49,76.49,0,0,1,6.21,32.25,53.65,53.65,0,0,1-.42,6.2m-80.44-18.07h56c-1.17-9.52-4.08-16.9-8.75-21.95A24.07,24.07,0,0,0,948,140.59a24.88,24.88,0,0,0-18.84,7.77c-5.25,5.23-8.36,12.42-9.52,21.94Z"/><rect class="cls-2" x="1025.79" y="74.9" width="24.48" height="166.33"/><rect class="cls-2" x="1081.95" y="74.9" width="24.48" height="166.33"/><path class="cls-2" d="M1431.47,132.42c0,36.25-26.23,58.18-69.62,58.18H1320.6v50.55h-23.85V74.25h65.1c43.39,0,69.62,21.93,69.62,58.17m-23.84,0c0-23.84-16-37.43-46.5-37.43H1320.6v74.87h40.53c30.52,0,46.5-13.59,46.5-37.44m142.58,32.43v76.3h-21.7V224.46c-7.63,11.44-21.69,18.12-41.48,18.12-28.62,0-46.74-15.26-46.74-37.19,0-20.27,13.11-37,50.79-37h36.24V163.9c0-19.32-11.21-30.52-33.86-30.52-15,0-30.28,5.24-40.06,13.59l-9.53-17.17c13.11-10.49,32-16.21,52.22-16.21,34.57,0,54.12,16.69,54.12,51.26m-22.89,37.67V184.88H1492c-22.65,0-29.09,8.82-29.09,19.55,0,12.64,10.49,20.51,27.9,20.51,17.17,0,30.76-7.87,36.48-22.42m162.85-87.74-61.27,139c-11.21,26.7-25.75,35-45.07,35-12.16,0-24.56-4.06-32.43-11.69l9.78-17.16a32.32,32.32,0,0,0,22.65,9.3c11,0,17.88-5,24.08-19.56l4.06-8.82-55.8-126.13H1580l44.11,101.1,43.63-101.1Z"/><line class="cls-3" x1="1199.7" y1="53.49" x2="1199.7" y2="286.97"/><path class="cls-2" d="M190.5,87.84a10.63,10.63,0,0,0,1.88,14.89c.23.18,22.82,18.11,22.82,43.94,0,45.81-31.77,67.67-61.27,68.6-10.41.3-16.46,0-16.51,0a10.62,10.62,0,0,0-11.17,10c0,.18,0,.37,0,.56v69.55a10.63,10.63,0,0,0,21.25,0v-58.8c2.1,0,4.47-.06,7.09-.14a83.67,83.67,0,0,0,56-23.49c16.89-16.47,25.81-39.4,25.81-66.3,0-36.45-29.81-59.78-31.08-60.76a10.62,10.62,0,0,0-14.86,1.93M129.62,8.32H21.87a10.61,10.61,0,0,0-10.62,10.6V232.63a10.62,10.62,0,0,0,21.24,0V29.53h97.14a51.9,51.9,0,0,1,14.92,2.66c11.39,4,11.39,10.24,11.39,12.89a10.1,10.1,0,0,1-3,7.76c-5.74,5.73-18.42,7-22.52,7H78.82A10.63,10.63,0,0,0,68.2,70.47v51.71A10.61,10.61,0,0,0,78.82,132.8h50.77c.26,0,26.35.31,26.35,14.76,0,13.86-25.69,15.4-27.29,15.48H81.13a10.61,10.61,0,0,0-10.62,10.62h0V295.44a10.63,10.63,0,0,0,21.25,0V184.3h37.36c16.62-.43,48.06-8.65,48.06-36.73,0-15.13-9.1-26.59-25.64-32.26a73.55,73.55,0,0,0-21.91-3.75H89.45V81.1H130.3c2.48,0,24.49-.17,37.58-13.15a31.44,31.44,0,0,0,9.3-22.87c0-15.4-9.07-27.1-25.55-32.92a71.68,71.68,0,0,0-22-3.87Z"/><g class="cls-4"><rect class="cls-2" x="11.25" y="8.29" width="225.2" height="297.77"/></g></svg>