<svg width="343" height="75" viewBox="0 0 343 75" fill="none" xmlns="http://www.w3.org/2000/svg">
<path fill-rule="evenodd" clip-rule="evenodd" d="M109.695 18.1867H85.9653V32.2544H109.016V43.4404H85.9653V66.3217H74.271V7H109.695V18.1867Z" fill="white"/>
<path fill-rule="evenodd" clip-rule="evenodd" d="M117.744 66.3215H128.676V23.9492H117.744V66.3215ZM123.169 20.89C121.36 20.89 119.792 20.2268 118.466 18.8988C117.137 17.5712 116.474 16.0042 116.474 14.1954C116.474 12.3878 117.137 10.8051 118.466 9.44942C119.792 8.09331 121.36 7.41602 123.169 7.41602C125.033 7.41602 126.629 8.09331 127.957 9.44942C129.284 10.8051 129.948 12.3878 129.948 14.1954C129.948 16.0042 129.284 17.5712 127.957 18.8988C126.629 20.2268 125.033 20.89 123.169 20.89Z" fill="white"/>
<path fill-rule="evenodd" clip-rule="evenodd" d="M148.422 35.308C148.422 36.4391 149.17 37.3566 150.668 38.0621C152.165 38.7694 153.986 39.39 156.134 39.9271C158.281 40.4645 160.427 41.1422 162.575 41.9605C164.721 42.7803 166.544 44.1508 168.041 46.071C169.537 47.9923 170.287 50.3924 170.287 53.2742C170.287 57.6253 168.662 60.9722 165.414 63.3165C162.165 65.6597 158.111 66.8333 153.253 66.8333C144.554 66.8333 138.622 63.4735 135.458 56.7518C135.457 56.7503 135.458 56.748 135.46 56.7469L144.947 51.4103C144.947 51.4099 144.947 51.4103 144.948 51.4107C146.19 55.0829 148.959 56.9179 153.253 56.9179C157.151 56.9179 159.101 55.7036 159.101 53.2742C159.101 52.1442 158.351 51.2267 156.854 50.5201C155.357 49.814 153.535 49.1789 151.389 48.6129C149.24 48.0489 147.094 47.3416 144.947 46.494C142.8 45.6472 140.977 44.3052 139.482 42.4686C137.984 40.6336 137.236 38.3311 137.236 35.5623C137.236 31.3819 138.774 28.0919 141.854 25.6891C144.933 23.2889 148.761 22.0879 153.338 22.0879C156.783 22.0879 159.919 22.8651 162.745 24.4181C165.567 25.9723 167.797 28.1869 169.436 31.0653C169.438 31.0683 169.437 31.0717 169.434 31.0732L160.117 36.1556C158.761 33.2739 156.501 31.8334 153.338 31.8334C151.924 31.8334 150.753 32.1447 149.82 32.7657C148.888 33.3883 148.422 34.2351 148.422 35.308Z" fill="white"/>
<path fill-rule="evenodd" clip-rule="evenodd" d="M188.724 53.7372C190.955 55.9698 193.766 57.0849 197.156 57.0849C200.546 57.0849 203.342 55.9698 205.546 53.7372C207.749 51.5062 208.85 48.6396 208.85 45.1361C208.85 41.6337 207.749 38.7664 205.546 36.5339C203.342 34.3028 200.546 33.1869 197.156 33.1869C193.766 33.1869 190.955 34.3028 188.724 36.5339C186.491 38.7664 185.376 41.6337 185.376 45.1361C185.376 48.6396 186.491 51.5062 188.724 53.7372ZM208.848 7H219.78V66.3217H208.848V61.3226C208.848 61.3222 208.848 61.3222 208.847 61.3222C205.627 65.4467 201.051 67.5083 195.119 67.5083C189.412 67.5083 184.539 65.3472 180.501 61.025C176.461 56.7027 174.441 51.4064 174.441 45.1356C174.441 38.8643 176.461 33.568 180.501 29.2458C184.539 24.9236 189.412 22.7625 195.119 22.7625C201.051 22.7625 205.627 24.8259 208.847 28.9482C208.847 28.9486 208.848 28.9486 208.848 28.9482V7Z" fill="white"/>
<path fill-rule="evenodd" clip-rule="evenodd" d="M241.768 52.8505C243.942 55.0538 246.668 56.1553 249.945 56.1553C253.222 56.1553 255.963 55.0538 258.166 52.8505C260.369 50.6472 261.471 47.851 261.471 44.4607C261.471 41.0709 260.369 38.2743 258.166 36.0714C255.963 33.8677 253.222 32.7658 249.945 32.7658C246.668 32.7658 243.942 33.8677 241.768 36.0714C239.592 38.2743 238.505 41.0709 238.505 44.4607C238.505 47.851 239.592 50.6472 241.768 52.8505ZM265.88 60.3504C261.529 64.6722 256.219 66.8337 249.948 66.8337C243.677 66.8337 238.38 64.6722 234.058 60.3504C229.735 56.0282 227.574 50.7315 227.574 44.4606C227.574 38.1898 229.735 32.893 234.058 28.5712C238.38 24.249 243.677 22.0879 249.948 22.0879C256.219 22.0879 261.529 24.249 265.88 28.5712C270.23 32.893 272.405 38.1898 272.405 44.4606C272.405 50.7315 270.23 56.0282 265.88 60.3504Z" fill="white"/>
<path fill-rule="evenodd" clip-rule="evenodd" d="M326.983 22.7627C331.841 22.7627 335.725 24.3453 338.635 27.5087C341.545 30.6732 343 34.9099 343 40.2203V66.3215H332.067V40.9823C332.067 38.4408 331.445 36.4636 330.203 35.0509C328.959 33.6397 327.208 32.932 324.948 32.932C322.462 32.932 320.527 33.7518 319.144 35.3899C317.758 37.0288 317.067 39.402 317.067 42.5083V66.3215H306.134V40.9823C306.134 38.4408 305.513 36.4636 304.271 35.0509C303.027 33.6397 301.276 32.932 299.016 32.932C296.586 32.932 294.652 33.7518 293.211 35.3899C291.77 37.0288 291.05 39.402 291.05 42.5083V66.3215H280.118V23.9493H291.05V28.4406C293.593 24.6558 297.519 22.7627 302.83 22.7627C308.028 22.7627 311.869 24.7969 314.355 28.8644C317.18 24.7969 321.389 22.7627 326.983 22.7627Z" fill="white"/>
<path fill-rule="evenodd" clip-rule="evenodd" d="M0 7.41602L25.3199 23.9584V66.1582L0 49.6159V7.41602Z" fill="white"/>
<mask id="mask0" style="mask-type:alpha" maskUnits="userSpaceOnUse" x="0" y="7" width="26" height="60">
<path fill-rule="evenodd" clip-rule="evenodd" d="M0 7.41602L25.3199 23.9584V66.1582L0 49.6159V7.41602Z" fill="white"/>
</mask>
<g mask="url(#mask0)">
</g>
<path fill-rule="evenodd" clip-rule="evenodd" d="M33.7605 24.3635L59.0804 7.41602V24.2284L33.7605 41.1759V24.3635Z" fill="white"/>
<mask id="mask1" style="mask-type:alpha" maskUnits="userSpaceOnUse" x="33" y="7" width="27" height="35">
<path fill-rule="evenodd" clip-rule="evenodd" d="M33.7605 24.3635L59.0804 7.41602V24.2284L33.7605 41.1759V24.3635Z" fill="white"/>
</mask>
<g mask="url(#mask1)">
</g>
<path fill-rule="evenodd" clip-rule="evenodd" d="M33.7605 49.6848L50.6404 38.2188V55.0312L33.7605 66.4972V49.6848Z" fill="white"/>
<mask id="mask2" style="mask-type:alpha" maskUnits="userSpaceOnUse" x="33" y="38" width="18" height="29">
<path fill-rule="evenodd" clip-rule="evenodd" d="M33.7605 49.6848L50.6404 38.2188V55.0312L33.7605 66.4972V49.6848Z" fill="white"/>
</mask>
<g mask="url(#mask2)">
</g>
</svg>
