<svg width="153" height="24" viewBox="0 0 153 24" fill="none" xmlns="http://www.w3.org/2000/svg">
<rect width="152.64" height="24" fill="white"/>
<path d="M5.09154 21.2143V1.71429H1.71503V21.2143H5.09154ZM12.1528 21.2143V10.9018C12.7959 9.7143 13.774 9.12054 15.0871 9.12054C15.9893 9.12054 16.6391 9.34153 17.0366 9.78349C17.4341 10.2255 17.6329 10.9063 17.6329 11.8259V21.2143H20.8888V11.6384C20.8352 8.18304 19.2988 6.45537 16.2796 6.45537C14.5378 6.45537 13.1309 7.10269 12.059 8.39733L11.9652 6.72322H8.89682V21.2143H12.1528ZM30.7236 21.2143L35.7482 6.72322H32.3851L29.3167 17.0893L26.2082 6.72322H22.8317L27.8964 21.2143H30.7236ZM44.1627 21.4822C45.3686 21.4822 46.4561 21.2433 47.4253 20.7656C48.3945 20.288 49.1694 19.6161 49.75 18.75L47.9947 17.0759C47.0568 18.2813 45.842 18.8839 44.3503 18.8839C43.2873 18.8839 42.4052 18.5357 41.704 17.8393C41.0028 17.1429 40.603 16.1964 40.5048 15H49.9778V13.6875C49.9778 11.3839 49.4396 9.60269 48.3632 8.34376C47.2868 7.08483 45.7616 6.45537 43.7875 6.45537C42.5459 6.45537 41.4204 6.77233 40.411 7.40626C39.4016 8.04019 38.6178 8.92635 38.0595 10.0647C37.5012 11.2031 37.222 12.4955 37.222 13.942V14.3438C37.222 16.5045 37.863 18.2344 39.1448 19.5335C40.4266 20.8326 42.0992 21.4822 44.1627 21.4822ZM46.762 12.6161H40.5584C40.7102 11.5 41.0608 10.6295 41.6102 10.0045C42.1595 9.37947 42.8808 9.06697 43.7741 9.06697C44.6763 9.06697 45.382 9.34599 45.8911 9.90403C46.4003 10.4621 46.6906 11.2857 46.762 12.375V12.6161ZM57.9635 21.4822C59.7143 21.4822 61.1301 21.0781 62.2109 20.2701C63.2918 19.4621 63.8322 18.4063 63.8322 17.1027C63.8322 16.3259 63.6558 15.6652 63.303 15.1205C62.9501 14.5759 62.4097 14.1094 61.6817 13.721C60.9537 13.3326 59.951 12.9978 58.6736 12.7165C57.3963 12.4353 56.5477 12.1563 56.1279 11.8795C55.708 11.6027 55.4981 11.2143 55.4981 10.7143C55.4981 10.1607 55.7237 9.71876 56.1748 9.3884C56.6259 9.05804 57.2087 8.89287 57.9233 8.89287C58.6915 8.89287 59.3079 9.10046 59.7724 9.51563C60.2368 9.93081 60.4691 10.4509 60.4691 11.0759H63.725C63.725 9.70983 63.1913 8.59822 62.1239 7.74108C61.0564 6.88394 59.6562 6.45537 57.9233 6.45537C56.2976 6.45537 54.9577 6.87501 53.9036 7.71429C52.8496 8.55358 52.3226 9.59822 52.3226 10.8482C52.3226 12.3393 53.1354 13.4777 54.7612 14.2634C55.5026 14.6205 56.4271 14.9152 57.5347 15.1473C58.6424 15.3795 59.4352 15.6473 59.913 15.9509C60.3909 16.2545 60.6299 16.6964 60.6299 17.2768C60.6299 17.8036 60.4066 18.2299 59.9599 18.5558C59.5133 18.8817 58.8612 19.0447 58.0037 19.0447C57.1194 19.0447 56.4092 18.8371 55.8733 18.4219C55.3373 18.0067 55.047 17.4152 55.0024 16.6473H51.8402C51.8402 17.5134 52.0993 18.3214 52.6174 19.0714C53.1354 19.8214 53.859 20.4107 54.788 20.8393C55.717 21.2679 56.7755 21.4822 57.9635 21.4822ZM71.2418 21.4822C71.9296 21.4822 72.6442 21.3795 73.3856 21.1741V18.6563C73.0015 18.7455 72.6219 18.7902 72.2467 18.7902C71.684 18.7902 71.2932 18.6674 71.0743 18.4219C70.8555 18.1763 70.746 17.7768 70.746 17.2232V9.13394H73.3052V6.72322H70.746V3.2009H67.4901V6.72322H65.1051V9.13394H67.4901V17.3438C67.4901 20.1027 68.7407 21.4822 71.2418 21.4822ZM79.0399 21.2143V10.7143C79.5848 9.65179 80.5093 9.12054 81.8135 9.12054C83.5107 9.12054 84.3816 9.97322 84.4263 11.6786V21.2143H87.6822L87.6688 11.2768C87.8564 10.6339 88.1847 10.1138 88.6536 9.71653C89.1226 9.31921 89.7278 9.12054 90.4692 9.12054C91.3982 9.12054 92.0636 9.33483 92.4656 9.7634C92.8676 10.192 93.0686 10.8661 93.0686 11.7857V21.2143H96.3245V11.692C96.3066 9.96876 95.9069 8.66519 95.1253 7.78126C94.3437 6.89733 93.1534 6.45537 91.5545 6.45537C89.6429 6.45537 88.1601 7.19644 87.1061 8.67858C86.3915 7.19644 85.065 6.45537 83.1266 6.45537C81.3579 6.45537 79.9645 7.04912 78.9461 8.23662L78.8524 6.72322H75.784V21.2143H79.0399ZM106.052 21.4822C107.258 21.4822 108.346 21.2433 109.315 20.7656C110.284 20.288 111.059 19.6161 111.639 18.75L109.884 17.0759C108.946 18.2813 107.731 18.8839 106.24 18.8839C105.177 18.8839 104.295 18.5357 103.593 17.8393C102.892 17.1429 102.492 16.1964 102.394 15H111.867V13.6875C111.867 11.3839 111.329 9.60269 110.253 8.34376C109.176 7.08483 107.651 6.45537 105.677 6.45537C104.435 6.45537 103.31 6.77233 102.3 7.40626C101.291 8.04019 100.507 8.92635 99.9489 10.0647C99.3906 11.2031 99.1115 12.4955 99.1115 13.942V14.3438C99.1115 16.5045 99.7524 18.2344 101.034 19.5335C102.316 20.8326 103.989 21.4822 106.052 21.4822ZM108.651 12.6161H102.448C102.6 11.5 102.95 10.6295 103.5 10.0045C104.049 9.37947 104.77 9.06697 105.664 9.06697C106.566 9.06697 107.271 9.34599 107.781 9.90403C108.29 10.4621 108.58 11.2857 108.651 12.375V12.6161ZM117.602 21.2143V10.9018C118.245 9.7143 119.223 9.12054 120.536 9.12054C121.438 9.12054 122.088 9.34153 122.486 9.78349C122.883 10.2255 123.082 10.9063 123.082 11.8259V21.2143H126.338V11.6384C126.284 8.18304 124.748 6.45537 121.729 6.45537C119.987 6.45537 118.58 7.10269 117.508 8.39733L117.414 6.72322H114.346V21.2143H117.602ZM134.23 21.4822C134.918 21.4822 135.632 21.3795 136.374 21.1741V18.6563C135.99 18.7455 135.61 18.7902 135.235 18.7902C134.672 18.7902 134.281 18.6674 134.062 18.4219C133.844 18.1763 133.734 17.7768 133.734 17.2232V9.13394H136.293V6.72322H133.734V3.2009H130.478V6.72322H128.093V9.13394H130.478V17.3438C130.478 20.1027 131.729 21.4822 134.23 21.4822ZM144.239 21.4822C145.99 21.4822 147.405 21.0781 148.486 20.2701C149.567 19.4621 150.108 18.4063 150.108 17.1027C150.108 16.3259 149.931 15.6652 149.578 15.1205C149.225 14.5759 148.685 14.1094 147.957 13.721C147.229 13.3326 146.226 12.9978 144.949 12.7165C143.672 12.4353 142.823 12.1563 142.403 11.8795C141.983 11.6027 141.773 11.2143 141.773 10.7143C141.773 10.1607 141.999 9.71876 142.45 9.3884C142.901 9.05804 143.484 8.89287 144.199 8.89287C144.967 8.89287 145.583 9.10046 146.048 9.51563C146.512 9.93081 146.744 10.4509 146.744 11.0759H150C150 9.70983 149.467 8.59822 148.399 7.74108C147.332 6.88394 145.932 6.45537 144.199 6.45537C142.573 6.45537 141.233 6.87501 140.179 7.71429C139.125 8.55358 138.598 9.59822 138.598 10.8482C138.598 12.3393 139.411 13.4777 141.037 14.2634C141.778 14.6205 142.702 14.9152 143.81 15.1473C144.918 15.3795 145.711 15.6473 146.188 15.9509C146.666 16.2545 146.905 16.6964 146.905 17.2768C146.905 17.8036 146.682 18.2299 146.235 18.5558C145.789 18.8817 145.137 19.0447 144.279 19.0447C143.395 19.0447 142.685 18.8371 142.149 18.4219C141.613 18.0067 141.322 17.4152 141.278 16.6473H138.116C138.116 17.5134 138.375 18.3214 138.893 19.0714C139.411 19.8214 140.134 20.4107 141.063 20.8393C141.992 21.2679 143.051 21.4822 144.239 21.4822Z" fill="#FE794D"/>
</svg>
