<svg id="Layer_1" data-name="Layer 1" xmlns="http://www.w3.org/2000/svg" xmlns:xlink="http://www.w3.org/1999/xlink" viewBox="0 0 280 120"><defs><style>.cls-1{fill:#e8e6f3;}.cls-2{fill:url(#linear-gradient);}.cls-3{fill:#aba3d0;}.cls-4{fill:#8576b6;}.cls-5{fill:#aaa1cf;}.cls-6{fill:#fff;}.cls-7{fill:#fdb925;}.cls-8{fill:#f7921e;}.cls-9{fill:#ffc85b;}.cls-10{fill:#fdb721;}.cls-11{fill:#ffd585;}.cls-12{fill:#543e8f;}.cls-13{fill:#dddef0;}.cls-14{fill:#faa71a;}.cls-15{fill:#006fb9;}.cls-16{fill:#483a7c;}.cls-17{fill:#fabdac;}.cls-18{fill:#caccdf;}.cls-19{fill:#a1c7ea;}.cls-20{fill:#2f2f7e;}.cls-21{fill:#f68a21;}.cls-22{fill:#fec246;}.cls-23{fill:#ffd78b;}.cls-24{fill:#ffcf6f;}.cls-25{fill:#ffe2ae;}</style><linearGradient id="linear-gradient" x1="3273.15" y1="-3741.7" x2="3271.08" y2="-3563.35" gradientTransform="translate(3735.8 3332.4) rotate(-90)" gradientUnits="userSpaceOnUse"><stop offset="0" stop-color="#f68842"/><stop offset="0.47" stop-color="#f47534"/><stop offset="1" stop-color="#f15b22"/></linearGradient></defs><rect class="cls-1" x="132.9" width="147.1" height="119.85"/><path class="cls-2" d="M.3-.5,178.7.3c.1,0-15.2,2.6-23.2,19.2s-1,24.7.6,31.8c5.8,26.9-12.7,35.4-8.9,53.8,2.2,10.8,20.3,15.3,20.3,15.3H-.1Z"/><path class="cls-3" d="M251.7,73.4c-.1-.2,0-.4.1-.4q8.1-4.1,9.3-12c1-6.2-1.7-11.8-2.5-12.6a.4.4,0,0,1,.5-.5c1,.9,3.7,6.8,2.7,13.2s-4.1,9.7-9.7,12.5a.4.4,0,0,1-.4-.2Z"/><path class="cls-3" d="M259,48.2a.1.1,0,0,1-.1-.1h-.1c-.8-1.3-.9-2.3-.4-2.8l.8-.5.7-.4h0a.8.8,0,0,0,.3-.7h0a.2.2,0,0,1,.3,0h.1c.8,1.2.9,2.2.4,2.7l-.8.5-.7.4h0a.9.9,0,0,0-.3.7H259Zm1.2-3.5-.8.5-.7.4c-.3.3-.2,1,.2,1.9l.3-.4a1.4,1.4,0,0,1,.8-.5l.7-.5c.3-.3.2-1-.2-1.8Z"/><path class="cls-3" d="M258.7,48.4h-.2a.6.6,0,0,0-.6-.2h-.1l-.7.2a1.6,1.6,0,0,1-.9.3c-.7.1-1.4-.6-1.9-2h0a.2.2,0,0,1,.2-.2h.1c.1,0,.4.2.7.1h0l.7-.2a2.9,2.9,0,0,1,1-.3c.7-.1,1.4.6,1.8,2h.1a.2.2,0,0,1-.2.2ZM254.8,47c.4.9.9,1.4,1.4,1.3h0l.7-.2a1.6,1.6,0,0,1,.9-.3h.5c-.4-.9-.8-1.4-1.3-1.3h0a1.3,1.3,0,0,0-.8.3l-.9.2h0C255.2,47.1,255,47,254.8,47Z"/><path class="cls-3" d="M259,48c-.1.1-.2,0-.2-.1a2.1,2.1,0,0,1,.9-2.4,1.3,1.3,0,0,0,.5-1.7.4.4,0,0,1,.1-.3l.3.2a1.7,1.7,0,0,1-.6,2.1,1.7,1.7,0,0,0-.8,2,.2.2,0,0,1-.2.2Z"/><path class="cls-3" d="M258.7,48.3h-.2a1.7,1.7,0,0,0-2.1-.6,1.6,1.6,0,0,1-2-.8c-.1-.1,0-.2.1-.3s.2,0,.2.1,1,.8,1.6.6a2,2,0,0,1,2.5.8.2.2,0,0,1,0,.3Z"/><path class="cls-3" d="M261.4,53.7h-.3c-.8-1.6-.9-2.8-.1-3.4l1-.5.9-.5h0a1,1,0,0,0,.4-.7h.1a.3.3,0,0,1,.4,0h0c.8,1.7.9,2.9.1,3.5l-1,.5a1.9,1.9,0,0,0-.9.4h0a1.2,1.2,0,0,0-.4.8h-.1A.1.1,0,0,1,261.4,53.7Zm1.8-4.2a3.1,3.1,0,0,1-1,.5l-.9.5c-.5.4-.5,1.2,0,2.3l.4-.5,1-.5a2.5,2.5,0,0,0,.9-.4q.8-.6,0-2.4A1,1,0,0,1,263.2,49.5Z"/><path class="cls-3" d="M260.9,54a.1.1,0,0,1-.1-.1h-.1a.9.9,0,0,0-.8-.3h-.1c-.2-.1-.5,0-.9.2l-1.1.2q-1.5,0-2.1-2.7h0a.2.2,0,0,1,.2-.2h.2a1.2,1.2,0,0,0,.8.3h0l1-.2,1.1-.2c1-.1,1.7.9,2.1,2.7h0l-.2.3Zm-1-.9h.6c-.4-1.2-.9-1.9-1.5-1.8l-1,.2-1.1.2h-.6c.3,1.2.9,1.8,1.4,1.8l1.1-.2Z"/><path class="cls-3" d="M261.4,53.5h-.1a.2.2,0,0,1-.2-.2,2.8,2.8,0,0,1,1.4-2.9c.7-.4,1.1-.7.8-2s.1-.2.2-.3.3.1.3.2a2,2,0,0,1-1,2.6,2.1,2.1,0,0,0-1.2,2.4A.2.2,0,0,1,261.4,53.5Z"/><path class="cls-3" d="M260.9,53.8h-.2a2.2,2.2,0,0,0-2.5-1.1,1.9,1.9,0,0,1-2.4-1.2c-.1-.2,0-.3.1-.4s.3,0,.3.1,1.1,1.1,1.9,1a2.8,2.8,0,0,1,3,1.3.6.6,0,0,1-.1.4Z"/><path class="cls-3" d="M261.6,59h-.2c0-2,.5-3.2,1.5-3.4h2.4a1.1,1.1,0,0,0,.8-.6h.1a.3.3,0,0,1,.4.2h0c.1,2-.5,3.3-1.5,3.5a2.9,2.9,0,0,1-1.3,0h-1.1c-.4,0-.7.4-.8.5h-.1C261.8,59.1,261.7,59.1,261.6,59Zm3.8-3.3H263c-.6.1-1,1-1,2.3l.6-.3H265c.6-.2,1-1,1.1-2.4A.9.9,0,0,1,265.4,55.7Z"/><path class="cls-3" d="M261.7,58.8h0c-.2,0-.2-.2-.2-.3a3,3,0,0,1,2.8-2.2c.9-.1,1.5-.2,1.8-1.6s.2-.2.3-.2.2.2.2.3c-.4,1.8-1.3,1.9-2.2,2a2.7,2.7,0,0,0-2.4,1.9A.2.2,0,0,1,261.7,58.8Z"/><path class="cls-3" d="M260.8,64c-.1-.1-.1-.1-.1-.2h0c.6-1.9,1.4-2.9,2.5-2.9l1.2.4,1,.3h.1a1.6,1.6,0,0,0,.9-.3h.1a.3.3,0,0,1,.3.3h0c-.5,1.9-1.4,3-2.4,2.9a2.8,2.8,0,0,1-1.3-.4l-1-.2h0a1,1,0,0,0-.9.3h-.4Zm4.6-2.1-1.2-.3a3.5,3.5,0,0,0-1.1-.3c-.6-.1-1.2.6-1.7,1.9h.7l1.2.3,1.1.3c.7.1,1.3-.6,1.7-1.9Z"/><path class="cls-3" d="M260.9,63.8h0c-.1-.1-.1-.2,0-.4a2.8,2.8,0,0,1,3.3-1.2c.8.1,1.4.2,2.1-1.1h.4c.1.1.2.3.1.4a2.2,2.2,0,0,1-2.7,1.3,2.5,2.5,0,0,0-2.8,1.1C261.2,63.9,261.1,63.9,260.9,63.8Z"/><path class="cls-3" d="M257.2,45a.6.6,0,0,0,.6-.6.6.6,0,0,0-.7-.6.7.7,0,0,0-.6.7C256.6,44.8,256.9,45.1,257.2,45Z"/><path class="cls-3" d="M256,42.9c.2-.1.4-.2.3-.4s-.1-.4-.3-.4a.4.4,0,0,0,0,.8Z"/><path class="cls-3" d="M254.5,41.3a.3.3,0,0,0,.3-.3c0-.1-.2-.2-.3-.2a.2.2,0,0,0-.2.2C254.3,41.2,254.4,41.3,254.5,41.3Z"/><path class="cls-3" d="M208.1,36.7a1.6,1.6,0,0,0,2.1-.4,1.4,1.4,0,0,0-.3-2,1.5,1.5,0,0,0-2.1.3A1.6,1.6,0,0,0,208.1,36.7Z"/><path class="cls-3" d="M225,73.5c-16.8-12-19.2-33.7-16.2-38.2l.4.3c-1.4,2.1-1.4,8.6.8,15.9A42.4,42.4,0,0,0,225.3,73Z"/><path class="cls-3" d="M203.2,42a1.2,1.2,0,1,0-.5-1.6A1.2,1.2,0,0,0,203.2,42Z"/><path class="cls-3" d="M213.4,63.1l-.3.4c-8.4-8.3-11-19.5-9.5-22.6l.4.2c-.9,1.8-.1,7,2.6,12.5A34.9,34.9,0,0,0,213.4,63.1Z"/><path class="cls-3" d="M215.8,45.7a1.2,1.2,0,0,0,1.7-.1,1.1,1.1,0,0,0-.1-1.6,1.2,1.2,0,1,0-1.6,1.7Z"/><path class="cls-3" d="M220.5,68.7l-.4.3c-6.1-10.1-5.8-21.6-3.7-24.3l.4.3c-1.3,1.6-1.9,6.8-.6,12.8A38.2,38.2,0,0,0,220.5,68.7Z"/><path class="cls-3" d="M273.7,50.1a1.5,1.5,0,0,1-2-.7,1.5,1.5,0,0,1,.7-2,1.6,1.6,0,0,1,2,.7A1.6,1.6,0,0,1,273.7,50.1Z"/><path class="cls-3" d="M249.9,83c18.8-8.5,25.4-29.3,23.4-34.3l-.5.2c.9,2.3-.3,8.7-3.9,15.4a42.8,42.8,0,0,1-19.2,18.2Z"/><path class="cls-3" d="M272.4,71.4a1.1,1.1,0,0,1-1.1-1.2,1.2,1.2,0,0,1,1.2-1.2,1.4,1.4,0,0,1,1.2,1.3A1.2,1.2,0,0,1,272.4,71.4Z"/><path class="cls-3" d="M252.7,84.1v.5c11.5-2.7,19.6-10.9,20-14.3h-.5c-.2,2-3.5,6.1-8.7,9.3A33.7,33.7,0,0,1,252.7,84.1Z"/><path class="cls-4" d="M189.1,101.3a5.7,5.7,0,0,0,.1,5.1h10.4a5.6,5.6,0,0,0,1.3-2.8,6.4,6.4,0,0,0-1.4-5.2c-1.2-1.3-3-1.3-4.6-1.8s-1.5-2.8-1.7-4.3-.9-3.5-2.7-4.2-3.5-.5-4.7-1.8-1.8-2.5-3.1-3.2a2.7,2.7,0,0,0-2.9.1l-.4.5a1.9,1.9,0,0,0-.2.8c-.2,1.4.9,2.8,2,3.6h.3a22.9,22.9,0,0,0,2.3,1c.6.4,0,1.6-.1,2s-1,3.5.1,4.8S191,96.9,189.1,101.3Z"/><path class="cls-5" d="M187.2,102.1a4.6,4.6,0,0,1,.1,2,5.8,5.8,0,0,0,.3,2.3h.6a5.6,5.6,0,0,1-.3-2.3,7.5,7.5,0,0,0-.2-2.1c-.4-1.6-1.9-1.9-3.1-2.1a5.8,5.8,0,0,1-2.1-.7c-1.2-.9-2.7-3.7-2.2-5.3h0c.2,0,.8.4,2.8,3l.4.5a5.1,5.1,0,0,0,3.4,1.4,8,8,0,0,1,2.1.5c1.6.7,2.5,2.3,3.4,3.8a7.5,7.5,0,0,0,.7,1.2l.3.5c.3.5.7,1,1,1.6h.7a15.7,15.7,0,0,0-1.2-1.9l-.4-.5-.6-1.1c-.9-1.6-1.9-3.4-3.6-4.1a7.1,7.1,0,0,0-2.3-.6,4.7,4.7,0,0,1-3.1-1.2l-.3-.5c-2.1-2.7-3-3.5-3.6-3.1l-.3.3c-.6,1.9,1.1,5,2.5,6a5.2,5.2,0,0,0,2.2.7C185.7,100.7,186.8,100.9,187.2,102.1Z"/><path class="cls-6" d="M195.9,106.4h.6c-.7-8-10.5-18.7-16-22.6l-.7-.6-.4.5.8.5C185.6,88.1,195.2,98.6,195.9,106.4Z"/><path class="cls-4" d="M265.5,102.6a5.7,5.7,0,0,1-.1,5.1H255a6.1,6.1,0,0,1-1.3-2.8,6.5,6.5,0,0,1,1.4-5.2c1.3-1.3,3-1.3,4.6-1.7s1.5-2.9,1.7-4.4.9-3.5,2.7-4.2,3.5-.5,4.8-1.8,1.7-2.5,3-3.2a2.5,2.5,0,0,1,2.9.2.8.8,0,0,1,.4.4,1.9,1.9,0,0,1,.2.8c.3,1.5-.8,2.8-2,3.6h-.2c0,.1-.1.1,0,.1h-.1a22.9,22.9,0,0,1-2.3,1c-.6.4,0,1.6.1,2.1s1.1,3.4-.1,4.7S263.6,98.2,265.5,102.6Z"/><path class="cls-5" d="M267.4,103.4a14.1,14.1,0,0,0-.1,2,5.8,5.8,0,0,1-.3,2.3h-.6a5.6,5.6,0,0,0,.3-2.3,7.5,7.5,0,0,1,.2-2.1c.4-1.6,1.9-1.9,3.2-2.1a5.2,5.2,0,0,0,2-.7c1.2-.8,2.8-3.7,2.3-5.3h0c-.3,0-.9.4-2.9,3l-.4.5a4.7,4.7,0,0,1-3.4,1.4,8,8,0,0,0-2.1.5c-1.6.7-2.5,2.3-3.4,3.9l-.6,1.1-.4.5c-.3.5-.7,1-1,1.6h-.6a16,16,0,0,1,1.1-1.9l.4-.5.6-1.1c.9-1.6,1.9-3.4,3.7-4.1a9,9,0,0,1,2.2-.6,4.5,4.5,0,0,0,3.1-1.2l.4-.5c2-2.7,3-3.5,3.5-3.1s.3.2.3.4c.6,1.8-1.1,4.9-2.4,5.9a9,9,0,0,1-2.3.8C269,102,267.8,102.2,267.4,103.4Z"/><path class="cls-6" d="M258.7,107.7h-.6c.7-8,10.5-18.7,16-22.6l.7-.5a.8.8,0,0,1,.4.4l-.8.5C269,89.4,259.4,99.9,258.7,107.7Z"/><path class="cls-7" d="M262.9,106.8c0,1.2-14.7,2.2-32.9,2.2s-33-1-33-2.2,14.8-2.2,33-2.2S262.9,105.6,262.9,106.8Z"/><path class="cls-7" d="M206.8,106.1a3.5,3.5,0,0,1-3.5-3.4V93.6a3.5,3.5,0,0,1,3.5-3.5,3.5,3.5,0,0,1,3.4,3.5v9.1A3.4,3.4,0,0,1,206.8,106.1Z"/><path class="cls-8" d="M205.6,60.3c-1.2,2.2-3.1,5.7-4.2,7.9s-3.2,2.3-4.5.2l-4.8-7.6c-1.3-2.1-.4-3.9,2.1-4l9-.3C205.6,56.4,206.7,58.1,205.6,60.3Z"/><path class="cls-7" d="M216.1,106.1a3.5,3.5,0,0,1-3.5-3.4V93.6a3.5,3.5,0,0,1,3.5-3.5,3.5,3.5,0,0,1,3.4,3.5v9.1A3.4,3.4,0,0,1,216.1,106.1Z"/><path class="cls-7" d="M238.9,106.1a3.5,3.5,0,0,1-3.5-3.4V93.6a3.5,3.5,0,0,1,3.5-3.5,3.5,3.5,0,0,1,3.4,3.5v9.1A3.4,3.4,0,0,1,238.9,106.1Z"/><path class="cls-7" d="M244.5,50.4c-24.7-7.5-48.5,15.1-51,16.3a10.5,10.5,0,0,1-5.8.5V83.9s1.6-1.3,6.4,3.3,13.4,12.6,36.3,12.6c21.2,0,28.9-11.1,28.9-24.9S253.7,53.1,244.5,50.4Z"/><path class="cls-9" d="M254.1,70.5c0-8-1.8-14.1-5.2-18.3a21.4,21.4,0,0,0-4.4-1.8c-24.7-7.5-48.5,15.1-51,16.3a10.5,10.5,0,0,1-5.8.5V81.7l1.2,1,2.1,2a17.7,17.7,0,0,1,3.1,2.5h0c5.6,4,14.7,8.2,31.1,8.2C246.4,95.4,254.1,84.2,254.1,70.5Z"/><path class="cls-7" d="M244.7,90.9v11.8a3.5,3.5,0,0,0,7,0V90.9Z"/><path class="cls-7" d="M209.2,61.1l6.2,6.6c1.7,1.8,1.1,3.7-1.3,4.3l-8.8,2c-2.4.5-3.8-.9-3.1-3.3s1.9-6.2,2.7-8.6S207.5,59.3,209.2,61.1Z"/><path class="cls-8" d="M209.7,59.3l6.2,6.6c1.7,1.8,1.1,3.7-1.3,4.3l-8.8,2c-2.4.5-3.8-.9-3.1-3.3s1.9-6.2,2.7-8.6S208,57.5,209.7,59.3Z"/><path class="cls-8" d="M197.6,73.5a1.2,1.2,0,0,1-1.2-1.2V70.4a1.2,1.2,0,0,1,1.2-1.2,1.1,1.1,0,0,1,1.1,1.2v1.9A1.1,1.1,0,0,1,197.6,73.5Z"/><path class="cls-10" d="M192.5,75.5c0,4.6-2.1,8.4-4.8,8.4s-4.7-3.8-4.7-8.4,2.1-8.3,4.7-8.3S192.5,70.9,192.5,75.5Z"/><ellipse class="cls-11" cx="186.7" cy="75.5" rx="4.8" ry="8.4"/><path class="cls-7" d="M183.6,75.5c0-.6.3-1.2.6-1.2s.7.6.7,1.2-.3,1.2-.7,1.2S183.6,76.2,183.6,75.5Z"/><path class="cls-7" d="M187.1,75.5c0-.6.3-1.2.6-1.2s.7.6.7,1.2-.3,1.2-.7,1.2S187.1,76.2,187.1,75.5Z"/><path class="cls-8" d="M222.3,57.2l-1.7-1.5c4.9-5.5,16.4-5.6,22.3-1.8l-1.2,1.9C236.6,52.6,226.5,52.6,222.3,57.2Z"/><path class="cls-3" d="M199,81.4a.8.8,0,0,1-1.1.5.9.9,0,0,1-.6-1.1.9.9,0,0,1,1.2-.5A.8.8,0,0,1,199,81.4Z"/><path class="cls-3" d="M203.1,105.4c4.3-11.7-1.9-23.2-4.9-24.5v.4c1.4.5,3.6,3.7,5,8.1a24.9,24.9,0,0,1-.3,15.8Z"/><path class="cls-3" d="M200.4,88.2a.7.7,0,1,1-.3-1A.8.8,0,0,1,200.4,88.2Z"/><path class="cls-3" d="M202.5,102.1h.3c1.3-7-1.2-13.4-3-14.5V88c1,.6,2.4,3.4,2.9,7.1A20.6,20.6,0,0,1,202.5,102.1Z"/><path class="cls-3" d="M195.9,87a.7.7,0,0,1-.9.5.7.7,0,0,1-.5-.8.8.8,0,0,1,.9-.6A.7.7,0,0,1,195.9,87Z"/><path class="cls-3" d="M201.4,100h.2c-.3-7.1-4.4-12.7-6.3-13.3V87c1.1.3,3.2,2.7,4.6,6.1A22.6,22.6,0,0,1,201.4,100Z"/><path class="cls-12" d="M251.3,105.5,239.7,53.6H239l11.6,52c.1.2.2.3.4.3h0A.5.5,0,0,0,251.3,105.5Z"/><path class="cls-12" d="M258.9,105.5,247.3,53.2h-.7l11.6,52.4c.1.2.2.3.4.3h0A.5.5,0,0,0,258.9,105.5Z"/><path class="cls-12" d="M248.9,63.7h-7.3c-.2,0-.4-.1-.4-.3s.2-.3.4-.3h7.3c.2,0,.4.1.4.3S249.1,63.7,248.9,63.7Z"/><path class="cls-12" d="M250.1,68h-7.4c-.2,0-.3-.2-.3-.4a.3.3,0,0,1,.3-.3h7.4a.3.3,0,0,1,.3.3C250.4,67.8,250.3,68,250.1,68Z"/><path class="cls-12" d="M252,76.6h-7.3c-.2,0-.4-.1-.4-.3a.4.4,0,0,1,.4-.4H252a.4.4,0,0,1,.4.4C252.4,76.5,252.2,76.6,252,76.6Z"/><path class="cls-12" d="M254,85.3h-7.4c-.2,0-.3-.2-.3-.4a.3.3,0,0,1,.3-.3H254a.3.3,0,0,1,.3.3C254.3,85.1,254.2,85.3,254,85.3Z"/><path class="cls-12" d="M256,94h-7.4a.4.4,0,0,1-.4-.4c0-.2.2-.3.4-.3H256a.3.3,0,0,1,.3.3A.4.4,0,0,1,256,94Z"/><path class="cls-12" d="M257.9,102.6h-7.4a.3.3,0,0,1-.3-.3c0-.2.1-.4.3-.4h7.4a.4.4,0,0,1,.4.4C258.3,102.5,258.1,102.6,257.9,102.6Z"/><path class="cls-12" d="M251,72.5h-7.4a.4.4,0,0,1-.4-.4c0-.2.2-.3.4-.3H251a.3.3,0,0,1,.3.3C251.3,72.3,251.2,72.5,251,72.5Z"/><path class="cls-12" d="M253,81.2h-7.4c-.2,0-.3-.2-.3-.4a.3.3,0,0,1,.3-.3H253a.3.3,0,0,1,.3.3C253.3,81,253.2,81.2,253,81.2Z"/><path class="cls-12" d="M255,89.9h-7.4a.3.3,0,0,1-.3-.3c0-.2.1-.4.3-.4H255c.2,0,.3.2.3.4A.3.3,0,0,1,255,89.9Z"/><path class="cls-12" d="M257,98.6h-7.4a.3.3,0,0,1-.3-.3c0-.2.1-.4.3-.4H257a.4.4,0,0,1,.4.4C257.4,98.5,257.2,98.6,257,98.6Z"/><path class="cls-12" d="M247,54.6h-7.3a.4.4,0,0,1-.4-.4c0-.2.2-.3.4-.3H247c.2,0,.4.1.4.3A.4.4,0,0,1,247,54.6Z"/><path class="cls-13" d="M240.1,38.1a.8.8,0,0,0,.2.4,4.1,4.1,0,0,0,.5.9,6.7,6.7,0,0,0,1.5,1.4,5.3,5.3,0,0,0,1.5.8,6.2,6.2,0,0,0,1.9.2c.3,0,.1.4.3.3l.2,2.1a7.3,7.3,0,0,1-4.5-1.9,7.2,7.2,0,0,1-2.2-3.5c0-.2-.1-.4-.1-.6Z"/><path class="cls-14" d="M246.6,28a14.5,14.5,0,1,1-14.5-14.5A14.5,14.5,0,0,1,246.6,28Z"/><path class="cls-11" d="M244.8,28a12.7,12.7,0,1,1-12.7-12.7A12.7,12.7,0,0,1,244.8,28Z"/><path class="cls-15" d="M250,72.6h2.5s.2-.8-.2-.8h-.8S249.9,72.1,250,72.6Z"/><path class="cls-16" d="M252.5,71.9a22.4,22.4,0,0,1-.4-2.7,10,10,0,0,0-.2-1.6,11.1,11.1,0,0,0-.2-1.7c-.1-1.2-.3-2.5-.5-3.8-.6-5.2-1.3-10.3-1.3-10.3a2.2,2.2,0,0,0-2.4-1.9,2.3,2.3,0,0,0-1.9,2.4c0,.2.1.3.1.4h0s1.5,5,3.1,9.9c.4,1.2.7,2.5,1.1,3.6s.3,1.2.5,1.7.3,1,.5,1.5.7,3.1.7,3.1Z"/><path class="cls-15" d="M241.1,62.9h2.5s.3-.8-.1-.8h-.8S241.1,62.5,241.1,62.9Z"/><path class="cls-17" d="M246.4,39.6c0,.9-.4,1.7-1.1,1.8s-1.3-.6-1.4-1.5.4-1.7,1.1-1.7S246.3,38.7,246.4,39.6Z"/><path class="cls-17" d="M246.1,42.4a.6.6,0,0,1-.8-.4l-.7-1.6a.8.8,0,0,1,1.4-.6l.6,1.6a.7.7,0,0,1-.4,1Z"/><path class="cls-18" d="M243.1,44c.4-1.1.7-2.4,3.1-2.5s4.1,8.6,4,9.3-4.7-1.3-4.8-1.5S243.1,44,243.1,44Z"/><path class="cls-16" d="M236.8,51.4a1.9,1.9,0,0,1,.2-.7,1.3,1.3,0,0,1,.4-.6l.4-.3.6-.2h.4l1.3-.2h4.7c.5,0,.3.1.6,0l4.8,1.5a1.6,1.6,0,0,0,.1.4v.2c-.1,0-.1.1-.1.2a.6.6,0,0,1-.1.4,2.1,2.1,0,0,1-.6,1l-.7.5-.6.2h-2.3l-1.5-.2-1.7-.3-1.8-.3h-.5V53l.3,1a14.6,14.6,0,0,1,.7,1.9c.4,1.3.7,2.4,1.1,3.4a12.7,12.7,0,0,0,1.1,2.9l-1,.3a12.9,12.9,0,0,1-1.5-2.6l-1.7-3.2-1-1.7a4.1,4.1,0,0,0-.5-.9l-.2-.4-.3-.5v-.4l-.2-.2h0a.1.1,0,0,1-.1-.1l-.2-.4Z"/><path class="cls-19" d="M243.7,62.3h0s.1-.1,0-.1-.4-.9-1.1-2.9-.6-2.1-1-3.4-.5-1.4-.7-2-.1-.2-.1-.3a1.9,1.9,0,0,1-.2-.7h.3l1.8.4h.3l1.4.3,1.5.2h2.3l.6-.2.8-.6a2.4,2.4,0,0,0,.6-1c0-.1.1-.3.1-.4v-.2c0-.1,0-.2.1-.2v-.5h0l-4.9-1.4h-.1a.1.1,0,0,0,.1.1l4.8,1.4v.6a.1.1,0,0,1-.1.1.7.7,0,0,1-.1.5,2.6,2.6,0,0,1-.5.9l-.7.5-.6.2h-2.3l-1.5-.3-1.4-.2h-.3l-1.8-.3h-.6V53c.1.2.1.4.2.6a.8.8,0,0,1,.1.4,10.7,10.7,0,0,1,.7,1.9l1.1,3.5a21.9,21.9,0,0,0,1.1,2.9Z"/><path class="cls-19" d="M240.4,52.9h0l-.6-.9c-.1,0,0-.1,0-.1h.1l.6.9c.1.1,0,.1,0,.2Z"/><path class="cls-19" d="M240.5,53.1h-.8c-.1,0-.1,0-.1-.1h.1l.8.2a.1.1,0,0,1,.1.1Z"/><path class="cls-17" d="M234.8,42.6c-.4.1-.6-.2-.9-.4s0,.8.5,1,1-.2,1.1.1.7-.3.1-.7A2.1,2.1,0,0,0,234.8,42.6Z"/><path class="cls-18" d="M236,42.9h.2l.9.6a4,4,0,0,0,1.9.7,4.8,4.8,0,0,0,1.7,0,7,7,0,0,0,1.9-.6l1.2-1a1.4,1.4,0,0,1,2.3.4,1.5,1.5,0,0,1,0,1.3,3.9,3.9,0,0,1-1,.8,7.7,7.7,0,0,1-6.1.7,7.9,7.9,0,0,1-3.4-2.3c-.1-.1-.2-.2-.2-.3Z"/><path class="cls-4" d="M243,46.2a6.7,6.7,0,0,0,2.1-.9h.1a1.8,1.8,0,0,0,.9-.8c.1,0,.1-.1,0-.1H246a2.4,2.4,0,0,1-.9.8H245a7.1,7.1,0,0,1-5.9.7,6.7,6.7,0,0,1-3.4-2.3c-.1,0-.1,0-.1-.1h-.1A8.5,8.5,0,0,0,239,46,9,9,0,0,0,243,46.2Z"/><path class="cls-20" d="M244.1,37.6c-.6.2-.2,1.1.5,1.3s-.2,1.7-.5,1.6-.1,1.3.6,1.2.2-1.3.2-1.3.2-1.3.4-.6-.5.2-.2.7,1.9.9,1.8-.6A2.3,2.3,0,0,0,244.1,37.6Z"/><path class="cls-14" d="M239.1,23.8h-3.2a2.8,2.8,0,0,1,1,1.4h2.2v1.4h-1.9V27a4.3,4.3,0,0,1-3.1,4.3l3.4,5.2h-2.8l-3.1-4.7h-4.2V29.5h3.7c2.5,0,3.5-1.1,3.5-2.6v-.3h-8.3V25.2h7.9a3.7,3.7,0,0,0-3.3-1.4h-4.6V22.4h12.8Z"/><path class="cls-21" d="M194.6,107.4h-6.7v-.8h6.7Z"/><rect class="cls-22" x="187.9" y="106.6" width="6.7" height="0.81"/><rect class="cls-23" x="189.4" y="106.6" width="3.7" height="0.81"/><rect class="cls-24" x="188.7" y="106.6" width="0.7" height="0.81"/><rect class="cls-24" x="193.5" y="106.6" width="0.3" height="0.81"/><rect class="cls-24" x="193.9" y="106.6" width="0.3" height="0.81"/><path class="cls-21" d="M195.2,106.4h-6.7v-.8h6.7Z"/><rect class="cls-22" x="188.5" y="105.6" width="6.7" height="0.81"/><rect class="cls-23" x="190" y="105.6" width="3.7" height="0.81"/><rect class="cls-24" x="189.3" y="105.6" width="0.7" height="0.81"/><rect class="cls-24" x="194.2" y="105.6" width="0.3" height="0.81"/><rect class="cls-24" x="194.5" y="105.6" width="0.3" height="0.81"/><path class="cls-21" d="M195.9,105.4h-6.7v-.8h6.7Z"/><rect class="cls-22" x="189.2" y="104.6" width="6.7" height="0.81"/><rect class="cls-23" x="190.7" y="104.6" width="3.7" height="0.81"/><rect class="cls-24" x="190" y="104.6" width="0.7" height="0.81"/><rect class="cls-24" x="194.9" y="104.6" width="0.3" height="0.81"/><rect class="cls-24" x="195.2" y="104.6" width="0.3" height="0.81"/><path class="cls-21" d="M195.1,104.4h-6.7v-.8h6.7Z"/><rect class="cls-22" x="188.4" y="103.6" width="6.7" height="0.81"/><rect class="cls-23" x="189.9" y="103.6" width="3.7" height="0.81"/><rect class="cls-24" x="189.2" y="103.6" width="0.7" height="0.81"/><rect class="cls-24" x="194" y="103.6" width="0.3" height="0.81"/><rect class="cls-24" x="194.4" y="103.6" width="0.3" height="0.81"/><path class="cls-21" d="M195.5,103.5h-6.7v-.9h6.7Z"/><rect class="cls-22" x="188.8" y="102.6" width="6.7" height="0.81"/><rect class="cls-23" x="190.3" y="102.6" width="3.7" height="0.81"/><rect class="cls-24" x="189.6" y="102.6" width="0.7" height="0.81"/><rect class="cls-24" x="194.4" y="102.6" width="0.3" height="0.81"/><rect class="cls-24" x="194.8" y="102.6" width="0.3" height="0.81"/><path class="cls-21" d="M196.1,102.5h-6.7v-.8a.1.1,0,0,1,.1-.1H196c.1,0,.1,0,.1.1Z"/><rect class="cls-22" x="189.4" y="101.7" width="6.7" height="0.81"/><rect class="cls-23" x="190.9" y="101.7" width="3.7" height="0.81"/><rect class="cls-24" x="190.2" y="101.7" width="0.7" height="0.81"/><rect class="cls-24" x="195.1" y="101.7" width="0.3" height="0.81"/><rect class="cls-24" x="195.4" y="101.7" width="0.3" height="0.81"/><path class="cls-21" d="M195.4,101.5h-6.7v-.8c0-.1,0-.1.1-.1h6.5a.1.1,0,0,1,.1.1Z"/><rect class="cls-22" x="188.7" y="100.7" width="6.7" height="0.81"/><rect class="cls-23" x="190.2" y="100.7" width="3.7" height="0.81"/><rect class="cls-24" x="189.5" y="100.7" width="0.7" height="0.81"/><rect class="cls-24" x="194.3" y="100.7" width="0.3" height="0.81"/><rect class="cls-24" x="194.7" y="100.7" width="0.3" height="0.81"/><path class="cls-21" d="M195.7,100.5H189v-.8h6.6a.1.1,0,0,1,.1.1Z"/><rect class="cls-22" x="189" y="99.7" width="6.7" height="0.81"/><rect class="cls-23" x="190.5" y="99.7" width="3.7" height="0.81"/><rect class="cls-24" x="189.8" y="99.7" width="0.7" height="0.81"/><rect class="cls-24" x="194.7" y="99.7" width="0.3" height="0.81"/><rect class="cls-24" x="195" y="99.7" width="0.3" height="0.81"/><path class="cls-21" d="M194.9,99.5h-6.7v-.8h6.7Z"/><rect class="cls-22" x="188.2" y="98.7" width="6.7" height="0.81"/><rect class="cls-23" x="189.7" y="98.7" width="3.7" height="0.81"/><rect class="cls-24" x="189" y="98.7" width="0.7" height="0.81"/><rect class="cls-24" x="193.9" y="98.7" width="0.3" height="0.81"/><rect class="cls-24" x="194.2" y="98.7" width="0.3" height="0.81"/><path class="cls-6" d="M189.2,104a1,1,0,0,0,1-1.1,1,1,0,0,0,1,1.1,1,1,0,0,0-1,1.1A1,1,0,0,0,189.2,104Z"/><path class="cls-6" d="M188.8,105.5a.7.7,0,0,0,.7-.8c0,.5.2.8.7.8s-.7.3-.7.8A.7.7,0,0,0,188.8,105.5Z"/><path class="cls-21" d="M195.6,108.4h-6.7v-.9h6.7Z"/><rect class="cls-22" x="188.9" y="107.5" width="6.7" height="0.81"/><rect class="cls-23" x="190.4" y="107.5" width="3.7" height="0.81"/><rect class="cls-24" x="189.7" y="107.5" width="0.7" height="0.81"/><rect class="cls-24" x="194.5" y="107.5" width="0.3" height="0.81"/><rect class="cls-24" x="194.9" y="107.5" width="0.3" height="0.81"/><path class="cls-21" d="M180.8,108.3c0,.1,0,.1.1.1h6.5c.1,0,.1,0,.1-.1v-.8h-6.7Z"/><rect class="cls-22" x="180.8" y="107.5" width="6.7" height="0.81"/><rect class="cls-23" x="182.3" y="107.5" width="3.7" height="0.81"/><rect class="cls-24" x="186" y="107.5" width="0.7" height="0.81"/><rect class="cls-24" x="181.6" y="107.5" width="0.3" height="0.81"/><rect class="cls-24" x="181.2" y="107.5" width="0.3" height="0.81"/><path class="cls-21" d="M181.4,107.4h6.7v-.9h-6.7Z"/><rect class="cls-22" x="181.4" y="106.5" width="6.7" height="0.81"/><rect class="cls-23" x="182.9" y="106.5" width="3.7" height="0.81"/><rect class="cls-24" x="186.6" y="106.5" width="0.7" height="0.81"/><rect class="cls-24" x="182.2" y="106.5" width="0.3" height="0.81"/><rect class="cls-24" x="181.8" y="106.5" width="0.3" height="0.81"/><path class="cls-21" d="M180.9,106.4h6.7v-.8h-6.7Z"/><rect class="cls-22" x="180.9" y="105.6" width="6.7" height="0.81"/><rect class="cls-23" x="182.4" y="105.6" width="3.7" height="0.81"/><rect class="cls-24" x="186.1" y="105.6" width="0.7" height="0.81"/><rect class="cls-24" x="181.7" y="105.6" width="0.3" height="0.81"/><rect class="cls-24" x="181.3" y="105.6" width="0.3" height="0.81"/><path class="cls-21" d="M180.9,105.4h6.7v-.8h-6.7Z"/><rect class="cls-22" x="180.9" y="104.6" width="6.7" height="0.81"/><rect class="cls-23" x="182.4" y="104.6" width="3.7" height="0.81"/><rect class="cls-24" x="186.1" y="104.6" width="0.7" height="0.81"/><rect class="cls-24" x="181.7" y="104.6" width="0.3" height="0.81"/><rect class="cls-24" x="181.3" y="104.6" width="0.3" height="0.81"/><path class="cls-21" d="M181.2,104.4h6.7v-.8h-6.7Z"/><rect class="cls-22" x="181.2" y="103.6" width="6.7" height="0.81"/><rect class="cls-23" x="182.7" y="103.6" width="3.7" height="0.81"/><rect class="cls-24" x="186.4" y="103.6" width="0.7" height="0.81"/><rect class="cls-24" x="182" y="103.6" width="0.3" height="0.81"/><rect class="cls-24" x="181.6" y="103.6" width="0.3" height="0.81"/><path class="cls-21" d="M180.8,103.4h6.7v-.8h-6.7Z"/><rect class="cls-22" x="180.8" y="102.6" width="6.7" height="0.81"/><rect class="cls-23" x="182.3" y="102.6" width="3.7" height="0.81"/><rect class="cls-24" x="186" y="102.6" width="0.7" height="0.81"/><rect class="cls-24" x="181.6" y="102.6" width="0.3" height="0.81"/><rect class="cls-24" x="181.2" y="102.6" width="0.3" height="0.81"/><path class="cls-21" d="M181.1,102.4h6.7v-.8h-6.7Z"/><rect class="cls-22" x="181.1" y="101.6" width="6.7" height="0.81"/><rect class="cls-23" x="182.6" y="101.6" width="3.7" height="0.81"/><rect class="cls-24" x="186.3" y="101.6" width="0.7" height="0.81"/><rect class="cls-24" x="181.9" y="101.6" width="0.3" height="0.81"/><rect class="cls-24" x="181.5" y="101.6" width="0.3" height="0.81"/><path class="cls-21" d="M180.7,101.5h6.7v-.9h-6.7Z"/><rect class="cls-22" x="180.7" y="100.6" width="6.7" height="0.81"/><rect class="cls-23" x="182.2" y="100.6" width="3.7" height="0.81"/><rect class="cls-24" x="185.9" y="100.6" width="0.7" height="0.81"/><rect class="cls-24" x="181.5" y="100.6" width="0.3" height="0.81"/><rect class="cls-24" x="181.1" y="100.6" width="0.3" height="0.81"/><path class="cls-21" d="M180.9,100.5h6.7v-.8c0-.1,0-.1-.1-.1H181c-.1,0-.1,0-.1.1Z"/><rect class="cls-22" x="180.9" y="99.7" width="6.7" height="0.81"/><rect class="cls-23" x="182.4" y="99.7" width="3.7" height="0.81"/><rect class="cls-24" x="186.1" y="99.7" width="0.7" height="0.81"/><rect class="cls-24" x="181.7" y="99.7" width="0.3" height="0.81"/><rect class="cls-24" x="181.3" y="99.7" width="0.3" height="0.81"/><path class="cls-21" d="M180.9,99.5h6.7v-.8c0-.1,0-.1-.1-.1H181c-.1,0-.1,0-.1.1Z"/><rect class="cls-22" x="180.9" y="98.7" width="6.7" height="0.81"/><rect class="cls-23" x="182.4" y="98.7" width="3.7" height="0.81"/><rect class="cls-24" x="186.1" y="98.7" width="0.7" height="0.81"/><rect class="cls-24" x="181.7" y="98.7" width="0.3" height="0.81"/><rect class="cls-24" x="181.3" y="98.7" width="0.3" height="0.81"/><path class="cls-21" d="M181.2,98.5h6.7v-.8c0-.1,0-.1-.1-.1h-6.5c-.1,0-.1,0-.1.1Z"/><rect class="cls-22" x="181.2" y="97.7" width="6.7" height="0.81"/><rect class="cls-23" x="182.7" y="97.7" width="3.7" height="0.81"/><rect class="cls-24" x="186.4" y="97.7" width="0.7" height="0.81"/><rect class="cls-24" x="182" y="97.7" width="0.3" height="0.81"/><rect class="cls-24" x="181.6" y="97.7" width="0.3" height="0.81"/><path class="cls-21" d="M180.8,97.5h6.7v-.8a.1.1,0,0,0-.1-.1h-6.5a.1.1,0,0,0-.1.1Z"/><rect class="cls-22" x="180.8" y="96.7" width="6.7" height="0.81"/><rect class="cls-23" x="182.3" y="96.7" width="3.7" height="0.81"/><rect class="cls-24" x="186" y="96.7" width="0.7" height="0.81"/><rect class="cls-24" x="181.6" y="96.7" width="0.3" height="0.81"/><rect class="cls-24" x="181.2" y="96.7" width="0.3" height="0.81"/><path class="cls-21" d="M181.4,96.5h6.7v-.8h-6.7Z"/><rect class="cls-22" x="181.4" y="95.7" width="6.7" height="0.81"/><rect class="cls-23" x="182.9" y="95.7" width="3.7" height="0.81"/><rect class="cls-24" x="186.6" y="95.7" width="0.7" height="0.81"/><rect class="cls-24" x="182.1" y="95.7" width="0.3" height="0.81"/><rect class="cls-24" x="181.8" y="95.7" width="0.3" height="0.81"/><path class="cls-21" d="M166.7,108h6.7v-.8a.1.1,0,0,0-.1-.1h-6.6Z"/><rect class="cls-22" x="166.7" y="107.2" width="6.7" height="0.81"/><rect class="cls-23" x="168.2" y="107.2" width="3.7" height="0.81"/><rect class="cls-24" x="171.9" y="107.2" width="0.7" height="0.81"/><rect class="cls-24" x="167.5" y="107.2" width="0.3" height="0.81"/><rect class="cls-24" x="167.1" y="107.2" width="0.3" height="0.81"/><path class="cls-21" d="M166.5,107h6.7v-.8h-6.7Z"/><rect class="cls-22" x="166.5" y="106.2" width="6.7" height="0.81"/><rect class="cls-23" x="168" y="106.2" width="3.7" height="0.81"/><rect class="cls-24" x="171.7" y="106.2" width="0.7" height="0.81"/><rect class="cls-24" x="167.3" y="106.2" width="0.3" height="0.81"/><rect class="cls-24" x="166.9" y="106.2" width="0.3" height="0.81"/><path class="cls-21" d="M166.1,106.1h6.7v-.8h-6.7Z"/><rect class="cls-22" x="166.1" y="105.3" width="6.7" height="0.81"/><rect class="cls-23" x="167.6" y="105.3" width="3.7" height="0.81"/><rect class="cls-24" x="171.3" y="105.3" width="0.7" height="0.81"/><rect class="cls-24" x="166.8" y="105.3" width="0.3" height="0.81"/><rect class="cls-24" x="166.5" y="105.3" width="0.3" height="0.81"/><path class="cls-21" d="M165.3,105.1H172v-.8h-6.7Z"/><rect class="cls-22" x="165.3" y="104.3" width="6.7" height="0.81"/><rect class="cls-23" x="166.8" y="104.3" width="3.7" height="0.81"/><rect class="cls-24" x="170.5" y="104.3" width="0.7" height="0.81"/><rect class="cls-24" x="166.1" y="104.3" width="0.3" height="0.81"/><rect class="cls-24" x="165.8" y="104.3" width="0.3" height="0.81"/><path class="cls-21" d="M166.4,104.1H173a.1.1,0,0,0,.1-.1v-.8h-6.7Z"/><rect class="cls-22" x="166.4" y="103.3" width="6.7" height="0.81"/><rect class="cls-23" x="167.9" y="103.3" width="3.7" height="0.81"/><rect class="cls-24" x="171.6" y="103.3" width="0.7" height="0.81"/><rect class="cls-24" x="167.2" y="103.3" width="0.3" height="0.81"/><rect class="cls-24" x="166.8" y="103.3" width="0.3" height="0.81"/><path class="cls-21" d="M165.9,103.1c0,.1,0,.1.1.1h6.5a.1.1,0,0,0,.1-.1v-.8h-6.7Z"/><rect class="cls-22" x="165.9" y="102.3" width="6.7" height="0.81"/><rect class="cls-23" x="167.4" y="102.3" width="3.7" height="0.81"/><rect class="cls-24" x="171.1" y="102.3" width="0.7" height="0.81"/><rect class="cls-24" x="166.7" y="102.3" width="0.3" height="0.81"/><rect class="cls-24" x="166.3" y="102.3" width="0.3" height="0.81"/><path class="cls-21" d="M166.7,102.1a.1.1,0,0,0,.1.1h6.5c.1,0,.1,0,.1-.1v-.8h-6.7Z"/><rect class="cls-22" x="166.7" y="101.3" width="6.7" height="0.81"/><rect class="cls-23" x="168.2" y="101.3" width="3.7" height="0.81"/><rect class="cls-24" x="171.9" y="101.3" width="0.7" height="0.81"/><rect class="cls-24" x="167.5" y="101.3" width="0.3" height="0.81"/><rect class="cls-24" x="167.1" y="101.3" width="0.3" height="0.81"/><path class="cls-21" d="M165.8,101.1h6.6a.1.1,0,0,0,.1-.1v-.8h-6.7Z"/><rect class="cls-22" x="165.8" y="100.3" width="6.7" height="0.81"/><rect class="cls-23" x="167.3" y="100.3" width="3.7" height="0.81"/><rect class="cls-24" x="171" y="100.3" width="0.7" height="0.81"/><rect class="cls-24" x="166.5" y="100.3" width="0.3" height="0.81"/><rect class="cls-24" x="166.2" y="100.3" width="0.3" height="0.81"/><path class="cls-21" d="M166.6,100.2h6.7v-.8c0-.1,0-.1-.1-.1h-6.5c-.1,0-.1,0-.1.1Z"/><rect class="cls-22" x="166.6" y="99.4" width="6.7" height="0.81"/><rect class="cls-23" x="168.1" y="99.4" width="3.7" height="0.81"/><rect class="cls-24" x="171.8" y="99.4" width="0.7" height="0.81"/><rect class="cls-24" x="167.4" y="99.4" width="0.3" height="0.81"/><rect class="cls-24" x="167" y="99.4" width="0.3" height="0.81"/><path class="cls-21" d="M165.7,99.2h6.7v-.8a.1.1,0,0,0-.1-.1h-6.5c-.1,0-.1,0-.1.1Z"/><rect class="cls-22" x="165.7" y="98.4" width="6.7" height="0.81"/><rect class="cls-23" x="167.2" y="98.4" width="3.7" height="0.81"/><rect class="cls-24" x="170.9" y="98.4" width="0.7" height="0.81"/><rect class="cls-24" x="166.5" y="98.4" width="0.3" height="0.81"/><rect class="cls-24" x="166.1" y="98.4" width="0.3" height="0.81"/><path class="cls-21" d="M165.8,98.2h6.7v-.8h-6.7Z"/><rect class="cls-22" x="165.8" y="97.4" width="6.7" height="0.81"/><rect class="cls-23" x="167.3" y="97.4" width="3.7" height="0.81"/><rect class="cls-24" x="171" y="97.4" width="0.7" height="0.81"/><rect class="cls-24" x="166.5" y="97.4" width="0.3" height="0.81"/><rect class="cls-24" x="166.2" y="97.4" width="0.3" height="0.81"/><path class="cls-21" d="M166.6,97.2h6.7v-.8a.1.1,0,0,0-.1-.1h-6.5a.1.1,0,0,0-.1.1Z"/><rect class="cls-22" x="166.6" y="96.4" width="6.7" height="0.81"/><rect class="cls-23" x="168.1" y="96.4" width="3.7" height="0.81"/><rect class="cls-24" x="171.8" y="96.4" width="0.7" height="0.81"/><rect class="cls-24" x="167.4" y="96.4" width="0.3" height="0.81"/><rect class="cls-24" x="167" y="96.4" width="0.3" height="0.81"/><path class="cls-21" d="M165.7,96.2h6.7v-.8h-6.6a.1.1,0,0,0-.1.1Z"/><rect class="cls-22" x="165.7" y="95.4" width="6.7" height="0.81"/><rect class="cls-23" x="167.2" y="95.4" width="3.7" height="0.81"/><rect class="cls-24" x="170.9" y="95.4" width="0.7" height="0.81"/><rect class="cls-24" x="166.5" y="95.4" width="0.3" height="0.81"/><rect class="cls-24" x="166.1" y="95.4" width="0.3" height="0.81"/><path class="cls-21" d="M165.8,95.3h6.7v-.8h-6.7Z"/><rect class="cls-22" x="165.8" y="94.5" width="6.7" height="0.81"/><rect class="cls-23" x="167.3" y="94.5" width="3.7" height="0.81"/><rect class="cls-24" x="171" y="94.5" width="0.7" height="0.81"/><rect class="cls-24" x="166.5" y="94.5" width="0.3" height="0.81"/><rect class="cls-24" x="166.2" y="94.5" width="0.3" height="0.81"/><path class="cls-21" d="M166.6,94.3a.1.1,0,0,0,.1.1h6.5a.1.1,0,0,0,.1-.1v-.8h-6.7Z"/><rect class="cls-22" x="166.6" y="93.5" width="6.7" height="0.81"/><rect class="cls-23" x="168.1" y="93.5" width="3.7" height="0.81"/><rect class="cls-24" x="171.8" y="93.5" width="0.7" height="0.81"/><rect class="cls-24" x="167.4" y="93.5" width="0.3" height="0.81"/><rect class="cls-24" x="167" y="93.5" width="0.3" height="0.81"/><path class="cls-21" d="M165.7,93.3a.1.1,0,0,0,.1.1h6.6v-.8h-6.7Z"/><rect class="cls-22" x="165.7" y="92.5" width="6.7" height="0.81"/><rect class="cls-23" x="167.2" y="92.5" width="3.7" height="0.81"/><rect class="cls-24" x="170.9" y="92.5" width="0.7" height="0.81"/><rect class="cls-24" x="166.5" y="92.5" width="0.3" height="0.81"/><rect class="cls-24" x="166.1" y="92.5" width="0.3" height="0.81"/><path class="cls-21" d="M166.6,92.3c0,.1,0,.1.1.1h6.5c.1,0,.1,0,.1-.1v-.8h-6.7Z"/><rect class="cls-22" x="166.6" y="91.5" width="6.7" height="0.81"/><rect class="cls-23" x="168.1" y="91.5" width="3.7" height="0.81"/><rect class="cls-24" x="171.8" y="91.5" width="0.7" height="0.81"/><rect class="cls-24" x="167.4" y="91.5" width="0.3" height="0.81"/><rect class="cls-24" x="167" y="91.5" width="0.3" height="0.81"/><path class="cls-21" d="M165.7,91.3c0,.1,0,.1.1.1h6.5a.1.1,0,0,0,.1-.1v-.8h-6.7Z"/><rect class="cls-22" x="165.7" y="90.5" width="6.7" height="0.81"/><rect class="cls-23" x="167.2" y="90.5" width="3.7" height="0.81"/><rect class="cls-24" x="170.9" y="90.5" width="0.7" height="0.81"/><rect class="cls-24" x="166.5" y="90.5" width="0.3" height="0.81"/><rect class="cls-24" x="166.1" y="90.5" width="0.3" height="0.81"/><path class="cls-21" d="M173.6,108h6.7v-.8h-6.7Z"/><rect class="cls-22" x="173.6" y="107.2" width="6.7" height="0.81"/><rect class="cls-23" x="175.1" y="107.2" width="3.7" height="0.81"/><rect class="cls-24" x="178.8" y="107.2" width="0.7" height="0.81"/><rect class="cls-24" x="174.4" y="107.2" width="0.3" height="0.81"/><rect class="cls-24" x="174" y="107.2" width="0.3" height="0.81"/><path class="cls-21" d="M173.8,107.1h6.6a.1.1,0,0,0,.1-.1v-.8h-6.7Z"/><rect class="cls-22" x="173.8" y="106.3" width="6.7" height="0.81"/><rect class="cls-23" x="175.3" y="106.3" width="3.7" height="0.81"/><rect class="cls-24" x="179" y="106.3" width="0.7" height="0.81"/><rect class="cls-24" x="174.6" y="106.3" width="0.3" height="0.81"/><rect class="cls-24" x="174.2" y="106.3" width="0.3" height="0.81"/><path class="cls-21" d="M173.8,106.1h6.6a.1.1,0,0,0,.1-.1v-.8h-6.7Z"/><rect class="cls-22" x="173.8" y="105.3" width="6.7" height="0.81"/><rect class="cls-23" x="175.3" y="105.3" width="3.7" height="0.81"/><rect class="cls-24" x="179" y="105.3" width="0.7" height="0.81"/><rect class="cls-24" x="174.6" y="105.3" width="0.3" height="0.81"/><rect class="cls-24" x="174.2" y="105.3" width="0.3" height="0.81"/><path class="cls-21" d="M174.1,105.1h6.6a.1.1,0,0,0,.1-.1v-.8h-6.7Z"/><rect class="cls-22" x="174.1" y="104.3" width="6.7" height="0.81"/><rect class="cls-23" x="175.6" y="104.3" width="3.7" height="0.81"/><rect class="cls-24" x="179.3" y="104.3" width="0.7" height="0.81"/><rect class="cls-24" x="174.9" y="104.3" width="0.3" height="0.81"/><rect class="cls-24" x="174.5" y="104.3" width="0.3" height="0.81"/><path class="cls-21" d="M173.7,104.1c0,.1,0,.1.1.1h6.5c.1,0,.1,0,.1-.1v-.8h-6.7Z"/><rect class="cls-22" x="173.7" y="103.3" width="6.7" height="0.81"/><rect class="cls-23" x="175.2" y="103.3" width="3.7" height="0.81"/><rect class="cls-24" x="178.9" y="103.3" width="0.7" height="0.81"/><rect class="cls-24" x="174.5" y="103.3" width="0.3" height="0.81"/><rect class="cls-24" x="174.1" y="103.3" width="0.3" height="0.81"/><path class="cls-21" d="M174,103.1c0,.1,0,.1.1.1h6.5c.1,0,.1,0,.1-.1v-.8H174Z"/><rect class="cls-22" x="174" y="102.3" width="6.7" height="0.81"/><rect class="cls-23" x="175.5" y="102.3" width="3.7" height="0.81"/><rect class="cls-24" x="179.2" y="102.3" width="0.7" height="0.81"/><rect class="cls-24" x="174.8" y="102.3" width="0.3" height="0.81"/><rect class="cls-24" x="174.4" y="102.3" width="0.3" height="0.81"/><path class="cls-21" d="M173.6,102.1c0,.1,0,.1.1.1h6.5c.1,0,.1,0,.1-.1v-.8h-6.7Z"/><rect class="cls-22" x="173.6" y="101.3" width="6.7" height="0.81"/><rect class="cls-23" x="175.1" y="101.3" width="3.7" height="0.81"/><rect class="cls-24" x="178.8" y="101.3" width="0.7" height="0.81"/><rect class="cls-24" x="174.4" y="101.3" width="0.3" height="0.81"/><rect class="cls-24" x="174" y="101.3" width="0.3" height="0.81"/><path class="cls-21" d="M173.7,101.2h6.7v-.8c0-.1,0-.1-.1-.1h-6.5c-.1,0-.1,0-.1.1Z"/><rect class="cls-22" x="173.7" y="100.4" width="6.7" height="0.81"/><rect class="cls-23" x="175.2" y="100.4" width="3.7" height="0.81"/><rect class="cls-24" x="178.9" y="100.4" width="0.7" height="0.81"/><rect class="cls-24" x="174.5" y="100.4" width="0.3" height="0.81"/><rect class="cls-24" x="174.1" y="100.4" width="0.3" height="0.81"/><path class="cls-21" d="M173.9,100.2h6.7v-.8c0-.1,0-.1-.1-.1H174c-.1,0-.1,0-.1.1Z"/><rect class="cls-22" x="173.9" y="99.4" width="6.7" height="0.81"/><rect class="cls-23" x="175.4" y="99.4" width="3.7" height="0.81"/><rect class="cls-24" x="179.1" y="99.4" width="0.7" height="0.81"/><rect class="cls-24" x="174.7" y="99.4" width="0.3" height="0.81"/><rect class="cls-24" x="174.3" y="99.4" width="0.3" height="0.81"/><path class="cls-21" d="M173.9,99.2h6.7v-.8c0-.1,0-.1-.1-.1H174c-.1,0-.1,0-.1.1Z"/><rect class="cls-22" x="173.9" y="98.4" width="6.7" height="0.81"/><rect class="cls-23" x="175.4" y="98.4" width="3.7" height="0.81"/><rect class="cls-24" x="179.1" y="98.4" width="0.7" height="0.81"/><rect class="cls-24" x="174.7" y="98.4" width="0.3" height="0.81"/><rect class="cls-24" x="174.3" y="98.4" width="0.3" height="0.81"/><path class="cls-21" d="M174.2,98.2h6.7v-.8a.1.1,0,0,0-.1-.1h-6.5a.1.1,0,0,0-.1.1Z"/><rect class="cls-22" x="174.2" y="97.4" width="6.7" height="0.81"/><rect class="cls-23" x="175.7" y="97.4" width="3.7" height="0.81"/><rect class="cls-24" x="179.4" y="97.4" width="0.7" height="0.81"/><rect class="cls-24" x="175" y="97.4" width="0.3" height="0.81"/><rect class="cls-24" x="174.6" y="97.4" width="0.3" height="0.81"/><path class="cls-21" d="M173.8,97.2h6.7v-.8h-6.6a.1.1,0,0,0-.1.1Z"/><rect class="cls-22" x="173.8" y="96.4" width="6.7" height="0.81"/><rect class="cls-23" x="175.3" y="96.4" width="3.7" height="0.81"/><rect class="cls-24" x="179" y="96.4" width="0.7" height="0.81"/><rect class="cls-24" x="174.6" y="96.4" width="0.3" height="0.81"/><rect class="cls-24" x="174.2" y="96.4" width="0.3" height="0.81"/><path class="cls-21" d="M174.4,96.2h6.7v-.8h-6.7Z"/><rect class="cls-22" x="174.4" y="95.4" width="6.7" height="0.81"/><rect class="cls-23" x="175.9" y="95.4" width="3.7" height="0.81"/><rect class="cls-24" x="179.6" y="95.4" width="0.7" height="0.81"/><rect class="cls-24" x="175.2" y="95.4" width="0.3" height="0.81"/><rect class="cls-24" x="174.9" y="95.4" width="0.3" height="0.81"/><path class="cls-21" d="M173.9,95.3a.1.1,0,0,0,.1.1h6.5a.1.1,0,0,0,.1-.1v-.8h-6.7Z"/><rect class="cls-22" x="173.9" y="94.5" width="6.7" height="0.81"/><rect class="cls-23" x="175.4" y="94.5" width="3.7" height="0.81"/><rect class="cls-24" x="179.1" y="94.5" width="0.7" height="0.81"/><rect class="cls-24" x="174.7" y="94.5" width="0.3" height="0.81"/><rect class="cls-24" x="174.3" y="94.5" width="0.3" height="0.81"/><path class="cls-21" d="M174.4,94.3a.1.1,0,0,0,.1.1H181a.1.1,0,0,0,.1-.1v-.8h-6.7Z"/><rect class="cls-22" x="174.4" y="93.5" width="6.7" height="0.81"/><rect class="cls-23" x="175.9" y="93.5" width="3.7" height="0.81"/><rect class="cls-24" x="179.6" y="93.5" width="0.7" height="0.81"/><rect class="cls-24" x="175.2" y="93.5" width="0.3" height="0.81"/><rect class="cls-24" x="174.8" y="93.5" width="0.3" height="0.81"/><path class="cls-21" d="M175.2,93.3h6.7v-.8h-6.7Z"/><rect class="cls-22" x="175.2" y="92.5" width="6.7" height="0.81"/><rect class="cls-23" x="176.7" y="92.5" width="3.7" height="0.81"/><rect class="cls-24" x="180.4" y="92.5" width="0.7" height="0.81"/><rect class="cls-24" x="176" y="92.5" width="0.3" height="0.81"/><rect class="cls-24" x="175.7" y="92.5" width="0.3" height="0.81"/><path class="cls-21" d="M174.6,92.3c0,.1,0,.1.1.1h6.5c.1,0,.1,0,.1-.1v-.8h-6.7Z"/><rect class="cls-22" x="174.6" y="91.5" width="6.7" height="0.81"/><rect class="cls-23" x="176.1" y="91.5" width="3.7" height="0.81"/><rect class="cls-24" x="179.8" y="91.5" width="0.7" height="0.81"/><rect class="cls-24" x="175.4" y="91.5" width="0.3" height="0.81"/><rect class="cls-24" x="175" y="91.5" width="0.3" height="0.81"/><path class="cls-21" d="M173.6,91.3a.1.1,0,0,0,.1.1h6.6v-.8h-6.7Z"/><rect class="cls-22" x="173.6" y="90.5" width="6.7" height="0.81"/><rect class="cls-23" x="175.1" y="90.5" width="3.7" height="0.81"/><rect class="cls-24" x="178.9" y="90.5" width="0.7" height="0.81"/><rect class="cls-24" x="174.4" y="90.5" width="0.3" height="0.81"/><rect class="cls-24" x="174.1" y="90.5" width="0.3" height="0.81"/><path class="cls-21" d="M174.6,90.3c0,.1,0,.1.1.1h6.5a.1.1,0,0,0,.1-.1v-.8h-6.7Z"/><rect class="cls-22" x="174.6" y="89.5" width="6.7" height="0.81"/><rect class="cls-23" x="176.1" y="89.5" width="3.7" height="0.81"/><rect class="cls-24" x="179.8" y="89.5" width="0.7" height="0.81"/><rect class="cls-24" x="175.4" y="89.5" width="0.3" height="0.81"/><rect class="cls-24" x="175" y="89.5" width="0.3" height="0.81"/><path class="cls-21" d="M175.2,89.4h6.7v-.8h-6.7Z"/><rect class="cls-22" x="175.2" y="88.6" width="6.7" height="0.81"/><rect class="cls-23" x="176.7" y="88.6" width="3.7" height="0.81"/><rect class="cls-24" x="180.4" y="88.6" width="0.7" height="0.81"/><rect class="cls-24" x="176" y="88.6" width="0.3" height="0.81"/><rect class="cls-24" x="175.7" y="88.6" width="0.3" height="0.81"/><path class="cls-21" d="M174.5,88.4h6.7v-.8h-6.7Z"/><rect class="cls-22" x="174.5" y="87.6" width="6.7" height="0.81"/><rect class="cls-23" x="176" y="87.6" width="3.7" height="0.81"/><rect class="cls-24" x="179.7" y="87.6" width="0.7" height="0.81"/><rect class="cls-24" x="175.3" y="87.6" width="0.3" height="0.81"/><rect class="cls-24" x="174.9" y="87.6" width="0.3" height="0.81"/><path class="cls-21" d="M175.2,87.4h6.7v-.8h-6.7Z"/><rect class="cls-22" x="175.2" y="86.6" width="6.7" height="0.81"/><rect class="cls-23" x="176.7" y="86.6" width="3.7" height="0.81"/><rect class="cls-24" x="180.4" y="86.6" width="0.7" height="0.81"/><rect class="cls-24" x="176" y="86.6" width="0.3" height="0.81"/><rect class="cls-24" x="175.6" y="86.6" width="0.3" height="0.81"/><path class="cls-21" d="M174.3,86.4H181v-.8h-6.7Z"/><rect class="cls-22" x="174.3" y="85.6" width="6.7" height="0.81"/><rect class="cls-23" x="175.8" y="85.6" width="3.7" height="0.81"/><rect class="cls-24" x="179.5" y="85.6" width="0.7" height="0.81"/><rect class="cls-24" x="175.1" y="85.6" width="0.3" height="0.81"/><rect class="cls-24" x="174.7" y="85.6" width="0.3" height="0.81"/><path class="cls-21" d="M181.3,95.6H188v-.9h-6.7Z"/><rect class="cls-22" x="181.3" y="94.7" width="6.7" height="0.81"/><rect class="cls-23" x="182.8" y="94.7" width="3.7" height="0.81"/><rect class="cls-24" x="186.5" y="94.7" width="0.7" height="0.81"/><rect class="cls-24" x="182.1" y="94.7" width="0.3" height="0.81"/><rect class="cls-24" x="181.8" y="94.7" width="0.3" height="0.81"/><path class="cls-21" d="M181.6,94.6h6.6a.1.1,0,0,0,.1-.1v-.8h-6.7Z"/><rect class="cls-22" x="181.6" y="93.8" width="6.7" height="0.81"/><rect class="cls-23" x="183.1" y="93.8" width="3.7" height="0.81"/><rect class="cls-24" x="186.8" y="93.8" width="0.7" height="0.81"/><rect class="cls-24" x="182.4" y="93.8" width="0.3" height="0.81"/><rect class="cls-24" x="182" y="93.8" width="0.3" height="0.81"/><path class="cls-6" d="M195.5,98.6a.9.9,0,1,0-1.8,0c.5,0,.9.4.9,1.1S195,98.6,195.5,98.6Z"/><path class="cls-6" d="M187.8,98.4a1,1,0,0,1-1-1.1c0,.6-.3,1.1-.9,1.1s.9.4.9,1A.9.9,0,0,1,187.8,98.4Z"/><path class="cls-6" d="M188.2,99.7c-.4,0-.6-.3-.6-.7a.7.7,0,0,1-.7.7.7.7,0,0,1,.7.8C187.6,100,187.8,99.7,188.2,99.7Z"/><path class="cls-6" d="M181.6,89a.9.9,0,0,1-1-1c0,.6-.3,1-.9,1s.9.4.9,1A.9.9,0,0,1,181.6,89Z"/><ellipse class="cls-6" cx="180.3" cy="90.4" rx="0.7" ry="0.7"/><path class="cls-6" d="M180.7,102.1a.7.7,0,0,0-1.4,0,.7.7,0,1,0,1.4,0Z"/><path class="cls-6" d="M173.3,98.3a.7.7,0,0,1-.7-.7c0,.4-.2.7-.6.7s.6.3.6.8A.7.7,0,0,1,173.3,98.3Z"/><path class="cls-6" d="M167.6,105.7c-.4,0-.6-.3-.6-.8a.7.7,0,0,1-.7.8.7.7,0,0,1,.7.7C167,106,167.2,105.7,167.6,105.7Z"/><path class="cls-6" d="M175.7,94.4c-.4,0-.6-.3-.6-.8a.7.7,0,0,1-.7.8.7.7,0,0,1,.7.7C175.1,94.7,175.3,94.4,175.7,94.4Z"/><path class="cls-21" d="M159.6,108.2h6.7v-.8h-6.7Z"/><rect class="cls-22" x="159.6" y="107.4" width="6.7" height="0.81"/><rect class="cls-23" x="161.1" y="107.4" width="3.7" height="0.81"/><rect class="cls-24" x="164.8" y="107.4" width="0.7" height="0.81"/><rect class="cls-24" x="160.4" y="107.4" width="0.3" height="0.81"/><rect class="cls-24" x="160" y="107.4" width="0.3" height="0.81"/><path class="cls-21" d="M158.9,107.2h6.7v-.8h-6.7Z"/><rect class="cls-22" x="158.9" y="106.4" width="6.7" height="0.81"/><rect class="cls-23" x="160.4" y="106.4" width="3.7" height="0.81"/><rect class="cls-24" x="164.1" y="106.4" width="0.7" height="0.81"/><rect class="cls-24" x="159.6" y="106.4" width="0.3" height="0.81"/><rect class="cls-24" x="159.3" y="106.4" width="0.3" height="0.81"/><path class="cls-21" d="M159.1,106.3h6.6a.1.1,0,0,0,.1-.1v-.8h-6.7Z"/><rect class="cls-22" x="159.1" y="105.5" width="6.7" height="0.81"/><rect class="cls-23" x="160.6" y="105.5" width="3.7" height="0.81"/><rect class="cls-24" x="164.3" y="105.5" width="0.7" height="0.81"/><rect class="cls-24" x="159.8" y="105.5" width="0.3" height="0.81"/><rect class="cls-24" x="159.5" y="105.5" width="0.3" height="0.81"/><path class="cls-21" d="M158.6,105.4h6.7v-.8h-6.7Z"/><rect class="cls-22" x="158.6" y="104.6" width="6.7" height="0.81"/><rect class="cls-23" x="160.1" y="104.6" width="3.7" height="0.81"/><rect class="cls-24" x="163.8" y="104.6" width="0.7" height="0.81"/><rect class="cls-24" x="159.4" y="104.6" width="0.3" height="0.81"/><rect class="cls-24" x="159.1" y="104.6" width="0.3" height="0.81"/><path class="cls-21" d="M159.6,104.4h6.7v-.8h-6.7Z"/><rect class="cls-22" x="159.6" y="103.6" width="6.7" height="0.81"/><rect class="cls-23" x="161.1" y="103.6" width="3.7" height="0.81"/><rect class="cls-24" x="164.8" y="103.6" width="0.7" height="0.81"/><rect class="cls-24" x="160.4" y="103.6" width="0.3" height="0.81"/><rect class="cls-24" x="160" y="103.6" width="0.3" height="0.81"/><path class="cls-21" d="M158.9,103.4h6.7v-.8h-6.7Z"/><rect class="cls-22" x="158.9" y="102.6" width="6.7" height="0.81"/><rect class="cls-23" x="160.4" y="102.6" width="3.7" height="0.81"/><rect class="cls-24" x="164.1" y="102.6" width="0.7" height="0.81"/><rect class="cls-24" x="159.6" y="102.6" width="0.3" height="0.81"/><rect class="cls-24" x="159.3" y="102.6" width="0.3" height="0.81"/><path class="cls-21" d="M159.1,102.5h6.7v-.8h-6.7Z"/><rect class="cls-22" x="159.1" y="101.7" width="6.7" height="0.81"/><rect class="cls-23" x="160.6" y="101.7" width="3.7" height="0.81"/><rect class="cls-24" x="164.3" y="101.7" width="0.7" height="0.81"/><rect class="cls-24" x="159.8" y="101.7" width="0.3" height="0.81"/><rect class="cls-24" x="159.5" y="101.7" width="0.3" height="0.81"/><path class="cls-21" d="M158.6,101.5h6.7v-.8h-6.7Z"/><rect class="cls-22" x="158.6" y="100.7" width="6.7" height="0.81"/><rect class="cls-23" x="160.1" y="100.7" width="3.7" height="0.81"/><rect class="cls-24" x="163.8" y="100.7" width="0.7" height="0.81"/><rect class="cls-24" x="159.4" y="100.7" width="0.3" height="0.81"/><rect class="cls-24" x="159.1" y="100.7" width="0.3" height="0.81"/><path class="cls-21" d="M159.1,100.6h6.7v-.9h-6.7Z"/><rect class="cls-22" x="159.1" y="99.7" width="6.7" height="0.81"/><rect class="cls-23" x="160.6" y="99.7" width="3.7" height="0.81"/><rect class="cls-24" x="164.3" y="99.7" width="0.7" height="0.81"/><rect class="cls-24" x="159.8" y="99.7" width="0.3" height="0.81"/><rect class="cls-24" x="159.5" y="99.7" width="0.3" height="0.81"/><path class="cls-21" d="M158.6,99.6h6.7v-.8h-6.7Z"/><rect class="cls-22" x="158.6" y="98.8" width="6.7" height="0.81"/><rect class="cls-23" x="160.1" y="98.8" width="3.7" height="0.81"/><rect class="cls-24" x="163.8" y="98.8" width="0.7" height="0.81"/><rect class="cls-24" x="159.4" y="98.8" width="0.3" height="0.81"/><rect class="cls-24" x="159.1" y="98.8" width="0.3" height="0.81"/><path class="cls-6" d="M17.7,37.3V33.1l-2.1,3.5h-.7l-2-3.4v4.1H11.3v-7h1.4l2.6,4.4,2.6-4.4h1.3v7Z"/><path class="cls-6" d="M26.2,31.9v5.4H24.7v-.6a2,2,0,0,1-1.6.7A2.1,2.1,0,0,1,20.8,35V31.9h1.5v2.9c0,.9.4,1.3,1.1,1.3s1.2-.5,1.2-1.5V31.9Z"/><path class="cls-6" d="M31.1,37.1a2.4,2.4,0,0,1-1.2.3c-1.3,0-2.1-.6-2.1-1.9V33.3H27V32.1h.8V30.8h1.6v1.3h1.3v1.2H29.4v2.2a.7.7,0,0,0,.7.7l.6-.2Z"/><path class="cls-6" d="M37.4,31.9v5.4H35.9v-.6a2,2,0,0,1-1.6.7A2.1,2.1,0,0,1,32,35V31.9h1.5v2.9c0,.9.4,1.3,1.1,1.3a1.3,1.3,0,0,0,1.3-1.5V31.9Z"/><path class="cls-6" d="M43.6,34.3v3H42.2v-.6a2.1,2.1,0,0,1-1.7.7c-1.2,0-2-.7-2-1.6s.7-1.6,2.3-1.6h1.3c0-.7-.4-1.1-1.3-1.1a2.7,2.7,0,0,0-1.5.5l-.6-1.1a4.4,4.4,0,0,1,2.3-.6C42.7,31.9,43.6,32.6,43.6,34.3Zm-1.5,1.3v-.5H41c-.7,0-1,.2-1,.6a.8.8,0,0,0,.9.7A1.3,1.3,0,0,0,42.1,35.6Z"/><path class="cls-6" d="M45,29.9h1.6v7.4H45Z"/><path class="cls-6" d="M52.6,31.6v1.9h3.3v1.3H52.6v2.5H51v-7h5.3v1.3Z"/><path class="cls-6" d="M62.6,31.9v5.4H61.1v-.6a2.1,2.1,0,0,1-1.7.7A2.2,2.2,0,0,1,57.1,35V31.9h1.6v2.9c0,.9.4,1.3,1.1,1.3s1.2-.5,1.2-1.5V31.9Z"/><path class="cls-6" d="M69.5,34.2v3.1H67.9V34.5c0-.9-.4-1.3-1-1.3s-1.3.5-1.3,1.5v2.6H64V31.9h1.5v.7a2.1,2.1,0,0,1,1.8-.7A2.1,2.1,0,0,1,69.5,34.2Z"/><path class="cls-6" d="M76.5,29.9v7.4H75v-.6a2.1,2.1,0,0,1-1.7.7,2.7,2.7,0,0,1-2.7-2.8,2.6,2.6,0,0,1,2.7-2.7,2.3,2.3,0,0,1,1.6.6V29.9Zm-1.6,4.7a1.4,1.4,0,0,0-1.3-1.5,1.4,1.4,0,0,0-1.4,1.5,1.3,1.3,0,0,0,1.4,1.5A1.3,1.3,0,0,0,74.9,34.6Z"/><path class="cls-6" d="M80.5,30.3c0-.5.4-.8,1-.8s1,.3,1,.8a1,1,0,0,1-2,0Zm.2,1.6h1.6v5.4H80.7Z"/><path class="cls-6" d="M89.2,34.2v3.1H87.7V34.5c0-.9-.4-1.3-1.1-1.3s-1.3.5-1.3,1.5v2.6H83.7V31.9h1.5v.7a2.3,2.3,0,0,1,1.8-.7A2,2,0,0,1,89.2,34.2Z"/><path class="cls-6" d="M95.9,31.9l-2.3,5.4H92l-2.3-5.4h1.7l1.4,3.7,1.6-3.7Z"/><path class="cls-6" d="M101.6,35.1H97.5a1.7,1.7,0,0,0,1.6,1.1,1.5,1.5,0,0,0,1.3-.6l.9.9a2.9,2.9,0,0,1-2.3.9,2.8,2.8,0,0,1-3-2.8,2.7,2.7,0,0,1,2.8-2.7,2.6,2.6,0,0,1,2.8,2.8Zm-4.1-.9h2.7A1.3,1.3,0,0,0,98.9,33,1.3,1.3,0,0,0,97.5,34.2Z"/><path class="cls-6" d="M102.2,36.8l.5-1.1a3.8,3.8,0,0,0,1.9.5c.7,0,.9-.2.9-.5s-3.2.1-3.2-2.1.9-1.7,2.5-1.7a4.9,4.9,0,0,1,2.1.4l-.6,1.1a2.8,2.8,0,0,0-1.5-.4c-.7,0-1,.3-1,.5s3.2.1,3.2,2.2-.9,1.7-2.5,1.7A3.9,3.9,0,0,1,102.2,36.8Z"/><path class="cls-6" d="M111.5,37.1a2.8,2.8,0,0,1-1.3.3c-1.3,0-2-.6-2-1.9V33.3h-.8V32.1h.8V30.8h1.5v1.3h1.4v1.2h-1.4v2.2a.7.7,0,0,0,.7.7l.6-.2Z"/><path class="cls-6" d="M121.4,34.2v3.1h-1.5V34.5c0-.9-.4-1.3-1-1.3s-1.2.5-1.2,1.4v2.7h-1.6V34.5c0-.9-.4-1.3-1-1.3s-1.2.5-1.2,1.4v2.7h-1.6V31.9h1.5v.7a2.1,2.1,0,0,1,1.7-.7,2.2,2.2,0,0,1,1.8.8,2.4,2.4,0,0,1,1.9-.8A2,2,0,0,1,121.4,34.2Z"/><path class="cls-6" d="M128.1,35.1h-4a1.4,1.4,0,0,0,1.5,1.1,1.8,1.8,0,0,0,1.4-.6l.8.9a3.1,3.1,0,0,1-5.3-1.9,2.9,2.9,0,0,1,5.7.1C128.2,34.8,128.1,34.9,128.1,35.1Zm-4.1-.9h2.7a1.3,1.3,0,0,0-1.3-1.2A1.5,1.5,0,0,0,124,34.2Z"/><path class="cls-6" d="M134.7,34.2v3.1h-1.6V34.5c0-.9-.4-1.3-1-1.3s-1.3.5-1.3,1.5v2.6h-1.6V31.9h1.5v.7a2.1,2.1,0,0,1,1.8-.7A2.1,2.1,0,0,1,134.7,34.2Z"/><path class="cls-6" d="M139.6,37.1a2.5,2.5,0,0,1-1.3.3c-1.3,0-2-.6-2-1.9V33.3h-.8V32.1h.8V30.8h1.6v1.3h1.3v1.2h-1.3v2.2c0,.4.2.7.6.7l.7-.2Z"/><path class="cls-6" d="M139.9,36.8l.6-1.1a3.5,3.5,0,0,0,1.8.5c.8,0,1-.2,1-.5s-3.2.1-3.2-2.1.9-1.7,2.5-1.7a4.2,4.2,0,0,1,2,.4l-.5,1.1a2.8,2.8,0,0,0-1.5-.4c-.7,0-1,.3-1,.5s3.2.1,3.2,2.2-.9,1.7-2.5,1.7A4.3,4.3,0,0,1,139.9,36.8Z"/><path class="cls-6" d="M10.7,48.8l.5-1.1a3.8,3.8,0,0,0,1.9.5c.7,0,1-.2,1-.5s-3.3.1-3.3-2.1,1-1.7,2.5-1.7a4.4,4.4,0,0,1,2.1.4l-.5,1.1a3.2,3.2,0,0,0-1.6-.4c-.7,0-1,.3-1,.5s3.3.1,3.3,2.2-.9,1.7-2.6,1.7A3.9,3.9,0,0,1,10.7,48.8Z"/><path class="cls-6" d="M20,49.1a2.5,2.5,0,0,1-1.3.3,1.8,1.8,0,0,1-2-1.9V45.3h-.8V44.1h.8V42.8h1.6v1.3h1.3v1.2H18.3v2.2a.6.6,0,0,0,.7.7l.6-.2Z"/><path class="cls-6" d="M25.7,46.3v3H24.2v-.6a2,2,0,0,1-1.6.7c-1.3,0-2.1-.7-2.1-1.6s.7-1.6,2.4-1.6h1.2c0-.7-.4-1.1-1.2-1.1a2.8,2.8,0,0,0-1.6.5l-.6-1.1a4.5,4.5,0,0,1,2.4-.6C24.7,43.9,25.7,44.6,25.7,46.3Zm-1.6,1.3v-.5H23c-.7,0-.9.2-.9.6a.7.7,0,0,0,.8.7A1.2,1.2,0,0,0,24.1,47.6Z"/><path class="cls-6" d="M30.4,43.9v1.4h-.3a1.4,1.4,0,0,0-1.5,1.5v2.5H27.1V43.9h1.5v.8A1.9,1.9,0,0,1,30.4,43.9Z"/><path class="cls-6" d="M35,49.1a2.5,2.5,0,0,1-1.3.3,1.8,1.8,0,0,1-2-1.9V45.3h-.8V44.1h.8V42.8h1.6v1.3h1.3v1.2H33.3v2.2c0,.4.2.7.6.7l.7-.2Z"/><path class="cls-6" d="M35.7,42.3c0-.5.4-.8,1-.8a.8.8,0,0,1,.9.8.9.9,0,0,1-.9.9A.9.9,0,0,1,35.7,42.3Zm.2,1.6h1.5v5.4H35.9Z"/><path class="cls-6" d="M44.4,46.2v3.1H42.8V46.5c0-.9-.4-1.3-1.1-1.3a1.3,1.3,0,0,0-1.3,1.5v2.6H38.9V43.9h1.5v.7a2.1,2.1,0,0,1,1.8-.7A2.1,2.1,0,0,1,44.4,46.2Z"/><path class="cls-6" d="M51.4,43.9v4.5c0,2-1.1,2.9-3,2.9a4.7,4.7,0,0,1-2.7-.7l.7-1.1a2.9,2.9,0,0,0,1.9.6c1.1,0,1.5-.5,1.5-1.5v-.2a2.4,2.4,0,0,1-1.7.7,2.6,2.6,0,0,1-2.6-2.6,2.5,2.5,0,0,1,2.6-2.6,2.1,2.1,0,0,1,1.8.7v-.7Zm-1.5,2.6a1.4,1.4,0,0,0-1.4-1.4A1.4,1.4,0,0,0,47,46.5a1.3,1.3,0,0,0,1.5,1.3A1.3,1.3,0,0,0,49.9,46.5Z"/><path class="cls-6" d="M60.4,46.3v3H59v-.6a2.1,2.1,0,0,1-1.7.7c-1.2,0-2-.7-2-1.6s.7-1.6,2.3-1.6h1.3c0-.7-.4-1.1-1.3-1.1a2.7,2.7,0,0,0-1.5.5l-.6-1.1a4.5,4.5,0,0,1,2.4-.6C59.5,43.9,60.4,44.6,60.4,46.3Zm-1.5,1.3v-.5H57.8c-.7,0-.9.2-.9.6a.7.7,0,0,0,.8.7A1.2,1.2,0,0,0,58.9,47.6Z"/><path class="cls-6" d="M65.3,49.1a2.4,2.4,0,0,1-1.2.3c-1.3,0-2.1-.6-2.1-1.9V45.3h-.8V44.1H62V42.8h1.6v1.3h1.3v1.2H63.6v2.2a.7.7,0,0,0,.7.7l.6-.2Z"/><path class="cls-6" d="M67.4,51l.4-1.1.7.2c.4,0,.6-.2.6-.8V43.9h1.6v5.4a1.9,1.9,0,0,1-2.1,2A1.7,1.7,0,0,1,67.4,51Zm1.5-8.7c0-.5.4-.8,1-.8s1,.3,1,.8a1,1,0,0,1-2,0Z"/><path class="cls-6" d="M77.5,43.9v5.4H76v-.6a2,2,0,0,1-1.6.7A2.1,2.1,0,0,1,72.1,47V43.9h1.5v2.9c0,.9.4,1.3,1.1,1.3A1.3,1.3,0,0,0,76,46.6V43.9Z"/><path class="cls-6" d="M78.5,48.8l.5-1.1a3.7,3.7,0,0,0,1.8.5c.8,0,1-.2,1-.5s-3.2.1-3.2-2.1.9-1.7,2.5-1.7a4.2,4.2,0,0,1,2,.4l-.5,1.1a2.8,2.8,0,0,0-1.5-.4c-.7,0-1,.3-1,.5s3.2.1,3.2,2.2-.9,1.7-2.5,1.7A3.9,3.9,0,0,1,78.5,48.8Z"/><path class="cls-6" d="M87.8,49.1a2.8,2.8,0,0,1-1.3.3c-1.3,0-2-.6-2-1.9V45.3h-.9V44.1h.9V42.8H86v1.3h1.4v1.2H86v2.2a.7.7,0,0,0,.7.7l.6-.2Z"/><path class="cls-6" d="M96.1,43.2l.3.5h1.1v.8h-.9v.2a2.1,2.1,0,0,1-1.5,2.1l1.7,2.5H95L93.5,47H91.6V45.7h1.8c1.1,0,1.6-.5,1.6-1.2H91.2v-.8h3.6a1.5,1.5,0,0,0-1.4-.5H91.2v-.9h6.3v.9Z"/><path class="cls-6" d="M101.1,42.3v7H99.5V43.6H98.1V42.3Z"/><path class="cls-6" d="M102.4,45.8c0-2.3,1.2-3.6,3-3.6s3,1.3,3,3.6-1.3,3.6-3,3.6S102.4,48.1,102.4,45.8Zm4.3,0c0-1.6-.5-2.2-1.3-2.2s-1.4.6-1.4,2.2.6,2.3,1.4,2.3S106.7,47.4,106.7,45.8Z"/><path class="cls-6" d="M109.2,45.8c0-2.3,1.2-3.6,3-3.6s3,1.3,3,3.6-1.3,3.6-3,3.6S109.2,48.1,109.2,45.8Zm4.3,0c0-1.6-.5-2.2-1.3-2.2s-1.4.6-1.4,2.2.6,2.3,1.4,2.3S113.5,47.4,113.5,45.8Z"/><path class="cls-25" d="M16,57.7v5.6H14.9l-2.8-3.4v3.4H10.9V57.7h1l2.8,3.4V57.7Z"/><path class="cls-25" d="M16.9,61.1a2.2,2.2,0,0,1,2.4-2.2,2.2,2.2,0,1,1,0,4.4A2.2,2.2,0,0,1,16.9,61.1Zm3.5,0a1.1,1.1,0,1,0-2.2,0,1.1,1.1,0,1,0,2.2,0Z"/><path class="cls-25" d="M26.1,59.1h1.1V60H26.1v3.3H24.9V60h-.7v-.9h.7v-.2a1.5,1.5,0,0,1,1.7-1.6,1.3,1.3,0,0,1,.9.2l-.3.9h-.5a.5.5,0,0,0-.6.6Z"/><path class="cls-25" d="M32,61.5H28.7a1.1,1.1,0,0,0,1.2.8,1.4,1.4,0,0,0,1.1-.4l.7.7a2.1,2.1,0,0,1-1.8.7,2.2,2.2,0,0,1-2.4-2.2,2.1,2.1,0,0,1,2.3-2.2A2.1,2.1,0,0,1,32,61.1Zm-3.3-.8h2.1a1.1,1.1,0,0,0-1-.9A1.1,1.1,0,0,0,28.7,60.7Z"/><path class="cls-25" d="M37,61.5H33.8c.1.5.5.8,1.2.8a1.5,1.5,0,0,0,1.1-.4l.6.7a2.1,2.1,0,0,1-1.7.7,2.2,2.2,0,0,1-2.5-2.2,2.2,2.2,0,0,1,2.3-2.2A2,2,0,0,1,37,61.1Zm-3.3-.8h2.2a1.1,1.1,0,0,0-2.2,0Z"/><path class="cls-25" d="M37.5,62.9l.4-.9a3.3,3.3,0,0,0,1.5.4c.5,0,.8-.2.8-.4s-2.6,0-2.6-1.7.7-1.4,2-1.4a2.9,2.9,0,0,1,1.6.4l-.4.9a2.1,2.1,0,0,0-1.2-.4c-.6,0-.8.2-.8.4s2.6.1,2.6,1.8-.8,1.3-2.1,1.3A4.4,4.4,0,0,1,37.5,62.9Z"/><path class="cls-25" d="M44.5,57.3h1.1v7.5H44.5Z"/><path class="cls-25" d="M54.3,57.7v5.6h-1l-2.8-3.4v3.4H49.2V57.7h1.1l2.8,3.4V57.7Z"/><path class="cls-25" d="M55.3,61.1a2.2,2.2,0,0,1,2.3-2.2,2.2,2.2,0,1,1,0,4.4A2.2,2.2,0,0,1,55.3,61.1Zm3.4,0a1.1,1.1,0,0,0-1.1-1.2,1.1,1.1,0,0,0-1.1,1.2,1.1,1.1,0,0,0,1.1,1.2C58.3,62.3,58.7,61.9,58.7,61.1Z"/><path class="cls-25" d="M67.8,61.1a2.1,2.1,0,0,1-2.2,2.2,1.7,1.7,0,0,1-1.3-.5v2H63.1V59h1.2v.5a1.6,1.6,0,0,1,1.3-.6A2.2,2.2,0,0,1,67.8,61.1Zm-1.3,0a1.1,1.1,0,1,0-2.2,0,1.1,1.1,0,1,0,2.2,0Z"/><path class="cls-25" d="M72.3,60.8v2.5H71.2v-.6a1.5,1.5,0,0,1-1.3.6c-1,0-1.6-.5-1.6-1.3s.5-1.3,1.8-1.3h1c0-.5-.3-.8-1-.8a1.6,1.6,0,0,0-1.2.4l-.5-.9a3.8,3.8,0,0,1,1.9-.5C71.6,58.9,72.3,59.5,72.3,60.8Zm-1.2,1.1v-.4h-.9c-.5,0-.7.2-.7.5s.2.5.7.5A.9.9,0,0,0,71.1,61.9Z"/><path class="cls-25" d="M78.2,61.1A2.1,2.1,0,0,1,76,63.3a1.5,1.5,0,0,1-1.3-.5v2H73.5V59h1.2v.5a1.5,1.5,0,0,1,1.3-.6A2.2,2.2,0,0,1,78.2,61.1Zm-1.3,0a1.1,1.1,0,1,0-2.2,0,1.1,1.1,0,1,0,2.2,0Z"/><path class="cls-25" d="M83.2,61.5H79.9c.1.5.6.8,1.3.8a1.3,1.3,0,0,0,1-.4l.7.7a2.5,2.5,0,0,1-4.2-1.5A2.2,2.2,0,0,1,81,58.9a2.1,2.1,0,0,1,2.2,2.2Zm-3.3-.8H82a1.1,1.1,0,0,0-1-.9A1.1,1.1,0,0,0,79.9,60.7Z"/><path class="cls-25" d="M86.7,58.9v1.2h-.3c-.7,0-1.1.4-1.1,1.2v2.1H84V59h1.2v.5A1.8,1.8,0,0,1,86.7,58.9Z"/><path class="cls-25" d="M94.5,59,93,63.3H91.8l-1-2.7-1,2.7H88.6L87,59h1.2l1,2.9L90.3,59h1l1.1,2.9,1-2.9Z"/><path class="cls-25" d="M94.7,61.1A2.2,2.2,0,0,1,97,58.9a2.2,2.2,0,1,1,0,4.4A2.2,2.2,0,0,1,94.7,61.1Zm3.4,0A1.1,1.1,0,0,0,97,59.9a1.1,1.1,0,0,0-1.1,1.2A1.1,1.1,0,0,0,97,62.3C97.7,62.3,98.1,61.9,98.1,61.1Z"/><path class="cls-25" d="M102.9,58.9v1.2h-.3c-.7,0-1.1.4-1.1,1.2v2.1h-1.3V59h1.2v.5A1.8,1.8,0,0,1,102.9,58.9Z"/><path class="cls-25" d="M105.5,61.6l-.6.6v1.1h-1.3v-6h1.3v3.4l1.8-1.7h1.5l-1.8,1.8,2,2.5h-1.6Z"/><rect class="cls-6" x="11" y="72.7" width="70.2" height="18.35" rx="3.3"/><path d="M21.2,79.1h1.3V85H21.2Z"/><path d="M28.5,82.4V85H27.2V82.6a.9.9,0,0,0-1-1c-.6,0-1.1.3-1.1,1.2V85H23.8V80.5h1.3V81a1.9,1.9,0,0,1,1.5-.6A1.8,1.8,0,0,1,28.5,82.4Z"/><path d="M34.1,80.5l-2,4.5H30.8l-1.9-4.5h1.3l1.3,3.1,1.3-3.1Z"/><path d="M38.9,83.1H35.5c.1.6.6.9,1.3.9a1.5,1.5,0,0,0,1.1-.4l.7.7a2.6,2.6,0,0,1-4.5-1.5,2.4,2.4,0,0,1,2.4-2.4,2.3,2.3,0,0,1,2.4,2.4Zm-3.5-.7h2.3a1.2,1.2,0,0,0-1.1-1A1.2,1.2,0,0,0,35.4,82.4Z"/><path d="M39.3,84.6l.5-1a2.8,2.8,0,0,0,1.6.5c.6,0,.8-.2.8-.4s-2.7,0-2.7-1.8.7-1.5,2-1.5a4.4,4.4,0,0,1,1.8.4l-.4,1a2.5,2.5,0,0,0-1.4-.4c-.5,0-.8.2-.8.4s2.7.1,2.7,1.8-.7,1.5-2.1,1.5A3.9,3.9,0,0,1,39.3,84.6Z"/><path d="M47.2,84.8a2,2,0,0,1-1.1.3,1.5,1.5,0,0,1-1.7-1.6V81.6h-.7v-1h.7V79.5h1.3v1.1h1.1v1H45.7v1.8a.5.5,0,0,0,.6.6h.5Z"/><path d="M55.8,79.1V85H54.7l-3-3.6V85H50.4V79.1h1.1l2.9,3.6V79.1Z"/><path d="M56.8,82.8a2.3,2.3,0,0,1,2.4-2.4,2.4,2.4,0,1,1,0,4.7A2.3,2.3,0,0,1,56.8,82.8Zm3.6,0a1.2,1.2,0,0,0-1.2-1.3,1.2,1.2,0,0,0-1.1,1.3A1.1,1.1,0,0,0,59.2,84,1.2,1.2,0,0,0,60.4,82.8Z"/><path d="M69.7,80.5,68.1,85H66.8l-1-2.8-1,2.8H63.5l-1.6-4.5h1.2l1.1,3,1.1-3h1.1l1.1,3,1.1-3Z"/></svg>