<svg xmlns="http://www.w3.org/2000/svg" xmlns:xlink="http://www.w3.org/1999/xlink" viewBox="0 0 280 120"><defs><style>.cls-1{mask:url(#mask);filter:url(#luminosity-noclip-2);}.cls-13,.cls-2,.cls-26,.cls-27,.cls-28,.cls-32,.cls-33,.cls-36,.cls-40,.cls-46,.cls-51{mix-blend-mode:multiply;}.cls-2{fill:url(#linear-gradient);}.cls-3{fill:none;}.cls-4{isolation:isolate;}.cls-5{fill:url(#radial-gradient);}.cls-6{fill:url(#radial-gradient-2);}.cls-7{fill:url(#radial-gradient-3);}.cls-8{fill:#fff;}.cls-9{fill:#ffdfab;}.cls-10{fill:#d1932a;}.cls-11{fill:#eeb81d;}.cls-12{fill:#faf28d;}.cls-13{opacity:0.5;}.cls-14{fill:#bedc8d;}.cls-15{fill:#336431;}.cls-16{fill:#e9de6d;}.cls-17{fill:#f9ee74;}.cls-18{fill:#f2efdc;}.cls-19{fill:#fffef3;}.cls-20{fill:#489343;}.cls-21{fill:#44883f;}.cls-22{fill:#376c34;}.cls-23{fill:#478f42;}.cls-24{fill:#356732;}.cls-25{fill:#397137;}.cls-26{fill:url(#radial-gradient-4);}.cls-27{fill:url(#radial-gradient-5);}.cls-28{fill:url(#radial-gradient-6);}.cls-29{fill:#5c5d5d;}.cls-30{fill:#f4f5f5;}.cls-31{fill:#783d41;}.cls-32{fill:url(#linear-gradient-2);}.cls-33{fill:#cab8ba;opacity:0.7;}.cls-34{fill:url(#linear-gradient-3);}.cls-35{fill:url(#Steel_10);}.cls-36{fill:url(#linear-gradient-4);}.cls-37{fill:url(#linear-gradient-5);}.cls-38{fill:url(#linear-gradient-6);}.cls-39{fill:#f29b4e;}.cls-40,.cls-46{fill:#939497;}.cls-40{opacity:0.6;}.cls-41{fill:url(#Steel_10-2);}.cls-42{fill:url(#Steel_10-3);}.cls-43{fill:#2c2c2b;}.cls-44{fill:url(#linear-gradient-7);}.cls-45{mask:url(#mask-2);}.cls-47{fill:url(#Steel_10-4);}.cls-48{fill:url(#linear-gradient-8);}.cls-49{fill:url(#linear-gradient-9);}.cls-50{fill:#010101;}.cls-51{fill:#848485;opacity:0.4;}.cls-52{clip-path:url(#clip-path);}.cls-53{fill:#a4d8ce;}.cls-54{fill:#3ca595;}.cls-55{fill:url(#linear-gradient-10);}.cls-56{fill:url(#linear-gradient-11);}.cls-57{fill:url(#linear-gradient-12);}.cls-58{fill:url(#linear-gradient-13);}.cls-59{fill:#fbb049;}.cls-60{fill:url(#linear-gradient-14);}.cls-61{fill:url(#linear-gradient-15);}.cls-62{fill:url(#linear-gradient-16);}.cls-63{fill:url(#linear-gradient-17);}.cls-64{fill:url(#linear-gradient-18);}.cls-65{fill:url(#linear-gradient-19);}.cls-66{fill:url(#linear-gradient-20);}.cls-67{fill:url(#linear-gradient-21);}.cls-68{fill:url(#linear-gradient-22);}.cls-69{fill:url(#linear-gradient-23);}.cls-70{fill:url(#linear-gradient-24);}.cls-71{fill:url(#linear-gradient-25);}.cls-72{fill:url(#linear-gradient-26);}.cls-73{fill:url(#linear-gradient-27);}.cls-74{fill:url(#linear-gradient-28);}.cls-75{fill:url(#linear-gradient-29);}.cls-76{fill:url(#linear-gradient-30);}.cls-77{fill:url(#linear-gradient-31);}.cls-78{fill:url(#linear-gradient-32);}.cls-79{fill:url(#linear-gradient-33);}.cls-80{fill:url(#linear-gradient-34);}.cls-81{fill:url(#linear-gradient-35);}.cls-82{fill:url(#linear-gradient-36);}.cls-83{fill:url(#linear-gradient-37);}.cls-84{fill:url(#linear-gradient-38);}.cls-85{fill:url(#linear-gradient-39);}.cls-86{fill:url(#linear-gradient-40);}.cls-87{fill:url(#linear-gradient-41);}.cls-88{fill:url(#linear-gradient-42);}.cls-89{fill:url(#linear-gradient-43);}.cls-90{fill:url(#linear-gradient-44);}.cls-91{fill:url(#linear-gradient-45);}.cls-92{fill:url(#linear-gradient-46);}.cls-93{fill:url(#linear-gradient-47);}.cls-94{fill:url(#linear-gradient-48);}.cls-95{fill:url(#linear-gradient-49);}.cls-96{fill:url(#linear-gradient-50);}.cls-97{fill:url(#linear-gradient-51);}.cls-98{fill:url(#linear-gradient-52);}.cls-99{fill:url(#linear-gradient-53);}.cls-100{fill:url(#linear-gradient-54);}.cls-101{fill:url(#linear-gradient-55);}.cls-102{fill:url(#linear-gradient-56);}.cls-103{fill:url(#linear-gradient-57);}.cls-104{fill:url(#linear-gradient-58);}.cls-105{fill:url(#linear-gradient-59);}.cls-106{fill:url(#linear-gradient-60);}.cls-107{fill:url(#linear-gradient-61);}.cls-108{fill:url(#linear-gradient-62);}.cls-109{fill:url(#linear-gradient-63);}.cls-110{fill:url(#linear-gradient-64);}.cls-111{fill:url(#linear-gradient-65);}.cls-112{fill:url(#linear-gradient-66);}.cls-113{fill:url(#linear-gradient-67);}.cls-114{fill:url(#linear-gradient-68);}.cls-115{fill:url(#linear-gradient-69);}.cls-116{fill:url(#linear-gradient-70);}.cls-117{fill:url(#linear-gradient-71);}.cls-118{fill:url(#linear-gradient-72);}.cls-119{fill:url(#linear-gradient-73);}.cls-120{fill:url(#linear-gradient-74);}.cls-121{fill:url(#linear-gradient-75);}.cls-122{fill:url(#linear-gradient-76);}.cls-123{fill:url(#linear-gradient-77);}.cls-124{fill:url(#linear-gradient-78);}.cls-125{fill:url(#linear-gradient-79);}.cls-126{fill:url(#linear-gradient-80);}.cls-127{fill:url(#linear-gradient-81);}.cls-128{fill:url(#linear-gradient-82);}.cls-129{fill:url(#linear-gradient-83);}.cls-130{fill:url(#linear-gradient-84);}.cls-131{fill:url(#linear-gradient-85);}.cls-132{fill:url(#linear-gradient-86);}.cls-133{fill:url(#linear-gradient-87);}.cls-134{fill:url(#linear-gradient-88);}.cls-135{fill:url(#linear-gradient-89);}.cls-136{fill:url(#linear-gradient-90);}.cls-137{fill:url(#linear-gradient-91);}.cls-138{fill:url(#linear-gradient-92);}.cls-139{fill:url(#linear-gradient-93);}.cls-140{fill:url(#linear-gradient-94);}.cls-141{fill:url(#linear-gradient-95);}.cls-142{fill:url(#linear-gradient-96);}.cls-143{fill:url(#linear-gradient-97);}.cls-144{fill:url(#linear-gradient-98);}.cls-145{fill:url(#linear-gradient-99);}.cls-146{fill:url(#linear-gradient-100);}.cls-147{fill:url(#linear-gradient-101);}.cls-148{fill:url(#linear-gradient-102);}.cls-149{fill:url(#linear-gradient-103);}.cls-150{fill:url(#linear-gradient-104);}.cls-151{fill:url(#linear-gradient-105);}.cls-152{fill:url(#linear-gradient-106);}.cls-153{fill:url(#linear-gradient-107);}.cls-154{fill:url(#linear-gradient-108);}.cls-155{fill:url(#linear-gradient-109);}.cls-156{fill:url(#linear-gradient-110);}.cls-157{fill:url(#linear-gradient-111);}.cls-158{fill:url(#linear-gradient-112);}.cls-159{fill:url(#linear-gradient-113);}.cls-160{fill:url(#linear-gradient-114);}.cls-161{fill:url(#linear-gradient-115);}.cls-162{fill:url(#linear-gradient-116);}.cls-163{fill:url(#linear-gradient-117);}.cls-164{fill:url(#linear-gradient-118);}.cls-165{fill:url(#linear-gradient-119);}.cls-166{fill:url(#linear-gradient-120);}.cls-167{fill:url(#linear-gradient-121);}.cls-168{fill:url(#linear-gradient-122);}.cls-169{fill:url(#linear-gradient-123);}.cls-170{fill:url(#linear-gradient-124);}.cls-171{fill:url(#linear-gradient-125);}.cls-172{fill:url(#linear-gradient-126);}.cls-173{fill:url(#linear-gradient-127);}.cls-174{fill:url(#linear-gradient-128);}.cls-175{fill:url(#linear-gradient-129);}.cls-176{fill:url(#linear-gradient-130);}.cls-177{fill:url(#linear-gradient-131);}.cls-178{fill:url(#linear-gradient-132);}.cls-179{fill:url(#linear-gradient-133);}.cls-180{fill:url(#linear-gradient-134);}.cls-181{fill:url(#linear-gradient-135);}.cls-182{fill:url(#linear-gradient-136);}.cls-183{fill:url(#linear-gradient-137);}.cls-184{fill:url(#linear-gradient-138);}.cls-185{filter:url(#luminosity-noclip);}</style><filter id="luminosity-noclip" x="211.38" y="-8252" width="39.2" height="32766" filterUnits="userSpaceOnUse" color-interpolation-filters="sRGB"><feFlood flood-color="#fff" result="bg"/><feBlend in="SourceGraphic" in2="bg"/></filter><mask id="mask" x="211.38" y="-8252" width="39.2" height="32766" maskUnits="userSpaceOnUse"><g class="cls-185"/></mask><linearGradient id="linear-gradient" x1="231.38" y1="49.22" x2="230.03" y2="65.38" gradientUnits="userSpaceOnUse"><stop offset="0" stop-color="gray"/><stop offset="0.2" stop-color="#717171"/><stop offset="0.59" stop-color="#4a4a4a"/><stop offset="1" stop-color="#1a1a1a"/></linearGradient><radialGradient id="radial-gradient" cx="193.79" cy="63.97" r="150.01" gradientTransform="matrix(0, -1, 1.04, 0, 126.92, 257.76)" gradientUnits="userSpaceOnUse"><stop offset="0" stop-color="#fff"/><stop offset="0.41" stop-color="#fbfbfc"/><stop offset="0.79" stop-color="#f0f1f1"/><stop offset="1" stop-color="#e6e7e8"/></radialGradient><radialGradient id="radial-gradient-2" cx="193.79" cy="63.97" r="150.01" gradientTransform="matrix(0, -1, 1.04, 0, 126.92, 257.76)" gradientUnits="userSpaceOnUse"><stop offset="0" stop-color="#fff"/><stop offset="0.14" stop-color="#fac3ae"/><stop offset="0.28" stop-color="#f58b63"/><stop offset="0.39" stop-color="#f26834"/><stop offset="0.44" stop-color="#f15b22"/></radialGradient><radialGradient id="radial-gradient-3" cx="218.45" cy="60" r="60.78" gradientUnits="userSpaceOnUse"><stop offset="0" stop-color="#e8e6f3"/><stop offset="0.6" stop-color="#e7e6ef"/><stop offset="1" stop-color="#e6e7e8"/></radialGradient><radialGradient id="radial-gradient-4" cx="-4151.58" cy="-2486.6" r="14.29" gradientTransform="matrix(0.09, 0.26, 1.24, -0.53, 3695.69, -146.51)" gradientUnits="userSpaceOnUse"><stop offset="0" stop-color="#3f2915"/><stop offset="0.06" stop-color="#513d2b"/><stop offset="0.26" stop-color="#85776b"/><stop offset="0.44" stop-color="#b1a8a0"/><stop offset="0.62" stop-color="#d3cec9"/><stop offset="0.77" stop-color="#ebe9e7"/><stop offset="0.9" stop-color="#faf9f9"/><stop offset="1" stop-color="#fff"/></radialGradient><radialGradient id="radial-gradient-5" cx="-8266.52" cy="-1854.23" r="10.07" gradientTransform="matrix(0.06, 0.12, 1.67, -0.78, 3852.36, -344.29)" xlink:href="#radial-gradient-4"/><radialGradient id="radial-gradient-6" cx="-5071.88" cy="-1930.05" r="10.69" gradientTransform="matrix(0.07, 0.18, 1.69, -0.77, 3860.7, -492.37)" xlink:href="#radial-gradient-4"/><linearGradient id="linear-gradient-2" x1="4405.64" y1="63.36" x2="4397.72" y2="43.1" gradientTransform="translate(-4185.2)" gradientUnits="userSpaceOnUse"><stop offset="0" stop-color="#3b291a"/><stop offset="0.1" stop-color="#483729"/><stop offset="0.28" stop-color="#695b50"/><stop offset="0.54" stop-color="#9f968f"/><stop offset="0.85" stop-color="#e9e7e5"/><stop offset="0.94" stop-color="#fff"/></linearGradient><linearGradient id="linear-gradient-3" x1="4383.75" y1="39.36" x2="4387.08" y2="53.59" gradientTransform="translate(-4185.2)" gradientUnits="userSpaceOnUse"><stop offset="0.17" stop-color="#e4e6e4"/><stop offset="0.53" stop-color="#7b7779"/><stop offset="0.61" stop-color="#898687"/><stop offset="0.76" stop-color="#afadac"/><stop offset="0.94" stop-color="#e4e4e1"/></linearGradient><linearGradient id="Steel_10" x1="4381.69" y1="52.47" x2="4626.29" y2="52.47" gradientTransform="translate(-4185.2)" gradientUnits="userSpaceOnUse"><stop offset="0" stop-color="#3b3c3b"/><stop offset="0" stop-color="#2d2d2c"/><stop offset="0" stop-color="#2c2c2b"/><stop offset="0.2" stop-color="#1d1d1d"/><stop offset="0.26" stop-color="#171717"/><stop offset="0.39" stop-color="#212120"/><stop offset="0.57" stop-color="#2c2c2b"/><stop offset="0.88" stop-color="#262625"/><stop offset="1" stop-color="#262625"/><stop offset="1" stop-color="#2c2c2b"/></linearGradient><linearGradient id="linear-gradient-4" x1="209.13" y1="40.24" x2="219.26" y2="59.09" gradientUnits="userSpaceOnUse"><stop offset="0" stop-color="#fff"/><stop offset="0.04" stop-color="#f2f2f2"/><stop offset="0.22" stop-color="#bebebe"/><stop offset="0.4" stop-color="#939393"/><stop offset="0.56" stop-color="#727272"/><stop offset="0.72" stop-color="#5a5a5a"/><stop offset="0.87" stop-color="#4c4c4c"/><stop offset="1" stop-color="#474747"/></linearGradient><linearGradient id="linear-gradient-5" x1="4405.77" y1="91.79" x2="4405.93" y2="115.39" gradientTransform="translate(-4185.2)" gradientUnits="userSpaceOnUse"><stop offset="0.17" stop-color="#c3c4c6"/><stop offset="0.36" stop-color="#7b7779"/><stop offset="0.54" stop-color="#878588"/><stop offset="0.73" stop-color="#98999c"/></linearGradient><linearGradient id="linear-gradient-6" x1="4403.67" y1="68.39" x2="4413.56" y2="99.28" gradientTransform="translate(-4185.2)" gradientUnits="userSpaceOnUse"><stop offset="0" stop-color="#3b3c3b"/><stop offset="0" stop-color="#393939"/><stop offset="0.44" stop-color="#3a3a3a"/><stop offset="0.68" stop-color="#313130"/><stop offset="0.88" stop-color="#262625"/><stop offset="1" stop-color="#373737"/><stop offset="1" stop-color="#2c2c2b"/></linearGradient><linearGradient id="Steel_10-2" x1="4392.15" y1="83.42" x2="4415.93" y2="83.42" xlink:href="#Steel_10"/><linearGradient id="Steel_10-3" x1="4393.09" y1="83.51" x2="4401.02" y2="83.51" xlink:href="#Steel_10"/><linearGradient id="linear-gradient-7" x1="4411.85" y1="58.39" x2="4404.87" y2="67.39" gradientTransform="translate(-4185.2)" gradientUnits="userSpaceOnUse"><stop offset="0.17" stop-color="#c3c4c6"/><stop offset="0.36" stop-color="#7b7779"/><stop offset="0.51" stop-color="#898688"/><stop offset="0.79" stop-color="#adadaf"/><stop offset="0.94" stop-color="#c3c4c6"/></linearGradient><filter id="luminosity-noclip-2" x="211.38" y="44.23" width="39.2" height="19.6" filterUnits="userSpaceOnUse" color-interpolation-filters="sRGB"><feFlood flood-color="#fff" result="bg"/><feBlend in="SourceGraphic" in2="bg"/></filter><mask id="mask-2" x="211.38" y="44.23" width="39.2" height="19.6" maskUnits="userSpaceOnUse"><g class="cls-1"><path class="cls-2" d="M250.4,44.4,233.9,56.8l-22.5,7,13.9-12.1a8.5,8.5,0,0,1,2.8-1.2l22.2-6.3h.3Z"/></g></mask><linearGradient id="Steel_10-4" x1="4393.09" y1="53.88" x2="5370.13" y2="53.88" xlink:href="#Steel_10"/><linearGradient id="linear-gradient-8" x1="4394.49" y1="63.76" x2="4391.52" y2="65.08" xlink:href="#linear-gradient-7"/><linearGradient id="linear-gradient-9" x1="4391.77" y1="62.77" x2="4393.47" y2="66.01" gradientTransform="translate(-4185.2)" gradientUnits="userSpaceOnUse"><stop offset="0.25" stop-color="#c3c4c6"/><stop offset="0.36" stop-color="#7b7779"/><stop offset="0.46" stop-color="#898688"/><stop offset="0.64" stop-color="#adadaf"/><stop offset="0.74" stop-color="#c3c4c6"/></linearGradient><clipPath id="clip-path"><path class="cls-3" d="M208.9,63.5l14.2-12.2c1.5-1.3,4-1.8,5.5-2.2l17.1-4.4,13.5-15.9L235.8,13.5l-30.9,2.4L195,33.6Z"/></clipPath><linearGradient id="linear-gradient-10" x1="247.36" y1="1347.92" x2="250.39" y2="1347.92" gradientTransform="matrix(0.99, -0.35, 0, 1, -23.39, -1171.07)" gradientUnits="userSpaceOnUse"><stop offset="0" stop-color="#4d494a"/><stop offset="0.27" stop-color="#c2c1c1"/><stop offset="0.59" stop-color="#7e7b7c"/><stop offset="1" stop-color="#4b494a"/></linearGradient><linearGradient id="linear-gradient-11" x1="226.3" y1="105.02" x2="240.3" y2="105.02" gradientUnits="userSpaceOnUse"><stop offset="0" stop-color="#f47f54"/><stop offset="0" stop-color="#f58353"/><stop offset="0.04" stop-color="#f89b4e"/><stop offset="0.08" stop-color="#fbae4b"/><stop offset="0.13" stop-color="#fdbb48"/><stop offset="0.2" stop-color="#ffc346"/><stop offset="0.32" stop-color="#ffc546"/><stop offset="0.45" stop-color="#fdba48"/><stop offset="0.69" stop-color="#f99d4d"/><stop offset="1" stop-color="#f36f56"/></linearGradient><linearGradient id="linear-gradient-12" x1="233.37" y1="103.44" x2="234.1" y2="109.62" gradientUnits="userSpaceOnUse"><stop offset="0" stop-color="#fedb46"/><stop offset="1" stop-color="#fcee1a"/></linearGradient><linearGradient id="linear-gradient-13" x1="233.33" y1="103.17" x2="233.56" y2="105.06" xlink:href="#linear-gradient-12"/><linearGradient id="linear-gradient-14" x1="-6974.27" y1="432.97" x2="-6974.05" y2="434.86" gradientTransform="translate(-6740.7 537.8) rotate(180)" gradientUnits="userSpaceOnUse"><stop offset="0" stop-color="#f36f56"/><stop offset="0.31" stop-color="#f99d4d"/><stop offset="0.55" stop-color="#fdba48"/><stop offset="0.68" stop-color="#ffc546"/><stop offset="0.8" stop-color="#ffc346"/><stop offset="0.87" stop-color="#fdbb48"/><stop offset="0.92" stop-color="#fbae4b"/><stop offset="0.96" stop-color="#f89b4e"/><stop offset="1" stop-color="#f58353"/><stop offset="1" stop-color="#f47f54"/></linearGradient><linearGradient id="linear-gradient-15" x1="224.61" y1="103.6" x2="238.61" y2="103.6" xlink:href="#linear-gradient-11"/><linearGradient id="linear-gradient-16" x1="231.67" y1="102.02" x2="232.41" y2="108.21" xlink:href="#linear-gradient-12"/><linearGradient id="linear-gradient-17" x1="231.64" y1="101.75" x2="231.87" y2="103.65" xlink:href="#linear-gradient-12"/><linearGradient id="linear-gradient-18" x1="-6972.58" y1="434.39" x2="-6972.35" y2="436.28" xlink:href="#linear-gradient-14"/><linearGradient id="linear-gradient-19" x1="226.07" y1="102.19" x2="240.07" y2="102.19" xlink:href="#linear-gradient-11"/><linearGradient id="linear-gradient-20" x1="233.13" y1="100.61" x2="233.87" y2="106.79" xlink:href="#linear-gradient-12"/><linearGradient id="linear-gradient-21" x1="233.1" y1="100.33" x2="233.33" y2="102.23" xlink:href="#linear-gradient-12"/><linearGradient id="linear-gradient-22" x1="-6974.04" y1="435.81" x2="-6973.81" y2="437.7" xlink:href="#linear-gradient-14"/><linearGradient id="linear-gradient-23" x1="226.95" y1="100.77" x2="240.96" y2="100.77" xlink:href="#linear-gradient-11"/><linearGradient id="linear-gradient-24" x1="234.02" y1="99.19" x2="234.76" y2="105.37" xlink:href="#linear-gradient-12"/><linearGradient id="linear-gradient-25" x1="233.99" y1="98.92" x2="234.21" y2="100.81" xlink:href="#linear-gradient-12"/><linearGradient id="linear-gradient-26" x1="-6974.93" y1="437.22" x2="-6974.7" y2="439.12" xlink:href="#linear-gradient-14"/><linearGradient id="linear-gradient-27" x1="226.3" y1="99.24" x2="240.3" y2="99.24" xlink:href="#linear-gradient-11"/><linearGradient id="linear-gradient-28" x1="233.37" y1="97.66" x2="234.1" y2="103.84" xlink:href="#linear-gradient-12"/><linearGradient id="linear-gradient-29" x1="233.33" y1="97.39" x2="233.56" y2="99.28" xlink:href="#linear-gradient-12"/><linearGradient id="linear-gradient-30" x1="-6974.27" y1="438.75" x2="-6974.05" y2="440.65" xlink:href="#linear-gradient-14"/><linearGradient id="linear-gradient-31" x1="224.61" y1="97.82" x2="238.61" y2="97.82" xlink:href="#linear-gradient-11"/><linearGradient id="linear-gradient-32" x1="231.67" y1="96.24" x2="232.41" y2="102.42" xlink:href="#linear-gradient-12"/><linearGradient id="linear-gradient-33" x1="231.64" y1="95.97" x2="231.87" y2="97.87" xlink:href="#linear-gradient-12"/><linearGradient id="linear-gradient-34" x1="-6972.58" y1="440.17" x2="-6972.35" y2="442.06" xlink:href="#linear-gradient-14"/><linearGradient id="linear-gradient-35" x1="226.07" y1="96.41" x2="240.07" y2="96.41" xlink:href="#linear-gradient-11"/><linearGradient id="linear-gradient-36" x1="233.13" y1="94.83" x2="233.87" y2="101.01" xlink:href="#linear-gradient-12"/><linearGradient id="linear-gradient-37" x1="233.1" y1="94.55" x2="233.33" y2="96.45" xlink:href="#linear-gradient-12"/><linearGradient id="linear-gradient-38" x1="-6974.04" y1="441.59" x2="-6973.81" y2="443.48" xlink:href="#linear-gradient-14"/><linearGradient id="linear-gradient-39" x1="240.48" y1="105.02" x2="254.48" y2="105.02" xlink:href="#linear-gradient-11"/><linearGradient id="linear-gradient-40" x1="247.54" y1="103.44" x2="248.28" y2="109.62" xlink:href="#linear-gradient-12"/><linearGradient id="linear-gradient-41" x1="247.51" y1="103.17" x2="247.74" y2="105.06" xlink:href="#linear-gradient-12"/><linearGradient id="linear-gradient-42" x1="-6988.45" y1="432.97" x2="-6988.22" y2="434.86" xlink:href="#linear-gradient-14"/><linearGradient id="linear-gradient-43" x1="238.78" y1="103.6" x2="252.79" y2="103.6" xlink:href="#linear-gradient-11"/><linearGradient id="linear-gradient-44" x1="245.85" y1="102.02" x2="246.59" y2="108.21" xlink:href="#linear-gradient-12"/><linearGradient id="linear-gradient-45" x1="245.82" y1="101.75" x2="246.05" y2="103.65" xlink:href="#linear-gradient-12"/><linearGradient id="linear-gradient-46" x1="-6986.76" y1="434.39" x2="-6986.53" y2="436.28" xlink:href="#linear-gradient-14"/><linearGradient id="linear-gradient-47" x1="240.24" y1="102.19" x2="254.25" y2="102.19" xlink:href="#linear-gradient-11"/><linearGradient id="linear-gradient-48" x1="247.31" y1="100.61" x2="248.05" y2="106.79" xlink:href="#linear-gradient-12"/><linearGradient id="linear-gradient-49" x1="247.28" y1="100.33" x2="247.51" y2="102.23" xlink:href="#linear-gradient-12"/><linearGradient id="linear-gradient-50" x1="-6988.22" y1="435.81" x2="-6987.99" y2="437.7" xlink:href="#linear-gradient-14"/><linearGradient id="linear-gradient-51" x1="241.13" y1="100.77" x2="255.14" y2="100.77" xlink:href="#linear-gradient-11"/><linearGradient id="linear-gradient-52" x1="248.2" y1="99.19" x2="248.94" y2="105.37" xlink:href="#linear-gradient-12"/><linearGradient id="linear-gradient-53" x1="248.17" y1="98.92" x2="248.39" y2="100.81" xlink:href="#linear-gradient-12"/><linearGradient id="linear-gradient-54" x1="-6989.1" y1="437.22" x2="-6988.88" y2="439.12" xlink:href="#linear-gradient-14"/><linearGradient id="linear-gradient-55" x1="240.48" y1="99.24" x2="254.48" y2="99.24" xlink:href="#linear-gradient-11"/><linearGradient id="linear-gradient-56" x1="247.54" y1="97.66" x2="248.28" y2="103.84" xlink:href="#linear-gradient-12"/><linearGradient id="linear-gradient-57" x1="247.51" y1="97.39" x2="247.74" y2="99.28" xlink:href="#linear-gradient-12"/><linearGradient id="linear-gradient-58" x1="-6988.45" y1="438.75" x2="-6988.22" y2="440.65" xlink:href="#linear-gradient-14"/><linearGradient id="linear-gradient-59" x1="238.78" y1="97.82" x2="252.79" y2="97.82" xlink:href="#linear-gradient-11"/><linearGradient id="linear-gradient-60" x1="245.85" y1="96.24" x2="246.59" y2="102.42" xlink:href="#linear-gradient-12"/><linearGradient id="linear-gradient-61" x1="245.82" y1="95.97" x2="246.05" y2="97.87" xlink:href="#linear-gradient-12"/><linearGradient id="linear-gradient-62" x1="-6986.76" y1="440.17" x2="-6986.53" y2="442.06" xlink:href="#linear-gradient-14"/><linearGradient id="linear-gradient-63" x1="240.24" y1="96.41" x2="254.25" y2="96.41" xlink:href="#linear-gradient-11"/><linearGradient id="linear-gradient-64" x1="247.31" y1="94.83" x2="248.05" y2="101.01" xlink:href="#linear-gradient-12"/><linearGradient id="linear-gradient-65" x1="247.28" y1="94.55" x2="247.51" y2="96.45" xlink:href="#linear-gradient-12"/><linearGradient id="linear-gradient-66" x1="-6988.22" y1="441.59" x2="-6987.99" y2="443.48" xlink:href="#linear-gradient-14"/><linearGradient id="linear-gradient-67" x1="240.48" y1="94.63" x2="254.48" y2="94.63" xlink:href="#linear-gradient-11"/><linearGradient id="linear-gradient-68" x1="247.54" y1="93.05" x2="248.28" y2="99.23" xlink:href="#linear-gradient-12"/><linearGradient id="linear-gradient-69" x1="247.51" y1="92.78" x2="247.74" y2="94.67" xlink:href="#linear-gradient-12"/><linearGradient id="linear-gradient-70" x1="-6988.45" y1="443.36" x2="-6988.22" y2="445.25" xlink:href="#linear-gradient-14"/><linearGradient id="linear-gradient-71" x1="238.78" y1="93.21" x2="252.79" y2="93.21" xlink:href="#linear-gradient-11"/><linearGradient id="linear-gradient-72" x1="245.85" y1="91.63" x2="246.59" y2="97.82" xlink:href="#linear-gradient-12"/><linearGradient id="linear-gradient-73" x1="245.82" y1="91.36" x2="246.05" y2="93.26" xlink:href="#linear-gradient-12"/><linearGradient id="linear-gradient-74" x1="-6986.76" y1="444.78" x2="-6986.53" y2="446.67" xlink:href="#linear-gradient-14"/><linearGradient id="linear-gradient-75" x1="240.24" y1="91.8" x2="254.25" y2="91.8" xlink:href="#linear-gradient-11"/><linearGradient id="linear-gradient-76" x1="247.31" y1="90.22" x2="248.05" y2="96.4" xlink:href="#linear-gradient-12"/><linearGradient id="linear-gradient-77" x1="247.28" y1="89.94" x2="247.51" y2="91.84" xlink:href="#linear-gradient-12"/><linearGradient id="linear-gradient-78" x1="-6988.22" y1="446.2" x2="-6987.99" y2="448.09" xlink:href="#linear-gradient-14"/><linearGradient id="linear-gradient-79" x1="255.14" y1="105.02" x2="269.15" y2="105.02" xlink:href="#linear-gradient-11"/><linearGradient id="linear-gradient-80" x1="262.21" y1="103.44" x2="262.95" y2="109.62" xlink:href="#linear-gradient-12"/><linearGradient id="linear-gradient-81" x1="262.18" y1="103.17" x2="262.41" y2="105.06" xlink:href="#linear-gradient-12"/><linearGradient id="linear-gradient-82" x1="-7003.12" y1="432.97" x2="-7002.89" y2="434.86" xlink:href="#linear-gradient-14"/><linearGradient id="linear-gradient-83" x1="253.45" y1="103.6" x2="267.46" y2="103.6" xlink:href="#linear-gradient-11"/><linearGradient id="linear-gradient-84" x1="260.52" y1="102.02" x2="261.26" y2="108.21" xlink:href="#linear-gradient-12"/><linearGradient id="linear-gradient-85" x1="260.49" y1="101.75" x2="260.71" y2="103.65" xlink:href="#linear-gradient-12"/><linearGradient id="linear-gradient-86" x1="-7001.43" y1="434.39" x2="-7001.2" y2="436.28" xlink:href="#linear-gradient-14"/><linearGradient id="linear-gradient-87" x1="254.91" y1="102.19" x2="268.92" y2="102.19" xlink:href="#linear-gradient-11"/><linearGradient id="linear-gradient-88" x1="261.98" y1="100.61" x2="262.72" y2="106.79" xlink:href="#linear-gradient-12"/><linearGradient id="linear-gradient-89" x1="261.95" y1="100.33" x2="262.17" y2="102.23" xlink:href="#linear-gradient-12"/><linearGradient id="linear-gradient-90" x1="-7002.89" y1="435.81" x2="-7002.66" y2="437.7" xlink:href="#linear-gradient-14"/><linearGradient id="linear-gradient-91" x1="255.8" y1="100.77" x2="269.81" y2="100.77" xlink:href="#linear-gradient-11"/><linearGradient id="linear-gradient-92" x1="262.87" y1="99.19" x2="263.6" y2="105.37" xlink:href="#linear-gradient-12"/><linearGradient id="linear-gradient-93" x1="262.83" y1="98.92" x2="263.06" y2="100.81" xlink:href="#linear-gradient-12"/><linearGradient id="linear-gradient-94" x1="-7003.77" y1="437.22" x2="-7003.55" y2="439.12" xlink:href="#linear-gradient-14"/><linearGradient id="linear-gradient-95" x1="255.14" y1="99.24" x2="269.15" y2="99.24" xlink:href="#linear-gradient-11"/><linearGradient id="linear-gradient-96" x1="262.21" y1="97.66" x2="262.95" y2="103.84" xlink:href="#linear-gradient-12"/><linearGradient id="linear-gradient-97" x1="262.18" y1="97.39" x2="262.41" y2="99.28" xlink:href="#linear-gradient-12"/><linearGradient id="linear-gradient-98" x1="-7003.12" y1="438.75" x2="-7002.89" y2="440.65" xlink:href="#linear-gradient-14"/><linearGradient id="linear-gradient-99" x1="253.45" y1="97.82" x2="267.46" y2="97.82" xlink:href="#linear-gradient-11"/><linearGradient id="linear-gradient-100" x1="260.52" y1="96.24" x2="261.26" y2="102.42" xlink:href="#linear-gradient-12"/><linearGradient id="linear-gradient-101" x1="260.49" y1="95.97" x2="260.71" y2="97.87" xlink:href="#linear-gradient-12"/><linearGradient id="linear-gradient-102" x1="-7001.43" y1="440.17" x2="-7001.2" y2="442.06" xlink:href="#linear-gradient-14"/><linearGradient id="linear-gradient-103" x1="225.31" y1="94.99" x2="239.31" y2="94.99" xlink:href="#linear-gradient-11"/><linearGradient id="linear-gradient-104" x1="232.37" y1="93.41" x2="233.11" y2="99.59" xlink:href="#linear-gradient-12"/><linearGradient id="linear-gradient-105" x1="232.34" y1="93.14" x2="232.57" y2="95.03" xlink:href="#linear-gradient-12"/><linearGradient id="linear-gradient-106" x1="-6973.28" y1="443" x2="-6973.05" y2="444.9" xlink:href="#linear-gradient-14"/><linearGradient id="linear-gradient-107" x1="226.3" y1="93.19" x2="240.3" y2="93.19" xlink:href="#linear-gradient-11"/><linearGradient id="linear-gradient-108" x1="233.37" y1="91.61" x2="234.1" y2="97.79" xlink:href="#linear-gradient-12"/><linearGradient id="linear-gradient-109" x1="233.33" y1="91.33" x2="233.56" y2="93.23" xlink:href="#linear-gradient-12"/><linearGradient id="linear-gradient-110" x1="-6974.27" y1="444.81" x2="-6974.05" y2="446.7" xlink:href="#linear-gradient-14"/><linearGradient id="linear-gradient-111" x1="224.61" y1="91.77" x2="238.61" y2="91.77" xlink:href="#linear-gradient-11"/><linearGradient id="linear-gradient-112" x1="231.67" y1="90.19" x2="232.41" y2="96.37" xlink:href="#linear-gradient-12"/><linearGradient id="linear-gradient-113" x1="231.64" y1="89.92" x2="231.87" y2="91.81" xlink:href="#linear-gradient-12"/><linearGradient id="linear-gradient-114" x1="-6972.58" y1="446.22" x2="-6972.35" y2="448.12" xlink:href="#linear-gradient-14"/><linearGradient id="linear-gradient-115" x1="226.07" y1="90.35" x2="240.07" y2="90.35" xlink:href="#linear-gradient-11"/><linearGradient id="linear-gradient-116" x1="233.13" y1="88.78" x2="233.87" y2="94.96" xlink:href="#linear-gradient-12"/><linearGradient id="linear-gradient-117" x1="233.1" y1="88.5" x2="233.33" y2="90.4" xlink:href="#linear-gradient-12"/><linearGradient id="linear-gradient-118" x1="-6974.04" y1="447.64" x2="-6973.81" y2="449.53" xlink:href="#linear-gradient-14"/><linearGradient id="linear-gradient-119" x1="226.95" y1="88.94" x2="240.96" y2="88.94" xlink:href="#linear-gradient-11"/><linearGradient id="linear-gradient-120" x1="234.02" y1="87.36" x2="234.76" y2="93.54" xlink:href="#linear-gradient-12"/><linearGradient id="linear-gradient-121" x1="233.99" y1="87.08" x2="234.21" y2="88.98" xlink:href="#linear-gradient-12"/><linearGradient id="linear-gradient-122" x1="-6974.93" y1="449.06" x2="-6974.7" y2="450.95" xlink:href="#linear-gradient-14"/><linearGradient id="linear-gradient-123" x1="226.3" y1="87.41" x2="240.3" y2="87.41" xlink:href="#linear-gradient-11"/><linearGradient id="linear-gradient-124" x1="233.37" y1="85.83" x2="234.1" y2="92.01" xlink:href="#linear-gradient-12"/><linearGradient id="linear-gradient-125" x1="233.33" y1="85.55" x2="233.56" y2="87.45" xlink:href="#linear-gradient-12"/><linearGradient id="linear-gradient-126" x1="-6974.27" y1="450.59" x2="-6974.05" y2="452.48" xlink:href="#linear-gradient-14"/><linearGradient id="linear-gradient-127" x1="224.61" y1="85.99" x2="238.61" y2="85.99" xlink:href="#linear-gradient-11"/><linearGradient id="linear-gradient-128" x1="231.67" y1="84.41" x2="232.41" y2="90.59" xlink:href="#linear-gradient-12"/><linearGradient id="linear-gradient-129" x1="231.64" y1="84.13" x2="231.87" y2="86.03" xlink:href="#linear-gradient-12"/><linearGradient id="linear-gradient-130" x1="-6972.58" y1="452" x2="-6972.35" y2="453.9" xlink:href="#linear-gradient-14"/><linearGradient id="linear-gradient-131" x1="226.07" y1="84.57" x2="240.07" y2="84.57" xlink:href="#linear-gradient-11"/><linearGradient id="linear-gradient-132" x1="233.13" y1="83" x2="233.87" y2="89.18" xlink:href="#linear-gradient-12"/><linearGradient id="linear-gradient-133" x1="233.1" y1="82.72" x2="233.33" y2="84.62" xlink:href="#linear-gradient-12"/><linearGradient id="linear-gradient-134" x1="-6974.04" y1="453.42" x2="-6973.81" y2="455.31" xlink:href="#linear-gradient-14"/><linearGradient id="linear-gradient-135" x1="225.31" y1="83.16" x2="239.31" y2="83.16" xlink:href="#linear-gradient-11"/><linearGradient id="linear-gradient-136" x1="232.37" y1="81.58" x2="233.11" y2="87.76" xlink:href="#linear-gradient-12"/><linearGradient id="linear-gradient-137" x1="232.34" y1="81.3" x2="232.57" y2="83.2" xlink:href="#linear-gradient-12"/><linearGradient id="linear-gradient-138" x1="-6973.28" y1="454.84" x2="-6973.05" y2="456.73" xlink:href="#linear-gradient-14"/></defs><g class="cls-4"><g id="Layer_1" data-name="Layer 1"><path class="cls-5" d="M280,0H183.9a78.6,78.6,0,0,0,1.7,120H280Z"/><rect class="cls-6" width="280" height="120"/><path class="cls-7" d="M280,0H183.9a78.6,78.6,0,0,0,1.7,120H280Z"/><rect class="cls-8" x="10.4" y="75.2" width="77.1" height="20.17" rx="3.7"/><path d="M19.5,81.6h1.7v7.3H19.5Z"/><path d="M28.5,85.7v3.2H26.9v-3c0-.9-.4-1.3-1.1-1.3a1.3,1.3,0,0,0-1.4,1.5v2.8H22.8V83.3h1.6V84a2.3,2.3,0,0,1,4.1,1.7Z"/><path d="M35.4,83.3,33,88.9H31.4L29,83.3h1.7l1.5,3.8,1.6-3.8Z"/><path d="M41.3,86.5H37.1a1.5,1.5,0,0,0,1.6,1.2,1.8,1.8,0,0,0,1.4-.6l.8,1a3.1,3.1,0,0,1-2.3.9,2.9,2.9,0,0,1-3.1-2.9,2.8,2.8,0,0,1,2.9-2.9,2.7,2.7,0,0,1,2.9,2.9Zm-4.2-.9h2.7a1.3,1.3,0,0,0-1.3-1.2A1.3,1.3,0,0,0,37.1,85.6Z"/><path d="M41.9,88.4l.5-1.2a4.1,4.1,0,0,0,1.9.5c.8,0,1.1-.2,1.1-.5S42,87.2,42,85s1-1.8,2.6-1.8a4.6,4.6,0,0,1,2.1.5l-.5,1.2a2.7,2.7,0,0,0-1.6-.5c-.7,0-1.1.3-1.1.6s3.4,0,3.4,2.2-1,1.8-2.6,1.8A5,5,0,0,1,41.9,88.4Z"/><path d="M51.5,88.6a2.5,2.5,0,0,1-1.3.4,1.9,1.9,0,0,1-2.1-2V84.7h-.9V83.4h.9V82.1h1.6v1.3h1.4v1.3H49.7v2.2a.7.7,0,0,0,.7.8l.7-.2Z"/><path d="M62.1,81.6v7.3H60.7l-3.6-4.4v4.4H55.4V81.6h1.4L60.4,86V81.6Z"/><path d="M63.3,86.1a3.1,3.1,0,1,1,3,2.9A2.9,2.9,0,0,1,63.3,86.1Zm4.4,0a1.4,1.4,0,1,0-2.8,0,1.4,1.4,0,1,0,2.8,0Z"/><path d="M79.2,83.3l-2,5.6H75.7l-1.3-3.5-1.3,3.5H71.6l-2-5.6h1.5l1.3,3.8,1.4-3.8h1.3l1.4,3.8,1.3-3.8Z"/><path class="cls-9" d="M16.5,51.1h1v2.8a4.3,4.3,0,0,1-2.8.9,3.6,3.6,0,0,1-3.8-3.7,3.7,3.7,0,0,1,3.9-3.7,3.3,3.3,0,0,1,2.7,1.2l-.6.6a2.8,2.8,0,0,0-2.1-.8,2.7,2.7,0,0,0-2.9,2.7,2.8,2.8,0,0,0,2.9,2.8,3.3,3.3,0,0,0,1.7-.4Z"/><path class="cls-9" d="M24.3,52.4H19.8a1.9,1.9,0,0,0,2,1.6,2.4,2.4,0,0,0,1.6-.7l.5.6a2.6,2.6,0,0,1-2.1.9,2.8,2.8,0,1,1,2.5-2.7Zm-4.5-.8h3.5a1.6,1.6,0,0,0-1.7-1.5A1.7,1.7,0,0,0,19.8,51.6Z"/><path class="cls-9" d="M28.7,54.4a1.6,1.6,0,0,1-1.2.4,1.5,1.5,0,0,1-1.7-1.7v-3h-.9v-.8h.9V48.1h1v1.2h1.6v.8H26.8v3a.8.8,0,0,0,.9.9,1.1,1.1,0,0,0,.7-.3Z"/><path class="cls-9" d="M37.8,49.3v5.5h-.9v-.9a2.2,2.2,0,0,1-1.9.9,2.1,2.1,0,0,1-2.3-2.4V49.3h1v3c0,1.1.5,1.6,1.4,1.6s1.7-.6,1.7-1.8V49.3Z"/><path class="cls-9" d="M45.4,52a2.7,2.7,0,0,1-2.8,2.8,2.5,2.5,0,0,1-1.9-.9v2.9h-1V49.3h1v.9a2.1,2.1,0,0,1,1.9-1A2.7,2.7,0,0,1,45.4,52Zm-1,0a1.8,1.8,0,0,0-1.8-1.9A1.8,1.8,0,0,0,40.7,52a1.9,1.9,0,0,0,1.9,2A1.8,1.8,0,0,0,44.4,52Z"/><path class="cls-9" d="M49.9,54.4a1.7,1.7,0,0,1-1.2.4,1.6,1.6,0,0,1-1.8-1.7v-3H46v-.8h.9V48.1h1v1.2h1.6v.8H47.9v3a.8.8,0,0,0,.9.9,1.1,1.1,0,0,0,.8-.3Z"/><path class="cls-9" d="M50.4,52a2.9,2.9,0,0,1,5.7,0,2.9,2.9,0,0,1-5.7,0Zm4.7,0a1.8,1.8,0,0,0-1.9-1.9A1.8,1.8,0,0,0,51.4,52a1.8,1.8,0,0,0,1.8,2A1.9,1.9,0,0,0,55.1,52Z"/><path class="cls-8" d="M65.5,47.5v1.1l-2.7,6.2H61l2.6-5.9H61.2v1.2H59.7V47.5Z"/><path class="cls-8" d="M66.2,49.4a1.8,1.8,0,1,1,3.6,0c0,1.3-.7,2-1.8,2S66.2,50.7,66.2,49.4Zm2.6,0c0-.7-.3-1.1-.8-1.1s-.8.4-.8,1.1.4,1.2.8,1.2S68.8,50.2,68.8,49.4Zm3.5-1.9h1.2l-4.9,7.3H67.4Zm-1.2,5.4a1.8,1.8,0,0,1,1.8-2c1.1,0,1.8.7,1.8,2a1.7,1.7,0,0,1-1.8,1.9A1.8,1.8,0,0,1,71.1,52.9Zm2.6,0c0-.8-.3-1.2-.8-1.2s-.7.4-.7,1.2.3,1.1.7,1.1S73.7,53.6,73.7,52.9Z"/><path class="cls-8" d="M82.1,49.1v1.5h-.3a1.4,1.4,0,0,0-1.5,1.5v2.7H78.7V49.2h1.5v.7A2.4,2.4,0,0,1,82.1,49.1Z"/><path class="cls-8" d="M88.5,52.4H84.2a1.6,1.6,0,0,0,1.6,1.2,1.7,1.7,0,0,0,1.4-.6l.9.9a2.9,2.9,0,0,1-2.3.9A2.9,2.9,0,0,1,82.6,52a2.9,2.9,0,0,1,3-2.9A2.8,2.8,0,0,1,88.5,52Zm-4.3-.9H87a1.4,1.4,0,0,0-2.8,0Z"/><path class="cls-8" d="M93.2,54.5a3.2,3.2,0,0,1-1.4.3c-1.3,0-2-.6-2-1.9V50.6h-.9V49.3h.9V48h1.6v1.3h1.4v1.3H91.4v2.2c0,.5.2.8.7.8l.6-.2Z"/><path class="cls-8" d="M99.7,49.2v5.6H98.1v-.7a2.1,2.1,0,0,1-1.7.7A2.2,2.2,0,0,1,94,52.3V49.2h1.7v2.9c0,.9.4,1.4,1.1,1.4A1.3,1.3,0,0,0,98.1,52V49.2Z"/><path class="cls-8" d="M104.6,49.1v1.5h-.3a1.4,1.4,0,0,0-1.5,1.5v2.7h-1.6V49.2h1.5v.7A2.4,2.4,0,0,1,104.6,49.1Z"/><path class="cls-8" d="M111.3,51.6v3.2h-1.6v-3c0-.9-.4-1.3-1.2-1.3a1.3,1.3,0,0,0-1.3,1.5v2.8h-1.6V49.2h1.5v.7a2.6,2.6,0,0,1,1.9-.8A2.2,2.2,0,0,1,111.3,51.6Z"/><path class="cls-8" d="M112.2,54.2l.5-1.1a4.2,4.2,0,0,0,2,.5c.7,0,1-.2,1-.5s-3.4,0-3.4-2.2,1-1.8,2.6-1.8a5.1,5.1,0,0,1,2.2.5l-.6,1.2a2.5,2.5,0,0,0-1.6-.5c-.7,0-1,.3-1,.6s3.3,0,3.3,2.2-.9,1.7-2.6,1.7A4.3,4.3,0,0,1,112.2,54.2Z"/><path class="cls-9" d="M10.8,64.4a2.8,2.8,0,0,1,2.9-2.8,2.7,2.7,0,0,1,2.8,2.8,2.7,2.7,0,0,1-2.8,2.8A2.7,2.7,0,0,1,10.8,64.4Zm4.7,0a1.8,1.8,0,0,0-1.8-1.9,1.8,1.8,0,0,0-1.9,1.9,1.9,1.9,0,0,0,1.9,2A1.8,1.8,0,0,0,15.5,64.4Z"/><path class="cls-9" d="M23.1,64v3.2h-1V64.1a1.4,1.4,0,0,0-1.5-1.6,1.7,1.7,0,0,0-1.7,1.9v2.8h-1V61.7h1v.8a2.5,2.5,0,0,1,1.9-.9A2.1,2.1,0,0,1,23.1,64Z"/><path class="cls-9" d="M32.6,61.7l-2.7,6c-.5,1.2-1.1,1.6-1.9,1.6a1.7,1.7,0,0,1-1.4-.6L27,68a1.3,1.3,0,0,0,1,.4c.4,0,.7-.2,1-.8l.2-.4-2.4-5.5h1l1.9,4.4,1.9-4.4Z"/><path class="cls-9" d="M32.9,64.4a2.9,2.9,0,0,1,5.7,0,2.9,2.9,0,0,1-5.7,0Zm4.7,0a1.8,1.8,0,0,0-1.9-1.9,1.8,1.8,0,0,0-1.8,1.9,1.8,1.8,0,0,0,1.8,2A1.9,1.9,0,0,0,37.6,64.4Z"/><path class="cls-9" d="M45,61.7v5.5h-.9v-.8a2.4,2.4,0,0,1-1.9.8,2.1,2.1,0,0,1-2.3-2.3V61.7h1v3c0,1.1.5,1.7,1.5,1.7a1.7,1.7,0,0,0,1.7-1.9V61.7Z"/><path class="cls-9" d="M49.9,61.6v1h-.2a1.7,1.7,0,0,0-1.8,1.9v2.7h-1V61.7h1v.9A2.1,2.1,0,0,1,49.9,61.6Z"/><path class="cls-9" d="M53.8,60c0-.4.3-.6.7-.6a.6.6,0,0,1,.6.6.5.5,0,0,1-.6.6C54.1,60.6,53.8,60.4,53.8,60Zm.2,1.7h1v5.5H54Z"/><path class="cls-9" d="M62.1,64v3.2h-1V64.1a1.4,1.4,0,0,0-1.5-1.6,1.7,1.7,0,0,0-1.8,1.9v2.8h-.9V61.7h.9v.8a2.5,2.5,0,0,1,2-.9A2.2,2.2,0,0,1,62.1,64Z"/><path class="cls-9" d="M68.7,61.7l-2.4,5.5H65.2l-2.4-5.5h1.1l1.9,4.4,1.9-4.4Z"/><path class="cls-9" d="M74.4,64.8H69.9a1.9,1.9,0,0,0,2,1.6,2,2,0,0,0,1.6-.7l.5.7a2.9,2.9,0,0,1-2.1.8,2.8,2.8,0,1,1-.2-5.6,2.7,2.7,0,0,1,2.7,2.9Zm-4.5-.7h3.5a1.7,1.7,0,0,0-1.7-1.6A1.7,1.7,0,0,0,69.9,64.1Z"/><path class="cls-9" d="M75.1,66.6l.4-.8a3.6,3.6,0,0,0,1.9.6c.9,0,1.3-.3,1.3-.8s-3.5-.1-3.5-2.3.9-1.7,2.3-1.7a3.9,3.9,0,0,1,2,.5l-.4.8a2.9,2.9,0,0,0-1.6-.4c-.8,0-1.3.3-1.3.8s3.5.2,3.5,2.3-.9,1.6-2.4,1.6A3.4,3.4,0,0,1,75.1,66.6Z"/><path class="cls-9" d="M84,66.9a2.1,2.1,0,0,1-1.2.3,1.5,1.5,0,0,1-1.7-1.7v-3h-.9v-.8h.9V60.5h1v1.2h1.6v.8H82.1v3c0,.6.3.9.8.9a1.1,1.1,0,0,0,.8-.3Z"/><path class="cls-9" d="M94.3,64v3.2h-1V64.1c0-1-.5-1.6-1.4-1.6s-1.6.7-1.6,1.9v2.8h-1V64.1c0-1-.5-1.6-1.4-1.6a1.7,1.7,0,0,0-1.7,1.9v2.8h-1V61.7h1v.8a2.3,2.3,0,0,1,1.9-.9A2.1,2.1,0,0,1,90,62.7a2.4,2.4,0,0,1,2.1-1.1A2.1,2.1,0,0,1,94.3,64Z"/><path class="cls-9" d="M101.1,64.8H96.7a1.9,1.9,0,0,0,2,1.6,2,2,0,0,0,1.6-.7l.5.7a2.9,2.9,0,0,1-2.2.8,2.8,2.8,0,0,1-.2-5.6,2.8,2.8,0,0,1,2.8,2.9Zm-4.4-.7h3.5a1.7,1.7,0,0,0-1.8-1.6A1.7,1.7,0,0,0,96.7,64.1Z"/><path class="cls-9" d="M107.7,64v3.2h-1V64.1c0-1-.5-1.6-1.4-1.6a1.7,1.7,0,0,0-1.8,1.9v2.8h-1V61.7h1v.8a2.5,2.5,0,0,1,2-.9A2.1,2.1,0,0,1,107.7,64Z"/><path class="cls-9" d="M112.7,66.9a2.4,2.4,0,0,1-1.2.3,1.6,1.6,0,0,1-1.8-1.7v-3h-.9v-.8h.9V60.5h1v1.2h1.6v.8h-1.6v3a.8.8,0,0,0,.9.9,1.3,1.3,0,0,0,.8-.3Z"/><path class="cls-9" d="M113.2,66.6l.4-.8a3.9,3.9,0,0,0,1.9.6c.9,0,1.3-.3,1.3-.8s-3.5-.1-3.5-2.3.9-1.7,2.3-1.7a3.9,3.9,0,0,1,2,.5l-.4.8a2.9,2.9,0,0,0-1.6-.4c-.8,0-1.3.3-1.3.8s3.5.2,3.5,2.3-.9,1.6-2.4,1.6A3.4,3.4,0,0,1,113.2,66.6Z"/><path class="cls-8" d="M11.3,31.8h1.9v8H11.3Z"/><path class="cls-8" d="M21.2,36.3v3.5H19.5V36.6c0-1-.5-1.5-1.3-1.5a1.5,1.5,0,0,0-1.5,1.7v3H15V33.7h1.7v.7a2.6,2.6,0,0,1,2-.8A2.4,2.4,0,0,1,21.2,36.3Z"/><path class="cls-8" d="M22.3,39.2l.5-1.2a5.1,5.1,0,0,0,2.2.6c.8,0,1.1-.3,1.1-.6s-3.7,0-3.7-2.4,1-2,2.8-2a5.7,5.7,0,0,1,2.4.5L27,35.4a3.1,3.1,0,0,0-1.8-.5c-.8,0-1.1.3-1.1.6s3.7,0,3.7,2.5-1.1,1.9-2.9,1.9A4.7,4.7,0,0,1,22.3,39.2Z"/><path class="cls-8" d="M32.9,39.5a2.4,2.4,0,0,1-1.5.4,2,2,0,0,1-2.3-2.2V35.2h-.9V33.8h.9V32.3h1.8v1.5h1.5v1.4H30.9v2.5a.7.7,0,0,0,.8.8l.7-.2Z"/><path class="cls-8" d="M39.3,36.3v3.5H37.6v-.7a1.9,1.9,0,0,1-1.8.8c-1.5,0-2.3-.8-2.3-1.9s.7-1.8,2.6-1.8h1.4c0-.8-.4-1.2-1.4-1.2a3,3,0,0,0-1.8.6l-.6-1.3a4.6,4.6,0,0,1,2.6-.7C38.2,33.6,39.3,34.5,39.3,36.3Zm-1.8,1.6v-.6H36.3c-.8,0-1.1.3-1.1.7s.4.7,1,.7A1.3,1.3,0,0,0,37.5,37.9Z"/><path class="cls-8" d="M49.4,39.8l-1.6-2.2H46.1v2.2H44.3v-8h3.4c2.2,0,3.5,1.1,3.5,2.9a2.8,2.8,0,0,1-1.6,2.6l1.7,2.5Zm-1.8-6.5H46.1v2.8h1.5c1.2,0,1.7-.5,1.7-1.4S48.8,33.3,47.6,33.3Z"/><path class="cls-8" d="M58.5,37.3H53.9a1.6,1.6,0,0,0,1.7,1.2,2.3,2.3,0,0,0,1.6-.6l.9,1a3,3,0,0,1-2.5,1,3.2,3.2,0,0,1-3.5-3.2,3.1,3.1,0,0,1,3.3-3.1,3,3,0,0,1,3.1,3.2Zm-4.7-1.1h3.1a1.5,1.5,0,0,0-1.5-1.3A1.6,1.6,0,0,0,53.8,36.2Z"/><path class="cls-8" d="M66,31.3v8.5H64.3v-.7a2.6,2.6,0,0,1-1.9.8,3,3,0,0,1-3.1-3.2,2.9,2.9,0,0,1,3.1-3.1,2.3,2.3,0,0,1,1.8.7v-3Zm-1.8,5.4A1.5,1.5,0,0,0,62.7,35a1.6,1.6,0,0,0-1.6,1.7,1.6,1.6,0,0,0,1.6,1.7C63.6,38.4,64.2,37.8,64.2,36.7Z"/><path class="cls-8" d="M73.6,37.3H69a1.6,1.6,0,0,0,1.7,1.2,2.3,2.3,0,0,0,1.6-.6l.9,1a3,3,0,0,1-2.5,1,3.2,3.2,0,0,1-3.5-3.2,3.1,3.1,0,0,1,3.3-3.1,3,3,0,0,1,3.2,3.2A4.3,4.3,0,0,0,73.6,37.3ZM69,36.2h3a1.5,1.5,0,0,0-1.5-1.3A1.4,1.4,0,0,0,69,36.2Z"/><path class="cls-8" d="M85.2,36.3v3.5H83.4V36.6c0-1-.4-1.5-1.1-1.5s-1.4.5-1.4,1.6v3.1H79.1V36.6c0-1-.4-1.5-1.1-1.5s-1.4.5-1.4,1.6v3.1H74.8V33.7h1.7v.7a2.8,2.8,0,0,1,2-.8,2.2,2.2,0,0,1,2,1,2.9,2.9,0,0,1,2.2-1C84.2,33.6,85.2,34.4,85.2,36.3Z"/><path class="cls-8" d="M93.5,36.7a3,3,0,0,1-3.1,3.2,2.4,2.4,0,0,1-1.8-.7V42H86.8V33.7h1.7v.7a2.2,2.2,0,0,1,1.9-.8A2.9,2.9,0,0,1,93.5,36.7Zm-1.8,0A1.6,1.6,0,0,0,90.1,35a1.5,1.5,0,0,0-1.5,1.7c0,1.1.6,1.7,1.5,1.7A1.6,1.6,0,0,0,91.7,36.7Z"/><path class="cls-8" d="M98.7,39.5a2.4,2.4,0,0,1-1.5.4,2,2,0,0,1-2.3-2.2V35.2H94V33.8h.9V32.3h1.8v1.5h1.5v1.4H96.7v2.5a.7.7,0,0,0,.8.8l.7-.2Z"/><path class="cls-8" d="M99.4,31.8a1.1,1.1,0,0,1,1.1-1c.7,0,1.2.4,1.2,1s-.5,1-1.2,1A1,1,0,0,1,99.4,31.8Zm.3,1.9h1.7v6.1H99.7Z"/><path class="cls-8" d="M102.6,36.7a3.2,3.2,0,0,1,3.4-3.1,3.2,3.2,0,1,1,0,6.3A3.2,3.2,0,0,1,102.6,36.7Zm5,0a1.6,1.6,0,1,0-3.2,0,1.6,1.6,0,1,0,3.2,0Z"/><path class="cls-8" d="M116.8,36.3v3.5h-1.7V36.6c0-1-.5-1.5-1.3-1.5s-1.4.6-1.4,1.7v3h-1.8V33.7h1.7v.7a2.8,2.8,0,0,1,2-.8C115.8,33.6,116.8,34.4,116.8,36.3Z"/><path class="cls-8" d="M123.7,33.3v2.1h3.7v1.5h-3.7v2.9h-1.9v-8h6.1v1.5Z"/><path class="cls-8" d="M135,33.7v6.1h-1.7v-.7a2.4,2.4,0,0,1-1.9.8,2.5,2.5,0,0,1-2.6-2.8V33.7h1.8v3.2q0,1.5,1.2,1.5c.8,0,1.4-.6,1.4-1.7v-3Z"/><path class="cls-8" d="M142.9,36.3v3.5h-1.7V36.6c0-1-.5-1.5-1.3-1.5a1.5,1.5,0,0,0-1.5,1.7v3h-1.7V33.7h1.7v.7a2.6,2.6,0,0,1,2-.8A2.4,2.4,0,0,1,142.9,36.3Z"/><path class="cls-8" d="M150.9,31.3v8.5h-1.7v-.7a2.6,2.6,0,0,1-1.9.8,3,3,0,0,1-3.1-3.2,2.9,2.9,0,0,1,3.1-3.1,2.3,2.3,0,0,1,1.8.7v-3Zm-1.8,5.4a1.6,1.6,0,1,0-3.1,0,1.6,1.6,0,0,0,1.6,1.7A1.5,1.5,0,0,0,149.1,36.7Z"/><path class="cls-10" d="M255.2,39.3c-2.9-.9-4.9-2.9-4.5-4.4l-.3,1.1c-.4,1.6,1.6,3.6,4.5,4.5s5.5.4,6-1.2l.3-1.2C260.8,39.7,258.1,40.2,255.2,39.3Z"/><path class="cls-11" d="M250.4,36.5a2.9,2.9,0,0,0,.2-.9v-.2h0l-.2.6v.5Z"/><path class="cls-11" d="M250.8,36h-.1l-.3.9h.1c0,.1.1.1.1,0s.1-.5.2-.8Z"/><path class="cls-11" d="M251,36.4h-.1a2.9,2.9,0,0,0-.2.9v.2h.1a2.9,2.9,0,0,0,.2-.9C251.1,36.6,251,36.5,251,36.4Z"/><path class="cls-11" d="M251.2,36.8h-.1a2.9,2.9,0,0,1-.2.9h.1c0,.1,0,.1.1,0a2.4,2.4,0,0,1,.2-.8C251.3,36.9,251.3,36.9,251.2,36.8Z"/><path class="cls-11" d="M251.5,37.1h-.1c-.1.3-.1.6-.2.9h0c.1.1.1.1.1,0l.3-.8C251.6,37.2,251.6,37.1,251.5,37.1Z"/><path class="cls-11" d="M251.8,37.4c0-.1-.1-.1-.1,0a2.9,2.9,0,0,0-.2.9h0c.1.1.1.1.1,0a2.9,2.9,0,0,0,.2-.9C251.9,37.5,251.8,37.4,251.8,37.4Z"/><path class="cls-11" d="M252.1,37.6c-.1,0-.1,0-.1.1a2.4,2.4,0,0,0-.2.8c-.1.1,0,.1,0,.2h.1a2.9,2.9,0,0,0,.2-.9C252.2,37.8,252.1,37.7,252.1,37.6Z"/><path class="cls-11" d="M252.4,37.9h-.1l-.3.9h.1c0,.1.1.1.1,0a2.9,2.9,0,0,0,.2-.9C252.5,38,252.4,37.9,252.4,37.9Z"/><path class="cls-11" d="M252.7,38.1c-.1,0-.1,0-.1.1l-.3.8c0,.1.1.1.1.2s.1,0,.1-.1a1.9,1.9,0,0,0,.2-.8C252.8,38.2,252.7,38.2,252.7,38.1Z"/><path class="cls-11" d="M253,38.4c0-.1-.1-.1-.1,0a3.1,3.1,0,0,0-.2.8.1.1,0,0,0,0,.2h.1l.3-.9Z"/><path class="cls-11" d="M253.3,38.6c0-.1-.1-.1-.1,0s-.1.6-.2.9h.1l.3-.9A.1.1,0,0,0,253.3,38.6Z"/><path class="cls-11" d="M253.6,38.8h-.1a2.9,2.9,0,0,1-.2.9h.2a2.9,2.9,0,0,1,.2-.9C253.7,38.8,253.7,38.8,253.6,38.8Z"/><path class="cls-11" d="M254,38.9c-.1,0-.1,0-.1.1l-.3.8c0,.1,0,.1.1.2a.1.1,0,0,0,.1-.1,3.1,3.1,0,0,0,.2-.8Z"/><path class="cls-11" d="M254.3,39.1h-.1a2.9,2.9,0,0,0-.2.9c-.1,0,0,.1,0,.1h.1l.3-.9A.1.1,0,0,0,254.3,39.1Z"/><path class="cls-11" d="M254.6,39.2h-.1a1.9,1.9,0,0,1-.2.8c0,.1,0,.1.1.2h.1c.1-.3.1-.6.2-.9Z"/><path class="cls-11" d="M255,39.4c-.1-.1-.1,0-.1,0l-.3.9h.1c.1,0,.1,0,.1-.1l.3-.8A.1.1,0,0,0,255,39.4Z"/><path class="cls-11" d="M255.3,39.5h-.1a2.9,2.9,0,0,1-.2.9.1.1,0,1,0,.2,0c.1-.2.1-.5.2-.8S255.4,39.5,255.3,39.5Z"/><path class="cls-11" d="M255.7,39.6c-.1-.1-.1,0-.1,0l-.3.9h.1c.1,0,.1,0,.1-.1l.3-.8C255.8,39.6,255.8,39.6,255.7,39.6Z"/><path class="cls-11" d="M256.1,39.6h-.2a2.9,2.9,0,0,1-.2.9.1.1,0,0,0,.2,0,2.9,2.9,0,0,0,.2-.9Z"/><path class="cls-11" d="M256.4,39.7h-.1a2.4,2.4,0,0,0-.2.8h.2a2.9,2.9,0,0,1,.2-.9Z"/><path class="cls-11" d="M256.8,39.7h-.1l-.3.9h.2l.3-.9Z"/><path class="cls-11" d="M257.2,39.8H257a2.9,2.9,0,0,1-.2.9h.2a3.1,3.1,0,0,0,.2-.8Z"/><path class="cls-11" d="M257.5,39.8a.1.1,0,0,0-.1.1,2.4,2.4,0,0,0-.2.8h.2a2.4,2.4,0,0,1,.2-.8C257.6,39.8,257.6,39.8,257.5,39.8Z"/><path class="cls-11" d="M257.9,39.8c-.1,0-.1,0-.1.1l-.3.8h.2l.3-.8C258,39.8,258,39.8,257.9,39.8Z"/><path class="cls-11" d="M258.3,39.7h-.1l-.3.9h.2l.3-.9Z"/><path class="cls-11" d="M258.7,39.7h-.2c-.1.3-.1.6-.2.9h.1a.1.1,0,0,0,.1-.1c.1-.2.1-.5.2-.8Z"/><path class="cls-11" d="M259,39.6c0,.1-.1.1-.1.2a1.9,1.9,0,0,0-.2.8h.2a2.9,2.9,0,0,1,.2-.9A.1.1,0,0,0,259,39.6Z"/><path class="cls-11" d="M259.4,39.6h0c-.1,0-.1,0-.1.1l-.3.8a.1.1,0,0,0,.1.1c.1,0,.1,0,.1-.1l.3-.9Z"/><path class="cls-11" d="M259.8,39.5c-.1,0-.1,0-.1.1l-.3.9h.1c.1,0,.1,0,.1-.1l.3-.9Z"/><path class="cls-11" d="M260.2,39.3H260a2.9,2.9,0,0,1-.2.9.1.1,0,0,0,.1.1c0-.1.1-.1.1-.2a1.9,1.9,0,0,0,.2-.8C260.3,39.3,260.2,39.3,260.2,39.3Z"/><path class="cls-11" d="M260.6,39.1a.1.1,0,0,0-.1.1l-.3.9h.1a.1.1,0,0,0,.1-.1l.3-.9Z"/><path class="cls-11" d="M260.9,38.8a2.9,2.9,0,0,0-.2.9h0c.1-.1.1-.2.2-.4v-.6h-.1Z"/><path class="cls-12" d="M259.4,35,251,36.4l.4.6,8.6-1.5Z"/><path class="cls-12" d="M250.8,34.6l5.7-1C253.9,32.9,251.4,33.3,250.8,34.6Z"/><path class="cls-12" d="M257.5,34l-6.8,1.2v.3l7.4-1.3Z"/><path class="cls-12" d="M256.7,33.7h-.2l-5.7,1c0,.1,0,.2-.1.2l6.3-1Z"/><path class="cls-12" d="M257,33.8l-6.3,1h0v.3l6.8-1.2Z"/><path class="cls-12" d="M258.1,34.2l-7.4,1.3a1.6,1.6,0,0,0,.3.9l8.4-1.4Z"/><path class="cls-12" d="M254,38.9l1.2.4c2.9.9,5.6.4,6-1.2v-.5Z"/><path class="cls-12" d="M261.2,37.3l-7.7,1.3.5.3,7.2-1.3Z"/><path class="cls-12" d="M260.5,36l-8.6,1.4a3.6,3.6,0,0,0,.9.8l8.2-1.4A2.2,2.2,0,0,0,260.5,36Z"/><path class="cls-12" d="M261,36.8l-8.2,1.4.7.4,7.7-1.3C261.1,37.1,261.1,36.9,261,36.8Z"/><path class="cls-12" d="M260,35.5,251.4,37l.5.4,8.6-1.4Z"/><path class="cls-11" d="M255.4,38.4c-2.6-.8-4-2.6-3.8-3.4s2.3-1.5,4.9-.7,4.1,2.6,3.9,3.5S258.1,39.3,255.4,38.4Z"/><path class="cls-10" d="M256.5,34.7c2.5.8,3.9,2.3,3.8,3.2a.1.1,0,0,0,.1-.1c.2-.9-1.2-2.6-3.9-3.5s-4.7-.1-4.9.7v.2C252,34.4,253.9,33.9,256.5,34.7Z"/><g class="cls-13"><path class="cls-10" d="M251.4,37l-.3,1.2.5.4.3-1.1Z"/><path class="cls-10" d="M250.7,34.9l-.3,1.1a2.3,2.3,0,0,0,.3,1.6l.3-1.2A2.1,2.1,0,0,1,250.7,34.9Z"/><path class="cls-10" d="M259,39.7l-.3,1.1a3.5,3.5,0,0,0,1.1-.3l.3-1.2Z"/><path class="cls-10" d="M252.8,38.2l-.3,1.1.8.5.3-1.2Z"/></g><path class="cls-10" d="M256.3,35.6h.4l.6-.2.3.3-.5.2h0c.4.4.4.8,0,1.1l1.8.6-.9.3-1.7-.6-1.1.4-.4-.5,1-.3c.6-.2.6-.5.4-.7l-2.1.6-.3-.3,2-.6a1.7,1.7,0,0,0-1,0l-1.2.4-.3-.3,3.5-1.1.3.3Z"/><path class="cls-12" d="M256.1,35.7l.4.2.6-.2.3.3H257c.3.4.3.7-.1,1l1.9.7-1,.3-1.7-.6-1.1.3-.4-.5,1-.3c.6-.2.7-.4.4-.7l-2.1.7-.3-.3,2-.6a1.7,1.7,0,0,0-1,0l-1.2.4-.3-.3,3.5-1.1.3.3Z"/><path class="cls-12" d="M209,18.9a6.2,6.2,0,0,0-.5,7.1l.9-7.6Z"/><path class="cls-12" d="M209.4,18.4l-.9,7.6.4.4,1-8.4Z"/><path class="cls-12" d="M210.3,17.6l-1.1,9.2h.1l.6.4,1.2-10.1Z"/><path class="cls-12" d="M212.8,16.6a4.8,4.8,0,0,0-1.7.5l-1.2,10.1a4.7,4.7,0,0,0,1.5.6Z"/><path class="cls-12" d="M209.9,18l-1,8.4.3.4,1.1-9.2C210.2,17.7,210,17.8,209.9,18Z"/><path class="cls-12" d="M212.8,16.6l-1.4,11.2h1l1.4-11.3Z"/><path class="cls-12" d="M213.8,16.5l-1.4,11.3h.6l1.3-11.2Z"/><path class="cls-12" d="M214.8,16.7l-1.3,11a6.5,6.5,0,0,0,1.7-.8l1.1-9.4A5.5,5.5,0,0,0,214.8,16.7Z"/><path class="cls-12" d="M216.1,26.1l.6-.7a5.9,5.9,0,0,0,.3-7.1Z"/><path class="cls-12" d="M214.3,16.6,213,27.8h.5l1.3-11Z"/><path class="cls-12" d="M216.3,17.5h0l-1.1,9.4.9-.8.9-7.8Z"/><path class="cls-11" d="M215.9,24.8c-1.6,2-4.2,2.6-5.9,1.1s-1.8-4.2-.2-6.3,4.2-2.6,5.9-1.1S217.4,22.7,215.9,24.8Z"/><path class="cls-10" d="M209.9,19.7c1.6-2,4.2-2.5,5.8-1.2h0c-1.7-1.5-4.4-1-5.9,1.1s-1.5,4.9.2,6.3h.1A4.8,4.8,0,0,1,209.9,19.7Z"/><path class="cls-10" d="M213.4,27.7l.8.2a3.8,3.8,0,0,0,1.7-.8l-.7-.2A7.1,7.1,0,0,1,213.4,27.7Z"/><path class="cls-11" d="M212.4,27.8l.9.3.9-.2-.8-.2Z"/><path class="cls-10" d="M209.4,26.9h.2a4.3,4.3,0,0,0,3.7,1.1l-.9-.3A4.3,4.3,0,0,1,209.4,26.9Z"/><path class="cls-10" d="M216.1,26.1l.7.2.2-.3-.6-.2Z"/><path class="cls-11" d="M215.2,26.9l.7.2.9-.8-.7-.2Z"/><path class="cls-11" d="M216.6,17.7h-.1c2,1.9,2.1,5.3.2,7.8l-.3.4.6.2v-.2A6,6,0,0,0,216.6,17.7Z"/><path class="cls-10" d="M213.4,20.8l.3.2.6-.3.2.5-.5.2h.1a1.2,1.2,0,0,1-.4,1.5l1.5,1.1-1,.4-1.4-1-1.1.5-.3-.7,1.1-.5c.6-.2.8-.6.6-1l-2.2.9-.2-.5,2.1-.8a.7.7,0,0,0-.9,0l-1.3.5-.2-.5L214,20l.2.4Z"/><path class="cls-12" d="M213.2,21l.3.2.6-.2.2.4-.5.2h0a1.4,1.4,0,0,1-.3,1.6l1.5,1-1,.4-1.4-.9-1.1.4-.3-.7,1.1-.4a.9.9,0,0,0,.6-1.1l-2.2.9-.2-.5,2-.8a.9.9,0,0,0-.9,0l-1.2.5-.2-.5,3.6-1.4.2.5Z"/><path class="cls-14" d="M194.4,81.7h0l-5.3,3a6.9,6.9,0,0,1,4,.8,2.3,2.3,0,0,1,1.3,1.5h.1l2-1.2h.2l-2.3,1.4a.3.3,0,0,1-.1.2l5.3-3h-.3v-.2h.1c.1,0,.1,0,.1-.1h.1l-3.4-2h-1.8Zm2,1.9h.1a.1.1,0,0,0,.1.1h.2a.8.8,0,0,1-.4.7,2,2,0,0,1-2.1,0,.2.2,0,0,1-.2-.2H194v-.2h0l.2-.3h1.6a.1.1,0,0,0,.1.1h.6Z"/><polygon class="cls-14" points="188.4 84.7 188.4 84.7 195.2 80.7 196.6 81.5 201.3 84.2 201.3 84.2 199.9 85 199.9 85 194.4 88.2 195 88.5 202.4 84.2 195.2 80.1 187.8 84.4 188.4 84.7"/><polygon class="cls-15" points="195 88.5 195 90.7 202.4 86.4 202.4 84.2 195 88.5"/><polygon class="cls-16" points="195 88.5 194.7 88.7 194.7 90.9 195 90.7 195 88.5"/><polygon class="cls-17" points="194.7 88.7 195 88.5 194.4 88.2 194.4 88.2 188.4 84.7 187.8 84.4 187.5 84.6 194.7 88.7"/><polygon class="cls-18" points="194.7 88.7 193.3 89.5 193.3 91.7 194.7 90.9 194.7 88.7"/><polygon class="cls-19" points="193.3 89.5 194.7 88.7 187.5 84.6 186.1 85.3 193.3 89.5"/><polygon class="cls-17" points="186.4 85.9 186.4 85.9 192.4 89.3 192.4 89.3 193 89.7 193.3 89.5 186.1 85.3 185.8 85.5 186.4 85.9"/><polygon class="cls-16" points="193.3 89.5 193 89.7 193 91.9 193.3 91.7 193.3 89.5"/><path class="cls-14" d="M191.4,89.3l-2.3,1.4h-.3l2.1-1.1h-1.7a4.7,4.7,0,0,1-1.5-.6,2.6,2.6,0,0,1-1.3-1.5v-.2h0v-.2h.1l-1.2.6-4.1,2.4c.1,0,.1,0,.1.1h0c-.1,0-.1,0-.1.1l3.4,1.9a2.5,2.5,0,0,1,1.5,0h.3l5.3-3.1h-.3Zm-7.2.2h.2l.8-.2h1.6v.2h0a.7.7,0,0,1-.4.6,2.6,2.6,0,0,1-2.1,0C184,90.2,183.9,89.8,184.2,89.5Z"/><path class="cls-20" d="M192.4,89.3l-6-3.4h0l-5.5,3.2-1.3.7,1.2.8,3.4,1.9,1.4.8,6.8-3.9Zm-.7,0-5.3,3.1h-.3a2.5,2.5,0,0,0-1.5,0l-3.4-1.9c0-.1,0-.1.1-.1h0c0-.1,0-.1-.1-.1h0l4.1-2.4,1.2-.6h-.1v.2h0v.2a2.6,2.6,0,0,0,1.3,1.5,4.7,4.7,0,0,0,1.5.6h1.7l-2.1,1.1h.3l2.3-1.4h.3Z"/><polygon class="cls-14" points="185.6 94 193 89.7 192.4 89.3 192.4 89.3 192.4 89.4 185.6 93.3 185.6 93.3 184.2 92.5 184.2 92.5 180.8 90.6 180.8 90.6 179.6 89.8 179.6 89.8 180.9 89.1 186.4 85.9 186.4 85.9 185.8 85.5 178.4 89.8 185.6 94"/><polygon class="cls-15" points="193 89.7 185.6 94 185.6 96.2 193 91.9 193 89.7"/><polygon class="cls-21" points="185.6 94 178.4 89.8 178.4 92.1 185.6 96.2 185.6 94"/><path class="cls-20" d="M184.4,90.5a2.6,2.6,0,0,0,2.1,0,.7.7,0,0,0,.4-.6h0v-.2h-1.6l-.8.2h-.2C183.9,89.8,184,90.2,184.4,90.5Z"/><path class="cls-20" d="M196.4,83.6h-.6a.1.1,0,0,1-.1-.1h-1.6l-.2.3h0v.2h.1a.2.2,0,0,0,.2.2,2,2,0,0,0,2.1,0,.8.8,0,0,0,.4-.7h-.2a.1.1,0,0,1-.1-.1Z"/><path class="cls-20" d="M194.4,88.2l5.5-3.2,1.4-.8-4.7-2.7-1.4-.8-6.8,4Zm0-6.5h1.8l3.4,2h-.1c0,.1,0,.1-.1.1h-.1v.2h.3l-5.3,3a.3.3,0,0,0,.1-.2l2.3-1.4h-.2l-2,1.2h-.1V87a2.3,2.3,0,0,0-1.3-1.5,6.9,6.9,0,0,0-4-.8h0Z"/><path class="cls-14" d="M195.2,79.5h0l-5.3,3.1a6,6,0,0,1,4,.7,2.4,2.4,0,0,1,1.4,1.6h0l2-1.2h.2l-2.3,1.3v.2l5.2-3h-.3v-.2h.1a.1.1,0,0,1,.1-.1h.1l-3.5-2h-1.1c0-.1,0-.1-.1-.1h-.6Zm2.1,1.9h.3c.1.2-.1.5-.4.7a2.3,2.3,0,0,1-2,0l-.3-.2h-.1c0-.1-.1-.1-.1-.2h.1a.4.4,0,0,1,.1-.3h.3a.1.1,0,0,1,.1-.1h2Z"/><polygon class="cls-14" points="189.2 82.5 189.2 82.5 196.1 78.5 197.4 79.3 202.1 82 202.1 82 200.7 82.8 200.7 82.8 195.2 86 195.8 86.3 203.2 82 196.1 77.9 188.7 82.2 189.2 82.5"/><polygon class="cls-22" points="195.8 86.3 195.8 88.5 203.2 84.2 203.2 82 195.8 86.3"/><polygon class="cls-16" points="195.8 86.3 195.5 86.5 195.5 88.7 195.8 88.5 195.8 86.3"/><polygon class="cls-17" points="195.5 86.5 195.8 86.3 195.2 86 195.2 86 189.2 82.5 188.7 82.2 188.3 82.4 195.5 86.5"/><polygon class="cls-18" points="195.5 86.5 194.1 87.3 194.1 89.5 195.5 88.7 195.5 86.5"/><polygon class="cls-19" points="194.1 87.3 195.5 86.5 188.3 82.4 187 83.2 194.1 87.3"/><polygon class="cls-17" points="187.2 83.7 187.2 83.7 193.2 87.2 193.2 87.2 193.8 87.5 194.1 87.3 187 83.2 186.6 83.4 187.2 83.7"/><polygon class="cls-16" points="194.1 87.3 193.8 87.5 193.8 89.7 194.1 89.5 194.1 87.3"/><path class="cls-14" d="M192.2,87.2l-2.3,1.3h-.2l2-1.2h-.6a.1.1,0,0,1-.1-.1h-.9a4.4,4.4,0,0,1-1.6-.6,2.6,2.6,0,0,1-1.3-1.5v-.2h0v-.2h0l-1.2.6-4,2.4h0a.1.1,0,0,0-.1.1l3.4,1.9h1.9l5.3-3.1h-.4Zm-7.2.1h.3l.7-.2h1.5c.1,0,.1,0,.1.1h0v.2h0a.7.7,0,0,1-.4.6,2.3,2.3,0,0,1-2,0C184.8,88,184.7,87.6,185,87.3Z"/><path class="cls-20" d="M193.2,87.2l-6-3.5h0l-5.5,3.2-1.3.8,1.3.7,3.3,1.9,1.4.8,6.8-3.9Zm-.6-.1-5.3,3.1h-1.9L182,88.2a.1.1,0,0,1,.1-.1h0l4-2.4,1.2-.6h0v.2h0v.2a2.6,2.6,0,0,0,1.3,1.5,4.4,4.4,0,0,0,1.6.6h.9a.1.1,0,0,0,.1.1h.6l-2,1.2h.2l2.3-1.3h.4Z"/><polygon class="cls-14" points="186.4 91.8 193.8 87.5 193.2 87.2 193.2 87.2 193.2 87.2 186.4 91.1 186.4 91.1 185 90.3 185 90.3 181.7 88.4 181.7 88.4 180.4 87.7 180.4 87.7 181.7 86.9 187.2 83.7 187.2 83.7 186.6 83.4 179.2 87.7 186.4 91.8"/><polygon class="cls-22" points="193.8 87.5 186.4 91.8 186.4 94 193.8 89.7 193.8 87.5"/><polygon class="cls-23" points="186.4 91.8 179.2 87.7 179.2 89.9 186.4 94 186.4 91.8"/><path class="cls-20" d="M185.3,88.3a2.3,2.3,0,0,0,2,0,.7.7,0,0,0,.4-.6h0v-.2h0c0-.1,0-.1-.1-.1H186l-.7.2H185C184.7,87.6,184.8,88,185.3,88.3Z"/><path class="cls-20" d="M197.3,81.4h-2a.1.1,0,0,0-.1.1h-.3a.4.4,0,0,0-.1.3h-.1c0,.1.1.1.1.2h.1l.3.2a2.3,2.3,0,0,0,2,0c.3-.2.5-.5.4-.7h-.3Z"/><path class="cls-20" d="M195.2,86l5.5-3.2,1.4-.8-4.6-2.7-1.4-.8-6.9,4Zm0-6.5h.6c.1,0,.1,0,.1.1H197l3.5,2h-.1a.1.1,0,0,0-.1.1h-.1v.2h.3l-5.2,3v-.2l2.3-1.3h-.2l-2,1.2h0a2.4,2.4,0,0,0-1.4-1.6,6,6,0,0,0-4-.7h0Z"/><path class="cls-14" d="M194.4,78.2h0l-5.3,3.1a6.4,6.4,0,0,1,4.1.7,2.2,2.2,0,0,1,1.3,1.6h0l2-1.2h.3l-2.3,1.3c0,.1-.1.1-.1.2l5.2-3h0c-.1,0-.1,0-.1-.1h-.1v-.2h.3l-3.4-2h-1.1a.1.1,0,0,1-.1-.1h-.7Zm2.1,1.9h.3c.1.2,0,.5-.4.7a2.3,2.3,0,0,1-2,0l-.3-.2H194v-.2h0l.2-.3a.1.1,0,0,0,.1-.1h2.2Z"/><polygon class="cls-14" points="188.5 81.2 188.5 81.2 195.3 77.2 196.7 78 201.3 80.7 201.3 80.7 200 81.5 200 81.5 194.5 84.7 195.1 85 202.5 80.7 195.3 76.6 187.9 80.9 188.5 81.2"/><polygon class="cls-24" points="195.1 85 195.1 87.2 202.5 82.9 202.5 80.7 195.1 85"/><polygon class="cls-16" points="195.1 85 194.7 85.2 194.7 87.4 195.1 87.2 195.1 85"/><polygon class="cls-17" points="194.7 85.2 195.1 85 194.5 84.7 194.5 84.7 188.5 81.2 187.9 80.9 187.6 81.1 194.7 85.2"/><polygon class="cls-18" points="194.7 85.2 193.4 86 193.4 88.2 194.7 87.4 194.7 85.2"/><polygon class="cls-19" points="193.4 86 194.7 85.2 187.6 81.1 186.2 81.9 193.4 86"/><polygon class="cls-17" points="186.4 82.4 186.4 82.4 192.5 85.9 192.5 85.9 193 86.2 193.4 86 186.2 81.9 185.9 82.1 186.4 82.4"/><polygon class="cls-16" points="193.4 86 193 86.2 193 88.4 193.4 88.2 193.4 86"/><path class="cls-14" d="M191.4,85.9l-2.3,1.3h-.2l2-1.2h-.6a.1.1,0,0,1-.1-.1h-.9a3.4,3.4,0,0,1-1.5-.6,2.1,2.1,0,0,1-1.3-1.5v-.2h.1v-.2h0l-1.1.6-4.1,2.4a.1.1,0,0,0,.1.1h-.2l3.5,2a2.3,2.3,0,0,1,1.4-.1h.4l5.3-3.1h-.2C191.6,85.9,191.5,85.9,191.4,85.9Zm-7.1.1h.1a.1.1,0,0,0,.1-.1l.7-.2h.8a.1.1,0,0,1,.1.1h.7c.1,0,.1.1.1.2h.1c0,.2-.2.4-.5.6a2.3,2.3,0,0,1-2,0C184,86.7,184,86.3,184.3,86Z"/><path class="cls-20" d="M192.5,85.9l-6.1-3.5h0L181,85.6l-1.4.8,1.3.7,3.3,1.9,1.4.8,6.8-3.9Zm-.7-.1-5.3,3.1h-.4a2.3,2.3,0,0,0-1.4.1l-3.5-2h.2a.1.1,0,0,1-.1-.1h0l4.1-2.4,1.1-.6h0V83h-.1v.2a2.1,2.1,0,0,0,1.3,1.5,3.4,3.4,0,0,0,1.5.6h.9a.1.1,0,0,0,.1.1h.6l-2,1.2h.2l2.3-1.3c.1,0,.2,0,.2-.1Z"/><polygon class="cls-14" points="185.6 90.5 193 86.2 192.5 85.9 192.5 85.9 192.4 85.9 185.6 89.8 185.6 89.8 184.2 89 184.2 89 180.9 87.1 180.9 87.1 179.6 86.4 179.6 86.4 181 85.6 186.4 82.4 186.4 82.4 185.9 82.1 178.5 86.4 185.6 90.5"/><polygon class="cls-24" points="193 86.2 185.6 90.5 185.6 92.7 193 88.4 193 86.2"/><polygon class="cls-21" points="185.6 90.5 178.5 86.4 178.5 88.6 185.6 92.7 185.6 90.5"/><path class="cls-20" d="M184.5,87a2.3,2.3,0,0,0,2,0c.3-.2.5-.4.5-.6h-.1c0-.1,0-.2-.1-.2h-.7a.1.1,0,0,0-.1-.1h-.8l-.7.2a.1.1,0,0,1-.1.1h-.1C184,86.3,184,86.7,184.5,87Z"/><path class="cls-20" d="M196.5,80.1h-2.3l-.2.3h0v.2h.1l.3.2a2.3,2.3,0,0,0,2,0c.4-.2.5-.5.4-.7h-.3Z"/><path class="cls-20" d="M194.5,84.7l5.5-3.2,1.3-.8L196.7,78l-1.4-.8-6.8,4Zm-.1-6.5h.7a.1.1,0,0,0,.1.1h1.1l3.4,2h-.3v.2h.1c0,.1,0,.1.1.1h0l-5.2,3c0-.1.1-.1.1-.2l2.3-1.3h-.3l-2,1.2h0a2.2,2.2,0,0,0-1.3-1.6,6.4,6.4,0,0,0-4.1-.7h0Z"/><path class="cls-14" d="M193.9,75.8h0l-5.3,3.1a6.1,6.1,0,0,1,4,.7,2.2,2.2,0,0,1,1.3,1.6h.1l2-1.2h.2l-2.3,1.3v.2l5.2-3h-.3v-.2h0a.1.1,0,0,0,.1-.1h.2l-3.4-2h0a.1.1,0,0,1-.1.1h-1.7Zm2,1.9h.3c0,.1.1.1.1.2h0a.9.9,0,0,1-.4.7,2.6,2.6,0,0,1-2.1,0l-.2-.2h-.1c-.1,0-.1-.1-.1-.2h0l.2-.3.2-.2h0c.1,0,.1,0,.1-.1h1.9c0,.1,0,.1.1.1Z"/><polygon class="cls-14" points="187.9 78.8 187.9 78.8 194.8 74.9 196.1 75.7 200.8 78.3 200.8 78.3 199.4 79.1 199.4 79.1 193.9 82.3 194.5 82.6 201.9 78.3 194.7 74.2 187.3 78.5 187.9 78.8"/><polygon class="cls-24" points="194.5 82.6 194.5 84.8 201.9 80.5 201.9 78.3 194.5 82.6"/><polygon class="cls-16" points="194.5 82.6 194.2 82.8 194.2 85 194.5 84.8 194.5 82.6"/><polygon class="cls-17" points="194.2 82.8 194.5 82.6 193.9 82.3 193.9 82.3 187.9 78.8 187.3 78.5 187 78.7 194.2 82.8"/><polygon class="cls-18" points="194.2 82.8 192.8 83.6 192.8 85.8 194.2 85 194.2 82.8"/><polygon class="cls-19" points="192.8 83.6 194.2 82.8 187 78.7 185.6 79.5 192.8 83.6"/><polygon class="cls-17" points="185.9 80 185.9 80 191.9 83.5 191.9 83.5 192.5 83.8 192.8 83.6 185.6 79.5 185.3 79.7 185.9 80"/><polygon class="cls-16" points="192.8 83.6 192.5 83.8 192.5 86 192.8 85.8 192.8 83.6"/><path class="cls-14" d="M190.9,83.5l-2.3,1.3h-.3l2.1-1.2h-1.7a4.7,4.7,0,0,1-1.5-.6,2.3,2.3,0,0,1-1.3-1.5V81h0v-.2h.1l-1.2.7-4,2.3h-.1l3.4,2a2.7,2.7,0,0,1,1.5-.1h.3l5.3-3.1h-.3Zm-7.2.1h.2l.8-.2H186v.2h.2c0,.1.1.1.1.2h0a.6.6,0,0,1-.4.6,2.3,2.3,0,0,1-2,0C183.5,84.3,183.4,83.9,183.7,83.6Z"/><path class="cls-20" d="M191.9,83.5l-6-3.5h0l-5.5,3.2-1.3.8,1.2.7,3.4,2,1.4.8,6.8-4Zm-.7-.1-5.3,3.1h-.3a2.7,2.7,0,0,0-1.5.1l-3.4-2h.1l4-2.3,1.2-.7h-.1v.2h0v.2a2.3,2.3,0,0,0,1.3,1.5,4.7,4.7,0,0,0,1.5.6h1.7l-2.1,1.2h.3l2.3-1.3h.3Z"/><polygon class="cls-14" points="185.1 88.1 192.5 83.8 191.9 83.5 191.9 83.5 191.9 83.5 185.1 87.5 185.1 87.5 183.7 86.7 183.7 86.7 180.3 84.7 180.3 84.7 179.1 84 179.1 84 180.4 83.2 185.9 80 185.9 80 185.3 79.7 177.9 84 185.1 88.1"/><polygon class="cls-24" points="192.5 83.8 185.1 88.1 185.1 90.3 192.5 86 192.5 83.8"/><polygon class="cls-23" points="185.1 88.1 177.9 84 177.9 86.2 185.1 90.3 185.1 88.1"/><path class="cls-20" d="M184,84.6a2.3,2.3,0,0,0,2,0,.6.6,0,0,0,.4-.6h0c0-.1-.1-.1-.1-.2h-.2v-.2h-1.3l-.8.2h-.2C183.4,83.9,183.5,84.3,184,84.6Z"/><path class="cls-20" d="M195.9,77.7h0c-.1,0-.1,0-.1-.1h-1.9c0,.1,0,.1-.1.1h-.1c-.1,0-.1,0-.1.1l-.2.3h0c0,.1,0,.2.1.2h.1l.2.2a2.6,2.6,0,0,0,2.1,0,.9.9,0,0,0,.4-.7h0c0-.1-.1-.1-.1-.2h-.3Z"/><path class="cls-20" d="M193.9,82.3l5.5-3.2,1.4-.8-4.7-2.6-1.3-.8-6.9,3.9Zm0-6.5h1.7a.1.1,0,0,0,.1-.1l3.4,2h-.2a.1.1,0,0,1-.1.1h0v.2h.3l-5.2,3v-.2l2.3-1.3H196l-2,1.2h-.1a2.2,2.2,0,0,0-1.3-1.6,6.1,6.1,0,0,0-4-.7h0Z"/><path class="cls-14" d="M194.7,74.3h0l-5.3,3a7.2,7.2,0,0,1,4.1.7,2.6,2.6,0,0,1,1.3,1.6h0v.2l2-1.2h.3l-2.3,1.4a.3.3,0,0,0-.1.2l5.2-3.1h-.2a.1.1,0,0,1,.1-.1h0c.1,0,.1,0,.1-.1h.1l-3.4-2h-.2c0,.1,0,.1-.1.1h-1.2a.1.1,0,0,1-.1-.1Zm2.1,1.9h.1a.1.1,0,0,1,.1.1h.1c.1.3,0,.5-.4.7a1.8,1.8,0,0,1-2,0l-.3-.2h-.1v-.3h0l.2-.3h.2c0-.1,0-.1.1-.1h1.8c.1,0,.1,0,.1.1Z"/><polygon class="cls-14" points="188.8 77.3 188.8 77.3 195.6 73.3 197 74.1 201.6 76.8 201.6 76.8 200.2 77.6 200.2 77.6 194.8 80.8 195.4 81.1 202.8 76.8 195.6 72.6 188.2 77 188.8 77.3"/><polygon class="cls-25" points="195.4 81.1 195.4 83.3 202.8 79 202.8 76.8 195.4 81.1"/><polygon class="cls-16" points="195.4 81.1 195 81.3 195 83.5 195.4 83.3 195.4 81.1"/><polygon class="cls-17" points="195 81.3 195.4 81.1 194.8 80.8 194.8 80.8 188.8 77.3 188.2 77 187.9 77.1 195 81.3"/><polygon class="cls-18" points="195 81.3 193.7 82.1 193.7 84.3 195 83.5 195 81.3"/><polygon class="cls-19" points="193.7 82.1 195 81.3 187.9 77.1 186.5 77.9 193.7 82.1"/><polygon class="cls-17" points="186.7 78.5 186.7 78.5 192.8 81.9 192.8 81.9 193.3 82.3 193.7 82.1 186.5 77.9 186.2 78.1 186.7 78.5"/><polygon class="cls-16" points="193.7 82.1 193.3 82.3 193.3 84.5 193.7 84.3 193.7 82.1"/><path class="cls-14" d="M191.7,81.9l-2.3,1.4h-.2l2-1.1h-1.6a5.2,5.2,0,0,1-1.5-.6,2.3,2.3,0,0,1-1.3-1.5v-.2h0v-.2h0l-1.1.6-4.1,2.4h-.1l3.5,2a2.2,2.2,0,0,1,1.4,0h.4l5.3-3.1h-.4Zm-7.1.2h.2l.7-.2h1.6v.2h.1c0,.2-.2.4-.5.6a2.3,2.3,0,0,1-2,0C184.3,82.8,184.2,82.4,184.6,82.1Z"/><path class="cls-20" d="M192.8,81.9l-6.1-3.4h0l-5.4,3.1-1.4.8,1.3.8,3.3,1.9,1.4.8,6.8-3.9Zm-.7,0L186.8,85h-.4a2.2,2.2,0,0,0-1.4,0l-3.5-2h.1l4.1-2.4,1.1-.6h0v.2h0v.2a2.3,2.3,0,0,0,1.3,1.5,5.2,5.2,0,0,0,1.5.6h1.6l-2,1.1h.2l2.3-1.4h.4Z"/><polygon class="cls-14" points="185.9 86.6 193.3 82.3 192.8 81.9 192.8 81.9 192.7 82 185.9 85.9 185.9 85.9 184.5 85.1 184.5 85.1 181.2 83.2 181.2 83.2 179.9 82.4 179.9 82.4 181.3 81.6 186.7 78.5 186.7 78.5 186.2 78.1 178.7 82.4 185.9 86.6"/><polygon class="cls-25" points="193.3 82.3 185.9 86.6 185.9 88.8 193.3 84.5 193.3 82.3"/><polygon class="cls-21" points="185.9 86.6 178.7 82.4 178.7 84.6 185.9 88.8 185.9 86.6"/><path class="cls-20" d="M184.8,83.1a2.3,2.3,0,0,0,2,0c.3-.2.5-.4.5-.6h-.1v-.2h-1.6l-.7.2h-.2C184.2,82.4,184.3,82.8,184.8,83.1Z"/><path class="cls-20" d="M196.8,76.2h-.1c0-.1,0-.1-.1-.1h-1.8c-.1,0-.1,0-.1.1h-.2l-.2.3h0V77h.1l.3.2a1.8,1.8,0,0,0,2,0c.4-.2.5-.4.4-.7H197a.1.1,0,0,0-.1-.1h-.1Z"/><path class="cls-20" d="M194.8,80.8l5.4-3.2,1.4-.8L197,74.1l-1.4-.8-6.8,4Zm-.1-6.5h.3a.1.1,0,0,0,.1.1h1.2c.1,0,.1,0,.1-.1h.2l3.4,2h-.1c0,.1,0,.1-.1.1h0a.1.1,0,0,0-.1.1h.2l-5.2,3.1a.3.3,0,0,1,.1-.2l2.3-1.4h-.3l-2,1.2h0v-.2h0a2.6,2.6,0,0,0-1.3-1.6,7.2,7.2,0,0,0-4.1-.7h0Z"/><path class="cls-14" d="M194.4,71.6h0l-5.3,3.1a6.4,6.4,0,0,1,4.1.7,2.2,2.2,0,0,1,1.3,1.6h0l2-1.2h.3l-2.3,1.3c0,.1-.1.1-.1.2l5.2-3h-.2V74h.3l-3.4-2h-1.9Zm2.1,1.9h.3c.1.2,0,.5-.4.7a2.3,2.3,0,0,1-2,0l-.3-.2H194v-.2h0c0-.1.1-.2.2-.3h2.3Z"/><polygon class="cls-14" points="188.5 74.6 188.5 74.6 195.3 70.6 196.7 71.4 201.3 74.1 201.3 74.1 199.9 74.9 199.9 74.9 194.5 78.1 195.1 78.4 202.5 74.1 195.3 70 187.9 74.3 188.5 74.6"/><polygon class="cls-24" points="195.1 78.4 195.1 80.6 202.5 76.3 202.5 74.1 195.1 78.4"/><polygon class="cls-16" points="195.1 78.4 194.7 78.6 194.7 80.8 195.1 80.6 195.1 78.4"/><polygon class="cls-17" points="194.7 78.6 195.1 78.4 194.5 78.1 194.5 78.1 188.5 74.6 187.9 74.3 187.6 74.5 194.7 78.6"/><polygon class="cls-18" points="194.7 78.6 193.4 79.4 193.4 81.6 194.7 80.8 194.7 78.6"/><polygon class="cls-19" points="193.4 79.4 194.7 78.6 187.6 74.5 186.2 75.3 193.4 79.4"/><polygon class="cls-17" points="186.4 75.8 186.4 75.8 192.5 79.3 192.5 79.3 193 79.6 193.4 79.4 186.2 75.3 185.9 75.5 186.4 75.8"/><polygon class="cls-16" points="193.4 79.4 193 79.6 193 81.8 193.4 81.6 193.4 79.4"/><path class="cls-14" d="M191.4,79.3l-2.3,1.3h-.2l2-1.2h-1.6a3.4,3.4,0,0,1-1.5-.6,2.3,2.3,0,0,1-1.3-1.5c-.1-.1-.1-.1-.1-.2h0c.1,0,.1-.1.1-.2h0l-1.1.6-4.1,2.4h.1c0,.1.1.1.1.2h-.3l3.5,2a2.3,2.3,0,0,1,1.4-.1h.4l5.3-3.1h-.4Zm-7.1.1h0c0-.1,0-.1.1-.1h.1l.7-.2h1.1a.1.1,0,0,1,.1.1h.3c0,.1,0,.1.1.1h0c.1,0,.1.1.1.2h.1c0,.2-.2.4-.5.6a2.3,2.3,0,0,1-2,0C184,80.1,184,79.7,184.3,79.4Z"/><path class="cls-20" d="M192.5,79.3l-6.1-3.5h0L181,79l-1.4.8,1.3.7,3.3,1.9,1.4.8,6.8-3.9Zm-.7-.1-5.3,3.1h-.4a2.3,2.3,0,0,0-1.4.1l-3.5-2h.3c0-.1-.1-.1-.1-.2h-.1l4.1-2.4,1.1-.6h0c0,.1,0,.2-.1.2h0c0,.1,0,.1.1.2a2.3,2.3,0,0,0,1.3,1.5,3.4,3.4,0,0,0,1.5.6h1.6l-2,1.2h.2l2.3-1.3h.4Z"/><polygon class="cls-14" points="185.6 83.9 193 79.6 192.5 79.3 192.5 79.3 192.4 79.3 185.6 83.2 185.6 83.2 184.2 82.4 184.2 82.4 180.9 80.5 180.9 80.5 179.6 79.8 179.6 79.8 181 79 186.4 75.8 186.4 75.8 185.9 75.5 178.5 79.8 185.6 83.9"/><polygon class="cls-24" points="193 79.6 185.6 83.9 185.6 86.1 193 81.8 193 79.6"/><polygon class="cls-23" points="185.6 83.9 178.5 79.8 178.4 82 185.6 86.1 185.6 83.9"/><path class="cls-20" d="M184.5,80.4a2.3,2.3,0,0,0,2,0c.3-.2.5-.4.5-.6h-.1c0-.1,0-.2-.1-.2h0c-.1,0-.1,0-.1-.1h-.3a.1.1,0,0,0-.1-.1h-1.1l-.7.2h-.2C184,79.7,184,80.1,184.5,80.4Z"/><path class="cls-20" d="M196.5,73.5h-2.3c-.1.1-.2.2-.2.3h0v.2h.1l.3.2a2.3,2.3,0,0,0,2,0c.4-.2.5-.5.4-.7h-.3Z"/><path class="cls-20" d="M194.5,78.1l5.4-3.2,1.4-.8-4.6-2.7-1.4-.8-6.8,4Zm-.1-6.5h1.9l3.4,2h-.3v.2h.2l-5.2,3c0-.1.1-.1.1-.2l2.3-1.3h-.3l-2,1.2h0a2.2,2.2,0,0,0-1.3-1.6,6.4,6.4,0,0,0-4.1-.7h0Z"/><path class="cls-26" d="M223.1,99.5c9.8-4.2,17.1-9.6,16.4-11.7s-9.3.2-19.1,4.3-17.1,9.2-16.4,11.3S213.3,103.7,223.1,99.5Z"/><path class="cls-27" d="M223.7,98.4c9.3-4.3,16.6-8.9,16.2-9.5s-8.2,2.7-17.4,7.1-16.5,8.4-16.2,9S214.5,102.8,223.7,98.4Z"/><path class="cls-28" d="M223.6,98.8c10.2-4.7,16.1-8.9,15.6-9.9s-7,1.2-17.3,5.9-18.2,9.4-17.7,10.5S213.3,103.4,223.6,98.8Z"/><polygon class="cls-29" points="206.6 64.4 208.9 64.6 235 56.4 233.1 56.3 206.6 64.4"/><path class="cls-30" d="M233.1,56.7l-25.2,7.8h-1.3L196.2,42.3a2.3,2.3,0,0,1,2.2-1.8l23.5-4.4a1.2,1.2,0,0,1,1.2.4Z"/><path class="cls-31" d="M221.5,36.8l-22.2,4.4c.3.8-.7,1-.7,1l10.3,22.1-1,.2,24.6-7.6L222.6,37A1.1,1.1,0,0,1,221.5,36.8Z"/><path class="cls-32" d="M221.5,37.9l-22.2,4.4c.3.8-.7,1.1-.7,1.1l10.3,22-1,.2L232.5,58l-9.9-19.8A1.3,1.3,0,0,1,221.5,37.9Z"/><path class="cls-33" d="M222.4,37.3,232.2,57h.3L222.6,37a1.1,1.1,0,0,1-1.1-.2l-22.2,4.4v.3l22-4.4A1.1,1.1,0,0,0,222.4,37.3Z"/><path class="cls-33" d="M199.1,42a.8.8,0,0,1-.5.2v.2C198.8,42.3,199,42.2,199.1,42Z"/><path class="cls-34" d="M198.7,40.5h.1l-1.2.2c-2,.5-1.4,1.6-1.4,1.6l10.4,22.1h1L197,42S196.6,40.9,198.7,40.5Z"/><path class="cls-35" d="M197.1,42.2s-.9-1.2,1.6-1.7H198c-.9.3-1.8.8-1.3,1.6s10.2,22,10.3,22.2h.6Z"/><path class="cls-36" d="M200.9,52.3s.1-1,.4-1.2,26.2-5.7,26.2-5.7l5.6,11.3-24.8,7.9h-1.7Z"/><path class="cls-37" d="M206.6,64.4v37c0,.5.5.9,1.1,1h0a15.3,15.3,0,0,0,3,.2c1.1-.1,1-.5,1-.5h-.3l21.7-9.9a1.9,1.9,0,0,0,1.3-1.7V56.6l-25.5,8Z"/><path class="cls-38" d="M208.9,101.6c0,.9,1.2,1.3,2.7.8l22-10.1a1.9,1.9,0,0,0,1.4-1.7V56.4l-26.1,8.2Z"/><path class="cls-39" d="M211.4,63.8V99.4c0,.9,1.1,1.2,2.4.8l18.8-8.7a2.1,2.1,0,0,0,1.3-1.6V56.7Z"/><path class="cls-40" d="M207.4,101.5c0,.5.1,1,1.4,1.1-.2-.1-.3-.5-.3-1.1V64.6h-1.1Z"/><path class="cls-41" d="M207,101.5c0,.5.4.7,1.1.9a1.3,1.3,0,0,1-.5-1V64.5H207Z"/><path class="cls-42" d="M207.9,64.5v37.2s0,.6.3.8a4.1,4.1,0,0,1-.1-.9v-37Z"/><path class="cls-43" d="M208,64.5h.9L235,56.4l16.1-12.1.9-.4c.1-.1.3-.2.3-.3a.3.3,0,0,0-.1-.2c-.1-.1-.3-.1-.7,0s-24.7,6.4-24.7,6.4a11.2,11.2,0,0,0-3.2,1.3Z"/><path class="cls-44" d="M251.3,43.2l-24.7,6.4a9.8,9.8,0,0,0-3.2,1.4L207.8,64.5h1.1l15.2-13a9.9,9.9,0,0,1,3.4-1.5c1.9-.4,24.1-6.4,24.4-6.5h.4C252.3,43.4,251.9,43.1,251.3,43.2Z"/><path class="cls-39" d="M250.4,44.4,233.9,56.8l-22.5,7,13.9-12.1a8.5,8.5,0,0,1,2.8-1.2l22.2-6.3h.3Z"/><g class="cls-45"><path class="cls-39" d="M250.4,44.4,233.9,56.8l-22.5,7,13.9-12.1a8.5,8.5,0,0,1,2.8-1.2l22.2-6.3h.3Z"/></g><path class="cls-46" d="M208.2,64.6h.3L224,51.2a17.6,17.6,0,0,1,4-1.7,10,10,0,0,0-4.1,1.6C222.7,52,208.2,64.6,208.2,64.6Z"/><path class="cls-47" d="M207.9,64.5,223.7,51a12.2,12.2,0,0,1,3.2-1.4c1.2-.2,24.9-6.4,24.9-6.4h.2l-25,6.5a9.2,9.2,0,0,0-3.2,1.4c-1.4,1.1-15.6,13.4-15.6,13.4Z"/><path class="cls-48" d="M209.1,64.6a1.2,1.2,0,0,1-1.4,1.3,1.6,1.6,0,0,1-1.4-1.5,1.2,1.2,0,0,1,1.4-1.3A1.5,1.5,0,0,1,209.1,64.6Z"/><path class="cls-49" d="M208.9,64.7a1.2,1.2,0,0,1-1.4,1.2,1.5,1.5,0,0,1-1.4-1.5,1.3,1.3,0,0,1,1.4-1.3A1.6,1.6,0,0,1,208.9,64.7Z"/><path class="cls-50" d="M208.6,64.6a1,1,0,0,1-1.1,1,1.2,1.2,0,0,1-1-1.2.9.9,0,0,1,1-.9A1.1,1.1,0,0,1,208.6,64.6Z"/><path class="cls-51" d="M207.5,63.2h0a1.2,1.2,0,0,1,1,1.2,1,1,0,0,1-1.1,1.1,1.1,1.1,0,0,1-1.1-1.2.9.9,0,0,1,.1-.5,1.4,1.4,0,0,0-.2.6,1.6,1.6,0,0,0,1.3,1.5,1.2,1.2,0,0,0,1.3-1.2A1.4,1.4,0,0,0,207.5,63.2Z"/><g class="cls-52"><path class="cls-53" d="M230.3,37.7c-2.5,15.5-1,31,4.3,43.9l-19.3,6.1c-5.7-13.9-7.7-30.3-5.5-46.9Z"/><path class="cls-54" d="M216.5,84.9,232,80.2c-4.4-12-5.8-25.9-4-40l-16.4,2.7C210,57.7,211.7,72.3,216.5,84.9Zm10.4-5.4-5.7,1.7a4.1,4.1,0,0,0-4.6-2.1,90,90,0,0,1-2.5-11.7,6.3,6.3,0,0,0,6.6,1.9,8.3,8.3,0,0,0,5.4-4.4,76.7,76.7,0,0,0,2.3,10.8C226.8,76.2,226.4,77.9,226.9,79.5Zm-3.8-36.2c-.2,1.9.7,3.4,2.3,3.1a86.7,86.7,0,0,0,0,11.4,6.2,6.2,0,0,0-6.1-1.8,8.4,8.4,0,0,0-6,4.8,99,99,0,0,1-.1-12.2,5.6,5.6,0,0,0,3.9-4.3Z"/><path class="cls-8" d="M221.5,73.6a1.5,1.5,0,0,1,1.9,1.2,1.5,1.5,0,0,1-1,2,1.6,1.6,0,0,1-2-1.2A1.5,1.5,0,0,1,221.5,73.6Z"/><path class="cls-8" d="M219.1,51.9a2.3,2.3,0,0,0,1.7-2.1,1.5,1.5,0,0,0-1.6-1.6,2.4,2.4,0,0,0-1.6,2.2C217.6,51.4,218.3,52.1,219.1,51.9Z"/><path class="cls-53" d="M229.9,23.2s12.7-.6,21.9,6.2c0,0-10.5.8-14.3,8.4S233,58.7,233,58.7l-21.9.2s4.8-17.3,8.4-25.4S229.9,23.2,229.9,23.2Z"/><path class="cls-54" d="M249.4,28.8s-10-5.3-19.1-4.1a17.6,17.6,0,0,0-9.5,8.6c-3.4,6.6-8,24.5-8,24.5h19.1s1.5-15.3,5-21.1S249.4,28.8,249.4,28.8Z"/><path class="cls-53" d="M231.2,53a3.9,3.9,0,0,0-3.4,3H217.2s.9-3-1.6-3.7c0,0,4.3-13.3,6.1-17.4s3.2-6,5.6-7.3c0,0,1.6,2.5,5.8-1.5,0,0,6.7-.1,10.7,2,0,0-2.1.5-1.2,2s-3.7,1.1-7.1,6.2S231.2,53,231.2,53Z"/><path class="cls-54" d="M222,38.7a5.9,5.9,0,0,1,6.4-4.7c3.3.2,5.5,2.9,4.8,5.9a6,6,0,0,1-6.8,4.3C223.5,43.8,221.5,41.4,222,38.7Z"/><path class="cls-8" d="M223.3,49.9a1.5,1.5,0,0,1,1.6-1.2,1.3,1.3,0,0,1,1.2,1.5,1.5,1.5,0,0,1-1.7,1.1A1.2,1.2,0,0,1,223.3,49.9Z"/><path class="cls-8" d="M232.7,30.7a1.3,1.3,0,0,1,1.5-.9c.9.1,1.4.7,1.3,1.3a1.5,1.5,0,0,1-1.6.8C233.1,31.7,232.6,31.2,232.7,30.7Z"/><path class="cls-8" d="M227.1,37.7h.5l.3-.8.6.3-.3.6h.1a1.7,1.7,0,0,1,1,1.8l2.4-.4-.6,1.2-2.1.4-.6,1.4-.9-.5.6-1.3c.3-.8.1-1.2-.4-1.5l-1.2,2.8-.6-.3,1.2-2.6a1.3,1.3,0,0,0-.9.9l-.7,1.5-.6-.2,2-4.5.6.3Z"/></g><path class="cls-12" d="M206.3,44.5a5,5,0,0,0-3.2,5l3.8-5.3Z"/><path class="cls-12" d="M206.9,44.2l-3.8,5.3c0,.1.1.3.1.4l4.2-5.8Z"/><path class="cls-12" d="M207.9,44l-4.6,6.3h.1l.3.5,5-7Z"/><path class="cls-12" d="M210.3,44.1l-1.6-.2-5,7a3.2,3.2,0,0,0,1,1Z"/><path class="cls-12" d="M207.4,44.1l-4.2,5.8c0,.1.1.3.1.4l4.6-6.3Z"/><path class="cls-12" d="M210.3,44.1l-5.6,7.8.7.4,5.7-7.8Z"/><path class="cls-12" d="M211.1,44.5l-5.7,7.8.5.2,5.6-7.8Z"/><path class="cls-12" d="M211.8,45l-5.5,7.6a4.9,4.9,0,0,0,1.7,0l4.7-6.5A3.1,3.1,0,0,0,211.8,45Z"/><path class="cls-12" d="M209.1,52.4l.7-.3A5,5,0,0,0,213,47Z"/><path class="cls-12" d="M211.5,44.7l-5.6,7.8h.4l5.5-7.6Z"/><path class="cls-12" d="M212.7,46.2h0L208,52.6l1.1-.2L213,47Z"/><path class="cls-11" d="M209.4,51.3c-2,1-4.3.4-5.1-1.3s.3-3.8,2.4-4.7,4.3-.4,5.1,1.3S211.5,50.4,209.4,51.3Z"/><path class="cls-10" d="M206.7,45.4c2.1-.9,4.3-.3,5.1,1.3h0c-.8-1.7-3.1-2.3-5.1-1.3s-3.2,3-2.4,4.7h0C203.6,48.4,204.7,46.3,206.7,45.4Z"/><path class="cls-10" d="M206.2,52.5l.6.5a4.8,4.8,0,0,0,1.7,0l-.5-.4A3.7,3.7,0,0,1,206.2,52.5Z"/><path class="cls-11" d="M205.4,52.3l.7.5.7.2-.6-.5Z"/><path class="cls-10" d="M203.4,50.5h.1a3.8,3.8,0,0,0,2.6,2.2l-.7-.5A4.4,4.4,0,0,1,203.4,50.5Z"/><path class="cls-10" d="M209.1,52.4l.4.4.4-.2-.5-.3Z"/><path class="cls-11" d="M208,52.6l.5.4,1-.2-.4-.4Z"/><path class="cls-11" d="M212.8,46.4h0c.8,2.1-.5,4.7-3,5.8l-.4.2.5.3h.1C212.6,51.4,213.8,48.7,212.8,46.4Z"/><path class="cls-10" d="M208.6,46.7c.2.1.2.2.3.3l.6-.2v.4l-.4.2h0a1.2,1.2,0,0,1-.5,1.4l1.3,1.1-.9.2-1.2-.9-1,.3-.2-.7,1-.3q.8-.3.6-.9l-2,.6-.2-.4,2-.6a.9.9,0,0,0-.9,0l-1.1.3-.2-.4,3.4-1v.4Z"/><path class="cls-12" d="M208.4,46.9l.3.3.6-.2v.4l-.5.2h.1a1.5,1.5,0,0,1-.5,1.4l1.3,1.1-1,.2-1.1-.9-1,.3-.2-.7.9-.3c.6-.2.8-.5.7-.9l-2,.6-.2-.4,1.9-.6a1,1,0,0,0-.8-.1l-1.2.4v-.5l3.3-.9.2.4Z"/><path class="cls-8" d="M225.3,90.8a1.6,1.6,0,0,1-.9,1.4l-1.8.7c-.5.2-.9-.1-.9-.7V90.1a1.7,1.7,0,0,1,.9-1.5l1.8-.6c.5-.2.9.2.9.8Z"/><path class="cls-55" d="M222.7,92.5c-.4.1-.7-.2-.7-.7V90.2a1.4,1.4,0,0,1,.8-1.2l1.4-.5h.2c.4-.1.6.2.6.7v1.6a1.4,1.4,0,0,1-.7,1.2l-1.4.5Zm1.7-3.8h-.1l-1.4.5a1.2,1.2,0,0,0-.6,1v1.6c0,.4.2.6.5.5l1.4-.6a1,1,0,0,0,.6-.9V89.2A.5.5,0,0,0,224.4,88.7Z"/><path class="cls-56" d="M227.3,103.9v1.4c0,.4,2.8.8,6.1.8s6.1-.4,6.1-.8v-1.4Z"/><ellipse class="cls-57" cx="233.4" cy="103.9" rx="6.1" ry="0.8"/><path class="cls-58" d="M233.4,104.8c-3,0-6.1-.3-6.1-.8h.1c0,.4,2.5.8,6,.8s6.1-.4,6.1-.8h0C239.5,104.5,236.4,104.8,233.4,104.8Z"/><path class="cls-59" d="M232.9,104h1.4c.2-.1.5,0,.7,0h.5l.4.2h.2c-.1.1-.1.2-.3.2l-.5.2h.1a.1.1,0,0,0,.1-.1h-5.1l.2-.2h2.3Zm-2,.1c.1,0,.1,0,.1.1h1.6a.1.1,0,0,1,.1-.1Zm4.6-.1h0Z"/><path class="cls-60" d="M233.4,103.2c-2.7,0-5.5.3-6,.7h.1c.4-.3,2.7-.6,5.9-.6s5.7.3,6,.6h0C239.1,103.5,236.2,103.2,233.4,103.2Z"/><path class="cls-61" d="M225.6,102.5v1.4c0,.4,2.8.8,6.1.8s6.1-.4,6.1-.8v-1.4Z"/><path class="cls-62" d="M237.8,102.5c0,.5-2.7.8-6.1.8s-6.1-.3-6.1-.8,2.8-.8,6.1-.8S237.8,102.1,237.8,102.5Z"/><path class="cls-63" d="M231.7,103.4c-2.9,0-6.1-.3-6.1-.9h.1c0,.4,2.5.8,6,.8s6.1-.4,6.1-.8h0C237.8,103.1,234.7,103.4,231.7,103.4Z"/><path class="cls-59" d="M231.2,102.6h.1l.3-.2h2.6l.2.2h.8a.1.1,0,0,1,.1.1h-.9l-.3.2h-5.3c-.1,0-.1-.1-.1-.2h0l.2-.2h.6c.1,0,.1,0,.1.1h1.6Zm-1.9.1h0Zm4.5-.1h0Z"/><path class="cls-64" d="M231.7,101.8c-2.7,0-5.5.3-6,.7h.1c.4-.3,2.7-.7,5.9-.7s5.7.4,6,.7h0C237.4,102.1,234.5,101.8,231.7,101.8Z"/><path class="cls-65" d="M227.1,101.1v1.4c0,.4,2.7.8,6.1.8s6.1-.4,6.1-.8v-1.4Z"/><ellipse class="cls-66" cx="233.2" cy="101.1" rx="6.1" ry="0.8"/><path class="cls-67" d="M233.2,102c-3,0-6.1-.3-6.1-.9h.1c0,.4,2.4.8,6,.8s6-.4,6-.8h.1C239.3,101.7,236.2,102,233.2,102Z"/><path class="cls-59" d="M232.6,101.2l.2-.2h2.9c.1.1.1.1.1.2h0c0,.1-.1.1-.2.2h-.5a.1.1,0,0,0,.1-.1h-2c-.1,0-.2,0-.2.1h-2.7l-.2-.2h2.5Zm-1.9,0h1.5a.1.1,0,0,0,.1-.1h-1.6Zm4.5,0a.1.1,0,0,0-.1-.1h-1.7a.1.1,0,0,0-.1.1Z"/><path class="cls-68" d="M233.2,100.4c-2.7,0-5.5.3-6,.7h.1c.3-.4,2.7-.7,5.9-.7s5.7.4,6,.7h0C238.8,100.7,236,100.4,233.2,100.4Z"/><path class="cls-69" d="M228,99.7V101c0,.5,2.7.8,6.1.8s6.1-.3,6.1-.8V99.7Z"/><path class="cls-70" d="M240.2,99.7c0,.4-2.8.8-6.1.8s-6.1-.4-6.1-.8,2.7-.8,6.1-.8S240.2,99.3,240.2,99.7Z"/><path class="cls-71" d="M234.1,100.5c-3,0-6.1-.2-6.1-.8h0c.1,0,0,.1,0,.1s2.5.7,6.1.7,6-.4,6-.7h0a.1.1,0,0,1,.1.1C240.2,100.3,237.1,100.5,234.1,100.5Z"/><path class="cls-59" d="M233.5,99.7h3l.2.2h0l-.2.2h-.8c-.1,0-.1,0-.1-.1H234c0,.1-.1.1-.1.2h-2.7c-.1-.1-.2-.1-.2-.2h.2l.4-.2h.1a.1.1,0,0,1-.1.1Zm-1.9.1a.1.1,0,0,0,.1.1h-.1Zm4.5,0H236c0-.1-.1-.1-.2-.1h.3Z"/><path class="cls-72" d="M234.1,99c-2.7,0-5.6.2-6,.7h0c.4-.3,2.8-.6,6-.6s5.7.3,6,.7h0C239.7,99.2,236.8,99,234.1,99Z"/><path class="cls-73" d="M227.3,98.2v1.3c0,.5,2.8.8,6.1.8s6.1-.3,6.1-.8V98.2Z"/><path class="cls-74" d="M239.5,98.2c0,.4-2.7.8-6.1.8s-6.1-.4-6.1-.8,2.8-.8,6.1-.8S239.5,97.7,239.5,98.2Z"/><path class="cls-75" d="M233.4,99c-3,0-6.1-.3-6.1-.8a.1.1,0,0,1,.1-.1h0c0,.3,2.5.7,6,.7s6.1-.4,6.1-.7h0C239.5,98.7,236.4,99,233.4,99Z"/><path class="cls-59" d="M232.9,98.2h3.2c-.1.1-.1.2-.3.2l-.5.2h.1a.1.1,0,0,0,.1-.1h-4.7l-.3-.2h-.1c0-.1.1-.1.2-.2h2.3Zm-2,.1a.1.1,0,0,1,.1.1h-.1Zm4.6-.1a.1.1,0,0,1-.1-.1h.1Z"/><path class="cls-76" d="M233.4,97.5c-2.7,0-5.5.2-6,.7h.1c.4-.3,2.7-.6,5.9-.6s5.7.3,6,.6h0C239.1,97.7,236.2,97.5,233.4,97.5Z"/><path class="cls-77" d="M225.6,96.8v1.3c0,.4,2.8.8,6.1.8s6.1-.4,6.1-.8V96.8Z"/><path class="cls-78" d="M237.8,96.8c0,.4-2.7.7-6.1.7s-6.1-.3-6.1-.7,2.8-.8,6.1-.8S237.8,96.3,237.8,96.8Z"/><path class="cls-79" d="M231.7,97.6c-2.9,0-6.1-.3-6.1-.8h.1c0,.3,2.5.7,6,.7s6.1-.4,6.1-.7h0C237.8,97.3,234.7,97.6,231.7,97.6Z"/><path class="cls-59" d="M231.2,96.8h2.6l.4.2h1a.1.1,0,0,0,.1.1h-.9c-.1.1-.1.2-.3.2l-.4.2h-.5a.1.1,0,0,0,.1-.1h-5.2c-.1,0-.1,0-.1-.1h.7l.2-.2h2.3Zm-1.9.1h0Zm4.5-.1h-.4c0-.1-.2-.1-.3-.1h.7Z"/><path class="cls-80" d="M231.7,96c-2.7,0-5.5.3-6,.7h.1c.4-.3,2.7-.6,5.9-.6s5.7.3,6,.6h0C237.4,96.3,234.5,96,231.7,96Z"/><path class="cls-81" d="M227.1,95.3v1.4c0,.4,2.7.8,6.1.8s6.1-.4,6.1-.8V95.3Z"/><path class="cls-82" d="M239.3,95.3c0,.5-2.7.8-6.1.8s-6.1-.3-6.1-.8,2.7-.8,6.1-.8S239.3,94.9,239.3,95.3Z"/><path class="cls-83" d="M233.2,96.2c-3,0-6.1-.3-6.1-.9h.1c0,.4,2.4.8,6,.8s6-.4,6-.8h.1C239.3,95.9,236.2,96.2,233.2,96.2Z"/><path class="cls-59" d="M232.6,95.4h.2l.3-.2h2.2l.4.2a.1.1,0,0,1,.1.1h0l-.2.2h-5.5c.1-.1.1-.2.2-.2h.7c.1,0,.1,0,.1.1h-.3a.1.1,0,0,0-.1.1Zm-1.9.1h0Zm4.5-.1a.1.1,0,0,0-.1-.1h.1Z"/><path class="cls-84" d="M233.2,94.6c-2.7,0-5.5.3-6,.7a.1.1,0,0,0,.1.1c.3-.3,2.7-.7,5.9-.7s5.7.4,6,.7h0C238.8,94.9,236,94.6,233.2,94.6Z"/><path class="cls-85" d="M241.5,103.9v1.4c0,.4,2.7.8,6.1.8s6.1-.4,6.1-.8v-1.4Z"/><ellipse class="cls-86" cx="247.6" cy="103.9" rx="6.1" ry="0.8"/><path class="cls-87" d="M247.6,104.8c-3,0-6.1-.3-6.1-.8h.1c0,.4,2.4.8,6,.8s6-.4,6-.8h.1C253.7,104.5,250.6,104.8,247.6,104.8Z"/><path class="cls-59" d="M247,104h1.5c.2-.1.4,0,.6,0h.6l.4.2h.1a.2.2,0,0,1-.2.2l-.5.2h0c.1,0,.1,0,.1-.1h-5.1l.3-.2H247Zm-1.9.1a.1.1,0,0,1,.1.1h1.6a.1.1,0,0,1,.1-.1Zm4.6-.1h0Z"/><path class="cls-88" d="M247.6,103.2c-2.7,0-5.5.3-6,.7h.1c.3-.3,2.7-.6,5.9-.6s5.7.3,6,.6h0C253.2,103.5,250.4,103.2,247.6,103.2Z"/><path class="cls-89" d="M239.8,102.5v1.4c0,.4,2.7.8,6.1.8s6.1-.4,6.1-.8v-1.4Z"/><path class="cls-90" d="M252,102.5c0,.5-2.7.8-6.1.8s-6.1-.3-6.1-.8,2.7-.8,6.1-.8S252,102.1,252,102.5Z"/><path class="cls-91" d="M245.9,103.4c-3,0-6.1-.3-6.1-.9h.1c0,.4,2.5.8,6,.8s6-.4,6-.8h.1C252,103.1,248.9,103.4,245.9,103.4Z"/><path class="cls-59" d="M245.3,102.6h.2l.3-.2h2.6l.2.2h-.1l-.2.2H243a.2.2,0,0,1-.2-.2h0l.3-.2h.6c.1,0,.1,0,.1.1h1.5Zm-1.9.1h0Zm4.6-.1h0Z"/><path class="cls-92" d="M245.9,101.8c-2.7,0-5.5.3-6,.7h.1c.4-.3,2.7-.7,5.9-.7s5.7.4,6,.7h0C251.6,102.1,248.7,101.8,245.9,101.8Z"/><path class="cls-93" d="M241.3,101.1v1.4c0,.4,2.7.8,6.1.8s6.1-.4,6.1-.8v-1.4Z"/><ellipse class="cls-94" cx="247.4" cy="101.1" rx="6.1" ry="0.8"/><path class="cls-95" d="M247.4,102c-3,0-6.1-.3-6.1-.9h0c.1,0,0,.1,0,.1s2.5.8,6.1.8,6-.4,6-.8h.1C253.5,101.7,250.3,102,247.4,102Z"/><path class="cls-59" d="M246.8,101.2l.2-.2h2.8c.1.1.2.1.2.2h0c0,.1-.1.1-.2.2h-.5a.1.1,0,0,0,.1-.1h-2.1a.1.1,0,0,0-.1.1h-2.8c0-.1-.1-.1-.1-.2h2.5Zm-1.9,0h.1c0,.1.1.1.2.1h1.1c.1,0,.2,0,.2-.1h-1.6Zm4.5,0a.1.1,0,0,0-.1-.1h-1.7a.1.1,0,0,0-.1.1Z"/><path class="cls-96" d="M247.4,100.4c-2.7,0-5.6.3-6,.7h0c.4-.4,2.7-.7,6-.7s5.7.4,5.9.7.1,0,.1-.1S250.1,100.4,247.4,100.4Z"/><path class="cls-97" d="M242.2,99.7V101c0,.5,2.7.8,6.1.8s6-.3,6-.8V99.7Z"/><path class="cls-98" d="M254.3,99.7c0,.4-2.7.8-6,.8s-6.1-.4-6.1-.8,2.7-.8,6.1-.8S254.3,99.3,254.3,99.7Z"/><path class="cls-99" d="M248.3,100.5c-3,0-6.1-.2-6.1-.8h0c0,.3,2.5.7,6.1.7s6-.4,6-.7h0c.1,0,0,.1,0,.1S251.2,100.5,248.3,100.5Z"/><path class="cls-59" d="M247.7,99.7h3l.2.2h0l-.2.2h-.8c-.1,0-.1,0-.1-.1h-1.6c0,.1-.1.1-.2.2h-2.7c-.1-.1-.1-.1-.1-.2h.2l.4-.2h1.9Zm-1.9.1c0,.1,0,.1.1.1h1.5c.1,0,.1,0,.1-.1Zm4.5,0h-1.6c-.1,0-.2,0-.2.1h1.8Z"/><path class="cls-100" d="M248.3,99c-2.8,0-5.6.2-6,.7h0c.4-.3,2.7-.6,6-.6s5.6.3,5.9.7h.1C253.9,99.2,251,99,248.3,99Z"/><path class="cls-101" d="M241.5,98.2v1.3c0,.5,2.7.8,6.1.8s6.1-.3,6.1-.8V98.2Z"/><path class="cls-102" d="M253.7,98.2c0,.4-2.7.8-6.1.8s-6.1-.4-6.1-.8,2.7-.8,6.1-.8S253.7,97.7,253.7,98.2Z"/><path class="cls-103" d="M247.6,99c-3,0-6.1-.3-6.1-.8a.1.1,0,0,1,.1-.1h0c0,.3,2.4.7,6,.7s6-.4,6-.7,0-.1.1-.1h0C253.7,98.7,250.6,99,247.6,99Z"/><path class="cls-59" d="M247,98.2h3.1a.1.1,0,0,1,.1.1h0a.2.2,0,0,1-.2.2l-.5.2h0c.1,0,.1,0,.1-.1H245l-.3-.2h-.2l.3-.2h.4a.1.1,0,0,1-.1.1Zm-1.9.1h0Zm4.6-.1h-1.9a.1.1,0,0,1-.1.1Z"/><path class="cls-104" d="M247.6,97.5c-2.7,0-5.5.2-6,.7h.1c.3-.3,2.7-.6,5.9-.6s5.7.3,6,.6h0C253.2,97.7,250.4,97.5,247.6,97.5Z"/><path class="cls-105" d="M239.8,96.8v1.3c0,.4,2.7.8,6.1.8s6.1-.4,6.1-.8V96.8Z"/><path class="cls-106" d="M252,96.8c0,.4-2.7.7-6.1.7s-6.1-.3-6.1-.7,2.7-.8,6.1-.8S252,96.3,252,96.8Z"/><path class="cls-107" d="M245.9,97.6c-3,0-6.1-.3-6.1-.8h.1c0,.3,2.5.7,6,.7s6-.4,6-.7h.1C252,97.3,248.9,97.6,245.9,97.6Z"/><path class="cls-59" d="M245.3,96.8H248l.4.2h.1l-.2.2-.5.2h-5l.3-.2h2.2Zm-1.9.1h0Zm4.6-.1h0Z"/><path class="cls-108" d="M245.9,96c-2.7,0-5.5.3-6,.7h.1c.4-.3,2.7-.6,5.9-.6s5.7.3,6,.6h0C251.6,96.3,248.7,96,245.9,96Z"/><path class="cls-109" d="M241.3,95.3v1.4c0,.4,2.7.8,6.1.8s6.1-.4,6.1-.8V95.3Z"/><path class="cls-110" d="M253.5,95.3c0,.5-2.8.8-6.1.8s-6.1-.3-6.1-.8,2.7-.8,6.1-.8S253.5,94.9,253.5,95.3Z"/><path class="cls-111" d="M247.4,96.2c-3,0-6.1-.3-6.1-.9h0c0,.4,2.5.8,6.1.8s6-.4,6-.8h.1C253.5,95.9,250.3,96.2,247.4,96.2Z"/><path class="cls-59" d="M246.8,95.4h.2l.2-.2h2.3l.3.2h.2l-.2.2h-5.5a.2.2,0,0,1,.2-.2h.7a.1.1,0,0,1,.1.1H245a.1.1,0,0,0-.1.1Zm-1.9.1h0Zm4.5-.1a.1.1,0,0,0-.1-.1h.1Z"/><path class="cls-112" d="M247.4,94.6c-2.7,0-5.6.3-6,.7h0c.4-.3,2.7-.7,6-.7s5.7.4,5.9.7h.1C253,94.9,250.1,94.6,247.4,94.6Z"/><path class="cls-113" d="M241.5,93.6v1.3c0,.4,2.7.8,6.1.8s6.1-.4,6.1-.8V93.6Z"/><path class="cls-114" d="M253.7,93.6c0,.4-2.7.7-6.1.7s-6.1-.3-6.1-.7,2.7-.8,6.1-.8S253.7,93.1,253.7,93.6Z"/><path class="cls-115" d="M247.6,94.4c-3,0-6.1-.3-6.1-.8h.1c0,.3,2.4.7,6,.7s6-.4,6-.7h.1C253.7,94.1,250.6,94.4,247.6,94.4Z"/><path class="cls-59" d="M247,93.6h3.2l-.2.2-.5.2h-.2c.1,0,.2,0,.2-.1h-5l.3-.2H247Zm-1.9.1h0Zm4.6-.1h0Z"/><path class="cls-116" d="M247.6,92.9c-2.7,0-5.5.2-6,.7h.1c.3-.3,2.7-.6,5.9-.6s5.7.3,6,.6h0C253.2,93.1,250.4,92.9,247.6,92.9Z"/><path class="cls-117" d="M239.8,92.1v1.4c0,.4,2.7.8,6.1.8s6.1-.4,6.1-.8V92.1Z"/><path class="cls-118" d="M252,92.1c0,.5-2.7.8-6.1.8s-6.1-.3-6.1-.8,2.7-.7,6.1-.7S252,91.7,252,92.1Z"/><path class="cls-119" d="M245.9,93c-3,0-6.1-.3-6.1-.8s0-.1.1-.1h0c0,.4,2.5.8,6,.8s6-.4,6-.8h.1C252,92.7,248.9,93,245.9,93Z"/><path class="cls-59" d="M245.3,92.2H248l.4.2h.1c0,.1-.1.1-.2.2l-.5.2h-5l.3-.2h2.2Zm-1.9.1a.1.1,0,0,1,.1.1h1.6a.1.1,0,0,1,.1-.1Zm4.6-.1h-1.9a.1.1,0,0,1-.1.1Z"/><path class="cls-120" d="M245.9,91.4c-2.7,0-5.5.3-6,.7a.1.1,0,0,0,.1.1c.4-.3,2.7-.7,5.9-.7s5.7.4,6,.7h0C251.6,91.7,248.7,91.4,245.9,91.4Z"/><path class="cls-121" d="M241.3,90.7v1.4c0,.4,2.7.8,6.1.8s6.1-.4,6.1-.8V90.7Z"/><path class="cls-122" d="M253.5,90.7c0,.5-2.8.8-6.1.8s-6.1-.3-6.1-.8,2.7-.8,6.1-.8S253.5,90.3,253.5,90.7Z"/><path class="cls-123" d="M247.4,91.6c-3,0-6.1-.3-6.1-.9h0c0,.4,2.5.8,6.1.8s6-.4,6-.8h.1C253.5,91.3,250.3,91.6,247.4,91.6Z"/><path class="cls-124" d="M247.4,90c-2.7,0-5.6.3-6,.7h0c.4-.3,2.7-.7,6-.7s5.7.4,5.9.7h.1C253,90.3,250.1,90,247.4,90Z"/><path class="cls-125" d="M256.2,103.9v1.4c0,.4,2.7.8,6.1.8s6.1-.4,6.1-.8v-1.4Z"/><ellipse class="cls-126" cx="262.3" cy="103.9" rx="6.1" ry="0.8"/><path class="cls-127" d="M262.3,104.8c-3,0-6.1-.3-6.1-.8h0c0,.4,2.5.8,6.1.8s6-.4,6-.8h.1C268.4,104.5,265.3,104.8,262.3,104.8Z"/><path class="cls-59" d="M261.7,104h1.5c.2-.1.4,0,.6,0h.6l.3.2h.2a.2.2,0,0,1-.2.2l-.5.2h0c.1,0,.1,0,.1-.1h-5.1l.2-.2h.6a.1.1,0,0,1-.1.1h1.8Zm-1.9.1h0Zm4.5-.1h0Z"/><path class="cls-128" d="M262.3,103.2c-2.7,0-5.6.3-6,.7h0c.4-.3,2.7-.6,6-.6s5.7.3,5.9.6h.1C267.9,103.5,265,103.2,262.3,103.2Z"/><path class="cls-129" d="M254.5,102.5v1.4c0,.4,2.7.8,6.1.8s6.1-.4,6.1-.8v-1.4Z"/><path class="cls-130" d="M266.7,102.5c0,.5-2.8.8-6.1.8s-6.1-.3-6.1-.8,2.7-.8,6.1-.8S266.7,102.1,266.7,102.5Z"/><path class="cls-131" d="M260.6,103.4c-3,0-6.1-.3-6.1-.9h0c0,.4,2.5.8,6.1.8s6-.4,6-.8h.1C266.7,103.1,263.6,103.4,260.6,103.4Z"/><path class="cls-59" d="M260,102.6h.2l.3-.2h2.6v.2h.8c.1,0,.1,0,.1.1h-.9l-.2.2h-5.3a.2.2,0,0,1-.2-.2h0l.2-.2h.7c.1,0,.1,0,.1.1H260Zm-1.9.1h0Zm4.5-.1h0Z"/><path class="cls-132" d="M260.6,101.8c-2.7,0-5.6.3-6,.7h0c.4-.3,2.8-.7,6-.7s5.7.4,6,.7h0C266.2,102.1,263.3,101.8,260.6,101.8Z"/><path class="cls-133" d="M256,101.1v1.4c0,.4,2.7.8,6,.8s6.1-.4,6.1-.8v-1.4Z"/><ellipse class="cls-134" cx="262" cy="101.1" rx="6.1" ry="0.8"/><path class="cls-135" d="M262,102c-2.9,0-6.1-.3-6.1-.9h.1c0,.4,2.5.8,6,.8s6.1-.4,6.1-.8h0C268.1,101.7,265,102,262,102Z"/><path class="cls-59" d="M261.5,101.2c0-.1.1-.1.2-.2h2.8c.1.1.2.1.2.2h0l-.3.2h-5.3v-.2h2.5Zm-1.9,0h.1c0,.1.1.1.2.1h-.3Zm4.5,0h0Z"/><path class="cls-136" d="M262,100.4c-2.7,0-5.5.3-6,.7s.1,0,.1.1,2.7-.7,5.9-.7,5.7.4,6,.7h.1C267.7,100.7,264.8,100.4,262,100.4Z"/><path class="cls-137" d="M256.8,99.7V101c0,.5,2.8.8,6.1.8s6.1-.3,6.1-.8V99.7Z"/><path class="cls-138" d="M269,99.7c0,.4-2.7.8-6.1.8s-6.1-.4-6.1-.8,2.8-.8,6.1-.8S269,99.3,269,99.7Z"/><path class="cls-139" d="M262.9,100.5c-3,0-6.1-.2-6.1-.8a.1.1,0,0,1,.1-.1h0c0,.3,2.5.7,6,.7s6.1-.4,6.1-.7h0C269,100.3,265.9,100.5,262.9,100.5Z"/><path class="cls-59" d="M262.4,99.7a.1.1,0,0,0,.1-.1h2.9l.2.2h0l-.3.2h-2.4l-.2.2H260l-.2-.2h.3l.4-.2h1.9Zm-2,.1h1.7a.1.1,0,0,0,.1-.1Zm4.6,0h-1.7a.1.1,0,0,0-.1.1H265Z"/><path class="cls-140" d="M262.9,99c-2.7,0-5.5.2-6,.7h.1c.4-.3,2.7-.6,5.9-.6s5.7.3,6,.7h0C268.6,99.2,265.7,99,262.9,99Z"/><path class="cls-141" d="M256.2,98.2v1.3c0,.5,2.7.8,6.1.8s6.1-.3,6.1-.8V98.2Z"/><path class="cls-142" d="M268.4,98.2c0,.4-2.8.8-6.1.8s-6.1-.4-6.1-.8,2.7-.8,6.1-.8S268.4,97.7,268.4,98.2Z"/><path class="cls-143" d="M262.3,99c-3,0-6.1-.3-6.1-.8h0c.1,0,0,0,0,.1s2.5.7,6.1.7,6-.4,6-.7h0a.1.1,0,0,1,.1.1C268.4,98.7,265.3,99,262.3,99Z"/><path class="cls-59" d="M261.7,98.2h3.2a.2.2,0,0,1-.2.2l-.5.2h0c.1,0,.1,0,.1-.1h-2.1a.1.1,0,0,1-.1.1h-2.4l-.4-.2h-.1c0-.1.1-.1.2-.2h2.3Zm-1.9.1a.1.1,0,0,0,.1.1h-.1Zm4.5-.1h-1.8a.1.1,0,0,1-.1.1Z"/><path class="cls-144" d="M262.3,97.5c-2.7,0-5.6.2-6,.7h0c.4-.3,2.7-.6,6-.6s5.7.3,5.9.6h.1C267.9,97.7,265,97.5,262.3,97.5Z"/><path class="cls-145" d="M254.5,96.8v1.3c0,.4,2.7.8,6.1.8s6.1-.4,6.1-.8V96.8Z"/><path class="cls-146" d="M266.7,96.8c0,.4-2.8.7-6.1.7s-6.1-.3-6.1-.7,2.7-.8,6.1-.8S266.7,96.3,266.7,96.8Z"/><path class="cls-147" d="M260.6,97.6c-3,0-6.1-.3-6.1-.8h0c.1,0,0,0,0,.1s2.5.7,6.1.7,6-.4,6-.7h.1C266.7,97.3,263.6,97.6,260.6,97.6Z"/><path class="cls-148" d="M260.6,96c-2.7,0-5.6.3-6,.7h0c.4-.3,2.8-.6,6-.6s5.7.3,6,.6h0C266.2,96.3,263.3,96,260.6,96Z"/><path class="cls-149" d="M226.3,93.9v1.4c0,.4,2.8.8,6.1.8s6.1-.4,6.1-.8V93.9Z"/><ellipse class="cls-150" cx="232.4" cy="93.9" rx="6.1" ry="0.8"/><path class="cls-151" d="M232.4,94.8c-2.9,0-6.1-.3-6.1-.9h.1c0,.4,2.5.8,6,.8s6.1-.4,6.1-.8h0C238.5,94.5,235.4,94.8,232.4,94.8Z"/><path class="cls-59" d="M231.9,94l.2-.2h2.8l.2.2h0l-.3.2H234c-.1,0-.1,0-.1-.1h-4.4V94h.8c-.1,0-.1,0-.1.1h1.8ZM230,94h.1c0,.1.1.1.2.1H230Zm4.5,0h0Z"/><path class="cls-152" d="M232.4,93.2c-2.7,0-5.5.3-6,.7h.1c.4-.4,2.7-.7,5.9-.7s5.7.4,6,.7h.1C238.1,93.5,235.2,93.2,232.4,93.2Z"/><path class="cls-153" d="M227.3,92.1v1.4c0,.4,2.8.8,6.1.8s6.1-.4,6.1-.8V92.1Z"/><ellipse class="cls-154" cx="233.4" cy="92.1" rx="6.1" ry="0.8"/><path class="cls-155" d="M233.4,93c-3,0-6.1-.3-6.1-.9h.1c0,.4,2.5.8,6,.8s6.1-.4,6.1-.8h0C239.5,92.7,236.4,93,233.4,93Z"/><path class="cls-59" d="M232.9,92.2c0-.1.1-.1.1-.2h2.9c.1.1.2.1.2.2h0l-.3.2h-5.3l-.2-.2h2.6Zm-2,0h0Zm4.6,0a.1.1,0,0,0-.1-.1h.1Z"/><path class="cls-156" d="M233.4,91.4c-2.7,0-5.5.3-6,.7s.1,0,.1.1,2.7-.7,5.9-.7,5.7.4,6,.7h0C239.1,91.7,236.2,91.4,233.4,91.4Z"/><path class="cls-157" d="M225.6,90.7V92c0,.5,2.8.8,6.1.8s6.1-.3,6.1-.8V90.7Z"/><path class="cls-158" d="M237.8,90.7c0,.4-2.7.8-6.1.8s-6.1-.4-6.1-.8,2.8-.8,6.1-.8S237.8,90.3,237.8,90.7Z"/><path class="cls-159" d="M231.7,91.5c-2.9,0-6.1-.2-6.1-.8h.1c0,.3,2.5.7,6,.7s6.1-.4,6.1-.7h0C237.8,91.3,234.7,91.5,231.7,91.5Z"/><path class="cls-59" d="M231.2,90.7a.1.1,0,0,0,.1-.1h2.9l.2.2h0l-.3.2h-2.4l-.2.2h-2.7c-.1-.1-.1-.1-.1-.2h.2l.4-.2h1.9Zm-1.9.1c0,.1,0,.1.1.1h1.5a.1.1,0,0,0,.1-.1Zm4.5,0h-1.7a.1.1,0,0,0-.1.1h1.8Z"/><path class="cls-160" d="M231.7,90c-2.7,0-5.5.2-6,.7h.1c.4-.3,2.7-.6,5.9-.6s5.7.3,6,.7h0C237.4,90.2,234.5,90,231.7,90Z"/><path class="cls-161" d="M227.1,89.3v1.3c0,.5,2.7.8,6.1.8s6.1-.3,6.1-.8V89.3Z"/><ellipse class="cls-162" cx="233.2" cy="89.3" rx="6.1" ry="0.8"/><path class="cls-163" d="M233.2,90.1c-3,0-6.1-.3-6.1-.8h.1c0,.3,2.4.7,6,.7s6-.4,6-.7h.1C239.3,89.8,236.2,90.1,233.2,90.1Z"/><path class="cls-59" d="M232.6,89.3h3.1c.1,0,.1.1.1.2h-.2l-.5.2H233l-.3.2h-2.4l-.2-.2h0l.2-.2h2.3Zm-1.9.1h0Zm4.5,0c0-.1,0-.1-.1-.1h-1.3c0,.1-.1.1-.2.1h1.6Z"/><path class="cls-164" d="M233.2,88.6c-2.7,0-5.5.2-6,.7h.1c.3-.3,2.7-.6,5.9-.6s5.7.3,6,.7h0C238.8,88.8,236,88.6,233.2,88.6Z"/><path class="cls-165" d="M228,87.9v1.3c0,.5,2.7.8,6.1.8s6.1-.3,6.1-.8V87.9Z"/><path class="cls-166" d="M240.2,87.9c0,.4-2.8.8-6.1.8s-6.1-.4-6.1-.8,2.7-.8,6.1-.8S240.2,87.4,240.2,87.9Z"/><path class="cls-167" d="M234.1,88.7c-3,0-6.1-.3-6.1-.8h0c.1,0,0,0,0,.1s2.5.7,6.1.7,6-.4,6-.7h0c.1,0,.1,0,.1.1S237.1,88.7,234.1,88.7Z"/><path class="cls-59" d="M233.5,87.9h3.2a.2.2,0,0,1-.2.2l-.5.2h-4.5c-.1-.1-.3-.1-.3-.2H231l.2-.2h2.3Zm-1.9.1h1.2c.1,0,.2,0,.2-.1h-1.4Zm4.5-.1h-1.8a.1.1,0,0,1-.1.1Z"/><path class="cls-168" d="M234.1,87.2c-2.7,0-5.6.2-6,.7h0c.4-.3,2.8-.6,6-.6s5.7.3,6,.6h0C239.7,87.4,236.8,87.2,234.1,87.2Z"/><path class="cls-169" d="M227.3,86.3v1.4c0,.4,2.8.8,6.1.8s6.1-.4,6.1-.8V86.3Z"/><path class="cls-170" d="M239.5,86.3c0,.5-2.7.8-6.1.8s-6.1-.3-6.1-.8,2.8-.8,6.1-.8S239.5,85.9,239.5,86.3Z"/><path class="cls-171" d="M233.4,87.2c-3,0-6.1-.3-6.1-.9h.1c0,.4,2.5.8,6,.8s6.1-.4,6.1-.8h0C239.5,86.9,236.4,87.2,233.4,87.2Z"/><path class="cls-59" d="M232.9,86.4a.1.1,0,0,1,.1-.1l.3-.2h2.2l.4.2h.2l-.3.2h-5.4a.2.2,0,0,1,.2-.2h.6c.1,0,.1,0,.1.1h1.6Zm-2,.1h0Zm4.6-.1h0Z"/><path class="cls-172" d="M233.4,85.6c-2.7,0-5.5.3-6,.7a.1.1,0,0,1,.1.1c.4-.3,2.7-.7,5.9-.7s5.7.4,6,.7h0C239.1,85.9,236.2,85.6,233.4,85.6Z"/><path class="cls-173" d="M225.6,84.9v1.4c0,.4,2.8.8,6.1.8s6.1-.4,6.1-.8V84.9Z"/><path class="cls-174" d="M237.8,84.9c0,.5-2.7.8-6.1.8s-6.1-.3-6.1-.8,2.8-.8,6.1-.8S237.8,84.5,237.8,84.9Z"/><path class="cls-175" d="M231.7,85.8c-2.9,0-6.1-.3-6.1-.9h.1c0,.4,2.5.8,6,.8s6.1-.4,6.1-.8h0C237.8,85.5,234.7,85.8,231.7,85.8Z"/><path class="cls-59" d="M231.2,85c0-.1.1-.1.1-.2h2.9l.2.2h0l-.3.2h-.8c-.1,0-.1,0-.1-.1h-4.4V85h.8c-.1,0-.1,0-.1.1h1.8Zm-1.9,0h.1c0,.1.1.1.2.1h-.3Zm4.5,0h0Z"/><path class="cls-176" d="M231.7,84.2c-2.7,0-5.5.3-6,.7h.1c.4-.4,2.7-.7,5.9-.7s5.7.4,6,.7h0C237.4,84.5,234.5,84.2,231.7,84.2Z"/><path class="cls-177" d="M227.1,83.5v1.4c0,.4,2.7.7,6.1.7s6.1-.3,6.1-.7V83.5Z"/><path class="cls-178" d="M239.3,83.5c0,.4-2.7.8-6.1.8s-6.1-.4-6.1-.8,2.7-.8,6.1-.8S239.3,83.1,239.3,83.5Z"/><path class="cls-179" d="M233.2,84.3c-3,0-6.1-.2-6.1-.8h.1c0,.4,2.4.7,6,.7s6-.3,6-.7h.1C239.3,84.1,236.2,84.3,233.2,84.3Z"/><path class="cls-59" d="M232.6,83.5h3.1v.2h0l-.2.2h-.8a.1.1,0,0,0,.1-.1h-1.7l-.2.2h-2.7c-.1-.1-.2-.1-.2-.2h.2l.4-.2h1.9Zm-1.9.1a.1.1,0,0,0,.1.1h-.1Zm4.5,0h0Z"/><path class="cls-180" d="M233.2,82.8c-2.7,0-5.5.2-6,.7h.1c.3-.4,2.7-.7,5.9-.7s5.7.3,6,.7h0C238.8,83,236,82.8,233.2,82.8Z"/><path class="cls-181" d="M226.3,82.1v1.3c0,.5,2.8.8,6.1.8s6.1-.3,6.1-.8V82.1Z"/><ellipse class="cls-182" cx="232.4" cy="82.1" rx="6.1" ry="0.8"/><path class="cls-183" d="M232.4,82.9c-2.9,0-6.1-.3-6.1-.8h.1c0,.3,2.5.7,6,.7s6.1-.4,6.1-.7h0C238.5,82.6,235.4,82.9,232.4,82.9Z"/><path class="cls-184" d="M232.4,81.4c-2.7,0-5.5.2-6,.7h.1c.4-.3,2.7-.6,5.9-.6s5.7.3,6,.7,0-.1.1-.1S235.2,81.4,232.4,81.4Z"/><path class="cls-14" d="M198.8,88.9h0l-5.4,3.2a6.3,6.3,0,0,1,4.1.7,2.9,2.9,0,0,1,1.4,1.6h0v.2l2-1.2h.3L198.8,95v.2l5.3-3.1h-.2a.1.1,0,0,1-.1-.1h0v-.2h.1a.1.1,0,0,1,.1-.1h.1l-3.5-2h-1.9Zm2.1,2h.3c.1.2,0,.5-.4.7a2.3,2.3,0,0,1-2,0l-.3-.2h-.1c-.1,0-.1-.1-.1-.2h0l.2-.3h2.2a.1.1,0,0,1,.1.1Z"/><polygon class="cls-14" points="192.7 92 192.7 92 199.7 88 201.1 88.8 205.8 91.5 205.8 91.5 204.4 92.3 204.4 92.3 198.8 95.6 199.4 95.9 207 91.5 199.7 87.3 192.1 91.7 192.7 92"/><polygon class="cls-24" points="199.4 95.9 199.4 98.2 207 93.8 207 91.5 199.4 95.9"/><polygon class="cls-16" points="199.4 95.9 199.1 96.1 199.1 98.4 199.4 98.2 199.4 95.9"/><polygon class="cls-17" points="199.1 96.1 199.4 95.9 198.8 95.6 198.8 95.6 192.7 92 192.1 91.7 191.8 91.9 199.1 96.1"/><polygon class="cls-18" points="199.1 96.1 197.7 96.9 197.7 99.2 199.1 98.4 199.1 96.1"/><polygon class="cls-19" points="197.7 96.9 199.1 96.1 191.8 91.9 190.4 92.7 197.7 96.9"/><polygon class="cls-17" points="190.6 93.2 190.6 93.2 196.8 96.8 196.8 96.8 197.4 97.1 197.7 96.9 190.4 92.7 190.1 92.9 190.6 93.2"/><polygon class="cls-16" points="197.7 96.9 197.4 97.1 197.4 99.4 197.7 99.2 197.7 96.9"/><path class="cls-14" d="M195.7,96.8l-2.3,1.3h-.3l2.1-1.2h-1.6A4.4,4.4,0,0,1,192,96a2.3,2.3,0,0,1-1.3-1.5.4.4,0,0,1-.1-.3h0v-.2h0l-1.1.7-4.2,2.4h-.1l3.5,2a2.5,2.5,0,0,1,1.5,0h.4l5.4-3.2h-.4Zm-7.3.1h.3l.7-.2h1.3c.1.1.2.1.2.2h.1c.1.1.1.1.1.2h.1a.6.6,0,0,1-.5.6,1.8,1.8,0,0,1-2,0A.6.6,0,0,1,188.4,96.9Z"/><path class="cls-20" d="M196.8,96.8l-6.2-3.6h0l-5.5,3.3-1.4.8,1.3.8,3.4,1.9,1.4.8,7-4Zm-.7-.1-5.4,3.2h-.4a2.5,2.5,0,0,0-1.5,0l-3.5-2h.1l4.2-2.4,1.1-.7h0v.2h0a.4.4,0,0,0,.1.3A2.3,2.3,0,0,0,192,96a4.4,4.4,0,0,0,1.6.6h1.6L193.1,98h.3l2.3-1.3h.4Z"/><polygon class="cls-14" points="189.8 101.5 197.4 97.1 196.8 96.8 196.8 96.8 196.8 96.8 189.8 100.8 189.8 100.8 188.4 100 188.4 100 185 98.1 185 98.1 183.7 97.3 183.7 97.3 185.1 96.5 190.6 93.2 190.6 93.2 190.1 92.9 182.5 97.3 189.8 101.5"/><polygon class="cls-24" points="197.4 97.1 189.8 101.5 189.8 103.8 197.4 99.4 197.4 97.1"/><polygon class="cls-21" points="189.8 101.5 182.5 97.3 182.5 99.5 189.8 103.8 189.8 101.5"/><path class="cls-20" d="M188.7,97.9a1.8,1.8,0,0,0,2,0,.6.6,0,0,0,.5-.6h-.1c0-.1,0-.1-.1-.2h-.1c0-.1-.1-.1-.2-.2h-1.3l-.7.2h-.3A.6.6,0,0,0,188.7,97.9Z"/><path class="cls-20" d="M200.9,90.9h-.1a.1.1,0,0,0-.1-.1h-2.2l-.2.3h0c0,.1,0,.2.1.2h.1l.3.2a2.3,2.3,0,0,0,2,0c.4-.2.5-.5.4-.7h-.3Z"/><path class="cls-20" d="M198.8,95.6l5.6-3.3,1.4-.8-4.7-2.7-1.4-.8-7,4Zm0-6.7h1.9l3.5,2h-.1a.1.1,0,0,0-.1.1h-.1v.2h0a.1.1,0,0,0,.1.1h.2l-5.3,3.1V95l2.4-1.4h-.3l-2,1.2h0v-.2h0a2.9,2.9,0,0,0-1.4-1.6,6.3,6.3,0,0,0-4.1-.7h0Z"/><path class="cls-14" d="M197.2,86.1h0l-5.4,3.1a7.4,7.4,0,0,1,4.1.8,2.2,2.2,0,0,1,1.3,1.6h0l2.1-1.2h.2a.1.1,0,0,1,.1.1h-.1l-2.3,1.3c0,.1,0,.2-.1.2l5.4-3h-.1a.1.1,0,0,0-.1-.1h-.1v-.2h.1c.1,0,.1,0,.1-.1h.1l-3.5-2h-1.8Zm2.1,2h.2a.1.1,0,0,0,.1.1h0c.1.3-.1.5-.4.7a2,2,0,0,1-2.1,0,.2.2,0,0,1-.2-.2h-.1a.4.4,0,0,1-.1-.3h0l.2-.3h.7c0-.1,0-.1.1-.1h1c0,.1,0,.1.1.1h.5Z"/><polygon class="cls-14" points="191.1 89.2 191.1 89.2 198.1 85.2 199.5 86 204.2 88.7 204.2 88.7 202.8 89.5 202.8 89.5 197.2 92.7 197.8 93.1 205.4 88.7 198.1 84.5 190.5 88.9 191.1 89.2"/><polygon class="cls-24" points="197.8 93.1 197.8 95.3 205.4 90.9 205.4 88.7 197.8 93.1"/><polygon class="cls-16" points="197.8 93.1 197.5 93.3 197.5 95.5 197.8 95.3 197.8 93.1"/><polygon class="cls-17" points="197.5 93.3 197.8 93.1 197.2 92.7 197.2 92.7 191.1 89.2 190.5 88.9 190.2 89.1 197.5 93.3"/><polygon class="cls-18" points="197.5 93.3 196.1 94.1 196.1 96.3 197.5 95.5 197.5 93.3"/><polygon class="cls-19" points="196.1 94.1 197.5 93.3 190.2 89.1 188.8 89.9 196.1 94.1"/><polygon class="cls-17" points="189 90.4 189 90.4 195.2 93.9 195.2 93.9 195.7 94.3 196.1 94.1 188.8 89.9 188.4 90.1 189 90.4"/><polygon class="cls-16" points="196.1 94.1 195.7 94.3 195.7 96.5 196.1 96.3 196.1 94.1"/><path class="cls-14" d="M194.1,93.9l-2.3,1.4h-.3l2.1-1.2h-1.7l-1.5-.6a3,3,0,0,1-1.4-1.6v-.2h.1l-1.2.7-4.1,2.4h.1a.1.1,0,0,0-.1.1h-.1l3.5,2a2.7,2.7,0,0,1,1.5-.1h.4l5.4-3.1h-.4Zm-7.3.2h.2l.8-.2H189a.1.1,0,0,0,.1.1h.3c.1,0,.1.1.1.2h0a.7.7,0,0,1-.4.6,2.6,2.6,0,0,1-2.1,0C186.6,94.8,186.5,94.4,186.8,94.1Z"/><path class="cls-20" d="M195.2,93.9,189,90.4h0l-5.6,3.2-1.4.9,1.4.7,3.4,2,1.4.8,6.9-4Zm-.7,0L189.1,97h-.4a2.7,2.7,0,0,0-1.5.1l-3.5-2h.1a.1.1,0,0,1,.1-.1h-.1l4.1-2.4,1.2-.7H189v.2a3,3,0,0,0,1.4,1.6l1.5.6h1.7l-2.1,1.2h.3l2.3-1.4h.4Z"/><polygon class="cls-14" points="188.2 98.7 195.7 94.3 195.2 93.9 195.2 93.9 195.1 94 188.2 98 188.2 98 186.8 97.2 186.8 97.2 183.4 95.2 183.4 95.2 182 94.5 182 94.5 183.4 93.6 189 90.4 189 90.4 188.4 90.1 180.9 94.5 188.2 98.7"/><polygon class="cls-24" points="195.7 94.3 188.2 98.7 188.2 100.9 195.7 96.5 195.7 94.3"/><polygon class="cls-23" points="188.2 98.7 180.9 94.5 180.9 96.7 188.2 100.9 188.2 98.7"/><path class="cls-20" d="M187,95.1a2.6,2.6,0,0,0,2.1,0,.7.7,0,0,0,.4-.6h0c0-.1,0-.2-.1-.2h-.3a.1.1,0,0,1-.1-.1h-1.2l-.8.2h-.2C186.5,94.4,186.6,94.8,187,95.1Z"/><path class="cls-20" d="M199.3,88.1h-.5c-.1,0-.1,0-.1-.1h-1c-.1,0-.1,0-.1.1H197a.1.1,0,0,1-.1.1h0l-.2.3h0a.4.4,0,0,0,.1.3h.1a.2.2,0,0,0,.2.2,2,2,0,0,0,2.1,0c.3-.2.5-.4.4-.7h0a.1.1,0,0,1-.1-.1h-.2Z"/><path class="cls-20" d="M197.2,92.7l5.6-3.2,1.4-.8L199.5,86l-1.4-.9-7,4.1Zm0-6.6H199l3.5,2h-.1c0,.1,0,.1-.1.1h-.1v.2h.1a.1.1,0,0,1,.1.1h.1l-5.4,3c.1,0,.1-.1.1-.2l2.3-1.3h.1a.1.1,0,0,0-.1-.1h-.2l-2.1,1.2h0a2.2,2.2,0,0,0-1.3-1.6,7.4,7.4,0,0,0-4.1-.8h0Z"/><path class="cls-20" d="M196.5,89.8h0c0,.1,0,.1.1.1h1.5l.4-.2h0c0-.1.1-.1.1-.2a1.1,1.1,0,0,0,0-.8,3,3,0,0,0-.8-.8,2,2,0,0,0-1.1-.2h-.6c0,.1,0,.1-.1.1h-.1a1.4,1.4,0,0,0,.2.6h.2c0,.1,0,.1.1.1h.1Z"/><path class="cls-20" d="M203.2,93.1l-3-6.2h0l-.8-1.5h-.1l-1.5.2h0l-4.1.5h-.3l-1.4.2,3.8,7.6,1.5-.2Zm-6.8-.3h0c0,.1,0,.1-.1.2h0l-1.1-2.2H195a.1.1,0,0,0-.1.1h0l1.3,2.5h-.1l-3-5.9h.6v-.5h0L198,86h.3l.3.2h1.1l2.9,5.9h0l-.2-.2h-.6l-.3-.2h-.7a.1.1,0,0,0-.1-.1h-2.9a.1.1,0,0,0-.1.1h-.5c-.1,0-.1,0-.1.1h-.7Z"/><path class="cls-14" d="M196.5,92.7h.6c0-.1,0-.1.1-.1h.5a.1.1,0,0,1,.1-.1h2.9a.1.1,0,0,1,.1.1h.7l.3.2h.6l.2.2h0l-2.9-5.9h-1.1l-.3-.2H198l-4.2.6h0v.5h0l-.2.3h-.4l3,5.9h.1l-1.3-2.5h0a.1.1,0,0,1,.1-.1h.2l1.1,2.2h0c.1-.1.1-.1.1-.2h.1Zm0-2.9h-.1c-.1,0-.1,0-.1-.1h-.2a1.4,1.4,0,0,1-.2-.6h.1c.1,0,.1,0,.1-.1h.6a2,2,0,0,1,1.1.2,3,3,0,0,1,.8.8,1.1,1.1,0,0,1,0,.8c0,.1-.1.1-.1.2h0l-.4.2h-1.5c-.1,0-.1,0-.1-.1Z"/><polygon class="cls-14" points="195.8 94 192 86.4 193.4 86.2 193.7 86.1 197.8 85.6 199.3 85.4 199.4 85.4 199.4 85.4 200.2 86.9 203.2 93.1 204 93 199.8 84.7 190.9 85.8 195.1 94.1 195.8 94"/><polygon class="cls-23" points="190.9 85.8 190 87.5 194.2 95.8 195.1 94.1 190.9 85.8"/><polygon class="cls-17" points="203.2 93.1 197.3 93.8 195.8 94 195.1 94.1 195.3 94.5 204.2 93.3 204 93 203.2 93.1 203.2 93.1"/><polygon class="cls-19" points="196.1 96 204.9 94.9 204.2 93.3 195.3 94.5 196.1 96"/><polygon class="cls-18" points="195.3 94.5 194.4 96.2 195.1 97.7 196.1 96 195.3 94.5"/><polygon class="cls-16" points="196.1 96 195.1 97.7 195.3 98.1 196.2 96.4 196.1 96"/><polygon class="cls-17" points="196.2 96.4 197 96.3 197 96.3 201.7 95.7 204.4 95.3 205.1 95.2 204.9 94.9 196.1 96 196.2 96.4"/><path class="cls-20" d="M201.6,100.4h.2a.1.1,0,0,0,.1.1h.1c0,.1,0,.1.1.1h1.7l.2-.2h.2a1.1,1.1,0,0,0,0-.8,2.7,2.7,0,0,0-.8-.7,1.5,1.5,0,0,0-.9-.2h-1A1.3,1.3,0,0,0,201.6,100.4Z"/><path class="cls-20" d="M197,96.3l3,6.1.8,1.5,5.7-.7,1.7-.2-3.8-7.6h0l-2.7.4-4.7.6Zm.9.5,1.3,2.5c0,.1,0,.1.1.1h.2L198.3,97a5.5,5.5,0,0,0,3.3.7h1.2a.1.1,0,0,1,.1-.1h.6c0-.1,0-.1.1-.1h.3c.1-.2.1-.4.2-.6h0l3,5.9-.4.2h0l-.2.3h0a.4.4,0,0,0-.1.3h0v.3h0l-4.2.5h-.4c-.1,0-.1,0-.1-.1h-1.2l-2.9-5.8Z"/><path class="cls-14" d="M200.6,102.4h1.1c0,.1,0,.1.1.1h.4l4.2-.5h0v-.3h0a.4.4,0,0,1,.1-.3h.2l.4-.2-3-5.9h0c-.1.2-.1.4-.2.6h-.1l-.7.6h-1.5a5.5,5.5,0,0,1-3.3-.7l1.2,2.3h-.2c-.1,0-.1,0-.1-.1l-1.3-2.5-.3-.2,2.9,5.8Zm.9-2.6h1a1.5,1.5,0,0,1,.9.2,2.7,2.7,0,0,1,.8.7,1.1,1.1,0,0,1,0,.8H204l-.2.2h-1.7c-.1,0-.1,0-.1-.1h-.1a.1.1,0,0,1-.1-.1h-.2a1.3,1.3,0,0,1-.1-.6Z"/><polygon class="cls-24" points="200.4 104.7 199.5 106.4 208.4 105.3 209.3 103.5 200.4 104.7"/><polygon class="cls-14" points="204.4 95.4 208.2 103 206.5 103.2 200.8 103.9 200 102.4 197 96.3 197 96.3 197 96.3 196.2 96.4 200.4 104.7 209.3 103.5 205.1 95.2 204.4 95.3 204.4 95.4"/><polygon class="cls-23" points="196.2 96.4 195.3 98.1 199.5 106.4 200.4 104.7 196.2 96.4"/><polygon class="cls-16" points="195.1 94.1 194.2 95.8 194.4 96.2 195.3 94.5 195.1 94.1"/><path class="cls-8" d="M222.1,83.2l2.5-6.9h-2.9c0-.2,0-.3.1-.4l.6-2c.2-.9.5-1.8.7-2.7l.6-2.1a5.6,5.6,0,0,0,.4-1.2c0-.1,0-.1.1-.1h4.3l-3.9,6.5h3.3l-5.8,8.8Z"/><path class="cls-8" d="M222.3,79.9l-.4,1.2a7.1,7.1,0,0,1-4.1-7.5,6,6,0,0,1,5.1-4.8l-.3,1a.6.6,0,0,0-.1.4h-.1a4.5,4.5,0,0,0-1.9,1.1,4.8,4.8,0,0,0-1.4,2.5,5.4,5.4,0,0,0,0,1.8,6,6,0,0,0,.8,2.1,8.6,8.6,0,0,0,1.3,1.4Z"/><path class="cls-8" d="M227.4,71.5l.7-1.1a6.8,6.8,0,0,1,2.3,7.2,5.8,5.8,0,0,1-6.1,4.1c0-.1.1-.2.1-.3l.7-1h.1a3.4,3.4,0,0,0,1.7-.5,3.7,3.7,0,0,0,1.5-1.3,3.8,3.8,0,0,0,.8-1.7,4.5,4.5,0,0,0,.1-2,5,5,0,0,0-.9-2.3l-.5-.5A1.2,1.2,0,0,0,227.4,71.5Z"/></g></g></svg>