<svg width="110" height="75" viewBox="0 0 110 75" fill="none" xmlns="http://www.w3.org/2000/svg">
<path d="M12.223 72.0641C3.0048 71.7343 -0.829796 57.4296 0.148564 50.1643C0.831761 45.0909 3.29673 40.5361 4.85219 35.7162C6.69145 30.0168 5.88174 24.6309 5.74536 18.765C5.55932 10.7626 12.1326 5.03348 19.1128 2.47443C26.345 -0.17688 37.0547 -0.695213 42.7934 5.24133C46.6994 9.28217 49.3195 14.2273 53.679 17.8678C60.2225 23.3321 68.6979 26.3492 77.0945 27.4024C83.7887 28.242 90.5796 29.0817 96.5534 32.5665C104.135 36.9891 108.839 44.4806 109.274 53.1478C109.58 59.2314 103.547 67.5599 99.9185 72.1533C99.1295 73.152 100.326 72.1502 12.223 72.0641Z" fill="#DBEBFF"/>
<path d="M29.7768 -4.86374e-05C29.1317 0.00290585 28.4865 0.027338 27.845 0.0724545C27.6024 1.76598 26.8264 3.39666 25.5211 4.6913C22.3307 7.85469 17.1636 7.8331 13.9998 4.64356C13.9382 4.58163 13.8774 4.51753 13.818 4.45298C13.254 4.77187 12.6993 5.10644 12.1543 5.45578C12.3093 5.63818 12.4734 5.81581 12.6446 5.98775C16.5476 9.92438 22.9275 9.95245 26.865 6.04752C28.5652 4.36127 29.5367 2.2134 29.7768 -4.86374e-05Z" fill="white"/>
<path d="M53.9024 10.4898C54.5151 12.3964 55.7253 14.074 57.0677 15.5698C61.3227 20.3105 67.1257 23.5008 73.2863 24.9969C77.9711 26.1346 87.5003 27.7075 91.0802 23.3581C96.2302 17.1008 82.8836 13.5276 79.2423 12.1129C76.2714 10.9584 74.132 8.74229 72.3462 6.16382C70.0379 2.83098 66.0171 -0.128311 61.7232 0.00431252C56.7342 0.158413 52.4309 5.02352 53.7723 10.0477C53.8121 10.1965 53.8555 10.3439 53.9024 10.4898Z" fill="#DBEBFF"/>
<path d="M67.2267 16.0456C66.578 16.0456 65.9825 15.8048 65.5284 15.4078C64.9844 14.9318 64.6388 14.2333 64.6388 13.456C64.6388 13.0626 64.7271 12.6877 64.887 12.3531C65.3006 11.4765 66.1938 10.8681 67.2267 10.8681C68.6548 10.8681 69.8164 12.0297 69.8164 13.456C69.8164 14.8839 68.6548 16.0456 67.2267 16.0456ZM67.2267 10.6843C66.2177 10.6843 65.3318 11.2283 64.8484 12.037C64.5985 12.4524 64.4551 12.9376 64.4551 13.456C64.4551 14.3859 64.9165 15.2111 65.6204 15.7148C66.0744 16.0382 66.6275 16.2294 67.2267 16.2294C68.7559 16.2294 70.0001 14.9851 70.0001 13.456C70.0001 11.9286 68.7559 10.6843 67.2267 10.6843Z" fill="white"/>
<path d="M80.6086 16.0953C80.6086 16.0953 80.937 12.7708 80.1338 10.8655C79.3306 8.96013 78.6786 8.50339 77.665 8.48612C76.6515 8.46884 76.3371 10.2001 76.8026 11.2269C77.2679 12.2535 78.2517 13.8976 80.6086 16.0953Z" fill="#F0D19A"/>
<path d="M79.0614 16.9722C79.0614 16.9722 78.1073 13.7965 76.6475 12.3921C75.1877 10.9877 74.4147 10.8438 73.4748 11.253C72.5351 11.6623 72.9001 13.3762 73.7166 14.1194C74.5333 14.8625 76.0604 15.9523 79.0614 16.9722Z" fill="#F0D19A"/>
<path d="M78.9432 18.3015C78.9432 18.3015 77.3057 17.2777 76.1087 17.2612C74.9118 17.2446 74.5052 17.5049 74.2319 18.0835C73.9588 18.6621 74.7743 19.2776 75.4278 19.2678C76.0812 19.2581 77.1898 19.1051 78.9432 18.3015Z" fill="#F0D19A"/>
<path d="M83.3396 13.7556C83.3396 13.7556 85.3221 11.6139 87.0272 11.0944C88.7325 10.5749 89.4047 10.7785 89.9976 11.4923C90.5903 12.2061 89.6399 13.4237 88.7025 13.6804C87.7649 13.9372 86.1268 14.1779 83.3396 13.7556Z" fill="#94C5FF"/>
<path d="M83.9666 11.3416C83.9666 11.3416 84.086 8.36493 85.0305 6.77835C85.975 5.19165 86.6073 4.86674 87.5049 4.97357C88.4027 5.08039 88.4669 6.64788 87.9292 7.49897C87.3915 8.35005 86.3197 9.684 83.9666 11.3416Z" fill="#94C5FF"/>
<path d="M81.6064 16.7428C81.6064 16.7428 84.3598 15.0622 86.3454 15.0472C88.331 15.0323 88.9959 15.4683 89.4274 16.4306C89.8592 17.393 88.4842 18.4052 87.4007 18.3821C86.3173 18.3591 84.4846 18.0938 81.6064 16.7428Z" fill="#94C5FF"/>
<path d="M81.4802 18.583C81.4802 18.583 84.6316 18.1903 86.4519 19.0092C88.2721 19.8282 88.7149 20.5084 88.7456 21.5756C88.7764 22.6427 87.1372 22.9982 86.1558 22.5226C85.1746 22.0469 83.5999 21.0341 81.4802 18.583Z" fill="#94C5FF"/>
<path d="M80.3738 19.2425C80.3738 19.2425 81.9364 20.3879 82.4428 21.526C82.9492 22.664 82.8903 23.16 82.4998 23.6591C82.1095 24.1582 81.2395 23.6313 80.9793 23.0022C80.7193 22.3731 80.3965 21.2499 80.3738 19.2425Z" fill="#94C5FF"/>
<path d="M82.4915 13.2096C82.4915 13.2096 83.5372 10.4329 83.2878 8.58848C83.0383 6.74392 82.585 6.18457 81.7212 5.91103C80.8572 5.63749 80.19 7.04701 80.3524 8.04924C80.5147 9.05147 80.979 10.7173 82.4915 13.2096Z" fill="#94C5FF"/>
<path d="M84.7751 10.4512C84.6607 10.6353 84.5465 10.8195 84.4323 11.0054C83.8317 11.9752 83.2348 12.9464 82.6472 13.9224C82.5691 14.0519 82.4909 14.1814 82.4147 14.3127C81.9362 15.1084 81.4654 15.9092 81.0075 16.7163C80.9573 16.8042 80.9072 16.8923 80.8568 16.9804C80.6418 17.3604 80.4285 17.7422 80.2191 18.1256C80.1963 18.1649 80.1738 18.206 80.153 18.2471C80.1479 18.2529 80.1447 18.2584 80.1416 18.2658C80.1224 18.3014 80.1012 18.3388 80.082 18.3762C80.0561 18.421 80.0303 18.4679 80.0062 18.5146C79.9981 18.5276 79.9919 18.5425 79.9837 18.5557C79.7519 18.9838 79.5237 19.4134 79.2993 19.8464C79.224 19.992 79.1471 20.1395 79.0718 20.2867L79.0454 19.8792L78.9771 19.8836C79.0027 19.8332 79.0301 19.7827 79.0557 19.7324C79.2816 19.2956 79.5113 18.8623 79.7465 18.4305C79.7496 18.423 79.7529 18.4174 79.7578 18.4098C79.7996 18.3314 79.8414 18.253 79.8851 18.1761C79.893 18.1594 79.9027 18.1425 79.9126 18.1275C80.1542 17.6825 80.4012 17.239 80.6522 16.7989C80.7232 16.6698 80.7976 16.5406 80.8723 16.4131C81.3564 15.5646 81.8518 14.7244 82.3546 13.8873C82.4425 13.741 82.5304 13.5946 82.62 13.448C83.0661 12.7084 83.5177 11.9721 83.9714 11.2374C84.1705 10.9161 84.3678 10.5948 84.567 10.2753C84.6618 10.1231 84.8698 10.3006 84.7751 10.4512Z" fill="#94C5FF"/>
<path d="M82.3782 12.4969C82.3093 12.9271 82.3941 13.3595 82.3333 13.7895C82.3078 13.9695 82.572 14.014 82.5975 13.8339C82.6583 13.4035 82.5737 12.9707 82.6425 12.5413C82.6712 12.3617 82.407 12.3173 82.3782 12.4969Z" fill="#94C5FF"/>
<path d="M83.9715 13.3819C83.433 13.6014 82.8947 13.821 82.3565 14.0407C82.1952 14.1065 82.2898 14.3697 82.4513 14.3038C82.9896 14.0841 83.5279 13.8645 84.0664 13.645C84.2276 13.5792 84.133 13.316 83.9715 13.3819Z" fill="#94C5FF"/>
<path d="M81.9874 16.4713C81.6797 16.6229 81.2376 16.7657 80.8973 16.7019C80.7274 16.6699 80.6833 16.9487 80.8527 16.9806C81.2372 17.0528 81.7337 16.9062 82.0823 16.7344C82.2381 16.6575 82.1443 16.3939 81.9874 16.4713Z" fill="#F0D19A"/>
<path d="M80.3055 15.558C80.3488 15.7632 80.4272 15.9582 80.4965 16.1543C80.5377 16.2713 80.7017 16.6431 80.6654 16.7195C80.5877 16.8828 80.8324 16.996 80.9097 16.8332C80.9869 16.6709 80.8724 16.4208 80.822 16.2691C80.7414 16.0252 80.6258 15.7824 80.5724 15.5294C80.5356 15.3545 80.2684 15.3814 80.3055 15.558Z" fill="#F0D19A"/>
<path d="M82.0999 18.7163C81.7772 18.5631 81.4479 18.4101 81.1056 18.3109C80.7938 18.2207 80.4554 18.2275 80.1535 18.1019C79.9938 18.0355 79.883 18.2935 80.0434 18.3603C80.3134 18.4726 80.6056 18.4886 80.8885 18.5475C81.2704 18.627 81.637 18.8071 81.9896 18.9746C82.1466 19.0492 82.2567 18.7909 82.0999 18.7163Z" fill="#F0D19A"/>
<path d="M78.5736 16.649C78.8483 16.8783 79.027 17.2237 79.2267 17.5223C79.4298 17.8257 79.6106 18.1441 79.7887 18.4646C79.8753 18.6204 80.0913 18.4512 80.005 18.2961C79.6608 17.6766 79.2842 16.8803 78.7421 16.428C78.6076 16.3157 78.4385 16.5363 78.5736 16.649Z" fill="#F0D19A"/>
<path d="M80.6981 19.4955C80.5189 19.0646 80.3033 18.6527 80.1402 18.214C80.0776 18.0456 79.8268 18.1473 79.8897 18.3163C80.0527 18.7548 80.2683 19.1668 80.4475 19.5976C80.5162 19.763 80.7672 19.6617 80.6981 19.4955Z" fill="#F0D19A"/>
<path d="M78.4697 18.4091C78.7172 18.3062 79.0264 18.3367 79.2835 18.3623C79.5358 18.3875 79.8073 18.4198 80.0404 18.5291C80.1977 18.6029 80.3077 18.3446 80.1505 18.2708C79.8734 18.1409 79.5499 18.1007 79.2501 18.0765C78.9659 18.0536 78.6466 18.033 78.375 18.1462C78.2141 18.2131 78.3087 18.4763 78.4697 18.4091Z" fill="#F0D19A"/>
<path d="M19.6895 14.4346C19.6895 14.4346 18.0697 12.0071 17.9623 10.2278C17.855 8.44854 18.2098 7.84225 19.0422 7.43245C19.8747 7.02253 20.837 8.2308 20.8678 9.20235C20.8987 10.1739 20.7505 11.8227 19.6895 14.4346Z" fill="#94C5FF"/>
<path d="M17.4886 13.2619C17.4886 13.2619 14.622 12.4512 13.2994 11.1626C11.9769 9.87394 11.8085 9.18333 12.1218 8.33532C12.4351 7.48742 13.9743 7.79062 14.6765 8.51203C15.3786 9.23345 16.4257 10.5868 17.4886 13.2619Z" fill="#94C5FF"/>
<path d="M22.1902 16.8171C22.1902 16.8171 21.1983 13.7476 21.6471 11.8133C22.0959 9.87894 22.6749 9.33412 23.7114 9.139C24.7479 8.94375 25.4113 10.517 25.1361 11.5651C24.8608 12.6132 24.1754 14.3336 22.1902 16.8171Z" fill="#94C5FF"/>
<path d="M23.9504 17.369C23.9504 17.369 24.3036 14.2129 25.5248 12.634C26.7457 11.0549 27.5105 10.7832 28.5554 11.0023C29.6004 11.2214 29.5634 12.8983 28.872 13.7415C28.1806 14.5848 26.8284 15.8797 23.9504 17.369Z" fill="#94C5FF"/>
<path d="M24.333 18.5987C24.333 18.5987 25.8114 17.3465 27.0361 17.1196C28.261 16.8927 28.7296 17.0658 29.1238 17.5618C29.518 18.058 28.8026 18.781 28.1302 18.8871C27.4578 18.9933 26.2903 19.0451 24.333 18.5987Z" fill="#94C5FF"/>
<path d="M18.9609 15.1319C18.9609 15.1319 16.5049 13.4671 14.6531 13.2794C12.8013 13.0916 12.1515 13.4019 11.684 14.1782C11.2165 14.9544 12.4315 15.9321 13.4439 16.0081C14.4564 16.084 16.1843 16.0211 18.9609 15.1319Z" fill="#94C5FF"/>
<path d="M21.3276 17.6363C21.3276 17.6363 18.1716 16.5412 16.1315 16.8777C14.0912 17.2142 13.495 17.7417 13.2417 18.7233C12.9884 19.7049 14.5986 20.4143 15.7055 20.2014C16.8126 19.9884 18.6407 19.4153 21.3276 17.6363Z" fill="#94C5FF"/>
<path d="M21.8193 19.3453C21.8193 19.3453 18.5085 19.532 16.8022 20.6239C15.0961 21.7157 14.7758 22.4338 14.9545 23.4432C15.1331 24.4526 16.8849 24.4976 17.7981 23.8769C18.7112 23.2561 20.1273 22.0254 21.8193 19.3453Z" fill="#94C5FF"/>
<path d="M23.0846 19.7703C23.0846 19.7703 21.707 21.1237 21.4116 22.2838C21.1162 23.4438 21.2744 23.9 21.7733 24.3006C22.2722 24.7012 23.061 24.0518 23.204 23.4142C23.3468 22.7764 23.4568 21.6628 23.0846 19.7703Z" fill="#94C5FF"/>
<path d="M16.8113 12.2679C16.9637 12.4219 17.1161 12.576 17.2703 12.7305C18.0731 13.5407 18.8782 14.3477 19.6902 15.1468C19.798 15.253 19.9057 15.3593 20.0155 15.4639C20.6777 16.1149 21.3465 16.7596 22.0244 17.3933C22.0983 17.4626 22.1722 17.5319 22.2461 17.6012C22.5655 17.8991 22.887 18.1956 23.2108 18.4887C23.2439 18.5199 23.2786 18.5515 23.3136 18.5813C23.3181 18.5876 23.3227 18.592 23.3292 18.5968C23.3592 18.6238 23.3907 18.653 23.4226 18.6804C23.4602 18.7161 23.4997 18.7521 23.5395 18.7863C23.5504 18.7973 23.5633 18.8069 23.5742 18.8179C23.9364 19.1433 24.301 19.4653 24.6696 19.7846C24.7936 19.8916 24.9191 20.001 25.0449 20.1085L24.6423 20.0391L24.6307 20.1065C24.5876 20.0698 24.545 20.0315 24.5019 19.9949C24.13 19.6733 23.7622 19.3489 23.3971 19.0193C23.3906 19.0146 23.3858 19.0101 23.3797 19.0035C23.3132 18.9446 23.2466 18.8856 23.1822 18.8253C23.1677 18.8137 23.1535 18.8003 23.1412 18.7872C22.765 18.4485 22.3913 18.1047 22.0219 17.7581C21.9129 17.6589 21.8046 17.5562 21.698 17.4538C20.9859 16.7853 20.2845 16.1075 19.5878 15.4233C19.466 15.3036 19.3442 15.184 19.2227 15.0627C18.6075 14.4564 17.9968 13.8453 17.3882 13.2329C17.1223 12.9642 16.8559 12.6975 16.5917 12.4291C16.4658 12.3016 16.6871 12.1405 16.8113 12.2679Z" fill="#94C5FF"/>
<path d="M18.2413 15.0757C18.6437 15.2431 19.0838 15.2616 19.4877 15.421C19.6569 15.4877 19.7618 15.2412 19.5926 15.1744C19.1884 15.0149 18.7477 14.9961 18.3463 14.8291C18.1782 14.7592 18.0735 15.0059 18.2413 15.0757Z" fill="#94C5FF"/>
<path d="M19.4737 13.7331C19.5616 14.3078 19.6496 14.8825 19.7376 15.4572C19.7638 15.6294 20.0419 15.5988 20.0155 15.4264C19.9276 14.8516 19.8396 14.277 19.7517 13.7023C19.7253 13.53 19.4473 13.5606 19.4737 13.7331Z" fill="#94C5FF"/>
<path d="M22.0152 16.3834C22.0908 16.7178 22.1265 17.1811 21.9849 17.4971C21.9142 17.6548 22.1752 17.7628 22.2456 17.6055C22.4055 17.2484 22.3788 16.7315 22.2931 16.3525C22.2547 16.183 21.9765 16.2126 22.0152 16.3834Z" fill="#94C5FF"/>
<path d="M20.7345 17.8054C20.9441 17.8113 21.152 17.7805 21.3589 17.7589C21.4823 17.7461 21.8821 17.6733 21.9479 17.7265C22.0885 17.8401 22.2557 17.6287 22.1155 17.5154C21.9757 17.4026 21.7057 17.4556 21.5464 17.4691C21.2905 17.4907 21.0273 17.5465 20.7689 17.5392C20.5902 17.5343 20.554 17.8005 20.7345 17.8054Z" fill="#94C5FF"/>
<path d="M24.2242 16.7976C23.9999 17.0756 23.7742 17.3601 23.598 17.6698C23.4374 17.952 23.3651 18.2826 23.1726 18.5468C23.0707 18.6867 23.2958 18.8545 23.3981 18.7142C23.5703 18.4778 23.6541 18.1974 23.7773 17.9361C23.9438 17.5833 24.2044 17.2689 24.4496 16.965C24.5587 16.8299 24.3331 16.6625 24.2242 16.7976Z" fill="#94C5FF"/>
<path d="M21.3915 19.7444C21.6784 19.5307 22.0562 19.4375 22.3929 19.313C22.7354 19.1863 23.0873 19.0848 23.4404 18.9864C23.6121 18.9385 23.498 18.689 23.3271 18.7366C22.6444 18.9268 21.7822 19.1073 21.2158 19.5289C21.0753 19.6335 21.2503 19.8494 21.3915 19.7444Z" fill="#94C5FF"/>
<path d="M24.6547 18.3425C24.194 18.4161 23.7431 18.5298 23.2786 18.586C23.1001 18.6076 23.1407 18.8753 23.3195 18.8535C23.784 18.7973 24.2349 18.6838 24.6958 18.61C24.8725 18.5818 24.8326 18.3141 24.6547 18.3425Z" fill="#94C5FF"/>
<path d="M23.0788 20.2558C23.0365 19.9911 23.1383 19.6975 23.2232 19.4535C23.3066 19.214 23.4013 18.9576 23.562 18.7566C23.6704 18.6208 23.4448 18.4535 23.3365 18.5892C23.1454 18.8283 23.0308 19.1335 22.9375 19.4193C22.8488 19.6905 22.7543 19.996 22.8009 20.2866C22.8286 20.4586 23.1066 20.428 23.0788 20.2558Z" fill="#94C5FF"/>
<path d="M19.3813 60.8828C19.3813 60.8828 16.626 61.6004 14.9514 61.131C13.277 60.6615 12.8315 60.1407 12.7196 59.2424C12.6079 58.3442 14.029 57.8431 14.9344 58.125C15.8399 58.407 17.3125 59.0703 19.3813 60.8828Z" fill="#94C5FF"/>
<path d="M17.5971 62.537C17.5971 62.537 15.9339 64.9206 14.3236 65.7281C12.7132 66.5356 12.0227 66.4701 11.3412 65.9104C10.6597 65.3506 11.4309 64.0286 12.3202 63.6119C13.2096 63.1951 14.7917 62.6624 17.5971 62.537Z" fill="#94C5FF"/>
<path d="M22.3762 59.339C22.3762 59.339 19.2298 59.2727 17.59 58.2411C15.9504 57.2094 15.6332 56.5016 15.7843 55.4838C15.9355 54.4659 17.5978 54.3569 18.476 54.9455C19.3541 55.5341 20.7209 56.7155 22.3762 59.339Z" fill="#94C5FF"/>
<path d="M23.4472 57.8928C23.4472 57.8928 20.6508 56.5589 19.5853 54.9288C18.52 53.2988 18.5137 52.5072 19.0495 51.6138C19.5853 50.7207 21.1193 51.2903 21.6757 52.197C22.2322 53.1038 22.9938 54.7641 23.4472 57.8928Z" fill="#94C5FF"/>
<path d="M24.7029 57.9325C24.7029 57.9325 24.0209 56.1696 24.2031 54.9682C24.3852 53.7666 24.6944 53.39 25.2777 53.185C25.8609 52.9802 26.2989 53.8706 26.1818 54.5243C26.0649 55.178 25.7397 56.2709 24.7029 57.9325Z" fill="#94C5FF"/>
<path d="M19.7913 61.7773C19.7913 61.7773 17.4721 63.5095 16.7074 65.1565C15.9428 66.8036 16.0212 67.5016 16.5874 68.1805C17.1535 68.8595 18.4429 68.052 18.8364 67.1429C19.2299 66.2339 19.724 64.6208 19.7913 61.7773Z" fill="#94C5FF"/>
<path d="M22.8557 60.3957C22.8557 60.3957 20.838 62.9549 20.4964 64.9431C20.1548 66.9313 20.4506 67.6496 21.2745 68.1965C22.0985 68.7437 23.2668 67.486 23.4241 66.3976C23.5815 65.3091 23.6373 63.4406 22.8557 60.3957Z" fill="#94C5FF"/>
<path d="M24.5883 60.4882C24.5883 60.4882 23.7028 63.5997 24.1642 65.5214C24.6256 67.443 25.1852 67.9675 26.1727 68.1254C27.1603 68.2831 27.7614 66.6827 27.481 65.6426C27.2005 64.6025 26.5183 62.904 24.5883 60.4882Z" fill="#94C5FF"/>
<path d="M25.3843 59.4579C25.3843 59.4579 26.1918 61.1601 27.1669 61.803C28.142 62.446 28.613 62.4459 29.1416 62.1139C29.6703 61.7821 29.3238 60.8475 28.7814 60.512C28.2392 60.1765 27.2478 59.7193 25.3843 59.4579Z" fill="#94C5FF"/>
<path d="M16.4639 62.8438C16.6546 62.7526 16.8455 62.6612 17.0371 62.5685C18.0404 62.0872 19.0415 61.6029 20.0376 61.1096C20.1699 61.0443 20.3023 60.9789 20.4339 60.9112C21.2454 60.5087 22.0534 60.0982 22.854 59.6757C22.9416 59.6296 23.0291 59.5837 23.1167 59.5378C23.4933 59.3385 23.8692 59.1368 24.2429 58.932C24.2823 58.9115 24.3224 58.8896 24.3611 58.8667C24.3682 58.8647 24.3739 58.8617 24.3803 58.8573C24.4149 58.8382 24.4519 58.8187 24.4872 58.798C24.5322 58.7747 24.578 58.7498 24.6223 58.7241C24.6359 58.7175 24.6488 58.7087 24.6625 58.7022C25.0781 58.4723 25.4915 58.2391 25.9035 58.0011C26.0419 57.9211 26.1827 57.8403 26.3219 57.7587L26.1294 58.1078L26.1878 58.14C26.1403 58.1679 26.0913 58.195 26.0438 58.2229C25.6286 58.4632 25.2119 58.6984 24.7916 58.9297C24.7851 58.9342 24.7795 58.9372 24.7714 58.9407C24.6959 58.9833 24.6203 59.0258 24.544 59.0658C24.5287 59.0755 24.5119 59.0842 24.4957 59.0915C24.0633 59.3302 23.6271 59.5647 23.1895 59.7945C23.0634 59.8633 22.9342 59.9303 22.8057 59.9959C21.9618 60.4387 21.113 60.8688 20.2597 61.2922C20.1106 61.3664 19.9613 61.4405 19.8105 61.5137C19.0551 61.8872 18.2969 62.2548 17.5379 62.6202C17.2052 62.7795 16.8743 62.9397 16.5425 63.0977C16.3846 63.173 16.307 62.9176 16.4639 62.8438Z" fill="#94C5FF"/>
<path d="M19.5095 62.4225C19.7922 62.1051 19.95 61.7052 20.2259 61.3838C20.3415 61.2492 20.1477 61.0736 20.0321 61.2084C19.756 61.5301 19.5978 61.9302 19.3156 62.247C19.1974 62.3796 19.3914 62.5549 19.5095 62.4225Z" fill="#94C5FF"/>
<path d="M18.6655 60.8576C19.2233 60.9601 19.7812 61.0627 20.3391 61.1652C20.5062 61.196 20.5668 60.9299 20.3994 60.8991C19.8416 60.7966 19.2837 60.6941 18.7258 60.5915C18.5586 60.5609 18.4981 60.8268 18.6655 60.8576Z" fill="#94C5FF"/>
<path d="M21.9202 59.3617C22.2529 59.3988 22.6912 59.5138 22.9373 59.7453C23.0602 59.8609 23.243 59.6549 23.1204 59.5395C22.8426 59.2783 22.3574 59.1376 21.9807 59.0956C21.8121 59.0768 21.7505 59.3428 21.9202 59.3617Z" fill="#94C5FF"/>
<path d="M22.8222 60.9965C22.8946 60.8052 22.9326 60.6037 22.9788 60.406C23.0066 60.2882 23.0671 59.8964 23.137 59.8528C23.2868 59.7594 23.1453 59.5378 22.9961 59.6308C22.8475 59.7236 22.8101 59.9894 22.7717 60.1405C22.7099 60.3834 22.6771 60.6439 22.5879 60.8797C22.5262 61.0429 22.7601 61.1612 22.8222 60.9965Z" fill="#94C5FF"/>
<path d="M23.008 57.4576C23.1925 57.753 23.3828 58.052 23.6119 58.3133C23.8208 58.5515 24.1024 58.7238 24.2845 58.9856C24.3808 59.1243 24.6075 58.9704 24.5108 58.8313C24.348 58.597 24.1161 58.4302 23.9146 58.2331C23.6427 57.9669 23.4361 57.6262 23.2342 57.3031C23.1445 57.1594 22.9182 57.3138 23.008 57.4576Z" fill="#94C5FF"/>
<path d="M24.8195 61.0105C24.7141 60.6776 24.749 60.2998 24.7419 59.9495C24.7345 59.5932 24.7532 59.2364 24.7754 58.8795C24.7861 58.7059 24.5197 58.7313 24.5089 58.9043C24.4662 59.5944 24.3571 60.4468 24.5647 61.1034C24.6163 61.2665 24.8712 61.174 24.8195 61.0105Z" fill="#94C5FF"/>
<path d="M24.5699 57.5543C24.4907 58.0025 24.4513 58.4545 24.3547 58.9005C24.3176 59.072 24.5772 59.1202 24.6145 58.9483C24.711 58.5021 24.7504 58.0502 24.8296 57.602C24.8601 57.43 24.6005 57.3812 24.5699 57.5543Z" fill="#94C5FF"/>
<path d="M25.83 59.6183C25.5725 59.5728 25.3344 59.3851 25.1367 59.2289C24.9424 59.0755 24.7363 58.9063 24.6023 58.694C24.5118 58.5507 24.2855 58.7052 24.3759 58.8483C24.5354 59.1009 24.78 59.3039 25.0138 59.4815C25.2354 59.6497 25.4868 59.8344 25.7697 59.8843C25.9369 59.9138 25.9976 59.6477 25.83 59.6183Z" fill="#94C5FF"/>
<path d="M2.00915 48.4575C1.4518 48.2943 0.890689 48.2194 0.337428 48.2246C0.316386 48.352 0.295033 48.4806 0.276123 48.6085C0.812559 48.5972 1.36014 48.6669 1.90141 48.8255C4.76404 49.6637 6.41176 52.676 5.57438 55.5354C4.87742 57.9155 2.67713 59.456 0.308796 59.4246C0.329394 59.5526 0.352123 59.6811 0.376272 59.809C2.88461 59.8105 5.20282 58.1688 5.9424 55.6431C6.83925 52.5804 5.0751 49.3553 2.00915 48.4575Z" fill="white"/>
<path d="M11.4894 51.8271C10.5693 46.7026 6.82357 42.78 2.14685 41.378C1.85479 42.1729 1.59035 42.9769 1.35254 43.7889C5.17511 44.9071 8.24098 48.0976 8.99089 52.2754C9.96143 57.6795 6.72213 62.8833 1.62577 64.5049C1.90735 65.3005 2.22525 66.087 2.57843 66.8641C8.76458 64.7973 12.6746 58.4333 11.4894 51.8271Z" fill="white"/>
<path d="M101.492 72.8346C101.491 72.8346 101.491 72.8346 101.491 72.8346L1.49923 72.725C1.31095 72.7247 1.15846 72.5718 1.15869 72.3837C1.15891 72.1955 1.31153 72.0431 1.49962 72.0431C1.49975 72.0431 1.49984 72.0431 1.50002 72.0431L101.492 72.1527C101.68 72.153 101.833 72.3057 101.833 72.494C101.832 72.6822 101.68 72.8346 101.492 72.8346Z" fill="#24154C"/>
<path d="M88.5709 74.5295C88.5708 74.5295 88.5708 74.5295 88.5707 74.5295L44.0039 74.4806C43.8783 74.4804 43.7767 74.3786 43.7769 74.2531C43.777 74.1276 43.8788 74.026 44.0041 74.026C44.0043 74.026 44.0044 74.026 44.0045 74.026L88.5712 74.075C88.6967 74.0751 88.7983 74.1769 88.7982 74.3025C88.7981 74.4278 88.6964 74.5295 88.5709 74.5295Z" fill="#24154C"/>
<path d="M36.5429 74.4725C36.5428 74.4725 36.5428 74.4725 36.5427 74.4725L19.6721 74.454C19.5466 74.4539 19.445 74.352 19.4451 74.2265C19.4452 74.101 19.547 73.9994 19.6724 73.9994C19.6725 73.9994 19.6726 73.9994 19.6727 73.9994L36.5433 74.018C36.6687 74.018 36.7705 74.1199 36.7702 74.2455C36.7701 74.3708 36.6684 74.4725 36.5429 74.4725Z" fill="#24154C"/>
<path d="M45.3654 8.60422C45.0255 8.60422 44.6815 8.65377 44.342 8.75514C43.1219 9.11971 42.2179 10.0768 41.9234 11.3157L31.8408 53.7443C31.5465 54.9832 31.9233 56.2447 32.849 57.1192C33.7747 57.9935 35.0558 58.2981 36.2758 57.9335L78.0615 45.4509C79.2816 45.0865 80.1857 44.1293 80.48 42.8903C80.7745 41.6516 80.3975 40.3899 79.4719 39.5156L47.7688 9.56951C47.1007 8.93844 46.2473 8.60422 45.3654 8.60422ZM35.25 58.6533C34.2258 58.6533 33.2348 58.2652 32.4588 57.5322C31.3839 56.5168 30.9462 55.0516 31.2881 53.613L41.3707 11.1843C41.7125 9.74555 42.7625 8.63399 44.1794 8.21078C45.5963 7.78745 47.084 8.141 48.1591 9.15641L79.862 39.1026C80.937 40.118 81.3748 41.5832 81.0328 43.0218C80.691 44.4605 79.641 45.5721 78.2241 45.9954L36.4384 58.478C36.0444 58.5957 35.6447 58.6533 35.25 58.6533Z" fill="#8C0E1E"/>
<path d="M74.085 5.9131C74.0823 5.9131 74.08 5.9131 74.0773 5.9131C73.7219 5.91572 73.405 6.10187 73.2296 6.41087L66.064 19.0375C65.8886 19.3466 65.8914 19.714 66.0713 20.0205C66.25 20.3247 66.5664 20.5057 66.9187 20.5057C66.9212 20.5057 66.9238 20.5057 66.9263 20.5057L81.444 20.398C81.7994 20.3953 82.1163 20.2092 82.2917 19.9002C82.4671 19.5911 82.4644 19.2236 82.2845 18.9172L74.9324 6.39825C74.7536 6.09402 74.4373 5.9131 74.085 5.9131ZM66.9185 21.0739C66.3625 21.0739 65.8634 20.7884 65.5813 20.3083C65.2973 19.8247 65.293 19.2448 65.5699 18.757L72.7354 6.1305C73.0123 5.64263 73.5122 5.34909 74.0731 5.34488C74.0771 5.34488 74.0811 5.34488 74.0851 5.34488C74.6411 5.34488 75.1404 5.63047 75.4222 6.1105L82.7743 18.6294C83.0583 19.113 83.0627 19.6929 82.7859 20.1806C82.5091 20.6683 82.009 20.962 81.4482 20.9662L66.9305 21.0739C66.9265 21.0739 66.9224 21.0739 66.9185 21.0739Z" fill="#8C0E1E"/>
<path d="M73.8503 28.1511L74.2313 26.8185L74.6121 25.4859L75.5758 26.4821L76.5394 27.4782L75.1949 27.8147L73.8503 28.1511Z" fill="#D0021B"/>
<path d="M72.1497 55.2043L72.5306 53.8716L72.9114 52.5392L73.8751 53.5353L74.8387 54.5315L73.4942 54.8678L72.1497 55.2043Z" fill="#D0021B"/>
<path d="M19.9719 8.83276L20.3529 7.50017L20.7337 6.16758L21.6974 7.16367L22.661 8.15988L21.3164 8.49626L19.9719 8.83276Z" fill="#D0021B"/>
<path d="M63.2087 10.0999L62.7279 8.80005L62.2471 7.50019L63.6133 7.73361L64.9794 7.96716L64.094 9.03359L63.2087 10.0999Z" fill="#D0021B"/>
<path d="M9.42678 19.8944C9.16878 19.8416 8.8971 19.9093 8.61232 20.0973C8.35308 20.2684 8.1973 20.4829 8.14447 20.7408C8.07092 21.1001 8.14253 21.4444 8.35538 21.7756C8.35867 21.7815 8.35897 21.7881 8.36275 21.7939C8.44465 21.9179 8.61152 21.9521 8.73556 21.8702C8.8595 21.7883 8.89377 21.6215 8.81187 21.4975C8.81156 21.497 8.81107 21.4968 8.8108 21.4964C8.64126 21.2385 8.57818 21.0025 8.62209 20.7882C8.6485 20.6592 8.71998 20.5563 8.83655 20.4793C8.97905 20.3852 9.11475 20.3514 9.24381 20.3779C9.39411 20.4088 9.52947 20.5148 9.64915 20.6961C9.74331 20.8388 9.77256 20.9959 9.73735 21.1678C9.6757 21.4693 9.64671 21.6926 9.6503 21.839C9.65381 22.0402 9.74881 22.2823 9.93455 22.5649C9.93561 22.5666 9.93561 22.5687 9.93676 22.5705C10.0008 22.6675 10.1313 22.6943 10.2283 22.6302C10.3254 22.5662 10.3521 22.4356 10.288 22.3386C10.2875 22.3378 10.2866 22.3374 10.2861 22.3366C10.1335 22.1045 10.0764 21.8918 10.1159 21.6991C10.1687 21.441 10.2105 21.2368 10.2414 21.0862C10.2942 20.8282 10.2481 20.5894 10.1026 20.3689C9.93166 20.1098 9.70614 19.9518 9.42678 19.8944Z" fill="#2871C6"/>
<path d="M10.4835 23.0166C10.3539 23.1021 10.3182 23.2765 10.4037 23.4061C10.4893 23.5356 10.6636 23.5713 10.7932 23.4859C10.9227 23.4003 10.9584 23.226 10.8729 23.0964C10.7874 22.9667 10.613 22.9312 10.4835 23.0166Z" fill="#2871C6"/>
<path d="M14.0099 16.8086C13.7805 16.5733 13.4527 16.4529 13.0269 16.4473C12.6394 16.4423 12.3285 16.5545 12.0931 16.7838C11.7655 17.103 11.5981 17.5087 11.5858 17.9997C11.5851 18.0081 11.5807 18.0152 11.5806 18.0238C11.5782 18.2091 11.7265 18.3614 11.9119 18.3638C12.0973 18.3662 12.2495 18.2179 12.2519 18.0325C12.2519 18.0318 12.2515 18.0313 12.2515 18.0305C12.2573 17.6457 12.3575 17.3578 12.5529 17.1673C12.6706 17.0527 12.8165 16.9965 12.9908 16.9988C13.2038 17.0015 13.3675 17.0618 13.4822 17.1794C13.6157 17.3167 13.6811 17.5209 13.6777 17.7919C13.6748 18.0052 13.5951 18.1879 13.4381 18.3407C13.1633 18.6086 12.9769 18.8188 12.8781 18.9725C12.7407 19.1827 12.6691 19.4992 12.6628 19.9209C12.6627 19.9234 12.6612 19.9256 12.6612 19.9282C12.6594 20.0732 12.7754 20.1923 12.9205 20.1941C13.0654 20.1961 13.1845 20.08 13.1863 19.935C13.1864 19.9338 13.1856 19.9329 13.1857 19.9316C13.1908 19.585 13.2808 19.3255 13.4566 19.1543C13.692 18.925 13.8784 18.7434 14.0156 18.6096C14.251 18.3803 14.3708 18.1013 14.375 17.7719C14.38 17.3846 14.2581 17.0636 14.0099 16.8086Z" fill="#2871C6"/>
<path d="M12.9131 20.7716C12.7194 20.7691 12.5604 20.9241 12.5579 21.1177C12.5554 21.3114 12.7104 21.4704 12.9041 21.4729C13.0977 21.4754 13.2567 21.3205 13.2592 21.1269C13.2617 20.9331 13.1068 20.7741 12.9131 20.7716Z" fill="#2871C6"/>
<path d="M103.517 39.9999C102.117 41.5775 101.74 43.7162 102.333 45.5923C102.635 46.5597 103.195 47.4555 104.005 48.1746C105.459 49.464 107.388 49.888 109.152 49.4856C109.197 49.475 109.242 49.4643 109.285 49.4524C109.281 49.3215 109.274 49.1908 109.268 49.0601C109.03 49.1241 108.788 49.1718 108.544 49.2028C107.046 49.3935 105.475 48.9655 104.26 47.8877C103.645 47.3426 103.182 46.6841 102.88 45.971C102.084 44.1094 102.371 41.8686 103.803 40.2544C104.347 39.6415 105 39.1817 105.707 38.8779C105.625 38.7739 105.539 38.6724 105.452 38.5711C104.735 38.8959 104.072 39.3736 103.517 39.9999Z" fill="white"/>
<path d="M99.8942 34.6806C95.3784 40.0799 95.8267 48.1592 101.035 53.018C103.409 55.2345 106.385 56.4171 109.401 56.585C109.64 55.7542 109.842 54.9139 110 54.0691C107.402 54.0325 104.811 53.0703 102.767 51.1631C98.4015 47.0893 98.1632 40.2244 102.236 35.86C102.414 35.6701 102.597 35.487 102.784 35.3133C101.881 34.9385 100.912 34.7153 99.8942 34.6806Z" fill="white"/>
<path d="M33.1951 6.16723C33.1951 6.6642 32.7922 7.06696 32.2952 7.06696C31.7984 7.06696 31.3955 6.6642 31.3955 6.16723C31.3955 5.67038 31.7984 5.26751 32.2952 5.26751C32.7922 5.26751 33.1951 5.67038 33.1951 6.16723Z" fill="white"/>
<path d="M9.75583 66.9618C9.75583 67.4587 9.35302 67.8615 8.85604 67.8615C8.35912 67.8615 7.9563 67.4587 7.9563 66.9618C7.9563 66.4649 8.35912 66.062 8.85604 66.062C9.35302 66.062 9.75583 66.4649 9.75583 66.9618Z" fill="white"/>
<path d="M104.972 58.596C104.972 59.093 104.569 59.4958 104.073 59.4958C103.576 59.4958 103.173 59.093 103.173 58.596C103.173 58.0992 103.576 57.6963 104.073 57.6963C104.569 57.6963 104.972 58.0992 104.972 58.596Z" fill="white"/>
<path d="M32.2948 7.84526C31.8744 7.84526 31.4885 7.68922 31.1943 7.43193C30.8416 7.12339 30.6177 6.67075 30.6177 6.16685C30.6177 5.91194 30.6749 5.66897 30.7786 5.45214C31.0465 4.88403 31.6254 4.48969 32.2948 4.48969C33.2204 4.48969 33.9732 5.24247 33.9732 6.16685C33.9732 7.09248 33.2204 7.84526 32.2948 7.84526ZM32.2948 4.37059C31.6409 4.37059 31.0668 4.72322 30.7534 5.24735C30.5915 5.51646 30.4985 5.83092 30.4985 6.16685C30.4985 6.76962 30.7975 7.30442 31.2538 7.63081C31.548 7.84048 31.9065 7.96436 32.2948 7.96436C33.2859 7.96436 34.0923 7.15794 34.0923 6.16685C34.0923 5.17701 33.2859 4.37059 32.2948 4.37059Z" fill="white"/>
<path d="M37.4958 65.8063C37.4958 66.3033 37.093 66.7062 36.5961 66.7062C36.0992 66.7062 35.6963 66.3033 35.6963 65.8063C35.6963 65.3095 36.0992 64.9066 36.5961 64.9066C37.093 64.9066 37.4958 65.3095 37.4958 65.8063Z" fill="white"/>
<path d="M36.5956 67.4845C36.1751 67.4845 35.7892 67.3284 35.4949 67.0711C35.1423 66.7625 34.9184 66.31 34.9184 65.806C34.9184 65.5511 34.9756 65.3081 35.0791 65.0913C35.3472 64.5232 35.9261 64.1288 36.5956 64.1288C37.5211 64.1288 38.2739 64.8816 38.2739 65.806C38.2739 66.7316 37.5211 67.4845 36.5956 67.4845ZM36.5956 64.0097C35.9416 64.0097 35.3674 64.3624 35.0542 64.8864C34.8922 65.1556 34.7993 65.4702 34.7993 65.806C34.7993 66.4087 35.0982 66.9437 35.5545 67.2701C35.8487 67.4797 36.2073 67.6035 36.5956 67.6035C37.5866 67.6035 38.3931 66.7971 38.3931 65.806C38.3931 64.8162 37.5866 64.0097 36.5956 64.0097Z" fill="white"/>
<path d="M80.0831 43.7184C81.8714 46.0394 80.4766 49.426 77.5723 49.8142L55.9593 52.7031L34.3465 55.592C31.4423 55.9802 29.2068 53.079 30.3228 50.3697L38.6273 30.2078L46.9319 10.0461C48.0479 7.33684 51.6781 6.85158 53.4665 9.17265L66.7748 26.4454L80.0831 43.7184Z" fill="#D0021B"/>
<path d="M74.2137 42.2962C75.6097 44.1621 74.5385 46.8708 72.2857 47.172L55.5196 49.4131L38.7537 51.6541C36.5008 51.9552 34.7558 49.623 35.6127 47.4559L41.99 31.3294L48.3671 15.203C49.2241 13.036 52.0403 12.6595 53.4362 14.5254L63.825 28.4108L74.2137 42.2962Z" fill="white"/>
<path d="M57.5228 43.8846C57.2354 45.0757 56.0369 45.8082 54.846 45.5208C53.6549 45.2334 52.9225 44.0349 53.2099 42.8439C53.4973 41.6529 54.6958 40.9203 55.8869 41.2079C57.0778 41.4953 57.8103 42.6938 57.5228 43.8846Z" fill="#D0021B"/>
<path d="M50.4547 23.3847L53.5085 36.812C53.6078 37.2484 54.0224 37.538 54.4664 37.4808C54.93 37.421 55.2631 37.0052 55.2202 36.5398L53.9578 22.8276C53.8655 21.825 52.9595 21.099 51.9608 21.2278C50.9207 21.3616 50.2222 22.3623 50.4547 23.3847Z" fill="#D0021B"/>
<path d="M83.7679 20.4725C84.0108 21.4577 83.096 22.3365 82.1214 22.0543L74.868 19.9544L67.6146 17.8544C66.64 17.5722 66.3363 16.3408 67.0679 15.6378L72.5133 10.406L77.9585 5.17444C78.6903 4.47144 79.9088 4.82407 80.1516 5.80937L81.9597 13.141L83.7679 20.4725Z" fill="#D0021B"/>
<path d="M82.1056 19.2029C82.2877 19.9891 81.5703 20.6981 80.8142 20.4792L75.1875 18.8503L69.5607 17.2212C68.8047 17.0023 68.577 16.0196 69.1509 15.4523L73.4223 11.2308L77.6936 7.0091C78.2676 6.4419 79.2128 6.71545 79.3949 7.50164L80.7503 13.3523L82.1056 19.2029Z" fill="white"/>
<path d="M76.5941 17.3774C76.3366 17.7148 75.8547 17.7797 75.5173 17.5225C75.1799 17.2652 75.115 16.7831 75.3723 16.4457C75.6294 16.1083 76.1116 16.0434 76.4489 16.3007C76.7863 16.558 76.8512 17.0401 76.5941 17.3774Z" fill="#D0021B"/>
<path d="M77.2139 9.89374L76.3082 14.5756C76.2788 14.7278 76.3698 14.8775 76.5186 14.9214C76.6738 14.967 76.8374 14.8817 76.8887 14.7282L78.4019 10.2059C78.5125 9.87522 78.3267 9.51883 77.9921 9.42018C77.6438 9.31756 77.2827 9.53724 77.2139 9.89374Z" fill="#D0021B"/>
<path d="M36.5964 15.8443C36.5091 15.8443 36.423 15.8043 36.3673 15.7285L33.274 11.5216C33.181 11.3952 33.2082 11.2174 33.3346 11.1244C33.461 11.0315 33.6388 11.0585 33.7317 11.185L36.825 15.3919C36.918 15.5183 36.8908 15.6961 36.7645 15.7891C36.7138 15.8263 36.6548 15.8443 36.5964 15.8443Z" fill="#D0021B"/>
<path d="M35.9772 17.3911C35.9331 17.3911 35.8882 17.3809 35.8463 17.3591L26.3328 12.4097C26.1935 12.3374 26.1394 12.1658 26.2119 12.0265C26.2843 11.8874 26.4558 11.8332 26.595 11.9056L36.1086 16.8549C36.2478 16.9273 36.3019 17.0989 36.2295 17.2381C36.1789 17.3354 36.0798 17.3911 35.9772 17.3911Z" fill="#D0021B"/>
<path d="M35.3911 18.9995C35.3789 18.9995 35.3665 18.9987 35.3541 18.9971L29.164 18.1929C29.0085 18.1726 28.8987 18.0301 28.9189 17.8745C28.9391 17.719 29.0821 17.6098 29.2373 17.6294L35.4273 18.4337C35.583 18.4539 35.6927 18.5964 35.6724 18.752C35.6539 18.8952 35.5317 18.9995 35.3911 18.9995Z" fill="#D0021B"/>
<path d="M83.8679 34.0993C83.8652 34.0993 83.8624 34.0993 83.8596 34.0992L79.3505 33.968C79.1937 33.9635 79.0703 33.8326 79.0748 33.6758C79.0793 33.5189 79.2137 33.3964 79.367 33.4001L83.8761 33.5312C84.033 33.5357 84.1564 33.6667 84.1519 33.8235C84.1473 33.9776 84.0211 34.0993 83.8679 34.0993Z" fill="#D0021B"/>
<path d="M78.6925 32.7339C78.5847 32.7339 78.4816 32.6722 78.4339 32.5677C78.3688 32.425 78.4317 32.2564 78.5745 32.1913L85.8211 28.8856C85.9639 28.8206 86.1323 28.8835 86.1975 29.0262C86.2626 29.1689 86.1997 29.3375 86.0568 29.4026L78.8103 32.7083C78.7721 32.7257 78.732 32.7339 78.6925 32.7339Z" fill="#D0021B"/>
<path d="M77.8388 31.435C77.7654 31.435 77.6921 31.4067 77.6364 31.3503C77.5264 31.2386 77.5275 31.0587 77.6393 30.9486L80.679 27.9506C80.7907 27.8404 80.9706 27.8417 81.0809 27.9534C81.191 28.0651 81.1897 28.245 81.0781 28.3551L78.0384 31.3531C77.9829 31.4077 77.9109 31.435 77.8388 31.435Z" fill="#D0021B"/>
<path d="M94.3116 35.6576C94.0996 35.5015 93.8244 35.4491 93.4871 35.5003C93.18 35.5471 92.9487 35.6764 92.7926 35.8886C92.5753 36.1838 92.4958 36.5264 92.5503 36.9164C92.5508 36.9231 92.5483 36.9293 92.5493 36.936C92.5716 37.083 92.7088 37.1839 92.8557 37.1616C93.0026 37.1393 93.1037 37.0022 93.0813 36.8552C93.0813 36.8548 93.0809 36.8543 93.0809 36.8537C93.0351 36.5486 93.0768 36.3078 93.2062 36.1318C93.2844 36.0257 93.3925 35.9622 93.5306 35.9412C93.6993 35.9155 93.8367 35.9417 93.9429 36.0198C94.0664 36.111 94.1447 36.2638 94.1774 36.4786C94.2031 36.6477 94.1638 36.8026 94.0597 36.944C93.8774 37.1917 93.7575 37.3824 93.6993 37.5167C93.6182 37.701 93.6029 37.9605 93.6531 38.295C93.6533 38.2969 93.6525 38.2988 93.6527 38.301C93.6702 38.4159 93.7776 38.4949 93.8924 38.4774C94.0074 38.46 94.0864 38.3527 94.0689 38.2377C94.0688 38.2367 94.0681 38.236 94.068 38.2351C94.0267 37.9604 94.064 37.7433 94.1807 37.5849C94.3369 37.3729 94.4604 37.2049 94.5515 37.0811C94.7077 36.869 94.766 36.6328 94.7262 36.3717C94.6796 36.0648 94.5412 35.8268 94.3116 35.6576Z" fill="#2871C6"/>
<path d="M93.9616 38.9352C93.8081 38.9585 93.7025 39.1018 93.7259 39.2553C93.7493 39.4088 93.8926 39.5143 94.046 39.4909C94.1995 39.4676 94.305 39.3243 94.2817 39.1708C94.2584 39.0173 94.115 38.9119 93.9616 38.9352Z" fill="#2871C6"/>
<path d="M98.1609 39.1126C98.0502 38.8736 97.8344 38.6951 97.5142 38.5776C97.2224 38.4705 96.9575 38.4725 96.7185 38.5832C96.3858 38.7371 96.1511 38.9993 96.0111 39.3671C96.0083 39.3733 96.0031 39.3775 96.0006 39.384C95.9495 39.5234 96.0211 39.6781 96.1605 39.7293C96.3001 39.7805 96.4547 39.7089 96.5059 39.5695C96.506 39.5689 96.506 39.5684 96.506 39.5679C96.613 39.2784 96.7655 39.0875 96.9639 38.9957C97.0834 38.9403 97.2087 38.9367 97.3398 38.9848C97.5002 39.0436 97.6079 39.1329 97.6633 39.2524C97.7276 39.3916 97.7227 39.5634 97.6477 39.7674C97.5889 39.9279 97.4798 40.0447 97.3205 40.1185C97.0413 40.2477 96.8444 40.357 96.7288 40.4468C96.5689 40.5692 96.4304 40.7893 96.3134 41.1065C96.3126 41.1084 96.311 41.1096 96.3102 41.1116C96.2701 41.2208 96.3261 41.3416 96.4352 41.3818C96.5443 41.4219 96.6653 41.3657 96.7054 41.2566C96.7057 41.2558 96.7055 41.2548 96.7058 41.2539C96.8021 40.9933 96.9391 40.8211 97.1178 40.7385C97.3568 40.6277 97.546 40.5402 97.6854 40.4756C97.9244 40.365 98.0893 40.1861 98.1803 39.9381C98.2873 39.6466 98.2806 39.3715 98.1609 39.1126Z" fill="#2871C6"/>
<path d="M96.2755 41.8163C96.1298 41.7629 95.9682 41.8377 95.9147 41.9834C95.8613 42.1291 95.9361 42.2907 96.0818 42.3442C96.2275 42.3976 96.3891 42.3228 96.4426 42.177C96.4961 42.0313 96.4212 41.8699 96.2755 41.8163Z" fill="#2871C6"/>
<path d="M29.8523 28.0312L30.5304 26.8427L31.2083 25.6542L31.8987 26.8357L32.5888 28.0171L31.2206 28.0241L29.8523 28.0312Z" fill="#D0021B"/>
</svg>
