<svg width="138" height="94" viewBox="0 0 138 94" fill="none" xmlns="http://www.w3.org/2000/svg">
<path d="M15.2972 90.1889C3.76054 89.7762 -1.0385 71.8737 0.18593 62.7811C1.04096 56.4317 4.1259 50.7313 6.07257 44.6992C8.37443 37.5663 7.36106 30.8258 7.19039 23.4845C6.95755 13.4695 15.1841 6.29938 23.9198 3.09672C32.971 -0.22143 46.3743 -0.870134 53.5564 6.55951C58.4449 11.6167 61.7239 17.8055 67.1799 22.3616C75.3691 29.2003 85.9761 32.9763 96.4846 34.2943C104.862 35.3451 113.361 36.396 120.838 40.7573C130.326 46.2922 136.213 55.6679 136.758 66.515C137.141 74.1287 129.591 84.5519 125.049 90.3006C124.062 91.5505 125.559 90.2968 15.2972 90.1889Z" fill="#F3E4C6"/>
<path d="M37.2664 -2.86102e-06C36.4591 0.00369453 35.6517 0.0342722 34.8488 0.0907364C34.5451 2.2102 33.574 4.25102 31.9404 5.87127C27.9475 9.83029 21.4809 9.80327 17.5213 5.81153C17.4442 5.73401 17.3681 5.6538 17.2939 5.57301C16.588 5.9721 15.8938 6.39082 15.2117 6.82803C15.4057 7.0563 15.611 7.2786 15.8252 7.49379C20.7099 12.4205 28.6945 12.4557 33.6222 7.5686C35.7501 5.45824 36.966 2.77015 37.2664 -2.86102e-06Z" fill="white"/>
<path d="M67.4592 13.1281C68.2259 15.5143 69.7405 17.6138 71.4206 19.4858C76.7458 25.4188 84.0083 29.4115 91.7184 31.2839C97.5814 32.7078 109.507 34.6762 113.988 29.2329C120.433 21.4019 103.729 16.93 99.1724 15.1594C95.4543 13.7145 92.7767 10.9411 90.5418 7.7141C87.653 3.54301 82.6209 -0.160576 77.247 0.00540161C71.0032 0.198261 65.6176 6.287 67.2963 12.5749C67.3461 12.761 67.4005 12.9455 67.4592 13.1281Z" fill="#F3E4C6"/>
<path d="M84.135 20.0813C83.3231 20.0813 82.5778 19.7799 82.0096 19.2831C81.3288 18.6873 80.8962 17.8132 80.8962 16.8404C80.8962 16.348 81.0068 15.8788 81.2069 15.4601C81.7244 14.3631 82.8423 13.6016 84.135 13.6016C85.9223 13.6016 87.376 15.0553 87.376 16.8404C87.376 18.6275 85.9223 20.0813 84.135 20.0813ZM84.135 13.3716C82.8722 13.3716 81.7635 14.0524 81.1585 15.0645C80.8457 15.5844 80.6663 16.1915 80.6663 16.8404C80.6663 18.0042 81.2437 19.0369 82.1247 19.6673C82.6929 20.0721 83.3851 20.3113 84.135 20.3113C86.0488 20.3113 87.6059 18.754 87.6059 16.8404C87.6059 14.9288 86.0488 13.3716 84.135 13.3716Z" fill="white"/>
<path d="M104.301 17.2151C104.301 17.2151 106.782 14.5349 108.916 13.8846C111.05 13.2345 111.891 13.4894 112.633 14.3827C113.375 15.276 112.185 16.7998 111.012 17.1211C109.839 17.4424 107.789 17.7437 104.301 17.2151Z" fill="#F0D19A"/>
<path d="M105.085 14.1941C105.085 14.1941 105.234 10.4687 106.416 8.48312C107.598 6.49735 108.39 6.09073 109.513 6.22442C110.637 6.35811 110.717 8.31984 110.044 9.38498C109.371 10.4501 108.03 12.1196 105.085 14.1941Z" fill="#F0D19A"/>
<path d="M102.131 20.9537C102.131 20.9537 105.577 18.8505 108.062 18.8317C110.547 18.8131 111.379 19.3586 111.919 20.563C112.46 21.7674 110.739 23.0342 109.383 23.0053C108.027 22.9765 105.733 22.6445 102.131 20.9537Z" fill="#F0D19A"/>
<path d="M101.974 23.2568C101.974 23.2568 105.917 22.7653 108.196 23.7901C110.474 24.8152 111.028 25.6664 111.066 27.0021C111.105 28.3376 109.053 28.7824 107.825 28.1872C106.597 27.5919 104.626 26.3243 101.974 23.2568Z" fill="#F0D19A"/>
<path d="M100.589 24.0821C100.589 24.0821 102.544 25.5156 103.178 26.9399C103.812 28.3642 103.738 28.985 103.25 29.6095C102.761 30.2342 101.672 29.5748 101.347 28.7874C101.021 28.0001 100.617 26.5944 100.589 24.0821Z" fill="#F0D19A"/>
<path d="M103.239 16.5317C103.239 16.5317 104.548 13.0567 104.236 10.7484C103.923 8.43988 103.356 7.73985 102.275 7.39751C101.194 7.05517 100.359 8.81921 100.562 10.0735C100.765 11.3278 101.346 13.4126 103.239 16.5317Z" fill="#F0D19A"/>
<path d="M100.883 20.1434C100.883 20.1434 101.294 15.9829 100.288 13.5983C99.2832 11.2137 98.4671 10.6421 97.1986 10.6205C95.9302 10.5989 95.5368 12.7656 96.1194 14.0506C96.7017 15.3355 97.9329 17.3931 100.883 20.1434Z" fill="#F0D19A"/>
<path d="M98.9465 21.2409C98.9465 21.2409 97.7524 17.2665 95.9255 15.5088C94.0986 13.7512 93.1312 13.5711 91.9548 14.0833C90.7787 14.5955 91.2356 16.7405 92.2575 17.6705C93.2795 18.6006 95.1907 19.9645 98.9465 21.2409Z" fill="#F0D19A"/>
<path d="M98.7983 22.9045C98.7983 22.9045 96.749 21.6232 95.2509 21.6025C93.753 21.5818 93.2441 21.9075 92.902 22.6317C92.5602 23.3558 93.5809 24.1261 94.3987 24.1138C95.2165 24.1016 96.6039 23.9102 98.7983 22.9045Z" fill="#F0D19A"/>
<path d="M106.097 13.0796C105.954 13.31 105.811 13.5406 105.668 13.7732C104.916 14.9869 104.169 16.2023 103.434 17.4239C103.336 17.5859 103.238 17.7481 103.143 17.9123C102.544 18.9082 101.955 19.9103 101.382 20.9204C101.319 21.0305 101.256 21.1407 101.193 21.251C100.924 21.7266 100.657 22.2045 100.395 22.6842C100.367 22.7334 100.339 22.7849 100.313 22.8362C100.306 22.8435 100.302 22.8505 100.298 22.8597C100.274 22.9042 100.248 22.951 100.224 22.9978C100.191 23.054 100.159 23.1126 100.129 23.171C100.119 23.1874 100.111 23.206 100.101 23.2225C99.8105 23.7583 99.5249 24.2959 99.2442 24.8378C99.1499 25.02 99.0536 25.2046 98.9594 25.3889L98.9263 24.8789L98.8408 24.8844C98.873 24.8213 98.9072 24.7581 98.9392 24.6951C99.222 24.1486 99.5094 23.6062 99.8038 23.0658C99.8077 23.0564 99.8118 23.0494 99.8179 23.0399C99.8703 22.9418 99.9226 22.8436 99.9772 22.7475C99.9872 22.7266 99.9993 22.7054 100.012 22.6866C100.314 22.1297 100.623 21.5747 100.937 21.0238C101.026 20.8623 101.119 20.7006 101.213 20.541C101.819 19.4791 102.439 18.4276 103.068 17.38C103.178 17.1968 103.288 17.0136 103.4 16.8301C103.958 15.9045 104.523 14.983 105.091 14.0635C105.34 13.6615 105.587 13.2594 105.837 12.8594C105.955 12.669 106.216 12.8912 106.097 13.0796Z" fill="#F0D19A"/>
<path d="M103.097 15.64C103.011 16.1784 103.117 16.7195 103.041 17.2577C103.009 17.483 103.34 17.5387 103.372 17.3133C103.448 16.7747 103.342 16.2329 103.428 15.6956C103.464 15.4707 103.134 15.4153 103.097 15.64Z" fill="#F0D19A"/>
<path d="M105.091 16.7475C104.418 17.0223 103.744 17.2971 103.07 17.572C102.868 17.6543 102.987 17.9837 103.189 17.9012C103.863 17.6263 104.536 17.3515 105.21 17.0768C105.412 16.9944 105.294 16.665 105.091 16.7475Z" fill="#F0D19A"/>
<path d="M102.608 20.6141C102.223 20.8038 101.67 20.9826 101.244 20.9027C101.031 20.8627 100.976 21.2116 101.188 21.2515C101.669 21.3418 102.291 21.1584 102.727 20.9433C102.922 20.8472 102.805 20.5172 102.608 20.6141Z" fill="#F0D19A"/>
<path d="M100.503 19.471C100.558 19.7277 100.656 19.9718 100.742 20.2173C100.794 20.3636 100.999 20.829 100.954 20.9246C100.857 21.1289 101.163 21.2706 101.26 21.0669C101.356 20.8638 101.213 20.5508 101.15 20.3609C101.049 20.0557 100.904 19.7518 100.837 19.4352C100.791 19.2163 100.457 19.25 100.503 19.471Z" fill="#F0D19A"/>
<path d="M102.749 23.4236C102.345 23.2319 101.933 23.0405 101.505 22.9163C101.114 22.8034 100.691 22.8119 100.313 22.6547C100.113 22.5715 99.9747 22.8945 100.175 22.978C100.513 23.1187 100.879 23.1386 101.233 23.2124C101.711 23.3118 102.17 23.5373 102.611 23.7469C102.808 23.8402 102.945 23.5169 102.749 23.4236Z" fill="#F0D19A"/>
<path d="M98.3356 20.8365C98.6793 21.1234 98.9031 21.5557 99.153 21.9294C99.4071 22.3091 99.6334 22.7076 99.8563 23.1087C99.9646 23.3037 100.235 23.0919 100.127 22.8978C99.6963 22.1225 99.2249 21.1259 98.5465 20.5599C98.3781 20.4194 98.1665 20.6954 98.3356 20.8365Z" fill="#F0D19A"/>
<path d="M100.994 24.3987C100.77 23.8595 100.5 23.344 100.296 22.795C100.218 22.5842 99.9039 22.7115 99.9825 22.923C100.187 23.4718 100.456 23.9874 100.681 24.5266C100.767 24.7335 101.081 24.6068 100.994 24.3987Z" fill="#F0D19A"/>
<path d="M98.2057 23.0392C98.5155 22.9103 98.9025 22.9486 99.2242 22.9806C99.54 23.0122 99.8798 23.0525 100.171 23.1894C100.368 23.2817 100.506 22.9584 100.309 22.8661C99.9625 22.7035 99.5576 22.6532 99.1824 22.6229C98.8267 22.5943 98.4272 22.5684 98.0873 22.7101C97.8859 22.7938 98.0042 23.1232 98.2057 23.0392Z" fill="#F0D19A"/>
<path d="M24.6418 18.0651C24.6418 18.0651 22.6145 15.027 22.4801 12.8001C22.3459 10.5734 22.7899 9.81465 23.8317 9.30178C24.8735 8.78876 26.0779 10.3009 26.1165 11.5168C26.1551 12.7327 25.9697 14.7963 24.6418 18.0651Z" fill="#F0D19A"/>
<path d="M21.8877 16.5974C21.8877 16.5974 18.3 15.5828 16.6448 13.9701C14.9897 12.3574 14.7789 11.4931 15.1711 10.4318C15.5632 9.37061 17.4895 9.75007 18.3683 10.6529C19.247 11.5558 20.5575 13.2496 21.8877 16.5974Z" fill="#F0D19A"/>
<path d="M27.7714 21.0469C27.7714 21.0469 26.53 17.2053 27.0917 14.7845C27.6533 12.3636 28.378 11.6818 29.6752 11.4376C30.9723 11.1932 31.8027 13.1622 31.4582 14.4738C31.1137 15.7856 30.2559 17.9386 27.7714 21.0469Z" fill="#F0D19A"/>
<path d="M29.9742 21.7375C29.9742 21.7375 30.4163 17.7876 31.9445 15.8116C33.4726 13.8354 34.4296 13.4953 35.7374 13.7696C37.0452 14.0438 36.999 16.1423 36.1337 17.1976C35.2684 18.2531 33.576 19.8736 29.9742 21.7375Z" fill="#F0D19A"/>
<path d="M30.4535 23.2764C30.4535 23.2764 32.3037 21.7092 33.8365 21.4253C35.3694 21.1413 35.9558 21.3579 36.4492 21.9787C36.9426 22.5997 36.0473 23.5046 35.2057 23.6374C34.3642 23.7702 32.9031 23.8351 30.4535 23.2764Z" fill="#F0D19A"/>
<path d="M23.7299 18.9378C23.7299 18.9378 20.6562 16.8543 18.3386 16.6193C16.021 16.3844 15.2079 16.7727 14.6228 17.7442C14.0377 18.7156 15.5582 19.9392 16.8253 20.0344C18.0924 20.1294 20.255 20.0507 23.7299 18.9378Z" fill="#F0D19A"/>
<path d="M26.692 22.072C26.692 22.072 22.7422 20.7015 20.1889 21.1227C17.6355 21.5438 16.8894 22.2039 16.5724 23.4324C16.2554 24.6608 18.2706 25.5488 19.6559 25.2822C21.0414 25.0157 23.3293 24.2985 26.692 22.072Z" fill="#F0D19A"/>
<path d="M27.3075 24.2108C27.3075 24.2108 23.164 24.4445 21.0286 25.811C18.8933 27.1774 18.4925 28.0761 18.7161 29.3394C18.9397 30.6027 21.1321 30.659 22.2749 29.8821C23.4177 29.1053 25.19 27.565 27.3075 24.2108Z" fill="#F0D19A"/>
<path d="M28.8907 24.7428C28.8907 24.7428 27.1666 26.4366 26.7969 27.8884C26.4273 29.3403 26.6253 29.9112 27.2497 30.4125C27.874 30.9139 28.8612 30.1012 29.0401 29.3031C29.2189 28.505 29.3566 27.1113 28.8907 24.7428Z" fill="#F0D19A"/>
<path d="M21.0399 15.3534C21.2306 15.5461 21.4213 15.739 21.6143 15.9323C22.619 16.9463 23.6267 17.9563 24.6429 18.9563C24.7777 19.0893 24.9126 19.2223 25.05 19.3532C25.8787 20.1679 26.7157 20.9748 27.5641 21.7678C27.6567 21.8546 27.7491 21.9413 27.8416 22.0281C28.2414 22.4009 28.6437 22.772 29.0489 23.1388C29.0903 23.1779 29.1339 23.2174 29.1777 23.2547C29.1832 23.2625 29.189 23.268 29.1972 23.274C29.2347 23.3079 29.2741 23.3444 29.3141 23.3787C29.3611 23.4233 29.4105 23.4684 29.4603 23.5113C29.4739 23.525 29.4901 23.537 29.5038 23.5508C29.9571 23.958 30.4133 24.3611 30.8747 24.7606C31.0299 24.8945 31.1869 25.0314 31.3443 25.1659L30.8404 25.0792L30.8259 25.1635C30.772 25.1176 30.7187 25.0696 30.6648 25.0238C30.1993 24.6213 29.739 24.2153 29.2821 23.8028C29.274 23.797 29.268 23.7913 29.2603 23.783C29.1771 23.7094 29.0938 23.6356 29.0131 23.56C28.995 23.5455 28.9773 23.5287 28.9619 23.5124C28.491 23.0884 28.0234 22.6582 27.561 22.2244C27.4246 22.1002 27.289 21.9718 27.1556 21.8436C26.2644 21.0069 25.3866 20.1587 24.5148 19.3023C24.3623 19.1526 24.2098 19.0029 24.0578 18.851C23.2879 18.0923 22.5236 17.3275 21.762 16.561C21.4291 16.2248 21.0958 15.891 20.7651 15.5551C20.6075 15.3955 20.8844 15.194 21.0399 15.3534Z" fill="#F0D19A"/>
<path d="M22.8295 18.8674C23.3332 19.0769 23.884 19.1001 24.3895 19.2996C24.6012 19.3831 24.7325 19.0746 24.5207 18.991C24.0148 18.7913 23.4633 18.7678 22.9609 18.5588C22.7506 18.4713 22.6196 18.7801 22.8295 18.8674Z" fill="#F0D19A"/>
<path d="M24.3717 17.1871C24.4818 17.9064 24.5919 18.6256 24.702 19.3448C24.7348 19.5603 25.0828 19.5221 25.0498 19.3063C24.9398 18.5869 24.8297 17.8678 24.7196 17.1486C24.6866 16.933 24.3387 16.9712 24.3717 17.1871Z" fill="#F0D19A"/>
<path d="M27.5523 20.504C27.647 20.9226 27.6917 21.5023 27.5144 21.8978C27.426 22.0952 27.7525 22.2303 27.8407 22.0335C28.0408 21.5866 28.0074 20.9396 27.9002 20.4653C27.8521 20.2533 27.5039 20.2902 27.5523 20.504Z" fill="#F0D19A"/>
<path d="M25.9497 22.2837C26.212 22.2911 26.4722 22.2525 26.7311 22.2255C26.8855 22.2096 27.3859 22.1184 27.4682 22.185C27.6442 22.3272 27.8535 22.0627 27.678 21.9209C27.5031 21.7796 27.1652 21.8459 26.9658 21.8628C26.6455 21.8899 26.3161 21.9597 25.9928 21.9506C25.7691 21.9445 25.7238 22.2776 25.9497 22.2837Z" fill="#F0D19A"/>
<path d="M30.3173 21.0224C30.0367 21.3703 29.7542 21.7264 29.5336 22.114C29.3327 22.4672 29.2422 22.8809 29.0013 23.2116C28.8737 23.3867 29.1554 23.5967 29.2834 23.4211C29.4989 23.1252 29.6039 22.7744 29.7581 22.4472C29.9664 22.0058 30.2925 21.6122 30.5995 21.2319C30.736 21.0628 30.4537 20.8533 30.3173 21.0224Z" fill="#F0D19A"/>
<path d="M26.7718 24.7103C27.1309 24.443 27.6037 24.3263 28.0251 24.1704C28.4538 24.0119 28.8941 23.8849 29.336 23.7617C29.5509 23.7018 29.4081 23.3895 29.1942 23.4491C28.3398 23.6872 27.2608 23.913 26.5519 24.4407C26.3761 24.5715 26.5952 24.8418 26.7718 24.7103Z" fill="#F0D19A"/>
<path d="M30.8559 22.9558C30.2793 23.048 29.715 23.1902 29.1337 23.2606C28.9102 23.2876 28.961 23.6226 29.1849 23.5954C29.7662 23.525 30.3305 23.3829 30.9073 23.2906C31.1284 23.2554 31.0785 22.9203 30.8559 22.9558Z" fill="#F0D19A"/>
<path d="M28.8833 25.3504C28.8303 25.0191 28.9577 24.6518 29.0639 24.3464C29.1683 24.0466 29.2868 23.7257 29.4879 23.4741C29.6236 23.3042 29.3413 23.0948 29.2057 23.2646C28.9666 23.5639 28.8231 23.9459 28.7064 24.3036C28.5954 24.6429 28.4771 25.0252 28.5354 25.3889C28.5701 25.6043 28.918 25.566 28.8833 25.3504Z" fill="#F0D19A"/>
<path d="M24.2557 76.1955C24.2557 76.1955 20.8074 77.0937 18.7117 76.5061C16.6162 75.9186 16.0586 75.2668 15.9185 74.1426C15.7787 73.0184 17.5573 72.3914 18.6904 72.7441C19.8237 73.0971 21.6666 73.9271 24.2557 76.1955Z" fill="#F0D19A"/>
<path d="M22.023 78.2656C22.023 78.2656 19.9415 81.2487 17.9261 82.2592C15.9107 83.2699 15.0466 83.1879 14.1936 82.4875C13.3407 81.7869 14.3059 80.1323 15.4188 79.6108C16.532 79.0892 18.5119 78.4225 22.023 78.2656Z" fill="#F0D19A"/>
<path d="M28.004 74.2634C28.004 74.2634 24.0663 74.1804 22.0141 72.8893C19.962 71.5982 19.5651 70.7124 19.7542 69.4386C19.9434 68.1647 22.0237 68.0283 23.1229 68.7649C24.2219 69.5015 25.9324 70.98 28.004 74.2634Z" fill="#F0D19A"/>
<path d="M29.3443 72.4534C29.3443 72.4534 25.8445 70.7841 24.5112 68.7439C23.1779 66.704 23.17 65.7132 23.8406 64.5952C24.5112 63.4774 26.4309 64.1903 27.1273 65.3251C27.8238 66.4599 28.7768 68.5379 29.3443 72.4534Z" fill="#F0D19A"/>
<path d="M30.9162 72.5032C30.9162 72.5032 30.0627 70.2969 30.2907 68.7933C30.5187 67.2895 30.9057 66.8182 31.6356 66.5616C32.3655 66.3053 32.9136 67.4197 32.7671 68.2378C32.6208 69.0559 32.2139 70.4237 30.9162 72.5032Z" fill="#F0D19A"/>
<path d="M24.7689 77.3151C24.7689 77.3151 21.8663 79.4829 20.9093 81.5442C19.9524 83.6055 20.0505 84.4791 20.7591 85.3287C21.4677 86.1785 23.0814 85.1679 23.5738 84.0302C24.0663 82.8925 24.6847 80.8738 24.7689 77.3151Z" fill="#F0D19A"/>
<path d="M28.6043 75.5859C28.6043 75.5859 26.0792 78.7889 25.6516 81.2771C25.2241 83.7654 25.5943 84.6642 26.6255 85.3488C27.6566 86.0336 29.1188 84.4596 29.3157 83.0974C29.5127 81.7351 29.5825 79.3967 28.6043 75.5859Z" fill="#F0D19A"/>
<path d="M30.7724 75.7017C30.7724 75.7017 29.6642 79.5959 30.2416 82.0008C30.8191 84.4057 31.5194 85.0622 32.7554 85.2598C33.9913 85.4572 34.7435 83.4542 34.3927 82.1526C34.0417 80.8509 33.1879 78.7252 30.7724 75.7017Z" fill="#F0D19A"/>
<path d="M31.7683 74.4123C31.7683 74.4123 32.779 76.5425 33.9993 77.3471C35.2196 78.1518 35.8091 78.1517 36.4706 77.7362C37.1323 77.3209 36.6986 76.1513 36.0199 75.7314C35.3413 75.3116 34.1005 74.7394 31.7683 74.4123Z" fill="#F0D19A"/>
<path d="M20.605 78.6498C20.8437 78.5356 21.0825 78.4212 21.3223 78.3052C22.578 77.7028 23.8309 77.0968 25.0775 76.4794C25.243 76.3976 25.4087 76.3158 25.5734 76.2311C26.5891 75.7273 27.6003 75.2136 28.6023 74.6848C28.7118 74.6272 28.8213 74.5697 28.931 74.5123C29.4023 74.2628 29.8728 74.0103 30.3405 73.754C30.3898 73.7284 30.44 73.701 30.4884 73.6724C30.4973 73.6698 30.5044 73.6661 30.5124 73.6606C30.5558 73.6367 30.602 73.6122 30.6462 73.5864C30.7026 73.5572 30.7599 73.5261 30.8154 73.4939C30.8323 73.4857 30.8485 73.4746 30.8656 73.4665C31.3857 73.1787 31.9031 72.8869 32.4187 72.5891C32.5919 72.4889 32.7681 72.3878 32.9424 72.2857L32.7014 72.7226L32.7745 72.7629C32.7151 72.7979 32.6538 72.8317 32.5943 72.8667C32.0746 73.1674 31.5532 73.4618 31.0271 73.7512C31.019 73.7569 31.0121 73.7606 31.002 73.765C30.9074 73.8183 30.8128 73.8715 30.7174 73.9216C30.6982 73.9337 30.6771 73.9446 30.6569 73.9537C30.1157 74.2524 29.5697 74.546 29.0222 74.8335C28.8643 74.9196 28.7026 75.0035 28.5419 75.0856C27.4857 75.6397 26.4234 76.178 25.3554 76.708C25.1688 76.8008 24.9821 76.8936 24.7933 76.9852C23.8479 77.4525 22.899 77.9126 21.9491 78.3699C21.5328 78.5693 21.1186 78.7698 20.7033 78.9675C20.5058 79.0618 20.4086 78.7421 20.605 78.6498Z" fill="#F0D19A"/>
<path d="M24.4163 78.1225C24.7701 77.7253 24.9675 77.2248 25.3129 76.8226C25.4575 76.6541 25.215 76.4343 25.0704 76.603C24.7248 77.0056 24.5268 77.5064 24.1736 77.9028C24.0257 78.0688 24.2685 78.2882 24.4163 78.1225Z" fill="#F0D19A"/>
<path d="M23.36 76.1641C24.0582 76.2924 24.7564 76.4208 25.4546 76.5491C25.6636 76.5876 25.7396 76.2545 25.5301 76.216C24.8319 76.0877 24.1337 75.9594 23.4355 75.831C23.2263 75.7927 23.1505 76.1255 23.36 76.1641Z" fill="#F0D19A"/>
<path d="M27.4336 74.2918C27.8499 74.3383 28.3984 74.4822 28.7065 74.772C28.8602 74.9166 29.0891 74.6588 28.9356 74.5144C28.5879 74.1874 27.9807 74.0113 27.5092 73.9589C27.2983 73.9352 27.2212 74.2682 27.4336 74.2918Z" fill="#F0D19A"/>
<path d="M28.5622 76.3377C28.6528 76.0984 28.7003 75.8462 28.7582 75.5987C28.7929 75.4512 28.8687 74.961 28.9562 74.9064C29.1437 74.7894 28.9666 74.5121 28.7798 74.6286C28.5938 74.7446 28.547 75.0773 28.4989 75.2665C28.4216 75.5704 28.3806 75.8964 28.269 76.1915C28.1917 76.3958 28.4844 76.5438 28.5622 76.3377Z" fill="#F0D19A"/>
<path d="M28.7949 71.9088C29.0259 72.2786 29.264 72.6528 29.5507 72.9798C29.8121 73.2779 30.1646 73.4935 30.3926 73.8212C30.513 73.9947 30.7968 73.8021 30.6757 73.628C30.4719 73.3348 30.1818 73.1261 29.9296 72.8794C29.5893 72.5463 29.3307 72.1199 29.0781 71.7155C28.9657 71.5356 28.6826 71.7289 28.7949 71.9088Z" fill="#F0D19A"/>
<path d="M31.0617 76.3552C30.9298 75.9386 30.9735 75.4657 30.9645 75.0274C30.9553 74.5815 30.9787 74.1349 31.0065 73.6883C31.0199 73.471 30.6865 73.5029 30.673 73.7193C30.6195 74.5829 30.4829 75.6498 30.7428 76.4716C30.8074 76.6757 31.1264 76.5599 31.0617 76.3552Z" fill="#F0D19A"/>
<path d="M30.7494 72.0298C30.6502 72.5908 30.6009 73.1564 30.48 73.7147C30.4336 73.9293 30.7585 73.9896 30.8051 73.7744C30.9259 73.216 30.9752 72.6505 31.0743 72.0896C31.1125 71.8742 30.7876 71.8132 30.7494 72.0298Z" fill="#F0D19A"/>
<path d="M32.3265 74.6131C32.0042 74.5562 31.7062 74.3212 31.4587 74.1258C31.2157 73.9338 30.9577 73.722 30.79 73.4563C30.6768 73.277 30.3935 73.4703 30.5067 73.6495C30.7062 73.9655 31.0124 74.2197 31.305 74.4418C31.5823 74.6523 31.897 74.8836 32.251 74.946C32.4603 74.9829 32.5363 74.6499 32.3265 74.6131Z" fill="#F0D19A"/>
<path d="M2.51424 60.6451C1.81672 60.4409 1.11447 60.3472 0.422061 60.3537C0.395726 60.5131 0.369003 60.674 0.345337 60.8342C1.01669 60.8199 1.702 60.9073 2.37941 61.1057C5.96202 62.1547 8.02415 65.9246 6.97617 69.5032C6.10392 72.482 3.35022 74.4099 0.386227 74.3706C0.412006 74.5307 0.440451 74.6916 0.470674 74.8516C3.60988 74.8536 6.51116 72.799 7.43674 69.638C8.55917 65.805 6.35131 61.7687 2.51424 60.6451Z" fill="white"/>
<path d="M14.3795 64.8623C13.228 58.449 8.54017 53.5398 2.68721 51.7851C2.32169 52.78 1.99074 53.7862 1.69312 54.8024C6.4771 56.2018 10.3141 60.1948 11.2526 65.4234C12.4672 72.1867 8.41322 78.6993 2.03507 80.7287C2.38747 81.7244 2.78532 82.7088 3.22733 83.6813C10.9694 81.0946 15.8628 73.1301 14.3795 64.8623Z" fill="white"/>
<path d="M127.018 91.1534C127.018 91.1534 127.018 91.1534 127.018 91.1534L1.87638 91.0161C1.64075 91.0159 1.44991 90.8245 1.4502 90.589C1.45047 90.3535 1.64148 90.1628 1.87688 90.1628C1.87703 90.1628 1.87715 90.1628 1.87737 90.1628L127.018 90.3C127.254 90.3003 127.445 90.4915 127.445 90.7271C127.444 90.9626 127.253 91.1534 127.018 91.1534Z" fill="#1A1B3B"/>
<path d="M110.848 93.2745C110.847 93.2745 110.847 93.2745 110.847 93.2745L55.0714 93.2133C54.9142 93.2131 54.7871 93.0856 54.7872 92.9285C54.7874 92.7715 54.9148 92.6443 55.0717 92.6443C55.0718 92.6443 55.072 92.6443 55.0721 92.6443L110.848 92.7056C111.005 92.7057 111.132 92.8332 111.132 92.9904C111.132 93.1473 111.005 93.2745 110.848 93.2745Z" fill="#1A1B3B"/>
<path d="M45.7338 93.2031C45.7336 93.2031 45.7336 93.2031 45.7335 93.2031L24.6197 93.18C24.4626 93.1798 24.3354 93.0522 24.3356 92.8952C24.3357 92.7382 24.4631 92.6111 24.62 92.6111C24.6202 92.6111 24.6203 92.6111 24.6205 92.6111L45.7342 92.6342C45.8912 92.6343 46.0185 92.7618 46.0182 92.919C46.0181 93.0759 45.8908 93.2031 45.7338 93.2031Z" fill="#1A1B3B"/>
<path d="M6.11188 50.003C5.89553 49.7483 5.98777 49.3943 5.86476 49.1132C5.77265 48.9024 5.62331 48.9081 5.47186 48.7601C5.30974 48.6016 5.26941 48.4253 5.17402 48.2251C5.06913 48.0051 4.81734 47.225 4.49678 47.3908C4.27237 47.507 4.38777 48.2077 4.43694 48.3974C4.18627 48.4393 3.90197 48.1933 3.65813 48.1185C3.36212 48.0276 3.16139 48.0142 3.01745 47.7369C2.88434 47.4803 2.84188 47.1755 2.5926 46.9808C2.35632 46.7962 2.16265 46.8831 1.88596 46.8696C1.82152 47.2428 2.11581 47.779 2.21969 48.1357C2.35938 48.6153 2.32181 48.8353 2.7696 49.1304C3.19467 49.4106 3.65636 49.571 4.07803 49.8704C4.42689 50.1179 4.74378 50.3826 5.1094 50.6075C5.4258 50.8019 6.09727 51.1701 6.11188 50.003Z" fill="#AB493A"/>
<path d="M25.9391 63.3806C25.5598 65.1074 23.4552 65.7482 21.9102 65.2816C20.0745 64.7279 19.7839 62.4287 19.6197 60.808C19.5237 59.8619 19.5237 58.9201 19.544 57.9784C19.5687 56.8272 19.6253 55.679 19.576 54.5264C19.5194 53.1951 19.7185 51.9815 19.8812 50.6662C20.0499 49.3145 20.0441 47.9803 20.1806 46.6213C20.2154 46.2681 19.1866 46.0589 19.2548 41.95C19.5891 42.5997 20.938 42.8976 20.938 42.8976C20.938 42.8976 23.3801 48.5112 23.8629 50.1171C23.8586 50.293 23.5831 54.4887 23.5758 54.6673C23.5162 56.1513 24.0308 57.6178 24.8461 58.8445C25.1048 59.2325 25.3331 59.6278 25.5189 60.0348C25.9973 61.0711 26.2036 62.1756 25.9391 63.3806Z" fill="#F1483E"/>
<path d="M25.939 63.3806C25.5597 65.1074 23.4551 65.7482 21.9101 65.2816C20.0744 64.7279 19.7838 62.4287 19.6195 60.808C19.5235 59.8619 19.5235 58.9201 19.5439 57.9784C19.7488 57.4709 19.9058 57.0757 19.9117 57.0176C19.9292 56.8475 21.2052 54.2183 21.2735 54.1354C21.3433 54.0526 21.8565 54.1828 21.8565 54.1828C21.8565 54.1828 21.352 58.7399 23.0191 60.5931C24.0525 61.7411 24.971 60.8662 25.5188 60.0348C25.9971 61.0711 26.2035 62.1756 25.939 63.3806Z" fill="#EF342B"/>
<path d="M56.7754 10.7681C56.3499 10.7681 55.9194 10.8301 55.4946 10.957C53.9677 11.4133 52.8362 12.6111 52.4677 14.1615L39.8492 67.2615C39.4808 68.8119 39.9525 70.3908 41.1109 71.4852C42.2695 72.5794 43.8728 72.9606 45.3996 72.5043L97.6949 56.8822C99.2218 56.4261 100.353 55.2281 100.722 53.6776C101.09 52.1273 100.618 50.5483 99.4601 49.4541L59.7833 11.9762C58.9472 11.1864 57.879 10.7681 56.7754 10.7681ZM44.1159 73.4052C42.834 73.4052 41.5938 72.9194 40.6226 72.0021C39.2773 70.7313 38.7296 68.8976 39.1574 67.0971L51.7759 13.9971C52.2038 12.1965 53.5178 10.8054 55.2911 10.2757C57.0644 9.74594 58.9262 10.1884 60.2717 11.4592L99.9483 48.9371C101.294 50.2079 101.842 52.0417 101.414 53.8421C100.986 55.6427 99.6717 57.0338 97.8984 57.5636L45.6031 73.1857C45.11 73.333 44.6098 73.4052 44.1159 73.4052Z" fill="#8C0E1E"/>
<path d="M92.7183 7.40034C92.715 7.40034 92.712 7.40034 92.7087 7.40034C92.2638 7.40361 91.8673 7.63659 91.6477 8.0233L82.6799 23.8257C82.4604 24.2126 82.464 24.6724 82.6891 25.056C82.9127 25.4366 83.3087 25.6631 83.7496 25.6631C83.7527 25.6631 83.756 25.6631 83.7591 25.6631L101.928 25.5283C102.373 25.525 102.77 25.2921 102.989 24.9054C103.209 24.5185 103.205 24.0585 102.98 23.6751L93.7788 8.00751C93.5551 7.62677 93.1592 7.40034 92.7183 7.40034ZM83.7493 26.3743C83.0535 26.3743 82.4289 26.017 82.0758 25.4161C81.7204 24.8109 81.715 24.0851 82.0616 23.4747L91.0293 7.67242C91.3758 7.06184 92.0014 6.69447 92.7035 6.68921C92.7084 6.68921 92.7134 6.68921 92.7184 6.68921C93.4143 6.68921 94.0391 7.04663 94.3918 7.64739L103.593 23.315C103.948 23.9201 103.954 24.6459 103.608 25.2562C103.261 25.8667 102.635 26.2342 101.933 26.2394L83.7644 26.3743C83.7594 26.3743 83.7543 26.3743 83.7493 26.3743Z" fill="#8C0E1E"/>
<path d="M18.8788 64.4912L25.2477 89.2646L26.3582 89.0134C26.3582 89.0134 25.4758 65.2288 22.7462 57.8909C20.0166 50.553 16.0816 62.2038 18.8788 64.4912Z" fill="#2A2C6A"/>
<path d="M25.6611 89.1521C25.6412 88.9381 23.6457 67.6512 21.6796 59.4791L21.9563 59.4126C23.927 67.6044 25.9243 88.9114 25.9444 89.1258L25.6611 89.1521Z" fill="#1A1B3B"/>
<path d="M14.0434 59.2125L12.9036 89.6L14.0303 89.8406C14.0303 89.8406 21.249 67.0065 20.1823 59.8701C19.1156 52.7339 14.0434 59.2125 14.0434 59.2125Z" fill="#3D399B"/>
<path d="M13.322 89.9285L13.0422 89.8763C13.0947 89.5964 18.2712 61.8731 17.498 59.4898L17.7685 59.4019C18.5639 61.8536 13.5363 88.7834 13.322 89.9285Z" fill="#1A1B3B"/>
<path d="M12.9038 89.6L12.4279 90.7079C12.2685 91.079 12.3187 91.5069 12.5597 91.8309L13.1882 92.6764C13.4342 93.0071 13.9214 93.0302 14.1975 92.724L14.2653 92.6486C14.635 92.2388 14.7465 91.658 14.5552 91.1406L14.0436 89.7573L12.9038 89.6Z" fill="#1A1B3B"/>
<path d="M25.2519 89.2869L25.4659 90.4836C25.4952 90.6472 25.6342 90.7685 25.8003 90.7753L29.6231 90.9333C29.8401 90.9423 29.9923 90.7217 29.9068 90.522C29.8885 90.4792 29.8505 90.4481 29.8048 90.4382L27.2992 89.9065C27.1422 89.8732 27.001 89.7879 26.8984 89.6642L26.3582 89.0134L25.2699 89.2596C25.2575 89.2625 25.2496 89.2745 25.2519 89.2869Z" fill="#1A1B3B"/>
<path d="M31.8522 49.6555C32.5075 49.2436 32.8568 48.7882 33.7513 48.7229C34.3509 48.679 34.8602 48.4701 35.4504 48.4465C36.1512 48.4184 36.6288 47.3697 36.9421 46.7917C37.029 46.6312 37.411 46.0936 37.3155 45.9059C37.1801 45.6402 36.5641 46.1784 36.3605 46.2704C35.7733 46.5358 34.2357 47.254 33.5735 47.1821C33.7237 46.8089 34.6776 45.8268 33.9319 46.0839C33.46 46.2466 32.9755 46.8266 32.5976 47.1366C31.7673 47.8181 30.7366 48.2031 31.8522 49.6555Z" fill="#AB493A"/>
<path d="M22.1468 37.273C21.9123 37.9164 22.0706 38.7154 22.4457 39.2794C22.9055 39.9706 23.7281 40.3088 24.2842 40.904C25.0592 41.7333 25.4222 43.0103 24.8864 44.0644C24.3327 45.1538 23.2522 45.493 22.1065 45.5137C21.9664 45.5163 21.9659 45.7343 22.1065 45.7318C23.8777 45.6996 25.5694 44.6284 25.3391 42.6381C25.2406 41.7872 24.7846 41.0172 24.1383 40.4655C23.1854 39.6523 21.8086 38.8358 22.3571 37.331C22.4051 37.199 22.1945 37.142 22.1468 37.273Z" fill="#1A1B3B"/>
<path d="M17.5282 35.679C18 35.243 18.616 35.0042 19.0549 34.4921C19.5026 33.9697 19.9664 33.3828 20.0448 32.678C20.2412 30.91 18.6258 29.9434 16.9953 30.1059C15.3796 30.2666 14.0395 31.049 13.604 32.6752C13.2611 33.9555 13.1977 35.2623 12.4305 36.4165C11.9022 37.211 11.0587 37.7591 10.404 38.4513C9.78959 39.1007 9.35518 39.833 8.95251 40.6206C8.38372 41.7326 8.19699 43.4109 8.81979 44.5341C9.23202 45.2775 9.79887 45.9063 10.5044 46.3751C11.1152 46.7808 11.73 47.3954 12.4641 47.5503C14.1136 47.8985 15.281 45.8124 15.9658 44.6309C16.6697 43.4166 17.5022 41.8197 17.4338 40.3782C17.3713 39.0643 16.6652 37.8204 17.066 36.4779C17.1807 36.0939 17.4055 35.9039 17.5282 35.679Z" fill="#1A1B3B"/>
<path d="M19.2723 32.5784C20.8267 32.08 23.366 33.2646 23.1491 35.1461C22.9625 36.7649 21.5273 38.2266 22.6635 39.8211C23.178 40.5431 24.0928 41.0488 24.3737 41.9298C24.6542 42.8092 24.359 43.9269 23.401 44.2189C22.3501 44.5389 21.003 43.9094 20.049 43.4816C19.1631 43.0845 18.2537 42.2971 17.9637 41.3449C17.6223 40.2243 17.8517 39.2303 18.1047 38.1262C18.3693 36.9716 18.5734 35.625 19.2723 32.5784Z" fill="#1A1B3B"/>
<path d="M19.1857 41.9898C20.3758 41.7476 22.2778 43.01 23.0727 43.756C24.1403 44.7581 25 45.7747 25.6277 47.1014C26.1098 48.1208 26.3993 49.205 26.7533 50.2677C26.8278 50.4914 26.8772 50.8928 27.0003 51.219C27.0619 51.3823 27.1418 51.5265 27.2524 51.62C27.4203 51.6114 27.6233 51.6712 27.7455 51.563C28.6476 50.7639 29.1672 50.1081 29.8806 49.3033C30.2159 48.9246 30.5762 48.3033 30.9484 47.9675C31.0076 47.9141 31.6005 47.6671 31.6062 47.6651C31.8107 47.594 32.4462 48.3532 32.5627 48.5642C33.3253 49.6247 32.3742 50.7958 31.6156 51.5344C30.396 52.7218 29.3593 54.4979 27.7745 55.139C27.2923 55.3338 26.5579 55.2327 26.0997 55.0145C25.0823 54.5301 24.9552 53.2202 24.5145 52.3199C24.1834 51.6437 23.958 50.9596 23.7642 50.234C23.229 48.2301 21.6355 46.4286 19.1857 41.9898Z" fill="#F1483E"/>
<path d="M19.7301 43.2769C19.3638 44.3031 17.7405 43.5982 17.2738 43.0647C16.6547 42.3584 16.7375 41.7378 16.6386 40.8454C16.582 40.3381 16.5414 39.9443 16.5239 39.6421C16.4367 38.0912 16.9702 38.9225 19.1996 38.9734C18.9308 39.5082 18.8523 40.2859 18.9831 40.9282C18.9859 40.953 18.9918 40.9791 18.9976 41.0039C19.1343 41.5982 19.935 42.7015 19.7301 43.2769Z" fill="#AB493A"/>
<path d="M16.7534 41.7713C16.7534 41.7713 19.4711 45.2232 19.3695 41.8864C19.3695 41.8864 23.383 45.8911 21.7742 56.2687C21.6736 56.9167 21.2313 57.4649 20.619 57.673C20.0436 57.8686 19.1979 57.9888 18.013 57.7936L16.7534 41.7713Z" fill="white"/>
<path d="M18.9831 40.9282C17.6386 41.0663 16.9003 40.2888 16.5239 39.6421C16.4367 38.0912 16.9702 38.9225 19.1996 38.9735C18.9308 39.5082 18.8523 40.2859 18.9831 40.9282Z" fill="#89352C"/>
<path d="M20.8712 35.8792C20.8719 36.0267 20.8694 36.1822 20.8619 36.3425C20.8712 38.1013 19.5631 40.4269 17.5955 39.7557C17.4313 39.7152 17.2707 39.6598 17.1178 39.5896C16.6588 39.3787 16.268 39.0332 16.0349 38.5459C15.9313 38.3898 15.8416 38.2235 15.7654 38.052C15.6433 37.7787 15.5546 37.4924 15.498 37.2134C15.4267 36.8645 15.4297 36.5506 15.5473 36.2381C15.7959 35.5812 16.5618 34.9373 18.2391 34.0072C18.7042 33.7485 19.2391 33.4678 19.8538 33.1598C20.2565 33.9198 20.6459 34.43 20.7999 35.1771C20.845 35.3893 20.8697 35.619 20.8712 35.8792Z" fill="#AB493A"/>
<path d="M19.9678 32.9456C20.6698 31.5485 19.5899 30.1881 18.2696 29.6934C16.6724 29.0951 14.8537 29.7168 13.8365 31.0484C12.7131 32.519 12.6745 34.4872 11.6839 36.0198C10.6241 37.6597 8.62133 38.3764 8.04743 40.3522C7.49569 42.2518 8.41277 44.1654 10.0609 45.1718C10.181 45.2452 10.2907 45.0568 10.171 44.9837C8.18826 43.7729 7.46268 41.2378 8.79789 39.2586C9.35464 38.4335 10.2363 37.9638 10.9348 37.2809C11.5506 36.679 12.0458 35.9582 12.3654 35.1585C13.0349 33.4838 13.2788 31.4602 14.8686 30.3487C15.7974 29.6991 17.0416 29.496 18.1198 29.8691C19.328 30.2869 20.4363 31.5287 19.7796 32.8355C19.7167 32.9607 19.9048 33.0712 19.9678 32.9456Z" fill="#1A1B3B"/>
<path d="M8.46042 42.142C8.19347 43.8385 8.17608 45.3845 9.25256 46.8207C10.1944 48.0771 11.6008 48.8101 13.168 48.8687C13.3084 48.874 13.3081 48.656 13.168 48.6508C11.6697 48.5947 10.3234 47.8896 9.42746 46.6857C8.39909 45.3038 8.41436 43.8284 8.67066 42.1999C8.69232 42.0626 8.48226 42.0036 8.46042 42.142Z" fill="#1A1B3B"/>
<path d="M19.4613 60.6337C19.39 61.5958 18.8814 62.5231 18.4482 63.3545C17.6052 64.9664 16.2448 66.046 14.3787 66.0549C13.3656 66.0607 12.3003 66.02 11.5692 65.209C10.9471 64.5201 10.6187 63.4518 10.5271 62.5434C10.3746 61.0159 10.7219 59.3169 11.3381 57.9158C11.4704 57.6134 11.6114 57.3126 11.7524 57.0102C11.9966 56.4811 12.2393 55.9465 12.4296 55.3957C12.4965 55.2007 12.5547 55.0017 12.6055 54.8012C12.7581 54.1892 12.8526 53.5598 13.0169 52.9552C13.4791 51.2547 13.447 45.9251 13.5313 44.1809C13.5531 43.7333 13.6244 43.0299 16.6082 41.6914C16.9992 41.5155 18.4802 45.7215 18.6314 46.1388C18.9525 47.0282 19.1516 47.9541 19.1516 48.9046C19.1502 50.5905 19.236 52.2765 19.082 53.9538C18.9409 55.4726 18.8988 56.9057 19.1764 58.3984C19.3087 59.1075 19.5165 59.9127 19.4613 60.6337Z" fill="#F1483E"/>
<path d="M16.5729 55.3438C16.3094 55.837 15.838 56.2776 15.3841 56.5959C15.1418 56.7659 14.8802 56.9058 14.6064 56.9972C14.382 57.0752 14.1577 57.1287 13.9376 57.1636C13.0572 57.3037 12.2422 57.1476 11.7524 57.0102C11.9966 56.4812 12.2394 55.9465 12.4297 55.3957C12.4966 55.2007 12.5548 55.0014 12.606 54.7996C12.7987 54.7023 12.9718 54.586 13.1299 54.4564C13.2882 54.3268 13.4314 54.1841 13.5648 54.0312C13.8521 53.7446 14.0649 53.3789 14.2351 52.9792C14.3201 52.7796 14.3946 52.5713 14.4625 52.3604C14.8589 51.1764 14.0056 49.7541 15.1433 48.9008C15.4278 48.7585 15.8545 48.7585 16.1389 49.043C16.7053 49.6092 16.9479 50.628 17.0469 51.3928C17.1692 52.3391 17.0682 53.2998 16.9032 54.2344C16.8368 54.611 16.7577 54.9918 16.58 55.3303C16.5775 55.3348 16.5753 55.3392 16.5729 55.3438Z" fill="#EF342B"/>
<path d="M15.3902 37.1352C13.7987 38.2319 12.5251 40.266 12.1863 42.1664C11.9365 43.5679 12.5045 45.6915 13.8883 46.383C14.0135 46.4456 14.124 46.2576 13.9984 46.1949C12.52 45.456 12.1121 43.1691 12.5063 41.7457C12.9702 40.0707 14.0574 38.3175 15.5003 37.3235C15.6149 37.2444 15.5061 37.0554 15.3902 37.1352Z" fill="#2F2969"/>
<path d="M11.2218 42.1903C10.6749 44.4132 11.801 46.3554 13.6942 47.4972C13.8147 47.5701 13.9245 47.3816 13.8044 47.3091C11.9962 46.2185 10.9085 44.3762 11.4321 42.2484C11.4655 42.1121 11.2554 42.0539 11.2218 42.1903Z" fill="#2F2969"/>
<path d="M20.7999 35.1771C20.5486 34.6247 20.236 34.3849 19.9017 35.1945C19.2462 36.7846 16.6693 37.754 15.7654 38.052C15.6433 37.7787 15.5546 37.4924 15.498 37.2134C15.4267 36.8645 15.4297 36.5506 15.5473 36.2381L17.431 35.3064L18.2391 34.0072C18.7042 33.7485 19.2391 33.4678 19.8538 33.1598C20.2565 33.9198 20.6459 34.43 20.7999 35.1771Z" fill="#89352C"/>
<path d="M14.7182 40.1846C14.1421 39.1763 15.0596 37.5857 15.9188 36.9848C16.4389 36.621 17.0849 36.4572 17.6143 36.1151C18.168 35.7571 18.7369 35.3408 19.2035 34.8736C19.8744 34.2023 20.4914 32.5907 19.638 31.7786C18.6151 30.8052 16.7531 32.2431 15.9963 32.9477C15.318 33.5792 14.7178 34.3653 14.3591 35.2194C13.9837 36.1131 14.1317 36.9282 14.7182 40.1846Z" fill="#1A1B3B"/>
<path d="M19.5959 32.6698C20.0465 33.6536 20.0229 34.7352 19.1836 35.5142C18.5542 36.0982 17.6785 36.3225 16.9371 36.7217C15.794 37.3374 14.5396 38.3939 14.262 39.7257C14.2332 39.8626 14.4434 39.9211 14.4722 39.7836C14.6962 38.7092 15.6153 37.8291 16.4954 37.2398C17.2723 36.7196 18.1967 36.4812 18.9671 35.9592C20.1627 35.1491 20.3618 33.8211 19.7842 32.5597C19.7259 32.4323 19.5379 32.5429 19.5959 32.6698Z" fill="#1A1B3B"/>
<path d="M17.2375 31.0887C17.9244 31.0042 18.8273 31.178 19.2242 31.8125C19.5842 32.3878 19.2437 33.0769 18.9358 33.5893C18.8635 33.7098 19.0518 33.8196 19.1241 33.6992C19.478 33.1103 19.8111 32.3545 19.4124 31.7024C18.9832 31.0001 17.9987 30.777 17.2375 30.8706C17.0999 30.8876 17.0982 31.1057 17.2375 31.0887Z" fill="#2F2969"/>
<path d="M27.4907 51.5172C27.0854 51.6436 26.6139 51.9599 26.6844 52.4438C26.7048 52.5821 26.9215 52.5587 26.9012 52.4196C26.8456 52.0387 27.2639 51.8157 27.5715 51.7197C27.7053 51.6779 27.6243 51.4755 27.4907 51.5172Z" fill="white"/>
<path d="M15.8244 38.3848C16.5068 40.195 19.3697 40.6005 20.2748 38.7378C20.336 38.612 20.148 38.5014 20.0867 38.6278C19.2751 40.2977 16.6563 39.9761 16.0346 38.3267C15.9855 38.1967 15.7748 38.2531 15.8244 38.3848Z" fill="white"/>
<path d="M19.1781 57.4132C18.721 58.2672 19.2123 59.2274 19.2639 60.1186C19.3384 61.4001 18.8324 62.6175 18.2027 63.7104C16.877 66.0115 13.9884 66.6394 11.6848 65.4525C11.5603 65.3884 11.4499 65.5766 11.5748 65.6408C13.5367 66.6517 16.143 66.4734 17.7005 64.7896C18.4784 63.9488 19.0722 62.7037 19.3498 61.5956C19.5055 60.9747 19.5314 60.3132 19.4374 59.6807C19.3322 58.9728 19.0018 58.2045 19.3664 57.5232C19.4327 57.3994 19.2446 57.2893 19.1781 57.4132Z" fill="white"/>
<path d="M15.8171 42.3596C16.2633 43.0778 15.3 42.0643 15.9138 42.6039C16.7019 43.2969 16.7245 44.5206 16.5814 45.4856C16.3099 47.3179 16.3337 49.0964 15.8366 50.8822C15.5828 51.7941 15.2846 52.716 14.9825 53.6191C14.6493 54.6164 14.3615 55.2513 13.2347 55.411C11.5238 55.6537 9.59478 54.3382 8.29006 53.4049C7.47709 52.8235 6.51306 52.3342 5.76404 51.6972C5.40447 51.3914 5.01184 51.0401 5.10629 50.5555C5.17879 50.1833 5.45697 49.8686 5.65603 49.5351C5.7427 49.3899 5.92226 49.3278 6.07915 49.3911C7.65288 50.0256 9.16703 50.8299 10.7378 51.4686C11.4811 49.997 11.5403 48.4411 12.0705 46.9228C12.5264 45.6167 13.1338 43.9919 14.2438 43.1179C14.6187 42.8225 15.4696 43.0761 15.2854 42.5374C15.1971 42.2791 16.164 42.9498 15.8171 42.3596Z" fill="#F1483E"/>
<path d="M14.5923 42.9542C15.6245 43.3263 16.2861 44.0332 16.4458 45.1368C16.5928 46.1523 16.541 47.3115 16.0291 48.2202C15.9601 48.3426 16.1484 48.4526 16.2173 48.3303C16.792 47.3102 16.8619 45.9185 16.6083 44.7911C16.3734 43.7467 15.6276 43.0963 14.6502 42.744C14.5181 42.6964 14.4611 42.907 14.5923 42.9542Z" fill="white"/>
<path d="M12.2767 53.1991C11.7118 51.3611 9.16851 51.3096 7.9197 50.1212C7.81874 50.025 7.95619 49.8555 8.05825 49.9526C9.34135 51.1738 11.8922 51.2078 12.4802 53.121C12.5213 53.2547 12.318 53.3337 12.2767 53.1991Z" fill="white"/>
<path d="M11.8253 51.9498C12.0819 51.9592 12.3389 51.9411 12.5623 51.8027C12.6808 51.7291 12.809 51.9054 12.6894 51.9798C12.4135 52.1511 12.1105 52.1772 11.7927 52.1656C11.6526 52.1603 11.6867 51.9447 11.8253 51.9498Z" fill="white"/>
<path d="M92.4246 35.2313L92.9013 33.5636L93.3779 31.8958L94.584 33.1426L95.7899 34.3892L94.1072 34.8103L92.4246 35.2313Z" fill="#D0021B"/>
<path d="M90.2963 69.0889L90.773 67.421L91.2496 65.7533L92.4557 67L93.6616 68.2467L91.979 68.6677L90.2963 69.0889Z" fill="#D0021B"/>
<path d="M24.9949 11.0543L25.4716 9.38653L25.9482 7.71878L27.1543 8.96539L28.3602 10.2122L26.6776 10.6332L24.9949 11.0543Z" fill="#D0021B"/>
<path d="M79.1065 12.6401L78.5047 11.0133L77.903 9.38654L79.6128 9.67868L81.3225 9.97096L80.2144 11.3056L79.1065 12.6401Z" fill="#D0021B"/>
<path d="M11.798 24.8982C11.4751 24.8321 11.1351 24.9169 10.7787 25.1521C10.4542 25.3663 10.2593 25.6347 10.1931 25.9575C10.1011 26.4071 10.1907 26.8381 10.4571 27.2525C10.4612 27.2599 10.4616 27.2682 10.4663 27.2754C10.5688 27.4306 10.7777 27.4734 10.9329 27.371C11.088 27.2685 11.1309 27.0597 11.0284 26.9045C11.028 26.9039 11.0274 26.9036 11.0271 26.9031C10.8149 26.5804 10.7359 26.285 10.7909 26.0169C10.8239 25.8554 10.9134 25.7266 11.0593 25.6303C11.2376 25.5125 11.4075 25.4701 11.569 25.5033C11.7571 25.542 11.9265 25.6747 12.0763 25.9015C12.1941 26.0801 12.2307 26.2767 12.1867 26.4919C12.1095 26.8692 12.0732 27.1487 12.0777 27.3319C12.0821 27.5838 12.201 27.8867 12.4334 28.2404C12.4348 28.2426 12.4348 28.2451 12.4362 28.2474C12.5163 28.3687 12.6797 28.4023 12.8011 28.3221C12.9226 28.242 12.956 28.0786 12.8759 27.9571C12.8752 27.9561 12.8741 27.9557 12.8735 27.9547C12.6825 27.6641 12.611 27.398 12.6604 27.1568C12.7265 26.8338 12.7788 26.5782 12.8175 26.3898C12.8836 26.0669 12.8259 25.768 12.6438 25.492C12.4298 25.1678 12.1476 24.9701 11.798 24.8982Z" fill="#BA1D55"/>
<path d="M13.1205 28.8056C12.9583 28.9126 12.9136 29.1309 13.0206 29.293C13.1277 29.4552 13.3459 29.4998 13.508 29.3929C13.6702 29.2858 13.7148 29.0676 13.6078 28.9055C13.5008 28.7432 13.2826 28.6987 13.1205 28.8056Z" fill="#BA1D55"/>
<path d="M17.5337 21.0362C17.2467 20.7418 16.8363 20.591 16.3036 20.5841C15.8186 20.5778 15.4294 20.7182 15.1349 21.0052C14.7248 21.4047 14.5153 21.9125 14.5 22.5269C14.4991 22.5374 14.4936 22.5464 14.4934 22.557C14.4905 22.789 14.6761 22.9796 14.908 22.9826C15.1401 22.9856 15.3306 22.8 15.3336 22.568C15.3336 22.5671 15.3332 22.5664 15.3332 22.5654C15.3404 22.0839 15.4657 21.7236 15.7103 21.4852C15.8575 21.3417 16.0402 21.2715 16.2583 21.2743C16.5249 21.2777 16.7298 21.3531 16.8733 21.5003C17.0404 21.6721 17.1222 21.9277 17.118 22.2669C17.1144 22.5339 17.0146 22.7624 16.8181 22.9537C16.4742 23.2889 16.241 23.5521 16.1172 23.7444C15.9453 24.0075 15.8557 24.4036 15.8479 24.9314C15.8477 24.9345 15.8459 24.9372 15.8459 24.9405C15.8436 25.122 15.9888 25.271 16.1703 25.2733C16.3516 25.2757 16.5007 25.1305 16.503 24.949C16.5031 24.9475 16.5021 24.9463 16.5023 24.9448C16.5087 24.511 16.6213 24.1863 16.8413 23.9719C17.1359 23.6849 17.3691 23.4576 17.5409 23.2902C17.8355 23.0032 17.9854 22.654 17.9907 22.2419C17.9969 21.7572 17.8443 21.3554 17.5337 21.0362Z" fill="#BA1D55"/>
<path d="M16.1611 25.9961C15.9186 25.993 15.7196 26.187 15.7165 26.4292C15.7133 26.6717 15.9073 26.8706 16.1497 26.8738C16.392 26.8769 16.591 26.683 16.5941 26.4407C16.5973 26.1982 16.4034 25.9992 16.1611 25.9961Z" fill="#BA1D55"/>
<path d="M118.032 44.6262C117.767 44.4308 117.422 44.3653 117 44.4294C116.616 44.4879 116.326 44.6497 116.131 44.9152C115.859 45.2848 115.76 45.7136 115.828 46.2015C115.828 46.2099 115.825 46.2178 115.827 46.2262C115.854 46.4101 116.026 46.5364 116.21 46.5085C116.394 46.4806 116.52 46.3089 116.492 46.125C116.492 46.1245 116.492 46.1239 116.492 46.1232C116.434 45.7413 116.487 45.4399 116.649 45.2196C116.747 45.0869 116.882 45.0074 117.055 44.9811C117.266 44.949 117.438 44.9818 117.571 45.0795C117.725 45.1936 117.823 45.3849 117.864 45.6537C117.896 45.8653 117.847 46.0592 117.717 46.2361C117.489 46.5462 117.339 46.7848 117.266 46.9529C117.164 47.1835 117.145 47.5083 117.208 47.9269C117.208 47.9293 117.207 47.9317 117.207 47.9344C117.229 48.0782 117.364 48.1771 117.507 48.1552C117.651 48.1334 117.75 47.9992 117.728 47.8552C117.728 47.8539 117.727 47.8531 117.727 47.852C117.676 47.5082 117.722 47.2365 117.868 47.0383C118.064 46.7729 118.218 46.5627 118.332 46.4078C118.528 46.1422 118.601 45.8467 118.551 45.5199C118.493 45.1358 118.319 44.838 118.032 44.6262Z" fill="#BA1D55"/>
<path d="M117.595 48.7281C117.402 48.7572 117.27 48.9366 117.3 49.1287C117.329 49.3209 117.508 49.4529 117.7 49.4236C117.892 49.3944 118.024 49.2151 117.995 49.0229C117.966 48.8309 117.787 48.6989 117.595 48.7281Z" fill="#BA1D55"/>
<path d="M129.552 50.0603C127.801 52.0347 127.328 54.7113 128.071 57.0593C128.449 58.2699 129.15 59.3911 130.164 60.291C131.983 61.9047 134.397 62.4353 136.605 61.9317C136.661 61.9185 136.718 61.9051 136.772 61.8902C136.766 61.7263 136.758 61.5628 136.751 61.3992C136.452 61.4793 136.149 61.539 135.844 61.5778C133.969 61.8165 132.003 61.2809 130.483 59.932C129.714 59.2497 129.134 58.4257 128.756 57.5332C127.759 55.2034 128.119 52.3989 129.911 50.3788C130.592 49.6117 131.408 49.0363 132.294 48.6561C132.191 48.526 132.084 48.399 131.974 48.2721C131.077 48.6786 130.248 49.2765 129.552 50.0603Z" fill="white"/>
<path d="M125.019 43.4032C119.367 50.1604 119.928 60.2718 126.447 66.3527C129.418 69.1267 133.142 70.6067 136.917 70.8168C137.216 69.7771 137.468 68.7255 137.666 67.6681C134.415 67.6223 131.172 66.4181 128.614 64.0313C123.151 58.9329 122.853 50.3414 127.95 44.8793C128.172 44.6416 128.402 44.4125 128.636 44.195C127.506 43.726 126.293 43.4466 125.019 43.4032Z" fill="white"/>
<path d="M41.544 7.71835C41.544 8.34031 41.0398 8.84437 40.4179 8.84437C39.7961 8.84437 39.2919 8.34031 39.2919 7.71835C39.2919 7.09654 39.7961 6.59234 40.4179 6.59234C41.0398 6.59234 41.544 7.09654 41.544 7.71835Z" fill="white"/>
<path d="M12.2097 83.8034C12.2097 84.4253 11.7055 84.9294 11.0836 84.9294C10.4617 84.9294 9.95752 84.4253 9.95752 83.8034C9.95752 83.1815 10.4617 82.6773 11.0836 82.6773C11.7055 82.6773 12.2097 83.1815 12.2097 83.8034Z" fill="white"/>
<path d="M131.374 73.3336C131.374 73.9556 130.87 74.4598 130.248 74.4598C129.626 74.4598 129.122 73.9556 129.122 73.3336C129.122 72.7118 129.626 72.2076 130.248 72.2076C130.87 72.2076 131.374 72.7118 131.374 73.3336Z" fill="white"/>
<path d="M40.4175 9.81848C39.8914 9.81848 39.4084 9.6232 39.0401 9.30119C38.5988 8.91505 38.3186 8.34856 38.3186 7.71793C38.3186 7.39891 38.3902 7.09483 38.5199 6.82346C38.8553 6.11247 39.5798 5.61894 40.4175 5.61894C41.5759 5.61894 42.518 6.56105 42.518 7.71793C42.518 8.87637 41.5759 9.81848 40.4175 9.81848ZM40.4175 5.46989C39.5991 5.46989 38.8806 5.91122 38.4884 6.56717C38.2858 6.90396 38.1694 7.2975 38.1694 7.71793C38.1694 8.4723 38.5436 9.14162 39.1147 9.55009C39.4829 9.8125 39.9315 9.96753 40.4175 9.96753C41.6578 9.96753 42.6671 8.95829 42.6671 7.71793C42.6671 6.47913 41.6578 5.46989 40.4175 5.46989Z" fill="white"/>
<path d="M46.9261 82.3574C46.9261 82.9793 46.4219 83.4835 45.8001 83.4835C45.1781 83.4835 44.674 82.9793 44.674 82.3574C44.674 81.7355 45.1781 81.2313 45.8001 81.2313C46.4219 81.2313 46.9261 81.7355 46.9261 82.3574Z" fill="white"/>
<path d="M45.7998 84.4576C45.2736 84.4576 44.7906 84.2622 44.4223 83.9402C43.981 83.554 43.7008 82.9877 43.7008 82.3569C43.7008 82.0379 43.7724 81.7338 43.9019 81.4624C44.2374 80.7515 44.9619 80.2579 45.7998 80.2579C46.9581 80.2579 47.9002 81.2 47.9002 82.3569C47.9002 83.5153 46.9581 84.4576 45.7998 84.4576ZM45.7998 80.1089C44.9813 80.1089 44.2628 80.5502 43.8708 81.206C43.668 81.5429 43.5518 81.9367 43.5518 82.3569C43.5518 83.1113 43.9258 83.7807 44.4969 84.1892C44.8651 84.4516 45.3138 84.6065 45.7998 84.6065C47.04 84.6065 48.0494 83.5973 48.0494 82.3569C48.0494 81.1181 47.04 80.1089 45.7998 80.1089Z" fill="white"/>
<path d="M100.225 54.714C102.463 57.6187 100.717 61.857 97.0825 62.3429L70.0336 65.9584L42.9849 69.5738C39.3503 70.0597 36.5526 66.4288 37.9492 63.0381L48.3425 37.8053L58.7357 12.5727C60.1324 9.18201 64.6757 8.57471 66.9139 11.4795L83.5694 33.0966L100.225 54.714Z" fill="#D0021B"/>
<path d="M92.8793 52.9342C94.6264 55.2694 93.2858 58.6594 90.4663 59.0363L69.4834 61.841L48.5007 64.6457C45.6812 65.0224 43.4973 62.1037 44.5697 59.3915L52.5509 39.2091L60.5319 19.0267C61.6045 16.3147 65.129 15.8435 66.876 18.1787L79.8776 35.5564L92.8793 52.9342Z" fill="white"/>
<path d="M71.9902 54.922C71.6305 56.4127 70.1306 57.3294 68.6402 56.9697C67.1495 56.61 66.2328 55.1101 66.5925 53.6195C66.9522 52.129 68.4521 51.2122 69.9428 51.572C71.4332 51.9317 72.35 53.4317 71.9902 54.922Z" fill="#D0021B"/>
<path d="M63.1445 29.2663L66.9664 46.0707C67.0908 46.6168 67.6096 46.9792 68.1653 46.9077C68.7454 46.8329 69.1623 46.3125 69.1087 45.7301L67.5287 28.5691C67.4132 27.3142 66.2794 26.4057 65.0295 26.5668C63.7278 26.7344 62.8535 27.9867 63.1445 29.2663Z" fill="#D0021B"/>
<path d="M104.837 25.6216C105.141 26.8546 103.996 27.9544 102.776 27.6013L93.6983 24.9732L84.6206 22.345C83.4009 21.9918 83.0207 20.4507 83.9364 19.5708L90.7513 13.0233L97.5661 6.47586C98.4819 5.59605 100.007 6.03738 100.311 7.27049L102.574 16.4461L104.837 25.6216Z" fill="#D0021B"/>
<path d="M102.756 24.0326C102.984 25.0166 102.086 25.9039 101.14 25.63L94.0982 23.5913L87.0561 21.5525C86.11 21.2786 85.825 20.0487 86.5432 19.3387L91.889 14.0554L97.2346 8.77198C97.953 8.06213 99.1359 8.40447 99.3637 9.3884L101.06 16.7105L102.756 24.0326Z" fill="white"/>
<path d="M95.8582 21.748C95.536 22.1703 94.9328 22.2515 94.5106 21.9297C94.0883 21.6077 94.0071 21.0043 94.3291 20.5821C94.651 20.1598 95.2544 20.0786 95.6766 20.4006C96.0988 20.7226 96.18 21.3259 95.8582 21.748Z" fill="#D0021B"/>
<path d="M96.6341 12.3821L95.5007 18.2416C95.4638 18.432 95.5778 18.6193 95.7639 18.6742C95.9582 18.7314 96.1629 18.6246 96.2272 18.4324L98.1209 12.7728C98.2593 12.3589 98.0268 11.9129 97.6081 11.7894C97.1721 11.661 96.7203 11.9359 96.6341 12.3821Z" fill="#D0021B"/>
<path d="M45.8009 19.8294C45.6916 19.8294 45.5838 19.7793 45.5141 19.6845L41.6429 14.4195C41.5265 14.2614 41.5605 14.0388 41.7187 13.9224C41.877 13.8061 42.0994 13.8399 42.2157 13.9982L46.087 19.2632C46.2034 19.4214 46.1694 19.6439 46.0112 19.7603C45.9478 19.8069 45.874 19.8294 45.8009 19.8294Z" fill="#D0021B"/>
<path d="M45.026 21.7651C44.9708 21.7651 44.9146 21.7523 44.8621 21.725L32.9559 15.5309C32.7815 15.4403 32.7138 15.2255 32.8046 15.0513C32.8952 14.8772 33.1098 14.8094 33.284 14.9L45.1904 21.0941C45.3646 21.1847 45.4323 21.3994 45.3417 21.5737C45.2784 21.6954 45.1544 21.7651 45.026 21.7651Z" fill="#D0021B"/>
<path d="M44.2921 23.7782C44.2768 23.7782 44.2613 23.7772 44.2458 23.7752L36.4989 22.7687C36.3042 22.7434 36.1668 22.565 36.1921 22.3703C36.2174 22.1756 36.3963 22.0389 36.5906 22.0635L44.3374 23.07C44.5323 23.0954 44.6695 23.2737 44.6442 23.4684C44.621 23.6476 44.4681 23.7782 44.2921 23.7782Z" fill="#D0021B"/>
<path d="M104.962 42.6756C104.958 42.6756 104.955 42.6756 104.951 42.6755L99.3082 42.5113C99.1119 42.5057 98.9575 42.3418 98.9632 42.1455C98.9687 41.9493 99.137 41.7959 99.3288 41.8005L104.972 41.9646C105.168 41.9703 105.323 42.1342 105.317 42.3304C105.311 42.5233 105.153 42.6756 104.962 42.6756Z" fill="#D0021B"/>
<path d="M98.4844 40.9669C98.3494 40.9669 98.2204 40.8897 98.1607 40.7588C98.0792 40.5802 98.158 40.3693 98.3366 40.2878L107.406 36.1507C107.585 36.0693 107.795 36.148 107.877 36.3266C107.958 36.5052 107.88 36.7162 107.701 36.7976L98.6317 40.9347C98.584 40.9565 98.5337 40.9669 98.4844 40.9669Z" fill="#D0021B"/>
<path d="M97.4161 39.3412C97.3243 39.3412 97.2325 39.3058 97.1628 39.2353C97.0252 39.0955 97.0266 38.8703 97.1664 38.7325L100.971 34.9804C101.11 34.8426 101.336 34.8442 101.474 34.984C101.611 35.1238 101.61 35.3489 101.47 35.4867L97.6659 39.2387C97.5965 39.3071 97.5063 39.3412 97.4161 39.3412Z" fill="#D0021B"/>
<path d="M96.0138 77.7156C96.4857 76.172 98.7382 76.0484 99.9065 76.3182C100.703 76.5023 101.39 76.8358 102.119 77.2059C102.905 77.6047 103.744 77.8888 104.512 78.3418C106.389 79.4474 108.492 80.1111 110.681 80.1986C112.595 80.2752 114.669 79.6981 116.469 79.1033C117.995 78.5991 119.547 78.1013 121.06 77.5385C121.76 77.2784 122.649 76.8864 123.397 76.8608C124.303 76.8298 126.411 77.2218 126.36 78.175C126.217 80.8308 121.72 82.9639 119.735 84.1197C118.481 84.8494 117.211 85.556 115.961 86.29C115.075 86.8101 114.123 87.2025 113.102 87.301C111.12 87.4917 109.021 86.5974 107.343 85.6217C105.276 84.4199 103.497 82.8081 101.551 81.4085C100.769 80.8465 99.9435 80.4652 96.0138 77.7156Z" fill="#2A2C6A"/>
<path d="M120.547 78.5996C120.253 78.9973 119.852 79.7459 119.458 79.8863C119.073 80.0241 118.779 79.5576 118.396 79.5082C116.703 79.2893 114.963 80.6591 113.348 81.2947C111.218 82.1339 108.94 82.8962 106.731 82.8878C105.731 82.884 104.74 83.1009 103.77 82.6434C103.085 82.3211 101.98 81.7232 101.447 80.938C100.542 79.6054 101.44 77.8235 101.838 76.4172C102.536 73.9478 102.824 71.3864 103.317 68.8293C103.664 67.0246 104.124 64.6893 105.331 63.8268C107.458 62.307 109.871 61.186 112.235 61.346C113.969 61.4634 115.743 62.3782 117.045 64.1893C118.05 65.5883 118.499 67.5807 118.989 69.4658C119.238 70.4215 119.488 71.4027 119.856 72.2674C120.249 73.1882 120.791 73.9306 121.077 74.9681C121.457 76.3474 121.262 77.6292 120.547 78.5996Z" fill="#F9C421"/>
<path d="M108.251 62.2156C108.46 61.6581 109.687 61.3786 110.201 61.2874C111.075 61.1324 112.015 61.245 112.886 61.3672C113.745 61.4878 114.856 61.8555 114.562 62.9675C114.347 63.7814 113.799 64.5871 113.383 65.3136C113.112 65.7885 112.818 66.2324 112.505 66.6799C112.41 66.8155 112.327 66.9748 112.243 67.1361C112.06 67.4871 111.565 67.5221 111.343 67.1948C110.891 66.5305 110.263 65.9408 109.756 65.3449C108.984 64.4392 108.314 63.7464 108.251 62.2156Z" fill="#F1483E"/>
<path d="M105.665 71.2698C105.649 70.7455 105.819 70.257 105.914 69.7563C106.04 69.0869 106.173 68.8291 106.623 69.542C106.826 69.8638 107.598 70.8388 107.506 71.2184C107.418 71.5864 106.213 71.8092 105.665 71.2698Z" fill="#F89D1A"/>
<path d="M115.637 70.8523C115.624 70.4281 115.765 70.0475 115.845 69.6415C115.887 69.4316 115.954 68.5033 116.134 68.3847C116.655 68.0421 117.341 70.3476 117.347 70.7117C117.355 71.1406 117.205 71.0684 116.751 71.156C116.467 71.2109 116.106 71.3238 115.637 70.8523Z" fill="#F89D1A"/>
<path d="M118.034 79.1055C117.718 79.3165 117.376 79.6003 117.019 79.799C116.887 79.8724 116.754 79.9341 116.619 79.9758C116.622 79.9007 116.683 79.7371 116.78 79.5168C116.934 79.1681 117.181 78.6782 117.441 78.1774C117.91 77.2679 118.419 76.3215 118.484 76.1096C118.613 75.6932 118.682 75.3128 118.728 74.8788C118.815 74.0534 119.268 73.3851 119.88 72.7024C120.127 72.4255 120.401 72.1467 120.685 71.8537C120.735 72.5822 121.063 73.2958 121.135 74.0234C121.248 75.185 118.913 78.5203 118.034 79.1055Z" fill="#AB493A"/>
<path d="M105.748 78.1917C105.692 78.6014 105.599 79.0011 105.54 79.4091C105.515 79.5862 105.497 79.7654 105.492 79.9474C105.492 79.9565 105.491 79.9665 105.491 79.9758C105.484 79.9699 105.477 79.9633 105.469 79.9565C104.738 79.3224 102.979 76.8982 102.503 76.1005C102.165 75.5347 101.587 74.5324 101.659 73.8564C102.031 73.9776 102.342 74.1988 102.647 74.384C102.817 74.4884 102.986 74.5799 103.161 74.6384C103.551 74.767 104.381 74.7913 104.638 75.1292C104.874 75.4396 105.796 77.8395 105.748 78.1917Z" fill="#AB493A"/>
<path d="M114.135 89.7951C114.481 89.8477 114.803 90.1525 115.113 90.3167C115.628 90.5886 116.146 90.6571 116.725 90.6296C117.186 90.6075 117.668 90.5212 118.124 90.426C118.542 90.339 119.048 90.3139 119.431 90.0985C119.843 89.8665 120.403 89.3107 120.541 88.8551C120.737 88.206 120.048 88.1203 119.559 88.052C118.61 87.9194 117.452 87.9919 116.513 88.0845C115.943 88.1409 115.394 88.2346 114.828 88.2948C114.184 88.3629 113.65 88.4374 114.135 89.7951Z" fill="#1A1B3B"/>
<path d="M109.587 88.3777C108.65 88.6772 107.777 88.4192 106.833 88.2107C106.25 88.082 105.708 87.8239 105.112 87.7935C104.447 87.7595 104.083 87.9968 103.562 88.3949C103.032 88.8003 102.744 89.0963 103.077 89.7107C103.134 89.8153 103.189 89.9046 103.246 89.9805C103.688 90.3862 104.311 90.4731 104.945 90.51C105.071 90.5173 105.199 90.5227 105.325 90.5281C106.541 90.5462 107.709 90.5462 108.951 90.2804C109.058 90.2382 109.164 90.1862 109.267 90.1215C109.37 90.0569 109.47 89.9795 109.567 89.8865C109.652 89.8128 109.725 89.7323 109.784 89.6469C110.019 89.3047 110.022 88.8854 109.587 88.3777Z" fill="#1A1B3B"/>
<path d="M118.034 79.1055C117.718 79.3165 117.375 79.6003 117.019 79.799C116.891 79.7188 116.815 79.6236 116.78 79.5168C116.654 79.1413 117.037 78.6299 117.44 78.1774C117.691 77.8954 117.949 77.636 118.098 77.4465C118.459 76.9867 118.682 76.4451 119.014 75.9762C119.31 75.558 119.702 75.17 119.925 74.7028C120.189 74.1445 120.142 73.3299 119.88 72.7024C120.127 72.4255 120.4 72.1467 120.685 71.8537C120.735 72.5822 121.063 73.2958 121.135 74.0234C121.248 75.185 118.913 78.5203 118.034 79.1055Z" fill="#89352C"/>
<path d="M105.62 79.8348C105.596 79.8849 105.551 79.9215 105.492 79.9474C105.485 79.9516 105.477 79.954 105.469 79.9565C104.738 79.3224 102.979 76.8983 102.503 76.1005C102.165 75.5347 101.587 74.5324 101.659 73.8564C102.031 73.9776 102.342 74.1988 102.647 74.384C102.748 74.5216 102.849 74.6535 102.91 74.7744C103.079 75.1117 103.224 75.462 103.385 75.795C103.689 76.4242 104.06 77.0484 104.464 77.6118C104.617 77.8254 105.292 78.8041 105.54 79.4091C105.62 79.6011 105.656 79.7546 105.62 79.8348Z" fill="#89352C"/>
<path d="M121.197 70.3426C120.748 70.6705 120.127 70.8057 119.655 71.106C119.178 71.4083 118.497 71.5893 118.128 72.0183C118.855 70.9241 119.698 70.6279 120.462 70.1857C120.568 70.1247 120.797 69.9529 120.999 69.8544C121.04 69.9337 121.077 70.0154 121.112 70.1014C121.144 70.184 121.173 70.2642 121.197 70.3426Z" fill="#F89D1A"/>
<path d="M104.329 73.5745C104.126 73.2298 103.714 72.9812 103.408 72.7326C103.011 72.4121 102.618 72.0149 102.184 71.7946C101.969 71.6853 101.838 71.7128 101.685 71.7361C101.757 71.5659 101.83 71.3965 101.902 71.2262C102.251 71.3255 102.602 71.4875 102.745 71.5625C103.391 71.9031 104.12 72.4053 104.329 73.5745Z" fill="#F89D1A"/>
<path d="M117.327 72.7509C117.47 72.7134 117.587 72.5798 117.697 72.4804C117.97 72.2332 118.231 71.997 118.537 71.7909C119.144 71.3803 119.714 70.9304 120.348 70.5585C120.681 70.3635 121.037 70.2187 121.376 70.0385C121.462 69.9924 121.589 69.8756 121.696 69.8916C122.053 69.9453 122.164 70.7532 122.245 71.0172C122.32 71.2614 122.452 71.5895 122.396 71.8542C122.356 72.0415 122.227 72.2413 122.148 72.4283C122.058 72.6421 121.938 72.8135 121.724 72.9132C121.42 73.055 121.095 73.1466 120.79 73.2934C120.354 73.503 119.934 73.7543 119.522 74.0032C119.186 74.2055 118.797 74.4386 118.397 74.4407C117.68 74.4445 117.365 73.3784 117.327 72.7509Z" fill="#F9C421"/>
<path d="M104.893 75.5751C104.57 75.7084 104.122 75.4778 103.807 75.3807C103.326 75.2321 102.867 75.0509 102.401 74.8643C102.059 74.7277 101.716 74.7044 101.359 74.6371C100.572 74.4888 100.664 74.0536 100.722 73.3847C100.77 72.834 100.637 72.1918 101.029 71.7428C101.444 71.2665 102.204 71.7061 102.59 72.0231C103.453 72.7317 104.65 73.5149 104.893 75.5751Z" fill="#F9C421"/>
<path d="M113.362 61.6565C113.348 62.1906 113.269 62.7889 112.885 63.1946C112.05 64.0806 110.826 63.4006 110.022 62.8615C109.777 62.697 109.537 62.5085 109.448 62.2148C109.35 61.8909 109.462 61.5523 109.511 61.2301C109.558 60.9248 109.57 60.616 109.578 60.3072C109.581 60.1771 109.583 60.0459 109.583 59.9149C109.582 59.3842 109.547 58.8485 109.42 58.3352C112.937 58.4588 112.936 57.9406 113.108 58.8093C113.138 58.9636 113.163 59.1188 113.187 59.2741C113.218 59.4836 113.247 59.6946 113.272 59.9066C113.34 60.4866 113.378 61.0731 113.362 61.6565Z" fill="#AB493A"/>
<path d="M113.272 59.9065C113.238 59.9458 113.2 59.9818 113.159 60.0159C112.475 60.5892 111.393 60.5649 110.586 60.3789C110.179 60.2854 109.862 60.1277 109.583 59.9149C109.582 59.3841 109.547 58.8485 109.42 58.3352C112.937 58.4588 112.936 57.9405 113.108 58.8093C113.138 58.9636 113.163 59.1187 113.187 59.2741C113.218 59.4836 113.247 59.6946 113.272 59.9065Z" fill="#89352C"/>
<path d="M111.13 87.1247C110.597 86.7355 110.068 86.4177 109.566 85.9773C108.95 85.437 108.211 85.0358 107.645 84.4337C106.549 83.2673 105.243 82.3388 104.121 81.1999C102.797 79.8562 101.336 78.2776 99.7084 77.3207C98.4244 76.5656 96.2502 75.9433 95.9432 78.0499C95.7679 79.2548 96.732 80.7678 97.3093 81.7841C98.1367 83.2403 99.5059 84.0719 100.866 84.9554C103.196 86.468 105.823 87.583 108.481 88.4233C109.85 88.8561 111.261 89.182 112.635 89.5957C112.928 89.6841 113.217 89.7898 113.511 89.8784C113.62 89.9113 113.772 90.0056 113.884 90.0059C114.194 90.0064 114.082 89.9689 114.248 89.7964C114.803 89.2219 114.72 88.375 113.98 88.0427C113.536 87.8432 113.017 87.8164 111.13 87.1247Z" fill="#3D399B"/>
<path d="M109.159 58.5727C108.424 58.83 107.412 57.805 107.291 57.1771C107.163 56.5122 107.799 55.9435 107.469 55.3136C107.047 54.5097 105.91 54.0944 106.853 53.0977C107.652 52.2533 108.397 52.8999 109.031 53.5537C110.199 54.7571 109.706 55.3422 109.159 58.5727Z" fill="#1B1D39"/>
<path d="M111.606 56.1729C111.706 56.7141 111.228 57.2217 111.534 57.7625C112.002 58.5901 113.43 58.4366 114.341 57.8777C115.448 57.1987 116.37 55.0589 115.086 54.2907C113.819 53.5332 111.833 54.6217 111.606 56.1729Z" fill="#1B1D39"/>
<path d="M114.502 55.4262C114.466 56.2749 114.334 57.1352 113.906 57.8154C113.761 58.0465 113.59 58.281 113.398 58.502C112.647 59.3683 111.578 60.0351 110.495 59.5127C109.847 59.1998 109.233 58.7182 108.79 58.125C108.424 57.6343 108.176 57.067 108.124 56.4577C108.08 55.9529 108.089 55.4489 108.117 54.9472C108.15 54.3605 108.21 53.7781 108.251 53.2032C108.992 52.7084 109.636 52.3345 110.2 52.0624C111.997 51.1954 112.991 51.3716 113.79 52.0324C114.188 52.362 114.372 52.8485 114.453 53.3493C114.493 53.5979 114.507 53.8508 114.51 54.0886C114.514 54.5109 114.522 54.9664 114.502 55.4262Z" fill="#AB493A"/>
<path d="M114.502 55.4262C114.296 55.2027 114.03 55.04 113.708 54.9949C113.076 54.9081 112.596 55.4346 112.016 55.5389C111.517 55.6282 110.959 55.6191 110.48 55.4563C109.879 55.2536 109.422 54.9023 108.775 54.8721C108.588 54.8637 108.352 54.9114 108.117 54.9472C108.15 54.3605 108.211 53.7781 108.251 53.2032C108.992 52.7084 109.636 52.3345 110.2 52.0624C110.702 52.0065 111.216 52.0091 111.735 52.0557C112.528 52.1276 113.342 52.2236 113.977 52.7559C114.154 52.9044 114.316 53.103 114.453 53.3493C114.493 53.5979 114.508 53.8508 114.51 54.0886C114.514 54.5109 114.523 54.9664 114.502 55.4262Z" fill="#89352C"/>
<path d="M114.57 54.8809C114.791 54.0586 113.906 53.3924 113.188 53.4466C112.084 53.5301 111.262 54.7936 110.167 53.9233C109.954 53.7544 109.76 53.5604 109.524 53.4258C108.44 52.8064 107.837 53.8373 106.864 54.052C105.613 54.328 104.579 53.0971 104.583 51.9225C104.585 51.201 104.972 50.4968 105.583 50.1111C106.391 49.6002 107.208 49.9036 108.022 50.2335C108.855 50.5706 109.596 50.5961 110.385 50.1357C111.136 49.6975 111.85 49.1314 112.756 49.4979C113.185 49.6713 113.492 50.0565 113.882 50.2744C114.722 50.743 116.083 50.5288 116.403 51.674C116.663 52.6063 116.328 54.1007 115.861 54.9255C115.769 55.0882 115.657 55.2462 115.5 55.3483C115.092 55.6134 114.735 55.2857 114.573 54.9102L114.57 54.8809Z" fill="#1B1D39"/>
<path d="M115.765 54.8206C116.5 53.7892 117.189 52.0536 116.331 50.8858C115.906 50.3068 115.186 50.2054 114.546 50.0028C113.812 49.7704 113.425 49.0085 112.674 48.8428C111.984 48.6907 111.326 48.9275 110.709 49.2182C109.88 49.6084 109.183 49.9485 108.256 49.6811C107.611 49.4952 106.982 49.2021 106.296 49.3368C105.767 49.4403 105.301 49.7605 105 50.2034C104.312 51.2113 104.476 52.6881 105.345 53.5325C105.46 53.6448 105.637 53.4681 105.522 53.3554C104.765 52.6191 104.597 51.3522 105.144 50.4423C105.458 49.9206 106.007 49.5715 106.622 49.5513C107.247 49.5308 107.814 49.8441 108.41 49.9811C109.709 50.28 110.61 49.3096 111.818 49.0816C112.192 49.0108 112.624 49.0211 112.961 49.2162C113.253 49.3846 113.469 49.655 113.73 49.863C114.226 50.258 114.85 50.298 115.422 50.5255C117.181 51.2261 116.347 53.5747 115.549 54.6942C115.456 54.8258 115.673 54.9509 115.765 54.8206Z" fill="#1B1D39"/>
<path d="M115.089 54.8743C115.36 54.2251 114.615 53.9233 114.102 53.8471C113.79 53.8007 113.442 53.7901 113.137 53.8851C112.737 54.0101 112.406 54.3398 112.07 54.5773C111.528 54.96 111.032 55.0602 110.437 54.6914C110.022 54.4345 109.703 54.0542 109.293 53.7939C108.335 53.1872 107.47 54.0707 106.48 54.0121C105.737 53.968 104.92 53.1779 104.9 52.4183C104.882 51.7555 105.362 51.1395 105.703 50.61C105.79 50.4742 105.574 50.3485 105.487 50.4836C104.993 51.2492 104.343 52.1601 104.832 53.0856C105.076 53.5481 105.525 53.9876 106.019 54.1695C106.47 54.3354 106.942 54.2515 107.388 54.1136C107.953 53.9391 108.517 53.6417 109.087 53.9622C109.503 54.1957 109.819 54.5781 110.213 54.8445C110.598 55.1044 111.05 55.2773 111.515 55.1516C111.961 55.0304 112.317 54.6945 112.685 54.4331C113.096 54.1414 113.441 54.029 113.946 54.0788C114.329 54.1165 115.069 54.2768 114.848 54.8076C114.786 54.9562 115.028 55.021 115.089 54.8743Z" fill="#1B1D39"/>
<path d="M114.751 53.5702C114.714 53.0349 114.33 52.648 113.821 52.5093C113.485 52.4179 113.145 52.4674 112.819 52.5786C112.474 52.6968 112.055 53.026 111.694 53.036C111.286 53.0471 111.057 52.6412 110.747 52.423C110.496 52.2463 110.221 52.1179 109.914 52.0785C109.205 51.9878 108.485 52.284 107.91 52.6759C107.811 52.7436 107.904 52.9064 108.005 52.838C108.585 52.4426 109.364 52.1111 110.078 52.3004C110.387 52.3823 110.684 52.5763 110.911 52.7963C111.048 52.9289 111.158 53.1001 111.336 53.1826C111.751 53.3745 112.2 53.0397 112.567 52.8795C112.968 52.7047 113.405 52.5635 113.841 52.7096C114.232 52.8407 114.534 53.1448 114.563 53.5702C114.571 53.69 114.759 53.6909 114.751 53.5702Z" fill="#434466"/>
<path d="M114.987 52.3072C114.576 51.4817 113.606 51.5025 112.833 51.7407C112.489 51.8467 112.155 51.9511 111.791 51.9026C111.409 51.8519 111.097 51.6422 110.764 51.4662C110.257 51.1981 109.768 51.0477 109.204 51.2217C109.089 51.2573 109.138 51.4385 109.254 51.4028C110.379 51.0559 111.159 52.2584 112.287 52.0808C113.135 51.9472 114.297 51.3409 114.825 52.4019C114.879 52.51 115.041 52.415 114.987 52.3072Z" fill="#434466"/>
<path d="M107.953 56.2462C108.195 57.6478 108.942 58.9572 110.299 59.5531C111.5 60.0802 112.902 59.4437 113.673 58.4712C113.747 58.3773 113.615 58.2438 113.54 58.3383C112.752 59.3329 111.347 59.9219 110.163 59.2776C108.975 58.6316 108.357 57.4858 108.133 56.1963C108.113 56.0774 107.932 56.1279 107.953 56.2462Z" fill="white"/>
<path d="M104.416 52.157C104.464 53.5681 105.762 54.8195 107.173 54.2032C107.588 54.0218 107.889 53.685 108.288 53.4924C108.552 53.3651 108.914 53.3197 109.201 53.3704C109.531 53.4284 109.725 53.6615 109.97 53.8635C110.622 54.4018 111.435 54.2893 112.116 53.8684C112.219 53.805 112.125 53.6424 112.022 53.7063C111.606 53.9625 111.113 54.1391 110.623 54.008C110.222 53.9009 109.99 53.5827 109.665 53.358C109.173 53.0189 108.428 53.1449 107.963 53.4759C107.294 53.9526 106.551 54.4658 105.72 54.0286C105.044 53.6733 104.629 52.9057 104.604 52.157C104.6 52.0364 104.412 52.036 104.416 52.157Z" fill="white"/>
<path d="M111.76 67.5979C111.873 68.7828 111.978 69.9675 111.982 71.1584C111.983 71.2791 112.171 71.2794 112.17 71.1584C112.165 69.9675 112.06 68.7826 111.948 67.5979C111.936 67.4788 111.748 67.4776 111.76 67.5979Z" fill="white"/>
<path d="M111.92 67.6296C112.389 67.0526 112.814 66.4117 113.208 65.7819C113.625 65.1167 114.053 64.4225 114.358 63.6976C114.56 63.2144 114.841 62.6184 114.501 62.1341C114.279 61.8192 113.879 61.3957 113.492 61.2975C113.375 61.2679 113.325 61.4488 113.442 61.4786C113.784 61.5653 114.231 62.0041 114.396 62.313C114.693 62.8683 114.134 63.7849 113.871 64.2662C113.262 65.3814 112.59 66.5084 111.787 67.4969C111.711 67.5898 111.844 67.7233 111.92 67.6296Z" fill="white"/>
<path d="M108.941 61.453C108.452 61.6897 108.078 62.0583 108.122 62.6349C108.171 63.283 108.483 63.938 108.861 64.4567C109.287 65.0415 109.739 65.6256 110.217 66.1701C110.489 66.4817 110.785 66.7849 111.089 67.0655C111.294 67.2547 111.616 67.3856 111.738 67.6453C111.789 67.7548 111.951 67.6595 111.9 67.5505C111.829 67.3982 111.691 67.2984 111.561 67.1975C111.312 67.0047 111.096 66.8038 110.871 66.5821C110.38 66.097 109.954 65.567 109.535 65.0195C109.148 64.5146 108.751 64.0429 108.518 63.4432C108.403 63.148 108.271 62.7726 108.304 62.452C108.347 62.0276 108.679 61.7879 109.036 61.6151C109.145 61.5625 109.05 61.4005 108.941 61.453Z" fill="white"/>
<path d="M113.79 61.5449C114.253 61.9893 114.706 62.4388 115.007 63.0128C115.117 63.2234 115.221 63.439 115.309 63.6596C115.362 63.7929 115.534 64.1267 115.444 64.2682C115.38 64.3706 115.542 64.4649 115.606 64.3631C115.806 64.0488 115.412 63.4112 115.276 63.1313C114.947 62.4533 114.464 61.9311 113.923 61.412C113.836 61.3284 113.703 61.4609 113.79 61.5449Z" fill="white"/>
<path d="M115.5 64.2253C115.031 64.3723 114.587 64.6275 114.235 64.9725C114.149 65.0572 114.281 65.19 114.368 65.1052C114.696 64.7832 115.112 64.5436 115.55 64.4062C115.665 64.3702 115.616 64.1889 115.5 64.2253Z" fill="white"/>
<path d="M114.193 65.1142C114.471 65.4817 115.005 65.7235 115.101 66.2043C115.125 66.3228 115.306 66.2726 115.282 66.1544C115.179 65.636 114.65 65.4102 114.355 65.0195C114.283 64.9242 114.12 65.0176 114.193 65.1142Z" fill="white"/>
<path d="M115.144 66.1261C113.342 67.1176 112.553 69.4943 112.566 71.4366C112.567 71.5573 112.755 71.5576 112.754 71.4366C112.742 69.56 113.495 67.2473 115.239 66.2881C115.345 66.2299 115.25 66.0678 115.144 66.1261Z" fill="white"/>
<path d="M108.449 61.7458C107.709 62.3635 107.139 63.065 106.895 64.0125C106.865 64.1297 107.046 64.1796 107.076 64.0624C107.313 63.145 107.866 62.4753 108.582 61.8787C108.675 61.8011 108.542 61.669 108.449 61.7458Z" fill="white"/>
<path d="M106.961 64.1558C107.363 64.2268 107.86 64.466 108.101 64.8081C108.17 64.9062 108.332 64.8125 108.263 64.7134C107.993 64.3289 107.467 64.0553 107.011 63.9748C106.892 63.9539 106.842 64.1349 106.961 64.1558Z" fill="white"/>
<path d="M108.101 64.7134C107.77 65.1749 107.376 65.6014 107.42 66.2072C107.429 66.3269 107.617 66.3279 107.608 66.2072C107.566 65.6405 107.955 65.238 108.263 64.8081C108.333 64.7097 108.171 64.6159 108.101 64.7134Z" fill="white"/>
<path d="M107.514 66.3011C108.098 66.2691 108.557 66.7812 108.901 67.1917C109.24 67.5967 109.554 68.0369 109.828 68.4879C110.526 69.6339 111.05 70.8872 111.262 72.2126C111.282 72.3316 111.463 72.281 111.444 72.1627C111.208 70.6977 110.591 69.2628 109.759 68.0334C109.272 67.313 108.518 66.0581 107.514 66.1133C107.394 66.1199 107.393 66.3076 107.514 66.3011Z" fill="white"/>
<path d="M116.056 68.1183C116.308 68.5936 116.703 68.9966 116.884 69.5084C116.962 69.7279 116.986 69.9593 117.041 70.1841C117.108 70.4585 117.225 70.7161 117.298 70.9886C117.33 71.1053 117.511 71.0559 117.479 70.9388C117.406 70.6663 117.288 70.4087 117.222 70.1342C117.157 69.862 117.123 69.5875 117.014 69.3269C116.818 68.855 116.456 68.4733 116.218 68.0236C116.162 67.9166 116 68.0115 116.056 68.1183Z" fill="white"/>
<path d="M116.676 68.6828C116.673 68.5582 116.71 68.4403 116.728 68.3183C116.747 68.2001 116.566 68.1492 116.547 68.2684C116.526 68.407 116.485 68.5413 116.488 68.6828C116.492 68.8034 116.679 68.8038 116.676 68.6828Z" fill="white"/>
<path d="M105.661 71.3531C105.727 70.7097 105.814 70.1115 106.045 69.5053C106.232 69.0139 106.401 68.5118 106.242 67.9902C106.207 67.8751 106.025 67.924 106.061 68.0402C106.25 68.6595 105.925 69.2318 105.733 69.8055C105.567 70.3036 105.526 70.834 105.473 71.3531C105.461 71.4733 105.649 71.4724 105.661 71.3531Z" fill="white"/>
<path d="M106.205 69.064C106.282 68.8976 106.421 68.7333 106.588 68.6526C106.697 68.6 106.602 68.4382 106.493 68.4905C106.301 68.5834 106.132 68.7771 106.042 68.9692C105.992 69.0782 106.154 69.1736 106.205 69.064Z" fill="white"/>
<path d="M118.66 71.8236C119.27 71.4989 119.83 71.1001 120.403 70.7163C120.843 70.4211 121.322 70.2094 121.794 69.9712C121.901 69.9167 121.807 69.7549 121.699 69.8091C121.227 70.0473 120.748 70.2588 120.308 70.5543C119.736 70.9379 119.175 71.3369 118.566 71.6614C118.459 71.7183 118.554 71.8805 118.66 71.8236Z" fill="white"/>
<path d="M101.27 71.6671C102.509 71.7304 103.189 72.5838 104.082 73.311C104.175 73.3867 104.309 73.2545 104.215 73.1783C103.274 72.4124 102.569 71.5458 101.27 71.4794C101.15 71.4731 101.15 71.6609 101.27 71.6671Z" fill="white"/>
<path d="M96.0047 77.5071C96.3992 79.9738 98.2705 81.7598 100.095 83.2888C102.05 84.9278 104.385 85.9988 106.573 87.2784C107.824 88.0097 109.192 88.4503 110.521 89.0095C110.633 89.0562 110.681 88.8746 110.571 88.8284C109.845 88.523 109.103 88.2598 108.375 87.9594C107.599 87.6386 106.884 87.2349 106.156 86.8206C104.811 86.056 103.429 85.3541 102.122 84.5245C100.809 83.691 99.5909 82.6923 98.4919 81.5913C97.3733 80.4707 96.4398 79.0447 96.1857 77.4573C96.1668 77.3383 95.9858 77.3888 96.0047 77.5071Z" fill="#2A2C6A"/>
<path d="M108.769 88.5127C110.182 87.5984 111.574 86.9571 112.967 85.9875C114.481 84.9338 115.799 83.6259 117.147 82.3704C118.507 81.103 119.826 79.9577 121.354 78.8937C122.381 78.1783 123.899 76.6383 125.284 77.1423C126.621 77.6293 127.228 78.8025 126.953 80.1476C126.645 81.6562 125.633 82.7744 124.439 83.7151C123.7 84.2975 123.001 84.9456 122.229 85.4768C121.444 86.0166 120.614 86.4659 119.809 86.96C118.417 87.8146 117.153 88.5514 115.561 88.9514C114.298 89.269 113.016 89.4923 111.788 89.9099C110.819 90.2395 109.939 90.4192 108.962 90.5855C108.912 90.594 108.862 90.6037 108.812 90.6147C108.564 90.669 108.34 90.459 108.378 90.2088C108.431 89.8655 108.597 89.186 108.769 88.5127Z" fill="#3D399B"/>
<path d="M108.403 90.2994C110.17 89.9737 111.909 89.3084 113.582 88.6667C115.329 87.9965 117.012 87.1928 118.66 86.3084C121.367 84.8558 124.464 83.2559 125.874 80.3649C126.403 79.2804 126.693 77.8847 125.508 77.1316C125.406 77.0666 125.312 77.2289 125.413 77.2936C126.641 78.0743 126.097 79.5986 125.525 80.6277C124.814 81.9069 123.729 82.9135 122.557 83.7687C121.283 84.6975 119.882 85.4418 118.495 86.1841C116.907 87.0338 115.288 87.8087 113.607 88.4571C111.911 89.1111 110.145 89.788 108.353 90.1184C108.234 90.1403 108.285 90.3212 108.403 90.2994Z" fill="#2A2C6A"/>
<path d="M108.925 90.7571C108.543 90.5675 108.446 90.3047 108.526 89.9045C108.584 89.6206 108.653 89.3244 108.749 89.0504C108.998 88.3367 109.865 88.0779 110.473 87.7388C111.228 87.3168 111.965 86.8635 112.658 86.3434C113.274 85.8808 113.946 85.4861 114.493 84.938C114.578 84.8524 114.446 84.7196 114.36 84.8054C113.988 85.1778 113.559 85.4736 113.128 85.7726C112.706 86.0652 112.304 86.3838 111.877 86.6696C111.023 87.241 110.096 87.6736 109.222 88.2069C108.678 88.5388 108.552 89.0156 108.405 89.6062C108.26 90.1858 108.239 90.626 108.83 90.9192C108.938 90.9727 109.033 90.8109 108.925 90.7571Z" fill="white"/>
<path d="M116.663 83.0605C118.057 81.7388 119.437 80.3923 120.969 79.2276C121.706 78.6667 122.479 78.1497 123.291 77.703C124.226 77.1888 125.201 76.7065 126.082 77.5902C126.167 77.6759 126.3 77.5431 126.214 77.4575C125.616 76.8568 124.87 76.7439 124.1 77.082C123.12 77.5119 122.196 78.1036 121.331 78.7273C119.602 79.9733 118.073 81.465 116.53 82.9278C116.442 83.011 116.575 83.1436 116.663 83.0605Z" fill="white"/>
<path d="M96.2597 77.0523C96.959 76.3872 98.1617 76.6381 98.9617 76.9729C99.9448 77.3844 100.915 78.0423 101.495 78.9524C101.559 79.0541 101.722 78.9601 101.657 78.8577C101.028 77.8709 99.9512 77.1442 98.8703 76.7341C98.029 76.4151 96.8415 76.2399 96.1268 76.9196C96.0392 77.0028 96.1721 77.1355 96.2597 77.0523Z" fill="white"/>
<path d="M112.137 90.0013C113.289 89.2989 114.781 89.1835 116.063 88.8238C116.778 88.6229 117.49 88.399 118.185 88.132C118.912 87.8521 119.601 87.4816 120.334 87.2152C120.447 87.1743 120.399 86.9929 120.285 87.0343C119.551 87.3007 118.862 87.6706 118.135 87.951C117.393 88.2369 116.631 88.4728 115.865 88.6839C114.608 89.0302 113.173 89.1501 112.043 89.8392C111.94 89.902 112.034 90.0645 112.137 90.0013Z" fill="white"/>
<path d="M21.7306 45.1632C22.4914 46.0646 22.8535 47.174 23.0998 48.3105C23.3531 49.4787 23.5679 50.6653 23.5437 51.8639C23.5198 53.0585 23.2144 54.2707 23.28 55.4618C23.3301 56.3711 23.7158 57.1422 24.257 57.8585C24.3406 57.969 24.5299 57.8605 24.4453 57.7485C23.6101 56.6433 23.4271 55.6181 23.5697 54.2606C23.6999 53.021 23.8468 51.7707 23.7095 50.5251C23.5029 48.6484 23.1356 46.4911 21.8848 45.009C21.7942 44.9016 21.6405 45.0565 21.7306 45.1632Z" fill="white"/>
<path d="M122.85 48.9501C122.711 48.651 122.441 48.4275 122.04 48.2805C121.675 48.1465 121.343 48.1489 121.044 48.2875C120.628 48.4802 120.334 48.8083 120.159 49.2685C120.155 49.2764 120.149 49.2816 120.146 49.2897C120.082 49.4642 120.172 49.6578 120.346 49.7218C120.521 49.786 120.714 49.6964 120.778 49.5218C120.778 49.5211 120.778 49.5206 120.778 49.5199C120.912 49.1576 121.103 48.9187 121.351 48.8037C121.501 48.7345 121.658 48.7299 121.822 48.7901C122.023 48.8638 122.157 48.9754 122.227 49.125C122.307 49.2993 122.301 49.5143 122.207 49.7696C122.134 49.9704 121.997 50.1166 121.798 50.2089C121.448 50.3707 121.202 50.5075 121.057 50.6198C120.857 50.773 120.684 51.0485 120.537 51.4455C120.536 51.4479 120.534 51.4493 120.533 51.4519C120.483 51.5885 120.553 51.7397 120.69 51.7899C120.826 51.8401 120.978 51.7699 121.028 51.6333C121.028 51.6323 121.028 51.6311 121.028 51.6299C121.149 51.3038 121.32 51.0883 121.544 50.9849C121.843 50.8463 122.08 50.7367 122.254 50.6558C122.554 50.5174 122.76 50.2936 122.874 49.9832C123.008 49.6184 122.999 49.2741 122.85 48.9501Z" fill="#BA1D55"/>
<path d="M120.49 52.3338C120.308 52.267 120.106 52.3605 120.039 52.5429C119.972 52.7252 120.065 52.9275 120.248 52.9945C120.43 53.0613 120.632 52.9677 120.699 52.7852C120.766 52.6029 120.673 52.4008 120.49 52.3338Z" fill="#BA1D55"/>
<path d="M37.3607 35.0814L38.2094 33.594L39.0578 32.1066L39.9218 33.5852L40.7855 35.0638L39.0731 35.0726L37.3607 35.0814Z" fill="#D0021B"/>
</svg>
