<svg width="120" height="56" viewBox="0 0 120 56" fill="none" xmlns="http://www.w3.org/2000/svg">
<path d="M37.3205 34.3936C37.2939 34.3071 34.6532 25.6706 33.6675 21.4673C30.2349 6.82767 24.7436 3.40961 24.6887 3.37664L24.9096 3.00205C25.1407 3.13838 30.6072 6.51324 34.0903 21.3676C35.0724 25.5571 37.7091 34.1795 37.7355 34.2661L37.3205 34.3936Z" fill="#C6C5E8"/>
<path d="M23.4144 0.37642C19.9742 2.11409 28.0493 7.01422 28.0493 7.01422C28.0493 7.01422 27.9535 -1.91617 23.4144 0.37642Z" fill="#C6C5E8"/>
<path d="M25.2581 11.6951C24.7972 14.3389 30.8769 11.8606 30.8769 11.8606C30.8769 11.8606 25.8661 8.2069 25.2581 11.6951Z" fill="#C6C5E8"/>
<path d="M33.5207 7.21051C31.5098 5.43752 30.449 11.9276 30.449 11.9276C30.449 11.9276 36.1737 9.54985 33.5207 7.21051Z" fill="#C6C5E8"/>
<path d="M29.7229 26.182C29.2622 28.8258 35.3419 26.3475 35.3419 26.3475C35.3419 26.3475 30.331 22.6939 29.7229 26.182Z" fill="#C6C5E8"/>
<path d="M37.9855 21.6976C35.9748 19.9244 34.9138 26.4145 34.9138 26.4145C34.9138 26.4145 40.6386 24.0368 37.9855 21.6976Z" fill="#C6C5E8"/>
<path d="M25.3696 18.9149C24.4183 22.7677 33.6417 19.738 33.6417 19.738C33.6417 19.738 26.6246 13.8317 25.3696 18.9149Z" fill="#C6C5E8"/>
<path d="M37.6383 14.1053C35.2663 11.6941 33.3521 19.7654 33.3521 19.7654C33.3521 19.7654 40.7678 17.2867 37.6383 14.1053Z" fill="#C6C5E8"/>
<path d="M113.229 35.5429C106.489 33.0076 101.559 49.0811 102.119 50.0114C102.988 48.6844 104.267 46.7372 106.142 43.8905C109.289 39.1117 111.763 36.7025 113.229 35.5429Z" fill="#5F40AF"/>
<path d="M106.376 44.0143C104.546 46.7929 103.285 48.7129 102.418 50.0368C104.671 49.4504 118.619 39.7046 114.999 36.6259C114.494 36.1962 113.997 35.8804 113.508 35.6607C112.074 36.7816 109.557 39.1847 106.376 44.0143Z" fill="#A998D2"/>
<path d="M102.418 50.0368C103.285 48.7129 104.546 46.7929 106.376 44.0144C109.556 39.1848 112.073 36.7816 113.508 35.6607C113.415 35.6187 113.321 35.5777 113.229 35.5429C111.762 36.7025 109.288 39.1117 106.141 43.8905C104.267 46.7372 102.988 48.6844 102.119 50.0113C102.126 50.0237 102.134 50.0358 102.143 50.0426C102.188 50.0761 102.283 50.0719 102.418 50.0368Z" fill="white"/>
<path d="M103.772 49.6514C107.477 47.7567 113.542 45.1151 115.682 44.1929C112.472 39.6577 104.396 48.2411 103.772 49.6514Z" fill="#5F40AF"/>
<path d="M115.97 44.6591C115.914 44.554 115.855 44.4555 115.795 44.3608C113.658 45.2811 107.493 47.9653 103.795 49.8634C104.806 50.3275 118.307 49.0083 115.97 44.6591Z" fill="#A998D2"/>
<path d="M103.739 49.8216C103.747 49.837 103.768 49.8507 103.795 49.8634C107.493 47.9654 113.658 45.2811 115.795 44.3608C115.758 44.3029 115.72 44.2469 115.682 44.1929C113.542 45.1151 107.477 47.7567 103.772 49.6514C103.736 49.733 103.723 49.792 103.739 49.8216Z" fill="white"/>
<path d="M104.209 21.0519C103.881 22.1313 103.522 23.2933 103.142 24.5194C102.78 25.6878 102.396 26.9285 102.005 28.2113L96.3889 22.3057C96.6304 18.7582 95.802 15.0392 95.8924 12.6061C95.9107 12.116 96.0504 11.2358 96.3558 10.2216L104.981 15.843C104.943 17.5945 104.719 19.3713 104.209 21.0519Z" fill="#DFD8EF"/>
<path d="M103.609 4.10418C107.859 4.40981 110.073 7.25259 111.169 10.6362L105.527 15.1396C105.497 10.3209 104.181 5.82989 103.609 4.10418Z" fill="#DFD8EF"/>
<path d="M103.661 24.6809C104.041 23.4538 104.401 22.291 104.729 21.2102C105.255 19.4751 105.484 17.6431 105.521 15.8397L111.339 11.1966C111.789 12.7798 112.015 14.4535 112.102 16.0236C112.247 18.654 111.437 21.5985 110.443 24.4082C107.381 25.5309 103.946 27.396 102.589 28.1602C102.957 26.953 103.319 25.7846 103.661 24.6809Z" fill="#DFD8EF"/>
<path d="M104.985 15.1968L96.53 9.68557C97.4096 7.14172 99.3027 4.07132 102.85 4.07434C102.91 4.07434 102.968 4.07868 103.028 4.07973C103.545 5.60173 104.966 10.235 104.985 15.1968Z" fill="#DFD8EF"/>
<path d="M98.1312 42.4554C97.0265 40.6077 93.5751 34.7867 91.8953 31.3985C93.1233 29.9487 94.3217 28.617 95.2389 26.843C95.8488 25.6629 96.1698 24.3625 96.3204 23.0237L101.823 28.8092C100.526 33.0826 99.1554 37.8456 98.1312 42.4554Z" fill="#DFD8EF"/>
<path d="M86.9471 40.909C87.9896 36.4398 89.7557 33.966 91.514 31.8523C93.4665 35.7463 97.4365 42.3583 97.9643 43.2342C97.4247 45.7523 96.9958 48.2114 96.7495 50.506C91.9404 50.5213 87.5662 50.4938 87.326 50.5034C86.7866 50.5246 85.0989 48.8321 86.9471 40.909Z" fill="#F5CE64"/>
<path d="M102.358 28.9174C102.991 28.5533 106.796 26.3945 110.201 25.0802C109.052 28.2203 107.744 31.1426 107.377 33.1965C106.908 35.8192 107.017 37.4531 107.53 39.0046C104.893 41.0437 100.061 42.4233 98.6111 42.8054C99.6405 38.124 101.038 33.2661 102.358 28.9174Z" fill="#DFD8EF"/>
<path d="M107.723 39.5353C108.004 40.2557 108.366 40.9804 108.797 41.8019C110.258 44.5861 109.914 49.5398 109.598 50.0937C109.428 50.3918 103.147 50.4814 97.2971 50.504C97.5405 48.2625 97.9584 45.8617 98.4845 43.4012C99.5309 43.1401 104.745 41.7613 107.723 39.5353Z" fill="#DFD8EF"/>
<path d="M102.005 28.2113C102.396 26.9285 102.78 25.6878 103.142 24.5194C103.522 23.2933 103.881 22.1313 104.209 21.0519C104.719 19.3713 104.943 17.5945 104.98 15.843L105.276 16.0356L105.521 15.8396C105.484 17.6431 105.255 19.475 104.729 21.2101C104.401 22.2909 104.041 23.4537 103.66 24.6808C103.319 25.7845 102.957 26.9529 102.589 28.1601C102.423 28.2536 102.277 28.3363 102.178 28.3931L102.005 28.2113Z" fill="white"/>
<path d="M105.526 15.1395L105.243 15.3653L104.985 15.1968C104.966 10.2349 103.545 5.60168 103.028 4.07968C103.225 4.08296 103.419 4.09058 103.609 4.1041C104.18 5.82982 105.497 10.3208 105.526 15.1395Z" fill="white"/>
<path d="M98.1311 42.4554C99.1553 37.8456 100.526 33.0826 101.822 28.8092L102.079 29.0794L102.265 28.971C102.269 28.9685 102.302 28.9495 102.358 28.9173C101.038 33.266 99.6403 38.1239 98.6109 42.8053C98.521 42.829 98.4397 42.8503 98.3772 42.8661C98.3183 42.7684 98.2337 42.6271 98.1311 42.4554Z" fill="white"/>
<path d="M98.0158 43.3196L98.118 43.4893L98.311 43.4436C98.3355 43.4377 98.395 43.4235 98.4843 43.4012C97.9582 45.8616 97.5403 48.2625 97.2969 50.5039C97.1139 50.5047 96.9315 50.5053 96.7495 50.5059C96.9958 48.2114 97.4247 45.7522 97.9643 43.2341C97.988 43.2734 98.0065 43.3043 98.0158 43.3196Z" fill="white"/>
<path d="M104.98 15.8431L96.3557 10.2216C96.4083 10.0467 96.4671 9.86725 96.5299 9.6856L104.985 15.1969C104.986 15.4117 104.985 15.627 104.98 15.8431Z" fill="white"/>
<path d="M105.527 15.1395L111.169 10.6362C111.229 10.8215 111.286 11.0082 111.339 11.1965L105.521 15.8396C105.526 15.6057 105.528 15.3722 105.527 15.1395Z" fill="white"/>
<path d="M104.98 15.8431C104.985 15.627 104.985 15.4118 104.985 15.1969L105.243 15.3654L105.526 15.1396C105.528 15.3722 105.526 15.6058 105.521 15.8397L105.276 16.0356L104.98 15.8431Z" fill="white"/>
<path d="M101.823 28.8092L96.3206 23.0237C96.3474 22.7853 96.3723 22.5463 96.3887 22.3058L102.005 28.2113C101.944 28.4104 101.884 28.6079 101.823 28.8092Z" fill="white"/>
<path d="M102.588 28.1602C103.946 27.396 107.381 25.5309 110.443 24.4082C110.363 24.6331 110.283 24.8573 110.201 25.0802C106.796 26.3945 102.991 28.5533 102.358 28.9174C102.435 28.6626 102.512 28.4113 102.588 28.1602Z" fill="white"/>
<path d="M102.079 29.0794L101.823 28.8092C101.884 28.6079 101.944 28.4105 102.005 28.2114L102.177 28.3931C102.276 28.3364 102.422 28.2537 102.588 28.1601C102.512 28.4113 102.435 28.6625 102.358 28.9173C102.302 28.9495 102.269 28.9686 102.265 28.971L102.079 29.0794Z" fill="white"/>
<path d="M98.6111 42.8053C100.061 42.4232 104.893 41.0436 107.53 39.0045C107.589 39.1819 107.654 39.3587 107.723 39.5352C104.745 41.7612 99.5308 43.1401 98.4844 43.4012C98.5267 43.2025 98.5674 43.0048 98.6111 42.8053Z" fill="white"/>
<path d="M97.9642 43.2342C97.4365 42.3583 93.4664 35.7463 91.5139 31.8523C91.6413 31.6993 91.7684 31.5485 91.8952 31.3985C93.5751 34.7868 97.0264 40.6077 98.1312 42.4555C98.0731 42.7162 98.0199 42.9745 97.9642 43.2342Z" fill="white"/>
<path d="M98.3777 42.8661C98.4402 42.8502 98.5215 42.8289 98.6114 42.8053C98.5676 43.0048 98.527 43.2025 98.4846 43.4012C98.3954 43.4235 98.3358 43.4377 98.3113 43.4436L98.1184 43.4893L98.0161 43.3196C98.0068 43.3043 97.9883 43.2734 97.9646 43.2341C98.0203 42.9745 98.0735 42.7161 98.1316 42.4554C98.2342 42.6271 98.3188 42.7684 98.3777 42.8661Z" fill="white"/>
<path d="M94.6698 48.5391L94.3108 48.1739C94.364 48.1213 99.6752 42.7851 104.033 31.1759C108.434 19.451 115.8 11.956 115.873 11.8816L116.236 12.2436C116.163 12.3171 108.873 19.7395 104.512 31.3563C100.111 43.0818 94.724 48.486 94.6698 48.5391Z" fill="#C6C5E8"/>
<path d="M117.466 10.7662C120.087 12.5505 112.981 15.6843 112.981 15.6843C112.981 15.6843 114.009 8.41228 117.466 10.7662Z" fill="#C6C5E8"/>
<path d="M115.035 19.369C115.13 21.574 110.436 18.9042 110.436 18.9042C110.436 18.9042 114.91 16.4596 115.035 19.369Z" fill="#C6C5E8"/>
<path d="M108.774 14.8301C110.603 13.5989 110.778 19.0043 110.778 19.0043C110.778 19.0043 106.362 16.4544 108.774 14.8301Z" fill="#C6C5E8"/>
<path d="M113.228 26.3609C113.594 29.604 106.396 26.1489 106.396 26.1489C106.396 26.1489 112.745 22.0818 113.228 26.3609Z" fill="#C6C5E8"/>
<path d="M111.215 32.0101C111.603 35.4477 103.972 31.7856 103.972 31.7856C103.972 31.7856 110.703 27.4745 111.215 32.0101Z" fill="#C6C5E8"/>
<path d="M108.101 38.4762C108.471 41.7582 101.187 38.2618 101.187 38.2618C101.187 38.2618 107.612 34.1461 108.101 38.4762Z" fill="#C6C5E8"/>
<path d="M104.037 43.7802C104.993 46.9409 97.1975 44.8211 97.1975 44.8211C97.1975 44.8211 102.775 39.6098 104.037 43.7802Z" fill="#C6C5E8"/>
<path d="M103.589 21.3162C105.779 19.6032 106.482 26.3892 106.482 26.3892C106.482 26.3892 100.698 23.5763 103.589 21.3162Z" fill="#C6C5E8"/>
<path d="M99.8924 27.8745C101.398 25.5345 104.291 31.7104 104.291 31.7104C104.291 31.7104 97.9059 30.962 99.8924 27.8745Z" fill="#C6C5E8"/>
<path d="M97.681 33.6149C99.5934 31.5948 101.294 38.2011 101.294 38.2011C101.294 38.2011 95.1579 36.28 97.681 33.6149Z" fill="#C6C5E8"/>
<path d="M95.7011 39.1673C98.2094 37.9692 97.4316 44.747 97.4316 44.747C97.4316 44.747 92.3916 40.748 95.7011 39.1673Z" fill="#E3671A"/>
<path d="M5.17383 24.6849C14.4514 16.9653 30.6801 42.8366 30.2883 44.7434C28.2205 42.8313 25.1814 40.0269 20.7304 35.9298C13.2577 29.0518 8.09319 26.0139 5.17383 24.6849Z" fill="#DFD8EF"/>
<path d="M20.4266 36.2611C24.7715 40.2603 27.7682 43.0252 29.8317 44.9329C25.9742 44.9925 -1.12159 34.6107 2.95664 27.4459C3.52578 26.446 4.1424 25.6501 4.79567 25.0274C7.6455 26.3037 12.8748 29.31 20.4266 36.2611Z" fill="#A998D2"/>
<path d="M29.8312 44.9329C27.7677 43.0251 24.771 40.2602 20.4261 36.2611C12.8743 29.3099 7.645 26.3036 4.79517 25.0274C4.92021 24.9082 5.04583 24.7912 5.17358 24.6849C8.09294 26.014 13.2575 29.0518 20.7301 35.9298C25.1811 40.027 28.2202 42.8314 30.2881 44.7435C30.283 44.7686 30.2776 44.7934 30.2665 44.8099C30.2131 44.8907 30.0612 44.9293 29.8312 44.9329Z" fill="white"/>
<path d="M27.4961 44.9105C20.6644 43.3729 9.7223 41.6646 5.86694 41.0794C8.53208 31.5528 25.7699 42.7336 27.4961 44.9105Z" fill="#DFD8EF"/>
<path d="M5.65837 42.0387C5.69201 41.8266 5.73308 41.6248 5.77829 41.429C9.62719 42.0129 20.7492 43.7476 27.571 45.2948C26.2239 46.6001 4.26979 50.8158 5.65837 42.0387Z" fill="#A998D2"/>
<path d="M27.6373 45.1939C27.6323 45.225 27.6076 45.259 27.5706 45.2949C20.7488 43.7476 9.62673 42.013 5.77783 41.4291C5.80539 41.3095 5.83509 41.193 5.86693 41.0794C9.72229 41.6647 20.6644 43.3729 27.4961 44.9106C27.5959 45.0364 27.647 45.134 27.6373 45.1939Z" fill="white"/>
<path d="M26.6169 40.0969C24.5757 33.3858 20.6515 23.0102 19.2544 19.3622C28.8375 16.9769 27.6529 37.5175 26.6169 40.0969Z" fill="#DFD8EF"/>
<path d="M18.3188 19.6544C18.5195 19.5787 18.7148 19.5149 18.907 19.4575C20.3022 23.0988 24.2923 33.6446 26.3204 40.3516C24.522 39.8231 10.0168 22.7814 18.3188 19.6544Z" fill="#A998D2"/>
<path d="M26.4411 40.3599C26.4117 40.3709 26.3699 40.366 26.3206 40.3516C24.2925 33.6446 20.3024 23.0988 18.9072 19.4575C19.0247 19.4224 19.1404 19.3907 19.2547 19.3622C20.6518 23.0101 24.576 33.3858 26.6173 40.0969C26.5574 40.2459 26.498 40.3387 26.4411 40.3599Z" fill="white"/>
<path d="M29.1286 34.7909C29.1249 34.7908 29.1214 34.7906 29.1177 34.7906C26.3618 34.7238 24.1264 35.5072 22.4739 37.1189C20.2474 39.2908 19.5025 42.514 19.2661 44.8045C19.9209 44.8225 20.6245 44.8374 21.3647 44.85C21.6544 43.3098 22.2816 41.5108 23.6268 40.1985C24.8996 38.9567 26.6078 38.353 28.7033 38.4039C28.7062 38.4039 28.7091 38.404 28.7116 38.404C32.2772 38.4924 34.8206 39.8012 36.2717 42.2944C36.7652 43.1421 37.0607 44.0247 37.2351 44.8242C38.4729 44.8046 39.6471 44.7819 40.7253 44.7563C40.5554 43.1704 40.0216 40.9067 38.5356 38.9369C36.5399 36.2911 33.3748 34.8961 29.1286 34.7909Z" fill="#C6C5E8"/>
<path d="M29.3772 26.1934C13.7749 25.8154 14.2798 43.4799 14.2581 44.3614C14.2544 44.5049 15.1155 44.615 16.5539 44.6972C16.6869 41.7771 17.4375 36.5035 20.9171 33.1092C23.14 30.941 26.1285 29.8866 29.7995 29.9756C29.8044 29.9758 29.8095 29.9759 29.8141 29.976C36.083 30.1313 40.5507 32.4249 43.0951 36.7938C44.7853 39.6961 45.1811 42.8216 45.202 44.6062C46.2464 44.5527 46.8673 44.4955 46.8987 44.4371C47.1292 44.0037 48.2178 26.65 29.3772 26.1934Z" fill="#C6C5E8"/>
<path d="M22.0651 36.6981C23.8346 34.9716 26.2125 34.1326 29.1319 34.2031C29.1357 34.2032 29.1401 34.2034 29.1437 34.2034C34.1231 34.3267 37.6733 36.1505 39.6961 39.6249C40.7395 41.4168 41.1578 43.3145 41.3007 44.7423C42.5912 44.7095 43.722 44.673 44.6224 44.6336C44.5943 42.7836 44.1543 39.0776 41.8269 35.931C39.2925 32.5046 35.2457 30.6986 29.7997 30.5637C29.7952 30.5636 29.7906 30.5635 29.786 30.5633C26.2783 30.4783 23.4323 31.4768 21.3268 33.5306C17.9881 36.7873 17.2681 41.8952 17.1404 44.7277C17.6082 44.7499 18.1227 44.7699 18.6785 44.7874C18.9209 42.4018 19.6997 39.0053 22.0651 36.6981Z" fill="#C6C5E8"/>
<path d="M35.2542 41.8322C33.8516 40.0204 31.6454 39.0648 28.697 38.9919C28.6942 38.9917 28.6918 38.9917 28.6892 38.9916C26.7571 38.9449 25.1914 39.4927 24.0358 40.6199C22.8227 41.8033 22.2382 43.4343 21.9587 44.8595C26.3446 44.924 31.8928 44.9031 36.6442 44.8332C36.4193 43.8843 36.006 42.8025 35.2542 41.8322Z" fill="#9B98D4"/>
<path d="M29.8139 29.976C29.8093 29.9759 29.8042 29.9758 29.7993 29.9756C26.1283 29.8866 23.1398 30.941 20.9169 33.1092C17.4374 36.5035 16.6868 41.777 16.5537 44.6972C16.7399 44.7078 16.9348 44.7179 17.1398 44.7277C17.2675 41.8951 17.9875 36.7872 21.3263 33.5306C23.4318 31.4768 26.2777 30.4783 29.7855 30.5633C29.79 30.5634 29.7946 30.5635 29.7991 30.5637C35.2451 30.6986 39.2919 32.5045 41.8263 35.931C44.1537 39.0776 44.5938 42.7835 44.6218 44.6335C44.8283 44.6244 45.0203 44.6154 45.2019 44.6062C45.1809 42.8216 44.7851 39.6961 43.0949 36.7938C40.5506 32.4249 36.0828 30.1313 29.8139 29.976Z" fill="#9B98D4"/>
<path d="M22.4737 37.119C24.1261 35.5073 26.3615 34.7238 29.1175 34.7907L29.1246 34.4969L29.1175 34.7907C29.1211 34.7907 29.1247 34.7908 29.1284 34.7909C33.3746 34.8961 36.5397 36.2911 38.5354 38.9369C40.0214 40.9068 40.5552 43.1705 40.7251 44.7563C40.92 44.7517 41.1118 44.747 41.3001 44.7422C41.1573 43.3144 40.739 41.4168 39.6955 39.6249C37.6728 36.1505 34.1226 34.3266 29.1432 34.2033C29.1395 34.2033 29.1352 34.2032 29.1314 34.2031C26.212 34.1325 23.8341 34.9715 22.0646 36.698C19.6991 39.0052 18.9204 42.4017 18.678 44.7873C18.8695 44.7933 19.0651 44.799 19.2659 44.8045C19.5022 42.514 20.2472 39.2909 22.4737 37.119Z" fill="#9B98D4"/>
<path d="M28.7119 38.404C28.7094 38.404 28.7066 38.4039 28.7037 38.4039L28.6967 38.6977L28.7037 38.4039C26.6081 38.353 24.9 38.9567 23.6271 40.1985C22.2819 41.5108 21.6547 43.3098 21.365 44.8501C21.5607 44.8535 21.7584 44.8565 21.9592 44.8594C22.2387 43.4342 22.8232 41.8032 24.0362 40.6198C25.1919 39.4926 26.7576 38.9447 28.6896 38.9915C28.6923 38.9916 28.6946 38.9916 28.6975 38.9918C31.6459 39.0647 33.852 40.0203 35.2547 41.8321C36.0064 42.8024 36.4197 43.8842 36.6447 44.8331C36.8429 44.8303 37.0403 44.8272 37.2355 44.8242C37.061 44.0247 36.7655 43.1421 36.272 42.2944C34.8209 39.8012 32.2776 38.4924 28.7119 38.404Z" fill="#9B98D4"/>
<path d="M22.0859 45.4076C22.0881 45.4076 22.0902 45.4076 22.0923 45.4077C23.7101 45.4249 25.0053 45.9303 25.9415 46.9095C27.2029 48.2288 27.574 50.1346 27.666 51.4827C27.2815 51.48 26.8685 51.4743 26.4341 51.4664C26.2958 50.5572 25.9645 49.4892 25.2024 48.692C24.4812 47.9377 23.4917 47.5485 22.2615 47.5354C22.2599 47.5354 22.2582 47.5352 22.2567 47.5352C20.1638 47.5141 18.6453 48.2296 17.7434 49.6621C17.4367 50.1492 17.2453 50.6607 17.1265 51.126C16.401 51.0892 15.7128 51.0518 15.0811 51.0148C15.2131 50.0881 15.5724 48.7714 16.4841 47.6465C17.7087 46.1356 19.5934 45.3824 22.0859 45.4076Z" fill="#DFD8EF"/>
<path d="M22.1155 40.3601C31.274 40.4581 30.6173 50.8081 30.6121 51.3255C30.6113 51.4097 30.104 51.4568 29.2587 51.4754C29.2404 49.7601 28.9076 46.6517 26.9362 44.5896C25.6767 43.2722 23.9455 42.5928 21.7907 42.5697C21.7878 42.5697 21.7848 42.5697 21.782 42.5697C18.1022 42.5323 15.4349 43.7859 13.8535 46.2962C12.803 47.9637 12.507 49.7887 12.4583 50.835C11.8468 50.7822 11.4838 50.7359 11.4668 50.701C11.3403 50.4421 11.0561 40.2418 22.1155 40.3601Z" fill="#DFD8EF"/>
<path d="M26.1898 46.6708C25.1872 45.6221 23.8097 45.0812 22.096 45.0627C22.0938 45.0627 22.0911 45.0627 22.089 45.0627C19.1661 45.033 17.0467 46.0299 15.7893 48.0261C15.1407 49.0557 14.8567 50.1602 14.7438 50.9946C13.9876 50.949 13.3251 50.9043 12.7979 50.8628C12.852 49.7784 13.1859 47.6139 14.6151 45.816C16.1715 43.8582 18.5817 42.8821 21.7786 42.9146C21.7813 42.9146 21.784 42.9146 21.7866 42.9147C23.8457 42.9367 25.4944 43.5806 26.6874 44.8282C28.5792 46.8069 28.8972 49.8173 28.9141 51.4812C28.6394 51.4847 28.3372 51.4858 28.0108 51.4847C27.9175 50.0805 27.53 48.0725 26.1898 46.6708Z" fill="#DFD8EF"/>
<path d="M18.3496 49.4117C19.2091 48.3779 20.5227 47.8628 22.2534 47.8802C22.2551 47.8802 22.2564 47.8802 22.258 47.8802C23.392 47.8924 24.2991 48.2459 24.9539 48.9306C25.6415 49.6496 25.951 50.6181 26.0857 51.4597C23.512 51.4077 20.2584 51.2817 17.4731 51.1434C17.6244 50.5914 17.8889 49.9654 18.3496 49.4117Z" fill="#DFD8EF"/>
<path d="M21.7824 42.5697C21.7852 42.5697 21.7882 42.5697 21.7911 42.5697C23.9459 42.5928 25.6771 43.2722 26.9366 44.5896C28.908 46.6517 29.2408 49.76 29.2591 51.4754C29.1497 51.4778 29.0352 51.4798 28.9146 51.4813C28.8977 49.8173 28.5797 46.8069 26.6879 44.8282C25.4949 43.5806 23.8462 42.9368 21.7872 42.9147C21.7845 42.9146 21.7818 42.9146 21.7792 42.9146C18.5823 42.8821 16.172 43.8583 14.6156 45.8161C13.1864 47.6139 12.8525 49.7784 12.7984 50.8628C12.6774 50.8533 12.5649 50.844 12.4587 50.8349C12.5074 49.7886 12.8034 47.9636 13.8539 46.2961C15.4353 43.7859 18.1026 42.5322 21.7824 42.5697Z" fill="#E8E0FF"/>
<path d="M25.9418 46.9096C25.0056 45.9304 23.7105 45.425 22.0926 45.4078L22.0946 45.2353L22.0926 45.4078C22.0905 45.4076 22.0884 45.4076 22.0862 45.4076C19.5938 45.3824 17.709 46.1357 16.4844 47.6465C15.5727 48.7715 15.2134 50.0882 15.0814 51.0148C14.9671 51.0081 14.8546 51.0014 14.7444 50.9947C14.8572 50.1603 15.1413 49.0558 15.7899 48.0262C17.0473 46.0299 19.1667 45.0331 22.0896 45.0627C22.0917 45.0627 22.0943 45.0627 22.0966 45.0627C23.8102 45.0813 25.1878 45.6221 26.1904 46.6709C27.5306 48.0726 27.9181 50.0806 28.0114 51.4847C27.8989 51.4843 27.7841 51.4837 27.6664 51.4828C27.5744 50.1347 27.2033 48.2289 25.9418 46.9096Z" fill="#E8E0FF"/>
<path d="M22.2566 47.5353C22.2582 47.5353 22.2599 47.5354 22.2615 47.5354L22.2598 47.7079L22.2615 47.5354C23.4917 47.5485 24.4811 47.9377 25.2024 48.692C25.9645 49.4893 26.2957 50.5572 26.434 51.4665C26.3192 51.4645 26.2033 51.4623 26.0855 51.4598C25.9507 50.6182 25.6412 49.6496 24.9537 48.9307C24.2989 48.246 23.3918 47.8925 22.2578 47.8803C22.2562 47.8803 22.2549 47.8803 22.2532 47.8803C20.5225 47.8629 19.2089 48.378 18.3494 49.4118C17.8887 49.9655 17.6242 50.5915 17.4729 51.1435C17.3566 51.1377 17.241 51.1318 17.1265 51.1261C17.2452 50.6607 17.4366 50.1493 17.7434 49.6621C18.6452 48.2297 20.1637 47.5141 22.2566 47.5353Z" fill="#E8E0FF"/>
<path d="M119.991 49.8635C119.846 48.0309 117.571 46.3804 116.238 45.691C116.218 46.3133 115.847 46.859 115.243 47.3337C116.065 47.7347 117.863 48.7309 117.992 49.6515C118.152 50.7952 116.457 51.0708 113.022 50.9107C109.588 50.7504 107.652 48.8998 105.977 47.0282C104.371 45.2334 101.739 44.3609 101.739 44.3609C100.695 44.022 101.005 46.2672 101.005 46.2672C101.005 46.2672 103.102 47.0656 104.229 48.3475C105.516 49.8117 108.919 52.8597 112.969 52.9398C117.151 53.0225 120.19 52.3925 119.991 49.8635Z" fill="#5F40AF"/>
<path d="M24.7971 44.8045C24.7971 44.8045 9.12823 48.2526 6.7834 48.2734C4.43846 48.2941 2.30679 47.6799 2.53952 46.2382C2.75262 44.9177 4.58224 44.5985 5.89586 44.293C5.6135 43.6603 5.51956 42.9142 5.65806 42.0386C5.66543 41.9923 5.67429 41.9482 5.68232 41.9028C3.86163 42.1666 0.837087 43.1532 0.201638 45.062C-0.455833 47.0372 0.224683 50.9165 6.35695 50.6621C12.4893 50.4079 25.776 47.2795 26.0855 47.1995C26.3952 47.1192 26.1697 46.5268 24.7971 44.8045Z" fill="#5F40AF"/>
<path d="M37.3409 31.7933C37.3409 31.7933 25.4304 36.421 24.1787 38.4426C22.9271 40.4644 27.0637 53.0521 28.0909 53.6423C29.118 54.2327 42.9979 52.392 43.8634 51.8989C44.7289 51.406 38.5182 32.7634 37.3409 31.7933Z" fill="#A38CEB"/>
<path d="M41.4532 27.6333C41.4532 27.6333 33.8745 29.4037 32.8996 30.2112C30.5814 32.1311 31.5657 38.0229 32.9689 43.3299C34.3649 48.6098 38.3945 54.6739 40.3011 55.0471C42.2079 55.4204 47.2429 54.2431 47.8477 53.1485C48.4525 52.0538 41.8699 28.1999 41.4532 27.6333Z" fill="#6650AB"/>
<path d="M47.8035 39.5976C49.5694 46.6434 49.5892 52.7104 47.8478 53.1485C46.1065 53.5867 43.2634 48.2301 41.4975 41.1842C39.7318 34.1384 39.7119 28.0715 41.4534 27.6334C43.1947 27.1952 46.0377 32.5517 47.8035 39.5976Z" fill="#4F2DA7"/>
<path d="M52.5247 33.6508L44.037 35.7861C43.4894 35.9239 42.9286 35.5877 42.7911 35.0389L42.6812 34.6005C42.5437 34.0516 42.8793 33.4899 43.427 33.352L51.9146 31.2165C52.4624 31.0788 53.0231 31.415 53.1606 31.9639L53.2705 32.4022C53.4081 32.951 53.0723 33.5128 52.5247 33.6508Z" fill="#B39712"/>
<path d="M55.3742 45.7342L46.8865 47.8696C46.3387 48.0075 45.7781 47.6712 45.6406 47.1224L45.5306 46.6839C45.3931 46.1351 45.7288 45.5733 46.2765 45.4355L54.7641 43.3C55.3118 43.1622 55.8726 43.4985 56.0101 44.0474L56.1199 44.4858C56.2574 45.0345 55.9218 45.5964 55.3742 45.7342Z" fill="#B39712"/>
<path d="M88.9804 31.7314C88.9804 31.7314 100.948 36.2098 102.224 38.2155C103.501 40.2214 99.5217 52.86 98.5022 53.4631C97.4823 54.0661 83.5806 52.3995 82.709 51.9172C81.8374 51.435 87.8153 32.7161 88.9804 31.7314Z" fill="#A38CEB"/>
<path d="M84.8165 27.6233C84.8165 27.6233 92.4166 29.2987 93.4016 30.094C95.7436 31.9848 94.8327 37.8884 93.4957 43.2126C92.1656 48.5095 88.2121 54.6235 86.31 55.0207C84.4081 55.4176 79.359 54.3035 78.7405 53.2165C78.1221 52.1295 84.4068 28.195 84.8165 27.6233Z" fill="#6650AB"/>
<path d="M78.6161 39.666C76.9382 46.7334 76.9941 52.8 78.7406 53.2164C80.4874 53.6326 83.2635 48.241 84.9412 41.1736C86.6191 34.1063 86.5634 28.0396 84.8166 27.6232C83.07 27.207 80.2939 32.5987 78.6161 39.666Z" fill="#4F2DA7"/>
<path d="M83.9853 35.6798C83.7334 36.7413 83.1428 37.5098 82.6662 37.3962C82.1896 37.2827 82.0078 36.33 82.2596 35.2685C82.5117 34.2069 83.1023 33.4384 83.5788 33.5521C84.0554 33.6656 84.2374 34.6183 83.9853 35.6798Z" fill="#24154C"/>
<path d="M81.4306 47.0091C81.1787 48.0706 80.588 48.8389 80.1115 48.7255C79.635 48.6118 79.4529 47.6592 79.705 46.5977C79.957 45.5362 80.5476 44.7677 81.0243 44.8812C81.5006 44.9949 81.6827 45.9476 81.4306 47.0091Z" fill="#24154C"/>
<path fill-rule="evenodd" clip-rule="evenodd" d="M63.3182 7.27994C64.292 5.67833 66.6167 5.67833 67.5905 7.27994L77.1246 22.9609C78.1376 24.627 76.9383 26.7597 74.9885 26.7597H55.9202C53.9704 26.7597 52.7711 24.627 53.784 22.9609L63.3182 7.27994ZM66.736 7.79946C66.1517 6.83849 64.7569 6.83849 64.1726 7.79946L54.6385 23.4805C54.0307 24.4801 54.7503 25.7597 55.9202 25.7597H74.9885C76.1584 25.7597 76.8779 24.4801 76.2702 23.4805L66.736 7.79946Z" fill="#D0021B"/>
<path fill-rule="evenodd" clip-rule="evenodd" d="M66.9442 22.0068C66.9442 22.2065 66.906 22.3936 66.8296 22.5684C66.7531 22.7431 66.6461 22.8928 66.5086 23.0176C66.371 23.1424 66.2106 23.2422 66.0272 23.3171C65.8438 23.392 65.6502 23.4294 65.4464 23.4294C65.2426 23.4294 65.0516 23.3945 64.8732 23.3246C64.6949 23.2547 64.5396 23.1549 64.4071 23.0251C64.2746 22.8953 64.1676 22.7456 64.0861 22.5758C64.0046 22.4061 63.9639 22.2214 63.9639 22.0218C63.9639 21.8321 64.0021 21.6499 64.0785 21.4752C64.1549 21.3005 64.2594 21.1482 64.3918 21.0184C64.5243 20.8886 64.6822 20.7863 64.8656 20.7114C65.049 20.6366 65.2426 20.5991 65.4464 20.5991C65.6502 20.5991 65.8438 20.6366 66.0272 20.7114C66.2106 20.7863 66.371 20.8861 66.5086 21.0109C66.6461 21.1357 66.7531 21.2855 66.8296 21.4602C66.906 21.6349 66.9442 21.8171 66.9442 22.0068Z" fill="#D0021B"/>
<path fill-rule="evenodd" clip-rule="evenodd" d="M64.7089 19.1839L63.9639 12.1082H66.9442L66.1991 19.1839H64.7089Z" fill="#D0021B"/>
</svg>
