<svg width="320" height="148" viewBox="0 0 320 148" fill="none" xmlns="http://www.w3.org/2000/svg">
<rect width="320" height="148" rx="6" fill="#FFF8CA"/>
<mask id="mask0" mask-type="alpha" maskUnits="userSpaceOnUse" x="0" y="0" width="320" height="148">
<rect width="320" height="148" rx="6" fill="white"/>
</mask>
<g mask="url(#mask0)">
<path d="M122.347 129.751C102.601 138.016 102.001 160 102.001 160H314C317.314 160 320 157.351 320 154.038C320 135.866 320 81.9821 320 74.9254C314.187 66.8905 300.38 65 279.307 65C258.234 65 229.167 67.3632 214.634 89.1045C200.1 110.846 205.098 116.423 185.567 125.025C166.037 133.627 142.094 121.487 122.347 129.751Z" fill="#FFFCE5"/>
<path fill-rule="evenodd" clip-rule="evenodd" d="M247.273 0C247.273 0 211.378 68 148.583 68C85.7893 68 75.7304 7.31849 -1.52588e-05 0H247.273Z" fill="#FFFCE5"/>
<path d="M21.43 119C21.3433 119 21.274 118.974 21.222 118.922C21.17 118.861 21.144 118.788 21.144 118.701V110.212C21.144 110.117 21.17 110.043 21.222 109.991C21.274 109.93 21.3433 109.9 21.43 109.9H24.368C25.6767 109.9 26.6213 110.195 27.202 110.784C27.7827 111.365 28.0817 112.244 28.099 113.423C28.1077 113.674 28.112 114.012 28.112 114.437C28.112 114.862 28.1077 115.204 28.099 115.464C28.0817 116.287 27.9473 116.959 27.696 117.479C27.4533 117.99 27.0677 118.372 26.539 118.623C26.0103 118.874 25.3083 119 24.433 119H21.43ZM24.368 117.921C24.9747 117.921 25.4557 117.839 25.811 117.674C26.175 117.501 26.435 117.236 26.591 116.881C26.7557 116.517 26.8467 116.027 26.864 115.412C26.8813 114.892 26.89 114.567 26.89 114.437C26.89 114.298 26.8813 113.978 26.864 113.475C26.8467 112.608 26.6387 111.976 26.24 111.577C25.85 111.17 25.2043 110.966 24.303 110.966H22.366V117.921H24.368ZM32.6682 119.13C31.7149 119.13 30.9782 118.861 30.4582 118.324C29.9469 117.787 29.6739 117.072 29.6392 116.179L29.6262 115.62L29.6392 115.061C29.6739 114.168 29.9512 113.453 30.4712 112.916C30.9999 112.379 31.7322 112.11 32.6682 112.11C33.6042 112.11 34.3322 112.379 34.8522 112.916C35.3809 113.453 35.6625 114.168 35.6972 115.061C35.7145 115.252 35.7232 115.438 35.7232 115.62C35.7232 115.802 35.7145 115.988 35.6972 116.179C35.6625 117.072 35.3852 117.787 34.8652 118.324C34.3539 118.861 33.6215 119.13 32.6682 119.13ZM32.6682 118.155C33.2229 118.155 33.6605 117.982 33.9812 117.635C34.3105 117.28 34.4882 116.773 34.5142 116.114C34.5229 116.027 34.5272 115.863 34.5272 115.62C34.5272 115.377 34.5229 115.213 34.5142 115.126C34.4882 114.467 34.3105 113.965 33.9812 113.618C33.6605 113.263 33.2229 113.085 32.6682 113.085C32.1135 113.085 31.6715 113.263 31.3422 113.618C31.0215 113.965 30.8482 114.467 30.8222 115.126L30.8092 115.62L30.8222 116.114C30.8482 116.773 31.0215 117.28 31.3422 117.635C31.6715 117.982 32.1135 118.155 32.6682 118.155ZM40.0686 119.13C39.1413 119.13 38.4176 118.87 37.8976 118.35C37.3776 117.821 37.1046 117.085 37.0786 116.14L37.0656 115.62L37.0786 115.1C37.1046 114.155 37.3776 113.423 37.8976 112.903C38.4176 112.374 39.1413 112.11 40.0686 112.11C40.6926 112.11 41.217 112.223 41.6416 112.448C42.075 112.665 42.3956 112.938 42.6036 113.267C42.8203 113.596 42.9373 113.926 42.9546 114.255C42.9633 114.333 42.933 114.402 42.8636 114.463C42.803 114.524 42.7336 114.554 42.6556 114.554H42.0836C41.997 114.554 41.932 114.537 41.8886 114.502C41.8453 114.459 41.802 114.385 41.7586 114.281C41.6026 113.856 41.386 113.557 41.1086 113.384C40.84 113.202 40.4976 113.111 40.0816 113.111C39.5356 113.111 39.1023 113.28 38.7816 113.618C38.461 113.956 38.2876 114.472 38.2616 115.165L38.2486 115.62L38.2616 116.075C38.2876 116.768 38.461 117.284 38.7816 117.622C39.1023 117.96 39.5356 118.129 40.0816 118.129C40.5063 118.129 40.853 118.042 41.1216 117.869C41.3903 117.687 41.6026 117.384 41.7586 116.959C41.802 116.855 41.8453 116.786 41.8886 116.751C41.932 116.708 41.997 116.686 42.0836 116.686H42.6556C42.7336 116.686 42.803 116.716 42.8636 116.777C42.933 116.838 42.9633 116.907 42.9546 116.985C42.9373 117.306 42.8203 117.631 42.6036 117.96C42.3956 118.289 42.075 118.567 41.6416 118.792C41.217 119.017 40.6926 119.13 40.0686 119.13ZM47.1121 119C45.7688 119 45.0971 118.242 45.0971 116.725V113.241H44.0701C43.9834 113.241 43.9141 113.215 43.8621 113.163C43.8101 113.111 43.7841 113.042 43.7841 112.955V112.539C43.7841 112.452 43.8101 112.383 43.8621 112.331C43.9141 112.27 43.9834 112.24 44.0701 112.24H45.0971V110.069C45.0971 109.982 45.1231 109.913 45.1751 109.861C45.2271 109.8 45.2964 109.77 45.3831 109.77H45.9551C46.0418 109.77 46.1111 109.8 46.1631 109.861C46.2238 109.913 46.2541 109.982 46.2541 110.069V112.24H47.8661C47.9528 112.24 48.0221 112.27 48.0741 112.331C48.1348 112.383 48.1651 112.452 48.1651 112.539V112.955C48.1651 113.042 48.1348 113.111 48.0741 113.163C48.0221 113.215 47.9528 113.241 47.8661 113.241H46.2541V116.634C46.2541 117.076 46.3234 117.41 46.4621 117.635C46.6094 117.86 46.8564 117.973 47.2031 117.973H47.9961C48.0828 117.973 48.1521 118.003 48.2041 118.064C48.2561 118.116 48.2821 118.185 48.2821 118.272V118.701C48.2821 118.788 48.2561 118.861 48.2041 118.922C48.1521 118.974 48.0828 119 47.9961 119H47.1121ZM52.2951 119.13C51.3418 119.13 50.6051 118.861 50.0851 118.324C49.5738 117.787 49.3008 117.072 49.2661 116.179L49.2531 115.62L49.2661 115.061C49.3008 114.168 49.5781 113.453 50.0981 112.916C50.6268 112.379 51.3591 112.11 52.2951 112.11C53.2311 112.11 53.9591 112.379 54.4791 112.916C55.0078 113.453 55.2895 114.168 55.3241 115.061C55.3415 115.252 55.3501 115.438 55.3501 115.62C55.3501 115.802 55.3415 115.988 55.3241 116.179C55.2895 117.072 55.0121 117.787 54.4921 118.324C53.9808 118.861 53.2485 119.13 52.2951 119.13ZM52.2951 118.155C52.8498 118.155 53.2875 117.982 53.6081 117.635C53.9375 117.28 54.1151 116.773 54.1411 116.114C54.1498 116.027 54.1541 115.863 54.1541 115.62C54.1541 115.377 54.1498 115.213 54.1411 115.126C54.1151 114.467 53.9375 113.965 53.6081 113.618C53.2875 113.263 52.8498 113.085 52.2951 113.085C51.7405 113.085 51.2985 113.263 50.9691 113.618C50.6485 113.965 50.4751 114.467 50.4491 115.126L50.4361 115.62L50.4491 116.114C50.4751 116.773 50.6485 117.28 50.9691 117.635C51.2985 117.982 51.7405 118.155 52.2951 118.155ZM57.2906 119C57.2039 119 57.1303 118.974 57.0696 118.922C57.0176 118.861 56.9916 118.788 56.9916 118.701V112.552C56.9916 112.465 57.0176 112.392 57.0696 112.331C57.1303 112.27 57.2039 112.24 57.2906 112.24H57.8366C57.9319 112.24 58.0056 112.27 58.0576 112.331C58.1183 112.383 58.1486 112.457 58.1486 112.552V113.124C58.5039 112.535 59.1063 112.24 59.9556 112.24H60.4626C60.5579 112.24 60.6316 112.266 60.6836 112.318C60.7356 112.37 60.7616 112.444 60.7616 112.539V113.02C60.7616 113.107 60.7356 113.18 60.6836 113.241C60.6316 113.293 60.5579 113.319 60.4626 113.319H59.7216C59.2449 113.319 58.8679 113.458 58.5906 113.735C58.3219 114.012 58.1876 114.389 58.1876 114.866V118.701C58.1876 118.788 58.1573 118.861 58.0966 118.922C58.0359 118.974 57.9623 119 57.8756 119H57.2906ZM61.5671 115.62C61.4804 115.62 61.4068 115.594 61.3461 115.542C61.2941 115.49 61.2681 115.421 61.2681 115.334V114.866C61.2681 114.779 61.2941 114.71 61.3461 114.658C61.4068 114.597 61.4804 114.567 61.5671 114.567H65.4671C65.5538 114.567 65.6231 114.597 65.6751 114.658C65.7358 114.71 65.7661 114.779 65.7661 114.866V115.334C65.7661 115.421 65.7358 115.49 65.6751 115.542C65.6231 115.594 65.5538 115.62 65.4671 115.62H61.5671ZM70.386 119.13C69.4326 119.13 68.696 118.861 68.176 118.324C67.6646 117.787 67.3916 117.072 67.357 116.179L67.344 115.62L67.357 115.061C67.3916 114.168 67.669 113.453 68.189 112.916C68.7176 112.379 69.45 112.11 70.386 112.11C71.322 112.11 72.05 112.379 72.57 112.916C73.0986 113.453 73.3803 114.168 73.415 115.061C73.4323 115.252 73.441 115.438 73.441 115.62C73.441 115.802 73.4323 115.988 73.415 116.179C73.3803 117.072 73.103 117.787 72.583 118.324C72.0716 118.861 71.3393 119.13 70.386 119.13ZM70.386 118.155C70.9406 118.155 71.3783 117.982 71.699 117.635C72.0283 117.28 72.206 116.773 72.232 116.114C72.2406 116.027 72.245 115.863 72.245 115.62C72.245 115.377 72.2406 115.213 72.232 115.126C72.206 114.467 72.0283 113.965 71.699 113.618C71.3783 113.263 70.9406 113.085 70.386 113.085C69.8313 113.085 69.3893 113.263 69.06 113.618C68.7393 113.965 68.566 114.467 68.54 115.126L68.527 115.62L68.54 116.114C68.566 116.773 68.7393 117.28 69.06 117.635C69.3893 117.982 69.8313 118.155 70.386 118.155ZM75.3814 119C75.2948 119 75.2211 118.974 75.1604 118.922C75.1084 118.861 75.0824 118.788 75.0824 118.701V112.539C75.0824 112.452 75.1084 112.383 75.1604 112.331C75.2211 112.27 75.2948 112.24 75.3814 112.24H75.9404C76.0358 112.24 76.1094 112.266 76.1614 112.318C76.2134 112.37 76.2394 112.444 76.2394 112.539V113.111C76.4994 112.79 76.7984 112.543 77.1364 112.37C77.4831 112.197 77.9121 112.11 78.4234 112.11C79.2554 112.11 79.9011 112.379 80.3604 112.916C80.8198 113.445 81.0494 114.147 81.0494 115.022V118.701C81.0494 118.788 81.0191 118.861 80.9584 118.922C80.9064 118.974 80.8371 119 80.7504 119H80.1524C80.0658 119 79.9921 118.974 79.9314 118.922C79.8794 118.861 79.8534 118.788 79.8534 118.701V115.1C79.8534 114.476 79.7018 113.991 79.3984 113.644C79.0951 113.297 78.6618 113.124 78.0984 113.124C77.5438 113.124 77.1018 113.302 76.7724 113.657C76.4431 114.004 76.2784 114.485 76.2784 115.1V118.701C76.2784 118.788 76.2481 118.861 76.1874 118.922C76.1354 118.974 76.0661 119 75.9794 119H75.3814ZM83.1491 115.62C83.0625 115.62 82.9888 115.594 82.9281 115.542C82.8761 115.49 82.8501 115.421 82.8501 115.334V114.866C82.8501 114.779 82.8761 114.71 82.9281 114.658C82.9888 114.597 83.0625 114.567 83.1491 114.567H87.0491C87.1358 114.567 87.2051 114.597 87.2571 114.658C87.3178 114.71 87.3481 114.779 87.3481 114.866V115.334C87.3481 115.421 87.3178 115.49 87.2571 115.542C87.2051 115.594 87.1358 115.62 87.0491 115.62H83.1491ZM91.929 119.13C91.0017 119.13 90.278 118.87 89.758 118.35C89.238 117.821 88.965 117.085 88.939 116.14L88.926 115.62L88.939 115.1C88.965 114.155 89.238 113.423 89.758 112.903C90.278 112.374 91.0017 112.11 91.929 112.11C92.553 112.11 93.0773 112.223 93.502 112.448C93.9353 112.665 94.256 112.938 94.464 113.267C94.6807 113.596 94.7977 113.926 94.815 114.255C94.8237 114.333 94.7933 114.402 94.724 114.463C94.6633 114.524 94.594 114.554 94.516 114.554H93.944C93.8573 114.554 93.7923 114.537 93.749 114.502C93.7057 114.459 93.6623 114.385 93.619 114.281C93.463 113.856 93.2463 113.557 92.969 113.384C92.7003 113.202 92.358 113.111 91.942 113.111C91.396 113.111 90.9627 113.28 90.642 113.618C90.3213 113.956 90.148 114.472 90.122 115.165L90.109 115.62L90.122 116.075C90.148 116.768 90.3213 117.284 90.642 117.622C90.9627 117.96 91.396 118.129 91.942 118.129C92.3667 118.129 92.7133 118.042 92.982 117.869C93.2507 117.687 93.463 117.384 93.619 116.959C93.6623 116.855 93.7057 116.786 93.749 116.751C93.7923 116.708 93.8573 116.686 93.944 116.686H94.516C94.594 116.686 94.6633 116.716 94.724 116.777C94.7933 116.838 94.8237 116.907 94.815 116.985C94.7977 117.306 94.6807 117.631 94.464 117.96C94.256 118.289 93.9353 118.567 93.502 118.792C93.0773 119.017 92.553 119.13 91.929 119.13ZM98.2445 119.13C97.8198 119.13 97.4255 119.043 97.0615 118.87C96.7061 118.697 96.4201 118.463 96.2035 118.168C95.9955 117.865 95.8915 117.531 95.8915 117.167C95.8915 116.595 96.1255 116.127 96.5935 115.763C97.0615 115.399 97.6985 115.156 98.5045 115.035L100.454 114.762V114.385C100.454 113.492 99.9388 113.046 98.9075 113.046C98.5088 113.046 98.1881 113.128 97.9455 113.293C97.7028 113.449 97.5251 113.635 97.4125 113.852C97.3778 113.939 97.3388 113.999 97.2955 114.034C97.2608 114.06 97.2088 114.073 97.1395 114.073H96.6325C96.5545 114.073 96.4851 114.047 96.4245 113.995C96.3725 113.934 96.3465 113.865 96.3465 113.787C96.3465 113.588 96.4375 113.358 96.6195 113.098C96.8101 112.829 97.1005 112.6 97.4905 112.409C97.8805 112.21 98.3571 112.11 98.9205 112.11C99.8911 112.11 100.584 112.335 101 112.786C101.425 113.237 101.637 113.8 101.637 114.476V118.701C101.637 118.788 101.607 118.861 101.546 118.922C101.494 118.974 101.425 119 101.338 119H100.766C100.68 119 100.61 118.974 100.558 118.922C100.506 118.861 100.48 118.788 100.48 118.701V118.129C100.29 118.415 100.012 118.653 99.6485 118.844C99.2845 119.035 98.8165 119.13 98.2445 119.13ZM98.5045 118.181C99.0765 118.181 99.5445 117.995 99.9085 117.622C100.272 117.249 100.454 116.708 100.454 115.997V115.633L98.9335 115.854C98.3095 115.941 97.8371 116.088 97.5165 116.296C97.1958 116.504 97.0355 116.764 97.0355 117.076C97.0355 117.431 97.1785 117.704 97.4645 117.895C97.7591 118.086 98.1058 118.181 98.5045 118.181ZM103.832 119C103.745 119 103.672 118.974 103.611 118.922C103.559 118.861 103.533 118.788 103.533 118.701V110.069C103.533 109.974 103.559 109.9 103.611 109.848C103.672 109.796 103.745 109.77 103.832 109.77H104.404C104.491 109.77 104.56 109.8 104.612 109.861C104.673 109.913 104.703 109.982 104.703 110.069V118.701C104.703 118.788 104.673 118.861 104.612 118.922C104.56 118.974 104.491 119 104.404 119H103.832ZM106.968 119C106.881 119 106.807 118.974 106.747 118.922C106.695 118.861 106.669 118.788 106.669 118.701V110.069C106.669 109.974 106.695 109.9 106.747 109.848C106.807 109.796 106.881 109.77 106.968 109.77H107.54C107.626 109.77 107.696 109.8 107.748 109.861C107.808 109.913 107.839 109.982 107.839 110.069V118.701C107.839 118.788 107.808 118.861 107.748 118.922C107.696 118.974 107.626 119 107.54 119H106.968ZM116.476 121.704C116.389 121.704 116.32 121.674 116.268 121.613C116.216 121.561 116.19 121.492 116.19 121.405V107.651C116.19 107.564 116.216 107.495 116.268 107.443C116.32 107.382 116.389 107.352 116.476 107.352H116.957C117.044 107.352 117.113 107.382 117.165 107.443C117.226 107.495 117.256 107.564 117.256 107.651V121.405C117.256 121.492 117.226 121.561 117.165 121.613C117.113 121.674 117.044 121.704 116.957 121.704H116.476ZM125.011 119C124.924 119 124.855 118.974 124.803 118.922C124.751 118.861 124.725 118.788 124.725 118.701V111.369L122.541 113.046C122.48 113.098 122.415 113.124 122.346 113.124C122.268 113.124 122.194 113.081 122.125 112.994L121.813 112.591C121.77 112.53 121.748 112.47 121.748 112.409C121.748 112.314 121.791 112.236 121.878 112.175L124.699 109.991C124.794 109.93 124.907 109.9 125.037 109.9H125.648C125.735 109.9 125.804 109.93 125.856 109.991C125.917 110.043 125.947 110.112 125.947 110.199V118.701C125.947 118.788 125.917 118.861 125.856 118.922C125.804 118.974 125.735 119 125.648 119H125.011ZM130.728 119.13C130.078 119.13 129.515 119.013 129.038 118.779C128.562 118.545 128.198 118.242 127.946 117.869C127.695 117.488 127.561 117.08 127.543 116.647V116.621C127.543 116.552 127.569 116.495 127.621 116.452C127.673 116.409 127.734 116.387 127.803 116.387H128.44C128.622 116.387 128.739 116.482 128.791 116.673C128.921 117.141 129.16 117.492 129.506 117.726C129.862 117.951 130.269 118.064 130.728 118.064C131.318 118.064 131.807 117.886 132.197 117.531C132.587 117.167 132.782 116.669 132.782 116.036C132.782 115.455 132.587 114.996 132.197 114.658C131.807 114.311 131.318 114.138 130.728 114.138C130.416 114.138 130.165 114.177 129.974 114.255C129.784 114.333 129.589 114.446 129.389 114.593C129.277 114.68 129.181 114.745 129.103 114.788C129.034 114.823 128.956 114.84 128.869 114.84H128.245C128.167 114.84 128.098 114.814 128.037 114.762C127.977 114.701 127.951 114.632 127.959 114.554L128.362 110.225C128.388 110.008 128.497 109.9 128.687 109.9H133.185C133.281 109.9 133.354 109.926 133.406 109.978C133.458 110.03 133.484 110.104 133.484 110.199V110.68C133.484 110.767 133.454 110.836 133.393 110.888C133.341 110.94 133.272 110.966 133.185 110.966H129.441L129.207 113.579C129.623 113.284 130.182 113.137 130.884 113.137C131.465 113.137 131.994 113.254 132.47 113.488C132.947 113.713 133.324 114.047 133.601 114.489C133.887 114.931 134.03 115.455 134.03 116.062C134.03 116.703 133.887 117.258 133.601 117.726C133.324 118.185 132.934 118.536 132.431 118.779C131.937 119.013 131.37 119.13 130.728 119.13ZM135.408 119.975C135.33 119.975 135.27 119.949 135.226 119.897C135.192 119.845 135.183 119.78 135.2 119.702L135.486 117.869C135.521 117.618 135.642 117.492 135.85 117.492H136.682C136.743 117.492 136.795 117.518 136.838 117.57C136.882 117.613 136.903 117.661 136.903 117.713C136.903 117.782 136.886 117.856 136.851 117.934L136.175 119.676C136.097 119.875 135.976 119.975 135.811 119.975H135.408ZM141.532 119.13C140.882 119.13 140.319 119.013 139.842 118.779C139.365 118.545 139.001 118.242 138.75 117.869C138.499 117.488 138.364 117.08 138.347 116.647V116.621C138.347 116.552 138.373 116.495 138.425 116.452C138.477 116.409 138.538 116.387 138.607 116.387H139.244C139.426 116.387 139.543 116.482 139.595 116.673C139.725 117.141 139.963 117.492 140.31 117.726C140.665 117.951 141.073 118.064 141.532 118.064C142.121 118.064 142.611 117.886 143.001 117.531C143.391 117.167 143.586 116.669 143.586 116.036C143.586 115.455 143.391 114.996 143.001 114.658C142.611 114.311 142.121 114.138 141.532 114.138C141.22 114.138 140.969 114.177 140.778 114.255C140.587 114.333 140.392 114.446 140.193 114.593C140.08 114.68 139.985 114.745 139.907 114.788C139.838 114.823 139.76 114.84 139.673 114.84H139.049C138.971 114.84 138.902 114.814 138.841 114.762C138.78 114.701 138.754 114.632 138.763 114.554L139.166 110.225C139.192 110.008 139.3 109.9 139.491 109.9H143.989C144.084 109.9 144.158 109.926 144.21 109.978C144.262 110.03 144.288 110.104 144.288 110.199V110.68C144.288 110.767 144.258 110.836 144.197 110.888C144.145 110.94 144.076 110.966 143.989 110.966H140.245L140.011 113.579C140.427 113.284 140.986 113.137 141.688 113.137C142.269 113.137 142.797 113.254 143.274 113.488C143.751 113.713 144.128 114.047 144.405 114.489C144.691 114.931 144.834 115.455 144.834 116.062C144.834 116.703 144.691 117.258 144.405 117.726C144.128 118.185 143.738 118.536 143.235 118.779C142.741 119.013 142.173 119.13 141.532 119.13ZM149.55 119.13C148.432 119.13 147.613 118.805 147.093 118.155C146.582 117.496 146.309 116.638 146.274 115.581L146.261 114.463L146.274 113.306C146.3 112.257 146.573 111.408 147.093 110.758C147.622 110.099 148.441 109.77 149.55 109.77C150.668 109.77 151.487 110.099 152.007 110.758C152.536 111.408 152.813 112.257 152.839 113.306C152.848 113.549 152.852 113.934 152.852 114.463C152.852 114.974 152.848 115.347 152.839 115.581C152.805 116.638 152.527 117.496 152.007 118.155C151.496 118.805 150.677 119.13 149.55 119.13ZM149.55 118.051C150.218 118.051 150.72 117.83 151.058 117.388C151.396 116.946 151.574 116.322 151.591 115.516C151.6 115.265 151.604 114.905 151.604 114.437C151.604 113.96 151.6 113.605 151.591 113.371C151.574 112.574 151.392 111.954 151.045 111.512C150.707 111.061 150.209 110.836 149.55 110.836C148.892 110.836 148.393 111.061 148.055 111.512C147.717 111.954 147.54 112.574 147.522 113.371L147.509 114.437L147.522 115.516C147.54 116.322 147.717 116.946 148.055 117.388C148.393 117.83 148.892 118.051 149.55 118.051ZM157.777 119.13C156.659 119.13 155.84 118.805 155.32 118.155C154.809 117.496 154.536 116.638 154.501 115.581L154.488 114.463L154.501 113.306C154.527 112.257 154.8 111.408 155.32 110.758C155.849 110.099 156.668 109.77 157.777 109.77C158.895 109.77 159.714 110.099 160.234 110.758C160.763 111.408 161.04 112.257 161.066 113.306C161.075 113.549 161.079 113.934 161.079 114.463C161.079 114.974 161.075 115.347 161.066 115.581C161.031 116.638 160.754 117.496 160.234 118.155C159.723 118.805 158.904 119.13 157.777 119.13ZM157.777 118.051C158.444 118.051 158.947 117.83 159.285 117.388C159.623 116.946 159.801 116.322 159.818 115.516C159.827 115.265 159.831 114.905 159.831 114.437C159.831 113.96 159.827 113.605 159.818 113.371C159.801 112.574 159.619 111.954 159.272 111.512C158.934 111.061 158.436 110.836 157.777 110.836C157.118 110.836 156.62 111.061 156.282 111.512C155.944 111.954 155.766 112.574 155.749 113.371L155.736 114.437L155.749 115.516C155.766 116.322 155.944 116.946 156.282 117.388C156.62 117.83 157.118 118.051 157.777 118.051ZM165.731 118.571C165.644 118.571 165.57 118.545 165.51 118.493C165.458 118.432 165.432 118.359 165.432 118.272V115.555H162.741C162.654 115.555 162.58 115.529 162.52 115.477C162.468 115.416 162.442 115.343 162.442 115.256V114.866C162.442 114.779 162.468 114.71 162.52 114.658C162.58 114.597 162.654 114.567 162.741 114.567H165.432V111.928C165.432 111.833 165.458 111.759 165.51 111.707C165.57 111.655 165.644 111.629 165.731 111.629H166.147C166.242 111.629 166.316 111.655 166.368 111.707C166.42 111.759 166.446 111.833 166.446 111.928V114.567H169.137C169.223 114.567 169.293 114.597 169.345 114.658C169.405 114.71 169.436 114.779 169.436 114.866V115.256C169.436 115.343 169.405 115.416 169.345 115.477C169.293 115.529 169.223 115.555 169.137 115.555H166.446V118.272C166.446 118.359 166.415 118.432 166.355 118.493C166.303 118.545 166.233 118.571 166.147 118.571H165.731ZM174.469 119C174.382 119 174.308 118.974 174.248 118.922C174.196 118.861 174.17 118.788 174.17 118.701V110.069C174.17 109.974 174.196 109.9 174.248 109.848C174.308 109.796 174.382 109.77 174.469 109.77H175.067C175.162 109.77 175.236 109.796 175.288 109.848C175.34 109.9 175.366 109.974 175.366 110.069V113.098C175.617 112.777 175.912 112.535 176.25 112.37C176.596 112.197 177.021 112.11 177.524 112.11C178.356 112.11 179.001 112.379 179.461 112.916C179.929 113.445 180.163 114.147 180.163 115.022V118.701C180.163 118.788 180.132 118.861 180.072 118.922C180.02 118.974 179.95 119 179.864 119H179.253C179.166 119 179.092 118.974 179.032 118.922C178.98 118.861 178.954 118.788 178.954 118.701V115.1C178.954 114.476 178.802 113.991 178.499 113.644C178.195 113.297 177.758 113.124 177.186 113.124C176.631 113.124 176.189 113.302 175.86 113.657C175.53 114.004 175.366 114.485 175.366 115.1V118.701C175.366 118.788 175.335 118.861 175.275 118.922C175.223 118.974 175.153 119 175.067 119H174.469ZM184.731 119.13C183.847 119.13 183.141 118.857 182.612 118.311C182.083 117.756 181.793 117.002 181.741 116.049L181.728 115.607L181.741 115.178C181.793 114.242 182.083 113.497 182.612 112.942C183.141 112.387 183.847 112.11 184.731 112.11C185.684 112.11 186.421 112.413 186.941 113.02C187.47 113.627 187.734 114.45 187.734 115.49V115.724C187.734 115.811 187.704 115.884 187.643 115.945C187.591 115.997 187.522 116.023 187.435 116.023H182.924V116.14C182.95 116.703 183.123 117.184 183.444 117.583C183.765 117.982 184.189 118.181 184.718 118.181C185.125 118.181 185.455 118.103 185.706 117.947C185.966 117.782 186.161 117.613 186.291 117.44C186.369 117.336 186.43 117.275 186.473 117.258C186.516 117.232 186.59 117.219 186.694 117.219H187.266C187.344 117.219 187.409 117.241 187.461 117.284C187.522 117.327 187.552 117.384 187.552 117.453C187.552 117.644 187.435 117.873 187.201 118.142C186.967 118.411 186.633 118.645 186.2 118.844C185.775 119.035 185.286 119.13 184.731 119.13ZM186.551 115.139V115.1C186.551 114.493 186.386 113.999 186.057 113.618C185.728 113.237 185.286 113.046 184.731 113.046C184.168 113.046 183.726 113.237 183.405 113.618C183.084 113.999 182.924 114.493 182.924 115.1V115.139H186.551ZM191.187 119.13C190.762 119.13 190.368 119.043 190.004 118.87C189.649 118.697 189.363 118.463 189.146 118.168C188.938 117.865 188.834 117.531 188.834 117.167C188.834 116.595 189.068 116.127 189.536 115.763C190.004 115.399 190.641 115.156 191.447 115.035L193.397 114.762V114.385C193.397 113.492 192.881 113.046 191.85 113.046C191.451 113.046 191.131 113.128 190.888 113.293C190.645 113.449 190.468 113.635 190.355 113.852C190.32 113.939 190.281 113.999 190.238 114.034C190.203 114.06 190.151 114.073 190.082 114.073H189.575C189.497 114.073 189.428 114.047 189.367 113.995C189.315 113.934 189.289 113.865 189.289 113.787C189.289 113.588 189.38 113.358 189.562 113.098C189.753 112.829 190.043 112.6 190.433 112.409C190.823 112.21 191.3 112.11 191.863 112.11C192.834 112.11 193.527 112.335 193.943 112.786C194.368 113.237 194.58 113.8 194.58 114.476V118.701C194.58 118.788 194.55 118.861 194.489 118.922C194.437 118.974 194.368 119 194.281 119H193.709C193.622 119 193.553 118.974 193.501 118.922C193.449 118.861 193.423 118.788 193.423 118.701V118.129C193.232 118.415 192.955 118.653 192.591 118.844C192.227 119.035 191.759 119.13 191.187 119.13ZM191.447 118.181C192.019 118.181 192.487 117.995 192.851 117.622C193.215 117.249 193.397 116.708 193.397 115.997V115.633L191.876 115.854C191.252 115.941 190.78 116.088 190.459 116.296C190.138 116.504 189.978 116.764 189.978 117.076C189.978 117.431 190.121 117.704 190.407 117.895C190.702 118.086 191.048 118.181 191.447 118.181ZM196.774 119C196.688 119 196.614 118.974 196.553 118.922C196.501 118.861 196.475 118.788 196.475 118.701V110.069C196.475 109.974 196.501 109.9 196.553 109.848C196.614 109.796 196.688 109.77 196.774 109.77H197.346C197.433 109.77 197.502 109.8 197.554 109.861C197.615 109.913 197.645 109.982 197.645 110.069V118.701C197.645 118.788 197.615 118.861 197.554 118.922C197.502 118.974 197.433 119 197.346 119H196.774ZM202.198 119C200.855 119 200.183 118.242 200.183 116.725V113.241H199.156C199.069 113.241 199 113.215 198.948 113.163C198.896 113.111 198.87 113.042 198.87 112.955V112.539C198.87 112.452 198.896 112.383 198.948 112.331C199 112.27 199.069 112.24 199.156 112.24H200.183V110.069C200.183 109.982 200.209 109.913 200.261 109.861C200.313 109.8 200.382 109.77 200.469 109.77H201.041C201.128 109.77 201.197 109.8 201.249 109.861C201.31 109.913 201.34 109.982 201.34 110.069V112.24H202.952C203.039 112.24 203.108 112.27 203.16 112.331C203.221 112.383 203.251 112.452 203.251 112.539V112.955C203.251 113.042 203.221 113.111 203.16 113.163C203.108 113.215 203.039 113.241 202.952 113.241H201.34V116.634C201.34 117.076 201.409 117.41 201.548 117.635C201.695 117.86 201.942 117.973 202.289 117.973H203.082C203.169 117.973 203.238 118.003 203.29 118.064C203.342 118.116 203.368 118.185 203.368 118.272V118.701C203.368 118.788 203.342 118.861 203.29 118.922C203.238 118.974 203.169 119 203.082 119H202.198ZM204.95 119C204.863 119 204.79 118.974 204.729 118.922C204.677 118.861 204.651 118.788 204.651 118.701V110.069C204.651 109.974 204.677 109.9 204.729 109.848C204.79 109.796 204.863 109.77 204.95 109.77H205.548C205.643 109.77 205.717 109.796 205.769 109.848C205.821 109.9 205.847 109.974 205.847 110.069V113.098C206.098 112.777 206.393 112.535 206.731 112.37C207.078 112.197 207.502 112.11 208.005 112.11C208.837 112.11 209.483 112.379 209.942 112.916C210.41 113.445 210.644 114.147 210.644 115.022V118.701C210.644 118.788 210.614 118.861 210.553 118.922C210.501 118.974 210.432 119 210.345 119H209.734C209.647 119 209.574 118.974 209.513 118.922C209.461 118.861 209.435 118.788 209.435 118.701V115.1C209.435 114.476 209.283 113.991 208.98 113.644C208.677 113.297 208.239 113.124 207.667 113.124C207.112 113.124 206.67 113.302 206.341 113.657C206.012 114.004 205.847 114.485 205.847 115.1V118.701C205.847 118.788 205.817 118.861 205.756 118.922C205.704 118.974 205.635 119 205.548 119H204.95ZM218.438 119.13C217.51 119.13 216.787 118.87 216.267 118.35C215.747 117.821 215.474 117.085 215.448 116.14L215.435 115.62L215.448 115.1C215.474 114.155 215.747 113.423 216.267 112.903C216.787 112.374 217.51 112.11 218.438 112.11C219.062 112.11 219.586 112.223 220.011 112.448C220.444 112.665 220.765 112.938 220.973 113.267C221.189 113.596 221.306 113.926 221.324 114.255C221.332 114.333 221.302 114.402 221.233 114.463C221.172 114.524 221.103 114.554 221.025 114.554H220.453C220.366 114.554 220.301 114.537 220.258 114.502C220.214 114.459 220.171 114.385 220.128 114.281C219.972 113.856 219.755 113.557 219.478 113.384C219.209 113.202 218.867 113.111 218.451 113.111C217.905 113.111 217.471 113.28 217.151 113.618C216.83 113.956 216.657 114.472 216.631 115.165L216.618 115.62L216.631 116.075C216.657 116.768 216.83 117.284 217.151 117.622C217.471 117.96 217.905 118.129 218.451 118.129C218.875 118.129 219.222 118.042 219.491 117.869C219.759 117.687 219.972 117.384 220.128 116.959C220.171 116.855 220.214 116.786 220.258 116.751C220.301 116.708 220.366 116.686 220.453 116.686H221.025C221.103 116.686 221.172 116.716 221.233 116.777C221.302 116.838 221.332 116.907 221.324 116.985C221.306 117.306 221.189 117.631 220.973 117.96C220.765 118.289 220.444 118.567 220.011 118.792C219.586 119.017 219.062 119.13 218.438 119.13ZM224.753 119.13C224.329 119.13 223.934 119.043 223.57 118.87C223.215 118.697 222.929 118.463 222.712 118.168C222.504 117.865 222.4 117.531 222.4 117.167C222.4 116.595 222.634 116.127 223.102 115.763C223.57 115.399 224.207 115.156 225.013 115.035L226.963 114.762V114.385C226.963 113.492 226.448 113.046 225.416 113.046C225.018 113.046 224.697 113.128 224.454 113.293C224.212 113.449 224.034 113.635 223.921 113.852C223.887 113.939 223.848 113.999 223.804 114.034C223.77 114.06 223.718 114.073 223.648 114.073H223.141C223.063 114.073 222.994 114.047 222.933 113.995C222.881 113.934 222.855 113.865 222.855 113.787C222.855 113.588 222.946 113.358 223.128 113.098C223.319 112.829 223.609 112.6 223.999 112.409C224.389 112.21 224.866 112.11 225.429 112.11C226.4 112.11 227.093 112.335 227.509 112.786C227.934 113.237 228.146 113.8 228.146 114.476V118.701C228.146 118.788 228.116 118.861 228.055 118.922C228.003 118.974 227.934 119 227.847 119H227.275C227.189 119 227.119 118.974 227.067 118.922C227.015 118.861 226.989 118.788 226.989 118.701V118.129C226.799 118.415 226.521 118.653 226.157 118.844C225.793 119.035 225.325 119.13 224.753 119.13ZM225.013 118.181C225.585 118.181 226.053 117.995 226.417 117.622C226.781 117.249 226.963 116.708 226.963 115.997V115.633L225.442 115.854C224.818 115.941 224.346 116.088 224.025 116.296C223.705 116.504 223.544 116.764 223.544 117.076C223.544 117.431 223.687 117.704 223.973 117.895C224.268 118.086 224.615 118.181 225.013 118.181ZM230.328 119C230.241 119 230.167 118.974 230.107 118.922C230.055 118.861 230.029 118.788 230.029 118.701V112.552C230.029 112.465 230.055 112.392 230.107 112.331C230.167 112.27 230.241 112.24 230.328 112.24H230.874C230.969 112.24 231.043 112.27 231.095 112.331C231.155 112.383 231.186 112.457 231.186 112.552V113.124C231.541 112.535 232.143 112.24 232.993 112.24H233.5C233.595 112.24 233.669 112.266 233.721 112.318C233.773 112.37 233.799 112.444 233.799 112.539V113.02C233.799 113.107 233.773 113.18 233.721 113.241C233.669 113.293 233.595 113.319 233.5 113.319H232.759C232.282 113.319 231.905 113.458 231.628 113.735C231.359 114.012 231.225 114.389 231.225 114.866V118.701C231.225 118.788 231.194 118.861 231.134 118.922C231.073 118.974 230.999 119 230.913 119H230.328ZM237.467 119.13C236.583 119.13 235.877 118.857 235.348 118.311C234.82 117.756 234.529 117.002 234.477 116.049L234.464 115.607L234.477 115.178C234.529 114.242 234.82 113.497 235.348 112.942C235.877 112.387 236.583 112.11 237.467 112.11C238.421 112.11 239.157 112.413 239.677 113.02C240.206 113.627 240.47 114.45 240.47 115.49V115.724C240.47 115.811 240.44 115.884 240.379 115.945C240.327 115.997 240.258 116.023 240.171 116.023H235.66V116.14C235.686 116.703 235.86 117.184 236.18 117.583C236.501 117.982 236.926 118.181 237.454 118.181C237.862 118.181 238.191 118.103 238.442 117.947C238.702 117.782 238.897 117.613 239.027 117.44C239.105 117.336 239.166 117.275 239.209 117.258C239.253 117.232 239.326 117.219 239.43 117.219H240.002C240.08 117.219 240.145 117.241 240.197 117.284C240.258 117.327 240.288 117.384 240.288 117.453C240.288 117.644 240.171 117.873 239.937 118.142C239.703 118.411 239.37 118.645 238.936 118.844C238.512 119.035 238.022 119.13 237.467 119.13ZM239.287 115.139V115.1C239.287 114.493 239.123 113.999 238.793 113.618C238.464 113.237 238.022 113.046 237.467 113.046C236.904 113.046 236.462 113.237 236.141 113.618C235.821 113.999 235.66 114.493 235.66 115.1V115.139H239.287ZM245.562 121.47C245.476 121.47 245.402 121.444 245.341 121.392C245.289 121.34 245.263 121.266 245.263 121.171V112.539C245.263 112.444 245.289 112.37 245.341 112.318C245.402 112.266 245.476 112.24 245.562 112.24H246.108C246.204 112.24 246.277 112.266 246.329 112.318C246.381 112.37 246.407 112.444 246.407 112.539V113.111C246.91 112.444 247.625 112.11 248.552 112.11C249.462 112.11 250.143 112.4 250.593 112.981C251.053 113.553 251.295 114.285 251.321 115.178C251.33 115.273 251.334 115.421 251.334 115.62C251.334 115.819 251.33 115.967 251.321 116.062C251.295 116.946 251.053 117.678 250.593 118.259C250.143 118.84 249.462 119.13 248.552 119.13C247.625 119.13 246.923 118.801 246.446 118.142V121.171C246.446 121.258 246.416 121.327 246.355 121.379C246.303 121.44 246.234 121.47 246.147 121.47H245.562ZM248.305 118.116C248.929 118.116 249.384 117.921 249.67 117.531C249.956 117.141 250.112 116.63 250.138 115.997C250.147 115.91 250.151 115.785 250.151 115.62C250.151 113.956 249.536 113.124 248.305 113.124C247.699 113.124 247.239 113.328 246.927 113.735C246.624 114.134 246.464 114.606 246.446 115.152C246.438 115.247 246.433 115.416 246.433 115.659C246.433 115.902 246.438 116.071 246.446 116.166C246.464 116.695 246.628 117.154 246.94 117.544C247.261 117.925 247.716 118.116 248.305 118.116ZM253.268 119C253.181 119 253.108 118.974 253.047 118.922C252.995 118.861 252.969 118.788 252.969 118.701V112.552C252.969 112.465 252.995 112.392 253.047 112.331C253.108 112.27 253.181 112.24 253.268 112.24H253.814C253.909 112.24 253.983 112.27 254.035 112.331C254.096 112.383 254.126 112.457 254.126 112.552V113.124C254.481 112.535 255.084 112.24 255.933 112.24H256.44C256.535 112.24 256.609 112.266 256.661 112.318C256.713 112.37 256.739 112.444 256.739 112.539V113.02C256.739 113.107 256.713 113.18 256.661 113.241C256.609 113.293 256.535 113.319 256.44 113.319H255.699C255.222 113.319 254.845 113.458 254.568 113.735C254.299 114.012 254.165 114.389 254.165 114.866V118.701C254.165 118.788 254.135 118.861 254.074 118.922C254.013 118.974 253.94 119 253.853 119H253.268ZM260.473 119.13C259.52 119.13 258.783 118.861 258.263 118.324C257.752 117.787 257.479 117.072 257.444 116.179L257.431 115.62L257.444 115.061C257.479 114.168 257.756 113.453 258.276 112.916C258.805 112.379 259.537 112.11 260.473 112.11C261.409 112.11 262.137 112.379 262.657 112.916C263.186 113.453 263.467 114.168 263.502 115.061C263.519 115.252 263.528 115.438 263.528 115.62C263.528 115.802 263.519 115.988 263.502 116.179C263.467 117.072 263.19 117.787 262.67 118.324C262.159 118.861 261.426 119.13 260.473 119.13ZM260.473 118.155C261.028 118.155 261.465 117.982 261.786 117.635C262.115 117.28 262.293 116.773 262.319 116.114C262.328 116.027 262.332 115.863 262.332 115.62C262.332 115.377 262.328 115.213 262.319 115.126C262.293 114.467 262.115 113.965 261.786 113.618C261.465 113.263 261.028 113.085 260.473 113.085C259.918 113.085 259.476 113.263 259.147 113.618C258.826 113.965 258.653 114.467 258.627 115.126L258.614 115.62L258.627 116.114C258.653 116.773 258.826 117.28 259.147 117.635C259.476 117.982 259.918 118.155 260.473 118.155ZM267.281 119C267.056 119 266.895 118.892 266.8 118.675L264.382 112.643C264.373 112.617 264.369 112.574 264.369 112.513C264.369 112.435 264.395 112.37 264.447 112.318C264.499 112.266 264.56 112.24 264.629 112.24H265.227C265.366 112.24 265.47 112.309 265.539 112.448L267.541 117.635L269.543 112.448C269.56 112.396 269.595 112.348 269.647 112.305C269.708 112.262 269.777 112.24 269.855 112.24H270.453C270.522 112.24 270.583 112.266 270.635 112.318C270.687 112.37 270.713 112.435 270.713 112.513L270.687 112.643L268.282 118.675C268.187 118.892 268.026 119 267.801 119H267.281ZM272.296 110.966C272.209 110.966 272.136 110.94 272.075 110.888C272.023 110.827 271.997 110.754 271.997 110.667V109.991C271.997 109.904 272.023 109.831 272.075 109.77C272.136 109.709 272.209 109.679 272.296 109.679H273.063C273.15 109.679 273.223 109.709 273.284 109.77C273.345 109.831 273.375 109.904 273.375 109.991V110.667C273.375 110.754 273.345 110.827 273.284 110.888C273.223 110.94 273.15 110.966 273.063 110.966H272.296ZM272.4 119C272.313 119 272.24 118.974 272.179 118.922C272.127 118.861 272.101 118.788 272.101 118.701V112.539C272.101 112.452 272.127 112.383 272.179 112.331C272.24 112.27 272.313 112.24 272.4 112.24H272.972C273.059 112.24 273.128 112.27 273.18 112.331C273.241 112.383 273.271 112.452 273.271 112.539V118.701C273.271 118.788 273.241 118.861 273.18 118.922C273.128 118.974 273.059 119 272.972 119H272.4ZM277.694 119.13C276.784 119.13 276.099 118.835 275.64 118.246C275.189 117.657 274.947 116.911 274.912 116.01L274.899 115.62L274.912 115.23C274.947 114.337 275.194 113.596 275.653 113.007C276.112 112.409 276.793 112.11 277.694 112.11C278.595 112.11 279.297 112.431 279.8 113.072V110.069C279.8 109.982 279.826 109.913 279.878 109.861C279.939 109.8 280.012 109.77 280.099 109.77H280.684C280.771 109.77 280.84 109.8 280.892 109.861C280.953 109.913 280.983 109.982 280.983 110.069V118.701C280.983 118.788 280.953 118.861 280.892 118.922C280.84 118.974 280.771 119 280.684 119H280.125C280.038 119 279.969 118.974 279.917 118.922C279.865 118.861 279.839 118.788 279.839 118.701V118.142C279.345 118.801 278.63 119.13 277.694 119.13ZM277.941 118.116C278.548 118.116 279.003 117.917 279.306 117.518C279.609 117.111 279.774 116.63 279.8 116.075C279.809 115.98 279.813 115.815 279.813 115.581C279.813 115.338 279.809 115.169 279.8 115.074C279.783 114.545 279.614 114.09 279.293 113.709C278.981 113.319 278.53 113.124 277.941 113.124C277.317 113.124 276.862 113.319 276.576 113.709C276.29 114.099 276.134 114.61 276.108 115.243L276.095 115.62C276.095 117.284 276.71 118.116 277.941 118.116ZM285.621 119.13C284.737 119.13 284.03 118.857 283.502 118.311C282.973 117.756 282.683 117.002 282.631 116.049L282.618 115.607L282.631 115.178C282.683 114.242 282.973 113.497 283.502 112.942C284.03 112.387 284.737 112.11 285.621 112.11C286.574 112.11 287.311 112.413 287.831 113.02C288.359 113.627 288.624 114.45 288.624 115.49V115.724C288.624 115.811 288.593 115.884 288.533 115.945C288.481 115.997 288.411 116.023 288.325 116.023H283.814V116.14C283.84 116.703 284.013 117.184 284.334 117.583C284.654 117.982 285.079 118.181 285.608 118.181C286.015 118.181 286.344 118.103 286.596 117.947C286.856 117.782 287.051 117.613 287.181 117.44C287.259 117.336 287.319 117.275 287.363 117.258C287.406 117.232 287.48 117.219 287.584 117.219H288.156C288.234 117.219 288.299 117.241 288.351 117.284C288.411 117.327 288.442 117.384 288.442 117.453C288.442 117.644 288.325 117.873 288.091 118.142C287.857 118.411 287.523 118.645 287.09 118.844C286.665 119.035 286.175 119.13 285.621 119.13ZM287.441 115.139V115.1C287.441 114.493 287.276 113.999 286.947 113.618C286.617 113.237 286.175 113.046 285.621 113.046C285.057 113.046 284.615 113.237 284.295 113.618C283.974 113.999 283.814 114.493 283.814 115.1V115.139H287.441ZM290.503 119C290.417 119 290.343 118.974 290.282 118.922C290.23 118.861 290.204 118.788 290.204 118.701V112.552C290.204 112.465 290.23 112.392 290.282 112.331C290.343 112.27 290.417 112.24 290.503 112.24H291.049C291.145 112.24 291.218 112.27 291.27 112.331C291.331 112.383 291.361 112.457 291.361 112.552V113.124C291.717 112.535 292.319 112.24 293.168 112.24H293.675C293.771 112.24 293.844 112.266 293.896 112.318C293.948 112.37 293.974 112.444 293.974 112.539V113.02C293.974 113.107 293.948 113.18 293.896 113.241C293.844 113.293 293.771 113.319 293.675 113.319H292.934C292.458 113.319 292.081 113.458 291.803 113.735C291.535 114.012 291.4 114.389 291.4 114.866V118.701C291.4 118.788 291.37 118.861 291.309 118.922C291.249 118.974 291.175 119 291.088 119H290.503ZM297.406 119.13C296.808 119.13 296.301 119.035 295.885 118.844C295.478 118.645 295.175 118.419 294.975 118.168C294.776 117.917 294.676 117.709 294.676 117.544C294.676 117.457 294.707 117.392 294.767 117.349C294.828 117.297 294.893 117.271 294.962 117.271H295.508C295.56 117.271 295.599 117.28 295.625 117.297C295.66 117.314 295.703 117.353 295.755 117.414C295.955 117.657 296.176 117.847 296.418 117.986C296.67 118.125 297.003 118.194 297.419 118.194C297.887 118.194 298.26 118.107 298.537 117.934C298.823 117.761 298.966 117.509 298.966 117.18C298.966 116.963 298.906 116.79 298.784 116.66C298.663 116.53 298.459 116.413 298.173 116.309C297.896 116.205 297.48 116.092 296.925 115.971C296.171 115.806 295.638 115.568 295.326 115.256C295.014 114.944 294.858 114.541 294.858 114.047C294.858 113.726 294.954 113.419 295.144 113.124C295.335 112.821 295.617 112.578 295.989 112.396C296.371 112.205 296.821 112.11 297.341 112.11C297.887 112.11 298.351 112.201 298.732 112.383C299.122 112.565 299.413 112.777 299.603 113.02C299.803 113.263 299.902 113.466 299.902 113.631C299.902 113.709 299.872 113.774 299.811 113.826C299.759 113.878 299.694 113.904 299.616 113.904H299.122C299.001 113.904 298.914 113.856 298.862 113.761C298.715 113.596 298.589 113.471 298.485 113.384C298.39 113.289 298.247 113.211 298.056 113.15C297.866 113.081 297.627 113.046 297.341 113.046C296.917 113.046 296.592 113.137 296.366 113.319C296.141 113.492 296.028 113.726 296.028 114.021C296.028 114.203 296.076 114.359 296.171 114.489C296.267 114.61 296.449 114.727 296.717 114.84C296.986 114.944 297.385 115.052 297.913 115.165C298.737 115.338 299.317 115.585 299.655 115.906C300.002 116.227 300.175 116.638 300.175 117.141C300.175 117.514 300.067 117.852 299.85 118.155C299.642 118.458 299.326 118.697 298.901 118.87C298.485 119.043 297.987 119.13 297.406 119.13Z" fill="#4E2EA2"/>
<path d="M21.581 37C21.4677 37 21.3657 36.9603 21.275 36.881C21.1957 36.7903 21.156 36.6883 21.156 36.575V25.542C21.156 25.4173 21.1957 25.3153 21.275 25.236C21.3543 25.1453 21.4563 25.1 21.581 25.1H26.392C27.8653 25.1 29.0213 25.4343 29.86 26.103C30.6987 26.7717 31.118 27.752 31.118 29.044C31.118 30.336 30.6987 31.305 29.86 31.951C29.0213 32.5857 27.8653 32.903 26.392 32.903H24.454V36.575C24.454 36.6883 24.4143 36.7903 24.335 36.881C24.2557 36.9603 24.1537 37 24.029 37H21.581ZM26.307 30.472C26.7717 30.472 27.1343 30.353 27.395 30.115C27.667 29.8657 27.803 29.503 27.803 29.027C27.803 28.585 27.6783 28.228 27.429 27.956C27.191 27.684 26.817 27.548 26.307 27.548H24.403V30.472H26.307Z" fill="#4E2EA2"/>
<path d="M32.9321 37C32.8188 37 32.7168 36.9603 32.6261 36.881C32.5468 36.7903 32.5071 36.6883 32.5071 36.575V28.602C32.5071 28.4773 32.5468 28.3753 32.6261 28.296C32.7054 28.2053 32.8074 28.16 32.9321 28.16H35.0061C35.1308 28.16 35.2328 28.2053 35.3121 28.296C35.4028 28.3753 35.4481 28.4773 35.4481 28.602V29.248C35.7654 28.8967 36.1338 28.6303 36.5531 28.449C36.9838 28.2563 37.4598 28.16 37.9811 28.16H38.7461C38.8708 28.16 38.9728 28.1997 39.0521 28.279C39.1314 28.3583 39.1711 28.4603 39.1711 28.585V30.438C39.1711 30.5513 39.1314 30.6533 39.0521 30.744C38.9728 30.8233 38.8708 30.863 38.7461 30.863H37.0291C36.5758 30.863 36.2244 30.9877 35.9751 31.237C35.7371 31.4863 35.6181 31.8377 35.6181 32.291V36.575C35.6181 36.6997 35.5728 36.8017 35.4821 36.881C35.4028 36.9603 35.3008 37 35.1761 37H32.9321Z" fill="#4E2EA2"/>
<path d="M44.4246 37.17C43.042 37.17 41.954 36.8017 41.1606 36.065C40.3673 35.317 39.9593 34.2347 39.9366 32.818V32.291C39.982 30.9423 40.4013 29.8883 41.1946 29.129C41.988 28.3697 43.059 27.99 44.4076 27.99C45.3823 27.99 46.204 28.1883 46.8726 28.585C47.5526 28.9703 48.057 29.5087 48.3856 30.2C48.7256 30.88 48.8956 31.6563 48.8956 32.529V32.954C48.8956 33.0787 48.8503 33.1863 48.7596 33.277C48.6803 33.3563 48.5783 33.396 48.4536 33.396H43.0646V33.498C43.076 34.008 43.195 34.4217 43.4216 34.739C43.6483 35.045 43.9713 35.198 44.3906 35.198C44.6626 35.198 44.878 35.147 45.0366 35.045C45.2066 34.9317 45.3653 34.79 45.5126 34.62C45.6146 34.5067 45.694 34.4387 45.7506 34.416C45.8186 34.382 45.9206 34.365 46.0566 34.365H48.2836C48.3856 34.365 48.4706 34.399 48.5386 34.467C48.618 34.5237 48.6576 34.5973 48.6576 34.688C48.6576 34.9827 48.4876 35.3283 48.1476 35.725C47.819 36.1217 47.3316 36.4617 46.6856 36.745C46.051 37.0283 45.2973 37.17 44.4246 37.17ZM45.7676 31.662V31.628C45.7676 31.084 45.6486 30.6647 45.4106 30.37C45.1726 30.064 44.8383 29.911 44.4076 29.911C43.977 29.911 43.6426 30.064 43.4046 30.37C43.178 30.6647 43.0646 31.084 43.0646 31.628V31.662H45.7676Z" fill="#4E2EA2"/>
<path d="M50.8282 33.175C50.7035 33.175 50.5958 33.1353 50.5052 33.056C50.4258 32.9767 50.3862 32.8747 50.3862 32.75V31.05C50.3862 30.9253 50.4258 30.8233 50.5052 30.744C50.5958 30.6647 50.7035 30.625 50.8282 30.625H56.1832C56.3078 30.625 56.4098 30.6647 56.4892 30.744C56.5685 30.8233 56.6082 30.9253 56.6082 31.05V32.75C56.6082 32.8633 56.5685 32.9653 56.4892 33.056C56.4098 33.1353 56.3078 33.175 56.1832 33.175H50.8282Z" fill="#4E2EA2"/>
<path d="M62.6531 37.17C61.2705 37.17 60.1825 36.8017 59.3891 36.065C58.5958 35.317 58.1878 34.2347 58.1651 32.818V32.291C58.2105 30.9423 58.6298 29.8883 59.4231 29.129C60.2165 28.3697 61.2875 27.99 62.6361 27.99C63.6108 27.99 64.4325 28.1883 65.1011 28.585C65.7811 28.9703 66.2855 29.5087 66.6141 30.2C66.9541 30.88 67.1241 31.6563 67.1241 32.529V32.954C67.1241 33.0787 67.0788 33.1863 66.9881 33.277C66.9088 33.3563 66.8068 33.396 66.6821 33.396H61.2931V33.498C61.3045 34.008 61.4235 34.4217 61.6501 34.739C61.8768 35.045 62.1998 35.198 62.6191 35.198C62.8911 35.198 63.1065 35.147 63.2651 35.045C63.4351 34.9317 63.5938 34.79 63.7411 34.62C63.8431 34.5067 63.9225 34.4387 63.9791 34.416C64.0471 34.382 64.1491 34.365 64.2851 34.365H66.5121C66.6141 34.365 66.6991 34.399 66.7671 34.467C66.8465 34.5237 66.8861 34.5973 66.8861 34.688C66.8861 34.9827 66.7161 35.3283 66.3761 35.725C66.0475 36.1217 65.5601 36.4617 64.9141 36.745C64.2795 37.0283 63.5258 37.17 62.6531 37.17ZM63.9961 31.662V31.628C63.9961 31.084 63.8771 30.6647 63.6391 30.37C63.4011 30.064 63.0668 29.911 62.6361 29.911C62.2055 29.911 61.8711 30.064 61.6331 30.37C61.4065 30.6647 61.2931 31.084 61.2931 31.628V31.662H63.9961Z" fill="#4E2EA2"/>
<path d="M68.0099 37C67.9079 37 67.8172 36.966 67.7379 36.898C67.6585 36.8187 67.6189 36.7223 67.6189 36.609C67.6189 36.5183 67.6529 36.4333 67.7209 36.354L70.5429 32.461L67.9759 28.806C67.9079 28.7153 67.8739 28.6303 67.8739 28.551C67.8739 28.4377 67.9135 28.347 67.9929 28.279C68.0722 28.1997 68.1629 28.16 68.2649 28.16H70.4579C70.5939 28.16 70.6959 28.1883 70.7639 28.245C70.8319 28.3017 70.8999 28.3753 70.9679 28.466L72.4639 30.557L73.9769 28.466C73.9882 28.4547 74.0165 28.4207 74.0619 28.364C74.1072 28.3073 74.1639 28.262 74.2319 28.228C74.3112 28.1827 74.3962 28.16 74.4869 28.16H76.5779C76.6799 28.16 76.7705 28.1997 76.8499 28.279C76.9292 28.347 76.9689 28.432 76.9689 28.534C76.9689 28.6247 76.9349 28.7153 76.8669 28.806L74.2489 32.461L77.1219 36.354C77.1785 36.4333 77.2069 36.5183 77.2069 36.609C77.2069 36.7223 77.1672 36.8187 77.0879 36.898C77.0199 36.966 76.9292 37 76.8159 37H74.5209C74.3282 37 74.1695 36.9093 74.0449 36.728L72.3959 34.484L70.7299 36.728C70.6619 36.8187 70.5939 36.8867 70.5259 36.932C70.4579 36.9773 70.3615 37 70.2369 37H68.0099Z" fill="#4E2EA2"/>
<path d="M78.852 26.936C78.7273 26.936 78.6254 26.8963 78.546 26.817C78.4667 26.7263 78.427 26.6187 78.427 26.494V24.913C78.427 24.7883 78.4667 24.6863 78.546 24.607C78.6367 24.5163 78.7387 24.471 78.852 24.471H80.977C81.1017 24.471 81.2037 24.5163 81.283 24.607C81.3737 24.6863 81.419 24.7883 81.419 24.913V26.494C81.419 26.6187 81.3737 26.7263 81.283 26.817C81.2037 26.8963 81.1017 26.936 80.977 26.936H78.852ZM78.852 37C78.7387 37 78.6367 36.9603 78.546 36.881C78.4667 36.7903 78.427 36.6883 78.427 36.575V28.585C78.427 28.4603 78.4667 28.3583 78.546 28.279C78.6367 28.1997 78.7387 28.16 78.852 28.16H80.977C81.1017 28.16 81.2037 28.1997 81.283 28.279C81.3737 28.3583 81.419 28.4603 81.419 28.585V36.575C81.419 36.6997 81.3737 36.8017 81.283 36.881C81.2037 36.9603 81.1017 37 80.977 37H78.852Z" fill="#4E2EA2"/>
<path d="M87.0637 37.17C86.1343 37.17 85.358 37.0397 84.7347 36.779C84.1113 36.5183 83.6467 36.2067 83.3407 35.844C83.046 35.4813 82.8987 35.1527 82.8987 34.858C82.8987 34.7447 82.9383 34.654 83.0177 34.586C83.1083 34.5067 83.2047 34.467 83.3067 34.467H85.3637C85.4317 34.467 85.4883 34.4897 85.5337 34.535C85.7263 34.6597 85.834 34.7333 85.8567 34.756C86.072 34.9147 86.2703 35.0393 86.4517 35.13C86.6443 35.2093 86.871 35.249 87.1317 35.249C87.4377 35.249 87.687 35.1923 87.8797 35.079C88.0837 34.9543 88.1857 34.7843 88.1857 34.569C88.1857 34.3877 88.129 34.2403 88.0157 34.127C87.9137 34.0137 87.7097 33.906 87.4037 33.804C87.109 33.6907 86.6557 33.5773 86.0437 33.464C84.083 33.0673 83.1027 32.1607 83.1027 30.744C83.1027 30.2793 83.25 29.8373 83.5447 29.418C83.8507 28.9873 84.2927 28.6417 84.8707 28.381C85.46 28.1203 86.1627 27.99 86.9787 27.99C87.806 27.99 88.52 28.1203 89.1207 28.381C89.7327 28.6303 90.1973 28.9363 90.5147 29.299C90.832 29.6503 90.9907 29.9733 90.9907 30.268C90.9907 30.37 90.951 30.4607 90.8717 30.54C90.8037 30.6193 90.7187 30.659 90.6167 30.659H88.7467C88.6447 30.659 88.5653 30.6363 88.5087 30.591C88.3727 30.523 88.2367 30.438 88.1007 30.336C87.8967 30.2 87.7153 30.098 87.5567 30.03C87.4093 29.9507 87.2167 29.911 86.9787 29.911C86.6954 29.911 86.4743 29.9733 86.3157 30.098C86.157 30.2227 86.0777 30.3813 86.0777 30.574C86.0777 30.744 86.123 30.8857 86.2137 30.999C86.3157 31.101 86.514 31.203 86.8087 31.305C87.1147 31.407 87.5737 31.5147 88.1857 31.628C89.2963 31.8207 90.101 32.1663 90.5997 32.665C91.1097 33.1523 91.3647 33.7247 91.3647 34.382C91.3647 35.232 90.985 35.912 90.2257 36.422C89.4777 36.9207 88.4237 37.17 87.0637 37.17Z" fill="#4E2EA2"/>
<path d="M97.4118 37C95.0091 37 93.8078 35.8723 93.8078 33.617V30.472H92.4648C92.3514 30.472 92.2494 30.4323 92.1588 30.353C92.0794 30.2623 92.0398 30.1603 92.0398 30.047V28.585C92.0398 28.4603 92.0794 28.3583 92.1588 28.279C92.2494 28.1997 92.3514 28.16 92.4648 28.16H93.8078V25.355C93.8078 25.2303 93.8474 25.1283 93.9268 25.049C94.0174 24.9697 94.1194 24.93 94.2328 24.93H96.3238C96.4484 24.93 96.5504 24.9697 96.6298 25.049C96.7091 25.1283 96.7488 25.2303 96.7488 25.355V28.16H98.8738C98.9984 28.16 99.1004 28.1997 99.1798 28.279C99.2704 28.3583 99.3158 28.4603 99.3158 28.585V30.047C99.3158 30.1717 99.2704 30.2737 99.1798 30.353C99.1004 30.4323 98.9984 30.472 98.8738 30.472H96.7488V33.362C96.7488 33.7587 96.8224 34.059 96.9698 34.263C97.1171 34.467 97.3551 34.569 97.6838 34.569H99.0268C99.1514 34.569 99.2534 34.6143 99.3328 34.705C99.4121 34.7843 99.4518 34.8863 99.4518 35.011V36.575C99.4518 36.6883 99.4121 36.7903 99.3328 36.881C99.2534 36.9603 99.1514 37 99.0268 37H97.4118Z" fill="#4E2EA2"/>
<path d="M101.248 26.936C101.123 26.936 101.021 26.8963 100.942 26.817C100.862 26.7263 100.823 26.6187 100.823 26.494V24.913C100.823 24.7883 100.862 24.6863 100.942 24.607C101.032 24.5163 101.134 24.471 101.248 24.471H103.373C103.497 24.471 103.599 24.5163 103.679 24.607C103.769 24.6863 103.815 24.7883 103.815 24.913V26.494C103.815 26.6187 103.769 26.7263 103.679 26.817C103.599 26.8963 103.497 26.936 103.373 26.936H101.248ZM101.248 37C101.134 37 101.032 36.9603 100.942 36.881C100.862 36.7903 100.823 36.6883 100.823 36.575V28.585C100.823 28.4603 100.862 28.3583 100.942 28.279C101.032 28.1997 101.134 28.16 101.248 28.16H103.373C103.497 28.16 103.599 28.1997 103.679 28.279C103.769 28.3583 103.815 28.4603 103.815 28.585V36.575C103.815 36.6997 103.769 36.8017 103.679 36.881C103.599 36.9603 103.497 37 103.373 37H101.248Z" fill="#4E2EA2"/>
<path d="M106.178 37C106.065 37 105.963 36.9603 105.872 36.881C105.793 36.7903 105.753 36.6883 105.753 36.575V28.585C105.753 28.4603 105.793 28.3583 105.872 28.279C105.963 28.1997 106.065 28.16 106.178 28.16H108.269C108.394 28.16 108.496 28.1997 108.575 28.279C108.655 28.3583 108.694 28.4603 108.694 28.585V29.231C109 28.857 109.391 28.5567 109.867 28.33C110.355 28.1033 110.91 27.99 111.533 27.99C112.179 27.99 112.752 28.1373 113.25 28.432C113.76 28.7267 114.157 29.163 114.44 29.741C114.735 30.319 114.882 31.016 114.882 31.832V36.575C114.882 36.6883 114.843 36.7903 114.763 36.881C114.684 36.9603 114.582 37 114.457 37H112.196C112.072 37 111.964 36.9603 111.873 36.881C111.794 36.8017 111.754 36.6997 111.754 36.575V31.934C111.754 31.424 111.63 31.033 111.38 30.761C111.142 30.489 110.791 30.353 110.326 30.353C109.873 30.353 109.516 30.4947 109.255 30.778C108.995 31.05 108.864 31.4353 108.864 31.934V36.575C108.864 36.6883 108.825 36.7903 108.745 36.881C108.666 36.9603 108.564 37 108.439 37H106.178Z" fill="#4E2EA2"/>
<path d="M121.163 40.74C120.075 40.74 119.191 40.5643 118.511 40.213C117.831 39.8617 117.344 39.4537 117.049 38.989C116.755 38.5357 116.607 38.156 116.607 37.85C116.607 37.7367 116.653 37.6403 116.743 37.561C116.834 37.4817 116.936 37.442 117.049 37.442H119.327C119.441 37.442 119.531 37.4647 119.599 37.51C119.667 37.5667 119.73 37.6573 119.786 37.782C119.9 38.0313 120.047 38.224 120.228 38.36C120.41 38.5073 120.693 38.581 121.078 38.581C121.566 38.581 121.928 38.4563 122.166 38.207C122.404 37.969 122.523 37.5667 122.523 37V35.861C121.923 36.4843 121.101 36.796 120.058 36.796C118.914 36.796 118.035 36.4673 117.423 35.81C116.823 35.1413 116.494 34.161 116.437 32.869L116.42 32.41C116.42 31.0273 116.726 29.945 117.338 29.163C117.962 28.381 118.868 27.99 120.058 27.99C120.636 27.99 121.146 28.1033 121.588 28.33C122.03 28.5453 122.399 28.84 122.693 29.214V28.602C122.693 28.4773 122.733 28.3753 122.812 28.296C122.892 28.2053 122.994 28.16 123.118 28.16H125.192C125.317 28.16 125.419 28.2053 125.498 28.296C125.589 28.3753 125.634 28.4773 125.634 28.602V36.745C125.634 38.0483 125.243 39.04 124.461 39.72C123.679 40.4 122.58 40.74 121.163 40.74ZM121.027 34.501C121.515 34.501 121.877 34.3537 122.115 34.059C122.353 33.7643 122.489 33.3903 122.523 32.937C122.535 32.8577 122.54 32.6877 122.54 32.427C122.54 32.155 122.535 31.985 122.523 31.917C122.489 31.4523 122.353 31.0783 122.115 30.795C121.877 30.5003 121.515 30.353 121.027 30.353C120.529 30.353 120.166 30.506 119.939 30.812C119.713 31.1067 119.588 31.5203 119.565 32.053L119.548 32.427C119.548 33.073 119.656 33.583 119.871 33.957C120.087 34.3197 120.472 34.501 121.027 34.501Z" fill="#4E2EA2"/>
<path d="M134.469 37.17C133.369 37.17 132.502 36.8243 131.868 36.133C131.244 35.4417 130.91 34.4557 130.865 33.175L130.848 32.58L130.865 31.968C130.91 30.7327 131.25 29.7637 131.885 29.061C132.519 28.347 133.381 27.99 134.469 27.99C135.489 27.99 136.31 28.3187 136.934 28.976V25.355C136.934 25.2303 136.973 25.1283 137.053 25.049C137.143 24.9697 137.245 24.93 137.359 24.93H139.552C139.676 24.93 139.778 24.9697 139.858 25.049C139.948 25.1283 139.994 25.2303 139.994 25.355V36.575C139.994 36.6997 139.948 36.8017 139.858 36.881C139.778 36.9603 139.676 37 139.552 37H137.529C137.415 37 137.313 36.9603 137.223 36.881C137.143 36.7903 137.104 36.6883 137.104 36.575V36.048C136.492 36.796 135.613 37.17 134.469 37.17ZM135.455 34.807C135.942 34.807 136.305 34.654 136.543 34.348C136.781 34.0307 136.911 33.634 136.934 33.158C136.956 32.8407 136.968 32.6253 136.968 32.512C136.968 32.3873 136.956 32.1777 136.934 31.883C136.911 31.441 136.775 31.0783 136.526 30.795C136.288 30.5003 135.931 30.353 135.455 30.353C134.945 30.353 134.576 30.506 134.35 30.812C134.134 31.1067 134.01 31.5203 133.976 32.053L133.959 32.58L133.976 33.107C134.01 33.6397 134.134 34.059 134.35 34.365C134.576 34.6597 134.945 34.807 135.455 34.807Z" fill="#4E2EA2"/>
<path d="M142.353 26.936C142.228 26.936 142.126 26.8963 142.047 26.817C141.968 26.7263 141.928 26.6187 141.928 26.494V24.913C141.928 24.7883 141.968 24.6863 142.047 24.607C142.138 24.5163 142.24 24.471 142.353 24.471H144.478C144.603 24.471 144.705 24.5163 144.784 24.607C144.875 24.6863 144.92 24.7883 144.92 24.913V26.494C144.92 26.6187 144.875 26.7263 144.784 26.817C144.705 26.8963 144.603 26.936 144.478 26.936H142.353ZM142.353 37C142.24 37 142.138 36.9603 142.047 36.881C141.968 36.7903 141.928 36.6883 141.928 36.575V28.585C141.928 28.4603 141.968 28.3583 142.047 28.279C142.138 28.1997 142.24 28.16 142.353 28.16H144.478C144.603 28.16 144.705 28.1997 144.784 28.279C144.875 28.3583 144.92 28.4603 144.92 28.585V36.575C144.92 36.6997 144.875 36.8017 144.784 36.881C144.705 36.9603 144.603 37 144.478 37H142.353Z" fill="#4E2EA2"/>
<path d="M150.565 37.17C149.635 37.17 148.859 37.0397 148.236 36.779C147.612 36.5183 147.148 36.2067 146.842 35.844C146.547 35.4813 146.4 35.1527 146.4 34.858C146.4 34.7447 146.439 34.654 146.519 34.586C146.609 34.5067 146.706 34.467 146.808 34.467H148.865C148.933 34.467 148.989 34.4897 149.035 34.535C149.227 34.6597 149.335 34.7333 149.358 34.756C149.573 34.9147 149.771 35.0393 149.953 35.13C150.145 35.2093 150.372 35.249 150.633 35.249C150.939 35.249 151.188 35.1923 151.381 35.079C151.585 34.9543 151.687 34.7843 151.687 34.569C151.687 34.3877 151.63 34.2403 151.517 34.127C151.415 34.0137 151.211 33.906 150.905 33.804C150.61 33.6907 150.157 33.5773 149.545 33.464C147.584 33.0673 146.604 32.1607 146.604 30.744C146.604 30.2793 146.751 29.8373 147.046 29.418C147.352 28.9873 147.794 28.6417 148.372 28.381C148.961 28.1203 149.664 27.99 150.48 27.99C151.307 27.99 152.021 28.1203 152.622 28.381C153.234 28.6303 153.698 28.9363 154.016 29.299C154.333 29.6503 154.492 29.9733 154.492 30.268C154.492 30.37 154.452 30.4607 154.373 30.54C154.305 30.6193 154.22 30.659 154.118 30.659H152.248C152.146 30.659 152.066 30.6363 152.01 30.591C151.874 30.523 151.738 30.438 151.602 30.336C151.398 30.2 151.216 30.098 151.058 30.03C150.91 29.9507 150.718 29.911 150.48 29.911C150.196 29.911 149.975 29.9733 149.817 30.098C149.658 30.2227 149.579 30.3813 149.579 30.574C149.579 30.744 149.624 30.8857 149.715 30.999C149.817 31.101 150.015 31.203 150.31 31.305C150.616 31.407 151.075 31.5147 151.687 31.628C152.797 31.8207 153.602 32.1663 154.101 32.665C154.611 33.1523 154.866 33.7247 154.866 34.382C154.866 35.232 154.486 35.912 153.727 36.422C152.979 36.9207 151.925 37.17 150.565 37.17Z" fill="#4E2EA2"/>
<path d="M160.47 37.17C159.087 37.17 157.999 36.8017 157.206 36.065C156.412 35.317 156.004 34.2347 155.982 32.818V32.291C156.027 30.9423 156.446 29.8883 157.24 29.129C158.033 28.3697 159.104 27.99 160.453 27.99C161.427 27.99 162.249 28.1883 162.918 28.585C163.598 28.9703 164.102 29.5087 164.431 30.2C164.771 30.88 164.941 31.6563 164.941 32.529V32.954C164.941 33.0787 164.895 33.1863 164.805 33.277C164.725 33.3563 164.623 33.396 164.499 33.396H159.11V33.498C159.121 34.008 159.24 34.4217 159.467 34.739C159.693 35.045 160.016 35.198 160.436 35.198C160.708 35.198 160.923 35.147 161.082 35.045C161.252 34.9317 161.41 34.79 161.558 34.62C161.66 34.5067 161.739 34.4387 161.796 34.416C161.864 34.382 161.966 34.365 162.102 34.365H164.329C164.431 34.365 164.516 34.399 164.584 34.467C164.663 34.5237 164.703 34.5973 164.703 34.688C164.703 34.9827 164.533 35.3283 164.193 35.725C163.864 36.1217 163.377 36.4617 162.731 36.745C162.096 37.0283 161.342 37.17 160.47 37.17ZM161.813 31.662V31.628C161.813 31.084 161.694 30.6647 161.456 30.37C161.218 30.064 160.883 29.911 160.453 29.911C160.022 29.911 159.688 30.064 159.45 30.37C159.223 30.6647 159.11 31.084 159.11 31.628V31.662H161.813Z" fill="#4E2EA2"/>
<path d="M169.134 37.17C168.533 37.17 167.984 37.0567 167.485 36.83C166.998 36.592 166.612 36.269 166.329 35.861C166.057 35.453 165.921 35.0053 165.921 34.518C165.921 33.7473 166.238 33.124 166.873 32.648C167.519 32.1607 168.403 31.8263 169.525 31.645L171.633 31.322V31.118C171.633 30.6987 171.548 30.3927 171.378 30.2C171.208 30.0073 170.919 29.911 170.511 29.911C170.284 29.911 170.092 29.9507 169.933 30.03C169.786 30.1093 169.616 30.2283 169.423 30.387C169.276 30.5117 169.145 30.6023 169.032 30.659C168.987 30.7383 168.93 30.778 168.862 30.778H166.89C166.777 30.778 166.68 30.744 166.601 30.676C166.533 30.5967 166.505 30.506 166.516 30.404C166.527 30.098 166.68 29.758 166.975 29.384C167.27 28.9987 167.717 28.67 168.318 28.398C168.919 28.126 169.661 27.99 170.545 27.99C171.95 27.99 172.993 28.3017 173.673 28.925C174.353 29.537 174.693 30.37 174.693 31.424V36.575C174.693 36.6883 174.653 36.7903 174.574 36.881C174.495 36.9603 174.393 37 174.268 37H172.177C172.064 37 171.962 36.9603 171.871 36.881C171.792 36.7903 171.752 36.6883 171.752 36.575V35.98C171.503 36.3313 171.157 36.6203 170.715 36.847C170.273 37.0623 169.746 37.17 169.134 37.17ZM169.984 35.164C170.483 35.164 170.885 34.9997 171.191 34.671C171.508 34.3423 171.667 33.8663 171.667 33.243V33.039L170.256 33.277C169.304 33.4583 168.828 33.7983 168.828 34.297C168.828 34.5577 168.936 34.7673 169.151 34.926C169.378 35.0847 169.655 35.164 169.984 35.164Z" fill="#4E2EA2"/>
<path d="M180.248 37.17C179.319 37.17 178.543 37.0397 177.919 36.779C177.296 36.5183 176.831 36.2067 176.525 35.844C176.231 35.4813 176.083 35.1527 176.083 34.858C176.083 34.7447 176.123 34.654 176.202 34.586C176.293 34.5067 176.389 34.467 176.491 34.467H178.548C178.616 34.467 178.673 34.4897 178.718 34.535C178.911 34.6597 179.019 34.7333 179.041 34.756C179.257 34.9147 179.455 35.0393 179.636 35.13C179.829 35.2093 180.056 35.249 180.316 35.249C180.622 35.249 180.872 35.1923 181.064 35.079C181.268 34.9543 181.37 34.7843 181.37 34.569C181.37 34.3877 181.314 34.2403 181.2 34.127C181.098 34.0137 180.894 33.906 180.588 33.804C180.294 33.6907 179.84 33.5773 179.228 33.464C177.268 33.0673 176.287 32.1607 176.287 30.744C176.287 30.2793 176.435 29.8373 176.729 29.418C177.035 28.9873 177.477 28.6417 178.055 28.381C178.645 28.1203 179.347 27.99 180.163 27.99C180.991 27.99 181.705 28.1203 182.305 28.381C182.917 28.6303 183.382 28.9363 183.699 29.299C184.017 29.6503 184.175 29.9733 184.175 30.268C184.175 30.37 184.136 30.4607 184.056 30.54C183.988 30.6193 183.903 30.659 183.801 30.659H181.931C181.829 30.659 181.75 30.6363 181.693 30.591C181.557 30.523 181.421 30.438 181.285 30.336C181.081 30.2 180.9 30.098 180.741 30.03C180.594 29.9507 180.401 29.911 180.163 29.911C179.88 29.911 179.659 29.9733 179.5 30.098C179.342 30.2227 179.262 30.3813 179.262 30.574C179.262 30.744 179.308 30.8857 179.398 30.999C179.5 31.101 179.699 31.203 179.993 31.305C180.299 31.407 180.758 31.5147 181.37 31.628C182.481 31.8207 183.286 32.1663 183.784 32.665C184.294 33.1523 184.549 33.7247 184.549 34.382C184.549 35.232 184.17 35.912 183.41 36.422C182.662 36.9207 181.608 37.17 180.248 37.17Z" fill="#4E2EA2"/>
<path d="M190.153 37.17C188.77 37.17 187.682 36.8017 186.889 36.065C186.096 35.317 185.688 34.2347 185.665 32.818V32.291C185.71 30.9423 186.13 29.8883 186.923 29.129C187.716 28.3697 188.787 27.99 190.136 27.99C191.111 27.99 191.932 28.1883 192.601 28.585C193.281 28.9703 193.785 29.5087 194.114 30.2C194.454 30.88 194.624 31.6563 194.624 32.529V32.954C194.624 33.0787 194.579 33.1863 194.488 33.277C194.409 33.3563 194.307 33.396 194.182 33.396H188.793V33.498C188.804 34.008 188.923 34.4217 189.15 34.739C189.377 35.045 189.7 35.198 190.119 35.198C190.391 35.198 190.606 35.147 190.765 35.045C190.935 34.9317 191.094 34.79 191.241 34.62C191.343 34.5067 191.422 34.4387 191.479 34.416C191.547 34.382 191.649 34.365 191.785 34.365H194.012C194.114 34.365 194.199 34.399 194.267 34.467C194.346 34.5237 194.386 34.5973 194.386 34.688C194.386 34.9827 194.216 35.3283 193.876 35.725C193.547 36.1217 193.06 36.4617 192.414 36.745C191.779 37.0283 191.026 37.17 190.153 37.17ZM191.496 31.662V31.628C191.496 31.084 191.377 30.6647 191.139 30.37C190.901 30.064 190.567 29.911 190.136 29.911C189.705 29.911 189.371 30.064 189.133 30.37C188.906 30.6647 188.793 31.084 188.793 31.628V31.662H191.496Z" fill="#4E2EA2"/>
<path d="M199.855 37.17C198.925 37.17 198.149 37.0397 197.526 36.779C196.902 36.5183 196.438 36.2067 196.132 35.844C195.837 35.4813 195.69 35.1527 195.69 34.858C195.69 34.7447 195.729 34.654 195.809 34.586C195.899 34.5067 195.996 34.467 196.098 34.467H198.155C198.223 34.467 198.279 34.4897 198.325 34.535C198.517 34.6597 198.625 34.7333 198.648 34.756C198.863 34.9147 199.061 35.0393 199.243 35.13C199.435 35.2093 199.662 35.249 199.923 35.249C200.229 35.249 200.478 35.1923 200.671 35.079C200.875 34.9543 200.977 34.7843 200.977 34.569C200.977 34.3877 200.92 34.2403 200.807 34.127C200.705 34.0137 200.501 33.906 200.195 33.804C199.9 33.6907 199.447 33.5773 198.835 33.464C196.874 33.0673 195.894 32.1607 195.894 30.744C195.894 30.2793 196.041 29.8373 196.336 29.418C196.642 28.9873 197.084 28.6417 197.662 28.381C198.251 28.1203 198.954 27.99 199.77 27.99C200.597 27.99 201.311 28.1203 201.912 28.381C202.524 28.6303 202.988 28.9363 203.306 29.299C203.623 29.6503 203.782 29.9733 203.782 30.268C203.782 30.37 203.742 30.4607 203.663 30.54C203.595 30.6193 203.51 30.659 203.408 30.659H201.538C201.436 30.659 201.356 30.6363 201.3 30.591C201.164 30.523 201.028 30.438 200.892 30.336C200.688 30.2 200.506 30.098 200.348 30.03C200.2 29.9507 200.008 29.911 199.77 29.911C199.486 29.911 199.265 29.9733 199.107 30.098C198.948 30.2227 198.869 30.3813 198.869 30.574C198.869 30.744 198.914 30.8857 199.005 30.999C199.107 31.101 199.305 31.203 199.6 31.305C199.906 31.407 200.365 31.5147 200.977 31.628C202.087 31.8207 202.892 32.1663 203.391 32.665C203.901 33.1523 204.156 33.7247 204.156 34.382C204.156 35.232 203.776 35.912 203.017 36.422C202.269 36.9207 201.215 37.17 199.855 37.17Z" fill="#4E2EA2"/>
<path d="M24.485 59.15C23.345 59.15 22.42 58.85 21.71 58.25C21.01 57.64 20.635 56.795 20.585 55.715L20.57 55.115L20.585 54.5C20.625 53.42 21 52.575 21.71 51.965C22.42 51.355 23.345 51.05 24.485 51.05C25.355 51.05 26.085 51.205 26.675 51.515C27.265 51.825 27.705 52.195 27.995 52.625C28.285 53.045 28.44 53.43 28.46 53.78C28.47 53.89 28.435 53.985 28.355 54.065C28.275 54.135 28.18 54.17 28.07 54.17H26.06C25.95 54.17 25.865 54.145 25.805 54.095C25.745 54.045 25.69 53.965 25.64 53.855C25.53 53.575 25.385 53.37 25.205 53.24C25.035 53.11 24.815 53.045 24.545 53.045C23.775 53.045 23.375 53.555 23.345 54.575L23.33 55.145L23.345 55.64C23.355 56.16 23.46 56.545 23.66 56.795C23.86 57.035 24.155 57.155 24.545 57.155C24.835 57.155 25.06 57.095 25.22 56.975C25.39 56.845 25.53 56.635 25.64 56.345C25.69 56.235 25.745 56.155 25.805 56.105C25.865 56.055 25.95 56.03 26.06 56.03H28.07C28.17 56.03 28.26 56.065 28.34 56.135C28.42 56.205 28.46 56.29 28.46 56.39C28.46 56.7 28.32 57.075 28.04 57.515C27.77 57.945 27.335 58.325 26.735 58.655C26.135 58.985 25.385 59.15 24.485 59.15Z" fill="#4E2EA2"/>
<path d="M33.4966 59.15C32.2366 59.15 31.2666 58.86 30.5866 58.28C29.9166 57.69 29.5516 56.855 29.4916 55.775C29.4816 55.645 29.4766 55.42 29.4766 55.1C29.4766 54.78 29.4816 54.555 29.4916 54.425C29.5516 53.365 29.9266 52.54 30.6166 51.95C31.3166 51.35 32.2766 51.05 33.4966 51.05C34.7166 51.05 35.6716 51.35 36.3616 51.95C37.0616 52.54 37.4416 53.365 37.5016 54.425C37.5216 54.685 37.5316 54.91 37.5316 55.1C37.5316 55.29 37.5216 55.515 37.5016 55.775C37.4416 56.855 37.0716 57.69 36.3916 58.28C35.7216 58.86 34.7566 59.15 33.4966 59.15ZM33.4966 57.26C33.9066 57.26 34.2116 57.135 34.4116 56.885C34.6116 56.625 34.7266 56.23 34.7566 55.7C34.7666 55.6 34.7716 55.4 34.7716 55.1C34.7716 54.8 34.7666 54.6 34.7566 54.5C34.7266 53.98 34.6116 53.59 34.4116 53.33C34.2116 53.07 33.9066 52.94 33.4966 52.94C33.0866 52.94 32.7816 53.07 32.5816 53.33C32.3816 53.59 32.2666 53.98 32.2366 54.5L32.2216 55.1L32.2366 55.7C32.2666 56.23 32.3816 56.625 32.5816 56.885C32.7816 57.135 33.0866 57.26 33.4966 57.26Z" fill="#4E2EA2"/>
<path d="M41.4575 59C41.3175 59 41.2075 58.97 41.1275 58.91C41.0575 58.84 40.9975 58.745 40.9475 58.625L38.0975 51.665C38.0875 51.635 38.0825 51.595 38.0825 51.545C38.0825 51.445 38.1125 51.365 38.1725 51.305C38.2425 51.235 38.3275 51.2 38.4275 51.2H40.2125C40.4225 51.2 40.5725 51.305 40.6625 51.515L42.2975 56L43.9475 51.515C43.9775 51.435 44.0275 51.365 44.0975 51.305C44.1675 51.235 44.2625 51.2 44.3825 51.2H46.1825C46.2725 51.2 46.3525 51.235 46.4225 51.305C46.4925 51.365 46.5275 51.445 46.5275 51.545L46.4975 51.665L43.6625 58.625C43.6125 58.745 43.5475 58.84 43.4675 58.91C43.3875 58.97 43.2775 59 43.1375 59H41.4575Z" fill="#4E2EA2"/>
<path d="M51.014 59.15C49.794 59.15 48.834 58.825 48.134 58.175C47.434 57.515 47.074 56.56 47.054 55.31V54.845C47.094 53.655 47.464 52.725 48.164 52.055C48.864 51.385 49.809 51.05 50.999 51.05C51.859 51.05 52.584 51.225 53.174 51.575C53.774 51.915 54.219 52.39 54.509 53C54.809 53.6 54.959 54.285 54.959 55.055V55.43C54.959 55.54 54.919 55.635 54.839 55.715C54.769 55.785 54.679 55.82 54.569 55.82H49.814V55.91C49.824 56.36 49.929 56.725 50.129 57.005C50.329 57.275 50.614 57.41 50.984 57.41C51.224 57.41 51.414 57.365 51.554 57.275C51.704 57.175 51.844 57.05 51.974 56.9C52.064 56.8 52.134 56.74 52.184 56.72C52.244 56.69 52.334 56.675 52.454 56.675H54.419C54.509 56.675 54.584 56.705 54.644 56.765C54.714 56.815 54.749 56.88 54.749 56.96C54.749 57.22 54.599 57.525 54.299 57.875C54.009 58.225 53.579 58.525 53.009 58.775C52.449 59.025 51.784 59.15 51.014 59.15ZM52.199 54.29V54.26C52.199 53.78 52.094 53.41 51.884 53.15C51.674 52.88 51.379 52.745 50.999 52.745C50.619 52.745 50.324 52.88 50.114 53.15C49.914 53.41 49.814 53.78 49.814 54.26V54.29H52.199Z" fill="#4E2EA2"/>
<path d="M56.6792 59C56.5792 59 56.4892 58.965 56.4092 58.895C56.3392 58.815 56.3042 58.725 56.3042 58.625V51.59C56.3042 51.48 56.3392 51.39 56.4092 51.32C56.4792 51.24 56.5692 51.2 56.6792 51.2H58.5092C58.6192 51.2 58.7092 51.24 58.7792 51.32C58.8592 51.39 58.8992 51.48 58.8992 51.59V52.16C59.1792 51.85 59.5042 51.615 59.8742 51.455C60.2542 51.285 60.6742 51.2 61.1342 51.2H61.8092C61.9192 51.2 62.0092 51.235 62.0792 51.305C62.1492 51.375 62.1842 51.465 62.1842 51.575V53.21C62.1842 53.31 62.1492 53.4 62.0792 53.48C62.0092 53.55 61.9192 53.585 61.8092 53.585H60.2942C59.8942 53.585 59.5842 53.695 59.3642 53.915C59.1542 54.135 59.0492 54.445 59.0492 54.845V58.625C59.0492 58.735 59.0092 58.825 58.9292 58.895C58.8592 58.965 58.7692 59 58.6592 59H56.6792Z" fill="#4E2EA2"/>
<path d="M66.8197 59.15C65.5997 59.15 64.6397 58.825 63.9397 58.175C63.2397 57.515 62.8797 56.56 62.8597 55.31V54.845C62.8997 53.655 63.2697 52.725 63.9697 52.055C64.6697 51.385 65.6147 51.05 66.8047 51.05C67.6647 51.05 68.3897 51.225 68.9797 51.575C69.5797 51.915 70.0247 52.39 70.3147 53C70.6147 53.6 70.7647 54.285 70.7647 55.055V55.43C70.7647 55.54 70.7247 55.635 70.6447 55.715C70.5747 55.785 70.4847 55.82 70.3747 55.82H65.6197V55.91C65.6297 56.36 65.7347 56.725 65.9347 57.005C66.1347 57.275 66.4197 57.41 66.7897 57.41C67.0297 57.41 67.2197 57.365 67.3597 57.275C67.5097 57.175 67.6497 57.05 67.7797 56.9C67.8697 56.8 67.9397 56.74 67.9897 56.72C68.0497 56.69 68.1397 56.675 68.2597 56.675H70.2247C70.3147 56.675 70.3897 56.705 70.4497 56.765C70.5197 56.815 70.5547 56.88 70.5547 56.96C70.5547 57.22 70.4047 57.525 70.1047 57.875C69.8147 58.225 69.3847 58.525 68.8147 58.775C68.2547 59.025 67.5897 59.15 66.8197 59.15ZM68.0047 54.29V54.26C68.0047 53.78 67.8997 53.41 67.6897 53.15C67.4797 52.88 67.1847 52.745 66.8047 52.745C66.4247 52.745 66.1297 52.88 65.9197 53.15C65.7197 53.41 65.6197 53.78 65.6197 54.26V54.29H68.0047Z" fill="#4E2EA2"/>
<path d="M75.0349 59.15C74.0649 59.15 73.2999 58.845 72.7399 58.235C72.1899 57.625 71.8949 56.755 71.8549 55.625L71.8399 55.1L71.8549 54.56C71.8949 53.47 72.1949 52.615 72.7549 51.995C73.3149 51.365 74.0749 51.05 75.0349 51.05C75.9349 51.05 76.6599 51.34 77.2099 51.92V48.725C77.2099 48.615 77.2449 48.525 77.3149 48.455C77.3949 48.385 77.4849 48.35 77.5849 48.35H79.5199C79.6299 48.35 79.7199 48.385 79.7899 48.455C79.8699 48.525 79.9099 48.615 79.9099 48.725V58.625C79.9099 58.735 79.8699 58.825 79.7899 58.895C79.7199 58.965 79.6299 59 79.5199 59H77.7349C77.6349 59 77.5449 58.965 77.4649 58.895C77.3949 58.815 77.3599 58.725 77.3599 58.625V58.16C76.8199 58.82 76.0449 59.15 75.0349 59.15ZM75.9049 57.065C76.3349 57.065 76.6549 56.93 76.8649 56.66C77.0749 56.38 77.1899 56.03 77.2099 55.61C77.2299 55.33 77.2399 55.14 77.2399 55.04C77.2399 54.93 77.2299 54.745 77.2099 54.485C77.1899 54.095 77.0699 53.775 76.8499 53.525C76.6399 53.265 76.3249 53.135 75.9049 53.135C75.4549 53.135 75.1299 53.27 74.9299 53.54C74.7399 53.8 74.6299 54.165 74.5999 54.635L74.5849 55.1L74.5999 55.565C74.6299 56.035 74.7399 56.405 74.9299 56.675C75.1299 56.935 75.4549 57.065 75.9049 57.065Z" fill="#4E2EA2"/>
<path d="M87.1211 59.15C86.5911 59.15 86.1061 59.05 85.6661 58.85C85.2361 58.64 84.8961 58.355 84.6461 57.995C84.4061 57.635 84.2861 57.24 84.2861 56.81C84.2861 56.13 84.5661 55.58 85.1261 55.16C85.6961 54.73 86.4761 54.435 87.4661 54.275L89.3261 53.99V53.81C89.3261 53.44 89.2511 53.17 89.1011 53C88.9511 52.83 88.6961 52.745 88.3361 52.745C88.1361 52.745 87.9661 52.78 87.8261 52.85C87.6961 52.92 87.5461 53.025 87.3761 53.165C87.2461 53.275 87.1311 53.355 87.0311 53.405C86.9911 53.475 86.9411 53.51 86.8811 53.51H85.1411C85.0411 53.51 84.9561 53.48 84.8861 53.42C84.8261 53.35 84.8011 53.27 84.8111 53.18C84.8211 52.91 84.9561 52.61 85.2161 52.28C85.4761 51.94 85.8711 51.65 86.4011 51.41C86.9311 51.17 87.5861 51.05 88.3661 51.05C89.6061 51.05 90.5261 51.325 91.1261 51.875C91.7261 52.415 92.0261 53.15 92.0261 54.08V58.625C92.0261 58.725 91.9911 58.815 91.9211 58.895C91.8511 58.965 91.7611 59 91.6511 59H89.8061C89.7061 59 89.6161 58.965 89.5361 58.895C89.4661 58.815 89.4311 58.725 89.4311 58.625V58.1C89.2111 58.41 88.9061 58.665 88.5161 58.865C88.1261 59.055 87.6611 59.15 87.1211 59.15ZM87.8711 57.38C88.3111 57.38 88.6661 57.235 88.9361 56.945C89.2161 56.655 89.3561 56.235 89.3561 55.685V55.505L88.1111 55.715C87.2711 55.875 86.8511 56.175 86.8511 56.615C86.8511 56.845 86.9461 57.03 87.1361 57.17C87.3361 57.31 87.5811 57.38 87.8711 57.38Z" fill="#4E2EA2"/>
<path d="M94.8891 59C94.7791 59 94.6842 58.965 94.6041 58.895C94.5341 58.825 94.4991 58.735 94.4991 58.625V53.24H93.3741C93.2641 53.24 93.1692 53.205 93.0891 53.135C93.0191 53.065 92.9841 52.975 92.9841 52.865V51.575C92.9841 51.465 93.0191 51.375 93.0891 51.305C93.1692 51.235 93.2641 51.2 93.3741 51.2H94.4991V50.75C94.4991 49.75 94.7891 49.025 95.3691 48.575C95.9492 48.125 96.7791 47.9 97.8591 47.9H99.0442C99.1542 47.9 99.2441 47.935 99.3141 48.005C99.3941 48.075 99.4342 48.165 99.4342 48.275V49.565C99.4342 49.675 99.3941 49.765 99.3141 49.835C99.2441 49.905 99.1542 49.94 99.0442 49.94H97.9791C97.6591 49.94 97.4291 50.015 97.2891 50.165C97.1591 50.305 97.0941 50.525 97.0941 50.825V51.2H98.8941C99.0042 51.2 99.0941 51.235 99.1641 51.305C99.2441 51.375 99.2841 51.465 99.2841 51.575V52.865C99.2841 52.975 99.2441 53.065 99.1641 53.135C99.0941 53.205 99.0042 53.24 98.8941 53.24H97.0941V58.625C97.0941 58.725 97.0592 58.815 96.9892 58.895C96.9192 58.965 96.8291 59 96.7191 59H94.8891Z" fill="#4E2EA2"/>
<path d="M104.418 59C102.298 59 101.238 58.005 101.238 56.015V53.24H100.053C99.9528 53.24 99.8628 53.205 99.7828 53.135C99.7128 53.055 99.6778 52.965 99.6778 52.865V51.575C99.6778 51.465 99.7128 51.375 99.7828 51.305C99.8628 51.235 99.9528 51.2 100.053 51.2H101.238V48.725C101.238 48.615 101.273 48.525 101.343 48.455C101.423 48.385 101.513 48.35 101.613 48.35H103.458C103.568 48.35 103.658 48.385 103.728 48.455C103.798 48.525 103.833 48.615 103.833 48.725V51.2H105.708C105.818 51.2 105.908 51.235 105.978 51.305C106.058 51.375 106.098 51.465 106.098 51.575V52.865C106.098 52.975 106.058 53.065 105.978 53.135C105.908 53.205 105.818 53.24 105.708 53.24H103.833V55.79C103.833 56.14 103.898 56.405 104.028 56.585C104.158 56.765 104.368 56.855 104.658 56.855H105.843C105.953 56.855 106.043 56.895 106.113 56.975C106.183 57.045 106.218 57.135 106.218 57.245V58.625C106.218 58.725 106.183 58.815 106.113 58.895C106.043 58.965 105.953 59 105.843 59H104.418Z" fill="#4E2EA2"/>
<path d="M111.087 59.15C109.867 59.15 108.907 58.825 108.207 58.175C107.507 57.515 107.147 56.56 107.127 55.31V54.845C107.167 53.655 107.537 52.725 108.237 52.055C108.937 51.385 109.882 51.05 111.072 51.05C111.932 51.05 112.657 51.225 113.247 51.575C113.847 51.915 114.292 52.39 114.582 53C114.882 53.6 115.032 54.285 115.032 55.055V55.43C115.032 55.54 114.992 55.635 114.912 55.715C114.842 55.785 114.752 55.82 114.642 55.82H109.887V55.91C109.897 56.36 110.002 56.725 110.202 57.005C110.402 57.275 110.687 57.41 111.057 57.41C111.297 57.41 111.487 57.365 111.627 57.275C111.777 57.175 111.917 57.05 112.047 56.9C112.137 56.8 112.207 56.74 112.257 56.72C112.317 56.69 112.407 56.675 112.527 56.675H114.492C114.582 56.675 114.657 56.705 114.717 56.765C114.787 56.815 114.822 56.88 114.822 56.96C114.822 57.22 114.672 57.525 114.372 57.875C114.082 58.225 113.652 58.525 113.082 58.775C112.522 59.025 111.857 59.15 111.087 59.15ZM112.272 54.29V54.26C112.272 53.78 112.167 53.41 111.957 53.15C111.747 52.88 111.452 52.745 111.072 52.745C110.692 52.745 110.397 52.88 110.187 53.15C109.987 53.41 109.887 53.78 109.887 54.26V54.29H112.272Z" fill="#4E2EA2"/>
<path d="M116.752 59C116.652 59 116.562 58.965 116.482 58.895C116.412 58.815 116.377 58.725 116.377 58.625V51.59C116.377 51.48 116.412 51.39 116.482 51.32C116.552 51.24 116.642 51.2 116.752 51.2H118.582C118.692 51.2 118.782 51.24 118.852 51.32C118.932 51.39 118.972 51.48 118.972 51.59V52.16C119.252 51.85 119.577 51.615 119.947 51.455C120.327 51.285 120.747 51.2 121.207 51.2H121.882C121.992 51.2 122.082 51.235 122.152 51.305C122.222 51.375 122.257 51.465 122.257 51.575V53.21C122.257 53.31 122.222 53.4 122.152 53.48C122.082 53.55 121.992 53.585 121.882 53.585H120.367C119.967 53.585 119.657 53.695 119.437 53.915C119.227 54.135 119.122 54.445 119.122 54.845V58.625C119.122 58.735 119.082 58.825 119.002 58.895C118.932 58.965 118.842 59 118.732 59H116.752Z" fill="#4E2EA2"/>
<path d="M126.298 59C126.198 59 126.108 58.965 126.028 58.895C125.958 58.815 125.923 58.725 125.923 58.625V57.5C125.923 57.2 126.048 56.95 126.298 56.75L127.693 55.385C128.643 54.665 129.358 54.105 129.838 53.705C130.328 53.305 130.698 52.945 130.948 52.625C131.208 52.295 131.338 51.985 131.338 51.695C131.338 50.955 130.968 50.585 130.228 50.585C129.838 50.585 129.538 50.705 129.328 50.945C129.118 51.175 128.978 51.465 128.908 51.815C128.848 52.045 128.678 52.16 128.398 52.16H126.418C126.328 52.16 126.248 52.13 126.178 52.07C126.118 52 126.088 51.925 126.088 51.845C126.108 51.185 126.288 50.59 126.628 50.06C126.978 49.52 127.463 49.095 128.083 48.785C128.703 48.465 129.418 48.305 130.228 48.305C131.068 48.305 131.793 48.44 132.403 48.71C133.013 48.98 133.473 49.36 133.783 49.85C134.103 50.34 134.263 50.91 134.263 51.56C134.263 52.28 134.038 52.93 133.588 53.51C133.148 54.09 132.473 54.72 131.563 55.4L130.318 56.645H134.113C134.223 56.645 134.313 56.68 134.383 56.75C134.453 56.82 134.488 56.91 134.488 57.02V58.625C134.488 58.725 134.453 58.815 134.383 58.895C134.313 58.965 134.223 59 134.113 59H126.298Z" fill="#4E2EA2"/>
<path d="M140.23 61.85C140.14 61.85 140.065 61.82 140.005 61.76C139.945 61.7 139.915 61.625 139.915 61.535C139.915 61.465 139.925 61.4 139.945 61.34L141.13 58.52L138.25 51.71C138.22 51.63 138.205 51.575 138.205 51.545C138.225 51.445 138.265 51.365 138.325 51.305C138.395 51.235 138.475 51.2 138.565 51.2H140.35C140.56 51.2 140.705 51.305 140.785 51.515L142.45 55.775L144.16 51.515C144.26 51.305 144.41 51.2 144.61 51.2H146.38C146.47 51.2 146.545 51.235 146.605 51.305C146.675 51.365 146.71 51.435 146.71 51.515C146.71 51.585 146.7 51.65 146.68 51.71L142.435 61.535C142.335 61.745 142.18 61.85 141.97 61.85H140.23Z" fill="#4E2EA2"/>
<path d="M151.136 59.15C149.916 59.15 148.956 58.825 148.256 58.175C147.556 57.515 147.196 56.56 147.176 55.31V54.845C147.216 53.655 147.586 52.725 148.286 52.055C148.986 51.385 149.931 51.05 151.121 51.05C151.981 51.05 152.706 51.225 153.296 51.575C153.896 51.915 154.341 52.39 154.631 53C154.931 53.6 155.081 54.285 155.081 55.055V55.43C155.081 55.54 155.041 55.635 154.961 55.715C154.891 55.785 154.801 55.82 154.691 55.82H149.936V55.91C149.946 56.36 150.051 56.725 150.251 57.005C150.451 57.275 150.736 57.41 151.106 57.41C151.346 57.41 151.536 57.365 151.676 57.275C151.826 57.175 151.966 57.05 152.096 56.9C152.186 56.8 152.256 56.74 152.306 56.72C152.366 56.69 152.456 56.675 152.576 56.675H154.541C154.631 56.675 154.706 56.705 154.766 56.765C154.836 56.815 154.871 56.88 154.871 56.96C154.871 57.22 154.721 57.525 154.421 57.875C154.131 58.225 153.701 58.525 153.131 58.775C152.571 59.025 151.906 59.15 151.136 59.15ZM152.321 54.29V54.26C152.321 53.78 152.216 53.41 152.006 53.15C151.796 52.88 151.501 52.745 151.121 52.745C150.741 52.745 150.446 52.88 150.236 53.15C150.036 53.41 149.936 53.78 149.936 54.26V54.29H152.321Z" fill="#4E2EA2"/>
<path d="M158.781 59.15C158.251 59.15 157.766 59.05 157.326 58.85C156.896 58.64 156.556 58.355 156.306 57.995C156.066 57.635 155.946 57.24 155.946 56.81C155.946 56.13 156.226 55.58 156.786 55.16C157.356 54.73 158.136 54.435 159.126 54.275L160.986 53.99V53.81C160.986 53.44 160.911 53.17 160.761 53C160.611 52.83 160.356 52.745 159.996 52.745C159.796 52.745 159.626 52.78 159.486 52.85C159.356 52.92 159.206 53.025 159.036 53.165C158.906 53.275 158.791 53.355 158.691 53.405C158.651 53.475 158.601 53.51 158.541 53.51H156.801C156.701 53.51 156.616 53.48 156.546 53.42C156.486 53.35 156.461 53.27 156.471 53.18C156.481 52.91 156.616 52.61 156.876 52.28C157.136 51.94 157.531 51.65 158.061 51.41C158.591 51.17 159.246 51.05 160.026 51.05C161.266 51.05 162.186 51.325 162.786 51.875C163.386 52.415 163.686 53.15 163.686 54.08V58.625C163.686 58.725 163.651 58.815 163.581 58.895C163.511 58.965 163.421 59 163.311 59H161.466C161.366 59 161.276 58.965 161.196 58.895C161.126 58.815 161.091 58.725 161.091 58.625V58.1C160.871 58.41 160.566 58.665 160.176 58.865C159.786 59.055 159.321 59.15 158.781 59.15ZM159.531 57.38C159.971 57.38 160.326 57.235 160.596 56.945C160.876 56.655 161.016 56.235 161.016 55.685V55.505L159.771 55.715C158.931 55.875 158.511 56.175 158.511 56.615C158.511 56.845 158.606 57.03 158.796 57.17C158.996 57.31 159.241 57.38 159.531 57.38Z" fill="#4E2EA2"/>
<path d="M165.693 59C165.593 59 165.503 58.965 165.423 58.895C165.353 58.815 165.318 58.725 165.318 58.625V51.59C165.318 51.48 165.353 51.39 165.423 51.32C165.493 51.24 165.583 51.2 165.693 51.2H167.523C167.633 51.2 167.723 51.24 167.793 51.32C167.873 51.39 167.913 51.48 167.913 51.59V52.16C168.193 51.85 168.518 51.615 168.888 51.455C169.268 51.285 169.688 51.2 170.148 51.2H170.823C170.933 51.2 171.023 51.235 171.093 51.305C171.163 51.375 171.198 51.465 171.198 51.575V53.21C171.198 53.31 171.163 53.4 171.093 53.48C171.023 53.55 170.933 53.585 170.823 53.585H169.308C168.908 53.585 168.598 53.695 168.378 53.915C168.168 54.135 168.063 54.445 168.063 54.845V58.625C168.063 58.735 168.023 58.825 167.943 58.895C167.873 58.965 167.783 59 167.673 59H165.693Z" fill="#4E2EA2"/>
<path d="M175.502 59.15C174.682 59.15 173.997 59.035 173.447 58.805C172.897 58.575 172.487 58.3 172.217 57.98C171.957 57.66 171.827 57.37 171.827 57.11C171.827 57.01 171.862 56.93 171.932 56.87C172.012 56.8 172.097 56.765 172.187 56.765H174.002C174.062 56.765 174.112 56.785 174.152 56.825C174.322 56.935 174.417 57 174.437 57.02C174.627 57.16 174.802 57.27 174.962 57.35C175.132 57.42 175.332 57.455 175.562 57.455C175.832 57.455 176.052 57.405 176.222 57.305C176.402 57.195 176.492 57.045 176.492 56.855C176.492 56.695 176.442 56.565 176.342 56.465C176.252 56.365 176.072 56.27 175.802 56.18C175.542 56.08 175.142 55.98 174.602 55.88C172.872 55.53 172.007 54.73 172.007 53.48C172.007 53.07 172.137 52.68 172.397 52.31C172.667 51.93 173.057 51.625 173.567 51.395C174.087 51.165 174.707 51.05 175.427 51.05C176.157 51.05 176.787 51.165 177.317 51.395C177.857 51.615 178.267 51.885 178.547 52.205C178.827 52.515 178.967 52.8 178.967 53.06C178.967 53.15 178.932 53.23 178.862 53.3C178.802 53.37 178.727 53.405 178.637 53.405H176.987C176.897 53.405 176.827 53.385 176.777 53.345C176.657 53.285 176.537 53.21 176.417 53.12C176.237 53 176.077 52.91 175.937 52.85C175.807 52.78 175.637 52.745 175.427 52.745C175.177 52.745 174.982 52.8 174.842 52.91C174.702 53.02 174.632 53.16 174.632 53.33C174.632 53.48 174.672 53.605 174.752 53.705C174.842 53.795 175.017 53.885 175.277 53.975C175.547 54.065 175.952 54.16 176.492 54.26C177.472 54.43 178.182 54.735 178.622 55.175C179.072 55.605 179.297 56.11 179.297 56.69C179.297 57.44 178.962 58.04 178.292 58.49C177.632 58.93 176.702 59.15 175.502 59.15Z" fill="#4E2EA2"/>
</g>
</svg>
