<svg width="320" height="148" viewBox="0 0 320 148" fill="none" xmlns="http://www.w3.org/2000/svg">
<rect width="320" height="148" rx="6" fill="#FFF8CA"/>
<mask id="mask0" mask-type="alpha" maskUnits="userSpaceOnUse" x="0" y="0" width="320" height="148">
<rect width="320" height="148" rx="6" fill="white"/>
</mask>
<g mask="url(#mask0)">
<path d="M122.347 129.751C102.601 138.016 102.001 160 102.001 160H314C317.314 160 320 157.351 320 154.038C320 135.866 320 81.9821 320 74.9254C314.187 66.8905 300.38 65 279.307 65C258.234 65 229.167 67.3632 214.634 89.1045C200.1 110.846 205.098 116.423 185.567 125.025C166.037 133.627 142.094 121.487 122.347 129.751Z" fill="#FFFCE5"/>
<path fill-rule="evenodd" clip-rule="evenodd" d="M247.273 0C247.273 0 211.378 68 148.583 68C85.7893 68 75.7304 7.31849 -1.52588e-05 0H247.273Z" fill="#FFFCE5"/>
<path d="M20.52 119C20.4507 119 20.39 118.974 20.338 118.922C20.286 118.87 20.26 118.809 20.26 118.74L20.286 118.597L23.51 110.186C23.5793 109.995 23.718 109.9 23.926 109.9H24.758C24.966 109.9 25.1047 109.995 25.174 110.186L28.398 118.597L28.424 118.74C28.424 118.809 28.3937 118.87 28.333 118.922C28.281 118.974 28.2203 119 28.151 119H27.54C27.4533 119 27.3797 118.978 27.319 118.935C27.267 118.883 27.2323 118.831 27.215 118.779L26.487 116.907H22.184L21.469 118.779C21.3997 118.926 21.2913 119 21.144 119H20.52ZM22.561 115.828H26.123L24.342 111.161L22.561 115.828Z" fill="#4E2EA2"/>
<path d="M30.3543 119C30.2676 119 30.194 118.974 30.1333 118.922C30.0813 118.861 30.0553 118.788 30.0553 118.701V113.241H28.9373C28.8506 113.241 28.777 113.215 28.7163 113.163C28.6643 113.111 28.6383 113.042 28.6383 112.955V112.539C28.6383 112.452 28.6643 112.383 28.7163 112.331C28.777 112.27 28.8506 112.24 28.9373 112.24H30.0553V111.59C30.0553 110.888 30.2243 110.346 30.5623 109.965C30.909 109.575 31.4723 109.38 32.2523 109.38H33.0193C33.106 109.38 33.1753 109.41 33.2273 109.471C33.288 109.523 33.3183 109.592 33.3183 109.679V110.095C33.3183 110.182 33.288 110.251 33.2273 110.303C33.1753 110.355 33.106 110.381 33.0193 110.381H32.2783C31.8796 110.381 31.6023 110.485 31.4463 110.693C31.2903 110.901 31.2123 111.222 31.2123 111.655V112.24H34.0073V111.59C34.0073 110.888 34.1763 110.346 34.5143 109.965C34.861 109.575 35.4243 109.38 36.2043 109.38H36.9713C37.058 109.38 37.1273 109.41 37.1793 109.471C37.2313 109.523 37.2573 109.592 37.2573 109.679V110.095C37.2573 110.182 37.2313 110.251 37.1793 110.303C37.1273 110.355 37.058 110.381 36.9713 110.381H36.2303C35.8316 110.381 35.5543 110.485 35.3983 110.693C35.2423 110.901 35.1643 111.222 35.1643 111.655V112.24H36.8413C36.928 112.24 36.9973 112.27 37.0493 112.331C37.1013 112.383 37.1273 112.452 37.1273 112.539V112.955C37.1273 113.042 37.1013 113.111 37.0493 113.163C36.9973 113.215 36.928 113.241 36.8413 113.241H35.1643V118.701C35.1643 118.788 35.134 118.861 35.0733 118.922C35.0213 118.974 34.952 119 34.8653 119H34.2933C34.2066 119 34.1373 118.974 34.0853 118.922C34.0333 118.861 34.0073 118.788 34.0073 118.701V113.241H31.2123V118.701C31.2123 118.788 31.182 118.861 31.1213 118.922C31.0693 118.974 31 119 30.9133 119H30.3543Z" fill="#4E2EA2"/>
<path d="M40.9075 119.13C39.9541 119.13 39.2175 118.861 38.6975 118.324C38.1861 117.787 37.9131 117.072 37.8785 116.179L37.8655 115.62L37.8785 115.061C37.9131 114.168 38.1905 113.453 38.7105 112.916C39.2391 112.379 39.9715 112.11 40.9075 112.11C41.8435 112.11 42.5715 112.379 43.0915 112.916C43.6201 113.453 43.9018 114.168 43.9365 115.061C43.9538 115.252 43.9625 115.438 43.9625 115.62C43.9625 115.802 43.9538 115.988 43.9365 116.179C43.9018 117.072 43.6245 117.787 43.1045 118.324C42.5931 118.861 41.8608 119.13 40.9075 119.13ZM40.9075 118.155C41.4621 118.155 41.8998 117.982 42.2205 117.635C42.5498 117.28 42.7275 116.773 42.7535 116.114C42.7621 116.027 42.7665 115.863 42.7665 115.62C42.7665 115.377 42.7621 115.213 42.7535 115.126C42.7275 114.467 42.5498 113.965 42.2205 113.618C41.8998 113.263 41.4621 113.085 40.9075 113.085C40.3528 113.085 39.9108 113.263 39.5815 113.618C39.2608 113.965 39.0875 114.467 39.0615 115.126L39.0485 115.62L39.0615 116.114C39.0875 116.773 39.2608 117.28 39.5815 117.635C39.9108 117.982 40.3528 118.155 40.9075 118.155Z" fill="#4E2EA2"/>
<path d="M45.9029 119C45.8162 119 45.7426 118.974 45.6819 118.922C45.6299 118.861 45.6039 118.788 45.6039 118.701V112.552C45.6039 112.465 45.6299 112.392 45.6819 112.331C45.7426 112.27 45.8162 112.24 45.9029 112.24H46.4489C46.5442 112.24 46.6179 112.27 46.6699 112.331C46.7306 112.383 46.7609 112.457 46.7609 112.552V113.124C47.1162 112.535 47.7186 112.24 48.5679 112.24H49.0749C49.1702 112.24 49.2439 112.266 49.2959 112.318C49.3479 112.37 49.3739 112.444 49.3739 112.539V113.02C49.3739 113.107 49.3479 113.18 49.2959 113.241C49.2439 113.293 49.1702 113.319 49.0749 113.319H48.3339C47.8572 113.319 47.4802 113.458 47.2029 113.735C46.9342 114.012 46.7999 114.389 46.7999 114.866V118.701C46.7999 118.788 46.7696 118.861 46.7089 118.922C46.6482 118.974 46.5746 119 46.4879 119H45.9029Z" fill="#4E2EA2"/>
<path d="M52.822 119.13C51.912 119.13 51.2273 118.835 50.768 118.246C50.3173 117.657 50.0746 116.911 50.04 116.01L50.027 115.62L50.04 115.23C50.0746 114.337 50.3216 113.596 50.781 113.007C51.2403 112.409 51.9206 112.11 52.822 112.11C53.7233 112.11 54.4253 112.431 54.928 113.072V110.069C54.928 109.982 54.954 109.913 55.006 109.861C55.0666 109.8 55.1403 109.77 55.227 109.77H55.812C55.8986 109.77 55.968 109.8 56.02 109.861C56.0806 109.913 56.111 109.982 56.111 110.069V118.701C56.111 118.788 56.0806 118.861 56.02 118.922C55.968 118.974 55.8986 119 55.812 119H55.253C55.1663 119 55.097 118.974 55.045 118.922C54.993 118.861 54.967 118.788 54.967 118.701V118.142C54.473 118.801 53.758 119.13 52.822 119.13ZM53.069 118.116C53.6756 118.116 54.1306 117.917 54.434 117.518C54.7373 117.111 54.902 116.63 54.928 116.075C54.9366 115.98 54.941 115.815 54.941 115.581C54.941 115.338 54.9366 115.169 54.928 115.074C54.9106 114.545 54.7416 114.09 54.421 113.709C54.109 113.319 53.6583 113.124 53.069 113.124C52.445 113.124 51.99 113.319 51.704 113.709C51.418 114.099 51.262 114.61 51.236 115.243L51.223 115.62C51.223 117.284 51.8383 118.116 53.069 118.116Z" fill="#4E2EA2"/>
<path d="M59.9427 119.13C59.518 119.13 59.1237 119.043 58.7597 118.87C58.4044 118.697 58.1184 118.463 57.9017 118.168C57.6937 117.865 57.5897 117.531 57.5897 117.167C57.5897 116.595 57.8237 116.127 58.2917 115.763C58.7597 115.399 59.3967 115.156 60.2027 115.035L62.1527 114.762V114.385C62.1527 113.492 61.637 113.046 60.6057 113.046C60.207 113.046 59.8864 113.128 59.6437 113.293C59.401 113.449 59.2234 113.635 59.1107 113.852C59.076 113.939 59.037 113.999 58.9937 114.034C58.959 114.06 58.907 114.073 58.8377 114.073H58.3307C58.2527 114.073 58.1834 114.047 58.1227 113.995C58.0707 113.934 58.0447 113.865 58.0447 113.787C58.0447 113.588 58.1357 113.358 58.3177 113.098C58.5084 112.829 58.7987 112.6 59.1887 112.409C59.5787 112.21 60.0554 112.11 60.6187 112.11C61.5894 112.11 62.2827 112.335 62.6987 112.786C63.1234 113.237 63.3357 113.8 63.3357 114.476V118.701C63.3357 118.788 63.3054 118.861 63.2447 118.922C63.1927 118.974 63.1234 119 63.0367 119H62.4647C62.378 119 62.3087 118.974 62.2567 118.922C62.2047 118.861 62.1787 118.788 62.1787 118.701V118.129C61.988 118.415 61.7107 118.653 61.3467 118.844C60.9827 119.035 60.5147 119.13 59.9427 119.13ZM60.2027 118.181C60.7747 118.181 61.2427 117.995 61.6067 117.622C61.9707 117.249 62.1527 116.708 62.1527 115.997V115.633L60.6317 115.854C60.0077 115.941 59.5354 116.088 59.2147 116.296C58.894 116.504 58.7337 116.764 58.7337 117.076C58.7337 117.431 58.8767 117.704 59.1627 117.895C59.4574 118.086 59.804 118.181 60.2027 118.181Z" fill="#4E2EA2"/>
<path d="M68.5202 119.13C67.5842 119.13 66.8692 118.801 66.3752 118.142V118.701C66.3752 118.788 66.3448 118.861 66.2842 118.922C66.2322 118.974 66.1628 119 66.0762 119H65.5302C65.4435 119 65.3698 118.974 65.3092 118.922C65.2572 118.861 65.2312 118.788 65.2312 118.701V110.069C65.2312 109.974 65.2572 109.9 65.3092 109.848C65.3698 109.796 65.4435 109.77 65.5302 109.77H66.1152C66.2018 109.77 66.2712 109.8 66.3232 109.861C66.3838 109.913 66.4142 109.982 66.4142 110.069V113.072C66.8995 112.431 67.6015 112.11 68.5202 112.11C69.4302 112.11 70.1105 112.409 70.5612 113.007C71.0205 113.596 71.2632 114.337 71.2892 115.23C71.2978 115.325 71.3022 115.455 71.3022 115.62C71.3022 115.785 71.2978 115.915 71.2892 116.01C71.2632 116.903 71.0205 117.648 70.5612 118.246C70.1105 118.835 69.4302 119.13 68.5202 119.13ZM68.2732 118.116C68.8972 118.116 69.3522 117.921 69.6382 117.531C69.9242 117.141 70.0802 116.63 70.1062 115.997C70.1148 115.91 70.1192 115.785 70.1192 115.62C70.1192 113.956 69.5038 113.124 68.2732 113.124C67.6838 113.124 67.2288 113.319 66.9082 113.709C66.5962 114.09 66.4315 114.545 66.4142 115.074C66.4055 115.169 66.4012 115.338 66.4012 115.581C66.4012 115.815 66.4055 115.98 66.4142 116.075C66.4315 116.63 66.5918 117.111 66.8952 117.518C67.2072 117.917 67.6665 118.116 68.2732 118.116Z" fill="#4E2EA2"/>
<path d="M73.2489 119C73.1623 119 73.0886 118.974 73.0279 118.922C72.9759 118.861 72.9499 118.788 72.9499 118.701V110.069C72.9499 109.974 72.9759 109.9 73.0279 109.848C73.0886 109.796 73.1623 109.77 73.2489 109.77H73.8209C73.9076 109.77 73.9769 109.8 74.0289 109.861C74.0896 109.913 74.1199 109.982 74.1199 110.069V118.701C74.1199 118.788 74.0896 118.861 74.0289 118.922C73.9769 118.974 73.9076 119 73.8209 119H73.2489Z" fill="#4E2EA2"/>
<path d="M78.7507 119.13C77.8667 119.13 77.1603 118.857 76.6317 118.311C76.103 117.756 75.8127 117.002 75.7607 116.049L75.7477 115.607L75.7607 115.178C75.8127 114.242 76.103 113.497 76.6317 112.942C77.1603 112.387 77.8667 112.11 78.7507 112.11C79.704 112.11 80.4407 112.413 80.9607 113.02C81.4893 113.627 81.7537 114.45 81.7537 115.49V115.724C81.7537 115.811 81.7233 115.884 81.6627 115.945C81.6107 115.997 81.5413 116.023 81.4547 116.023H76.9437V116.14C76.9697 116.703 77.143 117.184 77.4637 117.583C77.7843 117.982 78.209 118.181 78.7377 118.181C79.145 118.181 79.4743 118.103 79.7257 117.947C79.9857 117.782 80.1807 117.613 80.3107 117.44C80.3887 117.336 80.4493 117.275 80.4927 117.258C80.536 117.232 80.6097 117.219 80.7137 117.219H81.2857C81.3637 117.219 81.4287 117.241 81.4807 117.284C81.5413 117.327 81.5717 117.384 81.5717 117.453C81.5717 117.644 81.4547 117.873 81.2207 118.142C80.9867 118.411 80.653 118.645 80.2197 118.844C79.795 119.035 79.3053 119.13 78.7507 119.13ZM80.5707 115.139V115.1C80.5707 114.493 80.406 113.999 80.0767 113.618C79.7473 113.237 79.3053 113.046 78.7507 113.046C78.1873 113.046 77.7453 113.237 77.4247 113.618C77.104 113.999 76.9437 114.493 76.9437 115.1V115.139H80.5707Z" fill="#4E2EA2"/>
<path d="M86.9886 119C86.9019 119 86.8326 118.974 86.7806 118.922C86.7286 118.861 86.7026 118.788 86.7026 118.701V110.212C86.7026 110.117 86.7286 110.043 86.7806 109.991C86.8326 109.93 86.9019 109.9 86.9886 109.9H92.3316C92.4269 109.9 92.5006 109.93 92.5526 109.991C92.6133 110.043 92.6436 110.117 92.6436 110.212V110.68C92.6436 110.767 92.6133 110.836 92.5526 110.888C92.5006 110.94 92.4269 110.966 92.3316 110.966H87.8986V113.865H92.0456C92.1409 113.865 92.2146 113.895 92.2666 113.956C92.3273 114.008 92.3576 114.082 92.3576 114.177V114.619C92.3576 114.706 92.3273 114.779 92.2666 114.84C92.2146 114.892 92.1409 114.918 92.0456 114.918H87.8986V117.921H92.4356C92.5309 117.921 92.6046 117.951 92.6566 118.012C92.7173 118.064 92.7476 118.138 92.7476 118.233V118.701C92.7476 118.788 92.7173 118.861 92.6566 118.922C92.5959 118.974 92.5223 119 92.4356 119H86.9886Z" fill="#4E2EA2"/>
<path d="M94.8727 119C94.786 119 94.7124 118.974 94.6517 118.922C94.5997 118.861 94.5737 118.788 94.5737 118.701V110.212C94.5737 110.117 94.5997 110.043 94.6517 109.991C94.7037 109.93 94.7774 109.9 94.8727 109.9H95.4837C95.6397 109.9 95.748 109.965 95.8087 110.095L98.5777 115.412L101.373 110.095C101.442 109.965 101.546 109.9 101.685 109.9H102.296C102.391 109.9 102.465 109.93 102.517 109.991C102.569 110.043 102.595 110.117 102.595 110.212V118.701C102.595 118.788 102.564 118.861 102.504 118.922C102.452 118.974 102.382 119 102.296 119H101.698C101.611 119 101.542 118.974 101.49 118.922C101.438 118.861 101.412 118.788 101.412 118.701V112.24L99.1887 116.543C99.102 116.725 98.9634 116.816 98.7727 116.816H98.3827C98.2007 116.816 98.062 116.725 97.9667 116.543L95.7567 112.24V118.701C95.7567 118.788 95.7264 118.861 95.6657 118.922C95.6137 118.974 95.5444 119 95.4577 119H94.8727Z" fill="#4E2EA2"/>
<path d="M105.168 119C105.082 119 105.012 118.974 104.96 118.922C104.908 118.861 104.882 118.788 104.882 118.701V110.199C104.882 110.112 104.908 110.043 104.96 109.991C105.012 109.93 105.082 109.9 105.168 109.9H105.818C105.914 109.9 105.987 109.926 106.039 109.978C106.091 110.03 106.117 110.104 106.117 110.199V118.701C106.117 118.788 106.087 118.861 106.026 118.922C105.974 118.974 105.905 119 105.818 119H105.168Z" fill="#4E2EA2"/>
<path d="M110.557 119.13C109.959 119.13 109.452 119.035 109.036 118.844C108.628 118.645 108.325 118.419 108.126 118.168C107.926 117.917 107.827 117.709 107.827 117.544C107.827 117.457 107.857 117.392 107.918 117.349C107.978 117.297 108.043 117.271 108.113 117.271H108.659C108.711 117.271 108.75 117.28 108.776 117.297C108.81 117.314 108.854 117.353 108.906 117.414C109.105 117.657 109.326 117.847 109.569 117.986C109.82 118.125 110.154 118.194 110.57 118.194C111.038 118.194 111.41 118.107 111.688 117.934C111.974 117.761 112.117 117.509 112.117 117.18C112.117 116.963 112.056 116.79 111.935 116.66C111.813 116.53 111.61 116.413 111.324 116.309C111.046 116.205 110.63 116.092 110.076 115.971C109.322 115.806 108.789 115.568 108.477 115.256C108.165 114.944 108.009 114.541 108.009 114.047C108.009 113.726 108.104 113.419 108.295 113.124C108.485 112.821 108.767 112.578 109.14 112.396C109.521 112.205 109.972 112.11 110.492 112.11C111.038 112.11 111.501 112.201 111.883 112.383C112.273 112.565 112.563 112.777 112.754 113.02C112.953 113.263 113.053 113.466 113.053 113.631C113.053 113.709 113.022 113.774 112.962 113.826C112.91 113.878 112.845 113.904 112.767 113.904H112.273C112.151 113.904 112.065 113.856 112.013 113.761C111.865 113.596 111.74 113.471 111.636 113.384C111.54 113.289 111.397 113.211 111.207 113.15C111.016 113.081 110.778 113.046 110.492 113.046C110.067 113.046 109.742 113.137 109.517 113.319C109.291 113.492 109.179 113.726 109.179 114.021C109.179 114.203 109.226 114.359 109.322 114.489C109.417 114.61 109.599 114.727 109.868 114.84C110.136 114.944 110.535 115.052 111.064 115.165C111.887 115.338 112.468 115.585 112.806 115.906C113.152 116.227 113.326 116.638 113.326 117.141C113.326 117.514 113.217 117.852 113.001 118.155C112.793 118.458 112.476 118.697 112.052 118.87C111.636 119.043 111.137 119.13 110.557 119.13Z" fill="#4E2EA2"/>
<path d="M118.329 121.704C118.243 121.704 118.173 121.674 118.121 121.613C118.069 121.561 118.043 121.492 118.043 121.405V107.651C118.043 107.564 118.069 107.495 118.121 107.443C118.173 107.382 118.243 107.352 118.329 107.352H118.81C118.897 107.352 118.966 107.382 119.018 107.443C119.079 107.495 119.109 107.564 119.109 107.651V121.405C119.109 121.492 119.079 121.561 119.018 121.613C118.966 121.674 118.897 121.704 118.81 121.704H118.329Z" fill="#4E2EA2"/>
<path d="M124.706 119C124.62 119 124.55 118.974 124.498 118.922C124.446 118.861 124.42 118.788 124.42 118.701V110.212C124.42 110.117 124.446 110.043 124.498 109.991C124.55 109.93 124.62 109.9 124.706 109.9H125.278C125.365 109.9 125.43 109.917 125.473 109.952C125.517 109.987 125.56 110.03 125.603 110.082L129.958 116.79V110.212C129.958 110.117 129.984 110.043 130.036 109.991C130.097 109.93 130.171 109.9 130.257 109.9H130.842C130.938 109.9 131.011 109.93 131.063 109.991C131.124 110.043 131.154 110.117 131.154 110.212V118.688C131.154 118.775 131.124 118.848 131.063 118.909C131.011 118.97 130.942 119 130.855 119H130.27C130.123 119 130.019 118.939 129.958 118.818L125.603 112.175V118.701C125.603 118.788 125.573 118.861 125.512 118.922C125.46 118.974 125.391 119 125.304 119H124.706Z" fill="#4E2EA2"/>
<path d="M136.008 119.13C135.055 119.13 134.318 118.861 133.798 118.324C133.287 117.787 133.014 117.072 132.979 116.179L132.966 115.62L132.979 115.061C133.014 114.168 133.291 113.453 133.811 112.916C134.34 112.379 135.072 112.11 136.008 112.11C136.944 112.11 137.672 112.379 138.192 112.916C138.721 113.453 139.002 114.168 139.037 115.061C139.054 115.252 139.063 115.438 139.063 115.62C139.063 115.802 139.054 115.988 139.037 116.179C139.002 117.072 138.725 117.787 138.205 118.324C137.694 118.861 136.961 119.13 136.008 119.13ZM136.008 118.155C136.563 118.155 137 117.982 137.321 117.635C137.65 117.28 137.828 116.773 137.854 116.114C137.863 116.027 137.867 115.863 137.867 115.62C137.867 115.377 137.863 115.213 137.854 115.126C137.828 114.467 137.65 113.965 137.321 113.618C137 113.263 136.563 113.085 136.008 113.085C135.453 113.085 135.011 113.263 134.682 113.618C134.361 113.965 134.188 114.467 134.162 115.126L134.149 115.62L134.162 116.114C134.188 116.773 134.361 117.28 134.682 117.635C135.011 117.982 135.453 118.155 136.008 118.155Z" fill="#4E2EA2"/>
<path d="M144.203 119C144.116 119 144.042 118.974 143.982 118.922C143.93 118.861 143.904 118.788 143.904 118.701V112.539C143.904 112.452 143.93 112.383 143.982 112.331C144.042 112.27 144.116 112.24 144.203 112.24H144.749C144.835 112.24 144.905 112.27 144.957 112.331C145.009 112.383 145.035 112.452 145.035 112.539V112.981C145.503 112.4 146.135 112.11 146.933 112.11C147.886 112.11 148.562 112.509 148.961 113.306C149.169 112.942 149.463 112.652 149.845 112.435C150.235 112.218 150.668 112.11 151.145 112.11C151.855 112.11 152.436 112.353 152.887 112.838C153.337 113.323 153.563 114.025 153.563 114.944V118.701C153.563 118.788 153.532 118.861 153.472 118.922C153.42 118.974 153.35 119 153.264 119H152.705C152.618 119 152.544 118.974 152.484 118.922C152.432 118.861 152.406 118.788 152.406 118.701V115.061C152.406 114.368 152.263 113.874 151.977 113.579C151.691 113.276 151.314 113.124 150.846 113.124C150.43 113.124 150.07 113.28 149.767 113.592C149.472 113.895 149.325 114.385 149.325 115.061V118.701C149.325 118.788 149.294 118.861 149.234 118.922C149.182 118.974 149.112 119 149.026 119H148.454C148.367 119 148.293 118.974 148.233 118.922C148.181 118.861 148.155 118.788 148.155 118.701V115.061C148.155 114.376 148.003 113.882 147.7 113.579C147.405 113.276 147.037 113.124 146.595 113.124C146.179 113.124 145.819 113.276 145.516 113.579C145.221 113.882 145.074 114.372 145.074 115.048V118.701C145.074 118.788 145.043 118.861 144.983 118.922C144.931 118.974 144.861 119 144.775 119H144.203Z" fill="#4E2EA2"/>
<path d="M158.122 119.13C157.238 119.13 156.531 118.857 156.003 118.311C155.474 117.756 155.184 117.002 155.132 116.049L155.119 115.607L155.132 115.178C155.184 114.242 155.474 113.497 156.003 112.942C156.531 112.387 157.238 112.11 158.122 112.11C159.075 112.11 159.812 112.413 160.332 113.02C160.86 113.627 161.125 114.45 161.125 115.49V115.724C161.125 115.811 161.094 115.884 161.034 115.945C160.982 115.997 160.912 116.023 160.826 116.023H156.315V116.14C156.341 116.703 156.514 117.184 156.835 117.583C157.155 117.982 157.58 118.181 158.109 118.181C158.516 118.181 158.845 118.103 159.097 117.947C159.357 117.782 159.552 117.613 159.682 117.44C159.76 117.336 159.82 117.275 159.864 117.258C159.907 117.232 159.981 117.219 160.085 117.219H160.657C160.735 117.219 160.8 117.241 160.852 117.284C160.912 117.327 160.943 117.384 160.943 117.453C160.943 117.644 160.826 117.873 160.592 118.142C160.358 118.411 160.024 118.645 159.591 118.844C159.166 119.035 158.676 119.13 158.122 119.13ZM159.942 115.139V115.1C159.942 114.493 159.777 113.999 159.448 113.618C159.118 113.237 158.676 113.046 158.122 113.046C157.558 113.046 157.116 113.237 156.796 113.618C156.475 113.999 156.315 114.493 156.315 115.1V115.139H159.942Z" fill="#4E2EA2"/>
<path d="M165.175 119.13C164.265 119.13 163.581 118.835 163.121 118.246C162.671 117.657 162.428 116.911 162.393 116.01L162.38 115.62L162.393 115.23C162.428 114.337 162.675 113.596 163.134 113.007C163.594 112.409 164.274 112.11 165.175 112.11C166.077 112.11 166.779 112.431 167.281 113.072V110.069C167.281 109.982 167.307 109.913 167.359 109.861C167.42 109.8 167.494 109.77 167.58 109.77H168.165C168.252 109.77 168.321 109.8 168.373 109.861C168.434 109.913 168.464 109.982 168.464 110.069V118.701C168.464 118.788 168.434 118.861 168.373 118.922C168.321 118.974 168.252 119 168.165 119H167.606C167.52 119 167.45 118.974 167.398 118.922C167.346 118.861 167.32 118.788 167.32 118.701V118.142C166.826 118.801 166.111 119.13 165.175 119.13ZM165.422 118.116C166.029 118.116 166.484 117.917 166.787 117.518C167.091 117.111 167.255 116.63 167.281 116.075C167.29 115.98 167.294 115.815 167.294 115.581C167.294 115.338 167.29 115.169 167.281 115.074C167.264 114.545 167.095 114.09 166.774 113.709C166.462 113.319 166.012 113.124 165.422 113.124C164.798 113.124 164.343 113.319 164.057 113.709C163.771 114.099 163.615 114.61 163.589 115.243L163.576 115.62C163.576 117.284 164.192 118.116 165.422 118.116Z" fill="#4E2EA2"/>
<path d="M170.619 110.966C170.533 110.966 170.459 110.94 170.398 110.888C170.346 110.827 170.32 110.754 170.32 110.667V109.991C170.32 109.904 170.346 109.831 170.398 109.77C170.459 109.709 170.533 109.679 170.619 109.679H171.386C171.473 109.679 171.547 109.709 171.607 109.77C171.668 109.831 171.698 109.904 171.698 109.991V110.667C171.698 110.754 171.668 110.827 171.607 110.888C171.547 110.94 171.473 110.966 171.386 110.966H170.619ZM170.723 119C170.637 119 170.563 118.974 170.502 118.922C170.45 118.861 170.424 118.788 170.424 118.701V112.539C170.424 112.452 170.45 112.383 170.502 112.331C170.563 112.27 170.637 112.24 170.723 112.24H171.295C171.382 112.24 171.451 112.27 171.503 112.331C171.564 112.383 171.594 112.452 171.594 112.539V118.701C171.594 118.788 171.564 118.861 171.503 118.922C171.451 118.974 171.382 119 171.295 119H170.723Z" fill="#4E2EA2"/>
<path d="M176.251 119.13C175.324 119.13 174.6 118.87 174.08 118.35C173.56 117.821 173.287 117.085 173.261 116.14L173.248 115.62L173.261 115.1C173.287 114.155 173.56 113.423 174.08 112.903C174.6 112.374 175.324 112.11 176.251 112.11C176.875 112.11 177.4 112.223 177.824 112.448C178.258 112.665 178.578 112.938 178.786 113.267C179.003 113.596 179.12 113.926 179.137 114.255C179.146 114.333 179.116 114.402 179.046 114.463C178.986 114.524 178.916 114.554 178.838 114.554H178.266C178.18 114.554 178.115 114.537 178.071 114.502C178.028 114.459 177.985 114.385 177.941 114.281C177.785 113.856 177.569 113.557 177.291 113.384C177.023 113.202 176.68 113.111 176.264 113.111C175.718 113.111 175.285 113.28 174.964 113.618C174.644 113.956 174.47 114.472 174.444 115.165L174.431 115.62L174.444 116.075C174.47 116.768 174.644 117.284 174.964 117.622C175.285 117.96 175.718 118.129 176.264 118.129C176.689 118.129 177.036 118.042 177.304 117.869C177.573 117.687 177.785 117.384 177.941 116.959C177.985 116.855 178.028 116.786 178.071 116.751C178.115 116.708 178.18 116.686 178.266 116.686H178.838C178.916 116.686 178.986 116.716 179.046 116.777C179.116 116.838 179.146 116.907 179.137 116.985C179.12 117.306 179.003 117.631 178.786 117.96C178.578 118.289 178.258 118.567 177.824 118.792C177.4 119.017 176.875 119.13 176.251 119.13Z" fill="#4E2EA2"/>
<path d="M182.567 119.13C182.142 119.13 181.748 119.043 181.384 118.87C181.028 118.697 180.742 118.463 180.526 118.168C180.318 117.865 180.214 117.531 180.214 117.167C180.214 116.595 180.448 116.127 180.916 115.763C181.384 115.399 182.021 115.156 182.827 115.035L184.777 114.762V114.385C184.777 113.492 184.261 113.046 183.23 113.046C182.831 113.046 182.51 113.128 182.268 113.293C182.025 113.449 181.847 113.635 181.735 113.852C181.7 113.939 181.661 113.999 181.618 114.034C181.583 114.06 181.531 114.073 181.462 114.073H180.955C180.877 114.073 180.807 114.047 180.747 113.995C180.695 113.934 180.669 113.865 180.669 113.787C180.669 113.588 180.76 113.358 180.942 113.098C181.132 112.829 181.423 112.6 181.813 112.409C182.203 112.21 182.679 112.11 183.243 112.11C184.213 112.11 184.907 112.335 185.323 112.786C185.747 113.237 185.96 113.8 185.96 114.476V118.701C185.96 118.788 185.929 118.861 185.869 118.922C185.817 118.974 185.747 119 185.661 119H185.089C185.002 119 184.933 118.974 184.881 118.922C184.829 118.861 184.803 118.788 184.803 118.701V118.129C184.612 118.415 184.335 118.653 183.971 118.844C183.607 119.035 183.139 119.13 182.567 119.13ZM182.827 118.181C183.399 118.181 183.867 117.995 184.231 117.622C184.595 117.249 184.777 116.708 184.777 115.997V115.633L183.256 115.854C182.632 115.941 182.159 116.088 181.839 116.296C181.518 116.504 181.358 116.764 181.358 117.076C181.358 117.431 181.501 117.704 181.787 117.895C182.081 118.086 182.428 118.181 182.827 118.181Z" fill="#4E2EA2"/>
<path d="M188.154 119C188.068 119 187.994 118.974 187.933 118.922C187.881 118.861 187.855 118.788 187.855 118.701V110.069C187.855 109.974 187.881 109.9 187.933 109.848C187.994 109.796 188.068 109.77 188.154 109.77H188.726C188.813 109.77 188.882 109.8 188.934 109.861C188.995 109.913 189.025 109.982 189.025 110.069V118.701C189.025 118.788 188.995 118.861 188.934 118.922C188.882 118.974 188.813 119 188.726 119H188.154Z" fill="#4E2EA2"/>
<path d="M196.498 119C195.155 119 194.483 118.242 194.483 116.725V113.241H193.456C193.369 113.241 193.3 113.215 193.248 113.163C193.196 113.111 193.17 113.042 193.17 112.955V112.539C193.17 112.452 193.196 112.383 193.248 112.331C193.3 112.27 193.369 112.24 193.456 112.24H194.483V110.069C194.483 109.982 194.509 109.913 194.561 109.861C194.613 109.8 194.682 109.77 194.769 109.77H195.341C195.428 109.77 195.497 109.8 195.549 109.861C195.61 109.913 195.64 109.982 195.64 110.069V112.24H197.252C197.339 112.24 197.408 112.27 197.46 112.331C197.521 112.383 197.551 112.452 197.551 112.539V112.955C197.551 113.042 197.521 113.111 197.46 113.163C197.408 113.215 197.339 113.241 197.252 113.241H195.64V116.634C195.64 117.076 195.709 117.41 195.848 117.635C195.995 117.86 196.242 117.973 196.589 117.973H197.382C197.469 117.973 197.538 118.003 197.59 118.064C197.642 118.116 197.668 118.185 197.668 118.272V118.701C197.668 118.788 197.642 118.861 197.59 118.922C197.538 118.974 197.469 119 197.382 119H196.498Z" fill="#4E2EA2"/>
<path d="M201.616 119.13C200.732 119.13 200.026 118.857 199.497 118.311C198.968 117.756 198.678 117.002 198.626 116.049L198.613 115.607L198.626 115.178C198.678 114.242 198.968 113.497 199.497 112.942C200.026 112.387 200.732 112.11 201.616 112.11C202.569 112.11 203.306 112.413 203.826 113.02C204.355 113.627 204.619 114.45 204.619 115.49V115.724C204.619 115.811 204.589 115.884 204.528 115.945C204.476 115.997 204.407 116.023 204.32 116.023H199.809V116.14C199.835 116.703 200.008 117.184 200.329 117.583C200.65 117.982 201.074 118.181 201.603 118.181C202.01 118.181 202.34 118.103 202.591 117.947C202.851 117.782 203.046 117.613 203.176 117.44C203.254 117.336 203.315 117.275 203.358 117.258C203.401 117.232 203.475 117.219 203.579 117.219H204.151C204.229 117.219 204.294 117.241 204.346 117.284C204.407 117.327 204.437 117.384 204.437 117.453C204.437 117.644 204.32 117.873 204.086 118.142C203.852 118.411 203.518 118.645 203.085 118.844C202.66 119.035 202.171 119.13 201.616 119.13ZM203.436 115.139V115.1C203.436 114.493 203.271 113.999 202.942 113.618C202.613 113.237 202.171 113.046 201.616 113.046C201.053 113.046 200.611 113.237 200.29 113.618C199.969 113.999 199.809 114.493 199.809 115.1V115.139H203.436Z" fill="#4E2EA2"/>
<path d="M208.514 119.13C207.916 119.13 207.409 119.035 206.993 118.844C206.585 118.645 206.282 118.419 206.083 118.168C205.883 117.917 205.784 117.709 205.784 117.544C205.784 117.457 205.814 117.392 205.875 117.349C205.935 117.297 206 117.271 206.07 117.271H206.616C206.668 117.271 206.707 117.28 206.733 117.297C206.767 117.314 206.811 117.353 206.863 117.414C207.062 117.657 207.283 117.847 207.526 117.986C207.777 118.125 208.111 118.194 208.527 118.194C208.995 118.194 209.367 118.107 209.645 117.934C209.931 117.761 210.074 117.509 210.074 117.18C210.074 116.963 210.013 116.79 209.892 116.66C209.77 116.53 209.567 116.413 209.281 116.309C209.003 116.205 208.587 116.092 208.033 115.971C207.279 115.806 206.746 115.568 206.434 115.256C206.122 114.944 205.966 114.541 205.966 114.047C205.966 113.726 206.061 113.419 206.252 113.124C206.442 112.821 206.724 112.578 207.097 112.396C207.478 112.205 207.929 112.11 208.449 112.11C208.995 112.11 209.458 112.201 209.84 112.383C210.23 112.565 210.52 112.777 210.711 113.02C210.91 113.263 211.01 113.466 211.01 113.631C211.01 113.709 210.979 113.774 210.919 113.826C210.867 113.878 210.802 113.904 210.724 113.904H210.23C210.108 113.904 210.022 113.856 209.97 113.761C209.822 113.596 209.697 113.471 209.593 113.384C209.497 113.289 209.354 113.211 209.164 113.15C208.973 113.081 208.735 113.046 208.449 113.046C208.024 113.046 207.699 113.137 207.474 113.319C207.248 113.492 207.136 113.726 207.136 114.021C207.136 114.203 207.183 114.359 207.279 114.489C207.374 114.61 207.556 114.727 207.825 114.84C208.093 114.944 208.492 115.052 209.021 115.165C209.844 115.338 210.425 115.585 210.763 115.906C211.109 116.227 211.283 116.638 211.283 117.141C211.283 117.514 211.174 117.852 210.958 118.155C210.75 118.458 210.433 118.697 210.009 118.87C209.593 119.043 209.094 119.13 208.514 119.13Z" fill="#4E2EA2"/>
<path d="M215.388 119C214.045 119 213.373 118.242 213.373 116.725V113.241H212.346C212.26 113.241 212.19 113.215 212.138 113.163C212.086 113.111 212.06 113.042 212.06 112.955V112.539C212.06 112.452 212.086 112.383 212.138 112.331C212.19 112.27 212.26 112.24 212.346 112.24H213.373V110.069C213.373 109.982 213.399 109.913 213.451 109.861C213.503 109.8 213.573 109.77 213.659 109.77H214.231C214.318 109.77 214.387 109.8 214.439 109.861C214.5 109.913 214.53 109.982 214.53 110.069V112.24H216.142C216.229 112.24 216.298 112.27 216.35 112.331C216.411 112.383 216.441 112.452 216.441 112.539V112.955C216.441 113.042 216.411 113.111 216.35 113.163C216.298 113.215 216.229 113.241 216.142 113.241H214.53V116.634C214.53 117.076 214.6 117.41 214.738 117.635C214.886 117.86 215.133 117.973 215.479 117.973H216.272C216.359 117.973 216.428 118.003 216.48 118.064C216.532 118.116 216.558 118.185 216.558 118.272V118.701C216.558 118.788 216.532 118.861 216.48 118.922C216.428 118.974 216.359 119 216.272 119H215.388Z" fill="#4E2EA2"/>
<path d="M21.581 37C21.4677 37 21.3657 36.9603 21.275 36.881C21.1957 36.7903 21.156 36.6883 21.156 36.575V25.542C21.156 25.4173 21.1957 25.3153 21.275 25.236C21.3543 25.1453 21.4563 25.1 21.581 25.1H29.605C29.7297 25.1 29.8317 25.1453 29.911 25.236C30.0017 25.3153 30.047 25.4173 30.047 25.542V27.225C30.047 27.3497 30.0017 27.4517 29.911 27.531C29.8317 27.6103 29.7297 27.65 29.605 27.65H24.233V29.809H29.231C29.3557 29.809 29.4577 29.8543 29.537 29.945C29.6277 30.0243 29.673 30.1263 29.673 30.251V31.798C29.673 31.9227 29.6277 32.0303 29.537 32.121C29.4577 32.2003 29.3557 32.24 29.231 32.24H24.233V34.45H29.741C29.8657 34.45 29.9677 34.4953 30.047 34.586C30.1377 34.6653 30.183 34.7673 30.183 34.892V36.575C30.183 36.6997 30.1377 36.8017 30.047 36.881C29.9677 36.9603 29.8657 37 29.741 37H21.581Z" fill="#4E2EA2"/>
<path d="M31.5362 37C31.4342 37 31.3436 36.966 31.2642 36.898C31.1849 36.8187 31.1452 36.7223 31.1452 36.609C31.1452 36.5183 31.1792 36.4333 31.2472 36.354L34.0692 32.461L31.5022 28.806C31.4342 28.7153 31.4002 28.6303 31.4002 28.551C31.4002 28.4377 31.4399 28.347 31.5192 28.279C31.5986 28.1997 31.6892 28.16 31.7912 28.16H33.9842C34.1202 28.16 34.2222 28.1883 34.2902 28.245C34.3582 28.3017 34.4262 28.3753 34.4942 28.466L35.9902 30.557L37.5032 28.466C37.5146 28.4547 37.5429 28.4207 37.5882 28.364C37.6336 28.3073 37.6902 28.262 37.7582 28.228C37.8376 28.1827 37.9226 28.16 38.0132 28.16H40.1042C40.2062 28.16 40.2969 28.1997 40.3762 28.279C40.4556 28.347 40.4952 28.432 40.4952 28.534C40.4952 28.6247 40.4612 28.7153 40.3932 28.806L37.7752 32.461L40.6482 36.354C40.7049 36.4333 40.7332 36.5183 40.7332 36.609C40.7332 36.7223 40.6936 36.8187 40.6142 36.898C40.5462 36.966 40.4556 37 40.3422 37H38.0472C37.8546 37 37.6959 36.9093 37.5712 36.728L35.9222 34.484L34.2562 36.728C34.1882 36.8187 34.1202 36.8867 34.0522 36.932C33.9842 36.9773 33.8879 37 33.7632 37H31.5362Z" fill="#4E2EA2"/>
<path d="M45.7021 37.17C44.4101 37.17 43.3618 36.83 42.5571 36.15C41.7638 35.4587 41.3388 34.501 41.2821 33.277L41.2651 32.597L41.2821 31.9C41.3275 30.676 41.7525 29.7183 42.5571 29.027C43.3618 28.3357 44.4101 27.99 45.7021 27.99C46.6881 27.99 47.5155 28.1657 48.1841 28.517C48.8528 28.8683 49.3515 29.2877 49.6801 29.775C50.0088 30.251 50.1845 30.6873 50.2071 31.084C50.2185 31.2087 50.1788 31.3163 50.0881 31.407C49.9975 31.4863 49.8898 31.526 49.7651 31.526H47.4871C47.3625 31.526 47.2661 31.4977 47.1981 31.441C47.1301 31.3843 47.0678 31.2937 47.0111 31.169C46.8865 30.8517 46.7221 30.6193 46.5181 30.472C46.3255 30.3247 46.0761 30.251 45.7701 30.251C44.8975 30.251 44.4441 30.829 44.4101 31.985L44.3931 32.631L44.4101 33.192C44.4215 33.7813 44.5405 34.2177 44.7671 34.501C44.9938 34.773 45.3281 34.909 45.7701 34.909C46.0988 34.909 46.3538 34.841 46.5351 34.705C46.7278 34.5577 46.8865 34.3197 47.0111 33.991C47.0678 33.8663 47.1301 33.7757 47.1981 33.719C47.2661 33.6623 47.3625 33.634 47.4871 33.634H49.7651C49.8785 33.634 49.9805 33.6737 50.0711 33.753C50.1618 33.8323 50.2071 33.9287 50.2071 34.042C50.2071 34.3933 50.0485 34.8183 49.7311 35.317C49.4251 35.8043 48.9321 36.235 48.2521 36.609C47.5721 36.983 46.7221 37.17 45.7021 37.17Z" fill="#4E2EA2"/>
<path d="M52.1073 37C51.9826 37 51.875 36.9603 51.7843 36.881C51.705 36.8017 51.6653 36.6997 51.6653 36.575V25.355C51.6653 25.2303 51.705 25.1283 51.7843 25.049C51.875 24.9697 51.9826 24.93 52.1073 24.93H54.2323C54.357 24.93 54.459 24.9697 54.5383 25.049C54.6176 25.1283 54.6573 25.2303 54.6573 25.355V36.575C54.6573 36.6883 54.6176 36.7903 54.5383 36.881C54.459 36.9603 54.357 37 54.2323 37H52.1073Z" fill="#4E2EA2"/>
<path d="M59.8429 37.17C58.8456 37.17 58.041 36.8357 57.429 36.167C56.817 35.4983 56.5109 34.552 56.5109 33.328V28.585C56.5109 28.4603 56.5506 28.3583 56.6299 28.279C56.7206 28.1997 56.8226 28.16 56.936 28.16H59.1969C59.3216 28.16 59.4236 28.1997 59.5029 28.279C59.5936 28.3583 59.639 28.4603 59.639 28.585V33.226C59.639 34.28 60.1093 34.807 61.0499 34.807C61.5033 34.807 61.8546 34.671 62.104 34.399C62.3646 34.1157 62.4949 33.7247 62.4949 33.226V28.585C62.4949 28.4603 62.5346 28.3583 62.6139 28.279C62.7046 28.1997 62.8123 28.16 62.937 28.16H65.181C65.3056 28.16 65.4076 28.1997 65.4869 28.279C65.5663 28.3583 65.6059 28.4603 65.6059 28.585V36.575C65.6059 36.6883 65.5663 36.7903 65.4869 36.881C65.4076 36.9603 65.3056 37 65.181 37H63.1069C62.9823 37 62.8746 36.9603 62.784 36.881C62.7046 36.8017 62.665 36.6997 62.665 36.575V35.929C62.0756 36.7563 61.1349 37.17 59.8429 37.17Z" fill="#4E2EA2"/>
<path d="M71.2424 37.17C70.313 37.17 69.5367 37.0397 68.9134 36.779C68.29 36.5183 67.8254 36.2067 67.5194 35.844C67.2247 35.4813 67.0774 35.1527 67.0774 34.858C67.0774 34.7447 67.117 34.654 67.1964 34.586C67.287 34.5067 67.3834 34.467 67.4854 34.467H69.5424C69.6104 34.467 69.667 34.4897 69.7124 34.535C69.905 34.6597 70.0127 34.7333 70.0354 34.756C70.2507 34.9147 70.449 35.0393 70.6304 35.13C70.823 35.2093 71.0497 35.249 71.3104 35.249C71.6164 35.249 71.8657 35.1923 72.0584 35.079C72.2624 34.9543 72.3644 34.7843 72.3644 34.569C72.3644 34.3877 72.3077 34.2403 72.1944 34.127C72.0924 34.0137 71.8884 33.906 71.5824 33.804C71.2877 33.6907 70.8344 33.5773 70.2224 33.464C68.2617 33.0673 67.2814 32.1607 67.2814 30.744C67.2814 30.2793 67.4287 29.8373 67.7234 29.418C68.0294 28.9873 68.4714 28.6417 69.0494 28.381C69.6387 28.1203 70.3414 27.99 71.1574 27.99C71.9847 27.99 72.6987 28.1203 73.2994 28.381C73.9114 28.6303 74.376 28.9363 74.6934 29.299C75.0107 29.6503 75.1694 29.9733 75.1694 30.268C75.1694 30.37 75.1297 30.4607 75.0504 30.54C74.9824 30.6193 74.8974 30.659 74.7954 30.659H72.9254C72.8234 30.659 72.744 30.6363 72.6874 30.591C72.5514 30.523 72.4154 30.438 72.2794 30.336C72.0754 30.2 71.894 30.098 71.7354 30.03C71.588 29.9507 71.3954 29.911 71.1574 29.911C70.874 29.911 70.653 29.9733 70.4944 30.098C70.3357 30.2227 70.2564 30.3813 70.2564 30.574C70.2564 30.744 70.3017 30.8857 70.3924 30.999C70.4944 31.101 70.6927 31.203 70.9874 31.305C71.2934 31.407 71.7524 31.5147 72.3644 31.628C73.475 31.8207 74.2797 32.1663 74.7784 32.665C75.2884 33.1523 75.5434 33.7247 75.5434 34.382C75.5434 35.232 75.1637 35.912 74.4044 36.422C73.6564 36.9207 72.6024 37.17 71.2424 37.17Z" fill="#4E2EA2"/>
<path d="M77.4243 26.936C77.2996 26.936 77.1976 26.8963 77.1183 26.817C77.0389 26.7263 76.9993 26.6187 76.9993 26.494V24.913C76.9993 24.7883 77.0389 24.6863 77.1183 24.607C77.2089 24.5163 77.3109 24.471 77.4243 24.471H79.5493C79.6739 24.471 79.7759 24.5163 79.8553 24.607C79.9459 24.6863 79.9913 24.7883 79.9913 24.913V26.494C79.9913 26.6187 79.9459 26.7263 79.8553 26.817C79.7759 26.8963 79.6739 26.936 79.5493 26.936H77.4243ZM77.4243 37C77.3109 37 77.2089 36.9603 77.1183 36.881C77.0389 36.7903 76.9993 36.6883 76.9993 36.575V28.585C76.9993 28.4603 77.0389 28.3583 77.1183 28.279C77.2089 28.1997 77.3109 28.16 77.4243 28.16H79.5493C79.6739 28.16 79.7759 28.1997 79.8553 28.279C79.9459 28.3583 79.9913 28.4603 79.9913 28.585V36.575C79.9913 36.6997 79.9459 36.8017 79.8553 36.881C79.7759 36.9603 79.6739 37 79.5493 37H77.4243Z" fill="#4E2EA2"/>
<path d="M85.0919 37C84.9333 37 84.8086 36.966 84.7179 36.898C84.6386 36.8187 84.5706 36.711 84.5139 36.575L81.2839 28.687C81.2726 28.653 81.2669 28.6077 81.2669 28.551C81.2669 28.4377 81.3009 28.347 81.3689 28.279C81.4483 28.1997 81.5446 28.16 81.6579 28.16H83.6809C83.9189 28.16 84.0889 28.279 84.1909 28.517L86.0439 33.6L87.9139 28.517C87.9479 28.4263 88.0046 28.347 88.0839 28.279C88.1633 28.1997 88.2709 28.16 88.4069 28.16H90.4469C90.5489 28.16 90.6396 28.1997 90.7189 28.279C90.7983 28.347 90.8379 28.4377 90.8379 28.551L90.8039 28.687L87.5909 36.575C87.5343 36.711 87.4606 36.8187 87.3699 36.898C87.2793 36.966 87.1546 37 86.9959 37H85.0919Z" fill="#4E2EA2"/>
<path d="M95.9227 37.17C94.54 37.17 93.452 36.8017 92.6587 36.065C91.8653 35.317 91.4573 34.2347 91.4347 32.818V32.291C91.48 30.9423 91.8993 29.8883 92.6927 29.129C93.486 28.3697 94.557 27.99 95.9057 27.99C96.8803 27.99 97.702 28.1883 98.3707 28.585C99.0507 28.9703 99.555 29.5087 99.8837 30.2C100.224 30.88 100.394 31.6563 100.394 32.529V32.954C100.394 33.0787 100.348 33.1863 100.258 33.277C100.178 33.3563 100.076 33.396 99.9517 33.396H94.5627V33.498C94.574 34.008 94.693 34.4217 94.9197 34.739C95.1463 35.045 95.4693 35.198 95.8887 35.198C96.1607 35.198 96.376 35.147 96.5347 35.045C96.7047 34.9317 96.8633 34.79 97.0107 34.62C97.1127 34.5067 97.192 34.4387 97.2487 34.416C97.3167 34.382 97.4187 34.365 97.5547 34.365H99.7817C99.8837 34.365 99.9687 34.399 100.037 34.467C100.116 34.5237 100.156 34.5973 100.156 34.688C100.156 34.9827 99.9857 35.3283 99.6457 35.725C99.317 36.1217 98.8297 36.4617 98.1837 36.745C97.549 37.0283 96.7953 37.17 95.9227 37.17ZM97.2657 31.662V31.628C97.2657 31.084 97.1467 30.6647 96.9087 30.37C96.6707 30.064 96.3363 29.911 95.9057 29.911C95.475 29.911 95.1407 30.064 94.9027 30.37C94.676 30.6647 94.5627 31.084 94.5627 31.628V31.662H97.2657Z" fill="#4E2EA2"/>
<path d="M22.145 59C22.035 59 21.94 58.965 21.86 58.895C21.79 58.825 21.755 58.735 21.755 58.625V53.24H20.63C20.52 53.24 20.425 53.205 20.345 53.135C20.275 53.065 20.24 52.975 20.24 52.865V51.575C20.24 51.465 20.275 51.375 20.345 51.305C20.425 51.235 20.52 51.2 20.63 51.2H21.755V50.75C21.755 49.75 22.045 49.025 22.625 48.575C23.205 48.125 24.035 47.9 25.115 47.9H26.3C26.41 47.9 26.5 47.935 26.57 48.005C26.65 48.075 26.69 48.165 26.69 48.275V49.565C26.69 49.675 26.65 49.765 26.57 49.835C26.5 49.905 26.41 49.94 26.3 49.94H25.235C24.915 49.94 24.685 50.015 24.545 50.165C24.415 50.305 24.35 50.525 24.35 50.825V51.2H26.15C26.26 51.2 26.35 51.235 26.42 51.305C26.5 51.375 26.54 51.465 26.54 51.575V52.865C26.54 52.975 26.5 53.065 26.42 53.135C26.35 53.205 26.26 53.24 26.15 53.24H24.35V58.625C24.35 58.725 24.315 58.815 24.245 58.895C24.175 58.965 24.085 59 23.975 59H22.145Z" fill="#4E2EA2"/>
<path d="M31.2407 59.15C29.9807 59.15 29.0107 58.86 28.3307 58.28C27.6607 57.69 27.2957 56.855 27.2357 55.775C27.2257 55.645 27.2207 55.42 27.2207 55.1C27.2207 54.78 27.2257 54.555 27.2357 54.425C27.2957 53.365 27.6707 52.54 28.3607 51.95C29.0607 51.35 30.0207 51.05 31.2407 51.05C32.4607 51.05 33.4157 51.35 34.1057 51.95C34.8057 52.54 35.1857 53.365 35.2457 54.425C35.2657 54.685 35.2757 54.91 35.2757 55.1C35.2757 55.29 35.2657 55.515 35.2457 55.775C35.1857 56.855 34.8157 57.69 34.1357 58.28C33.4657 58.86 32.5007 59.15 31.2407 59.15ZM31.2407 57.26C31.6507 57.26 31.9557 57.135 32.1557 56.885C32.3557 56.625 32.4707 56.23 32.5007 55.7C32.5107 55.6 32.5157 55.4 32.5157 55.1C32.5157 54.8 32.5107 54.6 32.5007 54.5C32.4707 53.98 32.3557 53.59 32.1557 53.33C31.9557 53.07 31.6507 52.94 31.2407 52.94C30.8307 52.94 30.5257 53.07 30.3257 53.33C30.1257 53.59 30.0107 53.98 29.9807 54.5L29.9657 55.1L29.9807 55.7C30.0107 56.23 30.1257 56.625 30.3257 56.885C30.5257 57.135 30.8307 57.26 31.2407 57.26Z" fill="#4E2EA2"/>
<path d="M37.0796 59C36.9796 59 36.8896 58.965 36.8096 58.895C36.7396 58.815 36.7046 58.725 36.7046 58.625V51.59C36.7046 51.48 36.7396 51.39 36.8096 51.32C36.8796 51.24 36.9696 51.2 37.0796 51.2H38.9096C39.0196 51.2 39.1096 51.24 39.1796 51.32C39.2596 51.39 39.2996 51.48 39.2996 51.59V52.16C39.5796 51.85 39.9046 51.615 40.2746 51.455C40.6546 51.285 41.0746 51.2 41.5346 51.2H42.2096C42.3196 51.2 42.4096 51.235 42.4796 51.305C42.5496 51.375 42.5846 51.465 42.5846 51.575V53.21C42.5846 53.31 42.5496 53.4 42.4796 53.48C42.4096 53.55 42.3196 53.585 42.2096 53.585H40.6946C40.2946 53.585 39.9846 53.695 39.7646 53.915C39.5546 54.135 39.4496 54.445 39.4496 54.845V58.625C39.4496 58.735 39.4096 58.825 39.3296 58.895C39.2596 58.965 39.1696 59 39.0596 59H37.0796Z" fill="#4E2EA2"/>
<path d="M47.5307 59C47.4207 59 47.3257 58.965 47.2457 58.895C47.1757 58.825 47.1407 58.735 47.1407 58.625V53.24H46.0157C45.9057 53.24 45.8107 53.205 45.7307 53.135C45.6607 53.065 45.6257 52.975 45.6257 52.865V51.575C45.6257 51.465 45.6607 51.375 45.7307 51.305C45.8107 51.235 45.9057 51.2 46.0157 51.2H47.1407V50.75C47.1407 49.75 47.4307 49.025 48.0107 48.575C48.5907 48.125 49.4207 47.9 50.5007 47.9H54.4757C54.5857 47.9 54.6757 47.935 54.7457 48.005C54.8157 48.075 54.8507 48.165 54.8507 48.275V49.565C54.8507 49.665 54.8157 49.755 54.7457 49.835C54.6757 49.905 54.5857 49.94 54.4757 49.94H50.6207C50.3007 49.94 50.0707 50.015 49.9307 50.165C49.8007 50.305 49.7357 50.525 49.7357 50.825V51.2H54.4757C54.5857 51.2 54.6757 51.235 54.7457 51.305C54.8157 51.375 54.8507 51.465 54.8507 51.575V58.625C54.8507 58.725 54.8157 58.815 54.7457 58.895C54.6757 58.965 54.5857 59 54.4757 59H52.6457C52.5357 59 52.4407 58.965 52.3607 58.895C52.2907 58.825 52.2557 58.735 52.2557 58.625V53.24H49.7357V58.625C49.7357 58.725 49.7007 58.815 49.6307 58.895C49.5607 58.965 49.4707 59 49.3607 59H47.5307Z" fill="#4E2EA2"/>
<path d="M59.8379 59.15C59.0179 59.15 58.3329 59.035 57.7829 58.805C57.2329 58.575 56.8229 58.3 56.5529 57.98C56.2929 57.66 56.1629 57.37 56.1629 57.11C56.1629 57.01 56.1979 56.93 56.2679 56.87C56.3479 56.8 56.4329 56.765 56.5229 56.765H58.3379C58.3979 56.765 58.4479 56.785 58.4879 56.825C58.6579 56.935 58.7529 57 58.7729 57.02C58.9629 57.16 59.1379 57.27 59.2979 57.35C59.4679 57.42 59.6679 57.455 59.8979 57.455C60.1679 57.455 60.3879 57.405 60.5579 57.305C60.7379 57.195 60.8279 57.045 60.8279 56.855C60.8279 56.695 60.7779 56.565 60.6779 56.465C60.5879 56.365 60.4079 56.27 60.1379 56.18C59.8779 56.08 59.4779 55.98 58.9379 55.88C57.2079 55.53 56.3429 54.73 56.3429 53.48C56.3429 53.07 56.4729 52.68 56.7329 52.31C57.0029 51.93 57.3929 51.625 57.9029 51.395C58.4229 51.165 59.0429 51.05 59.7629 51.05C60.4929 51.05 61.1229 51.165 61.6529 51.395C62.1929 51.615 62.6029 51.885 62.8829 52.205C63.1629 52.515 63.3029 52.8 63.3029 53.06C63.3029 53.15 63.2679 53.23 63.1979 53.3C63.1379 53.37 63.0629 53.405 62.9729 53.405H61.3229C61.2329 53.405 61.1629 53.385 61.1129 53.345C60.9929 53.285 60.8729 53.21 60.7529 53.12C60.5729 53 60.4129 52.91 60.2729 52.85C60.1429 52.78 59.9729 52.745 59.7629 52.745C59.5129 52.745 59.3179 52.8 59.1779 52.91C59.0379 53.02 58.9679 53.16 58.9679 53.33C58.9679 53.48 59.0079 53.605 59.0879 53.705C59.1779 53.795 59.3529 53.885 59.6129 53.975C59.8829 54.065 60.2879 54.16 60.8279 54.26C61.8079 54.43 62.5179 54.735 62.9579 55.175C63.4079 55.605 63.6329 56.11 63.6329 56.69C63.6329 57.44 63.2979 58.04 62.6279 58.49C61.9679 58.93 61.0379 59.15 59.8379 59.15Z" fill="#4E2EA2"/>
<path d="M67.8425 59.15C66.8725 59.15 66.1075 58.845 65.5475 58.235C64.9975 57.625 64.7025 56.755 64.6625 55.625L64.6475 55.1L64.6625 54.56C64.7025 53.47 65.0025 52.615 65.5625 51.995C66.1225 51.365 66.8825 51.05 67.8425 51.05C68.7425 51.05 69.4675 51.34 70.0175 51.92V48.725C70.0175 48.615 70.0525 48.525 70.1225 48.455C70.2025 48.385 70.2925 48.35 70.3925 48.35H72.3275C72.4375 48.35 72.5275 48.385 72.5975 48.455C72.6775 48.525 72.7175 48.615 72.7175 48.725V58.625C72.7175 58.735 72.6775 58.825 72.5975 58.895C72.5275 58.965 72.4375 59 72.3275 59H70.5425C70.4425 59 70.3525 58.965 70.2725 58.895C70.2025 58.815 70.1675 58.725 70.1675 58.625V58.16C69.6275 58.82 68.8525 59.15 67.8425 59.15ZM68.7125 57.065C69.1425 57.065 69.4625 56.93 69.6725 56.66C69.8825 56.38 69.9975 56.03 70.0175 55.61C70.0375 55.33 70.0475 55.14 70.0475 55.04C70.0475 54.93 70.0375 54.745 70.0175 54.485C69.9975 54.095 69.8775 53.775 69.6575 53.525C69.4475 53.265 69.1325 53.135 68.7125 53.135C68.2625 53.135 67.9375 53.27 67.7375 53.54C67.5475 53.8 67.4375 54.165 67.4075 54.635L67.3925 55.1L67.4075 55.565C67.4375 56.035 67.5475 56.405 67.7375 56.675C67.9375 56.935 68.2625 57.065 68.7125 57.065Z" fill="#4E2EA2"/>
<path d="M78.1743 59.15C76.9143 59.15 75.9443 58.86 75.2643 58.28C74.5943 57.69 74.2293 56.855 74.1693 55.775C74.1593 55.645 74.1543 55.42 74.1543 55.1C74.1543 54.78 74.1593 54.555 74.1693 54.425C74.2293 53.365 74.6043 52.54 75.2943 51.95C75.9943 51.35 76.9543 51.05 78.1743 51.05C79.3943 51.05 80.3493 51.35 81.0393 51.95C81.7393 52.54 82.1193 53.365 82.1793 54.425C82.1993 54.685 82.2093 54.91 82.2093 55.1C82.2093 55.29 82.1993 55.515 82.1793 55.775C82.1193 56.855 81.7493 57.69 81.0693 58.28C80.3993 58.86 79.4343 59.15 78.1743 59.15ZM78.1743 57.26C78.5843 57.26 78.8893 57.135 79.0893 56.885C79.2893 56.625 79.4043 56.23 79.4343 55.7C79.4443 55.6 79.4493 55.4 79.4493 55.1C79.4493 54.8 79.4443 54.6 79.4343 54.5C79.4043 53.98 79.2893 53.59 79.0893 53.33C78.8893 53.07 78.5843 52.94 78.1743 52.94C77.7643 52.94 77.4593 53.07 77.2593 53.33C77.0593 53.59 76.9443 53.98 76.9143 54.5L76.8993 55.1L76.9143 55.7C76.9443 56.23 77.0593 56.625 77.2593 56.885C77.4593 57.135 77.7643 57.26 78.1743 57.26Z" fill="#4E2EA2"/>
<path d="M84.0132 59C83.9132 59 83.8232 58.965 83.7432 58.895C83.6732 58.815 83.6382 58.725 83.6382 58.625V51.575C83.6382 51.465 83.6732 51.375 83.7432 51.305C83.8232 51.235 83.9132 51.2 84.0132 51.2H85.7532C85.8632 51.2 85.9532 51.235 86.0232 51.305C86.0932 51.375 86.1282 51.465 86.1282 51.575V52.085C86.3682 51.795 86.6782 51.55 87.0582 51.35C87.4382 51.15 87.8682 51.05 88.3482 51.05C89.4482 51.05 90.2032 51.48 90.6132 52.34C90.8532 51.96 91.1882 51.65 91.6182 51.41C92.0482 51.17 92.5082 51.05 92.9982 51.05C93.8182 51.05 94.4832 51.33 94.9932 51.89C95.5132 52.44 95.7732 53.265 95.7732 54.365V58.625C95.7732 58.725 95.7382 58.815 95.6682 58.895C95.5982 58.965 95.5082 59 95.3982 59H93.5532C93.4432 59 93.3482 58.965 93.2682 58.895C93.1982 58.825 93.1632 58.735 93.1632 58.625V54.47C93.1632 54.01 93.0632 53.675 92.8632 53.465C92.6732 53.245 92.4132 53.135 92.0832 53.135C91.7732 53.135 91.5182 53.245 91.3182 53.465C91.1282 53.675 91.0332 54.01 91.0332 54.47V58.625C91.0332 58.725 90.9982 58.815 90.9282 58.895C90.8582 58.965 90.7682 59 90.6582 59H88.8132C88.7032 59 88.6082 58.965 88.5282 58.895C88.4582 58.825 88.4232 58.735 88.4232 58.625V54.47C88.4232 54.01 88.3232 53.675 88.1232 53.465C87.9232 53.245 87.6632 53.135 87.3432 53.135C87.0332 53.135 86.7782 53.245 86.5782 53.465C86.3782 53.675 86.2782 54.005 86.2782 54.455V58.625C86.2782 58.725 86.2432 58.815 86.1732 58.895C86.1032 58.965 86.0132 59 85.9032 59H84.0132Z" fill="#4E2EA2"/>
<path d="M104.187 59.15C103.047 59.15 102.122 58.85 101.412 58.25C100.712 57.64 100.337 56.795 100.287 55.715L100.272 55.115L100.287 54.5C100.327 53.42 100.702 52.575 101.412 51.965C102.122 51.355 103.047 51.05 104.187 51.05C105.057 51.05 105.787 51.205 106.377 51.515C106.967 51.825 107.407 52.195 107.697 52.625C107.987 53.045 108.142 53.43 108.162 53.78C108.172 53.89 108.137 53.985 108.057 54.065C107.977 54.135 107.882 54.17 107.772 54.17H105.762C105.652 54.17 105.567 54.145 105.507 54.095C105.447 54.045 105.392 53.965 105.342 53.855C105.232 53.575 105.087 53.37 104.907 53.24C104.737 53.11 104.517 53.045 104.247 53.045C103.477 53.045 103.077 53.555 103.047 54.575L103.032 55.145L103.047 55.64C103.057 56.16 103.162 56.545 103.362 56.795C103.562 57.035 103.857 57.155 104.247 57.155C104.537 57.155 104.762 57.095 104.922 56.975C105.092 56.845 105.232 56.635 105.342 56.345C105.392 56.235 105.447 56.155 105.507 56.105C105.567 56.055 105.652 56.03 105.762 56.03H107.772C107.872 56.03 107.962 56.065 108.042 56.135C108.122 56.205 108.162 56.29 108.162 56.39C108.162 56.7 108.022 57.075 107.742 57.515C107.472 57.945 107.037 58.325 106.437 58.655C105.837 58.985 105.087 59.15 104.187 59.15Z" fill="#4E2EA2"/>
<path d="M112.314 59.15C111.434 59.15 110.724 58.855 110.184 58.265C109.644 57.675 109.374 56.84 109.374 55.76V51.575C109.374 51.465 109.409 51.375 109.479 51.305C109.559 51.235 109.649 51.2 109.749 51.2H111.744C111.854 51.2 111.944 51.235 112.014 51.305C112.094 51.375 112.134 51.465 112.134 51.575V55.67C112.134 56.6 112.549 57.065 113.379 57.065C113.779 57.065 114.089 56.945 114.309 56.705C114.539 56.455 114.654 56.11 114.654 55.67V51.575C114.654 51.465 114.689 51.375 114.759 51.305C114.839 51.235 114.934 51.2 115.044 51.2H117.024C117.134 51.2 117.224 51.235 117.294 51.305C117.364 51.375 117.399 51.465 117.399 51.575V58.625C117.399 58.725 117.364 58.815 117.294 58.895C117.224 58.965 117.134 59 117.024 59H115.194C115.084 59 114.989 58.965 114.909 58.895C114.839 58.825 114.804 58.735 114.804 58.625V58.055C114.284 58.785 113.454 59.15 112.314 59.15Z" fill="#4E2EA2"/>
<path d="M122.372 59.15C121.552 59.15 120.867 59.035 120.317 58.805C119.767 58.575 119.357 58.3 119.087 57.98C118.827 57.66 118.697 57.37 118.697 57.11C118.697 57.01 118.732 56.93 118.802 56.87C118.882 56.8 118.967 56.765 119.057 56.765H120.872C120.932 56.765 120.982 56.785 121.022 56.825C121.192 56.935 121.287 57 121.307 57.02C121.497 57.16 121.672 57.27 121.832 57.35C122.002 57.42 122.202 57.455 122.432 57.455C122.702 57.455 122.922 57.405 123.092 57.305C123.272 57.195 123.362 57.045 123.362 56.855C123.362 56.695 123.312 56.565 123.212 56.465C123.122 56.365 122.942 56.27 122.672 56.18C122.412 56.08 122.012 55.98 121.472 55.88C119.742 55.53 118.877 54.73 118.877 53.48C118.877 53.07 119.007 52.68 119.267 52.31C119.537 51.93 119.927 51.625 120.437 51.395C120.957 51.165 121.577 51.05 122.297 51.05C123.027 51.05 123.657 51.165 124.187 51.395C124.727 51.615 125.137 51.885 125.417 52.205C125.697 52.515 125.837 52.8 125.837 53.06C125.837 53.15 125.802 53.23 125.732 53.3C125.672 53.37 125.597 53.405 125.507 53.405H123.857C123.767 53.405 123.697 53.385 123.647 53.345C123.527 53.285 123.407 53.21 123.287 53.12C123.107 53 122.947 52.91 122.807 52.85C122.677 52.78 122.507 52.745 122.297 52.745C122.047 52.745 121.852 52.8 121.712 52.91C121.572 53.02 121.502 53.16 121.502 53.33C121.502 53.48 121.542 53.605 121.622 53.705C121.712 53.795 121.887 53.885 122.147 53.975C122.417 54.065 122.822 54.16 123.362 54.26C124.342 54.43 125.052 54.735 125.492 55.175C125.942 55.605 126.167 56.11 126.167 56.69C126.167 57.44 125.832 58.04 125.162 58.49C124.502 58.93 123.572 59.15 122.372 59.15Z" fill="#4E2EA2"/>
<path d="M131.503 59C129.383 59 128.323 58.005 128.323 56.015V53.24H127.138C127.038 53.24 126.948 53.205 126.868 53.135C126.798 53.055 126.763 52.965 126.763 52.865V51.575C126.763 51.465 126.798 51.375 126.868 51.305C126.948 51.235 127.038 51.2 127.138 51.2H128.323V48.725C128.323 48.615 128.358 48.525 128.428 48.455C128.508 48.385 128.598 48.35 128.698 48.35H130.543C130.653 48.35 130.743 48.385 130.813 48.455C130.883 48.525 130.918 48.615 130.918 48.725V51.2H132.793C132.903 51.2 132.993 51.235 133.063 51.305C133.143 51.375 133.183 51.465 133.183 51.575V52.865C133.183 52.975 133.143 53.065 133.063 53.135C132.993 53.205 132.903 53.24 132.793 53.24H130.918V55.79C130.918 56.14 130.983 56.405 131.113 56.585C131.243 56.765 131.453 56.855 131.743 56.855H132.928C133.038 56.855 133.128 56.895 133.198 56.975C133.268 57.045 133.303 57.135 133.303 57.245V58.625C133.303 58.725 133.268 58.815 133.198 58.895C133.128 58.965 133.038 59 132.928 59H131.503Z" fill="#4E2EA2"/>
<path d="M138.262 59.15C137.002 59.15 136.032 58.86 135.352 58.28C134.682 57.69 134.317 56.855 134.257 55.775C134.247 55.645 134.242 55.42 134.242 55.1C134.242 54.78 134.247 54.555 134.257 54.425C134.317 53.365 134.692 52.54 135.382 51.95C136.082 51.35 137.042 51.05 138.262 51.05C139.482 51.05 140.437 51.35 141.127 51.95C141.827 52.54 142.207 53.365 142.267 54.425C142.287 54.685 142.297 54.91 142.297 55.1C142.297 55.29 142.287 55.515 142.267 55.775C142.207 56.855 141.837 57.69 141.157 58.28C140.487 58.86 139.522 59.15 138.262 59.15ZM138.262 57.26C138.672 57.26 138.977 57.135 139.177 56.885C139.377 56.625 139.492 56.23 139.522 55.7C139.532 55.6 139.537 55.4 139.537 55.1C139.537 54.8 139.532 54.6 139.522 54.5C139.492 53.98 139.377 53.59 139.177 53.33C138.977 53.07 138.672 52.94 138.262 52.94C137.852 52.94 137.547 53.07 137.347 53.33C137.147 53.59 137.032 53.98 137.002 54.5L136.987 55.1L137.002 55.7C137.032 56.23 137.147 56.625 137.347 56.885C137.547 57.135 137.852 57.26 138.262 57.26Z" fill="#4E2EA2"/>
<path d="M144.101 59C144.001 59 143.911 58.965 143.831 58.895C143.761 58.815 143.726 58.725 143.726 58.625V51.575C143.726 51.465 143.761 51.375 143.831 51.305C143.911 51.235 144.001 51.2 144.101 51.2H145.841C145.951 51.2 146.041 51.235 146.111 51.305C146.181 51.375 146.216 51.465 146.216 51.575V52.085C146.456 51.795 146.766 51.55 147.146 51.35C147.526 51.15 147.956 51.05 148.436 51.05C149.536 51.05 150.291 51.48 150.701 52.34C150.941 51.96 151.276 51.65 151.706 51.41C152.136 51.17 152.596 51.05 153.086 51.05C153.906 51.05 154.571 51.33 155.081 51.89C155.601 52.44 155.861 53.265 155.861 54.365V58.625C155.861 58.725 155.826 58.815 155.756 58.895C155.686 58.965 155.596 59 155.486 59H153.641C153.531 59 153.436 58.965 153.356 58.895C153.286 58.825 153.251 58.735 153.251 58.625V54.47C153.251 54.01 153.151 53.675 152.951 53.465C152.761 53.245 152.501 53.135 152.171 53.135C151.861 53.135 151.606 53.245 151.406 53.465C151.216 53.675 151.121 54.01 151.121 54.47V58.625C151.121 58.725 151.086 58.815 151.016 58.895C150.946 58.965 150.856 59 150.746 59H148.901C148.791 59 148.696 58.965 148.616 58.895C148.546 58.825 148.511 58.735 148.511 58.625V54.47C148.511 54.01 148.411 53.675 148.211 53.465C148.011 53.245 147.751 53.135 147.431 53.135C147.121 53.135 146.866 53.245 146.666 53.465C146.466 53.675 146.366 54.005 146.366 54.455V58.625C146.366 58.725 146.331 58.815 146.261 58.895C146.191 58.965 146.101 59 145.991 59H144.101Z" fill="#4E2EA2"/>
<path d="M161.156 59.15C159.936 59.15 158.976 58.825 158.276 58.175C157.576 57.515 157.216 56.56 157.196 55.31V54.845C157.236 53.655 157.606 52.725 158.306 52.055C159.006 51.385 159.951 51.05 161.141 51.05C162.001 51.05 162.726 51.225 163.316 51.575C163.916 51.915 164.361 52.39 164.651 53C164.951 53.6 165.101 54.285 165.101 55.055V55.43C165.101 55.54 165.061 55.635 164.981 55.715C164.911 55.785 164.821 55.82 164.711 55.82H159.956V55.91C159.966 56.36 160.071 56.725 160.271 57.005C160.471 57.275 160.756 57.41 161.126 57.41C161.366 57.41 161.556 57.365 161.696 57.275C161.846 57.175 161.986 57.05 162.116 56.9C162.206 56.8 162.276 56.74 162.326 56.72C162.386 56.69 162.476 56.675 162.596 56.675H164.561C164.651 56.675 164.726 56.705 164.786 56.765C164.856 56.815 164.891 56.88 164.891 56.96C164.891 57.22 164.741 57.525 164.441 57.875C164.151 58.225 163.721 58.525 163.151 58.775C162.591 59.025 161.926 59.15 161.156 59.15ZM162.341 54.29V54.26C162.341 53.78 162.236 53.41 162.026 53.15C161.816 52.88 161.521 52.745 161.141 52.745C160.761 52.745 160.466 52.88 160.256 53.15C160.056 53.41 159.956 53.78 159.956 54.26V54.29H162.341Z" fill="#4E2EA2"/>
<path d="M166.821 59C166.721 59 166.631 58.965 166.551 58.895C166.481 58.815 166.446 58.725 166.446 58.625V51.59C166.446 51.48 166.481 51.39 166.551 51.32C166.621 51.24 166.711 51.2 166.821 51.2H168.651C168.761 51.2 168.851 51.24 168.921 51.32C169.001 51.39 169.041 51.48 169.041 51.59V52.16C169.321 51.85 169.646 51.615 170.016 51.455C170.396 51.285 170.816 51.2 171.276 51.2H171.951C172.061 51.2 172.151 51.235 172.221 51.305C172.291 51.375 172.326 51.465 172.326 51.575V53.21C172.326 53.31 172.291 53.4 172.221 53.48C172.151 53.55 172.061 53.585 171.951 53.585H170.436C170.036 53.585 169.726 53.695 169.506 53.915C169.296 54.135 169.191 54.445 169.191 54.845V58.625C169.191 58.735 169.151 58.825 169.071 58.895C169.001 58.965 168.911 59 168.801 59H166.821Z" fill="#4E2EA2"/>
<path d="M176.63 59.15C175.81 59.15 175.125 59.035 174.575 58.805C174.025 58.575 173.615 58.3 173.345 57.98C173.085 57.66 172.955 57.37 172.955 57.11C172.955 57.01 172.99 56.93 173.06 56.87C173.14 56.8 173.225 56.765 173.315 56.765H175.13C175.19 56.765 175.24 56.785 175.28 56.825C175.45 56.935 175.545 57 175.565 57.02C175.755 57.16 175.93 57.27 176.09 57.35C176.26 57.42 176.46 57.455 176.69 57.455C176.96 57.455 177.18 57.405 177.35 57.305C177.53 57.195 177.62 57.045 177.62 56.855C177.62 56.695 177.57 56.565 177.47 56.465C177.38 56.365 177.2 56.27 176.93 56.18C176.67 56.08 176.27 55.98 175.73 55.88C174 55.53 173.135 54.73 173.135 53.48C173.135 53.07 173.265 52.68 173.525 52.31C173.795 51.93 174.185 51.625 174.695 51.395C175.215 51.165 175.835 51.05 176.555 51.05C177.285 51.05 177.915 51.165 178.445 51.395C178.985 51.615 179.395 51.885 179.675 52.205C179.955 52.515 180.095 52.8 180.095 53.06C180.095 53.15 180.06 53.23 179.99 53.3C179.93 53.37 179.855 53.405 179.765 53.405H178.115C178.025 53.405 177.955 53.385 177.905 53.345C177.785 53.285 177.665 53.21 177.545 53.12C177.365 53 177.205 52.91 177.065 52.85C176.935 52.78 176.765 52.745 176.555 52.745C176.305 52.745 176.11 52.8 175.97 52.91C175.83 53.02 175.76 53.16 175.76 53.33C175.76 53.48 175.8 53.605 175.88 53.705C175.97 53.795 176.145 53.885 176.405 53.975C176.675 54.065 177.08 54.16 177.62 54.26C178.6 54.43 179.31 54.735 179.75 55.175C180.2 55.605 180.425 56.11 180.425 56.69C180.425 57.44 180.09 58.04 179.42 58.49C178.76 58.93 177.83 59.15 176.63 59.15Z" fill="#4E2EA2"/>
</g>
</svg>
