<svg width="198" height="230" viewBox="0 0 198 230" fill="none" xmlns="http://www.w3.org/2000/svg">
<path d="M64.4189 207.11C63.4363 207.11 62.6883 206.846 62.1749 206.318C61.6689 205.79 61.3976 205.06 61.3609 204.129C61.3536 203.931 61.3499 203.608 61.3499 203.161C61.3499 202.706 61.3536 202.376 61.3609 202.171C61.3976 201.247 61.6726 200.521 62.1859 199.993C62.6993 199.458 63.4436 199.19 64.4189 199.19C65.0716 199.19 65.6253 199.307 66.0799 199.542C66.5346 199.769 66.8793 200.07 67.1139 200.444C67.3486 200.818 67.4769 201.218 67.4989 201.643V201.665C67.4989 201.724 67.4733 201.775 67.4219 201.819C67.3779 201.856 67.3266 201.874 67.2679 201.874H66.6629C66.5163 201.874 66.4246 201.79 66.3879 201.621C66.2633 201.071 66.0396 200.686 65.7169 200.466C65.3943 200.239 64.9616 200.125 64.4189 200.125C63.1576 200.125 62.5049 200.825 62.4609 202.226C62.4536 202.424 62.4499 202.728 62.4499 203.139C62.4499 203.55 62.4536 203.861 62.4609 204.074C62.5049 205.475 63.1576 206.175 64.4189 206.175C64.9616 206.175 65.3943 206.065 65.7169 205.845C66.0469 205.618 66.2706 205.229 66.3879 204.679C66.4099 204.584 66.4429 204.518 66.4869 204.481C66.5309 204.444 66.5896 204.426 66.6629 204.426H67.2679C67.3339 204.426 67.3889 204.448 67.4329 204.492C67.4843 204.529 67.5063 204.58 67.4989 204.646C67.4769 205.079 67.3486 205.482 67.1139 205.856C66.8793 206.23 66.5346 206.534 66.0799 206.769C65.6253 206.996 65.0716 207.11 64.4189 207.11ZM71.1731 207.11C70.3664 207.11 69.7394 206.883 69.2921 206.428C68.8521 205.973 68.6174 205.368 68.5881 204.613L68.5771 204.14L68.5881 203.667C68.6174 202.919 68.8558 202.318 69.3031 201.863C69.7504 201.401 70.3738 201.17 71.1731 201.17C71.9724 201.17 72.5958 201.401 73.0431 201.863C73.4904 202.318 73.7288 202.919 73.7581 203.667C73.7654 203.748 73.7691 203.905 73.7691 204.14C73.7691 204.375 73.7654 204.532 73.7581 204.613C73.7288 205.368 73.4904 205.973 73.0431 206.428C72.6031 206.883 71.9798 207.11 71.1731 207.11ZM71.1731 206.263C71.6351 206.263 71.9981 206.116 72.2621 205.823C72.5334 205.53 72.6801 205.108 72.7021 204.558C72.7094 204.485 72.7131 204.345 72.7131 204.14C72.7131 203.935 72.7094 203.795 72.7021 203.722C72.6801 203.172 72.5334 202.75 72.2621 202.457C71.9981 202.164 71.6351 202.017 71.1731 202.017C70.7111 202.017 70.3444 202.164 70.0731 202.457C69.8018 202.75 69.6588 203.172 69.6441 203.722L69.6331 204.14L69.6441 204.558C69.6588 205.108 69.8018 205.53 70.0731 205.823C70.3444 206.116 70.7111 206.263 71.1731 206.263ZM75.3995 207C75.3262 207 75.2639 206.978 75.2125 206.934C75.1685 206.883 75.1465 206.82 75.1465 206.747V201.533C75.1465 201.46 75.1685 201.401 75.2125 201.357C75.2639 201.306 75.3262 201.28 75.3995 201.28H75.8945C75.9679 201.28 76.0265 201.306 76.0705 201.357C76.1219 201.401 76.1475 201.46 76.1475 201.533V201.918C76.5289 201.419 77.0605 201.17 77.7425 201.17C78.5565 201.17 79.1322 201.507 79.4695 202.182C79.6455 201.874 79.8949 201.628 80.2175 201.445C80.5402 201.262 80.9032 201.17 81.3065 201.17C81.9079 201.17 82.3992 201.375 82.7805 201.786C83.1619 202.197 83.3525 202.791 83.3525 203.568V206.747C83.3525 206.82 83.3269 206.883 83.2755 206.934C83.2315 206.978 83.1729 207 83.0995 207H82.5825C82.5092 207 82.4469 206.978 82.3955 206.934C82.3515 206.883 82.3295 206.82 82.3295 206.747V203.667C82.3295 203.095 82.2085 202.684 81.9665 202.435C81.7319 202.186 81.4202 202.061 81.0315 202.061C80.6869 202.061 80.3899 202.189 80.1405 202.446C79.8912 202.695 79.7665 203.102 79.7665 203.667V206.747C79.7665 206.82 79.7409 206.883 79.6895 206.934C79.6455 206.978 79.5869 207 79.5135 207H78.9965C78.9232 207 78.8609 206.978 78.8095 206.934C78.7655 206.883 78.7435 206.82 78.7435 206.747V203.667C78.7435 203.095 78.6189 202.684 78.3695 202.435C78.1275 202.186 77.8195 202.061 77.4455 202.061C77.1009 202.061 76.8039 202.189 76.5545 202.446C76.3052 202.695 76.1805 203.099 76.1805 203.656V206.747C76.1805 206.82 76.1549 206.883 76.1035 206.934C76.0595 206.978 76.0009 207 75.9275 207H75.3995ZM85.0869 200.213C85.0136 200.213 84.9512 200.191 84.8999 200.147C84.8559 200.096 84.8339 200.033 84.8339 199.96V199.366C84.8339 199.293 84.8559 199.23 84.8999 199.179C84.9512 199.128 85.0136 199.102 85.0869 199.102H85.7799C85.8532 199.102 85.9156 199.128 85.9669 199.179C86.0182 199.23 86.0439 199.293 86.0439 199.366V199.96C86.0439 200.033 86.0182 200.096 85.9669 200.147C85.9156 200.191 85.8532 200.213 85.7799 200.213H85.0869ZM85.1749 207C85.1016 207 85.0392 206.978 84.9879 206.934C84.9439 206.883 84.9219 206.82 84.9219 206.747V201.533C84.9219 201.46 84.9439 201.401 84.9879 201.357C85.0392 201.306 85.1016 201.28 85.1749 201.28H85.7029C85.7762 201.28 85.8349 201.306 85.8789 201.357C85.9302 201.401 85.9559 201.46 85.9559 201.533V206.747C85.9559 206.82 85.9302 206.883 85.8789 206.934C85.8349 206.978 85.7762 207 85.7029 207H85.1749ZM87.839 207C87.7656 207 87.7033 206.978 87.652 206.934C87.608 206.883 87.586 206.82 87.586 206.747V201.533C87.586 201.46 87.608 201.401 87.652 201.357C87.7033 201.306 87.7656 201.28 87.839 201.28H88.356C88.4293 201.28 88.488 201.306 88.532 201.357C88.5833 201.401 88.609 201.46 88.609 201.533V202.017C88.8216 201.746 89.071 201.537 89.357 201.39C89.6503 201.243 90.0133 201.17 90.446 201.17C91.15 201.17 91.6963 201.397 92.085 201.852C92.481 202.299 92.679 202.897 92.679 203.645V206.747C92.679 206.82 92.6533 206.883 92.602 206.934C92.558 206.978 92.4993 207 92.426 207H91.876C91.8026 207 91.7403 206.978 91.689 206.934C91.645 206.883 91.623 206.82 91.623 206.747V203.7C91.623 203.179 91.4946 202.776 91.238 202.49C90.9886 202.204 90.6256 202.061 90.149 202.061C89.687 202.061 89.3203 202.208 89.049 202.501C88.7776 202.787 88.642 203.187 88.642 203.7V206.747C88.642 206.82 88.6163 206.883 88.565 206.934C88.521 206.978 88.4623 207 88.389 207H87.839ZM96.5999 209.42C95.9985 209.42 95.5145 209.317 95.1479 209.112C94.7812 208.914 94.5209 208.687 94.3669 208.43C94.2129 208.173 94.1285 207.942 94.1139 207.737C94.1065 207.664 94.1285 207.601 94.1799 207.55C94.2385 207.499 94.3009 207.473 94.3669 207.473H94.8949C94.9609 207.473 95.0159 207.488 95.0599 207.517C95.1039 207.554 95.1405 207.616 95.1699 207.704C95.2579 207.939 95.4009 208.14 95.5989 208.309C95.8042 208.485 96.1195 208.573 96.5449 208.573C97.0875 208.573 97.4872 208.456 97.7439 208.221C98.0005 207.994 98.1289 207.587 98.1289 207V206.252C97.9382 206.494 97.6962 206.688 97.4029 206.835C97.1095 206.974 96.7612 207.044 96.3579 207.044C95.5805 207.044 94.9975 206.798 94.6089 206.307C94.2275 205.808 94.0259 205.178 94.0039 204.415L93.9929 204.107L94.0039 203.81C94.0259 203.055 94.2312 202.428 94.6199 201.929C95.0085 201.423 95.5879 201.17 96.3579 201.17C97.1279 201.17 97.7292 201.452 98.1619 202.017V201.544C98.1619 201.471 98.1839 201.408 98.2279 201.357C98.2792 201.306 98.3415 201.28 98.4149 201.28H98.9209C98.9942 201.28 99.0565 201.306 99.1079 201.357C99.1592 201.408 99.1849 201.471 99.1849 201.544V206.879C99.1849 208.573 98.3232 209.42 96.5999 209.42ZM96.5779 206.164C97.0765 206.164 97.4542 205.999 97.7109 205.669C97.9675 205.339 98.1069 204.947 98.1289 204.492C98.1362 204.426 98.1399 204.298 98.1399 204.107C98.1399 203.924 98.1362 203.799 98.1289 203.733C98.1069 203.278 97.9675 202.886 97.7109 202.556C97.4615 202.226 97.0839 202.061 96.5779 202.061C96.0572 202.061 95.6795 202.222 95.4449 202.545C95.2102 202.868 95.0819 203.293 95.0599 203.821L95.0489 204.107L95.0599 204.404C95.0819 204.925 95.2102 205.35 95.4449 205.68C95.6795 206.003 96.0572 206.164 96.5779 206.164ZM105.497 207.11C104.983 207.11 104.551 207.029 104.199 206.868C103.854 206.699 103.594 206.509 103.418 206.296C103.249 206.083 103.165 205.907 103.165 205.768C103.165 205.695 103.19 205.64 103.242 205.603C103.3 205.559 103.359 205.537 103.418 205.537H103.913C103.986 205.537 104.052 205.574 104.111 205.647C104.287 205.852 104.477 206.014 104.683 206.131C104.888 206.248 105.163 206.307 105.508 206.307C105.889 206.307 106.197 206.234 106.432 206.087C106.674 205.933 106.795 205.724 106.795 205.46C106.795 205.284 106.743 205.141 106.641 205.031C106.545 204.914 106.377 204.815 106.135 204.734C105.9 204.646 105.548 204.551 105.079 204.448C104.441 204.309 103.986 204.107 103.715 203.843C103.451 203.579 103.319 203.238 103.319 202.82C103.319 202.541 103.399 202.277 103.561 202.028C103.729 201.771 103.971 201.566 104.287 201.412C104.609 201.251 104.994 201.17 105.442 201.17C105.911 201.17 106.311 201.247 106.641 201.401C106.971 201.555 107.216 201.738 107.378 201.951C107.546 202.156 107.631 202.329 107.631 202.468C107.631 202.534 107.605 202.589 107.554 202.633C107.51 202.677 107.455 202.699 107.389 202.699H106.927C106.839 202.699 106.765 202.662 106.707 202.589C106.589 202.45 106.487 202.343 106.399 202.27C106.318 202.189 106.197 202.12 106.036 202.061C105.882 202.002 105.684 201.973 105.442 201.973C105.09 201.973 104.818 202.05 104.628 202.204C104.437 202.351 104.342 202.545 104.342 202.787C104.342 202.941 104.382 203.073 104.463 203.183C104.543 203.286 104.697 203.381 104.925 203.469C105.159 203.557 105.497 203.649 105.937 203.744C106.633 203.891 107.125 204.103 107.411 204.382C107.704 204.653 107.851 205.002 107.851 205.427C107.851 205.742 107.759 206.028 107.576 206.285C107.392 206.542 107.121 206.743 106.762 206.89C106.41 207.037 105.988 207.11 105.497 207.11ZM111.467 207.11C110.66 207.11 110.033 206.883 109.586 206.428C109.146 205.973 108.911 205.368 108.882 204.613L108.871 204.14L108.882 203.667C108.911 202.919 109.15 202.318 109.597 201.863C110.044 201.401 110.668 201.17 111.467 201.17C112.266 201.17 112.89 201.401 113.337 201.863C113.784 202.318 114.023 202.919 114.052 203.667C114.059 203.748 114.063 203.905 114.063 204.14C114.063 204.375 114.059 204.532 114.052 204.613C114.023 205.368 113.784 205.973 113.337 206.428C112.897 206.883 112.274 207.11 111.467 207.11ZM111.467 206.263C111.929 206.263 112.292 206.116 112.556 205.823C112.827 205.53 112.974 205.108 112.996 204.558C113.003 204.485 113.007 204.345 113.007 204.14C113.007 203.935 113.003 203.795 112.996 203.722C112.974 203.172 112.827 202.75 112.556 202.457C112.292 202.164 111.929 202.017 111.467 202.017C111.005 202.017 110.638 202.164 110.367 202.457C110.096 202.75 109.953 203.172 109.938 203.722L109.927 204.14L109.938 204.558C109.953 205.108 110.096 205.53 110.367 205.823C110.638 206.116 111.005 206.263 111.467 206.263ZM117.783 207.11C116.977 207.11 116.35 206.883 115.902 206.428C115.462 205.973 115.228 205.368 115.198 204.613L115.187 204.14L115.198 203.667C115.228 202.919 115.466 202.318 115.913 201.863C116.361 201.401 116.984 201.17 117.783 201.17C118.583 201.17 119.206 201.401 119.653 201.863C120.101 202.318 120.339 202.919 120.368 203.667C120.376 203.748 120.379 203.905 120.379 204.14C120.379 204.375 120.376 204.532 120.368 204.613C120.339 205.368 120.101 205.973 119.653 206.428C119.213 206.883 118.59 207.11 117.783 207.11ZM117.783 206.263C118.245 206.263 118.608 206.116 118.872 205.823C119.144 205.53 119.29 205.108 119.312 204.558C119.32 204.485 119.323 204.345 119.323 204.14C119.323 203.935 119.32 203.795 119.312 203.722C119.29 203.172 119.144 202.75 118.872 202.457C118.608 202.164 118.245 202.017 117.783 202.017C117.321 202.017 116.955 202.164 116.683 202.457C116.412 202.75 116.269 203.172 116.254 203.722L116.243 204.14L116.254 204.558C116.269 205.108 116.412 205.53 116.683 205.823C116.955 206.116 117.321 206.263 117.783 206.263ZM122.01 207C121.937 207 121.874 206.978 121.823 206.934C121.779 206.883 121.757 206.82 121.757 206.747V201.533C121.757 201.46 121.779 201.401 121.823 201.357C121.874 201.306 121.937 201.28 122.01 201.28H122.527C122.6 201.28 122.659 201.306 122.703 201.357C122.754 201.401 122.78 201.46 122.78 201.533V202.017C122.993 201.746 123.242 201.537 123.528 201.39C123.821 201.243 124.184 201.17 124.617 201.17C125.321 201.17 125.867 201.397 126.256 201.852C126.652 202.299 126.85 202.897 126.85 203.645V206.747C126.85 206.82 126.824 206.883 126.773 206.934C126.729 206.978 126.67 207 126.597 207H126.047C125.974 207 125.911 206.978 125.86 206.934C125.816 206.883 125.794 206.82 125.794 206.747V203.7C125.794 203.179 125.666 202.776 125.409 202.49C125.16 202.204 124.797 202.061 124.32 202.061C123.858 202.061 123.491 202.208 123.22 202.501C122.949 202.787 122.813 203.187 122.813 203.7V206.747C122.813 206.82 122.787 206.883 122.736 206.934C122.692 206.978 122.633 207 122.56 207H122.01ZM128.703 205.174C128.629 205.174 128.567 205.152 128.516 205.108C128.472 205.057 128.45 204.994 128.45 204.921V199.553C128.45 199.48 128.472 199.421 128.516 199.377C128.567 199.326 128.629 199.3 128.703 199.3H129.22C129.293 199.3 129.352 199.326 129.396 199.377C129.447 199.421 129.473 199.48 129.473 199.553V204.921C129.473 204.994 129.447 205.057 129.396 205.108C129.352 205.152 129.293 205.174 129.22 205.174H128.703ZM128.604 207C128.53 207 128.468 206.978 128.417 206.934C128.373 206.883 128.351 206.82 128.351 206.747V206.054C128.351 205.981 128.373 205.918 128.417 205.867C128.468 205.816 128.53 205.79 128.604 205.79H129.308C129.381 205.79 129.44 205.816 129.484 205.867C129.535 205.918 129.561 205.981 129.561 206.054V206.747C129.561 206.82 129.535 206.883 129.484 206.934C129.44 206.978 129.381 207 129.308 207H128.604ZM2.62455 225C2.55122 225 2.48888 224.978 2.43755 224.934C2.39355 224.883 2.37155 224.82 2.37155 224.747V217.564C2.37155 217.483 2.39355 217.421 2.43755 217.377C2.48888 217.326 2.55122 217.3 2.62455 217.3H3.13055C3.26255 217.3 3.35422 217.351 3.40555 217.454L7.05755 223.064V217.564C7.05755 217.483 7.07955 217.421 7.12355 217.377C7.17488 217.326 7.23722 217.3 7.31055 217.3H7.83855C7.91922 217.3 7.98155 217.326 8.02555 217.377C8.07688 217.421 8.10255 217.483 8.10255 217.564V224.736C8.10255 224.809 8.07688 224.872 8.02555 224.923C7.98155 224.974 7.92288 225 7.84955 225H7.32155C7.21155 225 7.12355 224.949 7.05755 224.846L3.41655 219.291V224.747C3.41655 224.82 3.39088 224.883 3.33955 224.934C3.28822 224.978 3.22588 225 3.15255 225H2.62455ZM12.165 225.11C11.4097 225.11 10.8047 224.879 10.35 224.417C9.90265 223.948 9.65699 223.31 9.61299 222.503L9.60199 222.129L9.61299 221.766C9.66432 220.974 9.91366 220.343 10.361 219.874C10.8157 219.405 11.4133 219.17 12.154 219.17C12.968 219.17 13.5987 219.43 14.046 219.951C14.4933 220.464 14.717 221.161 14.717 222.041V222.228C14.717 222.301 14.6913 222.364 14.64 222.415C14.596 222.459 14.5373 222.481 14.464 222.481H10.658V222.58C10.68 223.057 10.823 223.464 11.087 223.801C11.3583 224.131 11.714 224.296 12.154 224.296C12.4913 224.296 12.7663 224.23 12.979 224.098C13.199 223.959 13.3603 223.816 13.463 223.669C13.529 223.581 13.5767 223.53 13.606 223.515C13.6427 223.493 13.705 223.482 13.793 223.482H14.332C14.398 223.482 14.453 223.5 14.497 223.537C14.541 223.574 14.563 223.625 14.563 223.691C14.563 223.852 14.4603 224.047 14.255 224.274C14.057 224.501 13.7747 224.699 13.408 224.868C13.0487 225.029 12.6343 225.11 12.165 225.11ZM13.672 221.722V221.689C13.672 221.183 13.5327 220.772 13.254 220.457C12.9827 220.134 12.616 219.973 12.154 219.973C11.692 219.973 11.3253 220.134 11.054 220.457C10.79 220.772 10.658 221.183 10.658 221.689V221.722H13.672ZM17.3999 225C17.3045 225 17.2312 224.978 17.1799 224.934C17.1285 224.89 17.0845 224.82 17.0479 224.725L15.4859 219.621L15.4639 219.511C15.4639 219.445 15.4859 219.39 15.5299 219.346C15.5812 219.302 15.6362 219.28 15.6949 219.28H16.1789C16.2522 219.28 16.3109 219.302 16.3549 219.346C16.4062 219.383 16.4392 219.423 16.4539 219.467L17.6749 223.614L18.9839 219.511C18.9985 219.452 19.0315 219.401 19.0829 219.357C19.1342 219.306 19.2039 219.28 19.2919 219.28H19.6659C19.7539 219.28 19.8235 219.306 19.8749 219.357C19.9262 219.401 19.9592 219.452 19.9739 219.511L21.2829 223.614L22.5039 219.467C22.5112 219.43 22.5369 219.39 22.5809 219.346C22.6322 219.302 22.6945 219.28 22.7679 219.28H23.2629C23.3215 219.28 23.3729 219.302 23.4169 219.346C23.4609 219.39 23.4829 219.445 23.4829 219.511L23.4609 219.621L21.9099 224.725C21.8732 224.82 21.8292 224.89 21.7779 224.934C21.7265 224.978 21.6495 225 21.5469 225H21.1179C20.9199 225 20.7989 224.908 20.7549 224.725L19.4789 220.787L18.2029 224.725C18.1442 224.908 18.0195 225 17.8289 225H17.3999ZM27.4037 227.09C27.3304 227.09 27.268 227.064 27.2167 227.013C27.1727 226.969 27.1507 226.91 27.1507 226.837V219.533C27.1507 219.46 27.1727 219.401 27.2167 219.357C27.268 219.306 27.3304 219.28 27.4037 219.28H27.9097C27.983 219.28 28.0417 219.306 28.0857 219.357C28.137 219.401 28.1627 219.46 28.1627 219.533V220.017C28.5734 219.452 29.1747 219.17 29.9667 219.17C30.7367 219.17 31.3124 219.412 31.6937 219.896C32.0824 220.38 32.2914 221.003 32.3207 221.766C32.328 221.847 32.3317 221.971 32.3317 222.14C32.3317 222.309 32.328 222.433 32.3207 222.514C32.2914 223.269 32.0824 223.893 31.6937 224.384C31.305 224.868 30.7294 225.11 29.9667 225.11C29.204 225.11 28.61 224.835 28.1847 224.285V226.837C28.1847 226.91 28.1627 226.969 28.1187 227.013C28.0747 227.064 28.016 227.09 27.9427 227.09H27.4037ZM29.7357 224.219C30.2564 224.219 30.634 224.058 30.8687 223.735C31.1107 223.412 31.2427 222.987 31.2647 222.459C31.272 222.386 31.2757 222.279 31.2757 222.14C31.2757 220.754 30.7624 220.061 29.7357 220.061C29.2297 220.061 28.8484 220.23 28.5917 220.567C28.3424 220.897 28.2067 221.293 28.1847 221.755L28.1737 222.173L28.1847 222.602C28.1994 223.035 28.3387 223.412 28.6027 223.735C28.8667 224.058 29.2444 224.219 29.7357 224.219ZM35.9804 225.11C35.2251 225.11 34.6201 224.879 34.1654 224.417C33.7181 223.948 33.4724 223.31 33.4284 222.503L33.4174 222.129L33.4284 221.766C33.4798 220.974 33.7291 220.343 34.1764 219.874C34.6311 219.405 35.2288 219.17 35.9694 219.17C36.7834 219.17 37.4141 219.43 37.8614 219.951C38.3088 220.464 38.5324 221.161 38.5324 222.041V222.228C38.5324 222.301 38.5068 222.364 38.4554 222.415C38.4114 222.459 38.3528 222.481 38.2794 222.481H34.4734V222.58C34.4954 223.057 34.6384 223.464 34.9024 223.801C35.1738 224.131 35.5294 224.296 35.9694 224.296C36.3068 224.296 36.5818 224.23 36.7944 224.098C37.0144 223.959 37.1758 223.816 37.2784 223.669C37.3444 223.581 37.3921 223.53 37.4214 223.515C37.4581 223.493 37.5204 223.482 37.6084 223.482H38.1474C38.2134 223.482 38.2684 223.5 38.3124 223.537C38.3564 223.574 38.3784 223.625 38.3784 223.691C38.3784 223.852 38.2758 224.047 38.0704 224.274C37.8724 224.501 37.5901 224.699 37.2234 224.868C36.8641 225.029 36.4498 225.11 35.9804 225.11ZM37.4874 221.722V221.689C37.4874 221.183 37.3481 220.772 37.0694 220.457C36.7981 220.134 36.4314 219.973 35.9694 219.973C35.5074 219.973 35.1408 220.134 34.8694 220.457C34.6054 220.772 34.4734 221.183 34.4734 221.689V221.722H37.4874ZM40.1007 225C40.0274 225 39.965 224.978 39.9137 224.934C39.8697 224.883 39.8477 224.82 39.8477 224.747V219.544C39.8477 219.471 39.8697 219.408 39.9137 219.357C39.965 219.306 40.0274 219.28 40.1007 219.28H40.6067C40.68 219.28 40.7424 219.306 40.7937 219.357C40.845 219.408 40.8707 219.471 40.8707 219.544V220.028C41.1714 219.529 41.6847 219.28 42.4107 219.28H42.8397C42.913 219.28 42.9717 219.306 43.0157 219.357C43.067 219.401 43.0927 219.46 43.0927 219.533V219.984C43.0927 220.057 43.067 220.116 43.0157 220.16C42.9717 220.204 42.913 220.226 42.8397 220.226H42.1797C41.7837 220.226 41.472 220.343 41.2447 220.578C41.0174 220.805 40.9037 221.117 40.9037 221.513V224.747C40.9037 224.82 40.878 224.883 40.8267 224.934C40.7754 224.978 40.713 225 40.6397 225H40.1007ZM46.0064 225.11C45.4931 225.11 45.0604 225.029 44.7084 224.868C44.3637 224.699 44.1034 224.509 43.9274 224.296C43.7587 224.083 43.6744 223.907 43.6744 223.768C43.6744 223.695 43.7001 223.64 43.7514 223.603C43.8101 223.559 43.8687 223.537 43.9274 223.537H44.4224C44.4957 223.537 44.5617 223.574 44.6204 223.647C44.7964 223.852 44.9871 224.014 45.1924 224.131C45.3977 224.248 45.6727 224.307 46.0174 224.307C46.3987 224.307 46.7067 224.234 46.9414 224.087C47.1834 223.933 47.3044 223.724 47.3044 223.46C47.3044 223.284 47.2531 223.141 47.1504 223.031C47.0551 222.914 46.8864 222.815 46.6444 222.734C46.4097 222.646 46.0577 222.551 45.5884 222.448C44.9504 222.309 44.4957 222.107 44.2244 221.843C43.9604 221.579 43.8284 221.238 43.8284 220.82C43.8284 220.541 43.9091 220.277 44.0704 220.028C44.2391 219.771 44.4811 219.566 44.7964 219.412C45.1191 219.251 45.5041 219.17 45.9514 219.17C46.4207 219.17 46.8204 219.247 47.1504 219.401C47.4804 219.555 47.7261 219.738 47.8874 219.951C48.0561 220.156 48.1404 220.329 48.1404 220.468C48.1404 220.534 48.1147 220.589 48.0634 220.633C48.0194 220.677 47.9644 220.699 47.8984 220.699H47.4364C47.3484 220.699 47.2751 220.662 47.2164 220.589C47.0991 220.45 46.9964 220.343 46.9084 220.27C46.8277 220.189 46.7067 220.12 46.5454 220.061C46.3914 220.002 46.1934 219.973 45.9514 219.973C45.5994 219.973 45.3281 220.05 45.1374 220.204C44.9467 220.351 44.8514 220.545 44.8514 220.787C44.8514 220.941 44.8917 221.073 44.9724 221.183C45.0531 221.286 45.2071 221.381 45.4344 221.469C45.6691 221.557 46.0064 221.649 46.4464 221.744C47.1431 221.891 47.6344 222.103 47.9204 222.382C48.2137 222.653 48.3604 223.002 48.3604 223.427C48.3604 223.742 48.2687 224.028 48.0854 224.285C47.9021 224.542 47.6307 224.743 47.2714 224.89C46.9194 225.037 46.4977 225.11 46.0064 225.11ZM51.9768 225.11C51.1702 225.11 50.5432 224.883 50.0958 224.428C49.6558 223.973 49.4212 223.368 49.3918 222.613L49.3808 222.14L49.3918 221.667C49.4212 220.919 49.6595 220.318 50.1068 219.863C50.5542 219.401 51.1775 219.17 51.9768 219.17C52.7762 219.17 53.3995 219.401 53.8468 219.863C54.2942 220.318 54.5325 220.919 54.5618 221.667C54.5692 221.748 54.5728 221.905 54.5728 222.14C54.5728 222.375 54.5692 222.532 54.5618 222.613C54.5325 223.368 54.2942 223.973 53.8468 224.428C53.4068 224.883 52.7835 225.11 51.9768 225.11ZM51.9768 224.263C52.4388 224.263 52.8018 224.116 53.0658 223.823C53.3372 223.53 53.4838 223.108 53.5058 222.558C53.5132 222.485 53.5168 222.345 53.5168 222.14C53.5168 221.935 53.5132 221.795 53.5058 221.722C53.4838 221.172 53.3372 220.75 53.0658 220.457C52.8018 220.164 52.4388 220.017 51.9768 220.017C51.5148 220.017 51.1482 220.164 50.8768 220.457C50.6055 220.75 50.4625 221.172 50.4478 221.722L50.4368 222.14L50.4478 222.558C50.4625 223.108 50.6055 223.53 50.8768 223.823C51.1482 224.116 51.5148 224.263 51.9768 224.263ZM56.2032 225C56.1299 225 56.0676 224.978 56.0162 224.934C55.9722 224.883 55.9502 224.82 55.9502 224.747V219.533C55.9502 219.46 55.9722 219.401 56.0162 219.357C56.0676 219.306 56.1299 219.28 56.2032 219.28H56.7202C56.7936 219.28 56.8522 219.306 56.8962 219.357C56.9476 219.401 56.9732 219.46 56.9732 219.533V220.017C57.1859 219.746 57.4352 219.537 57.7212 219.39C58.0146 219.243 58.3776 219.17 58.8102 219.17C59.5142 219.17 60.0606 219.397 60.4492 219.852C60.8452 220.299 61.0432 220.897 61.0432 221.645V224.747C61.0432 224.82 61.0176 224.883 60.9662 224.934C60.9222 224.978 60.8636 225 60.7902 225H60.2402C60.1669 225 60.1046 224.978 60.0532 224.934C60.0092 224.883 59.9872 224.82 59.9872 224.747V221.7C59.9872 221.179 59.8589 220.776 59.6022 220.49C59.3529 220.204 58.9899 220.061 58.5132 220.061C58.0512 220.061 57.6846 220.208 57.4132 220.501C57.1419 220.787 57.0062 221.187 57.0062 221.7V224.747C57.0062 224.82 56.9806 224.883 56.9292 224.934C56.8852 224.978 56.8266 225 56.7532 225H56.2032ZM64.2161 225.11C63.8568 225.11 63.5231 225.037 63.2151 224.89C62.9071 224.743 62.6615 224.545 62.4781 224.296C62.3021 224.039 62.2141 223.757 62.2141 223.449C62.2141 222.965 62.4121 222.569 62.8081 222.261C63.2115 221.946 63.7541 221.74 64.4361 221.645L66.0751 221.414V221.095C66.0751 220.347 65.6461 219.973 64.7881 219.973C64.4655 219.973 64.2015 220.043 63.9961 220.182C63.7908 220.314 63.6368 220.472 63.5341 220.655C63.5121 220.721 63.4828 220.769 63.4461 220.798C63.4168 220.827 63.3728 220.842 63.3141 220.842H62.8411C62.7751 220.842 62.7165 220.82 62.6651 220.776C62.6211 220.725 62.5991 220.666 62.5991 220.6C62.6065 220.424 62.6871 220.226 62.8411 220.006C63.0025 219.779 63.2481 219.584 63.5781 219.423C63.9081 219.254 64.3151 219.17 64.7991 219.17C65.6205 219.17 66.2108 219.364 66.5701 219.753C66.9295 220.134 67.1091 220.611 67.1091 221.183V224.747C67.1091 224.82 67.0835 224.883 67.0321 224.934C66.9881 224.978 66.9295 225 66.8561 225H66.3501C66.2768 225 66.2145 224.978 66.1631 224.934C66.1191 224.883 66.0971 224.82 66.0971 224.747V224.274C65.9358 224.509 65.7011 224.707 65.3931 224.868C65.0851 225.029 64.6928 225.11 64.2161 225.11ZM64.4471 224.285C64.9238 224.285 65.3125 224.131 65.6131 223.823C65.9211 223.508 66.0751 223.057 66.0751 222.47V222.162L64.7991 222.349C64.2785 222.422 63.8861 222.547 63.6221 222.723C63.3581 222.892 63.2261 223.108 63.2261 223.372C63.2261 223.665 63.3471 223.893 63.5891 224.054C63.8311 224.208 64.1171 224.285 64.4471 224.285ZM68.9545 225C68.8811 225 68.8188 224.978 68.7675 224.934C68.7235 224.883 68.7015 224.82 68.7015 224.747V217.443C68.7015 217.37 68.7235 217.311 68.7675 217.267C68.8188 217.216 68.8811 217.19 68.9545 217.19H69.4715C69.5448 217.19 69.6035 217.216 69.6475 217.267C69.6988 217.311 69.7245 217.37 69.7245 217.443V224.747C69.7245 224.82 69.6988 224.883 69.6475 224.934C69.6035 224.978 69.5448 225 69.4715 225H68.9545ZM74.3256 225C74.2522 225 74.1899 224.978 74.1386 224.934C74.0946 224.883 74.0726 224.82 74.0726 224.747V217.443C74.0726 217.37 74.0946 217.311 74.1386 217.267C74.1899 217.216 74.2522 217.19 74.3256 217.19H74.8426C74.9159 217.19 74.9746 217.216 75.0186 217.267C75.0699 217.311 75.0956 217.37 75.0956 217.443V224.747C75.0956 224.82 75.0699 224.883 75.0186 224.934C74.9746 224.978 74.9159 225 74.8426 225H74.3256ZM79.0794 225.11C78.2727 225.11 77.6457 224.883 77.1984 224.428C76.7584 223.973 76.5237 223.368 76.4944 222.613L76.4834 222.14L76.4944 221.667C76.5237 220.919 76.762 220.318 77.2094 219.863C77.6567 219.401 78.28 219.17 79.0794 219.17C79.8787 219.17 80.502 219.401 80.9494 219.863C81.3967 220.318 81.635 220.919 81.6644 221.667C81.6717 221.748 81.6754 221.905 81.6754 222.14C81.6754 222.375 81.6717 222.532 81.6644 222.613C81.635 223.368 81.3967 223.973 80.9494 224.428C80.5094 224.883 79.886 225.11 79.0794 225.11ZM79.0794 224.263C79.5414 224.263 79.9044 224.116 80.1684 223.823C80.4397 223.53 80.5864 223.108 80.6084 222.558C80.6157 222.485 80.6194 222.345 80.6194 222.14C80.6194 221.935 80.6157 221.795 80.6084 221.722C80.5864 221.172 80.4397 220.75 80.1684 220.457C79.9044 220.164 79.5414 220.017 79.0794 220.017C78.6174 220.017 78.2507 220.164 77.9794 220.457C77.708 220.75 77.565 221.172 77.5504 221.722L77.5394 222.14L77.5504 222.558C77.565 223.108 77.708 223.53 77.9794 223.823C78.2507 224.116 78.6174 224.263 79.0794 224.263ZM84.6478 225.11C84.2884 225.11 83.9548 225.037 83.6468 224.89C83.3388 224.743 83.0931 224.545 82.9098 224.296C82.7338 224.039 82.6458 223.757 82.6458 223.449C82.6458 222.965 82.8438 222.569 83.2398 222.261C83.6431 221.946 84.1858 221.74 84.8678 221.645L86.5068 221.414V221.095C86.5068 220.347 86.0778 219.973 85.2198 219.973C84.8971 219.973 84.6331 220.043 84.4278 220.182C84.2224 220.314 84.0684 220.472 83.9658 220.655C83.9438 220.721 83.9144 220.769 83.8778 220.798C83.8484 220.827 83.8044 220.842 83.7458 220.842H83.2728C83.2068 220.842 83.1481 220.82 83.0968 220.776C83.0528 220.725 83.0308 220.666 83.0308 220.6C83.0381 220.424 83.1188 220.226 83.2728 220.006C83.4341 219.779 83.6798 219.584 84.0098 219.423C84.3398 219.254 84.7468 219.17 85.2308 219.17C86.0521 219.17 86.6424 219.364 87.0018 219.753C87.3611 220.134 87.5408 220.611 87.5408 221.183V224.747C87.5408 224.82 87.5151 224.883 87.4638 224.934C87.4198 224.978 87.3611 225 87.2878 225H86.7818C86.7084 225 86.6461 224.978 86.5948 224.934C86.5508 224.883 86.5288 224.82 86.5288 224.747V224.274C86.3674 224.509 86.1328 224.707 85.8248 224.868C85.5168 225.029 85.1244 225.11 84.6478 225.11ZM84.8788 224.285C85.3554 224.285 85.7441 224.131 86.0448 223.823C86.3528 223.508 86.5068 223.057 86.5068 222.47V222.162L85.2308 222.349C84.7101 222.422 84.3178 222.547 84.0538 222.723C83.7898 222.892 83.6578 223.108 83.6578 223.372C83.6578 223.665 83.7788 223.893 84.0208 224.054C84.2628 224.208 84.5488 224.285 84.8788 224.285ZM89.3751 225C89.3018 225 89.2394 224.978 89.1881 224.934C89.1441 224.883 89.1221 224.82 89.1221 224.747V219.533C89.1221 219.46 89.1441 219.401 89.1881 219.357C89.2394 219.306 89.3018 219.28 89.3751 219.28H89.8921C89.9654 219.28 90.0241 219.306 90.0681 219.357C90.1194 219.401 90.1451 219.46 90.1451 219.533V220.017C90.3578 219.746 90.6071 219.537 90.8931 219.39C91.1864 219.243 91.5494 219.17 91.9821 219.17C92.6861 219.17 93.2324 219.397 93.6211 219.852C94.0171 220.299 94.2151 220.897 94.2151 221.645V224.747C94.2151 224.82 94.1894 224.883 94.1381 224.934C94.0941 224.978 94.0354 225 93.9621 225H93.4121C93.3388 225 93.2764 224.978 93.2251 224.934C93.1811 224.883 93.1591 224.82 93.1591 224.747V221.7C93.1591 221.179 93.0308 220.776 92.7741 220.49C92.5248 220.204 92.1618 220.061 91.6851 220.061C91.2231 220.061 90.8564 220.208 90.5851 220.501C90.3138 220.787 90.1781 221.187 90.1781 221.7V224.747C90.1781 224.82 90.1524 224.883 90.1011 224.934C90.0571 224.978 89.9984 225 89.9251 225H89.3751ZM97.773 225.11C97.2597 225.11 96.827 225.029 96.475 224.868C96.1303 224.699 95.87 224.509 95.694 224.296C95.5253 224.083 95.441 223.907 95.441 223.768C95.441 223.695 95.4667 223.64 95.518 223.603C95.5767 223.559 95.6353 223.537 95.694 223.537H96.189C96.2623 223.537 96.3283 223.574 96.387 223.647C96.563 223.852 96.7537 224.014 96.959 224.131C97.1643 224.248 97.4393 224.307 97.784 224.307C98.1653 224.307 98.4733 224.234 98.708 224.087C98.95 223.933 99.071 223.724 99.071 223.46C99.071 223.284 99.0197 223.141 98.917 223.031C98.8217 222.914 98.653 222.815 98.411 222.734C98.1763 222.646 97.8243 222.551 97.355 222.448C96.717 222.309 96.2623 222.107 95.991 221.843C95.727 221.579 95.595 221.238 95.595 220.82C95.595 220.541 95.6757 220.277 95.837 220.028C96.0057 219.771 96.2477 219.566 96.563 219.412C96.8857 219.251 97.2707 219.17 97.718 219.17C98.1873 219.17 98.587 219.247 98.917 219.401C99.247 219.555 99.4927 219.738 99.654 219.951C99.8227 220.156 99.907 220.329 99.907 220.468C99.907 220.534 99.8813 220.589 99.83 220.633C99.786 220.677 99.731 220.699 99.665 220.699H99.203C99.115 220.699 99.0417 220.662 98.983 220.589C98.8657 220.45 98.763 220.343 98.675 220.27C98.5943 220.189 98.4733 220.12 98.312 220.061C98.158 220.002 97.96 219.973 97.718 219.973C97.366 219.973 97.0947 220.05 96.904 220.204C96.7133 220.351 96.618 220.545 96.618 220.787C96.618 220.941 96.6583 221.073 96.739 221.183C96.8197 221.286 96.9737 221.381 97.201 221.469C97.4357 221.557 97.773 221.649 98.213 221.744C98.9097 221.891 99.401 222.103 99.687 222.382C99.9803 222.653 100.127 223.002 100.127 223.427C100.127 223.742 100.035 224.028 99.852 224.285C99.6687 224.542 99.3973 224.743 99.038 224.89C98.686 225.037 98.2643 225.11 97.773 225.11ZM106.093 225C104.935 225 104.355 224.355 104.355 223.064V220.16H103.497C103.424 220.16 103.362 220.138 103.31 220.094C103.266 220.043 103.244 219.98 103.244 219.907V219.533C103.244 219.46 103.266 219.401 103.31 219.357C103.362 219.306 103.424 219.28 103.497 219.28H104.355V217.443C104.355 217.37 104.377 217.311 104.421 217.267C104.473 217.216 104.535 217.19 104.608 217.19H105.125C105.199 217.19 105.257 217.216 105.301 217.267C105.353 217.311 105.378 217.37 105.378 217.443V219.28H106.742C106.816 219.28 106.874 219.306 106.918 219.357C106.97 219.401 106.995 219.46 106.995 219.533V219.907C106.995 219.98 106.97 220.043 106.918 220.094C106.874 220.138 106.816 220.16 106.742 220.16H105.378V222.987C105.378 223.354 105.441 223.632 105.565 223.823C105.69 224.006 105.895 224.098 106.181 224.098H106.852C106.926 224.098 106.984 224.124 107.028 224.175C107.08 224.219 107.105 224.278 107.105 224.351V224.747C107.105 224.82 107.08 224.883 107.028 224.934C106.984 224.978 106.926 225 106.852 225H106.093ZM108.421 225C108.348 225 108.286 224.978 108.234 224.934C108.19 224.883 108.168 224.82 108.168 224.747V217.443C108.168 217.37 108.19 217.311 108.234 217.267C108.286 217.216 108.348 217.19 108.421 217.19H108.971C109.045 217.19 109.103 217.216 109.147 217.267C109.199 217.311 109.224 217.37 109.224 217.443V220.006C109.437 219.735 109.686 219.529 109.972 219.39C110.258 219.243 110.614 219.17 111.039 219.17C111.743 219.17 112.29 219.397 112.678 219.852C113.074 220.299 113.272 220.897 113.272 221.645V224.747C113.272 224.82 113.247 224.883 113.195 224.934C113.151 224.978 113.093 225 113.019 225H112.469C112.396 225 112.334 224.978 112.282 224.934C112.238 224.883 112.216 224.82 112.216 224.747V221.7C112.216 221.179 112.088 220.776 111.831 220.49C111.582 220.204 111.219 220.061 110.742 220.061C110.28 220.061 109.91 220.208 109.631 220.501C109.36 220.787 109.224 221.187 109.224 221.7V224.747C109.224 224.82 109.199 224.883 109.147 224.934C109.103 224.978 109.045 225 108.971 225H108.421ZM116.455 225.11C116.096 225.11 115.762 225.037 115.454 224.89C115.146 224.743 114.901 224.545 114.717 224.296C114.541 224.039 114.453 223.757 114.453 223.449C114.453 222.965 114.651 222.569 115.047 222.261C115.451 221.946 115.993 221.74 116.675 221.645L118.314 221.414V221.095C118.314 220.347 117.885 219.973 117.027 219.973C116.705 219.973 116.441 220.043 116.235 220.182C116.03 220.314 115.876 220.472 115.773 220.655C115.751 220.721 115.722 220.769 115.685 220.798C115.656 220.827 115.612 220.842 115.553 220.842H115.08C115.014 220.842 114.956 220.82 114.904 220.776C114.86 220.725 114.838 220.666 114.838 220.6C114.846 220.424 114.926 220.226 115.08 220.006C115.242 219.779 115.487 219.584 115.817 219.423C116.147 219.254 116.554 219.17 117.038 219.17C117.86 219.17 118.45 219.364 118.809 219.753C119.169 220.134 119.348 220.611 119.348 221.183V224.747C119.348 224.82 119.323 224.883 119.271 224.934C119.227 224.978 119.169 225 119.095 225H118.589C118.516 225 118.454 224.978 118.402 224.934C118.358 224.883 118.336 224.82 118.336 224.747V224.274C118.175 224.509 117.94 224.707 117.632 224.868C117.324 225.029 116.932 225.11 116.455 225.11ZM116.686 224.285C117.163 224.285 117.552 224.131 117.852 223.823C118.16 223.508 118.314 223.057 118.314 222.47V222.162L117.038 222.349C116.518 222.422 116.125 222.547 115.861 222.723C115.597 222.892 115.465 223.108 115.465 223.372C115.465 223.665 115.586 223.893 115.828 224.054C116.07 224.208 116.356 224.285 116.686 224.285ZM123.109 225C121.95 225 121.371 224.355 121.371 223.064V220.16H120.513C120.44 220.16 120.377 220.138 120.326 220.094C120.282 220.043 120.26 219.98 120.26 219.907V219.533C120.26 219.46 120.282 219.401 120.326 219.357C120.377 219.306 120.44 219.28 120.513 219.28H121.371V217.443C121.371 217.37 121.393 217.311 121.437 217.267C121.488 217.216 121.551 217.19 121.624 217.19H122.141C122.214 217.19 122.273 217.216 122.317 217.267C122.368 217.311 122.394 217.37 122.394 217.443V219.28H123.758C123.831 219.28 123.89 219.306 123.934 219.357C123.985 219.401 124.011 219.46 124.011 219.533V219.907C124.011 219.98 123.985 220.043 123.934 220.094C123.89 220.138 123.831 220.16 123.758 220.16H122.394V222.987C122.394 223.354 122.456 223.632 122.581 223.823C122.706 224.006 122.911 224.098 123.197 224.098H123.868C123.941 224.098 124 224.124 124.044 224.175C124.095 224.219 124.121 224.278 124.121 224.351V224.747C124.121 224.82 124.095 224.883 124.044 224.934C124 224.978 123.941 225 123.868 225H123.109ZM129.129 225C129.034 225 128.961 224.978 128.909 224.934C128.858 224.89 128.814 224.82 128.777 224.725L127.215 219.621L127.193 219.511C127.193 219.445 127.215 219.39 127.259 219.346C127.311 219.302 127.366 219.28 127.424 219.28H127.908C127.982 219.28 128.04 219.302 128.084 219.346C128.136 219.383 128.169 219.423 128.183 219.467L129.404 223.614L130.713 219.511C130.728 219.452 130.761 219.401 130.812 219.357C130.864 219.306 130.933 219.28 131.021 219.28H131.395C131.483 219.28 131.553 219.306 131.604 219.357C131.656 219.401 131.689 219.452 131.703 219.511L133.012 223.614L134.233 219.467C134.241 219.43 134.266 219.39 134.31 219.346C134.362 219.302 134.424 219.28 134.497 219.28H134.992C135.051 219.28 135.102 219.302 135.146 219.346C135.19 219.39 135.212 219.445 135.212 219.511L135.19 219.621L133.639 224.725C133.603 224.82 133.559 224.89 133.507 224.934C133.456 224.978 133.379 225 133.276 225H132.847C132.649 225 132.528 224.908 132.484 224.725L131.208 220.787L129.932 224.725C129.874 224.908 129.749 225 129.558 225H129.129ZM138.623 225.11C137.817 225.11 137.19 224.883 136.742 224.428C136.302 223.973 136.068 223.368 136.038 222.613L136.027 222.14L136.038 221.667C136.068 220.919 136.306 220.318 136.753 219.863C137.201 219.401 137.824 219.17 138.623 219.17C139.423 219.17 140.046 219.401 140.493 219.863C140.941 220.318 141.179 220.919 141.208 221.667C141.216 221.748 141.219 221.905 141.219 222.14C141.219 222.375 141.216 222.532 141.208 222.613C141.179 223.368 140.941 223.973 140.493 224.428C140.053 224.883 139.43 225.11 138.623 225.11ZM138.623 224.263C139.085 224.263 139.448 224.116 139.712 223.823C139.984 223.53 140.13 223.108 140.152 222.558C140.16 222.485 140.163 222.345 140.163 222.14C140.163 221.935 140.16 221.795 140.152 221.722C140.13 221.172 139.984 220.75 139.712 220.457C139.448 220.164 139.085 220.017 138.623 220.017C138.161 220.017 137.795 220.164 137.523 220.457C137.252 220.75 137.109 221.172 137.094 221.722L137.083 222.14L137.094 222.558C137.109 223.108 137.252 223.53 137.523 223.823C137.795 224.116 138.161 224.263 138.623 224.263ZM142.85 225C142.776 225 142.714 224.978 142.663 224.934C142.619 224.883 142.597 224.82 142.597 224.747V219.544C142.597 219.471 142.619 219.408 142.663 219.357C142.714 219.306 142.776 219.28 142.85 219.28H143.356C143.429 219.28 143.491 219.306 143.543 219.357C143.594 219.408 143.62 219.471 143.62 219.544V220.028C143.92 219.529 144.434 219.28 145.16 219.28H145.589C145.662 219.28 145.721 219.306 145.765 219.357C145.816 219.401 145.842 219.46 145.842 219.533V219.984C145.842 220.057 145.816 220.116 145.765 220.16C145.721 220.204 145.662 220.226 145.589 220.226H144.929C144.533 220.226 144.221 220.343 143.994 220.578C143.766 220.805 143.653 221.117 143.653 221.513V224.747C143.653 224.82 143.627 224.883 143.576 224.934C143.524 224.978 143.462 225 143.389 225H142.85ZM147.039 225C146.966 225 146.904 224.978 146.852 224.934C146.808 224.883 146.786 224.82 146.786 224.747V217.443C146.786 217.37 146.808 217.311 146.852 217.267C146.904 217.216 146.966 217.19 147.039 217.19H147.556C147.63 217.19 147.688 217.216 147.732 217.267C147.784 217.311 147.809 217.37 147.809 217.443V221.271L149.976 219.467C149.998 219.452 150.035 219.423 150.086 219.379C150.138 219.342 150.185 219.317 150.229 219.302C150.281 219.287 150.343 219.28 150.416 219.28H150.999C151.065 219.28 151.12 219.302 151.164 219.346C151.208 219.39 151.23 219.445 151.23 219.511C151.23 219.592 151.186 219.661 151.098 219.72L148.557 221.832L151.373 224.571C151.461 224.644 151.505 224.71 151.505 224.769C151.505 224.835 151.483 224.89 151.439 224.934C151.395 224.978 151.34 225 151.274 225H150.702C150.592 225 150.512 224.989 150.46 224.967C150.416 224.945 150.35 224.894 150.262 224.813L147.809 222.47V224.747C147.809 224.82 147.784 224.883 147.732 224.934C147.688 224.978 147.63 225 147.556 225H147.039ZM155.657 225C155.584 225 155.521 224.978 155.47 224.934C155.426 224.883 155.404 224.82 155.404 224.747V220.16H154.469C154.396 220.16 154.333 220.138 154.282 220.094C154.238 220.043 154.216 219.98 154.216 219.907V219.533C154.216 219.46 154.238 219.401 154.282 219.357C154.333 219.306 154.396 219.28 154.469 219.28H155.404V218.73C155.404 217.483 156.035 216.86 157.296 216.86H157.956C158.029 216.86 158.088 216.886 158.132 216.937C158.183 216.981 158.209 217.04 158.209 217.113V217.487C158.209 217.56 158.183 217.623 158.132 217.674C158.088 217.718 158.029 217.74 157.956 217.74H157.318C156.988 217.74 156.757 217.828 156.625 218.004C156.493 218.173 156.427 218.433 156.427 218.785V219.28H157.846C157.919 219.28 157.978 219.306 158.022 219.357C158.073 219.401 158.099 219.46 158.099 219.533V219.907C158.099 219.98 158.073 220.043 158.022 220.094C157.978 220.138 157.919 220.16 157.846 220.16H156.427V224.747C156.427 224.82 156.401 224.883 156.35 224.934C156.306 224.978 156.247 225 156.174 225H155.657ZM161.3 225.11C160.493 225.11 159.866 224.883 159.419 224.428C158.979 223.973 158.744 223.368 158.715 222.613L158.704 222.14L158.715 221.667C158.744 220.919 158.983 220.318 159.43 219.863C159.877 219.401 160.501 219.17 161.3 219.17C162.099 219.17 162.723 219.401 163.17 219.863C163.617 220.318 163.856 220.919 163.885 221.667C163.892 221.748 163.896 221.905 163.896 222.14C163.896 222.375 163.892 222.532 163.885 222.613C163.856 223.368 163.617 223.973 163.17 224.428C162.73 224.883 162.107 225.11 161.3 225.11ZM161.3 224.263C161.762 224.263 162.125 224.116 162.389 223.823C162.66 223.53 162.807 223.108 162.829 222.558C162.836 222.485 162.84 222.345 162.84 222.14C162.84 221.935 162.836 221.795 162.829 221.722C162.807 221.172 162.66 220.75 162.389 220.457C162.125 220.164 161.762 220.017 161.3 220.017C160.838 220.017 160.471 220.164 160.2 220.457C159.929 220.75 159.786 221.172 159.771 221.722L159.76 222.14L159.771 222.558C159.786 223.108 159.929 223.53 160.2 223.823C160.471 224.116 160.838 224.263 161.3 224.263ZM165.526 225C165.453 225 165.391 224.978 165.339 224.934C165.295 224.883 165.273 224.82 165.273 224.747V219.544C165.273 219.471 165.295 219.408 165.339 219.357C165.391 219.306 165.453 219.28 165.526 219.28H166.032C166.106 219.28 166.168 219.306 166.219 219.357C166.271 219.408 166.296 219.471 166.296 219.544V220.028C166.597 219.529 167.11 219.28 167.836 219.28H168.265C168.339 219.28 168.397 219.306 168.441 219.357C168.493 219.401 168.518 219.46 168.518 219.533V219.984C168.518 220.057 168.493 220.116 168.441 220.16C168.397 220.204 168.339 220.226 168.265 220.226H167.605C167.209 220.226 166.898 220.343 166.67 220.578C166.443 220.805 166.329 221.117 166.329 221.513V224.747C166.329 224.82 166.304 224.883 166.252 224.934C166.201 224.978 166.139 225 166.065 225H165.526ZM172.591 227.09C172.532 227.09 172.481 227.068 172.437 227.024C172.393 226.98 172.371 226.929 172.371 226.87C172.371 226.819 172.389 226.753 172.426 226.672L173.273 224.659L171.172 219.698C171.135 219.603 171.117 219.54 171.117 219.511C171.117 219.445 171.139 219.39 171.183 219.346C171.227 219.302 171.282 219.28 171.348 219.28H171.887C172.004 219.28 172.092 219.342 172.151 219.467L173.823 223.471L175.539 219.467C175.598 219.342 175.689 219.28 175.814 219.28H176.331C176.397 219.28 176.452 219.302 176.496 219.346C176.54 219.39 176.562 219.441 176.562 219.5C176.562 219.522 176.544 219.588 176.507 219.698L173.383 226.903C173.324 227.028 173.233 227.09 173.108 227.09H172.591ZM179.809 225.11C179.002 225.11 178.375 224.883 177.928 224.428C177.488 223.973 177.253 223.368 177.224 222.613L177.213 222.14L177.224 221.667C177.253 220.919 177.492 220.318 177.939 219.863C178.386 219.401 179.01 219.17 179.809 219.17C180.608 219.17 181.232 219.401 181.679 219.863C182.126 220.318 182.365 220.919 182.394 221.667C182.401 221.748 182.405 221.905 182.405 222.14C182.405 222.375 182.401 222.532 182.394 222.613C182.365 223.368 182.126 223.973 181.679 224.428C181.239 224.883 180.616 225.11 179.809 225.11ZM179.809 224.263C180.271 224.263 180.634 224.116 180.898 223.823C181.169 223.53 181.316 223.108 181.338 222.558C181.345 222.485 181.349 222.345 181.349 222.14C181.349 221.935 181.345 221.795 181.338 221.722C181.316 221.172 181.169 220.75 180.898 220.457C180.634 220.164 180.271 220.017 179.809 220.017C179.347 220.017 178.98 220.164 178.709 220.457C178.438 220.75 178.295 221.172 178.28 221.722L178.269 222.14L178.28 222.558C178.295 223.108 178.438 223.53 178.709 223.823C178.98 224.116 179.347 224.263 179.809 224.263ZM185.916 225.11C185.22 225.11 184.681 224.886 184.299 224.439C183.918 223.984 183.727 223.383 183.727 222.635V219.533C183.727 219.46 183.749 219.401 183.793 219.357C183.845 219.306 183.907 219.28 183.98 219.28H184.53C184.604 219.28 184.662 219.306 184.706 219.357C184.758 219.401 184.783 219.46 184.783 219.533V222.58C184.783 223.673 185.26 224.219 186.213 224.219C186.675 224.219 187.042 224.076 187.313 223.79C187.585 223.497 187.72 223.093 187.72 222.58V219.533C187.72 219.46 187.742 219.401 187.786 219.357C187.838 219.306 187.9 219.28 187.973 219.28H188.523C188.597 219.28 188.655 219.306 188.699 219.357C188.743 219.401 188.765 219.46 188.765 219.533V224.747C188.765 224.82 188.743 224.883 188.699 224.934C188.655 224.978 188.597 225 188.523 225H188.006C187.933 225 187.871 224.978 187.819 224.934C187.775 224.883 187.753 224.82 187.753 224.747V224.263C187.548 224.542 187.299 224.754 187.005 224.901C186.712 225.04 186.349 225.11 185.916 225.11Z" fill="#767E86"/>
<path d="M28.3799 182C28.2299 182 28.1099 181.96 28.0199 181.88C27.9299 181.8 27.8749 181.69 27.8549 181.55L26.0699 171.935L26.0549 171.815C26.0549 171.725 26.0849 171.65 26.1449 171.59C26.2149 171.53 26.2899 171.5 26.3699 171.5H27.6899C27.9399 171.5 28.0799 171.6 28.1099 171.8L29.3549 178.595L30.7049 174.2C30.8049 173.95 30.9699 173.825 31.1999 173.825H32.0099C32.2599 173.825 32.4199 173.95 32.4899 174.2L33.8549 178.58L35.0999 171.8C35.1199 171.69 35.1599 171.615 35.2199 171.575C35.2899 171.525 35.3899 171.5 35.5199 171.5H36.8399C36.9199 171.5 36.9899 171.53 37.0499 171.59C37.1099 171.65 37.1399 171.725 37.1399 171.815C37.1399 171.865 37.1349 171.905 37.1249 171.935L35.3399 181.55C35.2899 181.85 35.1149 182 34.8149 182H33.8099C33.6699 182 33.5549 181.965 33.4649 181.895C33.3749 181.825 33.3149 181.735 33.2849 181.625L31.6049 176.615L29.9249 181.625C29.8249 181.875 29.6449 182 29.3849 182H28.3799ZM41.788 182.15C40.678 182.15 39.793 181.83 39.133 181.19C38.483 180.54 38.138 179.63 38.098 178.46L38.083 178.085L38.098 177.71C38.148 176.57 38.498 175.675 39.148 175.025C39.808 174.375 40.688 174.05 41.788 174.05C42.968 174.05 43.878 174.41 44.518 175.13C45.168 175.85 45.493 176.81 45.493 178.01V178.325C45.493 178.425 45.458 178.51 45.388 178.58C45.318 178.65 45.228 178.685 45.118 178.685H40.138V178.805C40.158 179.355 40.308 179.82 40.588 180.2C40.878 180.57 41.273 180.755 41.773 180.755C42.363 180.755 42.838 180.525 43.198 180.065C43.288 179.955 43.358 179.885 43.408 179.855C43.468 179.825 43.553 179.81 43.663 179.81H44.953C45.043 179.81 45.118 179.84 45.178 179.9C45.248 179.95 45.283 180.015 45.283 180.095C45.283 180.335 45.138 180.62 44.848 180.95C44.568 181.27 44.163 181.55 43.633 181.79C43.103 182.03 42.488 182.15 41.788 182.15ZM43.453 177.425V177.38C43.453 176.79 43.303 176.315 43.003 175.955C42.713 175.595 42.308 175.415 41.788 175.415C41.268 175.415 40.863 175.595 40.573 175.955C40.283 176.315 40.138 176.79 40.138 177.38V177.425H43.453ZM46.7047 174.695C46.6147 174.695 46.5447 174.665 46.4947 174.605C46.4447 174.545 46.4247 174.465 46.4347 174.365L46.8397 171.83C46.8597 171.69 46.9097 171.575 46.9897 171.485C47.0697 171.395 47.1797 171.35 47.3197 171.35H48.6997C48.7697 171.35 48.8297 171.38 48.8797 171.44C48.9397 171.49 48.9697 171.55 48.9697 171.62C48.9697 171.68 48.9547 171.75 48.9247 171.83L47.9647 174.305C47.9047 174.425 47.8397 174.52 47.7697 174.59C47.6997 174.66 47.5997 174.695 47.4697 174.695H46.7047ZM50.7561 182C50.6561 182 50.5711 181.965 50.5011 181.895C50.4311 181.825 50.3961 181.74 50.3961 181.64V171.71C50.3961 171.6 50.4311 171.515 50.5011 171.455C50.5711 171.385 50.6561 171.35 50.7561 171.35H52.0011C52.1111 171.35 52.1961 171.385 52.2561 171.455C52.3261 171.515 52.3611 171.6 52.3611 171.71V181.64C52.3611 181.74 52.3261 181.825 52.2561 181.895C52.1961 181.965 52.1111 182 52.0011 182H50.7561ZM54.7258 182C54.6258 182 54.5408 181.965 54.4708 181.895C54.4008 181.825 54.3658 181.74 54.3658 181.64V171.71C54.3658 171.6 54.4008 171.515 54.4708 171.455C54.5408 171.385 54.6258 171.35 54.7258 171.35H55.9708C56.0808 171.35 56.1658 171.385 56.2258 171.455C56.2958 171.515 56.3308 171.6 56.3308 171.71V181.64C56.3308 181.74 56.2958 181.825 56.2258 181.895C56.1658 181.965 56.0808 182 55.9708 182H54.7258ZM66.0683 182.15C65.0383 182.15 64.2383 181.795 63.6683 181.085V181.64C63.6683 181.74 63.6333 181.825 63.5633 181.895C63.5033 181.965 63.4183 182 63.3083 182H62.1233C62.0233 182 61.9383 181.965 61.8683 181.895C61.7983 181.825 61.7633 181.74 61.7633 181.64V171.71C61.7633 171.6 61.7983 171.515 61.8683 171.455C61.9383 171.385 62.0233 171.35 62.1233 171.35H63.3983C63.5083 171.35 63.5933 171.385 63.6533 171.455C63.7233 171.515 63.7583 171.6 63.7583 171.71V175.04C64.3283 174.38 65.0983 174.05 66.0683 174.05C67.0783 174.05 67.8533 174.38 68.3933 175.04C68.9333 175.7 69.2233 176.555 69.2633 177.605C69.2733 177.725 69.2783 177.885 69.2783 178.085C69.2783 178.295 69.2733 178.46 69.2633 178.58C69.2233 179.66 68.9333 180.525 68.3933 181.175C67.8533 181.825 67.0783 182.15 66.0683 182.15ZM65.5133 180.545C66.5933 180.545 67.1683 179.88 67.2383 178.55C67.2483 178.45 67.2533 178.3 67.2533 178.1C67.2533 177.9 67.2483 177.75 67.2383 177.65C67.1683 176.32 66.5933 175.655 65.5133 175.655C64.9533 175.655 64.5233 175.835 64.2233 176.195C63.9333 176.545 63.7783 176.97 63.7583 177.47L63.7433 178.04L63.7583 178.625C63.7883 179.165 63.9433 179.62 64.2233 179.99C64.5033 180.36 64.9333 180.545 65.5133 180.545ZM74.3075 182.15C73.1975 182.15 72.3125 181.83 71.6525 181.19C71.0025 180.54 70.6575 179.63 70.6175 178.46L70.6025 178.085L70.6175 177.71C70.6675 176.57 71.0175 175.675 71.6675 175.025C72.3275 174.375 73.2075 174.05 74.3075 174.05C75.4875 174.05 76.3975 174.41 77.0375 175.13C77.6875 175.85 78.0125 176.81 78.0125 178.01V178.325C78.0125 178.425 77.9775 178.51 77.9075 178.58C77.8375 178.65 77.7475 178.685 77.6375 178.685H72.6575V178.805C72.6775 179.355 72.8275 179.82 73.1075 180.2C73.3975 180.57 73.7925 180.755 74.2925 180.755C74.8825 180.755 75.3575 180.525 75.7175 180.065C75.8075 179.955 75.8775 179.885 75.9275 179.855C75.9875 179.825 76.0725 179.81 76.1825 179.81H77.4725C77.5625 179.81 77.6375 179.84 77.6975 179.9C77.7675 179.95 77.8025 180.015 77.8025 180.095C77.8025 180.335 77.6575 180.62 77.3675 180.95C77.0875 181.27 76.6825 181.55 76.1525 181.79C75.6225 182.03 75.0075 182.15 74.3075 182.15ZM75.9725 177.425V177.38C75.9725 176.79 75.8225 176.315 75.5225 175.955C75.2325 175.595 74.8275 175.415 74.3075 175.415C73.7875 175.415 73.3825 175.595 73.0925 175.955C72.8025 176.315 72.6575 176.79 72.6575 177.38V177.425H75.9725ZM87.3525 182.15C86.3225 182.15 85.5225 181.795 84.9525 181.085V181.64C84.9525 181.74 84.9175 181.825 84.8475 181.895C84.7875 181.965 84.7025 182 84.5925 182H83.4075C83.3075 182 83.2225 181.965 83.1525 181.895C83.0825 181.825 83.0475 181.74 83.0475 181.64V171.71C83.0475 171.6 83.0825 171.515 83.1525 171.455C83.2225 171.385 83.3075 171.35 83.4075 171.35H84.6825C84.7925 171.35 84.8775 171.385 84.9375 171.455C85.0075 171.515 85.0425 171.6 85.0425 171.71V175.04C85.6125 174.38 86.3825 174.05 87.3525 174.05C88.3625 174.05 89.1375 174.38 89.6775 175.04C90.2175 175.7 90.5075 176.555 90.5475 177.605C90.5575 177.725 90.5625 177.885 90.5625 178.085C90.5625 178.295 90.5575 178.46 90.5475 178.58C90.5075 179.66 90.2175 180.525 89.6775 181.175C89.1375 181.825 88.3625 182.15 87.3525 182.15ZM86.7975 180.545C87.8775 180.545 88.4525 179.88 88.5225 178.55C88.5325 178.45 88.5375 178.3 88.5375 178.1C88.5375 177.9 88.5325 177.75 88.5225 177.65C88.4525 176.32 87.8775 175.655 86.7975 175.655C86.2375 175.655 85.8075 175.835 85.5075 176.195C85.2175 176.545 85.0625 176.97 85.0425 177.47L85.0275 178.04L85.0425 178.625C85.0725 179.165 85.2275 179.62 85.5075 179.99C85.7875 180.36 86.2175 180.545 86.7975 180.545ZM94.4967 182.15C93.9867 182.15 93.5167 182.05 93.0867 181.85C92.6667 181.64 92.3317 181.36 92.0817 181.01C91.8417 180.66 91.7217 180.275 91.7217 179.855C91.7217 179.175 91.9967 178.625 92.5467 178.205C93.0967 177.785 93.8517 177.5 94.8117 177.35L96.8667 177.05V176.735C96.8667 176.295 96.7567 175.965 96.5367 175.745C96.3167 175.525 95.9617 175.415 95.4717 175.415C95.1417 175.415 94.8717 175.48 94.6617 175.61C94.4617 175.73 94.3017 175.85 94.1817 175.97C94.0617 176.1 93.9817 176.185 93.9417 176.225C93.9017 176.345 93.8267 176.405 93.7167 176.405H92.5617C92.4717 176.405 92.3917 176.375 92.3217 176.315C92.2617 176.255 92.2317 176.175 92.2317 176.075C92.2417 175.825 92.3617 175.54 92.5917 175.22C92.8317 174.9 93.1967 174.625 93.6867 174.395C94.1767 174.165 94.7767 174.05 95.4867 174.05C96.6667 174.05 97.5267 174.315 98.0667 174.845C98.6067 175.375 98.8767 176.07 98.8767 176.93V181.64C98.8767 181.74 98.8417 181.825 98.7717 181.895C98.7117 181.965 98.6267 182 98.5167 182H97.3017C97.2017 182 97.1167 181.965 97.0467 181.895C96.9767 181.825 96.9417 181.74 96.9417 181.64V181.055C96.7217 181.375 96.4067 181.64 95.9967 181.85C95.5967 182.05 95.0967 182.15 94.4967 182.15ZM95.0067 180.725C95.5567 180.725 96.0067 180.545 96.3567 180.185C96.7067 179.825 96.8817 179.3 96.8817 178.61V178.295L95.3817 178.535C94.8017 178.625 94.3617 178.77 94.0617 178.97C93.7717 179.17 93.6267 179.415 93.6267 179.705C93.6267 180.025 93.7617 180.275 94.0317 180.455C94.3017 180.635 94.6267 180.725 95.0067 180.725ZM104.176 182.15C103.076 182.15 102.196 181.845 101.536 181.235C100.886 180.625 100.541 179.78 100.501 178.7L100.486 178.1L100.501 177.5C100.541 176.42 100.886 175.575 101.536 174.965C102.196 174.355 103.076 174.05 104.176 174.05C104.956 174.05 105.616 174.19 106.156 174.47C106.706 174.75 107.111 175.095 107.371 175.505C107.641 175.905 107.786 176.285 107.806 176.645C107.816 176.745 107.781 176.83 107.701 176.9C107.631 176.97 107.546 177.005 107.446 177.005H106.126C106.026 177.005 105.946 176.985 105.886 176.945C105.836 176.895 105.786 176.815 105.736 176.705C105.586 176.315 105.386 176.035 105.136 175.865C104.896 175.695 104.586 175.61 104.206 175.61C103.696 175.61 103.296 175.775 103.006 176.105C102.716 176.425 102.561 176.915 102.541 177.575L102.526 178.13L102.541 178.625C102.581 179.935 103.136 180.59 104.206 180.59C104.596 180.59 104.911 180.505 105.151 180.335C105.391 180.165 105.586 179.885 105.736 179.495C105.786 179.385 105.836 179.31 105.886 179.27C105.946 179.22 106.026 179.195 106.126 179.195H107.446C107.546 179.195 107.631 179.23 107.701 179.3C107.781 179.37 107.816 179.455 107.806 179.555C107.786 179.905 107.646 180.28 107.386 180.68C107.126 181.08 106.726 181.425 106.186 181.715C105.646 182.005 104.976 182.15 104.176 182.15ZM109.745 182C109.645 182 109.56 181.965 109.49 181.895C109.42 181.825 109.385 181.74 109.385 181.64V171.71C109.385 171.6 109.42 171.515 109.49 171.455C109.56 171.385 109.645 171.35 109.745 171.35H110.96C111.07 171.35 111.155 171.385 111.215 171.455C111.285 171.515 111.32 171.6 111.32 171.71V176.84L113.84 174.455C113.87 174.435 113.92 174.395 113.99 174.335C114.05 174.285 114.11 174.25 114.17 174.23C114.23 174.21 114.305 174.2 114.395 174.2H115.79C115.89 174.2 115.97 174.23 116.03 174.29C116.09 174.35 116.12 174.43 116.12 174.53C116.12 174.62 116.07 174.71 115.97 174.8L112.88 177.695L116.345 181.415C116.445 181.515 116.495 181.6 116.495 181.67C116.495 181.77 116.46 181.85 116.39 181.91C116.33 181.97 116.255 182 116.165 182H114.74C114.6 182 114.495 181.985 114.425 181.955C114.365 181.915 114.285 181.845 114.185 181.745L111.32 178.73V181.64C111.32 181.74 111.285 181.825 111.215 181.895C111.155 181.965 111.07 182 110.96 182H109.745ZM123.898 182.15C123.148 182.15 122.518 182.04 122.008 181.82C121.498 181.59 121.118 181.325 120.868 181.025C120.628 180.715 120.508 180.45 120.508 180.23C120.508 180.13 120.543 180.05 120.613 179.99C120.683 179.93 120.763 179.9 120.853 179.9H122.038C122.128 179.9 122.203 179.935 122.263 180.005C122.303 180.035 122.408 180.125 122.578 180.275C122.748 180.435 122.948 180.56 123.178 180.65C123.408 180.74 123.663 180.785 123.943 180.785C124.343 180.785 124.673 180.705 124.933 180.545C125.193 180.385 125.323 180.165 125.323 179.885C125.323 179.675 125.263 179.505 125.143 179.375C125.033 179.245 124.828 179.13 124.528 179.03C124.228 178.92 123.783 178.805 123.193 178.685C122.343 178.505 121.713 178.23 121.303 177.86C120.903 177.49 120.703 177 120.703 176.39C120.703 175.99 120.823 175.615 121.063 175.265C121.303 174.905 121.658 174.615 122.128 174.395C122.608 174.165 123.178 174.05 123.838 174.05C124.508 174.05 125.088 174.16 125.578 174.38C126.068 174.59 126.438 174.845 126.688 175.145C126.948 175.435 127.078 175.695 127.078 175.925C127.078 176.015 127.043 176.095 126.973 176.165C126.913 176.225 126.838 176.255 126.748 176.255H125.638C125.558 176.255 125.473 176.22 125.383 176.15C125.313 176.1 125.203 176.005 125.053 175.865C124.903 175.725 124.728 175.615 124.528 175.535C124.328 175.455 124.093 175.415 123.823 175.415C123.453 175.415 123.163 175.495 122.953 175.655C122.753 175.815 122.653 176.025 122.653 176.285C122.653 176.475 122.703 176.63 122.803 176.75C122.903 176.87 123.098 176.985 123.388 177.095C123.678 177.205 124.113 177.315 124.693 177.425C125.653 177.615 126.338 177.91 126.748 178.31C127.168 178.71 127.378 179.2 127.378 179.78C127.378 180.48 127.073 181.05 126.463 181.49C125.853 181.93 124.998 182.15 123.898 182.15ZM129.301 182C129.201 182 129.116 181.965 129.046 181.895C128.976 181.825 128.941 181.74 128.941 181.64V171.71C128.941 171.6 128.976 171.515 129.046 171.455C129.116 171.385 129.201 171.35 129.301 171.35H130.636C130.746 171.35 130.831 171.385 130.891 171.455C130.961 171.515 130.996 171.6 130.996 171.71V175.13C131.596 174.41 132.406 174.05 133.426 174.05C134.346 174.05 135.081 174.355 135.631 174.965C136.181 175.565 136.456 176.385 136.456 177.425V181.64C136.456 181.74 136.421 181.825 136.351 181.895C136.291 181.965 136.206 182 136.096 182H134.746C134.646 182 134.561 181.965 134.491 181.895C134.421 181.825 134.386 181.74 134.386 181.64V177.515C134.386 176.925 134.241 176.47 133.951 176.15C133.671 175.82 133.261 175.655 132.721 175.655C132.191 175.655 131.771 175.82 131.461 176.15C131.151 176.48 130.996 176.935 130.996 177.515V181.64C130.996 181.74 130.961 181.825 130.891 181.895C130.831 181.965 130.746 182 130.636 182H129.301ZM141.81 182.15C140.64 182.15 139.735 181.85 139.095 181.25C138.455 180.64 138.11 179.81 138.06 178.76L138.045 178.1L138.06 177.44C138.11 176.4 138.46 175.575 139.11 174.965C139.76 174.355 140.66 174.05 141.81 174.05C142.96 174.05 143.86 174.355 144.51 174.965C145.16 175.575 145.51 176.4 145.56 177.44C145.57 177.56 145.575 177.78 145.575 178.1C145.575 178.42 145.57 178.64 145.56 178.76C145.51 179.81 145.165 180.64 144.525 181.25C143.885 181.85 142.98 182.15 141.81 182.15ZM141.81 180.665C142.34 180.665 142.75 180.5 143.04 180.17C143.33 179.83 143.49 179.335 143.52 178.685C143.53 178.585 143.535 178.39 143.535 178.1C143.535 177.81 143.53 177.615 143.52 177.515C143.49 176.865 143.33 176.375 143.04 176.045C142.75 175.705 142.34 175.535 141.81 175.535C141.28 175.535 140.87 175.705 140.58 176.045C140.29 176.375 140.13 176.865 140.1 177.515L140.085 178.1L140.1 178.685C140.13 179.335 140.29 179.83 140.58 180.17C140.87 180.5 141.28 180.665 141.81 180.665ZM147.597 182C147.497 182 147.412 181.965 147.342 181.895C147.272 181.825 147.237 181.74 147.237 181.64V174.575C147.237 174.475 147.272 174.39 147.342 174.32C147.412 174.24 147.497 174.2 147.597 174.2H148.812C148.922 174.2 149.012 174.235 149.082 174.305C149.152 174.375 149.187 174.465 149.187 174.575V175.19C149.427 174.87 149.727 174.625 150.087 174.455C150.457 174.285 150.877 174.2 151.347 174.2H151.962C152.072 174.2 152.157 174.235 152.217 174.305C152.287 174.365 152.322 174.45 152.322 174.56V175.64C152.322 175.74 152.287 175.825 152.217 175.895C152.157 175.965 152.072 176 151.962 176H150.792C150.322 176 149.952 176.135 149.682 176.405C149.412 176.675 149.277 177.045 149.277 177.515V181.64C149.277 181.74 149.242 181.825 149.172 181.895C149.102 181.965 149.012 182 148.902 182H147.597ZM157.016 182C156.106 182 155.421 181.765 154.961 181.295C154.511 180.815 154.286 180.115 154.286 179.195V175.79H153.101C153.001 175.79 152.916 175.755 152.846 175.685C152.776 175.605 152.741 175.515 152.741 175.415V174.56C152.741 174.46 152.776 174.375 152.846 174.305C152.916 174.235 153.001 174.2 153.101 174.2H154.286V171.71C154.286 171.6 154.321 171.515 154.391 171.455C154.461 171.385 154.546 171.35 154.646 171.35H155.861C155.971 171.35 156.056 171.385 156.116 171.455C156.186 171.515 156.221 171.6 156.221 171.71V174.2H158.096C158.206 174.2 158.291 174.235 158.351 174.305C158.421 174.365 158.456 174.45 158.456 174.56V175.415C158.456 175.525 158.421 175.615 158.351 175.685C158.281 175.755 158.196 175.79 158.096 175.79H156.221V179.045C156.221 179.475 156.296 179.8 156.446 180.02C156.596 180.24 156.846 180.35 157.196 180.35H158.231C158.331 180.35 158.416 180.385 158.486 180.455C158.556 180.525 158.591 180.61 158.591 180.71V181.64C158.591 181.74 158.556 181.825 158.486 181.895C158.426 181.965 158.341 182 158.231 182H157.016ZM160.297 182C160.197 182 160.112 181.965 160.042 181.895C159.972 181.825 159.937 181.74 159.937 181.64V171.71C159.937 171.6 159.972 171.515 160.042 171.455C160.112 171.385 160.197 171.35 160.297 171.35H161.542C161.652 171.35 161.737 171.385 161.797 171.455C161.867 171.515 161.902 171.6 161.902 171.71V181.64C161.902 181.74 161.867 181.825 161.797 181.895C161.737 181.965 161.652 182 161.542 182H160.297ZM165.302 184.85C165.222 184.85 165.152 184.82 165.092 184.76C165.032 184.7 165.002 184.63 165.002 184.55C165.002 184.46 165.022 184.38 165.062 184.31L166.232 181.535L163.352 174.74C163.312 174.65 163.292 174.58 163.292 174.53C163.302 174.44 163.337 174.365 163.397 174.305C163.457 174.235 163.532 174.2 163.622 174.2H164.837C165.027 174.2 165.162 174.295 165.242 174.485L167.237 179.39L169.292 174.485C169.372 174.295 169.507 174.2 169.697 174.2H170.897C170.977 174.2 171.047 174.23 171.107 174.29C171.177 174.35 171.212 174.42 171.212 174.5C171.212 174.57 171.192 174.65 171.152 174.74L166.907 184.565C166.817 184.755 166.677 184.85 166.487 184.85H165.302Z" fill="#160D2E"/>
<path d="M61.579 78.1603C61.5351 78.0189 57.1779 63.9167 55.5516 57.0532C49.8878 33.1486 40.8271 27.5674 40.7365 27.5135L41.101 26.9019C41.4823 27.1245 50.5021 32.6352 56.2491 56.8904C57.8696 63.7314 62.2203 77.8107 62.2637 77.952L61.579 78.1603Z" fill="#C6C5E8"/>
<path d="M38.6338 22.6145C32.9575 25.4519 46.2814 33.4532 46.2814 33.4532C46.2814 33.4532 46.1233 18.871 38.6338 22.6145Z" fill="#C6C5E8"/>
<path d="M41.6759 41.0965C40.9154 45.4135 50.947 41.3667 50.947 41.3667C50.947 41.3667 42.6791 35.4007 41.6759 41.0965Z" fill="#C6C5E8"/>
<path d="M55.3094 33.7738C51.9915 30.8787 50.241 41.4761 50.241 41.4761C50.241 41.4761 59.6869 37.5936 55.3094 33.7738Z" fill="#C6C5E8"/>
<path d="M49.0429 64.7517C48.2826 69.0687 58.3142 65.022 58.3142 65.022C58.3142 65.022 50.0463 59.0562 49.0429 64.7517Z" fill="#C6C5E8"/>
<path d="M62.6764 57.4292C59.3587 54.5339 57.608 65.1313 57.608 65.1313C57.608 65.1313 67.0539 61.2489 62.6764 57.4292Z" fill="#C6C5E8"/>
<path d="M41.86 52.8855C40.2903 59.1766 55.509 54.2295 55.509 54.2295C55.509 54.2295 43.9307 44.5852 41.86 52.8855Z" fill="#C6C5E8"/>
<path d="M62.1034 45.0321C58.1896 41.0949 55.0311 54.2743 55.0311 54.2743C55.0311 54.2743 67.2671 50.2269 62.1034 45.0321Z" fill="#C6C5E8"/>
<path d="M186.828 80.0369C175.706 75.8971 167.572 102.143 168.497 103.662C169.931 101.495 172.041 98.3158 175.134 93.6675C180.327 85.8644 184.409 81.9304 186.828 80.0369Z" fill="#5F40AF"/>
<path d="M175.521 93.8697C172.502 98.4067 170.421 101.542 168.989 103.704C172.708 102.746 195.722 86.8324 189.749 81.8053C188.915 81.1036 188.095 80.588 187.289 80.2292C184.922 82.0595 180.768 85.9836 175.521 93.8697Z" fill="#A998D2"/>
<path d="M168.989 103.704C170.421 101.542 172.501 98.4067 175.52 93.8697C180.768 85.9836 184.921 82.0595 187.289 80.2293C187.134 80.1606 186.98 80.0937 186.827 80.0369C184.408 81.9304 180.326 85.8644 175.133 93.6675C172.04 98.3158 169.931 101.495 168.496 103.662C168.508 103.682 168.521 103.702 168.536 103.713C168.611 103.768 168.767 103.761 168.989 103.704Z" fill="white"/>
<path d="M171.224 103.074C177.337 99.9804 187.345 95.6671 190.876 94.1613C185.58 86.7558 172.254 100.771 171.224 103.074Z" fill="#5F40AF"/>
<path d="M191.351 94.9225C191.258 94.7509 191.161 94.59 191.061 94.4354C187.536 95.9382 177.363 100.321 171.262 103.42C172.93 104.178 195.207 102.024 191.351 94.9225Z" fill="#A998D2"/>
<path d="M171.17 103.352C171.184 103.377 171.217 103.4 171.263 103.42C177.364 100.321 187.537 95.9382 191.062 94.4354C191.001 94.3408 190.939 94.2495 190.876 94.1613C187.345 95.6671 177.337 99.9804 171.224 103.074C171.164 103.207 171.143 103.304 171.17 103.352Z" fill="white"/>
<path d="M171.945 56.375C171.405 58.1375 170.811 60.0349 170.184 62.0369C169.587 63.9448 168.954 65.9707 168.308 68.0653L159.042 58.4223C159.441 52.6296 158.074 46.557 158.223 42.584C158.253 41.7838 158.483 40.3465 158.987 38.6904L173.218 47.8695C173.156 50.7294 172.787 53.6307 171.945 56.375Z" fill="#DFD8EF"/>
<path d="M170.956 28.7015C177.968 29.2005 181.62 33.8424 183.429 39.3675L174.119 46.7209C174.071 38.8526 171.899 31.5193 170.956 28.7015Z" fill="#DFD8EF"/>
<path d="M171.04 62.3006C171.667 60.2969 172.262 58.3982 172.803 56.6334C173.672 53.8003 174.049 50.8089 174.111 47.8641L183.71 40.2825C184.453 42.8677 184.824 45.6006 184.968 48.1643C185.209 52.4595 183.872 57.2676 182.231 61.8554C177.178 63.6887 171.512 66.7341 169.272 67.9818C169.88 66.0107 170.476 64.1028 171.04 62.3006Z" fill="#DFD8EF"/>
<path d="M173.225 46.8144L159.275 37.8152C160.726 33.6614 163.85 28.6478 169.702 28.6528C169.802 28.6528 169.897 28.6598 169.996 28.6616C170.85 31.1468 173.195 38.7123 173.225 46.8144Z" fill="#DFD8EF"/>
<path d="M161.917 91.3242C160.094 88.3071 154.399 78.8022 151.627 73.2696C153.654 70.9023 155.631 68.7279 157.144 65.8311C158.151 63.9041 158.681 61.7807 158.929 59.5946L168.008 69.0416C165.868 76.0195 163.607 83.7969 161.917 91.3242Z" fill="#DFD8EF"/>
<path d="M143.463 88.7991C145.183 81.5015 148.097 77.462 150.998 74.0106C154.22 80.3691 160.771 91.1655 161.641 92.5958C160.751 96.7075 160.044 100.723 159.637 104.47C151.702 104.495 144.485 104.45 144.088 104.465C143.198 104.5 140.414 101.737 143.463 88.7991Z" fill="#F5CE64"/>
<path d="M168.891 69.2182C169.936 68.6237 176.214 65.0988 181.833 62.9526C179.935 68.0801 177.778 72.8517 177.172 76.2055C176.398 80.488 176.579 83.1559 177.425 85.6894C173.073 89.019 165.102 91.2718 162.709 91.8956C164.407 84.2514 166.713 76.3192 168.891 69.2182Z" fill="#DFD8EF"/>
<path d="M177.743 86.5559C178.207 87.7323 178.805 88.9157 179.516 90.257C181.926 94.8032 181.358 102.892 180.837 103.796C180.556 104.283 170.192 104.429 160.54 104.466C160.942 100.806 161.632 96.8861 162.5 92.8685C164.226 92.4421 172.829 90.1907 177.743 86.5559Z" fill="#DFD8EF"/>
<path d="M168.308 68.0653C168.954 65.9706 169.587 63.9448 170.184 62.0369C170.811 60.0349 171.404 58.1375 171.945 56.375C172.786 53.6307 173.156 50.7294 173.218 47.8695L173.705 48.1839L174.11 47.8639C174.049 50.8088 173.671 53.8001 172.803 56.6332C172.262 58.3981 171.667 60.2967 171.04 62.3005C170.476 64.1026 169.88 66.0105 169.271 67.9817C168.997 68.1344 168.757 68.2695 168.593 68.3622L168.308 68.0653Z" fill="white"/>
<path d="M174.119 46.7208L173.652 47.0895L173.225 46.8143C173.194 38.7122 170.849 31.1467 169.996 28.6615C170.322 28.6669 170.642 28.6793 170.955 28.7014C171.898 31.5193 174.07 38.8525 174.119 46.7208Z" fill="white"/>
<path d="M161.917 91.3241C163.607 83.7968 165.868 76.0194 168.008 69.0416L168.432 69.4827L168.737 69.3058C168.744 69.3017 168.799 69.2706 168.891 69.2181C166.712 76.3191 164.407 84.2513 162.708 91.8955C162.56 91.9341 162.426 91.9688 162.323 91.9948C162.226 91.8352 162.086 91.6045 161.917 91.3241Z" fill="white"/>
<path d="M161.726 92.7354L161.895 93.0125L162.213 92.9378C162.254 92.9282 162.352 92.905 162.499 92.8686C161.631 96.8861 160.942 100.806 160.54 104.466C160.238 104.468 159.937 104.469 159.637 104.47C160.043 100.723 160.751 96.7075 161.641 92.5958C161.68 92.6599 161.711 92.7103 161.726 92.7354Z" fill="white"/>
<path d="M173.218 47.8696L158.987 38.6905C159.074 38.4048 159.171 38.1119 159.275 37.8153L173.225 46.8145C173.227 47.1653 173.226 47.5168 173.218 47.8696Z" fill="white"/>
<path d="M174.119 46.7209L183.429 39.3675C183.528 39.6701 183.622 39.9749 183.71 40.2824L174.111 47.864C174.119 47.482 174.121 47.1007 174.119 46.7209Z" fill="white"/>
<path d="M173.218 47.8697C173.225 47.5169 173.226 47.1654 173.225 46.8145L173.652 47.0896L174.119 46.721C174.121 47.1008 174.118 47.4821 174.11 47.8641L173.705 48.1841L173.218 47.8697Z" fill="white"/>
<path d="M168.008 69.0417L158.929 59.5947C158.974 59.2054 159.015 58.8151 159.042 58.4224L168.308 68.0654C168.208 68.3906 168.109 68.7129 168.008 69.0417Z" fill="white"/>
<path d="M169.271 67.9818C171.512 66.7341 177.178 63.6887 182.231 61.8554C182.099 62.2226 181.967 62.5887 181.833 62.9526C176.214 65.0988 169.936 68.6237 168.891 69.2182C169.019 68.8022 169.145 68.3919 169.271 67.9818Z" fill="white"/>
<path d="M168.432 69.4829L168.008 69.0417C168.108 68.7129 168.208 68.3906 168.308 68.0655L168.593 68.3623C168.757 68.2696 168.997 68.1345 169.271 67.9818C169.145 68.3919 169.018 68.8022 168.891 69.2182C168.799 69.2708 168.744 69.3019 168.737 69.3059L168.432 69.4829Z" fill="white"/>
<path d="M162.709 91.8955C165.102 91.2716 173.073 89.0188 177.425 85.6892C177.522 85.979 177.629 86.2677 177.743 86.5559C172.829 90.1907 164.226 92.4421 162.5 92.8685C162.569 92.544 162.636 92.2212 162.709 91.8955Z" fill="white"/>
<path d="M161.641 92.5958C160.77 91.1655 154.22 80.3691 150.998 74.0106C151.208 73.7608 151.418 73.5146 151.627 73.2697C154.399 78.8022 160.094 88.3071 161.917 91.3242C161.821 91.75 161.733 92.1718 161.641 92.5958Z" fill="white"/>
<path d="M162.323 91.9948C162.426 91.9688 162.561 91.9341 162.709 91.8955C162.637 92.2213 162.57 92.544 162.5 92.8685C162.352 92.905 162.254 92.9281 162.214 92.9378L161.895 93.0124L161.727 92.7353C161.711 92.7103 161.681 92.6599 161.642 92.5957C161.734 92.1717 161.821 91.7499 161.917 91.3242C162.087 91.6045 162.226 91.8352 162.323 91.9948Z" fill="white"/>
<path d="M156.206 101.258L155.613 100.662C155.701 100.576 164.465 91.8624 171.656 72.9062C178.917 53.7609 191.07 41.5226 191.192 41.401L191.791 41.9921C191.67 42.1122 179.641 54.2321 172.446 73.2007C165.184 92.3469 156.295 101.171 156.206 101.258Z" fill="#C6C5E8"/>
<path d="M193.82 39.5798C198.144 42.4933 186.419 47.6104 186.419 47.6104C186.419 47.6104 188.115 35.7361 193.82 39.5798Z" fill="#C6C5E8"/>
<path d="M189.809 53.627C189.965 57.2275 182.22 52.868 182.22 52.868C182.22 52.868 189.603 48.8763 189.809 53.627Z" fill="#C6C5E8"/>
<path d="M179.478 46.2156C182.495 44.2052 182.784 53.0316 182.784 53.0316C182.784 53.0316 175.498 48.8679 179.478 46.2156Z" fill="#C6C5E8"/>
<path d="M186.827 65.0439C187.431 70.3395 175.553 64.6978 175.553 64.6978C175.553 64.6978 186.03 58.0567 186.827 65.0439Z" fill="#C6C5E8"/>
<path d="M183.505 74.2682C184.145 79.8814 171.555 73.9017 171.555 73.9017C171.555 73.9017 182.66 66.8623 183.505 74.2682Z" fill="#C6C5E8"/>
<path d="M178.367 84.8266C178.978 90.1857 166.958 84.4766 166.958 84.4766C166.958 84.4766 177.561 77.7561 178.367 84.8266Z" fill="#C6C5E8"/>
<path d="M171.661 93.4873C173.239 98.6484 160.376 95.1869 160.376 95.1869C160.376 95.1869 169.579 86.6776 171.661 93.4873Z" fill="#C6C5E8"/>
<path d="M170.922 56.8065C174.536 54.0094 175.696 65.09 175.696 65.09C175.696 65.09 166.153 60.497 170.922 56.8065Z" fill="#C6C5E8"/>
<path d="M164.823 67.5154C167.307 63.6945 172.081 73.7789 172.081 73.7789C172.081 73.7789 161.545 72.5569 164.823 67.5154Z" fill="#C6C5E8"/>
<path d="M161.174 76.8887C164.329 73.5902 167.136 84.3774 167.136 84.3774C167.136 84.3774 157.011 81.2405 161.174 76.8887Z" fill="#C6C5E8"/>
<path d="M157.907 85.9551C162.046 83.9987 160.762 95.066 160.762 95.066C160.762 95.066 152.446 88.5362 157.907 85.9551Z" fill="#E3671A"/>
<path d="M8.53684 62.3071C23.8449 49.7021 50.6223 91.9465 49.9758 95.0601C46.5638 91.9379 41.5494 87.3587 34.2052 80.6686C21.8753 69.4377 13.3538 64.4773 8.53684 62.3071Z" fill="#DFD8EF"/>
<path d="M33.704 81.2097C40.873 87.7397 45.8176 92.2544 49.2225 95.3696C42.8574 95.4669 -1.85066 78.5147 4.87843 66.8156C5.81752 65.1829 6.83493 63.8832 7.91284 62.8664C12.6151 64.9504 21.2435 69.8593 33.704 81.2097Z" fill="#A998D2"/>
<path d="M49.2216 95.3695C45.8167 92.2544 40.8721 87.7397 33.7031 81.2097C21.2426 69.8593 12.6142 64.9504 7.91193 62.8664C8.11825 62.6719 8.32553 62.4808 8.53632 62.3073C13.3533 64.4775 21.8748 69.4379 34.2047 80.6688C41.5489 87.3588 46.5633 91.9381 49.9753 95.0603C49.9669 95.1012 49.958 95.1418 49.9396 95.1688C49.8516 95.3007 49.6009 95.3637 49.2216 95.3695Z" fill="white"/>
<path d="M45.3686 95.333C34.0961 92.8223 16.0417 90.0329 9.6803 89.0773C14.0778 73.5216 42.5202 91.7784 45.3686 95.333Z" fill="#DFD8EF"/>
<path d="M9.33627 90.6437C9.39177 90.2974 9.45953 89.9679 9.53413 89.6482C15.8848 90.6017 34.2363 93.4341 45.4923 95.9605C43.2694 98.0919 7.0451 104.976 9.33627 90.6437Z" fill="#A998D2"/>
<path d="M45.6017 95.7956C45.5935 95.8465 45.5526 95.902 45.4916 95.9606C34.2356 93.4342 15.8842 90.6017 9.53352 89.6482C9.57899 89.453 9.628 89.2628 9.68054 89.0773C16.0419 90.033 34.0964 92.8223 45.3688 95.333C45.5334 95.5385 45.6177 95.6978 45.6017 95.7956Z" fill="white"/>
<path d="M43.9181 87.473C40.55 76.5147 34.0751 59.5725 31.7699 53.6159C47.5821 49.721 45.6274 83.2611 43.9181 87.473Z" fill="#DFD8EF"/>
<path d="M30.2261 54.093C30.5572 53.9695 30.8795 53.8653 31.1966 53.7716C33.4985 59.7174 40.0822 76.9373 43.4287 87.889C40.4614 87.026 16.5277 59.199 30.2261 54.093Z" fill="#A998D2"/>
<path d="M43.6277 87.9024C43.5793 87.9204 43.5103 87.9125 43.429 87.8889C40.0825 76.9372 33.4988 59.7173 31.1968 53.7714C31.3906 53.7142 31.5816 53.6625 31.7702 53.6159C34.0755 59.5725 40.5503 76.5147 43.9184 87.473C43.8196 87.7162 43.7216 87.8679 43.6277 87.9024Z" fill="white"/>
<path d="M48.0623 78.809C48.0563 78.8088 48.0504 78.8086 48.0444 78.8086C43.4971 78.6994 39.8087 79.9787 37.0821 82.6104C33.4084 86.1568 32.1792 91.4198 31.7892 95.1599C32.8696 95.1892 34.0307 95.2137 35.2518 95.2343C35.7298 92.7192 36.7648 89.7817 38.9844 87.639C41.0846 85.6112 43.903 84.6255 47.3607 84.7085C47.3654 84.7085 47.3702 84.7087 47.3743 84.7087C53.2576 84.8531 57.4541 86.9902 59.8485 91.0612C60.6628 92.4454 61.1503 93.8866 61.4382 95.192C63.4804 95.1601 65.4179 95.123 67.1969 95.0812C66.9166 92.4917 66.0359 88.7954 63.584 85.5788C60.291 81.2586 55.0686 78.9808 48.0623 78.809Z" fill="#C6C5E8"/>
<path d="M48.4723 64.7703C22.7285 64.153 23.5617 92.997 23.5258 94.4363C23.5197 94.6707 24.9405 94.8504 27.3139 94.9847C27.5334 90.2164 28.7719 81.6054 34.5131 76.063C38.181 72.5226 43.112 70.8008 49.1692 70.9463C49.1772 70.9465 49.1857 70.9467 49.1932 70.9469C59.5369 71.2004 66.9088 74.9456 71.107 82.0794C73.8958 86.8184 74.5488 91.9221 74.5834 94.836C76.3066 94.7488 77.3312 94.6552 77.3829 94.56C77.7633 93.8523 79.5594 65.516 48.4723 64.7703Z" fill="#C6C5E8"/>
<path d="M36.4073 81.9231C39.3271 79.104 43.2506 77.734 48.0676 77.8491C48.0739 77.8494 48.081 77.8496 48.0871 77.8496C56.3031 78.051 62.1609 81.029 65.4985 86.7023C67.2202 89.6282 67.9103 92.7269 68.1461 95.0583C70.2755 95.0047 72.1412 94.9451 73.6269 94.8807C73.5806 91.86 72.8545 85.8086 69.0143 80.6707C64.8325 75.0757 58.1554 72.1268 49.1694 71.9065C49.162 71.9063 49.1545 71.9061 49.1469 71.9059C43.3592 71.7671 38.6633 73.3975 35.1892 76.7511C29.6803 82.0688 28.4922 90.4093 28.2815 95.0345C29.0534 95.0708 29.9024 95.1034 30.8195 95.1319C31.2194 91.2365 32.5044 85.6904 36.4073 81.9231Z" fill="#C6C5E8"/>
<path d="M58.1696 90.3065C55.8553 87.3481 52.2151 85.7877 47.3503 85.6687C47.3456 85.6684 47.3417 85.6684 47.3374 85.6682C44.1494 85.5919 41.5661 86.4864 39.6592 88.327C37.6577 90.2593 36.6932 92.9225 36.2321 95.2497C43.4688 95.355 52.6233 95.3209 60.4632 95.2068C60.092 93.6573 59.4101 91.8909 58.1696 90.3065Z" fill="#9B98D4"/>
<path d="M49.1932 70.947C49.1856 70.9467 49.1772 70.9465 49.1692 70.9463C43.1119 70.8009 38.1809 72.5226 34.5131 76.063C28.7718 81.6055 27.5334 90.2165 27.3138 94.9847C27.621 95.0021 27.9426 95.0186 28.2809 95.0345C28.4915 90.4093 29.6796 82.0687 35.1886 76.751C38.6626 73.3974 43.3585 71.7671 49.1462 71.9058C49.1538 71.9061 49.1614 71.9063 49.1687 71.9065C58.1548 72.1267 64.8319 75.0756 69.0137 80.6706C72.8539 85.8086 73.58 91.8599 73.6263 94.8807C73.9669 94.8659 74.2838 94.8511 74.5834 94.8361C74.5488 91.9221 73.8958 86.8185 71.1069 82.0794C66.9087 74.9457 59.5369 71.2005 49.1932 70.947Z" fill="#9B98D4"/>
<path d="M37.0818 82.6105C39.8084 79.9788 43.4968 78.6995 48.0441 78.8086L48.0558 78.3289L48.0441 78.8086C48.0502 78.8086 48.056 78.8089 48.0621 78.8091C55.0684 78.9809 60.2907 81.2587 63.5838 85.5789C66.0357 88.7955 66.9164 92.4918 67.1967 95.0812C67.5183 95.0737 67.8348 95.066 68.1456 95.0583C67.9098 92.7268 67.2196 89.6282 65.498 86.7023C62.1604 81.029 56.3026 78.0509 48.0865 77.8496C48.0805 77.8496 48.0733 77.8493 48.067 77.8491C43.25 77.734 39.3265 79.104 36.4068 81.9231C32.5038 85.6904 31.2188 91.2365 30.8189 95.1318C31.1349 95.1417 31.4576 95.1509 31.789 95.1599C32.179 91.4199 33.4081 86.1569 37.0818 82.6105Z" fill="#9B98D4"/>
<path d="M47.3746 84.7087C47.3705 84.7087 47.3657 84.7085 47.361 84.7085L47.3495 85.1883L47.361 84.7085C43.9033 84.6255 41.0848 85.6112 38.9847 87.639C36.7651 89.7817 35.7301 92.7192 35.2521 95.2343C35.575 95.2399 35.9012 95.2448 36.2326 95.2495C36.6937 92.9223 37.6581 90.2591 39.6597 88.3268C41.5665 86.4862 44.1499 85.5917 47.3378 85.668C47.3421 85.6683 47.346 85.6683 47.3508 85.6685C52.2156 85.7875 55.8558 87.3479 58.1701 90.3063C59.4105 91.8908 60.0925 93.6571 60.4637 95.2066C60.7907 95.2021 61.1164 95.197 61.4385 95.192C61.1506 93.8866 60.6631 92.4454 59.8487 91.0612C57.4544 86.9902 53.2579 84.8531 47.3746 84.7087Z" fill="#9B98D4"/>
<path d="M36.4416 96.1447C36.4453 96.1447 36.4487 96.1447 36.4522 96.1449C39.1217 96.173 41.2586 96.9983 42.8034 98.5971C44.8847 100.751 45.4971 103.863 45.6489 106.065C45.0145 106.06 44.333 106.051 43.6162 106.038C43.388 104.553 42.8414 102.809 41.5839 101.508C40.3939 100.276 38.7613 99.6405 36.7314 99.6191C36.7288 99.6191 36.726 99.6188 36.7234 99.6188C33.2701 99.5843 30.7646 100.753 29.2765 103.092C28.7704 103.887 28.4546 104.722 28.2587 105.482C27.0615 105.422 25.926 105.361 24.8837 105.3C25.1015 103.787 25.6943 101.637 27.1986 99.8005C29.2192 97.3335 32.329 96.1035 36.4416 96.1447Z" fill="#DFD8EF"/>
<path d="M36.4906 87.9028C51.6022 88.0628 50.5186 104.963 50.51 105.808C50.5087 105.945 49.6716 106.022 48.277 106.053C48.2467 103.252 47.6975 98.1762 44.4447 94.8091C42.3666 92.658 39.51 91.5485 35.9547 91.5108C35.9499 91.5108 35.9449 91.5108 35.9404 91.5108C29.8687 91.4497 25.4676 93.4967 22.8582 97.5956C21.1249 100.318 20.6365 103.298 20.5563 105.007C19.5473 104.921 18.9484 104.845 18.9202 104.788C18.7115 104.365 18.2426 87.7096 36.4906 87.9028Z" fill="#DFD8EF"/>
<path d="M43.2134 98.2074C41.5592 96.4949 39.2862 95.6117 36.4586 95.5815C36.4549 95.5815 36.4506 95.5815 36.4471 95.5815C31.6243 95.533 28.1273 97.1608 26.0526 100.42C24.9824 102.102 24.5137 103.905 24.3275 105.268C23.0797 105.193 21.9866 105.12 21.1166 105.052C21.206 103.282 21.7569 99.7473 24.1151 96.8117C26.6831 93.6148 30.6601 92.0209 35.935 92.0739C35.9393 92.0739 35.9438 92.0739 35.9482 92.0741C39.3457 92.1101 42.066 93.1615 44.0344 95.1987C47.1559 98.4296 47.6806 103.345 47.7085 106.062C47.2552 106.068 46.7567 106.07 46.2181 106.068C46.0641 103.775 45.4247 100.496 43.2134 98.2074Z" fill="#DFD8EF"/>
<path d="M30.277 102.683C31.6952 100.995 33.8626 100.154 36.7183 100.182C36.7211 100.182 36.7233 100.182 36.7259 100.182C38.597 100.202 40.0938 100.779 41.1741 101.897C42.3086 103.071 42.8192 104.653 43.0416 106.027C38.7949 105.942 33.4266 105.736 28.8308 105.511C29.0804 104.609 29.5169 103.587 30.277 102.683Z" fill="#DFD8EF"/>
<path d="M35.9409 91.5107C35.9455 91.5107 35.9504 91.5107 35.9552 91.5107C39.5106 91.5485 42.3671 92.6579 44.4453 94.809C47.6981 98.1761 48.2472 103.252 48.2775 106.053C48.0969 106.057 47.9081 106.06 47.7091 106.062C47.6812 103.345 47.1565 98.4296 44.035 95.1987C42.0665 93.1615 39.3462 92.1102 35.9487 92.0741C35.9444 92.0739 35.9398 92.0739 35.9355 92.0739C30.6606 92.0209 26.6837 93.6148 24.1156 96.8117C21.7574 99.7473 21.2065 103.282 21.1172 105.052C20.9176 105.037 20.732 105.022 20.5568 105.007C20.637 103.298 21.1254 100.318 22.8588 97.5955C25.4681 93.4967 29.8692 91.4496 35.9409 91.5107Z" fill="#E8E0FF"/>
<path d="M42.804 98.5972C41.2592 96.9983 39.1223 96.1731 36.4528 96.145L36.4561 95.8634L36.4528 96.145C36.4493 96.1448 36.4459 96.1448 36.4422 96.1448C32.3296 96.1036 29.2198 97.3335 27.1992 99.8005C25.6949 101.637 25.1021 103.787 24.8843 105.301C24.6957 105.29 24.5101 105.279 24.3282 105.268C24.5144 103.905 24.9831 102.102 26.0533 100.421C28.128 97.1609 31.625 95.5331 36.4478 95.5816C36.4513 95.5816 36.4556 95.5816 36.4593 95.5816C39.2869 95.6118 41.5599 96.495 43.2141 98.2075C45.4254 100.496 46.0648 103.775 46.2188 106.068C46.0332 106.067 45.8437 106.066 45.6495 106.065C45.4977 103.863 44.8853 100.751 42.804 98.5972Z" fill="#E8E0FF"/>
<path d="M36.7234 99.6189C36.726 99.6189 36.7288 99.6191 36.7314 99.6191L36.7286 99.9007L36.7314 99.6191C38.7613 99.6406 40.3939 100.276 41.5839 101.508C42.8414 102.81 43.388 104.553 43.6162 106.038C43.4267 106.035 43.2355 106.031 43.0411 106.027C42.8187 104.653 42.3081 103.071 41.1736 101.897C40.0932 100.779 38.5965 100.202 36.7254 100.182C36.7228 100.182 36.7206 100.182 36.7178 100.182C33.8621 100.154 31.6947 100.995 30.2764 102.683C29.5164 103.587 29.0799 104.609 28.8303 105.511C28.6385 105.501 28.4477 105.492 28.2587 105.482C28.4546 104.722 28.7704 103.887 29.2765 103.092C30.7646 100.753 33.2701 99.5844 36.7234 99.6189Z" fill="#E8E0FF"/>
<path d="M197.985 103.421C197.746 100.428 193.992 97.7332 191.793 96.6074C191.76 97.6236 191.148 98.5147 190.151 99.2898C191.508 99.9445 194.475 101.571 194.687 103.074C194.951 104.942 192.154 105.392 186.487 105.131C180.821 104.869 177.626 101.847 174.863 98.7909C172.213 95.8602 167.87 94.4355 167.87 94.4355C166.147 93.8822 166.658 97.5483 166.658 97.5483C166.658 97.5483 170.119 98.852 171.978 100.945C174.102 103.336 179.716 108.313 186.399 108.444C193.299 108.579 198.314 107.55 197.985 103.421Z" fill="#5F40AF"/>
<path d="M40.9153 95.1598C40.9153 95.1598 15.0616 100.79 11.1926 100.824C7.32347 100.858 3.80621 99.8551 4.19021 97.501C4.54184 95.3447 7.56072 94.8236 9.72819 94.3247C9.2623 93.2916 9.10729 92.0733 9.33582 90.6436C9.34797 90.5679 9.36259 90.4959 9.37585 90.4219C6.3717 90.8525 1.3812 92.4636 0.332704 95.5804C-0.752126 98.8055 0.370728 105.14 10.489 104.725C20.6073 104.31 42.5306 99.2012 43.0412 99.0706C43.5521 98.9396 43.1801 97.9721 40.9153 95.1598Z" fill="#5F40AF"/>
<path d="M61.6128 73.9143C61.6128 73.9143 41.9604 81.4708 39.895 84.7718C37.8299 88.0731 44.6554 108.627 46.3502 109.591C48.0449 110.555 70.9468 107.549 72.3748 106.744C73.803 105.939 63.5553 75.4983 61.6128 73.9143Z" fill="#A38CEB"/>
<path d="M68.398 67.1215C68.398 67.1215 55.8931 70.0123 54.2845 71.3309C50.4594 74.4659 52.0836 84.0864 54.3987 92.7521C56.7022 101.373 63.351 111.275 66.497 111.885C69.6431 112.494 77.9509 110.572 78.9489 108.785C79.9468 106.997 69.0855 68.0467 68.398 67.1215Z" fill="#6650AB"/>
<path d="M78.876 86.6577C81.7897 98.1625 81.8223 108.069 78.9491 108.785C76.0759 109.5 71.3848 100.753 68.4711 89.2485C65.5577 77.7434 65.5248 67.8371 68.3982 67.1216C71.2714 66.4061 75.9623 75.1527 78.876 86.6577Z" fill="#4F2DA7"/>
<path d="M86.6659 76.9473L72.6613 80.4341C71.7576 80.6591 70.8323 80.11 70.6054 79.214L70.4242 78.4981C70.1973 77.6019 70.751 76.6846 71.6546 76.4594L85.6593 72.9724C86.5632 72.7476 87.4882 73.2967 87.7151 74.1929L87.8966 74.9086C88.1235 75.8046 87.5696 76.7221 86.6659 76.9473Z" fill="#B39712"/>
<path d="M91.3674 96.678L77.3627 100.165C76.4589 100.39 75.5338 99.8409 75.3069 98.9447L75.1254 98.2288C74.8985 97.3325 75.4525 96.4153 76.3561 96.1903L90.3608 92.7033C91.2644 92.4783 92.1897 93.0274 92.4166 93.9236L92.5979 94.6395C92.8248 95.5355 92.2711 96.453 91.3674 96.678Z" fill="#B39712"/>
<path d="M146.818 73.8132C146.818 73.8132 166.564 81.1258 168.671 84.4009C170.777 87.6763 164.211 108.313 162.529 109.298C160.846 110.283 137.908 107.562 136.47 106.774C135.032 105.987 144.895 75.421 146.818 73.8132Z" fill="#A38CEB"/>
<path d="M139.948 67.1051C139.948 67.1051 152.488 69.8409 154.113 71.1395C157.977 74.2269 156.474 83.8667 154.268 92.5605C152.074 101.21 145.55 111.193 142.412 111.842C139.274 112.49 130.943 110.67 129.922 108.896C128.902 107.121 139.272 68.0387 139.948 67.1051Z" fill="#6650AB"/>
<path d="M129.717 86.7694C126.948 98.3096 127.04 108.216 129.922 108.895C132.804 109.575 137.385 100.771 140.153 89.2311C142.922 77.6911 142.83 67.7849 139.948 67.1051C137.066 66.4254 132.485 75.2295 129.717 86.7694Z" fill="#4F2DA7"/>
<path d="M138.576 80.2604C138.16 81.9937 137.186 83.2486 136.4 83.0631C135.613 82.8778 135.313 81.3223 135.729 79.5889C136.145 77.8554 137.119 76.6006 137.905 76.7863C138.692 76.9716 138.992 78.5271 138.576 80.2604Z" fill="#24154C"/>
<path d="M134.361 98.7597C133.945 100.493 132.971 101.748 132.184 101.562C131.398 101.377 131.098 99.8213 131.514 98.088C131.929 96.3546 132.904 95.0998 133.69 95.2851C134.476 95.4708 134.777 97.0263 134.361 98.7597Z" fill="#24154C"/>
<path fill-rule="evenodd" clip-rule="evenodd" d="M105.87 32.2337C106.846 30.6453 109.154 30.6453 110.13 32.2337L128.154 61.5701C129.177 63.2358 127.979 65.3787 126.024 65.3787H89.9761C88.0211 65.3787 86.8226 63.2358 87.846 61.57L105.87 32.2337ZM109.278 32.7572C108.692 31.8041 107.307 31.8041 106.722 32.7572L88.698 62.0935C88.084 63.093 88.8031 64.3787 89.9761 64.3787H126.024C127.197 64.3787 127.916 63.093 127.302 62.0935L109.278 32.7572Z" fill="#D0021B"/>
<path fill-rule="evenodd" clip-rule="evenodd" d="M110.458 57.9342C110.458 58.2602 110.395 58.5659 110.269 58.8511C110.143 59.1364 109.967 59.3809 109.74 59.5847C109.513 59.7885 109.248 59.9515 108.945 60.0738C108.643 60.196 108.323 60.2572 107.987 60.2572C107.651 60.2572 107.335 60.2001 107.041 60.086C106.747 59.9719 106.491 59.8089 106.272 59.5969C106.054 59.385 105.877 59.1405 105.743 58.8634C105.608 58.5862 105.541 58.2847 105.541 57.9586C105.541 57.6489 105.604 57.3514 105.73 57.0661C105.856 56.7808 106.028 56.5322 106.247 56.3203C106.465 56.1084 106.726 55.9413 107.029 55.819C107.331 55.6968 107.651 55.6356 107.987 55.6356C108.323 55.6356 108.643 55.6968 108.945 55.819C109.248 55.9413 109.513 56.1043 109.74 56.3081C109.967 56.5119 110.143 56.7564 110.269 57.0417C110.395 57.3269 110.458 57.6244 110.458 57.9342Z" fill="#D0021B"/>
<path fill-rule="evenodd" clip-rule="evenodd" d="M106.77 53.3248L105.541 41.771H110.458L109.229 53.3248H106.77Z" fill="#D0021B"/>
</svg>
