<svg xmlns="http://www.w3.org/2000/svg" xmlns:xlink="http://www.w3.org/1999/xlink" width="60" height="60" viewBox="0 0 60 60">
    <defs>
        <path id="prefix__a" d="M2 0h56c1.105 0 2 .895 2 2v56c0 1.105-.895 2-2 2H2c-1.105 0-2-.895-2-2V2C0 .895.895 0 2 0z"/>
    </defs>
    <g fill="none" fill-rule="evenodd">
        <mask id="prefix__b" fill="#fff">
            <use xlink:href="#prefix__a"/>
        </mask>
        <use fill="#D6271A" xlink:href="#prefix__a"/>
        <g fill="#FFF" fill-rule="nonzero" mask="url(#prefix__b)">
            <g>
                <path d="M12.849 14.147V13.8 1.339c0-.37 0-.37.36-.37h5.685c3.191.004 5.6 2.122 6.03 5.277.206 1.535.113 3.035-.534 4.458-.89 1.956-2.452 3.042-4.552 3.38-.304.05-.617.06-.924.06-1.905.006-3.81.003-5.715.003h-.35zm3.585-3.282c.778 0 1.53-.021 2.278.005.792.027 1.42-.291 1.948-.842 1.037-1.08 1.25-2.993.47-4.378-.528-.942-1.308-1.494-2.439-1.46-.647.02-1.295.003-1.941.003h-.315l-.001 6.672zM3.621 5.676h5.047v-.33c0-1.36.004-2.72-.005-4.079-.002-.226.05-.309.294-.305.918.014 1.838.006 2.758.007.092 0 .184.01.294.015v13.147h-3.34v-.324c0-1.519-.002-3.037 0-4.556 0-.148.009-.274-.21-.274-1.594.005-3.188.002-4.817.002-.009.128-.02.245-.02.362-.002 1.499-.008 3 .003 4.499.002.25-.07.317-.317.313-.91-.014-1.82-.006-2.73-.006H.283V.968H.61c.9 0 1.801.008 2.702-.007.254-.004.316.078.314.32-.01 1.35-.005 2.7-.005 4.049l.001.346zM41.022 14.95c1.16.058 2.284.223 3.34.719 1.468.689 2.437 1.82 2.883 3.37.455 1.575.46 3.165-.016 4.737-.562 1.855-1.814 3.058-3.648 3.622-1.766.544-3.55.533-5.305-.077-1.825-.634-2.998-1.904-3.495-3.769-.403-1.515-.4-3.045.06-4.547.646-2.117 2.143-3.327 4.262-3.795.63-.139 1.279-.176 1.919-.26zm2.962 6.428c-.057-.492-.09-.988-.178-1.474-.242-1.336-1.026-2.14-2.331-2.297-1.497-.18-2.697.368-3.147 2.042-.282 1.046-.279 2.116-.069 3.174.253 1.283.958 2.293 2.605 2.363 1.277.054 2.295-.417 2.785-1.76.24-.66.304-1.347.335-2.048zM33.831 19.13c-.092.005-.173.016-.255.016-.928.002-1.858.007-2.786-.005-.106-.001-.273-.071-.304-.151-.274-.726-.82-1.108-1.556-1.215-.587-.085-1.181-.084-1.754.11-.938.317-1.424 1.036-1.642 1.948-.281 1.175-.294 2.359.039 3.529.37 1.307 1.324 2.055 2.685 2.126.309.017.622.022.928-.01.437-.047.87-.132 1.317-.204v-2.12h-2.097v-2.367h5.454v.365l.001 5.822c0 .412.002.431-.398.465-1.735.149-3.47.352-5.209.405-1.534.047-2.995-.344-4.26-1.274-1.128-.826-1.776-1.962-2.043-3.316-.353-1.773-.24-3.508.57-5.152.783-1.59 2.078-2.532 3.81-2.85 1.63-.299 3.25-.267 4.816.344 1.53.597 2.46 1.694 2.685 3.346.006.056 0 .111 0 .188zM18.761 22.96l3.265 4.669c-.154.01-.244.02-.334.02-1.07 0-2.139-.005-3.207.003-.19.002-.303-.06-.41-.218-.912-1.351-1.836-2.695-2.746-4.046-.118-.175-.24-.257-.456-.24-.278.02-.559.005-.87.005v4.46c-.072.016-.116.034-.159.034-.984.001-1.97-.002-2.954.005-.17.002-.24-.056-.23-.228.01-.14.003-.281.003-.421 0-3.777.003-7.556-.005-11.333 0-.27.071-.349.344-.346 1.951.011 3.902.004 5.853.007.845.001 1.664.143 2.425.52 1.491.739 2.1 2 2.035 3.608-.048 1.19-.448 2.245-1.468 2.957-.318.218-.696.351-1.086.545zm-4.753-1.963h.306c.843-.002 1.689.04 2.528-.02 1.002-.073 1.609-1.029 1.334-1.998-.163-.58-.762-.993-1.505-1.006-.833-.016-1.666-.006-2.501-.005-.052 0-.106.018-.164.03.002.996.002 1.975.002 3zM45.91 9.445l1.685 3.195c-.748.567-1.548.966-2.416 1.223-2.128.633-4.25.647-6.34-.16-2.18-.84-3.35-2.477-3.705-4.754-.21-1.345-.09-2.655.379-3.925.698-1.883 2.09-3.04 3.979-3.582 2.627-.754 5.154-.37 7.583.817.041.02.077.049.147.094-.378 1.11-.754 2.22-1.145 3.374-.107-.087-.181-.151-.261-.208-1.663-1.165-3.45-1.514-5.367-.737-1.08.438-1.634 1.32-1.731 2.462-.039.452-.014.924.078 1.367.233 1.12 1 1.755 2.07 2.019 1.784.44 3.418.115 4.86-1.057.047-.039.102-.072.183-.128zM3.62 17.967c0 .744.001 1.446-.002 2.147 0 .189.13.175.253.176.61.002 1.22 0 1.829 0l3.236-.001c.102 0 .203.01.318.015v2.378H3.636c-.007.132-.018.23-.018.33-.001.553.013 1.106-.007 1.658-.01.268.066.353.344.35 1.697-.012 3.395-.007 5.094-.007.707 0 .707 0 .707.705 0 .563-.006 1.124.004 1.687.002.18-.052.246-.24.246-3.002-.004-6.003-.006-9.005.003-.267 0-.252-.147-.252-.323l.001-6.018v-5.596c0-.387.001-.389.378-.389 2.926 0 5.853.003 8.779-.007.278-.001.347.087.34.353-.018.665-.015 1.33-.001 1.996.004.233-.066.305-.301.304-1.801-.008-3.601-.006-5.403-.006l-.436-.001zM29.056 9.361v4.769h-3.413V.983c.116-.005.216-.015.317-.015h8.471c.365 0 .365 0 .365.37 0 .92-.007 1.838.006 2.756.003.247-.072.319-.32.316-1.68-.01-3.358-.005-5.038-.005-.388 0-.388 0-.388.4 0 .338.012.676-.004 1.012-.011.23.08.285.294.283 1.547-.007 3.096-.004 4.643-.003.378 0 .378 0 .378.386 0 .797.002 1.594-.002 2.39-.003.551.081.484-.5.485-1.473.003-2.945.002-4.418.002l-.391.001z" transform="translate(6 16)"/>
            </g>
        </g>
    </g>
</svg>
