<svg xmlns="http://www.w3.org/2000/svg" width="50" height="50"><defs><linearGradient id="A" x1="50%" x2="50%" y1="-108.711%" y2="100%"><stop offset="0%" stop-color="#fff" stop-opacity="0"/><stop offset="100%" stop-color="#f2f7ff" stop-opacity=".164"/></linearGradient></defs><g fill="#87bdff"><circle cx="18.404" cy="15.354" r="3.104"/><path d="M21.59 19.303h-6.373a1.98 1.98 0 0 0-1.06.307c1.134.518 1.925 1.66 1.925 2.987 0 .714-.23 1.373-.62 1.913a2.47 2.47 0 0 1 2.141 2.445v5.278a2.46 2.46 0 0 1-.675 1.697l.572 2.795v.102c0 1.02-.74 1.87-1.712 2.04v2.52c0 .024-.003.048-.004.072a1.53 1.53 0 0 0 1.451 1.055h2.335c.85 0 1.536-.688 1.536-1.536V30.485h.484c1.1 0 1.992-.892 1.992-1.992v-7.198a1.99 1.99 0 0 0-1.992-1.992z"/></g><path fill="#378efc" d="M16.492 36.826l-.675-3.302a1.46 1.46 0 0 0 .778-1.291v-5.278a1.46 1.46 0 0 0-1.461-1.461H10.46A1.46 1.46 0 0 0 9 26.955v5.278a1.46 1.46 0 0 0 .779 1.291l-.675 3.302c0 .587.477 1.063 1.063 1.063h.648v3.5c0 .622.504 1.127 1.127 1.127h1.712c.622 0 1.127-.505 1.127-1.127v-3.5h.65c.094 0 .185-.016.272-.04a1.06 1.06 0 0 0 .79-1.024zm-4.964-12.34a2.26 2.26 0 0 0 1.27.388c.146 0 .29-.015.427-.04a2.26 2.26 0 0 0 .844-.346c.606-.41 1.004-1.102 1.004-1.888 0-1.036-.693-1.91-1.64-2.184-.202-.06-.414-.09-.636-.09-1.256 0-2.275 1.02-2.275 2.276.001.786.4 1.48 1.005 1.888z"/><path fill="#87bdff" d="M32.742 18.457c1.715 0 3.104-1.4 3.104-3.104s-1.388-3.104-3.104-3.104-3.103 1.39-3.103 3.104 1.39 3.104 3.103 3.104zm2.186 16.156c-1.045-.287-1.815-1.247-1.815-2.382v-5.278c0-1.25.934-2.283 2.14-2.445-.388-.54-.62-1.198-.62-1.912 0-1.42.908-2.63 2.173-3.087-.265-.13-.563-.206-.88-.206h-6.373a1.99 1.99 0 0 0-1.991 1.992v7.197a1.99 1.99 0 0 0 1.063 1.761l-.92 4.503a1.45 1.45 0 0 0 1.45 1.449h.883v4.772c0 .848.688 1.536 1.535 1.536h2.335a1.53 1.53 0 0 0 1.117-.488c-.063-.202-.098-.416-.098-.64v-6.775z"/><path fill="#378efc" d="M40.256 25.493H35.58a1.46 1.46 0 0 0-1.461 1.46v5.278a1.46 1.46 0 0 0 1.461 1.461h.355v7.696c0 .622.504 1.127 1.127 1.127h1.712c.623 0 1.127-.505 1.127-1.127v-7.696h.355a1.46 1.46 0 0 0 1.461-1.461v-5.278a1.46 1.46 0 0 0-1.461-1.46z"/><path fill="url(#A)" d="M21.59 43.515h-6.373a39.76 39.76 0 0 1-1.06-.013l1.925-.13c0-.03-.23-.06-.62-.082l2.14-.105v-.227c0-.028-.247-.054-.675-.073l.572-.12v-.004c0-.044-.74-.08-1.712-.088v-.11c.2-.03.768-.05 1.447-.05h2.335l1.536.066v.452h.484l1.992.086v.3c0 .047-.892.086-1.992.086z"/><path fill="url(#A)" d="M16.492 42.85l-.675.194c.463.014.778.043.778.076v.3c0 .047-.653.086-1.46.086H10.46c-.806 0-1.46-.038-1.46-.086v-.3c0-.033.316-.06.78-.076l-.675-.194c0-.035.477-.062 1.063-.062h.648v-.206c0-.037.504-.066 1.127-.066h1.712c.622 0 1.127.03 1.127.066v.206h.65l.272.002c.454.007.8.03.8.06z"/><path fill="url(#A)" d="M34.927 42.856l-1.815.103v.227c0 .054.934.098 2.14.105-.388.023-.62.052-.62.082 0 .06.908.113 2.173.133l-.88.01h-6.373c-1.1 0-1.99-.038-1.99-.086v-.3c0-.033.43-.06 1.063-.076l-.92-.194c0-.034.65-.062 1.45-.062h.883v-.206c0-.037.688-.066 1.535-.066h2.335l1.117.02c-.063.01-.098.018-.098.028v.292z"/><path fill="url(#A)" d="M40.256 43.515H35.58c-.807 0-1.46-.038-1.46-.086v-.3c0-.047.654-.086 1.46-.086h.355v-.452c0-.037.504-.066 1.127-.066h1.712c.623 0 1.127.03 1.127.066v.452h.355c.806 0 1.46.038 1.46.086v.3c0 .047-.655.086-1.46.086z"/><path d="M35.643 22.597a2.28 2.28 0 0 0 1.004 1.888c.363.245.8.388 1.272.388s.908-.143 1.27-.388c.606-.4 1.004-1.102 1.004-1.888 0-1.257-1.02-2.276-2.276-2.276a2.26 2.26 0 0 0-.247.014c-1.14.123-2.03 1.088-2.03 2.262zM29.034 7v2.33a5.27 5.27 0 0 1-3.159 4.823l-.5.223-.577-.25a5.26 5.26 0 0 1-3.224-4.85V7l3.788-2.018L29.034 7zm-1.52 3.343v-1.33h-1.55v-1.55h-1.33v1.55h-1.55v1.33h1.55v1.55h1.33v-1.55h1.55z" fill="#378efc"/><path fill="#87bdff" d="M27.514 9.004v1.33h-1.55v1.55h-1.33v-1.55h-1.55v-1.33h1.55v-1.55h1.33v1.55z"/></svg>