<?xml version="1.0" encoding="UTF-8"?>
<svg version="1.1" viewBox="0 0 300 300" xmlns="http://www.w3.org/2000/svg" xmlns:xlink="http://www.w3.org/1999/xlink">
<title>help_ly_myway</title>
<desc>Created with Sketch.</desc>
<defs>
<rect id="b" width="300" height="300"/>
<linearGradient id="d" x1="49.996%" x2="49.996%" y1="100%" y2="7.9227e-6%">
<stop stop-color="#808080" stop-opacity=".25" offset="0"/>
<stop stop-color="#808080" stop-opacity=".12" offset=".54"/>
<stop stop-color="#808080" stop-opacity=".1" offset="1"/>
</linearGradient>
<linearGradient id="c" x1="50%" x2="50%" y1="100%">
<stop stop-color="#808080" stop-opacity=".25" offset="0"/>
<stop stop-color="#808080" stop-opacity=".12" offset=".54"/>
<stop stop-color="#808080" stop-opacity=".1" offset="1"/>
</linearGradient>
</defs>
<g fill="none" fill-rule="evenodd">
<g transform="translate(-30 -690)">
<g transform="translate(30 690)" fill-rule="nonzero">
<mask id="a" fill="white">
<use xlink:href="#b"/>
</mask>
<use fill="#FFFFFF" xlink:href="#b"/>
<path d="m113.42 225c19.165 5.547 31.515 4.2741 33.905 5.2372s3.5632 2.516 5.202 3.8448c6.0938 4.9494 18.582 6.5416 29.495 5.7003 10.912-0.84129 20.925-3.6207 31.228-5.7357 17.804-3.66 27.695 0.42332 46.409-3.8094 18.714-4.2327 21.916-7.2119 19.749-11.154-2.1664-3.9424-14.092-7.9949-29.803-7.1418s-31.153 3.2-46.935 3.2118c-19.674 0-38.682-3.605-58.164-5.087-13.494-1.0221-50.25 9.387-31.085 14.934z" fill="#ECF5FF" mask="url(#a)" opacity=".8"/>
<g mask="url(#a)">
<g transform="translate(6 31)">
<path transform="translate(145 150) scale(-1 1) translate(-145 -150)" d="m13 122c4.7112 20.175 14.685 37.615 30.444 46.079 32.759 17.567 106.63 8.505 161.76-1.9033 27.859-5.2419 53.147-19.725 71.792-41.117l-264-3.0589z" fill="#F4F9FF" opacity=".6"/>
<path transform="translate(145 98) scale(-1 1) translate(-145 -98)" d="m5.6378 76c-1.138 11.49-0.75188 23.08 1.1483 34.468l260.14 9.5322c7.242-8.3449 13.322-17.634 18.075-27.614l-279.36-16.386zm102.89 24.587h-5.1221c1.4137 0 2.5597 1.148 2.5597 2.5641 0 1.4161-1.146 2.5641-2.5597 2.5641h-29.629c-0.9145 0-1.7595-0.48872-2.2168-1.2821s-0.45725-1.7708 0-2.5641 1.3023-1.2821 2.2168-1.2821h5.1221c-1.3823-0.044615-2.4799-1.18-2.4799-2.5654s1.0975-2.5208 2.4799-2.5654h-3.6575c-1.3823-0.044615-2.4799-1.18-2.4799-2.5654s1.0975-2.5208 2.4799-2.5654h29.629c1.3823 0.044615 2.4799 1.18 2.4799 2.5654s-1.0975 2.5208-2.4799 2.5654h3.6575c1.3823 0.044615 2.4799 1.18 2.4799 2.5654s-1.0975 2.5208-2.4799 2.5654z" fill="#ECF5FF" opacity=".5"/>
<path transform="translate(145 56) scale(-1 1) translate(-145 -56)" d="m289.87 38-283.09 6.8657c-3.4443 8.8224-5.715 18.791-6.7748 29.134h284.91c1.8596-6.0731 3.2354-12.283 4.1147-18.572 0.84784-6.0761 1.187-11.954 0.84519-17.428zm-232.4 22.488h-5.1056c0.91155-1e-7 1.7539 0.48468 2.2096 1.2715 0.45578 0.78679 0.45578 1.7562 0 2.5429-0.45578 0.78679-1.2981 1.2715-2.2096 1.2715h-29.534c-1.4091-1e-7 -2.5515-1.1385-2.5515-2.5429 0-1.4044 1.1423-2.5429 2.5515-2.5429h5.1056c-1.3779-0.044247-2.4719-1.1703-2.4719-2.5443s1.094-2.5 2.4719-2.5443h-3.6457c-1.3779-0.044247-2.4719-1.1703-2.4719-2.5443s1.094-2.5 2.4719-2.5443h29.534c1.3779 0.044247 2.4719 1.1703 2.4719 2.5443s-1.094 2.5-2.4719 2.5443h3.6457c1.3779 0.044247 2.4719 1.1703 2.4719 2.5443s-1.094 2.5-2.4719 2.5443z" fill="#ECF5FF" opacity=".3"/>
<path transform="translate(145 18) scale(-1 1) translate(-145 -18)" d="m278.91 21.265h-29.328c-1.3993 0-2.5336-1.1359-2.5336-2.5371 0-1.4012 1.1343-2.5371 2.5336-2.5371h5.0699c-1.3682-0.044146-2.4546-1.1676-2.4546-2.5384 0-1.3708 1.0864-2.4943 2.4546-2.5384h-3.6202c-1.3682-0.044146-2.4546-1.1676-2.4546-2.5384s1.0864-2.4943 2.4546-2.5384h15.307c-3.3966-1.5808-7.3667-2.7057-11.942-3.2959-41.738-5.3667-56.64-1.8152-61.896 1.8442-6.4854 4.5052-13.721 7.8195-21.453 9.4161-25.752 5.3193-73.912 11.721-117.56-2.0497-21.695-6.85-37.818 4.7212-47.484 24.049h278c-0.36308-5.617-1.4497-10.802-3.444-15.344-0.45819 0.39436-1.0428 0.6104-1.647 0.60859z" fill="#ECF5FF" opacity=".6"/>
</g>
</g>
<g mask="url(#a)">
<g transform="translate(132 16)">
<path d="m110.23 1.6004e-5h-98.454c-3.1177-0.0051504-6.1098 1.233-8.3177 3.4421s-3.4509 5.2079-3.4552 8.3367v178.45c0.013717 6.5123 5.2838 11.781 11.773 11.77h98.454c3.1177 0.00515 6.1098-1.233 8.3177-3.4421 2.2079-2.209 3.4509-5.2079 3.4552-8.3367v-178.44c-0.004392-3.1288-1.2473-6.1277-3.4552-8.3367-2.2079-2.209-5.2-3.4472-8.3177-3.4421z" fill="url(#d)" opacity=".4"/>
<path d="m10 2h102c4.4183 0 8 3.5817 8 8v182c0 4.4183-3.5817 8-8 8h-102c-4.4183 0-8-3.5817-8-8v-182c0-4.4183 3.5817-8 8-8z" fill="#F7F7F7"/>
<rect x="9" y="21" width="104" height="162" fill="#fff"/>
<path d="m61 14c1.1046 0 2-0.89543 2-2s-0.89543-2-2-2-2 0.89543-2 2 0.89543 2 2 2z" fill="#E3E3E3"/>
<path d="m61 196c2.7614 0 5-2.2386 5-5s-2.2386-5-5-5-5 2.2386-5 5 2.2386 5 5 5z" fill="#E3E3E3"/>
<polygon points="9 21 113 21 113 29 9 29" fill="#8A8A8A"/>
<path d="m13 27c-1.1046 0-2-0.89543-2-2s0.89543-2 2-2 2 0.89543 2 2-0.89543 2-2 2zm5 0c-1.1046 0-2-0.89543-2-2s0.89543-2 2-2 2 0.89543 2 2-0.89543 2-2 2zm5 0c-1.1046 0-2-0.89543-2-2s0.89543-2 2-2 2 0.89543 2 2-0.89543 2-2 2z" fill="#F6F7F9"/>
<path d="m100 56.175c-0.064509-1.7676-1.513-3.1691-3.2818-3.1752h-59.343c-1.6847-0.01828-3.1205 1.2184-3.3521 2.8872-0.11198 0.93442 0.18061 1.8722 0.8041 2.5771 0.62349 0.70495 1.5185 1.1099 2.4596 1.1129h59.422 0.20639c1.0638-0.090646 2.0773 0.46895 2.5674 1.4175 0.18151 0.35766 0.3106 0.73957 0.38329 1.134l0.13381 0.065772v-6.0102-0.009072z" fill="#B6D8FF"/>
<path d="m100 78.155c-0.064096-1.7563-1.5033-3.1488-3.2608-3.1549h-25.385c-1.6739-0.018163-3.1005 1.2105-3.3306 2.8687-0.11126 0.92843 0.17945 1.8602 0.79894 2.5606 0.61949 0.70042 1.5087 1.1028 2.4438 1.1058h25.464 0.20507c1.057-0.090065 2.064 0.46594 2.5509 1.4084 0.18034 0.35536 0.3086 0.73483 0.38084 1.1267l0.13295 0.06535v-5.9717-0.0090139z" fill="#B6D8FF"/>
<path d="m23 45.095c0.037579-1.7109 0.96158-3.0947 2.0889-3.0947h37.818c1.1517 0 2.0934 1.4413 2.0934 3.2053s-0.94168 3.2053-2.0934 3.2053h-37.824c-0.73189-0.023207-1.3978 0.42074-1.6579 1.1053-0.16799 0.4446-0.28227 0.90766-0.34042 1.3794l-0.084 0.064105v-5.8579-0.0066316z" fill="#C9C9C9" opacity=".34"/>
<path d="m23 67.152c0.047273-1.7423 1.1908-3.1515 2.5865-3.1515h46.823c1.4249 0 2.591 1.4677 2.591 3.2641 0 1.7964-1.1661 3.2641-2.591 3.2641h-46.823c-0.90043 0-1.7378 0.4142-2.053 1.1255-0.20579 0.44605-0.34751 0.91896-0.42095 1.4047l-0.1058 0.065281v-5.9654l-0.0067532-0.0067532z" fill="#C9C9C9" opacity=".34"/>
<path d="m73 79c-0.55228 0-1-0.44772-1-1s0.44772-1 1-1 1 0.44772 1 1-0.44772 1-1 1zm3 0c-0.55228 0-1-0.44772-1-1s0.44772-1 1-1 1 0.44772 1 1-0.44772 1-1 1zm3 0c-0.55228 0-1-0.44772-1-1s0.44772-1 1-1 1 0.44772 1 1-0.44772 1-1 1z" fill="#fff"/>
<path d="m61 91-24 14.806s0 30.539 24 47.194c24-16.655 24-47.194 24-47.194l-24-14.806z" fill="url(#c)"/>
<path d="m61 93.767-21.477 13.382c0.018624 0.43409 0.047631 0.92476 0.089149 1.4679 0.14226 1.8612 0.39886 3.9393 0.7984 6.1795 1.1416 6.4011 3.1959 12.8 6.3846 18.76 3.5111 6.5621 8.1956 12.184 14.205 16.598 6.0079-4.4134 10.692-10.034 14.203-16.595 3.1896-5.9602 5.2444-12.36 6.3863-18.762 0.39965-2.2404 0.65632-4.3188 0.79862-6.1801 0.041532-0.54327 0.070548-1.034 0.089174-1.4682l-21.477-13.382z" fill="#5FA9FF" stroke="#7DB9FF" stroke-width="3"/>
<path d="m61.403 91-0.40334 0.25246v61.459c0.13386 0.096345 0.26773 0.19358 0.40334 0.28904 23.597-16.657 23.597-47.191 23.597-47.191l-23.597-14.809z" fill="#220963" opacity=".1"/>
<polygon points="55.751 120.9 59.95 124.75 65.9 116 68 117.75 59.95 128.25 54 121.6" fill="#fff"/>
</g>
</g>
<g mask="url(#a)">
<g transform="translate(5 89)">
<path d="m46.84 222.7s-7 40.92 4.31 42 44.15-5.92 44.15-5.92-8.08-26.38 0-39.84 5.38-36.07-3.77-50.07-19.38 0-19.38 0l-25.31 53.83z" fill="#474463"/>
<circle cx="66" cy="34" r="22" fill="#FBBEBE"/>
<rect x="51" y="43" width="26" height="24" fill="#FBBEBE"/>
<path d="m116.14 81.561s17.079 7.9943 25.613 5.323c6.0464-1.8897 12.628-13.931 15.959-20.777 1.5316-3.1792 4.5802-5.3608 8.0883-5.788 6.3537-0.76184 15.245-0.68268 12.777 6.342-3.7369 10.656-16.008 13.852-16.008 13.852l-17.614 24.488h-30.956l2.141-23.439z" fill="#FBBEBE"/>
<circle cx="63" cy="31" r="23" fill="#242548"/>
<path d="m74.216 19.951c2.8033 0 6.6975 14.705 9.0205 14.026 5.3582-1.5672 7.7635-19.794 7.7635-23.41 0-1.8875-1.6693-9.1426-4.7466-10.46-1.7464-0.74742 3.2478 2.5791-7.0394 3.9846s-13.304-3.9846-25.141 0c-10.964 3.691-12.068 14.026-13.073 19.923 4.4373 4.0911 23.946-4.0643 33.216-4.0643z" fill="#242548"/>
<path d="m153 74c0.66667 0 1.3333-0.66667 2-2 1.4222 0.99551 3.3355 1.6686 5 3 1.1122 0.88964 2.7789 2.5563 5 5-0.99696 0.33029-1.6636 0.66362-2 1s-0.66971 1.003-1 2l-9-9z" fill="#000" opacity=".04"/>
<path d="m76 177.04c-30.241-4.0503-46.241-4.0503-48 0s-8.0927 23.04-19 56.969c17.92 7.9956 30.88 11.993 38.88 11.993s17.373-5.9967 28.12-17.99v-50.972z" fill="#474463"/>
<path d="m54.4 62.177s-18.18-2.7393-33.4 13.336c-4.1014 4.332-8.4326 22.713-13 38.161-3.1049 10.502-7.1906 19.655-8 22.093 0 21.089 4.6709e-15 35.148 0 41.575 4.33-6.4271 7-11.448 17-23.499 6-14.059 11.267-27.557 12.1-27.325 0 0 5.38 48.665-3.23 50.824 0 0 50.61 32.979 76.45 0 0 0-11.31-52.983 0-69.744 8.3797 1.0846 15.916 1.6269 22.61 1.6269 10.04 0 20.509-1.1297 21.07-1.6269 3.2093-2.8428 16.529-18.481 18-24.051 0-3.0127-7.0087-9.7406-11-10.042-2.9547 3.709-15.477 14.539-16 15.064-9.5065-4.9809-16.62-8.6158-27-16.068-2.0914-1.5014-5.386-3.1688-7.68-5.0212-12.68-6.0254-19.33-4.2104-27.46-5.3024h-20.46z" fill="#3792FC"/>
<path d="m100 110c-0.59894 1.6471-1.2656 4.3138-2 8 0.44018-3.1945 0.77351-5.5278 1-7s1.2265-2.8055 3-4c-0.73439 0.35292-1.4011 1.3529-2 3z" fill="#1C6AC5"/>
<path d="m28 178-2.0003 4.4651c1.0001 0.89302 54.498 20.655 72 0.52688l-0.58008-1.786s-18.663 18.235-69.42-3.2059z" fill="#000" opacity=".05"/>
<path d="m32 114-3 12c0.44018-3.1945 0.77351-5.5278 1-7s0.89316-4.1388 2-8v3z" fill="#1C6AC5"/>
</g>
</g>
</g>
</g>
</g>
</svg>
