<svg width="32" height="32" viewBox="0 0 32 32" fill="none" xmlns="http://www.w3.org/2000/svg">
<path d="M28.6667 13.7312V23.0793C28.6667 25.9986 26.0705 28.3722 22.8773 28.3722H19.4343C19.1358 29.3114 18.1848 30 17.0637 30H14.9431C14.2871 30 13.6693 29.762 13.1972 29.3336C12.7287 28.9053 12.4718 28.3404 12.4718 27.7439C12.4718 26.5032 13.579 25.4909 14.9431 25.4909H17.0637C17.7267 25.4909 18.3445 25.7226 18.8096 26.1478C19.1046 26.4175 19.3198 26.7443 19.4343 27.0997H22.8773C25.3034 27.0997 27.2783 25.2942 27.2783 23.0762V22.4669C27.136 22.505 26.9833 22.524 26.8237 22.524H23.7867C22.8669 22.524 22.1172 21.8386 22.1172 20.9977V13.8422C22.1172 13.0014 22.8669 12.316 23.7867 12.316H26.8237C26.9451 12.316 27.0631 12.3286 27.1777 12.3509C26.4384 7.23255 21.6348 3.26927 15.8351 3.26927C10.0457 3.26927 5.24562 7.21985 4.49245 12.3255C4.55145 12.3191 4.61046 12.316 4.66946 12.316H7.70642C8.62619 12.316 9.37588 13.0014 9.37588 13.8422V21.0009C9.37588 21.8418 8.62619 22.5272 7.70642 22.5272H4.66946C3.7497 22.5272 3 21.8418 3 21.0009V13.8422C3 13.8042 3 13.7693 3.00347 13.7312H3C3 12.1541 3.34014 10.6215 4.01348 9.17452C4.66252 7.77833 5.58923 6.52493 6.7693 5.44606C7.94938 4.36718 9.32035 3.51995 10.8475 2.92656C12.4337 2.31097 14.1101 2 15.8351 2C17.5601 2 19.2365 2.31097 20.8192 2.92656C22.3463 3.51995 23.7173 4.36718 24.8974 5.44606C26.0774 6.52493 27.0041 7.77833 27.6532 9.17452C28.3265 10.6215 28.6667 12.1541 28.6667 13.7312Z" fill="#5AAAF6" stroke="#5AAAF6" stroke-width="0.7"/>
</svg>
