<svg width="100" height="82" viewBox="0 0 100 82" fill="none" xmlns="http://www.w3.org/2000/svg">
<path fill-rule="evenodd" clip-rule="evenodd" d="M94.0153 38.1019L93.5048 43.3585L91.8076 38.7289C72.8973 45.1088 69.9009 73.3926 69.9009 73.3926L75.4821 76.3337C75.4821 76.3337 114.598 33.361 94.0153 38.1019Z" fill="#F0BC6B"/>
<path fill-rule="evenodd" clip-rule="evenodd" d="M96.8077 44.1543C77.6679 56.4953 70.9136 78.0854 70.8477 78.3023C70.8082 78.4315 70.8807 78.568 71.009 78.6068L71.014 78.6082C71.1409 78.6449 71.275 78.5723 71.3137 78.4452C71.379 78.2304 78.0859 56.8063 97.0708 44.5644C97.1841 44.4918 97.2171 44.3403 97.144 44.2275C97.0715 44.1141 96.9202 44.081 96.8077 44.1543Z" fill="#FFFFFE"/>
<path fill-rule="evenodd" clip-rule="evenodd" d="M93.5562 55.7713L85.2103 54.5001L84.0666 46.9036C84.0458 46.77 83.9211 46.6788 83.7891 46.6989C83.6558 46.7183 83.5647 46.8433 83.5848 46.9761L84.7557 54.7507C84.77 54.8456 84.8389 54.9231 84.9299 54.949C84.9392 54.9518 84.9493 54.954 84.9593 54.9554L93.4831 56.254C93.6158 56.2748 93.7405 56.1829 93.7606 56.05C93.7807 55.9164 93.6882 55.795 93.5562 55.7713Z" fill="#FFFFFE"/>
<path fill-rule="evenodd" clip-rule="evenodd" d="M82.3475 51.7651C82.3253 51.6323 82.1991 51.5418 82.0672 51.5655C81.9345 51.5877 81.8449 51.7134 81.8672 51.8463L82.7075 56.8206C82.7233 56.9169 82.7935 56.9901 82.881 57.0145C82.9147 57.0246 82.9513 57.0267 82.9878 57.0203C83.1205 56.998 83.2101 56.8723 83.1872 56.7395L82.3475 51.7651Z" fill="#FFFFFE"/>
<path fill-rule="evenodd" clip-rule="evenodd" d="M86.0277 65.5555L78.1019 63.8296L76.1516 56.0608C76.1186 55.9308 75.9867 55.851 75.8562 55.8841C75.7257 55.9171 75.6461 56.0493 75.6791 56.18L77.6666 64.0954C77.6881 64.1801 77.7527 64.2469 77.8366 64.2706L77.8509 64.2742L85.9244 66.0317C86.0556 66.0611 86.1854 65.9771 86.2141 65.8456C86.2428 65.7142 86.1603 65.5792 86.0277 65.5555Z" fill="#FFFFFE"/>
<path fill-rule="evenodd" clip-rule="evenodd" d="M80.6423 67.8774L76.5811 66.7211C76.4521 66.6838 76.3173 66.7592 76.28 66.8892C76.2434 67.0185 76.3187 67.1535 76.4478 67.1901L80.5096 68.3464C80.6387 68.3831 80.7735 68.3084 80.8101 68.1784C80.8473 68.0491 80.772 67.9141 80.6423 67.8774Z" fill="#FFFFFE"/>
<path fill-rule="evenodd" clip-rule="evenodd" d="M86.7587 77.0095C87.2678 76.9046 87.6901 72.9473 84.1072 71.8786C82.9428 71.531 81.6177 71.801 80.6541 72.5429C80.1285 69.9854 77.895 67.8724 75.3159 67.4932C72.7369 67.114 69.9907 68.4951 68.7539 70.7934C67.6526 69.7283 65.8514 69.4748 64.4991 70.1944C63.1476 70.914 62.3503 72.5523 62.617 74.0627C61.0166 72.9739 58.8326 72.9703 57.0724 73.7747C55.3128 74.5798 53.952 76.0974 53.0213 77.7959C52.5101 78.7289 52.1236 79.9118 52.6793 80.8189C52.7474 80.9302 52.827 81.0293 52.9144 81.1184H88.4487C89.0244 80.5582 89.4288 79.8457 89.4883 79.0485C89.6102 77.4095 88.2199 76.7078 86.7587 77.0095Z" fill="#E98B60"/>
<path fill-rule="evenodd" clip-rule="evenodd" d="M59.1667 74.1654L59.4887 74.2552L60.1204 71.9742L59.7984 71.8844L59.1667 74.1654Z" fill="#FFFFFE"/>
<path fill-rule="evenodd" clip-rule="evenodd" d="M62.895 71.2372C62.5365 71.8384 62.4254 72.5738 62.591 73.2547L62.9151 73.1757C62.771 72.5795 62.8678 71.9353 63.1818 71.4089L62.895 71.2372Z" fill="#FFFFFE"/>
<path fill-rule="evenodd" clip-rule="evenodd" d="M62.6658 80.1862L62.9927 80.2545L63.2451 79.0327L62.9182 78.9645L62.6658 80.1862Z" fill="#FFFFFE"/>
<path fill-rule="evenodd" clip-rule="evenodd" d="M65.0842 78.9774L65.4155 79.019L65.7769 76.1225L65.4456 76.0808L65.0842 78.9774Z" fill="#FFFFFE"/>
<path fill-rule="evenodd" clip-rule="evenodd" d="M68.8936 71.5461L69.2176 71.6272L69.9275 68.7939L69.6034 68.7127L68.8936 71.5461Z" fill="#FFFFFE"/>
<path fill-rule="evenodd" clip-rule="evenodd" d="M70.3152 72.6622L70.3583 74.2796L70.6932 74.271L70.6501 72.6535L70.3152 72.6622Z" fill="#FFFFFE"/>
<path fill-rule="evenodd" clip-rule="evenodd" d="M72.0012 73.3258L72.3246 73.4113L72.8509 71.4103L72.5282 71.3249L72.0012 73.3258Z" fill="#FFFFFE"/>
<path fill-rule="evenodd" clip-rule="evenodd" d="M73.2085 76.7675L73.5254 76.8723L74.2431 74.6954L73.9262 74.5906L73.2085 76.7675Z" fill="#FFFFFE"/>
<path fill-rule="evenodd" clip-rule="evenodd" d="M75.4958 79.3214L75.8049 79.4478L76.5305 77.6638L76.2215 77.5374L75.4958 79.3214Z" fill="#FFFFFE"/>
<path fill-rule="evenodd" clip-rule="evenodd" d="M77.177 74.1913L77.4832 74.3248L78.1091 72.8805L77.8029 72.7477L77.177 74.1913Z" fill="#FFFFFE"/>
<path fill-rule="evenodd" clip-rule="evenodd" d="M78.929 77.5481L79.1921 77.7543L80.482 76.1009L80.2189 75.8941L78.929 77.5481Z" fill="#FFFFFE"/>
<path fill-rule="evenodd" clip-rule="evenodd" d="M83.0496 75.9595L83.3536 76.0981L84.2097 74.2113L83.9057 74.0734L83.0496 75.9595Z" fill="#FFFFFE"/>
<path fill-rule="evenodd" clip-rule="evenodd" d="M81.7397 78.9257L82.0108 79.1217L82.9902 77.7672L82.7192 77.5704L81.7397 78.9257Z" fill="#FFFFFE"/>
<path fill-rule="evenodd" clip-rule="evenodd" d="M84.9309 79.4658L85.1568 79.7121L87.016 78.0028L86.7901 77.7564L84.9309 79.4658Z" fill="#FFFFFE"/>
<path fill-rule="evenodd" clip-rule="evenodd" d="M57.1521 74.6645L57.5601 76.1656L57.882 76.0773L57.474 74.5769L57.1521 74.6645Z" fill="#FFFFFE"/>
<path fill-rule="evenodd" clip-rule="evenodd" d="M21.5798 62.6613C20.6589 60.2628 20.2143 57.6689 19.7844 55.1603C19.674 54.5162 19.5638 53.8722 19.4457 53.2314C18.8957 50.2463 18.0714 46.8237 16.1241 44.0774C14.0266 41.1188 10.7212 39.4068 7.70246 39.716L7.74661 40.1482C10.6127 39.8546 13.7622 41.4952 15.7706 44.3286C17.6689 47.0064 18.4783 50.3714 19.0192 53.31C19.137 53.9494 19.2469 54.5916 19.3572 55.2339C19.7906 57.763 20.2387 60.3787 21.1753 62.817C22.5296 66.3425 24.7776 68.918 27.5056 70.0679L27.6737 69.6676C24.1412 68.1783 22.3394 64.6387 21.5798 62.6613Z" fill="#E98B60"/>
<path fill-rule="evenodd" clip-rule="evenodd" d="M6.41549 39.8788C6.06728 41.2881 9.27576 39.9713 9.27576 39.9713C9.27576 39.9713 6.76384 38.469 6.41549 39.8788Z" fill="#E98B60"/>
<path fill-rule="evenodd" clip-rule="evenodd" d="M9.26988 41.8554C9.47909 43.3883 12.1395 40.819 12.1395 40.819C12.1395 40.819 9.06061 40.3224 9.26988 41.8554Z" fill="#E98B60"/>
<path fill-rule="evenodd" clip-rule="evenodd" d="M24.6018 64.8078C24.6345 66.8533 28.5324 63.9022 28.5324 63.9022C28.5324 63.9022 24.5691 62.7624 24.6018 64.8078Z" fill="#E98B60"/>
<path fill-rule="evenodd" clip-rule="evenodd" d="M11.3832 37.8967C9.83879 37.8884 12.0046 40.8879 12.0046 40.8879C12.0046 40.8879 12.9279 37.9045 11.3832 37.8967Z" fill="#E98B60"/>
<path fill-rule="evenodd" clip-rule="evenodd" d="M29.6759 60.0526C27.901 59.0406 28.4559 63.9036 28.4559 63.9036C28.4559 63.9036 31.4507 61.0645 29.6759 60.0526Z" fill="#E98B60"/>
<path fill-rule="evenodd" clip-rule="evenodd" d="M16.4683 39.5577C14.6911 38.5604 15.2779 43.4073 15.2779 43.4073C15.2779 43.4073 18.2454 40.5549 16.4683 39.5577Z" fill="#E98B60"/>
<path fill-rule="evenodd" clip-rule="evenodd" d="M22.8387 57.9016C21.2732 56.5961 20.9666 61.4688 20.9666 61.4688C20.9666 61.4688 24.4042 59.2071 22.8387 57.9016Z" fill="#E98B60"/>
<path fill-rule="evenodd" clip-rule="evenodd" d="M21.2844 43.0361C19.4207 40.7583 17.6597 47.5809 17.6597 47.5809C17.6597 47.5809 23.1481 45.314 21.2844 43.0361Z" fill="#E98B60"/>
<path fill-rule="evenodd" clip-rule="evenodd" d="M22.6164 47.7646C20.7527 45.4867 18.9919 52.3089 18.9919 52.3089C18.9919 52.3089 24.4801 50.0425 22.6164 47.7646Z" fill="#E98B60"/>
<path fill-rule="evenodd" clip-rule="evenodd" d="M25.0319 54.4802C24.0292 51.7117 20.1066 57.561 20.1066 57.561C20.1066 57.561 26.0347 57.2488 25.0319 54.4802Z" fill="#E98B60"/>
<path fill-rule="evenodd" clip-rule="evenodd" d="M11.9032 47.5393C11.2975 50.4214 17.71 47.5235 17.71 47.5235C17.71 47.5235 12.5088 44.6573 11.9032 47.5393Z" fill="#E98B60"/>
<path fill-rule="evenodd" clip-rule="evenodd" d="M13.3603 52.1962C12.7547 55.0783 19.1671 52.1805 19.1671 52.1805C19.1671 52.1805 13.9657 49.3147 13.3603 52.1962Z" fill="#E98B60"/>
<path fill-rule="evenodd" clip-rule="evenodd" d="M14.6083 55.8309C13.1299 58.3767 20.1264 57.6423 20.1264 57.6423C20.1264 57.6423 16.0868 53.285 14.6083 55.8309Z" fill="#E98B60"/>
<path fill-rule="evenodd" clip-rule="evenodd" d="M11.4438 44.0523C11.3949 46.0916 15.3976 43.3063 15.3976 43.3063C15.3976 43.3063 11.493 42.0125 11.4438 44.0523Z" fill="#E98B60"/>
<path fill-rule="evenodd" clip-rule="evenodd" d="M17.3988 60.1224C16.1966 61.7695 21.0704 61.7698 21.0704 61.7698C21.0704 61.7698 18.6011 58.4753 17.3988 60.1224Z" fill="#E98B60"/>
<path fill-rule="evenodd" clip-rule="evenodd" d="M34.0265 74.3413C31.9145 71.6325 30.2646 68.5594 29.1694 65.295C28.8721 64.4096 28.4907 63.3805 27.5972 63.1221C26.3978 62.7749 25.3781 64.0682 24.1802 64.4291C22.8633 64.8261 21.488 64.0383 20.4753 63.1095C19.4623 62.1811 18.5653 61.051 17.2957 60.5296C15.9826 59.9909 14.4568 60.2044 13.1575 60.7861C11.8582 61.3677 10.7404 62.2859 9.64001 63.193C9.17649 63.5752 8.70479 63.9663 8.38607 64.4767C8.06735 64.9871 7.92311 65.6465 8.16261 66.1967C8.56943 67.1319 9.81297 67.3196 10.8202 67.1776C11.8271 67.0361 12.8878 66.7073 13.8259 67.0971C15.165 67.6538 15.5544 69.3439 15.7181 70.7935C15.8819 72.2431 16.1345 73.9207 17.3912 74.6456C18.6442 75.3685 20.2511 74.7331 21.4158 73.8647C22.532 73.0324 23.5142 72.0812 24.9983 72.9019C26.1644 73.5473 26.1926 74.7908 26.567 75.908C26.9887 77.1661 27.4558 78.6204 28.6057 79.3979C30.153 80.4435 32.2319 79.8016 33.9785 79.1296C34.6956 78.8533 35.4268 78.5692 36.0183 78.0761C36.6099 77.5831 37.047 76.8351 36.9689 76.0685C35.7889 76.279 34.764 75.2875 34.0265 74.3413Z" fill="#62778B"/>
<path fill-rule="evenodd" clip-rule="evenodd" d="M35.183 76.4827C35.1353 76.4379 35.0605 76.4426 35.0152 76.4935C35.0011 76.5098 34.6593 76.8862 33.9979 76.8587C33.2916 76.8285 32.1187 76.3177 30.5423 74.0528C30.223 73.594 29.9207 73.1523 29.6324 72.7303C27.1724 69.1334 25.6877 66.9618 23.1732 68.432C20.7616 69.8415 19.8823 68.5751 18.2866 66.2751C18.1585 66.0906 18.0265 65.9 17.8892 65.7047C16.7821 64.1313 15.6989 63.3257 14.4801 63.1712C13.1518 63.0021 11.6563 63.6113 9.90623 65.0333C9.85374 65.0762 9.84341 65.1534 9.88305 65.2063C9.92275 65.2592 9.99875 65.267 10.0498 65.2248C11.7456 63.8476 13.1824 63.2546 14.4441 63.4148C15.5947 63.5615 16.6277 64.3364 17.6952 65.8531C17.8321 66.0483 17.9641 66.2382 18.0919 66.422C19.6551 68.6751 20.6877 70.1636 23.2856 68.6449C25.6129 67.2841 26.971 69.2706 29.4368 72.8761C29.7253 73.2989 30.0278 73.7414 30.3476 74.2003C31.6604 76.0861 32.8859 77.0632 33.9904 77.1045C34.4591 77.1218 34.7936 76.9609 34.9883 76.8267C35.1152 76.7391 35.1827 76.6633 35.1896 76.6553C35.2338 76.6046 35.2311 76.5271 35.183 76.4827Z" fill="#FFFFFE"/>
<path fill-rule="evenodd" clip-rule="evenodd" d="M52.3878 72.7498C50.9817 71.0641 49.5384 69.3462 47.6094 68.1698C45.6802 66.9933 43.141 66.4367 41.0103 67.2727C38.8796 68.1087 37.5355 70.6224 38.6278 72.4919C36.5319 70.3696 34.0449 68.5705 31.3036 67.1937C29.4938 66.2845 27.3143 65.5526 25.4063 66.2737C23.595 66.9589 22.5793 68.814 22.4579 70.6023C22.3365 72.3914 22.9421 74.1474 23.5405 75.8539C22.4186 74.9561 21.2188 74.1058 19.8331 73.6016C18.4476 73.0981 16.8428 72.9724 15.4776 73.5204C13.3126 74.3895 12.248 76.8414 12.7106 78.9616C12.8791 79.7337 13.2156 80.4569 13.6721 81.1184H55.8409C56.1485 79.8586 55.9506 78.4825 55.4451 77.2601C54.7582 75.5996 53.5651 74.1618 52.3878 72.7498Z" fill="#F0BC6B"/>
<path fill-rule="evenodd" clip-rule="evenodd" d="M51.4966 79.0873C53.4182 78.4344 55.2466 77.7219 56.994 76.9527C55.2466 77.7219 53.4182 78.4344 51.4966 79.0873ZM51.3468 79.0815C49.4338 78.4308 47.6062 77.7191 45.8667 76.9527C47.6062 77.7191 49.4338 78.4308 51.3468 79.0815Z" fill="#7D8B9B"/>
<path fill-rule="evenodd" clip-rule="evenodd" d="M51.461 79.1211C51.4509 79.1175 51.4408 79.1139 51.4308 79.1103C51.4293 79.111 51.4279 79.111 51.4265 79.111C51.4157 79.111 51.3999 79.0995 51.3999 79.0995C51.3812 79.093 51.3654 79.088 51.3467 79.0815C51.3654 79.088 51.3812 79.093 51.3999 79.0995C51.3999 79.0995 51.4157 79.111 51.4265 79.111C51.4279 79.111 51.4293 79.111 51.4308 79.1103C51.4408 79.1139 51.4509 79.1175 51.461 79.1211V79.0995C51.4717 79.0959 51.4861 79.0909 51.4969 79.0873C51.4861 79.0909 51.4717 79.0959 51.461 79.0995V79.1211Z" fill="#7B8998"/>
<path fill-rule="evenodd" clip-rule="evenodd" d="M76.0862 63.2752C77.7798 61.369 79.2919 59.3803 80.6428 57.3298C79.2919 59.3803 77.7798 61.369 76.0862 63.2752ZM81.0049 56.7718C82.8096 53.955 84.3131 51.029 85.5579 48.0491C84.3131 51.029 82.8096 53.955 81.0049 56.7718ZM85.8203 47.4106C86.3623 46.0697 86.8535 44.7181 87.2966 43.3628C86.8535 44.7181 86.3623 46.0697 85.8203 47.4106ZM87.5554 42.5527C87.6013 42.4054 87.6465 42.2582 87.6917 42.111C87.6472 42.2582 87.6013 42.4054 87.5554 42.5527Z" fill="#7E8283"/>
<path fill-rule="evenodd" clip-rule="evenodd" d="M87.2961 43.3634C87.3845 43.0924 87.4708 42.8243 87.5556 42.5527C87.4708 42.8243 87.3845 43.0924 87.2961 43.3634Z" fill="#7D8B9B"/>
<path fill-rule="evenodd" clip-rule="evenodd" d="M85.5579 48.0496C85.6463 47.8376 85.7347 47.6234 85.8209 47.4106C85.7347 47.6234 85.6463 47.8376 85.5579 48.0496Z" fill="#7D8B9B"/>
<path fill-rule="evenodd" clip-rule="evenodd" d="M80.6428 57.3302C80.765 57.1448 80.8857 56.9586 81.0058 56.7718C80.8857 56.9586 80.765 57.1448 80.6428 57.3302Z" fill="#7D8B9B"/>
<path fill-rule="evenodd" clip-rule="evenodd" d="M56.9944 76.9527C61.7281 74.8685 65.8315 72.3784 69.3857 69.5817C65.8315 72.3784 61.7281 74.8685 56.9944 76.9527ZM69.8159 69.2399C72.1383 67.3732 74.2219 65.3745 76.0862 63.2751C74.2219 65.3745 72.1383 67.3732 69.8159 69.2399Z" fill="#7F797F"/>
<path fill-rule="evenodd" clip-rule="evenodd" d="M69.3855 69.582C69.5289 69.4691 69.6737 69.3541 69.8157 69.2399C69.6737 69.3541 69.5289 69.4691 69.3855 69.582Z" fill="#7D8B9B"/>
<path fill-rule="evenodd" clip-rule="evenodd" d="M12.3297 27.5672C12.1548 25.7853 12.0401 24.03 11.9763 22.3185C12.0401 24.03 12.1548 25.7853 12.3297 27.5672Z" fill="#7D8998"/>
<path fill-rule="evenodd" clip-rule="evenodd" d="M28.0529 64.662C27.7523 64.3475 27.4598 64.0336 27.1695 63.7147C27.4598 64.0336 27.7523 64.3475 28.0529 64.662ZM14.3636 39.2424C14.2512 38.8065 14.1433 38.3705 14.0398 37.9346C14.1433 38.3705 14.2512 38.8065 14.3636 39.2424Z" fill="#7D8B9B"/>
<path fill-rule="evenodd" clip-rule="evenodd" d="M14.937 41.3306C14.8835 41.1474 14.8309 40.9648 14.7791 40.7816C14.8309 40.9648 14.8835 41.1474 14.937 41.3306Z" fill="#7D8B9B"/>
<path fill-rule="evenodd" clip-rule="evenodd" d="M19.6684 53.0374C19.5744 52.8621 19.4813 52.6853 19.3894 52.5092C19.4813 52.6853 19.5744 52.8621 19.6684 53.0374Z" fill="#7D8B9B"/>
<path fill-rule="evenodd" clip-rule="evenodd" d="M21.7318 56.5753C21.6244 56.4064 21.5179 56.2368 21.4126 56.0665C21.5179 56.2368 21.6244 56.4064 21.7319 56.5753H21.7318Z" fill="#7D8B9B"/>
<path fill-rule="evenodd" clip-rule="evenodd" d="M45.8667 76.9528C39.5947 74.1912 34.427 70.7151 30.1816 66.7628C34.427 70.7151 39.5948 74.1912 45.8667 76.9528Z" fill="#7E8283"/>
<path fill-rule="evenodd" clip-rule="evenodd" d="M50.0518 81.6506C50.0441 81.6481 50.0365 81.6457 50.0288 81.6432C50.0277 81.6437 50.0266 81.6437 50.0255 81.6437C50.0173 81.6437 50.0053 81.6359 50.0053 81.6359C49.9911 81.6315 49.979 81.6281 49.9648 81.6237C48.5053 81.1806 47.1108 80.696 45.7836 80.1742C40.9984 78.294 37.0554 75.9272 33.8164 73.2361C33.2546 72.7691 32.7121 72.2909 32.192 71.8057C31.9627 71.5916 31.7395 71.3779 31.5181 71.1607C29.9447 69.6155 28.5673 67.9846 27.3685 66.2995C27.2867 66.1845 27.2056 66.0691 27.1255 65.9532C26.6537 65.2735 26.2113 64.5864 25.7945 63.8906C25.723 63.7713 25.6521 63.651 25.5822 63.5312C24.137 61.0553 23.0259 58.4938 22.1848 55.9197C22.144 55.795 22.104 55.6708 22.0645 55.5461C21.9542 55.1974 21.8482 54.8468 21.7475 54.4981C21.6617 54.2013 21.5794 53.9044 21.5004 53.6076C20.8661 51.2242 20.4478 48.852 20.195 46.5487C20.0618 45.3355 19.9745 44.1403 19.926 42.975C19.896 42.2537 19.8808 41.5417 19.8784 40.8439C19.8784 40.7852 19.8784 40.728 19.8784 40.6693C19.8784 35.8776 20.4934 31.709 21.154 28.8479C40.4404 25.6928 50.0206 13.6361 50.0206 13.6361L50.0288 13.6411L50.0365 13.6361C50.0365 13.6361 59.6165 25.6928 78.9031 28.8479C79.5639 31.709 80.1788 35.8776 80.1788 40.6693C80.1788 45.5267 79.5481 51.0261 77.6946 56.4512C77.6602 56.5515 77.6257 56.6517 77.5907 56.752C77.5261 56.9368 77.4605 57.1192 77.3932 57.3036C77.0551 58.2263 76.6804 59.1467 76.2668 60.0597C76.2012 60.2044 76.1339 60.3501 76.0666 60.4944C75.1169 62.5233 73.9697 64.5155 72.5928 66.4334C72.5014 66.5606 72.4095 66.6872 72.3165 66.8134C71.2858 68.2095 70.1321 69.5636 68.8399 70.8615C67.4176 72.2909 65.8278 73.6518 64.0559 74.9227C63.9476 75.0005 63.8371 75.0787 63.7277 75.1555C61.0159 77.0597 57.8851 78.7551 54.2734 80.1742C52.9403 80.698 51.5453 81.1831 50.0791 81.6276C50.0709 81.63 50.06 81.6334 50.0518 81.6359V81.6506ZM50.0288 75.979C50.0348 75.9809 50.0414 75.9829 50.048 75.9849V75.9731C70.596 69.7524 74.9571 53.7147 74.9561 42.1031C74.9555 38.1411 74.4473 34.6946 73.9013 32.3291C57.9557 29.7206 50.0354 19.7524 50.0354 19.7524L50.0288 19.7566L50.0217 19.7524C50.0217 19.7524 42.1014 29.7206 26.1559 32.3291C25.6097 34.6946 25.1012 38.1411 25.1012 42.1031C25.1001 53.7147 29.4608 69.7524 50.0091 75.9731C50.0091 75.9731 50.0195 75.9795 50.0261 75.9795H50.0266C50.0272 75.9795 50.0277 75.979 50.0288 75.979Z" fill="#7D8B9B"/>
<path fill-rule="evenodd" clip-rule="evenodd" d="M50.0479 75.9767C50.0413 75.9748 50.0347 75.9728 50.0287 75.9709C50.0276 75.9709 50.0271 75.9714 50.0265 75.9714H50.026C50.0194 75.9714 50.009 75.965 50.009 75.965C29.411 69.7439 25.0397 53.7052 25.0408 42.0929C25.0408 38.1307 25.5505 34.684 26.098 32.3184C42.0821 29.7097 50.0216 19.7409 50.0216 19.7409L50.0287 19.7451L50.0353 19.7409C50.0353 19.7409 57.9748 29.7097 73.959 32.3184C74.5063 34.684 75.0157 38.1307 75.0163 42.0929C75.0173 53.7052 70.6457 69.7439 50.0479 75.965V75.9767Z" fill="#9EA7B2"/>
<path fill-rule="evenodd" clip-rule="evenodd" d="M50.5204 50.69C49.7876 52.3541 47.5405 55.5343 47.443 56.1218C47.3455 56.7086 47.785 57.7363 48.127 57.5891C48.469 57.4426 51.497 54.164 52.523 52.4029C53.549 50.6411 53.549 44.9651 53.549 44.9651L52.551 43.263C52.551 43.263 51.2532 49.0266 50.5204 50.69Z" fill="#E3C4AD"/>
<path fill-rule="evenodd" clip-rule="evenodd" d="M52.5718 43.1919C52.5718 43.1919 51.2776 46.556 50.6423 49.5279C50.6667 49.7606 51.644 51.4362 51.9251 51.5468C52.2054 51.6567 53.3899 42.8981 52.5718 43.1919Z" fill="#CD7A55"/>
<path fill-rule="evenodd" clip-rule="evenodd" d="M63.6224 25.3293C62.7771 25.9089 61.7976 36.9212 61.7087 37.1891C63.6669 38.7045 68.5634 37.7687 68.5634 37.7687C68.5634 37.7687 68.5834 31.4254 67.4505 28.8959C65.8925 25.4183 63.6224 25.3293 63.6224 25.3293Z" fill="#E98B60"/>
<path fill-rule="evenodd" clip-rule="evenodd" d="M64.8094 25.3293C63.9634 25.9089 62.9839 36.9212 62.895 37.1891C64.8539 38.7045 69.7496 37.7687 69.7496 37.7687C69.7496 37.7687 69.7697 31.4254 68.6368 28.8959C67.0795 25.4183 64.8094 25.3293 64.8094 25.3293Z" fill="#E98B60"/>
<path fill-rule="evenodd" clip-rule="evenodd" d="M44.6207 16.7143C43.9259 17.2365 46.2419 22.631 47.169 23.2106C47.516 23.6745 51.6854 23.9647 52.4383 23.9647C53.1911 23.9647 51.1641 14.8003 51.1641 14.8003C51.1641 14.8003 46.4161 16.7143 44.6207 16.7143Z" fill="#CBE2FF"/>
<path fill-rule="evenodd" clip-rule="evenodd" d="M70.9808 80.1014C70.7464 80.0267 70.5083 76.4076 70.2323 71.5058C69.2557 71.6258 68.2712 71.6796 67.3062 71.8908C68.0081 75.2477 68.6319 78.5385 69.0557 81.3776C70.1412 82.2294 71.5924 80.296 70.9808 80.1014Z" fill="#F6D3B9"/>
<path fill-rule="evenodd" clip-rule="evenodd" d="M70.9774 79.0679L68.7561 79.218L68.7102 80.3513C68.6923 80.7801 69.0171 81.145 69.4451 81.1773C70.8031 81.28 73.4969 81.4186 73.5564 80.8993C73.6367 80.2041 70.9774 79.0679 70.9774 79.0679Z" fill="#251E28"/>
<path fill-rule="evenodd" clip-rule="evenodd" d="M55.9202 71.3163C56.2356 76.2152 56.4343 79.8364 56.2105 79.9391C55.6262 80.2063 57.2997 81.9508 58.2748 80.974C58.3544 78.1041 58.5781 74.7615 58.8714 71.345C57.8883 71.2516 56.9039 71.3177 55.9202 71.3163Z" fill="#F6D3B9"/>
<path fill-rule="evenodd" clip-rule="evenodd" d="M56.2085 78.9494C56.2085 78.9494 53.5491 80.0849 53.6287 80.7801C53.6889 81.3001 56.3827 81.1615 57.7407 81.058C58.1681 81.0257 58.4929 80.6616 58.4757 80.2321L58.4298 79.0995L56.2085 78.9494Z" fill="#251E28"/>
<path fill-rule="evenodd" clip-rule="evenodd" d="M59.3351 6.01719C59.3351 6.01719 56.1452 8.12772 55.9215 7.60285C55.91 12.0772 54.4114 13.6497 54.1418 13.8889C55.0761 15.3519 63.7046 14.0785 63.1367 12.8935C61.783 12.0453 59.3351 6.01719 59.3351 6.01719Z" fill="#E3C4AD"/>
<path fill-rule="evenodd" clip-rule="evenodd" d="M53.7701 38.0014C53.7701 38.0014 53.3793 60.8957 55.1001 76.9815C54.9646 77.1014 57.8176 77.5596 59.4079 77.4907C59.1541 77.4749 61.2621 48.582 61.2621 48.582C61.2621 48.582 66.0029 74.5439 67.5667 77.7191C68.6523 77.7191 69.9694 77.467 71.4751 77.2846C71.7189 78.8811 70.1716 51.1008 68.577 35.3138C69.0939 35.2169 53.7701 38.0014 53.7701 38.0014Z" fill="#251E28"/>
<path fill-rule="evenodd" clip-rule="evenodd" d="M69.592 30.9249C68.3165 26.6292 69.3009 14.4132 68.2319 13.0709C67.1635 11.7283 64.5966 11.9582 62.2033 11.4312C60.1734 13.3553 58.6985 14.5454 55.2433 12.5487C52.4075 13.0185 50.3533 15.0905 50.3533 15.0905C50.3533 15.0905 51.1958 20.4893 51.6718 23.2027C52.1479 25.9168 54.0932 33.96 53.0693 40.4196C52.9868 40.941 57.3427 41.7059 57.8059 41.7131C59.6127 41.7418 61.3558 41.4215 63.1476 41.3174C64.8971 41.2154 66.7183 40.8828 68.1243 39.7617C69.3518 38.7835 70.1004 37.2487 70.1814 35.6852C70.218 34.9871 69.9835 34.3881 69.9333 33.7115C69.8616 32.7419 69.8745 31.8779 69.592 30.9249Z" fill="#94C5FF"/>
<path fill-rule="evenodd" clip-rule="evenodd" d="M48.3691 17.1532C48.3691 17.1532 44.9274 22.8005 47.0046 27.5565C48.2085 30.3122 50.9109 31.73 53.1178 32.0489C53.044 30.4882 52.2617 26.1251 52.2452 26.0317C49.3184 22.4148 48.3691 17.1532 48.3691 17.1532Z" fill="#CD7A55"/>
<path fill-rule="evenodd" clip-rule="evenodd" d="M35.1471 48.4075C35.1471 48.4075 34.7591 68.4635 33.2173 80.1969C34.0264 81.3159 35.9535 79.8579 35.419 79.5024C34.8373 79.1146 42.1012 51.1992 42.2073 45.4111C42.2697 42.032 35.1471 48.4075 35.1471 48.4075Z" fill="#F6D3B9"/>
<path fill-rule="evenodd" clip-rule="evenodd" d="M35.3945 79.3688L33.3759 79.0765L33.1178 80.0827C33.0201 80.4641 33.2414 80.8526 33.6182 80.9639C34.8152 81.3173 37.2022 81.958 37.3551 81.504C37.5598 80.8964 35.3945 79.3688 35.3945 79.3688Z" fill="#251E28"/>
<path fill-rule="evenodd" clip-rule="evenodd" d="M49.3094 45.0255C49.0613 41.6556 42.5537 48.6596 42.5537 48.6596C42.5537 48.6596 44.0071 68.6668 43.5475 80.4921C44.4559 81.5321 46.2413 79.9032 45.6763 79.5972C45.0618 79.2654 49.7345 50.7992 49.3094 45.0255Z" fill="#F6D3B9"/>
<path fill-rule="evenodd" clip-rule="evenodd" d="M38.0162 31.7846C38.0162 31.7846 32.0999 45.4751 32.0999 48.5943C32.0999 51.7134 48.1889 51.7134 50.2653 49.6335C50.9135 48.9842 50.5435 37.0433 46.4293 31.804C46.0407 32.0639 38.0162 31.7846 38.0162 31.7846Z" fill="#251E28"/>
<path fill-rule="evenodd" clip-rule="evenodd" d="M46.5511 32.2443C46.4321 32.3535 46.4242 32.5382 46.5325 32.6568C46.6408 32.7761 46.825 32.7847 46.9441 32.6762C46.9663 32.6554 46.9835 32.6316 46.9986 32.6065C46.9025 32.4577 46.8035 32.3133 46.7032 32.1717C46.6487 32.1803 46.5956 32.204 46.5511 32.2443Z" fill="#FFFFFE"/>
<path fill-rule="evenodd" clip-rule="evenodd" d="M38.2003 37.5173C38.0396 37.5266 37.9168 37.6646 37.926 37.8256C37.9352 37.9866 38.0729 38.1095 38.2335 38.1002C38.3942 38.0908 38.5169 37.9528 38.5077 37.7918C38.4985 37.6309 38.3609 37.508 38.2003 37.5173Z" fill="#FFFFFE"/>
<path fill-rule="evenodd" clip-rule="evenodd" d="M40.1924 37.8175C40.0318 37.8268 39.909 37.9648 39.9182 38.1258C39.9274 38.2868 40.0651 38.4097 40.2257 38.4004C40.3863 38.3917 40.5089 38.2537 40.4996 38.0928C40.491 37.9318 40.3531 37.8081 40.1924 37.8175Z" fill="#FFFFFE"/>
<path fill-rule="evenodd" clip-rule="evenodd" d="M38.3191 39.264C38.1585 39.2733 38.0357 39.4113 38.0449 39.5723C38.0541 39.7333 38.1918 39.8562 38.3524 39.8476C38.513 39.8382 38.6358 39.7002 38.6266 39.5392C38.6174 39.3783 38.4797 39.2554 38.3191 39.264Z" fill="#FFFFFE"/>
<path fill-rule="evenodd" clip-rule="evenodd" d="M35.605 40.6925C35.4444 40.7019 35.3216 40.8399 35.3308 41.0008C35.34 41.1618 35.4777 41.2847 35.6383 41.2761C35.7989 41.2668 35.9217 41.1288 35.9125 40.9678C35.9033 40.8068 35.7656 40.6832 35.605 40.6925Z" fill="#FFFFFE"/>
<path fill-rule="evenodd" clip-rule="evenodd" d="M36.7935 39.4177C36.6329 39.427 36.51 39.565 36.5193 39.726C36.5284 39.887 36.6661 40.0099 36.8267 40.0005C36.9873 39.9912 37.1102 39.8532 37.1009 39.6922C37.0918 39.5312 36.9541 39.4083 36.7935 39.4177Z" fill="#FFFFFE"/>
<path fill-rule="evenodd" clip-rule="evenodd" d="M36.1761 36.8508C36.0154 36.8601 35.8927 36.9981 35.9019 37.1591C35.911 37.3201 36.0488 37.443 36.2094 37.4337C36.37 37.4243 36.4927 37.2863 36.4836 37.1253C36.4744 36.9644 36.3367 36.8414 36.1761 36.8508Z" fill="#FFFFFE"/>
<path fill-rule="evenodd" clip-rule="evenodd" d="M37.3648 35.576C37.2041 35.5846 37.0814 35.7226 37.0906 35.8836C37.0997 36.0446 37.2374 36.1682 37.398 36.1589C37.5587 36.1495 37.6815 36.0115 37.6723 35.8505C37.6631 35.6895 37.5254 35.5666 37.3648 35.576Z" fill="#FFFFFE"/>
<path fill-rule="evenodd" clip-rule="evenodd" d="M39.4151 35.8733C39.2544 35.8819 39.1317 36.0206 39.1409 36.1816C39.15 36.3426 39.2877 36.4655 39.4484 36.4562C39.609 36.4468 39.7318 36.3088 39.7226 36.1479C39.7134 35.9869 39.5757 35.864 39.4151 35.8733Z" fill="#FFFFFE"/>
<path fill-rule="evenodd" clip-rule="evenodd" d="M40.8887 35.6377C40.728 35.6471 40.6054 35.7851 40.6148 35.946C40.6241 36.107 40.7617 36.2299 40.9224 36.2206C41.083 36.212 41.2056 36.074 41.1962 35.913C41.1869 35.7513 41.0493 35.6284 40.8887 35.6377Z" fill="#FFFFFE"/>
<path fill-rule="evenodd" clip-rule="evenodd" d="M40.3301 33.7072C40.1695 33.7166 40.0467 33.8546 40.0559 34.0155C40.0651 34.1765 40.2028 34.3001 40.3634 34.2908C40.524 34.2815 40.6466 34.1435 40.6373 33.9825C40.6287 33.8215 40.491 33.6986 40.3301 33.7072Z" fill="#FFFFFE"/>
<path fill-rule="evenodd" clip-rule="evenodd" d="M40.3484 32.1051C40.4874 32.0972 40.5978 31.9922 40.6193 31.86C40.4207 31.8557 40.2282 31.8506 40.0435 31.8456C40.0605 31.9987 40.1932 32.1137 40.3484 32.1051Z" fill="#FFFFFE"/>
<path fill-rule="evenodd" clip-rule="evenodd" d="M46.3279 35.3627C46.1673 35.3713 46.0446 35.5093 46.054 35.671C46.0633 35.832 46.201 35.9549 46.3616 35.9455C46.5222 35.9362 46.6448 35.7982 46.6355 35.6372C46.6261 35.4762 46.4885 35.3533 46.3279 35.3627Z" fill="#FFFFFE"/>
<path fill-rule="evenodd" clip-rule="evenodd" d="M45.1513 33.3782C44.9907 33.3869 44.8674 33.5249 44.8767 33.6866C44.886 33.8476 45.0237 33.9704 45.1843 33.9611C45.3449 33.9518 45.4675 33.8138 45.4589 33.6528C45.4496 33.4918 45.3119 33.3689 45.1513 33.3782Z" fill="#FFFFFE"/>
<path fill-rule="evenodd" clip-rule="evenodd" d="M42.0127 36.6957C41.8521 36.7043 41.7295 36.8423 41.7388 37.004C41.7474 37.165 41.885 37.2879 42.0457 37.2785C42.2063 37.2692 42.3296 37.1312 42.3203 36.9702C42.311 36.8092 42.1733 36.6863 42.0127 36.6957Z" fill="#FFFFFE"/>
<path fill-rule="evenodd" clip-rule="evenodd" d="M42.9043 34.8341C42.7437 34.8434 42.6211 34.9814 42.6304 35.1424C42.6397 35.3034 42.7774 35.4263 42.938 35.4169C43.0986 35.4076 43.2212 35.2696 43.2119 35.1086C43.2026 34.9476 43.0649 34.8247 42.9043 34.8341Z" fill="#FFFFFE"/>
<path fill-rule="evenodd" clip-rule="evenodd" d="M44.3783 34.5985C44.2177 34.6078 44.0951 34.7458 44.1037 34.9068C44.113 35.0678 44.2507 35.1907 44.4113 35.1821C44.5719 35.1727 44.6945 35.0347 44.6859 34.8738C44.6766 34.7128 44.5389 34.5891 44.3783 34.5985Z" fill="#FFFFFE"/>
<path fill-rule="evenodd" clip-rule="evenodd" d="M44.4966 36.3459C44.3359 36.3552 44.2133 36.4932 44.2227 36.6542C44.232 36.8152 44.3697 36.9381 44.5303 36.9287C44.6909 36.9194 44.8135 36.7814 44.8042 36.6204C44.7948 36.4594 44.6572 36.3365 44.4966 36.3459Z" fill="#FFFFFE"/>
<path fill-rule="evenodd" clip-rule="evenodd" d="M42.5849 32.8533C42.4242 32.8626 42.3016 33.0006 42.3102 33.1616C42.3196 33.3226 42.4572 33.4455 42.6178 33.4368C42.7785 33.4275 42.9011 33.2895 42.8925 33.1285C42.8831 32.9675 42.7455 32.8439 42.5849 32.8533Z" fill="#FFFFFE"/>
<path fill-rule="evenodd" clip-rule="evenodd" d="M43.6354 38.0057C43.5163 38.1143 43.5085 38.299 43.6167 38.4183C43.725 38.5376 43.9093 38.5455 44.0283 38.437C44.1473 38.3284 44.1552 38.1437 44.0469 38.0244C43.9387 37.9051 43.7544 37.8972 43.6354 38.0057Z" fill="#FFFFFE"/>
<path fill-rule="evenodd" clip-rule="evenodd" d="M43.5441 39.5513C43.425 39.6606 43.4172 39.8453 43.5254 39.9639C43.6337 40.0832 43.818 40.0918 43.937 39.9825C44.056 39.874 44.0639 39.6893 43.9556 39.57C43.8474 39.4514 43.6631 39.4428 43.5441 39.5513Z" fill="#FFFFFE"/>
<path fill-rule="evenodd" clip-rule="evenodd" d="M45.8592 39.9277C45.7409 40.0362 45.7323 40.2209 45.8406 40.3402C45.9489 40.4588 46.1331 40.4674 46.2522 40.3589C46.3712 40.2496 46.3798 40.0649 46.2708 39.9463C46.1625 39.827 45.9783 39.8184 45.8592 39.9277Z" fill="#FFFFFE"/>
<path fill-rule="evenodd" clip-rule="evenodd" d="M43.7646 41.1946C43.6455 41.3038 43.6369 41.4885 43.7459 41.6071C43.8542 41.7264 44.0385 41.735 44.1575 41.6258C44.2758 41.5173 44.2844 41.3326 44.1761 41.2133C44.0671 41.0947 43.8836 41.0861 43.7646 41.1946Z" fill="#FFFFFE"/>
<path fill-rule="evenodd" clip-rule="evenodd" d="M45.2736 37.485C45.1545 37.5936 45.1466 37.7783 45.2549 37.8976C45.3632 38.0162 45.5475 38.0248 45.6665 37.9163C45.7855 37.807 45.7941 37.6223 45.6851 37.5037C45.5769 37.3844 45.3926 37.3758 45.2736 37.485Z" fill="#FFFFFE"/>
<path fill-rule="evenodd" clip-rule="evenodd" d="M37.2974 42.937C37.1785 43.0455 37.1701 43.2302 37.2786 43.3495C37.387 43.4688 37.5714 43.4767 37.6902 43.3682C37.809 43.2597 37.8174 43.0749 37.7088 42.9556C37.6004 42.8363 37.4161 42.8284 37.2974 42.937Z" fill="#FFFFFE"/>
<path fill-rule="evenodd" clip-rule="evenodd" d="M38.3866 41.7103C38.2678 41.8188 38.2594 42.0035 38.3679 42.1228C38.4764 42.2421 38.6608 42.25 38.7795 42.1415C38.8984 42.033 38.9067 41.8483 38.7983 41.729C38.6897 41.6096 38.5055 41.6017 38.3866 41.7103Z" fill="#FFFFFE"/>
<path fill-rule="evenodd" clip-rule="evenodd" d="M41.8136 43.2638C41.6953 43.3723 41.6867 43.557 41.7949 43.6763C41.9039 43.7949 42.0882 43.8035 42.2065 43.695C42.3255 43.5857 42.3341 43.4017 42.2252 43.2824C42.1169 43.1631 41.9326 43.1545 41.8136 43.2638Z" fill="#FFFFFE"/>
<path fill-rule="evenodd" clip-rule="evenodd" d="M43.7193 43.6343C43.601 43.7436 43.5924 43.9283 43.7007 44.0469C43.809 44.1662 43.9932 44.1748 44.1123 44.0655C44.2313 43.957 44.2399 43.7723 44.1309 43.653C44.0226 43.5344 43.8384 43.5258 43.7193 43.6343Z" fill="#FFFFFE"/>
<path fill-rule="evenodd" clip-rule="evenodd" d="M39.3845 43.6968C39.2656 43.8053 39.2572 43.9901 39.3657 44.1094C39.4743 44.2279 39.6586 44.2366 39.7774 44.128C39.8962 44.0195 39.9046 43.8348 39.7961 43.7155C39.6875 43.5962 39.5033 43.5876 39.3845 43.6968Z" fill="#FFFFFE"/>
<path fill-rule="evenodd" clip-rule="evenodd" d="M44.3813 42.6188C44.2622 42.728 44.2536 42.9127 44.3626 43.0313C44.4709 43.1506 44.6552 43.1593 44.7742 43.0507C44.8925 42.9415 44.9011 42.7568 44.7928 42.6375C44.6846 42.5189 44.5003 42.5103 44.3813 42.6188Z" fill="#FFFFFE"/>
<path fill-rule="evenodd" clip-rule="evenodd" d="M46.1173 41.8453C45.999 41.9545 45.9904 42.1392 46.0987 42.2578C46.2069 42.3771 46.3912 42.3857 46.5102 42.2765C46.6292 42.168 46.6378 41.9833 46.5289 41.864C46.4206 41.7454 46.2363 41.7368 46.1173 41.8453Z" fill="#FFFFFE"/>
<path fill-rule="evenodd" clip-rule="evenodd" d="M46.6598 43.8922C46.5408 44.0007 46.5322 44.1854 46.6412 44.3047C46.7495 44.424 46.9337 44.4327 47.0527 44.3234C47.1711 44.2149 47.1797 44.0302 47.0714 43.9109C46.9624 43.7916 46.7781 43.7837 46.6598 43.8922Z" fill="#FFFFFE"/>
<path fill-rule="evenodd" clip-rule="evenodd" d="M48.1527 42.5951C48.0337 42.7036 48.0251 42.8883 48.1341 43.0076C48.2424 43.1269 48.4266 43.1348 48.5457 43.0263C48.664 42.9178 48.6726 42.7331 48.5643 42.6138C48.456 42.4945 48.2718 42.4866 48.1527 42.5951Z" fill="#FFFFFE"/>
<path fill-rule="evenodd" clip-rule="evenodd" d="M38.0092 31.7996C37.9897 31.8456 37.9234 31.9994 37.8184 32.2459C37.8267 32.2589 37.8354 32.2718 37.8461 32.2833C37.9546 32.4026 38.1389 32.4112 38.2577 32.302C38.3765 32.1935 38.3849 32.0088 38.2764 31.8895C38.2063 31.8126 38.1046 31.7824 38.0092 31.7996Z" fill="#FFFFFE"/>
<path fill-rule="evenodd" clip-rule="evenodd" d="M37.446 33.4774C37.3272 33.5867 37.3188 33.7714 37.4273 33.89C37.5357 34.0093 37.72 34.0179 37.8388 33.9086C37.9576 33.8001 37.966 33.6154 37.8575 33.4961C37.749 33.3775 37.5648 33.3689 37.446 33.4774Z" fill="#FFFFFE"/>
<path fill-rule="evenodd" clip-rule="evenodd" d="M36.6445 35.0541C36.6834 35.0419 36.7204 35.0218 36.7525 34.9923C36.8521 34.9011 36.8731 34.7573 36.8141 34.643C36.7587 34.7774 36.7024 34.9133 36.6445 35.0541Z" fill="#FFFFFE"/>
<path fill-rule="evenodd" clip-rule="evenodd" d="M35.7006 42.1965C35.6024 42.2863 35.581 42.4279 35.6374 42.5415C35.6292 42.4301 35.6847 42.3194 35.7888 42.2626C35.9304 42.1857 36.1071 42.2389 36.1837 42.3805L36.1862 42.3869C36.1809 42.3251 36.1572 42.264 36.1123 42.2152C36.0037 42.0959 35.8195 42.0872 35.7006 42.1965Z" fill="#FFFFFE"/>
<path fill-rule="evenodd" clip-rule="evenodd" d="M39.4088 42.6561C39.29 42.7647 39.2817 42.9494 39.3902 43.0687C39.4987 43.188 39.6829 43.1959 39.8017 43.0874C39.9205 42.9788 39.9289 42.7941 39.8205 42.6748C39.712 42.5555 39.5277 42.5476 39.4088 42.6561Z" fill="#FFFFFE"/>
<path fill-rule="evenodd" clip-rule="evenodd" d="M39.9421 40.6401C39.8233 40.7486 39.8149 40.9333 39.9233 41.0526C40.0318 41.1719 40.2161 41.1806 40.3349 41.0713C40.454 40.9628 40.4619 40.7781 40.3536 40.6588C40.2451 40.5402 40.0609 40.5316 39.9421 40.6401Z" fill="#FFFFFE"/>
<path fill-rule="evenodd" clip-rule="evenodd" d="M41.5533 40.3141C41.435 40.4226 41.4264 40.6073 41.5347 40.7266C41.6437 40.8452 41.8272 40.8538 41.9463 40.7453C42.0653 40.636 42.0739 40.4513 41.9649 40.3327C41.8566 40.2134 41.6724 40.2048 41.5533 40.3141Z" fill="#FFFFFE"/>
<path fill-rule="evenodd" clip-rule="evenodd" d="M41.1346 41.9207C41.0156 42.0292 41.0077 42.2139 41.116 42.3332C41.2243 42.4525 41.4085 42.4604 41.5276 42.3519C41.6466 42.2434 41.6545 42.0587 41.5462 41.9394C41.4379 41.8201 41.2537 41.8122 41.1346 41.9207Z" fill="#FFFFFE"/>
<path fill-rule="evenodd" clip-rule="evenodd" d="M41.6722 38.5731C41.5532 38.6824 41.5453 38.8671 41.6536 38.9856C41.7619 39.105 41.9461 39.1136 42.0652 39.0051C42.1842 38.8958 42.1921 38.7111 42.0838 38.5925C41.9755 38.4732 41.7913 38.4646 41.6722 38.5731Z" fill="#FFFFFE"/>
<path fill-rule="evenodd" clip-rule="evenodd" d="M47.2751 33.7596C47.1145 33.769 46.9912 33.907 47.0005 34.068C47.0098 34.2289 47.1475 34.3526 47.3081 34.3432C47.4687 34.3339 47.5913 34.1959 47.582 34.0349C47.5734 33.8739 47.4357 33.751 47.2751 33.7596Z" fill="#FFFFFE"/>
<path fill-rule="evenodd" clip-rule="evenodd" d="M48.8961 39.2059C48.7778 39.3144 48.7692 39.4991 48.8775 39.6184C48.9857 39.7377 49.1707 39.7456 49.289 39.6371C49.4081 39.5286 49.4167 39.3439 49.3077 39.2246C49.1994 39.1053 49.0151 39.0973 48.8961 39.2059Z" fill="#FFFFFE"/>
<path fill-rule="evenodd" clip-rule="evenodd" d="M48.1303 40.7716C48.0113 40.8801 48.0027 41.0648 48.1116 41.1841C48.2199 41.3027 48.4042 41.3113 48.5232 41.2028C48.6415 41.0935 48.6501 40.9088 48.5418 40.7902C48.4329 40.6709 48.2486 40.6623 48.1303 40.7716Z" fill="#FFFFFE"/>
<path fill-rule="evenodd" clip-rule="evenodd" d="M46.4913 38.5983C46.3723 38.7075 46.3644 38.8922 46.4727 39.0108C46.581 39.1301 46.7652 39.1387 46.8843 39.0295C47.0033 38.921 47.0112 38.7362 46.9029 38.6169C46.7946 38.4983 46.6104 38.4897 46.4913 38.5983Z" fill="#FFFFFE"/>
<path fill-rule="evenodd" clip-rule="evenodd" d="M47.025 36.5822C46.906 36.6915 46.8981 36.8762 47.0064 36.9948C47.1146 37.1141 47.2989 37.1227 47.4179 37.0142C47.537 36.9049 47.5449 36.7202 47.4366 36.6016C47.3283 36.4823 47.144 36.4737 47.025 36.5822Z" fill="#FFFFFE"/>
<path fill-rule="evenodd" clip-rule="evenodd" d="M48.6363 36.2561C48.5177 36.3647 48.5091 36.5494 48.6176 36.6687C48.6852 36.742 48.7808 36.7729 48.8728 36.7607C48.8138 36.5781 48.7535 36.397 48.6909 36.2173C48.6715 36.2281 48.6536 36.241 48.6363 36.2561Z" fill="#FFFFFE"/>
<path fill-rule="evenodd" clip-rule="evenodd" d="M48.2174 37.8628C48.0984 37.9713 48.0905 38.156 48.1988 38.2753C48.307 38.3946 48.4913 38.4033 48.6103 38.294C48.7293 38.1855 48.7372 38.0008 48.629 37.8815C48.5207 37.7629 48.3364 37.7543 48.2174 37.8628Z" fill="#FFFFFE"/>
<path fill-rule="evenodd" clip-rule="evenodd" d="M48.0905 48.6453C47.9493 48.7214 47.8962 48.899 47.9729 49.0405C48.0496 49.1828 48.226 49.2353 48.368 49.1591C48.5092 49.0822 48.5616 48.9047 48.4856 48.7631C48.4089 48.6215 48.2318 48.5684 48.0905 48.6453Z" fill="#FFFFFE"/>
<path fill-rule="evenodd" clip-rule="evenodd" d="M46.5617 49.4949C46.4204 49.5711 46.3674 49.7486 46.4441 49.8902C46.5208 50.0325 46.6972 50.085 46.8392 50.0081C46.9804 49.9319 47.0328 49.7544 46.9568 49.6128C46.88 49.4705 46.703 49.418 46.5617 49.4949Z" fill="#FFFFFE"/>
<path fill-rule="evenodd" clip-rule="evenodd" d="M43.3531 44.7583C43.2111 44.8345 43.1588 45.012 43.2355 45.1536C43.3115 45.2959 43.4886 45.3484 43.6299 45.2722C43.7718 45.1953 43.8242 45.0178 43.7475 44.8762C43.6715 44.7339 43.4944 44.6814 43.3531 44.7583Z" fill="#FFFFFE"/>
<path fill-rule="evenodd" clip-rule="evenodd" d="M44.1911 45.9951C44.0498 46.0713 43.9968 46.2488 44.0735 46.3904C44.1502 46.5327 44.3266 46.5851 44.4686 46.5082C44.6098 46.432 44.6629 46.2545 44.5862 46.1129C44.5094 45.9706 44.3331 45.9182 44.1911 45.9951Z" fill="#FFFFFE"/>
<path fill-rule="evenodd" clip-rule="evenodd" d="M44.1181 47.6398C43.9768 47.7167 43.9238 47.8935 44.0005 48.0358C44.0772 48.1773 44.2536 48.2305 44.3949 48.1536C44.5368 48.0767 44.5892 47.8999 44.5132 47.7576C44.4364 47.616 44.2593 47.5629 44.1181 47.6398Z" fill="#FFFFFE"/>
<path fill-rule="evenodd" clip-rule="evenodd" d="M41.8525 45.6216C41.7112 45.6985 41.6582 45.876 41.7349 46.0176C41.8116 46.1592 41.988 46.2124 42.13 46.1355C42.2712 46.0593 42.3243 45.8818 42.2475 45.7402C42.1708 45.5979 41.9944 45.5454 41.8525 45.6216Z" fill="#FFFFFE"/>
<path fill-rule="evenodd" clip-rule="evenodd" d="M45.7751 48.1763C45.6338 48.2532 45.5808 48.43 45.6575 48.5723C45.7342 48.7139 45.9106 48.7663 46.0526 48.6902C46.1938 48.6133 46.2469 48.4357 46.1702 48.2942C46.0934 48.1526 45.9163 48.0994 45.7751 48.1763Z" fill="#FFFFFE"/>
<path fill-rule="evenodd" clip-rule="evenodd" d="M48.9105 44.4444C48.7685 44.5213 48.7162 44.6989 48.7922 44.8404C48.8689 44.982 49.046 45.0352 49.1872 44.9583C49.3292 44.8814 49.3815 44.7046 49.3048 44.5623C49.2281 44.4207 49.0517 44.3675 48.9105 44.4444Z" fill="#FFFFFE"/>
<path fill-rule="evenodd" clip-rule="evenodd" d="M47.8329 46.5265C47.6916 46.6027 47.6393 46.7802 47.7153 46.9218C47.792 47.0641 47.9691 47.1166 48.1103 47.0397C48.2516 46.9635 48.3047 46.786 48.2279 46.6444C48.1512 46.5021 47.9748 46.4496 47.8329 46.5265Z" fill="#FFFFFE"/>
<path fill-rule="evenodd" clip-rule="evenodd" d="M46.3782 45.7308C46.2363 45.8077 46.1839 45.9845 46.2607 46.1268C46.3367 46.2683 46.5138 46.3208 46.655 46.2446C46.797 46.1677 46.8493 45.9902 46.7733 45.8486C46.6966 45.707 46.5195 45.6539 46.3782 45.7308Z" fill="#FFFFFE"/>
<path fill-rule="evenodd" clip-rule="evenodd" d="M49.4905 47.0631C49.3486 47.1392 49.2962 47.3168 49.3722 47.4583C49.449 47.6006 49.6261 47.6531 49.7673 47.5762C49.9093 47.5 49.9616 47.3225 49.8849 47.1809C49.8089 47.0386 49.6318 46.9862 49.4905 47.0631Z" fill="#FFFFFE"/>
<path fill-rule="evenodd" clip-rule="evenodd" d="M50.0927 49.0482C49.9515 49.1251 49.8984 49.3019 49.9751 49.4442C50.0389 49.5628 50.1737 49.6181 50.2985 49.5879C50.3508 49.4995 50.3953 49.3299 50.4297 49.0934C50.3408 49.0094 50.206 48.9871 50.0927 49.0482Z" fill="#FFFFFE"/>
<path fill-rule="evenodd" clip-rule="evenodd" d="M43.2032 50.2454C43.0548 50.1836 42.8841 50.2548 42.8225 50.4035C42.7615 50.553 42.8318 50.7233 42.9809 50.7852C43.1294 50.847 43.3 50.7758 43.3609 50.627C43.4226 50.4783 43.3516 50.3072 43.2032 50.2454Z" fill="#FFFFFE"/>
<path fill-rule="evenodd" clip-rule="evenodd" d="M44.7748 50.7123C44.6256 50.6512 44.4557 50.7216 44.394 50.8711C44.3768 50.9128 44.3711 50.9566 44.3732 50.9997C44.5683 50.9868 44.7619 50.9731 44.9519 50.9573C44.9433 50.8524 44.8787 50.7554 44.7748 50.7123Z" fill="#FFFFFE"/>
<path fill-rule="evenodd" clip-rule="evenodd" d="M50.3751 45.8378C50.226 45.776 50.0561 45.8471 49.9944 45.9959C49.9328 46.1447 50.0037 46.3157 50.1522 46.3775C50.2755 46.4285 50.4131 46.3876 50.492 46.287C50.4863 46.1626 50.4805 46.0347 50.4734 45.9053C50.4461 45.8773 50.4131 45.8536 50.3751 45.8378Z" fill="#FFFFFE"/>
<path fill-rule="evenodd" clip-rule="evenodd" d="M43.1947 48.4829C43.0462 48.4219 42.8756 48.4923 42.8139 48.6418C42.753 48.7906 42.8233 48.9609 42.9724 49.0227C43.1208 49.0845 43.2915 49.0133 43.3524 48.8646C43.4141 48.7158 43.3438 48.5448 43.1947 48.4829Z" fill="#FFFFFE"/>
<path fill-rule="evenodd" clip-rule="evenodd" d="M35.1572 48.3946C35.0157 48.4715 34.963 48.6483 35.0395 48.7906C35.1161 48.9322 35.2928 48.9846 35.4344 48.9085C35.5759 48.8316 35.6286 48.6548 35.552 48.5125C35.4755 48.3709 35.2987 48.3177 35.1572 48.3946Z" fill="#FFFFFE"/>
<path fill-rule="evenodd" clip-rule="evenodd" d="M35.7315 50.3288C35.6366 50.3798 35.5829 50.4768 35.5801 50.5774C35.7635 50.6134 35.9521 50.6471 36.1449 50.6795C36.1703 50.6047 36.1666 50.5206 36.1264 50.4466C36.0499 50.3043 35.873 50.2519 35.7315 50.3288Z" fill="#FFFFFE"/>
<path fill-rule="evenodd" clip-rule="evenodd" d="M33.6286 49.2443C33.4871 49.3204 33.4344 49.498 33.511 49.6395C33.5875 49.7818 33.7643 49.8343 33.9058 49.7574C34.0473 49.6812 34.1 49.5037 34.0235 49.3621C33.9469 49.2198 33.7702 49.1674 33.6286 49.2443Z" fill="#FFFFFE"/>
<path fill-rule="evenodd" clip-rule="evenodd" d="M32.842 47.9256C32.7005 48.0025 32.6478 48.1793 32.7243 48.3216C32.8009 48.4632 32.9776 48.5164 33.1192 48.4395C33.2607 48.3626 33.3134 48.1858 33.2368 48.0435C33.1603 47.9019 32.9835 47.8487 32.842 47.9256Z" fill="#FFFFFE"/>
<path fill-rule="evenodd" clip-rule="evenodd" d="M34.1347 43.3937C33.9932 43.4706 33.9405 43.6481 34.0171 43.7897C34.0936 43.932 34.2704 43.9845 34.4119 43.9076C34.5534 43.8314 34.6061 43.6539 34.5296 43.5123C34.4531 43.37 34.2763 43.3175 34.1347 43.3937Z" fill="#FFFFFE"/>
<path fill-rule="evenodd" clip-rule="evenodd" d="M35.9771 44.1938C35.8355 44.2707 35.7828 44.4482 35.8593 44.5898C35.9359 44.7314 36.1126 44.7846 36.2542 44.7077C36.3957 44.6308 36.4484 44.454 36.3719 44.3124C36.2953 44.1701 36.1186 44.1176 35.9771 44.1938Z" fill="#FFFFFE"/>
<path fill-rule="evenodd" clip-rule="evenodd" d="M34.9002 46.2759C34.7586 46.3528 34.7059 46.5296 34.7824 46.6719C34.859 46.8135 35.0358 46.8659 35.1773 46.7898C35.3188 46.7129 35.3715 46.5353 35.2949 46.3938C35.2184 46.2522 35.0416 46.199 34.9002 46.2759Z" fill="#FFFFFE"/>
<path fill-rule="evenodd" clip-rule="evenodd" d="M33.4448 45.4801C33.3033 45.557 33.2506 45.7338 33.3271 45.8761C33.4036 46.0177 33.5804 46.0709 33.722 45.994C33.8635 45.9171 33.9162 45.7403 33.8397 45.598C33.7631 45.4564 33.5863 45.4032 33.4448 45.4801Z" fill="#FFFFFE"/>
<path fill-rule="evenodd" clip-rule="evenodd" d="M36.5569 46.8124C36.4153 46.8886 36.3626 47.0661 36.4392 47.2077C36.5157 47.35 36.6925 47.4025 36.8341 47.3263C36.9756 47.2494 37.0283 47.0719 36.9517 46.9303C36.8752 46.788 36.6984 46.7355 36.5569 46.8124Z" fill="#FFFFFE"/>
<path fill-rule="evenodd" clip-rule="evenodd" d="M37.1589 48.7975C37.0173 48.8744 36.9647 49.052 37.0412 49.1935C37.1177 49.3351 37.2945 49.3883 37.4361 49.3114C37.5776 49.2345 37.6303 49.0577 37.5537 48.9154C37.4772 48.7738 37.3004 48.7214 37.1589 48.7975Z" fill="#FFFFFE"/>
<path fill-rule="evenodd" clip-rule="evenodd" d="M37.998 50.0343C37.8565 50.1112 37.8039 50.288 37.8803 50.4303C37.9569 50.5719 38.1336 50.625 38.2751 50.5481C38.4167 50.4712 38.4694 50.2944 38.3929 50.1521C38.3163 50.0106 38.1396 49.9574 37.998 50.0343Z" fill="#FFFFFE"/>
<path fill-rule="evenodd" clip-rule="evenodd" d="M39.5049 48.7077C39.3633 48.7846 39.3106 48.9615 39.3872 49.1038C39.4637 49.2453 39.6405 49.2978 39.782 49.2216C39.9235 49.1447 39.9762 48.9672 39.8997 48.8256C39.8232 48.684 39.6464 48.6308 39.5049 48.7077Z" fill="#FFFFFE"/>
<path fill-rule="evenodd" clip-rule="evenodd" d="M41.4738 47.7662C41.3326 47.8431 41.2795 48.0199 41.3562 48.1622C41.4329 48.3038 41.6093 48.3562 41.7513 48.28C41.8925 48.2031 41.9456 48.0256 41.8689 47.884C41.7922 47.7425 41.6158 47.6893 41.4738 47.7662Z" fill="#FFFFFE"/>
<path fill-rule="evenodd" clip-rule="evenodd" d="M36.1841 42.3804C36.1075 42.2388 35.9307 42.1856 35.7892 42.2625C35.685 42.3193 35.6295 42.43 35.6378 42.5414C35.6407 42.5809 35.6514 42.6212 35.6715 42.6586C35.748 42.8001 35.9249 42.8533 36.0663 42.7764C36.2059 42.701 36.2585 42.5278 36.1866 42.3869L36.1841 42.3804Z" fill="#FFFFFE"/>
<path fill-rule="evenodd" clip-rule="evenodd" d="M41.2342 50.3898C41.0922 50.466 41.0399 50.6435 41.1166 50.7851C41.1926 50.9274 41.3697 50.9799 41.511 50.903C41.6529 50.8268 41.7053 50.6493 41.6293 50.5077C41.5526 50.3654 41.3755 50.3129 41.2342 50.3898Z" fill="#FFFFFE"/>
<path fill-rule="evenodd" clip-rule="evenodd" d="M38.1039 44.058C37.9553 43.9962 37.7849 44.0674 37.7233 44.2162C37.6619 44.3656 37.7325 44.536 37.8812 44.5978C38.0299 44.6596 38.2003 44.5884 38.2618 44.4397C38.3233 44.2909 38.2526 44.1198 38.1039 44.058Z" fill="#FFFFFE"/>
<path fill-rule="evenodd" clip-rule="evenodd" d="M40.5128 45.8105C40.3639 45.7487 40.1936 45.8191 40.1321 45.9686C40.0705 46.1174 40.1412 46.2884 40.29 46.3495C40.4389 46.4113 40.6089 46.3409 40.6705 46.1914C40.7322 46.0426 40.6612 45.8716 40.5128 45.8105Z" fill="#FFFFFE"/>
<path fill-rule="evenodd" clip-rule="evenodd" d="M41.5883 44.3755C41.4391 44.3137 41.2692 44.3848 41.2076 44.5336C41.1459 44.6831 41.2169 44.8534 41.3653 44.9152C41.5144 44.977 41.6844 44.9059 41.746 44.7571C41.8077 44.6083 41.7367 44.4373 41.5883 44.3755Z" fill="#FFFFFE"/>
<path fill-rule="evenodd" clip-rule="evenodd" d="M38.883 46.1128C38.7344 46.051 38.5639 46.1222 38.5024 46.271C38.4409 46.4197 38.5117 46.5908 38.6603 46.6526C38.809 46.7144 38.9794 46.6432 39.0409 46.4945C39.1024 46.345 39.0316 46.1746 38.883 46.1128Z" fill="#FFFFFE"/>
<path fill-rule="evenodd" clip-rule="evenodd" d="M37.4423 45.5871C37.2936 45.5253 37.1232 45.5964 37.0618 45.7452C37.0002 45.894 37.0709 46.065 37.2196 46.1268C37.3682 46.1887 37.5386 46.1175 37.6002 45.9687C37.6617 45.8192 37.591 45.6489 37.4423 45.5871Z" fill="#FFFFFE"/>
<path fill-rule="evenodd" clip-rule="evenodd" d="M45.6398 79.4672L43.6027 79.3623L43.4386 80.3879C43.3762 80.7765 43.6321 81.1428 44.0172 81.2189C45.2418 81.4602 47.6775 81.8789 47.7879 81.4128C47.9363 80.7894 45.6398 79.4672 45.6398 79.4672Z" fill="#251E28"/>
<path fill-rule="evenodd" clip-rule="evenodd" d="M48.2326 10.852C47.9645 6.6977 46.4624 3.03813 41.031 4.5063C41.031 4.5063 37.008 5.56939 38.9525 13.1951C39.1302 13.8918 39.6434 14.4592 40.3268 14.6811C41.966 15.2133 43.5613 15.5738 43.7341 15.5832C45.8149 15.6923 48.2534 15.678 49.8079 14.3285C51.3631 12.9782 48.3431 12.5615 48.2326 10.852Z" fill="#251E28"/>
<path fill-rule="evenodd" clip-rule="evenodd" d="M44.6559 16.0874C44.6559 16.0874 44.0715 10.3042 44.562 9.03927C45.0524 7.77443 41.5663 9.06247 41.5663 9.06247C41.5663 9.06247 40.4177 15.3598 39.022 16.5527C37.6261 17.7457 44.0522 18.777 45.2783 18.0919C46.5036 17.4067 44.6559 16.0874 44.6559 16.0874Z" fill="#E3C4AD"/>
<path fill-rule="evenodd" clip-rule="evenodd" d="M44.5827 15.3849C42.0789 17.2724 40.1358 15.7038 39.5269 15.4295C36.8123 15.808 34.26 17.2724 34.26 17.2724L37.0723 34.0627C37.0723 34.0627 46.9503 34.304 47.5992 33.654C48.5341 32.6284 48.3692 17.1532 48.3692 17.1532C48.3692 17.1532 46.7897 15.9868 44.5827 15.3849Z" fill="#E98B60"/>
<path fill-rule="evenodd" clip-rule="evenodd" d="M41.5958 26.775C41.5958 26.775 42.249 26.6364 42.2841 26.4533C42.3107 26.3175 41.5277 26.1703 41.1197 26.1035C40.5748 25.6719 38.1182 23.5876 38.5266 21.3288C38.3957 21.3066 36.4939 19.9836 35.489 20.3514C35.489 20.3514 35.0525 25.3013 40.007 27.2361C40.9433 28.9993 42.4161 28.2596 42.6935 27.7676C42.9825 27.2541 41.5958 26.775 41.5958 26.775Z" fill="#E3C4AD"/>
<path fill-rule="evenodd" clip-rule="evenodd" d="M37.1139 18.9358C35.9949 18.6672 34.9233 19.5039 34.7563 20.6444C34.6525 21.3526 34.6519 22.2101 34.9448 22.975C34.9184 23.6042 38.491 23.6544 39.1783 22.8766C39.2267 22.3236 38.7545 20.3873 37.8901 19.3926C37.674 19.1441 37.4014 19.0047 37.1139 18.9358Z" fill="#94C5FF"/>
<path fill-rule="evenodd" clip-rule="evenodd" d="M40.4783 8.31085C39.4775 11.1801 41.8786 14.9863 44.2462 14.1568C46.6137 13.3265 46.5621 7.39779 46.5621 7.39779C45.716 5.30105 41.4792 5.44161 40.4783 8.31085Z" fill="#F6D3B9"/>
<path fill-rule="evenodd" clip-rule="evenodd" d="M33.6518 29.6364C33.3815 29.2787 35.907 24.4653 35.907 24.4653L34.3641 17.569C34.3641 17.569 28.6935 26.6206 29.3799 31.493C30.0665 36.3653 39.1735 33.4551 39.1735 33.4551L39.0078 30.8415C36.1444 31.0635 34.2743 30.4616 33.6518 29.6364Z" fill="#EC976E"/>
<path fill-rule="evenodd" clip-rule="evenodd" d="M41.268 5.37978C36.0913 7.85107 39.8937 12.9674 39.8937 12.9674C39.8937 12.9674 39.8873 12.03 41.1963 10.1852C43.6664 9.85171 45.0997 7.15598 45.0997 7.15598C45.3341 8.8967 46.966 10.3445 46.7724 10.6834C48.0745 7.9012 46.4448 2.90849 41.268 5.37978Z" fill="#251E28"/>
<path fill-rule="evenodd" clip-rule="evenodd" d="M40.7891 35.8389C41.0164 36.2497 41.6775 36.481 41.8281 36.1506C41.9779 35.8209 43.0814 33.6318 43.0814 33.6318L41.9241 33.2971C41.9241 33.2971 40.5625 35.4274 40.7891 35.8389Z" fill="#F6D3B9"/>
<path fill-rule="evenodd" clip-rule="evenodd" d="M33.3373 26.5072L33.1479 27.4724C32.7917 29.2881 34.0213 31.0398 35.8498 31.3019C37.3376 31.5152 39.2898 31.4621 41.6043 30.6476C41.899 31.6955 41.1454 34.1446 41.1454 34.1446L42.9702 34.9691C42.9702 34.9691 45.5579 30.2088 43.6815 28.21C40.9432 25.2941 33.3373 26.5072 33.3373 26.5072Z" fill="#251E28"/>
<path fill-rule="evenodd" clip-rule="evenodd" d="M38.1129 21.4007C38.3774 18.2657 35.6408 16.3258 33.712 19.3574C33.712 19.3574 30.8634 24.8854 33.3698 30.0975C36.1442 31.3903 40.2984 26.4863 40.2984 26.4863C40.2984 26.4863 37.8614 24.3805 38.1129 21.4007Z" fill="#94C5FF"/>
<path fill-rule="evenodd" clip-rule="evenodd" d="M43.1305 18.4718C43.1305 18.4718 43.3011 17.8254 43.1541 17.7112C43.0444 17.6265 42.5612 18.2599 42.3174 18.5946C41.6871 18.8876 38.723 20.1452 36.8939 18.762C36.8151 18.869 34.7793 19.9736 34.6543 21.038C34.6543 21.038 38.8689 23.6587 42.8258 20.1C44.819 20.0576 44.8233 18.4072 44.51 17.9375C44.1823 17.4469 43.1305 18.4718 43.1305 18.4718Z" fill="#F6D3B9"/>
<path fill-rule="evenodd" clip-rule="evenodd" d="M40.9117 35.0962L40.6385 35.6744C40.5353 35.8934 40.6048 36.1426 40.7963 36.2382C41.4036 36.542 42.6232 37.1101 42.7659 36.8522C42.9581 36.5068 42.1249 35.5487 42.1249 35.5487L40.9117 35.0962Z" fill="#251E28"/>
<path fill-rule="evenodd" clip-rule="evenodd" d="M36.0752 13.2748C33.0895 13.0098 32.3464 15.9035 33.1185 17.3363C33.8907 18.7691 36.709 19.7143 37.877 18.2104C39.1124 16.2468 37.2592 15.2384 37.2077 14.7608C37.0533 13.9119 36.0752 13.2748 36.0752 13.2748Z" fill="#F6D3B9"/>
<path fill-rule="evenodd" clip-rule="evenodd" d="M36.0384 12.2959C35.0113 12.0401 34.1622 12.4839 33.2367 12.8439C32.792 13.017 32.0859 13.31 31.8001 13.7252C31.2057 14.5892 30.9897 16.0076 31.4996 16.9391C31.9657 17.7909 32.8627 18.2987 33.7147 18.7627C33.8942 18.8604 34.1046 18.9602 34.2941 18.8841C34.8687 18.6521 34.5816 17.3758 34.2837 17.049C34.1303 16.881 33.9431 16.7416 33.818 16.5513C33.74 16.4328 33.6878 16.2913 33.7017 16.1498C33.7156 16.0083 33.8059 15.8697 33.9409 15.8266C34.2698 15.7196 34.5589 16.1872 34.9 16.1304C35.1022 16.0967 35.2246 15.8942 35.3199 15.7117C35.4364 15.4891 35.6394 15.2241 35.6924 14.9777C35.7321 14.7924 35.6507 14.6272 35.7364 14.4398C35.9006 14.0807 36.3464 14.0282 36.6478 13.835C37.0432 13.5686 37.0758 13.0127 36.7375 12.6586C36.5522 12.4642 36.2954 12.3598 36.0384 12.2959Z" fill="#251E28"/>
<path fill-rule="evenodd" clip-rule="evenodd" d="M38.7787 31.3594C38.7482 32.0115 38.6951 32.6629 38.6753 33.3158C41.0192 33.3919 42.2768 31.0283 41.7226 30.5284C41.2766 30.1262 39.5883 30.9342 38.7787 31.3594Z" fill="#F6D3B9"/>
<path fill-rule="evenodd" clip-rule="evenodd" d="M39.706 15.2851C39.7951 15.196 38.8752 15.5228 38.8752 15.5228C38.8752 15.5228 41.1891 18.5838 45.5793 15.7325C45.4926 15.6916 44.6021 15.196 44.6021 15.196C44.6021 15.196 42.8812 16.9198 39.706 15.2851Z" fill="#CD7A55"/>
<path fill-rule="evenodd" clip-rule="evenodd" d="M45.5791 15.7326C45.5871 15.7363 45.5893 15.7363 45.5813 15.7311L45.5791 15.7326Z" fill="#CD7A55"/>
<path fill-rule="evenodd" clip-rule="evenodd" d="M34.4304 18.9042C34.1383 19.0557 33.9392 19.2891 33.8049 19.5527C33.2819 20.579 33.8419 21.8187 34.9093 22.2496C35.5726 22.5168 36.4044 22.7186 37.2153 22.613C37.8198 22.7861 38.7071 19.3193 38.1136 18.4675C37.5886 18.2908 35.5986 18.2958 34.4304 18.9042Z" fill="#CBE2FF"/>
<path fill-rule="evenodd" clip-rule="evenodd" d="M61.811 36.4034C61.5363 35.6758 60.6731 34.7472 59.5646 34.7974C59.6026 34.5676 59.556 33.5449 57.4989 33.9801C57.3562 34.0103 55.9078 32.7426 54.5405 34.7974C54.1117 34.931 52.6454 35.6241 52.8476 37.9489C52.6347 38.5853 51.618 39.5994 52.4741 41.4394C52.5078 42.1778 52.4375 43.8325 55.8576 43.6199C56.2384 43.4892 59.0813 45.4664 59.9682 43.7183C60.217 43.8778 62.2899 43.7837 61.9644 41.9192C62.3803 41.8438 63.316 40.8333 62.5229 39.3315C62.7947 38.9207 63.1539 37.2537 61.811 36.4034Z" fill="#251E28"/>
<path fill-rule="evenodd" clip-rule="evenodd" d="M52.5196 58.309C52.0044 62.015 54.6885 80.5288 54.203 80.7207C53.7566 80.8974 54.9327 82.034 55.6675 81.3961C55.932 74.2096 57.6161 60.8923 57.6161 60.8923C57.6161 60.8923 52.8204 56.1458 52.5196 58.309Z" fill="#F6D3B9"/>
<path fill-rule="evenodd" clip-rule="evenodd" d="M53.5288 74.5724L54.1951 81.445L55.7235 81.3956L56.2534 74.6923C56.2534 74.6923 55.0207 74.4829 53.5288 74.5724Z" fill="#F0BC6B"/>
<path fill-rule="evenodd" clip-rule="evenodd" d="M59.0572 42.6058C58.7482 42.3185 58.5503 41.9336 58.4829 41.5163C58.2836 40.2738 57.9193 37.7292 58.1251 36.8723C58.4019 35.7218 55.5389 37.2429 55.5389 37.2429C55.5389 37.2429 55.8378 39.8357 55.394 41.8862C55.2047 42.7602 53.9313 43.0691 53.613 43.426C52.5453 44.6204 58.6801 45.1088 59.8 44.6132C61.6428 43.798 59.6358 43.1437 59.0572 42.6058Z" fill="#E3C4AD"/>
<path fill-rule="evenodd" clip-rule="evenodd" d="M56.6555 35.4926C56.6555 35.4926 52.8345 38.229 54.5345 40.7657C55.6731 42.465 58.7584 41.4459 59.7185 39.2087C60.6793 36.9707 58.2795 34.6789 56.6555 35.4926Z" fill="#F6D3B9"/>
<path fill-rule="evenodd" clip-rule="evenodd" d="M57.1434 58.1723C56.7692 61.8922 60.102 80.4215 59.6295 80.6192C59.195 80.8008 60.4489 81.8883 61.1519 81.2419C61.1246 73.7144 62.2765 60.7107 62.2765 60.7107C62.2765 60.7107 57.361 56.0013 57.1434 58.1723Z" fill="#F6D3B9"/>
<path fill-rule="evenodd" clip-rule="evenodd" d="M55.8047 80.569L54.246 80.5632C54.246 80.5632 52.4498 81.3588 52.5431 81.78C52.6126 82.0941 54.4862 81.9058 55.4283 81.79C55.7251 81.7534 55.9324 81.5191 55.8972 81.2582L55.8047 80.569Z" fill="#372C3A"/>
<path fill-rule="evenodd" clip-rule="evenodd" d="M58.6705 41.9156C58.6454 42.0291 56.9231 44.0918 54.9363 42.2352C53.0305 42.488 52.5508 43.263 52.5508 43.263C52.5508 43.263 51.2423 51.3629 52.4038 53.3136C53.1237 54.0735 59.4513 54.5855 61.4223 53.4213C61.9687 53.0981 61.3177 42.4406 61.3177 42.4406C61.3177 42.4406 60.6939 41.3956 58.6705 41.9156Z" fill="#E98B60"/>
<path fill-rule="evenodd" clip-rule="evenodd" d="M59.648 81.5823L61.1817 81.4954L61.495 74.8455C61.495 74.8455 60.127 74.8455 58.8901 74.9109L59.648 81.5823Z" fill="#F0BC6B"/>
<path fill-rule="evenodd" clip-rule="evenodd" d="M61.2431 80.4792L59.6872 80.49C59.6872 80.49 57.924 81.3051 58.0316 81.726C58.1119 82.0399 59.9747 81.8316 60.9111 81.7059C61.2058 81.6664 61.4044 81.4287 61.3599 81.168L61.2431 80.4792Z" fill="#372C3A"/>
<path fill-rule="evenodd" clip-rule="evenodd" d="M57.2543 36.6691C57.2543 36.6691 57.1566 36.7402 57.0474 36.8646C57.194 36.7769 57.2745 36.7029 57.2543 36.6691Z" fill="#251E28"/>
<path fill-rule="evenodd" clip-rule="evenodd" d="M58.4146 35.3038C56.2765 34.7062 53.1847 35.9595 54.1907 36.9391C54.9859 37.7141 56.4959 37.1948 57.0473 36.8644C57.1562 36.7402 57.2538 36.6691 57.2538 36.6691C57.2738 36.7028 57.1935 36.7768 57.0473 36.8644C56.7547 37.1984 56.3776 37.9188 57.5879 38.6908C57.5456 38.7066 56.9669 40.3413 58.5695 40.3269C58.2583 41.6642 60.4387 41.3274 60.8689 40.1783C61.2998 39.0291 60.552 35.9006 58.4146 35.3038Z" fill="#251E28"/>
<path fill-rule="evenodd" clip-rule="evenodd" d="M62.6645 42.2144C62.6645 42.2144 64.5782 45.9591 64.2225 46.0482C63.5199 46.2242 61.5961 43.1057 61.5961 43.1057L60.6619 46.4051C60.8397 46.4942 63.1542 49.4812 66.1362 49.1695C69.1627 48.5899 64.1781 41.1443 64.0892 40.8318C63.9995 40.5201 62.6645 42.2144 62.6645 42.2144Z" fill="#E3C4AD"/>
<path fill-rule="evenodd" clip-rule="evenodd" d="M64.4883 46.0022L64.4899 46.0055L64.4883 46.0022Z" fill="#E98B60"/>
<path fill-rule="evenodd" clip-rule="evenodd" d="M64.4884 46.0022C64.3013 45.725 61.1063 42.1699 60.9729 42.1699C60.9729 42.1699 60.0386 46.9402 60.884 47.6534C61.7301 48.3666 64.7566 49.5258 65.0677 49.3922C64.2547 48.6208 64.4705 46.0777 64.4884 46.0022Z" fill="#E98B60"/>
<path fill-rule="evenodd" clip-rule="evenodd" d="M58.7917 41.7461C56.7224 43.9532 54.9048 42.0657 54.9048 42.0657L54.3262 42.3035C54.3262 42.3035 54.3635 43.1948 55.2088 43.6853C56.0549 44.1758 56.6557 43.128 56.6557 43.128C56.6557 43.128 56.8336 43.8864 57.6122 43.9977C58.8591 44.1758 59.6528 41.7533 59.6528 41.7533C59.6528 41.7533 59.1036 41.6643 58.7917 41.7461Z" fill="#CD7A55"/>
<path fill-rule="evenodd" clip-rule="evenodd" d="M60.5275 41.902L59.9044 41.7684C59.9044 41.7684 59.3258 45.5577 58.7472 45.9146C58.1686 46.2716 54.5634 46.1372 54.2078 45.4686C53.8515 44.7999 53.807 42.3925 53.807 42.3925L53.1395 42.6597C53.1395 42.6597 52.9609 44.5328 53.0054 45.6474C53.0506 46.7621 51.9822 48.322 51.9378 48.5899C51.8933 48.8571 50.2908 65.1748 50.2463 66.334C52.0267 68.9203 63.8215 68.1173 64.489 66.6019C64.6231 60.2264 61.9967 49.2586 61.6403 48.8126C60.3052 47.9658 60.5275 41.902 60.5275 41.902Z" fill="#607487"/>
<path fill-rule="evenodd" clip-rule="evenodd" d="M66.7144 18.8503C66.7144 18.8503 67.7455 25.2927 67.4544 30.063C66.7087 31.893 65.7006 36.8795 63.523 39.2546C62.8254 39.9018 60.161 41.8452 61.6674 42.7961C63.5151 43.9625 64.2035 43.2615 65.7644 40.3672C66.3867 39.7373 71.0738 35.0819 71.9228 29.5164C72.7724 23.9518 71.8461 19.3028 71.8461 19.3028L66.7144 18.8503Z" fill="#F6D3B9"/>
<path fill-rule="evenodd" clip-rule="evenodd" d="M54.3412 51.22C54.7865 51.7105 56.3438 52.3792 56.3438 52.3792C56.3438 52.3792 58.4805 51.9784 58.8813 51.7551C59.2814 51.5324 59.3703 48.3666 59.3703 48.3666L54.3412 48.0549C54.3412 48.0549 53.8959 50.7295 54.3412 51.22Z" fill="#687A8E"/>
<path fill-rule="evenodd" clip-rule="evenodd" d="M67.39 12.6565C66.597 13.3065 66.564 24.3626 66.4988 24.6369C68.5795 25.9786 73.377 24.6254 73.377 24.6254C73.377 24.6254 72.8543 18.3038 71.5092 15.8812C69.6594 12.5503 67.39 12.6565 67.39 12.6565Z" fill="#CBE2FF"/>
<path fill-rule="evenodd" clip-rule="evenodd" d="M52.9747 4.01994C52.9747 4.01994 52.0053 11.5264 54.7952 12.9114C57.5851 14.2969 61.1235 9.81043 60.3291 6.03315C59.5339 2.2558 54.337 1.48157 52.9747 4.01994Z" fill="#F6D3B9"/>
<path fill-rule="evenodd" clip-rule="evenodd" d="M52.6753 0.343203C51.5847 0.73671 50.5329 2.12565 52.818 5.67598C52.7821 5.57672 52.7614 4.44181 53.5744 3.58757C53.5744 3.58757 56.7286 2.5894 58.8746 4.50731C59.2947 5.36514 60.2548 7.4496 60.2978 8.63019C60.4118 8.22591 61.5899 5.43079 59.6661 1.40967C58.088 -0.488556 53.7652 -0.0503758 52.6753 0.343203Z" fill="#251E28"/>
<path fill-rule="evenodd" clip-rule="evenodd" d="M58.231 8.82469C57.6409 10.2814 56.189 9.74981 55.5451 9.27371C55.4462 9.20038 55.3157 9.1654 55.1909 9.18544C55.14 9.19363 55.0561 9.20175 54.978 9.20807C54.8668 9.21704 54.7686 9.26509 54.7026 9.33893C54.3613 9.72188 53.374 9.91169 52.9223 9.11671C52.2017 12.2212 54.8037 14.3199 56.8278 13.4451C60.1239 12.0196 58.8484 7.37943 58.8484 7.37943C58.8484 7.37943 58.4977 8.08242 58.231 8.82469Z" fill="#251E28"/>
<path fill-rule="evenodd" clip-rule="evenodd" d="M59.1787 5.42991L59.644 7.85832C59.644 7.85832 60.3266 6.3801 60.1718 5.82809C59.9201 4.92903 59.1787 5.42991 59.1787 5.42991Z" fill="#F6D3B9"/>
</svg>
