<svg xmlns="http://www.w3.org/2000/svg" xmlns:xlink="http://www.w3.org/1999/xlink" width="690" height="857" viewBox="0 0 690 857">
    <defs>
        <path id="prefix__a" d="M0 0H690V857H0z"/>
    </defs>
    <g fill="none" fill-rule="evenodd">
        <mask id="prefix__b" fill="#fff">
            <use xlink:href="#prefix__a"/>
        </mask>
        <use fill="#FFF" xlink:href="#prefix__a"/>
        <g mask="url(#prefix__b)" opacity=".5">
            <g>
                <g fill="#B7B7B2">
                    <path d="M3.253 269.834l249.041 206.714 11.855-164.689L3.253 269.834zm249.654 208.87l-.458-.166L.317 269.26c-.246-.209-.326-.556-.194-.848.134-.296.449-.456.764-.413l264.135 42.55c.366.06.627.39.6.76l-12 166.73c-.02.267-.189.502-.435.608l-.28.057z" transform="rotate(90 670.5 199.5) translate(255.837 240.135)"/>
                    <path d="M2.526 268.262l261.86 42.183L347.147 3.11 2.527 268.262m262.384 43.712l-.114-.009L.66 269.415c-.28-.046-.509-.252-.578-.53-.071-.281.032-.571.258-.746L347.95.681l.833-.026c.258.172.375.488.295.783L265.6 311.443c-.086.319-.372.53-.69.53" transform="rotate(90 670.5 199.5) translate(255.837 240.135)"/>
                </g>
                <path fill="#B7B7B2" d="M604.202 244.223l-82.45 306.183 150.3-36.81-67.85-269.373m-83.455 307.886l-.512-.215-.18-.688 83.48-310.005c.084-.316.401-.517.696-.53.326.002.61.226.687.541l68.696 272.734-.083.545-.44.327-152.175 37.268-.169.023" transform="rotate(90 670.5 199.5)"/>
                <g fill="#B7B7B2">
                    <path d="M562.296 242.712l68.06 270.208 194.33-141.56-262.39-128.648m67.626 272.126l-.244-.043-.452-.496-68.693-272.737c-.072-.27.023-.556.24-.734l.767-.086 264.845 129.852.398.582-.292.642L630.342 514.7l-.42.138" transform="rotate(90 670.5 199.5) translate(43)"/>
                    <path d="M2.338 3.41l211.574 504.3L559.82 241.565 2.338 3.409zm211.274 506.149l-.183-.026-.478-.413L.33 2.331c-.11-.27-.05-.582.158-.786.203-.206.518-.27.784-.152l560.23 239.334.432.568-.275.66L214.047 509.41l-.435.149z" transform="rotate(90 670.5 199.5) translate(43)"/>
                </g>
                <path fill="#B7B7B2" d="M674.67 513.734l169.875 33.262 23.59-174.191L674.67 513.734m170.482 34.828l-.137-.014-172.23-33.721c-.281-.055-.501-.273-.561-.548-.063-.281.045-.57.274-.737L868.647 370.66l.787-.037c.246.149.38.427.343.71l-23.915 176.61-.292.484-.418.135M1239.426 612.245l-7.313 68.271 313.388-198.28-306.075 130.01zm-8.18 70.387l-.378-.106c-.235-.146-.364-.413-.335-.688l7.517-70.166.432-.585 314.562-133.612c.343-.146.735-.006.913.327.174.33.06.74-.252.938l-322.076 203.783-.383.11zM509.51 717.443l196.81 10.01-184.97-174.507-11.84 164.497m198.718 11.542l-.037-.003L508.71 718.84l-.5-.241-.178-.528 12-166.73c.02-.276.198-.517.456-.617l.75.143 187.478 176.876c.223.206.289.528.169.803-.112.266-.372.439-.656.439" transform="rotate(90 670.5 199.5)"/>
                <path fill="#B7B7B2" d="M522.195 551.776l184.98 174.513-34.837-211.285-150.143 36.772m186.033 177.209l-.489-.198-187.484-176.873-.2-.705.52-.514 152.175-37.268.564.098.314.481 35.307 214.144c.046.301-.103.605-.372.749l-.335.086" transform="rotate(90 670.5 199.5)"/>
                <g>
                    <path d="M0.853 1.283L1390.635 1.283 1390.635 372.596 0.853 372.596z" transform="rotate(90 670.5 199.5) translate(671.362 476.133)"/>
                    <path fill="#B7B7B2" d="M2.432 38.888l34.87 211.486L172.524 72.197 2.432 38.888m34.434 213.963l-.174-.023c-.278-.068-.487-.298-.535-.579L.853 38.105l.209-.63.632-.19L173.927 71.01l.53.448-.098.688L37.436 252.567l-.57.284M620.56 330.307l26.802 332.996 264.172-67.477-290.975-265.52zm26.155 334.62l-.415-.136-.297-.527-27.015-335.652c-.025-.292.135-.573.398-.702.263-.127.578-.084.796.114L913.48 595.66l.212.705-.518.52-266.281 68.018-.178.023z" transform="rotate(90 670.5 199.5) translate(671.362 476.133)"/>
                    <path fill="#B7B7B2" d="M623.266 330.837l289.836 264.479 145.892-80.455-435.728-184.024zM913 596.907l-.48-.183L619.22 329.085c-.26-.235-.309-.622-.123-.917.186-.293.558-.413.881-.273l440.933 186.22c.254.107.426.348.44.623.015.272-.131.533-.372.665l-147.636 81.418-.344.086z" transform="rotate(90 670.5 199.5) translate(671.362 476.133)"/>
                    <path fill="#B7B7B2" d="M626.156 330.502l434.18 183.37 53.728-91.27-487.908-92.1zm434.48 184.99l-.278-.054-440.935-186.22c-.337-.144-.512-.52-.406-.87.103-.352.458-.565.815-.499l495.497 93.534.52.407-.037.66-54.564 92.69-.612.352z" transform="rotate(90 670.5 199.5) translate(671.362 476.133)"/>
                    <path fill="#B7B7B2" d="M560.808 206.043l59.042 121.181L878.71 4.906 560.808 206.043M619.7 329.272l-.08-.006-.564-.399-59.817-122.77c-.16-.33-.05-.725.26-.92L881.578 1.394c.292-.187.682-.132.916.129.232.26.243.653.023.926L620.256 329.002l-.555.27" transform="rotate(90 670.5 199.5) translate(671.362 476.133)"/>
                    <path fill="#B7B7B2" d="M470.124 644.117l175.81 19.284L619.2 331.264 470.124 644.117zm176.591 20.81l-.077-.007-177.673-19.49-.546-.364-.02-.66 150.655-316.161c.137-.29.467-.456.776-.396.317.058.558.324.583.648l27.015 335.652-.215.57-.498.207z" transform="rotate(90 670.5 199.5) translate(671.362 476.133)"/>
                    <path fill="#B7B7B2" d="M334.348 315.175l134.743 327.78 149.5-313.738-284.243-14.042zm134.698 330.261h-.02c-.284-.009-.536-.183-.644-.444L332.597 314.676l.077-.685c.14-.198.312-.341.621-.304l286.443 14.15.578.35.031.675L469.69 645.026c-.12.25-.372.41-.643.41z" transform="rotate(90 670.5 199.5) translate(671.362 476.133)"/>
                </g>
                <path fill="#B7B7B2" d="M709.482 727.797l293.587 61.682-157.96-240.395-135.627 178.713m295.138 63.457l-.146-.014-296.394-62.273-.524-.453.1-.682 136.926-180.42.596-.284.572.321 159.471 242.695-.006.797-.595.313" transform="rotate(90 670.5 199.5)"/>
                <path fill="#B7B7B2" d="M1007.485 789.96l282.405 13.95-58.976-121.04-223.43 107.09m283.579 15.445l-.037-.003-286.44-14.15c-.326-.012-.6-.25-.667-.574-.063-.322.1-.646.395-.786l226.623-108.625c.349-.169.78-.02.95.333l59.82 122.773-.046.71-.598.322" transform="rotate(90 670.5 199.5)"/>
                <path fill="#B7B7B2" d="M846.643 548.814l158.155 240.688 232.205-177.314-390.36-63.374m157.977 242.44l-.117-.011-.48-.31-159.47-242.692-.002-.786c.157-.238.435-.367.715-.315l393.61 63.9c.281.044.51.256.579.534.069.278-.032.57-.26.743l-234.14 178.79-.435.147" transform="rotate(90 670.5 199.5)"/>
                <g>
                    <path d="M0.622 1.284L895.013 1.284 895.013 372.596 0.622 372.596z" transform="rotate(90 670.5 199.5) translate(1003.284 476.133)"/>
                    <path fill="#B7B7B2" d="M227.962 205.782h.017-.017m6.627-68.586L7.305 310.75l219.987-105.442 7.297-68.113M1.336 315.12l-.606-.344c-.195-.313-.118-.72.174-.944l234.14-178.788.786-.054c.25.14.387.415.361.7l-7.517 70.169-.406.567L1.645 315.052l-.309.069M290.412 328.322l492.05 92.883-28.902-268.731-463.148 175.848m492.863 94.48l-.131-.012-495.497-93.533c-.314-.057-.552-.32-.58-.64-.03-.32.16-.619.457-.733l466.393-177.082.63.06.338.533 29.103 270.615-.226.603-.487.189" transform="rotate(90 670.5 199.5) translate(1003.284 476.133)"/>
                    <path fill="#B7B7B2" d="M550.166 2.982L289.988 326.95l462.699-175.677-202.52-148.29m-262.388 326.29l-.578-.296c-.192-.26-.183-.62.023-.871L549.482 1.55c.238-.298.673-.355.979-.129l204.135 149.472c.211.154.32.415.286.673-.035.261-.21.482-.455.577L288.034 329.223l-.255.049" transform="rotate(90 670.5 199.5) translate(1003.284 476.133)"/>
                </g>
                <path fill="#B7B7B2" d="M1231.515 422.475l7.917 188.21 311.38-132.264-319.297-55.946m7.247 189.99l-.383-.11-.332-.574-8-190.135.243-.57.595-.167 322.56 56.517c.314.058.552.31.586.626.037.315-.137.619-.43.742L1239.04 612.406l-.278.06" transform="rotate(90 670.5 199.5)"/>
                <path fill="#B7B7B2" d="M848.073 547.593l388.818 63.127-134.133-151.321-254.685 88.194m390.69 64.873l-.115-.012-393.61-63.9c-.324-.055-.57-.322-.599-.649-.028-.326.172-.628.478-.74l257.826-89.277c.28-.095.578-.015.767.2l135.785 153.185c.2.227.24.553.091.82l-.624.373" transform="rotate(90 670.5 199.5)"/>
                <path fill="#B7B7B2" d="M869.66 372.223l-23.641 174.564 254.839-88.248-231.198-86.316zm-24.508 176.339l-.452-.163-.258-.648 23.916-176.61.343-.518.615-.055 233.908 87.325c.286.107.472.379.47.68-.004.301-.198.568-.481.668l-257.826 89.28-.235.041z" transform="rotate(90 670.5 199.5)"/>
                <path fill="#B7B7B2" d="M1104.265 458.937l133.696 150.83-7.874-187.21-125.822 36.38m134.497 153.529l-.535-.24-135.784-153.186-.155-.673.49-.49 127.784-36.95.618.105.297.554 8 190.132c.012.303-.168.582-.448.693l-.267.055" transform="rotate(90 670.5 199.5)"/>
                <g>
                    <path d="M0 1.984L1648.16 1.984 1648.16 573.317 0 573.317z" transform="rotate(90 670.5 199.5) translate(413.837 275.412)"/>
                    <path fill="#B7B7B2" d="M167.363 356.75l26.665 99.231L524.24 9.362 167.363 356.75m26.36 101.565l-.135-.011c-.27-.052-.487-.253-.555-.516l-27.16-101.075.194-.7L529.553 2.191c.269-.261.686-.27.97-.026.28.244.323.665.103.966L194.297 458.026l-.575.29M348.867 594.702l702.083 20.33 25.578-155.868-727.661 135.538zm702.687 21.784h-.02l-709.408-20.542c-.367-.011-.664-.295-.693-.66-.029-.367.223-.696.58-.762l735.256-136.955.633.192.206.628-25.847 157.497c-.06.347-.358.602-.707.602z" transform="rotate(90 670.5 199.5) translate(413.837 275.412)"/>
                    <path fill="#B7B7B2" d="M194.678 457.51l147.127 136.424L528.065 6.589 194.678 457.51m147.468 138.435l-.487-.19-148.423-137.628c-.27-.25-.306-.66-.089-.952L529.475 2.277c.21-.287.584-.373.902-.212.312.157.46.521.354.854L342.827 595.442l-.501.476-.18.026" transform="rotate(90 670.5 199.5) translate(413.837 275.412)"/>
                    <path fill="#B7B7B2" d="M193.76 458.608l-252.833 269.42 399.845-133.1-147.013-136.32m-255.293 271.71l-.604-.33c-.175-.275-.143-.636.083-.874L193.2 457.108c.27-.284.721-.301 1.008-.037L342.632 594.7l.212.68-.472.527-403.68 134.377-.226.034" transform="rotate(90 670.5 199.5) translate(413.837 275.412)"/>
                    <path fill="#B7B7B2" d="M-410.195 480.062l348.452 248.513 226.825-370.999-575.277 122.486m348.66 250.256l-.414-.132-350.4-249.903c-.233-.164-.344-.45-.287-.729.057-.278.275-.499.552-.556l578.5-123.171c.283-.052.564.054.732.287l.026.788-228.096 373.075-.47.33-.142.011" transform="rotate(90 670.5 199.5) translate(413.837 275.412)"/>
                    <path fill="#B7B7B2" d="M166.304 358.325L-57.29 724.035 192.927 457.4l-26.623-99.075M-61.534 730.318l-.432-.146c-.292-.224-.37-.63-.178-.943l228.1-373.075c.145-.247.411-.367.712-.336.28.04.515.247.586.525l27.158 101.072-.172.677-255.254 272.003-.52.223M892.117 100.848l-547.602 493.21 731.807-136.313-184.205-356.897M342.146 595.944c-.27 0-.521-.152-.644-.401-.138-.287-.072-.634.166-.852l550.18-495.532.607-.172.506.376 185.075 358.58.009.645-.512.387L342.277 595.93l-.131.014" transform="rotate(90 670.5 199.5) translate(413.837 275.412)"/>
                    <path fill="#B7B7B2" d="M530.525 3.573l-186.9 589.357 547.244-492.885L530.525 3.573m-188.38 592.371l-.389-.115c-.269-.175-.392-.513-.291-.82L529.369 2.486c.118-.367.495-.568.865-.476L892.512 99l.51.527-.218.7-550.18 495.534-.478.184" transform="rotate(90 670.5 199.5) translate(413.837 275.412)"/>
                </g>
                <path fill="#B7B7B2" d="M1307.244 375.638l183.433 355.397 23.157-392.74-206.59 37.343m183.994 358.76c-.264 0-.513-.143-.636-.384l-185.072-358.58-.008-.645.515-.39 208.44-37.675.602.166.24.582-23.366 396.252c-.02.322-.252.594-.567.66l-.148.014" transform="rotate(90 670.5 199.5)"/>
                <g fill="#B7B7B2">
                    <path d="M467.759 97.43l112.049 256.864L940.813 2.88 467.759 97.43m111.806 258.816l-.138-.014-.52-.419L466.093 97.187l.02-.62.495-.366L942.91.999c.315-.055.627.088.776.37.143.283.091.627-.138.848L580.06 356.043l-.495.203" transform="rotate(90 670.5 199.5) translate(.837 276.412)"/>
                    <path d="M309.915 217.53L3.695 477.408l573.752-122.161L309.915 217.53M1.065 479.417c-.269 0-.52-.154-.644-.404-.143-.292-.068-.648.18-.86l308.754-262.027c.22-.19.532-.224.79-.09L579.89 354.89c.269.14.42.433.383.734-.043.301-.266.542-.563.605L1.214 479.4l-.149.017" transform="rotate(90 670.5 199.5) translate(.837 276.412)"/>
                    <path d="M311.154 216.553l266.948 137.42L466.457 98.023l-155.303 118.53m268.41 139.692l-.328-.08L309.489 217.31l-.383-.576.277-.631L466.313 96.33l.613-.124.475.408L580.22 355.24c.12.278.054.602-.169.811l-.486.195" transform="rotate(90 670.5 199.5) translate(.837 276.412)"/>
                </g>
                <path fill="#4F2CA5" d="M1217.777 618.014c-6.813 0-12.501-4.797-13.89-11.203l26.108 4.238c-2.478 4.173-7.025 6.965-12.218 6.965m12.92-8.3l-27.05-4.394c-.054-.507-.083-1.02-.083-1.542 0-7.863 6.361-14.243 14.213-14.243.114 0 .226 0 .34.003l13.807 15.576c-.152 1.628-.575 3.177-1.228 4.6m1.27-6.714l-11.751-13.256c6.435 1.116 11.394 6.578 11.752 13.256" transform="rotate(90 670.5 199.5)"/>
                <path fill="#AC3B59" d="M1229.995 611.05l-26.107-4.239 26.107 4.238m.701-1.336l-27.049-4.393 27.05 4.393" transform="rotate(90 670.5 199.5)"/>
                <path fill="#4F2CA5" d="M1200.234 395.234c-3.093 0-5.597-2.512-5.597-5.609s2.504-5.608 5.597-5.608c3.09 0 5.597 2.511 5.597 5.608 0 3.097-2.507 5.609-5.597 5.609" opacity=".195" transform="rotate(90 670.5 199.5)"/>
                <path fill="#4F2CA5" d="M1170.564 698.613c-6.19 0-11.205-5.03-11.205-11.232 0-6.2 5.016-11.23 11.205-11.23 6.19 0 11.208 5.03 11.208 11.23 0 6.202-5.019 11.232-11.208 11.232" opacity=".298" transform="rotate(90 670.5 199.5)"/>
                <path fill="#4F2CA5" d="M945.773 539.163c-4.384 0-7.935-3.559-7.935-7.949s3.551-7.949 7.935-7.949c4.378 0 7.932 3.559 7.932 7.949s-3.554 7.949-7.932 7.949" opacity=".195" transform="rotate(90 670.5 199.5)"/>
                <path fill="#4F2CA5" d="M963.456 802.793c-4.446 0-8.052-3.616-8.052-8.075 0-4.453 3.606-8.07 8.052-8.07 4.447 0 8.055 3.617 8.055 8.07 0 4.459-3.608 8.075-8.055 8.075M579.14 653.35c-3.423 0-6.553-1.25-8.962-3.318l9.963-16.295 4.913 18.28c-1.794.854-3.797 1.333-5.915 1.333m7.208-2.036l-5.147-19.152 4.758-4.633c4.16 2.38 6.968 6.864 6.968 12.006 0 4.983-2.633 9.347-6.579 11.78m-17.228-2.295c-2.335-2.474-3.763-5.812-3.763-9.485 0-1.305.18-2.57.518-3.768l13.045-2.779-9.8 16.032m-2.69-14.839c1.039-2.472 2.776-4.58 4.962-6.07l6.893 3.547-11.855 2.523m14.216-3.475l-2.17-4.967c.221-.011.441-.017.664-.017 1.94 0 3.789.402 5.466 1.127l-3.96 3.857m-1.706-.324l-6.095-3.137c1.274-.657 2.667-1.121 4.135-1.354l1.96 4.494" transform="rotate(90 670.5 199.5)"/>
                <path fill="#AC3B59" d="M581.2 632.162v-.002l4.758-4.631-4.758 4.633m-.555-1.456l3.96-3.857v.003l-3.96 3.854M569.119 649.023v-.003l9.8-16.032-13.045 2.779 13.048-2.779-9.803 16.035m-2.69-14.84v-.002l11.855-2.523-11.855 2.526" transform="rotate(90 670.5 199.5)"/>
                <path fill="#4F2CA5" d="M585.054 652.017l-4.913-18.28-9.963 16.295c-.372-.318-.724-.656-1.06-1.009l9.804-16.035 1.625-.347c.152-.031.284-.109.38-.218l.273-.263v.002l5.147 19.152c-.417.255-.85.49-1.293.703" transform="rotate(90 670.5 199.5)"/>
                <path fill="#AC3B59" d="M580.928 632.423c.097-.103.16-.238.183-.387.003-.034.006-.066.006-.1 0-.095-.02-.192-.06-.284l-.412-.946 3.96-3.854c.463.2.915.427 1.353.677l-4.758 4.63-.272.264" transform="rotate(90 670.5 199.5)"/>
                <path fill="#AC3B59" d="M565.874 635.767c.155-.542.34-1.073.555-1.583l11.855-2.526-6.893-3.547s0-.003.003-.003l8.678 4.47.33.08.486-.195c.149-.14.229-.332.229-.527 0 .034-.003.066-.006.1-.023.15-.086.284-.183.387-.097.11-.229.187-.38.218l-1.626.347-13.048 2.779m13.065-5.382l-6.097-3.14h.002l6.095 3.137v.003" transform="rotate(90 670.5 199.5)"/>
                <path fill="#AC3B59" d="M580.401 632.658l-.329-.08-8.678-4.47c.463-.316.947-.605 1.448-.863l6.097 3.14-1.96-4.494c.492-.077.99-.129 1.497-.152l2.58 5.913c.04.092.06.19.06.284 0 .195-.08.387-.228.527l-.487.195" transform="rotate(90 670.5 199.5)"/>
                <path fill="#4F2CA5" d="M512.16 423.412c-6.112 0-11.065-4.96-11.065-11.085 0-6.125 4.953-11.089 11.065-11.089 6.112 0 11.065 4.964 11.065 11.089s-4.953 11.085-11.065 11.085" opacity=".298" transform="rotate(90 670.5 199.5)"/>
                <path fill="#4F2CA5" d="M1311.018 451.393c-7.227 0-13.085-5.87-13.085-13.113 0-1.416.223-2.778.638-4.054l25.524 4.47c-.22 7.05-5.995 12.697-13.077 12.697m13.043-14.157l-24.963-4.375c2.057-4.537 6.621-7.69 11.92-7.69 6.87 0 12.51 5.313 13.043 12.065" opacity=".195" transform="rotate(90 670.5 199.5)"/>
                <path fill="#4789AA" d="M1324.095 438.696l-25.524-4.47c.152-.468.327-.924.527-1.365l24.963 4.375c.025.344.04.691.04 1.044 0 .14-.003.278-.006.416" transform="rotate(90 670.5 199.5)"/>
                <path fill="#4F2CA5" d="M1172.661 758.319c-5.556 0-10.06-4.511-10.06-10.082 0-5.563 4.504-10.08 10.06-10.08 5.554 0 10.061 4.517 10.061 10.08 0 5.571-4.507 10.082-10.06 10.082M977.88 597.592c-6.077 0-11.002-4.934-11.002-11.025 0-6.087 4.925-11.028 11.003-11.028 6.074 0 11.002 4.94 11.002 11.028 0 6.09-4.928 11.025-11.002 11.025" opacity=".195" transform="rotate(90 670.5 199.5)"/>
                <path fill="#4F2CA5" d="M1066.435 428.439c-5.751 0-10.41-4.671-10.41-10.432 0-5.76 4.659-10.432 10.41-10.432 5.749 0 10.41 4.672 10.41 10.432 0 5.761-4.661 10.432-10.41 10.432" transform="rotate(90 670.5 199.5)"/>
                <path fill="#4F2CA5" d="M770.816 600.047c-6.416 0-11.615-5.21-11.615-11.642 0-6.426 5.2-11.639 11.615-11.639s11.617 5.213 11.617 11.64c0 6.43-5.202 11.641-11.617 11.641" opacity=".298" transform="rotate(90 670.5 199.5)"/>
                <path fill="#4F2CA5" d="M837.71 669.393c-4.453 0-8.058-3.616-8.058-8.077 0-4.462 3.605-8.078 8.057-8.078 4.45 0 8.061 3.616 8.061 8.078 0 4.461-3.611 8.077-8.06 8.077" transform="rotate(90 670.5 199.5)"/>
                <path fill="#68B9DC" d="M545.793 571.654c-2.452 0-4.438-1.99-4.438-4.448 0-2.457 1.986-4.45 4.438-4.45s4.44 1.993 4.44 4.45c0 2.458-1.988 4.448-4.44 4.448" transform="rotate(90 670.5 199.5)"/>
                <path fill="#4F2CA5" d="M544.073 483.196c-1.413 0-2.775-.215-4.057-.614l7.116-26.426c6.072 1.393 10.604 6.841 10.604 13.348 0 7.561-6.117 13.692-13.663 13.692m-5.405-1.113c-4.859-2.099-8.258-6.942-8.258-12.58 0-7.558 6.118-13.691 13.663-13.691.555 0 1.105.034 1.643.097l-7.048 26.174" transform="rotate(90 670.5 199.5)"/>
                <path fill="#4789AA" d="M538.668 482.083L538.668 482.083 545.716 455.909 538.668 482.083M540.016 482.582c-.461-.143-.91-.31-1.348-.499l7.048-26.174c.48.058.952.14 1.416.247l-7.116 26.426" transform="rotate(90 670.5 199.5)"/>
                <path fill="#4F2CA5" d="M1258.177 692.752c-2.36 0-4.275-1.919-4.275-4.284 0-2.366 1.914-4.287 4.275-4.287 2.36 0 4.278 1.92 4.278 4.287 0 2.365-1.917 4.284-4.278 4.284" opacity=".195" transform="rotate(90 670.5 199.5)"/>
                <path fill="#4F2CA5" d="M875.617 564.723c-5.253 0-9.514-4.27-9.514-9.534 0-1.096.186-2.15.527-3.132l18.498 3.006v.126c0 5.264-4.26 9.534-9.51 9.534m9.379-11.137l-17.775-2.885c1.602-3.002 4.761-5.044 8.395-5.044 4.707 0 8.619 3.43 9.38 7.929" transform="rotate(90 670.5 199.5)"/>
                <path fill="#4F2CA5" d="M748.483 777.823c-5.157 0-9.334-4.187-9.334-9.354 0-5.164 4.177-9.356 9.334-9.356 5.156 0 9.336 4.192 9.336 9.356 0 5.167-4.18 9.354-9.336 9.354" opacity=".195" transform="rotate(90 670.5 199.5)"/>
                <path fill="#4F2CA5" d="M993.218 531.24c-4.198 0-7.595-3.407-7.595-7.613 0-4.198 3.397-7.608 7.595-7.608 4.192 0 7.594 3.41 7.594 7.608 0 4.206-3.402 7.613-7.594 7.613" transform="rotate(90 670.5 199.5)"/>
                <path fill="#4F2CA5" d="M838.556 458.278c-6.64 0-12.023-5.394-12.023-12.05 0-6.652 5.382-12.048 12.023-12.048 6.639 0 12.027 5.396 12.027 12.049 0 6.655-5.388 12.049-12.027 12.049" opacity=".195" transform="rotate(90 670.5 199.5)"/>
                <path fill="#4F2CA5" d="M711.081 353.232c-7.125 0-12.899-5.79-12.899-12.93 0-7.134 5.774-12.926 12.9-12.926 7.121 0 12.898 5.792 12.898 12.926 0 7.14-5.777 12.93-12.899 12.93" transform="rotate(90 670.5 199.5)"/>
                <path fill="#4F2CA5" d="M956.557 352.933c-4.472 0-8.097-3.63-8.097-8.112 0-4.481 3.625-8.112 8.097-8.112 4.467 0 8.092 3.63 8.092 8.112s-3.625 8.112-8.092 8.112" opacity=".195" transform="rotate(90 670.5 199.5)"/>
                <path fill="#4F2CA5" d="M709.353 835.975c-7.26 0-13.14-5.893-13.14-13.168 0-1.964.43-3.828 1.2-5.502l18.338 17.007c-1.894 1.058-4.077 1.663-6.398 1.663m7.648-2.46l-18.893-17.52c2.3-3.809 6.475-6.352 11.245-6.352 7.254 0 13.137 5.895 13.137 13.164 0 4.413-2.166 8.319-5.489 10.707" transform="rotate(90 670.5 199.5)"/>
                <path fill="#AC3B59" d="M715.751 834.312l-18.339-17.007 18.34 17.004v.003" transform="rotate(90 670.5 199.5)"/>
                <path fill="#AC3B59" d="M715.751 834.309l-18.339-17.004c.206-.45.438-.89.696-1.31L717 833.514c-.4.286-.818.553-1.25.794" transform="rotate(90 670.5 199.5)"/>
            </g>
        </g>
    </g>
</svg>
