<svg xmlns="http://www.w3.org/2000/svg" xmlns:xlink="http://www.w3.org/1999/xlink" width="100" height="60"><defs><rect id="A" width="100" height="60" rx="3"/></defs><g fill="none" fill-rule="evenodd"><mask id="B" fill="#fff"><use xlink:href="#A"/></mask><use fill="#fff" xlink:href="#A"/><g fill-rule="nonzero" fill="#4f2da7"><path d="M74.975 23.404c8.25 0 22.5 0 25.5-8.25S78.53 7.388 72.725 1.58s-15.17-5.177-24-5.177-7.158-9.734-14.25-8.25-.75 8.918-3 13.427v21.823h43.5z" mask="url(#B)" opacity=".05" transform="rotate(180 65.862 5.702)"/><path d="M17.286 59.675c29.448-10.47 42.536 13.088 42.536 0S44.116 40.043 36.263 32.19s-4.416-20.94-16.36-20.94S13.977 18.587.926 24.338s-13.088 45.808 16.36 35.337z" mask="url(#B)" opacity=".05"/><path d="M66.036 45.425c29.448-10.47 42.536 13.088 42.536 0S92.866 25.793 85.013 17.94 80.597-3 68.653-3s-5.926 7.337-18.977 13.088S23.5.926 23.5 17.94s13.088 37.955 42.536 27.485z" mask="url(#B)" opacity=".05" transform="matrix(-1 0 0 1 132.071 0)"/></g><g mask="url(#B)"><g fill="#eddeff" stroke="#ba8ee0"><rect width="20" height="30" rx="3" x="40" y="15"/><path d="M43 15h14a3 3 0 0 1 3 3v2H40v-2a3 3 0 0 1 3-3z"/></g><path fill="#ba8ee0" d="M52.5 17a.5.5 0 1 1 0 1 .5.5 0 1 1 0-1zm-2 0a.5.5 0 1 1 0 1h-3a.5.5 0 1 1 0-1h3z"/><path fill="#eddeff" stroke="#ba8ee0" d="M43 45h14a3 3 0 0 0 3-3v-2H40v2a3 3 0 0 0 3 3z"/><path fill="#ba8ee0" fill-rule="nonzero" d="M51.5 41a1.5 1.5 0 1 1 0 3h-3a1.5 1.5 0 1 1 0-3h3zm0 1h-3a.5.5 0 0 0-.09.992l.1.008h3a.5.5 0 0 0 .09-.992L51.5 42z"/><path fill="#fff" d="M50.27 24.13l.766.88 1.146-.49c.186-.08.4.023.46.215l.35 1.133 1.243.022c.2.003.358.183.333.383l-.138 1.18 1.127.53c.17.08.244.285.165.456-.154.32-.432.732-.62 1.05l.816.945c.132.153.102.39-.062.505l-.964.685.363 1.196c.06.195-.063.397-.26.436l-1.157.232-.152 1.24c-.026.212-.238.35-.44.288l-1.128-.257-.64 1.07a.34.34 0 0 1-.498.099l-.947-.71-1.02.717a.34.34 0 0 1-.494-.115l-.576-1.035-1.223.24c-.208.04-.4-.116-.406-.327l-.106-1.16-1.212-.282c-.198-.046-.31-.253-.247-.445l.38-1.124-.993-.753c-.17-.13-.182-.383-.025-.528l.783-.85-.603-1.094c-.1-.18-.02-.402.165-.483l1.083-.468-.108-1.246c-.018-.215.164-.393.375-.372l1.15.016.405-1.183c.07-.2.3-.3.484-.192l1.055.49.848-.914a.34.34 0 0 1 .519.022z"/><path fill="#6107b5" d="M50.27 24.13l.766.88 1.146-.49c.186-.08.4.023.46.215l.35 1.133 1.243.022c.2.003.358.183.333.383l-.138 1.18 1.127.53c.17.08.244.285.165.456-.154.32-.432.732-.62 1.05l.816.945c.132.153.102.39-.062.505l-.964.685.363 1.196c.06.195-.063.397-.26.436l-1.157.232-.152 1.24c-.026.212-.238.35-.44.288l-1.128-.257-.64 1.07a.34.34 0 0 1-.498.099l-.947-.71-1.02.717a.34.34 0 0 1-.494-.115l-.576-1.035-1.223.24c-.208.04-.4-.116-.406-.327l-.106-1.16-1.212-.282c-.198-.046-.31-.253-.247-.445l.38-1.124-.993-.753c-.17-.13-.182-.383-.025-.528l.783-.85-.603-1.094c-.1-.18-.02-.402.165-.483l1.083-.468-.108-1.246c-.018-.215.164-.393.375-.372l1.15.016.405-1.183c.07-.2.3-.3.484-.192l1.055.49.848-.914a.34.34 0 0 1 .519.022zm-3.07 6c-.454-.456.236-1.15.7-.694l1.528 1.536 2.676-2.982c.428-.478 1.153.177.724.655l-3.004 3.347c-.182.225-.52.244-.724.037l-1.89-1.9z"/><g fill="#ba8ee0" fill-rule="nonzero"><path d="M65.063 36.943c.147-.284.504-.4.797-.257l4.605 2.228c.245.114.377.375.32.632S70.5 40 70.228 40h-.236l-4.605-2.228-.06-.057c-.293-.142-.412-.487-.266-.77zM71.4 29.43c.326 0 .6.256.6.57s-.264.57-.6.57h-4.605c-.326 0-.6-.256-.6-.57s.264-.57.6-.57zm-1.476-9.37a.61.61 0 0 1 .593.034.57.57 0 0 1 .266.514c-.013.205-.137.388-.327.48l-4.605 2.228h-.236c-.27-.01-.5-.196-.557-.453s.077-.518.32-.632l4.605-2.228zM34.937 36.943c-.147-.284-.504-.4-.797-.257l-4.605 2.228c-.245.114-.377.375-.32.632s.286.444.557.453h.236l4.605-2.228.06-.057c.293-.142.412-.487.266-.77zM28.6 29.43c-.326 0-.6.256-.6.57s.264.57.6.57h4.605c.326 0 .6-.256.6-.57s-.264-.57-.6-.57zm1.476-9.37a.61.61 0 0 0-.593.034.57.57 0 0 0-.266.514c.013.205.137.388.327.48l4.605 2.228h.236c.27-.01.5-.196.557-.453s-.077-.518-.32-.632l-4.605-2.228z"/></g></g><path fill="#3792fc" fill-rule="nonzero" d="M19.277 25.617c1.06-.506 2.144-1.1 3.1-1.775.35-.252.005-.742-.363-.548-1.02.535-2.016 1.225-2.925 1.928-.187.14-.052.51.19.394zm69.535 10.3c-.22-1.152-.51-2.35-.93-3.45-.153-.402-.716-.195-.623.213.257 1.124.672 2.26 1.12 3.32.09.215.483.18.43-.083zM23.197 4.744l-.06-.052c-.262-.234-.693-.278-.947 0s-.25.667 0 .947l.052.06c.234.265.72.257.955 0s.28-.706 0-.955zm60.3 4.077c.066-.43.053-.837.29-1.216.48-.752 1.16-.564 1.818-.232.67.338 1.304.54 2.03.226 1.138-.492 1.674-2.21.586-3.018-.35-.263-.7.17-.652.5.066.46.295.972-.1 1.366-.53.53-1.15.085-1.68-.154-.57-.257-1.178-.313-1.764-.075-1.012.41-1.75 1.783-.943 2.71.113.128.385.07.414-.1zm-11.74 43.42c-1.04 1-1.434 2.553-.444 3.756.933 1.132 2.744 1.368 3.91.468 2.82-2.176-.12-6.185-3.16-5.356-.564.153-.423.958.133.987.887.05 1.84.083 2.55.71.763.667.78 1.8.153 2.57-1.658 2.035-4.535-.962-2.794-2.786.224-.228-.116-.568-.348-.348zm-61.008-6.63l1.055 3.593c.088.286.36.378.607.208l2.86-2.036c.176-.14.138-.424-.035-.544-1.076-.738-2.527-1.828-3.893-1.835-.346-.004-.59.487-.236.688.55.318 1.21.43 1.8.674.678.282 1.352.614 1.952 1.04l.04-.593c-1.027.632-1.994 1.34-2.968 2.047l.575.116-1.306-3.508c-.1-.244-.515-.11-.448.148z" mask="url(#B)" opacity=".05"/></g></svg>