<svg xmlns="http://www.w3.org/2000/svg" xmlns:xlink="http://www.w3.org/1999/xlink" width="80" height="60" viewBox="0 0 80 60">
  <defs>
    <rect id="ic_claim_b2-a" width="80" height="60" x="0" y="0" rx="3"/>
  </defs>
  <g fill="none" fill-rule="evenodd">
    <mask id="ic_claim_b2-b" fill="#fff">
      <use xlink:href="#ic_claim_b2-a"/>
    </mask>
    <use fill="#FFF" xlink:href="#ic_claim_b2-a"/>
    <path fill="#4F2DA7" fill-rule="nonzero" d="M67.9745113,23.403866 C76.2245113,23.403866 90.4745113,23.403866 93.4745113,15.153866 C96.4745113,6.90386604 71.5309629,7.38773701 65.7245113,1.5812854 C59.9180597,-4.22516622 50.5558925,-3.59613396 41.7245113,-3.59613396 C32.8931301,-3.59613396 34.5666067,-13.3297199 27.4745113,-11.846134 C20.382416,-10.362548 26.7245113,-2.92821923 24.4745113,1.5812854 C24.4745113,4.38381957 24.4745113,11.6580131 24.4745113,23.403866 C44.2245113,23.403866 58.7245113,23.403866 67.9745113,23.403866 Z" mask="url(#ic_claim_b2-b)" opacity=".05" transform="rotate(180 58.862 5.702)"/>
    <path fill="#4F2DA7" fill-rule="nonzero" d="M10.2856144,59.675161 C39.7333474,49.2048559 52.8212288,72.7630423 52.8212288,59.675161 C52.8212288,46.5872797 37.1157711,40.043339 29.2630423,32.1906102 C21.4103136,24.3378814 24.8468778,11.25 12.9031907,11.25 C0.959503549,11.25 6.97679534,18.5865724 -6.07423726,24.3378814 C-19.12527,30.0891903 -19.1621186,70.1454661 10.2856144,59.675161 Z" mask="url(#ic_claim_b2-b)" opacity=".05"/>
    <path fill="#4F2DA7" fill-rule="nonzero" d="M59.0356144,45.425161 C88.4833474,34.9548559 101.571229,58.5130423 101.571229,45.425161 C101.571229,32.3372797 85.8657711,25.793339 78.0130423,17.9406102 C70.1603136,10.0878814 73.5968778,-3 61.6531907,-3 C49.7095035,-3 55.7267953,4.33657244 42.6757627,10.0878814 C29.62473,15.8391903 16.5,0.926364402 16.5,17.9406102 C16.5,34.9548559 29.5878814,55.8954661 59.0356144,45.425161 Z" mask="url(#ic_claim_b2-b)" opacity=".05" transform="matrix(-1 0 0 1 118.071 0)"/>
    <path fill="#3792FC" fill-rule="nonzero" d="M12.2770509,25.6172581 C13.3358744,25.1112028 14.4206495,24.5272927 15.3756668,23.8421716 C15.7260128,23.5904415 15.3808571,23.0999571 15.012345,23.2945938 C13.9924488,23.8291958 12.995909,24.5195073 12.0876045,25.2227945 C11.9007533,25.3629329 12.0357014,25.731445 12.2770509,25.6172581 L12.2770509,25.6172581 Z" mask="url(#ic_claim_b2-b)" opacity=".05"/>
    <g fill-rule="nonzero" mask="url(#ic_claim_b2-b)">
      <g transform="translate(24 14)">
        <polygon fill="#BA8EE0" points="31.135 29.32 9.709 29.32 9.709 0 25.497 0 31.135 5.639"/>
        <polygon fill="#A084C2" points="25.497 0 25.497 5.639 31.135 5.639"/>
        <path fill="#B68CDA" d="M18.8376084,32.7033451 L2.20401046,32.7033451 C1.50334654,32.7033451 0.935346198,32.1353448 0.935346198,31.4346809 L0.935346198,31.4346809 C0.935346198,31.1601731 1.02434186,30.8930641 1.18907906,30.6734823 L2.62689855,28.7563897 L2.62689855,22.1142275 C2.62694094,19.076802 4.73649539,16.4468908 7.70155555,15.7878218 L13.3400633,15.7878218 C16.3051235,16.4468908 18.4146779,19.076802 18.4147203,22.1142275 L18.4147203,28.7563897 L19.8525398,30.6734823 C20.017277,30.8930641 20.1062727,31.1601731 20.1062727,31.4346809 L20.1062727,31.4346809 C20.1062727,32.1353448 19.5382723,32.7033451 18.8376084,32.7033451 Z"/>
        <polygon fill="#B68CDA" points="13.34 15.788 7.702 15.788 6.01 12.405 15.032 12.405"/>
        <path fill="#BA99E3" d="M17.9727435,32.7033451 L1.3391456,32.7033451 C0.638481679,32.7033451 0.0704813333,32.1353448 0.0704813333,31.4346809 L0.0704813333,31.4346809 C0.0704813333,31.1601731 0.159476994,30.8930641 0.324214197,30.6734823 L1.76203368,28.7563897 L1.76203368,22.1142275 C1.76207608,19.076802 3.87163052,16.4468908 6.83669068,15.7878218 L12.4751985,15.7878218 C15.4402586,16.4468908 17.5498131,19.076802 17.5498555,22.1142275 L17.5498555,28.7563897 L18.9876749,30.6734823 C19.1524121,30.8930641 19.2414078,31.1601731 19.2414078,31.4346809 L19.2414078,31.4346809 C19.2414078,32.1353448 18.6734075,32.7033451 17.9727435,32.7033451 Z"/>
        <path fill="#6107B5" d="M11.0680881,28.2402144 L9.22747084,25.6946799 L9.22747084,25.6946799 C9.72454054,25.5799716 10.1298435,25.3562902 10.4433798,25.0236358 C10.7569161,24.6909815 10.9328023,24.2378834 10.9710384,23.6643414 L11.4470782,23.6643414 C11.6022899,23.6643414 11.7281138,23.5385175 11.7281138,23.3833058 C11.7281138,23.2280942 11.6022899,23.1022703 11.4470782,23.1022703 L10.9480967,23.1022703 L10.9480967,23.1022703 C10.8945661,22.8346174 10.7951522,22.5994651 10.6498549,22.3968137 C10.5045576,22.1941622 10.3210242,22.0354822 10.0992546,21.9207738 L11.4470782,21.9207738 C11.6022899,21.9207738 11.7281138,21.7949499 11.7281138,21.6397383 C11.7281138,21.4845266 11.6022899,21.3587027 11.4470782,21.3587027 L7.77067425,21.3587027 C7.55527849,21.3587027 7.38066572,21.5333155 7.38066572,21.7487112 C7.38066572,21.964107 7.55527849,22.1387198 7.77067425,22.1387198 L8.19509531,22.1387198 L8.19509531,22.1387198 C8.69981223,22.1387198 9.10702703,22.2113684 9.41673969,22.3566657 C9.72645235,22.501963 9.92336842,22.7504979 10.0074879,23.1022703 L8.17215363,23.1022703 L7.63236421,23.1413854 C7.49050557,23.1516651 7.38066572,23.2697523 7.38066572,23.4119829 C7.38066572,23.5513567 7.49365045,23.6643414 7.63302418,23.6643414 L10.0304296,23.6643414 L10.0304296,23.6643414 C9.99219346,24.123175 9.81439545,24.4634765 9.49703556,24.6852461 C9.17967568,24.9070156 8.74569559,25.0179004 8.19509531,25.0179004 L7.76493883,25.0179004 C7.55271065,25.0179004 7.38066572,25.1899454 7.38066572,25.4021735 C7.38066572,25.6144017 7.55271065,25.7864467 7.76493883,25.7864467 L8.26392034,25.7864467 L8.26392034,25.7864467 L9.99468564,28.2367436 C10.1897423,28.5128912 10.5067696,28.6770982 10.8448592,28.6770982 C10.9969982,28.6770982 11.1203313,28.5537651 11.1203313,28.4016261 C11.1203313,28.3436659 11.1020496,28.2871824 11.0680881,28.2402144 Z"/>
        <polygon fill="#BA99E3" points="12.475 15.788 6.837 15.788 5.145 12.405 14.167 12.405"/>
        <path fill="#6107B5" d="M11.9642087,3.94695544 L11.9642087,7.05828404 C11.96408,8.27242393 12.6145802,9.39353085 13.6687296,9.99594659 L15.9111641,11.2770156 L18.1535987,9.99594659 C19.2077481,9.39353085 19.8582483,8.27242393 19.8581196,7.05828404 L19.8581196,3.94695544 L19.8581196,3.94695544 C18.760115,3.94695544 17.6917291,3.59082682 16.8133254,2.93202404 L15.9111641,2.25540311 L15.0090029,2.93202404 C14.1305992,3.59082682 13.0622133,3.94695544 11.9642087,3.94695544 Z"/>
        <rect width="1.128" height="1.128" x="15.347" y="4.511" fill="#A998D2"/>
        <rect width="1.128" height="1.128" x="15.347" y="7.894" fill="#A998D2"/>
        <rect width="1.128" height="1.128" x="13.656" y="6.156" fill="#A998D2"/>
        <rect width="1.128" height="1.128" x="17.039" y="6.202" fill="#A998D2"/>
        <rect width="14.096" height="1.128" x="14.22" y="13.532" fill="#B282DC"/>
        <rect width="5.639" height="1.128" x="16.475" y="16.352" fill="#B282DC"/>
        <rect width="5.075" height="1.128" x="23.241" y="16.352" fill="#B282DC"/>
        <polygon fill="#B282DC" points="18.576 19.171 28.316 19.171 28.316 20.299 18.576 20.299"/>
        <polygon fill="#B282DC" points="18.576 21.99 24.369 21.99 24.369 23.118 18.576 23.118"/>
        <rect width="2.819" height="1.128" x="25.497" y="21.99" fill="#B282DC"/>
        <polygon fill="#B282DC" points="18.576 24.809 28.316 24.809 28.316 25.937 18.576 25.937"/>
        <rect width="5.639" height="1.128" x="22.677" y="10.713" fill="#B282DC"/>
        <rect width="5.639" height="1.128" x="22.677" y="7.894" fill="#B282DC"/>
      </g>
    </g>
    <path fill="#3792FC" fill-rule="nonzero" d="M16.1967024 4.74397584C16.1759412 4.72580975 16.1577751 4.70764366 16.1370138 4.69207273 15.8749031 4.45850871 15.4441072 4.41439107 15.189782 4.69207273 14.9328616 4.97234954 14.940647 5.35902774 15.189782 5.63930456 15.2079481 5.66006581 15.2261142 5.6782319 15.2416851 5.69899314 15.4752491 5.96369902 15.9605432 5.95591356 16.1967024 5.69899314 16.4302664 5.44207273 16.4769792 4.99311079 16.1967024 4.74397584L16.1967024 4.74397584zM76.5064484 8.82141525C76.5722606 8.39206882 76.5597249 7.98465979 76.7979025 7.60545601 77.2773916 6.85331628 77.9574513 7.04135121 78.6155735 7.37354626 79.2862315 7.71200914 79.9192824 7.91257974 80.6463508 7.59918818 81.7839622 7.10716344 82.3198617 5.38977771 81.232393 4.58122749 80.8813945 4.31797858 80.5335299 4.75045893 80.5805386 5.08265398 80.6463508 5.54333957 80.8751267 6.05416781 80.4802533 6.44904117 79.9506216 6.9786729 79.3301063 6.53365689 78.8004746 6.29547931 78.2301019 6.03849823 77.6221223 5.98208775 77.0360801 6.22026533 76.0238254 6.63080827 75.2873552 8.00346329 76.0927715 8.93110229 76.2055925 9.05959283 76.4782431 9.00004844 76.5064484 8.82141525L76.5064484 8.82141525zM64.7650465 52.2428221C63.7245991 53.2418174 63.3308043 54.7962706 64.3215091 55.9983811 65.2541811 57.1300231 67.0656373 57.3663 68.2304409 56.4667897 71.0491828 54.2905551 68.1102299 50.2821384 65.0717919 51.1111801 64.5080435 51.2645528 64.6489806 52.0687233 65.2044386 52.0977398 66.0915132 52.1474823 67.0449112 52.1806439 67.7537419 52.8065704 68.5164603 53.473949 68.5330411 54.605591 67.9071146 55.3765998 66.2490312 57.4118973 63.3722564 54.4149114 65.113244 52.5910196 65.3370853 52.3630331 64.9971782 52.023126 64.7650465 52.2428221L64.7650465 52.2428221zM3.75726804 45.6141129C4.08196141 46.8211253 4.43841827 48.0140205 4.81252151 49.2069157 4.9007534 49.4927871 5.17250764 49.5845482 5.41955695 49.415143 6.3901078 48.7551684 7.35712937 48.1093109 8.27827036 47.3787508 8.45473415 47.2375798 8.41591212 46.9552377 8.2429776 46.8352424 7.16654848 46.0976237 5.71601612 45.0070775 4.35018637 45 4.00431734 44.9964897 3.76079731 45.487059 4.1137249 45.6882277 4.66429192 46.0058626 5.3242665 46.1187994 5.91365556 46.3623194 6.59127652 46.6446615 7.2653682 46.9764134 7.86534509 47.4034558 7.87946219 47.2058163 7.8935793 47.0081769 7.90416712 46.8105374 6.87714786 47.4422778 5.91012629 48.1516622 4.93604616 48.8575174 5.12662705 48.8963394 5.32073722 48.9351615 5.51131812 48.9739835 5.09486357 47.7952054 4.6678212 46.6270151 4.20548607 45.4658834 4.10666634 45.2223633 3.6902118 45.3564758 3.75726804 45.6141129L3.75726804 45.6141129z" mask="url(#ic_claim_b2-b)" opacity=".05"/>
  </g>
</svg>
