<?xml version="1.0" encoding="UTF-8"?>
<svg width="21px" height="19px" viewBox="0 0 21 19" version="1.1" xmlns="http://www.w3.org/2000/svg" xmlns:xlink="http://www.w3.org/1999/xlink">
    <!-- Generator: Sketch 55.2 (78181) - https://sketchapp.com -->
    <title>ic_claim_assist</title>
    <desc>Created with Sketch.</desc>
    <g id="Page-1" stroke="none" stroke-width="1" fill="none" fill-rule="evenodd">
        <g id="ic_claim_assist" transform="translate(0.000000, 1.000000)">
            <path d="M17.1351351,7 C17.1351351,3.13400675 14.1705342,0 10.5135135,0 C6.85649287,0 3.89189189,3.13400675 3.89189189,7" id="Path" stroke="#378EFC" stroke-width="0.6"></path>
            <g id="Group" transform="translate(14.243000, 6.000000)" fill-rule="nonzero">
                <path d="M3.8372973,6 C4.29075371,6 4.85832128,6 5.54,6 L5.54,0 C4.96393861,0 4.39637104,0 3.8372973,0 C2.27000274,0 0.99945946,1.34314575 0.99945946,3 C0.99945946,4.65685425 2.27000274,6 3.8372973,6 Z" id="Path" stroke="#FFFFFF" stroke-width="0.6" fill="#378EFC" transform="translate(3.269730, 3.000000) scale(-1, 1) translate(-3.269730, -3.000000) "></path>
                <rect id="Rectangle" fill="#FFFFFF" x="1.946" y="0" width="1" height="6"></rect>
            </g>
            <g id="Group" transform="translate(3.784000, 9.000000) scale(-1, 1) translate(-3.784000, -9.000000) translate(0.784000, 6.000000)" fill-rule="nonzero">
                <path d="M3.8372973,6 C4.29075371,6 4.85832128,6 5.54,6 L5.54,0 C4.96393861,0 4.39637104,0 3.8372973,0 C2.27000274,0 0.99945946,1.34314575 0.99945946,3 C0.99945946,4.65685425 2.27000274,6 3.8372973,6 Z" id="Path" stroke="#FFFFFF" stroke-width="0.6" fill="#378EFC" transform="translate(3.269730, 3.000000) scale(-1, 1) translate(-3.269730, -3.000000) "></path>
                <rect id="Rectangle" fill="#FFFFFF" x="1.946" y="0" width="1" height="6"></rect>
            </g>
            <path d="M6.54410811,17.0006667 C6.54410811,16.7580315 6.31308989,15.084 5.61534479,14.084 C4.91759969,13.084 4.22883593,12.084 2.89106118,12.084" id="Path" stroke="#378EFC" stroke-width="0.6" stroke-linecap="round" stroke-linejoin="round" transform="translate(4.717585, 14.542333) rotate(180.000000) translate(-4.717585, -14.542333) "></path>
            <circle id="Oval" fill="#378EFC" fill-rule="nonzero" cx="6.676" cy="17" r="1"></circle>
        </g>
    </g>
</svg>