<svg xmlns="http://www.w3.org/2000/svg" width="50" height="50" viewBox="0 0 50 50">
  <defs>
    <linearGradient id="dengue_insurance-a" x1="50%" x2="50%" y1="0%" y2="100%">
      <stop offset="0%" stop-color="#FFF" stop-opacity="0"/>
      <stop offset="46.523%" stop-color="#FBFAFD" stop-opacity="0"/>
      <stop offset="100%" stop-color="#5721AE" stop-opacity=".072"/>
    </linearGradient>
  </defs>
  <g fill="none" fill-rule="evenodd" transform="translate(5 6)">
    <g transform="translate(3)">
      <rect width="7.143" height="6.429" x="15.714" y="16.429" fill="#A998D2"/>
      <polygon fill="#A998D2" points="22.995 17.078 33.806 17.248 31.53 20.714 29.444 21.511 22.857 21.002"/>
      <circle cx="13.571" cy="19.286" r="2.143" fill="#A998D2"/>
      <polygon fill="#A998D2" points="19.286 13.878 25.438 4.295 24.81 1.763 22.275 1.055 20.715 3.57 19.286 11.463"/>
      <polygon fill="#A998D2" points="20.244 15.111 31.407 12.036 33.194 9.693 32.347 7.467 29.029 7.467"/>
      <path fill="#4F2DA7" fill-rule="nonzero" d="M30.3171429,27.1428571 L27.5214286,21.9514286 L29.2071429,22.1385714 C29.2332347,22.1414426 29.259465,22.1428734 29.2857143,22.1428571 C30.9938195,22.0554584 32.5504631,21.135939 33.4514286,19.6821429 L34.88,17.5392857 C35.0262373,17.320101 35.0399299,17.0382082 34.9156243,16.8058821 C34.7913186,16.573556 34.5492049,16.428532 34.2857143,16.4285714 L23.44,16.4285714 C23.2937969,16.0170022 23.0257122,15.659722 22.6714286,15.4042857 L30.9092857,12.8328571 C32.0751005,12.4825862 33.031368,11.6433435 33.53,10.5328571 C33.8692837,9.80250619 33.8537422,8.95667965 33.4878571,8.23928571 C32.9867753,7.38088619 32.1251941,6.79433911 31.1428571,6.64285714 C30.0829175,6.40502218 28.9721045,6.65079348 28.1114286,7.31357143 L20.6328571,13.6385714 L25.6064286,5.37785714 C26.083586,4.61588732 26.1834335,3.67668783 25.8771429,2.83142857 C25.5330966,1.86771009 24.7765693,1.10803937 23.8142857,0.76 C23.0629953,0.469612799 22.2198154,0.541546588 21.5285714,0.955 C20.674195,1.51609764 20.1175857,2.43180124 20.0128571,3.44857143 L17.9514286,15 L17.1428571,15 C16.078489,15.0028797 15.1782436,15.7880446 15.0307143,16.8421429 C13.8997864,16.1573038 12.4460466,16.3422801 11.5226591,17.2885136 C10.5992716,18.2347471 10.4498735,19.6925728 11.1621429,20.8064286 L6.42903656,27.1727682 L30.3171429,27.1428571 Z M28.6942857,27.1428571 L24.1614286,27.1428571 L22.4214286,23.3157143 C23.0978621,22.9621912 23.5337327,22.2740604 23.5642857,21.5114286 L25.8114286,21.7614286 L25.8007143,21.7671429 L28.6942857,27.1428571 Z M19.2857143,22.1428571 L17.1428571,22.1428571 C16.748368,22.1428571 16.4285714,21.8230605 16.4285714,21.4285714 L16.4285714,19.2857143 L19.2857143,19.2857143 L19.2857143,22.1428571 Z M16.8992857,23.5471429 C16.9799393,23.5599335 17.0612659,23.5680423 17.1428571,23.5714286 L20.9685714,23.5714286 L22.5921429,27.1428571 L15.265,27.1428571 L16.8992857,23.5471429 Z M26.1135714,20.3571429 L26.9428571,17.8571429 L28.8442857,17.8571429 L27.5157143,20.5135714 L26.1135714,20.3571429 Z M24.6621429,20.1957143 L23.5714286,20.0714286 L23.5714286,17.8571429 L25.4378571,17.8571429 L24.6621429,20.1957143 Z M32.2664286,18.8892857 C31.6288688,19.9287013 30.5373603,20.6054313 29.3228571,20.7142857 L29.0292857,20.6814286 L30.4414286,17.8571429 L32.9514286,17.8571429 L32.2664286,18.8892857 Z M29.0314286,8.40428571 C29.4046678,8.12074396 29.8644236,7.97489389 30.3328571,7.99142857 C30.5129198,7.99167408 30.6925466,8.00913447 30.8692857,8.04357143 C31.4262341,8.11846798 31.9223107,8.43386823 32.2264286,8.90642857 C32.389972,9.24292551 32.3862702,9.63663764 32.2164286,9.97 C31.8807388,10.6865328 31.2582322,11.2281136 30.5021429,11.4614286 L22.4414286,13.9792857 L29.0314286,8.40428571 Z M21.4221429,3.66785714 C21.4708166,3.07006979 21.7798157,2.5239014 22.2671429,2.17428571 C22.4423007,2.06682653 22.6437918,2.00999998 22.8492857,2.00999998 C23.0130695,2.01186202 23.1752692,2.04231978 23.3285714,2.1 C23.8870434,2.30087222 24.3266034,2.74069413 24.5271429,3.29928571 C24.6895093,3.74086122 24.6383449,4.23272446 24.3885714,4.63142857 L19.9285714,12.0364286 L21.4221429,3.66785714 Z M17.1428571,16.4285714 L21.4285714,16.4285714 C21.8230605,16.4285714 22.1428571,16.748368 22.1428571,17.1428571 L22.1428571,21.4285714 C22.1428571,21.8230605 21.8230605,22.1428571 21.4285714,22.1428571 L20.7142857,22.1428571 L20.7142857,18.5714286 C20.7142857,18.1769395 20.3944891,17.8571429 20,17.8571429 L16.4285714,17.8571429 L16.4285714,17.1428571 C16.4285714,16.748368 16.748368,16.4285714 17.1428571,16.4285714 Z M13.5714286,17.8571429 C14.3604068,17.8571429 15,18.4967361 15,19.2857143 C15,20.0746925 14.3604068,20.7142857 13.5714286,20.7142857 C12.7824504,20.7142857 12.1428571,20.0746925 12.1428571,19.2857143 C12.1428571,18.4967361 12.7824504,17.8571429 13.5714286,17.8571429 Z M12.2142857,21.7857143 C13.0932661,22.284241 14.1741645,22.2637021 15.0335714,21.7321429 C15.0951792,22.1827313 15.2994357,22.6017575 15.6164286,22.9278571 C14.7793398,24.7648452 14.1515232,26.1425863 13.7329788,27.0610803 C13.7246978,27.0792529 13.7122763,27.1065119 13.6957143,27.1428571 L7.93082895,27.1727682 L12.2142857,21.7857143 Z M5.11140422,28.5714286 L3.91357143,30.0314286 C2.7600513,30.1821713 1.81310645,31.0172456 1.51928571,32.1428571 L5.68434189e-14,32.1428571 L5.68434189e-14,33.5714286 L2.14285714,33.5714286 C2.53734625,33.5714286 2.85714286,33.251632 2.85714286,32.8571429 C2.85714286,32.0681646 3.49673607,31.4285714 4.28571429,31.4285714 C5.0746925,31.4285714 5.71428571,32.0681646 5.71428571,32.8571429 C5.71428571,33.251632 6.03408232,33.5714286 6.42857143,33.5714286 L8.57142857,33.5714286 L8.57142857,32.1428571 L7.05214286,32.1428571 C6.83898238,31.3321471 6.28104763,30.6556806 5.52571429,30.2921429 L6.83266131,28.5714286 L13.0471429,28.5714286 L12.3971429,30 L10.7142857,30 L10.7142857,31.4285714 L12.8571429,31.4285714 C13.1371177,31.4284939 13.3912333,31.2648547 13.5071429,31.01 L14.6157143,28.5714286 L23.2414286,28.5714286 L24.35,31.01 C24.4659096,31.2648547 24.7200251,31.4284939 25,31.4285714 L27.1428571,31.4285714 L27.1428571,30 L25.46,30 L24.81,28.5714286 L29.4635714,28.5714286 L30.7992857,31.0528571 C30.9239117,31.2843683 31.1656475,31.4286963 31.4285714,31.4285714 L33.5714286,31.4285714 L33.5714286,30 L31.8571429,30 L31.0878571,28.5714286 L5.11140422,28.5714286 Z"/>
      <rect width="1.429" height="1.429" x="11.429" y="33.571" fill="#AD95D6" fill-rule="nonzero"/>
      <rect width="1.429" height="1.429" x="16.429" y="31.429" fill="#AD95D6" fill-rule="nonzero"/>
      <rect width="1.429" height="1.429" x="22.143" y="34.286" fill="#AD95D6" fill-rule="nonzero"/>
      <rect width="1.429" height="1.429" x="30.714" y="32.857" fill="#AD95D6" fill-rule="nonzero"/>
    </g>
    <polygon fill="#4F2DA7" points="5.842 29.653 7.347 28.055 9.064 28.055 7.809 29.653"/>
    <polygon fill="#4F2DA7" points="14.911 29.653 15.644 28.037 17.416 28.02 16.666 29.653"/>
    <polygon fill="#4F2DA7" points="25.82 28.02 26.562 29.653 28.354 29.653 27.613 28.02"/>
    <polygon fill="#4F2DA7" points="32.793 28.02 34.648 28.02 35.529 29.653 33.673 29.653"/>
    <path fill="url(#dengue_insurance-a)" fill-rule="nonzero" d="M34.6481633,6.36316065 L31.4530612,5.14612245 L33.3795918,5.18999477 C33.4094111,5.19066787 33.4393885,5.19100328 33.4693878,5.19099948 C35.421508,5.1705104 37.2005293,4.95494541 38.2302041,4.61412873 L39.8628571,4.11177394 C40.0299855,4.06038997 40.0456342,3.99430522 39.9035706,3.9398405 C39.761507,3.88537577 39.4848056,3.85137746 39.1836735,3.85138671 L26.7885714,3.85138671 C26.6214822,3.75490161 26.3150997,3.67114362 25.9102041,3.61126112 L35.324898,3.00843537 C36.6572577,2.92632057 37.7501349,2.72957503 38.32,2.46924123 C38.7077528,2.29802343 38.6899911,2.09973442 38.2718367,1.93155416 C37.6991718,1.73031764 36.7145076,1.5928121 35.5918367,1.55729984 C34.3804771,1.50154366 33.1109765,1.55916038 32.1273469,1.71453689 L23.5804082,3.19732077 L29.2644898,1.26074307 C29.8098125,1.08211278 29.923924,0.861934143 29.5738776,0.663778127 C29.1806818,0.43785145 28.3160792,0.259760146 27.2163265,0.178168498 C26.357709,0.110092378 25.3940747,0.126955977 24.6040816,0.223882784 C23.6276514,0.355422158 22.9915265,0.570092598 22.8718367,0.808456306 L20.5159184,3.51648352 L19.5918367,3.51648352 C18.3754159,3.51715861 17.3465641,3.70122658 17.1779592,3.94834118 C15.8854702,3.78779283 14.2240533,3.83115723 13.1687533,4.05298486 C12.1134532,4.2748125 11.9427125,4.61657384 12.7567347,4.87769754 L7.34747035,6.37017277 L34.6481633,6.36316065 Z M32.7934694,6.36316065 L27.6130612,6.36316065 L25.6244898,5.465955 C26.3975567,5.3830778 26.8956946,5.22175776 26.9306122,5.04297227 L29.4987755,5.10158032 L29.4865306,5.10291994 L32.7934694,6.36316065 Z M22.0408163,5.19099948 L19.5918367,5.19099948 C19.140992,5.19099948 18.7755102,5.11602884 18.7755102,5.02354788 L18.7755102,4.52119309 L22.0408163,4.52119309 L22.0408163,5.19099948 Z M19.3134694,5.52020931 C19.4056449,5.52320786 19.4985896,5.52510883 19.5918367,5.52590267 L23.9640816,5.52590267 L25.8195918,6.36316065 L17.4457143,6.36316065 L19.3134694,5.52020931 Z M29.8440816,4.77237049 L30.7918367,4.1862899 L32.964898,4.1862899 L31.4465306,4.80904239 L29.8440816,4.77237049 Z M28.1853061,4.73452643 L26.9387755,4.70538985 L26.9387755,4.1862899 L29.0718367,4.1862899 L28.1853061,4.73452643 Z M36.8759184,4.42825746 C36.1472787,4.67192998 34.8998404,4.83057731 33.5118367,4.85609628 L33.1763265,4.84839351 L34.7902041,4.1862899 L37.6587755,4.1862899 L36.8759184,4.42825746 Z M33.1787755,1.97023548 C33.6053346,1.90376415 34.1307698,1.86957219 34.6661224,1.87344846 C34.8719084,1.87350601 35.0771961,1.87759929 35.2791837,1.88567242 C35.9156961,1.90323059 36.4826407,1.97717057 36.8302041,2.08795395 C37.0171108,2.16683968 37.0128802,2.25913849 36.8187755,2.33728938 C36.43513,2.50526777 35.7236939,2.63223175 34.8595918,2.68692831 L25.6473469,3.27719519 L33.1787755,1.97023548 Z M24.482449,0.859863946 C24.5380761,0.719723321 24.891218,0.591683846 25.4481633,0.509722658 C25.6483436,0.484530761 25.8786192,0.471208787 26.1134694,0.471208787 C26.3006509,0.47164531 26.4860219,0.47878559 26.6612245,0.492307692 C27.2994782,0.539398615 27.8018325,0.642507048 28.0310204,0.773458922 C28.216582,0.876978454 28.1581085,0.992287053 27.8726531,1.08575615 L22.7755102,2.82172684 L24.482449,0.859863946 Z M19.5918367,3.85138671 L24.4897959,3.85138671 C24.9406406,3.85138671 25.3061224,3.92635734 25.3061224,4.0188383 L25.3061224,5.02354788 C25.3061224,5.11602884 24.9406406,5.19099948 24.4897959,5.19099948 L23.6734694,5.19099948 L23.6734694,4.3537415 C23.6734694,4.26126053 23.3079876,4.1862899 22.8571429,4.1862899 L18.7755102,4.1862899 L18.7755102,4.0188383 C18.7755102,3.92635734 19.140992,3.85138671 19.5918367,3.85138671 Z M15.5102041,4.1862899 C16.4118935,4.1862899 17.1428571,4.33623117 17.1428571,4.52119309 C17.1428571,4.70615502 16.4118935,4.85609628 15.5102041,4.85609628 C14.6085147,4.85609628 13.877551,4.70615502 13.877551,4.52119309 C13.877551,4.33623117 14.6085147,4.1862899 15.5102041,4.1862899 Z M13.9591837,5.10727368 C14.9637327,5.22414442 16.1990451,5.21932942 17.1812245,5.09471481 C17.2516334,5.20034726 17.4850694,5.29858051 17.8473469,5.37502878 C16.890674,5.805678 16.1731694,6.12866491 15.6948329,6.34398952 C15.6853689,6.34824977 15.6711729,6.35464015 15.6522449,6.36316065 L9.06380452,6.37017277 L13.9591837,5.10727368 Z M5.84160482,6.69806384 L4.47265306,7.0403349 C3.15434434,7.07567385 2.07212165,7.27144218 1.73632653,7.53532182 L0,7.53532182 L0,7.87022501 L2.44897959,7.87022501 C2.89982429,7.87022501 3.26530612,7.79525438 3.26530612,7.70277342 C3.26530612,7.51781149 3.9962698,7.36787023 4.89795918,7.36787023 C5.79964857,7.36787023 6.53061224,7.51781149 6.53061224,7.70277342 C6.53061224,7.79525438 6.89609408,7.87022501 7.34693878,7.87022501 L9.79591837,7.87022501 L9.79591837,7.53532182 L8.05959184,7.53532182 C7.81597987,7.34526526 7.17834015,7.1866797 6.31510204,7.10145474 L7.80875579,6.69806384 L14.9110204,6.69806384 L14.1681633,7.03296703 L12.244898,7.03296703 L12.244898,7.36787023 L14.6938776,7.36787023 C15.0138488,7.36785205 15.3042666,7.32948974 15.4367347,7.26974359 L16.7036735,6.69806384 L26.5616327,6.69806384 L27.8285714,7.26974359 C27.9610395,7.32948974 28.2514573,7.36785205 28.5714286,7.36787023 L31.0204082,7.36787023 L31.0204082,7.03296703 L29.0971429,7.03296703 L28.3542857,6.69806384 L33.6726531,6.69806384 L35.1991837,7.27979069 C35.3416133,7.33406436 35.6178828,7.36789951 35.9183673,7.36787023 L38.3673469,7.36787023 L38.3673469,7.03296703 L36.4081633,7.03296703 L35.5289796,6.69806384 L5.84160482,6.69806384 Z" transform="matrix(1 0 0 -1 0 38)"/>
  </g>
</svg>
