<svg xmlns="http://www.w3.org/2000/svg" width="50" height="50" viewBox="0 0 50 50">
  <defs>
    <linearGradient id="dengue_insurance-a" x1="50%" x2="50%" y1="0%" y2="100%">
      <stop offset="0%" stop-color="#FFF" stop-opacity="0"/>
      <stop offset="46.523%" stop-color="#FBFAFD" stop-opacity="0"/>
      <stop offset="100%" stop-color="#5721AE" stop-opacity=".072"/>
    </linearGradient>
  </defs>
  <g fill="none" fill-rule="evenodd" transform="translate(8 7)">
    <rect width="7.143" height="6.429" x="15.714" y="16.429" fill="#96C7FF"/>
    <polygon fill="#96C7FF" points="22.995 17.078 33.806 17.248 31.53 20.714 29.444 21.511 22.857 21.002"/>
    <circle cx="13.571" cy="19.286" r="2.143" fill="#96C7FF"/>
    <polygon fill="#96C7FF" points="19.286 13.878 25.438 4.295 24.81 1.763 22.275 1.055 20.715 3.57 19.286 11.463"/>
    <polygon fill="#96C7FF" points="20.244 15.111 31.407 12.036 33.194 9.693 32.347 7.467 29.029 7.467"/>
    <path fill="#3792FC" fill-rule="nonzero" d="M30.3171429,27.1428571 L27.5214286,21.9514286 L29.2071429,22.1385714 C29.2332347,22.1414426 29.259465,22.1428734 29.2857143,22.1428571 C30.9938195,22.0554584 32.5504631,21.135939 33.4514286,19.6821429 L34.88,17.5392857 C35.0262373,17.320101 35.0399299,17.0382082 34.9156243,16.8058821 C34.7913186,16.573556 34.5492049,16.428532 34.2857143,16.4285714 L23.44,16.4285714 C23.2937969,16.0170022 23.0257122,15.659722 22.6714286,15.4042857 L30.9092857,12.8328571 C32.0751005,12.4825862 33.031368,11.6433435 33.53,10.5328571 C33.8692837,9.80250619 33.8537422,8.95667965 33.4878571,8.23928571 C32.9867753,7.38088619 32.1251941,6.79433911 31.1428571,6.64285714 C30.0829175,6.40502218 28.9721045,6.65079348 28.1114286,7.31357143 L20.6328571,13.6385714 L25.6064286,5.37785714 C26.083586,4.61588732 26.1834335,3.67668783 25.8771429,2.83142857 C25.5330966,1.86771009 24.7765693,1.10803937 23.8142857,0.76 C23.0629953,0.469612799 22.2198154,0.541546588 21.5285714,0.955 C20.674195,1.51609764 20.1175857,2.43180124 20.0128571,3.44857143 L17.9514286,15 L17.1428571,15 C16.078489,15.0028797 15.1782436,15.7880446 15.0307143,16.8421429 C13.8997864,16.1573038 12.4460466,16.3422801 11.5226591,17.2885136 C10.5992716,18.2347471 10.4498735,19.6925728 11.1621429,20.8064286 L6.42903656,27.1727682 L30.3171429,27.1428571 Z M28.6942857,27.1428571 L24.1614286,27.1428571 L22.4214286,23.3157143 C23.0978621,22.9621912 23.5337327,22.2740604 23.5642857,21.5114286 L25.8114286,21.7614286 L25.8007143,21.7671429 L28.6942857,27.1428571 Z M19.2857143,22.1428571 L17.1428571,22.1428571 C16.748368,22.1428571 16.4285714,21.8230605 16.4285714,21.4285714 L16.4285714,19.2857143 L19.2857143,19.2857143 L19.2857143,22.1428571 Z M16.8992857,23.5471429 C16.9799393,23.5599335 17.0612659,23.5680423 17.1428571,23.5714286 L20.9685714,23.5714286 L22.5921429,27.1428571 L15.265,27.1428571 L16.8992857,23.5471429 Z M26.1135714,20.3571429 L26.9428571,17.8571429 L28.8442857,17.8571429 L27.5157143,20.5135714 L26.1135714,20.3571429 Z M24.6621429,20.1957143 L23.5714286,20.0714286 L23.5714286,17.8571429 L25.4378571,17.8571429 L24.6621429,20.1957143 Z M32.2664286,18.8892857 C31.6288688,19.9287013 30.5373603,20.6054313 29.3228571,20.7142857 L29.0292857,20.6814286 L30.4414286,17.8571429 L32.9514286,17.8571429 L32.2664286,18.8892857 Z M29.0314286,8.40428571 C29.4046678,8.12074396 29.8644236,7.97489389 30.3328571,7.99142857 C30.5129198,7.99167408 30.6925466,8.00913447 30.8692857,8.04357143 C31.4262341,8.11846798 31.9223107,8.43386823 32.2264286,8.90642857 C32.389972,9.24292551 32.3862702,9.63663764 32.2164286,9.97 C31.8807388,10.6865328 31.2582322,11.2281136 30.5021429,11.4614286 L22.4414286,13.9792857 L29.0314286,8.40428571 Z M21.4221429,3.66785714 C21.4708166,3.07006979 21.7798157,2.5239014 22.2671429,2.17428571 C22.4423007,2.06682653 22.6437918,2.00999998 22.8492857,2.00999998 C23.0130695,2.01186202 23.1752692,2.04231978 23.3285714,2.1 C23.8870434,2.30087222 24.3266034,2.74069413 24.5271429,3.29928571 C24.6895093,3.74086122 24.6383449,4.23272446 24.3885714,4.63142857 L19.9285714,12.0364286 L21.4221429,3.66785714 Z M17.1428571,16.4285714 L21.4285714,16.4285714 C21.8230605,16.4285714 22.1428571,16.748368 22.1428571,17.1428571 L22.1428571,21.4285714 C22.1428571,21.8230605 21.8230605,22.1428571 21.4285714,22.1428571 L20.7142857,22.1428571 L20.7142857,18.5714286 C20.7142857,18.1769395 20.3944891,17.8571429 20,17.8571429 L16.4285714,17.8571429 L16.4285714,17.1428571 C16.4285714,16.748368 16.748368,16.4285714 17.1428571,16.4285714 Z M13.5714286,17.8571429 C14.3604068,17.8571429 15,18.4967361 15,19.2857143 C15,20.0746925 14.3604068,20.7142857 13.5714286,20.7142857 C12.7824504,20.7142857 12.1428571,20.0746925 12.1428571,19.2857143 C12.1428571,18.4967361 12.7824504,17.8571429 13.5714286,17.8571429 Z M12.2142857,21.7857143 C13.0932661,22.284241 14.1741645,22.2637021 15.0335714,21.7321429 C15.0951792,22.1827313 15.2994357,22.6017575 15.6164286,22.9278571 C14.7793398,24.7648452 14.1515232,26.1425863 13.7329788,27.0610803 C13.7246978,27.0792529 13.7122763,27.1065119 13.6957143,27.1428571 L7.93082895,27.1727682 L12.2142857,21.7857143 Z M5.11140422,28.5714286 L3.91357143,30.0314286 C2.7600513,30.1821713 1.81310645,31.0172456 1.51928571,32.1428571 L5.68434189e-14,32.1428571 L5.68434189e-14,33.5714286 L2.14285714,33.5714286 C2.53734625,33.5714286 2.85714286,33.251632 2.85714286,32.8571429 C2.85714286,32.0681646 3.49673607,31.4285714 4.28571429,31.4285714 C5.0746925,31.4285714 5.71428571,32.0681646 5.71428571,32.8571429 C5.71428571,33.251632 6.03408232,33.5714286 6.42857143,33.5714286 L8.57142857,33.5714286 L8.57142857,32.1428571 L7.05214286,32.1428571 C6.83898238,31.3321471 6.28104763,30.6556806 5.52571429,30.2921429 L6.83266131,28.5714286 L13.0471429,28.5714286 L12.3971429,30 L10.7142857,30 L10.7142857,31.4285714 L12.8571429,31.4285714 C13.1371177,31.4284939 13.3912333,31.2648547 13.5071429,31.01 L14.6157143,28.5714286 L23.2414286,28.5714286 L24.35,31.01 C24.4659096,31.2648547 24.7200251,31.4284939 25,31.4285714 L27.1428571,31.4285714 L27.1428571,30 L25.46,30 L24.81,28.5714286 L29.4635714,28.5714286 L30.7992857,31.0528571 C30.9239117,31.2843683 31.1656475,31.4286963 31.4285714,31.4285714 L33.5714286,31.4285714 L33.5714286,30 L31.8571429,30 L31.0878571,28.5714286 L5.11140422,28.5714286 Z"/>
    <rect width="1.429" height="1.429" x="11.429" y="33.571" fill="#96C7FF" fill-rule="nonzero"/>
    <rect width="1.429" height="1.429" x="16.429" y="31.429" fill="#96C7FF" fill-rule="nonzero"/>
    <rect width="1.429" height="1.429" x="22.143" y="34.286" fill="#96C7FF" fill-rule="nonzero"/>
    <rect width="1.429" height="1.429" x="30.714" y="32.857" fill="#96C7FF" fill-rule="nonzero"/>
    <polygon fill="#3792FC" points="5.111 28.571 6.429 27.173 7.931 27.173 6.833 28.571"/>
    <polygon fill="#3792FC" points="13.047 28.571 13.688 27.157 15.239 27.143 14.583 28.571"/>
    <polygon fill="#3792FC" points="22.592 27.143 23.241 28.571 24.81 28.571 24.161 27.143"/>
    <polygon fill="#3792FC" points="28.694 27.143 30.317 27.143 31.088 28.571 29.464 28.571"/>
    <path fill="url(#dengue_insurance-a)" fill-rule="nonzero" d="M30.3171429,5.56776557 L27.5214286,4.50285714 L29.2071429,4.54124542 C29.2332347,4.54183439 29.259465,4.54212787 29.2857143,4.54212454 C30.9938195,4.5241966 32.5504631,4.33557723 33.4514286,4.03736264 L34.88,3.5978022 C35.0262373,3.55284122 35.0399299,3.49501706 34.9156243,3.44736043 C34.7913186,3.3997038 34.5492049,3.36995528 34.2857143,3.36996337 L23.44,3.36996337 C23.2937969,3.28553891 23.0257122,3.21225066 22.6714286,3.15985348 L30.9092857,2.63238095 C32.0751005,2.5605305 33.031368,2.38837816 33.53,2.16058608 C33.8692837,2.0107705 33.8537422,1.83726762 33.4878571,1.69010989 C32.9867753,1.51402794 32.1251941,1.39371059 31.1428571,1.36263736 C30.0829175,1.3138507 28.9721045,1.36426533 28.1114286,1.50021978 L20.6328571,2.79765568 L25.6064286,1.10315018 C26.083586,0.94684868 26.1834335,0.754192375 25.8771429,0.580805861 C25.5330966,0.383120019 24.7765693,0.227290127 23.8142857,0.155897436 C23.0629953,0.0963308306 22.2198154,0.11108648 21.5285714,0.195897436 C20.674195,0.310994388 20.1175857,0.498831023 20.0128571,0.707399267 L17.9514286,3.07692308 L17.1428571,3.07692308 C16.078489,3.07751378 15.1782436,3.23857326 15.0307143,3.45479853 C13.8997864,3.31431873 12.4460466,3.35226257 11.5226591,3.54636176 C10.5992716,3.74046094 10.4498735,4.03950211 11.1621429,4.26798535 L6.42903656,5.57390117 L30.3171429,5.56776557 Z M28.6942857,5.56776557 L24.1614286,5.56776557 L22.4214286,4.78271062 C23.0978621,4.71019308 23.5337327,4.56903804 23.5642857,4.41260073 L25.8114286,4.46388278 L25.8007143,4.46505495 L28.6942857,5.56776557 Z M19.2857143,4.54212454 L17.1428571,4.54212454 C16.748368,4.54212454 16.4285714,4.47652524 16.4285714,4.3956044 L16.4285714,3.95604396 L19.2857143,3.95604396 L19.2857143,4.54212454 Z M16.8992857,4.83018315 C16.9799393,4.83280688 17.0612659,4.83447022 17.1428571,4.83516484 L20.9685714,4.83516484 L22.5921429,5.56776557 L15.265,5.56776557 L16.8992857,4.83018315 Z M26.1135714,4.17582418 L26.9428571,3.66300366 L28.8442857,3.66300366 L27.5157143,4.20791209 L26.1135714,4.17582418 Z M24.6621429,4.14271062 L23.5714286,4.11721612 L23.5714286,3.66300366 L25.4378571,3.66300366 L24.6621429,4.14271062 Z M32.2664286,3.87472527 C31.6288688,4.08793873 30.5373603,4.22675514 29.3228571,4.24908425 L29.0292857,4.24234432 L30.4414286,3.66300366 L32.9514286,3.66300366 L32.2664286,3.87472527 Z M29.0314286,1.72395604 C29.4046678,1.66579363 29.8644236,1.63587567 30.3328571,1.6392674 C30.5129198,1.63931776 30.6925466,1.64289938 30.8692857,1.64996337 C31.4262341,1.66532676 31.9223107,1.73002425 32.2264286,1.82695971 C32.389972,1.89598472 32.3862702,1.97674618 32.2164286,2.04512821 C31.8807388,2.1921093 31.2582322,2.30320278 30.5021429,2.35106227 L22.4414286,2.86754579 L29.0314286,1.72395604 Z M21.4221429,0.752380952 C21.4708166,0.629757906 21.7798157,0.517723365 22.2671429,0.446007326 C22.4423007,0.423964416 22.6437918,0.412307689 22.8492857,0.412307689 C23.0130695,0.412689646 23.1752692,0.418937391 23.3285714,0.430769231 C23.8870434,0.471973788 24.3266034,0.562193667 24.5271429,0.676776557 C24.6895093,0.767356147 24.6383449,0.868251171 24.3885714,0.95003663 L19.9285714,2.46901099 L21.4221429,0.752380952 Z M17.1428571,3.36996337 L21.4285714,3.36996337 C21.8230605,3.36996337 22.1428571,3.43556267 22.1428571,3.51648352 L22.1428571,4.3956044 C22.1428571,4.47652524 21.8230605,4.54212454 21.4285714,4.54212454 L20.7142857,4.54212454 L20.7142857,3.80952381 C20.7142857,3.72860297 20.3944891,3.66300366 20,3.66300366 L16.4285714,3.66300366 L16.4285714,3.51648352 C16.4285714,3.43556267 16.748368,3.36996337 17.1428571,3.36996337 Z M13.5714286,3.66300366 C14.3604068,3.66300366 15,3.79420227 15,3.95604396 C15,4.11788564 14.3604068,4.24908425 13.5714286,4.24908425 C12.7824504,4.24908425 12.1428571,4.11788564 12.1428571,3.95604396 C12.1428571,3.79420227 12.7824504,3.66300366 13.5714286,3.66300366 Z M12.2142857,4.46886447 C13.0932661,4.57112637 14.1741645,4.56691324 15.0335714,4.45787546 C15.0951792,4.55030385 15.2994357,4.63625795 15.6164286,4.70315018 C14.7793398,5.07996825 14.1515232,5.3625818 13.7329788,5.55099083 C13.7246978,5.55471855 13.7122763,5.56031013 13.6957143,5.56776557 L7.93082895,5.57390117 L12.2142857,4.46886447 Z M5.11140422,5.86080586 L3.91357143,6.16029304 C2.7600513,6.19121462 1.81310645,6.36251191 1.51928571,6.59340659 L0,6.59340659 L0,6.88644689 L2.14285714,6.88644689 C2.53734625,6.88644689 2.85714286,6.82084758 2.85714286,6.73992674 C2.85714286,6.57808505 3.49673607,6.44688645 4.28571429,6.44688645 C5.0746925,6.44688645 5.71428571,6.57808505 5.71428571,6.73992674 C5.71428571,6.82084758 6.03408232,6.88644689 6.42857143,6.88644689 L8.57142857,6.88644689 L8.57142857,6.59340659 L7.05214286,6.59340659 C6.83898238,6.4271071 6.28104763,6.28834474 5.52571429,6.21377289 L6.83266131,5.86080586 L13.0471429,5.86080586 L12.3971429,6.15384615 L10.7142857,6.15384615 L10.7142857,6.44688645 L12.8571429,6.44688645 C13.1371177,6.44687054 13.3912333,6.41330352 13.5071429,6.36102564 L14.6157143,5.86080586 L23.2414286,5.86080586 L24.35,6.36102564 C24.4659096,6.41330352 24.7200251,6.44687054 25,6.44688645 L27.1428571,6.44688645 L27.1428571,6.15384615 L25.46,6.15384615 L24.81,5.86080586 L29.4635714,5.86080586 L30.7992857,6.36981685 C30.9239117,6.41730631 31.1656475,6.44691207 31.4285714,6.44688645 L33.5714286,6.44688645 L33.5714286,6.15384615 L31.8571429,6.15384615 L31.0878571,5.86080586 L5.11140422,5.86080586 Z" transform="matrix(1 0 0 -1 0 35.875)"/>
  </g>
</svg>
