<svg width="69" height="69" viewBox="0 0 69 69" fill="none" xmlns="http://www.w3.org/2000/svg">
<path opacity="0.06" fill-rule="evenodd" clip-rule="evenodd" d="M34.5 68C53.0015 68 68 53.0015 68 34.5C68 15.9985 53.0015 1 34.5 1C15.9985 1 1 15.9985 1 34.5C1 53.0015 15.9985 68 34.5 68ZM34.5 69C53.5538 69 69 53.5538 69 34.5C69 15.4462 53.5538 0 34.5 0C15.4462 0 0 15.4462 0 34.5C0 53.5538 15.4462 69 34.5 69Z" fill="#4F2DA6"/>
<path opacity="0.12" fill-rule="evenodd" clip-rule="evenodd" d="M34.5 61C49.1355 61 61 49.1355 61 34.5C61 19.8645 49.1355 8 34.5 8C19.8645 8 8 19.8645 8 34.5C8 49.1355 19.8645 61 34.5 61ZM34.5 62C49.6878 62 62 49.6878 62 34.5C62 19.3122 49.6878 7 34.5 7C19.3122 7 7 19.3122 7 34.5C7 49.6878 19.3122 62 34.5 62Z" fill="#4F2DA6"/>
<path opacity="0.18" fill-rule="evenodd" clip-rule="evenodd" d="M34.5 53C44.7173 53 53 44.7173 53 34.5C53 24.2827 44.7173 16 34.5 16C24.2827 16 16 24.2827 16 34.5C16 44.7173 24.2827 53 34.5 53ZM34.5 54C45.2696 54 54 45.2696 54 34.5C54 23.7304 45.2696 15 34.5 15C23.7304 15 15 23.7304 15 34.5C15 45.2696 23.7304 54 34.5 54Z" fill="#4F2DA6"/>
<path fill-rule="evenodd" clip-rule="evenodd" d="M34.5 27C34.7761 27 35 27.2239 35 27.5V41.5C35 41.7761 34.7761 42 34.5 42C34.2238 42 34 41.7761 34 41.5V27.5C34 27.2239 34.2238 27 34.5 27Z" fill="#4F2DA6"/>
<path fill-rule="evenodd" clip-rule="evenodd" d="M29.1464 37.1464C29.3417 36.9512 29.6583 36.9512 29.8536 37.1464L34.5 41.7929L39.1464 37.1464C39.3417 36.9512 39.6583 36.9512 39.8536 37.1464C40.0488 37.3417 40.0488 37.6583 39.8536 37.8536L34.8536 42.8536C34.6583 43.0488 34.3417 43.0488 34.1464 42.8536L29.1464 37.8536C28.9512 37.6583 28.9512 37.3417 29.1464 37.1464Z" fill="#4F2DA6"/>
</svg>
