<svg width="56" height="56" viewBox="0 0 56 56" fill="none" xmlns="http://www.w3.org/2000/svg">
<circle cx="28" cy="28" r="28" fill="#E6F2FE"/>
<path d="M37.7256 38C37.611 38 37.4962 37.9567 37.4081 37.8695L31.7455 32.2251C31.5678 32.0494 31.5657 31.7628 31.7409 31.5844C31.9164 31.4061 32.2027 31.404 32.3803 31.58L37.7234 36.9085L39.1307 35.4981L33.7922 30.1736C33.6145 29.9979 33.6123 29.7112 33.7877 29.5329C33.9625 29.3551 34.249 29.3524 34.427 29.5285L40.0898 35.1733C40.1755 35.2578 40.224 35.3738 40.2244 35.4941C40.2249 35.6149 40.1772 35.7308 40.092 35.8162L38.0452 37.8672C37.9569 37.9557 37.8412 38 37.7256 38Z" fill="#3792FC"/>
<path d="M28.1276 33.4032C23.8901 33.4032 20.4427 29.9484 20.4427 25.7016C20.4427 21.4548 23.8901 18 28.1276 18C32.3651 18 35.8125 21.4548 35.8125 25.7016C35.8125 29.9484 32.3651 33.4032 28.1276 33.4032ZM28.1276 18.9061C24.3887 18.9061 21.3468 21.9543 21.3468 25.7016C21.3468 29.4489 24.3887 32.4971 28.1276 32.4971C31.8665 32.4971 34.9084 29.4489 34.9084 25.7016C34.9084 21.9543 31.8665 18.9061 28.1276 18.9061Z" fill="#3792FC"/>
<path d="M28.1786 28.7692C25.7319 28.7201 23.8621 27.0668 22.9633 26.2718L22.7587 26.0922C22.666 26.0117 22.6099 25.8975 22.6029 25.775C22.596 25.6529 22.6388 25.5329 22.7216 25.4427C24.417 23.596 26.2467 22.6386 28.1597 22.5966C28.1663 22.5966 28.1729 22.5966 28.1795 22.5966C30.0933 22.6387 31.9231 23.5961 33.6181 25.4427C33.7009 25.5329 33.7437 25.6529 33.7368 25.7754C33.7298 25.8975 33.6735 26.0121 33.581 26.0922L33.3748 26.2731C32.476 27.0673 30.606 28.7201 28.1786 28.7692ZM23.7067 25.7205C24.6158 26.52 26.1919 27.8229 28.1786 27.8632C30.148 27.8229 31.7238 26.5196 32.6327 25.7205C31.2086 24.2849 29.7089 23.5394 28.1696 23.5027C26.6309 23.5395 25.1315 24.2849 23.7067 25.7205Z" fill="#3792FC"/>
<path d="M28.1699 28.7139C26.502 28.7139 25.1453 27.3544 25.1453 25.6829C25.1453 24.0115 26.5021 22.6519 28.1699 22.6519C29.8375 22.6519 31.1943 24.0115 31.1943 25.6829C31.1943 27.3544 29.8375 28.7139 28.1699 28.7139ZM28.1699 23.558C27.0007 23.558 26.0494 24.5114 26.0494 25.6829C26.0494 26.8544 27.0007 27.8078 28.1699 27.8078C29.3391 27.8078 30.2902 26.8544 30.2902 25.6829C30.2902 24.5114 29.3391 23.558 28.1699 23.558Z" fill="#3792FC"/>
<path d="M40.5558 26.1891H38.335C38.0897 26.1891 37.8908 25.99 37.8908 25.744C37.8908 25.498 38.0897 25.2989 38.335 25.2989H40.5558C40.8011 25.2989 41 25.498 41 25.744C41 25.99 40.8011 26.1891 40.5558 26.1891Z" fill="#3792FC"/>
<path d="M37.6531 21.2926C37.4824 21.2926 37.3197 21.1935 37.2464 21.027C37.1475 20.8022 37.2492 20.5393 37.4737 20.4401L39.4883 19.5498C39.7126 19.4516 39.9748 19.5529 40.0739 19.7776C40.1728 20.0024 40.0711 20.2654 39.8466 20.3645L37.832 21.2548C37.7739 21.2805 37.7129 21.2926 37.6531 21.2926Z" fill="#3792FC"/>
<path d="M17.665 26.1891H15.4442C15.1989 26.1891 15 25.99 15 25.744C15 25.498 15.1989 25.2989 15.4442 25.2989H17.665C17.9103 25.2989 18.1092 25.498 18.1092 25.744C18.1092 25.99 17.9103 26.1891 17.665 26.1891Z" fill="#3792FC"/>
<path d="M18.3469 21.2926C18.2871 21.2926 18.2261 21.2805 18.168 21.2548L16.1534 20.3645C15.9289 20.2654 15.8272 20.0024 15.9262 19.7776C16.0252 19.5529 16.2881 19.4516 16.5117 19.5498L18.5263 20.4401C18.7508 20.5393 18.8525 20.8022 18.7536 21.027C18.6802 21.1935 18.5176 21.2926 18.3469 21.2926Z" fill="#3792FC"/>
<path d="M16.3327 31.976C16.162 31.976 15.9994 31.8768 15.9261 31.7104C15.8272 31.4856 15.9289 31.2226 16.1534 31.1235L18.168 30.2332C18.3922 30.135 18.6547 30.2362 18.7536 30.461C18.8525 30.6857 18.7508 30.9487 18.5263 31.0479L16.5117 31.9381C16.4536 31.9638 16.3926 31.976 16.3327 31.976Z" fill="#3792FC"/>
</svg>
