<svg xmlns="http://www.w3.org/2000/svg" xmlns:xlink="http://www.w3.org/1999/xlink" width="80" height="60" viewBox="0 0 80 60">
  <defs>
    <rect id="ic_esign_done-a" width="80" height="60" x="0" y="0" rx="3"/>
  </defs>
  <g fill="none" fill-rule="evenodd">
    <mask id="ic_esign_done-b" fill="#fff">
      <use xlink:href="#ic_esign_done-a"/>
    </mask>
    <use fill="#FFF" fill-rule="nonzero" xlink:href="#ic_esign_done-a"/>
    <path fill="#4F2DA7" fill-rule="nonzero" d="M67.9746153,23.404 C76.2246153,23.404 90.4746153,23.404 93.4746153,15.154 C96.4746153,6.9040001 71.5310669,7.38787107 65.7246153,1.58141946 C59.9181637,-4.22503216 50.5559965,-3.5959999 41.7246153,-3.5959999 C32.8932341,-3.5959999 34.5667107,-13.3295859 27.4746153,-11.846 C20.38252,-10.362414 26.7246153,-2.92808517 24.4746153,1.58141946 C24.4746153,4.38395363 24.4746153,11.6581471 24.4746153,23.404 C44.2246153,23.404 58.7246153,23.404 67.9746153,23.404 Z" mask="url(#ic_esign_done-b)" opacity=".05" transform="rotate(180 58.862 5.702)"/>
    <path fill="#4F2DA7" fill-rule="nonzero" d="M10.2856144,59.675161 C39.7333474,49.2048559 52.8212288,72.7630423 52.8212288,59.675161 C52.8212288,46.5872797 37.1157711,40.043339 29.2630423,32.1906102 C21.4103136,24.3378814 24.8468778,11.25 12.9031907,11.25 C0.959503549,11.25 6.97679534,18.5865724 -6.07423726,24.3378814 C-19.12527,30.0891903 -19.1621186,70.1454661 10.2856144,59.675161 Z" mask="url(#ic_esign_done-b)" opacity=".05"/>
    <path fill="#4F2DA7" fill-rule="nonzero" d="M59.0353844,45.425161 C88.4831174,34.9548559 101.570999,58.5130423 101.570999,45.425161 C101.570999,32.3372797 85.8655411,25.793339 78.0128123,17.9406102 C70.1600836,10.0878814 73.5966478,-3 61.6529607,-3 C49.7092735,-3 55.7265653,4.33657244 42.6755327,10.0878814 C29.6245,15.8391903 16.49977,0.926364402 16.49977,17.9406102 C16.49977,34.9548559 29.5876514,55.8954661 59.0353844,45.425161 Z" mask="url(#ic_esign_done-b)" opacity=".05" transform="matrix(-1 0 0 1 118.07 0)"/>
    <path fill="#4F2DA7" fill-rule="nonzero" d="M12.2770509,25.6172581 C13.3358744,25.1112028 14.4206495,24.5272927 15.3756668,23.8421716 C15.7260128,23.5904415 15.3808571,23.0999571 15.012345,23.2945938 C13.9924488,23.8291958 12.995909,24.5195073 12.0876045,25.2227945 C11.9007533,25.3629329 12.0357014,25.731445 12.2770509,25.6172581 L12.2770509,25.6172581 Z M16.1967024,4.74397584 C16.1759412,4.72580975 16.1577751,4.70764366 16.1370138,4.69207273 C15.8749031,4.45850871 15.4441072,4.41439107 15.189782,4.69207273 C14.9328616,4.97234954 14.940647,5.35902774 15.189782,5.63930456 C15.2079481,5.66006581 15.2261142,5.6782319 15.2416851,5.69899314 C15.4752491,5.96369902 15.9605432,5.95591356 16.1967024,5.69899314 C16.4302664,5.44207273 16.4769792,4.99311079 16.1967024,4.74397584 L16.1967024,4.74397584 Z M76.5064484,8.82141525 C76.5722606,8.39206882 76.5597249,7.98465979 76.7979025,7.60545601 C77.2773916,6.85331628 77.9574513,7.04135121 78.6155735,7.37354626 C79.2862315,7.71200914 79.9192824,7.91257974 80.6463508,7.59918818 C81.7839622,7.10716344 82.3198617,5.38977771 81.232393,4.58122749 C80.8813945,4.31797858 80.5335299,4.75045893 80.5805386,5.08265398 C80.6463508,5.54333957 80.8751267,6.05416781 80.4802533,6.44904117 C79.9506216,6.9786729 79.3301063,6.53365689 78.8004746,6.29547931 C78.2301019,6.03849823 77.6221223,5.98208775 77.0360801,6.22026533 C76.0238254,6.63080827 75.2873552,8.00346329 76.0927715,8.93110229 C76.2055925,9.05959283 76.4782431,9.00004844 76.5064484,8.82141525 L76.5064484,8.82141525 Z M64.7650465,52.2428221 C63.7245991,53.2418174 63.3308043,54.7962706 64.3215091,55.9983811 C65.2541811,57.1300231 67.0656373,57.3663 68.2304409,56.4667897 C71.0491828,54.2905551 68.1102299,50.2821384 65.0717919,51.1111801 C64.5080435,51.2645528 64.6489806,52.0687233 65.2044386,52.0977398 C66.0915132,52.1474823 67.0449112,52.1806439 67.7537419,52.8065704 C68.5164603,53.473949 68.5330411,54.605591 67.9071146,55.3765998 C66.2490312,57.4118973 63.3722564,54.4149114 65.113244,52.5910196 C65.3370853,52.3630331 64.9971782,52.023126 64.7650465,52.2428221 L64.7650465,52.2428221 Z M3.75726804,45.6141129 C4.08196141,46.8211253 4.43841827,48.0140205 4.81252151,49.2069157 C4.9007534,49.4927871 5.17250764,49.5845482 5.41955695,49.415143 C6.3901078,48.7551684 7.35712937,48.1093109 8.27827036,47.3787508 C8.45473415,47.2375798 8.41591212,46.9552377 8.2429776,46.8352424 C7.16654848,46.0976237 5.71601612,45.0070775 4.35018637,44.9999628 C4.00431734,44.9964897 3.76079731,45.487059 4.1137249,45.6882277 C4.66429192,46.0058626 5.3242665,46.1187994 5.91365556,46.3623194 C6.59127652,46.6446615 7.2653682,46.9764134 7.86534509,47.4034558 C7.87946219,47.2058163 7.8935793,47.0081769 7.90416712,46.8105374 C6.87714786,47.4422778 5.91012629,48.1516622 4.93604616,48.8575174 C5.12662705,48.8963394 5.32073722,48.9351615 5.51131812,48.9739835 C5.09486357,47.7952054 4.6678212,46.6270151 4.20548607,45.4658834 C4.10666634,45.2223633 3.6902118,45.3564758 3.75726804,45.6141129 L3.75726804,45.6141129 Z" mask="url(#ic_esign_done-b)" opacity=".05"/>
    <g mask="url(#ic_esign_done-b)">
      <g transform="translate(20 8)">
        <path fill="#EDDEFF" fill-rule="nonzero" d="M29.44,35.0933333 C29.8533333,34.68 30.5955556,34.68 31.0137778,35.0933333 C31.2177778,35.2977778 31.3377778,35.5866667 31.3377778,35.88 C31.3377778,36.1693333 31.2182222,36.4582222 31.0137778,36.6626667 C30.8044444,36.8711111 30.5204444,36.9911111 30.2266667,36.9911111 C29.9328889,36.9911111 29.6444444,36.8715556 29.44,36.6626667 C29.236,36.4582222 29.1155556,36.1688889 29.1155556,35.88 C29.1155556,35.5862222 29.2355556,35.2977778 29.44,35.0933333 Z M8.95511111,35.0711111 C9.36888889,34.6573333 10.1155556,34.6573333 10.5244444,35.0711111 C10.7328889,35.28 10.8533333,35.5644444 10.8533333,35.8577778 C10.8533333,36.1511111 10.7333333,36.4355556 10.5244444,36.64 C10.32,36.8488889 10.036,36.9688889 9.74222222,36.9688889 C9.44844444,36.9688889 9.16444444,36.8493333 8.95511111,36.64 C8.75111111,36.4355556 8.63111111,36.1515556 8.63111111,35.8577778 C8.63111111,35.564 8.75066667,35.2755556 8.95511111,35.0711111 Z M27.6355556,32.2884444 C28.0488889,31.8751111 28.7915556,31.8751111 29.2088889,32.2884444 C29.4128889,32.4977778 29.5333333,32.7822222 29.5333333,33.0755556 C29.5333333,33.3688889 29.4133333,33.6533333 29.2093333,33.8622222 C29.0004444,34.0662222 28.7155556,34.1866667 28.4226667,34.1866667 C28.1288889,34.1866667 27.8444444,34.0666667 27.6355556,33.8622222 C27.4315556,33.6533333 27.3115556,33.3693333 27.3115556,33.0755556 C27.3115556,32.7817778 27.4311111,32.4977778 27.6355556,32.2884444 Z M10.7644444,32.2706667 C11.1822222,31.8577778 11.9195556,31.8617778 12.3382222,32.2706667 C12.5422222,32.48 12.6626667,32.7688889 12.6626667,33.0577778 C12.6626667,33.3515556 12.5426667,33.6355556 12.3382222,33.8444444 C12.1293333,34.0484444 11.8444444,34.1688889 11.5515556,34.1688889 C11.2577778,34.1688889 10.9733333,34.0488889 10.7644444,33.8444444 C10.5604444,33.6355556 10.4404444,33.3515556 10.4404444,33.0577778 C10.4404444,32.764 10.56,32.48 10.7644444,32.2706667 Z M33.8488889,31.1417778 C34.236,30.6622222 34.9333333,30.5862222 35.4133333,30.9728889 C35.8888889,31.36 35.9644444,32.0577778 35.5817778,32.5377778 C35.3595556,32.8088889 35.0395556,32.9511111 34.7151111,32.9511111 C34.4711111,32.9511111 34.2222222,32.8711111 34.0177778,32.7022222 C33.5377778,32.3195556 33.4666667,31.6173333 33.8488889,31.1417778 Z M4.53777778,30.9066667 C5.01777778,30.5244444 5.71511111,30.6 6.10222222,31.0795556 C6.48444444,31.5595556 6.40444444,32.2577778 5.92888889,32.6395556 C5.72444444,32.804 5.47511111,32.8844444 5.23555556,32.8844444 C4.90666667,32.8844444 4.58622222,32.7422222 4.364,32.4666667 C3.98222222,31.9866667 4.06222222,31.2884444 4.53777778,30.9066667 Z M25.8315556,29.4884444 C26.2448889,29.0751111 26.9911111,29.0751111 27.4048889,29.4884444 C27.6088889,29.6928889 27.7288889,29.9822222 27.7288889,30.2755556 C27.7288889,30.5688889 27.6088889,30.8533333 27.4053333,31.0577778 C27.196,31.2662222 26.912,31.3866667 26.6182222,31.3866667 C26.3244444,31.3866667 26.0404444,31.2666667 25.8315556,31.0577778 C25.6226667,30.8533333 25.5071111,30.564 25.5071111,30.2755556 C25.5071111,29.9817778 25.6222222,29.6928889 25.8315556,29.4884444 Z M12.5777778,29.4751111 C12.9866667,29.0622222 13.7328889,29.0622222 14.1471111,29.4751111 C14.3555556,29.6844444 14.4711111,29.9688889 14.4711111,30.2622222 C14.4711111,30.5515556 14.356,30.8355556 14.1471111,31.0444444 C13.9426667,31.2528889 13.6533333,31.3733333 13.36,31.3733333 C13.0666667,31.3733333 12.7822222,31.2533333 12.5777778,31.0444444 C12.3693333,30.84 12.2488889,30.5511111 12.2488889,30.2622222 C12.2488889,29.9684444 12.3688889,29.68 12.5777778,29.4751111 Z M31.2528889,29.0533333 C31.6355556,28.5733333 32.3377778,28.5022222 32.8133333,28.8844444 C33.2933333,29.2706667 33.3688889,29.9688889 32.9817778,30.4488889 C32.7595556,30.7204444 32.4395556,30.8622222 32.1151111,30.8622222 C31.8711111,30.8622222 31.6266667,30.7822222 31.4173333,30.6177778 C30.9422222,30.2306667 30.8666667,29.5284444 31.2528889,29.0533333 Z M7.14666667,28.8262222 C7.62222222,28.4444444 8.32444444,28.52 8.70666667,29 C9.08888889,29.48 9.00888889,30.1773333 8.53377778,30.564 C8.32444444,30.724 8.08444444,30.804 7.84,30.804 C7.51111111,30.804 7.19111111,30.6622222 6.96888889,30.3866667 C6.58622222,29.9066667 6.66666667,29.2084444 7.14666667,28.8262222 Z M28.6533333,26.9644444 C29.04,26.4844444 29.7422222,26.4133333 30.2177778,26.7955556 C30.6928889,27.1826667 30.7684444,27.88 30.3866667,28.36 C30.1644444,28.6315556 29.844,28.7737778 29.52,28.7737778 C29.276,28.7737778 29.0266667,28.6933333 28.8222222,28.5288889 C28.3471111,28.1417778 28.2711111,27.44 28.6533333,26.9644444 Z M9.74622222,26.7417778 C10.2262222,26.3551111 10.9244444,26.4351111 11.3062222,26.9151111 C11.6888889,27.3955556 11.6088889,28.0933333 11.1288889,28.48 C10.9244444,28.6395556 10.68,28.72 10.44,28.72 C10.1111111,28.72 9.78666667,28.5777778 9.56888889,28.3017778 C9.18622222,27.8217778 9.26622222,27.124 9.74622222,26.7417778 Z M36.6622222,26.2088889 C36.88,25.6311111 37.52,25.3377778 38.0933333,25.5555556 C38.6666667,25.7684444 38.96,26.4088889 38.7466667,26.9822222 C38.5777778,27.4311111 38.1555556,27.7066667 37.7066667,27.7066667 C37.5777778,27.7066667 37.4444444,27.6844444 37.3155556,27.6355556 C36.7422222,27.4222222 36.4488889,26.7822222 36.6622222,26.2088889 Z M1.88444444,25.4751111 C2.45777778,25.2622222 3.09777778,25.5555556 3.31111111,26.1333333 C3.52,26.7066667 3.22666667,27.3471111 2.64888889,27.56 C2.52444444,27.604 2.39555556,27.6266667 2.26666667,27.6266667 C1.81333333,27.6266667 1.39111111,27.3511111 1.22222222,26.9022222 C1.00844444,26.324 1.30622222,25.6844444 1.88444444,25.4751111 Z M33.5377778,25.0444444 C33.7511111,24.4711111 34.3911111,24.1777778 34.9688889,24.3911111 C35.5422222,24.6044444 35.8355556,25.2444444 35.6222222,25.8222222 C35.4533333,26.2666667 35.0311111,26.5422222 34.5777778,26.5422222 C34.4488889,26.5422222 34.32,26.52 34.1911111,26.4711111 C33.6177778,26.2577778 33.324,25.6177778 33.5377778,25.0444444 Z M5.01333333,24.324 C5.58622222,24.1111111 6.22666667,24.4044444 6.44,24.9822222 C6.64888889,25.5555556 6.35555556,26.1955556 5.77777778,26.4088889 C5.65333333,26.4528889 5.52444444,26.4751111 5.39555556,26.4751111 C4.94222222,26.4751111 4.51555556,26.1951111 4.35111111,25.7462222 C4.13733333,25.1728889 4.43511111,24.5333333 5.01333333,24.324 Z M30.4128889,23.8795556 C30.6266667,23.3062222 31.2662222,23.0133333 31.844,23.2306667 C32.4173333,23.4444444 32.7106667,24.084 32.4977778,24.6573333 C32.3288889,25.1066667 31.9066667,25.3817778 31.4528889,25.3817778 C31.324,25.3817778 31.1951111,25.3595556 31.0662222,25.3111111 C30.4888889,25.0977778 30.2,24.4533333 30.4128889,23.8795556 Z M8.13777778,23.1644444 C8.71511111,22.9511111 9.35111111,23.2488889 9.56444444,23.8222222 C9.77822222,24.4 9.48044444,25.04 8.90711111,25.2488889 C8.77822222,25.2977778 8.64933333,25.32 8.52488889,25.32 C8.06666667,25.32 7.64488889,25.04 7.48044444,24.5911111 C7.26666667,24.0133333 7.56444444,23.3733333 8.13777778,23.1644444 Z M38.9155556,19.5644444 C39.5284444,19.5862222 40.0088889,20.1017778 39.9866667,20.7155556 C39.9688889,21.3155556 39.4711111,21.7866667 38.8755556,21.7866667 L38.8755556,21.7866667 L38.84,21.7866667 C38.2226667,21.7644444 37.7466667,21.2488889 37.7688889,20.6355556 C37.7866667,20.0222222 38.3022222,19.5422222 38.9155556,19.5644444 Z M1.08444444,19.48 C1.69777778,19.4622222 2.21333333,19.9422222 2.23111111,20.5555556 C2.24888889,21.1688889 1.76844444,21.68 1.15555556,21.7022222 L1.15555556,21.7022222 L1.12,21.7022222 C0.52,21.7022222 0.0266666667,21.2262222 0.00888888889,20.6217778 C-0.00888888889,20.0084444 0.471111111,19.4977778 1.08444444,19.48 Z M35.5822222,19.4488889 C36.2,19.4666667 36.6755556,19.9822222 36.6577778,20.5955556 C36.6355556,21.1951111 36.1422222,21.6666667 35.5466667,21.6666667 L35.5466667,21.6666667 L35.5066667,21.6666667 C34.8933333,21.6444444 34.4133333,21.1288889 34.4355556,20.52 C34.4582222,19.9066667 34.9733333,19.4266667 35.5822222,19.4488889 Z M4.41777778,19.3733333 C5.03111111,19.3555556 5.54222222,19.8355556 5.56444444,20.4488889 C5.58222222,21.0622222 5.09777778,21.5733333 4.48444444,21.5955556 L4.48444444,21.5955556 L4.45333333,21.5955556 C3.85333333,21.5955556 3.36,21.12 3.34222222,20.52 C3.32444444,19.9066667 3.80444444,19.3911111 4.41777778,19.3733333 Z M32.2528889,19.3288889 C32.8666667,19.3511111 33.3466667,19.8666667 33.324,20.48 C33.3017778,21.0795556 32.8084444,21.5511111 32.2128889,21.5511111 L32.2128889,21.5511111 L32.1728889,21.5511111 C31.564,21.5284444 31.084,21.0133333 31.1017778,20.3995556 C31.1244444,19.7862222 31.6395556,19.3062222 32.2528889,19.3288889 Z M7.75111111,19.2622222 C8.36444444,19.2444444 8.87555556,19.7244444 8.89333333,20.3377778 C8.91111111,20.9511111 8.43111111,21.4622222 7.81777778,21.4844444 L7.81777778,21.4844444 L7.78222222,21.4844444 C7.18666667,21.4844444 6.68888889,21.0088889 6.67555556,20.4044444 C6.65333333,19.7911111 7.13777778,19.28 7.75111111,19.2622222 Z M31.4222222,15.4977778 C32.0088889,15.3288889 32.6266667,15.6666667 32.8,16.2528889 C32.9733333,16.844 32.6355556,17.4577778 32.0444444,17.6311111 C31.9422222,17.6622222 31.8355556,17.6755556 31.7328889,17.6755556 C31.2528889,17.6755556 30.8084444,17.36 30.6666667,16.8755556 C30.4928889,16.2884444 30.8311111,15.6711111 31.4222222,15.4977778 Z M7.22222222,16.1822222 C7.39555556,15.5955556 8.01777778,15.2577778 8.604,15.4351111 C9.19111111,15.6084444 9.52444444,16.2306667 9.35111111,16.8173333 C9.20888889,17.2973333 8.76444444,17.6128889 8.28444444,17.6128889 C8.18222222,17.6128889 8.07555556,17.5951111 7.96888889,17.564 C7.38177778,17.3866667 7.04444444,16.7684444 7.22222222,16.1822222 Z M34.6213333,14.5595556 C35.2084444,14.3862222 35.8257778,14.724 35.9995556,15.3151111 C36.1684444,15.9022222 35.8306667,16.5195556 35.244,16.6928889 C35.1373333,16.7244444 35.0351111,16.7377778 34.9328889,16.7377778 C34.4488889,16.7377778 34.0084444,16.4222222 33.8666667,15.9373333 C33.6933333,15.3466667 34.0306667,14.7288889 34.6213333,14.5595556 Z M4.02622222,15.24 C4.2,14.6488889 4.81777778,14.3155556 5.40444444,14.4888889 C5.99555556,14.6666667 6.32888889,15.2844444 6.15511111,15.8711111 C6.00844444,16.3555556 5.56888889,16.6666667 5.08888889,16.6666667 C4.98622222,16.6666667 4.87955556,16.6528889 4.77333333,16.6217778 C4.18222222,16.4444444 3.84888889,15.8262222 4.02622222,15.24 Z M37.8177778,13.6173333 C38.4088889,13.4484444 39.0262222,13.7862222 39.2,14.3728889 C39.3688889,14.964 39.0306667,15.5817778 38.4444444,15.7506667 C38.3377778,15.7822222 38.2355556,15.7955556 38.1288889,15.7955556 C37.6488889,15.7955556 37.2044444,15.4844444 37.0666667,14.9995556 C36.8933333,14.4084444 37.2311111,13.7911111 37.8177778,13.6173333 Z M0.826666667,14.2884444 C1.00444444,13.6973333 1.62222222,13.364 2.20888889,13.5377778 C2.8,13.7151111 3.13333333,14.3333333 2.96,14.9195556 C2.81333333,15.4044444 2.37333333,15.7151111 1.89333333,15.7151111 C1.78666667,15.7151111 1.68,15.7017778 1.57777778,15.6706667 C0.986666667,15.4928889 0.653333333,14.8751111 0.826666667,14.2884444 Z M29.4177778,12.1288889 C29.9195556,11.7777778 30.6133333,11.9066667 30.9644444,12.4088889 C31.3111111,12.9111111 31.1866667,13.604 30.6848889,13.9551111 C30.4888889,14.0888889 30.2666667,14.1551111 30.0488889,14.1551111 C29.6977778,14.1551111 29.3511111,13.9862222 29.1377778,13.6751111 C28.7866667,13.1733333 28.9111111,12.48 29.4177778,12.1288889 Z M9.08044444,12.3466667 C9.43155556,11.844 10.1248889,11.7244444 10.6271111,12.0755556 C11.1293333,12.4311111 11.2533333,13.1195556 10.8977778,13.6266667 C10.6844444,13.9333333 10.3377778,14.0977778 9.98711111,14.0973342 C9.76888889,14.0973342 9.54666667,14.0306667 9.35155556,13.8973333 C8.84933333,13.5417778 8.72933333,12.8488889 9.08044444,12.3466667 Z M32.1555556,10.2266667 C32.6573333,9.88 33.3511111,10.0044444 33.7022222,10.5066667 C34.0484444,11.0133333 33.9244444,11.7022222 33.4226667,12.0533333 C33.2311111,12.1866667 33.0088889,12.2528889 32.7915556,12.2528889 C32.4355556,12.2528889 32.0888889,12.084 31.8755556,11.7733333 C31.5244444,11.2711111 31.6488889,10.5777778 32.1555556,10.2266667 Z M6.34711111,10.4444444 C6.69777778,9.94222222 7.39111111,9.81777778 7.89333333,10.1733333 C8.39555556,10.5244444 8.51555556,11.2177778 8.16444444,11.72 C7.94666667,12.0266667 7.604,12.1911111 7.25333333,12.1906676 C7.03111111,12.1906676 6.80888889,12.1244444 6.61777778,11.9906667 C6.11555556,11.6395556 5.99111111,10.9466667 6.34711111,10.4444444 Z M26.4533333,9.56 C26.8222222,9.07155556 27.52,8.97333333 28.0088889,9.34222222 C28.5022222,9.71111111 28.6,10.4044444 28.2311111,10.8977778 C28.0137778,11.1866667 27.6804444,11.3422222 27.3422222,11.3422222 C27.1111111,11.3422222 26.8755556,11.2666667 26.6755556,11.1155556 C26.1826667,10.7466667 26.0844444,10.0484444 26.4533333,9.56 Z M12.0488889,9.29777778 C12.5422222,8.92888889 13.2404444,9.03111111 13.6044444,9.52444444 C13.9688889,10.0177778 13.8671111,10.7111111 13.3777778,11.08 C13.1777778,11.2266667 12.9426667,11.2977778 12.7111111,11.2977778 C12.3733333,11.2977778 12.04,11.1417778 11.8222222,10.8488889 C11.4533333,10.36 11.556,9.66222222 12.0488889,9.29777778 Z M34.8933333,8.32933333 C35.3951111,7.97822222 36.0888889,8.10222222 36.44,8.60933333 C36.7911111,9.11111111 36.6666667,9.80444444 36.1595556,10.1555556 C35.9684444,10.2884444 35.7462222,10.3511111 35.5284444,10.3511111 C35.1773333,10.3511111 34.8311111,10.1866667 34.6133333,9.87555556 C34.2622222,9.36933333 34.3915556,8.68044444 34.8933333,8.32933333 Z M3.61377778,8.53333333 C3.96488889,8.03066667 4.65777778,7.91111111 5.16,8.26222222 C5.66266667,8.61333333 5.78222222,9.30622222 5.43111111,9.80844444 C5.21288889,10.12 4.87111111,10.2844444 4.52044444,10.2840009 C4.29822222,10.2840009 4.076,10.2177778 3.88488889,10.084 C3.38222222,9.72844444 3.25822222,9.03555556 3.61377778,8.53333333 Z M22.8355556,8.05777778 C23.0266667,7.47511111 23.6573333,7.15955556 24.24,7.35555556 C24.8217778,7.55155556 25.1373333,8.18222222 24.9422222,8.76444444 C24.7866667,9.22666667 24.3511111,9.52 23.8888889,9.52 C23.7684444,9.52 23.6533333,9.50222222 23.5333333,9.46222222 C22.9511111,9.26666667 22.64,8.64 22.8355556,8.05777778 Z M15.8311111,7.33333333 C16.4128889,7.14177778 17.0395556,7.45777778 17.2306667,8.04 C17.4222222,8.62177778 17.1066667,9.24888889 16.524,9.44444444 C16.4088889,9.48 16.2933333,9.49777778 16.1773333,9.49777778 C15.7111111,9.49777778 15.2755556,9.20444444 15.1195556,8.73288889 C14.9288889,8.15111111 15.2484444,7.52444444 15.8311111,7.33333333 Z M20.0355556,6.66666667 C20.6533333,6.66666667 21.1466667,7.16888889 21.1466667,7.78222222 C21.1417778,8.39555556 20.6444444,8.88888889 20.0355556,8.88888889 C20.0306667,8.88888889 20.0306667,8.88888889 20.0306667,8.88888889 L19.9096554,8.88230848 C19.353197,8.8214321 18.9198815,8.34577778 18.9244444,7.77333333 C18.9244444,7.15955556 19.4222222,6.66666667 20.0355556,6.66666667 Z M28.4533333,6.89333333 C28.8222222,6.4 29.52,6.30222222 30.0088889,6.67111111 C30.4977778,7.04 30.5955556,7.73777778 30.2266667,8.22666667 C30.0088889,8.51555556 29.6755556,8.67111111 29.3377778,8.67111111 C29.1071111,8.67111111 28.8711111,8.6 28.6755556,8.44888889 C28.1826667,8.08 28.0844444,7.38222222 28.4533333,6.89333333 Z M10.0533333,6.62666667 C10.5462222,6.25777778 11.2444444,6.36 11.6088889,6.85333333 C11.9728889,7.34222222 11.8755556,8.04 11.3817778,8.40888889 C11.1822222,8.55555556 10.9511111,8.62666667 10.72,8.62666667 C10.3773333,8.62666667 10.044,8.47066667 9.82622222,8.18222222 C9.46222222,7.68888889 9.564,6.99066667 10.0533333,6.62666667 Z M23.8888889,4.89333333 C24.084,4.31111111 24.7111111,3.99555556 25.2933333,4.19111111 C25.8751111,4.38711111 26.1906667,5.01777778 25.9955556,5.6 C25.84,6.06222222 25.4044444,6.35555556 24.9422222,6.35555556 C24.8262222,6.35555556 24.7066667,6.33777778 24.5911111,6.29777778 C24.0088889,6.10222222 23.6933333,5.47555556 23.8888889,4.89333333 Z M14.7777778,4.16888889 C15.364,3.97333333 15.9906667,4.28888889 16.1822222,4.87555556 C16.3733333,5.45777778 16.0577778,6.08444444 15.4751111,6.28 L15.4751111,6.28 C15.36,6.31555556 15.2444444,6.33333333 15.1288889,6.33333333 C14.6622222,6.33333333 14.2266667,6.03555556 14.0711111,5.56888889 C13.88,4.98666667 14.1955556,4.36 14.7822222,4.16888889 L14.7822222,4.16888889 Z M30.4533333,4.22666667 C30.8222222,3.73333333 31.52,3.63555556 32.0088889,4.00444444 C32.4982222,4.37333333 32.5955556,5.07111111 32.2311111,5.56 C32.0088889,5.84888889 31.6755556,6.00444444 31.3377778,6.00444444 C31.1071111,6.00444444 30.8711111,5.93333333 30.6755556,5.78222222 L30.6755556,5.78222222 C30.1826667,5.41333333 30.0844444,4.71555556 30.4533333,4.22666667 Z M8.06222222,3.95066667 C8.55555556,3.58622222 9.24888889,3.68444444 9.61777778,4.17733333 C9.98222222,4.67066667 9.88444444,5.36888889 9.39111111,5.73288889 C9.19111111,5.88444444 8.96044444,5.95511111 8.72888889,5.95511111 C8.38666667,5.95511111 8.05333333,5.8 7.83555556,5.50622222 C7.47111111,5.01333333 7.56933333,4.31955556 8.06222222,3.95066667 Z M20.04,3.33333333 C20.6533333,3.33333333 21.1511111,3.83555556 21.1511111,4.44888889 C21.1466667,5.05777778 20.6488889,5.55555556 20.0355556,5.55555556 C19.4222222,5.55555556 18.9244444,5.05333333 18.9288889,4.44444444 C18.9288889,3.82622222 19.4266667,3.33333333 20.04,3.33333333 Z M24.9466667,1.73288889 C25.1377778,1.15111111 25.7684444,0.835555556 26.3511111,1.03066667 C26.9333333,1.22222222 27.2488889,1.85333333 27.0533333,2.43511111 C26.8977778,2.90222222 26.4622222,3.19511111 26,3.19511111 C25.8795556,3.19511111 25.7644444,3.17733333 25.6444444,3.13733333 L25.6444444,3.13733333 C25.0622222,2.94222222 24.7511111,2.31111111 24.9466667,1.73288889 Z M13.7333333,1 C14.3155556,0.808888889 14.9466667,1.12488889 15.1377778,1.71111111 C15.3293333,2.29333333 15.0137778,2.91955556 14.4311111,3.11111111 L14.4311111,3.11111111 C14.3111111,3.15111111 14.1951111,3.16888889 14.08,3.16888889 C13.6133333,3.16888889 13.1777778,2.87111111 13.0266667,2.40444444 C12.8355556,1.82222222 13.1511111,1.19511111 13.7333333,1 Z M20.0444444,1.43884904e-13 C20.6573333,1.43884904e-13 21.1555556,0.497777778 21.1555556,1.11555556 C21.1511111,1.72444444 20.6577778,2.22222222 20.0444444,2.22222222 L20.0444444,2.22222222 C19.4266667,2.22222222 18.9288889,1.72444444 18.9333333,1.10666667 C18.9333333,0.492888889 19.4311111,1.43884904e-13 20.0444444,1.43884904e-13 Z"/>
        <path fill="#BA8EE0" fill-rule="nonzero" d="M30,20 C30,14.3053333 25.2128889,9.704 19.4546667,10.0146667 C14.2084444,10.2937778 9.96711111,14.8026667 10,20.0648889 C10.0217778,23.4404444 11.7302222,26.5533333 14.5697778,28.3924444 C15.1871111,28.792 15.5555556,29.4808889 15.5555556,30.2351111 L15.5555556,32 L24.4444444,32 L24.4444444,30.2355556 C24.4444444,29.4795556 24.8062222,28.7942222 25.4128889,28.4035556 C28.2853333,26.5515556 30,23.4102222 30,20 Z"/>
        <path fill="#FFF" d="M20,13 C16.15,13 13,16.15 13,20 C13,23.85 16.15,27 20,27 C23.85,27 27,23.85 27,20 C27,16.15 23.85,13 20,13 Z"/>
        <path fill="#4F2DA7" d="M20,13 C23.85,13 27,16.15 27,20 C27,23.85 23.85,27 20,27 C16.15,27 13,23.85 13,20 C13,16.15 16.15,13 20,13 Z M24.1488692,17.5992464 C23.8473615,17.3002512 23.3585209,17.3002512 23.0570131,17.5992464 L23.0570131,17.5992464 L18.9705882,21.6516177 L16.9429869,19.640913 C16.6414791,19.3419179 16.1526385,19.3419179 15.8511308,19.640913 C15.5496231,19.9399082 15.5496231,20.4246751 15.8511308,20.7236703 L15.8511308,20.7236703 L18.4246602,23.2757536 C18.7261679,23.5747488 19.2150085,23.5747488 19.5165163,23.2757536 L19.5165163,23.2757536 L24.1488692,18.6820036 C24.4503769,18.3830085 24.4503769,17.8982415 24.1488692,17.5992464 Z"/>
        <path fill="#BA8EE0" d="M16,33 L24,33 L24,35 C24,37.209139 22.209139,39 20,39 C17.790861,39 16,37.209139 16,35 L16,33 L16,33 Z"/>
      </g>
    </g>
  </g>
</svg>
