<svg width="80" height="60" viewBox="0 0 80 60" fill="none" xmlns="http://www.w3.org/2000/svg">
<mask id="mask0" mask-type="alpha" maskUnits="userSpaceOnUse" x="0" y="0" width="80" height="60">
<rect width="80" height="60" rx="3" fill="white"/>
</mask>
<g mask="url(#mask0)">
<rect y="-0.00012207" width="80" height="60" rx="3" fill="white"/>
<path opacity="0.05" d="M49.7495 -12.0001C41.4995 -12.0001 27.2495 -12.0001 24.2495 -3.75012C21.2495 4.49988 46.193 4.01601 51.9995 9.82246C57.8059 15.6289 67.1681 14.9999 75.9995 14.9999C84.8309 14.9999 83.1574 24.7335 90.2495 23.2499C97.3416 21.7663 90.9995 14.332 93.2495 9.82246C93.2495 7.01993 93.2495 -0.254265 93.2495 -12.0001C73.4995 -12.0001 58.9995 -12.0001 49.7495 -12.0001Z" fill="#FF5B35"/>
<path opacity="0.05" d="M10.2856 59.6749C39.7333 49.2046 52.8212 72.7628 52.8212 59.6749C52.8212 46.587 37.1158 40.0431 29.263 32.1904C21.4103 24.3376 24.8469 11.2498 12.9032 11.2498C0.959496 11.2498 6.97679 18.5863 -6.07424 24.3376C-19.1253 30.0889 -19.1621 70.1452 10.2856 59.6749Z" fill="#FF5B35"/>
<path opacity="0.05" d="M59.0354 45.4249C29.5876 34.9546 16.4998 58.5128 16.4998 45.4249C16.4998 32.337 32.2052 25.7931 40.0579 17.9404C47.9107 10.0876 44.4741 -3.00024 56.4178 -3.00024C68.3615 -3.00024 62.3442 4.33633 75.3952 10.0876C88.4463 15.8389 101.571 0.926121 101.571 17.9404C101.571 34.9546 88.4831 55.8952 59.0354 45.4249Z" fill="#FF5B35"/>
<path opacity="0.05" fill-rule="evenodd" clip-rule="evenodd" d="M76.5434 8.52837L76.5434 8.52852L76.5434 8.52865C76.5326 8.62495 76.5216 8.72248 76.5064 8.82117C76.4782 8.9998 76.2056 9.05935 76.0928 8.93086C75.2874 8.00322 76.0238 6.63056 77.0361 6.22002C77.6221 5.98184 78.2301 6.03825 78.8005 6.29524C78.879 6.33055 78.9595 6.37042 79.0415 6.41098C79.5121 6.64396 80.0292 6.89989 80.4803 6.4488C80.7951 6.13399 80.7135 5.74549 80.6341 5.36745C80.6139 5.2713 80.5939 5.17582 80.5805 5.08241C80.5335 4.75021 80.8814 4.31773 81.2324 4.58098C82.3199 5.38953 81.784 7.10692 80.6463 7.59894C79.9193 7.91234 79.2862 7.71177 78.6156 7.3733C77.9575 7.04111 77.2774 6.85307 76.7979 7.60521C76.6145 7.89717 76.5798 8.20584 76.5434 8.52837ZM16.1773 4.72625L16.1772 4.72623C16.1639 4.71411 16.1511 4.70237 16.137 4.69183C15.8749 4.45826 15.4441 4.41415 15.1898 4.69183C14.9329 4.97211 14.9406 5.35878 15.1898 5.63906C15.1956 5.64577 15.2015 5.6522 15.2073 5.65854C15.2194 5.67183 15.2311 5.68469 15.2417 5.69875C15.4752 5.96345 15.9605 5.95567 16.1967 5.69875C16.4303 5.44183 16.477 4.99287 16.1967 4.74373C16.19 4.73788 16.1836 4.73202 16.1773 4.72625ZM12.2771 25.617C13.3359 25.111 14.4206 24.527 15.3757 23.8419C15.726 23.5902 15.3809 23.0997 15.0123 23.2943C13.9924 23.829 12.9959 24.5193 12.0876 25.2225C11.9008 25.3627 12.0357 25.7312 12.2771 25.617ZM64.765 52.2426C63.7246 53.2416 63.3308 54.796 64.3215 55.9981C65.2542 57.1298 67.0656 57.3661 68.2304 56.4665C71.0492 54.2903 68.1102 50.2819 65.0718 51.1109C64.508 51.2643 64.649 52.0685 65.2044 52.0975L65.2907 52.1023C66.1529 52.15 67.0678 52.2006 67.7537 52.8063C68.5165 53.4737 68.533 54.6053 67.9071 55.3764C66.249 57.4117 63.3723 54.4147 65.1132 52.5908C65.3371 52.3628 64.9972 52.0229 64.765 52.2426ZM4.81252 49.2066C4.43842 48.0138 4.08196 46.8209 3.75727 45.6138C3.72089 45.4741 3.82683 45.3707 3.94715 45.3442C3.98043 45.1648 4.14778 44.9977 4.35019 44.9997C5.60144 45.0062 6.92379 45.922 7.96446 46.6427C8.05975 46.7087 8.15268 46.7731 8.24298 46.835C8.41591 46.955 8.45473 47.2373 8.27827 47.3785C7.44174 48.0419 6.56738 48.6355 5.6869 49.2333C5.59784 49.2937 5.50871 49.3543 5.41956 49.4149C5.17251 49.5843 4.90075 49.4925 4.81252 49.2066ZM4.33955 45.805C4.69614 46.7147 5.03259 47.6289 5.36073 48.5494C6.03975 48.0575 6.72008 47.5696 7.42448 47.1133C6.9437 46.8207 6.4297 46.5771 5.91366 46.3621C5.68387 46.2671 5.44336 46.192 5.20279 46.1169C4.90864 46.0251 4.61439 45.9332 4.33955 45.805Z" fill="#FF5B35"/>
<rect x="30" y="14.9998" width="20" height="30" rx="3" fill="#FFEFEC" stroke="#FFB1A4"/>
<path fill-rule="evenodd" clip-rule="evenodd" d="M30 17.9998C30 16.3429 31.3431 14.9998 33 14.9998H47C48.6569 14.9998 50 16.3429 50 17.9998V19.9998H30V17.9998Z" fill="#FFEFEC" stroke="#FFB1A4"/>
<path fill-rule="evenodd" clip-rule="evenodd" d="M37.5 16.9998C37.2239 16.9998 37 17.2236 37 17.4998C37 17.7759 37.2239 17.9998 37.5 17.9998H40.5C40.7761 17.9998 41 17.7759 41 17.4998C41 17.2236 40.7761 16.9998 40.5 16.9998H37.5ZM42.5 16.9998C42.2239 16.9998 42 17.2236 42 17.4998C42 17.7759 42.2239 17.9998 42.5 17.9998C42.7761 17.9998 43 17.7759 43 17.4998C43 17.2236 42.7761 16.9998 42.5 16.9998Z" fill="#FFB1A4"/>
<path fill-rule="evenodd" clip-rule="evenodd" d="M30 41.9998C30 43.6566 31.3431 44.9998 33 44.9998H47C48.6569 44.9998 50 43.6566 50 41.9998V39.9998H30V41.9998Z" fill="#FFEFEC" stroke="#FFB1A4"/>
<path d="M37.5 42.4998C37.5 41.9475 37.9477 41.4998 38.5 41.4998H41.5C42.0523 41.4998 42.5 41.9475 42.5 42.4998C42.5 43.052 42.0523 43.4998 41.5 43.4998H38.5C37.9477 43.4998 37.5 43.052 37.5 42.4998Z" stroke="#FFB1A4"/>
<path fill-rule="evenodd" clip-rule="evenodd" d="M40.2694 24.131L41.0359 25.0105L42.1822 24.5217C42.3679 24.4431 42.5818 24.5444 42.6411 24.7371L42.9908 25.8706L44.2342 25.8927C44.4352 25.8959 44.5925 26.0753 44.5676 26.276L44.4293 27.4557L45.5564 27.9844C45.727 28.0648 45.8009 28.269 45.721 28.4406C45.5673 28.7606 45.2891 29.1731 45.1009 29.4907L45.9173 30.4357C46.0491 30.5886 46.0197 30.825 45.8556 30.9411L44.8912 31.6262L45.2545 32.8226C45.3133 33.0177 45.1912 33.2194 44.9933 33.2587L43.8367 33.4902L43.685 34.731C43.6591 34.9435 43.4472 35.0809 43.245 35.0186L42.1174 34.7616L41.4767 35.8326C41.3727 36.0069 41.1407 36.0529 40.9792 35.9317L40.032 35.221L39.013 35.9378C38.8461 36.0549 38.6189 36.0002 38.5194 35.8232L37.9431 34.7884L36.7204 35.0271C36.5125 35.0669 36.3216 34.9106 36.3144 34.6998L36.2086 33.5387L34.9969 33.2572C34.7986 33.2114 34.6854 33.0043 34.7494 32.8118L35.1293 31.6878L34.136 30.9347C33.9648 30.8049 33.954 30.5516 34.1107 30.407L34.8938 29.556L34.2908 28.462C34.1919 28.2833 34.2697 28.0597 34.4555 27.9794L35.539 27.5117L35.4311 26.2653C35.4126 26.0503 35.5953 25.8724 35.8065 25.893L36.957 25.9087L37.3625 24.7261C37.4312 24.5253 37.6612 24.4357 37.8467 24.5337L38.9018 25.0232L39.7503 24.1093C39.8942 23.9538 40.1396 23.9663 40.2694 24.131Z" fill="white"/>
<path fill-rule="evenodd" clip-rule="evenodd" d="M40.2694 24.131L41.0359 25.0105L42.1822 24.5217C42.3679 24.4431 42.5818 24.5444 42.6411 24.7371L42.9908 25.8706L44.2342 25.8927C44.4352 25.8959 44.5925 26.0753 44.5676 26.276L44.4293 27.4557L45.5564 27.9844C45.727 28.0648 45.8009 28.269 45.721 28.4406C45.5673 28.7606 45.2891 29.1731 45.1009 29.4907L45.9173 30.4357C46.0491 30.5886 46.0197 30.825 45.8556 30.9411L44.8912 31.6262L45.2545 32.8226C45.3133 33.0177 45.1912 33.2194 44.9933 33.2587L43.8367 33.4902L43.685 34.731C43.6591 34.9435 43.4472 35.0809 43.245 35.0186L42.1174 34.7616L41.4767 35.8326C41.3727 36.0069 41.1407 36.0529 40.9792 35.9317L40.032 35.221L39.013 35.9378C38.8461 36.0549 38.6189 36.0002 38.5194 35.8232L37.9431 34.7884L36.7204 35.0271C36.5125 35.0669 36.3216 34.9106 36.3144 34.6998L36.2086 33.5387L34.9969 33.2572C34.7986 33.2114 34.6854 33.0043 34.7494 32.8118L35.1293 31.6878L34.136 30.9347C33.9648 30.8049 33.954 30.5516 34.1107 30.407L34.8938 29.556L34.2908 28.462C34.1919 28.2833 34.2697 28.0597 34.4555 27.9794L35.539 27.5117L35.4311 26.2653C35.4126 26.0503 35.5953 25.8724 35.8065 25.893L36.957 25.9087L37.3625 24.7261C37.4312 24.5253 37.6612 24.4357 37.8467 24.5337L38.9018 25.0232L39.7503 24.1093C39.8942 23.9538 40.1396 23.9663 40.2694 24.131ZM37.1993 30.1305C36.7456 29.6745 37.4355 28.9808 37.8894 29.4369L39.4176 30.9732L42.0939 27.9913C42.5219 27.5132 43.2464 28.1682 42.8182 28.6467L39.8141 31.9937C39.6319 32.2189 39.2952 32.2373 39.0904 32.0312L37.1993 30.1305Z" fill="#FF5B35"/>
<path fill-rule="evenodd" clip-rule="evenodd" d="M59.9927 20.0033L55.3876 22.2315C55.143 22.3457 55.0105 22.6066 55.0664 22.8637C55.1224 23.1209 55.3524 23.3079 55.6237 23.317H55.8599L60.465 21.0888C60.6548 20.997 60.7796 20.8141 60.7923 20.6091C60.805 20.4041 60.7037 20.2081 60.5266 20.0949C60.3495 19.9817 60.1235 19.9686 59.9336 20.0604L59.9927 20.0033ZM62 30.0016C62 29.686 61.7357 29.4302 61.4096 29.4302H56.8045C56.4784 29.4302 56.2141 29.686 56.2141 30.0016C56.2141 30.3171 56.4784 30.5729 56.8045 30.5729H61.4096C61.7357 30.5729 62 30.3171 62 30.0016ZM59.9927 39.9998L55.3876 37.7716L55.3285 37.7145C55.0351 37.5725 54.9161 37.2271 55.0628 36.9432C55.2096 36.6592 55.5664 36.5441 55.8599 36.6861L60.465 38.9142C60.7095 39.0284 60.842 39.2893 60.7861 39.5465C60.7301 39.8036 60.5002 39.9907 60.2288 39.9998H59.9927Z" fill="#FFBDB1"/>
<path fill-rule="evenodd" clip-rule="evenodd" d="M20.0073 20.0033L24.6124 22.2315C24.857 22.3457 24.9895 22.6066 24.9336 22.8637C24.8776 23.1209 24.6476 23.3079 24.3763 23.317H24.1401L19.535 21.0888C19.3452 20.997 19.2204 20.8141 19.2077 20.6091C19.195 20.4041 19.2963 20.2081 19.4734 20.0949C19.6505 19.9817 19.8765 19.9686 20.0664 20.0604L20.0073 20.0033ZM18 30.0016C18 29.686 18.2643 29.4302 18.5904 29.4302H23.1955C23.5216 29.4302 23.7859 29.686 23.7859 30.0016C23.7859 30.3171 23.5216 30.5729 23.1955 30.5729H18.5904C18.2643 30.5729 18 30.3171 18 30.0016ZM20.0073 39.9998L24.6124 37.7716L24.6715 37.7145C24.9649 37.5725 25.0839 37.2271 24.9372 36.9432C24.7904 36.6592 24.4336 36.5441 24.1401 36.6861L19.535 38.9142C19.2905 39.0284 19.158 39.2893 19.2139 39.5465C19.2699 39.8036 19.4998 39.9907 19.7712 39.9998H20.0073Z" fill="#FFBDB1"/>
</g>
</svg>
