<svg xmlns="http://www.w3.org/2000/svg" xmlns:xlink="http://www.w3.org/1999/xlink" width="80" height="60"><style><![CDATA[.B{fill:#fff}.C{fill-rule:nonzero}.D{fill:#3791fc}.E{opacity:.05}]]></style><defs><rect id="A" width="80" height="60" rx="3"/><rect id="B" width="80" height="60" rx="3"/><rect id="C" width="80" height="60" rx="3"/><rect id="D" width="80" height="60" rx="3"/><rect id="E" width="80" height="60" rx="3"/></defs><g fill="none" fill-rule="evenodd"><rect width="80" height="60" rx="3" class="B C"/><mask id="F" class="B"><use xlink:href="#A"/></mask><path d="M67.975 23.404c8.25 0 22.5 0 25.5-8.25S71.53 7.388 65.725 1.58s-15.17-5.177-24-5.177-7.158-9.734-14.25-8.25-.75 8.918-3 13.427v21.823h43.5z" mask="url(#F)" transform="rotate(180 58.862 5.702)" class="C D E"/><mask id="G" class="B"><use xlink:href="#B"/></mask><path d="M10.286 59.675c29.448-10.47 42.536 13.088 42.536 0S37.116 40.043 29.263 32.19s-4.416-20.94-16.36-20.94-5.926 7.337-18.977 13.088-13.088 45.808 16.36 35.337z" mask="url(#G)" class="C D E"/><mask id="H" class="B"><use xlink:href="#C"/></mask><path d="M59.035 45.425c29.448-10.47 42.536 13.088 42.536 0S85.866 25.793 78.013 17.94 73.597-3 61.653-3s-5.926 7.337-18.977 13.088S16.5.926 16.5 17.94s13.088 37.955 42.536 27.485z" mask="url(#H)" transform="matrix(-1 0 0 1 118.07 0)" class="C D E"/><mask id="I" class="B"><use xlink:href="#D"/></mask><g mask="url(#I)" class="C D"><path d="M103.45-6.644c-1.295 4.496-5.44 7.797-10.346 7.797A10.79 10.79 0 0 1 82.329-9.62c0-4.397 2.653-8.182 6.44-9.855v-4.567c-6.2 1.867-10.73 7.623-10.73 14.422 0 8.306 6.758 15.065 15.066 15.065 6.054 0 11.272-3.598 13.665-8.76l-1.7-3.342-1.617.014z"/></g><mask id="J" class="B"><use xlink:href="#E"/></mask><path d="M12.277 25.617c1.06-.506 2.144-1.1 3.1-1.775.35-.252.005-.742-.363-.548-1.02.535-2.016 1.225-2.925 1.928-.187.14-.052.51.19.394zm3.92-20.873l-.06-.052c-.262-.234-.693-.278-.947 0s-.25.667 0 .947l.052.06c.234.265.72.257.955 0s.28-.706 0-.955zm60.3 4.077c.066-.43.053-.837.29-1.216.48-.752 1.16-.564 1.818-.232.67.338 1.304.54 2.03.226 1.138-.492 1.674-2.21.586-3.018-.35-.263-.7.17-.652.5.066.46.295.972-.1 1.366-.53.53-1.15.085-1.68-.154-.57-.257-1.178-.313-1.764-.075-1.012.41-1.75 1.783-.943 2.71.113.128.385.07.414-.1zm-11.74 43.42c-1.04 1-1.434 2.553-.444 3.756.933 1.132 2.744 1.368 3.91.468 2.82-2.176-.12-6.185-3.16-5.356-.564.153-.423.958.133.987.887.05 1.84.083 2.55.71.763.667.78 1.8.153 2.57-1.658 2.035-4.535-.962-2.794-2.786.224-.228-.116-.568-.348-.348zm-61.008-6.63l1.055 3.593c.088.286.36.378.607.208l2.86-2.036c.176-.14.138-.424-.035-.544C7.167 46.098 5.716 45.007 4.35 45c-.346-.003-.59.487-.236.688.55.318 1.21.43 1.8.674.678.282 1.352.614 1.952 1.04l.04-.593c-1.027.632-1.994 1.34-2.968 2.047l.575.116-1.306-3.508c-.1-.244-.515-.11-.448.148z" mask="url(#J)" class="C D E"/><g mask="url(#J)" class="C"><path fill="#a4c5ed" d="M47 10v19.792l-.19-.092-7.51 3.713v4.85c0 2.574 1.138 5.043 3.16 6.858L41.035 46l-2.284-1.985L36 46l-2.75-1.985L30.5 46l-2.75-1.985L25 46V10l2.75 1.985L30.5 10l2.75 1.985L36 10l2.75 1.985L41.5 10l2.75 1.985L47 10z"/><path d="M46.8 29.103l7.63 4.065v5.337c-.001 4.374-2.625 8.322-6.658 10.016l-1.192.514-1.055-.46A10.89 10.89 0 0 1 39 38.614v-5.446L46.606 29l.194.103z" class="D"/><g class="B"><path d="M44.57 41.922a.51.51 0 0 1-.39-.18l-2.057-2.4c-.183-.216-.156-.54.06-.723s.538-.16.723.055l1.73 2.027 4.4-3.58c.22-.175.54-.14.718.08s.147.538-.07.72l-4.8 3.898a.51.51 0 0 1-.324.115zM27.802 15.804H44.34c.284 0 .514-.23.514-.514s-.23-.514-.514-.514H27.802c-.284 0-.514.23-.514.514s.23.514.514.514zm.122 12.738h.2c.284 0 .514-.23.514-.514s-.23-.514-.514-.514h-.2c-.284 0-.514.23-.514.514s.23.514.514.514zm2.187 0h1.505c.284 0 .514-.23.514-.514s-.23-.514-.514-.514H30.1c-.284 0-.514.23-.514.514s.23.514.514.514zm14.314-1.03h-10.8c-.284 0-.514.23-.514.514s.23.514.514.514h10.8c.284 0 .514-.23.514-.514s-.23-.514-.514-.514zm-16.502-3.216h.2c.284 0 .514-.23.514-.514s-.23-.514-.514-.514h-.2c-.284 0-.514.23-.514.514s.23.514.514.514zm2.187 0h1.505c.284 0 .514-.23.514-.514s-.23-.514-.514-.514H30.1c-.284 0-.514.23-.514.514s.23.514.514.514zm14.314-1.03h-10.8c-.284 0-.514.23-.514.514s.23.514.514.514h10.8c.284 0 .514-.23.514-.514s-.23-.514-.514-.514zm-.086-4.613H27.802c-.284 0-.514.23-.514.514s.23.514.514.514H44.34c.284 0 .514-.23.514-.514s-.23-.514-.514-.514zM30.73 35.483h.005c.284.001.515-.228.517-.512s-.228-.515-.512-.517l-3.1-.033c-.284-.001-.516.228-.517.512s.227.516.512.517l.883.01a.81.81 0 0 1 .57.243c.018.018.035.038.05.058l-1.507-.016c-.284-.003-.517.225-.52.5s.225.517.5.52l1.505.016a.81.81 0 0 1-.617.289l-.892-.01c-.2-.002-.4.124-.48.32a.51.51 0 0 0 .12.565l2.184 2.108c.204.197.53.192.727-.013s.192-.53-.013-.727l-1.293-1.248a1.85 1.85 0 0 0 1.406-1.271l.445.005c.284.002.515-.227.517-.512s-.228-.515-.512-.517l-.437-.005c-.028-.102-.066-.2-.112-.296l.554.006zm4.6 0h.005c.284.001.515-.228.517-.512s-.228-.515-.512-.517l-3.1-.033c-.284-.001-.516.228-.517.512s.227.516.5.517l.883.01a.81.81 0 0 1 .57.243l.05.058-1.512-.016c-.284-.002-.515.228-.517.512s.228.515.512.517l1.506.016a.81.81 0 0 1-.617.289l-.897-.01c-.2 0-.398.127-.477.32s-.03.417.12.563l2.183 2.108c.132.13.323.18.5.13a.52.52 0 0 0 .36-.372c.045-.18-.012-.37-.146-.497l-1.292-1.248a1.85 1.85 0 0 0 1.406-1.271l.445.005c.284.002.516-.227.517-.512s-.227-.515-.512-.517l-.438-.005c-.028-.102-.066-.2-.112-.296l.553.006z"/></g></g></g></svg>