<svg xmlns="http://www.w3.org/2000/svg" xmlns:xlink="http://www.w3.org/1999/xlink" width="80" height="60"><style><![CDATA[.B{fill:#fff}.C{mask:url(#B)}.D{fill-rule:nonzero}.E{fill:#3791fc}.F{opacity:.05}]]></style><defs><rect id="A" width="80" height="60" rx="3"/></defs><g fill="none" fill-rule="evenodd"><mask id="B" class="B"><use xlink:href="#A"/></mask><use xlink:href="#A" class="B"/><g class="D E C"><path d="M67.975 23.404c8.25 0 22.5 0 25.5-8.25S71.53 7.388 65.725 1.58s-15.17-5.177-24-5.177-7.158-9.734-14.25-8.25-.75 8.918-3 13.427v21.823h43.5z" transform="rotate(180 58.862 5.702)" class="F"/><path d="M10.286 59.675c29.448-10.47 42.536 13.088 42.536 0S37.116 40.043 29.263 32.19s-4.416-20.94-16.36-20.94-5.926 7.337-18.977 13.088-13.088 45.808 16.36 35.337z" class="F"/><path d="M59.036 45.425c29.448-10.47 42.536 13.088 42.536 0S85.866 25.793 78.013 17.94 73.597-3 61.653-3s-5.926 7.337-18.977 13.088S16.5.926 16.5 17.94s13.088 37.955 42.536 27.485z" transform="matrix(-1 0 0 1 118.071 0)" class="F"/></g><g fill="#b392db" class="C D"><path d="M103.45-6.644c-1.295 4.496-5.44 7.797-10.346 7.797A10.79 10.79 0 0 1 82.329-9.62c0-4.397 2.653-8.182 6.44-9.855v-4.567c-6.2 1.867-10.73 7.623-10.73 14.422 0 8.306 6.758 15.065 15.066 15.065 6.054 0 11.272-3.598 13.665-8.76l-1.7-3.342-1.617.014z"/></g><path fill="#3792fc" d="M12.277 25.617c1.06-.506 2.144-1.1 3.1-1.775.35-.252.005-.742-.363-.548-1.02.535-2.016 1.225-2.925 1.928-.187.14-.052.51.19.394zm3.92-20.873l-.06-.052c-.262-.234-.693-.278-.947 0s-.25.667 0 .947l.052.06c.234.265.72.257.955 0s.28-.706 0-.955zm60.3 4.077c.066-.43.053-.837.29-1.216.48-.752 1.16-.564 1.818-.232.67.338 1.304.54 2.03.226 1.138-.492 1.674-2.21.586-3.018-.35-.263-.7.17-.652.5.066.46.295.972-.1 1.366-.53.53-1.15.085-1.68-.154-.57-.257-1.178-.313-1.764-.075-1.012.41-1.75 1.783-.943 2.71.113.128.385.07.414-.1zm-11.74 43.42c-1.04 1-1.434 2.553-.444 3.756.933 1.132 2.744 1.368 3.91.468 2.82-2.176-.12-6.185-3.16-5.356-.564.153-.423.958.133.987.887.05 1.84.083 2.55.71.763.667.78 1.8.153 2.57-1.658 2.035-4.535-.962-2.794-2.786.224-.228-.116-.568-.348-.348zm-61.008-6.63l1.055 3.593c.088.286.36.378.607.208l2.86-2.036c.176-.14.138-.424-.035-.544C7.167 46.098 5.716 45.007 4.35 45c-.346-.004-.59.487-.236.688.55.318 1.21.43 1.8.674.678.282 1.352.614 1.952 1.04l.04-.593c-1.027.632-1.994 1.34-2.968 2.047l.575.116-1.306-3.508c-.1-.244-.515-.11-.448.148z" class="C D F"/><g class="C"><path d="M25.47 26.797h16.734V43.53H25.47z" class="B D"/><path fill="#b1d4ff" d="M25.47 26.797h16.734V43.53H25.47z"/><g class="D"><path d="M33.906 14.47H54.53v12.328H33.906z" class="B"/><path d="M54.4 26.797h-20.5V14.454h20.5v12.343zm-19.563-.937H53.46V15.39H34.836V25.86z" class="E"/><path fill="#b1d4ff" d="M35.875 22.953v-4.64a1.88 1.88 0 0 0 1.875-1.875h12.938a1.88 1.88 0 0 0 1.875 1.875v4.594a1.88 1.88 0 0 0-1.875 1.875H37.75c0-.984-.844-1.828-1.875-1.828z"/><g class="B"><circle cx="44.22" cy="20.61" r="3.094"/><circle cx="50.267" cy="20.61" r="1"/><circle cx="38.173" cy="20.61" r="1"/><path d="M29.547 29.61h1v3.516h-1z"/><path d="M28.28 30.875h3.516v1H28.28zm8.453 2.07l-.663-.663 2.485-2.485.663.663z"/><path d="M38.555 32.915L36.07 30.43l.663-.663 2.486 2.486zm-10.275 5.6h3.516v1H28.28zm7.595-.938h3.516v1h-3.516z"/><path d="M35.875 39.453h3.516v1h-3.516z"/></g><path fill="#5621ad" d="M52.094 29.937h1v1h-1z"/><g class="E"><path d="M48.203 44h-.937v-.937h.938V44zm-1.828 0h-.937v-.937h.938V44zm-1.828 0H43.6v-.937h.938V44zm4.64-.094L49 42.97c.28-.047.516-.14.797-.234l.375.844c-.28.188-.6.28-.984.328zm1.875-.797l-.562-.75c.234-.14.422-.328.6-.562l.703.6c-.234.28-.47.516-.75.703zm1.36-1.5l-.797-.47c.14-.234.234-.47.328-.75l.9.28-.422.938zm.563-1.97l-.937-.094v-.9h.938v.563c.047.188.047.328 0 .422zm.047-1.875h-.937v-.937h.938v.938zm0-1.828h-.937V35h.938v.938zm0-1.828h-.937v-.937h.938v.938zm0-1.828h-.937v-.938h.938v.938zm.938-.233l-1.406-1.453-1.454 1.453-.656-.657 2.1-2.1 2.062 2.1zm-28.032-5.742H25v-.176h.938v.176zm0-1.055H25v-.88h.938v.88zm0-1.816H25v-.88h.938v.88zm0-1.758H25v-.88h.938v.88zm0-1.816H25v-.88h.938v.88zm.068-1.7l-.947-.134c.047-.356.2-.713.426-.98l.805.5c-.2.134-.284.356-.284.623zm.746-1.23l-.52-.712c.33-.223.663-.356 1.04-.4l.2.9c-.284 0-.473.1-.7.223zm4.343-.234h-.937v-.88h.938v.88zm-1.875 0h-.937v-.88h.938v.88z"/><path d="M29.64 18.312l-.657-.656 1.454-1.406-1.454-1.453.657-.657 2.11 2.1z"/><path d="M44.947 23l-1.316-1.82c.303-.07.55-.206.742-.4s.3-.48.322-.83h.462v-.343h-.476a1.1 1.1 0 0 0-.182-.43.94.94 0 0 0-.336-.29h.994v-.343h-2.653V19H43c.308 0 .556.044.745.133s.31.24.36.455h-1.12l-.483.035v.308h1.617c-.023.28-.132.488-.325.623s-.46.203-.794.203h-.497v.47h.54L44.29 23h.658z"/></g></g></g></g></svg>