<svg xmlns="http://www.w3.org/2000/svg" xmlns:xlink="http://www.w3.org/1999/xlink" width="50" height="50" viewBox="0 0 50 50">
  <defs>
    <path id="ic_hospicash-a" d="M26.8,0 C28.1254834,-2.4348735e-16 29.2,1.0745166 29.2,2.4 L29.2,35.6 L24.8,35.6 L24.8,28.8 C24.8,28.3581722 24.4418278,28 24,28 L20.4,28 L20.4,35.6 L20,35.6 L20,28 L16.4,28 C15.9581722,28 15.6,28.3581722 15.6,28.8 L15.6,28.8 L15.6,35.6 L11.6,35.6 L11.6,2.4 C11.6,1.0745166 12.6745166,-1.08878028e-15 14,0 L26.8,0 Z M18,21.6 L15.6,21.6 C15.1581722,21.6 14.8,21.9581722 14.8,22.4 L14.8,22.4 L14.8,24.8 C14.8,25.2418278 15.1581722,25.6 15.6,25.6 L15.6,25.6 L18,25.6 C18.4418278,25.6 18.8,25.2418278 18.8,24.8 L18.8,24.8 L18.8,22.4 C18.8,21.9581722 18.4418278,21.6 18,21.6 L18,21.6 Z M25.2,21.6 L22.8,21.6 C22.3581722,21.6 22,21.9581722 22,22.4 L22,22.4 L22,24.8 C22,25.2418278 22.3581722,25.6 22.8,25.6 L22.8,25.6 L25.2,25.6 C25.6418278,25.6 26,25.2418278 26,24.8 L26,24.8 L26,22.4 C26,21.9581722 25.6418278,21.6 25.2,21.6 L25.2,21.6 Z M18,15.2 L15.6,15.2 C15.1581722,15.2 14.8,15.5581722 14.8,16 L14.8,16 L14.8,18.4 C14.8,18.8418278 15.1581722,19.2 15.6,19.2 L15.6,19.2 L18,19.2 C18.4418278,19.2 18.8,18.8418278 18.8,18.4 L18.8,18.4 L18.8,16 C18.8,15.5581722 18.4418278,15.2 18,15.2 L18,15.2 Z M25.2,15.2 L22.8,15.2 C22.3581722,15.2 22,15.5581722 22,16 L22,16 L22,18.4 C22,18.8418278 22.3581722,19.2 22.8,19.2 L22.8,19.2 L25.2,19.2 C25.6418278,19.2 26,18.8418278 26,18.4 L26,18.4 L26,16 C26,15.5581722 25.6418278,15.2 25.2,15.2 L25.2,15.2 Z M20,3.2 C17.5699471,3.2 15.6,5.1699471 15.6,7.6 C15.6,10.0300529 17.5699471,12 20,12 C22.4300529,12 24.4,10.0300529 24.4,7.6 C24.4,5.1699471 22.4300529,3.2 20,3.2 Z"/>
    <linearGradient id="ic_hospicash-b" x1="50%" x2="50%" y1="0%" y2="100%">
      <stop offset="0%" stop-color="#FFF" stop-opacity="0"/>
      <stop offset="99.517%" stop-color="#B392DB" stop-opacity=".2"/>
    </linearGradient>
    <path id="ic_hospicash-c" d="M24.6,0 C25.9254834,2.00601859e-16 27,1.0745166 27,2.4 L27,1 L34,1 C35.1045695,1 36,1.8954305 36,3 L36,7 L27,7 L27,7 L22.5,7 L22.5,6.30561798 C22.5,5.86379018 22.1418278,5.50561798 21.7,5.50561798 L18,5.50561798 L18,7 L17.5909091,7 L17.5909091,5.50561798 L13.8909091,5.50561798 C13.483068,5.50561798 13.1465075,5.81080612 13.0971422,6.20526768 L13.0909091,6.30561798 L13.0909091,7 L9,7 L9,7 L0,7 L0,3 C0,1.8954305 0.8954305,1 2,1 L2,1 L9,1 L9,2.388 L9.00553687,2.23568127 C9.08997876,0.986839031 10.1297451,1.08451303e-15 11.4,0 L24.6,0 Z M15.9703779,4.24719101 L12.6659857,4.24719101 C12.4487951,4.24719101 12.2727273,4.42325881 12.2727273,4.64044944 C12.2727273,4.83049124 12.4075292,4.98904837 12.5867304,5.02571825 L12.6659857,5.03370787 L15.9703779,5.03370787 C16.1875686,5.03370787 16.3636364,4.85764007 16.3636364,4.64044944 C16.3636364,4.42325881 16.1875686,4.24719101 15.9703779,4.24719101 Z M23.3340143,4.24719101 L20.0296221,4.24719101 C19.8124314,4.24719101 19.6363636,4.42325881 19.6363636,4.64044944 C19.6363636,4.83049124 19.7711655,4.98904837 19.9503668,5.02571825 L20.0296221,5.03370787 L23.3340143,5.03370787 C23.5512049,5.03370787 23.7272727,4.85764007 23.7272727,4.64044944 C23.7272727,4.42325881 23.5512049,4.24719101 23.3340143,4.24719101 Z M33.241215,4.04109589 L30.1500893,4.04109589 C29.923123,4.04109589 29.7391304,4.22508846 29.7391304,4.45205479 C29.7391304,4.65065034 29.8799997,4.81634409 30.0672668,4.85466447 L30.1500893,4.8630137 L33.241215,4.8630137 C33.4681813,4.8630137 33.6521739,4.67902113 33.6521739,4.45205479 C33.6521739,4.22508846 33.4681813,4.04109589 33.241215,4.04109589 Z M5.84991066,4.04109589 L2.75878499,4.04109589 C2.53181866,4.04109589 2.34782609,4.22508846 2.34782609,4.45205479 C2.34782609,4.67902113 2.53181866,4.8630137 2.75878499,4.8630137 L2.75878499,4.8630137 L5.84991066,4.8630137 L5.93273321,4.85466447 C6.12000025,4.81634409 6.26086957,4.65065034 6.26086957,4.45205479 C6.26086957,4.22508846 6.076877,4.04109589 5.84991066,4.04109589 L5.84991066,4.04109589 Z M15.9703779,2.98876404 L12.6659857,2.98876404 C12.4487951,2.98876404 12.2727273,3.16483184 12.2727273,3.38202247 C12.2727273,3.57206427 12.4075292,3.73062141 12.5867304,3.76729129 L12.6659857,3.7752809 L15.9703779,3.7752809 C16.1875686,3.7752809 16.3636364,3.5992131 16.3636364,3.38202247 C16.3636364,3.16483184 16.1875686,2.98876404 15.9703779,2.98876404 Z M23.3340143,2.98876404 L20.0296221,2.98876404 C19.8124314,2.98876404 19.6363636,3.16483184 19.6363636,3.38202247 C19.6363636,3.57206427 19.7711655,3.73062141 19.9503668,3.76729129 L20.0296221,3.7752809 L23.3340143,3.7752809 C23.5512049,3.7752809 23.7272727,3.5992131 23.7272727,3.38202247 C23.7272727,3.16483184 23.5512049,2.98876404 23.3340143,2.98876404 Z M33.241215,2.80821918 L30.1500893,2.80821918 C29.923123,2.80821918 29.7391304,2.99221175 29.7391304,3.21917808 C29.7391304,3.41777363 29.8799997,3.58346738 30.0672668,3.62178776 L30.1500893,3.63013699 L33.241215,3.63013699 C33.4681813,3.63013699 33.6521739,3.44614442 33.6521739,3.21917808 C33.6521739,2.99221175 33.4681813,2.80821918 33.241215,2.80821918 Z M5.84991066,2.80821918 L2.75878499,2.80821918 C2.53181866,2.80821918 2.34782609,2.99221175 2.34782609,3.21917808 C2.34782609,3.44614442 2.53181866,3.63013699 2.75878499,3.63013699 L2.75878499,3.63013699 L5.84991066,3.63013699 L5.93273321,3.62178776 C6.12000025,3.58346738 6.26086957,3.41777363 6.26086957,3.21917808 C6.26086957,2.99221175 6.076877,2.80821918 5.84991066,2.80821918 L5.84991066,2.80821918 Z M33.241215,1.57534247 L30.1500893,1.57534247 C29.923123,1.57534247 29.7391304,1.75933503 29.7391304,1.98630137 C29.7391304,2.18489691 29.8799997,2.35059067 30.0672668,2.38891105 L30.1500893,2.39726027 L33.241215,2.39726027 C33.4681813,2.39726027 33.6521739,2.21326771 33.6521739,1.98630137 C33.6521739,1.75933503 33.4681813,1.57534247 33.241215,1.57534247 Z M5.84991066,1.57534247 L2.75878499,1.57534247 C2.53181866,1.57534247 2.34782609,1.75933503 2.34782609,1.98630137 C2.34782609,2.21326771 2.53181866,2.39726027 2.75878499,2.39726027 L2.75878499,2.39726027 L5.84991066,2.39726027 L5.93273321,2.38891105 C6.12000025,2.35059067 6.26086957,2.18489691 6.26086957,1.98630137 C6.26086957,1.75933503 6.076877,1.57534247 5.84991066,1.57534247 L5.84991066,1.57534247 Z M17.5909091,0.629213483 C15.1056277,0.629213483 13.0909091,1.01656263 13.0909091,1.49438202 C13.0909091,1.97220141 15.1056277,2.35955056 17.5909091,2.35955056 C20.0761905,2.35955056 22.0909091,1.97220141 22.0909091,1.49438202 C22.0909091,1.01656263 20.0761905,0.629213483 17.5909091,0.629213483 Z M18.7826087,1 C18.9130435,1 19.0434783,1.02173913 19.0434783,1.04347826 L19.0434783,1.04347826 L19.0434783,1.32608696 L20.7391304,1.32608696 C20.8695652,1.32608696 21,1.34782609 21,1.36956522 L21,1.36956522 L21,1.63043478 C21,1.65217391 20.8695652,1.67391304 20.7391304,1.67391304 L20.7391304,1.67391304 L19.0434783,1.67391304 L19.0434783,1.95652174 C19.0434783,1.97826087 18.9130435,2 18.7826087,2 L18.7826087,2 L17.2173913,2 C17.0869565,2 16.9565217,1.97826087 16.9565217,1.95652174 L16.9565217,1.95652174 L16.9565217,1.67391304 L15.2608696,1.67391304 C15.1304348,1.67391304 15,1.65217391 15,1.63043478 L15,1.63043478 L15,1.36956522 C15,1.34782609 15.1304348,1.32608696 15.2608696,1.32608696 L15.2608696,1.32608696 L16.9565217,1.32608696 L16.9565217,1.04347826 C16.9565217,1.02173913 17.0869565,1 17.2173913,1 L17.2173913,1 Z"/>
  </defs>
  <g fill="none" fill-rule="evenodd" transform="translate(5 4)">
    <use fill="#5721AE" xlink:href="#ic_hospicash-a"/>
    <path fill="#5721AE" fill-rule="nonzero" d="M19.24,10.32 L20.68,10.32 C20.8,10.32 20.92,10.2 20.92,10.08 L20.92,8.52 L22.48,8.52 C22.6,8.52 22.72,8.4 22.72,8.28 L22.72,6.84 C22.72,6.72 22.6,6.6 22.48,6.6 L20.92,6.6 L20.92,5.04 C20.92,4.92 20.8,4.8 20.68,4.8 L19.24,4.8 C19.12,4.8 19,4.92 19,5.04 L19,6.6 L17.44,6.6 C17.32,6.6 17.2,6.72 17.2,6.84 L17.2,8.28 C17.2,8.4 17.32,8.52 17.44,8.52 L19,8.52 L19,10.08 C19,10.2 19.12,10.32 19.24,10.32 Z"/>
    <path fill="#AD95D6" d="M36.4,6.4 C37.5045695,6.4 38.4,7.2954305 38.4,8.4 L38.4,35.6 L29.2,35.6 L29.2,6.4 L36.4,6.4 Z M35.2,21.2 L32.8,21.2 C32.3581722,21.2 32,21.5581722 32,22 L32,22 L32,24.4 C32,24.8418278 32.3581722,25.2 32.8,25.2 L32.8,25.2 L35.2,25.2 C35.6418278,25.2 36,24.8418278 36,24.4 L36,24.4 L36,22 C36,21.5581722 35.6418278,21.2 35.2,21.2 L35.2,21.2 Z M35.2,15.2 L32.8,15.2 C32.3581722,15.2 32,15.5581722 32,16 L32,16 L32,18.4 C32,18.8418278 32.3581722,19.2 32.8,19.2 L32.8,19.2 L35.2,19.2 C35.6418278,19.2 36,18.8418278 36,18.4 L36,18.4 L36,16 C36,15.5581722 35.6418278,15.2 35.2,15.2 L35.2,15.2 Z M35.2,9.2 L32.8,9.2 C32.3581722,9.2 32,9.5581722 32,10 L32,10 L32,12.4 C32,12.8418278 32.3581722,13.2 32.8,13.2 L32.8,13.2 L35.2,13.2 C35.6418278,13.2 36,12.8418278 36,12.4 L36,12.4 L36,10 C36,9.5581722 35.6418278,9.2 35.2,9.2 L35.2,9.2 Z"/>
    <path fill="#AD95D6" d="M9.6,6.4 C10.7045695,6.4 11.6,7.2954305 11.6,8.4 L11.6,35.6 L2.4,35.6 L2.4,6.4 L9.6,6.4 Z M8.4,21.2 L6,21.2 C5.5581722,21.2 5.2,21.5581722 5.2,22 L5.2,22 L5.2,24.4 C5.2,24.8418278 5.5581722,25.2 6,25.2 L6,25.2 L8.4,25.2 C8.8418278,25.2 9.2,24.8418278 9.2,24.4 L9.2,24.4 L9.2,22 C9.2,21.5581722 8.8418278,21.2 8.4,21.2 L8.4,21.2 Z M8.4,15.2 L6,15.2 C5.5581722,15.2 5.2,15.5581722 5.2,16 L5.2,16 L5.2,18.4 C5.2,18.8418278 5.5581722,19.2 6,19.2 L6,19.2 L8.4,19.2 C8.8418278,19.2 9.2,18.8418278 9.2,18.4 L9.2,18.4 L9.2,16 C9.2,15.5581722 8.8418278,15.2 8.4,15.2 L8.4,15.2 Z M8.4,9.2 L6,9.2 C5.5581722,9.2 5.2,9.5581722 5.2,10 L5.2,10 L5.2,12.4 C5.2,12.8418278 5.5581722,13.2 6,13.2 L6,13.2 L8.4,13.2 C8.8418278,13.2 9.2,12.8418278 9.2,12.4 L9.2,12.4 L9.2,10 C9.2,9.5581722 8.8418278,9.2 8.4,9.2 L8.4,9.2 Z" transform="matrix(-1 0 0 1 14 0)"/>
    <use fill="url(#ic_hospicash-b)" transform="matrix(1 0 0 -1 2 42)" xlink:href="#ic_hospicash-c"/>
  </g>
</svg>
