<svg xmlns="http://www.w3.org/2000/svg" xmlns:xlink="http://www.w3.org/1999/xlink" width="80" height="60"><style><![CDATA[.B{mask:url(#B)}.C{fill-rule:nonzero}.D{opacity:.05}.E{fill:#3791fc}]]></style><defs><rect id="A" width="80" height="60" rx="3"/></defs><g fill="none" fill-rule="evenodd"><mask id="B" fill="#fff"><use xlink:href="#A"/></mask><use fill="#fff" xlink:href="#A"/><g class="C E B"><path d="M67.975 23.404c8.25 0 22.5 0 25.5-8.25S71.53 7.388 65.725 1.58s-15.17-5.177-24-5.177-7.158-9.734-14.25-8.25-.75 8.918-3 13.427v21.823h43.5z" transform="rotate(180 58.862 5.702)" class="D"/><path d="M10.286 59.675c29.448-10.47 42.536 13.088 42.536 0S37.116 40.043 29.263 32.19s-4.416-20.94-16.36-20.94-5.926 7.337-18.977 13.088-13.088 45.808 16.36 35.337z" class="D"/><path d="M59.036 45.425c29.448-10.47 42.536 13.088 42.536 0S85.866 25.793 78.013 17.94 73.597-3 61.653-3s-5.926 7.337-18.977 13.088S16.5.926 16.5 17.94s13.088 37.955 42.536 27.485z" transform="matrix(-1 0 0 1 118.071 0)" class="D"/></g><g fill="#b392db" class="B C"><path d="M103.45-6.644c-1.295 4.496-5.44 7.797-10.346 7.797A10.79 10.79 0 0 1 82.329-9.62c0-4.397 2.653-8.182 6.44-9.855v-4.567c-6.2 1.867-10.73 7.623-10.73 14.422 0 8.306 6.758 15.065 15.066 15.065 6.054 0 11.272-3.598 13.665-8.76l-1.7-3.342-1.617.014z"/></g><path fill="#3792fc" d="M12.277 25.617c1.06-.506 2.144-1.1 3.1-1.775.35-.252.005-.742-.363-.548-1.02.535-2.016 1.225-2.925 1.928-.187.14-.052.51.19.394zm3.92-20.873l-.06-.052c-.262-.234-.693-.278-.947 0s-.25.667 0 .947l.052.06c.234.265.72.257.955 0s.28-.706 0-.955zm60.3 4.077c.066-.43.053-.837.29-1.216.48-.752 1.16-.564 1.818-.232.67.338 1.304.54 2.03.226 1.138-.492 1.674-2.21.586-3.018-.35-.263-.7.17-.652.5.066.46.295.972-.1 1.366-.53.53-1.15.085-1.68-.154-.57-.257-1.178-.313-1.764-.075-1.012.41-1.75 1.783-.943 2.71.113.128.385.07.414-.1zm-11.74 43.42c-1.04 1-1.434 2.553-.444 3.756.933 1.132 2.744 1.368 3.91.468 2.82-2.176-.12-6.185-3.16-5.356-.564.153-.423.958.133.987.887.05 1.84.083 2.55.71.763.667.78 1.8.153 2.57-1.658 2.035-4.535-.962-2.794-2.786.224-.228-.116-.568-.348-.348zm-61.008-6.63l1.055 3.593c.088.286.36.378.607.208l2.86-2.036c.176-.14.138-.424-.035-.544C7.167 46.098 5.716 45.007 4.35 45c-.346-.004-.59.487-.236.688.55.318 1.21.43 1.8.674.678.282 1.352.614 1.952 1.04l.04-.593c-1.027.632-1.994 1.34-2.968 2.047l.575.116-1.306-3.508c-.1-.244-.515-.11-.448.148z" class="B C D"/><g class="B"><g class="C"><path d="M32.618 27.212l.11.388c.03-.008.06-.012.1-.012h.46l.106-.376c.05-.184-.014-.412-.115-.412h-.534c-.102.004-.166.232-.115.412z" class="E"/><path fill="#b1d4ff" d="M45.068 36.613l5.028-2.094c.49-.15.85-.495.858-1.057-.005-.594-.198-1.104-.74-1.434-.368-.23-.755-.198-1.146-.033l-3.075 1.264c-.1.042-.193.085-.316.113l-.123-.292-.816-1.92-.31-.693c-.26.84-.82 1.5-1.307 1.896l-.642.524 1.344 3.212c.255.627.594.792 1.245.514z"/><path d="M33.433 30.8h-.86c-.257 0-.477.196-.523.468l-.23 1.313c-.124.732.334 1.42.947 1.42h.464c.613 0 1.07-.687.947-1.42l-.223-1.313c-.046-.272-.266-.468-.523-.468z" class="E"/><path fill="#b1d4ff" d="M38.96 33.98l2.533-1.458 1.042-.844c.16-.123 1.807-1.533.726-3.264l-2.547-4.104c-.042-.1-.113-.18-.18-.288.1-.02.165-.014.222-.02l3.028-.014c.19-.005.274.057.377.208l1.08 1.73c.358.575.99.75 1.505.42.604-.292.73-.943.373-1.52l-1.51-2.472c-.193-.32-.44-.448-.81-.462l-4.976.038c-.302.014-.642.118-.896.283l-2.726 1.81c-.514.33-.745.778-.745 1.373l-.01 2.425c-.014.104.005.19.005.325-.113.01-.212-.005-.292-.01l-2.726.005c-.675-.005-1.113.415-1.118 1.033s.458 1.075 1.104 1.066h4.396c.458-.005.69-.236.693-.717l-.005-2.052c.01-.024.01-.024.024-.127l2.066 3.156a.94.94 0 0 1-.255.165l-2.618 1.608c-.43.26-.6.618-.608 1.104l.01 6.31c.005.783.505 1.283 1.302 1.31.774.02 1.264-.325 1.406-.943.024-.127.024-.26.014-.373l-.024-5.35c0-.146-.01-.255.142-.358zm-5.684-13.486c.02 1.354 1.137 2.458 2.49 2.44 1.377-.01 2.467-1.104 2.453-2.462 0-1.4-1.104-2.467-2.505-2.472-1.344-.005-2.448 1.113-2.44 2.495z"/></g><g stroke="#3791fc" stroke-width=".682"><circle cx="40" cy="30" r="14.659"/><path stroke-linecap="round" stroke-linejoin="round" d="M50.227 19.773L29.773 39.965"/></g></g></g></svg>