<svg xmlns="http://www.w3.org/2000/svg" xmlns:xlink="http://www.w3.org/1999/xlink" width="80" height="60"><style><![CDATA[.B{fill-rule:nonzero}.C{mask:url(#B)}.D{opacity:.05}.E{fill:#3791fc}]]></style><defs><rect id="A" width="80" height="60" rx="3"/></defs><g fill="none" fill-rule="evenodd"><mask id="B" fill="#fff"><use xlink:href="#A"/></mask><use fill="#fff" xlink:href="#A"/><g class="B E C"><path d="M67.975 23.404c8.25 0 22.5 0 25.5-8.25S71.53 7.388 65.725 1.58s-15.17-5.177-24-5.177-7.158-9.734-14.25-8.25-.75 8.918-3 13.427v21.823h43.5z" transform="rotate(180 58.862 5.702)" class="D"/><path d="M10.286 59.675c29.448-10.47 42.536 13.088 42.536 0S37.116 40.043 29.263 32.19s-4.416-20.94-16.36-20.94-5.926 7.337-18.977 13.088-13.088 45.808 16.36 35.337z" class="D"/><path d="M59.036 45.425c29.448-10.47 42.536 13.088 42.536 0S85.866 25.793 78.013 17.94 73.597-3 61.653-3s-5.926 7.337-18.977 13.088S16.5.926 16.5 17.94s13.088 37.955 42.536 27.485z" transform="matrix(-1 0 0 1 118.071 0)" class="D"/></g><g fill="#b392db" class="B C"><path d="M103.45-6.644c-1.295 4.496-5.44 7.797-10.346 7.797A10.79 10.79 0 0 1 82.329-9.62c0-4.397 2.653-8.182 6.44-9.855v-4.567c-6.2 1.867-10.73 7.623-10.73 14.422 0 8.306 6.758 15.065 15.066 15.065 6.054 0 11.272-3.598 13.665-8.76l-1.7-3.342-1.617.014z"/></g><path fill="#3792fc" d="M12.277 25.617c1.06-.506 2.144-1.1 3.1-1.775.35-.252.005-.742-.363-.548-1.02.535-2.016 1.225-2.925 1.928-.187.14-.052.51.19.394zm3.92-20.873l-.06-.052c-.262-.234-.693-.278-.947 0s-.25.667 0 .947l.052.06c.234.265.72.257.955 0s.28-.706 0-.955zm60.3 4.077c.066-.43.053-.837.29-1.216.48-.752 1.16-.564 1.818-.232.67.338 1.304.54 2.03.226 1.138-.492 1.674-2.21.586-3.018-.35-.263-.7.17-.652.5.066.46.295.972-.1 1.366-.53.53-1.15.085-1.68-.154-.57-.257-1.178-.313-1.764-.075-1.012.41-1.75 1.783-.943 2.71.113.128.385.07.414-.1zm-11.74 43.42c-1.04 1-1.434 2.553-.444 3.756.933 1.132 2.744 1.368 3.91.468 2.82-2.176-.12-6.185-3.16-5.356-.564.153-.423.958.133.987.887.05 1.84.083 2.55.71.763.667.78 1.8.153 2.57-1.658 2.035-4.535-.962-2.794-2.786.224-.228-.116-.568-.348-.348zm-61.008-6.63l1.055 3.593c.088.286.36.378.607.208l2.86-2.036c.176-.14.138-.424-.035-.544C7.167 46.098 5.716 45.007 4.35 45c-.346-.004-.59.487-.236.688.55.318 1.21.43 1.8.674.678.282 1.352.614 1.952 1.04l.04-.593c-1.027.632-1.994 1.34-2.968 2.047l.575.116-1.306-3.508c-.1-.244-.515-.11-.448.148z" class="B C D"/><g class="C B"><g fill="#a4c5ed"><path d="M54.732 46.946h-1.425c-.148 0-.268-.12-.268-.267V31.376a.95.95 0 0 1 .952-.945h.058a.95.95 0 0 1 .952.945V46.68c0 .147-.12.267-.268.267zm-27.77-12.92h8.692v7.793h-8.692z"/><path d="M32.877 34.027h-5.915v-5.875h.175c3.17 0 5.74 2.552 5.74 5.7v.174z"/></g><path fill="#aac9ef" d="M31.088 46.946h-.95c-.12 0-.22-.098-.22-.218V41.82h1.388v4.907c0 .12-.098.218-.22.218zm3.82-22.86a.45.45 0 0 1-.453-.45V21.4a.45.45 0 1 1 .905 0v2.236a.45.45 0 0 1-.453.45zm0 6.466a.45.45 0 0 1-.453-.45v-2.967a.45.45 0 1 1 .905 0v2.967a.45.45 0 0 1-.453.45z"/><path fill="#b1d4ff" d="M35.842 27.114h-1.864a.6.6 0 0 1-.599-.543l-.263-2.813a.55.55 0 0 1 .55-.599h2.49a.55.55 0 0 1 .55.599l-.263 2.813a.6.6 0 0 1-.599.543zM53.038 43.38V32.71H36.756a1.1 1.1 0 0 0-1.102 1.094v8.482c0 .604.493 1.094 1.102 1.094h16.283z"/><path fill="#aac9ef" d="M36.268 20a.69.69 0 0 1 .694.689.69.69 0 0 1-.694.689h-4.96v8.664c-.403-.433-.87-.806-1.388-1.104v-8.1c0-.458.374-.83.835-.83h5.513z"/><path fill="#a4c5ed" d="M25 46.67c0 .152.124.275.277.275h1.408c.153 0 .277-.123.277-.275V23.253c0-.525-.406-.976-.933-1a.98.98 0 0 0-1.028.973V46.67z"/><path d="M59.354 43.665c-.378 1.054-.95 1.97-1.7 2.724-.853.858-1.97 1.54-3.32 2.025a1.02 1.02 0 0 1-.137.039c-.06.012-.124.02-.186.02H54a1 1 0 0 1-.198-.02c-.046-.01-.092-.023-.136-.038-1.352-.485-2.47-1.166-3.324-2.024-.75-.753-1.32-1.67-1.7-2.724-.686-1.917-.647-4.03-.616-5.726v-.026l.013-.45c.01-.798.628-1.458 1.403-1.503 1.616-.093 2.867-.636 3.935-1.708l.01-.01c.177-.168.4-.25.623-.246a.89.89 0 0 1 .599.246l.01.01c1.07 1.072 2.32 1.615 3.936 1.708.775.044 1.392.705 1.403 1.503l.013.46c.03 1.7.07 3.816-.618 5.74z" class="E"/><path fill="#fff" d="M56.57 41.06c0 1.456-1.15 2.642-2.562 2.647H54c-1.418 0-2.57-1.188-2.57-2.647s1.154-2.647 2.57-2.647h.01c1.414.005 2.562 1.19 2.562 2.647z"/><path d="M55.6 40.717l-1.92 1.976c-.08.083-.186.124-.292.124s-.21-.04-.292-.124l-.733-.755c-.16-.166-.16-.435 0-.6s.422-.166.583 0l.442.455 1.628-1.675c.16-.166.422-.166.583 0s.16.435 0 .6z" class="E"/></g></g></svg>