<svg xmlns="http://www.w3.org/2000/svg" width="50" height="50" viewBox="0 0 50 50">
  <defs>
    <linearGradient id="ic_health-a" x1="50%" x2="50%" y1="0%" y2="100%">
      <stop offset="0%" stop-color="#B69FE1" stop-opacity="0"/>
      <stop offset="100%" stop-color="#7F66BF" stop-opacity=".209"/>
    </linearGradient>
  </defs>
  <g fill="none" transform="translate(5 3)">
    <path fill="#A998D2" d="M38.996858,10.8646411 C39.1310711,5.26155023 34.6136994,0.513264503 28.9240878,0.452350384 C25.1148171,0.411517914 21.7825973,2.43138854 19.9997729,5.44897816 C18.2166089,2.43138854 14.8847288,0.411183226 11.0754582,0.452350384 C5.38584643,0.513264503 0.868474883,5.26155023 1.00268781,10.8646411 C1.3030531,23.3851613 16.5054782,34.2753933 19.4931614,36.2966026 C19.7986234,36.5034428 20.2009226,36.5034428 20.5063845,36.2966026 C23.4940678,34.2753933 38.6964928,23.3851613 38.996858,10.8646411 L38.996858,10.8646411 Z"/>
    <path fill="url(#ic_health-a)" d="M37.1275072,39.0247322 C37.2480521,37.9352423 33.1907242,37.0119645 28.0805358,37.0001201 C24.6591968,36.9921805 21.6663263,37.3849331 20.0650627,37.9716866 C18.4634939,37.3849331 15.4709285,36.9921154 12.0495895,37.0001201 C6.93940099,37.0119645 2.88207319,37.9352423 3.00261803,39.0247322 C3.27239448,41.4592778 16.9266227,43.5768229 19.6100438,43.9698358 C19.8843979,44.0100547 20.2457274,44.0100547 20.5200815,43.9698358 C23.2035026,43.5768229 36.8577308,41.4592778 37.1275072,39.0247322 L37.1275072,39.0247322 Z" transform="matrix(1 0 0 -1 0 81)"/>
    <path fill="#4F2DA7" d="M19.8865523,28.9495032 C19.3903345,28.9495032 18.9640023,28.5964134 18.8718389,28.1081303 L16.3504667,14.7148285 L13.6676559,21.0905858 C13.5114053,21.4619862 13.1537379,21.708264 12.7512095,21.721997 C12.3480707,21.7357299 11.9748393,21.5138662 11.7938694,21.1540626 L11.0767034,19.728581 L1.03241372,19.728581 C0.462343134,19.728581 -4.97379915e-14,19.2662378 -4.97379915e-14,18.6961673 C-4.97379915e-14,18.1257915 0.462343134,17.6637535 1.03241372,17.6637535 L11.7129974,17.6637535 C12.1011825,17.6637535 12.4564085,17.8813448 12.6324956,18.2268051 L15.7785651,10.7508848 C15.9552625,10.3306561 16.3867828,10.0761385 16.8393602,10.1246616 C17.292548,10.1728796 17.6602863,10.5122364 17.7448203,10.9602362 L19.8236859,22.0042856 L20.6839797,16.836724 C20.7666827,16.3386752 21.1972874,15.9736835 21.7020501,15.9736835 L25.071509,15.9736835 C25.4206315,15.9736835 25.7462553,16.1500757 25.9366858,16.4424353 L27.5187232,18.8707285 L28.2010989,18.0406471 C28.3973277,17.8019988 28.6899925,17.6637535 28.9988316,17.6637535 L38.9677425,17.6637535 C39.5378131,17.6637535 39.9998511,18.1260967 39.9998511,18.6961673 C39.9998511,19.2662378 39.5378131,19.728581 38.9677425,19.728581 L29.4868096,19.728581 L28.2203251,21.2694195 C28.011584,21.5233267 27.6938948,21.6627926 27.3658296,21.6447872 C27.037154,21.6267817 26.737165,21.4531361 26.5577209,21.1775612 L24.5124248,18.0385109 L22.5769925,18.0385109 L20.9049278,28.0864628 C20.8228352,28.5802391 20.3980289,28.94401 19.8975387,28.9491981 C19.8938765,28.9491981 19.8899093,28.9495032 19.8865523,28.9495032 L19.8865523,28.9495032 Z"/>
  </g>
</svg>
