<svg xmlns="http://www.w3.org/2000/svg" width="50" height="50" viewBox="0 0 50 50">
  <defs>
    <linearGradient id="ic_hospicash-a" x1="50%" x2="50%" y1="0%" y2="100%">
      <stop offset="0%" stop-color="#B69FE1" stop-opacity="0"/>
      <stop offset="98.986%" stop-color="#378EFC" stop-opacity=".099"/>
    </linearGradient>
  </defs>
  <g fill="none" transform="translate(7 5)">
    <path fill="#378EFC" d="M15.8,0 C17.1254834,0 18.2,1.0745166 18.2,2.4 L18.2,35.6 L13.8,35.6 L13.8,28.8 C13.8,28.3581722 13.4418278,28 13,28 L9.4,28 L9.4,35.6 L9,35.6 L9,28 L5.4,28 C4.9581722,28 4.6,28.3581722 4.6,28.8 L4.6,28.8 L4.6,35.6 L0.6,35.6 L0.6,2.4 C0.6,1.0745166 1.6745166,0 3,0 L15.8,0 Z M7,21.6 L4.6,21.6 C4.1581722,21.6 3.8,21.9581722 3.8,22.4 L3.8,22.4 L3.8,24.8 C3.8,25.2418278 4.1581722,25.6 4.6,25.6 L4.6,25.6 L7,25.6 C7.4418278,25.6 7.8,25.2418278 7.8,24.8 L7.8,24.8 L7.8,22.4 C7.8,21.9581722 7.4418278,21.6 7,21.6 L7,21.6 Z M14.2,21.6 L11.8,21.6 C11.3581722,21.6 11,21.9581722 11,22.4 L11,22.4 L11,24.8 C11,25.2418278 11.3581722,25.6 11.8,25.6 L11.8,25.6 L14.2,25.6 C14.6418278,25.6 15,25.2418278 15,24.8 L15,24.8 L15,22.4 C15,21.9581722 14.6418278,21.6 14.2,21.6 L14.2,21.6 Z M7,15.2 L4.6,15.2 C4.1581722,15.2 3.8,15.5581722 3.8,16 L3.8,16 L3.8,18.4 C3.8,18.8418278 4.1581722,19.2 4.6,19.2 L4.6,19.2 L7,19.2 C7.4418278,19.2 7.8,18.8418278 7.8,18.4 L7.8,18.4 L7.8,16 C7.8,15.5581722 7.4418278,15.2 7,15.2 L7,15.2 Z M14.2,15.2 L11.8,15.2 C11.3581722,15.2 11,15.5581722 11,16 L11,16 L11,18.4 C11,18.8418278 11.3581722,19.2 11.8,19.2 L11.8,19.2 L14.2,19.2 C14.6418278,19.2 15,18.8418278 15,18.4 L15,18.4 L15,16 C15,15.5581722 14.6418278,15.2 14.2,15.2 L14.2,15.2 Z M9,3.2 C6.5699471,3.2 4.6,5.1699471 4.6,7.6 C4.6,10.0300529 6.5699471,12 9,12 C11.4300529,12 13.4,10.0300529 13.4,7.6 C13.4,5.1699471 11.4300529,3.2 9,3.2 Z" transform="translate(9)"/>
    <path fill="#378EFC" d="M17.24,10.32 L18.68,10.32 C18.8,10.32 18.92,10.2 18.92,10.08 L18.92,8.52 L20.48,8.52 C20.6,8.52 20.72,8.4 20.72,8.28 L20.72,6.84 C20.72,6.72 20.6,6.6 20.48,6.6 L18.92,6.6 L18.92,5.04 C18.92,4.92 18.8,4.8 18.68,4.8 L17.24,4.8 C17.12,4.8 17,4.92 17,5.04 L17,6.6 L15.44,6.6 C15.32,6.6 15.2,6.72 15.2,6.84 L15.2,8.28 C15.2,8.4 15.32,8.52 15.44,8.52 L17,8.52 L17,10.08 C17,10.2 17.12,10.32 17.24,10.32 Z"/>
    <path fill="#87BDFF" d="M34.4,6.4 C35.5045695,6.4 36.4,7.2954305 36.4,8.4 L36.4,35.6 L27.2,35.6 L27.2,6.4 L34.4,6.4 Z M33.2,21.2 L30.8,21.2 C30.3581722,21.2 30,21.5581722 30,22 L30,22 L30,24.4 C30,24.8418278 30.3581722,25.2 30.8,25.2 L30.8,25.2 L33.2,25.2 C33.6418278,25.2 34,24.8418278 34,24.4 L34,24.4 L34,22 C34,21.5581722 33.6418278,21.2 33.2,21.2 L33.2,21.2 Z M33.2,15.2 L30.8,15.2 C30.3581722,15.2 30,15.5581722 30,16 L30,16 L30,18.4 C30,18.8418278 30.3581722,19.2 30.8,19.2 L30.8,19.2 L33.2,19.2 C33.6418278,19.2 34,18.8418278 34,18.4 L34,18.4 L34,16 C34,15.5581722 33.6418278,15.2 33.2,15.2 L33.2,15.2 Z M33.2,9.2 L30.8,9.2 C30.3581722,9.2 30,9.5581722 30,10 L30,10 L30,12.4 C30,12.8418278 30.3581722,13.2 30.8,13.2 L30.8,13.2 L33.2,13.2 C33.6418278,13.2 34,12.8418278 34,12.4 L34,12.4 L34,10 C34,9.5581722 33.6418278,9.2 33.2,9.2 L33.2,9.2 Z"/>
    <path fill="#87BDFF" d="M7.6,6.4 C8.7045695,6.4 9.6,7.2954305 9.6,8.4 L9.6,35.6 L0.4,35.6 L0.4,6.4 L7.6,6.4 Z M6.4,21.2 L4,21.2 C3.5581722,21.2 3.2,21.5581722 3.2,22 L3.2,22 L3.2,24.4 C3.2,24.8418278 3.5581722,25.2 4,25.2 L4,25.2 L6.4,25.2 C6.8418278,25.2 7.2,24.8418278 7.2,24.4 L7.2,24.4 L7.2,22 C7.2,21.5581722 6.8418278,21.2 6.4,21.2 L6.4,21.2 Z M6.4,15.2 L4,15.2 C3.5581722,15.2 3.2,15.5581722 3.2,16 L3.2,16 L3.2,18.4 C3.2,18.8418278 3.5581722,19.2 4,19.2 L4,19.2 L6.4,19.2 C6.8418278,19.2 7.2,18.8418278 7.2,18.4 L7.2,18.4 L7.2,16 C7.2,15.5581722 6.8418278,15.2 6.4,15.2 L6.4,15.2 Z M6.4,9.2 L4,9.2 C3.5581722,9.2 3.2,9.5581722 3.2,10 L3.2,10 L3.2,12.4 C3.2,12.8418278 3.5581722,13.2 4,13.2 L4,13.2 L6.4,13.2 C6.8418278,13.2 7.2,12.8418278 7.2,12.4 L7.2,12.4 L7.2,10 C7.2,9.5581722 6.8418278,9.2 6.4,9.2 L6.4,9.2 Z" transform="matrix(-1 0 0 1 10 0)"/>
    <path fill="url(#ic_hospicash-a)" d="M24.6,0 C25.9254834,0 27,0.767511857 27,1.71428571 L27,0.714285714 L34,0.714285714 C35.1045695,0.714285714 36,1.35387893 36,2.14285714 L36,5 L27,5 L27,5 L22.5,5 L22.5,4.50401284 C22.5,4.18842156 22.1418278,3.93258427 21.7,3.93258427 L18,3.93258427 L18,5 L17.5909091,5 L17.5909091,3.93258427 L13.8909091,3.93258427 C13.483068,3.93258427 13.1465075,4.1505758 13.0971422,4.43233406 L13.0909091,4.50401284 L13.0909091,5 L9,5 L9,5 L0,5 L0,2.14285714 C0,1.35387893 0.8954305,0.714285714 2,0.714285714 L2,0.714285714 L9,0.714285714 L9,1.70571429 L9.00553687,1.59691519 C9.08997876,0.704885022 10.1297451,0 11.4,0 L24.6,0 Z M15.6154806,3.10674157 L12.3845193,3.10674157 C12.1721552,3.10674157 12,3.28280937 12,3.5 C12,3.6900418 12.1318063,3.84859893 12.3070253,3.88526881 L12.3845193,3.89325843 L15.6154806,3.89325843 C15.8278448,3.89325843 16,3.71719063 16,3.5 C16,3.28280937 15.8278448,3.10674157 15.6154806,3.10674157 Z M23.6154807,3.10674157 L20.3845194,3.10674157 C20.1721552,3.10674157 20,3.28280937 20,3.5 C20,3.6900418 20.1318063,3.84859893 20.3070254,3.88526881 L20.3845194,3.89325843 L23.6154807,3.89325843 C23.8278448,3.89325843 24,3.71719063 24,3.5 C24,3.28280937 23.8278448,3.10674157 23.6154807,3.10674157 Z M33.5799087,3.0890411 L30.4200913,3.0890411 C30.1880813,3.0890411 30,3.27303367 30,3.5 C30,3.69859555 30.1439997,3.8642893 30.3354283,3.90260968 L30.4200913,3.9109589 L33.5799087,3.9109589 C33.8119187,3.9109589 34,3.72696633 34,3.5 C34,3.27303367 33.8119187,3.0890411 33.5799087,3.0890411 Z M5.57990867,3.0890411 L2.42009132,3.0890411 C2.18808129,3.0890411 2,3.27303367 2,3.5 C2,3.72696633 2.18808129,3.9109589 2.42009132,3.9109589 L2.42009132,3.9109589 L5.57990867,3.9109589 L5.66457172,3.90260968 C5.85600025,3.8642893 6,3.69859555 6,3.5 C6,3.27303367 5.81191871,3.0890411 5.57990867,3.0890411 L5.57990867,3.0890411 Z M15.6154806,1.10674157 L12.3845193,1.10674157 C12.1721552,1.10674157 12,1.28280937 12,1.5 C12,1.6900418 12.1318063,1.84859894 12.3070253,1.88526882 L12.3845193,1.89325843 L15.6154806,1.89325843 C15.8278448,1.89325843 16,1.71719063 16,1.5 C16,1.28280937 15.8278448,1.10674157 15.6154806,1.10674157 Z M23.6154807,1.10674157 L20.3845194,1.10674157 C20.1721552,1.10674157 20,1.28280937 20,1.5 C20,1.6900418 20.1318063,1.84859894 20.3070254,1.88526882 L20.3845194,1.89325843 L23.6154807,1.89325843 C23.8278448,1.89325843 24,1.71719063 24,1.5 C24,1.28280937 23.8278448,1.10674157 23.6154807,1.10674157 Z M33.5799087,1.08904109 L30.4200913,1.08904109 C30.1880813,1.08904109 30,1.27303366 30,1.5 C30,1.69859554 30.1439997,1.86428929 30.3354283,1.90260967 L30.4200913,1.9109589 L33.5799087,1.9109589 C33.8119187,1.9109589 34,1.72696633 34,1.5 C34,1.27303366 33.8119187,1.08904109 33.5799087,1.08904109 Z M5.57990867,1.08904109 L2.42009132,1.08904109 C2.18808129,1.08904109 2,1.27303366 2,1.5 C2,1.72696633 2.18808129,1.9109589 2.42009132,1.9109589 L2.42009132,1.9109589 L5.57990867,1.9109589 L5.66457172,1.90260967 C5.85600025,1.86428929 6,1.69859554 6,1.5 C6,1.27303366 5.81191871,1.08904109 5.57990867,1.08904109 L5.57990867,1.08904109 Z M33.5799087,0.0890411 L30.4200913,0.0890411 C30.1880813,0.0890411 30,0.27303366 30,0.5 C30,0.69859554 30.1439997,0.8642893 30.3354283,0.90260968 L30.4200913,0.9109589 L33.5799087,0.9109589 C33.8119187,0.9109589 34,0.72696634 34,0.5 C34,0.27303366 33.8119187,0.0890411 33.5799087,0.0890411 Z M5.57990867,0.0890411 L2.42009132,0.0890411 C2.18808129,0.0890411 2,0.27303366 2,0.5 C2,0.72696634 2.18808129,0.9109589 2.42009132,0.9109589 L2.42009132,0.9109589 L5.57990867,0.9109589 L5.66457172,0.90260968 C5.85600025,0.8642893 6,0.69859554 6,0.5 C6,0.27303366 5.81191871,0.0890411 5.57990867,0.0890411 L5.57990867,0.0890411 Z M17.5,0 C15.0147186,0 13,0.223857624 13,0.5 C13,0.776142374 15.0147186,1 17.5,1 C19.9852814,1 22,0.776142374 22,0.5 C22,0.223857624 19.9852814,0 17.5,0 Z M18.7826087,0 C18.9130435,0 19.0434783,0.02173913 19.0434783,0.04347826 L19.0434783,0.04347826 L19.0434783,0.32608696 L20.7391304,0.32608696 C20.8695652,0.32608696 21,0.34782609 21,0.36956522 L21,0.36956522 L21,0.63043478 C21,0.65217391 20.8695652,0.67391304 20.7391304,0.67391304 L20.7391304,0.67391304 L19.0434783,0.67391304 L19.0434783,0.95652174 C19.0434783,0.97826087 18.9130435,1 18.7826087,1 L18.7826087,1 L17.2173913,1 C17.0869565,1 16.9565217,0.97826087 16.9565217,0.95652174 L16.9565217,0.95652174 L16.9565217,0.67391304 L15.2608696,0.67391304 C15.1304348,0.67391304 15,0.65217391 15,0.63043478 L15,0.63043478 L15,0.36956522 C15,0.34782609 15.1304348,0.32608696 15.2608696,0.32608696 L15.2608696,0.32608696 L16.9565217,0.32608696 L16.9565217,0.04347826 C16.9565217,0.02173913 17.0869565,0 17.2173913,0 L17.2173913,0 L18.7826087,0 Z" transform="matrix(1 0 0 -1 0 40)"/>
  </g>
</svg>
