<svg xmlns="http://www.w3.org/2000/svg" xmlns:xlink="http://www.w3.org/1999/xlink" width="80" height="60" viewBox="0 0 80 60">
  <defs>
    <rect id="ic_input-a" width="80" height="60" x="0" y="0" rx="3"/>
  </defs>
  <g fill="none" fill-rule="evenodd">
    <mask id="ic_input-b" fill="#fff">
      <use xlink:href="#ic_input-a"/>
    </mask>
    <use fill="#FFF" fill-rule="nonzero" xlink:href="#ic_input-a"/>
    <path fill="#4F2DA7" fill-rule="nonzero" d="M67.9746153,23.404 C76.2246153,23.404 90.4746153,23.404 93.4746153,15.154 C96.4746153,6.9040001 71.5310669,7.38787107 65.7246153,1.58141946 C59.9181637,-4.22503216 50.5559965,-3.5959999 41.7246153,-3.5959999 C32.8932341,-3.5959999 34.5667107,-13.3295859 27.4746153,-11.846 C20.38252,-10.362414 26.7246153,-2.92808517 24.4746153,1.58141946 C24.4746153,4.38395363 24.4746153,11.6581471 24.4746153,23.404 C44.2246153,23.404 58.7246153,23.404 67.9746153,23.404 Z" mask="url(#ic_input-b)" opacity=".05" transform="rotate(180 58.862 5.702)"/>
    <path fill="#4F2DA7" fill-rule="nonzero" d="M10.2856144,59.675161 C39.7333474,49.2048559 52.8212288,72.7630423 52.8212288,59.675161 C52.8212288,46.5872797 37.1157711,40.043339 29.2630423,32.1906102 C21.4103136,24.3378814 24.8468778,11.25 12.9031907,11.25 C0.959503549,11.25 6.97679534,18.5865724 -6.07423726,24.3378814 C-19.12527,30.0891903 -19.1621186,70.1454661 10.2856144,59.675161 Z" mask="url(#ic_input-b)" opacity=".05"/>
    <path fill="#4F2DA7" fill-rule="nonzero" d="M59.0353844,45.425161 C88.4831174,34.9548559 101.570999,58.5130423 101.570999,45.425161 C101.570999,32.3372797 85.8655411,25.793339 78.0128123,17.9406102 C70.1600836,10.0878814 73.5966478,-3 61.6529607,-3 C49.7092735,-3 55.7265653,4.33657244 42.6755327,10.0878814 C29.6245,15.8391903 16.49977,0.926364402 16.49977,17.9406102 C16.49977,34.9548559 29.5876514,55.8954661 59.0353844,45.425161 Z" mask="url(#ic_input-b)" opacity=".05" transform="matrix(-1 0 0 1 118.07 0)"/>
    <path fill="#4F2DA7" fill-rule="nonzero" d="M12.2770509,25.6172581 C13.3358744,25.1112028 14.4206495,24.5272927 15.3756668,23.8421716 C15.7260128,23.5904415 15.3808571,23.0999571 15.012345,23.2945938 C13.9924488,23.8291958 12.995909,24.5195073 12.0876045,25.2227945 C11.9007533,25.3629329 12.0357014,25.731445 12.2770509,25.6172581 L12.2770509,25.6172581 Z M16.1967024,4.74397584 C16.1759412,4.72580975 16.1577751,4.70764366 16.1370138,4.69207273 C15.8749031,4.45850871 15.4441072,4.41439107 15.189782,4.69207273 C14.9328616,4.97234954 14.940647,5.35902774 15.189782,5.63930456 C15.2079481,5.66006581 15.2261142,5.6782319 15.2416851,5.69899314 C15.4752491,5.96369902 15.9605432,5.95591356 16.1967024,5.69899314 C16.4302664,5.44207273 16.4769792,4.99311079 16.1967024,4.74397584 L16.1967024,4.74397584 Z M76.5064484,8.82141525 C76.5722606,8.39206882 76.5597249,7.98465979 76.7979025,7.60545601 C77.2773916,6.85331628 77.9574513,7.04135121 78.6155735,7.37354626 C79.2862315,7.71200914 79.9192824,7.91257974 80.6463508,7.59918818 C81.7839622,7.10716344 82.3198617,5.38977771 81.232393,4.58122749 C80.8813945,4.31797858 80.5335299,4.75045893 80.5805386,5.08265398 C80.6463508,5.54333957 80.8751267,6.05416781 80.4802533,6.44904117 C79.9506216,6.9786729 79.3301063,6.53365689 78.8004746,6.29547931 C78.2301019,6.03849823 77.6221223,5.98208775 77.0360801,6.22026533 C76.0238254,6.63080827 75.2873552,8.00346329 76.0927715,8.93110229 C76.2055925,9.05959283 76.4782431,9.00004844 76.5064484,8.82141525 L76.5064484,8.82141525 Z M64.7650465,52.2428221 C63.7245991,53.2418174 63.3308043,54.7962706 64.3215091,55.9983811 C65.2541811,57.1300231 67.0656373,57.3663 68.2304409,56.4667897 C71.0491828,54.2905551 68.1102299,50.2821384 65.0717919,51.1111801 C64.5080435,51.2645528 64.6489806,52.0687233 65.2044386,52.0977398 C66.0915132,52.1474823 67.0449112,52.1806439 67.7537419,52.8065704 C68.5164603,53.473949 68.5330411,54.605591 67.9071146,55.3765998 C66.2490312,57.4118973 63.3722564,54.4149114 65.113244,52.5910196 C65.3370853,52.3630331 64.9971782,52.023126 64.7650465,52.2428221 L64.7650465,52.2428221 Z M3.75726804,45.6141129 C4.08196141,46.8211253 4.43841827,48.0140205 4.81252151,49.2069157 C4.9007534,49.4927871 5.17250764,49.5845482 5.41955695,49.415143 C6.3901078,48.7551684 7.35712937,48.1093109 8.27827036,47.3787508 C8.45473415,47.2375798 8.41591212,46.9552377 8.2429776,46.8352424 C7.16654848,46.0976237 5.71601612,45.0070775 4.35018637,44.9999628 C4.00431734,44.9964897 3.76079731,45.487059 4.1137249,45.6882277 C4.66429192,46.0058626 5.3242665,46.1187994 5.91365556,46.3623194 C6.59127652,46.6446615 7.2653682,46.9764134 7.86534509,47.4034558 C7.87946219,47.2058163 7.8935793,47.0081769 7.90416712,46.8105374 C6.87714786,47.4422778 5.91012629,48.1516622 4.93604616,48.8575174 C5.12662705,48.8963394 5.32073722,48.9351615 5.51131812,48.9739835 C5.09486357,47.7952054 4.6678212,46.6270151 4.20548607,45.4658834 C4.10666634,45.2223633 3.6902118,45.3564758 3.75726804,45.6141129 L3.75726804,45.6141129 Z" mask="url(#ic_input-b)" opacity=".05"/>
    <g mask="url(#ic_input-b)">
      <g transform="translate(20 16)">
        <path fill="#FFF" stroke="#4F2DA7" d="M39,0.5 L1,0.5 C0.723857625,0.5 0.5,0.723857625 0.5,1 L0.5,9 C0.5,9.27614237 0.723857625,9.5 1,9.5 L39,9.5 C39.2761424,9.5 39.5,9.27614237 39.5,9 L39.5,1 C39.5,0.723857625 39.2761424,0.5 39,0.5 Z"/>
        <path fill="#4F2DA7" d="M3.9580292,2 L3.0419708,2 C3.01916058,2 3,2.10218978 3,2.22384428 L3,6.77615572 C3,6.89781022 3.01916058,7 3.0419708,7 L3.9580292,7 C3.98083942,7 4,6.89781022 4,6.77615572 L4,2.22384428 C4,2.10218978 3.98083942,2 3.9580292,2 Z"/>
        <path fill="#BA8EE0" d="M36.5310219,8 L3.4689781,8 C2.67062044,8 2,8.61313869 2,9.34306569 L2,26.6569343 C2,27.3868613 2.67062044,28 3.4689781,28 L36.5310219,28 C37.3293796,28 38,27.3868613 38,26.6569343 L38,9.34306569 C38,8.61313869 37.3293796,8 36.5310219,8 Z"/>
        <path fill="#EDDEFF" d="M33.9702857,26 L6,26 C4.8954305,26 4,25.1045695 4,24 L4,12 C4,10.8954305 4.8954305,10 6,10 L33.9957512,10 C35.1003207,10 35.9957512,10.8954305 35.9957512,12 C35.9957512,12.0014147 35.9957497,12.0028295 35.9957467,12.0042442 L35.9702812,24.0042442 C35.9679407,25.1071541 35.0731981,26 33.9702857,26 Z"/>
        <path fill="#BA8EE0" d="M32.1208791 15L32.8791209 15C33.4725275 15 34 14.4725275 34 13.8791209L34 13.1208791C34 12.5274725 33.4725275 12 32.8791209 12L32.1208791 12C31.5274725 12 31 12.5274725 31 13.1208791L31 13.8791209C31 14.4725275 31.5274725 15 32.1208791 15zM32.1208791 23L32.8791209 23C33.4725275 23 34 22.4725275 34 21.8791209L34 21.1208791C34 20.5274725 33.4725275 20 32.8791209 20L32.1208791 20C31.5274725 20 31 20.5274725 31 21.1208791L31 21.8791209C31 22.4725275 31.5274725 23 32.1208791 23zM32.1208791 19L32.8791209 19C33.4725275 19 34 18.4725275 34 17.8791209L34 17.1208791C34 16.5274725 33.4725275 16 32.8791209 16L32.1208791 16C31.5274725 16 31 16.5274725 31 17.1208791L31 17.8791209C31 18.4725275 31.5274725 19 32.1208791 19zM24.1208791 15L24.8791209 15C25.4725275 15 26 14.4725275 26 13.8791209L26 13.1208791C26 12.5274725 25.4725275 12 24.8791209 12L24.1208791 12C23.5274725 12 23 12.5274725 23 13.1208791L23 13.8791209C23 14.4725275 23.5274725 15 24.1208791 15zM20.1208791 15L20.8791209 15C21.4725275 15 22 14.4725275 22 13.8791209L22 13.1208791C22 12.5274725 21.4725275 12 20.8791209 12L20.1208791 12C19.5274725 12 19 12.5274725 19 13.1208791L19 13.8791209C19 14.4725275 19.5274725 15 20.1208791 15zM20.1208791 19L20.8791209 19C21.4725275 19 22 18.4725275 22 17.8791209L22 17.1208791C22 16.5274725 21.4725275 16 20.8791209 16L20.1208791 16C19.5274725 16 19 16.5274725 19 17.1208791L19 17.8791209C19 18.4725275 19.5274725 19 20.1208791 19zM24.1208791 19L24.8791209 19C25.4725275 19 26 18.4725275 26 17.8791209L26 17.1208791C26 16.5274725 25.4725275 16 24.8791209 16L24.1208791 16C23.5274725 16 23 16.5274725 23 17.1208791L23 17.8791209C23 18.4725275 23.5274725 19 24.1208791 19zM28.1208791 15L28.8791209 15C29.4725275 15 30 14.4725275 30 13.8791209L30 13.1208791C30 12.5274725 29.4725275 12 28.8791209 12L28.1208791 12C27.5274725 12 27 12.5274725 27 13.1208791L27 13.8791209C27 14.4725275 27.5274725 15 28.1208791 15zM28.1208791 23L28.8791209 23C29.4725275 23 30 22.4725275 30 21.8791209L30 21.1208791C30 20.5274725 29.4725275 20 28.8791209 20L28.1208791 20C27.5274725 20 27 20.5274725 27 21.1208791L27 21.8791209C27 22.4725275 27.5274725 23 28.1208791 23zM28.1208791 19L28.8791209 19C29.4725275 19 30 18.4725275 30 17.8791209L30 17.1208791C30 16.5274725 29.4725275 16 28.8791209 16L28.1208791 16C27.5274725 16 27 16.5274725 27 17.1208791L27 17.8791209C27 18.4725275 27.5274725 19 28.1208791 19zM16.1208791 15L16.8791209 15C17.4725275 15 18 14.4725275 18 13.8791209L18 13.1208791C18 12.5274725 17.4725275 12 16.8791209 12L16.1208791 12C15.5274725 12 15 12.5274725 15 13.1208791L15 13.8791209C15 14.4725275 15.5274725 15 16.1208791 15zM8.12087912 15L8.87912088 15C9.47252747 15 10 14.4725275 10 13.8791209L10 13.1208791C10 12.5274725 9.47252747 12 8.87912088 12L8.12087912 12C7.52747253 12 7 12.5274725 7 13.1208791L7 13.8791209C7 14.4725275 7.52747253 15 8.12087912 15zM8.12087912 23L8.87912088 23C9.47252747 23 10 22.4725275 10 21.8791209L10 21.1208791C10 20.5274725 9.47252747 20 8.87912088 20L8.12087912 20C7.52747253 20 7 20.5274725 7 21.1208791L7 21.8791209C7 22.4725275 7.52747253 23 8.12087912 23zM8.12087912 19L8.87912088 19C9.47252747 19 10 18.4725275 10 17.8791209L10 17.1208791C10 16.5274725 9.47252747 16 8.87912088 16L8.12087912 16C7.52747253 16 7 16.5274725 7 17.1208791L7 17.8791209C7 18.4725275 7.52747253 19 8.12087912 19zM12.1208791 15L12.8791209 15C13.4725275 15 14 14.4725275 14 13.8791209L14 13.1208791C14 12.5274725 13.4725275 12 12.8791209 12L12.1208791 12C11.5274725 12 11 12.5274725 11 13.1208791L11 13.8791209C11 14.4725275 11.5274725 15 12.1208791 15zM12.0559006 23L24.9440994 23C25.5031056 23 26 22.4725275 26 21.8791209L26 21.1208791C26 20.5274725 25.5031056 20 24.9440994 20L12.0559006 20C11.4968944 20 11 20.5274725 11 21.1208791L11 21.8791209C11 22.4725275 11.4968944 23 12.0559006 23zM16.1208791 19L16.8791209 19C17.4725275 19 18 18.4725275 18 17.8791209L18 17.1208791C18 16.5274725 17.4725275 16 16.8791209 16L16.1208791 16C15.5274725 16 15 16.5274725 15 17.1208791L15 17.8791209C15 18.4725275 15.5274725 19 16.1208791 19zM12.1208791 19L12.8791209 19C13.4725275 19 14 18.4725275 14 17.8791209L14 17.1208791C14 16.5274725 13.4725275 16 12.8791209 16L12.1208791 16C11.5274725 16 11 16.5274725 11 17.1208791L11 17.8791209C11 18.4725275 11.5274725 19 12.1208791 19z"/>
      </g>
    </g>
  </g>
</svg>
