<svg xmlns="http://www.w3.org/2000/svg" width="11" height="9" viewBox="0 0 11 9">
  <path fill="#35CB5D" d="M8.09231565,0.210632252 C8.25215119,-0.0145503647 8.56427008,-0.0675246356 8.7894527,0.0923109062 C10.1482834,1.0568145 11.0000448,2.70566555 11.0000448,4.48690724 C11.0000448,6.30109977 10.1552483,7.96059989 8.78498626,8.91090309 C8.55807289,9.06827188 8.24655066,9.01189487 8.08918186,8.78498151 C7.93181307,8.55806815 7.98819008,8.24654591 8.21510344,8.08917712 C9.31240078,7.32818023 10.0000448,5.977387 10.0000448,4.48690724 C10.0000448,3.02968944 9.30527747,1.68474958 8.210637,0.907769297 C7.98545438,0.747933755 7.93248011,0.435814869 8.09231565,0.210632252 Z M2.9077292,0.210632252 C3.06756474,0.435814869 3.01459047,0.747933755 2.78940785,0.907769297 C1.69476738,1.68474958 1,3.02968944 1,4.48690724 C1,5.977387 1.68764406,7.32818023 2.78494141,8.08917712 C3.01185477,8.24654591 3.06823178,8.55806815 2.91086299,8.78498151 C2.75349419,9.01189487 2.44197195,9.06827188 2.21505859,8.91090309 C0.844796513,7.96059989 6.21724894e-15,6.30109977 6.21724894e-15,4.48690724 C6.21724894e-15,2.70566555 0.851761441,1.0568145 2.21059215,0.0923109062 C2.43577477,-0.0675246356 2.74789365,-0.0145503647 2.9077292,0.210632252 Z M7.09231565,2.21063225 C7.25215119,1.98544964 7.56427008,1.93247536 7.7894527,2.09231091 C8.53491561,2.62144353 9.00004485,3.52184685 9.00004485,4.49347367 C9.00004485,5.48149813 8.53835848,6.38842491 7.78498626,6.91090309 C7.55807289,7.06827188 7.24655066,7.01189487 7.08918186,6.78498151 C6.93181307,6.55806815 6.98819008,6.24654591 7.21510344,6.08917712 C7.69551093,5.75600525 8.00004485,5.15778536 8.00004485,4.49347367 C8.00004485,3.84587075 7.69190968,3.24937861 7.210637,2.9077693 C6.98545438,2.74793375 6.93248011,2.43581487 7.09231565,2.21063225 Z M3.9077292,2.21063225 C4.06756474,2.43581487 4.01459047,2.74793375 3.78940785,2.9077693 C3.30813517,3.24937861 3,3.84587075 3,4.49347367 C3,5.15778536 3.30453392,5.75600525 3.78494141,6.08917712 C4.01185477,6.24654591 4.06823178,6.55806815 3.91086299,6.78498151 C3.75349419,7.01189487 3.44197195,7.06827188 3.21505859,6.91090309 C2.46168637,6.38842491 2,5.48149813 2,4.49347367 C2,3.52184685 2.46512924,2.62144353 3.21059215,2.09231091 C3.43577477,1.93247536 3.74789365,1.98544964 3.9077292,2.21063225 Z M5.5,3.5000401 C6.05228475,3.5000401 6.5,3.94775535 6.5,4.5000401 C6.5,5.05232485 6.05228475,5.5000401 5.5,5.5000401 C4.94771525,5.5000401 4.5,5.05232485 4.5,4.5000401 C4.5,3.94775535 4.94771525,3.5000401 5.5,3.5000401 Z"/>
</svg>
