<svg xmlns="http://www.w3.org/2000/svg" xmlns:xlink="http://www.w3.org/1999/xlink" width="80" height="60" viewBox="0 0 80 60">
  <defs>
    <rect id="ic_pa_b3-a" width="80" height="60" x="0" y="0" rx="3"/>
  </defs>
  <g fill="none" fill-rule="evenodd">
    <mask id="ic_pa_b3-b" fill="#fff">
      <use xlink:href="#ic_pa_b3-a"/>
    </mask>
    <use fill="#FFF" xlink:href="#ic_pa_b3-a"/>
    <path fill="#4F2DA7" fill-rule="nonzero" d="M67.9745113,23.403866 C76.2245113,23.403866 90.4745113,23.403866 93.4745113,15.153866 C96.4745113,6.90386604 71.5309629,7.38773701 65.7245113,1.5812854 C59.9180597,-4.22516622 50.5558925,-3.59613396 41.7245113,-3.59613396 C32.8931301,-3.59613396 34.5666067,-13.3297199 27.4745113,-11.846134 C20.382416,-10.362548 26.7245113,-2.92821923 24.4745113,1.5812854 C24.4745113,4.38381957 24.4745113,11.6580131 24.4745113,23.403866 C44.2245113,23.403866 58.7245113,23.403866 67.9745113,23.403866 Z" mask="url(#ic_pa_b3-b)" opacity=".05" transform="rotate(180 58.862 5.702)"/>
    <path fill="#4F2DA7" fill-rule="nonzero" d="M10.2856144,59.675161 C39.7333474,49.2048559 52.8212288,72.7630423 52.8212288,59.675161 C52.8212288,46.5872797 37.1157711,40.043339 29.2630423,32.1906102 C21.4103136,24.3378814 24.8468778,11.25 12.9031907,11.25 C0.959503549,11.25 6.97679534,18.5865724 -6.07423726,24.3378814 C-19.12527,30.0891903 -19.1621186,70.1454661 10.2856144,59.675161 Z" mask="url(#ic_pa_b3-b)" opacity=".05"/>
    <path fill="#4F2DA7" fill-rule="nonzero" d="M59.0356144,45.425161 C88.4833474,34.9548559 101.571229,58.5130423 101.571229,45.425161 C101.571229,32.3372797 85.8657711,25.793339 78.0130423,17.9406102 C70.1603136,10.0878814 73.5968778,-3 61.6531907,-3 C49.7095035,-3 55.7267953,4.33657244 42.6757627,10.0878814 C29.62473,15.8391903 16.5,0.926364402 16.5,17.9406102 C16.5,34.9548559 29.5878814,55.8954661 59.0356144,45.425161 Z" mask="url(#ic_pa_b3-b)" opacity=".05" transform="matrix(-1 0 0 1 118.071 0)"/>
    <g fill-rule="nonzero" mask="url(#ic_pa_b3-b)">
      <g transform="translate(21 14)">
        <circle cx="27.662" cy="5.763" r="3.589" fill="#BA8EE0" transform="rotate(-62.917 27.662 5.763)"/>
        <path fill="#BA8EE0" d="M36.5122838,7.94091062 C35.8491926,7.27781945 34.7960478,7.31682481 34.1329567,7.97991599 L32.2216939,9.93018415 C31.3245705,10.8663129 30.0373935,11.2953719 28.7502165,11.1783558 C28.1261307,11.100345 27.5800556,10.9443236 27.0339806,10.6712861 L24.186589,9.22808761 C23.640514,8.95505007 23.1724496,8.6040018 22.7433906,8.13593744 C21.8462672,7.19980872 21.4562136,5.91263174 21.6512404,4.62545475 L22.0802994,1.93408469 C22.2363209,0.997955968 21.5732297,0.139837976 20.6761063,0.0228218868 C19.7399776,-0.133199566 18.8818596,0.529891609 18.7648436,1.42701496 L18.3357846,4.11838503 C17.9847363,6.45870682 18.6868328,8.76002325 20.3250581,10.4762592 C20.5200849,10.6712861 20.7541171,10.8663129 20.9491439,11.0223343 L17.9847363,16.9121442 C17.9067256,17.0291603 17.8677202,17.1461763 17.8287148,17.2631924 L16.77557,21.1247234 L11.4708406,20.7346698 C10.3786905,20.656659 9.44256174,21.4757717 9.36455101,22.5679218 C9.28654028,23.660072 10.1056529,24.5962007 11.1978031,24.6742115 L18.1017524,25.1422758 C18.1407577,25.1422758 18.1797631,25.1422758 18.2187685,25.1422758 C19.1158918,25.1422758 19.8959991,24.5571954 20.1300313,23.6990774 L20.9101385,20.7736751 L24.186589,24.7912275 L23.2504603,29.6278926 C23.0164281,30.6810374 23.7185247,31.7341822 24.8106749,31.929209 C24.9276909,31.9682144 25.0837124,31.9682144 25.2007285,31.9682144 C26.1368572,31.9682144 26.9559698,31.3051232 27.1119913,30.3689945 L28.2821522,24.6352061 C28.3991683,24.0501256 28.2431468,23.4650452 27.8920985,22.9969808 L24.9666963,19.4864981 L27.5410503,14.2987848 C27.8140878,14.3767956 28.0871254,14.4548063 28.3601629,14.4548063 C28.6332004,14.4938116 28.9452434,14.4938116 29.2182809,14.4938116 C31.2465598,14.4938116 33.1578226,13.674699 34.601021,12.2315006 L36.5122838,10.2812324 C37.175375,9.65714661 37.175375,8.6040018 36.5122838,7.94091062 Z"/>
        <path fill="#6D00BC" d="M10.8467548,13.2846454 C11.5488514,14.5718224 12.1339318,16.3660691 11.938905,17.8872782 C11.8998996,18.3163372 12.3289586,18.6283802 12.7190122,18.394348 C17.4386612,15.5859618 16.0734735,8.44798035 13.6161356,4.66446011 C13.2650873,4.11838503 12.4849801,4.23540112 12.2899533,4.85948693 C11.938905,5.99064246 11.3538245,7.00478191 10.7687441,7.51185163 C10.6127226,7.62886772 10.4176958,7.55085699 10.4176958,7.35583018 C10.3786905,6.38069609 9.94963146,3.80634212 6.63417558,1.58303642 C6.0881005,1.23198815 5.38600396,1.70005251 5.50302005,2.32413832 C5.97108441,4.85948693 4.87893424,7.39483554 4.44987524,8.21394817 C4.37186452,8.36996962 4.1768377,8.36996962 4.05982161,8.25295353 C3.70877334,7.8628999 3.4357358,7.31682481 3.24070898,6.80975509 C3.04568217,6.22467464 2.22656954,6.14666392 1.91452663,6.65373364 C0.120279923,9.61814124 -1.63496142,15.8980047 2.73363926,18.4333533 C3.08468753,18.6283802 3.51374652,18.394348 3.51374652,18.0042943 C3.51374652,17.3021978 3.82578943,16.6001013 4.05982161,16.1320369 C4.72291279,14.961876 6.36113804,13.24564 6.79019704,11.3343772 C6.86820776,11.0223343 7.2582614,10.9053182 7.49229357,11.100345 C8.50643302,12.0754791 8.81847593,13.1286239 8.85748129,14.3767956 C8.85748129,14.5718224 9.09151347,14.6498331 9.20852956,14.532817 C9.52057246,14.2597795 9.83261537,13.7917151 10.0276422,13.2846454 C10.1836636,13.0116078 10.651728,12.9726025 10.8467548,13.2846454 Z"/>
      </g>
    </g>
    <g fill="#B392DB" fill-rule="nonzero" mask="url(#ic_pa_b3-b)">
      <path d="M25.4505528,37.3555779 C24.1557789,41.8512563 20.0112563,45.1528643 15.1042211,45.1528643 C9.16190955,45.1528643 4.32944724,40.320201 4.32944724,34.3796985 C4.32944724,29.9823116 6.98231156,26.1974874 10.7682412,24.5250251 L10.7682412,19.9577889 C4.56824121,21.8252261 0.0381909548,27.580603 0.0381909548,34.3796985 C0.0381909548,42.6861307 6.79668342,49.4447236 15.1041206,49.4447236 C21.158191,49.4447236 26.3763819,45.8466332 28.7690452,40.6840201 L27.0679397,37.341809 C26.5904523,37.3457286 26.0372864,37.3507538 25.4505528,37.3555779 Z" transform="translate(78 -44)"/>
    </g>
    <path fill="#3792FC" fill-rule="nonzero" d="M12.2770509 25.6172581C13.3358744 25.1112028 14.4206495 24.5272927 15.3756668 23.8421716 15.7260128 23.5904415 15.3808571 23.0999571 15.012345 23.2945938 13.9924488 23.8291958 12.995909 24.5195073 12.0876045 25.2227945 11.9007533 25.3629329 12.0357014 25.731445 12.2770509 25.6172581L12.2770509 25.6172581zM16.1967024 4.74397584C16.1759412 4.72580975 16.1577751 4.70764366 16.1370138 4.69207273 15.8749031 4.45850871 15.4441072 4.41439107 15.189782 4.69207273 14.9328616 4.97234954 14.940647 5.35902774 15.189782 5.63930456 15.2079481 5.66006581 15.2261142 5.6782319 15.2416851 5.69899314 15.4752491 5.96369902 15.9605432 5.95591356 16.1967024 5.69899314 16.4302664 5.44207273 16.4769792 4.99311079 16.1967024 4.74397584L16.1967024 4.74397584zM76.5064484 8.82141525C76.5722606 8.39206882 76.5597249 7.98465979 76.7979025 7.60545601 77.2773916 6.85331628 77.9574513 7.04135121 78.6155735 7.37354626 79.2862315 7.71200914 79.9192824 7.91257974 80.6463508 7.59918818 81.7839622 7.10716344 82.3198617 5.38977771 81.232393 4.58122749 80.8813945 4.31797858 80.5335299 4.75045893 80.5805386 5.08265398 80.6463508 5.54333957 80.8751267 6.05416781 80.4802533 6.44904117 79.9506216 6.9786729 79.3301063 6.53365689 78.8004746 6.29547931 78.2301019 6.03849823 77.6221223 5.98208775 77.0360801 6.22026533 76.0238254 6.63080827 75.2873552 8.00346329 76.0927715 8.93110229 76.2055925 9.05959283 76.4782431 9.00004844 76.5064484 8.82141525L76.5064484 8.82141525zM64.7650465 52.2428221C63.7245991 53.2418174 63.3308043 54.7962706 64.3215091 55.9983811 65.2541811 57.1300231 67.0656373 57.3663 68.2304409 56.4667897 71.0491828 54.2905551 68.1102299 50.2821384 65.0717919 51.1111801 64.5080435 51.2645528 64.6489806 52.0687233 65.2044386 52.0977398 66.0915132 52.1474823 67.0449112 52.1806439 67.7537419 52.8065704 68.5164603 53.473949 68.5330411 54.605591 67.9071146 55.3765998 66.2490312 57.4118973 63.3722564 54.4149114 65.113244 52.5910196 65.3370853 52.3630331 64.9971782 52.023126 64.7650465 52.2428221L64.7650465 52.2428221zM3.75726804 45.6141129C4.08196141 46.8211253 4.43841827 48.0140205 4.81252151 49.2069157 4.9007534 49.4927871 5.17250764 49.5845482 5.41955695 49.415143 6.3901078 48.7551684 7.35712937 48.1093109 8.27827036 47.3787508 8.45473415 47.2375798 8.41591212 46.9552377 8.2429776 46.8352424 7.16654848 46.0976237 5.71601612 45.0070775 4.35018637 45 4.00431734 44.9964897 3.76079731 45.487059 4.1137249 45.6882277 4.66429192 46.0058626 5.3242665 46.1187994 5.91365556 46.3623194 6.59127652 46.6446615 7.2653682 46.9764134 7.86534509 47.4034558 7.87946219 47.2058163 7.8935793 47.0081769 7.90416712 46.8105374 6.87714786 47.4422778 5.91012629 48.1516622 4.93604616 48.8575174 5.12662705 48.8963394 5.32073722 48.9351615 5.51131812 48.9739835 5.09486357 47.7952054 4.6678212 46.6270151 4.20548607 45.4658834 4.10666634 45.2223633 3.6902118 45.3564758 3.75726804 45.6141129L3.75726804 45.6141129z" mask="url(#ic_pa_b3-b)" opacity=".05"/>
  </g>
</svg>
