<svg xmlns="http://www.w3.org/2000/svg" xmlns:xlink="http://www.w3.org/1999/xlink" width="80" height="60" viewBox="0 0 80 60">
  <defs>
    <rect id="ic_pa_b1-a" width="80" height="60" x="0" y="0" rx="3"/>
  </defs>
  <g fill="none" fill-rule="evenodd">
    <mask id="ic_pa_b1-b" fill="#fff">
      <use xlink:href="#ic_pa_b1-a"/>
    </mask>
    <use fill="#FFF" xlink:href="#ic_pa_b1-a"/>
    <g mask="url(#ic_pa_b1-b)">
      <g transform="translate(25 12)">
        <g fill-rule="nonzero" transform="translate(0 6.196)">
          <circle cx="9.37" cy="3.009" r="3.009" fill="#B392DB"/>
          <path fill="#B392DB" d="M12.4607609 6.83902174L9.37043478 6.83902174 6.28043478 6.83902174C5.90217391 6.83902174 5.55065217 6.94923913 5.25293478 7.13706522 6.35217391 7.63956522 7.11945652 8.74728261 7.11945652 10.0333696 7.11945652 10.7253261 6.8951087 11.3647826 6.51847826 11.8881522 7.68847826 12.0446739 8.59434783 13.0470652 8.59434783 14.2594565L8.59434783 19.3773913C8.59434783 20.0002174 8.355 20.5848913 7.94021739 21.0225L8.47467391 23.6351087 8.49456522 23.7326087 8.49456522 23.8317391C8.49456522 24.8204348 7.77684783 25.6454348 6.83478261 25.8101087L6.83478261 28.2551087C6.83478261 28.278587 6.83184783 28.3017391 6.83119565 28.3245652 7.0275 28.9173913 7.57923913 29.3478261 8.23826087 29.3478261L10.5022826 29.3478261C11.3256522 29.3478261 11.9918478 28.6803261 11.9918478 27.8582609L11.9918478 17.6820652 12.461087 17.6820652C13.5277174 17.6820652 14.3928262 16.8166304 14.3928262 15.75L14.3928262 8.77043478C14.3931522 7.70347826 13.5280435 6.83902174 12.4607609 6.83902174zM21.0446739 6.01891304C22.7077174 6.01891304 24.0541304 4.67119565 24.0541304 3.00945652 24.0541304 1.34836957 22.7077174 0 21.0446739 0 19.3829348 0 18.0358696 1.34836957 18.0358696 3.00945652 18.0361957 4.67119565 19.3829348 6.01891304 21.0446739 6.01891304zM23.1642391 21.6857609C22.1504348 21.4072826 21.4040217 20.4769565 21.4040217 19.376087L21.4040217 14.2578261C21.4040217 13.046087 22.3098913 12.0440217 23.4802174 11.8871739 23.103913 11.3641304 22.8795652 10.725 22.8795652 10.0327174 22.8795652 8.65532609 23.7596739 7.48336957 24.986413 7.03956522 24.7291304 6.91271739 24.4402174 6.83967391 24.1336957 6.83967391L17.9533696 6.83967391C16.8870652 6.83967391 16.0229348 7.70445652 16.0229348 8.77173913L16.0229348 15.7509783C16.0229348 16.4921739 16.4406522 17.1348913 17.0533696 17.4583696L16.1605435 21.825C16.1605435 22.601413 16.7908696 23.2301087 17.5669565 23.2301087L18.4229348 23.2301087 18.4229348 27.8576087C18.4229348 28.68 19.0897826 29.3475 19.9115217 29.3475L22.1755435 29.3475C22.6036957 29.3475 22.9871739 29.163913 23.2588043 28.8746739 23.1975 28.6783696 23.163913 28.4709783 23.163913 28.2551087L23.163913 21.6857609 23.1642391 21.6857609z"/>
          <path fill="#6107B5" d="M28.331413 12.8416304L27.5647826 12.8416304 26.0651087 12.8416304 24.5644565 12.8416304 23.7981522 12.8416304C23.0158696 12.8416304 22.3809783 13.4752174 22.3809783 14.2578261L22.3809783 19.376087C22.3809783 20.1580435 23.0152174 20.7932609 23.7975 20.7932609L24.1418478 20.7932609 24.1418478 23.2307609 24.1418478 28.2557609C24.1418478 28.8590217 24.6303261 29.3484783 25.2345652 29.3484783L26.895 29.3484783C27.498913 29.3484783 27.9873913 28.8590217 27.9873913 28.2557609L27.9873913 20.7932609 28.3320652 20.7932609C29.1133696 20.7932609 29.748587 20.1590217 29.748587 19.376087L29.748587 14.2578261C29.748587 13.4752174 29.1133696 12.8416304 28.331413 12.8416304zM23.8578261 10.0330435C23.8578261 10.7947826 24.2445652 11.4665217 24.8315217 11.8633696 25.1836957 12.101087 25.6082609 12.24 26.0651087 12.24 26.5213043 12.24 26.9458696 12.101087 27.2980435 11.8633696 27.8853261 11.4665217 28.2714131 10.7947826 28.2714131 10.0330435 28.2717391 8.81413043 27.2833696 7.82608696 26.0647826 7.82608696 25.983913 7.82608696 25.9043478 7.83130435 25.8254348 7.83945652 24.7196739 7.95913043 23.8578261 8.89467391 23.8578261 10.0330435zM7.51597826 23.831087L6.86119565 20.6295652C7.31021739 20.3918478 7.61576087 19.9206522 7.61576087 19.3773913L7.61576087 14.2594565C7.61576087 13.4768478 6.98282609 12.8422826 6.19923913 12.8422826L5.4326087 12.8422826 4.34869565 12.8422826 2.43586957 12.8422826 1.66728261 12.8422826C.885326087 12.8422826.251413043 13.4765217.251413043 14.2594565L.251413043 19.3773913C.251413043 19.9209783.557608696 20.3921739 1.00663043 20.6295652L.352173913 23.831087C.352173913 24.4007609.814565217 24.8618478 1.38326087 24.8618478L2.01130435 24.8618478 2.01130435 28.2547826C2.01130435 28.8583696 2.50043478 29.3478261 3.10369565 29.3478261L4.76413043 29.3478261C5.3673913 29.3478261 5.85652174 28.8583696 5.85652174 28.2547826L5.85652174 24.8618478 6.48586957 24.8618478C6.5775 24.8618478 6.6648913 24.8461957 6.74967391 24.8236957 7.19021739 24.7069565 7.51597826 24.3091304 7.51597826 23.831087zM2.70195652 11.8640217C3.05380435 12.1017391 3.47771739 12.24 3.93391304 12.24 4.07576087 12.24 4.21402174 12.2253261 4.34836957 12.1998913 4.64673913 12.1431522 4.92423913 12.0277174 5.16652174 11.8640217 5.75445652 11.4675 6.14054348 10.7957609 6.14054348 10.0333696 6.14054348 9.02902174 5.46880435 8.18217391 4.5498913 7.9151087 4.35423913 7.85836957 4.14815217 7.82641304 3.93358696 7.82641304 2.71532609 7.82641304 1.72728261 8.8151087 1.72728261 10.0336957 1.72793478 10.7954348 2.11434783 11.4675 2.70195652 11.8640217z"/>
        </g>
        <path fill="#5721AE" fill-rule="nonzero" stroke="#B392DB" stroke-width=".5" d="M12.8284276,6.3684187 L14.8915765,7.74384061 C15.0559421,7.8535024 15.2701448,7.8535024 15.4345104,7.74384061 L17.4976594,6.3684187 C18.1791082,5.91561412 18.5881612,5.15133208 18.5869539,4.33316599 L18.5869539,0.48912586 C18.5869539,0.218989107 18.3679604,0 18.0978215,0 L12.2282654,0 C11.9581266,0 11.7391331,0.218989107 11.7391331,0.48912586 L11.7391331,4.33316599 C11.7379258,5.15133208 12.1469788,5.91561412 12.8284276,6.3684187 L12.8284276,6.3684187 Z"/>
        <path fill="#FFF" fill-rule="nonzero" d="M15.0212876,5.06671822 L16.9565217,3.00974775 L16.2724165,2.2826087 L14.6792349,3.97600963 L14.0536705,3.31109393 L13.3695652,4.03823299 L14.3371823,5.06671822 C14.4278929,5.1631641 14.5509314,5.2173913 14.6792349,5.2173913 C14.8075385,5.2173913 14.930577,5.1631641 15.0212876,5.06671822 Z"/>
      </g>
    </g>
    <path fill="#4F2DA7" fill-rule="nonzero" d="M67.9745113,23.403866 C76.2245113,23.403866 90.4745113,23.403866 93.4745113,15.153866 C96.4745113,6.90386604 71.5309629,7.38773701 65.7245113,1.5812854 C59.9180597,-4.22516622 50.5558925,-3.59613396 41.7245113,-3.59613396 C32.8931301,-3.59613396 34.5666067,-13.3297199 27.4745113,-11.846134 C20.382416,-10.362548 26.7245113,-2.92821923 24.4745113,1.5812854 C24.4745113,4.38381957 24.4745113,11.6580131 24.4745113,23.403866 C44.2245113,23.403866 58.7245113,23.403866 67.9745113,23.403866 Z" mask="url(#ic_pa_b1-b)" opacity=".05" transform="rotate(180 58.862 5.702)"/>
    <path fill="#4F2DA7" fill-rule="nonzero" d="M10.2856144,59.675161 C39.7333474,49.2048559 52.8212288,72.7630423 52.8212288,59.675161 C52.8212288,46.5872797 37.1157711,40.043339 29.2630423,32.1906102 C21.4103136,24.3378814 24.8468778,11.25 12.9031907,11.25 C0.959503549,11.25 6.97679534,18.5865724 -6.07423726,24.3378814 C-19.12527,30.0891903 -19.1621186,70.1454661 10.2856144,59.675161 Z" mask="url(#ic_pa_b1-b)" opacity=".05"/>
    <path fill="#4F2DA7" fill-rule="nonzero" d="M59.0356144,45.425161 C88.4833474,34.9548559 101.571229,58.5130423 101.571229,45.425161 C101.571229,32.3372797 85.8657711,25.793339 78.0130423,17.9406102 C70.1603136,10.0878814 73.5968778,-3 61.6531907,-3 C49.7095035,-3 55.7267953,4.33657244 42.6757627,10.0878814 C29.62473,15.8391903 16.5,0.926364402 16.5,17.9406102 C16.5,34.9548559 29.5878814,55.8954661 59.0356144,45.425161 Z" mask="url(#ic_pa_b1-b)" opacity=".05" transform="matrix(-1 0 0 1 118.071 0)"/>
    <path fill="#3792FC" fill-rule="nonzero" d="M12.2770509 25.6172581C13.3358744 25.1112028 14.4206495 24.5272927 15.3756668 23.8421716 15.7260128 23.5904415 15.3808571 23.0999571 15.012345 23.2945938 13.9924488 23.8291958 12.995909 24.5195073 12.0876045 25.2227945 11.9007533 25.3629329 12.0357014 25.731445 12.2770509 25.6172581L12.2770509 25.6172581zM16.1967024 4.74397584C16.1759412 4.72580975 16.1577751 4.70764366 16.1370138 4.69207273 15.8749031 4.45850871 15.4441072 4.41439107 15.189782 4.69207273 14.9328616 4.97234954 14.940647 5.35902774 15.189782 5.63930456 15.2079481 5.66006581 15.2261142 5.6782319 15.2416851 5.69899314 15.4752491 5.96369902 15.9605432 5.95591356 16.1967024 5.69899314 16.4302664 5.44207273 16.4769792 4.99311079 16.1967024 4.74397584L16.1967024 4.74397584zM76.5064484 8.82141525C76.5722606 8.39206882 76.5597249 7.98465979 76.7979025 7.60545601 77.2773916 6.85331628 77.9574513 7.04135121 78.6155735 7.37354626 79.2862315 7.71200914 79.9192824 7.91257974 80.6463508 7.59918818 81.7839622 7.10716344 82.3198617 5.38977771 81.232393 4.58122749 80.8813945 4.31797858 80.5335299 4.75045893 80.5805386 5.08265398 80.6463508 5.54333957 80.8751267 6.05416781 80.4802533 6.44904117 79.9506216 6.9786729 79.3301063 6.53365689 78.8004746 6.29547931 78.2301019 6.03849823 77.6221223 5.98208775 77.0360801 6.22026533 76.0238254 6.63080827 75.2873552 8.00346329 76.0927715 8.93110229 76.2055925 9.05959283 76.4782431 9.00004844 76.5064484 8.82141525L76.5064484 8.82141525zM64.7650465 52.2428221C63.7245991 53.2418174 63.3308043 54.7962706 64.3215091 55.9983811 65.2541811 57.1300231 67.0656373 57.3663 68.2304409 56.4667897 71.0491828 54.2905551 68.1102299 50.2821384 65.0717919 51.1111801 64.5080435 51.2645528 64.6489806 52.0687233 65.2044386 52.0977398 66.0915132 52.1474823 67.0449112 52.1806439 67.7537419 52.8065704 68.5164603 53.473949 68.5330411 54.605591 67.9071146 55.3765998 66.2490312 57.4118973 63.3722564 54.4149114 65.113244 52.5910196 65.3370853 52.3630331 64.9971782 52.023126 64.7650465 52.2428221L64.7650465 52.2428221zM3.75726804 45.6141129C4.08196141 46.8211253 4.43841827 48.0140205 4.81252151 49.2069157 4.9007534 49.4927871 5.17250764 49.5845482 5.41955695 49.415143 6.3901078 48.7551684 7.35712937 48.1093109 8.27827036 47.3787508 8.45473415 47.2375798 8.41591212 46.9552377 8.2429776 46.8352424 7.16654848 46.0976237 5.71601612 45.0070775 4.35018637 45 4.00431734 44.9964897 3.76079731 45.487059 4.1137249 45.6882277 4.66429192 46.0058626 5.3242665 46.1187994 5.91365556 46.3623194 6.59127652 46.6446615 7.2653682 46.9764134 7.86534509 47.4034558 7.87946219 47.2058163 7.8935793 47.0081769 7.90416712 46.8105374 6.87714786 47.4422778 5.91012629 48.1516622 4.93604616 48.8575174 5.12662705 48.8963394 5.32073722 48.9351615 5.51131812 48.9739835 5.09486357 47.7952054 4.6678212 46.6270151 4.20548607 45.4658834 4.10666634 45.2223633 3.6902118 45.3564758 3.75726804 45.6141129L3.75726804 45.6141129z" mask="url(#ic_pa_b1-b)" opacity=".05"/>
  </g>
</svg>
