<svg xmlns="http://www.w3.org/2000/svg" width="50" height="50" viewBox="0 0 49 50">
    <g fill="none" fill-rule="evenodd">
        <g>
            <g>
                <g>
                    <path d="M23.357.627c-.223-.076-.475-.152-.763-.233-.284-.081-.6-.152-.948-.21-.354-.057-.74-.085-1.161-.09-.512 0-1.02.077-1.52.226-.498.149-.967.377-1.409.678-.444.307-.835.687-1.174 1.151-.34.459-.607 1.002-.804 1.624-.192.618-.291 1.321-.296 2.11.003.832.12 1.556.339 2.17.223.616.52 1.137.89 1.56.373.422.785.764 1.24 1.018.453.256.917.442 1.389.56.473.11.917.168 1.343.168.444-.005.855-.033 1.227-.09.376-.06.717-.13 1.022-.218.303-.082.576-.164.814-.248V9.598c-.223.1-.475.202-.756.304-.281.101-.602.192-.954.26-.353.071-.748.108-1.189.113-.743-.003-1.373-.138-1.9-.39-.528-.254-.954-.595-1.286-1.024-.33-.429-.576-.909-.727-1.444-.156-.535-.23-1.084-.23-1.652 0-.568.075-1.123.238-1.666.165-.54.408-1.028.74-1.467.33-.442.748-.79 1.253-1.05.507-.26 1.107-.398 1.792-.4.403.002.775.04 1.105.113.334.07.64.164.92.271.279.11.545.222.8.338V.627" transform="translate(-1178 -203) translate(1178 203) translate(0 31.788)"/>
                    <path stroke="#000" stroke-width=".5" d="M.01 5.417h48.977" transform="translate(-1178 -203) translate(1178 203) translate(0 31.788)"/>
                    <g fill="#000" fill-rule="nonzero">
                        <path d="M5.135 4.187c0 .071-.03.13-.089.179-.06.048-.121.071-.185.071l-.134-.008c-.243.606-.45 1.235-.626 1.884-.173.647-.345 1.288-.518 1.919-.023.076-.063.132-.118.164-.056.033-.114.046-.173.04-.06-.006-.11-.032-.155-.075-.044-.045-.065-.113-.065-.2 0-.067.023-.194.07-.385.048-.19.109-.413.183-.668.072-.257.153-.53.238-.822.086-.291.17-.566.252-.82.084-.257.156-.483.217-.68.06-.195.105-.329.128-.402-.492-.018-.942-.013-1.353.013-.411.027-.729.048-.954.067-.048.149-.1.324-.16.528-.059.202-.121.417-.185.647l-.2.705c-.068.242-.137.472-.208.692-.03.095-.077.16-.145.192-.069.034-.138.044-.204.032-.069-.012-.121-.046-.16-.103C.555 7.101.549 7.028.58 6.94c.013-.037.031-.101.059-.196l.092-.336.115-.41.112-.403c.031-.122.06-.228.084-.318l.044-.17c-.047.055-.103.081-.17.081-.052 0-.13-.018-.233-.058C.58 5.091.478 5.04.38 4.98.283 4.915.197 4.85.122 4.78c-.074-.067-.11-.135-.11-.2 0-.1.054-.185.159-.255.107-.068.233-.124.381-.164.148-.043.303-.074.46-.097.16-.025.294-.045.4-.063.012-.03.035-.106.066-.229.033-.12.07-.265.115-.429l.147-.526c.052-.187.103-.36.15-.518.047-.16.09-.29.13-.398.039-.106.068-.164.091-.169.076-.03.16-.033.25-.01.087.024.133.093.133.206 0 .036-.011.104-.03.205-.022.101-.049.219-.081.353l-.11.429c-.042.15-.083.298-.12.437l-.107.379c-.033.114-.055.197-.066.25.39-.037.78-.063 1.166-.08.386-.018.78-.018 1.183 0l.173-.465c.08-.213.171-.455.276-.723.102-.269.212-.547.328-.835.113-.288.223-.558.328-.808.102-.25.198-.463.283-.642.087-.177.15-.288.191-.33.054-.054.123-.08.204-.08.077 0 .13.036.16.107.029.071.029.142 0 .213-.09.202-.193.447-.311.732-.119.287-.239.59-.364.91-.123.324-.246.653-.368.993-.122.339-.232.667-.334.981.054.012.107.04.16.08.052.041.08.092.08.152zm-4.027.811c.03-.077.055-.155.076-.231l.066-.24c-.124.018-.249.036-.372.057l-.373.068c.036.019.089.038.156.058.067.022.133.047.199.076.066.03.123.063.173.098.05.035.075.073.075.114zM7.447 5.937c.012-.018.025-.021.04-.008.013.011.027.028.044.053.013.023.025.05.03.08.006.03.003.056-.009.08-.082.178-.223.341-.426.487-.2.146-.41.26-.628.345-.13.048-.27.079-.422.092-.15.015-.291.004-.421-.036-.13-.04-.239-.108-.33-.205-.088-.1-.136-.237-.14-.416-.007-.147.016-.298.065-.447.05-.147.114-.287.191-.41.035-.059.076-.122.12-.188s.097-.126.155-.182c.059-.056.12-.103.185-.137.066-.037.137-.053.212-.053.107 0 .183.033.232.102.046.07.071.154.071.254s-.021.208-.062.32c-.042.115-.097.214-.168.3-.07.087-.155.15-.253.188-.097.038-.203.038-.314-.005-.014.048-.022.106-.028.174-.005.069 0 .134.018.197.018.062.054.115.11.163s.138.072.245.072c.176 0 .347-.033.51-.098.162-.066.307-.142.439-.232.13-.09.243-.18.337-.273.098-.091.162-.164.197-.217zm-1.684-.179c-.006.012-.013.027-.018.045-.006.018-.011.036-.013.055-.003.016-.002.031.005.04.007.008.02.008.044-.006.048-.018.099-.053.155-.107.056-.053.105-.108.146-.164.041-.058.066-.111.076-.16.008-.05-.008-.082-.05-.095-.029-.005-.06.005-.092.031-.032.027-.064.06-.092.098-.03.04-.06.084-.088.134-.032.05-.055.093-.073.13z" transform="translate(-1178 -203) translate(1178 203) translate(0 31.788) translate(0 9.768)"/>
                        <path d="M10.357 5.748c.035 0 .063.028.083.085.021.056.026.106.013.147-.023.083-.073.172-.147.267-.072.096-.162.183-.27.266-.106.081-.226.15-.36.206-.133.056-.27.082-.412.082-.18 0-.316-.058-.401-.177-.087-.119-.133-.25-.14-.394l-.215.234c-.076.082-.16.159-.25.226-.09.07-.183.128-.282.174-.097.048-.197.071-.299.071-.13 0-.24-.043-.329-.129-.088-.086-.133-.195-.133-.326 0-.094.018-.19.058-.285.038-.094.089-.187.15-.273.062-.086.13-.169.203-.245.074-.078.145-.149.21-.213.11-.108.242-.212.389-.317.148-.104.307-.155.48-.155.076 0 .151.025.225.074.074.05.117.121.128.209.035.025.078.041.129.05.05.01.09.057.12.145-.048.131-.086.249-.11.355-.027.107-.042.225-.042.355 0 .065.015.13.042.19.024.064.07.095.136.095.107 0 .212-.025.314-.076.104-.05.202-.114.293-.189.092-.074.174-.15.243-.231.076-.082.132-.154.174-.22zm-2.634.903c.1 0 .212-.055.332-.166.122-.11.236-.235.342-.376.107-.14.198-.275.27-.405.076-.131.112-.217.112-.259 0-.048-.008-.086-.026-.116-.019-.03-.06-.03-.124 0-.164.072-.324.183-.475.332-.15.149-.276.296-.372.442-.097.145-.156.273-.177.384-.022.109.016.164.118.164z" transform="translate(-1178 -203) translate(1178 203) translate(0 31.788) translate(0 9.768)"/>
                        <path d="M12.298 1c.04.03.062.068.062.116-.023.03-.07.137-.141.321-.073.186-.158.416-.258.692-.1.278-.213.588-.333.93-.121.343-.241.693-.36 1.047-.118.354-.227.7-.327 1.036-.102.336-.186.636-.253.9-.07.261-.114.471-.133.63-.022.157-.008.237.04.237.118 0 .254-.04.407-.116.155-.078.306-.169.454-.271.146-.105.283-.21.408-.318.123-.106.218-.19.282-.25.018-.012.035-.007.05.018.013.023.023.056.026.098.003.04 0 .087-.008.134-.008.048-.03.089-.058.125-.07.072-.17.164-.302.277-.13.113-.27.222-.421.328-.15.106-.304.195-.457.271-.153.076-.29.115-.408.115-.153 0-.276-.048-.367-.143-.092-.094-.138-.217-.138-.366 0-.07.023-.207.07-.407.048-.199.111-.44.188-.724.076-.283.166-.592.27-.928.103-.336.212-.677.329-1.024.115-.344.23-.678.345-1.004.115-.325.224-.613.329-.866.104-.254.197-.46.284-.621.086-.16.152-.249.2-.267l.088-.018c.046.003.089.018.132.048z" transform="translate(-1178 -203) translate(1178 203) translate(0 31.788) translate(0 9.768)"/>
                        <path d="M13.388 3.437c.07 0 .154-.002.251-.005.1-.003.193-.003.28 0 .089.003.166.017.227.04.062.025.092.066.092.126 0 .066-.026.11-.079.134-.054.023-.107.036-.16.036l-.754.008c-.06.173-.128.375-.212.606-.084.232-.165.47-.245.717-.08.247-.147.49-.203.73-.055.24-.085.45-.085.628 0 .03.005.071.013.124.008.053.046.08.112.08.107 0 .217-.035.337-.103.118-.068.227-.147.322-.237.097-.09.181-.174.253-.253.071-.081.116-.13.134-.147.125-.017.162.03.115.144-.041.1-.109.208-.2.32-.091.113-.195.22-.31.315-.115.096-.237.18-.363.245-.129.067-.247.1-.36.1-.183 0-.323-.055-.421-.164-.097-.111-.147-.254-.147-.434 0-.149.03-.346.09-.594.058-.247.129-.502.213-.764.082-.261.166-.513.253-.755l.207-.576c-.03 0-.075.004-.141.009-.066.006-.13.006-.196 0-.066-.007-.123-.022-.173-.045-.049-.023-.075-.061-.075-.116 0-.053.03-.091.087-.111.06-.021.128-.035.204-.04.077-.006.154-.006.235 0 .08.005.14.004.18-.01.09-.213.165-.39.228-.53.06-.14.126-.28.195-.423.068-.143.13-.254.191-.331.012-.017.031-.024.061-.017.03.005.06.017.092.035.033.016.061.04.084.066.025.027.036.053.036.076 0 .03-.018.104-.057.224-.04.119-.08.243-.124.37-.044.128-.087.246-.128.353-.038.106-.06.162-.06.17z" transform="translate(-1178 -203) translate(1178 203) translate(0 31.788) translate(0 9.768)"/>
                        <path d="M16.208 5.73c.034.03.046.075.031.134-.015.06-.041.121-.08.187-.038.065-.083.128-.134.187l-.112.135c-.087.094-.185.19-.29.286-.107.094-.23.157-.364.187-.118.023-.224 0-.316-.071s-.144-.167-.164-.287c-.012-.07-.012-.157 0-.255.013-.097.023-.192.036-.281.012-.09.02-.166.026-.227.005-.063-.006-.094-.036-.094-.059 0-.126.04-.204.12-.075.08-.154.184-.233.314-.08.127-.161.273-.245.437-.084.164-.156.327-.222.491-.064.164-.12.32-.168.469-.048.149-.077.275-.089.376-.011.09-.026.175-.044.258-.018.083-.08.13-.186.142-.123.019-.196-.03-.212-.142-.03-.19-.026-.384.008-.576.035-.194.076-.386.124-.576.17-.75.383-1.494.634-2.234.25-.736.563-1.493.936-2.266.046-.09.092-.18.136-.273.045-.093.09-.183.138-.272l.11-.224c.045-.089.1-.145.165-.168.077-.024.145-.014.2.031.055.045.07.106.04.182-.03.066-.064.134-.102.205-.04.072-.072.141-.102.206-.284.56-.546 1.15-.786 1.771-.238.623-.444 1.245-.616 1.871.047-.06.103-.124.167-.192.066-.068.137-.129.214-.187.076-.056.155-.098.239-.124.082-.027.169-.028.256-.005.089.025.15.073.186.142.034.071.054.15.057.237.004.086-.003.176-.018.268-.013.093-.024.167-.03.227 0 .012 0 .038-.004.08-.003.04-.003.084-.003.129 0 .044.003.084.013.12.008.037.023.054.04.054.047 0 .106-.029.177-.085.07-.056.144-.124.222-.2.075-.076.15-.158.217-.24.069-.085.125-.156.172-.216.048-.057.083-.09.107-.097.025-.004.061.011.109.046zM19.381 6.58c.094 0 .198-.022.31-.063.113-.042.223-.095.333-.156.11-.063.212-.134.306-.214.095-.08.17-.162.222-.245.007-.013.021-.013.044-.005.023.009.045.025.066.05.022.023.036.05.045.08.008.03.005.06-.014.089-.059.1-.138.199-.238.295-.1.096-.209.178-.329.25-.118.07-.24.127-.367.168-.128.042-.246.063-.36.063-.231 0-.429-.07-.595-.213-.166-.143-.286-.328-.363-.553-.046.167-.086.31-.115.429-.03.119-.056.235-.084.347-.026.115-.05.23-.07.353-.022.12-.045.267-.077.432 0 .09-.026.152-.078.187-.055.037-.114.053-.178.053-.089 0-.145-.048-.17-.142-.022-.096-.029-.206-.022-.331.01-.125.028-.25.057-.376.03-.126.054-.217.07-.277.12-.374.23-.731.335-1.07.102-.34.213-.701.332-1.085.118-.384.255-.815.408-1.295.154-.478.343-1.046.567-1.7l.06-.166c.03-.074.066-.149.108-.223.04-.075.083-.141.128-.196.044-.058.084-.086.12-.086.025 0 .066.015.128.045.063.03.084.08.066.15-.023.09-.061.21-.114.358-.054.15-.102.283-.143.402-.202.59-.396 1.171-.59 1.745-.192.575-.373 1.156-.544 1.745.059-.048.125-.105.199-.173.074-.068.151-.133.23-.196.08-.063.155-.116.227-.16.07-.045.13-.067.177-.067.03 0 .065.017.106.05.04.033.062.07.062.113-.036.048-.102.11-.199.19-.097.081-.195.162-.292.247-.097.083-.186.162-.262.237-.076.074-.115.132-.115.173 0 .067.018.141.054.229.035.086.08.167.137.24.056.074.121.139.195.192.074.053.15.08.227.08z" transform="translate(-1178 -203) translate(1178 203) translate(0 31.788) translate(0 9.768)"/>
                        <path d="M20.809 5.24c.036-.065.078-.108.128-.13.05-.02.095-.022.133-.007.04.015.067.048.086.097.018.052.011.115-.019.19-.102.25-.185.509-.258.774-.07.265-.14.495-.202.692-.013.048-.04.083-.08.106-.042.023-.088.035-.134.035-.047 0-.092-.009-.133-.027-.041-.018-.07-.051-.089-.097-.018-.037-.02-.082-.008-.135.012-.054.023-.099.035-.134.093-.268.179-.508.253-.723.072-.212.17-.427.288-.64zm.692-1.232c.118 0 .18.037.186.108.006.071-.009.14-.045.205-.094.172-.17.295-.225.366-.056.071-.118.104-.183.098-.04-.005-.085-.023-.133-.053-.047-.03-.059-.068-.034-.116.023-.06.042-.106.057-.142.013-.037.028-.067.04-.095l.04-.09c.012-.03.035-.075.065-.128.06-.101.136-.153.232-.153zM28.282 1.08c.184.06.348.155.496.29.15.133.222.319.222.557 0 .048-.004.106-.018.174-.013.068-.034.137-.062.205-.03.068-.068.128-.114.174-.044.048-.103.071-.176.071-.03 0-.064-.011-.101-.036-.04-.023-.058-.056-.058-.098 0-.048.013-.106.044-.174.03-.07.043-.14.043-.218 0-.209-.074-.36-.225-.452-.151-.091-.34-.138-.57-.138-.285 0-.571.067-.86.197-.292.131-.57.307-.838.527-.27.22-.52.477-.75.771-.23.295-.434.606-.606.933-.176.327-.313.663-.408 1.008-.099.346-.146.677-.146.992 0 .149.023.274.07.377.046.106.11.192.191.26.08.068.171.118.276.147.104.03.212.045.324.045.212 0 .45-.058.716-.174.263-.116.52-.26.772-.434.252-.173.484-.362.698-.57.212-.21.38-.405.496-.589-.253.067-.511.121-.774.164-.262.045-.522.067-.775.067-.075 0-.154-.017-.235-.05-.079-.031-.118-.09-.118-.174 0-.06.026-.107.079-.142.054-.037.11-.057.169-.063.391-.03.774-.08 1.156-.148.38-.067.748-.177 1.102-.324.03-.012.062-.025.097-.035.036-.013.075-.018.116-.018.071 0 .134.023.186.071.053.048.08.104.08.17 0 .07-.027.127-.085.163-.054.04-.115.065-.18.076-.09.085-.185.225-.285.424-.1.199-.19.417-.27.656-.08.238-.148.473-.202.71-.056.235-.082.434-.082.594l.003.04c.003.017.005.028.005.04 0 .119-.035.223-.102.313-.067.089-.151.134-.253.134-.07 0-.135-.022-.194-.067-.06-.044-.089-.099-.089-.165 0-.19.03-.392.089-.606.059-.214.113-.422.168-.626-.153.12-.323.24-.505.361-.184.123-.375.234-.577.336-.201.101-.407.186-.617.25-.21.066-.418.098-.625.098-.202 0-.386-.033-.554-.098-.168-.064-.312-.155-.434-.273-.122-.116-.217-.253-.285-.416-.067-.16-.101-.336-.101-.526 0-.245.044-.535.133-.87.088-.337.218-.686.386-1.046.168-.359.375-.715.617-1.066.243-.35.518-.665.822-.942.304-.276.64-.502 1.006-.674.368-.172.761-.258 1.182-.258.09 0 .178.003.265.013.087.013.176.033.265.061zM31.829 5.677c.03-.023.059-.01.088.04.03.05.033.094.009.129-.09.142-.198.283-.324.42-.127.138-.26.26-.398.368-.14.108-.281.195-.426.258-.145.065-.283.096-.413.096-.102 0-.184-.018-.248-.053-.066-.036-.115-.082-.146-.142-.033-.06-.055-.12-.063-.187-.008-.066-.008-.13.005-.197-.082.084-.174.164-.276.242-.1.076-.212.13-.337.16-.1.023-.198.025-.288.004-.092-.02-.161-.078-.207-.174-.035-.076-.045-.177-.028-.303.018-.124.05-.254.094-.384.044-.131.098-.257.164-.375.066-.119.127-.211.186-.278.066-.076.136-.107.212-.09.089.02.133.046.133.082 0 .035-.013.076-.036.124-.03.066-.074.16-.133.278-.061.12-.112.239-.155.358-.044.12-.07.222-.079.311-.01.09.018.134.084.134.1 0 .196-.036.283-.11.089-.075.17-.164.25-.269.075-.104.145-.208.202-.313.06-.104.114-.187.16-.245.018-.023.036-.056.057-.094.02-.038.045-.078.07-.121.027-.041.053-.08.081-.11.027-.034.056-.057.092-.069.047-.011.094-.01.142.005.048.015.085.04.115.076.035.048.041.1.018.156-.023.056-.05.108-.08.156-.053.089-.107.195-.16.32-.054.125-.094.247-.118.362-.028.116-.035.213-.023.291.013.076.056.116.133.116.094 0 .204-.036.329-.11.123-.075.25-.163.376-.266.127-.1.248-.207.364-.321.118-.11.215-.204.29-.275z" transform="translate(-1178 -203) translate(1178 203) translate(0 31.788) translate(0 9.768)"/>
                        <path d="M34.62 5.748c.035 0 .065.028.084.085.022.056.027.106.014.147-.023.083-.073.172-.147.267-.074.096-.164.183-.27.266-.106.081-.226.15-.36.206-.133.056-.27.082-.412.082-.181 0-.314-.058-.401-.177-.088-.119-.134-.25-.14-.394-.066.071-.137.15-.212.234-.078.082-.161.159-.25.226-.089.07-.183.128-.281.174-.097.048-.198.071-.298.071-.13 0-.24-.043-.329-.129-.089-.086-.135-.195-.135-.326 0-.094.02-.19.06-.285.037-.094.087-.187.15-.273.062-.086.129-.169.203-.245.074-.078.143-.149.209-.213.112-.108.242-.212.39-.317.148-.104.307-.155.478-.155.077 0 .153.025.227.074.074.05.117.121.128.209.036.025.08.041.128.05.05.01.09.057.12.145-.047.131-.085.249-.111.355-.027.107-.04.225-.04.355 0 .065.013.13.04.19.026.064.072.095.138.095.107 0 .21-.025.314-.076.103-.05.202-.114.293-.189.092-.074.172-.15.245-.231.069-.082.125-.154.166-.22zm-2.63.903c.098 0 .21-.055.332-.166.122-.11.233-.235.342-.376.105-.14.196-.275.27-.405.074-.131.111-.217.111-.259 0-.048-.01-.086-.026-.116-.018-.03-.06-.03-.123 0-.166.072-.324.183-.475.332-.15.149-.275.296-.37.442-.097.145-.158.273-.178.384-.025.109.015.164.117.164z" transform="translate(-1178 -203) translate(1178 203) translate(0 31.788) translate(0 9.768)"/>
                        <path d="M35.056 4.669c-.034.078-.059.132-.07.169-.012.035-.02.094-.027.179 0 .048.009.107.023.182.015.074.055.112.119.112.082 0 .163-.031.24-.09.075-.06.154-.089.23-.089.076 0 .132.019.164.053.032.037.043.078.032.126 0 .005-.013.038-.036.098-.023.06-.05.136-.08.23-.03.093-.055.192-.08.296-.023.105-.038.202-.04.289-.003.087.01.16.04.22.028.061.082.09.16.09.07 0 .157-.02.261-.056.104-.034.209-.08.314-.137.109-.056.207-.12.303-.187.093-.068.17-.136.23-.2.018-.019.05-.009.098.031.046.038.046.096 0 .174-.06.103-.14.194-.235.276-.098.085-.202.156-.315.216-.112.06-.229.109-.346.144-.118.034-.227.051-.329.051-.189 0-.322-.043-.402-.13-.081-.085-.129-.193-.142-.32-.015-.128-.006-.264.026-.406.032-.142.073-.271.12-.384-.03.007-.065.01-.106.013-.043.004-.078.004-.109.004-.082 0-.148-.012-.194-.035-.018.066-.044.155-.08.268-.035.113-.074.23-.116.351-.04.122-.08.235-.115.34-.036.104-.065.18-.088.228-.047.1-.107.154-.176.16-.071.005-.137-.041-.196-.142.03-.035.07-.114.123-.237.053-.122.109-.255.168-.397.06-.142.113-.282.164-.416l.112-.29c-.082-.1-.123-.228-.123-.383 0-.024.003-.067.013-.125.01-.06.023-.119.044-.178.02-.06.051-.113.093-.158.04-.043.095-.066.159-.066.046 0 .087.01.118.03.035.023.051.054.051.096z" transform="translate(-1178 -203) translate(1178 203) translate(0 31.788) translate(0 9.768)"/>
                        <path d="M39.79 5.748c.035 0 .064.028.084.085.02.056.025.106.013.147-.023.083-.072.172-.146.267-.074.096-.164.183-.27.266-.107.081-.225.15-.36.206-.133.056-.27.082-.413.082-.18 0-.315-.058-.4-.177-.088-.119-.134-.25-.14-.394l-.214.234c-.078.082-.16.159-.25.226-.09.07-.183.128-.281.174-.099.048-.198.071-.3.071-.131 0-.241-.043-.33-.129-.089-.086-.135-.195-.135-.326 0-.094.02-.19.058-.285.04-.094.088-.187.15-.273.062-.086.13-.169.205-.245.072-.078.143-.149.207-.213.112-.108.243-.212.391-.317.147-.104.308-.155.479-.155.075 0 .151.025.227.074.072.05.116.121.128.209.034.025.079.041.128.05.05.01.09.057.119.145-.046.131-.084.249-.11.355-.027.107-.04.225-.04.355 0 .065.013.13.04.19.026.064.07.095.138.095.105 0 .21-.025.314-.076.102-.05.2-.114.292-.189.092-.074.173-.15.244-.231.075-.082.131-.154.172-.22zm-2.632.903c.1 0 .212-.055.334-.166.12-.11.233-.235.34-.376.107-.14.197-.275.27-.405.074-.131.11-.217.11-.259 0-.048-.008-.086-.027-.116-.018-.03-.057-.03-.123 0-.166.072-.322.183-.475.332-.15.149-.275.296-.372.442-.097.145-.156.273-.177.384-.022.109.02.164.12.164z" transform="translate(-1178 -203) translate(1178 203) translate(0 31.788) translate(0 9.768)"/>
                        <path d="M42.937 6.035c.055-.048.097-.066.129-.058.033.01.05.031.057.068.005.034 0 .08-.018.129-.018.05-.044.098-.08.139-.066.071-.142.142-.23.213-.09.072-.186.136-.293.193-.107.056-.214.102-.323.139-.11.034-.213.053-.315.053-.153 0-.295-.025-.424-.072-.13-.048-.229-.137-.293-.268-.036-.076-.056-.165-.061-.263-.007-.098-.008-.192-.007-.28.004-.09.004-.164 0-.223-.003-.058-.02-.09-.057-.09-.087 0-.194.058-.317.17-.125.115-.25.24-.382.385-.128.142-.253.276-.372.402-.118.124-.218.197-.302.215-.066.019-.13.014-.2-.013-.066-.026-.106-.073-.117-.139 0-.023.018-.096.052-.218.036-.121.076-.257.125-.403.046-.145.095-.285.145-.42.05-.134.084-.222.102-.264.03-.066.085-.1.167-.107.083-.007.148.021.196.08.03.047.041.11.035.191-.007.08-.055.226-.142.434.076-.078.16-.162.254-.253.092-.093.187-.176.29-.247.104-.071.21-.122.32-.155.108-.035.22-.032.332.003.107.035.18.093.222.174.04.08.069.169.08.266.013.1.017.2.013.305-.003.103.007.194.032.271.04.144.14.207.292.19.183-.02.37-.08.563-.185.192-.106.368-.225.527-.362z" transform="translate(-1178 -203) translate(1178 203) translate(0 31.788) translate(0 9.768)"/>
                        <path d="M44.286 3.437c.07 0 .154-.002.253-.005.097-.003.19-.003.28 0 .088.003.164.017.225.04.062.025.094.066.094.126 0 .066-.027.11-.081.134-.053.023-.107.036-.16.036l-.753.008c-.059.173-.13.375-.212.606-.082.232-.164.47-.243.717-.079.247-.146.49-.202.73-.058.24-.086.45-.086.628 0 .03.005.071.013.124.009.053.045.08.11.08.107 0 .22-.035.338-.103.118-.068.226-.147.324-.237.097-.09.18-.174.253-.253.07-.081.115-.13.133-.147.123-.017.163.03.115.144-.041.1-.107.208-.2.32-.093.113-.195.22-.31.315-.115.096-.236.18-.365.245-.126.067-.246.1-.358.1-.184 0-.324-.055-.421-.164-.097-.111-.146-.254-.146-.434 0-.149.03-.346.087-.594.059-.247.13-.502.212-.764.082-.261.166-.513.253-.755.087-.241.155-.432.209-.576-.03 0-.077.004-.143.009-.064.006-.13.006-.194 0-.066-.007-.124-.022-.175-.045-.049-.023-.075-.061-.075-.116 0-.053.03-.091.089-.111.059-.021.126-.035.203-.04.076-.006.155-.006.234 0 .08.005.14.004.182-.01.088-.213.165-.39.226-.53.062-.14.128-.28.195-.423.068-.143.132-.254.191-.331.012-.017.033-.024.061-.017.03.005.06.017.094.035.033.016.06.04.084.066.023.027.036.053.036.076 0 .03-.02.104-.058.224-.04.119-.08.243-.125.37-.044.128-.087.246-.128.353-.04.106-.06.162-.06.17z" transform="translate(-1178 -203) translate(1178 203) translate(0 31.788) translate(0 9.768)"/>
                        <path d="M46.714 5.937c.012-.018.025-.021.04-.008.015.011.03.028.044.053.013.023.025.05.03.08.006.03.003.056-.008.08-.083.178-.224.341-.426.487-.2.146-.411.26-.628.345-.13.048-.272.079-.423.092-.15.015-.291.004-.42-.036-.13-.04-.24-.108-.33-.205-.089-.1-.136-.237-.141-.416-.007-.147.016-.298.066-.447.049-.147.113-.287.19-.41.037-.059.076-.122.12-.188.045-.066.096-.126.155-.182.06-.056.122-.103.186-.137.066-.037.136-.053.212-.053.107 0 .182.033.23.102.048.07.07.154.07.254s-.02.208-.062.32c-.04.115-.097.214-.167.3-.071.087-.155.15-.254.188-.097.038-.202.038-.314-.005-.013.048-.021.106-.026.174-.007.069 0 .134.016.197.019.062.056.115.112.163s.138.072.244.072c.177 0 .348-.033.511-.098.163-.066.31-.142.439-.232.13-.09.243-.18.337-.273.097-.091.163-.164.197-.217zm-1.683-.179c-.007.012-.012.027-.018.045-.007.018-.012.036-.014.055-.003.016-.001.031.005.04.005.008.02.008.045-.006.047-.018.098-.053.154-.107.056-.053.106-.108.147-.164.04-.058.065-.111.075-.16.009-.05-.008-.082-.049-.095-.03-.005-.06.005-.092.031-.033.027-.064.06-.094.098-.03.04-.059.084-.087.134-.031.05-.056.093-.072.13z" transform="translate(-1178 -203) translate(1178 203) translate(0 31.788) translate(0 9.768)"/>
                        <path d="M48.87 5.937c.012-.018.025-.021.04-.008.014.011.03.028.044.053.015.023.025.05.031.08.005.03.003.056-.01.08-.082.178-.223.341-.424.487-.202.146-.413.26-.63.345-.13.048-.27.079-.42.092-.15.015-.292.004-.423-.036-.13-.04-.239-.108-.329-.205-.087-.1-.135-.237-.141-.416-.007-.147.016-.298.065-.447.05-.147.114-.287.191-.41.036-.059.076-.122.12-.188s.097-.126.155-.182c.059-.056.12-.103.185-.137.065-.037.135-.053.213-.053.106 0 .182.033.23.102.046.07.07.154.07.254s-.02.208-.06.32c-.043.115-.097.214-.17.3-.07.087-.154.15-.253.188-.097.038-.202.038-.314-.005-.012.048-.021.106-.026.174-.007.069 0 .134.018.197.018.062.054.115.112.163.054.048.136.072.243.072.178 0 .349-.033.51-.098.162-.066.309-.142.439-.232.13-.09.241-.18.337-.273.095-.091.16-.164.197-.217zm-1.687-.179c-.007.012-.011.027-.018.045-.005.018-.01.036-.013.055-.003.016-.003.031.003.04.007.008.02.008.044-.006.047-.018.1-.053.155-.107.056-.053.105-.108.146-.164.042-.058.066-.111.076-.16.008-.05-.008-.082-.05-.095-.029-.005-.06.005-.093.031-.033.027-.064.06-.092.098-.03.04-.06.084-.089.134l-.069.13z" transform="translate(-1178 -203) translate(1178 203) translate(0 31.788) translate(0 9.768)"/>
                    </g>
                </g>
                <g fill-rule="nonzero">
                    <path fill="#FCDF00" d="M0.01 0.007H48.986999999999995V25.335H0.01z" transform="translate(-1178 -203) translate(1178 203)"/>
                    <path fill="#0B67B2" d="M13.695 8.969c-.223-.077-.475-.153-.764-.232-.285-.081-.599-.153-.947-.21-.356-.057-.742-.085-1.163-.09-.511 0-1.02.078-1.52.227-.497.147-.966.377-1.408.679-.444.304-.836.687-1.174 1.15-.342.457-.607 1-.803 1.625-.192.617-.29 1.322-.296 2.109.003.833.119 1.556.339 2.17.225.616.521 1.138.89 1.56.373.422.784.765 1.238 1.018.455.257.917.442 1.39.56.473.11.917.169 1.342.169.446-.005.855-.033 1.227-.09.375-.061.717-.132 1.023-.218.302-.083.575-.164.814-.249v-1.205c-.224.101-.475.202-.755.305-.281.1-.602.192-.954.26-.353.07-.75.107-1.188.11-.742-.004-1.373-.137-1.9-.39-.53-.253-.953-.595-1.285-1.025-.333-.429-.576-.909-.727-1.444-.158-.534-.232-1.084-.232-1.65 0-.568.077-1.123.238-1.666.161-.538.408-1.028.739-1.465.33-.442.748-.793 1.254-1.05.507-.261 1.107-.399 1.79-.402.405.003.775.04 1.106.112.334.072.64.164.919.272.28.108.546.222.802.338V8.969M24.401 17.603c-.08.068-.192.157-.327.261-.135.108-.283.214-.444.323-.154.104-.304.197-.447.27-.14.073-.25.11-.339.113-.072 0-.121-.017-.151-.04-.031-.028-.051-.053-.064-.081-.008-.03-.013-.101-.017-.214-.003-.112-.008-.237-.008-.379V11.935c.005-.413-.008-.768-.034-1.056-.03-.293-.088-.554-.185-.788-.093-.228-.246-.459-.45-.687-.21-.233-.475-.419-.781-.565-.308-.139-.633-.246-.967-.304-.339-.065-.66-.098-.959-.098-.402.005-.78.045-1.126.126-.347.084-.664.185-.957.31-.293.124-.55.248-.78.377l-.588.344v1.18c.383-.279.742-.516 1.085-.708.339-.198.69-.342 1.046-.443.36-.1.751-.148 1.179-.148.592.005 1.067.096 1.414.277.347.182.594.435.743.755.147.322.219.692.214 1.114v1.374c-.25.008-.58.036-.982.071-.4.042-.837.11-1.308.207-.476.093-.948.234-1.415.41-.47.176-.9.413-1.289.698-.391.291-.707.647-.942 1.074-.237.42-.355.934-.363 1.519.003.39.08.748.235 1.077.154.331.365.62.638.865.265.245.575.437.927.574.347.137.722.207 1.123.21.415-.003.795-.054 1.145-.15.357-.096.67-.216.958-.365.283-.145.531-.29.747-.442.212-.149.391-.281.528-.394.021.274.047.515.088.716.04.2.112.359.216.466.103.111.268.17.487.17.236-.004.532-.102.884-.297.347-.195.775-.472 1.273-.838v-.963H24.4zm-2.946-.265c-.155.147-.334.301-.538.465-.205.166-.432.32-.68.462-.25.146-.522.263-.818.356-.3.093-.613.134-.957.137-.217 0-.445-.03-.687-.1-.245-.064-.475-.17-.696-.312-.218-.14-.393-.324-.532-.551-.14-.229-.213-.504-.214-.82.003-.324.06-.622.186-.892.125-.27.29-.51.496-.724.209-.213.44-.404.7-.563.257-.16.524-.293.795-.402.339-.136.695-.233 1.064-.296.366-.062.715-.105 1.045-.124.333-.019.612-.032.837-.037v3.4h-.001zM33.409 9.715c-.14-.124-.295-.256-.47-.4-.181-.15-.374-.287-.58-.418-.213-.132-.433-.241-.668-.326-.232-.084-.474-.127-.727-.132-.36.005-.712.09-1.046.253-.335.162-.653.37-.952.624-.296.254-.566.523-.804.808-.245.283-.454.547-.633.792-.171.246-.308.442-.398.587V8.657h-1.15v10.83h1.15v-6.805c.233-.389.485-.768.761-1.129.271-.366.56-.69.859-.98.3-.288.601-.523.914-.69.312-.17.626-.259.937-.262.263.003.526.071.784.197.255.127.499.281.727.462.23.182.44.354.622.523l.674-1.088M43.375 13.647c-.003-.38-.036-.766-.09-1.157-.056-.39-.183-.8-.366-1.232-.134-.328-.327-.659-.57-.988-.239-.335-.54-.634-.895-.912-.356-.274-.766-.495-1.241-.664-.472-.17-1.006-.254-1.605-.259-.774.009-1.465.156-2.077.456-.606.296-1.126.703-1.549 1.217-.425.516-.748 1.102-.973 1.758-.22.656-.337 1.346-.337 2.07 0 .582.072 1.153.22 1.711.148.555.362 1.078.655 1.568.29.487.65.917 1.082 1.29.432.37.927.664 1.5.874.566.207 1.201.316 1.908.321.599-.005 1.148-.07 1.65-.198.501-.13.958-.305 1.37-.524.414-.216.792-.46 1.124-.726V16.95c-.16.143-.367.308-.612.492-.248.185-.538.37-.87.545-.335.179-.717.328-1.138.447-.422.114-.89.174-1.405.179-.416 0-.83-.06-1.243-.184-.412-.124-.801-.313-1.165-.571-.366-.26-.69-.582-.971-.976-.278-.392-.495-.859-.642-1.399-.151-.538-.215-1.15-.195-1.84h8.435v.004zm-8.312-.917c.102-.558.28-1.045.523-1.454.243-.41.53-.748.863-1.013.332-.268.686-.467 1.057-.594.372-.13.739-.194 1.102-.194.602.005 1.148.144 1.62.414.475.275.856.64 1.136 1.106.205.34.36.652.445.942.093.29.157.555.201.795h-6.947v-.002zM33.678 5.639H43.370999999999995V6.758H33.678zM.01 28.613L.452 28.613.452 29.965 2.124 29.965 2.124 28.613 2.568 28.613 2.568 31.886 2.124 31.886 2.124 30.354.452 30.354.452 31.886.01 31.886zM3.586 28.613L5.944 28.613 5.944 29.013 4.014 29.013 4.014 30.007 5.798 30.007 5.798 30.386 4.014 30.386 4.014 31.497 5.977 31.497 5.977 31.886 3.586 31.886zM7.787 28.613h.497l1.18 3.273h-.483l-.339-.98H7.368l-.353.98h-.451l1.223-3.273zm.729 1.932l-.5-1.447-.521 1.447h1.02zM10.132 28.613L10.573 28.613 10.573 31.497 12.204 31.497 12.204 31.886 10.132 31.886zM14.953 28.613L14.953 29.002 13.86 29.002 13.86 31.886 13.414 31.886 13.414 29.002 12.317 29.002 12.317 28.613zM15.642 28.613L16.088 28.613 16.088 29.965 17.757 29.965 17.757 28.613 18.202 28.613 18.202 31.886 17.757 31.886 17.757 30.354 16.088 30.354 16.088 31.886 15.642 31.886zM20.807 28.613H21.807V31.886H20.807zM22.237 28.613L22.757 28.613 24.378 31.257 24.378 28.613 24.799 28.613 24.799 31.886 24.304 31.886 22.658 29.243 22.658 31.886 22.237 31.886zM26.07 30.83c.01.185.051.336.125.451.142.217.39.327.743.327.16 0 .305-.024.436-.072.253-.092.378-.256.378-.495 0-.177-.052-.304-.16-.38-.108-.075-.279-.14-.51-.194l-.426-.101c-.28-.066-.476-.138-.592-.215-.2-.138-.3-.341-.3-.613 0-.295.097-.536.295-.725.197-.189.475-.283.835-.283.332 0 .613.083.847.248.232.167.347.43.347.795h-.413c-.021-.176-.066-.31-.136-.404-.129-.17-.346-.255-.655-.255-.25 0-.427.053-.537.164-.109.11-.163.238-.163.384 0 .16.064.278.192.353.086.048.276.107.572.178l.443.105c.212.05.376.119.491.207.203.154.303.375.303.665 0 .363-.128.623-.385.778-.255.156-.55.234-.89.234-.394 0-.702-.103-.925-.311-.224-.207-.334-.486-.33-.842h.415zM29.553 28.613v2.023c0 .238.044.435.133.592.133.239.355.356.67.356.376 0 .632-.127.767-.384.074-.14.109-.327.109-.564v-2.023h.445v1.837c0 .403-.054.714-.162.93-.198.395-.573.594-1.123.594-.551 0-.925-.198-1.122-.593-.108-.217-.163-.527-.163-.93v-1.838h.446zM32.677 28.613h1.478c.244 0 .444.036.602.109.301.139.45.397.45.773 0 .195-.04.358-.121.482-.08.124-.192.225-.337.301.127.051.222.12.286.205.064.085.099.222.107.413l.016.438c.004.125.013.217.032.279.024.104.072.172.14.2v.074h-.54c-.015-.028-.026-.064-.035-.109-.008-.045-.016-.13-.023-.258l-.026-.546c-.01-.214-.087-.358-.228-.43-.083-.04-.21-.06-.387-.06h-.973v1.403h-.44v-3.274zm1.429 1.498c.202 0 .358-.041.475-.124.119-.083.176-.234.176-.45 0-.234-.08-.393-.245-.477-.087-.045-.205-.067-.352-.067h-1.044v1.118h.99zM37.117 28.613h.496l1.18 3.273h-.48l-.341-.98h-1.275l-.353.98h-.452l1.225-3.273zm.73 1.932l-.502-1.447-.52 1.447h1.022zM39.463 28.613L39.983 28.613 41.602 31.257 41.602 28.613 42.022 28.613 42.022 31.886 41.528 31.886 39.884 29.243 39.884 31.886 39.463 31.886zM45.307 28.851c.224.219.349.465.375.745h-.43c-.047-.212-.144-.38-.285-.502-.144-.122-.344-.185-.602-.185-.314 0-.57.113-.762.341-.194.225-.29.575-.29 1.041 0 .384.087.696.262.934.175.239.436.358.782.358.319 0 .562-.124.728-.378.087-.132.153-.304.197-.521h.43c-.04.344-.165.634-.377.867-.255.28-.6.42-1.033.42-.375 0-.687-.113-.94-.345-.334-.305-.502-.775-.502-1.41 0-.484.125-.88.375-1.19.271-.336.646-.503 1.123-.503.408 0 .725.11.949.328M46.594 28.613L48.954 28.613 48.954 29.013 47.024 29.013 47.024 30.007 48.808 30.007 48.808 30.386 47.024 30.386 47.024 31.497 48.987 31.497 48.987 31.886 46.594 31.886z" transform="translate(-1178 -203) translate(1178 203)"/>
                </g>
            </g>
        </g>
    </g>
</svg>
