<svg width="16" height="16" viewBox="0 0 16 16" fill="none" xmlns="http://www.w3.org/2000/svg">
<path fill-rule="evenodd" clip-rule="evenodd" d="M16 3C16 1.34315 14.6569 0 13 0H3C1.34315 0 0 1.34315 0 3V13C0 14.6569 1.34315 16 3 16H13C14.6569 16 16 14.6569 16 13V3ZM15 4C15 2.34315 13.6569 1 12 1H4C2.34315 1 1 2.34315 1 4V12C1 13.6569 2.34315 15 4 15H12C13.6569 15 15 13.6569 15 12V4Z" fill="white"/>
<path d="M12.8697 7.21838L10.978 9.16585C10.8283 9.32017 10.7591 9.5394 10.7937 9.75237L11.2356 12.4709C11.2639 12.6468 11.1947 12.8131 11.0495 12.9156C10.9043 13.0181 10.7251 13.0278 10.5696 12.9418L8.32854 11.6976C8.12264 11.5831 7.87646 11.5831 7.67056 11.6976L5.42946 12.9418C5.27404 13.0278 5.0948 13.0181 4.94959 12.9156C4.80438 12.8131 4.73461 12.6468 4.76354 12.4709L5.20541 9.7518C5.24001 9.53883 5.17138 9.32016 5.02106 9.16528L3.12937 7.21781C3.00855 7.09367 2.96941 6.92056 3.02443 6.756C3.07945 6.59143 3.21445 6.47697 3.38519 6.45078L5.95017 6.0573C6.17479 6.02256 6.36652 5.87907 6.46294 5.67236L7.59002 3.26137C7.66659 3.09737 7.81974 3 8.00012 3C8.1805 3 8.33365 3.09794 8.41022 3.26137L9.5373 5.67236C9.63372 5.8785 9.82545 6.02256 10.0501 6.0573L12.6151 6.45078C12.7864 6.47697 12.9208 6.59086 12.9758 6.756C13.0308 6.92113 12.9906 7.09424 12.8697 7.21838Z" fill="white"/>
</svg>
