<svg xmlns="http://www.w3.org/2000/svg" xmlns:xlink="http://www.w3.org/1999/xlink" width="80" height="60"><style><![CDATA[.B{fill:#fff}.C{fill-rule:nonzero}.D{fill:#5621ad}.E{opacity:.05}]]></style><defs><rect id="A" width="80" height="60" rx="3"/><rect id="B" width="80" height="60" rx="3"/><rect id="C" width="80" height="60" rx="3"/><rect id="D" width="80" height="60" rx="3"/></defs><g fill="none" fill-rule="evenodd"><rect width="80" height="60" rx="3" class="B C"/><mask id="E" class="B"><use xlink:href="#A"/></mask><path d="M67.975 23.404c8.25 0 22.5 0 25.5-8.25S71.53 7.388 65.725 1.58s-15.17-5.177-24-5.177-7.158-9.734-14.25-8.25-.75 8.918-3 13.427v21.823h43.5z" mask="url(#E)" transform="rotate(180 58.862 5.702)" class="C D E"/><mask id="F" class="B"><use xlink:href="#B"/></mask><path d="M10.286 59.675c29.448-10.47 42.536 13.088 42.536 0S37.116 40.043 29.263 32.19s-4.416-20.94-16.36-20.94-5.926 7.337-18.977 13.088-13.088 45.808 16.36 35.337z" mask="url(#F)" class="C D E"/><mask id="G" class="B"><use xlink:href="#C"/></mask><path d="M59.035 45.425c29.448-10.47 42.536 13.088 42.536 0S85.866 25.793 78.013 17.94 73.597-3 61.653-3s-5.926 7.337-18.977 13.088S16.5.926 16.5 17.94s13.088 37.955 42.536 27.485z" mask="url(#G)" transform="matrix(-1 0 0 1 118.07 0)" class="C D E"/><mask id="H" class="B"><use xlink:href="#D"/></mask><g mask="url(#H)" class="C"><path d="M37.735 12.173c-8.574 0-15.527 6.935-15.527 15.492s6.953 15.492 15.527 15.492 15.527-6.935 15.527-15.492-6.953-15.492-15.527-15.492zm0 2.108c7.41 0 13.42 5.992 13.42 13.384S45.147 41.05 37.735 41.05s-13.42-5.992-13.42-13.384 6.008-13.384 13.42-13.384z" class="D"/><path d="M51.43 27.698a13.7 13.7 0 0 1-13.697 13.697 13.7 13.7 0 0 1-13.697-13.697 13.7 13.7 0 0 1 13.697-13.697A13.7 13.7 0 0 1 51.43 27.698z" class="B"/><g fill="#ad95d6"><path d="M45.733 27.698a8 8 0 1 1-16 0 8 8 0 1 1 16 0z"/><path d="M43.386 22.037L32.08 33.358c1.447 1.446 3.446 2.34 5.654 2.34a8 8 0 0 0 8-8c0-2.21-.897-4.213-2.347-5.66z"/><path d="M48.418 28.753v-2.11h-1.69a8.98 8.98 0 0 0-.678-2.527l1.465-.846-1.055-1.828-1.468.847c-.524-.7-1.147-1.325-1.85-1.85L44 18.972l-1.828-1.055-.846 1.465c-.79-.342-1.64-.574-2.527-.678v-1.69h-2.11v1.69a8.97 8.97 0 0 0-2.527.678l-.846-1.465-1.828 1.055.847 1.468a9.13 9.13 0 0 0-1.849 1.849l-1.468-.847-1.055 1.828 1.465.846a8.98 8.98 0 0 0-.678 2.527h-1.69v2.11h1.69c.104.887.336 1.736.678 2.527l-1.465.846 1.055 1.828 1.468-.847a9.13 9.13 0 0 0 1.849 1.849l-.847 1.468 1.828 1.055.846-1.465c.79.342 1.64.574 2.527.678v1.69h2.11v-1.69c.888-.104 1.737-.336 2.527-.678l.846 1.465L44 36.424l-.847-1.468c.7-.524 1.325-1.147 1.85-1.85l1.468.847 1.055-1.828-1.465-.846c.342-.79.574-1.64.678-2.527h1.69zm-10.685 5.89c-3.83 0-6.945-3.116-6.945-6.945s3.115-6.945 6.945-6.945 6.945 3.115 6.945 6.945-3.115 6.945-6.945 6.945z"/><path d="M46.05 24.116l1.465-.846-1.055-1.828-1.468.847c-.263-.352-.552-.685-.863-.995l-1.49 1.493c1.26 1.258 2.04 2.995 2.04 4.912 0 3.83-3.115 6.945-6.945 6.945-1.913 0-3.648-.778-4.906-2.034l-1.49 1.493a9.11 9.11 0 0 0 .988.855l-.847 1.468 1.828 1.055.846-1.465c.79.342 1.64.574 2.527.678v1.69h2.11v-1.69c.888-.103 1.737-.336 2.527-.678l.846 1.465L44 36.424l-.847-1.468a9.13 9.13 0 0 0 1.849-1.849l1.468.847 1.055-1.828-1.465-.846a8.98 8.98 0 0 0 .678-2.527h1.69v-2.11h-1.69a8.98 8.98 0 0 0-.678-2.527z"/></g><path d="M37.27 22.49c-1.764 0-3.2 1.435-3.2 3.2s1.435 3.2 3.2 3.2 3.2-1.435 3.2-3.2-1.435-3.2-3.2-3.2z" class="D"/><g fill="#ff6426"><path d="M34.984 31.448l1.492-1.493 1.493 1.493-1.492 1.492zm5.67-1.958l1.492-1.5 1.492 1.492-1.492 1.493z"/></g><g class="D"><path d="M34.984 31.448l1.492-1.492 1.493 1.492-1.492 1.493zm5.67-1.956L42.146 28l1.492 1.493-1.492 1.492zm5.478 9.038c.4-.37.987-.386 1.393-.055l.097.1L54.72 46c.402.42.386 1.088-.036 1.5-.4.37-.987.386-1.393.055l-.097-.1-7.098-7.444c-.402-.42-.386-1.088.036-1.5z"/></g></g><path fill="#378ffc" d="M12.277 25.617c1.06-.506 2.144-1.1 3.1-1.775.35-.252.005-.742-.363-.548-1.02.535-2.016 1.225-2.925 1.928-.187.14-.052.51.19.394zm3.92-20.873l-.06-.052c-.262-.234-.693-.278-.947 0s-.25.667 0 .947l.052.06c.234.265.72.257.955 0s.28-.706 0-.955zm60.3 4.077c.066-.43.053-.837.29-1.216.48-.752 1.16-.564 1.818-.232.67.338 1.304.54 2.03.226 1.138-.492 1.674-2.21.586-3.018-.35-.263-.7.17-.652.5.066.46.295.972-.1 1.366-.53.53-1.15.085-1.68-.154-.57-.257-1.178-.313-1.764-.075-1.012.41-1.75 1.783-.943 2.71.113.128.385.07.414-.1zm-11.74 43.42c-1.04 1-1.434 2.553-.444 3.756.933 1.132 2.744 1.368 3.91.468 2.82-2.176-.12-6.185-3.16-5.356-.564.153-.423.958.133.987.887.05 1.84.083 2.55.71.763.667.78 1.8.153 2.57-1.658 2.035-4.535-.962-2.794-2.786.224-.228-.116-.568-.348-.348zm-61.008-6.63l1.055 3.593c.088.286.36.378.607.208l2.86-2.036c.176-.14.138-.424-.035-.544C7.167 46.098 5.716 45.007 4.35 45c-.346-.003-.59.487-.236.688.55.318 1.21.43 1.8.674.678.282 1.352.614 1.952 1.04l.04-.593c-1.027.632-1.994 1.34-2.968 2.047l.575.116-1.306-3.508c-.1-.244-.515-.11-.448.148z" mask="url(#H)" class="C E"/></g></svg>