<svg xmlns="http://www.w3.org/2000/svg" width="50" height="50" viewBox="0 0 50 50">
    <g fill="none" fill-rule="evenodd">
        <g>
            <g>
                <path fill="#FFF" stroke="#E1E3E4" stroke-width="1.038" d="M0.519 0.519H49.481V49.481H0.519z" transform="translate(-1186 -196) translate(1186 196)"/>
                <path fill="#36498A" fill-rule="nonzero" d="M27.089 5L21.73 15.493 10.971 16.837 17.982 24.824 16.287 36.48 26.137 31.446 33.825 36.541 34.969 36.051 26.114 28.942 18.638 32.813 20.587 24.276 15.228 18.184 23.088 17.122 27.026 9.544 31.898 18 32.532 17.409z" transform="translate(-1186 -196) translate(1186 196)"/>
                <g fill-rule="nonzero">
                    <path fill="#36498A" d="M32.051 5.485L0 5.321 2.358 0.069 29.693 0z" transform="translate(-1186 -196) translate(1186 196) translate(8.974 38.265)"/>
                    <path fill="#FFF" d="M30.559 4.53L1.31 4.53 29.079 0.924z" transform="translate(-1186 -196) translate(1186 196) translate(8.974 38.265)"/>
                </g>
            </g>
        </g>
    </g>
</svg>
