<svg xmlns="http://www.w3.org/2000/svg" width="14" height="14" viewBox="0 0 14 14">
  <g fill="none" fill-rule="evenodd">
    <polygon points="0 0 14 0 14 14 0 14"/>
    <path fill="#35CB5D" fill-rule="nonzero" d="M11.5,2 L2.5,2 C1.11928813,2 0,3.11928813 0,4.5 L0,9.5 C0,10.8807119 1.11928813,12 2.5,12 L11.5,12 C12.8807119,12 14,10.8807119 14,9.5 L14,4.5 C14,3.11928813 12.8807119,2 11.5,2 Z M2.5,3 L11.5,3 C12.3284271,3 13,3.67157288 13,4.5 L13,9.5 C13,10.3284271 12.3284271,11 11.5,11 L2.5,11 C1.67157288,11 1,10.3284271 1,9.5 L1,4.5 C1,3.67157288 1.67157288,3 2.5,3 Z"/>
    <path fill="#35CB5D" fill-rule="nonzero" d="M13.2312813,2.5 L0.768520013,2.5 L6.09444352,7.67848066 C6.39996918,7.90255526 6.69397865,7.9975673 6.99599925,7.99998399 C7.30558094,7.99757082 7.59912522,7.90283519 7.84617116,7.72860419 L13.2312813,2.5 Z M3.23,3.5 L10.768,3.5 L7.20940319,6.96155856 L7.13160387,6.98308625 C7.09301234,6.9917391 7.04478659,6.99962562 6.99599925,7.00001601 L6.90556547,6.98943601 C6.84509935,6.97595103 6.78530643,6.94980697 6.73234911,6.91222912 L3.23,3.5 Z"/>
  </g>
</svg>
