<svg width="56" height="56" viewBox="0 0 56 56" fill="none" xmlns="http://www.w3.org/2000/svg">
<circle cx="28" cy="28" r="28" fill="#FFF5D9"/>
<path fill-rule="evenodd" clip-rule="evenodd" d="M27.2902 22.2075C27.6434 21.9025 28.1802 21.9378 28.4892 22.2864L37.0001 31.8876L45.5109 22.2864C45.8199 21.9378 46.3567 21.9025 46.7099 22.2075C47.063 22.5126 47.0988 23.0424 46.7898 23.391L37.6395 33.7136C37.4782 33.8956 37.2451 34 37.0001 34C36.755 34 36.522 33.8956 36.3606 33.7136L27.2103 23.391C26.9013 23.0424 26.9371 22.5126 27.2902 22.2075Z" fill="#D04954"/>
<path fill-rule="evenodd" clip-rule="evenodd" d="M29.7098 33.7925C29.3567 34.0975 28.8199 34.0622 28.5109 33.7136L20 24.1124L11.4891 33.7136C11.1801 34.0622 10.6433 34.0975 10.2902 33.7925C9.93702 33.4874 9.90123 32.9576 10.2102 32.609L19.3606 22.2864C19.5219 22.1044 19.755 22 20 22C20.245 22 20.4781 22.1044 20.6394 22.2864L29.7898 32.609C30.0988 32.9576 30.063 33.4874 29.7098 33.7925Z" fill="#33CF90"/>
</svg>
