<?xml version="1.0" encoding="UTF-8"?>
<svg width="38px" height="44px" viewBox="0 0 38 44" version="1.1" xmlns="http://www.w3.org/2000/svg" xmlns:xlink="http://www.w3.org/1999/xlink">
    <!-- Generator: Sketch 55.2 (78181) - https://sketchapp.com -->
    <title>ic_wallet</title>
    <desc>Created with Sketch.</desc>
    <defs>
        <linearGradient x1="50%" y1="0%" x2="50%" y2="98.9864865%" id="linearGradient-1">
            <stop stop-color="#B69FE1" stop-opacity="0" offset="0%"></stop>
            <stop stop-color="#378EFC" stop-opacity="0.0990767045" offset="100%"></stop>
        </linearGradient>
    </defs>
    <g id="Page-1" stroke="none" stroke-width="1" fill="none" fill-rule="evenodd">
        <g id="ic_wallet" fill-rule="nonzero">
            <path d="M38,1.35714286 L38,4.07142857 L11.305,4.07142857 L4.38357143,0 L36.6428571,0 C37.3923864,0 38,0.607613554 38,1.35714286 Z" id="Path" fill="#87BDFF"></path>
            <polygon id="Path" fill="#87BDFF" points="20.534 9.5 38 9.5 38 6.786 15.919 6.786"></polygon>
            <path d="M25.7857143,12.5942857 C26.620478,13.0762134 27.1370392,13.9646986 27.1428571,14.9285714 L27.1428571,28.5 L36.6428571,28.5 C37.3923864,28.5 38,27.8923864 38,27.1428571 L38,12.2142857 L25.1478571,12.2142857 L25.7857143,12.5942857 Z" id="Path" fill="#87BDFF"></path>
            <path d="M21.3400636,25.1146088 L24.8027936,27.1489627 C25.1134726,27.3314866 25.5132925,27.2275963 25.6958164,26.9169173 C25.7546789,26.8167259 25.7857143,26.7026315 25.7857143,26.5864286 C25.7857143,25.8801706 25.4117371,25.226717 24.8027936,24.8689627 L21.3400636,22.8346088 C21.0293846,22.6520849 20.6295646,22.7559751 20.4470407,23.0666541 C20.3881782,23.1668456 20.3571429,23.2809399 20.3571429,23.3971429 C20.3571429,24.1034008 20.7311201,24.7568545 21.3400636,25.1146088 Z" id="Path" fill="#378EFC"></path>
            <path d="M25.1207143,13.7614286 L2.04928571,0.19 C1.62984057,-0.0586903025 1.10921886,-0.0632370712 0.685494232,0.178089539 C0.261769601,0.41941615 0,0.869514835 0,1.35714286 L0,23.0714286 C0,23.5505913 0.252836456,23.9941984 0.665,24.2385714 L23.7364286,37.81 C23.9459113,37.9342998 24.1849869,38 24.4285714,38 C25.1781007,38 25.7857143,37.3923864 25.7857143,36.6428571 L25.7857143,30.875 L18.3078571,26.4778571 C17.8956936,26.2334841 17.6429407,25.789877 17.6428571,25.3107143 L17.6428571,19.8821429 C17.6429422,19.3945148 17.9046267,18.9444162 18.3283514,18.7030895 C18.752076,18.4617629 19.2726977,18.4663097 19.6921429,18.715 L25.7857143,22.2978571 L25.7857143,14.9285714 C25.7857143,14.4494087 25.5328778,14.0058016 25.1207143,13.7614286 Z" id="Path" fill="#378EFC"></path>
            <path d="M25.3294737,39.5349722 C25.7450624,39.5799886 26,39.6617062 26,39.7499735 L26,39.7499735 L26,41.107482 L19.8557895,40.4474779 C19.4328586,40.4016662 18.9079104,40.4008287 18.4806645,40.4452838 C18.0534187,40.489739 17.7895594,40.5726524 17.7894737,40.6624792 L17.7894737,40.6624792 L17.7894737,41.6624855 C17.7895579,41.7507528 18.0444113,41.8324704 18.46,41.8774868 L18.46,41.8774868 L26,42.6874918 L26,43.7499984 C26,43.8880705 25.387337,44 24.6315789,44 C24.3859702,44 24.1449078,43.9878973 23.9336842,43.9649998 L23.9336842,43.9649998 L0.670526316,41.4649842 C0.25493759,41.4199679 0,41.3382503 0,41.2499829 L0,41.2499829 L0,37.249958 C0,37.1601312 0.263944972,37.0772178 0.69119086,37.0327626 C1.11843675,36.9883074 1.64338495,36.989145 2.06631579,37.0349566 L2.06631579,37.0349566 L10.834,37.976 L4,37 L36.6273718,37 C37.3854534,37 38,37.1492384 38,37.3333333 L38,38.1944444 L20.5974186,38.1944444 L18.304,38 L11.055,38 L25.3294737,39.5349722 Z M38,39 L38,41.75 C38,41.8880712 37.3853962,42 36.6272439,42 L36.6272439,42 L27.0179514,42 L27.0179514,39.5 C27.0120665,39.3224445 26.4895626,39.1587762 25.6451954,39.07 L25.6451954,39.07 L25,39 L38,39 Z M21.2070335,41.0241454 L25.7929665,41.5589812 C25.9109951,41.5727463 26,41.6727347 26,41.7915633 L26,41.7915633 L25.9987509,41.8130563 C25.9868806,41.9148376 25.8947478,41.9877249 25.7929665,41.9758547 L25.7929665,41.9758547 L21.2070335,41.4410188 C21.0890049,41.4272537 21,41.3272653 21,41.2084367 C21,41.2012542 21.0004171,41.1940778 21.0012491,41.1869437 C21.0131194,41.0851624 21.1052522,41.0122751 21.2070335,41.0241454 L21.2070335,41.0241454 Z" id="Shape" fill="url(#linearGradient-1)" transform="translate(19.000000, 40.500000) scale(-1, 1) rotate(-180.000000) translate(-19.000000, -40.500000) "></path>
        </g>
    </g>
</svg>