<svg width="32" height="32" viewBox="0 0 32 32" fill="none" xmlns="http://www.w3.org/2000/svg">
<path d="M0 10C0 4.47715 4.47715 0 10 0H22C27.5228 0 32 4.47715 32 10V22C32 27.5228 27.5228 32 22 32H10C4.47715 32 0 27.5228 0 22V10Z" fill="white"/>
<path d="M12.5282 11.4754C16.4849 7.84872 21.285 6.90748 23.2059 9.37943C25.1268 11.8514 23.4385 16.8477 19.4818 20.4744C15.5251 24.1279 10.725 25.0678 8.77504 22.569C6.88467 20.0715 8.57292 15.1008 12.5282 11.4754Z" fill="#F06321"/>
<path d="M15.1471 9.54072C14.7108 9.83612 14.2746 10.1852 13.8383 10.5625C10.376 13.7314 8.92045 18.0831 10.6378 20.2597C12.4118 22.4349 16.6593 21.6293 20.2089 18.4322C22.1298 16.7136 23.4094 14.725 23.9329 12.872C24.0783 11.5024 23.8748 10.2926 23.2059 9.37959C21.6936 7.44607 18.4349 7.60585 15.1471 9.54072Z" fill="#AE282E"/>
<path d="M20.1508 9.9434V10.024C20.1218 10.4805 19.8309 11.0444 19.3074 11.5278C18.5222 12.226 17.4752 12.4946 17.0375 12.0931C16.5431 11.6634 16.8354 10.7222 17.6206 9.97025C18.4349 9.24518 19.4819 9.00349 19.9181 9.43316C20.0636 9.56744 20.1508 9.72856 20.1508 9.9434ZM17.1262 22.2736C15.2634 23.5627 13.344 24.2085 11.4813 23.94C12.2665 23.9668 12.9077 23.1598 13.4312 22.0857C13.9547 20.9846 14.2456 19.9642 14.5073 18.996C14.8854 17.4653 14.9145 16.3912 14.7109 16.1495C14.391 15.7722 13.693 15.8541 12.8772 16.2837C12.4701 16.4986 11.9466 16.3643 12.5588 15.6661C13.1986 14.9679 15.6706 13.3016 16.5431 13.033C17.5333 12.7913 18.6385 13.1404 18.2604 14.134C17.9972 14.8591 14.5655 23.133 17.1262 22.2736Z" fill="white"/>
<path d="M10 1H22V-1H10V1ZM31 10V22H33V10H31ZM22 31H10V33H22V31ZM1 22V10H-1V22H1ZM10 31C5.02944 31 1 26.9706 1 22H-1C-1 28.0751 3.92487 33 10 33V31ZM31 22C31 26.9706 26.9706 31 22 31V33C28.0751 33 33 28.0751 33 22H31ZM22 1C26.9706 1 31 5.02944 31 10H33C33 3.92487 28.0751 -1 22 -1V1ZM10 -1C3.92487 -1 -1 3.92487 -1 10H1C1 5.02944 5.02944 1 10 1V-1Z" fill="#ECECF1"/>
</svg>
