<svg width="54" height="54" viewBox="0 0 54 54" fill="none" xmlns="http://www.w3.org/2000/svg">
<path d="M18.147 31.5523L15.3513 28.787C14.7516 28.194 14.2718 27.4933 13.9376 26.7225L12.5679 23.5638C12.3568 23.0772 11.8731 22.7616 11.3378 22.7612C10.8827 22.7619 10.4591 22.9909 10.2129 23.3694C9.96678 23.7479 9.93173 24.2241 10.1199 24.6338L12.5183 29.8522C12.8125 30.4919 13.2204 31.0741 13.7227 31.5711L18.147 35.9476H24.0736V34.216C24.0936 32.92 23.6681 31.6556 22.8668 30.6299C22.4189 30.0455 21.8088 29.6024 21.1109 29.3547C19.7523 28.7876 18.4999 27.9982 17.4064 27.0197C16.5332 26.2988 15.2476 26.3577 14.4455 27.1553" fill="#A998D2"/>
<path d="M36.433 31.5523L39.2293 28.787C39.8289 28.194 40.3087 27.4933 40.643 26.7225L42.0133 23.5638C42.2245 23.0768 42.7089 22.7612 43.2447 22.7612C43.6995 22.7623 44.1227 22.9915 44.3686 23.3699C44.6145 23.7483 44.6494 24.2243 44.4613 24.6338L42.0629 29.8522C41.7687 30.4919 41.3608 31.0741 40.8584 31.5711L36.433 35.9476H30.5076V34.216C30.4877 32.9199 30.9135 31.6556 31.715 30.63C32.1629 30.0455 32.773 29.6024 33.4709 29.3547C34.8294 28.7876 36.0815 27.9982 37.1748 27.0197C38.0483 26.299 39.3338 26.3579 40.1363 27.1553" fill="#A998D2"/>
<rect x="37.2397" y="42" width="7.9561" height="6.0524" rx="0.664978" transform="rotate(-180 37.2397 42)" fill="#4F2DA7"/>
<path d="M32.3436 39.579H31.7316C31.3936 39.579 31.1196 39.3081 31.1196 38.9738C31.1196 38.6395 31.3936 38.3686 31.7316 38.3686H32.3436C32.6816 38.3686 32.9556 38.6395 32.9556 38.9738C32.9556 39.3081 32.6816 39.579 32.3436 39.579Z" fill="white"/>
<rect x="17.3409" y="35.9476" width="7.9561" height="6.0524" rx="0.664978" fill="#4F2DA7"/>
<path d="M22.8496 39.579H22.2376C21.8996 39.579 21.6256 39.3081 21.6256 38.9738C21.6256 38.6395 21.8996 38.3686 22.2376 38.3686H22.8496C23.1876 38.3686 23.4616 38.6395 23.4616 38.9738C23.4616 39.3081 23.1876 39.579 22.8496 39.579Z" fill="white"/>
<path d="M19.1286 31.7049C18.8873 31.9389 18.5009 31.9389 18.2595 31.7049L15.4627 28.9389C15.0556 28.5362 14.6982 28.0872 14.3978 27.6013C14.3427 27.5106 14.2937 27.4258 14.2448 27.335L14.4773 27.1232C14.6966 26.905 14.9621 26.7376 15.2546 26.633C15.537 27.1684 15.9002 27.6582 16.3317 28.0855L19.1286 30.8454C19.3673 31.0833 19.3673 31.467 19.1286 31.7049Z" fill="#8D7FB2"/>
<path d="M35.5003 31.7049C35.7417 31.9389 36.128 31.9389 36.3694 31.7049L39.1663 28.9389C39.5733 28.5362 39.9308 28.0872 40.2312 27.6013C40.2862 27.5106 40.3352 27.4258 40.3842 27.335L40.1516 27.1232C39.9323 26.905 39.6668 26.7376 39.3743 26.633C39.0919 27.1684 38.7287 27.6582 38.2972 28.0855L35.5003 30.8454C35.2617 31.0833 35.2617 31.467 35.5003 31.7049Z" fill="#8D7FB2"/>
<path d="M31.9931 12.0003C29.9859 11.9797 28.23 13.001 27.2906 14.5268C26.351 13.001 24.5953 11.9795 22.588 12.0003C19.5899 12.0311 17.2096 14.4321 17.2803 17.2653C17.4386 23.5962 25.4493 29.1029 27.0236 30.1249C27.1846 30.2295 27.3966 30.2295 27.5575 30.1249C29.1318 29.1029 37.1426 23.5962 37.3009 17.2653C37.3716 14.4321 34.9912 12.0311 31.9931 12.0003Z" fill="#4F2DA7"/>
<rect x="26.3445" y="17.9712" width="1.8922" height="6.26099" fill="white" stroke="white" stroke-width="0.8"/>
<path d="M30.4211 20.5556V20.1556H30.0211H24.5601H24.1601V20.5556V21.6477V22.0477H24.5601H30.0211H30.4211V21.6477V20.5556Z" fill="white" stroke="white" stroke-width="0.8"/>
</svg>
