<svg width="54" height="54" viewBox="0 0 54 54" fill="none" xmlns="http://www.w3.org/2000/svg">
<path d="M27 42C26.9034 42 26.8068 41.9864 26.7136 41.9592C23.0001 40.8757 19.8206 38.769 17.5186 35.8669C15.2167 32.9647 14 29.5288 14 25.9307V16.9805C14 16.4951 14.4259 16.1016 14.9512 16.1016C17.6987 16.1016 20.1966 14.7096 21.4757 12.4689C21.6403 12.1805 21.9642 12 22.317 12H31.6829C32.0358 12 32.3597 12.1805 32.5243 12.4689C33.8034 14.7096 36.3013 16.1016 39.0431 16.1016C39.5684 16.1016 40 16.4951 40 16.9805V25.9307C40 29.5288 38.7833 32.9647 36.4814 35.8668C34.1794 38.769 30.9999 40.8756 27.2864 41.9592C27.1932 41.9864 27.0966 42 27 42Z" fill="#3792FC"/>
<path d="M27.0001 38.2607C26.8756 38.2607 26.7511 38.2381 26.634 38.193C21.2705 36.1265 17.8049 31.3133 17.8049 25.9308V19.9351C17.8049 19.5554 18.0687 19.2187 18.4591 19.1001C20.478 18.4868 22.2562 17.3589 23.6012 15.8384C23.7819 15.6341 24.0522 15.5156 24.3377 15.5156H29.6623C29.9478 15.5156 30.2183 15.6341 30.3989 15.8384C31.7438 17.3592 33.522 18.4872 35.5411 19.1007C35.9314 19.2193 36.1951 19.556 36.1951 19.9356V25.9308C36.1951 31.3133 32.7296 36.1265 27.3661 38.1929C27.249 38.238 27.1245 38.2607 27.0001 38.2607Z" fill="#A9D1FF"/>
<path d="M25.5204 30.56C25.277 30.56 25.0335 30.4742 24.8478 30.3025L21.8885 27.5681C21.517 27.2249 21.517 26.6684 21.8885 26.3252C22.2599 25.9819 22.8622 25.9819 23.2337 26.3252L25.5205 28.4381L30.7666 23.5908C31.138 23.2476 31.7403 23.2476 32.1118 23.5908C32.4833 23.9341 32.4833 24.4906 32.1118 24.8338L26.1931 30.3025C26.0073 30.4742 25.7639 30.56 25.5204 30.56Z" fill="white"/>
</svg>
