<svg width="54" height="54" viewBox="0 0 54 54" fill="none" xmlns="http://www.w3.org/2000/svg">
<path d="M42.4974 20.6774C42.6092 16.0082 38.8447 12.0513 34.1034 12.0005C30.929 11.9665 28.1521 13.6497 26.6665 16.1644C25.1805 13.6497 22.4039 11.9662 19.2295 12.0005C14.4882 12.0513 10.7237 16.0082 10.8356 20.6774C11.0859 31.1112 23.7546 40.1864 26.2443 41.8707C26.4988 42.0431 26.8341 42.0431 27.0886 41.8707C29.5784 40.1864 42.2471 31.1112 42.4974 20.6774Z" fill="#A998D2"/>
<path d="M26.5721 35.7481C26.1586 35.7481 25.8033 35.4539 25.7265 35.047L23.6254 23.8859L21.3897 29.199C21.2595 29.5085 20.9614 29.7138 20.626 29.7252C20.2901 29.7367 19.979 29.5518 19.8282 29.2519L19.2306 28.064H10.8603C10.3853 28.064 10 27.6787 10 27.2037C10 26.7284 10.3853 26.3433 10.8603 26.3433H19.7608C20.0843 26.3433 20.3803 26.5247 20.5271 26.8126L23.1488 20.5826C23.2961 20.2324 23.6557 20.0203 24.0328 20.0608C24.4105 20.1009 24.7169 20.3837 24.7874 20.7571L26.5197 29.9605L27.2367 25.6542C27.3056 25.2391 27.6644 24.935 28.085 24.935H30.8929C31.1839 24.935 31.4552 25.0819 31.6139 25.3256L32.9323 27.3492L33.5009 26.6574C33.6644 26.4585 33.9083 26.3433 34.1657 26.3433H42.4731C42.9482 26.3433 43.3332 26.7286 43.3332 27.2037C43.3332 27.6787 42.9482 28.064 42.4731 28.064H34.5723L33.5169 29.3481C33.343 29.5597 33.0782 29.6759 32.8049 29.6609C32.531 29.6459 32.281 29.5012 32.1314 29.2715L30.427 26.6556H28.8142L27.4208 35.0289C27.3524 35.4404 26.9984 35.7436 26.5813 35.7479C26.5782 35.7479 26.5749 35.7481 26.5721 35.7481Z" fill="#4F2DA7"/>
</svg>
