<svg xmlns="http://www.w3.org/2000/svg" xmlns:xlink="http://www.w3.org/1999/xlink" width="70" height="60" viewBox="0 0 70 60">
    <defs>
        <rect id="prefix__a" width="70" height="60" x="0" y="0" rx="4"/>
    </defs>
    <g fill="none" fill-rule="evenodd">
        <mask id="prefix__b" fill="#fff">
            <use xlink:href="#prefix__a"/>
        </mask>
        <use fill="#FFF" xlink:href="#prefix__a"/>
        <g fill-rule="nonzero" mask="url(#prefix__b)" opacity=".05">
            <g>
                <path fill="#5721AE" d="M66.577 0c-6.699 0-18.268 0-20.704 6.698-2.436 6.699 17.816 6.306 22.53 11.02 4.715 4.715 12.316 4.204 19.487 4.204 7.17 0 5.811 7.903 11.57 6.698 5.758-1.204.608-7.24 2.435-10.902V0H66.577zM34.535 58.194c23.91-8.5 34.536 10.627 34.536 0 0-10.626-12.752-15.94-19.127-22.315-6.376-6.376-3.586-17.002-13.283-17.002-9.698 0-4.812 5.957-15.408 10.626C10.656 34.173 0 22.065 0 35.88s10.626 30.816 34.535 22.315z" transform="translate(-28)"/>
                <path fill="#5721AE" d="M74.116 46.625c-23.909-8.502-34.535 10.626-34.535 0 0-10.627 12.752-15.94 19.127-22.316 6.376-6.375 3.586-17.002 13.283-17.002s4.812 5.957 15.408 10.627c10.597 4.67 21.253-7.439 21.253 6.375S98.026 55.126 74.116 46.625z" transform="translate(-28)"/>
                <path fill="#3792FC" d="M36.152 30.542c.86-.41 1.74-.885 2.516-1.441.285-.204.004-.603-.295-.445-.828.434-1.637.995-2.374 1.566-.152.114-.043.413.153.32zM92.61 38.904c-.18-.936-.414-1.91-.755-2.8-.124-.327-.582-.159-.506.172.209.913.546 1.835.91 2.695.074.175.392.146.35-.067zM39.335 13.595c-.017-.015-.032-.03-.049-.042-.213-.19-.562-.226-.769 0-.208.227-.202.541 0 .769.015.017.03.031.042.048.19.215.584.209.776 0 .19-.208.227-.573 0-.775zM88.301 16.905c.054-.348.044-.68.237-.987.39-.61.941-.458 1.476-.188.544.275 1.058.437 1.649.183.923-.4 1.358-1.794.475-2.45-.285-.214-.567.137-.529.407.054.374.24.789-.081 1.11-.43.43-.934.068-1.364-.126-.463-.208-.957-.254-1.433-.06-.822.333-1.42 1.447-.766 2.2.092.105.313.056.336-.089zM78.768 52.16c-.844.811-1.164 2.073-.36 3.05.757.918 2.228 1.11 3.174.38 2.288-1.768-.098-5.022-2.565-4.349-.457.125-.343.778.108.801.72.04 1.494.067 2.07.576.62.541.633 1.46.124 2.086-1.346 1.653-3.682-.78-2.268-2.261.182-.185-.094-.461-.283-.283zM29.235 46.778c.264.98.553 1.948.857 2.917.071.232.292.307.493.17.788-.537 1.573-1.061 2.32-1.654.144-.115.112-.344-.028-.442-.874-.598-2.052-1.484-3.16-1.49-.281-.003-.48.396-.193.56.447.257.983.349 1.462.546.55.23 1.097.499 1.584.846.012-.16.023-.321.032-.482-.834.513-1.62 1.09-2.41 1.662l.467.095c-.338-.957-.685-1.906-1.06-2.848-.08-.198-.418-.09-.364.12z" transform="translate(-28)"/>
            </g>
        </g>
        <g mask="url(#prefix__b)">
            <g fill-rule="nonzero">
                <path fill="#E0CDFF" d="M13.85 27.702C6.215 27.702 0 21.488 0 13.85 0 6.214 6.214 0 13.85 0c7.638 0 13.852 6.214 13.852 13.85 0 7.638-6.214 13.852-13.851 13.852z" transform="translate(19 15)"/>
                <path fill="#AD95D6" d="M20.315 23.085c-7.638 0-13.851-6.214-13.851-13.851 0-3.197 1.099-6.136 2.925-8.483C3.937 2.614 0 7.776 0 13.851 0 21.488 6.214 27.7 13.85 27.7c4.441 0 8.39-2.108 10.926-5.367-1.402.479-2.9.75-4.461.75z" transform="translate(19 15)"/>
                <path fill="#F3ECFF" d="M21.312 6.156h4.049c-.238-.354-.492-.696-.76-1.026H20.91c-.816-1.916-1.894-3.486-3.142-4.562C16.525.2 15.211 0 13.851 0c-1.36 0-2.674.2-3.917.568C8.686 1.644 7.608 3.214 6.792 5.13H3.1c-.269.33-.523.672-.76 1.026H6.39c-.75 2.11-1.2 4.561-1.252 7.182H.013c-.006.17-.013.34-.013.513 0 .172.007.342.013.513h5.125c.052 2.62.501 5.072 1.252 7.182H2.34c.238.354.492.696.76 1.026h3.692c.816 1.916 1.894 3.486 3.142 4.562 1.243.367 2.556.568 3.917.568 1.36 0 2.674-.2 3.917-.568 1.248-1.076 2.326-2.646 3.142-4.562H24.6c.268-.33.522-.672.76-1.026h-4.05c.751-2.11 1.2-4.561 1.253-7.182h5.125c.006-.17.013-.341.013-.513s-.007-.343-.013-.513h-5.125c-.052-2.621-.502-5.073-1.252-7.182zm-7.974 21.511c-2.2-.262-4.149-2.192-5.46-5.095h5.46v5.095zm0-6.121H7.456c-.77-2.07-1.239-4.532-1.293-7.182h7.175v7.182zm0-8.208H6.163c.054-2.65.522-5.113 1.293-7.182h5.882v7.182zm0-8.208h-5.46C9.19 2.227 11.138.296 13.338.034V5.13zM14.364.034c2.2.262 4.148 2.193 5.46 5.096h-5.46V.034zm0 27.633v-5.095h5.46c-1.311 2.903-3.26 4.833-5.46 5.095zm5.881-6.121h-5.881v-7.182h7.174c-.053 2.65-.521 5.113-1.293 7.182zm-5.881-8.208V6.156h5.881c.771 2.07 1.24 4.532 1.293 7.182h-7.174z" transform="translate(19 15)"/>
                <g>
                    <path fill="#9F75E7" d="M13.546.067h-5.41c-.214 0-.387.173-.387.387v3.478h1.478V1.613h3.16v2.32h1.546V.452c0-.213-.173-.386-.387-.386zM21.276 17.846H.406c-.213 0-.387-.173-.387-.387V4.32c0-.214.174-.387.387-.387h20.87c.214 0 .387.173.387.387v13.14c0 .214-.173.387-.387.387z" transform="translate(19 15) translate(9.959 9.568)"/>
                    <path fill="#CAD8EB" d="M21.276 3.932h-.773c.214 0 .387.173.387.387v13.14c0 .214-.173.387-.387.387h.773c.214 0 .387-.173.387-.387V4.32c0-.214-.173-.387-.387-.387z" transform="translate(19 15) translate(9.959 9.568)"/>
                    <path fill="#E0CDFF" d="M3.111 3.932L4.657 3.932 4.657 17.846 3.111 17.846zM17.025 12.048L18.571 12.048 18.571 17.846 17.025 17.846z" transform="translate(19 15) translate(9.959 9.568)"/>
                    <path fill="#5721AE" d="M23.85 10.46c.343.514-.025 1.202-.643 1.202h-12.57c-.618 0-.986-.688-.644-1.202l6.286-9.428c.306-.459.98-.459 1.286 0l6.285 9.428z" transform="translate(19 15) translate(9.959 9.568)"/>
                    <path fill="#FFF" d="M16.922 3.159L21.56 10.116 12.284 10.116z" transform="translate(19 15) translate(9.959 9.568)"/>
                    <path fill="#5721AE" d="M17.196 7.713l.076-1.02V4.937h-.532v1.756l.076 1.02h.38zm-.19 1.338c.122 0 .221-.036.297-.11.076-.074.114-.17.114-.289 0-.118-.038-.215-.114-.288-.076-.074-.175-.11-.297-.11-.123 0-.222.036-.298.11-.076.073-.114.17-.114.288 0 .119.038.215.114.289.076.074.175.11.298.11z" transform="translate(19 15) translate(9.959 9.568)"/>
                </g>
            </g>
        </g>
    </g>
</svg>
