<svg xmlns="http://www.w3.org/2000/svg" xmlns:xlink="http://www.w3.org/1999/xlink" width="40" height="40" viewBox="0 0 40 40">
    <defs>
        <circle id="j3xave105a" cx="19" cy="19" r="19"/>
    </defs>
    <g fill="none" fill-rule="evenodd" transform="translate(1 1)">
        <mask id="y2a63a8y9b" fill="#fff">
            <use xlink:href="#j3xave105a"/>
        </mask>
        <circle cx="19" cy="19" r="19.5" stroke="#ECECEC"/>
        <g fill-rule="nonzero" mask="url(#y2a63a8y9b)">
            <g>
                <path fill="#5F6368" d="M14.29 5.834v3.504h-1.11V.69h2.944c.71-.014 1.393.255 1.91.751.518.462.807 1.131.794 1.821.013.697-.276 1.366-.794 1.835-.517.49-1.151.737-1.903.737H14.29zm0-4.082v3.02h1.862c.414.014.814-.151 1.096-.448.586-.565.593-1.496.028-2.083l-.028-.027c-.282-.304-.682-.47-1.096-.455l-1.862-.007zm7.096 1.476c.82 0 1.47.22 1.945.655.476.441.71 1.041.71 1.807V9.33H22.98v-.82h-.048c-.462.675-1.069 1.013-1.834 1.013-.649 0-1.2-.193-1.635-.58-.428-.358-.669-.889-.655-1.447 0-.614.234-1.097.696-1.463.463-.365 1.083-.544 1.856-.544.662 0 1.2.124 1.627.358v-.255c0-.38-.165-.738-.455-.98-.297-.261-.676-.406-1.069-.406-.62 0-1.11.262-1.476.786l-.98-.614c.532-.765 1.325-1.151 2.38-1.151zm-1.434 4.296c0 .29.138.559.365.724.249.193.552.297.862.29.47 0 .918-.186 1.249-.517.365-.345.551-.752.551-1.221-.345-.276-.827-.414-1.448-.414-.448 0-.828.11-1.131.324-.297.221-.448.49-.448.814zm10.186-4.103l-3.71 8.524h-1.145l1.38-2.98-2.442-5.537h1.207l1.758 4.248h.028l1.717-4.248 1.207-.007z" transform="translate(4 13)"/>
                <path fill="#4285F4" d="M9.8 5.076c0-.338-.028-.676-.083-1.007H5.034v1.91h2.683c-.11.614-.469 1.166-.993 1.51v1.242h1.6C9.262 7.869 9.8 6.593 9.8 5.076z" transform="translate(4 13)"/>
                <path fill="#34A853" d="M5.034 9.931c1.338 0 2.47-.441 3.29-1.2l-1.6-1.241c-.448.303-1.02.476-1.69.476-1.296 0-2.393-.876-2.786-2.049H.6V7.2c.841 1.669 2.559 2.731 4.434 2.731z" transform="translate(4 13)"/>
                <path fill="#FBBC04" d="M2.248 5.917c-.207-.614-.207-1.283 0-1.903V2.738H.6c-.71 1.4-.71 3.055 0 4.455l1.648-1.276z" transform="translate(4 13)"/>
                <path fill="#EA4335" d="M5.034 1.966c.71-.014 1.394.255 1.904.744l1.414-1.413C7.455.448 6.269-.013 5.034 0 3.16 0 1.441 1.062.6 2.738L2.248 4.02c.393-1.18 1.49-2.055 2.786-2.055z" transform="translate(4 13)"/>
            </g>
        </g>
    </g>
</svg>
