<svg width="910" height="75" viewBox="0 0 910 75" fill="none" xmlns="http://www.w3.org/2000/svg">
<g clip-path="url(#clip0_6202_62138)">
<path d="M747.594 0H369.406C368.629 0 368 0.89543 368 2V74C368 75.1046 368.629 76 369.406 76H747.594C748.371 76 749 75.1046 749 74V2C749 0.89543 748.371 0 747.594 0Z" fill="white"/>
<path d="M432.956 24.4563C432.838 24.4563 432.731 24.4148 432.637 24.3317C432.554 24.2368 432.513 24.13 432.513 24.0114V12.4449C432.513 12.3144 432.554 12.2076 432.637 12.1246C432.731 12.0415 432.838 12 432.956 12H435.334C435.464 12 435.57 12.0415 435.653 12.1246C435.748 12.2076 435.795 12.3144 435.795 12.4449V24.0114C435.795 24.1419 435.748 24.2487 435.653 24.3317C435.57 24.4148 435.464 24.4563 435.334 24.4563H432.956Z" fill="#0C2343"/>
<path d="M438.886 24.4563C438.767 24.4563 438.661 24.4148 438.566 24.3317C438.484 24.2368 438.442 24.13 438.442 24.0114V12.4449C438.442 12.3144 438.484 12.2076 438.566 12.1246C438.661 12.0415 438.767 12 438.886 12H440.766C441.062 12 441.263 12.1127 441.37 12.3381L445.699 19.1713V12.4449C445.699 12.3144 445.74 12.2076 445.823 12.1246C445.917 12.0415 446.024 12 446.142 12H448.271C448.401 12 448.508 12.0415 448.59 12.1246C448.673 12.2076 448.715 12.3144 448.715 12.4449V23.9936C448.715 24.1241 448.673 24.2368 448.59 24.3317C448.508 24.4148 448.401 24.4563 448.271 24.4563H446.373C446.113 24.4563 445.917 24.3436 445.787 24.1182L441.458 17.5341V24.0114C441.458 24.13 441.417 24.2368 441.334 24.3317C441.251 24.4148 441.145 24.4563 441.015 24.4563H438.886Z" fill="#0C2343"/>
<path d="M379.945 44.2277C379.85 44.2277 379.762 44.1921 379.679 44.121C379.608 44.0379 379.573 43.949 379.573 43.8541C379.573 43.7829 379.578 43.7295 379.59 43.6939L383.76 32.2697C383.795 32.1274 383.872 32.0087 383.99 31.9138C384.108 31.8189 384.262 31.7715 384.451 31.7715H387.077C387.267 31.7715 387.42 31.8189 387.539 31.9138C387.657 32.0087 387.734 32.1274 387.769 32.2697L391.921 43.6939L391.956 43.8541C391.956 43.949 391.915 44.0379 391.832 44.121C391.761 44.1921 391.672 44.2277 391.566 44.2277H389.384C389.1 44.2277 388.911 44.1032 388.816 43.8541L388.124 42.039H383.387L382.713 43.8541C382.618 44.1032 382.423 44.2277 382.127 44.2277H379.945ZM387.414 39.4766L385.764 34.7788L384.114 39.4766H387.414Z" fill="#0C2343"/>
<path d="M397.972 44.406C396.848 44.406 395.884 44.2398 395.08 43.9076C394.276 43.5755 393.667 43.1425 393.253 42.6086C392.851 42.0629 392.638 41.4698 392.614 40.8292C392.614 40.7342 392.65 40.6512 392.721 40.58C392.803 40.497 392.898 40.4555 393.004 40.4555H395.24C395.382 40.4555 395.494 40.4852 395.577 40.5445C395.672 40.592 395.766 40.6691 395.861 40.7759C396.015 41.0843 396.263 41.3393 396.606 41.5409C396.949 41.7426 397.404 41.8435 397.972 41.8435C398.646 41.8435 399.161 41.7367 399.516 41.5231C399.87 41.3096 400.048 41.0191 400.048 40.6513C400.048 40.3903 399.953 40.1767 399.764 40.0106C399.587 39.8445 399.303 39.6962 398.912 39.5657C398.522 39.4352 397.943 39.287 397.174 39.121C395.754 38.8244 394.69 38.3914 393.98 37.822C393.282 37.2407 392.933 36.4161 392.933 35.3484C392.933 34.6247 393.134 33.9782 393.537 33.4088C393.939 32.8393 394.512 32.3946 395.258 32.0743C396.003 31.754 396.872 31.5938 397.866 31.5938C398.895 31.5938 399.788 31.7717 400.545 32.1276C401.302 32.4835 401.875 32.9343 402.266 33.4801C402.668 34.0139 402.881 34.5417 402.904 35.0637C402.904 35.1704 402.869 35.2594 402.798 35.3306C402.727 35.4018 402.638 35.4374 402.532 35.4374H400.19C400.048 35.4374 399.93 35.4137 399.835 35.3663C399.752 35.3188 399.675 35.2417 399.604 35.135C399.533 34.8621 399.338 34.6308 399.019 34.441C398.711 34.2512 398.327 34.1561 397.866 34.1561C397.333 34.1561 396.925 34.2512 396.641 34.441C396.358 34.6308 396.216 34.9096 396.216 35.2773C396.216 35.5264 396.293 35.7339 396.446 35.9C396.612 36.0661 396.872 36.2203 397.227 36.3627C397.594 36.4932 398.114 36.6297 398.788 36.7721C399.888 36.9737 400.763 37.2287 401.414 37.5371C402.076 37.8337 402.561 38.2252 402.869 38.7116C403.176 39.1861 403.33 39.7852 403.33 40.5088C403.33 41.3037 403.099 41.9977 402.638 42.5908C402.189 43.1721 401.556 43.623 400.74 43.9433C399.935 44.2518 399.013 44.406 397.972 44.406Z" fill="#0C2343"/>
<path d="M409.914 44.406C408.79 44.406 407.826 44.2398 407.022 43.9076C406.218 43.5755 405.608 43.1425 405.194 42.6086C404.792 42.0629 404.579 41.4698 404.556 40.8292C404.556 40.7342 404.591 40.6512 404.662 40.58C404.745 40.497 404.84 40.4555 404.946 40.4555H407.182C407.323 40.4555 407.436 40.4852 407.519 40.5445C407.613 40.592 407.708 40.6691 407.803 40.7759C407.956 41.0843 408.205 41.3393 408.548 41.5409C408.891 41.7426 409.346 41.8435 409.914 41.8435C410.588 41.8435 411.102 41.7367 411.457 41.5231C411.812 41.3096 411.99 41.0191 411.99 40.6513C411.99 40.3903 411.895 40.1767 411.706 40.0106C411.528 39.8445 411.244 39.6962 410.854 39.5657C410.464 39.4352 409.884 39.287 409.115 39.121C407.696 38.8244 406.632 38.3914 405.922 37.822C405.224 37.2407 404.875 36.4161 404.875 35.3484C404.875 34.6247 405.076 33.9782 405.478 33.4088C405.88 32.8393 406.454 32.3946 407.199 32.0743C407.944 31.754 408.814 31.5938 409.807 31.5938C410.836 31.5938 411.729 31.7717 412.486 32.1276C413.243 32.4835 413.817 32.9343 414.207 33.4801C414.609 34.0139 414.822 34.5417 414.846 35.0637C414.846 35.1704 414.811 35.2594 414.74 35.3306C414.669 35.4018 414.58 35.4374 414.473 35.4374H412.132C411.99 35.4374 411.871 35.4137 411.777 35.3663C411.694 35.3188 411.617 35.2417 411.546 35.135C411.475 34.8621 411.28 34.6308 410.961 34.441C410.653 34.2512 410.269 34.1561 409.807 34.1561C409.275 34.1561 408.867 34.2512 408.583 34.441C408.299 34.6308 408.157 34.9096 408.157 35.2773C408.157 35.5264 408.234 35.7339 408.388 35.9C408.554 36.0661 408.814 36.2203 409.169 36.3627C409.535 36.4932 410.056 36.6297 410.73 36.7721C411.83 36.9737 412.705 37.2287 413.356 37.5371C414.018 37.8337 414.503 38.2252 414.811 38.7116C415.118 39.1861 415.272 39.7852 415.272 40.5088C415.272 41.3037 415.041 41.9977 414.58 42.5908C414.13 43.1721 413.498 43.623 412.681 43.9433C411.877 44.2518 410.955 44.406 409.914 44.406Z" fill="#0C2343"/>
<path d="M422.299 44.406C420.631 44.406 419.318 43.9966 418.36 43.178C417.402 42.3595 416.894 41.1554 416.835 39.5657C416.823 39.2217 416.817 38.7116 416.817 38.0354C416.817 37.3473 416.823 36.8313 416.835 36.4873C416.894 34.9213 417.408 33.7172 418.378 32.8749C419.36 32.0208 420.667 31.5938 422.299 31.5938C423.931 31.5938 425.238 32.0208 426.22 32.8749C427.202 33.7172 427.716 34.9213 427.763 36.4873C427.787 37.1753 427.799 37.6914 427.799 38.0354C427.799 38.3676 427.787 38.8777 427.763 39.5657C427.704 41.1554 427.196 42.3595 426.238 43.178C425.28 43.9966 423.967 44.406 422.299 44.406ZM422.299 41.8435C422.95 41.8435 423.464 41.6478 423.843 41.2563C424.233 40.8647 424.44 40.2658 424.464 39.4591C424.487 38.771 424.499 38.2845 424.499 37.9998C424.499 37.6914 424.487 37.205 424.464 36.5406C424.44 35.7339 424.233 35.1349 423.843 34.7434C423.452 34.3519 422.938 34.1561 422.299 34.1561C421.66 34.1561 421.146 34.3519 420.756 34.7434C420.377 35.1349 420.17 35.7339 420.135 36.5406C420.123 36.8728 420.117 37.3592 420.117 37.9998C420.117 38.6285 420.123 39.115 420.135 39.4591C420.17 40.2658 420.377 40.8647 420.756 41.2563C421.134 41.6478 421.649 41.8435 422.299 41.8435Z" fill="#0C2343"/>
<path d="M435.125 44.406C433.433 44.406 432.109 43.9966 431.151 43.178C430.204 42.3476 429.702 41.1495 429.643 39.5835C429.631 39.2632 429.625 38.7412 429.625 38.0176C429.625 37.2821 429.631 36.7483 429.643 36.4162C429.702 34.874 430.216 33.6876 431.186 32.8571C432.156 32.0149 433.469 31.5938 435.125 31.5938C436.166 31.5938 437.1 31.7717 437.928 32.1276C438.756 32.4716 439.406 32.9699 439.88 33.6224C440.365 34.263 440.613 35.0162 440.625 35.8822V35.9178C440.625 36.0127 440.583 36.0958 440.501 36.1669C440.43 36.2263 440.347 36.2559 440.252 36.2559H437.857C437.703 36.2559 437.585 36.2263 437.502 36.1669C437.419 36.0958 437.348 35.9712 437.289 35.7933C437.124 35.1882 436.863 34.7671 436.509 34.5298C436.154 34.2807 435.687 34.1561 435.107 34.1561C433.711 34.1561 432.99 34.9391 432.943 36.505C432.931 36.8254 432.925 37.3177 432.925 37.982C432.925 38.6463 432.931 39.1505 432.943 39.4946C432.99 41.0605 433.711 41.8435 435.107 41.8435C435.687 41.8435 436.16 41.719 436.526 41.4699C436.893 41.2089 437.147 40.7877 437.289 40.2064C437.337 40.0285 437.402 39.9099 437.484 39.8505C437.567 39.7794 437.691 39.7437 437.857 39.7437H440.252C440.359 39.7437 440.447 39.7794 440.518 39.8505C440.601 39.9217 440.637 40.0106 440.625 40.1174C440.613 40.9834 440.365 41.7427 439.88 42.3952C439.406 43.0358 438.756 43.5339 437.928 43.8898C437.1 44.2339 436.166 44.406 435.125 44.406Z" fill="#0C2343"/>
<path d="M443.111 44.2277C442.993 44.2277 442.886 44.1862 442.792 44.1032C442.709 44.0083 442.668 43.9015 442.668 43.7829V32.2163C442.668 32.0858 442.709 31.9791 442.792 31.896C442.886 31.813 442.993 31.7715 443.111 31.7715H445.489C445.619 31.7715 445.725 31.813 445.808 31.896C445.903 31.9791 445.95 32.0858 445.95 32.2163V43.7829C445.95 43.9134 445.903 44.0201 445.808 44.1032C445.725 44.1862 445.619 44.2277 445.489 44.2277H443.111Z" fill="#0C2343"/>
<path d="M447.888 44.2277C447.793 44.2277 447.704 44.1921 447.621 44.121C447.551 44.0379 447.515 43.949 447.515 43.8541C447.515 43.7829 447.521 43.7295 447.533 43.6939L451.702 32.2697C451.738 32.1274 451.814 32.0087 451.933 31.9138C452.051 31.8189 452.205 31.7715 452.394 31.7715H455.02C455.209 31.7715 455.363 31.8189 455.481 31.9138C455.599 32.0087 455.676 32.1274 455.712 32.2697L459.863 43.6939L459.899 43.8541C459.899 43.949 459.857 44.0379 459.775 44.121C459.704 44.1921 459.615 44.2277 459.508 44.2277H457.326C457.042 44.2277 456.853 44.1032 456.758 43.8541L456.067 42.039H451.329L450.655 43.8541C450.561 44.1032 450.366 44.2277 450.07 44.2277H447.888ZM455.357 39.4766L453.707 34.7788L452.057 39.4766H455.357Z" fill="#0C2343"/>
<path d="M463.386 44.2277C463.267 44.2277 463.161 44.1862 463.066 44.1032C462.983 44.0083 462.942 43.9015 462.942 43.7829V34.5652H459.784C459.666 34.5652 459.559 34.5237 459.465 34.4407C459.382 34.3458 459.34 34.239 459.34 34.1204V32.2163C459.34 32.0858 459.382 31.9791 459.465 31.896C459.559 31.813 459.666 31.7715 459.784 31.7715H469.329C469.459 31.7715 469.566 31.813 469.648 31.896C469.731 31.9791 469.773 32.0858 469.773 32.2163V34.1204C469.773 34.2509 469.731 34.3576 469.648 34.4407C469.566 34.5237 469.459 34.5652 469.329 34.5652H466.171V43.7829C466.171 43.9015 466.13 44.0083 466.047 44.1032C465.964 44.1862 465.858 44.2277 465.727 44.2277H463.386Z" fill="#0C2343"/>
<path d="M472.006 44.2277C471.888 44.2277 471.781 44.1862 471.687 44.1032C471.604 44.0083 471.562 43.9015 471.562 43.7829V32.2163C471.562 32.0858 471.604 31.9791 471.687 31.896C471.781 31.813 471.888 31.7715 472.006 31.7715H474.383C474.513 31.7715 474.62 31.813 474.703 31.896C474.797 31.9791 474.845 32.0858 474.845 32.2163V43.7829C474.845 43.9134 474.797 44.0201 474.703 44.1032C474.62 44.1862 474.513 44.2277 474.383 44.2277H472.006Z" fill="#0C2343"/>
<path d="M482.566 44.406C480.898 44.406 479.586 43.9966 478.628 43.178C477.669 42.3595 477.161 41.1554 477.102 39.5657C477.09 39.2217 477.084 38.7116 477.084 38.0354C477.084 37.3473 477.09 36.8313 477.102 36.4873C477.161 34.9213 477.675 33.7172 478.645 32.8749C479.627 32.0208 480.934 31.5938 482.566 31.5938C484.198 31.5938 485.505 32.0208 486.487 32.8749C487.469 33.7172 487.983 34.9213 488.031 36.4873C488.054 37.1753 488.066 37.6914 488.066 38.0354C488.066 38.3676 488.054 38.8777 488.031 39.5657C487.971 41.1554 487.463 42.3595 486.505 43.178C485.547 43.9966 484.234 44.406 482.566 44.406ZM482.566 41.8435C483.217 41.8435 483.731 41.6478 484.11 41.2563C484.5 40.8647 484.707 40.2658 484.731 39.4591C484.754 38.771 484.766 38.2845 484.766 37.9998C484.766 37.6914 484.754 37.205 484.731 36.5406C484.707 35.7339 484.5 35.1349 484.11 34.7434C483.719 34.3519 483.205 34.1561 482.566 34.1561C481.927 34.1561 481.413 34.3519 481.023 34.7434C480.644 35.1349 480.437 35.7339 480.402 36.5406C480.39 36.8728 480.384 37.3592 480.384 37.9998C480.384 38.6285 480.39 39.115 480.402 39.4591C480.437 40.2658 480.644 40.8647 481.023 41.2563C481.401 41.6478 481.916 41.8435 482.566 41.8435Z" fill="#0C2343"/>
<path d="M490.744 44.2277C490.625 44.2277 490.519 44.1862 490.424 44.1032C490.341 44.0083 490.3 43.9015 490.3 43.7829V32.2163C490.3 32.0858 490.341 31.9791 490.424 31.896C490.519 31.813 490.625 31.7715 490.744 31.7715H492.624C492.92 31.7715 493.121 31.8842 493.227 32.1096L497.556 38.9427V32.2163C497.556 32.0858 497.598 31.9791 497.681 31.896C497.775 31.813 497.882 31.7715 498 31.7715H500.129C500.259 31.7715 500.366 31.813 500.448 31.896C500.531 31.9791 500.573 32.0858 500.573 32.2163V43.7651C500.573 43.8956 500.531 44.0083 500.448 44.1032C500.366 44.1862 500.259 44.2277 500.129 44.2277H498.231C497.97 44.2277 497.775 44.115 497.645 43.8896L493.316 37.3056V43.7829C493.316 43.9015 493.275 44.0083 493.192 44.1032C493.109 44.1862 493.003 44.2277 492.873 44.2277H490.744Z" fill="#0C2343"/>
<path d="M421.129 64.0002C420.927 64.0002 420.768 63.9468 420.65 63.84C420.531 63.7214 420.46 63.5791 420.437 63.413L418.503 52.0422C418.491 52.0066 418.485 51.9651 418.485 51.9176C418.485 51.8227 418.521 51.7397 418.592 51.6685C418.674 51.5854 418.763 51.5439 418.858 51.5439H421.058C421.389 51.5439 421.572 51.6744 421.608 51.9354L422.761 58.8753L424.038 54.7826C424.168 54.4623 424.363 54.3021 424.624 54.3021H425.901C426.197 54.3021 426.392 54.4623 426.487 54.7826L427.764 58.8753L428.917 51.9354C428.953 51.6744 429.136 51.5439 429.467 51.5439H431.667C431.774 51.5439 431.862 51.5854 431.933 51.6685C432.016 51.7397 432.057 51.8227 432.057 51.9176L432.04 52.0422L430.106 63.413C430.082 63.5791 430.005 63.7214 429.875 63.84C429.757 63.9468 429.603 64.0002 429.414 64.0002H427.728C427.539 64.0002 427.391 63.9527 427.285 63.8578C427.179 63.7629 427.102 63.6562 427.054 63.5375L425.262 58.4483L423.47 63.5375C423.364 63.846 423.145 64.0002 422.814 64.0002H421.129Z" fill="#0C2343"/>
<path d="M434.507 64.0002C434.389 64.0002 434.282 63.9587 434.187 63.8756C434.105 63.7807 434.063 63.674 434.063 63.5553V51.9888C434.063 51.8583 434.105 51.7515 434.187 51.6685C434.282 51.5854 434.389 51.5439 434.507 51.5439H436.884C437.014 51.5439 437.121 51.5854 437.204 51.6685C437.298 51.7515 437.345 51.8583 437.345 51.9888V63.5553C437.345 63.6858 437.298 63.7926 437.204 63.8756C437.121 63.9587 437.014 64.0002 436.884 64.0002H434.507Z" fill="#0C2343"/>
<path d="M443.169 64.0002C443.05 64.0002 442.944 63.9587 442.849 63.8756C442.767 63.7807 442.725 63.674 442.725 63.5553V54.3377H439.567C439.449 54.3377 439.342 54.2962 439.248 54.2131C439.165 54.1182 439.124 54.0115 439.124 53.8928V51.9888C439.124 51.8583 439.165 51.7515 439.248 51.6685C439.342 51.5854 439.449 51.5439 439.567 51.5439H449.112C449.242 51.5439 449.349 51.5854 449.431 51.6685C449.514 51.7515 449.556 51.8583 449.556 51.9888V53.8928C449.556 54.0233 449.514 54.1301 449.431 54.2131C449.349 54.2962 449.242 54.3377 449.112 54.3377H445.954V63.5553C445.954 63.674 445.913 63.7807 445.83 63.8756C445.747 63.9587 445.641 64.0002 445.511 64.0002H443.169Z" fill="#0C2343"/>
<path d="M451.789 64.0002C451.659 64.0002 451.552 63.9587 451.47 63.8756C451.387 63.7926 451.346 63.6858 451.346 63.5553V51.9888C451.346 51.8583 451.387 51.7515 451.47 51.6685C451.564 51.5854 451.671 51.5439 451.789 51.5439H454.078C454.208 51.5439 454.314 51.5854 454.397 51.6685C454.492 51.7515 454.539 51.8583 454.539 51.9888V56.2773H458.903V51.9888C458.903 51.8583 458.945 51.7515 459.028 51.6685C459.11 51.5854 459.217 51.5439 459.347 51.5439H461.636C461.766 51.5439 461.872 51.5854 461.955 51.6685C462.038 51.7515 462.079 51.8583 462.079 51.9888V63.5553C462.079 63.6858 462.038 63.7926 461.955 63.8756C461.872 63.9587 461.766 64.0002 461.636 64.0002H459.347C459.217 64.0002 459.11 63.9587 459.028 63.8756C458.945 63.7926 458.903 63.6858 458.903 63.5553V59.1245H454.539V63.5553C454.539 63.6858 454.492 63.7926 454.397 63.8756C454.314 63.9587 454.208 64.0002 454.078 64.0002H451.789Z" fill="#0C2343"/>
<path fill-rule="evenodd" clip-rule="evenodd" d="M106.497 18.8606H83.4593V32.5182H105.838V43.378H83.4593V65.5922H72.106V8H106.497V18.8606Z" fill="#D8D8D8"/>
<path fill-rule="evenodd" clip-rule="evenodd" d="M114.311 65.5933H124.924V24.4565H114.311V65.5933ZM119.578 21.4845C117.822 21.4845 116.3 20.8406 115.012 19.5514C113.722 18.2625 113.078 16.7411 113.078 14.9851C113.078 13.2301 113.722 11.6936 115.012 10.3774C116.3 9.06087 117.822 8.40332 119.578 8.40332C121.388 8.40332 122.937 9.06087 124.227 10.3774C125.515 11.6936 126.16 13.2301 126.16 14.9851C126.16 16.7411 125.515 18.2625 124.227 19.5514C122.937 20.8406 121.388 21.4845 119.578 21.4845Z" fill="#D8D8D8"/>
<path fill-rule="evenodd" clip-rule="evenodd" d="M144.095 35.4822C144.095 36.5803 144.822 37.471 146.276 38.1559C147.729 38.8426 149.498 39.4452 151.583 39.9665C153.667 40.4883 155.751 41.1462 157.835 41.9407C159.92 42.7366 161.689 44.0672 163.142 45.9313C164.595 47.7966 165.323 50.1268 165.323 52.9245C165.323 57.1487 163.745 60.3981 160.592 62.674C157.437 64.9489 153.502 66.0883 148.785 66.0883C140.34 66.0883 134.581 62.8264 131.509 56.3008C131.508 56.2993 131.509 56.2971 131.511 56.296L140.721 51.115C140.722 51.1146 140.722 51.115 140.722 51.1153C141.928 54.6805 144.617 56.462 148.785 56.462C152.57 56.462 154.463 55.2831 154.463 52.9245C154.463 51.8275 153.735 50.9367 152.282 50.2508C150.828 49.5652 149.059 48.9486 146.975 48.3992C144.89 47.8516 142.806 47.1649 140.722 46.342C138.638 45.5199 136.868 44.217 135.416 42.434C133.962 40.6525 133.235 38.4171 133.235 35.729C133.235 31.6705 134.729 28.4765 137.719 26.1437C140.708 23.8135 144.425 22.6475 148.868 22.6475C152.212 22.6475 155.257 23.4021 158 24.9098C160.74 26.4186 162.906 28.5687 164.497 31.3631C164.499 31.366 164.498 31.3694 164.495 31.3708L155.45 36.305C154.133 33.5073 151.939 32.1088 148.868 32.1088C147.496 32.1088 146.358 32.411 145.453 33.014C144.548 33.6184 144.095 34.4405 144.095 35.4822Z" fill="#D8D8D8"/>
<path fill-rule="evenodd" clip-rule="evenodd" d="M183.222 53.376C185.388 55.5435 188.117 56.6261 191.408 56.6261C194.699 56.6261 197.414 55.5435 199.554 53.376C201.693 51.21 202.762 48.4271 202.762 45.0257C202.762 41.6254 201.693 38.8417 199.554 36.6742C197.414 34.5083 194.699 33.4249 191.408 33.4249C188.117 33.4249 185.388 34.5083 183.222 36.6742C181.055 38.8417 179.972 41.6254 179.972 45.0257C179.972 48.4271 181.055 51.21 183.222 53.376ZM202.759 8H213.373V65.5922H202.759V60.7388C199.633 64.7431 195.19 66.7442 189.431 66.7442C183.89 66.7442 179.159 64.6461 175.239 60.4499C171.317 56.2537 169.356 51.1117 169.356 45.0237C169.356 38.9353 171.317 33.7934 175.239 29.5972C179.159 25.401 183.89 23.3029 189.431 23.3029C195.19 23.3029 199.633 25.3062 202.759 29.3083C202.759 29.3086 202.759 29.3086 202.759 29.3083V8Z" fill="#D8D8D8"/>
<path fill-rule="evenodd" clip-rule="evenodd" d="M234.719 52.5113C236.83 54.6503 239.477 55.7197 242.658 55.7197C245.839 55.7197 248.5 54.6503 250.639 52.5113C252.778 50.3722 253.847 47.6575 253.847 44.3661C253.847 41.075 252.778 38.36 250.639 36.2213C248.5 34.0819 245.839 33.0122 242.658 33.0122C239.477 33.0122 236.83 34.0819 234.719 36.2213C232.607 38.36 231.551 41.075 231.551 44.3661C231.551 47.6575 232.607 50.3722 234.719 52.5113ZM258.128 59.7944C253.904 63.9903 248.748 66.0887 242.66 66.0887C236.572 66.0887 231.43 63.9903 227.234 59.7944C223.037 55.5982 220.939 50.4559 220.939 44.3679C220.939 38.2799 223.037 33.1376 227.234 28.9418C231.43 24.7456 236.572 22.6475 242.66 22.6475C248.748 22.6475 253.904 24.7456 258.128 28.9418C262.351 33.1376 264.463 38.2799 264.463 44.3679C264.463 50.4559 262.351 55.5982 258.128 59.7944Z" fill="#D8D8D8"/>
<path fill-rule="evenodd" clip-rule="evenodd" d="M317.45 23.3027C322.167 23.3027 325.937 24.8392 328.763 27.9104C331.588 30.9826 333 35.0958 333 40.2514V65.5916H322.387V40.9912C322.387 38.5237 321.782 36.6042 320.577 35.2327C319.369 33.8626 317.668 33.1755 315.475 33.1755C313.061 33.1755 311.183 33.9714 309.84 35.5618C308.495 37.1529 307.824 39.4569 307.824 42.4727V65.5916H297.21V40.9912C297.21 38.5237 296.606 36.6042 295.4 35.2327C294.193 33.8626 292.492 33.1755 290.299 33.1755C287.94 33.1755 286.062 33.9714 284.663 35.5618C283.264 37.1529 282.565 39.4569 282.565 42.4727V65.5916H271.951V24.4547H282.565V28.8151C285.033 25.1407 288.845 23.3027 294.002 23.3027C299.048 23.3027 302.777 25.2776 305.191 29.2266C307.934 25.2776 312.02 23.3027 317.45 23.3027Z" fill="#D8D8D8"/>
<path fill-rule="evenodd" clip-rule="evenodd" d="M0 8.40332L24.5817 24.4634V65.4329L0 49.3728V8.40332Z" fill="#D8D8D8"/>
<path fill-rule="evenodd" clip-rule="evenodd" d="M32.776 24.8567L57.3577 8.40332V24.7256L32.776 41.1789V24.8567Z" fill="#D8D8D8"/>
<path fill-rule="evenodd" clip-rule="evenodd" d="M32.776 49.4394L49.1638 38.3076V54.6299L32.776 65.7616V49.4394Z" fill="#D8D8D8"/>
<path fill-rule="evenodd" clip-rule="evenodd" d="M686.042 34.2423L686.585 35.1173L686.366 50.8193C685.933 51.2065 685.82 51.4964 686.042 51.6912L690.802 51.5943C690.903 51.405 690.688 51.2065 690.474 51.0143L690.58 47.9138L690.802 47.8179L692.747 50.9156L692.532 51.6912H698.485C698.485 51.6912 698.047 51.0143 697.399 50.8193C696.751 49.8493 692.854 43.3566 692.854 43.3566C692.854 42.9688 694.474 40.064 695.342 39.3813C696.104 39.0922 696.317 39.0922 696.422 38.8007H693.18L692.962 38.8976C692.962 38.8976 694.047 39.5736 693.615 40.1577C693.07 40.6408 691.018 44.4245 691.018 44.4245C691.018 44.4245 690.474 44.6167 690.58 43.8411C690.58 43.1626 690.37 34.6295 690.37 34.6295C690.37 34.6295 690.043 33.0801 688.636 33.5638C687.23 34.1485 686.042 34.2423 686.042 34.2423Z" fill="#1C63B7"/>
<path fill-rule="evenodd" clip-rule="evenodd" d="M647.631 33.66V33.9525C647.631 33.9525 648.277 34.5339 648.389 34.827C648.608 35.1171 648.5 50.628 648.5 50.628C648.5 50.628 647.306 51.6911 647.736 51.6911H656.5C656.715 51.6911 658.666 51.1111 659.639 49.556C660.83 47.7184 661.265 44.812 657.698 42.3872C659.209 41.0276 662.56 35.5986 654.662 33.66H647.631ZM652.285 34.5339L652.499 41.9962C652.499 41.9962 655.744 42.2877 655.853 38.6075C656.071 34.827 653.684 34.827 652.608 34.6294C651.635 34.4347 652.285 34.5339 652.285 34.5339ZM652.391 42.8719V50.5317C653.148 50.628 656.284 50.4316 656.715 47.9138C657.586 42.9688 653.038 42.8719 652.391 42.8719Z" fill="#1C63B7"/>
<path fill-rule="evenodd" clip-rule="evenodd" d="M677.707 39.3813L678.032 40.1577C678.574 39.7715 678.789 39.7715 679.332 39.3813C679.87 39.0922 680.523 38.8976 681.061 38.8976C681.821 38.8976 682.471 39.1883 683.007 39.6722C683.443 40.0639 683.443 40.4486 683.656 41.1292C683.765 41.6102 683.765 42.5778 683.765 44.0351V48.8832C683.765 49.3653 683.553 51.3049 684.306 51.405V51.5942L679.441 51.6911V51.405C680.196 50.628 679.982 50.0448 679.982 48.8832V43.3566C679.982 42.2877 680.088 41.2224 679.982 40.9333C679.762 40.6408 679.658 40.6408 678.897 40.6408C678.143 40.6408 678.032 41.2224 677.929 41.7087L677.821 48.8832C677.707 49.8493 677.929 50.5317 677.929 50.8192C677.929 51.1111 678.032 51.405 678.461 51.4964V51.6911H673.274L673.381 51.405C674.244 51.3049 674.03 50.0448 674.03 48.8832V41.8056C674.03 40.8346 673.919 40.2569 673.812 40.0639C673.596 39.8676 673.596 39.7715 674.03 39.6722L676.841 39.0922C677.275 38.8976 677.707 38.9945 677.707 39.3813Z" fill="#1C63B7"/>
<path fill-rule="evenodd" clip-rule="evenodd" d="M662.346 41.2224C663.535 41.0276 665.057 40.5423 666.132 41.3214C667.211 42.1947 667.106 42.1947 667.106 42.8718C667.106 43.5519 665.814 44.1319 664.508 44.5197C663.318 44.9058 660.83 45.8751 661.155 48.3959C661.479 50.9155 663.426 52.4697 666.889 50.8192C667.106 50.628 667.543 50.3373 667.861 50.8192C668.302 51.3049 670.783 52.5666 672.411 50.5317C671.757 50.5317 671.327 50.628 671.327 49.3653C671.434 48.2063 671.218 42.0947 671.218 42.0947C671.218 42.0947 671.327 39.3813 667.861 38.8007C664.179 39.0921 662.778 40.9332 662.346 41.2224ZM667.211 45.2935V49.7502C667.211 49.7502 666.132 50.8192 665.589 50.0448C664.618 48.7831 664.837 43.455 667.211 45.2935Z" fill="#1C63B7"/>
<path fill-rule="evenodd" clip-rule="evenodd" d="M620.259 41.2223C621.339 41.0276 622.856 40.5423 623.939 41.3214C625.015 42.1947 624.908 42.1947 624.908 42.8718C624.908 43.5519 623.615 44.1319 622.42 44.5197C621.119 44.9057 618.636 45.8751 618.958 48.3959C619.39 50.9155 621.229 52.4696 624.588 50.8192C624.908 50.6279 625.347 50.3372 625.666 50.8192C626.099 51.3049 628.589 52.5665 630.212 50.5316C629.565 50.5316 629.127 50.6279 629.127 49.3653C629.236 48.2062 629.018 41.9024 629.018 41.9024C629.018 41.9024 629.127 39.1882 625.666 38.6074C621.987 38.8975 620.584 40.9332 620.259 41.2223ZM624.908 45.1998L625.015 49.5559C625.015 49.5559 624.26 50.6279 623.615 49.8492C622.53 48.3959 622.53 46.0705 624.046 44.9057C624.366 44.6166 624.908 45.1998 624.908 45.1998Z" fill="#1C63B7"/>
<path fill-rule="evenodd" clip-rule="evenodd" d="M588.127 51.3049V51.6911H582.82V51.3049C583.473 51.1111 583.473 50.3373 583.473 48.5947V36.6697C583.473 35.5986 583.361 33.9525 582.608 33.9525V33.66H588.34V33.8554C587.473 34.3407 587.473 35.3095 587.473 36.6697V48.5947C587.473 49.556 587.366 50.9155 588.127 51.3049Z" fill="#1C63B7"/>
<path fill-rule="evenodd" clip-rule="evenodd" d="M592.883 39.0922C593.1 38.9945 593.534 38.9945 593.75 39.0922C593.969 39.2836 593.64 39.8676 594.179 40.0639C594.509 40.2569 594.937 39.6722 595.375 39.3813C595.912 39.0922 596.885 38.8976 597.429 38.8976C598.078 38.8976 598.618 39.0922 599.047 39.5735C599.483 39.9613 599.808 40.1577 599.914 40.8346V44.4244V50.2386C600.023 50.9155 600.023 51.0142 600.455 51.405V51.6911H595.591V51.405C596.238 51.3049 596.129 49.6576 596.129 49.17V43.7442C596.238 42.7716 596.129 41.6102 596.129 41.4184C596.021 41.1292 595.912 40.9333 595.807 40.8346C595.695 40.6408 595.477 40.6408 595.375 40.6408C594.72 40.6408 594.509 40.3515 594.073 41.4184L593.969 50.7249C593.969 51.0142 594.179 51.3049 594.401 51.405V51.6911H589.421V51.3049C589.856 51.1111 590.071 50.9155 589.961 50.1392L590.071 41.0276C590.071 40.5423 590.071 40.2569 589.961 40.1577C589.635 39.9613 589.635 39.6722 589.856 39.6722L592.883 39.0922Z" fill="#1C63B7"/>
<path fill-rule="evenodd" clip-rule="evenodd" d="M608.244 40.5423C607.168 39.6722 606.082 40.3515 605.762 41.8056C605.219 43.8411 605.002 46.169 605.434 48.2985C605.866 50.0448 607.272 50.8192 608.244 50.0448V40.5423ZM612.25 34.3407V47.8179C612.25 48.6863 612.143 49.17 612.143 49.3654C612.357 49.9511 612.034 50.0448 612.574 50.5317L612.686 50.9156C611.715 51.1111 611.273 51.3049 610.304 51.4964C609.87 51.4964 609.764 51.5943 609.327 51.4964C608.463 50.8192 607.706 50.9156 607.058 51.3049C606.626 51.4964 606.082 51.6912 605.543 51.6912C604.135 51.6912 603.053 51.0142 602.189 49.7502C601.54 48.5947 601.213 47.3338 601.213 45.6845C601.213 44.4242 601.54 43.2595 601.862 42.2877C602.294 41.3215 602.944 40.5423 603.595 40.0639C604.352 39.4766 605.543 38.6075 608.137 39.0922V37.2471C608.137 36.6697 608.137 36.185 608.032 35.3095L607.382 34.3407L611.059 33.5637C611.715 33.5637 611.925 34.0494 612.25 34.3407Z" fill="#1C63B7"/>
<path fill-rule="evenodd" clip-rule="evenodd" d="M618.418 39.7715V50.1392C618.418 50.725 618.418 51.1112 618.958 51.405V51.6912H613.766V51.405C614.306 51.2065 614.306 50.4317 614.306 49.17V40.3515C614.09 40.1577 613.981 39.9614 613.981 39.7715L616.579 39.0922C617.659 38.8007 618.199 39.1883 618.418 39.7715ZM616.145 34.1486C616.795 34.1486 617.335 34.3408 617.767 34.7296C618.093 35.1172 618.309 35.5987 618.309 36.185C618.309 36.7658 618.093 37.2472 617.767 37.6391C617.335 38.0251 616.795 38.2191 616.145 38.2191C615.605 38.2191 615.063 38.0251 614.63 37.6391C614.195 37.2472 614.09 36.7658 614.09 36.185C614.09 35.5987 614.195 35.1172 614.63 34.7296C615.063 34.3408 615.605 34.1486 616.145 34.1486Z" fill="#1C63B7"/>
<path fill-rule="evenodd" clip-rule="evenodd" d="M635.518 39.3813L635.838 40.1577C636.487 39.7715 636.598 39.7715 637.139 39.3813C637.677 39.0922 638.324 38.8976 638.973 38.8976C639.627 38.8976 640.277 39.1883 640.814 39.6722C641.251 40.0639 641.355 40.4486 641.462 41.1292C641.573 41.6102 641.573 42.5778 641.573 44.0351V48.8832C641.573 49.3653 641.355 51.3049 642.114 51.405V51.5942L637.243 51.6911V51.405C638.004 50.628 637.787 50.0448 637.787 48.8832V43.3566C637.787 42.2877 637.892 41.2224 637.787 40.9333C637.567 40.6408 637.463 40.6408 636.704 40.6408C636.054 40.6408 635.838 41.2224 635.728 41.7087L635.624 48.8832C635.518 49.8493 635.728 50.5317 635.728 50.8192C635.728 51.1111 635.838 51.405 636.272 51.4964V51.6911H631.079L631.186 51.405C632.053 51.3049 631.835 50.0448 631.835 48.8832V41.8056C631.835 40.8346 631.835 40.2569 631.62 40.0639C631.509 39.8676 631.402 39.7715 631.941 39.6722L634.648 39.0922C635.078 38.8976 635.518 38.9945 635.518 39.3813Z" fill="#1C63B7"/>
<path fill-rule="evenodd" clip-rule="evenodd" d="M658.773 20.4756C658.883 20.4756 658.987 20.6712 659.098 20.4756L659.209 19.1186H651.85C651.739 19.6049 651.85 19.6049 651.739 20.1865C651.739 20.1865 651.635 20.1865 651.739 23.1936C651.739 24.55 651.635 27.6518 651.85 28.1381C651.958 28.4273 652.932 28.912 652.608 28.912H646.981C646.874 28.912 646.981 28.7203 646.981 28.7203C647.52 28.1381 647.735 27.6518 647.52 26.5856C646.542 27.2641 644.927 27.7472 643.625 27.2641C639.516 25.8075 640.161 20.3819 644.602 19.7034C646.009 19.5063 647.735 20.6712 647.847 20.2834C647.959 20.087 647.735 19.5063 647.847 19.0217L640.706 19.1186V18.0555H641.029C641.784 18.0555 645.792 18.0555 645.897 17.957C645.574 17.1799 643.947 15.63 643.084 15.2419C642.868 15.145 642.543 15.0475 642.76 14.9505C648.276 14.3705 647.847 17.3754 649.251 17.7616L650.118 18.0555C650.118 17.957 650.229 17.957 650.229 17.8608C649.904 16.8914 648.822 15.8229 647.735 15.2419C647.413 15.145 647.194 15.2419 647.305 15.0475C648.499 14.6613 651.524 15.0475 652.069 15.7244C652.499 16.5052 653.147 17.8608 654.228 17.8608C659.209 17.957 664.618 17.957 669.594 17.957V19.1186H663.318L663.209 20.5773C664.618 19.5063 669.053 18.8294 669.701 22.9037C670.027 24.6476 669.157 26.9717 666.671 27.2641C665.484 27.3626 665.057 27.0655 664.08 26.5856C663.968 26.4871 663.968 26.3892 663.968 26.3892C665.814 25.7116 665.814 23.1936 664.837 21.7374C664.723 21.5403 664.618 21.4498 664.402 21.4498C663.747 21.3481 663.209 21.4498 663.209 22.0281L663.102 27.5549C663.102 28.6211 663.535 28.4273 663.861 28.7203C663.861 28.8135 663.968 29.0079 663.968 29.0079C663.638 29.1058 663.209 29.0079 662.889 29.0079C662.346 29.0079 658.45 29.1058 658.34 29.0079C658.231 28.912 658.125 29.0079 658.231 28.912C659.318 28.4273 658.883 28.3288 658.987 26.6841C658.016 27.2641 657.697 27.3626 657.148 27.4548C654.878 27.941 652.608 26.1953 652.391 24.1629C652.285 22.7083 652.499 21.8327 653.684 20.8634C655.419 19.6049 656.714 19.4132 658.773 20.4756ZM582.819 20.7664C584.12 19.4132 586.393 19.1186 588.23 19.7956L588.126 19.0217H581.957V18.0555H593.968C594.719 16.4061 594.616 15.7244 596.453 14.8536C597.317 14.566 598.293 14.3705 599.157 14.1766C602.189 13.788 607.816 13.788 609.22 16.8914C609.327 17.1799 609.436 17.6652 609.327 18.0555H637.028V19.0217H635.517H635.403V28.0396L636.157 28.8135H630.862C630.642 28.8135 631.508 28.6211 631.508 28.3288V22.9959C630.967 22.8052 630.753 22.9037 630.319 22.9037C630.212 23.2883 630.537 23.2883 630.642 23.3852C631.619 25.9055 630.537 28.235 627.501 28.6211C624.908 29.0079 623.176 27.3626 623.285 24.9377C623.395 22.9959 624.588 22.0281 626.752 21.6405C627.724 21.4498 629.565 21.6405 630.753 21.6405C630.967 21.5403 631.294 21.6405 631.508 21.5403V21.4498V19.1186C630.753 19.1186 622.313 18.9279 622.313 19.1186L622.204 27.941C622.204 28.3288 622.749 28.5264 623.068 28.7203V28.8135L617.659 28.912C617.552 28.912 617.659 28.7203 617.659 28.7203C618.199 28.3288 618.525 28.0396 618.199 27.0654C617.334 27.2641 616.69 27.4548 616.038 27.4548C611.714 27.6518 610.196 25.5177 610.625 21.8327C611.606 21.5403 612.356 21.8327 613.008 21.0588C613.874 20.087 613.44 19.3141 612.686 19.0217H609.436C609.327 19.0217 609.22 19.0217 609.22 19.0217V20.7664C609.22 20.8634 609.327 21.0588 609.22 21.1558C608.356 21.4498 606.733 21.1558 605.762 21.2512C605.542 21.2512 605.433 21.2512 605.329 21.1558C605.219 20.8634 605.219 20.7664 605.002 20.6712C603.808 20.3819 602.513 21.4498 603.485 22.319C604.567 23.2883 606.946 22.9037 608.574 23.6745C609.764 24.2592 610.408 25.3229 609.764 26.4871C608.788 28.7203 605.219 29.4935 602.84 28.912C601.651 28.6211 600.023 27.6518 599.374 27.2641C599.699 26.3892 600.24 25.8075 600.564 25.1332C601.213 26.2932 603.162 29.2981 605.762 27.4548C606.839 26.6841 606.839 25.3229 605.762 24.4531C604.03 22.8052 600.564 24.7423 599.593 22.2205C598.618 19.7034 603.162 18.9279 605.219 19.8973C605.542 19.8973 605.105 19.3141 605.219 19.1186V19.0217H598.183L598.078 28.0396C598.078 28.3288 598.726 28.6211 598.943 28.7203C598.943 28.8135 598.943 28.912 598.943 28.912H596.238C594.937 28.912 593.64 29.0079 593.533 28.8135C593.862 28.6211 594.073 28.4273 594.179 28.0396V19.0217H592.019L591.91 21.2512L588.126 21.1558C588.23 20.2834 587.26 20.2834 586.714 20.7664C586.393 21.1558 586.176 21.8327 586.501 22.2205C588.126 24.3562 592.774 21.1558 593.316 25.3229C593.75 28.0396 590.178 28.7203 590.178 28.7203C590.282 30.269 591.693 31.2399 592.883 31.0445C593.1 31.2399 592.455 31.5275 592.338 31.6283C590.393 32.5 588.883 32.2109 587.801 31.4313C586.176 30.4597 585.2 28.6211 583.473 27.5549C583.148 27.3626 582.819 27.2641 582.39 27.1671C582.39 27.0654 582.172 27.0654 582.279 26.9717L583.253 26.0056C583.579 26.7778 583.69 26.7778 584.229 27.1671C585.74 28.3288 587.473 28.8135 588.992 27.3626C589.961 26.3892 589.749 24.55 588.126 24.2592C586.281 23.8747 584.335 25.0315 583.039 23.5807C582.279 22.8052 582.062 21.6405 582.819 20.7664ZM590.502 14.0756C591.586 14.0756 592.455 14.8536 592.455 15.7244C592.455 16.6984 591.586 17.4714 590.502 17.4714C589.531 17.4714 588.664 16.6984 588.664 15.7244C588.664 14.8536 589.531 14.0756 590.502 14.0756ZM655.097 14.7583C655.853 14.7583 656.5 15.3414 656.5 16.0158C656.5 16.6984 655.853 17.2769 655.094 17.2769C654.334 17.2769 653.684 16.6984 653.684 16.0158C653.684 15.3414 654.334 14.7583 655.094 14.7583H655.097ZM626.856 26.7778C625.015 26.5856 624.8 24.3562 626.64 23.9694C626.963 23.9694 627.289 23.9694 627.61 23.9694C627.724 24.1629 627.835 24.1629 628.049 24.2592C628.912 25.2292 628.803 26.1016 627.61 26.7778C627.399 26.7778 627.076 26.7778 626.856 26.7778ZM618.418 19.0217C618.418 19.7034 618.31 20.4756 618.31 21.1558C618.31 22.6098 618.31 24.2592 618.31 25.7116C617.334 26.5856 615.929 26.6841 615.282 26.1953C615.063 26.0056 614.845 25.8075 614.742 25.7116C614.519 24.9377 614.306 24.1629 614.63 23.2883C615.929 22.9959 616.579 22.7083 617.334 21.7374C617.659 20.9603 617.767 20.2834 617.228 19.0217H618.418ZM605.219 17.957C604.244 17.957 602.293 17.957 601.324 17.957C600.24 17.957 599.157 17.957 598.183 17.957C598.078 17.957 598.078 17.957 598.078 17.957C597.97 17.8607 597.97 17.7616 597.861 17.7616C597.753 16.9877 597.753 16.4061 598.183 15.9246C599.699 14.2736 603.916 14.2736 605.433 16.0158C605.866 16.7954 605.649 17.3754 605.219 17.957ZM644.706 22.319L646.656 26.0056C644.061 26.7778 644.28 23.2883 644.706 22.319ZM659.098 22.1235L658.987 25.3229C657.044 26.8732 656.284 24.6476 656.714 22.8052C656.938 21.7374 657.907 20.1865 659.098 22.1235ZM647.631 24.6476C646.761 23.5807 646.118 22.319 645.466 21.1558C645.574 21.0588 645.574 20.9603 645.574 20.8634C648.061 20.8634 647.847 22.8052 647.735 24.55C647.735 24.55 647.631 24.55 647.631 24.6476Z" fill="#1C63B7"/>
<path fill-rule="evenodd" clip-rule="evenodd" d="M559.145 35.508C560.243 36.7338 560.972 37.9679 561.389 39.1756L562.234 38.2777L565.138 41.0792C569.082 37.4625 564.612 31.9089 559.145 35.508ZM552.325 34.3623L555.943 36.5018L554.878 37.4403L551.68 37.3489C551.971 42.0692 559.291 42.1996 559.049 35.5669C559.047 35.5669 559.045 35.5716 559.044 35.5738C556.349 35.623 554.118 35.1681 552.325 34.3623ZM559.044 35.3841C559.064 35.4143 559.089 35.4397 559.113 35.4731C569.488 20.5185 587.858 34.5792 572.886 48.3602L575.695 50.9728L574.727 51.9134L561.752 50.8822L561.459 43.9442C558.958 51.5767 544.275 54.8246 540.644 39.4917L536.773 40.2417L542.776 30.1577L543.65 29.2233L550.208 33.1086C542.221 26.986 548.248 11.9875 565.236 18.0189L565.718 15.9691L566.592 15.1268L573.272 26.3313L572.301 27.3578L559.811 32.0216L561.266 28.103C555.943 26.1454 553.62 32.116 559.044 35.5738C559.045 35.5669 559.047 35.5669 559.049 35.5622C559.047 35.508 559.047 35.4436 559.044 35.3841Z" fill="white"/>
<path fill-rule="evenodd" clip-rule="evenodd" d="M558.378 36.5298C569.279 50.1486 544.804 61.0491 539.966 40.6128L536 41.2685L542.777 30.1577L554.878 37.5325L550.715 38.3739C551.773 43.5011 558.147 42.7627 558.358 36.5401C558.331 36.5584 558.297 36.5775 558.265 36.5997C539.095 36.9731 543.159 11.488 564.559 19.0455L565.627 16.1556L572.208 27.3578L559.044 33.0514L560.588 29.1312C555.167 27.1687 552.841 33.1442 558.265 36.5997C567.947 20.9142 587.31 35.6654 572.208 49.4839L574.533 51.9135L561.075 52.0025L561.363 39.3092L564.367 42.2044C568.406 38.4893 563.847 32.9449 558.378 36.5298Z" fill="#F0B03F"/>
<path fill-rule="evenodd" clip-rule="evenodd" d="M693.375 58.211C693.125 58.2957 692.768 58.3656 692.286 58.4292C692.008 58.4619 691.819 58.4985 691.704 58.543C691.592 58.5834 691.503 58.6488 691.443 58.7305C691.384 58.8036 691.347 58.8989 691.347 58.9974C691.347 59.1516 691.415 59.2755 691.548 59.3789C691.679 59.4795 691.878 59.5305 692.136 59.5305C692.402 59.5305 692.627 59.4805 692.823 59.3883C693.023 59.2873 693.169 59.1563 693.265 58.9901C693.334 58.8631 693.375 58.675 693.375 58.4191V58.211ZM693.428 59.4868C693.181 59.668 692.946 59.7921 692.715 59.8636C692.487 59.9404 692.242 59.9739 691.978 59.9739C691.548 59.9739 691.216 59.8849 690.987 59.7047C690.752 59.5235 690.638 59.2914 690.638 59.0134C690.638 58.845 690.68 58.7004 690.767 58.559C690.856 58.4229 690.971 58.3205 691.113 58.2338C691.256 58.1521 691.415 58.0895 691.592 58.044C691.719 58.0178 691.923 57.9868 692.184 57.9583C692.717 57.9059 693.117 57.8407 693.375 57.7611C693.375 57.6865 693.375 57.6357 693.375 57.6118C693.375 57.3836 693.312 57.2162 693.188 57.124C693.02 56.9952 692.765 56.9349 692.429 56.9349C692.12 56.9349 691.879 56.9753 691.736 57.0716C691.588 57.1638 691.474 57.3322 691.402 57.5705L690.752 57.4964C690.812 57.2544 690.906 57.062 691.044 56.9142C691.182 56.7681 691.377 56.6543 691.632 56.5757C691.891 56.5001 692.184 56.4565 692.524 56.4565C692.857 56.4565 693.128 56.4884 693.34 56.5589C693.551 56.6251 693.705 56.7098 693.807 56.8142C693.9 56.919 693.972 57.0446 694.01 57.2049C694.036 57.3036 694.046 57.471 694.046 57.7326V58.4912C694.046 59.0197 694.06 59.3566 694.087 59.4965C694.116 59.6363 694.175 59.7736 694.256 59.9016H693.564C693.493 59.7793 693.444 59.6432 693.428 59.4868ZM684.623 59.9016V55.2537H685.695L686.983 58.5493C687.097 58.8471 687.189 59.0801 687.24 59.231C687.301 59.0594 687.398 58.8115 687.533 58.4834L688.824 55.2537H689.793V59.9016H689.104V56.0116L687.529 59.9016H686.88L685.31 55.9433V59.9016H684.623ZM678.24 59.9016V56.5351H678.842V57.0111C679.127 56.644 679.546 56.4565 680.088 56.4565C680.326 56.4565 680.536 56.4979 680.742 56.5678C680.941 56.644 681.086 56.7394 681.187 56.8577C681.29 56.9753 681.357 57.1128 681.395 57.2798C681.42 57.3836 681.429 57.5658 681.429 57.8342V59.9016H680.765V57.8502C680.765 57.6197 680.742 57.445 680.688 57.3322C680.637 57.2162 680.542 57.124 680.409 57.0604C680.278 56.9905 680.125 56.9525 679.949 56.9525C679.665 56.9525 679.42 57.0308 679.215 57.1827C679.013 57.3385 678.904 57.6319 678.904 58.0631V59.9016H678.24ZM674.467 58.2141C674.467 58.6488 674.579 58.972 674.795 59.1841C675.013 59.4011 675.291 59.5124 675.624 59.5124C675.958 59.5124 676.23 59.4011 676.445 59.1817C676.667 58.972 676.78 58.6415 676.78 58.1997C676.78 57.7824 676.667 57.4663 676.445 57.2526C676.222 57.0387 675.949 56.9349 675.624 56.9349C675.291 56.9349 675.013 57.0387 674.795 57.2526C674.579 57.4663 674.467 57.785 674.467 58.2141ZM673.776 58.2141C673.776 57.5912 673.981 57.1303 674.384 56.8323C674.728 56.5844 675.136 56.4565 675.624 56.4565C676.164 56.4565 676.603 56.6107 676.947 56.9127C677.288 57.2162 677.459 57.6357 677.459 58.1696C677.459 58.6017 677.379 58.9419 677.235 59.193C677.08 59.4409 676.862 59.6347 676.574 59.7689C676.279 59.9063 675.963 59.9739 675.624 59.9739C675.073 59.9739 674.628 59.8301 674.289 59.5235C673.951 59.2168 673.776 58.7861 673.776 58.2141ZM667.723 59.9016V56.5351H668.316V57.0064C668.44 56.8412 668.606 56.7098 668.813 56.6107C669.013 56.5042 669.245 56.4565 669.507 56.4565C669.8 56.4565 670.039 56.5042 670.22 56.6129C670.409 56.7195 670.538 56.8577 670.613 57.0446C670.927 56.6543 671.329 56.4565 671.824 56.4565C672.216 56.4565 672.518 56.5487 672.73 56.7394C672.938 56.919 673.045 57.2049 673.045 57.5912V59.9016H672.379V57.7824C672.379 57.5514 672.359 57.3861 672.317 57.2861C672.272 57.1851 672.194 57.1096 672.077 57.0446C671.966 56.981 671.833 56.9525 671.681 56.9525C671.408 56.9525 671.174 57.0308 670.996 57.1876C670.815 57.3487 670.723 57.5975 670.723 57.9439V59.9016H670.051V57.7103C670.051 57.4592 669.997 57.2644 669.888 57.1453C669.779 57.0159 669.602 56.9525 669.36 56.9525C669.173 56.9525 669 56.9952 668.841 57.0785C668.683 57.1638 668.563 57.2861 668.492 57.4498C668.422 57.6118 668.383 57.847 668.383 58.1568V59.9016H667.723ZM661.413 59.9016V56.5351H662.005V57.0064C662.132 56.8412 662.296 56.7098 662.501 56.6107C662.705 56.5042 662.941 56.4565 663.198 56.4565C663.49 56.4565 663.73 56.5042 663.915 56.6129C664.103 56.7195 664.231 56.8577 664.306 57.0446C664.619 56.6543 665.019 56.4565 665.519 56.4565C665.912 56.4565 666.208 56.5487 666.418 56.7394C666.626 56.919 666.733 57.2049 666.733 57.5912V59.9016H666.072V57.7824C666.072 57.5514 666.048 57.3861 666.009 57.2861C665.963 57.1851 665.883 57.1096 665.769 57.0446C665.657 56.981 665.524 56.9525 665.366 56.9525C665.097 56.9525 664.868 57.0308 664.689 57.1876C664.5 57.3487 664.409 57.5975 664.409 57.9439V59.9016H663.747V57.7103C663.747 57.4592 663.692 57.2644 663.582 57.1453C663.47 57.0159 663.299 56.9525 663.05 56.9525C662.864 56.9525 662.688 56.9952 662.534 57.0785C662.372 57.1638 662.255 57.2861 662.188 57.4498C662.111 57.6118 662.079 57.847 662.079 58.1568V59.9016H661.413ZM657.635 58.2141C657.635 58.6488 657.746 58.972 657.965 59.1841C658.188 59.4011 658.46 59.5124 658.794 59.5124C659.127 59.5124 659.401 59.4011 659.619 59.1817C659.838 58.972 659.945 58.6415 659.945 58.1997C659.945 57.7824 659.838 57.4663 659.619 57.2526C659.399 57.0387 659.125 56.9349 658.794 56.9349C658.46 56.9349 658.188 57.0387 657.965 57.2526C657.746 57.4663 657.635 57.785 657.635 58.2141ZM656.955 58.2141C656.955 57.5912 657.155 57.1303 657.558 56.8323C657.896 56.5844 658.314 56.4565 658.794 56.4565C659.333 56.4565 659.779 56.6107 660.116 56.9127C660.459 57.2162 660.632 57.6357 660.632 58.1696C660.632 58.6017 660.557 58.9419 660.405 59.193C660.25 59.4409 660.033 59.6347 659.743 59.7689C659.451 59.9063 659.133 59.9739 658.794 59.9739C658.246 59.9739 657.795 59.8301 657.459 59.5235C657.12 59.2168 656.955 58.7861 656.955 58.2141ZM655.685 58.2728L656.399 58.4292C656.252 58.9324 655.981 59.3159 655.596 59.5829C655.197 59.8492 654.723 59.9796 654.16 59.9796C653.57 59.9796 653.097 59.8793 652.734 59.6751C652.366 59.4695 652.087 59.177 651.896 58.7861C651.707 58.4 651.611 57.9868 651.611 57.5388C651.611 57.062 651.718 56.6352 651.933 56.2753C652.151 55.9169 652.456 55.6398 652.856 55.4513C653.25 55.2664 653.691 55.1726 654.165 55.1726C654.712 55.1726 655.166 55.2902 655.537 55.5285C655.91 55.7654 656.157 56.0975 656.308 56.5249L655.607 56.671C655.479 56.3295 655.295 56.0831 655.059 55.9322C654.815 55.7765 654.52 55.7002 654.155 55.7002C653.735 55.7002 653.388 55.7877 653.106 55.9608C652.83 56.1292 652.634 56.3581 652.524 56.644C652.403 56.9349 652.346 57.2327 652.346 57.5372C652.346 57.9345 652.415 58.2793 652.549 58.5763C652.688 58.8688 652.895 59.0888 653.177 59.2359C653.463 59.382 653.769 59.4551 654.101 59.4551C654.499 59.4551 654.842 59.3566 655.117 59.1563C655.397 58.9578 655.586 58.6622 655.685 58.2728ZM645.92 57.8931H648.112C648.086 57.6118 647.996 57.3974 647.862 57.2591C647.648 57.0387 647.375 56.9269 647.035 56.9269C646.73 56.9269 646.477 57.0111 646.264 57.1923C646.053 57.3639 645.942 57.6006 645.92 57.8931ZM648.105 58.8164L648.792 58.8895C648.683 59.2359 648.483 59.4996 648.192 59.6887C647.898 59.8793 647.517 59.9739 647.065 59.9739C646.489 59.9739 646.034 59.827 645.702 59.5235C645.364 59.2168 645.193 58.791 645.193 58.2458C645.193 57.6755 645.364 57.2369 645.705 56.9269C646.048 56.6155 646.486 56.4565 647.025 56.4565C647.556 56.4565 647.987 56.6107 648.31 56.919C648.649 57.2241 648.816 57.6548 648.816 58.211C648.816 58.2433 648.816 58.2957 648.816 58.3656H645.886C645.907 58.7321 646.027 59.0171 646.248 59.2152C646.474 59.4122 646.739 59.5124 647.071 59.5124C647.314 59.5124 647.517 59.4526 647.693 59.3423C647.87 59.231 648.004 59.0547 648.105 58.8164ZM641.207 59.9016V55.2537H641.872V56.919C642.181 56.6129 642.576 56.4565 643.051 56.4565C643.336 56.4565 643.587 56.5042 643.805 56.6092C644.02 56.7029 644.168 56.8412 644.263 57.0111C644.356 57.1851 644.401 57.4377 644.401 57.7661V59.9016H643.739V57.7661C643.739 57.4846 643.666 57.2798 643.52 57.1453C643.379 57.0111 643.171 56.946 642.91 56.946C642.715 56.946 642.529 56.9952 642.345 57.0811C642.176 57.1685 642.054 57.2861 641.981 57.4377C641.905 57.588 641.872 57.7952 641.872 58.0573V59.9016H641.207ZM640.554 59.3915L640.646 59.8959C640.463 59.9304 640.298 59.9451 640.149 59.9451C639.904 59.9451 639.718 59.9118 639.581 59.8461C639.451 59.7793 639.359 59.6974 639.3 59.5908C639.249 59.4805 639.222 59.2597 639.222 58.9155V56.9753H638.732V56.5351H639.222V55.7002L639.886 55.3601V56.5351H640.554V56.9753H639.886V58.9489C639.886 59.111 639.897 59.2152 639.922 59.2629C639.947 59.3074 639.981 59.3423 640.038 59.3708C640.09 59.4011 640.162 59.4122 640.261 59.4122C640.333 59.4122 640.431 59.4059 640.554 59.3915ZM633.22 58.2141C633.22 58.6488 633.332 58.972 633.546 59.1841C633.766 59.4011 634.045 59.5124 634.379 59.5124C634.709 59.5124 634.986 59.4011 635.207 59.1817C635.421 58.972 635.53 58.6415 635.53 58.1997C635.53 57.7824 635.421 57.4663 635.204 57.2526C634.979 57.0387 634.705 56.9349 634.379 56.9349C634.045 56.9349 633.766 57.0387 633.546 57.2526C633.332 57.4663 633.22 57.785 633.22 58.2141ZM632.536 58.2141C632.536 57.5912 632.74 57.1303 633.145 56.8323C633.481 56.5844 633.887 56.4565 634.379 56.4565C634.92 56.4565 635.359 56.6107 635.699 56.9127C636.045 57.2162 636.217 57.6357 636.217 58.1696C636.217 58.6017 636.14 58.9419 635.988 59.193C635.839 59.4409 635.615 59.6347 635.327 59.7689C635.034 59.9063 634.72 59.9739 634.379 59.9739C633.83 59.9739 633.385 59.8301 633.044 59.5235C632.706 59.2168 632.536 58.7861 632.536 58.2141ZM632.135 59.3915L632.231 59.8959C632.046 59.9304 631.872 59.9451 631.73 59.9451C631.483 59.9451 631.297 59.9118 631.163 59.8461C631.028 59.7793 630.941 59.6974 630.884 59.5908C630.828 59.4805 630.804 59.2597 630.804 58.9155V56.9753H630.318V56.5351H630.804V55.7002L631.46 55.3601V56.5351H632.135V56.9753H631.46V58.9489C631.46 59.111 631.475 59.2152 631.493 59.2629C631.523 59.3074 631.563 59.3423 631.614 59.3708C631.664 59.4011 631.741 59.4122 631.843 59.4122C631.915 59.4122 632.011 59.4059 632.135 59.3915ZM624.761 61.1942L624.681 60.6628C624.834 60.692 624.956 60.7142 625.069 60.7142C625.22 60.7142 625.333 60.692 625.424 60.6469C625.512 60.6079 625.581 60.5484 625.638 60.4706C625.685 60.4149 625.75 60.2719 625.84 60.0464C625.858 60.016 625.879 59.9668 625.904 59.9063L624.414 56.5351H625.131L625.947 58.4826C626.055 58.7321 626.154 58.9901 626.229 59.2645C626.306 59.0023 626.402 58.7496 626.506 58.4954L627.348 56.5351H628.012L626.517 59.9573C626.36 60.3276 626.229 60.5834 626.146 60.7207C626.026 60.9092 625.892 61.0465 625.737 61.1331C625.581 61.2228 625.403 61.2682 625.185 61.2682C625.065 61.2682 624.914 61.246 624.761 61.1942ZM621.009 58.1568C621.009 58.5994 621.111 58.9228 621.315 59.1215C621.518 59.3297 621.775 59.4287 622.081 59.4287C622.383 59.4287 622.647 59.3297 622.853 59.1262C623.059 58.9228 623.163 58.6098 623.163 58.1759C623.163 57.7611 623.056 57.4498 622.843 57.2447C622.63 57.0381 622.371 56.9349 622.073 56.9349C621.777 56.9349 621.527 57.0308 621.319 57.2369C621.111 57.445 621.009 57.7533 621.009 58.1568ZM620.455 60.1787L621.105 60.264C621.129 60.4308 621.211 60.5578 621.329 60.6343C621.49 60.7381 621.721 60.7932 622.001 60.7932C622.314 60.7932 622.546 60.7381 622.721 60.6343C622.891 60.5309 623.001 60.3806 623.059 60.1909C623.094 60.0733 623.107 59.8301 623.106 59.4589C622.818 59.7523 622.459 59.9016 622.019 59.9016C621.478 59.9016 621.06 59.7306 620.764 59.4011C620.475 59.065 620.324 58.6653 620.324 58.1997C620.324 57.8787 620.391 57.5768 620.529 57.3036C620.66 57.0387 620.86 56.8284 621.115 56.6759C621.372 56.5312 621.673 56.4565 622.025 56.4565C622.486 56.4565 622.872 56.6186 623.168 56.9412V56.5351H623.786V59.4457C623.786 59.9668 623.715 60.3402 623.599 60.5578C623.47 60.7772 623.277 60.9488 623.008 61.0807C622.734 61.2086 622.405 61.2682 622.011 61.2682C621.542 61.2682 621.162 61.1767 620.872 60.9965C620.589 60.8155 620.45 60.5437 620.455 60.1787ZM616.801 58.2141C616.801 58.6488 616.912 58.972 617.132 59.1841C617.349 59.4011 617.632 59.5124 617.964 59.5124C618.29 59.5124 618.564 59.4011 618.785 59.1817C619.001 58.972 619.113 58.6415 619.113 58.1997C619.113 57.7824 619.001 57.4663 618.782 57.2526C618.564 57.0387 618.287 56.9349 617.964 56.9349C617.632 56.9349 617.349 57.0387 617.132 57.2526C616.912 57.4663 616.801 57.785 616.801 58.2141ZM616.117 58.2141C616.117 57.5912 616.32 57.1303 616.725 56.8323C617.065 56.5844 617.472 56.4565 617.964 56.4565C618.498 56.4565 618.942 56.6107 619.283 56.9127C619.629 57.2162 619.797 57.6357 619.797 58.1696C619.797 58.6017 619.72 58.9419 619.571 59.193C619.416 59.4409 619.198 59.6347 618.916 59.7689C618.618 59.9063 618.305 59.9739 617.964 59.9739C617.416 59.9739 616.967 59.8301 616.626 59.5235C616.285 59.2168 616.117 58.7861 616.117 58.2141ZM614.671 59.9016V55.2537H615.332V59.9016H614.671ZM610.906 58.2141C610.906 58.6488 611.019 58.972 611.237 59.1841C611.456 59.4011 611.729 59.5124 612.064 59.5124C612.394 59.5124 612.674 59.4011 612.891 59.1817C613.109 58.972 613.221 58.6415 613.221 58.1997C613.221 57.7824 613.109 57.4663 612.887 57.2526C612.667 57.0387 612.393 56.9349 612.064 56.9349C611.729 56.9349 611.456 57.0387 611.237 57.2526C611.019 57.4663 610.906 57.785 610.906 58.2141ZM610.222 58.2141C610.222 57.5912 610.425 57.1303 610.835 56.8323C611.168 56.5844 611.582 56.4565 612.064 56.4565C612.607 56.4565 613.047 56.6107 613.388 56.9127C613.734 57.2162 613.902 57.6357 613.902 58.1696C613.902 58.6017 613.827 58.9419 613.678 59.193C613.526 59.4409 613.305 59.6347 613.015 59.7689C612.723 59.9063 612.409 59.9739 612.064 59.9739C611.512 59.9739 611.072 59.8301 610.732 59.5235C610.389 59.2168 610.222 58.7861 610.222 58.2141ZM606.263 59.9016V56.5351H606.859V57.0111C607.148 56.644 607.564 56.4565 608.106 56.4565C608.347 56.4565 608.565 56.4979 608.76 56.5678C608.96 56.644 609.103 56.7394 609.206 56.8577C609.306 56.9753 609.375 57.1128 609.417 57.2798C609.436 57.3836 609.448 57.5658 609.448 57.8342V59.9016H608.786V57.8502C608.786 57.6197 608.757 57.445 608.708 57.3322C608.656 57.2162 608.565 57.124 608.435 57.0604C608.299 56.9905 608.146 56.9525 607.967 56.9525C607.685 56.9525 607.441 57.0308 607.233 57.1827C607.025 57.3385 606.926 57.6319 606.926 58.0631V59.9016H606.263ZM602.05 59.9016V55.2537H602.715V56.919C603.024 56.6129 603.415 56.4565 603.889 56.4565C604.181 56.4565 604.433 56.5042 604.648 56.6092C604.863 56.7029 605.019 56.8412 605.105 57.0111C605.197 57.1851 605.246 57.4377 605.246 57.7661V59.9016H604.579V57.7661C604.579 57.4846 604.507 57.2798 604.365 57.1453C604.221 57.0111 604.017 56.946 603.748 56.946C603.556 56.946 603.372 56.9952 603.2 57.0811C603.022 57.1685 602.901 57.2861 602.824 57.4377C602.75 57.588 602.715 57.7952 602.715 58.0573V59.9016H602.05ZM600.825 58.6709L601.474 58.74C601.404 59.1262 601.223 59.4287 600.929 59.6489C600.635 59.8673 600.27 59.9739 599.848 59.9739C599.308 59.9739 598.876 59.8301 598.548 59.5235C598.22 59.2247 598.057 58.791 598.057 58.2317C598.057 57.8677 598.128 57.5514 598.272 57.2798C598.409 57.0023 598.62 56.7988 598.913 56.6647C599.2 56.5249 599.515 56.4565 599.848 56.4565C600.27 56.4565 600.619 56.5487 600.891 56.7394C601.163 56.919 601.339 57.1827 601.412 57.5228L600.77 57.6118C600.709 57.3836 600.599 57.2114 600.441 57.1008C600.285 56.9857 600.095 56.9269 599.876 56.9269C599.536 56.9269 599.267 57.0308 599.057 57.2369C598.849 57.4435 598.739 57.7661 598.739 58.2141C598.739 58.6653 598.842 58.9958 599.046 59.2008C599.248 59.4059 599.515 59.5124 599.835 59.5124C600.099 59.5124 600.313 59.4409 600.491 59.3042C600.666 59.1628 600.777 58.9513 600.825 58.6709ZM594.553 57.8931H596.743C596.715 57.6118 596.63 57.3974 596.497 57.2591C596.284 57.0387 596.006 56.9269 595.672 56.9269C595.367 56.9269 595.106 57.0111 594.904 57.1923C594.695 57.3639 594.573 57.6006 594.553 57.8931ZM596.738 58.8164L597.425 58.8895C597.317 59.2359 597.118 59.4996 596.823 59.6887C596.53 59.8793 596.156 59.9739 595.7 59.9739C595.123 59.9739 594.668 59.827 594.334 59.5235C593.999 59.2168 593.829 58.791 593.829 58.2458C593.829 57.6755 593.999 57.2369 594.34 56.9269C594.676 56.6155 595.12 56.4565 595.664 56.4565C596.184 56.4565 596.615 56.6107 596.947 56.919C597.283 57.2241 597.449 57.6548 597.449 58.211C597.449 58.2433 597.444 58.2957 597.444 58.3656H594.519C594.541 58.7321 594.661 59.0171 594.882 59.2152C595.102 59.4122 595.375 59.5124 595.7 59.5124C595.947 59.5124 596.156 59.4526 596.33 59.3423C596.5 59.231 596.638 59.0547 596.738 58.8164ZM591.73 59.9016V55.8019H589.94V55.2537H594.24V55.8019H592.445V59.9016H591.73ZM584.513 58.1568C584.513 58.5994 584.618 58.9228 584.821 59.1215C585.027 59.3297 585.281 59.4287 585.589 59.4287C585.894 59.4287 586.155 59.3297 586.359 59.1262C586.566 58.9228 586.665 58.6098 586.665 58.1759C586.665 57.7611 586.563 57.4498 586.351 57.2447C586.134 57.0381 585.878 56.9349 585.58 56.9349C585.284 56.9349 585.033 57.0308 584.825 57.2369C584.618 57.445 584.513 57.7533 584.513 58.1568ZM583.963 60.1787L584.609 60.264C584.634 60.4308 584.715 60.5578 584.835 60.6343C585.003 60.7381 585.225 60.7932 585.511 60.7932C585.819 60.7932 586.055 60.7381 586.229 60.6343C586.394 60.5309 586.504 60.3806 586.566 60.1909C586.598 60.0733 586.618 59.8301 586.612 59.4589C586.324 59.7523 585.958 59.9016 585.525 59.9016C584.984 59.9016 584.564 59.7306 584.276 59.4011C583.976 59.065 583.828 58.6653 583.828 58.1997C583.828 57.8787 583.895 57.5768 584.032 57.3036C584.172 57.0387 584.363 56.8284 584.625 56.6759C584.882 56.5312 585.182 56.4565 585.528 56.4565C585.998 56.4565 586.377 56.6186 586.674 56.9412V56.5351H587.289V59.4457C587.289 59.9668 587.228 60.3402 587.102 60.5578C586.976 60.7772 586.783 60.9488 586.511 61.0807C586.243 61.2086 585.911 61.2682 585.514 61.2682C585.045 61.2682 584.667 61.1767 584.38 60.9965C584.093 60.8155 583.952 60.5437 583.963 60.1787ZM579.872 59.9016V56.5351H580.471V57.0111C580.762 56.644 581.18 56.4565 581.725 56.4565C581.957 56.4565 582.175 56.4979 582.375 56.5678C582.571 56.644 582.725 56.7394 582.82 56.8577C582.917 56.9753 582.986 57.1128 583.029 57.2798C583.054 57.3836 583.066 57.5658 583.066 57.8342V59.9016H582.399V57.8502C582.399 57.6197 582.372 57.445 582.319 57.3322C582.269 57.2162 582.179 57.124 582.047 57.0604C581.91 56.9905 581.761 56.9525 581.581 56.9525C581.297 56.9525 581.053 57.0308 580.844 57.1827C580.639 57.3385 580.538 57.6319 580.538 58.0631V59.9016H579.872ZM578.193 59.9016V56.5351H578.857V59.9016H578.193ZM578.193 55.91V55.2537H578.857V55.91H578.193ZM574.402 59.9016V55.2537H575.071V57.9041L576.651 56.5351H577.507L576.008 57.7824L577.659 59.9016H576.84L575.542 58.1838L575.071 58.5669V59.9016H574.402ZM570.192 59.9016V56.5351H570.793V57.0111C571.077 56.644 571.498 56.4565 572.039 56.4565C572.278 56.4565 572.493 56.4979 572.692 56.5678C572.892 56.644 573.04 56.7394 573.136 56.8577C573.238 56.9753 573.308 57.1128 573.342 57.2798C573.372 57.3836 573.38 57.5658 573.38 57.8342V59.9016H572.72V57.8502C572.72 57.6197 572.691 57.445 572.64 57.3322C572.589 57.2162 572.497 57.124 572.366 57.0604C572.236 56.9905 572.082 56.9525 571.901 56.9525C571.615 56.9525 571.375 57.0308 571.165 57.1827C570.963 57.3385 570.856 57.6319 570.856 58.0631V59.9016H570.192ZM568.486 58.211C568.243 58.2957 567.88 58.3656 567.4 58.4292C567.126 58.4619 566.932 58.4985 566.822 58.543C566.708 58.5834 566.618 58.6488 566.555 58.7305C566.498 58.8036 566.463 58.8989 566.463 58.9974C566.463 59.1516 566.53 59.2755 566.667 59.3789C566.799 59.4795 566.997 59.5305 567.256 59.5305C567.513 59.5305 567.741 59.4805 567.938 59.3883C568.141 59.2873 568.283 59.1563 568.382 58.9901C568.455 58.8631 568.486 58.675 568.486 58.4191V58.211ZM568.544 59.4868C568.294 59.668 568.063 59.7921 567.828 59.8636C567.603 59.9404 567.359 59.9739 567.095 59.9739C566.667 59.9739 566.332 59.8849 566.105 59.7047C565.871 59.5235 565.754 59.2914 565.754 59.0134C565.754 58.845 565.802 58.7004 565.884 58.559C565.974 58.4229 566.087 58.3205 566.23 58.2338C566.37 58.1521 566.53 58.0895 566.71 58.044C566.842 58.0178 567.034 57.9868 567.299 57.9583C567.836 57.9059 568.231 57.8407 568.486 57.7611C568.491 57.6865 568.491 57.6357 568.491 57.6118C568.491 57.3836 568.427 57.2162 568.301 57.124C568.132 56.9952 567.88 56.9349 567.544 56.9349C567.234 56.9349 567 56.9753 566.851 57.0716C566.703 57.1638 566.588 57.3322 566.519 57.5705L565.871 57.4964C565.929 57.2544 566.028 57.062 566.165 56.9142C566.298 56.7681 566.494 56.6543 566.745 56.5757C567.007 56.5001 567.303 56.4565 567.643 56.4565C567.975 56.4565 568.246 56.4884 568.458 56.5589C568.667 56.6251 568.821 56.7098 568.918 56.8142C569.019 56.919 569.089 57.0446 569.124 57.2049C569.149 57.3036 569.162 57.471 569.162 57.7326V58.4912C569.162 59.0197 569.171 59.3566 569.204 59.4965C569.234 59.6363 569.285 59.7736 569.374 59.9016H568.674C568.61 59.7793 568.564 59.6432 568.544 59.4868ZM561.699 59.3519H563.049C563.282 59.3519 563.448 59.3423 563.539 59.3297C563.704 59.3042 563.841 59.2645 563.95 59.2024C564.064 59.1427 564.157 59.0547 564.228 58.944C564.301 58.829 564.337 58.7004 564.337 58.5525C564.337 58.3778 564.284 58.2317 564.175 58.1013C564.075 57.9748 563.931 57.8836 563.75 57.8342C563.566 57.7824 563.298 57.7564 562.954 57.7564H561.699V59.3519ZM561.699 57.2049H562.877C563.193 57.2049 563.421 57.1851 563.559 57.151C563.74 57.1096 563.878 57.0271 563.972 56.919C564.06 56.8142 564.106 56.6759 564.106 56.5123C564.106 56.3612 564.064 56.2261 563.979 56.1101C563.892 55.9909 563.77 55.91 563.614 55.8661C563.449 55.8257 563.17 55.8019 562.784 55.8019H561.699V57.2049ZM560.984 59.9016V55.2537H563.021C563.432 55.2537 563.76 55.3004 564.014 55.3944C564.27 55.4889 564.462 55.6372 564.605 55.8273C564.747 56.0276 564.815 56.2285 564.815 56.4424C564.815 56.644 564.755 56.8284 564.622 57.0023C564.499 57.1795 564.309 57.3225 564.059 57.4259C564.385 57.5084 564.635 57.6501 564.815 57.8502C564.989 58.0505 565.079 58.284 565.079 58.5525C565.079 58.7719 565.021 58.972 564.919 59.1587C564.809 59.3488 564.678 59.4949 564.52 59.5955C564.361 59.6974 564.164 59.7689 563.928 59.8222C563.689 59.8746 563.399 59.9016 563.049 59.9016H560.984ZM555.041 58.1568C555.041 58.5994 555.144 58.9228 555.351 59.1215C555.559 59.3297 555.81 59.4287 556.116 59.4287C556.422 59.4287 556.68 59.3297 556.885 59.1262C557.095 58.9228 557.199 58.6098 557.199 58.1759C557.199 57.7611 557.09 57.4498 556.878 57.2447C556.665 57.0381 556.406 56.9349 556.105 56.9349C555.81 56.9349 555.56 57.0308 555.351 57.2369C555.144 57.445 555.041 57.7533 555.041 58.1568ZM554.494 60.1787L555.139 60.264C555.167 60.4308 555.243 60.5578 555.364 60.6343C555.531 60.7381 555.754 60.7932 556.04 60.7932C556.347 60.7932 556.588 60.7381 556.753 60.6343C556.92 60.5309 557.034 60.3806 557.095 60.1909C557.129 60.0733 557.147 59.8301 557.142 59.4589C556.851 59.7523 556.489 59.9016 556.053 59.9016C555.519 59.9016 555.096 59.7306 554.802 59.4011C554.505 59.065 554.358 58.6653 554.358 58.1997C554.358 57.8787 554.423 57.5768 554.563 57.3036C554.694 57.0387 554.894 56.8284 555.152 56.6759C555.405 56.5312 555.711 56.4565 556.058 56.4565C556.522 56.4565 556.903 56.6186 557.207 56.9412V56.5351H557.821V59.4457C557.821 59.9668 557.758 60.3402 557.635 60.5578C557.507 60.7772 557.31 60.9488 557.041 61.0807C556.77 61.2086 556.439 61.2682 556.046 61.2682C555.577 61.2682 555.195 61.1767 554.905 60.9965C554.618 60.8155 554.48 60.5437 554.494 60.1787ZM550.401 59.9016V56.5351H551.002V57.0111C551.288 56.644 551.703 56.4565 552.25 56.4565C552.488 56.4565 552.703 56.4979 552.906 56.5678C553.102 56.644 553.25 56.7394 553.348 56.8577C553.448 56.9753 553.518 57.1128 553.559 57.2798C553.579 57.3836 553.592 57.5658 553.592 57.8342V59.9016H552.926V57.8502C552.926 57.6197 552.9 57.445 552.851 57.3322C552.801 57.2162 552.706 57.124 552.576 57.0604C552.442 56.9905 552.289 56.9525 552.109 56.9525C551.826 56.9525 551.582 57.0308 551.376 57.1827C551.169 57.3385 551.067 57.6319 551.067 58.0631V59.9016H550.401ZM548.719 59.9016V56.5351H549.39V59.9016H548.719ZM548.719 55.91V55.2537H549.39V55.91H548.719ZM544.938 59.9016V55.2537H545.602V57.9041L547.177 56.5351H548.037L546.54 57.7824L548.192 59.9016H547.371L546.067 58.1838L545.602 58.5669V59.9016H544.938ZM543.225 58.211C542.985 58.2957 542.623 58.3656 542.141 58.4292C541.866 58.4619 541.672 58.4985 541.562 58.543C541.448 58.5834 541.36 58.6488 541.297 58.7305C541.237 58.8036 541.206 58.8989 541.206 58.9974C541.206 59.1516 541.271 59.2755 541.407 59.3789C541.541 59.4795 541.739 59.5305 541.993 59.5305C542.253 59.5305 542.482 59.4805 542.681 59.3883C542.88 59.2873 543.027 59.1563 543.118 58.9901C543.192 58.8631 543.225 58.675 543.225 58.4191V58.211ZM543.284 59.4868C543.035 59.668 542.8 59.7921 542.574 59.8636C542.342 59.9404 542.096 59.9739 541.835 59.9739C541.404 59.9739 541.075 59.8849 540.845 59.7047C540.611 59.5235 540.493 59.2914 540.493 59.0134C540.493 58.845 540.539 58.7004 540.627 58.559C540.715 58.4229 540.83 58.3205 540.968 58.2338C541.111 58.1521 541.271 58.0895 541.451 58.044C541.58 58.0178 541.775 57.9868 542.04 57.9583C542.578 57.9059 542.978 57.8407 543.225 57.7611C543.234 57.6865 543.234 57.6357 543.234 57.6118C543.234 57.3836 543.169 57.2162 543.042 57.124C542.875 56.9952 542.621 56.9349 542.285 56.9349C541.971 56.9349 541.74 56.9753 541.591 57.0716C541.443 57.1638 541.33 57.3322 541.258 57.5705L540.611 57.4964C540.672 57.2544 540.767 57.062 540.901 56.9142C541.037 56.7681 541.233 56.6543 541.492 56.5757C541.745 56.5001 542.043 56.4565 542.38 56.4565C542.715 56.4565 542.988 56.4884 543.194 56.5589C543.408 56.6251 543.563 56.7098 543.659 56.8142C543.761 56.919 543.825 57.0446 543.866 57.2049C543.887 57.3036 543.902 57.471 543.902 57.7326V58.4912C543.902 59.0197 543.917 59.3566 543.943 59.4965C543.97 59.6363 544.03 59.7736 544.112 59.9016H543.415C543.351 59.7793 543.299 59.6432 543.284 59.4868ZM538.398 59.9016V55.8019H536.613V55.2537H540.902V55.8019H539.117V59.9016H538.398Z" fill="#1C63B7"/>
<path fill-rule="evenodd" clip-rule="evenodd" d="M695.08 59.9016V56.5351H695.675V57.0112C695.964 56.644 696.38 56.4565 696.926 56.4565C697.166 56.4565 697.382 56.4979 697.576 56.5678C697.778 56.644 697.921 56.7394 698.022 56.8577C698.123 56.9753 698.195 57.1128 698.232 57.2798C698.255 57.3836 698.265 57.5658 698.265 57.8342V59.9016H697.601V57.8502C697.601 57.6197 697.574 57.445 697.521 57.3322C697.472 57.2162 697.382 57.124 697.247 57.0604C697.116 56.9905 696.964 56.9525 696.787 56.9525C696.498 56.9525 696.258 57.0309 696.051 57.1827C695.843 57.3385 695.747 57.6319 695.747 58.0631V59.9016H695.08Z" fill="#1C63B7"/>
</g>
<defs>
<clipPath id="clip0_6202_62138">
<rect width="910" height="75" fill="white"/>
</clipPath>
</defs>
</svg>
