<svg id="Layer_1" data-name="Layer 1" xmlns="http://www.w3.org/2000/svg" xmlns:xlink="http://www.w3.org/1999/xlink" viewBox="0 0 164 24"><defs><style>.cls-1,.cls-23{fill:#fff;}.cls-1{fill-rule:evenodd;}.cls-2,.cls-29{fill:none;}.cls-3{clip-path:url(#clip-path);}.cls-4{fill:#f5f6f6;}.cls-5{fill:#014aac;}.cls-6{fill:#fdf101;}.cls-7{fill:#fbfbb0;}.cls-8{fill:#00519b;}.cls-9{fill:#588ec5;}.cls-10{fill:#edf4f7;}.cls-11{fill:#fdb003;}.cls-12{fill:#edf1e0;}.cls-13{fill:#b1b5aa;}.cls-14{fill:#07acda;}.cls-15{fill:#e0dab3;}.cls-16{fill:#5b7563;}.cls-17{fill:#382e90;}.cls-18{fill:#6d8fa3;}.cls-19{fill:#0751a6;}.cls-20{mask:url(#mask);}.cls-21{mask:url(#mask-2);}.cls-22{mask:url(#mask-3-2);}.cls-23{font-size:5.05px;font-family:Gilroy-Bold;font-weight:700;letter-spacing:0.01em;}.cls-24{letter-spacing:0em;}.cls-25{letter-spacing:-0.01em;}.cls-26{letter-spacing:-0.03em;}.cls-27{letter-spacing:0em;}.cls-28{letter-spacing:-0.01em;}.cls-29{stroke:#fff;stroke-miterlimit:10;stroke-width:0.25px;}</style><clipPath id="clip-path"><rect class="cls-2" x="12.06" y="1.06" width="66.11" height="21.79"/></clipPath><mask id="mask" x="86.36" y="2.39" width="6.2" height="12.06" maskUnits="userSpaceOnUse"><g id="mask-3"><path id="path-2" class="cls-1" d="M86.56,3.56l4.54,3a.13.13,0,0,1,.06.1v7.69a.13.13,0,0,1-.13.13l-.07,0-4.54-3a.11.11,0,0,1-.06-.1V3.67a.13.13,0,0,1,.13-.13A.1.1,0,0,1,86.56,3.56Z"/></g></mask><mask id="mask-2" x="91.48" y="2.9" width="6.08" height="6.81" maskUnits="userSpaceOnUse"><g id="mask-7"><path id="path-6" class="cls-1" d="M92.81,6.6l4.54-3a.13.13,0,0,1,.18,0,.14.14,0,0,1,0,.07V6.55a.12.12,0,0,1,0,.1L93,9.69a.12.12,0,0,1-.17,0,.11.11,0,0,1,0-.07V6.71A.17.17,0,0,1,92.81,6.6Z"/></g></mask><mask id="mask-3-2" x="91.99" y="8.55" width="3.97" height="5.96" maskUnits="userSpaceOnUse"><g id="mask-11"><path id="path-10" class="cls-1" d="M92.81,11.4l2.94-2a.13.13,0,0,1,.18,0,.08.08,0,0,1,0,.07v2.87a.13.13,0,0,1,0,.11l-3,2a.12.12,0,0,1-.17,0,.09.09,0,0,1,0-.07V11.51A.14.14,0,0,1,92.81,11.4Z"/></g></mask></defs><g class="cls-3"><g id="uVv2hX"><path class="cls-4" d="M11.58,24.37q0-12,0-24c0-.2,0-.26.26-.26H78.27c.2,0,.25,0,.25.24q0,11.88,0,23.75c0,.22,0,.28-.27.28Zm.45-9.2v.12c0,.12,0,.24,0,.36q0,3.3,0,6.6s0,.05,0,.06h0c0,.17.18.11.27.11,4.38,0,8.76,0,13.13,0,13.39,0,26.77.07,40.15,0,4,0,8,0,11.94,0a2.38,2.38,0,0,1,.38,0c.22.05.25-.06.29-.23a4.4,4.4,0,0,0,0-1c0-1.89,0-3.77,0-5.66,0-.1.08-.25-.11-.3h0c-.1-.1-.23,0-.34,0H64.84l-.47,0,0-.05H77.7l.14,0a.29.29,0,0,0,.24,0c.07-.07,0-.16,0-.24q0-6.81,0-13.63c0-.08.06-.19-.06-.24H12.34c-.25,0-.33.05-.33.32q0,6.76,0,13.54c0,.09,0,.17,0,.25A.06.06,0,0,0,12,15.17Z"/><path class="cls-5" d="M77.84,15.14l-.14,0H64.4a.45.45,0,0,0-.3,0H27a.52.52,0,0,0-.3,0H12.66l-.19,0s0-.06-.05-.06c-.37,0-.34-.22-.34-.47V1.42c0-.35,0-.35.37-.35H77.64c.37,0,.37,0,.37.35V14.74A.43.43,0,0,1,77.84,15.14ZM38.07,10.43h0c0,.05,0,.09.06.11h0c.06.18.06.38.24.5l.05.14a1.31,1.31,0,0,0,.32.48h0s0,.05.06.06h0a2.18,2.18,0,0,0,1.27.89c.2,0,.38.15.59.12a1.8,1.8,0,0,0,.8,0,2,2,0,0,0,1.08-.43h0c.18-.08.28-.26.42-.38l.08,0c.1,0,.1-.26.2-.22s0,.23.08.34v0c0,.2,0,.4,0,.61s.06.22.23.21l1.11,0a9.31,9.31,0,0,0,1.29-.08h.14a1.59,1.59,0,0,0,.65-.06c.1,0,.24,0,.27-.11s-.07-.2-.15-.27l-.35-.3c.06-.15.21-.23.3-.37a.15.15,0,0,0,.1-.12h0a.05.05,0,0,0,.06-.06h0a1.31,1.31,0,0,0,.37-.5,2.44,2.44,0,0,0,.39-.85,2,2,0,0,0-1.53-2.61l-.54-.11c-.07,0-.1,0-.05-.1l.06,0a.72.72,0,0,0,.41-.11h0l.13,0c.29-.13.23-.35.12-.56a11.84,11.84,0,0,0-1.35-2.09c-.08-.11-.17-.25-.33-.22s-.15.21-.21.34l0,0a.34.34,0,0,1-.29.05,7.72,7.72,0,0,0-2.2-.12,2.66,2.66,0,0,0-1.59.79,2.08,2.08,0,0,0-.78,1.9v.21c0,.19-.07.24-.24.13s-.39-.18-.61.15a5.84,5.84,0,0,0-.47.64.08.08,0,0,0-.07.09h0a.18.18,0,0,0-.11.17h0a.2.2,0,0,0-.12.17h0a7.92,7.92,0,0,0-.82,1.25c0,.06-.08.15,0,.2a1.14,1.14,0,0,0,.52,0,.38.38,0,0,1,.36.13S38,10.44,38.07,10.43ZM17.45,9l.06.07a1.48,1.48,0,0,0,.87.2c.1,0,0-.06.05-.08s.16,0,.24,0,.14.08.1.13-.21.33-.45.32a1.29,1.29,0,0,1-.58-.16.34.34,0,0,0-.5.14c-.1.2.05.31.19.41a1.51,1.51,0,0,0,.93.21,1,1,0,0,0,1-.75c.08-.38-.2-.73-.71-.88l-.16,0c.05-.09.17,0,.22-.1.44,0,.45,0,.53-.47a.21.21,0,0,1,.22-.19,2.28,2.28,0,0,1,.86.1c.13.05.21.1.15.3s-.22.24-.37.27-.35.17-.23.44a1.22,1.22,0,0,0,1,.71,5.17,5.17,0,0,0,.55.07c.17.12,0,.39.26.49.49,0,.51,0,.52-.51s0-1.12,0-1.67c0-.17.05-.23.22-.22H24a2.12,2.12,0,0,1,.44.06c.13,0,.16.13.17.23s-.11.13-.2.14a1.22,1.22,0,0,1-.27,0,2,2,0,0,0-.93.1.68.68,0,0,0-.43.72c0,.29,0,.57.34.72s.77,0,.91-.58c0-.17.1-.33.31-.32s.23.16.23.32a2.11,2.11,0,0,0,0,.79c0,.27.23.22.4.22s.22-.15.22-.3c0-.59,0-1.18.05-1.78,0-.21.07-.32.31-.32s.32-.08.33-.45-.18-.21-.33-.21a20.81,20.81,0,0,1-2.09,0c-.06-.08-.14-.06-.22-.06H20.16c-.08,0-.15,0-.21,0-.37-.17-.74-.35-1.11-.51A4.13,4.13,0,0,0,16.27,6c-.34.07-.81.55-.75.91,0,.15,0,.18-.13.21l-.3,0c-.6.06-1.21,0-1.81.11-.13,0-.36,0-.37.21s.2.21.35.24a4.85,4.85,0,0,0,.55.08c0,.1-.1.08-.15.09-.6.17-.78.58-.45,1.1a.35.35,0,0,1-.05.51c-.18.16-.15.29,0,.43a3.62,3.62,0,0,1,.68.73,1.61,1.61,0,0,0,.24.28c.16.14.31,0,.45-.06s.2-.16.08-.27c-.31-.29-.13-.42.15-.56A.57.57,0,0,0,15,9.93a.71.71,0,0,0-.35-1.24,1.84,1.84,0,0,0-.52-.1c.08-.11.24,0,.33-.1s.36,0,.51-.12.08-.34.15-.5a.16.16,0,0,1,.17,0,.36.36,0,0,0,.27,0c.23,0,.3.06.29.29,0,.4,0,.79,0,1.19,0,.09,0,.19.07.25l0,.33c-.05,0-.05.08,0,.11a0,0,0,0,1,0,.05c0,.05,0,.1.08.1h0v0a.41.41,0,0,0,.5.05c.17-.07.16-.3.14-.44a7.49,7.49,0,0,1,0-1.57c0-.23.05-.37.29-.39h.28c.08.17.18,0,.27,0h.12c.07.1-.07.16-.05.25h0l-.07.06h0c-.14,0-.12.11-.11.2h0a.45.45,0,0,0,0,.5v0c0,.06,0,.12.07.14Zm53.6,1.12c.09.12.1.12.15,0h0c.1,0,.12-.07.11-.15,0-.58,0-1.16,0-1.75,0-.1,0-.25-.18-.26h0c0-.2,0-.23-.16-.17l-.11-.06c-.06-.18-.17-.13-.28-.07H69.9a.93.93,0,0,0-.46.12.22.22,0,0,0-.07.37.43.43,0,0,0,.46.16.48.48,0,0,1,.39,0c.09,0,.25,0,.23.15s-.17.09-.27.09a1.2,1.2,0,0,0-.81.3.79.79,0,0,0-.19.82.56.56,0,0,0,.51.42,2.32,2.32,0,0,0,.91,0ZM51.63,8.21a10.21,10.21,0,0,0,0,1.75c0,.26.13.29.41.19s.24-.23.25-.38c.07-.95.07-1.91.09-2.86,0-.1,0-.15-.13-.16-.64-.08-.68,0-.66.57ZM53,8c0,.26,0,.53,0,.8A9.55,9.55,0,0,0,53,10c.06.25.2.28.4.16s.25-.12.27-.27c0-.37.08-.74.13-1.1,0-.16,0-.35.28-.35s.26.18.28.34c0,.36.07.72.12,1.08,0,.14,0,.29.23.3a.34.34,0,0,0,.35-.27,3.71,3.71,0,0,0,.06-1.59.64.64,0,0,0-.73-.6c-.38,0-.76,0-1.14,0S52.92,7.74,53,8Zm8,.55a.92.92,0,0,1-.4.08,1,1,0,0,0-.71.34.74.74,0,0,0,.22,1.14,1.3,1.3,0,0,0,1,0,.73.73,0,0,1,.56,0c.09,0,.16.05.16-.09a10.23,10.23,0,0,0,0-1.75.6.6,0,0,0-.63-.58h-.73c-.36,0-.57.15-.56.33s.2.31.59.33C60.59,8.38,60.82,8.3,60.94,8.54Zm11,1.61c.34,0,.48-.08.57-.41s.06-.72.14-1.07c0-.15,0-.3.24-.31s.23.17.27.31a5.7,5.7,0,0,1,.13,1.09c0,.17.07.31.28.33s.34,0,.39-.25a3,3,0,0,0-.2-2c0-.1-.12-.1-.21-.1H71.82s0,.06,0,.09c0,.69,0,1.37,0,2.05C71.78,9.94,71.75,10.12,71.93,10.15Zm2.56-3.34a.19.19,0,0,0,0,.1V9.55c0,.06,0,.13.08.15s0,.34.12.44a.49.49,0,0,0,.62-.33c0-.06,0-.13,0-.19s0-.25.13-.29.19.11.26.2a4.87,4.87,0,0,0,.37.52c.1.09.61.16.66.08s0-.31-.08-.44c-.15-.29-.3-.58-.47-.85a.28.28,0,0,1,0-.37c.2-.24.38-.49.58-.75-.65-.15-1,.27-1.4.63l-.08,0V6.75a1,1,0,0,0-.73-.08s0,.06,0,.09A.09.09,0,0,1,74.49,6.81Zm-8.31,0a.17.17,0,0,0-.05.15V8.87a.18.18,0,0,0,.06.17c0,.23,0,.46,0,.69,0,.48.05.5.52.43a2.26,2.26,0,0,1,.45,0,2.84,2.84,0,0,0,.82-.1,1,1,0,0,0,.61-1.44.55.55,0,0,1,0-.59.83.83,0,0,0-.33-1.13,2.55,2.55,0,0,0-.39-.13c-.16-.12-.35-.06-.53-.06a4,4,0,0,0-1.14,0ZM31.42,9.31a2.13,2.13,0,0,1,0-.25.3.3,0,0,1,.21-.24c.12,0,.16.1.23.15s.06.18,0,.28l-.06.09c-.17.24,0,.39.14.53s.27,0,.37-.12A.89.89,0,0,0,32.53,9a.75.75,0,0,0-.66-.75l-.23,0c-.1,0-.21,0-.22-.17s.11-.16.21-.17l1-.1c.17,0,.42,0,.44-.19s-.26-.25-.44-.26c-1.08-.06-2.16-.12-3.25-.16A.33.33,0,0,1,29,6.87c-.09-.28-.21-.56-.32-.83s-.26-.23-.46-.16-.15.23-.1.39a1.82,1.82,0,0,1,.18.57l-.58-.53a.36.36,0,0,0-.53.05c-.16.2,0,.29.14.39l.42.33-.84.11c-.19,0-.3.09-.3.32s.16.23.3.25l1,.13-.35.1c-.6.2-.89.59-.81,1.09s.48.73,1.13.69h0c.16,0,.29,0,.3.23s.1.19.23.21c.3,0,.41,0,.42-.35,0-.61,0-1.23,0-1.84,0-.12,0-.22.17-.21.4,0,.8,0,1.2,0a.87.87,0,0,1,.51.12A1.18,1.18,0,0,1,30.2,8a.74.74,0,0,0-.26,1.45,1.11,1.11,0,0,0,.44,0c.25,0,.39.1.38.37s0,.28.19.29.36.1.43-.16A1.8,1.8,0,0,0,31.42,9.31Zm26.42-.86h.07c0-.49,0-1,0-1.47,0-.07.05-.17-.06-.22a.5.5,0,0,0-.75.47c0,.5,0,.5-.51.48s-.8.14-.91.7a3.26,3.26,0,0,0,0,1.08.69.69,0,0,0,.57.64,2.91,2.91,0,0,0,1.1,0,.44.44,0,0,1,.3,0c.17.07.21,0,.2-.18Zm4.49.38A7.16,7.16,0,0,0,62.38,10c0,.07,0,.16.08.2a.53.53,0,0,0,.6-.32c0-.36.07-.72.12-1.08,0-.16,0-.34.29-.33s.24.18.26.33c.05.36.08.72.12,1.08,0,.14,0,.29.23.3a.34.34,0,0,0,.36-.28,3.81,3.81,0,0,0,.06-1.54.7.7,0,0,0-.58-.55c-.47,0-1,0-1.42-.06-.14,0-.18,0-.18.17C62.33,8.18,62.33,8.48,62.33,8.83Zm-3.89,0h0c0,.36,0,.72.07,1.08,0,.11,0,.22.15.26a.28.28,0,0,0,.33-.12.75.75,0,0,0,.13-.32,6.72,6.72,0,0,0,.12-1.41c.06-.77.17-.61-.6-.63-.15,0-.19,0-.18.19Zm.43-2.08c-.35,0-.43.07-.43.34s.17.33.4.33.29,0,.32-.45C59.17,6.7,59,6.77,58.87,6.75ZM15,6.21c-.14-.11-.21-.33-.39-.32a.34.34,0,0,0-.29.35c0,.14.26.37.38.35S14.89,6.33,15,6.21Zm14.62,0c-.12-.1-.18-.33-.35-.31A.36.36,0,0,0,29,6.3a.28.28,0,0,0,.31.28C29.48,6.57,29.56,6.41,29.64,6.24Z"/><path class="cls-6" d="M12,22.25q0-3.3,0-6.6c0-.12,0-.24,0-.36h66a1.36,1.36,0,0,1,0,.2q0,3.29,0,6.58c0,.23-.09.27-.3.27-4.35,0-8.71,0-13.07,0-2.22,0-4.44,0-6.67,0-11.27,0-22.54,0-33.81,0-3.93,0-7.85,0-11.77,0l-.45,0h0Zm14.24-2.17h0s0-.07-.06-.06h0c-.07-.23-.36-.33-.34-.61h0l.06-.07h0s.08,0,.09,0a.21.21,0,0,1,.24.11c0,.19-.05.4.2.43s.32-.17.36-.36a.57.57,0,0,0-.2-.62,2.08,2.08,0,0,1,.06-.36.4.4,0,0,1,.42-.25c.16,0,.12.17.14.29s0,.35.05.52,0,.43,0,.64,0,.24.14.25.19-.11.21-.23,0-.16.06-.24,0-.1,0-.15v-.17a.89.89,0,0,0,.07-.46c0-.45,0-.45.46-.49l.27,0v.16h0c-.09,0-.17,0-.17.11h0q-.07,0-.06.06h0a.48.48,0,0,0-.11.72h0c0,.06,0,.1.07.11.15.27.41.22.65.24a1.09,1.09,0,0,0,.25.23c.12.07.26.23.41,0a1.27,1.27,0,0,0,.09-.43c0-.35,0-.7,0-1.05,0-.16.08-.26.24-.26a.24.24,0,0,1,.26.25c0,.18,0,.35,0,.53a5.84,5.84,0,0,0,0,.83c0,.09.07.19.18.17a.2.2,0,0,0,.18-.16,1.73,1.73,0,0,0,0-.55c0-.06.15-.11,0-.18a.21.21,0,0,0,.06-.16,2,2,0,0,0,0-.24c0-.46-.07-.41.43-.45.16.06.37-.06.49.14l-.08,0h0l-.06,0s-.08,0-.09,0h0a.38.38,0,0,0-.36.45.57.57,0,0,0,0,.51h0l0,0h0c.09.38.39.53.88.44.08,0,.16,0,.22.07a1.12,1.12,0,0,0,.13.24c.09.12.19.15.27,0h0c.13,0,.13-.15.12-.24a3,3,0,0,0-.14-.73c0-.06,0-.15-.14-.14l-.08,0c-.26-.05-.4.05-.42.32h0c-.06,0-.09,0-.12.06h0c-.29-.06-.33-.16-.21-.46.18-.14.41-.13.61-.22s.09,0,.09-.08l0,0,.4-.48c.11,0,.26,0,.25-.18s-.17-.12-.26-.16a.47.47,0,0,0-.17,0c0-.09-.12-.07-.19-.07h-.91a2.24,2.24,0,0,0-.73,0h-.39a2.06,2.06,0,0,0-.7,0H28.56a8.18,8.18,0,0,0-1.4,0H25.31a10.87,10.87,0,0,0-1.51,0,13.08,13.08,0,0,0-1.4,0,3.81,3.81,0,0,0-1,0,3.14,3.14,0,0,0-1.06,0,.73.73,0,0,0-.41,0c-.08,0-.12.07,0,.15s0,.11.07.12l.11.13s0,0,0,0h0a1.5,1.5,0,0,0,.07,1.14v0c-.09.12-.26.23,0,.37l.08.11a.75.75,0,0,0,.43.44h0c0,.05,0,.07.05.06h0a.29.29,0,0,0,.39.22c.2-.08.16-.26.08-.42l-.06-.09a.32.32,0,0,1,.14-.17s.06,0,.06,0h0q.13,0,.12-.12h0q.08,0,.06-.06h0a.17.17,0,0,0,.12-.24v-.2a.15.15,0,0,0,0-.22.73.73,0,0,1-.19-.52l0-.16a.89.89,0,0,1,.45-.12l.86,0,.41,0c.15,0,.28.09.26.28s-.32,0-.47-.07a.53.53,0,0,0-.73.23h0c-.31.27-.32.54,0,1a.68.68,0,0,0,.27.31.33.33,0,0,0,.39,0c.15-.11,0-.23,0-.34s.13-.09.12-.18a.86.86,0,0,1,.39-.06c0,.1,0,.21.05.32s0,.2.18.18c.28.17.31,0,.33-.22,0-.44,0-.89.06-1.33a.33.33,0,0,1,.45-.05h0c0,.33,0,.65,0,1a1.12,1.12,0,0,0,.09.65h0c0,.07,0,.07.1.07h0c.24.09.26-.07.28-.24v-1a.37.37,0,0,0,.1-.22c0-.33.09-.35.44-.24a1.66,1.66,0,0,0-.06.21A2.13,2.13,0,0,0,25.47,20a.15.15,0,0,0,.12.11h0a.09.09,0,0,0,.11.07h0s0,.06.07.05h0c.15.29.4.34.56.11h0c.1-.05.07-.11,0-.16h0S26.29,20.07,26.25,20.08ZM64.9,19.8h0s.07,0,.06-.06h0a.65.65,0,0,0,.38-.7v-.26a.44.44,0,0,0-.15-.44h0c0-.05,0-.1-.06-.11a.92.92,0,0,0-.76-.34c-.1-.14-.23-.09-.34,0S64,18,64,18.11a4.57,4.57,0,0,1-.06,1.43,2.82,2.82,0,0,1-.24-.69c0-.09,0-.23-.15-.26v-.15h0l0,0h0c0-.2,0-.4-.22-.52a.53.53,0,0,0-.39,0,.42.42,0,0,0-.22.31c-.14.47-.28.94-.41,1.4s0,.44.34.41l.07,0c.16-.18.37-.13.56-.12a.15.15,0,0,0,.14,0,.11.11,0,0,0,.14.05h.08l.8,0a.45.45,0,0,0,.45-.13h0S64.91,19.85,64.9,19.8ZM17.55,17.34h0a.05.05,0,0,0-.06-.06c-.12-.07-.24-.21-.38-.05a5.8,5.8,0,0,0-1.17,1.81.91.91,0,0,1-.25.41.67.67,0,0,0-.2.74c0,.21.31.18.5.2l.22,0a.88.88,0,0,0,.61.12c.33,0,.7.1,1-.13h0a.92.92,0,0,1,.36.07.45.45,0,0,0,.53-.08h0c.05,0,.1,0,.11-.05h0c.3-.08.32-.21.11-.51h0a.66.66,0,0,0-.17-.45h0a.08.08,0,0,0-.05-.1l-.44-.84a.07.07,0,0,0-.06-.07h0a.17.17,0,0,0-.12-.16h0s0,0-.05-.06h0c-.05-.15-.1-.3-.16-.44s-.12-.3-.29-.35h0S17.59,17.35,17.55,17.34ZM52,18.79c0,.06,0,.12,0,.18h0a1.39,1.39,0,0,0-.21.85l0,.1s0,0,0,0l.24,0h.11c.25-.11.49-.2.73.05a.29.29,0,0,0,.34,0,.21.21,0,0,0,.05-.31c0-.05,0-.13,0-.19A3.71,3.71,0,0,0,53,18.4c-.07-.2-.06-.45-.35-.5s-.45,0-.5.31h0v0l0,.13s0,0,0,0v.06l0,.05-.07.23S52,18.78,52,18.79Zm9.86,1.06c.05,0,.07,0,.06-.05h0c.18-.05.16-.2.17-.33h0a.57.57,0,0,0,0-.29,3.29,3.29,0,0,0,0-.83l0-.12c0-.06,0-.12-.07-.15L62,18a1.06,1.06,0,0,0-1-.16c-.15,0-.1.14-.1.23,0,.38,0,.76,0,1.14,0,.06,0,.17-.08.17s-.07-.09-.09-.15a5.5,5.5,0,0,0-.38-1.19.34.34,0,0,0-.54-.16l-.09.12c-.06,0,0,0,0,.07h0a5.31,5.31,0,0,0-.49,1.75c0,.07,0,.2.14.17a.54.54,0,0,0,.27-.11,1.47,1.47,0,0,1,.88,0,.21.21,0,0,0,.24,0c.07.07.15.17.26.14s.45,0,.67-.08.21,0,.23-.12Zm-6.47-.5c0-.05,0-.14-.11-.15a.2.2,0,0,0-.06-.18c0-.32,0-.64,0-1a.21.21,0,0,0-.21-.24.22.22,0,0,0-.26.22c0,.19,0,.38,0,.57s0,.3-.05.44,0,.33-.24.33a.32.32,0,0,1-.35-.33,3.7,3.7,0,0,0-.07-.66l0-.25c0-.06.07-.13,0-.13a.2.2,0,0,0-.26-.15c-.13,0-.13.16-.14.26,0,.41,0,.82,0,1.23,0,.67,0,.67.68.61h.08c.14,0,.22-.08.23-.23.26-.13.22.2.38.24a.7.7,0,0,0,.87-.13c.13-.16.13,0,.19,0s0,0,0,0,.27.12.41.05a.94.94,0,0,1,.47-.09c.21-.08.38.18.6.07s.31,0,.48,0l.1,0c.15.06.17-.05.18-.15s0-.18,0-.27.07-.21.21-.13,0,.19.07.27.09.35.3.32.18-.24.18-.39c0-.4,0-.79,0-1.19,0-.1.06-.21,0-.3a0,0,0,0,1,0,0,.07.07,0,0,0-.05-.09h0c0-.15-.1-.14-.2-.14a.21.21,0,0,0-.21.18,2,2,0,0,0,0,.35.06.06,0,0,0,0,0l-.16.06c-.1-.08,0-.22-.11-.31s0-.32-.27-.3-.2.19-.21.34,0,.28,0,.41l0,.41c0,.16,0,.34-.07.54a1.33,1.33,0,0,1-.16-.35,5.66,5.66,0,0,0-.33-1.06c-.07-.28-.25-.35-.55-.22a.6.6,0,0,0-.24.48,3.72,3.72,0,0,0-.25.8c-.06.08-.15.16-.11.28H55.7C55.62,19.32,55.47,19.4,55.36,19.35Z"/><path class="cls-7" d="M12,22.31l.45,0c3.92,0,7.84,0,11.77,0,11.27.08,22.54,0,33.81,0,2.23,0,4.45,0,6.67,0,4.36-.05,8.72,0,13.07,0,.21,0,.3,0,.3-.27q0-3.3,0-6.58a1.36,1.36,0,0,0,0-.2c.19.05.11.2.11.3,0,1.89,0,3.77,0,5.66a4.4,4.4,0,0,1,0,1c0,.17-.07.28-.29.23a2.38,2.38,0,0,0-.38,0c-4,0-8,0-11.94,0-13.38.1-26.76,0-40.15,0-4.37,0-8.75,0-13.13,0C12.2,22.42,12.06,22.48,12,22.31Z"/><path class="cls-8" d="M77.84,15.14a.43.43,0,0,0,.17-.4V1.42c0-.35,0-.35-.37-.35H12.45c-.37,0-.37,0-.37.35V14.61c0,.25,0,.5.34.47,0,0,0,0,.05.06h-.32l-.12,0c0-.08,0-.16,0-.25q0-6.76,0-13.54c0-.27.08-.32.33-.32H78.06c0,.11,0,.22,0,.33V14.52c0,.2,0,.4,0,.61A.29.29,0,0,1,77.84,15.14Z"/><path class="cls-7" d="M78.06,15.28H12v-.06H54.91l2.84,0h6.62l.47,0H77.72C77.83,15.23,78,15.18,78.06,15.28Z"/><path class="cls-9" d="M32.33,15.21H27.65c-.3-.08-.61,0-.91-.07a.52.52,0,0,1,.3,0H64.1a.45.45,0,0,1,.3,0l0,.05H57.75a.51.51,0,0,0-.3,0H32.63A.52.52,0,0,0,32.33,15.21Z"/><path class="cls-10" d="M26.74,15.15c.3.09.61,0,.91.07H12v-.06l.12,0h.32l.19,0H26.74Z"/><path class="cls-9" d="M78.08,15.13c0-.21,0-.41,0-.61V1.35c0-.11,0-.22,0-.33.12.05.06.16.06.24q0,6.81,0,13.63C78.13,15,78.15,15.06,78.08,15.13Z"/><path class="cls-9" d="M12.15,15.15l-.12,0a.06.06,0,0,1,0-.06Z"/><path class="cls-7" d="M12,22.25v.06S12,22.28,12,22.25Z"/><path class="cls-11" d="M38.2,8.39a5.84,5.84,0,0,1,.47-.64,3.29,3.29,0,0,1,.44.16l.66.34c.07,0,.16.11.23,0s0-.13-.08-.19a2.31,2.31,0,0,1-.3-.61l0-.08,0-.14a2.13,2.13,0,0,1,.76-1.79,1,1,0,0,0,.08-.11,4.09,4.09,0,0,1,2-.53A12,12,0,0,1,43.88,5c.27,0,.45,0,.5-.33l0,0h.14l.06,0h0a.26.26,0,0,0,.15.19v0a.73.73,0,0,0,.23.32h0a.11.11,0,0,0,.06.11l0,0a1.57,1.57,0,0,0,.31.45.2.2,0,0,0,.11.17.21.21,0,0,0,.11.18.32.32,0,0,0,.12.2.55.55,0,0,0,.17.27l0,.07a.09.09,0,0,0,.05.11h0l0,.08s0,0,0,0a.44.44,0,0,1,0,.28h0a.74.74,0,0,0-.41.11l-.06,0c-.17.09-.4.1-.5.35.27,0,.51,0,.75.08a2,2,0,0,1,1.69,2.06,3.05,3.05,0,0,1-.29,1.16,1.34,1.34,0,0,0-.29.52h0a.05.05,0,0,0-.06.06h0c-.1,0-.09.06-.1.12s-.24.22-.3.37a.24.24,0,0,0-.13.3,1.68,1.68,0,0,0,.2.34c-.15.09-.34,0-.49.1H43.65c-.22,0-.29-.07-.28-.29a.9.9,0,0,0,0-.46c.12-.17,0-.38.07-.56s.1-.15,0-.18-.14.06-.15.14-.19.3-.29.45-.33.24-.42.44h0a5.4,5.4,0,0,0-.79.31,10.15,10.15,0,0,1-1.09.14c-.21,0-.39-.1-.59-.12,0-.13-.12-.13-.2-.16a6.38,6.38,0,0,1-.57-.32c-.19-.11-.29-.33-.5-.41h0s0-.07-.06-.06h0a.61.61,0,0,0-.32-.48L38.37,11a.68.68,0,0,0-.24-.5h0c0-.06,0-.11-.06-.11h0l0,0a.06.06,0,0,0,0,0c0-.2-.18-.26-.38-.22l-.45.09c-.14-.06-.07-.14,0-.22l.39-.61a1.64,1.64,0,0,0,.3-.57h0c.11,0,.14-.08.12-.17h0c.11,0,.13-.08.11-.17h0C38.2,8.49,38.22,8.45,38.2,8.39ZM42.31,10h0l.08-.06s.08,0,.06-.11l0-.08a.29.29,0,0,0,.17-.25c.08-.1,0-.3.16-.35a3.29,3.29,0,0,0,.37.86c0,.06.09.18.19.08s.35,0,.5.1.4.26.6-.1a.47.47,0,0,0,0-.56l0-.07s0-.07,0-.08h0a.07.07,0,0,0,0-.07h0c0-.14-.09-.2-.18-.25A1.28,1.28,0,0,0,43,9l-.1,0c0-.1,0-.19.06-.28h0a2,2,0,0,0,.45-.46c.09,0,.23-.05.17-.19s-.15-.06-.22,0c-.34.09-.34.09-.28-.25,0,0,0-.07,0-.1s0-.18.07-.27,0,0,.06,0,0,0,0,0c-.11-.2-.66-.17-.9,0h0a.11.11,0,0,0-.13,0s0,0,0,0l0,0h0c-.09,0-.11,0-.16.08l0,0,0,0c-.17.5.13.82.44,1.13l0,.15-.18.05a.12.12,0,0,0-.14,0l-.16,0c-.16-.13-.32,0-.48,0,.21.24.2.25-.11.33-.11,0-.24,0-.33.12l-.14.07h0c-.09.12,0,.22,0,.32a.85.85,0,0,0,1.37.07h0S42.31,10,42.31,10Z"/><path class="cls-10" d="M17.6,7.85h-.12a.42.42,0,0,0-.27,0h-.28c-.25-.06-.42,0-.37.29a.47.47,0,0,1,0,.17,3.83,3.83,0,0,0,0,1.35c.06.53,0,.62-.52.54v0h0l-.08-.1a0,0,0,0,0,0-.05V9.93l0-.33c0-.4,0-.8,0-1.19,0-.64,0-.64-.64-.58a.16.16,0,0,0-.17,0c-.22.11-.07.34-.15.5s-.34.1-.51.12a5.56,5.56,0,0,0-.58,0c-.09,0-.22,0-.2.14s.19.12.31.12.21,0,.14-.17a1.84,1.84,0,0,1,.52.1A.71.71,0,0,1,15,9.93a.57.57,0,0,1-.18.17c-.28.14-.46.27-.15.56.12.11,0,.2-.08.27s-.29.2-.45.06a1.61,1.61,0,0,1-.24-.28,3.62,3.62,0,0,0-.68-.73c-.18-.14-.21-.27,0-.43A.35.35,0,0,0,13.21,9c-.33-.52-.15-.93.45-1.1.05,0,.11,0,.15-.09a4.85,4.85,0,0,1-.55-.08c-.15,0-.35,0-.35-.24s.24-.18.37-.21c.6-.1,1.21-.05,1.81-.11l.3,0c.1,0,.16-.06.13-.21-.06-.36.41-.84.75-.91a4.13,4.13,0,0,1,2.57.58c.37.16.74.34,1.11.51l3.56,0a20.81,20.81,0,0,0,2.09,0c.15,0,.34-.08.33.21s0,.45-.33.45-.31.11-.31.32c0,.6,0,1.19-.05,1.78,0,.15,0,.29-.22.3s-.38,0-.4-.22a.89.89,0,0,0,.06-.81c0-.08-.06,0-.1,0s0-.31-.23-.32S24.08,9,24,9.2c-.14.57-.47.77-.91.58s-.34-.43-.34-.72a.68.68,0,0,1,.43-.72,2,2,0,0,1,.93-.1,1.22,1.22,0,0,0,.27,0c.09,0,.21,0,.2-.14s0-.21-.17-.23A2.12,2.12,0,0,0,24,7.82H22.4c-.17,0-.22.05-.22.22,0,.55,0,1.11,0,1.67s0,.52-.52.51c0-.14,0-.28,0-.41s0-.19-.08-.22-.08.13-.17.14a5.17,5.17,0,0,1-.55-.07,1.22,1.22,0,0,1-1-.71c-.12-.27-.06-.36.23-.44s.31,0,.37-.27,0-.25-.15-.3a2.28,2.28,0,0,0-.86-.1.21.21,0,0,0-.22.19c-.08.45-.09.45-.53.47a1.93,1.93,0,0,0-.63.06c-.05,0-.1,0-.09.07s0,.07.06.09c.19.12.32,0,.44-.12l.16,0c.51.15.79.5.71.88a1,1,0,0,1-1,.75,1.51,1.51,0,0,1-.93-.21c-.14-.1-.29-.21-.19-.41a.34.34,0,0,1,.5-.14,1.29,1.29,0,0,0,.58.16c.24,0,.33-.18.45-.32s-.05-.11-.1-.13-.17-.12-.24,0,.05.08-.05.08a1.48,1.48,0,0,1-.87-.2L17.45,9h0l-.07-.14V8.37h0l.11-.2h0l.07-.06h0a2.21,2.21,0,0,1,.66-.21A1.78,1.78,0,0,0,17.6,7.85Zm3.85.86c.08,0,0,.13.14.15a3,3,0,0,0,0-.89l-.11,0c0-.06,0-.21-.12-.16s-.26.1-.22.26-.09.43-.22.62-.18.17-.2.33C21,8.93,21.35,9.11,21.45,8.71ZM18.32,7a4.62,4.62,0,0,0-1.21-.32,1.55,1.55,0,0,0-.71,0c-.13,0-.24.11-.23.25s.14.14.24.15a7.87,7.87,0,0,0,1.61,0A.39.39,0,0,0,18.32,7ZM13.38,9.23c0,.13.08.29.14.26s.23.06.32.11a.44.44,0,0,0,.4,0c.11,0,.3-.06.29-.2s-.2-.12-.32-.14C13.94,9.23,13.66,9.37,13.38,9.23Zm10.14-.14c0-.06,0-.16-.1-.14a.13.13,0,0,0-.11.14c0,.08.05.17.15.16S23.51,9.15,23.52,9.09Z"/><path class="cls-10" d="M31.38,10c-.07.26-.28.17-.43.16s-.2-.16-.19-.29-.13-.37-.38-.37a1.11,1.11,0,0,1-.44,0A.74.74,0,0,1,30.2,8,1.18,1.18,0,0,0,30.75,8a.87.87,0,0,0-.51-.12c-.4,0-.8,0-1.2,0-.17,0-.17.09-.17.21,0,.61,0,1.23,0,1.84,0,.32-.12.39-.42.35-.13,0-.22-.08-.23-.21s-.14-.24-.3-.23h0c-.65,0-1.05-.21-1.13-.69S27,8.19,27.56,8l.35-.1-1-.13c-.14,0-.29,0-.3-.25s.11-.3.3-.32l.84-.11-.42-.33c-.12-.1-.3-.19-.14-.39a.36.36,0,0,1,.53-.05l.58.53a1.82,1.82,0,0,0-.18-.57c0-.16-.12-.3.1-.39s.37-.07.46.16.23.55.32.83a.33.33,0,0,0,.38.28c1.09,0,2.17.1,3.25.16.18,0,.46,0,.44.26s-.27.17-.44.19l-1,.1c-.1,0-.23,0-.21.17s.12.15.22.17l.23,0a.75.75,0,0,1,.66.75.89.89,0,0,1-.18.78c-.1.09-.2.27-.37.12s-.31-.29-.14-.53l.06-.09c.05-.1.08-.21,0-.28s-.11-.18-.23-.15a.3.3,0,0,0-.21.24,2.13,2.13,0,0,0,0,.25s-.08,0-.08,0A1.39,1.39,0,0,0,31.38,10ZM30.33,8.6c-.09.05-.24,0-.24.17A.17.17,0,0,0,30.3,9c.13,0,.28,0,.29-.2S30.43,8.65,30.33,8.6Zm-2.2.26c.06,0,.07,0,.07-.09a.12.12,0,0,0-.12-.15s-.1,0-.09.08A.23.23,0,0,0,28.13,8.86Zm3.22-.74c.07-.09.07-.16,0-.22S31.3,8,31.35,8.12Z"/><path class="cls-10" d="M67.91,6.76a2.55,2.55,0,0,1,.39.13A.83.83,0,0,1,68.63,8a.55.55,0,0,0,0,.59A1,1,0,0,1,68,10.05a2.84,2.84,0,0,1-.82.1,2.26,2.26,0,0,0-.45,0c-.47.07-.49.05-.52-.43,0-.23,0-.46,0-.69V6.81l.06-.06Zm-.56,2c-.14,0-.27,0-.33.12a.5.5,0,0,0,.24.6.61.61,0,0,0,.61-.15c.12-.08.07-.28,0-.4A.66.66,0,0,0,67.35,8.76Zm-.07-1.33c-.22,0-.28.09-.27.31s0,.33.25.34.6-.1.61-.32S67.71,7.44,67.28,7.43Z"/><path class="cls-10" d="M57.84,8.45V10c0,.15,0,.25-.2.18a.44.44,0,0,0-.3,0,2.91,2.91,0,0,1-1.1,0,.69.69,0,0,1-.57-.64,3.26,3.26,0,0,1,0-1.08c.11-.56.34-.73.91-.7s.5,0,.51-.48a.5.5,0,0,1,.75-.47c.11,0,.06.15.06.22,0,.49,0,1,0,1.47Zm-.8.41s0-.15,0-.26-.19-.23-.36-.24-.15.13-.22.23c-.2.29,0,.53.06.78s.13.15.23.16A.24.24,0,0,0,57,9.37,1.3,1.3,0,0,0,57,8.86Z"/><path class="cls-10" d="M75.27,6.75V8.32l.08,0c.38-.36.75-.78,1.4-.63-.2.26-.38.51-.58.75a.28.28,0,0,0,0,.37c.17.27.32.56.47.85.07.13.17.28.08.44s-.56,0-.66-.08a4.87,4.87,0,0,1-.37-.52c-.07-.09-.12-.24-.26-.2s-.11.19-.13.29,0,.13,0,.19a.49.49,0,0,1-.62.33c-.16-.1,0-.3-.12-.44l0-2.89a.09.09,0,0,0,0,0Z"/><path class="cls-10" d="M70.87,7.76l.11.06.16.17h0a1.52,1.52,0,0,1,.12.51,11.37,11.37,0,0,1,0,1.65h-.15c-.15-.06-.3-.2-.45,0a2.32,2.32,0,0,1-.91,0,.56.56,0,0,1-.51-.42.79.79,0,0,1,.19-.82,1.2,1.2,0,0,1,.81-.3c.1,0,.26,0,.27-.09s-.14-.11-.23-.15a.48.48,0,0,0-.39,0,.43.43,0,0,1-.46-.16.22.22,0,0,1,.07-.37.93.93,0,0,1,.46-.12h.69Zm-.66,1.4c-.15,0-.34.05-.35.25a.2.2,0,0,0,.23.19c.14,0,.36,0,.38-.25S70.33,9.19,70.21,9.16Z"/><path class="cls-10" d="M71.82,7.7h1.72c.09,0,.16,0,.21.1A3,3,0,0,1,74,9.84c0,.22-.2.26-.39.25s-.27-.16-.28-.33a5.7,5.7,0,0,0-.13-1.09c0-.14,0-.33-.27-.31s-.21.16-.24.31c-.08.35,0,.72-.14,1.07s-.23.46-.57.41a.58.58,0,0,1-.06-.26A20,20,0,0,1,71.82,7.7Z"/><path class="cls-10" d="M62.33,8.83c0-.35,0-.65,0-1,0-.13,0-.18.18-.17.47,0,1,0,1.42.06a.7.7,0,0,1,.58.55,3.81,3.81,0,0,1-.06,1.54.34.34,0,0,1-.36.28c-.18,0-.21-.16-.23-.3,0-.36-.07-.72-.12-1.08,0-.15,0-.32-.26-.33s-.27.17-.29.33c0,.36-.08.72-.12,1.08a.53.53,0,0,1-.6.32c-.08,0-.07-.13-.08-.2A7.16,7.16,0,0,1,62.33,8.83Z"/><path class="cls-10" d="M60.4,8.36c-.39,0-.59-.13-.59-.33s.2-.31.56-.33h.73a.6.6,0,0,1,.63.58,10.23,10.23,0,0,1,0,1.75c0,.14-.07.12-.16.09a.73.73,0,0,0-.56,0,1.3,1.3,0,0,1-1,0A.74.74,0,0,1,59.83,9a1,1,0,0,1,.71-.34.92.92,0,0,0,.4-.08c.05,0,.1.07.15,0a.14.14,0,0,0,0-.18A.51.51,0,0,0,60.4,8.36Zm.32,1.19A.26.26,0,0,0,61,9.38a.16.16,0,0,0-.08-.18.29.29,0,0,0-.33,0c-.05,0-.08.07-.12.11s-.13.09-.09.18a.3.3,0,0,0,.32.17C60.77,9.66,60.74,9.6,60.72,9.55Z"/><path class="cls-10" d="M53,8c0-.25,0-.32.3-.31s.76,0,1.14,0a.64.64,0,0,1,.73.6,3.71,3.71,0,0,1-.06,1.59.34.34,0,0,1-.35.27c-.18,0-.22-.16-.23-.3-.05-.36-.08-.72-.12-1.08,0-.16,0-.34-.28-.34s-.25.19-.28.35c-.05.36-.08.73-.13,1.1,0,.15,0,.3-.27.27a.42.42,0,0,1-.29-.42c0-.16,0-.33,0-.49,0-.4,0-.79,0-1.19C53.06,7.92,53,8,53,8Z"/><path class="cls-10" d="M51.63,7.32c0-.62,0-.65.66-.57.11,0,.13.06.13.16,0,1,0,1.91-.09,2.86,0,.15,0,.38-.25.38a.47.47,0,0,1-.3-.44c-.06-.49,0-1-.05-1.47V7.05C51.67,7.14,51.72,7.25,51.63,7.32Z"/><path class="cls-10" d="M58.44,8.83v-1c0-.14,0-.2.18-.19.77,0,.66-.14.6.63a6.72,6.72,0,0,1-.12,1.41.75.75,0,0,1-.13.32.28.28,0,0,1-.33.12c-.14,0-.14-.15-.15-.26,0-.36,0-.72-.07-1.08Z"/><path class="cls-12" d="M47.23,10.92a3.05,3.05,0,0,0,.29-1.16A2,2,0,0,0,45.83,7.7c-.24,0-.48,0-.75-.08.1-.25.33-.26.5-.35,0,.07,0,.09.05.1l.54.11a2,2,0,0,1,1.53,2.61,2.44,2.44,0,0,1-.39.85Z"/><path class="cls-12" d="M44.38,4.64c-.05.28-.23.37-.5.33a12,12,0,0,0-1.46-.14,4.09,4.09,0,0,0-2,.53H40.3a2.66,2.66,0,0,1,1.59-.79,7.72,7.72,0,0,1,2.2.12A.34.34,0,0,0,44.38,4.64Z"/><path class="cls-10" d="M44.49,4.58H44.4c.06-.13,0-.31.21-.34s.25.11.33.22a11.84,11.84,0,0,1,1.35,2.09c.11.21.17.43-.12.56,0-.1,0-.21-.12-.26s0,0,0,0l0-.08h0a.13.13,0,0,0-.05-.11l0-.07c0-.12,0-.24-.17-.27a.32.32,0,0,1-.12-.2c0-.09,0-.17-.11-.18a.2.2,0,0,1-.11-.17.46.46,0,0,0-.31-.45l0,0s0-.09-.06-.11h0c0-.16,0-.29-.23-.32v0c0-.12,0-.17-.15-.19h0l-.06,0h0S44.51,4.54,44.49,4.58Z"/><path class="cls-12" d="M39.62,7.48a2.31,2.31,0,0,0,.3.61c0,.06.13.12.08.19s-.16,0-.23,0l-.66-.34a3.29,3.29,0,0,0-.44-.16c.22-.33.31-.36.61-.15s.24.06.24-.13V7.26h.06l0,.14Z"/><path class="cls-10" d="M58.87,6.75c.12,0,.3,0,.29.22,0,.44,0,.44-.32.45s-.41,0-.4-.33S58.52,6.75,58.87,6.75Z"/><path class="cls-10" d="M15,6.21c-.13.12-.08.35-.3.38s-.39-.21-.38-.35a.34.34,0,0,1,.29-.35C14.81,5.88,14.88,6.1,15,6.21Z"/><path class="cls-10" d="M29.64,6.24c-.08.17-.16.33-.35.34A.28.28,0,0,1,29,6.3a.36.36,0,0,1,.31-.37C29.46,5.91,29.52,6.14,29.64,6.24Z"/><path class="cls-8" d="M16,10.18c.51.08.58,0,.52-.54a3.83,3.83,0,0,1,0-1.35.47.47,0,0,0,0-.17c0-.31.12-.35.37-.29-.24,0-.27.16-.29.39a7.49,7.49,0,0,0,0,1.57c0,.14,0,.37-.14.44A.41.41,0,0,1,16,10.18Z"/><path class="cls-9" d="M53,8s.1-.07.1,0c0,.4,0,.79,0,1.19,0,.16,0,.33,0,.49a.42.42,0,0,0,.29.42c-.2.12-.34.09-.4-.16a9.55,9.55,0,0,1,0-1.19C53,8.52,53,8.25,53,8Z"/><path class="cls-13" d="M43.34,12a.9.9,0,0,1,0,.46c0,.22.06.29.28.29h2.28a9.31,9.31,0,0,1-1.29.08l-1.11,0c-.17,0-.23-.05-.23-.21s0-.41,0-.61Z"/><path class="cls-12" d="M46.56,12.62a1.68,1.68,0,0,1-.2-.34.24.24,0,0,1,.13-.3l.35.3c.08.07.19.15.15.27s-.17.1-.27.11Z"/><path class="cls-14" d="M51.73,8.24c0,.49,0,1,.05,1.47a.47.47,0,0,0,.3.44c-.28.1-.36.07-.41-.19a10.21,10.21,0,0,1,0-1.75Z"/><path class="cls-15" d="M39.58,7.26h-.06a2.08,2.08,0,0,1,.78-1.9h.12a1,1,0,0,1-.08.11A2.13,2.13,0,0,0,39.58,7.26Z"/><path class="cls-8" d="M15.26,7.83c.64-.06.64-.06.64.58,0,.39,0,.79,0,1.19-.11-.06-.07-.16-.07-.25,0-.4,0-.79,0-1.19,0-.23-.06-.32-.29-.29A.36.36,0,0,1,15.26,7.83Z"/><path class="cls-8" d="M23.51,7.15,20,7.13c.06-.06.13,0,.21,0h3.13C23.37,7.09,23.45,7.07,23.51,7.15Z"/><path class="cls-15" d="M40.66,12.72a10.15,10.15,0,0,0,1.09-.14,5.4,5.4,0,0,1,.79-.31,2,2,0,0,1-1.08.43A1.8,1.8,0,0,1,40.66,12.72Z"/><path class="cls-15" d="M37.91,8.81a1.64,1.64,0,0,1-.3.57l-.39.61c0,.08-.11.16,0,.22l-.12,0c-.12,0-.08-.14,0-.2A7.92,7.92,0,0,1,37.91,8.81Z"/><path class="cls-15" d="M38.8,11.71c.21.08.31.3.5.41a6.38,6.38,0,0,0,.57.32c.08,0,.2,0,.2.16A2.18,2.18,0,0,1,38.8,11.71Z"/><path class="cls-16" d="M43.34,12l0,0v0c-.05-.11.07-.29-.08-.34s-.1.18-.2.22l-.08,0v-.06c.1-.15.27-.25.29-.45s.08-.16.15-.14,0,.12,0,.18S43.46,11.81,43.34,12Z"/><path class="cls-8" d="M71.2,10.15a11.37,11.37,0,0,0,0-1.65A1.52,1.52,0,0,0,71.13,8c.18,0,.17.16.18.26,0,.59,0,1.17,0,1.75C71.32,10.08,71.3,10.14,71.2,10.15Z"/><path class="cls-8" d="M74.49,6.81l0,2.89c-.07,0-.08-.09-.08-.15V6.91A.19.19,0,0,1,74.49,6.81Z"/><path class="cls-8" d="M71.82,7.7a20,20,0,0,0,.05,2.19.58.58,0,0,0,.06.26c-.18,0-.15-.21-.16-.31,0-.68,0-1.36,0-2C71.77,7.76,71.8,7.73,71.82,7.7Z"/><path class="cls-9" d="M14.1,8.59c.07.16,0,.17-.14.17s-.27,0-.31-.12.11-.14.2-.14a5.56,5.56,0,0,1,.58,0C14.34,8.58,14.18,8.48,14.1,8.59Z"/><path class="cls-9" d="M24.58,9.2s.08-.1.1,0a.89.89,0,0,1-.06.81A2.11,2.11,0,0,1,24.58,9.2Z"/><path class="cls-8" d="M66.18,6.81V9a.18.18,0,0,1-.06-.17V7A.17.17,0,0,1,66.18,6.81Z"/><path class="cls-13" d="M37.13,10.26l.12,0,.45-.09c.2,0,.33,0,.38.22l0,0h0a.38.38,0,0,0-.36-.13A1.14,1.14,0,0,1,37.13,10.26Z"/><path class="cls-13" d="M51.73,8.24l-.1,0V7.32c.09-.07,0-.18.1-.27Z"/><path class="cls-9" d="M18.5,8.59c-.12.13-.25.24-.44.12,0,0-.06-.06-.06-.09s0-.06.09-.07a1.93,1.93,0,0,1,.63-.06C18.67,8.57,18.55,8.5,18.5,8.59Z"/><path class="cls-14" d="M60.4,8.36a.51.51,0,0,1,.66,0,.14.14,0,0,1,0,.18c-.05.06-.1,0-.15,0C60.82,8.3,60.59,8.38,60.4,8.36Z"/><path class="cls-14" d="M21.4,9.72c.09,0,.06-.18.17-.14s.07.14.08.22,0,.27,0,.41C21.44,10.11,21.57,9.84,21.4,9.72Z"/><path class="cls-8" d="M17.6,7.85a1.78,1.78,0,0,1,.61,0,2.21,2.21,0,0,0-.66.21C17.53,8,17.67,8,17.6,7.85Z"/><path class="cls-8" d="M67.91,6.76H66.24a4,4,0,0,1,1.14,0C67.56,6.7,67.75,6.64,67.91,6.76Z"/><path class="cls-8" d="M75.27,6.75H74.5s0-.08,0-.09A1,1,0,0,1,75.27,6.75Z"/><path class="cls-14" d="M31.38,10a1.39,1.39,0,0,1,0-.7c0-.05.05,0,.08,0A1.8,1.8,0,0,1,31.38,10Z"/><path class="cls-15" d="M43,11.83v.06c-.14.12-.24.3-.42.38C42.62,12.07,42.8,12,43,11.83Z"/><path class="cls-15" d="M47.23,10.92l.08,0a1.31,1.31,0,0,1-.37.5A1.34,1.34,0,0,1,47.23,10.92Z"/><path class="cls-15" d="M38.42,11.18a.61.61,0,0,1,.32.48A1.31,1.31,0,0,1,38.42,11.18Z"/><path class="cls-15" d="M38.13,10.54a.68.68,0,0,1,.24.5C38.19,10.92,38.19,10.72,38.13,10.54Z"/><path class="cls-13" d="M46.56,12.62l.16,0a1.59,1.59,0,0,1-.65.06C46.22,12.65,46.41,12.71,46.56,12.62Z"/><path class="cls-8" d="M70.6,10.14c.15-.2.3-.06.45,0Z"/><path class="cls-8" d="M14.94,8.37c.08-.16-.07-.39.15-.5C15,8,15.12,8.24,14.94,8.37Z"/><path class="cls-12" d="M45.64,7.25a.74.74,0,0,1,.41-.11A.72.72,0,0,1,45.64,7.25Z"/><path class="cls-12" d="M46.05,6.86c.11,0,.11.16.12.26l-.13,0A.44.44,0,0,0,46.05,6.86Z"/><path class="cls-8" d="M17.38,8.37v.5A.45.45,0,0,1,17.38,8.37Z"/><path class="cls-8" d="M70.87,7.76l-.28-.07C70.7,7.63,70.81,7.58,70.87,7.76Z"/><path class="cls-8" d="M71.14,8,71,7.82C71.12,7.76,71.14,7.79,71.14,8Z"/><path class="cls-8" d="M17.21,7.84a.42.42,0,0,1,.27,0C17.39,7.86,17.29,8,17.21,7.84Z"/><path class="cls-15" d="M38,8.65c0,.09,0,.16-.12.17A.2.2,0,0,1,38,8.65Z"/><path class="cls-15" d="M38.13,8.48c0,.09,0,.16-.11.17A.18.18,0,0,1,38.13,8.48Z"/><path class="cls-8" d="M17.5,8.15l-.11.2C17.38,8.26,17.36,8.16,17.5,8.15Z"/><path class="cls-15" d="M46.79,11.61c0-.06,0-.13.1-.12A.15.15,0,0,1,46.79,11.61Z"/><path class="cls-8" d="M71.05,10.14h.15C71.15,10.26,71.14,10.26,71.05,10.14Z"/><path class="cls-15" d="M38.2,8.39c0,.06,0,.1-.07.09A.08.08,0,0,1,38.2,8.39Z"/><path class="cls-8" d="M17.39,8.89l.07.14C17.38,9,17.38,9,17.39,8.89Z"/><path class="cls-8" d="M15.92,9.93V10C15.87,10,15.87,10,15.92,9.93Z"/><path class="cls-8" d="M15.93,10.09l.08.1C15.94,10.19,15.93,10.14,15.93,10.09Z"/><path class="cls-13" d="M38.07,10.44c.08,0,.08.05.06.11S38.06,10.49,38.07,10.44Z"/><path class="cls-8" d="M17.56,8.1l-.07.06Z"/><path class="cls-8" d="M17.45,9l.06.07Z"/><path class="cls-13" d="M38.09,10.38l0,0s0,0-.06,0h.08Z"/><path class="cls-15" d="M46.88,11.49a.05.05,0,0,1,.06-.06A.05.05,0,0,1,46.88,11.49Z"/><path class="cls-15" d="M38.74,11.66s.06,0,.06.06S38.74,11.69,38.74,11.66Z"/><path class="cls-17" d="M32.56,17.79a.47.47,0,0,1,.17,0c.09,0,.26,0,.26.16s-.14.16-.25.18c-.37,0-.39,0-.4.48l0,0-.09.08c-.2.09-.43.08-.61.22s-.21.19-.16.33.19.23.37.13h0c.05,0,.1,0,.12-.06h0c.18-.05.28-.21.42-.32l.08,0a2.63,2.63,0,0,1,.16,1.11h0c-.21.08-.22-.23-.4-.22s-.14-.06-.22-.07-.05-.09-.11-.09a1,1,0,0,1-.77-.35h0v0a.57.57,0,0,1,0-.51,3.74,3.74,0,0,1,.36-.45h0l.09,0,.06,0h0l.08,0c.09,0,.21,0,.26-.1s-.05-.08-.1-.1a2.91,2.91,0,0,0-1.1-.07.1.1,0,0,0-.12.11,3.38,3.38,0,0,0,0,.9v.15a1.73,1.73,0,0,1,0,.55.2.2,0,0,1-.18.16c-.11,0-.16-.08-.18-.17a5.84,5.84,0,0,1,0-.83c0-.18,0-.35,0-.53a.24.24,0,0,0-.26-.25c-.16,0-.24.1-.24.26,0,.35,0,.7,0,1.05a1.27,1.27,0,0,1-.09.43.28.28,0,0,1-.29-.14c-.08-.11-.19-.25-.37-.13s-.5,0-.65-.24l-.07-.11h0a.83.83,0,0,1,.11-.72h0a.05.05,0,0,0,.06-.06h0a.18.18,0,0,0,.17-.11h0l.33-.06H29c.09,0,.2,0,.21-.12s-.11-.1-.19-.11h-.78a1,1,0,0,0-.53,0c-.06,0-.06.06,0,.11v.66a4.15,4.15,0,0,0,0,.86c0,.13-.06.25-.21.24s-.13-.16-.14-.25,0-.43,0-.64,0-.4,0-.6,0-.33-.19-.33-.46-.09-.48.26a.19.19,0,0,1-.16.2c-.15,0-.28.06-.43,0s-.21,0-.22.11.11.13.21.15l.22,0c.42,0,.57.27.43.68,0,.08-.07.14-.15.15a.18.18,0,0,1-.2-.12l-.06-.21A.21.21,0,0,0,26,19.3s-.08,0-.09,0h0s-.07,0-.06.07h0c-.1.26,0,.44.34.61h0c0,.05,0,.06.06.06h0s0,.06.05.06h0v.16h0c-.2.06-.37-.07-.56-.11h0s0-.05-.07-.05h0a.1.1,0,0,0-.11-.07h0a.11.11,0,0,0-.06-.12,4.25,4.25,0,0,1-.06-1.07c0-.42,0-.45.43-.53l.17,0,.06,0h0c.06,0,.07-.06,0-.09h0c0-.05-.05-.05-.08,0l-.13,0a2.44,2.44,0,0,0-.85-.05c-.22,0-.26.08-.15.26v1.39c-.08.09-.14.21-.28.24h0a.1.1,0,0,0-.1-.07h0a7.15,7.15,0,0,1-.07-1.13c0-.16,0-.34-.05-.49h0c0-.22-.16-.16-.28-.17s-.18.1-.17.22c0,.44,0,.89-.06,1.33,0,.17,0,.39-.33.22l-.06-.54c0-.11,0-.18-.15-.16l-.19.05c-.2.08-.38.12-.38-.2,0-.09-.06-.09-.13-.08h0c-.16,0-.21.05-.19.19a.56.56,0,0,0,.22.39l0,.07c0,.1.15.21,0,.29s-.22,0-.31-.08-.13-.13-.19-.19a.93.93,0,0,1-.07-.95h0a.76.76,0,0,1,1,0c.09.08.24.1.24-.11.16-.09.11-.24.08-.36s-.16-.09-.25-.1h-.36a3.11,3.11,0,0,0-1.39,0,.14.14,0,0,0-.09.19l0,.16-.2.08a1.07,1.07,0,0,0-.4,0c-.09,0-.24-.05-.24.11s.16.14.25.16a.45.45,0,0,0,.19,0c.23.1.47.16.6.4v.2c-.12,0-.12.14-.12.24h0s-.05,0-.06.06h0a.18.18,0,0,0-.12.12h0l-.06,0a.32.32,0,0,0-.14.17l0,.08c0,.11.12.27,0,.35s-.21-.11-.33-.15h0c0-.05,0-.07-.05-.06h0c-.12-.18-.19-.38-.43-.44l-.08-.11c.08-.11,0-.34.27-.28s.33.09.5.06.16,0,.17-.11-.08-.13-.16-.15a.25.25,0,0,0-.21,0,.57.57,0,0,1-.61-.44c0-.24.11-.36.48-.41a.22.22,0,0,0,.18,0c.09,0,.21,0,.2-.15s-.16-.13-.23-.11a1.72,1.72,0,0,1-.75,0c-.07,0-.05-.08-.07-.12a1,1,0,0,1,.55-.11,4.44,4.44,0,0,0,1,0h.94l.05,0a6,6,0,0,0,1.4,0h1.67a4.7,4.7,0,0,0,1.45,0h1.56a3,3,0,0,0,1.12,0h.67a.48.48,0,0,0,.45,0h.66A2.53,2.53,0,0,0,32.56,17.79Zm-3.4,1.27a.81.81,0,0,0,0-.27.16.16,0,0,0-.2-.1c-.1,0,0,.13,0,.19S29.05,19,29.16,19.06Zm-.59-.13c-.07,0-.08,0-.08.09a.2.2,0,0,0,.15.21c.05,0,.1,0,.1-.07S28.64,19,28.57,18.93Z"/><path class="cls-14" d="M16.21,20.43l-.22,0c-.19,0-.45,0-.5-.2a.67.67,0,0,1,.2-.74.91.91,0,0,0,.25-.41,5.8,5.8,0,0,1,1.17-1.81c.14-.16.26,0,.38.05l.06.06h0s0,.06.05.07h0c0,.18.23.29.23.49a.27.27,0,0,0,.22.3h0s0,.06.05.06h0a.22.22,0,0,0,.12.16h0l.06.07.44.84c0,.05,0,.09.05.1h0a1.08,1.08,0,0,0,.17.45h0c0,.18.07.37-.11.51h0a.09.09,0,0,0-.11.05h0c-.17,0-.36.09-.51,0a.26.26,0,0,0-.38,0h0A9.74,9.74,0,0,1,16.21,20.43Zm1-.83a.46.46,0,0,0,.39-.32c0-.15-.26-.44-.41-.44s-.34.22-.34.44S17,19.59,17.25,19.6Z"/><path class="cls-17" d="M58.92,18.05a0,0,0,0,0,0,0l0,.3c0,.4,0,.79,0,1.19,0,.15,0,.36-.18.39s-.22-.2-.3-.32v-.29c.07-.12,0-.17-.11-.18a.14.14,0,0,0-.17,0l-.07,0c-.16.22-.07.48-.14.72h0l-.1,0a.82.82,0,0,1-.09-.34,3.56,3.56,0,0,0-.14-1c0-.14,0-.28,0-.42s0-.31.21-.34.25.13.27.3a1.13,1.13,0,0,1,0,.18c0,.09-.09.23.07.27s.29.07.34-.14a.21.21,0,0,0,0-.27c0-.25.11-.32.33-.22h0A.09.09,0,0,0,58.92,18.05Z"/><path class="cls-17" d="M57.42,19.94c-.22.11-.39-.15-.6-.07a3.71,3.71,0,0,0-.88,0s0,0,0,0a1.29,1.29,0,0,0,0-.19l.14-.5a3.44,3.44,0,0,0,.22-.71,1.72,1.72,0,0,1,.31-.54c.18-.05.26.09.36.19.14.47.29.95.42,1.42C57.44,19.68,57.53,19.81,57.42,19.94Zm-.6-.92c0-.1,0-.17-.12-.16s-.13,0-.12.13,0,.27.13.27S56.81,19.11,56.82,19Z"/><path class="cls-17" d="M59.55,19.9a.54.54,0,0,1-.27.11.58.58,0,0,1,0-.45c.11-.49.29-1,.37-1.47h0l0-.07.09-.12c.13,0,.22.15.36.11a.06.06,0,0,0,.06.06h0a5.61,5.61,0,0,1,.51,1.84.21.21,0,0,1-.24,0,.8.8,0,0,0-.82-.16S59.57,19.86,59.55,19.9Zm.5-1c0-.08,0-.2-.09-.17a.31.31,0,0,0-.19.27c0,.11,0,.16.14.15S60,19,60.05,18.93Z"/><path class="cls-17" d="M62,18l0,.06v1.38l-.1.34h0s-.06,0-.06.05h0l-.36.11c-.16,0-.33.05-.48-.05v-1.3c0-.08,0-.17-.08-.23v-.07a.52.52,0,0,0,0-.35l0-.05C61.29,17.91,61.62,18,62,18Zm-.32.48a.12.12,0,0,0-.1-.14c-.12,0-.15.08-.16.18s0,.14.08.14S61.61,18.59,61.65,18.5Zm0,.79c0-.08,0-.13-.12-.13a.16.16,0,0,0-.14.18c0,.06,0,.15.08.14S61.62,19.38,61.65,19.29Z"/><path class="cls-17" d="M63.59,20h-.08l-.11-.1a.12.12,0,0,0-.17-.1c-.2,0-.42-.07-.56.16-.16,0-.37.07-.32-.18a3.74,3.74,0,0,1,.57-1.65c.09-.12-.06-.13,0-.19a.53.53,0,0,1,.39,0l-.07,0c.13.14.15.35.29.48h0a0,0,0,0,0,0,0v.15c0,.13.05.27.07.4a3.23,3.23,0,0,1,.16.92Zm-.48-.89v-.45a.52.52,0,0,0-.19.34c-.08.1-.14.23,0,.29S63.09,19.18,63.11,19.07Z"/><path class="cls-17" d="M64.35,17.9a.93.93,0,0,1,.77.34c0,.05,0,.11.06.11h0a1.53,1.53,0,0,1-.22,1.4h0a.05.05,0,0,0-.06.06h0s-.07,0-.06.05h0l-.45.11c-.18,0-.32-.09-.29-.31l0-.33a13.27,13.27,0,0,1,0-1.41Zm.33.78-.05-.06c-.14,0-.15.09-.16.18a1,1,0,0,0,0,.39c0,.07,0,.18.13.15s.23-.1.21-.26,0-.32-.15-.4Z"/><path class="cls-17" d="M51.78,19.92l0-.1A3.53,3.53,0,0,0,52,19h0c.08,0,0-.11.07-.16.09-.22.16-.45.27-.66s.28-.27.44,0,.15.27.22.41a4.12,4.12,0,0,1,.23,1.16c0,.08,0,.18-.1.21a.21.21,0,0,1-.22-.06.52.52,0,0,0-.82.11l-.23,0v0Zm.85-.73c.07-.22,0-.32-.19-.5a1.29,1.29,0,0,0-.08.38.17.17,0,0,0,.13.21C52.57,19.31,52.62,19.27,52.63,19.19Z"/><path class="cls-17" d="M54.48,19.73c0,.15-.09.21-.23.23h-.08c-.68.06-.68.06-.68-.61,0-.41,0-.82,0-1.23,0-.1,0-.23.14-.26a.2.2,0,0,1,.26.15l0,.13,0,.25c0,.23,0,.46-.07.68s0,.38.3.34S54.56,19.49,54.48,19.73Z"/><path class="cls-7" d="M60.91,18.31v.07A3.93,3.93,0,0,0,61,19.91c.15.1.32,0,.48.05h.13c-.22.06-.45,0-.67.08s-.19-.07-.26-.14a5.61,5.61,0,0,0-.51-1.84h.12a5.5,5.5,0,0,1,.38,1.19c0,.06,0,.15.09.15s.08-.11.08-.17c0-.38,0-.76,0-1.14,0-.09-.05-.2.1-.23a0,0,0,0,0,0,.05l0,.05A.43.43,0,0,0,60.91,18.31Z"/><path class="cls-13" d="M64.1,19.65c0,.22.11.28.29.31v0l-.8,0,.15-.05c.18-.07.14-.23.16-.37A4.57,4.57,0,0,0,64,18.11c0-.1-.07-.22.06-.26s.24-.09.33,0h-.21c-.13,0-.08.15-.08.23A9.49,9.49,0,0,0,64.1,19.65Z"/><path class="cls-12" d="M57.42,19.94c.11-.13,0-.26,0-.39-.13-.47-.28-.95-.42-1.42h.09a5.66,5.66,0,0,1,.33,1.06,1.33,1.33,0,0,0,.16.35c.1-.2,0-.38.07-.54v.74h0l0-.25.09.14a.82.82,0,0,0,.09.34C57.73,20,57.58,19.9,57.42,19.94Z"/><path class="cls-15" d="M54.48,19.73c.08-.24,0-.35-.25-.32s-.32-.12-.3-.34,0-.45.07-.68a3.7,3.7,0,0,1,.07.66.32.32,0,0,0,.35.33c.24,0,.23-.17.24-.33s0-.29.05-.44l0,.44a.59.59,0,0,0,.08.53l0,.38h0C54.7,19.93,54.74,19.6,54.48,19.73Z"/><path class="cls-15" d="M52.05,20a.52.52,0,0,1,.82-.11.21.21,0,0,0,.22.06c.11,0,.1-.13.1-.21A4.12,4.12,0,0,0,53,18.54l0-.14a3.71,3.71,0,0,1,.27,1.09c0,.06,0,.14,0,.19a.21.21,0,0,1-.05.31.29.29,0,0,1-.34,0c-.24-.25-.48-.16-.73-.05Z"/><path class="cls-15" d="M62.89,17.89c0,.06.12.07,0,.19a3.74,3.74,0,0,0-.57,1.65c-.05.25.16.22.32.18V20l-.07,0c-.39,0-.44,0-.34-.41s.27-.93.41-1.4A.42.42,0,0,1,62.89,17.89Z"/><path class="cls-12" d="M26.07,18.33l-.17,0c-.4.08-.43.11-.43.53A4.25,4.25,0,0,0,25.53,20h-.06a2.13,2.13,0,0,1-.08-1.47,1.66,1.66,0,0,1,.06-.21h.6S26.05,18.32,26.07,18.33Z"/><path class="cls-16" d="M54.74,19.05l0-.44c0-.19,0-.38,0-.57a.22.22,0,0,1,.26-.22.21.21,0,0,1,.21.24c0,.32,0,.64,0,1-.11-.21,0-.45-.09-.67s0-.24-.16-.33l-.1.35C54.76,18.59,54.89,18.84,54.74,19.05Z"/><path class="cls-12" d="M26.23,19.41l.06.21a.18.18,0,0,0,.2.12c.08,0,.12-.07.15-.15.14-.41,0-.64-.43-.68l-.22,0c.16-.12.36-.05.52-.14s0,.09.08.11a.57.57,0,0,1,.2.62c0,.19-.1.4-.36.36S26.22,19.6,26.23,19.41Z"/><path class="cls-12" d="M20.55,18.38c-.37.05-.51.17-.48.41a.57.57,0,0,0,.61.44.25.25,0,0,1,.21,0l-.48.05c-.14-.17-.18.05-.27.06v0a1.5,1.5,0,0,1-.07-1.14C20.23,18.28,20.42,18.25,20.55,18.38Z"/><path class="cls-18" d="M27,17.8a4.7,4.7,0,0,1-1.45,0c0-.09-.14-.05-.21-.09h1.85C27.1,17.74,27,17.71,27,17.8Z"/><path class="cls-16" d="M26.05,18.3h-.6c-.35-.11-.39-.09-.44.24a.37.37,0,0,1-.1.22v-.41c0-.17.06-.23.22-.22h.78l.13,0,.08,0h0v.09h-.08Z"/><path class="cls-12" d="M53,18.4l0,.14c-.07-.14-.14-.28-.22-.41s-.3-.25-.44,0-.18.44-.27.66h0l0-.06.07-.23a.08.08,0,0,0,0-.05V18.4h0a0,0,0,0,1,0,0l0-.13v0c0-.3.24-.35.5-.31S52.91,18.2,53,18.4Z"/><path class="cls-15" d="M26.59,18.86c-.05,0-.06-.06-.07-.11s-.05-.11-.09-.16a.19.19,0,0,0,.16-.2c0-.35.29-.25.48-.26s.18.19.19.33,0,.4,0,.6c-.09-.17,0-.35-.05-.52s0-.29-.14-.29a.4.4,0,0,0-.42.25A2.08,2.08,0,0,0,26.59,18.86Z"/><path class="cls-16" d="M22.88,18.12h.36c.09,0,.22,0,.25.1s.08.27-.08.36l0-.06c0-.19-.11-.25-.26-.28l-.41,0-.76,0A3.64,3.64,0,0,1,22.88,18.12Z"/><path class="cls-15" d="M56,19.69a1.29,1.29,0,0,1,0,.19c-.06,0-.06-.2-.19,0a.7.7,0,0,1-.87.13h0a3,3,0,0,0,.65-.11c.15-.08.3-.17.16-.38h.23C55.93,19.55,55.84,19.64,56,19.69Z"/><path class="cls-15" d="M59.63,18.09c-.08.5-.26,1-.37,1.47a.58.58,0,0,0,0,.45c-.14,0-.16-.1-.14-.17A5.31,5.31,0,0,1,59.63,18.09Z"/><path class="cls-18" d="M32.56,17.79a2.53,2.53,0,0,1-1.13,0l0-.08h.91C32.44,17.72,32.53,17.7,32.56,17.79Z"/><path class="cls-15" d="M63.9,19.54c0,.14,0,.3-.16.37a3.23,3.23,0,0,0-.16-.92c0-.13,0-.27-.07-.4.14,0,.13.17.15.26A2.82,2.82,0,0,0,63.9,19.54Z"/><path class="cls-18" d="M29.65,17.8a3,3,0,0,1-1.12,0l0-.09h1.08Z"/><path class="cls-16" d="M20.55,18.38c-.13-.13-.32-.1-.48-.16h0a0,0,0,0,0,0,0L20,18.07a1.72,1.72,0,0,0,.75,0c.07,0,.21,0,.23.11s-.11.13-.2.15A.22.22,0,0,1,20.55,18.38Z"/><path class="cls-7" d="M25.31,17.71c.07,0,.17,0,.21.09H23.85l-.05,0v-.07A10.87,10.87,0,0,1,25.31,17.71Z"/><path class="cls-16" d="M28.25,18.12H29c.08,0,.2,0,.19.11s-.12.11-.21.12h-.14a.47.47,0,0,0-.34-.1l-.27,0-.3,0C28.05,18.11,28.15,18.14,28.25,18.12Z"/><path class="cls-12" d="M23.38,18.53l0,.06c0,.21-.15.19-.24.11a.76.76,0,0,0-1,0,.53.53,0,0,1,.73-.23C23.06,18.51,23.21,18.6,23.38,18.53Z"/><path class="cls-18" d="M21.46,17.81a4.44,4.44,0,0,1-1,0l-.1-.08a3.14,3.14,0,0,1,1.06,0Z"/><path class="cls-7" d="M28.56,17.71l0,.09H27c0-.09.13-.06.19-.09A8.18,8.18,0,0,1,28.56,17.71Z"/><path class="cls-15" d="M60.94,17.91a0,0,0,0,1,0-.05A1.06,1.06,0,0,1,62,18C61.62,18,61.29,17.91,60.94,17.91Z"/><path class="cls-16" d="M31.18,18.21c-.5,0-.4,0-.43.45a2,2,0,0,1,0,.24c-.13-.21,0-.45-.06-.67s.07-.1.14-.1a4.25,4.25,0,0,1,.8,0Z"/><path class="cls-15" d="M65,19.75a1.53,1.53,0,0,0,.22-1.4.44.44,0,0,1,.15.44c-.07.09-.1.18,0,.26A.65.65,0,0,1,65,19.75Z"/><path class="cls-7" d="M28,18.18l.3,0c-.45,0-.44,0-.46.49a.89.89,0,0,1-.07.46l-.05-.31v-.11h0l0-.05v-.49Z"/><path class="cls-15" d="M16.21,20.43a9.74,9.74,0,0,0,1.62,0c-.31.23-.68.11-1,.13A.88.88,0,0,1,16.21,20.43Z"/><path class="cls-12" d="M21.56,19.25c-.13-.24-.37-.3-.6-.4a.37.37,0,0,0,.23-.07c.16-.08.08-.14,0-.19l.2-.08a.73.73,0,0,0,.19.52A.15.15,0,0,1,21.56,19.25Z"/><path class="cls-13" d="M23.8,17.71v.07a12.18,12.18,0,0,0-1.35,0l-.05,0v-.09A13.08,13.08,0,0,1,23.8,17.71Z"/><path class="cls-15" d="M31.1,19.46a1,1,0,0,0,.77.35c.06,0,.11,0,.11.09C31.49,20,31.19,19.84,31.1,19.46Z"/><path class="cls-18" d="M31.6,18.16a4.25,4.25,0,0,0-.8,0c-.07,0-.14,0-.14.1s-.07.46.06.67a.21.21,0,0,1-.06.16l0,0a3.38,3.38,0,0,1,0-.9.1.1,0,0,1,.12-.11,2.91,2.91,0,0,1,1.1.07Z"/><path class="cls-12" d="M22.18,18.68a.93.93,0,0,0,.07.95h-.08C21.86,19.22,21.87,19,22.18,18.68Z"/><path class="cls-16" d="M23.36,19.2c.13,0,.15.05.15.16l.06.54c-.14,0-.16-.08-.18-.18s0-.22-.05-.32Z"/><path class="cls-13" d="M57.81,19.63l-.09-.14,0,.25h0V19l0-.41A3.67,3.67,0,0,1,57.81,19.63Z"/><path class="cls-15" d="M32.6,20.19a2.63,2.63,0,0,0-.16-1.11c.11,0,.11.08.14.14a3,3,0,0,1,.14.73C32.73,20,32.73,20.15,32.6,20.19Z"/><path class="cls-15" d="M22.17,19.64h.08c.06.06.12.13.19.19s.21.16.31.08,0-.19,0-.29l.11,0c0,.11.15.23,0,.34a.33.33,0,0,1-.39,0A.68.68,0,0,1,22.17,19.64Z"/><path class="cls-12" d="M58.38,19.17c.12,0,.18.06.11.18l-.08,0c-.14-.08-.2,0-.21.13s0,.18,0,.27,0,.21-.18.15h0c.28-.19.12-.47.14-.72l.07,0Z"/><path class="cls-16" d="M28.92,19.64c.18-.12.29,0,.37.13a.28.28,0,0,0,.29.14c-.15.19-.29,0-.41,0A1.09,1.09,0,0,1,28.92,19.64Z"/><path class="cls-7" d="M22.4,17.71v.09h-.94l-.07-.08A3.81,3.81,0,0,1,22.4,17.71Z"/><path class="cls-12" d="M23.36,19.2l0,.2a.86.86,0,0,0-.39.06.3.3,0,0,0-.19-.12c0-.12,0-.27-.1-.37.07,0,.14,0,.13.08,0,.32.18.28.38.2Z"/><path class="cls-15" d="M20.67,20.36h0c.12,0,.21.21.33.15s0-.24,0-.35l0-.08.06.09c.08.16.12.34-.08.42A.29.29,0,0,1,20.67,20.36Z"/><path class="cls-12" d="M18.05,18.19a.27.27,0,0,1-.22-.3c0-.2-.18-.31-.23-.49.17.05.23.2.29.35S18,18,18.05,18.19Z"/><path class="cls-15" d="M32.34,18.62c0-.48,0-.5.4-.48Z"/><path class="cls-16" d="M59.55,19.9s0-.1.06-.12a.8.8,0,0,1,.82.16A1.47,1.47,0,0,0,59.55,19.9Z"/><path class="cls-12" d="M58.53,18.45c-.05.21-.2.19-.34.14s-.1-.18-.07-.27a1.13,1.13,0,0,0,0-.18c.08.09,0,.23.11.31s.13,0,.16-.06a.06.06,0,0,1,0,0h0Z"/><path class="cls-15" d="M24.41,18.29c.09.15,0,.33.05.49a7.15,7.15,0,0,0,.07,1.13,1,1,0,0,1-.1-.65C24.42,18.94,24.41,18.62,24.41,18.29Z"/><path class="cls-15" d="M17.83,20.42a.26.26,0,0,1,.38,0c.15.11.34,0,.51,0a.45.45,0,0,1-.53.08A.92.92,0,0,0,17.83,20.42Z"/><path class="cls-16" d="M60.28,18.06h-.12s0-.05-.06-.06-.23-.12-.36-.11A.34.34,0,0,1,60.28,18.06Z"/><path class="cls-7" d="M22,18.18l.76,0-.86,0a.89.89,0,0,0-.45.12.14.14,0,0,1,.09-.19A1.79,1.79,0,0,0,22,18.18Z"/><path class="cls-15" d="M55.94,19.91a3.71,3.71,0,0,1,.88,0,.94.94,0,0,0-.47.09C56.21,20,56.06,20.07,55.94,19.91Z"/><path class="cls-13" d="M55.1,18.35c.09.22,0,.46.09.67a.2.2,0,0,1,.06.18v.14c-.19,0-.15-.16-.16-.26S55.1,18.59,55.1,18.35Z"/><path class="cls-16" d="M20.14,19.38c.09,0,.13-.23.27-.06l0,.15c-.24-.06-.19.17-.27.28C19.88,19.61,20.05,19.5,20.14,19.38Z"/><path class="cls-12" d="M32.36,19c-.14.11-.24.27-.42.32C32,19.09,32.1,19,32.36,19Z"/><path class="cls-15" d="M58.48,18.36h0a2,2,0,0,1,0-.35.21.21,0,0,1,.21-.18c.1,0,.21,0,.2.14-.22-.1-.34,0-.33.22h0c-.06,0,0,.1,0,.16Z"/><path class="cls-15" d="M25.74,20.19c.19,0,.36.17.56.11C26.14,20.53,25.89,20.48,25.74,20.19Z"/><path class="cls-7" d="M31.6,18.16h.23c.05,0,.13,0,.1.1s-.17.1-.26.1c-.12-.2-.33-.08-.49-.14Z"/><path class="cls-12" d="M31.83,19.41c-.18.1-.32.05-.37-.13s-.07-.31.16-.33C31.5,19.25,31.54,19.35,31.83,19.41Z"/><path class="cls-15" d="M26.19,20c-.34-.17-.44-.35-.34-.61C25.83,19.69,26.12,19.79,26.19,20Z"/><path class="cls-15" d="M56.32,18.48a3.44,3.44,0,0,1-.22.71H56a3.72,3.72,0,0,1,.25-.8Z"/><path class="cls-16" d="M57.08,18.13H57c-.1-.1-.18-.24-.36-.19l-.1,0C56.83,17.78,57,17.85,57.08,18.13Z"/><path class="cls-7" d="M29.65,17.8v-.09a2.06,2.06,0,0,1,.7,0l0,.08Z"/><path class="cls-18" d="M30.32,17.79l0-.08h.39l0,.09A.48.48,0,0,1,30.32,17.79Z"/><path class="cls-7" d="M30.77,17.8l0-.09a2.24,2.24,0,0,1,.73,0l0,.08Z"/><path class="cls-12" d="M62,19.46V18.24h.07l0,.12a4.68,4.68,0,0,0-.05.83v.29H62Z"/><path class="cls-15" d="M52,19a3.53,3.53,0,0,1-.21.85A1.39,1.39,0,0,1,52,19Z"/><path class="cls-15" d="M63.5,18.41c-.14-.13-.16-.34-.29-.48l.07,0C63.48,18,63.49,18.21,63.5,18.41Z"/><path class="cls-12" d="M56.53,17.91l.1,0a1.72,1.72,0,0,0-.31.54l0-.09A.6.6,0,0,1,56.53,17.91Z"/><path class="cls-11" d="M22.76,19.34a.3.3,0,0,1,.19.12c0,.09,0,.14-.12.18l-.11,0,0-.07v-.17Z"/><path class="cls-15" d="M20.19,19.86c.24.06.31.26.43.44A.75.75,0,0,1,20.19,19.86Z"/><path class="cls-7" d="M20.33,17.76l.1.08a1,1,0,0,0-.55.11c-.08-.08,0-.12,0-.15A.73.73,0,0,1,20.33,17.76Z"/><path class="cls-15" d="M28.31,18.58a.83.83,0,0,0-.11.72A.48.48,0,0,1,28.31,18.58Z"/><path class="cls-15" d="M18.83,20.36c.18-.14.13-.33.11-.51C19.15,20.15,19.13,20.28,18.83,20.36Z"/><path class="cls-7" d="M62.67,20v-.07c.14-.23.36-.16.56-.16v.11C63,19.85,62.83,19.8,62.67,20Z"/><path class="cls-15" d="M32.2,20c.18,0,.19.3.4.22-.08.17-.18.14-.27,0A1.12,1.12,0,0,1,32.2,20Z"/><path class="cls-12" d="M56,19.19h.06l-.14.5c-.12-.05,0-.14,0-.22S56,19.27,56,19.19Z"/><path class="cls-15" d="M24,18.35c0-.12,0-.23.17-.22s.28-.05.28.17A.33.33,0,0,0,24,18.35Z"/><path class="cls-15" d="M31.44,18.46a3.74,3.74,0,0,0-.36.45A.38.38,0,0,1,31.44,18.46Z"/><path class="cls-13" d="M27.68,18.85l.05.31v.32c0,.08,0,.17-.06.24A4.22,4.22,0,0,1,27.68,18.85Z"/><path class="cls-7" d="M62.05,19.18a4.68,4.68,0,0,1,.05-.83,3.29,3.29,0,0,1,0,.83S62.07,19.19,62.05,19.18Z"/><path class="cls-15" d="M24.63,20c.14,0,.2-.15.28-.24C24.89,19.9,24.87,20.06,24.63,20Z"/><path class="cls-15" d="M28.53,18.25a.47.47,0,0,1,.34.1l-.33.06Z"/><path class="cls-15" d="M62,19.46h.07c0,.13,0,.28-.17.33Z"/><path class="cls-15" d="M64.39,20v0l.45-.11A.45.45,0,0,1,64.39,20Z"/><path class="cls-15" d="M18.94,19.86a1.08,1.08,0,0,1-.17-.45A.66.66,0,0,1,18.94,19.86Z"/><path class="cls-15" d="M63.23,19.86v-.11a.12.12,0,0,1,.17.1l0,0A.15.15,0,0,1,63.23,19.86Z"/><path class="cls-15" d="M55.36,19.35c.11,0,.26,0,.34.11h0c-.11-.07-.25,0-.34-.11Z"/><path class="cls-15" d="M61.6,20h-.13l.36-.11C61.81,20,61.69,20,61.6,20Z"/><path class="cls-15" d="M21.45,19.69c0-.1,0-.2.12-.24A.17.17,0,0,1,21.45,19.69Z"/><path class="cls-16" d="M30.64,19.09l0,0c.14.07,0,.12,0,.18Z"/><path class="cls-15" d="M58.41,19.37l.08,0v.29C58.4,19.56,58.45,19.45,58.41,19.37Z"/><path class="cls-15" d="M55.25,19.34V19.2c.09,0,.09.1.11.15h0Z"/><path class="cls-15" d="M59,18.38l0-.3C59,18.17,59,18.28,59,18.38Z"/><path class="cls-15" d="M54,18.14l0-.13C54.05,18,54,18.08,54,18.14Z"/><path class="cls-15" d="M58.42,18.39c0,.08-.06.18-.16.06Z"/><path class="cls-15" d="M28.54,18.41a.18.18,0,0,1-.17.11C28.37,18.4,28.45,18.4,28.54,18.41Z"/><path class="cls-15" d="M62.05,19.18s0,0,0,0a.57.57,0,0,1,0,.29Z"/><path class="cls-12" d="M18.22,18.4a.22.22,0,0,1-.12-.16A.17.17,0,0,1,18.22,18.4Z"/><path class="cls-7" d="M27.71,19.48v-.15C27.74,19.38,27.76,19.43,27.71,19.48Z"/><path class="cls-13" d="M63.37,19.9l0,0,.11.1A.11.11,0,0,1,63.37,19.9Z"/><path class="cls-17" d="M65.34,19.05c-.11-.08-.08-.17,0-.26Z"/><path class="cls-12" d="M52,18.81c0,.05,0,.13-.07.16s0-.12,0-.18H52Z"/><path class="cls-15" d="M21.28,19.86a.18.18,0,0,1,.12-.12Q21.42,19.88,21.28,19.86Z"/><path class="cls-15" d="M32.23,18.73l.09-.08C32.32,18.71,32.28,18.73,32.23,18.73Z"/><path class="cls-15" d="M62.07,18.23H62v-.16C62.07,18.11,62.06,18.17,62.07,18.23Z"/><path class="cls-15" d="M25.47,20h.06a.11.11,0,0,1,.06.12A.15.15,0,0,1,25.47,20Z"/><path class="cls-15" d="M26.3,20.3v-.16C26.37,20.19,26.4,20.25,26.3,20.3Z"/><path class="cls-15" d="M65.18,18.35c-.08,0-.05-.06-.06-.11S65.18,18.3,65.18,18.35Z"/><path class="cls-15" d="M24.53,19.9a.1.1,0,0,1,.1.07C24.58,20,24.53,20,24.53,19.9Z"/><path class="cls-15" d="M51.78,19.92h0v0S51.77,20,51.78,19.92Z"/><path class="cls-15" d="M25.58,20.07a.1.1,0,0,1,.11.07A.09.09,0,0,1,25.58,20.07Z"/><path class="cls-15" d="M59.65,18l0,.07S59.59,18,59.65,18Z"/><path class="cls-15" d="M18.77,19.41c-.05,0-.05-.05-.05-.1A.08.08,0,0,1,18.77,19.41Z"/><path class="cls-15" d="M25.9,19.34s.05,0,.09,0S25.94,19.35,25.9,19.34Z"/><path class="cls-15" d="M18.72,20.41a.09.09,0,0,1,.11-.05C18.82,20.43,18.77,20.42,18.72,20.41Z"/><path class="cls-15" d="M28.2,19.29l.07.11C28.2,19.39,28.2,19.35,28.2,19.29Z"/><path class="cls-12" d="M31.94,19.35c0,.06-.07.06-.12.06S31.88,19.34,31.94,19.35Z"/><path class="cls-15" d="M25.85,19.41c0-.05,0-.06.06-.07Z"/><path class="cls-15" d="M52,18.8H52s0,0,0-.05Z"/><path class="cls-15" d="M31.09,19.42v0l0,0Z"/><path class="cls-12" d="M17.55,17.35l-.06-.06A.05.05,0,0,1,17.55,17.35Z"/><path class="cls-15" d="M28.37,18.52a.05.05,0,0,1-.06.06S28.32,18.51,28.37,18.52Z"/><path class="cls-15" d="M52.07,18.46a.08.08,0,0,1,0,.05Z"/><path class="cls-15" d="M21.39,19.75s0-.06.06-.06S21.44,19.75,21.39,19.75Z"/><path class="cls-15" d="M63.51,18.44a0,0,0,0,1,0,0l0,0Z"/><path class="cls-15" d="M31.52,18.42l-.09,0S31.48,18.42,31.52,18.42Z"/><path class="cls-12" d="M18.28,18.47l-.06-.07A.07.07,0,0,1,18.28,18.47Z"/><path class="cls-15" d="M64.9,19.8a.05.05,0,0,1,.06-.06C65,19.8,65,19.81,64.9,19.8Z"/><path class="cls-15" d="M52.09,18.36a0,0,0,0,0,0,0h0S52.08,18.37,52.09,18.36Z"/><path class="cls-15" d="M61.83,19.85s0-.06.06-.05S61.88,19.86,61.83,19.85Z"/><path class="cls-15" d="M64.84,19.85c0-.05,0-.05.06-.05S64.88,19.86,64.84,19.85Z"/><polygon class="cls-7" points="31.59 18.39 31.58 18.39 31.58 18.38 31.59 18.39"/><path class="cls-15" d="M21.22,19.9l.06,0S21.25,19.91,21.22,19.9Z"/><polygon class="cls-15" points="52.13 18.21 52.12 18.23 52.11 18.21 52.13 18.21"/><path class="cls-12" d="M20.06,18.2a0,0,0,0,1,0,0S20.05,18.21,20.06,18.2Z"/><path class="cls-12" d="M18.1,18.24s-.05,0-.05-.06S18.1,18.2,18.1,18.24Z"/><path class="cls-12" d="M17.6,17.41s-.05,0-.05-.07S17.6,17.37,17.6,17.41Z"/><path class="cls-15" d="M26.25,20.08s-.06,0-.06-.06S26.26,20,26.25,20.08Z"/><path class="cls-15" d="M26.3,20.14s-.05,0-.05-.06S26.31,20.1,26.3,20.14Z"/><path class="cls-15" d="M25.68,20.14s.07,0,.07.05S25.68,20.18,25.68,20.14Z"/><path class="cls-15" d="M58.92,18.05a.09.09,0,0,1-.05-.09A.07.07,0,0,1,58.92,18.05Z"/><path class="cls-15" d="M20.62,20.3s.06,0,.05.06S20.6,20.35,20.62,20.3Z"/><path class="cls-18" d="M32.33,15.21a.52.52,0,0,1,.3,0H57.45a.51.51,0,0,1,.3,0l-2.84,0H32.33Z"/><path class="cls-19" d="M43.1,7.53c0,.09,0,.19-.07.27a2.12,2.12,0,0,1-.11.21c-.13.29-.11.31.21.38,0,.13-.12.2-.21.28a.41.41,0,0,1-.54-.18,1.09,1.09,0,0,1-.24-.85h0a.07.07,0,0,0,.07-.06s0,0,0-.06h0a1.38,1.38,0,0,1,.56-.12C42.91,7.43,43.05,7.36,43.1,7.53Z"/><path class="cls-19" d="M44.48,9.45l0,.07a.53.53,0,0,1-.07.47c-.23.09-.37,0-.49-.2a.26.26,0,0,0-.2-.14c-.37,0-.49-.34-.66-.6a1.51,1.51,0,0,1,1.3.27h0l0,.07h0Z"/><path class="cls-12" d="M43.08,9.05c.17.26.29.57.66.6a.26.26,0,0,1,.2.14c.12.19.26.29.49.2l0,.09c-.2.36-.3.37-.6.1s-.28-.32-.5-.1-.15,0-.19-.08a3.29,3.29,0,0,1-.37-.86l0-.09L43,9Z"/><path class="cls-19" d="M42.49,9.74l0,.08c-.08,0-.11.07-.14.13v0h0s-.07,0-.06.06h0l-.25,0a1,1,0,0,1-.91-.46,2.21,2.21,0,0,0,.61-.21,2.53,2.53,0,0,1,.55-.09C42.63,9.3,42.46,9.57,42.49,9.74Z"/><path class="cls-12" d="M41.1,9.6a1,1,0,0,0,.91.46l.25,0A.85.85,0,0,1,40.89,10c-.07-.1-.13-.2,0-.32h0L41,9.57Z"/><path class="cls-12" d="M42.14,7.64a1.09,1.09,0,0,0,.24.85.41.41,0,0,0,.54.18v.1h0l-.13.11c-.15-.14-.26,0-.38,0h-.06c-.31-.31-.61-.63-.44-1.13l0,0s0,0,0,0S42.05,7.59,42.14,7.64Z"/><path class="cls-15" d="M43.08,9.05,43,9a1.28,1.28,0,0,1,1.23.05c.09,0,.19.11.18.25A1.51,1.51,0,0,0,43.08,9.05Z"/><path class="cls-15" d="M42.93,8.77v-.1c.09-.08.19-.15.21-.28-.32-.07-.34-.09-.21-.38A2.12,2.12,0,0,0,43,7.8s0,.07,0,.1c-.06.34-.06.34.28.25a.24.24,0,0,0,.05.16A2,2,0,0,1,42.93,8.77Z"/><path class="cls-16" d="M42.49,9.74c0-.17.14-.44-.23-.44-.07,0-.18,0-.18-.15l.14,0,.18,0c.3,0,.25.21.26.4A.29.29,0,0,1,42.49,9.74Z"/><path class="cls-15" d="M41.1,9.6l-.1,0c.09-.11.22-.09.33-.12.31-.08.32-.09.11-.33.16,0,.32-.13.48,0-.15,0-.27.08-.21.27A2.21,2.21,0,0,1,41.1,9.6Z"/><path class="cls-15" d="M42.66,9.49c0-.19,0-.4-.26-.4,0-.06,0-.11,0-.16h.06c.15.21.27.09.38,0l.13-.11c0,.09-.08.18-.06.28l0,.09C42.61,9.19,42.74,9.39,42.66,9.49Z"/><path class="cls-10" d="M41.71,9.39c-.06-.19.06-.24.21-.27l.16,0h0c0,.11.11.11.18.15A2.53,2.53,0,0,0,41.71,9.39Z"/><path class="cls-15" d="M43.1,7.53c-.05-.17-.19-.1-.29-.11a1.38,1.38,0,0,0-.56.12c.24-.21.79-.24.9,0,0,0,0,0,0,0S43.12,7.55,43.1,7.53Z"/><path class="cls-16" d="M43.38,8.31a.24.24,0,0,1-.05-.16c.07-.09.17-.14.22,0S43.47,8.27,43.38,8.31Z"/><path class="cls-15" d="M44.48,10.08l0-.09a.53.53,0,0,0,.07-.47A.47.47,0,0,1,44.48,10.08Z"/><path class="cls-12" d="M45.07,5.3a.46.46,0,0,1,.31.45A1.57,1.57,0,0,1,45.07,5.3Z"/><path class="cls-12" d="M44.75,4.82c.19,0,.24.16.23.32A.73.73,0,0,1,44.75,4.82Z"/><path class="cls-12" d="M45.72,6.3c.17,0,.16.15.17.27A.55.55,0,0,1,45.72,6.3Z"/><path class="cls-12" d="M44.6,4.63c.11,0,.17.07.15.19A.26.26,0,0,1,44.6,4.63Z"/><path class="cls-12" d="M45.49,5.92c.12,0,.11.09.11.18A.21.21,0,0,1,45.49,5.92Z"/><path class="cls-16" d="M42.31,10c0-.06.06-.12.14-.13s0,.08-.06.11Z"/><path class="cls-15" d="M42.08,9.15h0a.12.12,0,0,1,.14,0Z"/><path class="cls-15" d="M42.26,7.53s0,.06,0,.06h-.08A.11.11,0,0,1,42.26,7.53Z"/><path class="cls-12" d="M45.94,6.64a.13.13,0,0,1,.05.11A.09.09,0,0,1,45.94,6.64Z"/><path class="cls-12" d="M45,5.14c.05,0,.06.06.06.11A.11.11,0,0,1,45,5.14Z"/><path class="cls-12" d="M46,6.75l0,.08Z"/><path class="cls-15" d="M42,7.72s0,0,0,0Z"/><path class="cls-12" d="M42.13,7.58h.08a.07.07,0,0,1-.07.06l0,0S42.13,7.59,42.13,7.58Z"/><path class="cls-15" d="M39.62,7.48l0-.08Z"/><path class="cls-15" d="M44.43,9.38l0-.07A.07.07,0,0,1,44.43,9.38Z"/><path class="cls-15" d="M44.48,9.45l0-.08S44.48,9.41,44.48,9.45Z"/><polygon class="cls-15" points="40.86 9.64 40.85 9.65 40.85 9.64 40.86 9.64"/><path class="cls-12" d="M42.31,10l.08,0-.08.06Z"/><path class="cls-12" d="M42.25,10s0,0,.06-.06S42.29,10,42.25,10Z"/><path class="cls-15" d="M38.09,10.38H38l0,0A.06.06,0,0,1,38.09,10.38Z"/><path class="cls-12" d="M44.54,4.58l.06,0Z"/><path class="cls-12" d="M44.49,4.58s0,0,0,0h0Z"/><path class="cls-19" d="M18.32,7a.39.39,0,0,1-.3.11,7.87,7.87,0,0,1-1.61,0c-.1,0-.23,0-.24-.15s.1-.21.23-.25a1.55,1.55,0,0,1,.71,0A4.62,4.62,0,0,1,18.32,7Z"/><path class="cls-19" d="M21.45,8.71c-.1.4-.46.22-.72.34,0-.16.13-.23.2-.33s.29-.36.22-.62.13-.21.22-.26.09.1.12.16Z"/><path class="cls-19" d="M13.38,9.23c.28.14.56,0,.83.07.12,0,.31,0,.32.14s-.18.16-.29.2a.44.44,0,0,1-.4,0c-.09,0-.15-.18-.32-.11S13.38,9.36,13.38,9.23Z"/><path class="cls-14" d="M21.45,8.71l0-.71.11,0a3,3,0,0,1,0,.89C21.48,8.84,21.53,8.73,21.45,8.71Z"/><path class="cls-14" d="M23.52,9.09c0,.06,0,.15-.06.16s-.14-.08-.15-.16A.13.13,0,0,1,23.42,9C23.53,8.93,23.51,9,23.52,9.09Z"/><path class="cls-19" d="M30.33,8.6c.1.05.27,0,.26.15s-.16.18-.29.2a.17.17,0,0,1-.21-.18C30.09,8.61,30.24,8.65,30.33,8.6Z"/><path class="cls-19" d="M28.13,8.86A.23.23,0,0,1,28,8.7s0-.08.09-.08a.12.12,0,0,1,.12.15C28.2,8.82,28.19,8.86,28.13,8.86Z"/><path class="cls-5" d="M31.35,8.12c-.05-.09-.06-.15,0-.22S31.42,8,31.35,8.12Z"/><path class="cls-19" d="M67.35,8.76a.66.66,0,0,1,.49.17c.1.12.15.32,0,.4a.61.61,0,0,1-.61.15.5.5,0,0,1-.24-.6C67.08,8.73,67.21,8.76,67.35,8.76Z"/><path class="cls-19" d="M67.28,7.43c.43,0,.59.1.59.33s-.23.33-.61.32S67,7.92,67,7.74,67.06,7.39,67.28,7.43Z"/><path class="cls-19" d="M57,8.86a1.3,1.3,0,0,1-.06.51.24.24,0,0,1-.26.16c-.1,0-.2,0-.23-.16s-.26-.49-.06-.78c.07-.1.06-.23.22-.23s.32.05.36.24S57,8.82,57,8.86Z"/><path class="cls-19" d="M70.21,9.16c.12,0,.28,0,.26.19s-.24.21-.38.25a.2.2,0,0,1-.23-.19C69.87,9.21,70.06,9.2,70.21,9.16Z"/><path class="cls-19" d="M60.44,9.31s.07-.09.12-.11a.29.29,0,0,1,.33,0,.16.16,0,0,1,.08.18.26.26,0,0,1-.25.17A.33.33,0,0,1,60.44,9.31Z"/><path class="cls-14" d="M60.44,9.31a.33.33,0,0,0,.28.24s.05.11,0,.11a.3.3,0,0,1-.32-.17C60.31,9.4,60.32,9.33,60.44,9.31Z"/><path class="cls-16" d="M21.16,18.59c.11.05.19.11,0,.19a.37.37,0,0,1-.23.07.45.45,0,0,1-.19,0c-.09,0-.25,0-.25-.16s.15-.09.24-.11A1.07,1.07,0,0,1,21.16,18.59Z"/><path class="cls-6" d="M20.38,19.47l0-.15.48-.05c.08,0,.17,0,.16.15s-.09.09-.17.11S20.53,19.64,20.38,19.47Z"/><path class="cls-18" d="M26.43,18.59c0,.05.13.07.09.16s-.37,0-.53.14-.23,0-.21-.15.13-.11.22-.11S26.28,18.55,26.43,18.59Z"/><path class="cls-13" d="M22,18.18a1.79,1.79,0,0,1-.46,0,3.11,3.11,0,0,1,1.39,0A3.64,3.64,0,0,0,22,18.18Z"/><path class="cls-18" d="M22.45,17.82a12.18,12.18,0,0,1,1.35,0l.05,0A6,6,0,0,1,22.45,17.82Z"/><path class="cls-10" d="M29.16,19.06c-.11,0-.15-.11-.2-.18s-.11-.14,0-.19a.16.16,0,0,1,.2.1A.81.81,0,0,1,29.16,19.06Z"/><path class="cls-18" d="M25.91,18.13h-.78c-.16,0-.24.05-.22.22-.11-.18-.07-.28.15-.26A2.44,2.44,0,0,1,25.91,18.13Z"/><path class="cls-15" d="M22.67,19.37v.17a.56.56,0,0,1-.22-.39c0-.14,0-.22.19-.19C22.47,19.11,22.62,19.23,22.67,19.37Z"/><path class="cls-18" d="M28.57,18.93c.07.06.17.12.17.23s0,.08-.1.07a.2.2,0,0,1-.15-.21C28.49,19,28.5,18.93,28.57,18.93Z"/><path class="cls-13" d="M28,18.18h-.27c0-.05,0-.11,0-.11a1,1,0,0,1,.53,0C28.15,18.14,28.05,18.11,28,18.18Z"/><path class="cls-6" d="M22.67,19.37c-.05-.14-.2-.26,0-.41h0c.1.1.06.25.1.37Z"/><path class="cls-18" d="M26.13,18.29V18.2C26.2,18.23,26.19,18.26,26.13,18.29Z"/><path class="cls-18" d="M26.12,18.19l-.08,0S26.11,18.14,26.12,18.19Z"/><path class="cls-13" d="M27.68,18.68l0,.05h0Z"/><path class="cls-18" d="M26.05,18.3h.08l-.06,0S26.05,18.31,26.05,18.3Z"/><path class="cls-6" d="M17.25,19.6c-.23,0-.36-.1-.36-.32s.16-.44.34-.44.44.29.41.44A.46.46,0,0,1,17.25,19.6Z"/><path class="cls-15" d="M58.14,19.2c0,.25.14.53-.14.72C58.07,19.68,58,19.42,58.14,19.2Z"/><path class="cls-15" d="M58.53,18.45l-.05-.09,0,0c.06,0,0-.11,0-.16h0A.21.21,0,0,1,58.53,18.45Z"/><path class="cls-15" d="M58.38,19.17h-.17A.14.14,0,0,1,58.38,19.17Z"/><path class="cls-10" d="M56.82,19c0,.09,0,.24-.11.24s-.12-.16-.13-.27,0-.13.12-.13S56.83,18.92,56.82,19Z"/><path class="cls-13" d="M60.05,18.93c-.08.05.06.24-.14.25s-.15,0-.14-.15a.31.31,0,0,1,.19-.27C60.07,18.73,60,18.85,60.05,18.93Z"/><path class="cls-7" d="M60.1,18s.07,0,.06.06A.06.06,0,0,1,60.1,18Z"/><path class="cls-13" d="M61,19.91a3.93,3.93,0,0,1-.08-1.53c.1.06.07.15.08.23Z"/><path class="cls-10" d="M61.65,18.5c0,.09-.07.18-.18.18s-.09-.08-.08-.14,0-.19.16-.18A.12.12,0,0,1,61.65,18.5Z"/><path class="cls-10" d="M61.65,19.29c0,.09-.07.19-.18.19s-.08-.08-.08-.14a.16.16,0,0,1,.14-.18C61.6,19.16,61.64,19.21,61.65,19.29Z"/><path class="cls-13" d="M60.91,18.31a.43.43,0,0,1,0-.35A.52.52,0,0,1,60.91,18.31Z"/><path class="cls-18" d="M63.11,19.07c0,.11-.08.24-.19.18s-.08-.19,0-.29S63,19.09,63.11,19.07Z"/><path class="cls-10" d="M63.11,19.07c-.09,0-.13-.06-.19-.11a.52.52,0,0,1,.19-.34Z"/><path class="cls-11" d="M64.49,19.18a1,1,0,0,1,0-.38c0-.09,0-.2.16-.18l.05.06h0a.52.52,0,0,1-.09.45Z"/><path class="cls-16" d="M64.1,19.65a9.49,9.49,0,0,1,0-1.51c0-.08,0-.19.08-.23a13.27,13.27,0,0,0,0,1.41Z"/><path class="cls-15" d="M64.59,19.13a.52.52,0,0,0,.09-.45c.18.08.18.24.15.4Z"/><path class="cls-12" d="M64.59,19.13l.24-.05c0,.16-.09.23-.21.26s-.12-.08-.13-.15Z"/><path class="cls-15" d="M64.68,18.68l-.05-.06Z"/><path class="cls-10" d="M52.36,19.07a1.29,1.29,0,0,1,.08-.38c.23.18.26.28.19.5A.34.34,0,0,0,52.36,19.07Z"/><path class="cls-18" d="M52.36,19.07a.34.34,0,0,1,.27.12c0,.08-.06.12-.14.09A.17.17,0,0,1,52.36,19.07Z"/><path class="cls-17" d="M55.25,19.34l.11,0c.09.1.23,0,.34.11s0,.3-.16.38a3,3,0,0,1-.65.11,0,0,0,0,0,0,0l0-.38a7,7,0,0,0,0-1.21l.1-.35c.14.09.06.25.16.33,0,.24,0,.49,0,.73S55.06,19.34,55.25,19.34Z"/><path class="cls-13" d="M54.84,18.37a7,7,0,0,1,0,1.21.59.59,0,0,1-.08-.53C54.89,18.84,54.76,18.59,54.84,18.37Z"/><path class="cls-13" d="M54.86,20a0,0,0,0,1,0,0h0Z"/><path class="cls-17" d="M58.54,18.18c0,.05,0,.12,0,.16S58.48,18.22,58.54,18.18Z"/><path class="cls-14" d="M42.8,8.88c-.11.13-.23.25-.38,0C42.54,8.85,42.65,8.74,42.8,8.88Z"/></g></g><g id="Fisdom-logo"><g id="Group-Copy-3"><g id="Group-48"><polygon id="Fill-1" class="cls-1" points="107.14 5.47 102.65 5.47 102.65 8.14 107.01 8.14 107.01 10.26 102.65 10.26 102.65 14.59 100.43 14.59 100.43 3.35 107.14 3.35 107.14 5.47"/><g id="Group-8"><path id="Fill-2" class="cls-1" d="M108.67,14.59h2.07v-8h-2.07Zm1-8.61a1.28,1.28,0,0,1-1.27-1.27,1.28,1.28,0,0,1,1.27-1.28,1.23,1.23,0,0,1,.9.38,1.27,1.27,0,0,1,.38.9,1.21,1.21,0,0,1-.38.89,1.19,1.19,0,0,1-.9.38Z"/><path id="Fill-4" class="cls-1" d="M114.48,8.71c0,.22.14.39.43.53a5.87,5.87,0,0,0,1,.35,10.74,10.74,0,0,1,1.22.38,2.47,2.47,0,0,1,1,.78,2.19,2.19,0,0,1,.42,1.37,2.19,2.19,0,0,1-.92,1.9,3.77,3.77,0,0,1-2.3.67A3.39,3.39,0,0,1,112,12.78h0l1.79-1h0a1.5,1.5,0,0,0,1.58,1c.74,0,1.1-.23,1.1-.69,0-.22-.14-.39-.42-.52a5,5,0,0,0-1-.36,12.5,12.5,0,0,1-1.22-.41,2.48,2.48,0,0,1-1-.76,2,2,0,0,1-.43-1.31,2.24,2.24,0,0,1,.88-1.87,3.45,3.45,0,0,1,2.17-.68,3.64,3.64,0,0,1,1.78.44,3.21,3.21,0,0,1,1.27,1.26h0l-1.76,1a1.33,1.33,0,0,0-1.29-.81,1.12,1.12,0,0,0-.66.17.55.55,0,0,0-.27.48"/><path id="Fill-5" class="cls-1" d="M122.12,12.21a2.16,2.16,0,0,0,1.59.63,2.12,2.12,0,0,0,1.59-.63,2.23,2.23,0,0,0,.63-1.63A2.2,2.2,0,0,0,125.3,9a2.09,2.09,0,0,0-1.59-.64,2.13,2.13,0,0,0-1.59.64,2.17,2.17,0,0,0-.64,1.63,2.2,2.2,0,0,0,.64,1.63Zm3.81-8.86H128V14.59h-2.07v-.95h0a3.12,3.12,0,0,1-2.6,1.18,3.65,3.65,0,0,1-2.77-1.23,4.24,4.24,0,0,1-1.15-3,4.21,4.21,0,0,1,1.15-3,3.65,3.65,0,0,1,2.77-1.23,3.11,3.11,0,0,1,2.6,1.17h0Z"/><path id="Fill-6" class="cls-1" d="M132.17,12a2.07,2.07,0,0,0,1.55.62,2.11,2.11,0,0,0,1.56-.62,2.19,2.19,0,0,0,.62-1.59,2.19,2.19,0,0,0-.62-1.59,2.12,2.12,0,0,0-1.56-.63,2.08,2.08,0,0,0-1.55.63,2.19,2.19,0,0,0-.62,1.59,2.19,2.19,0,0,0,.62,1.59m4.57,1.42a4.25,4.25,0,0,1-7.26-3,4.25,4.25,0,1,1,8.49,0,4.09,4.09,0,0,1-1.23,3"/><path id="Fill-7" class="cls-1" d="M148.31,6.34a2.84,2.84,0,0,1,2.21.9,3.42,3.42,0,0,1,.83,2.4v4.95h-2.07V9.79a1.6,1.6,0,0,0-.36-1.12,1.23,1.23,0,0,0-1-.41,1.36,1.36,0,0,0-1.1.47,2.05,2.05,0,0,0-.39,1.35v4.51h-2.08V9.79A1.6,1.6,0,0,0,144,8.67a1.25,1.25,0,0,0-1-.41,1.39,1.39,0,0,0-1.1.47,2,2,0,0,0-.41,1.35v4.51h-2.08v-8h2.08v.85a2.5,2.5,0,0,1,2.23-1.07,2.37,2.37,0,0,1,2.18,1.15,2.72,2.72,0,0,1,2.39-1.15"/></g></g><g id="Rectangle-2"><g id="Rectangle"><path id="path-2-2" data-name="path-2" class="cls-1" d="M86.56,3.56l4.54,3a.13.13,0,0,1,.06.1v7.69a.13.13,0,0,1-.13.13l-.07,0-4.54-3a.11.11,0,0,1-.06-.1V3.67a.13.13,0,0,1,.13-.13A.1.1,0,0,1,86.56,3.56Z"/></g><g class="cls-20"><path id="Rectangle-Copy" class="cls-1" d="M88,2.41l4.54,3a.14.14,0,0,1,.06.11v7.69a.13.13,0,0,1-.13.13l-.07,0-4.54-3a.13.13,0,0,1,0-.11V2.51a.12.12,0,0,1,.12-.12A.08.08,0,0,1,88,2.41Z"/></g></g><g id="Rectangle-Copy-7"><g id="Rectangle-Copy-4"><path id="path-6-2" data-name="path-6" class="cls-1" d="M92.81,6.6l4.54-3a.13.13,0,0,1,.18,0,.14.14,0,0,1,0,.07V6.55a.12.12,0,0,1,0,.1L93,9.69a.12.12,0,0,1-.17,0,.11.11,0,0,1,0-.07V6.71A.17.17,0,0,1,92.81,6.6Z"/></g><g class="cls-21"><path id="Rectangle-Copy-4-2" data-name="Rectangle-Copy-4" class="cls-1" d="M91.53,6l4.54-3a.13.13,0,0,1,.18,0,.08.08,0,0,1,0,.07V5.91a.12.12,0,0,1,0,.1l-4.55,3a.12.12,0,0,1-.17,0,.1.1,0,0,1,0-.07V6.07A.16.16,0,0,1,91.53,6Z"/></g></g><g id="Rectangle-Copy-8"><g id="Rectangle-Copy-5"><path id="path-10-2" data-name="path-10" class="cls-1" d="M92.81,11.4l2.94-2a.13.13,0,0,1,.18,0,.08.08,0,0,1,0,.07v2.87a.13.13,0,0,1,0,.11l-3,2a.12.12,0,0,1-.17,0,.09.09,0,0,1,0-.07V11.51A.14.14,0,0,1,92.81,11.4Z"/></g><g class="cls-22"><path id="Rectangle-Copy-9" class="cls-1" d="M92,10.57l2.95-2a.13.13,0,0,1,.17,0,.11.11,0,0,1,0,.08v2.87a.17.17,0,0,1-.06.11l-2.94,2a.13.13,0,0,1-.18,0,.08.08,0,0,1,0-.07V10.67A.12.12,0,0,1,92,10.57Z"/></g></g></g></g><text class="cls-23" transform="translate(86.21 20.2)">I<tspan class="cls-24" x="1.38" y="0">n</tspan><tspan class="cls-25" x="4.28" y="0">ves</tspan><tspan x="12.04" y="0">tment </tspan><tspan class="cls-26" x="27.52" y="0">k</tspan><tspan x="30.02" y="0">a na</tspan><tspan class="cls-25" x="40.63" y="0">y</tspan><tspan x="43.21" y="0">a w</tspan><tspan class="cls-27" x="51.61" y="0">i</tspan><tspan class="cls-28" x="52.87" y="0">s</tspan><tspan x="55.19" y="0">dom</tspan></text><line class="cls-29" x1="82.26" y1="2.06" x2="82.26" y2="21.86"/></svg>