<svg width="10" height="10" viewBox="0 0 10 10" fill="none" xmlns="http://www.w3.org/2000/svg">
<path fill-rule="evenodd" clip-rule="evenodd" d="M5 0C2.24292 0 0 2.24292 0 5C0 7.75708 2.24292 10 5 10C7.75708 10 10 7.75708 10 5C10 2.24292 7.75708 0 5 0ZM6.1075 7.61833C5.83209 7.72667 4.8775 8.1825 4.3275 7.69792C4.16334 7.55375 4.08167 7.37083 4.08167 7.14875C4.08167 6.73291 4.21834 6.37041 4.46459 5.5C4.50792 5.33541 4.56084 5.12208 4.56084 4.95291C4.56084 4.66083 4.45 4.58333 4.14959 4.58333C4.00292 4.58333 3.84042 4.63541 3.69334 4.69041L3.77459 4.3575C4.1025 4.22416 4.51417 4.06166 4.86667 4.06166C5.39542 4.06166 5.78459 4.32541 5.78459 4.82708C5.78459 4.97166 5.75959 5.225 5.70709 5.4L5.40292 6.47583C5.34 6.69333 5.22625 7.17291 5.4025 7.315C5.57584 7.45541 5.98625 7.38083 6.18875 7.28541L6.1075 7.61833ZM5.60502 3.33333C5.26002 3.33333 4.98002 3.05333 4.98002 2.70833C4.98002 2.36333 5.26002 2.08333 5.60502 2.08333C5.95002 2.08333 6.23002 2.36333 6.23002 2.70833C6.23002 3.05333 5.95002 3.33333 5.60502 3.33333Z" fill="#767E86"/>
</svg>
