<svg width="343" height="150" viewBox="0 0 343 150" fill="none" xmlns="http://www.w3.org/2000/svg">
<rect width="342.05" height="150" rx="8" fill="#144732"/>
<mask id="mask0_3990_43130" style="mask-type:alpha" maskUnits="userSpaceOnUse" x="-1" y="-1" width="345" height="152">
<rect width="343" height="150" rx="12" fill="white" stroke="white"/>
</mask>
<g mask="url(#mask0_3990_43130)">
<rect x="25.6537" y="80" width="23.2105" height="2" fill="white"/>
</g>
<path d="M28.8004 105.14C27.9884 105.14 27.307 105.019 26.7564 104.776C26.2057 104.524 25.781 104.202 25.4824 103.81C25.193 103.409 25.039 102.984 25.0204 102.536C25.0204 102.461 25.0484 102.396 25.1044 102.34C25.1697 102.275 25.2444 102.242 25.3284 102.242H26.0424C26.1544 102.242 26.2384 102.27 26.2944 102.326C26.3504 102.382 26.3877 102.447 26.4064 102.522C26.453 102.746 26.565 102.97 26.7424 103.194C26.929 103.409 27.1857 103.591 27.5124 103.74C27.8484 103.88 28.2777 103.95 28.8004 103.95C29.603 103.95 30.191 103.81 30.5644 103.53C30.947 103.241 31.1384 102.858 31.1384 102.382C31.1384 102.055 31.0357 101.794 30.8304 101.598C30.6344 101.393 30.331 101.211 29.9204 101.052C29.5097 100.893 28.9777 100.721 28.3244 100.534C27.643 100.338 27.0784 100.123 26.6304 99.89C26.1824 99.6567 25.8464 99.3673 25.6224 99.022C25.4077 98.6767 25.3004 98.238 25.3004 97.706C25.3004 97.202 25.4357 96.754 25.7064 96.362C25.977 95.9607 26.3644 95.6433 26.8684 95.41C27.3817 95.1767 28.0024 95.06 28.7304 95.06C29.309 95.06 29.813 95.1393 30.2424 95.298C30.681 95.4473 31.045 95.6527 31.3344 95.914C31.6237 96.166 31.843 96.4413 31.9924 96.74C32.1417 97.0293 32.221 97.314 32.2304 97.594C32.2304 97.6593 32.207 97.7247 32.1604 97.79C32.1137 97.846 32.039 97.874 31.9364 97.874H31.1944C31.129 97.874 31.059 97.8553 30.9844 97.818C30.919 97.7807 30.8677 97.7107 30.8304 97.608C30.7744 97.2253 30.5597 96.9033 30.1864 96.642C29.813 96.3807 29.3277 96.25 28.7304 96.25C28.1237 96.25 27.629 96.3667 27.2464 96.6C26.873 96.8333 26.6864 97.1973 26.6864 97.692C26.6864 98.0093 26.775 98.2753 26.9524 98.49C27.1297 98.6953 27.4097 98.8773 27.7924 99.036C28.175 99.1947 28.6744 99.3627 29.2904 99.54C30.037 99.7453 30.6484 99.9647 31.1244 100.198C31.6004 100.422 31.9504 100.707 32.1744 101.052C32.4077 101.388 32.5244 101.822 32.5244 102.354C32.5244 102.942 32.3704 103.446 32.0624 103.866C31.7544 104.277 31.3204 104.594 30.7604 104.818C30.2097 105.033 29.5564 105.14 28.8004 105.14ZM37.0194 105C36.4967 105 36.072 104.902 35.7454 104.706C35.4187 104.501 35.1807 104.216 35.0314 103.852C34.882 103.479 34.8074 103.04 34.8074 102.536V98.84H33.7154C33.622 98.84 33.5427 98.812 33.4774 98.756C33.4214 98.6907 33.3934 98.6113 33.3934 98.518V98.042C33.3934 97.9487 33.4214 97.874 33.4774 97.818C33.5427 97.7527 33.622 97.72 33.7154 97.72H34.8074V95.382C34.8074 95.2887 34.8354 95.214 34.8914 95.158C34.9567 95.0927 35.036 95.06 35.1294 95.06H35.7874C35.8807 95.06 35.9554 95.0927 36.0114 95.158C36.0767 95.214 36.1094 95.2887 36.1094 95.382V97.72H37.8454C37.9387 97.72 38.0134 97.7527 38.0694 97.818C38.1347 97.874 38.1674 97.9487 38.1674 98.042V98.518C38.1674 98.6113 38.1347 98.6907 38.0694 98.756C38.0134 98.812 37.9387 98.84 37.8454 98.84H36.1094V102.438C36.1094 102.877 36.184 103.222 36.3334 103.474C36.4827 103.726 36.7487 103.852 37.1314 103.852H37.9854C38.0787 103.852 38.1534 103.885 38.2094 103.95C38.2747 104.006 38.3074 104.081 38.3074 104.174V104.678C38.3074 104.771 38.2747 104.851 38.2094 104.916C38.1534 104.972 38.0787 105 37.9854 105H37.0194ZM41.6761 105.14C41.2094 105.14 40.7848 105.047 40.4021 104.86C40.0194 104.673 39.7114 104.421 39.4781 104.104C39.2448 103.787 39.1281 103.427 39.1281 103.026C39.1281 102.382 39.3894 101.869 39.9121 101.486C40.4348 101.103 41.1161 100.851 41.9561 100.73L44.0421 100.436V100.03C44.0421 99.582 43.9114 99.232 43.6501 98.98C43.3981 98.728 42.9828 98.602 42.4041 98.602C41.9841 98.602 41.6434 98.686 41.3821 98.854C41.1301 99.022 40.9528 99.2367 40.8501 99.498C40.7941 99.638 40.6961 99.708 40.5561 99.708H39.9261C39.8234 99.708 39.7441 99.68 39.6881 99.624C39.6414 99.5587 39.6181 99.484 39.6181 99.4C39.6181 99.26 39.6694 99.0873 39.7721 98.882C39.8841 98.6767 40.0521 98.476 40.2761 98.28C40.5001 98.084 40.7848 97.9207 41.1301 97.79C41.4848 97.65 41.9141 97.58 42.4181 97.58C42.9781 97.58 43.4494 97.6547 43.8321 97.804C44.2148 97.944 44.5134 98.1353 44.7281 98.378C44.9521 98.6207 45.1108 98.896 45.2041 99.204C45.3068 99.512 45.3581 99.8247 45.3581 100.142V104.678C45.3581 104.771 45.3254 104.851 45.2601 104.916C45.2041 104.972 45.1294 105 45.0361 105H44.3921C44.2894 105 44.2101 104.972 44.1541 104.916C44.0981 104.851 44.0701 104.771 44.0701 104.678V104.076C43.9488 104.244 43.7854 104.412 43.5801 104.58C43.3748 104.739 43.1181 104.874 42.8101 104.986C42.5021 105.089 42.1241 105.14 41.6761 105.14ZM41.9701 104.09C42.3528 104.09 42.7028 104.011 43.0201 103.852C43.3374 103.684 43.5848 103.427 43.7621 103.082C43.9488 102.737 44.0421 102.303 44.0421 101.78V101.388L42.4181 101.626C41.7554 101.719 41.2561 101.878 40.9201 102.102C40.5841 102.317 40.4161 102.592 40.4161 102.928C40.4161 103.189 40.4908 103.409 40.6401 103.586C40.7988 103.754 40.9948 103.88 41.2281 103.964C41.4708 104.048 41.7181 104.09 41.9701 104.09ZM47.6927 105C47.5994 105 47.5201 104.972 47.4547 104.916C47.3987 104.851 47.3707 104.771 47.3707 104.678V98.056C47.3707 97.9627 47.3987 97.8833 47.4547 97.818C47.5201 97.7527 47.5994 97.72 47.6927 97.72H48.3367C48.4301 97.72 48.5094 97.7527 48.5747 97.818C48.6401 97.8833 48.6727 97.9627 48.6727 98.056V98.672C48.8594 98.3547 49.1161 98.1167 49.4427 97.958C49.7694 97.7993 50.1614 97.72 50.6187 97.72H51.1787C51.2721 97.72 51.3467 97.7527 51.4027 97.818C51.4587 97.874 51.4867 97.9487 51.4867 98.042V98.616C51.4867 98.7093 51.4587 98.784 51.4027 98.84C51.3467 98.896 51.2721 98.924 51.1787 98.924H50.3387C49.8347 98.924 49.4381 99.0733 49.1487 99.372C48.8594 99.6613 48.7147 100.058 48.7147 100.562V104.678C48.7147 104.771 48.6821 104.851 48.6167 104.916C48.5514 104.972 48.4721 105 48.3787 105H47.6927ZM55.5311 105C55.0084 105 54.5837 104.902 54.2571 104.706C53.9304 104.501 53.6924 104.216 53.5431 103.852C53.3937 103.479 53.3191 103.04 53.3191 102.536V98.84H52.2271C52.1337 98.84 52.0544 98.812 51.9891 98.756C51.9331 98.6907 51.9051 98.6113 51.9051 98.518V98.042C51.9051 97.9487 51.9331 97.874 51.9891 97.818C52.0544 97.7527 52.1337 97.72 52.2271 97.72H53.3191V95.382C53.3191 95.2887 53.3471 95.214 53.4031 95.158C53.4684 95.0927 53.5477 95.06 53.6411 95.06H54.2991C54.3924 95.06 54.4671 95.0927 54.5231 95.158C54.5884 95.214 54.6211 95.2887 54.6211 95.382V97.72H56.3571C56.4504 97.72 56.5251 97.7527 56.5811 97.818C56.6464 97.874 56.6791 97.9487 56.6791 98.042V98.518C56.6791 98.6113 56.6464 98.6907 56.5811 98.756C56.5251 98.812 56.4504 98.84 56.3571 98.84H54.6211V102.438C54.6211 102.877 54.6957 103.222 54.8451 103.474C54.9944 103.726 55.2604 103.852 55.6431 103.852H56.4971C56.5904 103.852 56.6651 103.885 56.7211 103.95C56.7864 104.006 56.8191 104.081 56.8191 104.174V104.678C56.8191 104.771 56.7864 104.851 56.7211 104.916C56.6651 104.972 56.5904 105 56.4971 105H55.5311ZM60.6778 105.14C60.1552 105.14 59.7072 105.075 59.3338 104.944C58.9605 104.813 58.6572 104.655 58.4238 104.468C58.1905 104.281 58.0132 104.095 57.8918 103.908C57.7798 103.721 57.7192 103.572 57.7098 103.46C57.7005 103.357 57.7332 103.278 57.8078 103.222C57.8825 103.166 57.9572 103.138 58.0318 103.138H58.6478C58.7038 103.138 58.7458 103.147 58.7738 103.166C58.8112 103.175 58.8578 103.213 58.9138 103.278C59.0352 103.409 59.1705 103.539 59.3198 103.67C59.4692 103.801 59.6512 103.908 59.8658 103.992C60.0898 104.076 60.3652 104.118 60.6918 104.118C61.1678 104.118 61.5598 104.029 61.8678 103.852C62.1758 103.665 62.3298 103.395 62.3298 103.04C62.3298 102.807 62.2645 102.62 62.1338 102.48C62.0125 102.34 61.7885 102.214 61.4618 102.102C61.1445 101.99 60.7058 101.873 60.1458 101.752C59.5858 101.621 59.1425 101.463 58.8158 101.276C58.4892 101.08 58.2558 100.851 58.1158 100.59C57.9758 100.319 57.9058 100.016 57.9058 99.68C57.9058 99.3347 58.0085 99.0033 58.2138 98.686C58.4192 98.3593 58.7178 98.0933 59.1098 97.888C59.5112 97.6827 60.0105 97.58 60.6078 97.58C61.0932 97.58 61.5085 97.6407 61.8538 97.762C62.1992 97.8833 62.4838 98.0373 62.7078 98.224C62.9318 98.4013 63.0998 98.5787 63.2118 98.756C63.3238 98.9333 63.3845 99.0827 63.3938 99.204C63.4032 99.2973 63.3752 99.3767 63.3098 99.442C63.2445 99.498 63.1698 99.526 63.0858 99.526H62.4978C62.4325 99.526 62.3765 99.512 62.3298 99.484C62.2925 99.456 62.2552 99.4233 62.2178 99.386C62.1245 99.2647 62.0125 99.1433 61.8818 99.022C61.7605 98.9007 61.5972 98.8027 61.3918 98.728C61.1958 98.644 60.9345 98.602 60.6078 98.602C60.1412 98.602 59.7912 98.7 59.5578 98.896C59.3245 99.092 59.2078 99.3393 59.2078 99.638C59.2078 99.8153 59.2592 99.974 59.3618 100.114C59.4645 100.254 59.6605 100.38 59.9498 100.492C60.2392 100.604 60.6685 100.725 61.2378 100.856C61.8538 100.977 62.3392 101.141 62.6938 101.346C63.0485 101.551 63.3005 101.789 63.4498 102.06C63.5992 102.331 63.6738 102.643 63.6738 102.998C63.6738 103.39 63.5572 103.749 63.3238 104.076C63.0998 104.403 62.7638 104.664 62.3158 104.86C61.8772 105.047 61.3312 105.14 60.6778 105.14ZM70.3301 105C70.2087 105 70.1154 104.972 70.0501 104.916C69.9847 104.851 69.9287 104.762 69.8821 104.65L67.8941 98.154C67.8754 98.1073 67.8661 98.0607 67.8661 98.014C67.8661 97.93 67.8941 97.86 67.9501 97.804C68.0154 97.748 68.0854 97.72 68.1601 97.72H68.7761C68.8787 97.72 68.9581 97.748 69.0141 97.804C69.0701 97.86 69.1074 97.9113 69.1261 97.958L70.6801 103.236L72.3461 98.014C72.3647 97.9487 72.4021 97.8833 72.4581 97.818C72.5234 97.7527 72.6167 97.72 72.7381 97.72H73.2141C73.3354 97.72 73.4287 97.7527 73.4941 97.818C73.5594 97.8833 73.5967 97.9487 73.6061 98.014L75.2721 103.236L76.8261 97.958C76.8354 97.9113 76.8681 97.86 76.9241 97.804C76.9801 97.748 77.0594 97.72 77.1621 97.72H77.7781C77.8621 97.72 77.9321 97.748 77.9881 97.804C78.0441 97.86 78.0721 97.93 78.0721 98.014C78.0721 98.0607 78.0627 98.1073 78.0441 98.154L76.0561 104.65C76.0281 104.762 75.9767 104.851 75.9021 104.916C75.8367 104.972 75.7387 105 75.6081 105H75.0621C74.9407 105 74.8381 104.972 74.7541 104.916C74.6794 104.851 74.6281 104.762 74.6001 104.65L72.9761 99.638L71.3521 104.65C71.3147 104.762 71.2587 104.851 71.1841 104.916C71.1094 104.972 71.0067 105 70.8761 105H70.3301ZM79.9447 105C79.8513 105 79.772 104.972 79.7067 104.916C79.6507 104.851 79.6227 104.771 79.6227 104.678V98.042C79.6227 97.9487 79.6507 97.874 79.7067 97.818C79.772 97.7527 79.8513 97.72 79.9447 97.72H80.6167C80.71 97.72 80.7847 97.7527 80.8407 97.818C80.8967 97.874 80.9247 97.9487 80.9247 98.042V104.678C80.9247 104.771 80.8967 104.851 80.8407 104.916C80.7847 104.972 80.71 105 80.6167 105H79.9447ZM79.8327 96.362C79.7393 96.362 79.66 96.334 79.5947 96.278C79.5387 96.2127 79.5107 96.1333 79.5107 96.04V95.284C79.5107 95.1907 79.5387 95.116 79.5947 95.06C79.66 94.9947 79.7393 94.962 79.8327 94.962H80.7147C80.808 94.962 80.8827 94.9947 80.9387 95.06C81.004 95.116 81.0367 95.1907 81.0367 95.284V96.04C81.0367 96.1333 81.004 96.2127 80.9387 96.278C80.8827 96.334 80.808 96.362 80.7147 96.362H79.8327ZM85.8553 105C85.3326 105 84.908 104.902 84.5813 104.706C84.2546 104.501 84.0166 104.216 83.8673 103.852C83.718 103.479 83.6433 103.04 83.6433 102.536V98.84H82.5513C82.458 98.84 82.3786 98.812 82.3133 98.756C82.2573 98.6907 82.2293 98.6113 82.2293 98.518V98.042C82.2293 97.9487 82.2573 97.874 82.3133 97.818C82.3786 97.7527 82.458 97.72 82.5513 97.72H83.6433V95.382C83.6433 95.2887 83.6713 95.214 83.7273 95.158C83.7926 95.0927 83.872 95.06 83.9653 95.06H84.6233C84.7166 95.06 84.7913 95.0927 84.8473 95.158C84.9126 95.214 84.9453 95.2887 84.9453 95.382V97.72H86.6813C86.7746 97.72 86.8493 97.7527 86.9053 97.818C86.9706 97.874 87.0033 97.9487 87.0033 98.042V98.518C87.0033 98.6113 86.9706 98.6907 86.9053 98.756C86.8493 98.812 86.7746 98.84 86.6813 98.84H84.9453V102.438C84.9453 102.877 85.02 103.222 85.1693 103.474C85.3186 103.726 85.5846 103.852 85.9673 103.852H86.8213C86.9146 103.852 86.9893 103.885 87.0453 103.95C87.1106 104.006 87.1433 104.081 87.1433 104.174V104.678C87.1433 104.771 87.1106 104.851 87.0453 104.916C86.9893 104.972 86.9146 105 86.8213 105H85.8553ZM88.818 105C88.7247 105 88.6454 104.972 88.58 104.916C88.524 104.851 88.496 104.771 88.496 104.678V95.382C88.496 95.2887 88.524 95.214 88.58 95.158C88.6454 95.0927 88.7247 95.06 88.818 95.06H89.518C89.6207 95.06 89.7 95.0927 89.756 95.158C89.812 95.214 89.84 95.2887 89.84 95.382V98.644C90.092 98.3267 90.4 98.07 90.764 97.874C91.128 97.678 91.59 97.58 92.15 97.58C92.7567 97.58 93.27 97.7153 93.69 97.986C94.1194 98.2473 94.4414 98.616 94.656 99.092C94.88 99.5587 94.992 100.105 94.992 100.73V104.678C94.992 104.771 94.964 104.851 94.908 104.916C94.852 104.972 94.7727 105 94.67 105H93.97C93.8767 105 93.7974 104.972 93.732 104.916C93.676 104.851 93.648 104.771 93.648 104.678V100.8C93.648 100.147 93.4894 99.638 93.172 99.274C92.8547 98.9007 92.388 98.714 91.772 98.714C91.1934 98.714 90.7267 98.9007 90.372 99.274C90.0174 99.638 89.84 100.147 89.84 100.8V104.678C89.84 104.771 89.812 104.851 89.756 104.916C89.7 104.972 89.6207 105 89.518 105H88.818ZM102.475 105.14C102.008 105.14 101.584 105.047 101.201 104.86C100.818 104.673 100.51 104.421 100.277 104.104C100.044 103.787 99.9269 103.427 99.9269 103.026C99.9269 102.382 100.188 101.869 100.711 101.486C101.234 101.103 101.915 100.851 102.755 100.73L104.841 100.436V100.03C104.841 99.582 104.71 99.232 104.449 98.98C104.197 98.728 103.782 98.602 103.203 98.602C102.783 98.602 102.442 98.686 102.181 98.854C101.929 99.022 101.752 99.2367 101.649 99.498C101.593 99.638 101.495 99.708 101.355 99.708H100.725C100.622 99.708 100.543 99.68 100.487 99.624C100.44 99.5587 100.417 99.484 100.417 99.4C100.417 99.26 100.468 99.0873 100.571 98.882C100.683 98.6767 100.851 98.476 101.075 98.28C101.299 98.084 101.584 97.9207 101.929 97.79C102.284 97.65 102.713 97.58 103.217 97.58C103.777 97.58 104.248 97.6547 104.631 97.804C105.014 97.944 105.312 98.1353 105.527 98.378C105.751 98.6207 105.91 98.896 106.003 99.204C106.106 99.512 106.157 99.8247 106.157 100.142V104.678C106.157 104.771 106.124 104.851 106.059 104.916C106.003 104.972 105.928 105 105.835 105H105.191C105.088 105 105.009 104.972 104.953 104.916C104.897 104.851 104.869 104.771 104.869 104.678V104.076C104.748 104.244 104.584 104.412 104.379 104.58C104.174 104.739 103.917 104.874 103.609 104.986C103.301 105.089 102.923 105.14 102.475 105.14ZM102.769 104.09C103.152 104.09 103.502 104.011 103.819 103.852C104.136 103.684 104.384 103.427 104.561 103.082C104.748 102.737 104.841 102.303 104.841 101.78V101.388L103.217 101.626C102.554 101.719 102.055 101.878 101.719 102.102C101.383 102.317 101.215 102.592 101.215 102.928C101.215 103.189 101.29 103.409 101.439 103.586C101.598 103.754 101.794 103.88 102.027 103.964C102.27 104.048 102.517 104.09 102.769 104.09ZM110.69 105.14C110.167 105.14 109.719 105.075 109.346 104.944C108.972 104.813 108.669 104.655 108.436 104.468C108.202 104.281 108.025 104.095 107.904 103.908C107.792 103.721 107.731 103.572 107.722 103.46C107.712 103.357 107.745 103.278 107.82 103.222C107.894 103.166 107.969 103.138 108.044 103.138H108.66C108.716 103.138 108.758 103.147 108.786 103.166C108.823 103.175 108.87 103.213 108.926 103.278C109.047 103.409 109.182 103.539 109.332 103.67C109.481 103.801 109.663 103.908 109.878 103.992C110.102 104.076 110.377 104.118 110.704 104.118C111.18 104.118 111.572 104.029 111.88 103.852C112.188 103.665 112.342 103.395 112.342 103.04C112.342 102.807 112.276 102.62 112.146 102.48C112.024 102.34 111.8 102.214 111.474 102.102C111.156 101.99 110.718 101.873 110.158 101.752C109.598 101.621 109.154 101.463 108.828 101.276C108.501 101.08 108.268 100.851 108.128 100.59C107.988 100.319 107.918 100.016 107.918 99.68C107.918 99.3347 108.02 99.0033 108.226 98.686C108.431 98.3593 108.73 98.0933 109.122 97.888C109.523 97.6827 110.022 97.58 110.62 97.58C111.105 97.58 111.52 97.6407 111.866 97.762C112.211 97.8833 112.496 98.0373 112.72 98.224C112.944 98.4013 113.112 98.5787 113.224 98.756C113.336 98.9333 113.396 99.0827 113.406 99.204C113.415 99.2973 113.387 99.3767 113.322 99.442C113.256 99.498 113.182 99.526 113.098 99.526H112.51C112.444 99.526 112.388 99.512 112.342 99.484C112.304 99.456 112.267 99.4233 112.23 99.386C112.136 99.2647 112.024 99.1433 111.894 99.022C111.772 98.9007 111.609 98.8027 111.404 98.728C111.208 98.644 110.946 98.602 110.62 98.602C110.153 98.602 109.803 98.7 109.57 98.896C109.336 99.092 109.22 99.3393 109.22 99.638C109.22 99.8153 109.271 99.974 109.374 100.114C109.476 100.254 109.672 100.38 109.962 100.492C110.251 100.604 110.68 100.725 111.25 100.856C111.866 100.977 112.351 101.141 112.706 101.346C113.06 101.551 113.312 101.789 113.462 102.06C113.611 102.331 113.686 102.643 113.686 102.998C113.686 103.39 113.569 103.749 113.336 104.076C113.112 104.403 112.776 104.664 112.328 104.86C111.889 105.047 111.343 105.14 110.69 105.14ZM119.074 105C118.981 105 118.901 104.972 118.836 104.916C118.78 104.851 118.752 104.771 118.752 104.678V95.382C118.752 95.2887 118.78 95.214 118.836 95.158C118.901 95.0927 118.981 95.06 119.074 95.06H119.732C119.835 95.06 119.914 95.0927 119.97 95.158C120.026 95.214 120.054 95.2887 120.054 95.382V104.678C120.054 104.771 120.026 104.851 119.97 104.916C119.914 104.972 119.835 105 119.732 105H119.074ZM125.124 105.14C124.415 105.14 123.822 105.005 123.346 104.734C122.87 104.463 122.506 104.09 122.254 103.614C122.002 103.129 121.862 102.578 121.834 101.962C121.825 101.803 121.82 101.603 121.82 101.36C121.82 101.108 121.825 100.907 121.834 100.758C121.862 100.133 122.002 99.582 122.254 99.106C122.516 98.63 122.884 98.2567 123.36 97.986C123.836 97.7153 124.424 97.58 125.124 97.58C125.824 97.58 126.412 97.7153 126.888 97.986C127.364 98.2567 127.728 98.63 127.98 99.106C128.242 99.582 128.386 100.133 128.414 100.758C128.424 100.907 128.428 101.108 128.428 101.36C128.428 101.603 128.424 101.803 128.414 101.962C128.386 102.578 128.246 103.129 127.994 103.614C127.742 104.09 127.378 104.463 126.902 104.734C126.426 105.005 125.834 105.14 125.124 105.14ZM125.124 104.062C125.703 104.062 126.165 103.88 126.51 103.516C126.856 103.143 127.042 102.601 127.07 101.892C127.08 101.752 127.084 101.575 127.084 101.36C127.084 101.145 127.08 100.968 127.07 100.828C127.042 100.119 126.856 99.582 126.51 99.218C126.165 98.8447 125.703 98.658 125.124 98.658C124.546 98.658 124.079 98.8447 123.724 99.218C123.379 99.582 123.197 100.119 123.178 100.828C123.169 100.968 123.164 101.145 123.164 101.36C123.164 101.575 123.169 101.752 123.178 101.892C123.197 102.601 123.379 103.143 123.724 103.516C124.079 103.88 124.546 104.062 125.124 104.062ZM131.922 105C131.801 105 131.707 104.972 131.642 104.916C131.577 104.851 131.521 104.762 131.474 104.65L129.486 98.154C129.467 98.1073 129.458 98.0607 129.458 98.014C129.458 97.93 129.486 97.86 129.542 97.804C129.607 97.748 129.677 97.72 129.752 97.72H130.368C130.471 97.72 130.55 97.748 130.606 97.804C130.662 97.86 130.699 97.9113 130.718 97.958L132.272 103.236L133.938 98.014C133.957 97.9487 133.994 97.8833 134.05 97.818C134.115 97.7527 134.209 97.72 134.33 97.72H134.806C134.927 97.72 135.021 97.7527 135.086 97.818C135.151 97.8833 135.189 97.9487 135.198 98.014L136.864 103.236L138.418 97.958C138.427 97.9113 138.46 97.86 138.516 97.804C138.572 97.748 138.651 97.72 138.754 97.72H139.37C139.454 97.72 139.524 97.748 139.58 97.804C139.636 97.86 139.664 97.93 139.664 98.014C139.664 98.0607 139.655 98.1073 139.636 98.154L137.648 104.65C137.62 104.762 137.569 104.851 137.494 104.916C137.429 104.972 137.331 105 137.2 105H136.654C136.533 105 136.43 104.972 136.346 104.916C136.271 104.851 136.22 104.762 136.192 104.65L134.568 99.638L132.944 104.65C132.907 104.762 132.851 104.851 132.776 104.916C132.701 104.972 132.599 105 132.468 105H131.922ZM146.348 105.14C145.881 105.14 145.457 105.047 145.074 104.86C144.691 104.673 144.383 104.421 144.15 104.104C143.917 103.787 143.8 103.427 143.8 103.026C143.8 102.382 144.061 101.869 144.584 101.486C145.107 101.103 145.788 100.851 146.628 100.73L148.714 100.436V100.03C148.714 99.582 148.583 99.232 148.322 98.98C148.07 98.728 147.655 98.602 147.076 98.602C146.656 98.602 146.315 98.686 146.054 98.854C145.802 99.022 145.625 99.2367 145.522 99.498C145.466 99.638 145.368 99.708 145.228 99.708H144.598C144.495 99.708 144.416 99.68 144.36 99.624C144.313 99.5587 144.29 99.484 144.29 99.4C144.29 99.26 144.341 99.0873 144.444 98.882C144.556 98.6767 144.724 98.476 144.948 98.28C145.172 98.084 145.457 97.9207 145.802 97.79C146.157 97.65 146.586 97.58 147.09 97.58C147.65 97.58 148.121 97.6547 148.504 97.804C148.887 97.944 149.185 98.1353 149.4 98.378C149.624 98.6207 149.783 98.896 149.876 99.204C149.979 99.512 150.03 99.8247 150.03 100.142V104.678C150.03 104.771 149.997 104.851 149.932 104.916C149.876 104.972 149.801 105 149.708 105H149.064C148.961 105 148.882 104.972 148.826 104.916C148.77 104.851 148.742 104.771 148.742 104.678V104.076C148.621 104.244 148.457 104.412 148.252 104.58C148.047 104.739 147.79 104.874 147.482 104.986C147.174 105.089 146.796 105.14 146.348 105.14ZM146.642 104.09C147.025 104.09 147.375 104.011 147.692 103.852C148.009 103.684 148.257 103.427 148.434 103.082C148.621 102.737 148.714 102.303 148.714 101.78V101.388L147.09 101.626C146.427 101.719 145.928 101.878 145.592 102.102C145.256 102.317 145.088 102.592 145.088 102.928C145.088 103.189 145.163 103.409 145.312 103.586C145.471 103.754 145.667 103.88 145.9 103.964C146.143 104.048 146.39 104.09 146.642 104.09ZM154.563 105.14C154.04 105.14 153.592 105.075 153.219 104.944C152.845 104.813 152.542 104.655 152.309 104.468C152.075 104.281 151.898 104.095 151.777 103.908C151.665 103.721 151.604 103.572 151.595 103.46C151.585 103.357 151.618 103.278 151.693 103.222C151.767 103.166 151.842 103.138 151.917 103.138H152.533C152.589 103.138 152.631 103.147 152.659 103.166C152.696 103.175 152.743 103.213 152.799 103.278C152.92 103.409 153.055 103.539 153.205 103.67C153.354 103.801 153.536 103.908 153.751 103.992C153.975 104.076 154.25 104.118 154.577 104.118C155.053 104.118 155.445 104.029 155.753 103.852C156.061 103.665 156.215 103.395 156.215 103.04C156.215 102.807 156.149 102.62 156.019 102.48C155.897 102.34 155.673 102.214 155.347 102.102C155.029 101.99 154.591 101.873 154.031 101.752C153.471 101.621 153.027 101.463 152.701 101.276C152.374 101.08 152.141 100.851 152.001 100.59C151.861 100.319 151.791 100.016 151.791 99.68C151.791 99.3347 151.893 99.0033 152.099 98.686C152.304 98.3593 152.603 98.0933 152.995 97.888C153.396 97.6827 153.895 97.58 154.493 97.58C154.978 97.58 155.393 97.6407 155.739 97.762C156.084 97.8833 156.369 98.0373 156.593 98.224C156.817 98.4013 156.985 98.5787 157.097 98.756C157.209 98.9333 157.269 99.0827 157.279 99.204C157.288 99.2973 157.26 99.3767 157.195 99.442C157.129 99.498 157.055 99.526 156.971 99.526H156.383C156.317 99.526 156.261 99.512 156.215 99.484C156.177 99.456 156.14 99.4233 156.103 99.386C156.009 99.2647 155.897 99.1433 155.767 99.022C155.645 98.9007 155.482 98.8027 155.277 98.728C155.081 98.644 154.819 98.602 154.493 98.602C154.026 98.602 153.676 98.7 153.443 98.896C153.209 99.092 153.093 99.3393 153.093 99.638C153.093 99.8153 153.144 99.974 153.247 100.114C153.349 100.254 153.545 100.38 153.835 100.492C154.124 100.604 154.553 100.725 155.123 100.856C155.739 100.977 156.224 101.141 156.579 101.346C156.933 101.551 157.185 101.789 157.335 102.06C157.484 102.331 157.559 102.643 157.559 102.998C157.559 103.39 157.442 103.749 157.209 104.076C156.985 104.403 156.649 104.664 156.201 104.86C155.762 105.047 155.216 105.14 154.563 105.14ZM166.727 105C166.615 105 166.526 104.977 166.461 104.93C166.396 104.883 166.335 104.827 166.279 104.762L163.073 101.094C162.998 101.019 162.947 100.954 162.919 100.898C162.9 100.833 162.891 100.735 162.891 100.604V100.296C162.891 100.203 162.919 100.128 162.975 100.072C163.04 100.007 163.12 99.974 163.213 99.974H163.969C164.622 99.974 165.122 99.89 165.467 99.722C165.812 99.554 166.046 99.33 166.167 99.05C166.298 98.77 166.363 98.448 166.363 98.084C166.363 97.7387 166.298 97.426 166.167 97.146C166.046 96.8567 165.822 96.628 165.495 96.46C165.168 96.292 164.706 96.208 164.109 96.208H163.087C162.994 96.208 162.914 96.18 162.849 96.124C162.793 96.0587 162.765 95.9793 162.765 95.886V95.522C162.765 95.4287 162.793 95.354 162.849 95.298C162.914 95.2327 162.994 95.2 163.087 95.2H168.659C168.752 95.2 168.827 95.2327 168.883 95.298C168.948 95.354 168.981 95.4287 168.981 95.522V95.886C168.981 95.9793 168.948 96.0587 168.883 96.124C168.827 96.18 168.752 96.208 168.659 96.208H166.531L166.181 95.83C166.788 95.9793 167.203 96.264 167.427 96.684C167.651 97.104 167.763 97.5893 167.763 98.14C167.763 98.6533 167.651 99.1247 167.427 99.554C167.212 99.9833 166.867 100.329 166.391 100.59C165.924 100.842 165.322 100.977 164.585 100.996L164.165 101.01L164.179 100.45L167.763 104.566C167.838 104.641 167.875 104.711 167.875 104.776C167.875 104.851 167.847 104.907 167.791 104.944C167.735 104.981 167.665 105 167.581 105H166.727ZM163.087 98.448C162.984 98.448 162.905 98.42 162.849 98.364C162.793 98.308 162.765 98.2287 162.765 98.126V97.776C162.765 97.6733 162.793 97.594 162.849 97.538C162.914 97.482 162.994 97.454 163.087 97.454H168.659C168.752 97.454 168.827 97.482 168.883 97.538C168.948 97.594 168.981 97.6733 168.981 97.776V98.126C168.981 98.2287 168.948 98.308 168.883 98.364C168.827 98.42 168.752 98.448 168.659 98.448H163.087ZM173.642 105C173.549 105 173.469 104.972 173.404 104.916C173.348 104.851 173.32 104.771 173.32 104.678V96.838L170.996 98.63C170.921 98.686 170.842 98.7093 170.758 98.7C170.674 98.6907 170.604 98.6487 170.548 98.574L170.184 98.112C170.128 98.028 170.105 97.944 170.114 97.86C170.133 97.776 170.179 97.706 170.254 97.65L173.306 95.298C173.371 95.2513 173.432 95.2233 173.488 95.214C173.544 95.2047 173.605 95.2 173.67 95.2H174.384C174.477 95.2 174.552 95.2327 174.608 95.298C174.664 95.354 174.692 95.4287 174.692 95.522V104.678C174.692 104.771 174.664 104.851 174.608 104.916C174.552 104.972 174.477 105 174.384 105H173.642ZM180.204 105.14C179.56 105.14 179.014 105.042 178.566 104.846C178.128 104.641 177.768 104.361 177.488 104.006C177.208 103.651 177.003 103.245 176.872 102.788C176.751 102.331 176.681 101.845 176.662 101.332C176.653 101.08 176.644 100.814 176.634 100.534C176.634 100.254 176.634 99.974 176.634 99.694C176.644 99.4047 176.653 99.1293 176.662 98.868C176.672 98.3547 176.742 97.8693 176.872 97.412C177.012 96.9453 177.218 96.5393 177.488 96.194C177.768 95.8393 178.132 95.564 178.58 95.368C179.028 95.1627 179.57 95.06 180.204 95.06C180.848 95.06 181.39 95.1627 181.828 95.368C182.276 95.564 182.64 95.8393 182.92 96.194C183.2 96.5393 183.406 96.9453 183.536 97.412C183.676 97.8693 183.751 98.3547 183.76 98.868C183.77 99.1293 183.774 99.4047 183.774 99.694C183.784 99.974 183.784 100.254 183.774 100.534C183.774 100.814 183.77 101.08 183.76 101.332C183.751 101.845 183.676 102.331 183.536 102.788C183.406 103.245 183.2 103.651 182.92 104.006C182.65 104.361 182.29 104.641 181.842 104.846C181.404 105.042 180.858 105.14 180.204 105.14ZM180.204 103.95C180.932 103.95 181.469 103.712 181.814 103.236C182.169 102.751 182.351 102.093 182.36 101.262C182.379 100.991 182.388 100.73 182.388 100.478C182.388 100.217 182.388 99.96 182.388 99.708C182.388 99.4467 182.379 99.19 182.36 98.938C182.351 98.126 182.169 97.4773 181.814 96.992C181.469 96.4973 180.932 96.25 180.204 96.25C179.486 96.25 178.949 96.4973 178.594 96.992C178.249 97.4773 178.067 98.126 178.048 98.938C178.048 99.19 178.044 99.4467 178.034 99.708C178.034 99.96 178.034 100.217 178.034 100.478C178.044 100.73 178.048 100.991 178.048 101.262C178.067 102.093 178.254 102.751 178.608 103.236C178.963 103.712 179.495 103.95 180.204 103.95ZM189.091 105.14C188.447 105.14 187.901 105.042 187.453 104.846C187.014 104.641 186.655 104.361 186.375 104.006C186.095 103.651 185.89 103.245 185.759 102.788C185.638 102.331 185.568 101.845 185.549 101.332C185.54 101.08 185.53 100.814 185.521 100.534C185.521 100.254 185.521 99.974 185.521 99.694C185.53 99.4047 185.54 99.1293 185.549 98.868C185.558 98.3547 185.628 97.8693 185.759 97.412C185.899 96.9453 186.104 96.5393 186.375 96.194C186.655 95.8393 187.019 95.564 187.467 95.368C187.915 95.1627 188.456 95.06 189.091 95.06C189.735 95.06 190.276 95.1627 190.715 95.368C191.163 95.564 191.527 95.8393 191.807 96.194C192.087 96.5393 192.292 96.9453 192.423 97.412C192.563 97.8693 192.638 98.3547 192.647 98.868C192.656 99.1293 192.661 99.4047 192.661 99.694C192.67 99.974 192.67 100.254 192.661 100.534C192.661 100.814 192.656 101.08 192.647 101.332C192.638 101.845 192.563 102.331 192.423 102.788C192.292 103.245 192.087 103.651 191.807 104.006C191.536 104.361 191.177 104.641 190.729 104.846C190.29 105.042 189.744 105.14 189.091 105.14ZM189.091 103.95C189.819 103.95 190.356 103.712 190.701 103.236C191.056 102.751 191.238 102.093 191.247 101.262C191.266 100.991 191.275 100.73 191.275 100.478C191.275 100.217 191.275 99.96 191.275 99.708C191.275 99.4467 191.266 99.19 191.247 98.938C191.238 98.126 191.056 97.4773 190.701 96.992C190.356 96.4973 189.819 96.25 189.091 96.25C188.372 96.25 187.836 96.4973 187.481 96.992C187.136 97.4773 186.954 98.126 186.935 98.938C186.935 99.19 186.93 99.4467 186.921 99.708C186.921 99.96 186.921 100.217 186.921 100.478C186.93 100.73 186.935 100.991 186.935 101.262C186.954 102.093 187.14 102.751 187.495 103.236C187.85 103.712 188.382 103.95 189.091 103.95Z" fill="white"/>
<path d="M26.8804 40C26.7204 40 26.5844 39.944 26.4724 39.832C26.3604 39.72 26.3044 39.584 26.3044 39.424V23.776C26.3044 23.616 26.3604 23.48 26.4724 23.368C26.5844 23.256 26.7204 23.2 26.8804 23.2H29.1364C29.3124 23.2 29.4484 23.256 29.5444 23.368C29.6564 23.48 29.7124 23.616 29.7124 23.776V39.424C29.7124 39.584 29.6564 39.72 29.5444 39.832C29.4484 39.944 29.3124 40 29.1364 40H26.8804ZM33.7642 40C33.6042 40 33.4682 39.944 33.3562 39.832C33.2442 39.72 33.1882 39.584 33.1882 39.424V28.096C33.1882 27.936 33.2442 27.8 33.3562 27.688C33.4682 27.576 33.6042 27.52 33.7642 27.52H35.7322C35.8922 27.52 36.0282 27.576 36.1402 27.688C36.2522 27.8 36.3082 27.936 36.3082 28.096V29.08C36.7242 28.568 37.2522 28.144 37.8922 27.808C38.5482 27.456 39.3562 27.28 40.3162 27.28C41.2922 27.28 42.1402 27.504 42.8602 27.952C43.5802 28.384 44.1322 29 44.5162 29.8C44.9162 30.6 45.1162 31.56 45.1162 32.68V39.424C45.1162 39.584 45.0602 39.72 44.9482 39.832C44.8362 39.944 44.7002 40 44.5402 40H42.4282C42.2682 40 42.1322 39.944 42.0202 39.832C41.9082 39.72 41.8522 39.584 41.8522 39.424V32.824C41.8522 31.896 41.6202 31.168 41.1562 30.64C40.7082 30.112 40.0522 29.848 39.1882 29.848C38.3562 29.848 37.6922 30.112 37.1962 30.64C36.7002 31.168 36.4522 31.896 36.4522 32.824V39.424C36.4522 39.584 36.3962 39.72 36.2842 39.832C36.1722 39.944 36.0362 40 35.8762 40H33.7642ZM52.2058 40C51.9498 40 51.7578 39.944 51.6298 39.832C51.5178 39.704 51.4218 39.56 51.3418 39.4L46.8538 28.264C46.8218 28.184 46.8058 28.112 46.8058 28.048C46.8058 27.904 46.8538 27.784 46.9498 27.688C47.0618 27.576 47.1898 27.52 47.3338 27.52H49.2778C49.4698 27.52 49.6138 27.576 49.7098 27.688C49.8058 27.784 49.8698 27.88 49.9018 27.976L53.0938 36.4L56.2858 27.976C56.3178 27.88 56.3818 27.784 56.4778 27.688C56.5738 27.576 56.7178 27.52 56.9098 27.52H58.8778C59.0058 27.52 59.1178 27.576 59.2138 27.688C59.3258 27.784 59.3818 27.904 59.3818 28.048C59.3818 28.112 59.3738 28.184 59.3578 28.264L54.8458 39.4C54.7818 39.56 54.6858 39.704 54.5578 39.832C54.4298 39.944 54.2378 40 53.9818 40H52.2058ZM66.5017 40.24C64.7257 40.24 63.3177 39.728 62.2777 38.704C61.2377 37.68 60.6777 36.224 60.5977 34.336C60.5817 34.176 60.5737 33.976 60.5737 33.736C60.5737 33.48 60.5817 33.28 60.5977 33.136C60.6617 31.936 60.9337 30.896 61.4137 30.016C61.9097 29.136 62.5897 28.464 63.4537 28C64.3177 27.52 65.3337 27.28 66.5017 27.28C67.7977 27.28 68.8857 27.552 69.7657 28.096C70.6457 28.624 71.3097 29.368 71.7577 30.328C72.2057 31.272 72.4297 32.368 72.4297 33.616V34.12C72.4297 34.28 72.3737 34.416 72.2617 34.528C72.1497 34.64 72.0057 34.696 71.8297 34.696H63.8617C63.8617 34.696 63.8617 34.72 63.8617 34.768C63.8617 34.816 63.8617 34.856 63.8617 34.888C63.8777 35.448 63.9817 35.968 64.1737 36.448C64.3817 36.912 64.6777 37.288 65.0617 37.576C65.4617 37.864 65.9337 38.008 66.4777 38.008C66.9257 38.008 67.3017 37.944 67.6057 37.816C67.9097 37.672 68.1577 37.512 68.3497 37.336C68.5417 37.16 68.6777 37.016 68.7577 36.904C68.9017 36.712 69.0137 36.6 69.0937 36.568C69.1897 36.52 69.3257 36.496 69.5017 36.496H71.5657C71.7257 36.496 71.8537 36.544 71.9497 36.64C72.0617 36.736 72.1097 36.856 72.0937 37C72.0777 37.256 71.9417 37.568 71.6857 37.936C71.4457 38.304 71.0937 38.664 70.6297 39.016C70.1657 39.368 69.5817 39.664 68.8777 39.904C68.1897 40.128 67.3977 40.24 66.5017 40.24ZM63.8617 32.68H69.1657V32.608C69.1657 31.984 69.0617 31.44 68.8537 30.976C68.6457 30.512 68.3417 30.144 67.9417 29.872C67.5417 29.6 67.0617 29.464 66.5017 29.464C65.9417 29.464 65.4617 29.6 65.0617 29.872C64.6617 30.144 64.3577 30.512 64.1497 30.976C63.9577 31.44 63.8617 31.984 63.8617 32.608V32.68ZM79.7053 40.24C78.7453 40.24 77.9213 40.128 77.2333 39.904C76.5613 39.68 76.0093 39.4 75.5773 39.064C75.1453 38.728 74.8253 38.392 74.6173 38.056C74.4093 37.72 74.2973 37.44 74.2813 37.216C74.2653 37.04 74.3133 36.904 74.4253 36.808C74.5533 36.696 74.6893 36.64 74.8333 36.64H76.7293C76.7933 36.64 76.8493 36.648 76.8973 36.664C76.9453 36.68 77.0093 36.728 77.0893 36.808C77.2973 36.984 77.5133 37.168 77.7373 37.36C77.9773 37.552 78.2573 37.72 78.5773 37.864C78.8973 37.992 79.2973 38.056 79.7773 38.056C80.4013 38.056 80.9213 37.936 81.3373 37.696C81.7693 37.44 81.9853 37.08 81.9853 36.616C81.9853 36.28 81.8893 36.008 81.6973 35.8C81.5213 35.592 81.1853 35.408 80.6893 35.248C80.1933 35.072 79.4893 34.888 78.5773 34.696C77.6813 34.488 76.9373 34.224 76.3453 33.904C75.7533 33.584 75.3133 33.184 75.0253 32.704C74.7373 32.224 74.5933 31.664 74.5933 31.024C74.5933 30.4 74.7773 29.808 75.1453 29.248C75.5293 28.672 76.0893 28.2 76.8253 27.832C77.5773 27.464 78.5053 27.28 79.6093 27.28C80.4733 27.28 81.2253 27.392 81.8653 27.616C82.5053 27.824 83.0333 28.088 83.4493 28.408C83.8813 28.728 84.2093 29.056 84.4333 29.392C84.6573 29.712 84.7773 29.992 84.7933 30.232C84.8093 30.408 84.7613 30.552 84.6493 30.664C84.5373 30.76 84.4093 30.808 84.2653 30.808H82.4893C82.4093 30.808 82.3373 30.792 82.2733 30.76C82.2093 30.728 82.1453 30.688 82.0813 30.64C81.9053 30.48 81.7133 30.312 81.5053 30.136C81.2973 29.96 81.0413 29.808 80.7373 29.68C80.4493 29.536 80.0653 29.464 79.5853 29.464C78.9773 29.464 78.5133 29.6 78.1933 29.872C77.8733 30.128 77.7133 30.456 77.7133 30.856C77.7133 31.128 77.7853 31.368 77.9293 31.576C78.0893 31.768 78.4013 31.952 78.8653 32.128C79.3293 32.304 80.0333 32.488 80.9773 32.68C82.0493 32.872 82.8973 33.16 83.5213 33.544C84.1613 33.912 84.6093 34.344 84.8653 34.84C85.1373 35.32 85.2733 35.856 85.2733 36.448C85.2733 37.168 85.0573 37.816 84.6253 38.392C84.2093 38.968 83.5853 39.424 82.7533 39.76C81.9373 40.08 80.9213 40.24 79.7053 40.24ZM93.3439 40C92.3839 40 91.5759 39.832 90.9199 39.496C90.2639 39.16 89.7759 38.664 89.4559 38.008C89.1359 37.336 88.9759 36.504 88.9759 35.512V30.064H87.0799C86.9199 30.064 86.7839 30.008 86.6719 29.896C86.5599 29.784 86.5039 29.648 86.5039 29.488V28.096C86.5039 27.936 86.5599 27.8 86.6719 27.688C86.7839 27.576 86.9199 27.52 87.0799 27.52H88.9759V23.536C88.9759 23.376 89.0239 23.24 89.1199 23.128C89.2319 23.016 89.3759 22.96 89.5519 22.96H91.4959C91.6559 22.96 91.7919 23.016 91.9039 23.128C92.0159 23.24 92.0719 23.376 92.0719 23.536V27.52H95.0719C95.2319 27.52 95.3679 27.576 95.4799 27.688C95.5919 27.8 95.6479 27.936 95.6479 28.096V29.488C95.6479 29.648 95.5919 29.784 95.4799 29.896C95.3679 30.008 95.2319 30.064 95.0719 30.064H92.0719V35.272C92.0719 35.928 92.1839 36.44 92.4079 36.808C92.6479 37.176 93.0559 37.36 93.6319 37.36H95.2879C95.4479 37.36 95.5839 37.416 95.6959 37.528C95.8079 37.64 95.8639 37.776 95.8639 37.936V39.424C95.8639 39.584 95.8079 39.72 95.6959 39.832C95.5839 39.944 95.4479 40 95.2879 40H93.3439ZM104.053 40C103.893 40 103.757 39.944 103.645 39.832C103.533 39.72 103.477 39.584 103.477 39.424V28.096C103.477 27.936 103.533 27.8 103.645 27.688C103.757 27.576 103.893 27.52 104.053 27.52H106.045C106.221 27.52 106.357 27.576 106.453 27.688C106.565 27.8 106.621 27.936 106.621 28.096V39.424C106.621 39.584 106.565 39.72 106.453 39.832C106.357 39.944 106.221 40 106.045 40H104.053ZM103.957 25.456C103.781 25.456 103.637 25.408 103.525 25.312C103.429 25.2 103.381 25.056 103.381 24.88V23.152C103.381 22.992 103.429 22.856 103.525 22.744C103.637 22.632 103.781 22.576 103.957 22.576H106.141C106.317 22.576 106.461 22.632 106.573 22.744C106.685 22.856 106.741 22.992 106.741 23.152V24.88C106.741 25.056 106.685 25.2 106.573 25.312C106.461 25.408 106.317 25.456 106.141 25.456H103.957ZM110.874 40C110.714 40 110.578 39.944 110.466 39.832C110.354 39.72 110.298 39.584 110.298 39.424V28.096C110.298 27.936 110.354 27.8 110.466 27.688C110.578 27.576 110.714 27.52 110.874 27.52H112.842C113.002 27.52 113.138 27.576 113.25 27.688C113.362 27.8 113.418 27.936 113.418 28.096V29.08C113.834 28.568 114.362 28.144 115.002 27.808C115.658 27.456 116.466 27.28 117.426 27.28C118.402 27.28 119.25 27.504 119.97 27.952C120.69 28.384 121.242 29 121.626 29.8C122.026 30.6 122.226 31.56 122.226 32.68V39.424C122.226 39.584 122.17 39.72 122.058 39.832C121.946 39.944 121.81 40 121.65 40H119.538C119.378 40 119.242 39.944 119.13 39.832C119.018 39.72 118.962 39.584 118.962 39.424V32.824C118.962 31.896 118.73 31.168 118.266 30.64C117.818 30.112 117.162 29.848 116.298 29.848C115.466 29.848 114.802 30.112 114.306 30.64C113.81 31.168 113.562 31.896 113.562 32.824V39.424C113.562 39.584 113.506 39.72 113.394 39.832C113.282 39.944 113.146 40 112.986 40H110.874ZM131.647 40C131.471 40 131.327 39.944 131.215 39.832C131.103 39.72 131.047 39.584 131.047 39.424V23.8C131.047 23.624 131.103 23.48 131.215 23.368C131.327 23.256 131.471 23.2 131.647 23.2H133.543C133.767 23.2 133.935 23.264 134.047 23.392C134.159 23.504 134.231 23.592 134.263 23.656L138.895 32.296L143.575 23.656C143.607 23.592 143.679 23.504 143.791 23.392C143.903 23.264 144.071 23.2 144.295 23.2H146.167C146.343 23.2 146.487 23.256 146.599 23.368C146.711 23.48 146.767 23.624 146.767 23.8V39.424C146.767 39.584 146.711 39.72 146.599 39.832C146.487 39.944 146.343 40 146.167 40H144.151C143.975 40 143.831 39.944 143.719 39.832C143.623 39.72 143.575 39.584 143.575 39.424V29.032L140.215 35.44C140.135 35.584 140.031 35.712 139.903 35.824C139.775 35.92 139.607 35.968 139.399 35.968H138.415C138.191 35.968 138.015 35.92 137.887 35.824C137.775 35.712 137.679 35.584 137.599 35.44L134.239 29.032V39.424C134.239 39.584 134.183 39.72 134.071 39.832C133.959 39.944 133.823 40 133.663 40H131.647ZM154.844 40.24C153.868 40.24 153.02 40.024 152.3 39.592C151.596 39.144 151.052 38.52 150.668 37.72C150.284 36.904 150.092 35.944 150.092 34.84V28.096C150.092 27.936 150.148 27.8 150.26 27.688C150.372 27.576 150.508 27.52 150.668 27.52H152.78C152.956 27.52 153.092 27.576 153.188 27.688C153.3 27.8 153.356 27.936 153.356 28.096V34.696C153.356 36.68 154.228 37.672 155.972 37.672C156.804 37.672 157.46 37.408 157.94 36.88C158.436 36.352 158.684 35.624 158.684 34.696V28.096C158.684 27.936 158.74 27.8 158.852 27.688C158.964 27.576 159.1 27.52 159.26 27.52H161.372C161.532 27.52 161.668 27.576 161.78 27.688C161.892 27.8 161.948 27.936 161.948 28.096V39.424C161.948 39.584 161.892 39.72 161.78 39.832C161.668 39.944 161.532 40 161.372 40H159.428C159.252 40 159.108 39.944 158.996 39.832C158.9 39.72 158.852 39.584 158.852 39.424V38.44C158.42 39 157.884 39.44 157.244 39.76C156.604 40.08 155.804 40.24 154.844 40.24ZM170.758 40C169.798 40 168.99 39.832 168.334 39.496C167.678 39.16 167.19 38.664 166.87 38.008C166.55 37.336 166.39 36.504 166.39 35.512V30.064H164.494C164.334 30.064 164.198 30.008 164.086 29.896C163.974 29.784 163.918 29.648 163.918 29.488V28.096C163.918 27.936 163.974 27.8 164.086 27.688C164.198 27.576 164.334 27.52 164.494 27.52H166.39V23.536C166.39 23.376 166.438 23.24 166.534 23.128C166.646 23.016 166.79 22.96 166.966 22.96H168.91C169.07 22.96 169.206 23.016 169.318 23.128C169.43 23.24 169.486 23.376 169.486 23.536V27.52H172.486C172.646 27.52 172.782 27.576 172.894 27.688C173.006 27.8 173.062 27.936 173.062 28.096V29.488C173.062 29.648 173.006 29.784 172.894 29.896C172.782 30.008 172.646 30.064 172.486 30.064H169.486V35.272C169.486 35.928 169.598 36.44 169.822 36.808C170.062 37.176 170.47 37.36 171.046 37.36H172.702C172.862 37.36 172.998 37.416 173.11 37.528C173.222 37.64 173.278 37.776 173.278 37.936V39.424C173.278 39.584 173.222 39.72 173.11 39.832C172.998 39.944 172.862 40 172.702 40H170.758ZM180.039 40.24C179.063 40.24 178.215 40.024 177.495 39.592C176.791 39.144 176.247 38.52 175.863 37.72C175.479 36.904 175.287 35.944 175.287 34.84V28.096C175.287 27.936 175.343 27.8 175.455 27.688C175.567 27.576 175.703 27.52 175.863 27.52H177.975C178.151 27.52 178.287 27.576 178.383 27.688C178.495 27.8 178.551 27.936 178.551 28.096V34.696C178.551 36.68 179.423 37.672 181.167 37.672C181.999 37.672 182.655 37.408 183.135 36.88C183.631 36.352 183.879 35.624 183.879 34.696V28.096C183.879 27.936 183.935 27.8 184.047 27.688C184.159 27.576 184.295 27.52 184.455 27.52H186.567C186.727 27.52 186.863 27.576 186.975 27.688C187.087 27.8 187.143 27.936 187.143 28.096V39.424C187.143 39.584 187.087 39.72 186.975 39.832C186.863 39.944 186.727 40 186.567 40H184.623C184.447 40 184.303 39.944 184.191 39.832C184.095 39.72 184.047 39.584 184.047 39.424V38.44C183.615 39 183.079 39.44 182.439 39.76C181.799 40.08 180.999 40.24 180.039 40.24ZM193.937 40.24C193.105 40.24 192.353 40.08 191.681 39.76C191.009 39.424 190.473 38.984 190.073 38.44C189.689 37.88 189.497 37.256 189.497 36.568C189.497 35.448 189.945 34.56 190.841 33.904C191.753 33.232 192.953 32.784 194.441 32.56L197.729 32.08V31.576C197.729 30.904 197.561 30.384 197.225 30.016C196.889 29.648 196.313 29.464 195.497 29.464C194.921 29.464 194.449 29.584 194.081 29.824C193.729 30.048 193.465 30.352 193.289 30.736C193.161 30.944 192.977 31.048 192.737 31.048H190.841C190.665 31.048 190.529 31 190.433 30.904C190.353 30.808 190.313 30.68 190.313 30.52C190.329 30.264 190.433 29.952 190.625 29.584C190.817 29.216 191.121 28.864 191.537 28.528C191.953 28.176 192.489 27.88 193.145 27.64C193.801 27.4 194.593 27.28 195.521 27.28C196.529 27.28 197.377 27.408 198.065 27.664C198.769 27.904 199.329 28.232 199.745 28.648C200.161 29.064 200.465 29.552 200.657 30.112C200.849 30.672 200.945 31.264 200.945 31.888V39.424C200.945 39.584 200.889 39.72 200.777 39.832C200.665 39.944 200.529 40 200.369 40H198.425C198.249 40 198.105 39.944 197.993 39.832C197.897 39.72 197.849 39.584 197.849 39.424V38.488C197.641 38.792 197.361 39.08 197.009 39.352C196.657 39.608 196.225 39.824 195.713 40C195.217 40.16 194.625 40.24 193.937 40.24ZM194.753 37.96C195.313 37.96 195.817 37.84 196.265 37.6C196.729 37.36 197.089 36.992 197.345 36.496C197.617 35.984 197.753 35.344 197.753 34.576V34.072L195.353 34.456C194.409 34.6 193.705 34.832 193.241 35.152C192.777 35.472 192.545 35.864 192.545 36.328C192.545 36.68 192.649 36.984 192.857 37.24C193.081 37.48 193.361 37.664 193.697 37.792C194.033 37.904 194.385 37.96 194.753 37.96ZM204.624 40C204.464 40 204.328 39.944 204.216 39.832C204.104 39.72 204.048 39.584 204.048 39.424V23.536C204.048 23.376 204.104 23.24 204.216 23.128C204.328 23.016 204.464 22.96 204.624 22.96H206.616C206.776 22.96 206.912 23.016 207.024 23.128C207.136 23.24 207.192 23.376 207.192 23.536V39.424C207.192 39.584 207.136 39.72 207.024 39.832C206.912 39.944 206.776 40 206.616 40H204.624ZM26.8804 64C26.7204 64 26.5844 63.944 26.4724 63.832C26.3604 63.72 26.3044 63.584 26.3044 63.424V47.8C26.3044 47.624 26.3604 47.48 26.4724 47.368C26.5844 47.256 26.7204 47.2 26.8804 47.2H37.2964C37.4724 47.2 37.6164 47.256 37.7284 47.368C37.8404 47.48 37.8964 47.624 37.8964 47.8V49.48C37.8964 49.656 37.8404 49.8 37.7284 49.912C37.6164 50.008 37.4724 50.056 37.2964 50.056H29.5924V54.616H36.8164C36.9924 54.616 37.1364 54.672 37.2484 54.784C37.3604 54.896 37.4164 55.04 37.4164 55.216V56.896C37.4164 57.056 37.3604 57.192 37.2484 57.304C37.1364 57.416 36.9924 57.472 36.8164 57.472H29.5924V63.424C29.5924 63.584 29.5364 63.72 29.4244 63.832C29.3124 63.944 29.1684 64 28.9924 64H26.8804ZM44.8749 64.24C43.8989 64.24 43.0509 64.024 42.3309 63.592C41.6269 63.144 41.0829 62.52 40.6989 61.72C40.3149 60.904 40.1229 59.944 40.1229 58.84V52.096C40.1229 51.936 40.1789 51.8 40.2909 51.688C40.4029 51.576 40.5389 51.52 40.6989 51.52H42.8109C42.9869 51.52 43.1229 51.576 43.2189 51.688C43.3309 51.8 43.3869 51.936 43.3869 52.096V58.696C43.3869 60.68 44.2589 61.672 46.0029 61.672C46.8349 61.672 47.4909 61.408 47.9709 60.88C48.4669 60.352 48.7149 59.624 48.7149 58.696V52.096C48.7149 51.936 48.7709 51.8 48.8829 51.688C48.9949 51.576 49.1309 51.52 49.2909 51.52H51.4029C51.5629 51.52 51.6989 51.576 51.8109 51.688C51.9229 51.8 51.9789 51.936 51.9789 52.096V63.424C51.9789 63.584 51.9229 63.72 51.8109 63.832C51.6989 63.944 51.5629 64 51.4029 64H49.4589C49.2829 64 49.1389 63.944 49.0269 63.832C48.9309 63.72 48.8829 63.584 48.8829 63.424V62.44C48.4509 63 47.9149 63.44 47.2749 63.76C46.6349 64.08 45.8349 64.24 44.8749 64.24ZM55.7252 64C55.5652 64 55.4292 63.944 55.3172 63.832C55.2052 63.72 55.1492 63.584 55.1492 63.424V52.096C55.1492 51.936 55.2052 51.8 55.3172 51.688C55.4292 51.576 55.5652 51.52 55.7252 51.52H57.6932C57.8532 51.52 57.9892 51.576 58.1012 51.688C58.2132 51.8 58.2692 51.936 58.2692 52.096V53.08C58.6852 52.568 59.2132 52.144 59.8532 51.808C60.5092 51.456 61.3172 51.28 62.2772 51.28C63.2532 51.28 64.1012 51.504 64.8212 51.952C65.5412 52.384 66.0932 53 66.4772 53.8C66.8772 54.6 67.0772 55.56 67.0772 56.68V63.424C67.0772 63.584 67.0212 63.72 66.9092 63.832C66.7972 63.944 66.6612 64 66.5012 64H64.3892C64.2292 64 64.0932 63.944 63.9812 63.832C63.8692 63.72 63.8132 63.584 63.8132 63.424V56.824C63.8132 55.896 63.5812 55.168 63.1172 54.64C62.6692 54.112 62.0132 53.848 61.1492 53.848C60.3172 53.848 59.6532 54.112 59.1572 54.64C58.6612 55.168 58.4132 55.896 58.4132 56.824V63.424C58.4132 63.584 58.3572 63.72 58.2452 63.832C58.1332 63.944 57.9972 64 57.8372 64H55.7252ZM74.7577 64.24C73.9257 64.24 73.1897 64.104 72.5497 63.832C71.9257 63.544 71.4057 63.144 70.9897 62.632C70.5737 62.12 70.2537 61.52 70.0297 60.832C69.8057 60.128 69.6777 59.36 69.6457 58.528C69.6297 58.24 69.6217 57.984 69.6217 57.76C69.6217 57.52 69.6297 57.256 69.6457 56.968C69.6777 56.168 69.7977 55.424 70.0057 54.736C70.2297 54.048 70.5497 53.448 70.9657 52.936C71.3977 52.408 71.9257 52 72.5497 51.712C73.1897 51.424 73.9257 51.28 74.7577 51.28C75.6217 51.28 76.3497 51.432 76.9417 51.736C77.5497 52.024 78.0537 52.4 78.4537 52.864V47.536C78.4537 47.376 78.5017 47.24 78.5977 47.128C78.7097 47.016 78.8537 46.96 79.0297 46.96H81.0697C81.2297 46.96 81.3657 47.016 81.4777 47.128C81.5897 47.24 81.6457 47.376 81.6457 47.536V63.424C81.6457 63.584 81.5897 63.72 81.4777 63.832C81.3657 63.944 81.2297 64 81.0697 64H79.1737C78.9977 64 78.8537 63.944 78.7417 63.832C78.6457 63.72 78.5977 63.584 78.5977 63.424V62.536C78.1977 63.032 77.6857 63.44 77.0617 63.76C76.4537 64.08 75.6857 64.24 74.7577 64.24ZM75.6457 61.672C76.3177 61.672 76.8537 61.52 77.2537 61.216C77.6537 60.912 77.9497 60.528 78.1417 60.064C78.3337 59.584 78.4377 59.096 78.4537 58.6C78.4697 58.312 78.4777 58.008 78.4777 57.688C78.4777 57.352 78.4697 57.04 78.4537 56.752C78.4377 56.272 78.3257 55.816 78.1177 55.384C77.9097 54.936 77.6057 54.568 77.2057 54.28C76.8057 53.992 76.2857 53.848 75.6457 53.848C74.9737 53.848 74.4377 54 74.0377 54.304C73.6537 54.592 73.3737 54.976 73.1977 55.456C73.0217 55.936 72.9177 56.464 72.8857 57.04C72.8697 57.52 72.8697 58 72.8857 58.48C72.9177 59.056 73.0217 59.584 73.1977 60.064C73.3737 60.544 73.6537 60.936 74.0377 61.24C74.4377 61.528 74.9737 61.672 75.6457 61.672ZM89.5725 64.24C88.6125 64.24 87.7885 64.128 87.1005 63.904C86.4285 63.68 85.8765 63.4 85.4445 63.064C85.0125 62.728 84.6925 62.392 84.4845 62.056C84.2765 61.72 84.1645 61.44 84.1485 61.216C84.1325 61.04 84.1805 60.904 84.2925 60.808C84.4205 60.696 84.5565 60.64 84.7005 60.64H86.5965C86.6605 60.64 86.7165 60.648 86.7645 60.664C86.8125 60.68 86.8765 60.728 86.9565 60.808C87.1645 60.984 87.3805 61.168 87.6045 61.36C87.8445 61.552 88.1245 61.72 88.4445 61.864C88.7645 61.992 89.1645 62.056 89.6445 62.056C90.2685 62.056 90.7885 61.936 91.2045 61.696C91.6365 61.44 91.8525 61.08 91.8525 60.616C91.8525 60.28 91.7565 60.008 91.5645 59.8C91.3885 59.592 91.0525 59.408 90.5565 59.248C90.0605 59.072 89.3565 58.888 88.4445 58.696C87.5485 58.488 86.8045 58.224 86.2125 57.904C85.6205 57.584 85.1805 57.184 84.8925 56.704C84.6045 56.224 84.4605 55.664 84.4605 55.024C84.4605 54.4 84.6445 53.808 85.0125 53.248C85.3965 52.672 85.9565 52.2 86.6925 51.832C87.4445 51.464 88.3725 51.28 89.4765 51.28C90.3405 51.28 91.0925 51.392 91.7325 51.616C92.3725 51.824 92.9005 52.088 93.3165 52.408C93.7485 52.728 94.0765 53.056 94.3005 53.392C94.5245 53.712 94.6445 53.992 94.6605 54.232C94.6765 54.408 94.6285 54.552 94.5165 54.664C94.4045 54.76 94.2765 54.808 94.1325 54.808H92.3565C92.2765 54.808 92.2045 54.792 92.1405 54.76C92.0765 54.728 92.0125 54.688 91.9485 54.64C91.7725 54.48 91.5805 54.312 91.3725 54.136C91.1645 53.96 90.9085 53.808 90.6045 53.68C90.3165 53.536 89.9325 53.464 89.4525 53.464C88.8445 53.464 88.3805 53.6 88.0605 53.872C87.7405 54.128 87.5805 54.456 87.5805 54.856C87.5805 55.128 87.6525 55.368 87.7965 55.576C87.9565 55.768 88.2685 55.952 88.7325 56.128C89.1965 56.304 89.9005 56.488 90.8445 56.68C91.9165 56.872 92.7645 57.16 93.3885 57.544C94.0285 57.912 94.4765 58.344 94.7325 58.84C95.0045 59.32 95.1405 59.856 95.1405 60.448C95.1405 61.168 94.9245 61.816 94.4925 62.392C94.0765 62.968 93.4525 63.424 92.6205 63.76C91.8045 64.08 90.7885 64.24 89.5725 64.24Z" fill="white"/>
</svg>
