<svg width="390" height="320" viewBox="0 0 390 320" fill="none" xmlns="http://www.w3.org/2000/svg">
<g clip-path="url(#clip0_1444_37504)">
<path d="M279.303 146.739C280.024 144.224 280.86 141.741 281.81 139.29C282.486 137.316 283.463 135.456 284.708 133.773C286.616 131.358 289.367 129.837 292.046 128.34C292.767 127.942 293.697 127.543 294.363 128.026C294.615 128.236 294.808 128.506 294.926 128.811C295.947 131.093 295.702 133.706 295.403 136.181C294.571 143.027 293.336 150.108 289.288 155.746" fill="#41275B"/>
<path d="M112.201 178.027C115.387 160.352 127.885 145.201 143.343 135.772C158.801 126.343 176.974 122.057 195.085 120.288C217.606 118.085 241.202 119.751 261.307 130.001C281.412 140.251 297.334 160.352 297.848 182.688C297.897 184.559 297.897 186.617 299.126 188.048C300.96 190.167 304.354 189.744 306.904 190.909C311.722 193.101 311.93 199.68 311.392 204.89L309.16 226.621C309.001 228.197 308.806 229.863 307.833 231.131C305.785 233.799 301.67 233.298 298.423 234.294C292.7 236.044 290.559 242.709 286.634 247.188C247.421 291.858 166.689 273.326 143.759 259.714C97.5383 232.272 112.201 178.027 112.201 178.027Z" fill="#7835F9"/>
<path d="M265.226 145.852L255.656 159.03C254.568 158.776 253.483 158.531 252.403 158.293C213.71 149.842 178.11 153.428 160.475 155.879C155.584 156.555 152.098 157.147 150.282 157.37C141.722 158.426 155.431 143.655 156.036 143.486C158.054 143.003 160.07 142.556 162.084 142.146C199.994 134.437 237.129 139.84 254.696 143.401C261.373 144.778 265.226 145.852 265.226 145.852Z" fill="#41275B"/>
<path d="M202.038 301.8C254.713 301.8 297.414 297.005 297.414 291.091C297.414 285.177 254.713 280.382 202.038 280.382C149.363 280.382 106.662 285.177 106.662 291.091C106.662 297.005 149.363 301.8 202.038 301.8Z" fill="#EFEEFB"/>
<path d="M217.302 31L218.947 32.986C224.17 39.3428 228.149 46.6036 230.681 54.3976C238.32 51.5039 246.151 49.132 254.119 47.2986L255.666 46.9425L255.305 48.4697C253.789 54.9246 251.546 61.1915 248.615 67.1527L274.187 63.5308L273.233 65.2271C269.68 71.4447 265.895 77.608 261.878 83.5479C261.811 83.6636 261.72 83.7645 261.612 83.8443C261.503 83.9241 261.38 83.9812 261.248 84.012C261.117 84.0429 260.98 84.0468 260.847 84.0236C260.714 84.0004 260.587 83.9505 260.474 83.877C260.361 83.8036 260.265 83.7081 260.191 83.5965C260.117 83.4848 260.066 83.3594 260.043 83.2279C260.02 83.0964 260.025 82.9617 260.056 82.8319C260.088 82.7022 260.146 82.5802 260.227 82.4734C263.816 77.119 267.265 71.6077 270.488 65.9998L245.106 69.6338L245.986 67.9496C249.019 62.1097 251.366 55.9466 252.981 49.5804C245.289 51.4268 237.73 53.7803 230.357 56.625L229.36 57.0114L229.049 55.9972C226.9 48.9158 223.522 42.257 219.063 36.3182C218.904 41.7148 218.972 47.1839 219.277 52.5142C219.279 52.7647 219.183 53.0063 219.01 53.1891C218.836 53.372 218.598 53.4821 218.345 53.4968C218.092 53.5115 217.842 53.4297 217.648 53.2682C217.454 53.1067 217.33 52.8778 217.302 52.6289C216.942 46.3086 216.905 39.8978 217.186 33.5655L217.302 31Z" fill="#FFBD02"/>
<path d="M121.52 47.6387C121.361 55.1783 115.485 62.241 108.019 63.8528C112.098 64.4564 115.754 66.8227 118.524 69.835C121.294 72.8472 123.287 76.4751 125.067 80.1574C124.571 78.3214 124.53 76.3946 124.946 74.5395C125.362 72.6843 126.223 70.9549 127.458 69.4969C130.289 66.2131 134.667 64.7522 138.819 63.4604C135.058 63.4 131.481 61.5046 128.864 58.8485C126.247 56.1924 123.715 53.8382 122.333 50.3974L121.52 47.6387Z" fill="#FFBD02"/>
<path d="M112.012 84.7988C112.464 86.9418 111.247 89.1572 109.523 90.5335C107.799 91.9099 105.646 92.6222 103.537 93.2983C104.796 93.2888 106.042 93.5508 107.187 94.0658C108.333 94.5809 109.352 95.3366 110.171 96.2803C111.799 98.1835 112.936 100.447 113.485 102.878C113.452 100.72 113.945 98.5855 114.922 96.6546C115.422 95.7006 116.128 94.8666 116.99 94.2115C117.852 93.5564 118.85 93.0963 119.912 92.8636C116.414 92.1453 113.228 90.5335 112.574 87.0565L112.012 84.7988Z" fill="#FFBD02"/>
<path d="M276.239 200.163C279.565 200.163 282.262 195.901 282.262 190.643C282.262 185.386 279.565 181.124 276.239 181.124C272.912 181.124 270.216 185.386 270.216 190.643C270.216 195.901 272.912 200.163 276.239 200.163Z" fill="#41275B"/>
<path d="M170.321 87.6968L186.402 83.0245C188.285 82.4752 187.484 79.5595 185.595 80.1149L169.507 84.7872C167.624 85.3365 168.425 88.2521 170.321 87.6968Z" fill="white"/>
<path d="M255.6 259.8H244.4C241.307 259.8 238.8 262.307 238.8 265.4V282.2C238.8 285.293 241.307 287.8 244.4 287.8H255.6C258.693 287.8 261.2 285.293 261.2 282.2V265.4C261.2 262.307 258.693 259.8 255.6 259.8Z" fill="#7835F9"/>
<path d="M171.6 259.8H160.4C157.307 259.8 154.8 262.307 154.8 265.4V282.2C154.8 285.293 157.307 287.8 160.4 287.8H171.6C174.693 287.8 177.2 285.293 177.2 282.2V265.4C177.2 262.307 174.693 259.8 171.6 259.8Z" fill="#7835F9"/>
<path d="M200.32 237.378C217.053 237.378 230.618 223.986 230.618 207.467C230.618 190.947 217.053 177.556 200.32 177.556C183.586 177.556 170.021 190.947 170.021 207.467C170.021 223.986 183.586 237.378 200.32 237.378Z" fill="#59AAF6"/>
<path d="M188.298 197.357H213.851C215.814 197.357 215.82 194.338 213.851 194.338H188.298C186.335 194.338 186.329 197.357 188.298 197.357Z" fill="#41275B"/>
<path d="M188.555 205.923H211.693C213.662 205.923 213.662 202.904 211.693 202.904H188.555C186.586 202.904 186.58 205.923 188.555 205.923Z" fill="#41275B"/>
<path d="M200.526 197.054C200.673 201.34 202.092 206.386 199.75 210.334C199.348 211.067 198.779 211.698 198.088 212.178C197.398 212.658 196.604 212.973 195.769 213.099C193.733 213.286 191.844 211.892 189.881 211.542C189.555 211.464 189.213 211.489 188.903 211.614C188.592 211.738 188.329 211.956 188.15 212.236C187.989 212.524 187.926 212.855 187.97 213.181C188.014 213.507 188.163 213.811 188.395 214.047C193.614 218.9 199.233 223.318 205.192 227.255C206.831 228.341 208.365 225.727 206.733 224.647C200.991 220.852 195.579 216.592 190.553 211.91L189.068 214.433C191.483 214.85 193.556 216.353 196.106 216.069C197.292 215.909 198.431 215.504 199.447 214.879C200.464 214.255 201.336 213.426 202.006 212.447C205.247 207.956 203.755 202.125 203.584 197.06C203.523 195.122 200.465 195.11 200.526 197.06V197.054Z" fill="#41275B"/>
<path d="M79.4207 208.765C80.1357 206.496 81.5737 204.516 83.5205 203.12C85.4673 201.723 87.8189 200.985 90.2252 201.014C92.6195 201.153 94.9045 202.051 96.7416 203.573C98.5787 205.095 99.8701 207.161 100.424 209.465C100.681 210.672 100.681 212.018 99.8925 213.015C99.2976 213.711 98.4841 214.191 97.5812 214.379C95.4043 214.892 93.3621 213.57 92.2736 211.686C89.5526 206.96 93.1236 201.092 96.9269 198.11C99.0221 196.464 101.481 195.328 104.104 194.795C106.727 194.262 109.44 194.347 112.024 195.044C113.92 195.581 114.727 192.671 112.837 192.134C109.919 191.346 106.857 191.221 103.882 191.767C100.908 192.314 98.0969 193.519 95.6612 195.291C90.4637 199.106 86.2996 206.29 89.3325 212.646C90.6533 215.429 93.5088 217.59 96.7007 217.524C99.758 217.457 102.815 215.508 103.427 212.435C104.142 209.121 102.601 205.614 100.498 203.084C98.5463 200.747 95.8864 199.091 92.9096 198.358C85.8716 196.692 78.4912 201.201 76.4673 207.968C75.9108 209.833 78.8459 210.63 79.4207 208.765Z" fill="#41275B"/>
<path d="M213.979 276.073C206.348 276.073 199.353 275.596 194.938 275.21L194.412 275.167C194.173 275.153 193.948 275.049 193.784 274.876C193.62 274.703 193.53 274.475 193.532 274.238C193.537 274.002 193.635 273.778 193.805 273.613C193.975 273.449 194.204 273.356 194.443 273.356C194.48 273.356 194.694 273.356 195.054 273.405C228.618 276.332 241.88 271.063 245.146 269.378C245.361 269.267 245.613 269.245 245.845 269.317C246.077 269.389 246.271 269.549 246.384 269.762C246.496 269.975 246.519 270.223 246.446 270.452C246.373 270.682 246.211 270.873 245.995 270.984C238.236 275.01 225.383 276.073 213.979 276.073Z" fill="#41275B"/>
<path d="M153.494 264.802C153.4 264.803 153.307 264.788 153.219 264.76C136.257 259.466 124.333 244.024 123.868 243.366C123.785 243.273 123.723 243.163 123.685 243.044C123.646 242.926 123.633 242.801 123.646 242.677C123.66 242.553 123.698 242.433 123.76 242.325C123.822 242.216 123.906 242.122 124.007 242.047C124.108 241.972 124.223 241.918 124.346 241.89C124.468 241.861 124.596 241.857 124.72 241.879C124.844 241.901 124.962 241.948 125.067 242.017C125.172 242.085 125.261 242.175 125.33 242.28C125.452 242.431 137.412 257.914 153.8 263.033C154.008 263.098 154.186 263.235 154.302 263.419C154.417 263.602 154.462 263.82 154.429 264.034C154.396 264.247 154.287 264.442 154.121 264.583C153.955 264.724 153.743 264.802 153.524 264.802H153.494Z" fill="#41275B"/>
<path d="M87.0146 300.686C85.6821 300.763 84.3483 300.56 83.0949 300.09C81.8415 299.619 80.6948 298.891 79.725 297.949C78.7552 297.008 77.9826 295.873 77.4546 294.614C76.9266 293.356 76.6543 291.999 76.6543 290.629C76.6543 289.258 76.9266 287.902 77.4546 286.644C77.9826 285.385 78.7552 284.25 79.725 283.309C80.6948 282.367 81.8415 281.639 83.0949 281.168C84.3483 280.698 85.6821 280.495 87.0146 280.572H129.452C130.785 280.495 132.119 280.698 133.372 281.168C134.626 281.639 135.772 282.367 136.742 283.309C137.712 284.25 138.484 285.385 139.012 286.644C139.54 287.902 139.813 289.258 139.813 290.629C139.813 291.999 139.54 293.356 139.012 294.614C138.484 295.873 137.712 297.008 136.742 297.949C135.772 298.891 134.626 299.619 133.372 300.09C132.119 300.56 130.785 300.763 129.452 300.686H87.0146Z" fill="#FE794D"/>
<path d="M86.2195 289.474H128.657C130.37 289.478 132.051 289.945 133.532 290.828C135.013 291.711 136.241 292.98 137.093 294.505C137.976 292.982 138.446 291.245 138.456 289.474C138.456 286.802 137.423 284.24 135.583 282.351C133.744 280.462 131.249 279.4 128.647 279.4H86.2092C83.6076 279.4 81.1126 280.462 79.273 282.351C77.4334 284.24 76.3999 286.802 76.3999 289.474C76.4084 291.245 76.8771 292.982 77.7577 294.505C78.6129 292.976 79.8454 291.706 81.331 290.823C82.8166 289.94 84.5028 289.474 86.2195 289.474Z" fill="#FFBD00"/>
<path d="M90.6147 282.286C89.2822 282.363 87.9484 282.16 86.695 281.689C85.4416 281.219 84.2949 280.49 83.3251 279.549C82.3553 278.607 81.5827 277.472 81.0547 276.214C80.5267 274.955 80.2544 273.599 80.2544 272.229C80.2544 270.858 80.5267 269.502 81.0547 268.243C81.5827 266.985 82.3553 265.85 83.3251 264.908C84.2949 263.967 85.4416 263.239 86.695 262.768C87.9484 262.297 89.2822 262.094 90.6147 262.171H133.053C134.385 262.094 135.719 262.297 136.972 262.768C138.226 263.239 139.372 263.967 140.342 264.908C141.312 265.85 142.085 266.985 142.613 268.243C143.141 269.502 143.413 270.858 143.413 272.229C143.413 273.599 143.141 274.955 142.613 276.214C142.085 277.472 141.312 278.607 140.342 279.549C139.372 280.49 138.226 281.219 136.972 281.689C135.719 282.16 134.385 282.363 133.053 282.286H90.6147Z" fill="#FE794D"/>
<path d="M89.8196 271.073H132.258C133.97 271.077 135.651 271.545 137.132 272.428C138.613 273.311 139.841 274.579 140.693 276.105C141.576 274.582 142.046 272.845 142.056 271.073C142.056 268.402 141.023 265.839 139.183 263.95C137.344 262.061 134.849 261 132.247 261H89.8093C87.2077 261 84.7127 262.061 82.8731 263.95C81.0335 265.839 80 268.402 80 271.073C80.0085 272.845 80.4772 274.581 81.3578 276.105C82.213 274.576 83.4455 273.306 84.9311 272.423C86.4167 271.539 88.1029 271.074 89.8196 271.073Z" fill="#FFBD00"/>
<path d="M87.6147 267.286C86.2822 267.363 84.9484 267.16 83.695 266.689C82.4416 266.219 81.2949 265.49 80.3251 264.549C79.3553 263.607 78.5827 262.472 78.0547 261.214C77.5267 259.955 77.2544 258.599 77.2544 257.229C77.2544 255.858 77.5267 254.502 78.0547 253.243C78.5827 251.985 79.3553 250.85 80.3251 249.908C81.2949 248.967 82.4416 248.239 83.695 247.768C84.9484 247.297 86.2822 247.094 87.6147 247.171H130.053C131.385 247.094 132.719 247.297 133.972 247.768C135.226 248.239 136.372 248.967 137.342 249.908C138.312 250.85 139.085 251.985 139.613 253.243C140.141 254.502 140.413 255.858 140.413 257.229C140.413 258.599 140.141 259.955 139.613 261.214C139.085 262.472 138.312 263.607 137.342 264.549C136.372 265.49 135.226 266.219 133.972 266.689C132.719 267.16 131.385 267.363 130.053 267.286H87.6147Z" fill="#FE794D"/>
<path d="M86.8196 256.073H129.258C130.97 256.077 132.651 256.545 134.132 257.428C135.613 258.311 136.841 259.579 137.693 261.105C138.576 259.582 139.046 257.845 139.056 256.073C139.056 253.402 138.023 250.839 136.183 248.95C134.344 247.061 131.849 246 129.247 246H86.8093C84.2077 246 81.7127 247.061 79.8731 248.95C78.0335 250.839 77 253.402 77 256.073C77.0085 257.845 77.4772 259.581 78.3578 261.105C79.213 259.576 80.4455 258.306 81.9311 257.423C83.4167 256.539 85.1029 256.074 86.8196 256.073Z" fill="#FFBD00"/>
<path d="M227.596 140C239.969 127.85 239.969 108.15 227.596 96C215.222 83.8497 195.161 83.8497 182.788 96C170.414 108.15 170.414 127.85 182.788 140C195.161 152.15 215.222 152.15 227.596 140Z" fill="#FFBD00" stroke="#FFBD00" stroke-width="1.87924" stroke-linejoin="round"/>
<path d="M213.684 146.707C229.827 140.076 237.439 121.85 230.687 105.998C223.934 90.1456 205.373 82.6705 189.23 89.3015C173.087 95.9326 165.474 114.159 172.227 130.011C178.98 145.863 197.541 153.338 213.684 146.707Z" fill="#FFD766" stroke="#FFBD00" stroke-width="1.87924" stroke-linejoin="round"/>
<path d="M211.267 141.079C224.246 135.758 230.375 121.114 224.956 108.369C219.538 95.6246 204.624 89.6065 191.646 94.9271C178.667 100.248 172.538 114.892 177.957 127.637C183.375 140.381 198.289 146.4 211.267 141.079Z" fill="#FFF5D9" stroke="#FFBD00" stroke-width="1.87924" stroke-linejoin="round"/>
<path d="M208.987 129.164C208.578 129.396 208.072 129.394 207.661 129.159L198.926 124.167C198.49 123.918 198.127 123.56 197.874 123.13C197.715 122.86 197.808 122.515 198.08 122.361L198.17 122.31C199.107 121.779 199.843 121.246 200.377 120.711C200.929 120.167 201.274 119.59 201.41 118.98C201.547 118.37 201.446 117.698 201.108 116.963L196.804 119.403C196.34 119.667 195.744 119.507 195.473 119.047C195.203 118.587 195.36 118 195.824 117.737L200.102 115.311C199.6 114.739 199.047 114.359 198.441 114.17C197.824 113.964 197.142 113.946 196.393 114.115C195.662 114.275 194.846 114.611 193.944 115.122C193.622 115.305 193.208 115.194 193.02 114.875L192.87 114.62C192.6 114.159 192.757 113.573 193.221 113.309L202.519 108.038C202.984 107.775 203.579 107.934 203.85 108.395C204.121 108.855 203.964 109.442 203.499 109.705L199.328 112.07C199.928 112.169 200.494 112.369 201.024 112.67C201.555 112.971 202.034 113.406 202.462 113.973L205.122 112.465C205.587 112.202 206.182 112.362 206.453 112.822C206.724 113.282 206.567 113.869 206.102 114.132L203.495 115.61C204.117 116.948 204.204 118.218 203.756 119.421C203.315 120.596 202.444 121.681 201.142 122.674L208.948 126.882C209.86 127.374 209.882 128.657 208.987 129.164Z" fill="#FFBD00"/>
<path d="M184.06 74.5C191.759 67.0442 191.759 54.9558 184.06 47.5C176.361 40.0442 163.878 40.0442 156.179 47.5C148.48 54.9559 148.48 67.0442 156.179 74.5C163.878 81.9558 176.361 81.9559 184.06 74.5Z" fill="#FFBD00" stroke="#FFBD00" stroke-width="1.87924" stroke-linejoin="round"/>
<path d="M175.403 78.6156C185.448 74.5466 190.185 63.3623 185.983 53.635C181.781 43.9076 170.232 39.3206 160.187 43.3897C150.143 47.4587 145.406 58.6429 149.608 68.3703C153.81 78.0977 165.359 82.6847 175.403 78.6156Z" fill="#FFD766" stroke="#FFBD00" stroke-width="1.87924" stroke-linejoin="round"/>
<path d="M173.899 75.1621C181.975 71.8971 185.788 62.9106 182.417 55.0902C179.045 47.2697 169.766 43.5767 161.69 46.8417C153.615 50.1067 149.801 59.0931 153.173 66.9136C156.544 74.7341 165.824 78.427 173.899 75.1621Z" fill="#FFF5D9" stroke="#FFBD00" stroke-width="1.87924" stroke-linejoin="round"/>
<path d="M172.479 67.8518C172.225 67.9934 171.912 67.9918 171.656 67.8476L166.221 64.7843C165.949 64.6313 165.723 64.4113 165.566 64.1469C165.467 63.9815 165.523 63.7714 165.691 63.6775L165.75 63.6445C166.333 63.3185 166.791 62.9915 167.124 62.6636C167.467 62.3294 167.681 61.9753 167.766 61.6011C167.851 61.2269 167.789 60.8144 167.579 60.3636L164.897 61.863C164.61 62.0235 164.241 61.9246 164.072 61.6422C163.904 61.3597 164 61.0007 164.287 60.8402L166.952 59.3501C166.64 58.9989 166.296 58.7654 165.919 58.6496C165.535 58.5231 165.111 58.5119 164.645 58.6162C164.19 58.7143 163.682 58.9201 163.121 59.2338C162.92 59.346 162.662 59.2769 162.545 59.0796L162.453 58.9254C162.284 58.643 162.381 58.284 162.668 58.1235L168.46 54.8848C168.747 54.7244 169.116 54.8232 169.285 55.1057C169.453 55.3881 169.357 55.7471 169.07 55.9076L166.471 57.3609C166.844 57.4218 167.196 57.5447 167.526 57.7294C167.857 57.9141 168.155 58.1806 168.421 58.5289L170.08 57.6016C170.367 57.4411 170.736 57.54 170.904 57.8224C171.073 58.1048 170.977 58.4639 170.69 58.6243L169.064 59.5332C169.451 60.354 169.505 61.1335 169.226 61.8717C168.952 62.5931 168.41 63.2585 167.6 63.8677L172.448 66.4457C173.018 66.7488 173.035 67.5405 172.479 67.8518Z" fill="#FFBD00"/>
</g>
<defs>
<clipPath id="clip0_1444_37504">
<rect width="235.2" height="285.6" fill="white" transform="translate(76.3999 16.2002)"/>
</clipPath>
</defs>
</svg>
