<svg width="141" height="120" viewBox="0 0 141 120" fill="none" xmlns="http://www.w3.org/2000/svg">
<path d="M102.506 20.6843C99.5458 28.4197 90.8761 32.2909 83.1413 29.3315C75.406 26.3715 71.5347 17.7018 74.4941 9.9664C77.4542 2.23166 86.1239 -1.63957 93.8587 1.31983C101.594 4.27988 105.465 12.9496 102.506 20.6843Z" fill="#FFBD00"/>
<path d="M99.7043 19.2871C97.3368 25.4754 90.401 28.5722 84.2128 26.2046C78.0246 23.8371 74.9278 16.9012 77.2954 10.7129C79.6637 4.52461 86.5995 1.42779 92.7869 3.79536C98.9751 6.16293 102.073 13.0988 99.7043 19.2871Z" fill="#FFD766"/>
<path fill-rule="evenodd" clip-rule="evenodd" d="M83.5 8.74829C83.5 8.33502 83.8413 8 84.2624 8H92.7376C93.1586 8 93.4999 8.33502 93.4999 8.74829C93.4999 9.16156 93.1586 9.49658 92.7376 9.49658H89.7363C90.2061 10.0754 90.4946 10.7643 90.6127 11.4729H92.7376C93.1587 11.4729 93.5 11.8079 93.5 12.2212C93.5 12.6345 93.1587 12.9695 92.7376 12.9695H90.6128C90.4837 13.7446 90.1507 14.496 89.5996 15.1058C88.8634 15.9202 87.7771 16.4372 86.4032 16.4428C86.3968 16.4429 86.3903 16.443 86.3838 16.443H86.182L90.7887 20.7073C91.0951 20.9908 91.1092 21.4644 90.8203 21.7651C90.5315 22.0658 90.049 22.0796 89.7427 21.7961L83.7394 16.2391C83.5121 16.0287 83.4386 15.7035 83.5539 15.4185C83.6692 15.1335 83.95 14.9464 84.2624 14.9464H86.3632C86.369 14.9463 86.3748 14.9462 86.3807 14.9462C87.3505 14.9462 88.022 14.5961 88.459 14.1126C88.7469 13.7941 88.9494 13.3988 89.0578 12.9695H84.2624C83.8414 12.9695 83.5001 12.6345 83.5001 12.2212C83.5001 11.8079 83.8414 11.4729 84.2624 11.4729H89.0577C88.9492 11.0437 88.7468 10.6486 88.459 10.3302C88.022 9.84675 87.3505 9.49658 86.3807 9.49658H84.2624C83.8413 9.49658 83.5 9.16156 83.5 8.74829Z" fill="#FFF5D9"/>
<path d="M101.945 113.029C101.945 113.582 101.497 114.029 100.945 114.029H77.5615C77.0092 114.029 76.5615 113.582 76.5615 113.029V109.184C76.5615 108.632 77.0092 108.184 77.5615 108.184H100.945C101.497 108.184 101.945 108.632 101.945 109.184V113.029Z" fill="#FFD766"/>
<path d="M101.966 107.382C101.966 107.934 101.518 108.382 100.966 108.382H77.583C77.0307 108.382 76.583 107.934 76.583 107.382V103.537C76.583 102.984 77.0307 102.537 77.583 102.537H100.966C101.518 102.537 101.966 102.984 101.966 103.537V107.382Z" fill="#FFBD00"/>
<path d="M100.252 101.654C100.252 102.206 99.8044 102.654 99.2521 102.654H75.8691C75.3169 102.654 74.8691 102.206 74.8691 101.654V97.8088C74.8691 97.2566 75.3169 96.8088 75.8691 96.8088H99.2521C99.8044 96.8088 100.252 97.2566 100.252 97.8088V101.654Z" fill="#FFD766"/>
<path d="M101.438 96.2493C101.438 96.8016 100.99 97.2493 100.438 97.2493H77.0547C76.5024 97.2493 76.0547 96.8016 76.0547 96.2493V92.4042C76.0547 91.8519 76.5024 91.4042 77.0547 91.4042H100.438C100.99 91.4042 101.438 91.8519 101.438 92.4042V96.2493Z" fill="#FFBD00"/>
<path d="M101.417 90.5226C101.417 91.0749 100.969 91.5226 100.417 91.5226H77.0342C76.4819 91.5226 76.0342 91.0749 76.0342 90.5226V86.6776C76.0342 86.1253 76.4819 85.6776 77.0342 85.6776H100.417C100.969 85.6776 101.417 86.1253 101.417 86.6776V90.5226Z" fill="#FFD766"/>
<path d="M99.7453 84.8743C99.7453 85.4266 99.2976 85.8743 98.7453 85.8743H75.3623C74.81 85.8743 74.3623 85.4266 74.3623 84.8743V81.0293C74.3623 80.477 74.81 80.0293 75.3623 80.0293H98.7453C99.2976 80.0293 99.7453 80.477 99.7453 81.0293V84.8743Z" fill="#FFBD00"/>
<path fill-rule="evenodd" clip-rule="evenodd" d="M43.9537 117.686C43.9537 118.314 37.1367 118.822 28.7266 118.822C20.3171 118.822 13.5 118.314 13.5 117.686C13.5 117.058 20.3171 116.55 28.7266 116.55C37.1367 116.55 43.9537 117.058 43.9537 117.686Z" fill="#ECECF1"/>
<path fill-rule="evenodd" clip-rule="evenodd" d="M27.6706 71.3762C27.6706 71.3762 37.2221 72.4063 40.329 68.2041L27.5246 67.1024C27.5246 67.1024 27.4775 70.3036 27.6706 71.3762Z" fill="#132056"/>
<path d="M39.7621 52.6083H37.2061V45.779H39.7621V52.6083Z" fill="#FFD766"/>
<path d="M44.4572 64.4342L46.5298 64.1708C46.9441 64.1181 47.364 64.2156 47.7124 64.4468L49.1227 65.3817C49.6139 65.7073 49.6289 66.4252 49.1517 66.7712L46.5282 66.9552C45.949 66.9953 45.3377 66.8058 44.8158 66.4229L43.9463 65.7859L44.4572 64.4342Z" fill="#FFA283"/>
<path fill-rule="evenodd" clip-rule="evenodd" d="M17.4983 42.6425C17.536 42.2627 17.3751 41.8963 17.1185 41.6156C15.0318 39.3344 18.6151 37.1531 19.6282 36.2174C20.6845 35.2407 19.1079 33.3866 21.4748 32.2865C23.8409 31.1856 24.7834 32.3871 24.8964 32.3352C25.062 32.2598 24.8627 34.754 24.8627 34.754C24.8627 34.754 23.6808 35.2879 23.979 37.7476C24.2772 40.2072 25.0714 41.4135 23.7718 43.5193C22.473 45.6243 16.1729 43.8047 16.1729 43.8047C17.1719 43.6813 17.4505 43.1214 17.4983 42.6425Z" fill="#132056"/>
<path fill-rule="evenodd" clip-rule="evenodd" d="M30.5978 115.71C30.5978 115.71 28.1069 99.0213 31.3237 92.4177L29.5674 69.7775L40.0983 70.5048L33.0023 115.842L30.5978 115.71Z" fill="#FE794D"/>
<path fill-rule="evenodd" clip-rule="evenodd" d="M33.0801 115.054L35.1707 116.58C35.5811 116.956 37.824 117.689 37.824 117.689C38.0469 118.157 37.6106 118.404 37.2402 118.465L30.6229 118.327C30.6229 118.327 29.095 118.008 30.4503 115.057C31.6541 115.59 32.7662 115.972 33.0801 115.054Z" fill="#132056"/>
<path fill-rule="evenodd" clip-rule="evenodd" d="M40.8326 74.0424L38.3967 93.2156L35.1917 112.437H27.4844C27.4844 112.437 28.204 109.095 28.1193 108.034C28.0345 106.974 27.7543 96.9161 30.1032 92.2885L29.9164 73.4432L40.8326 74.0424Z" fill="#132056"/>
<path fill-rule="evenodd" clip-rule="evenodd" d="M30.0477 92.2885L29.8617 73.4432L33.5195 73.6437L33.6561 87.4439C33.682 90.016 33.3296 92.5991 32.6971 95.1398C31.4469 100.161 31.6502 107.16 31.72 108.034C31.8056 109.095 31.0859 112.437 31.0859 112.437H27.4297C27.4297 112.437 28.1493 109.095 28.0646 108.034C27.979 106.974 27.6989 96.9161 30.0477 92.2885Z" fill="#132056"/>
<path fill-rule="evenodd" clip-rule="evenodd" d="M20.255 115.677C20.255 115.677 18.4901 98.7869 21.9941 92.1038L21.2227 69.1923L31.7222 69.9283L22.6533 115.809L20.255 115.677Z" fill="#FE794D"/>
<path fill-rule="evenodd" clip-rule="evenodd" d="M22.7645 115.013L24.7885 116.557C25.1832 116.938 27.3939 117.68 27.3939 117.68C27.5972 118.154 27.1491 118.403 26.7763 118.465L20.1654 118.325C20.1654 118.325 18.6515 118.003 20.1348 115.016C21.3159 115.556 22.4106 115.942 22.7645 115.013Z" fill="#132056"/>
<path fill-rule="evenodd" clip-rule="evenodd" d="M32.2995 73.5098L29.0293 92.9134L24.9877 112.365H17.2812C17.2812 112.365 18.1461 108.983 18.1068 107.91C18.0684 106.836 18.2253 96.6579 20.7758 91.9745L21.0984 71.0682L32.2995 73.5098Z" fill="#132056"/>
<path fill-rule="evenodd" clip-rule="evenodd" d="M25.0317 58.5575L39.4252 59.656C41.767 60.5178 40.8315 74.0428 40.8315 74.0428L31.3671 74.4823C26.97 74.3903 21.7693 77.8455 21.2216 70.5043C20.5961 62.1125 25.0317 58.5575 25.0317 58.5575Z" fill="#132056"/>
<path fill-rule="evenodd" clip-rule="evenodd" d="M33.7789 40.4753L30.4695 39.7652L26.1305 39.9831L20.8866 42.5449C19.1523 43.6773 18.5512 45.9238 19.485 47.7827L21.5663 53.8973C20.7038 58.7985 20.3616 62.2041 21.1849 67.0448C29.2837 69.0099 39.9292 67.6015 41.9555 63.7454C40.3891 54.0451 38.2985 46.2997 33.7789 40.4753Z" fill="#FE794D"/>
<path fill-rule="evenodd" clip-rule="evenodd" d="M28.4313 36.7615C28.4313 36.7615 28.4329 38.8649 28.4337 40.6066C28.4345 41.0706 28.1873 41.4983 27.7878 41.7248C27.3884 41.9513 26.8987 41.9411 26.5071 41.6996C26.3784 41.6202 26.2536 41.5432 26.1351 41.47C25.5975 41.1382 25.2962 40.5233 25.3613 39.8903C25.5277 38.2689 25.8314 35.3154 25.8314 35.3154L28.4313 36.7615Z" fill="#FFA283"/>
<path opacity="0.3" fill-rule="evenodd" clip-rule="evenodd" d="M28.5282 37.9069L28.4333 39.169L27.2451 38.0791L28.5282 37.9069Z" fill="#132056"/>
<path d="M30.4701 39.7658C30.4701 39.7658 32.695 43.8281 29.7944 44.3628C26.8939 44.8975 24.7695 40.6528 24.7695 40.6528L26.7919 39.4489L30.4701 39.7658Z" fill="#FFA283"/>
<path fill-rule="evenodd" clip-rule="evenodd" d="M24.7625 34.9829C24.5263 34.4144 24.7892 33.7609 25.3495 33.5242C25.9483 33.271 26.7033 32.9526 27.302 32.6994C27.8632 32.4627 28.4258 32.7748 28.746 33.3001C29.1243 33.9205 29.5959 35.3391 29.8149 36.4101C29.9381 37.0148 29.7168 37.713 29.1557 37.9497C28.5569 38.2029 26.522 38.3822 25.8973 37.3694C25.4217 36.5988 25.111 35.8203 24.7625 34.9829Z" fill="#FFA283"/>
<path fill-rule="evenodd" clip-rule="evenodd" d="M23.2177 37.898C23.2177 37.898 23.0121 34.7409 23.6917 33.6612C24.606 32.2112 26.0594 31.1843 28.1728 32.2411C28.1728 32.2411 27.6336 34.8494 23.9789 37.7478L23.2177 37.898Z" fill="#132056"/>
<path fill-rule="evenodd" clip-rule="evenodd" d="M29.4075 36.0799L28.4258 36.4715C28.4258 36.4715 28.7114 37.1438 29.1619 36.8993C29.6116 36.654 29.4075 36.0799 29.4075 36.0799Z" fill="white"/>
<path d="M24.8417 32.3278C24.8283 32.3278 24.4689 32.3318 24.0859 32.5936C23.8952 32.7242 23.6998 32.92 23.5452 33.207C23.3906 33.4932 23.2768 33.8699 23.2415 34.3613C23.2368 34.4281 23.287 34.4863 23.3537 34.4911C23.4212 34.4966 23.4793 34.4454 23.484 34.3786C23.5178 33.9155 23.6237 33.575 23.7595 33.3225C23.9635 32.9443 24.235 32.7611 24.4579 32.666C24.5694 32.6188 24.6682 32.5952 24.7389 32.5834C24.7734 32.5771 24.8009 32.574 24.8197 32.5732C24.8283 32.5724 24.8354 32.5716 24.8393 32.5716H24.844C24.9107 32.5708 24.9649 32.5158 24.9641 32.4481C24.9641 32.3813 24.9092 32.327 24.8417 32.3278Z" fill="#888FAF"/>
<path d="M55.2826 64.8989C55.2826 65.4511 54.8349 65.8989 54.2826 65.8989H31.0254C30.4731 65.8989 30.0254 65.4511 30.0254 64.8989V60.0695C30.0254 59.5173 30.4731 59.0695 31.0254 59.0695H54.2826C54.8349 59.0695 55.2826 59.5173 55.2826 60.0695V64.8989Z" fill="#FFD766"/>
<path d="M55.2826 58.2536C55.2826 58.8059 54.8349 59.2536 54.2826 59.2536H31.0254C30.4731 59.2536 30.0254 58.8059 30.0254 58.2536V53.4243C30.0254 52.872 30.4731 52.4243 31.0254 52.4243H54.2826C54.8349 52.4243 55.2826 52.872 55.2826 53.4243V58.2536Z" fill="#FFBD00"/>
<path d="M53.5788 51.6083C53.5788 52.1606 53.1311 52.6083 52.5788 52.6083H29.0273C28.4751 52.6083 28.0273 52.1606 28.0273 51.6083V46.779C28.0273 46.2267 28.4751 45.779 29.0273 45.779H52.5788C53.1311 45.779 53.5788 46.2267 53.5788 46.779V51.6083Z" fill="#FFD766"/>
<path d="M44.7262 52.6083H40.0693V45.779H44.7262V52.6083Z" fill="#FFD766"/>
<path d="M57.4997 44.981C57.4997 45.5333 57.052 45.981 56.4997 45.981H32.9482C32.396 45.981 31.9482 45.5333 31.9482 44.981V40.1517C31.9482 39.5994 32.396 39.1517 32.9482 39.1517H56.4997C57.052 39.1517 57.4997 39.5994 57.4997 40.1517V44.981Z" fill="#FFBD00"/>
<path fill-rule="evenodd" clip-rule="evenodd" d="M26.2549 55.2494C25.0503 56.8803 24.9875 58.9161 26.7007 60.5241L36.4939 66.5089L37.7284 64.6705L30.3444 58.5214L26.2549 55.2494Z" fill="#FFA283"/>
<path d="M36.2718 64.7072L38.3452 64.4438C38.7596 64.3911 39.1786 64.4886 39.5271 64.7198L40.9373 65.6547C41.4294 65.9803 41.4443 66.6982 40.9664 67.0442L38.3428 67.2282C37.7645 67.2683 37.1523 67.0788 36.6305 66.6958L35.7617 66.0589L36.2718 64.7072Z" fill="#FFA283"/>
<path fill-rule="evenodd" clip-rule="evenodd" d="M20.5709 44.4199C20.5709 44.4199 18.7235 46.2914 19.36 48.6905C19.9972 51.0896 24.9648 60.3039 24.9648 60.3039L29.7818 57.6241C29.7818 57.6241 27.2069 50.9984 26.0023 47.9765C25.6578 47.1131 25.4255 46.543 25.3973 46.5069C25.2701 46.3425 20.5709 44.4199 20.5709 44.4199Z" fill="#FE794D"/>
<path d="M118.185 36.4661H117.972C117.972 36.8011 117.837 37.1023 117.618 37.3221C117.399 37.542 117.098 37.6766 116.764 37.6773C116.429 37.6766 116.129 37.542 115.909 37.3221C115.69 37.1023 115.555 36.8011 115.555 36.4661C115.555 36.1311 115.69 35.8299 115.909 35.6101C116.129 35.3902 116.429 35.2556 116.764 35.2556C117.098 35.2556 117.399 35.3902 117.618 35.6101C117.837 35.8299 117.972 36.1311 117.972 36.4661H118.185H118.398C118.398 36.0147 118.215 35.6036 117.92 35.3083C117.624 35.0123 117.214 34.8282 116.764 34.8282C116.313 34.8282 115.903 35.0123 115.608 35.3083C115.313 35.6036 115.129 36.0147 115.129 36.4661C115.129 36.9175 115.313 37.3286 115.608 37.624C115.903 37.9206 116.313 38.104 116.764 38.104C117.214 38.104 117.624 37.9206 117.92 37.624C118.215 37.3286 118.398 36.9175 118.398 36.4661H118.185Z" fill="#33CF90"/>
<path fill-rule="evenodd" clip-rule="evenodd" d="M127.5 115C127.5 115.552 110.263 116 88.9997 116C67.7368 116 50.5 115.552 50.5 115C50.5 114.448 67.7368 114 88.9997 114C110.263 114 127.5 114.448 127.5 115Z" fill="#ECECF1"/>
<path opacity="0.5" d="M114.882 100.591L114.877 56.9707H114.87C115.012 53.2151 112.493 49.4264 107.301 46.5518C97.2359 40.9779 80.9674 40.9501 70.9648 46.489C66.3536 49.0419 63.8848 52.3335 63.5427 55.6852H63.5394V55.7143C63.4875 56.2386 63.4862 56.7642 63.5394 57.2892V100.657C63.5394 108.176 69.978 114.277 77.935 114.297L100.41 114.353C108.397 114.372 114.881 108.261 114.882 100.714V100.591Z" fill="#9CCCFA"/>
<path d="M105.79 48.0435H70.7288C68.7838 48.0435 67.1934 46.4492 67.1934 44.501V39.1008C67.1934 37.1519 68.7838 35.5583 70.7288 35.5583H105.79C107.734 35.5583 109.325 37.1519 109.325 39.1008V44.501C109.325 46.4492 107.734 48.0435 105.79 48.0435Z" fill="#5AAAF6"/>
<path d="M82.3455 41.584H71.5522C71.0127 41.584 70.5713 41.1417 70.5713 40.6011V39.1018C70.5713 38.5612 71.0127 38.1183 71.5522 38.1183H82.3455C82.885 38.1183 83.3271 38.5612 83.3271 39.1018V40.6011C83.3271 41.1417 82.885 41.584 82.3455 41.584Z" fill="#9CCCFA"/>
<path d="M81.2687 55.5068C79.8548 55.5068 78.7083 54.3594 78.707 52.942C78.7064 51.5246 79.8522 50.3746 81.2668 50.374C81.2674 50.374 81.268 50.374 81.2687 50.374C82.6826 50.374 83.8291 51.5214 83.8304 52.9381C83.8317 54.3561 82.6852 55.5055 81.2706 55.5068C81.27 55.5068 81.2693 55.5068 81.2687 55.5068Z" fill="#E6F2FE"/>
<path d="M75.2876 70.1489C72.1972 70.1489 69.6913 67.6297 69.6885 64.5178C69.6871 61.4059 72.1915 58.8809 75.2834 58.8795C75.2848 58.8795 75.2862 58.8795 75.2876 58.8795C78.3781 58.8795 80.884 61.3987 80.8869 64.5092C80.8897 67.6225 78.3838 70.1461 75.2919 70.1489C75.2905 70.1489 75.2891 70.1489 75.2876 70.1489Z" fill="#E6F2FE"/>
<path d="M81.3312 100.621C84.3024 107.154 81.4134 114.86 74.8795 117.831C68.345 120.802 60.6393 117.913 57.6689 111.38C54.6977 104.845 57.5861 97.14 64.1206 94.1689C70.6544 91.1977 78.3601 94.0861 81.3312 100.621Z" fill="#FFBD00"/>
<path d="M79.5112 101.448C82.025 106.977 79.5804 113.497 74.0522 116.011C68.5231 118.525 62.0033 116.081 59.4888 110.552C56.975 105.023 59.4196 98.5035 64.9478 95.9889C70.4769 93.4751 76.9967 95.9189 79.5112 101.448Z" fill="#FFD766"/>
<path fill-rule="evenodd" clip-rule="evenodd" d="M65.5 100.641C65.5 100.287 65.7731 100 66.1099 100H72.8901C73.2269 100 73.5 100.287 73.5 100.641C73.5 100.996 73.2269 101.283 72.8901 101.283H70.489C70.8649 101.779 71.0957 102.369 71.1902 102.977H72.8901C73.2269 102.977 73.5 103.264 73.5 103.618C73.5 103.972 73.2269 104.26 72.8901 104.26H71.1902C71.0869 104.924 70.8206 105.568 70.3797 106.091C69.7908 106.789 68.9217 107.232 67.8226 107.237C67.8174 107.237 67.8123 107.237 67.8071 107.237H67.6456L71.331 110.892C71.576 111.135 71.5874 111.541 71.3563 111.799C71.1252 112.056 70.7392 112.068 70.4941 111.825L65.6915 107.062C65.5097 106.882 65.4509 106.603 65.5431 106.359C65.6354 106.114 65.86 105.954 66.1099 105.954H67.7906C67.7952 105.954 67.7999 105.954 67.8045 105.954C68.5804 105.954 69.1176 105.654 69.4672 105.239C69.6975 104.966 69.8595 104.628 69.9462 104.26H66.1099C65.7731 104.26 65.5 103.972 65.5 103.618C65.5 103.264 65.7731 102.977 66.1099 102.977H69.9461C69.8594 102.609 69.6975 102.27 69.4672 101.997C69.1176 101.583 68.5804 101.283 67.8045 101.283H66.1099C65.7731 101.283 65.5 100.996 65.5 100.641Z" fill="#FFF5D9"/>
</svg>
