<svg width="32" height="33" viewBox="0 0 32 33" fill="none" xmlns="http://www.w3.org/2000/svg">
<path d="M0 10.5C0 4.97715 4.47715 0.5 10 0.5H22C27.5228 0.5 32 4.97715 32 10.5V22.5C32 28.0228 27.5228 32.5 22 32.5H10C4.47715 32.5 0 28.0228 0 22.5V10.5Z" fill="#E0F8EE"/>
<path fill-rule="evenodd" clip-rule="evenodd" d="M22.75 20.25V21.4064C23.4623 21.5516 24 22.1829 24 22.9375C24 23.7991 23.2991 24.5 22.4375 24.5C21.5759 24.5 20.875 23.7991 20.875 22.9375C20.875 22.1829 21.4127 21.5516 22.125 21.4064V20.25C22.125 19.7331 21.7044 19.3125 21.1875 19.3125H16.3125V21.4064C17.0248 21.5516 17.5625 22.1829 17.5625 22.9375C17.5625 23.7991 16.8616 24.5 16 24.5C15.1384 24.5 14.4375 23.7991 14.4375 22.9375C14.4375 22.1829 14.9752 21.5516 15.6875 21.4064V19.3125H10.8125C10.2956 19.3125 9.875 19.7331 9.875 20.25V21.4064C10.5873 21.5516 11.125 22.1829 11.125 22.9375C11.125 23.7991 10.4241 24.5 9.5625 24.5C8.70094 24.5 8 23.7991 8 22.9375C8 22.1829 8.53766 21.5516 9.25 21.4064V20.25C9.25 19.3884 9.95094 18.6875 10.8125 18.6875H15.6875V17.2387C13.4204 17.0779 11.625 15.1823 11.625 12.875C11.625 10.4626 13.5876 8.5 16 8.5C18.4124 8.5 20.375 10.4626 20.375 12.875C20.375 15.1823 18.5796 17.0779 16.3125 17.2387V18.6875H21.1875C22.0491 18.6875 22.75 19.3884 22.75 20.25ZM9.5625 23.875C10.0794 23.875 10.5 23.4544 10.5 22.9375C10.5 22.4206 10.0794 22 9.5625 22C9.04556 22 8.625 22.4206 8.625 22.9375C8.625 23.4544 9.04556 23.875 9.5625 23.875ZM16.9375 22.9375C16.9375 23.4544 16.5169 23.875 16 23.875C15.4831 23.875 15.0625 23.4544 15.0625 22.9375C15.0625 22.4206 15.4831 22 16 22C16.5169 22 16.9375 22.4206 16.9375 22.9375ZM21.5 22.9375C21.5 23.4544 21.9206 23.875 22.4375 23.875C22.9544 23.875 23.375 23.4544 23.375 22.9375C23.375 22.4206 22.9544 22 22.4375 22C21.9206 22 21.5 22.4206 21.5 22.9375Z" fill="#33CF90"/>
<path d="M22.75 21.4064H22.65V21.4881L22.73 21.5044L22.75 21.4064ZM22.125 21.4064L22.145 21.5044L22.225 21.4881V21.4064H22.125ZM16.3125 19.3125V19.2125H16.2125V19.3125H16.3125ZM16.3125 21.4064H16.2125V21.4881L16.2925 21.5044L16.3125 21.4064ZM15.6875 21.4064L15.7075 21.5044L15.7875 21.4881V21.4064H15.6875ZM15.6875 19.3125H15.7875V19.2125H15.6875V19.3125ZM9.875 21.4064H9.775V21.4881L9.85503 21.5044L9.875 21.4064ZM9.25 21.4064L9.26997 21.5044L9.35 21.4881V21.4064H9.25ZM15.6875 18.6875V18.7875H15.7875V18.6875H15.6875ZM15.6875 17.2387H15.7875V17.1456L15.6946 17.139L15.6875 17.2387ZM16.3125 17.2387L16.3054 17.139L16.2125 17.1456V17.2387H16.3125ZM16.3125 18.6875H16.2125V18.7875H16.3125V18.6875ZM22.85 21.4064V20.25H22.65V21.4064H22.85ZM24.1 22.9375C24.1 22.1344 23.5279 21.4629 22.77 21.3085L22.73 21.5044C23.3968 21.6403 23.9 22.2315 23.9 22.9375H24.1ZM22.4375 24.6C23.3543 24.6 24.1 23.8543 24.1 22.9375H23.9C23.9 23.7438 23.2438 24.4 22.4375 24.4V24.6ZM20.775 22.9375C20.775 23.8543 21.5207 24.6 22.4375 24.6V24.4C21.6312 24.4 20.975 23.7438 20.975 22.9375H20.775ZM22.105 21.3085C21.3471 21.4629 20.775 22.1344 20.775 22.9375H20.975C20.975 22.2315 21.4782 21.6403 22.145 21.5044L22.105 21.3085ZM22.025 20.25V21.4064H22.225V20.25H22.025ZM21.1875 19.4125C21.6492 19.4125 22.025 19.7883 22.025 20.25H22.225C22.225 19.6778 21.7597 19.2125 21.1875 19.2125V19.4125ZM16.3125 19.4125H21.1875V19.2125H16.3125V19.4125ZM16.4125 21.4064V19.3125H16.2125V21.4064H16.4125ZM17.6625 22.9375C17.6625 22.1344 17.0904 21.4629 16.3325 21.3085L16.2925 21.5044C16.9593 21.6403 17.4625 22.2315 17.4625 22.9375H17.6625ZM16 24.6C16.9168 24.6 17.6625 23.8543 17.6625 22.9375H17.4625C17.4625 23.7438 16.8063 24.4 16 24.4V24.6ZM14.3375 22.9375C14.3375 23.8543 15.0832 24.6 16 24.6V24.4C15.1937 24.4 14.5375 23.7438 14.5375 22.9375H14.3375ZM15.6675 21.3085C14.9096 21.4629 14.3375 22.1344 14.3375 22.9375H14.5375C14.5375 22.2315 15.0407 21.6403 15.7075 21.5044L15.6675 21.3085ZM15.5875 19.3125V21.4064H15.7875V19.3125H15.5875ZM10.8125 19.4125H15.6875V19.2125H10.8125V19.4125ZM9.975 20.25C9.975 19.7883 10.3508 19.4125 10.8125 19.4125V19.2125C10.2403 19.2125 9.775 19.6778 9.775 20.25H9.975ZM9.975 21.4064V20.25H9.775V21.4064H9.975ZM11.225 22.9375C11.225 22.1344 10.6529 21.4629 9.89497 21.3085L9.85503 21.5044C10.5218 21.6403 11.025 22.2315 11.025 22.9375H11.225ZM9.5625 24.6C10.4793 24.6 11.225 23.8543 11.225 22.9375H11.025C11.025 23.7438 10.3688 24.4 9.5625 24.4V24.6ZM7.9 22.9375C7.9 23.8543 8.64571 24.6 9.5625 24.6V24.4C8.75617 24.4 8.1 23.7438 8.1 22.9375H7.9ZM9.23003 21.3085C8.47212 21.4629 7.9 22.1344 7.9 22.9375H8.1C8.1 22.2315 8.60319 21.6403 9.26997 21.5044L9.23003 21.3085ZM9.15 20.25V21.4064H9.35V20.25H9.15ZM10.8125 18.5875C9.89571 18.5875 9.15 19.3332 9.15 20.25H9.35C9.35 19.4437 10.0062 18.7875 10.8125 18.7875V18.5875ZM15.6875 18.5875H10.8125V18.7875H15.6875V18.5875ZM15.5875 17.2387V18.6875H15.7875V17.2387H15.5875ZM11.525 12.875C11.525 15.2352 13.3614 17.174 15.6804 17.3385L15.6946 17.139C13.4794 16.9819 11.725 15.1294 11.725 12.875H11.525ZM16 8.4C13.5324 8.4 11.525 10.4074 11.525 12.875H11.725C11.725 10.5179 13.6429 8.6 16 8.6V8.4ZM20.475 12.875C20.475 10.4074 18.4676 8.4 16 8.4V8.6C18.3571 8.6 20.275 10.5179 20.275 12.875H20.475ZM16.3196 17.3385C18.6386 17.174 20.475 15.2352 20.475 12.875H20.275C20.275 15.1294 18.5206 16.9819 16.3054 17.139L16.3196 17.3385ZM16.4125 18.6875V17.2387H16.2125V18.6875H16.4125ZM21.1875 18.5875H16.3125V18.7875H21.1875V18.5875ZM22.85 20.25C22.85 19.3332 22.1043 18.5875 21.1875 18.5875V18.7875C21.9938 18.7875 22.65 19.4437 22.65 20.25H22.85ZM10.4 22.9375C10.4 23.3992 10.0242 23.775 9.5625 23.775V23.975C10.1347 23.975 10.6 23.5097 10.6 22.9375H10.4ZM9.5625 22.1C10.0242 22.1 10.4 22.4758 10.4 22.9375H10.6C10.6 22.3653 10.1347 21.9 9.5625 21.9V22.1ZM8.725 22.9375C8.725 22.4758 9.10079 22.1 9.5625 22.1V21.9C8.99033 21.9 8.525 22.3653 8.525 22.9375H8.725ZM9.5625 23.775C9.10079 23.775 8.725 23.3992 8.725 22.9375H8.525C8.525 23.5097 8.99033 23.975 9.5625 23.975V23.775ZM16 23.975C16.5722 23.975 17.0375 23.5097 17.0375 22.9375H16.8375C16.8375 23.3992 16.4617 23.775 16 23.775V23.975ZM14.9625 22.9375C14.9625 23.5097 15.4278 23.975 16 23.975V23.775C15.5383 23.775 15.1625 23.3992 15.1625 22.9375H14.9625ZM16 21.9C15.4278 21.9 14.9625 22.3653 14.9625 22.9375H15.1625C15.1625 22.4758 15.5383 22.1 16 22.1V21.9ZM17.0375 22.9375C17.0375 22.3653 16.5722 21.9 16 21.9V22.1C16.4617 22.1 16.8375 22.4758 16.8375 22.9375H17.0375ZM22.4375 23.775C21.9758 23.775 21.6 23.3992 21.6 22.9375H21.4C21.4 23.5097 21.8653 23.975 22.4375 23.975V23.775ZM23.275 22.9375C23.275 23.3992 22.8992 23.775 22.4375 23.775V23.975C23.0097 23.975 23.475 23.5097 23.475 22.9375H23.275ZM22.4375 22.1C22.8992 22.1 23.275 22.4758 23.275 22.9375H23.475C23.475 22.3653 23.0097 21.9 22.4375 21.9V22.1ZM21.6 22.9375C21.6 22.4758 21.9758 22.1 22.4375 22.1V21.9C21.8653 21.9 21.4 22.3653 21.4 22.9375H21.6Z" fill="#33CF90"/>
<path d="M15.6876 16.6119C13.8686 16.4611 12.414 15.0065 12.2632 13.1875V12.5625C12.414 10.7435 13.8686 9.289 15.6876 9.13818H16.3126C18.1315 9.289 19.5862 10.7435 19.7369 12.5625V13.1875C19.5862 15.0065 18.1316 16.4611 16.3126 16.6119H15.6876Z" fill="#33CF90" stroke="#33CF90" stroke-width="0.2"/>
</svg>
