<svg width="48" height="48" viewBox="0 0 48 48" fill="none" xmlns="http://www.w3.org/2000/svg">
<rect x="0.5" y="0.5" width="47" height="47" rx="11.5" fill="white"/>
<path d="M32 16H16C14.9 16 14 16.9 14 18V30C14 31.1 14.9 32 16 32H32C33.1 32 34 31.1 34 30V18C34 16.9 33.1 16 32 16ZM31.6 20.25L25.06 24.34C24.41 24.75 23.59 24.75 22.94 24.34L16.4 20.25C16.15 20.09 16 19.82 16 19.53C16 18.86 16.73 18.46 17.3 18.81L24 23L30.7 18.81C31.27 18.46 32 18.86 32 19.53C32 19.82 31.85 20.09 31.6 20.25Z" fill="#5A6389"/>
<rect x="0.5" y="0.5" width="47" height="47" rx="11.5" stroke="#DCDEE6"/>
</svg>
