<svg width="24" height="24" viewBox="0 0 24 24" fill="none" xmlns="http://www.w3.org/2000/svg">
<path d="M16.5817 13.985C16.333 13.8609 15.1097 13.2625 14.882 13.1792C14.6534 13.0967 14.4876 13.0559 14.321 13.3042C14.156 13.5517 13.6788 14.1092 13.5339 14.2742C13.3891 14.44 13.2434 14.46 12.9947 14.3367C12.746 14.2117 11.9439 13.9509 10.9935 13.1075C10.2542 12.4509 9.75431 11.64 9.60946 11.3917C9.46461 11.1442 9.59439 11.01 9.71831 10.8867C9.83051 10.7759 9.96783 10.5975 10.0918 10.4534C10.2165 10.3084 10.2575 10.205 10.3413 10.0392C10.4242 9.8742 10.3831 9.73003 10.3203 9.60587C10.2575 9.4817 9.76018 8.26253 9.55336 7.7667C9.35073 7.2842 9.14559 7.35003 8.9932 7.3417C8.83419 7.3354 8.67507 7.33262 8.51594 7.33337C8.35015 7.33337 8.08053 7.39503 7.85279 7.64337C7.62504 7.89087 6.98199 8.49003 6.98199 9.7092C6.98199 10.9275 7.87372 12.105 7.99764 12.2709C8.1224 12.4359 9.75264 14.9375 12.2487 16.01C12.8423 16.265 13.3053 16.4175 13.6671 16.5309C14.2632 16.72 14.8058 16.6934 15.2337 16.6292C15.7118 16.5584 16.7057 16.03 16.9133 15.4517C17.121 14.8734 17.121 14.3775 17.0582 14.2742C16.9962 14.1709 16.8304 14.1092 16.5809 13.985H16.5817ZM12.0418 20.1542H12.0385C10.5563 20.1543 9.10128 19.7577 7.82599 19.0059L7.52372 18.8275L4.39135 19.6459L5.22699 16.6059L5.03022 16.2942C4.20165 14.9811 3.76332 13.4614 3.76588 11.9109C3.76672 7.3692 7.48018 3.6742 12.0452 3.6742C14.2557 3.6742 16.3339 4.53253 17.8963 6.0892C18.6672 6.85305 19.2782 7.76147 19.694 8.7619C20.1098 9.76233 20.3221 10.8349 20.3186 11.9175C20.3161 16.4592 16.6035 20.1542 12.0418 20.1542ZM19.0861 4.9067C18.1636 3.98247 17.0659 3.24965 15.8567 2.7507C14.6475 2.25175 13.3508 1.9966 12.0418 2.00003C6.55328 2.00003 2.08624 6.44587 2.08373 11.91C2.08373 13.6567 2.54174 15.3617 3.41338 16.8642L2 22L7.27923 20.6217C8.73916 21.4133 10.3751 21.8282 12.0377 21.8284H12.0418C17.5296 21.8284 21.9974 17.3825 22 11.9175C22.004 10.6153 21.7486 9.32512 21.2484 8.12173C20.7483 6.91834 20.0133 5.82559 19.0861 4.9067Z" fill="white"/>
</svg>
