<svg id="Layer_1" data-name="Layer 1" xmlns="http://www.w3.org/2000/svg" xmlns:xlink="http://www.w3.org/1999/xlink" viewBox="0 0 362 193"><defs><style>.cls-1,.cls-14,.cls-15{fill:none;}.cls-2{clip-path:url(#clip-path);}.cls-3{fill:#cf9421;}.cls-14,.cls-3,.cls-6{isolation:isolate;opacity:0.4;}.cls-4{fill:url(#linear-gradient);}.cls-5{clip-path:url(#clip-path-2);}.cls-6{fill:#4f44c1;}.cls-7{fill:#fff;}.cls-8{fill:#9cccfa;}.cls-9{fill:#35cb5d;}.cls-10{fill:#b9b3f9;}.cls-11{fill:#33cf90;}.cls-12{fill:#8d61ff;}.cls-13{fill:#997dff;}.cls-14{stroke:#9d95f8;stroke-width:0.63px;}.cls-14,.cls-15{stroke-linejoin:round;}.cls-15{stroke:#d4c4ff;stroke-width:0.5px;}</style><clipPath id="clip-path"><rect class="cls-1" x="419.4" y="-2.18" width="362" height="193" rx="12"/></clipPath><linearGradient id="linear-gradient" x1="-823.94" y1="-733.15" x2="-822.41" y2="-733.15" gradientTransform="matrix(124.23, 192.32, 388.25, -250.79, 387084.53, -25451.34)" gradientUnits="userSpaceOnUse"><stop offset="0" stop-color="#491dba"/><stop offset="0.33" stop-color="#4a20bd"/><stop offset="0.61" stop-color="#4d2bc8"/><stop offset="0.87" stop-color="#523dd9"/><stop offset="1" stop-color="#5548e4"/></linearGradient><clipPath id="clip-path-2"><rect class="cls-1" width="362" height="193" rx="12"/></clipPath></defs><g class="cls-2"><path class="cls-3" d="M392.19,3.72a2,2,0,0,1,3.47,0L433.37,69a2,2,0,0,1-1.73,3H356.21a2,2,0,0,1-1.73-3Z"/></g><rect class="cls-1" width="362" height="193" rx="12"/><rect class="cls-4" width="362" height="193" rx="12"/><g class="cls-5"><path class="cls-6" d="M-27.21,5.9a2,2,0,0,1,3.47,0L14,71.22a2,2,0,0,1-1.73,3H-63.19a2,2,0,0,1-1.73-3Z"/><path class="cls-6" d="M336.41,78.31a10,10,0,0,1,14.14,10L339.46,208.74A10,10,0,0,1,323.73,216L225,146.17a10,10,0,0,1,1.59-17.24Z"/><path class="cls-6" d="M171.6-55.71a2,2,0,0,1,3.28-1.12L251.22,9.73a2,2,0,0,1-.66,3.4L154.74,46a2,2,0,0,1-2.61-2.28Z"/></g><path class="cls-7" d="M26.25,42.15a7.23,7.23,0,0,1-2.44-5.62c0-.52,0-1.31,0-2.39s0-1.87,0-2.41a7.27,7.27,0,0,1,2.45-5.64,9.36,9.36,0,0,1,6.26-2,9.33,9.33,0,0,1,6.23,2,7.31,7.31,0,0,1,2.45,5.64c0,1.07,0,1.88,0,2.41s0,1.35,0,2.39a7.32,7.32,0,0,1-2.42,5.62,9.44,9.44,0,0,1-6.26,1.92A9.47,9.47,0,0,1,26.25,42.15ZM34.84,39a3.87,3.87,0,0,0,.93-2.68c0-1.07,0-1.84,0-2.3s0-1.21,0-2.25a3.83,3.83,0,0,0-.93-2.67,3.57,3.57,0,0,0-4.67,0,3.83,3.83,0,0,0-.93,2.67q0,.78,0,2.25c0,1,0,1.77,0,2.3A3.87,3.87,0,0,0,30.17,39a3.57,3.57,0,0,0,4.67,0Z"/><path class="cls-7" d="M44.32,48.86a.64.64,0,0,1-.21-.5V30.07a.66.66,0,0,1,.21-.5.73.73,0,0,1,.52-.19h3.33a.68.68,0,0,1,.5.19.69.69,0,0,1,.2.5v1a5.12,5.12,0,0,1,4.34-2,5.54,5.54,0,0,1,4.27,1.68,7.16,7.16,0,0,1,1.66,4.78q0,.36,0,1c0,.45,0,.8,0,1.06a7.11,7.11,0,0,1-1.68,4.71,5.48,5.48,0,0,1-4.25,1.72,4.7,4.7,0,0,1-4.06-1.83v6.12a.67.67,0,0,1-.2.5.69.69,0,0,1-.5.2H44.84A.73.73,0,0,1,44.32,48.86Zm9.07-9.38a3.85,3.85,0,0,0,.63-2c0-.18,0-.47,0-.86s0-.67,0-.86a3.81,3.81,0,0,0-.63-2A2.11,2.11,0,0,0,51.58,33a2.14,2.14,0,0,0-1.79.76,3.37,3.37,0,0,0-.64,1.93q0,.36,0,1c0,.45,0,.79,0,1a2.93,2.93,0,0,0,.66,1.79,2.19,2.19,0,0,0,1.77.7A2.1,2.1,0,0,0,53.39,39.48Z"/><path class="cls-7" d="M63.32,42.25a7,7,0,0,1-2-5.28v-.86A7.09,7.09,0,0,1,63.37,31a7.38,7.38,0,0,1,5.3-1.86,8.14,8.14,0,0,1,4.07.95,6.1,6.1,0,0,1,2.49,2.64,8.53,8.53,0,0,1,.83,3.81v.69a.7.7,0,0,1-.21.52.75.75,0,0,1-.52.2H66.45v.17a3.5,3.5,0,0,0,.59,2,1.86,1.86,0,0,0,1.6.76,2,2,0,0,0,1.07-.26,3.48,3.48,0,0,0,.77-.68,1.54,1.54,0,0,1,.41-.35,1.41,1.41,0,0,1,.49-.07h3.67a.6.6,0,0,1,.43.16.47.47,0,0,1,.19.37,2.83,2.83,0,0,1-.83,1.69,6.45,6.45,0,0,1-2.41,1.66,9.11,9.11,0,0,1-3.74.7A7.59,7.59,0,0,1,63.32,42.25Zm7.58-7.16V35A3.22,3.22,0,0,0,70.32,33a2,2,0,0,0-1.65-.74A2,2,0,0,0,67,33,3.22,3.22,0,0,0,66.45,35v.06Z"/><path class="cls-7" d="M78.79,43.58a.66.66,0,0,1-.21-.48v-13a.66.66,0,0,1,.21-.5.69.69,0,0,1,.49-.19h3.44a.66.66,0,0,1,.5.19.69.69,0,0,1,.2.5v1.05a5.41,5.41,0,0,1,2-1.47,6.37,6.37,0,0,1,2.73-.55,5.58,5.58,0,0,1,2.84.72,5,5,0,0,1,2,2.13,7.6,7.6,0,0,1,.71,3.41V43.1a.68.68,0,0,1-.19.48.66.66,0,0,1-.51.21H89.19a.73.73,0,0,1-.52-.19.66.66,0,0,1-.21-.5V35.53a2.75,2.75,0,0,0-.6-1.91A2.23,2.23,0,0,0,86.11,33a2.34,2.34,0,0,0-1.77.68,2.69,2.69,0,0,0-.64,1.9V43.1a.69.69,0,0,1-.2.48.64.64,0,0,1-.5.21H79.28A.67.67,0,0,1,78.79,43.58Z"/><path class="cls-7" d="M24.61,75.58a.66.66,0,0,1-.21-.48v-18a.73.73,0,0,1,.19-.52.69.69,0,0,1,.51-.2h7.36a9.66,9.66,0,0,1,6.44,2A7.29,7.29,0,0,1,41.31,64c0,.54,0,1.25,0,2.14s0,1.59,0,2.1Q41,75.8,32.6,75.79H25.1A.67.67,0,0,1,24.61,75.58Zm7.85-4a3.62,3.62,0,0,0,2.61-.83A3.84,3.84,0,0,0,36,68.14c0-.54.06-1.23.06-2.08s0-1.53-.06-2a3.61,3.61,0,0,0-1-2.62,3.83,3.83,0,0,0-2.68-.85H29.66V71.63Z"/><path class="cls-7" d="M45.68,74.25a7,7,0,0,1-2-5.28v-.86A7.13,7.13,0,0,1,45.73,63,7.38,7.38,0,0,1,51,61.1a8.14,8.14,0,0,1,4.07.95,6.1,6.1,0,0,1,2.49,2.64,8.53,8.53,0,0,1,.83,3.81v.69a.7.7,0,0,1-.21.52.75.75,0,0,1-.52.2H48.81v.17a3.5,3.5,0,0,0,.59,2,1.86,1.86,0,0,0,1.6.76,2,2,0,0,0,1.08-.26,3.68,3.68,0,0,0,.76-.68,1.54,1.54,0,0,1,.41-.35,1.41,1.41,0,0,1,.49-.07h3.67a.6.6,0,0,1,.43.16A.47.47,0,0,1,58,72a2.83,2.83,0,0,1-.83,1.69,6.45,6.45,0,0,1-2.41,1.66,9.11,9.11,0,0,1-3.74.7A7.59,7.59,0,0,1,45.68,74.25Zm7.58-7.16V67A3.22,3.22,0,0,0,52.68,65,2,2,0,0,0,51,64.23a2,2,0,0,0-1.64.74A3.22,3.22,0,0,0,48.81,67v.06Z"/><path class="cls-7" d="M61.15,75.58a.66.66,0,0,1-.21-.48v-13a.66.66,0,0,1,.21-.5.69.69,0,0,1,.49-.19h3.24a.69.69,0,0,1,.51.19.68.68,0,0,1,.19.5V63a5.73,5.73,0,0,1,1.74-1.36,5.13,5.13,0,0,1,2.41-.55A4.27,4.27,0,0,1,74,63.48a5.19,5.19,0,0,1,1.87-1.72,5.27,5.27,0,0,1,2.58-.66,4.88,4.88,0,0,1,3.74,1.54,6.47,6.47,0,0,1,1.44,4.58V75.1a.69.69,0,0,1-.2.48.66.66,0,0,1-.5.21H79.44a.72.72,0,0,1-.51-.19.66.66,0,0,1-.21-.5V67.42a2.68,2.68,0,0,0-.55-1.87A1.88,1.88,0,0,0,76.7,65a1.81,1.81,0,0,0-1.41.6,2.68,2.68,0,0,0-.55,1.87V75.1a.69.69,0,0,1-.2.48.64.64,0,0,1-.5.21H70.6a.73.73,0,0,1-.52-.19.66.66,0,0,1-.21-.5V67.42a2.68,2.68,0,0,0-.56-1.87,1.9,1.9,0,0,0-1.46-.6,1.88,1.88,0,0,0-1.43.6,2.63,2.63,0,0,0-.55,1.84V75.1a.69.69,0,0,1-.2.48.66.66,0,0,1-.5.21H61.64A.67.67,0,0,1,61.15,75.58Z"/><path class="cls-7" d="M88.33,75.5a4.62,4.62,0,0,1-1.9-1.57,3.74,3.74,0,0,1-.68-2.19,3.64,3.64,0,0,1,1.58-3.06,9.66,9.66,0,0,1,4.35-1.62l3.47-.53V66.2a2.24,2.24,0,0,0-.42-1.5,1.85,1.85,0,0,0-1.43-.47,2.14,2.14,0,0,0-.93.19,5.33,5.33,0,0,0-.86.59,3.21,3.21,0,0,1-.64.44.33.33,0,0,1-.28.19H87.34a.62.62,0,0,1-.46-.18.53.53,0,0,1-.16-.43,3.1,3.1,0,0,1,.76-1.67,5.8,5.8,0,0,1,2.21-1.6,9.06,9.06,0,0,1,3.67-.66c2.32,0,4,.5,5.15,1.51a5.23,5.23,0,0,1,1.68,4.09v8.4a.68.68,0,0,1-.19.48.66.66,0,0,1-.51.21H96.05a.72.72,0,0,1-.7-.69v-1a4.52,4.52,0,0,1-1.71,1.4,5.83,5.83,0,0,1-2.6.54A6.36,6.36,0,0,1,88.33,75.5ZM94.44,72a3.24,3.24,0,0,0,.77-2.33v-.33l-2.33.39c-1.56.3-2.35.85-2.35,1.66a1.19,1.19,0,0,0,.55,1,2.28,2.28,0,0,0,1.36.39A2.63,2.63,0,0,0,94.44,72Z"/><path class="cls-7" d="M104.84,70.27V65.15h-2.21a.72.72,0,0,1-.7-.7V62.07a.66.66,0,0,1,.21-.5.69.69,0,0,1,.49-.19h2.21V56.8a.66.66,0,0,1,.21-.5.69.69,0,0,1,.49-.19H109a.69.69,0,0,1,.51.19.68.68,0,0,1,.19.5v4.58h3.5a.73.73,0,0,1,.52.19.66.66,0,0,1,.21.5v2.38a.64.64,0,0,1-.21.5.73.73,0,0,1-.52.2h-3.5v4.71a2.53,2.53,0,0,0,.37,1.47,1.35,1.35,0,0,0,1.17.5h2.22a.69.69,0,0,1,.5.2.73.73,0,0,1,.2.52V75.1a.69.69,0,0,1-.2.48.66.66,0,0,1-.5.21h-2.66Q104.84,75.79,104.84,70.27Z"/><path class="cls-7" d="M120.39,75.61a.55.55,0,0,1-.18-.4.77.77,0,0,1,0-.25l6.52-17.77a1.09,1.09,0,0,1,1.12-.8h4.37a1.08,1.08,0,0,1,1.12.8L139.9,75a.83.83,0,0,1,0,.25.62.62,0,0,1-.58.58H135.7a1,1,0,0,1-1-.61l-1-2.69H126.4l-1,2.69a1,1,0,0,1-1,.61H120.8A.59.59,0,0,1,120.39,75.61Zm7.19-7.28h5l-2.49-7.07Z"/><path class="cls-7" d="M143.16,74.39A6.21,6.21,0,0,1,141,69.72l0-1.11,0-1.14a6.18,6.18,0,0,1,2.1-4.68,7.73,7.73,0,0,1,5.18-1.69,8.81,8.81,0,0,1,4.09.86,6.65,6.65,0,0,1,2.47,2,4.25,4.25,0,0,1,.86,2.14.59.59,0,0,1-.19.52.79.79,0,0,1-.53.2h-3.76a.73.73,0,0,1-.47-.13,1.26,1.26,0,0,1-.31-.45,2.55,2.55,0,0,0-.8-1.13,2,2,0,0,0-1.24-.36c-1.44,0-2.19.94-2.24,2.82l0,1.06,0,.91a3.37,3.37,0,0,0,.58,2.12,2,2,0,0,0,1.66.68,2,2,0,0,0,1.27-.35,2.52,2.52,0,0,0,.77-1.15,1.21,1.21,0,0,1,.31-.44.73.73,0,0,1,.47-.14H155a.76.76,0,0,1,.5.2.57.57,0,0,1,.22.47A4,4,0,0,1,155,73a6.42,6.42,0,0,1-2.45,2.12,8.7,8.7,0,0,1-4.2.92A7.68,7.68,0,0,1,143.16,74.39Z"/><path class="cls-7" d="M159.76,74.39a6.2,6.2,0,0,1-2.11-4.67l0-1.11,0-1.14a6.11,6.11,0,0,1,2.1-4.68,7.69,7.69,0,0,1,5.18-1.69A8.87,8.87,0,0,1,169,62a6.53,6.53,0,0,1,2.46,2,4.37,4.37,0,0,1,.87,2.14.6.6,0,0,1-.2.52.78.78,0,0,1-.53.2h-3.75a.74.74,0,0,1-.48-.13,1.4,1.4,0,0,1-.31-.45,2.53,2.53,0,0,0-.79-1.13,2.08,2.08,0,0,0-1.25-.36c-1.44,0-2.18.94-2.24,2.82l0,1.06,0,.91a3.37,3.37,0,0,0,.59,2.12,2.4,2.4,0,0,0,2.92.33,2.44,2.44,0,0,0,.77-1.15,1.35,1.35,0,0,1,.31-.44.74.74,0,0,1,.48-.14h3.75a.74.74,0,0,1,.5.2.58.58,0,0,1,.23.47,4.06,4.06,0,0,1-.77,2.06,6.5,6.5,0,0,1-2.45,2.12,8.7,8.7,0,0,1-4.2.92A7.71,7.71,0,0,1,159.76,74.39Z"/><path class="cls-7" d="M176.34,74.45a6.25,6.25,0,0,1-2.06-4.62c0-.24,0-.66,0-1.25s0-1,0-1.24a6.2,6.2,0,0,1,2.11-4.59,9.55,9.55,0,0,1,10.73,0,6.2,6.2,0,0,1,2.11,4.59c0,.48.06.89.06,1.24s0,.77-.06,1.25a6.25,6.25,0,0,1-2.06,4.62,9.86,9.86,0,0,1-10.83,0Zm7.12-2.58a3.84,3.84,0,0,0,.65-2.18c0-.18,0-.55,0-1.11s0-.92,0-1.11a3.84,3.84,0,0,0-.65-2.16,2.38,2.38,0,0,0-3.41,0,3.84,3.84,0,0,0-.65,2.16l0,1.11,0,1.11a3.84,3.84,0,0,0,.65,2.18,2.43,2.43,0,0,0,3.41,0Z"/><path class="cls-7" d="M193.32,74.43a6.55,6.55,0,0,1-1.51-4.63V62.07a.66.66,0,0,1,.21-.5.69.69,0,0,1,.49-.19h3.72a.73.73,0,0,1,.52.19.66.66,0,0,1,.21.5v7.57c0,1.71.77,2.57,2.32,2.57a2.27,2.27,0,0,0,1.75-.67,2.71,2.71,0,0,0,.63-1.9V62.07a.66.66,0,0,1,.21-.5.74.74,0,0,1,.52-.19h3.7a.68.68,0,0,1,.5.19.69.69,0,0,1,.2.5v13a.69.69,0,0,1-.2.48.66.66,0,0,1-.5.21h-3.42a.74.74,0,0,1-.52-.19.66.66,0,0,1-.21-.5V74a5.33,5.33,0,0,1-4.64,2A5.17,5.17,0,0,1,193.32,74.43Z"/><path class="cls-7" d="M210.19,75.58a.66.66,0,0,1-.21-.48v-13a.66.66,0,0,1,.21-.5.69.69,0,0,1,.49-.19h3.44a.69.69,0,0,1,.51.19.68.68,0,0,1,.19.5v1a5.58,5.58,0,0,1,2-1.47,6.37,6.37,0,0,1,2.73-.55,5.58,5.58,0,0,1,2.84.72,5,5,0,0,1,2,2.13,7.47,7.47,0,0,1,.71,3.41V75.1a.68.68,0,0,1-.19.48.66.66,0,0,1-.51.21h-3.72a.73.73,0,0,1-.52-.19.66.66,0,0,1-.21-.5V67.53a2.75,2.75,0,0,0-.6-1.91,2.21,2.21,0,0,0-1.75-.67,2.31,2.31,0,0,0-1.76.68,2.65,2.65,0,0,0-.65,1.9V75.1a.68.68,0,0,1-.19.48.66.66,0,0,1-.51.21h-3.72A.67.67,0,0,1,210.19,75.58Z"/><path class="cls-7" d="M229.63,70.27V65.15h-2.21a.68.68,0,0,1-.49-.21.67.67,0,0,1-.21-.49V62.07a.66.66,0,0,1,.21-.5.7.7,0,0,1,.49-.19h2.21V56.8a.69.69,0,0,1,.21-.5.72.72,0,0,1,.49-.19h3.45a.68.68,0,0,1,.5.19.69.69,0,0,1,.2.5v4.58H238a.74.74,0,0,1,.52.19.66.66,0,0,1,.21.5v2.38a.64.64,0,0,1-.21.5.75.75,0,0,1-.52.2h-3.5v4.71a2.53,2.53,0,0,0,.36,1.47,1.37,1.37,0,0,0,1.18.5h2.21a.71.71,0,0,1,.51.2.73.73,0,0,1,.19.52V75.1a.68.68,0,0,1-.7.69h-2.66Q229.63,75.79,229.63,70.27Z"/><path class="cls-8" d="M24.08,98.53a.34.34,0,0,1-.09-.24v-.73a.36.36,0,0,1,.09-.24.33.33,0,0,1,.24-.1h.84a.34.34,0,0,1,.34.34v.73a.35.35,0,0,1-.1.24.36.36,0,0,1-.24.09h-.84A.32.32,0,0,1,24.08,98.53Zm.12,8.69a.29.29,0,0,1-.1-.23v-6.67a.29.29,0,0,1,.1-.23.32.32,0,0,1,.23-.09h.63a.31.31,0,0,1,.32.32V107a.31.31,0,0,1-.32.32h-.63A.32.32,0,0,1,24.2,107.22Z"/><path class="cls-8" d="M27.61,107.22a.32.32,0,0,1-.09-.23v-6.67a.31.31,0,0,1,.32-.32h.61a.33.33,0,0,1,.25.08.36.36,0,0,1,.08.24v.62a3,3,0,0,1,1-.8,3.06,3.06,0,0,1,1.4-.28,2.66,2.66,0,0,1,2.12.86A3.38,3.38,0,0,1,34,103v4a.32.32,0,0,1-.09.23.32.32,0,0,1-.24.09h-.65a.3.3,0,0,1-.23-.09.29.29,0,0,1-.1-.23v-3.9a2.29,2.29,0,0,0-.49-1.57,1.81,1.81,0,0,0-1.43-.57,1.91,1.91,0,0,0-1.45.57,2.2,2.2,0,0,0-.54,1.57V107a.31.31,0,0,1-.32.32h-.66A.32.32,0,0,1,27.61,107.22Z"/><path class="cls-8" d="M38.15,109.9a.32.32,0,0,1-.09-.23v-.46a.31.31,0,0,1,.31-.31h.2c.47,0,.78-.11.93-.35a1.9,1.9,0,0,0,.24-1v-7.18a.32.32,0,0,1,.09-.24.32.32,0,0,1,.24-.08h.64a.31.31,0,0,1,.32.32v7.19c0,1.65-.79,2.48-2.38,2.48h-.28A.28.28,0,0,1,38.15,109.9ZM39.7,98.53a.34.34,0,0,1-.09-.24v-.73a.36.36,0,0,1,.09-.24.35.35,0,0,1,.24-.1h.88a.31.31,0,0,1,.23.1.33.33,0,0,1,.1.24v.73a.31.31,0,0,1-.1.24.3.3,0,0,1-.23.09h-.88A.34.34,0,0,1,39.7,98.53Z"/><path class="cls-8" d="M43.85,106.59a3.38,3.38,0,0,1-.74-2.3v-4a.32.32,0,0,1,.09-.23.32.32,0,0,1,.24-.09h.65a.32.32,0,0,1,.23.09.29.29,0,0,1,.1.23v3.9c0,1.42.62,2.14,1.87,2.14a1.9,1.9,0,0,0,1.45-.57,2.24,2.24,0,0,0,.53-1.57v-3.9a.32.32,0,0,1,.09-.23.32.32,0,0,1,.24-.09h.65a.32.32,0,0,1,.23.09.29.29,0,0,1,.1.23V107a.29.29,0,0,1-.1.23.32.32,0,0,1-.23.09h-.61a.32.32,0,0,1-.24-.09.32.32,0,0,1-.09-.23v-.63a2.7,2.7,0,0,1-1,.82,3.17,3.17,0,0,1-1.4.28A2.59,2.59,0,0,1,43.85,106.59Z"/><path class="cls-8" d="M52.58,107.14a2.68,2.68,0,0,1-1-.73,1.17,1.17,0,0,1-.33-.67.27.27,0,0,1,.1-.22.37.37,0,0,1,.22-.08h.59a.29.29,0,0,1,.14,0,.51.51,0,0,1,.13.13,2.69,2.69,0,0,0,.74.62,2.23,2.23,0,0,0,1.08.22,2.33,2.33,0,0,0,1.23-.28.9.9,0,0,0,.46-.82.79.79,0,0,0-.19-.56,1.79,1.79,0,0,0-.67-.38,11,11,0,0,0-1.37-.36,3.62,3.62,0,0,1-1.75-.78,1.76,1.76,0,0,1-.51-1.31,1.82,1.82,0,0,1,.32-1,2.1,2.1,0,0,1,.93-.79,3.32,3.32,0,0,1,1.47-.3,3.6,3.6,0,0,1,1.53.29,2.78,2.78,0,0,1,.95.69,1.16,1.16,0,0,1,.32.66.26.26,0,0,1-.09.21.33.33,0,0,1-.22.09h-.54a.3.3,0,0,1-.29-.16c-.16-.18-.3-.31-.4-.41A1.34,1.34,0,0,0,55,101a2.51,2.51,0,0,0-.78-.1,1.73,1.73,0,0,0-1.07.29.91.91,0,0,0-.37.76.75.75,0,0,0,.16.5,1.26,1.26,0,0,0,.6.38,7.66,7.66,0,0,0,1.3.36,4.23,4.23,0,0,1,1.92.8,1.77,1.77,0,0,1,.56,1.34,1.87,1.87,0,0,1-.35,1.1,2.21,2.21,0,0,1-1,.77,4.29,4.29,0,0,1-1.64.29A3.9,3.9,0,0,1,52.58,107.14Z"/><path class="cls-8" d="M59.55,104.85v-3.77H58.43a.31.31,0,0,1-.22-.08.32.32,0,0,1-.09-.23v-.45a.32.32,0,0,1,.09-.23.28.28,0,0,1,.22-.09h1.12V97.65a.34.34,0,0,1,.09-.24.3.3,0,0,1,.23-.09h.62a.32.32,0,0,1,.24.09.34.34,0,0,1,.09.24V100h1.76a.32.32,0,0,1,.24.09.32.32,0,0,1,.09.23v.45a.32.32,0,0,1-.09.23.36.36,0,0,1-.24.08H60.82v3.67a2.13,2.13,0,0,0,.23,1.09.9.9,0,0,0,.81.36h.86a.29.29,0,0,1,.23.09.34.34,0,0,1,.09.24V107a.32.32,0,0,1-.09.23.29.29,0,0,1-.23.09h-1C60.29,107.31,59.55,106.49,59.55,104.85Z"/><path class="cls-7" d="M67.09,107.22A.33.33,0,0,1,67,107v-.73a.82.82,0,0,1,.35-.67l2.22-2.18q1-.78,1.56-1.29a5,5,0,0,0,.82-.92,1.54,1.54,0,0,0,.27-.83,1.29,1.29,0,0,0-1.44-1.42,1.49,1.49,0,0,0-1.12.42,1.88,1.88,0,0,0-.5,1.07.38.38,0,0,1-.16.25.5.5,0,0,1-.27.08H67.44a.29.29,0,0,1-.21-.09.25.25,0,0,1-.08-.21,3.08,3.08,0,0,1,.46-1.55,3.11,3.11,0,0,1,1.24-1.17,3.88,3.88,0,0,1,1.91-.45,4.37,4.37,0,0,1,1.93.39,2.69,2.69,0,0,1,1.19,1.06,3.09,3.09,0,0,1-.13,3.25,8,8,0,0,1-1.66,1.64l-2,2h4a.32.32,0,0,1,.25.1.33.33,0,0,1,.1.25v1a.3.3,0,0,1-.1.24.35.35,0,0,1-.25.09H67.33A.34.34,0,0,1,67.09,107.22Z"/><path class="cls-7" d="M79.44,107.22a.33.33,0,0,1-.1-.24v-6.65a.3.3,0,0,1,.1-.24.36.36,0,0,1,.24-.09h1.13a.32.32,0,0,1,.24.09.3.3,0,0,1,.1.24v.48a2.49,2.49,0,0,1,2.06-1,2.24,2.24,0,0,1,2.2,1.25,2.51,2.51,0,0,1,1-.91,2.74,2.74,0,0,1,1.35-.34,2.49,2.49,0,0,1,1.9.78,3.21,3.21,0,0,1,.74,2.3v4a.36.36,0,0,1-.09.24.33.33,0,0,1-.25.09H88.85a.36.36,0,0,1-.24-.09.33.33,0,0,1-.1-.24v-3.93a1.81,1.81,0,0,0-.38-1.28,1.3,1.3,0,0,0-1-.39,1.27,1.27,0,0,0-1,.4,1.76,1.76,0,0,0-.39,1.27V107a.36.36,0,0,1-.09.24.35.35,0,0,1-.25.09h-1.2a.36.36,0,0,1-.24-.09.37.37,0,0,1-.1-.24v-3.93a1.76,1.76,0,0,0-.38-1.27,1.29,1.29,0,0,0-1-.4,1.27,1.27,0,0,0-.95.4,1.76,1.76,0,0,0-.39,1.27V107a.36.36,0,0,1-.09.24.33.33,0,0,1-.25.09H79.68A.36.36,0,0,1,79.44,107.22Z"/><path class="cls-7" d="M92.22,98.7a.3.3,0,0,1-.1-.24v-1a.34.34,0,0,1,.1-.26.37.37,0,0,1,.24-.1h1.31a.4.4,0,0,1,.26.1.37.37,0,0,1,.09.26v1a.3.3,0,0,1-.1.24.35.35,0,0,1-.25.1H92.46A.33.33,0,0,1,92.22,98.7Zm.06,8.52a.33.33,0,0,1-.1-.24v-6.65a.3.3,0,0,1,.1-.24.32.32,0,0,1,.24-.09h1.21a.36.36,0,0,1,.24.09.33.33,0,0,1,.1.24V107a.33.33,0,0,1-.1.24.36.36,0,0,1-.24.09H92.52A.32.32,0,0,1,92.28,107.22Z"/><path class="cls-7" d="M96,107.22a.37.37,0,0,1-.1-.24v-6.65a.33.33,0,0,1,.1-.24.37.37,0,0,1,.25-.09h1.18a.32.32,0,0,1,.24.09.3.3,0,0,1,.1.24v.58a2.9,2.9,0,0,1,2.37-1,2.7,2.7,0,0,1,2.08.84A3.33,3.33,0,0,1,103,103v4a.36.36,0,0,1-.09.24.33.33,0,0,1-.25.09H101.4a.36.36,0,0,1-.24-.09.33.33,0,0,1-.1-.24v-3.87a1.87,1.87,0,0,0-.4-1.28,1.48,1.48,0,0,0-1.16-.45,1.55,1.55,0,0,0-1.17.46,1.78,1.78,0,0,0-.44,1.27V107a.36.36,0,0,1-.09.24.33.33,0,0,1-.25.09H96.29A.37.37,0,0,1,96,107.22Z"/><path class="cls-7" d="M105.84,107.13a2.86,2.86,0,0,1-1.08-.75,1.26,1.26,0,0,1-.34-.74.28.28,0,0,1,.09-.22.29.29,0,0,1,.22-.09h1.17a.24.24,0,0,1,.19.11l.32.27a1.94,1.94,0,0,0,1.28.45,1.69,1.69,0,0,0,.92-.22.68.68,0,0,0,.36-.62.65.65,0,0,0-.17-.46,1.34,1.34,0,0,0-.58-.32,12.59,12.59,0,0,0-1.26-.34,3.69,3.69,0,0,1-1.78-.77,1.76,1.76,0,0,1-.58-1.38,1.83,1.83,0,0,1,.34-1.06,2.5,2.5,0,0,1,1-.82,3.79,3.79,0,0,1,1.61-.31,4.22,4.22,0,0,1,1.67.3,2.86,2.86,0,0,1,1.05.72,1.22,1.22,0,0,1,.37.75.28.28,0,0,1-.1.22.29.29,0,0,1-.22.09h-1.06a.28.28,0,0,1-.24-.11l-.32-.26a1.93,1.93,0,0,0-.49-.31,1.82,1.82,0,0,0-.66-.11,1.28,1.28,0,0,0-.81.23.7.7,0,0,0-.28.59.64.64,0,0,0,.13.42,1.34,1.34,0,0,0,.55.32,9.43,9.43,0,0,0,1.24.3c1.7.33,2.56,1.06,2.56,2.21a1.93,1.93,0,0,1-.88,1.62,4.17,4.17,0,0,1-2.44.62A4.32,4.32,0,0,1,105.84,107.13Z"/><path class="cls-7" d="M24,142a10,10,0,0,1,10-10h94a10,10,0,0,1,10,10v17a10,10,0,0,1-10,10H34a10,10,0,0,1-10-10Z"/><path class="cls-9" d="M45.57,156.16a5.89,5.89,0,0,1-2.45-.46,3.59,3.59,0,0,1-1.6-1.46,5.19,5.19,0,0,1-.62-2.46c0-.46,0-.92,0-1.36s0-.91,0-1.38a4.85,4.85,0,0,1,.64-2.43,3.75,3.75,0,0,1,1.61-1.47,5.45,5.45,0,0,1,2.42-.5,5.38,5.38,0,0,1,2.41.5,3.77,3.77,0,0,1,1.64,1.47,5.07,5.07,0,0,1,.64,2.43q0,.71,0,1.38c0,.44,0,.9,0,1.36a5.19,5.19,0,0,1-.63,2.46A3.56,3.56,0,0,1,48,155.7,5.92,5.92,0,0,1,45.57,156.16Zm0-1.84a2.36,2.36,0,0,0,1.69-.61,2.79,2.79,0,0,0,.71-2c0-.47,0-.91,0-1.3s0-.84,0-1.3a3.35,3.35,0,0,0-.35-1.5,1.87,1.87,0,0,0-.84-.85,2.82,2.82,0,0,0-2.41,0,1.94,1.94,0,0,0-.85.85,3.65,3.65,0,0,0-.34,1.5c0,.46,0,.89,0,1.3s0,.83,0,1.3a2.83,2.83,0,0,0,.71,2A2.35,2.35,0,0,0,45.57,154.32Zm7.2,1.68a.38.38,0,0,1-.38-.38V145.2a.42.42,0,0,1,.11-.29.4.4,0,0,1,.27-.11h4.29a5.44,5.44,0,0,1,2.18.4,3.06,3.06,0,0,1,1.44,1.18,3.56,3.56,0,0,1,.51,2,3.61,3.61,0,0,1-.51,2,3.13,3.13,0,0,1-1.44,1.15,5.82,5.82,0,0,1-2.18.38H54.68v3.75a.37.37,0,0,1-.12.27.34.34,0,0,1-.27.11Zm1.87-5.9H57a2.08,2.08,0,0,0,1.42-.44,1.63,1.63,0,0,0,.5-1.31,1.76,1.76,0,0,0-.46-1.28,1.92,1.92,0,0,0-1.46-.49H54.64Zm8.68,5.9a.37.37,0,0,1-.27-.11.36.36,0,0,1-.11-.27V145.2a.38.38,0,0,1,.11-.29.37.37,0,0,1,.27-.11h7a.38.38,0,0,1,.4.4v1.06a.4.4,0,0,1-.11.27.42.42,0,0,1-.29.11H65.1v2.83H70a.44.44,0,0,1,.29.11.38.38,0,0,1,.11.28v1a.44.44,0,0,1-.11.29.48.48,0,0,1-.29.09H65.1v2.93h5.39a.44.44,0,0,1,.29.11.42.42,0,0,1,.11.29v1.06a.4.4,0,0,1-.11.27.44.44,0,0,1-.29.11Zm9.95,0a.38.38,0,0,1-.38-.38V145.2a.42.42,0,0,1,.11-.29.4.4,0,0,1,.27-.11H74.5a.41.41,0,0,1,.32.11.68.68,0,0,1,.15.15l4.61,7.16v-7a.46.46,0,0,1,.09-.29.42.42,0,0,1,.29-.11H81.3a.4.4,0,0,1,.29.11.38.38,0,0,1,.11.29v10.4a.38.38,0,0,1-.11.29.37.37,0,0,1-.27.11H80.07a.43.43,0,0,1-.32-.11.7.7,0,0,0-.14-.15l-4.59-7v6.88a.37.37,0,0,1-.12.27.39.39,0,0,1-.28.11Zm15,0a.37.37,0,0,1-.27-.11.36.36,0,0,1-.11-.27V145.2a.38.38,0,0,1,.11-.29.37.37,0,0,1,.27-.11h1.23a.41.41,0,0,1,.32.11.68.68,0,0,1,.15.15l4.61,7.16v-7a.46.46,0,0,1,.09-.29.42.42,0,0,1,.29-.11h1.34a.4.4,0,0,1,.29.11.38.38,0,0,1,.11.29v10.4a.38.38,0,0,1-.11.29.37.37,0,0,1-.27.11H95a.43.43,0,0,1-.32-.11.7.7,0,0,0-.14-.15l-4.59-7v6.88a.37.37,0,0,1-.12.27.39.39,0,0,1-.28.11Zm15.23.16a5.87,5.87,0,0,1-2.44-.46,3.54,3.54,0,0,1-1.6-1.46,5.08,5.08,0,0,1-.63-2.46c0-.46,0-.92,0-1.36s0-.91,0-1.38a5,5,0,0,1,.64-2.43,3.83,3.83,0,0,1,1.62-1.47,6.08,6.08,0,0,1,4.83,0,3.74,3.74,0,0,1,1.63,1.47,4.85,4.85,0,0,1,.64,2.43q0,.71,0,1.38c0,.44,0,.9,0,1.36a5.19,5.19,0,0,1-.62,2.46,3.64,3.64,0,0,1-1.62,1.46A5.89,5.89,0,0,1,103.47,156.16Zm0-1.84a2.38,2.38,0,0,0,1.7-.61,2.79,2.79,0,0,0,.7-2c0-.47,0-.91,0-1.3s0-.84,0-1.3a3.22,3.22,0,0,0-.35-1.5,1.85,1.85,0,0,0-.83-.85,2.85,2.85,0,0,0-2.42,0,1.92,1.92,0,0,0-.84.85,3.36,3.36,0,0,0-.34,1.5c0,.46,0,.89,0,1.3s0,.83,0,1.3a2.83,2.83,0,0,0,.7,2A2.36,2.36,0,0,0,103.47,154.32ZM112,156a.52.52,0,0,1-.38-.13.69.69,0,0,1-.18-.35l-1.9-10.26a.24.24,0,0,0,0-.08v0a.3.3,0,0,1,.1-.24.33.33,0,0,1,.24-.1h1.4c.27,0,.42.11.45.32l1.33,7.25,1.44-4.69a.83.83,0,0,1,.16-.26.5.5,0,0,1,.37-.14h.86a.45.45,0,0,1,.37.14.74.74,0,0,1,.14.26l1.46,4.67,1.33-7.23c0-.21.18-.32.45-.32H121a.3.3,0,0,1,.23.1.32.32,0,0,1,.09.24v0a.22.22,0,0,1,0,.08l-1.91,10.26a.61.61,0,0,1-.17.35.56.56,0,0,1-.39.13H117.8a.52.52,0,0,1-.38-.13.59.59,0,0,1-.18-.27l-1.79-5.34-1.79,5.34a1,1,0,0,1-.19.27.53.53,0,0,1-.39.13Z"/><path class="cls-10" d="M329.34,139.62c-1.23-8.12-6.13-13.51-11.08-18.13,1.93-.71,1.44-2.79,2.43-4.44-2.95-1.3-4.52.44-6.46,1.92,4.24-9.07-11.26-1.3-8.92-10.43-3,5.31-.22,7.15,2.66,8.23,1.89.71,2.28,1.85,0,2.63-6.62,2.31-9.36,3.47-9.36,3.47-.5,2.93,1,3.16.82,5.34a54.51,54.51,0,0,1,6.22,2.08,25.11,25.11,0,0,1,9.74,8.43,25,25,0,0,0-9.4-6.32c-1.07,3.51-4.63,7.25-6.53,8.44.87.66,1.86,1.21,2.73,1.87,5.52-3.88,8.76,4.79,14.29,3.13-5.53,6.09-15.19,2.54-20.46-2.18-3.75,2.79-15.9,7.23-17.56.7-1.34-5.21,5.25-8.13,12.19-5.18,7.77,3.31,13.08,12.22,23.84,7.56-5,.86-7.33-6.14-12-2.52-5.42-2.69-14.29-11.51-23-6.6-6.27,3.53-2.89,13.9,6.39,12.28-3.43,5.15-4.26,14.3.31,19-2.05-14.16,21.72-18.26,28.61-10.36,1.89,2.17,2.36,7.52.57,10.29C322.71,163.54,331.38,153.17,329.34,139.62Z"/><path class="cls-11" d="M296.05,143.64s-11.41,7.09-16.56,2.49a4.34,4.34,0,0,1,.75-6.59c1.76-1,5.9-3.52,14.68,2.16,3.23,2.18,6.19,4.54,8.77,5.51,2.24.74,4.93,2,10.87-.5a7.56,7.56,0,0,1-4.6-1.26c-1.44-1-4.11-3.74-7.43-1.36-2.35-1.42-11.08-7-13.61-7.39-1.16-.31-5.33-1.13-8.11.24-1.39.68-5,2.31-4.55,6.8.23,2.3,2.29,7.75,9.63,6.28a110.93,110.93,0,0,0,13.2-4.1Z"/><path class="cls-12" d="M271.76,124.32a7.18,7.18,0,0,0,2.32,5,7.34,7.34,0,0,0,10.29-.39,7.21,7.21,0,0,0-5.62-12.09,7.29,7.29,0,0,0-5.06,2.3A7.13,7.13,0,0,0,271.76,124.32Z"/><path class="cls-7" d="M278.75,116.85a7.24,7.24,0,0,0-4,1.37,7.14,7.14,0,0,0-2.56,3.33,7.14,7.14,0,0,0,1.89,7.78L284,118.76a7.32,7.32,0,0,0-2.42-1.47A7.21,7.21,0,0,0,278.75,116.85Z"/><path class="cls-7" d="M278.75,116.85a7.24,7.24,0,0,0-4,1.37,7.14,7.14,0,0,0-2.56,3.33,7.14,7.14,0,0,0,1.89,7.78L284,118.76a7.32,7.32,0,0,0-2.42-1.47A7.21,7.21,0,0,0,278.75,116.85Z"/><path class="cls-13" d="M278.75,116.85a7.24,7.24,0,0,0-4,1.37,7.14,7.14,0,0,0-2.56,3.33,7.14,7.14,0,0,0,1.89,7.78L284,118.76a7.32,7.32,0,0,0-2.42-1.47A7.21,7.21,0,0,0,278.75,116.85Z"/><path class="cls-14" d="M273.76,124.25a5.21,5.21,0,0,0,1.68,3.63,5.33,5.33,0,0,0,7.46-.29,5.18,5.18,0,0,0-.29-7.38,5.32,5.32,0,0,0-7.45.29,5.15,5.15,0,0,0-1.4,3.75Z"/><path class="cls-15" d="M273.76,124.25a5.21,5.21,0,0,0,1.68,3.63,5.33,5.33,0,0,0,7.46-.29,5.18,5.18,0,0,0-.29-7.38,5.32,5.32,0,0,0-7.45.29,5.15,5.15,0,0,0-1.4,3.75Z"/><path class="cls-7" d="M280.63,122.66h-.52a1.74,1.74,0,0,0-.23-.6h.75a.43.43,0,0,0,0-.85h-3.06a.43.43,0,0,0,0,.85h.88a.93.93,0,0,1,.83.6h-1.71a.43.43,0,0,0,0,.85h1.71a1.27,1.27,0,0,1-.18.27.83.83,0,0,1-.65.28h-.88a.43.43,0,0,0-.39.44.48.48,0,0,0,.12.31l2.19,2.25a.36.36,0,0,0,.55,0,.46.46,0,0,0,0-.6l-1.48-1.53a1.58,1.58,0,0,0,1.1-.53,2,2,0,0,0,.46-.88h.52a.43.43,0,0,0,0-.85Z"/><path class="cls-12" d="M265.37,110a5.55,5.55,0,0,0,1.81,3.9,5.66,5.66,0,0,0,9.51-4.33,5.56,5.56,0,0,0-1.82-3.9,5.72,5.72,0,0,0-8,.31A5.56,5.56,0,0,0,265.37,110Z"/><path class="cls-7" d="M270.81,104.23a5.7,5.7,0,0,0-3.11,1.06,5.57,5.57,0,0,0-.52,8.65l7.7-8.23a5.72,5.72,0,0,0-4.07-1.48Z"/><path class="cls-7" d="M270.81,104.23a5.7,5.7,0,0,0-3.11,1.06,5.57,5.57,0,0,0-.52,8.65l7.7-8.23a5.72,5.72,0,0,0-4.07-1.48Z"/><path class="cls-13" d="M270.81,104.23a5.7,5.7,0,0,0-3.11,1.06,5.57,5.57,0,0,0-.52,8.65l7.7-8.23a5.72,5.72,0,0,0-4.07-1.48Z"/><path class="cls-14" d="M266.92,110a4,4,0,0,0,1.32,2.83,4.13,4.13,0,0,0,5.8-.22,4,4,0,0,0-.22-5.75,4.16,4.16,0,0,0-5.81.23,4,4,0,0,0-1.09,2.91Z"/><path class="cls-15" d="M266.92,110a4,4,0,0,0,1.32,2.83,4.13,4.13,0,0,0,5.8-.22,4,4,0,0,0-.22-5.75,4.16,4.16,0,0,0-5.81.23,4,4,0,0,0-1.09,2.91Z"/><path class="cls-7" d="M272.28,108.75h-.41a1.58,1.58,0,0,0-.18-.47h.59a.33.33,0,0,0,0-.66h-2.39a.33.33,0,0,0,0,.66h.69a.72.72,0,0,1,.64.47h-1.33a.33.33,0,0,0,0,.66h1.33a.74.74,0,0,1-.13.21.65.65,0,0,1-.51.22h-.69a.33.33,0,0,0-.3.34.39.39,0,0,0,.09.24l1.71,1.76a.29.29,0,0,0,.43,0,.34.34,0,0,0,0-.46l-1.14-1.19a1.3,1.3,0,0,0,.85-.41,1.48,1.48,0,0,0,.36-.69h.41a.33.33,0,0,0,0-.66Z"/><path class="cls-12" d="M280.09,107.54a9.83,9.83,0,0,0,3.19,6.87,10.06,10.06,0,0,0,14.11-.54,9.81,9.81,0,0,0-.54-14,10.06,10.06,0,0,0-14.11.54A9.83,9.83,0,0,0,280.09,107.54Z"/><path class="cls-7" d="M289.68,97.29a10.06,10.06,0,0,0-5.47,1.88,9.87,9.87,0,0,0-3.5,4.57,9.72,9.72,0,0,0-.35,5.72,9.83,9.83,0,0,0,2.93,5l13.56-14.5a10,10,0,0,0-3.32-2A10.1,10.1,0,0,0,289.68,97.29Z"/><path class="cls-7" d="M289.68,97.29a10.06,10.06,0,0,0-5.47,1.88,9.87,9.87,0,0,0-3.5,4.57,9.72,9.72,0,0,0-.35,5.72,9.83,9.83,0,0,0,2.93,5l13.56-14.5a10,10,0,0,0-3.32-2A10.1,10.1,0,0,0,289.68,97.29Z"/><path class="cls-13" d="M289.68,97.29a10.06,10.06,0,0,0-5.47,1.88,9.87,9.87,0,0,0-3.5,4.57,9.72,9.72,0,0,0-.35,5.72,9.83,9.83,0,0,0,2.93,5l13.56-14.5a10,10,0,0,0-3.32-2A10.1,10.1,0,0,0,289.68,97.29Z"/><path class="cls-14" d="M282.83,107.44a7.15,7.15,0,0,0,2.32,5,7.3,7.3,0,0,0,10.23-.39,7.1,7.1,0,0,0-.4-10.12,7.27,7.27,0,0,0-10.23.39,7.14,7.14,0,0,0-1.92,5.14Z"/><path class="cls-15" d="M282.83,107.44a7.15,7.15,0,0,0,2.32,5,7.3,7.3,0,0,0,10.23-.39,7.1,7.1,0,0,0-.4-10.12,7.27,7.27,0,0,0-10.23.39,7.14,7.14,0,0,0-1.92,5.14Z"/><path class="cls-7" d="M292.27,105.26h-.72a2.62,2.62,0,0,0-.31-.82h1a.59.59,0,0,0,0-1.17h-4.2a.59.59,0,0,0,0,1.17h1.2a1.29,1.29,0,0,1,1.15.82h-2.35a.59.59,0,0,0,0,1.17h2.35a1.85,1.85,0,0,1-.25.37,1.17,1.17,0,0,1-.9.39h-1.2a.58.58,0,0,0-.54.6.63.63,0,0,0,.17.42l3,3.1a.51.51,0,0,0,.76,0,.62.62,0,0,0,0-.82l-2-2.09a2.29,2.29,0,0,0,1.51-.73,2.71,2.71,0,0,0,.63-1.21h.72a.59.59,0,0,0,0-1.17Z"/></svg>