<svg width="33" height="32" viewBox="0 0 33 32" fill="none" xmlns="http://www.w3.org/2000/svg">
<path d="M0.5 10C0.5 4.47715 4.97715 0 10.5 0H22.5C28.0228 0 32.5 4.47715 32.5 10V22C32.5 27.5228 28.0228 32 22.5 32H10.5C4.97715 32 0.5 27.5228 0.5 22V10Z" fill="#E0F8EE"/>
<path d="M24.4987 19.7952C24.4994 20.9133 24.5015 22.0307 24.498 23.1488C24.4966 23.771 24.283 23.9944 23.7041 23.9944C22.6923 23.9951 21.6799 23.9966 20.6681 23.9951C20.1261 23.9936 19.8776 23.7365 19.8776 23.1627C19.8749 20.9148 19.8749 18.6675 19.8776 16.4195C19.879 15.8296 20.1337 15.5608 20.6869 15.5585C21.6875 15.5549 22.6881 15.5534 23.6881 15.5585C24.2656 15.5608 24.4952 15.8017 24.4973 16.4056C24.5015 17.5355 24.4987 18.6653 24.4987 19.7952Z" fill="#33CF90"/>
<path d="M14.933 12.6662C15.3234 13.1034 15.6887 13.5294 16.0721 13.9372C16.564 14.4602 16.436 14.4477 16.9085 13.9511C18.1631 12.6324 19.4086 11.3057 20.6688 9.99291C20.872 9.78207 20.9061 9.63882 20.6744 9.43679C20.4176 9.212 20.1817 8.96222 19.9368 8.72273C19.9535 8.67865 19.9702 8.63457 19.9869 8.5905C20.3244 8.53319 20.6612 8.47663 20.9979 8.42007C21.7912 8.28636 22.5852 8.15486 23.3777 8.01748C23.5837 7.98222 23.7298 7.98443 23.6832 8.28122C23.5085 9.39639 23.3429 10.5138 23.1711 11.6297C23.1585 11.7105 23.1237 11.7869 23.0688 11.9617C22.8183 11.7002 22.6088 11.4835 22.4015 11.2646C22.0612 10.9053 22.0619 10.9046 21.7112 11.2748C20.0808 12.9954 18.4498 14.7166 16.8187 16.4371C16.7213 16.54 16.6204 16.6377 16.4889 16.7699C15.967 16.1947 15.4632 15.64 14.9184 15.0391C13.6032 16.4511 12.3438 17.8043 11.0258 19.2192C10.648 18.7975 10.3202 18.45 10.0217 18.0768C9.97998 18.0247 10.0468 17.8101 10.1212 17.7301C10.9618 16.8265 11.8128 15.9346 12.6618 15.0391C13.3124 14.353 13.963 13.6661 14.615 12.9807C14.6957 12.8955 14.7813 12.8161 14.933 12.6662Z" fill="#33CF90"/>
<path d="M14.2163 21.0748C14.2156 20.3504 14.2135 19.6261 14.217 18.9017C14.2191 18.3868 14.4313 18.1509 14.9135 18.1465C15.9956 18.1377 17.0769 18.1363 18.1589 18.1392C18.5361 18.1399 18.7977 18.3963 18.8005 18.8114C18.8123 20.3093 18.8116 21.8072 18.8019 23.3051C18.7991 23.7393 18.5521 23.9876 18.1367 23.9913C17.0435 24.0001 15.9503 24.0008 14.8565 23.9898C14.4438 23.9861 14.2205 23.7268 14.2177 23.2853C14.2128 22.5485 14.2163 21.8116 14.2163 21.0748Z" fill="#33CF90"/>
<path d="M10.8108 23.9952C10.2876 23.996 9.76429 23.9997 9.24102 23.9945C8.75115 23.9901 8.51039 23.7403 8.50482 23.2276C8.49925 22.6259 8.49786 22.0242 8.50412 21.4233C8.50969 20.8804 8.76854 20.6049 9.28068 20.602C10.2917 20.5968 11.3035 20.5954 12.3152 20.6034C12.8566 20.6071 13.0918 20.8716 13.0925 21.4468C13.0939 22.0477 13.0967 22.6494 13.0925 23.2511C13.089 23.7499 12.8587 23.9901 12.3807 23.9938C11.8574 23.9989 11.3341 23.9952 10.8108 23.9952Z" fill="#33CF90"/>
</svg>
