<svg width="32" height="32" viewBox="0 0 32 32" fill="none" xmlns="http://www.w3.org/2000/svg">
<path d="M0 10C0 4.47715 4.47715 0 10 0H22C27.5228 0 32 4.47715 32 10V22C32 27.5228 27.5228 32 22 32H10C4.47715 32 0 27.5228 0 22V10Z" fill="#E0F8EE"/>
<path d="M23.9987 19.7952C23.9994 20.9133 24.0015 22.0307 23.998 23.1488C23.9967 23.771 23.783 23.9944 23.2041 23.9944C22.1923 23.9951 21.1799 23.9966 20.1681 23.9951C19.6261 23.9936 19.3777 23.7365 19.3777 23.1628C19.3749 20.9148 19.3749 18.6675 19.3777 16.4196C19.379 15.8296 19.6337 15.5608 20.1869 15.5586C21.1875 15.5549 22.1882 15.5534 23.1881 15.5586C23.7656 15.5608 23.9953 15.8017 23.9974 16.4056C24.0015 17.5355 23.9987 18.6653 23.9987 19.7952Z" fill="#33CF90"/>
<path d="M14.433 12.6662C14.8234 13.1034 15.1887 13.5294 15.5721 13.9372C16.0641 14.4602 15.936 14.4477 16.4085 13.9511C17.6631 12.6324 18.9087 11.3057 20.1688 9.99291C20.372 9.78207 20.4061 9.63882 20.1744 9.43679C19.9176 9.212 19.6817 8.96222 19.4368 8.72273C19.4535 8.67865 19.4702 8.63457 19.4869 8.5905C19.8244 8.53319 20.1612 8.47663 20.498 8.42007C21.2912 8.28636 22.0852 8.15486 22.8777 8.01748C23.0837 7.98222 23.2298 7.98443 23.1832 8.28122C23.0086 9.39639 22.8429 10.5138 22.6711 11.6297C22.6585 11.7105 22.6238 11.7869 22.5688 11.9617C22.3183 11.7002 22.1088 11.4835 21.9015 11.2646C21.5612 10.9053 21.5619 10.9046 21.2112 11.2748C19.5808 12.9954 17.9498 14.7166 16.3187 16.4371C16.2213 16.54 16.1204 16.6377 15.9889 16.7699C15.467 16.1947 14.9632 15.64 14.4184 15.0391C13.1032 16.4511 11.8438 17.8043 10.5258 19.2192C10.148 18.7975 9.82026 18.45 9.52175 18.0768C9.48 18.0247 9.5468 17.8101 9.62125 17.7301C10.4618 16.8265 11.3128 15.9346 12.1618 15.0391C12.8124 14.353 13.463 13.6661 14.115 12.9807C14.1957 12.8955 14.2813 12.8161 14.433 12.6662Z" fill="#33CF90"/>
<path d="M13.7163 21.0748C13.7156 20.3504 13.7135 19.6261 13.717 18.9017C13.7191 18.3868 13.9313 18.1509 14.4135 18.1465C15.4956 18.1377 16.5769 18.1363 17.6589 18.1392C18.0361 18.1399 18.2977 18.3963 18.3005 18.8114C18.3123 20.3093 18.3116 21.8072 18.3019 23.3051C18.2991 23.7393 18.0521 23.9876 17.6367 23.9913C16.5435 24.0001 15.4503 24.0008 14.3565 23.9898C13.9438 23.9861 13.7205 23.7268 13.7177 23.2853C13.7128 22.5485 13.7163 21.8116 13.7163 21.0748Z" fill="#33CF90"/>
<path d="M10.3108 23.9952C9.78756 23.996 9.26429 23.9996 8.74102 23.9945C8.25115 23.9901 8.01039 23.7403 8.00482 23.2275C7.99925 22.6259 7.99786 22.0242 8.00412 21.4233C8.00969 20.8804 8.26854 20.6049 8.78068 20.602C9.79174 20.5968 10.8035 20.5953 11.8152 20.6034C12.3566 20.6071 12.5918 20.8716 12.5925 21.4468C12.5939 22.0477 12.5967 22.6494 12.5925 23.2511C12.589 23.7499 12.3587 23.9901 11.8807 23.9938C11.3574 23.9989 10.8341 23.9952 10.3108 23.9952Z" fill="#33CF90"/>
</svg>
