<svg width="22" height="19" viewBox="0 0 22 19" fill="none" xmlns="http://www.w3.org/2000/svg">
<path d="M9.40939 1.56139L9.81878 1.12276L9.81878 1.12276L9.40939 1.56139ZM8.56136 1.59064L8.99999 2.00003L8.99999 2.00003L8.56136 1.59064ZM9.43863 2.40942L8.99999 2.00003L8.99999 2.00003L9.43863 2.40942ZM3.38073 8.90003L2.94209 8.49064C2.77907 8.6653 2.73522 8.92003 2.83044 9.13916C2.92566 9.35828 3.14181 9.50003 3.38073 9.50003V8.90003ZM3.38073 10.1V9.50003C3.14181 9.50003 2.92566 9.64178 2.83044 9.8609C2.73522 10.08 2.77907 10.3348 2.94209 10.5094L3.38073 10.1ZM9.43863 16.5906L8.99999 17H8.99999L9.43863 16.5906ZM9.40939 17.4387L9 17L8.99999 17L9.40939 17.4387ZM8.56136 17.4094L8.99999 17L8.56136 17.4094ZM1.56262 9.91077L2.00126 9.50137L1.99992 9.49995L1.56262 9.91077ZM1.53476 9.87894L1.99975 9.49976L1.99967 9.49965L1.53476 9.87894ZM1.47437 9.7896L1.99975 9.49981L1.99963 9.49961L1.47437 9.7896ZM1.47253 9.21382L1.99964 9.50044L1.99976 9.50022L1.47253 9.21382ZM1.53476 9.12111L1.99967 9.5004L1.99976 9.50029L1.53476 9.12111ZM1.56249 9.08943L1.99991 9.50012L2.00112 9.49882L1.56249 9.08943ZM9.81878 1.12276C9.33428 0.67056 8.57493 0.696743 8.12273 1.18125L8.99999 2.00003L9 2.00003L9.81878 1.12276ZM9.87726 2.81881C10.3295 2.33431 10.3033 1.57496 9.81878 1.12276L8.99999 2.00003V2.00003L9.87726 2.81881ZM3.81936 9.30942L9.87726 2.81881L8.99999 2.00003L2.94209 8.49064L3.81936 9.30942ZM20 8.30003H3.38073V9.50003H20V8.30003ZM21.2 9.50003C21.2 8.83728 20.6627 8.30003 20 8.30003V9.50003H21.2ZM20 10.7C20.6627 10.7 21.2 10.1628 21.2 9.50003H20V10.7ZM3.38073 10.7H20V9.50003H3.38073V10.7ZM9.87726 16.1812L3.81936 9.69064L2.94209 10.5094L8.99999 17L9.87726 16.1812ZM9.81878 17.8773C10.3033 17.4251 10.3295 16.6657 9.87726 16.1812L8.99999 17L9 17L9.81878 17.8773ZM8.12273 17.8188C8.57493 18.3033 9.33428 18.3295 9.81878 17.8773L8.99999 17V17L8.12273 17.8188ZM1.12399 10.3202L8.12273 17.8188L8.99999 17L2.00125 9.50138L1.12399 10.3202ZM1.06976 10.2581C1.08755 10.2799 1.10608 10.3011 1.12532 10.3216L1.99992 9.49995C1.99986 9.49988 1.9998 9.49982 1.99975 9.49976L1.06976 10.2581ZM0.948987 10.0794C0.983439 10.1418 1.02377 10.2017 1.06985 10.2582L1.99967 9.49965L1.99975 9.49981L0.948987 10.0794ZM0.799994 9.50003C0.799994 9.70901 0.853925 9.90719 0.949097 10.0796L1.99963 9.49961L1.99999 9.50003H0.799994ZM0.945416 8.92719C0.852525 9.09802 0.799994 9.29379 0.799994 9.50003H1.99999L1.99964 9.50044L0.945416 8.92719ZM1.06984 8.74183C1.02211 8.80034 0.980549 8.86252 0.945298 8.92741L1.99976 9.50022L1.99967 9.5004L1.06984 8.74183ZM1.12507 8.67874C1.10591 8.69914 1.08746 8.72022 1.06975 8.74194L1.99976 9.50029C1.9998 9.50023 1.99985 9.50018 1.99991 9.50012L1.12507 8.67874ZM8.12273 1.18124L1.12385 8.68004L2.00112 9.49882L8.99999 2.00003L8.12273 1.18124Z" fill="#35CB5D"/>
</svg>
