<svg xmlns="http://www.w3.org/2000/svg" width="70" height="70" viewBox="0 0 70 70">
    <defs>
        <radialGradient id="prefix__a" cx="50%" cy="51.395%" r="45.174%" fx="50%" fy="51.395%">
            <stop offset="0%" stop-color="#ECC74F"/>
            <stop offset="100%" stop-color="#B78C51"/>
        </radialGradient>
    </defs>
    <path fill="url(#prefix__a)" fill-rule="evenodd" d="M69.898 31.718c.068.903.102 1.815.102 2.735C70 54.085 54.332 70 35.005 70c-9.725 0-18.523-4.03-24.865-10.534l4.39-4.565c5.208 5.381 12.458 8.719 20.475 8.719 14.58 0 26.623-11.04 28.469-25.338h-6.258c.37-1.04.57-2.16.57-3.328 0-1.134-.19-2.223-.538-3.235h12.65zM34.995 0C44.72 0 53.518 4.03 59.86 10.534l-4.39 4.565C50.263 9.718 43.013 6.38 34.996 6.38c-14.58 0-26.623 11.04-28.469 25.338h7.558c1.589-9.974 10.105-17.59 20.373-17.59 5.297 0 10.128 2.027 13.783 5.36l-5.47 4.276a13.706 13.706 0 00-8.313-2.8c-7.682 0-13.909 6.325-13.909 14.127 0 7.802 6.227 14.128 13.909 14.128 6.44 0 11.858-4.447 13.44-10.482H32.482V31.81h22.361c.166 1.069.252 2.165.252 3.281 0 11.578-9.24 20.963-20.638 20.963-10.33 0-18.888-7.709-20.4-17.772H.101A36.61 36.61 0 010 35.547C0 15.915 15.668 0 34.995 0z"/>
</svg>
