<svg xmlns="http://www.w3.org/2000/svg" width="70" height="70" viewBox="0 0 70 70">
    <g fill="#CB9D59">
        <path d="M67.82 33.899c.169 18.661-15.352 34.211-34.297 33.952C15.29 67.601-.194 52.347.193 33.187.564 14.914 15.776-.36 34.708.006c18.26.354 33.228 15.51 33.113 33.893zm-66.2-.038C1.624 51.76 16.1 66.457 33.738 66.469c18.092.011 32.725-14.526 32.731-32.515.006-17.9-14.56-32.518-32.404-32.518C16.134 1.434 1.618 15.94 1.62 33.861z" transform="translate(1 1)"/>
        <path d="M34.059 50.813c-9.351-.097-16.846-7.41-16.846-16.893 0-9.297 7.269-16.819 16.766-16.844 9.482-.025 16.799 7.47 16.865 16.861.067 9.246-7.569 16.855-16.785 16.876zm-.017-1.436c8.467-.007 15.385-6.952 15.385-15.447 0-8.469-6.955-15.467-15.387-15.479-8.455-.013-15.482 7.05-15.452 15.528.032 8.47 6.99 15.404 15.454 15.398zM53.555 36.49l.566-2.008L63.136 37c-.027 1.36-.656 2.126-1.873 2.556-1 .353-1.93.901-2.973 1.4.667 1.01 1.208 1.983 1.898 2.834.778.964.854 1.903.2 3.058l-8.99-2.501c.189-.703.362-1.35.544-2.035 1.99.549 3.896 1.075 6.1 1.68l-2.451-3.784 4.044-1.981a19111.4 19111.4 0 00-6.08-1.737zM15.296 56.008l4.525-7.73c.585.337 1.096.63 1.722.994l-3.04 5.248c1.475-.476 2.733-.88 4.089-1.316l.824 4.236c1.1-1.859 2.075-3.505 3.09-5.223.576.33 1.112.634 1.73.987l-4.52 7.722c-1.164-.3-1.758-.932-1.861-2.11-.093-1.064-.372-2.11-.598-3.319-1.113.37-2.187.621-3.163 1.076-1.094.509-1.93.238-2.798-.565zM10.247 41.735c-1.084-.472-2.036-.99-3.05-1.299-1.14-.346-1.637-1.065-1.713-2.293l8.471-2.749.618 1.894-5.758 1.895 3.978 1.73-2.234 3.733c1.596-.515 2.93-.95 4.268-1.374 1.704-.539 1.704-.535 2.05 1.437-2.783.902-5.583 1.813-8.415 2.733-.492-.94-.794-1.724-.072-2.667.686-.893 1.19-1.93 1.857-3.04zM24.125 9.143c-.471.286-.855.575-1.282.754-.236.1-.61.116-.813-.007-.96-.585-1.864-.515-2.749.114-.927.657-1.3 1.598-1.01 2.665.21.775.581 1.548 1.046 2.205.927 1.315 2.276 1.701 3.469 1.14 1.269-.597 1.612-1.513 1.215-3.37.53-.324 1.087-.663 1.716-1.05.695 1.51.752 2.93-.094 4.303-1.477 2.4-4.822 3.004-7.06 1.303-2.853-2.168-3.248-6.234-.81-8.362 2.052-1.792 4.763-1.705 6.372.305zM49.007 20.653c3.273-.402 6.411-.756 9.54-1.19.871-.12 1.056.428 1.354.983.275.512.505.899-.038 1.482-2.158 2.312-4.244 4.695-6.462 7.17-.315-.595-.657-1.085-.828-1.63-.072-.226.155-.624.355-.845 1.018-1.133 1.031-1.122.357-2.446-.085-.17-.169-.339-.258-.508-.75-1.414-.752-1.427-2.318-1.237-.537.067-.908-.028-1.109-.592-.135-.377-.359-.726-.593-1.187zm6.096 3.64l2.444-2.624c-.034-.069-.07-.138-.104-.204l-3.522.487 1.182 2.341zM46.84 53.12l-1.759-2.983c.57-.356 1.12-.697 1.769-1.105l5.048 8.414c-1.525.884-2.951 1.82-4.477 2.558-1.53.74-3.03.135-3.857-1.349-.804-1.44-.517-2.939.834-3.956.75-.564 1.578-1.027 2.442-1.579zm2.414 4.021c-.55-.92-1.042-1.737-1.569-2.615-.782.514-1.472.9-2.083 1.386-.608.482-.623 1.134-.232 1.783.388.644.946.966 1.672.636.735-.335 1.428-.763 2.212-1.19zM42.82 12.651c-.533 1.037-1.02 1.989-1.562 3.042l-1.892-.891 4.403-8.772c1.6.85 3.176 1.578 4.636 2.492 1.34.84 1.605 2.415.857 3.872-.716 1.395-2.114 2.033-3.579 1.526-.944-.33-1.836-.808-2.864-1.269zm.734-1.497c.785.372 1.442.745 2.143 1.002.792.292 1.4-.002 1.787-.773.386-.766.158-1.373-.5-1.794-.647-.416-1.358-.73-2.098-1.117-.458.918-.859 1.73-1.332 2.682zM16.105 25.958c-.076.217-.121.362-.176.503-.207.528-.418 1.055-.673 1.695l-7.4-2.878c-.446 1.097-.881 2.162-1.337 3.278l-1.577-.65 3.42-8.773 1.595.6-1.233 3.297 7.381 2.928zM32.099 58.758c.015-1.156.89-2.008 2.057-1.998 1.158.01 2.03.882 2.032 2.034.002 1.162-.97 2.109-2.122 2.065-1.154-.044-1.983-.928-1.967-2.1zM33.863 7.044c1.174-.014 2.052.817 2.086 1.977a2.05 2.05 0 01-2.057 2.124 2.062 2.062 0 01-2.046-2.048 2.015 2.015 0 012.017-2.053z" transform="translate(1 1)"/>
    </g>
</svg>
