<svg width="42" height="30" viewBox="0 0 42 30" fill="none" xmlns="http://www.w3.org/2000/svg">
<path d="M29.2063 11.1911C28.7081 15.2028 25.2487 18.3201 21.0659 18.3201C18.7837 18.3201 16.7169 17.3914 15.2279 15.8966L13.753 17.3577C15.6195 19.2269 18.2082 20.3874 21.0659 20.3874C26.7408 20.3874 31.3576 15.8145 31.3576 10.1937C31.3576 9.83026 31.3374 9.47145 31.2998 9.11781L29.2063 11.1911Z" fill="#0C2343"/>
<path d="M12.8614 10.1937C12.8614 5.71286 16.542 2.06726 21.0659 2.06726C24.0965 2.06726 26.7465 3.70443 28.1673 6.13164L29.683 4.63016C27.844 1.84537 24.6693 0 21.0659 0C15.7636 0 11.3862 3.99243 10.8341 9.1015L12.9226 11.1701C12.8838 10.8497 12.8614 10.5244 12.8614 10.1937Z" fill="#0C2343"/>
<path d="M13.3878 16.7047L22.5493 7.63009L21.3363 6.42875C21.1223 6.21694 20.8267 6.08589 20.5001 6.08589C20.1736 6.08589 19.8781 6.2169 19.6642 6.42875L13.3878 12.6454L10.6194 9.90382C10.4214 9.70739 10.1476 9.58592 9.84513 9.58592C9.54254 9.58592 9.26883 9.70742 9.07079 9.90358L7.79599 11.1661L13.3878 16.7047Z" fill="#59BA4B"/>
<path d="M20.6893 10.7377L22.6154 12.6454L31.3179 4.02585C31.5318 3.81397 31.8274 3.68295 32.1539 3.68295C32.4804 3.68295 32.776 3.81397 32.9901 4.02585L34.2031 5.22719L22.6154 16.7047L18.5941 12.7216L20.6893 10.7377Z" fill="#59BA4B"/>
<path d="M31.2621 29.8754H29.5335L28.5066 26.6585H28.4858L27.4799 29.8754H25.751L23.949 24.7074H25.169C25.3451 24.7074 25.5225 24.7622 25.6735 24.8763C25.824 24.9903 25.9243 25.1453 25.9706 25.3136L26.7046 27.9763H26.736L27.6686 24.7074H29.3971L30.3611 27.9763H30.3819L31.1251 25.3113C31.1718 25.1436 31.2722 24.989 31.4227 24.8755C31.5731 24.762 31.7503 24.7074 31.926 24.7074H33.0748L31.2621 29.8754Z" fill="#59BA4B"/>
<path d="M34.7503 23.8259C34.1949 23.8259 33.7651 23.4003 33.7651 22.8918C33.7651 22.3937 34.1949 21.9579 34.7503 21.9579C35.2948 21.9579 35.7349 22.3729 35.7349 22.8918C35.7349 23.4211 35.2948 23.8259 34.7503 23.8259Z" fill="#59BA4B"/>
<path d="M33.7651 29.8754V25.5304C33.7651 25.3198 33.8463 25.1091 34.0084 24.9484C34.1706 24.7878 34.3835 24.7074 34.5961 24.7074H35.4834V29.8754H33.7651Z" fill="#59BA4B"/>
<path d="M40.2711 29.8754V27.0527C40.2711 26.4819 40.114 25.9631 39.4958 25.9631C38.8881 25.9631 38.5739 26.482 38.5739 27.0735V29.8755H36.8449V24.7074H37.6801C37.8926 24.7074 38.1052 24.7878 38.2675 24.9483C38.4299 25.1091 38.511 25.3198 38.511 25.5304V25.4235H38.5319C38.7729 24.9668 39.3701 24.5621 40.0928 24.5621C41.497 24.5621 42 25.6414 42 26.6792V29.8755L40.2711 29.8754Z" fill="#59BA4B"/>
<path d="M3.88691 24.0432V29.8754H2.09534V24.0432H0V23.3511C0 23.1405 0.081097 22.9298 0.24329 22.769C0.405484 22.6085 0.618249 22.5281 0.830879 22.5281H5.98252V23.2202C5.98252 23.4308 5.90143 23.6415 5.73923 23.8023C5.5769 23.9628 5.36427 24.0432 5.15164 24.0432H3.88691Z" fill="#0C2343"/>
<path d="M5.62576 25.413C6.23356 24.8422 7.10311 24.5413 7.95177 24.5413C9.70159 24.5413 10.351 25.3923 10.351 27.2707V29.8754H9.27791C9.15039 29.8754 9.02273 29.8272 8.92543 29.7308C8.82816 29.6346 8.77931 29.508 8.77931 29.3816V29.3254H8.74811C8.48622 29.7509 7.889 30 7.27062 30C6.44308 30 5.37441 29.5953 5.37441 28.381C5.37441 26.8866 7.20786 26.6376 8.72722 26.6376V26.5545C8.72722 26.046 8.31854 25.8073 7.78409 25.8073C7.29165 25.8073 6.80975 26.046 6.49541 26.3367L5.62576 25.413ZM8.77931 27.6235H8.55957C7.80511 27.6235 6.95628 27.7169 6.95628 28.3292C6.95628 28.7236 7.35452 28.8585 7.7003 28.8585C8.39185 28.8585 8.77927 28.4433 8.77927 27.7998L8.77931 27.6235Z" fill="#0C2343"/>
<path d="M15.6238 29.8754C15.4944 29.8754 15.3628 29.8457 15.2398 29.7824C15.1171 29.7189 15.0172 29.6293 14.9429 29.5241L14.0699 28.2877L13.1659 29.5329C13.0914 29.6357 12.992 29.7231 12.8706 29.7848C12.7489 29.8465 12.6193 29.8754 12.4913 29.8754H10.9266L13.0117 27.1669L11.1257 24.7074H12.6941C12.8236 24.7074 12.9549 24.7371 13.078 24.8005C13.2005 24.8639 13.3005 24.9535 13.3749 25.0588L14.1013 26.0876L14.8378 25.0554C14.9124 24.9511 15.0121 24.8623 15.1344 24.7995C15.2567 24.7368 15.3876 24.7074 15.5165 24.7074H17.0247L15.149 27.1669L17.2133 29.8754H15.6238Z" fill="#0C2343"/>
<path d="M23.0147 28.6013C22.8523 28.4407 22.6397 28.3604 22.4272 28.3604H20.2302L21.9484 26.8452C22.6294 26.2432 23.2477 25.631 23.2477 24.5828C23.2477 23.047 21.9272 22.3309 20.5654 22.3309C19.1194 22.3309 17.9039 23.213 17.7364 24.6969L17.6868 25.4193H18.5937C18.8007 25.4193 19.0753 25.3109 19.1659 25.1868C19.445 24.8051 19.5252 23.8148 20.471 23.8148C21.0262 23.8148 21.3931 24.178 21.3931 24.6969C21.3931 25.1432 21.1519 25.4857 20.7851 25.8282L17.8935 28.4226V29.8755H23.2581V29.1834C23.2581 28.9727 23.1768 28.7621 23.0147 28.6013Z" fill="#0C2343"/>
</svg>
