<svg xmlns="http://www.w3.org/2000/svg" width="33" height="33" fill="#5aaaf6" xmlns:v="https://vecta.io/nano"><path fill-rule="evenodd" d="M6.221 18.971c1.634-4.304 6.208-7.652 6.208-7.652h7.749c4.155 3.635 6.582 6.935 6.909 10.33s-.747 8.991-11.437 8.848-11.063-7.222-9.43-11.526zm12.566.079h-.981a3.19 3.19 0 0 0-.424-1.05h1.405c.403 0 .732-.337.732-.75s-.329-.75-.732-.75h-5.723c-.402 0-.732.337-.732.75s.329.75.732.75h1.64c.688 0 1.288.45 1.559 1.05h-3.198c-.402 0-.732.337-.732.75s.329.75.732.75h3.198c-.095.172-.205.33-.337.472-.329.33-.768.51-1.222.502h-1.64c-.41.008-.739.345-.732.765 0 .202.088.397.227.54l4.091 3.967c.293.285.754.27 1.032-.03a.76.76 0 0 0-.029-1.057l-2.759-2.677a3.12 3.12 0 0 0 2.057-.937 3.38 3.38 0 0 0 .856-1.545h.981c.403 0 .732-.337.732-.75s-.329-.75-.732-.75z"/><path d="M20.238 10.171c0 .317-.251.574-.56.574h-6.862c-.309 0-.56-.257-.56-.574s.251-.574.56-.574h6.862c.309 0 .56.257.56.574zm-7.983-1.148L9.419 3.451c-.21-.694.607-1.339 1.727-.67s3.338.981 4.131.598 3.128-1.531 3.898-.383 1.307 1.124 2.031.837 1.424-.287 1.097.478l-2.065 4.711h-7.983z"/></svg>