<svg width="33" height="32" viewBox="0 0 33 32" fill="none" xmlns="http://www.w3.org/2000/svg">
<path d="M27.3638 7.17892L27.0373 6.77759L22.0625 11.748L22.2806 12.0672C23.0727 13.2297 23.4916 14.59 23.4916 16.0008C23.4916 17.4115 23.0732 18.7718 22.2806 19.9343L22.0625 20.2535L27.0369 25.224L27.3633 24.8226C29.3837 22.3381 30.4966 19.2049 30.4966 16.0012C30.4966 12.7976 29.3842 9.66345 27.3638 7.17892Z" fill="#FE794D"/>
<path d="M20.4261 21.7902C19.2627 22.5821 17.9013 23.0002 16.4895 23.0002C13.1306 23.0002 10.2378 20.6086 9.61149 17.313L9.53957 16.9336H2.5L2.55277 17.4483C3.28882 24.6042 9.28037 30.0002 16.4895 30.0002C19.6956 30.0002 22.8313 28.8882 25.3178 26.8694L25.7194 26.5432L20.7451 21.5723L20.4261 21.7902Z" fill="#FE794D"/>
<path d="M9.61149 14.6872C10.2378 11.3916 13.1306 8.99999 16.4895 8.99999C17.9008 8.99999 19.2622 9.41812 20.4261 10.2101L20.7455 10.428L25.7199 5.45706L25.3182 5.13086C22.8313 3.11206 19.6956 2 16.4895 2C9.28036 2 3.28882 7.39606 2.55277 14.5519L2.5 15.0666H9.53957L9.61149 14.6872Z" fill="#FE794D"/>
</svg>
