<svg width="32" height="32" viewBox="0 0 32 32" fill="none" xmlns="http://www.w3.org/2000/svg">
<path d="M0 10.0001C0 4.47727 4.47715 0.00012207 10 0.00012207H22C27.5228 0.00012207 32 4.47727 32 10.0001V22.0001C32 27.523 27.5228 32.0001 22 32.0001H10C4.47715 32.0001 0 27.523 0 22.0001V10.0001Z" fill="#E0F8EE"/>
<path d="M22.4702 22.503C22.3032 22.2797 21.9603 22.1262 21.5632 22.1262C21.4695 22.1262 21.3793 22.1354 21.2931 22.1514C20.5611 21.6276 19.5224 21.3001 18.3694 21.3001C17.9689 21.3001 17.5825 21.3401 17.2176 21.4135C16.7186 21.1546 16.0936 21.0001 15.4146 21.0001C14.6416 21.0001 13.9382 21.2 13.4116 21.527C12.2491 21.5494 11.2214 21.9339 10.5705 22.5194C10.4593 22.5079 10.346 22.5001 10.23 22.5001C8.99839 22.5001 8 23.1717 8 24.0001H23.8788C23.9565 23.8728 24 23.7337 24 23.5876C24 23.0068 23.3224 22.5337 22.4702 22.503Z" fill="#33CF90"/>
<path d="M21.6286 8.00012C21.6286 8.00012 20.0776 9.57392 17.0598 10.7261C13.9279 11.9662 13.9954 14.8938 15.3307 17.2748C15.5863 15.6087 17.2003 13.5791 18.7629 12.6139C18.7963 12.5964 18.8376 12.6094 18.855 12.6428C18.8711 12.6734 18.8585 12.7125 18.831 12.732C18.831 12.732 18.5086 12.936 18.1066 13.3345C17.7016 13.7283 17.2347 14.3255 16.845 14.9674C16.451 15.6074 16.1314 16.2876 15.9253 16.8063C15.8184 17.0694 15.7487 17.2704 15.693 17.4346C15.6789 17.4769 15.671 17.5005 15.6603 17.5327C15.6605 17.5329 15.6608 17.533 15.6611 17.5332C15.2346 18.805 14.9922 19.7784 14.8681 20.6787C14.7219 20.0835 14.4896 19.6572 14.1677 19.1082C14.1624 19.0983 14.1568 19.088 14.1492 19.074C14.1003 18.9843 14.0395 18.8747 13.9508 18.7328C13.7788 18.4525 13.5245 18.0901 13.2311 17.7584C12.9399 17.4252 12.6086 17.1259 12.3337 16.9382C12.06 16.7476 11.8523 16.6616 11.8523 16.6616C11.8343 16.6531 11.8231 16.6318 11.8293 16.6124C11.8361 16.5912 11.8587 16.5795 11.8799 16.5862C12.8844 16.9886 14.0265 18.0034 14.3433 18.9446C14.435 18.7624 14.5258 18.3606 14.5569 18.1912C14.8007 16.8652 14.0014 15.5766 12.6773 15.3186C10.8093 14.9548 9.75 14.198 9.75 14.198C9.75 14.198 9.9398 17.2656 10.9985 18.6738C11.7769 19.7091 13.0719 19.8282 13.9468 19.2923C14.4007 20.0665 14.6952 20.6038 14.7597 22.1146C14.7549 22.3873 14.758 22.665 14.7669 22.9538C14.8636 22.9624 14.959 22.9775 15.0523 23.0001C15.05 22.9304 15.048 22.8612 15.0464 22.7927H15.0569C15.0569 22.5421 15.0526 22.3135 15.044 22.1028C15.0692 20.7741 15.2835 19.5594 15.9165 17.6639C17.5541 18.4232 19.808 17.8792 20.8452 15.8483C22.2053 13.1853 21.6286 8.00012 21.6286 8.00012Z" fill="#33CF90"/>
</svg>
