<?xml version="1.0" encoding="utf-8"?>
<!-- Generator: Adobe Illustrator 25.3.0, SVG Export Plug-In . SVG Version: 6.00 Build 0)  -->
<svg version="1.1" id="Layer_1" xmlns="http://www.w3.org/2000/svg" xmlns:xlink="http://www.w3.org/1999/xlink" x="0px" y="0px"
	 viewBox="0 0 280 120" style="enable-background:new 0 0 280 120;" xml:space="preserve">
<style type="text/css">
	.st0{fill:url(#SVGID_1_);}
	.st1{fill:#1EB646;}
	.st2{fill:#FFFFFF;}
	.st3{fill:#CADDFF;}
	.st4{fill:#5F99FF;}
	.st5{fill:#99B9FF;}
	.st6{fill:#5479F7;}
	.st7{fill:#A0C4E7;}
	.st8{fill:#B1CEEB;}
	.st9{fill:#D3E4F5;}
	.st10{fill:#7BABDB;}
	.st11{fill:#1F0D50;}
	.st12{opacity:0.26;fill:#480FA3;enable-background:new    ;}
</style>
<g>
	<g id="Layer_1_1_">
		
			<linearGradient id="SVGID_1_" gradientUnits="userSpaceOnUse" x1="1049.4294" y1="-842.3158" x2="216.0295" y2="-1240.0458" gradientTransform="matrix(0.44 0 0 -0.16 -234.59 -90.81)">
			<stop  offset="0" style="stop-color:#8534F2"/>
			<stop  offset="1" style="stop-color:#BA74FF"/>
		</linearGradient>
		<rect x="-1.4" y="-4.2" class="st0" width="285.9" height="126"/>
		<path class="st1" d="M282.4,25.8h-59.7c-3.2,0-5.8-2.6-5.8-5.8v-9.7c0-3.2,2.6-5.8,5.8-5.8l0,0h59.7l0,0V25.8L282.4,25.8z"/>
		<path class="st2" d="M225.6,19.7c-0.1,0-0.1-0.1-0.1-0.2v-7.1c0-0.1,0-0.1,0.1-0.2c0-0.1,0.1-0.1,0.2-0.1h0.9
			c0.1,0,0.3,0.1,0.3,0.2l3.1,4.9v-4.8c0-0.1,0-0.1,0.1-0.2c0-0.1,0.1-0.1,0.2-0.1h0.9c0.1,0,0.1,0,0.2,0.1c0.1,0,0.1,0.1,0.1,0.2
			v7.1c0,0.1,0,0.1-0.1,0.2c0,0.1-0.1,0.1-0.2,0.1h-0.9c-0.1,0-0.3-0.1-0.3-0.2l-3.1-4.8v4.7c0,0.1,0,0.1-0.1,0.2
			c0,0.1-0.1,0.1-0.2,0.1h-0.9C225.7,19.8,225.7,19.7,225.6,19.7z"/>
		<path class="st2" d="M233.4,19.7c-0.1,0-0.1-0.1-0.1-0.2v-7.1c0-0.1,0-0.1,0.1-0.2c0-0.1,0.1-0.1,0.2-0.1h4.8c0.1,0,0.1,0,0.2,0.1
			c0.1,0,0.1,0.1,0.1,0.2v0.8c0,0.1,0,0.1-0.1,0.2c-0.1,0.1-0.1,0.1-0.2,0.1h-3.5v2.1h3.3c0.1,0,0.1,0,0.2,0.1
			c0.1,0,0.1,0.1,0.1,0.2v0.8c0,0.1-0.1,0.3-0.3,0.3c0,0,0,0,0,0h-3.3v2.7c0,0.1,0,0.1-0.1,0.2c-0.1,0.1-0.1,0.1-0.2,0.1h-1
			C233.5,19.8,233.4,19.7,233.4,19.7z"/>
		<path class="st2" d="M240.5,19.1c-0.6-0.6-0.9-1.4-0.9-2.2c0-0.2,0-0.5,0-0.9s0-0.7,0-0.9c0-0.8,0.3-1.7,0.9-2.2
			c1.4-1,3.3-1,4.6,0c0.6,0.6,0.9,1.4,0.9,2.2c0,0.4,0,0.7,0,0.9s0,0.5,0,0.9c0,0.8-0.3,1.7-0.9,2.2
			C243.7,20.1,241.8,20.1,240.5,19.1L240.5,19.1z M244,18.2c0.3-0.4,0.5-0.9,0.5-1.4c0-0.4,0-0.7,0-0.9s0-0.5,0-0.9
			c0-0.5-0.1-1-0.4-1.3c-0.7-0.6-1.7-0.6-2.3,0c-0.3,0.4-0.5,0.8-0.5,1.3c0,0.2,0,0.5,0,0.9c0,0.4,0,0.7,0,0.9c0,0.5,0.1,1,0.5,1.3
			C242.3,18.7,243.3,18.7,244,18.2L244,18.2z"/>
		<path class="st2" d="M249.1,19.7c0,0-0.1-0.1-0.1-0.2v-0.1l2.6-7.1c0.1-0.2,0.2-0.3,0.4-0.3h1.2c0.2,0,0.3,0.1,0.4,0.3l2.6,7.1
			v0.1c0,0.1,0,0.1-0.1,0.2c0,0-0.1,0.1-0.2,0.1h-1c-0.1,0-0.3-0.1-0.3-0.2l-0.5-1.3H251l-0.5,1.3c0,0.1-0.2,0.2-0.3,0.2h-1
			C249.1,19.8,249.1,19.7,249.1,19.7z M251.4,17h2.5l-1.2-3.4L251.4,17z"/>
		<path class="st2" d="M257.2,19.7c0-0.1-0.1-0.1-0.1-0.2v-7.3c0-0.1,0-0.1,0.1-0.2c0.1,0,0.1-0.1,0.2-0.1h0.9c0.1,0,0.1,0,0.2,0.1
			c0.1,0,0.1,0.1,0.1,0.2v7.3c0,0.1,0,0.1-0.1,0.2c0,0.1-0.1,0.1-0.2,0.1h-0.9C257.4,19.8,257.3,19.7,257.2,19.7z"/>
		<path class="st2" d="M260.6,19.2c-0.5-0.5-0.8-1.3-0.8-2v-0.3c0-0.8,0.2-1.6,0.7-2.2c1.1-1.1,2.9-1.1,4,0c0.5,0.6,0.8,1.3,0.7,2.1
			v0.2c0,0.1,0,0.1-0.1,0.2c-0.1,0-0.1,0.1-0.2,0.1h-3.6v0.1c0,0.4,0.1,0.7,0.3,1c0.2,0.3,0.5,0.4,0.9,0.4c0.4,0,0.8-0.2,1-0.5
			c0-0.1,0.1-0.1,0.2-0.1h0.2h1c0.1,0,0.1,0,0.2,0c0,0,0.1,0.1,0.1,0.1c0,0.2-0.1,0.5-0.3,0.6c-0.3,0.3-0.6,0.5-0.9,0.6
			c-0.4,0.2-0.9,0.3-1.4,0.3C261.9,19.9,261.1,19.7,260.6,19.2z M263.8,16.4L263.8,16.4c0-0.4-0.1-0.7-0.3-1
			c-0.2-0.3-0.5-0.4-0.9-0.4c-0.3,0-0.7,0.1-0.9,0.4c-0.2,0.3-0.3,0.6-0.3,1l0,0H263.8z"/>
		<path class="st2" d="M266.5,19.7c-0.1,0-0.1-0.1-0.1-0.2v-5.2c0-0.1,0-0.1,0.1-0.2c0-0.1,0.1-0.1,0.2-0.1h0.9c0.1,0,0.1,0,0.2,0.1
			c0.1,0.1,0.1,0.1,0.1,0.2v0.4c0.4-0.5,1-0.8,1.6-0.7h0.5c0.1,0,0.1,0,0.2,0.1c0.1,0,0.1,0.1,0.1,0.2v0.8c0,0.1,0,0.1-0.1,0.2
			c0,0.1-0.1,0.1-0.2,0.1H269c-0.5-0.1-1,0.3-1.1,0.9c0,0.1,0,0.2,0,0.2v3c0,0.1-0.1,0.3-0.3,0.3h-1
			C266.6,19.8,266.5,19.7,266.5,19.7z"/>
		<path class="st2" d="M272.1,19.2c-0.4-0.4-0.5-1-0.5-1.5v-2.5h-0.9c-0.1,0-0.1,0-0.2-0.1c-0.1,0-0.1-0.1-0.1-0.2v-0.6
			c0-0.1,0-0.1,0.1-0.2c0-0.1,0.1-0.1,0.2-0.1h0.9v-1.8c0-0.1,0-0.1,0.1-0.2c0,0,0.1-0.1,0.2-0.1h0.9c0.1,0,0.1,0,0.2,0.1
			c0,0.1,0.1,0.1,0.1,0.2v1.8h1.4c0.1,0,0.1,0,0.2,0.1c0,0.1,0.1,0.1,0.1,0.2V15c0,0.1,0,0.1-0.1,0.2c-0.1,0-0.1,0.1-0.2,0.1H273
			v2.3c0,0.2,0,0.5,0.2,0.7c0.1,0.2,0.3,0.3,0.5,0.2h0.8c0.1,0,0.2,0.1,0.3,0.2c0,0,0,0,0,0v0.7c0,0.1,0,0.1-0.1,0.2
			c0,0.1-0.1,0.1-0.2,0.1h-0.9C273,19.8,272.5,19.6,272.1,19.2z"/>
		<path class="st2" d="M19.6,28.6c-0.1-0.1-0.1-0.1-0.1-0.2c0,0,0-0.1,0-0.1l3.5-9.6c0.1-0.3,0.3-0.5,0.6-0.4H26
			c0.3,0,0.5,0.2,0.6,0.4l3.5,9.6c0,0,0,0.1,0,0.1c0,0.1,0,0.2-0.1,0.2c-0.1,0.1-0.1,0.1-0.2,0.1h-2c-0.2,0-0.4-0.1-0.5-0.3L26.8,27
			h-3.9l-0.5,1.5c-0.1,0.2-0.3,0.3-0.5,0.3h-1.9C19.8,28.8,19.7,28.7,19.6,28.6z M23.5,24.7h2.7l-1.3-3.8L23.5,24.7z"/>
		<path class="st2" d="M31.6,28c-0.6-0.7-0.9-1.7-0.9-2.6v-1.1c0-0.9,0.3-1.8,0.9-2.6c1.2-1.2,3.2-1.3,4.5-0.1v-3.2
			c0-0.1,0-0.2,0.1-0.3c0.1-0.1,0.2-0.1,0.3-0.1h1.9c0.1,0,0.2,0,0.3,0.1c0.1,0.1,0.1,0.2,0.1,0.3v9.9c0,0.1,0,0.2-0.1,0.3
			c-0.1,0.1-0.2,0.1-0.3,0.1h-1.8c-0.2,0-0.4-0.2-0.4-0.4v-0.5c-0.6,0.7-1.4,1.1-2.3,1C33.1,28.9,32.2,28.6,31.6,28z M35.7,26.4
			c0.2-0.3,0.3-0.6,0.3-1c0-0.3,0-0.5,0-0.6c0-0.1,0-0.3,0-0.5c0-0.4-0.1-0.7-0.3-1c-0.3-0.3-0.6-0.4-1-0.4c-0.4-0.1-0.8,0.1-1,0.4
			c-0.2,0.3-0.3,0.7-0.3,1.1v0.5v0.5c0,0.4,0.1,0.8,0.3,1.1c0.5,0.5,1.4,0.5,1.9,0C35.6,26.5,35.6,26.5,35.7,26.4L35.7,26.4z"/>
		<path class="st2" d="M40.6,19.7c-0.1-0.1-0.1-0.2-0.1-0.3v-1.4c0-0.1,0-0.2,0.1-0.3c0.1-0.1,0.2-0.1,0.3-0.1h1.9
			c0.1,0,0.2,0,0.3,0.1c0.1,0.1,0.1,0.2,0.1,0.3v1.4c0,0.1,0,0.2-0.1,0.3c-0.1,0.1-0.2,0.1-0.3,0.1h-1.9
			C40.8,19.9,40.7,19.8,40.6,19.7z M40.6,28.6c-0.1-0.1-0.1-0.2-0.1-0.3v-7c0-0.1,0-0.2,0.1-0.3c0.1-0.1,0.2-0.1,0.3-0.1h1.9
			c0.1,0,0.2,0,0.3,0c0.1,0.1,0.1,0.2,0.1,0.3v7c0,0.1,0,0.2-0.1,0.3c-0.1,0.1-0.2,0.1-0.3,0.1h-1.9C40.8,28.7,40.7,28.7,40.6,28.6
			L40.6,28.6z"/>
		<path class="st2" d="M45.8,25.8V23h-1.2c-0.1,0-0.2,0-0.3-0.1c-0.1-0.1-0.1-0.2-0.1-0.3v-1.3c0-0.1,0-0.2,0.1-0.3
			c0.1-0.1,0.2-0.1,0.3-0.1h1.2v-2.5c0-0.1,0-0.2,0.1-0.3c0.1-0.1,0.2-0.1,0.3-0.1H48c0.2,0,0.4,0.2,0.4,0.4l0,0v2.5h1.9
			c0.1,0,0.2,0,0.3,0.1c0.1,0.1,0.1,0.2,0.1,0.3v1.3c0,0.1,0,0.2-0.1,0.3c-0.1,0.1-0.2,0.1-0.3,0.1h-1.9v2.5c0,0.3,0,0.6,0.2,0.8
			c0.2,0.2,0.4,0.3,0.6,0.3h1.2c0.1,0,0.2,0,0.3,0.1c0.1,0.1,0.1,0.2,0.1,0.3v1.4c0,0.2-0.2,0.4-0.3,0.4c0,0,0,0,0,0h-1.4
			C46.8,28.7,45.8,27.7,45.8,25.8z"/>
		<path class="st2" d="M53.2,31.5c-0.1-0.1-0.1-0.1-0.1-0.2c0-0.1,0-0.1,0-0.2l1.2-2.8l-2.9-6.8c0-0.1,0-0.1,0-0.2
			c0-0.1,0.1-0.2,0.1-0.2c0.1-0.1,0.1-0.1,0.2-0.1h1.8c0.2,0,0.4,0.1,0.4,0.3l1.7,4.3l1.7-4.3c0.1-0.2,0.2-0.3,0.5-0.3h1.8
			c0.1,0,0.2,0,0.2,0.1c0.1,0.1,0.1,0.1,0.1,0.2c0,0.1,0,0.1,0,0.2l-4.2,9.8c-0.1,0.2-0.3,0.3-0.5,0.3h-1.7
			C53.3,31.6,53.3,31.5,53.2,31.5z"/>
		<path class="st2" d="M61.5,28.6c-0.4-0.2-0.8-0.5-1-0.8c-0.2-0.3-0.4-0.8-0.4-1.2c0-0.7,0.3-1.3,0.8-1.7c0.7-0.5,1.5-0.8,2.3-0.9
			l1.9-0.3v-0.2c0-0.3-0.1-0.6-0.2-0.8c-0.2-0.2-0.5-0.3-0.8-0.2c-0.2,0-0.4,0-0.5,0.1c-0.2,0.1-0.3,0.2-0.5,0.3
			c-0.1,0.1-0.2,0.2-0.3,0.2c0,0.1-0.1,0.1-0.2,0.1H61c-0.1,0-0.2,0-0.2-0.1c-0.1-0.1-0.1-0.1-0.1-0.2c0-0.3,0.2-0.7,0.4-0.9
			c0.3-0.4,0.7-0.7,1.2-0.9c0.6-0.3,1.3-0.4,2-0.4c1-0.1,2,0.2,2.7,0.8c0.6,0.6,0.9,1.4,0.9,2.2v4.5c0,0.1,0,0.2-0.1,0.3
			c-0.1,0.1-0.2,0.1-0.3,0.1h-1.9c-0.1,0-0.2,0-0.3-0.1c-0.1-0.1-0.1-0.2-0.1-0.3v-0.5c-0.2,0.3-0.5,0.6-0.9,0.8
			c-0.4,0.2-0.9,0.3-1.4,0.3C62.5,28.9,62,28.8,61.5,28.6z M64.8,26.7c0.3-0.4,0.4-0.8,0.4-1.3v-0.2L64,25.5
			c-0.8,0.2-1.3,0.5-1.3,0.9c0,0.2,0.1,0.4,0.3,0.5c0.2,0.1,0.5,0.2,0.7,0.2C64.2,27.1,64.5,27,64.8,26.7z"/>
		<path class="st2" d="M73,28.6c-0.1-0.1-0.1-0.2-0.1-0.3v-9.7c0-0.1,0-0.2,0.1-0.3c0.1-0.1,0.2-0.1,0.3-0.1h4.6
			c1-0.1,2,0.2,2.8,0.8c0.6,0.6,1,1.4,0.9,2.2c0,0.4-0.1,0.9-0.4,1.2c-0.2,0.3-0.5,0.6-0.8,0.8c0.4,0.2,0.8,0.5,1,0.9
			c0.3,0.4,0.4,0.9,0.4,1.4c0,0.9-0.3,1.8-1,2.4C80,28.5,79,28.8,78,28.7h-4.8C73.1,28.7,73.1,28.7,73,28.6z M77.6,22.4
			c0.3,0,0.6-0.1,0.9-0.3c0.2-0.2,0.3-0.5,0.3-0.8c0-0.3-0.1-0.6-0.3-0.8c-0.2-0.2-0.5-0.3-0.9-0.3h-1.9v2.1L77.6,22.4z M77.7,26.7
			c0.3,0,0.7-0.1,0.9-0.3c0.2-0.2,0.3-0.5,0.3-0.8c0-0.3-0.1-0.6-0.3-0.9c-0.2-0.2-0.6-0.4-0.9-0.3h-2v2.4H77.7z"/>
		<path class="st2" d="M83.4,19.7c-0.1-0.1-0.1-0.2-0.1-0.3v-1.4c0-0.1,0-0.2,0.1-0.3c0.1-0.1,0.2-0.1,0.3-0.1h1.9
			c0.1,0,0.2,0,0.3,0.1c0.1,0.1,0.1,0.2,0.1,0.3v1.4c0,0.1,0,0.2-0.1,0.3c-0.1,0.1-0.2,0.1-0.3,0.1h-1.9
			C83.5,19.9,83.5,19.8,83.4,19.7z M83.4,28.6c-0.1-0.1-0.1-0.2-0.1-0.3v-7c0-0.1,0-0.2,0.1-0.3c0.1-0.1,0.2-0.1,0.3-0.1h1.9
			c0.1,0,0.2,0,0.3,0.1c0.1,0.1,0.1,0.2,0.1,0.3v7.1c0,0.1,0,0.2-0.1,0.3c-0.1,0.1-0.2,0.1-0.3,0.1h-1.9
			C83.5,28.8,83.4,28.7,83.4,28.6L83.4,28.6z"/>
		<path class="st2" d="M87.7,28.6c-0.1-0.1-0.1-0.2-0.1-0.3v-7c0-0.1,0-0.2,0.1-0.3C87.8,21,87.9,21,88,21h1.8
			c0.2,0,0.4,0.2,0.4,0.4c0,0,0,0,0,0v0.6c0.3-0.3,0.6-0.5,1-0.7C91.6,21,92,21,92.5,21h0.7c0.2,0,0.4,0.2,0.4,0.4V23
			c0,0.1,0,0.2-0.1,0.3c-0.1,0.1-0.2,0.1-0.3,0.1h-1.5c-0.3,0-0.7,0.1-0.9,0.3c-0.2,0.3-0.3,0.6-0.3,0.9v3.8c0,0.1,0,0.2-0.1,0.3
			c-0.1,0.1-0.2,0.1-0.3,0.1h-2C87.9,28.8,87.8,28.7,87.7,28.6z"/>
		<path class="st2" d="M94.7,28.6c-0.1-0.1-0.1-0.2-0.1-0.3v-9.9c0-0.1,0-0.2,0.1-0.3c0.1-0.1,0.2-0.1,0.3-0.1h1.9
			c0.1,0,0.2,0,0.3,0.1c0.1,0.1,0.1,0.2,0.1,0.3v9.9c0,0.2-0.2,0.4-0.3,0.4c0,0,0,0,0,0h-1.9C94.8,28.7,94.7,28.7,94.7,28.6z"/>
		<path class="st2" d="M99.8,28.6c-0.4-0.2-0.8-0.5-1-0.8c-0.2-0.3-0.4-0.8-0.4-1.2c0-0.7,0.3-1.3,0.8-1.7c0.7-0.5,1.5-0.8,2.3-0.9
			l1.9-0.3v-0.2c0-0.3-0.1-0.6-0.2-0.8c-0.2-0.2-0.5-0.3-0.8-0.2c-0.2,0-0.3,0-0.5,0.1c-0.2,0.1-0.3,0.2-0.5,0.3
			c-0.1,0.1-0.2,0.2-0.3,0.2c0,0.1-0.1,0.1-0.2,0.1h-1.8c-0.1,0-0.2,0-0.2-0.1c-0.1-0.1-0.1-0.1-0.1-0.2c0-0.3,0.2-0.7,0.4-0.9
			c0.3-0.4,0.7-0.7,1.2-0.9c0.6-0.3,1.3-0.4,2-0.4c1-0.1,2,0.2,2.8,0.8c0.6,0.6,0.9,1.4,0.9,2.2v4.5c0,0.2-0.2,0.4-0.3,0.4
			c0,0,0,0,0,0H104c-0.1,0-0.2,0-0.3-0.1c-0.1-0.1-0.1-0.2-0.1-0.3v-0.5c-0.2,0.3-0.6,0.6-0.9,0.8c-0.4,0.2-0.9,0.3-1.4,0.3
			C100.8,28.9,100.3,28.8,99.8,28.6z M103.1,26.7c0.3-0.4,0.4-0.8,0.4-1.3v-0.2l-1.2,0.2c-0.8,0.2-1.3,0.5-1.3,0.9
			c0,0.2,0.1,0.4,0.3,0.5c0.2,0.1,0.5,0.2,0.7,0.2C102.4,27.1,102.8,27,103.1,26.7z"/>
		<path class="st2" d="M112.6,28.5c-0.6-0.2-1.1-0.6-1.5-1.1c-0.3-0.4-0.5-1-0.6-1.5c0-0.1,0-0.2,0.1-0.2c0.1-0.1,0.1-0.1,0.2-0.1h2
			c0.1,0,0.2,0,0.3,0.1c0.1,0.1,0.2,0.1,0.2,0.2c0.1,0.2,0.3,0.5,0.6,0.6c0.3,0.2,0.7,0.2,1.1,0.2c0.4,0,0.9-0.1,1.2-0.2
			c0.3-0.1,0.4-0.4,0.4-0.7c0-0.2-0.1-0.4-0.2-0.5c-0.2-0.2-0.5-0.3-0.7-0.4c-0.3-0.1-0.8-0.2-1.4-0.4c-1-0.1-1.9-0.5-2.7-1.1
			c-0.6-0.5-0.9-1.3-0.9-2.1c0-0.6,0.2-1.2,0.5-1.7c0.4-0.5,0.9-0.9,1.5-1.1c0.7-0.3,1.5-0.4,2.2-0.4c0.8,0,1.6,0.1,2.3,0.5
			c0.6,0.3,1.1,0.6,1.5,1.1c0.3,0.4,0.5,0.8,0.6,1.3c0,0.1,0,0.2-0.1,0.2c-0.1,0.1-0.1,0.1-0.2,0.1h-2.1c-0.2,0-0.4-0.1-0.5-0.3
			c-0.1-0.2-0.2-0.4-0.5-0.5c-0.3-0.2-0.6-0.2-0.9-0.2c-0.3,0-0.7,0.1-1,0.2c-0.2,0.1-0.4,0.4-0.3,0.7c0,0.3,0.2,0.6,0.4,0.7
			c0.5,0.2,1.1,0.4,1.7,0.5c0.8,0.1,1.5,0.3,2.2,0.6c1,0.4,1.7,1.4,1.6,2.5c0,0.6-0.2,1.3-0.6,1.8c-0.4,0.5-1,0.9-1.6,1.1
			C115.9,29,114.2,29,112.6,28.5L112.6,28.5z"/>
		<path class="st2" d="M121.7,28c-0.6-0.7-0.9-1.6-0.8-2.5v-4.2c0-0.1,0.1-0.2,0.1-0.3c0.1-0.1,0.2-0.1,0.3-0.1h2
			c0.1,0,0.2,0,0.3,0.1c0.1,0.1,0.1,0.2,0.1,0.3v4.1c0,0.9,0.4,1.4,1.2,1.4c0.3,0,0.7-0.1,0.9-0.4c0.2-0.3,0.4-0.6,0.3-1v-4.1
			c0-0.1,0-0.2,0.1-0.3c0.1-0.1,0.2-0.1,0.3-0.1h2c0.2,0,0.4,0.2,0.4,0.4c0,0,0,0,0,0v7c0,0.1,0,0.2-0.1,0.3
			c-0.1,0.1-0.2,0.1-0.3,0.1h-1.8c-0.1,0-0.2,0-0.3-0.1c-0.1-0.1-0.1-0.2-0.1-0.3v-0.6c-0.6,0.8-1.5,1.2-2.5,1.1
			C123,28.9,122.2,28.6,121.7,28z"/>
		<path class="st2" d="M130.7,28.6c-0.1-0.1-0.1-0.2-0.1-0.3v-7c0-0.1,0-0.2,0.1-0.3c0.1-0.1,0.2-0.1,0.3-0.1h1.9
			c0.1,0,0.2,0,0.3,0.1c0.1,0.1,0.1,0.2,0.1,0.3v0.6c0.3-0.3,0.6-0.6,1-0.8c0.5-0.2,1-0.3,1.5-0.3c0.5,0,1.1,0.1,1.5,0.4
			c0.4,0.3,0.8,0.7,1,1.2c0.3,0.6,0.4,1.2,0.4,1.8v4.2c0,0.2-0.2,0.4-0.3,0.4c0,0,0,0,0,0h-2c-0.1,0-0.2,0-0.3-0.1
			c-0.1-0.1-0.1-0.2-0.1-0.3v-4.1c0-0.4-0.1-0.7-0.3-1c-0.2-0.3-0.6-0.4-0.9-0.4c-0.4,0-0.7,0.1-0.9,0.4c-0.2,0.3-0.4,0.6-0.4,1v4.1
			c0,0.2-0.2,0.4-0.3,0.4c0,0,0,0,0,0h-2C130.8,28.7,130.7,28.7,130.7,28.6z"/>
		<path class="st2" d="M143.7,28.6c-0.1-0.1-0.1-0.2-0.1-0.3v-9.8c0-0.1,0-0.2,0.1-0.3c0.1-0.1,0.2-0.1,0.3-0.1h2.1
			c0.1,0,0.2,0,0.3,0.1c0.1,0.1,0.1,0.2,0.1,0.3v7.8h4.5c0.1,0,0.2,0,0.3,0.1c0.1,0.1,0.1,0.2,0.1,0.3v1.6c0,0.1,0,0.2-0.1,0.3
			c-0.1,0.1-0.2,0.1-0.3,0.1h-7C143.8,28.7,143.8,28.7,143.7,28.6z"/>
		<path class="st2" d="M152.5,19.7c-0.1-0.1-0.1-0.2-0.1-0.3v-1.4c0-0.1,0-0.2,0.1-0.3c0.1-0.1,0.2-0.1,0.3-0.1h1.9
			c0.1,0,0.2,0,0.3,0.1c0.1,0.1,0.1,0.2,0.1,0.3v1.4c0,0.1,0,0.2-0.1,0.3c-0.1,0.1-0.2,0.1-0.3,0.1h-1.9
			C152.7,19.9,152.6,19.8,152.5,19.7z M152.5,28.6c-0.1-0.1-0.1-0.2-0.1-0.3v-7c0-0.1,0-0.2,0.1-0.3c0.1-0.1,0.2-0.1,0.3-0.1h1.9
			c0.1,0,0.2,0,0.3,0c0.1,0.1,0.1,0.2,0.1,0.3v7c0,0.1,0,0.2-0.1,0.3c-0.1,0.1-0.2,0.1-0.3,0.1h-1.9
			C152.7,28.7,152.6,28.7,152.5,28.6L152.5,28.6z"/>
		<path class="st2" d="M157.8,28.6c-0.1-0.1-0.1-0.2-0.1-0.3V23h-1.1c-0.1,0-0.2,0-0.3-0.1c-0.1-0.1-0.1-0.2-0.1-0.3v-1.3
			c0-0.1,0-0.2,0.1-0.3c0.1-0.1,0.2-0.1,0.3-0.1h1.1v-0.5c-0.1-0.8,0.2-1.6,0.9-2.2c0.7-0.5,1.6-0.7,2.5-0.7h1.2
			c0.1,0,0.2,0,0.3,0.1c0.1,0.1,0.1,0.2,0.1,0.3v1.3c0,0.1,0,0.2-0.1,0.3c-0.1,0.1-0.2,0.1-0.3,0.1h-1.1c-0.3,0-0.5,0.1-0.7,0.2
			c-0.1,0.2-0.2,0.4-0.2,0.7v0.4h1.8c0.1,0,0.2,0,0.3,0.1c0.1,0.1,0.1,0.2,0.1,0.3v1.3c0,0.1,0,0.2-0.1,0.3
			c-0.1,0.1-0.2,0.1-0.3,0.1h-1.8v5.4c0,0.2-0.2,0.4-0.3,0.4c0,0,0,0,0,0h-1.8C158,28.7,157.9,28.7,157.8,28.6z"/>
		<path class="st2" d="M164.2,27.9c-0.8-0.8-1.1-1.8-1.1-2.9v-0.5c0-1,0.4-2,1.1-2.8c0.8-0.7,1.8-1.1,2.8-1c0.8,0,1.5,0.2,2.2,0.5
			c0.6,0.3,1,0.8,1.3,1.4c0.3,0.6,0.5,1.4,0.4,2.1v0.4c0,0.2-0.2,0.4-0.4,0.4c0,0,0,0,0,0h-4.8v0.1c0,0.4,0.1,0.8,0.3,1.1
			c0.2,0.3,0.5,0.4,0.9,0.4c0.2,0,0.4,0,0.6-0.1c0.2-0.1,0.3-0.2,0.4-0.4c0.1-0.1,0.1-0.1,0.2-0.2c0.1,0,0.2,0,0.3,0h2
			c0.1,0,0.2,0,0.2,0.1c0.1,0,0.1,0.1,0.1,0.2c0,0.3-0.2,0.7-0.4,0.9c-0.4,0.4-0.8,0.7-1.3,0.9c-0.6,0.3-1.3,0.4-2,0.4
			C166,28.9,165,28.6,164.2,27.9z M168.2,24L168.2,24c0-0.4-0.1-0.8-0.3-1.1c-0.2-0.3-0.5-0.4-0.9-0.4c-0.3,0-0.7,0.1-0.9,0.4
			c-0.2,0.3-0.3,0.7-0.3,1.1l0,0H168.2z"/>
		<path class="st2" d="M20.6,46.5c-0.1-0.1-0.1-0.2-0.1-0.3v-9.7c0-0.1,0-0.2,0.1-0.3c0.1-0.1,0.2-0.1,0.3-0.1h1.7
			c0.2,0,0.4,0.1,0.5,0.3l3.5,5.6v-5.5c0-0.1,0-0.2,0.1-0.3c0.1-0.1,0.2-0.1,0.3-0.1h1.9c0.1,0,0.2,0,0.3,0.1
			c0.1,0.1,0.1,0.2,0.1,0.3v9.7c0,0.1,0,0.2-0.1,0.3c-0.1,0.1-0.2,0.1-0.3,0.1h-1.7c-0.2,0-0.4-0.1-0.5-0.3L23.1,41v5.3
			c0,0.1,0,0.2-0.1,0.3c-0.1,0.1-0.2,0.1-0.3,0.1h-1.9C20.7,46.6,20.6,46.6,20.6,46.5z"/>
		<path class="st2" d="M30.5,46.5c-0.1-0.1-0.1-0.1-0.1-0.2c0,0,0-0.1,0-0.1l3.5-9.6c0.1-0.3,0.3-0.5,0.6-0.4h2.3
			c0.3,0,0.5,0.2,0.6,0.4l3.5,9.6c0,0,0,0.1,0,0.1c0,0.1,0,0.2-0.1,0.2c-0.1,0.1-0.1,0.1-0.2,0.1h-2c-0.2,0-0.4-0.1-0.5-0.3
			l-0.5-1.5h-3.9l-0.5,1.5c-0.1,0.2-0.3,0.3-0.5,0.3h-1.9C30.6,46.6,30.5,46.6,30.5,46.5z M34.3,42.6H37l-1.3-3.8L34.3,42.6z"/>
		<path class="st2" d="M43.4,46.3c-0.6-0.2-1.1-0.6-1.5-1.1c-0.3-0.4-0.5-1-0.6-1.5c0-0.1,0-0.2,0.1-0.2c0.1-0.1,0.1-0.1,0.2-0.1h2
			c0.1,0,0.2,0,0.3,0.1c0.1,0.1,0.2,0.1,0.2,0.2c0.1,0.3,0.4,0.5,0.6,0.6c0.3,0.2,0.7,0.2,1.1,0.2c0.4,0,0.9-0.1,1.2-0.2
			c0.3-0.1,0.4-0.4,0.4-0.7c0-0.2-0.1-0.4-0.2-0.5c-0.2-0.2-0.5-0.3-0.7-0.4c-0.3-0.1-0.8-0.2-1.4-0.3c-1-0.1-1.9-0.5-2.7-1.1
			c-0.6-0.5-0.9-1.3-0.9-2.1c0-0.6,0.2-1.2,0.5-1.7c0.4-0.5,0.9-0.9,1.5-1.1c0.7-0.3,1.5-0.4,2.2-0.4c0.8,0,1.6,0.1,2.3,0.5
			c0.6,0.3,1.1,0.6,1.5,1.1c0.3,0.4,0.5,0.8,0.5,1.3c0,0.1,0,0.2-0.1,0.2c-0.1,0.1-0.1,0.1-0.2,0.1h-2.1c-0.2,0-0.4-0.1-0.5-0.3
			c-0.1-0.2-0.2-0.4-0.5-0.5c-0.3-0.2-0.6-0.2-0.9-0.2c-0.3,0-0.7,0.1-1,0.2c-0.2,0.1-0.4,0.4-0.3,0.7c0,0.3,0.2,0.6,0.5,0.7
			c0.5,0.2,1.1,0.4,1.7,0.5c0.8,0.1,1.5,0.3,2.2,0.6c1.4,0.7,2,2.4,1.3,3.8c-0.1,0.2-0.2,0.3-0.3,0.5c-0.4,0.5-1,0.9-1.6,1.1
			C46.6,46.9,44.9,46.9,43.4,46.3L43.4,46.3z"/>
		<path class="st2" d="M52,46.5c-0.1-0.1-0.1-0.2-0.1-0.3v-9.7c0-0.1,0-0.2,0.1-0.3c0.1-0.1,0.2-0.1,0.3-0.1h3.9
			c1.2-0.1,2.5,0.3,3.5,1.1c0.8,0.8,1.3,1.9,1.3,3c0,0.3,0,0.7,0,1.2s0,0.9,0,1.1c-0.1,2.7-1.7,4.1-4.7,4.1h-4
			C52.2,46.6,52.1,46.5,52,46.5z M56.2,44.4c0.5,0,1-0.1,1.4-0.5c0.3-0.4,0.5-0.9,0.5-1.4c0-0.3,0-0.7,0-1.1s0-0.8,0-1.1
			c0-0.5-0.2-1-0.5-1.4c-0.4-0.3-0.9-0.5-1.4-0.5h-1.4v6L56.2,44.4z"/>
		<path class="st2" d="M61.6,46.5c-0.1-0.1-0.1-0.1-0.1-0.2c0,0,0-0.1,0-0.1l3.5-9.6c0.1-0.3,0.3-0.5,0.6-0.4H68
			c0.3,0,0.5,0.2,0.6,0.4l3.5,9.6c0,0,0,0.1,0,0.1c0,0.1,0,0.2-0.1,0.2c-0.1,0.1-0.1,0.1-0.2,0.1h-2c-0.2,0-0.4-0.1-0.5-0.3
			l-0.5-1.5h-3.9l-0.5,1.5c-0.1,0.2-0.3,0.3-0.5,0.3h-1.9C61.8,46.6,61.7,46.6,61.6,46.5z M65.5,42.6h2.7l-1.3-3.8L65.5,42.6z"/>
		<path class="st2" d="M79.3,47.5c-0.1-0.1-0.2-0.2-0.2-0.2l-0.5-0.7c-0.4,0.1-0.8,0.2-1.3,0.2c-1.2,0.1-2.4-0.3-3.4-1
			c-0.8-0.8-1.3-1.9-1.3-3c0-0.3,0-0.7,0-1.3s0-1,0-1.3C72.6,39,73.1,37.8,74,37c2-1.4,4.7-1.4,6.7,0c0.9,0.8,1.3,1.9,1.3,3.1
			c0,0.6,0,1,0,1.3s0,0.7,0,1.3c0,1.1-0.4,2.1-1.1,2.9l1.1,1.6c0,0,0,0.1,0,0.2v0c0,0.1,0,0.1-0.1,0.2c-0.1,0.1-0.1,0.1-0.2,0.1h-2
			C79.6,47.6,79.5,47.5,79.3,47.5z M78.6,44c0.3-0.4,0.5-0.9,0.5-1.5c0-0.6,0-1,0-1.2s0-0.7,0-1.2c0-0.5-0.2-1-0.5-1.5
			c-0.3-0.3-0.8-0.5-1.2-0.5c-0.5,0-0.9,0.1-1.2,0.5c-0.3,0.4-0.5,0.9-0.5,1.5c0,0.3,0,0.7,0,1.2s0,1,0,1.2c0,0.5,0.2,1,0.5,1.5
			c0.3,0.3,0.8,0.5,1.2,0.5C77.8,44.5,78.2,44.3,78.6,44z"/>
		<path class="st2" d="M89.8,46.5c-0.1-0.1-0.1-0.2-0.1-0.3v-7l-2,1.5c-0.1,0-0.1,0.1-0.2,0.1c-0.1,0-0.2-0.1-0.3-0.2l-0.9-1.2
			c0-0.1-0.1-0.1-0.1-0.2c0-0.1,0.1-0.3,0.2-0.3l3.5-2.7c0.1-0.1,0.2-0.1,0.3-0.1h2c0.1,0,0.2,0,0.3,0.1c0.1,0.1,0.1,0.2,0.1,0.3
			v9.8c0,0.1,0,0.2-0.1,0.3c-0.1,0.1-0.2,0.1-0.3,0.1H90C89.9,46.6,89.8,46.6,89.8,46.5z"/>
		<path class="st2" d="M95.4,45.7c-0.7-0.8-1.2-1.8-1.2-2.8c0-0.5,0-1,0-1.5s0-0.9,0-1.5c0-0.7,0.2-1.4,0.6-2
			c0.3-0.6,0.8-1.1,1.4-1.4c1.5-0.7,3.2-0.7,4.7,0c0.6,0.3,1.1,0.8,1.5,1.4c0.3,0.6,0.5,1.3,0.6,2c0,0.3,0,0.8,0,1.5
			c0,0.7,0,1.2,0,1.5c0,1.1-0.4,2.1-1.2,2.8C99.8,47.1,97.2,47.1,95.4,45.7z M99.6,44c0.3-0.4,0.4-0.8,0.4-1.3c0-0.3,0-0.8,0-1.4
			s0-1.1,0-1.4c0-0.5-0.1-0.9-0.4-1.3c-0.2-0.3-0.6-0.5-1-0.5c-0.9,0-1.4,0.6-1.4,1.8c0,0.3,0,0.7,0,1.4s0,1.1,0,1.4
			c0,1.2,0.5,1.8,1.4,1.8C99,44.5,99.3,44.3,99.6,44z"/>
		<path class="st2" d="M105.6,45.7c-0.7-0.8-1.2-1.8-1.2-2.8c0-0.5,0-1,0-1.5s0-0.9,0-1.5c0-0.7,0.2-1.4,0.6-2
			c0.3-0.6,0.8-1.1,1.4-1.4c1.5-0.7,3.2-0.7,4.7,0c0.6,0.3,1.1,0.8,1.5,1.4c0.3,0.6,0.5,1.3,0.6,2c0,0.3,0,0.8,0,1.5
			c0,0.7,0,1.2,0,1.5c0,1.1-0.4,2.1-1.1,2.8C110.1,47.1,107.5,47.1,105.6,45.7L105.6,45.7z M109.8,44c0.3-0.4,0.4-0.8,0.4-1.3
			c0-0.3,0-0.8,0-1.4s0-1.1,0-1.4c0-0.5-0.1-0.9-0.4-1.3c-0.2-0.3-0.6-0.5-1-0.5c-0.9,0-1.4,0.6-1.4,1.8c0,0.3,0,0.7,0,1.4
			s0,1.1,0,1.4c0,1.2,0.5,1.8,1.4,1.8C109.2,44.5,109.6,44.3,109.8,44L109.8,44z"/>
		<path class="st2" d="M118.2,46.5c-0.1-0.1-0.1-0.2-0.1-0.3v-9.7c0-0.1,0-0.2,0.1-0.3c0.1-0.1,0.2-0.1,0.3-0.1h7
			c0.1,0,0.2,0,0.3,0.1c0.1,0.1,0.1,0.2,0.1,0.3v1.6c0,0.1,0,0.2-0.1,0.3c-0.1,0.1-0.2,0.1-0.3,0.1h-4.6v2.1h4.3
			c0.1,0,0.2,0,0.3,0.1c0.1,0.1,0.1,0.2,0.1,0.3v1.6c0,0.1,0,0.2-0.1,0.3c-0.1,0.1-0.2,0.1-0.3,0.1h-4.3v3.3c0,0.1,0,0.2-0.1,0.3
			c-0.1,0.1-0.2,0.1-0.3,0.1h-2C118.4,46.6,118.3,46.6,118.2,46.5z"/>
		<path class="st2" d="M128.3,45.7c-0.8-0.8-1.3-1.9-1.3-3c0-0.3,0-0.7,0-1.3s0-1,0-1.3c0-1.2,0.4-2.3,1.3-3.1c1-0.7,2.2-1.1,3.4-1
			c1.2-0.1,2.4,0.3,3.3,1c0.9,0.8,1.3,1.9,1.3,3.1c0,0.6,0,1,0,1.3s0,0.7,0,1.3c0,1.1-0.5,2.2-1.3,3C133,47,130.3,47,128.3,45.7
			L128.3,45.7z M132.9,44c0.3-0.4,0.5-0.9,0.5-1.5c0-0.6,0-1,0-1.2s0-0.7,0-1.2c0-0.5-0.2-1-0.5-1.5c-0.3-0.3-0.8-0.5-1.2-0.5
			c-0.5,0-0.9,0.1-1.3,0.5c-0.3,0.4-0.5,0.9-0.5,1.5c0,0.3,0,0.7,0,1.2s0,1,0,1.2c0,0.5,0.2,1,0.5,1.5c0.3,0.3,0.8,0.5,1.3,0.5
			C132.2,44.5,132.6,44.3,132.9,44L132.9,44z"/>
		<path class="st2" d="M138.2,46.5c-0.1-0.1-0.1-0.2-0.1-0.3v-9.7c0-0.1,0-0.2,0.1-0.3c0.1-0.1,0.2-0.1,0.3-0.1h7
			c0.2,0,0.4,0.2,0.4,0.4c0,0,0,0,0,0v1.6c0,0.1,0,0.2-0.1,0.3c-0.1,0.1-0.2,0.1-0.3,0.1h-4.6v2.1h4.3c0.2,0,0.4,0.2,0.4,0.4
			c0,0,0,0,0,0v1.6c0,0.1,0,0.2-0.1,0.3c-0.1,0.1-0.2,0.1-0.3,0.1h-4.3v3.3c0,0.2-0.2,0.4-0.3,0.4c0,0,0,0,0,0h-2
			C138.4,46.6,138.3,46.6,138.2,46.5z"/>
		<path class="st2" d="M21.1,62.1c-0.6-0.6-0.9-1.5-0.9-2.3c0-0.2,0-0.6,0-1.1s0-0.9,0-1.1c0-0.9,0.3-1.7,0.9-2.3
			c0.7-0.6,1.5-0.9,2.4-0.9c0.6,0,1.2,0.1,1.8,0.4c0.4,0.2,0.8,0.5,1.1,0.9c0.2,0.3,0.4,0.6,0.4,1l0,0c0,0.1,0,0.1-0.1,0.2
			c0,0-0.1,0.1-0.2,0.1h-0.7c-0.1,0-0.1,0-0.2,0c-0.1-0.1-0.1-0.1-0.1-0.2c-0.1-0.4-0.4-0.8-0.7-1c-0.4-0.3-0.9-0.4-1.4-0.4
			c-0.6,0-1.2,0.2-1.6,0.5c-0.4,0.5-0.6,1.1-0.6,1.7c0,0.2,0,0.6,0,1.1s0,0.8,0,1.1c0,0.6,0.2,1.2,0.6,1.7c0.4,0.4,1,0.6,1.6,0.5
			c0.6,0,1.2-0.2,1.6-0.6c0.4-0.4,0.7-1.1,0.6-1.7v-0.5h-1.8c-0.1,0-0.1,0-0.2-0.1c-0.1-0.1-0.1-0.1-0.1-0.2v-0.4
			c0-0.1,0-0.1,0.1-0.2c0-0.1,0.1-0.1,0.2-0.1h2.7c0.1,0,0.2,0,0.2,0.1c0.1,0.1,0.1,0.1,0.1,0.2v1.1c0,0.6-0.1,1.2-0.4,1.7
			c-0.3,0.5-0.7,0.9-1.2,1.1c-0.6,0.3-1.2,0.4-1.8,0.4C22.6,63,21.8,62.7,21.1,62.1z"/>
		<path class="st2" d="M29,62.2c-0.5-0.6-0.8-1.3-0.8-2.1v-0.8c0-0.8,0.3-1.5,0.8-2.1c1.1-1.1,2.9-1,4,0.1c0.5,0.6,0.8,1.5,0.7,2.3
			v0.2c0,0.1,0,0.1-0.1,0.2c-0.1,0.1-0.1,0.1-0.2,0.1h-4.2v0.1c0,0.5,0.2,1,0.5,1.3c0.3,0.4,0.7,0.6,1.2,0.5c0.3,0,0.6-0.1,0.9-0.2
			c0.2-0.1,0.4-0.3,0.5-0.5c0-0.1,0.1-0.1,0.2-0.2c0.1,0,0.1,0,0.2,0h0.5c0.1,0,0.1,0,0.2,0.1c0.1,0,0.1,0.1,0.1,0.2
			c0,0.2-0.2,0.5-0.3,0.6c-0.3,0.3-0.6,0.5-0.9,0.6c-0.4,0.2-0.9,0.3-1.4,0.3C30.2,63,29.5,62.7,29,62.2z M32.6,59.3L32.6,59.3
			c0-0.5-0.1-1-0.5-1.4c-0.3-0.4-0.8-0.6-1.2-0.5c-0.5,0-0.9,0.2-1.2,0.5c-0.3,0.4-0.5,0.9-0.5,1.4l0,0H32.6z"/>
		<path class="st2" d="M35.7,60.7v-3.2h-1c-0.1,0-0.1,0-0.2-0.1c0-0.1-0.1-0.1-0.1-0.2v-0.4c0-0.1,0-0.1,0.1-0.2
			c0-0.1,0.1-0.1,0.2-0.1h1v-2c0-0.1,0-0.1,0.1-0.2c0-0.1,0.1-0.1,0.2-0.1h0.5c0.1,0,0.3,0.1,0.3,0.3c0,0,0,0,0,0v2h1.5
			c0.1,0,0.3,0.1,0.3,0.3c0,0,0,0,0,0v0.4c0,0.1,0,0.1-0.1,0.2c-0.1,0-0.1,0.1-0.2,0.1h-1.5v3.1c0,0.3,0,0.6,0.2,0.9
			c0.2,0.2,0.4,0.3,0.7,0.3h0.7c0.1,0,0.1,0,0.2,0.1c0,0.1,0.1,0.1,0.1,0.2v0.4c0,0.1,0,0.1-0.1,0.2c-0.1,0-0.1,0.1-0.2,0.1h-0.8
			C36.3,62.8,35.7,62.2,35.7,60.7z"/>
		<path class="st2" d="M43.4,62.7c-0.3-0.1-0.6-0.4-0.8-0.7c-0.2-0.3-0.3-0.6-0.3-0.9c0-0.5,0.3-1,0.7-1.3c0.5-0.4,1.1-0.6,1.8-0.7
			l1.8-0.2v-0.3c0-0.8-0.5-1.2-1.4-1.2c-0.3,0-0.6,0.1-0.9,0.2c-0.2,0.1-0.4,0.3-0.5,0.5c0,0.1-0.1,0.1-0.1,0.2c0,0-0.1,0-0.2,0H43
			c-0.1,0-0.1,0-0.2-0.1c-0.1,0-0.1-0.1-0.1-0.2c0-0.2,0.1-0.5,0.2-0.6c0.2-0.3,0.5-0.5,0.8-0.6c0.4-0.2,0.9-0.3,1.3-0.3
			c0.7-0.1,1.4,0.2,1.9,0.6c0.4,0.4,0.6,1,0.6,1.6v3.9c0,0.1,0,0.1-0.1,0.2c-0.1,0-0.1,0.1-0.2,0.1h-0.5c-0.1,0-0.1,0-0.2-0.1
			c0-0.1-0.1-0.1-0.1-0.2V62c-0.2,0.3-0.5,0.5-0.8,0.7c-0.4,0.2-0.8,0.3-1.3,0.3C44.1,62.9,43.7,62.9,43.4,62.7z M46,61.6
			c0.4-0.4,0.5-1,0.5-1.5v-0.3l-1.4,0.2c-0.5,0-0.9,0.2-1.3,0.4c-0.4,0.2-0.6,0.7-0.3,1.1c0.1,0.1,0.2,0.3,0.3,0.3
			c0.3,0.2,0.6,0.3,1,0.3C45.2,62.1,45.7,61.9,46,61.6z"/>
		<path class="st2" d="M49.8,62.2c-0.5-0.5-0.8-1.3-0.8-2v-0.5v-0.5c0-0.7,0.3-1.5,0.8-2c0.5-0.5,1.3-0.8,2-0.7c0.5,0,1,0.1,1.5,0.3
			c0.4,0.2,0.7,0.4,0.9,0.8c0.2,0.3,0.3,0.6,0.3,0.9c0,0.1,0,0.2-0.1,0.2c-0.1,0.1-0.1,0.1-0.2,0.1h-0.5c-0.1,0-0.1,0-0.2,0
			c-0.1-0.1-0.1-0.1-0.1-0.2c-0.2-0.7-0.8-1.1-1.5-1.1c-0.4,0-0.9,0.1-1.2,0.5c-0.3,0.4-0.5,0.9-0.5,1.4v0.8c0,0.5,0.1,1,0.5,1.4
			c0.3,0.3,0.8,0.5,1.2,0.5c0.4,0,0.7-0.1,1-0.2c0.3-0.2,0.5-0.5,0.6-0.8c0-0.1,0.1-0.1,0.1-0.2c0.1,0,0.1,0,0.2,0h0.5
			c0.1,0,0.1,0,0.2,0.1c0.1,0,0.1,0.1,0.1,0.2c0,0.3-0.1,0.6-0.3,0.9c-0.2,0.3-0.5,0.6-0.9,0.8c-0.4,0.2-0.9,0.3-1.5,0.3
			C51.1,63.1,50.4,62.8,49.8,62.2z"/>
		<path class="st2" d="M56.4,62.2c-0.5-0.5-0.8-1.3-0.8-2v-0.5v-0.5c0-0.7,0.3-1.5,0.8-2c0.5-0.5,1.3-0.8,2-0.7c0.5,0,1,0.1,1.5,0.3
			c0.4,0.2,0.7,0.4,0.9,0.8c0.2,0.3,0.3,0.6,0.3,0.9c0,0.1,0,0.2-0.1,0.2c-0.1,0.1-0.1,0.1-0.2,0.1h-0.5c-0.1,0-0.1,0-0.2,0
			c-0.1-0.1-0.1-0.1-0.1-0.2c-0.2-0.7-0.8-1.1-1.5-1.1c-0.4,0-0.9,0.1-1.2,0.5c-0.3,0.4-0.5,0.9-0.5,1.4v0.8c0,0.5,0.1,1,0.5,1.4
			c0.3,0.3,0.8,0.5,1.2,0.5c0.4,0,0.7-0.1,1-0.2c0.3-0.2,0.5-0.5,0.6-0.9c0-0.1,0.1-0.1,0.1-0.2c0.1,0,0.1,0,0.2,0h0.5
			c0.1,0,0.1,0,0.2,0.1c0.1,0,0.1,0.1,0.1,0.2c0,0.3-0.1,0.6-0.3,0.9c-0.2,0.3-0.5,0.6-0.9,0.8c-0.4,0.2-0.9,0.3-1.5,0.3
			C57.7,63.1,57,62.8,56.4,62.2z"/>
		<path class="st2" d="M63.1,62.2c-0.5-0.6-0.8-1.3-0.8-2.1v-0.8c0-0.8,0.3-1.5,0.8-2.1c1.1-1.1,2.9-1,4,0.1
			c0.5,0.6,0.8,1.5,0.7,2.3v0.2c0,0.1,0,0.1-0.1,0.2c-0.1,0.1-0.1,0.1-0.2,0.1h-4.2v0.1c0,0.5,0.2,1,0.5,1.3
			c0.3,0.4,0.7,0.6,1.2,0.5c0.3,0,0.6-0.1,0.9-0.2c0.2-0.1,0.4-0.3,0.5-0.5c0-0.1,0.1-0.1,0.2-0.2c0.1,0,0.1,0,0.2,0h0.5
			c0.1,0,0.1,0,0.2,0.1c0.1,0,0.1,0.1,0.1,0.2c0,0.2-0.2,0.5-0.3,0.6c-0.3,0.3-0.6,0.5-0.9,0.6C65.9,62.9,65.5,63,65,63
			C64.3,63,63.6,62.7,63.1,62.2z M66.7,59.3L66.7,59.3c0-0.5-0.1-1-0.4-1.4c-0.3-0.4-0.8-0.6-1.2-0.6c-0.5,0-0.9,0.2-1.2,0.5
			c-0.3,0.4-0.5,0.9-0.5,1.4l0,0L66.7,59.3z"/>
		<path class="st2" d="M70,62.7c-0.3-0.1-0.6-0.3-0.8-0.6c-0.1-0.2-0.2-0.4-0.3-0.6c0-0.1,0-0.1,0.1-0.2c0.1,0,0.1-0.1,0.2-0.1h0.5
			h0.1l0.1,0.1c0.2,0.2,0.4,0.4,0.6,0.5c0.3,0.1,0.6,0.2,0.9,0.2c0.3,0,0.7-0.1,1-0.2c0.3-0.1,0.4-0.4,0.4-0.7c0-0.2,0-0.3-0.2-0.5
			c-0.2-0.1-0.4-0.3-0.6-0.3c-0.4-0.1-0.7-0.2-1.1-0.3c-0.5-0.1-1.1-0.3-1.5-0.7c-0.3-0.3-0.5-0.7-0.5-1.1c0-0.3,0.1-0.6,0.3-0.9
			c0.2-0.3,0.5-0.5,0.8-0.7c0.4-0.2,0.8-0.3,1.2-0.3c0.4,0,0.9,0.1,1.3,0.3c0.3,0.1,0.6,0.3,0.8,0.6c0.1,0.2,0.2,0.4,0.3,0.6
			c0,0.1-0.1,0.3-0.3,0.3c0,0,0,0,0,0H73c-0.1,0-0.2,0-0.2-0.1l-0.3-0.4c-0.1-0.1-0.3-0.2-0.4-0.2c-0.2-0.1-0.4-0.1-0.7-0.1
			c-0.3,0-0.6,0.1-0.9,0.2c-0.2,0.2-0.3,0.4-0.3,0.7c0,0.2,0,0.3,0.1,0.4c0.1,0.2,0.3,0.3,0.5,0.3c0.4,0.1,0.7,0.2,1.1,0.3
			c0.6,0.1,1.1,0.3,1.6,0.7c0.3,0.3,0.5,0.7,0.5,1.1c0,0.3-0.1,0.7-0.3,0.9c-0.2,0.3-0.5,0.5-0.9,0.7c-0.4,0.2-0.9,0.3-1.4,0.2
			C70.9,63,70.5,62.9,70,62.7z"/>
		<path class="st2" d="M76.1,62.7c-0.3-0.1-0.6-0.3-0.8-0.6c-0.1-0.2-0.2-0.4-0.2-0.6c0-0.1,0-0.1,0.1-0.2c0.1,0,0.1-0.1,0.2-0.1
			h0.5h0.1c0,0,0.1,0.1,0.1,0.1c0.2,0.2,0.4,0.4,0.6,0.5c0.3,0.1,0.6,0.2,0.9,0.2c0.3,0,0.7-0.1,1-0.2c0.3-0.1,0.4-0.4,0.4-0.7
			c0-0.2-0.1-0.3-0.2-0.5c-0.2-0.1-0.4-0.3-0.6-0.3c-0.4-0.1-0.8-0.2-1.2-0.3c-0.5-0.1-1.1-0.3-1.5-0.7c-0.3-0.3-0.4-0.7-0.4-1.1
			c0-0.3,0.1-0.6,0.3-0.9c0.2-0.3,0.5-0.5,0.8-0.7c0.4-0.2,0.8-0.3,1.2-0.3c0.4,0,0.9,0.1,1.3,0.3c0.3,0.1,0.6,0.3,0.8,0.6
			c0.1,0.2,0.2,0.4,0.3,0.6c0,0.1,0,0.1-0.1,0.2c-0.1,0-0.1,0.1-0.2,0.1h-0.5c-0.1,0-0.2,0-0.2-0.1c-0.1-0.2-0.2-0.3-0.3-0.4
			c-0.1-0.1-0.3-0.2-0.4-0.2c-0.2-0.1-0.4-0.1-0.7-0.1c-0.3,0-0.6,0.1-0.9,0.2c-0.2,0.2-0.3,0.4-0.3,0.7c0,0.2,0,0.3,0.1,0.4
			c0.1,0.2,0.3,0.3,0.5,0.3c0.4,0.1,0.7,0.2,1.1,0.3c0.6,0.1,1.1,0.3,1.6,0.7c0.3,0.3,0.5,0.7,0.5,1.1c0,0.3-0.1,0.7-0.3,0.9
			c-0.2,0.3-0.5,0.5-0.9,0.7c-0.4,0.2-0.9,0.3-1.4,0.2C77,63,76.5,62.9,76.1,62.7z"/>
		<path class="st2" d="M84.7,60.7v-3.2h-1c-0.1,0-0.1,0-0.2-0.1c0-0.1-0.1-0.1-0.1-0.2v-0.4c0-0.1,0-0.1,0.1-0.2
			c0-0.1,0.1-0.1,0.2-0.1h1v-2c0-0.1,0-0.1,0.1-0.2c0-0.1,0.1-0.1,0.2-0.1h0.5c0.1,0,0.1,0,0.2,0.1c0.1,0.1,0.1,0.1,0.1,0.2v2h1.5
			c0.1,0,0.1,0,0.2,0.1c0.1,0.1,0.1,0.1,0.1,0.2v0.4c0,0.1,0,0.1-0.1,0.2c-0.1,0-0.1,0.1-0.2,0.1h-1.5v3.1c0,0.3,0,0.6,0.2,0.9
			c0.1,0.2,0.4,0.3,0.7,0.3h0.7c0.1,0,0.1,0,0.2,0.1c0,0.1,0.1,0.1,0.1,0.2v0.4c0,0.1,0,0.1-0.1,0.2c-0.1,0-0.1,0.1-0.2,0.1h-0.8
			C85.3,62.8,84.7,62.2,84.7,60.7z"/>
		<path class="st2" d="M89.3,62.2c-0.5-0.6-0.8-1.3-0.8-2v-1c0-0.7,0.3-1.5,0.8-2c1.2-1,2.8-1,4,0c0.5,0.5,0.8,1.3,0.8,2
			c0,0.2,0,0.3,0,0.5c0,0.2,0,0.3,0,0.5c0,0.7-0.3,1.5-0.8,2C92.2,63.2,90.4,63.2,89.3,62.2L89.3,62.2z M92.6,61.6
			c0.3-0.4,0.5-0.9,0.5-1.4c0-0.1,0-0.2,0-0.5s0-0.4,0-0.5c0-0.5-0.2-1-0.5-1.4c-0.7-0.7-1.8-0.7-2.4,0c-0.3,0.4-0.5,0.9-0.5,1.4
			v0.9c0,0.5,0.2,1,0.5,1.4C90.8,62.2,91.9,62.2,92.6,61.6z"/>
		<path class="st2" d="M98.9,60.7v-3.2H98c-0.1,0-0.1,0-0.2-0.1c0-0.1-0.1-0.1-0.1-0.2v-0.4c0-0.1,0-0.1,0.1-0.2
			c0-0.1,0.1-0.1,0.2-0.1h1v-2c0-0.1,0-0.1,0.1-0.2c0-0.1,0.1-0.1,0.2-0.1h0.5c0.1,0,0.1,0,0.2,0.1c0.1,0.1,0.1,0.1,0.1,0.2v2h1.5
			c0.1,0,0.1,0,0.2,0.1c0.1,0.1,0.1,0.1,0.1,0.2v0.4c0,0.1,0,0.1-0.1,0.2c-0.1,0-0.1,0.1-0.2,0.1H100v3.1c0,0.3,0,0.6,0.2,0.9
			c0.1,0.2,0.4,0.3,0.7,0.3h0.7c0.1,0,0.1,0,0.2,0.1c0,0.1,0.1,0.1,0.1,0.2v0.4c0,0.1,0,0.1-0.1,0.2c-0.1,0-0.1,0.1-0.2,0.1h-0.8
			C99.5,62.8,98.9,62.2,98.9,60.7z"/>
		<path class="st2" d="M103.1,62.8c-0.1-0.1-0.1-0.1-0.1-0.2v-8c0-0.1,0-0.2,0.1-0.2c0-0.1,0.1-0.1,0.2-0.1h0.6c0.1,0,0.1,0,0.2,0.1
			c0.1,0.1,0.1,0.1,0.1,0.2v2.8c0.2-0.3,0.5-0.5,0.8-0.7c0.4-0.2,0.8-0.3,1.2-0.2c0.7,0,1.3,0.2,1.8,0.7c0.5,0.6,0.7,1.3,0.6,2v3.4
			c0,0.1,0,0.1-0.1,0.2c-0.1,0-0.1,0.1-0.2,0.1h-0.6c-0.1,0-0.1,0-0.2-0.1c-0.1-0.1-0.1-0.1-0.1-0.2v-3.3c0-0.5-0.1-1-0.5-1.3
			c-0.3-0.3-0.8-0.5-1.2-0.5c-0.5,0-0.9,0.2-1.2,0.5c-0.3,0.4-0.5,0.8-0.5,1.3v3.3c0,0.1,0,0.1-0.1,0.2c-0.1,0-0.1,0.1-0.2,0.1h-0.6
			C103.2,62.8,103.2,62.8,103.1,62.8z"/>
		<path class="st2" d="M110.8,62.2c-0.5-0.6-0.8-1.3-0.8-2.1v-0.8c0-0.8,0.3-1.5,0.8-2.1c1.1-1.1,2.9-1,4,0.1
			c0.5,0.6,0.8,1.5,0.7,2.3v0.2c0,0.1,0,0.1-0.1,0.2c-0.1,0.1-0.1,0.1-0.2,0.1h-4.2v0.1c0,0.5,0.2,1,0.5,1.3
			c0.3,0.4,0.7,0.6,1.2,0.5c0.3,0,0.6-0.1,0.9-0.2c0.2-0.1,0.4-0.3,0.5-0.5c0-0.1,0.1-0.1,0.2-0.2c0.1,0,0.1,0,0.2,0h0.5
			c0.1,0,0.1,0,0.2,0.1c0.1,0,0.1,0.1,0.1,0.2c0,0.2-0.2,0.5-0.3,0.6c-0.3,0.3-0.6,0.5-0.9,0.6c-0.4,0.2-0.9,0.3-1.4,0.3
			C112,63,111.3,62.7,110.8,62.2z M114.5,59.3L114.5,59.3c0-0.5-0.1-1-0.4-1.4c-0.3-0.4-0.8-0.6-1.2-0.5c-0.5,0-0.9,0.2-1.2,0.5
			c-0.3,0.4-0.5,0.9-0.4,1.4l0,0H114.5z"/>
		<path class="st2" d="M117.8,62.7c-0.3-0.1-0.6-0.3-0.8-0.6c-0.1-0.2-0.2-0.4-0.3-0.6c0-0.1,0-0.1,0.1-0.2c0.1,0,0.1-0.1,0.2-0.1
			h0.5h0.1c0,0,0.1,0.1,0.1,0.1c0.2,0.2,0.4,0.4,0.6,0.5c0.3,0.1,0.6,0.2,0.9,0.2c0.3,0,0.7-0.1,1-0.2c0.3-0.1,0.4-0.4,0.4-0.7
			c0-0.2,0-0.3-0.2-0.5c-0.2-0.1-0.4-0.3-0.6-0.3c-0.4-0.1-0.8-0.2-1.2-0.3c-0.5-0.1-1.1-0.3-1.5-0.7c-0.3-0.3-0.4-0.7-0.4-1.1
			c0-0.3,0.1-0.6,0.3-0.9c0.2-0.3,0.5-0.5,0.8-0.7c0.4-0.2,0.8-0.3,1.2-0.3c0.4,0,0.9,0.1,1.3,0.3c0.3,0.1,0.6,0.3,0.8,0.6
			c0.1,0.2,0.2,0.4,0.3,0.6c0,0.1-0.1,0.3-0.3,0.3c0,0,0,0,0,0h-0.4c-0.1,0-0.2,0-0.2-0.1c-0.1-0.2-0.2-0.3-0.3-0.4
			c-0.1-0.1-0.3-0.2-0.4-0.2c-0.2-0.1-0.4-0.1-0.7-0.1c-0.3,0-0.6,0.1-0.9,0.2c-0.2,0.2-0.3,0.4-0.3,0.7c0,0.2,0,0.3,0.1,0.4
			c0.1,0.2,0.3,0.3,0.5,0.3c0.4,0.1,0.7,0.2,1.1,0.3c0.6,0.1,1.1,0.3,1.6,0.7c0.3,0.3,0.5,0.7,0.5,1.1c0,0.3-0.1,0.7-0.3,0.9
			c-0.2,0.3-0.5,0.5-0.9,0.7c-0.4,0.2-0.9,0.3-1.4,0.2C118.6,63,118.2,62.9,117.8,62.7z"/>
		<path class="st2" d="M123.6,62.2c-0.5-0.6-0.8-1.3-0.8-2.1v-0.8c0-0.8,0.3-1.5,0.8-2.1c0.5-0.5,1.3-0.8,2-0.8c0.8,0,1.5,0.3,2,0.8
			c0.5,0.6,0.8,1.5,0.7,2.3v0.2c0,0.1-0.1,0.3-0.3,0.3c0,0,0,0,0,0h-4.2v0.1c0,0.5,0.2,1,0.5,1.3c0.3,0.4,0.7,0.6,1.2,0.5
			c0.3,0,0.6-0.1,0.9-0.2c0.2-0.1,0.4-0.3,0.5-0.5c0-0.1,0.1-0.1,0.2-0.2c0.1,0,0.1,0,0.2,0h0.5c0.1,0,0.1,0,0.2,0.1
			c0.1,0,0.1,0.1,0.1,0.2c0,0.2-0.2,0.5-0.3,0.6c-0.3,0.3-0.6,0.5-0.9,0.6c-0.4,0.2-0.9,0.3-1.4,0.3C124.9,63,124.1,62.7,123.6,62.2
			z M127.3,59.3L127.3,59.3c0-0.5-0.1-1-0.5-1.4c-0.6-0.7-1.7-0.7-2.4-0.1c0,0-0.1,0-0.1,0.1c-0.3,0.4-0.5,0.9-0.4,1.4l0,0H127.3z"
			/>
		<path class="st2" d="M21.3,78.2c-0.3-0.2-0.6-0.4-0.9-0.8c-0.1-0.2-0.2-0.5-0.2-0.7c0-0.1,0-0.1,0.1-0.2c0.1,0,0.1-0.1,0.2-0.1H21
			c0.1,0,0.1,0,0.2,0.1c0.1,0,0.1,0.1,0.1,0.2c0.2,0.7,0.8,1.1,1.5,1c0.5,0,0.9-0.1,1.3-0.4c0.3-0.4,0.5-0.9,0.4-1.4V75
			c-0.5,0.6-1.2,0.9-2,0.9c-0.7,0.1-1.4-0.3-1.9-0.8C20.3,74.5,20,73.7,20,73v-0.3v-0.3c0-0.7,0.2-1.4,0.7-2
			c0.5-0.6,1.2-0.9,1.9-0.8c0.8,0,1.5,0.3,2,0.9v-0.5c0-0.1,0-0.1,0.1-0.2c0-0.1,0.1-0.1,0.2-0.1h0.5c0.1,0,0.1,0,0.2,0.1
			c0.1,0.1,0.1,0.1,0.1,0.2v5.8c0.2,1.3-0.8,2.6-2.1,2.8c-0.2,0-0.5,0-0.7,0C22.3,78.5,21.8,78.4,21.3,78.2z M24.1,74.4
			c0.3-0.4,0.4-0.8,0.5-1.3c0-0.1,0-0.3,0-0.4c0-0.1,0-0.3,0-0.4c0-0.5-0.2-0.9-0.5-1.3c-0.3-0.4-0.8-0.6-1.3-0.6
			c-0.5,0-1,0.2-1.2,0.6c-0.3,0.4-0.4,0.9-0.4,1.4V73c0,0.5,0.2,1,0.4,1.4c0.3,0.4,0.8,0.6,1.2,0.6C23.3,75,23.8,74.8,24.1,74.4z"/>
		<path class="st2" d="M27.5,75.8c0-0.1-0.1-0.1-0.1-0.2v-8c0-0.1,0-0.1,0.1-0.2c0.1-0.1,0.1-0.1,0.2-0.1h0.5c0.1,0,0.3,0.1,0.3,0.3
			c0,0,0,0,0,0v8c0,0.1,0,0.1-0.1,0.2c-0.1,0-0.1,0.1-0.2,0.1h-0.5C27.7,75.8,27.6,75.8,27.5,75.8z"/>
		<path class="st2" d="M30.9,75.2c-0.5-0.6-0.8-1.3-0.8-2v-1c0-0.7,0.3-1.5,0.8-2c1.2-1,2.8-1,4,0c0.5,0.5,0.8,1.3,0.8,2
			c0,0.2,0,0.3,0,0.5c0,0.2,0,0.3,0,0.5c0,0.7-0.3,1.5-0.8,2c-0.5,0.5-1.3,0.8-2,0.7C32.1,76,31.4,75.7,30.9,75.2z M34.1,74.6
			c0.3-0.4,0.5-0.9,0.5-1.4c0-0.1,0-0.2,0-0.5s0-0.4,0-0.4c0-0.5-0.2-1-0.5-1.4c-0.3-0.3-0.8-0.5-1.2-0.5c-0.5,0-0.9,0.2-1.2,0.5
			c-0.3,0.4-0.5,0.9-0.5,1.4v0.9c0,0.5,0.2,1,0.5,1.4c0.3,0.3,0.8,0.5,1.2,0.5C33.3,75.1,33.8,74.9,34.1,74.6z"/>
		<path class="st2" d="M38.3,75.1v0.5c0,0.1,0,0.1-0.1,0.2c-0.1,0-0.1,0.1-0.2,0.1h-0.5c-0.1,0-0.1,0-0.2-0.1
			c-0.1-0.1-0.1-0.1-0.1-0.2v-8c0-0.1,0-0.1,0.1-0.2c0.1-0.1,0.1-0.1,0.2-0.1H38c0.1,0,0.3,0.1,0.3,0.3c0,0,0,0,0,0v2.8
			c0.5-0.6,1.2-0.9,2-0.9c0.7,0,1.4,0.3,1.9,0.8c0.4,0.6,0.7,1.3,0.7,2c0,0.1,0,0.2,0,0.4c0,0.9-0.2,1.7-0.7,2.4
			c-0.5,0.6-1.2,0.9-1.9,0.8C39.5,76,38.8,75.6,38.3,75.1z M41.3,74.5c0.3-0.4,0.4-0.9,0.4-1.4c0-0.1,0-0.2,0-0.3
			c0-1.5-0.6-2.3-1.7-2.3c-0.5,0-0.9,0.2-1.3,0.5c-0.3,0.4-0.5,0.8-0.5,1.3c0,0.1,0,0.2,0,0.5s0,0.4,0,0.4c0,0.5,0.2,0.9,0.5,1.3
			c0.3,0.4,0.8,0.6,1.2,0.5C40.5,75.1,41,74.9,41.3,74.5L41.3,74.5z"/>
		<path class="st2" d="M45,75.7c-0.3-0.1-0.6-0.4-0.8-0.7c-0.2-0.3-0.3-0.6-0.3-0.9c0-0.5,0.2-1,0.7-1.3c0.5-0.4,1.1-0.6,1.8-0.7
			l1.8-0.2v-0.3c0-0.8-0.5-1.2-1.4-1.2c-0.3,0-0.6,0.1-0.9,0.2c-0.2,0.1-0.4,0.3-0.5,0.5c0,0.1-0.1,0.1-0.1,0.2c0,0-0.1,0-0.2,0
			h-0.5c-0.1,0-0.1,0-0.2-0.1c-0.1-0.1-0.1-0.1-0.1-0.2c0-0.2,0.1-0.5,0.3-0.6c0.2-0.3,0.5-0.5,0.8-0.6c0.4-0.2,0.9-0.3,1.3-0.3
			c0.7-0.1,1.4,0.2,1.9,0.6c0.4,0.4,0.6,1,0.6,1.6v3.9c0,0.1,0,0.1-0.1,0.2c-0.1,0-0.1,0.1-0.2,0.1h-0.5c-0.1,0-0.1,0-0.2-0.1
			c0-0.1-0.1-0.1-0.1-0.2V75c-0.2,0.3-0.5,0.5-0.8,0.7c-0.4,0.2-0.9,0.3-1.3,0.3C45.7,75.9,45.3,75.9,45,75.7z M47.6,74.6
			c0.4-0.4,0.5-1,0.5-1.5v-0.3l-1.4,0.2c-0.5,0-0.9,0.2-1.3,0.4c-0.3,0.1-0.4,0.4-0.4,0.7c0,0.3,0.1,0.6,0.4,0.8
			c0.3,0.2,0.6,0.3,1,0.3C46.8,75.1,47.3,74.9,47.6,74.6L47.6,74.6z"/>
		<path class="st2" d="M51,75.8c-0.1-0.1-0.1-0.1-0.1-0.2v-8c0-0.1,0-0.2,0.1-0.2c0-0.1,0.1-0.1,0.2-0.1h0.5c0.1,0,0.1,0,0.2,0.1
			c0.1,0.1,0.1,0.1,0.1,0.2v8c0,0.1,0,0.1-0.1,0.2c-0.1,0-0.1,0.1-0.2,0.1h-0.5C51.1,75.8,51.1,75.8,51,75.8z"/>
		<path class="st2" d="M58.2,75.5L56,70c0,0,0-0.1,0-0.1c0-0.1,0.1-0.2,0.2-0.3h0.5c0.1,0,0.2,0.1,0.3,0.2l1.8,4.8l1.8-4.8
			c0-0.1,0.1-0.1,0.1-0.1c0,0,0.1-0.1,0.1-0.1h0.5c0.1,0,0.1,0,0.2,0.1c0.1,0,0.1,0.1,0.1,0.2V70l-2.2,5.6c-0.1,0.2-0.2,0.3-0.4,0.3
			h-0.5C58.4,75.9,58.3,75.7,58.2,75.5z"/>
		<path class="st2" d="M63.5,75.7c-0.3-0.1-0.6-0.4-0.8-0.7c-0.2-0.3-0.3-0.6-0.3-0.9c0-0.5,0.2-1,0.6-1.3c0.5-0.4,1.1-0.6,1.8-0.7
			l1.8-0.2v-0.3c0-0.8-0.5-1.2-1.4-1.2c-0.3,0-0.6,0.1-0.9,0.2c-0.2,0.1-0.4,0.3-0.5,0.5c0,0.1-0.1,0.1-0.1,0.2c0,0-0.1,0-0.2,0
			h-0.5c-0.1,0-0.1,0-0.2-0.1c0-0.1-0.1-0.1-0.1-0.2c0-0.2,0.1-0.5,0.2-0.6c0.2-0.3,0.5-0.5,0.8-0.6c0.4-0.2,0.9-0.3,1.3-0.3
			c0.7-0.1,1.4,0.2,1.9,0.6c0.4,0.4,0.6,1,0.6,1.6v3.9c0,0.1,0,0.1-0.1,0.2c-0.1,0-0.1,0.1-0.2,0.1h-0.5c-0.1,0-0.1,0-0.2-0.1
			c0-0.1-0.1-0.1-0.1-0.2V75c-0.2,0.3-0.5,0.5-0.8,0.7c-0.4,0.2-0.8,0.3-1.3,0.3C64.2,75.9,63.8,75.9,63.5,75.7z M66.1,74.6
			c0.4-0.4,0.6-1,0.5-1.5v-0.3l-1.4,0.2c-0.5,0-0.9,0.2-1.3,0.4c-0.3,0.1-0.4,0.4-0.5,0.7c0,0.3,0.1,0.6,0.4,0.8
			C64.6,75.3,65.5,75.2,66.1,74.6z"/>
		<path class="st2" d="M69.5,75.8c-0.1-0.1-0.1-0.1-0.1-0.2v-8c0-0.1,0-0.1,0.1-0.2c0.1-0.1,0.1-0.1,0.2-0.1h0.5
			c0.1,0,0.3,0.1,0.3,0.3c0,0,0,0,0,0v8c0,0.1,0,0.1-0.1,0.2c-0.1,0-0.1,0.1-0.2,0.1h-0.5C69.7,75.8,69.6,75.8,69.5,75.8z"/>
		<path class="st2" d="M72.9,75.2c-0.4-0.6-0.7-1.3-0.6-2v-3.4c0-0.1,0.1-0.3,0.3-0.3c0,0,0,0,0,0h0.6c0.1,0,0.3,0.1,0.3,0.3
			c0,0,0,0,0,0v3.3c0,1.2,0.5,1.8,1.6,1.8c0.5,0,0.9-0.2,1.2-0.5c0.3-0.4,0.5-0.9,0.4-1.3v-3.3c0-0.1,0-0.1,0.1-0.2
			c0-0.1,0.1-0.1,0.2-0.1h0.6c0.1,0,0.1,0,0.2,0.1c0.1,0.1,0.1,0.1,0.1,0.2v5.7c0,0.1,0,0.1-0.1,0.2c-0.1,0-0.1,0.1-0.2,0.1H77
			c-0.1,0-0.1,0-0.2-0.1c-0.1-0.1-0.1-0.1-0.1-0.2V75c-0.2,0.3-0.5,0.5-0.8,0.7c-0.4,0.2-0.8,0.2-1.2,0.2C74,76,73.4,75.7,72.9,75.2
			z"/>
		<path class="st2" d="M80.1,75.2c-0.5-0.6-0.8-1.3-0.8-2.1v-0.8c0-0.8,0.3-1.5,0.8-2.1c1.1-1.1,2.9-1,4,0.1
			c0.5,0.6,0.8,1.5,0.7,2.3v0.2c0,0.1-0.1,0.3-0.3,0.3c0,0,0,0,0,0h-4.2v0.1c0,0.5,0.2,1,0.5,1.3c0.3,0.4,0.7,0.6,1.2,0.6
			c0.3,0,0.6-0.1,0.9-0.2c0.2-0.1,0.4-0.3,0.5-0.5c0-0.1,0.1-0.1,0.2-0.2c0.1,0,0.1,0,0.2,0h0.5c0.1,0,0.1,0,0.2,0.1
			c0.1,0,0.1,0.1,0.1,0.2c0,0.2-0.2,0.5-0.3,0.6c-0.3,0.3-0.6,0.5-0.9,0.6C82.9,75.9,82.5,76,82,76C81.3,76,80.6,75.7,80.1,75.2z
			 M83.7,72.3L83.7,72.3c0-0.5-0.1-1-0.4-1.4c-0.3-0.4-0.8-0.6-1.2-0.6c-0.5,0-0.9,0.2-1.2,0.5c-0.3,0.4-0.5,0.9-0.4,1.4l0,0
			L83.7,72.3z"/>
		<path class="st2" d="M89.7,75.2c-0.5-0.5-0.8-1.3-0.8-2v-1c0-0.7,0.3-1.5,0.8-2c0.5-0.5,1.3-0.8,2-0.7c0.5,0,1,0.1,1.5,0.3
			c0.4,0.2,0.7,0.4,0.9,0.8c0.2,0.3,0.3,0.6,0.3,0.9c0,0.1,0,0.2-0.1,0.2c-0.1,0-0.1,0.1-0.2,0.1h-0.5c-0.1,0-0.1,0-0.2,0
			c-0.1-0.1-0.1-0.1-0.1-0.2c-0.1-0.3-0.3-0.6-0.6-0.8c-0.3-0.2-0.7-0.3-1-0.2c-0.4,0-0.9,0.1-1.2,0.5c-0.3,0.4-0.5,0.9-0.4,1.3v0.8
			c0,0.5,0.1,1,0.5,1.4c0.3,0.3,0.8,0.5,1.2,0.5c0.4,0,0.7-0.1,1-0.2c0.3-0.2,0.5-0.5,0.6-0.8c0-0.1,0.1-0.1,0.1-0.2
			c0.1,0,0.1-0.1,0.2-0.1h0.5c0.1,0,0.1,0,0.2,0.1c0.1,0,0.1,0.1,0.1,0.2c0,0.3-0.1,0.6-0.3,0.9c-0.2,0.3-0.5,0.6-0.9,0.8
			c-0.5,0.2-1,0.4-1.5,0.3C91,76,90.2,75.8,89.7,75.2z"/>
		<path class="st2" d="M95.9,75.8c-0.1-0.1-0.1-0.1-0.1-0.2v-5.7c0-0.1,0-0.1,0.1-0.2c0-0.1,0.1-0.1,0.2-0.1h0.5
			c0.1,0,0.3,0.1,0.3,0.2c0,0,0,0,0,0v0.5c0.4-0.6,1-0.9,1.7-0.8H99c0.1,0,0.1,0,0.2,0.1c0.1,0.1,0.1,0.1,0.1,0.2v0.4
			c0,0.1,0,0.1-0.1,0.2c-0.1,0.1-0.1,0.1-0.2,0.1h-0.7c-0.4,0-0.7,0.1-1,0.4c-0.2,0.3-0.4,0.6-0.4,1v3.5c0,0.1,0,0.1-0.1,0.2
			c-0.1,0-0.1,0.1-0.2,0.1h-0.5C96,75.8,95.9,75.8,95.9,75.8z"/>
		<path class="st2" d="M100.7,75.2c-0.5-0.6-0.8-1.3-0.8-2.1v-0.4v-0.4c0-0.8,0.3-1.5,0.8-2.1c0.5-0.5,1.3-0.8,2-0.8
			c0.8,0,1.5,0.3,2,0.8c0.5,0.6,0.8,1.5,0.7,2.3v0.2c0,0.1-0.1,0.3-0.3,0.3c0,0,0,0,0,0H101v0.1c0,0.5,0.2,1,0.5,1.3
			c0.3,0.4,0.7,0.6,1.2,0.6c0.3,0,0.6-0.1,0.9-0.2c0.2-0.1,0.4-0.3,0.5-0.5c0-0.1,0.1-0.1,0.2-0.2c0.1,0,0.1,0,0.2,0h0.5
			c0.1,0,0.1,0,0.2,0.1c0.1,0,0.1,0.1,0.1,0.2c0,0.2-0.1,0.5-0.3,0.6c-0.3,0.3-0.6,0.5-0.9,0.6c-0.4,0.2-0.9,0.3-1.4,0.3
			C101.9,76,101.2,75.7,100.7,75.2z M104.3,72.3L104.3,72.3c0-0.5-0.1-1-0.5-1.4c-0.6-0.7-1.7-0.7-2.4-0.1c0,0-0.1,0-0.1,0.1
			c-0.3,0.4-0.5,0.9-0.4,1.4l0,0H104.3z"/>
		<path class="st2" d="M107.5,75.7c-0.3-0.1-0.6-0.4-0.8-0.7c-0.2-0.3-0.3-0.6-0.3-0.9c0-0.5,0.2-1,0.7-1.3c0.5-0.4,1.1-0.6,1.8-0.7
			l1.8-0.2v-0.3c0-0.8-0.5-1.2-1.4-1.2c-0.3,0-0.6,0.1-0.9,0.2c-0.2,0.1-0.4,0.3-0.5,0.5c0,0.1,0,0.1-0.1,0.2c0,0-0.1,0-0.2,0h-0.5
			c-0.1,0-0.1,0-0.2-0.1c-0.1,0-0.1-0.1-0.1-0.2c0-0.2,0.1-0.5,0.3-0.6c0.2-0.3,0.5-0.5,0.8-0.6c0.4-0.2,0.9-0.3,1.3-0.3
			c0.7-0.1,1.4,0.2,1.9,0.6c0.4,0.4,0.6,1,0.6,1.6v3.9c0,0.1,0,0.1-0.1,0.2c-0.1,0-0.1,0.1-0.2,0.1H111c-0.1,0-0.1,0-0.2-0.1
			c-0.1-0.1-0.1-0.1-0.1-0.2V75c-0.2,0.3-0.5,0.5-0.8,0.7c-0.4,0.2-0.9,0.3-1.3,0.3C108.3,75.9,107.9,75.9,107.5,75.7z M110.2,74.6
			c0.4-0.4,0.5-1,0.5-1.5v-0.3l-1.4,0.2c-0.5,0-0.9,0.2-1.3,0.4c-0.4,0.2-0.6,0.7-0.3,1.1c0.1,0.1,0.2,0.3,0.3,0.3
			c0.3,0.2,0.6,0.3,1,0.3C109.4,75.1,109.9,74.9,110.2,74.6z"/>
		<path class="st2" d="M114,73.7v-3.2h-1c-0.1,0-0.1,0-0.2-0.1c0-0.1-0.1-0.1-0.1-0.2v-0.4c0-0.1,0-0.1,0.1-0.2
			c0-0.1,0.1-0.1,0.2-0.1h1v-2c0-0.1,0-0.1,0.1-0.2c0.1-0.1,0.1-0.1,0.2-0.1h0.5c0.1,0,0.1,0,0.2,0.1c0.1,0.1,0.1,0.1,0.1,0.2v2h1.5
			c0.1,0,0.1,0,0.2,0.1c0,0.1,0.1,0.1,0.1,0.2v0.4c0,0.1,0,0.1-0.1,0.2c-0.1,0-0.1,0.1-0.2,0.1h-1.5v3.1c0,0.3,0,0.6,0.2,0.9
			c0.2,0.2,0.4,0.3,0.7,0.3h0.7c0.1,0,0.1,0,0.2,0.1c0,0.1,0.1,0.1,0.1,0.2v0.4c0,0.1,0,0.1-0.1,0.2c-0.1,0-0.1,0.1-0.2,0.1h-0.8
			C114.6,75.8,114,75.2,114,73.7z"/>
		<path class="st2" d="M118.6,75.2c-0.5-0.5-0.8-1.3-0.8-2v-1c0-0.7,0.3-1.5,0.8-2c1.2-1,2.8-1,4,0c0.5,0.5,0.8,1.3,0.8,2
			c0,0.2,0,0.3,0,0.5s0,0.3,0,0.5c0,0.7-0.3,1.5-0.8,2C121.4,76.2,119.7,76.2,118.6,75.2L118.6,75.2z M121.8,74.6
			c0.3-0.4,0.5-0.9,0.5-1.4c0-0.2,0-0.3,0-0.5c0-0.1,0-0.3,0-0.4c0-0.5-0.2-1-0.5-1.4c-0.7-0.7-1.8-0.7-2.4,0
			c-0.3,0.4-0.5,0.9-0.5,1.4v0.4v0.5c0,0.5,0.2,1,0.5,1.4C120.1,75.2,121.2,75.2,121.8,74.6z"/>
		<path class="st2" d="M125,75.8c-0.1-0.1-0.1-0.1-0.1-0.2v-5.7c0-0.1,0-0.1,0.1-0.2c0-0.1,0.1-0.1,0.2-0.1h0.5
			c0.1,0,0.3,0.1,0.3,0.2c0,0,0,0,0,0v0.5c0.4-0.6,1-0.9,1.7-0.8h0.5c0.1,0,0.1,0,0.2,0.1c0.1,0.1,0.1,0.1,0.1,0.2v0.4
			c0,0.1,0,0.1-0.1,0.2c-0.1,0.1-0.1,0.1-0.2,0.1h-0.7c-0.4,0-0.7,0.1-1,0.4c-0.2,0.3-0.4,0.6-0.4,1v3.5c0,0.1,0,0.1-0.1,0.2
			c-0.1,0-0.1,0.1-0.2,0.1h-0.5C125.2,75.8,125.1,75.8,125,75.8z"/>
		<path class="st2" d="M130.2,75.7c-0.3-0.1-0.6-0.3-0.9-0.6c-0.1-0.2-0.2-0.4-0.3-0.6c0-0.1,0-0.1,0.1-0.2c0.1,0,0.1-0.1,0.2-0.1
			h0.5h0.1c0,0,0.1,0.1,0.1,0.1c0.2,0.2,0.4,0.4,0.6,0.5c0.3,0.1,0.6,0.2,0.9,0.2c0.3,0,0.7-0.1,1-0.2c0.3-0.1,0.4-0.4,0.4-0.7
			c0-0.2-0.1-0.3-0.2-0.5c-0.2-0.1-0.4-0.3-0.6-0.3c-0.4-0.1-0.8-0.2-1.2-0.3c-0.5-0.1-1-0.3-1.5-0.7c-0.3-0.3-0.4-0.7-0.4-1.1
			c0-0.3,0.1-0.6,0.3-0.9c0.2-0.3,0.5-0.5,0.8-0.7c0.4-0.2,0.8-0.3,1.2-0.3c0.4,0,0.9,0.1,1.3,0.3c0.3,0.1,0.6,0.3,0.8,0.6
			c0.1,0.2,0.2,0.4,0.3,0.6c0,0.1,0,0.1-0.1,0.2c-0.1,0-0.1,0.1-0.2,0.1h-0.5c-0.1,0-0.1-0.1-0.1-0.1c-0.1-0.2-0.2-0.3-0.3-0.4
			c-0.1-0.1-0.3-0.2-0.4-0.2c-0.2-0.1-0.4-0.1-0.7-0.1c-0.3,0-0.6,0.1-0.9,0.2c-0.2,0.2-0.3,0.4-0.3,0.7c0,0.2,0,0.3,0.1,0.4
			c0.1,0.2,0.3,0.3,0.5,0.3c0.4,0.1,0.7,0.2,1.1,0.3c0.6,0.1,1.1,0.3,1.6,0.7c0.3,0.3,0.5,0.7,0.5,1.1c0,0.3-0.1,0.7-0.3,0.9
			c-0.2,0.3-0.5,0.5-0.9,0.7c-0.4,0.2-0.9,0.3-1.4,0.2C131.2,76,130.7,75.9,130.2,75.7z"/>
		<path class="st1" d="M22.2,84.4h78.6c1.5,0,2.8,1.2,2.8,2.8v18.2c0,1.5-1.2,2.8-2.8,2.8H22.2c-1.5,0-2.8-1.2-2.8-2.8V87.1
			C19.4,85.6,20.7,84.4,22.2,84.4z"/>
		<path class="st2" d="M30.6,100.3c-0.1-0.1-0.1-0.1-0.1-0.2v-7.8c0-0.1,0-0.2,0.1-0.2c0.1-0.1,0.1-0.1,0.2-0.1h1.1
			c0.1,0,0.3,0.1,0.3,0.2c0,0,0,0,0,0v7.8c0,0.1,0,0.1-0.1,0.2c-0.1,0.1-0.1,0.1-0.2,0.1h-1.1C30.7,100.4,30.6,100.4,30.6,100.3z"/>
		<path class="st2" d="M34,100.3c-0.1-0.1-0.1-0.1-0.1-0.2v-5.7c0-0.1,0-0.2,0.1-0.2c0.1-0.1,0.1-0.1,0.2-0.1h1c0.1,0,0.2,0,0.2,0.1
			c0.1,0.1,0.1,0.1,0.1,0.2v0.5c0.5-0.6,1.2-0.9,2-0.9c0.7,0,1.3,0.2,1.8,0.7c0.5,0.6,0.7,1.3,0.7,2v3.4c0,0.1,0,0.1-0.1,0.2
			c-0.1,0.1-0.1,0.1-0.2,0.1h-1c-0.1,0-0.2,0-0.2-0.1c-0.1-0.1-0.1-0.1-0.1-0.2v-3.3c0-0.4-0.1-0.8-0.3-1.1c-0.3-0.3-0.6-0.4-1-0.4
			c-0.4,0-0.7,0.1-1,0.4c-0.3,0.3-0.4,0.7-0.4,1.1v3.3c0,0.1,0,0.1-0.1,0.2c-0.1,0.1-0.1,0.1-0.2,0.1h-1
			C34.2,100.4,34.1,100.4,34,100.3z"/>
		<path class="st2" d="M43.2,100.3c-0.1-0.1-0.1-0.1-0.2-0.2l-2.3-5.6c0,0,0-0.1,0-0.1c0-0.1,0-0.1,0.1-0.2c0,0,0.1-0.1,0.2-0.1h1
			c0.2,0,0.3,0.1,0.3,0.2l1.6,4.2l1.6-4.2c0-0.1,0.1-0.1,0.1-0.2c0.1-0.1,0.1-0.1,0.2-0.1h1c0.1,0,0.1,0,0.2,0.1
			c0,0.1,0.1,0.1,0.1,0.2c0,0,0,0.1,0,0.1l-2.2,5.6c-0.1,0.2-0.2,0.3-0.4,0.3h-0.9C43.4,100.4,43.3,100.4,43.2,100.3z"/>
		<path class="st2" d="M48.5,99.8c-0.6-0.6-0.9-1.4-0.8-2.2v-0.3c0-0.9,0.2-1.7,0.8-2.4c1.2-1.1,3.1-1.1,4.4,0
			c0.5,0.6,0.8,1.5,0.8,2.3v0.2c0,0.1,0,0.1-0.1,0.2c-0.1,0.1-0.1,0.1-0.2,0.1h-4v0.1c0,0.4,0.1,0.8,0.4,1.2
			c0.2,0.3,0.6,0.5,0.9,0.4c0.4,0,0.9-0.2,1.1-0.6c0-0.1,0.1-0.1,0.2-0.2c0.1,0,0.1,0,0.2,0h1c0.1,0,0.1,0,0.2,0.1
			c0.1,0,0.1,0.1,0.1,0.2c0,0.3-0.2,0.5-0.3,0.7c-0.3,0.3-0.6,0.5-1,0.7c-0.5,0.2-1,0.3-1.5,0.3C49.8,100.6,49.1,100.3,48.5,99.8z
			 M51.9,96.8L51.9,96.8c0-0.4-0.1-0.8-0.3-1.1c-0.2-0.3-0.6-0.5-1-0.4c-0.4,0-0.8,0.1-1,0.4c-0.2,0.3-0.4,0.7-0.3,1.1l0,0H51.9z"/>
		<path class="st2" d="M55.7,100.2c-0.4-0.1-0.7-0.4-0.9-0.6c-0.2-0.2-0.3-0.4-0.3-0.6c0-0.1,0-0.1,0.1-0.2c0,0,0.1-0.1,0.2-0.1h1
			c0.1,0,0.1,0,0.2,0.1l0.3,0.2c0.1,0.1,0.3,0.2,0.5,0.3c0.2,0.1,0.4,0.1,0.6,0.1c0.3,0,0.5-0.1,0.8-0.2c0.3-0.2,0.4-0.6,0.2-0.9
			c0,0,0,0,0-0.1c-0.1-0.1-0.3-0.2-0.5-0.3c-0.3-0.1-0.7-0.2-1.1-0.3c-0.6-0.1-1.1-0.3-1.5-0.7c-0.3-0.3-0.5-0.7-0.5-1.2
			c0-0.3,0.1-0.6,0.3-0.9c0.2-0.3,0.5-0.5,0.9-0.7c0.4-0.2,0.9-0.3,1.3-0.3c0.5,0,1,0.1,1.4,0.3c0.3,0.1,0.6,0.3,0.9,0.6
			c0.2,0.2,0.3,0.4,0.3,0.6c0,0.1,0,0.1-0.1,0.2c-0.1,0-0.1,0.1-0.2,0.1h-0.9c-0.1,0-0.2,0-0.2-0.1l-0.3-0.2
			c-0.1-0.1-0.3-0.2-0.4-0.3c-0.2-0.1-0.4-0.1-0.5-0.1c-0.2,0-0.5,0.1-0.7,0.2c-0.2,0.1-0.2,0.3-0.2,0.5c0,0.1,0,0.3,0.1,0.4
			c0.1,0.1,0.3,0.2,0.5,0.3c0.3,0.1,0.7,0.2,1,0.3c1.4,0.3,2.2,0.9,2.2,1.9c0,0.6-0.3,1.1-0.7,1.4c-0.6,0.4-1.3,0.6-2.1,0.5
			C56.7,100.5,56.2,100.4,55.7,100.2z"/>
		<path class="st2" d="M62.4,99.8c-0.4-0.5-0.6-1.1-0.5-1.7v-2.7h-1c-0.1,0-0.2,0-0.2-0.1c-0.1-0.1-0.1-0.1-0.1-0.2v-0.7
			c0-0.1,0.1-0.3,0.2-0.3c0,0,0,0,0,0h1v-2c0-0.1,0.1-0.1,0.1-0.2c0.1-0.1,0.1-0.1,0.2-0.1h1c0.1,0,0.2,0,0.2,0.1
			c0.1,0.1,0.1,0.1,0.1,0.2v2H65c0.1,0,0.1,0,0.2,0.1c0.1,0.1,0.1,0.1,0.1,0.2v0.7c0,0.1,0,0.2-0.1,0.2c-0.1,0.1-0.1,0.1-0.2,0.1
			h-1.5V98c0,0.3,0,0.5,0.2,0.8c0.1,0.2,0.4,0.3,0.6,0.3h0.8c0.1,0,0.2,0,0.2,0.1c0.1,0.1,0.1,0.1,0.1,0.2v0.8c0,0.1,0,0.1-0.1,0.2
			c-0.1,0.1-0.1,0.1-0.2,0.1h-1C63.5,100.4,62.9,100.2,62.4,99.8z"/>
		<path class="st2" d="M69.4,100.3c-0.1,0-0.1-0.1-0.1-0.2v-7.8c0-0.1,0-0.2,0.1-0.2c0.1-0.1,0.1-0.1,0.2-0.1h0.9
			c0.1,0,0.3,0.1,0.3,0.2l3.4,5.3v-5.2c0-0.1,0-0.2,0.1-0.2c0.1-0.1,0.1-0.1,0.2-0.1h1c0.1,0,0.2,0,0.2,0.1c0.1,0.1,0.1,0.1,0.1,0.2
			v7.8c0,0.1,0,0.2-0.1,0.2c-0.1,0.1-0.1,0.1-0.2,0.1h-1c-0.2,0-0.3-0.1-0.4-0.2L70.9,95v5.1c0,0.1,0,0.1-0.1,0.2
			c-0.1,0.1-0.1,0.1-0.2,0.1h-1C69.5,100.4,69.4,100.4,69.4,100.3z"/>
		<path class="st2" d="M78.2,99.8c-0.5-0.5-0.8-1.2-0.8-2v-1.1c0-0.8,0.3-1.5,0.8-2c1.3-1,3.1-1,4.3,0c0.5,0.5,0.8,1.2,0.8,2
			c0,0.1,0,0.3,0,0.5s0,0.4,0,0.5c0,0.8-0.3,1.5-0.8,2C81.3,100.8,79.5,100.8,78.2,99.8L78.2,99.8z M81.4,98.9
			c0.3-0.3,0.4-0.7,0.4-1.2c0-0.1,0-0.2,0-0.5s0-0.4,0-0.5c0-0.4-0.1-0.8-0.4-1.2c-0.3-0.3-0.6-0.4-1-0.4c-0.4,0-0.7,0.1-1,0.4
			C79.1,96,79,96.4,79,96.8v0.5v0.5c0,0.4,0.1,0.8,0.4,1.2c0.3,0.3,0.6,0.4,1,0.4C80.8,99.3,81.1,99.2,81.4,98.9z"/>
		<path class="st2" d="M85.9,100.1l-1.7-5.6c0,0,0-0.1,0-0.1c0-0.1,0-0.1,0.1-0.2c0-0.1,0.1-0.1,0.2-0.1h0.9c0.1,0,0.2,0,0.2,0.1
			c0.1,0,0.1,0.1,0.1,0.2l1.2,3.9l1.2-3.9c0-0.1,0.1-0.1,0.1-0.2c0.1-0.1,0.1-0.1,0.2-0.1H89c0.1,0,0.2,0,0.2,0.1
			c0.1,0,0.1,0.1,0.1,0.2l1.2,3.9l1.2-3.9c0-0.1,0.1-0.1,0.1-0.2c0.1,0,0.1-0.1,0.2-0.1H93c0.1,0,0.1,0,0.2,0.1c0,0,0.1,0.1,0.1,0.2
			v0.1l-1.7,5.6c0,0.1-0.1,0.2-0.1,0.2c-0.1,0.1-0.2,0.1-0.2,0.1h-0.8c-0.2,0-0.4-0.1-0.4-0.3l-1.2-3.8l-1.2,3.8
			c0,0.2-0.2,0.3-0.4,0.3h-0.8C86.1,100.4,85.9,100.3,85.9,100.1z"/>
		<g id="Economic_development">
			<ellipse class="st2" cx="209.5" cy="68.8" rx="33" ry="33.3"/>
			<path class="st3" d="M200.8,38.2c-0.1,0.2,0.3,0.9,1.1,0.9s1.2-0.1,1.5,0.7s-0.1,3.8,0.3,4.9s1.3,1.8,1.9,1.1s0.5-2.2,1.3-2.6
				s3.4-2,3.5-3.4s-0.8-2.4-3.1-2.6S201.8,36.7,200.8,38.2z"/>
			<path class="st4" d="M192.1,68.3c-0.3,0.2-0.5,0.5-0.5,0.9c0.1,1.1-0.4,4-1.3,4.8c-1.1,1.2-0.7,3.2-0.7,4c0,1.7,0.1,2.4,1.9,3.2
				s2.5,0.9,2.6,2.5s0.3,7.9,0.9,9.5c0.5,1.7,1.3,3.3,2.3,4.8c0.6,0.6,2,1,1.1-1.3s-1.4-3.4-0.4-4.7s2.7-4.2,2.8-5.4
				c0-0.9,0.5-1.7,1.3-2c0.7-0.2,1.4-0.5,2-0.9c0.3-0.4-0.3-1.6-0.5-2.6s-0.2-1.6,1.5-2.4s0.9-3.1-1.4-3.7s-3.7-1.9-3.4-3.2
				s-1.5-1.1-2.6-1.8s-1-1.6-2.2-2C194.4,67.7,193.2,67.8,192.1,68.3z"/>
			<path class="st4" d="M233.6,66.9c-0.6-0.8-0.5-2.2,0.9-4c1.1-1.5-0.5-2.9-1.2-3.5c-0.1-0.1-0.1-0.2,0-0.3c0,0,0.1-0.1,0.1-0.1
				c0.9-0.1,3,0.2,3.9,4.9c1.2,6.1,1.7,4,2.3,3.3s-0.6-2,0.6-3.4c0.7-0.9,1.2-2,1.3-3.2c-2.4-9.6-8.8-17.6-17.7-22
				c0,1.1-0.2,4.8-4.6,3.2c0,0-2.7-1.3-2,3.9s2.8-0.4,3.2-0.6s1.6-0.5,1.1,3c0,0-0.1,1.2-2.3,1s-2.6,0.8-2.6,1.4
				c0.2,1.1-0.2,2.3-1,3.1c-1.2,1.1-0.8,3.8,0.8,2.9s2.7-3.8,4.2-4.1s2.8,1.6,4.2,1.1s0.8-2.9,1.5-2.9s2.2,1.4,2,2.5
				s-2.4,1.6-1.8,2.8s1.8,0.8,2.1,1.7s-1.8,1.8-3.4,0.8s-2,0.5-2.8-0.2s-0.9-2.2-2.1-1.7s-1.9,1.5-3.4,2.2s-2.8,1.6-2.8,2.6
				s0.6,2.1,0.3,3.6c-0.3,1.6-0.8,5.8,4.3,5s4.4,1.8,4.4,2.1s-0.1,4,0.4,4.6c1.1,1.4,1.1,3.4,0,4.9c-1.6,2.4-1,7.8,0.5,7.1
				s3-3.5,4.8-4.9s4.4-7.6,3.3-9.5s1.5-3.5,1.8-4.8C234.4,68.8,234.2,67.7,233.6,66.9z"/>
			<path class="st4" d="M185.7,45.8c0.1,1.3-0.2,2.6-0.9,3.7c-2.1,3.6-2,5.5-2.2,9.1s4.4,10,5.5,10.7s1.3-0.9,1.3-2.2
				c-0.1-1.5-0.5-3-1.2-4.3c-0.5-0.9-0.7-2-0.5-3c0.2-0.5,0.7-0.7,1.1-0.5c0.2,0.1,0.3,0.2,0.4,0.3c0.5,0.6,1.8,1.2,2.4,0.8
				s0.5-2.3,0.7-2.9s1.7-1,2.3-2.3c0.6-1.1,1.6-2,2.8-2.4c1.2-0.6,2.3-0.9,2.5-1.3s-0.1-1.3,0.3-2.4s1.1-2.4,0.8-2.9
				s-1.3-1.4-3.2-0.1s-2.3,1.3-2.9,0.3s0.6-3.6,2.9-3.6s2.8-0.8,2.9-1.4s-0.7-1.3-1.5-1.4s-0.9,0.3-4.3,1.7
				c-1.7,0.7-3.5,0.8-5.2,0.5C188.4,43.1,187,44.4,185.7,45.8z"/>
			<path class="st5" d="M241,74.8c-0.5-0.1-0.4,1.1-1.1,1.3s-0.9,0.6-0.8,1.8c0.2,1.2-0.1,2.5-0.8,3.5c-0.7,0.6-1.6,1.1-1.7,2.6
				c-0.2,1.4-1.1,2.7-2.3,3.5c-0.8,0.5-2.1,1.3-2.1,2.6c0,0.9,0,1.8,0.2,2.7c4.5-4.4,7.6-9.9,9.1-16C241.5,75.8,241.3,74.8,241,74.8
				z"/>
			<path class="st6" d="M209.5,102.2c-8.8,0-17.3-3.5-23.5-9.8c-13-13.1-13-34.2,0-47.2c12.9-13,33.8-13.1,46.7-0.2
				c0.1,0.1,0.1,0.1,0.2,0.2c13,13.1,13,34.2,0,47.2C226.8,98.7,218.3,102.2,209.5,102.2z M209.5,35.7
				c-18.3-0.1-33.2,14.6-33.3,32.9c-0.1,18.3,14.6,33.2,32.9,33.3s33.2-14.6,33.3-32.9c0-0.1,0-0.1,0-0.2
				C242.5,50.5,227.7,35.7,209.5,35.7z"/>
			<ellipse cx="232" cy="54.8" rx="7.6" ry="8.4"/>
			<ellipse class="st5" cx="232.3" cy="54.5" rx="7.4" ry="8.1"/>
			<path d="M232.3,62.8c-4.1,0-7.5-3.7-7.5-8.3s3.4-8.3,7.5-8.3s7.5,3.7,7.5,8.3S236.5,62.8,232.3,62.8z M232.3,46.6
				c-4,0-7.2,3.6-7.2,8s3.2,8,7.2,8s7.2-3.6,7.2-8S236.3,46.6,232.3,46.6z"/>
			<ellipse class="st2" cx="232.3" cy="54.5" rx="6.2" ry="6.8"/>
			<path d="M237.5,58.4L237.5,58.4c-0.2,0-0.2-0.1-0.1-0.2c0.3-0.5,0.6-1.1,0.7-1.7c0-0.1,0.1-0.1,0.2-0.1c0,0,0,0,0,0
				c0.1,0,0.1,0.1,0.1,0.2c0,0,0,0,0,0c-0.2,0.6-0.4,1.2-0.8,1.8C237.6,58.4,237.6,58.4,237.5,58.4z"/>
			<path d="M237.9,51.7c-0.1,0-0.1,0-0.1-0.1c-0.9-2.2-3-3.7-5.4-3.8c-2,0-3.8,1.1-4.9,2.7c-0.1,0.1-0.2,0.1-0.2,0
				c-0.1-0.1-0.1-0.2,0-0.2c1.1-1.8,3-2.8,5.1-2.9c2.5,0.1,4.7,1.6,5.6,4C238,51.6,238,51.7,237.9,51.7L237.9,51.7z"/>
			<path d="M232.3,61.5c-3.5,0-6.3-3.1-6.3-7c0-1.2,0.3-2.3,0.8-3.4c0-0.1,0.1-0.1,0.2-0.1c0.1,0,0.1,0.1,0.1,0.2c0,0,0,0,0,0
				c-0.5,1-0.8,2.1-0.8,3.3c0,3.7,2.7,6.7,6,6.7c0.1,0,0.2,0.1,0.2,0.2v0C232.5,61.4,232.4,61.5,232.3,61.5
				C232.3,61.5,232.3,61.5,232.3,61.5z"/>
			<ellipse cx="245.6" cy="44.8" rx="6.9" ry="7.6"/>
			<ellipse class="st5" cx="245.9" cy="44.6" rx="6.7" ry="7.3"/>
			<path d="M245.9,52.1c-3.8,0-6.8-3.4-6.8-7.5s3.1-7.5,6.8-7.5s6.8,3.4,6.8,7.5S249.6,52.1,245.9,52.1z M245.9,37.4
				c-3.6,0-6.5,3.2-6.5,7.2s2.9,7.2,6.5,7.2s6.5-3.2,6.5-7.2S249.5,37.4,245.9,37.4z"/>
			<ellipse class="st2" cx="245.9" cy="44.6" rx="5.6" ry="6.2"/>
			<path d="M250.6,48.1L250.6,48.1c-0.2,0-0.2-0.1-0.1-0.2c0,0,0,0,0,0c0.3-0.5,0.5-1,0.6-1.6c0-0.1,0.1-0.1,0.2-0.1c0,0,0,0,0,0
				c0.1,0,0.1,0.1,0.1,0.2c0,0,0,0,0,0c-0.2,0.6-0.4,1.1-0.7,1.6C250.7,48.1,250.6,48.1,250.6,48.1z"/>
			<path d="M250.9,42.1c-0.1,0-0.1,0-0.1-0.1c-0.8-2-2.7-3.3-4.9-3.4c-1.8,0-3.4,1-4.4,2.5c-0.1,0.1-0.2,0.1-0.2,0
				c-0.1-0.1-0.1-0.2,0-0.2c1-1.6,2.8-2.6,4.6-2.6c2.3,0.1,4.3,1.5,5.1,3.6C251,41.9,251,42,250.9,42.1L250.9,42.1z"/>
			<path d="M245.9,50.9c-3.2,0-5.8-2.8-5.8-6.3c0-1.1,0.2-2.1,0.7-3.1c0.1-0.1,0.2-0.1,0.2,0c0,0,0.1,0.1,0.1,0.2
				c-0.5,0.9-0.7,1.9-0.7,2.9c0,3.3,2.4,6,5.4,6c0.1,0,0.1,0.1,0.1,0.2C246,50.8,246,50.9,245.9,50.9
				C245.9,50.9,245.9,50.9,245.9,50.9z"/>
			<path class="st1" d="M260.3,63.6l-15.8,5.7c-0.6,0.2-0.9,0.9-0.7,1.5c0.1,0.2,0.2,0.3,0.3,0.5l1.9,1.7c0.5,0.5,0.5,1.2,0,1.7
				l-8.5,9c-0.5,0.5-1.2,0.5-1.6,0L225,73.6c-0.5-0.5-1.2-0.5-1.6,0c0,0,0,0,0,0l-22.9,24.2c-0.4,0.5-0.4,1.2,0.1,1.7l3.9,3.7
				c0.5,0.5,1.2,0.5,1.6,0l17.6-18.5c0.5-0.5,1.2-0.5,1.6,0c0,0,0,0,0,0l10.8,10.1c0.5,0.5,1.2,0.5,1.6,0L251.6,80
				c0.5-0.5,1.2-0.5,1.7,0c0,0,0,0,0,0l2,1.9c0.5,0.4,1.2,0.4,1.6,0c0.1-0.1,0.2-0.3,0.3-0.5l4.7-16.2c0.2-0.6-0.1-1.3-0.7-1.5
				C260.8,63.5,260.5,63.5,260.3,63.6z"/>
		</g>
		<path class="st7" d="M190.2,112h-15.4c-1.1,0-2-0.9-2-2v-0.4c0-1.1,0.9-2,2-2h15.4c1.1,0,2,0.9,2,2v0.4
			C192.2,111.1,191.3,112,190.2,112z"/>
		<path class="st8" d="M172.7,108.8v2c0,0.7,0.5,1.2,1.2,1.2c0,0,0,0,0,0h4.5c-0.7,0-1.2-0.5-1.2-1.2v-2c0-0.7,0.5-1.2,1.2-1.2h-4.5
			C173.3,107.6,172.7,108.1,172.7,108.8C172.7,108.8,172.7,108.8,172.7,108.8z"/>
		<path class="st9" d="M172.7,108.8v2c0,0.7,0.5,1.2,1.2,1.2h1.2c-0.7,0-1.2-0.5-1.2-1.2c0,0,0,0,0,0v-2c0-0.7,0.5-1.2,1.2-1.2
			c0,0,0,0,0,0h-1.2C173.2,107.6,172.7,108.1,172.7,108.8z"/>
		<path class="st10" d="M189,112h2c0.7,0,1.2-0.5,1.2-1.2c0,0,0,0,0,0v-2c0-0.7-0.5-1.2-1.2-1.2c0,0,0,0,0,0h-2
			c0.7,0,1.2,0.5,1.2,1.2v2C190.2,111.5,189.7,112,189,112z"/>
		<path class="st10" d="M189.1,111L189.1,111c-0.2,0-0.3-0.1-0.3-0.3v-1.9c0-0.2,0.1-0.3,0.3-0.3h0.1c0.2,0,0.3,0.1,0.3,0.3v1.9
			C189.4,110.9,189.3,111,189.1,111z"/>
		<path class="st10" d="M186.4,111L186.4,111c-0.2,0-0.3-0.1-0.3-0.3v-1.9c0-0.2,0.1-0.3,0.3-0.3h0.1c0.2,0,0.3,0.1,0.3,0.3v1.9
			C186.6,110.9,186.5,111,186.4,111z"/>
		<path class="st10" d="M185,111L185,111c-0.2,0-0.3-0.1-0.3-0.3v-1.9c0-0.2,0.1-0.3,0.3-0.3h0.1c0.2,0,0.3,0.1,0.3,0.3v1.9
			C185.3,110.9,185.1,111,185,111z"/>
		<path class="st10" d="M183.6,111L183.6,111c-0.2,0-0.3-0.1-0.3-0.3v-1.9c0-0.2,0.1-0.3,0.3-0.3h0.1c0.2,0,0.3,0.1,0.3,0.3v1.9
			C183.9,110.9,183.8,111,183.6,111z"/>
		<path class="st10" d="M182.2,111L182.2,111c-0.2,0-0.3-0.1-0.3-0.3v-1.9c0-0.2,0.1-0.3,0.3-0.3h0.1c0.2,0,0.3,0.1,0.3,0.3v1.9
			C182.5,110.9,182.4,111,182.2,111z"/>
		<path class="st8" d="M180.8,111L180.8,111c-0.2,0-0.3-0.1-0.3-0.3v-1.9c0-0.2,0.1-0.3,0.3-0.3h0.1c0.2,0,0.3,0.1,0.3,0.3v1.9
			C181.1,110.9,181,111,180.8,111z"/>
		<path class="st8" d="M179.5,111L179.5,111c-0.2,0-0.3-0.1-0.3-0.3v-1.9c0-0.2,0.1-0.3,0.3-0.3h0.1c0.2,0,0.3,0.1,0.3,0.3v1.9
			C179.7,110.9,179.6,111,179.5,111z"/>
		<path class="st8" d="M178.1,111L178.1,111c-0.2,0-0.3-0.1-0.3-0.3v-1.9c0-0.2,0.1-0.3,0.3-0.3h0.1c0.2,0,0.3,0.1,0.3,0.3v1.9
			C178.3,110.9,178.2,111,178.1,111z"/>
		<path class="st9" d="M176.4,111L176.4,111c-0.2,0-0.3-0.1-0.3-0.3v-1.9c0-0.2,0.1-0.3,0.3-0.3h0.1c0.2,0,0.3,0.1,0.3,0.3v1.9
			C176.7,110.9,176.6,111,176.4,111z"/>
		<path class="st9" d="M175,111L175,111c-0.2,0-0.3-0.1-0.3-0.3v-1.9c0-0.2,0.1-0.3,0.3-0.3h0.1c0.2,0,0.3,0.1,0.3,0.3v1.9
			C175.3,110.9,175.2,111,175,111z"/>
		<path class="st10" d="M187.8,111L187.8,111c-0.2,0-0.3-0.1-0.3-0.3v-1.9c0-0.2,0.1-0.3,0.3-0.3h0.1c0.2,0,0.3,0.1,0.3,0.3v1.9
			C188,110.9,187.9,111,187.8,111z"/>
		<path class="st7" d="M188.8,107h-15.4c-1.1,0-2-0.9-2-2v-0.4c0-1.1,0.9-2,2-2h15.4c1.1,0,2,0.9,2,2v0.4
			C190.8,106.1,189.9,107,188.8,107z"/>
		<path class="st8" d="M171.4,103.8v2c0,0.7,0.5,1.2,1.2,1.2c0,0,0,0,0,0h4.5c-0.7,0-1.2-0.5-1.2-1.2c0,0,0,0,0,0v-2
			c0-0.7,0.5-1.2,1.2-1.2c0,0,0,0,0,0h-4.5C171.9,102.6,171.3,103.1,171.4,103.8C171.3,103.8,171.3,103.8,171.4,103.8z"/>
		<path class="st9" d="M171.4,103.8v2c0,0.7,0.5,1.2,1.2,1.2c0,0,0,0,0,0h1.2c-0.7,0-1.2-0.5-1.2-1.2c0,0,0,0,0,0v-2
			c0-0.7,0.5-1.2,1.2-1.2c0,0,0,0,0,0h-1.2C171.9,102.6,171.3,103.1,171.4,103.8C171.3,103.8,171.3,103.8,171.4,103.8z"/>
		<path class="st10" d="M187.6,107h2c0.7,0,1.2-0.5,1.2-1.2c0,0,0,0,0,0v-2c0-0.7-0.5-1.2-1.2-1.2c0,0,0,0,0,0h-2
			c0.7,0,1.2,0.5,1.2,1.2v2C188.8,106.5,188.3,107,187.6,107z"/>
		<path class="st10" d="M187.8,106L187.8,106c-0.2,0-0.3-0.1-0.3-0.3v-1.9c0-0.2,0.1-0.3,0.3-0.3h0.1c0.2,0,0.3,0.1,0.3,0.3v1.9
			C188,105.9,187.9,106,187.8,106z"/>
		<path class="st10" d="M185,106L185,106c-0.2,0-0.3-0.1-0.3-0.3v-1.9c0-0.2,0.1-0.3,0.3-0.3h0.1c0.2,0,0.3,0.1,0.3,0.3v1.9
			C185.3,105.9,185.1,106,185,106z"/>
		<path class="st10" d="M183.6,106L183.6,106c-0.2,0-0.3-0.1-0.3-0.3v-1.9c0-0.2,0.1-0.3,0.3-0.3h0.1c0.2,0,0.3,0.1,0.3,0.3v1.9
			C183.9,105.9,183.8,106,183.6,106z"/>
		<path class="st10" d="M182.2,106L182.2,106c-0.2,0-0.3-0.1-0.3-0.3v-1.9c0-0.2,0.1-0.3,0.3-0.3h0.1c0.2,0,0.3,0.1,0.3,0.3v1.9
			C182.5,105.9,182.4,106,182.2,106z"/>
		<path class="st10" d="M180.8,106L180.8,106c-0.2,0-0.3-0.1-0.3-0.3v-1.9c0-0.2,0.1-0.3,0.3-0.3h0.1c0.2,0,0.3,0.1,0.3,0.3v1.9
			C181.1,105.9,181,106,180.8,106z"/>
		<path class="st8" d="M179.4,106L179.4,106c-0.2,0-0.3-0.1-0.3-0.3v-1.9c0-0.2,0.1-0.3,0.3-0.3h0.1c0.2,0,0.3,0.1,0.3,0.3v1.9
			C179.7,105.9,179.6,106,179.4,106z"/>
		<path class="st8" d="M178.1,106L178.1,106c-0.2,0-0.3-0.1-0.3-0.3v-1.9c0-0.2,0.1-0.3,0.3-0.3h0.1c0.2,0,0.3,0.1,0.3,0.3v1.9
			C178.4,105.9,178.2,106,178.1,106z"/>
		<path class="st8" d="M176.7,106L176.7,106c-0.2,0-0.3-0.1-0.3-0.3v-1.9c0-0.2,0.1-0.3,0.3-0.3h0.1c0.2,0,0.3,0.1,0.3,0.3v1.9
			C177,105.9,176.8,106,176.7,106z"/>
		<path class="st9" d="M175,106L175,106c-0.2,0-0.3-0.1-0.3-0.3v-1.9c0-0.2,0.1-0.3,0.3-0.3h0.1c0.2,0,0.3,0.1,0.3,0.3v1.9
			C175.3,105.9,175.2,106,175,106z"/>
		<path class="st9" d="M173.6,106L173.6,106c-0.2,0-0.3-0.1-0.3-0.3v-1.9c0-0.2,0.1-0.3,0.3-0.3h0.1c0.2,0,0.3,0.1,0.3,0.3v1.9
			C173.9,105.9,173.8,106,173.6,106z"/>
		<path class="st10" d="M186.4,106L186.4,106c-0.2,0-0.3-0.1-0.3-0.3v-1.9c0-0.2,0.1-0.3,0.3-0.3h0.1c0.2,0,0.3,0.1,0.3,0.3v1.9
			C186.7,105.9,186.5,106,186.4,106z"/>
		<path class="st7" d="M191,102h-15.4c-1.1,0-2-0.9-2-2v-0.4c0-1.1,0.9-2,2-2H191c1.1,0,2,0.9,2,2v0.4C193,101.1,192.1,102,191,102z
			"/>
		<path class="st8" d="M173.5,98.8v2c0,0.7,0.5,1.2,1.2,1.2h4.5c-0.7,0-1.2-0.5-1.2-1.2c0,0,0,0,0,0v-2c0-0.7,0.5-1.2,1.2-1.2
			c0,0,0,0,0,0h-4.5C174,97.6,173.5,98.1,173.5,98.8z"/>
		<path class="st9" d="M173.4,98.8v2c0,0.7,0.5,1.2,1.2,1.2c0,0,0,0,0,0h1.2c-0.7,0-1.2-0.5-1.2-1.2c0,0,0,0,0,0v-2
			c0-0.7,0.5-1.2,1.2-1.2c0,0,0,0,0,0h-1.2C174,97.6,173.4,98.1,173.4,98.8C173.4,98.8,173.4,98.8,173.4,98.8z"/>
		<path class="st10" d="M189.8,102h2c0.7,0,1.2-0.5,1.2-1.2c0,0,0,0,0,0v-2c0-0.7-0.5-1.2-1.2-1.2c0,0,0,0,0,0h-2
			c0.7,0,1.2,0.5,1.2,1.2c0,0,0,0,0,0v2C191,101.5,190.5,102,189.8,102C189.8,102,189.8,102,189.8,102z"/>
		<path class="st10" d="M189.9,101L189.9,101c-0.2,0-0.3-0.1-0.3-0.3v-1.9c0-0.2,0.1-0.3,0.3-0.3h0.1c0.2,0,0.3,0.1,0.3,0.3v1.9
			C190.2,100.9,190.1,101,189.9,101z"/>
		<path class="st10" d="M187.1,101L187.1,101c-0.2,0-0.3-0.1-0.3-0.3v-1.9c0-0.2,0.1-0.3,0.3-0.3h0.1c0.2,0,0.3,0.1,0.3,0.3v1.9
			C187.4,100.9,187.3,101,187.1,101z"/>
		<path class="st10" d="M185.8,101L185.8,101c-0.2,0-0.3-0.1-0.3-0.3v-1.9c0-0.2,0.1-0.3,0.3-0.3h0.1c0.2,0,0.3,0.1,0.3,0.3v1.9
			C186.1,100.9,185.9,101,185.8,101z"/>
		<path class="st10" d="M184.4,101L184.4,101c-0.2,0-0.3-0.1-0.3-0.3v-1.9c0-0.2,0.1-0.3,0.3-0.3h0.1c0.2,0,0.3,0.1,0.3,0.3v1.9
			C184.7,100.9,184.5,101,184.4,101z"/>
		<path class="st10" d="M183,101L183,101c-0.2,0-0.3-0.1-0.3-0.3v-1.9c0-0.2,0.1-0.3,0.3-0.3h0.1c0.2,0,0.3,0.1,0.3,0.3v1.9
			C183.3,100.9,183.1,101,183,101z"/>
		<path class="st8" d="M181.6,101L181.6,101c-0.2,0-0.3-0.1-0.3-0.3v-1.9c0-0.2,0.1-0.3,0.3-0.3h0.1c0.2,0,0.3,0.1,0.3,0.3v1.9
			C181.9,100.9,181.8,101,181.6,101z"/>
		<path class="st8" d="M180.2,101L180.2,101c-0.2,0-0.3-0.1-0.3-0.3v-1.9c0-0.2,0.1-0.3,0.3-0.3h0.1c0.2,0,0.3,0.1,0.3,0.3v1.9
			C180.5,100.9,180.4,101,180.2,101z"/>
		<path class="st8" d="M178.9,101L178.9,101c-0.2,0-0.3-0.1-0.3-0.3v-1.9c0-0.2,0.1-0.3,0.3-0.3h0.1c0.2,0,0.3,0.1,0.3,0.3v1.9
			C179.1,100.9,179,101,178.9,101z"/>
		<path class="st9" d="M177.2,101L177.2,101c-0.2,0-0.3-0.1-0.3-0.3v-1.9c0-0.2,0.1-0.3,0.3-0.3h0.1c0.2,0,0.3,0.1,0.3,0.3v1.9
			C177.5,100.9,177.3,101,177.2,101z"/>
		<path class="st9" d="M175.8,101L175.8,101c-0.2,0-0.3-0.1-0.3-0.3v-1.9c0-0.2,0.1-0.3,0.3-0.3h0.1c0.2,0,0.3,0.1,0.3,0.3v1.9
			C176.1,100.9,176,101,175.8,101z"/>
		<path class="st10" d="M188.5,101L188.5,101c-0.2,0-0.3-0.1-0.3-0.3v-1.9c0-0.2,0.1-0.3,0.3-0.3h0.1c0.2,0,0.3,0.1,0.3,0.3v1.9
			C188.8,100.9,188.7,101,188.5,101z"/>
		<path class="st7" d="M186.5,97h-15.4c-1.1,0-2-0.9-2-2v-0.4c0-1.1,0.9-2,2-2h15.4c1.1,0,2,0.9,2,2V95
			C188.5,96.1,187.6,97,186.5,97z"/>
		<path class="st8" d="M169.1,93.8v2c0,0.7,0.5,1.2,1.2,1.2h4.5c-0.7,0-1.2-0.5-1.2-1.2c0,0,0,0,0,0v-2c0-0.7,0.5-1.2,1.2-1.2
			c0,0,0,0,0,0h-4.5C169.6,92.6,169,93.2,169.1,93.8z"/>
		<path class="st9" d="M169,93.8v2c0,0.7,0.5,1.2,1.2,1.2c0,0,0,0,0,0h1.2c-0.7,0-1.2-0.5-1.2-1.2c0,0,0,0,0,0v-2
			c0-0.7,0.5-1.2,1.2-1.2c0,0,0,0,0,0h-1.2C169.5,92.6,169,93.2,169,93.8C169,93.8,169,93.8,169,93.8z"/>
		<path class="st10" d="M185.4,97h2c0.7,0,1.2-0.5,1.2-1.2c0,0,0,0,0,0v-2c0-0.7-0.5-1.2-1.2-1.2c0,0,0,0,0,0h-2
			c0.7,0,1.2,0.5,1.2,1.2c0,0,0,0,0,0v2C186.5,96.5,186,97,185.4,97C185.4,97,185.4,97,185.4,97z"/>
		<path class="st10" d="M185.4,96.1L185.4,96.1c-0.2,0-0.3-0.1-0.3-0.3v-1.9c0-0.2,0.1-0.3,0.3-0.3h0.1c0.2,0,0.3,0.1,0.3,0.3v1.9
			C185.7,95.9,185.6,96.1,185.4,96.1z"/>
		<path class="st10" d="M182.7,96.1L182.7,96.1c-0.2,0-0.3-0.1-0.3-0.3v-1.9c0-0.2,0.1-0.3,0.3-0.3h0.1c0.2,0,0.3,0.1,0.3,0.3v1.9
			C183,95.9,182.8,96.1,182.7,96.1z"/>
		<path class="st10" d="M181.3,96.1L181.3,96.1c-0.2,0-0.3-0.1-0.3-0.3v-1.9c0-0.2,0.1-0.3,0.3-0.3h0.1c0.2,0,0.3,0.1,0.3,0.3v1.9
			C181.6,95.9,181.5,96.1,181.3,96.1z"/>
		<path class="st10" d="M179.9,96.1L179.9,96.1c-0.2,0-0.3-0.1-0.3-0.3v-1.9c0-0.2,0.1-0.3,0.3-0.3h0.1c0.2,0,0.3,0.1,0.3,0.3v1.9
			C180.2,95.9,180.1,96.1,179.9,96.1z"/>
		<path class="st10" d="M178.5,96.1L178.5,96.1c-0.2,0-0.3-0.1-0.3-0.3v-1.9c0-0.2,0.1-0.3,0.3-0.3h0.1c0.2,0,0.3,0.1,0.3,0.3v1.9
			C178.8,95.9,178.7,96.1,178.5,96.1z"/>
		<path class="st8" d="M177.1,96.1L177.1,96.1c-0.2,0-0.3-0.1-0.3-0.3v-1.9c0-0.2,0.1-0.3,0.3-0.3h0.1c0.2,0,0.3,0.1,0.3,0.3v1.9
			C177.4,95.9,177.3,96.1,177.1,96.1z"/>
		<path class="st8" d="M175.8,96.1L175.8,96.1c-0.2,0-0.3-0.1-0.3-0.3v-1.9c0-0.2,0.1-0.3,0.3-0.3h0.1c0.2,0,0.3,0.1,0.3,0.3v1.9
			C176.1,95.9,175.9,96.1,175.8,96.1z"/>
		<path class="st8" d="M174.4,96.1L174.4,96.1c-0.2,0-0.3-0.1-0.3-0.3v-1.9c0-0.2,0.1-0.3,0.3-0.3h0.1c0.2,0,0.3,0.1,0.3,0.3v1.9
			C174.7,95.9,174.5,96.1,174.4,96.1z"/>
		<path class="st9" d="M172.7,96.1L172.7,96.1c-0.2,0-0.3-0.1-0.3-0.3v-1.9c0-0.2,0.1-0.3,0.3-0.3h0.1c0.2,0,0.3,0.1,0.3,0.3v1.9
			C173,95.9,172.9,96.1,172.7,96.1z"/>
		<path class="st9" d="M171.3,96.1L171.3,96.1c-0.2,0-0.3-0.1-0.3-0.3v-1.9c0-0.2,0.1-0.3,0.3-0.3h0.1c0.2,0,0.3,0.1,0.3,0.3v1.9
			C171.6,95.9,171.5,96.1,171.3,96.1z"/>
		<path class="st10" d="M184.1,96.1L184.1,96.1c-0.2,0-0.3-0.1-0.3-0.3v-1.9c0-0.2,0.1-0.3,0.3-0.3h0.1c0.2,0,0.3,0.1,0.3,0.3v1.9
			C184.3,95.9,184.2,96.1,184.1,96.1z"/>
		<path class="st7" d="M186.2,92.1h-15.4c-1.1,0-2-0.9-2-2v-0.4c0-1.1,0.9-2,2-2h15.4c1.1,0,2,0.9,2,2V90
			C188.2,91.2,187.3,92.1,186.2,92.1z"/>
		<path class="st8" d="M168.7,88.9v2c0,0.7,0.5,1.2,1.2,1.2c0,0,0,0,0,0h4.5c-0.7,0-1.2-0.5-1.2-1.2c0,0,0,0,0,0v-2
			c0-0.7,0.5-1.2,1.2-1.2c0,0,0,0,0,0h-4.5C169.3,87.7,168.7,88.2,168.7,88.9C168.7,88.9,168.7,88.9,168.7,88.9z"/>
		<path class="st9" d="M168.7,88.9v2c0,0.7,0.5,1.2,1.2,1.2c0,0,0,0,0,0h1.2c-0.7,0-1.2-0.5-1.2-1.2c0,0,0,0,0,0v-2
			c0-0.7,0.5-1.2,1.2-1.2c0,0,0,0,0,0h-1.2C169.2,87.7,168.7,88.2,168.7,88.9C168.7,88.9,168.7,88.9,168.7,88.9z"/>
		<path class="st10" d="M185,92.1h2c0.7,0,1.2-0.5,1.2-1.2c0,0,0,0,0,0v-2c0-0.7-0.5-1.2-1.2-1.2c0,0,0,0,0,0h-2
			c0.7,0,1.2,0.5,1.2,1.2c0,0,0,0,0,0v2C186.2,91.5,185.7,92.1,185,92.1C185,92.1,185,92.1,185,92.1z"/>
		<path class="st10" d="M185.1,91.1L185.1,91.1c-0.2,0-0.3-0.1-0.3-0.3v-1.9c0-0.2,0.1-0.3,0.3-0.3h0.1c0.2,0,0.3,0.1,0.3,0.3v1.9
			C185.4,91,185.3,91.1,185.1,91.1z"/>
		<path class="st10" d="M182.4,91.1L182.4,91.1c-0.2,0-0.3-0.1-0.3-0.3v-1.9c0-0.2,0.1-0.3,0.3-0.3h0.1c0.2,0,0.3,0.1,0.3,0.3v1.9
			C182.7,91,182.5,91.1,182.4,91.1z"/>
		<path class="st10" d="M181,91.1L181,91.1c-0.2,0-0.3-0.1-0.3-0.3v-1.9c0-0.2,0.1-0.3,0.3-0.3h0.1c0.2,0,0.3,0.1,0.3,0.3v1.9
			C181.3,91,181.1,91.1,181,91.1z"/>
		<path class="st10" d="M179.6,91.1L179.6,91.1c-0.2,0-0.3-0.1-0.3-0.3v-1.9c0-0.2,0.1-0.3,0.3-0.3h0.1c0.2,0,0.3,0.1,0.3,0.3v1.9
			C179.9,91,179.8,91.1,179.6,91.1z"/>
		<path class="st10" d="M178.2,91.1L178.2,91.1c-0.2,0-0.3-0.1-0.3-0.3v-1.9c0-0.2,0.1-0.3,0.3-0.3h0.1c0.2,0,0.3,0.1,0.3,0.3v1.9
			C178.5,91,178.4,91.1,178.2,91.1z"/>
		<path class="st8" d="M176.8,91.1L176.8,91.1c-0.2,0-0.3-0.1-0.3-0.3v-1.9c0-0.2,0.1-0.3,0.3-0.3h0.1c0.2,0,0.3,0.1,0.3,0.3v1.9
			C177.1,91,177,91.1,176.8,91.1z"/>
		<path class="st8" d="M175.5,91.1L175.5,91.1c-0.2,0-0.3-0.1-0.3-0.3v-1.9c0-0.2,0.1-0.3,0.3-0.3h0.1c0.2,0,0.3,0.1,0.3,0.3v1.9
			C175.7,91,175.6,91.1,175.5,91.1z"/>
		<path class="st8" d="M174.1,91.1L174.1,91.1c-0.2,0-0.3-0.1-0.3-0.3v-1.9c0-0.2,0.1-0.3,0.3-0.3h0.1c0.2,0,0.3,0.1,0.3,0.3v1.9
			C174.4,91,174.2,91.1,174.1,91.1z"/>
		<path class="st9" d="M172.4,91.1L172.4,91.1c-0.2,0-0.3-0.1-0.3-0.3v-1.9c0-0.2,0.1-0.3,0.3-0.3h0.1c0.2,0,0.3,0.1,0.3,0.3v1.9
			C172.7,91,172.6,91.1,172.4,91.1z"/>
		<path class="st9" d="M171,91.1L171,91.1c-0.2,0-0.3-0.1-0.3-0.3v-1.9c0-0.2,0.1-0.3,0.3-0.3h0.1c0.2,0,0.3,0.1,0.3,0.3v1.9
			C171.3,91,171.2,91.1,171,91.1z"/>
		<path class="st10" d="M183.8,91.1L183.8,91.1c-0.2,0-0.3-0.1-0.3-0.3v-1.9c0-0.2,0.1-0.3,0.3-0.3h0.1c0.2,0,0.3,0.1,0.3,0.3v1.9
			C184,91,183.9,91.1,183.8,91.1z"/>
		<path class="st7" d="M188.4,87.1h-15.4c-1.1,0-2-0.9-2-2v-0.4c0-1.1,0.9-2,2-2h15.4c1.1,0,2,0.9,2,2v0.4
			C190.4,86.2,189.5,87.1,188.4,87.1z"/>
		<path class="st8" d="M170.9,83.9v2c0,0.7,0.5,1.2,1.2,1.2c0,0,0,0,0,0h4.5c-0.7,0-1.2-0.5-1.2-1.2v-2c0-0.7,0.5-1.2,1.2-1.2h-4.5
			C171.5,82.7,170.9,83.2,170.9,83.9C170.9,83.9,170.9,83.9,170.9,83.9z"/>
		<path class="st9" d="M170.8,83.9v2c0,0.7,0.5,1.2,1.2,1.2h1.2c-0.7,0-1.2-0.5-1.2-1.2v-2c0-0.7,0.5-1.2,1.2-1.2H172
			C171.4,82.7,170.8,83.2,170.8,83.9z"/>
		<path class="st10" d="M187.2,87.1h2c0.7,0,1.2-0.5,1.2-1.2v-2c0-0.7-0.5-1.2-1.2-1.2h-2c0.7,0,1.2,0.5,1.2,1.2v2
			C188.4,86.5,187.9,87.1,187.2,87.1z"/>
		<path class="st10" d="M187.3,86.1L187.3,86.1c-0.2,0-0.3-0.1-0.3-0.3v-1.9c0-0.2,0.1-0.3,0.3-0.3h0.1c0.2,0,0.3,0.1,0.3,0.3v1.9
			C187.6,86,187.5,86.1,187.3,86.1z"/>
		<path class="st10" d="M184.6,86.1L184.6,86.1c-0.2,0-0.3-0.1-0.3-0.3v-1.9c0-0.2,0.1-0.3,0.3-0.3h0.1c0.2,0,0.3,0.1,0.3,0.3v1.9
			C184.8,86,184.7,86.1,184.6,86.1z"/>
		<path class="st10" d="M183.2,86.1L183.2,86.1c-0.2,0-0.3-0.1-0.3-0.3v-1.9c0-0.2,0.1-0.3,0.3-0.3h0.1c0.2,0,0.3,0.1,0.3,0.3v1.9
			C183.4,86,183.3,86.1,183.2,86.1z"/>
		<path class="st10" d="M181.8,86.1L181.8,86.1c-0.2,0-0.3-0.1-0.3-0.3v-1.9c0-0.2,0.1-0.3,0.3-0.3h0.1c0.2,0,0.3,0.1,0.3,0.3v1.9
			C182.1,86,181.9,86.1,181.8,86.1z"/>
		<path class="st10" d="M180.4,86.1L180.4,86.1c-0.2,0-0.3-0.1-0.3-0.3v-1.9c0-0.2,0.1-0.3,0.3-0.3h0.1c0.2,0,0.3,0.1,0.3,0.3v1.9
			C180.7,86,180.6,86.1,180.4,86.1z"/>
		<path class="st8" d="M179,86.1L179,86.1c-0.2,0-0.3-0.1-0.3-0.3v-1.9c0-0.2,0.1-0.3,0.3-0.3h0.1c0.2,0,0.3,0.1,0.3,0.3v1.9
			C179.3,86,179.2,86.1,179,86.1z"/>
		<path class="st8" d="M177.6,86.1L177.6,86.1c-0.2,0-0.3-0.1-0.3-0.3v-1.9c0-0.2,0.1-0.3,0.3-0.3h0.1c0.2,0,0.3,0.1,0.3,0.3v1.9
			C177.9,86,177.8,86.1,177.6,86.1z"/>
		<path class="st8" d="M176.2,86.1L176.2,86.1c-0.2,0-0.3-0.1-0.3-0.3v-1.9c0-0.2,0.1-0.3,0.3-0.3h0.1c0.2,0,0.3,0.1,0.3,0.3v1.9
			C176.5,86,176.4,86.1,176.2,86.1z"/>
		<path class="st9" d="M174.6,86.1L174.6,86.1c-0.2,0-0.3-0.1-0.3-0.3v-1.9c0-0.2,0.1-0.3,0.3-0.3h0.1c0.2,0,0.3,0.1,0.3,0.3v1.9
			C174.9,86,174.7,86.1,174.6,86.1z"/>
		<path class="st9" d="M173.2,86.1L173.2,86.1c-0.2,0-0.3-0.1-0.3-0.3v-1.9c0-0.2,0.1-0.3,0.3-0.3h0.1c0.2,0,0.3,0.1,0.3,0.3v1.9
			C173.5,86,173.4,86.1,173.2,86.1z"/>
		<path class="st10" d="M185.9,86.1L185.9,86.1c-0.2,0-0.3-0.1-0.3-0.3v-1.9c0-0.2,0.1-0.3,0.3-0.3h0.1c0.2,0,0.3,0.1,0.3,0.3v1.9
			C186.2,86,186.1,86.1,185.9,86.1z"/>
		<path class="st7" d="M189.2,82.1h-15.4c-1.1,0-2-0.9-2-2v-0.4c0-1.1,0.9-2,2-2h15.4c1.1,0,2,0.9,2,2v0.4
			C191.2,81.2,190.3,82.1,189.2,82.1z"/>
		<path class="st8" d="M171.7,78.9v2c0,0.7,0.5,1.2,1.2,1.2h4.5c-0.7,0-1.2-0.5-1.2-1.2c0,0,0,0,0,0v-2c0-0.7,0.5-1.2,1.2-1.2
			c0,0,0,0,0,0h-4.5C172.2,77.7,171.7,78.2,171.7,78.9z"/>
		<path class="st9" d="M171.6,78.9v2c0,0.7,0.5,1.2,1.2,1.2c0,0,0,0,0,0h1.2c-0.7,0-1.2-0.5-1.2-1.2c0,0,0,0,0,0v-2
			c0-0.7,0.5-1.2,1.2-1.2c0,0,0,0,0,0h-1.2C172.2,77.7,171.6,78.2,171.6,78.9C171.6,78.9,171.6,78.9,171.6,78.9z"/>
		<path class="st10" d="M188,82.1h2c0.7,0,1.2-0.5,1.2-1.2c0,0,0,0,0,0v-2c0-0.7-0.5-1.2-1.2-1.2h-2c0.7,0,1.2,0.5,1.2,1.2
			c0,0,0,0,0,0v2C189.2,81.6,188.7,82.1,188,82.1z"/>
		<path class="st10" d="M188.1,81.1L188.1,81.1c-0.2,0-0.3-0.1-0.3-0.3V79c0-0.2,0.1-0.3,0.3-0.3h0.1c0.2,0,0.3,0.1,0.3,0.3v1.9
			C188.4,81,188.3,81.1,188.1,81.1z"/>
		<path class="st10" d="M185.4,81.1L185.4,81.1c-0.2,0-0.3-0.1-0.3-0.3V79c0-0.2,0.1-0.3,0.3-0.3h0.1c0.2,0,0.3,0.1,0.3,0.3v1.9
			C185.6,81,185.5,81.1,185.4,81.1z"/>
		<path class="st10" d="M184,81.1L184,81.1c-0.2,0-0.3-0.1-0.3-0.3V79c0-0.2,0.1-0.3,0.3-0.3h0.1c0.2,0,0.3,0.1,0.3,0.3v1.9
			C184.2,81,184.1,81.1,184,81.1z"/>
		<path class="st10" d="M182.6,81.1L182.6,81.1c-0.2,0-0.3-0.1-0.3-0.3V79c0-0.2,0.1-0.3,0.3-0.3h0.1c0.2,0,0.3,0.1,0.3,0.3v1.9
			C182.9,81,182.7,81.1,182.6,81.1z"/>
		<path class="st10" d="M181.2,81.1L181.2,81.1c-0.2,0-0.3-0.1-0.3-0.3V79c0-0.2,0.1-0.3,0.3-0.3h0.1c0.2,0,0.3,0.1,0.3,0.3v1.9
			C181.5,81,181.4,81.1,181.2,81.1z"/>
		<path class="st8" d="M179.8,81.1L179.8,81.1c-0.2,0-0.3-0.1-0.3-0.3V79c0-0.2,0.1-0.3,0.3-0.3h0.1c0.2,0,0.3,0.1,0.3,0.3v1.9
			C180.1,81,180,81.1,179.8,81.1z"/>
		<path class="st8" d="M178.4,81.1L178.4,81.1c-0.2,0-0.3-0.1-0.3-0.3V79c0-0.2,0.1-0.3,0.3-0.3h0.1c0.2,0,0.3,0.1,0.3,0.3v1.9
			C178.7,81,178.6,81.1,178.4,81.1z"/>
		<path class="st8" d="M177.1,81.1L177.1,81.1c-0.2,0-0.3-0.1-0.3-0.3V79c0-0.2,0.1-0.3,0.3-0.3h0.1c0.2,0,0.3,0.1,0.3,0.3v1.9
			C177.3,81,177.2,81.1,177.1,81.1z"/>
		<path class="st9" d="M175.4,81.1L175.4,81.1c-0.2,0-0.3-0.1-0.3-0.3V79c0-0.2,0.1-0.3,0.3-0.3h0.1c0.2,0,0.3,0.1,0.3,0.3v1.9
			C175.7,81,175.5,81.1,175.4,81.1z"/>
		<path class="st9" d="M174,81.1L174,81.1c-0.2,0-0.3-0.1-0.3-0.3V79c0-0.2,0.1-0.3,0.3-0.3h0.1c0.2,0,0.3,0.1,0.3,0.3v1.9
			C174.3,81,174.1,81.1,174,81.1z"/>
		<path class="st10" d="M186.7,81.1L186.7,81.1c-0.2,0-0.3-0.1-0.3-0.3V79c0-0.2,0.1-0.3,0.3-0.3h0.1c0.2,0,0.3,0.1,0.3,0.3v1.9
			C187,81,186.9,81.1,186.7,81.1z"/>
		<path class="st7" d="M211.8,112h-15.4c-1.1,0-2-0.9-2-2v-0.4c0-1.1,0.9-2,2-2h15.4c1.1,0,2,0.9,2,2v0.4
			C213.8,111.1,212.9,112,211.8,112z"/>
		<path class="st8" d="M194.4,108.8v2c0,0.7,0.5,1.2,1.2,1.2c0,0,0,0,0,0h4.5c-0.7,0-1.2-0.5-1.2-1.2v-2c0-0.7,0.5-1.2,1.2-1.2h-4.5
			C194.9,107.6,194.4,108.1,194.4,108.8C194.4,108.8,194.4,108.8,194.4,108.8z"/>
		<path class="st9" d="M194.3,108.8v2c0,0.7,0.5,1.2,1.2,1.2h1.2c-0.7,0-1.2-0.5-1.2-1.2v-2c0-0.7,0.5-1.2,1.2-1.2h-1.2
			C194.8,107.6,194.3,108.1,194.3,108.8z"/>
		<path class="st10" d="M210.7,112h2c0.7,0,1.2-0.5,1.2-1.2v-2c0-0.7-0.5-1.2-1.2-1.2h-2c0.7,0,1.2,0.5,1.2,1.2c0,0,0,0,0,0v2
			C211.9,111.5,211.3,112,210.7,112C210.7,112,210.7,112,210.7,112z"/>
		<path class="st10" d="M210.8,111L210.8,111c-0.2,0-0.3-0.1-0.3-0.3v-1.9c0-0.2,0.1-0.3,0.3-0.3h0.1c0.2,0,0.3,0.1,0.3,0.3v1.9
			C211.1,110.9,210.9,111,210.8,111z"/>
		<path class="st10" d="M208,111L208,111c-0.2,0-0.3-0.1-0.3-0.3v-1.9c0-0.2,0.1-0.3,0.3-0.3h0.1c0.2,0,0.3,0.1,0.3,0.3v1.9
			C208.3,110.9,208.2,111,208,111z"/>
		<path class="st10" d="M206.6,111L206.6,111c-0.2,0-0.3-0.1-0.3-0.3v-1.9c0-0.2,0.1-0.3,0.3-0.3h0.1c0.2,0,0.3,0.1,0.3,0.3v1.9
			C206.9,110.9,206.8,111,206.6,111z"/>
		<path class="st10" d="M205.2,111L205.2,111c-0.2,0-0.3-0.1-0.3-0.3v-1.9c0-0.2,0.1-0.3,0.3-0.3h0.1c0.2,0,0.3,0.1,0.3,0.3v1.9
			C205.5,110.9,205.4,111,205.2,111z"/>
		<path class="st10" d="M203.9,111L203.9,111c-0.2,0-0.3-0.1-0.3-0.3v-1.9c0-0.2,0.1-0.3,0.3-0.3h0.1c0.2,0,0.3,0.1,0.3,0.3v1.9
			C204.1,110.9,204,111,203.9,111z"/>
		<path class="st8" d="M202.5,111L202.5,111c-0.2,0-0.3-0.1-0.3-0.3v-1.9c0-0.2,0.1-0.3,0.3-0.3h0.1c0.2,0,0.3,0.1,0.3,0.3v1.9
			C202.8,110.9,202.6,111,202.5,111z"/>
		<path class="st8" d="M201.1,111L201.1,111c-0.2,0-0.3-0.1-0.3-0.3v-1.9c0-0.2,0.1-0.3,0.3-0.3h0.1c0.2,0,0.3,0.1,0.3,0.3v1.9
			C201.4,110.9,201.2,111,201.1,111z"/>
		<path class="st8" d="M199.7,111L199.7,111c-0.2,0-0.3-0.1-0.3-0.3v-1.9c0-0.2,0.1-0.3,0.3-0.3h0.1c0.2,0,0.3,0.1,0.3,0.3v1.9
			C200,110.9,199.9,111,199.7,111z"/>
		<path class="st9" d="M198,111L198,111c-0.2,0-0.3-0.1-0.3-0.3v-1.9c0-0.2,0.1-0.3,0.3-0.3h0.1c0.2,0,0.3,0.1,0.3,0.3v1.9
			C198.3,110.9,198.2,111,198,111z"/>
		<path class="st9" d="M196.6,111L196.6,111c-0.2,0-0.3-0.1-0.3-0.3v-1.9c0-0.2,0.1-0.3,0.3-0.3h0.1c0.2,0,0.3,0.1,0.3,0.3v1.9
			C196.9,110.9,196.8,111,196.6,111z"/>
		<path class="st10" d="M209.4,111L209.4,111c-0.2,0-0.3-0.1-0.3-0.3v-1.9c0-0.2,0.1-0.3,0.3-0.3h0.1c0.2,0,0.3,0.1,0.3,0.3v1.9
			C209.7,110.9,209.5,111,209.4,111z"/>
		<path class="st7" d="M211.8,107h-15.4c-1.1,0-2-0.9-2-2v-0.4c0-1.1,0.9-2,2-2h15.4c1.1,0,2,0.9,2,2v0.4
			C213.8,106.1,212.9,107,211.8,107z"/>
		<path class="st8" d="M194.4,103.8v2c0,0.7,0.5,1.2,1.2,1.2c0,0,0,0,0,0h4.5c-0.7,0-1.2-0.5-1.2-1.2v-2c0-0.7,0.5-1.2,1.2-1.2h-4.5
			C194.9,102.6,194.4,103.1,194.4,103.8C194.4,103.8,194.4,103.8,194.4,103.8z"/>
		<path class="st9" d="M194.3,103.8v2c0,0.7,0.5,1.2,1.2,1.2h1.2c-0.7,0-1.2-0.5-1.2-1.2v-2c0-0.7,0.5-1.2,1.2-1.2h-1.2
			C194.8,102.6,194.3,103.1,194.3,103.8z"/>
		<path class="st10" d="M210.7,107h2c0.7,0,1.2-0.5,1.2-1.2v-2c0-0.7-0.5-1.2-1.2-1.2h-2c0.7,0,1.2,0.5,1.2,1.2c0,0,0,0,0,0v2
			C211.9,106.5,211.3,107,210.7,107C210.7,107,210.7,107,210.7,107z"/>
		<path class="st10" d="M210.8,106L210.8,106c-0.2,0-0.3-0.1-0.3-0.3v-1.9c0-0.2,0.1-0.3,0.3-0.3h0.1c0.2,0,0.3,0.1,0.3,0.3v1.9
			C211.1,105.9,210.9,106,210.8,106z"/>
		<path class="st10" d="M208,106L208,106c-0.2,0-0.3-0.1-0.3-0.3v-1.9c0-0.2,0.1-0.3,0.3-0.3h0.1c0.2,0,0.3,0.1,0.3,0.3v1.9
			C208.3,105.9,208.2,106,208,106z"/>
		<path class="st10" d="M206.6,106L206.6,106c-0.2,0-0.3-0.1-0.3-0.3v-1.9c0-0.2,0.1-0.3,0.3-0.3h0.1c0.2,0,0.3,0.1,0.3,0.3v1.9
			C206.9,105.9,206.8,106,206.6,106z"/>
		<path class="st10" d="M205.2,106L205.2,106c-0.2,0-0.3-0.1-0.3-0.3v-1.9c0-0.2,0.1-0.3,0.3-0.3h0.1c0.2,0,0.3,0.1,0.3,0.3v1.9
			C205.5,105.9,205.4,106,205.2,106z"/>
		<path class="st10" d="M203.9,106L203.9,106c-0.2,0-0.3-0.1-0.3-0.3v-1.9c0-0.2,0.1-0.3,0.3-0.3h0.1c0.2,0,0.3,0.1,0.3,0.3v1.9
			C204.1,105.9,204,106,203.9,106z"/>
		<path class="st8" d="M202.5,106L202.5,106c-0.2,0-0.3-0.1-0.3-0.3v-1.9c0-0.2,0.1-0.3,0.3-0.3h0.1c0.2,0,0.3,0.1,0.3,0.3v1.9
			C202.8,105.9,202.6,106,202.5,106z"/>
		<path class="st8" d="M201.1,106L201.1,106c-0.2,0-0.3-0.1-0.3-0.3v-1.9c0-0.2,0.1-0.3,0.3-0.3h0.1c0.2,0,0.3,0.1,0.3,0.3v1.9
			C201.4,105.9,201.2,106,201.1,106z"/>
		<path class="st8" d="M199.7,106L199.7,106c-0.2,0-0.3-0.1-0.3-0.3v-1.9c0-0.2,0.1-0.3,0.3-0.3h0.1c0.2,0,0.3,0.1,0.3,0.3v1.9
			C200,105.9,199.9,106,199.7,106z"/>
		<path class="st9" d="M198,106L198,106c-0.2,0-0.3-0.1-0.3-0.3v-1.9c0-0.2,0.1-0.3,0.3-0.3h0.1c0.2,0,0.3,0.1,0.3,0.3v1.9
			C198.3,105.9,198.2,106,198,106z"/>
		<path class="st9" d="M196.6,106L196.6,106c-0.2,0-0.3-0.1-0.3-0.3v-1.9c0-0.2,0.1-0.3,0.3-0.3h0.1c0.2,0,0.3,0.1,0.3,0.3v1.9
			C196.9,105.9,196.8,106,196.6,106z"/>
		<path class="st10" d="M209.4,106L209.4,106c-0.2,0-0.3-0.1-0.3-0.3v-1.9c0-0.2,0.1-0.3,0.3-0.3h0.1c0.2,0,0.3,0.1,0.3,0.3v1.9
			C209.7,105.9,209.5,106,209.4,106z"/>
		<path class="st7" d="M211.8,102h-15.4c-1.1,0-2-0.9-2-2v-0.4c0-1.1,0.9-2,2-2h15.4c1.1,0,2,0.9,2,2v0.4
			C213.8,101.1,212.9,102,211.8,102z"/>
		<path class="st8" d="M194.4,98.8v2c0,0.7,0.5,1.2,1.2,1.2c0,0,0,0,0,0h4.5c-0.7,0-1.2-0.5-1.2-1.2v-2c0-0.7,0.5-1.2,1.2-1.2h-4.5
			C194.9,97.6,194.4,98.1,194.4,98.8C194.4,98.8,194.4,98.8,194.4,98.8z"/>
		<path class="st9" d="M194.3,98.8v2c0,0.7,0.5,1.2,1.2,1.2h1.2c-0.7,0-1.2-0.5-1.2-1.2v-2c0-0.7,0.5-1.2,1.2-1.2h-1.2
			C194.8,97.6,194.3,98.2,194.3,98.8z"/>
		<path class="st10" d="M210.7,102h2c0.7,0,1.2-0.5,1.2-1.2v-2c0-0.7-0.5-1.2-1.2-1.2h-2c0.7,0,1.2,0.5,1.2,1.2c0,0,0,0,0,0v2
			C211.9,101.5,211.3,102,210.7,102C210.7,102,210.7,102,210.7,102z"/>
		<path class="st10" d="M210.8,101L210.8,101c-0.2,0-0.3-0.1-0.3-0.3v-1.9c0-0.2,0.1-0.3,0.3-0.3h0.1c0.2,0,0.3,0.1,0.3,0.3v1.9
			C211.1,100.9,210.9,101,210.8,101z"/>
		<path class="st10" d="M208,101L208,101c-0.2,0-0.3-0.1-0.3-0.3v-1.9c0-0.2,0.1-0.3,0.3-0.3h0.1c0.2,0,0.3,0.1,0.3,0.3v1.9
			C208.3,100.9,208.2,101,208,101z"/>
		<path class="st10" d="M206.6,101L206.6,101c-0.2,0-0.3-0.1-0.3-0.3v-1.9c0-0.2,0.1-0.3,0.3-0.3h0.1c0.2,0,0.3,0.1,0.3,0.3v1.9
			C206.9,100.9,206.8,101,206.6,101z"/>
		<path class="st10" d="M205.2,101L205.2,101c-0.2,0-0.3-0.1-0.3-0.3v-1.9c0-0.2,0.1-0.3,0.3-0.3h0.1c0.2,0,0.3,0.1,0.3,0.3v1.9
			C205.5,100.9,205.4,101,205.2,101z"/>
		<path class="st10" d="M203.9,101L203.9,101c-0.2,0-0.3-0.1-0.3-0.3v-1.9c0-0.2,0.1-0.3,0.3-0.3h0.1c0.2,0,0.3,0.1,0.3,0.3v1.9
			C204.1,100.9,204,101,203.9,101z"/>
		<path class="st8" d="M202.5,101L202.5,101c-0.2,0-0.3-0.1-0.3-0.3v-1.9c0-0.2,0.1-0.3,0.3-0.3h0.1c0.2,0,0.3,0.1,0.3,0.3v1.9
			C202.8,100.9,202.6,101,202.5,101z"/>
		<path class="st8" d="M201.1,101L201.1,101c-0.2,0-0.3-0.1-0.3-0.3v-1.9c0-0.2,0.1-0.3,0.3-0.3h0.1c0.2,0,0.3,0.1,0.3,0.3v1.9
			C201.4,100.9,201.2,101,201.1,101z"/>
		<path class="st8" d="M199.7,101L199.7,101c-0.2,0-0.3-0.1-0.3-0.3v-1.9c0-0.2,0.1-0.3,0.3-0.3h0.1c0.2,0,0.3,0.1,0.3,0.3v1.9
			C200,100.9,199.9,101,199.7,101z"/>
		<path class="st9" d="M198,101L198,101c-0.2,0-0.3-0.1-0.3-0.3v-1.9c0-0.2,0.1-0.3,0.3-0.3h0.1c0.2,0,0.3,0.1,0.3,0.3v1.9
			C198.3,100.9,198.2,101,198,101z"/>
		<path class="st9" d="M196.6,101L196.6,101c-0.2,0-0.3-0.1-0.3-0.3v-1.9c0-0.2,0.1-0.3,0.3-0.3h0.1c0.2,0,0.3,0.1,0.3,0.3v1.9
			C196.9,100.9,196.8,101,196.6,101z"/>
		<path class="st10" d="M209.4,101L209.4,101c-0.2,0-0.3-0.1-0.3-0.3v-1.9c0-0.2,0.1-0.3,0.3-0.3h0.1c0.2,0,0.3,0.1,0.3,0.3v1.9
			C209.7,100.9,209.5,101,209.4,101z"/>
		<path class="st7" d="M191.5,84.4l9.1,12c0.3,0.5,1,0.6,1.5,0.2c0,0,0,0,0,0l1.3-1c0.5-0.4,0.6-1,0.2-1.5l-9.1-12
			c-0.4-0.5-1-0.6-1.5-0.2c0,0,0,0,0,0l-1.3,1C191.3,83.3,191.2,84,191.5,84.4z"/>
		<path class="st8" d="M193.1,81.8l-1.4,1.1c-0.5,0.4-0.5,1-0.2,1.5l2.4,3.2c-0.4-0.5-0.3-1.1,0.2-1.5l1.4-1.1
			c0.4-0.4,1.1-0.3,1.4,0.1c0,0,0,0.1,0.1,0.1l-2.4-3.2C194.2,81.6,193.5,81.5,193.1,81.8C193.1,81.8,193.1,81.8,193.1,81.8z"/>
		<path class="st9" d="M193.1,81.8l-1.4,1.1c-0.5,0.4-0.5,1-0.2,1.5c0,0,0,0,0,0l0.6,0.9c-0.4-0.5-0.3-1.1,0.2-1.5l1.4-1.1
			c0.4-0.4,1.1-0.3,1.4,0.1c0,0,0,0.1,0.1,0.1l-0.6-0.9C194.2,81.6,193.6,81.5,193.1,81.8C193.1,81.8,193.1,81.8,193.1,81.8z"/>
		<path class="st10" d="M199.6,95l1.1,1.4c0.4,0.5,1,0.5,1.5,0.2c0,0,0,0,0,0l1.4-1.1c0.5-0.4,0.5-1,0.2-1.5l-1.1-1.4
			c0.4,0.5,0.3,1.1-0.2,1.5c0,0,0,0,0,0l-1.4,1.1C200.7,95.5,200,95.5,199.6,95C199.6,95,199.6,95,199.6,95z"/>
		<path class="st10" d="M200.4,94.6L200.4,94.6c0.1,0.1,0.3,0.1,0.4,0.1c0,0,0,0,0,0l1.3-1c0.1-0.1,0.1-0.3,0.1-0.4l0,0
			c-0.1-0.1-0.3-0.1-0.4,0l-1.3,1C200.3,94.3,200.3,94.5,200.4,94.6z"/>
		<path class="st10" d="M198.9,92.6L198.9,92.6c0.1,0.1,0.3,0.1,0.4,0l1.3-1c0.1-0.1,0.1-0.3,0.1-0.4l0,0c-0.1-0.1-0.3-0.1-0.4,0
			l-1.3,1C198.8,92.3,198.8,92.5,198.9,92.6z"/>
		<path class="st10" d="M198.1,91.7L198.1,91.7c0.1,0.1,0.3,0.1,0.4,0l1.3-1c0.1-0.1,0.1-0.3,0-0.4l0,0c-0.1-0.1-0.3-0.1-0.4,0
			l-1.3,1C198,91.4,198,91.5,198.1,91.7z"/>
		<path class="st10" d="M197.4,90.7L197.4,90.7c0.1,0.1,0.3,0.1,0.4,0c0,0,0,0,0,0l1.3-1c0.1-0.1,0.1-0.3,0-0.4c0,0,0,0,0,0l0,0
			c-0.1-0.1-0.2-0.2-0.4-0.1c0,0,0,0,0,0l-1.3,1C197.3,90.3,197.2,90.5,197.4,90.7C197.3,90.6,197.4,90.7,197.4,90.7z"/>
		<path class="st10" d="M196.6,89.7L196.6,89.7c0.1,0.1,0.3,0.1,0.4,0l1.3-1c0.1-0.1,0.1-0.3,0.1-0.4l0,0c-0.1-0.1-0.3-0.1-0.4,0
			l-1.3,1C196.6,89.4,196.5,89.6,196.6,89.7z"/>
		<path class="st8" d="M195.9,88.7L195.9,88.7c0.1,0.1,0.2,0.1,0.4,0c0,0,0,0,0,0l1.3-1c0.1-0.1,0.1-0.3,0.1-0.4l0,0
			c-0.1-0.1-0.3-0.1-0.4,0c0,0,0,0,0,0l-1.3,1C195.8,88.4,195.8,88.6,195.9,88.7C195.9,88.7,195.9,88.7,195.9,88.7z"/>
		<path class="st8" d="M195.1,87.8L195.1,87.8c0.1,0.1,0.3,0.1,0.4,0l1.3-1c0.1-0.1,0.1-0.3,0.1-0.4l0,0c-0.1-0.1-0.3-0.1-0.4-0.1
			c0,0,0,0,0,0l-1.3,1C195.1,87.4,195,87.5,195.1,87.8C195.1,87.7,195.1,87.7,195.1,87.8z"/>
		<path class="st8" d="M194.4,86.8L194.4,86.8c0.1,0.1,0.3,0.1,0.4,0l1.3-1c0.1-0.1,0.1-0.3,0-0.4l0,0c-0.1-0.1-0.3-0.1-0.4,0
			l-1.3,1C194.3,86.5,194.3,86.7,194.4,86.8z"/>
		<path class="st9" d="M193.5,85.6L193.5,85.6c0.1,0.1,0.2,0.2,0.4,0.1c0,0,0,0,0,0l1.3-1c0.1-0.1,0.1-0.3,0-0.4c0,0,0,0,0,0l0,0
			c-0.1-0.1-0.2-0.1-0.4-0.1c0,0,0,0,0,0l-1.3,1C193.4,85.3,193.4,85.5,193.5,85.6C193.5,85.6,193.5,85.6,193.5,85.6z"/>
		<path class="st9" d="M192.8,84.6L192.8,84.6c0.1,0.1,0.3,0.1,0.4,0.1c0,0,0,0,0,0l1.3-1c0.1-0.1,0.1-0.3,0.1-0.4c0,0,0,0,0,0l0,0
			c-0.1-0.1-0.3-0.2-0.4-0.1c0,0,0,0,0,0l-1.3,1C192.7,84.3,192.7,84.5,192.8,84.6z"/>
		<path class="st10" d="M199.6,93.6L199.6,93.6c0.1,0.1,0.3,0.1,0.4,0c0,0,0,0,0,0l1.3-1c0.1-0.1,0.1-0.2,0.1-0.4c0,0,0,0,0,0l0,0
			c-0.1-0.1-0.3-0.1-0.4,0c0,0,0,0,0,0l-1.3,1C199.5,93.3,199.5,93.5,199.6,93.6C199.6,93.6,199.6,93.6,199.6,93.6z"/>
		<ellipse class="st9" cx="166.2" cy="103.4" rx="8.1" ry="9.5"/>
		<path class="st7" d="M172.7,103.4c0,4.7-3.4,8.5-7.5,8.5s-7.5-3.8-7.5-8.5s2.2-8.5,7.5-8.5C169.3,94.8,172.7,98.7,172.7,103.4z"/>
		<path class="st7" d="M165.2,112.3c-4.4,0-7.9-4-7.9-8.9c-0.1-2.2,0.6-4.4,1.9-6.2c1.5-1.8,3.7-2.8,6-2.7c2,0,3.9,0.8,5.2,2.2
			c1.7,1.8,2.7,4.2,2.7,6.7C173.1,108.3,169.5,112.3,165.2,112.3z M165.2,95.3L165.2,95.3c-2.1-0.1-4.2,0.8-5.5,2.4
			c-1.2,1.7-1.8,3.7-1.7,5.8c0,4.5,3.2,8.2,7.1,8.2s7.1-3.7,7.1-8.2c0-2.3-0.9-4.5-2.4-6.2C168.7,96,167,95.3,165.2,95.3L165.2,95.3
			z"/>
		<ellipse class="st2" cx="163.8" cy="103.4" rx="7.5" ry="8.5"/>
		<path class="st7" d="M163.8,112.3c-4.4,0-7.9-4-7.9-8.9s3.6-8.9,7.9-8.9s7.9,4,7.9,8.9S168.1,112.3,163.8,112.3z M163.8,95.3
			c-3.9,0-7.1,3.7-7.1,8.1s3.2,8.2,7.1,8.2s7.1-3.7,7.1-8.2S167.7,95.2,163.8,95.3L163.8,95.3z"/>
		<ellipse class="st2" cx="163.8" cy="103.4" rx="6" ry="6.8"/>
		<path class="st7" d="M163.8,110.6c-3.5,0-6.4-3.2-6.4-7.2s2.9-7.2,6.4-7.2s6.4,3.2,6.4,7.2S167.3,110.6,163.8,110.6z M163.8,96.9
			c-3.1,0-5.6,2.9-5.6,6.4s2.5,6.4,5.6,6.4s5.6-2.9,5.6-6.4S166.9,97,163.8,96.9L163.8,96.9z"/>
		<path class="st11" d="M165.1,101.5c0.1,0.2,0.2,0.4,0.3,0.6l0.9,0.1l-0.1,0.9l-0.8-0.1v0.1c0,1-0.6,1.8-1.5,2.1l1.3,2.8l-1.6-0.2
			l-1.1-2.6l-1.8-0.2l0.1-1.4l1.7,0.2c0.7,0.2,1.3-0.2,1.5-0.9c0-0.1,0-0.2,0-0.2l-3.4-0.3l0.1-0.9l3.2,0.3
			c-0.2-0.4-0.7-0.7-1.2-0.7l-2-0.2l0.1-0.9l5.7,0.5l-0.1,0.9L165.1,101.5z"/>
		<ellipse class="st12" cx="207.9" cy="103.1" rx="23.5" ry="2.6"/>
		<path class="st11" d="M233.8,52.2c0.2,0.2,0.3,0.4,0.4,0.6h1v0.9h-0.8v0.1c0.1,1-0.4,1.9-1.3,2.3l1.6,2.7l-1.6,0l-1.4-2.4l-1.8,0
			l-0.1-1.4h1.7c1,0,1.4-0.6,1.4-1.3l-3.4,0.1v-0.9l3.2-0.1c-0.3-0.4-0.8-0.6-1.3-0.5l-2,0.1v-0.9l5.7-0.2v0.9L233.8,52.2z"/>
		<path class="st11" d="M247.2,42.8c0.1,0.2,0.3,0.4,0.4,0.6h1v0.9h-0.8v0.1c0.1,1-0.4,1.9-1.3,2.3l1.6,2.7h-1.6l-1.5-2.4h-1.8
			l-0.1-1.4h1.7c1,0,1.4-0.6,1.4-1.3l-3.4,0.1v-0.9l3.2-0.1c-0.3-0.4-0.8-0.6-1.3-0.5l-2,0V42l5.7-0.2v0.9L247.2,42.8z"/>
	</g>
</g>
</svg>
