<?xml version="1.0" encoding="utf-8"?>
<!-- Generator: Adobe Illustrator 25.3.0, SVG Export Plug-In . SVG Version: 6.00 Build 0)  -->
<svg version="1.1" id="Layer_1" xmlns="http://www.w3.org/2000/svg" xmlns:xlink="http://www.w3.org/1999/xlink" x="0px" y="0px"
	 viewBox="0 0 280 120" style="enable-background:new 0 0 280 120;" xml:space="preserve">
<style type="text/css">
	.st0{fill:url(#SVGID_1_);}
	.st1{fill:#00E0FD;}
	.st2{fill:#1F0D50;}
	.st3{fill:#FFFFFF;}
	.st4{opacity:0.14;}
	.st5{fill:#5479F7;}
	.st6{fill:#336EB5;}
	.st7{fill:#0F3F91;}
	.st8{fill:url(#SVGID_2_);}
	.st9{opacity:0.33;fill:#FFFFFF;enable-background:new    ;}
	.st10{fill:#FFDA3E;}
	.st11{fill:#FCC730;}
	.st12{fill:#B76B37;}
	.st13{font-family:'MyriadPro-Regular';}
	.st14{font-size:12.54px;}
	.st15{fill:#253956;}
	.st16{fill:#41567A;}
	.st17{fill:#0AD3E2;}
	.st18{fill:#09C7CC;}
	.st19{fill:#EB8E6C;}
	.st20{fill:#F3FAFF;}
	.st21{fill:#0F2251;}
	.st22{fill:#E1EFF9;}
	.st23{fill:#F2F6F9;}
	.st24{fill:#8181E2;}
	.st25{fill:#061E59;}
	.st26{fill:#562745;}
	.st27{fill:#9494ED;}
	.st28{fill:#A4A3FA;}
	.st29{fill:#C36252;}
	.st30{fill:#072872;}
	.st31{fill:#DD7858;}
	.st32{fill:#60334E;}
	.st33{fill:#15328C;}
	.st34{fill:#1E429B;}
	.st35{fill:#0F2E7C;}
	.st36{fill:#161237;}
	.st37{fill:#23173D;}
	.st38{fill:#FEFDFB;}
	.st39{fill:#FFD31A;}
	.st40{fill:#FFE266;}
	.st41{fill:#FFBE1D;}
	.st42{fill:#FFF68A;}
</style>
<linearGradient id="SVGID_1_" gradientUnits="userSpaceOnUse" x1="-25.6088" y1="162.1819" x2="207.4311" y2="21.5319" gradientTransform="matrix(1 0 0 -1 0 122)">
	<stop  offset="2.000000e-02" style="stop-color:#1F0D50"/>
	<stop  offset="0.15" style="stop-color:#26115C"/>
	<stop  offset="0.38" style="stop-color:#3A1A7D"/>
	<stop  offset="0.69" style="stop-color:#5A29B2"/>
	<stop  offset="1" style="stop-color:#7D3AEC"/>
</linearGradient>
<rect x="-3.5" y="-4" class="st0" width="286.1" height="127.1"/>
<path class="st1" d="M280.4,24.7h-54.6c-2.3,0-4.2-1.9-4.2-4.2c0,0,0,0,0,0V9.8c0-2.3,1.9-4.2,4.2-4.2l0,0h54.6l0,0V24.7L280.4,24.7
	z"/>
<path class="st2" d="M229.4,19c0,0-0.1-0.1-0.1-0.2v-6.5c0-0.1,0-0.1,0.1-0.2c0,0,0.1-0.1,0.2-0.1h0.8c0.1,0,0.2,0.1,0.3,0.2
	l2.9,4.5v-4.4c0-0.1,0-0.1,0.1-0.2c0,0,0.1-0.1,0.2-0.1h0.9c0.1,0,0.1,0,0.2,0.1c0,0,0.1,0.1,0.1,0.2v6.5c0,0.1,0,0.1-0.1,0.2
	c0,0-0.1,0.1-0.2,0.1h-0.8c-0.1,0-0.2-0.1-0.3-0.2l-2.9-4.4v4.3c0,0.1,0,0.1-0.1,0.2c0,0-0.1,0.1-0.2,0.1h-0.9
	C229.5,19.1,229.4,19.1,229.4,19z"/>
<path class="st2" d="M236.5,19c0,0-0.1-0.1-0.1-0.2v-6.5c0-0.1,0.1-0.2,0.2-0.2c0,0,0,0,0,0h4.4c0.1,0,0.1,0,0.2,0.1
	c0,0.1,0.1,0.1,0.1,0.2V13c0,0.1,0,0.1-0.1,0.2c-0.1,0-0.1,0.1-0.2,0.1h-3.2v1.9h3c0.1,0,0.1,0,0.2,0.1c0,0,0.1,0.1,0.1,0.2v0.7
	c0,0.1,0,0.1-0.1,0.2c0,0.1-0.1,0.1-0.2,0.1h-3v2.5c0,0.1,0,0.1-0.1,0.2c0,0-0.1,0.1-0.2,0.1h-0.9C236.6,19.1,236.5,19.1,236.5,19z"
	/>
<path class="st2" d="M243,18.5c-0.5-0.5-0.8-1.3-0.8-2.1c0-0.2,0-0.5,0-0.9s0-0.7,0-0.9c0-0.8,0.3-1.5,0.8-2.1c1.3-1,3-1,4.2,0
	c0.6,0.5,0.9,1.3,0.8,2.1c0,0.4,0,0.7,0,0.9s0,0.5,0,0.9c0,0.8-0.3,1.5-0.8,2.1C246,19.4,244.3,19.4,243,18.5L243,18.5z M246.2,17.6
	c0.3-0.3,0.4-0.8,0.4-1.2c0-0.4,0-0.7,0-0.8s0-0.4,0-0.8c0-0.4-0.1-0.9-0.4-1.2c-0.6-0.5-1.5-0.5-2.1,0c-0.3,0.3-0.4,0.8-0.4,1.2
	c0,0.2,0,0.5,0,0.8s0,0.6,0,0.8c0,0.4,0.1,0.9,0.4,1.2c0.3,0.3,0.7,0.4,1.1,0.4C245.5,18.1,245.9,17.9,246.2,17.6L246.2,17.6z"/>
<path class="st2" d="M250.9,19c0,0-0.1-0.1-0.1-0.1v-0.1l2.4-6.5c0-0.2,0.2-0.3,0.4-0.2h1.1c0.2,0,0.3,0.1,0.4,0.2l2.4,6.5v0.1
	c0,0.1,0,0.1-0.1,0.1c0,0-0.1,0.1-0.1,0.1h-0.9c-0.1,0-0.2-0.1-0.3-0.2l-0.5-1.2h-3l-0.5,1.2c0,0.1-0.2,0.2-0.3,0.2H251
	C251,19.1,250.9,19.1,250.9,19z M253,16.5h2.3l-1.1-3.1L253,16.5z"/>
<path class="st2" d="M258.4,19c0,0-0.1-0.1-0.1-0.2v-6.6c0-0.1,0-0.1,0.1-0.2c0,0,0.1-0.1,0.2-0.1h0.9c0.1,0,0.2,0.1,0.2,0.2v6.7
	c0,0.1,0,0.1-0.1,0.2c0,0-0.1,0.1-0.2,0.1h-0.9C258.5,19.1,258.4,19.1,258.4,19z"/>
<path class="st2" d="M261.5,18.6c-0.5-0.5-0.7-1.2-0.7-1.8v-0.2c0-0.7,0.2-1.4,0.7-2c1-1,2.6-1,3.7,0c0.5,0.5,0.7,1.2,0.6,1.9v0.2
	c0,0.1,0,0.1-0.1,0.2c-0.1,0-0.1,0.1-0.2,0.1h-3.3V17c0,0.3,0.1,0.7,0.3,0.9c0.2,0.2,0.5,0.4,0.8,0.4c0.4,0,0.7-0.2,0.9-0.5
	c0-0.1,0.1-0.1,0.1-0.1c0.1,0,0.1,0,0.2,0h0.9c0.1,0,0.1,0,0.1,0c0,0,0.1,0.1,0.1,0.1c0,0.2-0.1,0.4-0.3,0.6
	c-0.2,0.2-0.5,0.4-0.8,0.6c-0.4,0.2-0.8,0.2-1.2,0.2C262.6,19.3,261.9,19,261.5,18.6z M264.3,16L264.3,16c0-0.4-0.1-0.7-0.3-1
	c-0.4-0.4-1.1-0.5-1.6-0.1c0,0,0,0-0.1,0.1c-0.2,0.3-0.3,0.6-0.3,1l0,0H264.3z"/>
<path class="st2" d="M266.9,19c0,0-0.1-0.1-0.1-0.2v-4.7c0-0.1,0-0.1,0.1-0.2c0,0,0.1-0.1,0.2-0.1h0.8c0.1,0,0.1,0.1,0.1,0.1
	c0,0,0.1,0.1,0.1,0.2v0.4c0.3-0.5,0.9-0.7,1.5-0.7h0.5c0.1,0,0.2,0.1,0.2,0.2v0.7c0,0.1,0,0.1-0.1,0.2c0,0-0.1,0.1-0.2,0.1h-0.8
	c-0.5,0-1,0.3-1,0.9c0,0,0,0.1,0,0.1v2.8c0,0.1,0,0.1-0.1,0.2c0,0-0.1,0.1-0.2,0.1h-1C266.9,19.1,266.9,19.1,266.9,19z"/>
<path class="st2" d="M272,18.6c-0.3-0.4-0.5-0.9-0.5-1.4V15h-0.8c-0.1,0-0.1,0-0.2-0.1c0,0-0.1-0.1-0.1-0.2v-0.6
	c0-0.1,0-0.1,0.1-0.2c0,0,0.1-0.1,0.2-0.1h0.8v-1.7c0-0.1,0.1-0.2,0.2-0.2h0.8c0.1,0,0.1,0,0.2,0.1c0,0,0.1,0.1,0.1,0.2v1.7h1.3
	c0.1,0,0.1,0,0.2,0.1c0,0,0.1,0.1,0.1,0.2v0.6c0,0.1,0,0.1-0.1,0.2c0,0-0.1,0.1-0.2,0.1h-1.3v2.2c0,0.2,0,0.5,0.1,0.6
	c0.1,0.2,0.3,0.2,0.5,0.2h0.7c0.1,0,0.2,0.1,0.2,0.2v0.6c0,0.1,0,0.1-0.1,0.2c0,0-0.1,0.1-0.2,0.1h-0.8
	C272.9,19.1,272.4,19,272,18.6z"/>
<path class="st3" d="M22.7,70.6c-0.4-0.2-0.8-0.5-1.1-0.8c-0.3-0.3-0.4-0.7-0.4-1.1c0-0.1,0-0.1,0.1-0.2c0,0,0.1-0.1,0.2-0.1H22
	c0.1,0,0.3,0.1,0.3,0.2c0.1,0.4,0.3,0.7,0.6,0.9c0.5,0.3,1,0.4,1.5,0.4c0.5,0,1.1-0.1,1.6-0.4c0.3-0.2,0.5-0.6,0.5-1
	c0-0.3-0.1-0.5-0.2-0.7c-0.2-0.2-0.5-0.4-0.8-0.5c-0.3-0.1-0.8-0.3-1.5-0.5c-0.5-0.1-1-0.3-1.5-0.6c-0.3-0.2-0.6-0.4-0.9-0.8
	c-0.2-0.3-0.3-0.7-0.3-1.1c0-0.4,0.1-0.8,0.4-1.2c0.2-0.4,0.6-0.6,1-0.8c0.5-0.2,1.1-0.3,1.6-0.3c0.6,0,1.1,0.1,1.6,0.3
	c0.4,0.2,0.8,0.5,1,0.9c0.2,0.3,0.3,0.6,0.4,1c0,0.1,0,0.1-0.1,0.2c-0.1,0.1-0.1,0.1-0.2,0.1h-0.6c-0.1,0-0.1,0-0.2-0.1
	c-0.1-0.1-0.1-0.1-0.1-0.2c-0.1-0.4-0.3-0.7-0.6-0.9c-0.4-0.2-0.8-0.4-1.3-0.3c-0.5,0-0.9,0.1-1.3,0.3c-0.3,0.2-0.5,0.6-0.5,1
	c0,0.3,0.1,0.5,0.2,0.7c0.2,0.2,0.4,0.4,0.7,0.5c0.5,0.2,0.9,0.3,1.4,0.5c0.6,0.2,1.1,0.4,1.6,0.6c0.4,0.2,0.7,0.4,0.9,0.7
	c0.2,0.3,0.3,0.7,0.3,1.1c0,0.7-0.3,1.4-0.9,1.8c-0.7,0.5-1.5,0.7-2.4,0.7C23.8,70.9,23.2,70.8,22.7,70.6z"/>
<path class="st3" d="M29.5,70.7c-0.1-0.1-0.1-0.1-0.1-0.2v-8.1c0-0.1,0-0.1,0.1-0.2c0-0.1,0.1-0.1,0.2-0.1h0.6c0.1,0,0.2,0,0.2,0.1
	c0.1,0.1,0.1,0.1,0.1,0.2v8.1c0,0.1,0,0.2-0.1,0.2c-0.1,0.1-0.1,0.1-0.2,0.1h-0.6C29.6,70.8,29.5,70.7,29.5,70.7z"/>
<path class="st3" d="M32.8,70.7c0-0.1-0.1-0.1-0.1-0.2v-8.1c0-0.1,0-0.2,0.1-0.2c0.1-0.1,0.1-0.1,0.2-0.1h3.1c0.8,0,1.6,0.2,2.2,0.7
	c0.6,0.5,0.9,1.2,0.8,2c0.1,0.8-0.2,1.5-0.8,2c-0.6,0.5-1.4,0.7-2.2,0.7h-2.2v3.1c0,0.1,0,0.2-0.1,0.2c-0.1,0.1-0.1,0.1-0.2,0.1H33
	C32.9,70.8,32.8,70.8,32.8,70.7z M36.1,66.4c1.2,0,1.9-0.5,1.9-1.6c0-0.5-0.1-0.9-0.5-1.2c-0.4-0.3-0.9-0.5-1.4-0.4h-2.2v3.2H36.1z"
	/>
<path class="st3" d="M44,70.6c-0.3-0.1-0.6-0.4-0.9-0.6c-0.2-0.2-0.3-0.4-0.3-0.6c0-0.1,0-0.1,0.1-0.2c0.1,0,0.1-0.1,0.2-0.1h0.5
	c0,0,0.1,0,0.1,0c0,0,0.1,0.1,0.1,0.1c0.2,0.2,0.4,0.4,0.6,0.5c0.3,0.2,0.7,0.2,1,0.2c0.4,0,0.7-0.1,1.1-0.2
	c0.3-0.1,0.4-0.4,0.4-0.7c0-0.2-0.1-0.4-0.2-0.5c-0.2-0.1-0.4-0.3-0.6-0.3c-0.4-0.1-0.8-0.2-1.2-0.3c-0.6-0.1-1.1-0.3-1.5-0.7
	c-0.3-0.3-0.5-0.7-0.5-1.2c0-0.3,0.1-0.6,0.3-0.9c0.2-0.3,0.5-0.5,0.8-0.7c0.4-0.2,0.8-0.3,1.3-0.3c0.5,0,0.9,0.1,1.3,0.3
	c0.3,0.1,0.6,0.3,0.8,0.6c0.2,0.2,0.3,0.4,0.3,0.6c0,0.1,0,0.1-0.1,0.2c-0.1,0-0.1,0.1-0.2,0.1h-0.5c-0.1,0-0.2,0-0.2-0.1
	c-0.1-0.2-0.3-0.3-0.3-0.4c-0.1-0.1-0.3-0.2-0.4-0.2c-0.2-0.1-0.4-0.1-0.7-0.1c-0.3,0-0.7,0.1-0.9,0.2c-0.2,0.2-0.3,0.4-0.3,0.7
	c0,0.2,0,0.3,0.1,0.4c0.1,0.2,0.3,0.3,0.5,0.3c0.4,0.1,0.8,0.2,1.1,0.3c0.6,0.1,1.2,0.3,1.7,0.7c0.3,0.3,0.5,0.7,0.5,1.2
	c0,0.4-0.1,0.7-0.3,1c-0.2,0.3-0.5,0.5-0.9,0.7c-0.5,0.2-0.9,0.3-1.4,0.2C44.9,70.9,44.5,70.8,44,70.6z"/>
<path class="st3" d="M50.1,68.6v-3.3h-1c-0.1,0-0.3-0.1-0.3-0.2c0,0,0,0,0-0.1v-0.4c0-0.1,0-0.2,0.1-0.2c0.1-0.1,0.1-0.1,0.2-0.1h1
	v-2.1c0-0.1,0-0.2,0.1-0.2c0.1-0.1,0.1-0.1,0.2-0.1h0.5c0.1,0,0.2,0,0.2,0.1c0.1,0.1,0.1,0.1,0.1,0.2v2.1h1.5c0.1,0,0.1,0,0.2,0.1
	c0.1,0.1,0.1,0.1,0.1,0.2V65c0,0.1,0,0.1-0.1,0.2c-0.1,0-0.1,0.1-0.2,0.1h-1.5v3.2c0,0.3,0,0.7,0.2,1c0.2,0.2,0.4,0.3,0.7,0.3h0.8
	c0.1,0,0.1,0,0.2,0.1c0.1,0.1,0.1,0.1,0.1,0.2v0.4c0,0.1,0,0.2-0.1,0.2c-0.1,0.1-0.1,0.1-0.2,0.1H52C50.7,70.8,50.1,70.1,50.1,68.6z
	"/>
<path class="st3" d="M55,70.6c-0.3-0.1-0.6-0.4-0.8-0.7c-0.2-0.3-0.3-0.6-0.3-0.9c0-0.5,0.2-1,0.7-1.3c0.5-0.4,1.1-0.6,1.8-0.7
	l1.9-0.3v-0.4c0-0.8-0.5-1.3-1.5-1.3c-0.3,0-0.6,0.1-0.9,0.2c-0.2,0.1-0.4,0.3-0.5,0.5c0,0.1-0.1,0.1-0.1,0.2c0,0-0.1,0-0.2,0h-0.5
	c-0.1,0-0.1,0-0.2-0.1c-0.1,0-0.1-0.1-0.1-0.2c0-0.2,0.1-0.5,0.3-0.7c0.2-0.3,0.5-0.5,0.8-0.7c0.4-0.2,0.9-0.3,1.4-0.3
	c0.7-0.1,1.5,0.2,2,0.6c0.4,0.4,0.6,1,0.6,1.6v4c0,0.1,0,0.2-0.1,0.2c-0.1,0.1-0.1,0.1-0.2,0.1h-0.5c-0.1,0-0.1,0-0.2-0.1
	c-0.1-0.1-0.1-0.1-0.1-0.2v-0.5c-0.2,0.3-0.5,0.5-0.8,0.7c-0.4,0.2-0.9,0.3-1.3,0.3C55.7,70.9,55.3,70.8,55,70.6z M57.7,69.5
	c0.4-0.4,0.6-1,0.5-1.6v-0.3l-1.5,0.2c-0.5,0-0.9,0.2-1.3,0.4c-0.3,0.1-0.4,0.4-0.5,0.7c0,0.3,0.1,0.6,0.4,0.8
	c0.3,0.2,0.6,0.3,1,0.3C56.9,70,57.3,69.8,57.7,69.5L57.7,69.5z"/>
<path class="st3" d="M61.2,70.7c-0.1-0.1-0.1-0.1-0.1-0.2v-5.8c0-0.1,0-0.2,0.1-0.2c0.1-0.1,0.1-0.1,0.2-0.1h0.5
	c0.2,0,0.3,0.1,0.3,0.3c0,0,0,0,0,0v0.5c0.4-0.6,1-0.9,1.7-0.8h0.5c0.1,0,0.3,0.1,0.3,0.2c0,0,0,0,0,0v0.4c0,0.1,0,0.2-0.1,0.2
	c-0.1,0.1-0.1,0.1-0.2,0.1h-0.7c-0.4,0-0.8,0.1-1.1,0.4c-0.3,0.3-0.4,0.7-0.4,1.1v3.6c0,0.1,0,0.2-0.1,0.2c-0.1,0.1-0.1,0.1-0.2,0.1
	h-0.5C61.3,70.8,61.2,70.7,61.2,70.7z"/>
<path class="st3" d="M66.3,68.6v-3.3h-1c-0.1,0-0.3-0.1-0.3-0.2c0,0,0,0,0-0.1v-0.4c0-0.1,0-0.2,0.1-0.2c0.1-0.1,0.1-0.1,0.2-0.1h1
	v-2.1c0-0.1,0-0.2,0.1-0.2c0.1-0.1,0.1-0.1,0.2-0.1h0.5c0.1,0,0.3,0.1,0.3,0.2c0,0,0,0,0,0v2.1h1.5c0.1,0,0.1,0,0.2,0.1
	c0.1,0.1,0.1,0.1,0.1,0.2V65c0,0.1,0,0.1-0.1,0.2c-0.1,0-0.1,0.1-0.2,0.1h-1.5v3.2c0,0.3,0,0.7,0.2,1c0.2,0.2,0.4,0.3,0.7,0.3h0.8
	c0.1,0,0.1,0,0.2,0.1c0,0.1,0.1,0.1,0.1,0.2v0.4c0,0.1,0,0.2-0.1,0.2c-0.1,0.1-0.1,0.1-0.2,0.1h-0.8C66.9,70.8,66.3,70.1,66.3,68.6z
	"/>
<path class="st3" d="M71.3,70.6c-0.3-0.1-0.6-0.4-0.9-0.6c-0.2-0.2-0.3-0.4-0.3-0.6c0-0.1,0-0.1,0.1-0.2c0.1,0,0.1-0.1,0.2-0.1h0.5
	c0,0,0.1,0,0.1,0c0,0,0.1,0.1,0.1,0.1c0.2,0.2,0.4,0.4,0.6,0.5c0.3,0.2,0.7,0.2,1,0.2c0.4,0,0.7-0.1,1.1-0.2
	c0.3-0.1,0.4-0.4,0.4-0.7c0-0.2-0.1-0.4-0.2-0.5c-0.2-0.2-0.4-0.3-0.6-0.3c-0.4-0.1-0.8-0.2-1.2-0.3c-0.6-0.1-1.1-0.3-1.5-0.7
	c-0.3-0.3-0.5-0.7-0.4-1.2c0-0.3,0.1-0.6,0.3-0.9c0.2-0.3,0.5-0.5,0.8-0.7c0.8-0.3,1.8-0.3,2.6,0c0.3,0.1,0.6,0.3,0.8,0.6
	c0.2,0.2,0.2,0.4,0.3,0.6c0,0.1,0,0.1-0.1,0.2c-0.1,0-0.1,0.1-0.2,0.1h-0.5c-0.1,0-0.2,0-0.2-0.1c-0.1-0.2-0.3-0.3-0.3-0.4
	c-0.1-0.1-0.3-0.2-0.4-0.2c-0.2-0.1-0.4-0.1-0.7-0.1c-0.3,0-0.7,0.1-0.9,0.2c-0.2,0.2-0.3,0.4-0.3,0.7c0,0.2,0,0.3,0.1,0.4
	c0.1,0.2,0.3,0.3,0.5,0.3c0.4,0.1,0.8,0.2,1.1,0.3c0.6,0.1,1.2,0.3,1.7,0.7c0.3,0.3,0.5,0.8,0.4,1.2c0,0.4-0.1,0.7-0.3,1
	c-0.2,0.3-0.5,0.5-0.9,0.7c-0.5,0.2-0.9,0.3-1.4,0.2C72.2,70.9,71.8,70.8,71.3,70.6z"/>
<path class="st3" d="M80.5,70.6c-0.3-0.1-0.6-0.4-0.8-0.7c-0.2-0.3-0.3-0.6-0.3-0.9c0-0.5,0.2-1,0.7-1.3c0.5-0.4,1.2-0.6,1.8-0.7
	l1.8-0.3v-0.4c0-0.8-0.5-1.3-1.5-1.3c-0.3,0-0.6,0.1-0.9,0.2c-0.2,0.1-0.4,0.3-0.5,0.5c0,0.1-0.1,0.1-0.1,0.2c-0.1,0-0.1,0-0.2,0
	h-0.5C80,66,80,66,79.9,66c-0.1,0-0.1-0.1-0.1-0.2c0-0.2,0.1-0.5,0.3-0.7c0.2-0.3,0.5-0.5,0.8-0.7c0.4-0.2,0.9-0.3,1.4-0.3
	c0.7-0.1,1.5,0.2,2,0.6c0.4,0.4,0.6,1,0.6,1.6v4c0,0.1-0.1,0.3-0.2,0.3c0,0,0,0,0,0H84c-0.1,0-0.1,0-0.2-0.1c0-0.1-0.1-0.1-0.1-0.2
	v-0.5c-0.2,0.3-0.5,0.5-0.8,0.7c-0.4,0.2-0.9,0.3-1.3,0.3C81.2,70.9,80.9,70.8,80.5,70.6z M83.2,69.5c0.4-0.4,0.6-1,0.5-1.6v-0.3
	l-1.4,0.2c-0.5,0-0.9,0.2-1.3,0.4c-0.3,0.1-0.5,0.4-0.5,0.7c0,0.3,0.1,0.6,0.4,0.8c0.3,0.2,0.6,0.3,1,0.3
	C82.4,70,82.9,69.8,83.2,69.5z"/>
<path class="st3" d="M87.2,68.6v-3.3h-1c-0.1,0-0.1,0-0.2-0.1c0-0.1-0.1-0.1-0.1-0.2v-0.4c0-0.1,0-0.2,0.1-0.2
	c0.1-0.1,0.1-0.1,0.2-0.1h1v-2.1c0-0.1,0-0.2,0.1-0.2c0.1-0.1,0.1-0.1,0.2-0.1H88c0.1,0,0.3,0.1,0.3,0.3c0,0,0,0,0,0v2.1h1.5
	c0.1,0,0.1,0,0.2,0.1c0.1,0.1,0.1,0.1,0.1,0.2V65c0,0.1,0,0.1-0.1,0.2c-0.1,0-0.1,0.1-0.2,0.1h-1.6v3.2c0,0.3,0,0.7,0.2,1
	c0.2,0.2,0.4,0.3,0.7,0.3h0.8c0.1,0,0.1,0,0.2,0.1c0,0.1,0.1,0.1,0.1,0.2v0.4c0,0.1,0,0.2-0.1,0.2c-0.1,0.1-0.1,0.1-0.2,0.1h-0.8
	C87.8,70.8,87.2,70.1,87.2,68.6z"/>
<path class="st3" d="M99.4,63.2h-2c0.4,0.3,0.6,0.8,0.7,1.3h1.3v0.6h-1.4c-0.1,1.3-1.1,2.1-2.7,2.1c1,1,2,2.3,3,3.5h-1.1
	c-1-1.2-1.9-2.2-3-3.5v-0.8h0.7c1.3,0,2-0.6,2.1-1.4h-2.8v-0.6H97c-0.2-0.7-0.8-1.1-1.9-1.1h-0.9v-0.8h5.2L99.4,63.2z"/>
<path class="st3" d="M101.8,70.6c-0.4-0.2-0.7-0.5-1-0.9c-0.2-0.3-0.4-0.7-0.4-1.2l0,0c0-0.1,0-0.1,0.1-0.2c0,0,0.1-0.1,0.2-0.1h0.6
	c0.2,0,0.3,0.1,0.3,0.3c0.1,0.4,0.3,0.8,0.7,1c0.3,0.2,0.7,0.3,1.2,0.3c0.5,0,1-0.2,1.4-0.5c0.4-0.4,0.6-0.9,0.6-1.4
	c0-0.5-0.2-1-0.6-1.3c-0.4-0.3-0.9-0.5-1.4-0.5c-0.2,0-0.5,0-0.7,0.1c-0.2,0.1-0.4,0.2-0.6,0.3l-0.3,0.2c-0.1,0-0.2,0-0.2,0h-0.6
	c-0.1,0-0.1,0-0.2-0.1c-0.1,0-0.1-0.1-0.1-0.2l0.4-4.1c0-0.2,0.1-0.3,0.3-0.3h4.3c0.1,0,0.3,0.1,0.3,0.2c0,0,0,0,0,0.1v0.5
	c0,0.1,0,0.1-0.1,0.2c-0.1,0-0.1,0.1-0.2,0.1h-3.6l-0.3,2.5c0.5-0.3,1-0.5,1.6-0.4c0.5,0,1,0.1,1.5,0.3c0.4,0.2,0.8,0.6,1.1,1
	c0.3,0.4,0.4,1,0.4,1.5c0,0.6-0.1,1.1-0.4,1.6c-0.3,0.4-0.6,0.8-1.1,1c-0.5,0.2-1.1,0.4-1.6,0.3C102.9,70.9,102.3,70.8,101.8,70.6z"
	/>
<path class="st3" d="M108.7,70c-0.5-0.7-0.8-1.6-0.8-2.4v-2.2c0-0.9,0.3-1.7,0.8-2.4c1.3-1.3,3.4-1.3,4.7,0c0.5,0.7,0.8,1.5,0.8,2.4
	c0,0.2,0,0.6,0,1.1s0,0.8,0,1.1c0,0.9-0.3,1.7-0.8,2.4C112.1,71.2,110.1,71.2,108.7,70L108.7,70z M112.5,69.3
	c0.4-0.5,0.5-1.1,0.5-1.8c0-0.2,0-0.6,0-1s0-0.8,0-1c0-0.6-0.2-1.3-0.5-1.8c-0.7-0.8-1.9-0.8-2.7-0.1c0,0-0.1,0.1-0.1,0.1
	c-0.4,0.5-0.5,1.1-0.5,1.8v2c0,0.6,0.2,1.3,0.5,1.8c0.3,0.4,0.9,0.7,1.4,0.6C111.6,69.9,112.2,69.7,112.5,69.3L112.5,69.3z"/>
<path class="st3" d="M116.6,70c-0.5-0.7-0.8-1.6-0.8-2.4v-2.2c0-0.9,0.3-1.7,0.8-2.4c1.3-1.3,3.4-1.3,4.7,0c0.5,0.7,0.8,1.5,0.8,2.4
	c0,0.2,0,0.6,0,1.1s0,0.8,0,1.1c0,0.9-0.3,1.7-0.8,2.4C119.9,71.2,117.9,71.2,116.6,70L116.6,70z M120.3,69.3
	c0.4-0.5,0.5-1.1,0.5-1.8c0-0.2,0-0.6,0-1s0-0.8,0-1c0-0.6-0.2-1.3-0.5-1.8c-0.3-0.4-0.9-0.7-1.4-0.6c-0.5,0-1.1,0.2-1.4,0.6
	c-0.3,0.5-0.5,1.1-0.5,1.8v2c0,0.6,0.2,1.3,0.5,1.8c0.3,0.4,0.9,0.7,1.4,0.6C119.4,69.9,120,69.7,120.3,69.3L120.3,69.3z"/>
<path class="st3" d="M21.9,32.1c-0.1-0.1-0.1-0.2-0.1-0.3V20.6c0-0.1,0-0.2,0.1-0.3c0.1-0.1,0.2-0.1,0.3-0.1h1.9
	c0.2,0,0.5,0.1,0.6,0.3l4.1,6.4v-6.3c0-0.1,0-0.2,0.1-0.3c0.1-0.1,0.2-0.1,0.3-0.1h2.2c0.1,0,0.2,0,0.3,0.1c0.1,0.1,0.1,0.2,0.1,0.3
	v11.1c0,0.1,0,0.2-0.1,0.3c-0.1,0.1-0.2,0.1-0.3,0.1h-1.9c-0.2,0-0.5-0.1-0.6-0.3l-4-6.2v6.1c0,0.1,0,0.2-0.1,0.3
	c-0.1,0.1-0.2,0.1-0.3,0.1h-2.2C22.1,32.2,22,32.2,21.9,32.1z"/>
<path class="st3" d="M35,32.1c-0.5-0.2-0.9-0.6-1.2-1c-0.3-0.4-0.4-0.9-0.4-1.4c0-0.8,0.4-1.5,1-1.9c0.8-0.5,1.7-0.9,2.7-1l2.1-0.3
	v-0.2c0-0.3-0.1-0.7-0.3-0.9c-0.2-0.2-0.6-0.3-0.9-0.3c-0.2,0-0.4,0-0.6,0.1c-0.2,0.1-0.4,0.2-0.5,0.4c-0.1,0.1-0.3,0.2-0.4,0.3
	c0,0.1-0.1,0.1-0.2,0.1h-2c-0.1,0-0.2,0-0.3-0.1c-0.1-0.1-0.1-0.2-0.1-0.3c0.1-0.4,0.2-0.7,0.5-1c0.4-0.4,0.8-0.8,1.4-1
	c0.7-0.3,1.5-0.4,2.2-0.4c1.1-0.1,2.3,0.2,3.2,0.9c0.7,0.7,1.1,1.6,1,2.5v5.2c0,0.1,0,0.2-0.1,0.3c-0.1,0.1-0.2,0.1-0.3,0.1h-2.1
	c-0.1,0-0.2,0-0.3-0.1c-0.1-0.1-0.1-0.2-0.1-0.3v-0.6c-0.3,0.4-0.6,0.7-1,0.9c-0.5,0.2-1,0.4-1.6,0.3C36.2,32.4,35.6,32.3,35,32.1z
	 M38.8,29.9c0.3-0.4,0.5-0.9,0.5-1.4v-0.2l-1.4,0.2c-1,0.2-1.4,0.5-1.4,1c0,0.3,0.1,0.5,0.3,0.6c0.2,0.2,0.5,0.2,0.8,0.2
	C38,30.4,38.5,30.2,38.8,29.9z"/>
<path class="st3" d="M46.8,32.1c-0.1-0.1-0.2-0.2-0.2-0.3l-3.3-8c0,0,0-0.1,0-0.1c0-0.2,0.2-0.4,0.4-0.4c0,0,0,0,0,0h2
	c0.2,0,0.4,0.1,0.5,0.4l1.9,5.1l1.9-5.1c0-0.1,0.1-0.2,0.2-0.2c0.1-0.1,0.2-0.1,0.3-0.1h2.1c0.1,0,0.2,0,0.3,0.1
	c0.1,0.1,0.1,0.2,0.1,0.3v0.1l-3.2,8c-0.1,0.1-0.1,0.2-0.2,0.3c-0.1,0.1-0.2,0.1-0.4,0.1h-2C47,32.3,46.9,32.2,46.8,32.1z"/>
<path class="st3" d="M54.4,21.9c-0.1-0.1-0.1-0.2-0.1-0.3V20c0-0.1,0-0.2,0.1-0.3c0.1-0.1,0.2-0.1,0.3-0.1h2.2
	c0.2,0,0.4,0.2,0.4,0.4c0,0,0,0,0,0v1.6c0,0.1,0,0.2-0.1,0.3c-0.1,0.1-0.2,0.1-0.3,0.1h-2.1C54.6,22.1,54.5,22,54.4,21.9z
	 M54.4,32.1c-0.1-0.1-0.1-0.2-0.1-0.3v-8.1c0-0.1,0-0.2,0.1-0.3c0.1-0.1,0.2-0.1,0.3-0.1h2.2c0.1,0,0.2,0,0.3,0.1
	c0.1,0.1,0.1,0.2,0.1,0.3v8.1c0,0.1,0,0.2-0.1,0.3c-0.1,0.1-0.2,0.1-0.3,0.1h-2.1C54.6,32.2,54.5,32.2,54.4,32.1L54.4,32.1z"/>
<path class="st3" d="M63.2,32.1C63.1,32,63,31.9,63,31.8V20.6c0-0.1,0-0.2,0.1-0.3c0.1-0.1,0.2-0.1,0.3-0.1h1.9
	c0.2,0,0.5,0.1,0.6,0.3l4.1,6.4v-6.3c0-0.1,0-0.2,0.1-0.3c0.1-0.1,0.2-0.1,0.3-0.1h2.2c0.1,0,0.2,0,0.3,0.1c0.1,0.1,0.1,0.2,0.1,0.3
	v11.1c0,0.1,0,0.2-0.1,0.3c-0.1,0.1-0.2,0.1-0.3,0.1h-1.9c-0.2,0-0.5-0.1-0.6-0.3l-4-6.2v6.1c0,0.1,0,0.2-0.1,0.3
	c-0.1,0.1-0.2,0.1-0.3,0.1h-2.2C63.3,32.2,63.2,32.2,63.2,32.1z"/>
<path class="st3" d="M75.4,21.9c-0.1-0.1-0.1-0.2-0.1-0.3V20c0-0.1,0-0.2,0.1-0.3c0.1-0.1,0.2-0.1,0.3-0.1h2.2c0.1,0,0.2,0,0.3,0.1
	c0.1,0.1,0.1,0.2,0.1,0.3v1.6c0,0.1,0,0.2-0.1,0.3C78.1,22,77.9,22,77.8,22h-2.2C75.6,22.1,75.4,22,75.4,21.9z M75.4,32.1
	c-0.1-0.1-0.1-0.2-0.1-0.3v-8.1c0-0.1,0-0.2,0.1-0.3c0.1-0.1,0.2-0.1,0.3-0.1h2.2c0.1,0,0.2,0,0.3,0.1c0.1,0.1,0.1,0.2,0.1,0.3v8.1
	c0,0.1,0,0.2-0.1,0.3c-0.1,0.1-0.2,0.1-0.3,0.1h-2.1C75.6,32.2,75.4,32.2,75.4,32.1L75.4,32.1z"/>
<path class="st3" d="M81.4,32.1c-0.1-0.1-0.1-0.2-0.1-0.3v-6.2H80c-0.1,0-0.2,0-0.3-0.1c-0.1-0.1-0.1-0.2-0.1-0.3v-1.5
	c0-0.1,0-0.2,0.1-0.3c0.1-0.1,0.2-0.1,0.3-0.1h1.3v-0.5c-0.1-0.9,0.3-1.9,1-2.5c0.8-0.6,1.8-0.8,2.9-0.8h1.4c0.1,0,0.2,0,0.3,0.1
	c0.1,0.1,0.1,0.2,0.1,0.3v1.5c0,0.1,0,0.2-0.1,0.3c-0.1,0.1-0.2,0.1-0.3,0.1h-1.3c-0.3,0-0.6,0.1-0.8,0.2c-0.2,0.2-0.3,0.5-0.2,0.8
	v0.4h2.1c0.1,0,0.2,0,0.3,0.1c0.1,0.1,0.1,0.2,0.1,0.3v1.5c0,0.1,0,0.2-0.1,0.3c-0.1,0.1-0.2,0.1-0.3,0.1h-2.1v6.2
	c0,0.1,0,0.2-0.1,0.3c-0.1,0.1-0.2,0.1-0.3,0.1h-2.1C81.6,32.2,81.5,32.2,81.4,32.1z"/>
<path class="st3" d="M89,28.8v-3.2h-1.4c-0.1,0-0.2,0-0.3-0.1c-0.1-0.1-0.1-0.2-0.1-0.3v-1.5c0-0.1,0-0.2,0.1-0.3
	c0.1-0.1,0.2-0.1,0.3-0.1H89v-2.8c0-0.1,0-0.2,0.1-0.3c0.1-0.1,0.2-0.1,0.3-0.1h2.1c0.2,0,0.4,0.2,0.4,0.4c0,0,0,0,0,0v2.8h2.1
	c0.1,0,0.2,0,0.3,0.1c0.1,0.1,0.1,0.2,0.1,0.3v1.5c0,0.1,0,0.2-0.1,0.3c-0.1,0.1-0.2,0.1-0.3,0.1H92v2.9c0,0.3,0.1,0.6,0.2,0.9
	c0.2,0.2,0.4,0.3,0.7,0.3h1.3c0.1,0,0.2,0,0.3,0.1c0.1,0.1,0.1,0.2,0.1,0.3v1.6c0,0.1,0,0.2-0.1,0.3c-0.1,0.1-0.2,0.1-0.3,0.1h-1.7
	C90.2,32.2,89,31.1,89,28.8z"/>
<path class="st3" d="M97.5,35.4c-0.1-0.1-0.1-0.2-0.1-0.3c0-0.1,0-0.1,0-0.2l1.4-3.2l-3.3-7.8c0-0.1,0-0.1,0-0.2
	c0-0.1,0.1-0.2,0.2-0.3c0.1-0.1,0.2-0.1,0.3-0.1h2c0.2,0,0.4,0.1,0.5,0.4l1.9,4.9l2-4.9c0.1-0.2,0.3-0.4,0.5-0.4h2
	c0.1,0,0.2,0,0.3,0.1c0.1,0.1,0.1,0.2,0.1,0.2c0,0.1,0,0.1,0,0.2l-4.9,11.3c-0.1,0.2-0.3,0.4-0.5,0.4h-2
	C97.7,35.5,97.6,35.5,97.5,35.4z"/>
<path class="st3" d="M109.9,32.1c-0.1-0.1-0.1-0.2-0.1-0.3V20.6c0-0.1,0-0.2,0.1-0.3c0.1-0.1,0.2-0.1,0.3-0.1h1.9
	c0.2,0,0.5,0.1,0.6,0.3l4.1,6.4v-6.3c0-0.1,0-0.2,0.1-0.3c0.1-0.1,0.2-0.1,0.3-0.1h2.2c0.1,0,0.2,0,0.3,0.1c0.1,0.1,0.1,0.2,0.1,0.3
	v11.1c0,0.1,0,0.2-0.1,0.3c-0.1,0.1-0.2,0.1-0.3,0.1h-1.9c-0.2,0-0.5-0.1-0.6-0.3l-4-6.2v6.1c0,0.1,0,0.2-0.1,0.3
	c-0.1,0.1-0.2,0.1-0.3,0.1h-2.2C110.1,32.2,110,32.2,109.9,32.1z"/>
<path class="st3" d="M122.9,31.3c-0.8-0.9-1.3-2.1-1.2-3.3v-0.5c0-1.2,0.4-2.3,1.3-3.2c0.9-0.8,2.1-1.2,3.2-1.2
	c0.9,0,1.7,0.2,2.5,0.6c0.7,0.4,1.2,0.9,1.5,1.6c0.4,0.7,0.5,1.6,0.5,2.4v0.4c0,0.1,0,0.2-0.1,0.3c-0.1,0.1-0.2,0.1-0.3,0.1h-5.4
	v0.1c0,0.4,0.1,0.9,0.4,1.2c0.2,0.3,0.6,0.5,1,0.5c0.2,0,0.5,0,0.7-0.2c0.2-0.1,0.3-0.3,0.5-0.4c0.1-0.1,0.2-0.2,0.2-0.2
	c0.1,0,0.2,0,0.3,0h2.3c0.1,0,0.2,0,0.3,0.1c0.1,0.1,0.1,0.1,0.1,0.2c0,0.4-0.2,0.8-0.5,1.1c-0.4,0.4-0.9,0.8-1.5,1
	c-0.7,0.3-1.5,0.4-2.3,0.4C125,32.5,123.8,32.1,122.9,31.3z M127.5,26.8L127.5,26.8c0-0.5-0.1-0.9-0.4-1.3c-0.2-0.3-0.6-0.5-1-0.5
	c-0.4,0-0.8,0.1-1,0.5c-0.3,0.4-0.4,0.8-0.3,1.3l0,0H127.5z"/>
<path class="st3" d="M131.3,32.1c-0.1-0.1-0.1-0.2-0.1-0.3c0-0.1,0-0.2,0.1-0.3l2.9-3.9l-2.6-3.7c-0.1-0.1-0.1-0.2-0.1-0.3
	c0-0.1,0-0.2,0.1-0.3c0.1-0.1,0.2-0.1,0.3-0.1h2.2c0.1,0,0.2,0,0.3,0.1c0.1,0.1,0.2,0.1,0.2,0.2l1.5,2.1l1.5-2.1l0.1-0.1
	c0.1-0.1,0.1-0.1,0.2-0.1c0.1,0,0.2-0.1,0.2-0.1h2.1c0.1,0,0.2,0,0.3,0.1c0.1,0.1,0.1,0.2,0.1,0.3c0,0.1,0,0.2-0.1,0.3l-2.6,3.7
	l2.9,3.9c0.1,0.1,0.1,0.2,0.1,0.3c0,0.1,0,0.2-0.1,0.3c-0.1,0.1-0.2,0.1-0.3,0.1h-2.3c-0.2,0-0.4-0.1-0.5-0.3l-1.7-2.3l-1.6,2.3
	c-0.1,0.1-0.1,0.2-0.2,0.2c-0.1,0.1-0.2,0.1-0.3,0.1h-2.2C131.5,32.3,131.4,32.2,131.3,32.1z"/>
<path class="st3" d="M143.2,28.8v-3.2h-1.4c-0.1,0-0.2,0-0.3-0.1c-0.1-0.1-0.1-0.2-0.1-0.3v-1.5c0-0.1,0-0.2,0.1-0.3
	c0.1-0.1,0.2-0.1,0.3-0.1h1.4v-2.8c0-0.1,0-0.2,0.1-0.3c0.1-0.1,0.2-0.1,0.3-0.1h2.1c0.2,0,0.4,0.2,0.4,0.4c0,0,0,0,0,0v2.8h2.1
	c0.1,0,0.2,0,0.3,0.1c0.1,0.1,0.1,0.2,0.1,0.3v1.5c0,0.1,0,0.2-0.1,0.3c-0.1,0.1-0.2,0.1-0.3,0.1h-2.1v2.9c0,0.3,0.1,0.6,0.2,0.9
	c0.2,0.2,0.4,0.3,0.7,0.3h1.4c0.1,0,0.2,0,0.3,0.1c0.1,0.1,0.1,0.2,0.1,0.3v1.6c0,0.1,0,0.2-0.1,0.3c-0.1,0.1-0.2,0.1-0.3,0.1h-1.6
	C144.4,32.2,143.2,31.1,143.2,28.8z"/>
<path class="st3" d="M23.5,52.7c-0.7-0.3-1.3-0.7-1.7-1.3c-0.4-0.5-0.6-1.2-0.6-1.8c0-0.1,0-0.2,0.1-0.3c0.1-0.1,0.2-0.1,0.2-0.1H24
	c0.2,0,0.5,0.1,0.6,0.3c0.1,0.3,0.3,0.6,0.6,0.8c0.3,0.2,0.6,0.3,1,0.3c0.5,0,0.9-0.1,1.2-0.5c0.3-0.3,0.5-0.8,0.5-1.2
	c0-0.4-0.2-0.9-0.5-1.2c-0.3-0.3-0.8-0.5-1.2-0.5c-0.2,0-0.5,0-0.7,0.1c-0.2,0.1-0.3,0.2-0.5,0.3c-0.1,0.1-0.3,0.2-0.5,0.2h-2.4
	c-0.1,0-0.2,0-0.3-0.1c-0.1-0.1-0.1-0.2-0.1-0.3l0.6-6c0-0.1,0.1-0.3,0.2-0.4c0.1-0.1,0.3-0.2,0.4-0.2h7c0.1,0,0.2,0,0.3,0.1
	c0.1,0.1,0.1,0.2,0.1,0.3v1.7c0,0.2-0.2,0.4-0.4,0.4h-5l-0.2,2.1c0.3-0.2,0.6-0.3,0.9-0.4c0.4-0.1,0.8-0.2,1.3-0.2
	c0.7,0,1.4,0.2,2.1,0.5c0.6,0.3,1.2,0.8,1.6,1.4c0.4,0.6,0.6,1.3,0.6,2c0,0.8-0.2,1.5-0.6,2.2c-0.4,0.7-1,1.2-1.7,1.5
	c-0.8,0.4-1.8,0.6-2.7,0.5C25.3,53.2,24.3,53.1,23.5,52.7z"/>
<path class="st3" d="M34.1,52c-0.8-0.9-1.3-2-1.4-3.3c0-0.6,0-1.2,0-1.7s0-1.1,0-1.7c0-0.8,0.2-1.6,0.6-2.3c0.4-0.7,1-1.2,1.6-1.6
	c1.7-0.8,3.6-0.8,5.3,0c0.7,0.4,1.3,0.9,1.7,1.6c0.4,0.7,0.6,1.5,0.6,2.3c0,0.3,0,0.9,0,1.7s0,1.4,0,1.7c0,1.2-0.5,2.4-1.3,3.3
	c-1,0.9-2.3,1.3-3.6,1.2C36.4,53.3,35.1,52.9,34.1,52z M38.9,50.1c0.3-0.4,0.4-1,0.4-1.5c0-0.3,0-0.9,0-1.6s0-1.3,0-1.6
	c0-0.5-0.1-1-0.4-1.5c-0.3-0.4-0.7-0.6-1.2-0.5c-1,0-1.6,0.7-1.6,2c0,0.3,0,0.8,0,1.6s0,1.3,0,1.6c0.1,1.3,0.6,2,1.6,2
	C38.2,50.7,38.6,50.4,38.9,50.1L38.9,50.1z"/>
<path class="st3" d="M48.5,52.9c-0.1-0.1-0.1-0.2-0.1-0.3V41.4c0-0.2,0.2-0.4,0.4-0.4l0,0h2.5c0.1,0,0.2,0,0.3,0.1
	c0.1,0.1,0.1,0.2,0.1,0.3v11.2c0,0.1,0,0.2-0.1,0.3C51.5,53,51.4,53,51.2,53h-2.5C48.7,53,48.6,53,48.5,52.9z"/>
<path class="st3" d="M54,52.9c-0.1-0.1-0.1-0.2-0.1-0.3v-8.1c0-0.1,0-0.2,0.1-0.3c0.1-0.1,0.2-0.1,0.3-0.1h2.1c0.1,0,0.2,0,0.3,0.1
	c0.1,0.1,0.1,0.2,0.1,0.3v0.7c0.3-0.4,0.7-0.7,1.2-0.9c0.5-0.2,1.1-0.4,1.7-0.3c0.6,0,1.2,0.1,1.7,0.4c0.5,0.3,0.9,0.8,1.2,1.3
	c0.3,0.7,0.5,1.4,0.4,2.1v4.8c0,0.1,0,0.2-0.1,0.3C62.9,53,62.8,53,62.6,53h-2.3c-0.1,0-0.2,0-0.3-0.1c-0.1-0.1-0.1-0.2-0.1-0.3
	v-4.7c0-0.4-0.1-0.9-0.4-1.2c-0.3-0.3-0.7-0.4-1.1-0.4c-0.4,0-0.8,0.1-1.1,0.4c-0.3,0.3-0.4,0.8-0.4,1.2v4.7c0,0.1,0,0.2-0.1,0.3
	C56.8,53,56.7,53,56.6,53h-2.3C54.2,53,54.1,53,54,52.9z"/>
<path class="st3" d="M65.7,52.2c-0.7-0.8-1-1.9-1-3v-0.6v-0.6c0-1.1,0.3-2.1,1-3c1.4-1.4,3.7-1.4,5.1-0.1v-3.7c0-0.1,0-0.2,0.1-0.3
	c0.1-0.1,0.2-0.1,0.3-0.1h2.2c0.1,0,0.2,0,0.3,0.1c0.1,0.1,0.1,0.2,0.1,0.3v11.3c0,0.1,0,0.2-0.1,0.3C73.7,53,73.5,53,73.4,53h-2
	c-0.1,0-0.2,0-0.3-0.1C71,52.8,71,52.7,71,52.6v-0.5c-0.7,0.8-1.7,1.2-2.7,1.1C67.3,53.3,66.4,52.9,65.7,52.2z M70.4,50.3
	c0.3-0.4,0.4-0.8,0.4-1.2c0-0.3,0-0.5,0-0.7s0-0.3,0-0.6c0-0.4-0.2-0.8-0.4-1.1c-0.3-0.3-0.7-0.5-1.1-0.4c-0.4,0-0.8,0.1-1.1,0.5
	c-0.2,0.4-0.4,0.8-0.4,1.2v1.1c0,0.5,0.1,0.9,0.4,1.3c0.3,0.3,0.7,0.5,1.1,0.5C69.7,50.8,70.1,50.7,70.4,50.3z"/>
<path class="st3" d="M76.7,52.1c-0.8-0.9-1.3-2.1-1.2-3.3v-0.5c0-1.2,0.4-2.3,1.3-3.2c0.9-0.8,2-1.2,3.2-1.2c0.9,0,1.7,0.2,2.5,0.6
	c0.7,0.4,1.2,0.9,1.5,1.6c0.3,0.7,0.5,1.6,0.5,2.4v0.4c0,0.1,0,0.2-0.1,0.3c-0.1,0.1-0.2,0.1-0.3,0.1h-5.4v0.1
	c0,0.4,0.1,0.9,0.3,1.2c0.4,0.5,1.1,0.6,1.6,0.3c0.2-0.1,0.3-0.3,0.5-0.4c0.1-0.1,0.2-0.2,0.2-0.2c0.1,0,0.2,0,0.3,0h2.2
	c0.1,0,0.2,0,0.3,0.1c0.1,0.1,0.1,0.1,0.1,0.2c0,0.4-0.2,0.8-0.5,1c-0.4,0.4-0.9,0.8-1.5,1c-0.7,0.3-1.5,0.4-2.3,0.4
	C78.8,53.3,77.6,52.9,76.7,52.1z M81.4,47.6L81.4,47.6c0-0.5-0.1-0.9-0.4-1.3c-0.2-0.3-0.6-0.5-1-0.5c-0.4,0-0.8,0.2-1,0.5
	c-0.3,0.4-0.4,0.8-0.3,1.3l0,0L81.4,47.6z"/>
<path class="st3" d="M85.2,52.9c-0.1-0.1-0.1-0.2-0.1-0.3c0-0.1,0-0.2,0.1-0.2l2.8-3.9l-2.6-3.7c-0.1-0.1-0.1-0.2-0.1-0.3
	c0-0.1,0-0.2,0.1-0.3c0.1-0.1,0.2-0.1,0.3-0.1h2.2c0.1,0,0.2,0,0.3,0.1c0.1,0.1,0.1,0.1,0.2,0.2l1.6,2.1l1.5-2.1l0.1-0.1
	c0.1-0.1,0.1-0.1,0.2-0.2c0.1,0,0.2-0.1,0.2-0.1h2.1c0.1,0,0.2,0,0.3,0.1c0.1,0.1,0.1,0.2,0.1,0.3c0,0.1,0,0.2-0.1,0.3l-2.7,3.7
	l2.9,3.9c0.1,0.1,0.1,0.2,0.1,0.2c0,0.1,0,0.2-0.1,0.3C94.6,53,94.5,53,94.4,53H92c-0.2,0-0.4-0.1-0.5-0.3l-1.7-2.3l-1.7,2.3
	c0,0.1-0.1,0.2-0.2,0.2c-0.1,0.1-0.2,0.1-0.3,0.1h-2.2C85.3,53.1,85.2,53,85.2,52.9z"/>
<path class="st3" d="M99.9,52.9c-0.1-0.1-0.1-0.2-0.1-0.3V41.4c0-0.1,0-0.2,0.1-0.3c0.1-0.1,0.2-0.1,0.3-0.1h8c0.1,0,0.2,0,0.3,0.1
	c0.1,0.1,0.1,0.2,0.1,0.3v1.8c0,0.1,0,0.2-0.1,0.3c-0.1,0.1-0.2,0.1-0.3,0.1H103v2.4h4.9c0.1,0,0.2,0,0.3,0.1
	c0.1,0.1,0.1,0.2,0.1,0.3v1.8c0,0.1,0,0.2-0.1,0.3c-0.1,0.1-0.2,0.1-0.3,0.1H103v3.8c0,0.1,0,0.2-0.1,0.3c-0.1,0.1-0.2,0.1-0.3,0.1
	h-2.3C100.1,53,100,53,99.9,52.9z"/>
<path class="st3" d="M111.1,52.2c-0.7-0.8-1-1.8-0.9-2.9v-4.8c0-0.1,0-0.2,0.1-0.3c0.1-0.1,0.2-0.1,0.3-0.1h2.3c0.1,0,0.2,0,0.3,0.1
	c0.1,0.1,0.1,0.2,0.1,0.3v4.7c0,1.1,0.5,1.6,1.4,1.6c0.4,0,0.8-0.1,1.1-0.4c0.3-0.3,0.4-0.8,0.4-1.2v-4.7c0-0.1,0-0.2,0.1-0.3
	c0.1-0.1,0.2-0.1,0.3-0.1h2.3c0.2,0,0.4,0.2,0.4,0.4c0,0,0,0,0,0v8.1c0,0.1,0,0.2-0.1,0.3c-0.1,0.1-0.2,0.1-0.3,0.1h-2.1
	c-0.1,0-0.2,0-0.3-0.1c-0.1-0.1-0.1-0.2-0.1-0.3V52c-0.7,0.9-1.8,1.3-2.9,1.2C112.6,53.3,111.7,52.9,111.1,52.2z"/>
<path class="st3" d="M121.4,52.9c-0.1-0.1-0.1-0.2-0.1-0.3v-8.1c0-0.1,0-0.2,0.1-0.3c0.1-0.1,0.2-0.1,0.3-0.1h2.1
	c0.1,0,0.2,0,0.3,0.1c0.1,0.1,0.1,0.2,0.1,0.3v0.7c0.3-0.4,0.7-0.7,1.2-0.9c0.5-0.2,1.1-0.4,1.7-0.3c0.6,0,1.2,0.1,1.7,0.4
	c0.5,0.3,0.9,0.8,1.2,1.3c0.3,0.7,0.5,1.4,0.4,2.1v4.8c0,0.1,0,0.2-0.1,0.3c-0.1,0.1-0.2,0.1-0.3,0.1h-2.3c-0.1,0-0.2,0-0.3-0.1
	c-0.1-0.1-0.1-0.2-0.1-0.3v-4.7c0-0.4-0.1-0.9-0.4-1.2c-0.3-0.3-0.7-0.4-1.1-0.4c-0.4,0-0.8,0.1-1.1,0.4c-0.3,0.3-0.4,0.8-0.4,1.2
	v4.7c0,0.1,0,0.2-0.1,0.3c-0.1,0.1-0.2,0.1-0.3,0.1h-2.3C121.6,53,121.5,53,121.4,52.9z"/>
<path class="st3" d="M133.1,52.2c-0.7-0.8-1-1.9-1-3v-0.6v-0.6c0-1.1,0.3-2.1,1-3c1.4-1.4,3.7-1.4,5.1-0.1v-3.7c0-0.1,0-0.2,0.1-0.3
	c0.1-0.1,0.2-0.1,0.3-0.1h2.2c0.1,0,0.2,0,0.3,0.1c0.1,0.1,0.1,0.2,0.1,0.3v11.3c0,0.1,0,0.2-0.1,0.3c-0.1,0.1-0.2,0.1-0.3,0.1h-2
	c-0.1,0-0.2,0-0.3-0.1c-0.1-0.1-0.1-0.2-0.1-0.3v-0.5c-0.7,0.8-1.7,1.2-2.7,1.1C134.8,53.3,133.8,52.9,133.1,52.2z M137.8,50.3
	c0.3-0.4,0.4-0.8,0.4-1.2c0-0.3,0-0.5,0-0.7s0-0.3,0-0.6c0-0.4-0.2-0.8-0.4-1.1c-0.3-0.3-0.7-0.5-1.1-0.4c-0.4,0-0.8,0.1-1.1,0.5
	c-0.2,0.4-0.4,0.8-0.4,1.3v1.1c0,0.5,0.1,0.9,0.4,1.3c0.3,0.3,0.7,0.5,1.1,0.5C137.2,50.8,137.6,50.7,137.8,50.3z"/>
<path class="st1" d="M23.4,80.1h72.4c1.5,0,2.8,1.2,2.8,2.8v16.5c0,1.5-1.2,2.8-2.8,2.8H23.4c-1.5,0-2.8-1.2-2.8-2.8V82.8
	C20.6,81.3,21.9,80.1,23.4,80.1z"/>
<path class="st2" d="M32.3,94.8c-0.1,0-0.1-0.1-0.1-0.2v-6.9c0-0.1,0-0.1,0.1-0.2c0,0,0.1-0.1,0.2-0.1h1c0.1,0,0.2,0.1,0.2,0.2
	c0,0,0,0,0,0v6.9c0,0.1,0,0.1-0.1,0.2c0,0.1-0.1,0.1-0.2,0.1h-1C32.4,94.9,32.3,94.9,32.3,94.8z"/>
<path class="st2" d="M35.4,94.8c-0.1,0-0.1-0.1-0.1-0.2v-5c0-0.1,0-0.1,0.1-0.2c0,0,0.1-0.1,0.2-0.1h0.9c0.1,0,0.1,0,0.2,0.1
	c0,0.1,0.1,0.1,0.1,0.2v0.4c0.4-0.5,1.1-0.8,1.8-0.8c0.6,0,1.2,0.2,1.5,0.6c0.4,0.5,0.6,1.1,0.6,1.8v3c0,0.1,0,0.1-0.1,0.2
	c0,0.1-0.1,0.1-0.2,0.1h-1c-0.1,0-0.1,0-0.2-0.1c0,0-0.1-0.1-0.1-0.2v-3c0-0.4-0.1-0.7-0.3-1c-0.2-0.2-0.5-0.4-0.9-0.3
	c-0.3,0-0.6,0.1-0.9,0.3c-0.2,0.3-0.4,0.6-0.3,1v2.9c0,0.1-0.1,0.3-0.3,0.3l0,0h-0.9C35.4,94.9,35.4,94.9,35.4,94.8z"/>
<path class="st2" d="M43.5,94.8c-0.1-0.1-0.1-0.1-0.1-0.2l-2-4.9c0,0,0,0,0-0.1c0-0.1,0-0.1,0.1-0.2c0,0,0.1-0.1,0.2-0.1h0.9
	c0.1,0,0.2,0.1,0.3,0.2l1.4,3.7l1.4-3.7c0-0.1,0-0.1,0.1-0.1c0.1,0,0.1-0.1,0.2-0.1h0.9c0.1,0,0.1,0,0.2,0.1c0,0,0.1,0.1,0.1,0.2
	c0,0,0,0.1,0,0.1l-2,4.9c-0.1,0.2-0.2,0.3-0.4,0.3h-0.8C43.6,94.9,43.5,94.9,43.5,94.8z"/>
<path class="st2" d="M48.2,94.3c-0.5-0.5-0.8-1.2-0.7-1.9v-0.3c0-0.8,0.2-1.5,0.7-2.1c1.1-1,2.8-1,3.9,0c0.5,0.6,0.7,1.3,0.7,2v0.2
	c0,0.1,0,0.1-0.1,0.2c0,0.1-0.1,0.1-0.2,0.1h-3.5v0.1c0,0.4,0.1,0.7,0.3,1c0.2,0.3,0.5,0.4,0.8,0.4c0.4,0,0.8-0.2,1-0.5
	c0-0.1,0.1-0.1,0.2-0.2c0.1,0,0.1,0,0.2,0h0.9c0.1,0,0.1,0,0.2,0c0,0,0.1,0.1,0.1,0.2c0,0.2-0.1,0.4-0.3,0.6
	c-0.2,0.3-0.5,0.5-0.9,0.6C51,94.9,50.5,95,50.1,95C49.4,95,48.7,94.8,48.2,94.3z M51.2,91.7L51.2,91.7c0-0.4-0.1-0.7-0.3-1
	c-0.4-0.5-1.1-0.5-1.6-0.1c0,0-0.1,0.1-0.1,0.1c-0.2,0.3-0.3,0.6-0.3,1l0,0H51.2z"/>
<path class="st2" d="M54.6,94.8c-0.3-0.1-0.6-0.3-0.8-0.6c-0.1-0.2-0.2-0.4-0.3-0.6c0-0.1,0-0.1,0.1-0.2c0,0,0.1-0.1,0.2-0.1h0.9
	c0.1,0,0.1,0,0.2,0.1l0.2,0.2c0.1,0.1,0.3,0.2,0.4,0.2c0.2,0.1,0.3,0.1,0.5,0.1c0.2,0,0.5-0.1,0.7-0.2c0.3-0.2,0.3-0.5,0.2-0.8
	c0,0,0,0,0,0c-0.1-0.1-0.3-0.2-0.4-0.2c-0.3-0.1-0.6-0.2-0.9-0.2c-0.5-0.1-1-0.3-1.3-0.6c-0.3-0.3-0.4-0.6-0.4-1
	c0-0.3,0.1-0.6,0.3-0.8c0.2-0.3,0.5-0.5,0.8-0.6c0.4-0.2,0.8-0.3,1.2-0.2c0.4,0,0.9,0.1,1.2,0.2c0.3,0.1,0.6,0.3,0.8,0.6
	c0.2,0.1,0.2,0.3,0.3,0.6c0,0.1,0,0.1-0.1,0.2c0,0-0.1,0.1-0.2,0.1h-0.8c-0.1,0-0.1,0-0.2-0.1l-0.2-0.2c-0.1-0.1-0.2-0.2-0.4-0.2
	c-0.2-0.1-0.3-0.1-0.5-0.1c-0.2,0-0.4,0.1-0.6,0.2c-0.1,0.1-0.2,0.3-0.2,0.4c0,0.1,0,0.2,0.1,0.3c0.1,0.1,0.3,0.2,0.4,0.2
	c0.3,0.1,0.6,0.2,0.9,0.2c1.3,0.2,1.9,0.8,1.9,1.7c0,0.5-0.2,1-0.7,1.2c-0.5,0.3-1.2,0.5-1.8,0.5C55.5,95.1,55,95,54.6,94.8z"/>
<path class="st2" d="M60.5,94.4C60.1,94,60,93.5,60,92.9v-2.4h-0.8c-0.1,0-0.3-0.1-0.3-0.3v-0.6c0-0.1,0-0.1,0.1-0.2
	c0.1,0,0.1-0.1,0.2-0.1H60v-1.8c0-0.1,0-0.1,0.1-0.2c0,0,0.1-0.1,0.2-0.1h0.9c0.1,0,0.1,0,0.2,0.1c0,0.1,0.1,0.1,0.1,0.2v1.8h1.3
	c0.1,0,0.1,0,0.2,0.1c0,0,0.1,0.1,0.1,0.2v0.6c0,0.1,0,0.1-0.1,0.2c0,0.1-0.1,0.1-0.2,0.1h-1.3v2.3c0,0.2,0,0.5,0.2,0.7
	c0.1,0.2,0.3,0.3,0.5,0.2h0.8c0.1,0,0.1,0,0.2,0.1c0.1,0,0.1,0.1,0.1,0.2v0.7c0,0.1,0,0.1-0.1,0.2c0,0.1-0.1,0.1-0.2,0.1H62
	C61.5,95,60.9,94.8,60.5,94.4z"/>
<path class="st2" d="M66.7,94.8c0,0-0.1-0.1-0.1-0.2v-6.9c0-0.1,0-0.1,0.1-0.2c0-0.1,0.1-0.1,0.2-0.1h0.8c0.1,0,0.3,0.1,0.3,0.2
	l3,4.7v-4.6c0-0.1,0-0.1,0.1-0.2c0,0,0.1-0.1,0.2-0.1h0.9c0.1,0,0.2,0.1,0.3,0.2c0,0,0,0,0,0v6.9c0,0.1-0.1,0.3-0.2,0.3c0,0,0,0,0,0
	h-0.8c-0.1,0-0.3-0.1-0.3-0.2l-3-4.6v4.5c0,0.1,0,0.1-0.1,0.2c0,0.1-0.1,0.1-0.2,0.1h-0.9C66.8,94.9,66.7,94.9,66.7,94.8z"/>
<path class="st2" d="M74.5,94.4c-0.5-0.5-0.7-1.1-0.7-1.8v-0.9c0-0.7,0.3-1.3,0.8-1.8c1.1-0.9,2.7-0.9,3.8,0
	c0.5,0.5,0.7,1.1,0.8,1.8c0,0.1,0,0.2,0,0.5s0,0.4,0,0.5c0,0.7-0.3,1.3-0.7,1.8C77.2,95.2,75.6,95.2,74.5,94.4z M77.3,93.6
	c0.2-0.3,0.3-0.6,0.3-1c0-0.1,0-0.3,0-0.4c0-0.1,0-0.3,0-0.4c0-0.4-0.1-0.7-0.3-1c-0.5-0.5-1.2-0.5-1.7,0c-0.2,0.3-0.3,0.6-0.3,1
	v0.8c0,0.4,0.1,0.7,0.3,1c0.2,0.2,0.5,0.4,0.9,0.3C76.8,94,77.1,93.8,77.3,93.6z"/>
<path class="st2" d="M81.3,94.7l-1.5-4.9c0,0,0-0.1,0-0.1c0-0.1,0-0.1,0.1-0.2c0,0,0.1-0.1,0.2-0.1h0.8c0.1,0,0.1,0,0.2,0.1
	c0,0,0.1,0.1,0.1,0.1l1,3.5l1.1-3.5c0-0.1,0.1-0.1,0.1-0.2c0.1-0.1,0.1-0.1,0.2-0.1H84c0.1,0,0.2,0,0.2,0.1c0,0,0.1,0.1,0.1,0.2
	l1.1,3.5l1-3.5c0-0.1,0-0.1,0.1-0.1c0.1,0,0.1-0.1,0.2-0.1h0.8c0.1,0,0.1,0,0.2,0.1c0,0,0.1,0.1,0.1,0.2v0.1l-1.5,4.9
	c0,0.1-0.1,0.1-0.1,0.2c-0.1,0-0.1,0.1-0.2,0.1h-0.7c-0.2,0-0.3-0.1-0.3-0.3l-1.1-3.3l-1.1,3.3c0,0.2-0.2,0.3-0.4,0.3h-0.7
	C81.4,94.9,81.3,94.8,81.3,94.7z"/>
<g class="st4">
	<path class="st5" d="M265.7,33.1c9.1,4.2,6.4,27.3,4.3,38.5c-3.5,18.7-13.9,36.5-30.9,44.2c-22.5,10.3-54.8,4.6-64.3-15
		c-5.7-11.7-3.7-29.2,5.6-35.7s13.9,1.6,31.2-1.7C235.6,58.9,235.4,19.1,265.7,33.1z"/>
</g>
<rect x="176.6" y="45.4" transform="matrix(0.784 -0.6207 0.6207 0.784 12.8758 129.7363)" class="st6" width="32.6" height="1.9"/>
<rect x="183.3" y="59.7" transform="matrix(0.789 -0.6144 0.6144 0.789 4.8579 135.4149)" class="st6" width="32.6" height="1.9"/>
<rect x="218.2" y="46.3" transform="matrix(0.6838 -0.7297 0.7297 0.6838 28.9519 177.4368)" class="st6" width="2" height="18"/>
<rect x="223.2" y="41.4" transform="matrix(0.6838 -0.7297 0.7297 0.6838 34.1178 179.5059)" class="st6" width="2" height="18"/>
<circle class="st7" cx="178.3" cy="65.5" r="14.2"/>
<linearGradient id="SVGID_2_" gradientUnits="userSpaceOnUse" x1="157.95" y1="57.5948" x2="198.58" y2="57.5948" gradientTransform="matrix(1 0 0 -1 0 122)">
	<stop  offset="0" style="stop-color:#29AEF3"/>
	<stop  offset="1" style="stop-color:#7991E7"/>
</linearGradient>
<path class="st8" d="M198.1,68.4c0.3-1.4,0.4-2.8,0.4-4.2c0-1.4-0.1-2.9-0.5-4.3h-3.3c-0.4-1.6-1-3-1.8-4.4l2.3-2.3
	c-1.5-2.3-3.5-4.3-5.9-5.9l-2.3,2.3c-1.4-0.9-2.9-1.5-4.5-1.9v-3.2c-2.8-0.6-5.7-0.6-8.5,0v3.2c-1.6,0.4-3.2,1-4.6,1.9l-2.2-2.2
	c-2.4,1.5-4.4,3.6-5.9,5.9l2.2,2.1c-0.9,1.4-1.5,2.9-1.9,4.5h-3.1c-0.3,1.4-0.5,2.9-0.5,4.3c0,1.4,0.1,2.8,0.4,4.2h3.1
	c0.4,1.7,1.1,3.3,1.9,4.8l-2.2,2.2c1.5,2.4,3.6,4.4,5.9,6l2.2-2.2c1.4,0.9,3,1.5,4.6,1.9v3.2c1.4,0.3,2.8,0.5,4.2,0.4
	c1.4,0,2.9-0.1,4.3-0.5V81c1.6-0.4,3.1-1.1,4.5-1.9l2.3,2.3c2.4-1.5,4.4-3.6,5.9-5.9L193,73c0.9-1.4,1.5-3,1.9-4.6L198.1,68.4z
	 M178.2,77.2c-7.1,0-12.8-5.7-12.9-12.8c0-7.1,5.7-12.8,12.8-12.9c7.1,0,12.8,5.7,12.9,12.8c0,0,0,0,0,0
	C191,71.4,185.3,77.2,178.2,77.2L178.2,77.2z"/>
<path class="st9" d="M173.5,57.1L173.5,57.1c0.1,0,0.2,0.1,0.2,0.2v14.1c0,0.1-0.1,0.2-0.1,0.2h0c-0.1,0-0.1-0.1-0.1-0.2V57.2
	C173.4,57.2,173.5,57.1,173.5,57.1z"/>
<path class="st9" d="M176.6,60.4L176.6,60.4c0.1,0,0.2,0.1,0.2,0.2v11.8c0,0.1-0.1,0.2-0.1,0.2h0c-0.1,0-0.1-0.1-0.1-0.2V60.6
	C176.4,60.5,176.5,60.4,176.6,60.4z"/>
<path class="st3" d="M172.8,66.9v-6.8c0-0.4,0.3-0.7,0.7-0.7h0.1c0.4,0,0.7,0.3,0.7,0.7v6.8c0,0.4-0.3,0.7-0.7,0.7h-0.1
	C173.1,67.6,172.8,67.3,172.8,66.9z"/>
<path class="st3" d="M175.9,67.6v-3.7c0-0.4,0.3-0.7,0.7-0.7h0.1c0.4,0,0.7,0.3,0.7,0.7v3.7c0,0.4-0.3,0.7-0.7,0.7h-0.1
	C176.2,68.3,175.9,68,175.9,67.6z"/>
<path class="st9" d="M179.7,59.2L179.7,59.2c0.1,0,0.2,0.1,0.2,0.2v11.8c0,0.1-0.1,0.2-0.1,0.2h0c-0.1,0-0.1-0.1-0.1-0.2V59.3
	C179.5,59.2,179.6,59.2,179.7,59.2z"/>
<path class="st3" d="M180.5,62.7v3.6c0,0.4-0.3,0.7-0.7,0.7l0,0c-0.4,0-0.7-0.3-0.7-0.7v-3.6c0-0.4,0.3-0.7,0.7-0.7l0,0
	C180.1,61.9,180.5,62.3,180.5,62.7z"/>
<path class="st9" d="M182.8,57.8L182.8,57.8c0.1,0,0.2,0.1,0.2,0.2v12.6c0,0.1-0.1,0.2-0.1,0.2h0c-0.1,0-0.1-0.1-0.1-0.2V58
	C182.6,57.9,182.7,57.8,182.8,57.8z"/>
<path class="st3" d="M183.5,60.5v6.7c0,0.4-0.3,0.7-0.7,0.7l0,0c-0.4,0-0.7-0.3-0.7-0.7l0,0v-6.7c0-0.4,0.3-0.7,0.7-0.7l0,0
	C183.2,59.8,183.5,60.1,183.5,60.5z"/>
<circle class="st10" cx="210.2" cy="43.3" r="9.8"/>
<circle class="st11" cx="210.2" cy="43.3" r="7.9"/>
<circle class="st10" cx="226.4" cy="57.7" r="9.8"/>
<circle class="st11" cx="226.4" cy="57.7" r="7.9"/>
<text transform="matrix(1 0 0 1 206.84 48.12)" class="st12 st13 st14">₹</text>
<text transform="matrix(1 0 0 1 223.17 62.45)" class="st12 st13 st14">₹</text>
<polygon class="st15" points="196.1,107.2 197,107.3 199.5,91 196.7,91 "/>
<polygon class="st16" points="199.4,94.7 199,94.3 197,107.3 197.5,106.6 "/>
<polygon class="st15" points="203.6,103.8 204.5,103.8 207,87.6 204.2,87.6 "/>
<polygon class="st16" points="206.9,91.2 206.5,90.9 204.5,103.8 205,103.1 "/>
<polygon class="st15" points="217.2,108.6 216.3,108.6 213.8,92.4 216.7,92.4 "/>
<polygon class="st16" points="217.2,90.4 216.5,90.3 217.2,108.6 217.7,107.9 "/>
<polygon class="st15" points="224.9,105.3 223.9,105.3 221.5,89.1 224.3,89.1 "/>
<polygon class="st16" points="224.9,87.1 224.1,87 224.9,105.3 225.4,104.6 "/>
<path class="st17" d="M223.9,83.7c0.7-0.4,1,0.2,2.1-9c0-0.2,0.9-1.6,1.2-2.5c-1-0.3-6.9,0.6-11.7,0.5c-2.6,0.1-9.7-0.5-10-0.5
	c-1.2-0.2,0,6.8-0.4,9.5c-0.8,5.2-1.4,6.2-0.7,6.9s1.1,0.1,5.1,0c0.4,0,2.3,0.1,6.1,0.2c0.9,0,1.8,0.1,2.6,0.2
	c0.1-2,0.2-3.8,0.2-4.1S223.3,84,223.9,83.7z"/>
<path class="st18" d="M205.1,82.6h-0.2c-0.1-0.1-9.3,0.1-9.9,0.7c-0.2,0.2-0.1,0.6,0,0.7s0.1,0.1,0.4,0.1l0.2,5.8l10.9-1.2v-4.7
	C206.6,83.3,205.9,82.6,205.1,82.6z"/>
<path class="st18" d="M195.4,89.8c0-0.3,1.2-0.4,3.9-0.7c5.2-0.6,5.2-0.7,7-0.8s2.7,0,5.4,0.2c7.8,0.3,11.4-0.1,11.5,0.5
	s-3,1.5-3.7,1.7c-1.2,0.4-2.5,0.6-3.8,0.8c-5.9,0.5-11.9,0.2-17.7-0.9C196.8,90.4,195.4,90,195.4,89.8z"/>
<polygon class="st17" points="217.9,96.4 194.8,94.8 194.8,89.9 217.9,91.1 "/>
<path class="st1" d="M196.6,94.9l-1.7-0.1V83.7c0,0,0-0.5,1-0.4s1,0.6,1,0.6L196.6,94.9z"/>
<path class="st19" d="M208.9,100.1c0,0.3,0.1,0.3,0.2,0.8s-0.1,0.8,0.1,1s0.6,0.1,0.9,0.1c0.6-0.1,1.2-0.4,1.5-0.9
	c0.3-0.4,0.4-0.9,0.2-1.4c-0.1-0.5-0.5-0.9-1-1C209.9,98.6,209,99.2,208.9,100.1C208.9,100.1,208.9,100.1,208.9,100.1z"/>
<path class="st19" d="M197.5,101.6c-0.1,0.2,0,0.3,0,0.7c-0.1,1.2-1,1.6-0.8,2s1.5,0.2,2.2,0c0.5-0.1,1.4-0.4,1.6-1.1
	c0-0.3,0.1-0.5,0.1-0.8c0-0.4,0-0.8,0-1.1C200.2,100.7,197.9,100.7,197.5,101.6z"/>
<path class="st20" d="M197.4,101.8c0-1.5,0.1-4.2,0.1-7.5c0-4.1,0.4-7.2,0.7-7.8c0.2-0.3,0.5-0.6,0.9-0.8c0.8-0.4,1.8-0.3,2.4,0.3
	c0.2,0.3,0.3,0.7,0.3,1.1c0.2,1.7,0.2,3.5,0.2,5.2c0,0.8-0.1,1.5-0.3,2.2c-0.2,0.8-0.4,1.1-0.7,2.2c-0.1,0.5-0.2,1-0.3,1.6
	c-0.2,0.8-0.2,1.7-0.2,2.5c0.1,0.6,0.2,0.8,0,1s-0.5,0.2-1.5,0.1C197.7,101.9,197.4,102.1,197.4,101.8z"/>
<path class="st20" d="M204.1,84.2c2.4-0.3,3.6-0.5,3.8-0.5c1.9,0.2,3.8,1.2,3.7,1.7s-2.8-0.5-6.2,0.8c-1.7,0.6-2.6,1.4-4.3,1.2
	c-0.5,0-3-0.3-2.8-0.8C198.6,85.8,199.9,84.8,204.1,84.2z"/>
<path class="st21" d="M197,102.4c-0.2,0.1-0.2,0.5-0.3,0.9c-0.2,0.6-0.5,1.2-0.8,1.8c-0.2,0.5-0.5,1-0.8,1.4
	c-0.2,0.2-0.3,0.2-0.8,0.7s-0.4,0.5-0.7,0.7c-0.1,0.1-0.3,0.2-0.4,0.3c-0.1,0.2-0.1,0.4-0.1,0.6c0,0.2,0,0.4,0.1,0.6
	c0.1,0.1,0.3,0.2,0.5,0.2c0.2,0,0.4,0.1,0.7,0.1c0.5,0,1-0.1,1.5-0.2c0.5-0.1,0.9-0.4,1.3-0.7c0.4-0.4,0.7-0.8,1-1.3
	c0.2-0.3,0.5-0.6,0.7-0.8c0.5-0.4,1-0.8,1.6-1.2c0.4-0.2,0.7-0.5,1-0.9c0.3-0.3,0.3-0.5,0.3-0.7s-0.1-0.3-0.3-0.7s-0.1-0.3-0.3-0.7
	s-0.3-0.8-0.5-0.8s-0.3,0.3-0.4,0.6s-0.1,0.3-0.2,0.5c-0.1,0.3-0.3,0.5-0.5,0.6c-0.2,0.2-0.4,0.2-0.7,0.2c-0.1,0-0.1-0.1-0.4-0.1
	c-0.4-0.1-0.6,0-0.7-0.2s0-0.2-0.1-0.5c0-0.2-0.1-0.3-0.2-0.4C197.4,102.4,197.2,102.3,197,102.4z"/>
<path class="st3" d="M201.8,104c0-0.2-0.1-0.3-0.3-0.7l-0.1-0.2c0,0.1-0.1,0.2-0.1,0.4c-0.1,0.2-0.3,0.4-0.4,0.6
	c-0.5,0.5-1.1,1-1.6,1.4c-0.4,0.4-0.3,0.3-0.9,1c-0.4,0.4-0.8,0.8-1.3,1.2c-0.4,0.3-0.8,0.6-1.3,0.8c-0.4,0.2-0.9,0.2-1.4,0.2
	c-0.2,0-0.4,0-0.6,0c-0.1,0-0.3-0.1-0.4-0.2c-0.1,0.1-0.1,0.3-0.1,0.5c0,0.2,0,0.4,0.1,0.6c0.1,0.1,0.3,0.2,0.5,0.2
	c0.2,0,0.4,0.1,0.7,0.1c0.5,0,1-0.1,1.5-0.2c0.5-0.1,0.9-0.4,1.3-0.7c0.4-0.4,0.7-0.8,1-1.3c0.2-0.3,0.5-0.6,0.7-0.8
	c0.5-0.4,1-0.8,1.6-1.2c0.4-0.2,0.7-0.5,1-0.9C201.8,104.3,201.8,104.1,201.8,104z"/>
<path class="st22" d="M201.4,86.5c-0.3,0.5-0.5,1-0.5,1.5c-0.1,1.1-0.1,2.2,0.2,3.3c0,1.5-0.1,2.9-0.4,4.3c-0.3,1.9-0.6,2.4-0.9,4.5
	c-0.1,0.8-0.2,1.5-0.2,2c0.8,0,1.1,0.1,1.2-0.1s0-0.4,0-1c0-0.8,0-1.7,0.2-2.5c0.1-0.5,0.1-1,0.3-1.6c0.2-1,0.4-1.3,0.7-2.2
	c0.1-0.7,0.2-1.5,0.3-2.2c0-1.7,0-3.3-0.2-5c1.2-0.1,2.1-0.8,3.5-1.3c3.5-1.3,6.1-0.2,6.2-0.8c0-0.2-0.2-0.4-0.6-0.7
	c-2.3,0-4.7,0.2-7,0.5C203,85.3,202.1,85.7,201.4,86.5z"/>
<path class="st3" d="M217.1,85.3c0.2,0.3,0.3,0.7,0.2,1.1c0.4,1.3-0.4,2.7-1.8,3.1c-0.2,0-0.4,0.1-0.6,0.1c-2.3,0.2-4.6,0.3-6.8,0.2
	c-1.5,0-1.2,0-1.9,0c-2.3,0-2.9,0.3-3.8-0.2c-0.1-0.1-1.3-0.7-1.3-1.7c0-0.6,0.3-1.1,0.8-1.5c0.5-0.5,1.2-0.8,1.9-0.9
	c3.4-0.6,6.9-0.9,10.4-0.9C215.1,84.5,216.6,84.5,217.1,85.3z"/>
<path class="st3" d="M202.3,86.4c-0.7,0.2-1.1,1.3-1.1,2.2c0,0.3,0.1,0.7,0.2,1c0.4,1,0.9,2,1.5,2.8c0.4,0.7,0.9,1.4,1.4,2
	c0.5,0.5,0.4,0.4,1.2,1.1c0.7,0.7,1.3,1.4,1.8,2.2c0.2,0.3,0.4,0.6,0.6,0.9l0.9,1.8c0.2,0.3,0.7,0.1,1,0c0.6-0.1,1.1-0.6,1.2-1.1
	c0.1-0.4,0.1-0.6-2-5.3c-0.9-1.9-1.4-2.9-1.6-3.2c-2.1-3.3-0.8-0.7-3.3-3.1C203.1,86.7,202.8,86.3,202.3,86.4z"/>
<path class="st21" d="M208.8,101.5c-0.1,0.3,0.1,0.4,0.5,1.1c0.5,0.9,0.3,0.9,0.7,1.8c0.2,0.3,0.4,0.7,0.4,1.1c0,0.2,0,0.5,0,0.7
	c0,0.4-0.1,0.7,0,1.2c0,0.1,0,0.3,0,0.4c0.1,0.2,0.2,0.4,0.4,0.6c0.1,0.1,0.2,0.1,0.3,0.1c0.1,0,0.4,0.1,1-0.4
	c0.6-0.6,1.1-1.3,1.3-2.2c0.2-0.7,0.2-1.4,0.2-2.1c0-0.4-0.1-0.4-0.2-1c-0.1-0.6-0.1-1.1-0.1-1.7c0-0.5-0.1-1-0.1-1.6
	c0-0.2,0-0.3-0.1-0.5c-0.2-0.2-0.4-0.3-0.6-0.3c-0.2,0-0.2,0-0.4,0c-0.2,0-0.3-0.1-0.5-0.2c-0.1,0-0.6-0.2-0.7-0.1s0.2,0.3,0.4,0.8
	c0.1,0.2,0.1,0.4,0.2,0.6c0,0.2,0.1,0.6-0.2,0.8s-0.2,0.1-0.4,0.1c-0.3,0-0.7,0.1-1,0.1C209.6,101,208.9,101.1,208.8,101.5z"/>
<path class="st3" d="M213.7,103.9c0-0.4-0.1-0.4-0.2-1c-0.1-0.6-0.1-1.1-0.1-1.7c0-0.5-0.1-1-0.1-1.6c0-0.2,0-0.3-0.1-0.5
	c-0.2-0.2-0.4-0.3-0.6-0.3c-0.2,0-0.2,0-0.3,0c0.1,0.1,0.1,0.2,0.1,0.2c0,0.1,0.1,0.3,0.1,0.4c0,1,0.1,1.5,0.1,2l0.1,0.6
	c0.2,1.2,0.2,1.3,0.2,1.5c0.1,0.4,0.1,0.8,0.1,1.1c-0.1,0.6-0.3,1.1-0.6,1.6c-0.2,0.4-0.5,0.7-0.8,1c-0.3,0.3-0.5,0.4-0.7,0.5
	c-0.1,0-0.2,0-0.3,0v0.1c0.1,0.2,0.2,0.4,0.4,0.6c0.1,0.1,0.2,0.1,0.3,0.1c0.1,0,0.4,0.1,1-0.4c0.6-0.6,1.1-1.3,1.3-2.2
	C213.7,105.3,213.8,104.6,213.7,103.9z"/>
<path class="st23" d="M217.3,86.4c0-0.4-0.1-0.7-0.2-1.1c-0.5-0.7-1.5-0.8-2.3-0.8c0,0.5-0.1,1.1-0.3,1.6c-0.2,0.6-0.5,1.1-0.9,1.5
	c-0.6,0.4-1.3,0.7-2.1,0.6c-4.8,0.1-6.3-0.1-6.6,0.5s0.5,1,1.7,2.7c0.8,1.3,1.6,2.6,2.2,3.9c0.8,1.5,1.5,3,2.1,4.4
	c0.1-0.1,0.1-0.2,0.2-0.4c0.1-0.4,0.1-0.6-2-5.3c-0.9-1.9-1.4-2.9-1.6-3.2c-0.4-0.6-0.6-0.9-0.8-1.2h1.5c2.3,0.1,4.6,0,6.8-0.2
	c1.4-0.1,2.5-1.2,2.4-2.6C217.4,86.7,217.4,86.5,217.3,86.4L217.3,86.4z"/>
<path class="st19" d="M207,80.3c-0.5,0.3-0.4,0.6-1.2,1.6c-0.4,0.6-0.8,1.1-1.4,1.4c-0.5,0.3-0.8,0.3-0.8,0.5s0.6,0.6,1.2,0.7
	c0.3,0,0.7,0,1-0.2c0.6-0.3,1-0.7,2.2-2.4c0.9-1.3,1-1.5,0.9-1.7C208.7,79.8,207.7,79.8,207,80.3z"/>
<path class="st24" d="M208,75.4c-0.3,0.1,0,0.7-0.4,2.5c-0.2,1-0.6,2-1.2,2.9c0,0,0,0,0,0.1s-0.2,0.3-0.1,0.4s0.2,0.1,0.5,0.2
	c0.3,0.1,0.5,0.3,0.6,0.6c0.2,0.4,0.1,0.6,0.2,0.6s0.7-0.7,0.8-0.9c0.6-0.9,1.1-1.8,1.3-2.9C209.9,77.1,208.4,75.3,208,75.4z"/>
<path class="st25" d="M205.9,85.1h-7.3c-0.2,0-0.3-0.1-0.4-0.2l-3.9-6.4c-0.1-0.2,0.2-0.5,0.4-0.5h7.8c0.2,0,0.3,0.1,0.4,0.2
	l3.6,6.6C206.8,85.2,206.3,85.1,205.9,85.1z"/>
<path class="st26" d="M210.4,58.2c-3,0.8-3.4,2.8-3,3.9c0.3,1.1,0.5,2.2,0.5,3.3c0.1,0.8,0.4,1.5,0.9,2.1c0.3,0.4,0.6,0.7,1,0.8
	c0.6,0.2,1.5,0.3,1.9-0.1c0.1-0.1,0.3-0.5-0.5-2.6c-1-2.4-1.7-3.7-1.7-3.7c-0.4-0.8-0.7-1.2-0.5-1.6c0.1-0.2,0.2-0.3,1.4-1.4
	c0.5-0.4,1.1-0.7,1-0.9S210.5,58.2,210.4,58.2z"/>
<path class="st27" d="M211.5,68.1l-0.9,0.3c-0.6,0.1-1.1,0.4-1.6,0.7c-0.7,0.6-0.5,1.6-0.5,1.9s-0.6,1-0.8,1.6
	c-0.2,0.6-0.3,1.1-0.3,1.7c0,0.5,0.1,1,0.4,1.5c0.2,0.3,0.2,0.3,0.4,0.5c0.3,0.5,0.4,1,0.3,1.5c-0.1,3.1,0.3,3.1,0,4.4
	c-0.2,1-0.6,1.5-0.2,2s0.6,0.4,1.1,0.5c2.4,0.4,2.8,0.4,3.4,0.6c1.2,0.2,1.9,0.6,2.9,0.7c0.7,0.1,0.6,0,1.4,0.1c0.2,0,0.4,0.1,0.5,0
	s0.1-0.8,0-1c-0.3-0.9,0-1.2-0.1-3.1c-0.1-1.6-0.4-3.7-0.9-8.3c-0.2-1.6-0.3-3.1,0.6-3.8c0.4-0.3,1-0.5,1.1-0.9s-0.8-1-1-1.1
	c-0.7-0.4-1.6-0.5-2.4-0.4C213.7,67.5,212.6,67.7,211.5,68.1z"/>
<path class="st24" d="M217.4,81.8c-0.1-1.6-0.4-3.7-0.9-8.3c-0.1-0.5-0.1-1.1-0.1-1.6c-0.1,0.2-0.2,0.3-0.3,0.5
	c-0.4,0.8-0.4,2.4-0.5,5.5s0,4.3-0.6,6.1c-0.2,0.5-0.4,1-0.6,1.5c1,0.3,2,0.4,3.1,0.3c0.3-0.1,0.1-0.8,0-1
	C217.2,84,217.5,83.7,217.4,81.8z"/>
<path class="st3" d="M211.2,70.1c0.9,0,1.7-0.2,2.5-0.7c0.8-0.5,1.5-1.2,1.9-2.1c-0.3,0-0.6,0-0.8,0c-1.1,0.2-2.2,0.5-3.3,0.8
	l-0.9,0.3C210.5,68.4,209.7,70.1,211.2,70.1z"/>
<path class="st28" d="M216.5,78.8c-0.2-0.5-0.1-0.5-0.2-1.9c-0.2-1.7-0.4-2-0.5-3.5c-0.1-0.6-0.1-1.2,0-1.8c0-0.7,0.3-1.5,0.7-2.1
	c0,0,1.1-1.8,1.6-1.2c0.2,0.4,0.4,0.8,0.5,1.2c0.2,0.8,0.4,1.6,0.5,2.4c0.1,1.1,0.2,1.9,0.2,2.1c0.2,2.4,0.2,2.8,0.2,3.1
	c0,0.8-0.1,1.6-0.2,2.4c-0.1,0.6-0.4,1.1-0.8,1.5C218,81.4,217,80.1,216.5,78.8z"/>
<path class="st19" d="M215.8,79.6c-0.4,0.1-0.4,0.3-1.1,1.1c-1,1-1.1,0.7-1.9,1.6c-0.4,0.4-0.7,0.8-1.2,0.9c-0.2,0-0.4,0-0.6,0
	c-0.5,0-1-0.1-1.4-0.2c-1.2-0.2-1.4-0.2-1.7-0.1c-0.1,0-0.3,0.1-0.7,0.3s-0.6,0.3-0.7,0.5s-0.1,0.3,0,0.4s0.3-0.1,0.4-0.1
	s-0.2,0.2-0.1,0.3s0.4,0.1,0.4,0.1c0.1,0.1,0.1,0.2,0.2,0.2c0.1,0.1,0.3,0,0.6-0.2c0.3-0.2,0.6-0.3,0.9-0.4c0,0-0.5,0.4-0.4,0.6
	s0.2,0.1,0.3,0.1s0.3-0.2,0.6-0.4c0.2-0.1,0.4-0.1,0.6,0c0.3,0.1,0.5,0.1,0.7,0.3c0.4,0.2,0.9,0.2,1.3,0.2c0.3-0.1,0.6-0.2,0.8-0.4
	c0.1-0.1,0.2-0.2,0.2-0.2c0.5-0.4,1.1-0.7,1.7-0.9c1.1-0.4,3.2-1.2,3.3-2.2C218.1,80.4,216.7,79.4,215.8,79.6z"/>
<path class="st29" d="M206.9,84L206.9,84c0,0,0-0.1,0-0.1l0.3-0.2l0.5-0.3l0.4-0.2c0,0,0.1,0,0.1,0l0,0c0,0,0,0.1,0,0.1l-0.4,0.2
	l-0.5,0.3c-0.1,0.1-0.2,0.1-0.3,0.2C207,84,206.9,84,206.9,84z"/>
<path class="st29" d="M207.1,84.4L207.1,84.4c0,0,0-0.1,0-0.1l0.3-0.2l0.8-0.5c0,0,0.1,0,0.1,0l0,0c0,0,0,0.1,0,0.1l-0.8,0.5
	l-0.3,0.2C207.2,84.5,207.2,84.5,207.1,84.4z"/>
<path class="st29" d="M208.9,84.1L208.9,84.1c0,0,0-0.1,0-0.1l0.3-0.1l0.3-0.1c0,0,0.1,0,0.1,0l0,0c0,0,0,0.1-0.1,0.1l-0.3,0.1
	L208.9,84.1C208.9,84.1,208.9,84.1,208.9,84.1z"/>
<path class="st30" d="M212.7,84.9h-7.5c-0.1,0-0.2,0.1-0.2,0.2l0,0c0,0.1,0.1,0.3,0.2,0.3h7.5c0.1,0,0.3-0.1,0.3-0.3l0,0
	C213,85,212.8,84.9,212.7,84.9z"/>
<path class="st19" d="M210.7,66.8c0,0.2,0.1,0.2,0.3,0.5c0.2,0.5,0.2,1.1-0.1,1.6c-0.1,0.2-0.7,1.1,1.4,0.6c0.7-0.2,1.3-0.5,1.9-0.9
	c0.4-0.3,0.8-1,0.7-1.2s-0.4-0.1-0.8-0.3c-0.9-0.3-0.6-1.7-1.4-1.9S210.6,66,210.7,66.8z"/>
<path class="st31" d="M212.9,65.3c-0.1-0.1-0.1-0.1-0.2-0.1c-0.7-0.3-2.1,0.9-2,1.7c0,0.2,0.1,0.2,0.3,0.5c0,0.1,0.1,0.2,0.1,0.2
	c0.2-0.1,0.3-0.2,0.5-0.3C212.2,66.8,212.7,66.1,212.9,65.3z"/>
<path class="st19" d="M209.4,59.7c-0.5,0.2-0.9,0.6-1.1,1c-0.3,0.4-0.4,0.8-0.4,1.2c-0.1,0.4-0.1,0.9,0.1,1.3
	c0.1,0.2,0.3,0.3,0.4,0.6s-0.1,0.4,0.1,0.8c0.2,0.4,0.3,0.7,0.5,1.1c0.6,1.3,1.3,1.4,1.3,1.4c0.4,0.1,0.8,0,1.1-0.3
	c0.5-0.4,0.9-0.8,1.3-1.2c0.9-0.8,1.4-1.9,1.6-3.1c0.1-1-0.3-2.1-1-2.8C211.8,58.4,209.6,59.6,209.4,59.7z"/>
<path class="st32" d="M209.3,61c0.8,0.3,1.3,1,1.7,1.7c0.2,0.7,0.4,1.5,0.5,2.3c0.1,0.7,1.1,2.1,3.6,2.3c1,0.1,2,0.4,2.9,0.9
	c0.2-0.1-0.5-1-1.2-2.4c-0.6-1-1.1-2.1-1.5-3.2c-0.4-1.3-0.4-1.4-0.7-2.2c-0.3-0.9-0.9-1.5-1.8-1.9c-0.6-0.3-1.3-0.4-2-0.3
	c-2.4,0.9-2.9,2.2-2.9,2.7S208.5,60.6,209.3,61z"/>
<path class="st28" d="M216.9,77.4c-0.3,0.2-0.7,1.3-1.2,1.8c-0.3,0.3-0.6,0.4-0.5,0.6s0.2,0.3,0.3,0.3c0.4,0.3,0.7,0.6,1,1
	c0.6,0.7,0.6,1.3,0.9,1.3c0.1,0,0.1,0,0.3-0.2s1.8-1.7,1.8-3S217.5,77.1,216.9,77.4z"/>
<path class="st33" d="M205.8,85.4h-7.3c-0.2,0-0.3-0.1-0.4-0.2l-3.7-6.6c-0.1-0.1,0-0.2,0.1-0.3c0,0,0.1,0,0.1,0h7.8
	c0.2,0,0.3,0.1,0.4,0.2l3.4,6.2c0.1,0.2,0,0.5-0.2,0.6C205.9,85.4,205.8,85.4,205.8,85.4z"/>
<path class="st24" d="M218.2,78.5c0,0-0.1,0-0.1,0c-0.3-0.2-0.6-0.3-0.9-0.3c-0.2,0-0.3,0-0.5,0.1c0,0-0.1,0-0.1,0l0,0
	c0,0,0-0.1,0-0.1C217.1,77.9,217.7,78,218.2,78.5C218.2,78.4,218.2,78.5,218.2,78.5C218.1,78.5,218.1,78.5,218.2,78.5L218.2,78.5z"
	/>
<polygon class="st34" points="196.9,78.2 195.7,80.9 196.4,82.1 198,78.2 "/>
<path class="st35" d="M206.2,84.7l-3.4-6.2c-0.1-0.1-0.2-0.2-0.4-0.2h-0.2c0.2,0.7,0.4,1.4,0.3,2.2c0,1.2-0.4,2.4-1.2,3.3
	c-0.8,0.9-2,1.4-3.2,1.4c0.1,0.1,0.2,0.2,0.4,0.2h7.3c0.2,0,0.4-0.2,0.4-0.5C206.2,84.8,206.2,84.8,206.2,84.7z"/>
<path class="st36" d="M209.7,62.8c0.1-0.1,0.3-0.1,0.4-0.1c0.2-0.1,0.4-0.1,0.6-0.1c0.1,0,0.1,0,0.1,0.1v0l0,0c0,0,0,0.1-0.1,0.1
	c-0.2,0-0.4,0-0.6,0.1c-0.1,0-0.3,0.1-0.4,0.1c0,0-0.1,0-0.1,0C209.6,62.9,209.6,62.9,209.7,62.8C209.7,62.8,209.7,62.8,209.7,62.8z
	"/>
<path class="st29" d="M209.4,63.4C209.4,63.4,209.4,63.4,209.4,63.4c0.1,0.3,0.1,0.5,0.2,0.8v0.3c0,0.2,0,0.4,0.1,0.4
	s0.3,0.1,0.6-0.1c0,0,0.1,0,0.1,0l0,0c0,0,0,0.1,0,0.1l-0.2,0.1c-0.3,0.1-0.5,0.1-0.6,0s-0.1-0.2-0.1-0.5v-0.3
	C209.4,64,209.4,63.7,209.4,63.4C209.3,63.5,209.3,63.4,209.4,63.4z"/>
<path class="st37" d="M210.3,63.2c0.1,0,0.2,0.1,0.2,0.2s0,0.3-0.1,0.3s-0.2-0.1-0.2-0.2S210.2,63.2,210.3,63.2z"/>
<path class="st37" d="M208.7,63.5c0.1,0,0.2,0.1,0.2,0.2s0,0.3-0.1,0.3s-0.2-0.1-0.2-0.2S208.6,63.5,208.7,63.5z"/>
<path class="st36" d="M208,63.1c0.1,0,0.3-0.1,0.4-0.1c0.1,0,0.2,0,0.3,0c0.1,0,0.1,0,0.1,0.1v0c0,0,0,0.1-0.1,0.1
	c-0.1,0-0.2,0-0.3,0c-0.1,0-0.3,0-0.4,0.1c0,0-0.1,0-0.1-0.1C207.9,63.1,207.9,63.1,208,63.1z"/>
<path class="st38" d="M209.6,65.6h0.1c0.2,0,0.4,0,0.6-0.1l0.2-0.1c0.1,0,0.1,0,0.1,0.1c-0.1,0.2-0.3,0.4-0.6,0.5
	c-0.2,0-0.4-0.1-0.5-0.3C209.6,65.7,209.6,65.7,209.6,65.6C209.6,65.6,209.6,65.6,209.6,65.6z"/>
<path class="st1" d="M216.7,85.2c-0.1-0.2-0.1-0.5,0-0.7c0.1-0.2,0.3-0.3,0.5-0.3c1.1-0.3,2.2-0.6,3.4-0.8c0.6-0.1,1-0.2,1.5-0.3
	c0.2,0,1-0.2,2-0.5s1.3-0.6,1.4-0.5s-0.4,1.2-1.1,1.9c-1,0.9-2.1,1.1-4.4,1.4C217.2,85.7,216.8,85.4,216.7,85.2z"/>
<path class="st1" d="M225.6,94.1c0.1-0.9,0.1-1.9,0-2.8c-0.1-2.3,0-4.7,0.3-7c0.1-1.4,0.3-2.4,0.6-4.2c0.3-1.9,0.9-5.2,1.2-7.1
	c0.1-1-1.1-0.9-1.2-0.7c-1.3,2-2,11-2.6,11.4s-5.3,0.9-5.4,1.3s-0.2,2-0.2,4.1c0.1,0,0,7.4,0,7.4L225.6,94.1z"/>
<path class="st1" d="M218.2,96.5l-1.7-0.2V84.8c0,0,0-0.5,1-0.4s1,0.6,1,0.6L218.2,96.5z"/>
<path class="st39" d="M235.7,105.8c4.8,0,9.8-0.6,11.5,0v1.6c0,0.9-5.1,1.6-11.5,1.6s-11.5-0.7-11.5-1.6v-1.6
	C225.6,105.1,230.5,105.8,235.7,105.8z"/>
<path class="st40" d="M244.4,108.5c-0.9,0.2-2,0.3-3.3,0.4v-3.2c1.2-0.1,2.3-0.1,3.3-0.1V108.5z"/>
<path class="st41" d="M231.2,105.7v3.2c-4.1-0.2-7-0.8-7-1.5v-1.6C225.2,105.3,227.9,105.5,231.2,105.7z"/>
<ellipse class="st42" cx="235.7" cy="105.8" rx="11.5" ry="1.6"/>
<path class="st10" d="M226.1,105.6c6.4-1,12.8-1,19.2,0c0.1,0,0.2,0.2,0.2,0.3c0,0.1-0.1,0.2-0.2,0.2c-6.4,1-12.8,1-19.2,0
	c-0.1,0-0.2-0.2-0.2-0.3C226,105.7,226,105.6,226.1,105.6z"/>
<path class="st11" d="M226.1,105.6c6.4-1,12.8-1,19.2,0c0.1,0,0.2,0.2,0.2,0.3c0,0.1-0.1,0.2-0.2,0.2h-0.1c-6.3-0.9-12.6-0.9-18.9,0
	h-0.1c-0.1,0-0.2-0.2-0.2-0.3C226,105.7,226,105.6,226.1,105.6z"/>
<path class="st39" d="M236.2,103.4c4.8,0,9.8-0.6,11.5,0v1.6c0,0.9-5.1,1.6-11.5,1.6s-11.5-0.7-11.5-1.6v-1.6
	C226.1,102.8,231,103.4,236.2,103.4z"/>
<path class="st40" d="M244.8,106.1c-0.9,0.1-2,0.3-3.3,0.4v-3.2c1.2-0.1,2.3-0.1,3.3-0.1V106.1z"/>
<path class="st41" d="M231.6,103.3v3.2c-4.1-0.2-7-0.8-7-1.5v-1.6C225.7,103,228.4,103.1,231.6,103.3z"/>
<path class="st42" d="M236.2,101.8c6.4,0,11.5,0.7,11.5,1.6s-5.1,1.6-11.5,1.6s-11.5-0.7-11.5-1.6S229.9,101.8,236.2,101.8z"/>
<path class="st10" d="M226.6,103.2c6.3-1,12.8-1,19.2,0c0.1,0,0.2,0.2,0.2,0.3c0,0.1-0.1,0.2-0.2,0.2c-6.3,1-12.8,1-19.2,0
	c-0.1,0-0.2-0.2-0.2-0.3C226.5,103.3,226.5,103.2,226.6,103.2z"/>
<path class="st11" d="M226.6,103.2c6.3-1,12.8-1,19.2,0c0.1,0,0.2,0.2,0.2,0.3c0,0.1-0.1,0.2-0.2,0.2h-0.1c-6.3-0.9-12.6-0.9-18.9,0
	h-0.1c-0.1,0-0.2-0.2-0.2-0.3C226.5,103.3,226.5,103.2,226.6,103.2z"/>
<path class="st39" d="M234.1,101.5c4.8,0,9.8-0.6,11.5,0v1.6c0,0.9-5.1,1.6-11.5,1.6s-11.5-0.7-11.5-1.6v-1.6
	C224,100.9,228.9,101.5,234.1,101.5z"/>
<path class="st40" d="M242.7,104.2c-0.9,0.2-2,0.3-3.3,0.4v-3.2c1.2-0.1,2.3-0.1,3.3-0.1V104.2z"/>
<path class="st41" d="M229.5,101.4v3.2c-4.1-0.2-6.9-0.8-6.9-1.5v-1.6C223.5,101.1,226.2,101.2,229.5,101.4z"/>
<path class="st42" d="M234.1,99.9c6.4,0,11.5,0.7,11.5,1.6s-5.1,1.6-11.5,1.6s-11.5-0.7-11.5-1.6S227.7,99.9,234.1,99.9z"/>
<path class="st10" d="M224.5,101.3c6.3-1,12.8-1,19.2,0c0.1,0,0.2,0.2,0.2,0.3c0,0.1-0.1,0.2-0.2,0.2c-6.3,1-12.8,1-19.2,0
	c-0.1,0-0.2-0.2-0.2-0.3C224.3,101.4,224.4,101.3,224.5,101.3z"/>
<path class="st11" d="M224.5,101.3c6.3-1,12.8-1,19.2,0c0.1,0,0.2,0.2,0.2,0.3c0,0.1-0.1,0.2-0.2,0.2h-0.1c-6.3-0.9-12.6-0.9-18.9,0
	h-0.1c-0.1,0-0.2-0.2-0.2-0.3C224.3,101.4,224.4,101.3,224.5,101.3z"/>
<path class="st39" d="M234.5,99.4c4.8,0,9.8-0.6,11.5,0v1.6c0,0.9-5.1,1.6-11.5,1.6S223,101.8,223,101v-1.6
	C224.4,98.7,229.3,99.4,234.5,99.4z"/>
<path class="st40" d="M243.1,102c-0.9,0.2-2,0.3-3.3,0.4v-3.2c1.2-0.1,2.3-0.1,3.3-0.1V102z"/>
<path class="st41" d="M230,99.2v3.2c-4.1-0.2-6.9-0.8-6.9-1.5v-1.6C224,98.9,226.7,99.1,230,99.2z"/>
<ellipse class="st42" cx="234.5" cy="99.4" rx="11.5" ry="1.6"/>
<path class="st10" d="M224.9,99.1c6.4-1,12.8-1,19.2,0c0.1,0,0.2,0.2,0.2,0.3c0,0.1-0.1,0.2-0.2,0.2c-6.4,1-12.8,1-19.2,0
	c-0.1,0-0.2-0.2-0.2-0.3C224.8,99.2,224.8,99.1,224.9,99.1z"/>
<path class="st11" d="M224.9,99.1c6.4-1,12.8-1,19.2,0c0.1,0,0.2,0.2,0.2,0.3c0,0.1-0.1,0.2-0.2,0.2h-0.1c-6.3-0.9-12.6-0.9-18.9,0
	h-0.1c-0.1,0-0.2-0.2-0.2-0.3C224.8,99.2,224.8,99.1,224.9,99.1z"/>
<path class="st39" d="M233.3,97.4c4.8,0,9.8-0.6,11.5,0V99c0,0.9-5.1,1.6-11.5,1.6s-11.5-0.7-11.5-1.6v-1.6
	C223.2,96.7,228.1,97.4,233.3,97.4z"/>
<path class="st40" d="M242,100c-0.9,0.2-2,0.3-3.3,0.4v-3.2c1.2,0,2.3-0.1,3.3-0.1V100z"/>
<path class="st41" d="M228.8,97.2v3.2c-4.1-0.2-7-0.8-7-1.5v-1.6C222.8,96.9,225.5,97.1,228.8,97.2z"/>
<path class="st42" d="M233.3,95.8c6.4,0,11.5,0.7,11.5,1.6s-5.2,1.6-11.5,1.6s-11.5-0.7-11.5-1.6S227,95.8,233.3,95.8z"/>
<path class="st10" d="M223.7,97.1c6.4-1,12.8-1,19.2,0c0.1,0,0.2,0.2,0.2,0.3c0,0.1-0.1,0.2-0.2,0.2c-6.4,1-12.8,1-19.2,0
	c-0.1,0-0.2-0.2-0.2-0.3C223.6,97.2,223.6,97.1,223.7,97.1z"/>
<path class="st11" d="M223.7,97.1c6.4-1,12.8-1,19.2,0c0.1,0,0.2,0.2,0.2,0.3c0,0.1-0.1,0.2-0.2,0.2h-0.1c-6.3-0.9-12.6-0.9-18.9,0
	h-0.1c-0.1,0-0.2-0.2-0.2-0.3C223.6,97.2,223.6,97.1,223.7,97.1z"/>
<path class="st39" d="M238,95.8c-4.8,0-9.8-0.6-11.5,0v1.6c0,0.9,5.1,1.6,11.5,1.6s11.5-0.7,11.5-1.6v-1.6
	C248,95.2,243.2,95.8,238,95.8z"/>
<path class="st40" d="M229.3,98.5c0.9,0.1,2,0.3,3.3,0.4v-3.2c-1.2-0.1-2.3-0.1-3.3-0.1V98.5z"/>
<path class="st41" d="M242.5,95.7v3.2c4.1-0.2,7-0.8,7-1.5v-1.6C248.5,95.4,245.8,95.6,242.5,95.7z"/>
<path class="st42" d="M238,94.2c-6.4,0-11.5,0.7-11.5,1.6s5.1,1.6,11.5,1.6s11.5-0.7,11.5-1.6S244.3,94.2,238,94.2z"/>
<path class="st10" d="M247.6,95.6c-6.4-1-12.8-1-19.2,0c-0.1,0-0.2,0.2-0.2,0.3c0,0.1,0.1,0.2,0.2,0.2c6.4,1,12.8,1,19.2,0
	c0.1,0,0.2-0.2,0.2-0.3C247.7,95.7,247.6,95.6,247.6,95.6z"/>
<path class="st11" d="M247.6,95.6c-6.4-1-12.8-1-19.2,0c-0.1,0-0.2,0.2-0.2,0.3c0,0.1,0.1,0.2,0.2,0.2h0.1c6.3-0.9,12.6-0.9,18.9,0
	h0.1c0.1,0,0.2-0.2,0.2-0.3C247.7,95.7,247.6,95.6,247.6,95.6z"/>
<path class="st39" d="M237.5,93.4c-4.8,0-9.8-0.6-11.5,0v1.6c0,0.9,5.1,1.6,11.5,1.6s11.5-0.7,11.5-1.6v-1.6
	C247.6,92.8,242.7,93.4,237.5,93.4z"/>
<path class="st40" d="M228.9,96.1c0.9,0.2,2,0.3,3.3,0.4v-3.2c-1.2-0.1-2.3-0.1-3.3-0.1V96.1z"/>
<path class="st41" d="M242.1,93.3v3.2c4.1-0.2,6.9-0.8,6.9-1.5v-1.6C248,93,245.3,93.2,242.1,93.3z"/>
<path class="st42" d="M237.5,91.8c-6.4,0-11.5,0.7-11.5,1.6s5.1,1.6,11.5,1.6s11.5-0.7,11.5-1.6S243.9,91.8,237.5,91.8z"/>
<path class="st10" d="M247.1,93.2c-6.4-1-12.8-1-19.2,0c-0.1,0-0.2,0.2-0.2,0.3c0,0.1,0.1,0.2,0.2,0.2c6.4,1,12.8,1,19.2,0
	c0.1,0,0.2-0.2,0.2-0.3C247.3,93.3,247.2,93.2,247.1,93.2z"/>
<path class="st11" d="M247.1,93.2c-6.4-1-12.8-1-19.2,0c-0.1,0-0.2,0.2-0.2,0.3c0,0.1,0.1,0.2,0.2,0.2h0.1c6.3-0.9,12.6-0.9,18.9,0
	h0.1c0.1,0,0.2-0.2,0.2-0.3C247.3,93.3,247.2,93.2,247.1,93.2z"/>
<path class="st39" d="M239.6,91.6c-4.8,0-9.8-0.6-11.5,0v1.6c0,0.9,5.1,1.6,11.5,1.6s11.5-0.7,11.5-1.6v-1.6
	C249.7,90.9,244.9,91.6,239.6,91.6z"/>
<path class="st40" d="M231,94.2c0.9,0.1,2,0.3,3.3,0.4v-3.2c-1.2,0-2.3-0.1-3.3-0.1V94.2z"/>
<path class="st41" d="M244.2,91.4v3.2c4.1-0.2,7-0.8,7-1.5v-1.6C250.2,91.1,247.5,91.3,244.2,91.4z"/>
<path class="st42" d="M239.6,89.9c-6.4,0-11.5,0.7-11.5,1.6s5.1,1.6,11.5,1.6s11.5-0.7,11.5-1.6S246,89.9,239.6,89.9z"/>
<path class="st10" d="M249.2,91.3c-6.4-1-12.8-1-19.2,0c-0.1,0-0.2,0.2-0.2,0.3c0,0.1,0.1,0.2,0.2,0.2c6.4,1,12.8,1,19.2,0
	c0.1,0,0.2-0.2,0.2-0.3C249.4,91.4,249.3,91.3,249.2,91.3z"/>
<path class="st11" d="M249.2,91.3c-6.4-1-12.8-1-19.2,0c-0.1,0-0.2,0.2-0.2,0.3c0,0.1,0.1,0.2,0.2,0.2h0.1c6.3-0.9,12.6-0.9,18.9,0
	h0.1c0.1,0,0.2-0.2,0.2-0.3C249.4,91.4,249.3,91.3,249.2,91.3z"/>
<path class="st39" d="M239.2,89.4c-4.8,0-9.8-0.6-11.5,0V91c0,0.9,5.1,1.6,11.5,1.6s11.5-0.7,11.5-1.6v-1.6
	C249.3,88.7,244.4,89.4,239.2,89.4z"/>
<path class="st40" d="M230.6,92.1c0.9,0.2,2,0.3,3.3,0.4v-3.2c-1.2,0-2.3-0.1-3.3-0.1V92.1z"/>
<path class="st41" d="M243.7,89.3v3.2c4.1-0.2,6.9-0.8,6.9-1.5v-1.6C249.7,88.9,247,89.1,243.7,89.3z"/>
<ellipse class="st42" cx="239.2" cy="89.4" rx="11.5" ry="1.6"/>
<path class="st10" d="M248.8,89.1c-6.3-1-12.8-1-19.2,0c-0.1,0-0.2,0.2-0.2,0.3c0,0.1,0.1,0.2,0.2,0.2c6.3,1,12.8,1,19.2,0
	c0.1,0,0.2-0.2,0.2-0.3C249,89.2,248.9,89.2,248.8,89.1z"/>
<path class="st11" d="M248.8,89.1c-6.3-1-12.8-1-19.2,0c-0.1,0-0.2,0.2-0.2,0.3c0,0.1,0.1,0.2,0.2,0.2h0.1c6.3-0.9,12.6-0.9,18.9,0
	h0.1c0.1,0,0.2-0.2,0.2-0.3C249,89.2,248.9,89.2,248.8,89.1z"/>
<path class="st39" d="M240.4,87.4c-4.8,0-9.8-0.6-11.5,0V89c0,0.9,5.1,1.6,11.5,1.6s11.5-0.7,11.5-1.6v-1.6
	C250.4,86.7,245.6,87.4,240.4,87.4z"/>
<path class="st40" d="M231.8,90.1c0.9,0.1,2,0.3,3.3,0.4v-3.2c-1.2,0-2.3-0.1-3.3-0.1V90.1z"/>
<path class="st41" d="M244.9,87.3v3.2c4.1-0.2,7-0.8,7-1.5v-1.6C250.9,86.9,248.2,87.1,244.9,87.3z"/>
<path class="st42" d="M240.4,85.8c-6.4,0-11.5,0.7-11.5,1.6S234,89,240.4,89s11.5-0.7,11.5-1.6S246.7,85.8,240.4,85.8z"/>
<path class="st10" d="M250,87.1c-6.3-1-12.8-1-19.2,0c-0.1,0-0.2,0.2-0.2,0.3c0,0.1,0.1,0.2,0.2,0.2c6.3,1,12.8,1,19.2,0
	c0.1,0,0.2-0.2,0.2-0.3C250.2,87.2,250.1,87.2,250,87.1z"/>
<path class="st11" d="M250,87.1c-6.3-1-12.8-1-19.2,0c-0.1,0-0.2,0.2-0.2,0.3c0,0.1,0.1,0.2,0.2,0.2h0.1c6.3-0.9,12.6-0.9,18.9,0
	h0.1c0.1,0,0.2-0.2,0.2-0.3C250.2,87.2,250.1,87.2,250,87.1z"/>
</svg>
