<svg id="Layer_1" data-name="Layer 1" xmlns="http://www.w3.org/2000/svg" xmlns:xlink="http://www.w3.org/1999/xlink" viewBox="0 0 362 193"><defs><style>.cls-1,.cls-15,.cls-16,.cls-17{fill:none;}.cls-2{fill:url(#linear-gradient);}.cls-3{clip-path:url(#clip-path);}.cls-4{fill:#4f44c1;}.cls-15,.cls-4{isolation:isolate;opacity:0.4;}.cls-5{fill:#fff;}.cls-6{fill:#9cccfa;}.cls-7{fill:#35cb5d;}.cls-8{fill:#ede6e6;opacity:0.14;}.cls-9{fill:#a7a7ea;}.cls-10{fill:#c1c0f9;}.cls-11{fill:#adabed;}.cls-12{fill:#9a9adb;}.cls-13{fill:#8d61ff;}.cls-14{fill:#997dff;}.cls-15{stroke:#9d95f8;stroke-width:0.63px;}.cls-15,.cls-16{stroke-linejoin:round;}.cls-16{stroke:#d4c4ff;stroke-width:0.5px;}.cls-17{stroke:#33cf90;stroke-linecap:round;stroke-miterlimit:10;}.cls-18{fill:#ff4200;}</style><linearGradient id="linear-gradient" x1="-1652.36" y1="-731.64" x2="-1650.84" y2="-731.64" gradientTransform="matrix(124.23, 192.32, 388.25, -250.79, 489413.47, 134251.25)" gradientUnits="userSpaceOnUse"><stop offset="0" stop-color="#491dba"/><stop offset="0.33" stop-color="#4a20bd"/><stop offset="0.61" stop-color="#4d2bc8"/><stop offset="0.87" stop-color="#523dd9"/><stop offset="1" stop-color="#5548e4"/></linearGradient><clipPath id="clip-path"><rect class="cls-1" width="362" height="193" rx="12"/></clipPath></defs><rect class="cls-1" width="362" height="193" rx="12"/><rect class="cls-2" width="362" height="193" rx="12"/><g class="cls-3"><path class="cls-4" d="M-27.21,5.9a2,2,0,0,1,3.47,0L14,71.22a2,2,0,0,1-1.73,3H-63.19a2,2,0,0,1-1.73-3Z"/><path class="cls-4" d="M336.41,78.31a10,10,0,0,1,14.14,10L339.46,208.74A10,10,0,0,1,323.73,216L225,146.17a10,10,0,0,1,1.59-17.24Z"/><path class="cls-4" d="M171.6-55.71a2,2,0,0,1,3.28-1.12L251.22,9.73a2,2,0,0,1-.66,3.4L154.74,46a2,2,0,0,1-2.61-2.28Z"/></g><path class="cls-5" d="M24,142a10,10,0,0,1,10-10h94a10,10,0,0,1,10,10v17a10,10,0,0,1-10,10H34a10,10,0,0,1-10-10Z"/><path class="cls-5" d="M26.69,43.31a1,1,0,0,1-.35-.65l-3-17.74a.4.4,0,0,1,0-.17.55.55,0,0,1,.18-.4.59.59,0,0,1,.41-.18h3.67c.54,0,.84.21.89.64l1.71,10.47,1.93-6.07a.92.92,0,0,1,.93-.75h2.1a.91.91,0,0,1,.92.75l1.93,6,1.74-10.45a.74.74,0,0,1,.25-.49,1,1,0,0,1,.62-.15h3.67a.58.58,0,0,1,.42.18.57.57,0,0,1,.16.4v.17l-3,17.74a1,1,0,0,1-.37.65,1.07,1.07,0,0,1-.75.26H37.9a1,1,0,0,1-.7-.22,1.09,1.09,0,0,1-.34-.5l-2.77-7.68-2.77,7.68a1.33,1.33,0,0,1-.36.5,1,1,0,0,1-.7.22h-2.8A1.07,1.07,0,0,1,26.69,43.31Z"/><path class="cls-5" d="M47.55,43.38a.66.66,0,0,1-.21-.5V24.58a.66.66,0,0,1,.21-.5.76.76,0,0,1,.51-.19h3.78a.77.77,0,0,1,.52.19.66.66,0,0,1,.21.5v6.19A5.5,5.5,0,0,1,57,28.88a5.81,5.81,0,0,1,2.88.72,5,5,0,0,1,2,2.14,7.43,7.43,0,0,1,.73,3.41v7.73a.66.66,0,0,1-.21.5.74.74,0,0,1-.52.19H58.06a.67.67,0,0,1-.49-.21.64.64,0,0,1-.21-.48V35.31a2.75,2.75,0,0,0-.62-1.9A2.25,2.25,0,0,0,55,32.73a2.31,2.31,0,0,0-1.76.68,2.67,2.67,0,0,0-.65,1.9v7.57a.66.66,0,0,1-.21.5.73.73,0,0,1-.52.19H48.06A.72.72,0,0,1,47.55,43.38Z"/><path class="cls-5" d="M65.84,27a.69.69,0,0,1-.19-.51V23.86a.69.69,0,0,1,.21-.51.67.67,0,0,1,.49-.21h3.5a.72.72,0,0,1,.52.21.69.69,0,0,1,.21.51v2.58a.66.66,0,0,1-.21.51.72.72,0,0,1-.52.21h-3.5A.66.66,0,0,1,65.84,27Zm0,16.41a.64.64,0,0,1-.21-.48v-13a.66.66,0,0,1,.21-.5.69.69,0,0,1,.49-.19h3.5a.74.74,0,0,1,.52.19.66.66,0,0,1,.21.5v13a.66.66,0,0,1-.21.5.74.74,0,0,1-.52.19h-3.5A.67.67,0,0,1,65.86,43.36Z"/><path class="cls-5" d="M75.48,38.06V32.93H73.26a.68.68,0,0,1-.49-.21.66.66,0,0,1-.21-.48V29.85a.66.66,0,0,1,.21-.5.7.7,0,0,1,.49-.19h2.22V24.58a.66.66,0,0,1,.21-.5.73.73,0,0,1,.49-.19h3.44a.7.7,0,0,1,.5.19.69.69,0,0,1,.2.5v4.58h3.5a.73.73,0,0,1,.52.19.66.66,0,0,1,.21.5v2.39a.64.64,0,0,1-.21.49.73.73,0,0,1-.52.2h-3.5v4.71a2.49,2.49,0,0,0,.36,1.47,1.38,1.38,0,0,0,1.18.5h2.21a.66.66,0,0,1,.51.21.72.72,0,0,1,.19.51v2.55a.68.68,0,0,1-.7.69H81.41C77.45,43.57,75.48,41.73,75.48,38.06Z"/><path class="cls-5" d="M88.5,42a7,7,0,0,1-2-5.28v-.86a7.09,7.09,0,0,1,2.07-5.15,7.37,7.37,0,0,1,5.29-1.86,8.05,8.05,0,0,1,4.08,1,6,6,0,0,1,2.49,2.63,8.53,8.53,0,0,1,.83,3.81V37a.69.69,0,0,1-.21.51.72.72,0,0,1-.52.21H91.63v.16a3.5,3.5,0,0,0,.59,2,1.86,1.86,0,0,0,1.6.76,1.91,1.91,0,0,0,1.07-.26,3.45,3.45,0,0,0,.77-.68,1.76,1.76,0,0,1,.41-.35,1.46,1.46,0,0,1,.49-.06h3.67a.64.64,0,0,1,.43.15.47.47,0,0,1,.18.37,2.79,2.79,0,0,1-.82,1.69,6.54,6.54,0,0,1-2.41,1.67,9.32,9.32,0,0,1-3.74.69A7.53,7.53,0,0,1,88.5,42Zm7.58-7.16v-.06a3.24,3.24,0,0,0-.58-2.06A2,2,0,0,0,93.84,32a1.94,1.94,0,0,0-1.63.74,3.24,3.24,0,0,0-.58,2.06v.06Z"/><path class="cls-5" d="M105.91,41.94a7.28,7.28,0,0,1-2.43-5.63c0-.52,0-1.31,0-2.38s0-1.88,0-2.42a7.32,7.32,0,0,1,2.44-5.64,10.84,10.84,0,0,1,12.49,0,7.29,7.29,0,0,1,2.45,5.64c0,1.08.06,1.88.06,2.42s0,1.35-.06,2.38a7.31,7.31,0,0,1-2.42,5.63,11.23,11.23,0,0,1-12.53,0Zm8.6-3.12a3.85,3.85,0,0,0,.92-2.68c0-1.07.06-1.84.06-2.3s0-1.21-.06-2.24a3.85,3.85,0,0,0-.92-2.68,3.58,3.58,0,0,0-4.68,0,3.8,3.8,0,0,0-.92,2.68c0,.52,0,1.26,0,2.24s0,1.77,0,2.3a3.8,3.8,0,0,0,.92,2.68,3.58,3.58,0,0,0,4.68,0Z"/><path class="cls-5" d="M125.47,43.28a4.65,4.65,0,0,1-1.91-1.57,3.8,3.8,0,0,1-.68-2.18,3.67,3.67,0,0,1,1.58-3.07,10,10,0,0,1,4.35-1.62l3.48-.53V34a2.24,2.24,0,0,0-.42-1.5,1.86,1.86,0,0,0-1.43-.47,2,2,0,0,0-.94.2,4.77,4.77,0,0,0-.85.58,3.54,3.54,0,0,1-.65.44.32.32,0,0,1-.28.2h-3.25a.63.63,0,0,1-.46-.18.5.5,0,0,1-.15-.43,3.07,3.07,0,0,1,.75-1.68,5.73,5.73,0,0,1,2.22-1.59,8.85,8.85,0,0,1,3.67-.67q3.47,0,5.15,1.51a5.23,5.23,0,0,1,1.68,4.09v8.4a.67.67,0,0,1-.2.48.66.66,0,0,1-.5.21h-3.45a.68.68,0,0,1-.49-.21.64.64,0,0,1-.21-.48v-1a4.52,4.52,0,0,1-1.71,1.4,5.77,5.77,0,0,1-2.6.54A6.28,6.28,0,0,1,125.47,43.28Zm6.1-3.51a3.19,3.19,0,0,0,.77-2.32v-.34L130,37.5c-1.57.3-2.35.85-2.35,1.67a1.2,1.2,0,0,0,.54,1,2.3,2.3,0,0,0,1.36.39A2.63,2.63,0,0,0,131.57,39.77Z"/><path class="cls-5" d="M140.59,43.38a.66.66,0,0,1-.21-.5V24.58a.66.66,0,0,1,.21-.5.77.77,0,0,1,.52-.19h3.41a.73.73,0,0,1,.51.19.68.68,0,0,1,.19.5v9.26L149,29.63a1.52,1.52,0,0,1,.21-.19.89.89,0,0,1,.32-.21,1,1,0,0,1,.42-.07h3.95a.6.6,0,0,1,.43.18.62.62,0,0,1,.18.46.61.61,0,0,1-.19.44l-4.93,5.38,5.63,6.9a.73.73,0,0,1,.19.41.62.62,0,0,1-.64.64h-4.06a1,1,0,0,1-.55-.11,2.32,2.32,0,0,1-.43-.36l-4.26-5.21v5a.68.68,0,0,1-.7.69h-3.41A.73.73,0,0,1,140.59,43.38Z"/><path class="cls-5" d="M164.84,41.94a7.28,7.28,0,0,1-2.43-5.6c0-.5,0-1.31,0-2.44s0-2,0-2.5a7.28,7.28,0,0,1,2.45-5.55,9.35,9.35,0,0,1,6.26-2,11.71,11.71,0,0,1,4.47.81A7.25,7.25,0,0,1,178.71,27a6.11,6.11,0,0,1,1.2,3.61.54.54,0,0,1-.18.41.61.61,0,0,1-.43.17h-4a.88.88,0,0,1-.57-.15,1.24,1.24,0,0,1-.32-.57,3.33,3.33,0,0,0-1.19-1.9,3.74,3.74,0,0,0-2.12-.54q-3.17,0-3.27,3.49c0,.5,0,1.27,0,2.3s0,1.82,0,2.36q.1,3.49,3.27,3.49a3.75,3.75,0,0,0,2.12-.55,3.21,3.21,0,0,0,1.19-1.89,1.09,1.09,0,0,1,.3-.57,1,1,0,0,1,.59-.15h4a.61.61,0,0,1,.43.17.54.54,0,0,1,.18.41,6.11,6.11,0,0,1-1.2,3.61,7.35,7.35,0,0,1-3.12,2.33,11.91,11.91,0,0,1-4.47.8A9.5,9.5,0,0,1,164.84,41.94Z"/><path class="cls-5" d="M184.16,43.28a4.58,4.58,0,0,1-1.91-1.57,3.73,3.73,0,0,1-.68-2.18,3.65,3.65,0,0,1,1.58-3.07,9.9,9.9,0,0,1,4.35-1.62l3.47-.53V34a2.24,2.24,0,0,0-.42-1.5,1.84,1.84,0,0,0-1.42-.47,2,2,0,0,0-.94.2,5.19,5.19,0,0,0-.86.58,3.21,3.21,0,0,1-.64.44.34.34,0,0,1-.28.2h-3.25a.62.62,0,0,1-.46-.18.5.5,0,0,1-.15-.43,3,3,0,0,1,.75-1.68,5.68,5.68,0,0,1,2.21-1.59,8.88,8.88,0,0,1,3.67-.67c2.32,0,4,.5,5.15,1.51A5.23,5.23,0,0,1,196,34.48v8.4a.68.68,0,0,1-.7.69h-3.44a.67.67,0,0,1-.49-.21.64.64,0,0,1-.21-.48v-1a4.52,4.52,0,0,1-1.71,1.4,5.8,5.8,0,0,1-2.6.54A6.28,6.28,0,0,1,184.16,43.28Zm6.1-3.51a3.23,3.23,0,0,0,.77-2.32v-.34l-2.32.39c-1.57.3-2.36.85-2.36,1.67a1.21,1.21,0,0,0,.55,1,2.28,2.28,0,0,0,1.36.39A2.63,2.63,0,0,0,190.26,39.77Z"/><path class="cls-5" d="M199.27,48.65a.66.66,0,0,1-.21-.5V29.85a.66.66,0,0,1,.21-.5.76.76,0,0,1,.52-.19h3.34a.68.68,0,0,1,.5.19.69.69,0,0,1,.2.5v1a5.14,5.14,0,0,1,4.34-2,5.5,5.5,0,0,1,4.26,1.68,7.14,7.14,0,0,1,1.67,4.78c0,.24,0,.58,0,1s0,.79,0,1.05a7.09,7.09,0,0,1-1.68,4.71,5.44,5.44,0,0,1-4.25,1.72A4.72,4.72,0,0,1,204.1,42v6.13a.68.68,0,0,1-.19.5.73.73,0,0,1-.51.19h-3.61A.81.81,0,0,1,199.27,48.65Zm9.08-9.39a3.85,3.85,0,0,0,.63-2c0-.18,0-.47,0-.85s0-.68,0-.86a3.85,3.85,0,0,0-.63-2,2.52,2.52,0,0,0-3.6,0,3.35,3.35,0,0,0-.65,1.92c0,.24,0,.59,0,1.06s0,.78,0,1a2.93,2.93,0,0,0,.66,1.79,2.22,2.22,0,0,0,1.78.71A2.12,2.12,0,0,0,208.35,39.26Z"/><path class="cls-5" d="M217,27a.69.69,0,0,1-.19-.51V23.86a.69.69,0,0,1,.21-.51.67.67,0,0,1,.49-.21H221a.72.72,0,0,1,.73.72v2.58a.7.7,0,0,1-.21.51.73.73,0,0,1-.52.21h-3.5A.66.66,0,0,1,217,27Zm0,16.41a.64.64,0,0,1-.21-.48v-13a.66.66,0,0,1,.21-.5.69.69,0,0,1,.49-.19H221a.76.76,0,0,1,.52.19.69.69,0,0,1,.21.5v13a.69.69,0,0,1-.21.5.76.76,0,0,1-.52.19h-3.5A.67.67,0,0,1,217,43.36Z"/><path class="cls-5" d="M226.64,38.06V32.93h-2.21a.68.68,0,0,1-.49-.21.66.66,0,0,1-.21-.48V29.85a.66.66,0,0,1,.21-.5.7.7,0,0,1,.49-.19h2.21V24.58a.66.66,0,0,1,.21-.5.77.77,0,0,1,.49-.19h3.45a.72.72,0,0,1,.5.19.69.69,0,0,1,.2.5v4.58H235a.74.74,0,0,1,.52.19.66.66,0,0,1,.21.5v2.39a.64.64,0,0,1-.21.49.75.75,0,0,1-.52.2h-3.5v4.71a2.49,2.49,0,0,0,.36,1.47,1.37,1.37,0,0,0,1.18.5h2.21a.68.68,0,0,1,.51.21.72.72,0,0,1,.19.51v2.55a.66.66,0,0,1-.19.48.68.68,0,0,1-.51.21h-2.66Q226.64,43.57,226.64,38.06Z"/><path class="cls-5" d="M239.9,43.28a4.62,4.62,0,0,1-1.9-1.57,3.74,3.74,0,0,1-.69-2.18,3.67,3.67,0,0,1,1.58-3.07,10,10,0,0,1,4.36-1.62l3.47-.53V34a2.24,2.24,0,0,0-.42-1.5,1.86,1.86,0,0,0-1.43-.47,2.07,2.07,0,0,0-.94.2,5.16,5.16,0,0,0-.85.58,3.52,3.52,0,0,1-.64.44.34.34,0,0,1-.28.2h-3.25a.62.62,0,0,1-.46-.18.48.48,0,0,1-.16-.43,3,3,0,0,1,.76-1.68,5.61,5.61,0,0,1,2.21-1.59,8.85,8.85,0,0,1,3.67-.67q3.47,0,5.15,1.51a5.23,5.23,0,0,1,1.68,4.09v8.4a.67.67,0,0,1-.2.48.64.64,0,0,1-.5.21h-3.44a.67.67,0,0,1-.49-.21.64.64,0,0,1-.21-.48v-1a4.52,4.52,0,0,1-1.71,1.4,5.84,5.84,0,0,1-2.61.54A6.28,6.28,0,0,1,239.9,43.28ZM246,39.77a3.23,3.23,0,0,0,.77-2.32v-.34l-2.33.39c-1.57.3-2.35.85-2.35,1.67a1.19,1.19,0,0,0,.55,1,2.25,2.25,0,0,0,1.35.39A2.65,2.65,0,0,0,246,39.77Z"/><path class="cls-5" d="M255,43.38a.66.66,0,0,1-.21-.5V24.58a.66.66,0,0,1,.21-.5.77.77,0,0,1,.52-.19H259a.7.7,0,0,1,.5.19.69.69,0,0,1,.2.5v18.3a.67.67,0,0,1-.2.48.64.64,0,0,1-.5.21h-3.5A.73.73,0,0,1,255,43.38Z"/><path class="cls-5" d="M24.53,75.36a.64.64,0,0,1-.21-.48v-18a.67.67,0,0,1,.2-.51.64.64,0,0,1,.5-.21H38a.7.7,0,0,1,.52.21.68.68,0,0,1,.21.51v2.94a.66.66,0,0,1-.21.5.73.73,0,0,1-.52.19H29.47v3.85h8a.72.72,0,0,1,.73.72V68a.64.64,0,0,1-.21.5.73.73,0,0,1-.52.2h-8v6.15a.68.68,0,0,1-.7.69H25A.67.67,0,0,1,24.53,75.36Z"/><path class="cls-5" d="M41.61,75.38a.66.66,0,0,1-.21-.5V56.58a.66.66,0,0,1,.21-.5.77.77,0,0,1,.52-.19h3.5a.72.72,0,0,1,.5.19.69.69,0,0,1,.2.5v18.3a.67.67,0,0,1-.2.48.66.66,0,0,1-.5.21h-3.5A.73.73,0,0,1,41.61,75.38Z"/><path class="cls-5" d="M51,74a7,7,0,0,1-2-5.28v-.86A7.09,7.09,0,0,1,51,62.74a7.37,7.37,0,0,1,5.29-1.86,8.05,8.05,0,0,1,4.08,1,6,6,0,0,1,2.49,2.63,8.53,8.53,0,0,1,.83,3.81V69a.69.69,0,0,1-.21.51.72.72,0,0,1-.52.21H54.11v.16a3.5,3.5,0,0,0,.59,2,1.86,1.86,0,0,0,1.6.76,1.91,1.91,0,0,0,1.07-.26,3.45,3.45,0,0,0,.77-.68,1.76,1.76,0,0,1,.41-.35,1.46,1.46,0,0,1,.49-.06h3.67a.64.64,0,0,1,.43.15.47.47,0,0,1,.18.37,2.79,2.79,0,0,1-.82,1.69,6.54,6.54,0,0,1-2.41,1.67,9.28,9.28,0,0,1-3.74.69A7.53,7.53,0,0,1,51,74Zm7.58-7.16v-.06A3.24,3.24,0,0,0,58,64.75,2,2,0,0,0,56.32,64a1.94,1.94,0,0,0-1.63.74,3.24,3.24,0,0,0-.58,2.06v.06Z"/><path class="cls-5" d="M64.72,75.39a.62.62,0,0,1,0-.87l4.64-6.35-4.22-6A.67.67,0,0,1,65,61.8a.59.59,0,0,1,.19-.46.64.64,0,0,1,.45-.18H69.2a.74.74,0,0,1,.51.14,2,2,0,0,1,.33.36l2.47,3.41L75,61.66l.14-.17a1,1,0,0,1,.29-.24.91.91,0,0,1,.41-.09h3.44a.64.64,0,0,1,.45.18.57.57,0,0,1,.2.43.74.74,0,0,1-.17.44l-4.31,6,4.73,6.35a.72.72,0,0,1,.14.41.62.62,0,0,1-.18.46.63.63,0,0,1-.46.18H75.9a.94.94,0,0,1-.79-.44L72.4,71.47l-2.75,3.66a1.28,1.28,0,0,1-.33.33.83.83,0,0,1-.48.11H65.17A.64.64,0,0,1,64.72,75.39Z"/><path class="cls-5" d="M82.53,59a.69.69,0,0,1-.19-.51V55.86a.69.69,0,0,1,.21-.51.67.67,0,0,1,.49-.21h3.5a.72.72,0,0,1,.72.72v2.58a.66.66,0,0,1-.21.51.69.69,0,0,1-.51.21H83A.66.66,0,0,1,82.53,59Zm0,16.41a.64.64,0,0,1-.21-.48v-13a.66.66,0,0,1,.21-.5.69.69,0,0,1,.49-.19h3.5a.72.72,0,0,1,.51.19.66.66,0,0,1,.21.5v13a.66.66,0,0,1-.21.5.72.72,0,0,1-.51.19H83A.67.67,0,0,1,82.55,75.36Z"/><path class="cls-5" d="M98.48,73.94a7.27,7.27,0,0,1-2.42-5.6c0-.5,0-1.31,0-2.44s0-2,0-2.5a7.21,7.21,0,0,1,2.45-5.55,9.32,9.32,0,0,1,6.25-2,11.71,11.71,0,0,1,4.47.81A7.13,7.13,0,0,1,112.35,59a6.12,6.12,0,0,1,1.21,3.61.55.55,0,0,1-.19.41.61.61,0,0,1-.43.17h-4a.88.88,0,0,1-.57-.15,1.24,1.24,0,0,1-.32-.57,3.28,3.28,0,0,0-1.19-1.9,3.72,3.72,0,0,0-2.12-.54q-3.17,0-3.27,3.49c0,.5,0,1.27,0,2.3s0,1.82,0,2.36q.11,3.49,3.27,3.49a3.73,3.73,0,0,0,2.12-.55,3.21,3.21,0,0,0,1.19-1.89,1,1,0,0,1,.31-.57.94.94,0,0,1,.58-.15h4a.61.61,0,0,1,.43.17.55.55,0,0,1,.19.41,6.12,6.12,0,0,1-1.21,3.61,7.23,7.23,0,0,1-3.12,2.33,11.91,11.91,0,0,1-4.47.8A9.5,9.5,0,0,1,98.48,73.94Z"/><path class="cls-5" d="M117.8,75.28a4.58,4.58,0,0,1-1.91-1.57,3.8,3.8,0,0,1-.68-2.18,3.65,3.65,0,0,1,1.58-3.07,10,10,0,0,1,4.35-1.62l3.48-.53V66a2.29,2.29,0,0,0-.42-1.5,1.86,1.86,0,0,0-1.43-.47,2,2,0,0,0-.94.2,5.19,5.19,0,0,0-.86.58,3.21,3.21,0,0,1-.64.44.33.33,0,0,1-.28.2H116.8a.63.63,0,0,1-.46-.18.5.5,0,0,1-.15-.43,3.07,3.07,0,0,1,.75-1.68,5.73,5.73,0,0,1,2.22-1.59,8.8,8.8,0,0,1,3.66-.67c2.32,0,4,.5,5.15,1.51a5.24,5.24,0,0,1,1.69,4.09v8.4a.67.67,0,0,1-.2.48.66.66,0,0,1-.5.21h-3.45a.67.67,0,0,1-.49-.21.64.64,0,0,1-.21-.48v-1a4.52,4.52,0,0,1-1.71,1.4,5.77,5.77,0,0,1-2.6.54A6.28,6.28,0,0,1,117.8,75.28Zm6.1-3.51a3.23,3.23,0,0,0,.77-2.32v-.34l-2.32.39c-1.57.3-2.35.85-2.35,1.67a1.2,1.2,0,0,0,.54,1,2.3,2.3,0,0,0,1.36.39A2.63,2.63,0,0,0,123.9,71.77Z"/><path class="cls-5" d="M132.92,80.65a.66.66,0,0,1-.21-.5V61.85a.66.66,0,0,1,.21-.5.72.72,0,0,1,.51-.19h3.34a.68.68,0,0,1,.5.19.69.69,0,0,1,.2.5v1a5.14,5.14,0,0,1,4.34-2,5.54,5.54,0,0,1,4.27,1.68,7.18,7.18,0,0,1,1.66,4.78c0,.24,0,.58,0,1s0,.79,0,1a7.09,7.09,0,0,1-1.68,4.71,5.44,5.44,0,0,1-4.25,1.72A4.7,4.7,0,0,1,137.75,74v6.13a.69.69,0,0,1-.2.5.72.72,0,0,1-.5.19h-3.62A.76.76,0,0,1,132.92,80.65ZM142,71.26a3.85,3.85,0,0,0,.63-2c0-.18,0-.47,0-.85s0-.68,0-.86a3.85,3.85,0,0,0-.63-2,2.52,2.52,0,0,0-3.6,0,3.27,3.27,0,0,0-.64,1.92c0,.24,0,.59,0,1.06s0,.78,0,1a2.87,2.87,0,0,0,.65,1.79,2.23,2.23,0,0,0,1.78.71A2.12,2.12,0,0,0,142,71.26Z"/><path class="cls-5" d="M156.86,75.36a.64.64,0,0,1-.21-.48v-18a.7.7,0,0,1,.19-.51.66.66,0,0,1,.51-.21h13a.69.69,0,0,1,.51.21.68.68,0,0,1,.21.51v2.94a.66.66,0,0,1-.21.5.72.72,0,0,1-.51.19H161.8v3.85h8a.72.72,0,0,1,.72.72V68a.64.64,0,0,1-.21.5.73.73,0,0,1-.51.2h-8v6.15a.67.67,0,0,1-.2.48.66.66,0,0,1-.5.21h-3.75A.67.67,0,0,1,156.86,75.36Z"/><path class="cls-5" d="M175,74.21a6.56,6.56,0,0,1-1.52-4.63V61.85a.69.69,0,0,1,.21-.5.7.7,0,0,1,.49-.19h3.73a.74.74,0,0,1,.52.19.66.66,0,0,1,.21.5v7.57c0,1.72.77,2.58,2.32,2.58a2.27,2.27,0,0,0,1.75-.68,2.69,2.69,0,0,0,.63-1.9V61.85a.66.66,0,0,1,.21-.5.73.73,0,0,1,.52-.19h3.7a.65.65,0,0,1,.69.69v13a.66.66,0,0,1-.19.48.66.66,0,0,1-.5.21h-3.42a.73.73,0,0,1-.52-.19.66.66,0,0,1-.21-.5v-1a5.33,5.33,0,0,1-4.65,2A5.14,5.14,0,0,1,175,74.21Z"/><path class="cls-5" d="M191.86,75.36a.64.64,0,0,1-.21-.48v-13a.66.66,0,0,1,.21-.5.69.69,0,0,1,.49-.19h3.44a.7.7,0,0,1,.51.19.72.72,0,0,1,.19.5v1a5.47,5.47,0,0,1,1.95-1.46,6.37,6.37,0,0,1,2.73-.56,5.58,5.58,0,0,1,2.84.72,5,5,0,0,1,2,2.14,7.57,7.57,0,0,1,.71,3.41v7.73a.68.68,0,0,1-.7.69h-3.72a.73.73,0,0,1-.52-.19.66.66,0,0,1-.21-.5V67.31a2.75,2.75,0,0,0-.6-1.91,2.26,2.26,0,0,0-1.75-.67,2.3,2.3,0,0,0-1.76.68,2.67,2.67,0,0,0-.65,1.9v7.57a.66.66,0,0,1-.19.48.68.68,0,0,1-.51.21h-3.72A.67.67,0,0,1,191.86,75.36Z"/><path class="cls-5" d="M210.92,74.16a7.3,7.3,0,0,1-1.66-4.82l0-1,0-1a7.21,7.21,0,0,1,1.68-4.76,5.45,5.45,0,0,1,4.25-1.73,5.38,5.38,0,0,1,4.07,1.61V56.58a.65.65,0,0,1,.2-.5.76.76,0,0,1,.5-.19h3.61a.81.81,0,0,1,.52.19.69.69,0,0,1,.21.5v18.3a.69.69,0,0,1-.21.5.76.76,0,0,1-.52.19h-3.34a.64.64,0,0,1-.48-.21.61.61,0,0,1-.21-.48V74a5.33,5.33,0,0,1-4.35,1.83A5.51,5.51,0,0,1,210.92,74.16Zm7.69-2.93a3.35,3.35,0,0,0,.65-1.92c0-.52.05-.87.05-1.06s0-.54-.05-1a2.93,2.93,0,0,0-.66-1.79,2.22,2.22,0,0,0-1.78-.71,2.12,2.12,0,0,0-1.81.74,3.85,3.85,0,0,0-.63,2l0,.86,0,.85a3.85,3.85,0,0,0,.63,2,2.52,2.52,0,0,0,3.6,0Z"/><path class="cls-5" d="M25.45,107.19a3,3,0,0,1-1.31-1,2.28,2.28,0,0,1-.48-1.29.29.29,0,0,1,.3-.28h.7a.35.35,0,0,1,.35.28,1.72,1.72,0,0,0,.74,1,2.89,2.89,0,0,0,1.72.43,3.16,3.16,0,0,0,1.81-.42,1.37,1.37,0,0,0,.6-1.17,1.09,1.09,0,0,0-.3-.79,2.27,2.27,0,0,0-.86-.54A17.43,17.43,0,0,0,27,102.9a9.14,9.14,0,0,1-1.74-.66,2.71,2.71,0,0,1-1-.87,2.45,2.45,0,0,1-.32-1.3,2.3,2.3,0,0,1,.41-1.36,2.71,2.71,0,0,1,1.19-.94,4.56,4.56,0,0,1,1.85-.35,4.26,4.26,0,0,1,1.9.39,3,3,0,0,1,1.2,1,2.18,2.18,0,0,1,.44,1.18.32.32,0,0,1-.08.21.33.33,0,0,1-.22.08h-.71a.35.35,0,0,1-.21-.07.39.39,0,0,1-.14-.21,1.43,1.43,0,0,0-.69-1,2.64,2.64,0,0,0-1.49-.39,2.75,2.75,0,0,0-1.53.37,1.24,1.24,0,0,0-.57,1.1,1.2,1.2,0,0,0,.26.81,2.38,2.38,0,0,0,.81.55A15.58,15.58,0,0,0,28,102a11.47,11.47,0,0,1,1.9.67,2.59,2.59,0,0,1,1,.84,2.2,2.2,0,0,1,.34,1.28,2.42,2.42,0,0,1-1,2.07,4.58,4.58,0,0,1-2.75.74A5.2,5.2,0,0,1,25.45,107.19Z"/><path class="cls-5" d="M33.2,107.32a.3.3,0,0,1-.08-.23v-9.2a.3.3,0,0,1,.08-.23.28.28,0,0,1,.23-.1h.71a.31.31,0,0,1,.33.33v9.2a.28.28,0,0,1-.1.23.33.33,0,0,1-.23.1h-.71A.31.31,0,0,1,33.2,107.32Z"/><path class="cls-5" d="M37.05,107.32a.34.34,0,0,1-.08-.23V97.9a.36.36,0,0,1,.08-.24.29.29,0,0,1,.23-.1h3.6a3.81,3.81,0,0,1,2.52.77,3.16,3.16,0,0,1,0,4.46,3.86,3.86,0,0,1-2.52.75H38.32v3.55a.3.3,0,0,1-.09.23.35.35,0,0,1-.24.1h-.71A.33.33,0,0,1,37.05,107.32Zm3.76-4.91c1.43,0,2.14-.62,2.14-1.85a1.78,1.78,0,0,0-.53-1.38,2.35,2.35,0,0,0-1.61-.48H38.32v3.71Z"/><path class="cls-5" d="M49.94,107.24a2.6,2.6,0,0,1-1-.73,1.17,1.17,0,0,1-.33-.67.26.26,0,0,1,.1-.22.37.37,0,0,1,.21-.08h.6a.23.23,0,0,1,.13,0,.51.51,0,0,1,.14.13,2.65,2.65,0,0,0,.73.62,2.24,2.24,0,0,0,1.09.22,2.33,2.33,0,0,0,1.23-.28.9.9,0,0,0,.46-.81.81.81,0,0,0-.2-.57,1.66,1.66,0,0,0-.66-.38,12,12,0,0,0-1.37-.36,3.53,3.53,0,0,1-1.75-.78,1.76,1.76,0,0,1-.51-1.31,1.81,1.81,0,0,1,.31-1,2.21,2.21,0,0,1,.93-.79,3.35,3.35,0,0,1,1.47-.3,3.54,3.54,0,0,1,1.53.29,2.69,2.69,0,0,1,1,.69,1.1,1.1,0,0,1,.32.66.26.26,0,0,1-.09.21.29.29,0,0,1-.22.09h-.54a.28.28,0,0,1-.28-.16c-.16-.17-.3-.31-.41-.41a1.34,1.34,0,0,0-.48-.25,2.15,2.15,0,0,0-.78-.11,1.69,1.69,0,0,0-1.06.29.92.92,0,0,0-.37.77.79.79,0,0,0,.15.49,1.38,1.38,0,0,0,.6.38,7.83,7.83,0,0,0,1.31.36,4,4,0,0,1,1.91.81,1.7,1.7,0,0,1,.56,1.33,1.8,1.8,0,0,1-.35,1.1,2.18,2.18,0,0,1-1,.77,4.31,4.31,0,0,1-1.65.29A3.88,3.88,0,0,1,49.94,107.24Z"/><path class="cls-5" d="M56.91,105v-3.77H55.79a.34.34,0,0,1-.23-.08.32.32,0,0,1-.09-.23v-.45a.32.32,0,0,1,.09-.23.3.3,0,0,1,.23-.09h1.12V97.75a.34.34,0,0,1,.09-.24.28.28,0,0,1,.22-.09h.63a.32.32,0,0,1,.23.09.35.35,0,0,1,.1.24v2.35h1.76a.32.32,0,0,1,.23.09.33.33,0,0,1,.1.23v.45a.33.33,0,0,1-.1.23.36.36,0,0,1-.23.08H58.18v3.67a2,2,0,0,0,.23,1.09.88.88,0,0,0,.8.36h.87a.3.3,0,0,1,.23.09.33.33,0,0,1,.08.24v.46a.3.3,0,0,1-.08.23.31.31,0,0,1-.23.1h-1C57.64,107.42,56.91,106.59,56.91,105Z"/><path class="cls-5" d="M62.55,107.27a2.3,2.3,0,0,1-.94-.76,1.87,1.87,0,0,1,.42-2.6,4.49,4.49,0,0,1,2.09-.79l2.13-.29v-.41c0-1-.56-1.45-1.69-1.45a1.9,1.9,0,0,0-1.05.26,1.71,1.71,0,0,0-.59.61.31.31,0,0,1-.12.19.23.23,0,0,1-.17,0h-.56a.31.31,0,0,1-.22-.09.29.29,0,0,1-.09-.22,1.4,1.4,0,0,1,.3-.75,2.48,2.48,0,0,1,.95-.75,3.53,3.53,0,0,1,1.56-.31,3,3,0,0,1,2.28.73,2.57,2.57,0,0,1,.69,1.83v4.57a.3.3,0,0,1-.09.23.33.33,0,0,1-.23.1h-.63a.33.33,0,0,1-.23-.1.34.34,0,0,1-.08-.23v-.62a2.43,2.43,0,0,1-.91.78,3.43,3.43,0,0,1-1.54.31A2.9,2.9,0,0,1,62.55,107.27Zm3.1-1.35a2.39,2.39,0,0,0,.6-1.76v-.39l-1.66.24a3.73,3.73,0,0,0-1.55.48,1,1,0,0,0-.53.84,1,1,0,0,0,.48.89,2,2,0,0,0,1.13.31A2,2,0,0,0,65.65,105.92Z"/><path class="cls-5" d="M69.7,107.32a.28.28,0,0,1-.1-.23v-6.66a.34.34,0,0,1,.33-.33h.6a.37.37,0,0,1,.25.09.32.32,0,0,1,.09.24v.62a2.15,2.15,0,0,1,2-1h.55a.36.36,0,0,1,.24.08.32.32,0,0,1,.09.24v.52a.3.3,0,0,1-.09.23.3.3,0,0,1-.24.1h-.81a1.66,1.66,0,0,0-1.23.45,1.64,1.64,0,0,0-.45,1.22v4.15a.28.28,0,0,1-.1.23.33.33,0,0,1-.24.1h-.64A.33.33,0,0,1,69.7,107.32Z"/><path class="cls-5" d="M75.59,105v-3.77H74.47a.34.34,0,0,1-.23-.08.32.32,0,0,1-.09-.23v-.45a.32.32,0,0,1,.09-.23.3.3,0,0,1,.23-.09h1.12V97.75a.38.38,0,0,1,.08-.24.32.32,0,0,1,.23-.09h.63a.32.32,0,0,1,.23.09.34.34,0,0,1,.09.24v2.35h1.77a.31.31,0,0,1,.32.32v.45a.32.32,0,0,1-.09.23.36.36,0,0,1-.23.08H76.85v3.67a2,2,0,0,0,.24,1.09.87.87,0,0,0,.8.36h.87a.32.32,0,0,1,.23.09.38.38,0,0,1,.08.24v.46a.34.34,0,0,1-.08.23.33.33,0,0,1-.23.1h-1C76.32,107.42,75.59,106.59,75.59,105Z"/><path class="cls-5" d="M81.34,107.24a2.6,2.6,0,0,1-1-.73,1.17,1.17,0,0,1-.33-.67.26.26,0,0,1,.1-.22.34.34,0,0,1,.21-.08h.6a.23.23,0,0,1,.13,0,.51.51,0,0,1,.14.13,2.65,2.65,0,0,0,.73.62,2.24,2.24,0,0,0,1.09.22,2.33,2.33,0,0,0,1.23-.28.9.9,0,0,0,.46-.81.81.81,0,0,0-.2-.57,1.66,1.66,0,0,0-.66-.38,12,12,0,0,0-1.37-.36,3.53,3.53,0,0,1-1.75-.78,1.76,1.76,0,0,1-.51-1.31,1.81,1.81,0,0,1,.31-1,2.21,2.21,0,0,1,.93-.79,3.32,3.32,0,0,1,1.47-.3,3.54,3.54,0,0,1,1.53.29,2.69,2.69,0,0,1,1,.69,1.1,1.1,0,0,1,.32.66.26.26,0,0,1-.09.21.29.29,0,0,1-.22.09h-.54a.28.28,0,0,1-.28-.16c-.16-.17-.3-.31-.41-.41a1.38,1.38,0,0,0-.47-.25,2.25,2.25,0,0,0-.79-.11,1.69,1.69,0,0,0-1.06.29.92.92,0,0,0-.37.77.79.79,0,0,0,.15.49,1.38,1.38,0,0,0,.6.38,8.12,8.12,0,0,0,1.31.36,4,4,0,0,1,1.91.81A1.7,1.7,0,0,1,86,105.4a1.8,1.8,0,0,1-.35,1.1,2.18,2.18,0,0,1-1,.77,4.31,4.31,0,0,1-1.65.29A3.88,3.88,0,0,1,81.34,107.24Z"/><path class="cls-5" d="M91.94,107.27a2.43,2.43,0,0,1-.94-.76,1.89,1.89,0,0,1,.42-2.6,4.53,4.53,0,0,1,2.09-.79l2.14-.29v-.41c0-1-.57-1.45-1.7-1.45a1.94,1.94,0,0,0-1,.26,1.68,1.68,0,0,0-.58.61.44.44,0,0,1-.12.19.24.24,0,0,1-.18,0h-.55a.29.29,0,0,1-.22-.09.27.27,0,0,1-.1-.22,1.43,1.43,0,0,1,.31-.75,2.44,2.44,0,0,1,.94-.75A3.55,3.55,0,0,1,94,100a3,3,0,0,1,2.28.73,2.57,2.57,0,0,1,.69,1.83v4.57a.3.3,0,0,1-.09.23.33.33,0,0,1-.24.1H96a.31.31,0,0,1-.23-.1.3.3,0,0,1-.09-.23v-.62a2.43,2.43,0,0,1-.91.78,3.38,3.38,0,0,1-1.53.31A2.94,2.94,0,0,1,91.94,107.27Zm3.11-1.35a2.39,2.39,0,0,0,.6-1.76v-.39L94,104a3.78,3.78,0,0,0-1.55.48,1,1,0,0,0-.52.84,1,1,0,0,0,.47.89,2,2,0,0,0,1.13.31A2,2,0,0,0,95.05,105.92Z"/><path class="cls-5" d="M99.57,105v-3.77H98.45a.29.29,0,0,1-.32-.31v-.45a.32.32,0,0,1,.09-.23.29.29,0,0,1,.23-.09h1.12V97.75a.38.38,0,0,1,.08-.24.32.32,0,0,1,.23-.09h.63a.32.32,0,0,1,.23.09.34.34,0,0,1,.09.24v2.35h1.77a.31.31,0,0,1,.32.32v.45a.32.32,0,0,1-.09.23.36.36,0,0,1-.23.08h-1.77v3.67a2,2,0,0,0,.24,1.09.87.87,0,0,0,.8.36h.87a.28.28,0,0,1,.22.09.34.34,0,0,1,.09.24v.46a.3.3,0,0,1-.09.23.29.29,0,0,1-.22.1h-1C100.3,107.42,99.57,106.59,99.57,105Z"/><path class="cls-6" d="M113.7,98.85h-2.35a2,2,0,0,1,.8,1.43h1.55V101h-1.53c-.15,1.43-1.3,2.34-3.12,2.4,1.11,1.14,2.32,2.58,3.51,4H111.2c-1.11-1.33-2.15-2.55-3.49-4v-.87h.79c1.53,0,2.36-.63,2.46-1.6h-3.25v-.71h3.2c-.2-.81-1-1.22-2.19-1.22h-1v-.92h6Z"/><path class="cls-6" d="M116.46,107.18a3,3,0,0,1-1.2-1,2.5,2.5,0,0,1-.44-1.31v0a.2.2,0,0,1,.09-.18.27.27,0,0,1,.2-.07h.69a.38.38,0,0,1,.39.31A1.91,1.91,0,0,0,117,106a2.4,2.4,0,0,0,1.33.37,2.29,2.29,0,0,0,1.61-.58,2.07,2.07,0,0,0,.64-1.61,1.87,1.87,0,0,0-.64-1.5,2.37,2.37,0,0,0-1.61-.56,2.1,2.1,0,0,0-.82.13,3.21,3.21,0,0,0-.64.36,1.69,1.69,0,0,1-.31.21.55.55,0,0,1-.26.06h-.68a.33.33,0,0,1-.23-.09.25.25,0,0,1-.08-.22l.44-4.68c0-.24.14-.36.35-.36H121a.31.31,0,0,1,.33.33v.52a.26.26,0,0,1-.1.22.3.3,0,0,1-.23.09H116.9l-.26,2.83a3.15,3.15,0,0,1,1.83-.48,4,4,0,0,1,1.74.37,3,3,0,0,1,1.24,1.09,3.07,3.07,0,0,1,.46,1.7,3.35,3.35,0,0,1-.46,1.8,3,3,0,0,1-1.28,1.14,4.25,4.25,0,0,1-1.87.39A4.2,4.2,0,0,1,116.46,107.18Z"/><path class="cls-6" d="M124.39,106.49a4.59,4.59,0,0,1-.9-2.78v-2.46a4.45,4.45,0,0,1,.9-2.76,3.92,3.92,0,0,1,5.38,0,4.45,4.45,0,0,1,.9,2.76c0,.26,0,.68,0,1.25s0,1,0,1.21a4.59,4.59,0,0,1-.9,2.78,3.92,3.92,0,0,1-5.38,0Zm4.33-.82a3.38,3.38,0,0,0,.59-2c0-.27,0-.66,0-1.16s0-.9,0-1.16a3.41,3.41,0,0,0-.59-2,2,2,0,0,0-1.65-.72,1.93,1.93,0,0,0-1.63.72,3.41,3.41,0,0,0-.58,2l0,1.16,0,1.16a3.38,3.38,0,0,0,.58,2,1.93,1.93,0,0,0,1.63.72A2,2,0,0,0,128.72,105.67Z"/><path class="cls-6" d="M133.39,106.49a4.59,4.59,0,0,1-.9-2.78v-2.46a4.45,4.45,0,0,1,.9-2.76,3.92,3.92,0,0,1,5.38,0,4.45,4.45,0,0,1,.9,2.76c0,.26,0,.68,0,1.25s0,1,0,1.21a4.59,4.59,0,0,1-.9,2.78,3.92,3.92,0,0,1-5.38,0Zm4.33-.82a3.31,3.31,0,0,0,.58-2c0-.27,0-.66,0-1.16s0-.9,0-1.16a3.28,3.28,0,0,0-.59-2,2,2,0,0,0-1.64-.72,1.93,1.93,0,0,0-1.63.72,3.41,3.41,0,0,0-.59,2v2.32a3.38,3.38,0,0,0,.59,2,1.93,1.93,0,0,0,1.63.72A2,2,0,0,0,137.72,105.67Z"/><path class="cls-7" d="M35.88,156a.4.4,0,0,1-.11-.27V145.37a.35.35,0,0,1,.11-.27.4.4,0,0,1,.27-.11h1.52a.38.38,0,0,1,.28.11.35.35,0,0,1,.1.27V155.7a.39.39,0,0,1-.1.27.38.38,0,0,1-.28.11H36.15A.4.4,0,0,1,35.88,156Z"/><path class="cls-7" d="M40.63,156a.4.4,0,0,1-.11-.27V145.39a.42.42,0,0,1,.11-.29.37.37,0,0,1,.27-.11h1.24a.51.51,0,0,1,.46.27l4.53,7v-6.9a.41.41,0,0,1,.1-.29.38.38,0,0,1,.28-.11h1.36a.39.39,0,0,1,.28.11.38.38,0,0,1,.11.29v10.29a.38.38,0,0,1-.11.29.37.37,0,0,1-.27.11H47.63a.5.5,0,0,1-.47-.27l-4.51-6.87v6.76a.4.4,0,0,1-.11.27.37.37,0,0,1-.27.11H40.9A.4.4,0,0,1,40.63,156Z"/><path class="cls-7" d="M54.33,155.63l-3.39-10.16a.53.53,0,0,1,0-.14.32.32,0,0,1,.09-.24.31.31,0,0,1,.24-.1h1.41a.49.49,0,0,1,.33.11.59.59,0,0,1,.17.24l2.65,8.11,2.66-8.11A.49.49,0,0,1,59,145H60.4a.32.32,0,0,1,.23.1.33.33,0,0,1,.1.24l0,.14-3.38,10.16a.6.6,0,0,1-.61.45H55A.6.6,0,0,1,54.33,155.63Z"/><path class="cls-7" d="M62.52,156a.36.36,0,0,1-.11-.27V145.39a.41.41,0,0,1,.1-.29.38.38,0,0,1,.28-.11h7a.39.39,0,0,1,.28.11.38.38,0,0,1,.11.29v1.06a.34.34,0,0,1-.11.28.43.43,0,0,1-.28.1H64.58v2.77h4.84a.38.38,0,0,1,.4.4v1a.38.38,0,0,1-.11.28.41.41,0,0,1-.29.1H64.58v2.87H69.9a.39.39,0,0,1,.28.1.38.38,0,0,1,.11.28v1.08a.37.37,0,0,1-.11.27.39.39,0,0,1-.28.11H62.79A.37.37,0,0,1,62.52,156Z"/><path class="cls-7" d="M73.7,155.81a3.62,3.62,0,0,1-1.54-1.13,2.62,2.62,0,0,1-.55-1.52.35.35,0,0,1,.09-.23.3.3,0,0,1,.24-.1h1.44a.49.49,0,0,1,.28.08.74.74,0,0,1,.21.22,1.56,1.56,0,0,0,.72.9,2.74,2.74,0,0,0,1.54.37A3.11,3.11,0,0,0,77.8,154a1.17,1.17,0,0,0,.57-1,1,1,0,0,0-.29-.71,2.53,2.53,0,0,0-.86-.5c-.39-.14-1-.31-1.72-.51a6.92,6.92,0,0,1-2.74-1.17,2.59,2.59,0,0,1-.87-2.09,2.75,2.75,0,0,1,.51-1.64,3.28,3.28,0,0,1,1.45-1.13,5.87,5.87,0,0,1,4.46,0,3.84,3.84,0,0,1,1.46,1.15,2.56,2.56,0,0,1,.53,1.37.3.3,0,0,1-.1.23.29.29,0,0,1-.23.1H78.46a.46.46,0,0,1-.47-.28,1.25,1.25,0,0,0-.62-.85,2.41,2.41,0,0,0-1.33-.34,2.46,2.46,0,0,0-1.37.33,1.11,1.11,0,0,0-.5,1,1.08,1.08,0,0,0,.25.71,2.11,2.11,0,0,0,.79.5,15.91,15.91,0,0,0,1.57.48,10.94,10.94,0,0,1,2.24.72,2.84,2.84,0,0,1,1.23,1,2.79,2.79,0,0,1,.4,1.54,2.85,2.85,0,0,1-.57,1.78,3.45,3.45,0,0,1-1.58,1.15,6.62,6.62,0,0,1-2.37.39A6.3,6.3,0,0,1,73.7,155.81Z"/><path class="cls-7" d="M84.87,156a.4.4,0,0,1-.11-.27V147H81.83a.4.4,0,0,1-.27-.11.39.39,0,0,1-.11-.28v-1.19a.42.42,0,0,1,.11-.29.35.35,0,0,1,.27-.11h8.09a.38.38,0,0,1,.4.4v1.19a.39.39,0,0,1-.11.28.42.42,0,0,1-.29.11H87v8.73a.39.39,0,0,1-.1.27.38.38,0,0,1-.28.11H85.14A.4.4,0,0,1,84.87,156Z"/><path class="cls-7" d="M95.26,156a.4.4,0,0,1-.11-.27V145.39a.41.41,0,0,1,.1-.29.38.38,0,0,1,.28-.11h1.23a.5.5,0,0,1,.46.27l4.53,7v-6.9a.46.46,0,0,1,.1-.29.39.39,0,0,1,.28-.11h1.36a.38.38,0,0,1,.4.4v10.29a.42.42,0,0,1-.11.29.4.4,0,0,1-.27.11h-1.25a.53.53,0,0,1-.48-.27l-4.51-6.87v6.76a.39.39,0,0,1-.1.27.38.38,0,0,1-.28.11H95.53A.37.37,0,0,1,95.26,156Z"/><path class="cls-7" d="M107.25,155.14A4.31,4.31,0,0,1,106,151.9c0-.31,0-.76,0-1.35s0-1.05,0-1.36a4.31,4.31,0,0,1,1.3-3.23,5.49,5.49,0,0,1,6.67,0,4.31,4.31,0,0,1,1.31,3.23c0,.61,0,1.06,0,1.36s0,.73,0,1.35a4.31,4.31,0,0,1-1.28,3.24,5.74,5.74,0,0,1-6.73,0Zm5-1.38a2.84,2.84,0,0,0,.66-1.94c0-.64,0-1.06,0-1.29s0-.67,0-1.28a2.83,2.83,0,0,0-.68-1.94,2.5,2.5,0,0,0-3.34,0,2.78,2.78,0,0,0-.66,1.94c0,.31,0,.74,0,1.28s0,1,0,1.29a2.77,2.77,0,0,0,.65,1.94,2.28,2.28,0,0,0,1.69.64A2.22,2.22,0,0,0,112.3,153.76Z"/><path class="cls-7" d="M118.47,155.6l-1.87-10.15v-.12a.32.32,0,0,1,.33-.34h1.43a.6.6,0,0,1,.3.07.39.39,0,0,1,.12.25l1.32,7.12,1.41-4.59a.54.54,0,0,1,.52-.39h.87a.45.45,0,0,1,.33.12.54.54,0,0,1,.18.27l1.42,4.59,1.3-7.12c0-.21.18-.32.44-.32H128a.28.28,0,0,1,.22.1.32.32,0,0,1,.09.24.41.41,0,0,1,0,.12l-1.87,10.15a.52.52,0,0,1-.18.35.61.61,0,0,1-.39.13h-1.08a.56.56,0,0,1-.36-.12.52.52,0,0,1-.19-.28l-1.77-5.26-1.78,5.26a.53.53,0,0,1-.55.4H119A.55.55,0,0,1,118.47,155.6Z"/><g id="_9" data-name="9"><path class="cls-8" d="M293.79,165.69l1.69,2.08s37.63-5.12,36.85-5.12-22.12-6.08-22.12-6.08l-20.56,3.36Z"/><polygon class="cls-9" points="316.94 162.91 293.66 168.34 293.66 135.35 316.94 134.96 316.94 162.91"/><polygon class="cls-10" points="293.66 168.34 274.12 162.78 274.12 134.96 293.66 135.35 293.66 168.34"/><polygon class="cls-11" points="270.63 141.69 274.12 134.96 295.21 135.09 289.65 142.34 270.63 141.69"/><polygon class="cls-12" points="300 141.95 294.82 134.96 317.07 134.96 323.28 142.34 300 141.95"/></g><path class="cls-13" d="M299.12,118.92a7.64,7.64,0,0,0,2.51,5.31,7.79,7.79,0,0,0,10.93-.5,7.61,7.61,0,0,0-.5-10.82,7.79,7.79,0,0,0-10.93.5A7.63,7.63,0,0,0,299.12,118.92Z"/><path class="cls-5" d="M306.49,110.92a7.76,7.76,0,0,0-6.92,5,7.64,7.64,0,0,0-.23,4.44,7.72,7.72,0,0,0,2.29,3.82l10.43-11.31a7.73,7.73,0,0,0-2.58-1.55A8,8,0,0,0,306.49,110.92Z"/><path class="cls-5" d="M306.49,110.92a7.76,7.76,0,0,0-6.92,5,7.64,7.64,0,0,0-.23,4.44,7.72,7.72,0,0,0,2.29,3.82l10.43-11.31a7.73,7.73,0,0,0-2.58-1.55A8,8,0,0,0,306.49,110.92Z"/><path class="cls-14" d="M306.49,110.92a7.76,7.76,0,0,0-6.92,5,7.64,7.64,0,0,0-.23,4.44,7.72,7.72,0,0,0,2.29,3.82l10.43-11.31a7.73,7.73,0,0,0-2.58-1.55A8,8,0,0,0,306.49,110.92Z"/><path class="cls-15" d="M301.24,118.82a5.54,5.54,0,0,0,1.83,3.85,5.66,5.66,0,0,0,7.92-.36,5.51,5.51,0,0,0-.36-7.84,5.67,5.67,0,0,0-7.93.36,5.55,5.55,0,0,0-1.46,4Z"/><path class="cls-16" d="M301.24,118.82a5.54,5.54,0,0,0,1.83,3.85,5.66,5.66,0,0,0,7.92-.36,5.51,5.51,0,0,0-.36-7.84,5.67,5.67,0,0,0-7.93.36,5.55,5.55,0,0,0-1.46,4Z"/><path class="cls-5" d="M308.54,117.08H308a1.84,1.84,0,0,0-.24-.64h.8a.46.46,0,0,0,0-.91l-3.25,0a.46.46,0,0,0,0,.91h.93a1,1,0,0,1,.89.63l-1.82,0a.43.43,0,0,0-.41.45.44.44,0,0,0,.42.45h1.81a1.32,1.32,0,0,1-.19.29.93.93,0,0,1-.69.31h-.93a.44.44,0,0,0-.41.47.46.46,0,0,0,.13.32l2.34,2.39a.39.39,0,0,0,.59,0,.5.5,0,0,0,0-.64l-1.58-1.6a1.73,1.73,0,0,0,1.16-.58A2,2,0,0,0,308,118h.56a.46.46,0,0,0,0-.91Z"/><path class="cls-13" d="M274.57,119a7.66,7.66,0,0,0,2.51,5.3,7.79,7.79,0,0,0,10.93-.5,7.6,7.6,0,0,0-.5-10.81,7.78,7.78,0,0,0-10.92.5A7.6,7.6,0,0,0,274.57,119Z"/><path class="cls-5" d="M282,111a7.82,7.82,0,0,0-4.24,1.49,7.63,7.63,0,0,0-2.92,8,7.67,7.67,0,0,0,2.3,3.82l10.42-11.31a7.61,7.61,0,0,0-2.58-1.54A7.78,7.78,0,0,0,282,111Z"/><path class="cls-5" d="M282,111a7.82,7.82,0,0,0-4.24,1.49,7.63,7.63,0,0,0-2.92,8,7.67,7.67,0,0,0,2.3,3.82l10.42-11.31a7.61,7.61,0,0,0-2.58-1.54A7.78,7.78,0,0,0,282,111Z"/><path class="cls-14" d="M282,111a7.82,7.82,0,0,0-4.24,1.49,7.63,7.63,0,0,0-2.92,8,7.67,7.67,0,0,0,2.3,3.82l10.42-11.31a7.61,7.61,0,0,0-2.58-1.54A7.78,7.78,0,0,0,282,111Z"/><path class="cls-15" d="M276.7,118.85a5.51,5.51,0,0,0,1.82,3.85,5.66,5.66,0,0,0,7.92-.36,5.51,5.51,0,0,0-.36-7.84,5.63,5.63,0,0,0-7.92.36,5.46,5.46,0,0,0-1.46,4Z"/><path class="cls-16" d="M276.7,118.85a5.51,5.51,0,0,0,1.82,3.85,5.66,5.66,0,0,0,7.92-.36,5.51,5.51,0,0,0-.36-7.84,5.63,5.63,0,0,0-7.92.36,5.46,5.46,0,0,0-1.46,4Z"/><path class="cls-5" d="M284,117.11h-.55a2,2,0,0,0-.25-.63h.8a.43.43,0,0,0,.41-.45.44.44,0,0,0-.42-.45l-3.25,0a.46.46,0,0,0,0,.91h.93a1,1,0,0,1,.89.63h-1.82a.46.46,0,0,0,0,.91h1.82a2,2,0,0,1-.19.28,1,1,0,0,1-.7.31h-.93a.43.43,0,0,0-.41.46.49.49,0,0,0,.13.33l2.34,2.38a.4.4,0,0,0,.59,0,.48.48,0,0,0,0-.64l-1.58-1.61A1.72,1.72,0,0,0,283,119a2.06,2.06,0,0,0,.48-.94H284a.44.44,0,0,0,.41-.46A.44.44,0,0,0,284,117.11Z"/><path class="cls-13" d="M287,103.43a6.49,6.49,0,0,0,2.13,4.52,6.63,6.63,0,0,0,9.3-.41,6.46,6.46,0,0,0-.41-9.2,6.63,6.63,0,0,0-9.3.41A6.44,6.44,0,0,0,287,103.43Z"/><path class="cls-5" d="M293.3,96.64a6.62,6.62,0,0,0-3.61,1.26,6.48,6.48,0,0,0-.55,10L298,98.34a6.59,6.59,0,0,0-4.73-1.7Z"/><path class="cls-5" d="M293.3,96.64a6.62,6.62,0,0,0-3.61,1.26,6.48,6.48,0,0,0-.55,10L298,98.34a6.59,6.59,0,0,0-4.73-1.7Z"/><path class="cls-14" d="M293.3,96.64a6.62,6.62,0,0,0-3.61,1.26,6.48,6.48,0,0,0-.55,10L298,98.34a6.59,6.59,0,0,0-4.73-1.7Z"/><path class="cls-15" d="M288.82,103.35a4.75,4.75,0,0,0,1.54,3.28,4.87,4.87,0,0,0,3.44,1.23,4.81,4.81,0,0,0,3.3-1.53,4.64,4.64,0,0,0,1.25-3.4,4.73,4.73,0,0,0-1.54-3.27,4.82,4.82,0,0,0-3.44-1.23,4.72,4.72,0,0,0-3.3,1.53,4.64,4.64,0,0,0-1.25,3.39Z"/><path class="cls-16" d="M288.82,103.35a4.75,4.75,0,0,0,1.54,3.28,4.87,4.87,0,0,0,3.44,1.23,4.81,4.81,0,0,0,3.3-1.53,4.64,4.64,0,0,0,1.25-3.4,4.73,4.73,0,0,0-1.54-3.27,4.82,4.82,0,0,0-3.44-1.23,4.72,4.72,0,0,0-3.3,1.53,4.64,4.64,0,0,0-1.25,3.39Z"/><path class="cls-5" d="M295,101.88h-.47a2.09,2.09,0,0,0-.21-.54H295a.39.39,0,0,0,0-.77h-2.76a.39.39,0,0,0-.36.39.39.39,0,0,0,.36.39h.79a.84.84,0,0,1,.76.54h-1.55a.37.37,0,0,0-.35.38.37.37,0,0,0,.36.39h1.54a1,1,0,0,1-.16.24.77.77,0,0,1-.59.26h-.79a.36.36,0,0,0-.35.39.39.39,0,0,0,.11.28l2,2a.33.33,0,0,0,.5,0,.41.41,0,0,0,0-.54l-1.34-1.37a1.5,1.5,0,0,0,1-.49,1.75,1.75,0,0,0,.41-.8H295a.36.36,0,0,0,.35-.39A.37.37,0,0,0,295,101.88Z"/><line class="cls-17" x1="282.3" y1="128.64" x2="282.3" y2="132.22"/><line class="cls-17" x1="306.67" y1="128.85" x2="306.67" y2="132.43"/><line class="cls-17" x1="294.22" y1="115.24" x2="294.22" y2="118.82"/><line class="cls-17" x1="294.22" y1="112.18" x2="294.22" y2="115.77"/><line class="cls-17" x1="294.22" y1="118.09" x2="294.22" y2="121.67"/><path class="cls-18" d="M362,26.06H295l8.13-11.85L295-.09h55a12,12,0,0,1,12,12Z"/><path class="cls-5" d="M310.6,16.8a.25.25,0,0,1-.06-.16V10.75a.23.23,0,0,1,.06-.16.21.21,0,0,1,.16-.06h.71a.29.29,0,0,1,.27.15l2.61,4V10.75a.23.23,0,0,1,.06-.16.21.21,0,0,1,.16-.06h.79a.21.21,0,0,1,.22.22v5.88a.25.25,0,0,1-.06.17.21.21,0,0,1-.16.06h-.72a.29.29,0,0,1-.27-.15l-2.61-3.93v3.86a.24.24,0,0,1-.05.16.23.23,0,0,1-.16.06h-.79A.25.25,0,0,1,310.6,16.8Z"/><path class="cls-5" d="M317.06,16.8a.25.25,0,0,1-.06-.16V10.75a.23.23,0,0,1,.06-.16.21.21,0,0,1,.16-.06h4a.25.25,0,0,1,.17.06.23.23,0,0,1,.06.16v.66a.2.2,0,0,1-.06.15.25.25,0,0,1-.17.06h-2.92v1.7H321a.19.19,0,0,1,.16.07.18.18,0,0,1,.07.15v.65a.22.22,0,0,1-.23.22h-2.74v2.23a.25.25,0,0,1-.06.16.25.25,0,0,1-.17.06h-.82A.25.25,0,0,1,317.06,16.8Z"/><path class="cls-5" d="M323,16.33a2.52,2.52,0,0,1-.73-1.86c0-.17,0-.43,0-.77s0-.6,0-.77a2.51,2.51,0,0,1,.75-1.85,3.22,3.22,0,0,1,3.85,0,2.47,2.47,0,0,1,.76,1.85c0,.35,0,.61,0,.77s0,.42,0,.77a2.49,2.49,0,0,1-.74,1.86,2.82,2.82,0,0,1-1.94.62A2.87,2.87,0,0,1,323,16.33Zm2.92-.79a1.56,1.56,0,0,0,.38-1.11c0-.36,0-.61,0-.74s0-.38,0-.73a1.6,1.6,0,0,0-.39-1.11,1.3,1.3,0,0,0-1-.36,1.34,1.34,0,0,0-1,.36,1.6,1.6,0,0,0-.38,1.11c0,.18,0,.42,0,.73s0,.56,0,.74a1.6,1.6,0,0,0,.38,1.11,1.49,1.49,0,0,0,1.94,0Z"/><path class="cls-5" d="M331.3,16.77a1.62,1.62,0,0,1-.61-.51,1.16,1.16,0,0,1-.22-.69,1.19,1.19,0,0,1,.5-1,3,3,0,0,1,1.38-.51l1.25-.18v-.19a.81.81,0,0,0-.2-.59.86.86,0,0,0-.64-.2.85.85,0,0,0-.48.11,1.06,1.06,0,0,0-.3.22,1,1,0,0,0-.15.15c0,.07-.07.11-.14.11H331a.18.18,0,0,1-.14-.06.17.17,0,0,1-.06-.14.92.92,0,0,1,.22-.51,1.69,1.69,0,0,1,.66-.5,2.62,2.62,0,0,1,1.11-.21,2.19,2.19,0,0,1,1.57.48,1.66,1.66,0,0,1,.49,1.25v2.84a.25.25,0,0,1-.06.16.21.21,0,0,1-.16.06h-.75a.23.23,0,0,1-.16-.06.25.25,0,0,1-.06-.16v-.35a1.7,1.7,0,0,1-.57.48,2.26,2.26,0,0,1-1.77,0Zm2-1a1.3,1.3,0,0,0,.32-.94v-.18l-.91.14c-.7.11-1.06.34-1.06.7a.5.5,0,0,0,.25.44,1,1,0,0,0,.58.16A1.12,1.12,0,0,0,333.29,15.76Z"/><path class="cls-5" d="M336.08,16.8a.21.21,0,0,1-.07-.16v-6a.19.19,0,0,1,.07-.16.2.2,0,0,1,.15-.06H337a.21.21,0,0,1,.22.22v6a.25.25,0,0,1-.06.16.21.21,0,0,1-.16.06h-.77A.2.2,0,0,1,336.08,16.8Z"/><path class="cls-5" d="M338.87,16.37a2.3,2.3,0,0,1-.64-1.64V14.5a2.52,2.52,0,0,1,.6-1.78,2.12,2.12,0,0,1,1.66-.65,2.15,2.15,0,0,1,1.68.65,2.48,2.48,0,0,1,.58,1.73v.19a.21.21,0,0,1-.06.16.23.23,0,0,1-.16.06h-3v.07a1.48,1.48,0,0,0,.28.84.86.86,0,0,0,.72.33,1,1,0,0,0,.85-.42.64.64,0,0,1,.13-.12l.15,0h.81a.23.23,0,0,1,.14,0,.18.18,0,0,1,.06.13.83.83,0,0,1-.26.51,2.15,2.15,0,0,1-.75.51,2.63,2.63,0,0,1-1.12.22A2.2,2.2,0,0,1,338.87,16.37Zm2.61-2.28v0a1.27,1.27,0,0,0-.27-.85.91.91,0,0,0-.73-.32.9.9,0,0,0-.73.32,1.27,1.27,0,0,0-.27.85v0Z"/><path class="cls-5" d="M343.78,16.8a.21.21,0,0,1-.07-.16V12.38a.2.2,0,0,1,.07-.16.2.2,0,0,1,.15-.06h.75a.25.25,0,0,1,.17.06.23.23,0,0,1,.06.16v.37a1.56,1.56,0,0,1,1.31-.59h.39a.21.21,0,0,1,.16.06.19.19,0,0,1,.06.15V13a.23.23,0,0,1-.06.16.21.21,0,0,1-.16.06h-.72a.86.86,0,0,0-.93.92v2.47a.25.25,0,0,1-.06.16.2.2,0,0,1-.15.06h-.82A.2.2,0,0,1,343.78,16.8Z"/><path class="cls-5" d="M348.45,16.43a1.75,1.75,0,0,1-.43-1.26v-2h-.72a.21.21,0,0,1-.15-.07.18.18,0,0,1-.07-.15v-.54a.18.18,0,0,1,.07-.15.2.2,0,0,1,.15-.06H348v-1.5a.22.22,0,0,1,.07-.16.2.2,0,0,1,.15-.06H349a.21.21,0,0,1,.22.22v1.5h1.14a.23.23,0,0,1,.16.06.2.2,0,0,1,.06.15v.54a.2.2,0,0,1-.06.15.24.24,0,0,1-.16.07h-1.14v1.94a1.07,1.07,0,0,0,.14.59.51.51,0,0,0,.45.2h.64a.23.23,0,0,1,.16.06.19.19,0,0,1,.06.15v.57a.25.25,0,0,1-.06.16.23.23,0,0,1-.16.06h-.75A1.63,1.63,0,0,1,348.45,16.43Z"/></svg>