<svg id="Layer_1" data-name="Layer 1" xmlns="http://www.w3.org/2000/svg" xmlns:xlink="http://www.w3.org/1999/xlink" viewBox="0 0 280 120"><defs><style>.cls-1{fill:none;}.cls-2{fill:url(#linear-gradient);}.cls-3{fill:#48b656;}.cls-18,.cls-4{fill:#fff;}.cls-14,.cls-15,.cls-18,.cls-5{isolation:isolate;}.cls-6{fill:#49b757;}.cls-7{fill:#eb474a;}.cls-8{fill:#fede6f;}.cls-9{fill:#fdc16e;}.cls-10{fill:#e4a851;}.cls-11{fill:#ae813d;}.cls-12{clip-path:url(#clip-path);}.cls-13{fill:#41318c;}.cls-14{fill:#010101;opacity:0.18;}.cls-15{fill:#f3f3f3;opacity:0.09;}.cls-16{fill:#342193;}.cls-17{fill:#211354;}.cls-18{opacity:0.61;}</style><linearGradient id="linear-gradient" x1="-123.27" y1="-82.83" x2="329" y2="162.42" gradientUnits="userSpaceOnUse"><stop offset="0.45" stop-color="#3f5ffd"/><stop offset="0.46" stop-color="#3d63fd"/><stop offset="0.64" stop-color="#2399fd"/><stop offset="0.8" stop-color="#10bffd"/><stop offset="0.92" stop-color="#04d7fd"/><stop offset="1" stop-color="#00e0fd"/></linearGradient><clipPath id="clip-path"><ellipse class="cls-1" cx="199.7" cy="74.32" rx="23.67" ry="23.87"/></clipPath></defs><polygon class="cls-2" points="-2.09 -15 282.33 -15 282.33 135 -2.09 135 -2.09 -15"/><path class="cls-3" d="M215.71,7.2h59.9A4.39,4.39,0,0,1,280,11.58V23.67a4.39,4.39,0,0,1-4.39,4.39h-59.9a0,0,0,0,1,0,0V7.2A0,0,0,0,1,215.71,7.2Z" transform="translate(495.71 35.25) rotate(-180)"/><path class="cls-4" d="M225.08,21.67a.24.24,0,0,1-.06-.17v-7a.29.29,0,0,1,.06-.19.23.23,0,0,1,.18-.07h.47a.24.24,0,0,1,.16,0,1.14,1.14,0,0,1,.11.11l3.61,5.56V14.46a.25.25,0,0,1,.07-.19.24.24,0,0,1,.18-.07h.48a.24.24,0,0,1,.19.07.25.25,0,0,1,.07.19v7a.25.25,0,0,1-.07.19.21.21,0,0,1-.18.07h-.48a.27.27,0,0,1-.26-.15L226,16.09V21.5a.21.21,0,0,1-.07.17.24.24,0,0,1-.18.07h-.49A.23.23,0,0,1,225.08,21.67Z"/><path class="cls-4" d="M232.55,21.67a.24.24,0,0,1-.06-.17v-7a.29.29,0,0,1,.06-.19.23.23,0,0,1,.18-.07h4.37a.24.24,0,0,1,.26.26v.4a.21.21,0,0,1-.07.17.25.25,0,0,1-.19.07h-3.61v2.56h3.39a.24.24,0,0,1,.19.07.23.23,0,0,1,.07.18v.41a.21.21,0,0,1-.07.17.25.25,0,0,1-.19.07h-3.39V21.5a.19.19,0,0,1-.08.17.24.24,0,0,1-.18.07h-.5A.23.23,0,0,1,232.55,21.67Z"/><path class="cls-4" d="M239.25,21.11a3,3,0,0,1-.81-2.22c0-.22,0-.52,0-.92s0-.7,0-.9a3,3,0,0,1,.83-2.22,3.39,3.39,0,0,1,4.28,0,3.08,3.08,0,0,1,.83,2.22c0,.41,0,.71,0,.9s0,.49,0,.92a3.08,3.08,0,0,1-.81,2.22,3,3,0,0,1-2.16.74A3,3,0,0,1,239.25,21.11Zm3.54-.68a2.29,2.29,0,0,0,.56-1.6c0-.43,0-.71,0-.86s0-.44,0-.86a2.36,2.36,0,0,0-.56-1.61,1.83,1.83,0,0,0-1.38-.52,1.86,1.86,0,0,0-1.38.52,2.31,2.31,0,0,0-.56,1.61c0,.21,0,.49,0,.86s0,.65,0,.86a2.29,2.29,0,0,0,.55,1.6,1.88,1.88,0,0,0,1.39.53A1.84,1.84,0,0,0,242.79,20.43Z"/><path class="cls-4" d="M247.68,21.68a.2.2,0,0,1-.06-.15l0-.12,2.67-7a.34.34,0,0,1,.35-.24h.69a.33.33,0,0,1,.34.24l2.67,7,0,.12a.21.21,0,0,1-.07.15.25.25,0,0,1-.16.06h-.51a.24.24,0,0,1-.17-.06.35.35,0,0,1-.1-.12l-.6-1.55h-3.57l-.59,1.55a.29.29,0,0,1-.27.18h-.52A.24.24,0,0,1,247.68,21.68Zm1.85-2.57h2.95L251,15.25Z"/><path class="cls-4" d="M255.49,21.67a.21.21,0,0,1-.07-.17V14.34a.21.21,0,0,1,.07-.18.24.24,0,0,1,.18-.07h.47a.29.29,0,0,1,.18.07.24.24,0,0,1,.07.18V21.5a.21.21,0,0,1-.07.17.24.24,0,0,1-.18.07h-.47A.24.24,0,0,1,255.49,21.67Z"/><path class="cls-4" d="M258.47,21.17a2.8,2.8,0,0,1-.72-1.87v-.73a2.79,2.79,0,0,1,.72-1.85,2.31,2.31,0,0,1,1.76-.69,2.26,2.26,0,0,1,1.83.76,3,3,0,0,1,.66,2V19a.24.24,0,0,1-.25.25h-3.74v.09a2,2,0,0,0,.43,1.2,1.3,1.3,0,0,0,1.06.49,1.47,1.47,0,0,0,.82-.2,1.83,1.83,0,0,0,.48-.41.59.59,0,0,1,.15-.16l.18,0h.48a.26.26,0,0,1,.17.05.19.19,0,0,1,.07.14.93.93,0,0,1-.3.57,2.3,2.3,0,0,1-.82.58,3,3,0,0,1-1.22.24A2.34,2.34,0,0,1,258.47,21.17Zm3.27-2.63v0a1.84,1.84,0,0,0-.41-1.23,1.41,1.41,0,0,0-1.1-.47,1.36,1.36,0,0,0-1.1.47,1.84,1.84,0,0,0-.4,1.23v0Z"/><path class="cls-4" d="M264.1,21.67a.21.21,0,0,1-.07-.17V16.4a.28.28,0,0,1,.07-.19.24.24,0,0,1,.18-.07h.45a.24.24,0,0,1,.26.26v.47a1.6,1.6,0,0,1,1.5-.73h.42a.24.24,0,0,1,.18.06.25.25,0,0,1,.07.19v.4a.21.21,0,0,1-.07.17.21.21,0,0,1-.18.07h-.62a1.26,1.26,0,0,0-.93.35,1.3,1.3,0,0,0-.34.94V21.5a.21.21,0,0,1-.07.17.25.25,0,0,1-.19.07h-.48A.24.24,0,0,1,264.1,21.67Z"/><path class="cls-4" d="M268.57,19.86V17h-.85a.23.23,0,0,1-.18-.07.24.24,0,0,1-.06-.17v-.34a.28.28,0,0,1,.06-.18.23.23,0,0,1,.18-.07h.85v-1.8a.28.28,0,0,1,.06-.18.27.27,0,0,1,.18-.07h.47a.24.24,0,0,1,.25.25v1.8h1.33a.24.24,0,0,1,.25.25v.34a.21.21,0,0,1-.07.17.24.24,0,0,1-.18.07h-1.33v2.81a1.66,1.66,0,0,0,.17.83.67.67,0,0,0,.61.28H271a.24.24,0,0,1,.24.25v.36a.24.24,0,0,1-.24.24h-.73C269.12,21.74,268.57,21.11,268.57,19.86Z"/><g class="cls-5"><g class="cls-5"><path class="cls-4" d="M22.12,25.26a4.24,4.24,0,0,1-1.32-3.39V15.19a.43.43,0,0,1,.12-.31.37.37,0,0,1,.29-.12h2.25a.41.41,0,0,1,.3.12.43.43,0,0,1,.12.31v6.64a2.16,2.16,0,0,0,.48,1.53,1.84,1.84,0,0,0,1.39.5,1.8,1.8,0,0,0,1.38-.51,2.17,2.17,0,0,0,.48-1.52V15.19a.44.44,0,0,1,.13-.31.41.41,0,0,1,.3-.12h2.23a.41.41,0,0,1,.3.12.43.43,0,0,1,.12.31v6.68a4.23,4.23,0,0,1-1.31,3.39,5.36,5.36,0,0,1-3.61,1.13A5.44,5.44,0,0,1,22.12,25.26Z"/><path class="cls-4" d="M35.47,26.11a.42.42,0,0,1-.13-.3V17.43H32.46a.41.41,0,0,1-.3-.12A.37.37,0,0,1,32,17V15.19a.43.43,0,0,1,.12-.31.41.41,0,0,1,.3-.12h8.89a.45.45,0,0,1,.31.12.43.43,0,0,1,.12.31V17a.37.37,0,0,1-.12.29.45.45,0,0,1-.31.12H38.47v8.38a.41.41,0,0,1-.12.3.44.44,0,0,1-.3.11H35.77A.44.44,0,0,1,35.47,26.11Z"/><path class="cls-4" d="M43.34,26.1a.4.4,0,0,1-.12-.29V15.17a.37.37,0,0,1,.12-.29.42.42,0,0,1,.29-.12H46a.41.41,0,0,1,.3.12.4.4,0,0,1,.11.29V25.81a.44.44,0,0,1-.11.29.41.41,0,0,1-.3.12H43.63A.42.42,0,0,1,43.34,26.1Z"/><path class="cls-4" d="M52.17,26.1a.4.4,0,0,1-.12-.29V15.19a.42.42,0,0,1,.11-.31.41.41,0,0,1,.3-.12h7.61a.41.41,0,0,1,.3.12.44.44,0,0,1,.13.31v1.73a.42.42,0,0,1-.13.3.44.44,0,0,1-.3.11h-5v2.28h4.68a.45.45,0,0,1,.31.12.41.41,0,0,1,.12.3v1.74a.37.37,0,0,1-.12.29.45.45,0,0,1-.31.12H55.06v3.63a.4.4,0,0,1-.12.29.37.37,0,0,1-.29.12H52.46A.4.4,0,0,1,52.17,26.1Z"/><path class="cls-4" d="M62.81,25.43a3.75,3.75,0,0,1-1.2-2.73c0-.14,0-.39,0-.74s0-.59,0-.73a3.68,3.68,0,0,1,1.24-2.71,5.5,5.5,0,0,1,6.27,0,3.63,3.63,0,0,1,1.23,2.71,6.77,6.77,0,0,1,0,1.47,3.68,3.68,0,0,1-1.2,2.73,5.71,5.71,0,0,1-6.34,0ZM67,23.91a2.35,2.35,0,0,0,.38-1.29c0-.11,0-.33,0-.66s0-.54,0-.65A2.37,2.37,0,0,0,67,20a1.4,1.4,0,0,0-2,0,2.29,2.29,0,0,0-.37,1.28l0,.65,0,.66A2.27,2.27,0,0,0,65,23.91a1.42,1.42,0,0,0,2,0Z"/><path class="cls-4" d="M72.88,25.4a3.66,3.66,0,0,1-1.23-2.76l0-.66,0-.67a3.63,3.63,0,0,1,1.23-2.77,4.49,4.49,0,0,1,3-1,5.13,5.13,0,0,1,2.4.51,4,4,0,0,1,1.44,1.2,2.64,2.64,0,0,1,.5,1.27.36.36,0,0,1-.11.31.45.45,0,0,1-.31.12h-2.2a.41.41,0,0,1-.27-.08.66.66,0,0,1-.18-.26,1.55,1.55,0,0,0-.47-.68,1.19,1.19,0,0,0-.73-.21c-.84,0-1.28.56-1.31,1.67l0,.62,0,.54A2.11,2.11,0,0,0,75,23.81a1.17,1.17,0,0,0,1,.4,1.21,1.21,0,0,0,.75-.21,1.52,1.52,0,0,0,.45-.68.66.66,0,0,1,.18-.26.41.41,0,0,1,.27-.08h2.2a.44.44,0,0,1,.29.11.35.35,0,0,1,.13.28,2.39,2.39,0,0,1-.45,1.22,3.73,3.73,0,0,1-1.43,1.26,5,5,0,0,1-2.46.54A4.48,4.48,0,0,1,72.88,25.4Z"/><path class="cls-4" d="M82.45,25.42a3.9,3.9,0,0,1-.88-2.73V18.12a.41.41,0,0,1,.12-.3.44.44,0,0,1,.29-.11h2.18a.44.44,0,0,1,.3.11.41.41,0,0,1,.12.3v4.47c0,1,.46,1.52,1.36,1.52a1.33,1.33,0,0,0,1-.4,1.62,1.62,0,0,0,.36-1.12V18.12a.38.38,0,0,1,.13-.3.44.44,0,0,1,.3-.11h2.16a.38.38,0,0,1,.41.41v7.69a.44.44,0,0,1-.11.29.41.41,0,0,1-.3.12h-2a.44.44,0,0,1-.3-.11.41.41,0,0,1-.12-.3v-.62a3.11,3.11,0,0,1-2.72,1.2A3,3,0,0,1,82.45,25.42Z"/><path class="cls-4" d="M93.52,26a3.37,3.37,0,0,1-1.33-.9,1.56,1.56,0,0,1-.43-.95.34.34,0,0,1,.12-.27.4.4,0,0,1,.27-.11h2a.2.2,0,0,1,.16.07l.31.21a3.49,3.49,0,0,0,.59.35,1.41,1.41,0,0,0,.64.13,1.34,1.34,0,0,0,.73-.18.53.53,0,0,0,.29-.48.55.55,0,0,0-.16-.42,1.48,1.48,0,0,0-.59-.32,8.49,8.49,0,0,0-1.32-.32C92.9,22.43,92,21.56,92,20.2a2.21,2.21,0,0,1,.44-1.29,2.94,2.94,0,0,1,1.27-1,5,5,0,0,1,2-.38,5.48,5.48,0,0,1,2.08.37,3.6,3.6,0,0,1,1.33.89,1.45,1.45,0,0,1,.46.94.38.38,0,0,1-.11.26.32.32,0,0,1-.25.12h-1.8a.37.37,0,0,1-.23-.07,2.84,2.84,0,0,1-.39-.25,4.42,4.42,0,0,0-.52-.3,1.35,1.35,0,0,0-.57-.11,1,1,0,0,0-.63.18.55.55,0,0,0-.23.46.53.53,0,0,0,.14.4,1.31,1.31,0,0,0,.57.31,12.15,12.15,0,0,0,1.32.31,4.25,4.25,0,0,1,2.33,1,2.28,2.28,0,0,1-.36,3.62,5.48,5.48,0,0,1-3,.73A5.87,5.87,0,0,1,93.52,26Z"/><path class="cls-4" d="M102.17,25.31A4.12,4.12,0,0,1,101,22.19v-.5a4.23,4.23,0,0,1,1.21-3.05,4.32,4.32,0,0,1,3.1-1.1,4.63,4.63,0,0,1,2.38.57,3.64,3.64,0,0,1,1.46,1.55,5.17,5.17,0,0,1,.48,2.26v.41a.41.41,0,0,1-.12.3.43.43,0,0,1-.31.12H104v.1a2,2,0,0,0,.35,1.19,1.23,1.23,0,0,0,1.56.29,2.09,2.09,0,0,0,.45-.4.72.72,0,0,1,.24-.2.65.65,0,0,1,.29-.05H109a.37.37,0,0,1,.25.09.3.3,0,0,1,.11.23,1.66,1.66,0,0,1-.48,1,3.8,3.8,0,0,1-1.41,1,5.45,5.45,0,0,1-2.19.41A4.39,4.39,0,0,1,102.17,25.31Zm4.44-4.23v0a1.91,1.91,0,0,0-.35-1.22,1.16,1.16,0,0,0-1-.44,1.13,1.13,0,0,0-1,.44,1.91,1.91,0,0,0-.34,1.22v0Z"/><path class="cls-4" d="M111.79,25.39a4.36,4.36,0,0,1-1-2.85V21.38a4.35,4.35,0,0,1,1-2.81,3.48,3.48,0,0,1,4.86-.08V15a.39.39,0,0,1,.41-.41h2.11a.44.44,0,0,1,.31.11.41.41,0,0,1,.12.3v10.8a.41.41,0,0,1-.12.3.49.49,0,0,1-.31.11h-2a.39.39,0,0,1-.28-.12.41.41,0,0,1-.13-.29v-.5a3.07,3.07,0,0,1-2.53,1.08A3.24,3.24,0,0,1,111.79,25.39Zm4.49-1.73a2,2,0,0,0,.38-1.14c0-.3,0-.51,0-.62s0-.32,0-.61a1.74,1.74,0,0,0-.38-1.05,1.3,1.3,0,0,0-1-.42,1.23,1.23,0,0,0-1.06.43,2.34,2.34,0,0,0-.37,1.21v1a2.34,2.34,0,0,0,.37,1.21,1.23,1.23,0,0,0,1.06.43A1.21,1.21,0,0,0,116.28,23.66Z"/></g><g class="cls-5"><path class="cls-4" d="M21,49a.4.4,0,0,1-.12-.29V38.08a.43.43,0,0,1,.12-.31.37.37,0,0,1,.29-.12H29a.41.41,0,0,1,.3.12.44.44,0,0,1,.13.31V39.7a.38.38,0,0,1-.13.29.41.41,0,0,1-.3.12H23.86v2.08h4.82a.41.41,0,0,1,.42.42V44.1a.41.41,0,0,1-.12.3.38.38,0,0,1-.3.13H23.86v2.13h5.31a.41.41,0,0,1,.3.12.38.38,0,0,1,.13.3V48.7a.38.38,0,0,1-.13.3.44.44,0,0,1-.3.11H21.31A.42.42,0,0,1,21,49Z"/><path class="cls-4" d="M36.89,52.11a.39.39,0,0,1-.12-.3V48.2a2.74,2.74,0,0,1-2.36,1.08,3.18,3.18,0,0,1-2.5-1,4.23,4.23,0,0,1-1-2.78V44.25a4.32,4.32,0,0,1,1-2.83,3.23,3.23,0,0,1,2.51-1,3.26,3.26,0,0,1,1.48.32,2.79,2.79,0,0,1,1,.85V41a.38.38,0,0,1,.13-.3.44.44,0,0,1,.3-.11h2a.42.42,0,0,1,.29.11.41.41,0,0,1,.12.3v10.8a.39.39,0,0,1-.12.3.38.38,0,0,1-.29.11H37.19A.4.4,0,0,1,36.89,52.11Zm-.51-5.53a1.69,1.69,0,0,0,.39-1c0-.29,0-.49,0-.61s0-.34,0-.62a2,2,0,0,0-.37-1.15,1.26,1.26,0,0,0-1.06-.44,1.17,1.17,0,0,0-1,.43,2.25,2.25,0,0,0-.36,1.21c0,.11,0,.28,0,.5s0,.4,0,.51a2.25,2.25,0,0,0,.36,1.21,1.17,1.17,0,0,0,1,.43A1.27,1.27,0,0,0,36.38,46.58Z"/><path class="cls-4" d="M42.39,48.31a3.9,3.9,0,0,1-.89-2.73V41a.41.41,0,0,1,.12-.3.46.46,0,0,1,.29-.11h2.18a.44.44,0,0,1,.3.11.41.41,0,0,1,.12.3v4.47c0,1,.46,1.52,1.36,1.52a1.33,1.33,0,0,0,1-.4,1.62,1.62,0,0,0,.37-1.12V41a.41.41,0,0,1,.12-.3.44.44,0,0,1,.3-.11h2.16a.38.38,0,0,1,.41.41V48.7a.44.44,0,0,1-.11.29.41.41,0,0,1-.3.12h-2a.44.44,0,0,1-.3-.11.41.41,0,0,1-.12-.3v-.62a3.11,3.11,0,0,1-2.72,1.2A3,3,0,0,1,42.39,48.31Z"/><path class="cls-4" d="M52.24,39.3a.49.49,0,0,1-.11-.31V37.47a.43.43,0,0,1,.41-.43h2a.44.44,0,0,1,.31.13.41.41,0,0,1,.12.3V39a.45.45,0,0,1-.12.31.43.43,0,0,1-.31.12h-2A.41.41,0,0,1,52.24,39.3Zm0,9.69a.4.4,0,0,1-.12-.29V41a.41.41,0,0,1,.12-.3.44.44,0,0,1,.29-.11h2a.47.47,0,0,1,.31.11A.41.41,0,0,1,55,41V48.7a.41.41,0,0,1-.12.3.47.47,0,0,1-.31.11h-2A.4.4,0,0,1,52.25,49Z"/><path class="cls-4" d="M57.88,45.85v-3h-1.3a.38.38,0,0,1-.28-.12.37.37,0,0,1-.13-.28V41a.38.38,0,0,1,.13-.3.41.41,0,0,1,.28-.11h1.3V37.9a.41.41,0,0,1,.12-.3.39.39,0,0,1,.29-.11h2a.36.36,0,0,1,.29.11.41.41,0,0,1,.12.3v2.7h2a.44.44,0,0,1,.3.11.41.41,0,0,1,.12.3v1.41a.38.38,0,0,1-.12.29.4.4,0,0,1-.3.11h-2v2.79a1.51,1.51,0,0,0,.21.87.8.8,0,0,0,.69.29H62.9a.41.41,0,0,1,.3.12.49.49,0,0,1,.11.31v1.5a.44.44,0,0,1-.11.29.41.41,0,0,1-.3.12H61.35C59,49.11,57.88,48,57.88,45.85Z"/><path class="cls-4" d="M66,52.13a.33.33,0,0,1-.1-.25.66.66,0,0,1,0-.21l1.3-3.08-3.15-7.44A.62.62,0,0,1,64,41a.54.54,0,0,1,.14-.27.35.35,0,0,1,.26-.1h1.94a.48.48,0,0,1,.48.34l1.82,4.65,1.86-4.65A.53.53,0,0,1,71,40.6H73a.33.33,0,0,1,.25.1.34.34,0,0,1,.11.24.46.46,0,0,1,0,.21L68.65,51.88a.53.53,0,0,1-.51.34h-1.9A.32.32,0,0,1,66,52.13Z"/><path class="cls-4" d="M77.81,49a.4.4,0,0,1-.12-.29V38.08a.47.47,0,0,1,.11-.31.41.41,0,0,1,.3-.12h7.61a.45.45,0,0,1,.31.12.43.43,0,0,1,.12.31v1.73a.41.41,0,0,1-.12.3.49.49,0,0,1-.31.11h-5V42.5h4.69a.41.41,0,0,1,.42.42v1.74a.37.37,0,0,1-.12.29.41.41,0,0,1-.3.12H80.7V48.7a.44.44,0,0,1-.11.29.41.41,0,0,1-.3.12H78.1A.4.4,0,0,1,77.81,49Z"/><path class="cls-4" d="M88.41,48.31a4,4,0,0,1-.88-2.73V41a.41.41,0,0,1,.12-.3.44.44,0,0,1,.29-.11h2.18a.44.44,0,0,1,.3.11.41.41,0,0,1,.12.3v4.47c0,1,.46,1.52,1.36,1.52a1.33,1.33,0,0,0,1-.4,1.62,1.62,0,0,0,.36-1.12V41a.42.42,0,0,1,.13-.3.44.44,0,0,1,.3-.11h2.16a.38.38,0,0,1,.41.41V48.7a.44.44,0,0,1-.11.29.41.41,0,0,1-.3.12h-2a.44.44,0,0,1-.3-.11.41.41,0,0,1-.12-.3v-.62a3.11,3.11,0,0,1-2.72,1.2A3,3,0,0,1,88.41,48.31Z"/><path class="cls-4" d="M98.28,49a.4.4,0,0,1-.12-.29V41a.41.41,0,0,1,.12-.3.44.44,0,0,1,.29-.11h2A.38.38,0,0,1,101,41v.62a3.23,3.23,0,0,1,1.14-.87,3.64,3.64,0,0,1,1.59-.33,3.29,3.29,0,0,1,1.67.43,2.86,2.86,0,0,1,1.14,1.26,4.47,4.47,0,0,1,.42,2V48.7a.44.44,0,0,1-.11.29.41.41,0,0,1-.3.12h-2.18a.44.44,0,0,1-.3-.11.41.41,0,0,1-.12-.3V44.23a1.66,1.66,0,0,0-.35-1.13,1.33,1.33,0,0,0-1-.39,1.34,1.34,0,0,0-1,.4,1.58,1.58,0,0,0-.38,1.12V48.7A.39.39,0,0,1,101,49a.41.41,0,0,1-.3.12H98.57A.4.4,0,0,1,98.28,49Z"/><path class="cls-4" d="M109.43,48.28a4.35,4.35,0,0,1-1-2.85l0-.58,0-.58a4.29,4.29,0,0,1,1-2.81,3.48,3.48,0,0,1,4.86-.08V37.9a.38.38,0,0,1,.13-.3.37.37,0,0,1,.28-.11h2.11a.42.42,0,0,1,.31.11.41.41,0,0,1,.12.3V48.7a.41.41,0,0,1-.12.3.47.47,0,0,1-.31.11h-1.94a.41.41,0,0,1-.41-.41v-.5a3.1,3.1,0,0,1-2.54,1.08A3.24,3.24,0,0,1,109.43,48.28Zm4.5-1.73a2,2,0,0,0,.37-1.14c0-.3,0-.51,0-.62s0-.32,0-.61a1.74,1.74,0,0,0-.38-1,1.29,1.29,0,0,0-1-.42,1.24,1.24,0,0,0-1.06.43,2.34,2.34,0,0,0-.37,1.21v1a2.34,2.34,0,0,0,.37,1.21,1.48,1.48,0,0,0,2.11,0Z"/></g></g><g class="cls-5"><path class="cls-4" d="M20.85,68.7a.24.24,0,0,1-.07-.18V61.17a.26.26,0,0,1,.07-.2A.21.21,0,0,1,21,60.9h2.84a3,3,0,0,1,2,.61,2.21,2.21,0,0,1,.73,1.78,2.19,2.19,0,0,1-.73,1.78,3,3,0,0,1-2,.61h-2v2.84a.27.27,0,0,1-.26.26H21A.22.22,0,0,1,20.85,68.7Zm3-3.93c1.13,0,1.7-.49,1.7-1.48a1.42,1.42,0,0,0-.42-1.1,1.9,1.9,0,0,0-1.28-.38h-2v3Z"/><path class="cls-4" d="M28.23,68.19a2.76,2.76,0,0,1-.71-1.86v-1a2.66,2.66,0,0,1,.73-1.86,2.49,2.49,0,0,1,1.89-.7,2.51,2.51,0,0,1,1.9.7,2.71,2.71,0,0,1,.73,1.86c0,.16,0,.32,0,.48s0,.32,0,.48a2.72,2.72,0,0,1-.72,1.86,2.51,2.51,0,0,1-1.91.7A2.52,2.52,0,0,1,28.23,68.19Zm3.06-.6a2,2,0,0,0,.45-1.31c0-.08,0-.22,0-.43s0-.35,0-.43a2,2,0,0,0-.45-1.31,1.53,1.53,0,0,0-1.15-.46,1.49,1.49,0,0,0-1.14.46,2,2,0,0,0-.46,1.31v.86A2,2,0,0,0,29,67.59a1.48,1.48,0,0,0,1.14.45A1.52,1.52,0,0,0,31.29,67.59Z"/><path class="cls-4" d="M35.37,68.71a.43.43,0,0,1-.13-.22l-1.6-5.22,0-.11a.22.22,0,0,1,.07-.17.21.21,0,0,1,.17-.07h.46a.26.26,0,0,1,.18.06.29.29,0,0,1,.09.12l1.27,4.3,1.35-4.24a.34.34,0,0,1,.1-.16.31.31,0,0,1,.22-.08h.36a.29.29,0,0,1,.21.08.27.27,0,0,1,.1.16l1.35,4.24,1.27-4.3a.29.29,0,0,1,.09-.12.28.28,0,0,1,.18-.06h.47a.2.2,0,0,1,.16.07.22.22,0,0,1,.07.17l0,.11-1.6,5.22a.51.51,0,0,1-.12.22.4.4,0,0,1-.24.07h-.4a.38.38,0,0,1-.39-.29l-1.31-4.07-1.32,4.07a.37.37,0,0,1-.38.29H35.6A.37.37,0,0,1,35.37,68.71Z"/><path class="cls-4" d="M43.38,68.17a2.88,2.88,0,0,1-.75-2l0-.38,0-.37a2.91,2.91,0,0,1,.75-1.94,2.42,2.42,0,0,1,1.83-.72,2.38,2.38,0,0,1,1.92.79,3.12,3.12,0,0,1,.68,2.14v.2a.23.23,0,0,1-.07.18.25.25,0,0,1-.18.08H43.65v.1a2.07,2.07,0,0,0,.45,1.25,1.36,1.36,0,0,0,1.1.52,1.56,1.56,0,0,0,.86-.21,1.69,1.69,0,0,0,.5-.44.58.58,0,0,1,.16-.16.44.44,0,0,1,.19,0h.5a.25.25,0,0,1,.17.06.19.19,0,0,1,.08.15,1,1,0,0,1-.31.59,2.27,2.27,0,0,1-.86.6,3,3,0,0,1-1.28.26A2.42,2.42,0,0,1,43.38,68.17Zm3.41-2.74v0a1.85,1.85,0,0,0-.43-1.28,1.44,1.44,0,0,0-1.15-.5,1.41,1.41,0,0,0-1.14.5,1.9,1.9,0,0,0-.42,1.28v0Z"/><path class="cls-4" d="M49.26,68.7a.24.24,0,0,1-.07-.18V63.19a.26.26,0,0,1,.07-.19.26.26,0,0,1,.19-.08h.47a.28.28,0,0,1,.2.08.27.27,0,0,1,.07.19v.5a1.68,1.68,0,0,1,1.56-.77h.44a.24.24,0,0,1,.19.07.25.25,0,0,1,.07.19v.42a.26.26,0,0,1-.26.26h-.64a1.29,1.29,0,0,0-1,.36,1.31,1.31,0,0,0-.36,1v3.32a.22.22,0,0,1-.08.18.26.26,0,0,1-.19.08h-.5A.26.26,0,0,1,49.26,68.7Z"/><path class="cls-4" d="M56.4,68.19a2.72,2.72,0,0,1-.72-1.86v-1a2.66,2.66,0,0,1,.73-1.86,2.92,2.92,0,0,1,3.79,0,2.71,2.71,0,0,1,.73,1.86c0,.16,0,.32,0,.48s0,.32,0,.48a2.72,2.72,0,0,1-.72,1.86,2.94,2.94,0,0,1-3.81,0Zm3.05-.6a2,2,0,0,0,.45-1.31c0-.08,0-.22,0-.43s0-.35,0-.43a2,2,0,0,0-.45-1.31,1.53,1.53,0,0,0-1.15-.46,1.49,1.49,0,0,0-1.14.46,2,2,0,0,0-.45,1.31l0,.43,0,.43a2,2,0,0,0,.45,1.31A1.48,1.48,0,0,0,58.3,68,1.52,1.52,0,0,0,59.45,67.59Z"/><path class="cls-4" d="M63,68.7a.24.24,0,0,1-.07-.18V63.79h-1a.25.25,0,0,1-.19-.07.21.21,0,0,1-.07-.18v-.36a.23.23,0,0,1,.07-.18.26.26,0,0,1,.19-.08h1v-.56A2,2,0,0,1,63.33,61a1.84,1.84,0,0,1,1.46-.5h.66a.25.25,0,0,1,.19.07.29.29,0,0,1,.07.18v.37a.23.23,0,0,1-.26.24h-.64a.83.83,0,0,0-.72.27,1.37,1.37,0,0,0-.2.84v.5h1.45a.25.25,0,0,1,.18.08.23.23,0,0,1,.08.18v.36a.22.22,0,0,1-.08.18.24.24,0,0,1-.18.07H63.89v4.73a.27.27,0,0,1-.26.26h-.49A.25.25,0,0,1,63,68.7Z"/><path class="cls-4" d="M69.56,68.7a.29.29,0,0,1-.07-.18V63.79h-1a.24.24,0,0,1-.18-.07.21.21,0,0,1-.07-.18v-.36a.23.23,0,0,1,.07-.18.25.25,0,0,1,.18-.08h1v-.56A2,2,0,0,1,69.94,61a1.82,1.82,0,0,1,1.45-.5h.67a.24.24,0,0,1,.18.07.25.25,0,0,1,.08.18v.37a.25.25,0,0,1-.08.18.28.28,0,0,1-.18.06h-.64a.83.83,0,0,0-.72.27,1.37,1.37,0,0,0-.21.84v.5H72a.25.25,0,0,1,.18.08.23.23,0,0,1,.07.18v.36a.21.21,0,0,1-.07.18.24.24,0,0,1-.18.07H70.49v4.73a.24.24,0,0,1-.07.18.26.26,0,0,1-.19.08h-.48A.27.27,0,0,1,69.56,68.7Z"/><path class="cls-4" d="M73.56,68.19a2.71,2.71,0,0,1-.71-1.86l0-.48,0-.48a2.7,2.7,0,0,1,.72-1.86,2.92,2.92,0,0,1,3.79,0,2.66,2.66,0,0,1,.73,1.86c0,.16,0,.32,0,.48s0,.32,0,.48a2.76,2.76,0,0,1-.71,1.86,3,3,0,0,1-3.82,0Zm3-.6a2,2,0,0,0,.46-1.31c0-.08,0-.22,0-.43s0-.35,0-.43a2,2,0,0,0-.46-1.31,1.64,1.64,0,0,0-2.28,0,1.92,1.92,0,0,0-.46,1.31v.86a1.94,1.94,0,0,0,.46,1.31,1.67,1.67,0,0,0,2.28,0Z"/><path class="cls-4" d="M80,68.21a2.75,2.75,0,0,1-.71-1.91v-.9A2.73,2.73,0,0,1,80,63.49a2.55,2.55,0,0,1,1.88-.68,3,3,0,0,1,1.37.29,2.1,2.1,0,0,1,.83.71,1.66,1.66,0,0,1,.3.86.22.22,0,0,1-.07.18.29.29,0,0,1-.19.08h-.49a.26.26,0,0,1-.17-.05.48.48,0,0,1-.11-.19,1.49,1.49,0,0,0-.56-.78,1.59,1.59,0,0,0-.9-.23,1.45,1.45,0,0,0-1.12.44,2,2,0,0,0-.45,1.34v.78a2,2,0,0,0,.45,1.34,1.45,1.45,0,0,0,1.12.44,1.62,1.62,0,0,0,.9-.23,1.49,1.49,0,0,0,.56-.78.48.48,0,0,1,.11-.19.26.26,0,0,1,.17,0h.49a.29.29,0,0,1,.19.08.21.21,0,0,1,.07.18,1.65,1.65,0,0,1-.3.85,2.2,2.2,0,0,1-.83.72,3,3,0,0,1-1.37.29A2.55,2.55,0,0,1,80,68.21Z"/><path class="cls-4" d="M86.25,68.2a2.78,2.78,0,0,1-.58-1.84V63.18a.23.23,0,0,1,.07-.18.25.25,0,0,1,.18-.08h.52a.26.26,0,0,1,.19.08.23.23,0,0,1,.07.18V66.3c0,1.14.5,1.71,1.49,1.71a1.46,1.46,0,0,0,1.14-.46,1.77,1.77,0,0,0,.42-1.25V63.18a.23.23,0,0,1,.07-.18.26.26,0,0,1,.19-.08h.52a.25.25,0,0,1,.18.08.23.23,0,0,1,.08.18v5.34a.27.27,0,0,1-.26.26H90a.27.27,0,0,1-.26-.26V68a2.16,2.16,0,0,1-.76.66,2.59,2.59,0,0,1-1.12.22A2,2,0,0,1,86.25,68.2Z"/><path class="cls-4" d="M93.17,68.63a2.12,2.12,0,0,1-.8-.58.94.94,0,0,1-.26-.54.21.21,0,0,1,.08-.17.29.29,0,0,1,.17-.06h.47l.11,0,.11.1a2,2,0,0,0,.58.5,1.75,1.75,0,0,0,.86.18,1.83,1.83,0,0,0,1-.23.7.7,0,0,0,.37-.65.61.61,0,0,0-.16-.45,1.37,1.37,0,0,0-.52-.3,10,10,0,0,0-1.09-.3,2.78,2.78,0,0,1-1.38-.62,1.4,1.4,0,0,1-.41-1,1.45,1.45,0,0,1,.25-.81,1.72,1.72,0,0,1,.74-.63,2.58,2.58,0,0,1,1.16-.24,2.78,2.78,0,0,1,1.21.24,2,2,0,0,1,.76.55.89.89,0,0,1,.25.53.28.28,0,0,1-.07.17.28.28,0,0,1-.18.06H96a.23.23,0,0,1-.22-.12l-.32-.33A1.12,1.12,0,0,0,95,63.7a2.12,2.12,0,0,0-.62-.08,1.33,1.33,0,0,0-.84.23.72.72,0,0,0-.29.61.65.65,0,0,0,.12.4,1.15,1.15,0,0,0,.47.31,7.28,7.28,0,0,0,1,.29,3.19,3.19,0,0,1,1.51.64,1.37,1.37,0,0,1,.45,1.07,1.5,1.5,0,0,1-.28.87,1.76,1.76,0,0,1-.82.62,3.43,3.43,0,0,1-1.3.23A3,3,0,0,1,93.17,68.63Z"/><path class="cls-4" d="M98.68,68.17a2.93,2.93,0,0,1-.76-2v-.75a3,3,0,0,1,.76-1.94,2.4,2.4,0,0,1,1.83-.72,2.38,2.38,0,0,1,1.92.79,3.18,3.18,0,0,1,.68,2.14v.2a.23.23,0,0,1-.07.18.26.26,0,0,1-.19.08H99v.1a2.07,2.07,0,0,0,.45,1.25,1.34,1.34,0,0,0,1.1.52,1.59,1.59,0,0,0,.86-.21,1.69,1.69,0,0,0,.5-.44.58.58,0,0,1,.16-.16.44.44,0,0,1,.19,0h.5a.27.27,0,0,1,.17.06.18.18,0,0,1,.07.15,1,1,0,0,1-.3.59,2.27,2.27,0,0,1-.86.6,3,3,0,0,1-1.28.26A2.4,2.4,0,0,1,98.68,68.17Zm3.41-2.74v0a1.9,1.9,0,0,0-.43-1.28,1.46,1.46,0,0,0-1.15-.5,1.43,1.43,0,0,0-1.15.5A2,2,0,0,0,99,65.4v0Z"/><path class="cls-4" d="M104.85,68.12a3.3,3.3,0,0,1-.64-1.93v-.68a3.26,3.26,0,0,1,.65-1.93,2.08,2.08,0,0,1,1.76-.77,2.22,2.22,0,0,1,1.83.83V61a.24.24,0,0,1,.07-.18.25.25,0,0,1,.18-.08h.51a.26.26,0,0,1,.19.08.24.24,0,0,1,.07.18v7.48a.24.24,0,0,1-.07.18.26.26,0,0,1-.19.08h-.48a.22.22,0,0,1-.18-.08.24.24,0,0,1-.07-.18V68a2.19,2.19,0,0,1-1.86.86A2.09,2.09,0,0,1,104.85,68.12Zm3.17-.63a2.29,2.29,0,0,0,.43-1.25c0-.08,0-.22,0-.42s0-.36,0-.44a1.91,1.91,0,0,0-.44-1.19,1.64,1.64,0,0,0-2.36,0,2.41,2.41,0,0,0-.4,1.33v.33c0,1.44.53,2.16,1.6,2.16A1.38,1.38,0,0,0,108,67.49Z"/><path class="cls-4" d="M114.54,68.66a1.86,1.86,0,0,1-.74-.61,1.43,1.43,0,0,1-.28-.86,1.47,1.47,0,0,1,.61-1.22,3.66,3.66,0,0,1,1.65-.63l1.69-.23v-.33c0-.77-.44-1.16-1.34-1.16a1.48,1.48,0,0,0-.83.21,1.33,1.33,0,0,0-.46.49.36.36,0,0,1-.1.15.2.2,0,0,1-.14,0h-.44a.23.23,0,0,1-.17-.07.24.24,0,0,1-.07-.18,1.11,1.11,0,0,1,.24-.6,2,2,0,0,1,.75-.6,2.7,2.7,0,0,1,1.23-.25,2.35,2.35,0,0,1,1.81.59,2.07,2.07,0,0,1,.55,1.46v3.66a.25.25,0,0,1-.08.18.23.23,0,0,1-.18.08h-.5a.25.25,0,0,1-.18-.08.28.28,0,0,1-.06-.18V68a1.87,1.87,0,0,1-.73.62,2.53,2.53,0,0,1-1.21.25A2.31,2.31,0,0,1,114.54,68.66ZM117,67.58a1.94,1.94,0,0,0,.47-1.4v-.32l-1.31.19a3.19,3.19,0,0,0-1.23.38.8.8,0,0,0-.42.68.81.81,0,0,0,.38.71,1.74,1.74,0,0,0,2.11-.24Z"/><path class="cls-4" d="M120.21,70.85a.25.25,0,0,1-.07-.19V63.18a.24.24,0,0,1,.26-.26h.47a.24.24,0,0,1,.19.07.25.25,0,0,1,.07.19v.5a2.19,2.19,0,0,1,1.86-.87,2.11,2.11,0,0,1,1.77.75,3.21,3.21,0,0,1,.63,1.91c0,.08,0,.21,0,.38s0,.3,0,.38a3.2,3.2,0,0,1-.63,1.9,2.08,2.08,0,0,1-1.77.76,2.12,2.12,0,0,1-1.83-.86v2.63a.24.24,0,0,1-.25.25h-.51A.29.29,0,0,1,120.21,70.85ZM124,67.5a2.37,2.37,0,0,0,.4-1.32,3,3,0,0,0,0-.33c0-1.44-.53-2.16-1.6-2.16a1.38,1.38,0,0,0-1.18.52,2.1,2.1,0,0,0-.43,1.23c0,.09,0,.23,0,.44s0,.36,0,.44a1.91,1.91,0,0,0,.44,1.19,1.43,1.43,0,0,0,1.17.5A1.38,1.38,0,0,0,124,67.5Z"/><path class="cls-4" d="M126.9,70.85a.25.25,0,0,1-.07-.19V63.18a.25.25,0,0,1,.07-.19.24.24,0,0,1,.18-.07h.48a.25.25,0,0,1,.19.07.29.29,0,0,1,.07.19v.5a2.17,2.17,0,0,1,1.85-.87,2.14,2.14,0,0,1,1.78.75,3.14,3.14,0,0,1,.62,1.91,7.23,7.23,0,0,1,0,.76,3.13,3.13,0,0,1-.62,1.9,2.41,2.41,0,0,1-3.6-.1v2.63a.24.24,0,0,1-.07.18.25.25,0,0,1-.19.07h-.51A.28.28,0,0,1,126.9,70.85Zm3.74-3.35a2.38,2.38,0,0,0,.41-1.32c0-.08,0-.19,0-.33,0-1.44-.54-2.16-1.6-2.16a1.4,1.4,0,0,0-1.19.52,2.1,2.1,0,0,0-.42,1.23c0,.09,0,.23,0,.44s0,.36,0,.44a1.9,1.9,0,0,0,.43,1.19,1.46,1.46,0,0,0,1.18.5A1.36,1.36,0,0,0,130.64,67.5Z"/><path class="cls-4" d="M133.57,68.7a.24.24,0,0,1-.07-.18V63.19a.26.26,0,0,1,.07-.19.26.26,0,0,1,.19-.08h.47a.28.28,0,0,1,.2.08.24.24,0,0,1,.07.19v.5a1.69,1.69,0,0,1,1.57-.77h.44a.25.25,0,0,1,.19.07.29.29,0,0,1,.06.19v.42a.28.28,0,0,1-.06.18.26.26,0,0,1-.19.08h-.65a1.23,1.23,0,0,0-1.32,1.34v3.32a.25.25,0,0,1-.08.18.29.29,0,0,1-.19.08h-.51A.26.26,0,0,1,133.57,68.7Z"/><path class="cls-4" d="M138.09,68.19a2.72,2.72,0,0,1-.72-1.86v-1a2.66,2.66,0,0,1,.73-1.86,2.92,2.92,0,0,1,3.79,0,2.66,2.66,0,0,1,.73,1.86c0,.16,0,.32,0,.48s0,.32,0,.48a2.72,2.72,0,0,1-.72,1.86,2.94,2.94,0,0,1-3.81,0Zm3-.6a2,2,0,0,0,.45-1.31c0-.08,0-.22,0-.43s0-.35,0-.43a2,2,0,0,0-.45-1.31,1.51,1.51,0,0,0-1.15-.46,1.49,1.49,0,0,0-1.14.46,2,2,0,0,0-.45,1.31v.86a2,2,0,0,0,.45,1.31A1.48,1.48,0,0,0,140,68,1.51,1.51,0,0,0,141.14,67.59Z"/><path class="cls-4" d="M144.66,68.66a1.86,1.86,0,0,1-.74-.61,1.43,1.43,0,0,1-.28-.86,1.47,1.47,0,0,1,.61-1.22,3.61,3.61,0,0,1,1.65-.63l1.69-.23v-.33c0-.77-.45-1.16-1.34-1.16a1.48,1.48,0,0,0-.83.21,1.33,1.33,0,0,0-.46.49.36.36,0,0,1-.1.15.2.2,0,0,1-.14,0h-.44a.23.23,0,0,1-.17-.07.25.25,0,0,1-.08-.18,1.13,1.13,0,0,1,.25-.6,2,2,0,0,1,.75-.6,2.7,2.7,0,0,1,1.23-.25,2.35,2.35,0,0,1,1.81.59,2.07,2.07,0,0,1,.55,1.46v3.66a.27.27,0,0,1-.26.26h-.5a.25.25,0,0,1-.18-.08.29.29,0,0,1-.07-.18V68a1.77,1.77,0,0,1-.72.62,2.53,2.53,0,0,1-1.21.25A2.31,2.31,0,0,1,144.66,68.66Zm2.46-1.08a1.94,1.94,0,0,0,.47-1.4v-.32l-1.32.19a3.13,3.13,0,0,0-1.22.38.8.8,0,0,0-.42.68.81.81,0,0,0,.38.71,1.74,1.74,0,0,0,2.11-.24Z"/><path class="cls-4" d="M150.71,68.21A2.71,2.71,0,0,1,150,66.3v-.9a2.69,2.69,0,0,1,.71-1.91,2.55,2.55,0,0,1,1.88-.68,3,3,0,0,1,1.37.29,2.1,2.1,0,0,1,.83.71,1.86,1.86,0,0,1,.3.86.22.22,0,0,1-.07.18.29.29,0,0,1-.19.08h-.5a.29.29,0,0,1-.17-.05,1,1,0,0,1-.11-.19,1.48,1.48,0,0,0-.55-.78,1.59,1.59,0,0,0-.9-.23,1.47,1.47,0,0,0-1.13.44,2.06,2.06,0,0,0-.45,1.34v.78a2.08,2.08,0,0,0,.45,1.34,1.47,1.47,0,0,0,1.13.44,1.62,1.62,0,0,0,.9-.23,1.48,1.48,0,0,0,.55-.78,1,1,0,0,1,.11-.19.29.29,0,0,1,.17,0h.5a.29.29,0,0,1,.19.08.21.21,0,0,1,.07.18,1.86,1.86,0,0,1-.3.85,2.2,2.2,0,0,1-.83.72,3,3,0,0,1-1.37.29A2.55,2.55,0,0,1,150.71,68.21Z"/><path class="cls-4" d="M156.52,68.7a.24.24,0,0,1-.07-.18V61a.25.25,0,0,1,.07-.19.29.29,0,0,1,.19-.07h.52a.29.29,0,0,1,.19.07.29.29,0,0,1,.06.19v2.63a2.27,2.27,0,0,1,.78-.64,2.38,2.38,0,0,1,1.09-.22,2.14,2.14,0,0,1,1.69.69,2.69,2.69,0,0,1,.6,1.83v3.19a.25.25,0,0,1-.08.18.23.23,0,0,1-.18.08h-.53a.27.27,0,0,1-.19-.08.29.29,0,0,1-.07-.18V65.4a1.86,1.86,0,0,0-.39-1.26,1.44,1.44,0,0,0-1.14-.45,1.52,1.52,0,0,0-1.15.45,1.81,1.81,0,0,0-.43,1.26v3.12a.24.24,0,0,1-.07.18.25.25,0,0,1-.18.08h-.52A.26.26,0,0,1,156.52,68.7Z"/></g><rect class="cls-4" x="25.09" y="86.12" width="69.45" height="15.39"/><path class="cls-6" d="M79.35,92a1.7,1.7,0,0,0-.26-.91,1,1,0,0,0-1.47,0,1.54,1.54,0,0,0-.26.91c0,.11,0,.26,0,.45s0,.34,0,.45a1.59,1.59,0,0,0,.26.91,1.05,1.05,0,0,0,1.47,0,1.64,1.64,0,0,0,.26-.91"/><path class="cls-6" d="M96.14,80.58H23.84a4,4,0,0,0-4.05,4v14.8a4,4,0,0,0,4.05,4H96.15a4,4,0,0,0,4-4V84.63A4.06,4.06,0,0,0,96.14,80.58ZM32.06,95.05a.32.32,0,0,1-.08.2.28.28,0,0,1-.21.08H30.26a.28.28,0,0,1-.2-.08.3.3,0,0,1-.08-.2v-7.3a.27.27,0,0,1,.28-.28h1.51a.32.32,0,0,1,.21.08.24.24,0,0,1,.08.2Zm7.39,0a.32.32,0,0,1-.08.2.24.24,0,0,1-.2.08H37.75a.32.32,0,0,1-.2-.08.26.26,0,0,1-.08-.2V92a1.17,1.17,0,0,0-.25-.81,1,1,0,0,0-.75-.29,1,1,0,0,0-.74.29,1.14,1.14,0,0,0-.28.81v3.07a.28.28,0,0,1-.09.2.26.26,0,0,1-.2.08h-1.4a.28.28,0,0,1-.2-.08.3.3,0,0,1-.08-.2V89.77a.27.27,0,0,1,.28-.28h1.29a.32.32,0,0,1,.21.08.24.24,0,0,1,.08.2v.43a2.21,2.21,0,0,1,.75-.58,2.56,2.56,0,0,1,1.11-.24,2.28,2.28,0,0,1,1.15.29,2,2,0,0,1,.79.85,3,3,0,0,1,.29,1.39v3.14Zm6.88-5.22L44.21,95a.63.63,0,0,1-.13.2.34.34,0,0,1-.26.08H42.63a.36.36,0,0,1-.25-.08.69.69,0,0,1-.13-.2l-2.12-5.21a.3.3,0,0,1,0-.1.24.24,0,0,1,.25-.25h1.27a.29.29,0,0,1,.22.08.35.35,0,0,1,.1.16l1.27,3.45,1.28-3.45a.41.41,0,0,1,.1-.16.31.31,0,0,1,.22-.08h1.27a.29.29,0,0,1,.18.07.25.25,0,0,1,.08.18A.3.3,0,0,1,46.33,89.83Zm6.29,2.81a.27.27,0,0,1-.28.28h-3.6V93a1.88,1.88,0,0,0,.12.6,1.06,1.06,0,0,0,.31.43.86.86,0,0,0,.51.16,1,1,0,0,0,.38-.07,1,1,0,0,0,.25-.17l.16-.16a.66.66,0,0,1,.16-.15.49.49,0,0,1,.2,0h1.39a.23.23,0,0,1,.18.07.19.19,0,0,1,.06.18,1,1,0,0,1-.19.46,2.15,2.15,0,0,1-.52.53,2.77,2.77,0,0,1-.86.43,4,4,0,0,1-1.2.17,3,3,0,0,1-2.11-.72,2.85,2.85,0,0,1-.82-2.13V92.2a3.26,3.26,0,0,1,.4-1.52,2.42,2.42,0,0,1,1-1,3.26,3.26,0,0,1,1.51-.33,3.1,3.1,0,0,1,1.63.39,2.45,2.45,0,0,1,1,1.07,3.45,3.45,0,0,1,.33,1.54v.26Zm5.94,1.92a2.12,2.12,0,0,1-1,.65,4.56,4.56,0,0,1-1.53.23,4.06,4.06,0,0,1-1.24-.16,2.79,2.79,0,0,1-.83-.4,2,2,0,0,1-.48-.49,1,1,0,0,1-.17-.44.22.22,0,0,1,.08-.2.29.29,0,0,1,.19-.08H55a.13.13,0,0,1,.06,0,1.68,1.68,0,0,1,.29.2,1.63,1.63,0,0,0,.34.21,1.08,1.08,0,0,0,.46.09,1,1,0,0,0,.53-.13.39.39,0,0,0,.21-.36.44.44,0,0,0-.1-.3.94.94,0,0,0-.41-.23,6.14,6.14,0,0,0-.93-.22,4.86,4.86,0,0,1-1-.35,1.65,1.65,0,0,1-.67-.57,1.5,1.5,0,0,1-.24-.86,1.54,1.54,0,0,1,.29-.87,2.1,2.1,0,0,1,.85-.68A3.2,3.2,0,0,1,56,89.4a3.75,3.75,0,0,1,1.12.15,2.78,2.78,0,0,1,.81.39,2,2,0,0,1,.49.48.93.93,0,0,1,.18.45.23.23,0,0,1-.07.2.22.22,0,0,1-.18.08H57.2l-.09,0a.2.2,0,0,1-.08,0,2.11,2.11,0,0,1-.27-.18,2,2,0,0,0-.32-.2,1,1,0,0,0-.45-.09.73.73,0,0,0-.47.13.44.44,0,0,0-.17.35.39.39,0,0,0,.1.27.77.77,0,0,0,.39.22,7.23,7.23,0,0,0,.93.22,3.54,3.54,0,0,1,1.24.4,1.7,1.7,0,0,1,.66.64,1.64,1.64,0,0,1,.2.77A1.34,1.34,0,0,1,58.56,94.56Zm5.62.49a.32.32,0,0,1-.08.2.24.24,0,0,1-.2.08h-1a3.12,3.12,0,0,1-1.24-.23,1.61,1.61,0,0,1-.8-.72,2.5,2.5,0,0,1-.28-1.26V91h-.88a.32.32,0,0,1-.21-.08.24.24,0,0,1-.08-.2v-.91a.28.28,0,0,1,.08-.2.32.32,0,0,1,.21-.08h.88V87.64a.28.28,0,0,1,.08-.2.3.3,0,0,1,.2-.08h1.3a.27.27,0,0,1,.28.28v1.85h1.4a.32.32,0,0,1,.21.08.25.25,0,0,1,.09.2v.91a.25.25,0,0,1-.09.2.32.32,0,0,1-.21.08h-1.4v2a1.1,1.1,0,0,0,.15.61.54.54,0,0,0,.49.22h.87a.27.27,0,0,1,.28.28Zm10,0a.32.32,0,0,1-.08.21.24.24,0,0,1-.2.08h-1.2a.33.33,0,0,1-.26-.09l-.11-.12L69.55,91v4.09a.32.32,0,0,1-.08.2.24.24,0,0,1-.2.08H67.92a.27.27,0,0,1-.28-.28v-7.3a.27.27,0,0,1,.28-.28h1.19a.38.38,0,0,1,.28.09.53.53,0,0,1,.11.13L72.24,92V87.75a.27.27,0,0,1,.28-.28h1.35a.27.27,0,0,1,.28.28V95Zm7.19-2.13a2.93,2.93,0,0,1-.39,1.36,2.22,2.22,0,0,1-1,.87,4.39,4.39,0,0,1-3.19,0,2.22,2.22,0,0,1-1-.87,2.89,2.89,0,0,1-.39-1.36c0-.15,0-.32,0-.51s0-.36,0-.5a2.79,2.79,0,0,1,.4-1.36,2.39,2.39,0,0,1,1-.87,3.68,3.68,0,0,1,1.56-.3,3.73,3.73,0,0,1,1.57.3,2.32,2.32,0,0,1,1,.87,2.76,2.76,0,0,1,.4,1.36c0,.14,0,.31,0,.5S81.34,92.76,81.33,92.91Zm9.4-3.07L89.11,95a.47.47,0,0,1-.12.2.33.33,0,0,1-.25.08h-1a.37.37,0,0,1-.25-.08.41.41,0,0,1-.12-.2l-1-3.08L85.3,95a.47.47,0,0,1-.12.2.33.33,0,0,1-.25.08h-1a.37.37,0,0,1-.25-.08.67.67,0,0,1-.12-.2l-1.62-5.2a.43.43,0,0,1,0-.11.25.25,0,0,1,.08-.18.24.24,0,0,1,.18-.07h1.16a.34.34,0,0,1,.23.08.38.38,0,0,1,.11.16l.94,3.22,1-3.2a.38.38,0,0,1,.11-.16A.36.36,0,0,1,86,89.5h.74a.37.37,0,0,1,.25.08.32.32,0,0,1,.1.16l1,3.2L89,89.72a.46.46,0,0,1,.11-.16.34.34,0,0,1,.23-.08H90.5a.29.29,0,0,1,.18.07.25.25,0,0,1,.08.18A.2.2,0,0,1,90.73,89.84Z"/><path class="cls-6" d="M96.14,80.58H23.84a4,4,0,0,0-4.05,4v14.8a4,4,0,0,0,4.05,4H96.15a4,4,0,0,0,4-4V84.63A4.06,4.06,0,0,0,96.14,80.58ZM32.06,95.05a.32.32,0,0,1-.08.2.28.28,0,0,1-.21.08H30.26a.28.28,0,0,1-.2-.08.3.3,0,0,1-.08-.2v-7.3a.27.27,0,0,1,.28-.28h1.51a.32.32,0,0,1,.21.08.24.24,0,0,1,.08.2Zm7.39,0a.32.32,0,0,1-.08.2.24.24,0,0,1-.2.08H37.75a.32.32,0,0,1-.2-.08.26.26,0,0,1-.08-.2V92a1.17,1.17,0,0,0-.25-.81,1,1,0,0,0-.75-.29,1,1,0,0,0-.74.29,1.14,1.14,0,0,0-.28.81v3.07a.28.28,0,0,1-.09.2.26.26,0,0,1-.2.08h-1.4a.28.28,0,0,1-.2-.08.3.3,0,0,1-.08-.2V89.77a.27.27,0,0,1,.28-.28h1.29a.32.32,0,0,1,.21.08.24.24,0,0,1,.08.2v.43a2.21,2.21,0,0,1,.75-.58,2.56,2.56,0,0,1,1.11-.24,2.28,2.28,0,0,1,1.15.29,2,2,0,0,1,.79.85,3,3,0,0,1,.29,1.39v3.14Zm6.88-5.22L44.21,95a.63.63,0,0,1-.13.2.34.34,0,0,1-.26.08H42.63a.36.36,0,0,1-.25-.08.69.69,0,0,1-.13-.2l-2.12-5.21a.3.3,0,0,1,0-.1.24.24,0,0,1,.25-.25h1.27a.29.29,0,0,1,.22.08.35.35,0,0,1,.1.16l1.27,3.45,1.28-3.45a.41.41,0,0,1,.1-.16.31.31,0,0,1,.22-.08h1.27a.29.29,0,0,1,.18.07.25.25,0,0,1,.08.18A.3.3,0,0,1,46.33,89.83Zm6.29,2.81a.27.27,0,0,1-.28.28h-3.6V93a1.88,1.88,0,0,0,.12.6,1.06,1.06,0,0,0,.31.43.86.86,0,0,0,.51.16,1,1,0,0,0,.38-.07,1,1,0,0,0,.25-.17l.16-.16a.66.66,0,0,1,.16-.15.49.49,0,0,1,.2,0h1.39a.23.23,0,0,1,.18.07.19.19,0,0,1,.06.18,1,1,0,0,1-.19.46,2.15,2.15,0,0,1-.52.53,2.77,2.77,0,0,1-.86.43,4,4,0,0,1-1.2.17,3,3,0,0,1-2.11-.72,2.85,2.85,0,0,1-.82-2.13V92.2a3.26,3.26,0,0,1,.4-1.52,2.42,2.42,0,0,1,1-1,3.26,3.26,0,0,1,1.51-.33,3.1,3.1,0,0,1,1.63.39,2.45,2.45,0,0,1,1,1.07,3.45,3.45,0,0,1,.33,1.54v.26Zm5.94,1.92a2.12,2.12,0,0,1-1,.65,4.56,4.56,0,0,1-1.53.23,4.06,4.06,0,0,1-1.24-.16,2.79,2.79,0,0,1-.83-.4,2,2,0,0,1-.48-.49,1,1,0,0,1-.17-.44.22.22,0,0,1,.08-.2.29.29,0,0,1,.19-.08H55a.13.13,0,0,1,.06,0,1.68,1.68,0,0,1,.29.2,1.63,1.63,0,0,0,.34.21,1.08,1.08,0,0,0,.46.09,1,1,0,0,0,.53-.13.39.39,0,0,0,.21-.36.44.44,0,0,0-.1-.3.94.94,0,0,0-.41-.23,6.14,6.14,0,0,0-.93-.22,4.86,4.86,0,0,1-1-.35,1.65,1.65,0,0,1-.67-.57,1.5,1.5,0,0,1-.24-.86,1.54,1.54,0,0,1,.29-.87,2.1,2.1,0,0,1,.85-.68A3.2,3.2,0,0,1,56,89.4a3.75,3.75,0,0,1,1.12.15,2.78,2.78,0,0,1,.81.39,2,2,0,0,1,.49.48.93.93,0,0,1,.18.45.23.23,0,0,1-.07.2.22.22,0,0,1-.18.08H57.2l-.09,0a.2.2,0,0,1-.08,0,2.11,2.11,0,0,1-.27-.18,2,2,0,0,0-.32-.2,1,1,0,0,0-.45-.09.73.73,0,0,0-.47.13.44.44,0,0,0-.17.35.39.39,0,0,0,.1.27.77.77,0,0,0,.39.22,7.23,7.23,0,0,0,.93.22,3.54,3.54,0,0,1,1.24.4,1.7,1.7,0,0,1,.66.64,1.64,1.64,0,0,1,.2.77A1.34,1.34,0,0,1,58.56,94.56Zm5.62.49a.32.32,0,0,1-.08.2.24.24,0,0,1-.2.08h-1a3.12,3.12,0,0,1-1.24-.23,1.61,1.61,0,0,1-.8-.72,2.5,2.5,0,0,1-.28-1.26V91h-.88a.32.32,0,0,1-.21-.08.24.24,0,0,1-.08-.2v-.91a.28.28,0,0,1,.08-.2.32.32,0,0,1,.21-.08h.88V87.64a.28.28,0,0,1,.08-.2.3.3,0,0,1,.2-.08h1.3a.27.27,0,0,1,.28.28v1.85h1.4a.32.32,0,0,1,.21.08.25.25,0,0,1,.09.2v.91a.25.25,0,0,1-.09.2.32.32,0,0,1-.21.08h-1.4v2a1.1,1.1,0,0,0,.15.61.54.54,0,0,0,.49.22h.87a.27.27,0,0,1,.28.28Zm10,0a.32.32,0,0,1-.08.21.24.24,0,0,1-.2.08h-1.2a.33.33,0,0,1-.26-.09l-.11-.12L69.55,91v4.09a.32.32,0,0,1-.08.2.24.24,0,0,1-.2.08H67.92a.27.27,0,0,1-.28-.28v-7.3a.27.27,0,0,1,.28-.28h1.19a.38.38,0,0,1,.28.09.53.53,0,0,1,.11.13L72.24,92V87.75a.27.27,0,0,1,.28-.28h1.35a.27.27,0,0,1,.28.28V95Zm7.19-2.13a2.93,2.93,0,0,1-.39,1.36,2.22,2.22,0,0,1-1,.87,4.39,4.39,0,0,1-3.19,0,2.22,2.22,0,0,1-1-.87,2.89,2.89,0,0,1-.39-1.36c0-.15,0-.32,0-.51s0-.36,0-.5a2.79,2.79,0,0,1,.4-1.36,2.39,2.39,0,0,1,1-.87,3.68,3.68,0,0,1,1.56-.3,3.73,3.73,0,0,1,1.57.3,2.32,2.32,0,0,1,1,.87,2.76,2.76,0,0,1,.4,1.36c0,.14,0,.31,0,.5S81.34,92.76,81.33,92.91Zm9.4-3.07L89.11,95a.47.47,0,0,1-.12.2.33.33,0,0,1-.25.08h-1a.37.37,0,0,1-.25-.08.41.41,0,0,1-.12-.2l-1-3.08L85.3,95a.47.47,0,0,1-.12.2.33.33,0,0,1-.25.08h-1a.37.37,0,0,1-.25-.08.67.67,0,0,1-.12-.2l-1.62-5.2a.43.43,0,0,1,0-.11.25.25,0,0,1,.08-.18.24.24,0,0,1,.18-.07h1.16a.34.34,0,0,1,.23.08.38.38,0,0,1,.11.16l.94,3.22,1-3.2a.38.38,0,0,1,.11-.16A.36.36,0,0,1,86,89.5h.74a.37.37,0,0,1,.25.08.32.32,0,0,1,.1.16l1,3.2L89,89.72a.46.46,0,0,1,.11-.16.34.34,0,0,1,.23-.08H90.5a.29.29,0,0,1,.18.07.25.25,0,0,1,.08.18A.2.2,0,0,1,90.73,89.84Z"/><path class="cls-6" d="M50.21,90.74a.9.9,0,0,0-.52-.14,1,1,0,0,0-.51.14,1,1,0,0,0-.33.41,1.73,1.73,0,0,0-.11.63v0h1.9v0a1.65,1.65,0,0,0-.11-.63A.87.87,0,0,0,50.21,90.74Z"/><polyline class="cls-7" points="177.37 69.74 177.37 69.74 176.31 68.4 168.19 74.95 169.26 76.29 176.04 70.82"/><circle class="cls-8" cx="177.1" cy="57.72" r="5.41"/><circle class="cls-9" cx="177.1" cy="57.72" r="4.44"/><path class="cls-10" d="M176.67,53.93a4.45,4.45,0,0,1,4.45,4.44,4.16,4.16,0,0,1-.27,1.5,4.33,4.33,0,0,0,.56-2.15,4.45,4.45,0,0,0-8.63-1.51A4.45,4.45,0,0,1,176.67,53.93Z"/><path class="cls-11" d="M178.63,56.07H177.5a1,1,0,0,1,.38.7h.75v.34h-.74c-.07.71-.62,1.15-1.51,1.18.54.55,1.12,1.26,1.7,2h-.67c-.53-.65-1-1.24-1.68-1.93V57.9h.38c.74,0,1.13-.31,1.18-.79h-1.57v-.34h1.55c-.1-.4-.46-.6-1.06-.6h-.49v-.45h2.9v.35Z"/><path class="cls-10" d="M203.36,88.22v1.12c0,.63,2.42,1.13,5.41,1.13s5.41-.5,5.41-1.13V88.22Z"/><ellipse class="cls-8" cx="208.77" cy="88.22" rx="5.41" ry="1.13"/><path class="cls-9" d="M213.22,88.08c0,.44-2,.79-4.45.79s-4.44-.36-4.44-.79,2-.79,4.44-.79S213.22,87.65,213.22,88.08Z"/><path class="cls-10" d="M208.34,87.4c2.45,0,4.44.36,4.44.79,0,.1-.09.19-.26.27.36-.11.56-.24.56-.38,0-.44-2-.79-4.45-.79a12.32,12.32,0,0,0-4.18.52A15,15,0,0,1,208.34,87.4Z"/><path class="cls-11" d="M210.31,87.78h-1.14c.2,0,.35.07.39.13h.75V88h-.75c-.06.12-.62.21-1.5.21.54.1,1.12.23,1.69.36h-.66l-1.68-.35v-.07h.37c.75,0,1.14-.06,1.19-.14H207.4v-.06h1.54a2.48,2.48,0,0,0-1.05-.11h-.49v-.08h2.91Z"/><path class="cls-10" d="M203.36,86.72v1.13c0,.62,2.42,1.13,5.41,1.13s5.41-.51,5.41-1.13V86.72Z"/><ellipse class="cls-8" cx="208.77" cy="86.72" rx="5.41" ry="1.13"/><ellipse class="cls-9" cx="208.77" cy="86.58" rx="4.44" ry="0.79"/><path class="cls-10" d="M208.34,85.91c2.45,0,4.44.36,4.44.8,0,.09-.09.18-.26.27.36-.12.56-.25.56-.39,0-.44-2-.79-4.45-.79a12.32,12.32,0,0,0-4.18.52A15,15,0,0,1,208.34,85.91Z"/><path class="cls-11" d="M210.31,86.29h-1.14c.2,0,.35.06.39.12h.75v.07h-.75c-.06.12-.62.2-1.5.21.54.1,1.12.22,1.69.35h-.66l-1.68-.34v-.08h.37c.75,0,1.14-.05,1.19-.13H207.4v-.07h1.54a2.67,2.67,0,0,0-1.05-.11h-.49v-.08h2.91Z"/><path class="cls-10" d="M203.36,85.23v1.12c0,.63,2.42,1.13,5.41,1.13s5.41-.5,5.41-1.13V85.23Z"/><ellipse class="cls-8" cx="208.77" cy="85.23" rx="5.41" ry="1.13"/><ellipse class="cls-9" cx="208.77" cy="85.1" rx="4.44" ry="0.79"/><path class="cls-10" d="M208.34,84.42c2.45,0,4.44.36,4.44.79,0,.1-.09.19-.26.27.36-.11.56-.24.56-.38,0-.44-2-.8-4.45-.8a12,12,0,0,0-4.18.53A14.53,14.53,0,0,1,208.34,84.42Z"/><path class="cls-11" d="M210.31,84.8h-1.14a.79.79,0,0,1,.39.12h.75V85h-.75c-.06.12-.62.2-1.5.21.54.1,1.12.22,1.69.35h-.66l-1.68-.34v-.07h.37c.75,0,1.14-.06,1.19-.14H207.4v-.07h1.54a2.77,2.77,0,0,0-1.05-.1h-.49v-.09h2.91Z"/><path class="cls-10" d="M203.36,83.73v1.13c0,.62,2.42,1.13,5.41,1.13s5.41-.51,5.41-1.13V83.73Z"/><ellipse class="cls-8" cx="208.77" cy="83.73" rx="5.41" ry="1.13"/><path class="cls-9" d="M213.22,83.6c0,.44-2,.79-4.45.79s-4.44-.36-4.44-.79,2-.79,4.44-.79S213.22,83.16,213.22,83.6Z"/><path class="cls-10" d="M208.34,82.92c2.45,0,4.44.36,4.44.8,0,.09-.09.18-.26.27.36-.12.56-.25.56-.39,0-.44-2-.79-4.45-.79a12.32,12.32,0,0,0-4.18.52A15,15,0,0,1,208.34,82.92Z"/><path class="cls-11" d="M210.31,83.31h-1.14c.2,0,.35.06.39.12h.75v.06h-.75c-.06.13-.62.21-1.5.22.54.1,1.12.22,1.69.35h-.66c-.54-.12-1-.22-1.68-.34v-.09h.37c.75,0,1.14,0,1.19-.14H207.4v-.06h1.54a2.67,2.67,0,0,0-1.05-.11h-.49v-.08h2.91Z"/><path class="cls-10" d="M203.36,82.24v1.12c0,.63,2.42,1.13,5.41,1.13s5.41-.5,5.41-1.13V82.24Z"/><ellipse class="cls-8" cx="208.77" cy="82.24" rx="5.41" ry="1.13"/><ellipse class="cls-9" cx="208.77" cy="82.11" rx="4.44" ry="0.79"/><path class="cls-10" d="M208.34,81.43c2.45,0,4.44.36,4.44.79,0,.1-.09.19-.26.27.36-.11.56-.25.56-.38,0-.45-2-.8-4.45-.8a12,12,0,0,0-4.18.53A14.53,14.53,0,0,1,208.34,81.43Z"/><path class="cls-11" d="M210.31,81.81h-1.14a.79.79,0,0,1,.39.12h.75V82h-.75c-.06.12-.62.2-1.5.21.54.1,1.12.22,1.69.35h-.66l-1.68-.34v-.07h.37c.75,0,1.14-.06,1.19-.14H207.4v-.07h1.54a2.77,2.77,0,0,0-1.05-.1h-.49v-.09h2.91Z"/><path class="cls-10" d="M203.36,80.74v1.13c0,.62,2.42,1.13,5.41,1.13s5.41-.51,5.41-1.13V80.74Z"/><ellipse class="cls-8" cx="208.77" cy="80.74" rx="5.41" ry="1.13"/><path class="cls-9" d="M213.22,80.61c0,.44-2,.79-4.45.79s-4.44-.36-4.44-.79,2-.79,4.44-.79S213.22,80.17,213.22,80.61Z"/><path class="cls-10" d="M208.34,79.93c2.45,0,4.44.36,4.44.8,0,.09-.09.18-.26.26.36-.11.56-.24.56-.38,0-.44-2-.79-4.45-.79a12.32,12.32,0,0,0-4.18.52A15,15,0,0,1,208.34,79.93Z"/><path class="cls-11" d="M210.31,80.32h-1.14c.2,0,.35.06.39.12h.75v.06h-.75c-.06.13-.62.21-1.5.22.54.09,1.12.22,1.69.35h-.66c-.54-.12-1-.22-1.68-.34v-.08h.37c.75,0,1.14-.06,1.19-.14H207.4v-.06h1.54a2.48,2.48,0,0,0-1.05-.11h-.49v-.08h2.91Z"/><path class="cls-10" d="M203.36,79.25v1.13c0,.62,2.42,1.13,5.41,1.13s5.41-.51,5.41-1.13V79.25Z"/><ellipse class="cls-8" cx="208.77" cy="79.25" rx="5.41" ry="1.13"/><path class="cls-9" d="M213.22,79.12c0,.44-2,.79-4.45.79s-4.44-.36-4.44-.79,2-.8,4.44-.8S213.22,78.68,213.22,79.12Z"/><path class="cls-10" d="M208.34,78.44c2.45,0,4.44.36,4.44.79,0,.1-.09.19-.26.27.36-.11.56-.25.56-.38,0-.45-2-.8-4.45-.8a12,12,0,0,0-4.18.53A15,15,0,0,1,208.34,78.44Z"/><path class="cls-11" d="M210.31,78.82h-1.14a.79.79,0,0,1,.39.12h.75V79h-.75c-.06.12-.62.2-1.5.21.54.1,1.12.22,1.69.35h-.66l-1.68-.34v-.07h.37c.75,0,1.14-.06,1.19-.14H207.4V79h1.54a2.77,2.77,0,0,0-1.05-.1h-.49v-.09h2.91Z"/><path class="cls-10" d="M203.36,77.76v1.13c0,.62,2.42,1.12,5.41,1.12s5.41-.5,5.41-1.12V77.76Z"/><ellipse class="cls-8" cx="208.77" cy="77.76" rx="5.41" ry="1.13"/><ellipse class="cls-9" cx="208.77" cy="77.62" rx="4.44" ry="0.79"/><path class="cls-10" d="M208.34,76.94c2.45,0,4.44.36,4.44.79,0,.1-.09.19-.26.27.36-.11.56-.24.56-.38,0-.44-2-.79-4.45-.79a12.32,12.32,0,0,0-4.18.52A15,15,0,0,1,208.34,76.94Z"/><path class="cls-11" d="M210.31,77.33h-1.14c.2,0,.35.06.39.12h.75v.06h-.75c-.06.13-.62.21-1.5.22.54.09,1.12.22,1.69.35h-.66l-1.68-.35v-.07h.37c.75,0,1.14-.06,1.19-.14H207.4v-.06h1.54a2.48,2.48,0,0,0-1.05-.11h-.49v-.08h2.91Z"/><path class="cls-10" d="M203.36,76.26v1.13c0,.62,2.42,1.13,5.41,1.13s5.41-.51,5.41-1.13V76.26Z"/><ellipse class="cls-8" cx="208.77" cy="76.26" rx="5.41" ry="1.13"/><ellipse class="cls-9" cx="208.77" cy="76.13" rx="4.44" ry="0.79"/><path class="cls-10" d="M208.34,75.46c2.45,0,4.44.35,4.44.79,0,.1-.09.19-.26.27.36-.12.56-.25.56-.39,0-.44-2-.79-4.45-.79a12.32,12.32,0,0,0-4.18.52A15,15,0,0,1,208.34,75.46Z"/><path class="cls-11" d="M210.31,75.84h-1.14c.2,0,.35.06.39.12h.75V76h-.75c-.06.12-.62.2-1.5.21.54.1,1.12.22,1.69.35h-.66l-1.68-.34v-.08h.37c.75,0,1.14,0,1.19-.13H207.4V76h1.54a2.67,2.67,0,0,0-1.05-.11h-.49v-.08h2.91Z"/><path class="cls-10" d="M203.36,74.77V75.9c0,.62,2.42,1.12,5.41,1.12s5.41-.5,5.41-1.12V74.77Z"/><ellipse class="cls-8" cx="208.77" cy="74.77" rx="5.41" ry="1.13"/><path class="cls-9" d="M213.22,74.64c0,.44-2,.79-4.45.79s-4.44-.36-4.44-.79,2-.79,4.44-.79S213.22,74.2,213.22,74.64Z"/><path class="cls-10" d="M208.34,74c2.45,0,4.44.36,4.44.79,0,.1-.09.19-.26.27.36-.11.56-.24.56-.38,0-.44-2-.79-4.45-.79a12.32,12.32,0,0,0-4.18.52A14.53,14.53,0,0,1,208.34,74Z"/><path class="cls-11" d="M210.31,74.34h-1.14c.2,0,.35.07.39.13h.75v.06h-.75c-.06.12-.62.21-1.5.21.54.1,1.12.22,1.69.36h-.66l-1.68-.35v-.07h.37c.75,0,1.14-.06,1.19-.14H207.4v-.07h1.54a2.77,2.77,0,0,0-1.05-.1h-.49v-.08h2.91Z"/><path class="cls-10" d="M203.36,73.27V74.4c0,.62,2.42,1.13,5.41,1.13s5.41-.51,5.41-1.13V73.27Z"/><ellipse class="cls-8" cx="208.77" cy="73.27" rx="5.41" ry="1.13"/><ellipse class="cls-9" cx="208.77" cy="73.14" rx="4.44" ry="0.79"/><path class="cls-10" d="M208.34,72.46c2.45,0,4.44.36,4.44.8,0,.1-.09.19-.26.27.36-.12.56-.25.56-.39,0-.44-2-.79-4.45-.79a12.32,12.32,0,0,0-4.18.52A15,15,0,0,1,208.34,72.46Z"/><path class="cls-11" d="M210.31,72.85h-1.14c.2,0,.35.06.39.12h.75V73h-.75c-.06.12-.62.2-1.5.21.54.1,1.12.22,1.69.35h-.66l-1.68-.34v-.08h.37c.75,0,1.14-.06,1.19-.14H207.4V73h1.54a2.77,2.77,0,0,0-1.05-.1h-.49v-.09h2.91Z"/><path class="cls-10" d="M203.36,71.78v1.13c0,.62,2.42,1.12,5.41,1.12s5.41-.5,5.41-1.12V71.78Z"/><ellipse class="cls-8" cx="208.77" cy="71.78" rx="5.41" ry="1.13"/><ellipse class="cls-9" cx="208.77" cy="71.65" rx="4.44" ry="0.79"/><path class="cls-10" d="M208.34,71c2.45,0,4.44.36,4.44.79,0,.1-.09.19-.26.27.36-.11.56-.24.56-.38,0-.44-2-.79-4.45-.79a12.32,12.32,0,0,0-4.18.52A14.53,14.53,0,0,1,208.34,71Z"/><path class="cls-11" d="M210.31,71.35h-1.14c.2,0,.35.07.39.13h.75v.06h-.75c-.06.12-.62.21-1.5.21.54.1,1.12.22,1.69.36h-.66c-.54-.12-1-.23-1.68-.35v-.07h.37c.75,0,1.14-.06,1.19-.14H207.4v-.07h1.54a2.77,2.77,0,0,0-1.05-.1h-.49V71.3h2.91Z"/><path class="cls-10" d="M203.36,70.29v1.13c0,.62,2.42,1.13,5.41,1.13s5.41-.51,5.41-1.13V70.29Z"/><path class="cls-8" d="M214.18,70.29c0,.62-2.42,1.13-5.41,1.13s-5.41-.51-5.41-1.13,2.42-1.13,5.41-1.13S214.18,69.66,214.18,70.29Z"/><path class="cls-9" d="M213.22,70.15c0,.44-2,.8-4.45.8s-4.44-.36-4.44-.8,2-.79,4.44-.79S213.22,69.72,213.22,70.15Z"/><path class="cls-10" d="M208.34,69.47c2.45,0,4.44.36,4.44.8,0,.09-.09.18-.26.27.36-.12.56-.25.56-.39,0-.44-2-.79-4.45-.79a12.32,12.32,0,0,0-4.18.52A15.41,15.41,0,0,1,208.34,69.47Z"/><path class="cls-11" d="M210.31,69.86h-1.14c.2,0,.35.06.39.12h.75v.07h-.75c-.06.12-.62.2-1.5.21.54.1,1.12.22,1.69.35h-.66l-1.68-.34v-.08h.37c.75,0,1.14,0,1.19-.14H207.4V70h1.54a2.67,2.67,0,0,0-1.05-.11h-.49V69.8h2.91Z"/><path class="cls-10" d="M186.67,88.22v1.12c0,.63,2.42,1.13,5.41,1.13s5.41-.5,5.41-1.13V88.22Z"/><ellipse class="cls-8" cx="192.08" cy="88.22" rx="5.41" ry="1.13"/><path class="cls-9" d="M196.52,88.08c0,.44-2,.79-4.44.79s-4.44-.36-4.44-.79,2-.79,4.44-.79S196.52,87.65,196.52,88.08Z"/><path class="cls-10" d="M191.65,87.4c2.45,0,4.44.36,4.44.79,0,.1-.09.19-.26.27.36-.11.56-.24.56-.38,0-.44-2-.79-4.45-.79a12.27,12.27,0,0,0-4.18.52A15,15,0,0,1,191.65,87.4Z"/><path class="cls-11" d="M193.62,87.78h-1.14c.2,0,.34.07.38.13h.76V88h-.75c-.06.12-.62.21-1.5.21.54.1,1.12.23,1.69.36h-.66l-1.68-.35v-.07h.37c.75,0,1.14-.06,1.19-.14h-1.57v-.06h1.54a2.55,2.55,0,0,0-1.05-.11h-.49v-.08h2.89v0Z"/><path class="cls-10" d="M186.67,86.72v1.13c0,.62,2.42,1.13,5.41,1.13s5.41-.51,5.41-1.13V86.72Z"/><ellipse class="cls-8" cx="192.08" cy="86.72" rx="5.41" ry="1.13"/><ellipse class="cls-9" cx="192.08" cy="86.58" rx="4.44" ry="0.79"/><path class="cls-10" d="M191.65,85.91c2.45,0,4.44.36,4.44.8,0,.09-.09.18-.26.27.36-.12.56-.25.56-.39,0-.44-2-.79-4.45-.79a12.27,12.27,0,0,0-4.18.52A15,15,0,0,1,191.65,85.91Z"/><path class="cls-11" d="M193.62,86.29h-1.14c.2,0,.34.06.38.12h.76v.07h-.75c-.06.12-.62.2-1.5.21.54.1,1.12.22,1.69.35h-.66l-1.68-.34v-.08h.37c.75,0,1.14-.05,1.19-.13h-1.57v-.07h1.54a2.75,2.75,0,0,0-1.05-.11h-.49v-.08h2.89v.06Z"/><path class="cls-10" d="M186.67,85.23v1.12c0,.63,2.42,1.13,5.41,1.13s5.41-.5,5.41-1.13V85.23Z"/><ellipse class="cls-8" cx="192.08" cy="85.23" rx="5.41" ry="1.13"/><ellipse class="cls-9" cx="192.08" cy="85.1" rx="4.44" ry="0.79"/><path class="cls-10" d="M191.65,84.42c2.45,0,4.44.36,4.44.79,0,.1-.09.19-.26.27.36-.11.56-.24.56-.38,0-.44-2-.8-4.45-.8a12,12,0,0,0-4.18.53A14.53,14.53,0,0,1,191.65,84.42Z"/><path class="cls-11" d="M193.62,84.8h-1.14a.74.74,0,0,1,.38.12h.76V85h-.75c-.06.12-.62.2-1.5.21.54.1,1.12.22,1.69.35h-.66l-1.68-.34v-.07h.37c.75,0,1.14-.06,1.19-.14h-1.57v-.07h1.54a2.85,2.85,0,0,0-1.05-.1h-.49v-.09h2.89v.06Z"/><path class="cls-10" d="M186.67,83.73v1.13c0,.62,2.42,1.13,5.41,1.13s5.41-.51,5.41-1.13V83.73Z"/><ellipse class="cls-8" cx="192.08" cy="83.73" rx="5.41" ry="1.13"/><path class="cls-9" d="M196.52,83.6c0,.44-2,.79-4.44.79s-4.44-.36-4.44-.79,2-.79,4.44-.79S196.52,83.16,196.52,83.6Z"/><path class="cls-10" d="M191.65,82.92c2.45,0,4.44.36,4.44.8,0,.09-.09.18-.26.27.36-.12.56-.25.56-.39,0-.44-2-.79-4.45-.79a12.27,12.27,0,0,0-4.18.52A15,15,0,0,1,191.65,82.92Z"/><path class="cls-11" d="M193.62,83.31h-1.14c.2,0,.34.06.38.12h.76v.06h-.75c-.06.13-.62.21-1.5.22.54.1,1.12.22,1.69.35h-.66c-.54-.12-1-.22-1.68-.34v-.09h.37c.75,0,1.14,0,1.19-.14h-1.57v-.06h1.54a2.75,2.75,0,0,0-1.05-.11h-.49v-.08h2.89v.07Z"/><path class="cls-10" d="M186.67,82.24v1.12c0,.63,2.42,1.13,5.41,1.13s5.41-.5,5.41-1.13V82.24Z"/><ellipse class="cls-8" cx="192.08" cy="82.24" rx="5.41" ry="1.13"/><ellipse class="cls-9" cx="192.08" cy="82.11" rx="4.44" ry="0.79"/><path class="cls-10" d="M191.65,81.43c2.45,0,4.44.36,4.44.79,0,.1-.09.19-.26.27.36-.11.56-.25.56-.38,0-.45-2-.8-4.45-.8a12,12,0,0,0-4.18.53A14.53,14.53,0,0,1,191.65,81.43Z"/><path class="cls-11" d="M193.62,81.81h-1.14a.74.74,0,0,1,.38.12h.76V82h-.75c-.06.12-.62.2-1.5.21.54.1,1.12.22,1.69.35h-.66l-1.68-.34v-.07h.37c.75,0,1.14-.06,1.19-.14h-1.57v-.07h1.54a2.85,2.85,0,0,0-1.05-.1h-.49v-.09h2.89v.06Z"/><path class="cls-10" d="M186.67,80.74v1.13c0,.62,2.42,1.13,5.41,1.13s5.41-.51,5.41-1.13V80.74Z"/><ellipse class="cls-8" cx="192.08" cy="80.74" rx="5.41" ry="1.13"/><path class="cls-9" d="M196.52,80.61c0,.44-2,.79-4.44.79s-4.44-.36-4.44-.79,2-.79,4.44-.79S196.52,80.17,196.52,80.61Z"/><path class="cls-10" d="M191.65,79.93c2.45,0,4.44.36,4.44.8,0,.09-.09.18-.26.26.36-.11.56-.24.56-.38,0-.44-2-.79-4.45-.79a12.27,12.27,0,0,0-4.18.52A15,15,0,0,1,191.65,79.93Z"/><path class="cls-11" d="M193.62,80.32h-1.14c.2,0,.34.06.38.12h.76v.06h-.75c-.06.13-.62.21-1.5.22.54.09,1.12.22,1.69.35h-.66c-.54-.12-1-.22-1.68-.34v-.08h.37c.75,0,1.14-.06,1.19-.14h-1.57v-.06h1.54a2.55,2.55,0,0,0-1.05-.11h-.49v-.08h2.89v.06Z"/><path class="cls-10" d="M186.67,79.25v1.13c0,.62,2.42,1.13,5.41,1.13s5.41-.51,5.41-1.13V79.25Z"/><ellipse class="cls-8" cx="192.08" cy="79.25" rx="5.41" ry="1.13"/><path class="cls-9" d="M196.52,79.12c0,.44-2,.79-4.44.79s-4.44-.36-4.44-.79,2-.8,4.44-.8S196.52,78.68,196.52,79.12Z"/><path class="cls-10" d="M191.65,78.44c2.45,0,4.44.36,4.44.79,0,.1-.09.19-.26.27.36-.11.56-.25.56-.38,0-.45-2-.8-4.45-.8a12,12,0,0,0-4.18.53A15,15,0,0,1,191.65,78.44Z"/><path class="cls-11" d="M193.62,78.82h-1.14a.74.74,0,0,1,.38.12h.76V79h-.75c-.06.12-.62.2-1.5.21.54.1,1.12.22,1.69.35h-.66l-1.68-.34v-.07h.37c.75,0,1.14-.06,1.19-.14h-1.57V79h1.54a2.85,2.85,0,0,0-1.05-.1h-.49v-.09h2.89v.06Z"/><path class="cls-10" d="M186.67,77.76v1.13c0,.62,2.42,1.12,5.41,1.12s5.41-.5,5.41-1.12V77.76Z"/><ellipse class="cls-8" cx="192.08" cy="77.76" rx="5.41" ry="1.13"/><ellipse class="cls-9" cx="192.08" cy="77.62" rx="4.44" ry="0.79"/><path class="cls-10" d="M191.65,76.94c2.45,0,4.44.36,4.44.79,0,.1-.09.19-.26.27.36-.11.56-.24.56-.38,0-.44-2-.79-4.45-.79a12.27,12.27,0,0,0-4.18.52A15,15,0,0,1,191.65,76.94Z"/><path class="cls-11" d="M193.62,77.33h-1.14c.2,0,.34.06.38.12h.76v.06h-.75c-.06.13-.62.21-1.5.22.54.09,1.12.22,1.69.35h-.66l-1.68-.35v-.07h.37c.75,0,1.14-.06,1.19-.14h-1.57v-.06h1.54a2.55,2.55,0,0,0-1.05-.11h-.49v-.08h2.89v.06Z"/><path class="cls-10" d="M186.67,76.26v1.13c0,.62,2.42,1.13,5.41,1.13s5.41-.51,5.41-1.13V76.26Z"/><ellipse class="cls-8" cx="192.08" cy="76.26" rx="5.41" ry="1.13"/><ellipse class="cls-9" cx="192.08" cy="76.13" rx="4.44" ry="0.79"/><path class="cls-10" d="M191.65,75.46c2.45,0,4.44.35,4.44.79,0,.1-.09.19-.26.27.36-.12.56-.25.56-.39,0-.44-2-.79-4.45-.79a12.27,12.27,0,0,0-4.18.52A15,15,0,0,1,191.65,75.46Z"/><path class="cls-11" d="M193.62,75.84h-1.14c.2,0,.34.06.38.12h.76V76h-.75c-.06.12-.62.2-1.5.21.54.1,1.12.22,1.69.35h-.66l-1.68-.34v-.08h.37c.75,0,1.14,0,1.19-.13h-1.57V76h1.54a2.75,2.75,0,0,0-1.05-.11h-.49v-.08h2.89v.06Z"/><path class="cls-10" d="M170.15,88.22v1.12c0,.63,2.42,1.13,5.41,1.13S181,90,181,89.34V88.22Z"/><ellipse class="cls-8" cx="175.56" cy="88.22" rx="5.41" ry="1.13"/><path class="cls-9" d="M180,88.08c0,.44-2,.79-4.44.79s-4.45-.36-4.45-.79,2-.79,4.45-.79S180,87.65,180,88.08Z"/><path class="cls-10" d="M175.13,87.4c2.46,0,4.45.36,4.45.79,0,.1-.09.19-.26.27.36-.11.55-.24.55-.38,0-.44-2-.79-4.44-.79a12.27,12.27,0,0,0-4.18.52A14.87,14.87,0,0,1,175.13,87.4Z"/><path class="cls-11" d="M177.1,87.78H176c.2,0,.34.07.38.13h.76V88h-.75c-.06.12-.62.21-1.5.21.54.1,1.12.23,1.69.36h-.66l-1.68-.35v-.07h.37c.74,0,1.14-.06,1.19-.14h-1.57v-.06h1.54a2.55,2.55,0,0,0-1-.11h-.49v-.08h2.89v0Z"/><path class="cls-10" d="M170.15,86.72v1.13c0,.62,2.42,1.13,5.41,1.13s5.41-.51,5.41-1.13V86.72Z"/><ellipse class="cls-8" cx="175.56" cy="86.72" rx="5.41" ry="1.13"/><ellipse class="cls-9" cx="175.56" cy="86.58" rx="4.44" ry="0.79"/><path class="cls-10" d="M175.13,85.91c2.46,0,4.45.36,4.45.8,0,.09-.09.18-.26.27.36-.12.55-.25.55-.39,0-.44-2-.79-4.44-.79a12.27,12.27,0,0,0-4.18.52A14.87,14.87,0,0,1,175.13,85.91Z"/><path class="cls-11" d="M177.1,86.29H176c.2,0,.34.06.38.12h.76v.07h-.75c-.06.12-.62.2-1.5.21.54.1,1.12.22,1.69.35h-.66l-1.68-.34v-.08h.37c.74,0,1.14-.05,1.19-.13h-1.57v-.07h1.54a2.75,2.75,0,0,0-1-.11h-.49v-.08h2.89v.06Z"/><path class="cls-10" d="M170.15,85.23v1.12c0,.63,2.42,1.13,5.41,1.13S181,87,181,86.35V85.23Z"/><ellipse class="cls-8" cx="175.56" cy="85.23" rx="5.41" ry="1.13"/><ellipse class="cls-9" cx="175.56" cy="85.1" rx="4.44" ry="0.79"/><path class="cls-10" d="M175.13,84.42c2.46,0,4.45.36,4.45.79,0,.1-.09.19-.26.27.36-.11.55-.24.55-.38,0-.44-2-.8-4.44-.8a12,12,0,0,0-4.18.53A14.44,14.44,0,0,1,175.13,84.42Z"/><path class="cls-11" d="M177.1,84.8H176a.74.74,0,0,1,.38.12h.76V85h-.75c-.06.12-.62.2-1.5.21.54.1,1.12.22,1.69.35h-.66l-1.68-.34v-.07h.37c.74,0,1.14-.06,1.19-.14h-1.57v-.07h1.54a2.85,2.85,0,0,0-1-.1h-.49v-.09h2.89v.06Z"/><path class="cls-10" d="M170.15,83.73v1.13c0,.62,2.42,1.13,5.41,1.13s5.41-.51,5.41-1.13V83.73Z"/><ellipse class="cls-8" cx="175.56" cy="83.73" rx="5.41" ry="1.13"/><path class="cls-9" d="M180,83.6c0,.44-2,.79-4.44.79s-4.45-.36-4.45-.79,2-.79,4.45-.79S180,83.16,180,83.6Z"/><path class="cls-10" d="M175.13,82.92c2.46,0,4.45.36,4.45.8,0,.09-.09.18-.26.27.36-.12.55-.25.55-.39,0-.44-2-.79-4.44-.79a12.27,12.27,0,0,0-4.18.52A14.87,14.87,0,0,1,175.13,82.92Z"/><path class="cls-11" d="M177.1,83.31H176c.2,0,.34.06.38.12h.76v.06h-.75c-.06.13-.62.21-1.5.22.54.1,1.12.22,1.69.35h-.66c-.54-.12-1-.22-1.68-.34v-.09h.37c.74,0,1.14,0,1.19-.14h-1.57v-.06h1.54a2.75,2.75,0,0,0-1-.11h-.49v-.08h2.89v.07Z"/><path class="cls-10" d="M170.15,82.24v1.12c0,.63,2.42,1.13,5.41,1.13S181,84,181,83.36V82.24Z"/><ellipse class="cls-8" cx="175.56" cy="82.24" rx="5.41" ry="1.13"/><ellipse class="cls-9" cx="175.56" cy="82.11" rx="4.44" ry="0.79"/><path class="cls-10" d="M175.13,81.43c2.46,0,4.45.36,4.45.79,0,.1-.09.19-.26.27.36-.11.55-.25.55-.38,0-.45-2-.8-4.44-.8a12,12,0,0,0-4.18.53A14.44,14.44,0,0,1,175.13,81.43Z"/><path class="cls-11" d="M177.1,81.81H176a.74.74,0,0,1,.38.12h.76V82h-.75c-.06.12-.62.2-1.5.21.54.1,1.12.22,1.69.35h-.66l-1.68-.34v-.07h.37c.74,0,1.14-.06,1.19-.14h-1.57v-.07h1.54a2.85,2.85,0,0,0-1-.1h-.49v-.09h2.89v.06Z"/><g class="cls-12"><polygon class="cls-7" points="215.83 52.95 206.84 54.95 208.5 56.89 201.68 62.38 198.25 58.06 198.23 58.07 198.18 58 186.25 67.63 184.37 65.26 184.37 65.26 182.13 62.44 165.07 76.19 167.31 79.01 181.56 67.51 185.69 72.7 186.25 72.24 197.64 63.07 201.12 67.45 201.13 67.43 201.14 67.44 210.83 59.63 212.51 61.6 215.83 52.95"/></g><g class="cls-12"><circle class="cls-8" cx="174.63" cy="55.19" r="6.1"/><circle class="cls-9" cx="174.63" cy="55.19" r="5.01"/><path class="cls-10" d="M174.15,50.93a5,5,0,0,1,4.71,6.7,5,5,0,1,0-9.09-4.12A5,5,0,0,1,174.15,50.93Z"/><path class="cls-11" d="M176.36,53.34h-1.27a1.18,1.18,0,0,1,.43.78h.84v.39h-.83a1.55,1.55,0,0,1-1.69,1.32c.6.63,1.25,1.41,1.91,2.21H175c-.6-.72-1.16-1.39-1.89-2.17v-.48h.42c.84,0,1.29-.35,1.34-.88h-1.76v-.39h1.74c-.11-.45-.52-.67-1.19-.67h-.55V53h3.25v.39Z"/></g><g class="cls-12"><path class="cls-10" d="M204.21,89.55v1.27c0,.71,2.73,1.28,6.1,1.28s6.09-.57,6.09-1.28V89.55Z"/><ellipse class="cls-8" cx="210.31" cy="89.55" rx="6.1" ry="1.27"/><path class="cls-9" d="M215.31,89.39c0,.49-2.24.9-5,.9s-5-.4-5-.9,2.24-.89,5-.89S215.31,88.9,215.31,89.39Z"/><path class="cls-10" d="M209.82,88.63c2.76,0,5,.4,5,.9,0,.11-.11.21-.3.31.4-.14.63-.28.63-.44,0-.49-2.24-.9-5-.9a13.47,13.47,0,0,0-4.71.6A15.91,15.91,0,0,1,209.82,88.63Z"/><path class="cls-11" d="M212,89.06h-1.27c.22,0,.38.07.43.14H212v.06h-.83c-.07.14-.7.23-1.69.24.6.11,1.26.25,1.91.39h-.74l-1.9-.39v-.08h.43c.83,0,1.28-.07,1.34-.16h-1.77V89.2h1.74a3.09,3.09,0,0,0-1.19-.12h-.55V89H212v.07Z"/><path class="cls-10" d="M204.21,87.87v1.27c0,.7,2.73,1.28,6.1,1.28s6.09-.58,6.09-1.28V87.87Z"/><ellipse class="cls-8" cx="210.31" cy="87.87" rx="6.1" ry="1.27"/><ellipse class="cls-9" cx="210.31" cy="87.71" rx="5.01" ry="0.9"/><path class="cls-10" d="M209.82,87c2.76,0,5,.4,5,.9,0,.11-.11.2-.3.3.4-.13.63-.28.63-.43,0-.49-2.24-.9-5-.9a13.47,13.47,0,0,0-4.71.6A16.31,16.31,0,0,1,209.82,87Z"/><path class="cls-11" d="M212,87.38h-1.27a.9.9,0,0,1,.43.14H212v.07h-.83c-.07.14-.7.23-1.69.24.6.11,1.26.25,1.91.39h-.74c-.61-.13-1.17-.26-1.9-.39v-.09h.43c.83,0,1.28-.06,1.34-.15h-1.77v-.07h1.74a3.09,3.09,0,0,0-1.19-.12h-.55v-.09H212v.07Z"/><path class="cls-10" d="M204.21,86.18v1.28c0,.7,2.73,1.27,6.1,1.27s6.09-.57,6.09-1.27V86.18Z"/><ellipse class="cls-8" cx="210.31" cy="86.18" rx="6.1" ry="1.27"/><ellipse class="cls-9" cx="210.31" cy="86.03" rx="5.01" ry="0.9"/><path class="cls-10" d="M209.82,85.27c2.76,0,5,.4,5,.9,0,.1-.11.2-.3.3.4-.13.63-.28.63-.43,0-.49-2.24-.9-5-.9a13.53,13.53,0,0,0-4.71.59A16.83,16.83,0,0,1,209.82,85.27Z"/><path class="cls-11" d="M212,85.7h-1.27c.22,0,.38.07.43.14H212v.07h-.83c-.07.13-.7.22-1.69.23l1.91.39h-.74l-1.9-.39v-.08h.43a3.06,3.06,0,0,0,1.34-.15h-1.77v-.07h1.74a3.09,3.09,0,0,0-1.19-.12h-.55v-.09H212v.07Z"/><path class="cls-10" d="M204.21,84.5v1.27c0,.71,2.73,1.28,6.1,1.28s6.09-.57,6.09-1.28V84.5Z"/><ellipse class="cls-8" cx="210.31" cy="84.5" rx="6.1" ry="1.27"/><path class="cls-9" d="M215.31,84.34c0,.49-2.24.9-5,.9s-5-.4-5-.9,2.24-.89,5-.89S215.31,83.85,215.31,84.34Z"/><path class="cls-10" d="M209.82,83.58c2.76,0,5,.41,5,.9,0,.11-.11.21-.3.31.4-.13.63-.28.63-.44,0-.49-2.24-.9-5-.9a13.47,13.47,0,0,0-4.71.6A16.31,16.31,0,0,1,209.82,83.58Z"/><path class="cls-11" d="M212,84h-1.27c.22,0,.38.07.43.14H212v.06h-.83c-.07.14-.7.23-1.69.24.6.11,1.26.25,1.91.39h-.74l-1.9-.39v-.08h.43c.83,0,1.28-.07,1.34-.16h-1.77v-.06h1.74a2.81,2.81,0,0,0-1.19-.13h-.55v-.09H212V84Z"/><path class="cls-10" d="M204.21,82.82v1.27c0,.7,2.73,1.28,6.1,1.28s6.09-.58,6.09-1.28V82.82Z"/><ellipse class="cls-8" cx="210.31" cy="82.82" rx="6.1" ry="1.27"/><ellipse class="cls-9" cx="210.31" cy="82.66" rx="5.01" ry="0.9"/><path class="cls-10" d="M209.82,81.9c2.76,0,5,.4,5,.9,0,.11-.11.2-.3.3.4-.13.63-.28.63-.43,0-.49-2.24-.9-5-.9a13.47,13.47,0,0,0-4.71.6A16.31,16.31,0,0,1,209.82,81.9Z"/><path class="cls-11" d="M212,82.33h-1.27a.9.9,0,0,1,.43.14H212v.07h-.83c-.07.14-.7.23-1.69.24.6.11,1.26.25,1.91.39h-.74c-.61-.13-1.17-.26-1.9-.39v-.09h.43c.83,0,1.28-.06,1.34-.15h-1.77v-.07h1.74a3.09,3.09,0,0,0-1.19-.12h-.55v-.09H212v.07Z"/><path class="cls-10" d="M204.21,81.13v1.28c0,.7,2.73,1.27,6.1,1.27s6.09-.57,6.09-1.27V81.13Z"/><ellipse class="cls-8" cx="210.31" cy="81.13" rx="6.1" ry="1.27"/><path class="cls-9" d="M215.31,81c0,.49-2.24.9-5,.9s-5-.4-5-.9,2.24-.9,5-.9S215.31,80.49,215.31,81Z"/><path class="cls-10" d="M209.82,80.22c2.76,0,5,.4,5,.9,0,.1-.11.2-.3.3.4-.13.63-.28.63-.43,0-.49-2.24-.9-5-.9a13.53,13.53,0,0,0-4.71.59A16.83,16.83,0,0,1,209.82,80.22Z"/><path class="cls-11" d="M212,80.65h-1.27a.8.8,0,0,1,.43.14H212v.07h-.83c-.07.13-.7.22-1.69.23l1.91.39h-.74l-1.9-.39V81h.43c.83,0,1.28-.06,1.34-.15h-1.77v-.07h1.74a3.09,3.09,0,0,0-1.19-.12h-.55v-.09H212v.07Z"/><path class="cls-10" d="M204.21,79.45v1.28c0,.7,2.73,1.27,6.1,1.27s6.09-.57,6.09-1.27V79.45Z"/><ellipse class="cls-8" cx="210.31" cy="79.45" rx="6.1" ry="1.27"/><path class="cls-9" d="M215.31,79.3c0,.49-2.24.9-5,.9s-5-.4-5-.9,2.24-.9,5-.9S215.31,78.81,215.31,79.3Z"/><path class="cls-10" d="M209.82,78.54c2.76,0,5,.4,5,.89,0,.11-.11.21-.3.31.4-.13.63-.28.63-.44,0-.49-2.24-.9-5-.9a13.47,13.47,0,0,0-4.71.6A16.4,16.4,0,0,1,209.82,78.54Z"/><path class="cls-11" d="M212,79h-1.27c.22,0,.38.07.43.14H212v.06h-.83c-.07.14-.7.23-1.69.24.6.11,1.26.25,1.91.39h-.74l-1.9-.39v-.08h.43c.83,0,1.28-.07,1.34-.16h-1.77v-.06h1.74a3,3,0,0,0-1.19-.13h-.55v-.09H212V79Z"/><path class="cls-10" d="M204.21,77.77V79c0,.7,2.73,1.28,6.1,1.28s6.09-.58,6.09-1.28V77.77Z"/><ellipse class="cls-8" cx="210.31" cy="77.77" rx="6.1" ry="1.27"/><ellipse class="cls-9" cx="210.31" cy="77.62" rx="5.01" ry="0.9"/><path class="cls-10" d="M209.82,76.85c2.76,0,5,.4,5,.9,0,.11-.11.21-.3.3.4-.13.63-.27.63-.43,0-.49-2.24-.9-5-.9a13.47,13.47,0,0,0-4.71.6A16.31,16.31,0,0,1,209.82,76.85Z"/><path class="cls-11" d="M212,77.29h-1.27a.82.82,0,0,1,.43.13H212v.07h-.83c-.07.14-.7.23-1.69.24.6.11,1.26.25,1.91.39h-.74l-1.9-.39v-.09h.43c.83,0,1.28-.06,1.34-.15h-1.77v-.07h1.74a3.09,3.09,0,0,0-1.19-.12h-.55v-.09H212v.08Z"/><path class="cls-10" d="M204.21,76.08v1.28c0,.7,2.73,1.27,6.1,1.27s6.09-.57,6.09-1.27V76.08Z"/><ellipse class="cls-8" cx="210.31" cy="76.08" rx="6.1" ry="1.27"/><ellipse class="cls-9" cx="210.31" cy="75.94" rx="5.01" ry="0.9"/><path class="cls-10" d="M209.82,75.17c2.76,0,5,.4,5,.9,0,.1-.11.2-.3.3.4-.13.63-.28.63-.43,0-.49-2.24-.9-5-.9a13.53,13.53,0,0,0-4.71.59A16.83,16.83,0,0,1,209.82,75.17Z"/><path class="cls-11" d="M212,75.6h-1.27a.8.8,0,0,1,.43.14H212v.07h-.83c-.07.14-.7.23-1.69.23l1.91.4h-.74c-.61-.14-1.17-.26-1.9-.4V76h.43c.83,0,1.28-.06,1.34-.15h-1.77v-.07h1.74a3.09,3.09,0,0,0-1.19-.12h-.55v-.09H212v.07Z"/><path class="cls-10" d="M204.21,74.4v1.28c0,.7,2.73,1.27,6.1,1.27s6.09-.57,6.09-1.27V74.4Z"/><ellipse class="cls-8" cx="210.31" cy="74.4" rx="6.1" ry="1.27"/><path class="cls-9" d="M215.31,74.25c0,.49-2.24.9-5,.9s-5-.4-5-.9,2.24-.89,5-.89S215.31,73.76,215.31,74.25Z"/><path class="cls-10" d="M209.82,73.49c2.76,0,5,.4,5,.89,0,.11-.11.21-.3.31.4-.13.63-.28.63-.44,0-.49-2.24-.89-5-.89a13.53,13.53,0,0,0-4.71.59A16.4,16.4,0,0,1,209.82,73.49Z"/><path class="cls-11" d="M212,73.92h-1.27c.22,0,.38.07.43.14H212v.06h-.83c-.07.14-.7.23-1.69.24.6.11,1.26.25,1.91.39h-.74l-1.9-.39v-.08h.43c.83,0,1.28-.07,1.34-.16h-1.77v-.06h1.74a3.09,3.09,0,0,0-1.19-.12h-.55v-.09H212v.07Z"/><path class="cls-10" d="M204.21,72.72V74c0,.71,2.73,1.28,6.1,1.28s6.09-.57,6.09-1.28V72.72Z"/><ellipse class="cls-8" cx="210.31" cy="72.72" rx="6.1" ry="1.27"/><ellipse class="cls-9" cx="210.31" cy="72.57" rx="5.01" ry="0.9"/><path class="cls-10" d="M209.82,71.8c2.76,0,5,.4,5,.9,0,.11-.11.21-.3.3.4-.13.63-.27.63-.43,0-.49-2.24-.9-5-.9a13.47,13.47,0,0,0-4.71.6A16.31,16.31,0,0,1,209.82,71.8Z"/><path class="cls-11" d="M212,72.24h-1.27a.82.82,0,0,1,.43.13H212v.07h-.83c-.07.14-.7.23-1.69.24.6.11,1.26.25,1.91.39h-.74l-1.9-.39V72.6h.43c.83,0,1.28-.07,1.34-.16h-1.77v-.07h1.74a3.09,3.09,0,0,0-1.19-.12h-.55v-.09H212v.08Z"/><path class="cls-10" d="M204.21,71v1.28c0,.7,2.73,1.27,6.1,1.27s6.09-.57,6.09-1.27V71Z"/><ellipse class="cls-8" cx="210.31" cy="71.03" rx="6.1" ry="1.27"/><ellipse class="cls-9" cx="210.31" cy="70.89" rx="5.01" ry="0.9"/><path class="cls-10" d="M209.82,70.13c2.76,0,5,.4,5,.9,0,.1-.11.2-.3.3.4-.13.63-.28.63-.43,0-.49-2.24-.9-5-.9a13.53,13.53,0,0,0-4.71.59A16.4,16.4,0,0,1,209.82,70.13Z"/><path class="cls-11" d="M212,70.55h-1.27a.9.9,0,0,1,.43.14H212v.07h-.83c-.07.14-.7.23-1.69.23l1.91.4h-.74c-.61-.13-1.17-.26-1.9-.4v-.08h.43c.83,0,1.28-.06,1.34-.15h-1.77v-.07h1.74a3.09,3.09,0,0,0-1.19-.12h-.55v-.09H212v.07Z"/><path class="cls-10" d="M204.21,69.35v1.28c0,.7,2.73,1.27,6.1,1.27s6.09-.57,6.09-1.27V69.35Z"/><path class="cls-8" d="M216.4,69.35c0,.7-2.73,1.28-6.1,1.28s-6.09-.58-6.09-1.28,2.72-1.27,6.09-1.27S216.4,68.65,216.4,69.35Z"/><path class="cls-9" d="M215.31,69.2c0,.5-2.24.9-5,.9s-5-.4-5-.9,2.24-.89,5-.89S215.31,68.71,215.31,69.2Z"/><path class="cls-10" d="M209.82,68.44c2.76,0,5,.41,5,.9,0,.11-.11.21-.3.31.4-.13.63-.28.63-.44,0-.49-2.24-.9-5-.9a13.47,13.47,0,0,0-4.71.6A15.91,15.91,0,0,1,209.82,68.44Z"/><path class="cls-11" d="M212,68.87h-1.27c.22,0,.38.07.43.14H212v.06h-.83c-.07.14-.7.23-1.69.24l1.91.39h-.74l-1.9-.39v-.08h.43c.83,0,1.28-.07,1.34-.16h-1.77V69h1.74a3.09,3.09,0,0,0-1.19-.12h-.55V68.8H212v.07Z"/></g><g class="cls-12"><path class="cls-10" d="M185.41,89.55v1.27c0,.71,2.73,1.28,6.1,1.28s6.09-.57,6.09-1.28V89.55Z"/><ellipse class="cls-8" cx="191.51" cy="89.55" rx="6.1" ry="1.27"/><path class="cls-9" d="M196.51,89.39c0,.49-2.24.9-5,.9s-5-.4-5-.9,2.24-.89,5-.89S196.51,88.9,196.51,89.39Z"/><path class="cls-10" d="M191,88.63c2.76,0,5,.4,5,.9,0,.11-.1.21-.29.31.4-.14.63-.28.63-.44,0-.49-2.24-.9-5-.9a13.47,13.47,0,0,0-4.71.6A15.81,15.81,0,0,1,191,88.63Z"/><path class="cls-11" d="M193.23,89.06H192c.22,0,.38.07.43.14h.84v.06h-.83c-.07.14-.7.23-1.69.24.6.11,1.26.25,1.91.39h-.74L190,89.5v-.08h.43c.83,0,1.28-.07,1.34-.16H190V89.2h1.74a3.09,3.09,0,0,0-1.19-.12H190V89h3.25v.07Z"/><path class="cls-10" d="M185.41,87.87v1.27c0,.7,2.73,1.28,6.1,1.28s6.09-.58,6.09-1.28V87.87Z"/><ellipse class="cls-8" cx="191.51" cy="87.87" rx="6.1" ry="1.27"/><ellipse class="cls-9" cx="191.51" cy="87.71" rx="5.01" ry="0.9"/><path class="cls-10" d="M191,87c2.76,0,5,.4,5,.9,0,.11-.1.2-.29.3.4-.13.63-.28.63-.43,0-.49-2.24-.9-5-.9a13.47,13.47,0,0,0-4.71.6A16.2,16.2,0,0,1,191,87Z"/><path class="cls-11" d="M193.23,87.38H192a.9.9,0,0,1,.43.14h.84v.07h-.83c-.07.14-.7.23-1.69.24.6.11,1.26.25,1.91.39h-.74c-.61-.13-1.17-.26-1.9-.39v-.09h.43c.83,0,1.28-.06,1.34-.15H190v-.07h1.74a3.09,3.09,0,0,0-1.19-.12H190v-.09h3.25v.07Z"/><path class="cls-10" d="M185.41,86.18v1.28c0,.7,2.73,1.27,6.1,1.27s6.09-.57,6.09-1.27V86.18Z"/><ellipse class="cls-8" cx="191.51" cy="86.18" rx="6.1" ry="1.27"/><ellipse class="cls-9" cx="191.51" cy="86.03" rx="5.01" ry="0.9"/><path class="cls-10" d="M191,85.27c2.76,0,5,.4,5,.9,0,.1-.1.2-.29.3.4-.13.63-.28.63-.43,0-.49-2.24-.9-5-.9a13.53,13.53,0,0,0-4.71.59A16.71,16.71,0,0,1,191,85.27Z"/><path class="cls-11" d="M193.23,85.7H192c.22,0,.38.07.43.14h.84v.07h-.83c-.07.13-.7.22-1.69.23l1.91.39h-.74l-1.9-.39v-.08h.43a3.06,3.06,0,0,0,1.34-.15H190v-.07h1.74a3.09,3.09,0,0,0-1.19-.12H190v-.09h3.25v.07Z"/><path class="cls-10" d="M185.41,84.5v1.27c0,.71,2.73,1.28,6.1,1.28s6.09-.57,6.09-1.28V84.5Z"/><ellipse class="cls-8" cx="191.51" cy="84.5" rx="6.1" ry="1.27"/><path class="cls-9" d="M196.51,84.34c0,.49-2.24.9-5,.9s-5-.4-5-.9,2.24-.89,5-.89S196.51,83.85,196.51,84.34Z"/><path class="cls-10" d="M191,83.58c2.76,0,5,.41,5,.9,0,.11-.1.21-.29.31.4-.13.63-.28.63-.44,0-.49-2.24-.9-5-.9a13.47,13.47,0,0,0-4.71.6A16.2,16.2,0,0,1,191,83.58Z"/><path class="cls-11" d="M193.23,84H192c.22,0,.38.07.43.14h.84v.06h-.83c-.07.14-.7.23-1.69.24.6.11,1.26.25,1.91.39h-.74l-1.9-.39v-.08h.43c.83,0,1.28-.07,1.34-.16H190v-.06h1.74a2.81,2.81,0,0,0-1.19-.13H190v-.09h3.25V84Z"/><path class="cls-10" d="M185.41,82.82v1.27c0,.7,2.73,1.28,6.1,1.28s6.09-.58,6.09-1.28V82.82Z"/><ellipse class="cls-8" cx="191.51" cy="82.82" rx="6.1" ry="1.27"/><ellipse class="cls-9" cx="191.51" cy="82.66" rx="5.01" ry="0.9"/><path class="cls-10" d="M191,81.9c2.76,0,5,.4,5,.9,0,.11-.1.2-.29.3.4-.13.63-.28.63-.43,0-.49-2.24-.9-5-.9a13.47,13.47,0,0,0-4.71.6A16.2,16.2,0,0,1,191,81.9Z"/><path class="cls-11" d="M193.23,82.33H192a.9.9,0,0,1,.43.14h.84v.07h-.83c-.07.14-.7.23-1.69.24.6.11,1.26.25,1.91.39h-.74c-.61-.13-1.17-.26-1.9-.39v-.09h.43c.83,0,1.28-.06,1.34-.15H190v-.07h1.74a3.09,3.09,0,0,0-1.19-.12H190v-.09h3.25v.07Z"/><path class="cls-10" d="M185.41,81.13v1.28c0,.7,2.73,1.27,6.1,1.27s6.09-.57,6.09-1.27V81.13Z"/><ellipse class="cls-8" cx="191.51" cy="81.13" rx="6.1" ry="1.27"/><path class="cls-9" d="M196.51,81c0,.49-2.24.9-5,.9s-5-.4-5-.9,2.24-.9,5-.9S196.51,80.49,196.51,81Z"/><path class="cls-10" d="M191,80.22c2.76,0,5,.4,5,.9,0,.1-.1.2-.29.3.4-.13.63-.28.63-.43,0-.49-2.24-.9-5-.9a13.53,13.53,0,0,0-4.71.59A16.71,16.71,0,0,1,191,80.22Z"/><path class="cls-11" d="M193.23,80.65H192a.8.8,0,0,1,.43.14h.84v.07h-.83c-.07.13-.7.22-1.69.23l1.91.39h-.74l-1.9-.39V81h.43c.83,0,1.28-.06,1.34-.15H190v-.07h1.74a3.09,3.09,0,0,0-1.19-.12H190v-.09h3.25v.07Z"/><path class="cls-10" d="M185.41,79.45v1.28c0,.7,2.73,1.27,6.1,1.27s6.09-.57,6.09-1.27V79.45Z"/><ellipse class="cls-8" cx="191.51" cy="79.45" rx="6.1" ry="1.27"/><path class="cls-9" d="M196.51,79.3c0,.49-2.24.9-5,.9s-5-.4-5-.9,2.24-.9,5-.9S196.51,78.81,196.51,79.3Z"/><path class="cls-10" d="M191,78.54c2.76,0,5,.4,5,.89,0,.11-.1.21-.29.31.4-.13.63-.28.63-.44,0-.49-2.24-.9-5-.9a13.47,13.47,0,0,0-4.71.6A16.29,16.29,0,0,1,191,78.54Z"/><path class="cls-11" d="M193.23,79H192c.22,0,.38.07.43.14h.84v.06h-.83c-.07.14-.7.23-1.69.24.6.11,1.26.25,1.91.39h-.74l-1.9-.39v-.08h.43c.83,0,1.28-.07,1.34-.16H190v-.06h1.74a3,3,0,0,0-1.19-.13H190v-.09h3.25V79Z"/><path class="cls-10" d="M185.41,77.77V79c0,.7,2.73,1.28,6.1,1.28s6.09-.58,6.09-1.28V77.77Z"/><ellipse class="cls-8" cx="191.51" cy="77.77" rx="6.1" ry="1.27"/><ellipse class="cls-9" cx="191.51" cy="77.62" rx="5.01" ry="0.9"/><path class="cls-10" d="M191,76.85c2.76,0,5,.4,5,.9,0,.11-.1.21-.29.3.4-.13.63-.27.63-.43,0-.49-2.24-.9-5-.9a13.47,13.47,0,0,0-4.71.6A16.2,16.2,0,0,1,191,76.85Z"/><path class="cls-11" d="M193.23,77.29H192a.82.82,0,0,1,.43.13h.84v.07h-.83c-.07.14-.7.23-1.69.24.6.11,1.26.25,1.91.39h-.74l-1.9-.39v-.09h.43c.83,0,1.28-.06,1.34-.15H190v-.07h1.74a3.09,3.09,0,0,0-1.19-.12H190v-.09h3.25v.08Z"/><path class="cls-10" d="M185.41,76.08v1.28c0,.7,2.73,1.27,6.1,1.27s6.09-.57,6.09-1.27V76.08Z"/><ellipse class="cls-8" cx="191.51" cy="76.08" rx="6.1" ry="1.27"/><ellipse class="cls-9" cx="191.51" cy="75.94" rx="5.01" ry="0.9"/><path class="cls-10" d="M191,75.17c2.76,0,5,.4,5,.9,0,.1-.1.2-.29.3.4-.13.63-.28.63-.43,0-.49-2.24-.9-5-.9a13.53,13.53,0,0,0-4.71.59A16.71,16.71,0,0,1,191,75.17Z"/><path class="cls-11" d="M193.23,75.6H192a.8.8,0,0,1,.43.14h.84v.07h-.83c-.07.14-.7.23-1.69.23l1.91.4h-.74c-.61-.14-1.17-.26-1.9-.4V76h.43c.83,0,1.28-.06,1.34-.15H190v-.07h1.74a3.09,3.09,0,0,0-1.19-.12H190v-.09h3.25v.07Z"/></g><g class="cls-12"><path class="cls-10" d="M166.81,89.55v1.27c0,.71,2.73,1.28,6.09,1.28s6.1-.57,6.1-1.28V89.55Z"/><ellipse class="cls-8" cx="172.9" cy="89.55" rx="6.1" ry="1.27"/><path class="cls-9" d="M177.91,89.39c0,.49-2.24.9-5,.9s-5-.4-5-.9,2.23-.89,5-.89S177.91,88.9,177.91,89.39Z"/><path class="cls-10" d="M172.42,88.63c2.76,0,5,.4,5,.9,0,.11-.11.21-.29.31.4-.14.63-.28.63-.44,0-.49-2.24-.9-5-.9a13.53,13.53,0,0,0-4.72.6A15.91,15.91,0,0,1,172.42,88.63Z"/><path class="cls-11" d="M174.63,89.06h-1.28a.76.76,0,0,1,.44.14h.84v.06h-.84c-.07.14-.7.23-1.69.24.61.11,1.26.25,1.92.39h-.75l-1.89-.39v-.08h.42c.83,0,1.28-.07,1.34-.16h-1.76V89.2h1.74a3.16,3.16,0,0,0-1.2-.12h-.54V89h3.25v.07Z"/><path class="cls-10" d="M166.81,87.87v1.27c0,.7,2.73,1.28,6.09,1.28s6.1-.58,6.1-1.28V87.87Z"/><ellipse class="cls-8" cx="172.9" cy="87.87" rx="6.1" ry="1.27"/><ellipse class="cls-9" cx="172.9" cy="87.71" rx="5.01" ry="0.9"/><path class="cls-10" d="M172.42,87c2.76,0,5,.4,5,.9,0,.11-.11.2-.29.3.4-.13.63-.28.63-.43,0-.49-2.24-.9-5-.9a13.53,13.53,0,0,0-4.72.6A16.31,16.31,0,0,1,172.42,87Z"/><path class="cls-11" d="M174.63,87.38h-1.28a1,1,0,0,1,.44.14h.84v.07h-.84c-.07.14-.7.23-1.69.24.61.11,1.26.25,1.92.39h-.75c-.6-.13-1.17-.26-1.89-.39v-.09h.42c.83,0,1.28-.06,1.34-.15h-1.76v-.07h1.74a3.16,3.16,0,0,0-1.2-.12h-.54v-.09h3.25v.07Z"/><path class="cls-10" d="M166.81,86.18v1.28c0,.7,2.73,1.27,6.09,1.27s6.1-.57,6.1-1.27V86.18Z"/><ellipse class="cls-8" cx="172.9" cy="86.18" rx="6.1" ry="1.27"/><ellipse class="cls-9" cx="172.9" cy="86.03" rx="5.01" ry="0.9"/><path class="cls-10" d="M172.42,85.27c2.76,0,5,.4,5,.9,0,.1-.11.2-.29.3.4-.13.63-.28.63-.43,0-.49-2.24-.9-5-.9a13.6,13.6,0,0,0-4.72.59A16.83,16.83,0,0,1,172.42,85.27Z"/><path class="cls-11" d="M174.63,85.7h-1.28a.76.76,0,0,1,.44.14h.84v.07h-.84c-.07.13-.7.22-1.69.23l1.92.39h-.75l-1.89-.39v-.08h.42a3.06,3.06,0,0,0,1.34-.15h-1.76v-.07h1.74a3.16,3.16,0,0,0-1.2-.12h-.54v-.09h3.25v.07Z"/><path class="cls-10" d="M166.81,84.5v1.27c0,.71,2.73,1.28,6.09,1.28s6.1-.57,6.1-1.28V84.5Z"/><ellipse class="cls-8" cx="172.9" cy="84.5" rx="6.1" ry="1.27"/><path class="cls-9" d="M177.91,84.34c0,.49-2.24.9-5,.9s-5-.4-5-.9,2.23-.89,5-.89S177.91,83.85,177.91,84.34Z"/><path class="cls-10" d="M172.42,83.58c2.76,0,5,.41,5,.9,0,.11-.11.21-.29.31.4-.13.63-.28.63-.44,0-.49-2.24-.9-5-.9a13.53,13.53,0,0,0-4.72.6A16.31,16.31,0,0,1,172.42,83.58Z"/><path class="cls-11" d="M174.63,84h-1.28a.76.76,0,0,1,.44.14h.84v.06h-.84c-.07.14-.7.23-1.69.24.61.11,1.26.25,1.92.39h-.75l-1.89-.39v-.08h.42c.83,0,1.28-.07,1.34-.16h-1.76v-.06h1.74a2.87,2.87,0,0,0-1.2-.13h-.54v-.09h3.25V84Z"/><path class="cls-10" d="M166.81,82.82v1.27c0,.7,2.73,1.28,6.09,1.28s6.1-.58,6.1-1.28V82.82Z"/><ellipse class="cls-8" cx="172.9" cy="82.82" rx="6.1" ry="1.27"/><ellipse class="cls-9" cx="172.9" cy="82.66" rx="5.01" ry="0.9"/><path class="cls-10" d="M172.42,81.9c2.76,0,5,.4,5,.9,0,.11-.11.2-.29.3.4-.13.63-.28.63-.43,0-.49-2.24-.9-5-.9a13.53,13.53,0,0,0-4.72.6A16.31,16.31,0,0,1,172.42,81.9Z"/><path class="cls-11" d="M174.63,82.33h-1.28a1,1,0,0,1,.44.14h.84v.07h-.84c-.07.14-.7.23-1.69.24.61.11,1.26.25,1.92.39h-.75c-.6-.13-1.17-.26-1.89-.39v-.09h.42c.83,0,1.28-.06,1.34-.15h-1.76v-.07h1.74a3.16,3.16,0,0,0-1.2-.12h-.54v-.09h3.25v.07Z"/></g><polygon class="cls-13" points="242.84 97.88 239.6 103.14 218 89.62 221.24 84.35 242.84 97.88"/><path class="cls-14" d="M218.32,89.83l12.68.64-9.44-5.9A32.84,32.84,0,0,1,218.32,89.83Z"/><ellipse class="cls-15" cx="199.38" cy="73.38" rx="24.17" ry="23.96" transform="translate(121.89 271.2) rotate(-88.81)"/><path class="cls-14" d="M208.39,92.29a31.89,31.89,0,0,1-13.21.95,28.18,28.18,0,0,1-12.37-4.35,18.45,18.45,0,0,1-4-3.68,23.85,23.85,0,0,0,39.64,2.13A30.57,30.57,0,0,1,208.39,92.29Z"/><path class="cls-16" d="M262.24,112.61l-1.4,2.28a3.14,3.14,0,0,1-4.36,1l-22.14-13.85a.53.53,0,0,1-.17-.73l4.18-6.81a.54.54,0,0,1,.72-.17l22.14,13.86A3.2,3.2,0,0,1,262.24,112.61Z"/><polygon class="cls-4" points="242.99 96.58 238.26 104.28 237.34 103.71 242.07 96 242.99 96.58"/><polygon class="cls-4" points="245.16 98 240.43 105.7 239.51 105.13 244.25 97.42 245.16 98"/><path class="cls-17" d="M221.2,87a25.59,25.59,0,0,1-35.37,8.36,26.08,26.08,0,0,1-8.29-35.68,25.59,25.59,0,0,1,35.37-8.36A26.07,26.07,0,0,1,221.2,87ZM179.54,61a23.71,23.71,0,0,0,7.53,32.43,23.26,23.26,0,0,0,32.14-7.6,23.7,23.7,0,0,0-7.53-32.43A23.24,23.24,0,0,0,179.54,61Z"/><path class="cls-18" d="M202,52.65a16.24,16.24,0,0,0-10.39,1c-2.78,1.23-5.48,3.56-6.27,6.6-.12.47.44,1,.84.58a19.53,19.53,0,0,1,6.37-4.72c2.86-1.22,5.89-1.08,8.92-.92C202.88,55.28,203.48,53,202,52.65Z"/></svg>