<svg id="Layer_1" data-name="Layer 1" xmlns="http://www.w3.org/2000/svg" xmlns:xlink="http://www.w3.org/1999/xlink" viewBox="0 0 280 120"><defs><style>.cls-1{fill:url(#linear-gradient);}.cls-2{fill:#35cb5d;}.cls-3{fill:#fff;}.cls-10,.cls-11,.cls-12,.cls-13,.cls-14,.cls-15,.cls-16,.cls-17,.cls-18,.cls-19,.cls-20,.cls-21,.cls-22,.cls-23,.cls-24,.cls-25,.cls-26,.cls-27,.cls-28,.cls-4,.cls-5,.cls-6,.cls-7,.cls-8,.cls-9{fill-rule:evenodd;}.cls-4{fill:url(#linear-gradient-2);}.cls-5{fill:url(#linear-gradient-3);}.cls-6{fill:url(#linear-gradient-4);}.cls-7{fill:url(#linear-gradient-5);}.cls-8{fill:url(#linear-gradient-6);}.cls-9{fill:url(#linear-gradient-7);}.cls-10{fill:url(#linear-gradient-8);}.cls-11{fill:url(#linear-gradient-9);}.cls-12{fill:url(#linear-gradient-10);}.cls-13{fill:#ef66a4;}.cls-14{fill:url(#linear-gradient-11);}.cls-15{fill:#f5adcd;}.cls-16{fill:#b11e50;}.cls-17{fill:#e42c7c;}.cls-18{fill:#f17eb1;}.cls-19{fill:url(#linear-gradient-12);}.cls-20,.cls-30{fill:#f9b331;}.cls-21{fill:#ffd962;}.cls-22,.cls-29{fill:#f7a000;}.cls-23{fill:#e0a12c;}.cls-24{fill:#ffe080;}.cls-25{fill:#e6c358;}.cls-26{fill:#de9000;}.cls-27{fill:#ca9128;}.cls-28{fill:#e6ca73;}</style><linearGradient id="linear-gradient" x1="202.2" y1="-47.15" x2="49.79" y2="217.09" gradientTransform="translate(280 121.39) rotate(-180)" gradientUnits="userSpaceOnUse"><stop offset="0" stop-color="#8361a8"/><stop offset="0.63" stop-color="#4d4e9f"/><stop offset="1" stop-color="#32449b"/></linearGradient><linearGradient id="linear-gradient-2" x1="166.36" y1="110.77" x2="168.21" y2="82.66" gradientUnits="userSpaceOnUse"><stop offset="0.43" stop-color="#a6dde8"/><stop offset="1" stop-color="#fff"/></linearGradient><linearGradient id="linear-gradient-3" x1="169.05" y1="69.66" x2="172.2" y2="82.03" xlink:href="#linear-gradient-2"/><linearGradient id="linear-gradient-4" x1="178.24" y1="110.9" x2="175.2" y2="87.24" xlink:href="#linear-gradient-2"/><linearGradient id="linear-gradient-5" x1="184.95" y1="98.97" x2="187.41" y2="61.4" xlink:href="#linear-gradient-2"/><linearGradient id="linear-gradient-6" x1="187.47" y1="47.32" x2="190.62" y2="59.69" xlink:href="#linear-gradient-2"/><linearGradient id="linear-gradient-7" x1="197.99" y1="99.37" x2="193.89" y2="67.41" xlink:href="#linear-gradient-2"/><linearGradient id="linear-gradient-8" x1="201.75" y1="92.18" x2="204.94" y2="43.64" xlink:href="#linear-gradient-2"/><linearGradient id="linear-gradient-9" x1="204.86" y1="28.34" x2="208.01" y2="40.71" xlink:href="#linear-gradient-2"/><linearGradient id="linear-gradient-10" x1="216.13" y1="92.71" x2="210.82" y2="51.39" xlink:href="#linear-gradient-2"/><linearGradient id="linear-gradient-11" x1="200.87" y1="76.59" x2="205.41" y2="76.59" gradientTransform="translate(17.88 -36.61) rotate(11.46)" gradientUnits="userSpaceOnUse"><stop offset="0.35" stop-color="#5c8eca"/><stop offset="0.58" stop-color="#95bee5"/></linearGradient><linearGradient id="linear-gradient-12" x1="199.06" y1="72.75" x2="200.57" y2="72.75" gradientTransform="matrix(1, 0, 0, 1, 0, 0)" xlink:href="#linear-gradient-11"/></defs><rect class="cls-1" width="280" height="121.39" transform="translate(280 121.39) rotate(180)"/><path class="cls-2" d="M220,7.11h56.91a5.48,5.48,0,0,1,5.48,5.48v9.28a5.48,5.48,0,0,1-5.48,5.48H220a0,0,0,0,1,0,0V7.11a0,0,0,0,1,0,0Z" transform="translate(502.36 34.46) rotate(-180)"/><path class="cls-3" d="M227.1,20.78a.29.29,0,0,1-.07-.18V13.42a.27.27,0,0,1,.07-.19.22.22,0,0,1,.18-.08h.48a.29.29,0,0,1,.17,0,1.13,1.13,0,0,1,.11.11L231.72,19V13.42a.24.24,0,0,1,.07-.19.25.25,0,0,1,.18-.08h.5a.26.26,0,0,1,.19.08.24.24,0,0,1,.07.19v7.17a.26.26,0,0,1-.07.19.24.24,0,0,1-.18.07H232a.27.27,0,0,1-.26-.15L228,15.08V20.6a.25.25,0,0,1-.08.18.21.21,0,0,1-.18.07h-.5A.21.21,0,0,1,227.1,20.78Z"/><path class="cls-3" d="M234.72,20.78a.28.28,0,0,1-.06-.18V13.42a.27.27,0,0,1,.06-.19.25.25,0,0,1,.18-.08h4.47a.26.26,0,0,1,.19.08.24.24,0,0,1,.07.19v.41a.24.24,0,0,1-.07.18.29.29,0,0,1-.19.07h-3.69v2.61h3.47a.25.25,0,0,1,.19.07.21.21,0,0,1,.07.18v.42a.25.25,0,0,1-.08.18.24.24,0,0,1-.18.07h-3.47v3a.25.25,0,0,1-.08.18.24.24,0,0,1-.18.07h-.52A.24.24,0,0,1,234.72,20.78Z"/><path class="cls-3" d="M241.55,20.21a3.15,3.15,0,0,1-.82-2.27c0-.22,0-.53,0-.94s0-.71,0-.92a3.13,3.13,0,0,1,.85-2.27,3.05,3.05,0,0,1,2.18-.77,3,3,0,0,1,2.18.77,3.13,3.13,0,0,1,.85,2.27c0,.43,0,.73,0,.92s0,.5,0,.94a3.15,3.15,0,0,1-.82,2.27,3,3,0,0,1-2.21.75A3.08,3.08,0,0,1,241.55,20.21Zm3.62-.69a2.36,2.36,0,0,0,.58-1.64c0-.44,0-.73,0-.88s0-.45,0-.88a2.38,2.38,0,0,0-.58-1.64,1.91,1.91,0,0,0-1.41-.53,1.94,1.94,0,0,0-1.41.53,2.38,2.38,0,0,0-.56,1.64c0,.22,0,.51,0,.88s0,.66,0,.88a2.31,2.31,0,0,0,.56,1.64,2.14,2.14,0,0,0,2.82,0Z"/><path class="cls-3" d="M250.17,20.79a.21.21,0,0,1-.07-.16l0-.12,2.73-7.11a.34.34,0,0,1,.35-.25h.71a.34.34,0,0,1,.35.25L257,20.51l0,.12a.21.21,0,0,1-.07.16.25.25,0,0,1-.16.06h-.52a.28.28,0,0,1-.18-.06.24.24,0,0,1-.09-.12l-.62-1.59h-3.64l-.61,1.59a.28.28,0,0,1-.27.18h-.53A.2.2,0,0,1,250.17,20.79Zm1.88-2.62h3l-1.51-4Z"/><path class="cls-3" d="M258.14,20.78a.25.25,0,0,1-.08-.18V13.3a.24.24,0,0,1,.08-.19.25.25,0,0,1,.18-.07h.48a.22.22,0,0,1,.18.08.21.21,0,0,1,.07.18v7.3a.24.24,0,0,1-.07.18.21.21,0,0,1-.18.07h-.48A.21.21,0,0,1,258.14,20.78Z"/><path class="cls-3" d="M261.18,20.27a2.87,2.87,0,0,1-.74-1.91v-.74a2.84,2.84,0,0,1,.74-1.89,2.65,2.65,0,0,1,3.67.06,3.12,3.12,0,0,1,.66,2.09v.2a.21.21,0,0,1-.07.18.24.24,0,0,1-.18.07h-3.82v.1a2,2,0,0,0,.44,1.22,1.31,1.31,0,0,0,1.08.51,1.61,1.61,0,0,0,.84-.2,1.77,1.77,0,0,0,.49-.43,1.27,1.27,0,0,1,.15-.16l.19,0h.49a.34.34,0,0,1,.17,0,.21.21,0,0,1,.07.14,1,1,0,0,1-.3.59,2.5,2.5,0,0,1-.84.59A3.06,3.06,0,0,1,263,21,2.38,2.38,0,0,1,261.18,20.27Zm3.33-2.68v0a1.84,1.84,0,0,0-.42-1.25,1.41,1.41,0,0,0-1.12-.48,1.38,1.38,0,0,0-1.12.48,1.88,1.88,0,0,0-.41,1.25v0Z"/><path class="cls-3" d="M266.93,20.78a.25.25,0,0,1-.08-.18V15.4a.26.26,0,0,1,.08-.19.22.22,0,0,1,.18-.08h.46a.26.26,0,0,1,.19.08.24.24,0,0,1,.07.19v.48a1.64,1.64,0,0,1,1.53-.75h.43a.29.29,0,0,1,.19.07.27.27,0,0,1,.06.19v.4A.29.29,0,0,1,270,16a.29.29,0,0,1-.19.07h-.63a1.25,1.25,0,0,0-1,.35,1.3,1.3,0,0,0-.34,1V20.6a.26.26,0,0,1-.27.25h-.49A.21.21,0,0,1,266.93,20.78Z"/><path class="cls-3" d="M271.48,18.93V16h-.86a.24.24,0,0,1-.18-.06.29.29,0,0,1-.07-.18v-.35a.25.25,0,0,1,.07-.18.22.22,0,0,1,.18-.08h.86V13.3a.25.25,0,0,1,.07-.18.22.22,0,0,1,.18-.08h.48a.25.25,0,0,1,.18.08.21.21,0,0,1,.07.18v1.83h1.37a.25.25,0,0,1,.18.08.21.21,0,0,1,.07.18v.35a.24.24,0,0,1-.07.18.28.28,0,0,1-.18.06h-1.37v2.87a1.51,1.51,0,0,0,.19.85.67.67,0,0,0,.62.28h.67a.26.26,0,0,1,.24.26v.36a.24.24,0,0,1-.07.18.21.21,0,0,1-.17.07h-.75Q271.48,20.85,271.48,18.93Z"/><path class="cls-3" d="M32.24,33.74a.35.35,0,0,1-.13-.28V22.87a.41.41,0,0,1,.12-.3.37.37,0,0,1,.29-.12h1.84a.6.6,0,0,1,.56.31l3.85,6.08v-6a.44.44,0,0,1,.11-.3.41.41,0,0,1,.3-.12h2.07a.38.38,0,0,1,.29.12.4.4,0,0,1,.11.3V33.44a.4.4,0,0,1-.11.3.38.38,0,0,1-.29.12H39.4a.59.59,0,0,1-.55-.3L35,27.72v5.74a.36.36,0,0,1-.13.29.4.4,0,0,1-.3.11H32.52A.38.38,0,0,1,32.24,33.74Z"/><path class="cls-3" d="M43.81,24.09a.41.41,0,0,1-.12-.3V22.27a.43.43,0,0,1,.41-.42h2a.41.41,0,0,1,.42.42v1.52a.41.41,0,0,1-.42.42h-2A.37.37,0,0,1,43.81,24.09Zm0,9.65a.35.35,0,0,1-.13-.28V25.79a.35.35,0,0,1,.13-.29.38.38,0,0,1,.28-.12h2a.41.41,0,0,1,.3.12.37.37,0,0,1,.12.29v7.67a.38.38,0,0,1-.12.29.4.4,0,0,1-.3.11h-2A.38.38,0,0,1,43.82,33.74Z"/><path class="cls-3" d="M48.54,36.85a.38.38,0,0,1-.12-.29V25.79a.37.37,0,0,1,.12-.29.45.45,0,0,1,.31-.12h1.94a.38.38,0,0,1,.29.12.36.36,0,0,1,.11.29v.59a3,3,0,0,1,2.53-1.16,3.2,3.2,0,0,1,2.49,1,4.24,4.24,0,0,1,1,2.81c0,.14,0,.34,0,.6s0,.47,0,.62a4.23,4.23,0,0,1-1,2.78,3.18,3.18,0,0,1-2.48,1A2.72,2.72,0,0,1,51.36,33v3.61a.38.38,0,0,1-.12.29A.36.36,0,0,1,51,37h-2.1A.44.44,0,0,1,48.54,36.85Zm5.29-5.52a2.33,2.33,0,0,0,.37-1.2c0-.11,0-.28,0-.51s0-.39,0-.5a2.33,2.33,0,0,0-.37-1.2,1.21,1.21,0,0,0-1-.43,1.24,1.24,0,0,0-1.05.45,2,2,0,0,0-.37,1.13c0,.14,0,.35,0,.62s0,.46,0,.6a1.75,1.75,0,0,0,.38,1.06,1.31,1.31,0,0,0,1,.41A1.21,1.21,0,0,0,53.83,31.33Z"/><path class="cls-3" d="M58.88,36.85a.38.38,0,0,1-.12-.29V25.79a.37.37,0,0,1,.12-.29.45.45,0,0,1,.31-.12h1.94a.38.38,0,0,1,.29.12.36.36,0,0,1,.11.29v.59a3,3,0,0,1,2.53-1.16,3.2,3.2,0,0,1,2.49,1,4.24,4.24,0,0,1,1,2.81c0,.14,0,.34,0,.6s0,.47,0,.62a4.23,4.23,0,0,1-1,2.78,3.18,3.18,0,0,1-2.48,1A2.72,2.72,0,0,1,61.7,33v3.61a.38.38,0,0,1-.12.29.36.36,0,0,1-.29.11h-2.1A.44.44,0,0,1,58.88,36.85Zm5.29-5.52a2.33,2.33,0,0,0,.37-1.2c0-.11,0-.28,0-.51s0-.39,0-.5a2.33,2.33,0,0,0-.37-1.2,1.21,1.21,0,0,0-1.05-.43,1.24,1.24,0,0,0-1,.45,1.93,1.93,0,0,0-.37,1.13c0,.14,0,.35,0,.62s0,.46,0,.6a1.75,1.75,0,0,0,.38,1.06,1.3,1.3,0,0,0,1,.41A1.21,1.21,0,0,0,64.17,31.33Z"/><path class="cls-3" d="M70,33.07a3.7,3.7,0,0,1-1.2-2.71c0-.14,0-.39,0-.74s0-.59,0-.73a3.67,3.67,0,0,1,1.24-2.7,5.5,5.5,0,0,1,6.24,0,3.63,3.63,0,0,1,1.23,2.7c0,.28,0,.53,0,.73s0,.46,0,.74a3.63,3.63,0,0,1-1.2,2.71,5.66,5.66,0,0,1-6.31,0Zm4.15-1.51a2.26,2.26,0,0,0,.38-1.28c0-.11,0-.33,0-.66s0-.54,0-.65a2.25,2.25,0,0,0-.38-1.27,1.17,1.17,0,0,0-1-.42,1.19,1.19,0,0,0-1,.42A2.34,2.34,0,0,0,71.81,29l0,.65,0,.66a2.35,2.35,0,0,0,.37,1.28,1.21,1.21,0,0,0,1,.41A1.19,1.19,0,0,0,74.17,31.56Z"/><path class="cls-3" d="M79.24,33.74a.38.38,0,0,1-.12-.28V25.79a.37.37,0,0,1,.12-.29.38.38,0,0,1,.28-.12h2a.41.41,0,0,1,.41.41v.62a3.06,3.06,0,0,1,1.13-.86,3.64,3.64,0,0,1,1.59-.33,3.28,3.28,0,0,1,1.66.42,3,3,0,0,1,1.14,1.26,4.56,4.56,0,0,1,.41,2v4.55a.37.37,0,0,1-.11.28.38.38,0,0,1-.29.12H85.3a.44.44,0,0,1-.31-.11.38.38,0,0,1-.12-.29V29a1.6,1.6,0,0,0-.35-1.12,1.29,1.29,0,0,0-1-.39,1.32,1.32,0,0,0-1,.4A1.51,1.51,0,0,0,82.1,29v4.46a.39.39,0,0,1-.41.4H79.52A.38.38,0,0,1,79.24,33.74Z"/><path class="cls-3" d="M93.38,33.74a.38.38,0,0,1-.12-.28V22.86a.39.39,0,0,1,.4-.41H96a.44.44,0,0,1,.29.11.44.44,0,0,1,.11.3v10.6a.41.41,0,0,1-.11.28.4.4,0,0,1-.29.12H93.66A.38.38,0,0,1,93.38,33.74Z"/><path class="cls-3" d="M98.56,33.74a.38.38,0,0,1-.12-.28V25.79a.37.37,0,0,1,.12-.29.4.4,0,0,1,.29-.12h2a.41.41,0,0,1,.3.12.4.4,0,0,1,.11.29v.62a3.1,3.1,0,0,1,1.14-.86,3.64,3.64,0,0,1,1.59-.33,3.21,3.21,0,0,1,1.65.42,3,3,0,0,1,1.14,1.26,4.42,4.42,0,0,1,.42,2v4.55a.38.38,0,0,1-.12.28.37.37,0,0,1-.29.12h-2.17a.4.4,0,0,1-.3-.11.38.38,0,0,1-.12-.29V29a1.65,1.65,0,0,0-.35-1.12,1.53,1.53,0,0,0-2,0,1.55,1.55,0,0,0-.37,1.11v4.46a.38.38,0,0,1-.12.28.38.38,0,0,1-.29.12H98.85A.4.4,0,0,1,98.56,33.74Z"/><path class="cls-3" d="M109.67,33a4.3,4.3,0,0,1-1-2.83l0-.58,0-.58a4.26,4.26,0,0,1,1-2.8,3.15,3.15,0,0,1,2.48-1,3.1,3.1,0,0,1,2.36,1V22.69a.38.38,0,0,1,.12-.29.41.41,0,0,1,.29-.11H117a.44.44,0,0,1,.31.11.38.38,0,0,1,.12.29V33.46a.38.38,0,0,1-.12.29.44.44,0,0,1-.31.11h-1.94a.38.38,0,0,1-.28-.12.39.39,0,0,1-.13-.28V33A3.06,3.06,0,0,1,112.16,34,3.17,3.17,0,0,1,109.67,33Zm4.48-1.72a2,2,0,0,0,.37-1.13c0-.31,0-.51,0-.62s0-.32,0-.6a1.75,1.75,0,0,0-.38-1.06,1.31,1.31,0,0,0-1-.41,1.21,1.21,0,0,0-1,.43,2.33,2.33,0,0,0-.37,1.2v1a2.33,2.33,0,0,0,.37,1.2,1.21,1.21,0,0,0,1,.43A1.24,1.24,0,0,0,114.15,31.31Z"/><path class="cls-3" d="M119.43,24.09a.4.4,0,0,1-.11-.3V22.27a.41.41,0,0,1,.12-.3.38.38,0,0,1,.28-.12h2a.41.41,0,0,1,.3.12.38.38,0,0,1,.13.3v1.52a.38.38,0,0,1-.13.3.41.41,0,0,1-.3.12h-2A.38.38,0,0,1,119.43,24.09Zm0,9.65a.38.38,0,0,1-.12-.28V25.79a.37.37,0,0,1,.12-.29.38.38,0,0,1,.28-.12h2a.41.41,0,0,1,.3.12.35.35,0,0,1,.13.29v7.67a.36.36,0,0,1-.13.29.4.4,0,0,1-.3.11h-2A.38.38,0,0,1,119.44,33.74Z"/><path class="cls-3" d="M125,33.69a2.73,2.73,0,0,1-1.11-.92,2.29,2.29,0,0,1-.4-1.29,2.14,2.14,0,0,1,.93-1.8,5.61,5.61,0,0,1,2.53-.95l2-.31v-.2a1.34,1.34,0,0,0-.24-.88,1.08,1.08,0,0,0-.83-.28,1.15,1.15,0,0,0-.55.12,2.77,2.77,0,0,0-.5.34,1.69,1.69,0,0,1-.37.26c-.05.08-.1.12-.16.12h-1.9a.37.37,0,0,1-.27-.11.3.3,0,0,1-.09-.25,1.85,1.85,0,0,1,.44-1,3.48,3.48,0,0,1,1.29-.94,5.21,5.21,0,0,1,2.14-.39,4.35,4.35,0,0,1,3,.89,3.09,3.09,0,0,1,1,2.41v4.94a.39.39,0,0,1-.41.4h-2a.4.4,0,0,1-.29-.12.38.38,0,0,1-.12-.28v-.57a2.65,2.65,0,0,1-1,.82,3.36,3.36,0,0,1-1.51.32A3.59,3.59,0,0,1,125,33.69Zm3.56-2.06a1.9,1.9,0,0,0,.45-1.37v-.2l-1.36.23c-.91.18-1.37.5-1.37,1a.71.71,0,0,0,.32.6,1.27,1.27,0,0,0,.79.23A1.52,1.52,0,0,0,128.59,31.63Z"/><path class="cls-3" d="M32.24,53a.35.35,0,0,1-.13-.28V42.12a.41.41,0,0,1,.12-.3.37.37,0,0,1,.29-.12h7.59a.42.42,0,0,1,.3.12.41.41,0,0,1,.12.3v1.73a.37.37,0,0,1-.12.29.42.42,0,0,1-.3.12h-5v2.27h4.67a.41.41,0,0,1,.42.42v1.73a.37.37,0,0,1-.12.29.41.41,0,0,1-.3.12H35.11v3.62A.37.37,0,0,1,35,53a.38.38,0,0,1-.29.12H32.52A.38.38,0,0,1,32.24,53Z"/><path class="cls-3" d="M42.18,53a.38.38,0,0,1-.12-.29V41.94a.38.38,0,0,1,.12-.29.44.44,0,0,1,.31-.11h2a.4.4,0,0,1,.3.11.42.42,0,0,1,.11.29V52.71a.39.39,0,0,1-.41.4h-2A.44.44,0,0,1,42.18,53Z"/><path class="cls-3" d="M47.64,52.21a4.14,4.14,0,0,1-1.17-3.11v-.5a4.2,4.2,0,0,1,1.2-3,4.31,4.31,0,0,1,3.09-1.09,4.72,4.72,0,0,1,2.37.56,3.67,3.67,0,0,1,1.45,1.55,5.09,5.09,0,0,1,.48,2.25v.4a.41.41,0,0,1-.12.3.38.38,0,0,1-.3.13H49.47v.09a2,2,0,0,0,.34,1.19,1.09,1.09,0,0,0,.93.45,1.17,1.17,0,0,0,.63-.16,2.31,2.31,0,0,0,.44-.4.72.72,0,0,1,.24-.2.71.71,0,0,1,.29,0h2.13a.39.39,0,0,1,.26.09.27.27,0,0,1,.1.22,1.66,1.66,0,0,1-.48,1,3.82,3.82,0,0,1-1.4,1,5.4,5.4,0,0,1-2.18.41A4.4,4.4,0,0,1,47.64,52.21ZM52.06,48v0a1.87,1.87,0,0,0-.34-1.21,1.16,1.16,0,0,0-1-.44,1.13,1.13,0,0,0-1,.44A1.94,1.94,0,0,0,49.47,48v0Z"/><path class="cls-3" d="M55.65,53a.34.34,0,0,1-.12-.27.42.42,0,0,1,.1-.25l2.71-3.73-2.46-3.51a.36.36,0,0,1-.1-.24.37.37,0,0,1,.11-.27.38.38,0,0,1,.26-.11h2.11a.4.4,0,0,1,.29.09,1,1,0,0,1,.2.21l1.43,2,1.45-2,.08-.1a.66.66,0,0,1,.18-.14.44.44,0,0,1,.23-.06h2a.38.38,0,0,1,.26.11.34.34,0,0,1,.11.25.43.43,0,0,1-.09.26l-2.52,3.51,2.76,3.73a.46.46,0,0,1,.08.25.36.36,0,0,1-.1.27.39.39,0,0,1-.27.1H62.15a.52.52,0,0,1-.45-.26L60.12,50.7l-1.6,2.15a.75.75,0,0,1-.2.2.53.53,0,0,1-.28.06H55.91A.35.35,0,0,1,55.65,53Z"/><path class="cls-3" d="M66,43.34a.4.4,0,0,1-.11-.3V41.52a.41.41,0,0,1,.12-.3.38.38,0,0,1,.28-.12h2a.41.41,0,0,1,.3.12.38.38,0,0,1,.13.3V43a.38.38,0,0,1-.13.3.41.41,0,0,1-.3.12h-2A.38.38,0,0,1,66,43.34ZM66,53a.38.38,0,0,1-.12-.28V45a.37.37,0,0,1,.12-.29.38.38,0,0,1,.28-.12h2a.41.41,0,0,1,.3.12.35.35,0,0,1,.13.29v7.67a.36.36,0,0,1-.13.29.4.4,0,0,1-.3.11h-2A.38.38,0,0,1,66,53Z"/><path class="cls-3" d="M75.31,52.15a4.27,4.27,0,0,1-1.41-3.29c0-.3,0-.77,0-1.44s0-1.16,0-1.46a4.28,4.28,0,0,1,1.42-3.27A5.43,5.43,0,0,1,79,41.54a6.69,6.69,0,0,1,2.6.47,4.15,4.15,0,0,1,1.82,1.37,3.64,3.64,0,0,1,.7,2.12.3.3,0,0,1-.11.24.33.33,0,0,1-.25.1H81.41a.5.5,0,0,1-.33-.09.82.82,0,0,1-.19-.33,1.9,1.9,0,0,0-.69-1.12A2.16,2.16,0,0,0,79,44c-1.23,0-1.87.69-1.91,2.06,0,.29,0,.74,0,1.35s0,1.07,0,1.39c0,1.37.68,2,1.91,2a2.2,2.2,0,0,0,1.23-.32,1.87,1.87,0,0,0,.69-1.11.71.71,0,0,1,.18-.34.55.55,0,0,1,.34-.09h2.32a.33.33,0,0,1,.25.1.34.34,0,0,1,.11.24,3.61,3.61,0,0,1-.7,2.12,4.15,4.15,0,0,1-1.82,1.37,6.69,6.69,0,0,1-2.6.48A5.47,5.47,0,0,1,75.31,52.15Z"/><path class="cls-3" d="M86.56,52.94A2.73,2.73,0,0,1,85.45,52a2.21,2.21,0,0,1-.4-1.29,2.16,2.16,0,0,1,.92-1.8,5.7,5.7,0,0,1,2.54-1l2-.31v-.2a1.34,1.34,0,0,0-.24-.88,1.09,1.09,0,0,0-.83-.28,1.15,1.15,0,0,0-.55.12,2.77,2.77,0,0,0-.5.34A2,2,0,0,1,88,47c-.05.08-.1.12-.17.12H86a.37.37,0,0,1-.27-.11.3.3,0,0,1-.09-.25,1.78,1.78,0,0,1,.44-1,3.4,3.4,0,0,1,1.29-.94,5.21,5.21,0,0,1,2.14-.39,4.35,4.35,0,0,1,3,.89,3.09,3.09,0,0,1,1,2.41v4.94a.38.38,0,0,1-.12.28.37.37,0,0,1-.29.12h-2a.41.41,0,0,1-.4-.4v-.57a2.73,2.73,0,0,1-1,.82,3.38,3.38,0,0,1-1.52.32A3.54,3.54,0,0,1,86.56,52.94Zm3.56-2.06a1.94,1.94,0,0,0,.44-1.37v-.2l-1.35.23c-.91.18-1.37.5-1.37,1a.71.71,0,0,0,.32.6,1.25,1.25,0,0,0,.79.23A1.52,1.52,0,0,0,90.12,50.88Z"/><path class="cls-3" d="M95.37,56.1a.39.39,0,0,1-.13-.29V45a.38.38,0,0,1,.13-.29.41.41,0,0,1,.3-.12h1.94A.41.41,0,0,1,98,45v.59a3,3,0,0,1,2.52-1.16,3.2,3.2,0,0,1,2.49,1,4.24,4.24,0,0,1,1,2.81c0,.14,0,.34,0,.6s0,.47,0,.62a4.23,4.23,0,0,1-1,2.78,3.18,3.18,0,0,1-2.48,1,2.72,2.72,0,0,1-2.36-1.08v3.61a.42.42,0,0,1-.11.29.4.4,0,0,1-.3.11h-2.1A.4.4,0,0,1,95.37,56.1Zm5.28-5.52a2.33,2.33,0,0,0,.37-1.2c0-.11,0-.28,0-.51s0-.39,0-.5a2.33,2.33,0,0,0-.37-1.2,1.46,1.46,0,0,0-2.09,0,1.94,1.94,0,0,0-.38,1.13c0,.14,0,.35,0,.62s0,.46,0,.6a1.75,1.75,0,0,0,.38,1.06,1.31,1.31,0,0,0,1,.41A1.21,1.21,0,0,0,100.65,50.58Z"/><path class="cls-3" d="M109.31,53a.38.38,0,0,1-.12-.28V42.12a.44.44,0,0,1,.11-.3.41.41,0,0,1,.3-.12h7.58a.41.41,0,0,1,.42.42v1.73a.37.37,0,0,1-.12.29.41.41,0,0,1-.3.12h-5v2.27h4.66a.45.45,0,0,1,.31.12.41.41,0,0,1,.12.3v1.73a.37.37,0,0,1-.12.29.45.45,0,0,1-.31.12h-4.66v3.62a.38.38,0,0,1-.12.28.37.37,0,0,1-.29.12H109.6A.4.4,0,0,1,109.31,53Z"/><path class="cls-3" d="M119.87,52.32a3.9,3.9,0,0,1-.88-2.73V45a.37.37,0,0,1,.12-.29.4.4,0,0,1,.29-.12h2.17a.41.41,0,0,1,.3.12A.37.37,0,0,1,122,45v4.45c0,1,.45,1.52,1.35,1.52a1.29,1.29,0,0,0,1-.4,1.56,1.56,0,0,0,.37-1.12V45a.37.37,0,0,1,.12-.29.41.41,0,0,1,.3-.12h2.16a.38.38,0,0,1,.29.12.36.36,0,0,1,.11.29v7.67a.37.37,0,0,1-.11.28.38.38,0,0,1-.29.12h-2A.4.4,0,0,1,125,53a.36.36,0,0,1-.13-.29v-.62a3.08,3.08,0,0,1-2.7,1.19A3,3,0,0,1,119.87,52.32Z"/><path class="cls-3" d="M129.7,53a.35.35,0,0,1-.13-.28V45a.35.35,0,0,1,.13-.29.38.38,0,0,1,.28-.12h2a.38.38,0,0,1,.29.12.37.37,0,0,1,.12.29v.62a3.06,3.06,0,0,1,1.13-.86,3.64,3.64,0,0,1,1.59-.33,3.21,3.21,0,0,1,1.65.42,3,3,0,0,1,1.15,1.26,4.56,4.56,0,0,1,.41,2v4.55a.39.39,0,0,1-.41.4h-2.16a.44.44,0,0,1-.31-.11.38.38,0,0,1-.12-.29V48.25a1.65,1.65,0,0,0-.35-1.12,1.29,1.29,0,0,0-1-.39,1.34,1.34,0,0,0-1,.4,1.55,1.55,0,0,0-.37,1.11v4.46a.38.38,0,0,1-.12.28.37.37,0,0,1-.29.12H130A.38.38,0,0,1,129.7,53Z"/><path class="cls-3" d="M140.8,52.28a4.35,4.35,0,0,1-1-2.83V48.29a4.32,4.32,0,0,1,1-2.8,3.17,3.17,0,0,1,2.48-1,3.09,3.09,0,0,1,2.36,1V41.94a.36.36,0,0,1,.13-.29.37.37,0,0,1,.28-.11h2.11a.4.4,0,0,1,.3.11.38.38,0,0,1,.12.29V52.71a.38.38,0,0,1-.12.29.4.4,0,0,1-.3.11h-1.95a.39.39,0,0,1-.28-.12.38.38,0,0,1-.12-.28V52.2a3.08,3.08,0,0,1-2.53,1.08A3.18,3.18,0,0,1,140.8,52.28Zm4.48-1.72a1.93,1.93,0,0,0,.37-1.13c0-.31,0-.51,0-.62a6,6,0,0,0,0-.6,1.75,1.75,0,0,0-.38-1.06,1.29,1.29,0,0,0-1-.41,1.24,1.24,0,0,0-1.06.43,2.25,2.25,0,0,0-.36,1.2l0,.5,0,.51a2.25,2.25,0,0,0,.36,1.2,1.47,1.47,0,0,0,2.1,0Z"/><path class="cls-3" d="M33.35,73.89a3,3,0,0,1-1.28-1,2.28,2.28,0,0,1-.47-1.27.27.27,0,0,1,.09-.2.29.29,0,0,1,.21-.08h.68a.36.36,0,0,1,.35.28,1.69,1.69,0,0,0,.71,1,2.92,2.92,0,0,0,1.7.42,3,3,0,0,0,1.76-.42,1.34,1.34,0,0,0,.59-1.15,1.09,1.09,0,0,0-.29-.78,2.23,2.23,0,0,0-.85-.54c-.37-.15-.94-.34-1.69-.56a8.89,8.89,0,0,1-1.7-.66,2.59,2.59,0,0,1-1-.85,2.42,2.42,0,0,1-.32-1.29,2.36,2.36,0,0,1,.41-1.35,2.76,2.76,0,0,1,1.17-.93,4.36,4.36,0,0,1,1.81-.34,4.26,4.26,0,0,1,1.86.38,3.15,3.15,0,0,1,1.17,1,2.16,2.16,0,0,1,.43,1.17.28.28,0,0,1-.08.21.29.29,0,0,1-.21.08h-.69a.31.31,0,0,1-.21-.07.39.39,0,0,1-.14-.21,1.42,1.42,0,0,0-.67-1,2.58,2.58,0,0,0-1.46-.39,2.68,2.68,0,0,0-1.51.37,1.37,1.37,0,0,0-.3,1.89,2.23,2.23,0,0,0,.8.54,12.68,12.68,0,0,0,1.56.54,12.15,12.15,0,0,1,1.86.67,2.5,2.5,0,0,1,1,.83A2.2,2.2,0,0,1,39,71.49a2.38,2.38,0,0,1-1,2,4.43,4.43,0,0,1-2.69.74A4.84,4.84,0,0,1,33.35,73.89Z"/><path class="cls-3" d="M41,74a.32.32,0,0,1-.09-.23V64.69a.32.32,0,0,1,.09-.23.28.28,0,0,1,.22-.09h.7a.32.32,0,0,1,.23.08.32.32,0,0,1,.09.24V73.8a.31.31,0,0,1-.32.32h-.7A.28.28,0,0,1,41,74Z"/><path class="cls-3" d="M44.72,74a.36.36,0,0,1-.08-.23V64.7a.36.36,0,0,1,.08-.24.3.3,0,0,1,.23-.09h3.52a3.69,3.69,0,0,1,2.47.76,3.14,3.14,0,0,1,0,4.4,3.69,3.69,0,0,1-2.47.76H46V73.8a.31.31,0,0,1-.32.32H45A.3.3,0,0,1,44.72,74Zm3.68-4.87q2.1,0,2.1-1.83A1.74,1.74,0,0,0,50,66a2.28,2.28,0,0,0-1.58-.47H46v3.66Z"/><path class="cls-3" d="M57.35,73.94a2.79,2.79,0,0,1-1-.71,1.2,1.2,0,0,1-.33-.67.27.27,0,0,1,.1-.22.37.37,0,0,1,.21-.08h.59a.25.25,0,0,1,.13,0,.76.76,0,0,1,.13.13,2.44,2.44,0,0,0,.72.61,2.14,2.14,0,0,0,1.06.22A2.36,2.36,0,0,0,60.19,73a.91.91,0,0,0,.45-.81.79.79,0,0,0-.19-.56,1.82,1.82,0,0,0-.65-.38,11,11,0,0,0-1.35-.36,3.5,3.5,0,0,1-1.71-.76,1.85,1.85,0,0,1-.19-2.29,2.07,2.07,0,0,1,.91-.78,3.19,3.19,0,0,1,1.44-.3,3.46,3.46,0,0,1,1.5.29,2.55,2.55,0,0,1,.93.68,1.14,1.14,0,0,1,.31.66.25.25,0,0,1-.09.2.29.29,0,0,1-.21.09h-.53a.28.28,0,0,1-.28-.16c-.16-.17-.29-.31-.4-.41a1.39,1.39,0,0,0-.46-.25,2.44,2.44,0,0,0-.77-.1,1.68,1.68,0,0,0-1,.28.93.93,0,0,0-.36.76.77.77,0,0,0,.16.5,1.31,1.31,0,0,0,.58.37,7.9,7.9,0,0,0,1.28.36,4,4,0,0,1,1.88.79,1.78,1.78,0,0,1,.55,1.33,1.83,1.83,0,0,1-.35,1.08,2.18,2.18,0,0,1-1,.77,4.33,4.33,0,0,1-1.61.28A3.74,3.74,0,0,1,57.35,73.94Z"/><path class="cls-3" d="M64.18,71.68V68h-1.1a.3.3,0,0,1-.23-.09.31.31,0,0,1-.08-.22V67.2a.34.34,0,0,1,.08-.23.31.31,0,0,1,.23-.1h1.1V64.55a.36.36,0,0,1,.08-.23.29.29,0,0,1,.22-.09h.62a.31.31,0,0,1,.32.32v2.32h1.72a.31.31,0,0,1,.23.1.3.3,0,0,1,.09.23v.44a.28.28,0,0,1-.09.22.3.3,0,0,1-.23.09H65.42v3.63a1.93,1.93,0,0,0,.23,1.07.83.83,0,0,0,.78.37h.85a.3.3,0,0,1,.23.09.34.34,0,0,1,.08.23v.46a.36.36,0,0,1-.08.23.3.3,0,0,1-.23.09h-.94C64.9,74.12,64.18,73.3,64.18,71.68Z"/><path class="cls-3" d="M69.7,74a2.38,2.38,0,0,1-.92-.76,1.79,1.79,0,0,1-.34-1.07,1.82,1.82,0,0,1,.75-1.5,4.32,4.32,0,0,1,2-.78l2.09-.29v-.41c0-1-.56-1.43-1.66-1.43a1.85,1.85,0,0,0-1,.26,1.62,1.62,0,0,0-.57.6.44.44,0,0,1-.12.19.29.29,0,0,1-.17,0h-.55a.29.29,0,0,1-.21-.09.29.29,0,0,1-.09-.22,1.34,1.34,0,0,1,.3-.74,2.34,2.34,0,0,1,.92-.74,3.39,3.39,0,0,1,1.53-.31,3,3,0,0,1,2.24.72,2.55,2.55,0,0,1,.67,1.81V73.8a.32.32,0,0,1-.09.23.3.3,0,0,1-.23.09h-.61a.28.28,0,0,1-.22-.09.32.32,0,0,1-.09-.23v-.62a2.26,2.26,0,0,1-.89.77,3.28,3.28,0,0,1-1.5.31A2.91,2.91,0,0,1,69.7,74Zm3-1.34a2.39,2.39,0,0,0,.59-1.74v-.39l-1.63.24a3.78,3.78,0,0,0-1.52.47,1,1,0,0,0-.52.84,1,1,0,0,0,.47.87,1.93,1.93,0,0,0,1.11.31A2,2,0,0,0,72.74,72.64Z"/><path class="cls-3" d="M76.7,74a.32.32,0,0,1-.09-.23V67.21A.36.36,0,0,1,76.7,67a.33.33,0,0,1,.23-.1h.59a.33.33,0,0,1,.24.1.32.32,0,0,1,.09.24v.61a2.09,2.09,0,0,1,1.94-.95h.54a.32.32,0,0,1,.24.09.33.33,0,0,1,.08.24v.51a.36.36,0,0,1-.08.23.32.32,0,0,1-.24.09h-.79a1.63,1.63,0,0,0-1.21.45,1.65,1.65,0,0,0-.44,1.21V73.8a.32.32,0,0,1-.09.23.36.36,0,0,1-.24.09h-.63A.32.32,0,0,1,76.7,74Z"/><path class="cls-3" d="M82.48,71.68V68h-1.1a.3.3,0,0,1-.23-.09.31.31,0,0,1-.08-.22V67.2a.34.34,0,0,1,.08-.23.31.31,0,0,1,.23-.1h1.1V64.55a.31.31,0,0,1,.08-.23.29.29,0,0,1,.22-.09h.62a.33.33,0,0,1,.23.09.32.32,0,0,1,.09.23v2.32h1.72a.31.31,0,0,1,.23.1.3.3,0,0,1,.09.23v.44a.28.28,0,0,1-.09.22.3.3,0,0,1-.23.09H83.72v3.63A1.93,1.93,0,0,0,84,72.65a.83.83,0,0,0,.78.37h.85a.28.28,0,0,1,.22.09.3.3,0,0,1,.09.23v.46a.32.32,0,0,1-.09.23.28.28,0,0,1-.22.09h-.94C83.2,74.12,82.48,73.3,82.48,71.68Z"/><path class="cls-3" d="M88.11,73.94a2.79,2.79,0,0,1-1-.71,1.17,1.17,0,0,1-.32-.67.25.25,0,0,1,.1-.22.32.32,0,0,1,.2-.08h.59a.25.25,0,0,1,.13,0,.51.51,0,0,1,.13.13,2.72,2.72,0,0,0,.72.61,2.18,2.18,0,0,0,1.07.22A2.32,2.32,0,0,0,91,73a.91.91,0,0,0,.45-.81.79.79,0,0,0-.19-.56,1.82,1.82,0,0,0-.65-.38,11.21,11.21,0,0,0-1.34-.36,3.5,3.5,0,0,1-1.72-.76,1.85,1.85,0,0,1-.19-2.29,2.13,2.13,0,0,1,.91-.78,3.22,3.22,0,0,1,1.44-.3,3.4,3.4,0,0,1,1.5.29,2.55,2.55,0,0,1,.93.68,1.16,1.16,0,0,1,.32.66.25.25,0,0,1-.09.2.33.33,0,0,1-.22.09h-.53a.29.29,0,0,1-.28-.16c-.16-.17-.29-.31-.4-.41a1.39,1.39,0,0,0-.46-.25,2.44,2.44,0,0,0-.77-.1,1.65,1.65,0,0,0-1,.28.93.93,0,0,0-.36.76.82.82,0,0,0,.15.5,1.38,1.38,0,0,0,.58.37,7.78,7.78,0,0,0,1.29.36,4,4,0,0,1,1.87.79,1.74,1.74,0,0,1,.55,1.33,1.89,1.89,0,0,1-.34,1.08,2.27,2.27,0,0,1-1,.77,4.33,4.33,0,0,1-1.61.28A3.74,3.74,0,0,1,88.11,73.94Z"/><path class="cls-3" d="M98.5,74a2.38,2.38,0,0,1-.92-.76,1.79,1.79,0,0,1-.34-1.07,1.82,1.82,0,0,1,.75-1.5,4.32,4.32,0,0,1,2.05-.78l2.09-.29v-.41c0-1-.56-1.43-1.66-1.43a1.85,1.85,0,0,0-1,.26,1.62,1.62,0,0,0-.57.6.44.44,0,0,1-.12.19.29.29,0,0,1-.17,0H98a.29.29,0,0,1-.21-.09.29.29,0,0,1-.09-.22,1.4,1.4,0,0,1,.29-.74,2.38,2.38,0,0,1,.93-.74,3.39,3.39,0,0,1,1.53-.31,3,3,0,0,1,2.24.72,2.55,2.55,0,0,1,.67,1.81V73.8a.32.32,0,0,1-.09.23.3.3,0,0,1-.23.09h-.61a.28.28,0,0,1-.22-.09.32.32,0,0,1-.09-.23v-.62a2.26,2.26,0,0,1-.89.77,3.28,3.28,0,0,1-1.5.31A2.91,2.91,0,0,1,98.5,74Zm3-1.34a2.39,2.39,0,0,0,.59-1.74v-.39l-1.63.24a3.78,3.78,0,0,0-1.52.47,1,1,0,0,0-.52.84,1,1,0,0,0,.47.87,1.93,1.93,0,0,0,1.11.31A2,2,0,0,0,101.54,72.64Z"/><path class="cls-3" d="M106,71.68V68h-1.1a.31.31,0,0,1-.31-.31V67.2a.3.3,0,0,1,.09-.23.29.29,0,0,1,.22-.1H106V64.55a.36.36,0,0,1,.08-.23.3.3,0,0,1,.23-.09h.61a.31.31,0,0,1,.32.32v2.32h1.73a.33.33,0,0,1,.23.1.3.3,0,0,1,.09.23v.44a.28.28,0,0,1-.09.22.32.32,0,0,1-.23.09h-1.73v3.63a2,2,0,0,0,.23,1.07.84.84,0,0,0,.79.37h.85a.29.29,0,0,1,.22.09.34.34,0,0,1,.08.23v.46a.36.36,0,0,1-.08.23.29.29,0,0,1-.22.09h-1C106.69,74.12,106,73.3,106,71.68Z"/><path class="cls-3" d="M119.81,65.64h-2.3a2.05,2.05,0,0,1,.78,1.42h1.52v.69h-1.5c-.14,1.42-1.27,2.33-3,2.39,1.08,1.12,2.27,2.54,3.44,4h-1.34c-1.09-1.31-2.1-2.52-3.41-3.91v-.87h.76c1.51,0,2.32-.62,2.41-1.59H114v-.69h3.13c-.19-.81-.93-1.21-2.14-1.21h-1v-.91h5.86Z"/><path class="cls-3" d="M123.89,74a.36.36,0,0,1-.08-.23V65.94l-2.34,1.8a.37.37,0,0,1-.21.08.31.31,0,0,1-.24-.14l-.33-.43a.3.3,0,0,1-.07-.19.29.29,0,0,1,.14-.25l3-2.34a.61.61,0,0,1,.36-.1h.66a.31.31,0,0,1,.32.32V73.8a.31.31,0,0,1-.32.32h-.68A.3.3,0,0,1,123.89,74Z"/><path class="cls-3" d="M128,73.21a4.57,4.57,0,0,1-.89-2.76V68a4.38,4.38,0,0,1,.89-2.74,3.82,3.82,0,0,1,5.26,0,4.38,4.38,0,0,1,.88,2.74c0,.26,0,.67,0,1.24s0,.94,0,1.19a4.57,4.57,0,0,1-.88,2.76,3.82,3.82,0,0,1-5.26,0Zm4.24-.82a3.38,3.38,0,0,0,.57-2c0-.26,0-.65,0-1.15s0-.89,0-1.14a3.32,3.32,0,0,0-.58-2,1.9,1.9,0,0,0-1.61-.72,1.88,1.88,0,0,0-1.6.72,3.39,3.39,0,0,0-.57,2l0,1.14,0,1.15a3.38,3.38,0,0,0,.57,2,1.9,1.9,0,0,0,1.6.71A1.93,1.93,0,0,0,132.21,72.39Z"/><path class="cls-3" d="M136.78,73.21a4.57,4.57,0,0,1-.88-2.76l0-1.19,0-1.24a4.44,4.44,0,0,1,.88-2.74,3.17,3.17,0,0,1,2.63-1,3.2,3.2,0,0,1,2.64,1,4.44,4.44,0,0,1,.88,2.74c0,.26,0,.67,0,1.24s0,.94,0,1.19a4.63,4.63,0,0,1-.88,2.76,3.18,3.18,0,0,1-2.64,1.05A3.14,3.14,0,0,1,136.78,73.21Zm4.24-.82a3.38,3.38,0,0,0,.57-2c0-.26,0-.65,0-1.15s0-.89,0-1.14a3.39,3.39,0,0,0-.57-2,1.91,1.91,0,0,0-1.61-.72,1.87,1.87,0,0,0-1.6.72,3.32,3.32,0,0,0-.58,2v2.29a3.31,3.31,0,0,0,.58,2,1.89,1.89,0,0,0,1.6.71A1.91,1.91,0,0,0,141,72.39Z"/><rect class="cls-2" x="31.84" y="85.25" width="71.73" height="18.99" rx="2.67"/><path class="cls-3" d="M40.38,98a.29.29,0,0,1-.07-.18V91a.24.24,0,0,1,.25-.25h1a.29.29,0,0,1,.19.07.28.28,0,0,1,.06.18v6.8a.28.28,0,0,1-.06.18.25.25,0,0,1-.19.07h-1A.24.24,0,0,1,40.38,98Z"/><path class="cls-3" d="M43.39,98a.24.24,0,0,1-.07-.18V92.9a.21.21,0,0,1,.07-.18.24.24,0,0,1,.18-.07h.86a.24.24,0,0,1,.25.25v.43a2.14,2.14,0,0,1,1.74-.78,2,2,0,0,1,1.53.62,2.51,2.51,0,0,1,.56,1.72v2.93a.24.24,0,0,1-.07.18.21.21,0,0,1-.18.07h-.94a.24.24,0,0,1-.25-.25V95a1.39,1.39,0,0,0-.3-.95,1.08,1.08,0,0,0-.85-.34,1.11,1.11,0,0,0-.85.35,1.3,1.3,0,0,0-.33.94v2.86a.28.28,0,0,1-.06.18.25.25,0,0,1-.19.07h-.92A.24.24,0,0,1,43.39,98Z"/><path class="cls-3" d="M51.35,98a.51.51,0,0,1-.14-.2l-2-4.84a.22.22,0,0,1,0-.09.2.2,0,0,1,.07-.16.18.18,0,0,1,.15-.07h.86a.29.29,0,0,1,.29.2L52,96.49l1.38-3.64a.24.24,0,0,1,.09-.14.26.26,0,0,1,.18-.06h.87a.18.18,0,0,1,.15.07.2.2,0,0,1,.07.16s0,.07,0,.09l-2,4.84a.39.39,0,0,1-.38.26h-.79A.38.38,0,0,1,51.35,98Z"/><path class="cls-3" d="M56,97.51a2.69,2.69,0,0,1-.72-1.9v-.26a3,3,0,0,1,.68-2,2.79,2.79,0,0,1,3.81,0,2.86,2.86,0,0,1,.67,2v.22a.24.24,0,0,1-.07.18.25.25,0,0,1-.19.07H56.67v.08a1.61,1.61,0,0,0,.32,1,1,1,0,0,0,.81.38,1.17,1.17,0,0,0,1-.48.55.55,0,0,1,.15-.14.39.39,0,0,1,.18,0H60a.3.3,0,0,1,.16,0,.21.21,0,0,1,.07.15,1,1,0,0,1-.3.59,2.6,2.6,0,0,1-.85.59,3.22,3.22,0,0,1-1.29.25A2.53,2.53,0,0,1,56,97.51Zm3-2.63v0a1.44,1.44,0,0,0-.31-1,1.13,1.13,0,0,0-1.67,0,1.49,1.49,0,0,0-.3,1v0Z"/><path class="cls-3" d="M62.24,97.94a2.08,2.08,0,0,1-.79-.56.94.94,0,0,1-.26-.55.22.22,0,0,1,.07-.16.21.21,0,0,1,.16-.07h.86a.17.17,0,0,1,.14.09l.24.2a1.44,1.44,0,0,0,.42.24,1.4,1.4,0,0,0,.51.09,1.25,1.25,0,0,0,.68-.16.54.54,0,0,0,.26-.47.49.49,0,0,0-.12-.34A1.25,1.25,0,0,0,64,96a8.72,8.72,0,0,0-.92-.24,2.91,2.91,0,0,1-1.31-.57,1.42,1.42,0,0,1-.17-1.81,1.85,1.85,0,0,1,.75-.61,2.67,2.67,0,0,1,1.18-.23,3,3,0,0,1,1.22.22,2.15,2.15,0,0,1,.78.54.94.94,0,0,1,.26.55.23.23,0,0,1-.06.16.22.22,0,0,1-.17.07h-.78a.23.23,0,0,1-.18-.08l-.23-.2a1.34,1.34,0,0,0-.36-.22,1.15,1.15,0,0,0-.48-.08,1,1,0,0,0-.6.16.56.56,0,0,0-.2.44.45.45,0,0,0,.1.31.81.81,0,0,0,.4.24,5.89,5.89,0,0,0,.9.22c1.26.25,1.88.79,1.88,1.64a1.41,1.41,0,0,1-.64,1.2,3,3,0,0,1-1.79.46A3.18,3.18,0,0,1,62.24,97.94Z"/><path class="cls-3" d="M68.07,97.58a2,2,0,0,1-.48-1.46V93.77h-.83a.28.28,0,0,1-.25-.25V92.9a.25.25,0,0,1,.08-.18.22.22,0,0,1,.17-.07h.83V90.92a.21.21,0,0,1,.07-.18.24.24,0,0,1,.18-.07h.86a.25.25,0,0,1,.19.07.24.24,0,0,1,.06.18v1.73h1.31a.24.24,0,0,1,.18.07.29.29,0,0,1,.07.18v.62a.26.26,0,0,1-.07.17.25.25,0,0,1-.18.08H69V96a1.26,1.26,0,0,0,.16.68.59.59,0,0,0,.51.23h.73a.24.24,0,0,1,.18.06.25.25,0,0,1,.07.19v.65a.24.24,0,0,1-.07.18.21.21,0,0,1-.18.07H69.5A1.89,1.89,0,0,1,68.07,97.58Z"/><path class="cls-3" d="M74.11,98a.25.25,0,0,1-.08-.18V91a.27.27,0,0,1,.07-.18.25.25,0,0,1,.18-.08h.82a.33.33,0,0,1,.3.18l3,4.63V91a.27.27,0,0,1,.07-.18.25.25,0,0,1,.18-.08h.9a.26.26,0,0,1,.19.08.23.23,0,0,1,.07.18v6.78a.25.25,0,0,1-.07.19.24.24,0,0,1-.18.07h-.82a.32.32,0,0,1-.31-.17l-3-4.53v4.45a.24.24,0,0,1-.07.18.21.21,0,0,1-.18.07h-.9A.23.23,0,0,1,74.11,98Z"/><path class="cls-3" d="M81.79,97.55a2.4,2.4,0,0,1-.71-1.73l0-.46,0-.46a2.34,2.34,0,0,1,.73-1.72,3.12,3.12,0,0,1,3.76,0,2.38,2.38,0,0,1,.73,1.72c0,.09,0,.24,0,.46s0,.38,0,.46a2.36,2.36,0,0,1-.72,1.73,2.63,2.63,0,0,1-1.89.63A2.67,2.67,0,0,1,81.79,97.55Zm2.75-.77a1.56,1.56,0,0,0,.32-1,4,4,0,0,0,0-.41,3.79,3.79,0,0,0,0-.4,1.57,1.57,0,0,0-.32-1,1.08,1.08,0,0,0-.85-.35,1.06,1.06,0,0,0-.85.35,1.63,1.63,0,0,0-.33,1v.81a1.62,1.62,0,0,0,.33,1,1.06,1.06,0,0,0,.85.34A1,1,0,0,0,84.54,96.78Z"/><path class="cls-3" d="M88.45,97.81,87,93a.22.22,0,0,1,0-.09.23.23,0,0,1,.06-.16.19.19,0,0,1,.16-.07H88a.28.28,0,0,1,.18.06.26.26,0,0,1,.1.14l1,3.43,1.08-3.4a.29.29,0,0,1,.11-.16.27.27,0,0,1,.2-.07h.53a.3.3,0,0,1,.21.07.34.34,0,0,1,.1.16l1.08,3.4,1-3.43a.33.33,0,0,1,.1-.14.26.26,0,0,1,.18-.06h.79a.21.21,0,0,1,.16.07.23.23,0,0,1,.06.16l0,.09-1.49,4.84a.48.48,0,0,1-.12.2.33.33,0,0,1-.21.06h-.69a.31.31,0,0,1-.34-.26l-1.08-3.27-1.08,3.27a.34.34,0,0,1-.36.26h-.68A.33.33,0,0,1,88.45,97.81Z"/><polygon class="cls-4" points="163 79.23 172.59 84.61 172 107.53 163 103.72 163 79.23"/><polygon class="cls-5" points="172.59 84.61 163 79.23 170.7 74.67 179.99 79.33 172.59 84.61"/><polygon class="cls-6" points="178.84 100.56 172 107.53 172.59 84.61 179.99 79.33 178.84 100.56"/><polygon class="cls-7" points="181.43 56.88 191.02 62.26 191.51 94.58 182.51 90.77 181.43 56.88"/><polygon class="cls-8" points="191.02 62.26 181.43 56.88 189.12 52.33 198.41 56.98 191.02 62.26"/><polygon class="cls-9" points="198.34 87.6 191.51 94.58 191.02 62.26 198.41 56.98 198.34 87.6"/><polygon class="cls-10" points="198.82 37.91 208.41 43.28 208.62 86.41 199.62 82.6 198.82 37.91"/><polygon class="cls-11" points="208.41 43.28 198.82 37.91 206.51 33.35 215.8 38.01 208.41 43.28"/><polygon class="cls-12" points="215.46 79.43 208.62 86.41 208.41 43.28 215.8 38.01 215.46 79.43"/><path class="cls-13" d="M194.94,77l1.52-3,8.89-17.43,3.44-6.76,1.77-3.47,2.61-5.1,1.55,1.42,0,0,.09.13-7.47,14.63h0L196.31,79.17Zm29.29-44.42L212.12,39l-1.86-1.73,12.12-6.4Z"/><path class="cls-14" d="M205.22,73.15,204,75.43a15.08,15.08,0,0,0-1.18,1.21,11.87,11.87,0,0,0-2.91,5.47,7.73,7.73,0,0,0-.16,1.27l-.66,1.24a5.06,5.06,0,0,1-.19-3.17A12,12,0,0,1,201.81,76,13,13,0,0,1,205.22,73.15Z"/><path class="cls-15" d="M212.12,39l12.11-6.42.6.73-12.12,6.41-.58-.7ZM196.49,80.55l-.18-1.38,11.07-21.65h0l7.47-14.63.49.73-7.18,14.06h0Zm-30.27,35.74-.81-.16,24.21-47.44h0s0,0,0,0h0l0,1.63Z"/><path class="cls-16" d="M195.16,91l-1.61-1.5-3.63-5.67.44-.87,5.54,8.71Zm17.55-51.2,2,3-1.55-1.42-2.91-4L212.12,39v0ZM194.94,77l1.37,2.13.18,1.38-6.82-10.2,0-1.63h0Zm22.88-28.35.39-.75L221,52.12,219,50.25Z"/><path class="cls-17" d="M214.6,55l-9.22,18.05A12.9,12.9,0,0,0,201.81,76a11.83,11.83,0,0,0-2.91,5.47,4.72,4.72,0,0,0,.39,3.54l-1.17,2.3-1.32,2.59-.9,1.75-5.54-8.71-.44.87-18.55,30.75-5.15,1.75,23.45-45.94,6.82,10.2,11.68-22.87h0l7.18-14.06-.49-.73-.09-.13,0,0-2-3,12.12-6.41-2.32,11.48L221,52.15v0l-2.81-4.18-.39.75Z"/><polygon class="cls-18" points="165.41 116.13 163 113.96 164.62 110.8 168.73 102.77 169.49 101.28 181.42 77.95 187.21 66.63 187.27 66.52 187.41 66.65 189.62 68.69 165.41 116.13"/><polygon class="cls-17" points="206.03 71.62 196.8 89.89 197.73 81.89 202.79 72.15 206.03 71.62"/><path class="cls-19" d="M200.57,70.23l-1.37,4.91-.14.12Z"/><path class="cls-20" d="M223.52,103c0,1.94-6.76,3.53-15.08,3.53s-15.07-1.59-15.07-3.53V99.33c0-2,6.74-3.55,15.07-3.55s15.08,1.58,15.08,3.55Z"/><path class="cls-21" d="M208.44,95.78c8.32,0,15.08,1.58,15.08,3.55s-6.76,3.53-15.08,3.53-15.07-1.59-15.07-3.53,6.74-3.55,15.07-3.55Z"/><path class="cls-22" d="M222.59,99.33c0,.76,0,.16-.07.25-1.8-3.5-26.42-3.48-28.15,0-.05-.09-.05.51-.07-.25-.05-3.86,28.22-3.87,28.29,0Z"/><path class="cls-23" d="M223.52,103c0,1.94-6.76,3.53-15.08,3.53s-15.07-1.59-15.07-3.53v-.75c0,2,6.74,3.55,15.07,3.55s15.08-1.59,15.08-3.55Z"/><path class="cls-24" d="M223.5,99.22a.2.2,0,0,1,0,.11c0,1.94-6.76,3.53-15.08,3.53s-15.07-1.59-15.07-3.53v-.11c.25,1.89,6.9,3.42,15.07,3.42s14.83-1.53,15.06-3.42Z"/><path class="cls-20" d="M227.21,96.7c0,2-6.74,3.53-15.06,3.53s-15.09-1.56-15.09-3.53V93c0-2,6.76-3.55,15.09-3.55s15.06,1.59,15.06,3.55Z"/><path class="cls-21" d="M212.15,89.48c8.32,0,15.06,1.59,15.06,3.55s-6.74,3.55-15.06,3.55S197.06,95,197.06,93s6.76-3.55,15.09-3.55Z"/><path class="cls-22" d="M226.29,93c0,.77,0,.18-.08.25-1.8-3.47-26.4-3.47-28.15,0,0-.07-.05.52-.07-.25-.05-3.85,28.24-3.87,28.3,0Z"/><path class="cls-23" d="M227.21,96.7c0,2-6.74,3.53-15.06,3.53s-15.09-1.56-15.09-3.53V96c0,2,6.76,3.53,15.09,3.53s15.06-1.58,15.06-3.53Z"/><path class="cls-24" d="M227.21,92.93V93c0,2-6.74,3.55-15.06,3.55S197.06,95,197.06,93v-.1c.25,1.9,6.9,3.42,15.09,3.42s14.81-1.52,15.06-3.42Z"/><path class="cls-20" d="M222.65,92.85c0,2-6.74,3.53-15.07,3.53S192.5,94.8,192.5,92.85V89.18c0-2,6.76-3.55,15.08-3.55s15.07,1.59,15.07,3.55Z"/><path class="cls-21" d="M207.58,85.63c8.33,0,15.07,1.59,15.07,3.55s-6.74,3.53-15.07,3.53-15.08-1.59-15.08-3.53,6.76-3.55,15.08-3.55Z"/><path class="cls-22" d="M221.72,89.18c0,.77,0,.18-.07.25-1.8-3.49-26.4-3.48-28.15,0,0-.07-.05.52-.07-.25-.06-3.85,28.24-3.87,28.29,0Z"/><path class="cls-23" d="M222.65,92.85c0,2-6.74,3.53-15.07,3.53S192.5,94.8,192.5,92.85v-.73c0,1.95,6.76,3.53,15.08,3.53s15.07-1.58,15.07-3.53Z"/><path class="cls-24" d="M222.65,89.07v.11c0,1.94-6.74,3.53-15.07,3.53s-15.08-1.59-15.08-3.53a.23.23,0,0,1,0-.11c.23,1.91,6.88,3.43,15.06,3.43S222.4,91,222.65,89.07Z"/><path class="cls-20" d="M227.14,87.11c0,2-6.76,3.53-15.08,3.53S197,89.07,197,87.11V83.44c0-2,6.74-3.55,15.07-3.55s15.08,1.59,15.08,3.55Z"/><path class="cls-21" d="M212.06,79.89c8.32,0,15.08,1.59,15.08,3.55S220.38,87,212.06,87,197,85.4,197,83.44s6.74-3.55,15.07-3.55Z"/><path class="cls-22" d="M226.2,83.44c0,.77,0,.18-.06.25-1.8-3.48-26.42-3.48-28.15,0-.05-.07-.07.52-.07-.25,0-3.85,28.22-3.87,28.28,0Z"/><path class="cls-23" d="M227.14,87.11c0,2-6.76,3.53-15.08,3.53S197,89.07,197,87.11v-.73c0,2,6.74,3.53,15.07,3.53s15.08-1.58,15.08-3.53Z"/><path class="cls-24" d="M227.12,83.33a.23.23,0,0,1,0,.11c0,2-6.76,3.55-15.08,3.55S197,85.4,197,83.44v-.11c.25,1.91,6.9,3.43,15.07,3.43s14.83-1.52,15.06-3.43Z"/><path class="cls-20" d="M220.37,82.62c0,2-6.74,3.55-15.07,3.55s-15.08-1.59-15.08-3.55V79c0-2,6.76-3.55,15.08-3.55S220.37,77,220.37,79Z"/><path class="cls-21" d="M205.3,75.42c8.33,0,15.07,1.58,15.07,3.55s-6.74,3.53-15.07,3.53S190.22,80.91,190.22,79s6.76-3.55,15.08-3.55Z"/><path class="cls-22" d="M219.44,79c0,.74,0,.16-.07.25-1.8-3.5-26.41-3.48-28.15,0,0-.09-.06.49-.06-.25-.07-3.86,28.23-3.87,28.28,0Z"/><path class="cls-23" d="M220.37,82.62c0,2-6.74,3.55-15.07,3.55s-15.08-1.59-15.08-3.55v-.73c0,2,6.76,3.55,15.08,3.55s15.07-1.59,15.07-3.55Z"/><path class="cls-24" d="M220.37,78.84V79c0,1.94-6.74,3.53-15.07,3.53S190.22,80.91,190.22,79c0-.06,0-.09,0-.13.23,1.91,6.9,3.44,15.06,3.44s14.82-1.53,15.07-3.44Z"/><path class="cls-20" d="M225.09,78.47c0,1.94-6.76,3.53-15.08,3.53s-15.07-1.59-15.07-3.53V74.79c0-2,6.74-3.54,15.07-3.54s15.08,1.58,15.08,3.54Z"/><path class="cls-21" d="M210,71.25c8.32,0,15.08,1.58,15.08,3.54s-6.76,3.53-15.08,3.53-15.07-1.56-15.07-3.53,6.74-3.54,15.07-3.54Z"/><path class="cls-22" d="M224.16,74.79c0,.77,0,.18-.07.25-1.8-3.47-26.4-3.47-28.15,0-.05-.07-.05.52-.07-.25-.05-3.85,28.24-3.86,28.29,0Z"/><path class="cls-23" d="M225.09,78.47c0,1.94-6.76,3.53-15.08,3.53s-15.07-1.59-15.07-3.53v-.73c0,1.94,6.74,3.53,15.07,3.53s15.08-1.59,15.08-3.53Z"/><path class="cls-24" d="M225.09,74.69v.1c0,2-6.76,3.53-15.08,3.53s-15.07-1.56-15.07-3.53v-.1c.25,1.9,6.9,3.42,15.07,3.42s14.83-1.52,15.08-3.42Z"/><path class="cls-23" d="M199.4,105.83c-3.65-.66-6-1.67-6-2.83V99.33c0-1.79,5.53-3.25,12.73-3.52a13.31,13.31,0,0,1-6.7,10Z"/><path class="cls-25" d="M203.2,102.64c-5.74-.5-9.83-1.8-9.83-3.31,0-1.79,5.53-3.25,12.73-3.52a13.29,13.29,0,0,1-2.9,6.83Z"/><path class="cls-26" d="M205.91,97c-5.67.19-10.79,1-11.54,2.57-.05-.09-.05.51-.07-.25,0-1.72,5.53-2.66,11.71-2.86l-.1.54Z"/><path class="cls-27" d="M199.4,105.83c-3.65-.66-6-1.67-6-2.83v-.75c0,1.27,2.79,2.37,7,3l-.95.59Z"/><path class="cls-28" d="M203.2,102.64c-5.74-.5-9.83-1.8-9.83-3.31v-.11c.2,1.48,4.3,2.74,10,3.23a1,1,0,0,0-.16.19Z"/><path class="cls-23" d="M205,99.82c-4.7-.6-7.9-1.78-7.9-3.12V93c0-1.39,3.45-2.6,8.44-3.19a13.55,13.55,0,0,1,.71,4.33A13.35,13.35,0,0,1,205,99.82Z"/><path class="cls-25" d="M206.05,96.28c-5.29-.56-9-1.8-9-3.25s3.45-2.6,8.44-3.19a13.7,13.7,0,0,1,.55,6.44Z"/><path class="cls-26" d="M205.82,91c-4,.38-7.17,1.16-7.76,2.32,0-.07-.05.52-.07-.25,0-1.32,3.32-2.19,7.69-2.6,0,.18.1.36.14.53Z"/><path class="cls-27" d="M205,99.82c-4.7-.6-7.9-1.78-7.9-3.12V96c0,1.38,3.34,2.57,8.21,3.14a7.6,7.6,0,0,1-.31.71Z"/><path class="cls-28" d="M206.05,96.28c-5.29-.56-9-1.8-9-3.25v-.1c.18,1.39,3.84,2.6,9,3.13,0,.07,0,.15,0,.22Z"/><path class="cls-23" d="M206,96.37c-7.59-.18-13.53-1.68-13.53-3.52V89.18c0-1.6,4.53-3,10.75-3.4a13.29,13.29,0,0,1,3,8.39,12.33,12.33,0,0,1-.18,2.2Z"/><path class="cls-25" d="M206.14,92.71c-7.65-.18-13.64-1.69-13.64-3.53,0-1.6,4.53-3,10.75-3.4a13.29,13.29,0,0,1,2.89,6.93Z"/><path class="cls-26" d="M204.07,86.9c-5.28.27-9.86,1.1-10.57,2.53,0-.07-.05.52-.07-.25,0-1.57,4.69-2.51,10.28-2.8l.36.52Z"/><path class="cls-27" d="M206,96.37c-7.59-.18-13.53-1.68-13.53-3.52v-.73c0,1.84,6,3.35,13.64,3.52,0,.24-.07.49-.11.73Z"/><path class="cls-28" d="M206.14,92.71c-7.65-.18-13.64-1.69-13.64-3.53a.23.23,0,0,1,0-.11c.21,1.79,6.1,3.25,13.58,3.41,0,.07,0,.14,0,.23Z"/><path class="cls-23" d="M205.64,90.32c-5.12-.57-8.65-1.8-8.65-3.21V83.44c0-.52.47-1,1.34-1.46a13.41,13.41,0,0,1,7.31,8.34Z"/><path class="cls-25" d="M203.71,86.38c-4.06-.62-6.72-1.71-6.72-2.94,0-.52.47-1,1.34-1.46a13.43,13.43,0,0,1,5.38,4.4Z"/><path class="cls-26" d="M199.53,82.6A2.81,2.81,0,0,0,198,83.69c-.05-.07-.07.52-.07-.25,0-.45.36-.84,1-1.18l.59.34Z"/><path class="cls-27" d="M205.64,90.32c-5.12-.57-8.65-1.8-8.65-3.21v-.73c0,1.39,3.43,2.59,8.4,3.18.09.25.18.49.25.76Z"/><path class="cls-28" d="M203.71,86.38c-4.06-.62-6.72-1.71-6.72-2.94v-.11c.15,1.16,2.71,2.2,6.55,2.82a1.7,1.7,0,0,0,.17.23Z"/><path class="cls-23" d="M203.54,86.15c-7.49-.21-13.32-1.71-13.32-3.53V81.07a12.66,12.66,0,0,1,2.62-.27,13.4,13.4,0,0,1,10.7,5.35Z"/><path class="cls-25" d="M198.67,82.14a26.86,26.86,0,0,1-6.2-1.32l.37,0a13.28,13.28,0,0,1,5.83,1.34Z"/><path class="cls-27" d="M203.54,86.15c-7.49-.21-13.32-1.71-13.32-3.53v-.73c0,1.76,5.51,3.23,12.71,3.49.2.25.41.5.61.77Z"/><path class="cls-28" d="M198.67,82.14a26.86,26.86,0,0,1-6.2-1.32l.37,0a.82.82,0,0,1,.23,0,29,29,0,0,0,4.94,1c.21.1.45.19.66.3Z"/><path class="cls-20" d="M191.56,79.84a13.36,13.36,0,1,0,13.37,13.37,13.38,13.38,0,0,0-13.37-13.37Z"/><path class="cls-21" d="M190,79.84a13.36,13.36,0,1,0,13.35,13.37A13.38,13.38,0,0,0,190,79.84Z"/><path class="cls-22" d="M190,81a12.19,12.19,0,1,0,0,24.37h.42a12.19,12.19,0,0,1,0-24.36Z"/><path class="cls-24" d="M190,79.84h-.22a13.36,13.36,0,0,1,0,26.72H190a13.36,13.36,0,0,0,0-26.72Z"/><path class="cls-29" d="M195,88.37H191.5a3.15,3.15,0,0,1,1.18,2.15H195v1H192.7c-.21,2.15-1.91,3.51-4.6,3.6,1.64,1.7,3.43,3.85,5.19,6h-2c-1.64-2-3.17-3.8-5.15-5.91V94h1.16c2.27,0,3.49-1,3.64-2.4h-4.8v-1h4.73c-.29-1.22-1.41-1.83-3.24-1.83h-1.49V87.32H195Z"/><path class="cls-30" d="M194.32,88.37h-3.47A3.14,3.14,0,0,1,192,90.52h2.3v1h-2.27c-.22,2.15-1.92,3.51-4.61,3.6,1.64,1.7,3.43,3.85,5.19,6h-2c-1.65-2-3.18-3.8-5.16-5.91V94h1.16c2.27,0,3.49-1,3.64-2.4h-4.8v-1h4.73c-.29-1.22-1.4-1.83-3.23-1.83h-1.5V87.32h8.86Z"/></svg>