<?xml version="1.0" encoding="utf-8"?>
<!-- Generator: Adobe Illustrator 25.3.0, SVG Export Plug-In . SVG Version: 6.00 Build 0)  -->
<svg version="1.1" id="Layer_1" xmlns="http://www.w3.org/2000/svg" xmlns:xlink="http://www.w3.org/1999/xlink" x="0px" y="0px"
	 viewBox="0 0 280 120" style="enable-background:new 0 0 280 120;" xml:space="preserve">
<style type="text/css">
	.st0{fill:url(#SVGID_1_);}
	.st1{fill:#1FBAEA;}
	.st2{fill:#FFFFFF;}
	.st3{fill:#F9B800;}
	.st4{opacity:0.47;fill:#D7DDF0;enable-background:new    ;}
	.st5{fill:#CDD3E6;}
	.st6{fill-rule:evenodd;clip-rule:evenodd;fill:#C95836;}
	.st7{fill:#C95836;}
	.st8{fill-rule:evenodd;clip-rule:evenodd;fill:#B2C0F0;}
	.st9{fill:#2D4973;}
	.st10{fill:#CFDAF7;}
	.st11{fill:#738AD9;}
	.st12{fill:#B4C3F7;}
	.st13{fill:#FFCCAB;}
	.st14{fill:#F9A56E;}
	.st15{fill-rule:evenodd;clip-rule:evenodd;fill:#FFFFFF;}
	.st16{fill:#221F14;}
	.st17{fill-rule:evenodd;clip-rule:evenodd;fill:#E3633D;}
	.st18{fill-rule:evenodd;clip-rule:evenodd;fill:#873B24;}
	.st19{fill-rule:evenodd;clip-rule:evenodd;fill:#663A24;}
	.st20{fill-rule:evenodd;clip-rule:evenodd;fill:#3B4F94;}
	.st21{fill-rule:evenodd;clip-rule:evenodd;fill:#293666;}
	.st22{fill-rule:evenodd;clip-rule:evenodd;fill:#4A2A1A;}
	.st23{fill:#293666;}
	.st24{fill:#D98753;}
	.st25{fill:#E68F58;}
	.st26{fill:#F9B589;}
	.st27{fill:#BD4C48;}
	.st28{fill-rule:evenodd;clip-rule:evenodd;fill:#663D24;}
	.st29{fill-rule:evenodd;clip-rule:evenodd;fill:#4A2C1A;}
	.st30{fill-rule:evenodd;clip-rule:evenodd;fill:#F9A56E;}
	.st31{fill-rule:evenodd;clip-rule:evenodd;fill:#E89056;}
	.st32{fill-rule:evenodd;clip-rule:evenodd;fill:#A9BAE0;}
	.st33{fill:#8B939C;}
	.st34{fill:#647BB0;}
	.st35{opacity:0.71;fill:#F5F8FF;enable-background:new    ;}
	.st36{fill:#A36136;}
	.st37{font-family:'MyriadPro-Regular';}
	.st38{font-size:10.7924px;}
	.st39{font-size:11.95px;}
	.st40{fill:#F9B800;stroke:#FFFFFF;stroke-miterlimit:10;}
	.st41{fill:#AD285D;}
	.st42{fill:#FEFDFD;}
	.st43{fill:#AF1E54;}
</style>
<linearGradient id="SVGID_1_" gradientUnits="userSpaceOnUse" x1="259.3439" y1="1118.6973" x2="-23.5062" y2="877.5772" gradientTransform="matrix(1 0 0 1 0 -958)">
	<stop  offset="2.000000e-02" style="stop-color:#2C2C8A"/>
	<stop  offset="0.37" style="stop-color:#282084"/>
	<stop  offset="1" style="stop-color:#1F0075"/>
</linearGradient>
<rect x="-3.5" y="-4.1" class="st0" width="288.5" height="127.4"/>
<path class="st1" d="M280.3,24.8h-59.4c-3.3,0-6-2.7-6-6v-7.1c0-3.3,2.7-6,6-6h59.4l0,0V24.8L280.3,24.8z"/>
<path class="st2" d="M223.9,18.7c-0.1,0-0.1-0.1-0.1-0.2v-7.1c0-0.1,0-0.1,0.1-0.2c0.1-0.1,0.1-0.1,0.2-0.1h0.9
	c0.1,0,0.3,0.1,0.3,0.2l3.1,4.9v-4.8c0-0.1,0-0.1,0.1-0.2c0-0.1,0.1-0.1,0.2-0.1h0.9c0.1,0,0.1,0,0.2,0.1c0.1,0.1,0.1,0.1,0.1,0.2
	v7.1c0,0.1,0,0.1-0.1,0.2c0,0.1-0.1,0.1-0.2,0.1h-0.9c-0.1,0-0.3-0.1-0.3-0.2l-3.1-4.8v4.7c0,0.1,0,0.1-0.1,0.2
	c0,0.1-0.1,0.1-0.2,0.1h-0.9C224,18.8,223.9,18.8,223.9,18.7z"/>
<path class="st2" d="M231.6,18.7c0-0.1-0.1-0.1-0.1-0.2v-7.1c0-0.1,0-0.1,0.1-0.2c0-0.1,0.1-0.1,0.2-0.1h4.8c0.1,0,0.1,0,0.2,0.1
	c0.1,0.1,0.1,0.1,0.1,0.2v0.8c0,0.1,0,0.1-0.1,0.2c-0.1,0.1-0.1,0.1-0.2,0.1h-3.5v2.1h3.3c0.1,0,0.1,0,0.2,0.1c0,0,0.1,0.1,0.1,0.2
	v0.8c0,0.1,0,0.1-0.1,0.2c-0.1,0-0.1,0.1-0.2,0.1h-3.3v2.7c0,0.1-0.1,0.3-0.3,0.3l0,0h-1C231.8,18.8,231.7,18.7,231.6,18.7z"/>
<path class="st2" d="M238.7,18.1c-0.6-0.6-0.9-1.4-0.9-2.2c0-0.2,0-0.5,0-0.9s0-0.7,0-0.9c0-0.8,0.3-1.7,0.9-2.2c1.4-1,3.3-1,4.6,0
	c0.6,0.6,0.9,1.4,0.9,2.2c0,0.4,0,0.7,0,0.9s0,0.5,0,0.9c0,0.8-0.3,1.7-0.9,2.2C242,19.1,240.1,19.1,238.7,18.1L238.7,18.1z
	 M242.2,17.2c0.3-0.4,0.5-0.9,0.5-1.4c0-0.4,0-0.7,0-0.9s0-0.5,0-0.9c0-0.5-0.1-1-0.5-1.3c-0.3-0.3-0.7-0.5-1.1-0.4
	c-0.4,0-0.9,0.1-1.2,0.4c-0.3,0.4-0.5,0.9-0.5,1.3c0,0.2,0,0.5,0,0.9s0,0.7,0,0.9c0,0.5,0.1,1,0.4,1.3
	C240.6,17.7,241.6,17.7,242.2,17.2L242.2,17.2z"/>
<path class="st2" d="M247.3,18.7c0,0-0.1-0.1-0.1-0.2v-0.1l2.6-7.1c0-0.2,0.2-0.3,0.4-0.3h1.2c0.2,0,0.3,0.1,0.4,0.3l2.6,7.1v0.1
	c0,0.1,0,0.1-0.1,0.2c0,0-0.1,0.1-0.2,0.1h-1c-0.1,0-0.3-0.1-0.3-0.2l-0.5-1.3h-3.2l-0.5,1.3c0,0.1-0.2,0.2-0.3,0.2L247.3,18.7
	C247.4,18.8,247.3,18.7,247.3,18.7z M249.7,16h2.5l-1.2-3.4L249.7,16z"/>
<path class="st2" d="M255.5,18.7c0-0.1-0.1-0.1-0.1-0.2v-7.3c0-0.1,0-0.1,0.1-0.2c0.1,0,0.1-0.1,0.2-0.1h0.9c0.1,0,0.2,0.1,0.3,0.2
	l0,0v7.3c0,0.1,0,0.1-0.1,0.2c0,0.1-0.1,0.1-0.2,0.1h-0.9C255.6,18.8,255.6,18.8,255.5,18.7z"/>
<path class="st2" d="M258.9,18.2c-0.5-0.5-0.8-1.3-0.8-2v-0.3c0-0.8,0.2-1.6,0.7-2.2c1.1-1.1,2.9-1.1,4,0c0.5,0.6,0.7,1.3,0.7,2.1
	V16c0,0.1-0.1,0.3-0.3,0.3l0,0h-3.6v0.1c0,0.4,0.1,0.7,0.3,1c0.2,0.3,0.5,0.4,0.9,0.4s0.8-0.2,1-0.5c0-0.1,0.1-0.1,0.1-0.1
	c0.1,0,0.1,0,0.2,0h1c0.1,0,0.1,0,0.2,0l0.1,0.1c0,0.2-0.1,0.5-0.3,0.6c-0.2,0.3-0.6,0.5-0.9,0.6c-0.4,0.2-0.9,0.3-1.4,0.3
	C260.1,18.9,259.4,18.7,258.9,18.2z M262,15.4L262,15.4c0-0.4-0.1-0.7-0.3-1c-0.2-0.3-0.5-0.4-0.9-0.4c-0.3,0-0.7,0.1-0.9,0.4
	c-0.2,0.3-0.3,0.6-0.3,1l0,0H262z"/>
<path class="st2" d="M264.8,18.7c-0.1,0-0.1-0.1-0.1-0.2v-5.2c0-0.1,0-0.1,0.1-0.2c0-0.1,0.1-0.1,0.2-0.1h0.9c0.1,0,0.1,0,0.2,0.1
	c0,0.1,0.1,0.1,0.1,0.2v0.4c0.4-0.5,1-0.8,1.6-0.7h0.5c0.1,0,0.1,0,0.2,0.1c0,0.1,0.1,0.1,0.1,0.2v0.8c0,0.1,0,0.1-0.1,0.2
	c0,0.1-0.1,0.1-0.2,0.1h-0.9c-0.3,0-0.6,0.1-0.8,0.3c-0.2,0.2-0.3,0.5-0.3,0.8v3c0,0.1,0,0.1-0.1,0.2c0,0.1-0.1,0.1-0.2,0.1h-1
	C264.9,18.8,264.8,18.7,264.8,18.7z"/>
<path class="st2" d="M270.4,18.3c-0.4-0.4-0.5-1-0.5-1.5v-2.5H269c-0.1,0-0.1,0-0.2-0.1c0-0.1-0.1-0.1-0.1-0.2v-0.6
	c0-0.1,0-0.1,0.1-0.2c0-0.1,0.1-0.1,0.2-0.1h0.9v-1.8c0-0.1,0-0.1,0.1-0.2c0.1,0,0.1-0.1,0.2-0.1h0.9c0.1,0,0.2,0.1,0.3,0.2l0,0V13
	h1.4c0.1,0,0.1,0,0.2,0.1c0,0.1,0.1,0.1,0.1,0.2V14c0,0.1,0,0.1-0.1,0.2c-0.1,0.1-0.1,0.1-0.2,0.1h-1.4v2.4c0,0.2,0,0.5,0.2,0.7
	c0.1,0.2,0.3,0.3,0.5,0.2h0.8c0.1,0,0.2,0.1,0.3,0.2l0,0v0.7c0,0.1,0,0.1-0.1,0.2c0,0.1-0.1,0.1-0.2,0.1H272
	C271.3,18.8,270.8,18.6,270.4,18.3z"/>
<path class="st1" d="M19.8,81.2h72c1.5,0,2.8,1.2,2.8,2.8v16.4c0,1.5-1.2,2.8-2.8,2.8h-72c-1.5,0-2.8-1.2-2.8-2.8V83.9
	C17.1,82.4,18.3,81.2,19.8,81.2z"/>
<path class="st2" d="M28.5,95c0,0-0.1-0.1-0.1-0.2v-6.9c0-0.1,0-0.1,0.1-0.2c0,0,0.1-0.1,0.2-0.1h1c0.1,0,0.1,0,0.2,0.1
	c0,0,0.1,0.1,0.1,0.2v6.9c0,0.1,0,0.1-0.1,0.2c-0.1,0-0.1,0.1-0.2,0.1h-1C28.6,95.1,28.6,95.1,28.5,95z"/>
<path class="st2" d="M31.6,95c0,0-0.1-0.1-0.1-0.2v-5c0-0.1,0.1-0.2,0.2-0.2l0,0h0.9c0.1,0,0.1,0,0.2,0.1c0,0.1,0.1,0.1,0.1,0.2v0.4
	c0.4-0.5,1.1-0.8,1.8-0.8c0.6,0,1.2,0.2,1.5,0.6c0.4,0.5,0.6,1.1,0.6,1.8v3c0,0.1,0,0.1-0.1,0.2c0,0.1-0.1,0.1-0.2,0.1h-1
	c-0.1,0-0.2-0.1-0.2-0.2l0,0v-2.9c0-0.4-0.1-0.7-0.3-1c-0.2-0.2-0.5-0.4-0.9-0.3c-0.3,0-0.6,0.1-0.9,0.3c-0.2,0.3-0.4,0.6-0.3,1V95
	c0,0.1,0,0.1-0.1,0.2c-0.1,0-0.1,0.1-0.2,0.1h-0.9C31.7,95.1,31.6,95,31.6,95z"/>
<path class="st2" d="M39.7,95c-0.1-0.1-0.1-0.1-0.1-0.2l-2-4.9v-0.1c0-0.1,0-0.1,0.1-0.2c0,0,0.1-0.1,0.2-0.1h0.9
	c0.1,0,0.2,0.1,0.3,0.2l1.4,3.7l1.4-3.7c0-0.1,0-0.1,0.1-0.1s0.1-0.1,0.2-0.1h0.9c0.1,0,0.1,0,0.2,0.1c0,0,0.1,0.1,0.1,0.2v0.1
	l-2,4.9c-0.1,0.2-0.2,0.3-0.4,0.3h-0.8C39.8,95.1,39.7,95.1,39.7,95z"/>
<path class="st2" d="M44.4,94.5c-0.5-0.5-0.8-1.2-0.7-1.9v-0.3c0-0.8,0.2-1.5,0.7-2.1c1.1-1,2.8-1,3.9,0c0.5,0.6,0.7,1.3,0.7,2v0.2
	c0,0.1-0.1,0.3-0.3,0.3l0,0h-3.5v0.1c0,0.4,0.1,0.7,0.3,1s0.5,0.4,0.8,0.4c0.4,0,0.8-0.2,1-0.5c0-0.1,0.1-0.1,0.2-0.1
	c0.1,0,0.1,0,0.2,0h0.9c0.1,0,0.1,0,0.2,0c0,0,0.1,0.1,0.1,0.2c0,0.2-0.1,0.4-0.3,0.6c-0.2,0.3-0.5,0.5-0.9,0.6
	c-0.4,0.2-0.9,0.3-1.3,0.3C45.6,95.2,44.9,95,44.4,94.5z M47.4,91.8L47.4,91.8c0-0.4-0.1-0.7-0.3-1s-0.5-0.4-0.9-0.4
	c-0.3,0-0.6,0.1-0.8,0.4s-0.3,0.6-0.3,1l0,0H47.4z"/>
<path class="st2" d="M50.8,95c-0.3-0.1-0.6-0.3-0.8-0.6c-0.1-0.2-0.2-0.4-0.3-0.6c0-0.1,0-0.1,0.1-0.2c0,0,0.1-0.1,0.2-0.1h0.9
	c0.1,0,0.1,0,0.2,0.1l0.2,0.2c0.1,0.1,0.3,0.2,0.4,0.2c0.2,0.1,0.3,0.1,0.5,0.1s0.5,0,0.7-0.2c0.2-0.1,0.3-0.3,0.3-0.5
	c0-0.1,0-0.2-0.1-0.3c-0.1-0.1-0.3-0.2-0.4-0.2c-0.2-0.1-0.5-0.2-0.9-0.2c-0.5-0.1-1-0.3-1.3-0.6c-0.3-0.3-0.4-0.6-0.4-1
	c0-0.3,0.1-0.6,0.3-0.8c0.2-0.3,0.5-0.5,0.8-0.6c0.4-0.2,0.8-0.3,1.2-0.2c0.4,0,0.8,0.1,1.2,0.2c0.3,0.1,0.6,0.3,0.8,0.6
	c0.2,0.1,0.3,0.3,0.3,0.6c0,0.1-0.1,0.2-0.2,0.2h-0.8c-0.1,0-0.1,0-0.2-0.1L53,90.8c-0.1-0.1-0.2-0.2-0.4-0.2
	c-0.2-0.1-0.3-0.1-0.5-0.1s-0.4,0.1-0.6,0.2c-0.2,0.2-0.3,0.5-0.1,0.8c0.1,0.1,0.3,0.2,0.4,0.2c0.3,0.1,0.6,0.2,0.9,0.2
	c1.3,0.2,1.9,0.8,1.9,1.7c0,0.5-0.2,0.9-0.7,1.2C53,95.3,51.8,95.4,50.8,95L50.8,95z"/>
<path class="st2" d="M56.7,94.6c-0.3-0.4-0.5-0.9-0.5-1.5v-2.4h-0.8c-0.1,0-0.1,0-0.2-0.1c0,0-0.1-0.1-0.1-0.2v-0.6
	c0-0.1,0-0.1,0.1-0.2c0.1,0,0.1-0.1,0.2-0.1h0.8v-1.8c0-0.1,0-0.1,0.1-0.2c0.1,0,0.1-0.1,0.2-0.1h0.9c0.1,0,0.1,0,0.2,0.1
	c0,0.1,0.1,0.1,0.1,0.2v1.8H59c0.1,0,0.1,0,0.2,0.1c0.1,0,0.1,0.1,0.1,0.2v0.6c0,0.1-0.1,0.3-0.3,0.3h-1.3V93c0,0.2,0,0.5,0.2,0.7
	c0.1,0.2,0.3,0.2,0.5,0.2H59c0.1,0,0.2,0.1,0.3,0.2l0,0v0.7c0,0.1,0,0.1-0.1,0.2c0,0.1-0.1,0.1-0.2,0.1h-0.9
	C57.6,95.1,57.1,94.9,56.7,94.6z"/>
<path class="st2" d="M62.8,95c0,0-0.1-0.1-0.1-0.2v-6.9c0-0.1,0-0.1,0.1-0.2c0.1,0,0.1-0.1,0.2-0.1h0.8c0.1,0,0.2,0.1,0.3,0.2l3,4.7
	v-4.6c0-0.1,0-0.1,0.1-0.2c0.1,0,0.1-0.1,0.2-0.1h0.9c0.1,0,0.1,0,0.2,0.1s0.1,0.1,0.1,0.2v6.9c0,0.1,0,0.1-0.1,0.2
	c0,0-0.1,0.1-0.2,0.1h-0.8c-0.1,0-0.3-0.1-0.3-0.2l-3-4.6v4.5c0,0.1,0,0.1-0.1,0.2c-0.1,0-0.1,0.1-0.2,0.1H63
	C62.9,95.1,62.9,95.1,62.8,95z"/>
<path class="st2" d="M70.7,94.6c-0.5-0.5-0.7-1.1-0.7-1.8v-0.9c0-0.7,0.3-1.3,0.8-1.8c1.1-0.9,2.7-0.9,3.8,0
	c0.5,0.5,0.7,1.1,0.7,1.8c0,0.1,0,0.2,0,0.5s0,0.4,0,0.5c0,0.7-0.3,1.3-0.7,1.8c-0.5,0.5-1.2,0.7-1.9,0.6
	C71.9,95.3,71.2,95,70.7,94.6z M73.5,93.8c0.2-0.3,0.3-0.6,0.3-1c0-0.1,0-0.2,0-0.4s0-0.3,0-0.4c0-0.4-0.1-0.7-0.3-1
	c-0.5-0.5-1.2-0.5-1.7,0c-0.2,0.3-0.3,0.6-0.3,1v0.8c0,0.4,0.1,0.7,0.3,1C72.2,94.3,73,94.3,73.5,93.8z"/>
<path class="st2" d="M77.4,94.8l-1.5-4.9v-0.1c0-0.1,0-0.1,0.1-0.2c0,0,0.1-0.1,0.2-0.1H77c0.1,0,0.1,0,0.2,0.1l0.1,0.1l1,3.5
	l1.1-3.5c0-0.1,0.1-0.1,0.1-0.2c0.1-0.1,0.1-0.1,0.2-0.1h0.5c0.1,0,0.2,0,0.2,0.1c0,0,0.1,0.1,0.1,0.2l1.1,3.5l1-3.5
	c0-0.1,0.1-0.1,0.1-0.1c0.1,0,0.1-0.1,0.2-0.1h0.8c0.1,0,0.1,0,0.2,0.1c0,0,0.1,0.1,0.1,0.2v0.1l-1.5,4.9c0,0.1-0.1,0.1-0.1,0.2
	c-0.1,0-0.1,0.1-0.2,0.1h-0.7c-0.2,0-0.3-0.1-0.3-0.3L80,91.5l-1.1,3.3c0,0.2-0.2,0.3-0.4,0.3h-0.7C77.6,95.1,77.5,95,77.4,94.8z"/>
<path class="st2" d="M19.1,66.5c-0.4-0.2-0.8-0.4-1.1-0.8c-0.2-0.3-0.4-0.7-0.4-1.1c0-0.1,0-0.1,0.1-0.2c0-0.1,0.1-0.1,0.2-0.1h0.2
	c0.1,0,0.3,0.1,0.3,0.2l0,0c0.1,0.4,0.3,0.8,0.7,1c0.5,0.3,1.1,0.5,1.7,0.4c0.6,0,1.2-0.1,1.7-0.4c0.4-0.3,0.6-0.7,0.6-1.1
	c0-0.3-0.1-0.5-0.3-0.8c-0.2-0.2-0.5-0.4-0.8-0.5c-0.4-0.1-0.9-0.3-1.6-0.5c-0.5-0.2-1-0.4-1.5-0.6c-0.3-0.2-0.6-0.4-0.8-0.7
	c-0.2-0.3-0.3-0.7-0.2-1.1c0-0.4,0.1-0.8,0.3-1.1c0.2-0.4,0.6-0.6,1-0.8c0.5-0.2,1-0.3,1.5-0.3s1,0.1,1.5,0.3c0.4,0.2,0.7,0.4,1,0.8
	c0.2,0.3,0.3,0.6,0.4,1c0,0.1,0,0.1-0.1,0.2c0,0.1-0.1,0.1-0.2,0.1H23c-0.1,0-0.1,0-0.2,0s-0.1-0.1-0.1-0.2c-0.1-0.4-0.3-0.8-0.6-1
	c-0.4-0.3-0.9-0.4-1.4-0.4s-1,0.1-1.5,0.4c-0.4,0.2-0.6,0.6-0.5,1.1c0,0.3,0.1,0.6,0.2,0.8c0.2,0.2,0.4,0.4,0.7,0.5
	c0.5,0.2,1,0.4,1.5,0.5c0.5,0.2,1,0.4,1.5,0.6c0.3,0.2,0.6,0.4,0.8,0.7c0.2,0.3,0.3,0.7,0.3,1.1c0,0.7-0.3,1.3-0.8,1.7
	c-0.7,0.4-1.4,0.6-2.2,0.6C20.2,66.9,19.6,66.7,19.1,66.5z"/>
<path class="st2" d="M25.5,66.6c0-0.1-0.1-0.1-0.1-0.2v-7.9c0-0.1,0-0.1,0.1-0.2c0-0.1,0.1-0.1,0.2-0.1H26c0.1,0,0.1,0,0.2,0.1
	c0.1,0,0.1,0.1,0.1,0.2v7.9c0,0.1-0.1,0.2-0.2,0.3l0,0h-0.2C25.7,66.7,25.6,66.7,25.5,66.6z"/>
<path class="st2" d="M28.6,66.6c0-0.1-0.1-0.1-0.1-0.2v-7.9c0-0.1,0-0.1,0.1-0.2c0-0.1,0.1-0.1,0.2-0.1h2.9c0.7,0,1.4,0.2,2,0.7
	c1,1,1,2.7,0,3.7c-0.6,0.4-1.3,0.7-2,0.6h-2.4v3.2c0,0.1,0,0.1-0.1,0.2c-0.1,0-0.1,0.1-0.2,0.1h-0.2C28.7,66.7,28.6,66.7,28.6,66.6z
	 M31.6,62.5c0.6,0,1.1-0.1,1.6-0.5c0.7-0.8,0.7-1.9,0-2.6c-0.4-0.3-1-0.5-1.5-0.5h-2.4v3.5L31.6,62.5z"/>
<path class="st2" d="M39.3,66.6c-0.3-0.1-0.6-0.3-0.8-0.6c-0.1-0.1-0.2-0.3-0.3-0.5c0-0.1,0-0.1,0.1-0.2c0,0,0.1-0.1,0.2-0.1h0.2
	h0.1c0.1,0,0.1,0.1,0.1,0.1c0.2,0.2,0.4,0.4,0.6,0.6c0.3,0.1,0.7,0.2,1,0.2c0.4,0,0.8-0.1,1.2-0.3c0.3-0.2,0.5-0.5,0.5-0.8
	c0-0.2-0.1-0.4-0.2-0.5c-0.2-0.2-0.4-0.3-0.6-0.4c-0.3-0.1-0.7-0.2-1.2-0.3s-1-0.3-1.5-0.7c-0.3-0.3-0.4-0.7-0.4-1.1
	c0-0.3,0.1-0.6,0.2-0.8c0.2-0.3,0.4-0.5,0.7-0.7c0.4-0.2,0.8-0.3,1.2-0.2c0.4,0,0.8,0.1,1.2,0.2c0.3,0.1,0.5,0.3,0.7,0.6
	c0.1,0.1,0.2,0.3,0.2,0.5c0,0.1,0,0.1-0.1,0.2c-0.1,0-0.1,0.1-0.2,0.1H42c-0.1,0-0.2-0.1-0.3-0.2c-0.1-0.2-0.3-0.4-0.5-0.5
	c-0.3-0.1-0.7-0.2-1-0.2c-0.4,0-0.7,0.1-1.1,0.3c-0.2,0.2-0.4,0.5-0.4,0.8c0,0.2,0,0.3,0.2,0.5c0.1,0.2,0.3,0.3,0.5,0.4
	c0.4,0.1,0.8,0.2,1.2,0.3c0.6,0.1,1.1,0.3,1.6,0.7c0.3,0.3,0.5,0.7,0.5,1.1c0,0.3-0.1,0.6-0.3,0.9s-0.5,0.5-0.8,0.7
	c-0.4,0.2-0.8,0.3-1.3,0.2C40.2,66.8,39.8,66.7,39.3,66.6z"/>
<path class="st2" d="M45.4,66.2c-0.3-0.4-0.4-1-0.4-1.5v-3.5h-0.9c-0.1,0-0.1,0-0.2-0.1c0-0.1-0.1-0.1-0.1-0.2v-0.2
	c0-0.1,0-0.1,0.1-0.2c0-0.1,0.1-0.1,0.2-0.1H45v-2c0-0.1,0-0.1,0.1-0.2c0-0.1,0.1-0.1,0.2-0.1h0.2c0.1,0,0.1,0,0.2,0.1
	c0.1,0,0.1,0.1,0.1,0.2v2h1.5c0.1,0,0.1,0,0.2,0.1c0.1,0,0.1,0.1,0.1,0.2v0.2c0,0.1,0,0.1-0.1,0.2c-0.1,0-0.1,0.1-0.2,0.1h-1.5v3.5
	c0,0.3,0.1,0.7,0.2,1c0.2,0.2,0.5,0.4,0.7,0.3h0.7c0.1,0,0.2,0.1,0.3,0.2l0,0v0.2c0,0.1-0.1,0.2-0.2,0.3l0,0h-0.7
	C46.2,66.7,45.7,66.5,45.4,66.2z"/>
<path class="st2" d="M49.5,66.6c-0.3-0.1-0.6-0.4-0.8-0.7c-0.2-0.3-0.3-0.6-0.3-0.9c0-0.5,0.2-1,0.6-1.3c0.5-0.4,1.1-0.6,1.7-0.7
	l1.9-0.3v-0.4c0-0.4-0.1-0.7-0.4-1c-0.7-0.4-1.5-0.5-2.2-0.1c-0.2,0.1-0.4,0.3-0.5,0.6c0,0.1-0.1,0.1-0.1,0.2
	c-0.1,0-0.1,0.1-0.2,0.1H49c-0.1,0-0.3-0.1-0.3-0.3l0,0c0-0.2,0.1-0.4,0.2-0.6c0.2-0.3,0.5-0.5,0.8-0.6c0.4-0.2,0.8-0.3,1.2-0.3
	c0.7-0.1,1.3,0.2,1.8,0.6c0.4,0.4,0.6,0.9,0.5,1.5v4c0,0.1,0,0.1-0.1,0.2c0,0.1-0.1,0.1-0.2,0.1H53c-0.1,0-0.1,0-0.2-0.1
	c-0.1,0-0.1-0.1-0.1-0.2v-0.6c-0.2,0.3-0.5,0.5-0.8,0.7c-0.4,0.2-0.9,0.3-1.3,0.3C50.2,66.9,49.8,66.8,49.5,66.6z M52.1,65.6
	c0.4-0.5,0.6-1.1,0.6-1.7v-0.4l-1.5,0.2c-0.5,0-1,0.2-1.5,0.5c-0.3,0.2-0.5,0.5-0.5,0.8s0.2,0.7,0.5,0.9c0.3,0.2,0.7,0.3,1.1,0.3
	C51.2,66.2,51.8,65.9,52.1,65.6L52.1,65.6z"/>
<path class="st2" d="M55.4,66.6c0-0.1-0.1-0.1-0.1-0.2v-5.7c0-0.1,0-0.1,0.1-0.2c0.1-0.1,0.1-0.1,0.2-0.1h0.2c0.1,0,0.1,0,0.2,0.1
	c0,0.1,0.1,0.1,0.1,0.2v0.5c0.3-0.6,1-0.9,1.6-0.8h0.4c0.1,0,0.1,0,0.2,0.1c0.1,0,0.1,0.1,0.1,0.2v0.2c0,0.1,0,0.1-0.1,0.2
	c-0.1,0-0.1,0.1-0.2,0.1h-0.5c-0.8-0.1-1.5,0.5-1.6,1.3c0,0.1,0,0.2,0,0.2v3.7c0,0.1,0,0.1-0.1,0.2c-0.1,0-0.1,0.1-0.2,0.1h-0.2
	C55.5,66.7,55.5,66.7,55.4,66.6z"/>
<path class="st2" d="M60.3,66.2c-0.3-0.4-0.4-1-0.3-1.5v-3.5h-1c-0.1,0-0.1,0-0.2-0.1c0-0.1-0.1-0.1-0.1-0.2v-0.2
	c0-0.1,0-0.1,0.1-0.2c0-0.1,0.1-0.1,0.2-0.1h1v-2c0-0.1,0-0.1,0.1-0.2c0-0.1,0.1-0.1,0.2-0.1h0.2c0.1,0,0.1,0,0.2,0.1
	c0,0.1,0.1,0.1,0.1,0.2v2h1.5c0.1,0,0.1,0,0.2,0.1c0.1,0,0.1,0.1,0.1,0.2v0.2c0,0.1,0,0.1-0.1,0.2c-0.1,0-0.1,0.1-0.2,0.1h-1.5v3.5
	c0,0.3,0.1,0.7,0.2,1c0.2,0.2,0.5,0.4,0.7,0.3h0.7c0.1,0,0.2,0.1,0.3,0.2l0,0v0.2c0,0.1-0.1,0.2-0.2,0.3l0,0h-0.7
	C61.1,66.7,60.7,66.5,60.3,66.2z"/>
<path class="st2" d="M64.5,66.6c-0.3-0.1-0.6-0.3-0.8-0.6c-0.1-0.1-0.2-0.3-0.3-0.5c0-0.1,0-0.1,0.1-0.2c0,0,0.1-0.1,0.2-0.1h0.2H64
	c0.1,0,0.1,0.1,0.1,0.1c0.2,0.2,0.4,0.4,0.6,0.6c0.3,0.1,0.7,0.2,1,0.2c0.4,0,0.8-0.1,1.2-0.3c0.3-0.2,0.5-0.5,0.4-0.8
	c0-0.2-0.1-0.4-0.2-0.5c-0.2-0.2-0.4-0.3-0.6-0.4c-0.3-0.1-0.7-0.2-1.2-0.3s-1-0.3-1.4-0.6c-0.3-0.3-0.4-0.7-0.4-1.1
	c0-0.3,0.1-0.6,0.2-0.8c0.2-0.3,0.4-0.5,0.7-0.7c0.4-0.2,0.8-0.3,1.2-0.2c0.4,0,0.8,0.1,1.2,0.2c0.3,0.1,0.5,0.3,0.8,0.6
	c0.1,0.1,0.2,0.3,0.2,0.5c0,0.1,0,0.1-0.1,0.2c-0.1,0-0.1,0.1-0.2,0.1h-0.2c-0.1,0-0.2-0.1-0.3-0.2c-0.1-0.2-0.3-0.4-0.6-0.5
	c-0.3-0.1-0.7-0.2-1-0.2c-0.4,0-0.7,0.1-1.1,0.3c-0.2,0.2-0.4,0.5-0.4,0.8c0,0.2,0,0.3,0.1,0.5s0.3,0.3,0.5,0.4
	c0.4,0.1,0.8,0.2,1.2,0.3c0.6,0.1,1.1,0.3,1.6,0.7c0.3,0.3,0.5,0.7,0.5,1.1c0,0.3-0.1,0.6-0.3,0.9c-0.2,0.3-0.5,0.5-0.8,0.7
	c-0.4,0.2-0.8,0.3-1.3,0.2C65.3,66.8,64.9,66.7,64.5,66.6z"/>
<path class="st2" d="M73.4,66.6c-0.3-0.1-0.6-0.4-0.8-0.7c-0.2-0.3-0.3-0.6-0.3-0.9c0-0.5,0.2-1,0.6-1.3c0.5-0.4,1.1-0.6,1.7-0.7
	l1.9-0.3v-0.4c0-0.4-0.1-0.7-0.4-1c-0.7-0.4-1.5-0.5-2.2-0.1c-0.2,0.1-0.4,0.3-0.5,0.6c0,0.1-0.1,0.1-0.1,0.2c0,0-0.1,0.1-0.2,0.1
	H73c-0.1,0-0.1,0-0.2-0.1c-0.1,0-0.1-0.1-0.1-0.2c0-0.2,0.1-0.4,0.2-0.6c0.2-0.3,0.4-0.5,0.7-0.6c0.4-0.2,0.8-0.3,1.3-0.3
	c0.7-0.1,1.3,0.2,1.8,0.6c0.4,0.4,0.6,0.9,0.5,1.5v4c0,0.1-0.1,0.2-0.2,0.3l0,0h-0.2c-0.1,0-0.2-0.1-0.3-0.2l0,0v-0.6
	c-0.2,0.3-0.5,0.5-0.8,0.7c-0.4,0.2-0.9,0.3-1.3,0.3C74.1,66.8,73.8,66.7,73.4,66.6z M76.1,65.6c0.4-0.5,0.6-1.1,0.6-1.7v-0.4
	l-1.6,0.2c-0.5,0-1,0.2-1.5,0.5c-0.5,0.3-0.6,0.9-0.3,1.4c0.1,0.1,0.2,0.2,0.3,0.3C74.4,66.3,75.4,66.2,76.1,65.6L76.1,65.6z"/>
<path class="st2" d="M80,66.2c-0.3-0.4-0.4-1-0.4-1.5v-3.5h-0.9c-0.1,0-0.1,0-0.2-0.1c0-0.1-0.1-0.1-0.1-0.2v-0.2
	c0-0.1,0-0.1,0.1-0.2c0-0.1,0.1-0.1,0.2-0.1h0.9v-2c0-0.1,0-0.1,0.1-0.2c0-0.1,0.1-0.1,0.2-0.1h0.2c0.1,0,0.1,0,0.2,0.1
	c0,0.1,0.1,0.1,0.1,0.2v2h1.5c0.1,0,0.1,0,0.2,0.1c0.1,0,0.1,0.1,0.1,0.2v0.2c0,0.1,0,0.1-0.1,0.2c-0.1,0-0.1,0.1-0.2,0.1h-1.5v3.5
	c0,0.3,0.1,0.7,0.2,1c0.2,0.2,0.5,0.4,0.7,0.3H82c0.1,0,0.2,0.1,0.3,0.2l0,0v0.2c0,0.1-0.1,0.2-0.2,0.3l0,0h-0.7
	C80.8,66.7,80.3,66.5,80,66.2z"/>
<path class="st2" d="M91.4,59.4h-2c0.4,0.3,0.6,0.7,0.7,1.2h1.3v0.6h-1.3c-0.1,1.2-1.1,2-2.6,2c0.9,1,2,2.2,3,3.4h-1.2
	c-0.9-1.1-1.8-2.2-2.9-3.4v-0.7H87c1.3,0,2-0.5,2.1-1.4h-2.7v-0.6H89c-0.2-0.7-0.8-1-1.8-1h-0.8v-0.8h5L91.4,59.4z"/>
<path class="st2" d="M94.9,66.6c-0.1-0.1-0.1-0.1-0.1-0.2v-6.8l-2,1.5c0,0-0.1,0.1-0.2,0.1s-0.2-0.1-0.2-0.1l-0.3-0.4
	c0,0-0.1-0.1-0.1-0.2c0-0.1,0-0.2,0.1-0.2l2.6-2c0.1-0.1,0.2-0.1,0.3-0.1h0.6c0.1,0,0.1,0,0.2,0.1s0.1,0.1,0.1,0.2v7.9
	c0,0.1,0,0.1-0.1,0.2c-0.1,0-0.1,0.1-0.2,0.1H95C95,66.7,95,66.7,94.9,66.6z"/>
<path class="st2" d="M98.4,65.9c-0.5-0.7-0.8-1.5-0.8-2.4v-2.1c0-0.9,0.3-1.7,0.8-2.4c1.3-1.2,3.3-1.2,4.5,0
	c0.5,0.7,0.8,1.5,0.8,2.4c0,0.2,0,0.6,0,1.1s0,0.8,0,1c0,0.9-0.3,1.7-0.8,2.4C101.7,67.1,99.7,67.1,98.4,65.9L98.4,65.9z
	 M102.1,65.2c0.3-0.5,0.5-1.1,0.5-1.7c0-0.2,0-0.6,0-1s0-0.8,0-1c0-0.6-0.1-1.2-0.5-1.7c-0.7-0.8-1.8-0.8-2.6-0.1
	c-0.1,0-0.1,0.1-0.1,0.1c-0.3,0.5-0.5,1.1-0.5,1.7v1v1c0,0.6,0.1,1.2,0.5,1.7c0.3,0.4,0.8,0.6,1.4,0.6
	C101.2,65.9,101.7,65.6,102.1,65.2z"/>
<path class="st2" d="M106,65.9c-0.5-0.7-0.8-1.5-0.8-2.4v-2.1c0-0.8,0.3-1.7,0.8-2.4c1.3-1.2,3.3-1.2,4.5,0c0.5,0.7,0.8,1.5,0.8,2.4
	c0,0.2,0,0.6,0,1.1s0,0.8,0,1c0,0.9-0.3,1.7-0.8,2.4c-0.6,0.6-1.4,1-2.3,0.9C107.4,66.9,106.6,66.5,106,65.9z M109.7,65.2
	c0.3-0.5,0.5-1.1,0.5-1.7c0-0.2,0-0.6,0-1s0-0.8,0-1c0-0.6-0.2-1.2-0.5-1.7c-0.7-0.8-1.9-0.8-2.6-0.1c-0.1,0-0.1,0.1-0.1,0.1
	c-0.3,0.5-0.5,1.1-0.5,1.7v2c0,0.6,0.2,1.2,0.5,1.7C107.7,66,108.9,66,109.7,65.2C109.6,65.3,109.6,65.2,109.7,65.2z"/>
<path class="st2" d="M113.6,65.9c-0.5-0.7-0.8-1.5-0.8-2.4v-2.1c0-0.9,0.3-1.7,0.8-2.4c1.3-1.2,3.3-1.2,4.5,0
	c0.5,0.7,0.8,1.5,0.8,2.4c0,0.2,0,0.6,0,1.1s0,0.8,0,1c0,0.9-0.3,1.7-0.8,2.4C116.9,67.1,114.9,67.1,113.6,65.9L113.6,65.9z
	 M117.2,65.2c0.3-0.5,0.5-1.1,0.5-1.7c0-0.2,0-0.6,0-1s0-0.8,0-1c0-0.6-0.1-1.2-0.5-1.7c-0.7-0.8-1.8-0.8-2.6-0.1
	c-0.1,0-0.1,0.1-0.1,0.1c-0.3,0.5-0.5,1.1-0.5,1.7v2c0,0.6,0.1,1.2,0.5,1.7C115.2,66,116.4,66,117.2,65.2
	C117.2,65.3,117.2,65.3,117.2,65.2L117.2,65.2z"/>
<path class="st3" d="M17.3,25.9c-0.1-0.1-0.1-0.1-0.1-0.2v-0.1L21,15.2c0.1-0.3,0.3-0.5,0.6-0.5h2.5c0.3,0,0.6,0.2,0.6,0.5l3.7,10.3
	v0.1c0,0.1,0,0.2-0.1,0.2c-0.1,0.1-0.1,0.1-0.2,0.1H26c-0.2,0-0.5-0.1-0.5-0.4L25,24.1h-4.2l-0.6,1.5c-0.1,0.2-0.3,0.4-0.5,0.4h-2.1
	C17.5,26,17.4,25.9,17.3,25.9z M21.4,21.7h2.8l-1.4-4.1L21.4,21.7z"/>
<path class="st3" d="M28.9,25.9c-0.1-0.1-0.1-0.2-0.1-0.2c0-0.1,0-0.1,0-0.2l3.5-5.2l-3.2-5c0-0.1,0-0.1,0-0.2c0-0.1,0-0.2,0.1-0.2
	c0.1-0.1,0.1-0.1,0.2-0.1h2.5c0.2,0,0.5,0.1,0.6,0.4l1.8,2.8l1.9-2.8c0.1-0.2,0.3-0.3,0.6-0.4H39c0.1,0,0.2,0,0.2,0.1
	c0.1,0.1,0.1,0.1,0.1,0.2c0,0.1,0,0.1,0,0.2l-3.3,5l3.5,5.2c0,0.1,0,0.1,0,0.2s0,0.2-0.1,0.2C39.3,26,39.3,26,39.2,26h-2.5
	c-0.2,0-0.4-0.1-0.6-0.3l-2-3l-2,3C32,25.8,31.8,26,31.6,26h-2.5C29,26,28.9,25.9,28.9,25.9z"/>
<path class="st3" d="M41,25.8c-0.1-0.1-0.1-0.2-0.1-0.3V15.2c0-0.1,0-0.2,0.1-0.3s0.2-0.1,0.3-0.1h2.3c0.1,0,0.2,0,0.3,0.1
	s0.1,0.2,0.1,0.3v10.4c0,0.2-0.2,0.4-0.4,0.4l0,0h-2.3C41.1,26,41.1,25.9,41,25.8z"/>
<path class="st3" d="M47.7,25.7c-0.6-0.2-1.2-0.6-1.7-1.2c-0.4-0.5-0.6-1-0.6-1.6c0-0.1,0-0.2,0.1-0.2c0.1-0.1,0.2-0.1,0.2-0.1h2.1
	c0.1,0,0.2,0,0.3,0.1s0.2,0.1,0.3,0.2c0.1,0.3,0.4,0.5,0.6,0.6c0.4,0.2,0.8,0.3,1.2,0.2c0.5,0,0.9-0.1,1.3-0.3
	c0.3-0.1,0.5-0.4,0.5-0.7c0-0.2-0.1-0.4-0.2-0.6c-0.2-0.2-0.5-0.3-0.8-0.4c-0.5-0.2-1-0.3-1.5-0.4c-1-0.2-2-0.6-2.9-1.2
	c-0.7-0.5-1-1.4-1-2.2c0-0.6,0.2-1.3,0.5-1.8c0.4-0.6,1-1,1.6-1.2c0.7-0.3,1.6-0.4,2.4-0.4c0.8,0,1.7,0.1,2.4,0.5
	c0.6,0.3,1.2,0.7,1.6,1.2c0.3,0.4,0.5,0.9,0.6,1.4c0,0.1,0,0.2-0.1,0.2c-0.1,0.1-0.1,0.1-0.2,0.1h-2.2c-0.2,0-0.4-0.1-0.5-0.3
	c-0.1-0.2-0.3-0.5-0.5-0.6c-0.3-0.2-0.7-0.2-1-0.2s-0.7,0.1-1,0.2c-0.2,0.1-0.4,0.4-0.4,0.7c0,0.3,0.2,0.6,0.5,0.7
	c0.6,0.3,1.2,0.4,1.8,0.5c0.8,0.1,1.6,0.4,2.4,0.7c0.5,0.2,1,0.6,1.3,1c0.6,1.1,0.5,2.5-0.2,3.5c-0.5,0.6-1.1,1-1.7,1.2
	c-0.8,0.3-1.7,0.4-2.5,0.4C49.5,26.1,48.6,26,47.7,25.7z"/>
<path class="st3" d="M60.2,25.8c-0.1-0.1-0.1-0.2-0.1-0.3V15.2c0-0.1,0-0.2,0.1-0.3s0.2-0.1,0.3-0.1h1.8c0.2,0,0.4,0.1,0.5,0.3
	l3.8,6v-5.9c0-0.1,0-0.2,0.1-0.3s0.2-0.1,0.3-0.1h2c0.1,0,0.2,0,0.3,0.1c0.1,0.1,0.1,0.2,0.1,0.3v10.4c0,0.1,0,0.2-0.1,0.3
	C69.2,26,69.1,26,69,26h-1.8c-0.2,0-0.4-0.1-0.5-0.3L63,19.9v5.6c0,0.1,0,0.2-0.1,0.3c-0.1,0.1-0.2,0.1-0.3,0.1h-2
	C60.5,26,60.3,25.9,60.2,25.8z"/>
<path class="st3" d="M71.8,25.8c-0.1-0.1-0.1-0.2-0.1-0.3V15.2c0-0.1,0-0.2,0.1-0.3s0.2-0.1,0.3-0.1h2.3c0.1,0,0.2,0,0.3,0.1
	c0.1,0.1,0.1,0.2,0.1,0.3v10.4c0,0.2-0.2,0.4-0.4,0.4l0,0h-2.3C72,26,71.9,25.9,71.8,25.8z"/>
<path class="st3" d="M77,25.8c-0.1-0.1-0.1-0.2-0.1-0.3V15.2c0-0.1,0-0.2,0.1-0.3s0.2-0.1,0.3-0.1h7.4c0.1,0,0.2,0,0.3,0.1
	c0.1,0.1,0.1,0.2,0.1,0.3v1.7c0,0.1,0,0.2-0.1,0.3c-0.1,0.1-0.2,0.1-0.3,0.1h-4.9v2.2h4.6c0.1,0,0.2,0,0.3,0.1
	c0.1,0.1,0.1,0.2,0.1,0.3v1.7c0,0.1,0,0.2-0.1,0.3C84.6,22,84.5,22,84.4,22h-4.5v3.5c0,0.2-0.2,0.4-0.4,0.4l0,0h-2.1
	C77.2,26,77.1,25.9,77,25.8z"/>
<path class="st3" d="M89.4,25.9c-0.1-0.1-0.1-0.2-0.1-0.3v-8.2h-2.8c-0.1,0-0.2,0-0.3-0.1c-0.1-0.1-0.1-0.2-0.1-0.3v-1.8
	c0-0.2,0.2-0.4,0.4-0.4l0,0h8.7c0.1,0,0.2,0,0.3,0.1c0.1,0.1,0.1,0.2,0.1,0.3V17c0,0.1,0,0.2-0.1,0.3c-0.1,0.1-0.2,0.1-0.3,0.1h-2.8
	v8.2c0,0.1,0,0.2-0.1,0.3c-0.1,0-0.2,0.1-0.3,0.1h-2.3C89.6,26,89.5,25.9,89.4,25.9z"/>
<path class="st3" d="M100,25.8c-0.1-0.1-0.1-0.2-0.1-0.3v-3.4l-3.7-6.9c0-0.1,0-0.1,0-0.2c0-0.1,0-0.2,0.1-0.2
	c0.1-0.1,0.1-0.1,0.2-0.1h2.1c0.1,0,0.3,0,0.4,0.1s0.2,0.1,0.2,0.2l2.2,4l2.2-4c0.1-0.1,0.1-0.2,0.2-0.2c0.1-0.1,0.2-0.1,0.4-0.1
	h2.1c0.1,0,0.2,0,0.2,0.1c0.1,0.1,0.1,0.1,0.1,0.2c0,0.1,0,0.1-0.1,0.2l-3.7,6.9v3.4c0,0.1,0,0.2-0.1,0.3c-0.1,0.1-0.2,0.1-0.3,0.1
	h-2.2C100.2,26,100.1,25.9,100,25.8z"/>
<path class="st2" d="M110.8,25.8c-0.1-0.1-0.1-0.2-0.1-0.3V18c0-0.1,0-0.2,0.1-0.3c0.1-0.1,0.2-0.1,0.3-0.1h1.9c0.1,0,0.2,0,0.3,0.1
	c0.1,0.1,0.1,0.2,0.1,0.3v0.5c0.3-0.3,0.6-0.6,1-0.8c0.4-0.2,0.9-0.3,1.4-0.3c1-0.1,2,0.5,2.4,1.4c0.6-0.9,1.5-1.4,2.5-1.4
	c0.8,0,1.6,0.3,2.1,0.9c0.6,0.7,0.9,1.7,0.8,2.6v4.5c0,0.2-0.2,0.4-0.4,0.4l0,0h-2c-0.1,0-0.2,0-0.3-0.1c-0.1-0.1-0.1-0.2-0.1-0.3
	V21c0-0.4-0.1-0.8-0.3-1.1c-0.2-0.2-0.5-0.4-0.8-0.4s-0.6,0.1-0.8,0.4c-0.2,0.3-0.3,0.7-0.3,1.1v4.4c0,0.1,0,0.2-0.1,0.3
	c-0.1,0.1-0.2,0.1-0.3,0.1h-2c-0.1,0-0.2,0-0.3-0.1c-0.1-0.1-0.1-0.2-0.1-0.3V21c0-0.4-0.1-0.8-0.3-1.1c-0.2-0.2-0.5-0.4-0.8-0.4
	s-0.6,0.1-0.8,0.4c-0.2,0.3-0.4,0.7-0.3,1.1v4.4c0,0.1,0,0.2-0.1,0.3c-0.1,0.1-0.2,0.1-0.3,0.1h-2C111,26,110.9,25.9,110.8,25.8z"/>
<path class="st2" d="M125.5,16.4c-0.1-0.1-0.1-0.2-0.1-0.3v-1.5c0-0.1,0-0.2,0.1-0.3s0.2-0.1,0.3-0.1h2c0.2,0,0.4,0.2,0.4,0.4v1.5
	c0,0.1,0,0.2-0.1,0.3c-0.1,0.1-0.2,0.1-0.3,0.1h-2C125.7,16.5,125.6,16.5,125.5,16.4z M125.5,25.8c-0.1-0.1-0.1-0.2-0.1-0.3V18
	c0-0.1,0-0.2,0.1-0.3c0.1-0.1,0.2-0.1,0.3-0.1h2c0.1,0,0.2,0,0.3,0.1s0.1,0.2,0.1,0.3v7.5c0,0.1,0,0.2-0.1,0.3
	c-0.1,0.1-0.2,0.1-0.3,0.1h-2C125.7,25.9,125.6,25.9,125.5,25.8L125.5,25.8z"/>
<path class="st2" d="M130.7,25.1c-0.7-0.8-1-1.8-1-2.8v-0.6v-0.6c0-1,0.3-2,1-2.7c1.3-1.3,3.4-1.3,4.8-0.1V15c0-0.1,0-0.2,0.1-0.3
	s0.2-0.1,0.3-0.1h2.1c0.1,0,0.2,0,0.3,0.1s0.1,0.2,0.1,0.3v10.6c0,0.1,0,0.2-0.1,0.3c-0.1,0.1-0.2,0.1-0.3,0.1h-2
	c-0.2,0-0.4-0.2-0.4-0.4v-0.5c-0.6,0.7-1.5,1.1-2.5,1.1C132.2,26.2,131.3,25.8,130.7,25.1z M135.1,23.5c0.2-0.3,0.4-0.7,0.4-1.1
	c0-0.3,0-0.5,0-0.6s0-0.3,0-0.6c0-0.4-0.1-0.7-0.4-1c-0.3-0.3-0.6-0.4-1-0.4s-0.8,0.1-1,0.4s-0.4,0.8-0.4,1.2v0.5v0.5
	c0,0.4,0.1,0.8,0.4,1.2C133.6,24,134.5,24,135.1,23.5L135.1,23.5z"/>
<path class="st2" d="M141.1,25.1c-0.8-0.7-1.2-1.7-1.2-2.7v-0.6v-0.7c0-1,0.4-2,1.2-2.7s1.9-1.1,3-1c0.8,0,1.6,0.1,2.3,0.5
	c0.6,0.3,1,0.7,1.4,1.2c0.3,0.4,0.4,0.8,0.5,1.2c0,0.1,0,0.2-0.1,0.3c-0.1,0.1-0.2,0.1-0.3,0.1h-2.1c-0.1,0-0.2,0-0.3-0.1
	s-0.1-0.2-0.2-0.3c-0.1-0.3-0.2-0.5-0.5-0.6c-0.2-0.1-0.5-0.2-0.7-0.2c-0.8,0-1.2,0.5-1.3,1.6v0.6v0.5c0,0.4,0.1,0.9,0.3,1.2
	c0.2,0.3,0.6,0.4,0.9,0.4c0.3,0,0.5-0.1,0.7-0.2c0.2-0.2,0.4-0.4,0.4-0.7c0-0.1,0.1-0.2,0.2-0.3c0.1-0.1,0.2-0.1,0.3-0.1h2.1
	c0.1,0,0.2,0,0.3,0.1s0.1,0.2,0.1,0.3c0,0.4-0.2,0.8-0.4,1.2c-0.4,0.5-0.8,0.9-1.4,1.2c-0.7,0.4-1.6,0.6-2.4,0.5
	C143,26.2,141.9,25.8,141.1,25.1z"/>
<path class="st2" d="M150.6,25.8c-0.4-0.2-0.8-0.5-1.1-0.9s-0.4-0.8-0.4-1.3c0-0.7,0.3-1.4,0.9-1.8c0.7-0.5,1.6-0.8,2.5-0.9l2-0.3
	v-0.2c0-0.3-0.1-0.6-0.2-0.9c-0.2-0.2-0.5-0.3-0.8-0.3c-0.2,0-0.4,0-0.5,0.1c-0.2,0.1-0.3,0.2-0.5,0.3c-0.1,0.1-0.2,0.2-0.4,0.2
	c0,0.1-0.1,0.1-0.2,0.1H150c-0.1,0-0.2,0-0.3-0.1s-0.1-0.2-0.1-0.2c0-0.4,0.2-0.7,0.4-1c0.3-0.4,0.8-0.7,1.3-0.9
	c0.7-0.3,1.4-0.4,2.1-0.4c1.1-0.1,2.1,0.2,2.9,0.9c0.7,0.6,1,1.5,1,2.4v4.9c0,0.1,0,0.2-0.1,0.3c-0.1,0.1-0.2,0.2-0.3,0.2h-2
	c-0.2,0-0.4-0.2-0.4-0.4V25c-0.3,0.4-0.6,0.6-1,0.8c-0.5,0.2-1,0.3-1.5,0.3C151.6,26.1,151.1,26,150.6,25.8z M154.1,23.8
	c0.3-0.4,0.5-0.9,0.4-1.4v-0.2l-1.3,0.2c-0.9,0.2-1.3,0.5-1.3,1c0,0.2,0.1,0.5,0.3,0.6c0.2,0.2,0.5,0.2,0.8,0.2
	C153.4,24.3,153.8,24.1,154.1,23.8L154.1,23.8z"/>
<path class="st2" d="M159.3,28.9c-0.1-0.1-0.1-0.2-0.1-0.3V18c0-0.1,0-0.2,0.1-0.3c0.1-0.1,0.2-0.1,0.3-0.1h1.9
	c0.2,0,0.4,0.1,0.4,0.4l0,0v0.6c0.6-0.8,1.5-1.2,2.5-1.1c0.9,0,1.8,0.3,2.4,1c0.7,0.8,1,1.7,1,2.8c0,0.1,0,0.3,0,0.6s0,0.5,0,0.6
	c0,1-0.3,2-1,2.7c-0.6,0.7-1.5,1-2.4,1c-0.9,0.1-1.8-0.3-2.4-1.1v3.5c0,0.2-0.1,0.4-0.4,0.4l0,0h-2.1C159.4,29,159.3,29,159.3,28.9z
	 M164.5,23.5c0.2-0.4,0.3-0.8,0.4-1.2c0-0.1,0-0.3,0-0.5s0-0.4,0-0.5c0-0.4-0.1-0.8-0.4-1.2c-0.6-0.6-1.5-0.6-2,0l0,0
	c-0.2,0.3-0.4,0.7-0.4,1.1c0,0.1,0,0.4,0,0.6s0,0.5,0,0.6c0,0.4,0.1,0.7,0.4,1c0.3,0.3,0.6,0.4,1,0.4
	C163.8,23.9,164.2,23.8,164.5,23.5z"/>
<path class="st2" d="M19.8,44.9c-0.6-0.3-1.2-0.7-1.6-1.2c-0.3-0.5-0.5-1-0.6-1.6c0-0.2,0.1-0.3,0.3-0.3l0,0h2.2
	c0.2,0,0.4,0.1,0.5,0.3c0.1,0.3,0.3,0.6,0.6,0.8c0.3,0.2,0.6,0.3,0.9,0.2c0.4,0,0.8-0.1,1.1-0.4c0.3-0.3,0.5-0.7,0.5-1.2
	c0-0.4-0.2-0.8-0.5-1.1s-0.7-0.5-1.1-0.4c-0.2,0-0.4,0-0.6,0.1s-0.3,0.2-0.5,0.3c-0.1,0.1-0.3,0.2-0.4,0.2h-2.2
	c-0.1,0-0.2,0-0.2-0.1c-0.1-0.1-0.1-0.2-0.1-0.2l0.6-5.6c0-0.1,0.1-0.3,0.2-0.3C19,34,19.1,34,19.3,34h6.5c0.1,0,0.2,0,0.3,0.1
	c0.1,0.1,0.1,0.2,0.1,0.3V36c0,0.1,0,0.2-0.1,0.3s-0.2,0.1-0.3,0.1h-4.7l-0.2,2c0.3-0.2,0.6-0.3,0.9-0.4c0.4-0.1,0.8-0.1,1.2-0.1
	c0.7,0,1.3,0.2,1.9,0.5s1.1,0.7,1.4,1.3c0.4,0.6,0.6,1.2,0.5,1.9c0,0.7-0.2,1.4-0.6,2s-1,1.1-1.6,1.4c-0.8,0.4-1.6,0.5-2.5,0.5
	C21.4,45.4,20.5,45.2,19.8,44.9z"/>
<path class="st2" d="M29.6,44.2c-0.8-0.8-1.2-1.9-1.3-3c0-0.6,0-1.1,0-1.5s0-1,0-1.6c0-0.7,0.2-1.5,0.6-2.1s0.9-1.2,1.5-1.5
	c1.6-0.7,3.4-0.7,4.9,0c0.6,0.3,1.2,0.8,1.6,1.5c0.4,0.7,0.6,1.4,0.6,2.2c0,0.3,0,0.8,0,1.6s0,1.3,0,1.5c0,1.1-0.5,2.2-1.3,3
	c-0.9,0.8-2.1,1.2-3.3,1.2C31.8,45.4,30.5,45,29.6,44.2z M34.1,42.4c0.3-0.4,0.4-0.9,0.4-1.4c0-0.3,0-0.8,0-1.5s0-1.2,0-1.5
	c0-0.5-0.1-1-0.4-1.4c-0.3-0.3-0.7-0.5-1.1-0.5c-1,0-1.5,0.6-1.5,1.9c0,0.3,0,0.8,0,1.5s0,1.2,0,1.5c0.1,1.2,0.6,1.9,1.5,1.9
	C33.4,42.9,33.8,42.7,34.1,42.4z"/>
<path class="st2" d="M43,45c-0.1-0.1-0.1-0.2-0.1-0.3V34.4c0-0.1,0-0.2,0.1-0.3s0.2-0.1,0.3-0.1h2.3c0.2,0,0.4,0.1,0.4,0.4l0,0v10.4
	c0,0.1,0,0.2-0.1,0.3s-0.2,0.1-0.3,0.1h-2.3C43.2,45.2,43.1,45.1,43,45z"/>
<path class="st2" d="M48.1,45C48,44.9,48,44.8,48,44.7v-7.5c0-0.1,0-0.2,0.1-0.3s0.2-0.1,0.3-0.1h2c0.1,0,0.2,0,0.3,0.1
	s0.1,0.2,0.1,0.3v0.6c0.3-0.4,0.7-0.7,1.1-0.9c0.5-0.2,1-0.3,1.6-0.3s1.1,0.1,1.6,0.4c0.5,0.3,0.9,0.7,1.1,1.2
	c0.3,0.6,0.4,1.3,0.4,2v4.5c0,0.1,0,0.2-0.1,0.3s-0.2,0.1-0.3,0.1H54c-0.1,0-0.2,0-0.3-0.1s-0.1-0.2-0.1-0.3v-4.4
	c0-0.4-0.1-0.8-0.3-1.1c-0.3-0.3-0.6-0.4-1-0.4s-0.7,0.1-1,0.4c-0.3,0.3-0.4,0.7-0.4,1.1v4.4c0,0.1,0,0.2-0.1,0.3s-0.2,0.1-0.3,0.1
	h-2.1C48.3,45.2,48.2,45.1,48.1,45z"/>
<path class="st2" d="M59,44.3c-0.7-0.8-1-1.8-1-2.8v-1.1c0-1,0.4-2,1-2.8c0.6-0.7,1.5-1,2.4-1s1.7,0.3,2.3,0.9v-3.4
	c0-0.1,0-0.2,0.1-0.3s0.2-0.1,0.3-0.1h2.1c0.1,0,0.2,0,0.3,0.1c0.1,0.1,0.1,0.2,0.1,0.3v10.6c0,0.1,0,0.2-0.1,0.3s-0.2,0.1-0.3,0.1
	h-1.9c-0.2,0-0.4-0.2-0.4-0.4v-0.5c-0.6,0.7-1.5,1.1-2.5,1C60.5,45.3,59.6,45,59,44.3z M63.4,42.7c0.2-0.3,0.4-0.7,0.4-1.1
	c0-0.3,0-0.5,0-0.6s0-0.3,0-0.6c0-0.4-0.2-0.7-0.4-1c-0.3-0.3-0.6-0.4-1-0.4s-0.8,0.1-1,0.4c-0.2,0.3-0.4,0.7-0.4,1.1v1
	c0,0.4,0.1,0.8,0.4,1.2c0.2,0.3,0.6,0.5,1,0.4C62.8,43.1,63.1,43,63.4,42.7L63.4,42.7z"/>
<path class="st2" d="M69.3,44.3c-0.8-0.8-1.2-1.9-1.2-3v-0.5c0-1.1,0.4-2.2,1.2-3c0.8-0.7,1.9-1.1,3-1.1c0.8,0,1.6,0.2,2.3,0.5
	c0.6,0.4,1.1,0.9,1.4,1.5c0.3,0.7,0.5,1.4,0.5,2.2v0.4c0,0.1,0,0.2-0.1,0.3s-0.2,0.1-0.3,0.1H71v0.1c0,0.4,0.1,0.8,0.3,1.1
	c0.4,0.5,1,0.6,1.5,0.3c0.2-0.1,0.3-0.2,0.4-0.4c0.1-0.1,0.1-0.1,0.2-0.2c0.1,0,0.2,0,0.3,0H76c0.1,0,0.2,0,0.2,0.1
	c0.1,0.1,0.1,0.1,0.1,0.2c0,0.4-0.2,0.7-0.5,1c-0.4,0.4-0.9,0.8-1.4,1c-0.7,0.3-1.4,0.4-2.1,0.4C71.2,45.4,70.1,45,69.3,44.3z
	 M73.6,40.1L73.6,40.1c0-0.4-0.1-0.9-0.3-1.2c-0.2-0.3-0.6-0.4-0.9-0.4c-0.4,0-0.7,0.1-0.9,0.4c-0.2,0.4-0.4,0.8-0.3,1.2l0,0H73.6z"
	/>
<path class="st2" d="M77.2,45.1c-0.1-0.1-0.1-0.2-0.1-0.3s0-0.2,0.1-0.2l2.7-3.7l-2.4-3.4c-0.1-0.1-0.1-0.2-0.1-0.2
	c0-0.1,0-0.2,0.1-0.2c0.1-0.1,0.2-0.1,0.3-0.1h2.1c0.1,0,0.2,0,0.3,0.1c0.1,0.1,0.1,0.1,0.2,0.2l1.4,2l1.4-2l0.1-0.1
	c0-0.1,0.1-0.1,0.2-0.1s0.1-0.1,0.2-0.1h2c0.1,0,0.2,0,0.3,0.1c0.1,0.1,0.1,0.1,0.1,0.2c0,0.1,0,0.2-0.1,0.3L83.5,41l2.7,3.6
	c0.1,0.1,0.1,0.2,0.1,0.2c0,0.2-0.1,0.4-0.3,0.4c0,0,0,0-0.1,0h-2.2c-0.2,0-0.3-0.1-0.4-0.2l-1.6-2.1l-1.7,2
	c-0.1,0.1-0.1,0.1-0.2,0.2c-0.1,0-0.2,0.1-0.3,0.1h-2.1C77.3,45.2,77.2,45.1,77.2,45.1z"/>
<path class="st2" d="M90.9,45c-0.1-0.1-0.1-0.2-0.1-0.3V34.4c0-0.1,0-0.2,0.1-0.3s0.2-0.1,0.3-0.1h7.4c0.2,0,0.4,0.2,0.4,0.4l0,0
	v1.7c0,0.1,0,0.2-0.1,0.3s-0.2,0.1-0.3,0.1h-4.9v2.2h4.6c0.1,0,0.2,0,0.3,0.1c0.1,0.1,0.1,0.2,0.1,0.3v1.7c0,0.1,0,0.2-0.1,0.3
	s-0.2,0.1-0.3,0.1h-4.6v3.5c0,0.1,0,0.2-0.1,0.3s-0.2,0.1-0.3,0.1h-2.1C91,45.2,90.9,45.1,90.9,45z"/>
<path class="st2" d="M101.2,44.4c-0.6-0.7-0.9-1.7-0.9-2.7v-4.5c0-0.1,0-0.2,0.1-0.3s0.2-0.1,0.3-0.1h2.1c0.1,0,0.2,0,0.3,0.1
	c0.1,0.1,0.1,0.2,0.1,0.3v4.4c0,1,0.4,1.5,1.3,1.5c0.4,0,0.7-0.1,1-0.4c0.3-0.3,0.4-0.7,0.4-1.1v-4.4c0-0.1,0-0.2,0.1-0.3
	s0.2-0.1,0.3-0.1h2.1c0.2,0,0.4,0.1,0.4,0.4l0,0v7.5c0,0.1,0,0.2-0.1,0.3s-0.2,0.1-0.3,0.1h-2c-0.1,0-0.2,0-0.3-0.1
	c-0.1-0.1-0.1-0.2-0.1-0.3v-0.6c-0.6,0.8-1.6,1.3-2.7,1.2C102.6,45.3,101.8,45,101.2,44.4z"/>
<path class="st2" d="M110.9,45c-0.1-0.1-0.1-0.2-0.1-0.3v-7.5c0-0.1,0-0.2,0.1-0.3s0.2-0.1,0.3-0.1h2c0.2,0,0.4,0.1,0.4,0.4l0,0v0.6
	c0.3-0.4,0.7-0.7,1.1-0.8c0.5-0.2,1-0.3,1.6-0.3s1.1,0.1,1.6,0.4c0.5,0.3,0.9,0.7,1.1,1.2c0.3,0.6,0.4,1.3,0.4,2v4.5
	c0,0.1,0,0.2-0.1,0.3s-0.2,0.1-0.3,0.1h-2.1c-0.1,0-0.2,0-0.3-0.1c-0.1-0.1-0.1-0.2-0.1-0.3v-4.4c0-0.4-0.1-0.8-0.3-1.1
	c-0.3-0.3-0.6-0.4-1-0.4s-0.7,0.1-1,0.4c-0.3,0.3-0.4,0.7-0.4,1.1v4.4c0,0.1,0,0.2-0.1,0.3s-0.2,0.1-0.3,0.1h-2.1
	C111.1,45.2,111,45.1,110.9,45z"/>
<path class="st2" d="M121.8,44.3c-0.7-0.8-1-1.8-1-2.8V41v-0.6c0-1,0.3-2,1-2.8c0.6-0.7,1.5-1,2.4-1s1.7,0.3,2.3,0.9v-3.4
	c0-0.1,0-0.2,0.1-0.3s0.2-0.1,0.3-0.1h2.1c0.1,0,0.2,0,0.3,0.1s0.1,0.2,0.1,0.3v10.6c0,0.1,0,0.2-0.1,0.3s-0.2,0.1-0.3,0.1h-1.9
	c-0.2,0-0.4-0.2-0.4-0.4v-0.5c-0.6,0.7-1.5,1.1-2.5,1C123.3,45.3,122.4,45,121.8,44.3z M126.2,42.7c0.2-0.3,0.4-0.7,0.4-1.1
	c0-0.3,0-0.5,0-0.6s0-0.3,0-0.6c0-0.4-0.1-0.7-0.4-1s-0.6-0.4-1-0.4s-0.8,0.1-1,0.4c-0.2,0.3-0.4,0.8-0.4,1.2V41v0.5
	c0,0.4,0.1,0.8,0.4,1.2c0.2,0.3,0.6,0.5,1,0.4C125.6,43.2,125.9,43,126.2,42.7z"/>
<ellipse class="st4" cx="204.2" cy="112.7" rx="12.4" ry="1.4"/>
<ellipse class="st4" cx="236.7" cy="112.7" rx="12.4" ry="1.4"/>
<path class="st5" d="M197,58.1c0,0-4.3-4.7,3-17.4C200,40.8,207.2,53.6,197,58.1z"/>
<path class="st5" d="M198.7,65.5c0,0-5.8,2.6-15.6-8.2C183.1,57.2,197.6,54.4,198.7,65.5z"/>
<path class="st5" d="M194.5,52.6c0,0-5,4-17.2-4C177.3,48.7,190.5,42.2,194.5,52.6z"/>
<path class="st5" d="M192,47.6c0,0-9.2-1.2-10.5-10.8c-0.3-1.5-0.8-3-1.4-4.4c0,0,2.4,1.1,4.7,2.4C188.6,37.1,194.4,41.2,192,47.6z"
	/>
<path class="st5" d="M200.7,72.6c-0.3,0-0.5-0.2-0.6-0.5c0,0-1.1-5-3.1-11.1c-1.1-3.3-2.3-6.6-3.8-9.8c-1.4-3.2-3.2-6.2-5.2-9
	c-0.2-0.3-0.1-0.6,0.2-0.8c0.2-0.2,0.6-0.1,0.7,0.1c2.1,2.9,3.9,6,5.4,9.2s2.7,6.5,3.8,9.9c2,6.2,3.1,11.2,3.1,11.2
	c0.1,0.3-0.1,0.6-0.4,0.7l0,0L200.7,72.6z"/>
<path class="st6" d="M235.6,51.6c-1.2,0.3-2.4-0.4-2.7-1.5l-0.8-6.7l1.4,0.4l1.4,4.9L235.6,51.6z"/>
<path class="st7" d="M233.5,43.7l-0.6-1.1c-0.1-0.2-0.3-0.4-0.5-0.5l-0.9-0.4c-0.2-0.1-0.5,0-0.6,0.3c0,0.1,0,0.1,0,0.2l0,0l0.8,1.3
	c0.2,0.3,0.5,0.5,0.8,0.7l0.6,0.2L233.5,43.7z"/>
<path class="st8" d="M238.8,57.7c-1.7-0.3-5.6-5.6-5.7-6.3s-1.2-5.5-1.2-5.5l2.6-0.3c0.5,1.4,1.1,2.9,1.8,4.2
	c0.3,0.3,2.9,3.5,2.9,3.5L238.8,57.7z"/>
<path class="st9" d="M248,49.6c-0.6,0-1.1-0.5-1.1-1.1s0.5-1.1,1.1-1.1s1.1,0.5,1.1,1.1S248.6,49.6,248,49.6L248,49.6z M248,47.7
	c-0.4,0-0.8,0.4-0.8,0.8c0,0.4,0.4,0.8,0.8,0.8c0.4,0,0.8-0.4,0.8-0.8C248.8,48.1,248.5,47.7,248,47.7L248,47.7z"/>
<path class="st9" d="M197.5,28.5c-0.6,0-1.1-0.5-1.1-1.1s0.5-1.1,1.1-1.1s1.1,0.5,1.1,1.1l0,0C198.6,28,198.1,28.5,197.5,28.5z
	 M197.5,26.6c-0.4,0-0.8,0.4-0.8,0.8s0.4,0.8,0.8,0.8c0.5,0,0.8-0.4,0.8-0.8l0,0C198.3,27,197.9,26.6,197.5,26.6z"/>
<path class="st9" d="M169.9,87.7c-0.6,0-1.1-0.5-1.1-1.1s0.5-1.1,1.1-1.1s1.1,0.5,1.1,1.1S170.5,87.7,169.9,87.7L169.9,87.7z
	 M169.9,85.8c-0.5,0-0.8,0.4-0.8,0.8c0,0.5,0.4,0.8,0.8,0.8c0.5,0,0.8-0.4,0.8-0.8C170.7,86.1,170.4,85.8,169.9,85.8L169.9,85.8z"/>
<ellipse class="st4" cx="214.1" cy="110.6" rx="26" ry="2.1"/>
<path class="st10" d="M231.4,101.3V71.8l0,0c0.1-2.5-1.6-5.1-5.1-7c-6.8-3.8-17.8-3.8-24.5,0c-3.1,1.7-4.8,4-5,6.2l0,0l0,0
	c0,0.4,0,0.7,0,1.1v29.3c0.1,5.2,4.5,9.4,9.7,9.2h15.2C226.9,110.7,231.3,106.6,231.4,101.3L231.4,101.3z"/>
<path class="st9" d="M196.8,101.1c-0.1,0-0.1-0.1-0.1-0.1l-0.3-28.1l0,0c0.1-1.9,0.8-3.7,1.9-5.2c0.5-0.6,1.1-1.2,1.7-1.7
	c0.1,0,0.1,0,0.2,0c0.1,0.1,0.1,0.1,0,0.2l0,0c-0.6,0.5-1.2,1-1.7,1.7c-1.1,1.4-1.7,3.2-1.8,5L197,101
	C197,101,196.9,101.1,196.8,101.1L196.8,101.1z"/>
<path class="st9" d="M234.2,74L234.2,74c-0.1,0-0.1-0.1-0.1-0.2v-2.4c-0.1-1.9-0.8-3.8-2-5.4c-0.5-0.7-1.1-1.3-1.8-1.8
	c-0.1-0.1-0.1-0.2,0-0.2c0.1-0.1,0.2-0.1,0.2,0c0.7,0.5,1.3,1.1,1.8,1.8c1.2,1.6,1.9,3.5,2,5.5l0,0v2.5
	C234.3,73.9,234.3,74,234.2,74z"/>
<path class="st11" d="M203.6,57.2h20.2c2.3,0,4.1,1.8,4.1,4.1v0.2c0,2.3-1.8,4.1-4.1,4.1h-20.2c-2.3,0-4.1-1.8-4.1-4.1v-0.2
	C199.4,59.1,201.3,57.2,203.6,57.2z"/>
<path class="st9" d="M224,65.8h-13.7c-0.1,0-0.1-0.1-0.1-0.2s0.1-0.1,0.1-0.1H224c0.1,0,0.1,0.1,0.1,0.1
	C224.1,65.7,224.1,65.8,224,65.8z"/>
<path class="st12" d="M202.8,59h6.3c0.6,0,1.1,0.5,1.1,1.2l0,0c0,0.6-0.5,1.2-1.1,1.2h-6.3c-0.6,0-1.1-0.5-1.1-1.2l0,0
	C201.7,59.5,202.2,59,202.8,59z"/>
<path class="st9" d="M222.1,110.8h-10c-0.1,0-0.1-0.1-0.1-0.2s0.1-0.1,0.1-0.1l0,0h10c0,0,3.9-0.1,6.1-2.4c0.1-0.1,0.1-0.1,0.2,0
	l0,0c0.1,0.1,0.1,0.2,0,0.2c-1.1,1.1-2.5,1.8-4,2.2C223.6,110.6,222.8,110.7,222.1,110.8z"/>
<ellipse class="st13" cx="222.6" cy="43.5" rx="10.2" ry="10.2"/>
<circle class="st14" cx="222.7" cy="43.6" r="6.9"/>
<path class="st15" d="M219.6,36c-0.4,0.4-0.9,0.8-1.4,0.9c-0.2,0-0.3,0.2-0.2,0.4v0.1c0.3,0.5,0.6,1,0.7,1.5c0,0.2,0.2,0.3,0.4,0.3
	c0.1,0,0.1,0,0.2-0.1c0.4-0.4,0.8-0.7,1.3-0.9c0.2-0.1,0.3-0.3,0.2-0.4c0,0,0,0,0-0.1c-0.3-0.5-0.5-1-0.5-1.6c0-0.2-0.2-0.3-0.3-0.3
	C219.8,35.9,219.7,35.9,219.6,36z"/>
<path class="st16" d="M241.9,112.8L241.9,112.8c0.2,0,0.3-0.1,0.3-0.3v-0.1L232,70c-0.1-0.2-0.2-0.4-0.5-0.4l0,0
	c-0.2,0-0.3,0.1-0.3,0.3V70l10.1,42.5C241.4,112.7,241.6,112.8,241.9,112.8z"/>
<path class="st16" d="M234.8,112.8L234.8,112.8c0.2,0,0.3-0.1,0.3-0.3v-0.1L225,70c-0.1-0.2-0.2-0.4-0.4-0.4l0,0
	c-0.2,0-0.3,0.1-0.3,0.3V70l10.1,42.5C234.4,112.7,234.6,112.8,234.8,112.8z"/>
<path class="st16" d="M226.4,76.8h6.5c0.2,0,0.3-0.2,0.3-0.3l0,0l0,0c0-0.2-0.2-0.4-0.4-0.4h-6.5c-0.2,0-0.3,0.1-0.3,0.3
	c0,0,0,0,0,0.1l0,0C226.1,76.6,226.2,76.8,226.4,76.8z"/>
<path class="st16" d="M227.6,81.1h6.5c0.2,0,0.3-0.1,0.3-0.3l0,0l0,0c0-0.2-0.2-0.4-0.4-0.4h-6.5c-0.2,0-0.3,0.1-0.3,0.3l0,0l0,0
	C227.3,81,227.4,81.1,227.6,81.1z"/>
<path class="st16" d="M228.7,85.5h6.5c0.2,0,0.3-0.1,0.3-0.3c0,0,0,0,0-0.1l0,0c0-0.2-0.2-0.4-0.4-0.4h-6.5c-0.2,0-0.3,0.1-0.3,0.3
	c0,0,0,0,0,0.1l0,0C228.3,85.3,228.5,85.5,228.7,85.5z"/>
<path class="st16" d="M229.6,89.8h6.4c0.2,0,0.3-0.1,0.3-0.3c0,0,0,0,0-0.1l0,0c0-0.2-0.2-0.4-0.4-0.4h-6.5c-0.2,0-0.3,0.1-0.3,0.3
	c0,0,0,0,0,0.1l0,0C229.1,89.7,229.3,89.9,229.6,89.8z"/>
<path class="st16" d="M230.5,94.2h6.5c0.2,0,0.3-0.2,0.3-0.3l0,0l0,0c0-0.2-0.2-0.4-0.4-0.4h-6.5c-0.2,0-0.3,0.1-0.3,0.3
	c0,0,0,0,0,0.1l0,0C230.1,94.1,230.3,94.2,230.5,94.2z"/>
<path class="st16" d="M231.7,98.6h6.5c0.2,0,0.3-0.1,0.3-0.3c0,0,0,0,0-0.1l0,0c0-0.2-0.2-0.4-0.4-0.4h-6.5c-0.2,0-0.3,0.1-0.3,0.3
	l0,0l0,0C231.3,98.4,231.5,98.6,231.7,98.6z"/>
<path class="st16" d="M232.6,103h6.5c0.2,0,0.3-0.2,0.3-0.3l0,0l0,0c0-0.2-0.2-0.4-0.4-0.4h-6.5c-0.2,0-0.3,0.1-0.3,0.3
	c0,0,0,0,0,0.1l0,0C232.2,102.8,232.4,103,232.6,103z"/>
<path class="st17" d="M236.8,96.6c0,0,1.5-9.8-0.4-13.7l1-13.3l-6.2,0.4l3.8,26.6H236.8z"/>
<path class="st6" d="M226.4,55.2c-0.9,0.9-2.2,0.9-3.1,0l-3.9-5.5l1.4-0.3l3.6,3.6L226.4,55.2z"/>
<path class="st7" d="M220.8,49.3l-1-0.7c-0.2-0.1-0.4-0.2-0.7-0.2l-1,0.1c-0.3,0-0.5,0.3-0.4,0.6c0,0.1,0,0.1,0,0.2l0,0l1.3,0.8
	c0.3,0.2,0.7,0.2,1,0.2l0.6-0.1L220.8,49.3z"/>
<path class="st6" d="M232.6,51.3c0,0,0.4,1.2,0.7,2.2c0.1,0.3,0.3,0.5,0.6,0.5c0.3,0.1,0.6,0,0.9-0.2l0.2-0.2c0.3-0.2,0.4-0.6,0.2-1
	c-0.4-0.9-1.1-2.5-1.1-2.5L232.6,51.3L232.6,51.3z"/>
<polygon class="st18" points="232.7,52 233,52.7 233.6,51.8 "/>
<path class="st6" d="M234.5,49.7c0.1-0.4-0.2-0.7-0.5-0.8l-1.2-0.2c-0.3,0-0.7,0.2-0.8,0.5c-0.1,0.6-0.2,1.3-0.2,1.9
	c0,0.4,0.2,0.7,0.6,0.8c0.4,0.1,1.6-0.1,1.8-0.8C234.3,50.7,234.4,50.2,234.5,49.7z"/>
<path class="st19" d="M234.1,51.6c0.9-0.2,1.4-1.1,1.2-2c0-0.1-0.1-0.2-0.1-0.3c-0.1-0.2-0.2-0.3-0.3-0.5c-0.6-0.8-1.8-1-2.6-0.3
	l-0.1,0.1C232.4,49.8,233.1,50.9,234.1,51.6L234.1,51.6z"/>
<path class="st6" d="M233.6,50.8c-0.1,0.2-0.4,0.4-0.6,0.2c-0.2-0.2-0.3-0.5-0.1-0.7c0.1-0.2,0.4-0.4,0.6-0.2
	C233.7,50.3,233.7,50.6,233.6,50.8z"/>
<path class="st17" d="M241.4,84.2l5.7,10.6c1.1,0.4,1.7-0.6,1.4-1.6c-1.3-4.5-1.2-6.9-4.9-10.9L241.4,84.2z"/>
<path class="st20" d="M235.9,71.3l3.4,11.1c0.2,0.6,0.4,1.2,0.7,1.8l5.4,9.7l2.9-1.7c-0.7-4.6-1.7-6.8-4.3-11.5l-1.7-10.5l-2.9,0.1
	L235.9,71.3z"/>
<path class="st21" d="M237.6,70.8l3.3,10.8c0.2,0.6,0.4,1.2,0.7,1.7l5.4,9.5l-1.6,0.9L240,84c-0.3-0.6-0.5-1.1-0.7-1.8l-3.4-11.1
	L237.6,70.8z"/>
<path class="st22" d="M247.1,94.8v1.5c-0.1,0.6-0.2,1.1-0.4,1.6l0,0c0.1,0.3,0.4,0.2,0.6,0l2.3-3.1c0,0,0.9-1.1-0.9-1.5
	C248.3,94.1,247.6,95,247.1,94.8z"/>
<path class="st20" d="M240.1,63.1l-8.4,0.6c-1.4,0.5-0.8,8.4-0.8,8.4l5.6,0.3c2.6,0,5.8,0.3,6-2.3C242.5,65.2,240.1,63.1,240.1,63.1
	z"/>
<path class="st8" d="M231.7,53.5l3-0.8l0.8-0.1l3.4,0.6c0,0,0.6,0.1,1.5,2.9l0.7,2.2c1.1,2.7,1.1,6.8,1.8,9.6
	c-4.3,2.4-11.1,3.2-12.9,1.4c-0.4-3-1.2-7.8-0.9-10.4C229.4,56.4,231,55.4,231.7,53.5z"/>
<path class="st22" d="M235,96.3l-0.9,0.8c-0.5,0.3-1,0.5-1.6,0.7l0,0c-0.1,0.3,0.1,0.4,0.3,0.4l3.9-0.1c0,0,0.9-0.2,0.1-1.9
	C236.2,96.6,235.1,96.8,235,96.3z"/>
<path class="st20" d="M230.8,72.2l1.4,11.2l1.9,11.3h4.5c-0.2-0.8-0.3-1.7-0.4-2.6c0.1-0.6,0.2-6.5-1.2-9.2l0.1-11.1L230.8,72.2z"/>
<path class="st23" d="M237.3,72.7c-0.1,0-0.1-0.1-0.1-0.2s0.1-0.1,0.1-0.1l2-0.1c0.1,0,0.1,0.1,0.1,0.1c0,0.1-0.1,0.1-0.1,0.2
	L237.3,72.7L237.3,72.7z"/>
<path class="st8" d="M233.2,58.1c-1.6,0.6-8.6-1.3-9.1-1.8s-3.7-4.3-3.7-4.3l2.1-1.5c1.1,1,2.3,2,3.6,2.9c0.4,0.1,6.2,0,6.2,0
	L233.2,58.1z"/>
<rect x="205.8" y="105.5" class="st14" width="17.1" height="3.9"/>
<rect x="215.9" y="105.5" class="st24" width="6.4" height="3.9"/>
<rect x="212.6" y="105.5" class="st25" width="2.7" height="3.9"/>
<rect x="207.2" y="105.5" class="st26" width="1.5" height="3.9"/>
<rect x="205.8" y="108.8" class="st27" width="17.1" height="0.6"/>
<rect x="205.8" y="101.7" class="st14" width="17.1" height="3.9"/>
<rect x="215.9" y="101.7" class="st24" width="6.4" height="3.9"/>
<rect x="212.6" y="101.7" class="st25" width="2.7" height="3.9"/>
<rect x="207.2" y="101.7" class="st26" width="1.5" height="3.9"/>
<rect x="205.8" y="105.1" class="st27" width="17.1" height="0.6"/>
<rect x="204.6" y="97.9" class="st14" width="17.1" height="3.9"/>
<rect x="214.8" y="97.9" class="st24" width="6.4" height="3.9"/>
<rect x="211.5" y="97.9" class="st25" width="2.7" height="3.9"/>
<rect x="206.1" y="97.9" class="st26" width="1.5" height="3.9"/>
<rect x="204.6" y="101.3" class="st27" width="17.1" height="0.6"/>
<rect x="205.4" y="94.3" class="st14" width="17.1" height="3.9"/>
<rect x="215.5" y="94.3" class="st24" width="6.4" height="3.9"/>
<rect x="212.3" y="94.3" class="st25" width="2.7" height="3.9"/>
<rect x="206.9" y="94.3" class="st26" width="1.5" height="3.9"/>
<rect x="205.4" y="97.6" class="st27" width="17.1" height="0.6"/>
<rect x="205.4" y="90.5" class="st14" width="17.1" height="3.9"/>
<rect x="215.5" y="90.5" class="st24" width="6.4" height="3.9"/>
<rect x="212.3" y="90.5" class="st25" width="2.7" height="3.9"/>
<rect x="206.9" y="90.5" class="st26" width="1.5" height="3.9"/>
<rect x="205.4" y="93.8" class="st27" width="17.1" height="0.6"/>
<rect x="204.2" y="86.7" class="st14" width="17.1" height="3.9"/>
<rect x="214.4" y="86.7" class="st24" width="6.4" height="3.9"/>
<rect x="211.1" y="86.7" class="st25" width="2.7" height="3.9"/>
<rect x="205.7" y="86.7" class="st26" width="1.5" height="3.9"/>
<rect x="204.2" y="90.1" class="st27" width="17.1" height="0.6"/>
<path class="st7" d="M186.9,82.7l1.1-0.2c0.2,0,0.5,0,0.7,0.2l0.8,0.5c0.2,0.1,0.3,0.4,0.1,0.7l-0.1,0.1l0,0l-1.5,0.1
	c-0.4,0-0.7-0.1-1-0.3l-0.5-0.4L186.9,82.7z"/>
<path class="st6" d="M184.7,76.8c0.7,0,0.8-1.1,0.4-1.6l-2.3-4.4c-0.6-1.2-1.8-1.8-2.5-1.3l0,0c-0.3,0.2-0.2,0.7,0,1.1l3.7,7.2
	L184.7,76.8z"/>
<path class="st28" d="M171.8,70.6c0-0.2-0.1-0.4-0.2-0.6c-1.2-1.3,0.8-2.5,1.4-3s-0.3-1.6,1-2.2c0.6-0.4,1.3-0.4,1.9,0
	c0,0.4,0,0.9,0,1.3c0,0-0.7,0.3-0.5,1.7s0.6,2.1-0.1,3.2s-4.2,0.2-4.2,0.2C171.6,71.1,171.8,70.8,171.8,70.6z"/>
<ellipse class="st4" cx="177.1" cy="112.6" rx="10.3" ry="0.8"/>
<path class="st17" d="M179.1,111.2c0,0-1.4-9.3,0.4-13l-1-12.6l5.9,0.4l-4,25.3L179.1,111.2z"/>
<path class="st29" d="M180.5,110.9l1.2,0.8c0.5,0.3,1,0.5,1.5,0.6l0,0c0.1,0.3-0.1,0.4-0.3,0.4l-3.7-0.1c0,0-0.9-0.2-0.1-1.8
	C179.7,111.2,180.3,111.4,180.5,110.9z"/>
<path class="st30" d="M184.8,88l-1.4,10.7l-1.8,10.7h-4.3c0.2-0.8,0.3-1.6,0.4-2.4c-0.1-0.6-0.2-6.2,1.1-8.8l-0.1-10.5L184.8,88z"/>
<path class="st31" d="M178.8,98.2l-0.1-10.5l2,0.1l0.1,7.7c0,1.4-0.2,2.9-0.5,4.3c-0.5,2.4-0.7,4.8-0.5,7.2
	c-0.1,0.8-0.2,1.6-0.4,2.4h-2c0.2-0.8,0.3-1.6,0.4-2.4C177.7,106.4,177.5,100.8,178.8,98.2z"/>
<path class="st17" d="M173.4,111.2c0,0-1-9.4,1-13.1L174,85.3l5.9,0.4l-5.1,25.6L173.4,111.2z"/>
<path class="st29" d="M174.8,110.8l1.1,0.9c0.5,0.3,0.9,0.5,1.4,0.6l0,0c0.1,0.3-0.1,0.4-0.3,0.4l-3.7-0.1c0,0-0.9-0.2,0-1.8
	C174,111.1,174.6,111.4,174.8,110.8z"/>
<path class="st30" d="M180.1,87.7l-1.8,10.8l-2.3,10.8h-4.3c0.2-0.8,0.4-1.6,0.5-2.5c0-0.6,0.1-6.3,1.5-8.9l0.2-11.6L180.1,87.7z"/>
<path class="st30" d="M176,79.4l8,0.6c1.3,0.5,0.8,8,0.8,8l-5.3,0.2c-2.4-0.1-5.4,1.9-5.7-2.2C173.6,81.4,176,79.4,176,79.4z"/>
<path class="st31" d="M173.8,86.5c0,0,5.3,0.6,7.1-1.8l-7.1-0.6C173.7,84.9,173.8,85.7,173.8,86.5z"/>
<path class="st32" d="M180.9,69.3l-1.9-0.4l-2.4,0.1l-2.9,1.4c-1,0.6-1.3,1.9-0.8,2.9l1.2,3.4c-0.5,2.4-0.6,4.9-0.2,7.3
	c4.5,1.1,10.5,0.3,11.6-1.8C184.6,76.9,183.4,72.6,180.9,69.3z"/>
<path class="st6" d="M177.9,67.2v2.2c0,0.3-0.1,0.5-0.4,0.6c-0.2,0.1-0.5,0.1-0.7,0l-0.2-0.1c-0.3-0.2-0.5-0.5-0.4-0.9
	c0.1-0.9,0.3-2.6,0.3-2.6L177.9,67.2L177.9,67.2z"/>
<polygon class="st18" points="178,67.9 177.9,68.6 177.3,68 "/>
<path class="st7" d="M179.1,68.9c0,0,1.2,2.3-0.4,2.6s-2.8-2.1-2.8-2.1l1.1-0.7L179.1,68.9z"/>
<path class="st6" d="M175.9,66.2c-0.1-0.3,0-0.7,0.3-0.8l1.1-0.5c0.3-0.1,0.7,0,0.8,0.3c0.3,0.5,0.5,1.1,0.6,1.7
	c0.1,0.3-0.1,0.7-0.4,0.9c-0.3,0.1-1.5,0.2-1.8-0.3C176.3,67.2,176,66.7,175.9,66.2L175.9,66.2z"/>
<path class="st28" d="M175,67.9c-0.1-0.8,0-1.6,0.3-2.4c0.4-0.9,1.5-1.3,2.4-0.9c0,0,0.1,0,0.1,0.1c-0.4,1.2-1.2,2.3-2.3,3.1
	L175,67.9z"/>
<path class="st6" d="M176.1,67.7c0.2,0.2,0.4,0.2,0.6,0.1l0,0c0.2-0.2,0.2-0.5,0-0.7c-0.1-0.2-0.4-0.3-0.6-0.1c0,0,0,0-0.1,0
	C175.8,67.2,175.9,67.5,176.1,67.7z"/>
<path class="st15" d="M178.5,66.9l-0.6,0.2c0,0,0.2,0.4,0.4,0.2S178.5,66.9,178.5,66.9z"/>
<path class="st33" d="M175.1,66L175.1,66C175.1,66,175,66,175.1,66c0-1.2,0.8-1.2,0.8-1.2l0,0c0,0,0.1,0,0.1,0.1c0,0,0,0.1-0.1,0.1
	C175.9,64.9,175.2,64.9,175.1,66C175.2,66,175.1,66,175.1,66z"/>
<rect x="178.8" y="79.7" class="st14" width="14.1" height="3.8"/>
<rect x="188.7" y="79.7" class="st24" width="3.7" height="3.8"/>
<rect x="185.5" y="79.7" class="st25" width="2.6" height="3.8"/>
<rect x="180.3" y="79.7" class="st26" width="1.4" height="3.8"/>
<rect x="178.8" y="82.9" class="st27" width="14.1" height="0.6"/>
<rect x="178.8" y="76" class="st14" width="14.1" height="3.8"/>
<rect x="188.7" y="76" class="st24" width="3.7" height="3.8"/>
<rect x="185.5" y="76" class="st25" width="2.6" height="3.8"/>
<rect x="180.3" y="76" class="st26" width="1.4" height="3.8"/>
<rect x="178.8" y="79.2" class="st27" width="14.1" height="0.6"/>
<rect x="177.7" y="72.3" class="st14" width="14.3" height="3.8"/>
<rect x="187.6" y="72.3" class="st24" width="3.8" height="3.8"/>
<rect x="184.4" y="72.3" class="st25" width="2.6" height="3.8"/>
<rect x="179.1" y="72.3" class="st26" width="1.4" height="3.8"/>
<rect x="177.7" y="75.5" class="st27" width="14.3" height="0.6"/>
<rect x="179.9" y="68.6" class="st14" width="14.3" height="3.8"/>
<rect x="189.8" y="68.6" class="st24" width="3.8" height="3.8"/>
<rect x="186.6" y="68.6" class="st25" width="2.6" height="3.8"/>
<rect x="181.3" y="68.6" class="st26" width="1.4" height="3.8"/>
<rect x="179.9" y="71.8" class="st27" width="14.3" height="0.6"/>
<path class="st6" d="M176.7,77.5c-0.7,0.9-0.6,2.2,0.2,2.9l0,0l5.5,3.3l0.7-1l-4.1-3.4L176.7,77.5z"/>
<path class="st7" d="M182.3,82.8l1.2-0.1c0.2,0,0.5,0,0.7,0.2l0.8,0.5c0.2,0.1,0.3,0.4,0.1,0.6c0,0.1-0.1,0.1-0.1,0.1l0,0l-1.5,0.1
	c-0.3,0-0.7-0.1-0.9-0.3l-0.5-0.3L182.3,82.8z"/>
<path class="st6" d="M178.1,78.7l-2.7-5.7c-0.6-1.3-1.9-1.8-2.6-1l0,0c-0.3,0.4-0.3,1,0,1.4l3.5,6.1L178.1,78.7z"/>
<path class="st32" d="M173.1,71.1c-0.6,0.6-0.9,1.5-0.7,2.4c0.9,2.2,2,4.4,3.1,6.5l2.7-1.5c0,0-1.4-3.7-2.1-5.4
	c-0.2-0.5-0.3-0.8-0.3-0.8L173.1,71.1z"/>
<circle class="st25" cx="202.8" cy="105.1" r="8.6"/>
<circle class="st13" cx="201" cy="105.1" r="8.6"/>
<circle class="st14" cx="201.1" cy="105" r="5.8"/>
<path class="st15" d="M194.7,102.4c0,0.5-0.1,1-0.3,1.4c-0.1,0.1,0,0.3,0.1,0.4h0.1c0.5,0.1,0.9,0.3,1.3,0.5
	c0.1,0.1,0.3,0.1,0.4-0.1c0-0.1,0.1-0.1,0.1-0.2c0-0.5,0.1-0.9,0.2-1.3c0.1-0.1,0-0.3-0.2-0.4c0,0,0,0-0.1,0
	c-0.5-0.1-0.9-0.3-1.2-0.6c-0.1-0.1-0.3-0.1-0.4,0C194.7,102.2,194.7,102.3,194.7,102.4z"/>
<path class="st34" d="M177.9,77.3L177.9,77.3l-2-4.2V73h0.1L177.9,77.3C178,77.2,178,77.3,177.9,77.3C178,77.3,178,77.3,177.9,77.3
	L177.9,77.3z"/>
<path class="st11" d="M213.4,79.8c0,0-0.9-5.8,6.1-6C219.2,77,216.6,79.5,213.4,79.8z"/>
<path class="st11" d="M213.5,79.8c0,0-2.9,1-7.2-4.6C206.3,75.2,213.4,74.3,213.5,79.8z"/>
<path class="st11" d="M214,86.6L214,86.6c-0.2,0-0.3-0.2-0.3-0.4l0,0c0.1-3.2-0.1-6.4-0.8-9.6c0-0.2,0.1-0.4,0.3-0.4
	s0.4,0.1,0.4,0.3l0,0c0.7,3.2,1,6.5,0.8,9.8C214.4,86.5,214.2,86.6,214,86.6L214,86.6z"/>
<circle class="st35" cx="203.5" cy="73.6" r="4"/>
<circle class="st35" cx="208.9" cy="69" r="1.7"/>
<path class="st36" d="M224.8,50.2c-0.1,0-0.1,0-0.1-0.1s0-0.1,0.1-0.2c1-0.4,1.9-0.9,2.7-1.6c0.7-0.6,1.3-1.5,1.6-2.4
	c0.4-1.2,0.5-2.5,0.3-3.7c0-0.1,0.1-0.1,0.1-0.1c0.1,0,0.1,0.1,0.1,0.1l0,0c0.2,1.3,0.1,2.6-0.3,3.9c-0.4,0.9-1,1.8-1.7,2.5
	C226.8,49.3,225.8,49.9,224.8,50.2L224.8,50.2z"/>
<path class="st36" d="M201.9,110.8c-0.1,0-0.1-0.1-0.1-0.1c0-0.1,0-0.1,0.1-0.2l0,0l0,0c0.9-0.2,1.7-0.5,2.5-1
	c0.7-0.4,1.2-1,1.6-1.8c0.5-0.9,0.7-2,0.7-3c0-0.1,0.1-0.1,0.1-0.2l0,0c0.1,0,0.1,0.1,0.1,0.1c0.1,2-0.8,3.9-2.5,5
	C203.7,110.3,202.8,110.6,201.9,110.8L201.9,110.8z"/>
<path class="st36" d="M193.5,109.5c-0.1,0-0.1,0-0.1-0.1c-0.6-1.3-1-2.8-1.1-4.2c-0.1-1.3,0.2-2.7,0.8-3.9c0.8-1.6,2-2.9,3.5-3.8
	c0-0.1,0.1-0.1,0.2,0l0,0c0.1,0.1,0.1,0.1,0,0.2l0,0c-1.5,0.9-2.7,2.2-3.4,3.7c-0.6,1.2-0.8,2.5-0.8,3.8c0,1.4,0.4,2.8,1,4.1
	C193.7,109.3,193.7,109.4,193.5,109.5C193.6,109.4,193.6,109.4,193.5,109.5C193.6,109.5,193.6,109.5,193.5,109.5z"/>
<text transform="matrix(0.9507 -0.3102 0.3102 0.9507 199.8502 109.7305)" class="st2 st37 st38">₹</text>
<text transform="matrix(0.8942 0.4476 -0.4476 0.8942 218.26 46.1201)" class="st2 st37 st39">₹</text>
<ellipse transform="matrix(0.1602 -0.9871 0.9871 0.1602 108.5694 309.2081)" class="st40" cx="236" cy="90.8" rx="20.8" ry="20.8"/>
<polygon class="st41" points="222.8,96.2 230.9,96.2 239.7,81.2 235.8,74.6 "/>
<polygon class="st41" points="235.9,88.2 243.7,88.2 248.4,96.2 240.6,96.3 "/>
<rect x="219.1" y="94.8" class="st2" width="33.7" height="6.9"/>
<g>
	<path class="st42" d="M219,97.8L219,97.8L219,97.8z"/>
	<path class="st43" d="M231.1,98.1L231.1,98.1v-0.8c0-0.1,0-0.1-0.1-0.1h-0.1c-0.1,0-0.1,0-0.1,0.1c0,0.5,0,1.1,0,1.6
		c0,0.1,0,0.1,0.1,0.1h0.2c0.1,0,0.1,0,0.1-0.1L231.1,98.1z M243.4,98.7h-0.4c-0.1,0-0.1,0-0.1-0.1c0-0.4,0-0.9,0-1.4
		c0-0.1,0-0.1-0.1-0.1l0,0h-0.2c-0.1,0-0.1,0-0.1,0.1v0.8l0,0v0.8c0,0.1,0,0.1,0.1,0.1h0.8c0.1,0,0.1,0,0.1-0.1L243.4,98.7
		C243.5,98.7,243.4,98.7,243.4,98.7z M238.8,97.3L238.8,97.3c0-0.1,0-0.1-0.1-0.1h-1c-0.1,0-0.1,0-0.1,0.1s0,0.1,0.1,0.1h0.3
		c0.1,0,0.1,0,0.1,0.1v0.7l0,0v0.8c0,0.1,0,0.1,0.1,0.1h0.1c0.1,0,0.1,0,0.1-0.1v-1.3c0-0.1,0-0.1,0.1-0.1L238.8,97.3
		C238.8,97.4,238.8,97.4,238.8,97.3z M245.3,97.2h-0.9c-0.1,0-0.1,0-0.1,0.1v0.8l0,0c0,0.3,0,0.6,0,0.8c0,0.1,0,0.1,0.1,0.1h0.2
		c0.1,0,0.1,0,0.1-0.1v-0.8c0-0.1,0-0.1,0.1-0.1h0.5c0.1,0,0.1,0,0.1-0.1v-0.1c0-0.1,0-0.1-0.1-0.1h-0.5c-0.1,0-0.1,0-0.1-0.1v-0.3
		c0-0.1,0-0.1,0.1-0.1h0.6c0.1,0,0.1,0,0.1-0.1v-0.1C245.3,97.2,245.3,97.2,245.3,97.2L245.3,97.2z M232.7,98.5
		c0-0.1-0.1-0.3-0.3-0.4c-0.1-0.1-0.2-0.1-0.3-0.1c-0.1,0-0.2-0.1-0.3-0.1c-0.1-0.1-0.1-0.1-0.1-0.3c0,0,0-0.1,0.1-0.1
		c0.1-0.1,0.3-0.1,0.4-0.1c0.1,0,0.1,0.1,0.1,0.1s0.1,0,0.1,0l0.2-0.1c0,0,0,0,0-0.1c-0.1-0.1-0.3-0.2-0.4-0.3
		c-0.2-0.1-0.4,0-0.6,0.1c-0.2,0.1-0.3,0.3-0.2,0.5c0.1,0.1,0.1,0.2,0.3,0.3l0.4,0.2c0.1,0,0.2,0.1,0.2,0.2c0,0.1,0,0.3-0.1,0.3
		c-0.1,0.1-0.3,0.1-0.4,0c-0.1,0-0.1-0.1-0.1-0.1s0-0.1-0.1-0.1h-0.1c-0.1,0-0.1,0-0.2,0.1c-0.1,0-0.1,0-0.1,0.1s0,0.1,0.1,0.1
		c0.1,0.1,0.2,0.3,0.4,0.3c0.1,0,0.1,0,0.2,0c0.2,0,0.3-0.1,0.4-0.1c0.1-0.1,0.1-0.1,0.2-0.2C232.7,98.6,232.7,98.5,232.7,98.5
		L232.7,98.5z M230.4,99l-0.1-0.1l-0.3-0.3l-0.2-0.3c-0.1-0.1-0.1-0.1,0-0.2l0,0l0.2-0.3l0.1-0.2c0.1-0.1,0.1-0.2,0.2-0.3
		s0-0.1,0-0.1h-0.3c0,0-0.1,0-0.1,0.1c-0.1,0.1-0.1,0.1-0.1,0.2c0,0.1-0.1,0.1-0.1,0.1s-0.1,0.1-0.1,0.1s-0.1,0.1-0.1,0l-0.1-0.1
		l-0.2-0.3c0-0.1-0.1-0.1-0.1-0.1s-0.2,0-0.3,0c-0.1,0-0.1,0-0.1,0.1l0.1,0.1l0.2,0.3l0.2,0.3c0.1,0.1,0.1,0.1,0,0.2l0,0l-0.1,0.1
		c-0.1,0.1-0.1,0.1-0.1,0.2l-0.1,0.2l-0.1,0.2h0.1h0.3c0,0,0.1,0,0.1-0.1c0.1-0.1,0.1-0.1,0.1-0.2l0.2-0.3l0.1-0.1
		c0-0.1,0.1-0.1,0.1,0c0,0.1,0.1,0.1,0.1,0.1l0.1,0.1l0.2,0.3c0,0,0,0.1,0.1,0.1L230.4,99L230.4,99L230.4,99z M242.4,99l-0.1-0.1
		c-0.1-0.1-0.1-0.1-0.1-0.2l-0.2-0.3c-0.1-0.1-0.1-0.3-0.2-0.4c-0.1-0.1-0.1-0.3-0.2-0.4c-0.1-0.1-0.1-0.1-0.1-0.2s-0.1-0.1-0.1-0.2
		c0-0.1,0,0-0.1-0.1l-0.1,0.1l-0.3,0.6l-0.3,0.6l-0.2,0.4l-0.1,0.2c0,0,0,0,0,0.1c0,0,0,0,0.1,0h0.3c0.1,0,0.1,0,0.1-0.1l0.1-0.3
		c0-0.1,0.1-0.1,0.1-0.1h0.8h0.1c0,0.1,0.1,0.1,0.1,0.1l0.1,0.3h0.1H242.4L242.4,99L242.4,99z M241.7,98.3h-0.5
		c-0.1,0-0.1,0-0.1-0.1l0.1-0.3c0-0.1,0.1-0.1,0.1-0.2s0.1-0.1,0.1-0.1s0.1,0,0.1,0.1c0.1,0.1,0.1,0.2,0.1,0.3L241.7,98.3
		C241.7,98.3,241.7,98.3,241.7,98.3L241.7,98.3z M228.7,99l-0.3-0.5c-0.1-0.1-0.1-0.2-0.1-0.3l-0.2-0.4l-0.2-0.4
		c-0.1-0.1-0.1-0.1-0.1-0.2c0,0,0,0,0-0.1c0,0-0.1,0-0.1,0.1s-0.1,0.2-0.1,0.3l-0.3,0.6c-0.1,0.1-0.1,0.3-0.2,0.4l-0.1,0.3
		c-0.1,0.1-0.1,0.2-0.1,0.3s0,0.1,0.1,0.1h0.3c0,0,0,0,0.1,0l0.2-0.3c0-0.1,0.1-0.1,0.1-0.1h0.7c0.1,0,0.1,0,0.1,0.1
		c0.1,0.1,0.1,0.2,0.2,0.3H228.7L228.7,99L228.7,99L228.7,99z M228,98.3h-0.4c-0.1,0-0.1,0-0.1-0.1c0.1-0.1,0.1-0.2,0.1-0.3
		c0-0.1,0.1-0.1,0.1-0.2l0.1-0.1c0,0,0,0,0.1,0.1L228,98l0.1,0.3C228.1,98.3,228.1,98.3,228,98.3L228,98.3z M240.5,97.3
		C240.5,97.2,240.5,97.2,240.5,97.3L240.5,97.3l-0.2-0.1c-0.1,0-0.1,0-0.1,0.1c0,0.4,0,0.8,0,1.1c0,0.1-0.1,0.3-0.2,0.3
		s-0.3,0.1-0.4,0s-0.3-0.2-0.3-0.3c0-0.2,0-0.3,0-0.5c0-0.2,0-0.4,0-0.6c0-0.1,0-0.1-0.1-0.1h-0.1c-0.1,0-0.1,0-0.1,0.1v0.6l0,0
		c0,0.1,0,0.2,0,0.3c0,0.1,0,0.3,0,0.4c0.1,0.2,0.2,0.4,0.4,0.4s0.4,0.1,0.7,0c0.1-0.1,0.3-0.1,0.3-0.3c0.1-0.1,0.1-0.2,0.1-0.3
		C240.5,97.9,240.5,97.6,240.5,97.3L240.5,97.3z M247.1,97.3C247.1,97.2,247.1,97.2,247.1,97.3l-0.2-0.1c-0.1,0-0.1,0-0.1,0.1
		c0,0.4,0,0.8,0,1.1c0,0.1-0.1,0.3-0.2,0.3s-0.3,0.1-0.4,0c-0.1-0.1-0.3-0.2-0.3-0.3s0-0.3,0-0.4v-0.8c0-0.1,0-0.1-0.1-0.1h-0.1
		c-0.1,0-0.1,0-0.1,0.1v0.6l0,0v0.1c0,0.3,0,0.4,0.1,0.7c0,0.1,0.1,0.1,0.1,0.2c0.1,0.1,0.2,0.2,0.3,0.2s0.3,0,0.4,0.1
		c0.1,0,0.3,0,0.3-0.1c0.1-0.1,0.2-0.1,0.3-0.2c0.1-0.1,0.1-0.2,0.1-0.3C247.1,98,247.1,97.6,247.1,97.3L247.1,97.3z M237.4,97.8
		L237.4,97.8v-0.6c0-0.1,0-0.1-0.1-0.1h-0.1c-0.1,0-0.1,0-0.1,0.1v1c0,0.1,0,0.2-0.1,0.3c-0.1,0.1-0.1,0.1-0.2,0.2
		c-0.1,0.1-0.2,0.1-0.3,0.1c-0.2,0-0.4-0.2-0.4-0.4l0,0c0-0.2,0-0.4,0-0.6c0-0.3,0-0.3,0-0.5c0-0.1,0-0.1-0.1-0.1h-0.2
		c-0.1,0-0.1,0-0.1,0.1v0.8c0,0.1,0,0.3,0,0.4c0,0.1,0.1,0.2,0.1,0.3c0.1,0.1,0.2,0.1,0.3,0.1c0.2,0.1,0.4,0.1,0.7,0
		c0.1,0,0.1-0.1,0.2-0.1c0.1-0.1,0.2-0.3,0.2-0.4C237.4,98.2,237.4,98,237.4,97.8L237.4,97.8z M249.1,98.1L249.1,98.1v-0.8
		c0-0.1,0-0.1-0.1-0.1h-0.1c-0.1,0-0.1,0-0.1,0.1v0.9c0,0.1,0,0.1,0,0.1s-0.1,0.1-0.1,0l-0.3-0.3l-0.3-0.3l-0.4-0.3l-0.4-0.3h-0.1
		v0.1v1.6c0,0,0,0,0,0.1s0,0.1,0.1,0.1h0.1c0.1,0,0.1,0,0.1-0.1v-1.1v-0.1c0-0.1,0.1-0.1,0.1,0c0,0.1,0.1,0.1,0.3,0.2l0.4,0.3
		l0.4,0.3l0.3,0.3h0.1v-0.1L249.1,98.1z M250.9,97.8c0-0.1-0.1-0.1-0.1-0.2s-0.1-0.1-0.1-0.2c-0.1-0.2-0.4-0.3-0.6-0.3s-0.4,0-0.7,0
		c-0.1,0-0.1,0-0.1,0.1V98l0,0v0.7c0,0.1,0,0.1,0,0.1c0,0.1,0,0.1,0.1,0.1h0.6c0.1,0,0.3,0,0.4-0.1c0.1,0,0.1-0.1,0.2-0.1
		c0.1-0.1,0.1-0.1,0.1-0.2c0.1-0.1,0.1-0.3,0.1-0.4C250.9,98.1,250.9,97.9,250.9,97.8L250.9,97.8z M250.6,98.3
		c0,0.1-0.1,0.2-0.1,0.3c-0.1,0.1-0.1,0.1-0.2,0.1c-0.1,0-0.1,0.1-0.2,0.1c-0.1,0-0.2,0-0.3,0s-0.1,0-0.1-0.1v-0.6l0,0v-0.6
		c0-0.1,0-0.1,0.1-0.1c0.1,0,0.3,0,0.5,0c0.2,0.1,0.3,0.2,0.4,0.4c0,0.1,0.1,0.2,0.1,0.3C250.7,98.1,250.7,98.2,250.6,98.3
		L250.6,98.3z M235.8,98.9c0-0.1-0.1-0.1-0.1-0.2s-0.1-0.1-0.1-0.3l-0.1-0.6l-0.1-0.6l0,0l0,0c-0.1,0.1-0.1,0.1-0.1,0.2
		c0,0.1-0.1,0.1-0.1,0.2c0,0.1-0.1,0.1-0.1,0.1c-0.1,0.1-0.1,0.1-0.1,0.3c-0.1,0.1-0.2,0.3-0.3,0.5l-0.1,0.1l-0.1-0.1
		c0,0,0-0.1-0.1-0.1s-0.1-0.1-0.1-0.1l-0.2-0.4c-0.1-0.2-0.2-0.3-0.3-0.5c0,0,0,0-0.1-0.1c-0.1-0.1,0,0.1-0.1,0.1v0.1
		c0,0.1-0.1,0.2-0.1,0.3c0,0.1-0.1,0.3-0.1,0.4s-0.1,0.4-0.1,0.5l-0.1,0.4c0,0.1,0,0.1,0.1,0.1h0.3c0,0,0,0,0.1,0V99
		c0-0.1,0-0.2,0.1-0.3l0.1-0.4v-0.1c0,0,0-0.1,0.1,0l0.1,0.1c0.1,0.1,0.1,0.1,0.1,0.1s0.1,0.3,0.2,0.4l0.2,0.4l0,0h0.1
		c0,0,0-0.1,0.1-0.1l0.1-0.3c0.1-0.1,0.1-0.2,0.1-0.3c0.1-0.1,0.1-0.2,0.2-0.3v-0.1c0,0,0.1,0,0.1,0.1s0,0.1,0,0.1
		c0.1,0.2,0.1,0.4,0.1,0.5l0.1,0.3c0,0,0,0.1,0.1,0.1h0.3C235.8,99,235.8,99,235.8,98.9L235.8,98.9z M226.9,100.8
		c-0.1-0.1-0.1-0.1-0.1-0.2l-0.2-0.3l-0.3-0.4l-0.1-0.3l-0.1-0.2c-0.1-0.1-0.2-0.3-0.3-0.4c0-0.1-0.1-0.1-0.1-0.1h-1.6
		c0,0-0.1,0,0,0.1s0.1,0.2,0.2,0.3l0.1,0.2l0.1,0.2c0.1,0.1,0.1,0.3,0.2,0.3l0.3,0.4l0.1,0.2c0,0.1,0.1,0.1,0.1,0.1c0,0,0,0,0.1,0
		L226.9,100.8C226.9,100.9,226.9,100.9,226.9,100.8L226.9,100.8z M224.9,97.3L224.9,97.3l-0.2-0.3c-0.1-0.1-0.1-0.3-0.2-0.3
		l-0.2-0.4l-0.2-0.4c0,0,0,0,0-0.1l-0.1,0.1l-0.1,0.1l-0.2,0.3c-0.1,0.1-0.1,0.2-0.2,0.3l-0.3,0.4l-0.2,0.3l-0.2,0.4l-0.2,0.4
		l-0.2,0.3c-0.1,0.1-0.1,0.2-0.2,0.3s-0.1,0.3-0.2,0.4l-0.2,0.3l-0.3,0.4c-0.1,0.1-0.1,0.2-0.1,0.3s-0.1,0.3-0.3,0.4
		s-0.1,0.3-0.3,0.4c0,0,0,0,0,0.1c0,0,0,0,0.1,0h0.9c0.3,0,0.6,0,0.8,0c0.1,0,0.1,0,0.1-0.1c0.1-0.1,0.1-0.1,0.1-0.2l0.2-0.3
		c0.1-0.1,0.1-0.3,0.3-0.4l0.3-0.4c0.1-0.1,0.1-0.3,0.3-0.4l0.2-0.3l0.3-0.5l0.3-0.4c0.1-0.1,0.1-0.2,0.1-0.3
		C224.9,97.4,224.9,97.3,224.9,97.3L224.9,97.3z"/>
	<path class="st43" d="M222,100.9h-0.9h-0.1c0,0,0,0,0-0.1c0.1-0.1,0.1-0.3,0.3-0.4c0.1-0.1,0.1-0.3,0.3-0.4s0.1-0.2,0.1-0.3
		l0.3-0.4l0.2-0.3c0.1-0.1,0.1-0.3,0.2-0.4s0.1-0.2,0.2-0.3l0.2-0.3l0.2-0.4l0.2-0.4l0.2-0.3l0.3-0.4c0.1-0.1,0.1-0.2,0.2-0.3
		l0.2-0.3l0.1-0.1l0.1-0.1c0,0,0,0,0,0.1l0.2,0.4l0.2,0.4c0.1,0.1,0.1,0.3,0.2,0.3l0.1,0.2l0.1,0.1c0.1,0.1,0.1,0.1,0,0.2
		c-0.1,0.1-0.1,0.2-0.1,0.3l-0.3,0.4l-0.3,0.5l-0.2,0.3c-0.1,0.1-0.1,0.3-0.3,0.4l-0.3,0.4c-0.1,0.1-0.2,0.3-0.3,0.4l-0.2,0.3
		c-0.1,0.1-0.1,0.1-0.1,0.2l-0.1,0.1C222.6,100.9,222.3,100.9,222,100.9L222,100.9z"/>
	<path class="st43" d="M235.4,97.2L235.4,97.2l0.1,0.6l0.1,0.6c0,0.1,0.1,0.1,0.1,0.3c0,0.1,0,0.1,0.1,0.2c0.1,0.1,0,0.1-0.1,0.1
		h-0.2c-0.1,0-0.1,0-0.1-0.1l-0.1-0.3c0-0.2-0.1-0.4-0.1-0.5c0-0.1,0-0.1,0-0.1c0,0,0-0.1-0.1-0.1c0,0,0,0,0,0.1
		c-0.1,0.1-0.1,0.3-0.2,0.3c-0.1,0.1-0.1,0.2-0.1,0.3l-0.1,0.3c0,0,0,0.1-0.1,0.1c0,0,0,0-0.1,0.1l0,0l-0.2-0.4
		c-0.1-0.1-0.1-0.3-0.2-0.4s-0.1-0.1-0.1-0.1l-0.1-0.1h-0.1v0.1l-0.1,0.4c0,0.1,0,0.2-0.1,0.3v0.1c0,0,0,0-0.1,0h-0.3
		c-0.1,0-0.1,0-0.1-0.1l0.1-0.4c0.1-0.2,0.1-0.4,0.1-0.5c0.1-0.1,0.1-0.3,0.1-0.4s0.1-0.2,0.1-0.3v-0.1c0,0,0-0.1,0.1-0.1
		s0,0.1,0.1,0.1c0.1,0.1,0.2,0.3,0.3,0.5l0.2,0.4c0,0.1,0.1,0.1,0.1,0.1s0,0.1,0.1,0.1c0.1,0.1,0.1,0.1,0.1,0.1s0.1,0,0.1-0.1
		c0.1-0.2,0.2-0.3,0.3-0.5s0.1-0.1,0.1-0.3c0-0.1,0.1-0.1,0.1-0.1s0.1-0.1,0.1-0.2c0-0.1,0.1-0.1,0.1-0.2L235.4,97.2z"/>
	<path class="st43" d="M250.9,97.8c0-0.1-0.1-0.1-0.1-0.2s-0.1-0.1-0.1-0.2c-0.1-0.2-0.4-0.3-0.6-0.3s-0.4,0-0.7,0
		c-0.1,0-0.1,0-0.1,0.1V98l0,0v0.7c0,0.1,0,0.1,0,0.1c0,0.1,0,0.1,0.1,0.1h0.6c0.1,0,0.3,0,0.4-0.1c0.1,0,0.1-0.1,0.2-0.1
		c0.1-0.1,0.1-0.1,0.1-0.2c0.1-0.1,0.1-0.3,0.1-0.4C250.9,98.1,250.9,97.9,250.9,97.8z M250.6,98.3c0,0.1-0.1,0.2-0.1,0.3
		c-0.1,0.1-0.1,0.1-0.2,0.1c-0.1,0-0.1,0.1-0.2,0.1c-0.1,0-0.2,0-0.3,0s-0.1,0-0.1-0.1v-0.6l0,0v-0.6c0-0.1,0-0.1,0.1-0.1
		c0.1,0,0.3,0,0.5,0c0.2,0.1,0.3,0.2,0.4,0.4c0,0.1,0.1,0.2,0.1,0.3C250.7,98.1,250.7,98.2,250.6,98.3L250.6,98.3z"/>
	<path class="st43" d="M249.1,98.1v0.8V99h-0.1l-0.3-0.3l-0.4-0.3l-0.4-0.3l-0.3-0.2c-0.1,0-0.1,0-0.1,0v0.1v0.9
		c0,0.1,0,0.1-0.1,0.1h-0.2c-0.1,0-0.1,0-0.1-0.1c0,0,0,0,0-0.1v-1.6v-0.1h0.1l0.4,0.3l0.4,0.3l0.3,0.3l0.3,0.3h0.1
		c0-0.1,0-0.1,0-0.1v-0.9c0-0.1,0-0.1,0.1-0.1h0.1c0.1,0,0.1,0,0.1,0.1L249.1,98.1L249.1,98.1z"/>
	<path class="st43" d="M237.4,97.8c0,0.2,0,0.4,0,0.6s-0.1,0.3-0.2,0.4c-0.1,0.1-0.1,0.1-0.2,0.1c-0.2,0.1-0.4,0.1-0.7,0
		c-0.1,0-0.3-0.1-0.3-0.1s-0.1-0.1-0.1-0.3c0-0.1,0-0.3,0-0.4v-0.8c0-0.1,0-0.1,0.1-0.1h0.1c0.1,0,0.1,0,0.1,0.1c0,0.2,0,0.3,0,0.5
		c0,0.2,0,0.4,0,0.6c0,0.2,0.2,0.4,0.4,0.4l0,0c0.1,0,0.2,0,0.3-0.1c0.1-0.1,0.1-0.1,0.2-0.2c0.1-0.1,0.1-0.2,0.1-0.3v-1.1
		c0-0.1,0-0.1,0.1-0.1h0.1c0.1,0,0.1,0,0.1,0.1L237.4,97.8L237.4,97.8z"/>
	<path class="st43" d="M245.7,97.8v-0.6c0-0.1,0-0.1,0.1-0.1h0.1c0.1,0,0.1,0,0.1,0.1v0.8c0,0.1,0,0.3,0,0.4c0,0.2,0.1,0.3,0.3,0.3
		c0.1,0.1,0.3,0.1,0.4,0c0.1-0.1,0.2-0.2,0.2-0.3c0-0.4,0-0.8,0-1.1c0-0.1,0-0.1,0.1-0.1h0.1c0.1,0,0.1,0,0.1,0.1c0,0.4,0,0.8,0,1.1
		c0,0.1,0,0.2-0.1,0.3c-0.1,0.1-0.1,0.2-0.3,0.2c-0.1,0.1-0.2,0.1-0.3,0.1s-0.3,0-0.4-0.1c-0.1,0-0.3-0.1-0.3-0.2
		c-0.1-0.1-0.1-0.1-0.1-0.2c-0.1-0.3-0.1-0.4-0.1-0.7L245.7,97.8L245.7,97.8z"/>
	<path class="st43" d="M239,97.8v-0.6c0-0.1,0-0.1,0.1-0.1h0.1c0.1,0,0.1,0,0.1,0.1c0,0.2,0,0.4,0,0.6c0,0.2,0,0.3,0,0.5
		c0,0.1,0.1,0.3,0.3,0.3s0.3,0.1,0.4,0s0.2-0.2,0.2-0.3c0-0.4,0-0.8,0-1.1c0-0.1,0-0.1,0.1-0.1h0.1c0.1,0,0.1,0,0.1,0.1l0,0
		c0,0.4,0,0.8,0,1.1c0,0.1,0,0.2-0.1,0.3c-0.1,0.1-0.2,0.3-0.3,0.3c-0.3,0.1-0.4,0.1-0.7,0c-0.2-0.1-0.4-0.2-0.4-0.4
		c0-0.1,0-0.3,0-0.4C239,98,239,97.9,239,97.8L239,97.8z"/>
	<path class="st43" d="M228.8,99l-0.3-0.5c-0.1-0.1-0.1-0.2-0.1-0.3l-0.2-0.4l-0.2-0.4c-0.1-0.1-0.1-0.1-0.1-0.2c0,0,0,0,0-0.1
		c0,0-0.1,0-0.1,0.1s-0.1,0.2-0.1,0.3l-0.3,0.6c-0.1,0.1-0.1,0.3-0.2,0.4l-0.1,0.3c-0.1,0.1-0.1,0.2-0.1,0.3s0,0.1,0.1,0.1h0.3
		c0,0,0,0,0.1,0l0.2-0.3c0-0.1,0.1-0.1,0.1-0.1h0.7c0.1,0,0.1,0,0.1,0.1c0.1,0.1,0.1,0.2,0.2,0.3H228.8L228.8,99L228.8,99L228.8,99z
		 M228,98.3h-0.4c-0.1,0-0.1,0-0.1-0.1c0.1-0.1,0.1-0.2,0.1-0.3c0-0.1,0.1-0.1,0.1-0.2l0.1-0.1c0,0,0,0,0.1,0.1L228,98l0.1,0.3
		C228.1,98.3,228.1,98.3,228,98.3L228,98.3z"/>
	<path class="st43" d="M242.4,99l-0.1-0.1c-0.1-0.1-0.1-0.1-0.1-0.2l-0.2-0.3c-0.1-0.1-0.1-0.3-0.2-0.4c-0.1-0.1-0.1-0.3-0.2-0.4
		c-0.1-0.1-0.1-0.1-0.1-0.2s-0.1-0.1-0.1-0.2c0-0.1,0,0-0.1-0.1l-0.1,0.1l-0.3,0.6l-0.3,0.6l-0.2,0.4l-0.1,0.2c0,0,0,0,0,0.1
		c0,0,0,0,0.1,0h0.3c0.1,0,0.1,0,0.1-0.1l0.1-0.3c0-0.1,0.1-0.1,0.1-0.1h0.8h0.1c0,0.1,0.1,0.1,0.1,0.1l0.1,0.3h0.1H242.4L242.4,99z
		 M241.7,98.3h-0.5c-0.1,0-0.1,0-0.1-0.1l0.1-0.3c0-0.1,0.1-0.1,0.1-0.2s0.1-0.1,0.1-0.1s0.1,0,0.1,0.1c0.1,0.1,0.1,0.2,0.1,0.3
		L241.7,98.3C241.7,98.3,241.7,98.3,241.7,98.3L241.7,98.3z"/>
	<path class="st43" d="M228.9,99l0.1-0.2l0.1-0.2c0.1-0.1,0.1-0.1,0.1-0.2l0.1-0.1l0,0c0.1-0.1,0.1-0.1,0-0.2l-0.2-0.3l-0.2-0.3
		l-0.1-0.1c0,0,0-0.1,0.1-0.1s0.2,0,0.3,0s0.1,0.1,0.1,0.1l0.2,0.3l0.1,0.1c0.1,0.1,0.1,0.1,0.1,0c0.1-0.1,0.1-0.1,0.1-0.1
		c0-0.1,0.1-0.1,0.1-0.1c0.1-0.1,0.1-0.1,0.1-0.2l0.1-0.1h0.3c0.1,0,0.1,0,0,0.1s-0.1,0.2-0.2,0.3l-0.1,0.2l-0.2,0.3
		c-0.1,0.1-0.1,0.1,0,0.2l0,0l0.2,0.3l0.3,0.3l0.1,0.1V99h-0.3c0,0-0.1,0-0.1-0.1l-0.2-0.3l-0.1-0.1c-0.1-0.1-0.1-0.1-0.1-0.1
		c-0.1-0.1-0.1-0.1-0.1,0l-0.1,0.1l-0.2,0.3c-0.1,0.1-0.1,0.1-0.1,0.2L229,99L228.9,99L228.9,99z"/>
	<path class="st43" d="M232,99c-0.1,0-0.1,0-0.2,0c-0.2,0-0.3-0.1-0.4-0.3c0-0.1-0.1-0.1-0.1-0.1s0-0.1,0.1-0.1s0.1-0.1,0.2-0.1h0.1
		c0,0,0,0.1,0.1,0.1c0,0.1,0.1,0.1,0.1,0.1c0.1,0.1,0.3,0.1,0.4,0c0.1-0.1,0.2-0.2,0.1-0.3c0-0.1-0.1-0.2-0.2-0.2l-0.4-0.2
		c-0.1-0.1-0.2-0.1-0.3-0.3c-0.1-0.2,0-0.4,0.2-0.5s0.4-0.1,0.6-0.1c0.1,0,0.3,0.1,0.4,0.3v0.1l-0.3,0.1h-0.1c0,0-0.1-0.1-0.1-0.1
		c-0.1-0.1-0.3-0.1-0.4,0.1c-0.1,0.1-0.1,0.1-0.1,0.3c0,0,0,0.1,0.1,0.1c0.1,0.1,0.2,0.1,0.3,0.1c0.1,0.1,0.2,0.1,0.3,0.1
		s0.3,0.2,0.3,0.4c0,0.1,0,0.2-0.1,0.3c-0.1,0.1-0.1,0.1-0.2,0.2C232.3,99,232.1,99,232,99z"/>
	<path class="st43" d="M244.3,98.1v-0.8c0-0.1,0-0.1,0.1-0.1h0.9c0.1,0,0.1,0,0.1,0.1v0.1c0,0.1,0,0.1-0.1,0.1h-0.6
		c-0.1,0-0.1,0-0.1,0.1v0.3c0,0.1,0,0.1,0.1,0.1h0.5c0.1,0,0.1,0,0.1,0.1V98c0,0.1,0,0.1-0.1,0.1h-0.5c-0.1,0-0.1,0-0.1,0.1v0.7
		c0,0,0,0.1-0.1,0.1h-0.1c-0.1,0-0.1,0-0.1-0.1C244.3,98.6,244.3,98.4,244.3,98.1L244.3,98.1z"/>
	<path class="st43" d="M238.1,98.2v-0.7c0-0.1,0-0.1-0.1-0.1h-0.3c-0.1,0-0.1,0-0.1-0.1s0-0.1,0.1-0.1h1c0.1,0,0.1,0,0.1,0.1v0.1
		c0,0.1,0,0.1-0.1,0.1h-0.4c-0.1,0-0.1,0-0.1,0.1v1.4c0,0.1,0,0.1-0.1,0.1h-0.1c-0.1,0-0.1,0-0.1-0.1L238.1,98.2L238.1,98.2z"/>
	<path class="st43" d="M242.6,98.1v-0.8c0-0.1,0-0.1,0.1-0.1h0.2c0.1,0,0.1,0,0.1,0.1l0,0c0,0.4,0,0.9,0,1.4c0,0.1,0,0.1,0.1,0.1
		h0.4c0.1,0,0.1,0,0.1,0.1V99c0,0.1,0,0.1-0.1,0.1h-0.8c-0.1,0-0.1,0-0.1-0.1V98.1L242.6,98.1z"/>
	<path class="st43" d="M231.1,98.1V99c0,0.1,0,0.1-0.1,0.1h-0.2c-0.1,0-0.1,0-0.1-0.1c0-0.5,0-1.1,0-1.6c0-0.1,0-0.1,0.1-0.1h0.1
		c0.1,0,0.1,0,0.1,0.1L231.1,98.1L231.1,98.1z"/>
</g>
</svg>
