<svg id="Layer_1" data-name="Layer 1" xmlns="http://www.w3.org/2000/svg" xmlns:xlink="http://www.w3.org/1999/xlink" viewBox="0 0 280 120"><defs><style>.cls-1{fill:url(#linear-gradient);}.cls-2{fill:#1442b2;}.cls-3,.cls-31{fill:#fff;}.cls-4{fill:#a6a29c;}.cls-5{fill:#0e4744;opacity:0.18;}.cls-17,.cls-18,.cls-20,.cls-21,.cls-22,.cls-23,.cls-24,.cls-25,.cls-26,.cls-29,.cls-5{isolation:isolate;}.cls-6{fill:#f5f5f5;}.cls-7{fill:#a3bbc4;}.cls-8{fill:#c3d82e;}.cls-9{fill:#d6f2f5;}.cls-10{fill:#fafafa;}.cls-11{fill:#bf1329;}.cls-12{fill:#fe9801;}.cls-13{fill:#97958f;}.cls-14{fill:#d6d3ce;}.cls-15{fill:#a5a29b;}.cls-16{fill:#a3a19a;}.cls-17{fill:#dfddd8;opacity:0.14;}.cls-18{fill:#cccbc5;}.cls-18,.cls-23,.cls-24,.cls-25{opacity:0.67;}.cls-19{fill:#a19e98;}.cls-20{fill:#f8f7f4;opacity:0.2;}.cls-21,.cls-29{fill:#f1efed;}.cls-21{opacity:0.29;}.cls-22,.cls-30{fill:#c5c4bd;}.cls-22{opacity:0.49;}.cls-23,.cls-26{fill:#dddcd9;}.cls-24{fill:#f7f4f4;}.cls-25{fill:#cbc8c4;}.cls-26{opacity:0.11;}.cls-27{fill:#efeeeb;}.cls-28{fill:#62625e;}.cls-29{opacity:0.45;}.cls-31{font-size:17.96px;font-family:Rubik-Bold, Rubik;font-weight:700;}</style><linearGradient id="linear-gradient" x1="262.67" y1="208.91" x2="-29.93" y2="-40.51" gradientTransform="translate(0 -28)" gradientUnits="userSpaceOnUse"><stop offset="0" stop-color="#3f6efd"/><stop offset="1" stop-color="#00e0fd"/></linearGradient></defs><rect class="cls-1" x="-0.5" y="0.2" width="281" height="152.3"/><path class="cls-2" d="M280,29.93h-61.9a7.07,7.07,0,0,1-7-7V14.53a7.07,7.07,0,0,1,7-7H280V29.93Z"/><path class="cls-3" d="M220.2,23.48c-.1-.09-.1-.09-.1-.19V15.78c0-.1,0-.19.1-.19s.1-.1.19-.1h.87a.72.72,0,0,1,.38.19l3.28,5.11v-5c0-.1,0-.19.09-.19s.1-.1.2-.1h1c.1,0,.19,0,.19.1s.1.09.1.19v7.51c0,.1,0,.19-.1.19s-.09.1-.19.1h-.87a.76.76,0,0,1-.38-.19l-3.28-5v4.91c0,.1,0,.19-.09.19s-.1.1-.19.1h-1C220.3,23.58,220.2,23.58,220.2,23.48Z"/><path class="cls-3" d="M228.38,23.48c-.09-.09-.09-.09-.09-.19V15.78c0-.1,0-.19.09-.19a.31.31,0,0,1,.2-.1h5c.1,0,.19,0,.19.1s.1.09.1.19v.87c0,.09,0,.09-.1.19s-.09.1-.19.1h-3.75v2.21h3.46c.1,0,.2,0,.2.1s.09.09.09.19v.86c0,.1,0,.2-.09.2s-.1.09-.2.09h-3.46v2.89c0,.1,0,.19-.1.19s-.1.1-.19.1h-1C228.48,23.58,228.38,23.58,228.38,23.48Z"/><path class="cls-3" d="M235.8,22.81a3.05,3.05,0,0,1-1-2.41V18.48a3,3,0,0,1,1-2.32,4.22,4.22,0,0,1,4.91,0,3,3,0,0,1,1,2.32V20.4a3.37,3.37,0,0,1-1,2.41,3.93,3.93,0,0,1-4.91,0Zm3.75-1A2.33,2.33,0,0,0,240,20.4V18.48a2.59,2.59,0,0,0-.48-1.45,1.89,1.89,0,0,0-2.41,0,2.38,2.38,0,0,0-.48,1.45V20.4a2.56,2.56,0,0,0,.48,1.44,1.83,1.83,0,0,0,1.25.49,1.51,1.51,0,0,0,1.16-.49Z"/><path class="cls-3" d="M244.84,23.48a.32.32,0,0,1-.09-.19v-.1l2.79-7.41c.1-.19.19-.29.39-.29h1.25c.19,0,.38.1.38.29l2.79,7.41v.1c0,.1,0,.1-.09.19a.35.35,0,0,1-.19.1H251a.52.52,0,0,1-.39-.19L250,21.94h-3.17l-.58,1.45a.52.52,0,0,1-.39.19h-1A.1.1,0,0,0,244.84,23.48Zm2.51-2.89H250L248.6,17Z"/><path class="cls-3" d="M253.51,23.48c-.1-.09-.1-.09-.1-.19V15.68c0-.09,0-.19.1-.19s.1-.1.19-.1h1c.1,0,.2,0,.2.1s.09.1.09.19v7.61c0,.1,0,.19-.09.19s-.1.1-.2.1h-1A.35.35,0,0,1,253.51,23.48Z"/><path class="cls-3" d="M257.07,22.9a2.51,2.51,0,0,1-.77-2.11V20.5a3.34,3.34,0,0,1,.77-2.31,3,3,0,0,1,4.24,0,3.61,3.61,0,0,1,.77,2.21v.19c0,.1,0,.2-.1.2s-.1.09-.19.09h-3.85V21a1.45,1.45,0,0,0,.38,1.06.84.84,0,0,0,.87.38,1.2,1.2,0,0,0,1.06-.58l.19-.19h1.16c.09,0,.09,0,.19.1s.09.09.09.19a1,1,0,0,1-.38.67,3.48,3.48,0,0,1-1,.68,4,4,0,0,1-1.45.29A2.22,2.22,0,0,1,257.07,22.9ZM260.34,20h0A1.44,1.44,0,0,0,260,19a1.34,1.34,0,0,0-1.83-.1l-.1.1a2,2,0,0,0-.38,1.06h2.69Z"/><path class="cls-3" d="M263.23,23.48c-.09-.09-.09-.09-.09-.19V17.8c0-.09,0-.19.09-.19s.1-.1.19-.1h1c.09,0,.19,0,.19.1s.1.1.1.19v.48a2.2,2.2,0,0,1,1.63-.77h.48c.1,0,.29.1.29.2h0v.86c0,.1,0,.1-.09.19s-.1.1-.2.1h-1a1,1,0,0,0-1.15,1v3.37c0,.1,0,.2-.1.2s-.1.09-.19.09h-1.06C263.33,23.58,263.23,23.48,263.23,23.48Z"/><path class="cls-3" d="M269.1,23a2.12,2.12,0,0,1-.48-1.64v-2.6h-1c-.1,0-.19,0-.19-.09s-.1-.1-.1-.19V17.8c0-.09,0-.09.1-.19s.09-.1.19-.1h1V15.59c0-.1,0-.2.1-.2s.1-.09.19-.09h1c.1,0,.2,0,.2.09s.09.1.09.2v1.92h1.45c.09,0,.19,0,.19.1s.1.1.1.19v.68c0,.09,0,.09-.1.19s-.1.09-.19.09h-1.45v2.51a1.12,1.12,0,0,0,.2.77.68.68,0,0,0,.57.29h.77c.1,0,.29.09.29.19h0v.77c0,.1,0,.19-.09.19s-.1.1-.2.1h-1A2.61,2.61,0,0,1,269.1,23Z"/><path class="cls-2" d="M15.52,72.92a4.09,4.09,0,0,1-1.08-.78,2.06,2.06,0,0,1-.4-1.08c0-.1.1-.2.3-.2h.59c.1,0,.29.1.29.2a1.47,1.47,0,0,0,.59.88,2.35,2.35,0,0,0,1.48.39,2.5,2.5,0,0,0,1.47-.39,1.23,1.23,0,0,0,.49-1,1.81,1.81,0,0,0-.2-.69,2.89,2.89,0,0,0-.68-.49c-.3-.1-.79-.3-1.48-.49a4.77,4.77,0,0,1-1.47-.59,2.63,2.63,0,0,1-.79-.69,2,2,0,0,1-.29-1.08,1.92,1.92,0,0,1,.39-1.18,2,2,0,0,1,1-.79,4.23,4.23,0,0,1,1.58-.29,4.18,4.18,0,0,1,1.57.29,4,4,0,0,1,1,.79,2.76,2.76,0,0,1,.39,1c0,.1-.09.3-.19.3h-.59c-.1,0-.1,0-.2-.1s-.1-.1-.1-.2a1.43,1.43,0,0,0-.59-.88,2.93,2.93,0,0,0-2.55,0,1.16,1.16,0,0,0-.49.88,2,2,0,0,0,.19.69,1.81,1.81,0,0,0,.69.49c.39.2.89.3,1.38.49a5.3,5.3,0,0,1,1.57.59,5.89,5.89,0,0,1,.88.69,2,2,0,0,1,.3,1.08,2.23,2.23,0,0,1-.89,1.77,3.15,3.15,0,0,1-2.26.59A2.29,2.29,0,0,1,15.52,72.92Z"/><path class="cls-2" d="M22,73c-.1-.1-.1-.1-.1-.19V65.16c0-.1,0-.1.1-.2s.1-.09.2-.09h.59c.1,0,.1,0,.2.09s.09.1.09.2v7.67c0,.09-.09.29-.19.29H22.2C22.1,73.12,22,73.12,22,73Z"/><path class="cls-2" d="M25.15,73c-.1-.1-.1-.1-.1-.19V65.16c0-.1,0-.2.1-.2s.1-.09.19-.09h2.95a3.1,3.1,0,0,1,2.07.68,2.75,2.75,0,0,1,0,3.74,2.71,2.71,0,0,1-2.07.59H26.23v3c0,.09,0,.09-.1.19s-.1.1-.2.1h-.59C25.25,73.12,25.25,73.12,25.15,73Zm3.14-4c1.18,0,1.77-.49,1.77-1.57a1.45,1.45,0,0,0-.49-1.18,2.3,2.3,0,0,0-1.38-.39H26.13V69Z"/><path class="cls-2" d="M35.86,73a1.51,1.51,0,0,1-.79-.59.85.85,0,0,1-.29-.59c0-.1,0-.1.1-.19s.09-.1.19-.1h.59l.1.1a2.84,2.84,0,0,0,.59.49,2.78,2.78,0,0,0,.88.19,3.47,3.47,0,0,0,1-.19.67.67,0,0,0,.39-.69.53.53,0,0,0-.2-.49c-.19-.1-.39-.3-.59-.3l-1.18-.29a3.06,3.06,0,0,1-1.37-.69,1.45,1.45,0,0,1-.39-1.08,1.54,1.54,0,0,1,.29-.88A2.5,2.5,0,0,1,36,67a2.55,2.55,0,0,1,1.18-.3,3,3,0,0,1,1.27.3,1.51,1.51,0,0,1,.79.59l.29.59a.3.3,0,0,1-.29.29h-.49c-.1,0-.2,0-.2-.1L38.22,68a.76.76,0,0,0-.4-.2,1.54,1.54,0,0,0-.68-.09,2.84,2.84,0,0,0-.89.19.89.89,0,0,0-.29.69c0,.2,0,.29.09.39a.55.55,0,0,0,.5.3l1.08.29a3.26,3.26,0,0,1,1.57.69,1.61,1.61,0,0,1,.49,1.08,1.42,1.42,0,0,1-.29.89,2.18,2.18,0,0,1-.89.68,1.88,1.88,0,0,1-1.28.3A3,3,0,0,1,35.86,73Z"/><path class="cls-2" d="M41.66,71.06V67.91h-1c-.1,0-.1,0-.19-.1s-.1-.09-.1-.19v-.3c0-.1,0-.1.1-.19s.09-.1.19-.1h1v-2c0-.1,0-.1.09-.19s.1-.1.2-.1h.49a.32.32,0,0,1,.3.29h0v2h1.37c.1,0,.1,0,.2.1s.1.09.1.19v.4c0,.09,0,.09-.1.19s-.1.1-.2.1H42.64v3a1.49,1.49,0,0,0,.19.88.9.9,0,0,0,.69.3h.69c.1,0,.1,0,.2.09s.1.1.1.2v.39c0,.1,0,.1-.1.2s-.1.1-.2.1h-.79C42.25,73.12,41.66,72.43,41.66,71.06Z"/><path class="cls-2" d="M46.27,73a1.71,1.71,0,0,1-.78-.69,1.55,1.55,0,0,1-.3-.88,1.45,1.45,0,0,1,.69-1.28,3.57,3.57,0,0,1,1.77-.69l1.77-.19V69c0-.78-.49-1.18-1.38-1.18a2.8,2.8,0,0,0-.88.2,1.22,1.22,0,0,0-.49.49c0,.1-.1.1-.1.2h-.69a.31.31,0,0,1-.29-.3.7.7,0,0,1,.29-.59,1.57,1.57,0,0,1,.79-.59,3.09,3.09,0,0,1,1.27-.29,2.53,2.53,0,0,1,1.87.59,2.23,2.23,0,0,1,.59,1.57v3.83c0,.1,0,.1-.1.2s-.1.1-.19.1h-.49c-.1,0-.1,0-.2-.1s-.1-.1-.1-.2v-.49a2.45,2.45,0,0,1-2.06,1A2.94,2.94,0,0,0,46.27,73Zm2.56-1.08a1.7,1.7,0,0,0,.49-1.47v-.3l-1.38.1a2.83,2.83,0,0,0-1.27.39.66.66,0,0,0-.4.69.89.89,0,0,0,.4.79A1.94,1.94,0,0,0,48.83,71.94Z"/><path class="cls-2" d="M52.17,73c0-.1-.1-.1-.1-.19V67.32c0-.1,0-.1.1-.19s.1-.1.2-.1H53c.09,0,.19,0,.19.1s.1.09.1.19v.49A1.65,1.65,0,0,1,54.92,67h.49a.32.32,0,0,1,.3.29h0v.4c0,.09,0,.09-.1.19s-.1.1-.2.1h-.68a1.29,1.29,0,0,0-1,.39,1.81,1.81,0,0,0-.39,1v3.44c0,.09,0,.09-.1.19s-.1.1-.2.1h-.49C52.37,73.12,52.27,73.12,52.17,73Z"/><path class="cls-2" d="M57.08,71.06V67.91h-1c-.1,0-.1,0-.2-.1s-.09-.09-.09-.19v-.3c0-.1,0-.1.09-.19s.1-.1.2-.1h1v-2c0-.1,0-.1.1-.19s.1-.1.2-.1h.49a.31.31,0,0,1,.29.29h0v2h1.48c.1,0,.1,0,.2.1v.59c0,.09,0,.09-.1.19s-.1.1-.2.1H58.07v3a1.49,1.49,0,0,0,.19.88.77.77,0,0,0,.69.3h.69c.1,0,.1,0,.19.09s.1.1.1.2v.39c0,.1,0,.1-.1.2s0,.1-.09.1H59C57.67,73.12,57.08,72.43,57.08,71.06Z"/><path class="cls-2" d="M61.9,73a1.51,1.51,0,0,1-.79-.59.85.85,0,0,1-.29-.59c0-.1,0-.1.1-.19s.09-.1.19-.1h.59l.1.1a2.84,2.84,0,0,0,.59.49,2.78,2.78,0,0,0,.88.19,3.47,3.47,0,0,0,1-.19.67.67,0,0,0,.39-.69c0-.2,0-.39-.2-.49s-.29-.3-.59-.3l-1.18-.29a2.94,2.94,0,0,1-1.47-.69,1.49,1.49,0,0,1-.39-1.08,1.62,1.62,0,0,1,.29-.88A2.5,2.5,0,0,1,61.9,67a2.55,2.55,0,0,1,1.18-.3,3,3,0,0,1,1.28.3,1.53,1.53,0,0,1,.78.59l.3.59c0,.1,0,.1-.1.19s-.1.1-.2.1h-.39c-.1,0-.2,0-.2-.1a1.46,1.46,0,0,0-.29-.39.76.76,0,0,0-.4-.2,1.54,1.54,0,0,0-.68-.09,2.84,2.84,0,0,0-.89.19.93.93,0,0,0-.29.69c0,.2,0,.29.1.39a.53.53,0,0,0,.49.3l1.08.29a3.26,3.26,0,0,1,1.57.69,1.61,1.61,0,0,1,.49,1.08,1.42,1.42,0,0,1-.29.89,2.18,2.18,0,0,1-.89.68,2.11,2.11,0,0,1-1.37.2A1.89,1.89,0,0,1,61.9,73Z"/><path class="cls-2" d="M70.64,73a1.71,1.71,0,0,1-.78-.69,1.55,1.55,0,0,1-.3-.88,1.45,1.45,0,0,1,.69-1.28A3.57,3.57,0,0,1,72,69.48l1.77-.19V69c0-.78-.49-1.18-1.38-1.18a2.8,2.8,0,0,0-.88.2,1.22,1.22,0,0,0-.49.49c0,.1,0,.1-.1.2h-.69c-.1,0-.1,0-.2-.1s-.09-.1-.09-.2a.7.7,0,0,1,.29-.59,1.57,1.57,0,0,1,.79-.59,3.09,3.09,0,0,1,1.27-.29,2.53,2.53,0,0,1,1.87.59,2.23,2.23,0,0,1,.59,1.57v3.83c0,.1,0,.1-.1.2s-.1.1-.19.1H74c-.1,0-.1,0-.2-.1s-.1-.1-.1-.2v-.49a2.63,2.63,0,0,1-.79.69c-.29,0-.78.1-1.17.1A3.53,3.53,0,0,1,70.64,73Zm2.56-1.08a2.07,2.07,0,0,0,.49-1.47v-.3l-1.38.1a2.83,2.83,0,0,0-1.27.39.72.72,0,0,0-.3,1.08c.1.1.2.3.3.3a1.62,1.62,0,0,0,1,.29,1.25,1.25,0,0,0,1.18-.39Z"/><path class="cls-2" d="M77,71.06V67.91h-.88c-.1,0-.3-.1-.3-.19v-.4c0-.1,0-.1.1-.19s.1-.1.2-.1H77v-2c0-.1,0-.1.1-.19s.1-.1.2-.1h.49c.1,0,.1,0,.19.1s.1.09.1.19v2h1.38c.1,0,.1,0,.19.1s.1.09.1.19v.4c0,.09,0,.09-.1.19s-.09.1-.19.1H78v3a1.43,1.43,0,0,0,.2.88.89.89,0,0,0,.69.3h.69c.09,0,.09,0,.19.09s.1.1.1.2v.39c0,.1,0,.1-.1.2s-.1.1-.19.1H78.8C77.62,73.12,77,72.43,77,71.06Z"/><path class="cls-2" d="M88.73,66h-2a1.81,1.81,0,0,1,.69,1.18h1.28v.59H87.45a2.28,2.28,0,0,1-2.56,2c.89,1,2,2.16,3,3.34H86.66c-.88-1.08-1.77-2.16-2.85-3.34V69h.59c1.28,0,2-.49,2.07-1.37H83.81V67h2.56c-.2-.69-.79-1-1.77-1h-.79v-.69h5V66Z"/><path class="cls-2" d="M92.16,73c-.09-.1-.09-.1-.09-.19V66.14l-2,1.58a.26.26,0,0,1-.39,0l-.2-.4a.35.35,0,0,1-.1-.19c0-.1,0-.2.1-.2l2.56-2a.36.36,0,0,1,.29-.09H93c.1,0,.1,0,.2.09s.1.1.1.2v7.67c0,.09,0,.09-.1.19s-.1.1-.2.1h-.59C92.26,73.12,92.26,73.12,92.16,73Z"/><path class="cls-2" d="M95.6,72.33A4,4,0,0,1,94.82,70V67.91a4,4,0,0,1,.78-2.36,3.21,3.21,0,0,1,4.43,0,4,4,0,0,1,.78,2.36V70a4,4,0,0,1-.78,2.35,3.21,3.21,0,0,1-4.43,0Zm3.64-.68A3.35,3.35,0,0,0,99.73,70V68a2.58,2.58,0,0,0-.49-1.67,1.75,1.75,0,0,0-2.56-.1c-.09,0-.09.1-.09.1A3.25,3.25,0,0,0,96.1,68v2a2.53,2.53,0,0,0,.49,1.67,1.64,1.64,0,0,0,1.37.59A1.33,1.33,0,0,0,99.24,71.65Z"/><path class="cls-2" d="M103.07,72.33a4,4,0,0,1-.78-2.35V67.91a4.26,4.26,0,0,1,.78-2.36,3.2,3.2,0,0,1,4.42,0,4,4,0,0,1,.79,2.36V70a3.91,3.91,0,0,1-.79,2.35,2.76,2.76,0,0,1-2.26.89A2.41,2.41,0,0,1,103.07,72.33Zm3.64-.68A3.35,3.35,0,0,0,107.2,70V68a3.35,3.35,0,0,0-.49-1.67,1.76,1.76,0,0,0-2.56-.1.1.1,0,0,0-.1.1,3.35,3.35,0,0,0-.49,1.67v2a3.35,3.35,0,0,0,.49,1.67,1.88,1.88,0,0,0,2.66.09C106.61,71.74,106.61,71.74,106.71,71.65Z"/><path class="cls-2" d="M16.79,80.2H94A2.74,2.74,0,0,1,96.78,83v17.88A2.74,2.74,0,0,1,94,103.58H16.79A2.75,2.75,0,0,1,14,100.83V83A2.81,2.81,0,0,1,16.79,80.2Z"/><path class="cls-3" d="M25.05,95.92c-.1-.1-.1-.1-.1-.2V88c0-.1,0-.2.1-.2s.1-.1.2-.1h1.17c.1,0,.2,0,.2.1s.1.1.1.2v7.66c0,.1,0,.1-.1.2s-.1.1-.2.1H25.05Z"/><path class="cls-3" d="M28.49,95.92c-.1,0-.1-.1-.1-.2v-5.6c0-.1,0-.1.1-.2s.1-.09.19-.09h1c.1,0,.19,0,.19.09s.1.1.1.2v.49a2.47,2.47,0,0,1,2-.88,2.35,2.35,0,0,1,1.77.69,3,3,0,0,1,.68,2v3.34c0,.1,0,.1-.09.2s-.1.1-.2.1H32.91c-.2,0-.29-.1-.29-.3V92.48a2,2,0,0,0-.3-1.08,1.24,1.24,0,0,0-1-.4,1.23,1.23,0,0,0-1,.4,1.46,1.46,0,0,0-.4,1.08v3.24c0,.1,0,.1-.1.2s-.09.1-.19.1h-1A.35.35,0,0,1,28.49,95.92Z"/><path class="cls-3" d="M37.53,95.92l-.2-.2-2.26-5.5v-.1c0-.1,0-.1.1-.2s.1-.09.2-.09h1c.1,0,.29.09.29.19l1.58,4.13L39.79,90c0-.1.1-.1.1-.19s.1-.1.19-.1h1c.09,0,.09,0,.19.1a.31.31,0,0,1,.1.19v.1l-2.16,5.5c-.1.2-.2.3-.39.3h-1C37.73,96,37.53,95.92,37.53,95.92Z"/><path class="cls-3" d="M42.74,95.33A2.6,2.6,0,0,1,42,93.17v-.3a3.45,3.45,0,0,1,.79-2.36,3.29,3.29,0,0,1,4.32,0,3.37,3.37,0,0,1,.69,2.36v.2c0,.1,0,.19-.1.19s-.1.1-.2.1H43.52v.1a1.46,1.46,0,0,0,.4,1.08.86.86,0,0,0,.88.4,1.25,1.25,0,0,0,1.08-.59c0-.1.1-.1.2-.2h1.28c.09,0,.09,0,.19.1s.1.1.1.19a.9.9,0,0,1-.29.69,3.51,3.51,0,0,1-1,.69,3.85,3.85,0,0,1-1.47.29A3.23,3.23,0,0,1,42.74,95.33Zm3.34-3h0a2,2,0,0,0-.3-1.08.92.92,0,0,0-1-.39,1.11,1.11,0,0,0-1,.39,1.39,1.39,0,0,0-.3,1.08h2.56Z"/><path class="cls-3" d="M49.81,95.82a2.72,2.72,0,0,1-.88-.59.89.89,0,0,1-.3-.69c0-.1,0-.1.1-.19s.1-.1.2-.1h1c.1,0,.1,0,.2.1l.29.19a1.47,1.47,0,0,0,1.08.4,2.3,2.3,0,0,0,.79-.2.54.54,0,0,0,.29-.49.65.65,0,0,0-.09-.4,2.65,2.65,0,0,0-.5-.29c-.29-.1-.68-.2-1.08-.3a2.52,2.52,0,0,1-1.47-.68,1.62,1.62,0,0,1-.49-1.18,1.65,1.65,0,0,1,.29-.89,2.59,2.59,0,0,1,.79-.68,3.3,3.3,0,0,1,2.75,0,2.16,2.16,0,0,1,.88.59.83.83,0,0,1,.3.58c0,.1,0,.1-.1.2a.35.35,0,0,1-.2.1h-.88c-.1,0-.2,0-.2-.1l-.29-.2c-.1-.09-.3-.19-.39-.29a1.09,1.09,0,0,0-.5-.1,1.76,1.76,0,0,0-.68.2c-.2.1-.2.29-.2.49a.57.57,0,0,0,.1.39,2.09,2.09,0,0,0,.49.3c.29.1.69.19,1,.29,1.38.3,2.16.89,2.16,1.87a1.74,1.74,0,0,1-.68,1.38,2.9,2.9,0,0,1-2,.49A3.31,3.31,0,0,1,49.81,95.82Z"/><path class="cls-3" d="M56.4,95.43a2.13,2.13,0,0,1-.5-1.67V91.1h-1c-.1,0-.1,0-.19-.1s-.2-.09-.2-.19v-.69c0-.1,0-.2.1-.2s.1-.09.19-.09h1v-2c0-.1,0-.2.09-.2s.1-.09.2-.09h1c.1,0,.2,0,.2.09s.1.1.1.2v2h1.47c.1,0,.1,0,.2.09s.1.1.1.2v.69c0,.1,0,.19-.1.19s-.1.1-.2.1H57.38v2.56a1.2,1.2,0,0,0,.19.78.71.71,0,0,0,.59.3H59c.1,0,.2,0,.2.1s.1.1.1.19v.79c0,.1,0,.1-.1.2s-.1.09-.2.09H58A2.81,2.81,0,0,1,56.4,95.43Z"/><path class="cls-3" d="M63.18,95.92c-.1,0-.1-.1-.1-.2V88c0-.1,0-.2.1-.2s.09-.1.19-.1h1c.09,0,.29.1.29.2L68,93.07V88a.27.27,0,0,1,.3-.3h1c.1,0,.2,0,.2.1s.09.1.09.2v7.66c0,.1,0,.2-.09.2s-.1.1-.2.1h-1a.52.52,0,0,1-.4-.2l-3.34-5.11v5c0,.1,0,.1-.1.2s-.09.1-.19.1H63.18Z"/><path class="cls-3" d="M71.92,95.33a2.75,2.75,0,0,1-.78-2V92.28a2.74,2.74,0,0,1,.78-2,2.88,2.88,0,0,1,2.16-.69,3.1,3.1,0,0,1,2.07.69,2.74,2.74,0,0,1,.78,2v1a2.75,2.75,0,0,1-.78,2,3.29,3.29,0,0,1-4.23.1Zm3-.79a1.58,1.58,0,0,0,.39-1.18v-1A1.92,1.92,0,0,0,75,91.2a1.44,1.44,0,0,0-2,0,1.6,1.6,0,0,0-.39,1.18v.88A1.9,1.9,0,0,0,73,94.44a1.26,1.26,0,0,0,1,.4A1.08,1.08,0,0,0,75,94.54Z"/><path class="cls-3" d="M79.39,95.62l-1.67-5.5V90c0-.1,0-.1.1-.19s.1-.1.19-.1h.89c.1,0,.2,0,.2.1s.09.09.09.19l1.18,3.83L81.55,90c0-.1.1-.1.1-.19a.31.31,0,0,1,.2-.1h.59c.09,0,.19,0,.19.1s.1.09.1.19l1.18,3.83L85.09,90c0-.1.1-.1.1-.19s.1-.1.19-.1h.89c.1,0,.1,0,.2.1s.09.09.09.19v.1L85,95.62a.35.35,0,0,1-.1.2.3.3,0,0,1-.19.1h-.79c-.2,0-.39-.1-.39-.3l-1.18-3.73-1.18,3.73c0,.2-.2.3-.39.3H80C79.59,95.92,79.49,95.82,79.39,95.62Z"/><path class="cls-4" d="M159.36,107.17c-.09.1-.29.19-.29.38a1.43,1.43,0,0,0-.09.49l1.06-.58-.39-.48Z"/><polygon class="cls-5" points="227.79 109.2 212.1 111.66 179.49 117.42 167.87 54.76 215.22 45.12 224.1 91.05 227.79 109.2"/><polygon class="cls-6" points="225.05 106.27 209.83 110.05 178.55 116.38 165.69 53.05 213.04 43.41 222.59 90.3 225.05 106.27"/><path class="cls-7" d="M212.19,70.54l-23.06,4.73a.64.64,0,0,1-.75-.48h0a.63.63,0,0,1,.47-.75h0l23.06-4.73a.66.66,0,0,1,.76.47h0A.65.65,0,0,1,212.19,70.54Z"/><path class="cls-7" d="M212.86,73.94l-23.07,4.73a.59.59,0,0,1-.75-.47h0a.58.58,0,0,1,.47-.76h0l23.06-4.73a.59.59,0,0,1,.76.48h0A.58.58,0,0,1,212.86,73.94Z"/><path class="cls-7" d="M204.16,79.24,190.55,82a.59.59,0,0,1-.76-.48h0a.65.65,0,0,1,.48-.75L203.88,78a.64.64,0,0,1,.75.47h0A.65.65,0,0,1,204.16,79.24Z"/><path class="cls-7" d="M208.51,90l-15.69,3.21a.65.65,0,0,1-.76-.47h0a.65.65,0,0,1,.47-.75l15.69-3.22a.66.66,0,0,1,.76.47h0c.09.38-.09.76-.47.76Z"/><path class="cls-7" d="M215.12,85.19l-23.06,4.73a.64.64,0,0,1-.75-.48h0a.63.63,0,0,1,.47-.75L214.84,84a.66.66,0,0,1,.76.47h0a.63.63,0,0,1-.48.76Z"/><path class="cls-7" d="M210,60.05,187,64.78a.66.66,0,0,1-.76-.48h0a.65.65,0,0,1,.47-.75h0l23.07-4.73a.65.65,0,0,1,.75.47h0C210.59,59.67,210.4,60.05,210,60.05Z"/><path class="cls-7" d="M209.36,56.65,186.3,61.37a.65.65,0,0,1-.76-.47h0a.66.66,0,0,1,.47-.76l23.06-4.72a.65.65,0,0,1,.76.47h0A.6.6,0,0,1,209.36,56.65Z"/><path class="cls-7" d="M183.08,68.08,175.8,69.6l-1.51-7.28,7.28-1.51Zm-6.52.48L182,67.42l-1.13-5.48-5.48,1.13Z"/><polygon class="cls-8" points="178.92 66.86 176.84 65.81 177.32 64.96 178.55 65.53 179.87 63.26 180.81 63.64 178.92 66.86"/><path class="cls-7" d="M188.94,96.53,181.66,98l-1.51-7.27,7.28-1.52Zm-6.61.48,5.48-1.14-1.14-5.48-5.48,1.13Z"/><polygon class="cls-8" points="184.69 95.3 182.61 94.26 183.08 93.41 184.31 93.98 185.73 91.71 186.58 92.19 184.69 95.3"/><path class="cls-7" d="M185.92,82l-7.28,1.51-1.51-7.28,7.28-1.51Zm-6.52.47,5.48-1.13-1.14-5.49L178.26,77Z"/><polygon class="cls-8" points="181.76 80.84 179.68 79.71 180.15 78.86 181.38 79.52 182.71 77.16 183.65 77.63 181.76 80.84"/><path class="cls-9" d="M212.38,91a6.38,6.38,0,1,0,2.18,12.57,6.36,6.36,0,0,0,5.19-7.38A6.27,6.27,0,0,0,212.38,91Zm5.67,5.48a4.65,4.65,0,1,1-5.38-3.78h0a4.68,4.68,0,0,1,5.38,3.78Z"/><path class="cls-9" d="M215,104.94l-.19.1a7.83,7.83,0,0,1-2.74-15.41A7.59,7.59,0,0,1,218,91a7.84,7.84,0,0,1,1.89,10.87A7.62,7.62,0,0,1,215,104.94ZM212.1,90.2a7.47,7.47,0,1,0,.19,0Z"/><polygon class="cls-8" points="213.23 100.03 210.3 98.14 211.15 97 212.85 98.05 215.31 94.83 216.54 95.68 213.23 100.03"/><polygon class="cls-5" points="239.6 114.96 216.26 110.99 221.08 110.24 212.48 109.39 211.44 109.67 189.6 108.16 197.17 44.93 245.27 49.84 239.98 96.34 239.6 114.96"/><polygon class="cls-10" points="236.39 111.09 220.7 110.24 188.94 106.93 195.56 42.66 243.67 47.57 238.75 95.11 236.39 111.09"/><path class="cls-7" d="M234.69,73.19l-23.35-2.37a.61.61,0,0,1-.56-.66h0a.61.61,0,0,1,.66-.56L234.88,72a.62.62,0,0,1,.56.66h0a.71.71,0,0,1-.75.57Z"/><path class="cls-7" d="M234.4,76.68,211,74.23a.63.63,0,0,1-.56-.66h0a.63.63,0,0,1,.66-.57l23.34,2.36A.63.63,0,0,1,235,76h0A.63.63,0,0,1,234.4,76.68Z"/><path class="cls-7" d="M224.48,79.14l-13.8-1.42a.62.62,0,0,1-.57-.66h0a.62.62,0,0,1,.67-.56l13.8,1.41a.63.63,0,0,1,.56.66h0A.63.63,0,0,1,224.48,79.14Z"/><path class="cls-7" d="M225.43,90.77l-16-1.61a.62.62,0,0,1-.56-.66h0a.62.62,0,0,1,.66-.57h0l16,1.61a.63.63,0,0,1,.57.66h0C226.09,90.58,225.8,90.77,225.43,90.77Z"/><path class="cls-7" d="M233.18,88l-23.35-2.37a.62.62,0,0,1-.57-.66h0a.63.63,0,0,1,.67-.57h0l23.34,2.37a.63.63,0,0,1,.57.66h0A.54.54,0,0,1,233.18,88Z"/><path class="cls-7" d="M235.82,62.6l-23.34-2.36a.63.63,0,0,1-.57-.66h0a.63.63,0,0,1,.66-.57L236,61.37a.63.63,0,0,1,.57.66h0A.73.73,0,0,1,235.82,62.6Z"/><path class="cls-7" d="M236.2,59.1l-23.44-2.36a.63.63,0,0,1-.57-.66h0a.63.63,0,0,1,.67-.57h0l23.34,2.37a.62.62,0,0,1,.57.66h0a.47.47,0,0,1-.57.56Z"/><path class="cls-7" d="M207.75,62.22l-7.37-.75.76-7.37,7.37.75Zm-6.43-1.6,5.58.56.57-5.57L201.89,55Z"/><polygon class="cls-8" points="204.06 59.77 202.36 58.16 203.12 57.5 204.06 58.44 206.15 56.65 206.81 57.31 204.06 59.77"/><path class="cls-7" d="M204.73,91.05l-7.38-.76.76-7.37,7.37.76Zm-6.34-1.51,5.58.57.57-5.58L199,84Z"/><polygon class="cls-8" points="201.13 88.69 199.43 86.99 200.19 86.33 201.13 87.27 203.22 85.47 203.88 86.23 201.13 88.69"/><path class="cls-7" d="M206.33,76.31,199,75.55l.76-7.37,7.37.75Zm-6.42-1.52,5.57.57.57-5.58-5.58-.56Z"/><polygon class="cls-8" points="202.65 73.94 200.95 72.24 201.7 71.58 202.65 72.53 204.73 70.73 205.39 71.49 202.65 73.94"/><path class="cls-9" d="M228.92,92.75a6.39,6.39,0,1,0,5.48,7.19,6.39,6.39,0,0,0-5.48-7.19Zm3.78,7a4.62,4.62,0,1,1-4-5.2h0a4.67,4.67,0,0,1,4,5.2Z"/><path class="cls-9" d="M227.22,106.93H227a7.78,7.78,0,1,1,5.86-1.51,8.75,8.75,0,0,1-5.67,1.51Zm1.51-15a7.43,7.43,0,1,0,.29,0Z"/><polygon class="cls-8" points="226.94 101.73 224.76 98.99 225.9 98.14 227.22 99.65 230.53 97.38 231.47 98.52 226.94 101.73"/><polygon class="cls-5" points="228.45 103.72 212.85 105.13 189.32 103.81 189.23 104.47 179.78 104.28 180.91 40.58 229.3 40.58 229.21 46.16 227.98 45.97 228.73 87.36 228.45 103.72"/><polygon class="cls-3" points="226.65 102.39 211.06 103.15 179.11 103.15 179.11 38.5 227.41 38.5 227.41 86.33 226.65 102.39"/><path class="cls-9" d="M217.3,84.91a6.43,6.43,0,1,0,6.24,6.71,6.43,6.43,0,0,0-6.24-6.71Zm4.53,6.52a4.68,4.68,0,1,1-4.53-4.82,4.78,4.78,0,0,1,4.53,4.82Z"/><path class="cls-9" d="M217.11,99.18h-.29a7.66,7.66,0,1,1,7.76-7.56A7.57,7.57,0,0,1,217.11,99.18Zm0-15.12a7,7,0,1,0,.28,0Z"/><polygon class="cls-8" points="216.35 94.08 213.8 91.52 214.93 90.58 216.35 92 219.38 89.35 220.51 90.39 216.35 94.08"/><path class="cls-11" d="M209.64,58.92H211a2.94,2.94,0,0,0,.86.18,6.44,6.44,0,0,1,4.82,3.31,10.12,10.12,0,0,1,1,3.59,8.89,8.89,0,0,1-.19,3.12,19.94,19.94,0,0,1-1,2.46A28.26,28.26,0,0,1,209.36,81a22.34,22.34,0,0,1-6.05,3.78c.09-.38.09-.85.19-1.32a43.79,43.79,0,0,1,1.89-6.9c.57-1.8,1.23-3.59,1.89-5.48a1.46,1.46,0,0,0-.76-2,.58.58,0,0,0-.38-.09,3.91,3.91,0,0,0-2.55.28A24.13,24.13,0,0,0,201,70.92,30.11,30.11,0,0,0,197.07,74a2.2,2.2,0,0,0-.76,1.13c-.09.38.1.57.38.57a1.85,1.85,0,0,0,.76-.19,6.29,6.29,0,0,1,1.7-.66c.95-.19,1.8.09,1.8,1.42a22,22,0,0,1-.67,5A38.12,38.12,0,0,1,198.87,86h-.66a5.87,5.87,0,0,1-5.11-2.84,7.92,7.92,0,0,1-1-3.87,14.42,14.42,0,0,1,.76-4.92,26,26,0,0,1,7.28-11c.18-.1.37-.19.37-.47h0c.1,0,.1,0,.19-.1h0c.1,0,.1,0,.1-.09h0c.09,0,.19,0,.19-.1h0a.09.09,0,0,0,.09-.09h0a5.29,5.29,0,0,1,1.23-.76,19.76,19.76,0,0,1,6.43-2.55C208.79,59.1,209.26,59.1,209.64,58.92Zm1,4.06a1.48,1.48,0,0,0-1.23-1.61h-.29a5.23,5.23,0,0,0-4.63,4.35,1.5,1.5,0,0,0,1.14,1.8,1.07,1.07,0,0,0,.75,0,5,5,0,0,0,3.22-1.89,4.23,4.23,0,0,0,1-2.65Z"/><path class="cls-12" d="M188.19,81.69l.28-1.7a25.32,25.32,0,0,1,3-7.75A31.57,31.57,0,0,1,199.91,63l.28-.19c0,.28-.28.38-.38.47a25.44,25.44,0,0,0-7.28,11,12.44,12.44,0,0,0-.75,4.91,8,8,0,0,0,1,3.88,6,6,0,0,0,5.1,2.83h.66a14.22,14.22,0,0,1-2,3.78,2.73,2.73,0,0,1-2.84,1A6.73,6.73,0,0,1,188.38,85a5.82,5.82,0,0,0-.19-1.23Z"/><path class="cls-12" d="M217.49,69a13.17,13.17,0,0,1-.76,3.31,27,27,0,0,1-5.86,9.92,28.37,28.37,0,0,1-5.58,5,1.16,1.16,0,0,1-1.6,0,1.07,1.07,0,0,1-.29-.76,5.39,5.39,0,0,1,0-1.7,22,22,0,0,0,6-3.78,28.29,28.29,0,0,0,7.19-9.45C216.92,70.73,217.2,69.88,217.49,69Z"/><path class="cls-12" d="M200.47,62.7c0-.1.1-.1.19-.1h0c-.09.1-.09.1-.19.1Z"/><path class="cls-12" d="M200.19,62.89c0-.1.09-.1.19-.1S200.28,62.89,200.19,62.89Z"/><path class="cls-12" d="M200.57,62.6a.09.09,0,0,1,.09-.09c0,.09,0,.09-.09.09Z"/><path class="cls-12" d="M200.38,62.79a.09.09,0,0,1,.09-.09A.09.09,0,0,1,200.38,62.79Z"/><path class="cls-11" d="M194.61,53.24c-.09-.09-.09-.09-.09-.18V45c0-.09,0-.19.09-.19s.1-.09.19-.09h5.86c.1,0,.19,0,.19.09a.3.3,0,0,1,.1.19v1.23c0,.09,0,.19-.1.19a.29.29,0,0,1-.19.09h-3.87v1.61h3.68c.1,0,.19,0,.19.1s.1.09.1.18v1.14c0,.09,0,.19-.1.19s-.09.09-.19.09h-3.68v1.61h4c.09,0,.19,0,.19.09s.09.1.09.19V53c0,.1,0,.19-.09.19a.31.31,0,0,1-.19.09H194.9A.18.18,0,0,1,194.61,53.24Z"/><path class="cls-11" d="M204.44,53.24c-.09-.09-.09-.09-.09-.18V46.72h-2.18c-.09,0-.18,0-.18-.09s-.1-.1-.1-.19V45a.3.3,0,0,1,.28-.28h6.72c.09,0,.18,0,.18.09s.1.1.1.19v1.32c0,.1,0,.19-.1.19a.27.27,0,0,1-.18.1h-2.18V53c0,.1,0,.19-.09.19a.31.31,0,0,1-.19.09h-1.7C204.63,53.34,204.54,53.24,204.44,53.24Z"/><path class="cls-11" d="M210.4,53.24c-.1-.09-.1-.09-.1-.18V45c0-.09,0-.19.1-.19s.09-.09.19-.09h5.76c.1,0,.19,0,.19.09a.3.3,0,0,1,.1.19v1.32c0,.1,0,.19-.1.19a.28.28,0,0,1-.19.1h-3.78v1.7h3.5c.09,0,.19,0,.19.09a.31.31,0,0,1,.09.19v1.33c0,.09,0,.19-.09.19a.31.31,0,0,1-.19.09h-3.5V53c0,.1,0,.19-.09.19s-.1.09-.19.09h-1.7C210.59,53.34,210.49,53.24,210.4,53.24Z"/><path class="cls-4" d="M196.31,108.82a2.25,2.25,0,0,1,.48.28l.38.38-1.23-.28.09-.47Z"/><path class="cls-4" d="M168.72,105.89a.81.81,0,0,0-.57.28,2.36,2.36,0,0,0-.47.57l1.23-.38Z"/><path class="cls-4" d="M188.66,119.41a1.67,1.67,0,0,1-.66.09l-.66-.09.66-.67Z"/><path class="cls-13" d="M188,118.93a.53.53,0,0,0,.47.57h.19l11.62-3.5a.53.53,0,0,0,.38-.66c0-.09,0-.09-.09-.19l-3.5-5.48a1,1,0,0,0-1-.38l-7.56,2.27a1,1,0,0,0-.66,1Z"/><path class="cls-14" d="M196.13,109.2c.37-.1.37-.29,0-.38l-17.87-5.1a3.4,3.4,0,0,0-1.42,0l-8.12,2.17c-.38.09-.38.28,0,.38l18.33,5.2a3.77,3.77,0,0,0,1.42,0Z"/><polygon class="cls-15" points="173.54 107.59 183.08 110.33 192.44 107.69 181.48 104.57 173.54 107.59"/><path class="cls-16" d="M167.58,106.65a1,1,0,0,1,1.14-.38l18.33,5.2a1.15,1.15,0,0,1,.76.94l.09,6.52a.53.53,0,0,1-.47.57h-.19l-22.59-7a.55.55,0,0,1-.38-.67.31.31,0,0,1,.1-.18Z"/><polygon class="cls-15" points="166.16 112.88 180.72 117.42 182.42 110.14 170.99 106.46 166.16 112.88"/><path class="cls-17" d="M164.37,111.75l1.42-2.17c3,1.89,8.12,4.72,12.09,5.76A51.39,51.39,0,0,0,188,116.66v2.27a.53.53,0,0,1-.48.57h-.18l-22.69-7a.55.55,0,0,1-.38-.67A.09.09,0,0,1,164.37,111.75Z"/><path class="cls-18" d="M164.37,111.75h0c.09.19.19.38.47.38l22.68,6.9a.63.63,0,0,0,.57-.1.59.59,0,0,1-.47.57h-.19l-22.68-6.9a.53.53,0,0,1-.38-.66C164.27,111.84,164.27,111.75,164.37,111.75Z"/><path class="cls-19" d="M188.47,111.47s-.38.19-.47.37a3.22,3.22,0,0,0-.19.57c0-.19-.1-.28-.19-.47s-.38-.28-.57-.47h1.42Z"/><path class="cls-20" d="M187.81,113.26a8.54,8.54,0,0,0,7.37,2.27,8.42,8.42,0,0,0,4.35-2.08l1,1.61c.19.19.09.56-.1.75-.09,0-.09.1-.19.1l-11.62,3.5a.49.49,0,0,1-.66-.29v-.19Z"/><path class="cls-18" d="M200.66,115.25a.49.49,0,0,1-.28.66h-.1l-11.62,3.5a.49.49,0,0,1-.66-.29Z"/><path class="cls-21" d="M168.72,106.17c-.38-.09-.38-.28,0-.37l8.12-2.18a3.77,3.77,0,0,1,1.42,0l14.56,4.16c-.47.38-1.51.76-3.78,1a87.66,87.66,0,0,1-10,.28Z"/><path class="cls-22" d="M178.26,108.35a103.52,103.52,0,0,0,13.14-.85h.38l1,.28c-.47.38-1.51.76-3.78,1a87.66,87.66,0,0,1-10,.28l-6.15-1.7Z"/><path class="cls-23" d="M193.57,112.13a17.73,17.73,0,0,0-5.76,1.89v-1.61a1,1,0,0,1,.66-.94L196,109.2a1,1,0,0,1,1,.38l1.51,2.36A14.92,14.92,0,0,0,193.57,112.13Z"/><path class="cls-24" d="M190.08,109.76a8.84,8.84,0,0,0,4.25-1.51l1.8.48c.37.09.37.28,0,.37l-7.57,2.27a3.35,3.35,0,0,1-1.41,0l-5.67-1.61A64.43,64.43,0,0,0,190.08,109.76Z"/><path class="cls-25" d="M187.9,114.77a53.06,53.06,0,0,0-12-3.68c-4.63-.85-7.94-1.33-10.11-1.61l1.79-2.83a1,1,0,0,1,1.14-.38l18.33,5.2a1.15,1.15,0,0,1,.76.94Z"/><polygon class="cls-26" points="183.56 118.27 178.83 116.85 175.05 107.97 178.26 108.91 183.56 118.27"/><path class="cls-4" d="M174.2,108.06l-3.31-1-1.7-.56-.38-.19c-.09,0-.09,0-.19-.1h-.19a1.16,1.16,0,0,0-.75.38h0a1,1,0,0,1,1.13-.38l18.34,5.2a1.15,1.15,0,0,1,.75.95l.1,6.52c-.1,0-.19-4.16-.29-4.25v-1l-.09-.86v-.37c0-.1-.1-.19-.1-.29s-.09-.19-.18-.19l-.1-.09h-.19l-.85-.19-1.7-.47-3.4-1-3.4-.94-1.71-.47-.85-.29Z"/><path class="cls-4" d="M191.12,111c-.38.1-.85.19-1.23.29l-1.33.28h-.28a.21.21,0,0,0-.19.19c-.09.09-.09.19-.19.19a.35.35,0,0,0-.09.28h0a1,1,0,0,1,.66-.94L196,109a.89.89,0,0,1,.85.19l.19.19,1.14,1.79-.86-1.32a3.34,3.34,0,0,0-.28-.38c-.09-.09-.19-.19-.28-.19s-.19-.09-.29-.09h-.37l-.1.09c-.38.19-.85.29-1.23.47s-.85.29-1.23.48l-1.22.38Z"/><path class="cls-27" d="M196.13,109.2l-7.57,2.27a3.72,3.72,0,0,1-1.41,0l-18.34-5.2h0l.85.19.85.19,1.8.37,3.49,1,.86.19.85.19,1.79.47,3.5.94,3.5,1,.85.29a2.41,2.41,0,0,0,.75.09.58.58,0,0,0,.38-.09l.47-.1.85-.19,3.5-.94,1.8-.47.85-.19a.8.8,0,0,0,.38-.19v-.1c0-.09,0-.09-.1-.09s-.09-.09-.19-.09h0C196.5,108.91,196.5,109,196.13,109.2Z"/><path class="cls-4" d="M193.48,100.88a1.93,1.93,0,0,1,.47.28l.38.38-1.23-.28.1-.47Z"/><path class="cls-4" d="M165.79,97.86l-.57.28a2.36,2.36,0,0,0-.47.57l1.23-.38Z"/><path class="cls-4" d="M185.82,111.47a1.67,1.67,0,0,1-.66.09l-.66-.09.66-.67Z"/><path class="cls-13" d="M185.07,110.9a.53.53,0,0,0,.47.57h.19l11.62-3.5a.53.53,0,0,0,.38-.66c0-.1,0-.1-.09-.19l-3.5-5.48a.93.93,0,0,0-1-.38l-7.56,2.27a.93.93,0,0,0-.66.94Z"/><path class="cls-14" d="M193.2,101.16c.37-.09.37-.28,0-.37l-17.87-5.11a3.77,3.77,0,0,0-1.42,0l-8.12,2.18c-.38.09-.38.28,0,.37l18.33,5.2a3.4,3.4,0,0,0,1.42,0Z"/><polygon class="cls-15" points="170.61 99.56 180.15 102.3 189.6 99.75 178.55 96.53 170.61 99.56"/><path class="cls-28" d="M164.75,98.61a1,1,0,0,1,1.13-.38l18.34,5.2a1.15,1.15,0,0,1,.75.95l.1,6.52a.61.61,0,0,1-.48.57h-.28l-22.68-6.9a.55.55,0,0,1-.38-.67c0-.09.09-.09.09-.18Z"/><polygon class="cls-15" points="168.62 106.65 177.88 109.48 179.49 102.11 170.13 99.46 168.62 106.65"/><path class="cls-17" d="M161.44,103.72l1.42-2.18c3,1.89,8.12,4.73,12.09,5.77a52.15,52.15,0,0,0,10.12,1.32l.09,2.27a.61.61,0,0,1-.47.57h-.28l-22.69-6.9a.55.55,0,0,1-.38-.67A.31.31,0,0,1,161.44,103.72Z"/><path class="cls-18" d="M161.44,103.72h0a.41.41,0,0,0,.38.37L184.5,111c.19.1.38,0,.57-.09a.61.61,0,0,1-.48.57h-.28l-22.68-6.9a.55.55,0,0,1-.38-.67Z"/><path class="cls-19" d="M185.63,103.43a1.37,1.37,0,0,0-.47.38l-.19.57a1,1,0,0,0-.19-.48c-.19-.18-.37-.28-.56-.47h1.41Z"/><path class="cls-20" d="M185,105.23a8.64,8.64,0,0,0,11.72.19l1,1.6a.59.59,0,0,1-.09.76c-.1,0-.1.09-.19.09l-11.63,3.5a.49.49,0,0,1-.66-.28v-.19Z"/><path class="cls-18" d="M197.83,107.21a.48.48,0,0,1-.29.66h-.09l-11.63,3.5a.49.49,0,0,1-.66-.28Z"/><path class="cls-21" d="M165.88,98.23c-.38-.09-.38-.28,0-.37L174,95.68a3.77,3.77,0,0,1,1.42,0L190,99.84c-.47.38-1.51.76-3.78,1a71,71,0,0,1-10,.28Z"/><path class="cls-22" d="M175.33,100.41a103.52,103.52,0,0,0,13.14-.85h.38l1,.28c-.47.38-1.51.76-3.78,1a71,71,0,0,1-10,.28l-6.15-1.7Z"/><path class="cls-23" d="M190.74,104.09a16.25,16.25,0,0,0-5.77,2v-1.7a1,1,0,0,1,.66-.95l7.57-2.27a1.07,1.07,0,0,1,1,.38l1.51,2.36A18.44,18.44,0,0,0,190.74,104.09Z"/><path class="cls-24" d="M187.24,101.73a8.84,8.84,0,0,0,4.25-1.51l1.8.47c.38.1.38.28,0,.38l-7.56,2.27a3.77,3.77,0,0,1-1.42,0l-5.67-1.61A64.59,64.59,0,0,0,187.24,101.73Z"/><path class="cls-25" d="M185,106.74a53.59,53.59,0,0,0-12-3.69c-4.63-.85-7.94-1.32-10.11-1.6l1.89-2.84a1,1,0,0,1,1.13-.38l18.34,5.2a1.15,1.15,0,0,1,.75.95Z"/><polygon class="cls-26" points="180.63 110.33 175.99 108.82 172.12 100.03 175.33 100.97 180.63 110.33"/><path class="cls-4" d="M171.36,100.12l-3.31-1-1.7-.56-.37-.19-.19-.1h-.19a1.16,1.16,0,0,0-.76.38h0a1,1,0,0,1,1.14-.38l18.33,5.2a1.16,1.16,0,0,1,.76.95l.09,6.52c-.09,0-.28-4.16-.28-4.25l-.1-1-.09-.85v-.38c0-.1-.1-.19-.1-.29s-.09-.19-.18-.19-.1,0-.1-.09h-.19l-.85-.19-1.7-.47-3.4-1-3.4-.94-1.71-.47-.85-.29Z"/><path class="cls-4" d="M188.28,103.05c-.38.1-.85.19-1.23.29l-1.32.28h-.28a.2.2,0,0,0-.19.19c-.1.09-.1.19-.19.19a.33.33,0,0,0-.1.28h0a.94.94,0,0,1,.66-.94l7.57-2.27a.89.89,0,0,1,.85.19l.19.19,1.13,1.79-.85-1.32s-.19-.28-.28-.38-.19-.19-.29-.19a1.26,1.26,0,0,0-.57-.09h-.18c-.38.19-.85.28-1.23.47a6.44,6.44,0,0,1-1.23.38l-1.23.38Z"/><path class="cls-27" d="M193.2,101.16l-7.57,2.27a3.35,3.35,0,0,1-1.41,0l-18.34-5.2h0l1,.19.85.19,1.79.38,3.5,1,.85.18.85.19,1.8.48,3.49.94,3.5,1,.85.28a2.24,2.24,0,0,0,.76.1.56.56,0,0,0,.38-.1l.47-.09.85-.19,3.5-.94,1.79-.48.76-.19a.72.72,0,0,0,.38-.19v-.09c0-.09,0,0-.1-.09l-.19-.1h0C193.57,100.88,193.57,101.07,193.2,101.16Z"/><path class="cls-4" d="M178.17,91.24a.84.84,0,0,1,.66,0,2.84,2.84,0,0,1,.76.38l-1.33.19Z"/><path class="cls-4" d="M166.64,113.92a.76.76,0,0,0,.66,0l.57-.28-1-.66Z"/><path class="cls-13" d="M167.11,113.17c.19.47,0,.75-.38.75L154,112.41a.73.73,0,0,1-.66-.75l.76-6a.91.91,0,0,1,.85-.67l8.13.38a1.49,1.49,0,0,1,1,.76Z"/><path class="cls-14" d="M154.73,104.85c-.38,0-.47-.19-.19-.38l13.89-12.76a3.27,3.27,0,0,1,1.23-.66l8.41.1c.38-.1.48.09.19.47l-14.08,13.14a2.19,2.19,0,0,1-1.32.37Z"/><path class="cls-28" d="M179.49,91.52a.85.85,0,0,0-1.13.1l-14.09,13.14a1.12,1.12,0,0,0-.18,1.22l3,7.19c.19.47.57.66.94.38l17.11-16.64a.77.77,0,0,0-.19-1.13h0Z"/><polygon class="cls-26" points="174.48 107.21 173.63 96.63 171.17 98.99 170.89 110.71 174.48 107.21"/><path class="cls-17" d="M184.88,95.78,182.61,94c-1.7,3.69-4.82,9.36-7.84,12a30.79,30.79,0,0,1-8.7,4.64l1,2.55c.19.47.57.66.94.38l17.11-16.64a.73.73,0,0,0-.28-1.13Z"/><path class="cls-18" d="M184.88,95.78h0a1.24,1.24,0,0,1-.19.75l-17.11,16.64a.64.64,0,0,1-.57,0c.19.47.57.66,1,.38l17.11-16.64a.78.78,0,0,0-.19-1.13Z"/><path class="cls-19" d="M163,105.23c.19.09.47.09.66.28l.47.57a1.26,1.26,0,0,1-.09-.57c.09-.19.19-.47.28-.66a1.83,1.83,0,0,1-.66.19A1.87,1.87,0,0,0,163,105.23Z"/><path class="cls-20" d="M164.46,106.93a6,6,0,0,1-5.86,4.16,10.42,10.42,0,0,1-5.1-1.33l-.19,1.8a.73.73,0,0,0,.66.76l12.76,1.51c.38,0,.57-.28.38-.76Z"/><path class="cls-18" d="M153.22,111.75a.78.78,0,0,0,.66.66l12.76,1.51c.19,0,.47-.09.47-.28v-.19Z"/><path class="cls-29" d="M178.26,91.71c.29-.28.19-.56-.19-.47l-8.41-.09a2.94,2.94,0,0,0-1.23.56l-11.15,11c.57.28,1.8.37,4.06,0a45.14,45.14,0,0,0,9.27-3.12Z"/><path class="cls-30" d="M170.89,98.42a62.35,62.35,0,0,1-12.38,3.69H158l-.85.57c.56.28,1.79.37,4.06,0a45.25,45.25,0,0,0,9.26-3.12L175.14,95Z"/><path class="cls-23" d="M158.51,107.21a17.93,17.93,0,0,1,6.33.57l-.76-1.8a1.09,1.09,0,0,0-1-.75l-8.13-.38a.81.81,0,0,0-.85.66l-.29,2.65A15.12,15.12,0,0,1,158.51,107.21Z"/><path class="cls-24" d="M160.68,103.9a9.63,9.63,0,0,1-4.63-.37l-1.42.94c-.28.19-.19.38.19.38l8.13.38a3,3,0,0,0,1.32-.38l4.45-3.59A50.38,50.38,0,0,1,160.68,103.9Z"/><path class="cls-25" d="M165.12,108.54a63.15,63.15,0,0,1,9.27-8.13c3.68-3,6.42-5.2,8.13-6.62l-3-2.27a.85.85,0,0,0-1.13.1l-14.09,13.14a1.12,1.12,0,0,0-.18,1.22Z"/><path class="cls-4" d="M174.39,96.34l2.45-2.74,1.23-1.42.29-.37c0-.1.09-.1.09-.19l.19-.1a1.37,1.37,0,0,1,.85,0h0a.85.85,0,0,0-1.13.1l-14.09,13.14a1.12,1.12,0,0,0-.18,1.22l3,7.19c.09-.1-1.8-4.73-1.8-4.73l-.47-1.13-.38-1-.09-.19a.35.35,0,0,0-.1-.19v-.28a.33.33,0,0,1,.1-.28l.09-.1.1-.09.66-.47,1.32-1,2.65-2.18,2.55-2.36L173.06,98l.67-.66Z"/><path class="cls-4" d="M160.3,105.51h1.33a6.52,6.52,0,0,0,1.32-.09h.19c.09,0,.19.09.28.09s.19.1.29.19.19.19.19.28h0a1.11,1.11,0,0,0-1-.75l-8.13-.38a.82.82,0,0,0-.85.57l-.19,2,.19-1.42s0-.37.09-.47a.21.21,0,0,1,.19-.19l.19-.19c.09,0,.19-.09.28-.09h.19l1.33.19a7,7,0,0,0,1.32.09c.38,0,.85.1,1.32.1S159.83,105.51,160.3,105.51Z"/><path class="cls-27" d="M154.73,104.85l8.13.38a3.07,3.07,0,0,0,1.32-.38l14.08-13.14h0l-.66.66-.66.67-1.32,1.32-2.75,2.55-.66.66-.66.66-1.32,1.23-2.74,2.37L164.65,104l-.66.57a1.85,1.85,0,0,1-.76.28c-.09,0-.28.09-.37.09h-7.09l-1-.09c-.1.09-.19.09-.38,0a.09.09,0,0,1-.09-.09v-.1c0-.09.09-.09.09-.19h0C154.26,104.66,154.35,104.85,154.73,104.85Z"/><path class="cls-3" d="M167,88.78a.2.2,0,0,1-.18-.19v-.75a.2.2,0,0,1,.18-.19c.1,0,.1.09.1.19v.75C167.11,88.69,167.11,88.78,167,88.78Z"/><path class="cls-3" d="M167,90.58a.2.2,0,0,1-.18-.19h0v-.76a.2.2,0,0,1,.18-.19c.1,0,.1.1.1.19v.76C167.11,90.48,167.11,90.48,167,90.58Z"/><path class="cls-3" d="M166.45,89.25h-.76c-.09,0-.09-.09-.09-.18a.32.32,0,0,1,.09-.19h.76a.2.2,0,0,1,.19.19h0A.2.2,0,0,1,166.45,89.25Z"/><path class="cls-3" d="M168.24,89.25h-.75a.19.19,0,1,1,0-.37h.75a.2.2,0,0,1,.19.19h0A.2.2,0,0,1,168.24,89.25Z"/><path class="cls-3" d="M163.33,91a.2.2,0,0,1-.19-.19v-.85a.2.2,0,0,1,.19-.19.2.2,0,0,1,.19.19v.85c0,.19-.1.19-.19.19Z"/><path class="cls-3" d="M163.33,93a.2.2,0,0,1-.19-.19V92a.2.2,0,0,1,.19-.19.2.2,0,0,1,.19.19h0v.85a.21.21,0,0,1-.19.19Z"/><path class="cls-3" d="M162.76,91.62h-.85a.21.21,0,0,1-.19-.19.2.2,0,0,1,.19-.19h.85a.2.2,0,0,1,.19.19A.2.2,0,0,1,162.76,91.62Z"/><path class="cls-3" d="M164.75,91.62h-.85a.2.2,0,0,1-.19-.19.2.2,0,0,1,.19-.19h.85a.2.2,0,0,1,.19.19A.21.21,0,0,1,164.75,91.62Z"/><text class="cls-31" transform="translate(14.04 34.19)">ICICI Pru Silver <tspan x="0" y="21.56">ETF FoF</tspan></text></svg>