<?xml version="1.0" encoding="utf-8"?>
<!-- Generator: Adobe Illustrator 25.3.0, SVG Export Plug-In . SVG Version: 6.00 Build 0)  -->
<svg version="1.1" id="Layer_1" xmlns="http://www.w3.org/2000/svg" xmlns:xlink="http://www.w3.org/1999/xlink" x="0px" y="0px"
	 viewBox="0 0 280 120" style="enable-background:new 0 0 280 120;" xml:space="preserve">
<style type="text/css">
	.st0{fill:url(#SVGID_1_);}
	.st1{fill:#FFFFFF;}
	.st2{fill:#00E0FD;}
	.st3{fill:#1FBAEA;}
	.st4{opacity:0.2;fill:#C2CCD9;enable-background:new    ;}
	.st5{fill:#C8EEFC;}
	.st6{fill:#269AFF;}
	.st7{fill:#00022F;}
	.st8{fill:#B9DDFF;}
	.st9{fill:#AAD0F9;}
	.st10{fill:#F58B0D;}
	.st11{fill:#007EE3;}
	.st12{fill:#FEFAF6;}
	.st13{fill:#0F3872;}
	.st14{fill:#0062C7;}
	.st15{fill:#FD8202;}
	.st16{fill:#5F5F5F;}
	.st17{fill:#555554;}
	.st18{fill:#4F4F4E;}
	.st19{fill:#C682BC;}
	.st20{fill:#FA4055;}
	.st21{fill:#FBC903;}
	.st22{fill:#FA2204;}
	.st23{fill:#231F1B;}
	.st24{fill:#F92B00;}
	.st25{fill:#D15F93;}
	.st26{fill:#1D1D1B;}
	.st27{fill:#20201A;}
	.st28{fill:#EEBD00;}
	.st29{fill:#003BA4;}
	.st30{fill:#E58435;}
	.st31{fill:#F89F4F;}
	.st32{fill:#FDC854;}
</style>
<linearGradient id="SVGID_1_" gradientUnits="userSpaceOnUse" x1="266.8816" y1="1125.0198" x2="-33.9484" y2="868.5798" gradientTransform="matrix(1 0 0 1 0 -958)">
	<stop  offset="2.000000e-02" style="stop-color:#2C2C8A"/>
	<stop  offset="0.37" style="stop-color:#282084"/>
	<stop  offset="1" style="stop-color:#1F0075"/>
</linearGradient>
<rect x="-3.5" y="-19" class="st0" width="288.5" height="157"/>
<path class="st1" d="M22.8,29.5c-0.1-0.1-0.1-0.2-0.1-0.3v-11c0-0.1,0-0.2,0.1-0.3c0.1-0.1,0.2-0.1,0.3-0.1h2.4c0.1,0,0.2,0,0.3,0.1
	c0.1,0.1,0.1,0.2,0.1,0.3v11c0,0.1,0,0.2-0.1,0.3c-0.1,0.1-0.2,0.1-0.3,0.1h-2.4C23,29.6,22.9,29.6,22.8,29.5z"/>
<path class="st1" d="M28.4,29.5c-0.1-0.1-0.1-0.2-0.1-0.3v-11c0-0.1,0-0.2,0.1-0.3c0.1-0.1,0.2-0.1,0.3-0.1h4.5
	c1.4-0.1,2.8,0.3,3.9,1.2c1,0.9,1.5,2.1,1.5,3.4c0,0.3,0,0.8,0,1.3s0,1,0,1.3c-0.1,3.1-1.9,4.7-5.3,4.7h-4.6
	C28.6,29.6,28.5,29.6,28.4,29.5z M33.2,27.1c0.6,0,1.1-0.1,1.6-0.5c0.4-0.5,0.6-1,0.5-1.6c0-0.3,0-0.8,0-1.3s0-0.9,0-1.3
	c0-0.6-0.2-1.2-0.6-1.6c-0.5-0.4-1-0.6-1.6-0.5h-1.6v6.8C31.5,27.1,33.2,27.1,33.2,27.1z"/>
<path class="st1" d="M40.6,29.5c-0.1-0.1-0.1-0.2-0.1-0.3v-11c0-0.1,0-0.2,0.1-0.3c0.1-0.1,0.2-0.1,0.3-0.1h7.9c0.1,0,0.2,0,0.3,0.1
	s0.1,0.2,0.1,0.3V20c0,0.1,0,0.2-0.1,0.3c-0.1,0.1-0.2,0.1-0.3,0.1h-5.2v2.4h4.9c0.1,0,0.2,0,0.3,0.1s0.1,0.2,0.1,0.3V25
	c0,0.1,0,0.2-0.1,0.3c-0.1,0.1-0.2,0.1-0.3,0.1h-4.9v3.8c0,0.1,0,0.2-0.1,0.3c-0.1,0.1-0.2,0.1-0.3,0.1h-2.3
	C40.8,29.6,40.7,29.6,40.6,29.5z"/>
<path class="st1" d="M52.1,28.6c-1-0.9-1.5-2.1-1.5-3.4c0-0.3,0-0.8,0-1.5s0-1.2,0-1.5c0-1.3,0.5-2.5,1.5-3.4
	c1.1-0.8,2.4-1.3,3.8-1.2c0.9,0,1.9,0.1,2.7,0.5c0.7,0.3,1.4,0.8,1.9,1.4s0.7,1.4,0.7,2.2c0,0.1,0,0.2-0.1,0.3c-0.1,0-0.1,0-0.2,0
	h-2.4c-0.1,0-0.2,0-0.3-0.1S58,21.7,58,21.6c-0.1-0.5-0.3-0.9-0.7-1.2c-0.4-0.2-0.8-0.4-1.3-0.3c-1.3,0-1.9,0.7-2,2.1
	c0,0.3,0,0.8,0,1.4s0,1.1,0,1.5c0,1.4,0.7,2.1,2,2.1c0.5,0,0.9-0.1,1.3-0.3c0.4-0.3,0.6-0.7,0.7-1.2c0-0.1,0.1-0.2,0.2-0.3
	c0.1-0.1,0.2-0.1,0.3-0.1h2.4c0.1,0,0.2,0,0.3,0.1s0.1,0.2,0.1,0.3c0,0.8-0.3,1.6-0.7,2.2c-0.5,0.6-1.1,1.1-1.9,1.4
	c-0.9,0.3-1.8,0.5-2.7,0.5C54.5,29.9,53.2,29.5,52.1,28.6z"/>
<path class="st1" d="M66.7,29.5c-0.1-0.1-0.1-0.2-0.1-0.3v-11c0-0.1,0-0.2,0.1-0.3c0.1-0.1,0.2-0.1,0.3-0.1h1.9
	c0.2,0,0.5,0.1,0.6,0.3l4,6.3v-6.3c0-0.1,0-0.2,0.1-0.3c0.1-0.1,0.2-0.1,0.3-0.1h2.2c0.1,0,0.2,0,0.3,0.1c0.1,0.1,0.1,0.2,0.1,0.3
	v11c0,0.1,0,0.2-0.1,0.3c-0.1,0.1-0.2,0.1-0.3,0.1h-1.9c-0.2,0-0.5-0.1-0.6-0.3l-4-6.1v6c0,0.1,0,0.2-0.1,0.3
	c-0.1,0.1-0.2,0.1-0.3,0.1H67C66.9,29.6,66.7,29.6,66.7,29.5z"/>
<path class="st1" d="M78.7,19.4c-0.1-0.1-0.1-0.2-0.1-0.3v-1.6c0-0.1,0-0.2,0.1-0.3c0.1-0.1,0.2-0.1,0.3-0.1h2.1
	c0.2,0,0.4,0.2,0.4,0.4l0,0v1.6c0,0.1,0,0.2-0.1,0.3c-0.1,0.1-0.2,0.1-0.3,0.1H79C78.9,19.6,78.8,19.5,78.7,19.4z M78.7,29.5
	c-0.1-0.1-0.1-0.2-0.1-0.3v-8c0-0.1,0-0.2,0.1-0.3c0.1-0.1,0.2-0.1,0.3-0.1h2.1c0.1,0,0.2,0,0.3,0.1c0.1,0.1,0.1,0.2,0.1,0.3v8
	c0,0.1,0,0.2-0.1,0.3c-0.1,0.1-0.2,0.1-0.3,0.1H79C78.9,29.6,78.8,29.6,78.7,29.5z"/>
<path class="st1" d="M84.7,29.5c-0.1-0.1-0.1-0.2-0.1-0.3v-6.1h-1.3c-0.1,0-0.2,0-0.3-0.1c-0.1-0.1-0.1-0.2-0.1-0.3v-1.5
	c0-0.1,0-0.2,0.1-0.3c0.1-0.1,0.2-0.1,0.3-0.1h1.3v-0.5c-0.1-0.9,0.3-1.8,1-2.5c0.8-0.6,1.8-0.8,2.8-0.8h1.3c0.1,0,0.2,0,0.3,0.1
	c0.1,0.1,0.1,0.2,0.1,0.3v1.5c0,0.1,0,0.2-0.1,0.3c-0.1,0.1-0.2,0.1-0.3,0.1h-1.2c-0.3,0-0.6,0.1-0.8,0.2c-0.2,0.2-0.3,0.5-0.2,0.8
	v0.4h2c0.1,0,0.2,0,0.3,0.1c0.1,0.1,0.1,0.2,0.1,0.3v1.5c0,0.1,0,0.2-0.1,0.3C89.7,23,89.6,23,89.5,23h-2v6.1c0,0.1,0,0.2-0.1,0.3
	c-0.1,0.1-0.2,0.1-0.3,0.1H85C84.9,29.6,84.8,29.6,84.7,29.5z"/>
<path class="st1" d="M92.2,26.2v-3.1h-1.3c-0.1,0-0.2,0-0.3-0.1c-0.1-0.1-0.1-0.2-0.1-0.3v-1.5c0-0.1,0-0.2,0.1-0.3
	c0.1-0.1,0.2-0.1,0.3-0.1h1.3V18c0-0.1,0-0.2,0.1-0.3c0.1-0.1,0.2-0.1,0.3-0.1h2.1c0.2,0,0.4,0.2,0.4,0.4l0,0v2.8h2.1
	c0.1,0,0.2,0,0.3,0.1c0.1,0.1,0.1,0.2,0.1,0.3v1.5c0,0.1,0,0.2-0.1,0.3c-0.1,0.1-0.2,0.1-0.3,0.1h-2.1V26c0,0.3,0.1,0.6,0.2,0.9
	c0.2,0.2,0.4,0.3,0.7,0.3h1.3c0.1,0,0.2,0,0.3,0.1c0.1,0.1,0.1,0.2,0.1,0.3v1.6c0,0.1,0,0.2-0.1,0.3c-0.1,0.1-0.2,0.1-0.3,0.1h-1.6
	C93.4,29.6,92.2,28.5,92.2,26.2z"/>
<path class="st1" d="M100.6,32.8c-0.1-0.1-0.1-0.2-0.1-0.3s0-0.1,0-0.2l1.3-3.2l-3.3-7.7c0-0.1,0-0.1,0-0.2s0.1-0.2,0.2-0.3
	c0.1-0.1,0.2-0.1,0.3-0.1h2c0.2,0,0.4,0.1,0.5,0.4l1.9,4.9l1.9-4.8c0.1-0.2,0.3-0.4,0.5-0.4h2c0.1,0,0.2,0,0.3,0.1
	c0.1,0.1,0.1,0.2,0.1,0.2c0,0.1,0,0.1,0,0.2l-4.8,11.1c-0.1,0.2-0.3,0.4-0.5,0.4h-2C100.8,32.9,100.7,32.8,100.6,32.8z"/>
<path class="st1" d="M116,29.5c-0.1-0.1-0.1-0.2-0.1-0.3v-8l-2.3,1.8c-0.1,0.1-0.2,0.1-0.2,0.1c-0.1,0-0.3-0.1-0.4-0.2l-1-1.4
	c-0.1-0.2-0.1-0.5,0.1-0.6l4-3c0.1-0.1,0.3-0.1,0.4-0.1h2.2c0.1,0,0.2,0,0.3,0.1c0.1,0.1,0.1,0.2,0.1,0.3v11c0,0.1,0,0.2-0.1,0.3
	c-0.1,0.1-0.2,0.1-0.3,0.1h-2.3C116.3,29.7,116.1,29.6,116,29.5z"/>
<path class="st1" d="M122.4,28.5c-0.8-0.9-1.3-2-1.3-3.2c0-0.6,0-1.2,0-1.6s0-1.1,0-1.7c0-0.8,0.2-1.6,0.6-2.3
	c0.4-0.7,1-1.2,1.6-1.6c0.8-0.4,1.7-0.6,2.6-0.6s1.8,0.2,2.6,0.6c0.7,0.4,1.3,0.9,1.6,1.6c0.4,0.7,0.6,1.5,0.6,2.3
	c0,0.3,0,0.9,0,1.7s0,1.3,0,1.6c0,1.2-0.5,2.4-1.3,3.2C127.5,30.2,124.5,30.2,122.4,28.5L122.4,28.5z M127.2,26.7
	c0.3-0.4,0.4-0.9,0.4-1.5c0-0.3,0-0.9,0-1.6s0-1.3,0-1.6c0-0.5-0.1-1-0.4-1.5c-0.3-0.4-0.7-0.6-1.2-0.5c-1,0-1.6,0.7-1.6,2
	c0,0.3,0,0.8,0,1.6s0,1.3,0,1.6c0,1.3,0.6,2,1.6,2C126.4,27.3,126.9,27.1,127.2,26.7z"/>
<path class="st1" d="M134,28.5c-0.8-0.9-1.3-2-1.3-3.2c0-0.6,0-1.2,0-1.6s0-1.1,0-1.7c0-0.8,0.2-1.6,0.6-2.3c0.4-0.7,1-1.2,1.7-1.6
	c1.7-0.8,3.6-0.8,5.3,0c0.7,0.4,1.3,0.9,1.7,1.6s0.6,1.5,0.6,2.3c0,0.3,0,0.9,0,1.7s0,1.3,0,1.6c0,1.2-0.5,2.4-1.3,3.2
	c-1,0.9-2.3,1.3-3.6,1.2C136.3,29.9,135,29.4,134,28.5z M138.8,26.7c0.3-0.4,0.4-0.9,0.4-1.5c0-0.3,0-0.9,0-1.6s0-1.3,0-1.6
	c0-0.5-0.1-1-0.4-1.5c-0.3-0.4-0.7-0.6-1.2-0.5c-1,0-1.6,0.7-1.6,2c0,0.3,0,0.8,0,1.6s0,1.3,0,1.6c0.1,1.3,0.6,2,1.6,2
	C138,27.3,138.5,27.1,138.8,26.7L138.8,26.7z"/>
<path class="st1" d="M22.8,50.1c-0.1-0.1-0.1-0.2-0.1-0.3v-11c0-0.1,0-0.2,0.1-0.3s0.2-0.1,0.3-0.1h2.4c0.2,0,0.4,0.2,0.4,0.4l0,0
	v11c0,0.1,0,0.2-0.1,0.3s-0.2,0.1-0.3,0.1h-2.4C23,50.3,22.9,50.2,22.8,50.1z"/>
<path class="st1" d="M28.2,50.1c-0.1-0.1-0.1-0.2-0.1-0.3v-8c0-0.1,0-0.2,0.1-0.3s0.2-0.1,0.3-0.1h2.1c0.1,0,0.2,0,0.3,0.1
	c0.1,0.1,0.1,0.2,0.1,0.3v0.6c0.3-0.4,0.7-0.7,1.2-0.9s1.1-0.3,1.7-0.3c0.6,0,1.2,0.1,1.7,0.5c0.5,0.3,0.9,0.8,1.2,1.3
	c0.3,0.7,0.5,1.4,0.4,2.1v4.7c0,0.1,0,0.2-0.1,0.3s-0.2,0.1-0.3,0.1h-2.3c-0.1,0-0.2,0-0.3-0.1s-0.1-0.2-0.1-0.3v-4.6
	c0-0.4-0.1-0.9-0.4-1.2c-0.3-0.3-0.7-0.4-1.1-0.4c-0.4,0-0.8,0.1-1.1,0.4c-0.3,0.3-0.4,0.7-0.4,1.2v4.6c0,0.1,0,0.2-0.1,0.3
	s-0.2,0.1-0.3,0.1h-2.3C28.4,50.2,28.3,50.2,28.2,50.1z"/>
<path class="st1" d="M39.8,49.4c-0.7-0.8-1-1.9-1-3v-1.2c0-1.1,0.3-2.1,1-2.9c0.7-0.7,1.6-1.1,2.6-1.1c0.9,0,1.8,0.3,2.5,1v-3.6
	c0-0.2,0.2-0.4,0.4-0.4l0,0h2.2c0.1,0,0.2,0,0.3,0.1s0.1,0.2,0.1,0.3v11.2c0,0.1,0,0.2-0.1,0.3s-0.2,0.1-0.3,0.1h-2
	c-0.1,0-0.2,0-0.3-0.1c-0.1,0-0.2-0.1-0.2-0.3v-0.5c-0.7,0.8-1.6,1.2-2.6,1.1C41.4,50.5,40.5,50.1,39.8,49.4z M44.4,47.6
	c0.3-0.3,0.4-0.8,0.4-1.2c0-0.3,0-0.5,0-0.6s0-0.3,0-0.6c0-0.4-0.1-0.8-0.4-1.1c-0.3-0.3-0.7-0.5-1.1-0.4c-0.4,0-0.8,0.1-1.1,0.5
	c-0.2,0.4-0.4,0.8-0.4,1.2v1c0,0.4,0.1,0.9,0.4,1.2C42.9,48.2,43.8,48.2,44.4,47.6L44.4,47.6L44.4,47.6z"/>
<path class="st1" d="M50.7,49.3c-0.8-0.9-1.3-2-1.2-3.2v-0.5c-0.1-2.3,1.7-4.2,3.9-4.3c0.2,0,0.4,0,0.6,0c0.9,0,1.7,0.2,2.5,0.6
	c0.7,0.4,1.2,0.9,1.5,1.6c0.3,0.7,0.5,1.5,0.5,2.3v0.4c0,0.2-0.2,0.4-0.4,0.4h-5.4v0.1c0,0.4,0.1,0.9,0.4,1.2c0.2,0.3,0.6,0.5,1,0.5
	c0.2,0,0.5,0,0.7-0.2c0.2-0.1,0.3-0.3,0.5-0.4c0.1-0.1,0.2-0.2,0.2-0.2c0.1,0,0.2,0,0.3,0H58c0.1,0,0.2,0,0.3,0.1s0.1,0.1,0.1,0.2
	c0,0.4-0.2,0.7-0.5,1c-0.4,0.4-0.9,0.8-1.5,1c-0.7,0.3-1.5,0.4-2.3,0.4C52.8,50.5,51.6,50.1,50.7,49.3z M55.3,44.9L55.3,44.9
	c0-0.5-0.1-0.9-0.3-1.3c-0.2-0.3-0.6-0.5-1-0.5s-0.8,0.1-1,0.5c-0.3,0.4-0.4,0.8-0.3,1.3l0,0H55.3z"/>
<path class="st1" d="M59.1,50.2C59,50.1,58.9,50,59,49.9c0-0.1,0-0.2,0.1-0.2l2.8-3.9l-2.6-3.7c-0.1-0.1-0.1-0.2-0.1-0.2
	c0-0.1,0-0.2,0.1-0.3s0.2-0.1,0.3-0.1h2.2c0.1,0,0.2,0,0.3,0.1s0.1,0.1,0.2,0.2l1.5,2.1l1.5-2.1l0.1-0.1c0-0.1,0.1-0.1,0.2-0.2
	c0.1,0,0.2-0.1,0.2-0.1h2.1c0.1,0,0.2,0,0.3,0.1c0.1,0.1,0.1,0.2,0.1,0.3s0,0.2-0.1,0.3l-2.6,3.7l2.9,3.9c0.1,0.1,0.1,0.2,0.1,0.2
	c0,0.1,0,0.2-0.1,0.3s-0.2,0.1-0.3,0.1h-2.3c-0.2,0-0.4-0.1-0.5-0.3l-1.7-2.2L62.1,50c-0.1,0.1-0.1,0.2-0.2,0.2
	c-0.1,0-0.2,0.1-0.3,0.1h-2.2C59.2,50.3,59.1,50.2,59.1,50.2z"/>
<path class="st1" d="M73.7,50.1c-0.1-0.1-0.1-0.2-0.1-0.3v-11c0-0.1,0-0.2,0.1-0.3s0.2-0.1,0.3-0.1h7.9c0.2,0,0.4,0.2,0.4,0.4l0,0
	v1.8c0,0.1,0,0.2-0.1,0.3S82,41,81.9,41h-5.2v2.3h4.9c0.1,0,0.2,0,0.3,0.1c0.1,0.1,0.1,0.2,0.1,0.3v1.8c0,0.1,0,0.2-0.1,0.3
	s-0.2,0.1-0.3,0.1h-4.9v3.8c0,0.1,0,0.2-0.1,0.3s-0.2,0.1-0.3,0.1H74C73.9,50.3,73.7,50.2,73.7,50.1z"/>
<path class="st1" d="M84.7,49.4c-0.7-0.8-1-1.8-0.9-2.8v-4.7c0-0.1,0-0.2,0.1-0.3s0.2-0.1,0.3-0.1h2.3c0.1,0,0.2,0,0.3,0.1
	c0.1,0.1,0.1,0.2,0.1,0.3v4.6c0,1,0.5,1.6,1.4,1.6c0.4,0,0.8-0.1,1.1-0.4c0.3-0.3,0.4-0.7,0.4-1.2v-4.6c0-0.1,0-0.2,0.1-0.3
	s0.2-0.1,0.3-0.1h2.2c0.1,0,0.2,0,0.3,0.1c0.1,0.1,0.1,0.2,0.1,0.3v8c0,0.1,0,0.2-0.1,0.3s-0.2,0.1-0.3,0.1h-2.1
	c-0.1,0-0.2,0-0.3-0.1c-0.1-0.1-0.1-0.2-0.1-0.3v-0.7c-0.7,0.9-1.7,1.3-2.8,1.2C86.2,50.5,85.3,50.1,84.7,49.4z"/>
<path class="st1" d="M94.9,50.1c-0.1-0.1-0.1-0.2-0.1-0.3v-8c0-0.2,0.2-0.4,0.4-0.4l0,0h2.1c0.1,0,0.2,0,0.3,0.1
	c0.1,0.1,0.1,0.2,0.1,0.3v0.6c0.3-0.4,0.7-0.7,1.2-0.9s1.1-0.3,1.7-0.3s1.2,0.1,1.7,0.5c0.5,0.3,0.9,0.8,1.2,1.3
	c0.3,0.7,0.5,1.4,0.4,2.1v4.7c0,0.1,0,0.2-0.1,0.3s-0.2,0.1-0.3,0.1h-2.3c-0.1,0-0.2,0-0.3-0.1c-0.1-0.1-0.1-0.2-0.1-0.3v-4.6
	c0-0.4-0.1-0.8-0.4-1.2c-0.3-0.3-0.7-0.4-1.1-0.4s-0.8,0.1-1.1,0.4c-0.3,0.3-0.4,0.7-0.4,1.2v4.6c0,0.1,0,0.2-0.1,0.3
	s-0.2,0.1-0.3,0.1h-2.3C95.1,50.3,95,50.2,94.9,50.1z"/>
<path class="st1" d="M106.5,49.4c-0.7-0.8-1-1.9-1-3v-0.6v-0.6c0-1.1,0.3-2.1,1-2.9c1.4-1.4,3.6-1.4,5.1-0.1v-3.6
	c0-0.1,0-0.2,0.1-0.3s0.2-0.1,0.3-0.1h2.2c0.1,0,0.2,0,0.3,0.1c0.1,0.1,0.1,0.2,0.1,0.3v11.2c0,0.1,0,0.2-0.1,0.3s-0.2,0.1-0.3,0.1
	h-2c-0.2,0-0.4-0.2-0.4-0.4l0,0v-0.5c-0.7,0.8-1.6,1.2-2.6,1.1C108.1,50.5,107.2,50.1,106.5,49.4z M111.2,47.6
	c0.2-0.3,0.4-0.8,0.4-1.2c0-0.3,0-0.5,0-0.6s0-0.3,0-0.6c0-0.4-0.2-0.8-0.4-1.1c-0.3-0.3-0.7-0.5-1.1-0.4c-0.4,0-0.8,0.1-1.1,0.5
	c-0.2,0.4-0.4,0.8-0.4,1.2v0.5v0.5c0,0.4,0.1,0.9,0.4,1.2s0.7,0.5,1.1,0.5C110.5,48.1,110.9,47.9,111.2,47.6z"/>
<path class="st2" d="M23.8,69.6c-0.5-0.2-0.9-0.5-1.3-0.9c-0.3-0.4-0.4-0.8-0.5-1.2c0-0.1,0-0.1,0.1-0.2s0.1-0.1,0.2-0.1H23
	c0.2,0,0.3,0.1,0.3,0.3c0.1,0.4,0.4,0.8,0.7,1c0.5,0.3,1.1,0.5,1.7,0.4c0.6,0,1.2-0.1,1.7-0.4c0.4-0.3,0.6-0.7,0.6-1.1
	c0-0.3-0.1-0.6-0.3-0.8c-0.2-0.2-0.5-0.4-0.8-0.5c-0.4-0.2-0.9-0.3-1.7-0.6c-0.6-0.2-1.1-0.4-1.7-0.7c-0.4-0.2-0.7-0.5-0.9-0.8
	c-0.2-0.4-0.3-0.8-0.3-1.3s0.1-0.9,0.4-1.3c0.3-0.4,0.7-0.7,1.2-0.9c0.6-0.2,1.2-0.4,1.8-0.4c0.6,0,1.3,0.1,1.8,0.4
	c0.5,0.2,0.9,0.6,1.2,1c0.3,0.3,0.4,0.7,0.4,1.2c0,0.1,0,0.1-0.1,0.2C28.9,63,28.9,63,28.8,63h-0.7c-0.1,0-0.1,0-0.2-0.1
	s-0.1-0.1-0.1-0.2c-0.1-0.4-0.3-0.8-0.7-1c-0.4-0.3-0.9-0.4-1.4-0.4s-1,0.1-1.5,0.4c-0.6,0.4-0.7,1.3-0.3,1.9
	c0.2,0.2,0.5,0.4,0.8,0.5c0.5,0.2,1,0.4,1.5,0.5c0.6,0.2,1.2,0.4,1.8,0.7c0.4,0.2,0.7,0.5,1,0.8c0.2,0.4,0.3,0.8,0.3,1.3
	c0,0.8-0.3,1.5-1,2c-0.8,0.5-1.7,0.8-2.6,0.7C25.1,69.9,24.5,69.8,23.8,69.6z"/>
<path class="st2" d="M31.3,69.7c-0.1-0.1-0.1-0.1-0.1-0.2v-9c0-0.1,0-0.2,0.1-0.2c0.1-0.1,0.1-0.1,0.2-0.1h0.7c0.1,0,0.2,0,0.2,0.1
	c0.1,0.1,0.1,0.1,0.1,0.2v9c0,0.2-0.1,0.3-0.3,0.3h-0.7C31.5,69.8,31.4,69.8,31.3,69.7z"/>
<path class="st2" d="M35,69.7c-0.1-0.1-0.1-0.1-0.1-0.2v-9c0-0.1,0-0.2,0.1-0.2c0.1-0.1,0.1-0.1,0.2-0.1h3.5
	c0.9-0.1,1.7,0.2,2.4,0.8c1.2,1.2,1.2,3.1,0,4.3c-0.7,0.5-1.6,0.8-2.4,0.7h-2.4v3.5c0,0.2-0.1,0.3-0.3,0.3h-0.7
	C35.2,69.8,35.1,69.8,35,69.7z M38.6,64.9c1.4,0,2.1-0.6,2.1-1.8c0-0.5-0.2-1-0.5-1.3c-0.4-0.3-1-0.5-1.6-0.5h-2.4v3.6H38.6z"/>
<path class="st2" d="M47.5,69.6c-0.4-0.2-0.7-0.4-1-0.7c-0.2-0.2-0.3-0.4-0.3-0.7c0-0.1,0-0.2,0.1-0.2s0.2,0,0.2,0h0.6h0.1l0.1,0.1
	c0.2,0.2,0.4,0.4,0.7,0.6s0.7,0.2,1,0.2c0.4,0,0.8-0.1,1.2-0.3c0.3-0.2,0.5-0.5,0.5-0.8c0-0.2-0.1-0.4-0.2-0.6
	c-0.2-0.2-0.4-0.3-0.6-0.4c-0.4-0.1-0.9-0.3-1.3-0.4c-0.6-0.1-1.2-0.3-1.7-0.8c-0.3-0.3-0.5-0.8-0.5-1.3c0-0.4,0.1-0.7,0.3-1
	s0.5-0.6,0.9-0.8s0.9-0.3,1.4-0.3s1,0.1,1.5,0.3c0.4,0.1,0.7,0.4,0.9,0.7c0.2,0.2,0.3,0.4,0.3,0.6c0,0.1,0,0.2-0.1,0.2
	c-0.1,0.1-0.1,0.1-0.2,0.1h-0.5c-0.1,0-0.2,0-0.3-0.2c-0.2-0.2-0.3-0.3-0.4-0.4c-0.1-0.1-0.3-0.2-0.5-0.2c-0.2-0.1-0.5-0.1-0.8-0.1
	c-0.4,0-0.7,0.1-1,0.3c-0.2,0.2-0.4,0.5-0.3,0.8c0,0.2,0,0.3,0.2,0.5s0.3,0.3,0.6,0.4c0.4,0.2,0.8,0.3,1.3,0.3
	c0.7,0.1,1.3,0.4,1.8,0.8c0.4,0.3,0.6,0.8,0.5,1.3c0,0.4-0.1,0.8-0.3,1.1c-0.3,0.3-0.6,0.6-1,0.8c-0.5,0.2-1,0.3-1.6,0.3
	C48.5,69.9,48,69.8,47.5,69.6z"/>
<path class="st2" d="M54.2,67.4v-3.7h-1.1c-0.1,0-0.2,0-0.2-0.1c-0.1-0.1-0.1-0.1-0.1-0.2V63c0-0.1,0-0.2,0.1-0.2
	c0.1-0.1,0.1-0.1,0.2-0.1h1.1v-2.3c0-0.1,0-0.2,0.1-0.2c0.1-0.1,0.1-0.1,0.2-0.1h0.6c0.1,0,0.2,0,0.2,0.1c0.1,0.1,0.1,0.1,0.1,0.2
	v2.3h1.7c0.2,0,0.3,0.1,0.3,0.2c0,0,0,0,0,0.1v0.4c0,0.1,0,0.2-0.1,0.2c-0.1,0.1-0.1,0.1-0.2,0.1h-1.7v3.6c0,0.4,0.1,0.7,0.2,1.1
	c0.2,0.3,0.5,0.4,0.8,0.4h0.8c0.1,0,0.2,0,0.2,0.1c0.1,0.1,0.1,0.1,0.1,0.2v0.5c0,0.1,0,0.2-0.1,0.2c-0.1,0.1-0.1,0.1-0.2,0.1h-0.9
	C54.9,69.8,54.2,69,54.2,67.4z"/>
<path class="st2" d="M59.7,69.7c-0.4-0.2-0.7-0.4-0.9-0.8c-0.2-0.3-0.3-0.7-0.3-1.1c0-0.6,0.3-1.1,0.8-1.5c0.6-0.4,1.3-0.7,2-0.8
	l2.1-0.3v-0.4c0-0.9-0.5-1.4-1.6-1.4c-0.4,0-0.7,0.1-1,0.2c-0.2,0.2-0.4,0.4-0.6,0.6c0,0.1-0.1,0.1-0.1,0.2c-0.1,0-0.1,0-0.2,0h-0.5
	c-0.1,0-0.2,0-0.2-0.1c-0.1-0.1-0.1-0.1-0.1-0.2c0-0.3,0.1-0.5,0.3-0.7c0.2-0.3,0.6-0.6,0.9-0.7c0.5-0.2,1-0.3,1.5-0.3
	c0.8-0.1,1.6,0.2,2.2,0.7c0.5,0.5,0.7,1.2,0.7,1.8v4.5c0,0.2-0.1,0.3-0.3,0.3h-0.6c-0.1,0-0.2,0-0.2-0.1c-0.1-0.1-0.1-0.1-0.1-0.2
	v-0.6c-0.2,0.3-0.5,0.6-0.9,0.8c-0.5,0.2-1,0.3-1.5,0.3C60.5,69.9,60,69.8,59.7,69.7z M62.7,68.3c0.4-0.5,0.6-1.1,0.6-1.7v-0.4
	l-1.6,0.2c-0.5,0-1,0.2-1.5,0.5c-0.3,0.2-0.5,0.5-0.5,0.8c0,0.4,0.2,0.7,0.5,0.9c0.3,0.2,0.7,0.3,1.1,0.3
	C61.7,68.9,62.3,68.7,62.7,68.3z"/>
<path class="st2" d="M66.6,69.7c-0.1-0.1-0.1-0.1-0.1-0.2V63c0-0.1,0-0.2,0.1-0.2c0.1-0.1,0.1-0.1,0.2-0.1h0.6c0.1,0,0.2,0,0.2,0.1
	c0.1,0.1,0.1,0.2,0.1,0.2v0.6c0.4-0.6,1.2-1,1.9-0.9h0.5c0.1,0,0.2,0,0.2,0.1c0.1,0.1,0.1,0.1,0.1,0.2v0.5c0,0.1,0,0.2-0.1,0.2
	c-0.1,0.1-0.1,0.1-0.2,0.1h-0.8c-0.4,0-0.9,0.1-1.2,0.4c-0.3,0.3-0.5,0.8-0.4,1.2v4c0,0.1,0,0.2-0.1,0.2c-0.1,0.1-0.1,0.1-0.2,0.1
	h-0.6C66.7,69.8,66.6,69.7,66.6,69.7z"/>
<path class="st2" d="M72.2,67.4v-3.7h-1.1c-0.1,0-0.2,0-0.2-0.1c-0.1-0.1-0.1-0.1-0.1-0.2V63c0-0.1,0-0.2,0.1-0.2
	c0.1-0.1,0.1-0.1,0.2-0.1h1.1v-2.3c0-0.1,0-0.2,0.1-0.2c0.1-0.1,0.1-0.1,0.2-0.1h0.6c0.2,0,0.3,0.1,0.3,0.3v2.3h1.7
	c0.1,0,0.2,0,0.2,0.1c0.1,0.1,0.1,0.1,0.1,0.2v0.4c0,0.1,0,0.2-0.1,0.2c-0.1,0.1-0.1,0.1-0.2,0.1h-1.7v3.6c0,0.4,0.1,0.7,0.2,1.1
	c0.2,0.3,0.5,0.4,0.8,0.4h0.8c0.1,0,0.2,0,0.2,0.1c0.1,0.1,0.1,0.1,0.1,0.2v0.5c0,0.1,0,0.2-0.1,0.2c-0.1,0.1-0.1,0.1-0.2,0.1h-0.9
	C73,69.8,72.2,69,72.2,67.4z"/>
<path class="st2" d="M77.8,69.6c-0.4-0.2-0.7-0.4-1-0.7c-0.2-0.2-0.3-0.4-0.3-0.7c0-0.1,0-0.2,0.1-0.2s0.1-0.1,0.2-0.1h0.6h0.1
	l0.1,0.1c0.2,0.2,0.4,0.4,0.7,0.6c0.3,0.2,0.7,0.2,1,0.2c0.4,0,0.8-0.1,1.2-0.3c0.3-0.2,0.5-0.5,0.4-0.8c0-0.2-0.1-0.4-0.2-0.6
	c-0.2-0.2-0.4-0.3-0.6-0.4c-0.4-0.1-0.9-0.3-1.3-0.4c-0.6-0.1-1.2-0.3-1.7-0.8c-0.3-0.3-0.5-0.8-0.5-1.3c0-0.4,0.1-0.7,0.3-1
	c0.2-0.3,0.5-0.6,0.9-0.8s0.9-0.3,1.4-0.3s1,0.1,1.5,0.3c0.4,0.1,0.7,0.4,0.9,0.7c0.2,0.2,0.3,0.4,0.3,0.6c0,0.1,0,0.2-0.1,0.2
	C81.7,64,81.7,64,81.6,64h-0.5c-0.1,0-0.2-0.1-0.3-0.2c-0.2-0.2-0.3-0.3-0.4-0.4c-0.1-0.1-0.3-0.2-0.5-0.2c-0.2-0.1-0.5-0.1-0.8-0.1
	c-0.4,0-0.7,0.1-1,0.3c-0.2,0.2-0.4,0.5-0.3,0.8c0,0.2,0,0.3,0.2,0.5s0.3,0.3,0.6,0.4c0.4,0.2,0.8,0.3,1.3,0.3
	c0.7,0.1,1.3,0.4,1.8,0.8c0.4,0.3,0.6,0.8,0.6,1.3c0,0.4-0.1,0.8-0.3,1.1c-0.3,0.3-0.6,0.6-1,0.8c-0.5,0.2-1,0.3-1.6,0.3
	C78.9,69.9,78.3,69.8,77.8,69.6z"/>
<path class="st2" d="M88,69.7c-0.4-0.2-0.7-0.4-0.9-0.8c-0.2-0.3-0.3-0.7-0.3-1.1c0-0.6,0.3-1.1,0.7-1.5c0.6-0.4,1.3-0.7,2-0.8
	l2.1-0.3v-0.4c0-0.9-0.6-1.4-1.6-1.4c-0.4,0-0.7,0.1-1,0.2c-0.2,0.1-0.4,0.4-0.6,0.6c0,0.1-0.1,0.1-0.1,0.2c-0.1,0-0.1,0-0.2,0h-0.5
	c-0.2,0-0.3-0.1-0.3-0.3c0-0.3,0.1-0.5,0.3-0.7c0.2-0.3,0.6-0.6,0.9-0.7c0.5-0.2,1-0.3,1.6-0.3c0.8-0.1,1.6,0.2,2.2,0.7
	c0.4,0.5,0.7,1.1,0.7,1.8v4.5c0,0.1,0,0.2-0.1,0.2c-0.1,0.1-0.1,0.1-0.2,0.1H92c-0.1,0-0.2,0-0.2-0.1c-0.1-0.1-0.1-0.1-0.1-0.2v-0.6
	c-0.2,0.3-0.5,0.6-0.9,0.8c-0.5,0.2-1,0.3-1.5,0.3C88.9,69.9,88.4,69.8,88,69.7z M91,68.3c0.4-0.5,0.6-1.1,0.6-1.7v-0.4L90,66.5
	c-0.5,0-1,0.2-1.5,0.5c-0.3,0.2-0.5,0.5-0.5,0.8c0,0.4,0.2,0.7,0.5,0.9c0.3,0.2,0.7,0.3,1.1,0.3C90.1,68.9,90.6,68.7,91,68.3z"/>
<path class="st2" d="M95.4,67.4v-3.7h-1.1c-0.1,0-0.2,0-0.2-0.1c-0.1,0-0.1-0.1-0.1-0.2V63c0-0.1,0-0.2,0.1-0.2
	c0.1-0.1,0.1-0.1,0.2-0.1h1.1v-2.3c0-0.1,0-0.2,0.1-0.2c0.1-0.1,0.1-0.1,0.2-0.1h0.6c0.1,0,0.2,0,0.2,0.1c0.1,0.1,0.1,0.1,0.1,0.2
	v2.3h1.7c0.1,0,0.2,0,0.2,0.1c0.1,0.1,0.1,0.1,0.1,0.2v0.4c0,0.1,0,0.2-0.1,0.2c-0.1,0.1-0.1,0.1-0.2,0.1h-1.7v3.6
	c0,0.4,0.1,0.7,0.2,1.1c0.2,0.3,0.5,0.4,0.8,0.4h0.8c0.1,0,0.2,0,0.2,0.1c0.1,0.1,0.1,0.1,0.1,0.2v0.5c0,0.1,0,0.2-0.1,0.2
	c-0.1,0.1-0.1,0.1-0.2,0.1h-0.9C96.1,69.8,95.4,69,95.4,67.4z"/>
<path class="st2" d="M109.1,61.4h-2.3c0.4,0.3,0.7,0.8,0.8,1.4h1.5v0.7h-1.5c-0.1,1.4-1.2,2.3-3,2.4c1.1,1.1,2.2,2.5,3.4,3.9h-1.3
	c-1.1-1.3-2.1-2.5-3.4-3.9v-0.8h0.7c1.5,0,2.3-0.6,2.4-1.6h-3.1v-0.7h3.1c-0.2-0.8-0.9-1.2-2.1-1.2h-1v-0.9h5.8V61.4z"/>
<path class="st2" d="M113.1,69.7c-0.1-0.1-0.1-0.1-0.1-0.2v-7.7l-2.3,1.8c-0.1,0-0.1,0.1-0.2,0.1s-0.2-0.1-0.2-0.1l-0.3-0.4
	c0-0.1-0.1-0.1-0.1-0.2c0-0.1,0-0.2,0.1-0.2l3-2.3c0.1-0.1,0.2-0.1,0.4-0.1h0.7c0.1,0,0.2,0,0.2,0.1c0.1,0.1,0.1,0.1,0.1,0.2v9
	c0,0.1,0,0.2-0.1,0.2c-0.1,0.1-0.1,0.1-0.2,0.1h-0.7C113.2,69.8,113.1,69.8,113.1,69.7z"/>
<path class="st2" d="M117.1,68.9c-0.6-0.8-0.9-1.7-0.9-2.7v-2.4c0-1,0.3-1.9,0.9-2.7c1.5-1.4,3.7-1.4,5.2,0c0.6,0.8,0.9,1.7,0.9,2.7
	c0,0.3,0,0.7,0,1.2s0,0.9,0,1.2c0,1-0.3,1.9-0.9,2.7C120.8,70.3,118.5,70.3,117.1,68.9z M121.3,68.1c0.4-0.6,0.6-1.3,0.6-2
	c0-0.3,0-0.6,0-1.1s0-0.9,0-1.1c0-0.7-0.2-1.4-0.6-2c-0.8-0.9-2.1-1-3-0.2c-0.1,0.1-0.1,0.1-0.2,0.2c-0.4,0.6-0.6,1.3-0.6,2v2.3
	c0,0.7,0.2,1.4,0.6,2c0.8,0.9,2.2,0.9,3.1,0.1C121.2,68.2,121.2,68.1,121.3,68.1L121.3,68.1z"/>
<path class="st2" d="M125.8,68.9c-0.6-0.8-0.9-1.7-0.9-2.7v-2.4c0-1,0.3-1.9,0.9-2.7c1.5-1.4,3.7-1.4,5.2,0c0.6,0.8,0.9,1.7,0.9,2.7
	c0,0.3,0,0.7,0,1.2s0,0.9,0,1.2c0,1-0.3,1.9-0.9,2.7C129.5,70.3,127.2,70.3,125.8,68.9z M129.9,68.1c0.4-0.6,0.6-1.3,0.6-2
	c0-0.3,0-0.6,0-1.1s0-0.9,0-1.1c0-0.7-0.2-1.4-0.6-2c-0.8-0.9-2.1-1-3-0.2c-0.1,0.1-0.1,0.1-0.2,0.2c-0.4,0.6-0.6,1.3-0.6,2v2.3
	c0,0.7,0.2,1.4,0.6,2c0.8,0.9,2.1,0.9,3,0.1C129.9,68.2,129.9,68.2,129.9,68.1L129.9,68.1z"/>
<path class="st3" d="M23.5,77.9h90.7c1.5,0,2.8,1.2,2.8,2.8v21.6c0,1.5-1.2,2.8-2.8,2.8H23.5c-1.5,0-2.8-1.2-2.8-2.8V80.7
	C20.7,79.2,22,77.9,23.5,77.9z"/>
<path class="st1" d="M39,94.7c-0.1-0.1-0.1-0.1-0.1-0.2V87c0-0.1,0-0.1,0.1-0.2c0.1,0,0.1-0.1,0.2-0.1h1.1c0.1,0,0.1,0,0.2,0.1
	c0.1,0.1,0.1,0.1,0.1,0.2v7.6c0,0.1-0.1,0.3-0.3,0.3l0,0h-1.1C39.1,94.8,39,94.8,39,94.7z"/>
<path class="st1" d="M42.3,94.7c-0.1-0.1-0.1-0.1-0.1-0.2V89c0-0.1,0-0.1,0.1-0.2s0.1-0.1,0.2-0.1h1c0.1,0,0.1,0,0.2,0.1
	c0,0.1,0.1,0.1,0.1,0.2v0.5c0.5-0.6,1.2-0.9,1.9-0.9c0.6,0,1.3,0.2,1.7,0.7s0.6,1.2,0.6,1.9v3.2c0,0.1-0.1,0.3-0.3,0.3l0,0h-1
	c-0.1,0-0.3-0.1-0.3-0.3l0,0v-3.2c0-0.4-0.1-0.7-0.3-1c-0.3-0.3-0.6-0.4-1-0.4s-0.7,0.1-1,0.4c-0.2,0.3-0.4,0.6-0.4,1v3.2
	c0,0.1,0,0.1-0.1,0.2s-0.1,0.1-0.2,0.1h-1C42.5,94.8,42.4,94.8,42.3,94.7z"/>
<path class="st1" d="M51.2,94.7c-0.1-0.1-0.1-0.1-0.2-0.2l-2.2-5.4V89c0-0.1,0-0.1,0.1-0.2c0,0,0.1-0.1,0.2-0.1h1
	c0.1,0,0.3,0.1,0.3,0.2l1.5,4l1.5-4c0-0.1,0.1-0.1,0.1-0.2c0.1,0,0.1-0.1,0.2-0.1h1c0.1,0,0.1,0,0.2,0.1c0,0.1,0.1,0.1,0.1,0.2V89
	l-2.2,5.4c-0.1,0.2-0.2,0.3-0.4,0.3h-0.9C51.4,94.8,51.3,94.8,51.2,94.7z"/>
<path class="st1" d="M56.3,94.2c-0.5-0.6-0.8-1.3-0.8-2.1v-0.3c0-0.8,0.2-1.6,0.8-2.3c1.2-1.1,3-1.1,4.2,0c0.5,0.6,0.8,1.4,0.7,2.2
	V92c0,0.1,0,0.1-0.1,0.2s-0.1,0.1-0.2,0.1H57v0.1c0,0.4,0.1,0.8,0.4,1.1c0.2,0.3,0.6,0.4,0.9,0.4c0.4,0,0.8-0.2,1.1-0.5
	c0-0.1,0.1-0.1,0.2-0.2c0.1,0,0.1,0,0.2,0h1c0.1,0,0.1,0,0.2,0.1c0.1,0,0.1,0.1,0.1,0.2c0,0.2-0.1,0.5-0.3,0.7
	c-0.3,0.3-0.6,0.5-0.9,0.7c-0.5,0.2-0.9,0.3-1.4,0.3C57.6,95,56.9,94.7,56.3,94.2z M59.6,91.2L59.6,91.2c0-0.4-0.1-0.8-0.3-1.1
	c-0.2-0.3-0.6-0.4-0.9-0.4c-0.4,0-0.7,0.1-0.9,0.4s-0.4,0.7-0.3,1.1l0,0H59.6z"/>
<path class="st1" d="M63.3,94.7c-0.3-0.1-0.6-0.3-0.9-0.6c-0.2-0.2-0.3-0.4-0.3-0.6c0-0.1,0-0.1,0.1-0.2c0,0,0.1-0.1,0.2-0.1h1
	c0.1,0,0.1,0,0.2,0.1c0.1,0.1,0.2,0.1,0.3,0.2s0.3,0.2,0.5,0.3c0.2,0.1,0.4,0.1,0.6,0.1c0.3,0,0.5-0.1,0.8-0.2
	c0.2-0.1,0.3-0.3,0.3-0.5c0-0.1,0-0.3-0.1-0.4s-0.3-0.2-0.5-0.3c-0.3-0.1-0.7-0.2-1-0.3c-0.5-0.1-1-0.3-1.5-0.6
	c-0.3-0.3-0.5-0.7-0.5-1.1c0-0.3,0.1-0.6,0.3-0.9s0.5-0.5,0.8-0.7c0.4-0.2,0.9-0.3,1.3-0.3c0.5,0,0.9,0.1,1.4,0.2
	c0.3,0.1,0.6,0.3,0.9,0.6c0.2,0.2,0.3,0.4,0.3,0.6c0,0.1,0,0.1-0.1,0.2c0,0-0.1,0.1-0.2,0.1h-0.9c-0.1,0-0.2,0-0.2-0.1L65.8,90
	c-0.1-0.1-0.3-0.2-0.4-0.2c-0.2-0.1-0.3-0.1-0.5-0.1s-0.5,0.1-0.7,0.2S64,90.2,64,90.4c0,0.1,0,0.2,0.1,0.3c0.1,0.1,0.3,0.2,0.4,0.3
	c0.3,0.1,0.7,0.2,1,0.2c1.4,0.3,2.1,0.9,2.1,1.8c0,0.5-0.3,1-0.7,1.3c-0.6,0.4-1.3,0.6-2,0.5C64.3,94.9,63.8,94.8,63.3,94.7z"/>
<path class="st1" d="M69.8,94.2c-0.4-0.4-0.6-1-0.5-1.6V90h-0.9c-0.1,0-0.1,0-0.2-0.1s-0.1-0.1-0.1-0.2V89c0-0.1,0-0.1,0.1-0.2
	s0.1-0.1,0.2-0.1h0.9v-1.9c0-0.1,0-0.1,0.1-0.2s0.1-0.1,0.2-0.1h1c0.1,0,0.2,0,0.2,0.1c0.1,0.1,0.1,0.1,0.1,0.2v1.9h1.4
	c0.1,0,0.3,0.1,0.3,0.3l0,0v0.7c0,0.1,0,0.1-0.1,0.2C72.3,90,72.3,90,72.2,90h-1.4v2.5c0,0.3,0,0.5,0.2,0.8c0.1,0.2,0.3,0.3,0.6,0.2
	h0.8c0.1,0,0.2,0,0.2,0.1s0.1,0.1,0.1,0.2v0.7c0,0.1,0,0.1-0.1,0.2s-0.1,0.1-0.2,0.1h-1C70.7,94.8,70.2,94.6,69.8,94.2z"/>
<path class="st1" d="M76.5,94.7c-0.1-0.1-0.1-0.1-0.1-0.2V87c0-0.1,0-0.2,0.1-0.2c0.1-0.1,0.1-0.1,0.2-0.1h0.9
	c0.1,0,0.3,0.1,0.3,0.2l3.3,5.1v-5c0-0.1,0-0.2,0.1-0.2c0-0.1,0.1-0.1,0.2-0.1h1c0.1,0,0.1,0,0.2,0.1s0.1,0.1,0.1,0.2v7.5
	c0,0.1,0,0.2-0.1,0.2c-0.1,0.1-0.1,0.1-0.2,0.1h-0.9c-0.1,0-0.3-0.1-0.3-0.2l-3.3-5v5c0,0.1,0,0.1-0.1,0.2s-0.1,0.1-0.2,0.1h-1
	C76.6,94.9,76.5,94.8,76.5,94.7z"/>
<path class="st1" d="M85,94.2c-0.5-0.5-0.8-1.2-0.8-1.9v-1c0-0.7,0.3-1.4,0.8-1.9c1.2-0.9,2.9-0.9,4.2,0c0.5,0.5,0.8,1.2,0.8,1.9
	c0,0.1,0,0.3,0,0.5s0,0.4,0,0.5c0,0.7-0.3,1.4-0.8,1.9c-0.6,0.5-1.3,0.8-2.1,0.7C86.3,95,85.6,94.7,85,94.2z M88.1,93.4
	c0.2-0.3,0.4-0.7,0.3-1.1c0-0.1,0-0.2,0-0.4s0-0.4,0-0.5c0-0.4-0.1-0.8-0.4-1.1c-0.2-0.3-0.6-0.4-0.9-0.4c-0.4,0-0.7,0.1-0.9,0.4
	c-0.2,0.3-0.4,0.7-0.4,1.1v0.9c0,0.4,0.1,0.8,0.4,1.1c0.2,0.3,0.6,0.4,0.9,0.4C87.5,93.8,87.8,93.6,88.1,93.4L88.1,93.4z"/>
<path class="st1" d="M92.4,94.5l-1.7-5.4V89c0-0.1,0-0.1,0.1-0.2c0,0,0.1-0.1,0.2-0.1h0.9c0.1,0,0.1,0,0.2,0.1c0,0,0.1,0.1,0.1,0.2
	l1.1,3.8l1.2-3.8c0-0.1,0.1-0.1,0.1-0.2c0.1-0.1,0.1-0.1,0.2-0.1h0.6c0.1,0,0.2,0,0.2,0.1c0.1,0,0.1,0.1,0.1,0.2l1.2,3.8L98,89
	c0-0.1,0.1-0.1,0.1-0.2c0.1,0,0.1-0.1,0.2-0.1h0.9c0.1,0,0.3,0.1,0.3,0.3v0.1l-1.7,5.4c0,0.1-0.1,0.2-0.1,0.2
	c-0.1,0.1-0.1,0.1-0.2,0.1h-0.8c-0.2,0-0.3-0.1-0.4-0.3l-1.2-3.6L94,94.5c0,0.2-0.2,0.3-0.4,0.3h-0.8C92.6,94.8,92.5,94.7,92.4,94.5
	z"/>
<path class="st3" d="M280.4,24.8h-65.6c-3.3,0-6-2.7-6-6V9.9c0-3.3,2.7-6,6-6h65.6l0,0V24.8L280.4,24.8z"/>
<path class="st1" d="M218.6,18.1c-0.1-0.1-0.1-0.1-0.1-0.2v-7.8c0-0.1,0-0.2,0.1-0.2c0.1-0.1,0.1-0.1,0.2-0.1h0.9
	c0.1,0,0.3,0.1,0.4,0.2l3.4,5.3v-5.2c0-0.1,0-0.2,0.1-0.2c0.1-0.1,0.1-0.1,0.2-0.1h1c0.1,0,0.2,0,0.2,0.1c0.1,0.1,0.1,0.1,0.1,0.2
	v7.8c0,0.1,0,0.2-0.1,0.2c-0.1,0.1-0.1,0.1-0.2,0.1h-0.9c-0.1,0-0.3-0.1-0.4-0.2l-3.4-5.2v5.1c0,0.1-0.1,0.3-0.2,0.3c0,0,0,0-0.1,0
	h-1C218.7,18.2,218.6,18.2,218.6,18.1z"/>
<path class="st1" d="M227,18.1c-0.1-0.1-0.1-0.1-0.1-0.2v-7.8c0-0.1,0-0.2,0.1-0.2c0.1-0.1,0.1-0.1,0.2-0.1h5.2
	c0.2,0,0.3,0.1,0.3,0.3V11c0,0.1,0,0.2-0.1,0.2c-0.1,0.1-0.1,0.1-0.2,0.1h-3.8v2.2h3.6c0.1,0,0.2,0,0.2,0.1c0.1,0,0.1,0.1,0.1,0.2
	v0.9c0,0.1,0,0.2-0.1,0.2c-0.1,0.1-0.1,0.1-0.2,0.1h-3.6v3c0,0.2-0.1,0.3-0.3,0.3l0,0h-1.1C227.1,18.2,227,18.2,227,18.1z"/>
<path class="st1" d="M234.8,17.5c-0.7-0.6-1-1.5-1-2.5c0-0.2,0-0.6,0-1s0-0.8,0-1c0-0.9,0.3-1.8,1-2.4c1.5-1.1,3.6-1.1,5.1,0
	c0.7,0.6,1,1.5,1,2.4c0,0.5,0,0.8,0,1s0,0.6,0,1c0,0.9-0.3,1.8-1,2.5C238.3,18.6,236.3,18.6,234.8,17.5L234.8,17.5z M238.6,16.4
	c0.4-0.4,0.5-0.9,0.5-1.5c0-0.5,0-0.8,0-1s0-0.5,0-1s-0.2-1.1-0.5-1.5c-0.3-0.3-0.8-0.5-1.3-0.5s-0.9,0.2-1.3,0.5
	c-0.4,0.4-0.5,0.9-0.5,1.5c0,0.2,0,0.6,0,1s0,0.7,0,1c0,0.5,0.1,1.1,0.5,1.5C236.8,17.1,237.9,17.1,238.6,16.4L238.6,16.4z"/>
<path class="st1" d="M244.2,18.1c0,0-0.1-0.1-0.1-0.2v-0.1l2.9-7.7c0.1-0.2,0.2-0.3,0.4-0.3h1.3c0.2,0,0.4,0.1,0.4,0.3l2.9,7.7v0.1
	c0,0.1,0,0.1-0.1,0.2c0,0-0.1,0.1-0.2,0.1h-1.1c-0.2,0-0.3-0.1-0.4-0.2l-0.6-1.5H246l-0.5,1.5c-0.1,0.1-0.2,0.2-0.4,0.2H244
	C244.3,18.2,244.2,18.2,244.2,18.1z M246.8,15.1h2.7l-1.4-3.7L246.8,15.1z"/>
<path class="st1" d="M253.2,18.1c-0.1-0.1-0.1-0.1-0.1-0.2V10c0-0.1,0-0.2,0.1-0.2c0.1-0.1,0.1-0.1,0.2-0.1h1c0.1,0,0.3,0.1,0.3,0.2
	l0,0v8c0,0.1,0,0.1-0.1,0.2s-0.1,0.1-0.2,0.1h-1C253.3,18.3,253.2,18.2,253.2,18.1z"/>
<path class="st1" d="M256.8,17.5c-0.6-0.6-0.9-1.4-0.8-2.2V15c0-0.9,0.2-1.7,0.8-2.4c1.2-1.2,3.2-1.2,4.4,0c0.5,0.6,0.8,1.5,0.8,2.3
	v0.2c0,0.1,0,0.2-0.1,0.2c-0.1,0.1-0.1,0.1-0.2,0.1h-4v0.1c0,0.4,0.1,0.8,0.4,1.1c0.2,0.3,0.6,0.5,0.9,0.4c0.4,0,0.9-0.2,1.1-0.6
	c0-0.1,0.1-0.1,0.2-0.2c0.1,0,0.1,0,0.2,0h1.1c0.1,0,0.1,0,0.2,0.1c0.1,0,0.1,0.1,0.1,0.2c0,0.3-0.2,0.5-0.3,0.7
	c-0.3,0.3-0.6,0.5-1,0.7c-0.5,0.2-1,0.3-1.5,0.3C258.2,18.4,257.4,18.1,256.8,17.5z M260.3,14.5L260.3,14.5c0-0.4-0.1-0.8-0.4-1.1
	c-0.2-0.3-0.6-0.4-1-0.4s-0.8,0.1-1,0.4c-0.2,0.3-0.4,0.7-0.4,1.1l0,0H260.3z"/>
<path class="st1" d="M263.3,18.1c-0.1-0.1-0.1-0.1-0.1-0.2v-5.7c0-0.1,0-0.2,0.1-0.2c0.1-0.1,0.1-0.1,0.2-0.1h1c0.1,0,0.2,0,0.2,0.1
	c0.1,0.1,0.1,0.1,0.1,0.2v0.5c0.4-0.5,1.1-0.8,1.7-0.8h0.5c0.1,0,0.2,0,0.2,0.1c0.1,0.1,0.1,0.1,0.1,0.2v0.9c0,0.1,0,0.1-0.1,0.2
	c-0.1,0.1-0.1,0.1-0.2,0.1h-1c-0.3,0-0.6,0.1-0.9,0.3c-0.2,0.2-0.3,0.6-0.3,0.9v3.3c0,0.1,0,0.1-0.1,0.2s-0.1,0.1-0.2,0.1h-1.1
	C263.4,18.2,263.3,18.2,263.3,18.1z"/>
<path class="st1" d="M269.4,17.6c-0.4-0.5-0.6-1.1-0.6-1.7v-2.7h-0.9c-0.1,0-0.2,0-0.2-0.1c-0.1-0.1-0.1-0.1-0.1-0.2v-0.7
	c0-0.1,0-0.1,0.1-0.2c0.1-0.1,0.1-0.1,0.2-0.1h0.9V10c0-0.1,0-0.2,0.1-0.2c0.1-0.1,0.1-0.1,0.2-0.1h1c0.1,0,0.2,0,0.2,0.1
	c0.1,0.1,0.1,0.1,0.1,0.2v2h1.5c0.1,0,0.1,0,0.2,0.1s0.1,0.1,0.1,0.2V13c0,0.1,0,0.1-0.1,0.2c-0.1,0.1-0.1,0.1-0.2,0.1h-1.5v2.6
	c0,0.3,0,0.5,0.2,0.8c0.1,0.2,0.4,0.3,0.6,0.3h0.8c0.1,0,0.3,0.1,0.3,0.2l0,0V18c0,0.1,0,0.1-0.1,0.2s-0.1,0.1-0.2,0.1h-1
	C270.4,18.3,269.8,18,269.4,17.6z"/>
<ellipse class="st4" cx="194.7" cy="114.1" rx="48.4" ry="1.8"/>
<path class="st5" d="M167.4,63.6c0,1.8-1.2,3.3-2.2,3.3c-1.5-0.3-2.6-1.6-2.6-3.1c0-1.8,1.6-3.5,2.6-3.5S167.4,61.8,167.4,63.6z"/>
<path class="st6" d="M205.3,112.2v-9.6h-18.7v9.6c-1.8,1.2-3.9,1.8-6.1,1.8c0,0.4,0.3,0.8,0.8,0.8l0,0h29.4c0.4,0,0.8-0.3,0.8-0.7
	l0,0C209.2,114,207.1,113.4,205.3,112.2z"/>
<rect x="186.5" y="91.8" class="st7" width="18.9" height="11.3"/>
<path class="st6" d="M236.1,89.3V47c0-2.6-2.1-4.6-4.6-4.6l0,0h-71.1c-2.6,0-4.6,2.1-4.6,4.6l0,0v42.3H236.1z"/>
<rect x="159.9" y="46.5" class="st8" width="72.1" height="38.7"/>
<circle class="st9" cx="169.4" cy="55.4" r="6.1"/>
<polygon class="st10" points="162,85.5 186.9,68.5 189.1,72.7 221.3,55.8 221.6,62.6 247.8,40.1 244.6,35.1 260.5,31.4 255.8,47.5 
	251.8,43 216.6,77.2 216.3,68.5 188.8,81.4 188,79.1 178.5,85.6 "/>
<path class="st11" d="M222,98.3h-38.8c0,2.3,1.8,4.1,4.1,4.1h38.8C223.8,102.4,222,100.5,222,98.3z"/>
<path class="st12" d="M230.2,41.8c0-1.5,1.2-2.6,2.6-2.7H186c-1.5,0-2.6,1.2-2.6,2.7v0.1l0,0v56.4H222c0,2.3,1.8,4.1,4.1,4.1
	s4.1-1.8,4.1-4.1V43.1l0.1-0.2h-0.1L230.2,41.8z M212,40c0.2,0,0.3,0.1,0.3,0.3s-0.1,0.3-0.3,0.3s-0.3-0.1-0.3-0.3S211.8,40,212,40
	L212,40z"/>
<path class="st1" d="M212,40.6c0.2,0,0.3-0.1,0.3-0.3S212.2,40,212,40s-0.3,0.1-0.3,0.3C211.7,40.4,211.8,40.6,212,40.6L212,40.6z"
	/>
<path class="st13" d="M240.1,93.8L240.1,93.8L240.1,93.8z"/>
<path class="st14" d="M232.9,39.1L232.9,39.1c-1.5,0-2.7,1.2-2.7,2.7v1.1h2.2c1.2,0,2.3,0.4,3.2,1.2v-2.3
	C235.5,40.3,234.3,39.1,232.9,39.1z"/>
<path class="st15" d="M227.2,67.4c-3.5,0-7,0-10.5,0c-0.2,0-0.6,0.2-0.7-0.2l0.1-0.1c0.4,0,0.7,0.1,0.7-0.5c0-3.5,0-7,0-10.5
	l0.1-0.1c2,0,3.9,0,5.9,0h4.6L227.2,67.4z M221,61.8L221,61.8c0-0.8,0-1.6,0-2.4c0-0.5,0.2-0.9,0.8-0.9s0.7,0.4,0.8,0.8
	c0,0.3,0.1,0.6,0.1,0.8c0,0.4,0.1,0.5,0.5,0.5c1,0,1,0,0.9-1c0-0.2-0.1-0.4-0.1-0.6c-0.1-1.1-1.1-1.8-2.2-1.8
	c-1.1-0.1-2,0.6-2.1,1.7c0,0,0,0,0,0.1c-0.2,1.3-0.2,2.5-0.1,3.8c0,0.7,0,1.4,0.2,2.1c0.2,0.8,0.9,1.4,1.8,1.4
	c0.9,0.2,1.8-0.3,2.2-1.2c0.2-0.5,0.3-0.9,0.3-1.4c0.1-0.9,0-0.9-0.9-0.9c-0.4,0-0.6,0.1-0.6,0.6c0,0.3,0,0.6,0,0.8
	c-0.1,0.5-0.2,1-0.8,0.9s-0.8-0.5-0.8-1C220.9,63.3,221,62.5,221,61.8z"/>
<path class="st16" d="M197.2,72.9c0-0.7,0-1.4,0-2.1c0-0.2-0.1-0.4,0.2-0.4c0.2,0,0.4,0.1,0.5,0.2l0.1,0.1c0.5,0.7,0.5,0.7,1,0
	c0.1-0.2,0.2-0.4,0.5-0.4s0.2,0.4,0.2,0.6c0,0.7,0,1.3,0,2h-0.6c0.1-0.5,0.1-1.1,0-1.6c-0.3,0.4-0.5,0.8-0.7,0.8s-0.4-0.5-0.6-0.7
	h-0.1c0,0.5,0,1-0.1,1.5H197.2z"/>
<path class="st17" d="M221.7,72.9c0.1-0.7,0.1-1.3,0.1-2c0-0.2-0.1-0.4,0.2-0.5s0.4,0.2,0.5,0.3c0.3,0.4,0.6,0.8,1.1,1.4
	c0-0.5,0-0.8,0-1.2s-0.2-0.6,0.2-0.5s0.2,0.4,0.2,0.6c0,0.7,0,1.3,0,2h-0.4c-0.4-0.6-0.8-1.2-1.3-1.8V73L221.7,72.9z"/>
<path class="st18" d="M187.2,72.9c0-0.7,0-1.4,0-2.1c0-0.3,0.1-0.5,0.4-0.4s0.5,0,0.8,0c0.5,0.1,0.9,0.5,1,1s-0.2,1.1-0.6,1.3
	c-0.1,0.1-0.3,0-0.3,0.2H187.2z M188,70.8c-0.1,0-0.4-0.1-0.4,0.2s0,0.8,0,1.3c0,0.2,0.1,0.2,0.3,0.2c0.5,0.1,1-0.3,1.1-0.8l0,0
	C189,71.2,188.7,70.8,188,70.8z"/>
<path class="st16" d="M201.2,72.9c-0.7-0.6-0.5-1.5-0.6-2.3c0-0.2,0.1-0.3,0.2-0.3s0.2,0.1,0.2,0.3c0,0.3,0,0.7,0,1s0,0.8,0.6,0.9
	s0.6-0.4,0.6-0.8s0-0.6,0-0.9c0-0.2,0-0.3,0.2-0.4s0.3,0.1,0.3,0.3c0,0.8,0.1,1.6-0.5,2.2L201.2,72.9z"/>
<path class="st18" d="M224.9,72.9c0-0.7,0-1.4,0-2.1c0-0.3,0.1-0.4,0.4-0.4c1.1,0,1.4,0.1,1.9,1v0.7c-0.3,0.3-0.6,0.6-1,0.8H224.9z
	 M225.3,71.7c0.2,0.3-0.3,0.9,0.5,0.8c0.6,0,0.9-0.3,0.9-0.9s-0.3-0.8-0.9-0.8C225,70.8,225.5,71.4,225.3,71.7z"/>
<path class="st16" d="M216,72.9c0-0.7,0.1-1.4,0-2c0-0.4,0.1-0.6,0.5-0.5s0.7,0,1.1,0c0.1,0,0.4,0,0.4,0.2s-0.2,0.2-0.4,0.2H217
	c-0.2,0-0.4,0-0.4,0.3s0.1,0.3,0.4,0.3s0.8-0.2,0.8,0.2s-0.6,0.2-0.9,0.2c-0.7,0.2-0.2,0.7-0.3,1L216,72.9z"/>
<path class="st17" d="M193.5,72.9c-0.6-0.3-0.9-1-0.8-1.7c0.2-0.7,0.9-1.1,1.6-0.9c0.1,0,0.2,0.1,0.3,0.1c0.1,0.1,0.4,0.1,0.3,0.3
	s-0.3,0.2-0.5,0.1c-0.8-0.2-1.3,0.1-1.2,0.9c0,0.4,0.4,0.8,0.9,0.7c0.1,0,0.1,0,0.2,0c0.2,0,0.4-0.4,0.6-0.1s-0.3,0.3-0.4,0.6H193.5
	z"/>
<path class="st17" d="M209,72.9c0.3-0.8,0.6-1.5,0.9-2.3c0.1-0.2,0.1-0.3,0.3-0.3s0.3,0.1,0.4,0.3l0.9,2.3h-0.4
	c-0.1-0.4-0.5-0.7-0.9-0.7l0,0c-0.5,0-0.7,0.3-0.8,0.7H209z M209.9,71.9c0.2,0,0.6,0.2,0.6,0s-0.1-0.5-0.3-0.8
	C210.1,71.3,210,71.6,209.9,71.9L209.9,71.9z"/>
<path class="st18" d="M219.2,72.9c-0.8-0.6-0.5-1.5-0.6-2.3c0-0.1,0-0.2,0.2-0.2s0.2,0.1,0.2,0.3c0,0.4,0,0.8,0,1.2s0.2,0.7,0.7,0.7
	s0.6-0.3,0.6-0.7s0-0.8,0-1.2c0-0.2,0-0.3,0.2-0.3s0.2,0.1,0.2,0.2c0,0.8,0.3,1.7-0.6,2.3H219.2z"/>
<path class="st17" d="M207,72.9c-0.6-0.7-0.8-1.5-0.6-2.4c0-0.1,0.1-0.2,0.3-0.2l0,0c0.1,0,0.2,0.1,0.2,0.2c0,0.4,0,0.8,0,1.2
	s0.1,0.7,0.6,0.7s0.6-0.2,0.7-0.6s0-0.8,0-1.2c0-0.1,0-0.3,0.2-0.3s0.2,0.1,0.2,0.3c0,0.8,0.2,1.6-0.6,2.3H207z"/>
<path class="st17" d="M190.2,72.9c0-0.7,0-1.4,0-2.1c0-0.3,0.1-0.5,0.4-0.4s0.7,0,1.1,0c0.1,0,0.4-0.1,0.4,0.2s-0.2,0.2-0.4,0.2H191
	c-0.2,0-0.4,0-0.4,0.3s0.1,0.3,0.4,0.4s0.8-0.2,0.8,0.2s-0.5,0.2-0.8,0.2s-0.4,0.1-0.4,0.4s0,0.4,0,0.6L190.2,72.9z"/>
<path class="st16" d="M204.3,72.9c0-0.4,0-0.9,0.1-1.3s0.1-0.9-0.6-0.8c-0.1,0-0.2-0.1-0.2-0.2s0.1-0.2,0.2-0.2h1.6
	c0.1,0,0.2,0,0.2,0.2s-0.1,0.3-0.3,0.2c-0.5-0.1-0.5,0.2-0.5,0.6s0,1,0,1.6L204.3,72.9L204.3,72.9z"/>
<path class="st17" d="M212.1,72.9c0-0.7,0-1.4,0-2.2c0-0.2,0-0.4,0.3-0.4s0.2,0.2,0.2,0.4c0,0.4,0,0.7,0,1.1c0,0.5,0.1,0.7,0.6,0.6
	c0.3,0,0.8-0.2,0.7,0.4L212.1,72.9z"/>
<path class="st17" d="M185.8,72.9v-2.2c0-0.2,0-0.4,0.3-0.4s0.2,0.2,0.2,0.4c0,0.7,0,1.4,0,2.2H185.8z"/>
<path class="st19" d="M196.1,67.4c-3.2,0-6.4,0-9.5,0c-0.6,0-0.9-0.1-0.8-0.8c0-3.2,0-6.5,0-9.8c0-0.6,0.1-0.8,0.7-0.8
	c3.3,0,6.6,0,9.8,0c0.3,0,0.6-0.2,0.7,0.2l0,0c-0.4,0-0.9-0.2-0.9,0.5C196.2,60.4,196.2,63.9,196.1,67.4L196.1,67.4z M191.9,61.8
	c0-1.4,0-2.7,0-4.1c0-0.7-0.4-0.5-0.8-0.5s-0.7-0.1-0.7,0.5c0,2.7,0,5.4,0,8.1c0,0.6,0.3,0.6,0.7,0.5s0.8,0.1,0.7-0.5
	C191.9,64.5,191.9,63.2,191.9,61.8z"/>
<path class="st20" d="M205.4,56.4c0-0.2,0.1-0.4,0.4-0.4h10.6c0.1,0,0.1,0.1,0.2,0.1l-0.1,0.1c-0.4-0.1-0.7-0.1-0.7,0.5
	c0,3.5,0,7,0,10.5l-0.1,0.1h-8.5v-9c0-1.9,0-1.9-1.9-1.7L205.4,56.4z M209.5,61.8c0,1.4,0,2.7,0,4.1c0,0.7,0.5,0.4,0.8,0.5
	s0.7,0.1,0.7-0.5s0-1.4,0-2c0-1.4,0-1.5,1.4-1.5c0.6,0,0.4-0.4,0.4-0.7s0.1-0.6-0.4-0.7c-1.4,0-1.4-0.1-1.4-1.5c0-0.1,0-0.2,0-0.3
	c-0.1-0.4,0.1-0.6,0.5-0.5s1,0,1.6,0s0.5-0.3,0.5-0.6s0.1-0.7-0.5-0.7c-1,0-1.9,0-2.9,0c-0.5,0-0.6,0.2-0.6,0.7
	C209.6,59.2,209.5,60.5,209.5,61.8z"/>
<path class="st21" d="M197,56.4h8.4l0.1,0.1c0,3,0,5.9,0,8.9c0,0.6-0.3,1.4,0.1,1.8s1.2,0.1,1.8,0.2c0,0.3-0.2,0.4-0.4,0.4h-10.4
	c-0.2,0-0.3,0-0.4-0.2h0.1c0.7,0.2,0.9-0.1,0.9-0.8C197,63.2,197,59.8,197,56.4L197,56.4z M199.1,61.7v4.1c0,0.3,0,0.5,0.4,0.5
	c0.7,0,1.3,0,2-0.1c1-0.1,1.8-0.9,1.9-1.9c0.2-1.7,0.2-3.4,0-5.1c-0.1-1-0.8-1.7-1.8-1.9c-0.7-0.1-1.4-0.1-2.1-0.1
	c-0.4,0-0.5,0.1-0.5,0.5C199.1,59.1,199.1,60.4,199.1,61.7L199.1,61.7z"/>
<path class="st22" d="M207.4,67.3c-0.6-0.1-1.4,0.2-1.8-0.2s-0.1-1.2-0.1-1.8c0-3,0-5.9,0-8.9c1.9-0.2,1.9-0.2,1.9,1.7v9
	C207.4,67.2,207.4,67.2,207.4,67.3z"/>
<path class="st23" d="M221,61.8c0,0.8,0,1.6,0,2.3c0,0.5,0.2,1,0.8,1s0.8-0.4,0.8-0.9c0-0.3,0-0.6,0-0.8c0-0.4,0.1-0.6,0.6-0.6
	c0.9,0,0.9,0,0.9,0.9c0,0.5-0.1,1-0.3,1.4c-0.4,0.9-1.3,1.4-2.2,1.2c-0.9,0-1.6-0.6-1.8-1.4c-0.2-0.7-0.3-1.4-0.2-2.1
	c-0.1-1.3,0-2.5,0.1-3.8c0.1-1.1,1-1.9,2.1-1.8c0,0,0,0,0.1,0c1.1-0.1,2,0.7,2.2,1.8c0,0.2,0.1,0.4,0.1,0.6c0.1,1,0,1-0.9,1
	c-0.4,0-0.5-0.1-0.5-0.5c0-0.3,0-0.6-0.1-0.8c-0.1-0.5-0.2-0.8-0.8-0.8s-0.8,0.4-0.8,0.9C221,60.1,221,60.9,221,61.8L221,61.8z"/>
<path class="st24" d="M216,67.1c0-3.5,0-7,0-10.5c0-0.6,0.3-0.5,0.7-0.5c0,3.5,0,7,0,10.5C216.7,67.2,216.4,67.2,216,67.1z"/>
<path class="st23" d="M191.9,61.8c0,1.3,0,2.6,0,4c0,0.6-0.4,0.5-0.7,0.5s-0.7,0.1-0.7-0.5c0-2.7,0-5.4,0-8c0-0.6,0.4-0.5,0.7-0.5
	s0.8-0.2,0.8,0.5C191.9,59.1,191.9,60.5,191.9,61.8z"/>
<path class="st25" d="M197,56.4c0,3.4,0,6.8,0,10.2c0,0.7-0.1,1-0.9,0.8c0-3.5,0-7,0-10.5C196.1,56.2,196.6,56.4,197,56.4z"/>
<path class="st26" d="M209.5,61.8c0-1.3,0-2.6,0-3.9c0-0.5,0.1-0.7,0.6-0.7c1,0,1.9,0,2.9,0c0.6,0,0.5,0.3,0.5,0.7s0.1,0.7-0.5,0.6
	s-1,0-1.6,0s-0.6,0.1-0.5,0.5c0,0.1,0,0.2,0,0.3c0,1.4,0,1.5,1.4,1.5c0.6,0,0.4,0.4,0.4,0.7s0.1,0.7-0.4,0.7
	c-1.4,0.1-1.4,0.1-1.4,1.5c0,0.7,0,1.4,0,2s-0.4,0.5-0.7,0.5s-0.8,0.2-0.8-0.5C209.6,64.5,209.5,63.1,209.5,61.8z"/>
<path class="st27" d="M199.1,61.7c0-1.3,0-2.6,0-4c0-0.4,0.1-0.6,0.5-0.5c0.7,0,1.4,0,2.1,0.1c0.9,0.2,1.7,0.9,1.8,1.9
	c0.2,1.7,0.2,3.4,0,5.1c-0.1,1-0.9,1.8-1.9,1.9c-0.7,0.1-1.3,0-2,0.1c-0.4,0-0.4-0.2-0.4-0.5L199.1,61.7z M200.5,61.8
	c0,0.8,0,1.7,0,2.5s0.4,0.9,1,0.6c0.3-0.2,0.5-0.5,0.5-0.8c0.1-1.5,0.1-3.1,0-4.6c0-0.5-0.5-0.9-1-0.9c-0.3,0-0.5,0-0.5,0.4
	C200.5,59.9,200.5,60.8,200.5,61.8z"/>
<path class="st28" d="M200.5,61.8c0-0.9,0-1.9,0-2.8c0-0.4,0.2-0.5,0.5-0.4c0.5,0,1,0.4,1,0.9c0.1,1.5,0.1,3.1,0,4.6
	c0,0.3-0.2,0.6-0.5,0.8c-0.6,0.4-1,0.2-1-0.6S200.5,62.6,200.5,61.8z"/>
<path class="st8" d="M201.7,89.2c1.8,2.2,5.1,2.5,7.3,0.7c0.4-0.3,0.7-0.7,1-1.1l-4.3-2.9L201.7,89.2z"/>
<path class="st6" d="M210,88.8c1.6-2.4,1-5.6-1.4-7.2c-0.1-0.1-0.2-0.2-0.4-0.2l-2.5,4.5L210,88.8z"/>
<path class="st5" d="M208.2,81.4c-2-1.1-4.6-0.8-6.2,0.9l3.7,3.6L208.2,81.4z"/>
<path class="st29" d="M201.7,89.2l4-3.3l-3.7-3.6C200.2,84.1,200.1,87.1,201.7,89.2L201.7,89.2z"/>
<rect x="193.6" y="80.9" class="st8" width="6.9" height="0.3"/>
<rect x="193.6" y="80.1" class="st8" width="6.9" height="0.3"/>
<rect x="197" y="79.4" class="st8" width="3.4" height="0.3"/>
<rect x="210.9" y="80.9" class="st8" width="6.9" height="0.3"/>
<rect x="210.9" y="80.1" class="st8" width="6.9" height="0.3"/>
<rect x="214.3" y="79.4" class="st8" width="3.4" height="0.3"/>
<rect x="193.6" y="92.9" class="st8" width="6.9" height="0.3"/>
<rect x="193.6" y="92.2" class="st8" width="6.9" height="0.3"/>
<rect x="197" y="91.4" class="st8" width="3.4" height="0.3"/>
<rect x="198.4" y="89.9" transform="matrix(0.7071 -0.7071 0.7071 0.7071 -5.214 167.4951)" class="st8" width="2.4" height="0.2"/>
<rect x="199.5" y="81.4" transform="matrix(0.7071 -0.7071 0.7071 0.7071 -1.966556e-02 165.3602)" class="st8" width="0.2" height="2.6"/>
<rect x="210.9" y="82.9" transform="matrix(0.8125 -0.583 0.583 0.8125 -8.5491 139.4627)" class="st8" width="3.2" height="0.2"/>
<rect x="210.8" y="92.9" class="st8" width="6.9" height="0.3"/>
<rect x="210.8" y="92.1" class="st8" width="6.9" height="0.3"/>
<rect x="210.8" y="91.4" class="st8" width="3.4" height="0.3"/>
<rect x="211.5" y="88.9" transform="matrix(0.7071 -0.7071 0.7071 0.7071 -1.7329 176.0312)" class="st8" width="0.2" height="2.4"/>
<path class="st9" d="M197.8,50.9c0,0-0.1-0.1-0.1-0.2v-5.9c0-0.1,0-0.1,0.1-0.2c0,0,0.1-0.1,0.2-0.1h1c0.1,0,0.2,0.1,0.3,0.2
	l2.1,3.4v-3.3c0-0.1,0-0.1,0.1-0.2c0,0,0.1-0.1,0.2-0.1h1.1c0.1,0,0.1,0,0.2,0.1c0,0,0.1,0.1,0.1,0.2v5.9c0,0.1,0,0.1-0.1,0.2
	c0,0-0.1,0.1-0.2,0.1h-1c-0.1,0-0.2-0.1-0.3-0.2l-2.1-3.2v3.2c0,0.1,0,0.1-0.1,0.2c0,0-0.1,0.1-0.2,0.1H198
	C197.9,51,197.9,51,197.8,50.9z"/>
<path class="st9" d="M204.4,50.9c0,0-0.1-0.1-0.1-0.2v-5.9c0-0.1,0-0.1,0.1-0.2c0,0,0.1-0.1,0.2-0.1h4.2c0.1,0,0.1,0,0.2,0.1
	c0,0,0.1,0.1,0.1,0.2v1c0,0.1-0.1,0.2-0.2,0.2H206v1.3h2.6c0.1,0,0.1,0,0.2,0.1c0,0,0.1,0.1,0.1,0.2v1c0,0.1-0.1,0.2-0.2,0.2H206v2
	c0,0.1,0,0.1-0.1,0.2c0,0-0.1,0.1-0.2,0.1h-1.2C204.5,51.1,204.4,51,204.4,50.9z"/>
<path class="st9" d="M210.5,50.5c-0.5-0.5-0.8-1.1-0.8-1.8c0-0.2,0-0.4,0-0.8s0-0.6,0-0.8c0-0.7,0.3-1.4,0.8-1.8
	c0.6-0.4,1.3-0.7,2-0.6c0.7,0,1.4,0.2,2,0.6c0.5,0.5,0.8,1.1,0.8,1.8c0,0.3,0,0.6,0,0.8s0,0.4,0,0.8c0,0.7-0.3,1.4-0.8,1.8
	C213.3,51.3,211.7,51.3,210.5,50.5L210.5,50.5z M213.2,49.5c0.2-0.2,0.3-0.6,0.3-0.9c0-0.3,0-0.6,0-0.8s0-0.4,0-0.7
	s-0.1-0.6-0.3-0.9c-0.4-0.4-1.1-0.4-1.5,0c-0.2,0.2-0.3,0.6-0.3,0.9c0,0.2,0,0.4,0,0.7s0,0.6,0,0.8c0,0.3,0.1,0.6,0.3,0.9
	C212.2,49.9,212.8,49.9,213.2,49.5z"/>
<g>
	<g>
		<g>
			<g>
				<path class="st30" d="M184.5,112.1l0,2.1c0,0.6,0.7,1.3,2.2,1.7c2.9,1,7.6,1,10.7,0.1c0,0,0.1,0,0.1,0c1.5-0.5,2.3-1.1,2.3-1.8
					l0-2.1c0,0.6-0.8,1.3-2.3,1.8c0,0-0.1,0-0.1,0c-3,0.9-7.8,0.9-10.7-0.1C185.3,113.4,184.5,112.8,184.5,112.1z"/>
				<path class="st31" d="M187,110.3c-0.1,0-0.1,0-0.1,0c-3,1-3.1,2.5-0.1,3.5c2.9,1,7.6,1,10.7,0.1c0,0,0.1,0,0.1,0
					c3-1,3.1-2.5,0.1-3.5C194.8,109.5,190,109.4,187,110.3z"/>
			</g>
			<g>
				<path class="st30" d="M186.2,109.7l0,2.1c0,0.6,0.7,1.3,2.2,1.7c2.9,1,7.6,1,10.7,0.1c0,0,0.1,0,0.1,0c1.5-0.5,2.3-1.1,2.3-1.8
					l0-2.1c0,0.6-0.8,1.3-2.3,1.8c0,0-0.1,0-0.1,0c-3,0.9-7.8,0.9-10.7-0.1C186.9,111,186.2,110.3,186.2,109.7z"/>
				<path class="st31" d="M188.7,107.9c-0.1,0-0.1,0-0.1,0c-3,1-3.1,2.5-0.1,3.5c2.9,1,7.6,1,10.7,0.1c0,0,0.1,0,0.1,0
					c3-1,3.1-2.5,0.1-3.5C196.4,107,191.7,107,188.7,107.9z"/>
			</g>
			<g>
				<g>
					<path class="st30" d="M184.8,106.7l0,2.1c0,0.6,0.7,1.3,2.2,1.7c2.9,1,7.6,1,10.7,0.1c0,0,0.1,0,0.1,0c1.5-0.5,2.3-1.1,2.3-1.8
						l0-2.1c0,0.6-0.8,1.3-2.3,1.8c0,0-0.1,0-0.1,0c-3,0.9-7.8,0.9-10.7-0.1C185.5,108,184.8,107.4,184.8,106.7z"/>
					<path class="st30" d="M186.9,110.7c-1.5-0.5-2.3-1.2-2.3-1.9l0-2.1c0,0,0,0,0,0c0-0.1,0.1-0.1,0.1-0.1c0,0,0,0,0,0
						c0.1,0,0.1,0.1,0.1,0.1v0c0,0.6,0.8,1.2,2.1,1.6c2.8,1,7.6,1,10.6,0.1c0,0,0.1,0,0.1,0c1.4-0.4,2.2-1,2.2-1.6
						c0-0.1,0.1-0.1,0.1-0.1c0,0,0,0,0,0c0.1,0,0.1,0.1,0.1,0.1v0c0,0,0,0,0,0l0,2.1c0,0.7-0.9,1.4-2.4,1.9c0,0-0.1,0-0.2,0
						c-1.5,0.4-3.3,0.7-5.2,0.7C190.5,111.4,188.5,111.2,186.9,110.7z M197.9,108.7c0,0-0.1,0-0.1,0c-3.1,0.9-7.8,0.9-10.8-0.1
						c-1-0.3-1.6-0.7-2-1.2l0,1.3c0,0.6,0.8,1.2,2.1,1.6c2.8,1,7.6,1,10.6,0.1c0,0,0.1,0,0.1,0c1.4-0.4,2.2-1,2.2-1.6l0-1.3
						C199.6,107.9,198.9,108.3,197.9,108.7z"/>
				</g>
				<g>
					<path class="st32" d="M187.3,104.9c-0.1,0-0.1,0-0.1,0c-3,1-3.1,2.5-0.1,3.5c2.9,1,7.6,1,10.7,0.1c0,0,0.1,0,0.1,0
						c3-1,3.1-2.5,0.1-3.5C195.1,104,190.3,104,187.3,104.9z"/>
					<path class="st30" d="M186.9,108.6c-1.5-0.5-2.3-1.2-2.3-1.9c0-0.7,0.9-1.4,2.4-1.9c0,0,0.1,0,0.2,0c3.1-0.9,7.8-0.9,10.8,0.1
						c1.5,0.5,2.3,1.2,2.3,1.9c0,0.7-0.9,1.4-2.4,1.9c0,0-0.1,0-0.1,0c-1.5,0.4-3.3,0.7-5.2,0.7
						C190.5,109.4,188.5,109.1,186.9,108.6z M187.3,105L187.3,105c0,0-0.1,0-0.1,0c-1.4,0.4-2.2,1-2.2,1.6c0,0.6,0.8,1.2,2.1,1.6
						c2.8,1,7.6,1,10.6,0.1c0,0,0.1,0,0.1,0c1.4-0.4,2.2-1,2.2-1.6c0-0.6-0.8-1.2-2.1-1.6c-1.5-0.5-3.5-0.7-5.5-0.7
						C190.6,104.4,188.8,104.6,187.3,105z"/>
				</g>
			</g>
		</g>
		<g>
			<g>
				<path class="st30" d="M167.3,111.9l0,2.2c0,0.7,0.8,1.3,2.3,1.8c3,1,8,1.1,11.2,0.1c0.1,0,0.1,0,0.2,0c1.6-0.5,2.4-1.2,2.4-1.9
					l0-2.2c0,0.7-0.8,1.4-2.4,1.9c-0.1,0-0.1,0-0.2,0c-3.2,1-8.2,0.9-11.2-0.1C168.1,113.2,167.3,112.6,167.3,111.9z"/>
				<path class="st31" d="M169.9,110c-0.1,0-0.1,0-0.2,0c-3.2,1-3.2,2.6-0.1,3.7c3,1,8,1.1,11.2,0.1c0.1,0,0.1,0,0.2,0
					c3.2-1,3.2-2.6,0.1-3.7C178,109.1,173.1,109.1,169.9,110z"/>
			</g>
			<g>
				<path class="st30" d="M166.9,108.9l0,2.2c0,0.7,0.8,1.3,2.3,1.8c3,1,8,1.1,11.2,0.1c0.1,0,0.1,0,0.2,0c1.6-0.5,2.4-1.2,2.4-1.9
					l0-2.2c0,0.7-0.8,1.4-2.4,1.9c-0.1,0-0.1,0-0.2,0c-3.2,1-8.2,0.9-11.2-0.1C167.6,110.2,166.9,109.6,166.9,108.9z"/>
				<path class="st31" d="M169.4,107c-0.1,0-0.1,0-0.2,0c-3.2,1-3.2,2.6-0.1,3.7c3,1,8,1.1,11.2,0.1c0.1,0,0.1,0,0.2,0
					c3.2-1,3.2-2.6,0.1-3.7C177.6,106.1,172.6,106.1,169.4,107z"/>
			</g>
			<g>
				<path class="st30" d="M168.1,105.9l0,2.2c0,0.7,0.8,1.3,2.3,1.8c3,1,8,1.1,11.2,0.1c0.1,0,0.1,0,0.2,0c1.6-0.5,2.4-1.2,2.4-1.9
					l0-2.2c0,0.7-0.8,1.4-2.4,1.9c-0.1,0-0.1,0-0.2,0c-3.2,1-8.2,0.9-11.2-0.1C168.9,107.2,168.1,106.6,168.1,105.9z"/>
				<path class="st31" d="M170.7,104c-0.1,0-0.1,0-0.2,0c-3.2,1-3.2,2.6-0.1,3.7c3,1,8,1.1,11.2,0.1c0.1,0,0.1,0,0.2,0
					c3.2-1,3.2-2.6,0.1-3.7C178.9,103.1,173.9,103,170.7,104z"/>
			</g>
			<g>
				<path class="st30" d="M166.5,103.4l0,2.2c0,0.7,0.8,1.3,2.3,1.8c3,1,8,1.1,11.2,0.1c0.1,0,0.1,0,0.2,0c1.6-0.5,2.4-1.2,2.4-1.9
					l0-2.2c0,0.7-0.8,1.4-2.4,1.9c-0.1,0-0.1,0-0.2,0c-3.2,1-8.2,0.9-11.2-0.1C167.3,104.7,166.5,104.1,166.5,103.4z"/>
				<path class="st31" d="M169.1,101.5c-0.1,0-0.1,0-0.2,0c-3.2,1-3.2,2.6-0.1,3.7c3,1,8,1.1,11.2,0.1c0.1,0,0.1,0,0.2,0
					c3.2-1,3.2-2.6,0.1-3.7C177.3,100.6,172.3,100.5,169.1,101.5z"/>
			</g>
			<g>
				<path class="st30" d="M168.4,100.9l0,2.2c0,0.7,0.8,1.3,2.3,1.8c3,1,8,1.1,11.2,0.1c0.1,0,0.1,0,0.2,0c1.6-0.5,2.4-1.2,2.4-1.9
					l0-2.2c0,0.7-0.8,1.4-2.4,1.9c-0.1,0-0.1,0-0.2,0c-3.2,1-8.2,0.9-11.2-0.1C169.2,102.2,168.4,101.6,168.4,100.9z"/>
				<path class="st31" d="M171,99c-0.1,0-0.1,0-0.2,0c-3.2,1-3.2,2.6-0.1,3.7c3,1,8,1.1,11.2,0.1c0.1,0,0.1,0,0.2,0
					c3.2-1,3.2-2.6,0.1-3.7C179.2,98.1,174.2,98.1,171,99z"/>
			</g>
			<g>
				<g>
					<path class="st30" d="M167.1,98.2l0,2.2c0,0.7,0.8,1.3,2.3,1.8c3,1,8,1.1,11.2,0.1c0.1,0,0.1,0,0.2,0c1.6-0.5,2.4-1.2,2.4-1.9
						l0-2.2c0,0.7-0.8,1.4-2.4,1.9c-0.1,0-0.1,0-0.2,0c-3.2,1-8.2,0.9-11.2-0.1C167.8,99.5,167.1,98.8,167.1,98.2z"/>
					<path class="st30" d="M169.3,102.3c-1.5-0.5-2.4-1.2-2.4-2l0-2.2c0,0,0,0,0,0c0-0.1,0.1-0.1,0.1-0.1h0c0.1,0,0.1,0.1,0.1,0.1v0
						c0,0.6,0.8,1.2,2.2,1.7c3,1,8,1,11.1,0.1c0.1,0,0.1,0,0.2,0c1.5-0.5,2.3-1.1,2.3-1.7c0-0.1,0.1-0.1,0.1-0.1c0,0,0,0,0,0
						c0.1,0,0.1,0.1,0.1,0.1v0c0,0,0,0,0,0l0,2.2c0,0.8-0.9,1.5-2.5,2c-0.1,0-0.1,0-0.2,0c-1.6,0.5-3.5,0.7-5.5,0.7
						C173,103.1,170.9,102.8,169.3,102.3z M180.7,100.2c-0.1,0-0.1,0-0.2,0c-3.2,1-8.2,0.9-11.3-0.1c-1-0.3-1.7-0.8-2.1-1.2l0,1.4
						c0,0.6,0.8,1.2,2.2,1.7c3,1,8,1,11.1,0.1c0.1,0,0.1,0,0.2,0c1.5-0.5,2.3-1.1,2.3-1.7l0-1.4C182.6,99.4,181.8,99.8,180.7,100.2z
						"/>
				</g>
				<g>
					<path class="st32" d="M169.6,96.2c-0.1,0-0.1,0-0.2,0c-3.2,1-3.2,2.6-0.1,3.7c3,1,8,1.1,11.2,0.1c0.1,0,0.1,0,0.2,0
						c3.2-1,3.2-2.6,0.1-3.7C177.8,95.3,172.8,95.3,169.6,96.2z"/>
					<path class="st30" d="M169.3,100.1c-1.5-0.5-2.4-1.2-2.4-2c0-0.8,0.9-1.5,2.5-2c0.1,0,0.1,0,0.2,0h0c3.2-1,8.2-0.9,11.3,0.1
						c1.5,0.5,2.4,1.2,2.4,2c0,0.8-0.9,1.5-2.5,2c-0.1,0-0.1,0-0.2,0c-1.6,0.5-3.5,0.7-5.5,0.7C173,100.9,170.9,100.6,169.3,100.1z
						 M169.7,96.4L169.7,96.4c-0.1,0-0.1,0-0.2,0c-1.5,0.5-2.3,1.1-2.3,1.7c0,0.6,0.8,1.2,2.2,1.7c3,1,8,1,11.1,0.1
						c0.1,0,0.1,0,0.2,0c1.5-0.5,2.3-1.1,2.3-1.7c0-0.6-0.8-1.2-2.2-1.7c-1.6-0.5-3.7-0.8-5.7-0.8C173.1,95.7,171.2,95.9,169.7,96.4
						z"/>
				</g>
			</g>
		</g>
		<g>
			<g>
				<path class="st30" d="M149.5,111.9l0,2.2c0,0.7,0.8,1.3,2.3,1.8c3,1,8,1.1,11.2,0.1c0.1,0,0.1,0,0.2,0c1.6-0.5,2.4-1.2,2.4-1.9
					l0-2.2c0,0.7-0.8,1.4-2.4,1.9c-0.1,0-0.1,0-0.2,0c-3.2,1-8.2,0.9-11.2-0.1C150.2,113.2,149.5,112.5,149.5,111.9z"/>
				<path class="st31" d="M152.1,110c-0.1,0-0.1,0-0.2,0c-3.2,1-3.2,2.6-0.1,3.7c3,1,8,1.1,11.2,0.1c0.1,0,0.1,0,0.2,0
					c3.2-1,3.2-2.6,0.1-3.7C160.2,109.1,155.3,109,152.1,110z"/>
			</g>
			<g>
				<path class="st30" d="M148.6,109.2l0,2.2c0,0.7,0.8,1.3,2.3,1.8c3,1,8,1.1,11.2,0.1c0.1,0,0.1,0,0.2,0c1.6-0.5,2.4-1.2,2.4-1.9
					l0-2.2c0,0.7-0.8,1.4-2.4,1.9c-0.1,0-0.1,0-0.2,0c-3.2,1-8.2,0.9-11.2-0.1C149.4,110.5,148.6,109.8,148.6,109.2z"/>
				<path class="st31" d="M151.2,107.3c-0.1,0-0.1,0-0.2,0c-3.2,1-3.2,2.6-0.1,3.7c3,1,8,1.1,11.2,0.1c0.1,0,0.1,0,0.2,0
					c3.2-1,3.2-2.6,0.1-3.7C159.4,106.4,154.4,106.3,151.2,107.3z"/>
			</g>
			<g>
				<path class="st30" d="M149.8,106.8l0,2.2c0,0.7,0.8,1.3,2.3,1.8c3,1,8,1.1,11.2,0.1c0.1,0,0.1,0,0.2,0c1.6-0.5,2.4-1.2,2.4-1.9
					l0-2.2c0,0.7-0.8,1.4-2.4,1.9c-0.1,0-0.1,0-0.2,0c-3.2,1-8.2,0.9-11.2-0.1C150.6,108.1,149.8,107.4,149.8,106.8z"/>
				<path class="st31" d="M152.4,104.9c-0.1,0-0.1,0-0.2,0c-3.2,1-3.2,2.6-0.1,3.7c3,1,8,1.1,11.2,0.1c0.1,0,0.1,0,0.2,0
					c3.2-1,3.2-2.6,0.1-3.7C160.6,104,155.6,103.9,152.4,104.9z"/>
			</g>
			<g>
				<path class="st30" d="M149.2,103.6l0,2.2c0,0.7,0.8,1.3,2.3,1.8c3,1,8,1.1,11.2,0.1c0.1,0,0.1,0,0.2,0c1.6-0.5,2.4-1.2,2.4-1.9
					l0-2.2c0,0.7-0.8,1.4-2.4,1.9c-0.1,0-0.1,0-0.2,0c-3.2,1-8.2,0.9-11.2-0.1C149.9,105,149.2,104.3,149.2,103.6z"/>
				<path class="st31" d="M151.8,101.7c-0.1,0-0.1,0-0.2,0c-3.2,1-3.2,2.6-0.1,3.7c3,1,8,1.1,11.2,0.1c0.1,0,0.1,0,0.2,0
					c3.2-1,3.2-2.6,0.1-3.7C159.9,100.8,154.9,100.8,151.8,101.7z"/>
			</g>
			<g>
				<path class="st30" d="M149.5,101l0,2.2c0,0.7,0.8,1.3,2.3,1.8c3,1,8,1.1,11.2,0.1c0.1,0,0.1,0,0.2,0c1.6-0.5,2.4-1.2,2.4-1.9
					l0-2.2c0,0.7-0.8,1.4-2.4,1.9c-0.1,0-0.1,0-0.2,0c-3.2,1-8.2,0.9-11.2-0.1C150.3,102.3,149.5,101.6,149.5,101z"/>
				<path class="st31" d="M152.1,99.1c-0.1,0-0.1,0-0.2,0c-3.2,1-3.2,2.6-0.1,3.7c3,1,8,1.1,11.2,0.1c0.1,0,0.1,0,0.2,0
					c3.2-1,3.2-2.6,0.1-3.7C160.3,98.2,155.3,98.1,152.1,99.1z"/>
			</g>
			<g>
				<path class="st30" d="M150.2,98l0,2.2c0,0.7,0.8,1.3,2.3,1.8c3,1,8,1.1,11.2,0.1c0.1,0,0.1,0,0.2,0c1.6-0.5,2.4-1.2,2.4-1.9
					l0-2.2c0,0.7-0.8,1.4-2.4,1.9c-0.1,0-0.1,0-0.2,0c-3.2,1-8.2,0.9-11.2-0.1C150.9,99.3,150.2,98.6,150.2,98z"/>
				<path class="st31" d="M152.7,96.1c-0.1,0-0.1,0-0.2,0c-3.2,1-3.2,2.6-0.1,3.7c3,1,8,1.1,11.2,0.1c0.1,0,0.1,0,0.2,0
					c3.2-1,3.2-2.6,0.1-3.7C160.9,95.2,155.9,95.1,152.7,96.1z"/>
			</g>
			<g>
				<path class="st30" d="M149.5,95.1l0,2.2c0,0.7,0.8,1.3,2.3,1.8c3,1,8,1.1,11.2,0.1c0.1,0,0.1,0,0.2,0c1.6-0.5,2.4-1.2,2.4-1.9
					l0-2.2c0,0.7-0.8,1.4-2.4,1.9c-0.1,0-0.1,0-0.2,0c-3.2,1-8.2,0.9-11.2-0.1C150.2,96.4,149.5,95.8,149.5,95.1z"/>
				<path class="st31" d="M152.1,93.2c-0.1,0-0.1,0-0.2,0c-3.2,1-3.2,2.6-0.1,3.7c3,1,8,1.1,11.2,0.1c0.1,0,0.1,0,0.2,0
					c3.2-1,3.2-2.6,0.1-3.7C160.2,92.3,155.2,92.2,152.1,93.2z"/>
			</g>
			<g>
				<path class="st30" d="M150.5,92.9l0,2.2c0,0.7,0.8,1.3,2.3,1.8c3,1,8,1.1,11.2,0.1c0.1,0,0.1,0,0.2,0c1.6-0.5,2.4-1.2,2.4-1.9
					l0-2.2c0,0.7-0.8,1.4-2.4,1.9c-0.1,0-0.1,0-0.2,0c-3.2,1-8.2,0.9-11.2-0.1C151.3,94.2,150.5,93.5,150.5,92.9z"/>
				<path class="st31" d="M153.1,91c-0.1,0-0.1,0-0.2,0c-3.2,1-3.2,2.6-0.1,3.7c3,1,8,1.1,11.2,0.1c0.1,0,0.1,0,0.2,0
					c3.2-1,3.2-2.6,0.1-3.7C161.3,90.1,156.3,90,153.1,91z"/>
			</g>
			<g>
				<path class="st30" d="M149.5,89.9l0,2.2c0,0.7,0.8,1.3,2.3,1.8c3,1,8,1.1,11.2,0.1c0.1,0,0.1,0,0.2,0c1.6-0.5,2.4-1.2,2.4-1.9
					l0-2.2c0,0.7-0.8,1.4-2.4,1.9c-0.1,0-0.1,0-0.2,0c-3.2,1-8.2,0.9-11.2-0.1C150.3,91.2,149.5,90.5,149.5,89.9z"/>
				<path class="st31" d="M152.1,88c-0.1,0-0.1,0-0.2,0c-3.2,1-3.2,2.6-0.1,3.7c3,1,8,1.1,11.2,0.1c0.1,0,0.1,0,0.2,0
					c3.2-1,3.2-2.6,0.1-3.7C160.3,87.1,155.3,87,152.1,88z"/>
			</g>
			<g>
				<path class="st30" d="M150.5,86.7l0,2.2c0,0.7,0.8,1.3,2.3,1.8c3,1,8,1.1,11.2,0.1c0.1,0,0.1,0,0.2,0c1.6-0.5,2.4-1.2,2.4-1.9
					l0-2.2c0,0.7-0.8,1.4-2.4,1.9c-0.1,0-0.1,0-0.2,0c-3.2,1-8.2,0.9-11.2-0.1C151.2,88,150.5,87.3,150.5,86.7z"/>
				<path class="st31" d="M153,84.8c-0.1,0-0.1,0-0.2,0c-3.2,1-3.2,2.6-0.1,3.7c3,1,8,1.1,11.2,0.1c0.1,0,0.1,0,0.2,0
					c3.2-1,3.2-2.6,0.1-3.7C161.2,83.9,156.2,83.8,153,84.8z"/>
			</g>
			<g>
				<g>
					<path class="st30" d="M149.9,83.7l0,2.2c0,0.7,0.8,1.3,2.3,1.8c3,1,8,1.1,11.2,0.1c0.1,0,0.1,0,0.2,0c1.6-0.5,2.4-1.2,2.4-1.9
						l0-2.2c0,0.7-0.8,1.4-2.4,1.9c-0.1,0-0.1,0-0.2,0c-3.2,1-8.2,0.9-11.2-0.1C150.6,85,149.9,84.3,149.9,83.7z"/>
					<path class="st30" d="M152.1,87.8c-1.5-0.5-2.4-1.2-2.4-2l0-2.2c0,0,0,0,0,0c0-0.1,0.1-0.1,0.1-0.1h0c0.1,0,0.1,0.1,0.1,0.1v0
						c0,0.6,0.8,1.2,2.2,1.7c3,1,8,1,11.1,0.1c0.1,0,0.1,0,0.2,0c1.5-0.5,2.3-1.1,2.3-1.7c0-0.1,0.1-0.1,0.1-0.1c0,0,0,0,0,0
						c0.1,0,0.1,0.1,0.1,0.1v0c0,0,0,0,0,0l0,2.2c0,0.8-0.9,1.5-2.5,2c-0.1,0-0.1,0-0.2,0c-1.6,0.5-3.5,0.7-5.5,0.7
						C155.8,88.6,153.7,88.3,152.1,87.8z M163.5,85.7c-0.1,0-0.1,0-0.2,0c-3.2,1-8.2,0.9-11.3-0.1c-1-0.3-1.7-0.8-2.1-1.2l0,1.4
						c0,0.6,0.8,1.2,2.2,1.7c3,1,8,1,11.1,0.1c0.1,0,0.1,0,0.2,0c1.5-0.5,2.3-1.1,2.3-1.7l0-1.4C165.4,84.9,164.6,85.3,163.5,85.7z"
						/>
				</g>
				<g>
					<path class="st32" d="M152.4,81.8c-0.1,0-0.1,0-0.2,0c-3.2,1-3.2,2.6-0.1,3.7c3,1,8,1.1,11.2,0.1c0.1,0,0.1,0,0.2,0
						c3.2-1,3.2-2.6,0.1-3.7C160.6,80.8,155.6,80.8,152.4,81.8z"/>
					<path class="st30" d="M152.1,85.6c-1.5-0.5-2.4-1.2-2.4-2c0-0.8,0.9-1.5,2.5-2c0.1,0,0.1,0,0.2,0h0c3.2-1,8.2-0.9,11.3,0.1
						c1.5,0.5,2.4,1.2,2.4,2c0,0.8-0.9,1.5-2.5,2c-0.1,0-0.1,0-0.2,0c-1.6,0.5-3.5,0.7-5.5,0.7C155.8,86.4,153.7,86.2,152.1,85.6z
						 M152.5,81.9L152.5,81.9c-0.1,0-0.1,0-0.2,0c-1.5,0.5-2.3,1.1-2.3,1.7c0,0.6,0.8,1.2,2.2,1.7c3,1,8,1,11.1,0.1
						c0.1,0,0.1,0,0.2,0c1.5-0.5,2.3-1.1,2.3-1.7c0-0.6-0.8-1.2-2.2-1.7c-1.6-0.5-3.7-0.8-5.7-0.8C155.9,81.2,154,81.4,152.5,81.9z"
						/>
				</g>
			</g>
		</g>
	</g>
	<g>
		<path class="st30" d="M176.7,96.8l-1.7,0.3c0.3,0.1,0.6,0.2,0.8,0.4l1.2-0.2l0.2,0.3l-1.2,0.2c0.2,0.5-0.4,1-1.6,1.2
			c1,0.2,2.2,0.6,3.4,0.9l-1.4,0.3c-1-0.3-2.1-0.6-3.3-0.9l-0.3-0.4l0.6-0.1c1-0.2,1.4-0.5,1.3-0.8l-2.3,0.4l-0.2-0.3l2.2-0.4
			c-0.3-0.2-0.9-0.2-1.7-0.1l-0.8,0.1l-0.3-0.4l4.7-0.9L176.7,96.8z"/>
	</g>
	<g>
		<path class="st30" d="M194.1,105.3l-1.7,0.3c0.3,0.1,0.6,0.2,0.8,0.4l1.2-0.2l0.2,0.3l-1.2,0.2c0.2,0.5-0.4,1-1.6,1.2
			c1,0.2,2.2,0.6,3.4,0.9l-1.4,0.3c-1-0.3-2.1-0.6-3.3-0.9l-0.3-0.4l0.6-0.1c1-0.2,1.4-0.5,1.3-0.8L190,107l-0.2-0.3l2.2-0.4
			c-0.3-0.2-0.9-0.2-1.7-0.1l-0.8,0.1l-0.3-0.4l4.7-0.9L194.1,105.3z"/>
	</g>
	<g>
		<path class="st30" d="M159.2,82.2l-1.8,0.4c0.4,0,0.7,0.1,1,0.3l1.3-0.3l0.3,0.3l-1.3,0.3c0.3,0.5-0.3,0.9-1.6,1.2
			c1.1,0.1,2.5,0.4,3.8,0.6l-1.5,0.3c-1.1-0.2-2.3-0.4-3.7-0.6l-0.4-0.4l0.7-0.1c1.1-0.2,1.5-0.5,1.3-0.8l-2.4,0.5l-0.3-0.3l2.3-0.5
			c-0.4-0.2-1-0.2-1.8,0l-0.8,0.2l-0.4-0.4l5-1.1L159.2,82.2z"/>
	</g>
</g>
</svg>
