<?xml version="1.0" encoding="utf-8"?>
<!-- Generator: Adobe Illustrator 25.3.0, SVG Export Plug-In . SVG Version: 6.00 Build 0)  -->
<svg version="1.1" id="Layer_1" xmlns="http://www.w3.org/2000/svg" xmlns:xlink="http://www.w3.org/1999/xlink" x="0px" y="0px"
	 viewBox="0 0 280 120" style="enable-background:new 0 0 280 120;" xml:space="preserve">
<style type="text/css">
	.st0{fill:url(#SVGID_1_);}
	.st1{fill:#1FBAEA;}
	.st2{fill:#FFFFFF;}
	.st3{fill:#00E0FD;}
	.st4{fill:#15849E;}
	.st5{fill:#FAE6E8;}
	.st6{fill:#EFA2AC;}
	.st7{fill:#D81E34;}
	.st8{fill:#97A16D;}
	.st9{fill:#FCF7F8;}
	.st10{fill:#FDFBFB;}
	.st11{fill:#F9F9F7;}
	.st12{fill:#B4232A;}
	.st13{fill:#B7242A;}
	.st14{fill:#FE7122;}
	.st15{fill:#F4282A;}
	.st16{fill:#BD252C;}
	.st17{fill:#FBD43C;}
	.st18{fill:#FE6625;}
	.st19{fill:#EB122D;}
	.st20{fill:#FAC545;}
	.st21{fill:#A6A29C;}
	.st22{fill:#97958F;}
	.st23{fill:#D6D3CE;}
	.st24{fill:#CBC8C4;}
	.st25{fill:#62625E;}
	.st26{opacity:0.67;fill:#CBC8C4;enable-background:new    ;}
	.st27{opacity:0.14;fill:#DFDDD8;enable-background:new    ;}
	.st28{opacity:0.67;fill:#CCCBC5;enable-background:new    ;}
	.st29{fill:#A19E98;}
	.st30{opacity:0.2;fill:#F8F7F4;enable-background:new    ;}
	.st31{fill:#C5C4BD;}
	.st32{opacity:0.67;fill:#DDDCD9;enable-background:new    ;}
	.st33{opacity:0.67;fill:#F7F4F4;enable-background:new    ;}
	.st34{fill:#EFEEEB;}
	.st35{opacity:0.45;fill:#F1EFED;enable-background:new    ;}
	.st36{opacity:0.11;fill:#DDDCD9;enable-background:new    ;}
</style>
<g>
	<g id="Layer_1_1_">
		
			<linearGradient id="SVGID_1_" gradientUnits="userSpaceOnUse" x1="259.2108" y1="-997.2826" x2="-23.3492" y2="-756.4126" gradientTransform="matrix(1 0 0 -1 0 -836)">
			<stop  offset="2.000000e-02" style="stop-color:#675AF5"/>
			<stop  offset="0.17" style="stop-color:#6051E9"/>
			<stop  offset="0.45" style="stop-color:#4E3AC8"/>
			<stop  offset="0.81" style="stop-color:#301593"/>
			<stop  offset="1" style="stop-color:#1F0075"/>
		</linearGradient>
		<rect x="-3.5" y="-3.2" class="st0" width="288.5" height="127"/>
		<path class="st1" d="M280.4,27.8h-61.5c-3.3,0-6-2.7-6-6v-10c0-3.3,2.7-6,6-6h61.5l0,0V27.8L280.4,27.8z"/>
		<path class="st2" d="M221.9,21.5c0-0.1-0.1-0.1-0.1-0.2V14c0-0.1,0-0.1,0.1-0.2c0-0.1,0.1-0.1,0.2-0.1h0.9c0.1,0,0.3,0.1,0.3,0.2
			l3.2,5V14c0-0.1,0-0.1,0.1-0.2c0.1-0.1,0.1-0.1,0.2-0.1h1c0.1,0,0.2,0,0.2,0.1c0.1,0.1,0.1,0.1,0.1,0.2v7.3c0,0.1,0,0.1-0.1,0.2
			s-0.1,0.1-0.2,0.1H227c-0.1,0-0.3-0.1-0.3-0.2l-3.2-4.9v4.8c0,0.1,0,0.1-0.1,0.2s-0.1,0.1-0.2,0.1h-1
			C222,21.6,221.9,21.6,221.9,21.5z"/>
		<path class="st2" d="M229.9,21.5c-0.1,0-0.1-0.1-0.1-0.2V14c0-0.1,0-0.1,0.1-0.2c0.1-0.1,0.1-0.1,0.2-0.1h4.9c0.1,0,0.1,0,0.2,0.1
			c0.1,0.1,0.1,0.1,0.1,0.2v0.8c0,0.1,0,0.1-0.1,0.2c-0.1,0-0.1,0.1-0.2,0.1h-3.6v2.1h3.4c0.1,0,0.1,0,0.2,0.1
			c0.1,0,0.1,0.1,0.1,0.2v0.8c0,0.1,0,0.1-0.1,0.2s-0.1,0.1-0.2,0.1h-3.4v2.8c0,0.1,0,0.1-0.1,0.2s-0.1,0.1-0.2,0.1h-1
			C230,21.6,229.9,21.6,229.9,21.5z"/>
		<path class="st2" d="M237.2,20.9c-0.6-0.6-0.9-1.4-0.9-2.3c0-0.2,0-0.5,0-1s0-0.8,0-1c0-0.9,0.3-1.7,0.9-2.3
			c1.4-1.1,3.4-1.1,4.8,0c0.6,0.6,1,1.4,0.9,2.3c0,0.4,0,0.8,0,1s0,0.5,0,1c0,0.9-0.3,1.7-0.9,2.3C240.6,21.9,238.6,21.9,237.2,20.9
			z M240.8,19.9c0.3-0.4,0.5-0.9,0.5-1.4s0-0.8,0-0.9s0-0.5,0-0.9c0-0.5-0.1-1-0.5-1.4c-0.7-0.6-1.7-0.6-2.4,0
			c-0.3,0.4-0.5,0.9-0.5,1.4c0,0.2,0,0.5,0,0.9s0,0.7,0,0.9c0,0.5,0.1,1,0.5,1.4c0.3,0.3,0.8,0.5,1.2,0.5S240.5,20.2,240.8,19.9
			L240.8,19.9z"/>
		<path class="st2" d="M246,21.5c0,0-0.1-0.1-0.1-0.2v-0.1l2.8-7.2c0.1-0.2,0.2-0.3,0.4-0.3h1.2c0.2,0,0.4,0.1,0.4,0.3l2.7,7.3v0.1
			c0,0.1,0,0.1-0.1,0.2c0,0-0.1,0.1-0.2,0.1h-1c-0.1,0-0.3-0.1-0.3-0.2l-0.5-1.4H248l-0.5,1.4c0,0.1-0.2,0.2-0.3,0.2h-1
			C246.1,21.6,246.1,21.6,246,21.5z M248.4,18.7h2.6l-1.3-3.5L248.4,18.7z"/>
		<path class="st2" d="M254.5,21.5c-0.1-0.1-0.1-0.1-0.1-0.2v-7.5c0-0.1,0-0.1,0.1-0.2c0-0.1,0.1-0.1,0.2-0.1h0.9
			c0.1,0,0.1,0,0.2,0.1c0.1,0.1,0.1,0.1,0.1,0.2v7.5c0,0.1,0,0.1-0.1,0.2s-0.1,0.1-0.2,0.1h-0.9C254.6,21.6,254.5,21.6,254.5,21.5z"
			/>
		<path class="st2" d="M257.9,21c-0.5-0.6-0.8-1.3-0.8-2.1v-0.3c0-0.8,0.2-1.6,0.7-2.2c1.2-1.1,3-1.1,4.1,0c0.5,0.6,0.8,1.4,0.7,2.2
			v0.2c0,0.1,0,0.1-0.1,0.2s-0.1,0.1-0.2,0.1h-3.8v0.1c0,0.4,0.1,0.7,0.4,1c0.2,0.3,0.5,0.4,0.9,0.4s0.8-0.2,1-0.5
			c0-0.1,0.1-0.1,0.2-0.1s0.1,0,0.2,0h1c0.1,0,0.1,0,0.2,0.1l0.1,0.1c0,0.2-0.1,0.5-0.3,0.6c-0.3,0.3-0.6,0.5-0.9,0.6
			c-0.4,0.2-0.9,0.3-1.4,0.3C259.2,21.7,258.5,21.5,257.9,21z M261.2,18.1L261.2,18.1c0-0.4-0.1-0.8-0.3-1.1
			c-0.2-0.3-0.6-0.4-0.9-0.4s-0.7,0.1-0.9,0.4c-0.2,0.3-0.3,0.7-0.3,1.1l0,0H261.2z"/>
		<path class="st2" d="M264,21.5c-0.1,0-0.1-0.1-0.1-0.2V16c0-0.1,0-0.1,0.1-0.2c0-0.1,0.1-0.1,0.2-0.1h0.9c0.1,0,0.3,0.1,0.3,0.3
			l0,0v0.5c0.4-0.5,1-0.8,1.6-0.8h0.5c0.1,0,0.1,0,0.2,0.1c0.1,0,0.1,0.1,0.1,0.2v0.8c0,0.1,0,0.1-0.1,0.2s-0.1,0.1-0.2,0.1h-0.9
			c-0.6-0.1-1.1,0.4-1.1,1c0,0.1,0,0.1,0,0.2v3.1c0,0.1,0,0.1-0.1,0.2c-0.1,0-0.1,0.1-0.2,0.1h-1C264.1,21.6,264,21.6,264,21.5z"/>
		<path class="st2" d="M269.8,21c-0.4-0.4-0.6-1-0.5-1.6v-2.5h-0.9c-0.1,0-0.3-0.1-0.3-0.3V16c0-0.1,0.1-0.3,0.3-0.3h0.9v-1.9
			c0-0.1,0-0.1,0.1-0.2c0.1,0,0.1-0.1,0.2-0.1h0.9c0.1,0,0.1,0,0.2,0.1s0.1,0.1,0.1,0.2v1.9h1.4c0.1,0,0.3,0.1,0.3,0.3v0.7
			c0,0.1-0.1,0.3-0.3,0.3h-1.4v2.4c0,0.3,0,0.5,0.2,0.7c0.1,0.2,0.3,0.3,0.6,0.2h0.8c0.1,0,0.1,0,0.2,0.1s0.1,0.1,0.1,0.2v0.7
			c0,0.1,0,0.1-0.1,0.2s-0.1,0.1-0.2,0.1h-0.9C270.8,21.6,270.2,21.4,269.8,21z"/>
		<path class="st2" d="M18.7,31.1c-0.1-0.1-0.1-0.1-0.1-0.2v-0.1l3.6-10c0.1-0.3,0.3-0.5,0.6-0.5h2.4c0.3,0,0.6,0.2,0.6,0.5l3.6,10
			v0.1c0,0.1,0,0.2-0.1,0.2c-0.1,0.1-0.1,0.1-0.2,0.1h-2c-0.2,0-0.4-0.1-0.5-0.4L26,29.3h-4.1l-0.6,1.5c-0.1,0.2-0.3,0.4-0.5,0.4
			L18.7,31.1C18.9,31.3,18.8,31.2,18.7,31.1z M22.7,27.1h2.8l-1.4-4L22.7,27.1z"/>
		<path class="st2" d="M31.2,30.5c-0.6-0.8-0.9-1.7-0.9-2.7v-1.1c0-1,0.3-1.9,0.9-2.6s1.5-1,2.4-1c0.8,0,1.7,0.3,2.3,0.9v-3.4
			c0-0.1,0-0.2,0.1-0.3c0.1-0.1,0.2-0.1,0.3-0.1h2c0.1,0,0.2,0,0.3,0.1s0.1,0.2,0.1,0.3v10.3c0,0.1,0,0.2-0.1,0.3
			c-0.1,0.1-0.2,0.1-0.3,0.1h-1.8c-0.1,0-0.2,0-0.3-0.1C36.1,31.1,36,31,36,30.9v-0.5c-0.6,0.7-1.5,1.1-2.4,1
			C32.7,31.4,31.8,31.1,31.2,30.5z M35.5,28.8c0.2-0.3,0.4-0.7,0.4-1.1c0-0.3,0-0.5,0-0.6s0-0.3,0-0.6c0-0.4-0.1-0.7-0.4-1
			c-0.3-0.3-0.6-0.4-1-0.4s-0.8,0.1-1,0.4s-0.3,0.7-0.3,1.1v1c0,0.4,0.1,0.8,0.3,1.1c0.2,0.3,0.6,0.4,1,0.4
			C34.9,29.3,35.3,29.1,35.5,28.8z"/>
		<path class="st2" d="M40.6,21.9c-0.1-0.1-0.1-0.2-0.1-0.3v-1.4c0-0.1,0-0.2,0.1-0.3c0.1-0.1,0.2-0.1,0.3-0.1h2
			c0.1,0,0.2,0,0.3,0.1s0.1,0.2,0.1,0.3v1.5c0,0.1,0,0.2-0.1,0.3c-0.2,0-0.3,0-0.4,0h-2C40.7,22,40.6,22,40.6,21.9z M40.6,31.1
			c-0.1-0.1-0.1-0.2-0.1-0.3v-7.3c0-0.1,0-0.2,0.1-0.3c0.1-0.1,0.2-0.1,0.3-0.1h2c0.1,0,0.2,0,0.3,0.1s0.1,0.2,0.1,0.3v7.3
			c0,0.1,0,0.2-0.1,0.3c-0.1,0.1-0.2,0.1-0.3,0.1H41C40.7,31.3,40.6,31.2,40.6,31.1L40.6,31.1z"/>
		<path class="st2" d="M45.9,28.1v-2.9h-1.2c-0.1,0-0.2,0-0.3-0.1s-0.1-0.2-0.1-0.3v-1.3c0-0.1,0-0.2,0.1-0.3
			c0.1-0.1,0.2-0.1,0.3-0.1h1.2v-2.6c0-0.1,0-0.2,0.1-0.3c0.1-0.1,0.2-0.1,0.3-0.1h1.9c0.2,0,0.4,0.2,0.4,0.4l0,0v2.6h2
			c0.1,0,0.2,0,0.3,0.1s0.1,0.2,0.1,0.3v1.3c0,0.1,0,0.2-0.1,0.3c-0.1,0.1-0.2,0.1-0.3,0.1h-1.9v2.7c0,0.3,0.1,0.6,0.2,0.8
			c0.2,0.2,0.4,0.3,0.7,0.3h1.2c0.1,0,0.2,0,0.3,0.1s0.1,0.2,0.1,0.3v1.4c0,0.1,0,0.2-0.1,0.3c-0.1,0.1-0.2,0.1-0.3,0.1h-1.5
			C47,31.3,45.9,30.2,45.9,28.1z"/>
		<path class="st2" d="M53.7,34.1c-0.1-0.1-0.1-0.2-0.1-0.2c0-0.1,0-0.1,0-0.2l1.2-2.9l-3-7.1c0-0.1,0-0.1,0-0.2s0.1-0.2,0.1-0.3
			c0.1-0.1,0.1-0.1,0.2-0.1H54c0.2,0,0.4,0.1,0.5,0.3l1.7,4.4l1.8-4.4c0.1-0.2,0.3-0.3,0.5-0.3h1.8c0.1,0,0.2,0,0.2,0.1
			c0.1,0.1,0.1,0.1,0.1,0.2s0,0.1,0,0.2l-4.4,10.2c-0.1,0.2-0.3,0.3-0.5,0.3h-1.8C53.8,34.2,53.7,34.2,53.7,34.1z"/>
		<path class="st2" d="M62.3,31.1c-0.4-0.2-0.8-0.5-1.1-0.9c-0.2-0.4-0.4-0.8-0.4-1.2c0-0.7,0.3-1.3,0.9-1.7
			c0.7-0.5,1.6-0.8,2.4-0.9l1.9-0.3v-0.2c0-0.3-0.1-0.6-0.2-0.8c-0.2-0.2-0.5-0.3-0.8-0.3c-0.2,0-0.4,0-0.5,0.1
			c-0.2,0.1-0.3,0.2-0.5,0.3c-0.1,0.1-0.2,0.2-0.4,0.2c0,0.1-0.1,0.1-0.2,0.1h-1.8c-0.1,0-0.2,0-0.3-0.1s-0.1-0.2-0.1-0.2
			c0-0.4,0.2-0.7,0.4-1c0.3-0.4,0.8-0.7,1.2-0.9c0.6-0.3,1.3-0.4,2.1-0.4c1-0.1,2.1,0.2,2.9,0.9c0.6,0.6,1,1.4,0.9,2.3v4.7
			c0,0.1,0,0.2-0.1,0.3c-0.1,0.1-0.2,0.1-0.3,0.1h-1.9c-0.1,0-0.2,0-0.3-0.1C66,31,66,30.9,66,30.8v-0.5c-0.3,0.3-0.6,0.6-1,0.8
			c-0.5,0.2-0.9,0.3-1.5,0.3C63.3,31.4,62.8,31.3,62.3,31.1z M65.8,29.1c0.3-0.4,0.5-0.8,0.4-1.3v-0.2l-1.3,0.2
			c-0.9,0.2-1.3,0.5-1.3,0.9c0,0.2,0.1,0.5,0.3,0.6c0.2,0.2,0.5,0.2,0.8,0.2C65,29.6,65.5,29.4,65.8,29.1L65.8,29.1z"/>
		<path class="st2" d="M74.2,31.1c-0.1-0.1-0.1-0.2-0.1-0.3V20.7c0-0.1,0-0.2,0.1-0.3c0.1-0.1,0.2-0.1,0.3-0.1h4.8
			c1.1-0.1,2.1,0.2,3,0.8c0.7,0.6,1,1.4,1,2.3c0,0.5-0.1,0.9-0.4,1.3c-0.2,0.3-0.5,0.6-0.9,0.8c0.4,0.2,0.8,0.5,1.1,0.9
			c0.3,0.4,0.4,0.9,0.4,1.5c0.1,0.9-0.3,1.8-1,2.5c-0.9,0.6-1.9,1-3,0.9h-5C74.4,31.3,74.3,31.2,74.2,31.1z M79,24.6
			c0.3,0,0.6-0.1,0.9-0.3c0.2-0.2,0.3-0.5,0.3-0.8s-0.1-0.6-0.3-0.8c-0.2-0.2-0.6-0.3-0.9-0.3h-2v2.2L79,24.6z M79.1,29.1
			c0.4,0,0.7-0.1,1-0.4c0.2-0.2,0.3-0.5,0.3-0.9c0-0.3-0.1-0.6-0.3-0.9c-0.2-0.2-0.6-0.4-0.9-0.4H77V29L79.1,29.1L79.1,29.1z"/>
		<path class="st2" d="M85.1,21.9C85,21.8,85,21.7,85,21.6v-1.4c0-0.1,0-0.2,0.1-0.3c0.1-0.1,0.2-0.1,0.3-0.1h2c0.1,0,0.2,0,0.3,0.1
			c0.1,0.1,0.1,0.2,0.1,0.3v1.5c0,0.2-0.2,0.4-0.4,0.4l0,0h-2C85.3,22,85.2,22,85.1,21.9z M85.1,31.1C85,31.1,85,31,85,30.9v-7.3
			c0-0.1,0-0.2,0.1-0.3c0.1-0.1,0.2-0.1,0.3-0.1h2c0.1,0,0.2,0,0.3,0.1c0.1,0.1,0.1,0.2,0.1,0.3v7.3c0,0.1,0,0.2-0.1,0.3
			c-0.1,0.1-0.2,0.1-0.3,0.1h-2C85.3,31.3,85.2,31.2,85.1,31.1L85.1,31.1z"/>
		<path class="st2" d="M89.6,31.1c-0.1-0.1-0.1-0.2-0.1-0.3v-7.3c0-0.1,0-0.2,0.1-0.3c0.1-0.1,0.2-0.1,0.3-0.1h1.9
			c0.2,0,0.4,0.2,0.4,0.4v0.6c0.3-0.3,0.6-0.6,1-0.7c0.4-0.2,0.9-0.3,1.3-0.3h0.7c0.1,0,0.2,0,0.3,0.1c0.1,0.1,0.1,0.2,0.1,0.3v1.7
			c0,0.1,0,0.2-0.1,0.3c-0.1,0.1-0.2,0.1-0.3,0.1h-1.6c-0.4,0-0.7,0.1-1,0.3c-0.2,0.3-0.4,0.6-0.3,1v3.9c0,0.1,0,0.2-0.1,0.3
			c-0.1,0.1-0.2,0.1-0.3,0.1h-2C89.8,31.3,89.7,31.2,89.6,31.1z"/>
		<path class="st2" d="M96.8,31.1c-0.1-0.1-0.1-0.2-0.1-0.3V20.6c0-0.1,0-0.2,0.1-0.3c0.1-0.1,0.2-0.1,0.3-0.1h2
			c0.1,0,0.2,0,0.3,0.1c0.1,0.1,0.1,0.2,0.1,0.3v10.3c0,0.1,0,0.2-0.1,0.3c-0.1,0.1-0.2,0.1-0.3,0.1h-2C97,31.3,96.9,31.2,96.8,31.1
			z"/>
		<path class="st2" d="M102.2,31.1c-0.4-0.2-0.8-0.5-1.1-0.9c-0.3-0.4-0.4-0.8-0.4-1.2c0-0.7,0.3-1.3,0.9-1.7
			c0.7-0.5,1.6-0.8,2.4-0.9l2-0.3v-0.2c0-0.3-0.1-0.6-0.2-0.8c-0.2-0.2-0.5-0.3-0.8-0.3c-0.2,0-0.4,0-0.5,0.1
			c-0.2,0.1-0.3,0.2-0.5,0.3c-0.1,0.1-0.2,0.2-0.4,0.2c0,0.1-0.1,0.1-0.2,0.1h-1.8c-0.1,0-0.2,0-0.2-0.1c-0.1-0.1-0.1-0.2-0.1-0.2
			c0-0.4,0.2-0.7,0.4-1c0.3-0.4,0.8-0.7,1.2-0.9c0.6-0.3,1.3-0.4,2-0.4c1-0.1,2.1,0.2,2.9,0.9c0.6,0.6,1,1.4,0.9,2.3v4.7
			c0,0.1,0,0.2-0.1,0.3c-0.1,0.1-0.2,0.1-0.3,0.1h-1.9c-0.1,0-0.2,0-0.3-0.1c-0.1-0.1-0.1-0.2-0.1-0.3v-0.5c-0.3,0.3-0.6,0.6-1,0.8
			c-0.5,0.2-1,0.3-1.4,0.3C103.1,31.4,102.6,31.3,102.2,31.1z M105.6,29.1c0.3-0.4,0.5-0.8,0.4-1.3v-0.2l-1.3,0.2
			c-0.9,0.2-1.3,0.5-1.3,0.9c0,0.2,0.1,0.5,0.3,0.6c0.2,0.2,0.5,0.2,0.8,0.2C104.9,29.6,105.3,29.4,105.6,29.1L105.6,29.1z"/>
		<path class="st2" d="M115.5,31c-0.6-0.2-1.2-0.6-1.6-1.1c-0.4-0.4-0.6-1-0.6-1.6c0-0.1,0-0.2,0.1-0.2c0.1-0.1,0.2-0.1,0.2-0.1h2.1
			c0.1,0,0.2,0,0.3,0.1c0.1,0.1,0.2,0.1,0.3,0.2c0.1,0.3,0.4,0.5,0.6,0.6c0.4,0.2,0.8,0.3,1.2,0.2c0.4,0,0.9-0.1,1.3-0.3
			c0.3-0.1,0.5-0.4,0.5-0.7c0-0.2-0.1-0.4-0.2-0.5c-0.2-0.2-0.5-0.3-0.8-0.4s-0.8-0.2-1.5-0.4c-1-0.1-2-0.5-2.8-1.1
			c-0.6-0.5-1-1.3-0.9-2.2c0-0.6,0.2-1.2,0.5-1.7c0.4-0.5,0.9-0.9,1.5-1.2c0.7-0.3,1.5-0.4,2.3-0.4s1.6,0.1,2.4,0.5
			c0.6,0.3,1.1,0.7,1.6,1.2c0.3,0.4,0.5,0.9,0.6,1.4c0,0.2-0.1,0.3-0.3,0.4h-2.2c-0.2,0-0.4-0.1-0.5-0.3c-0.1-0.2-0.3-0.4-0.5-0.5
			c-0.3-0.2-0.7-0.2-1-0.2s-0.7,0.1-1,0.2c-0.2,0.1-0.4,0.4-0.4,0.7c0,0.3,0.2,0.6,0.5,0.7c0.6,0.3,1.1,0.4,1.8,0.5
			c0.8,0.1,1.6,0.3,2.3,0.7c0.5,0.2,1,0.6,1.3,1c0.3,0.5,0.4,1,0.4,1.6c0,0.7-0.2,1.3-0.6,1.8s-1,1-1.7,1.2
			c-0.8,0.3-1.6,0.4-2.5,0.4C117.2,31.4,116.3,31.3,115.5,31z"/>
		<path class="st2" d="M124.9,30.5c-0.6-0.7-0.9-1.7-0.8-2.6v-4.3c0-0.2,0.2-0.4,0.4-0.4h2.1c0.1,0,0.2,0,0.3,0.1
			c0.1,0.1,0.1,0.2,0.1,0.3v4.3c0,1,0.4,1.5,1.3,1.5c0.4,0,0.7-0.1,1-0.4s0.4-0.7,0.4-1.1v-4.3c0-0.1,0-0.2,0.1-0.3
			c0.1-0.1,0.2-0.1,0.3-0.1h2c0.2,0,0.4,0.2,0.4,0.4l0,0v7.3c0,0.1,0,0.2-0.1,0.3c-0.1,0.1-0.2,0.1-0.3,0.1h-1.9
			c-0.1,0-0.2,0-0.3-0.1s-0.1-0.2-0.1-0.3v-0.6c-0.6,0.8-1.6,1.2-2.6,1.1C126.3,31.4,125.5,31.1,124.9,30.5z"/>
		<path class="st2" d="M134.3,31.1c-0.1-0.1-0.1-0.2-0.1-0.3v-7.3c0-0.1,0-0.2,0.1-0.3c0.1-0.1,0.2-0.1,0.3-0.1h1.9
			c0.2,0,0.4,0.2,0.4,0.4l0,0v0.6c0.3-0.4,0.7-0.6,1.1-0.8c0.5-0.2,1-0.3,1.5-0.3c0.6,0,1.1,0.1,1.6,0.4s0.9,0.7,1.1,1.2
			c0.3,0.6,0.4,1.3,0.4,1.9v4.4c0,0.1,0,0.2-0.1,0.3c-0.1,0.1-0.2,0.1-0.3,0.1h-2.1c-0.1,0-0.2,0-0.3-0.1s-0.1-0.2-0.1-0.3v-4.3
			c0-0.4-0.1-0.8-0.3-1.1c-0.3-0.3-0.6-0.4-1-0.4s-0.7,0.1-1,0.4s-0.4,0.7-0.4,1.1v4.3c0,0.1,0,0.2-0.1,0.3
			c-0.1,0.1-0.2,0.1-0.3,0.1h-2C134.5,31.3,134.4,31.2,134.3,31.1z"/>
		<path class="st2" d="M19.7,50.1c-0.1-0.1-0.1-0.2-0.1-0.3V39.7c0-0.1,0-0.2,0.1-0.3s0.2-0.1,0.3-0.1h2.2c0.1,0,0.2,0,0.3,0.1
			c0.1,0.1,0.1,0.2,0.1,0.3v8.1h4.7c0.1,0,0.2,0,0.3,0.1c0.1,0.1,0.1,0.2,0.1,0.3v1.7c0,0.1,0,0.2-0.1,0.3s-0.2,0.1-0.3,0.1H20
			C19.9,50.2,19.8,50.2,19.7,50.1z"/>
		<path class="st2" d="M28.9,40.8c-0.1-0.1-0.1-0.2-0.1-0.3v-1.4c0-0.1,0-0.2,0.1-0.3s0.2-0.1,0.3-0.1h2c0.1,0,0.2,0,0.3,0.1
			c0.1,0.1,0.1,0.2,0.1,0.3v1.5c0,0.1,0,0.2-0.1,0.3S31.3,41,31.2,41h-2C29.1,41,29,40.9,28.9,40.8z M28.9,50.1
			c-0.1-0.1-0.1-0.2-0.1-0.3v-7.3c0-0.1,0-0.2,0.1-0.3s0.2-0.1,0.3-0.1h2c0.1,0,0.2,0,0.3,0.1c0.1,0.1,0.1,0.2,0.1,0.3v7.3
			c0,0.1,0,0.2-0.1,0.3s-0.2,0.1-0.3,0.1h-1.9C29.1,50.2,29,50.2,28.9,50.1L28.9,50.1z"/>
		<path class="st2" d="M34.3,50.1c-0.1-0.1-0.1-0.2-0.1-0.3v-5.6H33c-0.1,0-0.2,0-0.3-0.1s-0.1-0.2-0.1-0.3v-1.3
			c0-0.1,0-0.2,0.1-0.3s0.2-0.1,0.3-0.1h1.2v-0.5c-0.1-0.9,0.3-1.7,0.9-2.3c0.8-0.5,1.7-0.8,2.6-0.7H39c0.1,0,0.2,0,0.3,0.1
			s0.1,0.2,0.1,0.3v1.3c0,0.1,0,0.2-0.1,0.3s-0.2,0.1-0.3,0.1h-1.1c-0.3,0-0.5,0.1-0.7,0.2C37,41.1,37,41.3,37,41.6V42h1.9
			c0.1,0,0.2,0,0.3,0.1s0.1,0.2,0.1,0.3v1.3c0,0.1,0,0.2-0.1,0.3s-0.2,0.1-0.3,0.1H37v5.6c0,0.2-0.2,0.4-0.4,0.4l0,0h-1.9
			C34.5,50.2,34.4,50.2,34.3,50.1z"/>
		<path class="st2" d="M41,49.3c-0.8-0.8-1.2-1.9-1.1-3v-0.5c0-1.1,0.4-2.1,1.1-2.9c0.8-0.7,1.9-1.1,3-1c0.8,0,1.6,0.2,2.3,0.5
			c0.6,0.3,1.1,0.8,1.4,1.5c0.3,0.7,0.5,1.4,0.5,2.2v0.4c0,0.2-0.1,0.4-0.4,0.4l0,0h-5V47c0,0.4,0.1,0.8,0.3,1.1s0.5,0.5,0.9,0.4
			c0.2,0,0.4,0,0.6-0.2c0.2-0.1,0.3-0.3,0.5-0.4c0.1-0.2,0.3-0.3,0.5-0.2h2c0.1,0,0.2,0,0.2,0.1c0.1,0.1,0.1,0.1,0.1,0.2
			c0,0.4-0.2,0.7-0.5,1c-0.4,0.4-0.8,0.7-1.3,0.9c-0.7,0.3-1.4,0.4-2.1,0.4C42.9,50.4,41.8,50,41,49.3z M45.2,45.3L45.2,45.3
			c0-0.4-0.1-0.8-0.3-1.2c-0.2-0.3-0.5-0.5-0.9-0.5s-0.7,0.1-0.9,0.4c-0.2,0.3-0.3,0.7-0.3,1.2l0,0L45.2,45.3z"/>
		<path class="st2" d="M54.5,49.9c-0.6-0.2-1.2-0.6-1.6-1.2c-0.3-0.4-0.5-1-0.6-1.6c0-0.1,0-0.2,0.1-0.2c0.1-0.1,0.2-0.1,0.2-0.1
			h2.1c0.1,0,0.2,0,0.3,0.1s0.2,0.1,0.3,0.2c0.1,0.3,0.4,0.5,0.6,0.6c0.4,0.2,0.8,0.3,1.2,0.2c0.4,0,0.9-0.1,1.3-0.3
			c0.3-0.1,0.4-0.4,0.5-0.7c0-0.2-0.1-0.4-0.2-0.5c-0.2-0.2-0.5-0.3-0.8-0.4c-0.5-0.1-1-0.3-1.5-0.4c-1-0.2-2-0.5-2.8-1.1
			c-0.6-0.5-1-1.4-0.9-2.2c0-0.6,0.2-1.2,0.5-1.7c0.4-0.5,0.9-0.9,1.5-1.2c0.7-0.3,1.5-0.4,2.3-0.4s1.6,0.1,2.4,0.5
			c0.6,0.3,1.1,0.7,1.5,1.2c0.3,0.4,0.5,0.9,0.6,1.4c0,0.1,0,0.2-0.1,0.2c-0.1,0.1-0.1,0.1-0.2,0.1H59c-0.2,0-0.4-0.1-0.5-0.3
			s-0.2-0.4-0.5-0.6c-0.3-0.2-0.7-0.2-1-0.2s-0.7,0.1-1,0.2c-0.2,0.1-0.4,0.4-0.4,0.7s0.2,0.6,0.5,0.7c0.6,0.2,1.1,0.4,1.8,0.5
			c0.8,0.1,1.6,0.3,2.3,0.7c0.5,0.2,1,0.6,1.3,1c0.3,0.5,0.4,1,0.4,1.6c0,0.7-0.2,1.3-0.6,1.8c-0.4,0.6-1,1-1.7,1.3
			c-0.8,0.3-1.6,0.4-2.5,0.4C56.2,50.4,55.4,50.3,54.5,49.9z"/>
		<path class="st2" d="M63.3,40.8c-0.1-0.1-0.1-0.2-0.1-0.3v-1.4c0-0.1,0-0.2,0.1-0.3s0.2-0.1,0.3-0.1h2c0.2,0,0.4,0.1,0.4,0.4l0,0
			v1.5c0,0.2-0.2,0.4-0.4,0.4l0,0h-2C63.5,41,63.4,40.9,63.3,40.8z M63.3,50.1c-0.1-0.1-0.1-0.2-0.1-0.3v-7.3c0-0.1,0-0.2,0.1-0.3
			s0.2-0.1,0.3-0.1h2c0.1,0,0.2,0,0.3,0.1c0.1,0.1,0.1,0.2,0.1,0.3v7.3c0,0.1,0,0.2-0.1,0.3s-0.2,0.1-0.3,0.1h-2
			C63.5,50.2,63.4,50.2,63.3,50.1L63.3,50.1z"/>
		<path class="st2" d="M67.8,50.1c-0.1-0.1-0.1-0.2-0.1-0.3V39.5c0-0.1,0-0.2,0.1-0.3s0.2-0.1,0.3-0.1h2c0.1,0,0.2,0,0.3,0.1
			c0.1,0.1,0.1,0.2,0.1,0.3v10.3c0,0.1,0,0.2-0.1,0.3s-0.2,0.1-0.3,0.1h-2C68,50.2,67.9,50.2,67.8,50.1z"/>
		<path class="st2" d="M74.8,50.1c-0.1-0.1-0.2-0.2-0.2-0.3l-3-7.2v-0.1c0-0.1,0-0.2,0.1-0.2c0.1-0.1,0.2-0.1,0.3-0.1h1.9
			c0.2,0,0.4,0.1,0.5,0.3l1.7,4.7l1.7-4.7c0-0.1,0.1-0.2,0.2-0.2c0.1-0.1,0.2-0.1,0.3-0.1H80c0.1,0,0.2,0,0.2,0.1
			c0.1,0.1,0.1,0.2,0.1,0.2v0.1l-3,7.2c0,0.1-0.1,0.2-0.2,0.3s-0.2,0.1-0.3,0.1h-1.7C75,50.2,74.9,50.2,74.8,50.1z"/>
		<path class="st2" d="M82.1,49.3c-0.8-0.8-1.2-1.9-1.1-3v-0.5c0-1.1,0.4-2.1,1.2-2.9c0.8-0.7,1.9-1.1,3-1c0.8,0,1.6,0.2,2.3,0.5
			c0.6,0.3,1.1,0.8,1.3,1.5c0.3,0.7,0.5,1.4,0.5,2.2v0.4c0,0.2-0.1,0.4-0.4,0.4l0,0h-5V47c0,0.4,0.1,0.8,0.3,1.1
			c0.2,0.3,0.5,0.5,0.9,0.4c0.2,0,0.4,0,0.6-0.2c0.2-0.1,0.3-0.3,0.5-0.4c0.1-0.2,0.3-0.3,0.5-0.2h2c0.1,0,0.2,0,0.2,0.1
			C89,47.9,89,47.9,89,48c0,0.4-0.2,0.7-0.5,1c-0.4,0.4-0.8,0.7-1.3,0.9c-0.7,0.3-1.4,0.4-2.1,0.4C84,50.4,82.9,50,82.1,49.3z
			 M86.3,45.3L86.3,45.3c0-0.4-0.1-0.9-0.3-1.2c-0.2-0.3-0.6-0.4-0.9-0.4c-0.4,0-0.7,0.1-0.9,0.4c-0.2,0.3-0.3,0.7-0.3,1.2l0,0H86.3
			z"/>
		<path class="st2" d="M90.7,50.1c-0.1-0.1-0.1-0.2-0.1-0.3v-7.3c0-0.1,0-0.2,0.1-0.3s0.2-0.1,0.3-0.1h1.9c0.1,0,0.2,0,0.3,0.1
			c0.1,0.1,0.1,0.2,0.1,0.3v0.6c0.3-0.3,0.6-0.6,1-0.7c0.4-0.2,0.9-0.3,1.3-0.3h0.7c0.1,0,0.2,0,0.3,0.1c0.1,0.1,0.1,0.2,0.1,0.3
			v1.7c0,0.1,0,0.2-0.1,0.3s-0.2,0.1-0.3,0.1h-1.6c-0.4,0-0.7,0.1-1,0.3c-0.2,0.3-0.4,0.6-0.3,1v3.9c0,0.1,0,0.2-0.1,0.3
			s-0.2,0.1-0.3,0.1h-2C90.9,50.2,90.8,50.2,90.7,50.1z"/>
		<path class="st2" d="M101.1,50.1c-0.1-0.1-0.1-0.2-0.1-0.3V39.7c0-0.1,0-0.2,0.1-0.3s0.2-0.1,0.3-0.1h7.4c0.1,0,0.2,0,0.3,0.1
			c0.1,0.1,0.1,0.2,0.1,0.3v1.5c0,0.1,0,0.2-0.1,0.3s-0.2,0.1-0.3,0.1h-4.9v2h4.6c0.2,0,0.4,0.2,0.4,0.4v1.4c0,0.2-0.2,0.4-0.4,0.4
			h-4.6v2h5c0.2,0,0.4,0.2,0.4,0.4l0,0v1.5c0,0.1,0,0.2-0.1,0.3s-0.2,0.1-0.3,0.1h-7.5C101.2,50.2,101.1,50.2,101.1,50.1z"/>
		<path class="st2" d="M113.5,50.1c-0.1-0.1-0.1-0.2-0.1-0.3v-8h-2.8c-0.1,0-0.2,0-0.3-0.1c-0.1-0.1-0.1-0.2-0.1-0.3v-1.7
			c0-0.1,0-0.2,0.1-0.3s0.2-0.1,0.3-0.1h8.5c0.1,0,0.2,0,0.3,0.1c0.1,0.1,0.1,0.2,0.1,0.3v1.8c0,0.1,0,0.2-0.1,0.3s-0.2,0.1-0.3,0.1
			h-2.8v8c0,0.1,0,0.2-0.1,0.3s-0.2,0.1-0.3,0.1h-2.2C113.7,50.2,113.6,50.2,113.5,50.1z"/>
		<path class="st2" d="M121,50.1c-0.1-0.1-0.1-0.2-0.1-0.3V39.7c0-0.1,0-0.2,0.1-0.3s0.2-0.1,0.3-0.1h7.3c0.1,0,0.2,0,0.3,0.1
			s0.1,0.2,0.1,0.3v1.7c0,0.1,0,0.2-0.1,0.3s-0.2,0.1-0.3,0.1h-4.8V44h4.5c0.1,0,0.2,0,0.3,0.1s0.1,0.2,0.1,0.3V46
			c0,0.1,0,0.2-0.1,0.3s-0.2,0.1-0.3,0.1h-4.5v3.5c0,0.1,0,0.2-0.1,0.3s-0.2,0.1-0.3,0.1h-2.1C121.2,50.2,121.1,50.2,121,50.1z"/>
		<path class="st2" d="M133.8,50.1c-0.1-0.1-0.1-0.2-0.1-0.3V39.7c0-0.1,0-0.2,0.1-0.3s0.2-0.1,0.3-0.1h7.3c0.1,0,0.2,0,0.3,0.1
			s0.1,0.2,0.1,0.3v1.7c0,0.1,0,0.2-0.1,0.3s-0.2,0.1-0.3,0.1h-4.8V44h4.5c0.1,0,0.2,0,0.3,0.1s0.1,0.2,0.1,0.3V46
			c0,0.1,0,0.2-0.1,0.3s-0.2,0.1-0.3,0.1h-4.5v3.5c0,0.2-0.2,0.4-0.4,0.4l0,0H134C133.9,50.2,133.8,50.2,133.8,50.1z"/>
		<path class="st2" d="M144.3,49.3c-0.9-0.8-1.4-2-1.4-3.2c0-0.3,0-0.7,0-1.3s0-1.1,0-1.4c0-1.2,0.5-2.4,1.4-3.2
			c2.1-1.5,4.9-1.5,7,0c0.9,0.8,1.4,2,1.4,3.2c0,0.6,0,1.1,0,1.4s0,0.8,0,1.3c0,1.2-0.5,2.4-1.4,3.2
			C149.2,50.7,146.4,50.7,144.3,49.3L144.3,49.3z M149.1,47.5c0.4-0.4,0.5-1,0.5-1.5c0-0.6,0-1,0-1.3s0-0.7,0-1.3s-0.2-1.1-0.5-1.5
			c-0.3-0.3-0.8-0.5-1.3-0.5s-1,0.2-1.3,0.5c-0.4,0.4-0.5,1-0.5,1.5c0,0.3,0,0.7,0,1.3s0,1,0,1.3c0,0.6,0.2,1.1,0.5,1.5
			c0.4,0.3,0.8,0.5,1.3,0.5C148.3,48.1,148.7,47.9,149.1,47.5L149.1,47.5z"/>
		<path class="st2" d="M154.5,50.1c-0.1-0.1-0.1-0.2-0.1-0.3V39.7c0-0.1,0-0.2,0.1-0.3s0.2-0.1,0.3-0.1h7.3c0.1,0,0.2,0,0.3,0.1
			s0.1,0.2,0.1,0.3v1.7c0,0.1,0,0.2-0.1,0.3s-0.2,0.1-0.3,0.1h-4.8V44h4.5c0.1,0,0.2,0,0.2,0.1c0.1,0.1,0.1,0.2,0.1,0.3V46
			c0,0.1,0,0.2-0.1,0.3s-0.2,0.1-0.3,0.1h-4.5v3.5c0,0.2-0.2,0.4-0.4,0.4l0,0h-2.1C154.7,50.2,154.6,50.2,154.5,50.1z"/>
		<path class="st3" d="M20.5,68.9c-0.4-0.2-0.8-0.5-1.1-0.8C19.2,67.8,19,67.4,19,67c0-0.1,0-0.1,0.1-0.2c0,0,0.1-0.1,0.2-0.1h0.6
			c0.1,0,0.3,0.1,0.3,0.2c0.1,0.4,0.3,0.7,0.6,0.9c0.4,0.3,0.9,0.4,1.5,0.4c0.5,0,1.1-0.1,1.5-0.4c0.3-0.2,0.5-0.6,0.5-1
			c0-0.2-0.1-0.5-0.2-0.7c-0.2-0.2-0.5-0.4-0.7-0.5c-0.3-0.1-0.8-0.3-1.5-0.5c-0.5-0.1-1-0.3-1.5-0.6c-0.3-0.2-0.6-0.4-0.8-0.7
			c-0.2-0.3-0.3-0.7-0.3-1.1c0-0.4,0.1-0.8,0.4-1.2s0.6-0.6,1-0.8c0.5-0.2,1-0.3,1.6-0.3s1.1,0.1,1.6,0.3c0.4,0.2,0.7,0.5,1,0.8
			c0.2,0.3,0.3,0.6,0.4,1c0,0.1-0.1,0.2-0.2,0.2l0,0h-0.6c-0.1,0-0.1,0-0.2-0.1c-0.1,0-0.1-0.1-0.1-0.2c-0.1-0.4-0.3-0.7-0.6-0.8
			c-0.4-0.2-0.8-0.4-1.3-0.3c-0.5,0-0.9,0.1-1.3,0.3c-0.3,0.2-0.5,0.6-0.5,0.9c0,0.2,0.1,0.5,0.2,0.7c0.2,0.2,0.4,0.4,0.7,0.5
			c0.4,0.2,0.9,0.3,1.4,0.5s1.1,0.3,1.6,0.6c0.3,0.2,0.6,0.4,0.9,0.7c0.2,0.3,0.3,0.7,0.3,1.1c0,0.7-0.3,1.4-0.9,1.8
			c-0.7,0.5-1.5,0.7-2.3,0.6C21.6,69.2,21.1,69.1,20.5,68.9z"/>
		<path class="st3" d="M27.1,69c0-0.1-0.1-0.1-0.1-0.2V61c0-0.1,0-0.1,0.1-0.2c0-0.1,0.1-0.1,0.2-0.1h0.6c0.1,0,0.3,0.1,0.3,0.2
			c0,0,0,0,0,0.1v7.8c0,0.1-0.1,0.3-0.3,0.3l0,0h-0.6C27.2,69.1,27.1,69.1,27.1,69z"/>
		<path class="st3" d="M30.3,69c0-0.1-0.1-0.1-0.1-0.2V61c0-0.1,0-0.2,0.1-0.2c0.1-0.1,0.1-0.1,0.2-0.1h3c0.8,0,1.5,0.2,2.1,0.7
			c0.5,0.5,0.8,1.2,0.8,1.9c0,0.7-0.2,1.4-0.8,1.9s-1.4,0.7-2.1,0.7h-2.1v3c0,0.1,0,0.1-0.1,0.2c0,0.1-0.1,0.1-0.2,0.1h-0.6
			C30.5,69.1,30.4,69.1,30.3,69z M33.5,64.8c1.2,0,1.8-0.5,1.8-1.6c0-0.4-0.1-0.9-0.5-1.2s-0.9-0.4-1.4-0.4h-2.1v3.2H33.5z"/>
		<path class="st3" d="M41.2,69c-0.3-0.1-0.6-0.4-0.8-0.6s-0.3-0.4-0.3-0.6c0-0.1,0-0.1,0.1-0.2c0.1,0,0.1-0.1,0.2-0.1h0.5H41
			l0.1,0.1c0.2,0.2,0.4,0.4,0.6,0.5c0.3,0.1,0.6,0.2,0.9,0.2c0.3,0,0.7-0.1,1-0.2c0.2-0.1,0.4-0.4,0.4-0.7c0-0.2-0.1-0.3-0.2-0.5
			c-0.2-0.1-0.4-0.3-0.6-0.3c-0.4-0.1-0.8-0.2-1.2-0.3c-0.5-0.1-1.1-0.3-1.5-0.7c-0.3-0.3-0.4-0.7-0.4-1.1c0-0.3,0.1-0.6,0.3-0.9
			c0.2-0.3,0.5-0.5,0.8-0.7c0.4-0.2,0.8-0.3,1.2-0.3s0.9,0.1,1.3,0.2c0.3,0.1,0.6,0.3,0.8,0.6c0.1,0.2,0.2,0.3,0.3,0.6
			c0,0.1,0,0.1-0.1,0.2c-0.1,0-0.1,0.1-0.2,0.1H44c-0.1,0-0.2-0.1-0.2-0.1c-0.1-0.1-0.2-0.2-0.3-0.3c-0.1-0.1-0.3-0.2-0.4-0.2
			c-0.2-0.1-0.4-0.1-0.7-0.1s-0.6,0.1-0.9,0.2c-0.2,0.2-0.3,0.4-0.3,0.6c0,0.2,0,0.3,0.1,0.4s0.3,0.3,0.5,0.3
			c0.4,0.1,0.7,0.2,1.1,0.3c0.6,0.1,1.1,0.3,1.6,0.7c0.3,0.3,0.5,0.7,0.5,1.1c0,0.3-0.1,0.7-0.3,0.9c-0.2,0.3-0.5,0.5-0.8,0.7
			C43.5,69,43,69.1,42.5,69C42.1,69.3,41.7,69.2,41.2,69z"/>
		<path class="st3" d="M47.1,67v-3.2h-1c-0.1,0-0.2-0.1-0.3-0.2l0,0v-0.4c0-0.1,0.1-0.1,0.2-0.2c0-0.1,0.1-0.1,0.2-0.1h1v-2
			c0-0.1,0-0.1,0.1-0.2c0-0.1,0.1-0.1,0.2-0.1H48c0.1,0,0.3,0.1,0.3,0.3l0,0v2h1.5c0.1,0,0.3,0.1,0.3,0.3l0,0v0.4
			c0,0.1,0,0.1-0.1,0.2c-0.1,0-0.1,0.1-0.2,0.1h-1.6V67c0,0.3,0,0.6,0.2,0.9c0.2,0.2,0.4,0.3,0.7,0.3h0.7c0.1,0,0.1,0,0.2,0.1
			c0,0.1,0.1,0.1,0.1,0.2v0.4V69c-0.1,0.1-0.1,0.1-0.2,0.1H49C47.7,69.1,47.1,68.4,47.1,67z"/>
		<path class="st3" d="M51.9,69c-0.3-0.1-0.6-0.4-0.8-0.7c-0.2-0.3-0.3-0.6-0.3-0.9c0-0.5,0.2-1,0.7-1.3c0.5-0.4,1.1-0.6,1.8-0.7
			l1.8-0.3v-0.3c0-0.8-0.5-1.2-1.4-1.2c-0.3,0-0.6,0.1-0.9,0.2c-0.2,0.1-0.4,0.3-0.5,0.5c0,0.1-0.1,0.1-0.1,0.2c0,0-0.1,0-0.2,0
			h-0.5c-0.1,0-0.1,0-0.2-0.1c-0.1,0-0.1-0.1-0.1-0.2c0-0.2,0.1-0.5,0.3-0.6c0.2-0.3,0.5-0.5,0.8-0.6c0.4-0.2,0.9-0.3,1.3-0.3
			c0.7-0.1,1.4,0.2,1.9,0.6c0.4,0.4,0.6,1,0.6,1.6v3.9c0,0.1,0,0.2-0.1,0.2c-0.1,0.1-0.1,0.1-0.2,0.1h-0.5c-0.1,0-0.1,0-0.2-0.1
			c0-0.1-0.1-0.1-0.1-0.2v-0.5c-0.2,0.3-0.5,0.5-0.8,0.7c-0.4,0.2-0.9,0.3-1.3,0.3C52.6,69.2,52.2,69.1,51.9,69z M54.5,67.8
			c0.4-0.4,0.5-1,0.5-1.5V66l-1.4,0.2c-0.5,0-0.9,0.2-1.3,0.4c-0.4,0.2-0.5,0.8-0.3,1.2c0.1,0.1,0.2,0.2,0.3,0.3
			c0.3,0.2,0.6,0.3,1,0.3C53.7,68.3,54.2,68.2,54.5,67.8L54.5,67.8z"/>
		<path class="st3" d="M57.9,69c-0.1-0.1-0.1-0.1-0.1-0.2v-5.6c0-0.1,0-0.2,0.1-0.2c0.1-0.1,0.1-0.1,0.2-0.1h0.5
			c0.1,0,0.2,0,0.2,0.1c0.1,0.1,0.1,0.1,0.1,0.2v0.5c0.4-0.6,1-0.9,1.7-0.8H61c0.1,0,0.1,0,0.2,0.1c0.1,0.1,0.1,0.1,0.1,0.2v0.4
			c0,0.1,0,0.1-0.1,0.2c-0.1,0.1-0.1,0.1-0.2,0.1h-0.7c-0.4,0-0.7,0.1-1,0.4c-0.3,0.3-0.4,0.6-0.4,1v3.5c0,0.1,0,0.2-0.1,0.2
			c-0.1,0.1-0.1,0.1-0.2,0.1h-0.5C58,69.1,57.9,69.1,57.9,69z"/>
		<path class="st3" d="M62.9,67v-3.2h-1c-0.1,0-0.1,0-0.2-0.1c-0.1,0-0.1-0.1-0.1-0.2v-0.4c0-0.1,0-0.1,0.1-0.2
			c0-0.1,0.1-0.1,0.2-0.1h1v-2c0-0.1,0-0.1,0.1-0.2c0-0.1,0.1-0.1,0.2-0.1h0.5c0.1,0,0.1,0,0.2,0.1c0.1,0.1,0.1,0.1,0.1,0.2v2h1.5
			c0.1,0,0.3,0.1,0.3,0.3l0,0v0.4c0,0.1,0,0.1-0.1,0.2c-0.1,0-0.1,0.1-0.2,0.1H64v3.1c0,0.3,0.1,0.6,0.2,0.9
			c0.2,0.2,0.4,0.3,0.7,0.3h0.7c0.1,0,0.1,0,0.2,0.1s0.1,0.1,0.1,0.2v0.4c0,0.1,0,0.1-0.1,0.2c0,0.1-0.1,0.1-0.2,0.1h-0.8
			C63.5,69.1,62.9,68.4,62.9,67z"/>
		<path class="st3" d="M67.7,69c-0.3-0.1-0.6-0.4-0.8-0.6c-0.1-0.2-0.2-0.4-0.3-0.6c0-0.1,0-0.1,0.1-0.2c0.1,0,0.1-0.1,0.2-0.1h0.5
			h0.1l0.1,0.1c0.2,0.2,0.4,0.4,0.6,0.5c0.3,0.1,0.6,0.2,0.9,0.2s0.7-0.1,1-0.2c0.2-0.1,0.4-0.4,0.4-0.7c0-0.2-0.1-0.3-0.2-0.5
			c-0.2-0.1-0.4-0.3-0.6-0.3c-0.4-0.1-0.8-0.2-1.2-0.3c-0.5-0.1-1-0.3-1.5-0.7c-0.3-0.3-0.4-0.7-0.4-1.1c0-0.3,0.1-0.6,0.3-0.9
			c0.2-0.3,0.5-0.5,0.8-0.7c0.4-0.2,0.8-0.3,1.2-0.3c0.4,0,0.9,0.1,1.3,0.2c0.3,0.1,0.6,0.3,0.8,0.6c0.1,0.2,0.2,0.3,0.3,0.6
			c0,0.1,0,0.1-0.1,0.2c0,0.1-0.1,0.1-0.2,0.1h-0.4c-0.1,0-0.2-0.1-0.2-0.1c-0.1-0.1-0.2-0.2-0.3-0.3c-0.1-0.1-0.3-0.2-0.4-0.2
			c-0.2-0.1-0.4-0.1-0.7-0.1c-0.3,0-0.6,0.1-0.9,0.2c-0.2,0.2-0.3,0.4-0.3,0.6c0,0.2,0,0.3,0.1,0.4s0.3,0.3,0.5,0.3
			c0.4,0.1,0.7,0.2,1.1,0.3c0.6,0.1,1.1,0.3,1.6,0.7c0.3,0.3,0.5,0.7,0.5,1.1c0,0.3-0.1,0.7-0.3,0.9c-0.2,0.3-0.5,0.5-0.9,0.7
			S69.5,69.1,69,69C68.6,69.3,68.2,69.2,67.7,69z"/>
		<path class="st3" d="M76.7,69c-0.3-0.1-0.6-0.4-0.8-0.7c-0.2-0.3-0.3-0.6-0.3-0.9c0-0.5,0.2-1,0.6-1.3c0.5-0.4,1.1-0.6,1.8-0.7
			l1.8-0.2v-0.3c0-0.8-0.5-1.2-1.4-1.2c-0.3,0-0.6,0.1-0.9,0.2c-0.2,0.1-0.4,0.3-0.5,0.5c0,0.1-0.1,0.1-0.1,0.2c0,0-0.1,0-0.2,0
			h-0.5c-0.1,0-0.1,0-0.2-0.1l-0.1-0.1c0-0.2,0.1-0.5,0.2-0.6c0.2-0.3,0.5-0.5,0.8-0.6c0.4-0.2,0.9-0.3,1.3-0.3
			c0.7-0.1,1.4,0.2,1.9,0.6c0.4,0.4,0.6,1,0.6,1.6V69c0,0.1-0.1,0.3-0.3,0.3l0,0h-0.5c-0.1,0-0.1,0-0.2-0.1c0-0.1-0.1-0.1-0.1-0.2
			v-0.5c-0.2,0.3-0.5,0.5-0.8,0.7c-0.4,0.2-0.8,0.3-1.3,0.3C77.4,69.2,77,69.2,76.7,69z M79.3,67.8c0.4-0.4,0.5-1,0.5-1.5V66
			l-1.4,0.2c-0.5,0-0.9,0.2-1.3,0.4c-0.4,0.2-0.5,0.8-0.3,1.2c0.1,0.1,0.2,0.2,0.3,0.3c0.3,0.2,0.6,0.3,1,0.3
			C78.5,68.3,79,68.2,79.3,67.8L79.3,67.8z"/>
		<path class="st3" d="M83.1,67v-3.2h-1c-0.1,0-0.2-0.1-0.3-0.2l0,0v-0.4c0-0.1,0.1-0.1,0.2-0.2c0-0.1,0.1-0.1,0.2-0.1h1v-2
			c0-0.1,0-0.1,0.1-0.2c0-0.1,0.1-0.1,0.2-0.1H84c0.1,0,0.3,0.1,0.3,0.3l0,0v2h1.5c0.1,0,0.1,0,0.2,0.1s0.1,0.1,0.1,0.2v0.4
			c0,0.1,0,0.1-0.1,0.2c-0.1,0-0.1,0.1-0.2,0.1h-1.6V67c0,0.3,0,0.6,0.2,0.9c0.1,0.2,0.4,0.3,0.7,0.3h0.7c0.1,0,0.1,0,0.2,0.1
			c0,0.1,0.1,0.1,0.1,0.2v0.4V69c0,0.1-0.1,0.1-0.2,0.1H85C83.7,69.1,83.1,68.4,83.1,67z"/>
		<path class="st3" d="M95,61.8h-2c0.4,0.3,0.7,0.7,0.7,1.2H95v0.6h-1.3c-0.1,1.2-1.1,2-2.6,2.1c0.9,1,2,2.2,3,3.4h-1.2
			C92,68,91.1,66.9,90,65.7V65h0.7c1.3,0,2-0.5,2.1-1.4H90V63h2.7c-0.2-0.7-0.8-1-1.8-1H90v-0.8h5V61.8z"/>
		<path class="st3" d="M98.6,69c0-0.1-0.1-0.1-0.1-0.2v-6.7l-2,1.5c0,0.1-0.1,0.1-0.2,0.1s-0.2-0.1-0.2-0.1l-0.3-0.4
			c0,0-0.1-0.1-0.1-0.2c0-0.1,0-0.2,0.1-0.2l2.6-2c0.1-0.1,0.2-0.1,0.3-0.1h0.6c0.1,0,0.3,0.1,0.3,0.3l0,0v7.8
			c0,0.1-0.1,0.3-0.3,0.3l0,0h-0.6C98.7,69.1,98.6,69.1,98.6,69z"/>
		<path class="st3" d="M102.1,68.3c-0.5-0.7-0.8-1.5-0.8-2.3v-2.1c0-0.8,0.3-1.7,0.8-2.3c1.3-1.2,3.3-1.2,4.5,0
			c0.5,0.7,0.8,1.5,0.8,2.3c0,0.2,0,0.6,0,1.1s0,0.8,0,1c0,0.9-0.3,1.7-0.8,2.4c-0.6,0.6-1.4,1-2.3,0.9
			C103.5,69.3,102.6,69,102.1,68.3z M105.7,67.6c0.3-0.5,0.5-1.1,0.5-1.7c0-0.2,0-0.6,0-1s0-0.8,0-1c0-0.6-0.2-1.2-0.5-1.7
			c-0.7-0.8-1.9-0.8-2.6-0.1c-0.1,0-0.1,0.1-0.1,0.1c-0.3,0.5-0.5,1.1-0.5,1.7v2c0,0.6,0.2,1.2,0.5,1.7
			C103.7,68.4,104.9,68.4,105.7,67.6C105.6,67.7,105.7,67.7,105.7,67.6z"/>
		<path class="st3" d="M109.7,68.3c-0.5-0.7-0.8-1.5-0.8-2.3v-1v-1.1c0-0.8,0.2-1.7,0.8-2.3c1.3-1.2,3.3-1.2,4.5,0
			c0.5,0.7,0.8,1.5,0.8,2.3c0,0.2,0,0.6,0,1.1s0,0.8,0,1c0,0.9-0.3,1.7-0.8,2.4C112.9,69.6,110.9,69.6,109.7,68.3L109.7,68.3z
			 M113.3,67.6c0.3-0.5,0.5-1.1,0.5-1.7c0-0.2,0-0.6,0-1s0-0.8,0-1c0-0.6-0.1-1.2-0.5-1.7c-0.3-0.4-0.9-0.7-1.4-0.6
			c-0.5,0-1.1,0.2-1.4,0.6c-0.3,0.5-0.5,1.1-0.5,1.7v2c0,0.6,0.1,1.2,0.5,1.7c0.7,0.8,1.9,0.8,2.7,0.1
			C113.2,67.7,113.3,67.7,113.3,67.6z"/>
		<path class="st1" d="M21.3,77.9h78.6c1.5,0,2.8,1.2,2.8,2.8v18.2c0,1.5-1.2,2.8-2.8,2.8H21.3c-1.5,0-2.8-1.2-2.8-2.8V80.7
			C18.5,79.2,19.8,77.9,21.3,77.9z"/>
		<path class="st2" d="M29.7,93.9c-0.1-0.1-0.1-0.1-0.1-0.2v-7.8c0-0.1,0-0.2,0.1-0.2c0.1-0.1,0.1-0.1,0.2-0.1H31
			c0.1,0,0.2,0,0.2,0.1c0.1,0.1,0.1,0.1,0.1,0.2v7.8c0,0.1-0.1,0.3-0.2,0.3H31h-1.1C29.8,94,29.7,93.9,29.7,93.9z"/>
		<path class="st2" d="M33.1,93.9c-0.1,0-0.1-0.1-0.1-0.2V88c0-0.1,0-0.2,0.1-0.2c0.1-0.1,0.1-0.1,0.2-0.1h1c0.1,0,0.2,0,0.2,0.1
			c0.1,0.1,0.1,0.1,0.1,0.2v0.5c0.5-0.6,1.2-0.9,2-0.9c0.7,0,1.3,0.2,1.8,0.7c0.5,0.6,0.7,1.3,0.7,2v3.4c0,0.1,0,0.1-0.1,0.2
			S38.9,94,38.8,94h-1.1c-0.2,0-0.3-0.1-0.3-0.3v-3.3c0-0.4-0.1-0.8-0.4-1.1c-0.3-0.3-0.6-0.4-1-0.4s-0.7,0.1-1,0.4
			s-0.4,0.7-0.4,1.1v3.3c0,0.1,0,0.1-0.1,0.2S34.4,94,34.3,94h-1C33.3,94,33.2,93.9,33.1,93.9z"/>
		<path class="st2" d="M42.3,93.9c-0.1-0.1-0.1-0.1-0.2-0.2l-2.3-5.6V88c0-0.1,0.1-0.1,0.1-0.2s0.1-0.1,0.2-0.1h1
			c0.1,0,0.3,0.1,0.3,0.2l1.5,4.2l1.6-4.1c0-0.1,0.1-0.1,0.1-0.2c0.1-0.1,0.1-0.1,0.2-0.1h1c0.1,0,0.1,0,0.2,0.1
			c0,0,0.1,0.1,0.1,0.2v0.1l-2.2,5.6c-0.1,0.2-0.2,0.3-0.4,0.3h-0.9C42.5,94,42.4,94,42.3,93.9z"/>
		<path class="st2" d="M47.6,93.3c-0.6-0.6-0.9-1.4-0.8-2.2v-0.3c0-0.9,0.2-1.7,0.8-2.4c1.2-1.1,3.1-1.1,4.4,0
			c0.5,0.6,0.8,1.5,0.8,2.3V91c0,0.1,0,0.2-0.1,0.2c-0.1,0.1-0.1,0.1-0.2,0.1h-4v0.1c0,0.4,0.1,0.8,0.4,1.1c0.2,0.3,0.6,0.5,0.9,0.4
			c0.4,0,0.9-0.2,1.1-0.6c0-0.1,0.1-0.1,0.2-0.2c0.1,0,0.1,0,0.2,0h1.1c0.1,0,0.1,0,0.2,0.1c0.1,0,0.1,0.1,0.1,0.2
			c0,0.3-0.2,0.5-0.3,0.7c-0.3,0.3-0.6,0.5-1,0.7c-0.5,0.2-1,0.3-1.5,0.3C48.9,94.1,48.2,93.8,47.6,93.3z M51,90.3L51,90.3
			c0-0.4-0.1-0.8-0.3-1.1c-0.2-0.3-0.6-0.5-1-0.4c-0.4,0-0.8,0.1-1,0.4s-0.4,0.7-0.3,1.1l0,0H51z"/>
		<path class="st2" d="M54.8,93.8c-0.3-0.1-0.7-0.4-0.9-0.6s-0.3-0.4-0.3-0.6c0-0.1,0-0.1,0.1-0.2c0.1,0,0.1-0.1,0.2-0.1h1
			c0.1,0,0.1,0,0.2,0.1l0.3,0.2c0.1,0.1,0.3,0.2,0.5,0.3c0.2,0.1,0.4,0.1,0.6,0.1c0.3,0,0.5-0.1,0.8-0.2c0.2-0.1,0.3-0.3,0.3-0.5
			c0-0.1,0-0.3-0.1-0.4s-0.3-0.2-0.5-0.3c-0.3-0.1-0.7-0.2-1.1-0.3c-0.6-0.1-1.1-0.3-1.5-0.7c-0.3-0.3-0.5-0.7-0.5-1.2
			c0-0.3,0.1-0.6,0.3-0.9s0.5-0.5,0.9-0.7s0.9-0.3,1.4-0.3s1,0.1,1.4,0.3c0.3,0.1,0.6,0.3,0.9,0.6c0.2,0.2,0.3,0.4,0.3,0.6
			c0,0.1,0,0.1-0.1,0.2c0,0-0.1,0.1-0.2,0.1h-0.9c-0.1,0-0.2,0-0.2-0.1L57.4,89c-0.3-0.2-0.6-0.4-1-0.4c-0.2,0-0.5,0.1-0.7,0.2
			s-0.2,0.3-0.2,0.5c0,0.1,0,0.3,0.1,0.4s0.3,0.2,0.5,0.3c0.3,0.1,0.7,0.2,1,0.3c1.4,0.3,2.2,0.9,2.2,1.9c0,0.6-0.3,1.1-0.7,1.4
			c-0.6,0.4-1.3,0.6-2.1,0.5C55.8,94.1,55.3,94,54.8,93.8z"/>
		<path class="st2" d="M61.5,93.4c-0.4-0.5-0.6-1.1-0.5-1.7V89h-1c-0.1,0-0.3-0.1-0.3-0.2l0,0V88c0-0.1,0.1-0.3,0.2-0.3l0,0h1v-2
			c0-0.1,0-0.2,0.1-0.2c0.1-0.1,0.1-0.1,0.2-0.1h1c0.1,0,0.2,0,0.2,0.1c0.1,0.1,0.1,0.1,0.1,0.2v2H64c0.1,0,0.1,0,0.2,0.1
			s0.1,0.1,0.1,0.2v0.7c0,0.1,0,0.2-0.1,0.2c0,0.1-0.1,0.1-0.1,0.1h-1.5v2.6c0,0.3,0,0.5,0.2,0.8c0.1,0.2,0.4,0.3,0.6,0.3h0.8
			c0.1,0,0.3,0.1,0.3,0.2c0,0,0,0,0,0.1v0.8c0,0.1,0,0.1-0.1,0.2s-0.1,0.1-0.2,0.1h-1C62.6,94,62,93.8,61.5,93.4z"/>
		<path class="st2" d="M68.5,93.9c-0.1,0-0.1-0.1-0.1-0.2v-7.8c0-0.1,0-0.2,0.1-0.2c0.1-0.1,0.1-0.1,0.2-0.1h0.9
			c0.1,0,0.3,0.1,0.3,0.2l3.4,5.3v-5.2c0-0.2,0.1-0.3,0.3-0.3l0,0h1c0.1,0,0.2,0,0.2,0.1c0.1,0.1,0.1,0.1,0.1,0.2v7.8
			c0,0.1,0,0.2-0.1,0.2c0,0.1-0.1,0.1-0.2,0.1h-1c-0.2,0-0.3-0.1-0.4-0.2L70,88.6v5.1c0,0.1,0,0.1-0.1,0.2S69.8,94,69.7,94h-1
			C68.6,94,68.5,93.9,68.5,93.9z"/>
		<path class="st2" d="M77.3,93.4c-0.5-0.5-0.8-1.2-0.8-2v-1.1c0-0.8,0.3-1.5,0.8-2c0.6-0.5,1.4-0.8,2.2-0.7
			c0.8-0.1,1.6,0.2,2.2,0.7c0.5,0.5,0.8,1.2,0.8,2c0,0.1,0,0.3,0,0.5s0,0.4,0,0.5c0,0.7-0.3,1.5-0.8,2
			C80.4,94.3,78.6,94.3,77.3,93.4L77.3,93.4z M80.5,92.5c0.3-0.3,0.4-0.7,0.4-1.2c0-0.1,0-0.2,0-0.5s0-0.4,0-0.5
			c0-0.4-0.1-0.8-0.4-1.2c-0.3-0.3-0.6-0.4-1-0.4s-0.7,0.1-1,0.4s-0.4,0.7-0.4,1.2v0.9c0,0.4,0.1,0.8,0.4,1.2c0.3,0.3,0.6,0.4,1,0.4
			C79.9,92.9,80.2,92.7,80.5,92.5z"/>
		<path class="st2" d="M85,93.7l-1.7-5.6V88c0-0.1,0-0.1,0.1-0.2c0-0.1,0.1-0.1,0.2-0.1h0.9c0.1,0,0.2,0,0.2,0.1
			c0.1,0,0.1,0.1,0.1,0.2l1.2,3.9l1.2-3.9c0-0.1,0.1-0.1,0.1-0.2c0.1-0.1,0.2-0.1,0.2-0.1h0.6c0.1,0,0.2,0,0.2,0.1
			c0.1,0,0.1,0.1,0.1,0.2l1.2,3.9l1.2-3.9c0-0.1,0.1-0.1,0.1-0.2c0.1-0.1,0.1-0.1,0.2-0.1H92c0.1,0,0.1,0,0.2,0.1
			c0.1,0,0.1,0.1,0.1,0.2v0.1l-1.7,5.6c0,0.1-0.1,0.2-0.1,0.2C90.4,94,90.4,94,90.3,94h-0.8c-0.2,0-0.4-0.1-0.4-0.3l-1.2-3.8
			l-1.2,3.8c0,0.2-0.2,0.3-0.4,0.3h-0.8C85.2,94,85,93.9,85,93.7z"/>
		<g id="Monitor">
			<rect x="207" y="71" class="st4" width="9.8" height="39.4"/>
			<path class="st1" d="M172.1,40.6h79.8c0.3,0,0.6,0.3,0.6,0.6v53.9c0,0.3-0.3,0.6-0.6,0.6h-79.8c-0.3,0-0.6-0.3-0.6-0.6V41.2
				C171.4,40.9,171.7,40.6,172.1,40.6z"/>
			<rect x="172.3" y="41.4" class="st2" width="79.3" height="51.2"/>
			<path class="st4" d="M230.2,112.3h-36.5v-0.6c0-0.7,0.6-1.3,1.3-1.3h33.8c0.7,0,1.3,0.6,1.3,1.3L230.2,112.3z"/>
		</g>
		<g id="rCAxqj.tif">
			<path class="st5" d="M233.8,45.5c0,0,0.1-0.1,0.1,0v0.2c0,14.8,0,29.7,0,44.5c0,0.2,0,0.3-0.3,0.3h-44.5c-0.1,0-0.3,0.1-0.3-0.1
				h0.1h0.3h44.2c0.4,0,0.4,0,0.4-0.4V77.2c0-0.1,0-0.2,0-0.3v-0.2c0-10.3,0-20.6,0-30.9C233.8,45.7,233.8,45.6,233.8,45.5
				L233.8,45.5z"/>
			<path class="st6" d="M233.8,45.5L233.8,45.5h-44.5c-0.4,0-0.4,0-0.4,0.4v31c0,0.8,0,1.6,0,2.4v11.1h-0.1V45.8
				c0-0.2,0.1-0.3,0.3-0.3H233.8z"/>
			<path class="st7" d="M188.9,76.9v-31c0-0.4,0-0.4,0.4-0.4h44.5c0,0.1,0,0.2,0,0.3c0,10.3,0,20.6,0,30.9v0.2L188.9,76.9
				L188.9,76.9z M211.3,63.4H222c0.2,0,0.3-0.1,0.3-0.3V49.9c0-0.2-0.1-0.3-0.3-0.3h-21.2c-0.3,0-0.3,0.1-0.3,0.3V63
				c0,0.3,0.1,0.3,0.3,0.3h10.5V63.4z M205.2,72.5c0.1,0,0.2,0,0.2,0c0.3-0.1,0.4,0.1,0.4,0.3c0.1,0.6,0.1,0.6,0.7,0.5
				c0.2,0,0.3,0,0.2-0.3c-0.3-1.1-0.6-2.2-0.9-3.3c-0.2-0.8-0.2-0.8-1.1-0.8c-0.1,0-0.2,0.1-0.2,0.2c-0.3,1.3-0.7,2.6-1,3.9
				c0,0.1,0,0.2,0,0.2c0.2,0,0.4,0,0.7,0c0.2,0,0.1-0.2,0.1-0.3C204.6,72.5,204.6,72.5,205.2,72.5z M218.5,73.4c0.5,0,0.5,0,0.4-0.4
				l-0.8-3.1c-0.1-0.2-0.1-0.6-0.2-0.7s-0.5,0-0.7,0s-0.3,0.1-0.4,0.3c-0.3,1.2-0.6,2.3-0.9,3.5c-0.1,0.6-0.2,0.5,0.4,0.5
				c0.1,0,0.3,0,0.3-0.2s0-0.5,0.2-0.6s0.5,0,0.7,0h0.3c0.1,0,0.2,0,0.2,0.1l0,0c0,0.1,0,0.2,0.1,0.3
				C218.1,73.3,218.2,73.5,218.5,73.4L218.5,73.4z M207.5,71.2v1.6c0,0.5,0,0.5,0.5,0.5c0.2,0,0.3,0,0.3-0.3c0-0.4,0-0.8,0-1.2
				c0-0.2,0-0.3,0.3-0.3c0.2,0,0.4,0,0.5,0c0.7-0.1,1.2-0.7,1.1-1.4c-0.1-0.6-0.6-1.1-1.2-1.1c-0.4,0-0.9,0-1.3,0
				c-0.2,0-0.3,0.1-0.3,0.3C207.5,70,207.5,70.6,207.5,71.2L207.5,71.2z M200.4,71.2c0,0.4,0,0.7,0,1.1c0,0.3,0.2,0.6,0.4,0.8
				c0.7,0.5,1.6,0.4,2.2-0.2c0.2-0.2,0.2-0.3-0.1-0.4s-0.4-0.3-0.6,0l-0.1,0.1c-0.3,0.2-0.7,0.2-0.9-0.1c-0.1-0.1-0.2-0.3-0.1-0.5
				v-1.6c0-0.3,0.2-0.6,0.5-0.6c0.1,0,0.2,0,0.3,0c0.2,0,0.3,0.1,0.4,0.3c0.1,0.1,0.2,0.1,0.3,0l0,0c0.1-0.1,0.1-0.1,0.2-0.2
				c0.2-0.1,0.1-0.2,0-0.3c-0.6-0.6-1.6-0.7-2.2-0.2c-0.2,0.2-0.4,0.5-0.4,0.8C200.4,70.5,200.4,70.9,200.4,71.2L200.4,71.2z
				 M214.2,69.1H213c-0.1,0-0.2,0-0.2,0.1c-0.1,0.4,0,0.6,0.4,0.6c0.1,0,0.2,0,0.3,0s0.2,0.1,0.2,0.2c0,1,0,1.9,0,2.8
				c0,0.5,0,0.5,0.5,0.5c0.2,0,0.3-0.1,0.3-0.3c0-0.9,0-1.8,0-2.7c0-0.6,0-0.6,0.6-0.6c0.5,0,0.5,0,0.4-0.4c0-0.2,0-0.2-0.2-0.2
				H214.2z M219.7,71.2v1.9c0,0.2,0,0.2,0.2,0.2c0.8,0,1.5,0,2.2,0c0.1,0,0.2,0,0.2-0.2c0-0.1,0-0.2,0-0.3c0-0.2-0.1-0.2-0.2-0.2
				c-0.4,0-0.9,0-1.3,0c-0.2,0-0.3-0.1-0.2-0.3c0-0.9,0-1.8,0-2.8c0-0.6,0.1-0.5-0.6-0.5c-0.2,0-0.2,0.1-0.2,0.2
				C219.7,70,219.7,70.6,219.7,71.2L219.7,71.2z M214.5,66.6L214.5,66.6c0.3-0.3,0.4-0.7,0.2-1c-0.1-0.3-0.4-0.4-0.7-0.4h-0.9
				c-0.1,0-0.2,0-0.2,0.2V68c0,0.1,0,0.2,0.1,0.2c0.4,0,0.8,0,1.1,0s0.6-0.3,0.7-0.6C214.9,67.2,214.8,66.8,214.5,66.6L214.5,66.6z
				 M216.1,66.7c0,0.4,0,0.9,0,1.3c0,0.2,0.1,0.2,0.3,0.2s0.3,0,0.3-0.2s0-0.4,0-0.7c0-0.1-0.1-0.3,0.1-0.3s0.3,0,0.4,0.2
				s0.2,0.4,0.3,0.7s0.3,0.3,0.6,0.3s0.1-0.1,0.1-0.2s-0.1-0.4-0.2-0.5c-0.2-0.3-0.2-0.7,0-0.9c0.3-0.4,0.2-0.9-0.1-1.2
				c-0.2-0.2-0.4-0.2-0.7-0.2c-0.2,0-0.5,0-0.7,0s-0.2,0.1-0.2,0.2C216.1,65.8,216.1,66.2,216.1,66.7L216.1,66.7z M202.7,66.7
				c0,0.4,0,0.9,0,1.3c0,0.1,0,0.2,0.2,0.2c0.3,0,0.6,0,1,0s0.7-0.3,0.7-0.7c0.1-0.6,0.1-1.1,0-1.7c0-0.4-0.4-0.7-0.8-0.7
				c-0.3,0-0.6,0-0.9,0s-0.2,0.1-0.2,0.2C202.7,65.8,202.7,66.2,202.7,66.7L202.7,66.7z M202.2,68.2c0.3,0,0.3,0,0.2-0.3
				c-0.2-0.8-0.4-1.7-0.6-2.5c0-0.2-0.1-0.3-0.3-0.2c-0.1,0-0.2,0-0.3,0s-0.2,0-0.2,0.1l0,0c-0.2,0.9-0.4,1.8-0.6,2.7
				c0,0.1,0,0.1,0,0.2c0.2,0.1,0.4,0,0.5-0.2c0,0,0,0,0-0.1s0-0.3,0.1-0.3c0.2-0.1,0.5-0.1,0.7,0c0.2,0,0.1,0.2,0.1,0.3
				S202,68.2,202.2,68.2L202.2,68.2z M222,68.2c0.2,0,0.3,0,0.2-0.3c-0.2-0.8-0.4-1.7-0.6-2.5c0-0.2-0.1-0.3-0.3-0.2
				c-0.1,0-0.2,0-0.3,0s-0.2,0-0.2,0.1l0,0c-0.2,0.9-0.4,1.8-0.6,2.7c0,0.1,0,0.1,0,0.2c0.2,0.1,0.4,0,0.5-0.2l0,0
				c0-0.1,0-0.3,0.1-0.3c0.2,0,0.4,0,0.7,0c0.1,0,0.1,0.2,0.1,0.4S221.9,68.2,222,68.2L222,68.2z M210.7,67.6
				c0.4-0.1,0.5,0.1,0.5,0.4v0.1c0.1,0.2,0.3,0.1,0.4,0.1s0.1-0.2,0.1-0.2c-0.2-0.9-0.4-1.7-0.6-2.6c0-0.2-0.1-0.2-0.3-0.2
				c-0.1,0-0.2,0-0.3,0s-0.2,0-0.2,0.2c-0.2,0.9-0.4,1.8-0.6,2.7c0,0.1-0.1,0.1,0,0.2c0.2,0.1,0.4,0,0.5-0.2V68
				C210.2,67.6,210.3,67.5,210.7,67.6L210.7,67.6z M212,71.3v-1.6c0-0.6,0.1-0.5-0.5-0.5c-0.2,0-0.3,0.1-0.3,0.3c0,1.1,0,2.3,0,3.4
				c0,0.6-0.1,0.5,0.6,0.6c0.2,0,0.3-0.1,0.3-0.3C212,72.5,212,71.9,212,71.3z M209,66.5c-0.1-0.4-0.3-0.7-0.4-1.1
				c-0.1-0.2-0.3-0.3-0.5-0.3H208c-0.2,0.1,0,0.3,0.1,0.4c0.1,0.3,0.2,0.5,0.3,0.7c0.3,0.5,0.4,1.1,0.3,1.6c0,0.2,0,0.3,0.3,0.3
				s0.3-0.1,0.3-0.3c-0.1-0.5,0.1-1.1,0.3-1.6c0.1-0.3,0.3-0.6,0.4-0.9c0-0.1,0.1-0.1,0-0.2c-0.2-0.1-0.5,0-0.6,0.2L209,66.5z
				 M206.6,66.9L206.6,66.9c0,0.3,0,0.7,0,1s0.1,0.3,0.3,0.3s0.3-0.1,0.3-0.3c0-0.6,0-1.2,0-1.8s0-0.5,0.5-0.5
				c0.2,0,0.2-0.1,0.2-0.2s0-0.2-0.2-0.2c-0.5,0-1,0-1.5,0c-0.2,0-0.2,0.1-0.2,0.2s0,0.3,0.2,0.3s0.2,0,0.3,0s0.2,0,0.2,0.2
				C206.5,66.2,206.5,66.6,206.6,66.9L206.6,66.9z M218.4,66.7c0,0.4,0,0.9,0,1.3c0,0.2,0,0.2,0.2,0.2h1.3c0.2,0,0.2-0.1,0.2-0.2
				s0-0.3-0.2-0.2s-0.5,0-0.8,0s-0.2,0-0.2-0.2c0-0.7,0-1.4,0-2.1c0-0.2-0.1-0.2-0.3-0.2s-0.3,0-0.3,0.2
				C218.3,65.8,218.3,66.2,218.4,66.7L218.4,66.7z M205.1,66.7c0,0.4,0,0.9,0,1.3c0,0.2,0.1,0.2,0.3,0.2s0.3,0,0.3-0.2
				c0-0.9,0-1.8,0-2.6c0-0.2-0.1-0.2-0.3-0.2s-0.3,0-0.3,0.2C205,65.8,205,66.2,205.1,66.7L205.1,66.7z M215.7,66.7
				c0-0.4,0-0.9,0-1.3c0-0.2-0.1-0.2-0.3-0.2s-0.3,0-0.3,0.2c0,0.9,0,1.8,0,2.6c0,0.2,0.1,0.2,0.3,0.2s0.3,0,0.3-0.2
				C215.6,67.5,215.7,67.1,215.7,66.7L215.7,66.7z"/>
			<path class="st8" d="M188.9,76.9h44.9c0,0.1,0,0.2,0,0.3V90c0,0.4,0,0.4-0.4,0.4h-44.2h-0.3V79.3
				C188.9,78.5,188.9,77.7,188.9,76.9z M199.9,82.2c-0.1-0.1-0.1-0.1-0.1-0.2c-0.2-0.6-0.4-1.1-0.6-1.7c-0.1-0.2-0.3-0.2-0.5-0.2
				s-0.2,0.2-0.2,0.3c0,0.8,0,1.7,0,2.5c0,0.2,0.1,0.3,0.3,0.3s0.3-0.1,0.2-0.3c0-0.4,0-0.8,0-1.3c0.2,0.4,0.4,0.8,0.5,1.2
				c0.1,0.2,0.1,0.3,0.3,0.3s0.3-0.1,0.3-0.3c0.2-0.4,0.3-0.8,0.5-1.2c0.1,0.4,0.1,0.9,0.1,1.3c0,0.2,0.1,0.2,0.2,0.2
				s0.3,0.1,0.3-0.2v-2.6c0-0.1,0-0.2-0.1-0.2c-0.2-0.1-0.4,0-0.5,0.2l0,0L199.9,82.2z M222.1,81.6c0-0.4,0-0.8,0-1.3
				c0-0.2-0.1-0.3-0.3-0.3s-0.3,0.1-0.3,0.3s0,0.3,0,0.5s0,0.2-0.2,0.2c-0.4-0.1-0.9,0.1-1.1,0.5c0,0.1-0.1,0.2,0,0.4v0.4
				c-0.1,0.4,0.2,0.9,0.7,0.9c0.2,0,0.3,0,0.5-0.1c0.1,0,0.2,0,0.2,0c0.3,0.1,0.5,0,0.5-0.3L222.1,81.6z M213.2,81.6v1.3
				c0,0.1,0,0.2,0.1,0.2c0.3,0.1,0.5,0,0.5-0.3v-0.2c0-0.2-0.1-0.6,0-0.7s0.5,0,0.8-0.1s0.3,0,0.3-0.2s-0.1-0.3-0.3-0.2
				c-0.1,0-0.2,0-0.3,0c-0.6,0-0.6,0-0.5-0.6c0-0.2,0.1-0.2,0.2-0.2c0.3,0,0.6,0,0.9,0s0.2-0.1,0.2-0.3S215,80,214.8,80
				c-0.5,0-0.9,0-1.4,0c-0.2,0-0.3,0.1-0.3,0.3C213.1,80.8,213.1,81.2,213.2,81.6L213.2,81.6z M210.2,82.3L210.2,82.3
				c0-0.2,0-0.4,0-0.7c0-0.3-0.2-0.6-0.5-0.7s-0.7-0.1-1,0.1c-0.1,0-0.2,0.1-0.1,0.2s0.1,0.2,0.3,0.2s0.4,0,0.6,0
				c0.2,0,0.3,0.1,0.2,0.3s-0.2,0-0.2,0c-0.6-0.1-1,0.2-1,0.6c-0.1,0.4,0.2,0.8,0.6,0.9c0.2,0,0.3,0,0.5-0.1c0.1-0.1,0.2-0.1,0.3,0
				c0.3,0.1,0.4,0,0.4-0.3L210.2,82.3z M207.8,82c0-0.3,0-0.6,0-0.9s-0.1-0.2-0.3-0.2s-0.3,0-0.3,0.3s0,0.7,0,1.1s-0.1,0.4-0.4,0.4
				s-0.4-0.1-0.4-0.4s0-0.7,0-1.1s-0.1-0.3-0.3-0.3s-0.3,0-0.3,0.3c0,0.4,0,0.8,0,1.2c0,0.4,0.3,0.8,0.7,0.8c0.1,0,0.2,0,0.3,0
				s0.3,0,0.4,0c0.4,0.1,0.4,0,0.4-0.3L207.8,82z M217.3,82c0-0.3,0-0.6,0-0.8s-0.1-0.3-0.3-0.3s-0.3,0.1-0.3,0.3s0,0.7,0,1.1
				s-0.1,0.4-0.4,0.4s-0.4-0.1-0.4-0.4s0-0.7,0-1.1s-0.1-0.3-0.3-0.3s-0.3,0-0.3,0.3s0,0.8,0,1.1c-0.1,0.4,0.2,0.8,0.7,0.9
				c0.1,0,0.3,0,0.4-0.1c0.1,0,0.3,0,0.4,0c0.4,0.1,0.4,0,0.4-0.4L217.3,82z M203.7,82c0-0.3,0-0.6,0-0.9s-0.1-0.2-0.3-0.2
				s-0.3,0-0.3,0.2c0,0.4,0,0.7,0,1.1s-0.1,0.4-0.4,0.4s-0.4-0.1-0.4-0.4s0-0.8,0-1.1c0-0.2-0.1-0.2-0.3-0.2s-0.3,0-0.3,0.2
				s0,0.8,0,1.1c-0.1,0.4,0.2,0.8,0.7,0.9c0.2,0,0.4,0,0.5-0.1c0.1,0,0.2,0,0.2,0c0.3,0.2,0.5,0,0.5-0.3L203.7,82z M217.8,82
				c0,0.3,0,0.6,0,0.9s0.1,0.2,0.3,0.2s0.3,0,0.3-0.2s0-0.7,0-1.1c0-0.2,0.1-0.4,0.3-0.4c0,0,0,0,0.1,0c0.3,0,0.4,0.1,0.4,0.4
				c0,0.4,0,0.7,0,1.1s0.2,0.2,0.3,0.2s0.2,0,0.2-0.2c0-0.4,0-0.8,0-1.2c0-0.4-0.3-0.8-0.7-0.8c-0.1,0-0.3,0-0.4,0.1
				c-0.1,0.1-0.2,0.1-0.3,0c-0.3-0.2-0.5,0-0.5,0.3L217.8,82z M223.4,80.9L223.4,80.9c-0.4,0-0.7,0.2-0.8,0.6c0,0.3,0.1,0.5,0.5,0.7
				l0.5,0.2c0.1,0,0.2,0.1,0.2,0.2s-0.1,0.2-0.2,0.2c-0.2,0-0.4,0-0.5-0.2c-0.2-0.2-0.4,0-0.5,0.1s0,0.2,0.1,0.3
				c0.3,0.2,0.7,0.3,1.1,0.2c0.3,0,0.5-0.3,0.6-0.6c0-0.3-0.2-0.5-0.4-0.6s-0.4-0.1-0.6-0.2c-0.1,0-0.1-0.1-0.1-0.2s0.1-0.2,0.2-0.2
				c0.2,0,0.3,0,0.5,0.1s0.2,0,0.3-0.2s0-0.2-0.1-0.3C223.8,80.9,223.6,80.9,223.4,80.9L223.4,80.9z M205.2,83.2c0,0,0.1,0,0.2,0
				s0.3,0,0.3-0.2s-0.1-0.3-0.3-0.2s-0.3-0.1-0.3-0.3s0-0.4,0-0.6s0.1-0.4,0.4-0.4s0.2-0.1,0.2-0.2s-0.1-0.2-0.2-0.2
				c-0.3,0-0.4-0.1-0.4-0.4c0-0.1,0-0.2-0.1-0.2c-0.2,0-0.4,0.1-0.5,0.3l0,0c0,0.1,0,0.2-0.2,0.2s-0.1,0.1-0.1,0.2s0,0.2,0.2,0.2
				s0.2,0.1,0.2,0.2c0,0.3,0,0.6,0,0.9C204.4,83,204.6,83.2,205.2,83.2L205.2,83.2z M217.5,86.8L217.5,86.8l0.1,0.6
				c0,0.1,0,0.2,0.1,0.2s0.2-0.1,0.2-0.2v-1.2c0-0.1,0-0.2-0.1-0.3s-0.2,0.1-0.3,0.2c-0.1,0.3-0.2,0.6-0.4,1
				c-0.2-0.4-0.3-0.7-0.4-1.1c0-0.1-0.1-0.2-0.2-0.1s-0.1,0.1-0.1,0.2v1.4c0,0.1,0,0.2,0.2,0.2s0.1-0.1,0.1-0.2s0-0.4,0-0.6
				c0.1,0.2,0.2,0.4,0.3,0.6c0,0.1,0.1,0.2,0.2,0.2c0.1,0,0.2-0.1,0.2-0.1L217.5,86.8z M210.7,81.4L210.7,81.4c0,0.4,0,0.8,0,1.2
				c0,0.3,0.2,0.6,0.5,0.6c0.1,0,0.1,0,0.2,0c0.1,0,0.2,0,0.2-0.2s0.1-0.3-0.1-0.3s-0.2-0.2-0.2-0.3c0-0.7,0-1.4,0-2.2
				c0-0.2-0.2-0.2-0.3-0.2s-0.3,0-0.3,0.2C210.7,80.6,210.7,81,210.7,81.4L210.7,81.4z M200.9,86.7v0.7c0,0.1,0,0.2,0.2,0.2
				s0.4,0,0.7,0s0.4-0.3,0.4-0.6c0-0.1-0.1-0.2-0.1-0.2c-0.1-0.1-0.1-0.1,0-0.2c0.1-0.2,0.1-0.4-0.1-0.6c-0.1-0.1-0.1-0.1-0.2-0.1
				c-0.2,0-0.4,0-0.5,0s-0.2,0.1-0.2,0.2S200.8,86.5,200.9,86.7L200.9,86.7z M193.8,85.8c-0.2,0-0.2,0-0.3,0.2
				c-0.1,0.4-0.2,0.9-0.3,1.3c0,0.1-0.1,0.2,0.1,0.2s0.2,0,0.2-0.1s0.1-0.2,0.3-0.2l0,0c0.2,0,0.3,0,0.3,0.2s0.2,0.1,0.3,0.1
				s0.1-0.1,0.1-0.2c-0.1-0.4-0.2-0.9-0.4-1.3C194,85.9,193.9,85.8,193.8,85.8L193.8,85.8z M195.7,86.7V86c0-0.1-0.1-0.2-0.1-0.2
				c-0.1,0-0.2,0-0.2,0.1V86c0,0.2,0,0.3-0.2,0.2c-0.2,0-0.4,0.1-0.5,0.3l0,0c0,0.5-0.1,0.8,0.3,0.9h0.1c0.2,0,0.4-0.1,0.6,0
				s0.1-0.1,0.1-0.2L195.7,86.7z M229.7,86.7V86c0-0.1-0.1-0.2-0.2-0.2s-0.2,0-0.2,0.2v0.2c0,0.2,0,0.3-0.2,0.2
				c-0.2-0.1-0.5,0.1-0.5,0.3l0,0c-0.1,0.4,0,0.8,0.3,0.9h0.1c0.2,0,0.4-0.1,0.6,0s0.1-0.1,0.1-0.2L229.7,86.7L229.7,86.7z
				 M207.2,85.8c-0.3,0-0.5,0.1-0.6,0.4s0.1,0.4,0.4,0.6l0.3,0.1c0.1,0,0.2,0.1,0.1,0.2c0,0.1-0.1,0.2-0.2,0.2c-0.1,0-0.3,0-0.4-0.1
				c-0.1-0.1-0.2,0-0.2,0.1s0,0.1,0.1,0.2c0.2,0.1,0.4,0.2,0.7,0.1c0.3,0,0.5-0.3,0.4-0.5c0-0.2-0.2-0.4-0.3-0.4l-0.4-0.2
				c-0.1,0-0.1-0.1-0.1-0.2s0.1-0.1,0.2-0.1c0.1,0,0.2,0,0.3,0.1c0.1,0,0.1,0,0.2-0.1s0-0.1-0.1-0.2
				C207.5,85.8,207.3,85.8,207.2,85.8L207.2,85.8z M222.6,86.7h-0.3c-0.2,0-0.4,0.1-0.4,0.4v0.1c0,0.2,0.2,0.4,0.4,0.4
				c0,0,0,0,0.1,0c0.6,0,0.6,0,0.6-0.7l0,0c0-0.5-0.3-0.7-0.8-0.6c-0.1,0-0.2,0-0.2,0.2s0.1,0.1,0.2,0.1S222.4,86.5,222.6,86.7
				L222.6,86.7z M198,87.3c-0.1-0.3-0.1-0.6-0.2-0.8s-0.2-0.2-0.3-0.1s-0.1,0.2-0.1,0.2c0.1,0.3,0.2,0.6,0.3,0.9
				c0.1,0.1,0.1,0.3,0,0.5c0,0.1-0.1,0.1,0,0.2c0.1,0,0.1,0,0.2,0c0.1,0,0.1-0.1,0.1-0.2l0.4-1.3c0-0.1,0.1-0.2,0-0.3
				s-0.2,0-0.3,0.2S198.1,87,198,87.3z M205.6,87.1v-0.2c0-0.3-0.1-0.6-0.4-0.6c-0.1,0-0.3,0-0.4,0.1c-0.1,0-0.1,0-0.1,0.1
				s0.1,0.1,0.2,0.1h0.1c0.1,0,0.3,0,0.3,0.1s-0.2,0.1-0.2,0.1c-0.3,0-0.5,0.2-0.5,0.5c0,0.2,0.2,0.4,0.5,0.4l0,0
				c0.1,0,0.2-0.1,0.2,0c0.2,0.1,0.3,0,0.3-0.3L205.6,87.1z M224.6,86.7c0,0.2,0,0.5,0,0.7s0.1,0.2,0.2,0.2s0.2,0,0.2-0.2
				c0-0.1,0-0.1,0-0.2c0-0.4,0-0.4,0.4-0.4h0.1c0.1,0,0.2,0,0.2-0.2s-0.1-0.1-0.2-0.1h-0.2c-0.1,0-0.3,0-0.3-0.2s0.1-0.2,0.3-0.2
				h0.3c0.1,0,0.2,0,0.2-0.1s-0.1-0.2-0.2-0.2H225c-0.2,0-0.2,0-0.2,0.2S224.6,86.5,224.6,86.7z M199.9,87.1v-0.2
				c0-0.3-0.2-0.6-0.5-0.6c-0.1,0-0.3,0-0.4,0.1c-0.1,0-0.1,0-0.1,0.1s0.1,0.1,0.2,0.1h0.1c0.1,0,0.3-0.1,0.3,0.1s-0.2,0-0.2,0
				c-0.2,0-0.4,0.2-0.5,0.4c0,0,0,0,0,0.1c0,0.2,0.2,0.4,0.4,0.4c0,0,0,0,0.1,0s0.2-0.1,0.3,0c0.3,0.1,0.3,0,0.3-0.3
				C199.8,87.2,199.8,87.2,199.9,87.1z M214.8,87.6c0.1,0,0.3,0,0.4-0.1c0,0,0.1-0.1,0.1-0.2s-0.1-0.1-0.2-0.1s-0.1,0.1-0.2,0.1
				c-0.1,0-0.2,0-0.2-0.1l0,0c0-0.2,0.1-0.1,0.2-0.1h0.4c0.1,0,0.2-0.1,0.2-0.2c0-0.2-0.1-0.4-0.3-0.5s-0.5-0.1-0.6,0.1
				c-0.2,0.2-0.2,0.6-0.1,0.8C214.3,87.5,214.5,87.6,214.8,87.6L214.8,87.6z M227.2,87v0.4c0,0.1,0,0.2,0.1,0.2s0.2-0.1,0.2-0.2
				v-0.5c0-0.1,0.1-0.2,0.2-0.2l0,0c0.1,0,0.2,0.1,0.2,0.2v0.6c0,0.1,0,0.2,0.2,0.2s0.2,0,0.2-0.2s0-0.5,0-0.7s-0.2-0.4-0.4-0.4l0,0
				C227.2,86.3,227.2,86.3,227.2,87z M219.2,87v-0.4c0-0.1-0.1-0.2-0.2-0.2s-0.1,0-0.1,0.2s0,0.4,0,0.6s-0.1,0.3-0.2,0.2
				s-0.2-0.1-0.2-0.2c0-0.2,0-0.4,0-0.6c0-0.1,0-0.2-0.2-0.2s-0.1,0-0.1,0.2s0,0.5,0,0.7s0.2,0.4,0.4,0.4l0,0
				C219.2,87.6,219.2,87.6,219.2,87L219.2,87z M226.9,87v-0.5c0-0.1-0.1-0.2-0.2-0.2s-0.1,0.1-0.1,0.2c0,0.2,0,0.4,0,0.6
				s-0.1,0.3-0.2,0.2s-0.2-0.1-0.2-0.2v-0.6c0-0.1,0-0.1-0.1-0.1s-0.2,0-0.2,0.1c0,0.3,0,0.5,0,0.8c0,0.2,0.2,0.3,0.4,0.3
				C226.8,87.7,226.9,87.6,226.9,87z M221.5,87v-0.4c0-0.1,0-0.2-0.1-0.2s-0.2,0.1-0.2,0.2s0,0.4,0,0.5s-0.1,0.2-0.2,0.2
				c0,0,0,0-0.1,0s-0.2-0.1-0.2-0.2s0-0.4,0-0.6s-0.1-0.2-0.2-0.2s-0.1,0-0.1,0.2s0,0.5,0,0.7s0.2,0.4,0.4,0.4l0,0
				C221.5,87.7,221.5,87.7,221.5,87L221.5,87z M209.4,87v0.5c0,0.1,0,0.2,0.2,0.2s0.1-0.1,0.1-0.2s0-0.3,0-0.5s0.1-0.3,0.2-0.3
				s0.2,0.1,0.2,0.3s0,0.3,0,0.5s0.1,0.2,0.2,0.2s0.2,0,0.2-0.2s0-0.5,0-0.7s-0.2-0.4-0.4-0.4C209.4,86.3,209.4,86.4,209.4,87
				L209.4,87z M209,87v-0.5c0-0.1,0-0.2-0.1-0.2s-0.2,0-0.2,0.2s0,0.4,0,0.6c0,0.1-0.1,0.2-0.2,0.2l0,0c-0.1,0-0.2-0.1-0.2-0.2
				s0-0.4,0-0.6s0-0.2-0.1-0.2s-0.2,0-0.2,0.2s0,0.4,0,0.7c0,0.2,0.2,0.4,0.4,0.4C209,87.7,209,87.6,209,87L209,87z M211.7,86.6V86
				c0-0.1,0-0.2-0.2-0.2s-0.1,0.1-0.1,0.2v1.4c0,0.1,0,0.2,0.2,0.2h0.7c0.1,0,0.2,0,0.2-0.1s-0.1-0.1-0.2-0.1s-0.4,0.1-0.5-0.1
				S211.8,86.8,211.7,86.6L211.7,86.6z M213.8,85.8c-0.1,0-0.2,0-0.2,0c-0.2,0.1-0.1,0.5-0.4,0.6v0.1c0.2,0,0.1,0.2,0.1,0.3v0.5
				c0,0.1,0,0.2,0.2,0.2s0.1-0.1,0.1-0.2v-0.6c0-0.1,0-0.2,0.2-0.2s0.1,0,0.1-0.1s-0.1-0.1-0.1-0.1s-0.2,0-0.2-0.1s0-0.2,0.1-0.2
				s0.2,0,0.2-0.2S213.9,85.8,213.8,85.8L213.8,85.8z M220,87.6c0.1,0,0.2,0,0.2-0.1s-0.1-0.2-0.2-0.2s-0.1-0.1-0.1-0.2v-0.3
				c0-0.2,0-0.3,0.2-0.3c0.1,0,0.1,0,0.1-0.1s-0.1-0.1-0.1-0.1s-0.2-0.1-0.2-0.2s0-0.1-0.1-0.1s-0.2,0-0.2,0.1s-0.4,0.4,0,0.6
				c0,0,0,0.1,0,0.2s0,0.2,0,0.4C219.6,87.5,219.7,87.6,220,87.6z M197.1,87.6c0.1,0,0.2,0,0.2-0.1s0-0.2-0.1-0.2s-0.3-0.1-0.2-0.2
				s-0.2-0.4,0.2-0.5c0.1,0,0.1,0,0.1-0.1l0,0c0-0.1,0-0.1-0.1-0.1s-0.2,0-0.2-0.2s0-0.2-0.1-0.2s-0.2,0-0.2,0.1s0,0.2-0.1,0.2
				s-0.2,0.2,0,0.3s0.1,0.1,0.1,0.2s0,0.3,0,0.4S196.8,87.6,197.1,87.6L197.1,87.6z M223.1,86.6L223.1,86.6c0,0.2,0,0.5,0,0.7
				s0.1,0.3,0.3,0.3c0.1,0,0.1,0,0.1,0v-0.2c-0.2-0.1-0.1-0.3-0.1-0.5c0-0.3,0-0.6,0-0.9c0-0.1-0.1-0.2-0.2-0.2S223,85.9,223,86
				L223.1,86.6z M203.9,86.6L203.9,86.6c0,0.2,0,0.4,0,0.7c0,0.2,0.1,0.3,0.3,0.3c0,0,0,0,0.1,0s0.1,0,0.1,0v-0.2
				c-0.2-0.1-0.1-0.3-0.1-0.4c0-0.3,0-0.6,0-0.9c0-0.1,0-0.3-0.2-0.2s-0.1,0.2-0.2,0.3L203.9,86.6L203.9,86.6z M203,87v0.4
				c0,0.1,0,0.2,0.2,0.2s0.2,0,0.2-0.2V87c0-0.2,0-0.3,0.3-0.3c0.1,0,0.2,0,0.2-0.1v-0.1c-0.2-0.2-0.4,0.2-0.6,0
				c-0.1,0-0.1,0-0.1,0.1L203,87L203,87z M212.8,87v0.4c0,0.1,0,0.2,0.2,0.2s0.2,0,0.2-0.2c0-0.3,0-0.6,0-0.9c0-0.1,0-0.2-0.2-0.2
				s-0.2,0-0.2,0.2V87z M202.7,87v-0.5c0-0.1,0-0.2-0.1-0.2s-0.2,0-0.2,0.2v0.9c0,0.1,0.1,0.2,0.2,0.2s0.1-0.1,0.1-0.2V87z
				 M196.3,87v-0.5c0-0.1,0-0.2-0.1-0.2s-0.2,0-0.2,0.1v1c0,0.1,0.1,0.2,0.2,0.2s0.1-0.1,0.1-0.2V87z M202.7,86
				c0-0.1-0.1-0.2-0.2-0.2c-0.1,0-0.2,0-0.2,0.1l0,0c0,0.1,0,0.2,0.1,0.2l0,0C202.6,86.2,202.6,86.1,202.7,86L202.7,86z M196.2,85.8
				c-0.1,0-0.2,0-0.2,0.2c0,0.1,0.1,0.2,0.1,0.2l0,0c0.1,0,0.2-0.1,0.2-0.2S196.2,85.8,196.2,85.8L196.2,85.8z M213.1,86
				c0-0.1-0.1-0.2-0.2-0.1l0,0c-0.1,0-0.2,0.1-0.2,0.1l0,0c0,0.1,0.1,0.2,0.2,0.2S213.1,86.1,213.1,86L213.1,86z"/>
			<path class="st9" d="M211.3,63.4h-10.6c-0.2,0-0.3,0-0.3-0.3V49.9c0-0.2,0-0.3,0.3-0.3H222c0.2,0,0.3,0.1,0.3,0.3v13.2
				c0,0.2-0.1,0.3-0.3,0.3H211.3z M200.7,50v13.1h0.1h10.3c0.1,0,0.1,0,0.2,0l0,0h0.1l0,0h0.1h10.3c0.1,0,0.2,0,0.2-0.1v-4.7
				c0-0.2,0-0.5,0-0.7c0-0.9,0-1.8,0-2.6v-5l0,0h-20.9C201,49.9,200.8,49.7,200.7,50z"/>
			<path class="st10" d="M205.2,72.5c-0.6,0-0.6,0-0.7,0.6c0,0.1,0,0.3-0.1,0.3c-0.2,0-0.4,0-0.7,0c-0.1,0-0.1-0.1,0-0.2
				c0.3-1.3,0.7-2.6,1-3.9c0-0.1,0.1-0.2,0.2-0.2c0.9-0.1,0.9-0.1,1.1,0.8c0.3,1.1,0.6,2.2,0.9,3.3c0.1,0.2,0,0.3-0.2,0.3
				c-0.6,0-0.6,0-0.7-0.5c-0.1-0.3-0.1-0.4-0.4-0.3C205.4,72.5,205.3,72.5,205.2,72.5z M205.2,70.1L205.2,70.1
				c-0.1,0.4-0.2,0.8-0.3,1.1c-0.1,0.6-0.1,0.6,0.5,0.6c0.2,0,0.2-0.1,0.1-0.2C205.4,71.1,205.3,70.6,205.2,70.1L205.2,70.1z"/>
			<path class="st9" d="M218.5,73.4c-0.3,0.1-0.4-0.1-0.4-0.4c0-0.1-0.1-0.2-0.1-0.3c0-0.1-0.1-0.2-0.2-0.2l0,0h-0.3
				c-0.2,0-0.5-0.1-0.7,0s-0.1,0.4-0.2,0.6s-0.2,0.2-0.3,0.2c-0.6,0-0.6,0.1-0.4-0.5c0.3-1.2,0.6-2.3,0.9-3.5c0-0.2,0.1-0.3,0.4-0.3
				s0.6-0.1,0.7,0s0.2,0.4,0.2,0.7l0.8,3.1C219,73.4,219,73.4,218.5,73.4z M217.4,70.1L217.4,70.1c-0.1,0.4-0.2,0.8-0.3,1.2
				c-0.2,0.7-0.2,0.7,0.5,0.6h0.1c0.1,0,0.1-0.1,0.1-0.1L217.4,70.1z"/>
			<path class="st10" d="M207.5,71.2c0-0.6,0-1.2,0-1.8c0-0.2,0-0.3,0.3-0.3c0.4,0,0.9,0,1.3,0c0.7,0,1.2,0.6,1.2,1.3
				c0,0.6-0.5,1.1-1.1,1.2c-0.2,0-0.4,0-0.5,0c-0.2,0-0.3,0.1-0.3,0.3c0,0.4,0,0.8,0,1.2c0,0.2-0.1,0.3-0.3,0.3
				c-0.5,0-0.5,0-0.5-0.5L207.5,71.2z M208.3,70.4c0,0.6,0,0.6,0.6,0.6c0.4,0,0.6-0.2,0.6-0.6c0-0.3-0.2-0.6-0.6-0.6c0,0,0,0-0.1,0
				C208.3,69.8,208.3,69.8,208.3,70.4z"/>
			<path class="st10" d="M200.4,71.2c0-0.4,0-0.7,0-1.1c0-0.3,0.1-0.6,0.4-0.8c0.7-0.5,1.6-0.4,2.2,0.2c0.1,0.1,0.1,0.2,0,0.3
				c-0.1,0-0.2,0.1-0.2,0.2c-0.1,0.1-0.2,0.1-0.3,0l0,0c-0.1-0.1-0.3-0.2-0.4-0.3c-0.3-0.1-0.7,0-0.8,0.3c0,0.1-0.1,0.2,0,0.3V72
				c-0.1,0.3,0.2,0.7,0.5,0.7c0.2,0,0.3,0,0.5-0.1c0.1,0,0.1,0,0.1-0.1c0.2-0.3,0.4-0.2,0.6,0s0.2,0.2,0.1,0.4
				c-0.6,0.6-1.5,0.7-2.2,0.2c-0.3-0.2-0.4-0.5-0.4-0.8C200.4,72,200.4,71.6,200.4,71.2z"/>
			<path class="st10" d="M214.2,69.1h1.2c0.2,0,0.2,0.1,0.2,0.2c0,0.4,0,0.4-0.4,0.4c-0.6,0-0.6,0-0.6,0.6c0,0.9,0,1.8,0,2.7
				c0,0.2-0.1,0.3-0.3,0.3c-0.5,0-0.5,0-0.5-0.5c0-0.9,0-1.9,0-2.8c0-0.2-0.1-0.3-0.2-0.2s-0.2,0-0.3,0c-0.4,0-0.5-0.1-0.4-0.6
				c0-0.1,0.1-0.1,0.2-0.1H214.2z"/>
			<path class="st10" d="M219.7,71.2c0-0.6,0-1.3,0-1.9c0-0.2,0-0.2,0.2-0.2c0.7,0,0.6-0.1,0.6,0.5c0,0.9,0,1.8,0,2.8
				c0,0.2,0,0.3,0.2,0.3c0.4,0,0.9,0,1.3,0c0.2,0,0.3,0,0.2,0.2c0,0.1,0,0.2,0,0.3c0,0.1-0.1,0.2-0.2,0.2c-0.8,0-1.5,0-2.2,0
				c-0.2,0-0.2-0.1-0.2-0.2L219.7,71.2z"/>
			<path class="st10" d="M214.4,66.6c0.3,0.2,0.5,0.6,0.4,1c-0.1,0.3-0.3,0.6-0.7,0.6s-0.8,0-1.1,0c-0.1,0-0.1-0.1-0.1-0.2v-2.7
				c0-0.1,0.1-0.2,0.2-0.2h0.9c0.3,0,0.6,0.1,0.7,0.4C214.8,65.9,214.8,66.2,214.4,66.6L214.4,66.6z M213.4,67.3
				c0,0.5-0.1,0.4,0.3,0.4s0.6-0.1,0.6-0.4s-0.2-0.4-0.6-0.4S213.4,66.8,213.4,67.3L213.4,67.3z M213.4,66c0,0.2,0,0.4,0.3,0.4
				s0.5-0.1,0.5-0.4s-0.1-0.3-0.5-0.3S213.4,65.8,213.4,66L213.4,66z"/>
			<path class="st9" d="M216.1,66.7c0-0.4,0-0.9,0-1.3c0-0.2,0-0.2,0.2-0.2s0.5,0,0.7,0c0.5-0.1,0.9,0.2,1,0.7c0,0.2,0,0.5-0.2,0.7
				c-0.2,0.3-0.2,0.7,0,0.9c0.1,0.2,0.2,0.4,0.2,0.5s0,0.2-0.1,0.2s-0.5,0-0.6-0.3s-0.2-0.4-0.3-0.7s-0.2-0.2-0.4-0.2
				s-0.1,0.2-0.1,0.3c0,0.2,0,0.4,0,0.7c0,0.2-0.1,0.2-0.3,0.2s-0.3,0-0.3-0.2C216.1,67.5,216.1,67.1,216.1,66.7z M216.6,66.1
				c0,0.2-0.1,0.5,0.3,0.4s0.5-0.2,0.5-0.5s-0.1-0.4-0.5-0.4S216.6,65.9,216.6,66.1z"/>
			<path class="st9" d="M202.7,66.7c0-0.4,0-0.9,0-1.3c0-0.2,0-0.2,0.2-0.2s0.6,0,0.9,0c0.4,0,0.7,0.3,0.8,0.7
				c0.1,0.6,0.1,1.1,0,1.7c0,0.4-0.4,0.7-0.7,0.7s-0.6,0-1,0c-0.2,0-0.2-0.1-0.2-0.2C202.7,67.6,202.7,67.1,202.7,66.7z M203.3,66.7
				v0.8c0,0.1,0,0.2,0.1,0.2c0.2,0.1,0.4,0.1,0.6,0c0.1-0.1,0.2-0.2,0.2-0.3v-1.1c0-0.5-0.1-0.6-0.6-0.6c-0.1,0-0.2,0-0.2,0.2
				S203.3,66.4,203.3,66.7L203.3,66.7z"/>
			<path class="st9" d="M202.2,68.2c-0.2,0.1-0.3-0.1-0.3-0.3s0-0.3-0.1-0.3c-0.2-0.1-0.5-0.1-0.7,0c-0.1,0.1-0.1,0.2-0.1,0.3
				c-0.1,0.2-0.3,0.3-0.5,0.3c0,0,0,0-0.1,0s-0.1-0.1,0-0.2c0.2-0.9,0.4-1.8,0.6-2.7c0-0.1,0.1-0.1,0.2-0.1l0,0c0.1,0,0.2,0,0.3,0
				c0.2,0,0.2,0.1,0.3,0.2c0.2,0.8,0.4,1.7,0.6,2.5C202.5,68.1,202.5,68.2,202.2,68.2z M201.5,65.9L201.5,65.9
				c-0.1,0.3-0.2,0.7-0.3,1.1v0.1c0.1,0,0.3,0,0.4,0c0.1,0,0-0.1,0-0.2C201.6,66.6,201.5,66.2,201.5,65.9z"/>
			<path class="st9" d="M222,68.2c-0.2,0-0.3,0-0.3-0.2s0-0.3-0.1-0.4c-0.2,0-0.4,0-0.7,0c-0.1,0-0.1,0.2-0.1,0.3
				c-0.1,0.2-0.3,0.3-0.5,0.3l0,0c-0.1,0-0.1-0.1,0-0.2c0.2-0.9,0.4-1.8,0.6-2.7c0-0.1,0.1-0.2,0.2-0.2l0,0c0.1,0,0.2,0,0.3,0
				c0.2,0,0.3,0.1,0.3,0.2c0.2,0.8,0.4,1.7,0.6,2.5C222.3,68.2,222.3,68.2,222,68.2z M221.2,65.8c-0.1,0.4-0.2,0.8-0.2,1.1
				c0,0.1-0.1,0.2,0,0.2s0.3,0,0.4,0c0.1,0,0-0.1,0-0.2C221.4,66.5,221.3,66.2,221.2,65.8L221.2,65.8z"/>
			<path class="st9" d="M210.6,67.6c-0.3-0.1-0.4,0.1-0.5,0.4c0,0.2-0.2,0.3-0.4,0.3h-0.1c-0.1,0-0.1-0.1,0-0.2
				c0.2-0.9,0.4-1.8,0.6-2.7c0-0.1,0.1-0.2,0.2-0.2c0.1,0,0.2,0,0.3,0c0.2,0,0.2,0.1,0.3,0.2c0.2,0.9,0.4,1.7,0.6,2.6
				c0,0.1,0.1,0.2-0.1,0.2s-0.4,0.1-0.4-0.1V68C211.1,67.7,211,67.5,210.6,67.6z M210.6,65.8c-0.1,0.4-0.2,0.8-0.2,1.2
				c0,0.1-0.1,0.2,0,0.2s0.3,0,0.4,0c0.1,0,0-0.1,0-0.2C210.8,66.6,210.7,66.2,210.6,65.8z"/>
			<path class="st10" d="M212,71.3c0,0.6,0,1.2,0,1.9c0,0.2-0.1,0.3-0.3,0.3c-0.7,0-0.6,0.1-0.6-0.6c0-1.1,0-2.3,0-3.4
				c0-0.2,0.1-0.3,0.3-0.3c0.6,0,0.5-0.1,0.5,0.5L212,71.3z"/>
			<path class="st9" d="M208.9,66.5l0.4-1.1c0.1-0.2,0.3-0.3,0.6-0.2c0.1,0.1,0,0.1,0,0.2c-0.1,0.3-0.2,0.6-0.4,0.9
				c-0.3,0.5-0.4,1-0.3,1.6c0,0.2,0,0.3-0.3,0.3s-0.3-0.1-0.3-0.3c0.1-0.6-0.1-1.1-0.3-1.6c-0.1-0.2-0.2-0.5-0.3-0.7
				c0-0.1-0.2-0.3-0.1-0.4c0.2-0.1,0.4,0,0.5,0.2v0.1C208.7,65.7,208.8,66.1,208.9,66.5z"/>
			<path class="st9" d="M206.5,66.9c0-0.3,0-0.7,0-1c0-0.2,0-0.2-0.2-0.2s-0.2,0-0.3,0s-0.2-0.1-0.2-0.3s0-0.2,0.2-0.2
				c0.5,0,1,0,1.5,0c0.2,0,0.2,0.1,0.2,0.2s0,0.2-0.2,0.2c-0.5,0-0.5,0-0.5,0.5s0,1.2,0,1.8c0,0.2-0.1,0.3-0.3,0.3s-0.3-0.1-0.3-0.3
				S206.5,67.2,206.5,66.9L206.5,66.9z"/>
			<path class="st10" d="M218.3,66.7c0-0.4,0-0.8,0-1.3c0-0.2,0.1-0.2,0.3-0.2s0.3,0,0.3,0.2c0,0.7,0,1.4,0,2.1
				c0,0.2,0.1,0.2,0.2,0.2s0.5,0,0.8,0s0.2,0.1,0.2,0.2s0,0.3-0.2,0.2h-1.3c-0.2,0-0.2-0.1-0.2-0.2
				C218.3,67.5,218.3,67.1,218.3,66.7z"/>
			<path class="st9" d="M205,66.7c0-0.4,0-0.9,0-1.3c0-0.2,0.1-0.2,0.3-0.2s0.3,0,0.3,0.2c0,0.9,0,1.8,0,2.6c0,0.2-0.1,0.2-0.3,0.2
				s-0.3,0-0.3-0.2C205,67.6,205,67.1,205,66.7z"/>
			<path class="st10" d="M215.7,66.7c0,0.4,0,0.9,0,1.3c0,0.2-0.1,0.2-0.3,0.2s-0.3,0-0.3-0.2c0-0.9,0-1.8,0-2.6
				c0-0.2,0.1-0.2,0.3-0.2s0.3,0,0.3,0.2C215.6,65.8,215.7,66.2,215.7,66.7z"/>
			<path class="st11" d="M199.9,82.2l0.7-1.8c0.1-0.2,0.3-0.3,0.5-0.3l0,0c0.1,0,0.1,0.1,0.1,0.2v2.6c0,0.3-0.2,0.2-0.3,0.2
				s-0.3,0-0.2-0.2c0-0.5,0-0.9-0.1-1.3c-0.1,0.4-0.3,0.8-0.5,1.2c-0.1,0.2-0.1,0.3-0.3,0.3s-0.3-0.1-0.3-0.3
				c-0.2-0.4-0.3-0.8-0.5-1.2c0,0.4,0,0.8,0,1.3c0,0.2,0,0.3-0.2,0.3s-0.3,0-0.3-0.3c0-0.8,0-1.7,0-2.5c0-0.1,0-0.3,0.2-0.3
				s0.4-0.1,0.5,0.2c0.2,0.6,0.4,1.1,0.6,1.7C199.7,82,199.8,82.1,199.9,82.2z"/>
			<path class="st11" d="M222.1,81.6v1.2c0,0.3-0.2,0.5-0.5,0.3c-0.1,0-0.2,0-0.2,0c-0.4,0.2-0.9,0.1-1.1-0.3
				c-0.1-0.2-0.1-0.3-0.1-0.5v-0.4c-0.1-0.5,0.3-0.9,0.7-0.9c0.1,0,0.3,0,0.4,0c0.2,0,0.3,0,0.2-0.2s0-0.3,0-0.5s0-0.3,0.3-0.3
				s0.3,0.1,0.3,0.3C222,80.7,222.1,81.1,222.1,81.6z M220.7,82c0,0.1,0,0.2,0,0.3c0,0.2,0.1,0.4,0.4,0.4c0.2,0,0.4-0.1,0.4-0.3
				c0,0,0,0,0-0.1c0-0.2,0-0.4,0-0.6s-0.2-0.4-0.4-0.4l0,0c-0.2,0-0.4,0.1-0.4,0.3l0,0V82z"/>
			<path class="st11" d="M213.1,81.6c0-0.4,0-0.8,0-1.2c0-0.2,0.1-0.3,0.3-0.3c0.4,0,0.9,0,1.4,0c0.2,0,0.2,0.1,0.2,0.2
				s0,0.3-0.2,0.3s-0.6,0-0.9,0c-0.1,0-0.2,0-0.2,0.2c0,0.6,0,0.6,0.5,0.6c0.1,0,0.2,0,0.3,0c0.2,0,0.3,0,0.3,0.2s-0.1,0.2-0.3,0.2
				s-0.6-0.1-0.8,0.1s0,0.5,0,0.7v0.2c0,0.3-0.2,0.4-0.5,0.3c-0.1,0-0.1-0.1-0.1-0.2V81.6z"/>
			<path class="st11" d="M210.1,82.3v0.5c0,0.3-0.1,0.5-0.4,0.3c-0.1-0.1-0.2-0.1-0.3,0c-0.4,0.2-0.8,0-1-0.4
				c-0.1-0.2-0.1-0.3-0.1-0.5c0.1-0.4,0.5-0.7,1-0.6c0.1,0,0.2,0.2,0.2,0s-0.1-0.3-0.2-0.3c-0.2,0-0.4,0-0.6,0
				c-0.2,0.1-0.2,0-0.3-0.2s0-0.2,0.1-0.2c0.3-0.1,0.7-0.1,1-0.1c0.3,0.1,0.6,0.4,0.5,0.7C210.1,81.8,210.1,82,210.1,82.3
				L210.1,82.3z M209.5,82.4c0-0.2-0.1-0.3-0.3-0.3l0,0c-0.2,0-0.4,0.1-0.4,0.3l0,0c0,0.2,0.1,0.3,0.4,0.3
				C209.3,82.7,209.5,82.6,209.5,82.4L209.5,82.4z"/>
			<path class="st11" d="M207.7,82.1v0.7c0,0.4-0.1,0.5-0.4,0.3c-0.1,0-0.3,0-0.4,0c-0.4,0.1-0.8-0.1-1-0.5c0-0.1,0-0.2,0-0.3
				c0-0.4,0-0.8,0-1.2c0-0.2,0.1-0.3,0.3-0.3s0.3,0.1,0.3,0.3s0,0.7,0,1.1s0.1,0.4,0.4,0.4s0.4-0.1,0.4-0.4s0-0.7,0-1.1
				s0.1-0.3,0.3-0.3s0.3,0,0.3,0.2S207.7,81.8,207.7,82.1z"/>
			<path class="st11" d="M217.2,82v0.7c0,0.4-0.1,0.5-0.4,0.4c-0.1,0-0.3,0-0.4,0c-0.4,0.2-0.8,0-1-0.4c-0.1-0.1-0.1-0.3-0.1-0.4
				c0-0.4,0-0.8,0-1.1s0.1-0.3,0.3-0.3s0.3,0,0.3,0.3s0,0.7,0,1.1s0.1,0.4,0.4,0.4s0.4-0.1,0.4-0.4s0-0.7,0-1.1s0.1-0.3,0.3-0.3
				s0.3,0.1,0.3,0.3S217.2,81.7,217.2,82z"/>
			<path class="st11" d="M203.7,82v0.7c0,0.3-0.2,0.5-0.5,0.3c-0.1,0-0.2,0-0.2,0c-0.4,0.2-0.9,0.1-1.1-0.3
				c-0.1-0.2-0.1-0.3-0.1-0.5c0-0.4,0-0.8,0-1.1s0.1-0.2,0.3-0.2s0.3,0,0.3,0.2c0,0.4,0,0.8,0,1.1s0.1,0.4,0.4,0.4s0.4-0.1,0.4-0.4
				s0-0.7,0-1.1c0-0.2,0.1-0.2,0.3-0.2s0.3,0,0.3,0.2S203.7,81.7,203.7,82z"/>
			<path class="st10" d="M217.8,82v-0.8c0-0.3,0.2-0.5,0.5-0.3c0.1,0.1,0.2,0.1,0.3,0c0.4-0.2,0.8,0,1,0.4c0.1,0.1,0.1,0.2,0.1,0.4
				c0,0.4,0,0.8,0,1.2c0,0.2-0.1,0.2-0.2,0.2s-0.3,0-0.3-0.2s0-0.7,0-1.1s-0.1-0.4-0.4-0.4c-0.2,0-0.4,0.2-0.4,0.4c0,0,0,0,0,0.1
				c0,0.4,0,0.7,0,1.1s-0.1,0.2-0.3,0.2s-0.3,0-0.3-0.2S217.8,82.3,217.8,82z"/>
			<path class="st11" d="M223.3,80.9c0.2,0,0.5,0,0.6,0.2c0.1,0.1,0.2,0.1,0.1,0.3s-0.1,0.3-0.3,0.2c-0.1-0.1-0.3-0.1-0.5-0.1
				c-0.1,0-0.2,0-0.2,0.2c0,0.1,0.1,0.2,0.1,0.2c0.2,0.1,0.4,0.1,0.6,0.2c0.3,0.1,0.5,0.3,0.4,0.6c0,0.3-0.3,0.5-0.6,0.6
				c-0.4,0.1-0.8,0-1.1-0.2c-0.1-0.1-0.2-0.2-0.1-0.3s0.3-0.3,0.5-0.1c0.1,0.1,0.3,0.2,0.5,0.2c0.1,0,0.2-0.1,0.2-0.2
				s-0.1-0.2-0.2-0.2l-0.5-0.2c-0.4-0.1-0.6-0.4-0.5-0.7C222.6,81.1,222.9,80.9,223.3,80.9L223.3,80.9z"/>
			<path class="st11" d="M205.1,83.2c-0.5,0-0.8-0.2-0.8-0.7c0-0.3,0-0.6,0-0.9c0-0.1,0-0.2-0.2-0.2s-0.2-0.1-0.2-0.2s0-0.2,0.1-0.2
				s0.2-0.1,0.2-0.2c0-0.2,0.2-0.4,0.4-0.4l0,0c0.1,0,0.1,0.1,0.1,0.2c0,0.3,0,0.4,0.4,0.4c0.2,0,0.2,0.1,0.2,0.2s0,0.2-0.2,0.2
				s-0.4,0.1-0.4,0.4s0,0.4,0,0.6s0.1,0.4,0.3,0.3s0.3,0.1,0.3,0.2S205.2,83.1,205.1,83.2C204.8,83.1,205.1,83.2,205.1,83.2z"/>
			<path class="st11" d="M217.5,86.8l-0.2,0.6c0,0.1-0.1,0.1-0.2,0.1c-0.1,0-0.1-0.1-0.2-0.2c-0.1-0.2-0.2-0.4-0.3-0.6
				c0,0.2,0,0.4,0,0.6s0,0.2-0.1,0.2s-0.2-0.1-0.2-0.2V86c0-0.1,0-0.2,0.1-0.2s0.2,0,0.2,0.1c0.1,0.3,0.3,0.7,0.4,1.1
				c0.1-0.4,0.3-0.7,0.4-1c0-0.1,0.1-0.2,0.3-0.2s0.1,0.2,0.1,0.3v1.2c0,0.1,0,0.2-0.2,0.2s-0.1-0.1-0.1-0.2V86.8L217.5,86.8z"/>
			<path class="st11" d="M210.7,81.4c0-0.4,0-0.8,0-1.2c0-0.2,0.1-0.2,0.3-0.2s0.3,0,0.3,0.2c0,0.7,0,1.4,0,2.2c0,0.2,0,0.3,0.2,0.3
				s0.1,0.2,0.1,0.3s-0.1,0.2-0.2,0.2c-0.3,0.1-0.6-0.1-0.7-0.4c0-0.1,0-0.1,0-0.2C210.7,82.2,210.7,81.8,210.7,81.4L210.7,81.4z"/>
			<path class="st11" d="M200.8,86.7c0-0.2,0-0.4,0-0.6s0.1-0.2,0.2-0.2s0.4,0,0.5,0c0.2,0,0.4,0.2,0.4,0.4c0,0.1,0,0.2-0.1,0.2
				c-0.1,0.1,0,0.2,0,0.2c0.2,0.2,0.2,0.5,0,0.7c-0.1,0.1-0.2,0.1-0.2,0.1c-0.2,0-0.4,0-0.7,0c-0.1,0-0.2-0.1-0.2-0.2L200.8,86.7z
				 M201.4,86.8c-0.1,0-0.2,0-0.2,0.2s0,0.3,0.2,0.3s0.3,0,0.4-0.2S201.6,86.8,201.4,86.8z M201.4,86.5c0.2,0,0.3,0,0.3-0.2
				s-0.2-0.2-0.3-0.2s-0.2,0.1-0.2,0.2S201.2,86.6,201.4,86.5L201.4,86.5z"/>
			<path class="st11" d="M193.8,85.8c0.1,0,0.2,0,0.2,0.2c0.1,0.4,0.2,0.9,0.4,1.3c0,0.1,0.1,0.2-0.1,0.2s-0.2,0-0.3-0.1
				s-0.1-0.2-0.3-0.2c-0.1,0-0.3,0.1-0.3,0.2l0,0c0,0.2-0.1,0.1-0.2,0.1s-0.1-0.1-0.1-0.2c0.1-0.4,0.2-0.9,0.3-1.3
				C193.5,85.9,193.6,85.8,193.8,85.8z M193.8,86.2c-0.1,0.2-0.1,0.4-0.1,0.6s0,0.1,0,0.2c0.1,0,0.1,0,0.2,0c0.1,0,0-0.1,0-0.2
				L193.8,86.2z"/>
			<path class="st11" d="M195.6,86.7v0.7c0,0.1,0,0.2-0.1,0.2s-0.4,0.1-0.6,0h-0.1c-0.3-0.1-0.3-0.4-0.3-0.9c0-0.2,0.2-0.4,0.4-0.4
				l0,0c0.2,0,0.3-0.1,0.2-0.2V86c0-0.1,0.1-0.1,0.2-0.1s0.2,0,0.1,0.2L195.6,86.7L195.6,86.7z M195.3,87c0-0.1,0-0.3-0.1-0.3
				c-0.1-0.1-0.2-0.1-0.2,0c-0.1,0.2-0.1,0.4,0,0.6c0,0.1,0.2,0.1,0.3,0.1S195.3,87.1,195.3,87L195.3,87z"/>
			<path class="st11" d="M229.6,86.7v0.7c0,0.1,0,0.2-0.1,0.2s-0.4,0.1-0.6,0h-0.1c-0.3-0.1-0.4-0.4-0.3-0.9c0-0.2,0.3-0.4,0.5-0.3
				l0,0c0.2,0,0.2-0.1,0.2-0.2V86c0-0.1,0-0.2,0.2-0.2s0.2,0,0.2,0.2L229.6,86.7L229.6,86.7z M229.3,87c0-0.2,0-0.4-0.2-0.4
				s-0.2,0.2-0.2,0.3s0,0.4,0.2,0.4S229.3,87.1,229.3,87L229.3,87z"/>
			<path class="st11" d="M207.2,85.8c0.1,0,0.3,0,0.4,0.1c0.1,0,0.1,0.1,0.1,0.2s-0.1,0.2-0.2,0.1c-0.1,0-0.2-0.1-0.3-0.1
				s-0.2,0.1-0.2,0.1c0,0.1,0,0.2,0.1,0.2l0.4,0.2c0.3,0.1,0.4,0.3,0.3,0.6c-0.1,0.2-0.2,0.3-0.4,0.3c-0.2,0.1-0.5,0-0.7-0.1
				c-0.1,0-0.1-0.1-0.1-0.2s0.1-0.2,0.2-0.1c0.1,0.1,0.3,0.1,0.4,0.1c0.1,0,0.2-0.1,0.2-0.2s0-0.2-0.1-0.2l-0.3-0.1
				c-0.3-0.1-0.4-0.3-0.4-0.6S206.9,85.8,207.2,85.8z"/>
			<path class="st11" d="M222.5,86.7c-0.1-0.2-0.2-0.2-0.4-0.2s-0.2,0-0.2-0.1s0.1-0.2,0.2-0.2c0.5-0.1,0.8,0,0.8,0.6l0,0
				c0,0.6,0,0.6-0.6,0.7c-0.2,0-0.4-0.1-0.5-0.3c0,0,0,0,0-0.1c0-0.2,0.1-0.4,0.4-0.5h0.1L222.5,86.7z M222.3,87.4
				c0.1,0,0.2-0.1,0.2-0.2s-0.1-0.2-0.2-0.2l0,0c-0.1,0-0.2,0.1-0.2,0.2S222.2,87.3,222.3,87.4z"/>
			<path class="st11" d="M198,87.3c0.1-0.3,0.2-0.5,0.2-0.8s0.1-0.2,0.3-0.2s0,0.2,0,0.3l-0.4,1.3c0,0.1,0,0.2-0.1,0.2s-0.1,0-0.2,0
				c-0.1,0,0-0.1,0-0.2c0.1-0.1,0.1-0.3,0-0.5c-0.1-0.3-0.2-0.6-0.3-0.9c0-0.1-0.1-0.2,0.1-0.2s0.2,0,0.3,0.1S197.9,87,198,87.3z"/>
			<path class="st11" d="M205.6,87.1v0.2c0,0.2,0,0.4-0.3,0.3c-0.1,0-0.2,0-0.2,0c-0.2,0.1-0.5-0.1-0.5-0.3l0,0
				c0-0.3,0.1-0.5,0.5-0.5c0.1,0,0.2,0.1,0.2-0.1s-0.2-0.1-0.3-0.1h-0.1c-0.1,0-0.1,0-0.2-0.1s0-0.1,0.1-0.1
				c0.2-0.2,0.6-0.1,0.7,0.2C205.6,86.7,205.6,86.9,205.6,87.1L205.6,87.1z M205.3,87.1c0-0.1-0.1-0.2-0.2-0.2l0,0
				c-0.1,0-0.2,0.1-0.2,0.2s0.1,0.2,0.2,0.2l0,0C205.2,87.3,205.2,87.3,205.3,87.1L205.3,87.1z"/>
			<path class="st11" d="M224.6,86.7c0-0.2,0-0.4,0-0.6s0.1-0.2,0.2-0.2h0.6c0.1,0,0.2,0,0.2,0.2s-0.1,0.1-0.2,0.1h-0.3
				c-0.2,0-0.3,0-0.3,0.2s0.1,0.2,0.3,0.2h0.2c0.1,0,0.2,0,0.2,0.1s-0.1,0.2-0.2,0.2h-0.1c-0.4,0-0.4,0-0.4,0.4c0,0.1,0,0.1,0,0.2
				s-0.1,0.2-0.2,0.2s-0.2,0-0.2-0.2S224.6,87,224.6,86.7z"/>
			<path class="st11" d="M199.9,87.1c0,0.1,0,0.1,0,0.2c0,0.2,0,0.4-0.3,0.3c-0.1,0-0.2,0-0.3,0c-0.2,0-0.4-0.1-0.5-0.3
				c0,0,0,0,0-0.1c0-0.2,0.2-0.4,0.4-0.5c0,0,0,0,0.1,0s0.2,0.1,0.2,0s-0.2-0.1-0.3-0.1h-0.1c-0.1,0-0.1,0-0.2-0.1s0-0.1,0.1-0.1
				c0.3-0.2,0.6-0.1,0.8,0.2C199.9,86.7,199.9,86.8,199.9,87.1L199.9,87.1z M199.5,87.2c0-0.1-0.1-0.2-0.2-0.2
				c-0.1,0-0.2,0.1-0.2,0.2l0,0c0,0.1,0.1,0.2,0.2,0.2l0,0C199.4,87.4,199.5,87.3,199.5,87.2z"/>
			<path class="st11" d="M214.8,87.6c-0.2,0-0.4-0.1-0.5-0.3c-0.1-0.3-0.1-0.6,0.1-0.8c0.2-0.2,0.4-0.2,0.6-0.1
				c0.2,0.1,0.3,0.3,0.3,0.5c0,0.1,0,0.2-0.2,0.2h-0.4c-0.1,0-0.2-0.1-0.2,0.1c0,0.1,0.1,0.2,0.2,0.2l0,0c0.1,0,0.1-0.1,0.2-0.1
				s0.2,0,0.2,0.1s0,0.1-0.1,0.2C215,87.5,214.9,87.6,214.8,87.6z M214.8,86.8c0.1,0,0.2,0,0.2-0.1s-0.1-0.1-0.2-0.1s-0.2,0-0.2,0.1
				S214.7,86.8,214.8,86.8L214.8,86.8z"/>
			<path class="st11" d="M227.2,87c0-0.6,0-0.6,0.6-0.6c0.2,0,0.4,0.1,0.5,0.4l0,0c0,0.2,0,0.5,0,0.7s-0.1,0.2-0.2,0.2
				s-0.2-0.1-0.2-0.2v-0.6c0-0.1-0.1-0.2-0.2-0.2c-0.1,0-0.2,0.1-0.2,0.2l0,0v0.5c0,0.1,0,0.2-0.2,0.2s-0.1-0.1-0.1-0.2L227.2,87z"
				/>
			<path class="st11" d="M219.2,86.9c0,0.6,0,0.6-0.6,0.7c-0.2,0-0.4-0.1-0.4-0.3l0,0c0-0.2,0-0.5,0-0.7c0-0.1,0-0.2,0.1-0.2
				s0.2,0,0.2,0.2s0,0.4,0,0.6c0,0.1,0.1,0.2,0.2,0.2s0.2-0.1,0.2-0.2s0-0.4,0-0.6s0-0.2,0.1-0.2s0.2,0,0.2,0.2V86.9z"/>
			<path class="st11" d="M226.9,87c0,0.7,0,0.7-0.7,0.6c-0.2,0-0.3-0.1-0.4-0.3c0-0.3,0-0.5,0-0.8c0-0.1,0.1-0.1,0.2-0.1
				s0.1,0,0.1,0.1v0.6c0,0.1,0.1,0.2,0.2,0.2s0.2-0.1,0.2-0.2c0-0.2,0-0.4,0-0.6c0-0.1,0-0.2,0.1-0.2s0.2,0,0.2,0.2L226.9,87z"/>
			<path class="st11" d="M221.5,86.9L221.5,86.9c0,0.6,0,0.6-0.6,0.6c-0.2,0-0.4-0.2-0.4-0.4l0,0c0-0.2,0-0.5,0-0.7s0-0.2,0.1-0.2
				s0.2,0,0.2,0.2s0,0.4,0,0.6s0.1,0.2,0.2,0.2c0.1,0,0.2-0.1,0.2-0.2c0,0,0,0,0-0.1c0-0.2,0-0.4,0-0.5s0-0.2,0.2-0.2
				s0.1,0.1,0.1,0.2V86.9z"/>
			<path class="st11" d="M209.4,87L209.4,87c0-0.6,0-0.7,0.7-0.6c0.2,0,0.4,0.2,0.4,0.4c0,0.2,0,0.5,0,0.7s-0.1,0.2-0.2,0.2
				s-0.2,0-0.2-0.2s0-0.4,0-0.5s0-0.3-0.2-0.3s-0.2,0.1-0.2,0.3s0,0.3,0,0.5s0,0.2-0.1,0.2s-0.2-0.1-0.2-0.2V87z"/>
			<path class="st11" d="M209,87L209,87c0,0.6,0,0.7-0.7,0.6c-0.2,0-0.4-0.2-0.4-0.4c0-0.2,0-0.4,0-0.7s0.1-0.2,0.2-0.2
				s0.1,0,0.1,0.2s0,0.4,0,0.6s0,0.2,0.2,0.2c0.1,0,0.2-0.1,0.2-0.2l0,0c0-0.2,0-0.4,0-0.6s0-0.2,0.2-0.2s0.1,0.1,0.1,0.2L209,87z"
				/>
			<path class="st11" d="M211.8,86.6L211.8,86.6c0,0.3-0.1,0.5,0,0.6s0.3,0,0.5,0.1s0.2,0,0.2,0.1s-0.1,0.2-0.2,0.1h-0.7
				c-0.1,0-0.2-0.1-0.2-0.2V86c0-0.1,0-0.2,0.1-0.2s0.2,0.1,0.2,0.2L211.8,86.6z"/>
			<path class="st11" d="M213.9,85.8c0.1,0,0.2,0,0.2,0.1s-0.1,0.2-0.2,0.2s-0.1,0.1-0.1,0.2s0.1,0.1,0.2,0.1s0.1,0,0.1,0.1
				s-0.1,0.1-0.1,0.1s-0.2,0.1-0.2,0.2v0.6c0,0.1,0,0.2-0.1,0.2s-0.2-0.1-0.2-0.2v-0.5c0-0.1,0-0.3-0.1-0.3v-0.1
				c0.2-0.2,0.1-0.5,0.4-0.6C213.7,85.8,213.8,85.8,213.9,85.8z"/>
			<path class="st11" d="M220,87.6c-0.3,0-0.4-0.1-0.4-0.4c0-0.1,0-0.2,0-0.4s0-0.2,0-0.2c-0.4-0.2,0-0.4,0-0.6s0.1-0.1,0.2-0.1
				s0.1,0.1,0.1,0.1s0,0.2,0.2,0.2s0.1,0,0.1,0.1s0,0.1-0.1,0.1c-0.2,0-0.2,0.1-0.2,0.3V87c0,0.1,0,0.2,0.1,0.2s0.2,0,0.2,0.2
				S220.1,87.6,220,87.6z"/>
			<path class="st11" d="M197.1,87.6c-0.3,0-0.4-0.1-0.4-0.4s0-0.3,0-0.4s0-0.1-0.1-0.2s-0.2-0.2,0-0.3s0-0.1,0.1-0.2
				s0.1-0.1,0.2-0.1s0.1,0.1,0.1,0.2s0.1,0.2,0.2,0.2s0.1,0.1,0.1,0.1c0,0.1,0,0.1-0.1,0.1l0,0c-0.4,0-0.1,0.3-0.2,0.5
				s0,0.3,0.2,0.2s0.1,0.1,0.1,0.2S197.2,87.6,197.1,87.6z"/>
			<path class="st11" d="M223.2,86.6V86c0-0.1,0-0.2,0.2-0.2s0.2,0,0.2,0.2c0,0.3,0,0.6,0,0.9c0,0.2-0.1,0.4,0.1,0.5
				c0.1,0,0,0.1,0,0.2s-0.1,0-0.1,0c-0.2,0-0.3-0.1-0.3-0.3S223.2,86.8,223.2,86.6L223.2,86.6z"/>
			<path class="st11" d="M203.9,86.6V86c0-0.1,0-0.3,0.2-0.3s0.2,0.1,0.2,0.2c0,0.3,0,0.6,0,0.9c0,0.2-0.1,0.3,0.1,0.4
				c0,0,0,0.1,0,0.2s-0.1,0-0.1,0c-0.2,0-0.3-0.1-0.3-0.3c0,0,0,0,0-0.1C203.9,87,203.9,86.8,203.9,86.6L203.9,86.6z"/>
			<path class="st11" d="M203,87v-0.5c0-0.1,0.1-0.2,0.1-0.1c0.2,0.2,0.4-0.2,0.6,0c0,0.1,0,0.2,0,0.2h-0.1c-0.2,0-0.3,0.1-0.3,0.3
				v0.5c0,0.1,0,0.2-0.2,0.2s-0.2-0.1-0.2-0.2L203,87z"/>
			<path class="st11" d="M212.7,87v-0.4c0-0.1,0-0.2,0.2-0.2s0.2,0.1,0.2,0.2c0,0.3,0,0.6,0,0.9c0,0.1-0.1,0.2-0.2,0.2
				s-0.2-0.1-0.2-0.2V87z"/>
			<path class="st10" d="M202.6,87v0.4c0,0.1,0,0.2-0.1,0.2s-0.2,0-0.2-0.2v-0.9c0-0.1,0.1-0.2,0.2-0.2s0.1,0.1,0.1,0.2V87z"/>
			<path class="st11" d="M196.3,87v0.4c0,0.1,0,0.2-0.1,0.2s-0.2,0-0.2-0.2v-1c0-0.1,0.1-0.1,0.2-0.1s0.1,0,0.1,0.2V87z"/>
			<path class="st11" d="M202.7,86c0,0.1-0.1,0.2-0.2,0.2c-0.1,0-0.2-0.1-0.2-0.2l0,0c0-0.1,0.1-0.2,0.2-0.1l0,0
				C202.6,85.8,202.6,85.9,202.7,86z"/>
			<path class="st11" d="M196.1,85.8c0.1,0,0.2,0.1,0.2,0.2s-0.1,0.2-0.2,0.2c-0.1,0-0.1-0.1-0.1-0.2S196,85.8,196.1,85.8z"/>
			<path class="st11" d="M213.1,86c0,0.1-0.1,0.2-0.2,0.2s-0.2,0-0.2-0.2c0-0.1,0.1-0.2,0.1-0.2l0,0C213,85.8,213,85.9,213.1,86
				L213.1,86z"/>
			<path class="st12" d="M219.5,49.9h2.5l0,0v1.6c-0.1,0-0.1,0-0.1,0.1s0.1,0.1,0.1,0.1v0.2c-0.3,0-0.5-0.3-0.5-0.5
				s-0.1-0.2-0.2-0.1c-0.2,0-0.4,0-0.6-0.1c-0.2-0.1-0.5-0.1-0.6,0.2s-0.2,0.1-0.2,0s-0.1-0.1-0.2,0c0,0.1-0.1,0.1-0.1,0.1
				c-0.2,0-0.2,0.4-0.5,0.3c0,0-0.1,0.1,0,0.2c0.1,0.1,0.2,0.2,0.4,0.2c0.1,0,0.2-0.1,0.3,0s0,0.2-0.1,0.3s0,0.2,0.1,0.3
				s0.3,0,0.2,0c-0.1-0.2,0.2-0.3,0.2-0.5c0,0.2,0.3,0.2,0.3,0.4c-0.1,0.3,0,0.6,0.2,0.9c0.1,0.1,0.1,0.2,0,0.3s-0.2,0.4-0.2,0.6
				c0,0.1,0,0.3,0,0.4c0,0.1,0,0.2,0.1,0.3h0.1c0.2-0.1,0.4-0.2,0.6-0.3c0.1-0.1,0.2-0.1,0.3,0c0.1,0.2,0.3,0.3,0.5,0.2
				c0,0.9,0,1.8,0,2.6c0,0.2,0,0.5,0,0.7c-0.2,0-0.3,0.1-0.5,0.2c-0.3-0.3-0.3-0.5-0.1-0.7c0.3-0.3,0.3-0.7,0.1-1c0,0,0-0.1-0.1-0.1
				c0-0.2-0.1-0.3-0.3-0.3c0,0,0,0-0.1,0c-0.2,0-0.2-0.1-0.2-0.2s0-0.2-0.2-0.2s-0.6-0.2-0.5-0.6c0-0.1-0.1-0.1-0.1-0.2
				c-0.1,0-0.1,0-0.1,0.1s-0.1,0.2-0.3,0.2c-0.1,0-0.1,0-0.1,0.1c0,0.3,0,0.6,0.1,0.8c0,0.1,0.1,0.2,0.2,0.2s0.2-0.1,0.3,0.1
				s0.1,0.2,0.1,0.4c-0.2,0.4,0.2,0.6,0.4,0.9c0.1,0.1,0.1,0.2,0.1,0.3s0,0.3,0.3,0.2c0.1,0,0.2,0,0.2,0.1c0,0,0,0,0,0.1
				c-0.7,0.3-1.4,0.7-2,1l0,0c-0.4-0.5-0.8-0.9-1.2-1.3c-0.1-0.2-0.3-0.3-0.4-0.5c-0.4-0.5-0.7-0.9-1.1-1.4
				c-0.2-0.2-0.3-0.4-0.5-0.6v-0.1c0.3-0.3,0.5-0.7,0.7-1.1c0.4-0.6,0.8-1.2,1.1-1.8c0.2-0.3,0.4-0.7,0.6-1.1
				c0.1-0.1,0.2-0.3,0.3-0.4L219.5,49.9z"/>
			<path class="st13" d="M200.7,58.2v-1c0.1,0,0.3,0,0.4,0c0.2,0.1,0.3-0.1,0.4-0.2c0-0.1,0-0.3,0-0.4c-0.1-0.4,0.1-0.9,0.6-1
				c0.1,0,0.2-0.1,0.2-0.2c0.1-0.1,0.2-0.3,0.3,0c0,0.1,0.1,0.1,0.2,0c0.1-0.1,0.2-0.1,0.3,0c0,0,0.1,0,0.2,0c0.1-0.1,0-0.1,0-0.2
				c0-0.1-0.1-0.1-0.2-0.2c-0.2,0-0.3-0.2-0.5-0.1s-0.1-0.1-0.2-0.1s0.1-0.2,0.2-0.3s0.3-0.2,0.1-0.4s0-0.2,0.1-0.2l0.6-0.1
				c0.1,0,0.2,0,0.2-0.2s-0.1-0.4,0.1-0.6c-0.2-0.4,0-0.5,0.3-0.7c0,0,0,0,0-0.1c0.1-0.2,0.2-0.2,0.4-0.2l0.2,0.3
				c0.2,0.3,0.4,0.7,0.7,1c0.2,0.4,0.4,0.7,0.7,1.1l0.7,1.2v0.1l-0.6,0.7c0,0,0-0.1-0.1-0.1c-0.4-0.1-0.7-0.3-1-0.6
				c-0.1-0.2-0.2,0-0.3,0.1c0,0.2-0.2,0.4-0.4,0.5c-0.1,0-0.1,0.1-0.1,0.1c0.2,0,0.2,0.3,0.4,0.3s0.2,0.2,0.1,0.3s-0.1,0.2,0,0.2
				s0.2,0.2,0.4,0.1l-1.8,2.2h-0.1c-0.2-0.1-0.4-0.2-0.6-0.2c-0.4-0.2-0.8-0.4-1.2-0.6C201.4,58.6,201.1,58.4,200.7,58.2L200.7,58.2
				z"/>
			<path class="st14" d="M206,54.4c-0.3-0.4-0.5-0.7-0.7-1.1c0.1,0,0.1-0.1,0.1-0.1c-0.1-0.1,0-0.2,0.1-0.2c0.4,0,0.6-0.4,0.6-0.7
				l0,0c-0.2,0.1-0.4,0.2-0.5-0.1s-0.3-0.4-0.3-0.6c0-0.1-0.1-0.1-0.1-0.2c-0.2,0-0.2-0.2-0.2-0.3c0.1-0.3-0.1-0.5-0.4-0.4
				c-0.1,0-0.3,0.1-0.4,0c-0.2-0.1-0.3-0.1-0.5-0.1c-0.1,0-0.1-0.1-0.1-0.1l-0.3-0.6h5.1c0,0.3,0.1,0.5,0.3,0.7
				c0.1,0.1,0.1,0.2,0,0.3c-0.1,0-0.1,0.1-0.1,0.2l0.1,0.1c0.3,0.1,0.4,0.3,0.6,0.4c0.2,0.1,0.3,0.2,0.4,0.3c0,0.1-0.1,0.2-0.2,0.3
				c-0.7,0.9-1.4,1.8-2.1,2.6c-0.2-0.1-0.2-0.3-0.2-0.5c0.1-0.2,0-0.4-0.1-0.5c-0.1-0.2-0.2-0.2-0.3,0c-0.1,0.1-0.1,0.2-0.2,0.3
				c0,0.1-0.1,0.1-0.1,0.1C206.2,54.3,206.1,54.3,206,54.4z"/>
			<path class="st14" d="M218.7,51.1c0,0.2-0.1,0.3-0.3,0.4c-0.2,0-0.3,0.1-0.4,0.2c-0.1,0.2-0.3,0.3-0.5,0.3
				c-0.3,0-0.6,0.3-0.7,0.6c0,0.2-0.1,0.4-0.3,0.5s-0.4,0.3-0.2,0.5s0.3,0.5,0.2,0.8c-0.2,0.4-0.4,0.8-0.7,1.1
				c-0.1,0-0.2-0.1-0.2-0.2c-0.1-0.2-0.3-0.4-0.5-0.6c-0.1-0.2-0.3-0.4-0.5-0.6c0-0.1-0.1-0.2-0.2-0.2h-0.1l0,0
				c0-0.1-0.1-0.2-0.2-0.2l-0.1-0.2l-1.2-1.5c0.2,0,0.2-0.3,0.4-0.3c0.3-0.1,0.5-0.4,0.4-0.7c0-0.3-0.3-0.3-0.5-0.4s-0.2,0-0.2-0.2
				s0.1-0.2,0.2-0.2c0.2-0.1,0.4-0.2,0.5-0.4h3.9c0,0.1,0.1,0.3,0.2,0.3c0.1,0.1,0.4,0.1,0.4,0.3C218.5,50.7,218.6,50.9,218.7,51.1z
				 M215.3,51.4c0.3,0,0.5-0.3,0.8,0c0,0,0,0,0.1,0s0.1,0,0.2,0s0.2,0.1,0.3,0s0.1-0.2,0-0.3l0,0c-0.1-0.1-0.3-0.2-0.4-0.3
				c-0.1-0.1-0.1-0.1-0.2,0s-0.1,0.2-0.2,0.1c-0.2-0.1-0.4-0.2-0.6-0.2c-0.1,0-0.3,0-0.5,0c-0.2-0.1-0.3,0-0.4,0.2s-0.1,0.4-0.3,0.6
				s0,0.2,0.1,0.2c0.2,0.1,0.3,0.2,0.1,0.3c-0.1,0-0.1,0.1-0.1,0.2c0,0.1,0.1,0.1,0.2,0.1c0.1,0,0.1-0.1,0.1-0.1
				c0-0.2,0.1-0.3,0.3-0.3c0.1,0,0.1-0.1,0.1-0.2C215,51.4,215.2,51.4,215.3,51.4z M216.8,52.3c0-0.1-0.1-0.2-0.1-0.2
				c-0.1,0-0.1,0.1-0.1,0.1C216.6,52.4,216.6,52.4,216.8,52.3C216.8,52.5,216.8,52.4,216.8,52.3L216.8,52.3z"/>
			<path class="st14" d="M206.1,56.3l0.6-0.7c0.1,0,0.1,0.1,0.2,0.2c0.3,0.5,0.6,0.9,0.8,1.3s0.3,0.4,0.7,0.2
				c0.2,0.4,0.5,0.5,0.8,0.3c0.2-0.1,0.3-0.3,0.3-0.5c0.1-0.1,0.1-0.3,0.3-0.2s0.1,0.2,0.2,0.1s0-0.2,0-0.3c0.4-0.1,0.8-0.1,1.2-0.1
				v6.3l0,0l0,0h-0.1l-1.6-2.7c-0.5-0.8-1-1.6-1.5-2.5c-0.1-0.2-0.2-0.2-0.4-0.1s-0.6,0.4-0.8,0.6c0-0.1,0-0.2,0-0.2
				c0.2-0.3,0-0.3-0.2-0.4s-0.3-0.1-0.2-0.3s0.2-0.5,0.3-0.7s0-0.3-0.2-0.2s-0.4,0.1-0.6-0.1L206.1,56.3z"/>
			<path class="st12" d="M203.6,50.5c0,0.1,0,0.1,0.1,0.1s0.1,0.2,0.1,0.3c0.2,0.3,0.4,0.7,0.6,1.1c-0.1,0-0.3,0.1-0.4,0.2
				c0,0,0,0,0,0.1c-0.3,0.1-0.5,0.3-0.3,0.7c-0.2,0.2-0.1,0.4-0.1,0.6s-0.1,0.2-0.2,0.2l-0.6,0.1c-0.1,0-0.2,0.1-0.1,0.2
				s0.1,0.3-0.1,0.4s-0.2,0.1-0.2,0.3s0.1,0.2,0.2,0.1s0.3,0.1,0.5,0.1c0.1,0,0.1,0.1,0.2,0.2c0,0,0.1,0.1,0,0.2c0,0-0.1,0-0.2,0
				c-0.1-0.1-0.2-0.1-0.3,0c-0.1,0-0.2,0-0.2,0c-0.1-0.2-0.2-0.1-0.3,0s-0.1,0.1-0.2,0.2c-0.4,0.1-0.7,0.6-0.6,1c0,0.1,0,0.3,0,0.4
				c0,0.2-0.1,0.3-0.4,0.2c-0.1,0-0.3,0-0.4,0v-0.6c0.1,0,0.3-0.1,0.5-0.1s0.2-0.1,0.1-0.3c-0.1-0.2-0.3-0.4-0.6-0.4V54
				c0.1,0,0.2,0,0.3,0c0.1-0.3,0.4-0.6,0.4-0.9c0-0.2,0.1-0.4,0.2-0.6c0-0.1,0.1-0.2,0-0.3s-0.2-0.2-0.4-0.1
				c-0.1,0.1-0.3,0.1-0.5,0.1v-0.3c0.1,0,0.3-0.2,0.4-0.1s0.2,0,0.3-0.1s0.3-0.2,0.5-0.2c0.3,0,0.4-0.1,0.4-0.4c0-0.1,0-0.2,0.1-0.2
				C202.8,50.7,203.2,50.6,203.6,50.5z"/>
			<path class="st15" d="M211.4,63.1L211.4,63.1L211.4,63.1c0-0.1,0-0.1,0.1-0.2l2.7-4.4l0.5-0.8c0.4,0.2,0.7,0.5,1,0.8
				c0.2,0.1,0.3,0.3,0.5,0.4c0,0.1,0.1,0.2,0.2,0.3c0.3,0.4,0.6,0.8,0.7,1.3c-0.1,0-0.2,0-0.3,0.1l-1.1,0.5
				c-0.6,0.3-1.3,0.6-1.9,0.9C213,62.4,212.2,62.7,211.4,63.1z"/>
			<path class="st16" d="M214.2,58.5l-2.7,4.5c0,0-0.1,0.1-0.1,0.2h-0.1c0-2.1,0-4.2,0-6.3l0,0c0.4,0,0.7,0,1.1,0.1
				c0,0.2,0.1,0.4,0.1,0.5s0.5,0.4,0.6,0.3s0.2,0,0.3,0c0.2,0.1,0.4,0.3,0.4,0.5C213.9,58.4,214,58.5,214.2,58.5z"/>
			<path class="st17" d="M219.1,59.5L219.1,59.5c0.4,0.4,0.8,0.9,1.1,1.3c0,0.1-0.1,0.2-0.2,0.2c-0.1,0-0.3,0.3-0.2,0.4
				c0.2,0.2,0.2,0.5,0.1,0.7v0.1h0.1c0.1-0.1,0.4-0.1,0.5,0c0,0,0,0,0.1,0.1c0.2,0.3,0.4,0.3,0.6,0.1l0.3-0.2
				c0.2,0.2,0.4,0.5,0.7,0.7c0,0.1-0.1,0.1-0.2,0.1h-4.1c0-0.9-0.2-1.8-0.6-2.6c0.2-0.2,0.4-0.3,0.6-0.3
				C218.2,60,218.6,59.8,219.1,59.5z"/>
			<path class="st13" d="M211.3,63.1c-0.1,0.1-0.1,0-0.2,0H205c0-0.9,0.2-1.8,0.6-2.6l0,0l0.2,0.1l4.6,2.1
				C210.7,62.8,211,63,211.3,63.1L211.3,63.1z"/>
			<path class="st17" d="M205.5,60.5c-0.4,0.8-0.5,1.7-0.5,2.6h-4.1h-0.1c0.2-0.2,0.4-0.4,0.6-0.7l0.2-0.2c0.1,0,0.1,0.2,0.2,0.2
				s0.2,0,0.2,0.2s0.2,0.2,0.4,0.1s0.1-0.1,0.2-0.1s0.2,0.1,0.3,0s0-0.3-0.1-0.3c-0.1-0.1-0.2-0.3-0.1-0.4l0.1-0.1
				c0.1-0.1,0.1-0.2,0-0.2l-0.1-0.1c0.1-0.3-0.1-0.2-0.2-0.2c0-0.1,0.1-0.2,0.2-0.3s0.4-0.4,0.4-0.6l0.2-0.2
				c0.2,0.1,0.5,0.2,0.8,0.1c0.1-0.1,0.3,0,0.3,0.2c0,0.1,0.1,0.1,0.1,0.1l0,0c0.1,0,0.1,0,0.1-0.1s0.1-0.1,0.2-0.2
				C205.1,60.2,205.3,60.3,205.5,60.5z"/>
			<path class="st18" d="M222,63c-0.3-0.2-0.4-0.5-0.7-0.7c-0.4-0.5-0.7-1-1.1-1.4c-0.3-0.5-0.7-0.9-1.1-1.3c0.7-0.3,1.4-0.6,2-1
				c0.1,0,0.2-0.1,0.3-0.2c0.2,0,0.3-0.2,0.5-0.2L222,63z"/>
			<path class="st16" d="M222,54.9c-0.2,0-0.4,0-0.5-0.2c-0.1-0.1-0.2-0.1-0.3,0c-0.2,0.1-0.4,0.2-0.6,0.3c-0.1,0-0.2,0-0.3-0.1
				v-0.1c0-0.1,0-0.3,0-0.4c0-0.2,0-0.5,0.2-0.6s0.1-0.2,0-0.3c-0.2-0.2-0.3-0.6-0.2-0.9c0.1-0.2-0.3-0.2-0.3-0.4
				c0,0.2-0.2,0.3-0.2,0.5h-0.2c0,0-0.2-0.1-0.1-0.3s0.2-0.2,0.1-0.3s-0.2,0-0.3,0c-0.2,0-0.3,0-0.4-0.2c0-0.1,0-0.2,0-0.2
				c0.3,0.1,0.3-0.2,0.5-0.3c0.1,0,0.1,0,0.1-0.1s0.1-0.1,0.2,0s0.2,0.1,0.2,0s0.4-0.2,0.6-0.2c0.2,0.1,0.4,0.1,0.6,0.1
				c0.1,0,0.1,0,0.2,0.1c0,0.3,0.3,0.5,0.5,0.5L222,54.9z"/>
			<path class="st18" d="M213.9,49.9c-0.1,0.2-0.3,0.3-0.5,0.4c-0.1,0-0.2,0.1-0.2,0.2s0.1,0.1,0.2,0.2s0.5,0.1,0.5,0.4
				c0,0.3-0.2,0.6-0.4,0.7c-0.1,0.1-0.2,0.3-0.4,0.3l-0.3-0.3c-0.2-0.3-0.4-0.5-0.6-0.7c-0.2-0.4-0.5-0.7-0.8-1l-0.1,0.1
				c-0.2,0.2-0.4,0.4-0.6,0.6c-0.3,0.4-0.7,0.9-1.1,1.2c-0.1-0.1-0.2-0.3-0.4-0.3c-0.2-0.1-0.4-0.3-0.6-0.4c-0.1,0-0.1-0.1-0.1-0.2
				c0-0.1,0-0.1,0.1-0.1c0.1-0.1,0-0.2,0-0.3c-0.1-0.2-0.2-0.5-0.3-0.7L213.9,49.9z"/>
			<path class="st12" d="M217.2,60.5c0.4,0.8,0.6,1.7,0.6,2.6h-0.9c0-0.2-0.2-0.3-0.4-0.3s-0.3,0.1-0.4,0.3h-1.2
				c0-0.1,0.1-0.2,0.2-0.2c0.4,0,0.8-0.2,1-0.5c0.1-0.1,0.1-0.1,0-0.2c-0.2-0.2-0.3-0.4-0.5-0.7c-0.1-0.1,0.2-0.2,0.2-0.3
				s0-0.1,0-0.1l1.1-0.5C217,60.6,217.1,60.5,217.2,60.5L217.2,60.5z"/>
			<path class="st16" d="M215.8,61.1L215.8,61.1c0,0.1-0.3,0.3-0.2,0.4c0.1,0.2,0.3,0.5,0.5,0.7c0.1,0.1,0.1,0.1,0,0.2
				c-0.2,0.3-0.6,0.5-1,0.5c-0.1,0-0.2,0.1-0.2,0.2h-3.3h-0.1c0.8-0.4,1.6-0.7,2.4-1.1C214.5,61.7,215.1,61.4,215.8,61.1z"/>
			<path class="st18" d="M201.5,62.2l-0.2,0.2c-0.2,0-0.4,0-0.6,0v-2.9c0.1,0,0.2,0,0.2-0.2s-0.1-0.2-0.1-0.3s0-0.2-0.2-0.2v-0.6
				h0.1c0.3,0.1,0.7,0.3,1,0.5c-0.3,0.1-0.4,0.3-0.2,0.6s0.1,0.4-0.1,0.6c-0.2,0.2-0.2,0.6,0.1,0.8c0.1,0,0.1,0.1,0.2,0.1
				c0.2,0.1,0.4,0.1,0.5,0.2L201.5,62.2z"/>
			<path class="st13" d="M203.6,50.5c-0.4,0.1-0.8,0.2-1.2,0.3c-0.1,0-0.1,0.1-0.1,0.2c0,0.3-0.1,0.4-0.4,0.4
				c-0.2,0-0.4,0.1-0.5,0.2c-0.1,0.1-0.2,0.2-0.3,0.1s-0.2,0.1-0.4,0.1v-0.5c0.1,0,0.3,0.1,0.2-0.1s0.1-0.4,0.1-0.5s0.1-0.2,0.3-0.1
				s0.2,0.1,0.2,0.1s0.2,0.1,0.3-0.1c0.2-0.3,0.5-0.5,0.8-0.4c0.2,0,0.2-0.1,0.2-0.3h0.3L203.6,50.5z M201.1,51.5L201.1,51.5
				L201.1,51.5L201.1,51.5L201.1,51.5L201.1,51.5z"/>
			<path class="st13" d="M200.7,52c0.2,0,0.3,0,0.5-0.1s0.3,0,0.4,0.1s0,0.2,0,0.3c-0.1,0.2-0.1,0.4-0.2,0.6c0,0.3-0.3,0.6-0.4,0.9
				c0,0.1-0.2,0-0.3,0V52z"/>
			<path class="st12" d="M203,49.9c0,0.1,0,0.3-0.2,0.3c-0.3-0.1-0.7,0.1-0.8,0.4c-0.1,0.2-0.2,0.2-0.3,0.1s-0.2-0.1-0.2-0.1
				s-0.2-0.1-0.3,0.1S201,51,201,51.2s-0.1,0.1-0.2,0.1v-0.6c0.1,0,0.2,0,0.2-0.2s-0.1-0.2-0.2-0.2V50c0.1-0.1,0.2,0,0.2,0
				s0.2,0,0.2-0.1H203z"/>
			<path class="st18" d="M218.7,51.1c-0.1-0.2-0.3-0.4-0.3-0.6c-0.1-0.2-0.3-0.2-0.4-0.3c-0.1-0.1-0.2-0.2-0.2-0.3h1.8
				C219.2,50.3,219,50.7,218.7,51.1z"/>
			<path class="st13" d="M200.7,55.9c0.3,0,0.5,0.2,0.6,0.4c0.1,0.1,0,0.3-0.1,0.3s-0.3,0.1-0.5,0.1V55.9z"/>
			<path class="st14" d="M200.7,62.4c0.2,0,0.4,0,0.6,0c-0.2,0.2-0.3,0.5-0.6,0.7V62.4z"/>
			<path class="st16" d="M216.1,63.1c0.1-0.2,0.2-0.3,0.4-0.3s0.4,0,0.4,0.3H216.1z"/>
			<path class="st14" d="M200.7,58.9c0.1,0,0.2,0,0.2,0.2s0.1,0.2,0.1,0.3s-0.1,0.2-0.2,0.2L200.7,58.9z"/>
			<path class="st13" d="M200.7,50.4c0.1,0,0.2,0,0.2,0.2s-0.1,0.2-0.2,0.2V50.4z"/>
			<path class="st13" d="M201.1,49.9c0,0.1-0.1,0.2-0.2,0.1s-0.2-0.1-0.2,0C200.8,49.7,201,49.9,201.1,49.9z"/>
			<path class="st16" d="M222,51.7c-0.1,0-0.1,0-0.1-0.1s0.1,0,0.1-0.1V51.7z"/>
			<path class="st16" d="M222,49.9L222,49.9L222,49.9z"/>
			<path class="st14" d="M200.8,58.3L200.8,58.3L200.8,58.3L200.8,58.3z"/>
			<path class="st7" d="M205.2,70.1c0.1,0.5,0.2,1,0.4,1.5c0,0.1,0,0.2-0.1,0.2c-0.6,0-0.6,0-0.5-0.6
				C205,70.9,205.1,70.5,205.2,70.1L205.2,70.1z"/>
			<path class="st7" d="M217.4,70.1l0.4,1.7c0,0.1,0,0.1-0.1,0.1h-0.1c-0.7,0.1-0.7,0.1-0.5-0.6C217.2,70.8,217.2,70.4,217.4,70.1
				L217.4,70.1z"/>
			<path class="st7" d="M208.3,70.4c0-0.6,0-0.6,0.6-0.6c0.3,0,0.6,0.2,0.6,0.5c0,0,0,0,0,0.1c0,0.3-0.2,0.6-0.6,0.6
				C208.3,71,208.3,71,208.3,70.4z"/>
			<path class="st7" d="M213.4,67.3c0-0.5-0.1-0.4,0.3-0.4s0.6,0.1,0.6,0.4s-0.2,0.4-0.6,0.4S213.4,67.7,213.4,67.3z"/>
			<path class="st7" d="M213.4,66c-0.1-0.2,0-0.4,0.3-0.3s0.5,0.1,0.5,0.3s-0.1,0.3-0.5,0.4S213.4,66.2,213.4,66z"/>
			<path class="st7" d="M216.6,66.1c0-0.2-0.1-0.5,0.3-0.4s0.5,0.1,0.5,0.4s-0.2,0.4-0.5,0.5S216.7,66.3,216.6,66.1z"/>
			<path class="st7" d="M203.3,66.7c0-0.3,0-0.6,0-0.8s0.1-0.2,0.2-0.2c0.5,0,0.6,0.1,0.6,0.6v1.1c0,0.2,0,0.3-0.2,0.3
				c-0.2,0.1-0.4,0.1-0.6,0c-0.1,0-0.1-0.1-0.1-0.2L203.3,66.7z"/>
			<path class="st7" d="M201.5,65.9c0.1,0.3,0.1,0.7,0.2,1.1c0,0,0.1,0.2,0,0.2s-0.3,0-0.4,0c-0.1,0-0.1-0.1,0-0.1
				C201.3,66.6,201.4,66.2,201.5,65.9L201.5,65.9z"/>
			<path class="st7" d="M221.2,65.8c0.1,0.4,0.2,0.8,0.2,1.1c0,0.1,0.1,0.2,0,0.2s-0.3,0-0.4,0c-0.1,0,0-0.1,0-0.2
				C221.1,66.5,221.2,66.2,221.2,65.8z"/>
			<path class="st7" d="M210.6,65.8c0.1,0.4,0.2,0.8,0.2,1.2c0,0,0.1,0.2,0,0.2s-0.3,0-0.4,0c-0.1,0-0.1-0.1,0-0.2
				C210.5,66.6,210.6,66.2,210.6,65.8z"/>
			<path class="st8" d="M220.7,82v-0.2c0-0.2,0.1-0.4,0.3-0.4l0,0c0.2,0,0.4,0.1,0.4,0.3l0,0c0,0.2,0,0.4,0,0.6s-0.1,0.4-0.3,0.4
				c0,0,0,0-0.1,0c-0.3,0-0.4-0.2-0.4-0.4C220.7,82.2,220.7,82.1,220.7,82z"/>
			<path class="st8" d="M209.5,82.4c0,0.2-0.1,0.3-0.3,0.4c0,0,0,0-0.1,0c-0.2,0-0.4-0.1-0.4-0.3c0-0.2,0.1-0.4,0.3-0.4l0,0
				C209.3,82,209.5,82.1,209.5,82.4C209.5,82.3,209.5,82.4,209.5,82.4z"/>
			<path class="st8" d="M201.4,86.8c0.2,0,0.4,0,0.4,0.3s-0.2,0.2-0.4,0.2s-0.2-0.2-0.2-0.3S201.2,86.8,201.4,86.8z"/>
			<path class="st8" d="M201.4,86.5c-0.1,0-0.2,0-0.2-0.2s0-0.2,0.2-0.2s0.3,0,0.3,0.2S201.5,86.5,201.4,86.5z"/>
			<path class="st8" d="M193.8,86.2l0.1,0.5c0,0.1,0,0.1,0,0.2c-0.1,0-0.1,0-0.2,0c-0.1,0-0.1-0.1,0-0.2S193.7,86.4,193.8,86.2z"/>
			<path class="st8" d="M195.3,87c0,0.1,0,0.2-0.1,0.3s-0.2,0.1-0.3-0.1s-0.1-0.4,0-0.6c0.1-0.1,0.2-0.1,0.2,0
				C195.4,86.7,195.3,86.8,195.3,87z"/>
			<path class="st8" d="M229.3,87c0,0.2,0,0.3-0.2,0.3s-0.2-0.2-0.2-0.4s0-0.3,0.2-0.3S229.3,86.8,229.3,87z"/>
			<path class="st8" d="M222.3,87.4c-0.1,0-0.2-0.1-0.2-0.2s0.1-0.2,0.2-0.2c0.1,0,0.2,0.1,0.2,0.2l0,0
				C222.5,87.3,222.4,87.3,222.3,87.4z"/>
			<path class="st8" d="M205.3,87.1c0,0.1-0.1,0.2-0.2,0.2c-0.1,0-0.2-0.1-0.2-0.2l0,0c0-0.1,0.1-0.2,0.2-0.2S205.3,87,205.3,87.1
				L205.3,87.1z"/>
			<path class="st8" d="M199.5,87.2c0,0.1-0.1,0.2-0.2,0.2c-0.1,0-0.2-0.1-0.2-0.2l0,0c0-0.1,0.1-0.2,0.2-0.2l0,0
				C199.4,87,199.5,87,199.5,87.2z"/>
			<path class="st8" d="M214.8,86.8c-0.1,0-0.2,0-0.2-0.1s0.1-0.1,0.2-0.1s0.2,0,0.2,0.1S214.8,86.8,214.8,86.8z"/>
			<path class="st18" d="M216.2,58.9c-0.2-0.1-0.3-0.3-0.5-0.4c-0.3-0.3-0.6-0.6-1-0.8v-0.1c0.1-0.1,0.2-0.3,0.3-0.5
				s0.2-0.3,0.3-0.5c0.2-0.2,0.3-0.5,0.5-0.7c0.2,0.1,0.4,0.3,0.7,0.3c0.4,0.4,0.8,0.9,1.1,1.4c0.1,0.2,0.3,0.3,0.4,0.5
				c-0.1,0-0.1,0.1-0.2,0.1c-0.2,0.2-0.4,0.2-0.6,0.1c-0.2-0.1-0.6,0-0.6,0.2C216.5,58.7,216.4,58.9,216.2,58.9z"/>
			<path class="st14" d="M216.2,58.9c0.1-0.1,0.3-0.2,0.3-0.4c0.1-0.2,0.4-0.3,0.6-0.2c0.2,0.1,0.5,0.1,0.6-0.1
				c0.1-0.1,0.1-0.1,0.2-0.1c0.4,0.4,0.8,0.9,1.1,1.4c-0.4,0.2-0.9,0.4-1.3,0.6c-0.2,0.1-0.4,0.2-0.6,0.3l0,0
				c-0.2-0.5-0.4-0.9-0.7-1.3C216.3,59.2,216.3,59.1,216.2,58.9z"/>
			<path class="st16" d="M221.5,58.4c-0.1,0.1-0.2,0.2-0.3,0.2c0-0.1-0.1-0.2-0.2-0.2c0,0,0,0-0.1,0c-0.2,0.1-0.3,0-0.3-0.2
				s-0.1-0.2-0.1-0.3c-0.2-0.3-0.5-0.5-0.4-0.9c0.1-0.2-0.1-0.2-0.1-0.4s-0.2-0.1-0.3-0.1s-0.2-0.1-0.2-0.2
				c-0.1-0.3-0.1-0.5-0.1-0.8c0-0.1,0-0.1,0.1-0.1s0.2-0.1,0.3-0.2c0-0.1,0-0.1,0.1-0.1s0.1,0.1,0.1,0.2c0,0.4,0.3,0.5,0.5,0.6
				s0.2,0.1,0.2,0.2s0.1,0.2,0.2,0.2c0.2,0,0.3,0,0.4,0.2c0,0,0,0,0,0.1c0,0,0,0.1,0.1,0.1c0.2,0.3,0.2,0.7-0.1,1
				C221.2,58,221.2,58.2,221.5,58.4z"/>
			<path class="st18" d="M216.7,54.4c0.1-0.3,0-0.6-0.2-0.8s-0.1-0.4,0.2-0.5s0.3-0.3,0.3-0.5c0.1-0.3,0.3-0.6,0.7-0.6
				c0.2,0,0.4-0.2,0.5-0.3s0.2-0.2,0.4-0.2c-0.2,0.4-0.4,0.7-0.6,1.1C217.5,53.2,217.1,53.8,216.7,54.4z"/>
			<path class="st17" d="M215.8,56c-0.2,0.2-0.3,0.5-0.5,0.7c-0.1,0-0.2-0.1-0.3,0c-0.1,0-0.2,0-0.2-0.1c0,0,0,0,0-0.1
				c0-0.2-0.1-0.4-0.3-0.4c-0.1,0-0.1-0.2,0-0.2s0.3-0.2,0.4-0.3s0.3,0,0.3-0.1s-0.2,0-0.4,0c-0.1,0-0.3-0.1-0.3-0.2
				c0-0.1,0.1-0.2,0.2-0.2c0.3,0,0.4-0.2,0.6-0.3c0.2,0.2,0.3,0.4,0.5,0.6c0.1,0.1,0.1,0.2,0.2,0.2v0.1L215.8,56z"/>
			<path class="st14" d="M215.8,56l0.2-0.3c0.1,0.2,0.3,0.4,0.5,0.6C216.2,56.3,216,56.1,215.8,56z"/>
			<path class="st19" d="M209.7,51.9c0.4-0.4,0.7-0.8,1.1-1.2c0.2-0.2,0.4-0.4,0.6-0.6h0.1v1v5.7l0,0c-0.4,0-0.8,0-1.2,0.1
				c-0.6,0.1-1.1,0.3-1.6,0.6c-0.4,0.2-0.4,0.2-0.7-0.2s-0.6-0.9-0.8-1.3c-0.1-0.1-0.1-0.2-0.2-0.2v-0.1c0.3-0.2,0.5-0.5,0.6-0.7
				c0.7-0.9,1.4-1.8,2.1-2.6C209.6,52.1,209.6,52,209.7,51.9z"/>
			<path class="st18" d="M205.5,60.5c-0.2-0.2-0.5-0.3-0.8-0.4c-0.4-0.2-0.8-0.4-1.1-0.6l1.8-2.2c0.3-0.3,0.4-0.6,0.7-0.8
				c0.2,0.2,0.4,0.2,0.6,0.1c0.2-0.1,0.2,0,0.2,0.2c-0.1,0.3-0.2,0.5-0.3,0.7c-0.2,0.2-0.1,0.3,0.2,0.3s0.4,0.1,0.2,0.4
				c0,0.1,0,0.2,0,0.2s-0.3,0.3-0.4,0.5C206.1,59.4,205.8,59.9,205.5,60.5L205.5,60.5z"/>
			<path class="st18" d="M204.5,52c-0.2-0.4-0.4-0.7-0.6-1.1c-0.1-0.1-0.1-0.2-0.1-0.3c0.2,0,0.3,0,0.5,0.1c0.1,0.1,0.3,0,0.4,0
				c0.4-0.1,0.5,0,0.4,0.4c-0.1,0.2,0,0.3,0.2,0.3c0.1,0,0.1,0.1,0.1,0.2c0,0.3,0.2,0.4,0.3,0.6s0.3,0.2,0.5,0.1
				c0,0.4-0.2,0.7-0.6,0.7l0,0c-0.1,0-0.2,0.1-0.1,0.2c0,0.1,0,0.1-0.1,0.1c-0.2-0.3-0.5-0.7-0.7-1L204.5,52z"/>
			<path class="st14" d="M202.3,61.1c-0.1-0.2-0.3-0.2-0.5-0.2c-0.3-0.1-0.5-0.4-0.4-0.7c0-0.1,0.1-0.1,0.1-0.2
				c0.1-0.2,0.2-0.4,0.1-0.6s-0.1-0.4,0.2-0.6c0.4,0.1,0.8,0.3,1.2,0.6c0,0.1-0.1,0.2-0.2,0.2c-0.1,0.1-0.1,0.2,0,0.2
				c0.3,0,0.2,0.2,0.2,0.4s-0.3,0.4-0.4,0.6S202.4,61,202.3,61.1L202.3,61.1z"/>
			<path class="st12" d="M206.1,56.5c-0.3,0.2-0.4,0.6-0.7,0.8c-0.1,0-0.2-0.1-0.4-0.1s0-0.2,0-0.2s0.1-0.3-0.1-0.3
				s-0.2-0.3-0.4-0.3c-0.1,0,0-0.1,0.1-0.1c0.2-0.1,0.4-0.3,0.4-0.5s0.1-0.3,0.3-0.1c0.3,0.3,0.6,0.5,1,0.6c0.1,0,0.1,0.1,0.1,0.1
				L206.1,56.5z"/>
			<path class="st18" d="M207.3,54.9c-0.2,0.3-0.4,0.5-0.6,0.7l-0.7-1.2c0.1-0.1,0.2-0.2,0.4-0.2c0.1,0,0.1-0.1,0.1-0.1
				c0-0.1,0.1-0.2,0.2-0.3c0.1-0.2,0.2-0.1,0.3,0c0.1,0.2,0.1,0.4,0.1,0.5C207.1,54.5,207.2,54.7,207.3,54.9z"/>
			<path class="st20" d="M203.6,59.5c0.4,0.2,0.8,0.4,1.1,0.6c-0.1,0-0.2,0.1-0.2,0.2s-0.1,0.1-0.1,0.1c-0.1,0-0.1-0.1-0.1-0.1l0,0
				c0-0.2-0.2-0.2-0.3-0.2c-0.3,0.2-0.5,0-0.8-0.1C203.3,59.8,203.5,59.7,203.6,59.5L203.6,59.5z"/>
			<path class="st18" d="M203.5,59.6c0,0.2-0.2,0.3-0.3,0.4l-0.2,0.2c0-0.2,0.1-0.4-0.2-0.4c-0.1,0-0.1-0.1,0-0.2
				c0.1-0.1,0.2-0.1,0.2-0.2C203.2,59.4,203.4,59.4,203.5,59.6z"/>
			<path class="st17" d="M211.4,54.3v-2.4c0.1-0.1,0.3-0.1,0.3,0.1c0,0.1,0.1,0.1,0.1,0.1c0.1,0,0.2,0.2,0.2,0.3l0,0
				c-0.1,0.3,0.1,0.2,0.2,0.2c0.1,0,0.2,0,0.3-0.1c0.2-0.1,0.2,0,0.3,0.1c0.1-0.1,0-0.2,0.1-0.3s-0.1-0.2-0.1-0.2
				c-0.4,0.1-0.1-0.3-0.3-0.4s0-0.1,0.1-0.1l0.3,0.3l1.1,1.4l0.1,0.2c0,0.1,0,0.2,0.2,0.2l0,0h0.1c0.1,0.1,0.2,0.1,0.2,0.2
				c-0.1,0-0.2,0-0.2,0.1s-0.1,0.3-0.3,0.4s-0.3,0-0.5-0.2c-0.1-0.1-0.2-0.2-0.2-0.4c-0.2-0.3-0.1-0.3-0.3,0c0,0.1-0.1,0.1-0.1,0.2
				c-0.2,0.3-0.2,0.3,0.1,0.5c0.1,0.1,0.2,0.2,0.2,0.3s-0.2,0.1-0.2,0.1s-0.1,0-0.2,0.1s0.1,0.1,0.1,0.1s0.1,0.1,0.2,0.1
				c0,0,0.1-0.1,0.1,0s0,0.1-0.1,0.2s-0.2,0.2-0.3,0.3v0.1l0,0h0.1c0.3-0.3,0.4,0,0.6,0.1c0.1,0.1,0.2,0.2,0.2,0.4s-0.2,0.1-0.3,0.1
				s-0.1,0.2-0.1,0.3c-0.4-0.1-0.8-0.2-1.2-0.3s-0.7-0.1-1.1-0.1v-1.5c0.1,0,0.3,0,0.3-0.2s0.1-0.4,0.3-0.5c0.1-0.1,0.1-0.1,0.2,0
				c0.1,0.1,0.2,0.1,0.2,0l0,0c0.1-0.1,0-0.2-0.1-0.2s-0.3-0.4,0-0.6c0.1-0.1,0.1-0.2,0-0.2s-0.3-0.1-0.3,0c0,0.3-0.3,0.5-0.3,0.8
				L211.4,54.3L211.4,54.3z M213.5,53.4C213.5,53.4,213.5,53.3,213.5,53.4c-0.1-0.1-0.1,0-0.2,0C213.3,53.4,213.3,53.5,213.5,53.4
				C213.5,53.5,213.5,53.4,213.5,53.4z M213.4,52.9L213.4,52.9L213.4,52.9L213.4,52.9L213.4,52.9z"/>
			<path class="st20" d="M213.7,57.2c0-0.1,0-0.2,0.1-0.3s0.3,0,0.3-0.1c0-0.2-0.1-0.3-0.2-0.4c-0.2-0.1-0.3-0.5-0.6-0.1h-0.1v-0.1
				l0,0c0.1-0.1,0.1-0.3,0.3-0.3s0.1-0.1,0.1-0.2s-0.1,0-0.1,0c-0.1,0-0.1,0-0.2-0.1c-0.1,0-0.2,0-0.1-0.1s0.1-0.1,0.2-0.1
				s0.2,0,0.2-0.1s-0.1-0.2-0.2-0.3c-0.3-0.2-0.3-0.2-0.1-0.5c0-0.1,0.1-0.1,0.1-0.2c0.2-0.2,0.2-0.2,0.3,0c0.1,0.1,0.1,0.3,0.2,0.4
				c0.1,0.1,0.2,0.3,0.5,0.2s0.3-0.2,0.3-0.4s0.1-0.1,0.2-0.1c0.2,0.2,0.4,0.4,0.5,0.6c-0.2,0.1-0.3,0.4-0.6,0.3
				c-0.1,0-0.2,0.1-0.2,0.2c0.1,0.1,0.2,0.2,0.3,0.2s0.3-0.2,0.4,0s-0.2,0.1-0.3,0.1s-0.3,0.2-0.4,0.3s-0.1,0.1,0,0.2
				c0.2,0,0.3,0.2,0.3,0.4c0,0.1,0.1,0.2,0.2,0.2c0,0,0,0,0.1,0s0.2,0,0.3,0c0,0.1-0.1,0.2-0.1,0.2c-0.2,0-0.4-0.2-0.5,0.1h-0.1
				l-0.1-0.1c0,0.1,0,0.1,0,0.2c0.1,0.1,0.2,0.1,0.4,0.1c0.1,0,0.2-0.1,0.3,0c-0.1,0.2-0.2,0.4-0.3,0.5L213.7,57.2z"/>
			<path class="st18" d="M215.3,51.4c-0.2,0-0.4,0-0.4,0.3c0,0.1,0,0.1-0.1,0.2c-0.1,0-0.3,0.2-0.3,0.3s0,0.1-0.1,0.1
				s-0.2-0.1-0.2-0.1c0-0.1,0-0.2,0.1-0.2c0.2-0.2,0.2-0.2-0.1-0.3c-0.1,0-0.2-0.2-0.1-0.2s0.2-0.4,0.3-0.6s0.2-0.3,0.4-0.2
				c0.1,0,0.3,0,0.5,0s0.4,0,0.6,0.2c0.1,0.1,0.2,0.1,0.2-0.1s0.1-0.1,0.2,0c0.1,0.1,0.2,0.3,0.4,0.3c0.1,0.1,0.1,0.2,0,0.3l0,0
				c-0.1,0.1-0.2,0.2-0.3,0s-0.1-0.1-0.2,0s-0.1,0-0.1,0C215.9,51.2,215.6,51.4,215.3,51.4z"/>
			<path class="st18" d="M216.8,52.3C216.8,52.3,216.8,52.5,216.8,52.3c-0.1,0.1-0.2,0-0.2-0.1c0,0,0-0.1,0.1-0.1
				C216.7,52.2,216.8,52.3,216.8,52.3z"/>
			<path class="st20" d="M214.5,53.9c-0.1,0-0.2-0.1-0.2-0.2C214.5,53.7,214.5,53.8,214.5,53.9z"/>
			<path class="st20" d="M214.6,53.9L214.6,53.9L214.6,53.9z"/>
			<path class="st15" d="M205.6,60.5c0.2-0.6,0.6-1.1,1-1.5c0.1-0.2,0.3-0.3,0.4-0.5c0.3-0.2,0.6-0.4,0.8-0.6s0.3-0.1,0.4,0.1
				c0.5,0.8,1,1.6,1.5,2.5l1.6,2.7c-0.3-0.1-0.6-0.2-0.9-0.4l-4.6-2.1L205.6,60.5z"/>
			<path class="st18" d="M208.5,57.5c0.5-0.3,1.1-0.5,1.6-0.6c0,0.1,0.1,0.2,0,0.3s-0.1-0.1-0.2-0.1s-0.2,0.1-0.3,0.2
				c-0.1,0.2-0.2,0.4-0.3,0.5C209,57.9,208.7,57.8,208.5,57.5z"/>
			<path class="st12" d="M213.7,57.2l1,0.5v0.1l-0.5,0.8c-0.2,0-0.3-0.1-0.3-0.3s-0.2-0.4-0.4-0.5c-0.1,0-0.2-0.2-0.3,0
				s-0.5-0.1-0.6-0.3s-0.1-0.4-0.1-0.5C212.8,56.9,213.3,57,213.7,57.2z"/>
			<path class="st20" d="M220.2,60.9c0.4,0.5,0.8,0.9,1.1,1.4l-0.3,0.2c-0.2,0.2-0.4,0.2-0.6-0.1c-0.1-0.2-0.3-0.2-0.5-0.2
				c0,0-0.1,0-0.1,0.1h-0.1v-0.1c0.1-0.2,0.1-0.5-0.1-0.7c-0.1-0.1,0.1-0.4,0.2-0.4C220.1,61.1,220.2,61,220.2,60.9z"/>
			<path class="st20" d="M202.3,61.1h0.1c0.2,0,0.3-0.1,0.2,0.2c0,0,0,0.1,0.1,0.1c0.2,0.1,0.1,0.1,0,0.2c-0.1,0.1-0.2,0.3-0.1,0.4
				l0.1,0.1c0.1,0.1,0.2,0.2,0.1,0.3c-0.1,0.2-0.2,0.1-0.3,0s-0.1,0-0.2,0.1s-0.3,0.1-0.4-0.1s-0.1-0.2-0.2-0.2s-0.2-0.1-0.2-0.2
				L202.3,61.1z"/>
			<path class="st20" d="M212.8,51.7c-0.1,0-0.1,0.1-0.1,0.1s-0.1,0.5,0.3,0.4c0,0,0.2,0.1,0.1,0.2s0,0.2-0.1,0.3
				c0-0.2-0.1-0.2-0.3-0.1c-0.1,0-0.2,0.1-0.3,0.1c-0.2,0-0.3,0-0.2-0.2c0-0.1,0-0.3-0.2-0.3l0,0c-0.1,0-0.1-0.1-0.1-0.1
				c-0.1-0.2-0.2-0.2-0.3-0.1v-0.8c0.1,0,0.3,0.1,0.4,0c0.1-0.1,0.3-0.1,0.4-0.1C212.4,51.2,212.6,51.4,212.8,51.7z"/>
			<path class="st17" d="M212.2,51c-0.2,0-0.3,0-0.4,0.1c-0.1,0.1-0.3,0-0.4,0v-1V50C211.7,50.3,212,50.6,212.2,51z"/>
			<path class="st15" d="M211.4,49.9L211.4,49.9l-0.1,0.1L211.4,49.9z"/>
			<path class="st12" d="M201.1,51.5L201.1,51.5L201.1,51.5L201.1,51.5L201.1,51.5z"/>
			<path class="st17" d="M215,57.2c-0.1-0.1-0.2,0-0.3,0c-0.1,0.1-0.3,0-0.4-0.1c0-0.1,0-0.1,0-0.2c0.1-0.1,0.1,0,0.1,0.1
				s0.1,0.1,0.1,0c0.1-0.3,0.4-0.1,0.5-0.1C215.1,57,215.1,57.1,215,57.2z"/>
			<path class="st20" d="M211.8,54.3c0-0.3,0.3-0.5,0.3-0.8c0-0.1,0.2-0.1,0.3,0s0.1,0.2,0,0.2c-0.3,0.2-0.2,0.4,0,0.6
				s0.1,0.1,0.1,0.2c-0.1,0.1-0.2,0.1-0.2,0l0,0c-0.1-0.1-0.1,0-0.2,0c-0.2,0.1-0.3,0.3-0.3,0.5s-0.1,0.2-0.3,0.2v-0.9H211.8
				c0,0,0,0.1,0.1,0.1s0,0,0,0L211.8,54.3z"/>
			<path class="st20" d="M213.5,53.4C213.5,53.4,213.5,53.5,213.5,53.4c-0.1,0.1-0.2,0.1-0.2,0C213.4,53.3,213.4,53.3,213.5,53.4
				C213.5,53.3,213.5,53.3,213.5,53.4z"/>
			<path class="st20" d="M213.4,52.9L213.4,52.9L213.4,52.9L213.4,52.9L213.4,52.9z"/>
			<path class="st17" d="M211.8,54.3L211.8,54.3C211.8,54.4,211.8,54.3,211.8,54.3L211.8,54.3L211.8,54.3z"/>
		</g>
		<path class="st21" d="M216.1,100.9c-0.2,0.1-0.4,0.2-0.6,0.4c-0.2,0.2-0.4,0.6-0.4,0.6l1.5-0.4l-0.2-0.6H216.1z"/>
		<path class="st21" d="M226.5,114.2c0.3,0.1,0.6,0.1,0.9,0.1l0.9-0.2l-0.9-0.9L226.5,114.2z"/>
		<path class="st22" d="M227.4,113.4c0,0.4-0.2,0.7-0.6,0.7c-0.1,0-0.2,0-0.3,0l-15.2-3.9c-0.4-0.1-0.6-0.5-0.5-0.8
			c0-0.1,0-0.1,0.1-0.2l4.2-7.3c0.3-0.5,0.8-0.7,1.4-0.6l9.9,2.6c0.5,0.2,0.9,0.6,0.9,1.2L227.4,113.4z"/>
		<path class="st23" d="M216.5,101.3c-0.5-0.1-0.5-0.4,0-0.5l19.6-6.5l15.6,1.3c0.5,0.1-23.4,8.2-23.4,8.2c-0.6,0.2-1.2,0.2-1.8,0.1
			L216.5,101.3z"/>
		<path class="st24" d="M229,96.7l-8.7,2.9h-0.1v2.7l6.1,1.6c0.6,0.1,1.2,0.1,1.8-0.1l2-0.7L229,96.7z"/>
		<path class="st25" d="M253.1,96.6c-0.3-0.4-0.9-0.6-1.4-0.5l-23.4,7.7c-0.5,0.2-0.9,0.7-0.9,1.2l0.1,8.4c0,0.4,0.2,0.7,0.6,0.7
			c0.1,0,0.2,0,0.3-0.1l28.9-10c0.4-0.1,0.6-0.5,0.5-0.8c0-0.1-0.1-0.2-0.1-0.3L253.1,96.6z"/>
		<polygon class="st26" points="247.2,97.6 232.3,102.4 230.7,103.1 233.8,112.2 253.3,105.4 		"/>
		<path class="st27" d="M257.6,103l-1.9-2.7c-3.8,2.6-10.3,6.5-15.2,8c-4.2,1.2-8.6,1.9-13,2.2l0.1,3c0,0.4,0.2,0.7,0.6,0.7
			c0.1,0,0.2,0,0.3-0.1l28.9-10c0.4-0.1,0.6-0.4,0.5-0.8C257.7,103.2,257.6,103.1,257.6,103z"/>
		<path class="st28" d="M257.6,103L257.6,103c-0.1,0.2-0.3,0.5-0.6,0.6l-28.9,10c-0.2,0.1-0.5,0.1-0.7-0.1c0,0.4,0.2,0.7,0.6,0.7
			c0.1,0,0.2,0,0.3-0.1l28.9-10c0.4-0.1,0.6-0.5,0.5-0.8C257.7,103.2,257.6,103.1,257.6,103z"/>
		<path class="st29" d="M226.4,103.8c0,0,0.6,0.3,0.6,0.5l0.3,0.7c0-0.2,0.1-0.4,0.2-0.6c0.2-0.2,0.4-0.4,0.7-0.6
			c-0.3,0-0.6,0-0.9,0C227,103.8,226.4,103.8,226.4,103.8z"/>
		<path class="st30" d="M227.3,106.1c-2.4,2.6-5.9,3.8-9.4,3.3c-2.1-0.2-4.1-1.1-5.7-2.4l-1.2,2.2c-0.2,0.3-0.1,0.8,0.3,0.9
			c0.1,0,0.1,0.1,0.2,0.1l15.2,3.9c0.4,0.1,0.7-0.1,0.9-0.4c0-0.1,0-0.2,0-0.3L227.3,106.1z"/>
		<path class="st28" d="M210.8,109.4c-0.1,0.3,0.1,0.7,0.4,0.9h0.1l15.2,3.9c0.3,0.1,0.7-0.1,0.9-0.4L210.8,109.4z"/>
		<path class="st31" d="M239.5,99.4c-5.7,0.2-11.3,0-17-0.4H222l-1.3,0.4c0.6,0.5,2,0.9,5,1.1c4.3,0.2,8.6,0.2,12.9-0.1l7.8-2.6
			L239.5,99.4z"/>
		<path class="st32" d="M219.8,105c2.6,0.3,5.2,1,7.5,2.2v-2.1c0-0.5-0.4-1-0.9-1.2l-9.9-2.6c-0.5-0.1-1.1,0.1-1.4,0.6l-1.8,3.1
			C215.5,104.8,217.7,104.7,219.8,105z"/>
		<path class="st33" d="M224.2,101.8c-2-0.1-3.9-0.7-5.5-1.7l-2.2,0.7c-0.5,0.2-0.5,0.4,0,0.5l9.9,2.6c0.6,0.1,1.2,0.1,1.8-0.1
			l7.2-2.4C231.3,101.7,227,101.9,224.2,101.8z"/>
		<path class="st26" d="M227.4,108.1c4.9-2.3,10-4.1,15.3-5.3c5.9-1.4,10.2-2.2,13-2.6l-2.5-3.6c-0.3-0.4-0.9-0.6-1.4-0.5l-23.4,7.7
			c-0.5,0.2-0.9,0.7-0.9,1.2L227.4,108.1z"/>
		<path class="st21" d="M244.6,98.8l4.3-1.5l2.1-0.8l0.5-0.2l0.2-0.1h0.3c0.4,0,0.7,0.2,0.9,0.4l0,0c-0.3-0.4-0.9-0.6-1.4-0.5
			l-23.4,7.7c-0.5,0.2-0.9,0.7-0.9,1.2l0.1,8.4c0.1,0,0.1-5.4,0.2-5.5v-1.3V105c0-0.1,0.1-0.3,0.1-0.4c0.1-0.1,0.2-0.2,0.3-0.3
			l0.2-0.1c0.1,0,0.2-0.1,0.2-0.1l1.1-0.3l2.2-0.7l4.3-1.4l4.3-1.4l2.1-0.7l1.1-0.4L244.6,98.8z"/>
		<path class="st21" d="M222.9,103.5c0.6,0.1,1.1,0.2,1.6,0.3s1.1,0.2,1.7,0.3h0.2c0.1,0,0.1,0,0.2,0.1c0.1,0,0.2,0.1,0.3,0.2
			s0.2,0.2,0.2,0.3c0.1,0.1,0.1,0.2,0.1,0.4l0,0c0-0.5-0.4-1-0.9-1.2l-9.9-2.6c-0.4-0.1-0.8,0-1.1,0.3c-0.1,0.1-0.2,0.1-0.2,0.2
			l-1.4,2.4l1-1.7c0,0,0.2-0.4,0.3-0.6c0.1-0.1,0.2-0.2,0.3-0.2c0.2-0.1,0.5-0.2,0.7-0.2c0.1,0,0.1,0,0.2,0l0.2,0.1
			c0.5,0.2,1.1,0.4,1.6,0.6s1.1,0.3,1.6,0.5l1.6,0.4C221.8,103.2,222.4,103.3,222.9,103.5z"/>
		<path class="st34" d="M216.5,101.3l9.9,2.6c0.6,0.1,1.2,0.1,1.8-0.1l23.4-7.7l0,0l-1.1,0.3l-1.1,0.3l-2.3,0.6l-4.5,1.3l-1.1,0.3
			l-1.1,0.3l-2.2,0.7l-4.5,1.4l-4.5,1.5l-1.1,0.4c-0.3,0.1-0.7,0.1-1,0.1c-0.2,0-0.3,0-0.5-0.1l-0.6-0.1l-1.1-0.3l-4.6-1l-2.3-0.5
			l-1.2-0.2c-0.2,0-0.4-0.1-0.5-0.2c0,0,0,0,0-0.1c0,0,0-0.1,0.1-0.1c0.1-0.1,0.2-0.1,0.2-0.1l0,0C216,100.9,216,101.2,216.5,101.3z
			"/>
		<g>
			<path class="st21" d="M267.2,101.8c0.2,0.1,0.4,0.3,0.5,0.5s0.3,0.6,0.3,0.6l-1.4-0.7l0.3-0.6L267.2,101.8z"/>
			<path class="st21" d="M254.4,112.8c-0.3,0-0.6,0-0.9-0.1l-0.9-0.3l1.1-0.7L254.4,112.8z"/>
			<path class="st22" d="M253.6,112c-0.1,0.4,0.1,0.7,0.5,0.8c0.1,0,0.2,0,0.3,0l15.7-0.9c0.4,0,0.7-0.3,0.7-0.7
				c0-0.1,0-0.2-0.1-0.3l-2.7-8c-0.2-0.5-0.7-0.9-1.2-0.8l-10.2,0.6c-0.6,0.1-1,0.5-1.1,1L253.6,112z"/>
			<path class="st23" d="M266.7,102.2c0.5,0,0.6-0.3,0.1-0.5l-20.9-11.8c-0.5-0.3-1.2-0.4-1.8-0.4l-10.8,0.3c-0.5,0-0.6,0.2-0.1,0.5
				l21.5,12c0.5,0.3,1.2,0.4,1.8,0.4L266.7,102.2z"/>
			<path class="st25" d="M231.8,90.5c0.4-0.4,1-0.4,1.5-0.2l21.5,12c0.5,0.3,0.7,0.8,0.6,1.4l-1.8,8.2c-0.1,0.4-0.4,0.6-0.7,0.5
				c-0.1,0-0.2,0-0.3-0.1L226.2,97c-0.3-0.2-0.5-0.5-0.3-0.9c0-0.1,0.1-0.2,0.2-0.2L231.8,90.5z"/>
			<path class="st29" d="M256.5,102.7c0,0-0.6,0.2-0.7,0.3l-0.4,0.6c0-0.2,0-0.4-0.1-0.6c-0.2-0.3-0.3-0.5-0.6-0.8
				c0.3,0.1,0.6,0.2,0.9,0.2C256,102.6,256.5,102.7,256.5,102.7z"/>
			<path class="st30" d="M255.2,104.8c1.9,3,5.1,4.9,8.6,5.1c2.1,0.2,4.2-0.3,6.1-1.3l0.8,2.3c0.1,0.3,0,0.7-0.4,0.9
				c-0.1,0-0.2,0.1-0.3,0.1l-15.7,0.9c-0.4,0-0.7-0.2-0.8-0.6c0-0.1,0-0.2,0-0.3L255.2,104.8z"/>
			<path class="st28" d="M270.7,111.2c0,0.4-0.2,0.7-0.6,0.8H270l-15.7,0.9c-0.4,0-0.7-0.2-0.8-0.6L270.7,111.2z"/>
			<path class="st35" d="M233.3,90.3c-0.5-0.2-0.4-0.5,0.1-0.5l10.8-0.3c0.6,0,1.2,0.2,1.8,0.4l17,9.6c-0.7,0.4-2.2,0.5-5.1,0.2
				c-4.3-0.6-8.5-1.4-12.6-2.6L233.3,90.3z"/>
			<path class="st32" d="M262.7,105.1c-2.6-0.2-5.3,0-7.8,0.7l0.4-2.1c0.1-0.5,0.6-0.9,1.1-1l10.2-0.6c0.5,0,1,0.3,1.2,0.8l1.2,3.4
				C267.1,105.7,264.9,105.2,262.7,105.1z"/>
			<path class="st33" d="M259.1,101.1c1.9,0.3,3.9,0.1,5.7-0.7l2,1.2c0.5,0.2,0.4,0.5-0.1,0.5l-10.2,0.6c-0.6,0-1.2-0.1-1.8-0.4
				l-6.5-3.7C252.1,99.7,256.3,100.7,259.1,101.1z"/>
			<path class="st26" d="M254.8,106.7c-4.3-3.2-9-6-14-8.2c-5.6-2.5-9.6-4.1-12.2-5.1l3.2-3c0.4-0.4,1-0.4,1.5-0.2l21.5,12
				c0.5,0.3,0.7,0.8,0.6,1.4L254.8,106.7z"/>
			<polygon class="st36" points="248.3,109.9 242.8,106.7 240.6,94.4 244.4,96.5 			"/>
			<path class="st21" d="M239.6,94.3l-3.9-2.3l-1.9-1.2l-0.5-0.3c-0.1-0.1-0.1-0.1-0.2-0.1l-0.2-0.1c-0.4-0.1-0.7,0-1,0.2l0,0
				c0.4-0.4,1-0.4,1.5-0.2l21.5,12c0.5,0.3,0.7,0.8,0.6,1.4l-1.8,8.2c-0.1-0.1,0.9-5.3,0.9-5.4l0.2-1.3l0.2-1.1v-0.3
				c0-0.1,0-0.2,0.1-0.2c0-0.1,0-0.3-0.1-0.4c0-0.1-0.1-0.2-0.2-0.3l-0.1-0.1l-0.2-0.1l-1-0.5l-2-1.1l-4-2.2l-4-2.2l-2-1.1l-1-0.6
				L239.6,94.3z"/>
			<path class="st21" d="M260,103c-0.6,0-1.1,0-1.7,0c-0.6,0-1.1,0-1.7,0h-0.2h-0.2c-0.1,0-0.2,0.1-0.3,0.1
				c-0.1,0.1-0.2,0.1-0.3,0.2s-0.2,0.2-0.2,0.3l0,0c0.1-0.5,0.6-0.9,1.1-1l10.2-0.6c0.4,0,0.8,0.2,1,0.5c0.1,0.1,0.1,0.2,0.2,0.3
				l0.9,2.6l-0.6-1.8c0,0-0.1-0.5-0.2-0.6s-0.2-0.2-0.3-0.3c-0.1-0.1-0.2-0.2-0.3-0.2c-0.1,0-0.2-0.1-0.4-0.1h-0.2h-0.2
				c-0.6,0.1-1.1,0.2-1.7,0.2s-1.1,0.1-1.7,0.2l-1.7,0.1L260,103z"/>
			<path class="st34" d="M266.7,102.2l-10.2,0.6c-0.6,0-1.2-0.1-1.8-0.4l-21.5-12l0,0l1.1,0.5l1.1,0.5l2.1,1.1l4.2,2.2l1,0.6l1,0.6
				l2.1,1.1l4.1,2.3l4.1,2.3l1,0.6c0.3,0.2,0.7,0.3,1,0.3c0.2,0,0.3,0,0.5,0h0.6h1.2l4.7-0.2h2.4L266.7,102.2c0.1,0.1,0.3,0.1,0.4,0
				c0,0,0,0,0-0.1V102c-0.1-0.1-0.1-0.1-0.2-0.2l0,0C267.3,101.9,267.3,102.1,266.7,102.2z"/>
		</g>
	</g>
</g>
</svg>
