<?xml version="1.0" encoding="utf-8"?>
<!-- Generator: Adobe Illustrator 26.0.2, SVG Export Plug-In . SVG Version: 6.00 Build 0)  -->
<svg version="1.1" id="Layer_1" xmlns="http://www.w3.org/2000/svg" xmlns:xlink="http://www.w3.org/1999/xlink" x="0px" y="0px"
	 viewBox="0 0 280 120" style="enable-background:new 0 0 280 120;" xml:space="preserve">
<style type="text/css">
	.st0{fill:url(#SVGID_1_);}
	.st1{fill:#1442B2;}
	.st2{fill:#FFFFFF;}
	.st3{fill:#A6A29C;}
	.st4{font-family:'Rubik-Bold';}
	.st5{font-size:16.9404px;}
	.st6{font-family:'Rubik-Regular';}
	.st7{font-size:12.858px;}
	.st8{font-family:'MyriadPro-Regular';}
	.st9{fill:#A3BBC4;}
	.st10{fill:#C3D82E;}
	.st11{fill:#D6F2F5;}
	.st12{opacity:0.18;fill:#0E4744;enable-background:new    ;}
	.st13{fill:#FAFAFA;}
	.st14{fill:#BF1329;}
	.st15{fill:#FE9801;}
	.st16{opacity:0.6;fill:#CCCCCC;}
	.st17{fill:#F4C477;}
	.st18{fill:#E6B86F;}
	.st19{fill:#FF9300;}
	.st20{fill:#E97A00;}
	.st21{opacity:0.4;fill:url(#SVGID_00000162349292122267959590000007298137084996946103_);}
	.st22{fill:#FFC000;}
	.st23{opacity:0.4;fill:url(#SVGID_00000078727449197978575720000011348607019810918590_);}
	.st24{opacity:0.4;fill:url(#SVGID_00000128464436123550850140000013537358114997315771_);}
	.st25{opacity:0.4;fill:url(#SVGID_00000010994283090249015180000016874825514810840480_);}
	.st26{opacity:0.4;fill:url(#SVGID_00000026857275844652857370000001633533656732490128_);}
	.st27{opacity:0.4;fill:url(#SVGID_00000049191130882065942260000017481942399202426258_);}
	.st28{opacity:0.4;fill:url(#SVGID_00000140719287627164170520000004627914542339674013_);}
	.st29{opacity:0.4;fill:url(#SVGID_00000180336858344564556330000013075746389554252199_);}
	.st30{opacity:0.4;fill:url(#SVGID_00000024712001429410766200000018236293290036053694_);}
	.st31{opacity:0.4;fill:url(#SVGID_00000003078980593002661450000012943955705247325083_);}
	.st32{opacity:0.4;fill:url(#SVGID_00000031199025784880629490000013625557951348829366_);}
	.st33{opacity:0.4;fill:url(#SVGID_00000006700017125935129130000002681043177730867598_);}
	.st34{opacity:0.4;fill:url(#SVGID_00000021804820486846514300000005030244128265045396_);}
	.st35{opacity:0.4;fill:url(#SVGID_00000067224826123539648220000005845315005269110172_);}
	.st36{opacity:0.4;fill:url(#SVGID_00000173872913774411023550000007726614543752606632_);}
	.st37{fill:#57453F;}
	.st38{fill:#D66E00;}
	.st39{opacity:0.8;fill:#B3B3B3;}
</style>
<linearGradient id="SVGID_1_" gradientUnits="userSpaceOnUse" x1="262.8461" y1="209.0268" x2="-29.7465" y2="-40.3908" gradientTransform="matrix(1 0 0 1 0 -28)">
	<stop  offset="0" style="stop-color:#3F6EFD"/>
	<stop  offset="1" style="stop-color:#00E0FD"/>
</linearGradient>
<rect x="-0.3" y="0.3" class="st0" width="281" height="152.3"/>
<g>
	<path class="st1" d="M280.2,30h-61.9c-3.9,0-7-3.2-7-7v-8.4c0-3.9,3.2-7,7-7h61.9l0,0V30L280.2,30z"/>
	<path class="st2" d="M220.4,23.6c-0.1-0.1-0.1-0.1-0.1-0.2v-7.5c0-0.1,0-0.2,0.1-0.2c0.1-0.1,0.1-0.1,0.2-0.1h0.9
		c0.1,0,0.3,0.1,0.4,0.2l3.3,5.1v-5c0-0.1,0-0.2,0.1-0.2c0-0.1,0.1-0.1,0.2-0.1h1c0.1,0,0.2,0,0.2,0.1c0.1,0.1,0.1,0.1,0.1,0.2v7.5
		c0,0.1,0,0.2-0.1,0.2c-0.1,0.1-0.1,0.1-0.2,0.1h-0.9c-0.1,0-0.3-0.1-0.4-0.2l-3.3-5v4.9c0,0.1,0,0.2-0.1,0.2
		c-0.1,0.1-0.1,0.1-0.2,0.1h-1C220.5,23.7,220.4,23.7,220.4,23.6z"/>
	<path class="st2" d="M228.6,23.6c-0.1-0.1-0.1-0.1-0.1-0.2v-7.5c0-0.1,0-0.2,0.1-0.2c0.1-0.1,0.2-0.1,0.2-0.1h5
		c0.1,0,0.2,0,0.2,0.1c0.1,0.1,0.1,0.1,0.1,0.2v0.9c0,0.1,0,0.1-0.1,0.2c-0.1,0.1-0.1,0.1-0.2,0.1H230v2.2h3.5c0.1,0,0.2,0,0.2,0.1
		c0.1,0.1,0.1,0.1,0.1,0.2v0.9c0,0.1,0,0.2-0.1,0.2c-0.1,0.1-0.1,0.1-0.2,0.1H230v2.9c0,0.1,0,0.2-0.1,0.2c-0.1,0.1-0.1,0.1-0.2,0.1
		h-1C228.7,23.7,228.6,23.7,228.6,23.6z"/>
	<path class="st2" d="M236,22.9c-0.7-0.6-1-1.4-1-2.4c0-0.2,0-0.6,0-1c0-0.4,0-0.8,0-1c0-0.9,0.3-1.7,1-2.3c1.4-1.1,3.5-1.1,4.9,0
		c0.7,0.6,1,1.4,1,2.3c0,0.5,0,0.8,0,1s0,0.5,0,1c0,0.9-0.3,1.7-1,2.4C239.4,24.1,237.4,24.1,236,22.9L236,22.9z M239.7,22
		c0.3-0.4,0.5-0.9,0.5-1.4c0-0.5,0-0.8,0-1c0-0.2,0-0.5,0-1c0-0.5-0.2-1.1-0.5-1.4c-0.7-0.6-1.7-0.6-2.4,0c-0.3,0.4-0.5,0.9-0.5,1.4
		c0,0.2,0,0.6,0,1c0,0.4,0,0.7,0,1c0,0.5,0.2,1.1,0.5,1.4c0.3,0.3,0.8,0.5,1.3,0.5C239,22.4,239.3,22.3,239.7,22L239.7,22z"/>
	<path class="st2" d="M245,23.6c0,0-0.1-0.1-0.1-0.2v-0.1l2.8-7.4c0.1-0.2,0.2-0.3,0.4-0.3h1.3c0.2,0,0.4,0.1,0.4,0.3l2.8,7.4v0.1
		c0,0.1,0,0.1-0.1,0.2c0,0-0.1,0.1-0.2,0.1h-1.1c-0.2,0-0.3-0.1-0.4-0.2l-0.6-1.4H247l-0.6,1.4c-0.1,0.1-0.2,0.2-0.4,0.2L245,23.6
		C245.1,23.7,245.1,23.6,245,23.6z M247.5,20.7h2.6l-1.3-3.6L247.5,20.7z"/>
	<path class="st2" d="M253.7,23.6c-0.1-0.1-0.1-0.1-0.1-0.2v-7.6c0-0.1,0-0.2,0.1-0.2c0.1-0.1,0.1-0.1,0.2-0.1h1
		c0.1,0,0.2,0,0.2,0.1c0.1,0.1,0.1,0.1,0.1,0.2v7.6c0,0.1,0,0.2-0.1,0.2c-0.1,0.1-0.1,0.1-0.2,0.1h-1
		C253.8,23.7,253.7,23.6,253.7,23.6z"/>
	<path class="st2" d="M257.3,23c-0.6-0.6-0.9-1.3-0.8-2.1v-0.3c0-0.9,0.2-1.6,0.8-2.3c1.2-1.2,3.1-1.2,4.2,0
		c0.5,0.6,0.8,1.4,0.8,2.2v0.2c0,0.1,0,0.2-0.1,0.2c-0.1,0.1-0.1,0.1-0.2,0.1h-3.9v0.1c0,0.4,0.1,0.8,0.4,1.1
		c0.2,0.3,0.6,0.5,0.9,0.4c0.4,0,0.9-0.2,1.1-0.6c0.1-0.1,0.1-0.1,0.2-0.2c0.1,0,0.1,0,0.2,0h1c0.1,0,0.1,0,0.2,0.1
		c0.1,0,0.1,0.1,0.1,0.2c0,0.3-0.2,0.5-0.4,0.7c-0.3,0.3-0.6,0.5-1,0.7c-0.5,0.2-1,0.3-1.4,0.3C258.5,23.8,257.7,23.6,257.3,23z
		 M260.5,20.1L260.5,20.1c0-0.4-0.1-0.8-0.4-1.1c-0.5-0.5-1.3-0.6-1.8-0.1c0,0,0,0-0.1,0.1c-0.2,0.3-0.4,0.7-0.4,1.1l0,0H260.5z"/>
	<path class="st2" d="M263.4,23.6c-0.1-0.1-0.1-0.1-0.1-0.2v-5.5c0-0.1,0-0.2,0.1-0.2c0.1-0.1,0.1-0.1,0.2-0.1h1
		c0.1,0,0.2,0,0.2,0.1c0.1,0.1,0.1,0.1,0.1,0.2v0.5c0.4-0.5,1.1-0.8,1.6-0.8h0.5c0.1,0,0.3,0.1,0.3,0.2l0,0v0.9c0,0.1,0,0.1-0.1,0.2
		c-0.1,0.1-0.1,0.1-0.2,0.1h-1c-0.6-0.1-1.2,0.4-1.2,1c0,0.1,0,0.1,0,0.2v3.2c0,0.1,0,0.2-0.1,0.2c-0.1,0.1-0.1,0.1-0.2,0.1H263.4
		C263.5,23.7,263.4,23.6,263.4,23.6z"/>
	<path class="st2" d="M269.3,23.1c-0.4-0.5-0.6-1.1-0.5-1.6v-2.6h-1c-0.1,0-0.2,0-0.2-0.1c-0.1-0.1-0.1-0.1-0.1-0.2v-0.7
		c0-0.1,0-0.1,0.1-0.2c0-0.1,0.1-0.1,0.2-0.1h1v-1.9c0-0.1,0-0.2,0.1-0.2c0.1-0.1,0.1-0.1,0.2-0.1h1c0.1,0,0.2,0,0.2,0.1
		c0.1,0.1,0.1,0.1,0.1,0.2v1.9h1.4c0.1,0,0.2,0,0.2,0.1c0.1,0.1,0.1,0.1,0.1,0.2v0.7c0,0.1,0,0.1-0.1,0.2c-0.1,0.1-0.1,0.1-0.2,0.1
		h-1.4v2.5c0,0.3,0,0.5,0.2,0.8c0.1,0.2,0.4,0.3,0.6,0.3h0.8c0.1,0,0.3,0.1,0.3,0.2l0,0v0.8c0,0.1,0,0.2-0.1,0.2
		c-0.1,0.1-0.1,0.1-0.2,0.1h-1C270.3,23.7,269.8,23.5,269.3,23.1z"/>
</g>
<g>
	<path class="st1" d="M15.4,88.3h77.2c1.5,0,2.8,1.2,2.8,2.8v17.9c0,1.5-1.2,2.8-2.8,2.8H15.4c-1.5,0-2.8-1.2-2.8-2.8V91.1
		C12.8,89.5,14,88.3,15.4,88.3z"/>
	<path class="st2" d="M23.7,104c-0.1-0.1-0.1-0.1-0.1-0.2v-7.8c0-0.1,0-0.2,0.1-0.2c0.1-0.1,0.1-0.1,0.2-0.1h1.2
		c0.1,0,0.2,0,0.2,0.1c0.1,0.1,0.1,0.1,0.1,0.2v7.7c0,0.1,0,0.1-0.1,0.2s-0.1,0.1-0.2,0.1H24C23.9,104,23.8,104,23.7,104z"/>
	<path class="st2" d="M27.1,104c-0.1,0-0.1-0.1-0.1-0.2v-5.6c0-0.1,0-0.1,0.1-0.2c0.1-0.1,0.1-0.1,0.2-0.1h1c0.1,0,0.2,0,0.2,0.1
		c0.1,0.1,0.1,0.1,0.1,0.2v0.5c0.5-0.6,1.2-0.9,2-0.9c0.7,0,1.3,0.2,1.8,0.7c0.5,0.6,0.7,1.3,0.7,2v3.3c0,0.1,0,0.1-0.1,0.2
		c-0.1,0.1-0.1,0.1-0.2,0.1h-1.2c-0.2,0-0.3-0.1-0.3-0.3v-3.2c0-0.4-0.1-0.8-0.3-1.1c-0.3-0.3-0.6-0.4-1-0.4s-0.7,0.1-1,0.4
		c-0.3,0.3-0.4,0.7-0.4,1.1v3.2c0,0.1,0,0.1-0.1,0.2c-0.1,0.1-0.1,0.1-0.2,0.1h-1C27.2,104.1,27.1,104,27.1,104z"/>
	<path class="st2" d="M36.2,104c-0.1-0.1-0.1-0.1-0.2-0.2l-2.3-5.5v-0.1c0-0.1,0-0.1,0.1-0.2c0-0.1,0.1-0.1,0.2-0.1h1
		c0.1,0,0.3,0.1,0.3,0.2l1.6,4.1l1.6-4.1c0-0.1,0.1-0.1,0.1-0.2c0.1-0.1,0.1-0.1,0.2-0.1h1c0.1,0,0.1,0,0.2,0.1c0,0,0.1,0.1,0.1,0.2
		v0.1l-2.2,5.5c-0.1,0.2-0.2,0.3-0.4,0.3h-1C36.4,104.1,36.2,104,36.2,104z"/>
	<path class="st2" d="M41.4,103.4c-0.6-0.6-0.9-1.4-0.8-2.2V101c0-0.9,0.2-1.7,0.8-2.4c1.2-1.1,3.1-1.1,4.3,0
		c0.5,0.7,0.8,1.5,0.7,2.4v0.2c0,0.1,0,0.2-0.1,0.2c-0.1,0.1-0.1,0.1-0.2,0.1h-3.9v0.1c0,0.4,0.1,0.8,0.4,1.1
		c0.2,0.3,0.6,0.5,0.9,0.4c0.4,0,0.9-0.2,1.1-0.6c0-0.1,0.1-0.1,0.2-0.2c0.1,0,0.1,0,0.2,0H46c0.1,0,0.1,0,0.2,0.1
		c0.1,0,0.1,0.1,0.1,0.2c0,0.3-0.1,0.5-0.3,0.7c-0.3,0.3-0.6,0.5-1,0.7c-0.5,0.2-1,0.3-1.5,0.3C42.7,104.2,42,103.9,41.4,103.4z
		 M44.7,100.5L44.7,100.5c0-0.4-0.1-0.8-0.3-1.1c-0.2-0.3-0.6-0.5-1-0.4c-0.4,0-0.8,0.1-1,0.4s-0.4,0.7-0.3,1.1l0,0H44.7z"/>
	<path class="st2" d="M48.5,103.9c-0.3-0.1-0.7-0.4-0.9-0.6s-0.3-0.4-0.3-0.7c0-0.1,0-0.1,0.1-0.2c0.1,0,0.1-0.1,0.2-0.1h1
		c0.1,0,0.1,0,0.2,0.1l0.3,0.2c0.3,0.3,0.7,0.4,1.1,0.4c0.3,0,0.5-0.1,0.8-0.2c0.2-0.1,0.3-0.3,0.3-0.5c0-0.1,0-0.3-0.1-0.4
		c-0.1-0.1-0.3-0.2-0.5-0.3c-0.3-0.1-0.7-0.2-1.1-0.3c-0.6-0.1-1.1-0.3-1.5-0.7c-0.3-0.3-0.5-0.7-0.5-1.2c0-0.3,0.1-0.6,0.3-0.9
		s0.5-0.5,0.8-0.7c0.4-0.2,0.9-0.3,1.4-0.3c0.5,0,1,0.1,1.4,0.3c0.3,0.1,0.6,0.3,0.9,0.6c0.2,0.2,0.3,0.4,0.3,0.6
		c0,0.1,0,0.1-0.1,0.2c0,0-0.1,0.1-0.2,0.1h-0.9c-0.1,0-0.2,0-0.2-0.1l-0.3-0.2c-0.1-0.1-0.3-0.2-0.4-0.3c-0.2-0.1-0.4-0.1-0.5-0.1
		c-0.2,0-0.5,0.1-0.7,0.2s-0.2,0.3-0.2,0.5c0,0.1,0,0.3,0.1,0.4c0.1,0.1,0.3,0.2,0.5,0.3c0.3,0.1,0.7,0.2,1,0.3
		c1.4,0.3,2.2,0.9,2.2,1.9c0,0.6-0.3,1.1-0.7,1.4c-0.6,0.4-1.3,0.6-2,0.5C49.4,104.2,48.9,104.1,48.5,103.9z"/>
	<path class="st2" d="M55,103.5c-0.4-0.5-0.6-1.1-0.5-1.7v-2.7h-1c-0.1,0-0.1,0-0.2-0.1c-0.1-0.1-0.2-0.1-0.2-0.2v-0.7
		c0-0.1,0-0.2,0.1-0.2c0.1-0.1,0.1-0.1,0.2-0.1h1v-2c0-0.1,0-0.2,0.1-0.2c0.1-0.1,0.1-0.1,0.2-0.1h1c0.1,0,0.2,0,0.2,0.1
		C56,95.9,56,95.9,56,96v2h1.5c0.1,0,0.1,0,0.2,0.1c0.1,0.1,0.1,0.1,0.1,0.2v0.7c0,0.1,0,0.2-0.1,0.2c-0.1,0.1-0.1,0.1-0.2,0.1H56
		v2.6c0,0.3,0,0.5,0.2,0.8c0.1,0.2,0.4,0.3,0.6,0.3h0.8c0.1,0,0.2,0,0.2,0.1c0.1,0.1,0.1,0.1,0.1,0.2v0.8c0,0.1,0,0.1-0.1,0.2
		c-0.1,0.1-0.1,0.1-0.2,0.1h-1C56,104.1,55.4,103.9,55,103.5z"/>
	<path class="st2" d="M61.8,104c-0.1,0-0.1-0.1-0.1-0.2v-7.8c0-0.1,0-0.2,0.1-0.2c0.1-0.1,0.1-0.1,0.2-0.1h1c0.1,0,0.3,0.1,0.3,0.2
		l3.3,5.2v-5.1c0-0.2,0.1-0.3,0.3-0.3l0,0h1c0.1,0,0.2,0,0.2,0.1c0.1,0.1,0.1,0.1,0.1,0.2v7.7c0,0.1,0,0.2-0.1,0.2
		c0,0.1-0.1,0.1-0.2,0.1h-1c-0.2,0-0.3-0.1-0.4-0.2l-3.3-5.1v5c0,0.1,0,0.1-0.1,0.2C63,104,63,104,62.9,104L61.8,104
		C61.9,104,61.9,104,61.8,104z"/>
	<path class="st2" d="M70.6,103.4c-0.5-0.5-0.8-1.2-0.8-2v-1.1c0-0.8,0.3-1.5,0.8-2c0.6-0.5,1.4-0.8,2.2-0.7c0.8,0,1.5,0.2,2.1,0.7
		c0.5,0.5,0.8,1.2,0.8,2c0,0.1,0,0.3,0,0.5c0,0.2,0,0.4,0,0.5c0,0.8-0.3,1.5-0.8,2C73.5,104.4,71.7,104.4,70.6,103.4L70.6,103.4z
		 M73.6,102.7c0.3-0.3,0.4-0.7,0.4-1.2c0-0.1,0-0.2,0-0.5c0-0.3,0-0.4,0-0.5c0-0.4-0.1-0.8-0.4-1.2c-0.3-0.3-0.6-0.4-1-0.4
		s-0.7,0.1-1,0.4c-0.3,0.3-0.4,0.7-0.4,1.2v0.9c0,0.4,0.1,0.8,0.4,1.2c0.3,0.3,0.6,0.4,1,0.4C73,103,73.4,102.9,73.6,102.7z"/>
	<path class="st2" d="M78,103.7l-1.7-5.5v-0.1c0-0.1,0-0.1,0.1-0.2c0-0.1,0.1-0.1,0.2-0.1h0.9c0.1,0,0.2,0,0.2,0.1
		c0.1,0,0.1,0.1,0.1,0.2L79,102l1.2-3.8c0-0.1,0.1-0.1,0.1-0.2c0.1-0.1,0.2-0.1,0.2-0.1h0.6c0.1,0,0.2,0,0.2,0.1
		c0.1,0,0.1,0.1,0.1,0.2l1.2,3.8l1.2-3.8c0-0.1,0.1-0.1,0.1-0.2c0.1,0,0.1-0.1,0.2-0.1h0.9c0.1,0,0.1,0,0.2,0.1
		c0.1,0,0.1,0.1,0.1,0.2v0.1l-1.6,5.5c0,0.1-0.1,0.2-0.1,0.2c-0.1,0.1-0.2,0.1-0.2,0.1h-0.8c-0.2,0-0.4-0.1-0.4-0.3L81,100l-1.2,3.7
		c0,0.2-0.2,0.3-0.4,0.3h-0.8C78.2,104,78.1,103.9,78,103.7z"/>
</g>
<path class="st3" d="M159.5,107.3c-0.1,0.1-0.3,0.2-0.3,0.4c-0.1,0.2-0.1,0.5-0.1,0.5l1.1-0.6l-0.4-0.5L159.5,107.3z"/>
<g>
	<text transform="matrix(1 0 0 1 12.3195 36.8701)"><tspan x="0" y="0" class="st2 st4 st5">ICICI Prudential Nifty </tspan><tspan x="0" y="20.3" class="st2 st4 st5">Bank Index Fund</tspan></text>
	<text transform="matrix(1 0 0 1 12.3195 76.916)"><tspan x="0" y="0" class="st1 st6 st7">SIP starts at </tspan><tspan x="76.4" y="0" class="st1 st8 st7">₹</tspan><tspan x="83" y="0" class="st1 st6 st7">1000</tspan></text>
</g>
<g>
	<g>
		<path class="st9" d="M222.9,90.1l-15.4,3.1c-0.4,0.1-0.6-0.2-0.7-0.5l0,0c-0.1-0.4,0.2-0.6,0.5-0.7l15.4-3.1
			c0.4-0.1,0.6,0.2,0.7,0.5l0,0C223.5,89.7,223.3,90.1,222.9,90.1L222.9,90.1z"/>
		<path class="st9" d="M229.4,85.4L206.8,90c-0.4,0.1-0.6-0.2-0.7-0.5l0,0l0,0c-0.1-0.4,0.2-0.6,0.5-0.7l22.6-4.6
			c0.4-0.1,0.6,0.2,0.7,0.5l0,0C230,84.9,229.8,85.3,229.4,85.4L229.4,85.4z"/>
		<path class="st9" d="M203.8,96.5l-7.1,1.5l-1.5-7.1l7.1-1.5L203.8,96.5z M197.3,96.9l5.4-1.1l-1.1-5.4l-5.4,1.1L197.3,96.9z"/>
		<polygon class="st10" points="199.6,95.3 197.6,94.3 198,93.4 199.2,94 200.6,91.8 201.5,92.2 		"/>
		<polygon class="st10" points="196.7,81.1 194.7,80 195.2,79.2 196.4,79.8 197.7,77.5 198.6,78 		"/>
		<path class="st11" d="M226.7,91c-3.4,0.6-5.7,3.8-5.1,7.2c0.6,3.4,3.8,5.7,7.2,5.1c3.4-0.6,5.7-3.8,5.1-7.2
			C233.4,92.7,230.2,90.4,226.7,91L226.7,91z M232.3,96.4c0.5,2.5-1.2,4.8-3.7,5.3c-2.5,0.5-4.8-1.2-5.3-3.7s1.2-4.8,3.7-5.3l0,0
			C229.5,92.3,231.8,93.9,232.3,96.4L232.3,96.4z"/>
		<path class="st11" d="M229.3,104.7l-0.2,0.1c-4.2,0.7-8.2-2-8.9-6.2s2-8.2,6.2-8.9c2-0.4,4.1,0.1,5.7,1.3
			c3.4,2.4,4.3,7.2,1.9,10.7C232.9,103.2,231.3,104.4,229.3,104.7z M226.5,90.3c-4.1,0.1-7.2,3.3-7.2,7.4c0.1,4.1,3.3,7.2,7.4,7.2
			c4.1-0.1,7.2-3.3,7.2-7.4c-0.1-4-3.2-7.1-7.2-7.2H226.5z"/>
		<polygon class="st10" points="227.6,99.9 224.7,98.1 225.5,96.9 227.2,98 229.6,94.8 230.8,95.7 		"/>
		<polygon class="st12" points="253.4,114.5 230.5,110.7 235.3,109.9 226.8,109.1 225.8,109.4 204.4,107.9 211.8,45.9 259,50.7 
			253.8,96.3 		"/>
		<polygon class="st13" points="250.3,110.7 234.9,109.9 203.8,106.7 210.3,43.7 257.4,48.5 252.6,95.1 		"/>
		<path class="st9" d="M248.6,73.6l-22.9-2.3c-0.4,0-0.6-0.4-0.6-0.6l0,0l0,0c0-0.4,0.4-0.6,0.6-0.6l23,2.3c0.4,0,0.6,0.4,0.6,0.6
			l0,0l0,0C249.3,73.4,249,73.6,248.6,73.6C248.7,73.6,248.7,73.6,248.6,73.6z"/>
		<path class="st9" d="M248.3,77l-23-2.4c-0.4,0-0.6-0.4-0.6-0.6l0,0c0-0.4,0.4-0.6,0.6-0.6l22.9,2.3c0.4,0,0.6,0.4,0.6,0.6l0,0
			C248.9,76.8,248.6,77,248.3,77z"/>
		<path class="st9" d="M238.6,79.4l-13.5-1.4c-0.4,0-0.6-0.4-0.6-0.6l0,0c0-0.4,0.4-0.6,0.6-0.6l13.5,1.4c0.4,0,0.6,0.4,0.6,0.6l0,0
			C239.2,79.2,239,79.4,238.6,79.4z"/>
		<path class="st9" d="M239.5,90.8l-15.7-1.6c-0.4,0-0.6-0.4-0.6-0.6l0,0l0,0c0-0.4,0.4-0.6,0.6-0.6l0,0l15.7,1.6
			c0.4,0,0.6,0.4,0.6,0.6l0,0C240.2,90.7,239.9,90.8,239.5,90.8z"/>
		<path class="st9" d="M247.1,88.1l-22.9-2.3c-0.4,0-0.6-0.4-0.6-0.6l0,0l0,0c0-0.4,0.4-0.6,0.6-0.6l0,0l22.9,2.3
			c0.4,0,0.6,0.4,0.6,0.6l0,0l0,0C247.8,88,247.5,88.2,247.1,88.1z"/>
		<path class="st9" d="M249.7,63.2l-22.9-2.3c-0.4,0-0.6-0.4-0.6-0.6l0,0l0,0c0-0.4,0.4-0.6,0.6-0.6l23,2.3c0.4,0,0.6,0.4,0.6,0.6
			l0,0C250.4,63,250.1,63.2,249.7,63.2z"/>
		<path class="st9" d="M250.1,59.8l-23-2.3c-0.4,0-0.6-0.4-0.6-0.6l0,0c0-0.4,0.4-0.6,0.6-0.6l0,0l22.9,2.3c0.4,0,0.6,0.4,0.6,0.6
			l0,0l0,0C250.7,59.6,250.4,59.9,250.1,59.8L250.1,59.8z"/>
		<polygon class="st10" points="215.7,88.8 214.1,87.1 214.8,86.5 215.7,87.4 217.8,85.6 218.4,86.4 		"/>
		<path class="st11" d="M243,92.8c-3.4-0.5-6.6,1.9-7,5.4c-0.5,3.4,1.9,6.6,5.4,7c3.4,0.5,6.6-1.9,7-5.4
			C248.8,96.4,246.4,93.2,243,92.8L243,92.8z M246.7,99.6c-0.4,2.5-2.6,4.3-5.1,3.9c-2.5-0.4-4.3-2.6-3.9-5.1s2.6-4.3,5.1-3.9l0,0
			C245.2,94.8,246.9,97.1,246.7,99.6L246.7,99.6z"/>
		<path class="st11" d="M241.3,106.7h-0.2c-4.2-0.6-7.1-4.4-6.6-8.6c0.6-4.2,4.4-7.1,8.6-6.6c2,0.3,3.8,1.3,5.1,3
			c2.6,3.3,1.9,8.2-1.4,10.7C245.2,106.3,243.2,106.9,241.3,106.7L241.3,106.7z M242.8,91.9c-4,0.1-7.2,3.3-7.1,7.4s3.3,7.2,7.4,7.1
			c4-0.1,7.2-3.3,7.1-7.4c-0.1-3.9-3.2-7.1-7.1-7.1H242.8z"/>
		<polygon class="st10" points="241,101.6 238.9,98.9 240,98.1 241.3,99.5 244.5,97.3 245.5,98.4 		"/>
		<polygon class="st12" points="242.5,103.5 227.2,104.9 204.1,103.6 204,104.3 194.8,104.1 195.9,41.7 243.3,41.7 243.2,47.1 
			242,46.9 242.8,87.5 		"/>
		<polygon class="st2" points="240.7,102.2 225.4,103 194.1,103 194.1,39.6 241.5,39.6 241.5,86.5 		"/>
		<path class="st11" d="M231.6,85.1c-3.4-0.1-6.4,2.6-6.5,6.1c-0.1,3.4,2.6,6.4,6.1,6.5c3.4,0.1,6.3-2.6,6.5-6
			C237.8,88.1,235.1,85.2,231.6,85.1C231.7,85.1,231.6,85.1,231.6,85.1z M236,91.5c-0.1,2.5-2.2,4.5-4.7,4.4
			c-2.5-0.1-4.5-2.2-4.4-4.7c0.1-2.5,2.2-4.5,4.7-4.4C234.1,86.9,236,89,236,91.5L236,91.5z"/>
		<path class="st11" d="M231.4,99.1h-0.3c-4.2-0.1-7.4-3.5-7.4-7.6s3.5-7.4,7.6-7.4c4.2,0.1,7.4,3.5,7.4,7.6
			C238.7,95.7,235.4,99,231.4,99.1z M231.4,84.3c-3.8,0.1-6.8,3.1-6.7,6.9c0.1,3.8,3.1,6.8,6.9,6.7c3.8-0.1,6.8-3.1,6.7-6.9
			c-0.1-3.7-3.1-6.7-6.7-6.7H231.4z"/>
		<polygon class="st10" points="230.6,94.1 228.1,91.6 229.2,90.7 230.6,92 233.6,89.4 234.7,90.5 		"/>
		<g>
			<path class="st14" d="M225.8,51.7h1.5c0.3,0.1,0.7,0.2,1,0.2c2.4,0.3,4.4,1.7,5.5,3.8c0.7,1.3,1.1,2.7,1.2,4.1
				c0.1,1.2,0.1,2.4-0.2,3.6c-0.3,1-0.7,2-1.1,2.8c-2,4.1-4.8,7.9-8.2,10.8c-2.1,1.8-4.4,3.3-6.9,4.3c0.1-0.4,0.1-1,0.2-1.5
				c0.5-2.7,1.2-5.3,2.2-7.9c0.7-2.1,1.4-4.1,2.2-6.3c0.4-0.9,0-2-0.9-2.3c-0.1-0.1-0.3-0.1-0.4-0.1c-1-0.2-2.1-0.1-2.9,0.3
				c-1.1,0.5-2.1,1.2-3,1.8c-1.6,1.1-3,2.3-4.4,3.6c-0.4,0.3-0.8,0.9-0.9,1.3c-0.1,0.4,0.1,0.7,0.4,0.7c0.3,0,0.7-0.1,0.9-0.2
				c0.7-0.3,1.3-0.7,2-0.8c1.1-0.2,2.1,0.1,2.1,1.6c0,2-0.3,3.9-0.8,5.7c-0.4,1.8-1,3.6-1.6,5.3c-0.2,0-0.5,0-0.8,0
				c-2.4,0-4.7-1.2-5.9-3.3c-0.8-1.3-1.2-2.9-1.2-4.4c0-2,0.2-3.8,0.9-5.6c1.6-4.9,4.6-9.1,8.3-12.6c0.2-0.1,0.4-0.2,0.4-0.5l0,0
				c0.1,0,0.1,0,0.2-0.1l0,0c0.1,0,0.1,0,0.1-0.1l0,0c0.1,0,0.2,0,0.2-0.1l0,0l0,0c0.1,0,0.1-0.1,0.1-0.1l0,0
				c0.4-0.3,0.9-0.7,1.4-0.9c2.3-1.4,4.8-2.4,7.4-2.9C224.8,51.9,225.3,51.9,225.8,51.7z M226.8,56.4c0.1-0.9-0.5-1.7-1.4-1.8
				c-0.1,0-0.2,0-0.3,0c-2.4,0-5.1,2.5-5.3,5c-0.2,0.9,0.3,1.8,1.3,2.1c0.2,0.1,0.5,0.1,0.9,0c1.4-0.2,2.8-1,3.7-2.2
				C226.3,58.6,226.8,57.6,226.8,56.4L226.8,56.4z"/>
			<path class="st15" d="M201.2,77.8c0.1-0.7,0.2-1.3,0.3-2c0.7-3.1,1.8-6.2,3.5-8.9c2.5-4.1,5.7-7.8,9.6-10.6l0.3-0.2
				c0,0.3-0.3,0.4-0.4,0.5c-3.8,3.4-6.7,7.7-8.3,12.6c-0.7,1.8-1,3.7-0.9,5.6c0,1.5,0.4,3.1,1.2,4.4c1.3,2.1,3.5,3.3,5.9,3.3
				c0.2,0,0.5,0,0.8,0c-0.5,1.5-1.3,3-2.3,4.3c-0.8,1-2.1,1.4-3.3,1.1c-3.3-0.7-5.6-3.1-6.2-6.4c0-0.4-0.1-1-0.2-1.4V77.8z"/>
			<path class="st15" d="M234.8,63.3c-0.1,1.3-0.4,2.6-0.9,3.8c-1.4,4.2-3.7,8.1-6.7,11.4c-1.8,2.2-4,4.1-6.4,5.7
				c-0.5,0.5-1.3,0.4-1.8,0c-0.2-0.2-0.3-0.5-0.3-0.9c-0.1-0.7-0.1-1.3,0-2c2.5-1.1,4.9-2.5,6.9-4.3c3.5-2.9,6.3-6.7,8.2-10.8
				C234.1,65.3,234.4,64.3,234.8,63.3z"/>
			<path class="st15" d="M215.2,56c0-0.1,0.1-0.1,0.2-0.1l0,0C215.4,56,215.4,56,215.2,56L215.2,56z"/>
			<path class="st15" d="M214.9,56.3c0-0.1,0.1-0.1,0.2-0.1S215,56.3,214.9,56.3z"/>
			<path class="st15" d="M215.4,55.9c0-0.1,0.1-0.1,0.1-0.1C215.5,55.9,215.5,55.9,215.4,55.9L215.4,55.9z"/>
			<path class="st15" d="M215.1,56.2c0-0.1,0.1-0.1,0.1-0.1S215.2,56.2,215.1,56.2z"/>
		</g>
		<path class="st3" d="M193.2,91.3c0.2-0.1,0.5-0.1,0.6,0c0.3,0.1,0.5,0.2,0.7,0.4l-1.3,0.2L193.2,91.3z"/>
	</g>
	<g>
		<g>
			<path class="st16" d="M190.7,108.1c0,1.8-7.3,3.2-16.3,3.2c-9,0-16.3-1.4-16.3-3.2c0-1.8,7.3-3.2,16.3-3.2
				C183.4,104.8,190.7,106.3,190.7,108.1z"/>
			<path class="st17" d="M201.7,97.3c0,0-2.9-14.5-13.6-20.8h-7.7c-10.7,6.4-13.6,20.8-13.6,20.8c-3.1,16.8,16.4,14.7,16.4,14.7h2.1
				C185.3,112,204.8,114.1,201.7,97.3z"/>
			<path class="st18" d="M201.7,97.3c0,0-2.9-14.5-13.6-20.8h-4.3c7.3,6.4,9.3,16.8,9.3,16.8c2.9,15.3-14.9,13.4-14.9,13.4h-1.9
				c0,0-4.6,0.5-8.8-1c3.6,7.7,15.7,6.4,15.7,6.4h2.1C185.3,112,204.8,114.1,201.7,97.3z"/>
			<path class="st17" d="M172.7,67.1c-0.4-0.5-1-1.6-0.3-2.2c0.9-0.7,2.6,0,3.5,0.3c1.2,0.3,2.5,0.6,3.8,0.5
				c1.3-0.1,2.7-0.8,3.8-1.3c1.1-0.5,2.3-1.3,3.7-0.9c1.4,0.4,2,1.7,3.6,1.8c2.9,0.3,4.6-2.3,7.3-2c1.4,0.1,1.2,1,0.5,1.6
				l-10.5,11.5h-7.7L172.7,67.1z"/>
			<g>
				<g>
					<path class="st16" d="M194,116.3c-3.5,0-6.4-1.1-6.4-2.5c0-1.4,2.9-2.5,6.4-2.5c3.5,0,6.4,1.1,6.4,2.5
						C200.4,115.2,197.5,116.3,194,116.3z"/>
					<path class="st16" d="M200.7,108.9c-3.5,0-6.4-1.1-6.4-2.5s2.9-2.5,6.4-2.5c3.5,0,6.4,1.1,6.4,2.5S204.2,108.9,200.7,108.9z"/>
					<path class="st16" d="M199.9,113.7c-3.5-0.1-6.4,0.9-6.5,2.2c0,1.4,2.8,2.6,6.3,2.7c3.5,0.1,6.4-0.9,6.5-2.2
						C206.3,115,203.4,113.8,199.9,113.7z"/>
					<path class="st16" d="M181.9,109.6c3.5-0.1,6.4,0.9,6.5,2.2c0,1.4-2.8,2.6-6.3,2.7c-3.5,0.1-6.4-0.9-6.5-2.2
						C175.5,110.9,178.3,109.8,181.9,109.6z"/>
					<g>
						<g>
							<g>
								<g>
									<path class="st19" d="M179,110.4c0,1.4,2.9,2.5,6.4,2.5c3.5,0,6.4-1.1,6.4-2.5v-1.2H179V110.4z"/>
									<g>
										<path class="st20" d="M184.8,109.8v3c0.2,0,0.4,0,0.6,0v-3H184.8z"/>
										<path class="st20" d="M183.6,109.8v2.9c0.3,0,0.7,0.1,1,0.1v-3H183.6z"/>
										<path class="st20" d="M183.3,112.7v-3.5H179v1.2C179,111.4,180.8,112.3,183.3,112.7z"/>
										<path class="st20" d="M187.7,109.8v2.9c0.1,0,0.1,0,0.2,0v-2.8H187.7z"/>
										<path class="st20" d="M186.9,112.7c0.1,0,0.1,0,0.2,0v-2.9h-0.2V112.7z"/>
										<path class="st20" d="M185.9,109.8v3c0.1,0,0.2,0,0.3,0v-3H185.9z"/>
									</g>
									<g>
										<path class="st19" d="M185.4,111.7c-3.5,0-6.4-1.1-6.4-2.5c0-1.4,2.9-2.5,6.4-2.5c3.5,0,6.4,1.1,6.4,2.5
											C191.8,110.6,189,111.7,185.4,111.7z"/>
										
											<linearGradient id="SVGID_00000160166449099608356500000006021841190983762093_" gradientUnits="userSpaceOnUse" x1="48.4595" y1="154.2529" x2="53.3632" y2="154.2529" gradientTransform="matrix(0 1 -1 0 338.2891 58.2881)">
											<stop  offset="0" style="stop-color:#FFFFFF"/>
											<stop  offset="1" style="stop-color:#E97A00"/>
										</linearGradient>
										<path style="opacity:0.4;fill:url(#SVGID_00000160166449099608356500000006021841190983762093_);" d="M189,111.2
											c-0.2,0-0.4,0-0.5,0c-3.5,0-6.4-1.1-6.4-2.5c0-0.8,1.1-1.6,2.8-2c-3.3,0.1-5.8,1.2-5.8,2.4c0,1.4,2.9,2.5,6.4,2.5
											C186.8,111.7,188,111.5,189,111.2z"/>
										<path class="st20" d="M191.8,109.3c-0.1-1.3-2.9-2.4-6.4-2.4c-3.5,0-6.3,1.1-6.4,2.4c0.1,1.3,2.9,2.4,6.4,2.4
											C188.9,111.7,191.7,110.6,191.8,109.3z M185.4,111.3c-2.9,0-5.2-0.9-5.2-2c0-1.1,2.3-2,5.2-2s5.2,0.9,5.2,2
											C190.6,110.4,188.3,111.3,185.4,111.3z"/>
										<path class="st20" d="M184.9,108.9l-2.5,0.7v0.5l2.5-0.8c0.3,0.2,0.6,0.4,1.1,0.5c0,0,0.1,0,0.1,0v0.4h0.9v-0.3
											c0.2,0,0.4,0,0.5,0v0.3h0.9v-1.3h-0.9v0.6c-0.2,0-0.3,0-0.5,0v-0.6h-0.9v0.4c-0.2-0.1-0.4-0.2-0.5-0.4L184.9,108.9z"/>
										<path class="st22" d="M190.6,109.2c0,1.1-2.3,2-5.2,2s-5.2-0.9-5.2-2c0-1.1,2.3-2,5.2-2S190.6,108.1,190.6,109.2
											 M191.8,109.2c0-1.4-2.9-2.5-6.4-2.5c-3.5,0-6.4,1.1-6.4,2.5c0,1.4,2.9,2.5,6.4,2.5C189,111.7,191.8,110.6,191.8,109.2
											L191.8,109.2z"/>
										<g>
											<path class="st22" d="M180.9,109.2c0-1,2-1.7,4.5-1.7c2.5,0,4.5,0.8,4.5,1.7c0,1-2,1.7-4.5,1.7
												C182.9,110.9,180.9,110.2,180.9,109.2z M189.7,109.2c0-0.9-1.9-1.7-4.3-1.7c-2.4,0-4.3,0.7-4.3,1.7
												c0,0.9,1.9,1.7,4.3,1.7C187.8,110.9,189.7,110.1,189.7,109.2z"/>
										</g>
										<path class="st22" d="M184.9,108.5l-2.5,0.7v0.5l2.5-0.8c0.3,0.2,0.6,0.4,1.1,0.5c0,0,0.1,0,0.1,0v0.4h0.9v-0.3
											c0.2,0,0.4,0,0.5,0v0.3h0.9v-1.3h-0.9v0.6c-0.2,0-0.3,0-0.5,0v-0.6h-0.9v0.5c-0.2-0.1-0.4-0.2-0.5-0.4L184.9,108.5z"/>
									</g>
								</g>
							</g>
						</g>
					</g>
					<g>
						<g>
							<g>
								<g>
									<path class="st19" d="M179,107.9c0,1.4,2.9,2.5,6.4,2.5c3.5,0,6.4-1.1,6.4-2.5v-1.2H179V107.9z"/>
									<g>
										<path class="st20" d="M184.8,107.3v3c0.2,0,0.4,0,0.6,0v-3H184.8z"/>
										<path class="st20" d="M183.6,107.3v2.9c0.3,0,0.7,0.1,1,0.1v-3H183.6z"/>
										<path class="st20" d="M183.3,110.2v-3.5H179v1.2C179,109,180.8,109.9,183.3,110.2z"/>
										<path class="st20" d="M187.7,107.3v2.9c0.1,0,0.1,0,0.2,0v-2.8H187.7z"/>
										<path class="st20" d="M186.9,110.3c0.1,0,0.1,0,0.2,0v-2.9h-0.2V110.3z"/>
										<path class="st20" d="M185.9,107.3v3c0.1,0,0.2,0,0.3,0v-3H185.9z"/>
									</g>
									<g>
										<path class="st19" d="M185.4,109.2c-3.5,0-6.4-1.1-6.4-2.5c0-1.4,2.9-2.5,6.4-2.5c3.5,0,6.4,1.1,6.4,2.5
											C191.8,108.1,189,109.2,185.4,109.2z"/>
										
											<linearGradient id="SVGID_00000100346012072515050510000000295338460308309670_" gradientUnits="userSpaceOnUse" x1="46.0029" y1="154.2529" x2="50.9064" y2="154.2529" gradientTransform="matrix(0 1 -1 0 338.2891 58.2881)">
											<stop  offset="0" style="stop-color:#FFFFFF"/>
											<stop  offset="1" style="stop-color:#E97A00"/>
										</linearGradient>
										<path style="opacity:0.4;fill:url(#SVGID_00000100346012072515050510000000295338460308309670_);" d="M189,108.8
											c-0.2,0-0.4,0-0.5,0c-3.5,0-6.4-1.1-6.4-2.5c0-0.8,1.1-1.6,2.8-2c-3.3,0.1-5.8,1.2-5.8,2.4c0,1.4,2.9,2.5,6.4,2.5
											C186.8,109.2,188,109,189,108.8z"/>
										<path class="st20" d="M191.8,106.8c-0.1-1.3-2.9-2.4-6.4-2.4c-3.5,0-6.3,1.1-6.4,2.4c0.1,1.3,2.9,2.4,6.4,2.4
											C188.9,109.2,191.7,108.1,191.8,106.8z M185.4,108.9c-2.9,0-5.2-0.9-5.2-2c0-1.1,2.3-2,5.2-2s5.2,0.9,5.2,2
											C190.6,108,188.3,108.9,185.4,108.9z"/>
										<path class="st20" d="M184.9,106.4l-2.5,0.7v0.5l2.5-0.8c0.3,0.2,0.6,0.4,1.1,0.5c0,0,0.1,0,0.1,0v0.4h0.9v-0.3
											c0.2,0,0.4,0,0.5,0v0.3h0.9v-1.3h-0.9v0.6c-0.2,0-0.3,0-0.5,0v-0.6h-0.9v0.4c-0.2-0.1-0.4-0.2-0.5-0.4L184.9,106.4z"/>
										<path class="st22" d="M190.6,106.7c0,1.1-2.3,2-5.2,2s-5.2-0.9-5.2-2c0-1.1,2.3-2,5.2-2S190.6,105.6,190.6,106.7
											 M191.8,106.7c0-1.4-2.9-2.5-6.4-2.5c-3.5,0-6.4,1.1-6.4,2.5c0,1.4,2.9,2.5,6.4,2.5C189,109.2,191.8,108.1,191.8,106.7
											L191.8,106.7z"/>
										<g>
											<path class="st22" d="M180.9,106.7c0-1,2-1.7,4.5-1.7c2.5,0,4.5,0.8,4.5,1.7c0,1-2,1.7-4.5,1.7
												C182.9,108.5,180.9,107.7,180.9,106.7z M189.7,106.7c0-0.9-1.9-1.7-4.3-1.7c-2.4,0-4.3,0.7-4.3,1.7
												c0,0.9,1.9,1.7,4.3,1.7C187.8,108.4,189.7,107.7,189.7,106.7z"/>
										</g>
										<path class="st22" d="M184.9,106.1l-2.5,0.7v0.5l2.5-0.8c0.3,0.2,0.6,0.4,1.1,0.5c0,0,0.1,0,0.1,0v0.4h0.9v-0.3
											c0.2,0,0.4,0,0.5,0v0.3h0.9v-1.3h-0.9v0.6c-0.2,0-0.3,0-0.5,0v-0.6h-0.9v0.5c-0.2-0.1-0.4-0.2-0.5-0.4L184.9,106.1z"/>
									</g>
								</g>
							</g>
						</g>
					</g>
					<g>
						<g>
							<g>
								<g>
									<path class="st19" d="M179,105.4c0,1.4,2.9,2.5,6.4,2.5c3.5,0,6.4-1.1,6.4-2.5v-1.2H179V105.4z"/>
									<g>
										<path class="st20" d="M184.8,104.9v3c0.2,0,0.4,0,0.6,0v-3H184.8z"/>
										<path class="st20" d="M183.6,104.9v2.9c0.3,0,0.7,0.1,1,0.1v-3H183.6z"/>
										<path class="st20" d="M183.3,107.8v-3.5H179v1.2C179,106.5,180.8,107.4,183.3,107.8z"/>
										<path class="st20" d="M187.7,104.9v2.9c0.1,0,0.1,0,0.2,0v-2.8H187.7z"/>
										<path class="st20" d="M186.9,107.8c0.1,0,0.1,0,0.2,0v-2.9h-0.2V107.8z"/>
										<path class="st20" d="M185.9,104.9v3c0.1,0,0.2,0,0.3,0v-3H185.9z"/>
									</g>
									<g>
										<path class="st19" d="M185.4,106.7c-3.5,0-6.4-1.1-6.4-2.5c0-1.4,2.9-2.5,6.4-2.5c3.5,0,6.4,1.1,6.4,2.5
											C191.8,105.6,189,106.7,185.4,106.7z"/>
										
											<linearGradient id="SVGID_00000061460314493530184070000002529155068966342020_" gradientUnits="userSpaceOnUse" x1="43.5461" y1="154.2529" x2="48.4498" y2="154.2529" gradientTransform="matrix(0 1 -1 0 338.2891 58.2881)">
											<stop  offset="0" style="stop-color:#FFFFFF"/>
											<stop  offset="1" style="stop-color:#E97A00"/>
										</linearGradient>
										<path style="opacity:0.4;fill:url(#SVGID_00000061460314493530184070000002529155068966342020_);" d="M189,106.3
											c-0.2,0-0.4,0-0.5,0c-3.5,0-6.4-1.1-6.4-2.5c0-0.8,1.1-1.6,2.8-2c-3.3,0.1-5.8,1.2-5.8,2.4c0,1.4,2.9,2.5,6.4,2.5
											C186.8,106.7,188,106.6,189,106.3z"/>
										<path class="st20" d="M191.8,104.4c-0.1-1.3-2.9-2.4-6.4-2.4c-3.5,0-6.3,1.1-6.4,2.4c0.1,1.3,2.9,2.4,6.4,2.4
											C188.9,106.7,191.7,105.7,191.8,104.4z M185.4,106.4c-2.9,0-5.2-0.9-5.2-2c0-1.1,2.3-2,5.2-2s5.2,0.9,5.2,2
											C190.6,105.5,188.3,106.4,185.4,106.4z"/>
										<path class="st20" d="M184.9,103.9l-2.5,0.7v0.5l2.5-0.8c0.3,0.2,0.6,0.4,1.1,0.5c0,0,0.1,0,0.1,0v0.4h0.9v-0.3
											c0.2,0,0.4,0,0.5,0v0.3h0.9V104h-0.9v0.6c-0.2,0-0.3,0-0.5,0V104h-0.9v0.4c-0.2-0.1-0.4-0.2-0.5-0.4L184.9,103.9z"/>
										<path class="st22" d="M190.6,104.3c0,1.1-2.3,2-5.2,2s-5.2-0.9-5.2-2c0-1.1,2.3-2,5.2-2S190.6,103.2,190.6,104.3
											 M191.8,104.3c0-1.4-2.9-2.5-6.4-2.5c-3.5,0-6.4,1.1-6.4,2.5c0,1.4,2.9,2.5,6.4,2.5C189,106.7,191.8,105.6,191.8,104.3
											L191.8,104.3z"/>
										<g>
											<path class="st22" d="M180.9,104.3c0-1,2-1.7,4.5-1.7c2.5,0,4.5,0.8,4.5,1.7c0,1-2,1.7-4.5,1.7
												C182.9,106,180.9,105.2,180.9,104.3z M189.7,104.3c0-0.9-1.9-1.7-4.3-1.7c-2.4,0-4.3,0.7-4.3,1.7c0,0.9,1.9,1.7,4.3,1.7
												C187.8,105.9,189.7,105.2,189.7,104.3z"/>
										</g>
										<path class="st22" d="M184.9,103.6l-2.5,0.7v0.5l2.5-0.8c0.3,0.2,0.6,0.4,1.1,0.5c0,0,0.1,0,0.1,0v0.4h0.9v-0.3
											c0.2,0,0.4,0,0.5,0v0.3h0.9v-1.3h-0.9v0.6c-0.2,0-0.3,0-0.5,0v-0.6h-0.9v0.5c-0.2-0.1-0.4-0.2-0.5-0.4L184.9,103.6z"/>
									</g>
								</g>
							</g>
						</g>
					</g>
					<g>
						<g>
							<g>
								<g>
									<path class="st19" d="M194.8,105.6c0,1.4,2.9,2.5,6.4,2.5c3.5,0,6.4-1.1,6.4-2.5v-1.2h-12.8V105.6z"/>
									<g>
										<path class="st20" d="M200.6,105.1v3c0.2,0,0.4,0,0.6,0v-3H200.6z"/>
										<path class="st20" d="M199.3,105.1v2.9c0.3,0,0.7,0.1,1,0.1v-3H199.3z"/>
										<path class="st20" d="M199.1,108v-3.5h-4.3v1.2C194.8,106.7,196.6,107.6,199.1,108z"/>
										<path class="st20" d="M203.4,105.1v2.9c0.1,0,0.1,0,0.2,0v-2.8H203.4z"/>
										<path class="st20" d="M202.6,108c0.1,0,0.1,0,0.2,0v-2.9h-0.2V108z"/>
										<path class="st20" d="M201.6,105.1v3c0.1,0,0.2,0,0.3,0v-3H201.6z"/>
									</g>
									<g>
										<path class="st19" d="M201.2,106.9c-3.5,0-6.4-1.1-6.4-2.5c0-1.4,2.9-2.5,6.4-2.5c3.5,0,6.4,1.1,6.4,2.5
											C207.5,105.8,204.7,106.9,201.2,106.9z"/>
										
											<linearGradient id="SVGID_00000055699252944023926880000018091077143224784005_" gradientUnits="userSpaceOnUse" x1="43.742" y1="138.5247" x2="48.6457" y2="138.5247" gradientTransform="matrix(0 1 -1 0 338.2891 58.2881)">
											<stop  offset="0" style="stop-color:#FFFFFF"/>
											<stop  offset="1" style="stop-color:#E97A00"/>
										</linearGradient>
										<path style="opacity:0.4;fill:url(#SVGID_00000055699252944023926880000018091077143224784005_);" d="M204.8,106.5
											c-0.2,0-0.4,0-0.5,0c-3.5,0-6.4-1.1-6.4-2.5c0-0.8,1.1-1.6,2.8-2c-3.3,0.1-5.8,1.2-5.8,2.4c0,1.4,2.9,2.5,6.4,2.5
											C202.5,106.9,203.7,106.8,204.8,106.5z"/>
										<path class="st20" d="M207.5,104.6c-0.1-1.3-2.9-2.4-6.4-2.4c-3.5,0-6.3,1.1-6.4,2.4c0.1,1.3,2.9,2.4,6.4,2.4
											C204.6,106.9,207.4,105.9,207.5,104.6z M201.2,106.6c-2.9,0-5.2-0.9-5.2-2c0-1.1,2.3-2,5.2-2s5.2,0.9,5.2,2
											C206.4,105.7,204,106.6,201.2,106.6z"/>
										<path class="st20" d="M200.6,104.1l-2.5,0.7v0.5l2.5-0.8c0.3,0.2,0.6,0.4,1.1,0.5c0,0,0.1,0,0.1,0v0.4h0.9v-0.3
											c0.2,0,0.4,0,0.5,0v0.3h0.9v-1.3h-0.9v0.6c-0.2,0-0.3,0-0.5,0v-0.6h-0.9v0.4c-0.2-0.1-0.4-0.2-0.5-0.4L200.6,104.1z"/>
										<path class="st22" d="M206.4,104.5c0,1.1-2.3,2-5.2,2s-5.2-0.9-5.2-2s2.3-2,5.2-2S206.4,103.4,206.4,104.5 M207.5,104.5
											c0-1.4-2.9-2.5-6.4-2.5c-3.5,0-6.4,1.1-6.4,2.5c0,1.4,2.9,2.5,6.4,2.5C204.7,106.9,207.5,105.8,207.5,104.5L207.5,104.5z"
											/>
										<g>
											<path class="st22" d="M196.6,104.5c0-1,2-1.7,4.5-1.7c2.5,0,4.5,0.8,4.5,1.7s-2,1.7-4.5,1.7
												C198.7,106.2,196.6,105.4,196.6,104.5z M205.5,104.5c0-0.9-1.9-1.7-4.3-1.7c-2.4,0-4.3,0.7-4.3,1.7
												c0,0.9,1.9,1.7,4.3,1.7C203.5,106.1,205.5,105.4,205.5,104.5z"/>
										</g>
										<path class="st22" d="M200.6,103.8l-2.5,0.7v0.5l2.5-0.8c0.3,0.2,0.6,0.4,1.1,0.5c0,0,0.1,0,0.1,0v0.4h0.9v-0.3
											c0.2,0,0.4,0,0.5,0v0.3h0.9v-1.3h-0.9v0.6c-0.2,0-0.3,0-0.5,0v-0.6h-0.9v0.4c-0.2-0.1-0.4-0.2-0.5-0.4L200.6,103.8z"/>
									</g>
								</g>
							</g>
						</g>
					</g>
					<g>
						<g>
							<g>
								<g>
									<path class="st19" d="M194.8,103.2c0,1.4,2.9,2.5,6.4,2.5c3.5,0,6.4-1.1,6.4-2.5V102h-12.8V103.2z"/>
									<g>
										<path class="st20" d="M200.6,102.6v3c0.2,0,0.4,0,0.6,0v-3H200.6z"/>
										<path class="st20" d="M199.3,102.6v2.9c0.3,0,0.7,0.1,1,0.1v-3H199.3z"/>
										<path class="st20" d="M199.1,105.5V102h-4.3v1.2C194.8,104.3,196.6,105.2,199.1,105.5z"/>
										<path class="st20" d="M203.4,102.6v2.9c0.1,0,0.1,0,0.2,0v-2.8H203.4z"/>
										<path class="st20" d="M202.6,105.6c0.1,0,0.1,0,0.2,0v-2.9h-0.2V105.6z"/>
										<path class="st20" d="M201.6,102.6v3c0.1,0,0.2,0,0.3,0v-3H201.6z"/>
									</g>
									<g>
										<path class="st19" d="M201.2,104.5c-3.5,0-6.4-1.1-6.4-2.5s2.9-2.5,6.4-2.5c3.5,0,6.4,1.1,6.4,2.5
											S204.7,104.5,201.2,104.5z"/>
										
											<linearGradient id="SVGID_00000066482466504398893610000002714835302991891111_" gradientUnits="userSpaceOnUse" x1="41.2854" y1="138.5247" x2="46.1889" y2="138.5247" gradientTransform="matrix(0 1 -1 0 338.2891 58.2881)">
											<stop  offset="0" style="stop-color:#FFFFFF"/>
											<stop  offset="1" style="stop-color:#E97A00"/>
										</linearGradient>
										<path style="opacity:0.4;fill:url(#SVGID_00000066482466504398893610000002714835302991891111_);" d="M204.8,104
											c-0.2,0-0.4,0-0.5,0c-3.5,0-6.4-1.1-6.4-2.5c0-0.8,1.1-1.6,2.8-2c-3.3,0.1-5.8,1.2-5.8,2.4c0,1.4,2.9,2.5,6.4,2.5
											C202.5,104.5,203.7,104.3,204.8,104z"/>
										<path class="st20" d="M207.5,102.1c-0.1-1.3-2.9-2.4-6.4-2.4c-3.5,0-6.3,1.1-6.4,2.4c0.1,1.3,2.9,2.4,6.4,2.4
											C204.6,104.5,207.4,103.4,207.5,102.1z M201.2,104.2c-2.9,0-5.2-0.9-5.2-2c0-1.1,2.3-2,5.2-2s5.2,0.9,5.2,2
											C206.4,103.3,204,104.2,201.2,104.2z"/>
										<path class="st20" d="M200.6,101.7l-2.5,0.7v0.5l2.5-0.8c0.3,0.2,0.6,0.4,1.1,0.5c0,0,0.1,0,0.1,0v0.4h0.9v-0.3
											c0.2,0,0.4,0,0.5,0v0.3h0.9v-1.3h-0.9v0.6c-0.2,0-0.3,0-0.5,0v-0.6h-0.9v0.4c-0.2-0.1-0.4-0.2-0.5-0.4L200.6,101.7z"/>
										<path class="st22" d="M206.4,102c0,1.1-2.3,2-5.2,2s-5.2-0.9-5.2-2c0-1.1,2.3-2,5.2-2S206.4,100.9,206.4,102 M207.5,102
											c0-1.4-2.9-2.5-6.4-2.5c-3.5,0-6.4,1.1-6.4,2.5s2.9,2.5,6.4,2.5C204.7,104.5,207.5,103.4,207.5,102L207.5,102z"/>
										<g>
											<path class="st22" d="M196.6,102c0-1,2-1.7,4.5-1.7c2.5,0,4.5,0.8,4.5,1.7c0,1-2,1.7-4.5,1.7
												C198.7,103.8,196.6,103,196.6,102z M205.5,102c0-0.9-1.9-1.7-4.3-1.7c-2.4,0-4.3,0.7-4.3,1.7c0,0.9,1.9,1.7,4.3,1.7
												C203.5,103.7,205.5,102.9,205.5,102z"/>
										</g>
										<path class="st22" d="M200.6,101.3l-2.5,0.7v0.5l2.5-0.8c0.3,0.2,0.6,0.4,1.1,0.5c0,0,0.1,0,0.1,0v0.4h0.9v-0.3
											c0.2,0,0.4,0,0.5,0v0.3h0.9v-1.3h-0.9v0.6c-0.2,0-0.3,0-0.5,0v-0.6h-0.9v0.5c-0.2-0.1-0.4-0.2-0.5-0.4L200.6,101.3z"/>
									</g>
								</g>
							</g>
						</g>
					</g>
					<g>
						<g>
							<g>
								<g>
									<path class="st19" d="M194.8,100.7c0,1.4,2.9,2.5,6.4,2.5c3.5,0,6.4-1.1,6.4-2.5v-1.2h-12.8V100.7z"/>
									<g>
										<path class="st20" d="M200.6,100.2v3c0.2,0,0.4,0,0.6,0v-3H200.6z"/>
										<path class="st20" d="M199.3,100.2v2.9c0.3,0,0.7,0.1,1,0.1v-3H199.3z"/>
										<path class="st20" d="M199.1,103v-3.5h-4.3v1.2C194.8,101.8,196.6,102.7,199.1,103z"/>
										<path class="st20" d="M203.4,100.2v2.9c0.1,0,0.1,0,0.2,0v-2.8H203.4z"/>
										<path class="st20" d="M202.6,103.1c0.1,0,0.1,0,0.2,0v-2.9h-0.2V103.1z"/>
										<path class="st20" d="M201.6,100.2v3c0.1,0,0.2,0,0.3,0v-3H201.6z"/>
									</g>
									<g>
										<path class="st19" d="M201.2,102c-3.5,0-6.4-1.1-6.4-2.5c0-1.4,2.9-2.5,6.4-2.5c3.5,0,6.4,1.1,6.4,2.5
											C207.5,100.9,204.7,102,201.2,102z"/>
										
											<linearGradient id="SVGID_00000137828151856520407570000004036937168216241574_" gradientUnits="userSpaceOnUse" x1="38.8286" y1="138.5247" x2="43.7323" y2="138.5247" gradientTransform="matrix(0 1 -1 0 338.2891 58.2881)">
											<stop  offset="0" style="stop-color:#FFFFFF"/>
											<stop  offset="1" style="stop-color:#E97A00"/>
										</linearGradient>
										<path style="opacity:0.4;fill:url(#SVGID_00000137828151856520407570000004036937168216241574_);" d="M204.8,101.6
											c-0.2,0-0.4,0-0.5,0c-3.5,0-6.4-1.1-6.4-2.5c0-0.8,1.1-1.6,2.8-2c-3.3,0.1-5.8,1.2-5.8,2.4c0,1.4,2.9,2.5,6.4,2.5
											C202.5,102,203.7,101.9,204.8,101.6z"/>
										<path class="st20" d="M207.5,99.6c-0.1-1.3-2.9-2.4-6.4-2.4c-3.5,0-6.3,1.1-6.4,2.4c0.1,1.3,2.9,2.4,6.4,2.4
											C204.6,102,207.4,101,207.5,99.6z M201.2,101.7c-2.9,0-5.2-0.9-5.2-2s2.3-2,5.2-2s5.2,0.9,5.2,2S204,101.7,201.2,101.7z"
											/>
										<path class="st20" d="M200.6,99.2l-2.5,0.7v0.5l2.5-0.8c0.3,0.2,0.6,0.4,1.1,0.5c0,0,0.1,0,0.1,0v0.4h0.9v-0.3
											c0.2,0,0.4,0,0.5,0v0.3h0.9v-1.3h-0.9v0.6c-0.2,0-0.3,0-0.5,0v-0.6h-0.9v0.4c-0.2-0.1-0.4-0.2-0.5-0.4L200.6,99.2z"/>
										<path class="st22" d="M206.4,99.6c0,1.1-2.3,2-5.2,2s-5.2-0.9-5.2-2c0-1.1,2.3-2,5.2-2S206.4,98.5,206.4,99.6 M207.5,99.6
											c0-1.4-2.9-2.5-6.4-2.5c-3.5,0-6.4,1.1-6.4,2.5c0,1.4,2.9,2.5,6.4,2.5C204.7,102,207.5,100.9,207.5,99.6L207.5,99.6z"/>
										<g>
											<path class="st22" d="M196.6,99.6c0-1,2-1.7,4.5-1.7c2.5,0,4.5,0.8,4.5,1.7c0,1-2,1.7-4.5,1.7
												C198.7,101.3,196.6,100.5,196.6,99.6z M205.5,99.6c0-0.9-1.9-1.7-4.3-1.7c-2.4,0-4.3,0.7-4.3,1.7c0,0.9,1.9,1.7,4.3,1.7
												C203.5,101.2,205.5,100.5,205.5,99.6z"/>
										</g>
										<path class="st22" d="M200.6,98.9l-2.5,0.7v0.5l2.5-0.8c0.3,0.2,0.6,0.4,1.1,0.5c0,0,0.1,0,0.1,0v0.4h0.9v-0.3
											c0.2,0,0.4,0,0.5,0v0.3h0.9v-1.3h-0.9v0.6c-0.2,0-0.3,0-0.5,0v-0.6h-0.9v0.5c-0.2-0.1-0.4-0.2-0.5-0.4L200.6,98.9z"/>
									</g>
								</g>
							</g>
						</g>
					</g>
					<g>
						<g>
							<g>
								<g>
									<path class="st19" d="M194.8,98.3c0,1.4,2.9,2.5,6.4,2.5c3.5,0,6.4-1.1,6.4-2.5v-1.2h-12.8V98.3z"/>
									<g>
										<path class="st20" d="M200.6,97.7v3c0.2,0,0.4,0,0.6,0v-3H200.6z"/>
										<path class="st20" d="M199.3,97.7v2.9c0.3,0,0.7,0.1,1,0.1v-3H199.3z"/>
										<path class="st20" d="M199.1,100.6v-3.5h-4.3v1.2C194.8,99.3,196.6,100.3,199.1,100.6z"/>
										<path class="st20" d="M203.4,97.7v2.9c0.1,0,0.1,0,0.2,0v-2.8H203.4z"/>
										<path class="st20" d="M202.6,100.7c0.1,0,0.1,0,0.2,0v-2.9h-0.2V100.7z"/>
										<path class="st20" d="M201.6,97.7v3c0.1,0,0.2,0,0.3,0v-3H201.6z"/>
									</g>
									<g>
										<path class="st19" d="M201.2,99.6c-3.5,0-6.4-1.1-6.4-2.5c0-1.4,2.9-2.5,6.4-2.5c3.5,0,6.4,1.1,6.4,2.5
											C207.5,98.5,204.7,99.6,201.2,99.6z"/>
										
											<linearGradient id="SVGID_00000034798192459104918740000015005203016986631356_" gradientUnits="userSpaceOnUse" x1="36.372" y1="138.5247" x2="41.2757" y2="138.5247" gradientTransform="matrix(0 1 -1 0 338.2891 58.2881)">
											<stop  offset="0" style="stop-color:#FFFFFF"/>
											<stop  offset="1" style="stop-color:#E97A00"/>
										</linearGradient>
										<path style="opacity:0.4;fill:url(#SVGID_00000034798192459104918740000015005203016986631356_);" d="M204.8,99.1
											c-0.2,0-0.4,0-0.5,0c-3.5,0-6.4-1.1-6.4-2.5c0-0.8,1.1-1.6,2.8-2c-3.3,0.1-5.8,1.2-5.8,2.4c0,1.4,2.9,2.5,6.4,2.5
											C202.5,99.6,203.7,99.4,204.8,99.1z"/>
										<path class="st20" d="M207.5,97.2c-0.1-1.3-2.9-2.4-6.4-2.4c-3.5,0-6.3,1.1-6.4,2.4c0.1,1.3,2.9,2.4,6.4,2.4
											C204.6,99.6,207.4,98.5,207.5,97.2z M201.2,99.3c-2.9,0-5.2-0.9-5.2-2c0-1.1,2.3-2,5.2-2s5.2,0.9,5.2,2
											C206.4,98.4,204,99.3,201.2,99.3z"/>
										<path class="st20" d="M200.6,96.8l-2.5,0.7V98l2.5-0.8c0.3,0.2,0.6,0.4,1.1,0.5c0,0,0.1,0,0.1,0v0.4h0.9v-0.3
											c0.2,0,0.4,0,0.5,0v0.3h0.9v-1.3h-0.9v0.6c-0.2,0-0.3,0-0.5,0v-0.6h-0.9v0.4c-0.2-0.1-0.4-0.2-0.5-0.4L200.6,96.8z"/>
										<path class="st22" d="M206.4,97.1c0,1.1-2.3,2-5.2,2s-5.2-0.9-5.2-2c0-1.1,2.3-2,5.2-2S206.4,96,206.4,97.1 M207.5,97.1
											c0-1.4-2.9-2.5-6.4-2.5c-3.5,0-6.4,1.1-6.4,2.5c0,1.4,2.9,2.5,6.4,2.5C204.7,99.6,207.5,98.5,207.5,97.1L207.5,97.1z"/>
										<g>
											<path class="st22" d="M196.6,97.1c0-1,2-1.7,4.5-1.7c2.5,0,4.5,0.8,4.5,1.7c0,1-2,1.7-4.5,1.7
												C198.7,98.8,196.6,98.1,196.6,97.1z M205.5,97.1c0-0.9-1.9-1.7-4.3-1.7c-2.4,0-4.3,0.7-4.3,1.7c0,0.9,1.9,1.7,4.3,1.7
												C203.5,98.8,205.5,98,205.5,97.1z"/>
										</g>
										<path class="st22" d="M200.6,96.4l-2.5,0.7v0.5l2.5-0.8c0.3,0.2,0.6,0.4,1.1,0.5c0,0,0.1,0,0.1,0v0.4h0.9v-0.3
											c0.2,0,0.4,0,0.5,0v0.3h0.9v-1.3h-0.9v0.6c-0.2,0-0.3,0-0.5,0v-0.6h-0.9v0.5c-0.2-0.1-0.4-0.2-0.5-0.4L200.6,96.4z"/>
									</g>
								</g>
							</g>
						</g>
					</g>
					<g>
						<g>
							<g>
								<g>
									<path class="st19" d="M194.8,95.8c0,1.4,2.9,2.5,6.4,2.5c3.5,0,6.4-1.1,6.4-2.5v-1.2h-12.8V95.8z"/>
									<g>
										<path class="st20" d="M200.6,95.2v3c0.2,0,0.4,0,0.6,0v-3H200.6z"/>
										<path class="st20" d="M199.3,95.2v2.9c0.3,0,0.7,0.1,1,0.1v-3H199.3z"/>
										<path class="st20" d="M199.1,98.1v-3.5h-4.3v1.2C194.8,96.9,196.6,97.8,199.1,98.1z"/>
										<path class="st20" d="M203.4,95.2v2.9c0.1,0,0.1,0,0.2,0v-2.8H203.4z"/>
										<path class="st20" d="M202.6,98.2c0.1,0,0.1,0,0.2,0v-2.9h-0.2V98.2z"/>
										<path class="st20" d="M201.6,95.2v3c0.1,0,0.2,0,0.3,0v-3H201.6z"/>
									</g>
									<g>
										<path class="st19" d="M201.2,97.1c-3.5,0-6.4-1.1-6.4-2.5c0-1.4,2.9-2.5,6.4-2.5c3.5,0,6.4,1.1,6.4,2.5
											C207.5,96,204.7,97.1,201.2,97.1z"/>
										
											<linearGradient id="SVGID_00000012454425390690547990000012433949104204258487_" gradientUnits="userSpaceOnUse" x1="33.9154" y1="138.5247" x2="38.8191" y2="138.5247" gradientTransform="matrix(0 1 -1 0 338.2891 58.2881)">
											<stop  offset="0" style="stop-color:#FFFFFF"/>
											<stop  offset="1" style="stop-color:#E97A00"/>
										</linearGradient>
										<path style="opacity:0.4;fill:url(#SVGID_00000012454425390690547990000012433949104204258487_);" d="M204.8,96.7
											c-0.2,0-0.4,0-0.5,0c-3.5,0-6.4-1.1-6.4-2.5c0-0.8,1.1-1.6,2.8-2c-3.3,0.1-5.8,1.2-5.8,2.4c0,1.4,2.9,2.5,6.4,2.5
											C202.5,97.1,203.7,96.9,204.8,96.7z"/>
										<path class="st20" d="M207.5,94.7c-0.1-1.3-2.9-2.4-6.4-2.4c-3.5,0-6.3,1.1-6.4,2.4c0.1,1.3,2.9,2.4,6.4,2.4
											C204.6,97.1,207.4,96,207.5,94.7z M201.2,96.8c-2.9,0-5.2-0.9-5.2-2c0-1.1,2.3-2,5.2-2s5.2,0.9,5.2,2
											C206.4,95.9,204,96.8,201.2,96.8z"/>
										<path class="st20" d="M200.6,94.3l-2.5,0.7v0.5l2.5-0.8c0.3,0.2,0.6,0.4,1.1,0.5c0,0,0.1,0,0.1,0v0.4h0.9v-0.3
											c0.2,0,0.4,0,0.5,0v0.3h0.9v-1.3h-0.9V95c-0.2,0-0.3,0-0.5,0v-0.6h-0.9v0.4c-0.2-0.1-0.4-0.2-0.5-0.4L200.6,94.3z"/>
										<path class="st22" d="M206.4,94.7c0,1.1-2.3,2-5.2,2s-5.2-0.9-5.2-2c0-1.1,2.3-2,5.2-2S206.4,93.5,206.4,94.7 M207.5,94.7
											c0-1.4-2.9-2.5-6.4-2.5c-3.5,0-6.4,1.1-6.4,2.5c0,1.4,2.9,2.5,6.4,2.5C204.7,97.1,207.5,96,207.5,94.7L207.5,94.7z"/>
										<g>
											<path class="st22" d="M196.6,94.7c0-1,2-1.7,4.5-1.7c2.5,0,4.5,0.8,4.5,1.7c0,1-2,1.7-4.5,1.7
												C198.7,96.4,196.6,95.6,196.6,94.7z M205.5,94.7c0-0.9-1.9-1.7-4.3-1.7c-2.4,0-4.3,0.7-4.3,1.7c0,0.9,1.9,1.7,4.3,1.7
												C203.5,96.3,205.5,95.6,205.5,94.7z"/>
										</g>
										<path class="st22" d="M200.6,94l-2.5,0.7v0.5l2.5-0.8c0.3,0.2,0.6,0.4,1.1,0.5c0,0,0.1,0,0.1,0v0.4h0.9V95
											c0.2,0,0.4,0,0.5,0v0.3h0.9V94h-0.9v0.6c-0.2,0-0.3,0-0.5,0V94h-0.9v0.5c-0.2-0.1-0.4-0.2-0.5-0.4L200.6,94z"/>
									</g>
								</g>
							</g>
						</g>
					</g>
					<g>
						<g>
							<g>
								<g>
									<path class="st19" d="M189,113.1c0,1.4,2.9,2.5,6.4,2.5c3.5,0,6.4-1.1,6.4-2.5v-1.2H189V113.1z"/>
									<g>
										<path class="st20" d="M194.8,112.5v3c0.2,0,0.4,0,0.6,0v-3H194.8z"/>
										<path class="st20" d="M193.5,112.5v2.9c0.3,0,0.7,0.1,1,0.1v-3H193.5z"/>
										<path class="st20" d="M193.3,115.4v-3.5H189v1.2C189,114.1,190.8,115,193.3,115.4z"/>
										<path class="st20" d="M197.7,112.5v2.9c0.1,0,0.1,0,0.2,0v-2.8H197.7z"/>
										<path class="st20" d="M196.9,115.5c0.1,0,0.1,0,0.2,0v-2.9h-0.2V115.5z"/>
										<path class="st20" d="M195.9,112.5v3c0.1,0,0.2,0,0.3,0v-3H195.9z"/>
									</g>
									<g>
										<path class="st19" d="M195.4,114.4c-3.5,0-6.4-1.1-6.4-2.5c0-1.4,2.9-2.5,6.4-2.5c3.5,0,6.4,1.1,6.4,2.5
											C201.8,113.3,198.9,114.4,195.4,114.4z"/>
										
											<linearGradient id="SVGID_00000104703159081445124970000013485876351781062046_" gradientUnits="userSpaceOnUse" x1="51.1661" y1="144.2983" x2="56.0698" y2="144.2983" gradientTransform="matrix(0 1 -1 0 338.2891 58.2881)">
											<stop  offset="0" style="stop-color:#FFFFFF"/>
											<stop  offset="1" style="stop-color:#E97A00"/>
										</linearGradient>
										<path style="opacity:0.4;fill:url(#SVGID_00000104703159081445124970000013485876351781062046_);" d="M199,113.9
											c-0.2,0-0.4,0-0.5,0c-3.5,0-6.4-1.1-6.4-2.5c0-0.8,1.1-1.6,2.8-2c-3.3,0.1-5.8,1.2-5.8,2.4c0,1.4,2.9,2.5,6.4,2.5
											C196.7,114.4,198,114.2,199,113.9z"/>
										<path class="st20" d="M201.8,112c-0.1-1.3-2.9-2.4-6.4-2.4c-3.5,0-6.3,1.1-6.4,2.4c0.1,1.3,2.9,2.4,6.4,2.4
											C198.8,114.4,201.7,113.3,201.8,112z M195.4,114.1c-2.9,0-5.2-0.9-5.2-2c0-1.1,2.3-2,5.2-2c2.9,0,5.2,0.9,5.2,2
											C200.6,113.2,198.3,114.1,195.4,114.1z"/>
										<path class="st20" d="M194.8,111.6l-2.5,0.7v0.5l2.5-0.8c0.3,0.2,0.6,0.4,1.1,0.5c0,0,0.1,0,0.1,0v0.4h0.9v-0.3
											c0.2,0,0.4,0,0.5,0v0.3h0.9v-1.3h-0.9v0.6c-0.2,0-0.3,0-0.5,0v-0.6h-0.9v0.4c-0.2-0.1-0.4-0.2-0.5-0.4L194.8,111.6z"/>
										<path class="st22" d="M200.6,111.9c0,1.1-2.3,2-5.2,2c-2.9,0-5.2-0.9-5.2-2c0-1.1,2.3-2,5.2-2
											C198.3,109.9,200.6,110.8,200.6,111.9 M201.8,111.9c0-1.4-2.9-2.5-6.4-2.5c-3.5,0-6.4,1.1-6.4,2.5c0,1.4,2.9,2.5,6.4,2.5
											C198.9,114.4,201.8,113.3,201.8,111.9L201.8,111.9z"/>
										<g>
											<path class="st22" d="M190.9,111.9c0-1,2-1.7,4.5-1.7c2.5,0,4.5,0.8,4.5,1.7c0,1-2,1.7-4.5,1.7
												C192.9,113.6,190.9,112.9,190.9,111.9z M199.7,111.9c0-0.9-1.9-1.7-4.3-1.7c-2.4,0-4.3,0.7-4.3,1.7
												c0,0.9,1.9,1.7,4.3,1.7C197.8,113.6,199.7,112.8,199.7,111.9z"/>
										</g>
										<path class="st22" d="M194.8,111.2l-2.5,0.7v0.5l2.5-0.8c0.3,0.2,0.6,0.4,1.1,0.5c0,0,0.1,0,0.1,0v0.4h0.9v-0.3
											c0.2,0,0.4,0,0.5,0v0.3h0.9v-1.3h-0.9v0.6c-0.2,0-0.3,0-0.5,0v-0.6h-0.9v0.4c-0.2-0.1-0.4-0.2-0.5-0.4L194.8,111.2z"/>
									</g>
								</g>
							</g>
						</g>
					</g>
					<g>
						<g>
							<g>
								<g>
									<path class="st19" d="M189,110.6c0,1.4,2.9,2.5,6.4,2.5c3.5,0,6.4-1.1,6.4-2.5v-1.2H189V110.6z"/>
									<g>
										<path class="st20" d="M194.8,110v3c0.2,0,0.4,0,0.6,0v-3H194.8z"/>
										<path class="st20" d="M193.5,110v2.9c0.3,0,0.7,0.1,1,0.1v-3H193.5z"/>
										<path class="st20" d="M193.3,112.9v-3.5H189v1.2C189,111.7,190.8,112.6,193.3,112.9z"/>
										<path class="st20" d="M197.7,110v2.9c0.1,0,0.1,0,0.2,0V110H197.7z"/>
										<path class="st20" d="M196.9,113c0.1,0,0.1,0,0.2,0V110h-0.2V113z"/>
										<path class="st20" d="M195.9,110v3c0.1,0,0.2,0,0.3,0v-3H195.9z"/>
									</g>
									<g>
										<path class="st19" d="M195.4,111.9c-3.5,0-6.4-1.1-6.4-2.5c0-1.4,2.9-2.5,6.4-2.5c3.5,0,6.4,1.1,6.4,2.5
											C201.8,110.8,198.9,111.9,195.4,111.9z"/>
										
											<linearGradient id="SVGID_00000066485020885163129610000003072824863354513818_" gradientUnits="userSpaceOnUse" x1="48.7095" y1="144.2983" x2="53.613" y2="144.2983" gradientTransform="matrix(0 1 -1 0 338.2891 58.2881)">
											<stop  offset="0" style="stop-color:#FFFFFF"/>
											<stop  offset="1" style="stop-color:#E97A00"/>
										</linearGradient>
										<path style="opacity:0.4;fill:url(#SVGID_00000066485020885163129610000003072824863354513818_);" d="M199,111.5
											c-0.2,0-0.4,0-0.5,0c-3.5,0-6.4-1.1-6.4-2.5c0-0.8,1.1-1.6,2.8-2c-3.3,0.1-5.8,1.2-5.8,2.4c0,1.4,2.9,2.5,6.4,2.5
											C196.7,111.9,198,111.7,199,111.5z"/>
										<path class="st20" d="M201.8,109.5c-0.1-1.3-2.9-2.4-6.4-2.4c-3.5,0-6.3,1.1-6.4,2.4c0.1,1.3,2.9,2.4,6.4,2.4
											C198.8,111.9,201.7,110.8,201.8,109.5z M195.4,111.6c-2.9,0-5.2-0.9-5.2-2c0-1.1,2.3-2,5.2-2c2.9,0,5.2,0.9,5.2,2
											C200.6,110.7,198.3,111.6,195.4,111.6z"/>
										<path class="st20" d="M194.8,109.1l-2.5,0.7v0.5l2.5-0.8c0.3,0.2,0.6,0.4,1.1,0.5c0,0,0.1,0,0.1,0v0.4h0.9v-0.3
											c0.2,0,0.4,0,0.5,0v0.3h0.9v-1.3h-0.9v0.6c-0.2,0-0.3,0-0.5,0v-0.6h-0.9v0.4c-0.2-0.1-0.4-0.2-0.5-0.4L194.8,109.1z"/>
										<path class="st22" d="M200.6,109.4c0,1.1-2.3,2-5.2,2c-2.9,0-5.2-0.9-5.2-2c0-1.1,2.3-2,5.2-2
											C198.3,107.4,200.6,108.3,200.6,109.4 M201.8,109.4c0-1.4-2.9-2.5-6.4-2.5c-3.5,0-6.4,1.1-6.4,2.5c0,1.4,2.9,2.5,6.4,2.5
											C198.9,111.9,201.8,110.8,201.8,109.4L201.8,109.4z"/>
										<g>
											<path class="st22" d="M190.9,109.4c0-1,2-1.7,4.5-1.7c2.5,0,4.5,0.8,4.5,1.7c0,1-2,1.7-4.5,1.7
												C192.9,111.2,190.9,110.4,190.9,109.4z M199.7,109.4c0-0.9-1.9-1.7-4.3-1.7c-2.4,0-4.3,0.7-4.3,1.7
												c0,0.9,1.9,1.7,4.3,1.7C197.8,111.1,199.7,110.4,199.7,109.4z"/>
										</g>
										<path class="st22" d="M194.8,108.8l-2.5,0.7v0.5l2.5-0.8c0.3,0.2,0.6,0.4,1.1,0.5c0,0,0.1,0,0.1,0v0.4h0.9v-0.3
											c0.2,0,0.4,0,0.5,0v0.3h0.9v-1.3h-0.9v0.6c-0.2,0-0.3,0-0.5,0v-0.6h-0.9v0.5c-0.2-0.1-0.4-0.2-0.5-0.4L194.8,108.8z"/>
									</g>
								</g>
							</g>
						</g>
					</g>
					<g>
						<g>
							<g>
								<g>
									<path class="st19" d="M189,108.1c0,1.4,2.9,2.5,6.4,2.5c3.5,0,6.4-1.1,6.4-2.5V107H189V108.1z"/>
									<g>
										<path class="st20" d="M194.8,107.6v3c0.2,0,0.4,0,0.6,0v-3H194.8z"/>
										<path class="st20" d="M193.5,107.6v2.9c0.3,0,0.7,0.1,1,0.1v-3H193.5z"/>
										<path class="st20" d="M193.3,110.5V107H189v1.2C189,109.2,190.8,110.1,193.3,110.5z"/>
										<path class="st20" d="M197.7,107.6v2.9c0.1,0,0.1,0,0.2,0v-2.8H197.7z"/>
										<path class="st20" d="M196.9,110.5c0.1,0,0.1,0,0.2,0v-2.9h-0.2V110.5z"/>
										<path class="st20" d="M195.9,107.6v3c0.1,0,0.2,0,0.3,0v-3H195.9z"/>
									</g>
									<g>
										<path class="st19" d="M195.4,109.4c-3.5,0-6.4-1.1-6.4-2.5s2.9-2.5,6.4-2.5c3.5,0,6.4,1.1,6.4,2.5
											S198.9,109.4,195.4,109.4z"/>
										
											<linearGradient id="SVGID_00000002374630654039745670000013983154160890982552_" gradientUnits="userSpaceOnUse" x1="46.2527" y1="144.2983" x2="51.1564" y2="144.2983" gradientTransform="matrix(0 1 -1 0 338.2891 58.2881)">
											<stop  offset="0" style="stop-color:#FFFFFF"/>
											<stop  offset="1" style="stop-color:#E97A00"/>
										</linearGradient>
										<path style="opacity:0.4;fill:url(#SVGID_00000002374630654039745670000013983154160890982552_);" d="M199,109
											c-0.2,0-0.4,0-0.5,0c-3.5,0-6.4-1.1-6.4-2.5c0-0.8,1.1-1.6,2.8-2c-3.3,0.1-5.8,1.2-5.8,2.4c0,1.4,2.9,2.5,6.4,2.5
											C196.7,109.4,198,109.3,199,109z"/>
										<path class="st20" d="M201.8,107.1c-0.1-1.3-2.9-2.4-6.4-2.4c-3.5,0-6.3,1.1-6.4,2.4c0.1,1.3,2.9,2.4,6.4,2.4
											C198.8,109.4,201.7,108.4,201.8,107.1z M195.4,109.1c-2.9,0-5.2-0.9-5.2-2s2.3-2,5.2-2c2.9,0,5.2,0.9,5.2,2
											S198.3,109.1,195.4,109.1z"/>
										<path class="st20" d="M194.8,106.6l-2.5,0.7v0.5l2.5-0.8c0.3,0.2,0.6,0.4,1.1,0.5c0,0,0.1,0,0.1,0v0.4h0.9v-0.3
											c0.2,0,0.4,0,0.5,0v0.3h0.9v-1.3h-0.9v0.6c-0.2,0-0.3,0-0.5,0v-0.6h-0.9v0.4c-0.2-0.1-0.4-0.2-0.5-0.4L194.8,106.6z"/>
										<path class="st22" d="M200.6,107c0,1.1-2.3,2-5.2,2c-2.9,0-5.2-0.9-5.2-2c0-1.1,2.3-2,5.2-2
											C198.3,105,200.6,105.9,200.6,107 M201.8,107c0-1.4-2.9-2.5-6.4-2.5c-3.5,0-6.4,1.1-6.4,2.5s2.9,2.5,6.4,2.5
											C198.9,109.4,201.8,108.3,201.8,107L201.8,107z"/>
										<g>
											<path class="st22" d="M190.9,107c0-1,2-1.7,4.5-1.7c2.5,0,4.5,0.8,4.5,1.7c0,1-2,1.7-4.5,1.7
												C192.9,108.7,190.9,107.9,190.9,107z M199.7,107c0-0.9-1.9-1.7-4.3-1.7c-2.4,0-4.3,0.7-4.3,1.7c0,0.9,1.9,1.7,4.3,1.7
												C197.8,108.6,199.7,107.9,199.7,107z"/>
										</g>
										<path class="st22" d="M194.8,106.3l-2.5,0.7v0.5l2.5-0.8c0.3,0.2,0.6,0.4,1.1,0.5c0,0,0.1,0,0.1,0v0.4h0.9v-0.3
											c0.2,0,0.4,0,0.5,0v0.3h0.9v-1.3h-0.9v0.6c-0.2,0-0.3,0-0.5,0v-0.6h-0.9v0.5c-0.2-0.1-0.4-0.2-0.5-0.4L194.8,106.3z"/>
									</g>
								</g>
							</g>
						</g>
					</g>
					<g>
						<g>
							<g>
								<g>
									<path class="st19" d="M189,105.7c0,1.4,2.9,2.5,6.4,2.5c3.5,0,6.4-1.1,6.4-2.5v-1.2H189V105.7z"/>
									<g>
										<path class="st20" d="M194.8,105.1v3c0.2,0,0.4,0,0.6,0v-3H194.8z"/>
										<path class="st20" d="M193.5,105.1v2.9c0.3,0,0.7,0.1,1,0.1v-3H193.5z"/>
										<path class="st20" d="M193.3,108v-3.5H189v1.2C189,106.8,190.8,107.7,193.3,108z"/>
										<path class="st20" d="M197.7,105.1v2.9c0.1,0,0.1,0,0.2,0v-2.8H197.7z"/>
										<path class="st20" d="M196.9,108.1c0.1,0,0.1,0,0.2,0v-2.9h-0.2V108.1z"/>
										<path class="st20" d="M195.9,105.1v3c0.1,0,0.2,0,0.3,0v-3H195.9z"/>
									</g>
									<g>
										<path class="st19" d="M195.4,107c-3.5,0-6.4-1.1-6.4-2.5c0-1.4,2.9-2.5,6.4-2.5c3.5,0,6.4,1.1,6.4,2.5
											C201.8,105.9,198.9,107,195.4,107z"/>
										
											<linearGradient id="SVGID_00000181782034769693982000000010451460155198366610_" gradientUnits="userSpaceOnUse" x1="43.7961" y1="144.2983" x2="48.6998" y2="144.2983" gradientTransform="matrix(0 1 -1 0 338.2891 58.2881)">
											<stop  offset="0" style="stop-color:#FFFFFF"/>
											<stop  offset="1" style="stop-color:#E97A00"/>
										</linearGradient>
										<path style="opacity:0.4;fill:url(#SVGID_00000181782034769693982000000010451460155198366610_);" d="M199,106.6
											c-0.2,0-0.4,0-0.5,0c-3.5,0-6.4-1.1-6.4-2.5c0-0.8,1.1-1.6,2.8-2c-3.3,0.1-5.8,1.2-5.8,2.4c0,1.4,2.9,2.5,6.4,2.5
											C196.7,107,198,106.8,199,106.6z"/>
										<path class="st20" d="M201.8,104.6c-0.1-1.3-2.9-2.4-6.4-2.4c-3.5,0-6.3,1.1-6.4,2.4c0.1,1.3,2.9,2.4,6.4,2.4
											C198.8,107,201.7,105.9,201.8,104.6z M195.4,106.7c-2.9,0-5.2-0.9-5.2-2c0-1.1,2.3-2,5.2-2c2.9,0,5.2,0.9,5.2,2
											C200.6,105.8,198.3,106.7,195.4,106.7z"/>
										<path class="st20" d="M194.8,104.2l-2.5,0.7v0.5l2.5-0.8c0.3,0.2,0.6,0.4,1.1,0.5c0,0,0.1,0,0.1,0v0.4h0.9v-0.3
											c0.2,0,0.4,0,0.5,0v0.3h0.9v-1.3h-0.9v0.6c-0.2,0-0.3,0-0.5,0v-0.6h-0.9v0.4c-0.2-0.1-0.4-0.2-0.5-0.4L194.8,104.2z"/>
										<path class="st22" d="M200.6,104.5c0,1.1-2.3,2-5.2,2c-2.9,0-5.2-0.9-5.2-2c0-1.1,2.3-2,5.2-2
											C198.3,102.5,200.6,103.4,200.6,104.5 M201.8,104.5c0-1.4-2.9-2.5-6.4-2.5c-3.5,0-6.4,1.1-6.4,2.5c0,1.4,2.9,2.5,6.4,2.5
											C198.9,107,201.8,105.9,201.8,104.5L201.8,104.5z"/>
										<g>
											<path class="st22" d="M190.9,104.5c0-1,2-1.7,4.5-1.7c2.5,0,4.5,0.8,4.5,1.7c0,1-2,1.7-4.5,1.7
												C192.9,106.3,190.9,105.5,190.9,104.5z M199.7,104.5c0-0.9-1.9-1.7-4.3-1.7c-2.4,0-4.3,0.7-4.3,1.7
												c0,0.9,1.9,1.7,4.3,1.7C197.8,106.2,199.7,105.4,199.7,104.5z"/>
										</g>
										<path class="st22" d="M194.8,103.9l-2.5,0.7v0.5l2.5-0.8c0.3,0.2,0.6,0.4,1.1,0.5c0,0,0.1,0,0.1,0v0.4h0.9v-0.3
											c0.2,0,0.4,0,0.5,0v0.3h0.9v-1.3h-0.9v0.6c-0.2,0-0.3,0-0.5,0v-0.6h-0.9v0.5c-0.2-0.1-0.4-0.2-0.5-0.4L194.8,103.9z"/>
									</g>
								</g>
							</g>
						</g>
					</g>
					<g>
						<g>
							<g>
								<g>
									<path class="st19" d="M189,103.2c0,1.4,2.9,2.5,6.4,2.5c3.5,0,6.4-1.1,6.4-2.5v-1.2H189V103.2z"/>
									<g>
										<path class="st20" d="M194.8,102.7v3c0.2,0,0.4,0,0.6,0v-3H194.8z"/>
										<path class="st20" d="M193.5,102.7v2.9c0.3,0,0.7,0.1,1,0.1v-3H193.5z"/>
										<path class="st20" d="M193.3,105.6v-3.5H189v1.2C189,104.3,190.8,105.2,193.3,105.6z"/>
										<path class="st20" d="M197.7,102.7v2.9c0.1,0,0.1,0,0.2,0v-2.8H197.7z"/>
										<path class="st20" d="M196.9,105.6c0.1,0,0.1,0,0.2,0v-2.9h-0.2V105.6z"/>
										<path class="st20" d="M195.9,102.7v3c0.1,0,0.2,0,0.3,0v-3H195.9z"/>
									</g>
									<g>
										<path class="st19" d="M195.4,104.5c-3.5,0-6.4-1.1-6.4-2.5s2.9-2.5,6.4-2.5c3.5,0,6.4,1.1,6.4,2.5
											S198.9,104.5,195.4,104.5z"/>
										
											<linearGradient id="SVGID_00000180347311250757820680000004880418780450112652_" gradientUnits="userSpaceOnUse" x1="41.3395" y1="144.2983" x2="46.2432" y2="144.2983" gradientTransform="matrix(0 1 -1 0 338.2891 58.2881)">
											<stop  offset="0" style="stop-color:#FFFFFF"/>
											<stop  offset="1" style="stop-color:#E97A00"/>
										</linearGradient>
										<path style="opacity:0.4;fill:url(#SVGID_00000180347311250757820680000004880418780450112652_);" d="M199,104.1
											c-0.2,0-0.4,0-0.5,0c-3.5,0-6.4-1.1-6.4-2.5c0-0.8,1.1-1.6,2.8-2c-3.3,0.1-5.8,1.2-5.8,2.4c0,1.4,2.9,2.5,6.4,2.5
											C196.7,104.5,198,104.4,199,104.1z"/>
										<path class="st20" d="M201.8,102.2c-0.1-1.3-2.9-2.4-6.4-2.4c-3.5,0-6.3,1.1-6.4,2.4c0.1,1.3,2.9,2.4,6.4,2.4
											C198.8,104.5,201.7,103.5,201.8,102.2z M195.4,104.2c-2.9,0-5.2-0.9-5.2-2c0-1.1,2.3-2,5.2-2c2.9,0,5.2,0.9,5.2,2
											C200.6,103.3,198.3,104.2,195.4,104.2z"/>
										<path class="st20" d="M194.8,101.7l-2.5,0.7v0.5l2.5-0.8c0.3,0.2,0.6,0.4,1.1,0.5c0,0,0.1,0,0.1,0v0.4h0.9v-0.3
											c0.2,0,0.4,0,0.5,0v0.3h0.9v-1.3h-0.9v0.6c-0.2,0-0.3,0-0.5,0v-0.6h-0.9v0.4c-0.2-0.1-0.4-0.2-0.5-0.4L194.8,101.7z"/>
										<path class="st22" d="M200.6,102.1c0,1.1-2.3,2-5.2,2c-2.9,0-5.2-0.9-5.2-2c0-1.1,2.3-2,5.2-2
											C198.3,100.1,200.6,101,200.6,102.1 M201.8,102.1c0-1.4-2.9-2.5-6.4-2.5c-3.5,0-6.4,1.1-6.4,2.5s2.9,2.5,6.4,2.5
											C198.9,104.5,201.8,103.4,201.8,102.1L201.8,102.1z"/>
										<g>
											<path class="st22" d="M190.9,102.1c0-1,2-1.7,4.5-1.7c2.5,0,4.5,0.8,4.5,1.7c0,1-2,1.7-4.5,1.7
												C192.9,103.8,190.9,103,190.9,102.1z M199.7,102.1c0-0.9-1.9-1.7-4.3-1.7c-2.4,0-4.3,0.7-4.3,1.7c0,0.9,1.9,1.7,4.3,1.7
												C197.8,103.7,199.7,103,199.7,102.1z"/>
										</g>
										<path class="st22" d="M194.8,101.4l-2.5,0.7v0.5l2.5-0.8c0.3,0.2,0.6,0.4,1.1,0.5c0,0,0.1,0,0.1,0v0.4h0.9v-0.3
											c0.2,0,0.4,0,0.5,0v0.3h0.9v-1.3h-0.9v0.6c-0.2,0-0.3,0-0.5,0v-0.6h-0.9v0.5c-0.2-0.1-0.4-0.2-0.5-0.4L194.8,101.4z"/>
									</g>
								</g>
							</g>
						</g>
					</g>
					<path class="st16" d="M182.1,102.7c-1-0.2-2.1,1-3,3.1c0,0,0,0,0,0c0,0,0,0.1,0,0.1c0,0,0,0,0,0c0,0,0,0.1,0.1,0.1c0,0,0,0,0,0
						c0,0,0,0.1,0.1,0.1c0,0,0,0,0,0c0,0,0,0,0,0c0,0,0,0,0,0c0,0,0,0,0,0.1c0,0,0,0,0,0.1c0,0,0,0,0,0.1c0,0,0,0,0,0.1
						c0,0,0,0,0,0.1c0,0,0,0,0,0c0,0,0,0.1,0,0.1c0,0,0,0,0,0c0,0,0,0.1,0,0.1v0v1.2c0,0,0,0.1,0,0.1c0,0,0,0,0,0c0,0,0,0.1,0,0.1
						c0,0,0,0,0,0c0,0,0,0.1,0,0.1c0,0,0,0,0,0c0,0,0,0.1,0.1,0.1c0,0,0,0,0,0c0,0,0,0.1,0.1,0.1c0,0,0,0,0,0c0,0,0,0,0,0
						c0,0,0,0,0,0c0,0,0,0,0,0.1c0,0,0,0,0,0.1c0,0,0,0,0,0.1c0,0,0,0,0,0.1c0,0,0,0,0,0.1c0,0,0,0,0,0c0,0,0,0.1,0,0.1c0,0,0,0,0,0
						c0,0,0,0.1,0,0.1v0v1.2c0,0,0,0.1,0,0.1c0,0,0,0,0,0c0,0,0,0.1,0,0.1c0,0,0,0,0,0c0,0,0,0.1,0,0.1c0,0,0,0,0,0
						c0,0,0,0.1,0.1,0.1c0,0,0,0,0,0c0,0,0,0.1,0.1,0.1c0,0,0,0,0,0c0,0,0,0,0.1,0.1c0,0,0,0,0,0c0,0,0,0,0.1,0.1c0,0,0,0,0,0
						c0,0,0.1,0.1,0.1,0.1c0,0,0,0,0,0c0,0,0,0,0.1,0.1c0,0,0,0,0.1,0c0,0,0,0,0.1,0.1c0,0,0,0,0.1,0c0,0,0,0,0.1,0.1c0,0,0,0,0.1,0
						c0,0,0.1,0.1,0.1,0.1c0,0,0.1,0,0.1,0c0,0,0,0,0.1,0c0,0,0.1,0,0.1,0c0,0,0,0,0.1,0c0,0,0.1,0,0.1,0.1c0,0,0,0,0.1,0
						c0.1,0.1,0.3,0.1,0.4,0.2c0,0,0,0,0,0c0,0,0.1,0,0.1,0.1c0,0,0,0,0,0c0.2,0.1,0.4,0.1,0.7,0.2c0.4-0.9,0.8-1.9,1.1-3
						C183.8,106,183.4,103,182.1,102.7z"/>
					<g>
						<g>
							<g>
								<g>
									<path class="st19" d="M177,113.8c1.3,0.5,3.3-1.8,4.6-5c1.3-3.3,1.3-6.3,0.1-6.8l-1.1-0.4l-4.7,11.9L177,113.8z"/>
									<g>
										<path class="st20" d="M178.6,108.2l2.8,1.1c0.1-0.2,0.2-0.4,0.2-0.6l-2.8-1.1L178.6,108.2z"/>
										<path class="st20" d="M178.2,109.4l2.7,1.1c0.2-0.3,0.3-0.6,0.5-0.9l-2.8-1.1L178.2,109.4z"/>
										<path class="st20" d="M180.7,110.7l-3.2-1.3l-1.6,4l1.1,0.4C178,114.2,179.5,112.9,180.7,110.7z"/>
										<path class="st20" d="M179.7,105.5l2.7,1.1c0-0.1,0-0.1,0-0.2l-2.6-1L179.7,105.5z"/>
										<path class="st20" d="M182.1,107.4c0-0.1,0-0.1,0.1-0.2l-2.7-1.1l-0.1,0.2L182.1,107.4z"/>
										<path class="st20" d="M179,107.2l2.8,1.1c0-0.1,0.1-0.2,0.1-0.3l-2.8-1.1L179,107.2z"/>
									</g>
									<g>
										<path class="st19" d="M180.6,108.4c-1.3,3.3-3.4,5.5-4.6,5c-1.3-0.5-1.2-3.6,0.1-6.8c1.3-3.3,3.4-5.5,4.6-5
											C181.9,102,181.9,105.1,180.6,108.4z"/>
										
											<linearGradient id="SVGID_00000026871957402782391500000009434667063904970165_" gradientUnits="userSpaceOnUse" x1="269.1653" y1="244.0738" x2="274.0689" y2="244.0738" gradientTransform="matrix(0.9297 0.3684 -0.3684 0.9297 15.1683 -218.2356)">
											<stop  offset="0" style="stop-color:#FFFFFF"/>
											<stop  offset="1" style="stop-color:#E97A00"/>
										</linearGradient>
										<path style="opacity:0.4;fill:url(#SVGID_00000026871957402782391500000009434667063904970165_);" d="M181.5,104.8
											c-0.1,0.2-0.1,0.3-0.2,0.5c-1.3,3.3-3.4,5.5-4.6,5c-0.8-0.3-1.1-1.6-0.9-3.3c-1.1,3.1-1.1,5.9,0.1,6.3
											c1.3,0.5,3.3-1.8,4.6-5C181.1,107.1,181.4,105.9,181.5,104.8z"/>
										<path class="st20" d="M180.7,101.5c-1.3-0.4-3.3,1.8-4.6,5.1c-1.3,3.2-1.3,6.2-0.1,6.8c1.3,0.4,3.3-1.8,4.6-5.1
											C181.8,105.1,181.9,102.1,180.7,101.5z M180.3,108.2c-1.1,2.7-2.7,4.5-3.8,4.1c-1-0.4-1-2.9,0.1-5.6
											c1.1-2.7,2.7-4.5,3.8-4.1C181.4,103.1,181.3,105.6,180.3,108.2z"/>
										<path class="st20" d="M177.8,107.9l-0.3,2.6l0.5,0.2l0.2-2.6c0.3-0.2,0.6-0.4,0.8-0.8c0,0,0-0.1,0.1-0.1l0.4,0.2l0.3-0.9
											l-0.3-0.1c0.1-0.2,0.2-0.4,0.2-0.5l0.3,0.1l0.3-0.9l-1.2-0.5l-0.3,0.9l0.6,0.2c-0.1,0.1-0.1,0.3-0.2,0.5l-0.6-0.2
											l-0.3,0.9l0.4,0.2c-0.2,0.2-0.3,0.3-0.5,0.4L177.8,107.9z"/>
										<path class="st22" d="M180.2,102.6c1,0.4,1,2.9-0.1,5.6c-1.1,2.7-2.7,4.5-3.8,4.1c-1-0.4-1-2.9,0.1-5.6
											C177.5,104,179.2,102.2,180.2,102.6 M180.6,101.5c-1.3-0.5-3.3,1.8-4.6,5c-1.3,3.3-1.3,6.3-0.1,6.8c1.3,0.5,3.3-1.8,4.6-5
											C181.9,105.1,181.9,102,180.6,101.5L180.6,101.5z"/>
										<g>
											<path class="st22" d="M176.6,111.6c-0.9-0.4-0.9-2.5,0-4.8c0.9-2.3,2.4-3.9,3.3-3.6c0.9,0.4,0.9,2.5,0,4.8
												C179,110.4,177.5,112,176.6,111.6z M179.9,103.4c-0.9-0.3-2.3,1.2-3.1,3.4c-0.9,2.2-0.9,4.3,0,4.6
												c0.9,0.3,2.3-1.2,3.1-3.4C180.7,105.8,180.7,103.8,179.9,103.4z"/>
										</g>
										<path class="st22" d="M177.4,107.7l-0.2,2.6l0.5,0.2l0.2-2.6c0.3-0.2,0.6-0.4,0.8-0.8c0,0,0-0.1,0.1-0.1l0.4,0.2l0.3-0.9
											l-0.3-0.1c0.1-0.2,0.2-0.4,0.2-0.5l0.3,0.1l0.3-0.9l-1.2-0.5l-0.3,0.9l0.6,0.2c-0.1,0.1-0.1,0.3-0.2,0.5l-0.6-0.2
											l-0.3,0.9l0.4,0.2c-0.2,0.2-0.3,0.3-0.5,0.4L177.4,107.7z"/>
									</g>
								</g>
							</g>
						</g>
					</g>
					<path class="st16" d="M197.9,115.3c2.3-0.4,3.9-1.2,3.9-2.3v-1.2c0-0.2-0.1-0.4-0.2-0.6c0.1-0.2,0.2-0.4,0.2-0.6v-1.2
						c0-0.2-0.1-0.4-0.2-0.6c0.1-0.2,0.2-0.4,0.2-0.6V107c0-0.2-0.1-0.4-0.2-0.6c0.1-0.2,0.2-0.4,0.2-0.6v0
						c-1.3-0.5-3.8,1.5-5.6,4.6c-1.2,1.9-1.8,3.8-1.9,5.2c0.1,0,0.2,0,0.4,0c0,0,0,0,0,0c0.3,0,0.5,0,0.8,0c0.3,0,0.5,0,0.8,0
						c0,0,0,0,0,0c0.6,0,1.1-0.1,1.6-0.2C197.8,115.3,197.8,115.3,197.9,115.3z"/>
					<g>
						<g>
							<g>
								<g>
									<path class="st19" d="M205.2,117.6c-1.3,0.5-3.3-1.8-4.6-5c-1.3-3.3-1.3-6.3-0.1-6.8l1.1-0.4l4.7,11.9L205.2,117.6z"/>
									<g>
										<path class="st20" d="M203.6,112l-2.8,1.1c-0.1-0.2-0.2-0.4-0.2-0.6l2.8-1.1L203.6,112z"/>
										<path class="st20" d="M204.1,113.2l-2.7,1.1c-0.2-0.3-0.3-0.6-0.5-0.9l2.8-1.1L204.1,113.2z"/>
										<path class="st20" d="M201.5,114.5l3.2-1.3l1.6,4l-1.1,0.4C204.2,118,202.7,116.7,201.5,114.5z"/>
										<path class="st20" d="M202.6,109.4l-2.7,1.1c0-0.1,0-0.1,0-0.2l2.6-1L202.6,109.4z"/>
										<path class="st20" d="M200.1,111.2c0-0.1,0-0.1-0.1-0.2l2.7-1.1l0.1,0.2L200.1,111.2z"/>
										<path class="st20" d="M203.2,111l-2.8,1.1c0-0.1-0.1-0.2-0.1-0.3l2.8-1.1L203.2,111z"/>
									</g>
									<g>
										<path class="st19" d="M201.7,112.2c1.3,3.3,3.4,5.5,4.6,5c1.3-0.5,1.2-3.6-0.1-6.8c-1.3-3.3-3.4-5.5-4.6-5
											C200.4,105.8,200.4,108.9,201.7,112.2z"/>
										
											<linearGradient id="SVGID_00000057105949268874304900000015196388737118113165_" gradientUnits="userSpaceOnUse" x1="450.7203" y1="176.2338" x2="455.6239" y2="176.2338" gradientTransform="matrix(-0.9297 0.3684 0.3684 0.9297 560.8725 -218.2356)">
											<stop  offset="0" style="stop-color:#FFFFFF"/>
											<stop  offset="1" style="stop-color:#E97A00"/>
										</linearGradient>
										<path style="opacity:0.4;fill:url(#SVGID_00000057105949268874304900000015196388737118113165_);" d="M200.8,108.7
											c0.1,0.2,0.1,0.3,0.2,0.5c1.3,3.3,3.4,5.5,4.6,5c0.8-0.3,1.1-1.6,0.9-3.3c1.1,3.1,1.1,5.9-0.1,6.3c-1.3,0.5-3.3-1.8-4.6-5
											C201.2,110.9,200.9,109.7,200.8,108.7z"/>
										<path class="st20" d="M201.7,112.2c1.3,3.2,3.3,5.4,4.6,5.1c1.2-0.6,1.1-3.6-0.1-6.8c-1.3-3.2-3.3-5.4-4.6-5.1
											C200.4,105.9,200.4,108.9,201.7,112.2z M201.9,106.5c1-0.4,2.7,1.4,3.8,4.1c1.1,2.7,1.1,5.2,0.1,5.6
											c-1,0.4-2.7-1.4-3.8-4.1C200.9,109.4,200.9,106.9,201.9,106.5z"/>
										<path class="st20" d="M204.5,111.7l0.3,2.6l-0.5,0.2l-0.2-2.6c-0.3-0.2-0.6-0.4-0.8-0.8c0,0,0-0.1-0.1-0.1l-0.4,0.2
											l-0.3-0.9l0.3-0.1c-0.1-0.2-0.2-0.4-0.2-0.5l-0.3,0.1l-0.3-0.9l1.2-0.5l0.3,0.9l-0.6,0.2c0.1,0.1,0.1,0.3,0.2,0.5l0.6-0.2
											l0.3,0.9l-0.4,0.2c0.2,0.2,0.3,0.3,0.5,0.4L204.5,111.7z"/>
										<path class="st22" d="M202.1,106.4c1-0.4,2.7,1.4,3.8,4.1c1.1,2.7,1.1,5.2,0.1,5.6c-1,0.4-2.7-1.4-3.8-4.1
											C201.1,109.3,201,106.8,202.1,106.4 M201.6,105.3c-1.3,0.5-1.2,3.6,0.1,6.8c1.3,3.3,3.4,5.5,4.6,5
											c1.3-0.5,1.2-3.6-0.1-6.8C205,107.1,202.9,104.8,201.6,105.3L201.6,105.3z"/>
										<g>
											<path class="st22" d="M202.4,111.9c-0.9-2.3-0.9-4.5,0-4.8c0.9-0.4,2.4,1.2,3.3,3.6c0.9,2.3,0.9,4.5,0,4.8
												C204.7,115.8,203.3,114.2,202.4,111.9z M202.4,111.9c0.9,2.2,2.3,3.7,3.1,3.4c0.9-0.3,0.8-2.4,0-4.6
												c-0.9-2.2-2.3-3.7-3.1-3.4C201.5,107.6,201.6,109.7,202.4,111.9z"/>
										</g>
										<path class="st22" d="M204.8,111.6l0.2,2.6l-0.5,0.2l-0.2-2.6c-0.3-0.2-0.6-0.4-0.8-0.8c0,0,0-0.1-0.1-0.1l-0.4,0.2
											l-0.3-0.9l0.3-0.1c-0.1-0.2-0.2-0.4-0.2-0.5l-0.3,0.1l-0.3-0.9l1.2-0.5l0.3,0.9l-0.6,0.2c0.1,0.1,0.1,0.3,0.2,0.5l0.6-0.2
											l0.3,0.9l-0.4,0.2c0.2,0.2,0.3,0.3,0.5,0.4L204.8,111.6z"/>
									</g>
								</g>
							</g>
						</g>
					</g>
				</g>
				<polygon class="st2" points="181.6,104.2 181.3,103.5 181.1,104.2 180.4,104.5 181.1,104.7 181.3,105.4 181.6,104.7 
					182.2,104.5 				"/>
				<polygon class="st2" points="200.3,103.5 200.1,102.8 199.8,103.5 199.1,103.8 199.8,104 200.1,104.7 200.3,104 201,103.8 				
					"/>
				<polygon class="st2" points="206.5,96.1 206.2,95.5 206,96.1 205.3,96.4 206,96.7 206.2,97.3 206.5,96.7 207.1,96.4 				"/>
				<polygon class="st2" points="190.7,108.3 190.5,107.6 190.2,108.3 189.6,108.5 190.2,108.8 190.5,109.5 190.7,108.8 
					191.4,108.5 				"/>
			</g>
			<path class="st18" d="M181.2,76.5c0,0-3.5,2.6-4.6,4.6c0,0,4.7-3.5,7.2-4.6H181.2z"/>
			<path class="st18" d="M182.3,76.5c0,0,2.7,1.4,4.1,4.6c0,0-0.2-2.6-1.6-4.6H182.3z"/>
			<path class="st18" d="M187.7,83c0,0,2.4,4.5,3.7,9.4C191.4,92.3,191.7,86.8,187.7,83z"/>
			<path class="st17" d="M190.9,83.5c0,0,2.4,4.5,3.7,9.4C194.6,92.9,194.8,87.4,190.9,83.5z"/>
			<path class="st17" d="M187.1,85.2c0,0,4-0.7,7.7,0.3C194.8,85.5,191.1,83.6,187.1,85.2z"/>
			<path class="st17" d="M188,87.4c0,0,4-0.7,7.7,0.3C195.7,87.7,192,85.8,188,87.4z"/>
			<g>
				<path class="st18" d="M188,87.4c0,0,1.3-0.2,3.2-0.2c-0.1-0.1-0.1-0.3-0.2-0.4C190.1,86.8,189,86.9,188,87.4z"/>
				<path class="st18" d="M190.2,85c-0.1-0.1-0.1-0.3-0.2-0.4c-0.9,0.1-1.9,0.2-2.9,0.6C187.1,85.2,188.4,85,190.2,85z"/>
			</g>
			<path class="st18" d="M177.2,65.5l5.1,9.6V64.9c-0.1,0-0.2,0.1-0.3,0.1c0,0,0,0-0.1,0c-0.1,0-0.2,0.1-0.3,0.1c0,0,0,0,0,0
				c-0.1,0-0.2,0.1-0.3,0.1c0,0,0,0-0.1,0c-0.1,0-0.2,0.1-0.2,0.1c0,0-0.1,0-0.1,0c-0.1,0-0.2,0.1-0.3,0.1c0,0,0,0,0,0
				c-0.1,0-0.2,0.1-0.3,0.1c0,0-0.1,0-0.1,0c-0.1,0-0.2,0-0.2,0c0,0-0.1,0-0.1,0c-0.1,0-0.2,0-0.3,0C178.8,65.8,178,65.7,177.2,65.5
				z"/>
			<path class="st18" d="M175.8,65.2c-0.1,0-0.2-0.1-0.4-0.1l4.2,6.5l-3.1-6.2C176.4,65.3,176.1,65.3,175.8,65.2z"/>
			<path class="st18" d="M198.6,65c0.8-0.6,1-1.5-0.5-1.6c-2.5-0.3-4.1,1.9-6.6,2.1l-5.7,11.1h2.2L198.6,65z"/>
			<path class="st18" d="M186.6,73.7l4.2-8.4c-0.9-0.1-1.4-0.5-2-0.9L186.6,73.7z"/>
			<g>
				<path class="st37" d="M179.9,100.3c-4.6,0-8.3-3.6-8.3-8.1c0-4.5,3.7-8.1,8.3-8.1c4.6,0,8.3,3.6,8.3,8.1
					C188.2,96.6,184.5,100.3,179.9,100.3z M179.9,85.1c-4,0-7.3,3.2-7.3,7.1c0,3.9,3.3,7.1,7.3,7.1c4,0,7.3-3.2,7.3-7.1
					C187.2,88.3,183.9,85.1,179.9,85.1z"/>
			</g>
			<path class="st37" d="M177,93.1l3.1,4.2h2.2l-3.4-4.3c0.9-0.4,1.6-1,2-1.8c0-0.1,0.1-0.1,0.1-0.2h1.9v-1.5h-1.5
				c0-0.3,0-0.7,0-0.9h1.5V87h-5.8v1.5h2.8c0,0.3,0,0.6,0,0.9h-2.8V91h2c-0.4,0.4-0.9,0.7-1.7,0.9L177,93.1z"/>
		</g>
		<g>
			<g>
				<path class="st19" d="M190.2,76.1c0,0-0.1,0-0.1,0c-3.9-0.9-11,0-11.1,0c-0.4,0-0.8-0.3-0.8-0.7c0-0.5,0.3-0.9,0.7-0.9
					c0.3,0,7.5-0.9,11.5,0c0.4,0.1,0.7,0.5,0.6,1C190.8,75.8,190.5,76.1,190.2,76.1z"/>
			</g>
			<g>
				<path class="st38" d="M183.8,74c-0.1,0-0.2,0-0.4,0c-0.2,0.4-0.5,0.9-0.7,1.7c0.1,0,0.2,0,0.3,0C183.2,74.9,183.6,74.3,183.8,74
					z"/>
				<path class="st38" d="M181.7,74.1c-0.1,0-0.2,0-0.4,0c-0.2,0.4-0.5,1-0.6,1.7c0.1,0,0.2,0,0.3,0
					C181.1,75.1,181.4,74.5,181.7,74.1z"/>
				<path class="st38" d="M182.7,74.1c-0.1,0-0.2,0-0.4,0c-0.2,0.4-0.5,0.9-0.7,1.7c0.1,0,0.2,0,0.3,0
					C182.2,75,182.5,74.4,182.7,74.1z"/>
				<path class="st38" d="M180.6,74.2c-0.1,0-0.2,0-0.4,0c-0.2,0.4-0.5,1-0.6,1.7c0.1,0,0.2,0,0.3,0
					C180.1,75.2,180.4,74.6,180.6,74.2z"/>
				<path class="st38" d="M179.1,74.4c-0.2,0.4-0.4,1-0.6,1.6c0.1,0,0.2,0.1,0.3,0.1c0.1-0.8,0.4-1.4,0.6-1.7
					C179.4,74.3,179.3,74.4,179.1,74.4z"/>
				<path class="st38" d="M189.7,74.3c-0.1,0-0.2,0-0.3,0c-0.2,0.4-0.4,0.9-0.6,1.6c0.1,0,0.2,0,0.3,0
					C189.2,75.2,189.5,74.7,189.7,74.3z"/>
				<path class="st38" d="M190.3,74.4C190.3,74.4,190.3,74.4,190.3,74.4c-0.2,0.4-0.4,0.9-0.5,1.6c0.1,0,0.2,0,0.3,0.1c0,0,0,0,0,0
					c0.1-0.6,0.3-1.2,0.5-1.5C190.5,74.5,190.4,74.4,190.3,74.4z"/>
				<path class="st38" d="M187.8,74.1c-0.1,0-0.2,0-0.3,0c-0.2,0.3-0.5,0.9-0.7,1.6c0.1,0,0.2,0,0.3,0
					C187.3,74.9,187.6,74.4,187.8,74.1z"/>
				<path class="st38" d="M188.8,74.2c-0.1,0-0.2,0-0.3,0c-0.2,0.4-0.5,0.9-0.6,1.6c0.1,0,0.2,0,0.3,0
					C188.3,75,188.6,74.5,188.8,74.2z"/>
				<path class="st38" d="M186.8,74c-0.1,0-0.2,0-0.4,0c-0.2,0.3-0.5,0.9-0.7,1.7c0.1,0,0.2,0,0.3,0C186.3,74.9,186.6,74.3,186.8,74
					z"/>
				<path class="st38" d="M185.5,74c-0.2,0.3-0.5,0.9-0.7,1.7c0.1,0,0.2,0,0.3,0c0.2-0.8,0.6-1.4,0.7-1.7
					C185.7,74,185.6,74,185.5,74z"/>
				<path class="st38" d="M184.8,74c-0.1,0-0.2,0-0.4,0c-0.2,0.3-0.5,0.9-0.7,1.7c0.1,0,0.2,0,0.3,0C184.3,74.9,184.6,74.3,184.8,74
					z"/>
			</g>
			<path class="st39" d="M190.2,75.4c0,0-0.1,0-0.1,0c-3.9-0.9-11,0-11.1,0c-0.3,0-0.6-0.2-0.8-0.5c-0.1,0.1-0.1,0.3-0.1,0.4
				c0,0.5,0.4,0.8,0.8,0.7c0.1,0,7.2-0.9,11.1,0c0,0,0.1,0,0.1,0c0.3,0,0.7-0.3,0.7-0.7c0-0.2,0-0.4-0.1-0.5
				C190.7,75.2,190.5,75.4,190.2,75.4z"/>
		</g>
		<g>
			<g>
				<path class="st19" d="M190.2,77.8c0,0-0.1,0-0.1,0c-3.9-0.9-11,0-11.1,0c-0.4,0-0.8-0.3-0.8-0.7c0-0.5,0.3-0.9,0.7-0.9
					c0.3,0,7.5-0.9,11.5,0c0.4,0.1,0.7,0.5,0.6,1C190.8,77.5,190.5,77.8,190.2,77.8z"/>
			</g>
			<g>
				<path class="st38" d="M183.8,75.7c-0.1,0-0.2,0-0.4,0c-0.2,0.4-0.5,0.9-0.7,1.7c0.1,0,0.2,0,0.3,0
					C183.2,76.6,183.6,76,183.8,75.7z"/>
				<path class="st38" d="M181.7,75.8c-0.1,0-0.2,0-0.4,0c-0.2,0.4-0.5,1-0.6,1.7c0.1,0,0.2,0,0.3,0
					C181.1,76.7,181.4,76.2,181.7,75.8z"/>
				<path class="st38" d="M182.7,75.8c-0.1,0-0.2,0-0.4,0c-0.2,0.4-0.5,0.9-0.7,1.7c0.1,0,0.2,0,0.3,0
					C182.2,76.7,182.5,76.1,182.7,75.8z"/>
				<path class="st38" d="M180.6,75.9c-0.1,0-0.2,0-0.4,0c-0.2,0.4-0.5,1-0.6,1.7c0.1,0,0.2,0,0.3,0
					C180.1,76.9,180.4,76.3,180.6,75.9z"/>
				<path class="st38" d="M179.1,76c-0.2,0.4-0.4,1-0.6,1.6c0.1,0,0.2,0.1,0.3,0.1c0.1-0.8,0.4-1.4,0.6-1.7
					C179.4,76,179.3,76,179.1,76z"/>
				<path class="st38" d="M189.7,76c-0.1,0-0.2,0-0.3,0c-0.2,0.4-0.4,0.9-0.6,1.6c0.1,0,0.2,0,0.3,0C189.2,76.9,189.5,76.3,189.7,76
					z"/>
				<path class="st38" d="M190.3,76.1C190.3,76.1,190.3,76.1,190.3,76.1c-0.2,0.4-0.4,0.9-0.5,1.6c0.1,0,0.2,0,0.3,0.1c0,0,0,0,0,0
					c0.1-0.6,0.3-1.2,0.5-1.5C190.5,76.2,190.4,76.1,190.3,76.1z"/>
				<path class="st38" d="M187.8,75.8c-0.1,0-0.2,0-0.3,0c-0.2,0.3-0.5,0.9-0.7,1.6c0.1,0,0.2,0,0.3,0
					C187.3,76.6,187.6,76.1,187.8,75.8z"/>
				<path class="st38" d="M188.8,75.9c-0.1,0-0.2,0-0.3,0c-0.2,0.4-0.5,0.9-0.6,1.6c0.1,0,0.2,0,0.3,0
					C188.3,76.7,188.6,76.2,188.8,75.9z"/>
				<path class="st38" d="M186.8,75.7c-0.1,0-0.2,0-0.4,0c-0.2,0.3-0.5,0.9-0.7,1.7c0.1,0,0.2,0,0.3,0
					C186.3,76.6,186.6,76,186.8,75.7z"/>
				<path class="st38" d="M185.5,75.7c-0.2,0.3-0.5,0.9-0.7,1.7c0.1,0,0.2,0,0.3,0c0.2-0.8,0.6-1.4,0.7-1.7
					C185.7,75.7,185.6,75.7,185.5,75.7z"/>
				<path class="st38" d="M184.8,75.7c-0.1,0-0.2,0-0.4,0c-0.2,0.3-0.5,0.9-0.7,1.7c0.1,0,0.2,0,0.3,0
					C184.3,76.5,184.6,76,184.8,75.7z"/>
			</g>
			<path class="st39" d="M190.2,77c0,0-0.1,0-0.1,0c-3.9-0.9-11,0-11.1,0c-0.3,0-0.6-0.2-0.8-0.5c-0.1,0.1-0.1,0.3-0.1,0.4
				c0,0.5,0.4,0.8,0.8,0.7c0.1,0,7.2-0.9,11.1,0c0,0,0.1,0,0.1,0c0.3,0,0.7-0.3,0.7-0.7c0-0.2,0-0.4-0.1-0.5
				C190.7,76.9,190.5,77,190.2,77z"/>
		</g>
	</g>
</g>
</svg>
