<?xml version="1.0" encoding="utf-8"?>
<!-- Generator: Adobe Illustrator 25.3.0, SVG Export Plug-In . SVG Version: 6.00 Build 0)  -->
<svg version="1.1" id="Layer_1" xmlns="http://www.w3.org/2000/svg" xmlns:xlink="http://www.w3.org/1999/xlink" x="0px" y="0px"
	 viewBox="0 0 280 120" style="enable-background:new 0 0 280 120;" xml:space="preserve">
<style type="text/css">
	.st0{fill:url(#SVGID_1_);}
	.st1{fill:#2AB24B;}
	.st2{fill:#FFFFFF;}
	.st3{fill:#ECECEC;}
	.st4{opacity:0.26;fill:#F5F5F5;enable-background:new    ;}
	.st5{fill:#1A2E35;}
	.st6{fill:#FFC3BD;}
	.st7{fill:#007CFF;}
	.st8{opacity:0.2;enable-background:new    ;}
	.st9{fill:#FF847F;}
	.st10{opacity:0.3;fill:#FFFFFF;enable-background:new    ;}
	.st11{opacity:0.8;fill:#FFFFFF;enable-background:new    ;}
	.st12{opacity:0.6;fill:#FFFFFF;enable-background:new    ;}
	.st13{fill:#00FFF8;}
	.st14{opacity:0.5;enable-background:new    ;}
	.st15{opacity:0.3;enable-background:new    ;}
	.st16{opacity:0.4;enable-background:new    ;}
	.st17{fill:#DDB91D;}
	.st18{opacity:0.4;}
	.st19{opacity:0.4;fill:#F6CF24;enable-background:new    ;}
	.st20{fill:#F6CF24;}
	.st21{opacity:0.4;fill:#007CFF;enable-background:new    ;}
	.st22{opacity:0.4;fill:#FFFFFF;enable-background:new    ;}
	.st23{fill:#F4D760;}
	.st24{opacity:0.5;}
</style>
<linearGradient id="SVGID_1_" gradientUnits="userSpaceOnUse" x1="-42.0951" y1="204.5463" x2="186.7849" y2="25.5963" gradientTransform="matrix(1 0 0 -1 0 122)">
	<stop  offset="0.12" style="stop-color:#22A3D6"/>
	<stop  offset="0.29" style="stop-color:#209ED3"/>
	<stop  offset="0.49" style="stop-color:#1B90C8"/>
	<stop  offset="0.7" style="stop-color:#1379B8"/>
	<stop  offset="0.92" style="stop-color:#0859A0"/>
	<stop  offset="0.95" style="stop-color:#06539C"/>
</linearGradient>
<rect x="-3.5" y="-19" class="st0" width="286.1" height="157"/>
<path class="st1" d="M280.3,26.2H221c-1.9,0-3.4-1.5-3.4-3.3c0,0,0,0,0,0V9.3c0-1.9,1.5-3.4,3.4-3.4l0,0h59.4l0,0V26.2L280.3,26.2z"
	/>
<path class="st2" d="M226,20.4c0,0-0.1-0.1-0.1-0.2v-6.8c0-0.1,0-0.1,0.1-0.2c0.1,0,0.1-0.1,0.2-0.1h0.8c0.1,0,0.2,0.1,0.3,0.2
	l3,4.7v-4.6c0-0.1,0-0.1,0.1-0.2c0-0.1,0.1-0.1,0.2-0.1h0.9c0.1,0,0.1,0,0.2,0.1c0.1,0.1,0.1,0.1,0.1,0.2v6.8c0,0.1,0,0.1-0.1,0.2
	c0,0.1-0.1,0.1-0.2,0.1h-0.8c-0.1,0-0.3-0.1-0.3-0.2l-3-4.6v4.5c0,0.1,0,0.1-0.1,0.2c0,0.1-0.1,0.1-0.2,0.1h-0.9
	C226.1,20.5,226,20.4,226,20.4z"/>
<path class="st2" d="M233.4,20.4c-0.1,0-0.1-0.1-0.1-0.2v-6.8c0-0.1,0-0.1,0.1-0.2c0.1,0,0.1-0.1,0.2-0.1h4.6c0.1,0,0.2,0.1,0.3,0.2
	c0,0,0,0,0,0v0.8c0,0.1,0,0.1-0.1,0.2c-0.1,0-0.1,0.1-0.2,0.1h-3.4v2h3.1c0.1,0,0.1,0,0.2,0.1c0,0,0.1,0.1,0.1,0.2v0.8
	c0,0.1,0,0.1-0.1,0.2c-0.1,0.1-0.1,0.1-0.2,0.1h-3.1v2.6c0,0.1,0,0.1-0.1,0.2c0,0.1-0.1,0.1-0.2,0.1h-0.9
	C233.5,20.5,233.4,20.5,233.4,20.4z"/>
<path class="st2" d="M240.2,19.9c-0.6-0.6-0.9-1.4-0.8-2.2c0-0.2,0-0.5,0-0.9s0-0.7,0-0.9c0-0.8,0.3-1.6,0.9-2.1c1.3-1,3.1-1,4.4,0
	c0.6,0.6,0.9,1.3,0.9,2.1c0,0.4,0,0.7,0,0.9s0,0.5,0,0.9c0,0.8-0.3,1.6-0.8,2.2C243.3,20.8,241.5,20.8,240.2,19.9z M243.5,18.9
	c0.3-0.4,0.5-0.8,0.4-1.3c0-0.4,0-0.7,0-0.9s0-0.5,0-0.9c0-0.5-0.1-0.9-0.4-1.3c-0.6-0.6-1.6-0.6-2.2,0c-0.3,0.4-0.5,0.8-0.4,1.3
	c0,0.2,0,0.5,0,0.9s0,0.6,0,0.9c0,0.5,0.1,0.9,0.4,1.3C241.9,19.5,242.9,19.5,243.5,18.9z"/>
<path class="st2" d="M248.4,20.4c0,0-0.1-0.1-0.1-0.1v-0.1l2.5-6.8c0.1-0.2,0.2-0.3,0.4-0.3h1.2c0.2,0,0.3,0.1,0.4,0.3l2.5,6.8v0.1
	c0,0.1,0,0.1-0.1,0.1c0,0-0.1,0.1-0.1,0.1h-0.9c-0.1,0-0.3-0.1-0.3-0.2l-0.4-1.3h-3.1l-0.5,1.3c0,0.1-0.2,0.2-0.3,0.2h-0.9
	C248.5,20.5,248.4,20.4,248.4,20.4z M250.6,17.8h2.4l-1.2-3.2L250.6,17.8z"/>
<path class="st2" d="M256.3,20.4c0-0.1-0.1-0.1-0.1-0.2v-6.9c0-0.1,0-0.1,0.1-0.2c0.1,0,0.1-0.1,0.2-0.1h0.9c0.1,0,0.1,0,0.2,0.1
	c0,0.1,0.1,0.1,0.1,0.2v7c0,0.1,0,0.1-0.1,0.2c0,0.1-0.1,0.1-0.2,0.1h-0.9C256.4,20.5,256.3,20.5,256.3,20.4z"/>
<path class="st2" d="M259.5,19.9c-0.5-0.5-0.7-1.2-0.7-1.9v-0.3c0-0.8,0.2-1.5,0.7-2.1c1.1-1,2.8-1,3.8,0c0.5,0.6,0.7,1.3,0.7,2v0.2
	c0,0.1-0.1,0.3-0.3,0.3c0,0,0,0,0,0h-3.5v0.1c0,0.4,0.1,0.7,0.3,1c0.2,0.3,0.5,0.4,0.8,0.4c0.4,0,0.8-0.2,1-0.5
	c0-0.1,0.1-0.1,0.1-0.1c0.1,0,0.1,0,0.2,0h0.9c0.1,0,0.1,0,0.2,0c0,0,0.1,0.1,0.1,0.1c0,0.2-0.1,0.4-0.3,0.6
	c-0.2,0.3-0.5,0.5-0.9,0.6c-0.4,0.2-0.8,0.3-1.3,0.2C260.7,20.6,260,20.4,259.5,19.9z M262.5,17.3L262.5,17.3c0-0.4-0.1-0.7-0.3-1
	c-0.2-0.3-0.5-0.4-0.9-0.4c-0.3,0-0.6,0.1-0.8,0.4c-0.2,0.3-0.3,0.6-0.3,1l0,0H262.5z"/>
<path class="st2" d="M265.1,20.4c0,0-0.1-0.1-0.1-0.2v-4.9c0-0.1,0-0.1,0.1-0.2c0-0.1,0.1-0.1,0.2-0.1h0.9c0.1,0,0.1,0,0.2,0.1
	c0.1,0,0.1,0.1,0.1,0.2v0.4c0.4-0.5,0.9-0.7,1.5-0.7h0.4c0.1,0,0.1,0,0.2,0.1c0,0.1,0.1,0.1,0.1,0.2V16c0,0.1,0,0.1-0.1,0.2
	c-0.1,0-0.1,0.1-0.2,0.1h-0.8c-0.3,0-0.6,0.1-0.8,0.3c-0.2,0.2-0.3,0.5-0.3,0.8v2.9c0,0.1,0,0.1-0.1,0.2c0,0.1-0.1,0.1-0.2,0.1h-0.9
	C265.2,20.5,265.2,20.4,265.1,20.4z"/>
<path class="st2" d="M270.5,20c-0.4-0.4-0.5-0.9-0.5-1.5v-2.4h-0.8c-0.1,0-0.1,0-0.2-0.1c0,0-0.1-0.1-0.1-0.2v-0.6
	c0-0.1,0-0.1,0.1-0.2c0-0.1,0.1-0.1,0.2-0.1h0.8v-1.7c0-0.1,0-0.1,0.1-0.2c0.1,0,0.1-0.1,0.2-0.1h0.9c0.1,0,0.2,0.1,0.3,0.2
	c0,0,0,0,0,0V15h1.3c0.1,0,0.1,0,0.2,0.1c0,0,0.1,0.1,0.1,0.2v0.6c0,0.1,0,0.1-0.1,0.2c0,0.1-0.1,0.1-0.2,0.1h-1.3v2.2
	c0,0.2,0,0.5,0.1,0.7c0.1,0.2,0.3,0.2,0.5,0.2h0.7c0.1,0,0.2,0.1,0.3,0.2c0,0,0,0,0,0v0.7c0,0.1,0,0.1-0.1,0.2
	c0,0.1-0.1,0.1-0.2,0.1h-0.9C271.4,20.5,270.9,20.3,270.5,20z"/>
<path class="st2" d="M19.1,29.4C19,29.3,19,29.2,19,29.2c0-0.1,0-0.1,0-0.2l3.3-9c0.1-0.3,0.3-0.4,0.6-0.4H25c0.3,0,0.5,0.1,0.6,0.4
	l3.3,9c0,0,0,0.1,0,0.1c0,0.1,0,0.2-0.1,0.2c-0.1,0.1-0.1,0.1-0.2,0.1h-1.8c-0.2,0-0.4-0.1-0.5-0.3l-0.5-1.4h-3.7l-0.5,1.4
	c-0.1,0.2-0.3,0.3-0.5,0.3h-1.8C19.2,29.4,19.1,29.4,19.1,29.4z M22.7,25.7h2.5l-1.2-3.6L22.7,25.7z"/>
<path class="st2" d="M30.3,28.7c-0.6-0.7-0.9-1.6-0.8-2.4v-1c0-0.9,0.3-1.7,0.8-2.4c0.5-0.6,1.3-0.9,2.1-0.9c0.8,0,1.5,0.3,2,0.8v-3
	c0-0.2,0.2-0.3,0.3-0.4h1.8c0.1,0,0.2,0,0.3,0.1c0.1,0.1,0.1,0.2,0.1,0.2v9.3c0,0.1,0,0.2-0.1,0.2c-0.1,0.1-0.2,0.1-0.3,0.1h-1.6
	c-0.2,0-0.3-0.2-0.3-0.4v-0.4c-0.5,0.6-1.3,1-2.2,0.9C31.6,29.6,30.8,29.3,30.3,28.7z M34.1,27.3c0.2-0.3,0.3-0.6,0.3-1
	c0-0.3,0-0.4,0-0.5s0-0.3,0-0.5c0-0.3-0.1-0.7-0.3-0.9c-0.2-0.3-0.6-0.4-0.9-0.4c-0.3,0-0.7,0.1-0.9,0.4c-0.2,0.3-0.3,0.6-0.3,1v0.4
	v0.4c0,0.4,0.1,0.7,0.3,1c0.2,0.3,0.6,0.4,0.9,0.4C33.5,27.6,33.9,27.5,34.1,27.3z"/>
<path class="st2" d="M38.7,21.1c-0.1-0.1-0.1-0.2-0.1-0.3v-1.3c0-0.2,0.2-0.4,0.3-0.4c0,0,0,0,0,0h1.8c0.1,0,0.2,0,0.3,0.1
	c0.1,0.1,0.1,0.2,0.1,0.3v1.3c0,0.2-0.1,0.3-0.3,0.4c0,0,0,0,0,0h-1.7C38.8,21.2,38.7,21.1,38.7,21.1z M38.7,29.3
	c-0.1-0.1-0.1-0.1-0.1-0.2v-6.6c0-0.1,0-0.2,0.1-0.2c0.1-0.1,0.2-0.1,0.2-0.1h1.8c0.1,0,0.2,0,0.3,0.1c0.1,0.1,0.1,0.2,0.1,0.2v6.6
	c0,0.1,0,0.2-0.1,0.2c-0.1,0.1-0.2,0.1-0.3,0.1h-1.8C38.8,29.4,38.7,29.4,38.7,29.3z"/>
<path class="st2" d="M43.5,26.7v-2.6h-1.1c-0.2,0-0.3-0.1-0.3-0.3c0,0,0,0,0,0v-1.2c0-0.1,0-0.2,0.1-0.2c0.1-0.1,0.2-0.1,0.2-0.1
	h1.1v-2.3c0-0.2,0.2-0.3,0.3-0.4h1.7c0.1,0,0.2,0,0.3,0.1c0.1,0.1,0.1,0.2,0.1,0.2v2.3h1.8c0.1,0,0.2,0,0.3,0.1
	c0.1,0.1,0.1,0.2,0.1,0.2v1.2c0,0.1,0,0.2-0.1,0.2c-0.1,0.1-0.2,0.1-0.3,0.1h-1.7v2.4c0,0.3,0,0.5,0.2,0.8c0.1,0.2,0.4,0.3,0.6,0.2
	h1.1c0.1,0,0.2,0,0.2,0.1c0.1,0.1,0.1,0.2,0.1,0.3v1.3c0,0.2-0.2,0.3-0.3,0.4h-1.3C44.5,29.5,43.5,28.5,43.5,26.7z"/>
<path class="st2" d="M50.4,32c-0.1-0.1-0.1-0.1-0.1-0.2c0-0.1,0-0.1,0-0.2l1.1-2.6l-2.7-6.4c0,0,0-0.1,0-0.1c0-0.1,0-0.2,0.1-0.2
	c0.1-0.1,0.1-0.1,0.2-0.1h1.7c0.2,0,0.3,0.1,0.4,0.3l1.6,4l1.6-4c0.1-0.2,0.2-0.3,0.4-0.3h1.7c0.1,0,0.2,0,0.2,0.1
	c0.1,0.1,0.1,0.1,0.1,0.2c0,0.1,0,0.1,0,0.2l-4,9.2c-0.1,0.2-0.2,0.3-0.4,0.3h-1.7C50.5,32.1,50.5,32.1,50.4,32z"/>
<path class="st2" d="M58.2,29.3c-0.4-0.2-0.7-0.4-1-0.8c-0.2-0.3-0.3-0.7-0.3-1.1c0-0.6,0.3-1.2,0.8-1.5c0.7-0.5,1.4-0.8,2.2-0.9
	l1.7-0.3v-0.1c0-0.3-0.1-0.5-0.2-0.8c-0.2-0.2-0.4-0.3-0.7-0.2c-0.2,0-0.3,0-0.5,0.1c-0.2,0.1-0.3,0.2-0.4,0.3
	c-0.1,0.1-0.2,0.2-0.3,0.2c0,0.1-0.1,0.1-0.1,0.1h-1.6c-0.1,0-0.2,0-0.2-0.1c-0.1-0.1-0.1-0.1-0.1-0.2c0-0.3,0.2-0.6,0.4-0.9
	c0.3-0.4,0.7-0.6,1.1-0.8c0.6-0.3,1.2-0.4,1.8-0.4c0.9-0.1,1.8,0.2,2.6,0.8c0.6,0.5,0.9,1.3,0.8,2.1v4.3c0,0.2-0.2,0.3-0.3,0.4H62
	c-0.1,0-0.2,0-0.2-0.1c-0.1-0.1-0.1-0.1-0.1-0.2v-0.5c-0.2,0.3-0.5,0.5-0.8,0.7c-0.4,0.2-0.9,0.3-1.3,0.3
	C59,29.6,58.6,29.5,58.2,29.3z M61.2,27.5c0.3-0.3,0.4-0.8,0.4-1.2v-0.2l-1.2,0.2c-0.8,0.1-1.2,0.4-1.2,0.8c0,0.2,0.1,0.4,0.3,0.5
	c0.2,0.1,0.4,0.2,0.7,0.2C60.6,28,61,27.8,61.2,27.5L61.2,27.5z"/>
<path class="st2" d="M68.8,29.3c-0.1-0.1-0.1-0.1-0.1-0.2V20c0-0.1,0-0.2,0.1-0.3c0.1-0.1,0.2-0.1,0.2-0.1h4.3
	c0.9-0.1,1.9,0.2,2.6,0.7c0.6,0.5,0.9,1.3,0.9,2.1c0,0.4-0.1,0.8-0.4,1.2c-0.2,0.3-0.5,0.5-0.8,0.7c0.4,0.2,0.8,0.5,1,0.8
	c0.3,0.4,0.4,0.8,0.4,1.3c0,0.8-0.3,1.6-0.9,2.2c-0.8,0.6-1.7,0.8-2.7,0.8h-4.5C69,29.4,68.9,29.4,68.8,29.3z M73.1,23.5
	c0.3,0,0.6-0.1,0.8-0.3c0.2-0.2,0.3-0.5,0.3-0.7c0-0.3-0.1-0.5-0.3-0.7c-0.2-0.2-0.5-0.3-0.8-0.3h-1.8v2L73.1,23.5z M73.2,27.5
	c0.3,0,0.6-0.1,0.8-0.3c0.2-0.2,0.3-0.5,0.3-0.8c0-0.3-0.1-0.6-0.3-0.8c-0.2-0.2-0.5-0.3-0.8-0.3h-1.9v2.2H73.2z"/>
<path class="st2" d="M78.6,21.1c-0.1-0.1-0.1-0.2-0.1-0.3v-1.3c0-0.2,0.2-0.4,0.3-0.4c0,0,0,0,0,0h1.8c0.1,0,0.2,0,0.2,0.1
	c0.1,0.1,0.1,0.2,0.1,0.3v1.3c0,0.1,0,0.2-0.1,0.3c-0.1,0.1-0.2,0.1-0.2,0.1h-1.8C78.7,21.2,78.6,21.1,78.6,21.1z M78.6,29.3
	c-0.1-0.1-0.1-0.1-0.1-0.2v-6.6c0-0.1,0-0.2,0.1-0.2c0.1-0.1,0.2-0.1,0.2-0.1h1.8c0.1,0,0.2,0,0.2,0.1c0.1,0.1,0.1,0.2,0.1,0.2v6.6
	c0,0.1,0,0.2-0.1,0.2c-0.1,0.1-0.2,0.1-0.2,0.1h-1.7C78.7,29.4,78.6,29.4,78.6,29.3L78.6,29.3z"/>
<path class="st2" d="M82.6,29.3c-0.1-0.1-0.1-0.1-0.1-0.2v-6.6c0-0.1,0-0.2,0.1-0.3c0.1-0.1,0.2-0.1,0.2-0.1h1.7
	c0.1,0,0.2,0,0.3,0.1c0.1,0.1,0.1,0.2,0.1,0.3v0.5c0.3-0.3,0.6-0.5,0.9-0.7c0.4-0.2,0.7-0.2,1.1-0.2h0.6c0.1,0,0.2,0,0.2,0.1
	c0.1,0.1,0.1,0.2,0.1,0.2v1.5c0,0.1,0,0.2-0.1,0.2c-0.1,0.1-0.2,0.1-0.2,0.1h-1.4c-0.3,0-0.6,0.1-0.9,0.3c-0.2,0.2-0.3,0.6-0.3,0.9
	v3.5c0,0.1,0,0.2-0.1,0.2c-0.1,0.1-0.2,0.1-0.3,0.1h-1.8C82.8,29.4,82.7,29.4,82.6,29.3z"/>
<path class="st2" d="M89.1,29.4C89,29.3,89,29.2,89,29.1v-9.2c0-0.1,0-0.2,0.1-0.2c0.1-0.1,0.2-0.1,0.3-0.1h1.8c0.1,0,0.2,0,0.2,0.1
	c0.1,0.1,0.1,0.2,0.1,0.2v9.2c0,0.1,0,0.2-0.1,0.2c-0.1,0.1-0.2,0.1-0.2,0.1h-1.8C89.3,29.5,89.2,29.4,89.1,29.4z"/>
<path class="st2" d="M93.9,29.3c-0.4-0.2-0.7-0.4-1-0.8c-0.2-0.3-0.3-0.7-0.3-1.1c0-0.6,0.3-1.2,0.8-1.5c0.7-0.5,1.4-0.8,2.2-0.9
	l1.7-0.3v-0.1c0-0.3-0.1-0.5-0.2-0.8c-0.2-0.2-0.5-0.3-0.7-0.2c-0.2,0-0.3,0-0.5,0.1c-0.2,0.1-0.3,0.2-0.4,0.3
	c-0.1,0.1-0.2,0.2-0.3,0.2c0,0.1-0.1,0.1-0.1,0.1h-1.6c-0.1,0-0.2,0-0.2-0.1c-0.1-0.1-0.1-0.1-0.1-0.2c0-0.3,0.2-0.6,0.4-0.9
	c0.3-0.4,0.7-0.6,1.1-0.8c0.6-0.3,1.2-0.4,1.8-0.4c0.9-0.1,1.8,0.2,2.6,0.8c0.6,0.5,0.9,1.3,0.8,2.1v4.3c0,0.1,0,0.2-0.1,0.2
	c-0.1,0.1-0.2,0.1-0.2,0.1h-1.7c-0.2,0-0.3-0.2-0.3-0.4v-0.5c-0.2,0.3-0.5,0.5-0.8,0.7c-0.4,0.2-0.9,0.3-1.3,0.3
	C94.8,29.6,94.3,29.5,93.9,29.3z M96.9,27.5c0.3-0.3,0.4-0.8,0.4-1.2v-0.2l-1.2,0.2c-0.8,0.2-1.2,0.4-1.2,0.8c0,0.2,0.1,0.4,0.3,0.5
	c0.2,0.1,0.4,0.2,0.7,0.2C96.3,28,96.7,27.8,96.9,27.5L96.9,27.5z"/>
<path class="st2" d="M105.8,29.2c-0.6-0.2-1.1-0.5-1.4-1c-0.3-0.4-0.5-0.9-0.5-1.4c0-0.1,0-0.2,0.1-0.2c0.1-0.1,0.1-0.1,0.2-0.1h1.9
	c0.1,0,0.2,0,0.3,0c0.1,0.1,0.2,0.1,0.2,0.2c0.1,0.2,0.3,0.4,0.6,0.5c0.3,0.2,0.7,0.2,1,0.2c0.4,0,0.8-0.1,1.2-0.2
	c0.2-0.1,0.4-0.4,0.4-0.6c0-0.2-0.1-0.4-0.2-0.5c-0.2-0.2-0.4-0.3-0.7-0.3c-0.4-0.1-0.9-0.2-1.3-0.3c-0.9-0.1-1.8-0.5-2.5-1
	c-0.6-0.5-0.9-1.2-0.8-2c0-0.6,0.2-1.1,0.5-1.5c0.4-0.5,0.8-0.9,1.4-1.1c0.7-0.3,1.4-0.4,2.1-0.4c0.7,0,1.5,0.1,2.1,0.4
	c0.5,0.2,1,0.6,1.4,1.1c0.3,0.4,0.5,0.8,0.5,1.2c0,0.1,0,0.2-0.1,0.2c-0.1,0.1-0.1,0.1-0.2,0.1h-2c-0.2,0-0.4-0.1-0.5-0.2
	c-0.1-0.2-0.2-0.4-0.4-0.5c-0.3-0.1-0.6-0.2-0.9-0.2c-0.3,0-0.6,0.1-0.9,0.2c-0.2,0.1-0.3,0.4-0.3,0.6c0,0.3,0.2,0.5,0.4,0.6
	c0.5,0.2,1,0.4,1.6,0.5c0.7,0.1,1.4,0.3,2.1,0.6c1,0.4,1.6,1.3,1.5,2.4c0,0.6-0.2,1.2-0.5,1.6c-0.4,0.5-0.9,0.9-1.5,1.1
	C108.9,29.7,107.3,29.7,105.8,29.2L105.8,29.2z"/>
<path class="st2" d="M114.3,28.8c-0.5-0.7-0.8-1.5-0.8-2.3v-3.9c0-0.2,0.2-0.3,0.3-0.4h1.9c0.1,0,0.2,0,0.3,0.1
	c0.1,0.1,0.1,0.2,0.1,0.2v3.8c0,0.9,0.4,1.3,1.2,1.3c0.3,0,0.7-0.1,0.9-0.3c0.2-0.3,0.3-0.6,0.3-1v-3.8c0-0.1,0-0.2,0.1-0.2
	c0.1-0.1,0.2-0.1,0.3-0.1h1.8c0.1,0,0.2,0,0.3,0.1c0.1,0.1,0.1,0.2,0.1,0.2v6.6c0,0.1,0,0.2-0.1,0.2c-0.1,0.1-0.2,0.1-0.3,0.1H119
	c-0.1,0-0.2,0-0.3-0.1c-0.1-0.1-0.1-0.2-0.1-0.2v-0.5c-0.6,0.7-1.4,1.1-2.3,1C115.6,29.6,114.8,29.3,114.3,28.8z"/>
<path class="st2" d="M122.7,29.3c-0.1-0.1-0.1-0.2-0.1-0.2v-6.6c0-0.1,0-0.2,0.1-0.2c0.1-0.1,0.2-0.1,0.2-0.1h1.7
	c0.2,0,0.3,0.1,0.3,0.3c0,0,0,0,0,0v0.5c0.3-0.3,0.6-0.6,1-0.7c0.4-0.2,0.9-0.3,1.4-0.3c0.5,0,1,0.1,1.4,0.4c0.4,0.3,0.8,0.6,1,1.1
	c0.3,0.5,0.4,1.1,0.4,1.7v3.9c0,0.1,0,0.2-0.1,0.2c-0.1,0.1-0.2,0.1-0.2,0.1H128c-0.1,0-0.2,0-0.3-0.1c-0.1-0.1-0.1-0.2-0.1-0.2
	v-3.8c0-0.4-0.1-0.7-0.3-1c-0.2-0.2-0.5-0.4-0.9-0.3c-0.3,0-0.7,0.1-0.9,0.4c-0.2,0.3-0.4,0.6-0.3,1v3.8c0,0.2-0.2,0.3-0.3,0.4H123
	C122.9,29.5,122.8,29.4,122.7,29.3z"/>
<path class="st2" d="M134.9,29.3c-0.1-0.1-0.1-0.1-0.1-0.2V20c0-0.1,0-0.2,0.1-0.2c0.1-0.1,0.2-0.1,0.2-0.1h2c0.1,0,0.2,0,0.2,0.1
	c0.1,0.1,0.1,0.2,0.1,0.2v7.2h4.2c0.1,0,0.2,0,0.3,0.1c0.1,0.1,0.1,0.2,0.1,0.3v1.5c0,0.1,0,0.2-0.1,0.2c-0.1,0.1-0.2,0.1-0.3,0.1
	h-6.5C135.1,29.5,134.9,29.4,134.9,29.3z"/>
<path class="st2" d="M143.1,21.1c-0.1-0.1-0.1-0.2-0.1-0.3v-1.3c0-0.1,0-0.2,0.1-0.3c0.1-0.1,0.1-0.1,0.2-0.1h1.8
	c0.2,0,0.4,0.2,0.4,0.4v1.3c0,0.1,0,0.2-0.1,0.3c-0.1,0.1-0.2,0.1-0.3,0.1h-1.8C143.3,21.2,143.2,21.1,143.1,21.1z M143.1,29.3
	c-0.1-0.1-0.1-0.1-0.1-0.2v-6.6c0-0.2,0.2-0.3,0.4-0.4h1.8c0.1,0,0.2,0,0.3,0.1c0.1,0.1,0.1,0.2,0.1,0.2v6.6c0,0.1,0,0.2-0.1,0.2
	c-0.1,0.1-0.2,0.1-0.3,0.1h-1.8C143.3,29.4,143.2,29.4,143.1,29.3L143.1,29.3z"/>
<path class="st2" d="M148,29.4c-0.1-0.1-0.1-0.2-0.1-0.2v-5h-1c-0.1,0-0.2,0-0.2-0.1c-0.1-0.1-0.1-0.2-0.1-0.2v-1.2
	c0-0.1,0-0.2,0.1-0.2c0.1-0.1,0.2-0.1,0.2-0.1h1v-0.4c-0.1-0.8,0.2-1.5,0.8-2c0.7-0.5,1.5-0.7,2.3-0.6h1.1c0.1,0,0.2,0,0.3,0.1
	c0.1,0.1,0.1,0.2,0.1,0.2v1.2c0,0.1,0,0.2-0.1,0.2c-0.1,0.1-0.2,0.1-0.3,0.1h-1c-0.2,0-0.5,0.1-0.6,0.2c-0.1,0.2-0.2,0.4-0.2,0.6
	v0.4h1.7c0.2,0,0.3,0.1,0.4,0.3c0,0,0,0,0,0v1.2c0,0.1,0,0.2-0.1,0.2c-0.1,0.1-0.2,0.1-0.3,0.1h-1.7v5c0,0.1,0,0.2-0.1,0.2
	c-0.1,0.1-0.2,0.1-0.2,0.1h-1.7C148.2,29.5,148.1,29.4,148,29.4z"/>
<path class="st2" d="M154,28.7c-0.7-0.7-1.1-1.7-1-2.7v-0.4c0-1,0.3-1.9,1-2.6c0.7-0.7,1.7-1,2.6-0.9c0.7,0,1.4,0.1,2,0.5
	c0.6,0.3,1.1,0.8,1.4,1.3c0.3,0.6,0.4,1.3,0.4,1.9v0.4c0,0.1,0,0.2-0.1,0.3c-0.1,0.1-0.2,0.1-0.2,0.1h-4.4v0.1c0,0.4,0.1,0.7,0.3,1
	c0.2,0.3,0.5,0.4,0.8,0.4c0.2,0,0.4,0,0.5-0.1c0.1-0.1,0.3-0.2,0.4-0.3c0.1-0.1,0.1-0.1,0.2-0.2c0.1,0,0.2,0,0.2,0h1.8
	c0.1,0,0.2,0,0.2,0.1c0.1,0,0.1,0.1,0.1,0.2c0,0.3-0.2,0.6-0.4,0.9c-0.3,0.4-0.7,0.7-1.2,0.8c-0.6,0.2-1.2,0.4-1.9,0.4
	C155.7,29.7,154.7,29.3,154,28.7z M157.8,25L157.8,25c0-0.4-0.1-0.7-0.3-1c-0.4-0.5-1.1-0.5-1.6-0.1c0,0-0.1,0.1-0.1,0.1
	c-0.2,0.3-0.3,0.7-0.3,1l0,0H157.8z"/>
<path class="st2" d="M19.9,45.3c-0.1-0.1-0.1-0.1-0.1-0.2V36c0-0.1,0-0.2,0.1-0.3c0.1-0.1,0.2-0.1,0.2-0.1h4.3
	c0.9-0.1,1.9,0.2,2.6,0.7c0.6,0.5,0.9,1.3,0.9,2.1c0,0.4-0.1,0.8-0.4,1.2c-0.2,0.3-0.5,0.5-0.8,0.7c0.4,0.2,0.8,0.5,1,0.8
	c0.3,0.4,0.4,0.8,0.4,1.3c0,0.8-0.3,1.6-0.9,2.2c-0.8,0.6-1.7,0.8-2.7,0.8h-4.5C20.1,45.4,20,45.4,19.9,45.3z M24.2,39.5
	c0.3,0,0.6-0.1,0.8-0.3c0.2-0.2,0.3-0.5,0.3-0.7c0-0.3-0.1-0.5-0.3-0.7c-0.2-0.2-0.5-0.3-0.8-0.3h-1.8v2L24.2,39.5z M24.3,43.5
	c0.3,0,0.6-0.1,0.9-0.3c0.2-0.2,0.3-0.5,0.3-0.8c0-0.3-0.1-0.6-0.3-0.8c-0.2-0.2-0.5-0.3-0.8-0.3h-1.9v2.2H24.3z"/>
<path class="st2" d="M30.3,44.8c-0.5-0.7-0.8-1.5-0.8-2.3v-3.9c0-0.2,0.2-0.3,0.4-0.3h1.9c0.1,0,0.2,0,0.3,0.1
	c0.1,0.1,0.1,0.2,0.1,0.2v3.8c0,0.9,0.4,1.3,1.2,1.3c0.3,0,0.7-0.1,0.9-0.3c0.2-0.3,0.3-0.6,0.3-1v-3.8c0-0.1,0-0.2,0.1-0.2
	c0.1-0.1,0.2-0.1,0.3-0.1h1.8c0.1,0,0.2,0,0.3,0.1c0.1,0.1,0.1,0.2,0.1,0.2v6.6c0,0.1,0,0.2-0.1,0.2c-0.1,0.1-0.2,0.1-0.3,0.1h-1.7
	c-0.1,0-0.2,0-0.3-0.1c-0.1-0.1-0.1-0.2-0.1-0.2v-0.5c-0.6,0.7-1.4,1.1-2.3,1C31.5,45.6,30.8,45.3,30.3,44.8z"/>
<path class="st2" d="M39.7,45.3c-0.4-0.2-0.8-0.4-1.1-0.8c-0.2-0.2-0.3-0.5-0.4-0.8c0-0.1,0-0.2,0.1-0.2c0.1-0.1,0.1-0.1,0.2-0.1
	h1.7c0.1,0,0.1,0,0.1,0.1l0.3,0.2c0.2,0.1,0.3,0.2,0.5,0.3c0.2,0.1,0.4,0.1,0.6,0.1c0.2,0,0.4,0,0.6-0.2c0.2-0.1,0.2-0.2,0.2-0.4
	c0-0.1,0-0.3-0.1-0.4c-0.1-0.1-0.3-0.2-0.5-0.3c-0.4-0.1-0.7-0.2-1.1-0.3c-1.6-0.3-2.4-1.1-2.4-2.2c0-0.4,0.1-0.8,0.4-1.1
	c0.3-0.4,0.7-0.7,1.1-0.8c0.5-0.2,1.1-0.4,1.7-0.4c0.6,0,1.2,0.1,1.8,0.3c0.4,0.2,0.8,0.4,1.1,0.8c0.2,0.2,0.4,0.5,0.4,0.8
	c0,0.2-0.1,0.3-0.3,0.3H43c-0.1,0-0.1,0-0.2-0.1c-0.1,0-0.2-0.1-0.3-0.1c-0.1-0.1-0.3-0.2-0.5-0.3c-0.2-0.1-0.3-0.1-0.5-0.1
	c-0.2,0-0.4,0-0.5,0.2c-0.1,0.1-0.2,0.2-0.2,0.4c0,0.1,0,0.2,0.1,0.3c0.1,0.1,0.3,0.2,0.5,0.3c0.4,0.1,0.7,0.2,1.1,0.3
	c0.7,0.1,1.4,0.4,2,0.8c0.4,0.4,0.6,0.9,0.6,1.4c0,0.7-0.4,1.3-0.9,1.7c-0.8,0.5-1.7,0.7-2.6,0.6C41,45.6,40.3,45.5,39.7,45.3z"/>
<path class="st2" d="M46.5,37.1c-0.1-0.1-0.1-0.2-0.1-0.3v-1.3c0-0.2,0.2-0.4,0.3-0.4c0,0,0,0,0,0h1.8c0.1,0,0.2,0,0.3,0.1
	c0.1,0.1,0.1,0.2,0.1,0.3v1.3c0,0.2-0.1,0.3-0.3,0.4c0,0,0,0,0,0h-1.7C46.6,37.2,46.6,37.1,46.5,37.1z M46.5,45.3
	c-0.1-0.1-0.1-0.1-0.1-0.2v-6.6c0-0.1,0-0.2,0.1-0.2c0.1-0.1,0.2-0.1,0.2-0.1h1.8c0.1,0,0.2,0,0.3,0.1c0.1,0.1,0.1,0.2,0.1,0.2v6.6
	c0,0.1,0,0.2-0.1,0.2c-0.1,0.1-0.2,0.1-0.3,0.1h-1.8C46.6,45.4,46.6,45.4,46.5,45.3z"/>
<path class="st2" d="M50.5,45.3c-0.1-0.1-0.1-0.1-0.1-0.2v-6.6c0-0.1,0-0.2,0.1-0.2c0.1-0.1,0.2-0.1,0.2-0.1h1.7
	c0.2,0,0.3,0.1,0.3,0.3c0,0,0,0,0,0V39c0.3-0.3,0.6-0.6,1-0.7c0.4-0.2,0.9-0.3,1.3-0.3c0.5,0,1,0.1,1.4,0.4c0.4,0.3,0.8,0.6,1,1.1
	c0.3,0.5,0.4,1.1,0.4,1.7v3.9c0,0.1,0,0.2-0.1,0.2c-0.1,0.1-0.2,0.1-0.2,0.1h-1.9c-0.1,0-0.2,0-0.3-0.1c-0.1-0.1-0.1-0.2-0.1-0.2
	v-3.8c0-0.4-0.1-0.7-0.3-1c-0.2-0.2-0.6-0.4-0.9-0.3c-0.3,0-0.6,0.1-0.9,0.3c-0.2,0.3-0.4,0.6-0.3,1v3.8c0,0.2-0.2,0.3-0.3,0.3h-1.9
	C50.7,45.4,50.6,45.4,50.5,45.3z"/>
<path class="st2" d="M60.2,44.7c-0.7-0.7-1-1.7-1-2.7v-0.4c0-1,0.3-1.9,1-2.6c0.7-0.7,1.7-1,2.7-1c0.7,0,1.4,0.1,2,0.5
	c0.5,0.3,1,0.8,1.2,1.3c0.3,0.6,0.4,1.3,0.4,1.9v0.3c0,0.1,0,0.2-0.1,0.3c-0.1,0.1-0.2,0.1-0.2,0.1h-4.4v0.1c0,0.4,0.1,0.7,0.3,1
	c0.2,0.3,0.5,0.4,0.8,0.4c0.2,0,0.4,0,0.5-0.1c0.1-0.1,0.3-0.2,0.4-0.3c0.1-0.1,0.1-0.1,0.2-0.2c0.1,0,0.2,0,0.2,0h1.8
	c0.1,0,0.2,0,0.2,0.1c0.1,0,0.1,0.1,0.1,0.2c0,0.3-0.2,0.6-0.4,0.8c-0.3,0.4-0.7,0.7-1.2,0.8c-0.6,0.2-1.2,0.4-1.9,0.3
	C61.9,45.6,61,45.3,60.2,44.7z M64,41L64,41c0-0.4-0.1-0.7-0.3-1c-0.4-0.5-1.1-0.5-1.6-0.1c0,0-0.1,0.1-0.1,0.1
	c-0.2,0.3-0.3,0.6-0.3,1l0,0L64,41z"/>
<path class="st2" d="M69,45.3c-0.4-0.2-0.8-0.4-1.1-0.8c-0.2-0.2-0.3-0.5-0.4-0.8c0-0.1,0-0.2,0.1-0.2c0.1-0.1,0.1-0.1,0.2-0.1h1.7
	c0.1,0,0.1,0,0.1,0.1l0.3,0.2c0.2,0.1,0.3,0.2,0.5,0.3C70.6,44,70.8,44,71,44c0.2,0,0.4,0,0.6-0.2c0.2-0.1,0.2-0.2,0.2-0.4
	c0-0.1,0-0.3-0.1-0.4c-0.1-0.1-0.3-0.2-0.5-0.3c-0.4-0.1-0.7-0.2-1.1-0.3c-1.6-0.3-2.4-1.1-2.4-2.2c0-0.4,0.1-0.8,0.3-1.1
	c0.3-0.4,0.7-0.7,1.1-0.8c0.5-0.2,1.1-0.4,1.7-0.4c0.6,0,1.2,0.1,1.8,0.3c0.4,0.2,0.8,0.4,1.1,0.8c0.2,0.2,0.4,0.5,0.4,0.8
	c0,0.1,0,0.2-0.1,0.2c-0.1,0.1-0.1,0.1-0.2,0.1h-1.5c-0.1,0-0.1,0-0.2-0.1c-0.1-0.1-0.2-0.1-0.3-0.2c-0.1-0.1-0.3-0.2-0.4-0.3
	c-0.2-0.1-0.3-0.1-0.5-0.1c-0.2,0-0.4,0-0.5,0.2c-0.1,0.1-0.2,0.2-0.2,0.4c0,0.1,0,0.2,0.1,0.3c0.1,0.1,0.3,0.2,0.5,0.3
	c0.4,0.1,0.7,0.2,1.1,0.3c0.7,0.1,1.4,0.4,2,0.8c0.4,0.4,0.6,0.9,0.6,1.4c0,0.7-0.3,1.4-0.9,1.7c-0.8,0.5-1.7,0.7-2.6,0.6
	C70.3,45.6,69.6,45.5,69,45.3z"/>
<path class="st2" d="M76.8,45.3c-0.4-0.2-0.8-0.4-1.1-0.8c-0.2-0.2-0.3-0.5-0.4-0.8c0-0.1,0-0.2,0.1-0.2c0.1-0.1,0.1-0.1,0.2-0.1
	h1.7c0.1,0,0.1,0,0.1,0.1l0.3,0.2c0.2,0.1,0.3,0.2,0.5,0.3c0.2,0.1,0.4,0.1,0.6,0.1c0.2,0,0.4,0,0.6-0.2c0.1-0.1,0.2-0.2,0.2-0.4
	c0-0.1,0-0.3-0.1-0.4c-0.1-0.1-0.3-0.2-0.5-0.3c-0.4-0.1-0.7-0.2-1.1-0.3c-1.6-0.3-2.4-1.1-2.4-2.2c0-0.4,0.1-0.8,0.4-1.1
	c0.3-0.4,0.7-0.7,1.1-0.8c0.5-0.2,1.1-0.4,1.7-0.4c0.6,0,1.2,0.1,1.8,0.3c0.4,0.2,0.8,0.4,1.1,0.8c0.2,0.2,0.4,0.5,0.4,0.8
	c0,0.1,0,0.2-0.1,0.2c-0.1,0.1-0.1,0.1-0.2,0.1h-1.5c-0.1,0-0.1,0-0.2-0.1c-0.1-0.1-0.2-0.1-0.3-0.2c-0.1-0.1-0.3-0.2-0.4-0.3
	c-0.2-0.1-0.3-0.1-0.5-0.1c-0.2,0-0.4,0-0.6,0.2c-0.1,0.1-0.2,0.2-0.2,0.4c0,0.1,0,0.2,0.1,0.3c0.1,0.1,0.3,0.2,0.5,0.3
	c0.4,0.1,0.7,0.2,1.1,0.3c0.7,0.1,1.4,0.4,2,0.8c0.8,0.8,0.8,2,0,2.8c-0.1,0.1-0.2,0.2-0.3,0.3c-0.8,0.5-1.7,0.7-2.6,0.6
	C78,45.6,77.4,45.5,76.8,45.3z"/>
<path class="st2" d="M87.5,44.6c-0.8-0.7-1.2-1.7-1.2-2.8c0-0.3,0-0.7,0-1.2s0-1,0-1.3c0-1.1,0.4-2.1,1.2-2.8c0.9-0.7,2-1.1,3.1-1
	c0.8,0,1.5,0.1,2.2,0.4c0.6,0.2,1.2,0.6,1.6,1.2c0.4,0.5,0.6,1.2,0.6,1.8c0,0.1,0,0.2-0.1,0.2c-0.1,0.1-0.1,0.1-0.2,0.1h-2
	c-0.1,0-0.2,0-0.3-0.1c-0.1-0.1-0.1-0.2-0.2-0.3c-0.1-0.4-0.3-0.7-0.6-1c-0.3-0.2-0.7-0.3-1.1-0.3c-1.1,0-1.6,0.6-1.6,1.8
	c0,0.3,0,0.6,0,1.2s0,0.9,0,1.2c0,1.2,0.6,1.8,1.6,1.8c0.4,0,0.7-0.1,1.1-0.3c0.3-0.2,0.5-0.6,0.6-1c0-0.1,0.1-0.1,0.2-0.2
	c0.1-0.1,0.2-0.1,0.3-0.1h2c0.1,0,0.2,0,0.2,0.1c0.1,0.1,0.1,0.1,0.1,0.2c0,0.6-0.2,1.3-0.6,1.8c-0.4,0.5-0.9,0.9-1.6,1.2
	c-0.7,0.3-1.5,0.4-2.2,0.4C89.5,45.7,88.4,45.3,87.5,44.6z"/>
<path class="st2" d="M97.4,48c-0.1-0.1-0.1-0.1-0.1-0.2c0-0.1,0-0.1,0-0.2l1.1-2.6l-2.7-6.4c0,0,0-0.1,0-0.2c0-0.1,0.1-0.2,0.1-0.2
	c0.1-0.1,0.1-0.1,0.2-0.1h1.7c0.2,0,0.4,0.1,0.4,0.3l1.6,4l1.6-4c0.1-0.2,0.2-0.3,0.4-0.3h1.7c0.1,0,0.2,0,0.2,0.1
	c0.1,0.1,0.1,0.1,0.1,0.2c0,0.1,0,0.1,0,0.2l-4,9.2c-0.1,0.2-0.2,0.3-0.4,0.3h-1.7C97.6,48.1,97.5,48.1,97.4,48z"/>
<path class="st2" d="M105.2,44.7c-0.7-0.6-1.1-1.5-1.1-2.4v-1.1c0-0.9,0.3-1.8,1-2.4c0.7-0.6,1.7-0.9,2.6-0.8c0.7,0,1.4,0.1,2,0.4
	c0.5,0.2,0.9,0.6,1.2,1c0.2,0.3,0.4,0.7,0.4,1.1c0,0.1,0,0.2-0.1,0.3c-0.1,0.1-0.2,0.1-0.3,0.1h-1.9c-0.1,0-0.2,0-0.2-0.1
	c-0.1-0.1-0.1-0.1-0.2-0.2c-0.1-0.2-0.2-0.4-0.4-0.6c-0.2-0.1-0.4-0.2-0.6-0.2c-0.7,0-1.1,0.5-1.1,1.4v0.5v0.5
	c0,0.4,0.1,0.8,0.3,1.1c0.2,0.2,0.5,0.4,0.8,0.3c0.2,0,0.4-0.1,0.6-0.2c0.2-0.1,0.3-0.4,0.4-0.6c0-0.1,0.1-0.2,0.2-0.2
	c0.1-0.1,0.2-0.1,0.2-0.1h1.9c0.1,0,0.2,0,0.2,0.1c0.1,0.1,0.1,0.1,0.1,0.2c0,0.4-0.2,0.7-0.4,1c-0.3,0.5-0.7,0.8-1.2,1.1
	c-0.7,0.3-1.4,0.5-2.1,0.5C106.8,45.6,105.9,45.3,105.2,44.7z"/>
<path class="st2" d="M112.8,45.3c-0.1-0.1-0.1-0.2-0.1-0.2v-9.2c0-0.1,0-0.2,0.1-0.2c0.1-0.1,0.2-0.1,0.3-0.1h1.8
	c0.2,0,0.3,0.1,0.3,0.3c0,0,0,0,0,0v9.2c0,0.2-0.2,0.3-0.3,0.3h-1.8C113,45.5,112.9,45.4,112.8,45.3z"/>
<path class="st2" d="M117.5,44.7c-0.7-0.7-1-1.7-1-2.7v-0.4c-0.1-1.9,1.3-3.5,3.2-3.6c0.2,0,0.3,0,0.5,0c0.7,0,1.4,0.1,2,0.5
	c0.5,0.3,1,0.8,1.2,1.3c0.3,0.6,0.4,1.3,0.4,1.9v0.3c0,0.2-0.1,0.3-0.3,0.4c0,0,0,0,0,0H119v0.1c0,0.4,0.1,0.7,0.3,1
	c0.3,0.4,0.9,0.5,1.3,0.2c0.1-0.1,0.3-0.2,0.4-0.3c0.1-0.1,0.1-0.1,0.2-0.2c0.1,0,0.2,0,0.2,0h1.8c0.1,0,0.2,0,0.2,0.1
	c0.1,0,0.1,0.1,0.1,0.2c0,0.3-0.2,0.6-0.4,0.8c-0.3,0.4-0.7,0.7-1.2,0.8c-0.6,0.2-1.2,0.4-1.9,0.3C119.2,45.6,118.2,45.3,117.5,44.7
	z M121.3,41L121.3,41c0-0.4-0.1-0.7-0.3-1c-0.2-0.2-0.5-0.4-0.8-0.4c-0.3,0-0.6,0.1-0.8,0.4c-0.2,0.3-0.3,0.7-0.3,1l0,0H121.3z"/>
<path class="st2" d="M128.3,45.3c-0.1-0.1-0.1-0.1-0.1-0.2V36c0-0.1,0-0.2,0.1-0.3c0.1-0.1,0.2-0.1,0.3-0.1h6.5c0.1,0,0.2,0,0.2,0.1
	c0.1,0.1,0.1,0.2,0.1,0.3v1.5c0,0.1,0,0.2-0.1,0.2c-0.1,0.1-0.2,0.1-0.2,0.1h-4.3v1.9h4c0.1,0,0.2,0,0.3,0.1
	c0.1,0.1,0.1,0.2,0.1,0.3v1.5c0,0.2-0.1,0.3-0.3,0.4c0,0,0,0,0,0h-4v3.1c0,0.2-0.2,0.3-0.4,0.3h-1.9
	C128.5,45.4,128.4,45.4,128.3,45.3z"/>
<path class="st2" d="M137.4,44.8c-0.5-0.7-0.8-1.5-0.8-2.3v-3.9c0-0.2,0.2-0.3,0.4-0.3h1.9c0.1,0,0.2,0,0.3,0.1
	c0.1,0.1,0.1,0.2,0.1,0.2v3.8c0,0.9,0.4,1.3,1.2,1.3c0.3,0,0.6-0.1,0.9-0.3c0.2-0.3,0.4-0.6,0.3-1v-3.8c0-0.1,0-0.2,0.1-0.2
	c0.1-0.1,0.2-0.1,0.3-0.1h1.9c0.2,0,0.3,0.1,0.4,0.3c0,0,0,0,0,0v6.6c0,0.2-0.2,0.3-0.4,0.3h-1.7c-0.1,0-0.2,0-0.3-0.1
	c-0.1-0.1-0.1-0.2-0.1-0.2v-0.5c-0.6,0.7-1.4,1.1-2.3,1C138.6,45.6,137.9,45.3,137.4,44.8z"/>
<path class="st2" d="M145.8,45.3c-0.1-0.1-0.1-0.1-0.1-0.2v-6.6c0-0.1,0-0.2,0.1-0.2c0.1-0.1,0.2-0.1,0.2-0.1h1.7
	c0.1,0,0.2,0,0.2,0.1c0.1,0.1,0.1,0.2,0.1,0.2V39c0.3-0.3,0.6-0.6,1-0.7c0.4-0.2,0.9-0.3,1.4-0.3c0.5,0,1,0.1,1.4,0.4
	c0.4,0.3,0.8,0.6,1,1.1c0.2,0.5,0.4,1.1,0.4,1.7v3.9c0,0.1,0,0.2-0.1,0.2c-0.1,0.1-0.2,0.1-0.3,0.1H151c-0.1,0-0.2,0-0.3-0.1
	c-0.1-0.1-0.1-0.2-0.1-0.2v-3.8c0-0.4-0.1-0.7-0.3-1c-0.2-0.2-0.6-0.4-0.9-0.3c-0.3,0-0.7,0.1-0.9,0.3c-0.2,0.3-0.4,0.6-0.3,1v3.8
	c0,0.2-0.2,0.3-0.4,0.3H146C146,45.4,145.9,45.4,145.8,45.3z"/>
<path class="st2" d="M155.4,44.7c-0.6-0.7-0.9-1.6-0.8-2.4v-1c0-0.9,0.3-1.7,0.8-2.4c0.5-0.6,1.3-0.9,2.1-0.9c0.8,0,1.5,0.3,2,0.8
	v-3c0-0.1,0-0.2,0.1-0.2c0.1-0.1,0.2-0.1,0.2-0.1h1.8c0.2,0,0.3,0.1,0.4,0.3c0,0,0,0,0,0v9.3c0,0.2-0.1,0.3-0.3,0.4c0,0,0,0,0,0H160
	c-0.1,0-0.2,0-0.2-0.1c-0.1-0.1-0.1-0.1-0.1-0.2v-0.4c-0.5,0.6-1.3,1-2.2,0.9C156.7,45.6,155.9,45.3,155.4,44.7z M159.2,43.3
	c0.2-0.3,0.3-0.6,0.3-1c0-0.3,0-0.4,0-0.5s0-0.3,0-0.5c0-0.3-0.1-0.7-0.3-0.9c-0.2-0.2-0.6-0.4-0.9-0.4c-0.3,0-0.7,0.1-0.9,0.4
	c-0.2,0.3-0.3,0.6-0.3,1v0.9c0,0.4,0.1,0.7,0.3,1c0.2,0.3,0.6,0.4,0.9,0.4C158.6,43.6,159,43.5,159.2,43.3z"/>
<path class="st2" d="M21.1,66.2c-0.5-0.2-0.9-0.5-1.2-0.9c-0.3-0.3-0.4-0.8-0.4-1.2c0-0.1,0-0.1,0.1-0.2c0-0.1,0.1-0.1,0.2-0.1h0.6
	c0.2,0,0.3,0.1,0.3,0.3c0.1,0.4,0.3,0.7,0.7,0.9c0.5,0.3,1,0.4,1.6,0.4c0.6,0,1.2-0.1,1.7-0.4c0.3-0.2,0.5-0.6,0.6-1
	c0-0.3-0.1-0.5-0.3-0.7c-0.2-0.2-0.5-0.4-0.8-0.5c-0.4-0.1-0.9-0.3-1.6-0.5c-0.6-0.1-1.1-0.4-1.6-0.6c-0.4-0.2-0.7-0.5-0.9-0.8
	c-0.4-0.8-0.4-1.7,0.1-2.5c0.3-0.4,0.7-0.7,1.1-0.9c0.5-0.2,1.1-0.3,1.7-0.3c0.6,0,1.2,0.1,1.7,0.4c0.4,0.2,0.8,0.5,1.1,0.9
	c0.2,0.3,0.4,0.7,0.4,1.1c0,0.1,0,0.1-0.1,0.2c-0.1,0.1-0.1,0.1-0.2,0.1h-0.6c-0.1,0-0.1-0.1-0.2-0.1c-0.1,0-0.1-0.1-0.1-0.2
	c-0.1-0.4-0.3-0.7-0.6-0.9c-0.4-0.3-0.9-0.4-1.4-0.4c-0.5,0-1,0.1-1.4,0.3c-0.3,0.2-0.5,0.6-0.5,1c0,0.3,0.1,0.5,0.2,0.7
	c0.2,0.2,0.5,0.4,0.7,0.5c0.5,0.2,1,0.4,1.5,0.5c0.6,0.2,1.2,0.4,1.7,0.6c0.4,0.2,0.7,0.4,0.9,0.8c0.2,0.4,0.3,0.8,0.3,1.2
	c0,0.8-0.3,1.5-0.9,1.9c-0.7,0.5-1.6,0.7-2.5,0.7C22.3,66.5,21.7,66.4,21.1,66.2z"/>
<path class="st2" d="M28.2,66.3c-0.1-0.1-0.1-0.1-0.1-0.2v-8.5c0-0.1,0-0.2,0.1-0.2c0.1-0.1,0.1-0.1,0.2-0.1H29c0.1,0,0.2,0,0.2,0.1
	c0.1,0.1,0.1,0.1,0.1,0.2v8.5c0,0.1,0,0.2-0.1,0.2c-0.1,0.1-0.1,0.1-0.2,0.1h-0.6C28.3,66.4,28.2,66.3,28.2,66.3z"/>
<path class="st2" d="M31.7,66.3c-0.1-0.1-0.1-0.1-0.1-0.2v-8.5c0-0.1,0-0.2,0.1-0.2c0.1-0.1,0.1-0.1,0.2-0.1h3.3
	c0.8-0.1,1.7,0.2,2.3,0.7c1.1,1.1,1.1,3,0,4.1c-0.7,0.5-1.5,0.7-2.3,0.7h-2.3v3.3c0,0.1,0,0.2-0.1,0.2c-0.1,0.1-0.1,0.1-0.2,0.1
	h-0.6C31.8,66.4,31.7,66.4,31.7,66.3z M35.1,61.8c1.3,0,2-0.6,2-1.7c0-0.5-0.1-0.9-0.5-1.3c-0.4-0.3-0.9-0.5-1.5-0.4h-2.3v3.4H35.1z
	"/>
<path class="st2" d="M43.5,66.2c-0.4-0.2-0.7-0.4-0.9-0.7c-0.2-0.2-0.3-0.4-0.3-0.6c0-0.1,0-0.2,0.1-0.2c0.1,0,0.1-0.1,0.2-0.1h0.5
	c0,0,0.1,0,0.1,0c0,0,0.1,0.1,0.1,0.1c0.2,0.2,0.4,0.4,0.7,0.6c0.3,0.2,0.7,0.2,1,0.2c0.4,0,0.8-0.1,1.1-0.3
	c0.3-0.2,0.4-0.4,0.4-0.8c0-0.2-0.1-0.4-0.2-0.5c-0.2-0.2-0.4-0.3-0.6-0.3c-0.4-0.1-0.8-0.3-1.2-0.3c-0.6-0.1-1.1-0.3-1.6-0.7
	c-0.3-0.3-0.5-0.8-0.5-1.2c0-0.3,0.1-0.7,0.3-0.9c0.2-0.3,0.5-0.6,0.8-0.7c0.4-0.2,0.9-0.3,1.3-0.3c0.5,0,1,0.1,1.4,0.3
	c0.3,0.1,0.6,0.4,0.9,0.6c0.2,0.2,0.3,0.4,0.3,0.6c0,0.1,0,0.1-0.1,0.2c-0.1,0.1-0.1,0.1-0.2,0.1h-0.5c-0.1,0-0.2,0-0.3-0.1
	c-0.1-0.1-0.2-0.3-0.4-0.4c-0.1-0.1-0.3-0.2-0.4-0.2c-0.2-0.1-0.5-0.1-0.7-0.1c-0.4,0-0.7,0.1-1,0.3c-0.2,0.2-0.3,0.4-0.3,0.7
	c0,0.2,0,0.3,0.2,0.5c0.1,0.2,0.3,0.3,0.5,0.3c0.4,0.1,0.8,0.3,1.2,0.3c0.6,0.1,1.2,0.4,1.8,0.7c0.3,0.3,0.5,0.8,0.5,1.2
	c0,0.4-0.1,0.7-0.3,1c-0.3,0.3-0.6,0.6-1,0.7c-0.5,0.2-1,0.3-1.5,0.3C44.4,66.5,43.9,66.4,43.5,66.2z"/>
<path class="st2" d="M49.8,64.1v-3.5h-1c-0.1,0-0.3-0.1-0.3-0.2c0,0,0,0,0,0v-0.4c0-0.1,0-0.2,0.1-0.2c0.1-0.1,0.1-0.1,0.2-0.1h1
	v-2.2c0-0.1,0-0.2,0.1-0.2c0.1-0.1,0.1-0.1,0.2-0.1h0.6c0.2,0,0.3,0.1,0.3,0.3c0,0,0,0,0,0v2.2h1.6c0.2,0,0.3,0.1,0.3,0.3
	c0,0,0,0,0,0v0.4c0,0.1,0,0.2-0.1,0.2c-0.1,0.1-0.1,0.1-0.2,0.1H51V64c0,0.3,0.1,0.7,0.2,1c0.2,0.2,0.4,0.4,0.7,0.3h0.8
	c0.1,0,0.2,0,0.2,0.1c0.1,0.1,0.1,0.1,0.1,0.2v0.4c0,0.1,0,0.2-0.1,0.2c-0.1,0.1-0.1,0.1-0.2,0.1h-0.9
	C50.5,66.4,49.8,65.6,49.8,64.1z"/>
<path class="st2" d="M55,66.2c-0.3-0.2-0.6-0.4-0.9-0.7c-0.2-0.3-0.3-0.6-0.3-1c0-0.6,0.3-1.1,0.7-1.4c0.6-0.4,1.2-0.7,1.9-0.7
	l2-0.3v-0.4c0-0.9-0.5-1.3-1.5-1.3c-0.4,0-0.7,0.1-1,0.2c-0.2,0.1-0.4,0.3-0.5,0.6c0,0.1-0.1,0.1-0.1,0.2c-0.1,0-0.1,0-0.2,0h-0.5
	c-0.1,0-0.1,0-0.2-0.1c-0.1-0.1-0.1-0.1-0.1-0.2c0-0.3,0.1-0.5,0.3-0.7c0.2-0.3,0.5-0.5,0.9-0.7c0.4-0.2,0.9-0.3,1.4-0.3
	c0.8-0.1,1.5,0.2,2.1,0.7c0.4,0.5,0.6,1.1,0.6,1.7V66c0,0.1,0,0.2-0.1,0.2c-0.1,0.1-0.1,0.1-0.2,0.1h-0.6c-0.1,0-0.2,0-0.2-0.1
	c-0.1-0.1-0.1-0.1-0.1-0.2v-0.6c-0.2,0.3-0.5,0.5-0.8,0.7c-0.4,0.2-0.9,0.3-1.4,0.3C55.8,66.5,55.4,66.4,55,66.2z M57.8,65
	c0.4-0.4,0.6-1,0.5-1.6V63l-1.5,0.2c-0.5,0.1-1,0.2-1.4,0.4c-0.4,0.2-0.6,0.8-0.4,1.3c0.1,0.1,0.2,0.3,0.3,0.3
	c0.3,0.2,0.6,0.3,1,0.3C56.9,65.6,57.5,65.4,57.8,65z"/>
<path class="st2" d="M61.5,66.3c-0.1-0.1-0.1-0.1-0.1-0.2v-6.2c0-0.1,0-0.2,0.1-0.2c0.1-0.1,0.1-0.1,0.2-0.1h0.5
	c0.1,0,0.2,0,0.2,0.1c0.1,0.1,0.1,0.1,0.1,0.2v0.6c0.4-0.6,1.1-0.9,1.8-0.9h0.5c0.2,0,0.3,0.1,0.3,0.3c0,0,0,0,0,0v0.5
	c0,0.2-0.1,0.3-0.3,0.3c0,0,0,0,0,0h-0.7c-0.4,0-0.8,0.1-1.1,0.4c-0.3,0.3-0.4,0.7-0.4,1.1v3.8c0,0.1,0,0.2-0.1,0.2
	c-0.1,0.1-0.1,0.1-0.2,0.1h-0.6C61.7,66.4,61.6,66.3,61.5,66.3z"/>
<path class="st2" d="M66.9,64.1v-3.5h-1c-0.1,0-0.3-0.1-0.3-0.2c0,0,0,0,0,0v-0.4c0-0.1,0-0.2,0.1-0.2c0.1-0.1,0.1-0.1,0.2-0.1h1
	v-2.2c0-0.1,0-0.2,0.1-0.2c0.1-0.1,0.1-0.1,0.2-0.1h0.6c0.2,0,0.3,0.1,0.3,0.3c0,0,0,0,0,0v2.2h1.6c0.2,0,0.3,0.1,0.3,0.3
	c0,0,0,0,0,0v0.4c0,0.1,0,0.2-0.1,0.2c-0.1,0.1-0.1,0.1-0.2,0.1h-1.6V64c0,0.3,0.1,0.7,0.2,1c0.2,0.2,0.4,0.4,0.7,0.3h0.8
	c0.1,0,0.2,0,0.2,0.1c0.1,0.1,0.1,0.1,0.1,0.2v0.4c0,0.1,0,0.2-0.1,0.2c-0.1,0.1-0.1,0.1-0.2,0.1h-0.9
	C67.6,66.4,66.9,65.6,66.9,64.1z"/>
<path class="st2" d="M72.2,66.2c-0.3-0.2-0.7-0.4-0.9-0.7c-0.2-0.2-0.3-0.4-0.3-0.6c0-0.1,0-0.2,0.1-0.2c0.1,0,0.1-0.1,0.2-0.1h0.6
	c0,0,0.1,0,0.1,0c0.1,0,0.1,0.1,0.1,0.1c0.2,0.2,0.4,0.4,0.7,0.6c0.3,0.2,0.7,0.2,1,0.2c0.4,0,0.8-0.1,1.1-0.3
	c0.3-0.2,0.4-0.4,0.4-0.8c0-0.2-0.1-0.4-0.2-0.5c-0.2-0.2-0.4-0.3-0.6-0.3c-0.4-0.1-0.8-0.3-1.2-0.3c-0.6-0.1-1.1-0.3-1.6-0.7
	c-0.3-0.3-0.5-0.8-0.5-1.2c0-0.3,0.1-0.7,0.3-0.9c0.2-0.3,0.5-0.6,0.8-0.7c0.4-0.2,0.9-0.3,1.3-0.3c0.5,0,1,0.1,1.4,0.3
	c0.3,0.1,0.6,0.4,0.9,0.6c0.2,0.2,0.3,0.4,0.3,0.6c0,0.1,0,0.1-0.1,0.2c-0.1,0.1-0.1,0.1-0.2,0.1h-0.5c-0.1,0-0.2,0-0.3-0.1
	c-0.1-0.1-0.2-0.3-0.4-0.4c-0.1-0.1-0.3-0.2-0.4-0.2c-0.2-0.1-0.5-0.1-0.7-0.1c-0.4,0-0.7,0.1-1,0.3c-0.2,0.2-0.3,0.4-0.3,0.7
	c0,0.2,0,0.3,0.1,0.5c0.2,0.2,0.3,0.3,0.6,0.3c0.4,0.1,0.8,0.3,1.2,0.3c0.6,0.1,1.2,0.3,1.7,0.7c0.3,0.3,0.5,0.8,0.5,1.2
	c0,0.4-0.1,0.7-0.3,1c-0.3,0.3-0.6,0.6-1,0.7c-0.5,0.2-1,0.3-1.5,0.3C73.1,66.5,72.6,66.4,72.2,66.2z"/>
<path class="st2" d="M81.9,66.2c-0.3-0.2-0.6-0.4-0.9-0.7c-0.2-0.3-0.3-0.6-0.3-1c0-0.6,0.2-1.1,0.7-1.4c0.6-0.4,1.2-0.7,1.9-0.7
	l2-0.3v-0.4c0-0.9-0.5-1.3-1.6-1.3c-0.4,0-0.7,0.1-1,0.2c-0.2,0.1-0.4,0.3-0.5,0.6c0,0.1-0.1,0.1-0.1,0.2c-0.1,0-0.1,0-0.2,0h-0.5
	c-0.1,0-0.2,0-0.2-0.1c0-0.1-0.1-0.1-0.1-0.2c0-0.3,0.1-0.5,0.3-0.7c0.2-0.3,0.5-0.5,0.9-0.7c0.4-0.2,0.9-0.3,1.4-0.3
	c0.8-0.1,1.5,0.2,2.1,0.7c0.4,0.5,0.6,1.1,0.6,1.7V66c0,0.1,0,0.2-0.1,0.2c-0.1,0.1-0.1,0.1-0.2,0.1h-0.6c-0.1,0-0.2,0-0.2-0.1
	c-0.1-0.1-0.1-0.1-0.1-0.2v-0.6c-0.2,0.3-0.5,0.5-0.8,0.7c-0.4,0.2-0.9,0.3-1.4,0.3C82.7,66.5,82.3,66.4,81.9,66.2z M84.7,65
	c0.4-0.4,0.6-1,0.6-1.6V63l-1.5,0.2c-0.5,0-1,0.2-1.4,0.4c-0.4,0.3-0.6,0.8-0.3,1.3c0.1,0.1,0.2,0.2,0.3,0.3
	C83.1,65.7,84.1,65.6,84.7,65z"/>
<path class="st2" d="M88.9,64.1v-3.5h-1c-0.1,0-0.3-0.1-0.3-0.2c0,0,0,0,0,0v-0.4c0-0.1,0-0.2,0.1-0.2c0.1-0.1,0.1-0.1,0.2-0.1h1
	v-2.2c0-0.1,0.1-0.3,0.2-0.3c0,0,0,0,0.1,0h0.6c0.2,0,0.3,0.1,0.3,0.3c0,0,0,0,0,0v2.2h1.6c0.1,0,0.2,0,0.2,0.1
	c0.1,0.1,0.1,0.1,0.1,0.2v0.4c0,0.1,0,0.2-0.1,0.2c-0.1,0.1-0.1,0.1-0.2,0.1H90V64c0,0.3,0.1,0.7,0.2,1c0.2,0.2,0.4,0.4,0.7,0.3h0.8
	c0.1,0,0.2,0,0.2,0.1c0.1,0.1,0.1,0.1,0.1,0.2v0.4c0,0.1,0,0.2-0.1,0.2c-0.1,0.1-0.1,0.1-0.2,0.1h-0.9
	C89.5,66.4,88.9,65.6,88.9,64.1z"/>
<path class="st2" d="M101.8,58.5h-2.2c0.4,0.3,0.7,0.8,0.7,1.3h1.4v0.7h-1.4c-0.1,1.3-1.2,2.2-2.8,2.2c1,1,2.1,2.4,3.2,3.7h-1.2
	c-1-1.2-2-2.4-3.2-3.7v-0.8H97c1.4,0,2.2-0.6,2.2-1.5h-3v-0.7h2.9c-0.2-0.8-0.9-1.1-2-1.1h-0.9v-0.8h5.5L101.8,58.5z"/>
<path class="st2" d="M104.3,66.2c-0.4-0.2-0.8-0.5-1.1-0.9c-0.3-0.4-0.4-0.8-0.4-1.2l0,0c0-0.1,0-0.1,0.1-0.2c0.1,0,0.1-0.1,0.2-0.1
	h0.6c0.2,0,0.3,0.1,0.3,0.3c0.1,0.4,0.4,0.8,0.7,1c0.4,0.2,0.8,0.3,1.2,0.3c0.5,0,1.1-0.2,1.5-0.5c0.4-0.4,0.6-0.9,0.6-1.5
	c0-0.5-0.2-1-0.6-1.4c-0.4-0.3-0.9-0.5-1.5-0.5c-0.3,0-0.5,0-0.8,0.1c-0.2,0.1-0.4,0.2-0.6,0.3c-0.1,0.1-0.2,0.1-0.3,0.2
	c-0.1,0-0.2,0.1-0.2,0.1h-0.6c-0.1,0-0.2,0-0.2-0.1c-0.1,0-0.1-0.1-0.1-0.2l0.4-4.3c0-0.2,0.1-0.3,0.3-0.3h4.5c0.1,0,0.2,0,0.2,0.1
	c0.1,0.1,0.1,0.1,0.1,0.2V58c0,0.1,0,0.2-0.1,0.2c-0.1,0-0.1,0.1-0.2,0.1h-3.8l-0.2,2.7c0.5-0.3,1.1-0.5,1.7-0.5
	c0.5,0,1.1,0.1,1.6,0.3c0.5,0.2,0.9,0.6,1.1,1c0.3,0.5,0.4,1,0.4,1.6c0,0.6-0.1,1.2-0.4,1.7c-0.3,0.5-0.7,0.8-1.2,1.1
	c-0.5,0.2-1.1,0.4-1.7,0.4C105.4,66.5,104.8,66.4,104.3,66.2z"/>
<path class="st2" d="M111.6,65.5c-0.5-0.7-0.8-1.6-0.8-2.6v-2.3c0-0.9,0.3-1.8,0.8-2.5c1.4-1.3,3.5-1.3,4.9,0
	c0.6,0.7,0.8,1.6,0.8,2.5c0,0.2,0,0.6,0,1.2s0,0.9,0,1.1c0,0.9-0.3,1.8-0.8,2.6C115.1,66.8,112.9,66.8,111.6,65.5z M115.6,64.8
	c0.4-0.6,0.6-1.2,0.5-1.9c0-0.2,0-0.6,0-1.1s0-0.8,0-1.1c0-0.7-0.2-1.3-0.5-1.9c-0.4-0.5-0.9-0.7-1.5-0.7c-0.6,0-1.1,0.2-1.5,0.7
	c-0.4,0.6-0.6,1.2-0.5,1.9v2.1c0,0.7,0.2,1.3,0.5,1.9c0.4,0.5,0.9,0.7,1.5,0.7C114.6,65.5,115.2,65.2,115.6,64.8L115.6,64.8z"/>
<path class="st2" d="M119.8,65.5c-0.5-0.7-0.8-1.6-0.8-2.5v-2.3c0-0.9,0.3-1.8,0.8-2.5c1.4-1.3,3.5-1.3,4.9,0
	c0.6,0.7,0.8,1.6,0.8,2.5c0,0.2,0,0.6,0,1.2s0,0.9,0,1.1c0,0.9-0.3,1.8-0.8,2.6C123.4,66.8,121.2,66.8,119.8,65.5L119.8,65.5z
	 M123.8,64.8c0.4-0.6,0.6-1.2,0.5-1.9c0-0.2,0-0.6,0-1.1s0-0.8,0-1.1c0-0.7-0.2-1.3-0.5-1.9c-0.7-0.8-2-0.9-2.8-0.2
	c-0.1,0.1-0.1,0.1-0.2,0.2c-0.4,0.6-0.5,1.2-0.5,1.9v2.1c0,0.7,0.2,1.3,0.5,1.9c0.7,0.8,2,0.9,2.8,0.2
	C123.7,64.9,123.7,64.8,123.8,64.8L123.8,64.8z"/>
<path class="st1" d="M21.6,78.7h78.6c1.5,0,2.8,1.2,2.8,2.8v18.2c0,1.5-1.2,2.8-2.8,2.8H21.6c-1.5,0-2.8-1.2-2.8-2.8V81.5
	C18.9,80,20.1,78.7,21.6,78.7z"/>
<path class="st2" d="M28.9,94.7c-0.1-0.1-0.1-0.1-0.1-0.2V86c0-0.1,0-0.2,0.1-0.2c0.1-0.1,0.1-0.1,0.2-0.1h0.6c0.1,0,0.2,0,0.2,0.1
	c0,0.1,0.1,0.1,0.1,0.2v8.5c0,0.1,0,0.2-0.1,0.2c-0.1,0.1-0.1,0.1-0.2,0.1h-0.6C29,94.8,28.9,94.7,28.9,94.7z"/>
<path class="st2" d="M32.2,94.7c-0.1-0.1-0.1-0.1-0.1-0.2v-6.2c0-0.2,0.1-0.3,0.3-0.3c0,0,0,0,0,0H33c0.1,0,0.2,0,0.2,0.1
	c0.1,0.1,0.1,0.1,0.1,0.2v0.6c0.2-0.3,0.6-0.6,0.9-0.7c0.4-0.2,0.8-0.3,1.3-0.3c0.7,0,1.4,0.3,1.9,0.8c0.5,0.6,0.7,1.3,0.7,2.1v3.7
	c0,0.1,0,0.2-0.1,0.2c-0.1,0.1-0.1,0.1-0.2,0.1h-0.6c-0.2,0-0.3-0.1-0.3-0.3c0,0,0,0,0,0v-3.6c0-0.5-0.1-1-0.5-1.5
	c-0.3-0.4-0.8-0.5-1.3-0.5c-0.5,0-1,0.2-1.3,0.5c-0.4,0.4-0.5,0.9-0.5,1.4v3.6c0,0.1,0,0.2-0.1,0.2c-0.1,0.1-0.1,0.1-0.2,0.1h-0.6
	C32.4,94.8,32.3,94.7,32.2,94.7z"/>
<path class="st2" d="M41.7,94.4l-2.4-6c0,0,0-0.1,0-0.1c0-0.1,0-0.1,0.1-0.2c0-0.1,0.1-0.1,0.2-0.1h0.6c0.1,0,0.3,0.1,0.3,0.2l2,5.2
	l2-5.2c0-0.1,0.1-0.1,0.1-0.2c0.1,0,0.1-0.1,0.2-0.1h0.6c0.1,0,0.1,0,0.2,0.1c0.1,0,0.1,0.1,0.1,0.2v0.1l-2.4,6
	c-0.1,0.2-0.3,0.3-0.5,0.3h-0.5C42,94.8,41.8,94.6,41.7,94.4z"/>
<path class="st2" d="M47.3,94.1c-0.6-0.6-0.9-1.4-0.9-2.2v-0.9c0-0.8,0.3-1.6,0.9-2.2c0.6-0.6,1.3-0.9,2.1-0.8
	c0.8,0,1.7,0.3,2.2,0.9c0.6,0.7,0.8,1.6,0.8,2.5v0.2c0,0.1,0,0.2-0.1,0.2c-0.1,0.1-0.1,0.1-0.2,0.1h-4.5v0.1c0,0.5,0.2,1,0.5,1.4
	c0.3,0.4,0.8,0.6,1.3,0.6c0.3,0,0.7-0.1,1-0.2c0.2-0.1,0.4-0.3,0.6-0.5c0-0.1,0.1-0.1,0.2-0.2c0.1,0,0.1,0,0.2,0H52
	c0.1,0,0.1,0,0.2,0.1c0,0,0.1,0.1,0.1,0.2c0,0.3-0.2,0.5-0.3,0.7c-0.3,0.3-0.6,0.5-1,0.7c-0.5,0.2-1,0.3-1.5,0.3
	C48.6,94.9,47.8,94.6,47.3,94.1z M51.2,90.9L51.2,90.9c0-0.5-0.1-1.1-0.5-1.5c-0.3-0.4-0.8-0.6-1.3-0.6c-0.5,0-1,0.2-1.3,0.6
	c-0.3,0.4-0.5,0.9-0.5,1.5l0,0H51.2z"/>
<path class="st2" d="M54.8,94.6c-0.4-0.2-0.7-0.4-0.9-0.7c-0.2-0.2-0.3-0.4-0.3-0.6c0-0.1,0-0.2,0.1-0.2c0.1,0,0.1-0.1,0.2-0.1h0.5
	c0,0,0.1,0,0.1,0c0,0,0.1,0.1,0.1,0.1c0.2,0.2,0.4,0.4,0.7,0.6c0.3,0.1,0.7,0.2,1,0.2c0.4,0,0.8-0.1,1.1-0.3
	c0.3-0.2,0.4-0.4,0.4-0.8c0-0.2-0.1-0.4-0.2-0.5c-0.2-0.2-0.4-0.3-0.6-0.3c-0.4-0.1-0.8-0.3-1.3-0.3c-0.6-0.1-1.1-0.3-1.6-0.7
	c-0.3-0.3-0.5-0.8-0.5-1.2c0-0.3,0.1-0.7,0.3-0.9c0.2-0.3,0.5-0.6,0.8-0.7c0.4-0.2,0.9-0.3,1.3-0.3c0.5,0,1,0.1,1.4,0.3
	c0.3,0.1,0.6,0.4,0.9,0.6c0.2,0.2,0.3,0.4,0.3,0.6c0,0.1,0,0.1-0.1,0.2c-0.1,0-0.1,0.1-0.2,0.1H58c-0.1,0-0.2,0-0.3-0.1
	c-0.2-0.2-0.3-0.3-0.4-0.4C57.3,89,57.1,89,57,88.9c-0.2-0.1-0.5-0.1-0.7-0.1c-0.4,0-0.7,0.1-1,0.3c-0.2,0.2-0.3,0.4-0.3,0.7
	c0,0.2,0,0.3,0.1,0.5c0.1,0.2,0.3,0.3,0.5,0.3c0.4,0.1,0.8,0.3,1.2,0.3c0.6,0.1,1.2,0.3,1.8,0.7c0.3,0.3,0.5,0.8,0.5,1.2
	c0,0.4-0.1,0.7-0.3,1c-0.2,0.3-0.6,0.6-0.9,0.7c-0.5,0.2-1,0.3-1.5,0.3C55.8,94.9,55.3,94.8,54.8,94.6z"/>
<path class="st2" d="M61.2,92.5V89h-1c-0.1,0-0.2,0-0.2-0.1c-0.1-0.1-0.1-0.1-0.1-0.2v-0.4c0-0.1,0-0.2,0.1-0.2
	C60,88,60.1,88,60.2,88h1v-2.2c0-0.1,0.1-0.3,0.2-0.3c0,0,0,0,0.1,0H62c0.1,0,0.2,0,0.2,0.1c0.1,0.1,0.1,0.1,0.1,0.2V88h1.6
	c0.1,0,0.2,0,0.2,0.1c0.1,0.1,0.1,0.1,0.1,0.2v0.4c0,0.1,0,0.1-0.1,0.2C64.1,89,64,89,63.9,89h-1.6v3.4c0,0.3,0.1,0.7,0.2,1
	c0.2,0.2,0.4,0.4,0.7,0.3h0.8c0.1,0,0.2,0,0.2,0.1c0.1,0.1,0.1,0.1,0.1,0.2v0.4c0,0.1,0,0.2-0.1,0.2c-0.1,0.1-0.1,0.1-0.2,0.1h-0.9
	C61.8,94.8,61.2,94,61.2,92.5z"/>
<path class="st2" d="M69.1,94.7C69,94.6,69,94.5,69,94.5V86c0-0.1,0-0.2,0.1-0.2c0.1-0.1,0.1-0.1,0.2-0.1h0.6c0.1,0,0.1,0,0.2,0
	l0.1,0.1l4.4,6.7V86c0-0.1,0-0.2,0.1-0.2c0.1-0.1,0.1-0.1,0.2-0.1h0.6c0.1,0,0.2,0,0.2,0.1c0.1,0.1,0.1,0.1,0.1,0.2v8.5
	c0,0.1,0,0.2-0.1,0.2c-0.1,0.1-0.1,0.1-0.2,0.1h-0.6c-0.1,0-0.3-0.1-0.3-0.2L70.2,88v6.5c0,0.1,0,0.2-0.1,0.2
	c-0.1,0.1-0.1,0.1-0.2,0.1h-0.6C69.2,94.8,69.1,94.7,69.1,94.7z"/>
<path class="st2" d="M78.4,94.1c-0.5-0.6-0.8-1.3-0.8-2.1v-0.6v-0.6c0-0.8,0.3-1.6,0.8-2.1c1.3-1.1,3.1-1.1,4.4,0
	c0.5,0.6,0.8,1.3,0.8,2.1c0,0.4,0,0.7,0,1.1c0,0.8-0.3,1.6-0.8,2.1C81.5,95.2,79.6,95.2,78.4,94.1z M81.9,93.4
	c0.4-0.4,0.5-1,0.5-1.5c0-0.1,0-0.2,0-0.5s0-0.4,0-0.5c0-0.6-0.2-1.1-0.5-1.5c-0.7-0.7-1.9-0.7-2.6,0c-0.4,0.4-0.5,1-0.5,1.5v1
	c0,0.6,0.2,1.1,0.5,1.5C80,94.1,81.2,94.1,81.9,93.4L81.9,93.4z"/>
<path class="st2" d="M86.6,94.7c-0.1-0.1-0.1-0.2-0.2-0.2l-1.8-6v-0.1c0-0.1,0-0.1,0.1-0.2c0.1-0.1,0.1-0.1,0.2-0.1h0.5
	c0.1,0,0.2,0,0.2,0.1c0,0,0.1,0.1,0.1,0.1l1.5,5l1.6-4.9c0-0.1,0.1-0.1,0.1-0.2c0-0.1,0.1-0.1,0.2-0.1h0.4c0.1,0,0.2,0,0.2,0.1
	c0.1,0,0.1,0.1,0.1,0.2l1.6,4.9l1.5-5c0-0.1,0.1-0.1,0.1-0.1c0.1,0,0.1-0.1,0.2-0.1h0.5c0.1,0,0.1,0,0.2,0.1c0.1,0,0.1,0.1,0.1,0.2
	v0.1l-1.8,6c0,0.1-0.1,0.2-0.2,0.2c-0.1,0.1-0.2,0.1-0.3,0.1h-0.5c-0.2,0-0.4-0.1-0.4-0.3l-1.5-4.7l-1.5,4.7c0,0.2-0.2,0.3-0.4,0.3
	h-0.5C86.8,94.7,86.7,94.7,86.6,94.7z"/>
<rect x="195.3" y="108.4" class="st3" width="7.2" height="0.1"/>
<rect x="178.2" y="106.9" class="st3" width="4.2" height="0.1"/>
<path class="st3" d="M218.9,88.8h-28.8c-0.5-0.1-0.9-0.5-0.9-1V38.3c0-0.5,0.4-0.9,0.9-1h28.8c0.5,0.1,0.9,0.5,0.9,1v49.5
	C219.8,88.3,219.4,88.8,218.9,88.8z M190.1,37.3c-0.5,0.1-0.9,0.5-0.8,1v49.5c-0.1,0.5,0.3,0.9,0.8,1h28.8c0.5-0.1,0.9-0.5,0.8-1
	V38.3c0-0.5-0.3-0.9-0.8-1H190.1z"/>
<path class="st3" d="M251.2,88.8h-28.8c-0.5-0.1-0.9-0.5-0.9-1V38.3c0-0.5,0.4-0.9,0.9-1h28.8c0.5,0.1,0.9,0.5,0.9,1v49.5
	C252.1,88.3,251.7,88.8,251.2,88.8z M222.4,37.3c-0.5,0.1-0.9,0.5-0.8,1v49.5c0,0.5,0.3,0.9,0.8,1h28.8c0.5-0.1,0.9-0.5,0.8-1V38.3
	c0-0.5-0.3-0.9-0.8-1H222.4z"/>
<ellipse id="_Path_" class="st4" cx="221" cy="112.4" rx="42" ry="2.4"/>
<path class="st5" d="M229.1,62.3l-0.3,0.3l-0.3,0.3c-0.2,0.2-0.4,0.4-0.6,0.6c-0.4,0.4-0.8,0.8-1.2,1.2c-0.2,0.2-0.4,0.4-0.7,0.6
	s-0.5,0.4-0.8,0.5c-0.6,0.4-1.3,0.7-1.9,0.9h-0.1h-0.2c-0.3,0-0.7-0.1-1-0.2c-0.2-0.1-0.5-0.2-0.7-0.3c-0.3-0.2-0.6-0.5-0.9-0.8
	c-0.4-0.5-0.8-1-1.2-1.5c-0.3-0.5-0.6-1-0.9-1.6c-0.3-0.5-0.5-1.1-0.8-1.7c-0.2-0.4,0.1-1,0.5-1.1c0.3-0.1,0.7,0,1,0.2l0,0l1.1,1.3
	c0.4,0.4,0.8,0.8,1.1,1.2c0.4,0.4,0.7,0.7,1.1,1c0.2,0.1,0.3,0.2,0.5,0.3c0.1,0,0.1,0,0.1,0s0,0-0.2,0l-0.3,0
	c0.3-0.1,0.6-0.3,0.8-0.5c0.3-0.3,0.6-0.6,1-0.9s0.6-0.7,1-1l0.5-0.5l0.4-0.5l0.1-0.1c0.7-0.7,1.8-0.8,2.5-0.1
	C229.6,60.6,229.7,61.6,229.1,62.3L229.1,62.3z"/>
<path class="st6" d="M218,60.3c-0.8,0.1-1.6-1.2-1.6-1.2l-0.6-0.8c-0.2-0.3-0.2-0.6,0-0.9l0.5-0.6c0.2-0.3,0.7-0.3,1-0.1
	c0,0,0,0,0,0l0.7,0.6c0.1,0.1,0.2,0.3,0.3,0.4l0.3,0.6c0.2,0.5,0.1,1.2-0.2,1.6l-0.1,0.1C218.2,60.2,218.1,60.3,218,60.3z"/>
<path class="st5" d="M238.4,91.3c-1.1-7.8-1.5-12.5-2.2-16.4l-6.7-0.1c0,0,3,12.5,4.4,17.6s9.5,17.8,9.5,17.8l1.8-1.1
	C245.3,109.2,240.3,97.2,238.4,91.3z"/>
<path class="st5" d="M242.3,112.2c0,0,1.3-1.6,1.3-2.2l1.5-0.9l0.8,1.6l-0.7,0.4l-0.2-0.1l-0.2,0.3c-0.8,0.5-1.6,0.9-2.5,1.2
	C242.3,112.5,242.3,112.3,242.3,112.2z"/>
<path class="st5" d="M236,59.1c-2.7-0.3-5.3-0.3-8,0.1c-1.2,0.2-2.1,1.1-2.2,2.3c-0.5,3.4-0.1,9.4,0.2,15.4c3.5,1,7.2,1,10.6,0
	c0-2.4-0.1-4.9-0.5-7.3c0.4-2.2,1.3-4.7,1.9-7.6c0.3-1.3-0.5-2.6-1.8-2.9C236.2,59.1,236.1,59.1,236,59.1z"/>
<path class="st7" d="M229.9,59c-0.3,0.4-0.5,0.8-0.6,1.3c-0.2,2,0.1,4.1,0.8,6c0.9-2.1,1.9-4.2,3.1-6.1c0.4-0.7,0.8-1.2,0.8-1.2l0,0
	C232.6,58.6,231.2,58.7,229.9,59z"/>
<path class="st6" d="M233.6,54.6l-2.7,2.2c0.4,0.9,0.5,1.9-1.1,2.2c-0.4,0.5,0.3,1.1,0.9,1.3c1.1,0,2.2-0.5,3.1-1.3
	C233.5,57.6,233.5,56.1,233.6,54.6z"/>
<path class="st2" d="M230.2,59.8c0.1,0.3,0.3,0.6,0.6,0.8c0.4-0.1,0.7-0.2,1-0.5c0,0-0.2-0.7-0.6-0.8
	C230.8,59.5,230.5,59.6,230.2,59.8z"/>
<path class="st2" d="M231.1,60.4c-0.1-0.1-0.3-0.1-0.5-0.1c-0.6,1-1,2.2-1.2,3.3c0.2,0.9,0.4,1.8,0.6,2.7c0.3-0.8,0.7-1.6,1.1-2.4
	C231,62.7,231,61.5,231.1,60.4z"/>
<path class="st8" d="M232.5,55.5l-1.5,1.3c0.1,0.2,0.1,0.4,0.2,0.7c0.7,0,1.3-0.5,1.5-1.1C232.7,56,232.6,55.8,232.5,55.5z"/>
<path class="st5" d="M229.6,50.9c-0.9,0.5-0.4,1-0.4,1c-0.2,0.6-0.2,1.2,0.1,1.7C231.6,50.9,229.6,50.9,229.6,50.9z"/>
<path class="st6" d="M234,53.1c-0.2,1.7-0.3,2.7-1.2,3.5c-1,0.8-2.4,0.6-3.2-0.4c-0.3-0.3-0.4-0.7-0.5-1.1c-0.2-1.6,0.2-4.1,1.9-4.6
	c1.2-0.4,2.6,0.3,2.9,1.6C234,52.4,234.1,52.7,234,53.1z"/>
<path class="st5" d="M234,54.1c-1.1,0.1-0.9-1.7-0.5-2c-1.1,0-0.9-0.7-0.7-1c-1.8,0.4-3,0.5-3.8-0.4c-0.6-0.7-1.2,0.1-1.4-0.6
	c0.4,0.2,1.2-0.9,1.7-0.4s1.1-1.2,1.9-0.5c1.1,1,3.9-1.7,3.7,1.2c1.5,1.2-0.5,2-0.4,3.4C234,54.4,234,54.1,234,54.1z"/>
<path class="st5" d="M234.2,50.8c-0.1,0-0.1-0.1-0.1-0.1c0,0,0-0.1,0.1-0.1c0.4-0.1,0.7-0.3,0.9-0.6c0.1-0.2,0.2-0.4,0.1-0.6
	c0,0,0-0.1,0-0.1c0,0,0,0,0,0c0.1,0,0.1,0,0.1,0.1c0,0,0,0,0,0c0.1,0.3,0,0.6-0.1,0.8C235,50.4,234.7,50.7,234.2,50.8L234.2,50.8z"
	/>
<path class="st6" d="M234.6,54.4c-0.2,0.4-0.5,0.6-0.8,0.8c-0.5,0.2-0.8-0.2-0.7-0.7s0.4-1,0.9-1c0.4,0,0.6,0.4,0.6,0.7
	C234.6,54.3,234.6,54.3,234.6,54.4z"/>
<path class="st5" d="M231.5,53.1c0,0.1-0.1,0.2-0.2,0.2s-0.1-0.1-0.1-0.3s0.1-0.2,0.2-0.2S231.5,53,231.5,53.1z"/>
<path class="st5" d="M229.8,53.1c0,0.1-0.1,0.2-0.2,0.2s-0.1-0.1-0.1-0.3s0.1-0.2,0.2-0.2S229.9,53,229.8,53.1z"/>
<path class="st9" d="M230.3,53.3c-0.2,0.4-0.5,0.8-0.8,1.1c0.2,0.2,0.4,0.2,0.6,0.2L230.3,53.3z"/>
<path class="st5" d="M232.1,52.7L232.1,52.7c0,0,0-0.1,0-0.1c-0.1-0.2-0.3-0.4-0.6-0.5c0,0-0.1,0-0.1,0.1c0,0,0,0,0,0
	c0,0,0,0.1,0.1,0.1c0,0,0,0,0,0l0,0c0.2,0.1,0.4,0.2,0.4,0.4C231.9,52.7,232,52.8,232.1,52.7z"/>
<path class="st5" d="M229.2,52.6C229.3,52.6,229.3,52.6,229.2,52.6c0.2-0.1,0.5-0.2,0.7-0.1c0,0,0.1,0,0.1-0.1c0,0,0-0.1,0-0.1
	c-0.3-0.1-0.5,0-0.7,0.1C229.2,52.5,229.2,52.5,229.2,52.6C229.2,52.6,229.2,52.6,229.2,52.6z"/>
<path class="st7" d="M234,58.9L234,58.9c0,0-0.3,0.5-0.8,1.2c-0.4,0.4-1,0.7-1.6,0.8c0-0.6-0.1-1.1-0.5-1.6
	C232.2,59.4,233.1,59.3,234,58.9z"/>
<path class="st10" d="M234,58.9L234,58.9c0,0-0.3,0.5-0.8,1.2c-0.4,0.4-1,0.7-1.6,0.8c0-0.6-0.1-1.1-0.5-1.6
	C232.2,59.4,233.1,59.3,234,58.9z"/>
<path class="st7" d="M231.2,59.4c-0.6,0.3-1.1,0.8-1.4,1.4c-0.2-0.1-0.4-0.3-0.5-0.6c0.1-0.5,0.3-0.9,0.6-1.3
	C230.2,59.3,230.7,59.4,231.2,59.4z"/>
<path class="st10" d="M231.2,59.4c-0.6,0.3-1.1,0.8-1.4,1.4c-0.2-0.1-0.4-0.3-0.5-0.6c0.1-0.5,0.3-0.9,0.6-1.3
	C230.2,59.3,230.7,59.4,231.2,59.4z"/>
<path class="st5" d="M237.6,60.1c0.4,0.5,0.8,1,1.2,1.5c0.4,0.5,0.7,1,1.1,1.5s0.7,1.1,1,1.7c0.2,0.3,0.3,0.7,0.4,1
	c0.1,0.4,0.3,0.8,0.3,1.2v0.1c0,0.2,0,0.4-0.1,0.6c-0.2,0.7-0.6,1.3-1.1,1.8c-0.2,0.2-0.4,0.5-0.6,0.7c-0.2,0.2-0.4,0.4-0.7,0.6
	c-0.4,0.4-0.9,0.7-1.4,1.1c-0.5,0.3-1,0.6-1.5,0.9c-0.4,0.2-0.9,0-1.1-0.4c-0.2-0.3-0.1-0.7,0.1-1l0,0c0.3-0.4,0.7-0.8,1-1.1
	s0.7-0.8,1-1.2c0.3-0.4,0.6-0.8,0.8-1.2c0.2-0.3,0.4-0.7,0.4-1.1v0.8c-0.1-0.2-0.1-0.3-0.2-0.5l-0.4-0.7c-0.1-0.2-0.3-0.4-0.4-0.7
	s-0.3-0.5-0.5-0.7c-0.3-0.5-0.7-0.9-1-1.4l-1-1.3l0,0c-0.6-0.7-0.5-1.8,0.3-2.4C236,59.4,237.1,59.5,237.6,60.1L237.6,60.1z"/>
<path class="st6" d="M236.1,72.4c0-0.1,0-0.2-0.1-0.3l-0.5-0.7c-0.1-0.1-0.2-0.2-0.4-0.2l-0.7,0.1c-0.7,0.1-1.3,0.4-1.8,0.8
	l-0.2,0.1c-0.3,0.2-0.4,0.6-0.2,0.9c0,0,0,0,0,0l0.5,0.7c0.2,0.3,0.6,0.3,0.9,0.2l0.9-0.4C234.6,73.7,236.1,73.3,236.1,72.4z"/>
<path class="st7" d="M235.8,71.1c-0.3,0-0.6,0-0.9,0c-0.2,0.5,0.6,2,1.1,2.2c0.3-0.2,0.6-0.4,0.9-0.6
	C236.4,72.3,236,71.5,235.8,71.1z"/>
<path class="st7" d="M219.2,59.9c0-0.3,0-0.6-0.1-0.9c-0.5-0.1-1.9,0.8-2.1,1.3c0.2,0.3,0.4,0.6,0.7,0.8
	C218.1,60.7,218.8,60.2,219.2,59.9z"/>
<polygon class="st7" points="243.4,110.3 245.4,109.2 245,108 242.7,109.5 "/>
<path class="st5" d="M231.9,92c0.5-7.9,1.4-13.2,1-17.1l-6.7-0.1c0,0,0.7,12.6,1.1,17.8s2.7,18.2,2.7,18.2h2
	C232,110.7,232.6,98.1,231.9,92z"/>
<path class="st5" d="M226.6,111.8c0,0,3.4-0.7,3.6-1.2h1.7l0.1,1.8h-1.4l-0.2-0.2l-0.3,0.2c-1.2,0-2.4,0-3.6-0.2
	C226.5,111.9,226.6,111.8,226.6,111.8z"/>
<polygon class="st7" points="229.9,110.8 232.1,110.9 232.2,109.6 229.6,109.7 "/>
<path class="st5" d="M230.9,55.1c-0.1,0-0.2,0-0.3,0l0,0c0,0,0,0,0.1,0c0.4,0.1,0.8-0.1,1.1-0.3c0,0,0.1,0,0.1,0c0,0,0,0,0,0.1
	C231.5,55,231.2,55.1,230.9,55.1z"/>
<rect x="242.3" y="89.6" class="st7" width="1.8" height="0.2"/>
<rect x="245.4" y="89.6" class="st7" width="4" height="0.2"/>
<path class="st11" d="M250.8,80.8h-25.1l-4.1,7.5c-0.1,0.2-0.1,0.5,0.2,0.7c0.1,0,0.2,0.1,0.3,0.1h28.8l2.1-4.1L250.8,80.8z"/>
<path class="st7" d="M222.6,44.5c9,0.8,16,8.1,16.5,17.1c0,0.3,0.2,0.5,0.5,0.5c0.1,0,0.1,0,0.2-0.1l3.1-1.5c0.2-0.1,0.5-0.1,0.7,0
	l3,1.5c0.2,0.1,0.5,0,0.7-0.2c0-0.1,0.1-0.2,0.1-0.2C246.7,48,236,37.1,222.5,36.2l-2,4.1L222.6,44.5z"/>
<path class="st12" d="M222.6,44.5c9,0.8,16,8.1,16.5,17.1c0,0.3,0.2,0.5,0.5,0.5c0.1,0,0.1,0,0.2-0.1l3.1-1.5c0.2-0.1,0.5-0.1,0.7,0
	l3,1.5c0.2,0.1,0.5,0,0.7-0.2c0-0.1,0.1-0.2,0.1-0.2C246.7,48,236,37.1,222.5,36.2l-2,4.1L222.6,44.5z"/>
<path class="st7" d="M202.8,61c0.8-9,8.1-16,17.1-16.5c0.3,0,0.5-0.3,0.5-0.5c0-0.1,0-0.1-0.1-0.2l-1.5-3c-0.1-0.2-0.1-0.5,0-0.7
	l1.5-3c0.1-0.3,0-0.6-0.2-0.7c-0.1,0-0.2-0.1-0.2,0c-13.5,0.6-24.4,11.2-25.3,24.7l4.1,2L202.8,61z"/>
<path class="st13" d="M202.8,61c0.8-9,8.1-16,17.1-16.5c0.3,0,0.5-0.3,0.5-0.5c0-0.1,0-0.1-0.1-0.2l-1.5-3c-0.1-0.2-0.1-0.5,0-0.7
	l1.5-3c0.1-0.3,0-0.6-0.2-0.7c-0.1,0-0.2-0.1-0.2,0c-13.5,0.6-24.4,11.2-25.3,24.7l4.1,2L202.8,61z"/>
<path class="st7" d="M219.3,80.7L219.3,80.7c-9-0.8-16-8.1-16.5-17.1c0-0.3-0.3-0.5-0.5-0.5c-0.1,0-0.1,0-0.2,0.1l-3,1.5
	c-0.2,0.1-0.5,0.1-0.7,0l-3-1.5c-0.2-0.1-0.5,0-0.7,0.2c0,0.1-0.1,0.2-0.1,0.2c0.3,6.4,2.8,12.5,7.2,17.1h-12.7l2.1,4.2l-2,4h30.2
	l2-4.1L219.3,80.7z"/>
<path class="st13" d="M219.3,80.7L219.3,80.7c-9-0.8-16-8.1-16.5-17.1c0-0.3-0.3-0.5-0.5-0.5c-0.1,0-0.1,0-0.2,0.1l-3,1.5
	c-0.2,0.1-0.5,0.1-0.7,0l-3-1.5c-0.2-0.1-0.5,0-0.7,0.2c0,0.1-0.1,0.2-0.1,0.2c0.3,6.4,2.8,12.5,7.2,17.1h-12.7l2.1,4.2l-2,4h30.2
	l2-4.1L219.3,80.7z"/>
<path class="st7" d="M239,64.2L239,64.2c-0.8,9-8.1,16-17.1,16.5c-0.3,0-0.5,0.3-0.5,0.5c0,0.1,0,0.1,0.1,0.2l1.5,3.1
	c0.1,0.2,0.1,0.5,0,0.7l-1.5,3c-0.1,0.2-0.1,0.5,0.1,0.7c0.1,0.1,0.2,0.1,0.3,0.1c13.5-0.6,24.5-11.3,25.3-24.8l-4.1-2L239,64.2z"/>
<path class="st11" d="M239,64.2L239,64.2c-0.8,9-8.1,16-17.1,16.5c-0.3,0-0.5,0.3-0.5,0.5c0,0.1,0,0.1,0.1,0.2l1.5,3.1
	c0.1,0.2,0.1,0.5,0,0.7l-1.5,3c-0.1,0.2-0.1,0.5,0.1,0.7c0.1,0.1,0.2,0.1,0.3,0.1c13.5-0.6,24.5-11.3,25.3-24.8l-4.1-2L239,64.2z"/>
<rect x="188.5" y="80.2" class="st13" width="11.8" height="31.1"/>
<rect x="191.5" y="80.2" class="st14" width="8.8" height="31.1"/>
<rect x="203.9" y="90.8" class="st13" width="11.8" height="20.5"/>
<rect x="206.9" y="90.7" class="st15" width="8.8" height="20.6"/>
<rect x="173" y="85.7" class="st13" width="11.8" height="25.5"/>
<rect x="176" y="85.7" class="st16" width="8.8" height="25.6"/>
<path class="st17" d="M177.6,111.3c0,0.4,1.2,0.7,2.7,0.8s2.7-0.2,2.8-0.6s-1.2-0.7-2.7-0.8S177.6,110.9,177.6,111.3z"/>
<rect x="179.9" y="108.3" transform="matrix(4.239879e-02 -0.9991 0.9991 4.239879e-02 61.6787 286.4848)" class="st17" width="0.7" height="5.4"/>
<path class="st7" d="M177.6,110.6c0,0.4,1.2,0.7,2.7,0.8s2.7-0.2,2.8-0.6s-1.2-0.7-2.7-0.8S177.6,110.2,177.6,110.6z"/>
<path class="st2" d="M177.6,110.6c0,0.4,1.2,0.7,2.7,0.8s2.7-0.2,2.8-0.6s-1.2-0.7-2.7-0.8S177.6,110.2,177.6,110.6z"/>
<path class="st7" d="M177.9,110.6C177.9,110.6,177.9,110.6,177.9,110.6c1.5-0.4,3.2-0.3,4.7,0.3c0,0,0,0,0-0.1c0-0.3-1-0.5-2.4-0.6
	S178,110.3,177.9,110.6z"/>
<path class="st17" d="M177.9,110.6C177.9,110.6,177.9,110.6,177.9,110.6c1.5-0.4,3.2-0.3,4.7,0.3c0,0,0,0,0-0.1c0-0.3-1-0.5-2.4-0.6
	S178,110.3,177.9,110.6z"/>
<g class="st18">
	<path class="st19" d="M178,110.7c0.7,0.4,1.5,0.6,2.3,0.5c0.8,0.1,1.6,0,2.4-0.3C181.2,110.3,179.5,110.2,178,110.7z"/>
</g>
<path class="st17" d="M177,110.3c0,0.4,1.2,0.7,2.7,0.8s2.7-0.2,2.8-0.6s-1.2-0.7-2.7-0.8S177,109.9,177,110.3z"/>
<rect x="179.4" y="107.3" transform="matrix(4.239879e-02 -0.9991 0.9991 4.239879e-02 62.1826 284.9413)" class="st17" width="0.7" height="5.4"/>
<path class="st7" d="M177,109.6c0,0.4,1.2,0.7,2.7,0.8s2.7-0.2,2.8-0.6s-1.2-0.7-2.7-0.8S177,109.2,177,109.6z"/>
<path class="st2" d="M177,109.6c0,0.4,1.2,0.7,2.7,0.8s2.7-0.2,2.8-0.6s-1.2-0.7-2.7-0.8S177,109.2,177,109.6z"/>
<path class="st7" d="M177.4,109.6C177.4,109.6,177.4,109.6,177.4,109.6c0.7-0.3,1.6-0.4,2.4-0.2c0.8,0,1.6,0.1,2.3,0.5v-0.1
	c0-0.3-1.1-0.5-2.4-0.6S177.4,109.3,177.4,109.6z"/>
<path class="st17" d="M177.4,109.6C177.4,109.6,177.4,109.6,177.4,109.6c0.7-0.3,1.6-0.4,2.4-0.2c0.8,0,1.6,0.1,2.3,0.5v-0.1
	c0-0.3-1.1-0.5-2.4-0.6S177.4,109.3,177.4,109.6z"/>
<g class="st18">
	<path class="st19" d="M177.4,109.6c0.7,0.4,1.5,0.5,2.3,0.5c0.8,0.1,1.6,0,2.4-0.3c-0.7-0.4-1.5-0.5-2.3-0.5
		C179,109.2,178.1,109.3,177.4,109.6z"/>
</g>
<path class="st17" d="M177.1,109c0,0.4,1.2,0.7,2.7,0.8s2.7-0.2,2.8-0.6s-1.2-0.7-2.7-0.8S177.1,108.6,177.1,109z"/>
<rect x="179.5" y="106" transform="matrix(4.239879e-02 -0.9991 0.9991 4.239879e-02 63.5066 283.796)" class="st17" width="0.7" height="5.4"/>
<path class="st7" d="M177.1,108.3c0,0.4,1.2,0.7,2.7,0.8s2.7-0.2,2.8-0.6s-1.2-0.7-2.7-0.8S177.1,107.9,177.1,108.3z"/>
<path class="st2" d="M177.1,108.3c0,0.4,1.2,0.7,2.7,0.8s2.7-0.2,2.8-0.6s-1.2-0.7-2.7-0.8S177.1,107.9,177.1,108.3z"/>
<path class="st7" d="M177.4,108.3C177.4,108.3,177.4,108.3,177.4,108.3c1.5-0.4,3.2-0.3,4.7,0.3c0,0,0,0,0-0.1c0-0.3-1-0.5-2.4-0.6
	S177.4,108,177.4,108.3z"/>
<path class="st17" d="M177.4,108.3C177.4,108.3,177.4,108.3,177.4,108.3c1.5-0.4,3.2-0.3,4.7,0.3c0,0,0,0,0-0.1c0-0.3-1-0.5-2.4-0.6
	S177.4,108,177.4,108.3z"/>
<g class="st18">
	<path class="st19" d="M177.5,108.4c1.5,0.6,3.2,0.7,4.7,0.2C180.7,108,179,107.9,177.5,108.4z"/>
</g>
<path class="st17" d="M176.5,108c0,0.4,1.2,0.7,2.7,0.8s2.7-0.2,2.8-0.6s-1.2-0.7-2.7-0.8S176.5,107.6,176.5,108z"/>
<rect x="178.9" y="105" transform="matrix(4.239879e-02 -0.9991 0.9991 4.239879e-02 64.0009 282.2225)" class="st17" width="0.7" height="5.4"/>
<path class="st7" d="M176.5,107.3c0,0.4,1.2,0.7,2.7,0.8s2.7-0.2,2.8-0.6s-1.2-0.7-2.7-0.8S176.5,106.9,176.5,107.3z"/>
<path class="st2" d="M176.5,107.3c0,0.4,1.2,0.7,2.7,0.8s2.7-0.2,2.8-0.6s-1.2-0.7-2.7-0.8S176.5,106.9,176.5,107.3z"/>
<path class="st7" d="M176.9,107.3C176.9,107.3,176.9,107.3,176.9,107.3c1.5-0.4,3.2-0.3,4.7,0.3c0,0,0,0,0-0.1c0-0.3-1-0.5-2.4-0.6
	S176.9,107,176.9,107.3z"/>
<path class="st17" d="M176.9,107.3C176.9,107.3,176.9,107.3,176.9,107.3c1.5-0.4,3.2-0.3,4.7,0.3c0,0,0,0,0-0.1c0-0.3-1-0.5-2.4-0.6
	S176.9,107,176.9,107.3z"/>
<g class="st18">
	<path class="st19" d="M176.9,107.3c0.7,0.4,1.5,0.6,2.3,0.5c0.8,0.1,1.6,0,2.4-0.3C180.1,106.9,178.4,106.9,176.9,107.3z"/>
</g>
<path class="st17" d="M177.4,107.1c0,0.4,1.2,0.7,2.7,0.8s2.7-0.2,2.8-0.6s-1.2-0.7-2.7-0.8S177.4,106.7,177.4,107.1z"/>
<rect x="179.8" y="104.1" transform="matrix(4.239879e-02 -0.9991 0.9991 4.239879e-02 65.7279 282.2505)" class="st17" width="0.7" height="5.4"/>
<path class="st7" d="M177.4,106.4c0,0.4,1.2,0.8,2.7,0.8s2.7-0.2,2.8-0.6s-1.2-0.8-2.7-0.8S177.4,106,177.4,106.4z"/>
<path class="st2" d="M177.4,106.4c0,0.4,1.2,0.8,2.7,0.8s2.7-0.2,2.8-0.6s-1.2-0.8-2.7-0.8S177.4,106,177.4,106.4z"/>
<path class="st7" d="M177.7,106.4C177.7,106.4,177.7,106.4,177.7,106.4c0.7-0.2,1.6-0.3,2.4-0.2c0.8-0.1,1.6,0.1,2.3,0.5
	c0,0,0,0,0-0.1c0-0.2-1-0.5-2.4-0.6S177.8,106.1,177.7,106.4z"/>
<path class="st17" d="M177.7,106.4C177.7,106.4,177.7,106.4,177.7,106.4c0.7-0.2,1.6-0.3,2.4-0.2c0.8-0.1,1.6,0.1,2.3,0.5
	c0,0,0,0,0-0.1c0-0.2-1-0.5-2.4-0.6S177.8,106.1,177.7,106.4z"/>
<g class="st18">
	<path class="st19" d="M177.8,106.4c0.7,0.4,1.5,0.6,2.3,0.5c0.8,0.1,1.6,0,2.4-0.3c-0.7-0.4-1.5-0.6-2.3-0.5
		C179.3,106,178.5,106.1,177.8,106.4z"/>
</g>
<path class="st17" d="M176.8,106c0,0.4,1.2,0.7,2.7,0.8s2.7-0.2,2.8-0.6s-1.2-0.7-2.7-0.8S176.8,105.7,176.8,106z"/>
<rect x="179.2" y="103.1" transform="matrix(4.239879e-02 -0.9991 0.9991 4.239879e-02 66.2227 280.6775)" class="st17" width="0.7" height="5.4"/>
<path class="st7" d="M176.8,105.3c0,0.4,1.2,0.7,2.7,0.8s2.7-0.2,2.7-0.6s-1.2-0.7-2.7-0.8S176.8,105,176.8,105.3z"/>
<path class="st2" d="M176.8,105.3c0,0.4,1.2,0.7,2.7,0.8s2.7-0.2,2.7-0.6s-1.2-0.7-2.7-0.8S176.8,105,176.8,105.3z"/>
<path class="st7" d="M177.2,105.3C177.2,105.4,177.2,105.4,177.2,105.3c1.5-0.4,3.2-0.3,4.7,0.3c0,0,0,0,0-0.1c0-0.3-1-0.5-2.4-0.6
	S177.2,105.1,177.2,105.3z"/>
<path class="st17" d="M177.2,105.3C177.2,105.4,177.2,105.4,177.2,105.3c1.5-0.4,3.2-0.3,4.7,0.3c0,0,0,0,0-0.1c0-0.3-1-0.5-2.4-0.6
	S177.2,105.1,177.2,105.3z"/>
<g class="st18">
	<path class="st19" d="M177.2,105.4c1.5,0.6,3.2,0.7,4.7,0.2C180.4,105,178.7,104.9,177.2,105.4z"/>
</g>
<path class="st20" d="M169.4,111c0,0.4,1.2,0.7,2.7,0.8s2.7-0.2,2.8-0.6s-1.2-0.7-2.7-0.8S169.5,110.6,169.4,111z"/>
<rect x="171.8" y="108" transform="matrix(4.239879e-02 -0.9991 0.9991 4.239879e-02 54.2496 278.0713)" class="st20" width="0.7" height="5.4"/>
<path class="st7" d="M169.5,110.3c0,0.4,1.2,0.7,2.7,0.8s2.7-0.2,2.8-0.6s-1.2-0.7-2.7-0.8S169.5,109.9,169.5,110.3z"/>
<path class="st2" d="M169.5,110.3c0,0.4,1.2,0.7,2.7,0.8s2.7-0.2,2.8-0.6s-1.2-0.7-2.7-0.8S169.5,109.9,169.5,110.3z"/>
<path class="st7" d="M169.8,110.3c1.5-0.5,3.2-0.4,4.7,0.2c0,0,0,0,0-0.1c0-0.3-1-0.5-2.4-0.6S169.8,110,169.8,110.3L169.8,110.3z"
	/>
<path class="st20" d="M169.8,110.3c1.5-0.5,3.2-0.4,4.7,0.2c0,0,0,0,0-0.1c0-0.3-1-0.5-2.4-0.6S169.8,110,169.8,110.3L169.8,110.3z"
	/>
<path class="st19" d="M169.9,110.3c0.7,0.4,1.5,0.6,2.3,0.5c0.8,0.1,1.6,0,2.4-0.3C173,109.9,171.4,109.9,169.9,110.3z"/>
<path class="st17" d="M171.8,110.3c-0.1,0.4,1,1,2.5,1.3s2.7,0.3,2.8,0s-1-1-2.5-1.3S171.9,109.9,171.8,110.3z"/>
<rect x="174.2" y="107.9" transform="matrix(0.2314 -0.9729 0.9729 0.2314 26.5675 254.8189)" class="st17" width="0.7" height="5.4"/>
<path class="st7" d="M172,109.6c-0.1,0.4,1,1,2.5,1.3s2.7,0.3,2.8-0.1s-1-0.9-2.5-1.3S172.1,109.2,172,109.6z"/>
<path class="st2" d="M172,109.6c-0.1,0.4,1,1,2.5,1.3s2.7,0.3,2.8-0.1s-1-0.9-2.5-1.3S172.1,109.2,172,109.6z"/>
<path class="st7" d="M172.3,109.7C172.3,109.7,172.3,109.7,172.3,109.7c0.8-0.1,1.6,0,2.4,0.2c0.8,0.1,1.6,0.4,2.2,0.9
	c0,0,0,0,0-0.1c0.1-0.2-0.9-0.7-2.2-1S172.4,109.4,172.3,109.7z"/>
<path class="st17" d="M172.3,109.7C172.3,109.7,172.3,109.7,172.3,109.7c0.8-0.1,1.6,0,2.4,0.2c0.8,0.1,1.6,0.4,2.2,0.9
	c0,0,0,0,0-0.1c0.1-0.2-0.9-0.7-2.2-1S172.4,109.4,172.3,109.7z"/>
<g class="st18">
	<path class="st19" d="M172.3,109.8c0.6,0.5,1.4,0.8,2.2,0.9c0.8,0.3,1.6,0.3,2.4,0.2c-0.6-0.5-1.4-0.8-2.2-0.9
		C173.9,109.6,173.1,109.6,172.3,109.8z"/>
</g>
<circle class="st17" cx="178.7" cy="103.3" r="2.4"/>
<circle class="st7" cx="179" cy="103.3" r="2.4"/>
<circle class="st2" cx="179" cy="103.3" r="2.4"/>
<circle class="st17" cx="179" cy="103.3" r="1.8"/>
<path class="st17" d="M213.4,111.6c0,0.4-1.2,0.6-2.8,0.6s-2.7-0.4-2.7-0.8s1.2-0.6,2.8-0.6S213.4,111.3,213.4,111.6z"/>
<rect x="210.3" y="108.5" transform="matrix(3.577167e-02 -0.9994 0.9994 3.577167e-02 91.9981 317.7249)" class="st17" width="0.7" height="5.4"/>
<path class="st7" d="M213.4,111c0,0.4-1.2,0.6-2.8,0.6s-2.7-0.4-2.7-0.8s1.2-0.6,2.7-0.6S213.4,110.6,213.4,111z"/>
<path class="st2" d="M213.4,111c0,0.4-1.2,0.6-2.8,0.6s-2.7-0.4-2.7-0.8s1.2-0.6,2.7-0.6S213.4,110.6,213.4,111z"/>
<path class="st7" d="M213.1,110.9C213.1,110.9,213.1,111,213.1,110.9c-0.7-0.3-1.5-0.5-2.3-0.4c-0.8-0.1-1.6,0-2.4,0.3
	c0,0,0,0,0-0.1c0-0.3,1.1-0.4,2.4-0.4S213.1,110.7,213.1,110.9z"/>
<path class="st17" d="M213.1,110.9C213.1,110.9,213.1,111,213.1,110.9c-0.7-0.3-1.5-0.5-2.3-0.4c-0.8-0.1-1.6,0-2.4,0.3
	c0,0,0,0,0-0.1c0-0.3,1.1-0.4,2.4-0.4S213.1,110.7,213.1,110.9z"/>
<g class="st18">
	<path class="st19" d="M213,111c-0.7,0.3-1.6,0.4-2.4,0.3c-0.8,0.1-1.6-0.1-2.3-0.5c0.7-0.3,1.6-0.4,2.4-0.3
		C211.5,110.5,212.3,110.6,213,111z"/>
</g>
<path class="st17" d="M214,110.6c0,0.4-1.2,0.7-2.8,0.6s-2.7-0.4-2.7-0.8s1.2-0.7,2.8-0.6S214,110.3,214,110.6z"/>
<rect x="211" y="107.5" transform="matrix(3.594599e-02 -0.9994 0.9994 3.594599e-02 93.5915 317.4444)" class="st17" width="0.7" height="5.4"/>
<path class="st7" d="M214.1,110c0,0.4-1.2,0.7-2.7,0.6s-2.7-0.4-2.7-0.8s1.2-0.7,2.8-0.6S214.1,109.6,214.1,110z"/>
<path class="st2" d="M214.1,110c0,0.4-1.2,0.7-2.7,0.6s-2.7-0.4-2.7-0.8s1.2-0.7,2.8-0.6S214.1,109.6,214.1,110z"/>
<path class="st7" d="M213.7,109.9C213.7,109.9,213.7,110,213.7,109.9c-0.7-0.3-1.5-0.5-2.3-0.4c-0.8-0.1-1.6,0-2.4,0.3
	c0,0,0,0,0-0.1c0-0.2,1.1-0.4,2.4-0.4S213.7,109.7,213.7,109.9z"/>
<path class="st17" d="M213.7,109.9C213.7,109.9,213.7,110,213.7,109.9c-0.7-0.3-1.5-0.5-2.3-0.4c-0.8-0.1-1.6,0-2.4,0.3
	c0,0,0,0,0-0.1c0-0.2,1.1-0.4,2.4-0.4S213.7,109.7,213.7,109.9z"/>
<g class="st18">
	<path class="st19" d="M213.7,110c-0.7,0.3-1.6,0.4-2.4,0.3c-0.8,0.1-1.6-0.1-2.3-0.5c0.7-0.3,1.6-0.4,2.4-0.3
		C212.2,109.5,213,109.6,213.7,110z"/>
</g>
<path class="st17" d="M214.1,109.4c0,0.4-1.2,0.7-2.7,0.6s-2.7-0.4-2.7-0.8s1.2-0.7,2.7-0.6S214.1,109,214.1,109.4z"/>
<rect x="211.9" y="106.5" transform="matrix(3.996804e-02 -0.9992 0.9992 3.996804e-02 94.6385 317.0053)" class="st17" width="0.7" height="5.5"/>
<path class="st7" d="M214.1,108.7c0,0.4-1.2,0.7-2.8,0.6s-2.7-0.4-2.7-0.8s1.2-0.7,2.8-0.6S214.1,108.3,214.1,108.7z"/>
<path class="st2" d="M214.1,108.7c0,0.4-1.2,0.7-2.8,0.6s-2.7-0.4-2.7-0.8s1.2-0.7,2.8-0.6S214.1,108.3,214.1,108.7z"/>
<path class="st7" d="M213.7,108.7C213.7,108.7,213.7,108.7,213.7,108.7c-0.7-0.3-1.5-0.5-2.3-0.4c-0.8-0.1-1.6,0-2.4,0.3
	c0,0,0,0,0-0.1c0-0.2,1.1-0.4,2.4-0.4S213.7,108.4,213.7,108.7z"/>
<path class="st17" d="M213.7,108.7C213.7,108.7,213.7,108.7,213.7,108.7c-0.7-0.3-1.5-0.5-2.3-0.4c-0.8-0.1-1.6,0-2.4,0.3
	c0,0,0,0,0-0.1c0-0.2,1.1-0.4,2.4-0.4S213.7,108.4,213.7,108.7z"/>
<g class="st18">
	<path class="st19" d="M213.7,108.7c-0.7,0.3-1.6,0.4-2.4,0.3c-0.8,0.1-1.6-0.1-2.3-0.5c0.7-0.3,1.6-0.4,2.4-0.3
		C212.2,108.2,213,108.3,213.7,108.7z"/>
</g>
<path class="st17" d="M214.7,108.4c0,0.4-1.2,0.6-2.7,0.6s-2.7-0.4-2.7-0.8s1.2-0.6,2.8-0.6S214.7,108,214.7,108.4z"/>
<rect x="211.6" y="105.2" transform="matrix(3.577167e-02 -0.9994 0.9994 3.577167e-02 96.5335 315.9148)" class="st17" width="0.7" height="5.4"/>
<path class="st7" d="M214.7,107.7c0,0.4-1.2,0.6-2.8,0.6s-2.7-0.4-2.7-0.8s1.2-0.6,2.7-0.6S214.7,107.3,214.7,107.7z"/>
<path class="st2" d="M214.7,107.7c0,0.4-1.2,0.6-2.8,0.6s-2.7-0.4-2.7-0.8s1.2-0.6,2.7-0.6S214.7,107.3,214.7,107.7z"/>
<path class="st7" d="M214.4,107.7C214.4,107.7,214.4,107.7,214.4,107.7c-0.7-0.3-1.5-0.5-2.3-0.4c-0.8-0.1-1.6,0-2.4,0.3
	c0,0,0,0,0-0.1c0-0.3,1.1-0.4,2.4-0.4S214.4,107.4,214.4,107.7z"/>
<path class="st17" d="M214.4,107.7C214.4,107.7,214.4,107.7,214.4,107.7c-0.7-0.3-1.5-0.5-2.3-0.4c-0.8-0.1-1.6,0-2.4,0.3
	c0,0,0,0,0-0.1c0-0.3,1.1-0.4,2.4-0.4S214.4,107.4,214.4,107.7z"/>
<g class="st18">
	<path class="st19" d="M214.4,107.7c-0.7,0.3-1.6,0.4-2.4,0.3c-0.8,0.1-1.6-0.1-2.3-0.5c0.7-0.3,1.6-0.4,2.4-0.3
		C212.8,107.2,213.6,107.3,214.4,107.7z"/>
</g>
<path class="st17" d="M193.1,110.9c0,0.4,1.2,0.7,2.7,0.8s2.7-0.2,2.8-0.6s-1.2-0.7-2.7-0.8S193.1,110.5,193.1,110.9z"/>
<rect x="195.5" y="107.9" transform="matrix(4.239879e-02 -0.9991 0.9991 4.239879e-02 76.973 301.5934)" class="st17" width="0.7" height="5.4"/>
<path class="st7" d="M193.1,110.2c0,0.4,1.2,0.7,2.7,0.8s2.7-0.2,2.8-0.6s-1.2-0.7-2.7-0.8S193.1,109.8,193.1,110.2z"/>
<path class="st2" d="M193.1,110.2c0,0.4,1.2,0.7,2.7,0.8s2.7-0.2,2.8-0.6s-1.2-0.7-2.7-0.8S193.1,109.8,193.1,110.2z"/>
<path class="st7" d="M193.5,110.2C193.5,110.2,193.5,110.2,193.5,110.2c1.5-0.4,3.2-0.3,4.7,0.3c0,0,0,0,0-0.1c0-0.3-1-0.5-2.4-0.6
	S193.5,109.9,193.5,110.2z"/>
<path class="st17" d="M193.5,110.2C193.5,110.2,193.5,110.2,193.5,110.2c1.5-0.4,3.2-0.3,4.7,0.3c0,0,0,0,0-0.1c0-0.3-1-0.5-2.4-0.6
	S193.5,109.9,193.5,110.2z"/>
<g class="st18">
	<path class="st19" d="M193.5,110.2c0.7,0.4,1.5,0.6,2.3,0.5c0.8,0.1,1.6,0,2.4-0.3C196.7,109.8,195,109.8,193.5,110.2z"/>
</g>
<path class="st17" d="M192.5,109.8c0,0.4,1.2,0.7,2.7,0.8s2.7-0.2,2.8-0.6s-1.2-0.7-2.7-0.8S192.5,109.4,192.5,109.8z"/>
<rect x="194.9" y="106.9" transform="matrix(4.239879e-02 -0.9991 0.9991 4.239879e-02 77.4869 300.0403)" class="st17" width="0.7" height="5.4"/>
<path class="st7" d="M192.6,109.1c0,0.4,1.2,0.7,2.7,0.8s2.7-0.2,2.8-0.6s-1.2-0.7-2.7-0.8S192.6,108.8,192.6,109.1z"/>
<path class="st2" d="M192.6,109.1c0,0.4,1.2,0.7,2.7,0.8s2.7-0.2,2.8-0.6s-1.2-0.7-2.7-0.8S192.6,108.8,192.6,109.1z"/>
<path class="st7" d="M192.9,109.1C192.9,109.2,192.9,109.2,192.9,109.1c0.7-0.3,1.6-0.4,2.4-0.2c0.8-0.1,1.6,0.1,2.3,0.5
	c0,0,0,0,0-0.1c0-0.3-1-0.5-2.4-0.6S192.9,108.9,192.9,109.1z"/>
<path class="st17" d="M192.9,109.1C192.9,109.2,192.9,109.2,192.9,109.1c0.7-0.3,1.6-0.4,2.4-0.2c0.8-0.1,1.6,0.1,2.3,0.5
	c0,0,0,0,0-0.1c0-0.3-1-0.5-2.4-0.6S192.9,108.9,192.9,109.1z"/>
<g class="st18">
	<path class="st19" d="M192.9,109.2c0.7,0.4,1.5,0.5,2.3,0.5c0.8,0.1,1.6,0,2.4-0.3c-0.7-0.4-1.5-0.6-2.3-0.5
		C194.5,108.8,193.7,108.9,192.9,109.2z"/>
</g>
<path class="st17" d="M192.6,108.6c0,0.4,1.2,0.7,2.7,0.8s2.7-0.2,2.8-0.6s-1.2-0.7-2.7-0.8S192.6,108.2,192.6,108.6z"/>
<rect x="195" y="105.6" transform="matrix(4.239879e-02 -0.9991 0.9991 4.239879e-02 78.8005 298.9041)" class="st17" width="0.7" height="5.4"/>
<path class="st7" d="M192.6,107.9c0,0.4,1.2,0.7,2.7,0.8s2.7-0.2,2.8-0.6s-1.2-0.7-2.7-0.8S192.6,107.5,192.6,107.9z"/>
<path class="st2" d="M192.6,107.9c0,0.4,1.2,0.7,2.7,0.8s2.7-0.2,2.8-0.6s-1.2-0.7-2.7-0.8S192.6,107.5,192.6,107.9z"/>
<path class="st7" d="M193,107.9C193,107.9,193,107.9,193,107.9c1.5-0.4,3.2-0.3,4.7,0.3c0,0,0,0,0-0.1c0-0.3-1-0.5-2.4-0.6
	S193,107.6,193,107.9z"/>
<path class="st17" d="M193,107.9C193,107.9,193,107.9,193,107.9c1.5-0.4,3.2-0.3,4.7,0.3c0,0,0,0,0-0.1c0-0.3-1-0.5-2.4-0.6
	S193,107.6,193,107.9z"/>
<g class="st18">
	<path class="st19" d="M193,107.9c0.7,0.4,1.5,0.6,2.3,0.5c0.8,0.1,1.6,0,2.4-0.3C196.2,107.5,194.5,107.5,193,107.9z"/>
</g>
<path class="st17" d="M192,107.5c0,0.4,1.2,0.7,2.7,0.8s2.7-0.2,2.8-0.6s-1.2-0.7-2.7-0.8S192,107.2,192,107.5z"/>
<rect x="194.4" y="104.6" transform="matrix(4.239879e-02 -0.9991 0.9991 4.239879e-02 79.2956 297.3116)" class="st17" width="0.7" height="5.4"/>
<path class="st7" d="M192.1,106.8c0,0.4,1.2,0.7,2.7,0.8s2.7-0.2,2.8-0.6s-1.2-0.7-2.7-0.8S192.1,106.5,192.1,106.8z"/>
<path class="st2" d="M192.1,106.8c0,0.4,1.2,0.7,2.7,0.8s2.7-0.2,2.8-0.6s-1.2-0.7-2.7-0.8S192.1,106.5,192.1,106.8z"/>
<path class="st7" d="M192.4,106.8C192.4,106.8,192.4,106.9,192.4,106.8c1.5-0.4,3.2-0.3,4.7,0.3V107c0-0.3-1.1-0.5-2.4-0.6
	S192.4,106.6,192.4,106.8z"/>
<path class="st17" d="M192.4,106.8C192.4,106.8,192.4,106.9,192.4,106.8c1.5-0.4,3.2-0.3,4.7,0.3V107c0-0.3-1.1-0.5-2.4-0.6
	S192.4,106.6,192.4,106.8z"/>
<g class="st18">
	<path class="st19" d="M192.4,106.9c1.5,0.6,3.2,0.7,4.7,0.2C195.6,106.5,194,106.4,192.4,106.9z"/>
</g>
<path class="st17" d="M192.9,106.6c0,0.4,1.2,0.7,2.7,0.8s2.7-0.2,2.7-0.6s-1.2-0.7-2.7-0.8S192.9,106.3,192.9,106.6z"/>
<rect x="195.3" y="103.7" transform="matrix(4.239879e-02 -0.9991 0.9991 4.239879e-02 81.0123 297.3487)" class="st17" width="0.7" height="5.4"/>
<path class="st7" d="M192.9,106c0,0.4,1.2,0.8,2.7,0.8s2.7-0.2,2.8-0.6s-1.2-0.8-2.7-0.8S192.9,105.6,192.9,106z"/>
<path class="st2" d="M192.9,106c0,0.4,1.2,0.8,2.7,0.8s2.7-0.2,2.8-0.6s-1.2-0.8-2.7-0.8S192.9,105.6,192.9,106z"/>
<path class="st7" d="M193.3,105.9C193.3,106,193.3,106,193.3,105.9c0.7-0.2,1.6-0.3,2.4-0.2c0.8-0.1,1.6,0.1,2.3,0.5c0,0,0,0,0-0.1
	c0-0.2-1-0.5-2.4-0.6S193.3,105.7,193.3,105.9z"/>
<path class="st17" d="M193.3,105.9C193.3,106,193.3,106,193.3,105.9c0.7-0.2,1.6-0.3,2.4-0.2c0.8-0.1,1.6,0.1,2.3,0.5c0,0,0,0,0-0.1
	c0-0.2-1-0.5-2.4-0.6S193.3,105.7,193.3,105.9z"/>
<g class="st18">
	<path class="st19" d="M193.3,106c0.7,0.4,1.5,0.5,2.3,0.5c0.8,0.1,1.6,0,2.4-0.3c-0.7-0.4-1.5-0.6-2.3-0.5
		C194.9,105.6,194,105.7,193.3,106z"/>
</g>
<path class="st17" d="M192.3,105.6c0,0.4,1.2,0.7,2.7,0.8s2.7-0.2,2.8-0.6s-1.2-0.7-2.7-0.8S192.3,105.2,192.3,105.6z"/>
<rect x="194.7" y="102.6" transform="matrix(4.239879e-02 -0.9991 0.9991 4.239879e-02 81.507 295.7756)" class="st17" width="0.7" height="5.4"/>
<path class="st7" d="M192.4,104.9c0,0.4,1.2,0.7,2.7,0.8s2.7-0.2,2.8-0.6s-1.2-0.7-2.7-0.8S192.4,104.5,192.4,104.9z"/>
<path class="st2" d="M192.4,104.9c0,0.4,1.2,0.7,2.7,0.8s2.7-0.2,2.8-0.6s-1.2-0.7-2.7-0.8S192.4,104.5,192.4,104.9z"/>
<path class="st7" d="M192.7,104.9C192.7,104.9,192.7,104.9,192.7,104.9c1.5-0.4,3.2-0.3,4.7,0.3c0,0,0,0,0-0.1c0-0.3-1-0.5-2.4-0.6
	S192.7,104.6,192.7,104.9z"/>
<path class="st17" d="M192.7,104.9C192.7,104.9,192.7,104.9,192.7,104.9c1.5-0.4,3.2-0.3,4.7,0.3c0,0,0,0,0-0.1c0-0.3-1-0.5-2.4-0.6
	S192.7,104.6,192.7,104.9z"/>
<g class="st18">
	<path class="st19" d="M192.7,105c0.7,0.4,1.5,0.6,2.3,0.5c0.8,0.1,1.6,0,2.4-0.3C195.9,104.6,194.3,104.5,192.7,105z"/>
</g>
<path class="st17" d="M198.3,104.9c0,0.4-1.2,0.7-2.7,0.8s-2.7-0.2-2.8-0.6s1.2-0.7,2.7-0.8S198.3,104.5,198.3,104.9z"/>
<rect x="192.9" y="104.3" transform="matrix(0.9991 -4.239879e-02 4.239879e-02 0.9991 -4.2606 8.3875)" class="st17" width="5.4" height="0.7"/>
<path class="st7" d="M198.3,104.2c0,0.4-1.2,0.7-2.7,0.8s-2.7-0.2-2.8-0.6s1.2-0.7,2.7-0.8S198.3,103.8,198.3,104.2z"/>
<path class="st2" d="M198.3,104.2c0,0.4-1.2,0.7-2.7,0.8s-2.7-0.2-2.8-0.6s1.2-0.7,2.7-0.8S198.3,103.8,198.3,104.2z"/>
<path class="st7" d="M198,104.2C198,104.2,198,104.2,198,104.2c-0.7-0.3-1.6-0.4-2.4-0.2c-0.8-0.1-1.6,0.1-2.3,0.5c0,0,0,0,0-0.1
	c0-0.3,1-0.5,2.4-0.6S198,103.9,198,104.2z"/>
<path class="st17" d="M198,104.2C198,104.2,198,104.2,198,104.2c-0.7-0.3-1.6-0.4-2.4-0.2c-0.8-0.1-1.6,0.1-2.3,0.5c0,0,0,0,0-0.1
	c0-0.3,1-0.5,2.4-0.6S198,103.9,198,104.2z"/>
<g class="st18">
	<path class="st19" d="M197.9,104.2c-0.7,0.4-1.5,0.5-2.3,0.5c-0.8,0.1-1.6,0-2.4-0.3c0.7-0.4,1.5-0.6,2.3-0.5
		C196.4,103.8,197.2,103.9,197.9,104.2z"/>
</g>
<path class="st17" d="M198.9,103.8c0,0.4-1.2,0.7-2.7,0.8s-2.7-0.2-2.8-0.6s1.2-0.7,2.7-0.8S198.9,103.4,198.9,103.8z"/>
<rect x="193.4" y="103.8" transform="matrix(0.9992 -3.996804e-02 3.996804e-02 0.9992 -4.0059 7.9213)" class="st17" width="5.5" height="0.7"/>
<path class="st7" d="M198.9,103.1c0,0.4-1.2,0.7-2.7,0.8s-2.7-0.2-2.8-0.6s1.2-0.7,2.7-0.8S198.9,102.8,198.9,103.1z"/>
<path class="st2" d="M198.9,103.1c0,0.4-1.2,0.7-2.7,0.8s-2.7-0.2-2.8-0.6s1.2-0.7,2.7-0.8S198.9,102.8,198.9,103.1z"/>
<path class="st7" d="M198.5,103.1C198.5,103.1,198.5,103.2,198.5,103.1c-0.7-0.3-1.6-0.4-2.4-0.2c-0.8-0.1-1.6,0.1-2.3,0.5
	c0,0,0,0,0-0.1c0-0.3,1-0.5,2.4-0.6S198.5,102.9,198.5,103.1z"/>
<path class="st17" d="M198.5,103.1C198.5,103.1,198.5,103.2,198.5,103.1c-0.7-0.3-1.6-0.4-2.4-0.2c-0.8-0.1-1.6,0.1-2.3,0.5
	c0,0,0,0,0-0.1c0-0.3,1-0.5,2.4-0.6S198.5,102.9,198.5,103.1z"/>
<g class="st18">
	<path class="st19" d="M198.5,103.2c-0.7,0.4-1.5,0.6-2.3,0.5c-0.8,0.1-1.6,0-2.4-0.3c0.7-0.4,1.5-0.6,2.3-0.5
		C196.9,102.8,197.8,102.9,198.5,103.2z"/>
</g>
<path class="st17" d="M198.8,102.6c0,0.4-1.2,0.7-2.7,0.8s-2.7-0.2-2.8-0.6s1.2-0.7,2.7-0.8S198.8,102.2,198.8,102.6z"/>
<rect x="193.4" y="102" transform="matrix(0.9991 -4.239879e-02 4.239879e-02 0.9991 -4.1627 8.4063)" class="st17" width="5.4" height="0.7"/>
<path class="st7" d="M198.8,101.9c0,0.4-1.2,0.7-2.7,0.8s-2.7-0.2-2.8-0.6s1.2-0.7,2.7-0.8S198.8,101.5,198.8,101.9z"/>
<path class="st2" d="M198.8,101.9c0,0.4-1.2,0.7-2.7,0.8s-2.7-0.2-2.8-0.6s1.2-0.7,2.7-0.8S198.8,101.5,198.8,101.9z"/>
<path class="st7" d="M198.4,101.9C198.5,101.9,198.5,101.9,198.4,101.9c-0.7-0.3-1.6-0.4-2.4-0.2c-0.8-0.1-1.6,0.1-2.3,0.5
	c0,0,0,0,0-0.1c0-0.3,1-0.5,2.4-0.6S198.4,101.6,198.4,101.9z"/>
<path class="st17" d="M198.4,101.9C198.5,101.9,198.5,101.9,198.4,101.9c-0.7-0.3-1.6-0.4-2.4-0.2c-0.8-0.1-1.6,0.1-2.3,0.5
	c0,0,0,0,0-0.1c0-0.3,1-0.5,2.4-0.6S198.4,101.6,198.4,101.9z"/>
<g class="st18">
	<path class="st19" d="M198.4,101.9c-1.5,0.6-3.2,0.7-4.7,0.2c0.7-0.4,1.5-0.6,2.3-0.5C196.9,101.5,197.7,101.6,198.4,101.9z"/>
</g>
<path class="st17" d="M199.4,101.5c0,0.4-1.2,0.7-2.7,0.8s-2.7-0.2-2.8-0.6s1.2-0.7,2.7-0.8S199.4,101.1,199.4,101.5z"/>
<rect x="193.9" y="101" transform="matrix(0.9991 -4.239879e-02 4.239879e-02 0.9991 -4.118 8.4293)" class="st17" width="5.4" height="0.7"/>
<path class="st7" d="M199.4,100.8c0,0.4-1.2,0.7-2.7,0.8s-2.7-0.2-2.8-0.6s1.2-0.7,2.7-0.8S199.4,100.4,199.4,100.8z"/>
<path class="st2" d="M199.4,100.8c0,0.4-1.2,0.7-2.7,0.8s-2.7-0.2-2.8-0.6s1.2-0.7,2.7-0.8S199.4,100.4,199.4,100.8z"/>
<path class="st7" d="M199,100.8C199,100.8,199,100.9,199,100.8c-0.7-0.2-1.6-0.3-2.4-0.2c-0.8-0.1-1.6,0.1-2.3,0.5c0,0,0,0,0-0.1
	c0-0.3,1-0.5,2.4-0.6S199,100.6,199,100.8z"/>
<path class="st17" d="M199,100.8C199,100.8,199,100.9,199,100.8c-0.7-0.2-1.6-0.3-2.4-0.2c-0.8-0.1-1.6,0.1-2.3,0.5c0,0,0,0,0-0.1
	c0-0.3,1-0.5,2.4-0.6S199,100.6,199,100.8z"/>
<path class="st21" d="M199,100.9c-0.7,0.4-1.5,0.6-2.3,0.5c-0.8,0.1-1.6,0-2.4-0.3c0.7-0.4,1.5-0.6,2.3-0.5
	C197.4,100.5,198.3,100.6,199,100.9z"/>
<path class="st17" d="M198.5,100.6c0,0.4-1.2,0.7-2.7,0.8s-2.7-0.2-2.8-0.6s1.2-0.7,2.7-0.8S198.5,100.2,198.5,100.6z"/>
<rect x="193.1" y="100.1" transform="matrix(0.9991 -4.239879e-02 4.239879e-02 0.9991 -4.0809 8.3918)" class="st17" width="5.4" height="0.7"/>
<path class="st7" d="M198.5,99.9c0,0.4-1.2,0.7-2.7,0.8s-2.7-0.2-2.8-0.6s1.2-0.7,2.7-0.8S198.5,99.6,198.5,99.9z"/>
<path class="st2" d="M198.5,99.9c0,0.4-1.2,0.7-2.7,0.8s-2.7-0.2-2.8-0.6s1.2-0.7,2.7-0.8S198.5,99.6,198.5,99.9z"/>
<path class="st7" d="M198.1,99.9C198.2,100,198.2,100,198.1,99.9c-1.5-0.4-3.2-0.3-4.7,0.3v-0.1c0-0.3,1-0.5,2.4-0.6
	S198.1,99.7,198.1,99.9z"/>
<path class="st17" d="M198.1,99.9C198.2,100,198.2,100,198.1,99.9c-1.5-0.4-3.2-0.3-4.7,0.3v-0.1c0-0.3,1-0.5,2.4-0.6
	S198.1,99.7,198.1,99.9z"/>
<g class="st18">
	<path class="st19" d="M198.1,100c-0.7,0.4-1.5,0.6-2.3,0.5c-0.8,0.1-1.6,0-2.4-0.3C194.9,99.6,196.6,99.5,198.1,100z"/>
</g>
<path class="st17" d="M199.1,99.6c0,0.4-1.2,0.7-2.7,0.8s-2.7-0.2-2.8-0.6s1.2-0.7,2.7-0.8S199.1,99.2,199.1,99.6z"/>
<rect x="193.6" y="99" transform="matrix(0.9991 -4.239879e-02 4.239879e-02 0.9991 -4.0362 8.4148)" class="st17" width="5.4" height="0.7"/>
<path class="st7" d="M199.1,98.9c0,0.4-1.2,0.7-2.7,0.8s-2.7-0.2-2.8-0.6s1.2-0.7,2.7-0.8S199.1,98.5,199.1,98.9z"/>
<path class="st2" d="M199.1,98.9c0,0.4-1.2,0.7-2.7,0.8s-2.7-0.2-2.8-0.6s1.2-0.7,2.7-0.8S199.1,98.5,199.1,98.9z"/>
<path class="st7" d="M198.7,98.9c-1.5-0.5-3.2-0.4-4.7,0.2c0,0,0,0,0-0.1c0-0.3,1-0.5,2.4-0.6S198.7,98.6,198.7,98.9L198.7,98.9z"/>
<path class="st17" d="M198.7,98.9c-1.5-0.5-3.2-0.4-4.7,0.2c0,0,0,0,0-0.1c0-0.3,1-0.5,2.4-0.6S198.7,98.6,198.7,98.9L198.7,98.9z"
	/>
<g class="st18">
	<path class="st19" d="M198.7,99c-0.7,0.4-1.5,0.6-2.3,0.5c-0.8,0.1-1.6,0-2.4-0.3C195.5,98.6,197.2,98.5,198.7,99z"/>
</g>
<circle class="st17" cx="196" cy="96.5" r="2.4"/>
<circle class="st7" cx="196.2" cy="96.6" r="2.4"/>
<circle class="st2" cx="196.2" cy="96.6" r="2.4"/>
<path class="st19" d="M197.9,97.4c-0.4,0.9-1.5,1.4-2.4,1c-0.9-0.4-1.4-1.5-1-2.4c0.4-0.9,1.5-1.4,2.4-1c0,0,0,0,0.1,0
	C197.9,95.4,198.3,96.5,197.9,97.4z"/>
<path class="st7" d="M219.4,110.5c-0.1,0.2-0.8,0.2-1.7,0s-1.6-0.6-1.5-0.8s0.8-0.2,1.7,0S219.4,110.3,219.4,110.5z"/>
<rect x="217.6" y="108.3" transform="matrix(0.2429 -0.97 0.97 0.2429 58.2871 294.5006)" class="st7" width="0.4" height="3.3"/>
<path class="st7" d="M219.5,110.1c-0.1,0.2-0.8,0.2-1.7,0s-1.5-0.6-1.5-0.8s0.8-0.2,1.7,0S219.5,109.9,219.5,110.1z"/>
<path class="st22" d="M219.5,110.1c-0.1,0.2-0.8,0.2-1.7,0s-1.5-0.6-1.5-0.8s0.8-0.2,1.7,0S219.5,109.9,219.5,110.1z"/>
<path class="st7" d="M219.3,110L219.3,110c-0.8-0.5-1.8-0.8-2.8-0.7l0,0c0,0,0.7-0.1,1.5,0.1S219.3,109.9,219.3,110z"/>
<path class="st21" d="M219.3,110L219.3,110c-0.8-0.5-1.8-0.8-2.8-0.7l0,0c0,0,0.7-0.1,1.5,0.1S219.3,109.9,219.3,110z"/>
<path class="st21" d="M219.2,110.1c-1,0.1-1.9-0.2-2.8-0.7C217.5,109.3,218.4,109.5,219.2,110.1z"/>
<path class="st17" d="M220.9,111.2c0,0.2-0.7,0.4-1.6,0.5s-1.6-0.1-1.7-0.3s0.7-0.4,1.6-0.5S220.9,111,220.9,111.2z"/>
<rect x="217.6" y="110.9" transform="matrix(0.9991 -4.239879e-02 4.239879e-02 0.9991 -4.5144 9.3954)" class="st17" width="3.3" height="0.4"/>
<path class="st7" d="M220.9,110.8c0,0.2-0.7,0.4-1.6,0.5s-1.6-0.1-1.7-0.3s0.7-0.4,1.6-0.5S220.9,110.6,220.9,110.8z"/>
<path class="st2" d="M220.9,110.8c0,0.2-0.7,0.4-1.6,0.5s-1.6-0.1-1.7-0.3s0.7-0.4,1.6-0.5S220.9,110.6,220.9,110.8z"/>
<path class="st7" d="M220.7,110.8L220.7,110.8c-0.4-0.2-0.9-0.3-1.4-0.2c-0.5,0-1,0.1-1.4,0.3l0,0c0-0.2,0.6-0.3,1.4-0.3
	S220.7,110.7,220.7,110.8z"/>
<path class="st17" d="M220.7,110.8L220.7,110.8c-0.4-0.2-0.9-0.3-1.4-0.2c-0.5,0-1,0.1-1.4,0.3l0,0c0-0.2,0.6-0.3,1.4-0.3
	S220.7,110.7,220.7,110.8z"/>
<g class="st18">
	<path class="st19" d="M220.6,110.9c-0.4,0.2-0.9,0.3-1.4,0.3c-0.5,0.1-1,0-1.4-0.2c0.4-0.2,0.9-0.3,1.4-0.3
		C219.7,110.6,220.2,110.7,220.6,110.9z"/>
</g>
<circle class="st17" cx="217.1" cy="109.1" r="2.4"/>
<path class="st7" d="M219.2,110.9c-0.9,1-2.4,1.1-3.5,0.2c-1-0.9-1.1-2.4-0.2-3.5c0.9-1,2.4-1.1,3.5-0.2
	C220,108.4,220.1,109.9,219.2,110.9z"/>
<path class="st2" d="M219.2,110.9c-0.9,1-2.4,1.1-3.5,0.2c-1-0.9-1.1-2.4-0.2-3.5c0.9-1,2.4-1.1,3.5-0.2
	C220,108.4,220.1,109.9,219.2,110.9z"/>
<path class="st19" d="M218.7,110.5c-0.7,0.8-1.8,0.8-2.6,0.1c-0.8-0.7-0.8-1.8-0.1-2.6c0.7-0.7,1.8-0.8,2.6-0.1
	C219.3,108.6,219.4,109.8,218.7,110.5C218.7,110.5,218.7,110.5,218.7,110.5z"/>
<path class="st17" d="M187,111.5c0,0.2,0.7,0.4,1.6,0.5s1.6-0.1,1.7-0.3s-0.7-0.4-1.6-0.5S187,111.2,187,111.5z"/>
<rect x="188.4" y="109.7" transform="matrix(4.239879e-02 -0.9991 0.9991 4.239879e-02 69.3848 295.0719)" class="st17" width="0.4" height="3.3"/>
<path class="st7" d="M187,111.1c0,0.2,0.7,0.4,1.6,0.5s1.6-0.1,1.7-0.3s-0.7-0.4-1.6-0.5S187,110.8,187,111.1z"/>
<path class="st2" d="M187,111.1c0,0.2,0.7,0.4,1.6,0.5s1.6-0.1,1.7-0.3s-0.7-0.4-1.6-0.5S187,110.8,187,111.1z"/>
<path class="st7" d="M187.2,111.1L187.2,111.1c0.9-0.3,1.9-0.2,2.8,0.1l0,0c0,0-0.6-0.3-1.4-0.3S187.2,110.9,187.2,111.1z"/>
<path class="st17" d="M187.2,111.1L187.2,111.1c0.9-0.3,1.9-0.2,2.8,0.1l0,0c0,0-0.6-0.3-1.4-0.3S187.2,110.9,187.2,111.1z"/>
<g class="st18">
	<path class="st19" d="M187.2,111.1c0.9,0.4,1.9,0.4,2.8,0.1C189.1,110.9,188.1,110.8,187.2,111.1z"/>
</g>
<path class="st17" d="M186.6,110.8c0,0.2,0.7,0.4,1.6,0.5s1.6-0.1,1.7-0.3s-0.7-0.4-1.6-0.5S186.6,110.6,186.6,110.8z"/>
<rect x="187.7" y="108.6" transform="matrix(3.996804e-02 -0.9992 0.9992 3.996804e-02 70.2259 293.6074)" class="st17" width="0.4" height="3.3"/>
<path class="st7" d="M186.6,110.4c0,0.2,0.7,0.4,1.6,0.5s1.6-0.1,1.7-0.3s-0.7-0.4-1.6-0.5S186.6,110.2,186.6,110.4z"/>
<path class="st2" d="M186.6,110.4c0,0.2,0.7,0.4,1.6,0.5s1.6-0.1,1.7-0.3s-0.7-0.4-1.6-0.5S186.6,110.2,186.6,110.4z"/>
<path class="st7" d="M186.9,110.4L186.9,110.4c0.5-0.2,0.9-0.2,1.4-0.2c0.5,0,1,0.1,1.4,0.3l0,0c0-0.2-0.6-0.3-1.4-0.3
	S186.9,110.3,186.9,110.4z"/>
<path class="st17" d="M186.9,110.4L186.9,110.4c0.5-0.2,0.9-0.2,1.4-0.2c0.5,0,1,0.1,1.4,0.3l0,0c0-0.2-0.6-0.3-1.4-0.3
	S186.9,110.3,186.9,110.4z"/>
<g class="st18">
	<path class="st19" d="M186.9,110.5c0.9,0.4,1.9,0.4,2.8,0.1c-0.4-0.2-0.9-0.3-1.4-0.3C187.8,110.2,187.3,110.3,186.9,110.5z"/>
</g>
<path class="st17" d="M186.7,110.1c0,0.2,0.7,0.4,1.6,0.5s1.6-0.1,1.7-0.3s-0.7-0.4-1.6-0.5S186.7,109.9,186.7,110.1z"/>
<rect x="188.1" y="108.3" transform="matrix(4.239879e-02 -0.9991 0.9991 4.239879e-02 70.4845 293.4209)" class="st17" width="0.4" height="3.3"/>
<path class="st7" d="M186.7,109.7c0,0.2,0.7,0.4,1.6,0.5s1.6-0.1,1.7-0.3s-0.7-0.4-1.6-0.5S186.7,109.4,186.7,109.7z"/>
<path class="st2" d="M186.7,109.7c0,0.2,0.7,0.4,1.6,0.5s1.6-0.1,1.7-0.3s-0.7-0.4-1.6-0.5S186.7,109.4,186.7,109.7z"/>
<path class="st7" d="M186.9,109.7L186.9,109.7c0.5-0.2,0.9-0.2,1.4-0.2c0.5,0,1,0.1,1.4,0.3l0,0c0-0.2-0.6-0.3-1.4-0.3
	S186.9,109.5,186.9,109.7z"/>
<path class="st17" d="M186.9,109.7L186.9,109.7c0.5-0.2,0.9-0.2,1.4-0.2c0.5,0,1,0.1,1.4,0.3l0,0c0-0.2-0.6-0.3-1.4-0.3
	S186.9,109.5,186.9,109.7z"/>
<g class="st18">
	<path class="st19" d="M186.9,109.7c0.4,0.2,0.9,0.3,1.4,0.3c0.5,0.1,1,0,1.4-0.2c-0.4-0.2-0.9-0.3-1.4-0.3
		C187.9,109.5,187.4,109.5,186.9,109.7z"/>
</g>
<path class="st17" d="M186.3,109.5c0,0.2,0.7,0.4,1.6,0.5s1.6-0.1,1.7-0.3s-0.7-0.4-1.6-0.5S186.3,109.2,186.3,109.5z"/>
<rect x="187.8" y="107.7" transform="matrix(4.239879e-02 -0.9991 0.9991 4.239879e-02 70.7817 292.4769)" class="st17" width="0.4" height="3.3"/>
<path class="st7" d="M186.3,109c0,0.2,0.7,0.4,1.6,0.5s1.6-0.1,1.7-0.3s-0.7-0.4-1.6-0.5S186.4,108.8,186.3,109z"/>
<path class="st2" d="M186.3,109c0,0.2,0.7,0.4,1.6,0.5s1.6-0.1,1.7-0.3s-0.7-0.4-1.6-0.5S186.4,108.8,186.3,109z"/>
<path class="st7" d="M186.6,109L186.6,109c0.4-0.2,0.9-0.2,1.4-0.2c0.5,0,1,0.1,1.4,0.3l0,0c0,0-0.6-0.3-1.4-0.3
	S186.6,108.9,186.6,109z"/>
<path class="st17" d="M186.6,109L186.6,109c0.4-0.2,0.9-0.2,1.4-0.2c0.5,0,1,0.1,1.4,0.3l0,0c0,0-0.6-0.3-1.4-0.3
	S186.6,108.9,186.6,109z"/>
<g class="st18">
	<path class="st19" d="M186.6,109.1c0.4,0.2,0.9,0.3,1.4,0.3c0.5,0.1,1,0,1.4-0.2c-0.4-0.2-0.9-0.3-1.4-0.3
		C187.5,108.8,187,108.9,186.6,109.1z"/>
</g>
<path class="st17" d="M186.9,108.9c0,0.2,0.7,0.4,1.6,0.5s1.6-0.1,1.7-0.3s-0.7-0.4-1.6-0.5S186.9,108.7,186.9,108.9z"/>
<rect x="187.9" y="106.7" transform="matrix(3.996804e-02 -0.9992 0.9992 3.996804e-02 72.3612 291.9963)" class="st17" width="0.4" height="3.3"/>
<path class="st7" d="M186.9,108.5c0,0.2,0.7,0.4,1.6,0.5s1.6-0.1,1.7-0.3s-0.7-0.4-1.6-0.5S186.9,108.3,186.9,108.5z"/>
<path class="st2" d="M186.9,108.5c0,0.2,0.7,0.4,1.6,0.5s1.6-0.1,1.7-0.3s-0.7-0.4-1.6-0.5S186.9,108.3,186.9,108.5z"/>
<path class="st7" d="M187.1,108.5L187.1,108.5c0.9-0.3,1.9-0.2,2.8,0.1l0,0c0-0.2-0.6-0.3-1.4-0.3S187.1,108.3,187.1,108.5z"/>
<path class="st17" d="M187.1,108.5L187.1,108.5c0.9-0.3,1.9-0.2,2.8,0.1l0,0c0-0.2-0.6-0.3-1.4-0.3S187.1,108.3,187.1,108.5z"/>
<g class="st18">
	<path class="st19" d="M187.1,108.5c0.4,0.2,0.9,0.3,1.4,0.3c0.5,0.1,1,0,1.4-0.2C189,108.3,188,108.3,187.1,108.5z"/>
</g>
<path class="st17" d="M184.5,111.4c0.1,0.2,0.8,0.2,1.7,0s1.6-0.6,1.5-0.8s-0.8-0.2-1.7,0S184.5,111.2,184.5,111.4z"/>
<rect x="184.4" y="110.6" transform="matrix(0.97 -0.2429 0.2429 0.97 -21.3505 48.528)" class="st17" width="3.3" height="0.4"/>
<path class="st7" d="M184.4,111c0.1,0.2,0.8,0.2,1.7,0s1.6-0.6,1.5-0.8s-0.8-0.2-1.7,0S184.4,110.8,184.4,111z"/>
<path class="st2" d="M184.4,111c0.1,0.2,0.8,0.2,1.7,0s1.6-0.6,1.5-0.8s-0.8-0.2-1.7,0S184.4,110.8,184.4,111z"/>
<path class="st7" d="M184.6,111L184.6,111c0.4-0.3,0.8-0.5,1.3-0.6c0.5-0.2,1-0.2,1.4-0.1l0,0c0-0.2-0.7-0.1-1.5,0.1
	S184.6,110.8,184.6,111z"/>
<path class="st17" d="M184.6,111L184.6,111c0.4-0.3,0.8-0.5,1.3-0.6c0.5-0.2,1-0.2,1.4-0.1l0,0c0-0.2-0.7-0.1-1.5,0.1
	S184.6,110.8,184.6,111z"/>
<g class="st18">
	<path class="st19" d="M184.7,111c1,0.1,1.9-0.1,2.8-0.7c-0.5-0.1-1-0.1-1.4,0.1C185.5,110.5,185,110.7,184.7,111z"/>
</g>
<path class="st17" d="M183,111.5c0,0.2,0.7,0.4,1.6,0.5s1.6-0.1,1.7-0.3s-0.7-0.4-1.6-0.5S183,111.2,183,111.5z"/>
<rect x="184.4" y="109.7" transform="matrix(4.239879e-02 -0.9991 0.9991 4.239879e-02 65.5991 291.095)" class="st17" width="0.4" height="3.3"/>
<path class="st7" d="M183,111.1c0,0.2,0.7,0.4,1.6,0.5s1.6-0.1,1.7-0.3s-0.7-0.4-1.6-0.5S183,110.8,183,111.1z"/>
<path class="st2" d="M183,111.1c0,0.2,0.7,0.4,1.6,0.5s1.6-0.1,1.7-0.3s-0.7-0.4-1.6-0.5S183,110.8,183,111.1z"/>
<path class="st7" d="M183.2,111.1L183.2,111.1c0.9-0.3,1.9-0.2,2.8,0.1l0,0c0-0.2-0.6-0.3-1.4-0.3S183.2,110.9,183.2,111.1z"/>
<path class="st17" d="M183.2,111.1L183.2,111.1c0.9-0.3,1.9-0.2,2.8,0.1l0,0c0-0.2-0.6-0.3-1.4-0.3S183.2,110.9,183.2,111.1z"/>
<g class="st18">
	<path class="st19" d="M183.2,111.1c0.9,0.4,1.9,0.4,2.8,0.1C185.2,110.9,184.2,110.8,183.2,111.1z"/>
</g>
<path class="st17" d="M200,111.5c0,0.2,0.7,0.5,1.7,0.5s1.7-0.1,1.7-0.4s-0.7-0.5-1.7-0.5S200,111.2,200,111.5z"/>
<rect x="201.4" y="109.6" transform="matrix(4.239879e-02 -0.9991 0.9991 4.239879e-02 81.9052 308.0663)" class="st17" width="0.4" height="3.4"/>
<path class="st7" d="M200,111c0,0.2,0.7,0.5,1.7,0.5s1.7-0.1,1.7-0.4s-0.7-0.5-1.7-0.5S200,110.8,200,111z"/>
<path class="st2" d="M200,111c0,0.2,0.7,0.5,1.7,0.5s1.7-0.1,1.7-0.4s-0.7-0.5-1.7-0.5S200,110.8,200,111z"/>
<path class="st7" d="M200.2,111L200.2,111c0.5-0.2,1-0.3,1.5-0.2c0.5,0,1,0.1,1.4,0.3l0,0c0-0.2-0.6-0.3-1.5-0.4
	S200.2,110.9,200.2,111z"/>
<path class="st21" d="M200.2,111L200.2,111c0.5-0.2,1-0.3,1.5-0.2c0.5,0,1,0.1,1.4,0.3l0,0c0-0.2-0.6-0.3-1.5-0.4
	S200.2,110.9,200.2,111z"/>
<g class="st18">
	<path class="st19" d="M200.2,111.1c0.4,0.2,0.9,0.4,1.4,0.3c0.5,0.1,1,0,1.5-0.2c-0.4-0.2-0.9-0.3-1.4-0.3
		C201.2,110.8,200.7,110.9,200.2,111.1z"/>
</g>
<path class="st17" d="M199.6,110.8c0,0.2,0.7,0.5,1.7,0.5s1.7-0.1,1.7-0.4s-0.7-0.5-1.7-0.5S199.6,110.6,199.6,110.8z"/>
<rect x="201.1" y="109" transform="matrix(4.239879e-02 -0.9991 0.9991 4.239879e-02 82.2216 307.1215)" class="st17" width="0.4" height="3.4"/>
<path class="st7" d="M199.6,110.4c0,0.2,0.7,0.5,1.7,0.5s1.7-0.1,1.7-0.3s-0.7-0.5-1.7-0.5S199.6,110.2,199.6,110.4z"/>
<path class="st2" d="M199.6,110.4c0,0.2,0.7,0.5,1.7,0.5s1.7-0.1,1.7-0.3s-0.7-0.5-1.7-0.5S199.6,110.2,199.6,110.4z"/>
<path class="st7" d="M199.9,110.4L199.9,110.4c0.5-0.2,1-0.3,1.5-0.2c0.5,0,1,0.1,1.4,0.3l0,0c0-0.2-0.6-0.3-1.5-0.4
	S199.9,110.2,199.9,110.4z"/>
<path class="st17" d="M199.9,110.4L199.9,110.4c0.5-0.2,1-0.3,1.5-0.2c0.5,0,1,0.1,1.4,0.3l0,0c0-0.2-0.6-0.3-1.5-0.4
	S199.9,110.2,199.9,110.4z"/>
<g class="st18">
	<path class="st19" d="M199.9,110.4c0.4,0.2,0.9,0.3,1.4,0.3c0.5,0.1,1,0,1.5-0.2c-0.4-0.2-0.9-0.3-1.4-0.3
		C200.8,110.2,200.3,110.2,199.9,110.4z"/>
</g>
<path class="st17" d="M200.4,110.3c0,0.2,0.7,0.5,1.7,0.5s1.7-0.1,1.7-0.4s-0.7-0.5-1.7-0.5S200.4,110.1,200.4,110.3z"/>
<rect x="201.9" y="108.5" transform="matrix(4.239879e-02 -0.9991 0.9991 4.239879e-02 83.4316 307.4046)" class="st17" width="0.4" height="3.4"/>
<path class="st7" d="M200.4,109.9c0,0.2,0.7,0.5,1.7,0.5s1.7-0.1,1.7-0.3s-0.7-0.5-1.7-0.5S200.4,109.7,200.4,109.9z"/>
<path class="st2" d="M200.4,109.9c0,0.2,0.7,0.5,1.7,0.5s1.7-0.1,1.7-0.3s-0.7-0.5-1.7-0.5S200.4,109.7,200.4,109.9z"/>
<path class="st7" d="M200.6,109.9L200.6,109.9c1-0.3,2-0.3,2.9,0.1l0,0c0-0.2-0.6-0.3-1.5-0.4S200.6,109.7,200.6,109.9z"/>
<path class="st21" d="M200.6,109.9L200.6,109.9c1-0.3,2-0.3,2.9,0.1l0,0c0-0.2-0.6-0.3-1.5-0.4S200.6,109.7,200.6,109.9z"/>
<path class="st19" d="M200.6,109.9c0.4,0.2,0.9,0.3,1.4,0.3c0.5,0.1,1,0,1.5-0.2C202.6,109.7,201.6,109.6,200.6,109.9z"/>
<path class="st17" d="M200.4,109.7c0,0.2,0.7,0.5,1.7,0.5s1.7-0.1,1.7-0.3s-0.7-0.5-1.7-0.5S200.4,109.4,200.4,109.7z"/>
<rect x="201.9" y="107.9" transform="matrix(4.239879e-02 -0.9991 0.9991 4.239879e-02 84.0791 306.805)" class="st17" width="0.4" height="3.4"/>
<path class="st7" d="M200.4,109.2c0,0.2,0.7,0.5,1.7,0.5s1.7-0.1,1.7-0.3s-0.7-0.5-1.7-0.5S200.4,109,200.4,109.2z"/>
<path class="st2" d="M200.4,109.2c0,0.2,0.7,0.5,1.7,0.5s1.7-0.1,1.7-0.3s-0.7-0.5-1.7-0.5S200.4,109,200.4,109.2z"/>
<path class="st7" d="M200.6,109.2L200.6,109.2c0.5-0.2,1-0.3,1.5-0.2c0.5,0,1,0.1,1.4,0.3l0,0c0-0.2-0.6-0.3-1.5-0.3
	S200.6,109.1,200.6,109.2z"/>
<path class="st17" d="M200.6,109.2L200.6,109.2c0.5-0.2,1-0.3,1.5-0.2c0.5,0,1,0.1,1.4,0.3l0,0c0-0.2-0.6-0.3-1.5-0.3
	S200.6,109.1,200.6,109.2z"/>
<g class="st18">
	<path class="st19" d="M200.6,109.3c0.9,0.4,2,0.4,2.9,0.1c-0.4-0.2-0.9-0.3-1.4-0.3C201.6,109,201.1,109.1,200.6,109.3z"/>
</g>
<path class="st17" d="M199.7,109.2c0,0.2,0.7,0.5,1.7,0.5s1.7-0.1,1.7-0.3s-0.7-0.5-1.7-0.5S199.7,108.9,199.7,109.2z"/>
<rect x="201.2" y="107.3" transform="matrix(4.257321e-02 -0.9991 0.9991 4.257321e-02 83.921 305.6103)" class="st17" width="0.4" height="3.4"/>
<path class="st7" d="M199.7,108.7c0,0.2,0.7,0.5,1.7,0.5s1.7-0.1,1.7-0.3s-0.7-0.5-1.7-0.5S199.7,108.5,199.7,108.7z"/>
<path class="st2" d="M199.7,108.7c0,0.2,0.7,0.5,1.7,0.5s1.7-0.1,1.7-0.3s-0.7-0.5-1.7-0.5S199.7,108.5,199.7,108.7z"/>
<path class="st7" d="M199.9,108.7L199.9,108.7c0.5-0.2,1-0.3,1.5-0.2c0.5,0,1,0.1,1.4,0.3l0,0c0,0-0.6-0.3-1.5-0.3
	S199.9,108.6,199.9,108.7z"/>
<path class="st17" d="M199.9,108.7L199.9,108.7c0.5-0.2,1-0.3,1.5-0.2c0.5,0,1,0.1,1.4,0.3l0,0c0,0-0.6-0.3-1.5-0.3
	S199.9,108.6,199.9,108.7z"/>
<g class="st18">
	<path class="st19" d="M200,108.8c0.9,0.4,2,0.4,2.9,0.1c-0.4-0.2-0.9-0.3-1.4-0.3C201,108.5,200.5,108.6,200,108.8z"/>
</g>
<path class="st17" d="M204.1,110.4c-0.1,0.2,0.5,0.7,1.3,1.1s1.6,0.5,1.7,0.3s-0.5-0.7-1.3-1.1S204.2,110.2,204.1,110.4z"/>
<rect x="205.4" y="109.3" transform="matrix(0.4253 -0.905 0.905 0.4253 17.7566 249.8943)" class="st17" width="0.4" height="3.3"/>
<path class="st7" d="M204.2,110.1c-0.1,0.2,0.5,0.7,1.3,1.1s1.6,0.5,1.7,0.3s-0.5-0.7-1.3-1.1S204.3,109.9,204.2,110.1z"/>
<path class="st2" d="M204.2,110.1c-0.1,0.2,0.5,0.7,1.3,1.1s1.6,0.5,1.7,0.3s-0.5-0.7-1.3-1.1S204.3,109.9,204.2,110.1z"/>
<path class="st7" d="M204.4,110.1L204.4,110.1c0.5,0,1,0.1,1.4,0.4c0.6,0.3,1.1,0.7,1.2,0.8c0,0.1,0,0.1,0,0
	c0.1-0.1-0.5-0.5-1.2-0.9S204.5,110,204.4,110.1z"/>
<path class="st17" d="M204.4,110.1L204.4,110.1c0.5,0,1,0.1,1.4,0.4c0.6,0.3,1.1,0.7,1.2,0.8c0,0.1,0,0.1,0,0
	c0.1-0.1-0.5-0.5-1.2-0.9S204.5,110,204.4,110.1z"/>
<g class="st18">
	<path class="st19" d="M204.4,110.2c0.3,0.4,0.7,0.7,1.2,0.8c0.4,0.2,0.9,0.4,1.4,0.4c0-0.2-0.5-0.5-1.2-0.8
		C205.4,110.3,204.9,110.2,204.4,110.2z"/>
</g>
<path class="st17" d="M202.3,111.2c0,0.2,0.7,0.4,1.6,0.5s1.6-0.1,1.7-0.3s-0.7-0.4-1.6-0.5S202.4,111,202.3,111.2z"/>
<rect x="203.8" y="109.4" transform="matrix(4.239879e-02 -0.9991 0.9991 4.239879e-02 84.4036 310.1247)" class="st17" width="0.4" height="3.3"/>
<path class="st7" d="M202.4,110.8c0,0.2,0.7,0.4,1.6,0.5s1.6-0.1,1.7-0.3s-0.7-0.4-1.6-0.5S202.4,110.5,202.4,110.8z"/>
<path class="st2" d="M202.4,110.8c0,0.2,0.7,0.4,1.6,0.5s1.6-0.1,1.7-0.3s-0.7-0.4-1.6-0.5S202.4,110.5,202.4,110.8z"/>
<path class="st7" d="M202.6,110.8L202.6,110.8c0.4-0.2,0.9-0.3,1.4-0.2c0.5,0,1,0.1,1.4,0.3l0,0c0-0.2-0.6-0.3-1.4-0.3
	S202.6,110.6,202.6,110.8z"/>
<path class="st17" d="M202.6,110.8L202.6,110.8c0.4-0.2,0.9-0.3,1.4-0.2c0.5,0,1,0.1,1.4,0.3l0,0c0-0.2-0.6-0.3-1.4-0.3
	S202.6,110.6,202.6,110.8z"/>
<g class="st18">
	<path class="st19" d="M202.6,110.8c0.4,0.2,0.9,0.3,1.4,0.3c0.5,0.1,1,0,1.4-0.2c-0.4-0.2-0.9-0.3-1.4-0.3
		C203.5,110.5,203,110.6,202.6,110.8z"/>
</g>
<path class="st23" d="M208.6,60.6c-0.8,0-1.4,0.6-1.4,1.3c0,0.8,0.6,1.4,1.3,1.4c0.8,0,1.4-0.6,1.4-1.3c0,0,0,0,0,0
	C210,61.3,209.4,60.6,208.6,60.6z M208.6,62.7c-0.4,0-0.7-0.3-0.6-0.7c0-0.4,0.3-0.7,0.7-0.7s0.7,0.3,0.7,0.7
	C209.4,62.4,209.1,62.7,208.6,62.7C208.7,62.7,208.7,62.7,208.6,62.7z"/>
<path class="st23" d="M212.1,64.7c-0.8,0-1.4,0.6-1.4,1.4c0,0.8,0.6,1.4,1.4,1.4c0.8,0,1.4-0.6,1.4-1.4c0,0,0,0,0-0.1
	C213.5,65.3,212.9,64.7,212.1,64.7z M212.1,66.7c-0.4,0-0.7-0.3-0.7-0.7s0.3-0.7,0.7-0.7c0.4,0,0.7,0.3,0.7,0.7
	S212.5,66.7,212.1,66.7C212.1,66.7,212.1,66.7,212.1,66.7z"/>
<polygon class="st23" points="209.2,67.4 208.2,67.4 211.4,60.6 212.3,60.6 "/>
<g class="st24">
	<path class="st23" d="M208.6,60.6c-0.8,0-1.4,0.6-1.4,1.3c0,0.8,0.6,1.4,1.3,1.4c0.8,0,1.4-0.6,1.4-1.3c0,0,0,0,0,0
		C210,61.3,209.4,60.6,208.6,60.6z M208.6,62.7c-0.4,0-0.7-0.3-0.6-0.7c0-0.4,0.3-0.7,0.7-0.7s0.7,0.3,0.7,0.7
		C209.4,62.4,209.1,62.7,208.6,62.7C208.7,62.7,208.7,62.7,208.6,62.7z"/>
	<path class="st23" d="M212.1,64.7c-0.8,0-1.4,0.6-1.4,1.4c0,0.8,0.6,1.4,1.4,1.4c0.8,0,1.4-0.6,1.4-1.4c0,0,0,0,0-0.1
		C213.5,65.3,212.9,64.7,212.1,64.7z M212.1,66.7c-0.4,0-0.7-0.3-0.7-0.7s0.3-0.7,0.7-0.7c0.4,0,0.7,0.3,0.7,0.7
		S212.5,66.7,212.1,66.7C212.1,66.7,212.1,66.7,212.1,66.7z"/>
	<polygon class="st23" points="209.2,67.4 208.2,67.4 211.4,60.6 212.3,60.6 	"/>
</g>
<path class="st23" d="M219.2,63.2l1.5-1l-1.2-3.4l-1.8,0.2c-0.4-0.6-0.9-1.2-1.5-1.7l0.4-1.8l-3.2-1.6l-1.2,1.4
	c-0.8-0.1-1.5-0.2-2.3-0.1l-1-1.5l-3.4,1.2l0.2,1.8c-0.6,0.4-1.2,0.9-1.7,1.5l-1.8-0.4l-1.5,3.2l1.4,1.2c-0.1,0.8-0.2,1.5-0.1,2.3
	l-1.5,1l1.2,3.4l1.8-0.2c0.4,0.6,1,1.2,1.6,1.7l-0.4,1.8l3.2,1.6l1.1-1.4c0.7,0.1,1.5,0.2,2.3,0.1l1,1.5l3.4-1.2l-0.2-1.8
	c0.6-0.4,1.2-0.9,1.7-1.5l1.8,0.4l1.6-3.2l-1.4-1.2C219.3,64.7,219.3,63.9,219.2,63.2z M210.7,69.8c-3.3,0-6.1-2.7-6.1-6.1
	c0-3.3,2.7-6.1,6.1-6.1c3.3,0,6.1,2.7,6.1,6.1c0,0,0,0,0,0.1C216.7,67.1,214,69.8,210.7,69.8L210.7,69.8z"/>
</svg>
