<?xml version="1.0" encoding="utf-8"?>
<!-- Generator: Adobe Illustrator 26.0.2, SVG Export Plug-In . SVG Version: 6.00 Build 0)  -->
<svg version="1.1" id="Layer_1" xmlns="http://www.w3.org/2000/svg" xmlns:xlink="http://www.w3.org/1999/xlink" x="0px" y="0px"
	 viewBox="0 0 280 120" style="enable-background:new 0 0 280 120;" xml:space="preserve">
<style type="text/css">
	.st0{fill:url(#SVGID_1_);}
	.st1{fill:#1442B2;}
	.st2{fill:#FFFFFF;}
	.st3{fill:#A6A29C;}
	.st4{font-family:'Rubik-Bold';}
	.st5{font-size:16.9404px;}
	.st6{font-family:'Rubik-Regular';}
	.st7{font-size:12.858px;}
	.st8{font-family:'MyriadPro-Regular';}
	.st9{fill:#A3BBC4;}
	.st10{fill:#C3D82E;}
	.st11{fill:#D6F2F5;}
	.st12{opacity:0.18;fill:#0E4744;enable-background:new    ;}
	.st13{fill:#FAFAFA;}
	.st14{opacity:0.6;fill:#CCCCCC;}
	.st15{fill:#F4C477;}
	.st16{fill:#E6B86F;}
	.st17{fill:#FF9300;}
	.st18{fill:#E97A00;}
	.st19{opacity:0.4;fill:url(#SVGID_00000173128731825186732460000015174120956712746685_);}
	.st20{fill:#FFC000;}
	.st21{opacity:0.4;fill:url(#SVGID_00000075862434264039496920000006535737559286401949_);}
	.st22{opacity:0.4;fill:url(#SVGID_00000033353660133104619230000008540872125896143527_);}
	.st23{opacity:0.4;fill:url(#SVGID_00000085971069950980019060000010560659394566387874_);}
	.st24{opacity:0.4;fill:url(#SVGID_00000040534895331337109080000006846677094090459563_);}
	.st25{opacity:0.4;fill:url(#SVGID_00000034768600837062307560000018160390711487692725_);}
	.st26{opacity:0.4;fill:url(#SVGID_00000008867350536343587940000018075339979909625746_);}
	.st27{opacity:0.4;fill:url(#SVGID_00000047747555435328443120000003815009801479275687_);}
	.st28{opacity:0.4;fill:url(#SVGID_00000053512091946817245060000012953010990161844370_);}
	.st29{opacity:0.4;fill:url(#SVGID_00000090285135667889299050000004759002611248966317_);}
	.st30{opacity:0.4;fill:url(#SVGID_00000008125122459119507300000001730221492748897414_);}
	.st31{opacity:0.4;fill:url(#SVGID_00000097487739563046450840000012219035388866268332_);}
	.st32{opacity:0.4;fill:url(#SVGID_00000014622053162067250380000010749072246538047878_);}
	.st33{opacity:0.4;fill:url(#SVGID_00000102521940038571745650000014467159542958504077_);}
	.st34{opacity:0.4;fill:url(#SVGID_00000165928679143608933680000012511380581700811435_);}
	.st35{fill:#57453F;}
	.st36{fill:#D66E00;}
	.st37{opacity:0.8;fill:#B3B3B3;}
</style>
<linearGradient id="SVGID_1_" gradientUnits="userSpaceOnUse" x1="262.6318" y1="208.4535" x2="-29.9608" y2="-40.9641" gradientTransform="matrix(1 0 0 1 0 -28)">
	<stop  offset="0" style="stop-color:#3F6EFD"/>
	<stop  offset="1" style="stop-color:#00E0FD"/>
</linearGradient>
<rect x="-0.5" y="-0.3" class="st0" width="281" height="152.3"/>
<g>
	<path class="st1" d="M279.9,29.5H218c-3.9,0-7-3.2-7-7v-8.4c0-3.9,3.2-7,7-7h61.9l0,0V29.5L279.9,29.5z"/>
	<path class="st2" d="M220.2,23c-0.1-0.1-0.1-0.1-0.1-0.2v-7.5c0-0.1,0-0.2,0.1-0.2c0.1-0.1,0.1-0.1,0.2-0.1h0.9
		c0.1,0,0.3,0.1,0.4,0.2l3.3,5.1v-5c0-0.1,0-0.2,0.1-0.2c0-0.1,0.1-0.1,0.2-0.1h1c0.1,0,0.2,0,0.2,0.1c0.1,0.1,0.1,0.1,0.1,0.2v7.5
		c0,0.1,0,0.2-0.1,0.2c-0.1,0.1-0.1,0.1-0.2,0.1h-0.9c-0.1,0-0.3-0.1-0.4-0.2l-3.3-5v4.9c0,0.1,0,0.2-0.1,0.2
		c-0.1,0.1-0.1,0.1-0.2,0.1h-1C220.3,23.1,220.2,23.1,220.2,23z"/>
	<path class="st2" d="M228.3,23c-0.1-0.1-0.1-0.1-0.1-0.2v-7.5c0-0.1,0-0.2,0.1-0.2c0.1-0.1,0.2-0.1,0.2-0.1h5c0.1,0,0.2,0,0.2,0.1
		c0.1,0.1,0.1,0.1,0.1,0.2v0.9c0,0.1,0,0.1-0.1,0.2c-0.1,0.1-0.1,0.1-0.2,0.1h-3.8v2.2h3.5c0.1,0,0.2,0,0.2,0.1
		c0.1,0.1,0.1,0.1,0.1,0.2v0.9c0,0.1,0,0.2-0.1,0.2c-0.1,0.1-0.1,0.1-0.2,0.1h-3.5V23c0,0.1,0,0.2-0.1,0.2c-0.1,0.1-0.1,0.1-0.2,0.1
		h-1C228.4,23.1,228.3,23.1,228.3,23z"/>
	<path class="st2" d="M235.8,22.3c-0.7-0.6-1-1.4-1-2.4c0-0.2,0-0.6,0-1c0-0.4,0-0.8,0-1c0-0.9,0.3-1.7,1-2.3c1.4-1.1,3.5-1.1,4.9,0
		c0.7,0.6,1,1.4,1,2.3c0,0.5,0,0.8,0,1s0,0.5,0,1c0,0.9-0.3,1.7-1,2.4C239.2,23.5,237.2,23.5,235.8,22.3L235.8,22.3z M239.5,21.4
		c0.3-0.4,0.5-0.9,0.5-1.4c0-0.5,0-0.8,0-1s0-0.5,0-1c0-0.5-0.2-1.1-0.5-1.4c-0.7-0.6-1.7-0.6-2.4,0c-0.3,0.4-0.5,0.9-0.5,1.4
		c0,0.2,0,0.6,0,1c0,0.4,0,0.7,0,1c0,0.5,0.2,1.1,0.5,1.4c0.3,0.3,0.8,0.5,1.3,0.5C238.7,21.9,239.1,21.8,239.5,21.4L239.5,21.4z"/>
	<path class="st2" d="M244.8,23c0,0-0.1-0.1-0.1-0.2v-0.1l2.8-7.4c0.1-0.2,0.2-0.3,0.4-0.3h1.3c0.2,0,0.4,0.1,0.4,0.3l2.8,7.4v0.1
		c0,0.1,0,0.1-0.1,0.2c0,0-0.1,0.1-0.2,0.1H251c-0.2,0-0.3-0.1-0.4-0.2l-0.6-1.4h-3.2l-0.6,1.4c-0.1,0.1-0.2,0.2-0.4,0.2L244.8,23
		C244.9,23.1,244.9,23,244.8,23z M247.3,20.1h2.6l-1.3-3.6L247.3,20.1z"/>
	<path class="st2" d="M253.5,23c-0.1-0.1-0.1-0.1-0.1-0.2v-7.6c0-0.1,0-0.2,0.1-0.2c0.1-0.1,0.1-0.1,0.2-0.1h1c0.1,0,0.2,0,0.2,0.1
		c0.1,0.1,0.1,0.1,0.1,0.2v7.6c0,0.1,0,0.2-0.1,0.2c-0.1,0.1-0.1,0.1-0.2,0.1h-1C253.6,23.1,253.5,23,253.5,23z"/>
	<path class="st2" d="M257,22.4c-0.6-0.6-0.9-1.3-0.8-2.1V20c0-0.9,0.2-1.6,0.8-2.3c1.2-1.2,3.1-1.2,4.2,0c0.5,0.6,0.8,1.4,0.8,2.2
		v0.2c0,0.1,0,0.2-0.1,0.2c-0.1,0.1-0.1,0.1-0.2,0.1h-3.9v0.1c0,0.4,0.1,0.8,0.4,1.1c0.2,0.3,0.6,0.5,0.9,0.4c0.4,0,0.9-0.2,1.1-0.6
		c0.1-0.1,0.1-0.1,0.2-0.2c0.1,0,0.1,0,0.2,0h1c0.1,0,0.1,0,0.2,0.1c0.1,0,0.1,0.1,0.1,0.2c0,0.3-0.2,0.5-0.4,0.7
		c-0.3,0.3-0.6,0.5-1,0.7c-0.5,0.2-1,0.3-1.4,0.3C258.3,23.2,257.5,23,257,22.4z M260.3,19.6L260.3,19.6c0-0.4-0.1-0.8-0.4-1.1
		c-0.5-0.5-1.3-0.6-1.8-0.1c0,0,0,0-0.1,0.1c-0.2,0.3-0.4,0.7-0.4,1.1l0,0H260.3z"/>
	<path class="st2" d="M263.2,23c-0.1-0.1-0.1-0.1-0.1-0.2v-5.5c0-0.1,0-0.2,0.1-0.2c0.1-0.1,0.1-0.1,0.2-0.1h1c0.1,0,0.2,0,0.2,0.1
		c0.1,0.1,0.1,0.1,0.1,0.2v0.5c0.4-0.5,1.1-0.8,1.6-0.8h0.5c0.1,0,0.3,0.1,0.3,0.2l0,0v0.9c0,0.1,0,0.1-0.1,0.2
		c-0.1,0.1-0.1,0.1-0.2,0.1h-1c-0.6-0.1-1.2,0.4-1.2,1c0,0.1,0,0.1,0,0.2v3.2c0,0.1,0,0.2-0.1,0.2c-0.1,0.1-0.1,0.1-0.2,0.1H263.2
		C263.3,23.1,263.2,23,263.2,23z"/>
	<path class="st2" d="M269.1,22.5c-0.4-0.5-0.6-1.1-0.5-1.6v-2.6h-1c-0.1,0-0.2,0-0.2-0.1c-0.1-0.1-0.1-0.1-0.1-0.2v-0.7
		c0-0.1,0-0.1,0.1-0.2c0-0.1,0.1-0.1,0.2-0.1h1v-1.9c0-0.1,0-0.2,0.1-0.2c0.1-0.1,0.1-0.1,0.2-0.1h1c0.1,0,0.2,0,0.2,0.1
		c0.1,0.1,0.1,0.1,0.1,0.2v1.9h1.4c0.1,0,0.2,0,0.2,0.1c0.1,0.1,0.1,0.1,0.1,0.2V18c0,0.1,0,0.1-0.1,0.2c-0.1,0.1-0.1,0.1-0.2,0.1
		h-1.4v2.5c0,0.3,0,0.5,0.2,0.8c0.1,0.2,0.4,0.3,0.6,0.3h0.8c0.1,0,0.3,0.1,0.3,0.2l0,0v0.8c0,0.1,0,0.2-0.1,0.2
		c-0.1,0.1-0.1,0.1-0.2,0.1h-1C270.1,23.1,269.6,22.9,269.1,22.5z"/>
</g>
<g>
	<path class="st1" d="M15.2,87.7h77.2c1.5,0,2.8,1.2,2.8,2.8v17.9c0,1.5-1.2,2.8-2.8,2.8H15.2c-1.5,0-2.8-1.2-2.8-2.8V90.5
		C12.6,88.9,13.7,87.7,15.2,87.7z"/>
	<path class="st2" d="M23.5,103.5c-0.1-0.1-0.1-0.1-0.1-0.2v-7.8c0-0.1,0-0.2,0.1-0.2c0.1-0.1,0.1-0.1,0.2-0.1h1.2
		c0.1,0,0.2,0,0.2,0.1c0.1,0.1,0.1,0.1,0.1,0.2v7.7c0,0.1,0,0.1-0.1,0.2s-0.1,0.1-0.2,0.1h-1.1C23.7,103.5,23.6,103.5,23.5,103.5z"
		/>
	<path class="st2" d="M26.9,103.5c-0.1,0-0.1-0.1-0.1-0.2v-5.6c0-0.1,0-0.1,0.1-0.2c0.1-0.1,0.1-0.1,0.2-0.1h1c0.1,0,0.2,0,0.2,0.1
		c0.1,0.1,0.1,0.1,0.1,0.2v0.5c0.5-0.6,1.2-0.9,2-0.9c0.7,0,1.3,0.2,1.8,0.7c0.5,0.6,0.7,1.3,0.7,2v3.3c0,0.1,0,0.1-0.1,0.2
		c-0.1,0.1-0.1,0.1-0.2,0.1h-1.2c-0.2,0-0.3-0.1-0.3-0.3V100c0-0.4-0.1-0.8-0.3-1.1c-0.3-0.3-0.6-0.4-1-0.4s-0.7,0.1-1,0.4
		c-0.3,0.3-0.4,0.7-0.4,1.1v3.2c0,0.1,0,0.1-0.1,0.2s-0.1,0.1-0.2,0.1h-1C27,103.6,26.9,103.5,26.9,103.5z"/>
	<path class="st2" d="M36,103.5c-0.1-0.1-0.1-0.1-0.2-0.2l-2.3-5.5v-0.1c0-0.1,0-0.1,0.1-0.2c0-0.1,0.1-0.1,0.2-0.1h1
		c0.1,0,0.3,0.1,0.3,0.2l1.6,4.1l1.6-4.1c0-0.1,0.1-0.1,0.1-0.2c0.1-0.1,0.1-0.1,0.2-0.1h1c0.1,0,0.1,0,0.2,0.1c0,0,0.1,0.1,0.1,0.2
		v0.1l-2.2,5.5c-0.1,0.2-0.2,0.3-0.4,0.3h-1C36.1,103.6,36,103.5,36,103.5z"/>
	<path class="st2" d="M41.2,102.9c-0.6-0.6-0.9-1.4-0.8-2.2v-0.3c0-0.9,0.2-1.7,0.8-2.4c1.2-1.1,3.1-1.1,4.3,0
		c0.5,0.7,0.8,1.5,0.7,2.4v0.2c0,0.1,0,0.2-0.1,0.2c-0.1,0.1-0.1,0.1-0.2,0.1h-3.9v0.1c0,0.4,0.1,0.8,0.4,1.1
		c0.2,0.3,0.6,0.5,0.9,0.4c0.4,0,0.9-0.2,1.1-0.6c0-0.1,0.1-0.1,0.2-0.2c0.1,0,0.1,0,0.2,0h1.1c0.1,0,0.1,0,0.2,0.1
		c0.1,0,0.1,0.1,0.1,0.2c0,0.3-0.1,0.5-0.3,0.7c-0.3,0.3-0.6,0.5-1,0.7c-0.5,0.2-1,0.3-1.5,0.3C42.4,103.7,41.8,103.4,41.2,102.9z
		 M44.5,99.9L44.5,99.9c0-0.4-0.1-0.8-0.3-1.1c-0.2-0.3-0.6-0.5-1-0.4c-0.4,0-0.8,0.1-1,0.4s-0.4,0.7-0.3,1.1l0,0H44.5z"/>
	<path class="st2" d="M48.2,103.4c-0.3-0.1-0.7-0.4-0.9-0.6c-0.2-0.2-0.3-0.4-0.3-0.7c0-0.1,0-0.1,0.1-0.2c0.1,0,0.1-0.1,0.2-0.1h1
		c0.1,0,0.1,0,0.2,0.1l0.3,0.2c0.3,0.3,0.7,0.4,1.1,0.4c0.3,0,0.5-0.1,0.8-0.2c0.2-0.1,0.3-0.3,0.3-0.5c0-0.1,0-0.3-0.1-0.4
		c-0.1-0.1-0.3-0.2-0.5-0.3c-0.3-0.1-0.7-0.2-1.1-0.3c-0.6-0.1-1.1-0.3-1.5-0.7c-0.3-0.3-0.5-0.7-0.5-1.2c0-0.3,0.1-0.6,0.3-0.9
		s0.5-0.5,0.8-0.7c0.4-0.2,0.9-0.3,1.4-0.3c0.5,0,1,0.1,1.4,0.3c0.3,0.1,0.6,0.3,0.9,0.6c0.2,0.2,0.3,0.4,0.3,0.6
		c0,0.1,0,0.1-0.1,0.2c0,0-0.1,0.1-0.2,0.1h-0.9c-0.1,0-0.2,0-0.2-0.1l-0.3-0.2c-0.1-0.1-0.3-0.2-0.4-0.3c-0.2-0.1-0.4-0.1-0.5-0.1
		c-0.2,0-0.5,0.1-0.7,0.2s-0.2,0.3-0.2,0.5c0,0.1,0,0.3,0.1,0.4c0.1,0.1,0.3,0.2,0.5,0.3c0.3,0.1,0.7,0.2,1,0.3
		c1.4,0.3,2.2,0.9,2.2,1.9c0,0.6-0.3,1.1-0.7,1.4c-0.6,0.4-1.3,0.6-2,0.5C49.2,103.7,48.7,103.6,48.2,103.4z"/>
	<path class="st2" d="M54.8,103c-0.4-0.5-0.6-1.1-0.5-1.7v-2.7h-1c-0.1,0-0.1,0-0.2-0.1c-0.1-0.1-0.2-0.1-0.2-0.2v-0.7
		c0-0.1,0-0.2,0.1-0.2c0.1-0.1,0.1-0.1,0.2-0.1h1v-2c0-0.1,0-0.2,0.1-0.2c0.1-0.1,0.1-0.1,0.2-0.1h1c0.1,0,0.2,0,0.2,0.1
		c0.1,0.1,0.1,0.1,0.1,0.2v2h1.5c0.1,0,0.1,0,0.2,0.1c0.1,0.1,0.1,0.1,0.1,0.2v0.7c0,0.1,0,0.2-0.1,0.2c-0.1,0.1-0.1,0.1-0.2,0.1
		h-1.5v2.6c0,0.3,0,0.5,0.2,0.8c0.1,0.2,0.4,0.3,0.6,0.3h0.8c0.1,0,0.2,0,0.2,0.1c0.1,0.1,0.1,0.1,0.1,0.2v0.8c0,0.1,0,0.1-0.1,0.2
		c-0.1,0.1-0.1,0.1-0.2,0.1h-1C55.8,103.6,55.2,103.4,54.8,103z"/>
	<path class="st2" d="M61.6,103.5c-0.1,0-0.1-0.1-0.1-0.2v-7.8c0-0.1,0-0.2,0.1-0.2c0.1-0.1,0.1-0.1,0.2-0.1h1
		c0.1,0,0.3,0.1,0.3,0.2l3.3,5.2v-5.1c0-0.2,0.1-0.3,0.3-0.3l0,0h1c0.1,0,0.2,0,0.2,0.1c0.1,0.1,0.1,0.1,0.1,0.2v7.7
		c0,0.1,0,0.2-0.1,0.2c0,0.1-0.1,0.1-0.2,0.1h-1c-0.2,0-0.3-0.1-0.4-0.2L63,98.2v5c0,0.1,0,0.1-0.1,0.2c-0.1,0.1-0.1,0.1-0.2,0.1
		L61.6,103.5C61.7,103.5,61.7,103.5,61.6,103.5z"/>
	<path class="st2" d="M70.3,102.9c-0.5-0.5-0.8-1.2-0.8-2v-1.1c0-0.8,0.3-1.5,0.8-2c0.6-0.5,1.4-0.8,2.2-0.7c0.8,0,1.5,0.2,2.1,0.7
		c0.5,0.5,0.8,1.2,0.8,2c0,0.1,0,0.3,0,0.5c0,0.2,0,0.4,0,0.5c0,0.8-0.3,1.5-0.8,2C73.3,103.9,71.5,103.9,70.3,102.9L70.3,102.9z
		 M73.4,102.1c0.3-0.3,0.4-0.7,0.4-1.2c0-0.1,0-0.2,0-0.5s0-0.4,0-0.5c0-0.4-0.1-0.8-0.4-1.2c-0.3-0.3-0.6-0.4-1-0.4s-0.7,0.1-1,0.4
		S71,99.4,71,99.9v0.9c0,0.4,0.1,0.8,0.4,1.2c0.3,0.3,0.6,0.4,1,0.4C72.8,102.5,73.2,102.3,73.4,102.1z"/>
	<path class="st2" d="M77.8,103.2l-1.7-5.5v-0.1c0-0.1,0-0.1,0.1-0.2c0-0.1,0.1-0.1,0.2-0.1h0.9c0.1,0,0.2,0,0.2,0.1
		c0.1,0,0.1,0.1,0.1,0.2l1.2,3.8l1.2-3.8c0-0.1,0.1-0.1,0.1-0.2c0.1-0.1,0.2-0.1,0.2-0.1h0.6c0.1,0,0.2,0,0.2,0.1
		c0.1,0,0.1,0.1,0.1,0.2l1.2,3.8l1.2-3.8c0-0.1,0.1-0.1,0.1-0.2c0.1,0,0.1-0.1,0.2-0.1h0.9c0.1,0,0.1,0,0.2,0.1
		c0.1,0,0.1,0.1,0.1,0.2v0.1l-1.6,5.5c0,0.1-0.1,0.2-0.1,0.2c-0.1,0.1-0.2,0.1-0.2,0.1h-0.8c-0.2,0-0.4-0.1-0.4-0.3l-1.2-3.7
		l-1.2,3.7c0,0.2-0.2,0.3-0.4,0.3h-0.8C78,103.5,77.9,103.4,77.8,103.2z"/>
</g>
<path class="st3" d="M159.3,106.7c-0.1,0.1-0.3,0.2-0.3,0.4c-0.1,0.2-0.1,0.5-0.1,0.5l1.1-0.6l-0.4-0.5L159.3,106.7z"/>
<g>
	<text transform="matrix(1 0 0 1 12.1053 36.2968)"><tspan x="0" y="0" class="st2 st4 st5">ICICI Prudential Nifty </tspan><tspan x="0" y="20.3" class="st2 st4 st5">Bank Index Fund</tspan></text>
	<text transform="matrix(1 0 0 1 12.1053 76.3427)"><tspan x="0" y="0" class="st1 st6 st7">SIP starts at </tspan><tspan x="76.4" y="0" class="st1 st8 st7">₹</tspan><tspan x="83" y="0" class="st1 st6 st7">1000</tspan></text>
</g>
<g>
	<path class="st9" d="M222.7,89.5l-15.4,3.1c-0.4,0.1-0.6-0.2-0.7-0.5l0,0c-0.1-0.4,0.2-0.6,0.5-0.7l15.4-3.1
		c0.4-0.1,0.6,0.2,0.7,0.5l0,0C223.3,89.2,223.1,89.5,222.7,89.5L222.7,89.5z"/>
	<path class="st9" d="M229.2,84.8l-22.6,4.6c-0.4,0.1-0.6-0.2-0.7-0.5l0,0l0,0c-0.1-0.4,0.2-0.6,0.5-0.7l22.6-4.6
		c0.4-0.1,0.6,0.2,0.7,0.5l0,0C229.8,84.3,229.6,84.7,229.2,84.8L229.2,84.8z"/>
	<path class="st9" d="M203.6,95.9l-7.1,1.5l-1.5-7.1l7.1-1.5L203.6,95.9z M197.1,96.4l5.4-1.1l-1.1-5.4L196,91L197.1,96.4z"/>
	<polygon class="st10" points="199.4,94.7 197.4,93.7 197.8,92.9 199,93.4 200.4,91.2 201.2,91.7 	"/>
	<polygon class="st10" points="196.5,80.5 194.5,79.4 194.9,78.6 196.1,79.2 197.4,76.9 198.4,77.4 	"/>
	<path class="st11" d="M226.5,90.4c-3.4,0.6-5.7,3.8-5.1,7.2c0.6,3.4,3.8,5.7,7.2,5.1c3.4-0.6,5.7-3.8,5.1-7.2
		C233.2,92.1,230,89.8,226.5,90.4L226.5,90.4z M232.1,95.8c0.5,2.5-1.2,4.8-3.7,5.3c-2.5,0.5-4.8-1.2-5.3-3.7s1.2-4.8,3.7-5.3l0,0
		C229.3,91.7,231.6,93.3,232.1,95.8L232.1,95.8z"/>
	<path class="st11" d="M229.1,104.2l-0.2,0.1c-4.2,0.7-8.2-2-8.9-6.2s2-8.2,6.2-8.9c2-0.4,4.1,0.1,5.7,1.3c3.4,2.4,4.3,7.2,1.9,10.7
		C232.7,102.7,231.1,103.8,229.1,104.2z M226.3,89.7c-4.1,0.1-7.2,3.3-7.2,7.4c0.1,4.1,3.3,7.2,7.4,7.2c4.1-0.1,7.2-3.3,7.2-7.4
		c-0.1-4-3.2-7.1-7.2-7.2H226.3z"/>
	<polygon class="st10" points="227.4,99.3 224.5,97.5 225.3,96.4 227,97.4 229.4,94.2 230.6,95.1 	"/>
	<polygon class="st12" points="253.2,114 230.3,110.1 235,109.3 226.6,108.5 225.6,108.8 204.2,107.3 211.6,45.3 258.8,50.2 
		253.6,95.7 	"/>
	<polygon class="st13" points="250.1,110.2 234.7,109.3 203.6,106.1 210,43.1 257.2,47.9 252.4,94.5 	"/>
	<path class="st9" d="M248.4,73l-22.9-2.3c-0.4,0-0.6-0.4-0.6-0.6l0,0l0,0c0-0.4,0.4-0.6,0.6-0.6l23,2.3c0.4,0,0.6,0.4,0.6,0.6l0,0
		l0,0C249,72.8,248.8,73,248.4,73C248.5,73,248.5,73,248.4,73z"/>
	<path class="st9" d="M248.1,76.5l-23-2.4c-0.4,0-0.6-0.4-0.6-0.6l0,0c0-0.4,0.4-0.6,0.6-0.6l22.9,2.3c0.4,0,0.6,0.4,0.6,0.6l0,0
		C248.7,76.2,248.4,76.5,248.1,76.5z"/>
	<path class="st9" d="M238.4,78.9l-13.5-1.4c-0.4,0-0.6-0.4-0.6-0.6l0,0c0-0.4,0.4-0.6,0.6-0.6l13.5,1.4c0.4,0,0.6,0.4,0.6,0.6l0,0
		C239,78.6,238.8,78.9,238.4,78.9z"/>
	<path class="st9" d="M239.3,90.3l-15.7-1.6c-0.4,0-0.6-0.4-0.6-0.6l0,0l0,0c0-0.4,0.4-0.6,0.6-0.6l0,0l15.7,1.6
		c0.4,0,0.6,0.4,0.6,0.6l0,0C240,90.1,239.7,90.3,239.3,90.3z"/>
	<path class="st9" d="M246.9,87.6L224,85.3c-0.4,0-0.6-0.4-0.6-0.6l0,0l0,0c0-0.4,0.4-0.6,0.6-0.6l0,0l22.9,2.3
		c0.4,0,0.6,0.4,0.6,0.6l0,0l0,0C247.6,87.4,247.3,87.7,246.9,87.6z"/>
	<path class="st9" d="M249.5,62.7l-22.9-2.3c-0.4,0-0.6-0.4-0.6-0.6l0,0l0,0c0-0.4,0.4-0.6,0.6-0.6l23,2.3c0.4,0,0.6,0.4,0.6,0.6
		l0,0C250.1,62.5,249.9,62.7,249.5,62.7z"/>
	<path class="st9" d="M249.9,59.2l-23-2.3c-0.4,0-0.6-0.4-0.6-0.6l0,0c0-0.4,0.4-0.6,0.6-0.6l0,0l22.9,2.3c0.4,0,0.6,0.4,0.6,0.6
		l0,0l0,0C250.5,59,250.1,59.3,249.9,59.2L249.9,59.2z"/>
	<polygon class="st10" points="215.5,88.2 213.8,86.6 214.6,85.9 215.5,86.8 217.5,85.1 218.2,85.8 	"/>
	<path class="st11" d="M242.7,92.2c-3.4-0.5-6.6,1.9-7,5.4c-0.5,3.4,1.9,6.6,5.4,7c3.4,0.5,6.6-1.9,7-5.4S246.2,92.7,242.7,92.2
		L242.7,92.2z M246.4,99.1c-0.4,2.5-2.6,4.3-5.1,3.9c-2.5-0.4-4.3-2.6-3.9-5.1c0.4-2.5,2.6-4.3,5.1-3.9l0,0
		C245,94.2,246.7,96.6,246.4,99.1L246.4,99.1z"/>
	<path class="st11" d="M241.1,106.1h-0.2c-4.2-0.6-7.1-4.4-6.6-8.6c0.6-4.2,4.4-7.1,8.6-6.6c2,0.3,3.8,1.3,5.1,3
		c2.6,3.3,1.9,8.2-1.4,10.7C245,105.7,243,106.3,241.1,106.1L241.1,106.1z M242.6,91.4c-4,0.1-7.2,3.3-7.1,7.4
		c0.1,4.1,3.3,7.2,7.4,7.1c4-0.1,7.2-3.3,7.1-7.4c-0.1-3.9-3.2-7.1-7.1-7.1H242.6z"/>
	<polygon class="st10" points="240.8,101 238.7,98.3 239.8,97.5 241.1,99 244.3,96.7 245.2,97.9 	"/>
	<polygon class="st12" points="242.3,103 227,104.3 203.9,103 203.8,103.7 194.6,103.5 195.7,41.1 243.1,41.1 243,46.5 241.8,46.4 
		242.6,86.9 	"/>
	<polygon class="st2" points="240.5,101.7 225.2,102.4 193.9,102.4 193.9,39 241.3,39 241.3,85.9 	"/>
	<path class="st11" d="M231.3,84.5c-3.4-0.1-6.4,2.6-6.5,6.1c-0.1,3.4,2.6,6.4,6.1,6.5c3.4,0.1,6.3-2.6,6.5-6
		C237.6,87.6,234.9,84.6,231.3,84.5C231.4,84.5,231.3,84.5,231.3,84.5z M235.8,90.9c-0.1,2.5-2.2,4.5-4.7,4.4
		c-2.5-0.1-4.5-2.2-4.4-4.7c0.1-2.5,2.2-4.5,4.7-4.4C233.8,86.3,235.8,88.4,235.8,90.9L235.8,90.9z"/>
	<path class="st11" d="M231.2,98.5h-0.3c-4.2-0.1-7.4-3.5-7.4-7.6c0-4.1,3.5-7.4,7.6-7.4c4.2,0.1,7.4,3.5,7.4,7.6
		C238.5,95.2,235.2,98.4,231.2,98.5z M231.2,83.7c-3.8,0.1-6.8,3.1-6.7,6.9c0.1,3.8,3.1,6.8,6.9,6.7c3.8-0.1,6.8-3.1,6.7-6.9
		c-0.1-3.7-3.1-6.7-6.7-6.7H231.2z"/>
	<polygon class="st10" points="230.4,93.5 227.9,91 229,90.1 230.4,91.5 233.4,88.9 234.5,89.9 	"/>
	<path class="st3" d="M193,90.7c0.2-0.1,0.5-0.1,0.6,0c0.3,0.1,0.5,0.2,0.7,0.4l-1.3,0.2L193,90.7z"/>
</g>
<g>
	
		<image style="overflow:visible;" width="411" height="242" id="JCQuUw_00000044167466082697246290000008210679253431774388_" xlink:href="19701D14018E609E.jpg"  transform="matrix(0.1022 0 0 0.1022 196.4666 52.4521)">
	</image>
</g>
<g>
	<g>
		<path class="st14" d="M190.5,107.5c0,1.8-7.3,3.2-16.3,3.2c-9,0-16.3-1.4-16.3-3.2c0-1.8,7.3-3.2,16.3-3.2
			C183.2,104.3,190.5,105.7,190.5,107.5z"/>
		<path class="st15" d="M201.5,96.7c0,0-2.9-14.5-13.6-20.8h-7.7c-10.7,6.4-13.6,20.8-13.6,20.8c-3.1,16.8,16.4,14.7,16.4,14.7h2.1
			C185.1,111.4,204.6,113.5,201.5,96.7z"/>
		<path class="st16" d="M201.5,96.7c0,0-2.9-14.5-13.6-20.8h-4.3c7.3,6.4,9.3,16.8,9.3,16.8c2.9,15.3-14.9,13.4-14.9,13.4h-1.9
			c0,0-4.6,0.5-8.8-1c3.6,7.7,15.7,6.4,15.7,6.4h2.1C185.1,111.4,204.6,113.5,201.5,96.7z"/>
		<path class="st15" d="M172.4,66.5c-0.4-0.5-1-1.6-0.3-2.2c0.9-0.7,2.6,0,3.5,0.3c1.2,0.3,2.5,0.6,3.8,0.5c1.3-0.1,2.7-0.8,3.8-1.3
			c1.1-0.5,2.3-1.3,3.7-0.9c1.4,0.4,2,1.7,3.6,1.8c2.9,0.3,4.6-2.3,7.3-2c1.4,0.1,1.2,1,0.5,1.6l-10.5,11.5h-7.7L172.4,66.5z"/>
		<g>
			<g>
				<path class="st14" d="M193.8,115.8c-3.5,0-6.4-1.1-6.4-2.5c0-1.4,2.9-2.5,6.4-2.5c3.5,0,6.4,1.1,6.4,2.5
					C200.2,114.7,197.3,115.8,193.8,115.8z"/>
				<path class="st14" d="M200.5,108.3c-3.5,0-6.4-1.1-6.4-2.5c0-1.4,2.9-2.5,6.4-2.5c3.5,0,6.4,1.1,6.4,2.5
					C206.9,107.2,204,108.3,200.5,108.3z"/>
				<path class="st14" d="M199.7,113.1c-3.5-0.1-6.4,0.9-6.5,2.2c0,1.4,2.8,2.6,6.3,2.7c3.5,0.1,6.4-0.9,6.5-2.2
					C206,114.4,203.2,113.2,199.7,113.1z"/>
				<path class="st14" d="M181.6,109.1c3.5-0.1,6.4,0.9,6.5,2.2c0,1.4-2.8,2.6-6.3,2.7c-3.5,0.1-6.4-0.9-6.5-2.2
					C175.3,110.4,178.1,109.2,181.6,109.1z"/>
				<g>
					<g>
						<g>
							<g>
								<path class="st17" d="M178.8,109.8c0,1.4,2.9,2.5,6.4,2.5c3.5,0,6.4-1.1,6.4-2.5v-1.2h-12.8V109.8z"/>
								<g>
									<path class="st18" d="M184.6,109.2v3c0.2,0,0.4,0,0.6,0v-3H184.6z"/>
									<path class="st18" d="M183.4,109.2v2.9c0.3,0,0.7,0.1,1,0.1v-3H183.4z"/>
									<path class="st18" d="M183.1,112.1v-3.5h-4.3v1.2C178.8,110.9,180.6,111.8,183.1,112.1z"/>
									<path class="st18" d="M187.5,109.2v2.9c0.1,0,0.1,0,0.2,0v-2.8H187.5z"/>
									<path class="st18" d="M186.7,112.2c0.1,0,0.1,0,0.2,0v-2.9h-0.2V112.2z"/>
									<path class="st18" d="M185.7,109.2v3c0.1,0,0.2,0,0.3,0v-3H185.7z"/>
								</g>
								<g>
									<path class="st17" d="M185.2,111.1c-3.5,0-6.4-1.1-6.4-2.5c0-1.4,2.9-2.5,6.4-2.5c3.5,0,6.4,1.1,6.4,2.5
										C191.6,110,188.7,111.1,185.2,111.1z"/>
									
										<linearGradient id="SVGID_00000127021673911863585490000017131843174074871740_" gradientUnits="userSpaceOnUse" x1="47.8862" y1="154.4672" x2="52.7898" y2="154.4672" gradientTransform="matrix(0 1 -1 0 338.2891 58.2881)">
										<stop  offset="0" style="stop-color:#FFFFFF"/>
										<stop  offset="1" style="stop-color:#E97A00"/>
									</linearGradient>
									<path style="opacity:0.4;fill:url(#SVGID_00000127021673911863585490000017131843174074871740_);" d="M188.8,110.7
										c-0.2,0-0.4,0-0.5,0c-3.5,0-6.4-1.1-6.4-2.5c0-0.8,1.1-1.6,2.8-2c-3.3,0.1-5.8,1.2-5.8,2.4c0,1.4,2.9,2.5,6.4,2.5
										C186.6,111.1,187.8,110.9,188.8,110.7z"/>
									<path class="st18" d="M191.6,108.7c-0.1-1.3-2.9-2.4-6.4-2.4c-3.5,0-6.3,1.1-6.4,2.4c0.1,1.3,2.9,2.4,6.4,2.4
										C188.7,111.1,191.5,110,191.6,108.7z M185.2,110.8c-2.9,0-5.2-0.9-5.2-2c0-1.1,2.3-2,5.2-2c2.9,0,5.2,0.9,5.2,2
										C190.4,109.9,188.1,110.8,185.2,110.8z"/>
									<path class="st18" d="M184.6,108.3l-2.5,0.7v0.5l2.5-0.8c0.2,0.2,0.6,0.4,1.1,0.5c0,0,0.1,0,0.1,0v0.4h0.9v-0.3
										c0.2,0,0.4,0,0.5,0v0.3h0.9v-1.3h-0.9v0.6c-0.2,0-0.3,0-0.5,0v-0.6h-0.9v0.4c-0.2-0.1-0.4-0.2-0.5-0.4L184.6,108.3z"/>
									<path class="st20" d="M190.4,108.6c0,1.1-2.3,2-5.2,2c-2.9,0-5.2-0.9-5.2-2c0-1.1,2.3-2,5.2-2
										C188.1,106.6,190.4,107.5,190.4,108.6 M191.6,108.6c0-1.4-2.9-2.5-6.4-2.5c-3.5,0-6.4,1.1-6.4,2.5c0,1.4,2.9,2.5,6.4,2.5
										C188.7,111.1,191.6,110,191.6,108.6L191.6,108.6z"/>
									<g>
										<path class="st20" d="M180.7,108.6c0-1,2-1.7,4.5-1.7c2.5,0,4.5,0.8,4.5,1.7c0,1-2,1.7-4.5,1.7
											C182.7,110.4,180.7,109.6,180.7,108.6z M189.5,108.6c0-0.9-1.9-1.7-4.3-1.7c-2.4,0-4.3,0.7-4.3,1.7c0,0.9,1.9,1.7,4.3,1.7
											C187.6,110.3,189.5,109.5,189.5,108.6z"/>
									</g>
									<path class="st20" d="M184.6,107.9l-2.5,0.7v0.5l2.5-0.8c0.2,0.2,0.6,0.4,1.1,0.5c0,0,0.1,0,0.1,0v0.4h0.9V109
										c0.2,0,0.4,0,0.5,0v0.3h0.9V108h-0.9v0.6c-0.2,0-0.3,0-0.5,0V108h-0.9v0.4c-0.2-0.1-0.4-0.2-0.5-0.4L184.6,107.9z"/>
								</g>
							</g>
						</g>
					</g>
				</g>
				<g>
					<g>
						<g>
							<g>
								<path class="st17" d="M178.8,107.3c0,1.4,2.9,2.5,6.4,2.5c3.5,0,6.4-1.1,6.4-2.5v-1.2h-12.8V107.3z"/>
								<g>
									<path class="st18" d="M184.6,106.8v3c0.2,0,0.4,0,0.6,0v-3H184.6z"/>
									<path class="st18" d="M183.4,106.8v2.9c0.3,0,0.7,0.1,1,0.1v-3H183.4z"/>
									<path class="st18" d="M183.1,109.6v-3.5h-4.3v1.2C178.8,108.4,180.6,109.3,183.1,109.6z"/>
									<path class="st18" d="M187.5,106.8v2.9c0.1,0,0.1,0,0.2,0v-2.8H187.5z"/>
									<path class="st18" d="M186.7,109.7c0.1,0,0.1,0,0.2,0v-2.9h-0.2V109.7z"/>
									<path class="st18" d="M185.7,106.8v3c0.1,0,0.2,0,0.3,0v-3H185.7z"/>
								</g>
								<g>
									<path class="st17" d="M185.2,108.6c-3.5,0-6.4-1.1-6.4-2.5c0-1.4,2.9-2.5,6.4-2.5c3.5,0,6.4,1.1,6.4,2.5
										C191.6,107.5,188.7,108.6,185.2,108.6z"/>
									
										<linearGradient id="SVGID_00000176753374828947765650000008379233055462847632_" gradientUnits="userSpaceOnUse" x1="45.4295" y1="154.4672" x2="50.3331" y2="154.4672" gradientTransform="matrix(0 1 -1 0 338.2891 58.2881)">
										<stop  offset="0" style="stop-color:#FFFFFF"/>
										<stop  offset="1" style="stop-color:#E97A00"/>
									</linearGradient>
									<path style="opacity:0.4;fill:url(#SVGID_00000176753374828947765650000008379233055462847632_);" d="M188.8,108.2
										c-0.2,0-0.4,0-0.5,0c-3.5,0-6.4-1.1-6.4-2.5c0-0.8,1.1-1.6,2.8-2c-3.3,0.1-5.8,1.2-5.8,2.4c0,1.4,2.9,2.5,6.4,2.5
										C186.6,108.6,187.8,108.5,188.8,108.2z"/>
									<path class="st18" d="M191.6,106.2c-0.1-1.3-2.9-2.4-6.4-2.4c-3.5,0-6.3,1.1-6.4,2.4c0.1,1.3,2.9,2.4,6.4,2.4
										C188.7,108.6,191.5,107.6,191.6,106.2z M185.2,108.3c-2.9,0-5.2-0.9-5.2-2c0-1.1,2.3-2,5.2-2c2.9,0,5.2,0.9,5.2,2
										C190.4,107.4,188.1,108.3,185.2,108.3z"/>
									<path class="st18" d="M184.6,105.8l-2.5,0.7v0.5l2.5-0.8c0.2,0.2,0.6,0.4,1.1,0.5c0,0,0.1,0,0.1,0v0.4h0.9v-0.3
										c0.2,0,0.4,0,0.5,0v0.3h0.9v-1.3h-0.9v0.6c-0.2,0-0.3,0-0.5,0v-0.6h-0.9v0.4c-0.2-0.1-0.4-0.2-0.5-0.4L184.6,105.8z"/>
									<path class="st20" d="M190.4,106.2c0,1.1-2.3,2-5.2,2c-2.9,0-5.2-0.9-5.2-2c0-1.1,2.3-2,5.2-2
										C188.1,104.2,190.4,105.1,190.4,106.2 M191.6,106.2c0-1.4-2.9-2.5-6.4-2.5c-3.5,0-6.4,1.1-6.4,2.5c0,1.4,2.9,2.5,6.4,2.5
										C188.7,108.6,191.6,107.5,191.6,106.2L191.6,106.2z"/>
									<g>
										<path class="st20" d="M180.7,106.2c0-1,2-1.7,4.5-1.7c2.5,0,4.5,0.8,4.5,1.7c0,1-2,1.7-4.5,1.7
											C182.7,107.9,180.7,107.1,180.7,106.2z M189.5,106.2c0-0.9-1.9-1.7-4.3-1.7c-2.4,0-4.3,0.7-4.3,1.7c0,0.9,1.9,1.7,4.3,1.7
											C187.6,107.8,189.5,107.1,189.5,106.2z"/>
									</g>
									<path class="st20" d="M184.6,105.5l-2.5,0.7v0.5l2.5-0.8c0.2,0.2,0.6,0.4,1.1,0.5c0,0,0.1,0,0.1,0v0.4h0.9v-0.3
										c0.2,0,0.4,0,0.5,0v0.3h0.9v-1.3h-0.9v0.6c-0.2,0-0.3,0-0.5,0v-0.6h-0.9v0.5c-0.2-0.1-0.4-0.2-0.5-0.4L184.6,105.5z"/>
								</g>
							</g>
						</g>
					</g>
				</g>
				<g>
					<g>
						<g>
							<g>
								<path class="st17" d="M178.8,104.9c0,1.4,2.9,2.5,6.4,2.5c3.5,0,6.4-1.1,6.4-2.5v-1.2h-12.8V104.9z"/>
								<g>
									<path class="st18" d="M184.6,104.3v3c0.2,0,0.4,0,0.6,0v-3H184.6z"/>
									<path class="st18" d="M183.4,104.3v2.9c0.3,0,0.7,0.1,1,0.1v-3H183.4z"/>
									<path class="st18" d="M183.1,107.2v-3.5h-4.3v1.2C178.8,105.9,180.6,106.9,183.1,107.2z"/>
									<path class="st18" d="M187.5,104.3v2.9c0.1,0,0.1,0,0.2,0v-2.8H187.5z"/>
									<path class="st18" d="M186.7,107.3c0.1,0,0.1,0,0.2,0v-2.9h-0.2V107.3z"/>
									<path class="st18" d="M185.7,104.3v3c0.1,0,0.2,0,0.3,0v-3H185.7z"/>
								</g>
								<g>
									<path class="st17" d="M185.2,106.2c-3.5,0-6.4-1.1-6.4-2.5c0-1.4,2.9-2.5,6.4-2.5c3.5,0,6.4,1.1,6.4,2.5
										C191.6,105.1,188.7,106.2,185.2,106.2z"/>
									
										<linearGradient id="SVGID_00000142172832963130461710000010690465914241159327_" gradientUnits="userSpaceOnUse" x1="42.9728" y1="154.4672" x2="47.8764" y2="154.4672" gradientTransform="matrix(0 1 -1 0 338.2891 58.2881)">
										<stop  offset="0" style="stop-color:#FFFFFF"/>
										<stop  offset="1" style="stop-color:#E97A00"/>
									</linearGradient>
									<path style="opacity:0.4;fill:url(#SVGID_00000142172832963130461710000010690465914241159327_);" d="M188.8,105.7
										c-0.2,0-0.4,0-0.5,0c-3.5,0-6.4-1.1-6.4-2.5c0-0.8,1.1-1.6,2.8-2c-3.3,0.1-5.8,1.2-5.8,2.4c0,1.4,2.9,2.5,6.4,2.5
										C186.6,106.2,187.8,106,188.8,105.7z"/>
									<path class="st18" d="M191.6,103.8c-0.1-1.3-2.9-2.4-6.4-2.4c-3.5,0-6.3,1.1-6.4,2.4c0.1,1.3,2.9,2.4,6.4,2.4
										C188.7,106.2,191.5,105.1,191.6,103.8z M185.2,105.9c-2.9,0-5.2-0.9-5.2-2c0-1.1,2.3-2,5.2-2c2.9,0,5.2,0.9,5.2,2
										C190.4,105,188.1,105.9,185.2,105.9z"/>
									<path class="st18" d="M184.6,103.4l-2.5,0.7v0.5l2.5-0.8c0.2,0.2,0.6,0.4,1.1,0.5c0,0,0.1,0,0.1,0v0.4h0.9v-0.3
										c0.2,0,0.4,0,0.5,0v0.3h0.9v-1.3h-0.9v0.6c-0.2,0-0.3,0-0.5,0v-0.6h-0.9v0.4c-0.2-0.1-0.4-0.2-0.5-0.4L184.6,103.4z"/>
									<path class="st20" d="M190.4,103.7c0,1.1-2.3,2-5.2,2c-2.9,0-5.2-0.9-5.2-2c0-1.1,2.3-2,5.2-2
										C188.1,101.7,190.4,102.6,190.4,103.7 M191.6,103.7c0-1.4-2.9-2.5-6.4-2.5c-3.5,0-6.4,1.1-6.4,2.5c0,1.4,2.9,2.5,6.4,2.5
										C188.7,106.2,191.6,105.1,191.6,103.7L191.6,103.7z"/>
									<g>
										<path class="st20" d="M180.7,103.7c0-1,2-1.7,4.5-1.7c2.5,0,4.5,0.8,4.5,1.7c0,1-2,1.7-4.5,1.7
											C182.7,105.4,180.7,104.7,180.7,103.7z M189.5,103.7c0-0.9-1.9-1.7-4.3-1.7c-2.4,0-4.3,0.7-4.3,1.7c0,0.9,1.9,1.7,4.3,1.7
											C187.6,105.4,189.5,104.6,189.5,103.7z"/>
									</g>
									<path class="st20" d="M184.6,103l-2.5,0.7v0.5l2.5-0.8c0.2,0.2,0.6,0.4,1.1,0.5c0,0,0.1,0,0.1,0v0.4h0.9V104
										c0.2,0,0.4,0,0.5,0v0.3h0.9v-1.3h-0.9v0.6c-0.2,0-0.3,0-0.5,0v-0.6h-0.9v0.5c-0.2-0.1-0.4-0.2-0.5-0.4L184.6,103z"/>
								</g>
							</g>
						</g>
					</g>
				</g>
				<g>
					<g>
						<g>
							<g>
								<path class="st17" d="M194.6,105.1c0,1.4,2.9,2.5,6.4,2.5c3.5,0,6.4-1.1,6.4-2.5v-1.2h-12.8V105.1z"/>
								<g>
									<path class="st18" d="M200.3,104.5v3c0.2,0,0.4,0,0.6,0v-3H200.3z"/>
									<path class="st18" d="M199.1,104.5v2.9c0.3,0,0.7,0.1,1,0.1v-3H199.1z"/>
									<path class="st18" d="M198.9,107.4v-3.5h-4.3v1.2C194.6,106.1,196.4,107.1,198.9,107.4z"/>
									<path class="st18" d="M203.2,104.5v2.9c0.1,0,0.1,0,0.2,0v-2.8H203.2z"/>
									<path class="st18" d="M202.4,107.5c0.1,0,0.1,0,0.2,0v-2.9h-0.2V107.5z"/>
									<path class="st18" d="M201.4,104.5v3c0.1,0,0.2,0,0.3,0v-3H201.4z"/>
								</g>
								<g>
									<path class="st17" d="M200.9,106.4c-3.5,0-6.4-1.1-6.4-2.5c0-1.4,2.9-2.5,6.4-2.5c3.5,0,6.4,1.1,6.4,2.5
										C207.3,105.3,204.5,106.4,200.9,106.4z"/>
									
										<linearGradient id="SVGID_00000024701074562413793240000016563789529316327609_" gradientUnits="userSpaceOnUse" x1="43.1687" y1="138.739" x2="48.0724" y2="138.739" gradientTransform="matrix(0 1 -1 0 338.2891 58.2881)">
										<stop  offset="0" style="stop-color:#FFFFFF"/>
										<stop  offset="1" style="stop-color:#E97A00"/>
									</linearGradient>
									<path style="opacity:0.4;fill:url(#SVGID_00000024701074562413793240000016563789529316327609_);" d="M204.5,105.9
										c-0.2,0-0.4,0-0.5,0c-3.5,0-6.4-1.1-6.4-2.5c0-0.8,1.1-1.6,2.8-2c-3.3,0.1-5.8,1.2-5.8,2.4c0,1.4,2.9,2.5,6.4,2.5
										C202.3,106.4,203.5,106.2,204.5,105.9z"/>
									<path class="st18" d="M207.3,104c-0.1-1.3-2.9-2.4-6.4-2.4c-3.5,0-6.3,1.1-6.4,2.4c0.1,1.3,2.9,2.4,6.4,2.4
										C204.4,106.4,207.2,105.3,207.3,104z M200.9,106.1c-2.9,0-5.2-0.9-5.2-2c0-1.1,2.3-2,5.2-2s5.2,0.9,5.2,2
										C206.1,105.2,203.8,106.1,200.9,106.1z"/>
									<path class="st18" d="M200.4,103.6l-2.5,0.7v0.5l2.5-0.8c0.3,0.2,0.6,0.4,1.1,0.5c0,0,0.1,0,0.1,0v0.4h0.9v-0.3
										c0.2,0,0.4,0,0.5,0v0.3h0.9v-1.3h-0.9v0.6c-0.2,0-0.3,0-0.5,0v-0.6h-0.9v0.5c-0.2-0.1-0.4-0.2-0.5-0.4L200.4,103.6z"/>
									<path class="st20" d="M206.1,103.9c0,1.1-2.3,2-5.2,2s-5.2-0.9-5.2-2s2.3-2,5.2-2S206.1,102.8,206.1,103.9 M207.3,103.9
										c0-1.4-2.9-2.5-6.4-2.5c-3.5,0-6.4,1.1-6.4,2.5c0,1.4,2.9,2.5,6.4,2.5C204.5,106.4,207.3,105.3,207.3,103.9L207.3,103.9z"
										/>
									<g>
										<path class="st20" d="M196.4,103.9c0-1,2-1.7,4.5-1.7c2.5,0,4.5,0.8,4.5,1.7s-2,1.7-4.5,1.7
											C198.5,105.6,196.4,104.9,196.4,103.9z M205.3,103.9c0-0.9-1.9-1.7-4.3-1.7c-2.4,0-4.3,0.7-4.3,1.7c0,0.9,1.9,1.7,4.3,1.7
											C203.3,105.6,205.3,104.8,205.3,103.9z"/>
									</g>
									<path class="st20" d="M200.4,103.2l-2.5,0.7v0.5l2.5-0.8c0.3,0.2,0.6,0.4,1.1,0.5c0,0,0.1,0,0.1,0v0.4h0.9v-0.3
										c0.2,0,0.4,0,0.5,0v0.3h0.9v-1.3h-0.9v0.6c-0.2,0-0.3,0-0.5,0v-0.6h-0.9v0.4c-0.2-0.1-0.4-0.2-0.5-0.4L200.4,103.2z"/>
								</g>
							</g>
						</g>
					</g>
				</g>
				<g>
					<g>
						<g>
							<g>
								<path class="st17" d="M194.6,102.6c0,1.4,2.9,2.5,6.4,2.5c3.5,0,6.4-1.1,6.4-2.5v-1.2h-12.8V102.6z"/>
								<g>
									<path class="st18" d="M200.3,102v3c0.2,0,0.4,0,0.6,0v-3H200.3z"/>
									<path class="st18" d="M199.1,102v2.9c0.3,0,0.7,0.1,1,0.1v-3H199.1z"/>
									<path class="st18" d="M198.9,104.9v-3.5h-4.3v1.2C194.6,103.7,196.4,104.6,198.9,104.9z"/>
									<path class="st18" d="M203.2,102v2.9c0.1,0,0.1,0,0.2,0V102H203.2z"/>
									<path class="st18" d="M202.4,105c0.1,0,0.1,0,0.2,0V102h-0.2V105z"/>
									<path class="st18" d="M201.4,102v3c0.1,0,0.2,0,0.3,0v-3H201.4z"/>
								</g>
								<g>
									<path class="st17" d="M200.9,103.9c-3.5,0-6.4-1.1-6.4-2.5s2.9-2.5,6.4-2.5c3.5,0,6.4,1.1,6.4,2.5S204.5,103.9,200.9,103.9
										z"/>
									
										<linearGradient id="SVGID_00000135657572102383815410000016281900732570575761_" gradientUnits="userSpaceOnUse" x1="40.7121" y1="138.739" x2="45.6156" y2="138.739" gradientTransform="matrix(0 1 -1 0 338.2891 58.2881)">
										<stop  offset="0" style="stop-color:#FFFFFF"/>
										<stop  offset="1" style="stop-color:#E97A00"/>
									</linearGradient>
									<path style="opacity:0.4;fill:url(#SVGID_00000135657572102383815410000016281900732570575761_);" d="M204.5,103.5
										c-0.2,0-0.4,0-0.5,0c-3.5,0-6.4-1.1-6.4-2.5c0-0.8,1.1-1.6,2.8-2c-3.3,0.1-5.8,1.2-5.8,2.4c0,1.4,2.9,2.5,6.4,2.5
										C202.3,103.9,203.5,103.7,204.5,103.5z"/>
									<path class="st18" d="M207.3,101.5c-0.1-1.3-2.9-2.4-6.4-2.4c-3.5,0-6.3,1.1-6.4,2.4c0.1,1.3,2.9,2.4,6.4,2.4
										C204.4,103.9,207.2,102.8,207.3,101.5z M200.9,103.6c-2.9,0-5.2-0.9-5.2-2c0-1.1,2.3-2,5.2-2s5.2,0.9,5.2,2
										C206.1,102.7,203.8,103.6,200.9,103.6z"/>
									<path class="st18" d="M200.4,101.1l-2.5,0.7v0.5l2.5-0.8c0.3,0.2,0.6,0.4,1.1,0.5c0,0,0.1,0,0.1,0v0.4h0.9v-0.3
										c0.2,0,0.4,0,0.5,0v0.3h0.9v-1.3h-0.9v0.6c-0.2,0-0.3,0-0.5,0v-0.6h-0.9v0.4c-0.2-0.1-0.4-0.2-0.5-0.4L200.4,101.1z"/>
									<path class="st20" d="M206.1,101.4c0,1.1-2.3,2-5.2,2s-5.2-0.9-5.2-2c0-1.1,2.3-2,5.2-2S206.1,100.3,206.1,101.4
										 M207.3,101.4c0-1.4-2.9-2.5-6.4-2.5c-3.5,0-6.4,1.1-6.4,2.5s2.9,2.5,6.4,2.5C204.5,103.9,207.3,102.8,207.3,101.4
										L207.3,101.4z"/>
									<g>
										<path class="st20" d="M196.4,101.4c0-1,2-1.7,4.5-1.7c2.5,0,4.5,0.8,4.5,1.7c0,1-2,1.7-4.5,1.7
											C198.5,103.2,196.4,102.4,196.4,101.4z M205.3,101.4c0-0.9-1.9-1.7-4.3-1.7c-2.4,0-4.3,0.7-4.3,1.7c0,0.9,1.9,1.7,4.3,1.7
											C203.3,103.1,205.3,102.4,205.3,101.4z"/>
									</g>
									<path class="st20" d="M200.4,100.8l-2.5,0.7v0.5l2.5-0.8c0.3,0.2,0.6,0.4,1.1,0.5c0,0,0.1,0,0.1,0v0.4h0.9v-0.3
										c0.2,0,0.4,0,0.5,0v0.3h0.9v-1.3h-0.9v0.6c-0.2,0-0.3,0-0.5,0v-0.6h-0.9v0.5c-0.2-0.1-0.4-0.2-0.5-0.4L200.4,100.8z"/>
								</g>
							</g>
						</g>
					</g>
				</g>
				<g>
					<g>
						<g>
							<g>
								<path class="st17" d="M194.6,100.2c0,1.4,2.9,2.5,6.4,2.5c3.5,0,6.4-1.1,6.4-2.5V99h-12.8V100.2z"/>
								<g>
									<path class="st18" d="M200.3,99.6v3c0.2,0,0.4,0,0.6,0v-3H200.3z"/>
									<path class="st18" d="M199.1,99.6v2.9c0.3,0,0.7,0.1,1,0.1v-3H199.1z"/>
									<path class="st18" d="M198.9,102.5V99h-4.3v1.2C194.6,101.2,196.4,102.1,198.9,102.5z"/>
									<path class="st18" d="M203.2,99.6v2.9c0.1,0,0.1,0,0.2,0v-2.8H203.2z"/>
									<path class="st18" d="M202.4,102.5c0.1,0,0.1,0,0.2,0v-2.9h-0.2V102.5z"/>
									<path class="st18" d="M201.4,99.6v3c0.1,0,0.2,0,0.3,0v-3H201.4z"/>
								</g>
								<g>
									<path class="st17" d="M200.9,101.4c-3.5,0-6.4-1.1-6.4-2.5c0-1.4,2.9-2.5,6.4-2.5c3.5,0,6.4,1.1,6.4,2.5
										C207.3,100.3,204.5,101.4,200.9,101.4z"/>
									
										<linearGradient id="SVGID_00000140696407298588461650000000515434365605243066_" gradientUnits="userSpaceOnUse" x1="38.2553" y1="138.739" x2="43.159" y2="138.739" gradientTransform="matrix(0 1 -1 0 338.2891 58.2881)">
										<stop  offset="0" style="stop-color:#FFFFFF"/>
										<stop  offset="1" style="stop-color:#E97A00"/>
									</linearGradient>
									<path style="opacity:0.4;fill:url(#SVGID_00000140696407298588461650000000515434365605243066_);" d="M204.5,101
										c-0.2,0-0.4,0-0.5,0c-3.5,0-6.4-1.1-6.4-2.5c0-0.8,1.1-1.6,2.8-2c-3.3,0.1-5.8,1.2-5.8,2.4c0,1.4,2.9,2.5,6.4,2.5
										C202.3,101.4,203.5,101.3,204.5,101z"/>
									<path class="st18" d="M207.3,99.1c-0.1-1.3-2.9-2.4-6.4-2.4c-3.5,0-6.3,1.1-6.4,2.4c0.1,1.3,2.9,2.4,6.4,2.4
										C204.4,101.4,207.2,100.4,207.3,99.1z M200.9,101.1c-2.9,0-5.2-0.9-5.2-2s2.3-2,5.2-2s5.2,0.9,5.2,2
										S203.8,101.1,200.9,101.1z"/>
									<path class="st18" d="M200.4,98.6l-2.5,0.7v0.5l2.5-0.8c0.3,0.2,0.6,0.4,1.1,0.5c0,0,0.1,0,0.1,0v0.4h0.9v-0.3
										c0.2,0,0.4,0,0.5,0v0.3h0.9v-1.3h-0.9v0.6c-0.2,0-0.3,0-0.5,0v-0.6h-0.9v0.4c-0.2-0.1-0.4-0.2-0.5-0.4L200.4,98.6z"/>
									<path class="st20" d="M206.1,99c0,1.1-2.3,2-5.2,2s-5.2-0.9-5.2-2c0-1.1,2.3-2,5.2-2S206.1,97.9,206.1,99 M207.3,99
										c0-1.4-2.9-2.5-6.4-2.5c-3.5,0-6.4,1.1-6.4,2.5c0,1.4,2.9,2.5,6.4,2.5C204.5,101.4,207.3,100.3,207.3,99L207.3,99z"/>
									<g>
										<path class="st20" d="M196.4,99c0-1,2-1.7,4.5-1.7c2.5,0,4.5,0.8,4.5,1.7c0,1-2,1.7-4.5,1.7
											C198.5,100.7,196.4,99.9,196.4,99z M205.3,99c0-0.9-1.9-1.7-4.3-1.7c-2.4,0-4.3,0.7-4.3,1.7c0,0.9,1.9,1.7,4.3,1.7
											C203.3,100.6,205.3,99.9,205.3,99z"/>
									</g>
									<path class="st20" d="M200.4,98.3l-2.5,0.7v0.5l2.5-0.8c0.3,0.2,0.6,0.4,1.1,0.5c0,0,0.1,0,0.1,0v0.4h0.9v-0.3
										c0.2,0,0.4,0,0.5,0v0.3h0.9v-1.3h-0.9V99c-0.2,0-0.3,0-0.5,0v-0.6h-0.9v0.5c-0.2-0.1-0.4-0.2-0.5-0.4L200.4,98.3z"/>
								</g>
							</g>
						</g>
					</g>
				</g>
				<g>
					<g>
						<g>
							<g>
								<path class="st17" d="M194.6,97.7c0,1.4,2.9,2.5,6.4,2.5c3.5,0,6.4-1.1,6.4-2.5v-1.2h-12.8V97.7z"/>
								<g>
									<path class="st18" d="M200.3,97.1v3c0.2,0,0.4,0,0.6,0v-3H200.3z"/>
									<path class="st18" d="M199.1,97.1v2.9c0.3,0,0.7,0.1,1,0.1v-3H199.1z"/>
									<path class="st18" d="M198.9,100v-3.5h-4.3v1.2C194.6,98.8,196.4,99.7,198.9,100z"/>
									<path class="st18" d="M203.2,97.1v2.9c0.1,0,0.1,0,0.2,0v-2.8H203.2z"/>
									<path class="st18" d="M202.4,100.1c0.1,0,0.1,0,0.2,0v-2.9h-0.2V100.1z"/>
									<path class="st18" d="M201.4,97.1v3c0.1,0,0.2,0,0.3,0v-3H201.4z"/>
								</g>
								<g>
									<path class="st17" d="M200.9,99c-3.5,0-6.4-1.1-6.4-2.5c0-1.4,2.9-2.5,6.4-2.5c3.5,0,6.4,1.1,6.4,2.5
										C207.3,97.9,204.5,99,200.9,99z"/>
									
										<linearGradient id="SVGID_00000082366826987311026190000014725151687226309004_" gradientUnits="userSpaceOnUse" x1="35.7987" y1="138.739" x2="40.7023" y2="138.739" gradientTransform="matrix(0 1 -1 0 338.2891 58.2881)">
										<stop  offset="0" style="stop-color:#FFFFFF"/>
										<stop  offset="1" style="stop-color:#E97A00"/>
									</linearGradient>
									<path style="opacity:0.4;fill:url(#SVGID_00000082366826987311026190000014725151687226309004_);" d="M204.5,98.6
										c-0.2,0-0.4,0-0.5,0c-3.5,0-6.4-1.1-6.4-2.5c0-0.8,1.1-1.6,2.8-2c-3.3,0.1-5.8,1.2-5.8,2.4c0,1.4,2.9,2.5,6.4,2.5
										C202.3,99,203.5,98.8,204.5,98.6z"/>
									<path class="st18" d="M207.3,96.6c-0.1-1.3-2.9-2.4-6.4-2.4c-3.5,0-6.3,1.1-6.4,2.4c0.1,1.3,2.9,2.4,6.4,2.4
										C204.4,99,207.2,97.9,207.3,96.6z M200.9,98.7c-2.9,0-5.2-0.9-5.2-2c0-1.1,2.3-2,5.2-2s5.2,0.9,5.2,2
										C206.1,97.8,203.8,98.7,200.9,98.7z"/>
									<path class="st18" d="M200.4,96.2l-2.5,0.7v0.5l2.5-0.8c0.3,0.2,0.6,0.4,1.1,0.5c0,0,0.1,0,0.1,0v0.4h0.9v-0.3
										c0.2,0,0.4,0,0.5,0v0.3h0.9v-1.3h-0.9v0.6c-0.2,0-0.3,0-0.5,0v-0.6h-0.9v0.4c-0.2-0.1-0.4-0.2-0.5-0.4L200.4,96.2z"/>
									<path class="st20" d="M206.1,96.5c0,1.1-2.3,2-5.2,2s-5.2-0.9-5.2-2c0-1.1,2.3-2,5.2-2S206.1,95.4,206.1,96.5 M207.3,96.5
										c0-1.4-2.9-2.5-6.4-2.5c-3.5,0-6.4,1.1-6.4,2.5c0,1.4,2.9,2.5,6.4,2.5C204.5,99,207.3,97.9,207.3,96.5L207.3,96.5z"/>
									<g>
										<path class="st20" d="M196.4,96.5c0-1,2-1.7,4.5-1.7c2.5,0,4.5,0.8,4.5,1.7c0,1-2,1.7-4.5,1.7
											C198.5,98.3,196.4,97.5,196.4,96.5z M205.3,96.5c0-0.9-1.9-1.7-4.3-1.7c-2.4,0-4.3,0.7-4.3,1.7c0,0.9,1.9,1.7,4.3,1.7
											C203.3,98.2,205.3,97.4,205.3,96.5z"/>
									</g>
									<path class="st20" d="M200.4,95.9l-2.5,0.7v0.5l2.5-0.8c0.3,0.2,0.6,0.4,1.1,0.5c0,0,0.1,0,0.1,0v0.4h0.9v-0.3
										c0.2,0,0.4,0,0.5,0v0.3h0.9v-1.3h-0.9v0.6c-0.2,0-0.3,0-0.5,0v-0.6h-0.9v0.5c-0.2-0.1-0.4-0.2-0.5-0.4L200.4,95.9z"/>
								</g>
							</g>
						</g>
					</g>
				</g>
				<g>
					<g>
						<g>
							<g>
								<path class="st17" d="M194.6,95.2c0,1.4,2.9,2.5,6.4,2.5c3.5,0,6.4-1.1,6.4-2.5v-1.2h-12.8V95.2z"/>
								<g>
									<path class="st18" d="M200.3,94.7v3c0.2,0,0.4,0,0.6,0v-3H200.3z"/>
									<path class="st18" d="M199.1,94.7v2.9c0.3,0,0.7,0.1,1,0.1v-3H199.1z"/>
									<path class="st18" d="M198.9,97.6v-3.5h-4.3v1.2C194.6,96.3,196.4,97.2,198.9,97.6z"/>
									<path class="st18" d="M203.2,94.7v2.9c0.1,0,0.1,0,0.2,0v-2.8H203.2z"/>
									<path class="st18" d="M202.4,97.6c0.1,0,0.1,0,0.2,0v-2.9h-0.2V97.6z"/>
									<path class="st18" d="M201.4,94.7v3c0.1,0,0.2,0,0.3,0v-3H201.4z"/>
								</g>
								<g>
									<path class="st17" d="M200.9,96.5c-3.5,0-6.4-1.1-6.4-2.5c0-1.4,2.9-2.5,6.4-2.5c3.5,0,6.4,1.1,6.4,2.5
										C207.3,95.4,204.5,96.5,200.9,96.5z"/>
									
										<linearGradient id="SVGID_00000108992359183346383160000000744140135541780113_" gradientUnits="userSpaceOnUse" x1="33.3421" y1="138.739" x2="38.2457" y2="138.739" gradientTransform="matrix(0 1 -1 0 338.2891 58.2881)">
										<stop  offset="0" style="stop-color:#FFFFFF"/>
										<stop  offset="1" style="stop-color:#E97A00"/>
									</linearGradient>
									<path style="opacity:0.4;fill:url(#SVGID_00000108992359183346383160000000744140135541780113_);" d="M204.5,96.1
										c-0.2,0-0.4,0-0.5,0c-3.5,0-6.4-1.1-6.4-2.5c0-0.8,1.1-1.6,2.8-2c-3.3,0.1-5.8,1.2-5.8,2.4c0,1.4,2.9,2.5,6.4,2.5
										C202.3,96.5,203.5,96.4,204.5,96.1z"/>
									<path class="st18" d="M207.3,94.2c-0.1-1.3-2.9-2.4-6.4-2.4c-3.5,0-6.3,1.1-6.4,2.4c0.1,1.3,2.9,2.4,6.4,2.4
										C204.4,96.5,207.2,95.5,207.3,94.2z M200.9,96.2c-2.9,0-5.2-0.9-5.2-2c0-1.1,2.3-2,5.2-2s5.2,0.9,5.2,2
										C206.1,95.3,203.8,96.2,200.9,96.2z"/>
									<path class="st18" d="M200.4,93.7l-2.5,0.7v0.5l2.5-0.8c0.3,0.2,0.6,0.4,1.1,0.5c0,0,0.1,0,0.1,0v0.4h0.9v-0.3
										c0.2,0,0.4,0,0.5,0v0.3h0.9v-1.3h-0.9v0.6c-0.2,0-0.3,0-0.5,0v-0.6h-0.9v0.4c-0.2-0.1-0.4-0.2-0.5-0.4L200.4,93.7z"/>
									<path class="st20" d="M206.1,94.1c0,1.1-2.3,2-5.2,2s-5.2-0.9-5.2-2c0-1.1,2.3-2,5.2-2S206.1,93,206.1,94.1 M207.3,94.1
										c0-1.4-2.9-2.5-6.4-2.5c-3.5,0-6.4,1.1-6.4,2.5c0,1.4,2.9,2.5,6.4,2.5C204.5,96.5,207.3,95.4,207.3,94.1L207.3,94.1z"/>
									<g>
										<path class="st20" d="M196.4,94.1c0-1,2-1.7,4.5-1.7c2.5,0,4.5,0.8,4.5,1.7c0,1-2,1.7-4.5,1.7
											C198.5,95.8,196.4,95,196.4,94.1z M205.3,94.1c0-0.9-1.9-1.7-4.3-1.7c-2.4,0-4.3,0.7-4.3,1.7c0,0.9,1.9,1.7,4.3,1.7
											C203.3,95.7,205.3,95,205.3,94.1z"/>
									</g>
									<path class="st20" d="M200.4,93.4l-2.5,0.7v0.5l2.5-0.8c0.3,0.2,0.6,0.4,1.1,0.5c0,0,0.1,0,0.1,0v0.4h0.9v-0.3
										c0.2,0,0.4,0,0.5,0v0.3h0.9v-1.3h-0.9v0.6c-0.2,0-0.3,0-0.5,0v-0.6h-0.9v0.5c-0.2-0.1-0.4-0.2-0.5-0.4L200.4,93.4z"/>
								</g>
							</g>
						</g>
					</g>
				</g>
				<g>
					<g>
						<g>
							<g>
								<path class="st17" d="M188.8,112.5c0,1.4,2.9,2.5,6.4,2.5c3.5,0,6.4-1.1,6.4-2.5v-1.2h-12.8V112.5z"/>
								<g>
									<path class="st18" d="M194.6,111.9v3c0.2,0,0.4,0,0.6,0v-3H194.6z"/>
									<path class="st18" d="M193.3,111.9v2.9c0.3,0,0.7,0.1,1,0.1v-3H193.3z"/>
									<path class="st18" d="M193.1,114.8v-3.5h-4.3v1.2C188.8,113.6,190.6,114.5,193.1,114.8z"/>
									<path class="st18" d="M197.4,111.9v2.9c0.1,0,0.1,0,0.2,0v-2.8H197.4z"/>
									<path class="st18" d="M196.7,114.9c0.1,0,0.1,0,0.2,0v-2.9h-0.2V114.9z"/>
									<path class="st18" d="M195.6,111.9v3c0.1,0,0.2,0,0.3,0v-3H195.6z"/>
								</g>
								<g>
									<path class="st17" d="M195.2,113.8c-3.5,0-6.4-1.1-6.4-2.5c0-1.4,2.9-2.5,6.4-2.5c3.5,0,6.4,1.1,6.4,2.5
										C201.6,112.7,198.7,113.8,195.2,113.8z"/>
									
										<linearGradient id="SVGID_00000152255680725261105420000012335075497060462725_" gradientUnits="userSpaceOnUse" x1="50.5928" y1="144.5126" x2="55.4965" y2="144.5126" gradientTransform="matrix(0 1 -1 0 338.2891 58.2881)">
										<stop  offset="0" style="stop-color:#FFFFFF"/>
										<stop  offset="1" style="stop-color:#E97A00"/>
									</linearGradient>
									<path style="opacity:0.4;fill:url(#SVGID_00000152255680725261105420000012335075497060462725_);" d="M198.8,113.4
										c-0.2,0-0.4,0-0.5,0c-3.5,0-6.4-1.1-6.4-2.5c0-0.8,1.1-1.6,2.8-2c-3.3,0.1-5.8,1.2-5.8,2.4c0,1.4,2.9,2.5,6.4,2.5
										C196.5,113.8,197.7,113.6,198.8,113.4z"/>
									<path class="st18" d="M201.6,111.4c-0.1-1.3-2.9-2.4-6.4-2.4c-3.5,0-6.3,1.1-6.4,2.4c0.1,1.3,2.9,2.4,6.4,2.4
										C198.6,113.8,201.4,112.7,201.6,111.4z M195.2,113.5c-2.9,0-5.2-0.9-5.2-2c0-1.1,2.3-2,5.2-2c2.9,0,5.2,0.9,5.2,2
										C200.4,112.6,198,113.5,195.2,113.5z"/>
									<path class="st18" d="M194.6,111l-2.5,0.7v0.5l2.5-0.8c0.2,0.2,0.6,0.4,1.1,0.5c0,0,0.1,0,0.1,0v0.4h0.9V112
										c0.2,0,0.4,0,0.5,0v0.3h0.9V111h-0.9v0.6c-0.2,0-0.3,0-0.5,0V111h-0.9v0.4c-0.2-0.1-0.4-0.2-0.5-0.4L194.6,111z"/>
									<path class="st20" d="M200.4,111.3c0,1.1-2.3,2-5.2,2c-2.9,0-5.2-0.9-5.2-2c0-1.1,2.3-2,5.2-2
										C198,109.3,200.4,110.2,200.4,111.3 M201.6,111.3c0-1.4-2.9-2.5-6.4-2.5c-3.5,0-6.4,1.1-6.4,2.5c0,1.4,2.9,2.5,6.4,2.5
										C198.7,113.8,201.6,112.7,201.6,111.3L201.6,111.3z"/>
									<g>
										<path class="st20" d="M190.7,111.3c0-1,2-1.7,4.5-1.7c2.5,0,4.5,0.8,4.5,1.7c0,1-2,1.7-4.5,1.7
											C192.7,113.1,190.7,112.3,190.7,111.3z M199.5,111.3c0-0.9-1.9-1.7-4.3-1.7c-2.4,0-4.3,0.7-4.3,1.7c0,0.9,1.9,1.7,4.3,1.7
											C197.5,113,199.5,112.2,199.5,111.3z"/>
									</g>
									<path class="st20" d="M194.6,110.7l-2.5,0.7v0.5l2.5-0.8c0.2,0.2,0.6,0.4,1.1,0.5c0,0,0.1,0,0.1,0v0.4h0.9v-0.3
										c0.2,0,0.4,0,0.5,0v0.3h0.9v-1.3h-0.9v0.6c-0.2,0-0.3,0-0.5,0v-0.6h-0.9v0.5c-0.2-0.1-0.4-0.2-0.5-0.4L194.6,110.7z"/>
								</g>
							</g>
						</g>
					</g>
				</g>
				<g>
					<g>
						<g>
							<g>
								<path class="st17" d="M188.8,110c0,1.4,2.9,2.5,6.4,2.5c3.5,0,6.4-1.1,6.4-2.5v-1.2h-12.8V110z"/>
								<g>
									<path class="st18" d="M194.6,109.5v3c0.2,0,0.4,0,0.6,0v-3H194.6z"/>
									<path class="st18" d="M193.3,109.5v2.9c0.3,0,0.7,0.1,1,0.1v-3H193.3z"/>
									<path class="st18" d="M193.1,112.4v-3.5h-4.3v1.2C188.8,111.1,190.6,112,193.1,112.4z"/>
									<path class="st18" d="M197.4,109.5v2.9c0.1,0,0.1,0,0.2,0v-2.8H197.4z"/>
									<path class="st18" d="M196.7,112.4c0.1,0,0.1,0,0.2,0v-2.9h-0.2V112.4z"/>
									<path class="st18" d="M195.6,109.5v3c0.1,0,0.2,0,0.3,0v-3H195.6z"/>
								</g>
								<g>
									<path class="st17" d="M195.2,111.3c-3.5,0-6.4-1.1-6.4-2.5c0-1.4,2.9-2.5,6.4-2.5c3.5,0,6.4,1.1,6.4,2.5
										C201.6,110.2,198.7,111.3,195.2,111.3z"/>
									
										<linearGradient id="SVGID_00000036964084546010884340000016728686283053615029_" gradientUnits="userSpaceOnUse" x1="48.1362" y1="144.5126" x2="53.0397" y2="144.5126" gradientTransform="matrix(0 1 -1 0 338.2891 58.2881)">
										<stop  offset="0" style="stop-color:#FFFFFF"/>
										<stop  offset="1" style="stop-color:#E97A00"/>
									</linearGradient>
									<path style="opacity:0.4;fill:url(#SVGID_00000036964084546010884340000016728686283053615029_);" d="M198.8,110.9
										c-0.2,0-0.4,0-0.5,0c-3.5,0-6.4-1.1-6.4-2.5c0-0.8,1.1-1.6,2.8-2c-3.3,0.1-5.8,1.2-5.8,2.4c0,1.4,2.9,2.5,6.4,2.5
										C196.5,111.3,197.7,111.2,198.8,110.9z"/>
									<path class="st18" d="M201.6,108.9c-0.1-1.3-2.9-2.4-6.4-2.4c-3.5,0-6.3,1.1-6.4,2.4c0.1,1.3,2.9,2.4,6.4,2.4
										C198.6,111.3,201.4,110.3,201.6,108.9z M195.2,111c-2.9,0-5.2-0.9-5.2-2c0-1.1,2.3-2,5.2-2c2.9,0,5.2,0.9,5.2,2
										C200.4,110.1,198,111,195.2,111z"/>
									<path class="st18" d="M194.6,108.5l-2.5,0.7v0.5l2.5-0.8c0.2,0.2,0.6,0.4,1.1,0.5c0,0,0.1,0,0.1,0v0.4h0.9v-0.3
										c0.2,0,0.4,0,0.5,0v0.3h0.9v-1.3h-0.9v0.6c-0.2,0-0.3,0-0.5,0v-0.6h-0.9v0.4c-0.2-0.1-0.4-0.2-0.5-0.4L194.6,108.5z"/>
									<path class="st20" d="M200.4,108.9c0,1.1-2.3,2-5.2,2c-2.9,0-5.2-0.9-5.2-2c0-1.1,2.3-2,5.2-2
										C198,106.9,200.4,107.8,200.4,108.9 M201.6,108.9c0-1.4-2.9-2.5-6.4-2.5c-3.5,0-6.4,1.1-6.4,2.5c0,1.4,2.9,2.5,6.4,2.5
										C198.7,111.3,201.6,110.2,201.6,108.9L201.6,108.9z"/>
									<g>
										<path class="st20" d="M190.7,108.9c0-1,2-1.7,4.5-1.7c2.5,0,4.5,0.8,4.5,1.7c0,1-2,1.7-4.5,1.7
											C192.7,110.6,190.7,109.8,190.7,108.9z M199.5,108.9c0-0.9-1.9-1.7-4.3-1.7c-2.4,0-4.3,0.7-4.3,1.7c0,0.9,1.9,1.7,4.3,1.7
											C197.5,110.5,199.5,109.8,199.5,108.9z"/>
									</g>
									<path class="st20" d="M194.6,108.2l-2.5,0.7v0.5l2.5-0.8c0.2,0.2,0.6,0.4,1.1,0.5c0,0,0.1,0,0.1,0v0.4h0.9v-0.3
										c0.2,0,0.4,0,0.5,0v0.3h0.9v-1.3h-0.9v0.6c-0.2,0-0.3,0-0.5,0v-0.6h-0.9v0.5c-0.2-0.1-0.4-0.2-0.5-0.4L194.6,108.2z"/>
								</g>
							</g>
						</g>
					</g>
				</g>
				<g>
					<g>
						<g>
							<g>
								<path class="st17" d="M188.8,107.6c0,1.4,2.9,2.5,6.4,2.5c3.5,0,6.4-1.1,6.4-2.5v-1.2h-12.8V107.6z"/>
								<g>
									<path class="st18" d="M194.6,107v3c0.2,0,0.4,0,0.6,0v-3H194.6z"/>
									<path class="st18" d="M193.3,107v2.9c0.3,0,0.7,0.1,1,0.1v-3H193.3z"/>
									<path class="st18" d="M193.1,109.9v-3.5h-4.3v1.2C188.8,108.6,190.6,109.6,193.1,109.9z"/>
									<path class="st18" d="M197.4,107v2.9c0.1,0,0.1,0,0.2,0V107H197.4z"/>
									<path class="st18" d="M196.7,110c0.1,0,0.1,0,0.2,0V107h-0.2V110z"/>
									<path class="st18" d="M195.6,107v3c0.1,0,0.2,0,0.3,0v-3H195.6z"/>
								</g>
								<g>
									<path class="st17" d="M195.2,108.9c-3.5,0-6.4-1.1-6.4-2.5s2.9-2.5,6.4-2.5c3.5,0,6.4,1.1,6.4,2.5S198.7,108.9,195.2,108.9
										z"/>
									
										<linearGradient id="SVGID_00000063599523608841849430000005405471360342755488_" gradientUnits="userSpaceOnUse" x1="45.6794" y1="144.5126" x2="50.5831" y2="144.5126" gradientTransform="matrix(0 1 -1 0 338.2891 58.2881)">
										<stop  offset="0" style="stop-color:#FFFFFF"/>
										<stop  offset="1" style="stop-color:#E97A00"/>
									</linearGradient>
									<path style="opacity:0.4;fill:url(#SVGID_00000063599523608841849430000005405471360342755488_);" d="M198.8,108.4
										c-0.2,0-0.4,0-0.5,0c-3.5,0-6.4-1.1-6.4-2.5c0-0.8,1.1-1.6,2.8-2c-3.3,0.1-5.8,1.2-5.8,2.4c0,1.4,2.9,2.5,6.4,2.5
										C196.5,108.9,197.7,108.7,198.8,108.4z"/>
									<path class="st18" d="M201.6,106.5c-0.1-1.3-2.9-2.4-6.4-2.4c-3.5,0-6.3,1.1-6.4,2.4c0.1,1.3,2.9,2.4,6.4,2.4
										C198.6,108.9,201.4,107.8,201.6,106.5z M195.2,108.6c-2.9,0-5.2-0.9-5.2-2c0-1.1,2.3-2,5.2-2c2.9,0,5.2,0.9,5.2,2
										C200.4,107.7,198,108.6,195.2,108.6z"/>
									<path class="st18" d="M194.6,106.1l-2.5,0.7v0.5l2.5-0.8c0.2,0.2,0.6,0.4,1.1,0.5c0,0,0.1,0,0.1,0v0.4h0.9v-0.3
										c0.2,0,0.4,0,0.5,0v0.3h0.9v-1.3h-0.9v0.6c-0.2,0-0.3,0-0.5,0v-0.6h-0.9v0.4c-0.2-0.1-0.4-0.2-0.5-0.4L194.6,106.1z"/>
									<path class="st20" d="M200.4,106.4c0,1.1-2.3,2-5.2,2c-2.9,0-5.2-0.9-5.2-2c0-1.1,2.3-2,5.2-2
										C198,104.4,200.4,105.3,200.4,106.4 M201.6,106.4c0-1.4-2.9-2.5-6.4-2.5c-3.5,0-6.4,1.1-6.4,2.5s2.9,2.5,6.4,2.5
										C198.7,108.9,201.6,107.8,201.6,106.4L201.6,106.4z"/>
									<g>
										<path class="st20" d="M190.7,106.4c0-1,2-1.7,4.5-1.7c2.5,0,4.5,0.8,4.5,1.7c0,1-2,1.7-4.5,1.7
											C192.7,108.1,190.7,107.4,190.7,106.4z M199.5,106.4c0-0.9-1.9-1.7-4.3-1.7c-2.4,0-4.3,0.7-4.3,1.7c0,0.9,1.9,1.7,4.3,1.7
											C197.5,108.1,199.5,107.3,199.5,106.4z"/>
									</g>
									<path class="st20" d="M194.6,105.7l-2.5,0.7v0.5l2.5-0.8c0.2,0.2,0.6,0.4,1.1,0.5c0,0,0.1,0,0.1,0v0.4h0.9v-0.3
										c0.2,0,0.4,0,0.5,0v0.3h0.9v-1.3h-0.9v0.6c-0.2,0-0.3,0-0.5,0v-0.6h-0.9v0.5c-0.2-0.1-0.4-0.2-0.5-0.4L194.6,105.7z"/>
								</g>
							</g>
						</g>
					</g>
				</g>
				<g>
					<g>
						<g>
							<g>
								<path class="st17" d="M188.8,105.1c0,1.4,2.9,2.5,6.4,2.5c3.5,0,6.4-1.1,6.4-2.5V104h-12.8V105.1z"/>
								<g>
									<path class="st18" d="M194.6,104.6v3c0.2,0,0.4,0,0.6,0v-3H194.6z"/>
									<path class="st18" d="M193.3,104.6v2.9c0.3,0,0.7,0.1,1,0.1v-3H193.3z"/>
									<path class="st18" d="M193.1,107.4V104h-4.3v1.2C188.8,106.2,190.6,107.1,193.1,107.4z"/>
									<path class="st18" d="M197.4,104.6v2.9c0.1,0,0.1,0,0.2,0v-2.8H197.4z"/>
									<path class="st18" d="M196.7,107.5c0.1,0,0.1,0,0.2,0v-2.9h-0.2V107.5z"/>
									<path class="st18" d="M195.6,104.6v3c0.1,0,0.2,0,0.3,0v-3H195.6z"/>
								</g>
								<g>
									<path class="st17" d="M195.2,106.4c-3.5,0-6.4-1.1-6.4-2.5c0-1.4,2.9-2.5,6.4-2.5c3.5,0,6.4,1.1,6.4,2.5
										C201.6,105.3,198.7,106.4,195.2,106.4z"/>
									
										<linearGradient id="SVGID_00000134937720658558081350000016552412111682278815_" gradientUnits="userSpaceOnUse" x1="43.2228" y1="144.5126" x2="48.1265" y2="144.5126" gradientTransform="matrix(0 1 -1 0 338.2891 58.2881)">
										<stop  offset="0" style="stop-color:#FFFFFF"/>
										<stop  offset="1" style="stop-color:#E97A00"/>
									</linearGradient>
									<path style="opacity:0.4;fill:url(#SVGID_00000134937720658558081350000016552412111682278815_);" d="M198.8,106
										c-0.2,0-0.4,0-0.5,0c-3.5,0-6.4-1.1-6.4-2.5c0-0.8,1.1-1.6,2.8-2c-3.3,0.1-5.8,1.2-5.8,2.4c0,1.4,2.9,2.5,6.4,2.5
										C196.5,106.4,197.7,106.3,198.8,106z"/>
									<path class="st18" d="M201.6,104c-0.1-1.3-2.9-2.4-6.4-2.4c-3.5,0-6.3,1.1-6.4,2.4c0.1,1.3,2.9,2.4,6.4,2.4
										C198.6,106.4,201.4,105.4,201.6,104z M195.2,106.1c-2.9,0-5.2-0.9-5.2-2c0-1.1,2.3-2,5.2-2c2.9,0,5.2,0.9,5.2,2
										C200.4,105.2,198,106.1,195.2,106.1z"/>
									<path class="st18" d="M194.6,103.6l-2.5,0.7v0.5l2.5-0.8c0.2,0.2,0.6,0.4,1.1,0.5c0,0,0.1,0,0.1,0v0.4h0.9v-0.3
										c0.2,0,0.4,0,0.5,0v0.3h0.9v-1.3h-0.9v0.6c-0.2,0-0.3,0-0.5,0v-0.6h-0.9v0.4c-0.2-0.1-0.4-0.2-0.5-0.4L194.6,103.6z"/>
									<path class="st20" d="M200.4,104c0,1.1-2.3,2-5.2,2c-2.9,0-5.2-0.9-5.2-2c0-1.1,2.3-2,5.2-2C198,102,200.4,102.9,200.4,104
										 M201.6,104c0-1.4-2.9-2.5-6.4-2.5c-3.5,0-6.4,1.1-6.4,2.5c0,1.4,2.9,2.5,6.4,2.5C198.7,106.4,201.6,105.3,201.6,104
										L201.6,104z"/>
									<g>
										<path class="st20" d="M190.7,104c0-1,2-1.7,4.5-1.7c2.5,0,4.5,0.8,4.5,1.7c0,1-2,1.7-4.5,1.7
											C192.7,105.7,190.7,104.9,190.7,104z M199.5,104c0-0.9-1.9-1.7-4.3-1.7c-2.4,0-4.3,0.7-4.3,1.7c0,0.9,1.9,1.7,4.3,1.7
											C197.5,105.6,199.5,104.9,199.5,104z"/>
									</g>
									<path class="st20" d="M194.6,103.3l-2.5,0.7v0.5l2.5-0.8c0.2,0.2,0.6,0.4,1.1,0.5c0,0,0.1,0,0.1,0v0.4h0.9v-0.3
										c0.2,0,0.4,0,0.5,0v0.3h0.9v-1.3h-0.9v0.6c-0.2,0-0.3,0-0.5,0v-0.6h-0.9v0.5c-0.2-0.1-0.4-0.2-0.5-0.4L194.6,103.3z"/>
								</g>
							</g>
						</g>
					</g>
				</g>
				<g>
					<g>
						<g>
							<g>
								<path class="st17" d="M188.8,102.7c0,1.4,2.9,2.5,6.4,2.5c3.5,0,6.4-1.1,6.4-2.5v-1.2h-12.8V102.7z"/>
								<g>
									<path class="st18" d="M194.6,102.1v3c0.2,0,0.4,0,0.6,0v-3H194.6z"/>
									<path class="st18" d="M193.3,102.1v2.9c0.3,0,0.7,0.1,1,0.1v-3H193.3z"/>
									<path class="st18" d="M193.1,105v-3.5h-4.3v1.2C188.8,103.7,190.6,104.6,193.1,105z"/>
									<path class="st18" d="M197.4,102.1v2.9c0.1,0,0.1,0,0.2,0v-2.8H197.4z"/>
									<path class="st18" d="M196.7,105.1c0.1,0,0.1,0,0.2,0v-2.9h-0.2V105.1z"/>
									<path class="st18" d="M195.6,102.1v3c0.1,0,0.2,0,0.3,0v-3H195.6z"/>
								</g>
								<g>
									<path class="st17" d="M195.2,104c-3.5,0-6.4-1.1-6.4-2.5s2.9-2.5,6.4-2.5c3.5,0,6.4,1.1,6.4,2.5S198.7,104,195.2,104z"/>
									
										<linearGradient id="SVGID_00000124872147227878959880000006836268367991906445_" gradientUnits="userSpaceOnUse" x1="40.7662" y1="144.5126" x2="45.6698" y2="144.5126" gradientTransform="matrix(0 1 -1 0 338.2891 58.2881)">
										<stop  offset="0" style="stop-color:#FFFFFF"/>
										<stop  offset="1" style="stop-color:#E97A00"/>
									</linearGradient>
									<path style="opacity:0.4;fill:url(#SVGID_00000124872147227878959880000006836268367991906445_);" d="M198.8,103.5
										c-0.2,0-0.4,0-0.5,0c-3.5,0-6.4-1.1-6.4-2.5c0-0.8,1.1-1.6,2.8-2c-3.3,0.1-5.8,1.2-5.8,2.4c0,1.4,2.9,2.5,6.4,2.5
										C196.5,104,197.7,103.8,198.8,103.5z"/>
									<path class="st18" d="M201.6,101.6c-0.1-1.3-2.9-2.4-6.4-2.4c-3.5,0-6.3,1.1-6.4,2.4c0.1,1.3,2.9,2.4,6.4,2.4
										C198.6,104,201.4,102.9,201.6,101.6z M195.2,103.7c-2.9,0-5.2-0.9-5.2-2c0-1.1,2.3-2,5.2-2c2.9,0,5.2,0.9,5.2,2
										C200.4,102.8,198,103.7,195.2,103.7z"/>
									<path class="st18" d="M194.6,101.2l-2.5,0.7v0.5l2.5-0.8c0.2,0.2,0.6,0.4,1.1,0.5c0,0,0.1,0,0.1,0v0.4h0.9v-0.3
										c0.2,0,0.4,0,0.5,0v0.3h0.9v-1.3h-0.9v0.6c-0.2,0-0.3,0-0.5,0v-0.6h-0.9v0.4c-0.2-0.1-0.4-0.2-0.5-0.4L194.6,101.2z"/>
									<path class="st20" d="M200.4,101.5c0,1.1-2.3,2-5.2,2c-2.9,0-5.2-0.9-5.2-2c0-1.1,2.3-2,5.2-2
										C198,99.5,200.4,100.4,200.4,101.5 M201.6,101.5c0-1.4-2.9-2.5-6.4-2.5c-3.5,0-6.4,1.1-6.4,2.5s2.9,2.5,6.4,2.5
										C198.7,104,201.6,102.9,201.6,101.5L201.6,101.5z"/>
									<g>
										<path class="st20" d="M190.7,101.5c0-1,2-1.7,4.5-1.7c2.5,0,4.5,0.8,4.5,1.7c0,1-2,1.7-4.5,1.7
											C192.7,103.2,190.7,102.5,190.7,101.5z M199.5,101.5c0-0.9-1.9-1.7-4.3-1.7c-2.4,0-4.3,0.7-4.3,1.7c0,0.9,1.9,1.7,4.3,1.7
											C197.5,103.2,199.5,102.4,199.5,101.5z"/>
									</g>
									<path class="st20" d="M194.6,100.8l-2.5,0.7v0.5l2.5-0.8c0.2,0.2,0.6,0.4,1.1,0.5c0,0,0.1,0,0.1,0v0.4h0.9v-0.3
										c0.2,0,0.4,0,0.5,0v0.3h0.9v-1.3h-0.9v0.6c-0.2,0-0.3,0-0.5,0v-0.6h-0.9v0.5c-0.2-0.1-0.4-0.2-0.5-0.4L194.6,100.8z"/>
								</g>
							</g>
						</g>
					</g>
				</g>
				<path class="st14" d="M181.9,102.1c-1-0.2-2.1,1-3,3.1c0,0,0,0,0,0c0,0,0,0.1,0,0.1c0,0,0,0,0,0c0,0,0,0.1,0.1,0.1c0,0,0,0,0,0
					c0,0,0,0.1,0.1,0.1c0,0,0,0,0,0c0,0,0,0,0,0c0,0,0,0,0,0c0,0,0,0,0,0.1c0,0,0,0,0,0.1c0,0,0,0,0,0.1c0,0,0,0,0,0.1
					c0,0,0,0,0,0.1c0,0,0,0,0,0c0,0,0,0.1,0,0.1c0,0,0,0,0,0c0,0,0,0.1,0,0.1v0v1.2c0,0,0,0.1,0,0.1c0,0,0,0,0,0c0,0,0,0.1,0,0.1
					c0,0,0,0,0,0c0,0,0,0.1,0,0.1c0,0,0,0,0,0c0,0,0,0.1,0.1,0.1c0,0,0,0,0,0c0,0,0,0.1,0.1,0.1c0,0,0,0,0,0c0,0,0,0,0,0
					c0,0,0,0,0,0c0,0,0,0,0,0.1c0,0,0,0,0,0.1c0,0,0,0,0,0.1c0,0,0,0,0,0.1c0,0,0,0,0,0.1c0,0,0,0,0,0c0,0,0,0.1,0,0.1c0,0,0,0,0,0
					c0,0,0,0.1,0,0.1v0v1.2c0,0,0,0.1,0,0.1c0,0,0,0,0,0c0,0,0,0.1,0,0.1c0,0,0,0,0,0c0,0,0,0.1,0,0.1c0,0,0,0,0,0
					c0,0,0,0.1,0.1,0.1c0,0,0,0,0,0c0,0,0,0.1,0.1,0.1c0,0,0,0,0,0c0,0,0,0,0.1,0.1c0,0,0,0,0,0c0,0,0,0,0.1,0.1c0,0,0,0,0,0
					c0,0,0.1,0.1,0.1,0.1c0,0,0,0,0,0c0,0,0,0,0.1,0.1c0,0,0,0,0.1,0c0,0,0,0,0.1,0.1c0,0,0,0,0.1,0c0,0,0,0,0.1,0.1c0,0,0,0,0.1,0
					c0,0,0.1,0.1,0.1,0.1c0,0,0.1,0,0.1,0c0,0,0,0,0.1,0c0,0,0.1,0,0.1,0c0,0,0,0,0.1,0c0,0,0.1,0,0.1,0.1c0,0,0,0,0.1,0
					c0.1,0.1,0.3,0.1,0.4,0.2c0,0,0,0,0,0c0,0,0.1,0,0.1,0.1c0,0,0,0,0,0c0.2,0.1,0.4,0.1,0.7,0.2c0.4-0.9,0.8-1.9,1.1-3
					C183.6,105.4,183.2,102.4,181.9,102.1z"/>
				<g>
					<g>
						<g>
							<g>
								<path class="st17" d="M176.8,113.2c1.3,0.5,3.3-1.8,4.6-5c1.3-3.3,1.3-6.3,0.1-6.8l-1.1-0.4l-4.7,11.9L176.8,113.2z"/>
								<g>
									<path class="st18" d="M178.4,107.7l2.8,1.1c0.1-0.2,0.2-0.4,0.2-0.6l-2.8-1.1L178.4,107.7z"/>
									<path class="st18" d="M177.9,108.8l2.7,1.1c0.2-0.3,0.3-0.6,0.5-0.9l-2.8-1.1L177.9,108.8z"/>
									<path class="st18" d="M180.5,110.1l-3.2-1.3l-1.6,4l1.1,0.4C177.8,113.6,179.3,112.3,180.5,110.1z"/>
									<path class="st18" d="M179.5,105l2.7,1.1c0-0.1,0-0.1,0-0.2l-2.6-1L179.5,105z"/>
									<path class="st18" d="M181.9,106.8c0-0.1,0-0.1,0.1-0.2l-2.7-1.1l-0.1,0.2L181.9,106.8z"/>
									<path class="st18" d="M178.8,106.7l2.8,1.1c0-0.1,0.1-0.2,0.1-0.3l-2.8-1.1L178.8,106.7z"/>
								</g>
								<g>
									<path class="st17" d="M180.4,107.8c-1.3,3.3-3.4,5.5-4.6,5c-1.3-0.5-1.2-3.6,0.1-6.8c1.3-3.3,3.4-5.5,4.6-5
										C181.7,101.4,181.7,104.5,180.4,107.8z"/>
									
										<linearGradient id="SVGID_00000078755493168848770300000006260559299825112974_" gradientUnits="userSpaceOnUse" x1="268.7549" y1="243.6198" x2="273.6584" y2="243.6198" gradientTransform="matrix(0.9297 0.3684 -0.3684 0.9297 15.1683 -218.2356)">
										<stop  offset="0" style="stop-color:#FFFFFF"/>
										<stop  offset="1" style="stop-color:#E97A00"/>
									</linearGradient>
									<path style="opacity:0.4;fill:url(#SVGID_00000078755493168848770300000006260559299825112974_);" d="M181.3,104.3
										c-0.1,0.2-0.1,0.3-0.2,0.5c-1.3,3.3-3.4,5.5-4.6,5c-0.8-0.3-1.1-1.6-0.9-3.3c-1.1,3.1-1.1,5.9,0.1,6.3
										c1.3,0.5,3.3-1.8,4.6-5C180.8,106.5,181.2,105.3,181.3,104.3z"/>
									<path class="st18" d="M180.5,101c-1.3-0.4-3.3,1.8-4.6,5.1c-1.3,3.2-1.3,6.2-0.1,6.8c1.3,0.4,3.3-1.8,4.6-5.1
										C181.6,104.6,181.7,101.6,180.5,101z M180.1,107.7c-1.1,2.7-2.7,4.5-3.8,4.1c-1-0.4-1-2.9,0.1-5.6c1.1-2.7,2.7-4.5,3.8-4.1
										C181.2,102.5,181.1,105,180.1,107.7z"/>
									<path class="st18" d="M177.5,107.3l-0.3,2.6l0.5,0.2l0.2-2.6c0.3-0.2,0.6-0.4,0.8-0.8c0,0,0-0.1,0.1-0.1l0.4,0.2l0.3-0.9
										l-0.3-0.1c0.1-0.2,0.2-0.4,0.2-0.5l0.3,0.1l0.3-0.9l-1.2-0.5l-0.3,0.9l0.6,0.2c-0.1,0.1-0.1,0.3-0.2,0.5l-0.6-0.2l-0.3,0.9
										l0.4,0.2c-0.2,0.2-0.3,0.3-0.5,0.4L177.5,107.3z"/>
									<path class="st20" d="M180,102c1,0.4,1,2.9-0.1,5.6c-1.1,2.7-2.7,4.5-3.8,4.1c-1-0.4-1-2.9,0.1-5.6
										C177.3,103.5,179,101.6,180,102 M180.4,100.9c-1.3-0.5-3.3,1.8-4.6,5c-1.3,3.3-1.3,6.3-0.1,6.8c1.3,0.5,3.3-1.8,4.6-5
										C181.7,104.5,181.7,101.4,180.4,100.9L180.4,100.9z"/>
									<g>
										<path class="st20" d="M176.4,111.1c-0.9-0.4-0.9-2.5,0-4.8c0.9-2.3,2.4-3.9,3.3-3.6c0.9,0.4,0.9,2.5,0,4.8
											C178.8,109.8,177.3,111.4,176.4,111.1z M179.7,102.9c-0.9-0.3-2.3,1.2-3.1,3.4c-0.9,2.2-0.9,4.3,0,4.6
											c0.9,0.3,2.3-1.2,3.1-3.4C180.5,105.3,180.5,103.2,179.7,102.9z"/>
									</g>
									<path class="st20" d="M177.2,107.2l-0.2,2.6l0.5,0.2l0.2-2.6c0.3-0.2,0.6-0.4,0.8-0.8c0,0,0-0.1,0.1-0.1l0.4,0.2l0.3-0.9
										l-0.3-0.1c0.1-0.2,0.2-0.4,0.2-0.5l0.3,0.1l0.3-0.9l-1.2-0.5l-0.3,0.9l0.6,0.2c-0.1,0.1-0.1,0.3-0.2,0.5l-0.6-0.2l-0.3,0.9
										l0.4,0.2c-0.2,0.2-0.3,0.3-0.5,0.4L177.2,107.2z"/>
								</g>
							</g>
						</g>
					</g>
				</g>
				<path class="st14" d="M197.7,114.8c2.3-0.4,3.9-1.2,3.9-2.3v-1.2c0-0.2-0.1-0.4-0.2-0.6c0.1-0.2,0.2-0.4,0.2-0.6v-1.2
					c0-0.2-0.1-0.4-0.2-0.6c0.1-0.2,0.2-0.4,0.2-0.6v-1.2c0-0.2-0.1-0.4-0.2-0.6c0.1-0.2,0.2-0.4,0.2-0.6v0
					c-1.3-0.5-3.8,1.5-5.6,4.6c-1.2,1.9-1.8,3.8-1.9,5.2c0.1,0,0.2,0,0.4,0c0,0,0,0,0,0c0.3,0,0.5,0,0.8,0c0.3,0,0.5,0,0.8,0
					c0,0,0,0,0,0c0.6,0,1.1-0.1,1.6-0.2C197.6,114.8,197.6,114.8,197.7,114.8z"/>
				<g>
					<g>
						<g>
							<g>
								<path class="st17" d="M205,117.1c-1.3,0.5-3.3-1.8-4.6-5c-1.3-3.3-1.3-6.3-0.1-6.8l1.1-0.4l4.7,11.9L205,117.1z"/>
								<g>
									<path class="st18" d="M203.4,111.5l-2.8,1.1c-0.1-0.2-0.2-0.4-0.2-0.6l2.8-1.1L203.4,111.5z"/>
									<path class="st18" d="M203.9,112.6l-2.7,1.1c-0.2-0.3-0.3-0.6-0.5-0.9l2.8-1.1L203.9,112.6z"/>
									<path class="st18" d="M201.3,113.9l3.2-1.3l1.6,4l-1.1,0.4C204,117.4,202.5,116.1,201.3,113.9z"/>
									<path class="st18" d="M202.4,108.8l-2.7,1.1c0-0.1,0-0.1,0-0.2l2.6-1L202.4,108.8z"/>
									<path class="st18" d="M199.9,110.6c0-0.1,0-0.1-0.1-0.2l2.7-1.1l0.1,0.2L199.9,110.6z"/>
									<path class="st18" d="M203,110.5l-2.8,1.1c0-0.1-0.1-0.2-0.1-0.3l2.8-1.1L203,110.5z"/>
								</g>
								<g>
									<path class="st17" d="M201.5,111.6c1.3,3.3,3.4,5.5,4.6,5c1.3-0.5,1.2-3.6-0.1-6.8c-1.3-3.3-3.4-5.5-4.6-5
										C200.1,105.2,200.2,108.3,201.5,111.6z"/>
									
										<linearGradient id="SVGID_00000158718671079771407610000014316005138391234945_" gradientUnits="userSpaceOnUse" x1="450.7083" y1="175.6218" x2="455.6119" y2="175.6218" gradientTransform="matrix(-0.9297 0.3684 0.3684 0.9297 560.8725 -218.2356)">
										<stop  offset="0" style="stop-color:#FFFFFF"/>
										<stop  offset="1" style="stop-color:#E97A00"/>
									</linearGradient>
									<path style="opacity:0.4;fill:url(#SVGID_00000158718671079771407610000014316005138391234945_);" d="M200.5,108.1
										c0.1,0.2,0.1,0.3,0.2,0.5c1.3,3.3,3.4,5.5,4.6,5c0.8-0.3,1.1-1.6,0.9-3.3c1.1,3.1,1.1,5.9-0.1,6.3c-1.3,0.5-3.3-1.8-4.6-5
										C201,110.3,200.7,109.1,200.5,108.1z"/>
									<path class="st18" d="M201.5,111.6c1.3,3.2,3.3,5.4,4.6,5.1c1.2-0.6,1.1-3.6-0.1-6.8c-1.3-3.2-3.3-5.4-4.6-5.1
										C200.1,105.4,200.2,108.4,201.5,111.6z M201.7,105.9c1-0.4,2.7,1.4,3.8,4.1c1.1,2.7,1.1,5.2,0.1,5.6
										c-1,0.4-2.7-1.4-3.8-4.1C200.7,108.8,200.7,106.3,201.7,105.9z"/>
									<path class="st18" d="M204.3,111.1l0.3,2.6l-0.5,0.2l-0.2-2.6c-0.3-0.2-0.6-0.4-0.8-0.8c0,0,0-0.1-0.1-0.1l-0.4,0.2
										l-0.3-0.9l0.3-0.1c-0.1-0.2-0.2-0.4-0.2-0.5l-0.3,0.1l-0.3-0.9l1.2-0.5l0.3,0.9l-0.6,0.2c0.1,0.1,0.1,0.3,0.2,0.5l0.6-0.2
										l0.3,0.9l-0.4,0.2c0.2,0.2,0.3,0.3,0.5,0.4L204.3,111.1z"/>
									<path class="st20" d="M201.8,105.9c1-0.4,2.7,1.4,3.8,4.1c1.1,2.7,1.1,5.2,0.1,5.6c-1,0.4-2.7-1.4-3.8-4.1
										C200.8,108.8,200.8,106.3,201.8,105.9 M201.4,104.7c-1.3,0.5-1.2,3.6,0.1,6.8c1.3,3.3,3.4,5.5,4.6,5
										c1.3-0.5,1.2-3.6-0.1-6.8C204.7,106.5,202.7,104.2,201.4,104.7L201.4,104.7z"/>
									<g>
										<path class="st20" d="M202.1,111.3c-0.9-2.3-0.9-4.5,0-4.8c0.9-0.4,2.4,1.2,3.3,3.6c0.9,2.3,0.9,4.5,0,4.8
											C204.5,115.2,203.1,113.6,202.1,111.3z M202.2,111.3c0.9,2.2,2.3,3.7,3.1,3.4c0.9-0.3,0.8-2.4,0-4.6
											c-0.9-2.2-2.3-3.7-3.1-3.4C201.3,107,201.3,109.1,202.2,111.3z"/>
									</g>
									<path class="st20" d="M204.6,111l0.2,2.6l-0.5,0.2l-0.2-2.6c-0.3-0.2-0.6-0.4-0.8-0.8c0,0,0-0.1-0.1-0.1l-0.4,0.2l-0.3-0.9
										l0.3-0.1c-0.1-0.2-0.2-0.4-0.2-0.5l-0.3,0.1l-0.3-0.9l1.2-0.5l0.3,0.9l-0.6,0.2c0.1,0.1,0.1,0.3,0.2,0.5l0.6-0.2l0.3,0.9
										l-0.4,0.2c0.2,0.2,0.3,0.3,0.5,0.4L204.6,111z"/>
								</g>
							</g>
						</g>
					</g>
				</g>
			</g>
			<polygon class="st2" points="181.4,103.6 181.1,103 180.9,103.6 180.2,103.9 180.9,104.1 181.1,104.8 181.4,104.1 182,103.9 			
				"/>
			<polygon class="st2" points="200.1,102.9 199.9,102.3 199.6,102.9 198.9,103.2 199.6,103.4 199.9,104.1 200.1,103.4 200.8,103.2 
							"/>
			<polygon class="st2" points="206.3,95.6 206,94.9 205.7,95.6 205.1,95.8 205.7,96.1 206,96.7 206.3,96.1 206.9,95.8 			"/>
			<polygon class="st2" points="190.5,107.7 190.3,107.1 190,107.7 189.3,108 190,108.2 190.3,108.9 190.5,108.2 191.2,108 			"/>
		</g>
		<path class="st16" d="M181,75.9c0,0-3.5,2.6-4.6,4.6c0,0,4.7-3.5,7.2-4.6H181z"/>
		<path class="st16" d="M182.1,75.9c0,0,2.7,1.4,4.1,4.6c0,0-0.2-2.6-1.6-4.6H182.1z"/>
		<path class="st16" d="M187.5,82.4c0,0,2.4,4.5,3.7,9.4C191.2,91.8,191.5,86.2,187.5,82.4z"/>
		<path class="st15" d="M190.7,83c0,0,2.4,4.5,3.7,9.4C194.3,92.3,194.6,86.8,190.7,83z"/>
		<path class="st15" d="M186.9,84.6c0,0,4-0.7,7.7,0.3C194.6,84.9,190.9,83,186.9,84.6z"/>
		<path class="st15" d="M187.8,86.8c0,0,4-0.7,7.7,0.3C195.4,87.1,191.8,85.2,187.8,86.8z"/>
		<g>
			<path class="st16" d="M187.8,86.8c0,0,1.3-0.2,3.2-0.2c-0.1-0.1-0.1-0.3-0.2-0.4C189.9,86.2,188.8,86.4,187.8,86.8z"/>
			<path class="st16" d="M190,84.4c-0.1-0.1-0.1-0.3-0.2-0.4c-0.9,0.1-1.9,0.2-2.9,0.6C186.9,84.6,188.2,84.4,190,84.4z"/>
		</g>
		<path class="st16" d="M177,65l5.1,9.6V64.3c-0.1,0-0.2,0.1-0.3,0.1c0,0,0,0-0.1,0c-0.1,0-0.2,0.1-0.3,0.1c0,0,0,0,0,0
			c-0.1,0-0.2,0.1-0.3,0.1c0,0,0,0-0.1,0c-0.1,0-0.2,0.1-0.2,0.1c0,0-0.1,0-0.1,0c-0.1,0-0.2,0.1-0.3,0.1c0,0,0,0,0,0
			c-0.1,0-0.2,0.1-0.3,0.1c0,0-0.1,0-0.1,0c-0.1,0-0.2,0-0.2,0c0,0-0.1,0-0.1,0c-0.1,0-0.2,0-0.3,0C178.6,65.2,177.8,65.1,177,65z"
			/>
		<path class="st16" d="M175.6,64.6c-0.1,0-0.2-0.1-0.4-0.1l4.2,6.5l-3.1-6.2C176.2,64.8,175.9,64.7,175.6,64.6z"/>
		<path class="st16" d="M198.4,64.4c0.8-0.6,1-1.5-0.5-1.6c-2.5-0.3-4.1,1.9-6.6,2.1l-5.7,11.1h2.2L198.4,64.4z"/>
		<path class="st16" d="M186.4,73.2l4.2-8.4c-0.9-0.1-1.4-0.5-2-0.9L186.4,73.2z"/>
		<g>
			<path class="st35" d="M179.7,99.7c-4.6,0-8.3-3.6-8.3-8.1c0-4.5,3.7-8.1,8.3-8.1c4.6,0,8.3,3.6,8.3,8.1
				C188,96.1,184.3,99.7,179.7,99.7z M179.7,84.5c-4,0-7.3,3.2-7.3,7.1c0,3.9,3.3,7.1,7.3,7.1c4,0,7.3-3.2,7.3-7.1
				C187,87.7,183.7,84.5,179.7,84.5z"/>
		</g>
		<path class="st35" d="M176.8,92.6l3.1,4.2h2.2l-3.4-4.3c0.9-0.4,1.6-1,2-1.8c0-0.1,0.1-0.1,0.1-0.2h1.9v-1.5h-1.5
			c0-0.3,0-0.7,0-0.9h1.5v-1.5h-5.8V88h2.8c0,0.3,0,0.6,0,0.9h-2.8v1.5h2c-0.4,0.4-0.9,0.7-1.7,0.9L176.8,92.6z"/>
	</g>
	<g>
		<g>
			<path class="st17" d="M190,75.5c0,0-0.1,0-0.1,0c-3.9-0.9-11,0-11.1,0c-0.4,0-0.8-0.3-0.8-0.7c0-0.5,0.3-0.9,0.7-0.9
				c0.3,0,7.5-0.9,11.5,0c0.4,0.1,0.7,0.5,0.6,1C190.6,75.2,190.3,75.5,190,75.5z"/>
		</g>
		<g>
			<path class="st36" d="M183.6,73.5c-0.1,0-0.2,0-0.4,0c-0.2,0.4-0.5,0.9-0.7,1.7c0.1,0,0.2,0,0.3,0
				C183,74.3,183.4,73.8,183.6,73.5z"/>
			<path class="st36" d="M181.4,73.6c-0.1,0-0.2,0-0.4,0c-0.2,0.4-0.5,1-0.6,1.7c0.1,0,0.2,0,0.3,0
				C180.9,74.5,181.2,73.9,181.4,73.6z"/>
			<path class="st36" d="M182.5,73.5c-0.1,0-0.2,0-0.4,0c-0.2,0.4-0.5,0.9-0.7,1.7c0.1,0,0.2,0,0.3,0
				C182,74.4,182.3,73.8,182.5,73.5z"/>
			<path class="st36" d="M180.4,73.7c-0.1,0-0.2,0-0.4,0c-0.2,0.4-0.5,1-0.6,1.7c0.1,0,0.2,0,0.3,0C179.9,74.6,180.2,74,180.4,73.7z
				"/>
			<path class="st36" d="M178.9,73.8c-0.2,0.4-0.4,1-0.6,1.6c0.1,0,0.2,0.1,0.3,0.1c0.1-0.8,0.4-1.4,0.6-1.7
				C179.2,73.8,179,73.8,178.9,73.8z"/>
			<path class="st36" d="M189.5,73.7c-0.1,0-0.2,0-0.3,0c-0.2,0.4-0.4,0.9-0.6,1.6c0.1,0,0.2,0,0.3,0
				C189,74.6,189.3,74.1,189.5,73.7z"/>
			<path class="st36" d="M190.1,73.8C190.1,73.8,190.1,73.8,190.1,73.8c-0.2,0.4-0.4,0.9-0.5,1.6c0.1,0,0.2,0,0.3,0.1c0,0,0,0,0,0
				c0.1-0.6,0.3-1.2,0.5-1.5C190.3,73.9,190.2,73.9,190.1,73.8z"/>
			<path class="st36" d="M187.6,73.5c-0.1,0-0.2,0-0.3,0c-0.2,0.3-0.5,0.9-0.7,1.6c0.1,0,0.2,0,0.3,0
				C187.1,74.4,187.4,73.8,187.6,73.5z"/>
			<path class="st36" d="M188.6,73.6c-0.1,0-0.2,0-0.3,0c-0.2,0.4-0.5,0.9-0.6,1.6c0.1,0,0.2,0,0.3,0
				C188.1,74.5,188.3,73.9,188.6,73.6z"/>
			<path class="st36" d="M186.6,73.5c-0.1,0-0.2,0-0.4,0c-0.2,0.3-0.5,0.9-0.7,1.7c0.1,0,0.2,0,0.3,0
				C186.1,74.3,186.4,73.7,186.6,73.5z"/>
			<path class="st36" d="M185.2,73.4c-0.2,0.3-0.5,0.9-0.7,1.7c0.1,0,0.2,0,0.3,0c0.2-0.8,0.6-1.4,0.7-1.7
				C185.5,73.4,185.4,73.4,185.2,73.4z"/>
			<path class="st36" d="M184.6,73.4c-0.1,0-0.2,0-0.4,0c-0.2,0.3-0.5,0.9-0.7,1.7c0.1,0,0.2,0,0.3,0
				C184,74.3,184.4,73.7,184.6,73.4z"/>
		</g>
		<path class="st37" d="M190,74.8c0,0-0.1,0-0.1,0c-3.9-0.9-11,0-11.1,0c-0.3,0-0.6-0.2-0.8-0.5c-0.1,0.1-0.1,0.3-0.1,0.4
			c0,0.5,0.4,0.8,0.8,0.7c0.1,0,7.2-0.9,11.1,0c0,0,0.1,0,0.1,0c0.3,0,0.7-0.3,0.7-0.7c0-0.2,0-0.4-0.1-0.5
			C190.5,74.6,190.3,74.8,190,74.8z"/>
	</g>
	<g>
		<g>
			<path class="st17" d="M190,77.2c0,0-0.1,0-0.1,0c-3.9-0.9-11,0-11.1,0c-0.4,0-0.8-0.3-0.8-0.7c0-0.5,0.3-0.9,0.7-0.9
				c0.3,0,7.5-0.9,11.5,0c0.4,0.1,0.7,0.5,0.6,1C190.6,76.9,190.3,77.2,190,77.2z"/>
		</g>
		<g>
			<path class="st36" d="M183.6,75.1c-0.1,0-0.2,0-0.4,0c-0.2,0.4-0.5,0.9-0.7,1.7c0.1,0,0.2,0,0.3,0C183,76,183.4,75.4,183.6,75.1z
				"/>
			<path class="st36" d="M181.4,75.3c-0.1,0-0.2,0-0.4,0c-0.2,0.4-0.5,1-0.6,1.7c0.1,0,0.2,0,0.3,0
				C180.9,76.2,181.2,75.6,181.4,75.3z"/>
			<path class="st36" d="M182.5,75.2c-0.1,0-0.2,0-0.4,0c-0.2,0.4-0.5,0.9-0.7,1.7c0.1,0,0.2,0,0.3,0
				C182,76.1,182.3,75.5,182.5,75.2z"/>
			<path class="st36" d="M180.4,75.3c-0.1,0-0.2,0-0.4,0c-0.2,0.4-0.5,1-0.6,1.7c0.1,0,0.2,0,0.3,0
				C179.9,76.3,180.2,75.7,180.4,75.3z"/>
			<path class="st36" d="M178.9,75.5c-0.2,0.4-0.4,1-0.6,1.6c0.1,0,0.2,0.1,0.3,0.1c0.1-0.8,0.4-1.4,0.6-1.7
				C179.2,75.5,179,75.5,178.9,75.5z"/>
			<path class="st36" d="M189.5,75.4c-0.1,0-0.2,0-0.3,0c-0.2,0.4-0.4,0.9-0.6,1.6c0.1,0,0.2,0,0.3,0
				C189,76.3,189.3,75.8,189.5,75.4z"/>
			<path class="st36" d="M190.1,75.5C190.1,75.5,190.1,75.5,190.1,75.5c-0.2,0.4-0.4,0.9-0.5,1.6c0.1,0,0.2,0,0.3,0.1c0,0,0,0,0,0
				c0.1-0.6,0.3-1.2,0.5-1.5C190.3,75.6,190.2,75.5,190.1,75.5z"/>
			<path class="st36" d="M187.6,75.2c-0.1,0-0.2,0-0.3,0c-0.2,0.3-0.5,0.9-0.7,1.6c0.1,0,0.2,0,0.3,0
				C187.1,76,187.4,75.5,187.6,75.2z"/>
			<path class="st36" d="M188.6,75.3c-0.1,0-0.2,0-0.3,0c-0.2,0.4-0.5,0.9-0.6,1.6c0.1,0,0.2,0,0.3,0
				C188.1,76.1,188.3,75.6,188.6,75.3z"/>
			<path class="st36" d="M186.6,75.1c-0.1,0-0.2,0-0.4,0c-0.2,0.3-0.5,0.9-0.7,1.7c0.1,0,0.2,0,0.3,0
				C186.1,76,186.4,75.4,186.6,75.1z"/>
			<path class="st36" d="M185.2,75.1c-0.2,0.3-0.5,0.9-0.7,1.7c0.1,0,0.2,0,0.3,0c0.2-0.8,0.6-1.4,0.7-1.7
				C185.5,75.1,185.4,75.1,185.2,75.1z"/>
			<path class="st36" d="M184.6,75.1c-0.1,0-0.2,0-0.4,0c-0.2,0.3-0.5,0.9-0.7,1.7c0.1,0,0.2,0,0.3,0C184,76,184.4,75.4,184.6,75.1z
				"/>
		</g>
		<path class="st37" d="M190,76.5c0,0-0.1,0-0.1,0c-3.9-0.9-11,0-11.1,0c-0.3,0-0.6-0.2-0.8-0.5c-0.1,0.1-0.1,0.3-0.1,0.4
			c0,0.5,0.4,0.8,0.8,0.7c0.1,0,7.2-0.9,11.1,0c0,0,0.1,0,0.1,0c0.3,0,0.7-0.3,0.7-0.7c0-0.2,0-0.4-0.1-0.5
			C190.5,76.3,190.3,76.5,190,76.5z"/>
	</g>
</g>
</svg>
