<?xml version="1.0" encoding="utf-8"?>
<!-- Generator: Adobe Illustrator 25.3.0, SVG Export Plug-In . SVG Version: 6.00 Build 0)  -->
<svg version="1.1" id="Layer_1" xmlns="http://www.w3.org/2000/svg" xmlns:xlink="http://www.w3.org/1999/xlink" x="0px" y="0px"
	 viewBox="0 0 280 120" style="enable-background:new 0 0 280 120;" xml:space="preserve">
<style type="text/css">
	.st0{fill:url(#SVGID_1_);}
	.st1{fill:#2AB24B;}
	.st2{fill:#FFFFFF;}
	.st3{opacity:0.5;}
	.st4{clip-path:url(#SVGID_3_);}
	.st5{fill:#A6A8AB;}
	.st6{fill:url(#SVGID_4_);}
	.st7{fill:#7954FC;}
	.st8{opacity:0.81;}
	.st9{fill:#FE0307;}
	.st10{fill:#FE0509;}
	.st11{fill:#2E73BE;}
	.st12{fill:#2D73BE;}
	.st13{fill:#FE060A;}
	.st14{fill:#3176BF;}
	.st15{fill:#3477C0;}
	.st16{fill:#176ABA;}
	.st17{fill:#F8DC76;}
	.st18{fill:#F7DE96;}
	.st19{fill:#FAAA1E;}
	.st20{fill:#E19F1A;}
	.st21{opacity:0.47;}
	.st22{fill:#E3F5FF;}
	.st23{fill:#1F0075;}
	.st24{fill:#393E4A;}
	.st25{fill:#E6E7E8;}
</style>
<g>
	<g id="Layer_1_1_">
		
			<linearGradient id="SVGID_1_" gradientUnits="userSpaceOnUse" x1="257.8428" y1="-38.7267" x2="-23.3771" y2="201.0033" gradientTransform="matrix(1 0 0 -1 0 122)">
			<stop  offset="2.000000e-02" style="stop-color:#675AF5"/>
			<stop  offset="0.17" style="stop-color:#6051E9"/>
			<stop  offset="0.45" style="stop-color:#4E3AC8"/>
			<stop  offset="0.81" style="stop-color:#301593"/>
			<stop  offset="1" style="stop-color:#1F0075"/>
		</linearGradient>
		<rect x="-3.5" y="-3.1" class="st0" width="286.8" height="126.7"/>
		<path class="st1" d="M281.5,24.5h-56.9c-3.3,0-6-2.7-6-6l0,0V10c0-3.3,2.7-6,6-6h56.9l0,0V24.5L281.5,24.5z"/>
		<path class="st2" d="M226.9,18.6c-0.1,0-0.1-0.1-0.1-0.2v-6.9c0-0.1,0-0.1,0.1-0.2c0-0.1,0.1-0.1,0.2-0.1h0.8
			c0.1,0,0.2,0.1,0.3,0.2l3,4.7v-4.6c0-0.1,0-0.1,0.1-0.2c0-0.1,0.1-0.1,0.2-0.1h0.9c0.1,0,0.1,0,0.2,0.1c0,0.1,0.1,0.1,0.1,0.2v6.9
			c0,0.1,0,0.1-0.1,0.2c0,0-0.1,0.1-0.2,0.1h-0.8c-0.1,0-0.3-0.1-0.3-0.2l-3-4.6v4.5c0,0.1,0,0.1-0.1,0.2c-0.1,0-0.1,0.1-0.2,0.1
			h-0.9C227,18.7,227,18.7,226.9,18.6z"/>
		<path class="st2" d="M234.4,18.6c-0.1,0-0.1-0.1-0.1-0.2v-6.9c0-0.1,0-0.1,0.1-0.2c0-0.1,0.1-0.1,0.2-0.1h4.6c0.1,0,0.1,0,0.2,0.1
			c0,0.1,0.1,0.1,0.1,0.2v0.8c0,0.1,0,0.1-0.1,0.2c-0.1,0-0.1,0.1-0.2,0.1h-3.4v2h3.2c0.1,0,0.1,0,0.2,0.1c0,0,0.1,0.1,0.1,0.2v0.8
			c0,0.1,0,0.1-0.1,0.2c0,0.1-0.1,0.1-0.2,0.1h-3.2v2.6c0,0.1-0.1,0.3-0.3,0.3c0,0,0,0,0,0h-0.9C234.5,18.7,234.4,18.7,234.4,18.6z"
			/>
		<path class="st2" d="M241.2,18.1c-0.6-0.6-0.9-1.4-0.9-2.2c0-0.2,0-0.5,0-0.9s0-0.7,0-0.9c0-0.8,0.3-1.6,0.9-2.1
			c1.3-1,3.1-1,4.4,0c0.6,0.6,0.9,1.3,0.9,2.1c0,0.4,0,0.7,0,0.9s0,0.5,0,0.9c0,0.8-0.3,1.6-0.9,2.2
			C244.4,19.1,242.5,19.1,241.2,18.1L241.2,18.1z M244.6,17.2c0.3-0.4,0.5-0.8,0.4-1.3c0-0.4,0-0.7,0-0.9s0-0.4,0-0.9
			c0-0.5-0.1-0.9-0.4-1.3c-0.3-0.3-0.7-0.4-1.1-0.4c-0.4,0-0.8,0.1-1.1,0.4c-0.3,0.4-0.5,0.8-0.4,1.3c0,0.2,0,0.5,0,0.9s0,0.6,0,0.9
			c0,0.5,0.1,0.9,0.4,1.3c0.3,0.3,0.7,0.4,1.1,0.4C243.9,17.6,244.3,17.4,244.6,17.2z"/>
		<path class="st2" d="M249.4,18.6c0,0-0.1-0.1-0.1-0.2v-0.1l2.5-6.8c0.1-0.2,0.2-0.3,0.4-0.3h1.2c0.2,0,0.3,0.1,0.4,0.3l2.5,6.8
			v0.1c0,0.1,0,0.1-0.1,0.2c0,0-0.1,0.1-0.1,0.1h-0.9c-0.1,0-0.3-0.1-0.3-0.2l-0.5-1.3h-3.1l-0.5,1.3c0,0.1-0.2,0.2-0.3,0.2h-0.9
			C249.5,18.7,249.5,18.7,249.4,18.6z M251.7,16h2.4l-1.2-3.2L251.7,16z"/>
		<path class="st2" d="M257.3,18.6c0,0-0.1-0.1-0.1-0.2v-7c0-0.1,0-0.1,0.1-0.2c0,0,0.1-0.1,0.2-0.1h0.9c0.1,0,0.2,0.1,0.3,0.2
			c0,0,0,0,0,0v7c0,0.1,0,0.1-0.1,0.2c-0.1,0-0.1,0.1-0.2,0.1h-0.9C257.4,18.7,257.4,18.7,257.3,18.6z"/>
		<path class="st2" d="M260.5,18.1c-0.5-0.5-0.8-1.2-0.7-1.9V16c0-0.8,0.2-1.5,0.7-2.1c1.1-1,2.8-1,3.8,0c0.5,0.6,0.7,1.3,0.7,2v0.2
			c0,0.1,0,0.1-0.1,0.2c-0.1,0-0.1,0.1-0.2,0.1h-3.5v0.1c0,0.4,0.1,0.7,0.3,1c0.2,0.3,0.5,0.4,0.8,0.4c0.4,0,0.8-0.2,1-0.5
			c0-0.1,0.1-0.1,0.1-0.1c0.1,0,0.1,0,0.2,0h0.9c0.1,0,0.1,0,0.2,0.1c0,0,0.1,0.1,0.1,0.1c0,0.2-0.1,0.4-0.3,0.6
			c-0.2,0.3-0.5,0.5-0.9,0.6c-0.4,0.2-0.9,0.3-1.3,0.3C261.7,18.9,261.1,18.6,260.5,18.1z M263.5,15.5L263.5,15.5
			c0-0.4-0.1-0.7-0.3-1c-0.2-0.3-0.5-0.4-0.9-0.4c-0.3,0-0.6,0.1-0.8,0.4c-0.2,0.3-0.3,0.6-0.3,1l0,0H263.5z"/>
		<path class="st2" d="M266.2,18.6c0,0-0.1-0.1-0.1-0.2v-5c0-0.1,0-0.1,0.1-0.2c0-0.1,0.1-0.1,0.2-0.1h0.9c0.1,0,0.1,0,0.2,0.1
			c0,0,0.1,0.1,0.1,0.2v0.4c0.4-0.5,0.9-0.7,1.5-0.7h0.4c0.1,0,0.1,0,0.2,0.1c0,0,0.1,0.1,0.1,0.2v0.8c0,0.1,0,0.1-0.1,0.2
			c0,0.1-0.1,0.1-0.2,0.1h-0.8c-0.6,0-1,0.4-1.1,0.9c0,0,0,0.1,0,0.1v2.9c0,0.1-0.1,0.2-0.2,0.2c0,0,0,0,0,0h-0.9
			C266.3,18.7,266.3,18.7,266.2,18.6z"/>
		<path class="st2" d="M271.6,18.2c-0.4-0.4-0.5-0.9-0.5-1.5v-2.4h-0.8c-0.1,0-0.1,0-0.2-0.1c0,0-0.1-0.1-0.1-0.2v-0.6
			c0-0.1,0-0.1,0.1-0.2c0-0.1,0.1-0.1,0.2-0.1h0.8v-1.8c0-0.1,0-0.1,0.1-0.2c0,0,0.1-0.1,0.2-0.1h0.9c0.1,0,0.1,0,0.2,0.1
			c0,0,0.1,0.1,0.1,0.2v1.8h1.3c0.1,0,0.1,0,0.2,0.1c0,0,0.1,0.1,0.1,0.2v0.6c0,0.1,0,0.1-0.1,0.2c-0.1,0-0.1,0.1-0.2,0.1h-1.3v2.3
			c0,0.2,0,0.5,0.2,0.7c0.1,0.2,0.3,0.2,0.5,0.2h0.7c0.1,0,0.1,0,0.2,0.1c0,0,0.1,0.1,0.1,0.2v0.7c0,0.1,0,0.1-0.1,0.2
			c0,0-0.1,0.1-0.2,0.1H273C272.5,18.7,272,18.5,271.6,18.2z"/>
		<path class="st2" d="M21,33.7c-0.6-0.2-1.1-0.6-1.5-1.1c-0.3-0.4-0.5-1-0.6-1.5c0-0.1,0-0.2,0.1-0.2c0.1-0.1,0.1-0.1,0.2-0.1h2
			c0.1,0,0.2,0,0.3,0c0.1,0.1,0.2,0.1,0.2,0.2c0.1,0.3,0.3,0.5,0.6,0.6c0.3,0.2,0.7,0.2,1.1,0.2c0.4,0,0.9-0.1,1.2-0.2
			c0.3-0.1,0.4-0.4,0.4-0.7c0-0.2-0.1-0.4-0.2-0.5c-0.2-0.2-0.5-0.3-0.7-0.4c-0.3-0.1-0.8-0.2-1.4-0.4c-1-0.1-1.9-0.5-2.7-1.1
			c-0.6-0.5-0.9-1.3-0.9-2.1c0-0.6,0.2-1.2,0.5-1.6c0.4-0.5,0.9-0.9,1.5-1.1c0.7-0.3,1.5-0.4,2.2-0.4c0.8,0,1.6,0.1,2.3,0.5
			c0.6,0.3,1.1,0.6,1.5,1.1c0.3,0.4,0.5,0.8,0.5,1.3c0,0.1,0,0.2-0.1,0.2c-0.1,0.1-0.1,0.1-0.2,0.1h-2.1c-0.2,0-0.4-0.1-0.5-0.3
			c-0.1-0.2-0.3-0.4-0.5-0.5c-0.3-0.2-0.6-0.2-0.9-0.2c-0.3,0-0.7,0.1-1,0.2c-0.2,0.1-0.4,0.4-0.3,0.7c0,0.3,0.2,0.6,0.5,0.7
			c0.5,0.2,1.1,0.4,1.7,0.5c0.8,0.1,1.5,0.3,2.2,0.6c0.5,0.2,0.9,0.6,1.2,1c0.3,0.5,0.4,1,0.4,1.5c0,0.6-0.2,1.3-0.6,1.8
			c-0.4,0.5-1,0.9-1.6,1.2c-0.8,0.3-1.6,0.4-2.4,0.4C22.6,34.1,21.8,33.9,21,33.7z"/>
		<path class="st2" d="M30.2,33.8c-0.4-0.2-0.7-0.5-1-0.8c-0.2-0.3-0.4-0.8-0.4-1.2c0-0.7,0.3-1.3,0.8-1.7c0.7-0.5,1.5-0.8,2.3-0.9
			l1.9-0.3v-0.2c0-0.3-0.1-0.6-0.2-0.8c-0.2-0.2-0.5-0.3-0.8-0.3c-0.2,0-0.3,0-0.5,0.1c-0.2,0.1-0.3,0.2-0.5,0.3
			c-0.1,0.1-0.2,0.2-0.3,0.2c0,0.1-0.1,0.1-0.1,0.1h-1.7c-0.1,0-0.2,0-0.2-0.1c-0.1-0.1-0.1-0.1-0.1-0.2c0-0.3,0.2-0.7,0.4-0.9
			c0.3-0.4,0.8-0.7,1.2-0.9c0.6-0.3,1.3-0.4,2-0.4c1-0.1,2,0.2,2.8,0.8c0.6,0.6,0.9,1.4,0.8,2.2v4.5c0,0.1,0,0.2-0.1,0.3
			c-0.1,0.1-0.2,0.1-0.3,0.1h-1.8c-0.1,0-0.2,0-0.3-0.1C34,33.7,34,33.6,34,33.5V33c-0.2,0.3-0.5,0.6-0.9,0.8
			c-0.4,0.2-0.9,0.3-1.4,0.3C31.2,34.1,30.7,34,30.2,33.8z M33.5,31.9c0.3-0.3,0.5-0.8,0.4-1.3v-0.2l-1.2,0.2
			c-0.8,0.2-1.3,0.5-1.3,0.9c0,0.2,0.1,0.4,0.3,0.6c0.2,0.1,0.5,0.2,0.7,0.2C32.8,32.3,33.2,32.2,33.5,31.9z"/>
		<path class="st2" d="M38.3,33.8c-0.1-0.1-0.1-0.2-0.1-0.3v-7c0-0.1,0-0.2,0.1-0.3c0.1-0.1,0.2-0.1,0.3-0.1h1.7
			c0.2,0,0.4,0.2,0.4,0.4V27c0.3-0.3,0.6-0.6,0.9-0.7c0.4-0.2,0.8-0.3,1.3-0.3c0.9-0.1,1.9,0.4,2.3,1.3c0.2-0.4,0.6-0.7,1-0.9
			c0.4-0.2,0.9-0.3,1.4-0.3c0.8,0,1.5,0.3,2,0.8c0.6,0.7,0.8,1.6,0.8,2.5v4.3c0,0.1,0,0.2-0.1,0.3C50.2,33.9,50.1,34,50,34h-1.9
			c-0.1,0-0.2,0-0.3-0.1c-0.1-0.1-0.1-0.2-0.1-0.3v-4.2c0-0.4-0.1-0.7-0.3-1c-0.2-0.2-0.5-0.3-0.8-0.3c-0.3,0-0.6,0.1-0.8,0.3
			c-0.2,0.3-0.3,0.6-0.3,1v4.2c0,0.1,0,0.2-0.1,0.3c-0.1,0.1-0.2,0.1-0.3,0.1h-1.9c-0.1,0-0.2,0-0.3-0.1C43,33.7,43,33.6,43,33.5
			v-4.2c0-0.4-0.1-0.7-0.3-1c-0.2-0.2-0.5-0.3-0.8-0.3c-0.3,0-0.6,0.1-0.8,0.3c-0.2,0.3-0.3,0.6-0.3,1v4.2c0,0.1,0,0.2-0.1,0.3
			c-0.1,0.1-0.2,0.1-0.3,0.1h-1.9C38.5,33.9,38.4,33.9,38.3,33.8z"/>
		<path class="st2" d="M52.8,33.2c-0.7-0.6-1.1-1.6-1.1-2.5V30v-0.6c0-1,0.4-1.9,1.1-2.5c0.8-0.6,1.8-0.9,2.8-0.9
			c0.8,0,1.5,0.1,2.2,0.5c0.5,0.2,1,0.6,1.3,1.1c0.3,0.3,0.4,0.7,0.5,1.2c0,0.1,0,0.2-0.1,0.3c-0.1,0.1-0.2,0.1-0.3,0.1h-2
			c-0.1,0-0.2,0-0.2-0.1c-0.1-0.1-0.1-0.2-0.2-0.2c-0.1-0.2-0.2-0.4-0.4-0.6c-0.2-0.1-0.4-0.2-0.7-0.2c-0.8,0-1.2,0.5-1.2,1.5v0.6
			v0.5c0,0.4,0.1,0.8,0.3,1.1c0.2,0.2,0.6,0.4,0.9,0.4c0.2,0,0.5,0,0.7-0.2c0.2-0.2,0.3-0.4,0.4-0.6c0-0.1,0.1-0.2,0.2-0.2
			c0.1,0,0.2-0.1,0.2-0.1h2c0.1,0,0.2,0,0.3,0.1c0.1,0.1,0.1,0.2,0.1,0.3c0,0.4-0.2,0.8-0.4,1.1c-0.3,0.5-0.8,0.9-1.3,1.1
			c-0.7,0.4-1.5,0.5-2.2,0.5C54.6,34.1,53.6,33.8,52.8,33.2z"/>
		<path class="st2" d="M61.7,33.2c-0.7-0.6-1.1-1.5-1.1-2.5c0-0.1,0-0.4,0-0.7s0-0.5,0-0.7c0-0.9,0.4-1.8,1.1-2.5
			c1.7-1.2,4-1.2,5.8,0c0.7,0.6,1.1,1.5,1.1,2.5c0,0.3,0,0.5,0,0.7s0,0.4,0,0.7c0,1-0.4,1.9-1.1,2.5C65.8,34.4,63.5,34.4,61.7,33.2z
			 M65.6,31.8c0.2-0.4,0.3-0.8,0.3-1.2c0-0.1,0-0.3,0-0.6s0-0.5,0-0.6c0-0.4-0.1-0.8-0.3-1.2c-0.5-0.5-1.3-0.5-1.8,0c0,0,0,0,0,0
			c-0.2,0.3-0.4,0.8-0.3,1.2v1.2c0,0.4,0.1,0.8,0.3,1.2C64.2,32.3,65,32.3,65.6,31.8C65.5,31.8,65.5,31.8,65.6,31.8z"/>
		<path class="st2" d="M73.5,33.8c-0.1-0.1-0.1-0.2-0.1-0.3v-9.7c0-0.1,0-0.2,0.1-0.3c0.1-0.1,0.2-0.1,0.3-0.1h7
			c0.2,0,0.4,0.2,0.4,0.4c0,0,0,0,0,0v1.6c0,0.1,0,0.2-0.1,0.3c-0.1,0.1-0.2,0.1-0.3,0.1h-4.6v2.1h4.3c0.2,0,0.4,0.2,0.4,0.4
			c0,0,0,0,0,0v1.6c0,0.1,0,0.2-0.1,0.3c-0.1,0.1-0.2,0.1-0.3,0.1h-4.3v3.3c0,0.1,0,0.2-0.1,0.3c-0.1,0.1-0.2,0.1-0.3,0.1h-2
			C73.7,33.9,73.6,33.9,73.5,33.8z"/>
		<path class="st2" d="M82.7,33.8c-0.1-0.1-0.1-0.2-0.1-0.3v-9.9c0-0.1,0-0.2,0.1-0.3c0.1-0.1,0.2-0.1,0.3-0.1h1.9
			c0.1,0,0.2,0,0.3,0.1c0.1,0.1,0.1,0.2,0.1,0.3v9.9c0,0.1,0,0.2-0.1,0.3c-0.1,0.1-0.2,0.1-0.3,0.1H83
			C82.9,33.9,82.8,33.9,82.7,33.8z"/>
		<path class="st2" d="M87.7,33.1c-0.7-0.8-1.1-1.8-1.1-2.9v-0.5c0-1,0.4-2,1.1-2.8c0.8-0.7,1.8-1.1,2.8-1c0.8,0,1.5,0.2,2.2,0.5
			c0.6,0.3,1,0.8,1.3,1.4c0.3,0.6,0.5,1.3,0.4,2.1v0.4c0,0.1,0,0.2-0.1,0.3c-0.1,0.1-0.2,0.1-0.3,0.1h-4.8v0.1
			c0,0.4,0.1,0.8,0.3,1.1c0.2,0.3,0.5,0.4,0.9,0.4c0.2,0,0.4,0,0.6-0.1c0.2-0.1,0.3-0.2,0.4-0.4c0.1-0.1,0.1-0.1,0.2-0.2
			c0.1,0,0.2,0,0.3,0h2c0.1,0,0.2,0,0.2,0.1c0.1,0,0.1,0.1,0.1,0.2c0,0.3-0.2,0.7-0.4,0.9c-0.4,0.4-0.8,0.7-1.3,0.9
			c-0.6,0.3-1.3,0.4-2,0.4C89.5,34.2,88.5,33.8,87.7,33.1z M91.8,29.2L91.8,29.2c0-0.4-0.1-0.8-0.3-1.1c-0.2-0.3-0.5-0.4-0.9-0.4
			c-0.3,0-0.7,0.1-0.9,0.4c-0.2,0.3-0.3,0.7-0.3,1.1l0,0H91.8z"/>
		<path class="st2" d="M95.1,33.8c-0.1-0.1-0.1-0.2-0.1-0.2c0-0.1,0-0.2,0.1-0.2l2.5-3.4l-2.3-3.2c-0.1-0.1-0.1-0.1-0.1-0.2
			c0-0.1,0-0.2,0.1-0.2c0.1-0.1,0.1-0.1,0.2-0.1h1.9c0.1,0,0.2,0,0.3,0.1c0.1,0.1,0.1,0.1,0.2,0.2l1.3,1.8l1.3-1.8l0.1-0.1
			c0-0.1,0.1-0.1,0.2-0.1c0.1,0,0.1,0,0.2,0h1.8c0.1,0,0.2,0,0.2,0.1c0.1,0.1,0.1,0.1,0.1,0.2c0,0.1,0,0.2-0.1,0.2l-2.3,3.2l2.5,3.4
			c0,0.1,0.1,0.1,0.1,0.2c0,0.2-0.1,0.3-0.3,0.3c0,0,0,0,0,0h-2c-0.2,0-0.3-0.1-0.4-0.2l-1.5-2l-1.5,2c0,0.1-0.1,0.1-0.2,0.2
			c-0.1,0-0.2,0.1-0.2,0.1h-2C95.2,33.9,95.1,33.9,95.1,33.8z"/>
		<path class="st2" d="M104.6,24.9c-0.1-0.1-0.1-0.2-0.1-0.3v-1.4c0-0.1,0-0.2,0.1-0.3c0.1-0.1,0.2-0.1,0.3-0.1h1.9
			c0.1,0,0.2,0.1,0.3,0.1c0.1,0.1,0.1,0.2,0.1,0.3v1.4c0,0.2-0.2,0.4-0.4,0.4c0,0,0,0,0,0h-1.9C104.7,25.1,104.7,25,104.6,24.9z
			 M104.6,33.8c-0.1-0.1-0.1-0.2-0.1-0.3v-7c0-0.1,0-0.2,0.1-0.3c0.1-0.1,0.2-0.1,0.3-0.1h1.9c0.1,0,0.2,0,0.3,0.1
			c0.1,0.1,0.1,0.2,0.1,0.3v7c0,0.1,0,0.2-0.1,0.3c-0.1,0.1-0.2,0.1-0.3,0.1h-1.9C104.7,34,104.7,33.9,104.6,33.8L104.6,33.8z"/>
		<path class="st2" d="M113.1,33c-0.8-0.8-1.3-1.9-1.3-3c0-0.3,0-0.7,0-1.3s0-1.1,0-1.4c0-1.1,0.5-2.2,1.3-3c1-0.7,2.1-1.1,3.3-1.1
			c0.8,0,1.6,0.1,2.4,0.4c0.7,0.3,1.2,0.7,1.7,1.3c0.4,0.6,0.6,1.2,0.6,2c0,0.1,0,0.2-0.1,0.2c-0.1,0.1-0.2,0.1-0.2,0.1h-2.1
			c-0.1,0-0.2,0-0.3-0.1c-0.1-0.1-0.1-0.2-0.2-0.3c-0.1-0.4-0.3-0.7-0.6-1c-0.3-0.2-0.7-0.3-1.1-0.3c-1.1,0-1.7,0.6-1.8,1.9
			c0,0.3,0,0.7,0,1.2s0,1,0,1.3c0,1.3,0.6,1.9,1.8,1.9c0.4,0,0.8-0.1,1.1-0.3c0.3-0.2,0.5-0.6,0.6-1c0-0.1,0.1-0.2,0.2-0.3
			c0.1-0.1,0.2-0.1,0.3-0.1h2.1c0.1,0,0.2,0,0.2,0.1c0.1,0.1,0.1,0.1,0.1,0.2c0,0.7-0.2,1.4-0.6,1.9c-0.4,0.6-1,1-1.7,1.3
			c-0.8,0.3-1.6,0.5-2.4,0.4C115.3,34.2,114.1,33.8,113.1,33z"/>
		<path class="st2" d="M123.5,33.8c-0.4-0.2-0.8-0.5-1-0.8c-0.2-0.3-0.4-0.8-0.4-1.2c0-0.7,0.3-1.3,0.8-1.7c0.7-0.5,1.5-0.8,2.3-0.9
			l1.9-0.3v-0.2c0-0.3-0.1-0.6-0.2-0.8c-0.2-0.2-0.5-0.3-0.8-0.3c-0.2,0-0.3,0-0.5,0.1c-0.2,0.1-0.3,0.2-0.5,0.3
			c-0.1,0.1-0.2,0.2-0.3,0.2c0,0.1-0.1,0.1-0.2,0.1H123c-0.1,0-0.2,0-0.2-0.1c-0.1-0.1-0.1-0.1-0.1-0.2c0-0.3,0.2-0.7,0.4-0.9
			c0.3-0.4,0.7-0.7,1.2-0.9c0.6-0.3,1.3-0.4,2-0.4c1-0.1,2,0.2,2.8,0.8c0.6,0.6,0.9,1.4,0.9,2.2v4.5c0,0.1,0,0.2-0.1,0.3
			c-0.1,0.1-0.2,0.1-0.3,0.1h-1.8c-0.1,0-0.2,0-0.3-0.1c-0.1-0.1-0.1-0.2-0.1-0.3V33c-0.2,0.3-0.5,0.6-0.9,0.8
			c-0.4,0.2-0.9,0.3-1.4,0.3C124.5,34.1,124,34,123.5,33.8z M126.8,31.9c0.3-0.4,0.4-0.8,0.4-1.3v-0.2l-1.2,0.2
			c-0.8,0.2-1.3,0.5-1.3,0.9c0,0.2,0.1,0.4,0.3,0.6c0.2,0.1,0.5,0.2,0.7,0.2C126.1,32.3,126.5,32.2,126.8,31.9z"/>
		<path class="st2" d="M131.6,36.7c-0.1-0.1-0.1-0.2-0.1-0.3v-9.9c0-0.1,0-0.2,0.1-0.3c0.1-0.1,0.2-0.1,0.3-0.1h1.8
			c0.1,0,0.2,0,0.3,0.1c0.1,0.1,0.1,0.2,0.1,0.3V27c0.6-0.7,1.4-1.1,2.3-1c0.9,0,1.7,0.3,2.3,0.9c0.6,0.7,0.9,1.6,0.9,2.6
			c0,0.1,0,0.3,0,0.6s0,0.4,0,0.6c0,0.9-0.3,1.8-0.9,2.5c-0.6,0.6-1.4,1-2.3,0.9c-0.8,0.1-1.7-0.3-2.2-1v3.3c0,0.1,0,0.2-0.1,0.3
			c-0.1,0.1-0.2,0.1-0.3,0.1h-1.9C131.8,36.8,131.7,36.7,131.6,36.7z M136.4,31.6c0.2-0.3,0.3-0.7,0.3-1.1c0-0.2,0-0.3,0-0.5
			c0-0.2,0-0.4,0-0.5c0-0.4-0.1-0.8-0.3-1.1c-0.5-0.5-1.4-0.5-1.9,0c0,0,0,0,0,0c-0.2,0.3-0.3,0.6-0.4,1c0,0.1,0,0.3,0,0.6
			s0,0.4,0,0.5c0,0.4,0.1,0.7,0.4,1c0.3,0.3,0.6,0.4,1,0.4C135.9,32,136.2,31.8,136.4,31.6z"/>
		<path class="st2" d="M144.4,33.8c-0.1-0.1-0.1-0.2-0.1-0.3v-9.7c0-0.1,0-0.2,0.1-0.3c0.1-0.1,0.2-0.1,0.3-0.1h7
			c0.2,0,0.4,0.2,0.4,0.4c0,0,0,0,0,0v1.6c0,0.1,0,0.2-0.1,0.3c-0.1,0.1-0.2,0.1-0.3,0.1h-4.6v2.1h4.3c0.2,0,0.4,0.2,0.4,0.4
			c0,0,0,0,0,0v1.6c0,0.1,0,0.2-0.1,0.3c-0.1,0.1-0.2,0.1-0.3,0.1h-4.3v3.3c0,0.1,0,0.2-0.1,0.3c-0.1,0.1-0.2,0.1-0.3,0.1h-2
			C144.6,33.9,144.5,33.9,144.4,33.8z"/>
		<path class="st2" d="M154.1,33.2c-0.6-0.7-0.9-1.6-0.8-2.5v-4.2c0-0.1,0-0.2,0.1-0.3c0.1-0.1,0.2-0.1,0.3-0.1h2
			c0.1,0,0.2,0,0.3,0.1c0.1,0.1,0.1,0.2,0.1,0.3v4.1c0,0.9,0.4,1.4,1.2,1.4c0.4,0,0.7-0.1,0.9-0.4c0.2-0.3,0.3-0.6,0.3-1v-4.1
			c0-0.1,0-0.2,0.1-0.3c0.1-0.1,0.2-0.1,0.3-0.1h2c0.2,0,0.4,0.2,0.4,0.4v7.1c0,0.1,0,0.2-0.1,0.3c-0.1,0.1-0.2,0.1-0.3,0.1h-1.8
			c-0.1,0-0.2,0-0.3-0.1c-0.1-0.1-0.1-0.2-0.1-0.3V33c-0.6,0.8-1.5,1.2-2.5,1.1C155.5,34.1,154.7,33.8,154.1,33.2z"/>
		<path class="st2" d="M163.2,33.8c-0.1-0.1-0.1-0.2-0.1-0.3v-7c0-0.1,0-0.2,0.1-0.3c0.1-0.1,0.2-0.1,0.3-0.1h1.9
			c0.1,0,0.2,0,0.3,0.1c0.1,0.1,0.1,0.2,0.1,0.3v0.6c0.3-0.3,0.6-0.6,1-0.8c0.5-0.2,1-0.3,1.5-0.3c0.5,0,1.1,0.1,1.5,0.4
			c0.5,0.3,0.8,0.7,1.1,1.2c0.3,0.6,0.4,1.2,0.4,1.8v4.2c0,0.1,0,0.2-0.1,0.3c-0.1,0.1-0.2,0.1-0.3,0.1h-2c-0.1,0-0.2,0-0.3-0.1
			c-0.1-0.1-0.1-0.2-0.1-0.3v-4.1c0-0.4-0.1-0.7-0.3-1c-0.2-0.3-0.6-0.4-0.9-0.4c-0.4,0-0.7,0.1-0.9,0.4c-0.2,0.3-0.4,0.6-0.4,1v4.1
			c0,0.1,0,0.2-0.1,0.3c-0.1,0.1-0.2,0.1-0.3,0.1h-2C163.3,33.9,163.2,33.9,163.2,33.8z"/>
		<path class="st2" d="M173.4,33.2c-0.6-0.7-0.9-1.7-0.9-2.6v-1.1c0-0.9,0.3-1.8,0.9-2.6c1.2-1.2,3.2-1.3,4.5-0.1v-3.2
			c0-0.1,0-0.2,0.1-0.3c0.1-0.1,0.2-0.1,0.3-0.1h1.9c0.1,0,0.2,0,0.3,0.1c0.1,0.1,0.1,0.2,0.1,0.3v9.9c0,0.1,0,0.2-0.1,0.3
			c-0.1,0.1-0.2,0.1-0.3,0.1h-1.8c-0.1,0-0.2,0-0.3-0.1c-0.1-0.1-0.1-0.2-0.1-0.3v-0.5c-0.6,0.7-1.4,1.1-2.3,1
			C174.8,34.1,174,33.8,173.4,33.2z M177.5,31.6c0.2-0.3,0.3-0.6,0.4-1c0-0.3,0-0.5,0-0.6c0-0.1,0-0.3,0-0.6c0-0.4-0.1-0.7-0.4-1
			c-0.5-0.5-1.4-0.5-1.9,0c-0.2,0.3-0.3,0.7-0.3,1.1V30v0.5c0,0.4,0.1,0.8,0.3,1.1c0.2,0.3,0.6,0.4,1,0.4
			C176.9,32,177.3,31.8,177.5,31.6L177.5,31.6z"/>
		<path class="st2" d="M20.1,51.6c-0.6-0.6-0.9-1.5-0.9-2.3c0-0.2,0-0.6,0-1.1s0-0.9,0-1.1c-0.1-1.7,1.3-3.1,2.9-3.2
			c0.1,0,0.3,0,0.4,0c0.6,0,1.2,0.1,1.8,0.4c0.4,0.2,0.8,0.5,1.1,0.9c0.2,0.3,0.4,0.6,0.4,1l0,0c0,0.1,0,0.1-0.1,0.2
			c0,0-0.1,0.1-0.2,0.1h-0.7c-0.1,0-0.1,0-0.2,0c0-0.1-0.1-0.1-0.1-0.2c-0.1-0.4-0.4-0.7-0.7-0.9c-0.4-0.3-0.9-0.4-1.4-0.4
			c-0.6,0-1.1,0.2-1.6,0.6c-0.4,0.5-0.6,1.1-0.6,1.7c0,0.2,0,0.6,0,1.1s0,0.8,0,1.1c0,0.6,0.2,1.2,0.6,1.7c0.4,0.4,1,0.6,1.6,0.5
			c0.6,0,1.2-0.2,1.6-0.5c0.4-0.4,0.7-1.1,0.6-1.7v-0.5H23c-0.1,0-0.2,0-0.2-0.1c-0.1-0.1-0.1-0.1-0.1-0.2V48c0-0.1,0-0.2,0.1-0.2
			c0.1-0.1,0.1-0.1,0.2-0.1h2.7c0.1,0,0.2,0,0.2,0.1C26,47.8,26,47.9,26,48v1.1c0,0.6-0.1,1.2-0.4,1.7c-0.3,0.5-0.7,0.9-1.2,1.2
			c-0.6,0.3-1.2,0.4-1.8,0.4C21.7,52.5,20.8,52.2,20.1,51.6z"/>
		<path class="st2" d="M28,51.7c-0.5-0.6-0.8-1.3-0.8-2.1v-0.8c0-0.8,0.3-1.5,0.8-2.1c0.5-0.5,1.3-0.8,2-0.7c0.8,0,1.5,0.3,2,0.8
			c0.5,0.6,0.8,1.5,0.7,2.3v0.2c0,0.1-0.1,0.3-0.3,0.3l0,0h-4.1v0.1c0,0.5,0.2,0.9,0.5,1.3c0.3,0.4,0.7,0.6,1.2,0.5
			c0.3,0,0.6-0.1,0.9-0.2c0.2-0.1,0.4-0.3,0.5-0.5c0-0.1,0.1-0.1,0.2-0.2c0.1,0,0.1,0,0.2,0h0.5c0.1,0,0.1,0,0.2,0.1
			c0.1,0,0.1,0.1,0.1,0.2c0,0.2-0.1,0.5-0.3,0.6c-0.3,0.3-0.6,0.5-0.9,0.6c-0.4,0.2-0.9,0.3-1.4,0.3C29.3,52.5,28.5,52.2,28,51.7z
			 M31.6,48.8L31.6,48.8c0-0.5-0.1-1-0.5-1.4c-0.6-0.7-1.7-0.7-2.4-0.1c0,0-0.1,0-0.1,0.1c-0.3,0.4-0.5,0.9-0.4,1.4l0,0H31.6z"/>
		<path class="st2" d="M34.7,50.2V47h-1c-0.1,0-0.2-0.1-0.3-0.2c0,0,0,0,0,0v-0.4c0-0.1,0-0.1,0.1-0.2c0-0.1,0.1-0.1,0.2-0.1h1v-2
			c0-0.1,0-0.1,0.1-0.2c0-0.1,0.1-0.1,0.2-0.1h0.5c0.1,0,0.1,0,0.2,0.1c0.1,0.1,0.1,0.1,0.1,0.2v2h1.5c0.1,0,0.1,0,0.2,0.1
			c0.1,0.1,0.1,0.1,0.1,0.2v0.4c0,0.1,0,0.1-0.1,0.2c-0.1,0-0.1,0.1-0.2,0.1h-1.5v3.1c0,0.3,0,0.6,0.2,0.9c0.1,0.2,0.4,0.3,0.7,0.3
			h0.7c0.1,0,0.1,0,0.2,0.1c0,0.1,0.1,0.1,0.1,0.2V52c0,0.1,0,0.1-0.1,0.2c0,0.1-0.1,0.1-0.2,0.1h-0.8
			C35.4,52.3,34.7,51.6,34.7,50.2z"/>
		<path class="st2" d="M42.5,52.2c-0.3-0.1-0.6-0.4-0.8-0.7c-0.2-0.3-0.3-0.6-0.3-0.9c0-0.5,0.2-1,0.7-1.3c0.5-0.4,1.1-0.6,1.8-0.7
			l1.8-0.2v-0.3c0-0.8-0.5-1.2-1.4-1.2c-0.3,0-0.6,0.1-0.9,0.2c-0.2,0.1-0.4,0.3-0.5,0.5c0,0.1-0.1,0.1-0.1,0.2c0,0-0.1,0-0.2,0H42
			c-0.1,0-0.1,0-0.2-0.1c-0.1,0-0.1-0.1-0.1-0.2c0-0.2,0.1-0.5,0.3-0.7c0.2-0.3,0.5-0.5,0.8-0.6c0.4-0.2,0.9-0.2,1.3-0.2
			c0.7-0.1,1.4,0.2,1.9,0.6c0.4,0.4,0.6,1,0.6,1.6V52c0,0.1-0.1,0.3-0.3,0.3c0,0,0,0,0,0h-0.5c-0.1,0-0.1,0-0.2-0.1
			c0-0.1-0.1-0.1-0.1-0.2v-0.5c-0.2,0.3-0.5,0.5-0.8,0.7c-0.4,0.2-0.9,0.3-1.3,0.3C43.2,52.4,42.8,52.3,42.5,52.2z M45.1,51
			c0.4-0.4,0.5-1,0.5-1.5v-0.3l-1.4,0.2c-0.5,0-0.9,0.2-1.3,0.4c-0.3,0.1-0.4,0.4-0.4,0.7c0,0.3,0.1,0.6,0.4,0.8
			c0.3,0.2,0.6,0.3,1,0.3C44.3,51.5,44.7,51.3,45.1,51z"/>
		<path class="st2" d="M48.9,51.7c-0.5-0.5-0.8-1.3-0.8-2v-1c0-0.7,0.3-1.5,0.8-2c0.5-0.5,1.3-0.8,2-0.7c0.5,0,1,0.1,1.5,0.3
			c0.4,0.2,0.7,0.4,0.9,0.8c0.2,0.3,0.3,0.6,0.3,0.9c0,0.1,0,0.1-0.1,0.2c-0.1,0.1-0.1,0.1-0.2,0.1h-0.5c-0.1,0-0.1,0-0.2-0.1
			c-0.1-0.1-0.1-0.1-0.1-0.2c-0.1-0.3-0.3-0.6-0.6-0.8c-0.3-0.2-0.6-0.3-1-0.2c-0.5,0-0.9,0.1-1.2,0.5c-0.3,0.4-0.5,0.9-0.5,1.4v0.8
			c0,0.5,0.2,1,0.5,1.4c0.3,0.3,0.8,0.5,1.2,0.5c0.3,0,0.7-0.1,1-0.2c0.3-0.2,0.5-0.5,0.6-0.8c0-0.1,0.1-0.1,0.1-0.2
			c0,0,0.1-0.1,0.2-0.1h0.5c0.1,0,0.1,0,0.2,0.1c0.1,0,0.1,0.1,0.1,0.2c0,0.3-0.1,0.6-0.3,0.9c-0.2,0.3-0.5,0.6-0.9,0.8
			c-0.5,0.2-1,0.3-1.5,0.3C50.2,52.4,49.4,52.2,48.9,51.7z"/>
		<path class="st2" d="M55.5,51.7c-0.5-0.5-0.8-1.3-0.8-2v-1c0-0.7,0.3-1.5,0.8-2c0.5-0.5,1.3-0.8,2-0.7c0.5,0,1,0.1,1.5,0.3
			c0.4,0.2,0.7,0.4,0.9,0.8c0.2,0.3,0.3,0.6,0.3,0.9c0,0.1,0,0.1-0.1,0.2c-0.1,0.1-0.1,0.1-0.2,0.1h-0.5c-0.1,0-0.1,0-0.2-0.1
			c-0.1-0.1-0.1-0.1-0.1-0.2c-0.1-0.3-0.3-0.6-0.6-0.8c-0.3-0.2-0.6-0.3-1-0.2c-0.5,0-0.9,0.1-1.2,0.5c-0.3,0.4-0.5,0.9-0.5,1.4v0.8
			c0,0.5,0.2,1,0.5,1.4c0.3,0.3,0.8,0.5,1.2,0.5c0.3,0,0.7-0.1,1-0.2c0.3-0.2,0.5-0.5,0.6-0.8c0-0.1,0.1-0.1,0.1-0.2
			c0,0,0.1-0.1,0.2-0.1h0.5c0.1,0,0.1,0,0.2,0.1c0.1,0,0.1,0.1,0.1,0.2c0,0.3-0.1,0.6-0.3,0.9c-0.2,0.3-0.5,0.6-0.9,0.8
			c-0.5,0.2-1,0.3-1.5,0.3C56.8,52.4,56,52.2,55.5,51.7z"/>
		<path class="st2" d="M62.1,51.7c-0.5-0.6-0.8-1.3-0.8-2.1v-0.8c0-0.8,0.3-1.5,0.8-2.1c0.5-0.5,1.3-0.8,2-0.8c0.8,0,1.5,0.3,2,0.8
			c0.5,0.6,0.8,1.5,0.7,2.3v0.2c0,0.1,0,0.1-0.1,0.2c-0.1,0.1-0.1,0.1-0.2,0.1h-4.2v0.1c0,0.5,0.2,1,0.5,1.3
			c0.3,0.4,0.7,0.6,1.2,0.5c0.3,0,0.6-0.1,0.9-0.2c0.2-0.1,0.4-0.3,0.5-0.5c0-0.1,0.1-0.1,0.2-0.2c0.1,0,0.1,0,0.2,0h0.5
			c0.1,0,0.1,0,0.2,0.1c0.1,0,0.1,0.1,0.1,0.2c0,0.2-0.1,0.5-0.3,0.6c-0.3,0.3-0.6,0.5-0.9,0.6c-0.4,0.2-0.9,0.3-1.4,0.3
			C63.3,52.5,62.6,52.2,62.1,51.7z M65.8,48.8L65.8,48.8c0-0.5-0.1-1-0.5-1.4c-0.6-0.7-1.7-0.7-2.4-0.1c0,0-0.1,0-0.1,0.1
			c-0.3,0.4-0.5,0.9-0.4,1.4l0,0H65.8z"/>
		<path class="st2" d="M69.1,52.2c-0.3-0.1-0.6-0.4-0.8-0.6c-0.2-0.2-0.3-0.4-0.3-0.6c0-0.1,0-0.1,0.1-0.2c0.1,0,0.1-0.1,0.2-0.1
			h0.5c0,0,0.1,0,0.1,0c0,0,0.1,0.1,0.1,0.1c0.2,0.2,0.4,0.4,0.6,0.5c0.3,0.1,0.6,0.2,0.9,0.2c0.3,0,0.7-0.1,1-0.2
			c0.2-0.1,0.4-0.4,0.4-0.7c0-0.2-0.1-0.3-0.2-0.5c-0.2-0.1-0.4-0.3-0.6-0.3c-0.4-0.1-0.7-0.2-1.1-0.3c-0.5-0.1-1.1-0.3-1.5-0.7
			c-0.3-0.3-0.4-0.7-0.4-1.1c0-0.3,0.1-0.6,0.3-0.9c0.2-0.3,0.5-0.5,0.8-0.7C69.5,46,70,46,70.4,46c0.4,0,0.9,0.1,1.3,0.2
			c0.3,0.1,0.6,0.3,0.8,0.6c0.1,0.2,0.2,0.3,0.3,0.6c0,0.1,0,0.1-0.1,0.2c-0.1,0-0.1,0.1-0.2,0.1H72c-0.1,0-0.2,0-0.2-0.1
			c-0.1-0.1-0.2-0.2-0.3-0.3C71.3,47.1,71.2,47,71,47c-0.2-0.1-0.4-0.1-0.7-0.1c-0.3,0-0.6,0.1-0.9,0.2c-0.2,0.2-0.3,0.4-0.3,0.7
			c0,0.2,0,0.3,0.1,0.4c0.1,0.1,0.3,0.3,0.5,0.3c0.4,0.1,0.7,0.2,1.1,0.3c0.6,0.1,1.1,0.3,1.6,0.7c0.3,0.3,0.5,0.7,0.5,1.1
			c0,0.3-0.1,0.7-0.3,0.9c-0.2,0.3-0.5,0.5-0.9,0.7c-0.4,0.2-0.9,0.3-1.4,0.2C70,52.4,69.5,52.4,69.1,52.2z"/>
		<path class="st2" d="M75.2,52.2c-0.3-0.1-0.6-0.4-0.8-0.6C74.1,51.4,74,51.2,74,51c0-0.1,0-0.1,0.1-0.2c0.1,0,0.1-0.1,0.2-0.1h0.5
			c0,0,0.1,0,0.1,0c0,0,0.1,0,0.1,0.1c0.2,0.2,0.4,0.4,0.6,0.5c0.3,0.1,0.6,0.2,0.9,0.2c0.3,0,0.7-0.1,1-0.2
			c0.2-0.1,0.4-0.4,0.4-0.7c0-0.2-0.1-0.3-0.2-0.5c-0.2-0.1-0.4-0.3-0.6-0.3c-0.4-0.1-0.8-0.2-1.2-0.3c-0.5-0.1-1-0.3-1.5-0.7
			c-0.3-0.3-0.5-0.7-0.4-1.1c0-0.3,0.1-0.6,0.3-0.9c0.2-0.3,0.5-0.5,0.8-0.7C75.6,46,76,46,76.5,46c0.4,0,0.9,0.1,1.3,0.2
			c0.3,0.1,0.6,0.3,0.8,0.6c0.1,0.2,0.2,0.3,0.3,0.6c0,0.1,0,0.1-0.1,0.2c0,0-0.1,0.1-0.2,0.1h-0.5c-0.1,0-0.2,0-0.2-0.1
			c-0.1-0.1-0.2-0.2-0.3-0.3c-0.1-0.1-0.3-0.2-0.4-0.2c-0.2-0.1-0.4-0.1-0.7-0.1c-0.3,0-0.6,0.1-0.9,0.2c-0.2,0.2-0.3,0.4-0.3,0.7
			c0,0.2,0,0.3,0.1,0.4c0.1,0.1,0.3,0.3,0.5,0.3c0.4,0.1,0.7,0.2,1.1,0.3c0.6,0.1,1.1,0.3,1.6,0.7c0.3,0.3,0.5,0.7,0.5,1.1
			c0,0.3-0.1,0.7-0.3,0.9c-0.2,0.3-0.5,0.5-0.9,0.7c-0.4,0.2-0.9,0.3-1.4,0.2C76.1,52.5,75.6,52.4,75.2,52.2z"/>
		<path class="st2" d="M83.8,50.2V47h-1c-0.1,0-0.1,0-0.2-0.1c-0.1,0-0.1-0.1-0.1-0.2v-0.4c0-0.1,0-0.1,0.1-0.2
			c0-0.1,0.1-0.1,0.2-0.1h1v-2c0-0.1,0-0.1,0.1-0.2c0-0.1,0.1-0.1,0.2-0.1h0.5c0.1,0,0.1,0,0.2,0.1c0,0.1,0.1,0.1,0.1,0.2v2h1.5
			c0.1,0,0.3,0.1,0.3,0.3c0,0,0,0,0,0v0.4c0,0.1,0,0.1-0.1,0.2c-0.1,0-0.1,0.1-0.2,0.1h-1.5v3.1c0,0.3,0.1,0.6,0.2,0.9
			c0.2,0.2,0.4,0.3,0.7,0.3h0.7c0.1,0,0.1,0,0.2,0.1c0.1,0.1,0.1,0.1,0.1,0.2V52c0,0.1,0,0.1-0.1,0.2c0,0.1-0.1,0.1-0.2,0.1h-0.8
			C84.4,52.3,83.8,51.6,83.8,50.2z"/>
		<path class="st2" d="M88.4,51.7c-0.5-0.5-0.8-1.3-0.8-2v-1c0-0.7,0.3-1.5,0.8-2c1.2-1,2.8-1,4,0c0.5,0.5,0.8,1.3,0.8,2
			c0,0.3,0,0.7,0,1c0,0.7-0.3,1.4-0.8,2C91.2,52.7,89.5,52.7,88.4,51.7L88.4,51.7z M91.6,51c0.3-0.4,0.5-0.9,0.5-1.4
			c0-0.1,0-0.2,0-0.5s0-0.4,0-0.5c0-0.5-0.2-1-0.5-1.4c-0.7-0.7-1.8-0.7-2.4,0c-0.3,0.4-0.5,0.9-0.5,1.4v0.9c0,0.5,0.2,1,0.5,1.4
			C89.9,51.7,90.9,51.7,91.6,51z"/>
		<path class="st2" d="M97.4,52.2c-0.1-0.1-0.1-0.1-0.1-0.2v-0.4c0-0.2,0.1-0.4,0.3-0.5l2.6-2.6c0.5-0.4,0.9-0.8,1.2-1.2
			c0.2-0.3,0.3-0.6,0.3-1c0-0.4-0.1-0.8-0.4-1.1c-0.3-0.3-0.7-0.4-1.2-0.4c-0.4,0-0.8,0.1-1.1,0.4c-0.3,0.3-0.5,0.7-0.5,1.1
			c0,0.1-0.1,0.2-0.1,0.2c-0.1,0-0.1,0.1-0.2,0.1h-0.6c-0.1,0-0.1,0-0.2-0.1c0,0-0.1-0.1-0.1-0.2c0-0.4,0.1-0.9,0.3-1.2
			c0.2-0.4,0.5-0.8,0.9-1c0.5-0.3,1-0.4,1.5-0.4c0.7,0,1.5,0.2,2,0.7c0.5,0.5,0.7,1.1,0.7,1.8c0,0.5-0.1,0.9-0.4,1.4
			c-0.3,0.5-0.7,0.9-1.2,1.3l-2.4,2.4h3.8c0.1,0,0.1,0,0.2,0.1c0.1,0.1,0.1,0.1,0.1,0.2V52c0,0.1,0,0.1-0.1,0.2
			c-0.1,0.1-0.1,0.1-0.2,0.1h-5.2C97.6,52.3,97.5,52.3,97.4,52.2z"/>
		<path class="st2" d="M105.7,52.1c-0.4-0.2-0.7-0.5-1-0.8c-0.2-0.3-0.4-0.7-0.4-1.1l0,0c0-0.1,0-0.1,0.1-0.2c0,0,0.1-0.1,0.2-0.1
			h0.6c0.2,0,0.3,0.1,0.3,0.3c0.1,0.4,0.3,0.8,0.7,1c0.3,0.2,0.7,0.3,1.1,0.3c0.5,0,1-0.2,1.3-0.5c0.4-0.4,0.6-0.9,0.5-1.4
			c0-0.5-0.2-1-0.5-1.3c-0.4-0.3-0.9-0.5-1.3-0.5c-0.2,0-0.5,0-0.7,0.1c-0.2,0.1-0.4,0.2-0.5,0.3c-0.1,0.1-0.2,0.1-0.3,0.2
			c-0.1,0-0.1,0-0.2,0H105c-0.1,0-0.1,0-0.2-0.1c-0.1,0-0.1-0.1-0.1-0.2l0.4-4c0-0.2,0.1-0.3,0.3-0.3h4.2c0.1,0,0.1,0,0.2,0.1
			c0.1,0.1,0.1,0.1,0.1,0.2v0.4c0,0.1,0,0.1-0.1,0.2c-0.1,0-0.1,0.1-0.2,0.1h-3.5l-0.2,2.4c0.5-0.3,1-0.4,1.6-0.4
			c0.5,0,1,0.1,1.5,0.3c0.4,0.2,0.8,0.5,1,0.9c0.3,0.4,0.4,0.9,0.4,1.5c0,0.5-0.1,1.1-0.4,1.5c-0.3,0.4-0.6,0.8-1.1,1
			c-0.5,0.2-1,0.3-1.6,0.3C106.7,52.5,106.2,52.3,105.7,52.1z"/>
		<path class="st2" d="M19.9,65.7c-0.5-0.6-0.8-1.3-0.8-2.1v-0.8c0-0.8,0.3-1.5,0.8-2.1c0.5-0.5,1.3-0.8,2-0.8c0.8,0,1.5,0.3,2,0.8
			c0.5,0.6,0.8,1.5,0.7,2.3v0.2c0,0.1,0,0.1-0.1,0.2c-0.1,0.1-0.1,0.1-0.2,0.1h-4.2v0.1c0,0.5,0.2,0.9,0.5,1.3
			c0.3,0.4,0.7,0.6,1.2,0.6c0.3,0,0.6-0.1,0.9-0.2c0.2-0.1,0.4-0.3,0.5-0.5c0-0.1,0.1-0.1,0.2-0.2c0.1,0,0.1,0,0.2,0h0.5
			c0.1,0,0.1,0,0.2,0.1c0,0,0.1,0.1,0.1,0.2c0,0.2-0.1,0.5-0.3,0.6c-0.3,0.3-0.6,0.5-0.9,0.6c-0.4,0.2-0.9,0.3-1.4,0.3
			C21.1,66.5,20.4,66.2,19.9,65.7z M23.5,62.8L23.5,62.8c0-0.5-0.1-1-0.5-1.4c-0.3-0.4-0.8-0.5-1.2-0.5c-0.5,0-0.9,0.2-1.2,0.5
			c-0.3,0.4-0.5,0.9-0.5,1.4l0,0H23.5z"/>
		<path class="st2" d="M26.7,66.2c-0.1-0.1-0.1-0.1-0.1-0.2v-5h-1c-0.1,0-0.1,0-0.2-0.1c-0.1,0-0.1-0.1-0.1-0.2v-0.4
			c0-0.1,0.1-0.3,0.3-0.3c0,0,0,0,0,0h1v-0.6c0-0.5,0.1-1.1,0.5-1.5c0.4-0.4,1-0.6,1.5-0.5h0.7c0.1,0,0.1,0,0.2,0.1
			c0,0.1,0.1,0.1,0.1,0.2v0.4c0,0.1,0,0.1-0.1,0.2c-0.1,0-0.1,0.1-0.2,0.1h-0.7c-0.3,0-0.6,0.1-0.8,0.3c-0.2,0.3-0.2,0.6-0.2,0.9
			v0.5h2.6v-0.6c0-0.5,0.1-1.1,0.5-1.5c0.4-0.4,1-0.6,1.6-0.5h1.8c0.1,0,0.1,0,0.2,0.1c0.1,0.1,0.1,0.1,0.1,0.2v0.4
			c0,0.1,0,0.1-0.1,0.2c-0.1,0-0.1,0.1-0.2,0.1h-1.8c-0.3,0-0.6,0.1-0.8,0.3c-0.2,0.3-0.2,0.6-0.2,0.9v0.5h2.8c0.1,0,0.1,0,0.2,0.1
			c0.1,0.1,0.1,0.1,0.1,0.2V66c0,0.1,0,0.1-0.1,0.2c0,0.1-0.1,0.1-0.2,0.1h-0.5c-0.1,0-0.3-0.1-0.3-0.3c0,0,0,0,0,0v-5h-1.9v5
			c0,0.1-0.1,0.3-0.3,0.3c0,0,0,0,0,0h-0.5c-0.1,0-0.1,0-0.2-0.1c0-0.1-0.1-0.1-0.1-0.2v-5h-2.6v5c0,0.1-0.1,0.3-0.3,0.3
			c0,0,0,0,0,0h-0.5C26.9,66.3,26.8,66.3,26.7,66.2z"/>
		<path class="st2" d="M36.7,65.7c-0.5-0.5-0.8-1.3-0.8-2v-1c0-0.7,0.3-1.5,0.8-2c0.5-0.5,1.3-0.8,2-0.7c0.5,0,1,0.1,1.5,0.3
			c0.4,0.2,0.7,0.4,0.9,0.7c0.2,0.3,0.3,0.6,0.3,0.9c0,0.1,0,0.1-0.1,0.2c0,0.1-0.1,0.1-0.2,0.1h-0.5c-0.1,0-0.1,0-0.2-0.1
			c-0.1-0.1-0.1-0.1-0.1-0.2c-0.1-0.3-0.3-0.6-0.6-0.8c-0.3-0.2-0.6-0.3-1-0.2c-0.4,0-0.9,0.1-1.2,0.5c-0.3,0.4-0.5,0.9-0.5,1.5v0.8
			c0,0.5,0.2,1,0.5,1.4c0.3,0.3,0.8,0.5,1.2,0.5c0.4,0,0.7-0.1,1-0.2c0.3-0.2,0.5-0.5,0.6-0.8c0-0.1,0.1-0.1,0.1-0.2
			c0,0,0.1-0.1,0.2-0.1h0.5c0.1,0,0.1,0,0.2,0.1c0.1,0,0.1,0.1,0.1,0.2c0,0.3-0.1,0.6-0.3,0.9c-0.2,0.3-0.5,0.6-0.9,0.8
			c-0.4,0.2-0.9,0.3-1.5,0.3C38,66.5,37.2,66.2,36.7,65.7z"/>
		<path class="st2" d="M42.8,58.8c-0.1-0.1-0.1-0.1-0.1-0.2V58c0-0.1,0-0.1,0.1-0.2c0.1-0.1,0.1-0.1,0.2-0.1h0.7
			c0.1,0,0.1,0,0.2,0.1c0.1,0,0.1,0.1,0.1,0.2v0.6c0,0.1,0,0.1-0.1,0.2c-0.1,0-0.1,0.1-0.2,0.1H43C42.9,58.9,42.8,58.9,42.8,58.8z
			 M42.9,66.2c-0.1-0.1-0.1-0.1-0.1-0.2v-5.7c0-0.1,0.1-0.3,0.3-0.3c0,0,0,0,0,0h0.5c0.1,0,0.1,0,0.2,0.1c0.1,0.1,0.1,0.1,0.1,0.2
			V66c0,0.1,0,0.1-0.1,0.2c0,0.1-0.1,0.1-0.2,0.1h-0.5C43,66.3,42.9,66.3,42.9,66.2z"/>
		<path class="st2" d="M46.2,65.7c-0.5-0.6-0.8-1.3-0.8-2.1v-0.8c0-0.8,0.3-1.5,0.8-2.1c1.1-1.1,2.9-1,4,0.1
			c0.5,0.6,0.8,1.5,0.7,2.3v0.2c0,0.1-0.1,0.3-0.3,0.3c0,0,0,0,0,0h-4.2v0.1c0,0.5,0.2,1,0.5,1.3c0.3,0.4,0.7,0.6,1.2,0.6
			c0.3,0,0.6-0.1,0.9-0.2c0.2-0.1,0.4-0.3,0.5-0.5c0-0.1,0.1-0.1,0.2-0.2c0.1,0,0.1,0,0.2,0h0.5c0.1,0,0.1,0,0.2,0.1
			c0,0,0.1,0.1,0.1,0.2c0,0.2-0.1,0.5-0.3,0.6c-0.3,0.3-0.6,0.5-0.9,0.6c-0.4,0.2-0.9,0.3-1.4,0.3C47.4,66.5,46.7,66.2,46.2,65.7z
			 M49.8,62.8L49.8,62.8c0-0.5-0.1-1-0.5-1.4c-0.3-0.4-0.8-0.5-1.2-0.5c-0.5,0-0.9,0.2-1.2,0.5c-0.3,0.4-0.5,0.9-0.4,1.4l0,0H49.8z"
			/>
		<path class="st2" d="M52.5,66.2c-0.1-0.1-0.1-0.1-0.1-0.2v-5.7c0-0.1,0-0.1,0.1-0.2c0-0.1,0.1-0.1,0.2-0.1h0.5
			c0.1,0,0.1,0,0.2,0.1c0.1,0.1,0.1,0.1,0.1,0.2v0.5c0.2-0.3,0.5-0.5,0.8-0.7c0.4-0.2,0.8-0.2,1.2-0.2c0.7,0,1.3,0.2,1.8,0.7
			c0.5,0.6,0.7,1.3,0.6,2V66c0,0.1-0.1,0.3-0.3,0.3c0,0,0,0,0,0h-0.5c-0.1,0-0.3-0.1-0.3-0.3c0,0,0,0,0,0v-3.3c0-0.5-0.1-1-0.4-1.3
			c-0.3-0.3-0.7-0.5-1.2-0.5c-0.5,0-0.9,0.2-1.2,0.5c-0.3,0.4-0.5,0.9-0.5,1.3V66c0,0.1,0,0.1-0.1,0.2c0,0.1-0.1,0.1-0.2,0.1h-0.6
			C52.6,66.3,52.5,66.3,52.5,66.2z"/>
		<path class="st2" d="M60.1,64.2V61h-1c-0.1,0-0.2-0.1-0.3-0.2c0,0,0,0,0,0v-0.4c0-0.1,0-0.1,0.1-0.2c0-0.1,0.1-0.1,0.2-0.1h1v-2
			c0-0.1,0-0.1,0.1-0.2c0.1-0.1,0.1-0.1,0.2-0.1h0.5c0.1,0,0.3,0.1,0.3,0.3c0,0,0,0,0,0v2h1.5c0.1,0,0.1,0,0.2,0.1
			c0.1,0.1,0.1,0.1,0.1,0.2v0.4c0,0.1,0,0.1-0.1,0.2c-0.1,0-0.1,0.1-0.2,0.1h-1.5v3.1c0,0.3,0.1,0.6,0.2,0.9
			c0.2,0.2,0.4,0.3,0.7,0.3h0.7c0.1,0,0.1,0,0.2,0.1c0,0.1,0.1,0.1,0.1,0.2V66c0,0.1,0,0.1-0.1,0.2c0,0.1-0.1,0.1-0.2,0.1h-0.8
			C60.7,66.3,60.1,65.6,60.1,64.2z"/>
		<path class="st2" d="M67.6,65.7c-0.5-0.5-0.8-1.3-0.8-2v-0.5v-0.5c0-0.7,0.3-1.5,0.8-2c0.5-0.5,1.3-0.8,2-0.7c0.5,0,1,0.1,1.4,0.3
			c0.4,0.1,0.7,0.4,0.9,0.7c0.2,0.3,0.3,0.6,0.3,0.9c0,0.1,0,0.1-0.1,0.2c-0.1,0.1-0.1,0.1-0.2,0.1h-0.5c-0.1,0-0.1,0-0.2-0.1
			c-0.1-0.1-0.1-0.1-0.1-0.2c-0.1-0.3-0.3-0.6-0.6-0.8c-0.3-0.2-0.6-0.3-1-0.2c-0.4,0-0.9,0.2-1.2,0.5c-0.3,0.4-0.5,0.9-0.4,1.5v0.8
			c0,0.5,0.1,1,0.5,1.4c0.3,0.3,0.8,0.5,1.2,0.5c0.4,0,0.7-0.1,1-0.2c0.3-0.2,0.5-0.5,0.6-0.8c0-0.1,0.1-0.1,0.1-0.2
			c0,0,0.1-0.1,0.2-0.1H72c0.1,0,0.1,0,0.2,0.1c0.1,0,0.1,0.1,0.1,0.2c0,0.3-0.1,0.6-0.3,0.9c-0.2,0.3-0.5,0.6-0.9,0.8
			c-0.4,0.2-0.9,0.3-1.4,0.3C68.9,66.4,68.2,66.2,67.6,65.7z"/>
		<path class="st2" d="M74.2,65.7c-0.5-0.5-0.8-1.3-0.8-2v-0.5v-0.5c0-0.7,0.3-1.5,0.8-2c1.2-1,2.8-1,4,0c0.5,0.5,0.8,1.3,0.8,2
			c0,0.3,0,0.7,0,1c0,0.7-0.3,1.4-0.8,2c-0.5,0.5-1.3,0.8-2,0.7C75.5,66.4,74.8,66.2,74.2,65.7z M77.5,65c0.3-0.4,0.5-0.9,0.5-1.3
			c0-0.1,0-0.2,0-0.5s0-0.4,0-0.5c0-0.5-0.2-1-0.5-1.4c-0.7-0.7-1.8-0.7-2.4,0c-0.3,0.4-0.5,0.9-0.5,1.4v0.9c0,0.5,0.2,1,0.5,1.3
			C75.7,65.7,76.8,65.7,77.5,65z"/>
		<path class="st2" d="M80.7,66.2c-0.1-0.1-0.1-0.1-0.1-0.2v-5.7c0-0.1,0.1-0.3,0.3-0.3c0,0,0,0,0,0h0.5c0.1,0,0.1,0,0.2,0.1
			c0,0.1,0.1,0.1,0.1,0.2v0.4c0.4-0.5,1.1-0.8,1.8-0.8c0.8-0.1,1.5,0.4,1.9,1.1c0.2-0.3,0.5-0.6,0.8-0.8c0.4-0.2,0.8-0.3,1.2-0.3
			c0.6,0,1.2,0.2,1.6,0.7c0.5,0.6,0.7,1.3,0.6,2V66c0,0.1-0.1,0.3-0.3,0.3c0,0,0,0,0,0h-0.5c-0.1,0-0.3-0.1-0.3-0.3c0,0,0,0,0,0
			v-3.3c0-0.5-0.1-1-0.4-1.4c-0.3-0.3-0.6-0.4-1-0.4c-0.4,0-0.7,0.1-1,0.4c-0.3,0.4-0.5,0.9-0.4,1.4V66c0,0.1-0.1,0.3-0.3,0.3
			c0,0,0,0,0,0h-0.5c-0.1,0-0.1,0-0.2-0.1c-0.1-0.1-0.1-0.1-0.1-0.2v-3.3c0-0.5-0.1-1-0.4-1.4c-0.3-0.3-0.6-0.4-1-0.4
			c-0.4,0-0.7,0.1-1,0.4c-0.3,0.4-0.5,0.9-0.4,1.3V66c0,0.1,0,0.1-0.1,0.2c-0.1,0.1-0.1,0.1-0.2,0.1h-0.5
			C80.9,66.3,80.8,66.3,80.7,66.2z"/>
		<path class="st2" d="M91.4,68.5c-0.1-0.1-0.1-0.1-0.1-0.2v-8c0-0.1,0-0.2,0.1-0.2c0.1,0,0.1-0.1,0.2-0.1h0.5c0.1,0,0.2,0,0.2,0.1
			c0,0.1,0.1,0.1,0.1,0.2v0.5c0.5-0.6,1.2-1,2-0.9c0.7,0,1.4,0.2,1.9,0.8c0.4,0.6,0.7,1.3,0.7,2c0,0.3,0,0.5,0,0.8
			c0,0.7-0.2,1.4-0.7,2c-1,1-2.6,1.1-3.7,0.1c-0.1-0.1-0.1-0.1-0.2-0.2v2.8c0,0.1,0,0.1-0.1,0.2c-0.1,0.1-0.1,0.1-0.2,0.1h-0.5
			C91.5,68.5,91.4,68.5,91.4,68.5z M95.4,64.9c0.3-0.4,0.4-0.9,0.4-1.4c0-0.1,0-0.2,0-0.3c0-1.5-0.6-2.3-1.7-2.3
			c-0.5,0-1,0.2-1.3,0.5c-0.3,0.4-0.4,0.8-0.4,1.3c0,0.1,0,0.2,0,0.5s0,0.4,0,0.5c0,0.5,0.2,0.9,0.5,1.3c0.3,0.4,0.8,0.6,1.2,0.5
			C94.6,65.6,95,65.4,95.4,64.9L95.4,64.9z"/>
		<path class="st2" d="M99,66.2c-0.3-0.1-0.6-0.4-0.8-0.7c-0.2-0.3-0.3-0.6-0.3-0.9c0-0.5,0.2-1,0.7-1.3c0.5-0.4,1.1-0.6,1.8-0.7
			l1.8-0.2v-0.3c0-0.8-0.5-1.2-1.4-1.2c-0.3,0-0.6,0.1-0.9,0.2c-0.2,0.1-0.4,0.3-0.5,0.5c0,0.1-0.1,0.1-0.1,0.2c0,0-0.1,0-0.2,0
			h-0.5c-0.1,0-0.1,0-0.2-0.1c-0.1,0-0.1-0.1-0.1-0.2c0-0.2,0.1-0.5,0.3-0.6c0.2-0.3,0.5-0.5,0.8-0.6c0.4-0.2,0.9-0.3,1.3-0.3
			c0.7-0.1,1.4,0.2,1.9,0.6c0.4,0.4,0.6,1,0.6,1.6V66c0,0.1-0.1,0.3-0.3,0.3c0,0,0,0,0,0h-0.5c-0.1,0-0.1,0-0.2-0.1
			c0-0.1-0.1-0.1-0.1-0.2v-0.5c-0.2,0.3-0.5,0.5-0.8,0.7c-0.4,0.2-0.8,0.3-1.3,0.3C99.7,66.4,99.3,66.3,99,66.2z M101.7,65
			c0.4-0.4,0.5-1,0.5-1.5v-0.3l-1.4,0.2c-0.5,0-0.9,0.2-1.3,0.4C99.2,64,99,64.2,99,64.5c0,0.3,0.1,0.6,0.4,0.8
			c0.3,0.2,0.6,0.3,1,0.3C100.9,65.5,101.3,65.3,101.7,65z"/>
		<path class="st2" d="M105.1,66.2c-0.1-0.1-0.1-0.1-0.1-0.2v-5.7c0-0.1,0-0.1,0.1-0.2c0-0.1,0.1-0.1,0.2-0.1h0.5
			c0.1,0,0.1,0,0.2,0.1c0.1,0.1,0.1,0.1,0.1,0.2v0.5c0.2-0.3,0.5-0.5,0.8-0.7c0.4-0.2,0.8-0.3,1.2-0.2c0.7,0,1.3,0.2,1.8,0.7
			c0.5,0.6,0.7,1.3,0.6,2V66c0,0.1-0.1,0.3-0.3,0.3c0,0,0,0,0,0h-0.6c-0.1,0-0.3-0.1-0.3-0.3c0,0,0,0,0,0v-3.3c0-0.5-0.1-1-0.4-1.3
			c-0.3-0.3-0.7-0.5-1.2-0.5c-0.5,0-0.9,0.2-1.2,0.5c-0.3,0.4-0.5,0.9-0.5,1.3V66c0,0.1,0,0.1-0.1,0.2c0,0.1-0.1,0.1-0.2,0.1h-0.6
			C105.2,66.3,105.1,66.3,105.1,66.2z"/>
		<path class="st2" d="M112.2,58.8c-0.1-0.1-0.1-0.1-0.1-0.2V58c0-0.1,0-0.1,0.1-0.2c0.1-0.1,0.1-0.1,0.2-0.1h0.7
			c0.1,0,0.2,0,0.2,0.1c0.1,0.1,0.1,0.1,0.1,0.2v0.6c0,0.1,0,0.1-0.1,0.2c-0.1,0-0.1,0.1-0.2,0.1h-0.7
			C112.4,58.9,112.3,58.9,112.2,58.8z M112.3,66.2c0-0.1-0.1-0.1-0.1-0.2v-5.7c0-0.1,0-0.1,0.1-0.2c0.1-0.1,0.1-0.1,0.2-0.1h0.5
			c0.1,0,0.1,0,0.2,0.1c0.1,0.1,0.1,0.1,0.1,0.2V66c0,0.1,0,0.1-0.1,0.2c-0.1,0.1-0.1,0.1-0.2,0.1h-0.5
			C112.4,66.3,112.4,66.3,112.3,66.2z"/>
		<path class="st2" d="M115.6,65.7c-0.5-0.6-0.8-1.3-0.8-2.1v-0.8c0-0.8,0.3-1.5,0.8-2.1c0.5-0.5,1.3-0.8,2-0.8c0.8,0,1.5,0.3,2,0.8
			c0.5,0.6,0.8,1.5,0.7,2.3v0.2c0,0.1,0,0.1-0.1,0.2c-0.1,0.1-0.1,0.1-0.2,0.1h-4.2v0.1c0,0.5,0.2,1,0.5,1.3
			c0.3,0.4,0.7,0.6,1.2,0.6c0.3,0,0.6-0.1,0.9-0.2c0.2-0.1,0.4-0.3,0.5-0.5c0-0.1,0.1-0.1,0.2-0.2c0.1,0,0.1,0,0.2,0h0.5
			c0.1,0,0.1,0,0.2,0.1c0.1,0,0.1,0.1,0.1,0.2c0,0.2-0.1,0.5-0.3,0.6c-0.3,0.3-0.6,0.5-0.9,0.6c-0.4,0.2-0.9,0.3-1.4,0.3
			C116.9,66.5,116.2,66.2,115.6,65.7z M119.3,62.8L119.3,62.8c0-0.5-0.1-1-0.5-1.4c-0.6-0.7-1.7-0.7-2.4-0.1c0,0-0.1,0-0.1,0.1
			c-0.3,0.4-0.5,0.9-0.4,1.4l0,0H119.3z"/>
		<path class="st2" d="M122.6,66.2c-0.3-0.1-0.6-0.4-0.8-0.6c-0.2-0.2-0.3-0.4-0.3-0.6c0-0.1,0-0.1,0.1-0.2c0.1,0,0.1-0.1,0.2-0.1
			h0.5c0,0,0.1,0,0.1,0c0,0,0.1,0.1,0.1,0.1c0.2,0.2,0.4,0.4,0.6,0.5c0.3,0.1,0.6,0.2,0.9,0.2c0.3,0,0.7-0.1,1-0.2
			c0.2-0.1,0.4-0.4,0.4-0.7c0-0.2-0.1-0.3-0.2-0.5c-0.2-0.1-0.4-0.3-0.6-0.3c-0.4-0.1-0.8-0.2-1.2-0.3c-0.5-0.1-1-0.3-1.5-0.7
			c-0.3-0.3-0.4-0.7-0.4-1.1c0-0.3,0.1-0.6,0.3-0.9c0.2-0.3,0.5-0.5,0.8-0.7c0.4-0.2,0.8-0.3,1.2-0.3c0.4,0,0.9,0.1,1.3,0.2
			c0.3,0.1,0.6,0.3,0.8,0.6c0.1,0.2,0.2,0.3,0.3,0.6c0,0.1,0,0.1-0.1,0.2c0,0.1-0.1,0.1-0.2,0.1h-0.5c-0.1,0-0.2-0.1-0.2-0.1
			c-0.1-0.1-0.2-0.2-0.3-0.3c-0.1-0.1-0.3-0.2-0.4-0.2c-0.2-0.1-0.4-0.1-0.7-0.1c-0.3,0-0.6,0.1-0.9,0.2c-0.2,0.2-0.3,0.4-0.3,0.7
			c0,0.2,0,0.3,0.1,0.4c0.1,0.1,0.3,0.3,0.5,0.3c0.4,0.1,0.7,0.2,1.1,0.3c0.6,0.1,1.1,0.3,1.6,0.7c0.3,0.3,0.5,0.7,0.5,1.1
			c0,0.3-0.1,0.7-0.3,0.9c-0.2,0.3-0.5,0.5-0.9,0.7c-0.4,0.2-0.9,0.3-1.4,0.2C123.5,66.4,123,66.3,122.6,66.2z"/>
		<path class="st1" d="M21.2,77.2h63.4c1.5,0,2.8,1.2,2.8,2.8v13.9c0,1.5-1.2,2.8-2.8,2.8H21.2c-1.5,0-2.8-1.2-2.8-2.8V80
			C18.5,78.4,19.7,77.2,21.2,77.2z"/>
		<path class="st2" d="M27.2,90.3c0,0-0.1-0.1-0.1-0.2v-6.5c0-0.1,0-0.1,0.1-0.2c0,0,0.1-0.1,0.2-0.1h1c0.1,0,0.1,0,0.2,0.1
			c0,0,0.1,0.1,0.1,0.2v6.5c0,0.1,0,0.1-0.1,0.2c0,0-0.1,0.1-0.2,0.1h-1C27.3,90.3,27.3,90.3,27.2,90.3z"/>
		<path class="st2" d="M30.1,90.3c-0.1,0-0.1-0.1-0.1-0.2v-4.7c0-0.1,0-0.1,0.1-0.2c0,0,0.1-0.1,0.2-0.1h0.8c0.1,0,0.1,0,0.2,0.1
			c0,0,0.1,0.1,0.1,0.2v0.4c0.4-0.5,1-0.8,1.7-0.8c0.6,0,1.1,0.2,1.5,0.6c0.4,0.5,0.6,1.1,0.5,1.7v2.8c0,0.1,0,0.1-0.1,0.2
			c0,0-0.1,0.1-0.2,0.1h-0.9c-0.1,0-0.1,0-0.2-0.1c0,0-0.1-0.1-0.1-0.2v-2.8c0-0.3-0.1-0.6-0.3-0.9c-0.2-0.2-0.5-0.4-0.8-0.3
			c-0.3,0-0.6,0.1-0.8,0.3c-0.2,0.2-0.3,0.6-0.3,0.9v2.8c0,0.1,0,0.1-0.1,0.2c0,0-0.1,0.1-0.2,0.1h-0.9
			C30.2,90.3,30.1,90.3,30.1,90.3z"/>
		<path class="st2" d="M37.7,90.3c-0.1-0.1-0.1-0.1-0.1-0.2l-1.9-4.6c0,0,0,0,0-0.1c0-0.1,0-0.1,0.1-0.2c0,0,0.1-0.1,0.1-0.1h0.8
			c0.1,0,0.2,0.1,0.3,0.2l1.3,3.5l1.3-3.5c0,0,0.1-0.1,0.1-0.1c0,0,0.1-0.1,0.2-0.1h0.8c0.1,0,0.1,0,0.2,0.1c0,0,0.1,0.1,0.1,0.2
			c0,0,0,0.1,0,0.1l-1.9,4.6c0,0.2-0.2,0.3-0.4,0.2H38C37.9,90.4,37.8,90.3,37.7,90.3z"/>
		<path class="st2" d="M42.2,89.8c-0.5-0.5-0.7-1.1-0.7-1.8v-0.2c0-0.7,0.2-1.4,0.7-2c0.5-0.5,1.1-0.8,1.8-0.7
			c0.7,0,1.4,0.2,1.8,0.7c0.4,0.5,0.7,1.2,0.6,1.9v0.2c0,0.1,0,0.1-0.1,0.2c0,0.1-0.1,0.1-0.2,0.1h-3.3v0.1c0,0.3,0.1,0.7,0.3,0.9
			c0.2,0.2,0.5,0.4,0.8,0.4c0.4,0,0.7-0.2,0.9-0.5c0,0,0.1-0.1,0.1-0.1c0.1,0,0.1,0,0.2,0H46c0.1,0,0.1,0,0.2,0.1
			c0,0,0.1,0.1,0.1,0.1c0,0.2-0.1,0.4-0.3,0.6c-0.2,0.2-0.5,0.4-0.8,0.6c-0.4,0.2-0.8,0.2-1.2,0.2C43.2,90.5,42.6,90.2,42.2,89.8z
			 M45,87.3L45,87.3c0-0.3-0.1-0.7-0.3-0.9c-0.2-0.2-0.5-0.4-0.8-0.4c-0.3,0-0.6,0.1-0.8,0.4c-0.2,0.3-0.3,0.6-0.3,0.9l0,0H45z"/>
		<path class="st2" d="M48.2,90.2c-0.3-0.1-0.5-0.3-0.8-0.5c-0.1-0.1-0.2-0.3-0.2-0.5c0-0.1,0-0.1,0.1-0.2c0,0,0.1-0.1,0.2-0.1h0.8
			c0.1,0,0.1,0,0.1,0.1l0.2,0.2c0.1,0.1,0.3,0.2,0.4,0.2c0.2,0.1,0.3,0.1,0.5,0.1c0.2,0,0.5,0,0.7-0.2c0.2-0.1,0.3-0.3,0.2-0.4
			c0-0.1,0-0.2-0.1-0.3c-0.1-0.1-0.3-0.2-0.4-0.2c-0.3-0.1-0.6-0.2-0.9-0.2c-0.5-0.1-0.9-0.3-1.2-0.6c-0.3-0.3-0.4-0.6-0.4-1
			c0-0.3,0.1-0.5,0.2-0.8c0.2-0.3,0.4-0.5,0.7-0.6c0.4-0.2,0.7-0.3,1.1-0.2c0.4,0,0.8,0.1,1.2,0.2c0.3,0.1,0.5,0.3,0.8,0.5
			c0.1,0.1,0.2,0.3,0.2,0.5c0,0.1-0.1,0.2-0.2,0.2c0,0,0,0,0,0h-0.8c-0.1,0-0.1,0-0.2-0.1l-0.2-0.2c-0.1-0.1-0.2-0.2-0.3-0.2
			c-0.1-0.1-0.3-0.1-0.5-0.1c-0.2,0-0.4,0.1-0.6,0.2c-0.1,0.1-0.2,0.3-0.2,0.4c0,0.1,0,0.2,0.1,0.3c0.1,0.1,0.2,0.2,0.4,0.2
			c0.3,0.1,0.6,0.2,0.9,0.2c1.2,0.2,1.8,0.8,1.8,1.6c0,0.5-0.2,0.9-0.6,1.2c-0.5,0.3-1.1,0.5-1.7,0.4C49,90.5,48.6,90.4,48.2,90.2z"
			/>
		<path class="st2" d="M53.8,89.9c-0.3-0.4-0.5-0.9-0.5-1.4v-2.3h-0.8c-0.1,0-0.1,0-0.2-0.1c0,0-0.1-0.1-0.1-0.2v-0.6
			c0-0.1,0.1-0.2,0.2-0.2h0.8v-1.7c0-0.1,0-0.1,0.1-0.2c0,0,0.1-0.1,0.2-0.1h0.8c0.1,0,0.1,0,0.2,0.1c0,0,0.1,0.1,0.1,0.2v1.7h1.2
			c0.1,0,0.1,0,0.2,0.1c0,0,0.1,0.1,0.1,0.2V86c0,0.1-0.1,0.2-0.2,0.2h-1.3v2.2c0,0.2,0,0.5,0.2,0.7c0.1,0.2,0.3,0.2,0.5,0.2h0.7
			c0.1,0,0.1,0,0.2,0.1c0,0,0.1,0.1,0.1,0.2v0.6c0,0.1,0,0.1-0.1,0.2c0,0-0.1,0.1-0.2,0.1h-0.8C54.6,90.4,54.1,90.2,53.8,89.9z"/>
		<path class="st2" d="M59.5,90.3c0,0-0.1-0.1-0.1-0.2v-6.5c0-0.1,0.1-0.2,0.2-0.2c0,0,0,0,0,0h0.8c0.1,0,0.2,0.1,0.3,0.2l2.9,4.5
			v-4.4c0-0.1,0.1-0.2,0.2-0.2c0,0,0,0,0,0h0.9c0.1,0,0.1,0,0.2,0.1c0,0,0.1,0.1,0.1,0.2v6.5c0,0.1,0,0.1-0.1,0.2
			c0,0-0.1,0.1-0.2,0.1H64c-0.1,0-0.2-0.1-0.3-0.2l-2.8-4.3v4.3c0,0.1,0,0.1-0.1,0.2c0,0-0.1,0.1-0.2,0.1h-0.9
			C59.7,90.4,59.6,90.3,59.5,90.3z"/>
		<path class="st2" d="M66.9,89.8c-0.4-0.4-0.7-1-0.7-1.7v-0.9c0-0.6,0.3-1.2,0.7-1.7c0.5-0.4,1.1-0.7,1.8-0.7
			c0.7,0,1.3,0.2,1.8,0.6c0.5,0.4,0.7,1,0.7,1.7c0,0.1,0,0.2,0,0.4s0,0.4,0,0.4c0,0.6-0.2,1.2-0.7,1.7c-0.5,0.4-1.2,0.6-1.8,0.6
			C68.1,90.5,67.4,90.3,66.9,89.8z M69.6,89.1c0.2-0.3,0.3-0.6,0.3-1c0-0.1,0-0.3,0-0.4c0-0.1,0-0.3,0-0.4c0-0.4-0.1-0.7-0.3-1
			C69.3,86.1,69,86,68.7,86c-0.3,0-0.6,0.1-0.8,0.3c-0.2,0.3-0.3,0.6-0.3,1v0.8c0,0.4,0.1,0.7,0.3,1c0.2,0.2,0.5,0.4,0.8,0.3
			C69,89.5,69.3,89.3,69.6,89.1z"/>
		<path class="st2" d="M73.3,90.1l-1.4-4.6c0,0,0,0,0-0.1c0-0.1,0-0.1,0.1-0.2c0,0,0.1-0.1,0.2-0.1h0.8c0.1,0,0.1,0,0.2,0.1
			c0,0,0.1,0.1,0.1,0.1l1,3.3l1-3.3c0-0.1,0.1-0.1,0.1-0.2c0.1,0,0.1-0.1,0.2-0.1h0.5c0.1,0,0.1,0,0.2,0.1c0,0,0.1,0.1,0.1,0.2
			l1,3.3l1-3.3c0,0,0.1-0.1,0.1-0.1c0.1,0,0.1-0.1,0.2-0.1h0.8c0.1,0,0.1,0,0.2,0.1c0,0,0.1,0.1,0.1,0.2v0.1L78,90.1
			c0,0.1-0.1,0.1-0.1,0.2c-0.1,0-0.1,0.1-0.2,0.1H77c-0.2,0-0.3-0.1-0.3-0.2l-1-3.1l-1,3.1c0,0.2-0.2,0.3-0.3,0.2h-0.7
			C73.5,90.4,73.3,90.3,73.3,90.1z"/>
		<g class="st3">
			<g>
				<defs>
					<path id="SVGID_2_" d="M195.1,107.5L195.1,107.5v3.1h-7.5V97.9l0,0v-8.6h7.5V107.5z M196.7,97.9L196.7,97.9v12.7h7.5V82.4h-7.5
						V97.9z M213.3,80.4h-7.5v17.4l0,0v12.7h7.5v-22l0,0V80.4z M222.4,74.5h-7.5v23.4l0,0v12.7h7.5V92.2l0,0V74.5z M231.6,78H224
						v19.9l0,0v12.7h7.5V85.8l0,0L231.6,78z M240.7,71.4h-7.5v26.5l0,0v12.7h7.5v0.4l0,0V71.4z M249.8,63.3h-7.5v34.6l0,0v12.7h7.5
						V91.3l0,0V63.3z"/>
				</defs>
				<clipPath id="SVGID_3_">
					<use xlink:href="#SVGID_2_"  style="overflow:visible;"/>
				</clipPath>
				<g class="st4">
					<rect x="177.3" y="63.1" class="st5" width="78.8" height="0.3"/>
					<rect x="177.3" y="64.4" class="st5" width="78.8" height="0.3"/>
					<rect x="177.3" y="65.7" class="st5" width="78.8" height="0.3"/>
					<rect x="177.3" y="66.9" class="st5" width="78.8" height="0.3"/>
					<rect x="177.3" y="68.2" class="st5" width="78.8" height="0.3"/>
					<rect x="177.3" y="69.4" class="st5" width="78.8" height="0.3"/>
					<rect x="177.3" y="70.7" class="st5" width="78.8" height="0.3"/>
					<rect x="177.3" y="72" class="st5" width="78.8" height="0.3"/>
					<rect x="177.3" y="73.2" class="st5" width="78.8" height="0.3"/>
					<rect x="177.3" y="74.5" class="st5" width="78.8" height="0.3"/>
					<rect x="177.3" y="75.8" class="st5" width="78.8" height="0.3"/>
					<rect x="177.3" y="77.1" class="st5" width="78.8" height="0.3"/>
					<rect x="177.3" y="78.3" class="st5" width="78.8" height="0.3"/>
					<rect x="177.3" y="79.6" class="st5" width="78.8" height="0.3"/>
					<rect x="177.3" y="80.8" class="st5" width="78.8" height="0.3"/>
					<rect x="177.3" y="82.1" class="st5" width="78.8" height="0.3"/>
					<rect x="177.3" y="83.4" class="st5" width="78.8" height="0.3"/>
					<rect x="177.3" y="84.6" class="st5" width="78.8" height="0.3"/>
					<rect x="177.3" y="85.9" class="st5" width="78.8" height="0.3"/>
					<rect x="177.3" y="87.2" class="st5" width="78.8" height="0.3"/>
					<rect x="177.3" y="88.4" class="st5" width="78.8" height="0.3"/>
					<rect x="177.3" y="89.7" class="st5" width="78.8" height="0.3"/>
					<rect x="177.3" y="91" class="st5" width="78.8" height="0.3"/>
					<rect x="177.3" y="92.2" class="st5" width="78.8" height="0.3"/>
					<rect x="177.3" y="93.5" class="st5" width="78.8" height="0.3"/>
					<rect x="177.3" y="94.8" class="st5" width="78.8" height="0.3"/>
					<rect x="177.3" y="96" class="st5" width="78.8" height="0.3"/>
					<rect x="177.3" y="97.3" class="st5" width="78.8" height="0.3"/>
					<rect x="177.3" y="98.6" class="st5" width="78.8" height="0.3"/>
					<rect x="177.3" y="99.8" class="st5" width="78.8" height="0.3"/>
					<rect x="177.3" y="101.1" class="st5" width="78.8" height="0.3"/>
					<rect x="177.3" y="102.4" class="st5" width="78.8" height="0.3"/>
					<rect x="177.3" y="103.6" class="st5" width="78.8" height="0.3"/>
					<rect x="177.3" y="104.9" class="st5" width="78.8" height="0.3"/>
					<rect x="177.3" y="106.2" class="st5" width="78.8" height="0.3"/>
					<rect x="177.3" y="107.4" class="st5" width="78.8" height="0.3"/>
					<rect x="177.3" y="108.7" class="st5" width="78.8" height="0.3"/>
					<rect x="177.3" y="110" class="st5" width="78.8" height="0.3"/>
					<rect x="177.3" y="111.2" class="st5" width="78.8" height="0.3"/>
					<rect x="177.3" y="112.5" class="st5" width="78.8" height="0.3"/>
					<rect x="177.3" y="113.8" class="st5" width="78.8" height="0.3"/>
					<rect x="177.3" y="115" class="st5" width="78.8" height="0.3"/>
					<rect x="177.3" y="116.3" class="st5" width="78.8" height="0.3"/>
					<rect x="177.3" y="117.6" class="st5" width="78.8" height="0.3"/>
					<rect x="177.3" y="118.8" class="st5" width="78.8" height="0.3"/>
				</g>
			</g>
		</g>
		
			<linearGradient id="SVGID_4_" gradientUnits="userSpaceOnUse" x1="198.9" y1="12.08" x2="239.26" y2="12.08" gradientTransform="matrix(1 0 0 -1 0 122)">
			<stop  offset="2.000000e-02" style="stop-color:#675AF5"/>
			<stop  offset="0.17" style="stop-color:#6051E9"/>
			<stop  offset="0.45" style="stop-color:#4E3AC8"/>
			<stop  offset="0.81" style="stop-color:#301593"/>
			<stop  offset="1" style="stop-color:#1F0075"/>
		</linearGradient>
		<ellipse class="st6" cx="219.1" cy="109.9" rx="20.2" ry="1.3"/>
		<path class="st2" d="M254.6,92.3v12.8c0.1,0.7-0.4,1.2-1.1,1.3h-18.8c-0.7-0.1-1.1-0.6-1.1-1.3V92.3c0-0.6,0.4-1.2,1.1-1.3h18.8
			C254.2,91.1,254.6,91.6,254.6,92.3z"/>
		<path class="st7" d="M235.8,92.4c0,0.2-0.2,0.4-0.4,0.4c-0.2,0-0.4-0.2-0.4-0.4s0.2-0.4,0.4-0.4c0,0,0,0,0,0
			C235.6,91.9,235.8,92.1,235.8,92.4C235.8,92.4,235.8,92.4,235.8,92.4z"/>
		<circle class="st7" cx="237" cy="92.4" r="0.4"/>
		<circle class="st7" cx="238.6" cy="92.4" r="0.4"/>
		<polygon class="st7" points="248.2,94.1 248.2,95.3 250.7,95.3 246.8,99.1 244.7,97 241.2,100.6 239.3,98.7 235.7,102.4 
			236.5,103.2 239.3,100.4 241.2,102.3 244.7,98.7 246.8,100.8 251.4,96.3 251.4,98.5 252.6,98.5 252.6,94.1 		"/>
		<path class="st2" d="M202.3,30.6c0.1,0.8-0.5,1.6-1.4,1.7l0,0c0.8,0.1,1.4,0.8,1.4,1.7c-0.1-0.8,0.5-1.6,1.4-1.7l0,0
			C202.8,32.1,202.2,31.4,202.3,30.6z"/>
		<path class="st2" d="M206.1,29.3c0.1,0.8-0.5,1.6-1.4,1.7l0,0c0.8,0.1,1.4,0.8,1.4,1.7c-0.1-0.8,0.5-1.6,1.4-1.7l0,0
			C206.6,30.9,206,30.2,206.1,29.3z"/>
		<path class="st2" d="M204.3,33.5c0,0.4-0.3,0.7-0.6,0.8l0,0c-0.1,0.4,0.2,0.7,0.5,0.8c0.4,0.1,0.7-0.2,0.8-0.5c0-0.1,0-0.2,0-0.2
			l0,0C204.5,34.2,204.3,33.9,204.3,33.5z"/>
		<path class="st2" d="M203.6,28.1c0,0.5-0.3,0.9-0.8,1l0,0c-0.1,0.5,0.2,0.9,0.6,1c0.5,0.1,0.9-0.2,1-0.6c0-0.1,0-0.2,0-0.4l0,0
			C203.9,29.1,203.6,28.6,203.6,28.1z"/>
		<path class="st2" d="M254.7,53v19.6c0.1,1-0.6,1.9-1.6,2c0,0,0,0,0,0h-28.7c-1-0.1-1.8-1-1.7-2c0,0,0,0,0,0V53
			c-0.1-1,0.6-1.9,1.7-2H253C254,51.1,254.8,52,254.7,53C254.7,53,254.7,53,254.7,53z"/>
		<rect x="228.5" y="65.3" class="st7" width="3.6" height="6.1"/>
		<rect x="234.1" y="61.4" class="st7" width="3.6" height="10.1"/>
		<rect x="239.7" y="57.3" class="st7" width="3.6" height="14.2"/>
		<rect x="245.3" y="54.1" class="st7" width="3.6" height="17.3"/>
		<path class="st7" d="M226,53.1c0,0.4-0.3,0.6-0.7,0.6c-0.4,0-0.6-0.3-0.6-0.7s0.3-0.6,0.7-0.6l0,0C225.7,52.5,226,52.8,226,53.1z"
			/>
		<path class="st7" d="M228.4,53.1c0,0.4-0.3,0.6-0.7,0.6c-0.4,0-0.6-0.3-0.6-0.7s0.3-0.6,0.7-0.6c0,0,0,0,0,0
			C228.1,52.5,228.4,52.8,228.4,53.1z"/>
		<path class="st7" d="M230.9,53.1c0,0.4-0.3,0.6-0.7,0.6c-0.4,0-0.6-0.3-0.6-0.7s0.3-0.6,0.7-0.6l0,0
			C230.6,52.5,230.9,52.8,230.9,53.1z"/>
		<g class="st8">
			<path class="st2" d="M144.2,63.2h62.3c1.8,0.2,3.1,1.7,2.9,3.5v12.6l4.6,2.3l-4.6,2.3V87c0.1,1.8-1.2,3.3-2.9,3.5h-62.3
				c-1.8-0.2-3.1-1.7-2.9-3.5V66.6C141.1,64.9,142.4,63.3,144.2,63.2z"/>
		</g>
		<path class="st9" d="M176.4,72.1c0.1,1.8,0.1,3.6,0.2,5.3c0,0.5-0.1,0.8-0.7,0.8c-1.7,0-1.7,0-1.7-1.7c0-2.2,0-4.4,0-6.6
			c0-0.6,0.1-0.7,0.7-0.7c0.9,0,1.7,0,2.6,0c0.3-0.1,0.7,0.2,0.7,0.5c0,0,0,0,0,0c0.5,1.7,1,3.3,1.6,5.2c0.5-1.8,1-3.3,1.4-4.9
			c0.2-0.7,0.4-1,1.2-0.9c0.8,0.1,1.7,0.1,2.5,0c0.4,0,0.5,0.1,0.5,0.5c0,2.7,0,5.3,0,7.9c0,0.4-0.1,0.5-0.5,0.5
			c-1.9,0.1-1.9,0.1-1.8-1.8c0-1.6,0-3.2,0-4.8c-0.4,1.1-0.8,2.2-1.2,3.4c-0.3,0.8-0.6,1.7-0.8,2.6c-0.1,0.4-0.4,0.6-0.8,0.6
			c-1.4,0-1.4,0-1.9-1.4c-0.5-1.6-1.1-3.2-1.6-4.7c0-0.3-0.1-0.5-0.3-0.7L176.4,72.1z"/>
		<path class="st10" d="M160.3,69.2c0.8,0,1.7,0,2.5,0.2c0.9,0.4,1.4,1.3,1.3,2.3c0,0.2-0.1,0.3-0.3,0.3h-1.6
			c-0.2,0-0.2-0.1-0.3-0.2c-0.6-0.7-1.6-0.9-2.5-0.5c-0.3,0.2-0.3,0.5-0.2,0.8c0,0.3,0.3,0.6,0.6,0.6c0,0,0,0,0,0
			c0.7,0.1,1.4,0.1,2.1,0.2c2.2,0.3,2.7,0.9,2.5,3.2c0,1-0.7,1.9-1.7,2c-1.3,0.3-2.7,0.3-4,0.1c-1.2-0.1-2-1.2-1.9-2.3
			c0,0,0-0.1,0-0.1c0-0.1,0-0.2,0-0.2c0.5-0.4,1-0.1,1.5-0.2c0.2,0,0.6-0.2,0.7,0.3s0.6,0.7,1,0.7c0.5,0,0.9,0,1.4-0.1
			c0.4-0.1,0.7-0.4,0.6-0.8c0,0,0,0,0,0c0-0.4-0.2-0.7-0.6-0.7c-0.9-0.1-1.7-0.1-2.5-0.2c-1.6-0.2-2.1-0.8-2.1-2.4
			c0-0.2,0-0.4,0-0.7c-0.1-1.1,0.8-2.1,1.9-2.1c0,0,0.1,0,0.1,0C159.3,69.2,159.8,69.2,160.3,69.2z"/>
		<path class="st11" d="M203.5,71.9c0.1,1.2,0.1,2.4,0,3.6h-0.1c0,0,0,0.1,0.1,0.1c-0.1,1.1-0.9,2.1-2,2.3c-1.3,0.3-2.6,0.3-3.9,0
			c-1.1-0.2-1.9-1-2-2.1c-0.2-1.4-0.2-2.7,0-4.1c0.2-1.5,1.1-2.3,2.8-2.4c0.8-0.1,1.6-0.1,2.4,0c1.6,0.2,2.7,1,2.7,2.3
			C203.3,71.7,203.3,71.8,203.5,71.9z M201.2,75c0.3-0.9,0.3-1.8,0-2.6c0-1.1-0.9-1.3-2.6-1.1c-0.4,0.1-0.7,0.4-0.7,0.9c0,1,0,2,0,3
			c0,0.3,0.1,0.5,0.3,0.7c0.9,0.6,2.1,0.4,2.8-0.5C201,75.3,201.1,75.1,201.2,75z"/>
		<path class="st10" d="M173.6,78.2c-0.4,0-0.7,0-1.1,0c-0.9,0.1-1.5,0-1.6-1.1c0-0.4-0.3-0.5-0.6-0.5c-0.7,0-1.4,0-2.1,0
			c-0.6,0-0.8,0.2-0.9,0.7c-0.1,0.7-0.4,1-1.1,0.9c-0.5,0-1,0-1.6,0c0.9-2.9,1.7-5.7,2.6-8.5c0-0.2,0.3-0.4,0.5-0.4
			c0.9,0,1.9,0,2.8,0c0.3,0,0.5,0.1,0.5,0.4c0.8,2.8,1.7,5.6,2.5,8.4C173.6,78.1,173.6,78.1,173.6,78.2z M169.2,71
			c-0.4,1.3-0.7,2.4-1,3.6c-0.1,0.2,0,0.4,0.2,0.4h1.9L169.2,71z"/>
		<path class="st12" d="M194.2,71.7v0.5l-0.2,0.2h-2l-0.2-0.2c-0.1-1.1-0.9-1-1.9-1s-1,0.7-1,1.4s0,1.4,0,2c0,1.1,0.3,1.4,1.4,1.4
			c0.5,0,1,0.1,1.4-0.4c0.4,0,0.2-0.7,0.9-0.7c0.8,0,1.5,0,1.6,1l-0.1,0.3c-0.3,0.1-0.2,0.3-0.2,0.6c-0.5,0.9-1.5,1.4-2.5,1.2
			c-0.8,0-1.6,0-2.4,0c-1.3,0-2.3-1.1-2.3-2.3c0,0,0-0.1,0-0.1c-0.1-1.1-0.1-2.2,0-3.3c0-1.9,0.8-2.8,2.8-3c0.9-0.1,1.9-0.1,2.8,0
			c1.4,0.1,1.9,0.7,2.1,2.1C194.1,71.5,194.1,71.6,194.2,71.7z"/>
		<path class="st13" d="M155.1,69.7c0,0.6-0.8,1.2-1.6,1.2c-0.9-0.1-1.6,0.5-1.9,1.3c-0.1,0.4-0.2,0.7,0.5,0.8c2,0.1,2.9,1.2,3,3.2
			c0,0.5,0,0.9,0,1.4s-0.2,0.5-0.6,0.3c-0.6-0.3-0.9-0.9-0.9-1.6c0.1-0.9-0.6-1.8-1.6-1.9c-0.4,0-0.5,0-0.5,0.4
			c-0.2,2.2-1.2,3.1-3.4,3.1c-0.4,0-0.7,0-1.1,0c-0.7,0.1-0.7-0.3-0.4-0.7c0.3-0.5,0.9-0.9,1.5-0.8c0.9,0.1,1.7-0.5,1.9-1.4
			c0.1-0.4,0.1-0.6-0.5-0.7c-2-0.2-3-1.2-3-3.2c0-0.4,0-0.8,0-1.2c0-0.2-0.1-0.5,0.1-0.6s0.5,0,0.8,0.2c0.4,0.3,0.6,0.8,0.6,1.4
			c-0.1,0.9,0.6,1.8,1.6,1.9c0.4,0,0.5,0,0.5-0.5c0.1-2.1,1.2-3,3.3-3c0.5,0,1,0,1.5,0C154.9,69.4,155.1,69.4,155.1,69.7z"/>
		<path class="st14" d="M150.8,82.1c-0.3,0.8-0.6,1.6-0.8,2.3c0,0.3-0.3,0.5-0.6,0.5c0,0,0,0,0,0c-0.4,0-0.6,0-0.8-0.4
			c-0.3-1-0.7-2-1.1-2.9c0,0.9,0.1,1.8,0.1,2.8c0,0.4-0.1,0.6-0.6,0.6s-0.8,0.1-0.8-0.6c0-1.2,0-2.5,0-3.7c0-0.4,0.1-0.6,0.5-0.5
			h0.1c1.4-0.1,1.4-0.1,1.8,1.3l0.5,1.6c0.3-0.7,0.6-1.5,0.7-2.2c0.1-0.5,0.3-0.8,0.9-0.7c0.2,0,0.4,0,0.6,0
			c0.6-0.1,0.9,0.1,0.8,0.8c-0.1,1.1-0.1,2.2,0,3.4c0,0.7-0.3,0.6-0.8,0.6s-0.5-0.3-0.5-0.7c0-0.6,0.1-1.2,0.1-1.8l0.1-1H151
			L150.8,82.1z"/>
		<path class="st14" d="M197.7,84.8c-0.6,0.3-1.3,0.1-2,0.1c-0.2,0-0.3-0.3-0.4-0.5c-0.3-0.9-0.7-1.8-1.1-2.7c0,0.8,0,1.7,0,2.5
			c0,0.5-0.1,0.7-0.6,0.7s-0.7-0.2-0.7-0.7c0-1.2,0-2.3,0-3.5c0-0.5,0.2-0.6,0.6-0.6c1.5,0,1.5,0,2,1.4c0.2,0.7,0.5,1.3,0.9,2.2
			c0-1,0-1.8,0-2.7c0-1,0.2-1.2,1.2-0.7C197.4,81.8,197.4,83.3,197.7,84.8z"/>
		<path class="st14" d="M199.2,82.6C199.2,82.6,199.2,82.5,199.2,82.6c-0.1-0.8,0-1.6,0.1-2.3c1.1-0.2,2.2-0.1,3.3,0.2
			c1.3,0.6,0.8,1.9,0.9,2.9c0.1,0.7-0.3,1.4-1,1.5c-1,0.1-2,0.2-3,0.1c-0.3,0-0.3-0.3-0.3-0.5C199.2,83.8,199.2,83.2,199.2,82.6z
			 M200.5,82.6v0.3c0,0.5-0.2,1,0.7,1s1.1-0.2,1-1c0-0.2,0-0.4,0-0.6c0.1-0.8-0.3-1-1.1-1s-0.6,0.5-0.7,1L200.5,82.6z"/>
		<path class="st14" d="M164,82.1c0-0.4,0-0.7,0-1.1s-0.2-0.9,0.6-0.9s0.7,0.5,0.7,1c0,0.7,0,1.4,0,2.1s0.3,0.7,0.8,0.7
			s0.8-0.1,0.8-0.7c0-0.8,0-1.7,0-2.5c0-0.5,0.2-0.6,0.6-0.6s0.7,0,0.7,0.5c0,0.9,0,1.9,0,2.8s-0.5,1.4-1.4,1.4
			C164.3,85.1,164,84.8,164,82.1z"/>
		<path class="st14" d="M187.3,82.1c0-0.4,0-0.8,0-1.2s0-0.8,0.6-0.8s0.7,0.3,0.7,0.8c0,0.7,0,1.5,0,2.2c0,0.6,0.2,0.7,0.8,0.7
			s0.8-0.2,0.8-0.8c0-0.8,0-1.6,0-2.4c0-0.5,0.2-0.6,0.6-0.6s0.7,0,0.7,0.5c0,0.9,0,1.9,0,2.8c0.1,0.7-0.5,1.4-1.2,1.5
			c-0.1,0-0.2,0-0.3,0C187.6,85.1,187.3,84.8,187.3,82.1z"/>
		<path class="st11" d="M171.6,80.2c0.8-0.3,1,0.2,1.2,0.9c0.3,1.1,0.6,2.1,0.9,3.2c0.1,0.2,0.4,0.6,0,0.7s-0.8,0.3-1.1-0.2
			c-0.3-0.6-1-0.7-1.6-0.4c-0.2,0.1-0.3,0.2-0.4,0.4c-0.3,0.5-0.8,0.3-1.1,0.2s-0.1-0.4-0.1-0.7c0.3-1.1,0.6-2.1,0.9-3.2
			C170.5,80.4,170.8,79.9,171.6,80.2z M171.7,81.4h-0.1c-0.1,0.4-0.2,0.8-0.3,1.2c-0.1,0.2-0.3,0.5,0,0.6c0.2,0.1,0.5,0.1,0.8,0
			c0.2-0.2,0-0.4,0-0.6C171.9,82.2,171.8,81.8,171.7,81.4L171.7,81.4z"/>
		<path class="st15" d="M156.7,80.3c1.1-0.3,1.2-0.3,1.2,0.8c0,0.7,0,1.5,0,2.2c0,0.2,0,0.4,0,0.7c-0.2,0.9-1.1,1.2-2.8,1
			c-0.9-0.1-1.3-0.4-1.3-1.4s0-1.9,0-2.9c0-0.6,0.3-0.5,0.7-0.5s0.6,0,0.6,0.5c0,0.8,0,1.7,0,2.5c0,0.6,0.2,0.7,0.7,0.7
			s0.9-0.1,0.9-0.7c0-0.9,0-1.8,0-2.6C156.9,80.4,156.9,80.4,156.7,80.3z"/>
		<path class="st15" d="M182.6,84.6c-0.1-1.4-0.1-2.7,0-4.1c0.1-0.1,0.1-0.1,0-0.2c1-0.2,2-0.2,3.1-0.1c0.4,0,0.2,0.3,0.3,0.6
			s-0.1,0.5-0.4,0.5s-0.8,0-1.2,0s-0.5,0.1-0.5,0.5s0.1,0.5,0.5,0.5c0.2,0,0.4,0,0.7,0c0.4,0,0.9-0.2,0.8,0.5s-0.5,0.4-0.8,0.5
			c-0.1,0-0.2,0-0.3,0c-0.7-0.1-0.9,0.2-0.9,0.9c0,1-0.1,1.1-1.2,0.8C182.8,84.7,182.8,84.7,182.6,84.6z"/>
		<path class="st15" d="M175.1,82.7c0-0.7,0-1.3,0-1.8s0-0.8,0.6-0.8s0.7,0.3,0.7,0.8c0,0.7,0,1.5,0,2.2c0,0.6,0.2,0.7,0.7,0.7
			c0.2,0,0.5,0,0.7,0c0.4,0,0.6,0.1,0.6,0.6s-0.1,0.6-0.6,0.6c-0.1,0-0.2,0-0.3,0c-0.8,0-1.8,0.2-2.2-0.1S175.2,83.3,175.1,82.7z"/>
		<path class="st11" d="M161.5,84.8c-0.3,0.2-0.8,0.2-1.1,0c0.1-0.1,0.1-0.1,0-0.2c0-0.9-0.1-1.8,0-2.6c0-0.5-0.1-0.8-0.7-0.7
			s-0.6-0.2-0.6-0.6s0.2-0.6,0.6-0.5c0.9,0,1.8,0,2.6,0c0.4,0,0.6,0,0.6,0.5s-0.1,0.7-0.6,0.6c-0.2,0-0.5,0-0.7,0
			C161.3,82.4,161.3,83.6,161.5,84.8z"/>
		<path class="st15" d="M194.2,76c-0.1-1.1-0.8-1-1.6-1c-0.6,0-0.4,0.7-0.9,0.7c0.2-0.3-0.1-0.8,0.3-0.9c0.7-0.1,1.3-0.1,2,0
			C194.5,75,194.3,75.6,194.2,76z"/>
		<path class="st16" d="M197.7,84.8c-0.2-1.5-0.2-3,0-4.4V84.8z"/>
		<path class="st16" d="M161.5,84.8c-0.3-1.1-0.3-2.3,0-3.4V84.8z"/>
		<path class="st15" d="M193.9,76.9c0-0.2-0.1-0.5,0.2-0.6C194.2,76.6,194.1,76.8,193.9,76.9z"/>
		<path class="st16" d="M194.2,71.7c-0.2-0.1-0.2-0.2,0-0.3V71.7z"/>
		<path class="st16" d="M203.5,71.9c-0.2-0.1-0.2-0.2,0-0.3V71.9z"/>
		<path class="st16" d="M191.9,72.2l0.2,0.2C192,72.4,191.9,72.4,191.9,72.2z"/>
		<path class="st16" d="M194.1,72.4l0.2-0.2C194.3,72.4,194.2,72.4,194.1,72.4z"/>
		<path class="st16" d="M203.5,75.7c0,0,0-0.1-0.1-0.1h0.1C203.5,75.6,203.5,75.7,203.5,75.7z"/>
		<path class="st16" d="M156.7,80.3c0.1,0.1,0.1,0.1,0,0.2V80.3z"/>
		<path class="st16" d="M182.6,80.3c0.1,0.1,0.1,0.1,0,0.2V80.3z"/>
		<path class="st16" d="M160.4,84.6c0.1,0,0.1,0.1,0,0.2V84.6z"/>
		<path class="st16" d="M182.6,84.6c0.1,0.1,0.1,0.1,0,0.2V84.6z"/>
		<path class="st16" d="M201.2,75v-2.6C201.4,73.3,201.4,74.2,201.2,75z"/>
		<rect x="216.6" y="50" class="st7" width="0.5" height="26.1"/>
		<circle class="st17" cx="217.1" cy="39.1" r="11.4"/>
		<path class="st18" d="M225.8,40.1c0.2,4.8-3.6,8.8-8.4,9c-4.8,0.2-8.8-3.6-9-8.4c0-0.2,0-0.4,0-0.6c0-0.2,0-0.3,0-0.5
			c0.3,4.8,4.4,8.4,9.2,8.1c4.4-0.3,7.9-3.8,8.1-8.1C225.8,39.7,225.8,39.9,225.8,40.1z"/>
		<ellipse class="st19" cx="217.1" cy="39.6" rx="8.6" ry="8.2"/>
		<path class="st20" d="M225.8,39.1c0,0.2,0,0.4,0,0.6c-0.4-4.8-4.5-8.3-9.3-8c-4.3,0.3-7.7,3.7-8,8c0-0.2,0-0.4,0-0.6
			c0.2-4.8,4.2-8.5,9-8.4C222,30.9,225.7,34.5,225.8,39.1L225.8,39.1z"/>
		<path class="st17" d="M220,36.5h-2c0.3,0.3,0.5,0.7,0.6,1.2h1.4v0.8h-1.4c-0.2,1.2-1.3,2.1-2.5,2.1c0.9,0.9,1.9,2.2,2.9,3.4h-1.6
			c-0.8-1-1.8-2.1-2.8-3.3v-1h0.7c1.2,0,1.8-0.5,1.9-1.1h-2.7v-0.8h2.6c-0.2-0.6-0.8-0.9-1.7-0.9h-0.9v-1.1h5.5V36.5z"/>
		<path class="st7" d="M216.8,63.1c0,0,3.1-9.4,11.1-6.5C232,58,216.8,63.1,216.8,63.1z"/>
		<path class="st7" d="M216.8,63.1c0,0-4.2-11-10.8-11C199.3,52.1,216.8,63.1,216.8,63.1z"/>
		<g class="st21">
			<path class="st22" d="M216.1,62.2c-1.6-1.4-3.1-2.9-4.4-4.6c-0.3-0.4-0.6-0.8-0.9-1.3c-0.2-0.5-0.6-0.9-1.1-1.2
				c-0.5-0.2-1.1-0.3-1.6-0.4c-0.5,0-1.1-0.2-1.5-0.6c0.4,0.4,0.9,0.6,1.5,0.7c0.5,0.1,1.1,0.2,1.6,0.4c0.4,0.3,0.8,0.7,1,1.2
				c0.3,0.4,0.6,0.9,0.9,1.3c0.6,0.8,1.4,1.7,2.1,2.4C214.4,60.9,215.2,61.6,216.1,62.2z"/>
			<path class="st22" d="M207.7,56.1c0.4,0,0.9-0.1,1.3-0.2c0.2,0,0.4-0.1,0.7-0.1s0.5-0.2,0.5-0.5c-0.1-0.2-0.1-0.4-0.3-0.6
				c-0.1-0.2-0.2-0.4-0.3-0.5c-0.2-0.4-0.5-0.7-0.8-1c0.2,0.3,0.4,0.7,0.6,1.1c0.2,0.3,0.4,0.7,0.5,1.1c0,0.2-0.1,0.3-0.3,0.3
				s-0.4,0.1-0.6,0.1C208.5,55.9,208.1,56,207.7,56.1z"/>
			<path class="st22" d="M211,58.1c0.2,0.2,0.5,0.3,0.7,0.5c0.1,0.1,0.2,0.2,0.4,0.2c0.2,0.1,0.4,0.1,0.5,0c0.1-0.3,0.2-0.5,0.3-0.8
				c0-0.3,0.1-0.5,0.1-0.8c-0.1,0.3-0.1,0.5-0.2,0.8c-0.1,0.2-0.2,0.5-0.3,0.7c-0.1,0.1-0.4-0.1-0.6-0.2L211,58.1z"/>
		</g>
		<g class="st21">
			<path class="st22" d="M217.4,62.4c1.7-0.5,3.3-1.3,4.7-2.4c1.4-1.1,2.9-2.1,4.5-3c-1.6,0.7-3.1,1.7-4.5,2.8
				C220.6,60.9,219,61.8,217.4,62.4z"/>
			<path class="st22" d="M224.2,56c-0.2,0.4-0.4,0.8-0.5,1.2c-0.1,0.2-0.2,0.4-0.2,0.6c-0.1,0.2-0.2,0.5-0.2,0.7
				c0,0.3,0.3,0.5,0.6,0.5c0.2,0,0.4,0,0.6-0.1c0.4,0,0.9-0.1,1.3-0.2c-0.4,0-0.9,0-1.3,0c-0.2,0-0.4,0-0.6,0s-0.4-0.1-0.4-0.3
				c0-0.2,0.1-0.4,0.1-0.6c0.1-0.2,0.1-0.4,0.2-0.6C224,56.9,224.1,56.5,224.2,56z"/>
			<path class="st22" d="M221.8,58.7c-0.1,0.3-0.3,0.6-0.4,0.8s-0.1,0.3-0.2,0.4c-0.1,0.2-0.1,0.3-0.1,0.5c0,0.2,0.2,0.4,0.4,0.4
				c0.1,0,0.3,0,0.4,0c0.3,0,0.6-0.1,0.9-0.2c-0.3,0-0.6,0-0.9,0c-0.1,0-0.3,0-0.4,0s-0.2-0.1-0.2-0.2c0.1-0.3,0.1-0.6,0.2-0.8
				C221.7,59.3,221.7,59,221.8,58.7z"/>
		</g>
		<path class="st23" d="M223.4,77.2c0.1-0.1,5.1-8.5,5.1-8.5c0.2-0.7-0.5-1.3-1.4-1.1c-1.8,0.3-4.7,0.8-5.8,0.7
			c-0.3,0-0.4-0.2-0.9-0.3c-0.5-0.2-1.1-0.2-1.6-0.1c-0.4,0.1-0.8,0.4-1.2,0.7c-0.6,0.7-1.5,1.1-2.4,1.1c-1.7-0.1-4.8-2-6.5-2.1
			c-0.2,0-0.5,0-0.7,0.1c-0.5,0.3-0.7,0.9-0.5,1.4l4.1,8.2c0,0.1,0,0.1,0.1,0.2c-5.5,5.2-12.9,15.3-12.9,21.2
			c0,5.4,3.3,11.8,18.6,11.8s18.6-6.5,18.6-11.8C236.1,92.8,228.8,82.5,223.4,77.2z"/>
		<path class="st24" d="M208.5,67.5c-0.1,0-0.2,0-0.3,0.1L208.5,67.5z"/>
		<path class="st25" d="M223.4,77.2c0.1-0.1,5.1-8.5,5.1-8.5c0.2-0.7-0.5-1.3-1.4-1.1c-1.9,0.4-3.8,0.6-5.7,0.7
			c-1,2.7-2.9,7.7-3,7.8c5.9,5.8,14,17.2,14,23.5c0.1,3.8-1.8,7.5-5.1,9.5c6.9-2.1,8.7-6.6,8.7-10.5
			C236.1,92.8,228.8,82.5,223.4,77.2z"/>
		<path class="st17" d="M223.6,77.5l-0.2-0.2c0.1-0.2,0.3-0.4,0.4-0.7h-12.4l0.3,0.6c0,0.1,0,0.1,0.1,0.2l-0.1,0.1L223.6,77.5z"/>
		<path class="st17" d="M225.3,79.2c-0.3-0.3-0.6-0.6-0.9-0.9h-13.7l-0.9,0.9H225.3z"/>
		<path class="st19" d="M211.7,77.2c0,0,0,0.1,0.1,0.1l-0.1,0.1h12l-0.2-0.2l0,0L211.7,77.2z"/>
		<path class="st19" d="M225.1,78.9h-14.9l-0.2,0.3h15.4L225.1,78.9z"/>
		<path class="st17" d="M222.2,88.4H219c0.6,0.5,0.9,1.2,1,1.9h2.2v1.2H220c-0.3,2-1.8,3.2-4.1,3.3c1.4,1.5,3.1,3.5,4.7,5.4H218
			c-1.3-1.6-2.9-3.4-4.6-5.3v-1.7h1.2c1.9,0,2.9-0.7,3.1-1.8h-4.3v-1.2h4.2c-0.3-0.9-1.2-1.4-2.7-1.4h-1.5v-1.7h8.9L222.2,88.4z"/>
	</g>
</g>
</svg>
