<svg width="140" height="120" viewBox="0 0 140 120" fill="none" xmlns="http://www.w3.org/2000/svg">
<g clip-path="url(#clip0_7447_16580)">
<path d="M68.6924 49.0265C67.6192 50.7128 64.5572 50.7954 61.8563 50.1043C61.8512 48.7023 61.0595 24.5171 61.7289 23.1126C62.3984 21.7082 64.4068 17.4948 69.1416 20.9826C72.9294 23.7728 78.8776 43.1116 81.8289 50.8119C79.1408 53.6257 70.5981 50.4194 70.5955 49.7184C70.593 49.0174 69.1952 35.7034 69.1978 36.4044C69.1998 36.9652 69.131 45.9872 68.6924 49.0265Z" fill="#675AF6"/>
<path d="M101.22 37.3311C102.247 41.6207 100.837 46.471 97.3777 49.3678C93.9184 52.2647 88.4691 52.8769 84.6136 50.5293C82.8418 49.4167 81.4166 47.8317 80.4989 45.953C78.6101 42.1839 78.8159 37.414 81.329 33.9883C83.8421 30.5626 88.7258 28.7938 92.8579 30.1017" fill="#FFA283"/>
<path d="M86.6853 26.2348C85.4254 27.019 84.2323 27.958 83.4892 29.2258C82.7462 30.4937 82.5398 32.1666 83.2841 33.4394C83.9949 34.6567 85.4415 35.3051 86.8605 35.3468C88.2796 35.3885 89.6431 34.8919 90.9102 34.2678C90.6767 35.7996 90.4414 37.3523 90.6021 38.8947C90.7628 40.4373 91.385 41.9872 92.5825 42.9703C92.9766 43.3313 93.4831 43.5458 94.017 43.5779C95.2503 43.5814 95.9903 42.2464 96.4568 41.1076C97.3312 43.1434 98.5079 45.0358 99.9475 46.7212C100.736 47.6453 101.89 48.5812 103.043 48.1874C104.04 47.8472 104.464 46.6818 104.635 45.6443C105.276 41.7344 104.166 37.7202 102.361 34.1956C100.903 31.346 98.9127 28.6603 96.1594 27.0208C93.406 25.3813 89.8381 24.4617 87.0296 26.0018L86.6853 26.2348Z" fill="#132056"/>
<path d="M86.873 41.095C86.8917 41.507 87.2413 41.8257 87.6538 41.807C88.0663 41.7882 88.3856 41.4392 88.3669 41.0272C88.3482 40.6153 87.9986 40.2966 87.5861 40.3153C87.1736 40.334 86.8543 40.6831 86.873 41.095Z" fill="#132056"/>
<path d="M91.7168 46.7139C91.7355 47.1257 92.085 47.4446 92.4976 47.4258C92.91 47.4071 93.2293 47.0579 93.2106 46.646C93.1919 46.2341 92.8423 45.9154 92.4298 45.9341C92.0173 45.9528 91.6981 46.3019 91.7168 46.7139Z" fill="#132056"/>
<path d="M86.4421 46.2298C86.4396 46.1916 86.4457 46.1534 86.4597 46.1179C86.4737 46.0824 86.4955 46.0504 86.5235 46.0243C86.548 45.9977 86.5777 45.9766 86.6109 45.9623C86.6441 45.9479 86.6799 45.9407 86.716 45.941C86.7521 45.9413 86.7878 45.9492 86.8207 45.964C86.8536 45.979 86.883 46.0006 86.907 46.0275C87.2495 46.3794 87.5635 46.6756 87.9402 46.7568C88.0396 46.7718 88.1409 46.7647 88.2373 46.7362C88.3335 46.7077 88.4224 46.6584 88.4976 46.5917C88.5381 46.5577 88.5701 46.5146 88.5914 46.4662C88.6125 46.4176 88.6221 46.3649 88.6196 46.312C88.5981 46.2032 88.562 46.0978 88.5121 45.9987C88.4047 45.7448 88.2698 45.456 88.4501 45.1477C88.5375 45.0172 88.6553 44.9098 88.7934 44.8346L90.2402 43.9436C90.3013 43.9127 90.3719 43.9059 90.4379 43.9249C90.5038 43.9437 90.5601 43.9868 90.5955 44.0454C90.6309 44.1041 90.643 44.1739 90.629 44.2409C90.615 44.308 90.5761 44.3673 90.5202 44.4069L89.0736 45.2979C89.0132 45.3281 88.9596 45.3701 88.9159 45.4215C88.8774 45.4854 88.9242 45.6048 89.0022 45.7798C89.0776 45.9291 89.1293 46.089 89.1558 46.254C89.1687 46.391 89.1489 46.5291 89.098 46.6569C89.047 46.7847 88.9664 46.8986 88.8627 46.9892C88.7259 47.113 88.5631 47.2047 88.3861 47.2575C88.2092 47.3103 88.0227 47.3229 87.8403 47.2943C87.2629 47.1886 86.8308 46.7451 86.5053 46.4235C86.4606 46.3692 86.438 46.2999 86.4421 46.2298Z" fill="#132056"/>
<path d="M84.4123 42.88C84.3064 42.4974 84.164 42.1259 83.9869 41.7702C83.9374 41.6776 83.8521 41.6085 83.75 41.578C83.648 41.5477 83.5375 41.5585 83.4429 41.6082C83.3481 41.6581 83.2771 41.7426 83.2452 41.8432C83.2134 41.9439 83.2233 42.0526 83.273 42.1453C83.279 42.167 84.4375 44.3784 83.3668 46.1364C83.312 46.2267 83.2955 46.3344 83.3213 46.436C83.3471 46.5374 83.4127 46.6241 83.504 46.6772C83.5954 46.7303 83.7047 46.7454 83.808 46.7191C83.9113 46.6928 84.0002 46.6273 84.0551 46.537C84.3629 45.9805 84.5532 45.3695 84.6146 44.7409C84.676 44.1122 84.6072 43.4791 84.4123 42.88Z" fill="#132056"/>
<g opacity="0.5">
<path opacity="0.5" d="M62.9375 60.1076V78.6304C62.139 78.8233 61.3179 78.9196 60.4929 78.9169C57.8464 78.9169 55.3074 77.9105 53.4348 76.1189C51.5622 74.3273 50.5107 71.8975 50.5107 69.364C50.5107 66.8304 51.5622 64.4006 53.4348 62.609C55.3074 60.8176 57.8464 59.811 60.4929 59.811C61.3179 59.8118 62.139 59.9113 62.9375 60.1076Z" fill="#B9B3F9"/>
<path opacity="0.5" d="M38.4381 89.1788C38.4381 91.2124 37.5943 93.1626 36.0917 94.6005C34.5891 96.0386 32.5503 96.8464 30.4267 96.8464C30.1794 96.8473 29.9339 96.8356 29.6904 96.8112V81.5465C29.9321 81.5465 30.1794 81.5164 30.4267 81.5164C31.4781 81.5158 32.5201 81.7134 33.4923 82.0982C34.4645 82.483 35.3479 83.0473 36.0917 83.7588C36.8354 84.4706 37.4263 85.3154 37.8284 86.2454C38.2304 87.1753 38.4381 88.1722 38.4381 89.1788Z" fill="#B9B3F9"/>
<path opacity="0.5" d="M39.3013 64.769C40.8643 64.769 42.1328 63.5556 42.1328 62.059C42.1328 60.5622 40.8643 59.3489 39.3013 59.3489C37.7364 59.3489 36.4697 60.5622 36.4697 62.059C36.4697 63.5556 37.7364 64.769 39.3013 64.769Z" fill="#B9B3F9"/>
<path opacity="0.5" d="M51.5012 94.9607C53.27 94.9607 54.7047 93.5875 54.7047 91.8936C54.7047 90.1997 53.27 88.8267 51.5012 88.8267C49.7306 88.8267 48.2959 90.1997 48.2959 91.8936C48.2959 93.5875 49.7306 94.9607 51.5012 94.9607Z" fill="#B9B3F9"/>
</g>
<path d="M54.6843 50.1068C53.641 44.3264 45.5558 38.9401 41.6436 36.9695C47.3815 32.7656 59.1036 29.6071 62.5811 29.1692C63.6244 29.6947 62.726 43.7571 63.8128 50.1068H54.6843Z" fill="#675AF6"/>
<path d="M20.63 68.5184C20.6057 68.5162 20.5819 68.5109 20.559 68.5027L9.24909 63.1414C9.20801 63.1245 9.171 63.0992 9.14041 63.067C9.10981 63.0348 9.08625 62.9965 9.07143 62.9547C9.05649 62.9128 9.05061 62.8683 9.05404 62.8239C9.05744 62.7797 9.07025 62.7366 9.09136 62.6975C9.10631 62.6552 9.12986 62.6167 9.1608 62.5843C9.19161 62.5519 9.22905 62.5264 9.27039 62.5096C9.31187 62.4926 9.35635 62.4848 9.40097 62.4863C9.44567 62.4879 9.48947 62.4989 9.52955 62.5187L20.8395 67.88C20.9222 67.9082 20.9903 67.9682 21.0289 68.0467C21.0674 68.1253 21.0732 68.2159 21.0449 68.2987C21.0167 68.3816 20.9567 68.4498 20.8783 68.4884C20.7999 68.527 20.7093 68.5329 20.6266 68.5047L20.63 68.5184Z" fill="#132056"/>
<rect width="46.8017" height="60.3495" transform="translate(62.9434 49.3276)" fill="#FF5A2D"/>
<path opacity="0.5" d="M76.4712 58.0509C78.6714 58.0509 80.457 56.0981 80.457 53.6894C80.457 51.2804 78.6714 49.3276 76.4712 49.3276C74.2684 49.3276 72.4854 51.2804 72.4854 53.6894C72.4854 56.0981 74.2684 58.0509 76.4712 58.0509Z" fill="white"/>
<path opacity="0.5" d="M82.5026 98C85.5385 98 88.001 95.5374 88.001 92.4998C88.001 89.4623 85.5385 87 82.5026 87C79.4634 87 77.001 89.4623 77.001 92.4998C77.001 95.5374 79.4634 98 82.5026 98Z" fill="white"/>
<path opacity="0.5" d="M103.502 79C105.434 79 107.001 77.209 107.001 74.9999C107.001 72.7907 105.434 71 103.502 71C101.568 71 100.001 72.7907 100.001 74.9999C100.001 77.209 101.568 79 103.502 79Z" fill="white"/>
<path opacity="0.5" d="M106.501 107C107.329 107 108.001 106.105 108.001 105C108.001 103.895 107.329 103 106.501 103C105.673 103 105.001 103.895 105.001 105C105.001 106.105 105.673 107 106.501 107Z" fill="white"/>
<path d="M73.7581 76L61.5 49H109.919L118.5 76H73.7581Z" fill="#FF8F70"/>
<path d="M68.4857 62.0947V62.6897C69.0524 63.042 69.619 63.3987 70.1878 63.751C70.9998 64.2616 71.8942 64.8115 72.9384 64.7108C74.8923 64.5192 74.8923 62.3337 74.7946 61.0134C74.7338 60.0861 74.4668 59.1921 74.3344 58.2759C74.2448 57.7837 74.2589 57.2797 74.3756 56.7927C74.4993 56.3494 74.8098 56.2096 75.2831 56.2036C76.2296 56.1933 77.1675 56.5004 78.1054 56.2717C78.85 56.0919 79.4274 55.6264 79.5316 54.9218C79.6511 54.0981 79.4731 53.1795 79.282 52.372C79.0783 51.5309 78.7701 50.7156 78.3637 49.9434H77.8014C77.7977 49.9868 77.8068 50.0302 77.8274 50.0691C78.288 50.9249 78.6211 51.8372 78.8174 52.7799C78.9216 53.2729 78.9847 53.7729 79.0063 54.275C79.0236 54.6872 79.041 55.1157 78.7088 55.4332C78.1466 55.9705 77.2044 55.8921 76.4684 55.8099C75.7325 55.7278 74.7577 55.5257 74.1889 56.043C73.6201 56.5596 73.6961 57.5262 73.7742 58.1641C73.8763 59.0004 74.1303 59.8123 74.2193 60.6567C74.3496 61.8786 74.5124 64.5421 72.3501 64.2083C71.4578 64.0684 70.6871 63.4668 69.962 63.0153L68.4857 62.0947Z" fill="#D04954"/>
<path d="M116.43 73.6964L116.851 73.2757C116.699 72.6259 116.551 71.9729 116.398 71.3217C116.185 70.3864 115.941 69.3652 115.132 68.6979C113.614 67.4519 112.069 68.9972 111.205 69.9999C110.592 70.6986 110.149 71.5196 109.594 72.2611C109.31 72.6724 108.943 73.0189 108.516 73.2806C108.115 73.5066 107.797 73.386 107.458 73.0555C106.782 72.3935 106.336 71.5132 105.511 71.0117C104.857 70.6123 104.12 70.5332 103.548 70.9577C102.881 71.4557 102.357 72.2311 101.921 72.9372C101.47 73.676 101.112 74.4705 100.853 75.3039L101.251 75.7015C101.284 75.6734 101.308 75.6363 101.321 75.5942C101.601 74.6634 102.01 73.7828 102.538 72.9773C102.813 72.555 103.122 72.1568 103.462 71.7866C103.741 71.4828 104.032 71.1675 104.491 71.1779C105.269 71.1955 105.879 71.9173 106.342 72.4958C106.804 73.0742 107.35 73.9064 108.118 73.9428C108.886 73.9797 109.516 73.2425 109.911 72.7362C110.431 72.0727 110.825 71.319 111.359 70.6589C112.131 69.7028 113.899 67.7043 115.192 69.4693C115.724 70.1991 115.844 71.1695 116.037 72.0015L116.43 73.6964Z" fill="#D04954"/>
<path d="M62.5 49H29.5V110H62.5V49Z" fill="#FF5A2D"/>
<path d="M62.5 49V104" stroke="#FF8F70"/>
<path opacity="0.5" d="M34 91.4984C34 92.6924 33.5177 93.8373 32.6588 94.6814C31.8 95.5257 30.6347 96 29.4208 96C29.2795 96.0005 29.1392 95.9936 29 95.9793V87.0177C29.1381 87.0177 29.2795 87 29.4208 87C30.0218 86.9997 30.6174 87.1157 31.1731 87.3416C31.7287 87.5675 32.2337 87.8988 32.6588 88.3165C33.0839 88.7344 33.4217 89.2304 33.6515 89.7763C33.8813 90.3222 34 90.9075 34 91.4984Z" fill="white"/>
<path opacity="0.5" d="M57.6559 109.225C59.6954 109.225 61.3497 107.57 61.3497 105.53C61.3497 103.489 59.6954 101.835 57.6559 101.835C55.6142 101.835 53.96 103.489 53.96 105.53C53.96 107.57 55.6142 109.225 57.6559 109.225Z" fill="white"/>
<path opacity="0.5" d="M36.7184 59.9598C38.7579 59.9598 40.4122 58.3054 40.4122 56.2648C40.4122 54.2242 38.7579 52.5701 36.7184 52.5701C34.6767 52.5701 33.0225 54.2242 33.0225 56.2648C33.0225 58.3054 34.6767 59.9598 36.7184 59.9598Z" fill="white"/>
<path opacity="0.5" d="M46.5704 78.4341C47.9301 78.4341 49.0329 77.3312 49.0329 75.9708C49.0329 74.6104 47.9301 73.5077 46.5704 73.5077C45.2093 73.5077 44.1064 74.6104 44.1064 75.9708C44.1064 77.3312 45.2093 78.4341 46.5704 78.4341Z" fill="white"/>
<path d="M50 107V100C50 98.8954 50.909 98 52.0136 98C52.7103 98 53.3652 98.3663 53.8557 98.8611C55.0094 100.025 57.4097 101.796 61.4714 103.343C66.7514 105.354 67.9667 109 63.5143 109H52C50.8954 109 50 108.105 50 107Z" fill="#132056"/>
<path d="M1.61523 109.225H135.246C136.683 109.019 139.434 108.732 138.941 109.225C138.448 109.717 136.273 110.251 135.246 110.456C74.1578 117.353 20.7054 112.509 1.61523 109.225Z" fill="#FFF5D9"/>
<path d="M7.57728 58.5759L13.6606 62.6703C14.1188 62.9787 14.2402 63.6001 13.9319 64.0583L13.3095 64.983C13.115 65.272 12.7843 65.4317 12.4364 65.4511C11.3118 65.5139 9.28699 65.969 6.00037 68.2877C2.07006 71.0605 -1.08232 70.1858 1.03405 67.0414L6.17247 58.873C6.47299 58.3953 7.10906 58.2608 7.57728 58.5759Z" fill="#132056"/>
<path d="M31.1743 51.9542C33.6375 42.1012 38.3587 38.8169 40.4114 38.4064C44.1063 39.8433 51.9887 44.3182 53.9593 50.7226C55.9299 57.127 57.6541 86.2344 58.2699 99.9875C55.314 101.958 47.8012 101.219 47.8012 99.9875C48.417 95.6768 48.417 91.9819 47.8012 89.5187L43.4905 57.4965C43.1237 58.065 42.7114 58.6853 42.26 59.344C37.659 66.0573 29.001 76.7538 23.1687 77.2025C16.7643 77.6951 12.4468 72.4688 7.72559 67.5423C9.57302 62.6158 14.4995 61.3842 14.4995 62C14.4995 62.6158 20.7055 67.9653 23.1687 66.7337C25.632 65.5021 28.0952 64.2704 31.1743 51.9542Z" fill="#675AF6"/>
<path d="M57.654 99.9875C56.4224 100.398 53.097 101.096 49.6484 100.603" stroke="#132056" stroke-width="0.615811" stroke-linecap="round"/>
<path d="M45.6433 69.1576C45.6215 68.9889 45.4671 68.8698 45.2985 68.8916C45.1298 68.9133 45.0108 69.0677 45.0325 69.2364L45.6433 69.1576ZM47.5548 99.187C47.4528 99.323 47.4804 99.516 47.6164 99.618C47.7524 99.7201 47.9454 99.6925 48.0475 99.5565L47.5548 99.187ZM45.0325 69.2364C45.443 72.4177 46.0587 77.2512 46.5718 81.4123C46.8284 83.493 47.0592 85.4048 47.2258 86.8577C47.3941 88.3247 47.4932 89.2952 47.4932 89.5187H48.109C48.109 89.2496 48.0029 88.229 47.8376 86.7875C47.6707 85.332 47.4396 83.4182 47.183 81.3369C46.6697 77.1743 46.0538 72.3396 45.6433 69.1576L45.0325 69.2364ZM47.4932 89.5187C47.4932 89.7003 47.5262 89.9537 47.5729 90.2437C47.6205 90.5388 47.6862 90.8941 47.7581 91.2869C47.9024 92.076 48.0739 93.0292 48.188 94.0187C48.3024 95.0094 48.3578 96.025 48.2739 96.938C48.1896 97.8557 47.9675 98.6367 47.5548 99.187L48.0475 99.5565C48.5585 98.8751 48.7982 97.9626 48.8871 96.9944C48.9765 96.0215 48.9164 94.9587 48.7998 93.9481C48.683 92.9362 48.5081 91.9649 48.3638 91.1761C48.2913 90.7798 48.2271 90.4327 48.1809 90.1457C48.1338 89.8535 48.109 89.645 48.109 89.5187H47.4932Z" fill="#132056"/>
<path d="M43.3791 57.7158C43.5008 57.7767 43.6487 57.7273 43.7096 57.6057C43.7704 57.484 43.7211 57.336 43.5994 57.2752L43.3791 57.7158ZM41.8763 54.9554C41.8332 54.8263 41.6937 54.7566 41.5647 54.7996C41.4356 54.8426 41.3659 54.9821 41.4089 55.1112L41.8763 54.9554ZM43.5994 57.2752C43.2487 57.0998 42.3485 56.372 41.8763 54.9554L41.4089 55.1112C41.9216 56.6492 42.9091 57.4808 43.3791 57.7158L43.5994 57.2752Z" fill="#132056"/>
<path d="M40.5095 38.7301C40.3482 38.6763 40.1738 38.7635 40.12 38.9248C40.0662 39.0861 40.1534 39.2605 40.3147 39.3143L40.5095 38.7301ZM53.6846 50.8603C53.7606 51.0124 53.9456 51.074 54.0977 50.998C54.2498 50.9219 54.3114 50.737 54.2354 50.5849L53.6846 50.8603ZM41.4318 39.4068L41.55 39.1225L41.4318 39.4068ZM40.3147 39.3143C40.6108 39.413 40.9461 39.5384 41.3136 39.6911L41.55 39.1225C41.1705 38.9648 40.8212 38.834 40.5095 38.7301L40.3147 39.3143ZM41.3136 39.6911C44.6868 41.0934 50.6219 44.7351 53.6846 50.8603L54.2354 50.5849C51.0816 44.2774 44.9976 40.5557 41.55 39.1225L41.3136 39.6911Z" fill="#132056"/>
<rect x="110.362" y="-2.35379" width="33.9967" height="33.9967" rx="16.9984" transform="rotate(23.0702 110.362 -2.35379)" fill="#D04954"/>
<path d="M115.073 23.0863C114.961 23.0052 114.889 22.9064 114.86 22.7898C114.839 22.6608 114.873 22.5338 114.963 22.4089C115.054 22.2839 115.144 22.159 115.234 22.0341C115.324 21.9091 115.414 21.7842 115.504 21.6593C115.917 21.1401 116.378 20.751 116.888 20.492C117.398 20.233 117.924 20.043 118.468 19.922C119.023 19.81 119.566 19.7168 120.094 19.6423C120.632 19.5554 121.12 19.4323 121.557 19.2733C122.008 19.1232 122.384 18.8913 122.686 18.5775C123.061 18.1638 123.244 17.7259 123.235 17.2639C123.236 16.7893 123.101 16.3311 122.831 15.8892C122.561 15.4474 122.219 15.0777 121.807 14.7802C121.145 14.3025 120.45 14.0672 119.723 14.0745C119.018 14.0783 118.297 14.4321 117.561 15.136C117.415 15.2588 117.276 15.32 117.144 15.3193C117.011 15.3187 116.889 15.2778 116.776 15.1967L115.877 14.5476C115.764 14.4665 115.692 14.3569 115.658 14.2189C115.637 14.0898 115.672 13.9628 115.762 13.8379C116.144 13.3347 116.608 12.9286 117.154 12.6196C117.7 12.3106 118.293 12.1209 118.932 12.0506C119.585 11.9892 120.251 12.0524 120.933 12.2401C121.636 12.4244 122.325 12.7599 122.999 13.2467C123.761 13.7965 124.334 14.3715 124.718 14.9715C125.124 15.568 125.363 16.1583 125.435 16.7425C125.529 17.3232 125.502 17.8738 125.355 18.3942C125.207 18.9147 124.972 19.372 124.65 19.7662C124.252 20.2389 123.802 20.5985 123.301 20.8451C122.809 21.0791 122.292 21.2566 121.749 21.3776C121.215 21.4861 120.674 21.59 120.127 21.6895C119.602 21.7855 119.101 21.9272 118.624 22.1148C118.168 22.2989 117.783 22.5818 117.47 22.9635C117.358 23.0919 117.247 23.2203 117.135 23.3487C117.045 23.4737 116.955 23.5986 116.864 23.7235C116.74 23.8429 116.614 23.9131 116.485 23.9339C116.356 23.9548 116.222 23.9157 116.085 23.8165L115.073 23.0863ZM112.706 26.0515C112.581 25.9613 112.502 25.8472 112.468 25.7092C112.456 25.5676 112.495 25.4344 112.586 25.3095L113.41 24.1663C113.501 24.0414 113.61 23.9685 113.739 23.9476C113.89 23.9233 114.027 23.9562 114.152 24.0463L115.37 24.9252C115.508 25.0244 115.583 25.1447 115.594 25.2863C115.628 25.4243 115.599 25.5558 115.509 25.6807L114.684 26.8239C114.594 26.9488 114.474 27.0234 114.323 27.0478C114.194 27.0687 114.061 27.0295 113.924 26.9304L112.706 26.0515Z" fill="white"/>
</g>
<defs>
<clipPath id="clip0_7447_16580">
<rect width="140" height="120" fill="white"/>
</clipPath>
</defs>
</svg>
