<svg width="390" height="320" viewBox="0 0 390 320" fill="none" xmlns="http://www.w3.org/2000/svg">
<path d="M295 319.5C295 319.769 250.223 320 195.005 320C139.786 320 95 319.769 95 319.5C95 319.231 139.763 319 195.005 319C250.246 319 295 319.173 295 319.5Z" fill="#132056"/>
<path d="M227.852 317.075C213.14 306.97 209.63 287.901 210.03 270.738C210.096 267.873 209.75 264.853 211.075 262.331C212.401 259.808 215.538 258.057 218.095 259.231C220.219 260.21 221.165 262.673 222.364 264.706C223.967 267.421 226.302 269.622 229.097 271.053C230.915 271.979 233.16 272.536 234.938 271.523C237.376 270.134 237.602 266.719 237.602 263.874C237.518 258.569 237.429 253.261 237.336 247.952C237.289 245.107 237.256 242.195 238.101 239.484C238.947 236.774 240.872 234.244 243.549 233.446C246.227 232.647 249.577 234.19 250.169 236.968C250.422 238.129 250.169 239.337 250.289 240.518C250.409 241.698 250.955 243 252.054 243.315C253.153 243.631 254.312 242.819 255.144 241.974C258.035 239.062 259.979 235.338 261.804 231.634C263.629 227.93 265.374 224.146 267.985 220.979C270.595 217.812 274.238 215.296 278.281 215.021C282.324 214.746 286.666 217.222 287.731 221.214C288.797 225.206 286.513 229.312 284.022 232.587C280.316 237.443 275.936 241.737 271.015 245.335C270.129 246.006 269.17 246.677 268.837 247.737C268.244 249.643 270.049 251.508 271.914 252.112C274.032 252.783 276.316 252.555 278.521 252.783C280.725 253.011 283.123 253.97 283.982 256.064C285.167 258.962 282.783 262.035 280.425 264.062C275.705 268.114 270.328 271.317 264.528 273.529C262.457 274.321 260.272 275.012 258.614 276.501C256.956 277.991 255.95 280.561 257.002 282.54C258.055 284.52 260.639 285.15 262.817 284.721C264.994 284.291 266.926 283.077 268.99 282.265C272.86 280.749 277.881 280.97 280.406 284.325C282.064 286.526 282.237 289.626 281.438 292.283C280.639 294.94 278.987 297.241 277.229 299.361C271.075 306.789 263.17 312.781 254.192 316.035C245.214 319.289 236.876 320.222 227.885 317.014" fill="#F4F0FF"/>
<path d="M157.014 317.815C166.068 311.597 168.228 299.862 167.982 289.3C167.941 287.537 168.154 285.679 167.338 284.127C166.523 282.574 164.592 281.496 163.019 282.219C161.711 282.822 161.129 284.337 160.391 285.588C159.405 287.259 157.968 288.613 156.248 289.494C155.129 290.064 153.748 290.407 152.654 289.783C151.154 288.929 151.014 286.827 151.014 285.076C151.066 281.812 151.121 278.545 151.178 275.278C151.207 273.527 151.227 271.735 150.707 270.067C150.186 268.399 149.002 266.842 147.354 266.351C145.707 265.86 143.645 266.809 143.28 268.519C143.125 269.233 143.28 269.976 143.207 270.703C143.133 271.43 142.797 272.231 142.121 272.425C141.444 272.619 140.731 272.119 140.219 271.599C138.44 269.807 137.243 267.515 136.12 265.236C134.997 262.957 133.924 260.628 132.317 258.679C130.711 256.73 128.469 255.182 125.981 255.013C123.493 254.844 120.821 256.367 120.165 258.824C119.51 261.281 120.915 263.808 122.448 265.823C124.729 268.811 127.424 271.453 130.452 273.668C130.997 274.081 131.588 274.494 131.793 275.146C132.157 276.319 131.047 277.466 129.899 277.838C128.596 278.251 127.19 278.111 125.833 278.251C124.477 278.391 123.001 278.982 122.473 280.27C121.743 282.054 123.21 283.945 124.661 285.192C127.566 287.686 130.875 289.656 134.444 291.018C135.719 291.505 137.063 291.93 138.084 292.847C139.104 293.764 139.723 295.345 139.075 296.563C138.428 297.781 136.838 298.169 135.498 297.905C134.157 297.641 132.969 296.893 131.698 296.394C129.317 295.461 126.227 295.597 124.674 297.661C123.653 299.016 123.546 300.923 124.038 302.559C124.53 304.194 125.546 305.61 126.628 306.915C130.415 311.485 135.28 315.173 140.805 317.175C146.33 319.178 151.461 319.752 156.994 317.778" fill="#F4F0FF"/>
<path opacity="0.4" d="M299.5 128C299.5 185.714 252.714 232.5 195 232.5C137.286 232.5 90.5 185.714 90.5 128C90.5 70.2862 137.286 23.5 195 23.5C252.714 23.5 299.5 70.2862 299.5 128Z" stroke="#D4C4FF"/>
<path opacity="0.4" d="M266.5 128C266.5 167.488 234.488 199.5 195 199.5C155.512 199.5 123.5 167.488 123.5 128C123.5 88.5116 155.512 56.5 195 56.5C234.488 56.5 266.5 88.5116 266.5 128Z" stroke="#D4C4FF"/>
<path d="M195 167C216.539 167 234 149.539 234 128C234 106.461 216.539 89 195 89C173.461 89 156 106.461 156 128C156 149.539 173.461 167 195 167Z" fill="white"/>
<g clip-path="url(#clip0_989_66124)">
<path d="M181.424 127.37V137.427C181.424 138.062 181.671 138.671 182.11 139.12C182.549 139.569 183.144 139.822 183.765 139.822H214.183C214.804 139.822 215.399 139.569 215.838 139.12C216.277 138.671 216.523 138.062 216.523 137.427V127.37H181.424Z" fill="#41275B"/>
<path d="M181.305 127.339H216.406V128.776H181.305V127.339Z" fill="#41275B"/>
<path d="M181.305 120.634H216.406V119.195C216.406 118.56 216.16 117.951 215.721 117.502C215.282 117.053 214.687 116.8 214.066 116.8H183.648C183.027 116.8 182.432 117.053 181.993 117.502C181.554 117.951 181.307 118.56 181.307 119.195L181.305 120.634Z" fill="#915E3A"/>
<path d="M214.066 116.803H183.647C183.027 116.803 182.431 117.055 181.993 117.505C181.554 117.954 181.307 118.563 181.307 119.198V120.637C181.307 120.002 181.554 119.393 181.993 118.944C182.431 118.494 183.027 118.242 183.647 118.242H214.066C214.373 118.242 214.677 118.304 214.961 118.424C215.245 118.545 215.503 118.721 215.721 118.944C215.938 119.166 216.11 119.43 216.228 119.721C216.345 120.011 216.406 120.323 216.406 120.637V119.198C216.406 118.883 216.345 118.572 216.228 118.282C216.11 117.991 215.938 117.727 215.721 117.505C215.503 117.282 215.245 117.106 214.961 116.985C214.677 116.865 214.373 116.803 214.066 116.803Z" fill="#BF8256"/>
<path d="M181.305 120.634H216.406V119.195C216.406 118.56 216.16 117.951 215.721 117.502C215.282 117.053 214.687 116.8 214.066 116.8H183.648C183.027 116.8 182.432 117.053 181.993 117.502C181.554 117.951 181.307 118.56 181.307 119.195L181.305 120.634Z" fill="#361E4F"/>
<path d="M184.42 116.938L201.502 122.791L209.294 120.551L206.762 111.329C206.729 111.208 206.673 111.095 206.597 110.996C206.521 110.897 206.427 110.814 206.32 110.753C206.213 110.691 206.095 110.652 205.973 110.637C205.851 110.622 205.727 110.632 205.609 110.666L184.1 116.852C184.208 116.873 184.315 116.902 184.42 116.938Z" fill="#27BF81"/>
<path d="M212.662 123.987L192.387 129.819L189.855 120.597C189.788 120.352 189.818 120.09 189.94 119.868C190.061 119.647 190.264 119.483 190.503 119.414L208.975 114.103C209.094 114.069 209.217 114.059 209.339 114.074C209.461 114.089 209.579 114.128 209.686 114.19C209.794 114.251 209.888 114.334 209.964 114.433C210.04 114.531 210.096 114.645 210.129 114.766L212.662 123.987Z" fill="#33CF90"/>
<path d="M181.424 120.665H216.525V124.496H181.424V120.665Z" fill="#41275B"/>
<path d="M181.424 124.496H216.525V127.369H181.424V124.496Z" fill="#7835F9"/>
<path d="M181.305 119.198C181.305 118.815 181.395 118.438 181.567 118.099C181.739 117.759 181.988 117.466 182.293 117.245C182.598 117.024 182.95 116.881 183.32 116.827C183.69 116.774 184.067 116.812 184.42 116.939L205.477 124.154C205.933 124.31 206.33 124.609 206.611 125.009C206.893 125.409 207.044 125.889 207.044 126.381V144.581C207.044 144.965 206.955 145.343 206.784 145.684C206.613 146.025 206.365 146.32 206.061 146.544C205.757 146.768 205.405 146.915 205.035 146.973C204.664 147.03 204.286 146.997 203.93 146.875L182.903 139.669C182.438 139.51 182.033 139.204 181.746 138.797C181.46 138.389 181.305 137.9 181.305 137.397V119.198Z" fill="#7835F9"/>
<path d="M205.479 124.154L184.42 116.939C184.067 116.812 183.69 116.773 183.319 116.826C182.949 116.879 182.596 117.022 182.291 117.244C181.985 117.465 181.736 117.758 181.565 118.098C181.393 118.438 181.303 118.815 181.303 119.198V122.048C181.303 121.665 181.393 121.288 181.565 120.948C181.737 120.608 181.986 120.315 182.291 120.094C182.596 119.873 182.949 119.73 183.319 119.676C183.69 119.623 184.067 119.661 184.42 119.788L205.477 127.004C205.933 127.161 206.33 127.46 206.611 127.859C206.892 128.259 207.044 128.739 207.044 129.231V126.381C207.044 125.889 206.893 125.409 206.612 125.01C206.331 124.61 205.935 124.311 205.479 124.154Z" fill="#8647FF"/>
<path d="M183.645 121.559L184.347 121.8" stroke="#41275B" stroke-width="2" stroke-linecap="round" stroke-linejoin="round"/>
<path d="M185.658 122.248L203.346 128.311" stroke="#41275B" stroke-width="2" stroke-linecap="round" stroke-linejoin="round"/>
<path d="M204 128.535L204.702 128.776" stroke="#41275B" stroke-width="2" stroke-linecap="round" stroke-linejoin="round"/>
<path d="M194.674 140.377L195.377 140.617" stroke="#41275B" stroke-width="2" stroke-linecap="round" stroke-linejoin="round"/>
<path d="M196.608 141.039L203.385 143.36" stroke="#41275B" stroke-width="2" stroke-linecap="round" stroke-linejoin="round"/>
<path d="M204 143.571L204.702 143.812" stroke="#41275B" stroke-width="2" stroke-linecap="round" stroke-linejoin="round"/>
<path d="M175.221 145.539C174.863 145.518 174.525 145.358 174.278 145.091C174.032 144.823 173.894 144.47 173.894 144.102C173.894 143.734 174.032 143.381 174.278 143.113C174.525 142.846 174.863 142.686 175.221 142.665H181.305C181.496 142.654 181.687 142.683 181.867 142.75C182.047 142.818 182.211 142.922 182.35 143.056C182.489 143.191 182.6 143.353 182.675 143.533C182.751 143.712 182.79 143.906 182.79 144.102C182.79 144.298 182.751 144.491 182.675 144.671C182.6 144.851 182.489 145.013 182.35 145.148C182.211 145.282 182.047 145.386 181.867 145.453C181.687 145.521 181.496 145.55 181.305 145.539H175.221Z" fill="#FE794D"/>
<path d="M175.258 144.106H181.341C181.587 144.106 181.828 144.173 182.04 144.299C182.252 144.425 182.429 144.606 182.551 144.824C182.677 144.606 182.745 144.359 182.746 144.106C182.746 143.917 182.71 143.73 182.639 143.555C182.568 143.38 182.465 143.222 182.334 143.088C182.204 142.954 182.049 142.848 181.878 142.776C181.708 142.704 181.525 142.667 181.34 142.667H175.256C175.072 142.667 174.889 142.704 174.718 142.776C174.548 142.848 174.393 142.954 174.262 143.088C174.131 143.222 174.028 143.38 173.957 143.555C173.886 143.73 173.85 143.917 173.85 144.106C173.851 144.358 173.919 144.606 174.045 144.824C174.167 144.605 174.344 144.424 174.557 144.298C174.77 144.172 175.012 144.106 175.258 144.106Z" fill="#FFBD00"/>
<path d="M184.228 145.704C183.869 145.683 183.532 145.523 183.285 145.255C183.038 144.988 182.901 144.635 182.901 144.267C182.901 143.899 183.038 143.545 183.285 143.278C183.532 143.011 183.869 142.851 184.228 142.83H190.312C190.67 142.851 191.008 143.011 191.255 143.278C191.501 143.545 191.639 143.899 191.639 144.267C191.639 144.635 191.501 144.988 191.255 145.255C191.008 145.523 190.67 145.683 190.312 145.704H184.228Z" fill="#FE794D"/>
<path d="M184.324 144.106H190.408C190.654 144.106 190.894 144.173 191.107 144.299C191.319 144.425 191.495 144.606 191.617 144.824C191.744 144.606 191.811 144.358 191.812 144.106C191.812 143.917 191.776 143.73 191.705 143.555C191.634 143.38 191.531 143.222 191.4 143.088C191.27 142.954 191.115 142.848 190.944 142.776C190.773 142.704 190.591 142.667 190.406 142.667H184.322C184.138 142.667 183.955 142.704 183.784 142.776C183.613 142.848 183.458 142.954 183.328 143.088C183.197 143.222 183.094 143.38 183.023 143.555C182.952 143.73 182.916 143.917 182.916 144.106C182.917 144.358 182.984 144.606 183.111 144.824C183.233 144.605 183.41 144.424 183.623 144.298C183.836 144.172 184.078 144.105 184.324 144.106Z" fill="#FFBD00"/>
<path d="M174.285 142.665C173.926 142.644 173.589 142.484 173.342 142.217C173.095 141.95 172.958 141.596 172.958 141.228C172.958 140.861 173.095 140.507 173.342 140.24C173.589 139.972 173.926 139.812 174.285 139.791H180.369C180.728 139.812 181.065 139.972 181.312 140.24C181.559 140.507 181.696 140.861 181.696 141.228C181.696 141.596 181.559 141.95 181.312 142.217C181.065 142.484 180.728 142.644 180.369 142.665H174.285Z" fill="#FE794D"/>
<path d="M174.285 141.229H180.37C180.615 141.229 180.856 141.296 181.068 141.422C181.28 141.548 181.457 141.729 181.579 141.947C181.705 141.729 181.772 141.481 181.774 141.229C181.774 141.04 181.737 140.852 181.666 140.678C181.596 140.503 181.492 140.345 181.362 140.211C181.231 140.077 181.076 139.971 180.905 139.899C180.735 139.827 180.552 139.789 180.367 139.789H174.285C174.1 139.789 173.918 139.827 173.747 139.899C173.576 139.971 173.421 140.077 173.291 140.211C173.16 140.345 173.057 140.503 172.986 140.678C172.915 140.852 172.879 141.04 172.879 141.229C172.88 141.481 172.947 141.729 173.074 141.947C173.196 141.729 173.373 141.547 173.585 141.421C173.798 141.295 174.039 141.229 174.285 141.229Z" fill="#FFBD00"/>
<path d="M183.292 142.83C182.933 142.81 182.595 142.649 182.349 142.382C182.102 142.115 181.964 141.761 181.964 141.394C181.964 141.026 182.102 140.672 182.349 140.405C182.595 140.138 182.933 139.978 183.292 139.957H189.375C189.566 139.946 189.757 139.975 189.937 140.042C190.117 140.109 190.281 140.213 190.42 140.348C190.559 140.482 190.67 140.645 190.746 140.824C190.821 141.004 190.86 141.198 190.86 141.394C190.86 141.59 190.821 141.783 190.746 141.963C190.67 142.143 190.559 142.305 190.42 142.439C190.281 142.574 190.117 142.678 189.937 142.745C189.757 142.812 189.566 142.841 189.375 142.83H183.292Z" fill="#FE794D"/>
<path d="M183.353 141.439H189.436C189.682 141.439 189.923 141.506 190.135 141.632C190.347 141.758 190.523 141.939 190.646 142.157C190.772 141.94 190.839 141.692 190.841 141.439C190.841 141.25 190.805 141.063 190.734 140.888C190.663 140.714 190.56 140.555 190.429 140.421C190.298 140.288 190.143 140.182 189.973 140.11C189.802 140.037 189.619 140 189.435 140H183.351C183.166 140 182.984 140.037 182.813 140.11C182.642 140.182 182.487 140.288 182.357 140.421C182.226 140.555 182.123 140.714 182.052 140.888C181.981 141.063 181.945 141.25 181.945 141.439C181.946 141.692 182.013 141.94 182.139 142.157C182.262 141.939 182.439 141.757 182.652 141.631C182.865 141.505 183.106 141.439 183.353 141.439Z" fill="#FFBD00"/>
<path d="M175.801 139.957C175.442 139.936 175.105 139.776 174.858 139.509C174.611 139.241 174.474 138.888 174.474 138.52C174.474 138.152 174.611 137.799 174.858 137.531C175.105 137.264 175.442 137.104 175.801 137.083H181.885C182.244 137.104 182.581 137.264 182.828 137.531C183.075 137.799 183.212 138.152 183.212 138.52C183.212 138.888 183.075 139.241 182.828 139.509C182.581 139.776 182.244 139.936 181.885 139.957H175.801Z" fill="#FE794D"/>
<path d="M175.88 138.334H181.86C182.101 138.335 182.338 138.397 182.546 138.514C182.755 138.63 182.928 138.798 183.048 139C183.173 138.799 183.239 138.569 183.24 138.334C183.24 137.98 183.094 137.641 182.835 137.391C182.576 137.141 182.224 137 181.858 137H175.88C175.513 137 175.162 137.141 174.902 137.391C174.643 137.641 174.498 137.98 174.498 138.334C174.499 138.569 174.565 138.799 174.689 139C174.809 138.798 174.983 138.63 175.192 138.513C175.401 138.396 175.638 138.335 175.88 138.334Z" fill="#FFBD00"/>
<path d="M184.695 139.957C184.337 139.936 183.999 139.776 183.752 139.509C183.506 139.241 183.368 138.888 183.368 138.52C183.368 138.152 183.506 137.799 183.752 137.531C183.999 137.264 184.337 137.104 184.695 137.083H190.78C191.139 137.104 191.476 137.264 191.723 137.531C191.97 137.799 192.107 138.152 192.107 138.52C192.107 138.888 191.97 139.241 191.723 139.509C191.476 139.776 191.139 139.936 190.78 139.957H184.695Z" fill="#FE794D"/>
<path d="M184.646 138.439H190.73C190.976 138.44 191.217 138.506 191.429 138.632C191.641 138.758 191.817 138.939 191.94 139.157C192.066 138.94 192.133 138.692 192.134 138.439C192.134 138.057 191.986 137.691 191.722 137.421C191.459 137.152 191.101 137 190.728 137H184.646C184.273 137 183.915 137.152 183.652 137.421C183.388 137.691 183.24 138.057 183.24 138.439C183.241 138.692 183.308 138.94 183.434 139.157C183.557 138.939 183.733 138.758 183.946 138.632C184.159 138.506 184.4 138.439 184.646 138.439Z" fill="#FFBD00"/>
<path d="M176.739 137.083C176.379 137.064 176.04 136.905 175.792 136.637C175.544 136.37 175.405 136.015 175.405 135.646C175.405 135.277 175.544 134.922 175.792 134.655C176.04 134.388 176.379 134.228 176.739 134.209H182.824C183.184 134.228 183.523 134.388 183.771 134.655C184.019 134.922 184.158 135.277 184.158 135.646C184.158 136.015 184.019 136.37 183.771 136.637C183.523 136.905 183.184 137.064 182.824 137.083H176.739Z" fill="#FE794D"/>
<path d="M176.625 135.482H182.709C182.955 135.482 183.196 135.549 183.408 135.675C183.62 135.801 183.796 135.982 183.919 136.2C184.045 135.982 184.112 135.734 184.113 135.482C184.113 135.1 183.965 134.734 183.702 134.464C183.438 134.194 183.08 134.043 182.707 134.043H176.625C176.252 134.043 175.894 134.194 175.631 134.464C175.367 134.734 175.219 135.1 175.219 135.482C175.22 135.734 175.287 135.982 175.413 136.2C175.536 135.982 175.712 135.8 175.925 135.674C176.138 135.548 176.379 135.482 176.625 135.482Z" fill="#FFBD00"/>
<path d="M175.335 134.209C175.144 134.22 174.953 134.191 174.773 134.124C174.594 134.057 174.429 133.952 174.29 133.818C174.151 133.683 174.041 133.521 173.965 133.342C173.889 133.162 173.85 132.968 173.85 132.772C173.85 132.576 173.889 132.383 173.965 132.203C174.041 132.023 174.151 131.861 174.29 131.726C174.429 131.592 174.594 131.488 174.773 131.421C174.953 131.353 175.144 131.324 175.335 131.335H181.419C181.61 131.324 181.801 131.353 181.981 131.421C182.161 131.488 182.325 131.592 182.464 131.726C182.603 131.861 182.714 132.023 182.789 132.203C182.865 132.383 182.904 132.576 182.904 132.772C182.904 132.968 182.865 133.162 182.789 133.342C182.714 133.521 182.603 133.683 182.464 133.818C182.325 133.952 182.161 134.057 181.981 134.124C181.801 134.191 181.61 134.22 181.419 134.209H175.335Z" fill="#FE794D"/>
<path d="M175.221 132.607H181.305C181.55 132.608 181.791 132.675 182.004 132.801C182.216 132.927 182.392 133.108 182.514 133.326C182.641 133.108 182.708 132.86 182.71 132.607C182.71 132.226 182.561 131.86 182.298 131.59C182.034 131.32 181.676 131.168 181.303 131.168H175.22C174.847 131.168 174.489 131.32 174.225 131.59C173.962 131.86 173.813 132.226 173.813 132.607C173.815 132.86 173.882 133.108 174.008 133.326C174.131 133.108 174.307 132.926 174.52 132.8C174.733 132.674 174.975 132.607 175.221 132.607Z" fill="#FFBD00"/>
<path d="M214.227 103C214.89 104.77 214.227 106.966 212.704 108.042C213.676 107.798 214.717 108.008 215.62 108.448C216.524 108.888 217.312 109.548 218.049 110.234C217.767 109.853 217.579 109.409 217.5 108.938C217.42 108.467 217.453 107.984 217.594 107.528C217.925 106.498 218.771 105.748 219.582 105.05C218.733 105.39 217.755 105.283 216.918 104.913C216.081 104.542 215.296 104.234 214.664 103.556L214.227 103Z" fill="#FFBD00"/>
<path d="M213.485 111C213.786 111.452 213.719 112.086 213.461 112.569C213.202 113.052 212.788 113.419 212.38 113.776C212.933 113.512 213.595 113.576 214.148 113.846C214.7 114.116 215.142 114.571 215.506 115.071C215.297 114.573 215.209 114.03 215.249 113.489C215.307 112.951 215.568 112.421 216.014 112.133C215.162 112.295 214.296 112.22 213.83 111.47L213.485 111Z" fill="#FFBD00"/>
<path d="M182.631 114.093C182.758 113.185 182.631 112.259 182.264 111.423C182.254 111.407 182.24 111.394 182.224 111.385C182.208 111.375 182.189 111.371 182.171 111.372C182.152 111.372 182.134 111.378 182.118 111.388C182.102 111.398 182.09 111.412 182.081 111.429C181.7 112.382 181.404 113.368 181.194 114.375L181.347 114.305L178.729 113.129C178.708 113.117 178.684 113.112 178.661 113.116C178.637 113.12 178.616 113.132 178.6 113.15C178.584 113.168 178.574 113.191 178.572 113.215C178.57 113.239 178.577 113.264 178.59 113.284C178.958 113.934 179.363 114.56 179.803 115.16L179.867 114.998C178.898 115.272 177.915 115.489 176.922 115.649C176.825 115.664 176.831 115.805 176.902 115.848C177.676 116.324 178.467 116.766 179.277 117.175C179.399 117.236 179.5 117.046 179.378 116.985C178.563 116.576 177.77 116.134 176.999 115.658L176.978 115.857C177.971 115.697 178.954 115.48 179.923 115.206C179.939 115.202 179.954 115.194 179.966 115.182C179.979 115.171 179.989 115.157 179.995 115.141C180.001 115.125 180.003 115.108 180.002 115.091C180 115.074 179.995 115.057 179.986 115.043C179.546 114.443 179.14 113.817 178.772 113.168L178.633 113.323L181.246 114.496C181.261 114.504 181.276 114.508 181.292 114.509C181.308 114.51 181.324 114.506 181.339 114.5C181.354 114.493 181.367 114.483 181.377 114.47C181.388 114.458 181.395 114.443 181.399 114.427C181.604 113.438 181.894 112.47 182.266 111.534L182.084 111.538C182.425 112.321 182.543 113.189 182.424 114.038C182.404 114.176 182.609 114.229 182.628 114.089L182.631 114.093Z" fill="#FFBD02"/>
<path d="M170.746 130.662L173.081 131.151C173.208 131.178 173.183 131.386 173.054 131.358L170.722 130.87C170.595 130.843 170.62 130.635 170.749 130.663L170.746 130.662Z" fill="#FFBD02"/>
<path d="M172.395 128.616L173.937 130.482C174.021 130.584 173.877 130.731 173.792 130.629L172.25 128.763C172.166 128.661 172.31 128.514 172.395 128.616Z" fill="#FFBD02"/>
<path d="M174.554 128.275C174.742 129.068 174.81 129.327 174.993 130.119C175.025 130.249 174.831 130.315 174.8 130.183C174.613 129.389 174.544 129.132 174.361 128.339C174.33 128.208 174.523 128.144 174.554 128.275Z" fill="#FFBD02"/>
</g>
<path d="M151 81C165.912 81 178 68.9117 178 54C178 39.0883 165.912 27 151 27C136.088 27 124 39.0883 124 54C124 68.9117 136.088 81 151 81Z" fill="#E6F2FE"/>
<path d="M159.945 66.0293L158.001 63.4313L157.148 63.8699C156.909 64.6684 156.445 66.2789 156.5 66.3329C157.946 67.1697 159.399 66.4791 159.945 66.0293Z" fill="#5AAAF6"/>
<path d="M145.617 67.5793C144.443 64.0164 146.947 62.2035 148.346 61.7424C143.629 61.1436 142.57 64.3993 142.616 66.4854C142.623 66.7768 142.842 67.0115 143.128 67.07L145.617 67.5793Z" fill="#5AAAF6"/>
<path d="M147.253 60.8994C140.649 61.3583 139.839 66.1965 140.26 68.5583C139.668 68.3221 138.39 67.8092 138.008 67.6473C137.531 67.4449 137.497 67.2424 137.497 66.8038C138.042 61.7564 141.977 58.6276 143.876 57.6942C141.829 57.6267 139.884 55.8385 140.43 54.1515C141.42 50.7101 144.285 51.2837 145.513 52.2284C146.741 53.1731 147.56 52.9706 148.822 52.0597C149.832 51.3309 150.948 51.5986 151.381 51.8235C149.777 54.6239 146.018 53.8614 145.308 52.9706C144.421 51.8572 141.42 51.8235 141.181 54.1515C140.99 56.0139 142.784 56.7495 143.705 56.8844C150.187 58.099 154.417 51.6548 155.201 50.845C155.986 50.0353 156.252 49.7384 156.77 50.0353C162.74 52.7345 162.74 60.1234 162.74 59.8197C163.32 48.9894 153.359 47.4036 153.052 47.3361C152.745 47.2687 152.404 46.9987 152.54 45.9191C152.65 45.0554 153.132 44.8844 153.359 44.9069C156.497 45.3793 155.918 42.5451 159.397 43.2537C162.877 43.9622 164.446 41.3305 164.616 39.1037C165.408 41.9108 162.786 44.1421 161.376 44.9069C166.765 50.7776 165.026 58.3352 164.241 60.1234C163.456 61.9116 163.559 64.7457 164.446 65.7916C165.155 66.6284 165.378 67.8272 165.401 68.3221L162.842 68.0184C162.682 67.5738 162.255 66.8992 161.657 66.3986C161.162 65.9836 160.558 65.7029 160.095 65.2522C157.595 62.8181 157.827 60.0206 158.203 58.7401C157.575 59.9817 157.714 61.9791 157.862 62.8226C157.418 63.6998 154.792 63.8347 153.018 63.4973C151.244 63.1599 149.948 61.1693 147.253 60.8994Z" fill="#5AAAF6"/>
<path d="M151.109 41.3962C152.501 43.9604 155.191 43.9941 156.363 43.6904C155.885 44.1628 154.643 44.9523 153.497 44.3315C152.351 43.7107 151.428 42.1159 151.109 41.3962Z" fill="#5AAAF6"/>
<path d="M269.02 77C280.065 77 289.015 68.0457 289.01 57C289.004 45.9543 280.046 37 269 37C257.954 37 249.004 45.9543 249.01 57C249.015 68.0457 257.974 77 269.02 77Z" fill="#FFF5D9"/>
<path d="M276.999 60.7961C276.999 61.9145 277.001 63.0321 276.998 64.1505C276.997 64.7729 276.783 64.9963 276.204 64.9963C275.192 64.9971 274.18 64.9985 273.168 64.9971C272.626 64.9956 272.378 64.7384 272.378 64.1645C272.375 61.916 272.375 59.6681 272.378 57.4196C272.379 56.8295 272.634 56.5606 273.187 56.5584C274.187 56.5547 275.188 56.5532 276.188 56.5584C276.765 56.5606 276.995 56.8016 276.997 57.4056C277.001 58.5358 276.999 59.6659 276.999 60.7961Z" fill="#FFBD00"/>
<path d="M267.433 53.6654C267.823 54.1026 268.189 54.5288 268.572 54.9366C269.064 55.4598 268.936 55.4473 269.408 54.9505C270.663 53.6315 271.908 52.3045 273.169 50.9913C273.372 50.7804 273.406 50.6372 273.174 50.4351C272.917 50.2102 272.681 49.9604 272.437 49.7208C272.453 49.6767 272.47 49.6327 272.487 49.5886C272.824 49.5313 273.161 49.4747 273.498 49.4181C274.291 49.2844 275.085 49.1528 275.877 49.0154C276.083 48.9801 276.23 48.9823 276.183 49.2792C276.008 50.3947 275.843 51.5123 275.671 52.6285C275.658 52.7093 275.623 52.7858 275.568 52.9607C275.318 52.6991 275.109 52.4823 274.901 52.2633C274.561 51.904 274.562 51.9033 274.211 52.2736C272.581 53.9945 270.95 55.7162 269.319 57.4372C269.221 57.5401 269.12 57.6378 268.989 57.7701C268.467 57.1947 267.963 56.6399 267.418 56.0388C266.103 57.4511 264.844 58.8047 263.526 60.2199C263.148 59.7982 262.82 59.4506 262.522 59.0773C262.48 59.0251 262.547 58.8106 262.621 58.7305C263.462 57.8266 264.313 56.9346 265.162 56.0388C265.812 55.3525 266.463 54.6654 267.115 53.9799C267.196 53.8946 267.281 53.8153 267.433 53.6654Z" fill="#FFBD00"/>
<path d="M266.716 62.0761C266.715 61.3515 266.713 60.627 266.716 59.9025C266.718 59.3874 266.931 59.1515 267.413 59.1471C268.495 59.1383 269.576 59.1368 270.658 59.1397C271.035 59.1405 271.297 59.3969 271.3 59.8121C271.312 61.3104 271.311 62.8087 271.301 64.307C271.298 64.7412 271.051 64.9896 270.636 64.9933C269.543 65.0021 268.45 65.0028 267.356 64.9918C266.943 64.9881 266.72 64.7288 266.717 64.2871C266.712 63.5501 266.716 62.8131 266.716 62.0761Z" fill="#FFBD00"/>
<path d="M263.311 64.9972C262.788 64.9979 262.264 65.0016 261.741 64.9964C261.251 64.992 261.01 64.7422 261.005 64.2293C260.999 63.6275 260.998 63.0257 261.004 62.4246C261.01 61.8815 261.269 61.606 261.781 61.603C262.792 61.5979 263.803 61.5964 264.815 61.6045C265.357 61.6082 265.592 61.8727 265.592 62.4481C265.594 63.0492 265.597 63.651 265.592 64.2528C265.589 64.7517 265.359 64.992 264.881 64.9957C264.357 65.0008 263.834 64.9972 263.311 64.9972Z" fill="#FFBD00"/>
<path d="M113.017 209C122.406 209 130.013 201.389 130.008 192C130.004 182.611 122.389 175 113 175C103.611 175 96.0037 182.611 96.0084 192C96.013 201.389 103.628 209 113.017 209Z" fill="#E0F8EE"/>
<path d="M107.9 193.717V186.848H106.2C105.749 186.848 105.317 187.029 104.998 187.351C104.679 187.673 104.5 188.11 104.5 188.566V192C104.5 192.455 104.679 192.892 104.998 193.214C105.317 193.536 105.749 193.717 106.2 193.717H107.9ZM106.2 194.576C106.116 194.571 106.032 194.563 105.949 194.55L106.629 199.359C106.644 199.461 106.694 199.555 106.771 199.622C106.849 199.69 106.948 199.727 107.05 199.727H108.325C108.386 199.727 108.446 199.714 108.502 199.689C108.557 199.663 108.606 199.626 108.646 199.579C108.686 199.533 108.716 199.478 108.733 199.419C108.75 199.36 108.754 199.298 108.746 199.237L108.087 194.576H106.2ZM119.375 188.136C119.441 188.136 119.506 188.121 119.565 188.091L121.265 187.232C121.366 187.182 121.443 187.092 121.478 186.984C121.514 186.876 121.506 186.758 121.455 186.656C121.405 186.555 121.316 186.477 121.209 186.441C121.102 186.405 120.986 186.414 120.885 186.464L119.185 187.323C119.099 187.366 119.03 187.438 118.99 187.525C118.949 187.613 118.939 187.712 118.961 187.806C118.983 187.9 119.036 187.984 119.111 188.044C119.187 188.104 119.28 188.136 119.375 188.136ZM119.375 190.712H121.075C121.188 190.712 121.296 190.667 121.375 190.586C121.455 190.506 121.5 190.397 121.5 190.283C121.5 190.169 121.455 190.06 121.375 189.979C121.296 189.899 121.188 189.854 121.075 189.854H119.375C119.262 189.854 119.154 189.899 119.074 189.979C118.995 190.06 118.95 190.169 118.95 190.283C118.95 190.397 118.995 190.506 119.074 190.586C119.154 190.667 119.262 190.712 119.375 190.712ZM121.265 193.333L119.565 192.475C119.515 192.449 119.461 192.434 119.405 192.43C119.349 192.426 119.293 192.433 119.241 192.451C119.188 192.469 119.139 192.497 119.096 192.534C119.054 192.571 119.02 192.616 118.995 192.667C118.97 192.717 118.955 192.772 118.951 192.828C118.947 192.884 118.954 192.941 118.972 192.994C118.989 193.048 119.017 193.097 119.054 193.14C119.09 193.182 119.135 193.217 119.185 193.243L120.885 194.101C120.935 194.126 120.989 194.141 121.045 194.145C121.1 194.149 121.156 194.142 121.209 194.124C121.262 194.107 121.311 194.078 121.353 194.042C121.396 194.005 121.43 193.96 121.455 193.909C121.48 193.859 121.495 193.804 121.499 193.748C121.503 193.691 121.496 193.635 121.478 193.581C121.461 193.528 121.433 193.478 121.396 193.436C121.359 193.393 121.315 193.358 121.265 193.333V193.333ZM117.025 184.324C116.958 184.287 116.881 184.269 116.804 184.273C116.728 184.277 116.653 184.302 116.589 184.345C114.287 185.959 111.553 186.828 108.75 186.836V193.735C111.415 193.828 114.444 194.776 116.589 196.221C116.653 196.264 116.728 196.289 116.804 196.293C116.881 196.296 116.958 196.279 117.026 196.242C117.093 196.206 117.15 196.151 117.19 196.084C117.229 196.018 117.25 195.941 117.25 195.864V184.702C117.25 184.624 117.229 184.548 117.19 184.481C117.15 184.415 117.093 184.36 117.025 184.324Z" fill="#33CF90"/>
<path d="M94 146C106.15 146 116 136.15 116 124C116 111.85 106.15 102 94 102C81.8497 102 72 111.85 72 124C72 136.15 81.8497 146 94 146Z" fill="#FFEBE4"/>
<path fill-rule="evenodd" clip-rule="evenodd" d="M85.5669 125.941C86.8505 122.56 90.4449 119.929 90.4449 119.929H96.5338C99.7983 122.785 101.705 125.378 101.962 128.046C102.219 130.714 101.375 135.111 92.9758 134.998C84.5763 134.885 84.2831 129.323 85.5669 125.941ZM95.4404 126.003H94.6699C94.6066 125.709 94.4973 125.432 94.3363 125.178H95.4404C95.7567 125.178 96.0155 124.913 96.0155 124.589C96.0155 124.265 95.7567 124 95.4404 124H90.9435C90.6272 124 90.3684 124.265 90.3684 124.589C90.3684 124.913 90.6272 125.178 90.9435 125.178H92.2316C92.7722 125.178 93.2437 125.532 93.4565 126.003H90.9435C90.6272 126.003 90.3684 126.268 90.3684 126.592C90.3684 126.916 90.6272 127.181 90.9435 127.181H93.4565C93.3817 127.317 93.2955 127.441 93.192 127.553C92.9332 127.812 92.5882 127.953 92.2316 127.947H90.9435C90.6215 127.953 90.3627 128.218 90.3684 128.548C90.3684 128.707 90.4374 128.861 90.5467 128.973L93.7613 132.089C93.9913 132.313 94.3536 132.301 94.5721 132.066C94.7906 131.83 94.7791 131.459 94.5491 131.235L92.3811 129.132C92.9907 129.096 93.5658 128.837 93.997 128.395C94.3248 128.059 94.5549 127.641 94.6699 127.181H95.4404C95.7567 127.181 96.0155 126.916 96.0155 126.592C96.0155 126.268 95.7567 126.003 95.4404 126.003Z" fill="#FE794D"/>
<path d="M96.5795 119.027C96.5795 119.276 96.3824 119.478 96.1394 119.478H90.7476C90.5046 119.478 90.3074 119.276 90.3074 119.027C90.3074 118.778 90.5046 118.576 90.7476 118.576H96.1394C96.3824 118.576 96.5795 118.778 96.5795 119.027Z" fill="#FE794D"/>
<path d="M90.3074 118.125C90.3074 118.125 88.2443 114.292 88.0792 113.748C87.9143 113.203 88.5561 112.695 89.4363 113.221C90.3167 113.748 92.0591 113.992 92.6824 113.691C93.3058 113.39 95.1398 112.489 95.7451 113.39C96.3503 114.292 96.7719 114.273 97.3406 114.048C97.9092 113.823 98.4592 113.823 98.2024 114.424C97.9457 115.025 96.5795 118.125 96.5795 118.125H90.3074Z" fill="#FE794D"/>
<path d="M282.528 180.104C292.47 180.104 300.525 172.045 300.52 162.104C300.515 152.163 292.452 144.104 282.511 144.104C272.57 144.104 264.515 152.163 264.52 162.104C264.525 172.045 272.587 180.104 282.528 180.104Z" fill="#E0F8EE"/>
<path d="M290.271 165.674C289.951 165.351 289.471 165.351 289.151 165.674C288.751 166.076 288.271 166.479 287.791 166.882L285.711 162.935H287.071L289.391 155.121C289.551 154.718 289.311 154.234 288.831 154.154C288.431 153.993 287.951 154.234 287.871 154.718L285.951 161.323H278.511C278.031 161.323 277.711 161.646 277.711 162.129C277.711 162.612 278.031 162.935 278.511 162.935H279.311L277.231 166.801C276.751 166.479 276.271 166.076 275.871 165.593C275.551 165.271 275.071 165.271 274.751 165.593C274.431 165.915 274.431 166.399 274.751 166.721C276.831 168.896 279.551 170.104 282.511 170.104C285.471 170.104 288.191 168.896 290.271 166.721C290.591 166.479 290.591 165.915 290.271 165.674ZM278.591 167.687L281.071 163.015H283.871L286.351 167.687C285.231 168.251 283.871 168.574 282.511 168.574C281.151 168.574 279.791 168.251 278.591 167.687Z" fill="#33CF90"/>
<path d="M174.193 230.242L173.344 230.523C169.56 231.778 158.298 235.448 154.896 236.822C154.896 236.822 160.924 289.358 161.628 294.241C162.331 299.123 162.513 318.659 162.513 318.659H226.636C226.636 318.659 226.466 266.004 226.636 257.84C226.878 247.274 228.206 236.822 228.206 236.822L217.024 232.501L203.925 225.707L174.193 230.242Z" fill="#6B40DD"/>
<path opacity="0.2" d="M188.455 241.609C183.224 260.769 177.71 279.844 171.912 298.836C171.227 301.078 170.548 303.534 171.476 305.691C171.931 306.637 172.626 307.453 173.492 308.059C174.358 308.666 175.368 309.044 176.424 309.157C178.54 309.354 180.664 308.881 182.488 307.807C186.824 305.416 189.638 300.934 191.021 296.231C192.403 291.528 192.525 286.579 192.64 281.691L193.549 242.565L188.455 241.609Z" fill="#3E1A9D"/>
<path d="M154.896 236.822C154.896 236.822 145.491 240.928 146.224 257.398C146.577 264.585 147.318 271.749 148.444 278.858L174.89 271.346L168.165 242.744L154.896 236.822Z" fill="#6B40DD"/>
<path d="M217.63 263.332L216.217 282.336L242.803 273.856C242.803 273.856 237.102 240.3 228.073 236.804L218.34 253.197L217.63 263.332Z" fill="#6B40DD"/>
<path d="M220.662 257.84C220.688 257.968 220.704 258.098 220.711 258.229C220.711 258.515 220.759 258.88 220.79 259.34C220.844 260.344 220.923 261.731 221.02 263.428C221.19 266.888 221.378 271.663 221.548 276.94C221.718 282.217 221.875 286.962 221.99 290.458C222.045 292.155 222.087 293.548 222.118 294.552C222.118 295.012 222.118 295.382 222.118 295.669C222.133 295.798 222.133 295.929 222.118 296.058C222.093 295.929 222.076 295.8 222.069 295.669C222.069 295.382 222.021 295.018 221.99 294.558C221.936 293.554 221.857 292.167 221.76 290.464C221.59 287.01 221.402 282.229 221.226 276.952C221.05 271.675 220.905 266.93 220.79 263.44C220.735 261.737 220.693 260.35 220.662 259.346C220.662 258.886 220.662 258.515 220.662 258.229C220.646 258.1 220.646 257.969 220.662 257.84Z" fill="#3E1A9D"/>
<path d="M168.05 249.832C167.915 249.645 167.799 249.444 167.704 249.235L166.843 247.549C165.944 245.683 164.833 243.923 163.532 242.302C162.221 240.695 160.533 239.425 158.614 238.603C157.802 238.304 156.966 238.072 156.115 237.91C156.35 237.886 156.587 237.896 156.819 237.94C157.46 238.018 158.089 238.172 158.693 238.4C160.683 239.178 162.434 240.453 163.774 242.099C165.095 243.746 166.196 245.554 167.049 247.478C167.389 248.201 167.655 248.792 167.813 249.205C167.915 249.405 167.994 249.615 168.05 249.832Z" fill="#3E1A9D"/>
<path d="M223.743 236.027C223.093 237.456 222.534 238.923 222.069 240.42C221.705 241.946 221.438 243.493 221.269 245.051C221.184 244.592 221.167 244.123 221.22 243.659C221.278 242.536 221.457 241.422 221.754 240.336C222.042 239.25 222.449 238.198 222.967 237.199C223.166 236.773 223.427 236.378 223.743 236.027Z" fill="#8D61FF"/>
<path d="M164.611 244.209C164.611 244.209 164.514 244.209 164.35 244.239C164.103 244.299 163.886 244.448 163.744 244.657C163.523 244.98 163.383 245.351 163.338 245.739C163.298 245.991 163.235 246.239 163.15 246.48C163.048 246.767 162.86 247.017 162.61 247.197C162.297 247.352 161.945 247.415 161.596 247.378C161.248 247.341 160.917 247.205 160.645 246.988C160.081 246.48 159.605 245.885 159.238 245.225C159.026 244.903 158.759 244.62 158.45 244.388C158.14 244.154 157.76 244.028 157.37 244.029C157.178 244.044 156.993 244.106 156.831 244.211C156.67 244.315 156.538 244.459 156.449 244.627C156.272 245.002 156.177 245.409 156.17 245.822C156.133 246.264 156.127 246.713 156.079 247.155C156.045 247.612 155.897 248.053 155.648 248.44C155.583 248.537 155.506 248.625 155.418 248.703C155.337 248.787 155.243 248.858 155.139 248.912C154.938 249.026 154.715 249.095 154.484 249.115C154.052 249.152 153.617 249.072 153.229 248.882C152.562 248.501 151.99 247.978 151.555 247.352C151.186 246.836 150.733 246.384 150.215 246.013C149.802 245.706 149.284 245.571 148.771 245.637C148.393 245.712 148.057 245.926 147.831 246.235C147.691 246.434 147.621 246.673 147.631 246.916C147.631 247.083 147.692 247.167 147.674 247.173C147.616 247.101 147.58 247.014 147.571 246.922C147.527 246.66 147.583 246.392 147.728 246.169C147.954 245.806 148.316 245.544 148.735 245.44C149.298 245.351 149.875 245.482 150.342 245.804C150.886 246.181 151.365 246.641 151.761 247.167C152.18 247.754 152.724 248.244 153.356 248.601C153.697 248.762 154.076 248.83 154.454 248.798C154.643 248.781 154.825 248.723 154.988 248.626C155.151 248.53 155.289 248.399 155.393 248.243C155.836 247.591 155.788 246.671 155.854 245.774C155.858 245.309 155.965 244.85 156.17 244.43C156.288 244.218 156.458 244.038 156.664 243.908C156.871 243.777 157.107 243.7 157.352 243.683C157.792 243.71 158.218 243.848 158.589 244.082C158.96 244.316 159.265 244.639 159.475 245.021C159.822 245.657 160.268 246.236 160.797 246.737C161.026 246.932 161.307 247.058 161.608 247.1C161.908 247.141 162.214 247.096 162.489 246.97C162.876 246.634 163.119 246.166 163.168 245.661C163.232 245.253 163.397 244.868 163.647 244.537C163.808 244.323 164.047 244.18 164.314 244.137C164.418 244.129 164.522 244.154 164.611 244.209Z" fill="#8D61FF"/>
<path d="M169.99 253.023C170.007 253.138 170.007 253.255 169.99 253.37C169.949 253.699 169.836 254.016 169.656 254.296C169.365 254.751 168.943 255.109 168.444 255.324C168.117 255.479 167.759 255.556 167.397 255.551C167.035 255.546 166.679 255.458 166.357 255.294C165.648 254.954 165.054 254.29 164.235 254.063C163.416 253.836 162.489 254.386 161.961 255.181C161.433 255.976 161.191 257.033 160.633 258.013C160.346 258.524 159.928 258.95 159.42 259.251C159.152 259.42 158.846 259.521 158.529 259.546C158.211 259.571 157.893 259.519 157.601 259.394C157.066 259.099 156.628 258.659 156.339 258.127C156.042 257.637 155.794 257.141 155.49 256.711C155.231 256.277 154.822 255.951 154.338 255.79C154.107 255.732 153.865 255.724 153.63 255.769C153.395 255.813 153.173 255.908 152.98 256.047C152.24 256.619 151.673 257.379 151.343 258.247C151.014 259.01 150.633 259.751 150.202 260.464C149.904 260.988 149.485 261.434 148.978 261.768C148.471 262.101 147.891 262.312 147.286 262.382C146.949 262.402 146.612 262.343 146.303 262.209C146.221 262.179 146.144 262.139 146.073 262.089L146 262.035C146.399 262.214 146.836 262.292 147.273 262.263C147.863 262.18 148.425 261.962 148.912 261.626C149.4 261.289 149.801 260.844 150.081 260.326C150.494 259.616 150.859 258.879 151.173 258.121C151.513 257.205 152.105 256.4 152.883 255.796C153.109 255.631 153.369 255.517 153.645 255.464C153.921 255.41 154.205 255.417 154.478 255.486C155.033 255.659 155.507 256.024 155.812 256.513C156.133 256.98 156.382 257.476 156.673 257.948C156.931 258.427 157.322 258.823 157.801 259.089C158.045 259.192 158.31 259.234 158.575 259.212C158.839 259.19 159.094 259.105 159.317 258.964C159.776 258.689 160.154 258.302 160.415 257.84C160.948 256.926 161.173 255.868 161.773 255.002C162.06 254.577 162.444 254.225 162.895 253.974C163.338 253.73 163.86 253.665 164.35 253.794C164.779 253.931 165.178 254.146 165.527 254.428C165.837 254.669 166.166 254.886 166.509 255.079C166.8 255.236 167.125 255.324 167.456 255.335C167.788 255.347 168.118 255.282 168.419 255.145C168.858 254.968 169.239 254.674 169.519 254.296C169.798 253.919 169.965 253.472 170.002 253.005L169.99 253.023Z" fill="#8D61FF"/>
<path d="M166.897 265.788C166.897 265.788 166.818 265.788 166.679 265.753C166.461 265.739 166.245 265.805 166.072 265.938C165.809 266.151 165.616 266.436 165.515 266.757C165.388 267.192 165.367 267.651 165.454 268.095C165.565 268.672 165.522 269.268 165.327 269.822C165.162 270.139 164.907 270.402 164.594 270.579C164.281 270.756 163.922 270.84 163.562 270.82C163.166 270.816 162.776 270.729 162.417 270.564C162.058 270.399 161.739 270.16 161.482 269.864C160.936 269.238 160.488 268.535 160.154 267.779L160.269 267.856C159.946 267.83 159.621 267.891 159.33 268.034C159.04 268.176 158.794 268.393 158.62 268.663C158.22 269.251 157.98 269.93 157.922 270.635C157.856 271.178 157.757 271.717 157.625 272.249C157.485 272.785 157.214 273.279 156.837 273.689C156.654 273.898 156.428 274.066 156.174 274.181C155.919 274.296 155.643 274.357 155.363 274.358C154.832 274.327 154.329 274.115 153.938 273.761C153.162 273.109 152.774 272.243 152.246 271.609C152.03 271.298 151.745 271.04 151.413 270.852C151.082 270.665 150.711 270.554 150.33 270.528C149.69 270.492 149.063 270.707 148.583 271.125C148.226 271.446 147.969 271.861 147.844 272.32C147.742 272.721 147.724 273.138 147.789 273.545C147.789 273.545 147.789 273.545 147.753 273.468C147.726 273.39 147.706 273.31 147.692 273.229C147.64 272.917 147.65 272.598 147.722 272.291C147.817 271.909 147.998 271.555 148.253 271.253C148.508 270.952 148.83 270.713 149.193 270.553C149.557 270.393 149.953 270.317 150.35 270.332C150.748 270.346 151.137 270.45 151.488 270.635C151.861 270.848 152.188 271.13 152.452 271.466C153.016 272.135 153.404 272.978 154.126 273.563C154.467 273.873 154.906 274.057 155.369 274.083C155.603 274.073 155.831 274.014 156.04 273.912C156.249 273.809 156.434 273.663 156.582 273.486C156.921 273.108 157.166 272.658 157.298 272.171C157.42 271.648 157.515 271.12 157.583 270.587C157.647 269.832 157.908 269.105 158.341 268.478C158.548 268.164 158.84 267.912 159.183 267.751C159.527 267.589 159.909 267.525 160.287 267.563H160.366V267.635C160.685 268.367 161.109 269.05 161.627 269.661C161.858 269.932 162.144 270.151 162.467 270.304C162.79 270.458 163.143 270.542 163.501 270.551C163.815 270.576 164.128 270.51 164.404 270.362C164.68 270.213 164.906 269.988 165.054 269.715C165.244 269.197 165.296 268.639 165.205 268.095C165.128 267.625 165.165 267.144 165.314 266.691C165.43 266.357 165.641 266.062 165.921 265.842C166.014 265.775 166.12 265.728 166.233 265.702C166.345 265.676 166.462 265.673 166.576 265.693C166.691 265.685 166.806 265.719 166.897 265.788Z" fill="#8D61FF"/>
<path d="M240.516 263.261C240.516 263.261 240.401 263.261 240.213 263.344C239.933 263.45 239.693 263.641 239.528 263.888C239.267 264.281 239.084 264.719 238.988 265.179C238.897 265.816 238.724 266.438 238.473 267.032C238.313 267.393 238.044 267.698 237.703 267.904C237.507 268.01 237.288 268.068 237.064 268.075C236.841 268.081 236.619 268.035 236.417 267.94C236.011 267.723 235.673 267.401 235.441 267.008C235.191 266.618 234.976 266.209 234.798 265.783C234.604 265.362 234.335 264.98 234.004 264.653C233.858 264.481 233.67 264.349 233.458 264.268C233.245 264.188 233.016 264.162 232.791 264.193C232.567 264.26 232.369 264.391 232.222 264.57C232.075 264.749 231.986 264.968 231.966 265.197C231.893 265.711 231.866 266.231 231.887 266.751C231.915 267.849 231.518 268.917 230.777 269.739C230.421 270.121 229.957 270.389 229.445 270.509C228.933 270.629 228.396 270.596 227.903 270.414C226.975 270.002 226.417 269.249 225.799 268.723C225.553 268.447 225.239 268.239 224.887 268.119C224.535 267.999 224.158 267.97 223.791 268.036C223.192 268.206 222.678 268.589 222.348 269.111C222.095 269.511 221.902 269.946 221.778 270.402C221.572 271.155 221.505 271.597 221.475 271.597C221.461 271.492 221.461 271.386 221.475 271.281C221.505 271.071 221.548 270.767 221.639 270.378C221.744 269.903 221.924 269.448 222.172 269.028C222.519 268.456 223.067 268.03 223.713 267.832C224.099 267.732 224.507 267.749 224.883 267.88C225.277 268.032 225.639 268.255 225.95 268.538C226.593 269.081 227.163 269.81 227.988 270.163C228.428 270.319 228.905 270.342 229.358 270.231C229.812 270.119 230.221 269.877 230.535 269.536C231.228 268.769 231.601 267.772 231.578 266.745C231.555 266.205 231.584 265.665 231.663 265.131C231.717 264.852 231.831 264.587 231.996 264.354C232.181 264.126 232.437 263.964 232.724 263.894C233 263.854 233.283 263.883 233.545 263.979C233.807 264.075 234.04 264.235 234.222 264.444C234.569 264.791 234.853 265.196 235.059 265.639C235.231 266.052 235.433 266.451 235.665 266.834C235.873 267.184 236.17 267.474 236.526 267.677C236.689 267.76 236.87 267.803 237.054 267.803C237.237 267.803 237.418 267.76 237.581 267.677C237.883 267.499 238.122 267.234 238.267 266.918C238.524 266.345 238.707 265.743 238.812 265.125C238.922 264.649 239.128 264.2 239.419 263.804C239.604 263.549 239.871 263.362 240.177 263.273C240.287 263.242 240.404 263.238 240.516 263.261Z" fill="#8D61FF"/>
<path d="M237.363 249.235C237.336 249.314 237.298 249.388 237.248 249.456C237.169 249.593 237.042 249.79 236.866 250.053C236.654 250.362 236.412 250.651 236.144 250.914C235.783 251.273 235.34 251.541 234.853 251.697C234.555 251.797 234.239 251.835 233.925 251.807C233.612 251.779 233.308 251.687 233.033 251.535C232.427 251.171 232.136 250.472 231.59 250.095C231.459 250.003 231.305 249.945 231.145 249.928C230.984 249.912 230.822 249.936 230.674 250C230.362 250.167 230.114 250.432 229.971 250.753C229.801 251.09 229.703 251.458 229.68 251.834C229.68 252.229 229.68 252.641 229.68 253.059C229.674 253.486 229.592 253.909 229.437 254.308C229.265 254.709 228.947 255.031 228.546 255.211C228.169 255.352 227.767 255.414 227.364 255.391C226.962 255.369 226.569 255.262 226.211 255.079C225.591 254.76 225.006 254.38 224.465 253.944C224.003 253.587 223.485 253.308 222.93 253.119C222.476 252.982 221.987 253.006 221.548 253.185C221.208 253.31 220.915 253.533 220.705 253.824C220.535 254.08 220.462 254.387 220.499 254.691C220.499 254.691 220.456 254.613 220.432 254.452C220.41 254.209 220.467 253.966 220.596 253.759C220.808 253.434 221.114 253.18 221.475 253.029C221.949 252.813 222.486 252.768 222.991 252.904C223.577 253.087 224.127 253.368 224.616 253.735C225.149 254.149 225.722 254.511 226.326 254.816C226.646 254.978 226.997 255.073 227.357 255.093C227.716 255.114 228.075 255.06 228.412 254.936C228.742 254.775 229.001 254.501 229.14 254.165C229.277 253.799 229.349 253.413 229.352 253.023C229.352 252.617 229.352 252.211 229.352 251.798C229.376 251.382 229.487 250.975 229.68 250.603C229.856 250.219 230.16 249.905 230.541 249.713C230.736 249.626 230.951 249.592 231.164 249.614C231.377 249.636 231.581 249.714 231.754 249.838C232.397 250.31 232.651 250.992 233.173 251.302C233.419 251.441 233.692 251.527 233.974 251.556C234.255 251.585 234.54 251.556 234.81 251.47C235.263 251.331 235.678 251.091 236.023 250.77C236.292 250.521 236.542 250.251 236.769 249.964C236.951 249.709 237.15 249.465 237.363 249.235Z" fill="#8D61FF"/>
<path d="M221.875 283.603C221.803 283.746 221.694 283.867 221.56 283.956C221.365 284.079 221.147 284.161 220.918 284.198C220.69 284.235 220.456 284.226 220.232 284.171C219.904 284.113 219.587 284.006 219.292 283.854C218.955 283.664 218.629 283.454 218.316 283.227C217.962 282.972 217.579 282.757 217.176 282.587C216.738 282.405 216.246 282.392 215.799 282.552C215.319 282.768 214.921 283.13 214.665 283.585C214.367 284.085 214.104 284.605 213.877 285.139C213.634 285.731 213.325 286.294 212.955 286.819C212.74 287.087 212.474 287.313 212.173 287.482C212.015 287.578 211.84 287.643 211.657 287.673C211.566 287.673 211.481 287.715 211.39 287.727H211.111C210.731 287.71 210.364 287.583 210.056 287.362C209.754 287.149 209.484 286.893 209.256 286.603C208.789 286.006 208.407 285.408 207.952 284.811C207.543 284.206 206.945 283.75 206.248 283.514C205.881 283.438 205.502 283.437 205.134 283.512C204.767 283.587 204.419 283.736 204.113 283.95C203.471 284.367 202.934 284.923 202.543 285.575C202.13 286.215 201.797 286.89 201.409 287.542C201.047 288.198 200.575 288.79 200.014 289.293C199.467 289.791 198.78 290.114 198.043 290.219C197.326 290.282 196.613 290.068 196.054 289.621C195.557 289.208 195.124 288.724 194.768 288.187C194.065 287.189 193.446 286.215 192.579 285.677C192.178 285.415 191.708 285.273 191.227 285.271C190.796 285.283 190.371 285.379 189.978 285.552C189.338 285.835 188.799 286.301 188.431 286.89C188.199 287.263 188.062 287.685 188.031 288.121C188.031 288.42 188.031 288.581 188.031 288.581C188.031 288.581 188.031 288.546 188.031 288.468C188.012 288.353 188 288.237 187.995 288.121C188.001 287.667 188.127 287.223 188.358 286.83C188.72 286.205 189.268 285.704 189.929 285.396C190.345 285.202 190.797 285.092 191.257 285.073C191.779 285.072 192.29 285.217 192.731 285.492C193.665 286.06 194.301 287.064 195.011 288.038C195.357 288.548 195.776 289.007 196.254 289.4C196.503 289.599 196.789 289.747 197.096 289.836C197.403 289.926 197.725 289.954 198.043 289.92C198.725 289.822 199.36 289.52 199.862 289.054C200.396 288.572 200.843 288.004 201.184 287.374C201.56 286.741 201.9 286.054 202.324 285.396C202.737 284.704 203.305 284.116 203.986 283.675C204.329 283.44 204.718 283.277 205.128 283.194C205.537 283.112 205.96 283.113 206.369 283.197C207.131 283.455 207.786 283.95 208.237 284.607C208.71 285.205 209.086 285.838 209.529 286.4C209.71 286.678 209.951 286.913 210.233 287.09C210.516 287.268 210.834 287.383 211.166 287.428C211.482 287.436 211.794 287.366 212.076 287.226C212.357 287.085 212.599 286.877 212.779 286.621C213.137 286.114 213.44 285.572 213.683 285.002C213.919 284.458 214.192 283.931 214.501 283.424C214.788 282.929 215.231 282.539 215.763 282.313C216.264 282.145 216.81 282.167 217.297 282.372C217.709 282.553 218.098 282.782 218.455 283.054C218.759 283.286 219.077 283.5 219.407 283.693C219.686 283.845 219.987 283.956 220.299 284.022C220.51 284.081 220.732 284.098 220.95 284.072C221.169 284.046 221.38 283.978 221.572 283.872C221.68 283.79 221.781 283.7 221.875 283.603Z" fill="#8D61FF"/>
<path d="M220.711 263.721C220.711 263.721 220.711 263.751 220.662 263.816C220.598 263.904 220.513 263.974 220.414 264.02C220.217 264.093 220.005 264.122 219.795 264.103C219.585 264.084 219.382 264.019 219.201 263.912C218.698 263.685 218.31 263.123 217.642 262.86C217.472 262.792 217.286 262.772 217.105 262.802C216.924 262.833 216.755 262.913 216.618 263.033C216.338 263.356 216.147 263.742 216.06 264.157C215.94 264.636 215.773 265.102 215.562 265.549C215.437 265.795 215.259 266.011 215.041 266.183C214.803 266.356 214.523 266.463 214.228 266.494C213.016 266.613 211.888 265.824 211.111 264.886C210.706 264.414 210.258 263.98 209.771 263.589C209.266 263.207 208.642 263.011 208.007 263.033C207.335 263.111 206.686 263.325 206.104 263.664C205.521 264.003 205.016 264.457 204.623 265C203.756 266.099 203.173 267.39 202.409 268.49C201.716 269.633 200.646 270.506 199.377 270.964C198.777 271.17 198.131 271.209 197.509 271.077C196.928 270.926 196.404 270.613 195.999 270.175C195.217 269.38 194.702 268.46 193.919 267.988C193.558 267.762 193.133 267.655 192.707 267.683C192.326 267.717 191.962 267.851 191.651 268.071C191.144 268.441 190.715 268.906 190.39 269.44C189.838 270.312 189.644 270.862 189.614 270.844C189.641 270.708 189.686 270.575 189.747 270.45C189.901 270.079 190.082 269.72 190.287 269.374C190.606 268.815 191.035 268.323 191.548 267.928C191.882 267.679 192.278 267.526 192.694 267.486C193.166 267.448 193.637 267.559 194.041 267.802C194.896 268.31 195.423 269.243 196.181 269.996C196.569 270.399 197.069 270.682 197.619 270.808C198.189 270.929 198.782 270.888 199.329 270.689C200.53 270.237 201.537 269.393 202.185 268.298C202.931 267.205 203.507 265.908 204.404 264.784C204.826 264.203 205.369 263.717 205.996 263.358C206.624 263 207.321 262.777 208.043 262.705C208.744 262.68 209.432 262.89 209.996 263.302C210.495 263.706 210.954 264.156 211.366 264.647C211.735 265.104 212.183 265.495 212.688 265.8C213.153 266.084 213.694 266.221 214.24 266.195C214.487 266.169 214.722 266.081 214.924 265.94C215.125 265.799 215.287 265.609 215.393 265.388C215.6 264.956 215.767 264.506 215.89 264.043C215.995 263.598 216.214 263.186 216.527 262.848C216.691 262.709 216.892 262.618 217.106 262.585C217.321 262.553 217.54 262.579 217.74 262.663C218.467 262.974 218.837 263.553 219.298 263.769C219.462 263.874 219.647 263.943 219.841 263.971C220.035 263.999 220.232 263.985 220.42 263.93C220.662 263.858 220.693 263.703 220.711 263.721Z" fill="#8D61FF"/>
<path d="M221.02 243.097C221.02 243.097 220.923 243.001 220.711 242.888C220.39 242.741 220.025 242.715 219.686 242.816C219.418 242.889 219.168 243.016 218.952 243.189C218.736 243.362 218.559 243.577 218.431 243.82C218.107 244.492 217.855 245.195 217.679 245.918C217.546 246.341 217.352 246.744 217.103 247.113C216.81 247.533 216.383 247.845 215.89 247.998C215.365 248.134 214.811 248.117 214.295 247.95C213.761 247.79 213.254 247.552 212.791 247.245C211.851 246.647 210.972 245.846 209.789 245.643C209.208 245.552 208.613 245.648 208.091 245.918C207.543 246.203 207.054 246.586 206.648 247.047C205.787 247.956 205.205 249.079 204.392 250C204.005 250.463 203.549 250.866 203.04 251.195C202.538 251.52 201.955 251.704 201.354 251.727C200.257 251.679 199.21 251.257 198.395 250.531C197.612 249.934 196.958 249.27 196.266 248.81C195.67 248.37 194.955 248.114 194.21 248.075C193.649 248.073 193.101 248.246 192.646 248.571C192.364 248.775 192.153 249.058 192.04 249.384C191.955 249.611 191.955 249.743 191.936 249.743C191.925 249.616 191.939 249.487 191.979 249.366C192.076 249.012 192.289 248.699 192.585 248.476C193.05 248.105 193.625 247.895 194.223 247.878C195.013 247.9 195.776 248.166 196.406 248.637C197.127 249.097 197.8 249.737 198.577 250.334C199.344 251.016 200.328 251.413 201.36 251.458C201.921 251.393 202.462 251.212 202.947 250.927C203.432 250.642 203.85 250.258 204.174 249.802C204.956 248.912 205.538 247.788 206.436 246.814C206.867 246.327 207.385 245.922 207.964 245.619C208.549 245.326 209.213 245.222 209.862 245.32C211.142 245.559 212.057 246.402 212.967 246.988C213.877 247.573 214.92 247.98 215.829 247.729C216.264 247.597 216.642 247.325 216.903 246.958C217.145 246.606 217.335 246.221 217.467 245.816C217.661 245.087 217.933 244.379 218.279 243.707C218.442 243.431 218.659 243.189 218.916 242.995C219.138 242.838 219.389 242.727 219.656 242.667C220.022 242.57 220.412 242.62 220.741 242.804C220.86 242.875 220.956 242.976 221.02 243.097Z" fill="#8D61FF"/>
<path d="M217.903 233.398C217.903 233.398 217.903 233.475 217.873 233.619C217.816 233.823 217.743 234.023 217.655 234.217C217.514 234.542 217.293 234.827 217.012 235.047C216.805 235.188 216.556 235.256 216.305 235.24C216.054 235.223 215.816 235.124 215.629 234.958C215.257 234.543 214.943 234.08 214.695 233.583C214.541 233.342 214.334 233.137 214.089 232.985C213.835 232.825 213.542 232.734 213.24 232.722C212.907 232.706 212.574 232.757 212.261 232.871C211.949 232.985 211.663 233.16 211.421 233.386C210.895 233.889 210.469 234.485 210.165 235.143C209.998 235.498 209.784 235.829 209.529 236.129C209.396 236.289 209.227 236.417 209.036 236.501C208.844 236.585 208.635 236.624 208.425 236.613C208.226 236.585 208.035 236.517 207.863 236.414C207.691 236.312 207.542 236.176 207.424 236.015C207.197 235.737 207.026 235.419 206.921 235.077C206.799 234.485 206.532 233.931 206.145 233.464C205.974 233.279 205.75 233.151 205.502 233.099C205.387 233.083 205.269 233.092 205.158 233.127C205.047 233.161 204.945 233.219 204.859 233.296C204.57 233.614 204.362 233.995 204.253 234.408C204.147 234.742 203.969 235.05 203.731 235.31C203.583 235.482 203.38 235.598 203.155 235.639C203.078 235.66 202.996 235.66 202.919 235.639C203.203 235.606 203.462 235.464 203.64 235.244C203.846 234.983 203.998 234.685 204.089 234.366C204.196 233.91 204.42 233.488 204.738 233.141C204.848 233.041 204.979 232.966 205.121 232.919C205.263 232.873 205.414 232.857 205.563 232.872C205.875 232.916 206.166 233.056 206.393 233.272C206.822 233.762 207.12 234.349 207.261 234.981C207.363 235.287 207.519 235.572 207.721 235.824C207.915 236.075 208.2 236.24 208.516 236.284C208.678 236.29 208.84 236.258 208.988 236.19C209.135 236.123 209.265 236.022 209.365 235.896C209.604 235.616 209.808 235.309 209.971 234.981C210.291 234.288 210.741 233.661 211.299 233.135C211.571 232.885 211.891 232.692 212.24 232.568C212.589 232.443 212.96 232.39 213.331 232.412C213.681 232.432 214.02 232.544 214.313 232.734C214.581 232.923 214.802 233.168 214.962 233.452C215.193 233.934 215.482 234.388 215.823 234.802C215.972 234.944 216.165 235.031 216.371 235.051C216.577 235.07 216.784 235.021 216.957 234.91C217.215 234.713 217.423 234.459 217.564 234.169C217.8 233.697 217.879 233.386 217.903 233.398Z" fill="#8D61FF"/>
<path d="M178.365 233.446C178.4 233.536 178.42 233.63 178.425 233.726C178.464 234 178.488 234.275 178.498 234.551C178.519 234.993 178.465 235.435 178.34 235.86C178.251 236.149 178.103 236.417 177.905 236.647C177.707 236.877 177.463 237.065 177.188 237.199C176.859 237.363 176.481 237.41 176.121 237.33C175.741 237.23 175.408 237.001 175.181 236.685C174.945 236.374 174.763 236.021 174.575 235.693C174.384 235.357 174.088 235.091 173.732 234.934C173.331 234.828 172.906 234.861 172.526 235.026C172.147 235.191 171.836 235.479 171.646 235.842C171.433 236.238 171.305 236.674 171.27 237.121C171.237 237.592 171.237 238.066 171.27 238.537C171.318 239.034 171.281 239.535 171.16 240.019C171.035 240.507 170.733 240.932 170.311 241.215C170.094 241.342 169.85 241.418 169.598 241.439C169.346 241.46 169.092 241.424 168.856 241.334C168.424 241.17 168.033 240.915 167.71 240.587C167.104 239.954 166.709 239.236 166.182 238.729C165.949 238.485 165.667 238.294 165.353 238.169C165.039 238.043 164.701 237.985 164.363 237.999C163.798 238.022 163.263 238.25 162.859 238.639C162.564 238.941 162.355 239.314 162.252 239.721C162.17 240.077 162.152 240.445 162.198 240.808C162.149 240.722 162.121 240.626 162.113 240.527C162.059 240.253 162.059 239.971 162.113 239.697C162.199 239.251 162.409 238.837 162.719 238.501C163.146 238.065 163.724 237.804 164.338 237.772C164.71 237.746 165.082 237.801 165.43 237.932C165.778 238.063 166.092 238.268 166.352 238.531C166.922 239.063 167.328 239.792 167.904 240.372C168.198 240.665 168.551 240.893 168.941 241.041C169.137 241.118 169.348 241.149 169.559 241.133C169.769 241.116 169.973 241.052 170.154 240.946C170.513 240.694 170.767 240.322 170.869 239.9C170.974 239.447 171.004 238.981 170.96 238.519C170.799 237.547 170.938 236.55 171.361 235.657C171.496 235.327 171.725 235.042 172.02 234.837C172.315 234.631 172.664 234.514 173.025 234.498C173.386 234.482 173.744 234.569 174.056 234.748C174.368 234.927 174.622 235.191 174.787 235.507C175.011 235.854 175.181 236.207 175.393 236.493C175.575 236.781 175.858 236.994 176.188 237.091C176.493 237.165 176.815 237.131 177.097 236.995C177.351 236.88 177.577 236.714 177.763 236.508C177.949 236.303 178.09 236.062 178.177 235.8C178.313 235.395 178.383 234.972 178.383 234.545C178.377 233.84 178.334 233.446 178.365 233.446Z" fill="#8D61FF"/>
<path d="M210.85 164.63C206.739 163.758 202.876 167.618 198.722 167.188C196.187 166.913 194.138 165.108 191.815 164.075C188.34 162.521 183.622 162.616 180.378 164.594C177.134 166.573 175.108 168.569 174.963 172.322C171.73 170.84 166.909 175.095 165.478 178.931C164.047 182.768 164.811 186.551 166.145 190.423C168.447 197.107 172.057 203.282 176.77 208.597C177.188 209.063 177.831 209.565 178.383 209.254C178.551 209.116 178.684 208.941 178.77 208.742C178.857 208.544 178.894 208.328 178.88 208.113C179.159 204.449 178.377 200.792 177.746 197.17C177.115 193.549 176.636 189.796 177.51 186.216C178.383 182.636 180.869 179.242 184.453 178.226C187.103 177.473 189.978 178.107 192.482 179.23C194.987 180.354 197.248 181.955 199.662 183.27C202.076 184.585 204.744 185.66 207.497 185.535C210.25 185.409 213.082 183.903 214.04 181.352C214.998 178.8 213.385 175.447 210.656 175.13C211.895 174.917 213.019 174.285 213.836 173.344C214.654 172.402 215.113 171.21 215.136 169.971C215.159 168.732 214.744 167.524 213.962 166.554C213.18 165.584 212.08 164.912 210.85 164.654V164.63Z" fill="#132056"/>
<path d="M203.95 229.095L202.894 221.296C202.894 221.296 213.204 218.445 212.064 208.089C211.518 203.087 209.541 192.88 207.649 183.658C206.665 178.877 203.89 174.637 199.878 171.78C195.865 168.923 190.909 167.659 185.994 168.24L184.981 168.359C174.138 170.278 169.735 180.425 171.985 191.069L178.092 232.663C178.588 236.025 180.413 239.058 183.169 241.1C185.925 243.142 189.388 244.028 192.804 243.563C196.227 243.099 199.324 241.314 201.414 238.602C203.504 235.889 204.416 232.47 203.95 229.095Z" fill="#FFA283"/>
<path opacity="0.2" d="M202.906 221.29C198.07 221.952 193.142 221.18 188.752 219.073C188.752 219.073 192.894 226.137 203.252 223.967L202.906 221.29Z" fill="#132056"/>
<path d="M204.416 189.939C204.478 190.329 204.381 190.728 204.148 191.049C203.914 191.369 203.562 191.587 203.167 191.654C202.974 191.69 202.776 191.686 202.584 191.645C202.393 191.604 202.211 191.525 202.051 191.414C201.89 191.302 201.754 191.161 201.65 190.997C201.546 190.833 201.476 190.65 201.445 190.459C201.385 190.068 201.482 189.668 201.717 189.347C201.952 189.025 202.304 188.807 202.7 188.738C202.893 188.704 203.091 188.708 203.282 188.75C203.473 188.792 203.654 188.871 203.814 188.983C203.974 189.095 204.109 189.237 204.213 189.402C204.316 189.566 204.385 189.748 204.416 189.939Z" fill="#132056"/>
<path d="M206.005 189.67C205.841 189.885 204.604 189.186 202.973 189.383C201.342 189.581 200.28 190.513 200.08 190.34C199.983 190.262 200.129 189.891 200.602 189.461C201.243 188.905 202.04 188.555 202.888 188.457C203.726 188.357 204.575 188.52 205.314 188.923C205.878 189.24 206.108 189.569 206.005 189.67Z" fill="#132056"/>
<path d="M189.062 191.212C189.128 191.601 189.039 192 188.813 192.326C188.586 192.651 188.241 192.878 187.849 192.957C187.653 192.991 187.453 192.986 187.26 192.942C187.066 192.898 186.884 192.816 186.723 192.702C186.562 192.587 186.427 192.441 186.324 192.274C186.222 192.106 186.155 191.92 186.127 191.726C186.061 191.332 186.154 190.928 186.387 190.601C186.619 190.274 186.972 190.049 187.37 189.975C187.564 189.946 187.761 189.954 187.952 190C188.142 190.047 188.321 190.13 188.478 190.245C188.636 190.36 188.768 190.505 188.868 190.671C188.969 190.837 189.034 191.021 189.062 191.212Z" fill="#132056"/>
<path d="M190.523 190.907C190.36 191.123 189.122 190.429 187.491 190.627C185.86 190.824 184.793 191.756 184.592 191.577C184.495 191.505 184.641 191.135 185.114 190.704C185.752 190.144 186.551 189.793 187.4 189.7C188.238 189.597 189.088 189.76 189.826 190.166C190.396 190.483 190.602 190.812 190.523 190.907Z" fill="#132056"/>
<path d="M197.479 202.244C197.479 202.155 198.443 201.868 200.038 201.473C200.444 201.378 200.826 201.252 200.863 200.971C200.851 200.54 200.705 200.123 200.444 199.776C199.935 198.84 199.403 197.858 198.849 196.83C196.618 192.646 194.956 189.156 195.126 189.061C195.296 188.965 197.242 192.306 199.474 196.507C200.014 197.547 200.529 198.533 201.014 199.495C201.334 199.956 201.479 200.512 201.427 201.067C201.384 201.217 201.307 201.355 201.202 201.471C201.097 201.587 200.966 201.677 200.82 201.736C200.601 201.825 200.37 201.886 200.135 201.915C198.51 202.208 197.497 202.334 197.479 202.244Z" fill="#132056"/>
<path d="M192.864 203.905C193.125 203.864 193.337 205.585 194.986 206.637C196.636 207.688 198.473 207.27 198.516 207.509C198.558 207.617 198.146 207.892 197.358 208.011C196.334 208.145 195.296 207.92 194.423 207.378C193.585 206.852 192.987 206.028 192.755 205.077C192.603 204.36 192.767 203.911 192.864 203.905Z" fill="#132056"/>
<path d="M189.735 183.64C189.632 184.089 187.994 184.077 186.096 184.525C184.198 184.973 182.767 185.66 182.458 185.302C182.318 185.128 182.537 184.704 183.101 184.202C183.863 183.592 184.756 183.161 185.712 182.942C186.668 182.722 187.662 182.72 188.619 182.935C189.365 183.126 189.735 183.425 189.735 183.64Z" fill="#132056"/>
<path d="M204.853 184.447C204.61 184.842 203.458 184.603 202.118 184.74C200.778 184.877 199.692 185.278 199.371 184.931C199.237 184.758 199.371 184.375 199.826 183.975C200.44 183.486 201.188 183.189 201.974 183.121C202.76 183.053 203.549 183.217 204.24 183.593C204.756 183.903 204.956 184.262 204.853 184.447Z" fill="#132056"/>
<path d="M173.774 198.611C173.586 198.557 166.303 197.362 167.395 204.408C168.486 211.453 175.436 208.919 175.418 208.716C175.399 208.513 173.774 198.611 173.774 198.611Z" fill="#FFA283"/>
<path opacity="0.2" d="M172.822 206.374C172.786 206.374 172.713 206.475 172.519 206.607C172.241 206.773 171.909 206.828 171.591 206.762C170.791 206.607 169.972 205.519 169.741 204.252C169.629 203.657 169.654 203.044 169.814 202.459C169.848 202.228 169.938 202.009 170.076 201.819C170.214 201.63 170.397 201.476 170.609 201.372C170.746 201.313 170.9 201.303 171.044 201.345C171.188 201.386 171.313 201.476 171.397 201.599C171.518 201.784 171.5 201.927 171.536 201.933C171.573 201.939 171.67 201.796 171.536 201.515C171.473 201.345 171.351 201.203 171.191 201.115C170.972 200.997 170.715 200.97 170.475 201.037C170.19 201.138 169.936 201.31 169.737 201.536C169.538 201.762 169.402 202.035 169.341 202.328C169.132 202.983 169.089 203.678 169.214 204.354C169.481 205.764 170.427 206.983 171.5 207.121C171.701 207.148 171.905 207.13 172.097 207.067C172.289 207.005 172.465 206.901 172.61 206.762C172.834 206.547 172.852 206.38 172.822 206.374Z" fill="#132056"/>
<path d="M209.601 181.226C207.349 182.088 204.921 182.41 202.517 182.167C200.114 181.924 197.803 181.122 195.775 179.828C192.961 177.999 190.614 175.166 187.285 174.575C186.159 174.417 185.012 174.481 183.912 174.764C182.811 175.047 181.779 175.544 180.875 176.224C179.073 177.597 177.577 179.319 176.479 181.286C179.147 186.3 178.498 192.33 177.782 197.947C177.773 198.579 177.549 199.189 177.146 199.68C176.376 200.421 175.041 200.069 174.211 199.394C172.877 198.312 172.21 196.645 171.7 195.013C170.493 191.312 170.042 187.412 170.372 183.539C170.721 179.651 172.218 175.948 174.678 172.889C177.898 169.156 182.464 166.799 187.412 166.316C192.348 165.884 197.295 166.994 201.554 169.489C203.576 170.552 205.299 172.092 206.569 173.971" fill="#132056"/>
<path d="M214.167 166.764C214.207 166.961 214.207 167.164 214.167 167.361C214.068 167.958 213.779 168.508 213.343 168.933C212.636 169.59 211.735 170.008 210.772 170.128C210.171 170.232 209.561 170.266 208.952 170.23C208.267 170.204 207.601 169.998 207.024 169.632C206.7 169.423 206.429 169.143 206.232 168.815C206.034 168.487 205.915 168.118 205.884 167.738C205.888 167.319 206.012 166.911 206.243 166.559C206.474 166.208 206.802 165.929 207.188 165.754C207.579 165.552 208.013 165.444 208.455 165.437C208.918 165.443 209.369 165.582 209.753 165.838C210.14 166.108 210.464 166.458 210.7 166.863C210.937 167.269 211.081 167.72 211.123 168.186C211.185 168.674 211.149 169.169 211.017 169.642C210.885 170.116 210.659 170.559 210.353 170.947C209.717 171.735 208.88 172.344 207.927 172.71C205.924 173.42 203.736 173.443 201.718 172.776C199.73 172.156 197.821 171.312 196.029 170.26C194.374 169.299 192.639 168.475 190.845 167.798C189.228 167.199 187.489 166.994 185.775 167.2C184.286 167.424 182.865 167.968 181.615 168.796C179.803 170.018 178.341 171.679 177.37 173.618C177.018 174.3 176.764 174.856 176.642 175.232C176.58 175.437 176.501 175.637 176.406 175.83C176.409 175.776 176.421 175.724 176.442 175.674C176.442 175.573 176.509 175.423 176.576 175.232C176.762 174.668 176.987 174.117 177.249 173.583C178.194 171.585 179.658 169.87 181.494 168.61C182.765 167.749 184.215 167.177 185.739 166.937C187.502 166.714 189.295 166.919 190.96 167.535C192.776 168.207 194.531 169.03 196.205 169.997C197.977 171.03 199.861 171.864 201.821 172.483C203.766 173.124 205.873 173.105 207.806 172.429C208.699 172.088 209.486 171.521 210.086 170.786C210.663 170.089 210.936 169.195 210.844 168.3C210.808 167.88 210.682 167.473 210.472 167.106C210.263 166.739 209.976 166.421 209.631 166.172C209.298 165.957 208.91 165.836 208.512 165.822C208.113 165.808 207.718 165.903 207.37 166.095C207.031 166.243 206.741 166.482 206.535 166.786C206.329 167.09 206.215 167.445 206.205 167.81C206.233 168.149 206.339 168.477 206.514 168.77C206.69 169.063 206.93 169.313 207.218 169.501C207.758 169.86 208.387 170.066 209.037 170.099C209.618 170.14 210.203 170.114 210.778 170.021C211.71 169.921 212.588 169.537 213.288 168.921C213.718 168.522 214.014 168.003 214.137 167.433C214.161 167.211 214.171 166.987 214.167 166.764Z" fill="#5A6389"/>
<path d="M164.914 185.17C165.656 185.343 166.414 185.445 167.176 185.475C167.994 185.455 168.801 185.274 169.547 184.943C170.466 184.535 171.32 183.997 172.082 183.348C173.461 182.147 174.404 180.535 174.768 178.758C174.887 178.014 174.958 177.264 174.981 176.511C175.05 176.703 175.087 176.905 175.09 177.109C175.133 177.669 175.108 178.233 175.017 178.788C174.713 180.654 173.759 182.357 172.318 183.605C171.527 184.277 170.635 184.825 169.674 185.23C168.886 185.564 168.034 185.727 167.176 185.708C166.6 185.695 166.03 185.596 165.484 185.415C165.282 185.365 165.089 185.282 164.914 185.17Z" fill="#5A6389"/>
<path d="M165.854 190.25C165.854 190.184 166.715 190.25 168.061 190.035C169.817 189.743 171.461 188.991 172.821 187.858C174.18 186.724 175.205 185.251 175.787 183.593C176.242 182.32 176.297 181.471 176.363 181.483C176.397 181.681 176.397 181.883 176.363 182.081C176.307 182.622 176.195 183.157 176.03 183.676C175.498 185.407 174.472 186.951 173.074 188.123C171.676 189.295 169.965 190.046 168.146 190.286C167.6 190.362 167.047 190.384 166.497 190.352C166.278 190.361 166.059 190.326 165.854 190.25Z" fill="#5A6389"/>
<path d="M185.654 198.546C185.63 198.552 185.605 198.554 185.58 198.55C185.556 198.547 185.532 198.539 185.511 198.527C185.489 198.515 185.471 198.498 185.456 198.479C185.441 198.46 185.43 198.438 185.423 198.414C185.414 198.391 185.409 198.367 185.409 198.342C185.41 198.318 185.415 198.293 185.425 198.271C185.435 198.248 185.45 198.228 185.469 198.212C185.487 198.195 185.509 198.182 185.532 198.174C185.581 198.163 185.631 198.171 185.674 198.195C185.717 198.22 185.749 198.259 185.763 198.306C185.779 198.352 185.777 198.403 185.756 198.447C185.736 198.492 185.699 198.527 185.654 198.546Z" fill="#FFEBE4"/>
<path d="M188.649 197.494C188.596 197.503 188.542 197.491 188.498 197.46C188.454 197.43 188.423 197.384 188.413 197.332C188.402 197.309 188.395 197.283 188.394 197.257C188.393 197.231 188.397 197.205 188.406 197.181C188.415 197.156 188.429 197.134 188.447 197.114C188.465 197.095 188.486 197.08 188.51 197.069C188.563 197.062 188.617 197.074 188.662 197.103C188.707 197.131 188.741 197.174 188.758 197.224C188.774 197.275 188.772 197.329 188.753 197.378C188.733 197.427 188.696 197.468 188.649 197.494Z" fill="#FFEBE4"/>
<path d="M190.717 197.194C190.62 197.194 190.511 197.111 190.475 196.955C190.438 196.8 190.475 196.656 190.578 196.633C190.681 196.609 190.784 196.716 190.82 196.872C190.857 197.027 190.814 197.17 190.717 197.194Z" fill="#FFEBE4"/>
<path d="M187.4 200.272C187.303 200.272 187.218 200.272 187.206 200.177C187.194 200.081 187.273 200.057 187.37 200.045C187.467 200.033 187.558 200.075 187.564 200.135C187.57 200.195 187.497 200.26 187.4 200.272Z" fill="#FFEBE4"/>
<path d="M190.147 199.293C190.097 199.298 190.046 199.284 190.006 199.254C189.965 199.224 189.938 199.18 189.929 199.131C189.916 199.083 189.923 199.031 189.947 198.987C189.972 198.944 190.014 198.911 190.062 198.898C190.113 198.892 190.163 198.906 190.204 198.936C190.244 198.966 190.272 199.01 190.281 199.059C190.294 199.108 190.287 199.159 190.262 199.203C190.237 199.246 190.196 199.279 190.147 199.293Z" fill="#FFEBE4"/>
<path d="M204.647 195.82C204.622 195.827 204.596 195.828 204.571 195.825C204.546 195.821 204.522 195.813 204.5 195.8C204.478 195.787 204.458 195.77 204.443 195.75C204.428 195.73 204.417 195.707 204.41 195.683C204.397 195.66 204.389 195.634 204.388 195.607C204.386 195.581 204.39 195.554 204.4 195.529C204.41 195.505 204.425 195.482 204.445 195.464C204.464 195.446 204.488 195.432 204.513 195.424C204.539 195.416 204.566 195.414 204.593 195.417C204.62 195.421 204.645 195.43 204.668 195.444C204.69 195.459 204.71 195.478 204.724 195.501C204.738 195.523 204.747 195.549 204.75 195.575C204.76 195.598 204.765 195.622 204.765 195.647C204.765 195.672 204.76 195.696 204.751 195.719C204.741 195.742 204.727 195.763 204.709 195.78C204.691 195.798 204.67 195.811 204.647 195.82Z" fill="#FFEBE4"/>
<path d="M206.715 195.384C206.661 195.388 206.608 195.371 206.567 195.338C206.525 195.305 206.498 195.257 206.49 195.205C206.474 195.154 206.479 195.099 206.502 195.051C206.526 195.003 206.567 194.966 206.618 194.947C206.715 194.947 206.812 195.007 206.842 195.127C206.858 195.178 206.854 195.233 206.83 195.28C206.806 195.328 206.765 195.365 206.715 195.384Z" fill="#FFEBE4"/>
<path d="M202.797 196.089C202.756 196.105 202.71 196.105 202.67 196.088C202.629 196.071 202.596 196.04 202.579 195.999C202.573 195.978 202.571 195.956 202.573 195.934C202.576 195.912 202.583 195.891 202.595 195.872C202.606 195.853 202.621 195.836 202.64 195.823C202.658 195.81 202.678 195.801 202.7 195.796C202.72 195.786 202.743 195.781 202.765 195.781C202.787 195.78 202.81 195.784 202.83 195.793C202.851 195.802 202.87 195.815 202.885 195.831C202.9 195.847 202.911 195.867 202.918 195.888C202.925 195.909 202.928 195.931 202.925 195.953C202.923 195.975 202.916 195.997 202.904 196.016C202.893 196.035 202.877 196.051 202.859 196.064C202.84 196.077 202.819 196.085 202.797 196.089Z" fill="#FFEBE4"/>
<path d="M204.604 197.978C204.558 197.994 204.508 197.993 204.462 197.977C204.416 197.96 204.377 197.928 204.352 197.887C204.327 197.845 204.317 197.796 204.325 197.749C204.332 197.701 204.356 197.657 204.392 197.625C204.438 197.609 204.489 197.609 204.535 197.626C204.581 197.642 204.619 197.674 204.644 197.716C204.669 197.757 204.679 197.806 204.672 197.854C204.664 197.902 204.641 197.945 204.604 197.978Z" fill="#FFEBE4"/>
<path d="M206.357 197.41C206.313 197.407 206.272 197.387 206.242 197.355C206.213 197.322 206.198 197.28 206.199 197.236C206.211 197.195 206.238 197.159 206.275 197.137C206.312 197.115 206.357 197.107 206.399 197.117C206.443 197.12 206.484 197.14 206.514 197.172C206.543 197.204 206.559 197.247 206.557 197.29C206.546 197.332 206.518 197.367 206.481 197.39C206.444 197.412 206.399 197.419 206.357 197.41Z" fill="#FFEBE4"/>
<path d="M221.269 279.54L221.809 294.97C221.809 294.97 176.412 303.833 170.572 306.797C164.732 309.761 162.349 310.221 162.689 318.749L235.235 318.623C235.235 318.623 244.173 315.325 243.998 305.733C243.822 296.141 241.39 273.091 241.39 273.091L221.269 279.54Z" fill="#FFA283"/>
<path d="M170.233 319L176.261 318.462L182.015 304.908C181.082 304.753 161.67 301.92 160.524 302.237L155.867 318.558C155.867 318.558 169.82 319 170.233 319Z" fill="#FFA283"/>
<path d="M156.988 318.797C157.089 318.844 157.199 318.868 157.31 318.869C158.917 319.042 166.321 318.594 166.321 318.594C166.661 317.655 166.018 314.823 165.108 314.655C164.199 314.488 156.303 315.014 156.303 315.014C156.303 315.014 155.09 315.175 154.757 317.231C154.52 318.498 156.988 318.797 156.988 318.797Z" fill="#FFA283"/>
<path d="M154.453 314.649C154.557 314.694 154.668 314.719 154.781 314.721C156.382 314.894 163.386 314.817 163.683 313.98C164.023 313.036 163.483 310.675 162.561 310.508C161.639 310.341 153.762 310.866 153.762 310.866C153.762 310.866 152.519 311.028 152.21 313.084C152.022 314.374 154.453 314.649 154.453 314.649Z" fill="#FFA283"/>
<path d="M153.217 310.597C153.317 310.644 153.427 310.669 153.538 310.669C155.145 310.843 162.143 310.765 162.446 309.922C162.786 308.984 162.246 306.623 161.324 306.456C160.403 306.289 152.519 306.815 152.519 306.815C152.519 306.815 151.306 306.976 150.973 309.032C150.779 310.299 153.217 310.597 153.217 310.597Z" fill="#FFA283"/>
<path d="M152.052 306.564C152.052 306.594 152.179 306.617 152.374 306.635C153.974 306.809 160.979 306.737 161.276 305.894C161.615 304.95 161.082 302.59 160.16 302.428C159.238 302.267 151.355 302.787 151.355 302.787C151.355 302.787 150.112 302.948 149.802 304.998C149.614 306.271 152.052 306.564 152.052 306.564Z" fill="#FFA283"/>
<path opacity="0.3" d="M163.016 314.62C163.016 314.739 161.482 314.877 159.608 314.931C157.735 314.985 156.231 314.931 156.243 314.811C156.255 314.692 157.777 314.554 159.651 314.5C161.525 314.446 163.053 314.5 163.016 314.62Z" fill="#132056"/>
<path opacity="0.3" d="M163.053 310.55C163.053 310.67 160.888 310.837 158.201 310.921C155.515 311.005 153.35 310.975 153.35 310.855C153.35 310.735 155.515 310.568 158.201 310.484C160.888 310.4 163.053 310.43 163.053 310.55Z" fill="#132056"/>
<path opacity="0.3" d="M162.725 306.42C162.725 306.54 160.56 306.702 157.874 306.786C155.187 306.869 153.022 306.839 153.022 306.72C153.022 306.6 155.187 306.438 157.874 306.355C160.56 306.271 162.719 306.295 162.725 306.42Z" fill="#132056"/>
<path opacity="0.3" d="M231.978 308.434C231.924 308.434 231.657 307.502 231.026 306.044C230.656 305.194 230.237 304.366 229.771 303.564C228.623 301.595 227.193 299.8 225.526 298.233C224.851 297.595 224.138 296.996 223.391 296.44C222.118 295.484 221.251 295 221.275 294.946C221.489 295.024 221.692 295.126 221.881 295.251C222.44 295.557 222.98 295.894 223.5 296.261C224.274 296.81 225.009 297.409 225.702 298.054C226.547 298.841 227.334 299.688 228.055 300.588C228.764 301.497 229.406 302.456 229.977 303.456C230.439 304.272 230.845 305.119 231.19 305.99C231.427 306.576 231.629 307.174 231.796 307.783C231.884 307.992 231.945 308.21 231.978 308.434Z" fill="#132056"/>
<path d="M178.82 235.776L165.151 274.119L149.784 278.482C149.784 278.482 155.351 301.717 161.045 305.894C162.974 307.311 166.139 308.847 169.378 308.625C175.521 308.201 182.41 303.934 185.035 297.976C187.37 292.675 193.604 237.916 193.604 237.916L178.82 235.776Z" fill="#FFA283"/>
<path d="M193.428 239.547L194.228 230.206L192.027 222.712L191.178 219.844L192.84 221.517L195.872 218.332C195.872 218.332 194.889 212.672 194.052 212.672C192.999 212.861 191.968 213.16 190.978 213.563C190.371 213.784 189.892 213.963 189.892 213.963L187.321 215.26L189.892 211.382C189.892 211.382 192.536 213.545 193.889 211.663C194.92 210.222 191.069 206.995 189.644 205.854C189.475 205.722 189.279 205.629 189.069 205.581C188.859 205.534 188.641 205.533 188.431 205.579L186.933 205.872C186.887 205.332 186.636 204.83 186.23 204.465C185.824 204.1 185.293 203.901 184.744 203.905C184.157 203.918 183.583 204.081 183.079 204.379C182.575 204.676 182.158 205.098 181.869 205.603L180.293 205.884C179.754 205.883 179.229 206.046 178.788 206.349C178.346 206.653 178.01 207.083 177.825 207.581L174.356 216.874L178.819 235.776" fill="#FFA283"/>
<path opacity="0.4" d="M178.819 235.776C178.819 235.776 178.783 235.663 178.722 235.442C178.662 235.221 178.577 234.874 178.474 234.456C178.255 233.565 177.94 232.292 177.546 230.661C176.752 227.368 175.624 222.647 174.247 216.916V216.88V216.844C174.932 215.003 175.654 213.049 176.412 210.999L177.582 207.856C177.745 207.272 178.083 206.751 178.553 206.362C179.051 205.976 179.666 205.765 180.299 205.764L181.876 205.483L181.767 205.555C182.055 205.067 182.451 204.648 182.925 204.33C183.414 204 183.988 203.811 184.58 203.786C185.194 203.745 185.801 203.935 186.278 204.318C186.533 204.502 186.741 204.741 186.887 205.016C187.033 205.292 187.113 205.597 187.121 205.908L186.933 205.746L188.067 205.525C188.267 205.476 188.469 205.442 188.674 205.423C188.89 205.412 189.106 205.442 189.311 205.513C189.509 205.591 189.691 205.702 189.85 205.842L190.311 206.206C190.614 206.457 190.918 206.714 191.215 206.977C191.816 207.504 192.385 208.064 192.919 208.657C193.5 209.252 193.941 209.966 194.21 210.748C194.28 210.997 194.28 211.259 194.21 211.507C194.056 211.851 193.799 212.14 193.474 212.337C193.15 212.535 192.772 212.631 192.391 212.613C191.448 212.508 190.559 212.127 189.838 211.519L190.069 211.489L187.503 215.368L187.303 215.147L189.868 213.856C190.736 213.533 191.591 213.21 192.452 212.941C192.883 212.799 193.322 212.681 193.768 212.589C193.894 212.572 194.023 212.572 194.15 212.589C194.292 212.632 194.413 212.726 194.489 212.852C194.616 213.039 194.722 213.239 194.805 213.449C195.351 215.046 195.756 216.685 196.018 218.35V218.416L195.969 218.469C194.914 219.569 193.903 220.629 192.937 221.649L192.84 221.744L192.743 221.649L191.087 219.951L191.3 219.832C192.464 223.848 193.477 227.332 194.332 230.207V230.236C194.059 233.183 193.847 235.513 193.725 237.121L193.543 238.95C193.543 239.141 193.507 239.296 193.495 239.416C193.5 239.467 193.5 239.519 193.495 239.571V239.416C193.495 239.296 193.495 239.141 193.495 238.944C193.525 238.513 193.568 237.904 193.628 237.115C193.756 235.501 193.938 233.171 194.174 230.224V230.254C193.319 227.392 192.282 223.908 191.093 219.898L190.948 219.426L191.306 219.778L192.967 221.451H192.767L195.799 218.26L195.763 218.38C195.497 216.735 195.091 215.116 194.55 213.539C194.477 213.347 194.381 213.165 194.265 212.995C194.23 212.93 194.175 212.878 194.107 212.846C194.016 212.847 193.924 212.857 193.834 212.876C193.404 212.965 192.978 213.079 192.561 213.216C191.706 213.485 190.857 213.814 189.996 214.131L187.431 215.428L186.915 215.684L187.23 215.206L189.796 211.322L189.887 211.184L190.026 211.292C190.697 211.848 191.516 212.2 192.385 212.308C192.595 212.32 192.806 212.29 193.004 212.219C193.202 212.148 193.384 212.038 193.537 211.896C193.687 211.76 193.807 211.595 193.889 211.412C193.949 211.217 193.949 211.009 193.889 210.814C193.631 210.083 193.218 209.414 192.676 208.854C192.149 208.271 191.588 207.718 190.996 207.198C190.705 206.941 190.39 206.684 190.105 206.439C189.834 206.184 189.528 205.969 189.195 205.8C188.85 205.693 188.479 205.693 188.134 205.8L187 206.027L186.812 206.063V205.866C186.798 205.604 186.725 205.348 186.599 205.117C186.473 204.885 186.298 204.684 186.084 204.527C185.663 204.195 185.131 204.031 184.593 204.067C184.064 204.101 183.553 204.266 183.105 204.545C182.658 204.825 182.29 205.212 182.033 205.668L181.997 205.734H181.93L180.348 206.015C179.779 206.016 179.227 206.208 178.783 206.559C178.355 206.917 178.046 207.394 177.898 207.927C177.493 208.995 177.101 210.043 176.721 211.071L174.526 216.904V216.838C175.86 222.593 176.952 227.314 177.716 230.619L178.577 234.426C178.674 234.85 178.741 235.185 178.795 235.424C178.809 235.541 178.818 235.658 178.819 235.776Z" fill="#132056"/>
<path opacity="0.2" d="M189.784 218.631C190.625 218.084 191.514 217.612 192.44 217.22L193.428 216.748L192.61 217.471C192.386 217.667 192.199 217.899 192.058 218.159C191.844 218.544 191.738 218.977 191.748 219.416C191.759 219.854 191.887 220.282 192.118 220.657C192.331 220.965 192.573 221.253 192.84 221.517C192.84 221.547 192.367 221.38 191.93 220.776C191.648 220.374 191.484 219.902 191.457 219.414C191.43 218.925 191.542 218.439 191.779 218.009C191.934 217.721 192.139 217.462 192.385 217.244L192.555 217.489C191.667 217.95 190.74 218.332 189.784 218.631Z" fill="#132056"/>
<path opacity="0.2" d="M182.519 213.581C182.714 213.086 182.962 212.614 183.258 212.171C183.75 211.322 184.471 210.157 185.241 208.884C185.642 208.244 186.012 207.641 186.375 207.091C186.687 206.581 187.117 206.15 187.631 205.836C187.989 205.634 188.402 205.544 188.813 205.579C189.098 205.615 189.238 205.71 189.232 205.728C189.226 205.746 189.074 205.728 188.801 205.728C188.426 205.737 188.06 205.849 187.746 206.051C186.909 206.535 186.321 207.844 185.514 209.069C184.708 210.294 183.992 211.489 183.446 212.308C183.177 212.759 182.866 213.185 182.519 213.581Z" fill="#132056"/>
<path opacity="0.2" d="M177.819 213.545C177.913 213.106 178.064 212.68 178.268 212.278C178.583 211.507 179.062 210.485 179.632 209.326C180.202 208.167 180.76 207.186 181.184 206.475C181.386 206.07 181.641 205.692 181.942 205.352C181.799 205.778 181.612 206.188 181.385 206.577C180.948 207.425 180.457 208.37 179.911 209.469L178.468 212.368C178.297 212.783 178.079 213.178 177.819 213.545Z" fill="#132056"/>
<path opacity="0.2" d="M166.837 270.372C166.787 270.61 166.712 270.843 166.612 271.065L165.909 272.924C165.303 274.484 164.496 276.647 163.629 279.044C162.762 281.44 162.016 283.633 161.476 285.217L160.839 287.093C160.772 287.327 160.68 287.553 160.566 287.769C160.586 287.526 160.637 287.287 160.718 287.058C160.839 286.603 161.027 285.952 161.264 285.151C161.749 283.55 162.477 281.35 163.332 278.942C164.187 276.534 165.054 274.382 165.703 272.84C166.03 272.069 166.309 271.448 166.497 271.047C166.585 270.811 166.699 270.584 166.837 270.372Z" fill="#132056"/>
<path opacity="0.3" d="M187.103 288.079C187.11 288.137 187.11 288.195 187.103 288.253C187.103 288.39 187.061 288.558 187.037 288.773C186.964 289.243 186.867 289.9 186.745 290.745C186.612 291.599 186.448 292.651 186.206 293.858C185.941 295.234 185.56 296.585 185.066 297.898C184.465 299.502 183.557 300.977 182.391 302.243C181.047 303.681 179.494 304.916 177.783 305.906C175.881 306.994 173.842 307.828 171.718 308.386C170.596 308.693 169.438 308.852 168.274 308.858C167.069 308.864 165.873 308.662 164.738 308.261C162.519 307.424 160.574 306.006 159.111 304.161C157.751 302.466 156.652 300.584 155.848 298.574C155.06 296.661 154.587 294.761 154.029 293.022L152.507 288.181C151.573 285.193 150.858 282.803 150.409 281.141C150.184 280.305 150.021 279.647 149.918 279.205L149.802 278.697C149.793 278.64 149.793 278.581 149.802 278.524C149.826 278.578 149.844 278.634 149.857 278.691C149.899 278.816 149.942 278.984 150.003 279.187C150.136 279.647 150.318 280.293 150.554 281.105C151.033 282.773 151.767 285.169 152.75 288.115C153.223 289.597 153.744 291.211 154.302 292.95C154.86 294.689 155.339 296.578 156.121 298.466C156.921 300.446 158.01 302.3 159.353 303.97C160.783 305.77 162.682 307.152 164.848 307.968C165.946 308.363 167.105 308.565 168.274 308.566C169.413 308.558 170.547 308.403 171.646 308.106C173.734 307.559 175.741 306.743 177.613 305.679C179.304 304.709 180.842 303.502 182.179 302.094C183.33 300.856 184.231 299.414 184.835 297.844C185.337 296.545 185.732 295.208 186.018 293.846C186.272 292.651 186.454 291.605 186.624 290.751C186.794 289.896 186.885 289.257 186.97 288.785L187.073 288.277C187.074 288.21 187.084 288.144 187.103 288.079Z" fill="#132056"/>
<defs>
<clipPath id="clip0_989_66124">
<path d="M167 109C167 104.582 170.582 101 175 101H215.195C219.613 101 223.195 104.582 223.195 109V141C223.195 145.418 219.613 149 215.195 149H175C170.582 149 167 145.418 167 141V109Z" fill="white"/>
</clipPath>
</defs>
</svg>
