<svg xmlns="http://www.w3.org/2000/svg" width="32" height="33" fill="#5aaaf6" xmlns:v="https://vecta.io/nano"><path d="M29.999 23.143l-.001 5.87c-.002 1.089-.376 1.48-1.389 1.48l-5.313.001c-.949-.002-1.383-.453-1.383-1.457V17.234c.003-1.033.448-1.503 1.416-1.507h5.252c1.011.004 1.413.426 1.416 1.483l.002 5.933zM13.258 10.665l1.993 2.225c.861.916.637.894 1.464.024l6.581-6.929c.356-.369.415-.62.01-.973-.449-.393-.862-.831-1.291-1.25l.088-.231 1.769-.298 4.165-.705c.36-.062.616-.058.535.462l-.896 5.861c-.022.141-.083.275-.179.581l-1.168-1.22c-.595-.629-.594-.63-1.208.018l-8.562 9.036-.577.583-2.748-3.03-6.812 7.317-1.757-2c-.073-.091.044-.467.174-.607l4.446-4.71 3.418-3.603.556-.55zm-1.255 14.718l.001-3.804c.004-.901.375-1.314 1.219-1.322l5.679-.013c.66.001 1.118.45 1.123 1.177l.002 7.866c-.005.76-.437 1.195-1.164 1.201a313.8 313.8 0 0 1-5.74-.003c-.722-.006-1.113-.46-1.118-1.233l-.002-3.869zm-5.959 5.113c-.916.001-1.831.008-2.747-.001-.857-.008-1.279-.445-1.288-1.343l-.001-3.158c.01-.95.463-1.433 1.359-1.438l5.311.002c.947.007 1.359.469 1.36 1.476v3.158c-.006.873-.409 1.294-1.246 1.3l-2.747.003z"/></svg>