<svg width="18" height="18" viewBox="0 0 18 18" fill="none" xmlns="http://www.w3.org/2000/svg">
<path fill-rule="evenodd" clip-rule="evenodd" d="M15.4385 9.06019e-05C15.8903 -0.00656499 16.262 0.354306 16.2686 0.806118L16.3167 4.07318C16.32 4.29223 16.2352 4.50343 16.0814 4.65948C15.9277 4.81553 15.7177 4.90339 15.4987 4.90339H12.226C11.7741 4.90339 11.4078 4.53709 11.4078 4.08523C11.4078 3.63337 11.7741 3.26706 12.226 3.26706H13.5845C10.9758 1.19439 7.1672 1.07594 4.45391 3.24227C1.2649 5.78841 0.686836 10.3945 3.21707 13.5511C5.76845 16.734 10.3864 17.312 13.5509 14.7855L13.5554 14.7818C15.7608 13.0464 16.8143 10.1717 16.1819 7.43692C16.0802 6.99668 16.3545 6.55727 16.7948 6.45547C17.235 6.35367 17.6744 6.62804 17.7762 7.06828C18.5554 10.4382 17.2568 13.95 14.5696 16.066C10.6751 19.1733 5.03553 18.4359 1.9403 14.5745C-1.17669 10.686 -0.437072 5.05338 3.43294 1.96351C6.78164 -0.710132 11.4643 -0.542309 14.65 2.02398L14.6325 0.83022C14.6258 0.378408 14.9867 0.0067462 15.4385 9.06019e-05Z" fill="white"/>
</svg>
