<svg width="14" height="14" viewBox="0 0 14 14" fill="none" xmlns="http://www.w3.org/2000/svg">
<path d="M7 14C6.78048 14.0031 6.5763 13.8878 6.46563 13.6982C6.35497 13.5086 6.35497 13.2741 6.46563 13.0844C6.5763 12.8948 6.78048 12.7795 7 12.7826C10.2009 12.7826 12.7826 10.2009 12.7826 7C12.7826 3.79914 10.2009 1.21739 7 1.21739C3.79914 1.21739 1.21739 3.79914 1.21739 7C1.21739 8.66655 1.91983 10.1628 3.04348 11.2169V10.0435C3.04037 9.82396 3.15571 9.61978 3.34531 9.50911C3.53492 9.39845 3.76943 9.39845 3.95903 9.50911C4.14864 9.61978 4.26397 9.82396 4.26087 10.0435V12.3913C4.26087 12.9436 3.81315 13.3913 3.26087 13.3913H0.913043C0.693526 13.3944 0.489342 13.2791 0.378677 13.0895C0.268012 12.8999 0.268012 12.6654 0.378677 12.4757C0.489342 12.2861 0.693526 12.1708 0.913043 12.1739H2.29034C0.884648 10.8928 0 9.04755 0 7C0 3.14121 3.14121 0 7 0C10.8588 0 14 3.14121 14 7C14 10.8588 10.8588 14 7 14Z" fill="#4F2DA7"/>
</svg>
