<svg id="Layer_1" data-name="Layer 1" xmlns="http://www.w3.org/2000/svg" xmlns:xlink="http://www.w3.org/1999/xlink" viewBox="0 0 362 193"><defs><style>.cls-1{fill:none;}.cls-2{clip-path:url(#clip-path);}.cls-3{fill:#cf9421;}.cls-3,.cls-6{isolation:isolate;opacity:0.4;}.cls-4{fill:url(#linear-gradient);}.cls-5{clip-path:url(#clip-path-2);}.cls-6{fill:#4f44c1;}.cls-7{fill:#fff;}.cls-8{fill:#35cb5d;}.cls-9{fill:#33cf90;}.cls-10{fill:#8d61ff;}.cls-11{fill:#b9b3f9;}.cls-12{fill:url(#linear-gradient-2);}.cls-13{fill:url(#linear-gradient-3);}.cls-14{fill:#491dba;}.cls-15{fill:#9e9cf2;}.cls-16{fill:url(#linear-gradient-4);}.cls-17{fill:url(#linear-gradient-5);}.cls-18{fill:url(#linear-gradient-6);}.cls-19{fill:url(#linear-gradient-7);}.cls-20{fill:url(#linear-gradient-8);}.cls-21{fill:url(#linear-gradient-9);}.cls-22{fill:url(#linear-gradient-10);}.cls-23{fill:url(#linear-gradient-11);}.cls-24{fill:url(#linear-gradient-12);}</style><clipPath id="clip-path"><rect class="cls-1" x="395.27" width="362" height="193" rx="12"/></clipPath><linearGradient id="linear-gradient" x1="-2333.29" y1="-80.15" x2="-2331.77" y2="-80.15" gradientTransform="matrix(124.23, 192.32, 388.25, -250.79, 321067.25, 428594.13)" gradientUnits="userSpaceOnUse"><stop offset="0" stop-color="#491dba"/><stop offset="0.33" stop-color="#4a20bd"/><stop offset="0.61" stop-color="#4d2bc8"/><stop offset="0.87" stop-color="#523dd9"/><stop offset="1" stop-color="#5548e4"/></linearGradient><clipPath id="clip-path-2"><rect class="cls-1" width="362" height="193" rx="12"/></clipPath><linearGradient id="linear-gradient-2" x1="7282.43" y1="3523.08" x2="7255.99" y2="3569.94" gradientTransform="matrix(0.23, -0.97, -0.97, -0.23, 2047.86, 8023.74)" gradientUnits="userSpaceOnUse"><stop offset="0" stop-color="#fdcdcd"/><stop offset="1" stop-color="#ff8686"/></linearGradient><linearGradient id="linear-gradient-3" x1="-496.79" y1="-12.64" x2="-521.94" y2="-30.73" gradientTransform="matrix(-0.93, -0.35, -0.35, 0.93, -176.68, -32.38)" gradientUnits="userSpaceOnUse"><stop offset="0" stop-color="#fff"/><stop offset="1" stop-color="#aac0fa"/></linearGradient><linearGradient id="linear-gradient-4" x1="9783.3" y1="-1.34" x2="9806.4" y2="-50.22" gradientTransform="matrix(-0.93, -0.35, -0.35, 0.93, 9466.2, 3625.43)" xlink:href="#linear-gradient-2"/><linearGradient id="linear-gradient-5" x1="10018.52" y1="-1042.03" x2="9989.78" y2="-991.1" gradientTransform="matrix(-0.96, -0.29, -0.29, 0.96, 9611.62, 3973.28)" xlink:href="#linear-gradient-2"/><linearGradient id="linear-gradient-6" x1="-509.98" y1="-47.82" x2="-520.77" y2="-31.22" xlink:href="#linear-gradient-3"/><linearGradient id="linear-gradient-7" x1="10017.92" y1="-1042.37" x2="9989.18" y2="-991.43" gradientTransform="matrix(-0.96, -0.29, -0.29, 0.96, 9611.62, 3973.28)" xlink:href="#linear-gradient-2"/><linearGradient id="linear-gradient-8" x1="-16917.31" y1="-452.9" x2="-16911.98" y2="-466.94" gradientTransform="matrix(0.85, 0.29, -0.33, 0.95, 14480.84, 5483.66)" xlink:href="#linear-gradient-3"/><linearGradient id="linear-gradient-9" x1="-17004.91" y1="-877.59" x2="-16999.58" y2="-891.63" gradientTransform="matrix(0.85, 0.27, -0.3, 0.95, 14588.41, 5479.1)" xlink:href="#linear-gradient-3"/><linearGradient id="linear-gradient-10" x1="-506.3" y1="-45.46" x2="-517.09" y2="-28.86" xlink:href="#linear-gradient-3"/><linearGradient id="linear-gradient-11" x1="6411.67" y1="4834.81" x2="6385.22" y2="4881.68" gradientTransform="matrix(-0.06, -1, -1, 0.06, 5533.94, 6231.26)" xlink:href="#linear-gradient-2"/><linearGradient id="linear-gradient-12" x1="-507.53" y1="-4.89" x2="-542.06" y2="-56.9" xlink:href="#linear-gradient-3"/></defs><g class="cls-2"><path class="cls-3" d="M368.06,5.9a2,2,0,0,1,3.47,0l37.71,65.32a2,2,0,0,1-1.73,3H332.08a2,2,0,0,1-1.73-3Z"/></g><rect class="cls-1" width="362" height="193" rx="12"/><rect class="cls-4" width="362" height="193" rx="12"/><g class="cls-5"><path class="cls-6" d="M-27.21,5.9a2,2,0,0,1,3.47,0L14,71.22a2,2,0,0,1-1.73,3H-63.19a2,2,0,0,1-1.73-3Z"/><path class="cls-6" d="M336.41,78.31a10,10,0,0,1,14.14,10L339.46,208.74A10,10,0,0,1,323.73,216L225,146.17a10,10,0,0,1,1.59-17.24Z"/><path class="cls-6" d="M171.6-55.71a2,2,0,0,1,3.28-1.12L251.22,9.73a2,2,0,0,1-.66,3.4L154.74,46a2,2,0,0,1-2.61-2.28Z"/></g><path class="cls-7" d="M23.9,43.61a.55.55,0,0,1-.18-.4.83.83,0,0,1,0-.25l6.53-17.77a1.08,1.08,0,0,1,1.12-.8h4.37a1.09,1.09,0,0,1,1.12.8L43.4,43a.77.77,0,0,1,0,.25.55.55,0,0,1-.18.4.59.59,0,0,1-.41.18H39.2a1,1,0,0,1-1-.61l-1-2.69H29.9l-1,2.69a1,1,0,0,1-1,.61H24.3A.55.55,0,0,1,23.9,43.61Zm7.18-7.28h5l-2.49-7.07Z"/><path class="cls-7" d="M53.54,43.29a6.82,6.82,0,0,1-2.89-2,4.71,4.71,0,0,1-1-2.77.54.54,0,0,1,.18-.42.6.6,0,0,1,.43-.16H54a1.08,1.08,0,0,1,.54.11,1.64,1.64,0,0,1,.46.38,2.82,2.82,0,0,0,1.14,1.1,4.18,4.18,0,0,0,2.06.43,4.74,4.74,0,0,0,2.32-.46,1.39,1.39,0,0,0,.81-1.26,1.23,1.23,0,0,0-.42-1,3.7,3.7,0,0,0-1.34-.66c-.62-.19-1.51-.41-2.66-.65a11.68,11.68,0,0,1-5.07-2A4.7,4.7,0,0,1,50.12,30a5.09,5.09,0,0,1,1-3.06,6.19,6.19,0,0,1,2.74-2.09A10.53,10.53,0,0,1,58,24.11a10,10,0,0,1,4.27.84A7.37,7.37,0,0,1,65,27.06a4.35,4.35,0,0,1,1,2.48.6.6,0,0,1-.16.43.58.58,0,0,1-.43.18H61.51a1.07,1.07,0,0,1-.95-.5,1.71,1.71,0,0,0-.86-1,4.11,4.11,0,0,0-3.56,0,1.37,1.37,0,0,0-.64,1.22,1.39,1.39,0,0,0,.84,1.26,12.33,12.33,0,0,0,3.13.93,18.43,18.43,0,0,1,4.19,1.18A5.24,5.24,0,0,1,66,35.1a5,5,0,0,1,.75,2.84,5.11,5.11,0,0,1-1.1,3.27,6.72,6.72,0,0,1-3,2.12,12.37,12.37,0,0,1-4.42.74A12.19,12.19,0,0,1,53.54,43.29Z"/><path class="cls-7" d="M69.59,43.58a.66.66,0,0,1-.21-.48v-18a.66.66,0,0,1,.21-.5.7.7,0,0,1,.49-.19h4a.68.68,0,0,1,.5.19.69.69,0,0,1,.2.5v18a.69.69,0,0,1-.2.48.66.66,0,0,1-.5.21h-4A.68.68,0,0,1,69.59,43.58Z"/><path class="cls-7" d="M78.81,43.58a.62.62,0,0,1-.21-.48v-18a.73.73,0,0,1,.19-.52.69.69,0,0,1,.5-.2h7.93A9,9,0,0,1,92.93,26,5.75,5.75,0,0,1,95,30.82a5.54,5.54,0,0,1-2.07,4.72,9.24,9.24,0,0,1-5.71,1.57H84v6a.69.69,0,0,1-.2.48.66.66,0,0,1-.5.21h-4A.64.64,0,0,1,78.81,43.58Zm8.27-10.43a2.6,2.6,0,0,0,1.81-.6,2.28,2.28,0,0,0,.65-1.76,2.53,2.53,0,0,0-.6-1.75,2.39,2.39,0,0,0-1.86-.66H83.94v4.77Z"/><path class="cls-7" d="M27,75.6a.66.66,0,0,1-.21-.5V65.15h-2.1a.73.73,0,0,1-.52-.2.64.64,0,0,1-.21-.5V62.07a.66.66,0,0,1,.21-.5.73.73,0,0,1,.52-.19h2.1v-.84a4.78,4.78,0,0,1,1.62-4A7.51,7.51,0,0,1,33,55.28h2.21a.73.73,0,0,1,.52.19A.66.66,0,0,1,36,56v2.38a.64.64,0,0,1-.21.5.73.73,0,0,1-.52.2h-2a1.68,1.68,0,0,0-1.27.4,1.76,1.76,0,0,0-.38,1.23v.7H35a.73.73,0,0,1,.52.19.66.66,0,0,1,.21.5v2.38a.64.64,0,0,1-.21.5.73.73,0,0,1-.52.2H31.61V75.1a.68.68,0,0,1-.7.69H27.5A.73.73,0,0,1,27,75.6Z"/><path class="cls-7" d="M39.05,74.45A6.25,6.25,0,0,1,37,69.83c0-.24,0-.66,0-1.25s0-1,0-1.24a6.17,6.17,0,0,1,2.11-4.59,8,8,0,0,1,5.36-1.65,8.06,8.06,0,0,1,5.37,1.65,6.2,6.2,0,0,1,2.11,4.59c0,.48.06.89.06,1.24s0,.77-.06,1.25a6.25,6.25,0,0,1-2.06,4.62,8.08,8.08,0,0,1-5.42,1.62A8.07,8.07,0,0,1,39.05,74.45Zm7.12-2.58a3.91,3.91,0,0,0,.65-2.18c0-.18,0-.55,0-1.11s0-.92,0-1.11a3.92,3.92,0,0,0-.65-2.16,2.38,2.38,0,0,0-3.41,0,3.84,3.84,0,0,0-.65,2.16l0,1.11,0,1.11a3.84,3.84,0,0,0,.65,2.18,2.43,2.43,0,0,0,3.41,0Z"/><path class="cls-7" d="M54.87,75.58a.66.66,0,0,1-.21-.48v-13a.73.73,0,0,1,.19-.52.66.66,0,0,1,.51-.2h3.41a.69.69,0,0,1,.52.2.7.7,0,0,1,.21.52v1a5.43,5.43,0,0,1,1.83-1.32,5.88,5.88,0,0,1,2.34-.45h1.26a.69.69,0,0,1,.51.19.68.68,0,0,1,.19.5v3a.7.7,0,0,1-.19.49.69.69,0,0,1-.51.2H62.1a2.11,2.11,0,0,0-2.32,2.33v7a.66.66,0,0,1-.21.5.73.73,0,0,1-.52.19H55.36A.67.67,0,0,1,54.87,75.58Z"/><path class="cls-7" d="M74.51,80.89a.54.54,0,0,1-.17-.42,1.49,1.49,0,0,1,0-.36l2.22-5.21L71.23,62.32a1.25,1.25,0,0,1-.08-.31.77.77,0,0,1,.24-.45.58.58,0,0,1,.43-.18h3.33A.81.81,0,0,1,76,62l3.11,7.87L82.26,62a.9.9,0,0,1,.84-.58h3.31a.58.58,0,0,1,.43.18A.55.55,0,0,1,87,62a1.36,1.36,0,0,1,0,.36L79,80.47a.91.91,0,0,1-.86.59H74.93A.57.57,0,0,1,74.51,80.89Z"/><path class="cls-7" d="M90,74.45a6.25,6.25,0,0,1-2-4.62c0-.24,0-.66,0-1.25s0-1,0-1.24a6.17,6.17,0,0,1,2.11-4.59,9.53,9.53,0,0,1,10.72,0,6.17,6.17,0,0,1,2.12,4.59c0,.48,0,.89,0,1.24s0,.77,0,1.25a6.25,6.25,0,0,1-2.06,4.62,8.1,8.1,0,0,1-5.42,1.62A8.1,8.1,0,0,1,90,74.45Zm7.13-2.58a3.84,3.84,0,0,0,.64-2.18q0-.27,0-1.11t0-1.11a3.85,3.85,0,0,0-.64-2.16,2,2,0,0,0-1.71-.72,2,2,0,0,0-1.71.72,3.93,3.93,0,0,0-.64,2.16l0,1.11,0,1.11a3.92,3.92,0,0,0,.64,2.18,2.07,2.07,0,0,0,1.71.7A2,2,0,0,0,97.16,71.87Z"/><path class="cls-7" d="M107,74.43a6.56,6.56,0,0,1-1.52-4.63V62.07a.66.66,0,0,1,.21-.5.7.7,0,0,1,.49-.19h3.73a.74.74,0,0,1,.52.19.66.66,0,0,1,.21.5v7.57c0,1.71.77,2.57,2.32,2.57a2.27,2.27,0,0,0,1.75-.67,2.71,2.71,0,0,0,.63-1.9V62.07a.66.66,0,0,1,.21-.5.73.73,0,0,1,.52-.19h3.69a.69.69,0,0,1,.51.19.68.68,0,0,1,.19.5v13a.68.68,0,0,1-.19.48.66.66,0,0,1-.51.21h-3.41a.73.73,0,0,1-.52-.19.66.66,0,0,1-.21-.5V74a5.34,5.34,0,0,1-4.65,2A5.14,5.14,0,0,1,107,74.43Z"/><path class="cls-7" d="M123.89,75.58a.66.66,0,0,1-.21-.48v-13a.73.73,0,0,1,.19-.52.66.66,0,0,1,.51-.2h3.41a.69.69,0,0,1,.52.2.7.7,0,0,1,.21.52v1a5.43,5.43,0,0,1,1.83-1.32,5.88,5.88,0,0,1,2.34-.45H134a.7.7,0,0,1,.51.19.68.68,0,0,1,.19.5v3a.67.67,0,0,1-.7.69h-2.83a2.11,2.11,0,0,0-2.32,2.33v7a.66.66,0,0,1-.21.5.73.73,0,0,1-.52.19h-3.69A.67.67,0,0,1,123.89,75.58Z"/><path class="cls-7" d="M143.39,74.25a7,7,0,0,1-2-5.28v-.86A7.13,7.13,0,0,1,143.44,63a7.38,7.38,0,0,1,5.3-1.86,8.14,8.14,0,0,1,4.07.95,6.1,6.1,0,0,1,2.49,2.64,8.53,8.53,0,0,1,.83,3.81v.69a.7.7,0,0,1-.21.52.75.75,0,0,1-.52.2h-8.88v.17a3.5,3.5,0,0,0,.59,2,1.86,1.86,0,0,0,1.6.76,2,2,0,0,0,1.08-.26,4,4,0,0,0,.77-.68,1.39,1.39,0,0,1,.4-.35,1.41,1.41,0,0,1,.49-.07h3.67a.6.6,0,0,1,.43.16.47.47,0,0,1,.19.37,2.83,2.83,0,0,1-.83,1.69,6.45,6.45,0,0,1-2.41,1.66,9.11,9.11,0,0,1-3.74.7A7.59,7.59,0,0,1,143.39,74.25ZM151,67.09V67a3.22,3.22,0,0,0-.58-2.06,2,2,0,0,0-1.65-.74,2,2,0,0,0-1.64.74,3.22,3.22,0,0,0-.58,2.06v.06Z"/><path class="cls-7" d="M160.34,75.5a4.55,4.55,0,0,1-1.9-1.57,3.75,3.75,0,0,1-.69-2.19,3.67,3.67,0,0,1,1.58-3.06,9.76,9.76,0,0,1,4.36-1.62l3.47-.53V66.2a2.24,2.24,0,0,0-.42-1.5,1.86,1.86,0,0,0-1.43-.47,2.22,2.22,0,0,0-.94.19,5.3,5.3,0,0,0-.85.59,3.52,3.52,0,0,1-.64.44.33.33,0,0,1-.28.19h-3.25a.62.62,0,0,1-.46-.18.47.47,0,0,1-.16-.43,3,3,0,0,1,.76-1.67,5.72,5.72,0,0,1,2.21-1.6,9,9,0,0,1,3.67-.66q3.47,0,5.15,1.51a5.23,5.23,0,0,1,1.68,4.09v8.4a.69.69,0,0,1-.2.48.66.66,0,0,1-.5.21h-3.44a.72.72,0,0,1-.71-.69v-1a4.48,4.48,0,0,1-1.7,1.4,5.84,5.84,0,0,1-2.61.54A6.28,6.28,0,0,1,160.34,75.5Zm6.1-3.51a3.2,3.2,0,0,0,.78-2.33v-.33l-2.33.39c-1.57.3-2.35.85-2.35,1.66a1.19,1.19,0,0,0,.55,1,2.25,2.25,0,0,0,1.35.39A2.63,2.63,0,0,0,166.44,72Z"/><path class="cls-7" d="M175.46,75.58a.66.66,0,0,1-.21-.48v-13a.73.73,0,0,1,.2-.52.65.65,0,0,1,.5-.2h3.42a.72.72,0,0,1,.52.2.74.74,0,0,1,.21.52v1a5.43,5.43,0,0,1,1.83-1.32,5.88,5.88,0,0,1,2.34-.45h1.26a.68.68,0,0,1,.5.19.69.69,0,0,1,.2.5v3a.71.71,0,0,1-.2.49.69.69,0,0,1-.5.2H182.7a2.12,2.12,0,0,0-2.33,2.33v7a.62.62,0,0,1-.21.5.72.72,0,0,1-.51.19H176A.67.67,0,0,1,175.46,75.58Z"/><path class="cls-7" d="M188.37,75.6a.66.66,0,0,1-.21-.5V56.8a.66.66,0,0,1,.21-.5.73.73,0,0,1,.52-.19h3.5a.68.68,0,0,1,.5.19.69.69,0,0,1,.2.5V75.1a.69.69,0,0,1-.2.48.66.66,0,0,1-.5.21h-3.5A.73.73,0,0,1,188.37,75.6Z"/><path class="cls-7" d="M198.6,80.89a.57.57,0,0,1-.17-.42,1.13,1.13,0,0,1,.06-.36l2.21-5.21-5.37-12.58a1,1,0,0,1-.09-.31.9.9,0,0,1,.24-.45.6.6,0,0,1,.44-.18h3.33a.81.81,0,0,1,.81.58l3.11,7.87L206.36,62a.9.9,0,0,1,.84-.58h3.3a.6.6,0,0,1,.44.18.55.55,0,0,1,.18.4,1,1,0,0,1-.06.36l-7.92,18.15a.93.93,0,0,1-.87.59H199A.59.59,0,0,1,198.6,80.89Z"/><path class="cls-7" d="M25.3,107.58a.66.66,0,0,1-.21-.48v-13a.73.73,0,0,1,.19-.52.66.66,0,0,1,.51-.2H29.2a.69.69,0,0,1,.52.2.7.7,0,0,1,.21.52v1.05a5.47,5.47,0,0,1,1.84-1.32,5.83,5.83,0,0,1,2.33-.45h1.26a.69.69,0,0,1,.51.19.68.68,0,0,1,.19.5v3a.67.67,0,0,1-.7.69H32.54a2.11,2.11,0,0,0-2.33,2.33v7a.66.66,0,0,1-.21.5.73.73,0,0,1-.52.19H25.79A.67.67,0,0,1,25.3,107.58Z"/><path class="cls-7" d="M39.34,106.25a7,7,0,0,1-2-5.28v-.86A7.1,7.1,0,0,1,39.4,95a7.36,7.36,0,0,1,5.29-1.86,8.14,8.14,0,0,1,4.07,1,6.1,6.1,0,0,1,2.49,2.64,8.53,8.53,0,0,1,.83,3.81v.69a.7.7,0,0,1-.21.52.73.73,0,0,1-.52.2H42.48v.17a3.42,3.42,0,0,0,.58,2,1.87,1.87,0,0,0,1.6.76,2,2,0,0,0,1.08-.26,4,4,0,0,0,.77-.68,1.53,1.53,0,0,1,.4-.35,1.46,1.46,0,0,1,.49-.07h3.67a.65.65,0,0,1,.44.16.46.46,0,0,1,.18.37,2.83,2.83,0,0,1-.83,1.69,6.45,6.45,0,0,1-2.41,1.66,9.1,9.1,0,0,1-3.73.7A7.62,7.62,0,0,1,39.34,106.25Zm7.59-7.16V99A3.22,3.22,0,0,0,46.34,97a2,2,0,0,0-1.65-.74,2,2,0,0,0-1.64.74A3.28,3.28,0,0,0,42.48,99v.06Z"/><path class="cls-7" d="M56.28,102.27V97.15H54.07a.72.72,0,0,1-.7-.7V94.07a.66.66,0,0,1,.21-.5.69.69,0,0,1,.49-.19h2.21V88.8a.66.66,0,0,1,.21-.5.69.69,0,0,1,.49-.19h3.44a.69.69,0,0,1,.51.19.68.68,0,0,1,.19.5v4.58h3.5a.73.73,0,0,1,.52.19.66.66,0,0,1,.21.5v2.38a.64.64,0,0,1-.21.5.73.73,0,0,1-.52.2h-3.5v4.71a2.44,2.44,0,0,0,.37,1.47,1.35,1.35,0,0,0,1.17.5h2.22a.69.69,0,0,1,.5.2.73.73,0,0,1,.19.52v2.55a.68.68,0,0,1-.19.48.66.66,0,0,1-.5.21H62.22Q56.28,107.79,56.28,102.27Z"/><path class="cls-7" d="M68,91.17a.73.73,0,0,1-.2-.51V88.08a.69.69,0,0,1,.21-.51.68.68,0,0,1,.49-.21H72a.72.72,0,0,1,.73.72v2.58a.72.72,0,0,1-.73.72h-3.5A.66.66,0,0,1,68,91.17Zm0,16.41a.66.66,0,0,1-.21-.48v-13a.66.66,0,0,1,.21-.5.7.7,0,0,1,.49-.19H72a.73.73,0,0,1,.52.19.66.66,0,0,1,.21.5v13a.66.66,0,0,1-.21.5.73.73,0,0,1-.52.19h-3.5A.68.68,0,0,1,68.05,107.58Z"/><path class="cls-7" d="M76.17,107.58a.66.66,0,0,1-.21-.48v-13a.73.73,0,0,1,.2-.52.65.65,0,0,1,.5-.2h3.42a.71.71,0,0,1,.52.2.7.7,0,0,1,.21.52v1.05a5.43,5.43,0,0,1,1.83-1.32A5.88,5.88,0,0,1,85,93.38h1.26a.68.68,0,0,1,.5.19.69.69,0,0,1,.2.5v3a.7.7,0,0,1-.2.49.69.69,0,0,1-.5.2H83.41a2.33,2.33,0,0,0-1.72.61,2.35,2.35,0,0,0-.6,1.72v7a.66.66,0,0,1-.21.5.74.74,0,0,1-.52.19h-3.7A.68.68,0,0,1,76.17,107.58Z"/><path class="cls-7" d="M90.22,106.25a7,7,0,0,1-2-5.28v-.86A7.05,7.05,0,0,1,90.27,95a7.37,7.37,0,0,1,5.29-1.86,8.15,8.15,0,0,1,4.08,1,6.1,6.1,0,0,1,2.49,2.64,8.53,8.53,0,0,1,.83,3.81v.69a.7.7,0,0,1-.21.52.75.75,0,0,1-.52.2H93.35v.17a3.5,3.5,0,0,0,.59,2,1.86,1.86,0,0,0,1.6.76,2,2,0,0,0,1.07-.26,3.72,3.72,0,0,0,.77-.68,1.54,1.54,0,0,1,.41-.35,1.41,1.41,0,0,1,.49-.07H102a.6.6,0,0,1,.43.16.46.46,0,0,1,.18.37,2.81,2.81,0,0,1-.82,1.69,6.53,6.53,0,0,1-2.41,1.66,9.14,9.14,0,0,1-3.74.7A7.58,7.58,0,0,1,90.22,106.25Zm7.58-7.16V99A3.22,3.22,0,0,0,97.22,97a2,2,0,0,0-1.66-.74,1.94,1.94,0,0,0-1.63.74A3.22,3.22,0,0,0,93.35,99v.06Z"/><path class="cls-7" d="M105.68,107.58a.66.66,0,0,1-.21-.48v-13a.66.66,0,0,1,.21-.5.7.7,0,0,1,.49-.19h3.25a.69.69,0,0,1,.51.19.68.68,0,0,1,.19.5V95a5.73,5.73,0,0,1,1.74-1.36,5.13,5.13,0,0,1,2.41-.55,4.25,4.25,0,0,1,4.22,2.38A5.37,5.37,0,0,1,123,93.1a4.86,4.86,0,0,1,3.73,1.54,6.42,6.42,0,0,1,1.45,4.58v7.88a.69.69,0,0,1-.2.48.66.66,0,0,1-.5.21H124a.74.74,0,0,1-.52-.19.66.66,0,0,1-.21-.5V99.42a2.73,2.73,0,0,0-.54-1.87,1.91,1.91,0,0,0-1.47-.6,1.84,1.84,0,0,0-1.42.6,2.73,2.73,0,0,0-.54,1.87v7.68a.69.69,0,0,1-.2.48.66.66,0,0,1-.5.21h-3.45a.72.72,0,0,1-.51-.19.66.66,0,0,1-.21-.5V99.42a2.68,2.68,0,0,0-.56-1.87,1.92,1.92,0,0,0-1.46-.6,1.88,1.88,0,0,0-1.43.6,2.63,2.63,0,0,0-.56,1.84v7.71a.68.68,0,0,1-.19.48.66.66,0,0,1-.51.21h-3.53A.68.68,0,0,1,105.68,107.58Z"/><path class="cls-7" d="M132.63,106.25a7,7,0,0,1-2-5.28v-.86A7.05,7.05,0,0,1,132.69,95,7.37,7.37,0,0,1,138,93.1a8.15,8.15,0,0,1,4.08,1,6.1,6.1,0,0,1,2.49,2.64,8.53,8.53,0,0,1,.82,3.81v.69a.7.7,0,0,1-.21.52.73.73,0,0,1-.51.2h-8.88v.17a3.42,3.42,0,0,0,.59,2,1.84,1.84,0,0,0,1.59.76,2,2,0,0,0,1.08-.26,3.72,3.72,0,0,0,.77-.68,1.54,1.54,0,0,1,.41-.35,1.37,1.37,0,0,1,.49-.07h3.67a.62.62,0,0,1,.43.16.46.46,0,0,1,.18.37,2.81,2.81,0,0,1-.82,1.69,6.53,6.53,0,0,1-2.41,1.66,9.14,9.14,0,0,1-3.74.7A7.62,7.62,0,0,1,132.63,106.25Zm7.59-7.16V99a3.16,3.16,0,0,0-.59-2.06,2.2,2.2,0,0,0-3.29,0,3.28,3.28,0,0,0-.57,2.06v.06Z"/><path class="cls-7" d="M148.1,107.58a.66.66,0,0,1-.21-.48v-13a.66.66,0,0,1,.21-.5.7.7,0,0,1,.49-.19H152a.68.68,0,0,1,.5.19.69.69,0,0,1,.2.5v1.05a5.45,5.45,0,0,1,1.94-1.47,6.43,6.43,0,0,1,2.73-.55,5.59,5.59,0,0,1,2.85.72,5,5,0,0,1,2,2.13,7.6,7.6,0,0,1,.71,3.41v7.74a.69.69,0,0,1-.2.48.66.66,0,0,1-.5.21h-3.72a.73.73,0,0,1-.52-.19.66.66,0,0,1-.21-.5V99.53a2.75,2.75,0,0,0-.6-1.91,2.24,2.24,0,0,0-1.75-.67,2.34,2.34,0,0,0-1.77.68,2.65,2.65,0,0,0-.64,1.9v7.57a.69.69,0,0,1-.2.48.66.66,0,0,1-.5.21h-3.73A.68.68,0,0,1,148.1,107.58Z"/><path class="cls-7" d="M167.55,102.27V97.15h-2.21a.72.72,0,0,1-.7-.7V94.07a.66.66,0,0,1,.21-.5.69.69,0,0,1,.49-.19h2.21V88.8a.66.66,0,0,1,.21-.5.69.69,0,0,1,.49-.19h3.44a.69.69,0,0,1,.51.19.68.68,0,0,1,.19.5v4.58h3.5a.73.73,0,0,1,.52.19.66.66,0,0,1,.21.5v2.38a.64.64,0,0,1-.21.5.73.73,0,0,1-.52.2h-3.5v4.71a2.51,2.51,0,0,0,.37,1.47,1.35,1.35,0,0,0,1.17.5h2.22a.69.69,0,0,1,.5.2.73.73,0,0,1,.2.52v2.55a.69.69,0,0,1-.2.48.66.66,0,0,1-.5.21h-2.66Q167.55,107.79,167.55,102.27Z"/><rect class="cls-7" x="24.07" y="132" width="123.76" height="37" rx="10"/><path class="cls-8" d="M40.37,156a.33.33,0,0,1-.11-.27V145.3a.39.39,0,0,1,.1-.28.35.35,0,0,1,.28-.12h1.44a.38.38,0,0,1,.29.12.39.39,0,0,1,.11.28v3.75l3.57-3.86a.78.78,0,0,1,.62-.29h1.64a.37.37,0,0,1,.23.1.3.3,0,0,1,.1.24.24.24,0,0,1-.08.19l-4.35,4.83,4.67,5.3a.44.44,0,0,1,.07.21.37.37,0,0,1-.1.24.31.31,0,0,1-.22.09H47a.67.67,0,0,1-.48-.13l-.16-.15-3.83-4.23v4.13a.37.37,0,0,1-.11.27.38.38,0,0,1-.29.11H40.64A.35.35,0,0,1,40.37,156Z"/><path class="cls-8" d="M50.5,156a.33.33,0,0,1-.11-.27V145.3a.39.39,0,0,1,.1-.28.35.35,0,0,1,.28-.12H52a.5.5,0,0,1,.46.28l4.58,7.1v-7a.39.39,0,0,1,.1-.28.35.35,0,0,1,.28-.12h1.38a.4.4,0,0,1,.29.12.39.39,0,0,1,.11.28v10.4a.4.4,0,0,1-.11.29.37.37,0,0,1-.28.11H57.57a.53.53,0,0,1-.48-.27l-4.56-6.94v6.83a.36.36,0,0,1-.1.27.36.36,0,0,1-.28.11H50.77A.33.33,0,0,1,50.5,156Z"/><path class="cls-8" d="M62.61,155.16a4.39,4.39,0,0,1-1.28-3.28c0-.31,0-.76,0-1.36s0-1.07,0-1.38a4.37,4.37,0,0,1,1.31-3.26,5.55,5.55,0,0,1,6.74,0,4.38,4.38,0,0,1,1.33,3.26q0,.93,0,1.38c0,.29,0,.74,0,1.36a4.44,4.44,0,0,1-1.29,3.28,5.82,5.82,0,0,1-6.81,0Zm5.1-1.39a2.87,2.87,0,0,0,.67-2c0-.64,0-1.07,0-1.3s0-.67,0-1.29a2.85,2.85,0,0,0-.68-2,2.52,2.52,0,0,0-3.38,0,2.75,2.75,0,0,0-.67,2c0,.31,0,.74,0,1.29s0,1,0,1.3a2.81,2.81,0,0,0,.66,2,2.56,2.56,0,0,0,3.4,0Z"/><path class="cls-8" d="M74,155.62l-1.88-10.25,0-.13a.3.3,0,0,1,.1-.24.33.33,0,0,1,.24-.1h1.44a.49.49,0,0,1,.3.08.37.37,0,0,1,.13.24l1.32,7.2L77,147.78a.56.56,0,0,1,.53-.4h.88a.45.45,0,0,1,.33.12.61.61,0,0,1,.18.28l1.44,4.64,1.31-7.2c0-.21.18-.32.45-.32h1.44a.32.32,0,0,1,.22.1.3.3,0,0,1,.1.24.44.44,0,0,1,0,.13L82,155.62a.63.63,0,0,1-.19.36.61.61,0,0,1-.39.12H80.32A.57.57,0,0,1,80,156a.59.59,0,0,1-.19-.28L78,150.39l-1.79,5.31a.53.53,0,0,1-.56.4H74.53A.55.55,0,0,1,74,155.62Z"/><path class="cls-8" d="M89.31,156a.37.37,0,0,1-.11-.27V145.3a.43.43,0,0,1,.1-.28.36.36,0,0,1,.28-.12h1.3a.53.53,0,0,1,.48.31l3.09,5.73,3.09-5.73a.51.51,0,0,1,.48-.31H99.3a.41.41,0,0,1,.4.4v10.42a.35.35,0,0,1-.12.28.39.39,0,0,1-.28.1H97.92a.38.38,0,0,1-.38-.38v-6.88l-2.23,4.22a.55.55,0,0,1-.52.36h-.68a.62.62,0,0,1-.54-.36l-2.23-4.22v6.88a.36.36,0,0,1-.1.27.34.34,0,0,1-.28.11H89.58A.36.36,0,0,1,89.31,156Z"/><path class="cls-8" d="M103.11,155.16a4.36,4.36,0,0,1-1.28-3.28c0-.31,0-.76,0-1.36s0-1.07,0-1.38a4.37,4.37,0,0,1,1.31-3.26,5.55,5.55,0,0,1,6.74,0,4.34,4.34,0,0,1,1.32,3.26q0,.93,0,1.38c0,.29,0,.74,0,1.36a4.36,4.36,0,0,1-1.29,3.28,5.8,5.8,0,0,1-6.8,0Zm5.1-1.39a2.92,2.92,0,0,0,.67-2c0-.64,0-1.07,0-1.3s0-.67,0-1.29a2.8,2.8,0,0,0-.69-2,2.24,2.24,0,0,0-1.68-.65,2.27,2.27,0,0,0-1.69.65,2.75,2.75,0,0,0-.67,2c0,.31,0,.74,0,1.29s0,1,0,1.3a2.81,2.81,0,0,0,.66,2,2.56,2.56,0,0,0,3.4,0Z"/><path class="cls-8" d="M113.43,156a.34.34,0,0,1-.12-.27V145.3a.39.39,0,0,1,.11-.28.35.35,0,0,1,.28-.12h4.14a4.71,4.71,0,0,1,3.08.92,3.15,3.15,0,0,1,1.11,2.59,3.26,3.26,0,0,1-.56,2,3,3,0,0,1-1.56,1.14l2.32,4.08a.42.42,0,0,1,0,.18.33.33,0,0,1-.1.24.35.35,0,0,1-.23.09h-1.47a.58.58,0,0,1-.4-.12,1,1,0,0,1-.26-.31l-2-3.79h-2.19v3.84a.37.37,0,0,1-.11.27.38.38,0,0,1-.29.11H113.7A.33.33,0,0,1,113.43,156Zm4.36-5.93a2.13,2.13,0,0,0,1.44-.43,1.55,1.55,0,0,0,.48-1.24,1.61,1.61,0,0,0-.48-1.25,2,2,0,0,0-1.44-.44h-2.22v3.36Z"/><path class="cls-8" d="M124.21,156a.33.33,0,0,1-.11-.27V145.3a.39.39,0,0,1,.1-.28.35.35,0,0,1,.28-.12h7.06a.41.41,0,0,1,.4.4v1.08a.36.36,0,0,1-.12.28.43.43,0,0,1-.28.1h-5.25v2.8h4.89a.4.4,0,0,1,.29.11.38.38,0,0,1,.11.29v1a.36.36,0,0,1-.11.28.39.39,0,0,1-.29.1h-4.89v2.9h5.38a.39.39,0,0,1,.28.1.34.34,0,0,1,.11.28v1.09a.34.34,0,0,1-.11.28.39.39,0,0,1-.28.1h-7.19A.33.33,0,0,1,124.21,156Z"/><path class="cls-9" d="M280.6,129.59h-.25c-.09,0-.31-.08-.3-.17l.1-3a.17.17,0,0,1,.17-.17h.25a.18.18,0,0,1,.17.17l.07,3C280.81,129.51,280.66,129.59,280.6,129.59Zm4.15-.63a.16.16,0,0,1-.21-.11l-.85-2.93a.17.17,0,0,1,.12-.21l.23-.08a.18.18,0,0,1,.22.11l1,2.88a.16.16,0,0,1-.11.21Zm-8.43-.15a.19.19,0,0,1-.21.11l-.41-.14a.18.18,0,0,1-.11-.22l1.05-2.86a.18.18,0,0,1,.22-.11l.23.08a.16.16,0,0,1,.11.21ZM288.88,127a.17.17,0,0,1-.24,0l-1.72-2.52a.17.17,0,0,1,0-.23l.2-.15a.17.17,0,0,1,.24,0l1.86,2.43a.16.16,0,0,1,0,.23Zm-16.64-.13a.18.18,0,0,1-.24,0l-.34-.26a.16.16,0,0,1,0-.23l1.88-2.41a.17.17,0,0,1,.24,0l.2.15a.17.17,0,0,1,0,.24Zm19.93-3a.16.16,0,0,1-.23,0l-2.42-1.86a.18.18,0,0,1,0-.24l.15-.2a.18.18,0,0,1,.24,0l2.51,1.74a.16.16,0,0,1,0,.23Zm-23.19-.1a.16.16,0,0,1-.23,0l-.25-.35a.16.16,0,0,1,0-.24l2.53-1.7a.18.18,0,0,1,.24,0l.14.2a.17.17,0,0,1,0,.24Zm25.34-4a.18.18,0,0,1-.22.1l-2.87-1a.18.18,0,0,1-.11-.22l.08-.24a.16.16,0,0,1,.21-.11l2.93.87a.16.16,0,0,1,.11.21Zm-27.46,0a.16.16,0,0,1-.21-.11l-.13-.41a.16.16,0,0,1,.11-.21l2.94-.83a.17.17,0,0,1,.21.12l.08.23a.18.18,0,0,1-.11.22Zm28.24-4.48a.18.18,0,0,1-.18.17l-3.05-.07a.16.16,0,0,1-.16-.17V115a.85.85,0,0,0,0-.15.18.18,0,0,1,.17-.17l3.05-.09a.18.18,0,0,1,.18.17v.42Zm-29,0a.16.16,0,0,1-.17-.14v-.46a.18.18,0,0,1,.18-.16l3,.12a.15.15,0,0,1,.16.15v.36c0,.05-.08.08-.17.08Zm25.31-3.46a.16.16,0,0,1-.21-.11l-.08-.24a.16.16,0,0,1,.11-.21l2.87-1a.17.17,0,0,1,.22.1l.13.41a.16.16,0,0,1-.11.21Zm-21.53-.23a.18.18,0,0,1-.22.11l-2.91-.91a.16.16,0,0,1-.11-.21l.14-.41a.17.17,0,0,1,.21-.1l2.86,1.06a.18.18,0,0,1,.11.22Zm20-3a.17.17,0,0,1-.24,0l-.14-.2a.16.16,0,0,1,0-.23l2.41-1.88a.17.17,0,0,1,.24,0l.25.35a.17.17,0,0,1,0,.24Zm-18.37-.14a.18.18,0,0,1-.24,0l-2.49-1.77a.16.16,0,0,1,0-.23l.26-.35a.17.17,0,0,1,.24,0l2.39,1.9a.18.18,0,0,1,0,.24Zm15.9-2.44a.18.18,0,0,1-.24,0l-.2-.15a.17.17,0,0,1-.05-.23l1.72-2.53a.16.16,0,0,1,.23,0l.35.25a.16.16,0,0,1,0,.23Zm-13.4,0a.17.17,0,0,1-.24,0l-1.82-2.45a.17.17,0,0,1,0-.24l.35-.25a.16.16,0,0,1,.23,0l1.69,2.54a.18.18,0,0,1-.05.24Zm10.25-1.64a.17.17,0,0,1-.22.1l-.24-.07a.16.16,0,0,1-.11-.21l.84-2.94a.16.16,0,0,1,.21-.11l.41.13a.16.16,0,0,1,.11.21Zm-7.11.07a.18.18,0,0,1-.21-.11l-1-2.9a.16.16,0,0,1,.11-.21l.41-.13a.18.18,0,0,1,.21.12l.81,2.94a.17.17,0,0,1-.12.21Zm3.17-.52a.17.17,0,0,1-.18-.17l-.1-3a.16.16,0,0,1,.16-.17h.43a.16.16,0,0,1,.16.17l-.05,3.06a.18.18,0,0,1-.17.17Z"/><path class="cls-10" d="M282.55,115c0-2,5.3-1.6,5.3-10.58H273.16c0,8.84,5.3,8.57,5.3,10.58s-5.3,1.68-5.3,10.58h14.69C287.85,116.75,282.55,117,282.55,115Z"/><rect class="cls-11" x="271.32" y="99.82" width="18.38" height="5.53" rx="0.93"/><path class="cls-11" d="M288.77,100.16a.59.59,0,0,1,.59.59v3.67a.58.58,0,0,1-.59.59H272.24a.58.58,0,0,1-.58-.59v-3.67a.59.59,0,0,1,.58-.59h16.53"/><rect class="cls-11" x="271.32" y="124.66" width="18.38" height="5.53" rx="0.93"/><path class="cls-11" d="M288.77,125a.58.58,0,0,1,.59.58v3.68a.58.58,0,0,1-.59.58H272.24a.58.58,0,0,1-.58-.58v-3.68a.58.58,0,0,1,.58-.58h16.53"/><path class="cls-9" d="M286.09,124.23c-1.15-4.59-5.24-3.46-5.23-9.23,0-1.51,1.1-2.31,2-3a7.63,7.63,0,0,0,1.9-1.79h-8.48a7.5,7.5,0,0,0,1.91,1.76c.88.66,2,1.48,2,3,0,5.77-4.12,4.67-5.23,9.23Z"/><path class="cls-1" d="M301.62,165.48l.85.06-1.11-.09Z"/><path class="cls-1" d="M299.94,165.27l-.59-.09.43.07Z"/><path class="cls-1" d="M304.35,165.64c-.5,0-1,0-1.51-.07C303.35,165.61,303.85,165.63,304.35,165.64Z"/><path class="cls-1" d="M310.6,128l-.21.19,0,0h.12l.12-.15A.26.26,0,0,0,310.6,128Z"/><path class="cls-10" d="M304.35,165.64c-.5,0-1,0-1.51-.07l-.37,0-.85-.06-.26,0c-.48,0-.95-.11-1.42-.18l-.16,0-.43-.07a32.19,32.19,0,0,1-14-5.52,1.27,1.27,0,0,0-1.34,2.13,1.33,1.33,0,0,0,.19.14,38,38,0,0,0,11,5,35.83,35.83,0,0,0,3.7.8c.68.11,1.36.19,2.05.27a34.59,34.59,0,0,0,4.07.24c.82,0,1.64,0,2.47-.07l1.57-.13c.45,0,.9-.09,1.34-.16.76-.1,1.51-.23,2.26-.38a38,38,0,0,0,5.75-1.62,38.82,38.82,0,0,0,7.74-3.92,1.33,1.33,0,0,0,.6-.79,1.26,1.26,0,0,0-.92-1.55c-5.05,3.74-12.28,6.08-20.31,6.08Z"/><path class="cls-10" d="M329.42,125.54l.15-.14a1.06,1.06,0,0,0,.32-1.05,2,2,0,0,0-.16-.47,2.48,2.48,0,0,0-1.12-1.12,1.68,1.68,0,0,0-.74-.18,1.15,1.15,0,0,0-.64.22l-.23.2a39.13,39.13,0,0,0-6.68,7.81,29.18,29.18,0,0,1,3.16,1.6A35.7,35.7,0,0,1,329.42,125.54Z"/><path class="cls-10" d="M302.84,165.57l-.37,0Z"/><path class="cls-10" d="M301.36,165.45c-.47-.06-.95-.11-1.42-.18C300.41,165.34,300.88,165.4,301.36,165.45Z"/><path class="cls-10" d="M324.81,159.77c-.63.4-1.26.8-1.91,1.18a31.8,31.8,0,0,1-3.5,1.76l-.22.08a.71.71,0,0,1-.07-.16,30.15,30.15,0,0,1-.86-3.33c-.15-.76-.28-1.52-.4-2.29s-.17-1.45-.23-2.18a35.43,35.43,0,0,1-.08-4c0-.83.09-1.65.18-2.47a36.82,36.82,0,0,1,.63-3.9,35.57,35.57,0,0,1,4.21-10.64c.29-.48.61-1,.92-1.42a29.18,29.18,0,0,0-3.16-1.6,39,39,0,0,0-4.52,9.68,39.6,39.6,0,0,0-1.18,4.95c-.11.7-.22,1.41-.3,2.12a1.77,1.77,0,0,1,0,.21.7.7,0,0,1-.21,0l-3.29-.67-3.34-.69-3.62-.74-3.34-.69-3.39-.69-3-.6a2.59,2.59,0,0,0-2.92,1.87c-.11.4-.18.81-.26,1.22a3.07,3.07,0,0,0-.05.53,2.59,2.59,0,0,0,1.6,2.4l.27.12a34.95,34.95,0,0,1-1.22,11.82,10.58,10.58,0,0,1-.35,1.13.35.35,0,0,1-.25-.06,36,36,0,0,1-5.15-2.78l-.35-.22-.1-.05a32.19,32.19,0,0,0,14,5.52q-1.2-.19-2.4-.48c-1.05-.25-2.08-.54-3.11-.88-.07,0-.17,0-.22-.13a2.09,2.09,0,0,1,.05-.21c.28-.87.51-1.76.73-2.65q.39-1.65.63-3.33c.09-.66.16-1.33.23-2s.13-1.61.14-2.42,0-1.69,0-2.54a1,1,0,0,1,0-.17h.12l18.53,3.8.08,0c0,.11,0,.22,0,.33,0,.73.12,1.45.21,2.18s.23,1.63.39,2.44a40.41,40.41,0,0,0,1.17,4.61l.06.19a.68.68,0,0,1-.32.13,35.2,35.2,0,0,1-7.48,1.44c-.83.07-1.66.11-2.5.13-.44,0-.89,0-1.34,0l1.2,0c8,0,15.26-2.34,20.31-6.08a1.09,1.09,0,0,0-.25,0A1.49,1.49,0,0,0,324.81,159.77Z"/><path class="cls-12" d="M291.59,128.37a14.22,14.22,0,0,1-1.76-.75c-1.34-.79-2.05.12-1.07,1.06a18.15,18.15,0,0,0,1.93,1.37Z"/><path class="cls-13" d="M302.08,131.48c.51-.38,1-.77,1.42-1.14,4.25-3.62,6.13-10.4,9.19-9.75,2.79.59,1.43,6.79-5.21,12.07A15.39,15.39,0,0,1,304,135a4.81,4.81,0,0,1-4.09-.25,58.37,58.37,0,0,1-9.22-4.7l.9-1.68A92.19,92.19,0,0,0,302.08,131.48Z"/><polygon class="cls-14" points="281.14 161.19 280.84 163.46 273.8 160.79 278.5 160.18 281.14 161.19"/><polygon class="cls-14" points="291.22 165.01 290.91 167.28 283.88 164.61 288.57 164 291.22 165.01"/><path class="cls-11" d="M287,134.74a3.56,3.56,0,0,1,4-2.28h0c2.27.5,4.59,1.09,6.76,1.74a49.64,49.64,0,0,1,5.93,2.12c4.7,2.09,9,4.3,11.31,5.49l-.57,1.38a6.49,6.49,0,0,1-8.66,3.23l-4.31-1.92c-4-1.78-6.69-3.14-9.75-4.65q-.3,1-.66,2c-2.36,6.86-6.34,14-10.11,20.08l-2.53-1.84c.59-1.52,1.89-4.8,2.69-7.32.43-1.38.82-2.7,1.05-3.67C282.61,147.63,285.48,139.26,287,134.74Z"/><path class="cls-15" d="M295.52,135.67c1.93.25,3.87.58,5.67,1a31.28,31.28,0,0,1,4.82,1.43c4.15,1.69,7.69,3.09,9.14,3.74l-1.46,3.59a4.51,4.51,0,0,1-5.76,2.51l-3.82-1.44c-2.69-1-4.67-1.88-6.73-2.78h0c-1,7.5-3.67,15-6.25,21.91l-2.6-1.57c.28-1.68.73-4.53,1-7.29.15-1.52.28-3,.31-4,.06-2,.87-8.47,1.59-13.87a3.69,3.69,0,0,1,4-3.2Z"/><path class="cls-9" d="M306.42,130.08c.26-.78.51-1.57.77-2.36.13-.39.27-.78.41-1.17.88-3.43,3.56-6.94,7.4-7.06a6.91,6.91,0,0,1,6.95,5.9,13.22,13.22,0,0,1-.56,5.33c-.12.41-.26.81-.41,1.2s-.32.76-.5,1.11c-1.05,2.1-2.26,4.11-3.16,6.28-.28.69-.54,1.39-.78,2.07-1,2.7-1.75,5-1.75,5s-4.26-.86-6-3.63c-3.33-5.3-5.45-5.91-5.45-5.91S306.23,130.57,306.42,130.08Z"/><path class="cls-16" d="M318.58,120.36h0a8.92,8.92,0,0,1-.06-2,9.24,9.24,0,0,1,.7-2.77l-3.1-.41a10.68,10.68,0,0,1-1.09,2.54,9.27,9.27,0,0,1-1.33,1.78,2.17,2.17,0,0,0,1,.8A5.51,5.51,0,0,0,318.58,120.36Z"/><path class="cls-17" d="M319.63,110a3.34,3.34,0,0,1,.89,5.56c-1.48,1.13-2.1.18-3,1.17a4.54,4.54,0,0,1-3.68,1c-.9-.35-.89-2.64.43-5.35A4.26,4.26,0,0,1,319.63,110Z"/><path class="cls-18" d="M319.27,109.45h-.06a4.55,4.55,0,0,0-2.14,0,3.36,3.36,0,0,0-1.54.52c-1.18,1,1.85,1.92,2.4,2.24.81.5,1.42,1.21.77,2.13a3.11,3.11,0,0,0,0,2.92,6,6,0,0,1,.62-.28,5.06,5.06,0,0,0,2.11-1.57,4,4,0,0,0,.66-3.57A4.44,4.44,0,0,0,319.27,109.45Z"/><path class="cls-19" d="M318.4,115.17s1.11-.15.61.64a1.15,1.15,0,0,1-1.38.44Z"/><polygon class="cls-20" points="313.94 119.08 313.07 119.67 313.12 120.7 314.48 120.19 313.94 119.08"/><polygon class="cls-21" points="318.8 119.48 319.01 120.92 314.96 121.71 314.49 120.19 318.8 119.48"/><path class="cls-22" d="M318.62,114.41a4.22,4.22,0,0,1-3.07,1c-1.7-.38-2-1.13-2-1.13s-2.73,2.43-1.33,3.47,2.89.62,4.11.31a3.5,3.5,0,0,0,1.91-1.75l.3-1.13Z"/><path class="cls-23" d="M301.49,135.91a16.07,16.07,0,0,1-1.91-.2c-1.51-.37-1.93.71-.72,1.32a19.19,19.19,0,0,0,2.24.75Z"/><path class="cls-24" d="M312.42,135.84c.38-.52.73-1,1-1.51,3-4.7,2.84-11.73,5.95-12,2.85-.25,3.34,6.08-1.46,13.07a15.38,15.38,0,0,1-2.66,3.24,4.74,4.74,0,0,1-4,1,58.81,58.81,0,0,1-10.19-1.81l.39-1.87A93.78,93.78,0,0,0,312.42,135.84Z"/></svg>