<svg width="14" height="15" viewBox="0 0 14 15" fill="none" xmlns="http://www.w3.org/2000/svg">
<path fill-rule="evenodd" clip-rule="evenodd" d="M13.3159 7.47335C13.2573 7.35341 13.2573 7.21586 13.3159 7.09595L13.8593 5.98434C14.1618 5.36541 13.9221 4.62771 13.3136 4.30483L12.2206 3.72491C12.1027 3.66236 12.0219 3.55105 11.9988 3.41961L11.785 2.2009C11.666 1.52235 11.0383 1.06639 10.3563 1.16288L9.13125 1.33617C8.99902 1.35484 8.86827 1.31233 8.77235 1.21953L7.88309 0.359273C7.38794 -0.119743 6.61225 -0.119772 6.11713 0.359273L5.22784 1.21962C5.13189 1.31244 5.00114 1.35487 4.86894 1.33626L3.64385 1.16296C2.96164 1.06642 2.3342 1.52244 2.21517 2.20098L2.00141 3.41964C1.97834 3.5511 1.89749 3.66239 1.7796 3.72496L0.686636 4.30488C0.0780914 4.62774 -0.161616 5.3655 0.140921 5.98443L0.684274 7.096C0.742892 7.21594 0.742892 7.3535 0.684274 7.47341L0.140892 8.58498C-0.161644 9.20391 0.078063 9.94162 0.686608 10.2645L1.77958 10.8444C1.89749 10.907 1.97834 11.0183 2.00141 11.1497L2.21517 12.3684C2.32353 12.9861 2.85319 13.4193 3.46194 13.4193C3.52189 13.4193 3.58273 13.4151 3.64388 13.4064L4.86897 13.2331C5.00108 13.2144 5.13192 13.257 5.22787 13.3498L6.11713 14.21C6.36475 14.4496 6.68236 14.5693 7.0001 14.5693C7.31774 14.5692 7.63556 14.4495 7.88306 14.21L8.77235 13.3498C8.8683 13.257 8.99908 13.2146 9.13125 13.2331L10.3563 13.4064C11.0386 13.5029 11.666 13.0469 11.785 12.3684L11.9988 11.1497C12.0219 11.0183 12.1027 10.907 12.2206 10.8444L13.3136 10.2645C13.9221 9.94165 14.1618 9.20389 13.8593 8.58496L13.3159 7.47335ZM5.3195 3.50335C6.16895 3.50335 6.86004 4.19445 6.86004 5.04389C6.86004 5.89334 6.16895 6.58444 5.3195 6.58444C4.47005 6.58444 3.77896 5.89334 3.77896 5.04389C3.77896 4.19445 4.47005 3.50335 5.3195 3.50335ZM4.52434 10.3545C4.44231 10.4366 4.33477 10.4776 4.22727 10.4776C4.11977 10.4776 4.01221 10.4366 3.9302 10.3545C3.76612 10.1905 3.76612 9.92443 3.9302 9.76036L9.47582 4.21474C9.63986 4.05066 9.90592 4.05066 10.07 4.21474C10.2341 4.37881 10.2341 4.64484 10.07 4.80891L4.52434 10.3545ZM8.68064 11.066C7.83119 11.066 7.1401 10.3749 7.1401 9.52543C7.1401 8.67598 7.83119 7.98489 8.68064 7.98489C9.53008 7.98489 10.2212 8.67598 10.2212 9.52543C10.2212 10.3749 9.53008 11.066 8.68064 11.066Z" fill="#7ED321"/>
<path fill-rule="evenodd" clip-rule="evenodd" d="M8.68072 8.8252C8.29462 8.8252 7.98047 9.13931 7.98047 9.52542C7.98047 9.91153 8.29459 10.2257 8.68072 10.2257C9.06683 10.2257 9.38095 9.91153 9.38095 9.52542C9.38095 9.13931 9.06683 8.8252 8.68072 8.8252Z" fill="#7ED321"/>
<path fill-rule="evenodd" clip-rule="evenodd" d="M5.31961 4.34375C4.9335 4.34375 4.61938 4.65787 4.61938 5.04398C4.61938 5.43009 4.9335 5.74423 5.31961 5.74423C5.70572 5.74423 6.01987 5.43012 6.01987 5.04398C6.01984 4.6579 5.70572 4.34375 5.31961 4.34375Z" fill="#7ED321"/>
</svg>
