<svg width="40" height="40" viewBox="0 0 40 40" fill="none" xmlns="http://www.w3.org/2000/svg">
<circle cx="20" cy="20" r="19.5" fill="white" stroke="#ECECEC"/>
<mask id="mask0" mask-type="alpha" maskUnits="userSpaceOnUse" x="0" y="0" width="40" height="40">
<circle cx="20" cy="20" r="19.5" fill="white" stroke="#ECECEC"/>
</mask>
<g mask="url(#mask0)">
<path d="M35.7422 15.2162C35.3626 12.2548 34.2997 9.55918 32.4397 7.5849C30.4657 5.72453 27.7705 4.66145 24.8096 4.28179C21.9625 3.90212 20.0266 4.01602 20.0266 4.01602C20.0266 4.01602 18.0906 3.94008 15.2435 4.28179C12.2826 4.66145 9.58739 5.72453 7.61344 7.5849C5.75338 9.55918 4.69048 12.2548 4.31087 15.2162C3.93127 18.0638 4.00719 20.0001 4.00719 20.0001C4.00719 20.0001 3.93127 21.9364 4.27291 24.7839C4.65252 27.7449 5.71541 30.4409 7.57548 32.4152C9.54943 34.2756 12.2446 35.3383 15.2056 35.718C18.0526 36.0976 19.9886 35.9841 19.9886 35.9841C19.9886 35.9841 21.9246 36.0597 24.7716 35.718C27.7326 35.3383 30.4278 34.2756 32.4017 32.4152C34.2618 30.4413 35.3247 27.7449 35.7043 24.7839C36.0839 21.9364 35.97 20.0001 35.97 20.0001C35.97 20.0001 36.1218 18.0638 35.7422 15.2162Z" fill="#1E4BC6"/>
<path d="M9.89111 15.3301H12.7761C13.2316 15.3301 13.6113 15.4061 13.9909 15.5579C14.3705 15.7098 14.6741 15.9376 14.9399 16.2034C15.2056 16.4691 15.4334 16.7729 15.5852 17.1525C15.737 17.5322 15.813 17.9119 15.813 18.3295C15.813 18.7472 15.737 19.1268 15.5852 19.5065C15.4334 19.8862 15.2056 20.1903 14.9399 20.4557C14.6741 20.7211 14.3325 20.9496 13.9909 21.1007C13.6492 21.2526 13.2316 21.3293 12.7761 21.3293H11.4855V23.7208H9.92907V15.3301H9.89111ZM11.4475 16.7733V19.8486H12.6622C12.89 19.8486 13.1178 19.8106 13.3076 19.7347C13.4974 19.6587 13.6492 19.5448 13.8011 19.393C13.9529 19.2411 14.0288 19.0892 14.1047 18.8994C14.1807 18.7096 14.2186 18.5197 14.2186 18.2919C14.2186 18.0641 14.1807 17.8743 14.1047 17.6845C14.0288 17.4946 13.9149 17.3428 13.8011 17.1909C13.6492 17.039 13.4974 16.9251 13.3076 16.8492C13.1178 16.7733 12.89 16.7353 12.6622 16.7353H11.4475V16.7733ZM19.4192 23.7208C19.0017 23.7208 18.6221 23.6453 18.2045 23.493C17.8249 23.3411 17.4453 23.1133 17.1416 22.848C16.8379 22.5438 16.5722 22.2021 16.3824 21.7845C16.1926 21.3669 16.0787 20.8733 16.0787 20.3418C16.0787 19.8102 16.1546 19.3167 16.3444 18.899C16.5342 18.4814 16.7999 18.1397 17.1036 17.836C17.4073 17.5322 17.7869 17.3424 18.1665 17.1905C18.5841 17.0386 18.9637 16.9627 19.4192 16.9627C19.8748 16.9627 20.2923 17.0386 20.634 17.1905C21.0136 17.3424 21.3173 17.5702 21.583 17.836V16.9627H23.1394V23.7204H21.583V22.7713C21.3552 23.0754 21.0136 23.3028 20.634 23.4926C20.2544 23.6453 19.8748 23.7208 19.4192 23.7208ZM19.6849 22.3164C19.9886 22.3164 20.2544 22.2785 20.4821 22.1646C20.7099 22.0507 20.9376 21.9368 21.1275 21.7469C21.3173 21.5571 21.4311 21.3672 21.545 21.1394C21.6589 20.9109 21.6969 20.6455 21.6969 20.3801C21.6969 20.114 21.6589 19.8482 21.545 19.6208C21.4311 19.393 21.3173 19.1652 21.1275 19.0133C20.9376 18.8235 20.7478 18.7096 20.4821 18.5957C20.2164 18.4438 19.9507 18.4058 19.6849 18.4058C19.4192 18.4058 19.1535 18.4438 18.8878 18.5577C18.6221 18.6716 18.4322 18.7855 18.2424 18.9753C18.0526 19.1652 17.9008 19.355 17.8249 19.5828C17.711 19.8106 17.673 20.0764 17.673 20.3421C17.673 20.6079 17.711 20.8733 17.8249 21.1011C17.9388 21.3297 18.0906 21.5571 18.2424 21.7469C18.4322 21.9368 18.66 22.0503 18.8878 22.1646C19.1155 22.2401 19.3813 22.3164 19.6849 22.3164ZM25.3031 17.0007L27.2011 21.5947L28.9473 17.0007H30.5796L26.5938 26.7961H24.9994L26.404 23.4175L23.6708 17.0007H25.3031Z" fill="white"/>
</g>
</svg>
