<svg width="88" height="24" viewBox="0 0 88 24" fill="none" xmlns="http://www.w3.org/2000/svg">
<path fill-rule="evenodd" clip-rule="evenodd" d="M11.1428 7.8261L8.48978 5.21741V19.3044L11.1428 16.6957V7.8261Z" fill="#18B1E7"/>
<path fill-rule="evenodd" clip-rule="evenodd" d="M4.24489 2.6087L6.89795 0V24L4.24489 21.3913V2.6087Z" fill="#1D3769"/>
<path fill-rule="evenodd" clip-rule="evenodd" d="M0 7.8261L2.65306 5.21741V19.3044L0 16.6957V7.8261Z" fill="#1D3769"/>
<path fill-rule="evenodd" clip-rule="evenodd" d="M87.234 16.5714C87.1626 16.6245 87.077 16.6378 87.0056 16.6378C86.9056 16.6378 86.7913 16.6112 86.7342 16.5183L84.0494 13.5035L82.6214 14.8316V16.319C82.6214 16.4917 82.4643 16.6378 82.2644 16.6378C82.0787 16.6378 81.9216 16.4917 81.9216 16.319V7.65993C81.9216 7.48728 82.0787 7.34119 82.2644 7.34119C82.4643 7.34119 82.6214 7.48728 82.6214 7.65993V13.9152L86.7628 10.077C86.9056 9.94423 87.1055 9.94423 87.2483 10.077C87.3911 10.1966 87.3911 10.3958 87.2483 10.5286L84.5493 13.0387L87.2626 16.1066C87.3911 16.2526 87.3769 16.4386 87.234 16.5714ZM64.8284 13.3973C64.8284 15.1769 63.3289 16.6378 61.4438 16.6378C60.3442 16.6378 59.3731 16.1464 58.7591 15.3761V16.3191C58.7591 16.4917 58.602 16.6378 58.402 16.6378C58.2164 16.6378 58.0593 16.4917 58.0593 16.3191V7.65993C58.0593 7.48728 58.2164 7.34119 58.402 7.34119C58.602 7.34119 58.7591 7.48728 58.7591 7.65993V11.4051C59.3731 10.6348 60.3442 10.1302 61.4438 10.1302C63.3289 10.1302 64.8284 11.5911 64.8284 13.3973ZM58.759 13.3972C58.759 14.8316 59.9728 15.987 61.4438 15.987C62.929 15.987 64.1285 14.8316 64.1285 13.3972C64.1285 11.9496 62.929 10.7809 61.4438 10.7809C60.0014 10.7809 58.8161 11.8965 58.759 13.291V13.3972ZM71.9589 16.6378C72.1446 16.6378 72.3016 16.4917 72.3016 16.319V10.4489C72.3016 10.263 72.1446 10.1302 71.9589 10.1302C71.7733 10.1302 71.6162 10.263 71.6162 10.4489V11.4051C71.0164 10.6348 70.0596 10.1302 68.9885 10.1302C67.1463 10.1302 65.6754 11.6043 65.6754 13.384C65.6754 15.1636 67.1463 16.6378 68.9885 16.6378C70.0596 16.6378 71.0164 16.1198 71.6162 15.3495V16.319C71.6162 16.4917 71.7733 16.6378 71.9589 16.6378ZM66.3608 13.384C66.3608 14.8449 67.5604 16.0003 68.9885 16.0003C70.4309 16.0003 71.6162 14.8449 71.6162 13.384C71.6162 11.9231 70.4309 10.7544 68.9885 10.7544C67.5604 10.7544 66.3608 11.9231 66.3608 13.384ZM74.5625 16.6378C74.6625 16.6378 74.7624 16.598 74.8196 16.5183C74.8624 16.4784 74.8767 16.4253 74.891 16.3722V12.7864C74.9195 11.684 75.8763 10.7809 77.0616 10.7809C78.2612 10.7809 79.218 11.684 79.218 12.7864V16.3191C79.218 16.505 79.3751 16.6378 79.5608 16.6378C79.7464 16.6378 79.9035 16.505 79.9035 16.3191V12.7864C79.9035 11.3387 78.6325 10.1435 77.0616 10.1435C76.1905 10.1435 75.4051 10.5153 74.891 11.0864V10.4622C74.891 10.2896 74.7482 10.1435 74.5625 10.1435C74.3626 10.1435 74.2198 10.2896 74.2198 10.4622V16.3987C74.2198 16.3987 74.234 16.412 74.234 16.4253C74.234 16.4386 74.234 16.4519 74.2483 16.4652C74.2912 16.5448 74.3769 16.6112 74.4768 16.6378H74.5625Z" fill="#18B1E7"/>
<path fill-rule="evenodd" clip-rule="evenodd" d="M22.1798 17.1324C22.9151 17.1324 23.5619 17.0233 24.1204 16.8051C24.6789 16.5869 25.1113 16.2673 25.4177 15.8463C25.724 15.4253 25.8772 14.9195 25.8772 14.3288C25.8772 13.8131 25.7558 13.3701 25.5131 12.9998C25.2704 12.6295 24.9476 12.3111 24.5446 12.0444C24.1416 11.7777 23.6008 11.4768 22.9221 11.1418C22.4226 10.895 22.0502 10.6955 21.8052 10.5434C21.5601 10.3913 21.3751 10.2315 21.2502 10.064C21.1253 9.89654 21.0629 9.69597 21.0629 9.46234C21.0629 9.13174 21.1889 8.87717 21.4411 8.69865C21.6932 8.52012 22.1044 8.43086 22.6747 8.43086C23.1602 8.43086 23.5926 8.49036 23.972 8.60938C24.3514 8.7284 24.7013 8.88268 25.0218 9.07223L25.3894 7.43904C25.1538 7.29798 24.785 7.16574 24.283 7.04232C23.7811 6.91889 23.2238 6.85718 22.6111 6.85718C21.8994 6.85718 21.262 6.94865 20.6988 7.13158C20.1356 7.31451 19.6878 7.60765 19.3556 8.01099C19.0233 8.41433 18.8572 8.93337 18.8572 9.56814C18.8572 10.3087 19.1046 10.9236 19.5995 11.4129C20.0943 11.9022 20.7377 12.3298 21.5294 12.6957C22.1233 12.969 22.5604 13.1894 22.8408 13.3569C23.1213 13.5244 23.3204 13.6908 23.4382 13.8561C23.556 14.0214 23.615 14.223 23.615 14.4611C23.615 14.8137 23.4971 15.0727 23.2615 15.238C23.0258 15.4033 22.6182 15.486 22.0385 15.486C21.5059 15.486 20.9969 15.4242 20.5114 15.3008C20.026 15.1774 19.6112 15.0275 19.2672 14.8512L18.9491 16.5373C19.0905 16.621 19.332 16.7092 19.6737 16.8018C20.0154 16.8943 20.4089 16.9726 20.8543 17.0365C21.2997 17.1004 21.7415 17.1324 22.1798 17.1324ZM33.5305 17.1191C35.1282 17.1191 36.2616 16.8436 36.9309 16.2926C37.6001 15.7416 37.9348 14.9702 37.9348 13.9784C37.9348 13.5552 37.8417 13.1772 37.6555 12.8444C37.4694 12.5116 37.2113 12.2449 36.8814 12.0444C36.5515 11.8438 36.1745 11.7215 35.7503 11.6774C36.0849 11.5936 36.3736 11.4427 36.6163 11.2245C36.859 11.0063 37.044 10.7407 37.1713 10.4277C37.2985 10.1147 37.3621 9.77531 37.3621 9.40945C37.3621 8.89811 37.2207 8.45179 36.938 8.0705C36.6552 7.6892 36.2204 7.39276 35.6336 7.18117C35.0469 6.96958 34.3105 6.86379 33.4244 6.86379C33.0662 6.86379 32.5596 6.88363 31.9045 6.9233C31.4237 6.94975 31.0868 6.96297 30.8935 6.96297L29.8048 6.95636V17.0266H30.943C31.9846 17.0883 32.8471 17.1191 33.5305 17.1191ZM32.6467 11.1682C32.9295 11.177 33.1746 11.1814 33.382 11.1814C34.0324 11.1814 34.5013 11.058 34.7888 10.8112C35.0763 10.5643 35.2201 10.1566 35.2201 9.58793C35.2201 9.17798 35.0469 8.87823 34.7004 8.68869C34.354 8.49914 33.8486 8.40437 33.184 8.40437C32.9955 8.40437 32.774 8.41098 32.5195 8.4242C32.265 8.43743 32.1024 8.45947 32.0317 8.49032V11.1219C32.1589 11.144 32.364 11.1594 32.6467 11.1682ZM33.5941 15.6645C33.2594 15.6645 32.9378 15.6524 32.6291 15.6281C32.3204 15.6039 32.1212 15.5587 32.0317 15.4926V12.6361C32.126 12.6229 32.3404 12.6119 32.675 12.6031C33.0096 12.5943 33.3136 12.5899 33.587 12.5899C34.3034 12.5899 34.8277 12.7078 35.16 12.9436C35.4922 13.1794 35.6584 13.5552 35.6584 14.071C35.6584 14.6484 35.4899 15.0584 35.1529 15.3008C34.8159 15.5433 34.2963 15.6645 33.5941 15.6645ZM49.7166 11.631L48.1755 17.1257H46.394L44.6902 11.631L43.8913 8.5498L43.6368 11.631L43.1773 17.0265L41.0918 17.0331L42.2371 6.9629H45.3972L46.8323 12.2526L47.3766 14.4742L47.7867 12.2526L49.0804 6.9629H52.1486L53.4352 17.0265H51.2295L50.6993 11.631L50.5084 8.5498L49.7166 11.631Z" fill="#1D3769"/>
</svg>
