<svg width="16" height="16" viewBox="0 0 16 16" fill="none" xmlns="http://www.w3.org/2000/svg">
<path fill-rule="evenodd" clip-rule="evenodd" d="M2.4 7.29999C2.4 4.5938 4.5938 2.4 7.29999 2.4C10.0062 2.4 12.2 4.5938 12.2 7.29999C12.2 8.62005 11.678 9.81818 10.8292 10.6992C10.8051 10.7177 10.782 10.7379 10.76 10.7599C10.738 10.782 10.7178 10.8051 10.6993 10.8291C9.81825 11.678 8.62008 12.2 7.29999 12.2C4.5938 12.2 2.4 10.0062 2.4 7.29999ZM11.2324 12.2223C10.1546 13.0844 8.78752 13.6 7.29999 13.6C3.8206 13.6 1 10.7794 1 7.29999C1 3.8206 3.8206 1 7.29999 1C10.7794 1 13.6 3.8206 13.6 7.29999C13.6 8.78748 13.0845 10.1546 12.2224 11.2323L14.795 13.8049C15.0683 14.0783 15.0683 14.5215 14.795 14.7949C14.5216 15.0683 14.0784 15.0683 13.805 14.7949L11.2324 12.2223Z" fill="#5A6389"/>
</svg>
