<svg width="20" height="20" viewBox="0 0 20 20" fill="none" xmlns="http://www.w3.org/2000/svg">
<path fill-rule="evenodd" clip-rule="evenodd" d="M0 15.6091L0.0317881 15.6406C0.0525123 15.6611 0.0700072 15.6783 0.0869179 15.696L0.564613 16.1924C1.20122 16.8539 1.83783 17.5155 2.47336 18.1781C2.52315 18.2302 2.57252 18.2522 2.6434 18.2522C4.69175 18.2508 6.7404 18.2508 8.78885 18.2509H8.79647L10.0259 18.2509H10.1361V10.6101H6.05261V12.5595H7.13697V11.717H9.04031C9.04068 11.7206 9.0411 11.7243 9.04155 11.728C9.04212 11.7326 9.04273 11.7372 9.04335 11.7419C9.04562 11.7589 9.0479 11.7761 9.0479 11.7933C9.0479 11.9224 9.04837 12.0516 9.04883 12.1807V12.1808C9.05002 12.5129 9.05121 12.8449 9.04453 13.1769C9.04031 13.379 9.02174 13.5847 8.97955 13.7815C8.88082 14.2392 8.57238 14.4629 8.14876 14.5327C8.00826 14.5556 7.86523 14.5689 7.72304 14.5693C6.72691 14.5714 5.73105 14.5713 4.73502 14.5711H4.73499L3.9881 14.5711H3.90118V10.2822H3.77924C3.58839 10.2822 3.39751 10.2826 3.20661 10.283H3.20657C2.71336 10.2841 2.22005 10.2851 1.72697 10.2791C1.51431 10.2765 1.29744 10.261 1.09069 10.212C0.49577 10.0712 0.152739 9.66653 0.0459905 9.04425C0.0172992 8.87831 0.00506318 8.70751 0.00506318 8.53892C0.00303792 6.2899 0.00317292 4.04088 0.00330794 1.79163L0.00337545 0.104596V0H20V0.11254L20 0.929994C20 3.10258 20.0001 5.27544 19.9974 7.44795C19.9974 7.50135 19.9721 7.56667 19.9371 7.6055C19.7413 7.8222 19.5401 8.03404 19.3371 8.24367C19.3063 8.27545 19.2557 8.30325 19.2139 8.30325C18.2249 8.30634 17.2363 8.3059 16.2473 8.30546C16.2398 8.30546 16.2323 8.30483 16.2206 8.30386C16.2126 8.3032 16.2027 8.30238 16.1895 8.30149C16.2003 8.28928 16.2099 8.27813 16.2188 8.26778L16.2188 8.26773C16.2357 8.24816 16.25 8.23145 16.2655 8.21587L16.5314 7.94072L16.5322 7.93993C17.0196 7.43561 17.5069 6.93131 17.9958 6.42891C18.046 6.37727 18.0671 6.32563 18.0667 6.25149C18.0642 5.43767 18.0642 4.62385 18.0667 3.80959C18.0671 3.73545 18.0452 3.68425 17.9954 3.63218C17.7701 3.39812 17.5454 3.16338 17.3208 2.92863L17.3207 2.92859C17.0362 2.6313 16.7516 2.334 16.4659 2.03808C16.4296 2.00057 16.3667 1.97144 16.3161 1.97144C12.2082 1.96835 8.10024 1.96835 3.99232 1.971C3.94379 1.971 3.88346 1.99571 3.84928 2.03102C3.32271 2.569 2.79909 3.10964 2.27716 3.65248C2.24679 3.68381 2.22274 3.73854 2.22274 3.78223C2.21978 5.24724 2.2202 6.71181 2.22063 8.17683V8.177V8.17747C2.22063 8.19236 2.22205 8.20743 2.22362 8.22412C2.22447 8.23317 2.22537 8.2427 2.22611 8.25294H3.83789V4.5656H3.95012H7.39351C7.75215 4.5656 8.09687 4.63356 8.41332 4.81672C8.83229 5.05945 9.06689 5.41561 9.05212 5.93682C9.04364 6.24464 9.0457 6.55266 9.04776 6.86076C9.04868 6.99705 9.04959 7.13335 9.04959 7.26965V7.38881H7.1433V6.57234H6.05261V8.28427H6.18045C6.85184 8.28427 7.52322 8.28296 8.1946 8.28164C9.85439 8.27838 11.5142 8.27512 13.174 8.29178C14.1997 8.30193 15.1241 8.65411 15.8465 9.45469C16.449 10.1224 16.6899 10.9217 16.584 11.837C16.5241 12.3551 16.3655 12.8247 16.0288 13.2188C15.8431 13.4364 15.6203 13.6037 15.376 13.7418C15.3553 13.7536 15.3385 13.7731 15.3217 13.7926L15.3217 13.7926C15.3139 13.8017 15.3061 13.8108 15.298 13.819C15.3068 13.8263 15.3154 13.8345 15.3239 13.8428C15.3422 13.8603 15.3605 13.878 15.3824 13.887C15.9127 14.1108 16.3735 14.4316 16.711 14.9246C16.9735 15.3081 17.1076 15.7419 17.1827 16.2018C17.4815 18.0369 16.1241 19.725 14.5571 19.9439C14.3296 19.9756 14.0988 19.9964 13.8697 19.9968C9.99121 20.0002 6.11359 20.0001 2.23611 20L0.12447 19.9999H0V15.6091ZM12.0583 18.2843H12.1685C12.3064 18.2843 12.4443 18.2841 12.5823 18.284L12.587 18.2839C12.9011 18.2836 13.2153 18.2832 13.5296 18.2847C13.8541 18.2865 14.1494 18.1885 14.4186 18.0058C14.9764 17.6271 15.227 16.8976 15.0363 16.2224C14.8557 15.5829 14.2933 15.1636 13.6153 15.1636H12.1668H12.0588C12.0583 16.2078 12.0583 17.2401 12.0583 18.2843ZM12.1723 13.116H12.0571C12.0571 12.2594 12.0571 11.42 12.0575 10.5735C12.0669 10.5726 12.0759 10.5716 12.0846 10.5705C12.1022 10.5684 12.1188 10.5664 12.1351 10.5664C12.255 10.5663 12.3749 10.5651 12.4948 10.5638C12.7802 10.5608 13.0657 10.5579 13.3503 10.57C13.7469 10.5867 14.114 10.7138 14.4203 10.9919C14.8933 11.4213 14.9 12.1424 14.4266 12.6178C14.1064 12.939 13.7199 13.1129 13.271 13.1156C13.0174 13.1171 12.7639 13.1167 12.5104 13.1164C12.3977 13.1162 12.285 13.116 12.1723 13.116Z" fill="#2E2A81"/>
<path d="M16.5527 19.9917C16.6278 19.9122 16.6886 19.8469 16.7506 19.7829C17.1637 19.3566 17.5763 18.9298 17.9919 18.5057C18.0451 18.4514 18.0662 18.3971 18.0662 18.3199C18.0645 16.0713 18.0649 13.8231 18.0649 11.5745C18.0649 11.5282 18.0649 11.4819 18.0649 11.4307C18.7067 11.4307 19.3345 11.4307 19.9699 11.4307C19.9699 14.2839 19.9699 17.1336 19.9699 19.9917C18.8362 19.9917 17.7038 19.9917 16.5527 19.9917Z" fill="#2E2A81"/>
<path d="M18.9954 9.03565C19.5262 9.03388 19.954 9.4814 19.9515 10.0353C19.9489 10.5852 19.5236 11.0305 18.9996 11.0322C18.4743 11.0336 18.0393 10.5785 18.0414 10.03C18.0439 9.48051 18.4688 9.03742 18.9954 9.03565Z" fill="#2E2A81"/>
</svg>