<svg width="20" height="20" viewBox="0 0 20 20" fill="none" xmlns="http://www.w3.org/2000/svg">
<path fill-rule="evenodd" clip-rule="evenodd" d="M0 15.6091L0.0317783 15.6406L0.0318012 15.6406C0.0525198 15.6611 0.0700102 15.6783 0.0869179 15.696L0.564302 16.1921L0.565144 16.193C1.20158 16.8543 1.83801 17.5156 2.47336 18.1781C2.52315 18.2302 2.57252 18.2522 2.6434 18.2522C4.69503 18.2508 6.74696 18.2508 8.79868 18.2509L10.0259 18.2509H10.1361V10.6101H6.05261V12.5595H7.13697V11.717H9.04031C9.04114 11.7252 9.04224 11.7335 9.04334 11.7418L9.04335 11.7418L9.04335 11.7419V11.7419V11.7419V11.7419C9.04562 11.7589 9.0479 11.7761 9.0479 11.7933C9.0479 11.9224 9.04836 12.0515 9.04883 12.1805L9.04883 12.1807C9.05002 12.5128 9.05121 12.8448 9.04453 13.1769C9.04031 13.379 9.02174 13.5847 8.97955 13.7815C8.88082 14.2392 8.57238 14.4629 8.14877 14.5327C8.00826 14.5556 7.86523 14.5689 7.72304 14.5693C6.7269 14.5714 5.73103 14.5713 4.735 14.5711H4.73497H4.73494H4.73491L3.9881 14.5711H3.90118V10.2822H3.77924C3.58842 10.2822 3.39757 10.2826 3.2067 10.283H3.20666H3.20662H3.20657C2.71336 10.2841 2.22005 10.2851 1.72697 10.2791C1.51431 10.2765 1.29744 10.261 1.09069 10.212C0.49577 10.0712 0.15274 9.66653 0.0459909 9.04425C0.0172997 8.87831 0.00506306 8.70751 0.00506306 8.53892C0.00303841 6.28965 0.00317287 4.04037 0.0033083 1.79087L0.00337505 0.104596V0H20V0.11254L20 0.928357C20 3.10149 20.0001 5.27489 19.9974 7.44795C19.9974 7.50135 19.9721 7.56667 19.9371 7.6055C19.7413 7.8222 19.5401 8.03404 19.3371 8.24367C19.3063 8.27545 19.2557 8.30325 19.2139 8.30325C18.2249 8.30634 17.2363 8.3059 16.2473 8.30546C16.2398 8.30546 16.2323 8.30483 16.2206 8.30386L16.2206 8.30386H16.2206C16.2126 8.3032 16.2027 8.30238 16.1895 8.30149C16.2003 8.28929 16.2099 8.27814 16.2188 8.2678L16.2188 8.26777L16.2188 8.26777L16.2188 8.26776C16.2356 8.24818 16.25 8.23146 16.2655 8.21587L16.5315 7.94064L16.5315 7.94059C17.0191 7.43605 17.5067 6.93153 17.9958 6.42891C18.046 6.37727 18.0671 6.32563 18.0667 6.25149C18.0642 5.43767 18.0642 4.62385 18.0667 3.80959C18.0671 3.73545 18.0452 3.68425 17.9954 3.63218C17.7701 3.39814 17.5455 3.16341 17.3208 2.92868L17.3208 2.92863L17.3207 2.92858L17.3207 2.92852C17.0361 2.63125 16.7516 2.33398 16.4659 2.03808C16.4296 2.00057 16.3667 1.97144 16.3161 1.97144C12.2082 1.96835 8.10024 1.96835 3.99232 1.971C3.9438 1.971 3.88346 1.99571 3.84928 2.03102C3.32271 2.569 2.79909 3.10964 2.27717 3.65248C2.24679 3.68381 2.22274 3.73854 2.22274 3.78223C2.21978 5.24682 2.2202 6.71098 2.22063 8.17557V8.17573V8.1759V8.17606V8.17747C2.22063 8.19235 2.22205 8.20742 2.22362 8.22412L2.22363 8.2242C2.22448 8.23323 2.22537 8.24273 2.22611 8.25294H3.83789V4.5656H3.95012H7.39351C7.75215 4.5656 8.09687 4.63356 8.41332 4.81672C8.83229 5.05945 9.06689 5.41561 9.05212 5.93682C9.04364 6.24463 9.0457 6.55266 9.04776 6.86075C9.04868 6.99704 9.04959 7.13334 9.04959 7.26965V7.38881H7.1433V6.57234H6.05261V8.28427H6.18045C6.85182 8.28427 7.52319 8.28296 8.19456 8.28164C9.85437 8.27838 11.5142 8.27512 13.174 8.29178C14.1997 8.30193 15.1241 8.65411 15.8465 9.45469C16.449 10.1224 16.6899 10.9217 16.584 11.837C16.5241 12.3551 16.3655 12.8247 16.0288 13.2188C15.8431 13.4364 15.6203 13.6037 15.376 13.7418C15.3553 13.7536 15.3385 13.7731 15.3217 13.7926C15.3139 13.8017 15.3061 13.8108 15.298 13.819C15.3068 13.8263 15.3154 13.8345 15.3239 13.8428C15.3422 13.8603 15.3605 13.878 15.3824 13.887C15.9127 14.1108 16.3735 14.4316 16.711 14.9246C16.9735 15.3081 17.1076 15.7419 17.1827 16.2018C17.4815 18.0369 16.1241 19.725 14.5571 19.9439C14.3296 19.9756 14.0988 19.9964 13.8697 19.9968C9.99133 20.0002 6.11382 20.0001 2.23646 20L0.12447 19.9999H0V15.6091ZM12.0583 18.2843H12.1685C12.308 18.2843 12.4475 18.2841 12.587 18.2839H12.587H12.5871H12.5871H12.5876C12.9015 18.2836 13.2154 18.2832 13.5296 18.2847C13.8541 18.2865 14.1494 18.1885 14.4186 18.0058C14.9764 17.6271 15.227 16.8976 15.0363 16.2224C14.8557 15.5829 14.2933 15.1636 13.6153 15.1636H12.1668H12.0588C12.0583 16.2078 12.0583 17.2401 12.0583 18.2843ZM12.1723 13.116H12.0571C12.0571 12.2594 12.0571 11.42 12.0575 10.5735C12.0669 10.5726 12.0759 10.5716 12.0846 10.5705H12.0846L12.0846 10.5705C12.1022 10.5684 12.1188 10.5664 12.1351 10.5664C12.255 10.5663 12.3749 10.5651 12.4948 10.5638H12.4948C12.7802 10.5608 13.0657 10.5579 13.3503 10.57C13.7469 10.5867 14.114 10.7139 14.4203 10.9919C14.8933 11.4213 14.9 12.1424 14.4266 12.6178C14.1064 12.939 13.7199 13.1129 13.271 13.1156C13.0174 13.1171 12.7639 13.1167 12.5103 13.1164C12.3976 13.1162 12.2849 13.116 12.1723 13.116ZM16.5527 19.9926L16.6157 19.9258L16.6157 19.9258C16.6637 19.8748 16.7069 19.829 16.7506 19.7839L16.9159 19.6133L16.9159 19.6132C17.2738 19.2437 17.6318 18.8742 17.9919 18.5067C18.0451 18.4524 18.0662 18.3981 18.0662 18.3209C18.0648 16.4471 18.0648 14.5737 18.0649 12.7L18.0649 11.5755V11.4316H19.9699V19.9926H16.5527ZM19.9516 10.0348C19.9541 9.48091 19.5263 9.0334 18.9955 9.03516C18.4689 9.03693 18.044 9.48003 18.0415 10.0295C18.0394 10.5781 18.4744 11.0331 18.9997 11.0318C19.5238 11.03 19.9491 10.5847 19.9516 10.0348Z" fill="#2E2A81"/>
</svg>
