<svg width="120" height="24" viewBox="0 0 120 24" fill="none" xmlns="http://www.w3.org/2000/svg">
<path d="M32.488 9.08C32.0507 9.08 31.6693 9.01067 31.344 8.872C31.024 8.73333 30.7787 8.552 30.608 8.328C30.4427 8.09867 30.3547 7.85333 30.344 7.592C30.344 7.54933 30.36 7.512 30.392 7.48C30.424 7.448 30.464 7.432 30.512 7.432H30.904C31 7.432 31.0667 7.48533 31.104 7.592C31.152 7.816 31.288 8.01067 31.512 8.176C31.7413 8.336 32.0667 8.416 32.488 8.416C32.9413 8.416 33.28 8.336 33.504 8.176C33.728 8.016 33.84 7.79467 33.84 7.512C33.84 7.33067 33.784 7.18133 33.672 7.064C33.5653 6.94667 33.4027 6.84533 33.184 6.76C32.9707 6.66933 32.648 6.56 32.216 6.432C31.8053 6.31467 31.4773 6.18933 31.232 6.056C30.992 5.92267 30.8107 5.76 30.688 5.568C30.5653 5.37067 30.504 5.12267 30.504 4.824C30.504 4.536 30.5813 4.28 30.736 4.056C30.8907 3.82667 31.1147 3.648 31.408 3.52C31.7013 3.38667 32.048 3.32 32.448 3.32C32.864 3.32 33.2187 3.39467 33.512 3.544C33.8107 3.688 34.0373 3.872 34.192 4.096C34.3467 4.31467 34.4293 4.536 34.44 4.76C34.44 4.808 34.424 4.848 34.392 4.88C34.36 4.912 34.32 4.928 34.272 4.928H33.872C33.8293 4.928 33.7893 4.91467 33.752 4.888C33.7147 4.86133 33.688 4.82133 33.672 4.768C33.64 4.53867 33.512 4.34933 33.288 4.2C33.064 4.05067 32.784 3.976 32.448 3.976C32.0853 3.976 31.7973 4.048 31.584 4.192C31.3707 4.33067 31.264 4.53867 31.264 4.816C31.264 5.00267 31.312 5.15467 31.408 5.272C31.5093 5.38933 31.6613 5.49333 31.864 5.584C32.072 5.67467 32.3733 5.77867 32.768 5.896C33.2213 6.024 33.576 6.152 33.832 6.28C34.0933 6.408 34.288 6.568 34.416 6.76C34.544 6.94667 34.608 7.18933 34.608 7.488C34.608 7.98933 34.416 8.38133 34.032 8.664C33.6533 8.94133 33.1387 9.08 32.488 9.08ZM36.8409 9C36.7876 9 36.7449 8.984 36.7129 8.952C36.6809 8.91467 36.6649 8.86933 36.6649 8.816V3.592C36.6649 3.53333 36.6809 3.488 36.7129 3.456C36.7449 3.41867 36.7876 3.4 36.8409 3.4H40.1289C40.1876 3.4 40.2329 3.41867 40.2649 3.456C40.3023 3.488 40.3209 3.53333 40.3209 3.592V3.88C40.3209 3.93333 40.3023 3.976 40.2649 4.008C40.2329 4.04 40.1876 4.056 40.1289 4.056H37.4009V5.84H39.9529C40.0116 5.84 40.0569 5.85867 40.0889 5.896C40.1263 5.928 40.1449 5.97333 40.1449 6.032V6.304C40.1449 6.35733 40.1263 6.40267 40.0889 6.44C40.0569 6.472 40.0116 6.488 39.9529 6.488H37.4009V8.336H40.1929C40.2516 8.336 40.2969 8.35467 40.3289 8.392C40.3663 8.424 40.3849 8.46933 40.3849 8.528V8.816C40.3849 8.86933 40.3663 8.91467 40.3289 8.952C40.2916 8.984 40.2463 9 40.1929 9H36.8409ZM42.6847 9C42.6314 9 42.5887 8.984 42.5567 8.952C42.5247 8.91467 42.5087 8.86933 42.5087 8.816V3.592C42.5087 3.53333 42.5247 3.488 42.5567 3.456C42.5887 3.41867 42.6314 3.4 42.6847 3.4H44.8687C45.434 3.4 45.8607 3.536 46.1487 3.808C46.4367 4.08 46.5807 4.43467 46.5807 4.872C46.5807 5.17067 46.5114 5.42133 46.3727 5.624C46.234 5.82133 46.0714 5.96533 45.8847 6.056C46.114 6.168 46.306 6.34133 46.4607 6.576C46.6154 6.81067 46.6927 7.08 46.6927 7.384C46.6927 7.68267 46.6234 7.95467 46.4847 8.2C46.3514 8.44533 46.1514 8.64 45.8847 8.784C45.618 8.928 45.3007 9 44.9327 9H42.6847ZM44.7487 5.776C45.0954 5.776 45.3594 5.69867 45.5407 5.544C45.722 5.384 45.8127 5.16267 45.8127 4.88C45.8127 4.60267 45.722 4.392 45.5407 4.248C45.3647 4.104 45.1007 4.032 44.7487 4.032H43.2607V5.776H44.7487ZM44.8287 8.368C45.17 8.368 45.4367 8.27733 45.6287 8.096C45.826 7.90933 45.9247 7.672 45.9247 7.384C45.9247 7.09067 45.826 6.85333 45.6287 6.672C45.4367 6.49067 45.17 6.4 44.8287 6.4H43.2607V8.368H44.8287ZM49.0206 9C48.9673 9 48.9246 8.984 48.8926 8.952C48.8606 8.91467 48.8446 8.86933 48.8446 8.816V3.584C48.8446 3.53067 48.8606 3.488 48.8926 3.456C48.9246 3.41867 48.9673 3.4 49.0206 3.4H49.4206C49.4793 3.4 49.5246 3.416 49.5566 3.448C49.5886 3.48 49.6046 3.52533 49.6046 3.584V8.816C49.6046 8.86933 49.586 8.91467 49.5486 8.952C49.5166 8.984 49.474 9 49.4206 9H49.0206ZM55.1613 9C55.1079 9 55.0653 8.984 55.0333 8.952C55.0013 8.91467 54.9853 8.86933 54.9853 8.816V3.592C54.9853 3.53333 55.0013 3.488 55.0333 3.456C55.0653 3.41867 55.1079 3.4 55.1613 3.4H57.1133C57.7213 3.4 58.1959 3.544 58.5373 3.832C58.8839 4.11467 59.0573 4.528 59.0573 5.072C59.0573 5.47733 58.9559 5.81067 58.7533 6.072C58.5506 6.33333 58.2679 6.51467 57.9053 6.616L59.1373 8.752C59.1533 8.784 59.1613 8.81333 59.1613 8.84C59.1613 8.88267 59.1453 8.92 59.1133 8.952C59.0813 8.984 59.0439 9 59.0013 9H58.6493C58.5693 9 58.5053 8.98133 58.4573 8.944C58.4146 8.90667 58.3746 8.85333 58.3373 8.784L57.1613 6.736H55.7373V8.816C55.7373 8.86933 55.7186 8.91467 55.6813 8.952C55.6439 8.984 55.5986 9 55.5453 9H55.1613ZM57.0813 6.08C57.8866 6.08 58.2893 5.74133 58.2893 5.064C58.2893 4.38667 57.8866 4.048 57.0813 4.048H55.7373V6.08H57.0813ZM61.3956 9C61.3423 9 61.2996 8.984 61.2676 8.952C61.2356 8.91467 61.2196 8.86933 61.2196 8.816V3.592C61.2196 3.53333 61.2356 3.488 61.2676 3.456C61.2996 3.41867 61.3423 3.4 61.3956 3.4H64.6836C64.7423 3.4 64.7876 3.41867 64.8196 3.456C64.857 3.488 64.8756 3.53333 64.8756 3.592V3.88C64.8756 3.93333 64.857 3.976 64.8196 4.008C64.7876 4.04 64.7423 4.056 64.6836 4.056H61.9556V5.84H64.5076C64.5663 5.84 64.6116 5.85867 64.6436 5.896C64.681 5.928 64.6996 5.97333 64.6996 6.032V6.304C64.6996 6.35733 64.681 6.40267 64.6436 6.44C64.6116 6.472 64.5663 6.488 64.5076 6.488H61.9556V8.336H64.7476C64.8063 8.336 64.8516 8.35467 64.8836 8.392C64.921 8.424 64.9396 8.46933 64.9396 8.528V8.816C64.9396 8.86933 64.921 8.91467 64.8836 8.952C64.8463 8.984 64.801 9 64.7476 9H61.3956ZM69.0327 9.08C68.3394 9.08 67.8007 8.888 67.4167 8.504C67.0327 8.12 66.8274 7.6 66.8007 6.944C66.7954 6.784 66.7927 6.53333 66.7927 6.192C66.7927 5.84533 66.7954 5.59467 66.8007 5.44C66.822 4.78933 67.0247 4.27467 67.4087 3.896C67.798 3.512 68.3394 3.32 69.0327 3.32C69.502 3.32 69.8994 3.40533 70.2247 3.576C70.55 3.74667 70.7954 3.952 70.9607 4.192C71.126 4.42667 71.214 4.64533 71.2247 4.848V4.864C71.2247 4.90667 71.206 4.944 71.1687 4.976C71.1367 5.00267 71.0994 5.016 71.0567 5.016H70.6087C70.5607 5.016 70.5234 5.00533 70.4967 4.984C70.4754 4.96267 70.454 4.92267 70.4327 4.864C70.3474 4.61333 70.19 4.40267 69.9607 4.232C69.7314 4.06133 69.422 3.976 69.0327 3.976C68.5847 3.976 68.2327 4.09867 67.9767 4.344C67.7207 4.58933 67.5847 4.968 67.5687 5.48C67.5634 5.63467 67.5607 5.872 67.5607 6.192C67.5607 6.50667 67.5634 6.744 67.5687 6.904C67.5847 7.42133 67.7207 7.80267 67.9767 8.048C68.2327 8.29333 68.5847 8.416 69.0327 8.416C69.486 8.416 69.8487 8.29333 70.1207 8.048C70.3927 7.79733 70.5287 7.424 70.5287 6.928V6.584H69.3047C69.2514 6.584 69.206 6.56533 69.1687 6.528C69.1367 6.49067 69.1207 6.44533 69.1207 6.392V6.152C69.1207 6.09867 69.1367 6.05333 69.1687 6.016C69.206 5.97867 69.2514 5.96 69.3047 5.96H71.0967C71.1554 5.96 71.2007 5.97867 71.2327 6.016C71.27 6.048 71.2887 6.09333 71.2887 6.152V6.912C71.2887 7.344 71.198 7.72533 71.0167 8.056C70.8407 8.38133 70.582 8.63467 70.2407 8.816C69.8994 8.992 69.4967 9.08 69.0327 9.08ZM73.6144 9C73.561 9 73.5184 8.984 73.4864 8.952C73.4544 8.91467 73.4384 8.86933 73.4384 8.816V3.584C73.4384 3.53067 73.4544 3.488 73.4864 3.456C73.5184 3.41867 73.561 3.4 73.6144 3.4H74.0144C74.073 3.4 74.1184 3.416 74.1504 3.448C74.1824 3.48 74.1984 3.52533 74.1984 3.584V8.816C74.1984 8.86933 74.1797 8.91467 74.1424 8.952C74.1104 8.984 74.0677 9 74.0144 9H73.6144ZM78.3943 9.08C77.9569 9.08 77.5756 9.01067 77.2503 8.872C76.9303 8.73333 76.6849 8.552 76.5143 8.328C76.3489 8.09867 76.2609 7.85333 76.2503 7.592C76.2503 7.54933 76.2663 7.512 76.2983 7.48C76.3303 7.448 76.3703 7.432 76.4183 7.432H76.8103C76.9063 7.432 76.9729 7.48533 77.0103 7.592C77.0583 7.816 77.1943 8.01067 77.4183 8.176C77.6476 8.336 77.9729 8.416 78.3943 8.416C78.8476 8.416 79.1863 8.336 79.4103 8.176C79.6343 8.016 79.7463 7.79467 79.7463 7.512C79.7463 7.33067 79.6903 7.18133 79.5783 7.064C79.4716 6.94667 79.3089 6.84533 79.0903 6.76C78.8769 6.66933 78.5543 6.56 78.1223 6.432C77.7116 6.31467 77.3836 6.18933 77.1383 6.056C76.8983 5.92267 76.7169 5.76 76.5943 5.568C76.4716 5.37067 76.4103 5.12267 76.4103 4.824C76.4103 4.536 76.4876 4.28 76.6423 4.056C76.7969 3.82667 77.0209 3.648 77.3143 3.52C77.6076 3.38667 77.9543 3.32 78.3543 3.32C78.7703 3.32 79.1249 3.39467 79.4183 3.544C79.7169 3.688 79.9436 3.872 80.0983 4.096C80.2529 4.31467 80.3356 4.536 80.3463 4.76C80.3463 4.808 80.3303 4.848 80.2983 4.88C80.2663 4.912 80.2263 4.928 80.1783 4.928H79.7783C79.7356 4.928 79.6956 4.91467 79.6583 4.888C79.6209 4.86133 79.5943 4.82133 79.5783 4.768C79.5463 4.53867 79.4183 4.34933 79.1943 4.2C78.9703 4.05067 78.6903 3.976 78.3543 3.976C77.9916 3.976 77.7036 4.048 77.4903 4.192C77.2769 4.33067 77.1703 4.53867 77.1703 4.816C77.1703 5.00267 77.2183 5.15467 77.3143 5.272C77.4156 5.38933 77.5676 5.49333 77.7703 5.584C77.9783 5.67467 78.2796 5.77867 78.6743 5.896C79.1276 6.024 79.4823 6.152 79.7383 6.28C79.9996 6.408 80.1943 6.568 80.3223 6.76C80.4503 6.94667 80.5143 7.18933 80.5143 7.488C80.5143 7.98933 80.3223 8.38133 79.9383 8.664C79.5596 8.94133 79.0449 9.08 78.3943 9.08ZM83.9167 9C83.8634 9 83.818 8.984 83.7807 8.952C83.7487 8.91467 83.7327 8.86933 83.7327 8.816V4.088H82.1887C82.1354 4.088 82.09 4.072 82.0527 4.04C82.0207 4.00267 82.0047 3.95733 82.0047 3.904V3.592C82.0047 3.53333 82.0207 3.488 82.0527 3.456C82.09 3.41867 82.1354 3.4 82.1887 3.4H86.0287C86.0874 3.4 86.1327 3.41867 86.1647 3.456C86.1967 3.488 86.2127 3.53333 86.2127 3.592V3.904C86.2127 3.95733 86.194 4.00267 86.1567 4.04C86.1247 4.072 86.082 4.088 86.0287 4.088H84.4927V8.816C84.4927 8.86933 84.474 8.91467 84.4367 8.952C84.3994 8.984 84.354 9 84.3007 9H83.9167ZM88.3019 9C88.2485 9 88.2059 8.984 88.1739 8.952C88.1419 8.91467 88.1259 8.86933 88.1259 8.816V3.592C88.1259 3.53333 88.1419 3.488 88.1739 3.456C88.2059 3.41867 88.2485 3.4 88.3019 3.4H91.5899C91.6485 3.4 91.6939 3.41867 91.7259 3.456C91.7632 3.488 91.7819 3.53333 91.7819 3.592V3.88C91.7819 3.93333 91.7632 3.976 91.7259 4.008C91.6939 4.04 91.6485 4.056 91.5899 4.056H88.8619V5.84H91.4139C91.4725 5.84 91.5179 5.85867 91.5499 5.896C91.5872 5.928 91.6059 5.97333 91.6059 6.032V6.304C91.6059 6.35733 91.5872 6.40267 91.5499 6.44C91.5179 6.472 91.4725 6.488 91.4139 6.488H88.8619V8.336H91.6539C91.7125 8.336 91.7579 8.35467 91.7899 8.392C91.8272 8.424 91.8459 8.46933 91.8459 8.528V8.816C91.8459 8.86933 91.8272 8.91467 91.7899 8.952C91.7525 8.984 91.7072 9 91.6539 9H88.3019ZM94.1456 9C94.0923 9 94.0496 8.984 94.0176 8.952C93.9856 8.91467 93.9696 8.86933 93.9696 8.816V3.592C93.9696 3.53333 93.9856 3.488 94.0176 3.456C94.0496 3.41867 94.0923 3.4 94.1456 3.4H96.0976C96.7056 3.4 97.1803 3.544 97.5216 3.832C97.8683 4.11467 98.0416 4.528 98.0416 5.072C98.0416 5.47733 97.9403 5.81067 97.7376 6.072C97.535 6.33333 97.2523 6.51467 96.8896 6.616L98.1216 8.752C98.1376 8.784 98.1456 8.81333 98.1456 8.84C98.1456 8.88267 98.1296 8.92 98.0976 8.952C98.0656 8.984 98.0283 9 97.9856 9H97.6336C97.5536 9 97.4896 8.98133 97.4416 8.944C97.399 8.90667 97.359 8.85333 97.3216 8.784L96.1456 6.736H94.7216V8.816C94.7216 8.86933 94.703 8.91467 94.6656 8.952C94.6283 8.984 94.583 9 94.5296 9H94.1456ZM96.0656 6.08C96.871 6.08 97.2736 5.74133 97.2736 5.064C97.2736 4.38667 96.871 4.048 96.0656 4.048H94.7216V6.08H96.0656ZM100.38 9C100.327 9 100.284 8.984 100.252 8.952C100.22 8.91467 100.204 8.86933 100.204 8.816V3.592C100.204 3.53333 100.22 3.488 100.252 3.456C100.284 3.41867 100.327 3.4 100.38 3.4H103.668C103.727 3.4 103.772 3.41867 103.804 3.456C103.841 3.488 103.86 3.53333 103.86 3.592V3.88C103.86 3.93333 103.841 3.976 103.804 4.008C103.772 4.04 103.727 4.056 103.668 4.056H100.94V5.84H103.492C103.551 5.84 103.596 5.85867 103.628 5.896C103.665 5.928 103.684 5.97333 103.684 6.032V6.304C103.684 6.35733 103.665 6.40267 103.628 6.44C103.596 6.472 103.551 6.488 103.492 6.488H100.94V8.336H103.732C103.791 8.336 103.836 8.35467 103.868 8.392C103.905 8.424 103.924 8.46933 103.924 8.528V8.816C103.924 8.86933 103.905 8.91467 103.868 8.952C103.831 8.984 103.785 9 103.732 9H100.38ZM106.224 9C106.17 9 106.128 8.984 106.096 8.952C106.064 8.91467 106.048 8.86933 106.048 8.816V3.592C106.048 3.53333 106.064 3.488 106.096 3.456C106.128 3.41867 106.17 3.4 106.224 3.4H108.032C108.837 3.4 109.418 3.58133 109.776 3.944C110.133 4.30133 110.317 4.84267 110.328 5.568C110.333 5.72267 110.336 5.93067 110.336 6.192C110.336 6.45333 110.333 6.664 110.328 6.824C110.317 7.33067 110.234 7.744 110.08 8.064C109.93 8.37867 109.693 8.61333 109.368 8.768C109.042 8.92267 108.61 9 108.072 9H106.224ZM108.032 8.336C108.405 8.336 108.701 8.28533 108.92 8.184C109.144 8.07733 109.304 7.91467 109.4 7.696C109.501 7.472 109.557 7.17067 109.568 6.792C109.578 6.472 109.584 6.272 109.584 6.192C109.584 6.10667 109.578 5.90933 109.568 5.6C109.557 5.06667 109.429 4.67733 109.184 4.432C108.944 4.18133 108.546 4.056 107.992 4.056H106.8V8.336H108.032ZM30.93 21C30.8633 21 30.8033 20.9767 30.75 20.93C30.7033 20.8767 30.68 20.8167 30.68 20.75V14.25C30.68 14.1767 30.7033 14.1167 30.75 14.07C30.8033 14.0233 30.8633 14 30.93 14H32.36C32.4333 14 32.4933 14.0233 32.54 14.07C32.5867 14.1167 32.61 14.1767 32.61 14.25V20.75C32.61 20.8167 32.5867 20.8767 32.54 20.93C32.4933 20.9767 32.4333 21 32.36 21H30.93ZM35.221 21C35.1543 21 35.0943 20.9767 35.041 20.93C34.9943 20.8767 34.971 20.8167 34.971 20.75V14.26C34.971 14.1867 34.9943 14.1267 35.041 14.08C35.0877 14.0267 35.1477 14 35.221 14H36.351C36.5043 14 36.6177 14.0633 36.691 14.19L39.051 17.92V14.26C39.051 14.1867 39.0743 14.1267 39.121 14.08C39.1677 14.0267 39.2277 14 39.301 14H40.571C40.6443 14 40.7043 14.0267 40.751 14.08C40.7977 14.1267 40.821 14.1867 40.821 14.26V20.74C40.821 20.8133 40.7977 20.8767 40.751 20.93C40.7043 20.9767 40.6443 21 40.571 21H39.441C39.2877 21 39.1743 20.9367 39.101 20.81L36.751 17.23V20.75C36.751 20.8233 36.7243 20.8833 36.671 20.93C36.6243 20.9767 36.5643 21 36.491 21H35.221ZM42.788 21C42.7347 21 42.6847 20.98 42.638 20.94C42.598 20.8933 42.578 20.8433 42.578 20.79C42.578 20.75 42.5814 20.72 42.588 20.7L44.918 14.29C44.9847 14.0967 45.118 14 45.318 14H46.878C47.078 14 47.2114 14.0967 47.278 14.29L49.608 20.7C49.6147 20.72 49.618 20.75 49.618 20.79C49.618 20.8433 49.5947 20.8933 49.548 20.94C49.508 20.98 49.4614 21 49.408 21H48.108C47.948 21 47.8347 20.9267 47.768 20.78L47.408 19.81H44.788L44.428 20.78C44.3614 20.9267 44.248 21 44.088 21H42.788ZM45.208 18.31H46.988L46.098 15.76L45.208 18.31ZM51.3553 21C51.2886 21 51.2286 20.9767 51.1753 20.93C51.1286 20.8767 51.1053 20.8167 51.1053 20.75V20C51.1053 19.8 51.1886 19.6333 51.3553 19.5L52.2853 18.59C52.9186 18.11 53.3953 17.7367 53.7153 17.47C54.042 17.2033 54.2886 16.9633 54.4553 16.75C54.6286 16.53 54.7153 16.3233 54.7153 16.13C54.7153 15.6367 54.4686 15.39 53.9753 15.39C53.7153 15.39 53.5153 15.47 53.3753 15.63C53.2353 15.7833 53.142 15.9767 53.0953 16.21C53.0553 16.3633 52.942 16.44 52.7553 16.44H51.4353C51.3753 16.44 51.322 16.42 51.2753 16.38C51.2353 16.3333 51.2153 16.2833 51.2153 16.23C51.2286 15.79 51.3486 15.3933 51.5753 15.04C51.8086 14.68 52.132 14.3967 52.5453 14.19C52.9586 13.9767 53.4353 13.87 53.9753 13.87C54.5353 13.87 55.0186 13.96 55.4253 14.14C55.832 14.32 56.1386 14.5733 56.3453 14.9C56.5586 15.2267 56.6653 15.6067 56.6653 16.04C56.6653 16.52 56.5153 16.9533 56.2153 17.34C55.922 17.7267 55.472 18.1467 54.8653 18.6L54.0353 19.43H56.5653C56.6386 19.43 56.6986 19.4533 56.7453 19.5C56.792 19.5467 56.8153 19.6067 56.8153 19.68V20.75C56.8153 20.8167 56.792 20.8767 56.7453 20.93C56.6986 20.9767 56.6386 21 56.5653 21H51.3553ZM61.6678 21.1C60.7478 21.0933 60.0478 20.85 59.5678 20.37C59.0878 19.89 58.8245 19.2567 58.7778 18.47C58.7645 18.11 58.7578 17.7867 58.7578 17.5C58.7578 17.2067 58.7645 16.8733 58.7778 16.5C58.8045 16 58.9278 15.5567 59.1478 15.17C59.3745 14.7767 59.6978 14.4667 60.1178 14.24C60.5445 14.0133 61.0611 13.9 61.6678 13.9C62.2745 13.9 62.7911 14.0133 63.2178 14.24C63.6445 14.4667 63.9678 14.7767 64.1878 15.17C64.4145 15.5567 64.5411 16 64.5678 16.5C64.5811 16.6867 64.5878 17.02 64.5878 17.5C64.5878 17.9667 64.5811 18.29 64.5678 18.47C64.5211 19.2567 64.2578 19.89 63.7778 20.37C63.2978 20.85 62.5945 21.0933 61.6678 21.1ZM61.6678 19.59C61.9811 19.59 62.2145 19.49 62.3678 19.29C62.5211 19.0833 62.6045 18.7933 62.6178 18.42C62.6311 18.2267 62.6378 17.9133 62.6378 17.48C62.6378 17.0467 62.6311 16.74 62.6178 16.56C62.6045 16.2 62.5211 15.9167 62.3678 15.71C62.2145 15.4967 61.9811 15.39 61.6678 15.39C61.0678 15.39 60.7511 15.78 60.7178 16.56C60.7111 16.74 60.7078 17.0467 60.7078 17.48C60.7078 17.9133 60.7111 18.2267 60.7178 18.42C60.7511 19.2 61.0678 19.59 61.6678 19.59ZM69.5038 21.1C68.5838 21.0933 67.8838 20.85 67.4038 20.37C66.9238 19.89 66.6604 19.2567 66.6138 18.47C66.6004 18.11 66.5938 17.7867 66.5938 17.5C66.5938 17.2067 66.6004 16.8733 66.6138 16.5C66.6404 16 66.7638 15.5567 66.9838 15.17C67.2104 14.7767 67.5338 14.4667 67.9538 14.24C68.3804 14.0133 68.8971 13.9 69.5038 13.9C70.1104 13.9 70.6271 14.0133 71.0538 14.24C71.4804 14.4667 71.8038 14.7767 72.0238 15.17C72.2504 15.5567 72.3771 16 72.4038 16.5C72.4171 16.6867 72.4238 17.02 72.4238 17.5C72.4238 17.9667 72.4171 18.29 72.4038 18.47C72.3571 19.2567 72.0938 19.89 71.6138 20.37C71.1338 20.85 70.4304 21.0933 69.5038 21.1ZM69.5038 19.59C69.8171 19.59 70.0504 19.49 70.2038 19.29C70.3571 19.0833 70.4404 18.7933 70.4538 18.42C70.4671 18.2267 70.4738 17.9133 70.4738 17.48C70.4738 17.0467 70.4671 16.74 70.4538 16.56C70.4404 16.2 70.3571 15.9167 70.2038 15.71C70.0504 15.4967 69.8171 15.39 69.5038 15.39C68.9038 15.39 68.5871 15.78 68.5538 16.56C68.5471 16.74 68.5438 17.0467 68.5438 17.48C68.5438 17.9133 68.5471 18.2267 68.5538 18.42C68.5871 19.2 68.9038 19.59 69.5038 19.59ZM77.3397 21.1C76.4197 21.0933 75.7197 20.85 75.2397 20.37C74.7597 19.89 74.4964 19.2567 74.4497 18.47C74.4364 18.11 74.4297 17.7867 74.4297 17.5C74.4297 17.2067 74.4364 16.8733 74.4497 16.5C74.4764 16 74.5997 15.5567 74.8197 15.17C75.0464 14.7767 75.3697 14.4667 75.7897 14.24C76.2164 14.0133 76.733 13.9 77.3397 13.9C77.9464 13.9 78.463 14.0133 78.8897 14.24C79.3164 14.4667 79.6397 14.7767 79.8597 15.17C80.0864 15.5567 80.213 16 80.2397 16.5C80.253 16.6867 80.2597 17.02 80.2597 17.5C80.2597 17.9667 80.253 18.29 80.2397 18.47C80.193 19.2567 79.9297 19.89 79.4497 20.37C78.9697 20.85 78.2664 21.0933 77.3397 21.1ZM77.3397 19.59C77.653 19.59 77.8864 19.49 78.0397 19.29C78.193 19.0833 78.2764 18.7933 78.2897 18.42C78.303 18.2267 78.3097 17.9133 78.3097 17.48C78.3097 17.0467 78.303 16.74 78.2897 16.56C78.2764 16.2 78.193 15.9167 78.0397 15.71C77.8864 15.4967 77.653 15.39 77.3397 15.39C76.7397 15.39 76.423 15.78 76.3897 16.56C76.383 16.74 76.3797 17.0467 76.3797 17.48C76.3797 17.9133 76.383 18.2267 76.3897 18.42C76.423 19.2 76.7397 19.59 77.3397 19.59ZM85.1756 21.1C84.2556 21.0933 83.5556 20.85 83.0756 20.37C82.5956 19.89 82.3323 19.2567 82.2856 18.47C82.2723 18.11 82.2656 17.7867 82.2656 17.5C82.2656 17.2067 82.2723 16.8733 82.2856 16.5C82.3123 16 82.4356 15.5567 82.6556 15.17C82.8823 14.7767 83.2056 14.4667 83.6256 14.24C84.0523 14.0133 84.569 13.9 85.1756 13.9C85.7823 13.9 86.299 14.0133 86.7256 14.24C87.1523 14.4667 87.4756 14.7767 87.6956 15.17C87.9223 15.5567 88.049 16 88.0756 16.5C88.089 16.6867 88.0956 17.02 88.0956 17.5C88.0956 17.9667 88.089 18.29 88.0756 18.47C88.029 19.2567 87.7656 19.89 87.2856 20.37C86.8056 20.85 86.1023 21.0933 85.1756 21.1ZM85.1756 19.59C85.489 19.59 85.7223 19.49 85.8756 19.29C86.029 19.0833 86.1123 18.7933 86.1256 18.42C86.139 18.2267 86.1456 17.9133 86.1456 17.48C86.1456 17.0467 86.139 16.74 86.1256 16.56C86.1123 16.2 86.029 15.9167 85.8756 15.71C85.7223 15.4967 85.489 15.39 85.1756 15.39C84.5756 15.39 84.259 15.78 84.2256 16.56C84.219 16.74 84.2156 17.0467 84.2156 17.48C84.2156 17.9133 84.219 18.2267 84.2256 18.42C84.259 19.2 84.5756 19.59 85.1756 19.59ZM92.8316 21.11C92.2249 21.11 91.7016 21.0133 91.2616 20.82C90.8282 20.6267 90.4982 20.37 90.2716 20.05C90.0516 19.73 89.9349 19.38 89.9216 19C89.9216 18.94 89.9416 18.89 89.9816 18.85C90.0216 18.81 90.0716 18.79 90.1316 18.79H91.5416C91.7016 18.79 91.8116 18.8533 91.8716 18.98C91.9649 19.2 92.0882 19.36 92.2416 19.46C92.4016 19.56 92.5982 19.61 92.8316 19.61C93.1182 19.61 93.3549 19.5233 93.5416 19.35C93.7349 19.1767 93.8316 18.9333 93.8316 18.62C93.8316 18.3467 93.7382 18.12 93.5516 17.94C93.3649 17.76 93.1249 17.67 92.8316 17.67C92.6649 17.67 92.5316 17.6933 92.4316 17.74C92.3316 17.78 92.2349 17.8367 92.1416 17.91C92.0416 17.99 91.9549 18.03 91.8816 18.03H90.4916C90.4316 18.03 90.3782 18.01 90.3316 17.97C90.2916 17.9233 90.2716 17.87 90.2716 17.81L90.6416 14.3C90.6482 14.2067 90.6816 14.1333 90.7416 14.08C90.8082 14.0267 90.8849 14 90.9716 14H95.0416C95.1149 14 95.1749 14.0233 95.2216 14.07C95.2682 14.1167 95.2916 14.1767 95.2916 14.25V15.25C95.2916 15.3167 95.2682 15.3767 95.2216 15.43C95.1749 15.4767 95.1149 15.5 95.0416 15.5H92.1316L92.0116 16.73C92.1716 16.6167 92.3516 16.5333 92.5516 16.48C92.7516 16.42 93.0116 16.39 93.3316 16.39C93.7582 16.39 94.1582 16.4867 94.5316 16.68C94.9049 16.8667 95.2016 17.1333 95.4216 17.48C95.6482 17.8267 95.7616 18.2233 95.7616 18.67C95.7616 19.1367 95.6449 19.5567 95.4116 19.93C95.1782 20.2967 94.8382 20.5867 94.3916 20.8C93.9516 21.0067 93.4316 21.11 92.8316 21.11ZM100.385 21.1C99.7319 21.1 99.1819 21 98.7352 20.8C98.2952 20.5933 97.9686 20.34 97.7552 20.04C97.5486 19.74 97.4386 19.44 97.4252 19.14C97.4252 19.08 97.4452 19.03 97.4852 18.99C97.5319 18.95 97.5852 18.93 97.6452 18.93H99.0252C99.1052 18.93 99.1686 18.9467 99.2152 18.98C99.2619 19.0067 99.3052 19.0533 99.3452 19.12C99.4719 19.4467 99.8219 19.61 100.395 19.61C100.722 19.61 100.975 19.5333 101.155 19.38C101.335 19.2267 101.425 19.02 101.425 18.76C101.425 18.26 101.092 18.01 100.425 18.01H99.3052C99.2319 18.01 99.1686 17.9867 99.1152 17.94C99.0686 17.8867 99.0452 17.8233 99.0452 17.75V17.16C99.0452 17.0067 99.1019 16.8933 99.2152 16.82L100.825 15.5H98.0652C97.9986 15.5 97.9386 15.4767 97.8852 15.43C97.8386 15.3767 97.8152 15.3167 97.8152 15.25V14.26C97.8152 14.1867 97.8386 14.1267 97.8852 14.08C97.9319 14.0267 97.9919 14 98.0652 14H102.725C102.799 14 102.859 14.0267 102.905 14.08C102.952 14.1267 102.975 14.1867 102.975 14.26V15.15C102.975 15.29 102.922 15.4 102.815 15.48L101.335 16.83L101.405 16.85C102.005 16.9367 102.482 17.1433 102.835 17.47C103.189 17.7967 103.365 18.2667 103.365 18.88C103.365 19.3267 103.235 19.72 102.975 20.06C102.722 20.3933 102.369 20.65 101.915 20.83C101.469 21.01 100.959 21.1 100.385 21.1ZM105.426 21C105.359 21 105.299 20.9767 105.246 20.93C105.199 20.8767 105.176 20.8167 105.176 20.75V20C105.176 19.8 105.259 19.6333 105.426 19.5L106.356 18.59C106.989 18.11 107.466 17.7367 107.786 17.47C108.112 17.2033 108.359 16.9633 108.526 16.75C108.699 16.53 108.786 16.3233 108.786 16.13C108.786 15.6367 108.539 15.39 108.046 15.39C107.786 15.39 107.586 15.47 107.446 15.63C107.306 15.7833 107.212 15.9767 107.166 16.21C107.126 16.3633 107.012 16.44 106.826 16.44H105.506C105.446 16.44 105.392 16.42 105.346 16.38C105.306 16.3333 105.286 16.2833 105.286 16.23C105.299 15.79 105.419 15.3933 105.646 15.04C105.879 14.68 106.202 14.3967 106.616 14.19C107.029 13.9767 107.506 13.87 108.046 13.87C108.606 13.87 109.089 13.96 109.496 14.14C109.902 14.32 110.209 14.5733 110.416 14.9C110.629 15.2267 110.736 15.6067 110.736 16.04C110.736 16.52 110.586 16.9533 110.286 17.34C109.992 17.7267 109.542 18.1467 108.936 18.6L108.106 19.43H110.636C110.709 19.43 110.769 19.4533 110.816 19.5C110.862 19.5467 110.886 19.6067 110.886 19.68V20.75C110.886 20.8167 110.862 20.8767 110.816 20.93C110.769 20.9767 110.709 21 110.636 21H105.426ZM115.598 21.1C114.945 21.1 114.395 21 113.948 20.8C113.508 20.5933 113.181 20.34 112.968 20.04C112.761 19.74 112.651 19.44 112.638 19.14C112.638 19.08 112.658 19.03 112.698 18.99C112.745 18.95 112.798 18.93 112.858 18.93H114.238C114.318 18.93 114.381 18.9467 114.428 18.98C114.475 19.0067 114.518 19.0533 114.558 19.12C114.685 19.4467 115.035 19.61 115.608 19.61C115.935 19.61 116.188 19.5333 116.368 19.38C116.548 19.2267 116.638 19.02 116.638 18.76C116.638 18.26 116.305 18.01 115.638 18.01H114.518C114.445 18.01 114.381 17.9867 114.328 17.94C114.281 17.8867 114.258 17.8233 114.258 17.75V17.16C114.258 17.0067 114.315 16.8933 114.428 16.82L116.038 15.5H113.278C113.211 15.5 113.151 15.4767 113.098 15.43C113.051 15.3767 113.028 15.3167 113.028 15.25V14.26C113.028 14.1867 113.051 14.1267 113.098 14.08C113.145 14.0267 113.205 14 113.278 14H117.938C118.011 14 118.071 14.0267 118.118 14.08C118.165 14.1267 118.188 14.1867 118.188 14.26V15.15C118.188 15.29 118.135 15.4 118.028 15.48L116.548 16.83L116.618 16.85C117.218 16.9367 117.695 17.1433 118.048 17.47C118.401 17.7967 118.578 18.2667 118.578 18.88C118.578 19.3267 118.448 19.72 118.188 20.06C117.935 20.3933 117.581 20.65 117.128 20.83C116.681 21.01 116.171 21.1 115.598 21.1Z" fill="#767E86"/>
<path fill-rule="evenodd" clip-rule="evenodd" d="M0.0109863 17.5829L0.0426954 17.6142C0.0633821 17.6346 0.0808442 17.6518 0.0977232 17.6695L0.573945 18.1634L0.574103 18.1635C1.20949 18.8225 1.84488 19.4815 2.4792 20.1415C2.52888 20.1934 2.57814 20.2154 2.64888 20.2154C4.69326 20.2139 6.73792 20.214 8.78239 20.214H8.79002L10.016 20.2141H10.1259V12.604H6.05099V14.5455H7.13309V13.7064H9.03246C9.03329 13.7146 9.03439 13.7228 9.03549 13.7311L9.0355 13.7312C9.03776 13.7482 9.04004 13.7653 9.04004 13.7824C9.04004 13.9108 9.0405 14.0391 9.04096 14.1675L9.04096 14.1683C9.04215 14.499 9.04334 14.8297 9.03667 15.1604C9.03246 15.3618 9.01393 15.5666 8.97183 15.7626C8.8733 16.2185 8.56551 16.4413 8.14278 16.5108C8.00256 16.5336 7.85983 16.5468 7.71793 16.5473C6.72382 16.5494 5.72999 16.5492 4.73598 16.5491H4.73595L3.99078 16.549H3.90404V12.2774H3.78235C3.59191 12.2774 3.40143 12.2778 3.21093 12.2782H3.21089H3.21073C2.7186 12.2792 2.22637 12.2803 1.73435 12.2743C1.52214 12.2716 1.30572 12.2563 1.09941 12.2075C0.505723 12.0673 0.163407 11.6642 0.0568811 11.0444C0.0282495 10.8791 0.016039 10.709 0.016039 10.5411C0.0140179 8.30111 0.0141526 6.06113 0.0142874 3.82092L0.0143547 2.14066V2.03648H19.9693V2.14857L19.9693 2.96111C19.9694 5.12551 19.9694 7.29018 19.9668 9.45451C19.9668 9.50769 19.9415 9.57275 19.9066 9.61143C19.7112 9.82725 19.5104 10.0382 19.3078 10.247C19.2771 10.2787 19.2266 10.3064 19.1849 10.3064C18.1979 10.3095 17.2114 10.309 16.2245 10.3086C16.2169 10.3086 16.2094 10.308 16.1978 10.307C16.1898 10.3063 16.1799 10.3055 16.1668 10.3046C16.1776 10.2925 16.1871 10.2813 16.196 10.271C16.2128 10.2515 16.2271 10.2349 16.2426 10.2193L16.5076 9.94568C16.9943 9.44299 17.4811 8.94033 17.9693 8.43956C18.0194 8.38813 18.0405 8.3367 18.04 8.26286C18.0375 7.45231 18.0375 6.64176 18.04 5.83077C18.0405 5.75692 18.0186 5.70593 17.9689 5.65407C17.7441 5.42096 17.5199 5.18717 17.2957 4.95337C17.0117 4.65725 16.7277 4.36113 16.4426 4.06637C16.4064 4.02901 16.3436 4 16.2931 4C12.1937 3.99692 8.09435 3.99692 3.99499 3.99956C3.94657 3.99956 3.88635 4.02418 3.85225 4.05934C3.32678 4.59517 2.80425 5.13363 2.28341 5.67429C2.25309 5.70549 2.22909 5.76 2.22909 5.80352C2.22614 7.26275 2.22657 8.72154 2.22699 10.1808V10.1809V10.1811C2.22699 10.1959 2.2284 10.2109 2.22997 10.2276C2.23082 10.2366 2.23172 10.2461 2.23246 10.2563H3.84088V6.58374H3.95288H7.38909C7.74699 6.58374 8.09099 6.65143 8.40678 6.83385C8.82488 7.0756 9.05899 7.43033 9.04425 7.94945C9.03578 8.25603 9.03784 8.56282 9.0399 8.86967C9.04081 9.00541 9.04172 9.14117 9.04172 9.27692V9.3956H7.13941V8.58242H6.05099V10.2875H6.17857C6.84853 10.2875 7.5185 10.2862 8.18847 10.2848H8.18871C9.84498 10.2816 11.5012 10.2784 13.1575 10.2949C14.1811 10.3051 15.1036 10.6558 15.8245 11.4532C16.4257 12.1182 16.6661 12.9143 16.5605 13.8259C16.5007 14.342 16.3424 14.8097 16.0064 15.2022C15.8211 15.4189 15.5988 15.5855 15.355 15.7231C15.3343 15.7348 15.3175 15.7543 15.3008 15.7737C15.293 15.7827 15.2852 15.7918 15.2771 15.8C15.2859 15.8073 15.2944 15.8154 15.303 15.8236C15.3212 15.8411 15.3395 15.8587 15.3613 15.8677C15.8906 16.0906 16.3504 16.4101 16.6872 16.9011C16.9491 17.2831 17.083 17.7152 17.1579 18.1732C17.456 20.0009 16.1015 21.6822 14.5377 21.9002C14.3108 21.9319 14.0805 21.9525 13.8518 21.953C9.98138 21.9563 6.11183 21.9562 2.24243 21.9561L0.135197 21.956H0.0109863V17.5829ZM12.0442 20.2475H12.1541C12.2934 20.2475 12.4326 20.2473 12.5719 20.2471C12.8853 20.2468 13.1988 20.2464 13.5125 20.2479C13.8362 20.2497 14.131 20.1521 14.3996 19.9701C14.9562 19.593 15.2064 18.8664 15.016 18.1938C14.8358 17.5569 14.2746 17.1393 13.5979 17.1393H12.1525H12.0447C12.0442 18.1793 12.0442 19.2075 12.0442 20.2475ZM12.1579 15.0998H12.043C12.043 14.2466 12.043 13.4106 12.0434 12.5675C12.0528 12.5666 12.0618 12.5655 12.0705 12.5645C12.0881 12.5624 12.1046 12.5604 12.1209 12.5604C12.2405 12.5603 12.3602 12.5591 12.4798 12.5578C12.7646 12.5549 13.0495 12.5519 13.3335 12.564C13.7293 12.5807 14.0956 12.7073 14.4013 12.9842C14.8733 13.4119 14.88 14.1301 14.4076 14.6035C14.088 14.9235 13.7024 15.0967 13.2544 15.0993C13.0013 15.1009 12.7483 15.1005 12.4953 15.1001C12.3828 15.0999 12.2704 15.0998 12.1579 15.0998Z" fill="#2E2A81"/>
<path d="M16.5293 21.9481C16.6042 21.869 16.6649 21.804 16.7268 21.7402C17.139 21.3156 17.5508 20.8906 17.9655 20.4681C18.0186 20.4141 18.0396 20.36 18.0396 20.2831C18.0379 18.0435 18.0383 15.8044 18.0383 13.5648C18.0383 13.5187 18.0383 13.4725 18.0383 13.4215C18.6788 13.4215 19.3053 13.4215 19.9394 13.4215C19.9394 16.2633 19.9394 19.1015 19.9394 21.9481C18.808 21.9481 17.6779 21.9481 16.5293 21.9481Z" fill="#2E2A81"/>
<path d="M18.9667 11.036C19.4963 11.0343 19.9233 11.48 19.9208 12.0317C19.9182 12.5793 19.4938 13.0229 18.9709 13.0246C18.4467 13.0259 18.0126 12.5727 18.0147 12.0264C18.0172 11.4791 18.4412 11.0378 18.9667 11.036Z" fill="#2E2A81"/>
</svg>
