<svg width="20" height="20" viewBox="0 0 20 20" fill="none" xmlns="http://www.w3.org/2000/svg">
<path fill-rule="evenodd" clip-rule="evenodd" d="M0.666992 9.99984C0.666992 4.84505 4.84554 0.666504 10.0003 0.666504C15.1551 0.666504 19.3337 4.84505 19.3337 9.99984C19.3337 15.1546 15.1551 19.3332 10.0003 19.3332C4.84554 19.3332 0.666992 15.1546 0.666992 9.99984ZM10.0003 2.6665C5.95011 2.6665 2.66699 5.94962 2.66699 9.99984C2.66699 14.0501 5.95011 17.3332 10.0003 17.3332C14.0505 17.3332 17.3337 14.0501 17.3337 9.99984C17.3337 5.94962 14.0505 2.6665 10.0003 2.6665Z" fill="#33CF90"/>
<path fill-rule="evenodd" clip-rule="evenodd" d="M13.2071 7.62639C13.5976 8.01691 13.5976 8.65008 13.2071 9.0406L9.87377 12.3739C9.48325 12.7645 8.85008 12.7645 8.45956 12.3739L6.79289 10.7073C6.40237 10.3167 6.40237 9.68358 6.79289 9.29306C7.18342 8.90253 7.81658 8.90253 8.20711 9.29306L9.16667 10.2526L11.7929 7.62639C12.1834 7.23587 12.8166 7.23587 13.2071 7.62639Z" fill="#33CF90"/>
</svg>
