<svg width="32" height="32" viewBox="0 0 32 32" fill="none" xmlns="http://www.w3.org/2000/svg">
<path d="M0 10C0 4.47715 4.47715 0 10 0H22C27.5228 0 32 4.47715 32 10V22C32 27.5228 27.5228 32 22 32H10C4.47715 32 0 27.5228 0 22V10Z" fill="#FFEBE4"/>
<path d="M16.1625 13.2541C16.1418 13.2756 16.117 13.2927 16.0895 13.3044C16.062 13.316 16.0324 13.3221 16.0026 13.3221C15.9727 13.3221 15.9432 13.316 15.9157 13.3044C15.8882 13.2927 15.8634 13.2756 15.8426 13.2541L14.1454 11.5563C13.8124 11.2252 13.362 11.0393 12.8925 11.0393C12.423 11.0393 11.9725 11.2252 11.6395 11.5563L8.26285 14.9252C8.17956 15.0078 8.11345 15.1061 8.06834 15.2144C8.02323 15.3228 8 15.4389 8 15.5563C8 15.6736 8.02323 15.7898 8.06834 15.8981C8.11345 16.0064 8.17956 16.1048 8.26285 16.1874C8.34545 16.2707 8.44373 16.3368 8.55202 16.382C8.6603 16.4271 8.77645 16.4503 8.89376 16.4503C9.01106 16.4503 9.12721 16.4271 9.23549 16.382C9.34378 16.3368 9.44206 16.2707 9.52466 16.1874L12.7325 12.9696C12.7532 12.9481 12.7781 12.931 12.8056 12.9193C12.8331 12.9076 12.8626 12.9016 12.8925 12.9016C12.9223 12.9016 12.9519 12.9076 12.9794 12.9193C13.0068 12.931 13.0317 12.9481 13.0524 12.9696L14.7496 14.6674C15.0826 14.9985 15.5331 15.1844 16.0026 15.1844C16.4721 15.1844 16.9225 14.9985 17.2555 14.6674L20.8099 11.1118C20.8299 11.0906 20.854 11.0736 20.8807 11.0621C20.9074 11.0505 20.9363 11.0445 20.9654 11.0445C20.9946 11.0445 21.0234 11.0505 21.0501 11.0621C21.0769 11.0736 21.101 11.0906 21.1209 11.1118L22.3383 12.3207C22.3808 12.3641 22.4322 12.3977 22.489 12.4192C22.5458 12.4407 22.6065 12.4496 22.6671 12.4452C22.7227 12.4578 22.7804 12.4578 22.8359 12.4452C22.9229 12.4097 22.9964 12.3476 23.0459 12.2678C23.0954 12.1879 23.1183 12.0944 23.1114 12.0007V8.44517C23.1114 8.3273 23.0646 8.21425 22.9813 8.1309C22.8979 8.04755 22.7849 8.00073 22.6671 8.00073H19.1127C19.019 7.99378 18.9256 8.01671 18.8457 8.06622C18.7659 8.11573 18.7038 8.18927 18.6684 8.27628C18.6321 8.3564 18.622 8.44593 18.6396 8.53212C18.6571 8.61831 18.7014 8.69675 18.7661 8.75628L19.5303 9.52962C19.5516 9.54957 19.5685 9.57366 19.5801 9.60042C19.5917 9.62717 19.5976 9.65602 19.5976 9.68517C19.5976 9.71433 19.5917 9.74317 19.5801 9.76992C19.5685 9.79668 19.5516 9.82078 19.5303 9.84073L16.1625 13.2541Z" fill="#FE794D"/>
<path d="M8.60049 17.334C8.27171 17.334 8.00513 17.5295 8.00513 17.7784V23.5562C8.00513 23.6741 8.05194 23.7871 8.13526 23.8705C8.21858 23.9538 8.33159 24.0007 8.44943 24.0007H11.1152C11.2331 24.0007 11.3461 23.9538 11.4294 23.8705C11.5127 23.7871 11.5595 23.6741 11.5595 23.5562V17.7784C11.5595 17.5295 11.293 17.334 10.9642 17.334H8.60049Z" fill="#FE794D"/>
<path d="M17.1844 19.0007H14.8207C14.4919 19.0007 14.2253 19.1963 14.2253 19.4452V23.5563C14.2253 23.6742 14.2722 23.7872 14.3555 23.8706C14.4388 23.9539 14.5518 24.0007 14.6696 24.0007H17.3355C17.4533 24.0007 17.5663 23.9539 17.6496 23.8706C17.7329 23.7872 17.7798 23.6742 17.7798 23.5563V19.4452C17.7798 19.1963 17.5132 19.0007 17.1844 19.0007Z" fill="#FE794D"/>
<path d="M20.4456 14.2229V23.5563C20.4479 23.6123 20.4612 23.6674 20.4848 23.7182C20.5084 23.7691 20.5417 23.8149 20.583 23.8529C20.6243 23.8908 20.6726 23.9203 20.7253 23.9396C20.778 23.9588 20.8339 23.9675 20.8899 23.9651H23.5557C23.6118 23.9675 23.6677 23.9588 23.7204 23.9396C23.773 23.9203 23.8214 23.8908 23.8626 23.8529C23.9039 23.8149 23.9373 23.7691 23.9609 23.7182C23.9844 23.6674 23.9977 23.6123 24 23.5563V14.2229C24 14.0007 23.7334 13.814 23.4047 13.814H21.041C20.7122 13.7785 20.4456 13.9652 20.4456 14.2229Z" fill="#FE794D"/>
</svg>
