<svg width="310" height="108" viewBox="0 0 310 108" fill="none" xmlns="http://www.w3.org/2000/svg">
<path d="M22 6C22 2.68629 24.6863 0 28 0H281C284.314 0 287 2.68629 287 6V107.656H22V6Z" fill="white"/>
<mask id="mask0" mask-type="alpha" maskUnits="userSpaceOnUse" x="22" y="0" width="265" height="108">
<path d="M22 6C22 2.68629 24.6863 0 28 0H281C284.314 0 287 2.68629 287 6V107.656H22V6Z" fill="white"/>
</mask>
<g mask="url(#mask0)">
<path opacity="0.05" d="M244.417 -9.93753C235.308 -9.93753 219.574 -9.93753 216.261 -0.828156C212.949 8.28122 240.491 7.74694 246.902 14.1582C253.313 20.5695 263.651 19.875 273.402 19.875C283.153 19.875 281.305 30.6225 289.136 28.9843C296.967 27.3462 289.964 19.1375 292.449 14.1582C292.449 9.51654 292.449 -9.93753 292.449 -9.93753C292.449 -9.93753 259.738 -9.93753 244.417 -9.93753Z" fill="#675AF6"/>
<path opacity="0.05" d="M42.1549 90.7357C92.7997 72.7286 115.308 113.244 115.308 90.7357C115.308 68.2269 88.2979 56.9725 74.7926 43.4672C61.2874 29.9619 67.1976 7.45312 46.6566 7.45312C26.1157 7.45312 36.4643 20.0707 14.0189 29.9619C-8.42655 39.8531 -8.48992 108.743 42.1549 90.7357Z" fill="#675AF6"/>
<path opacity="0.05" d="M200.268 92.9474C153.818 76.4318 133.174 113.592 133.174 92.9474C133.174 72.3029 157.947 61.9806 170.334 49.5938C182.721 37.2071 177.3 16.5625 196.14 16.5625C214.979 16.5625 205.488 28.1351 226.074 37.2071C246.661 46.2791 267.363 22.7559 267.363 49.5938C267.363 76.4318 246.719 109.463 200.268 92.9474Z" fill="#675AF6"/>
<path opacity="0.1" d="M277.898 77.6466C277.97 77.1725 277.957 76.7226 278.22 76.3039C278.749 75.4735 279.5 75.6811 280.227 76.0479C280.967 76.4216 281.666 76.6431 282.469 76.297C283.725 75.7537 284.317 73.8575 283.116 72.9647C282.728 72.674 282.344 73.1515 282.396 73.5183C282.469 74.027 282.721 74.5911 282.285 75.0271C281.701 75.6119 281.016 75.1205 280.431 74.8575C279.801 74.5738 279.13 74.5115 278.483 74.7745C277.365 75.2278 276.552 76.7434 277.441 77.7677C277.566 77.9096 277.867 77.8438 277.898 77.6466Z" fill="#482998"/>
<path opacity="0.2" d="M19.1704 84.808C21.4532 84.1863 23.8092 83.4237 25.9457 82.4103C26.7292 82.0394 26.2225 80.9424 25.4233 81.1931C23.2084 81.8827 20.9883 82.8908 18.9301 83.9565C18.5175 84.1707 18.6533 84.949 19.1704 84.808Z" fill="#B9B3F9"/>
<path opacity="0.2" d="M228.94 37.6623C229.07 38.0831 229.47 38.2182 229.834 37.9688C231.263 36.9972 232.687 36.0463 234.043 34.9708C234.303 34.763 234.245 34.3473 233.991 34.1706C232.406 33.0847 230.271 31.4792 228.26 31.4688C227.751 31.4636 227.392 32.1858 227.912 32.482C228.722 32.9496 229.694 33.1159 230.561 33.4744C231.559 33.8901 232.551 34.3785 233.435 35.0072C233.456 34.7162 233.476 34.4252 233.492 34.1343C231.98 35.0643 230.556 36.1087 229.122 37.1479C229.403 37.205 229.689 37.2622 229.969 37.3193C229.356 35.5839 228.727 33.8641 228.047 32.1546C227.896 31.7961 227.283 31.9936 227.387 32.3729C227.865 34.1499 228.39 35.9061 228.94 37.6623Z" fill="#F6F2FF"/>
<path opacity="0.1" d="M37.0997 40.4871C38.429 40.5873 39.826 40.6256 41.1553 40.493C41.6446 40.4458 41.5827 39.7797 41.1082 39.762C39.7995 39.7119 38.429 39.8239 37.135 39.9978C36.8786 40.0332 36.799 40.4635 37.0997 40.4871Z" fill="#482998"/>
<path opacity="0.1" d="M273.215 7.99728C272.066 9.10034 271.631 10.8167 272.725 12.144C273.755 13.3936 275.755 13.6545 277.041 12.6612C280.153 10.2583 276.908 5.83236 273.553 6.74776C272.931 6.91711 273.086 7.80505 273.7 7.83709C274.679 7.89201 275.732 7.92863 276.515 8.61975C277.357 9.35665 277.375 10.6062 276.684 11.4575C274.853 13.7048 271.677 10.3956 273.599 8.38175C273.846 8.13002 273.471 7.7547 273.215 7.99728Z" fill="#B9B3F9"/>
<path opacity="0.2" d="M189.931 5.99053C189.141 7.12184 188.385 8.27 187.641 9.43308C187.462 9.71061 187.577 10.0056 187.896 10.0943C189.143 10.4468 190.375 10.8064 191.647 11.067C191.892 11.1161 192.103 10.8829 192.082 10.6514C191.942 9.21741 191.835 7.21648 190.871 6.0562C190.629 5.76114 190.041 5.90334 190.121 6.34464C190.243 7.03577 190.616 7.67416 190.829 8.34553C191.071 9.11908 191.269 9.92471 191.333 10.7353C191.51 10.607 191.688 10.4786 191.862 10.3473C190.599 9.92699 189.313 9.61252 188.024 9.28958C188.127 9.47834 188.232 9.67008 188.334 9.85883C189.036 8.66995 189.721 7.47962 190.375 6.26445C190.51 6.00803 190.101 5.75096 189.931 5.99053Z" fill="#9D95F8"/>
<path opacity="0.2" d="M179.795 51.1883C179.448 49.9399 179.021 48.6484 178.459 47.4786C178.253 47.0493 177.653 47.3306 177.794 47.7687C178.18 48.9802 178.739 50.1962 179.33 51.3187C179.447 51.5488 179.873 51.4727 179.795 51.1883Z" fill="#B9B3F9"/>
<path opacity="0.2" d="M123.1 2.39145C122.856 1.11917 122.538 -0.20468 122.074 -1.41678C121.905 -1.86093 121.283 -1.63169 121.386 -1.18181C121.67 0.0589442 122.129 1.31403 122.624 2.48314C122.725 2.72098 123.157 2.68086 123.1 2.39145Z" fill="#9D95F8"/>
<path opacity="0.1" d="M37.8949 -6.3979C37.7341 -6.53813 37.5934 -6.67836 37.4326 -6.79856C35.4022 -8.60154 32.0652 -8.9421 30.0951 -6.79856C28.1049 -4.63498 28.1652 -1.65005 30.0951 0.513533C30.2358 0.673798 30.3765 0.814029 30.4971 0.974294C32.3064 3.01767 36.0656 2.95757 37.8949 0.974294C39.7042 -1.00899 40.066 -4.47472 37.8949 -6.3979Z" fill="#24154C"/>
<path d="M183.369 132.695C198.049 133.782 223.498 130.432 230.611 126.307C237.723 122.182 227.399 116.732 232.561 108.665C237.724 100.598 251.401 107.74 255.589 102.283C259.778 96.8255 245.836 89.5298 247.776 82.8738C249.716 76.2179 261.695 76.7904 264.996 70.0108C268.297 63.2312 261.345 62.1757 261.106 55.5004C260.899 49.7184 266.717 37.134 264.016 33.8432C261.315 30.5524 255.798 39.2553 248.395 40.0145C240.991 40.7738 238.728 35.0858 235.011 36.8176C231.295 38.5493 241.031 46.6813 229.929 48.6187C218.827 50.5561 214.209 39.318 208.515 43.5035C202.822 47.689 208.994 60.8247 204.77 67.1133C200.547 73.4019 192.209 60.0054 185.574 70.8443C178.939 81.6833 184.025 91.7715 183.103 102.509C182.298 111.876 177.847 119.317 180.67 130.43C180.85 131.139 182.621 132.64 183.369 132.695Z" fill="#B9B3F9"/>
<path d="M224.377 121.103C224.377 121.103 216.112 116.863 209.416 115.909C202.719 114.955 192.257 119.912 192.257 119.912L193.163 118.832C193.163 118.832 203.82 114.305 209.869 115.369C215.917 116.434 224.377 121.103 224.377 121.103Z" fill="#C6C2F9"/>
<path d="M192.579 77.8622C192.579 77.8622 198.19 85.266 200.292 91.6947C202.395 98.1234 199.87 109.741 199.87 109.741L200.776 108.661C200.776 108.661 202.844 96.9267 200.745 91.1548C198.647 85.3829 192.579 77.8622 192.579 77.8622Z" fill="#C6C2F9"/>
<path d="M251.432 98.7265C251.432 98.7265 241.006 92.6743 234.31 91.7202C227.614 90.7661 214.452 93.4575 214.452 93.4575L215.358 92.3778C215.358 92.3778 228.715 90.1157 234.763 91.1803C240.812 92.2448 251.432 98.7265 251.432 98.7265Z" fill="#C6C2F9"/>
<path d="M210.459 47.784C210.459 47.784 218.23 56.9998 220.332 63.4285C222.434 69.8572 222.069 83.2866 222.069 83.2866L222.975 82.2069C222.975 82.2069 222.884 68.6605 220.785 62.8886C218.686 57.1168 210.459 47.784 210.459 47.784Z" fill="#C6C2F9"/>
<path d="M258.76 68.6428C258.76 68.6428 249.436 66.9757 244.236 68.0708C239.035 69.1658 230.041 74.69 230.041 74.69L230.42 73.6493C230.42 73.6493 239.673 68.3899 244.425 67.5504C249.177 66.7109 258.76 68.6428 258.76 68.6428Z" fill="#9D95F8"/>
<path d="M237.224 39.6591C237.224 39.6591 240.899 45.9887 241.478 50.0542C242.058 54.1197 240.423 62.1109 240.423 62.1109L241.079 61.5608C241.079 61.5608 242.452 53.4515 241.806 49.7792C241.16 46.1068 237.224 39.6591 237.224 39.6591Z" fill="#9D95F8"/>
<path d="M264.007 33.8375L167.005 151.098L165.385 149.739L264.007 33.8375Z" fill="#9D95F8"/>
<path d="M211.712 110.329C225.838 116.688 237.692 117.149 247.314 111.594C262.081 103.068 264.182 79.0612 264.182 79.0612C264.182 79.0612 242.341 68.8777 227.574 77.4036C217.947 82.962 212.421 93.4399 210.868 108.868C210.833 109.216 211.384 110.182 211.712 110.329Z" fill="#C6C2F9"/>
<path d="M232.058 111.829C232.058 111.829 229.034 108.568 226.177 107.042C223.321 105.516 217.802 106.033 217.802 106.033L218.387 105.696C218.387 105.696 223.923 105.404 226.47 106.873C229.017 108.343 232.058 111.829 232.058 111.829Z" fill="#C6C2F9"/>
<path d="M224.832 87.1675C224.832 87.1675 226.144 91.4173 226.037 94.6539C225.93 97.8905 222.892 102.704 222.892 102.704L223.476 102.366C223.476 102.366 226.328 97.4256 226.329 94.4852C226.33 91.5447 224.832 87.1675 224.832 87.1675Z" fill="#B9B3F9"/>
<path d="M247.897 106.192C247.897 106.192 244.198 101.762 241.341 100.236C238.485 98.7103 232.122 97.7659 232.122 97.7659L232.707 97.4285C232.707 97.4285 239.086 98.5979 241.633 100.067C244.18 101.537 247.897 106.192 247.897 106.192Z" fill="#B9B3F9"/>
<path d="M237.802 76.5626C237.802 76.5626 239.789 81.9813 239.682 85.2179C239.576 88.4545 237.212 94.4367 237.212 94.4367L237.797 94.0992C237.797 94.0992 239.974 87.9897 239.975 85.0492C239.976 82.1087 237.802 76.5626 237.802 76.5626Z" fill="#B9B3F9"/>
<path d="M256.12 93.8578C256.12 93.8578 252.198 91.581 249.679 91.2221C247.16 90.8632 242.209 91.8757 242.209 91.8757L242.55 91.4695C242.55 91.4695 247.574 90.6185 249.849 91.019C252.125 91.4195 256.12 93.8578 256.12 93.8578Z" fill="#B9B3F9"/>
<path d="M251.175 77.2909C251.175 77.2909 251.792 80.7403 251.387 82.6643C250.982 84.5882 248.938 87.9159 248.938 87.9159L249.323 87.7758C249.323 87.7758 251.269 84.3523 251.579 82.5942C251.89 80.8361 251.175 77.2909 251.175 77.2909Z" fill="#B9B3F9"/>
<path d="M264.177 79.0575L211.54 110.037L211.033 109.16L264.177 79.0575Z" fill="#B9B3F9"/>
<path d="M98.3687 97.849C96.5387 91.3671 91.1158 80.9493 88.2291 78.5366C85.3424 76.1238 84.6148 81.4159 80.3383 80.4587C76.0619 79.5015 76.9921 72.5034 73.9903 71.5563C70.9884 70.6092 70.0334 77.7455 66.868 77.953C63.7026 78.1604 62.0742 72.9206 58.6426 72.5621C55.211 72.2036 55.8452 75.3581 53.0124 76.5055C50.5588 77.4994 44.2375 76.9672 43.2453 78.6436C42.2531 80.32 46.8583 81.3299 48.3433 84.3944C49.8284 87.4588 47.7369 89.322 49.0632 90.649C50.3894 91.976 52.3622 86.5173 54.9326 90.9875C57.503 95.4578 53.3937 99.2019 56.0843 100.995C58.7749 102.788 63.457 98.0787 66.8217 98.9104C70.1865 99.7421 65.7314 105.424 71.4301 106.58C77.1288 107.737 80.6704 103.971 85.4315 102.687C89.5848 101.568 93.481 102.317 97.8172 99.3641C98.0938 99.1757 98.4619 98.1793 98.3687 97.849Z" fill="#C6C2F9"/>
<path d="M86.9666 82.0313C86.9666 82.0313 86.437 86.2487 87.0747 89.2771C87.7124 92.3055 91.4808 96.0284 91.4808 96.0284L90.8748 95.8078C90.8748 95.8078 87.2605 91.9341 86.7717 89.1668C86.2828 86.3996 86.9666 82.0313 86.9666 82.0313Z" fill="#C6C2F9"/>
<path d="M73.3528 102.47C73.3528 102.47 75.658 98.8984 78.0931 96.9884C80.5282 95.0784 85.9183 94.3459 85.9183 94.3459L85.3123 94.1253C85.3123 94.1253 79.9434 95.0725 77.7901 96.8781C75.6368 98.6838 73.3528 102.47 73.3528 102.47Z" fill="#B9B3F9"/>
<path d="M73.1116 73.8991C73.1116 73.8991 72.1408 79.3287 72.7785 82.3571C73.4162 85.3855 76.6332 90.6235 76.6332 90.6235L76.0271 90.4029C76.0271 90.4029 72.9643 85.0141 72.4755 82.2468C71.9866 79.4795 73.1116 73.8991 73.1116 73.8991Z" fill="#B9B3F9"/>
<path d="M57.6189 99.4893C57.6189 99.4893 60.3653 94.706 62.8004 92.796C65.2355 90.886 71.0668 88.9413 71.0668 88.9413L70.4607 88.7208C70.4607 88.7208 64.6506 90.8801 62.4974 92.6857C60.3441 94.4913 57.6189 99.4893 57.6189 99.4893Z" fill="#B9B3F9"/>
<path d="M59.0312 75.4562C59.0312 75.4562 59.7736 79.7259 61.0582 81.7905C62.3429 83.8551 66.1257 86.8579 66.1257 86.8579H65.6189C65.6189 86.8579 61.9094 83.7023 60.8049 81.7905C59.7003 79.8787 59.0312 75.4562 59.0312 75.4562Z" fill="#B9B3F9"/>
<path d="M49.9385 89.2525C49.9385 89.2525 52.085 86.682 53.7423 85.7967C55.3997 84.9114 59.0913 84.3635 59.0913 84.3635L58.7522 84.1677C58.7522 84.1677 55.0506 84.8462 53.5728 85.6988C52.0949 86.5514 49.9385 89.2525 49.9385 89.2525Z" fill="#B9B3F9"/>
<path d="M43.2422 78.647L108.84 102.004L108.509 102.913L43.2422 78.647Z" fill="#B9B3F9"/>
<path d="M111.789 98.7331C115.204 91.1463 118.344 76.9821 117.528 72.4068C116.713 67.8315 111.822 72.2616 108.535 67.9602C105.249 63.6587 111.686 57.7751 109.597 54.4954C107.508 51.2156 100.938 57.2103 97.778 54.8931C94.6179 52.576 97.2376 46.3246 94.2749 43.2606C91.3123 40.1965 89.4076 43.6852 85.816 42.5217C82.7049 41.5139 77.1457 35.991 74.8757 36.7895C72.6057 37.588 76.1616 42.2004 75.1337 46.2794C74.1057 50.3585 70.6471 50.4609 70.8484 52.7697C71.0497 55.0785 77.251 51.4794 76.1338 57.7505C75.0167 64.0217 68.1551 64.3018 69.2775 68.135C70.3999 71.9681 78.5698 71.2294 81.0934 74.6882C83.617 78.147 74.8898 79.986 79.364 85.6054C83.8383 91.2249 90.1796 90.4736 95.7045 93.0392C100.524 95.2773 103.616 99.0802 110.064 99.7289C110.475 99.7703 111.615 99.1197 111.789 98.7331Z" fill="#B9B3F9"/>
<path d="M113.56 74.7124C113.56 74.7124 109.71 78.2828 107.909 81.6549C106.108 85.027 106.718 91.5421 106.718 91.5421L106.319 90.8522C106.319 90.8522 105.975 84.3167 107.71 81.3099C109.444 78.3031 113.56 74.7124 113.56 74.7124Z" fill="#9D95F8"/>
<path d="M84.4467 83.2415C84.4467 83.2415 89.4637 81.6926 93.2846 81.8187C97.1056 81.9448 102.788 85.5315 102.788 85.5315L102.389 84.8416C102.389 84.8416 96.5568 81.4748 93.0855 81.4737C89.6141 81.4726 84.4467 83.2415 84.4467 83.2415Z" fill="#9D95F8"/>
<path d="M106.907 56.0158C106.907 56.0158 101.677 60.383 99.8758 63.7551C98.0746 67.1271 96.9597 74.6382 96.9597 74.6382L96.5614 73.9482C96.5614 73.9482 97.9419 66.4169 99.6766 63.4101C101.411 60.4033 106.907 56.0158 106.907 56.0158Z" fill="#9D95F8"/>
<path d="M71.9251 67.931C71.9251 67.931 78.3221 65.5853 82.143 65.7115C85.9639 65.8376 93.0261 68.6276 93.0261 68.6276L92.6278 67.9376C92.6278 67.9376 85.4152 65.3676 81.9438 65.3665C78.4725 65.3654 71.9251 67.931 71.9251 67.931Z" fill="#9D95F8"/>
<path d="M92.3463 46.3076C92.3463 46.3076 89.6585 50.9374 89.2348 53.9111C88.8111 56.8849 90.0063 62.7301 90.0063 62.7301L89.5268 62.3277C89.5268 62.3277 88.5223 56.3961 88.995 53.71C89.4678 51.0238 92.3463 46.3076 92.3463 46.3076Z" fill="#9D95F8"/>
<path d="M72.7846 52.144C72.7846 52.144 76.8568 51.4159 79.1281 51.8942C81.3994 52.3724 85.3279 54.7852 85.3279 54.7852L85.1624 54.3306C85.1624 54.3306 81.1208 52.0335 79.0454 51.6669C76.9699 51.3003 72.7846 52.144 72.7846 52.144Z" fill="#9D95F8"/>
<path d="M74.8727 36.7919L118.401 110.981L117.366 111.578L74.8727 36.7919Z" fill="#9D95F8"/>
<path d="M136.075 107.854H221.828C224.657 107.854 226.645 105.558 226.258 102.723L216.43 30.5281H120.422L130.25 102.723C130.631 105.558 133.239 107.854 136.075 107.854Z" fill="#5A6389"/>
<path d="M216.423 30.5349H120.422L123.057 49.8913H219.059L216.423 30.5349Z" fill="#4F44D0"/>
<path opacity="0.3" d="M216.422 30.5349H180.945L225.657 105.772C226.17 104.918 226.404 103.87 226.25 102.729L216.422 30.5349Z" fill="#DCDEE6"/>
<path d="M200.934 107.854H115.182C112.353 107.854 110.364 105.558 110.751 102.723L120.58 30.5281H216.588L206.759 102.723C206.372 105.558 203.763 107.854 200.934 107.854Z" fill="white"/>
<path d="M134.012 83.4729C133.752 85.3945 131.984 86.9491 130.062 86.9491C128.141 86.9491 126.799 85.3945 127.06 83.4729C127.32 81.5512 129.088 79.9966 131.01 79.9966C132.931 79.9966 134.272 81.5512 134.012 83.4729Z" fill="#33CF90"/>
<path d="M172.04 70.027C173.543 68.6232 173.767 66.4221 172.542 65.1108C171.317 63.7995 169.106 63.8745 167.603 65.2783C166.101 66.6821 165.876 68.8831 167.101 70.1944C168.326 71.5057 170.538 71.4308 172.04 70.027Z" fill="#33CF90"/>
<path d="M213.746 51.3991L214.607 45.0604H118.599L117.738 51.3991H213.746Z" fill="#4F44D0"/>
<path d="M213.953 49.8913H117.945L120.581 30.5349H216.589L213.953 49.8913Z" fill="#675AF6"/>
<path fill-rule="evenodd" clip-rule="evenodd" d="M141.855 66.3892L141.891 66.1271C142.141 66.1363 142.319 66.1194 142.424 66.0762C142.529 66.033 142.619 65.9095 142.696 65.7058L142.966 65.7422L142.6 68.4505L142.236 68.4014L142.495 66.4755L141.855 66.3892Z" fill="#5A6389"/>
<path fill-rule="evenodd" clip-rule="evenodd" d="M150.429 68.277C150.473 68.0445 150.549 67.8472 150.657 67.6851C150.764 67.5229 150.95 67.3875 151.213 67.2786L151.606 67.117C151.782 67.0441 151.908 66.9785 151.983 66.9203C152.101 66.8292 152.169 66.7159 152.187 66.5804C152.209 66.4221 152.178 66.2901 152.096 66.1842C152.013 66.0783 151.893 66.0147 151.735 65.9934C151.5 65.9618 151.326 66.0285 151.213 66.1937C151.152 66.2821 151.107 66.4102 151.079 66.578L150.732 66.5311C150.768 66.2948 150.837 66.1076 150.941 65.9695C151.125 65.7261 151.404 65.6297 151.779 65.6802C152.09 65.7223 152.306 65.8372 152.427 66.0249C152.548 66.2127 152.595 66.4098 152.567 66.6162C152.538 66.834 152.436 67.0098 152.262 67.1436C152.161 67.2215 151.988 67.309 151.741 67.406L151.462 67.5152C151.328 67.5668 151.222 67.6189 151.143 67.6714C151.001 67.7644 150.905 67.8759 150.854 68.0056L152.339 68.206L152.296 68.5289L150.429 68.277Z" fill="#5A6389"/>
<path fill-rule="evenodd" clip-rule="evenodd" d="M160.909 67.0236C161.045 67.0822 161.145 67.1724 161.21 67.2942C161.275 67.4171 161.297 67.5596 161.275 67.7217C161.24 67.9813 161.126 68.1812 160.933 68.3215C160.74 68.4617 160.487 68.5107 160.173 68.4683C159.851 68.425 159.63 68.3052 159.509 68.109C159.387 67.9128 159.344 67.6881 159.378 67.4349L159.735 67.483C159.727 67.6611 159.742 67.7934 159.782 67.88C159.852 68.035 160.002 68.1282 160.234 68.1594C160.414 68.1837 160.564 68.155 160.686 68.0735C160.808 67.992 160.879 67.8752 160.9 67.7233C160.925 67.5359 160.885 67.3971 160.781 67.3069C160.676 67.2168 160.522 67.158 160.318 67.1305C160.296 67.1274 160.272 67.1246 160.249 67.122C160.225 67.1195 160.202 67.1173 160.177 67.1153L160.218 66.8133C160.253 66.8219 160.282 66.8284 160.306 66.8329C160.33 66.8375 160.356 66.8416 160.384 66.8454C160.512 66.8626 160.62 66.8565 160.707 66.8271C160.861 66.7757 160.951 66.6588 160.975 66.4765C160.993 66.341 160.959 66.23 160.873 66.1436C160.787 66.0572 160.68 66.0054 160.552 65.9881C160.324 65.9574 160.156 66.0121 160.048 66.1522C159.989 66.2293 159.945 66.3447 159.918 66.4983L159.58 66.4527C159.608 66.2501 159.671 66.0833 159.771 65.9525C159.945 65.718 160.207 65.6245 160.558 65.6718C160.835 65.7092 161.041 65.7998 161.177 65.9438C161.312 66.0877 161.364 66.2768 161.332 66.5111C161.31 66.6782 161.246 66.8076 161.142 66.8993C161.078 66.9564 160.999 66.9973 160.905 67.0221L160.909 67.0236Z" fill="#5A6389"/>
<path fill-rule="evenodd" clip-rule="evenodd" d="M169.41 67.4692L169.576 66.2366L168.538 67.3517L169.41 67.4692ZM169.286 68.4322L169.375 67.7674L168.183 67.6066L168.228 67.2723L169.707 65.712L169.995 65.751L169.757 67.5153L170.158 67.5694L170.118 67.8676L169.717 67.8135L169.627 68.4783L169.286 68.4322Z" fill="white"/>
<path fill-rule="evenodd" clip-rule="evenodd" d="M178.361 67.5775C178.358 67.7755 178.43 67.9226 178.578 68.0186C178.654 68.0676 178.745 68.0992 178.852 68.1135C179.054 68.1409 179.213 68.0965 179.328 67.9805C179.443 67.8645 179.511 67.728 179.532 67.571C179.558 67.3811 179.52 67.2264 179.418 67.107C179.316 66.9875 179.184 66.9169 179.022 66.895C178.904 66.8791 178.8 66.8883 178.71 66.9225C178.619 66.9567 178.539 67.0103 178.469 67.0833L178.175 67.0263L178.579 65.5899L179.992 65.7805L179.948 66.111L178.791 65.9549L178.573 66.6952C178.643 66.6556 178.708 66.6277 178.768 66.6113C178.875 66.5832 178.995 66.5781 179.128 66.596C179.378 66.6297 179.578 66.7386 179.73 66.9228C179.882 67.107 179.941 67.3226 179.908 67.5695C179.873 67.8265 179.763 68.0424 179.578 68.2172C179.392 68.3921 179.125 68.456 178.777 68.409C178.556 68.3791 178.368 68.2903 178.215 68.1426C178.061 67.995 177.992 67.7906 178.006 67.5296L178.361 67.5775Z" fill="#5A6389"/>
<path fill-rule="evenodd" clip-rule="evenodd" d="M122.359 74.5137C122.662 74.5546 122.864 74.662 122.962 74.8358C123.06 75.0095 123.098 75.18 123.076 75.3471L122.738 75.3015C122.732 75.1912 122.711 75.1026 122.675 75.0359C122.608 74.9108 122.491 74.837 122.324 74.8145C122.133 74.7887 121.969 74.8566 121.832 75.018C121.696 75.1794 121.599 75.4239 121.542 75.7514C121.636 75.6467 121.746 75.574 121.873 75.533C121.989 75.4971 122.114 75.4881 122.248 75.5062C122.476 75.537 122.665 75.6366 122.815 75.8051C122.965 75.9735 123.02 76.2021 122.981 76.4908C122.948 76.7377 122.838 76.9456 122.652 77.1145C122.465 77.2833 122.223 77.3477 121.925 77.3076C121.671 77.2733 121.464 77.1471 121.305 76.9291C121.147 76.7111 121.098 76.3736 121.16 75.9165C121.205 75.5784 121.285 75.2972 121.399 75.0728C121.618 74.6433 121.938 74.457 122.359 74.5137ZM121.997 77.0084C122.177 77.0327 122.32 76.9904 122.425 76.8815C122.531 76.7726 122.595 76.6359 122.617 76.4713C122.636 76.332 122.614 76.194 122.551 76.0572C122.488 75.9205 122.352 75.838 122.142 75.8096C121.995 75.7898 121.859 75.8212 121.735 75.9037C121.611 75.9863 121.536 76.1257 121.51 76.322C121.487 76.4942 121.517 76.6456 121.602 76.7763C121.687 76.907 121.819 76.9844 121.997 77.0084Z" fill="#5A6389"/>
<path fill-rule="evenodd" clip-rule="evenodd" d="M132.079 74.6331L132.039 74.9313C131.94 75.0043 131.804 75.1362 131.631 75.3268C131.457 75.5174 131.299 75.7268 131.154 75.9549C131.012 76.1768 130.9 76.3814 130.816 76.5687C130.763 76.6891 130.688 76.8846 130.592 77.1553L130.214 77.1043C130.37 76.5968 130.63 76.1059 130.993 75.6314C131.207 75.3535 131.425 75.1179 131.645 74.9246L130.141 74.7217L130.188 74.3779L132.079 74.6331Z" fill="#5A6389"/>
<path fill-rule="evenodd" clip-rule="evenodd" d="M139.805 75.6522C139.956 75.6726 140.08 75.6463 140.176 75.5736C140.272 75.5008 140.328 75.4062 140.344 75.2897C140.357 75.1884 140.329 75.0899 140.26 74.9941C140.19 74.8984 140.072 74.8393 139.907 74.8169C139.742 74.7947 139.617 74.8211 139.532 74.896C139.447 74.9709 139.397 75.0654 139.382 75.1793C139.365 75.3072 139.399 75.4136 139.484 75.4986C139.569 75.5836 139.676 75.6348 139.805 75.6522ZM139.644 77.002C139.802 77.0233 139.94 76.9983 140.056 76.9269C140.172 76.8555 140.241 76.735 140.264 76.5653C140.288 76.3893 140.252 76.2485 140.157 76.1428C140.061 76.0371 139.929 75.973 139.761 75.9502C139.598 75.9282 139.458 75.9568 139.342 76.0359C139.227 76.1151 139.158 76.2369 139.135 76.4015C139.116 76.5434 139.147 76.6722 139.227 76.7881C139.308 76.904 139.447 76.9753 139.644 77.002ZM139.322 75.7208C139.233 75.6675 139.165 75.61 139.119 75.5484C139.033 75.4336 139 75.2952 139.022 75.1331C139.05 74.9306 139.147 74.7664 139.313 74.6406C139.48 74.5148 139.698 74.4701 139.967 74.5064C140.228 74.5416 140.424 74.6379 140.553 74.7952C140.683 74.9526 140.735 75.1231 140.71 75.3067C140.687 75.4763 140.626 75.6079 140.526 75.7014C140.469 75.7544 140.387 75.8026 140.278 75.8459C140.384 75.913 140.464 75.9845 140.52 76.0603C140.623 76.2031 140.661 76.3758 140.634 76.5784C140.601 76.8177 140.494 77.0098 140.31 77.1546C140.127 77.2994 139.888 77.352 139.595 77.3124C139.33 77.2767 139.116 77.1747 138.952 77.0063C138.789 76.8379 138.725 76.6169 138.762 76.3434C138.784 76.1826 138.842 76.049 138.936 75.9424C139.031 75.8359 139.159 75.762 139.322 75.7208Z" fill="#5A6389"/>
<path fill-rule="evenodd" clip-rule="evenodd" d="M148.939 76.4994C148.924 76.6895 148.979 76.8297 149.105 76.9201C149.169 76.9675 149.245 76.9971 149.332 77.0089C149.496 77.0309 149.644 76.9816 149.778 76.8611C149.911 76.7405 150.03 76.4752 150.135 76.0651C150.042 76.1751 149.937 76.247 149.818 76.2806C149.7 76.3142 149.576 76.3223 149.447 76.3049C149.185 76.2696 148.988 76.1599 148.858 75.976C148.727 75.7921 148.679 75.5716 148.714 75.3146C148.747 75.0677 148.852 74.8607 149.028 74.6936C149.204 74.5266 149.439 74.4628 149.732 74.5025C150.129 74.5559 150.378 74.7713 150.481 75.1487C150.538 75.3562 150.546 75.6075 150.507 75.9025C150.462 76.2355 150.372 76.5238 150.237 76.7673C150.014 77.1729 149.704 77.349 149.307 77.2956C149.041 77.2597 148.849 77.1628 148.73 77.0049C148.61 76.847 148.565 76.663 148.593 76.4528L148.939 76.4994ZM149.533 76.0109C149.668 76.0292 149.798 76.0012 149.922 75.9271C150.046 75.8529 150.123 75.7044 150.154 75.4816C150.181 75.2815 150.15 75.1257 150.063 75.014C149.975 74.9023 149.854 74.8359 149.698 74.8149C149.531 74.7924 149.391 74.8305 149.278 74.9293C149.164 75.0281 149.095 75.1712 149.07 75.3586C149.046 75.5359 149.07 75.6826 149.142 75.7986C149.214 75.9147 149.344 75.9855 149.533 76.0109Z" fill="#5A6389"/>
<path fill-rule="evenodd" clip-rule="evenodd" d="M156.592 75.0446L156.627 74.7825C156.878 74.7917 157.055 74.7748 157.16 74.7316C157.265 74.6884 157.356 74.5649 157.433 74.3612L157.702 74.3976L157.337 77.106L156.972 77.0568L157.232 75.1309L156.592 75.0446ZM159.542 74.6339C159.894 74.6814 160.129 74.8607 160.247 75.1718C160.339 75.4123 160.358 75.7276 160.305 76.1176C160.256 76.4873 160.159 76.7856 160.016 77.0126C159.81 77.338 159.526 77.4763 159.164 77.4274C158.837 77.3834 158.613 77.2088 158.492 76.9036C158.391 76.6489 158.367 76.3222 158.421 75.9233C158.463 75.6144 158.538 75.3545 158.648 75.1437C158.853 74.751 159.151 74.5811 159.542 74.6339ZM159.204 77.1158C159.381 77.1397 159.533 77.0802 159.659 76.9374C159.785 76.7946 159.877 76.5092 159.935 76.0812C159.977 75.7723 159.973 75.513 159.924 75.3033C159.875 75.0936 159.741 74.974 159.522 74.9445C159.321 74.9173 159.161 74.9921 159.042 75.1689C158.923 75.3456 158.839 75.6182 158.79 75.9866C158.752 76.2639 158.752 76.4908 158.789 76.6672C158.845 76.9366 158.984 77.0861 159.204 77.1158Z" fill="#5A6389"/>
<path fill-rule="evenodd" clip-rule="evenodd" d="M167.375 75.0941L167.41 74.832C167.66 74.8412 167.838 74.8243 167.943 74.7811C168.048 74.7379 168.139 74.6145 168.215 74.4108L168.485 74.4471L168.12 77.1555L167.755 77.1063L168.015 75.1804L167.375 75.0941ZM169.251 75.3468L169.287 75.0847C169.537 75.094 169.714 75.077 169.82 75.0338C169.925 74.9906 170.015 74.8672 170.092 74.6635L170.362 74.6999L169.996 77.4082L169.632 77.359L169.891 75.4332L169.251 75.3468Z" fill="#5A6389"/>
<path fill-rule="evenodd" clip-rule="evenodd" d="M176.212 75.0531L176.247 74.791C176.497 74.8003 176.675 74.7833 176.78 74.7401C176.885 74.6969 176.976 74.5735 177.052 74.3698L177.322 74.4062L176.957 77.1145L176.592 77.0653L176.852 75.1395L176.212 75.0531ZM177.864 77.2365C177.909 77.004 177.985 76.8067 178.092 76.6446C178.2 76.4825 178.385 76.347 178.649 76.2382L179.042 76.0765C179.218 76.0036 179.344 75.938 179.418 75.8798C179.536 75.7887 179.605 75.6755 179.623 75.54C179.644 75.3817 179.614 75.2496 179.531 75.1438C179.449 75.0379 179.328 74.9743 179.17 74.9529C178.936 74.9213 178.762 74.9881 178.648 75.1532C178.587 75.2417 178.543 75.3698 178.515 75.5375L178.168 75.4906C178.203 75.2543 178.273 75.0671 178.377 74.929C178.56 74.6856 178.84 74.5892 179.214 74.6398C179.526 74.6818 179.742 74.7967 179.863 74.9845C179.984 75.1723 180.031 75.3694 180.003 75.5758C179.973 75.7936 179.872 75.9693 179.698 76.1031C179.597 76.1811 179.423 76.2685 179.177 76.3655L178.897 76.4747C178.764 76.5264 178.658 76.5784 178.578 76.6309C178.437 76.724 178.341 76.8354 178.29 76.9652L179.775 77.1656L179.731 77.4884L177.864 77.2365Z" fill="#5A6389"/>
<path fill-rule="evenodd" clip-rule="evenodd" d="M119.303 82.8977L119.338 82.6356C119.588 82.6449 119.766 82.6279 119.871 82.5847C119.976 82.5415 120.067 82.4181 120.143 82.2144L120.413 82.2508L120.047 84.9591L119.683 84.9099L119.943 82.9841L119.303 82.8977ZM122.567 83.8299C122.567 83.8299 122.567 83.8299 122.567 83.8299C122.568 83.8304 122.569 83.8309 122.571 83.8315L122.567 83.8299ZM122.571 83.8306C122.707 83.8892 122.807 83.9794 122.872 84.1012C122.937 84.2241 122.959 84.3666 122.937 84.5287C122.902 84.7882 122.788 84.9881 122.595 85.1284C122.402 85.2687 122.149 85.3177 121.835 85.2753C121.513 85.2319 121.292 85.1122 121.171 84.916C121.049 84.7198 121.006 84.4951 121.04 84.2418L121.397 84.29C121.389 84.468 121.404 84.6004 121.444 84.687C121.513 84.842 121.664 84.9351 121.896 84.9664C122.075 84.9906 122.226 84.962 122.348 84.8805C122.47 84.7989 122.541 84.6822 122.562 84.5302C122.587 84.3428 122.547 84.2041 122.443 84.1139C122.338 84.0237 122.184 83.9649 121.98 83.9374C121.958 83.9344 121.934 83.9316 121.911 83.929C121.887 83.9265 121.863 83.9242 121.839 83.9223L121.88 83.6203C121.915 83.6289 121.944 83.6354 121.968 83.6399C121.992 83.6444 122.018 83.6486 122.046 83.6523C122.174 83.6696 122.282 83.6635 122.369 83.6341C122.523 83.5826 122.612 83.4658 122.637 83.2834C122.655 83.1479 122.621 83.037 122.535 82.9506C122.449 82.8642 122.342 82.8123 122.214 82.7951C121.986 82.7643 121.818 82.8191 121.71 82.9592C121.651 83.0363 121.607 83.1516 121.58 83.3053L121.242 83.2597C121.269 83.0571 121.333 82.8903 121.433 82.7595C121.607 82.525 121.869 82.4314 122.22 82.4787C122.497 82.5161 122.703 82.6068 122.839 82.7508C122.974 82.8947 123.026 83.0838 122.994 83.318C122.972 83.4852 122.908 83.6146 122.804 83.7063C122.74 83.7633 122.661 83.8043 122.567 83.829L122.571 83.8306Z" fill="#5A6389"/>
<path fill-rule="evenodd" clip-rule="evenodd" d="M128.13 82.8993L128.165 82.6372C128.416 82.6465 128.593 82.6295 128.698 82.5863C128.803 82.5431 128.894 82.4197 128.971 82.216L129.24 82.2524L128.875 84.9607L128.51 84.9115L128.77 82.9857L128.13 82.8993ZM131.076 84.2768L131.243 83.0442L130.205 84.1592L131.076 84.2768ZM130.953 85.2401L131.043 84.5753L129.85 84.4144L129.895 84.0802L131.374 82.5199L131.663 82.5589L131.425 84.3233L131.825 84.3773L131.785 84.6755L131.384 84.6215L131.295 85.2862L130.953 85.2401Z" fill="white"/>
<path fill-rule="evenodd" clip-rule="evenodd" d="M136.969 82.8823L137.004 82.6202C137.254 82.6295 137.432 82.6125 137.537 82.5693C137.642 82.5261 137.733 82.4027 137.809 82.199L138.079 82.2354L137.714 84.9437L137.349 84.8945L137.609 82.9687L136.969 82.8823ZM139.074 84.4212C139.071 84.6192 139.143 84.7663 139.291 84.8623C139.367 84.9113 139.458 84.9429 139.565 84.9572C139.767 84.9846 139.926 84.9402 140.041 84.8242C140.156 84.7082 140.224 84.5717 140.245 84.4147C140.271 84.2248 140.233 84.0701 140.131 83.9507C140.029 83.8312 139.897 83.7606 139.735 83.7387C139.617 83.7228 139.513 83.732 139.423 83.7662C139.332 83.8004 139.252 83.854 139.181 83.9271L138.888 83.87L139.292 82.4336L140.705 82.6242L140.661 82.9547L139.504 82.7986L139.286 83.5389C139.356 83.4993 139.421 83.4714 139.481 83.455C139.588 83.4269 139.708 83.4218 139.841 83.4397C140.09 83.4734 140.291 83.5823 140.443 83.7665C140.595 83.9507 140.654 84.1662 140.62 84.4131C140.586 84.6702 140.476 84.8861 140.29 85.0609C140.105 85.2358 139.838 85.2997 139.49 85.2527C139.268 85.2228 139.081 85.134 138.927 84.9863C138.774 84.8387 138.704 84.6343 138.719 84.3733L139.074 84.4212Z" fill="#5A6389"/>
<path fill-rule="evenodd" clip-rule="evenodd" d="M146.778 82.9046L146.813 82.6425C147.064 82.6518 147.241 82.6348 147.346 82.5916C147.451 82.5484 147.542 82.425 147.619 82.2213L147.888 82.2577L147.523 84.966L147.158 84.9168L147.418 82.991L146.778 82.9046ZM149.816 82.4938C150.12 82.5348 150.321 82.6422 150.419 82.816C150.518 82.9898 150.556 83.1602 150.533 83.3274L150.195 83.2817C150.189 83.1714 150.168 83.0828 150.132 83.0161C150.065 82.891 149.948 82.8172 149.781 82.7947C149.59 82.7689 149.426 82.8367 149.29 82.9981C149.153 83.1595 149.056 83.404 148.999 83.7315C149.093 83.6269 149.204 83.5541 149.33 83.5132C149.446 83.4772 149.571 83.4683 149.705 83.4864C149.933 83.5171 150.122 83.6168 150.272 83.7853C150.422 83.9538 150.478 84.1824 150.439 84.471C150.405 84.718 150.296 84.9258 150.109 85.0947C149.923 85.2636 149.681 85.3279 149.383 85.2878C149.128 85.2534 148.922 85.1273 148.763 84.9092C148.604 84.6912 148.556 84.3536 148.617 83.8966C148.663 83.5585 148.743 83.2773 148.857 83.0528C149.076 82.6234 149.396 82.4371 149.816 82.4938ZM149.454 84.9883C149.634 85.0126 149.777 84.9703 149.882 84.8614C149.988 84.7525 150.052 84.6158 150.074 84.4512C150.093 84.3119 150.071 84.1739 150.008 84.0372C149.945 83.9004 149.809 83.8179 149.598 83.7895C149.451 83.7697 149.316 83.8011 149.192 83.8836C149.068 83.9662 148.993 84.1056 148.967 84.3018C148.943 84.474 148.974 84.6255 149.059 84.7562C149.144 84.8869 149.276 84.9643 149.454 84.9883Z" fill="#5A6389"/>
<path fill-rule="evenodd" clip-rule="evenodd" d="M155.605 82.8799L155.641 82.6178C155.891 82.6271 156.069 82.6101 156.174 82.5669C156.279 82.5237 156.369 82.4003 156.446 82.1966L156.716 82.233L156.35 84.9413L155.986 84.8921L156.245 82.9663L155.605 82.8799ZM159.531 82.6476L159.491 82.9457C159.392 83.0188 159.256 83.1506 159.083 83.3413C158.91 83.5319 158.751 83.7412 158.607 83.9693C158.465 84.1912 158.352 84.3958 158.269 84.5831C158.215 84.7035 158.14 84.8991 158.044 85.1698L157.666 85.1188C157.823 84.6113 158.082 84.1203 158.445 83.6459C158.659 83.3679 158.877 83.1323 159.098 82.9391L157.593 82.7361L157.64 82.3923L159.531 82.6476Z" fill="#5A6389"/>
<path fill-rule="evenodd" clip-rule="evenodd" d="M165.423 82.9026L165.458 82.6405C165.708 82.6498 165.886 82.6328 165.991 82.5896C166.096 82.5464 166.187 82.423 166.264 82.2193L166.533 82.2557L166.168 84.964L165.803 84.9148L166.063 82.989L165.423 82.9026ZM168.225 83.6316C168.376 83.652 168.5 83.6258 168.596 83.553C168.692 83.4802 168.748 83.3856 168.764 83.2691C168.777 83.1678 168.749 83.0693 168.68 82.9735C168.61 82.8778 168.492 82.8187 168.327 82.7963C168.162 82.7741 168.037 82.8005 167.952 82.8754C167.867 82.9503 167.817 83.0448 167.802 83.1587C167.785 83.2866 167.819 83.3931 167.904 83.478C167.989 83.563 168.096 83.6142 168.225 83.6316ZM168.064 84.981C168.223 85.0023 168.36 84.9773 168.476 84.906C168.592 84.8346 168.661 84.7141 168.684 84.5444C168.708 84.3684 168.672 84.2276 168.577 84.1219C168.481 84.0162 168.349 83.952 168.181 83.9293C168.018 83.9072 167.878 83.9358 167.762 84.0149C167.647 84.0941 167.578 84.2159 167.555 84.3805C167.536 84.5224 167.567 84.6512 167.647 84.7671C167.728 84.8831 167.867 84.9543 168.064 84.981ZM167.743 83.6997C167.653 83.6464 167.585 83.5889 167.54 83.5273C167.453 83.4125 167.421 83.2741 167.443 83.112C167.47 82.9094 167.567 82.7452 167.734 82.6194C167.9 82.4936 168.118 82.4489 168.388 82.4853C168.649 82.5205 168.844 82.6168 168.974 82.7741C169.103 82.9315 169.156 83.102 169.131 83.2856C169.108 83.4552 169.046 83.5868 168.946 83.6803C168.89 83.7333 168.807 83.7815 168.698 83.8248C168.804 83.8919 168.885 83.9634 168.94 84.0392C169.043 84.182 169.081 84.3547 169.054 84.5573C169.022 84.7966 168.914 84.9887 168.731 85.1335C168.547 85.2783 168.309 85.3309 168.015 85.2913C167.751 85.2556 167.536 85.1535 167.373 84.9851C167.209 84.8167 167.146 84.5958 167.183 84.3223C167.205 84.1615 167.263 84.0278 167.357 83.9213C167.451 83.8148 167.58 83.7409 167.743 83.6997Z" fill="#5A6389"/>
<path fill-rule="evenodd" clip-rule="evenodd" d="M175.232 82.9L175.268 82.6379C175.518 82.6471 175.695 82.6301 175.8 82.587C175.905 82.5438 175.996 82.4203 176.073 82.2166L176.342 82.253L175.977 84.9613L175.612 84.9121L175.872 82.9863L175.232 82.9ZM177.369 84.4794C177.353 84.6695 177.409 84.8097 177.534 84.9001C177.599 84.9475 177.675 84.9771 177.762 84.9889C177.925 85.0109 178.074 84.9616 178.207 84.8411C178.341 84.7205 178.46 84.4552 178.564 84.0451C178.472 84.1551 178.367 84.227 178.248 84.2606C178.129 84.2942 178.006 84.3023 177.876 84.2849C177.614 84.2496 177.418 84.1399 177.287 83.956C177.157 83.7721 177.109 83.5516 177.144 83.2946C177.177 83.0477 177.282 82.8407 177.458 82.6736C177.634 82.5066 177.868 82.4429 178.162 82.4825C178.558 82.5359 178.808 82.7513 178.91 83.1287C178.967 83.3363 178.976 83.5875 178.936 83.8825C178.891 84.2155 178.802 84.5038 178.667 84.7474C178.443 85.153 178.133 85.329 177.737 85.2756C177.471 85.2397 177.279 85.1428 177.159 84.9849C177.04 84.827 176.995 84.643 177.023 84.4328L177.369 84.4794ZM177.962 83.9914C178.098 84.0097 178.228 83.9817 178.352 83.9076C178.476 83.8334 178.553 83.6849 178.583 83.4621C178.61 83.262 178.58 83.1062 178.492 82.9945C178.405 82.8828 178.283 82.8164 178.128 82.7954C177.96 82.7729 177.82 82.811 177.707 82.9098C177.594 83.0086 177.525 83.1517 177.499 83.3391C177.475 83.5164 177.499 83.6631 177.571 83.7791C177.643 83.8952 177.774 83.966 177.962 83.9914Z" fill="#5A6389"/>
<path fill-rule="evenodd" clip-rule="evenodd" d="M118.066 92.6621C118.11 92.4296 118.186 92.2323 118.293 92.0702C118.401 91.9081 118.587 91.7726 118.85 91.6638L119.243 91.5022C119.419 91.4293 119.545 91.3637 119.62 91.3055C119.738 91.2144 119.806 91.1011 119.824 90.9656C119.845 90.8073 119.815 90.6753 119.732 90.5694C119.65 90.4635 119.53 90.3999 119.371 90.3785C119.137 90.3469 118.963 90.4137 118.849 90.5788C118.788 90.6673 118.744 90.7954 118.716 90.9631L118.369 90.9162C118.404 90.6799 118.474 90.4927 118.578 90.3546C118.762 90.1112 119.041 90.0148 119.416 90.0654C119.727 90.1074 119.943 90.2224 120.064 90.4102C120.185 90.598 120.232 90.795 120.204 91.0014C120.175 91.2192 120.073 91.395 119.899 91.5288C119.798 91.6067 119.625 91.6942 119.378 91.7911L119.099 91.9004C118.965 91.952 118.859 92.004 118.78 92.0565C118.638 92.1496 118.542 92.261 118.491 92.3908L119.976 92.5912L119.933 92.9141L118.066 92.6621ZM121.525 90.3592C121.877 90.4067 122.112 90.5861 122.23 90.8972C122.322 91.1377 122.341 91.453 122.288 91.843C122.238 92.2127 122.142 92.511 121.999 92.738C121.793 93.0634 121.509 93.2017 121.147 93.1528C120.82 93.1087 120.596 92.9341 120.475 92.629C120.374 92.3742 120.35 92.0475 120.404 91.6486C120.446 91.3397 120.521 91.0798 120.631 90.869C120.836 90.4763 121.134 90.3064 121.525 90.3592ZM121.188 92.8416C121.365 92.8655 121.517 92.806 121.643 92.6632C121.769 92.5204 121.861 92.235 121.919 91.807C121.961 91.4981 121.957 91.2388 121.908 91.0291C121.859 90.8194 121.725 90.6998 121.506 90.6702C121.304 90.6431 121.144 90.7178 121.026 90.8946C120.907 91.0713 120.823 91.3439 120.773 91.7124C120.736 91.9896 120.736 92.2165 120.773 92.3929C120.829 92.6623 120.967 92.8118 121.188 92.8416Z" fill="#5A6389"/>
<path fill-rule="evenodd" clip-rule="evenodd" d="M126.89 92.7039C126.934 92.4713 127.01 92.274 127.118 92.1119C127.225 91.9498 127.411 91.8144 127.674 91.7055L128.067 91.5439C128.243 91.471 128.369 91.4054 128.444 91.3472C128.562 91.2561 128.63 91.1428 128.648 91.0073C128.67 90.8491 128.639 90.717 128.557 90.6111C128.474 90.5052 128.354 90.4416 128.196 90.4203C127.961 90.3887 127.787 90.4554 127.674 90.6206C127.613 90.709 127.568 90.8371 127.541 91.0048L127.193 90.9579C127.229 90.7217 127.298 90.5345 127.402 90.3963C127.586 90.153 127.865 90.0566 128.24 90.1071C128.551 90.1492 128.768 90.2641 128.889 90.4519C129.01 90.6397 129.056 90.8367 129.028 91.0431C128.999 91.2609 128.897 91.4367 128.723 91.5705C128.622 91.6484 128.449 91.7359 128.202 91.8329L127.923 91.9421C127.789 91.9937 127.683 92.0458 127.604 92.0982C127.462 92.1913 127.366 92.3027 127.315 92.4325L128.8 92.6329L128.757 92.9558L126.89 92.7039ZM129.564 91.104L129.6 90.8419C129.85 90.8512 130.028 90.8342 130.133 90.791C130.238 90.7479 130.329 90.6244 130.405 90.4207L130.675 90.4571L130.309 93.1655L129.945 93.1163L130.205 91.1904L129.564 91.104Z" fill="#5A6389"/>
<path fill-rule="evenodd" clip-rule="evenodd" d="M135.722 92.6622C135.766 92.4297 135.842 92.2324 135.95 92.0703C136.057 91.9082 136.243 91.7727 136.506 91.6639L136.899 91.5022C137.075 91.4293 137.201 91.3637 137.276 91.3055C137.394 91.2144 137.462 91.1012 137.48 90.9657C137.502 90.8074 137.471 90.6753 137.389 90.5695C137.306 90.4636 137.186 90.4 137.028 90.3786C136.793 90.347 136.619 90.4138 136.506 90.5789C136.445 90.6674 136.4 90.7955 136.372 90.9632L136.025 90.9163C136.061 90.68 136.13 90.4928 136.234 90.3547C136.418 90.1113 136.697 90.0149 137.072 90.0655C137.383 90.1075 137.599 90.2224 137.72 90.4102C137.841 90.598 137.888 90.7951 137.86 91.0015C137.831 91.2193 137.729 91.395 137.555 91.5289C137.454 91.6068 137.281 91.6942 137.034 91.7912L136.755 91.9004C136.621 91.9521 136.515 92.0041 136.436 92.0566C136.294 92.1497 136.198 92.2611 136.147 92.3909L137.632 92.5913L137.589 92.9141L135.722 92.6622ZM137.885 92.9537C137.929 92.7211 138.005 92.5238 138.113 92.3617C138.22 92.1996 138.406 92.0641 138.669 91.9553L139.063 91.7937C139.239 91.7207 139.364 91.6552 139.439 91.5969C139.557 91.5059 139.625 91.3926 139.644 91.2571C139.665 91.0988 139.634 90.9668 139.552 90.8609C139.47 90.755 139.349 90.6914 139.191 90.67C138.957 90.6384 138.783 90.7052 138.669 90.8703C138.608 90.9588 138.564 91.0869 138.536 91.2546L138.188 91.2077C138.224 90.9714 138.294 90.7842 138.397 90.6461C138.581 90.4027 138.86 90.3063 139.235 90.3569C139.547 90.3989 139.763 90.5138 139.884 90.7016C140.005 90.8894 140.051 91.0865 140.024 91.2929C139.994 91.5107 139.892 91.6865 139.718 91.8203C139.618 91.8982 139.444 91.9857 139.198 92.0826L138.918 92.1919C138.785 92.2435 138.678 92.2955 138.599 92.348C138.458 92.4411 138.361 92.5525 138.31 92.6823L139.796 92.8827L139.752 93.2056L137.885 92.9537Z" fill="#5A6389"/>
<path fill-rule="evenodd" clip-rule="evenodd" d="M145.538 92.6624C145.582 92.4299 145.658 92.2326 145.766 92.0705C145.873 91.9083 146.059 91.7729 146.322 91.664L146.716 91.5024C146.892 91.4294 147.017 91.3638 147.092 91.3056C147.21 91.2145 147.278 91.1012 147.297 90.9657C147.318 90.8075 147.287 90.6754 147.205 90.5695C147.123 90.4637 147.002 90.4001 146.844 90.3787C146.61 90.3471 146.436 90.4139 146.322 90.5791C146.261 90.6675 146.217 90.7956 146.189 90.9634L145.841 90.9165C145.877 90.6802 145.947 90.493 146.05 90.3549C146.234 90.1115 146.513 90.0151 146.888 90.0656C147.2 90.1076 147.416 90.2225 147.537 90.4103C147.658 90.5981 147.704 90.7951 147.677 91.0015C147.647 91.2193 147.545 91.3951 147.371 91.5289C147.271 91.6068 147.097 91.6943 146.851 91.7913L146.571 91.9006C146.438 91.9522 146.331 92.0043 146.252 92.0567C146.111 92.1498 146.014 92.2612 145.963 92.391L147.448 92.5913L147.405 92.9142L145.538 92.6624ZM149.313 91.702C149.313 91.702 149.313 91.702 149.313 91.702C149.314 91.7025 149.315 91.703 149.316 91.7035L149.313 91.702ZM149.317 91.703C149.453 91.7615 149.554 91.8517 149.618 91.9736C149.684 92.0965 149.705 92.239 149.683 92.401C149.648 92.6606 149.534 92.8605 149.341 93.0008C149.148 93.1411 148.895 93.1901 148.581 93.1477C148.259 93.1043 148.038 92.9846 147.917 92.7884C147.796 92.5922 147.752 92.3675 147.786 92.1143L148.143 92.1624C148.135 92.3405 148.151 92.4728 148.19 92.5594C148.26 92.7144 148.41 92.8076 148.642 92.8388C148.822 92.863 148.973 92.8344 149.094 92.7528C149.216 92.6713 149.288 92.5546 149.308 92.4026C149.333 92.2152 149.294 92.0765 149.189 91.9863C149.085 91.8961 148.931 91.8373 148.727 91.8098C148.704 91.8068 148.681 91.804 148.657 91.8014C148.634 91.7989 148.61 91.7967 148.586 91.7947L148.626 91.4927C148.661 91.5013 148.691 91.5078 148.715 91.5123C148.738 91.5168 148.764 91.521 148.792 91.5247C148.92 91.542 149.028 91.5359 149.116 91.5065C149.27 91.455 149.359 91.3381 149.383 91.1558C149.402 91.0203 149.368 90.9094 149.281 90.823C149.195 90.7366 149.088 90.6847 148.96 90.6675C148.732 90.6368 148.564 90.6915 148.456 90.8316C148.397 90.9087 148.354 91.0241 148.327 91.1777L147.989 91.1321C148.016 90.9295 148.08 90.7628 148.18 90.6319C148.353 90.3974 148.615 90.3039 148.966 90.3512C149.243 90.3885 149.45 90.4792 149.585 90.6232C149.72 90.7671 149.772 90.9562 149.74 91.1904C149.718 91.3576 149.655 91.487 149.551 91.5787C149.486 91.6357 149.407 91.6766 149.314 91.7014L149.317 91.703Z" fill="#5A6389"/>
<path fill-rule="evenodd" clip-rule="evenodd" d="M154.366 92.6595C154.41 92.427 154.486 92.2296 154.594 92.0675C154.702 91.9054 154.887 91.7699 155.151 91.6611L155.544 91.4995C155.72 91.4265 155.845 91.3609 155.92 91.3027C156.038 91.2116 156.106 91.0983 156.125 90.9629C156.146 90.8046 156.116 90.6725 156.033 90.5666C155.951 90.4608 155.83 90.3972 155.672 90.3758C155.438 90.3442 155.264 90.411 155.15 90.5761C155.089 90.6646 155.045 90.7927 155.017 90.9604L154.669 90.9136C154.705 90.6773 154.775 90.4901 154.879 90.352C155.062 90.1086 155.341 90.0122 155.716 90.0627C156.028 90.1047 156.244 90.2196 156.365 90.4074C156.486 90.5952 156.533 90.7922 156.505 90.9986C156.475 91.2164 156.374 91.3922 156.2 91.526C156.099 91.604 155.925 91.6914 155.679 91.7884L155.399 91.8976C155.266 91.9493 155.159 92.0013 155.08 92.0538C154.939 92.1469 154.842 92.2583 154.791 92.3881L156.277 92.5884L156.233 92.9113L154.366 92.6595ZM157.824 92.1451L157.99 90.9125L156.952 92.0275L157.824 92.1451ZM157.698 93.1083L157.788 92.4436L156.595 92.2828L156.64 91.9485L158.12 90.3882L158.408 90.4271L158.17 92.1915L158.571 92.2456L158.531 92.5437L158.13 92.4897L158.04 93.1544L157.698 93.1083Z" fill="#5A6389"/>
<path fill-rule="evenodd" clip-rule="evenodd" d="M164.183 92.6624C164.227 92.4299 164.303 92.2326 164.41 92.0705C164.518 91.9084 164.704 91.7729 164.967 91.6641L165.36 91.5024C165.536 91.4295 165.662 91.3639 165.737 91.3057C165.855 91.2146 165.923 91.1013 165.941 90.9658C165.962 90.8076 165.932 90.6755 165.85 90.5696C165.767 90.4638 165.647 90.4001 165.489 90.3788C165.254 90.3472 165.08 90.414 164.966 90.5791C164.906 90.6676 164.861 90.7957 164.833 90.9634L164.486 90.9165C164.522 90.6802 164.591 90.493 164.695 90.3549C164.879 90.1115 165.158 90.0151 165.533 90.0657C165.844 90.1077 166.06 90.2226 166.181 90.4104C166.302 90.5982 166.349 90.7952 166.321 91.0016C166.292 91.2194 166.19 91.3952 166.016 91.529C165.915 91.607 165.742 91.6944 165.495 91.7914L165.216 91.9006C165.082 91.9523 164.976 92.0043 164.897 92.0568C164.755 92.1499 164.659 92.2613 164.608 92.3911L166.093 92.5914L166.05 92.9143L164.183 92.6624ZM166.797 92.3087C166.794 92.5068 166.866 92.6538 167.014 92.7499C167.09 92.7988 167.181 92.8304 167.288 92.8448C167.49 92.8721 167.649 92.8278 167.764 92.7118C167.879 92.5958 167.947 92.4593 167.968 92.3023C167.994 92.1123 167.955 91.9577 167.854 91.8382C167.752 91.7187 167.62 91.6481 167.458 91.6262C167.34 91.6103 167.236 91.6195 167.146 91.6537C167.055 91.688 166.975 91.7416 166.904 91.8146L166.61 91.7575L167.015 90.3211L168.428 90.5117L168.383 90.8422L167.227 90.6862L167.009 91.4264C167.079 91.3869 167.144 91.3589 167.204 91.3425C167.311 91.3144 167.431 91.3093 167.564 91.3273C167.813 91.3609 168.014 91.4698 168.166 91.654C168.317 91.8382 168.377 92.0538 168.343 92.3007C168.309 92.5577 168.199 92.7736 168.013 92.9485C167.828 93.1233 167.561 93.1872 167.213 93.1402C166.991 93.1104 166.804 93.0216 166.65 92.8739C166.497 92.7262 166.427 92.5218 166.442 92.2608L166.797 92.3087Z" fill="#5A6389"/>
<path fill-rule="evenodd" clip-rule="evenodd" d="M173.995 92.6637C174.039 92.4312 174.115 92.2339 174.223 92.0717C174.33 91.9096 174.516 91.7742 174.779 91.6653L175.172 91.5037C175.349 91.4307 175.474 91.3652 175.549 91.3069C175.667 91.2159 175.735 91.1026 175.753 90.9671C175.775 90.8088 175.744 90.6768 175.662 90.5709C175.579 90.465 175.459 90.4014 175.301 90.38C175.067 90.3485 174.892 90.4152 174.779 90.5804C174.718 90.6688 174.673 90.7969 174.646 90.9646L174.298 90.9178C174.334 90.6815 174.404 90.4943 174.507 90.3562C174.691 90.1128 174.97 90.0164 175.345 90.0669C175.656 90.1089 175.873 90.2238 175.994 90.4116C176.115 90.5994 176.161 90.7965 176.133 91.0029C176.104 91.2207 176.002 91.3965 175.828 91.5303C175.727 91.6082 175.554 91.6957 175.307 91.7926L175.028 91.9019C174.894 91.9535 174.788 92.0056 174.709 92.058C174.567 92.1511 174.471 92.2626 174.42 92.3923L175.905 92.5927L175.862 92.9155L173.995 92.6637ZM177.543 90.3612C177.847 90.4022 178.048 90.5095 178.146 90.6833C178.245 90.8571 178.283 91.0276 178.26 91.1947L177.922 91.1491C177.916 91.0387 177.895 90.9502 177.859 90.8834C177.792 90.7584 177.675 90.6846 177.508 90.662C177.317 90.6362 177.153 90.7041 177.017 90.8655C176.88 91.0269 176.783 91.2714 176.726 91.5989C176.82 91.4942 176.931 91.4215 177.057 91.3805C177.173 91.3446 177.298 91.3357 177.432 91.3538C177.66 91.3845 177.849 91.4841 177.999 91.6526C178.149 91.8211 178.205 92.0497 178.166 92.3384C178.133 92.5853 178.023 92.7932 177.836 92.962C177.65 93.1309 177.408 93.1953 177.11 93.1551C176.855 93.1208 176.649 92.9946 176.49 92.7766C176.331 92.5586 176.283 92.221 176.344 91.7639C176.39 91.4259 176.47 91.1446 176.584 90.9202C176.803 90.4908 177.123 90.3045 177.543 90.3612ZM177.18 92.8549C177.36 92.8791 177.503 92.8368 177.608 92.728C177.714 92.6191 177.778 92.4823 177.8 92.3177C177.819 92.1785 177.797 92.0404 177.734 91.9037C177.671 91.767 177.535 91.6844 177.325 91.6561C177.178 91.6362 177.042 91.6676 176.918 91.7502C176.794 91.8327 176.719 91.9721 176.693 92.1684C176.67 92.3406 176.7 92.492 176.785 92.6227C176.87 92.7534 177.002 92.8308 177.18 92.8549Z" fill="#5A6389"/>
<path fill-rule="evenodd" clip-rule="evenodd" d="M117.077 100.51C117.122 100.277 117.197 100.08 117.305 99.9177C117.413 99.7556 117.598 99.6201 117.862 99.5113L118.255 99.3497C118.431 99.2768 118.556 99.2112 118.631 99.153C118.749 99.0619 118.817 98.9486 118.836 98.8131C118.857 98.6548 118.827 98.5228 118.744 98.4169C118.662 98.311 118.541 98.2474 118.383 98.226C118.149 98.1944 117.975 98.2612 117.861 98.4263C117.8 98.5148 117.756 98.6429 117.728 98.8106L117.38 98.7637C117.416 98.5274 117.486 98.3403 117.59 98.2021C117.773 97.9587 118.052 97.8623 118.427 97.9129C118.739 97.9549 118.955 98.0699 119.076 98.2577C119.197 98.4454 119.244 98.6425 119.216 98.8489C119.186 99.0667 119.085 99.2425 118.911 99.3763C118.81 99.4542 118.636 99.5417 118.39 99.6386L118.11 99.7479C117.977 99.7995 117.871 99.8516 117.791 99.904C117.65 99.9971 117.554 100.109 117.503 100.238L118.988 100.439L118.944 100.762L117.077 100.51ZM121.514 98.3843L121.474 98.6825C121.375 98.7556 121.239 98.8874 121.066 99.078C120.893 99.2687 120.734 99.478 120.59 99.7061C120.448 99.928 120.335 100.133 120.252 100.32C120.198 100.44 120.123 100.636 120.028 100.907L119.65 100.856C119.806 100.348 120.065 99.8571 120.428 99.3826C120.642 99.1047 120.86 98.8691 121.081 98.6758L119.576 98.4729L119.623 98.1291L121.514 98.3843Z" fill="#5A6389"/>
<path fill-rule="evenodd" clip-rule="evenodd" d="M125.913 100.512C125.957 100.279 126.033 100.082 126.141 99.9197C126.248 99.7576 126.434 99.6221 126.697 99.5133L127.091 99.3516C127.267 99.2787 127.392 99.2131 127.467 99.1549C127.585 99.0638 127.653 98.9505 127.672 98.815C127.693 98.6568 127.662 98.5247 127.58 98.4188C127.498 98.313 127.377 98.2493 127.219 98.228C126.985 98.1964 126.811 98.2632 126.697 98.4283C126.636 98.5168 126.592 98.6449 126.564 98.8126L126.216 98.7657C126.252 98.5295 126.322 98.3423 126.425 98.2041C126.609 97.9607 126.888 97.8643 127.263 97.9149C127.575 97.9569 127.791 98.0718 127.912 98.2596C128.033 98.4473 128.079 98.6444 128.052 98.8508C128.022 99.0686 127.92 99.2444 127.746 99.3782C127.646 99.4561 127.472 99.5436 127.226 99.6406L126.946 99.7498C126.813 99.8015 126.706 99.8535 126.627 99.906C126.486 99.9991 126.389 100.11 126.338 100.24L127.824 100.441L127.78 100.763L125.913 100.512ZM129.226 99.3498C129.376 99.3701 129.5 99.3439 129.596 99.2711C129.692 99.1983 129.748 99.1037 129.764 98.9872C129.778 98.8859 129.75 98.7874 129.68 98.6917C129.611 98.5959 129.493 98.5368 129.327 98.5145C129.162 98.4923 129.038 98.5186 128.953 98.5936C128.868 98.6685 128.818 98.7629 128.802 98.8769C128.785 99.0048 128.819 99.1112 128.904 99.1962C128.989 99.2812 129.097 99.3324 129.226 99.3498ZM129.065 100.699C129.224 100.72 129.361 100.695 129.477 100.624C129.593 100.553 129.662 100.432 129.685 100.262C129.709 100.086 129.673 99.9457 129.578 99.84C129.482 99.7343 129.351 99.6701 129.182 99.6474C129.019 99.6254 128.879 99.6539 128.764 99.7331C128.648 99.8122 128.579 99.9341 128.557 100.099C128.538 100.241 128.568 100.369 128.649 100.485C128.729 100.601 128.868 100.672 129.065 100.699ZM128.743 99.4183C128.653 99.3649 128.586 99.3075 128.54 99.2458C128.454 99.1311 128.421 98.9926 128.443 98.8306C128.471 98.628 128.567 98.4638 128.734 98.338C128.9 98.2122 129.119 98.1675 129.388 98.2038C129.649 98.239 129.844 98.3353 129.974 98.4926C130.104 98.65 130.156 98.8205 130.131 99.0041C130.108 99.1737 130.047 99.3053 129.946 99.3988C129.89 99.4518 129.808 99.5 129.699 99.5433C129.804 99.6104 129.885 99.6819 129.941 99.7577C130.044 99.9005 130.082 100.073 130.054 100.276C130.022 100.515 129.914 100.707 129.731 100.852C129.548 100.997 129.309 101.049 129.015 101.01C128.751 100.974 128.537 100.872 128.373 100.704C128.21 100.535 128.146 100.314 128.183 100.041C128.205 99.8801 128.263 99.7464 128.357 99.6399C128.451 99.5333 128.58 99.4595 128.743 99.4183Z" fill="#5A6389"/>
<path fill-rule="evenodd" clip-rule="evenodd" d="M135.725 100.514C135.77 100.281 135.846 100.084 135.953 99.9218C136.061 99.7597 136.246 99.6242 136.51 99.5153L136.903 99.3537C137.079 99.2807 137.205 99.2152 137.28 99.1569C137.398 99.0658 137.466 98.9526 137.484 98.8171C137.505 98.6588 137.475 98.5267 137.392 98.4209C137.31 98.315 137.19 98.2514 137.031 98.2301C136.797 98.1985 136.623 98.2652 136.509 98.4304C136.448 98.5189 136.404 98.647 136.376 98.8147L136.029 98.7678C136.064 98.5315 136.134 98.3443 136.238 98.2062C136.422 97.9628 136.701 97.8664 137.076 97.9169C137.387 97.9589 137.603 98.0738 137.724 98.2616C137.845 98.4494 137.892 98.6465 137.864 98.8528C137.835 99.0706 137.733 99.2464 137.559 99.3802C137.458 99.4582 137.285 99.5456 137.038 99.6426L136.758 99.7519C136.625 99.8035 136.519 99.8556 136.44 99.9081C136.298 100.001 136.202 100.113 136.151 100.242L137.636 100.443L137.592 100.765L135.725 100.514ZM138.372 100.202C138.357 100.392 138.412 100.532 138.538 100.622C138.602 100.67 138.678 100.699 138.766 100.711C138.929 100.733 139.077 100.684 139.211 100.563C139.345 100.443 139.464 100.177 139.568 99.7673C139.476 99.8773 139.37 99.9491 139.252 99.9828C139.133 100.016 139.009 100.025 138.88 100.007C138.618 99.9718 138.422 99.8621 138.291 99.6782C138.161 99.4943 138.113 99.2738 138.147 99.0168C138.181 98.7699 138.285 98.5629 138.461 98.3958C138.637 98.2288 138.872 98.165 139.166 98.2047C139.562 98.2581 139.811 98.4735 139.914 98.8509C139.971 99.0584 139.98 99.3097 139.94 99.6047C139.895 99.9377 139.805 100.226 139.67 100.47C139.447 100.875 139.137 101.051 138.741 100.998C138.475 100.962 138.282 100.865 138.163 100.707C138.044 100.549 137.998 100.365 138.027 100.155L138.372 100.202ZM138.966 99.7132C139.101 99.7314 139.231 99.7035 139.355 99.6293C139.479 99.5552 139.557 99.4067 139.587 99.1838C139.614 98.9838 139.583 98.8279 139.496 98.7162C139.409 98.6045 139.287 98.5382 139.131 98.5172C138.964 98.4946 138.824 98.5328 138.711 98.6316C138.597 98.7304 138.528 98.8735 138.503 99.0609C138.479 99.2382 138.503 99.3848 138.575 99.5009C138.647 99.617 138.777 99.6877 138.966 99.7132Z" fill="#5A6389"/>
<path fill-rule="evenodd" clip-rule="evenodd" d="M147.18 99.256C147.18 99.256 147.18 99.256 147.18 99.256C147.181 99.2566 147.182 99.2571 147.183 99.2576L147.18 99.256ZM147.182 99.2578C147.318 99.3164 147.419 99.4066 147.483 99.5285C147.549 99.6514 147.57 99.7939 147.549 99.9559C147.514 100.215 147.4 100.415 147.207 100.556C147.014 100.696 146.76 100.745 146.446 100.703C146.125 100.659 145.903 100.539 145.782 100.343C145.661 100.147 145.617 99.9223 145.652 99.6691L146.009 99.7172C146 99.8953 146.016 100.028 146.056 100.114C146.125 100.269 146.275 100.362 146.507 100.394C146.687 100.418 146.838 100.389 146.96 100.308C147.082 100.226 147.153 100.109 147.173 99.9575C147.199 99.7701 147.159 99.6313 147.054 99.5412C146.95 99.451 146.796 99.3922 146.592 99.3647C146.569 99.3616 146.546 99.3588 146.522 99.3563C146.499 99.3538 146.475 99.3515 146.451 99.3495L146.492 99.0475C146.526 99.0561 146.556 99.0627 146.58 99.0672C146.604 99.0717 146.63 99.0758 146.657 99.0796C146.785 99.0968 146.893 99.0907 146.981 99.0613C147.135 99.0099 147.224 98.893 147.249 98.7107C147.267 98.5752 147.233 98.4643 147.147 98.3778C147.06 98.2914 146.953 98.2396 146.825 98.2223C146.597 98.1916 146.429 98.2463 146.322 98.3865C146.262 98.4635 146.219 98.5789 146.192 98.7325L145.854 98.6869C145.881 98.4843 145.945 98.3176 146.045 98.1867C146.218 97.9522 146.48 97.8587 146.831 97.906C147.108 97.9434 147.315 98.0341 147.45 98.178C147.585 98.322 147.637 98.5111 147.606 98.7453C147.583 98.9124 147.52 99.0419 147.416 99.1336C147.351 99.1906 147.272 99.2315 147.179 99.2563L147.182 99.2578ZM149.028 98.2066C149.38 98.2541 149.615 98.4334 149.733 98.7445C149.824 98.985 149.843 99.3002 149.791 99.6902C149.741 100.06 149.645 100.358 149.502 100.585C149.295 100.911 149.011 101.049 148.649 101C148.322 100.956 148.098 100.781 147.977 100.476C147.876 100.222 147.852 99.8948 147.906 99.496C147.948 99.1871 148.024 98.9272 148.133 98.7164C148.338 98.3237 148.637 98.1538 149.028 98.2066ZM148.69 100.688C148.867 100.712 149.019 100.652 149.145 100.51C149.272 100.367 149.364 100.081 149.421 99.6535C149.463 99.3445 149.459 99.0852 149.41 98.8755C149.361 98.6659 149.227 98.5463 149.008 98.5167C148.807 98.4896 148.647 98.5644 148.528 98.7411C148.41 98.9179 148.325 99.1905 148.276 99.5589C148.238 99.8362 148.238 100.063 148.275 100.239C148.331 100.509 148.47 100.658 148.69 100.688Z" fill="#5A6389"/>
<path fill-rule="evenodd" clip-rule="evenodd" d="M123.431 59.6835C123.418 59.843 123.438 59.9766 123.491 60.0842C123.591 60.286 123.8 60.4082 124.116 60.4509C124.258 60.47 124.39 60.4672 124.512 60.4424C124.748 60.3943 124.879 60.269 124.907 60.0664C124.927 59.9144 124.894 59.7998 124.808 59.7224C124.72 59.6461 124.577 59.5707 124.378 59.4962L124.012 59.3597C123.773 59.2707 123.606 59.1857 123.513 59.1048C123.351 58.9644 123.286 58.7783 123.317 58.5466C123.351 58.2959 123.466 58.1019 123.661 57.9645C123.856 57.8271 124.112 57.7798 124.43 57.8227C124.723 57.8621 124.962 57.9662 125.147 58.135C125.332 58.3038 125.404 58.5432 125.362 58.8535L125.007 58.8055C125.008 58.6536 124.983 58.5335 124.932 58.4454C124.836 58.2842 124.651 58.185 124.375 58.1478C124.152 58.1177 123.985 58.143 123.875 58.2235C123.765 58.3041 123.702 58.4064 123.685 58.5305C123.666 58.6672 123.71 58.7749 123.815 58.8536C123.885 58.9042 124.047 58.9777 124.302 59.074L124.681 59.216C124.864 59.2845 125.002 59.363 125.094 59.4516C125.254 59.6059 125.317 59.8071 125.283 60.0553C125.242 60.3642 125.1 60.57 124.857 60.6727C124.614 60.7753 124.344 60.8065 124.047 60.7664C123.7 60.7196 123.44 60.5943 123.268 60.3906C123.095 60.1881 123.031 59.9365 123.076 59.6356L123.431 59.6835Z" fill="#4F44D0"/>
<path fill-rule="evenodd" clip-rule="evenodd" d="M132.574 57.6447L133.116 57.7177L133.599 60.1847L134.713 57.9332L135.248 58.0054L134.872 60.7954L134.513 60.747L134.735 59.1004C134.743 59.0434 134.757 58.9492 134.777 58.8179C134.797 58.6866 134.818 58.5455 134.838 58.3949L133.725 60.6407L133.351 60.5902L132.867 58.1289L132.855 58.2144C132.846 58.2828 132.833 58.3871 132.818 58.5275C132.802 58.6678 132.79 58.7709 132.781 58.8367L132.559 60.4834L132.198 60.4347L132.574 57.6447Z" fill="#4F44D0"/>
<path fill-rule="evenodd" clip-rule="evenodd" d="M144.651 57.9777L144.606 58.3101L143.666 58.1832L143.334 60.6409L142.95 60.5891L143.282 58.1315L142.342 58.0047L142.387 57.6723L144.651 57.9777Z" fill="#4F44D0"/>
<path fill-rule="evenodd" clip-rule="evenodd" d="M151.629 57.6412L151.849 59.9818L152.786 57.7972L153.196 57.8526L153.52 60.2072L154.353 58.0086L154.767 58.0645L153.657 60.7556L153.26 60.702L152.928 58.3019L151.969 60.5278L151.572 60.4743L151.219 57.5859L151.629 57.6412Z" fill="#4F44D0"/>
<path fill-rule="evenodd" clip-rule="evenodd" d="M163.295 57.9777L163.25 58.3101L162.31 58.1832L161.979 60.6409L161.595 60.5891L161.927 58.1315L160.986 58.0047L161.031 57.6723L163.295 57.9777Z" fill="#4F44D0"/>
<path fill-rule="evenodd" clip-rule="evenodd" d="M169.859 57.6948L171.795 57.9559L171.749 58.2978L170.191 58.0877L170.077 58.9347L171.446 59.1195L171.401 59.4518L170.032 59.2671L169.861 60.5358L169.483 60.4848L169.859 57.6948Z" fill="#4F44D0"/>
<path fill-rule="evenodd" clip-rule="evenodd" d="M178.802 59.6835C178.789 59.843 178.809 59.9766 178.862 60.0842C178.962 60.286 179.171 60.4082 179.487 60.4509C179.629 60.47 179.761 60.4672 179.883 60.4424C180.119 60.3943 180.251 60.269 180.278 60.0664C180.298 59.9144 180.265 59.7998 180.179 59.7224C180.092 59.6461 179.948 59.5707 179.75 59.4962L179.383 59.3597C179.144 59.2707 178.977 59.1857 178.884 59.1048C178.722 58.9644 178.657 58.7783 178.688 58.5466C178.722 58.2959 178.837 58.1019 179.032 57.9645C179.227 57.8271 179.483 57.7798 179.801 57.8227C180.094 57.8621 180.333 57.9662 180.518 58.135C180.704 58.3038 180.775 58.5432 180.733 58.8535L180.378 58.8055C180.38 58.6536 180.354 58.5335 180.303 58.4454C180.208 58.2842 180.022 58.185 179.746 58.1478C179.523 58.1177 179.356 58.143 179.246 58.2235C179.136 58.3041 179.073 58.4064 179.056 58.5305C179.038 58.6672 179.081 58.7749 179.186 58.8536C179.256 58.9042 179.418 58.9777 179.673 59.074L180.052 59.216C180.235 59.2845 180.373 59.363 180.465 59.4516C180.625 59.6059 180.688 59.8071 180.655 60.0553C180.613 60.3642 180.471 60.57 180.228 60.6727C179.985 60.7753 179.715 60.8065 179.418 60.7664C179.071 60.7196 178.811 60.5943 178.639 60.3906C178.466 60.1881 178.402 59.9365 178.447 59.6356L178.802 59.6835Z" fill="#4F44D0"/>
<path fill-rule="evenodd" clip-rule="evenodd" d="M156.79 41.1294C156.649 40.9047 156.453 40.7174 156.202 40.5674C155.952 40.4174 155.705 40.3296 155.46 40.3039C155.334 40.2906 155.205 40.2883 155.073 40.2969C154.941 40.3055 154.82 40.3359 154.709 40.388C154.599 40.4401 154.503 40.5125 154.422 40.6051C154.341 40.6978 154.293 40.822 154.276 40.9776C154.262 41.111 154.279 41.2251 154.325 41.3199C154.371 41.4147 154.444 41.5011 154.545 41.5791C154.645 41.6571 154.767 41.7317 154.909 41.8029C155.052 41.8741 155.212 41.949 155.391 42.0278C155.649 42.1448 155.916 42.2722 156.194 42.4101C156.472 42.548 156.72 42.7183 156.939 42.9211C157.157 43.124 157.33 43.3651 157.458 43.6446C157.586 43.9241 157.63 44.2603 157.588 44.6531C157.541 45.1053 157.416 45.4875 157.215 45.7998C157.014 46.1122 156.761 46.361 156.456 46.5463C156.152 46.7317 155.813 46.8572 155.439 46.9228C155.065 46.9884 154.685 47.0009 154.3 46.9604C153.736 46.9012 153.202 46.7457 152.696 46.494C152.191 46.2422 151.783 45.9165 151.472 45.5166L152.851 44.38C153.019 44.6375 153.252 44.8624 153.55 45.0549C153.848 45.2474 154.153 45.36 154.464 45.3927C154.605 45.4075 154.744 45.4071 154.88 45.3915C155.017 45.3758 155.139 45.3399 155.246 45.2837C155.353 45.2275 155.442 45.147 155.513 45.042C155.584 44.9371 155.628 44.8068 155.644 44.6511C155.66 44.5029 155.636 44.373 155.573 44.2614C155.509 44.1498 155.414 44.0442 155.285 43.9446C155.157 43.8449 154.995 43.7492 154.799 43.6573C154.602 43.5655 154.378 43.4652 154.128 43.3564C153.884 43.2483 153.648 43.1261 153.419 42.9896C153.189 42.8531 152.989 42.6878 152.819 42.4937C152.648 42.2997 152.518 42.0725 152.429 41.8121C152.341 41.5517 152.315 41.2436 152.352 40.8878C152.398 40.4505 152.527 40.0855 152.737 39.7929C152.948 39.5003 153.208 39.2691 153.518 39.0993C153.828 38.9296 154.17 38.8175 154.543 38.763C154.916 38.7085 155.288 38.7007 155.658 38.7397C156.103 38.7864 156.548 38.9157 156.995 39.1275C157.441 39.3392 157.821 39.6228 158.136 39.9781L156.79 41.1294Z" fill="white"/>
<path fill-rule="evenodd" clip-rule="evenodd" d="M161.102 46.6662L161.93 38.7943L163.842 38.9953L163.015 46.8672L161.102 46.6662Z" fill="white"/>
<path fill-rule="evenodd" clip-rule="evenodd" d="M173.318 42.7674C173.522 42.4702 173.648 42.0919 173.696 41.6323C173.744 41.1802 173.704 40.7919 173.577 40.4676C173.45 40.1432 173.257 39.8719 172.999 39.6537C172.741 39.4355 172.43 39.2641 172.064 39.1395C171.699 39.0149 171.301 38.93 170.871 38.8849L167.98 38.5811L167.153 46.4529L169.054 46.6527L169.366 43.6841L170.311 43.7834C170.719 43.8263 171.117 43.8231 171.504 43.7739C171.891 43.7246 172.24 43.6189 172.549 43.4565C172.858 43.2942 173.115 43.0645 173.318 42.7674ZM171.73 40.9769C171.792 41.1033 171.813 41.2591 171.794 41.4445C171.774 41.6298 171.721 41.7797 171.634 41.8942C171.547 42.0087 171.435 42.0962 171.297 42.1567C171.16 42.2172 171.008 42.2537 170.842 42.2662C170.675 42.2787 170.503 42.2756 170.325 42.2569L169.525 42.1728L169.72 40.316L170.554 40.4036C170.725 40.4216 170.888 40.45 171.045 40.489C171.202 40.528 171.34 40.5874 171.459 40.6674C171.578 40.7474 171.669 40.8505 171.73 40.9769Z" fill="white"/>
<path d="M129.633 26.8183C131.682 26.8183 133.35 28.4864 133.35 30.5348H134.718C134.718 27.7324 132.436 25.4572 129.64 25.4572C126.838 25.4572 124.562 27.7391 124.562 30.5348C124.562 33.3372 126.844 35.6124 129.64 35.6124C130.02 35.6124 130.321 35.3055 130.321 34.9318C130.321 34.5515 130.014 34.2513 129.64 34.2513C127.592 34.2513 125.924 32.5832 125.924 30.5348C125.924 28.4864 127.585 26.8183 129.633 26.8183Z" fill="#C6C2F9"/>
<path d="M141.712 26.8183C143.76 26.8183 145.428 28.4864 145.428 30.5348H146.796C146.796 27.7324 144.514 25.4572 141.718 25.4572C138.916 25.4572 136.641 27.7391 136.641 30.5348C136.641 33.3372 138.923 35.6124 141.718 35.6124C142.099 35.6124 142.399 35.3055 142.399 34.9318C142.399 34.5515 142.092 34.2513 141.718 34.2513C139.67 34.2513 138.002 32.5832 138.002 30.5348C137.995 28.4864 139.663 26.8183 141.712 26.8183Z" fill="#C6C2F9"/>
<path d="M153.782 26.8183C155.83 26.8183 157.498 28.4864 157.498 30.5348H158.866C158.866 27.7324 156.584 25.4572 153.789 25.4572C150.986 25.4572 148.711 27.7391 148.711 30.5348C148.711 33.3372 150.993 35.6124 153.789 35.6124C154.169 35.6124 154.469 35.3055 154.469 34.9318C154.469 34.5515 154.162 34.2513 153.789 34.2513C151.74 34.2513 150.072 32.5832 150.072 30.5348C150.065 28.4864 151.733 26.8183 153.782 26.8183Z" fill="#C6C2F9"/>
<path d="M165.86 26.8183C167.908 26.8183 169.577 28.4864 169.577 30.5348H170.944C170.944 27.7324 168.662 25.4572 165.867 25.4572C163.064 25.4572 160.789 27.7391 160.789 30.5348C160.789 33.3372 163.071 35.6124 165.867 35.6124C166.247 35.6124 166.547 35.3055 166.547 34.9318C166.547 34.5515 166.24 34.2513 165.867 34.2513C163.818 34.2513 162.15 32.5832 162.15 30.5348C162.144 28.4864 163.812 26.8183 165.86 26.8183Z" fill="#C6C2F9"/>
<path d="M177.926 26.8183C179.975 26.8183 181.643 28.4864 181.643 30.5348H183.011C183.011 27.7324 180.729 25.4572 177.933 25.4572C175.131 25.4572 172.855 27.7391 172.855 30.5348C172.855 33.3372 175.137 35.6124 177.933 35.6124C178.313 35.6124 178.614 35.3055 178.614 34.9318C178.614 34.5515 178.307 34.2513 177.933 34.2513C175.885 34.2513 174.217 32.5832 174.217 30.5348C174.21 28.4864 175.878 26.8183 177.926 26.8183Z" fill="#C6C2F9"/>
<path d="M190.005 26.8183C192.053 26.8183 193.721 28.4864 193.721 30.5348H195.089C195.089 27.7324 192.807 25.4572 190.011 25.4572C187.209 25.4572 184.934 27.7391 184.934 30.5348C184.934 33.3372 187.216 35.6124 190.011 35.6124C190.392 35.6124 190.692 35.3055 190.692 34.9318C190.692 34.5515 190.385 34.2513 190.011 34.2513C187.963 34.2513 186.295 32.5832 186.295 30.5348C186.288 28.4864 187.956 26.8183 190.005 26.8183Z" fill="#C6C2F9"/>
<path d="M202.075 26.8183C204.123 26.8183 205.791 28.4864 205.791 30.5348H207.159C207.159 27.7324 204.877 25.4572 202.082 25.4572C199.279 25.4572 197.004 27.7391 197.004 30.5348C197.004 33.3372 199.286 35.6124 202.082 35.6124C202.462 35.6124 202.762 35.3055 202.762 34.9318C202.762 34.5515 202.455 34.2513 202.082 34.2513C200.033 34.2513 198.365 32.5832 198.365 30.5348C198.358 28.4864 200.026 26.8183 202.075 26.8183Z" fill="#C6C2F9"/>
<path fill-rule="evenodd" clip-rule="evenodd" d="M206.583 81.3603C206.568 81.6697 206.439 81.931 206.19 82.1111L205.422 82.7236C204.501 83.4652 204.121 84.6907 204.558 85.7724L204.891 86.6677C205.011 86.9532 204.962 87.2686 204.832 87.5299C204.703 87.7912 204.455 87.9713 204.155 88.0583L203.18 88.2982C202.002 88.5741 201.157 89.541 201.043 90.6855L200.934 91.6588C200.874 92.1124 200.524 92.5148 200.049 92.5987C199.913 92.6227 199.771 92.6136 199.629 92.6045L198.647 92.4028C198.284 92.3306 197.932 92.3244 197.558 92.3903C196.777 92.5282 196.053 92.9965 195.648 93.6813L195.131 94.5222C194.967 94.7895 194.719 94.9696 194.413 95.0236C194.107 95.0775 193.812 94.9933 193.573 94.8309L192.799 94.2178C192.19 93.7459 191.384 93.5472 190.602 93.6851C190.228 93.751 189.866 93.883 189.555 94.1082L188.702 94.6336C188.571 94.6906 188.435 94.7146 188.3 94.7385C187.824 94.8224 187.363 94.5969 187.152 94.1913L186.717 93.3139C186.184 92.2833 185.059 91.6639 183.863 91.8407L182.906 91.9754C182.6 92.0294 182.305 91.9451 182.06 91.7498C181.815 91.5544 181.695 91.269 181.716 90.9926L181.723 90.0373C181.729 88.8777 180.953 87.856 179.8 87.48L178.869 87.1672C178.573 87.0829 178.363 86.8815 178.242 86.5961C178.122 86.3107 178.137 86.0013 178.266 85.74L178.704 84.8449C179.221 83.7997 179 82.5439 178.123 81.7445L177.411 81.0863C177.2 80.8849 177.08 80.5995 177.095 80.29C177.111 79.9806 177.24 79.7193 177.489 79.5392L178.257 78.9267C179.177 78.1851 179.557 76.9596 179.121 75.8779L178.748 74.9555C178.628 74.6701 178.677 74.3547 178.806 74.0934C178.969 73.8261 179.184 73.6519 179.484 73.5649L180.458 73.325C181.636 73.0492 182.482 72.0822 182.596 70.9377L182.705 69.9644C182.765 69.5108 183.114 69.1085 183.59 69.0245C183.726 69.0006 183.868 69.0096 184.01 69.0187L184.992 69.2204C185.355 69.2927 185.706 69.2988 186.08 69.2329C186.862 69.0951 187.586 68.6267 187.991 67.942L188.508 67.1011C188.671 66.8338 188.92 66.6536 189.226 66.5997C189.532 66.5457 189.827 66.63 190.066 66.7923L190.84 67.4055C191.449 67.8774 192.255 68.076 193.037 67.9382C193.411 67.8722 193.773 67.7402 194.084 67.515L194.937 66.9897C195.039 66.9717 195.175 66.9477 195.311 66.9238C195.787 66.8399 196.247 67.0654 196.459 67.471L196.894 68.3484C197.426 69.379 198.552 69.9983 199.747 69.8216L200.739 69.6809C201.045 69.6269 201.34 69.7112 201.585 69.9065C201.829 70.1019 201.95 70.3874 201.929 70.6637L201.922 71.619C201.916 72.7786 202.692 73.8003 203.845 74.1763L204.776 74.4891C205.071 74.5734 205.282 74.7748 205.402 75.0602C205.523 75.3456 205.507 75.655 205.378 75.9163L204.974 76.8054C204.457 77.8506 204.679 79.1064 205.556 79.9058L206.268 80.5641C206.484 80.7985 206.565 81.0568 206.583 81.3603Z" stroke="#33CF90"/>
<path d="M190.296 72.1158C185.503 72.9608 182.29 77.5505 183.135 82.343C183.98 87.1356 188.569 90.3493 193.362 89.5042C198.154 88.6592 201.368 84.0696 200.523 79.277C199.678 74.4844 195.088 71.2707 190.296 72.1158Z" stroke="#33CF90"/>
<rect x="175.324" y="79.6456" width="32.1031" height="8.02577" transform="rotate(-10 175.324 79.6456)" fill="white"/>
<path fill-rule="evenodd" clip-rule="evenodd" d="M185.37 81.6649C185.444 82.0803 185.43 82.4523 185.329 82.7809C185.228 83.1095 185.068 83.3932 184.85 83.632C184.632 83.8707 184.373 84.0639 184.072 84.2113C183.771 84.3588 183.457 84.4613 183.131 84.5187L181.363 84.8306L180.526 80.0876L182.241 79.7852C182.576 79.7262 182.914 79.707 183.254 79.7277C183.593 79.7483 183.906 79.8267 184.193 79.9626C184.479 80.0986 184.728 80.3047 184.937 80.5808C185.147 80.857 185.292 81.2183 185.37 81.6649ZM184.177 81.8749C184.13 81.6069 184.047 81.3924 183.929 81.2313C183.811 81.0703 183.67 80.9501 183.506 80.8707C183.343 80.7914 183.164 80.7457 182.971 80.7337C182.778 80.7217 182.583 80.7331 182.386 80.7677L181.817 80.8681L182.306 83.6416L182.849 83.5459C183.054 83.5097 183.248 83.4514 183.429 83.371C183.611 83.2906 183.765 83.1841 183.891 83.0513C184.017 82.9185 184.108 82.7551 184.164 82.5611C184.219 82.3671 184.224 82.1384 184.177 81.8749ZM192.187 80.456C192.253 80.8311 192.249 81.1853 192.174 81.5185C192.099 81.8518 191.966 82.1492 191.775 82.4108C191.584 82.6724 191.341 82.8915 191.045 83.068C190.749 83.2445 190.416 83.3654 190.045 83.4308C189.674 83.4961 189.321 83.4963 188.985 83.4312C188.649 83.3661 188.346 83.2433 188.077 83.0628C187.808 82.8823 187.581 82.6483 187.397 82.3607C187.213 82.0732 187.088 81.7418 187.022 81.3667C186.955 80.987 186.959 80.6329 187.035 80.3041C187.11 79.9753 187.244 79.6835 187.436 79.4286C187.628 79.1736 187.872 78.9604 188.166 78.7887C188.461 78.6171 188.793 78.4986 189.164 78.4332C189.534 78.3679 189.889 78.3653 190.226 78.4255C190.564 78.4857 190.866 78.6027 191.134 78.7766C191.402 78.9504 191.628 79.1788 191.811 79.4619C191.995 79.745 192.12 80.0764 192.187 80.456ZM190.96 80.6722C190.924 80.4668 190.857 80.2806 190.758 80.1138C190.66 79.947 190.54 79.8104 190.399 79.7039C190.259 79.5975 190.098 79.5222 189.917 79.4781C189.737 79.4339 189.546 79.4296 189.345 79.465C189.144 79.5004 188.968 79.5696 188.815 79.6724C188.663 79.7752 188.538 79.9009 188.44 80.0494C188.342 80.198 188.276 80.3673 188.243 80.5573C188.209 80.7474 188.211 80.9452 188.247 81.1506C188.285 81.365 188.353 81.5567 188.452 81.7258C188.551 81.8948 188.671 82.0337 188.812 82.1423C188.954 82.251 189.113 82.3276 189.291 82.3721C189.47 82.4167 189.659 82.4212 189.86 82.3858C190.061 82.3504 190.238 82.2812 190.39 82.1784C190.542 82.0756 190.667 81.9488 190.765 81.798C190.863 81.6472 190.929 81.4755 190.964 81.2828C190.999 81.0901 190.998 80.8866 190.96 80.6722ZM197.496 81.9858L195.04 79.2207L195.02 79.2243L195.594 82.3213L194.482 82.5173L193.645 77.7744L194.952 77.544L197.4 80.3036L197.42 80.3L196.848 77.2098L197.96 77.0137L198.796 81.7566L197.496 81.9858ZM200.89 81.387L200.053 76.644L203.242 76.0818L203.413 77.0532L201.33 77.4205L201.487 78.3115L203.457 77.9642L203.618 78.882L201.649 79.2293L201.823 80.214L204.027 79.8254L204.199 80.8035L200.89 81.387Z" fill="#33CF90"/>
<path opacity="0.16" fill-rule="evenodd" clip-rule="evenodd" d="M124.481 111.705C132.546 111.705 136.225 111.975 139.083 109.347C141.942 106.718 140.293 103.178 136.997 102.015C133.701 100.853 116.137 99.9548 111.965 102.015C107.793 104.076 107.073 105.856 109.879 108.436C112.684 111.017 116.416 111.705 124.481 111.705Z" fill="#B39712"/>
<path opacity="0.16" fill-rule="evenodd" clip-rule="evenodd" d="M99.563 112.013C107.628 112.013 111.307 112.291 114.165 109.592C117.024 106.894 115.375 103.26 112.079 102.067C108.783 100.874 91.2188 99.9521 87.0467 102.067C82.8746 104.182 82.1549 106.01 84.9606 108.658C87.7663 111.307 91.4983 112.013 99.563 112.013Z" fill="#B39712"/>
<path fill-rule="evenodd" clip-rule="evenodd" d="M99.563 110.374C107.628 110.374 111.307 109.76 114.165 107.234C117.024 104.709 115.375 100.433 112.079 99.3158C108.783 98.1987 91.2188 97.3362 87.0467 99.3158C82.8746 101.295 82.1549 104.755 84.9606 107.234C87.7663 109.713 91.4983 110.374 99.563 110.374Z" fill="#FFBD00"/>
<path fill-rule="evenodd" clip-rule="evenodd" d="M99.459 105.565C107.186 105.565 113.449 103.607 113.449 101.193C113.449 98.7783 107.186 96.8209 99.459 96.8209C91.7324 96.8209 85.4688 98.7783 85.4688 101.193C85.4688 103.607 91.7324 105.565 99.459 105.565Z" fill="#FFF5D9"/>
<path fill-rule="evenodd" clip-rule="evenodd" d="M99.4557 105.127C106.699 105.127 112.572 103.366 112.572 101.193C112.572 99.0196 106.699 97.2579 99.4557 97.2579C92.212 97.2579 86.3398 99.0196 86.3398 101.193C86.3398 103.366 92.212 105.127 99.4557 105.127Z" fill="#FFF5D9"/>
<path fill-rule="evenodd" clip-rule="evenodd" d="M102.618 98.134L97.8476 98.3753L95.539 98.4921C95.2814 98.5051 95.0787 98.6263 95.0861 98.7627C95.0935 98.8991 95.3083 98.9991 95.5658 98.9861L97.8744 98.8693C98.5706 98.834 99.2406 98.9813 99.6666 99.2632C99.8673 99.3961 100.005 99.5475 100.084 99.7058L95.6171 99.9318C95.3596 99.9448 95.1569 100.066 95.1643 100.202C95.1717 100.339 95.3864 100.439 95.6439 100.426L100.128 100.199C100.113 100.242 100.095 100.286 100.071 100.328C99.8935 100.643 99.4646 100.888 98.8634 101.017C97.9482 101.214 96.9159 101.247 95.9164 101.279L95.7063 101.286C95.5103 101.291 95.3338 101.364 95.2662 101.464C95.1986 101.564 95.2538 101.672 95.4043 101.734L101.302 104.152C101.393 104.189 101.505 104.204 101.615 104.199C101.744 104.192 101.87 104.158 101.959 104.098C102.125 103.988 102.099 103.833 101.902 103.752L96.9794 101.734C97.7119 101.696 98.4484 101.629 99.1631 101.475C100.056 101.283 100.696 100.916 100.963 100.442C101.017 100.346 101.048 100.249 101.069 100.151L102.722 100.068C102.98 100.055 103.183 99.9335 103.175 99.7971C103.168 99.6606 102.953 99.5606 102.696 99.5737L101.037 99.6576C100.942 99.3978 100.73 99.1499 100.409 98.9371C100.31 98.8714 100.198 98.8128 100.081 98.7576L102.644 98.6279C102.902 98.6149 103.105 98.4938 103.097 98.3573C103.09 98.2209 102.875 98.1209 102.618 98.134Z" fill="#FFBD00"/>
<path fill-rule="evenodd" clip-rule="evenodd" d="M123.468 107.815C131.047 110.573 134.714 111.254 138.264 109.859C141.814 108.463 141.727 103.881 139.012 101.704C136.297 99.5274 120.087 92.7094 115.489 93.1426C110.892 93.5759 109.032 96.581 110.821 99.87C112.609 103.159 115.89 105.057 123.468 107.815Z" fill="#FFBD00"/>
<path fill-rule="evenodd" clip-rule="evenodd" d="M125.015 103.26C132.276 105.902 138.831 106.205 139.657 103.936C140.483 101.667 135.267 97.6858 128.006 95.0431C120.745 92.4005 114.19 92.0975 113.364 94.3665C112.538 96.6354 117.755 100.617 125.015 103.26Z" fill="#FFF5D9"/>
<path fill-rule="evenodd" clip-rule="evenodd" d="M125.165 102.849C131.971 105.327 138.092 105.68 138.835 103.638C139.578 101.596 134.663 97.9319 127.856 95.4544C121.049 92.9769 114.929 92.6239 114.185 94.666C113.442 96.708 118.358 100.372 125.165 102.849Z" fill="#FFF5D9"/>
<path fill-rule="evenodd" clip-rule="evenodd" d="M130.526 97.3573L125.961 95.9527L123.752 95.2728C123.506 95.197 123.274 95.2415 123.234 95.3722C123.194 95.5029 123.362 95.6703 123.608 95.7462L125.818 96.426C126.484 96.631 127.063 96.9986 127.367 97.4092C127.51 97.6027 127.588 97.7922 127.608 97.9679L123.333 96.6525C123.087 96.5766 122.855 96.6211 122.815 96.7518C122.775 96.8826 122.943 97.05 123.189 97.1258L127.48 98.4461C127.452 98.4821 127.42 98.5165 127.383 98.5484C127.108 98.7834 126.622 98.8665 126.012 98.7826C125.085 98.6549 124.104 98.333 123.153 98.0211L122.954 97.9556C122.768 97.8929 122.577 97.901 122.479 97.9723C122.381 98.0434 122.396 98.1637 122.517 98.2732L127.232 102.563C127.305 102.629 127.404 102.681 127.51 102.714C127.633 102.751 127.763 102.762 127.868 102.737C128.061 102.69 128.09 102.535 127.932 102.391L123.997 98.8115C124.698 99.0266 125.413 99.216 126.137 99.3158C127.042 99.4405 127.769 99.3141 128.182 98.9599C128.266 98.8885 128.328 98.8078 128.381 98.7233L129.963 99.2103C130.21 99.2861 130.442 99.2416 130.482 99.1109C130.521 98.9802 130.354 98.8128 130.107 98.7369L128.52 98.2484C128.52 97.9719 128.405 97.6665 128.176 97.3567C128.105 97.2609 128.02 97.1677 127.93 97.0759L130.382 97.8306C130.629 97.9065 130.861 97.862 130.901 97.7313C130.94 97.6005 130.773 97.4331 130.526 97.3573Z" fill="#FFBD00"/>
<path opacity="0.1" fill-rule="evenodd" clip-rule="evenodd" d="M105.141 105.973C108.817 105.973 112.153 105.151 114.759 104.527C117.871 103.782 120.023 103.111 121.578 101.596C124.437 98.8116 122.788 94.0985 119.492 92.8673C116.197 91.636 97.3203 92.1309 93.1482 94.313C88.9761 96.4951 88.2564 100.309 91.0622 103.041C93.8679 105.774 97.0763 105.973 105.141 105.973Z" fill="#FFDA2C"/>
<path fill-rule="evenodd" clip-rule="evenodd" d="M107.123 99.4366C114.702 96.6783 117.949 94.8426 119.771 91.4916C121.593 88.1406 118.582 84.6866 115.103 84.7642C111.623 84.8418 94.8231 90.0387 91.5796 93.3258C88.3362 96.613 88.8433 100.11 92.3277 101.48C95.812 102.85 99.545 102.195 107.123 99.4366Z" fill="#FFBD00"/>
<path fill-rule="evenodd" clip-rule="evenodd" d="M105.379 94.9536C112.64 92.311 117.856 88.3293 117.03 86.0604C116.205 83.7914 109.649 84.0944 102.389 86.737C95.1281 89.3797 89.9117 93.3613 90.7375 95.6303C91.5633 97.8992 98.1187 97.5963 105.379 94.9536Z" fill="#FFF5D9"/>
<path fill-rule="evenodd" clip-rule="evenodd" d="M105.231 94.5425C112.038 92.065 116.954 88.4012 116.21 86.3591C115.467 84.3171 109.347 84.6701 102.54 87.1475C95.7329 89.625 90.8174 93.2888 91.5606 95.3309C92.3039 97.3729 98.4244 97.0199 105.231 94.5425Z" fill="#FFF5D9"/>
<path fill-rule="evenodd" clip-rule="evenodd" d="M105.808 86.8901L101.408 88.7483L99.2791 89.6476C99.0415 89.748 98.8925 89.9311 98.9461 90.0568C98.9997 90.1824 99.2357 90.203 99.4732 90.1026L101.603 89.2033C102.245 88.9321 102.925 88.8413 103.422 88.9605C103.656 89.0167 103.837 89.1118 103.965 89.2336L99.8449 90.9738C99.6074 91.0741 99.4583 91.2573 99.5119 91.3829C99.5655 91.5086 99.8015 91.5291 100.039 91.4288L104.175 89.6821C104.176 89.7279 104.174 89.7748 104.166 89.8232C104.107 90.1795 103.787 90.556 103.267 90.8834C102.474 91.3817 101.515 91.7659 100.587 92.1377L100.392 92.2159C100.209 92.2873 100.068 92.4161 100.039 92.5337C100.01 92.6511 100.099 92.7336 100.261 92.7401L106.63 92.9952C106.729 92.9992 106.839 92.975 106.941 92.9321C107.059 92.882 107.166 92.8064 107.23 92.72C107.347 92.5594 107.27 92.4224 107.057 92.4138L101.741 92.201C102.417 91.9151 103.086 91.6006 103.705 91.2116C104.478 90.7252 104.954 90.1616 105.043 89.6243C105.061 89.5161 105.057 89.414 105.043 89.3155L106.568 88.6712C106.806 88.5709 106.955 88.3878 106.901 88.2621C106.848 88.1365 106.612 88.1159 106.374 88.2162L104.844 88.8626C104.666 88.6507 104.382 88.4902 104.008 88.4002C103.892 88.3724 103.767 88.3555 103.638 88.3436L106.002 87.3451C106.24 87.2448 106.389 87.0616 106.335 86.936C106.282 86.8103 106.046 86.7898 105.808 86.8901Z" fill="#FFBD00"/>
</g>
</svg>
