<svg id="Layer_1" data-name="Layer 1" xmlns="http://www.w3.org/2000/svg" xmlns:xlink="http://www.w3.org/1999/xlink" viewBox="0 0 362 193"><defs><style>.cls-1{fill:none;}.cls-2{clip-path:url(#clip-path);}.cls-3{fill:#cf9421;}.cls-3,.cls-6{isolation:isolate;opacity:0.4;}.cls-4{fill:url(#linear-gradient);}.cls-5{clip-path:url(#clip-path-2);}.cls-6{fill:#4f44c1;}.cls-7{fill:#fff;}.cls-8{fill:#9cccfa;}.cls-9{fill:#b9b3f9;}.cls-10{fill:#33cf90;}.cls-11{fill:#8d61ff;}.cls-12{fill:#35cb5d;}</style><clipPath id="clip-path"><rect class="cls-1" x="395.27" width="362" height="193" rx="12"/></clipPath><linearGradient id="linear-gradient" x1="-755.97" y1="-83.02" x2="-754.44" y2="-83.02" gradientTransform="matrix(124.23, 192.32, 388.25, -250.79, 126231.72, 124518.49)" gradientUnits="userSpaceOnUse"><stop offset="0" stop-color="#491dba"/><stop offset="0.33" stop-color="#4a20bd"/><stop offset="0.61" stop-color="#4d2bc8"/><stop offset="0.87" stop-color="#523dd9"/><stop offset="1" stop-color="#5548e4"/></linearGradient><clipPath id="clip-path-2"><rect class="cls-1" width="362" height="193" rx="12"/></clipPath></defs><g class="cls-2"><path class="cls-3" d="M368.06,5.9a2,2,0,0,1,3.47,0l37.71,65.32a2,2,0,0,1-1.73,3H332.08a2,2,0,0,1-1.73-3Z"/></g><rect class="cls-1" width="362" height="193" rx="12"/><rect class="cls-4" width="362" height="193" rx="12"/><g class="cls-5"><path class="cls-6" d="M-27.21,5.9a2,2,0,0,1,3.47,0L14,71.22a2,2,0,0,1-1.73,3H-63.19a2,2,0,0,1-1.73-3Z"/><path class="cls-6" d="M336.41,78.31a10,10,0,0,1,14.14,10L339.46,208.74A10,10,0,0,1,323.73,216L225,146.17a10,10,0,0,1,1.59-17.24Z"/><path class="cls-6" d="M171.6-55.71a2,2,0,0,1,3.28-1.12L251.22,9.73a2,2,0,0,1-.66,3.4L154.74,46a2,2,0,0,1-2.61-2.28Z"/></g><path class="cls-7" d="M27.18,42.15a7.29,7.29,0,0,1-2.42-5.59c0-.5,0-1.32,0-2.44s0-2,0-2.5a7.32,7.32,0,0,1,2.45-5.56,9.4,9.4,0,0,1,6.26-1.95,11.91,11.91,0,0,1,4.47.8,7.35,7.35,0,0,1,3.12,2.33,6.17,6.17,0,0,1,1.2,3.6.54.54,0,0,1-.18.42.63.63,0,0,1-.43.17h-4a.83.83,0,0,1-.57-.16,1.25,1.25,0,0,1-.33-.56,3.23,3.23,0,0,0-1.19-1.9,3.69,3.69,0,0,0-2.11-.54q-3.16,0-3.28,3.49c0,.5,0,1.27,0,2.3s0,1.82,0,2.36q.12,3.49,3.28,3.49a3.7,3.7,0,0,0,2.11-.56,3.06,3.06,0,0,0,1.19-1.88,1.08,1.08,0,0,1,.31-.57,1,1,0,0,1,.59-.15h4a.59.59,0,0,1,.43.17.54.54,0,0,1,.18.41,6.18,6.18,0,0,1-1.2,3.61,7.25,7.25,0,0,1-3.12,2.32,11.71,11.71,0,0,1-4.47.81A9.49,9.49,0,0,1,27.18,42.15Z"/><path class="cls-7" d="M45,43.6a.66.66,0,0,1-.21-.5V24.8a.66.66,0,0,1,.21-.5.73.73,0,0,1,.52-.19h3.78a.74.74,0,0,1,.52.19.66.66,0,0,1,.21.5V31a5.5,5.5,0,0,1,4.39-1.88,5.82,5.82,0,0,1,2.89.72,5,5,0,0,1,2,2.13,7.34,7.34,0,0,1,.73,3.41V43.1a.66.66,0,0,1-.21.5.73.73,0,0,1-.52.19H55.53a.68.68,0,0,1-.49-.21.66.66,0,0,1-.21-.48V35.53a2.73,2.73,0,0,0-.61-1.9A2.28,2.28,0,0,0,52.45,33a2.33,2.33,0,0,0-1.76.68,2.65,2.65,0,0,0-.64,1.9V43.1a.66.66,0,0,1-.21.5.74.74,0,0,1-.52.19H45.54A.73.73,0,0,1,45,43.6Z"/><path class="cls-7" d="M64.58,42.25a7,7,0,0,1-2-5.28v-.86A7.1,7.1,0,0,1,64.64,31a7.36,7.36,0,0,1,5.29-1.86,8.14,8.14,0,0,1,4.07.95,6.1,6.1,0,0,1,2.49,2.64,8.53,8.53,0,0,1,.83,3.81v.69a.7.7,0,0,1-.21.52.73.73,0,0,1-.52.2H67.72v.17a3.42,3.42,0,0,0,.58,2,1.87,1.87,0,0,0,1.6.76A2,2,0,0,0,71,40.59a4,4,0,0,0,.77-.68,1.39,1.39,0,0,1,.4-.35,1.46,1.46,0,0,1,.49-.07h3.67a.6.6,0,0,1,.43.16.44.44,0,0,1,.19.37,2.83,2.83,0,0,1-.83,1.69,6.45,6.45,0,0,1-2.41,1.66,9.11,9.11,0,0,1-3.74.7A7.61,7.61,0,0,1,64.58,42.25Zm7.59-7.16V35A3.22,3.22,0,0,0,71.58,33a2,2,0,0,0-1.65-.74,2,2,0,0,0-1.64.74A3.28,3.28,0,0,0,67.72,35v.06Z"/><path class="cls-7" d="M81.45,42.39a6.21,6.21,0,0,1-2.12-4.67l0-1.11,0-1.14a6.18,6.18,0,0,1,2.1-4.68,7.73,7.73,0,0,1,5.18-1.69A8.81,8.81,0,0,1,90.7,30a6.65,6.65,0,0,1,2.47,2A4.25,4.25,0,0,1,94,34.14a.59.59,0,0,1-.19.52.79.79,0,0,1-.53.2H89.55a.73.73,0,0,1-.47-.13,1.26,1.26,0,0,1-.31-.45,2.55,2.55,0,0,0-.8-1.13,2,2,0,0,0-1.24-.36c-1.44,0-2.19.94-2.24,2.82l0,1.06,0,.91a3.37,3.37,0,0,0,.58,2.12,2,2,0,0,0,1.66.68A2,2,0,0,0,88,40a2.52,2.52,0,0,0,.77-1.15,1.21,1.21,0,0,1,.31-.44.73.73,0,0,1,.47-.14h3.76a.76.76,0,0,1,.5.2A.57.57,0,0,1,94,39,4,4,0,0,1,93.26,41a6.42,6.42,0,0,1-2.45,2.12,8.7,8.7,0,0,1-4.2.92A7.68,7.68,0,0,1,81.45,42.39Z"/><path class="cls-7" d="M96.65,43.6a.66.66,0,0,1-.21-.5V24.8a.66.66,0,0,1,.21-.5.73.73,0,0,1,.52-.19h3.42a.68.68,0,0,1,.5.19.69.69,0,0,1,.2.5v9.26L105,29.85l.21-.2a1.26,1.26,0,0,1,.32-.21,1.25,1.25,0,0,1,.42-.06h4a.58.58,0,0,1,.43.18.64.64,0,0,1,0,.9l-4.93,5.37L111,42.74a.7.7,0,0,1,.19.41.62.62,0,0,1-.64.64h-4.06a1.16,1.16,0,0,1-.55-.11,2.32,2.32,0,0,1-.43-.36l-4.25-5.21v5a.69.69,0,0,1-.2.48.66.66,0,0,1-.5.21H97.17A.73.73,0,0,1,96.65,43.6Z"/><path class="cls-7" d="M120.34,42.45a6.25,6.25,0,0,1-2.06-4.62c0-.24,0-.66,0-1.25s0-1,0-1.24a6.2,6.2,0,0,1,2.11-4.59,9.55,9.55,0,0,1,10.73,0,6.17,6.17,0,0,1,2.11,4.59c0,.48.06.89.06,1.24s0,.77-.06,1.25a6.25,6.25,0,0,1-2.06,4.62,9.86,9.86,0,0,1-10.83,0Zm7.12-2.58a3.84,3.84,0,0,0,.65-2.18q0-.27,0-1.11t0-1.11a3.84,3.84,0,0,0-.65-2.16,2.38,2.38,0,0,0-3.41,0,3.92,3.92,0,0,0-.65,2.16l0,1.11,0,1.11a3.91,3.91,0,0,0,.65,2.18,2.43,2.43,0,0,0,3.41,0Z"/><path class="cls-7" d="M137.32,42.43a6.55,6.55,0,0,1-1.51-4.63V30.07a.66.66,0,0,1,.21-.5.69.69,0,0,1,.49-.19h3.72a.73.73,0,0,1,.52.19.66.66,0,0,1,.21.5v7.57c0,1.71.78,2.57,2.32,2.57a2.27,2.27,0,0,0,1.75-.67,2.71,2.71,0,0,0,.63-1.9V30.07a.63.63,0,0,1,.22-.5.72.72,0,0,1,.51-.19h3.7a.68.68,0,0,1,.5.19.69.69,0,0,1,.2.5v13a.69.69,0,0,1-.2.48.66.66,0,0,1-.5.21h-3.42a.76.76,0,0,1-.52-.19.69.69,0,0,1-.21-.5V42a5.32,5.32,0,0,1-4.64,2A5.17,5.17,0,0,1,137.32,42.43Z"/><path class="cls-7" d="M155.69,38.27V33.15h-2.21a.72.72,0,0,1-.7-.7V30.07a.66.66,0,0,1,.21-.5.69.69,0,0,1,.49-.19h2.21V24.8a.66.66,0,0,1,.21-.5.69.69,0,0,1,.49-.19h3.44a.69.69,0,0,1,.51.19.68.68,0,0,1,.19.5v4.58H164a.73.73,0,0,1,.52.19.66.66,0,0,1,.21.5v2.38a.64.64,0,0,1-.21.5.73.73,0,0,1-.52.2h-3.5v4.71a2.46,2.46,0,0,0,.37,1.47,1.35,1.35,0,0,0,1.17.5h2.22a.69.69,0,0,1,.5.2.73.73,0,0,1,.19.52V43.1a.68.68,0,0,1-.19.48.66.66,0,0,1-.5.21h-2.66Q155.69,43.79,155.69,38.27Z"/><path class="cls-7" d="M29.87,75.6a.66.66,0,0,1-.21-.5V60.9H24.73a.72.72,0,0,1-.51-.19.64.64,0,0,1-.21-.5v-3.1a.7.7,0,0,1,.21-.52.73.73,0,0,1,.51-.2H39.94a.75.75,0,0,1,.52.2.7.7,0,0,1,.21.52v3.1a.64.64,0,0,1-.21.5.74.74,0,0,1-.52.19H35V75.1a.66.66,0,0,1-.21.5.73.73,0,0,1-.52.19H30.39A.73.73,0,0,1,29.87,75.6Z"/><path class="cls-7" d="M41.94,74.45a6.29,6.29,0,0,1-2.06-4.62c0-.24,0-.66,0-1.25s0-1,0-1.24A6.21,6.21,0,0,1,42,62.75a8,8,0,0,1,5.36-1.65,8,8,0,0,1,5.36,1.65,6.21,6.21,0,0,1,2.12,4.59c0,.48,0,.89,0,1.24s0,.77,0,1.25a6.29,6.29,0,0,1-2.06,4.62,8.1,8.1,0,0,1-5.42,1.62A8.1,8.1,0,0,1,41.94,74.45Zm7.13-2.58a3.92,3.92,0,0,0,.64-2.18q0-.27,0-1.11t0-1.11a3.93,3.93,0,0,0-.64-2.16,2,2,0,0,0-1.71-.72,2,2,0,0,0-1.71.72A3.85,3.85,0,0,0,45,67.47l0,1.11,0,1.11a3.84,3.84,0,0,0,.64,2.18,2,2,0,0,0,1.71.7A2.07,2.07,0,0,0,49.07,71.87Z"/><path class="cls-7" d="M57.76,80.86a.64.64,0,0,1-.21-.5V62.07a.66.66,0,0,1,.21-.5.73.73,0,0,1,.52-.19h3.33a.66.66,0,0,1,.5.19.69.69,0,0,1,.2.5v1a5.14,5.14,0,0,1,4.34-2,5.54,5.54,0,0,1,4.27,1.68,7.17,7.17,0,0,1,1.67,4.78c0,.24,0,.58,0,1s0,.8,0,1.06a7.22,7.22,0,0,1-1.68,4.71,5.51,5.51,0,0,1-4.26,1.72,4.71,4.71,0,0,1-4.06-1.83v6.12a.68.68,0,0,1-.7.7H58.28A.73.73,0,0,1,57.76,80.86Zm9.07-9.38a3.68,3.68,0,0,0,.63-2c0-.18,0-.47,0-.86s0-.67,0-.86a3.65,3.65,0,0,0-.63-2A2.09,2.09,0,0,0,65,65a2.16,2.16,0,0,0-1.8.76,3.37,3.37,0,0,0-.64,1.93q0,.36,0,1c0,.45,0,.79,0,1a2.93,2.93,0,0,0,.66,1.79,2.2,2.2,0,0,0,1.78.7A2.08,2.08,0,0,0,66.83,71.48Z"/><path class="cls-7" d="M84.29,75.29a6.72,6.72,0,0,1-2.88-2.05,4.73,4.73,0,0,1-1-2.77.54.54,0,0,1,.18-.42.63.63,0,0,1,.44-.16h3.72a1.12,1.12,0,0,1,.55.11,1.79,1.79,0,0,1,.46.38,2.79,2.79,0,0,0,1.13,1.1,4.21,4.21,0,0,0,2.06.43,4.72,4.72,0,0,0,2.32-.46,1.38,1.38,0,0,0,.82-1.26,1.23,1.23,0,0,0-.42-1,3.67,3.67,0,0,0-1.35-.66c-.61-.19-1.5-.41-2.66-.65a11.68,11.68,0,0,1-5.07-2A4.7,4.7,0,0,1,80.87,62a5.16,5.16,0,0,1,1-3.06,6.24,6.24,0,0,1,2.74-2.09,10.6,10.6,0,0,1,4.13-.75A10,10,0,0,1,93,57a7.41,7.41,0,0,1,2.78,2.11,4.49,4.49,0,0,1,1,2.48.61.61,0,0,1-.17.43.54.54,0,0,1-.42.18H92.27a1.06,1.06,0,0,1-1-.5,1.7,1.7,0,0,0-.87-1,4.11,4.11,0,0,0-3.56,0,1.37,1.37,0,0,0-.64,1.22,1.39,1.39,0,0,0,.84,1.26,12.45,12.45,0,0,0,3.14.93,18.33,18.33,0,0,1,4.18,1.18,5.27,5.27,0,0,1,2.3,1.83,5.61,5.61,0,0,1-.35,6.11,6.8,6.8,0,0,1-3,2.12,12.33,12.33,0,0,1-4.42.74A12.19,12.19,0,0,1,84.29,75.29Z"/><path class="cls-7" d="M101.54,70.27V65.15H99.33a.72.72,0,0,1-.7-.7V62.07a.66.66,0,0,1,.21-.5.69.69,0,0,1,.49-.19h2.21V56.8a.66.66,0,0,1,.21-.5.69.69,0,0,1,.49-.19h3.44a.69.69,0,0,1,.51.19.68.68,0,0,1,.19.5v4.58h3.5a.73.73,0,0,1,.52.19.66.66,0,0,1,.21.5v2.38a.64.64,0,0,1-.21.5.73.73,0,0,1-.52.2h-3.5v4.71a2.46,2.46,0,0,0,.37,1.47,1.35,1.35,0,0,0,1.17.5h2.21a.69.69,0,0,1,.51.2.73.73,0,0,1,.19.52V75.1a.68.68,0,0,1-.19.48.66.66,0,0,1-.51.21h-2.66Q101.54,75.79,101.54,70.27Z"/><path class="cls-7" d="M114.68,74.45a6.25,6.25,0,0,1-2.05-4.62c0-.24,0-.66,0-1.25s0-1,0-1.24a6.17,6.17,0,0,1,2.11-4.59,9.53,9.53,0,0,1,10.72,0,6.17,6.17,0,0,1,2.12,4.59c0,.48,0,.89,0,1.24s0,.77,0,1.25a6.25,6.25,0,0,1-2.06,4.62,9.88,9.88,0,0,1-10.84,0Zm7.13-2.58a3.84,3.84,0,0,0,.64-2.18q0-.27,0-1.11t0-1.11a3.85,3.85,0,0,0-.64-2.16,2,2,0,0,0-1.71-.72,2,2,0,0,0-1.71.72,3.93,3.93,0,0,0-.64,2.16l0,1.11,0,1.11a3.92,3.92,0,0,0,.64,2.18,2.07,2.07,0,0,0,1.71.7A2,2,0,0,0,121.81,71.87Z"/><path class="cls-7" d="M131.9,74.39a6.2,6.2,0,0,1-2.11-4.67l0-1.11,0-1.14a6.11,6.11,0,0,1,2.1-4.68,7.71,7.71,0,0,1,5.18-1.69,8.84,8.84,0,0,1,4.09.86,6.53,6.53,0,0,1,2.46,2,4.37,4.37,0,0,1,.87,2.14.6.6,0,0,1-.2.52.78.78,0,0,1-.53.2H140a.76.76,0,0,1-.48-.13,1.25,1.25,0,0,1-.3-.45,2.63,2.63,0,0,0-.8-1.13,2.06,2.06,0,0,0-1.25-.36c-1.44,0-2.18.94-2.24,2.82l0,1.06,0,.91a3.44,3.44,0,0,0,.59,2.12,2,2,0,0,0,1.65.68,2,2,0,0,0,1.28-.35,2.6,2.6,0,0,0,.77-1.15,1.2,1.2,0,0,1,.3-.44.76.76,0,0,1,.48-.14h3.75a.76.76,0,0,1,.51.2.6.6,0,0,1,.22.47,4.06,4.06,0,0,1-.77,2.06,6.42,6.42,0,0,1-2.45,2.12,8.7,8.7,0,0,1-4.2.92A7.71,7.71,0,0,1,131.9,74.39Z"/><path class="cls-7" d="M147.11,75.6a.66.66,0,0,1-.21-.5V56.8a.66.66,0,0,1,.21-.5.73.73,0,0,1,.52-.19H151a.7.7,0,0,1,.51.19.68.68,0,0,1,.19.5v9.26l3.73-4.21a2.24,2.24,0,0,1,.21-.2,1.26,1.26,0,0,1,.32-.21,1.25,1.25,0,0,1,.42-.06h4a.6.6,0,0,1,.43.18.64.64,0,0,1,0,.9l-4.93,5.37,5.62,6.91a.67.67,0,0,1,.2.41.62.62,0,0,1-.18.46.63.63,0,0,1-.46.18H157a1.11,1.11,0,0,1-.55-.11,2.32,2.32,0,0,1-.43-.36l-4.26-5.21v5a.68.68,0,0,1-.7.69h-3.41A.73.73,0,0,1,147.11,75.6Z"/><path class="cls-7" d="M165.41,75.43a5.93,5.93,0,0,1-2.29-1.52,2.68,2.68,0,0,1-.74-1.61.57.57,0,0,1,.21-.46.7.7,0,0,1,.46-.18h3.39a.39.39,0,0,1,.28.11,3.81,3.81,0,0,1,.53.36,5.86,5.86,0,0,0,1,.6,2.63,2.63,0,0,0,1.1.21,2.36,2.36,0,0,0,1.25-.3.89.89,0,0,0,.49-.81,1,1,0,0,0-.27-.72,2.61,2.61,0,0,0-1-.55,17.71,17.71,0,0,0-2.26-.54q-4.84-1-4.84-4.43a3.67,3.67,0,0,1,.74-2.18,5.1,5.1,0,0,1,2.18-1.67,8.45,8.45,0,0,1,3.46-.64,9.3,9.3,0,0,1,3.54.62,6.41,6.41,0,0,1,2.29,1.5,2.51,2.51,0,0,1,.78,1.59.64.64,0,0,1-.18.45.58.58,0,0,1-.44.19H172a.65.65,0,0,1-.39-.11,4.11,4.11,0,0,1-.67-.42,8.26,8.26,0,0,0-.88-.51,2.27,2.27,0,0,0-1-.18,1.68,1.68,0,0,0-1.09.31.93.93,0,0,0-.39.77,1,1,0,0,0,.24.68,2.21,2.21,0,0,0,1,.51,15.85,15.85,0,0,0,2.25.53,7.41,7.41,0,0,1,4,1.68,3.83,3.83,0,0,1-.62,6.12,9.33,9.33,0,0,1-5.22,1.24A10.11,10.11,0,0,1,165.41,75.43Z"/><path class="cls-8" d="M25.69,106.58a3.41,3.41,0,0,1-.9-2.32v-1.21a3.33,3.33,0,0,1,.92-2.32,3.2,3.2,0,0,1,2.39-.87,3.23,3.23,0,0,1,2.4.87,3.32,3.32,0,0,1,.91,2.32c0,.21,0,.41,0,.61s0,.39,0,.6a3.32,3.32,0,0,1-.9,2.32,3.2,3.2,0,0,1-2.41.88A3.23,3.23,0,0,1,25.69,106.58Zm3.86-.75a2.51,2.51,0,0,0,.57-1.64c0-.09,0-.27,0-.53s0-.45,0-.54a2.51,2.51,0,0,0-.57-1.64,2.12,2.12,0,0,0-2.89,0,2.46,2.46,0,0,0-.58,1.64v1.07a2.46,2.46,0,0,0,.58,1.64,2.12,2.12,0,0,0,2.89,0Z"/><path class="cls-8" d="M34,107.22a.32.32,0,0,1-.09-.23v-5.91H32.67a.36.36,0,0,1-.24-.08.32.32,0,0,1-.09-.23v-.45a.32.32,0,0,1,.09-.23.32.32,0,0,1,.24-.09h1.22v-.71a2.5,2.5,0,0,1,.56-1.76,2.35,2.35,0,0,1,1.84-.63h.84a.32.32,0,0,1,.23.09.33.33,0,0,1,.1.23v.45a.31.31,0,0,1-.33.31h-.81a1.09,1.09,0,0,0-.91.34,1.73,1.73,0,0,0-.26,1V100H37a.31.31,0,0,1,.32.32v.45a.32.32,0,0,1-.09.23.36.36,0,0,1-.23.08H35.15V107a.31.31,0,0,1-.32.32h-.62A.32.32,0,0,1,34,107.22Z"/><path class="cls-8" d="M42.1,104.85v-3.77H41a.28.28,0,0,1-.31-.31v-.45a.36.36,0,0,1,.08-.23A.32.32,0,0,1,41,100H42.1V97.65a.34.34,0,0,1,.09-.24.3.3,0,0,1,.23-.09H43a.32.32,0,0,1,.24.09.34.34,0,0,1,.09.24V100h1.76a.34.34,0,0,1,.24.09.32.32,0,0,1,.09.23v.45a.32.32,0,0,1-.09.23.38.38,0,0,1-.24.08H43.37v3.67a2.13,2.13,0,0,0,.23,1.09.9.9,0,0,0,.81.36h.86a.3.3,0,0,1,.23.09.34.34,0,0,1,.09.24V107a.32.32,0,0,1-.09.23.3.3,0,0,1-.23.09h-1C42.84,107.31,42.1,106.49,42.1,104.85Z"/><path class="cls-8" d="M47.09,107.22A.29.29,0,0,1,47,107V97.65a.27.27,0,0,1,.1-.24.32.32,0,0,1,.23-.09H48a.33.33,0,0,1,.25.09.33.33,0,0,1,.08.24v3.28a2.83,2.83,0,0,1,1-.8,3.22,3.22,0,0,1,1.39-.27,2.68,2.68,0,0,1,2.13.86,3.38,3.38,0,0,1,.76,2.29v4a.29.29,0,0,1-.1.23.32.32,0,0,1-.23.09h-.67a.32.32,0,0,1-.23-.09.29.29,0,0,1-.1-.23v-3.9a2.29,2.29,0,0,0-.49-1.57,1.8,1.8,0,0,0-1.44-.57,1.9,1.9,0,0,0-1.45.57,2.2,2.2,0,0,0-.54,1.57V107a.32.32,0,0,1-.09.23.32.32,0,0,1-.24.09h-.65A.32.32,0,0,1,47.09,107.22Z"/><path class="cls-8" d="M56.22,106.56a3.61,3.61,0,0,1-.95-2.44l0-.48,0-.46a3.59,3.59,0,0,1,.95-2.42,3.07,3.07,0,0,1,2.32-.9,3,3,0,0,1,2.42,1,4,4,0,0,1,.86,2.67v.26a.32.32,0,0,1-.09.23.32.32,0,0,1-.24.09H56.56v.13a2.6,2.6,0,0,0,.57,1.56,1.7,1.7,0,0,0,1.39.65,2.07,2.07,0,0,0,1.09-.26,2.51,2.51,0,0,0,.63-.54.81.81,0,0,1,.2-.21.7.7,0,0,1,.24,0h.63a.34.34,0,0,1,.22.07.2.2,0,0,1,.09.18,1.29,1.29,0,0,1-.38.75,3.17,3.17,0,0,1-1.09.75,3.92,3.92,0,0,1-1.61.32A3.07,3.07,0,0,1,56.22,106.56Zm4.31-3.43v0a2.35,2.35,0,0,0-.54-1.6,1.85,1.85,0,0,0-1.45-.62,1.8,1.8,0,0,0-1.45.62,2.34,2.34,0,0,0-.53,1.6v0Z"/><path class="cls-7" d="M68,107l-2-6.53a.37.37,0,0,1,0-.12.29.29,0,0,1,.09-.22.29.29,0,0,1,.21-.09h1.08a.36.36,0,0,1,.25.08.44.44,0,0,1,.14.18l1.37,4.63,1.47-4.58a.48.48,0,0,1,.15-.22.4.4,0,0,1,.27-.09h.73a.43.43,0,0,1,.28.09.38.38,0,0,1,.13.22l1.48,4.58,1.38-4.63a.41.41,0,0,1,.13-.18.34.34,0,0,1,.25-.08h1.07a.31.31,0,0,1,.31.31l0,.12-2,6.53a.55.55,0,0,1-.16.26.44.44,0,0,1-.29.09h-.94a.44.44,0,0,1-.47-.35l-1.46-4.42L69.84,107a.47.47,0,0,1-.49.35h-.92A.45.45,0,0,1,68,107Z"/><path class="cls-7" d="M78.54,106.55a3.54,3.54,0,0,1-1-2.56l0-.35a3.93,3.93,0,0,1,.93-2.77,3.84,3.84,0,0,1,5.19,0,3.88,3.88,0,0,1,.92,2.7v.3a.37.37,0,0,1-.1.24.37.37,0,0,1-.26.09H79.5v.12a2.18,2.18,0,0,0,.44,1.3,1.34,1.34,0,0,0,1.11.51,1.6,1.6,0,0,0,1.32-.64.9.9,0,0,1,.2-.2.7.7,0,0,1,.24,0h1.26a.36.36,0,0,1,.22.07.24.24,0,0,1,.09.2,1.31,1.31,0,0,1-.41.79,3.29,3.29,0,0,1-1.16.8,4.29,4.29,0,0,1-1.74.34A3.44,3.44,0,0,1,78.54,106.55ZM82.62,103v0a2,2,0,0,0-.42-1.33,1.44,1.44,0,0,0-1.15-.5,1.42,1.42,0,0,0-1.14.5A2.05,2.05,0,0,0,79.5,103v0Z"/><path class="cls-7" d="M86.76,106.55a3.58,3.58,0,0,1-1-2.56v-.35a3.93,3.93,0,0,1,.93-2.77,3.84,3.84,0,0,1,5.19,0,3.87,3.87,0,0,1,.91,2.7v.3a.33.33,0,0,1-.1.24.35.35,0,0,1-.25.09H87.72v.12a2.18,2.18,0,0,0,.43,1.3,1.35,1.35,0,0,0,1.12.51,1.6,1.6,0,0,0,1.32-.64.9.9,0,0,1,.2-.2.7.7,0,0,1,.24,0h1.25a.32.32,0,0,1,.22.07.24.24,0,0,1,.09.2,1.28,1.28,0,0,1-.4.79,3.39,3.39,0,0,1-1.16.8,4.33,4.33,0,0,1-1.75.34A3.43,3.43,0,0,1,86.76,106.55ZM90.83,103v0a2,2,0,0,0-.42-1.33,1.42,1.42,0,0,0-1.14-.5,1.39,1.39,0,0,0-1.14.5,2.05,2.05,0,0,0-.41,1.33v0Z"/><path class="cls-7" d="M94.41,107.22a.37.37,0,0,1-.1-.24V97.66a.37.37,0,0,1,.1-.25.36.36,0,0,1,.24-.09h1.18a.37.37,0,0,1,.25.1.37.37,0,0,1,.1.24v4.81l2.36-2.23.13-.11a.58.58,0,0,1,.18-.11l.21,0h1.35a.3.3,0,0,1,.23.08.3.3,0,0,1,.09.23.34.34,0,0,1-.15.25l-2.9,2.72,3.26,3.49a.37.37,0,0,1,.13.23.3.3,0,0,1-.09.23.28.28,0,0,1-.21.08H99.39a.71.71,0,0,1-.29,0,2.12,2.12,0,0,1-.24-.19l-2.68-2.83V107a.33.33,0,0,1-.35.33H94.65A.36.36,0,0,1,94.41,107.22Z"/><polygon class="cls-9" points="266.9 147.28 287.25 147.28 287.25 143.94 270.24 143.94 266.9 147.28"/><polygon class="cls-10" points="291.43 132.19 288.09 135.53 308.43 135.53 305.1 132.19 291.43 132.19"/><polygon class="cls-9" points="326.28 150.62 309.27 150.62 309.27 153.96 329.62 153.96 326.28 150.62"/><path class="cls-10" d="M288.09,168.47h20.34v-32.1H288.09Zm10.77-24.35h.29v5.7h1.53c0,.12,0,.23,0,.33s0,.2,0,.3,0,.22,0,.32,0,.21,0,.33h-4.56c0-.12,0-.23,0-.33s0-.2,0-.32,0-.2,0-.3,0-.21,0-.33h1.55v-3.74l-1.31.53a2.92,2.92,0,0,1-.34-.55,3.1,3.1,0,0,1-.23-.6Z"/><path class="cls-9" d="M266.9,168.47h20.35V148.12H266.9ZM277.09,153a1.42,1.42,0,0,0-.88-.24l-.41,0a1.86,1.86,0,0,0-.34.06l-.31.1-.33.14c-.09-.2-.17-.41-.24-.61a2.34,2.34,0,0,1-.12-.63l.47-.18.45-.13.46-.07a4.44,4.44,0,0,1,.55,0,4.32,4.32,0,0,1,1.05.12,2.54,2.54,0,0,1,.83.38,1.88,1.88,0,0,1,.54.65,2,2,0,0,1,.19.91,2.55,2.55,0,0,1-.11.74,3.28,3.28,0,0,1-.3.7,7.55,7.55,0,0,1-.45.72l-.58.79-.57.76h2.28a3.52,3.52,0,0,1,.06.63,3.74,3.74,0,0,1-.06.68h-4.89l-.07-.17,1.56-2,.65-.84c.19-.24.35-.46.49-.67a3.47,3.47,0,0,0,.3-.56,1.66,1.66,0,0,0,.1-.53A.85.85,0,0,0,277.09,153Z"/><path class="cls-9" d="M309.27,168.47h20.35V154.8H309.27Zm7.39-4.33a2.44,2.44,0,0,1,.25-.59c.27.09.52.16.76.22a4.1,4.1,0,0,0,.83.08,2.32,2.32,0,0,0,.65-.08,1.51,1.51,0,0,0,.53-.24,1.35,1.35,0,0,0,.35-.43,1.29,1.29,0,0,0,.14-.62.88.88,0,0,0-.12-.46,1.08,1.08,0,0,0-.31-.33,1.51,1.51,0,0,0-.45-.18,2.33,2.33,0,0,0-.53-.06h-.38a2.2,2.2,0,0,0-.37.06l-.11-.16,1.43-2.58H317a3.55,3.55,0,0,1-.06-.64,3.71,3.71,0,0,1,.06-.67h4.47l.11.18-1.73,2.86h.05a1.65,1.65,0,0,1,.75.16,1.73,1.73,0,0,1,.57.42,1.89,1.89,0,0,1,.35.6,2.1,2.1,0,0,1,.12.7,3,3,0,0,1-.23,1.2,2.58,2.58,0,0,1-.65.87,2.92,2.92,0,0,1-1,.52,4,4,0,0,1-1.23.17H318a3.5,3.5,0,0,1-.48-.06,3.84,3.84,0,0,1-.46-.11l-.53-.17A3.08,3.08,0,0,1,316.66,164.14Z"/><path class="cls-11" d="M314.62,117c-.71-4.73-3.57-7.87-6.46-10.56,1.13-.42.84-1.63,1.42-2.59-1.72-.75-2.63.26-3.76,1.12,2.47-5.28-6.57-.76-5.2-6.08-1.77,3.09-.14,4.17,1.54,4.8,1.1.41,1.33,1.08,0,1.53-3.86,1.34-5.45,2-5.45,2-.3,1.71.58,1.84.48,3.12a30.44,30.44,0,0,1,3.62,1.21,14.62,14.62,0,0,1,5.68,4.91A14.57,14.57,0,0,0,301,112.8a10.89,10.89,0,0,1-3.81,4.92c.51.38,1.09.7,1.59,1.09,3.22-2.27,5.11,2.79,8.33,1.82-3.22,3.55-8.85,1.48-11.92-1.27C293,121,286,123.57,285,119.77c-.78-3,3.06-4.74,7.1-3,4.54,1.93,7.63,7.12,13.9,4.4-2.91.5-4.27-3.57-7-1.46-3.16-1.57-8.33-6.71-13.41-3.85-3.65,2.06-1.68,8.1,3.73,7.16-2,3-2.49,8.33.18,11.07-1.2-8.26,12.66-10.65,16.67-6a6,6,0,0,1,.34,6C310.75,131,315.81,124.9,314.62,117Z"/><path class="cls-10" d="M295.22,119.35s-6.65,4.13-9.65,1.45A2.53,2.53,0,0,1,286,117c1-.58,3.44-2,8.56,1.26a30.51,30.51,0,0,0,5.11,3.21c1.31.43,2.88,1.16,6.34-.29a4.44,4.44,0,0,1-2.68-.73c-.85-.6-2.4-2.19-4.33-.8-1.38-.83-6.46-4.07-7.94-4.31a7.92,7.92,0,0,0-4.73.14,3.87,3.87,0,0,0-2.65,4c.14,1.34,1.34,4.51,5.61,3.66a65,65,0,0,0,7.7-2.39Z"/><rect class="cls-7" x="23.95" y="132" width="141.22" height="37" rx="10"/><path class="cls-12" d="M40.09,155.84a.37.37,0,0,1-.12-.27V145.15a.42.42,0,0,1,.11-.29.38.38,0,0,1,.28-.11h7a.4.4,0,0,1,.29.11.38.38,0,0,1,.11.29v1.07a.34.34,0,0,1-.11.28.4.4,0,0,1-.29.11H42.17v2.8h4.89a.38.38,0,0,1,.29.11.4.4,0,0,1,.11.29v1a.38.38,0,0,1-.11.28.42.42,0,0,1-.29.11H42.17v2.89h5.37a.4.4,0,0,1,.29.11.38.38,0,0,1,.11.28v1.09a.36.36,0,0,1-.4.38H40.36A.37.37,0,0,1,40.09,155.84Z"/><path class="cls-12" d="M49.07,155.85a.3.3,0,0,1-.1-.24.55.55,0,0,1,.06-.19l3.57-5.18-3.35-5a.38.38,0,0,1-.06-.19.3.3,0,0,1,.1-.24.33.33,0,0,1,.24-.1h1.68a.59.59,0,0,1,.49.3L54,148.48l2.35-3.43a.55.55,0,0,1,.5-.3h1.58a.32.32,0,0,1,.23.1.3.3,0,0,1,.11.24.64.64,0,0,1-.07.19l-3.34,5L59,155.42a.49.49,0,0,1,.05.19.34.34,0,0,1-.34.34H57a.59.59,0,0,1-.49-.29L54,152.06l-2.5,3.6A.6.6,0,0,1,51,156H49.3A.32.32,0,0,1,49.07,155.85Z"/><path class="cls-12" d="M60.66,155.84a.4.4,0,0,1-.11-.27V145.15a.41.41,0,0,1,.1-.29.39.39,0,0,1,.28-.11h4.29a4.63,4.63,0,0,1,3,.91,3.24,3.24,0,0,1,1.11,2.66,3.14,3.14,0,0,1-1.11,2.61,4.69,4.69,0,0,1-3,.89H62.87v3.75a.39.39,0,0,1-.11.28.41.41,0,0,1-.29.1H60.93A.4.4,0,0,1,60.66,155.84ZM65.14,150a2.08,2.08,0,0,0,1.42-.44,1.66,1.66,0,0,0,.49-1.29,1.71,1.71,0,0,0-.48-1.29,2,2,0,0,0-1.43-.47h-2.3V150Z"/><path class="cls-12" d="M71.22,155.84a.4.4,0,0,1-.11-.27V145.13a.36.36,0,0,1,.38-.38H73a.35.35,0,0,1,.38.38V154h5.07a.4.4,0,0,1,.29.11.36.36,0,0,1,.11.27v1.16a.36.36,0,0,1-.11.27.4.4,0,0,1-.29.11h-7A.4.4,0,0,1,71.22,155.84Z"/><path class="cls-12" d="M81.17,155a4.43,4.43,0,0,1-1.28-3.28c0-.31,0-.77,0-1.36s0-1.07,0-1.38a4.36,4.36,0,0,1,1.32-3.26,5.55,5.55,0,0,1,6.74,0A4.32,4.32,0,0,1,89.27,149q0,.93,0,1.38c0,.28,0,.74,0,1.36A4.36,4.36,0,0,1,88,155a5.82,5.82,0,0,1-6.81,0Zm5.11-1.4a2.87,2.87,0,0,0,.67-2c0-.64,0-1.08,0-1.3s0-.68,0-1.3a2.84,2.84,0,0,0-.69-2,2.24,2.24,0,0,0-1.68-.64,2.26,2.26,0,0,0-1.69.64,2.84,2.84,0,0,0-.68,2c0,.31,0,.75,0,1.3s0,1,0,1.3a2.88,2.88,0,0,0,.67,2,2.58,2.58,0,0,0,3.4,0Z"/><path class="cls-12" d="M91.49,155.84a.4.4,0,0,1-.11-.27V145.15a.46.46,0,0,1,.1-.29.39.39,0,0,1,.28-.11h4.15a4.71,4.71,0,0,1,3.08.91,3.16,3.16,0,0,1,1.11,2.59,3.31,3.31,0,0,1-.56,2A3.14,3.14,0,0,1,98,151.36l2.32,4.08a.33.33,0,0,1-.05.41.32.32,0,0,1-.23.1H98.53a.62.62,0,0,1-.4-.12,1.13,1.13,0,0,1-.25-.31l-2-3.79H93.64v3.84a.37.37,0,0,1-.12.27.39.39,0,0,1-.28.11H91.76A.4.4,0,0,1,91.49,155.84Zm4.37-5.94a2.13,2.13,0,0,0,1.44-.42,1.58,1.58,0,0,0,.48-1.24A1.61,1.61,0,0,0,97.3,147a2.08,2.08,0,0,0-1.44-.44H93.64v3.36Z"/><path class="cls-12" d="M102.28,155.84a.36.36,0,0,1-.11-.27V145.15a.41.41,0,0,1,.1-.29.38.38,0,0,1,.28-.11h7.06a.39.39,0,0,1,.28.11.38.38,0,0,1,.12.29v1.07a.35.35,0,0,1-.12.28.39.39,0,0,1-.28.11h-5.25v2.8h4.89a.38.38,0,0,1,.4.4v1a.34.34,0,0,1-.11.28.4.4,0,0,1-.29.11h-4.89v2.89h5.37a.4.4,0,0,1,.29.11.34.34,0,0,1,.11.28v1.09a.36.36,0,0,1-.11.28.39.39,0,0,1-.29.1h-7.18A.37.37,0,0,1,102.28,155.84Z"/><path class="cls-12" d="M115.89,155.84a.4.4,0,0,1-.11-.27V145.15a.46.46,0,0,1,.1-.29.4.4,0,0,1,.29-.11h1.24a.51.51,0,0,1,.47.27l4.57,7.11v-7a.42.42,0,0,1,.11-.29.38.38,0,0,1,.28-.11h1.37a.4.4,0,0,1,.29.11.38.38,0,0,1,.11.29v10.4a.38.38,0,0,1-.11.29.37.37,0,0,1-.27.11H123a.51.51,0,0,1-.48-.27l-4.56-7v6.84a.4.4,0,0,1-.11.27.38.38,0,0,1-.28.11h-1.37A.41.41,0,0,1,115.89,155.84Z"/><path class="cls-12" d="M128,155a4.4,4.4,0,0,1-1.29-3.28c0-.31,0-.77,0-1.36s0-1.07,0-1.38a4.4,4.4,0,0,1,1.32-3.26,5.55,5.55,0,0,1,6.74,0A4.32,4.32,0,0,1,136.1,149q0,.93,0,1.38c0,.28,0,.74,0,1.36a4.36,4.36,0,0,1-1.29,3.28,5.8,5.8,0,0,1-6.8,0Zm5.1-1.4a2.87,2.87,0,0,0,.67-2c0-.64,0-1.08,0-1.3s0-.68,0-1.3a2.84,2.84,0,0,0-.69-2,2.24,2.24,0,0,0-1.68-.64,2.26,2.26,0,0,0-1.69.64,2.79,2.79,0,0,0-.67,2c0,.31,0,.75,0,1.3s0,1,0,1.3a2.83,2.83,0,0,0,.66,2,2.58,2.58,0,0,0,3.4,0Z"/><path class="cls-12" d="M139.35,155.47l-1.89-10.26,0-.12a.33.33,0,0,1,.1-.24.3.3,0,0,1,.24-.1h1.44a.47.47,0,0,1,.3.07.36.36,0,0,1,.13.25l1.33,7.2,1.42-4.64a.55.55,0,0,1,.53-.4h.88a.49.49,0,0,1,.34.12.62.62,0,0,1,.17.28l1.44,4.64,1.32-7.2c0-.21.18-.32.44-.32H149a.3.3,0,0,1,.23.1.32.32,0,0,1,.09.24.41.41,0,0,1,0,.12l-1.89,10.26a.52.52,0,0,1-.18.35.6.6,0,0,1-.4.13h-1.08a.55.55,0,0,1-.37-.12.52.52,0,0,1-.19-.28l-1.8-5.31-1.79,5.31a.53.53,0,0,1-.56.4h-1.09A.54.54,0,0,1,139.35,155.47Z"/></svg>