<svg width="171" height="40" viewBox="0 0 171 40" fill="none" xmlns="http://www.w3.org/2000/svg">
<path d="M1.5569 0H38.4424C38.8555 0 39.2516 0.164078 39.5436 0.456138C39.8357 0.748198 39.9998 1.14432 39.9998 1.55735V38.4426C39.9998 38.8557 39.8357 39.2518 39.5436 39.5439C39.2516 39.8359 38.8555 40 38.4424 40H1.5569C1.35243 40 1.14996 39.9597 0.96105 39.8815C0.772144 39.8032 0.600503 39.6885 0.455928 39.5439C0.311353 39.3993 0.196675 39.2277 0.118447 39.0387C0.0402181 38.8498 -2.9464e-05 38.6473 1.61832e-08 38.4429V1.55443C0.000654194 1.14195 0.164972 0.746575 0.456877 0.455133C0.748782 0.163691 1.14441 -5.18739e-07 1.5569 0V0Z" fill="white"/>
<path d="M10.5594 15.2923L6.13735 19.7428C5.58108 20.3077 4.84399 20.6591 4.05489 20.7357C3.2658 20.8122 2.47489 20.609 1.8204 20.1616L6.50929 24.8909C6.82287 25.2046 7.19516 25.4533 7.60489 25.6231C8.01463 25.7928 8.45379 25.8802 8.89729 25.8802C9.34079 25.8802 9.77994 25.7928 10.1897 25.6231C10.5994 25.4533 10.9717 25.2046 11.2853 24.8909V24.8909L15.7073 20.4407C16.26 19.8828 16.9893 19.5343 17.7706 19.4549C18.5519 19.3755 19.3364 19.57 19.9901 20.0052L15.3378 15.2914C14.7049 14.6578 13.8462 14.3016 12.9507 14.3011C12.0551 14.3007 11.1961 14.656 10.5625 15.2889L10.5594 15.2923Z" fill="#010101"/>
<path d="M15.2862 29.437L19.7358 33.8608C20.3005 34.4179 20.6518 35.1554 20.7285 35.9449C20.8052 36.7344 20.6024 37.5258 20.1555 38.1811L24.8848 33.4916C25.5188 32.8575 25.8749 31.9976 25.8749 31.101C25.8749 30.2044 25.5188 29.3445 24.8848 28.7104L20.4354 24.2866C19.8795 23.7331 19.5318 23.0045 19.4511 22.2242C19.3703 21.4438 19.5615 20.6595 19.9923 20.0038L15.2886 24.6561C14.6545 25.2895 14.298 26.1489 14.2975 27.0452C14.297 27.9415 14.6525 28.8013 15.2859 29.4355L15.2862 29.437Z" fill="#010101"/>
<path d="M24.7017 10.5618L20.2523 6.13983C19.6876 5.58294 19.3362 4.84552 19.2595 4.05612C19.1827 3.26673 19.3854 2.47543 19.8323 1.82019L15.103 6.50886C14.4696 7.14293 14.1138 8.00251 14.1138 8.89875C14.1138 9.795 14.4696 10.6546 15.103 11.2887L19.5551 15.7122C20.1134 16.2667 20.4622 16.9976 20.5419 17.7804C20.6216 18.5633 20.4274 19.3495 19.9924 20.0052L24.7032 15.343C25.0171 15.029 25.266 14.6562 25.4358 14.246C25.6056 13.8357 25.6929 13.3961 25.6928 12.9521C25.6926 12.5081 25.605 12.0685 25.435 11.6584C25.2649 11.2482 25.0157 10.8756 24.7017 10.5618V10.5618Z" fill="#010101"/>
<path d="M33.4938 15.1342C32.8602 14.5011 32.0011 14.1455 31.1054 14.1455C30.2096 14.1455 29.3506 14.5011 28.7169 15.1342C28.7169 15.1342 21.3095 20.9136 19.9915 20.0052L24.6637 24.7345C24.9772 25.0483 25.3494 25.2974 25.7591 25.4675C26.1688 25.6375 26.6079 25.7252 27.0515 25.7254C27.4951 25.7257 27.9344 25.6387 28.3443 25.4692C28.7542 25.2997 29.1268 25.0511 29.4406 24.7376L29.4438 24.7345L33.8658 20.2842C34.4224 19.7191 35.16 19.3675 35.9495 19.2909C36.7391 19.2143 37.5305 19.4175 38.1854 19.8651L33.4938 15.1342Z" fill="#010101"/>
<path d="M56.7086 13.6955C56.9983 14.1959 57.3209 14.8083 57.6765 15.5326C58.0321 16.2568 58.3942 17.0173 58.7629 17.814C59.1316 18.6107 59.4971 19.4206 59.8592 20.2437C60.2214 21.0667 60.5539 21.8272 60.8567 22.5251C61.1596 21.8272 61.4888 21.0667 61.8444 20.2437C62.2 19.4206 62.5621 18.6107 62.9308 17.814C63.2995 17.0173 63.662 16.2568 64.0181 15.5326C64.3743 14.8083 64.6969 14.1959 64.986 13.6955H67.228C67.3488 14.6963 67.4627 15.7597 67.5699 16.8856C67.677 18.0116 67.7743 19.1638 67.8617 20.3424C67.948 21.5204 68.0286 22.7056 68.1034 23.898C68.1783 25.0904 68.2417 26.2525 68.2938 27.3844H65.8444C65.7907 25.791 65.7269 24.1515 65.6532 22.4659C65.5794 20.7803 65.4683 19.1474 65.32 17.5671C65.1752 17.87 65.004 18.2321 64.8065 18.6535C64.6089 19.0749 64.3985 19.5326 64.1753 20.0264C63.9508 20.5202 63.7236 21.0305 63.4938 21.5572C63.2639 22.084 63.0401 22.5943 62.8222 23.0881C62.6049 23.5819 62.4041 24.0428 62.2197 24.4708C62.0353 24.8988 61.8773 25.2639 61.7456 25.5662H59.8879C59.7563 25.2633 59.5982 24.8946 59.4139 24.4601C59.2295 24.0255 59.0287 23.5616 58.8114 23.0684C58.5941 22.5745 58.3703 22.0642 58.1398 21.5375C57.9093 21.0107 57.6825 20.5037 57.4592 20.0165C57.2347 19.5293 57.0241 19.0716 56.8271 18.6437C56.6302 18.2157 56.459 17.8565 56.3135 17.5662C56.1658 19.1465 56.0551 20.7794 55.9813 22.465C55.9076 24.1506 55.8438 25.7904 55.7901 27.3844H53.3407C53.3944 26.2519 53.4582 25.0799 53.5319 23.8684C53.6057 22.6568 53.6862 21.4552 53.7732 20.2634C53.8603 19.0716 53.9576 17.9161 54.0651 16.7968C54.1725 15.6774 54.2865 14.6437 54.4069 13.6955H56.7086ZM79.4938 17.0535C78.5271 20.6972 77.288 24.2631 75.7869 27.7211C75.5581 28.2491 75.287 28.7577 74.9764 29.2421C74.7229 29.6373 74.4093 29.9905 74.0469 30.289C73.7081 30.5635 73.3183 30.7682 72.9001 30.8915C72.4238 31.0238 71.931 31.087 71.4368 31.0791C71.0677 31.0791 70.6997 31.0394 70.3391 30.9606C70.0561 30.9071 69.7804 30.8206 69.5176 30.7029L69.953 28.7869C70.4014 28.9658 70.8793 29.0596 71.362 29.0634C71.8859 29.0948 72.4036 28.9371 72.8211 28.619C73.2296 28.2381 73.5452 27.7684 73.7432 27.2461C72.9893 25.7976 72.2651 24.2173 71.5708 22.5054C70.8526 20.7236 70.2334 18.9036 69.716 17.0535H72.2642C72.3963 17.6072 72.5582 18.2064 72.7499 18.8511C72.9416 19.4957 73.1498 20.1509 73.3746 20.8165C73.5991 21.4815 73.837 22.1433 74.0884 22.8017C74.3398 23.4601 74.591 24.0725 74.8419 24.6387C75.2609 23.4667 75.6543 22.219 76.022 20.8955C76.3896 19.5721 76.7239 18.2914 77.0246 17.0535H79.4938ZM84.7481 25.5276C85.6436 25.5276 86.2954 25.3762 86.7037 25.0733C86.9038 24.9264 87.0644 24.7323 87.1712 24.5083C87.2781 24.2843 87.3278 24.0373 87.316 23.7893C87.3242 23.4928 87.2525 23.1994 87.1086 22.94C86.9567 22.688 86.755 22.4696 86.516 22.298C86.2236 22.0866 85.909 21.9078 85.5777 21.7647C85.209 21.6 84.7876 21.4387 84.3135 21.2807C83.8395 21.1095 83.3818 20.9219 82.9407 20.7177C82.5161 20.5245 82.1232 20.2681 81.7753 19.9572C81.4371 19.6513 81.162 19.2822 80.9654 18.8708C80.7496 18.3935 80.6449 17.8735 80.6592 17.3498C80.6592 16.112 81.0872 15.1408 81.9432 14.4363C82.7991 13.7317 83.9646 13.3795 85.4395 13.3795C86.2099 13.3683 86.9781 13.4647 87.7218 13.6659C88.2688 13.809 88.7965 14.0179 89.2931 14.2881L88.5227 16.3029C88.0592 16.0467 87.5634 15.854 87.0484 15.7301C86.5087 15.5976 85.9548 15.5313 85.3991 15.5326C84.8445 15.4997 84.2939 15.645 83.8278 15.9474C83.6448 16.0798 83.4975 16.2556 83.3993 16.4591C83.301 16.6625 83.2548 16.8871 83.2648 17.1128C83.2572 17.3849 83.322 17.6542 83.4525 17.893C83.5881 18.1223 83.7697 18.321 83.9858 18.4767C84.2392 18.6614 84.5106 18.8202 84.7957 18.9507C85.1052 19.0956 85.4443 19.2339 85.813 19.3656C86.4582 19.6026 87.0344 19.8429 87.5414 20.0865C88.0129 20.306 88.4464 20.5994 88.8253 20.9557C89.173 21.2896 89.4457 21.6935 89.6253 22.1409C89.8224 22.6678 89.9163 23.2278 89.9019 23.7902C89.9019 25.0281 89.464 25.9858 88.5883 26.6634C87.7126 27.341 86.4325 27.6801 84.7481 27.6807C84.2292 27.6841 83.7108 27.6478 83.1975 27.5721C82.7774 27.5099 82.3617 27.4208 81.953 27.3054C81.6342 27.2155 81.3209 27.1069 81.0148 26.9804C80.7977 26.891 80.5863 26.7884 80.3818 26.6733L81.1126 24.6387C81.574 24.8804 82.0567 25.0787 82.5546 25.2313C83.2659 25.4438 84.006 25.5438 84.7481 25.5276V25.5276ZM91.9777 27.3844V12.4511L94.3679 12.056V17.1712C94.6677 17.0695 94.9747 16.9902 95.2864 16.9341C95.6282 16.869 95.9754 16.8359 96.3234 16.8354C97.0278 16.8132 97.7297 16.9307 98.3885 17.181C98.9016 17.3867 99.3537 17.7198 99.7021 18.1489C100.043 18.5883 100.282 19.0976 100.403 19.6403C100.548 20.2753 100.617 20.925 100.611 21.5761V27.3844H98.2197V21.9523C98.2262 21.4792 98.1898 21.0065 98.1111 20.54C98.0584 20.203 97.9374 19.8803 97.7555 19.5918C97.5943 19.3509 97.3634 19.1649 97.0938 19.0585C96.7652 18.9376 96.4166 18.8806 96.0666 18.8906C95.7415 18.8915 95.4173 18.9246 95.0987 18.9893C94.8519 19.0347 94.6079 19.0941 94.3679 19.1671V27.3844H91.9777ZM111.948 27.0684C111.487 27.1869 110.888 27.3087 110.151 27.4338C109.347 27.5641 108.535 27.6269 107.721 27.6214C107.01 27.6425 106.301 27.5217 105.637 27.2659C105.113 27.0553 104.651 26.7156 104.294 26.2782C103.946 25.8329 103.7 25.3173 103.573 24.7671C103.423 24.1363 103.35 23.4896 103.356 22.8412V17.0535H105.747V22.4659C105.747 23.5721 105.908 24.3622 106.23 24.8363C106.553 25.3103 107.116 25.5474 107.919 25.5474C108.209 25.5474 108.515 25.5342 108.838 25.5079C109.08 25.493 109.321 25.46 109.559 25.4091V17.0535H111.949L111.948 27.0684ZM121.844 22.1893C121.844 21.1754 121.644 20.3721 121.242 19.7795C120.84 19.1869 120.205 18.8906 119.336 18.8906C118.957 18.888 118.579 18.9481 118.22 19.0684C117.923 19.1617 117.641 19.2946 117.38 19.4634V25.4091C117.599 25.4565 117.82 25.4928 118.042 25.5177C118.367 25.5536 118.693 25.5701 119.02 25.5671C119.411 25.5865 119.802 25.5156 120.161 25.3599C120.521 25.2042 120.84 24.9679 121.094 24.6693C121.594 24.0701 121.844 23.2434 121.844 22.1893V22.1893ZM124.294 22.2289C124.305 22.9919 124.181 23.7508 123.928 24.4708C123.702 25.1072 123.346 25.6892 122.881 26.1795C122.419 26.6591 121.855 27.0301 121.232 27.2659C120.531 27.5259 119.787 27.6532 119.039 27.6412C118.282 27.6438 117.526 27.5843 116.778 27.4634C116.174 27.3704 115.577 27.2385 114.99 27.0684V12.4511L117.38 12.056V17.4091C117.706 17.245 118.046 17.1127 118.397 17.014C118.831 16.8912 119.28 16.8313 119.731 16.8363C120.399 16.825 121.063 16.9563 121.677 17.2214C122.235 17.467 122.726 17.843 123.109 18.3177C123.508 18.8258 123.807 19.4059 123.988 20.0264C124.199 20.7412 124.302 21.4835 124.294 22.2289V22.2289ZM126.763 27.3844V12.4511L129.153 12.056V17.1712C129.453 17.0695 129.76 16.9902 130.072 16.9341C130.413 16.869 130.761 16.8359 131.109 16.8354C131.813 16.8132 132.515 16.9307 133.174 17.181C133.687 17.3867 134.139 17.7198 134.487 18.1489C134.828 18.5884 135.067 19.0976 135.188 19.6403C135.332 20.2753 135.402 20.925 135.395 21.5761V27.3844H133.005V21.9523C133.011 21.4792 132.975 21.0065 132.896 20.54C132.844 20.203 132.723 19.8803 132.541 19.5918C132.379 19.3509 132.149 19.1649 131.879 19.0585C131.55 18.9376 131.202 18.8806 130.852 18.8906C130.527 18.8915 130.202 18.9246 129.884 18.9893C129.637 19.0347 129.393 19.0941 129.153 19.1671V27.3844H126.763ZM147.03 25.2313V27.3844H138.378V13.6955H140.867V25.2313H147.03ZM151.217 27.3844H148.827V17.0535H151.217V27.3844ZM151.474 14.0313C151.483 14.23 151.449 14.4284 151.374 14.6126C151.299 14.7968 151.185 14.9624 151.039 15.098C150.761 15.3571 150.393 15.4986 150.012 15.493C149.625 15.5012 149.25 15.3596 148.965 15.098C148.82 14.9624 148.706 14.7968 148.63 14.6126C148.555 14.4284 148.521 14.23 148.531 14.0313C148.52 13.8296 148.554 13.6279 148.629 13.4403C148.704 13.2527 148.819 13.0837 148.965 12.9449C149.25 12.6833 149.625 12.5417 150.012 12.5498C150.393 12.5442 150.761 12.6858 151.039 12.9449C151.186 13.0837 151.301 13.2527 151.376 13.4403C151.451 13.6279 151.485 13.8296 151.474 14.0313V14.0313ZM158.467 12.056C158.958 12.0495 159.448 12.0992 159.928 12.2042C160.249 12.2742 160.565 12.3633 160.876 12.4708L160.421 14.4461C160.171 14.3321 159.91 14.246 159.641 14.1893C159.326 14.1216 159.005 14.0884 158.683 14.0906C158.352 14.0813 158.023 14.1384 157.715 14.2585C157.469 14.3578 157.251 14.5174 157.083 14.7227C156.918 14.9345 156.803 15.181 156.746 15.4437C156.678 15.7451 156.645 16.0532 156.648 16.3622V17.0535H160.401V19.0486H156.648V27.3844H154.259V16.3227C154.259 14.9926 154.608 13.949 155.306 13.1918C156.004 12.4346 157.058 12.056 158.467 12.056ZM161.39 22.2693C161.373 21.4542 161.511 20.6434 161.794 19.8791C162.034 19.2425 162.4 18.6611 162.872 18.1705C163.308 17.724 163.832 17.3741 164.412 17.1433C164.977 16.9157 165.581 16.7983 166.19 16.7976C167.612 16.7976 168.721 17.2391 169.518 18.122C170.316 19.0049 170.714 20.3218 170.714 22.0726C170.714 22.2043 170.71 22.3525 170.704 22.5171C170.697 22.6817 170.687 22.8298 170.674 22.9615H163.859C163.87 23.3249 163.953 23.6826 164.104 24.0133C164.255 24.3441 164.471 24.6413 164.738 24.8874C165.258 25.34 166.012 25.5662 167 25.5662C167.534 25.5711 168.067 25.5184 168.59 25.4091C168.978 25.3314 169.358 25.2187 169.726 25.0724L170.042 27.028C169.866 27.1108 169.685 27.1801 169.499 27.2354C169.239 27.3151 168.975 27.3811 168.709 27.4329C168.412 27.4927 168.093 27.5421 167.751 27.581C167.403 27.6208 167.053 27.6406 166.704 27.6403C165.895 27.6583 165.09 27.5211 164.332 27.2363C163.7 26.9932 163.133 26.608 162.673 26.1103C162.233 25.6197 161.903 25.0405 161.705 24.4116C161.489 23.7181 161.382 22.9949 161.39 22.2684V22.2693ZM168.323 21.2026C168.325 20.8846 168.278 20.5683 168.185 20.2643C168.102 19.9838 167.964 19.7222 167.781 19.4939C167.604 19.2773 167.382 19.102 167.13 18.9804C166.842 18.8487 166.528 18.7845 166.212 18.7927C165.877 18.7852 165.546 18.8562 165.244 19.0001C164.976 19.1318 164.737 19.3167 164.542 19.5433C164.349 19.7713 164.199 20.0323 164.098 20.3137C163.993 20.6011 163.92 20.8992 163.881 21.2026H168.323Z" fill="white"/>
</svg>
