<svg width="8" height="6" viewBox="0 0 8 6" fill="none" xmlns="http://www.w3.org/2000/svg">
<path d="M7.57395 2.49153V3.50847L0.473372 3.50847C0.211936 3.50847 0 3.28082 0 3C0 2.71918 0.211936 2.49153 0.473372 2.49153L7.57395 2.49153Z" fill="#4F2DA6"/>
<path fill-rule="evenodd" clip-rule="evenodd" d="M8 3C8 3.13581 7.94384 3.26461 7.84671 3.35156L5.00647 5.89392C4.82572 6.05572 4.55707 6.02949 4.40644 5.83533C4.25581 5.64117 4.28023 5.35261 4.46099 5.19081L6.90848 3L4.46099 0.809194C4.28023 0.647394 4.25581 0.358832 4.40644 0.164672C4.55707 -0.0294876 4.82572 -0.0557206 5.00647 0.106079L7.84671 2.64844C7.94384 2.73539 8 2.86419 8 3Z" fill="#4F2DA6"/>
</svg>
