<svg width="16" height="17" viewBox="0 0 16 17" fill="none" xmlns="http://www.w3.org/2000/svg">
<path d="M7.64678 1.7691C7.75796 1.4103 8.24204 1.4103 8.35322 1.7691L9.75109 6.28023C9.80081 6.44069 9.94341 6.54933 10.1043 6.54933H14.6279C14.9877 6.54933 15.1373 7.03209 14.8462 7.25383L11.1865 10.0419C11.0564 10.141 11.0019 10.3168 11.0516 10.4773L12.4495 14.9884C12.5607 15.3472 12.169 15.6456 11.878 15.4238L8.2183 12.6358C8.08813 12.5366 7.91187 12.5366 7.78169 12.6358L4.12205 15.4238C3.83097 15.6456 3.43934 15.3472 3.55052 14.9884L4.94838 10.4773C4.9981 10.3168 4.94363 10.141 4.81346 10.0419L1.15381 7.25384C0.862736 7.03209 1.01233 6.54933 1.37211 6.54933H5.89569C6.05659 6.54933 6.19919 6.44069 6.24891 6.28023L7.64678 1.7691Z" fill="#FFBD00"/>
<path opacity="0.3" fill-rule="evenodd" clip-rule="evenodd" d="M14.9567 6.75724C15.035 6.91559 15.0125 7.12734 14.8463 7.25397L11.1866 10.042C11.0565 10.1412 11.002 10.317 11.0517 10.4774L12.4496 14.9886C12.5607 15.3473 12.1691 15.6457 11.878 15.424L8.21839 12.6359C8.08821 12.5368 7.91195 12.5368 7.78178 12.6359L4.12213 15.424C3.83105 15.6457 3.43942 15.3473 3.5506 14.9886L4.94846 10.4774C4.99818 10.317 4.94371 10.1412 4.81354 10.042L4.24637 9.60992C5.36696 7.58899 7.29701 6.12253 9.57093 5.69873L9.75117 6.28037C9.80089 6.44083 9.94349 6.54947 10.1044 6.54947H14.6129C14.7294 6.61571 14.844 6.685 14.9567 6.75724Z" fill="#FFF5D9"/>
</svg>
