<svg xmlns="http://www.w3.org/2000/svg" width="24" height="18" viewBox="0 0 24 18">
  <g fill="none">
    <path fill="#35CB5D" d="M17.03125,2.79581152 L16.4375,0.534031414 C16.34375,0.219895288 16.0625,0 15.71875,0 L8.28125,0 C7.9375,0 7.65625,0.219895288 7.5625,0.534031414 L6.96875,2.79581152 L2.8125,2.79581152 C1.25,2.79581152 0,4.05235602 0,5.62303665 L0,15.1727749 C0,16.7434555 1.25,18 2.8125,18 L21.1875,18 C22.75,18 24,16.7434555 24,15.1727749 L24,5.62303665 C24,4.05235602 22.75,2.79581152 21.1875,2.79581152 L17.03125,2.79581152 Z M23,5.79400749 L23,14.9026217 C23,16.071161 22.0631868,17 20.8846154,17 L3.11538462,17 C1.93681319,17 1,16.071161 1,14.9026217 L1,5.79400749 C1,4.62546816 1.93681319,3.69662921 3.11538462,3.69662921 L7.34615385,3.69662921 C7.49725275,3.69662921 7.61813187,3.60674157 7.64835165,3.48689139 L8.28296703,1.08988764 C8.28296703,1.05992509 8.34340659,1 8.37362637,1 L15.5961538,1 C15.6565934,1 15.6868132,1.02996255 15.6868132,1.08988764 L16.3214286,3.48689139 C16.3516484,3.60674157 16.4725275,3.69662921 16.6236264,3.69662921 L20.8543956,3.69662921 C22.0631868,3.69662921 23,4.62546816 23,5.79400749 Z"/>
    <path stroke="#35CB5D" d="M12,14.5 C14.4930884,14.5 16.5,12.4930884 16.5,10 C16.5,7.50691161 14.4930884,5.5 12,5.5 C9.50691161,5.5 7.5,7.50691161 7.5,10 C7.5,12.4930884 9.50691161,14.5 12,14.5 Z"/>
  </g>
</svg>
