<svg width="202" height="230" viewBox="0 0 202 230" fill="none" xmlns="http://www.w3.org/2000/svg">
<path d="M67.9189 207.11C66.9363 207.11 66.1883 206.846 65.6749 206.318C65.1689 205.79 64.8976 205.06 64.8609 204.129C64.8536 203.931 64.8499 203.608 64.8499 203.161C64.8499 202.706 64.8536 202.376 64.8609 202.171C64.8976 201.247 65.1726 200.521 65.6859 199.993C66.1993 199.458 66.9436 199.19 67.9189 199.19C68.5716 199.19 69.1253 199.307 69.5799 199.542C70.0346 199.769 70.3793 200.07 70.6139 200.444C70.8486 200.818 70.9769 201.218 70.9989 201.643V201.665C70.9989 201.724 70.9733 201.775 70.9219 201.819C70.8779 201.856 70.8266 201.874 70.7679 201.874H70.1629C70.0163 201.874 69.9246 201.79 69.8879 201.621C69.7633 201.071 69.5396 200.686 69.2169 200.466C68.8943 200.239 68.4616 200.125 67.9189 200.125C66.6576 200.125 66.0049 200.825 65.9609 202.226C65.9536 202.424 65.9499 202.728 65.9499 203.139C65.9499 203.55 65.9536 203.861 65.9609 204.074C66.0049 205.475 66.6576 206.175 67.9189 206.175C68.4616 206.175 68.8943 206.065 69.2169 205.845C69.5469 205.618 69.7706 205.229 69.8879 204.679C69.9099 204.584 69.9429 204.518 69.9869 204.481C70.0309 204.444 70.0896 204.426 70.1629 204.426H70.7679C70.8339 204.426 70.8889 204.448 70.9329 204.492C70.9843 204.529 71.0063 204.58 70.9989 204.646C70.9769 205.079 70.8486 205.482 70.6139 205.856C70.3793 206.23 70.0346 206.534 69.5799 206.769C69.1253 206.996 68.5716 207.11 67.9189 207.11ZM74.6731 207.11C73.8664 207.11 73.2394 206.883 72.7921 206.428C72.3521 205.973 72.1174 205.368 72.0881 204.613L72.0771 204.14L72.0881 203.667C72.1174 202.919 72.3558 202.318 72.8031 201.863C73.2504 201.401 73.8738 201.17 74.6731 201.17C75.4724 201.17 76.0958 201.401 76.5431 201.863C76.9904 202.318 77.2288 202.919 77.2581 203.667C77.2654 203.748 77.2691 203.905 77.2691 204.14C77.2691 204.375 77.2654 204.532 77.2581 204.613C77.2288 205.368 76.9904 205.973 76.5431 206.428C76.1031 206.883 75.4798 207.11 74.6731 207.11ZM74.6731 206.263C75.1351 206.263 75.4981 206.116 75.7621 205.823C76.0334 205.53 76.1801 205.108 76.2021 204.558C76.2094 204.485 76.2131 204.345 76.2131 204.14C76.2131 203.935 76.2094 203.795 76.2021 203.722C76.1801 203.172 76.0334 202.75 75.7621 202.457C75.4981 202.164 75.1351 202.017 74.6731 202.017C74.2111 202.017 73.8444 202.164 73.5731 202.457C73.3018 202.75 73.1588 203.172 73.1441 203.722L73.1331 204.14L73.1441 204.558C73.1588 205.108 73.3018 205.53 73.5731 205.823C73.8444 206.116 74.2111 206.263 74.6731 206.263ZM78.8995 207C78.8262 207 78.7639 206.978 78.7125 206.934C78.6685 206.883 78.6465 206.82 78.6465 206.747V201.533C78.6465 201.46 78.6685 201.401 78.7125 201.357C78.7639 201.306 78.8262 201.28 78.8995 201.28H79.3945C79.4679 201.28 79.5265 201.306 79.5705 201.357C79.6219 201.401 79.6475 201.46 79.6475 201.533V201.918C80.0289 201.419 80.5605 201.17 81.2425 201.17C82.0565 201.17 82.6322 201.507 82.9695 202.182C83.1455 201.874 83.3949 201.628 83.7175 201.445C84.0402 201.262 84.4032 201.17 84.8065 201.17C85.4079 201.17 85.8992 201.375 86.2805 201.786C86.6619 202.197 86.8525 202.791 86.8525 203.568V206.747C86.8525 206.82 86.8269 206.883 86.7755 206.934C86.7315 206.978 86.6729 207 86.5995 207H86.0825C86.0092 207 85.9469 206.978 85.8955 206.934C85.8515 206.883 85.8295 206.82 85.8295 206.747V203.667C85.8295 203.095 85.7085 202.684 85.4665 202.435C85.2319 202.186 84.9202 202.061 84.5315 202.061C84.1869 202.061 83.8899 202.189 83.6405 202.446C83.3912 202.695 83.2665 203.102 83.2665 203.667V206.747C83.2665 206.82 83.2409 206.883 83.1895 206.934C83.1455 206.978 83.0869 207 83.0135 207H82.4965C82.4232 207 82.3609 206.978 82.3095 206.934C82.2655 206.883 82.2435 206.82 82.2435 206.747V203.667C82.2435 203.095 82.1189 202.684 81.8695 202.435C81.6275 202.186 81.3195 202.061 80.9455 202.061C80.6009 202.061 80.3039 202.189 80.0545 202.446C79.8052 202.695 79.6805 203.099 79.6805 203.656V206.747C79.6805 206.82 79.6549 206.883 79.6035 206.934C79.5595 206.978 79.5009 207 79.4275 207H78.8995ZM88.5869 200.213C88.5136 200.213 88.4512 200.191 88.3999 200.147C88.3559 200.096 88.3339 200.033 88.3339 199.96V199.366C88.3339 199.293 88.3559 199.23 88.3999 199.179C88.4512 199.128 88.5136 199.102 88.5869 199.102H89.2799C89.3532 199.102 89.4156 199.128 89.4669 199.179C89.5182 199.23 89.5439 199.293 89.5439 199.366V199.96C89.5439 200.033 89.5182 200.096 89.4669 200.147C89.4156 200.191 89.3532 200.213 89.2799 200.213H88.5869ZM88.6749 207C88.6016 207 88.5392 206.978 88.4879 206.934C88.4439 206.883 88.4219 206.82 88.4219 206.747V201.533C88.4219 201.46 88.4439 201.401 88.4879 201.357C88.5392 201.306 88.6016 201.28 88.6749 201.28H89.2029C89.2762 201.28 89.3349 201.306 89.3789 201.357C89.4302 201.401 89.4559 201.46 89.4559 201.533V206.747C89.4559 206.82 89.4302 206.883 89.3789 206.934C89.3349 206.978 89.2762 207 89.2029 207H88.6749ZM91.339 207C91.2656 207 91.2033 206.978 91.152 206.934C91.108 206.883 91.086 206.82 91.086 206.747V201.533C91.086 201.46 91.108 201.401 91.152 201.357C91.2033 201.306 91.2656 201.28 91.339 201.28H91.856C91.9293 201.28 91.988 201.306 92.032 201.357C92.0833 201.401 92.109 201.46 92.109 201.533V202.017C92.3216 201.746 92.571 201.537 92.857 201.39C93.1503 201.243 93.5133 201.17 93.946 201.17C94.65 201.17 95.1963 201.397 95.585 201.852C95.981 202.299 96.179 202.897 96.179 203.645V206.747C96.179 206.82 96.1533 206.883 96.102 206.934C96.058 206.978 95.9993 207 95.926 207H95.376C95.3026 207 95.2403 206.978 95.189 206.934C95.145 206.883 95.123 206.82 95.123 206.747V203.7C95.123 203.179 94.9946 202.776 94.738 202.49C94.4886 202.204 94.1256 202.061 93.649 202.061C93.187 202.061 92.8203 202.208 92.549 202.501C92.2776 202.787 92.142 203.187 92.142 203.7V206.747C92.142 206.82 92.1163 206.883 92.065 206.934C92.021 206.978 91.9623 207 91.889 207H91.339ZM100.1 209.42C99.4985 209.42 99.0145 209.317 98.6479 209.112C98.2812 208.914 98.0209 208.687 97.8669 208.43C97.7129 208.173 97.6285 207.942 97.6139 207.737C97.6065 207.664 97.6285 207.601 97.6799 207.55C97.7385 207.499 97.8009 207.473 97.8669 207.473H98.3949C98.4609 207.473 98.5159 207.488 98.5599 207.517C98.6039 207.554 98.6405 207.616 98.6699 207.704C98.7579 207.939 98.9009 208.14 99.0989 208.309C99.3042 208.485 99.6195 208.573 100.045 208.573C100.588 208.573 100.987 208.456 101.244 208.221C101.501 207.994 101.629 207.587 101.629 207V206.252C101.438 206.494 101.196 206.688 100.903 206.835C100.61 206.974 100.261 207.044 99.8579 207.044C99.0805 207.044 98.4975 206.798 98.1089 206.307C97.7275 205.808 97.5259 205.178 97.5039 204.415L97.4929 204.107L97.5039 203.81C97.5259 203.055 97.7312 202.428 98.1199 201.929C98.5085 201.423 99.0879 201.17 99.8579 201.17C100.628 201.17 101.229 201.452 101.662 202.017V201.544C101.662 201.471 101.684 201.408 101.728 201.357C101.779 201.306 101.842 201.28 101.915 201.28H102.421C102.494 201.28 102.557 201.306 102.608 201.357C102.659 201.408 102.685 201.471 102.685 201.544V206.879C102.685 208.573 101.823 209.42 100.1 209.42ZM100.078 206.164C100.577 206.164 100.954 205.999 101.211 205.669C101.468 205.339 101.607 204.947 101.629 204.492C101.636 204.426 101.64 204.298 101.64 204.107C101.64 203.924 101.636 203.799 101.629 203.733C101.607 203.278 101.468 202.886 101.211 202.556C100.962 202.226 100.584 202.061 100.078 202.061C99.5572 202.061 99.1795 202.222 98.9449 202.545C98.7102 202.868 98.5819 203.293 98.5599 203.821L98.5489 204.107L98.5599 204.404C98.5819 204.925 98.7102 205.35 98.9449 205.68C99.1795 206.003 99.5572 206.164 100.078 206.164ZM108.997 207.11C108.483 207.11 108.051 207.029 107.699 206.868C107.354 206.699 107.094 206.509 106.918 206.296C106.749 206.083 106.665 205.907 106.665 205.768C106.665 205.695 106.69 205.64 106.742 205.603C106.8 205.559 106.859 205.537 106.918 205.537H107.413C107.486 205.537 107.552 205.574 107.611 205.647C107.787 205.852 107.977 206.014 108.183 206.131C108.388 206.248 108.663 206.307 109.008 206.307C109.389 206.307 109.697 206.234 109.932 206.087C110.174 205.933 110.295 205.724 110.295 205.46C110.295 205.284 110.243 205.141 110.141 205.031C110.045 204.914 109.877 204.815 109.635 204.734C109.4 204.646 109.048 204.551 108.579 204.448C107.941 204.309 107.486 204.107 107.215 203.843C106.951 203.579 106.819 203.238 106.819 202.82C106.819 202.541 106.899 202.277 107.061 202.028C107.229 201.771 107.471 201.566 107.787 201.412C108.109 201.251 108.494 201.17 108.942 201.17C109.411 201.17 109.811 201.247 110.141 201.401C110.471 201.555 110.716 201.738 110.878 201.951C111.046 202.156 111.131 202.329 111.131 202.468C111.131 202.534 111.105 202.589 111.054 202.633C111.01 202.677 110.955 202.699 110.889 202.699H110.427C110.339 202.699 110.265 202.662 110.207 202.589C110.089 202.45 109.987 202.343 109.899 202.27C109.818 202.189 109.697 202.12 109.536 202.061C109.382 202.002 109.184 201.973 108.942 201.973C108.59 201.973 108.318 202.05 108.128 202.204C107.937 202.351 107.842 202.545 107.842 202.787C107.842 202.941 107.882 203.073 107.963 203.183C108.043 203.286 108.197 203.381 108.425 203.469C108.659 203.557 108.997 203.649 109.437 203.744C110.133 203.891 110.625 204.103 110.911 204.382C111.204 204.653 111.351 205.002 111.351 205.427C111.351 205.742 111.259 206.028 111.076 206.285C110.892 206.542 110.621 206.743 110.262 206.89C109.91 207.037 109.488 207.11 108.997 207.11ZM114.967 207.11C114.16 207.11 113.533 206.883 113.086 206.428C112.646 205.973 112.411 205.368 112.382 204.613L112.371 204.14L112.382 203.667C112.411 202.919 112.65 202.318 113.097 201.863C113.544 201.401 114.168 201.17 114.967 201.17C115.766 201.17 116.39 201.401 116.837 201.863C117.284 202.318 117.523 202.919 117.552 203.667C117.559 203.748 117.563 203.905 117.563 204.14C117.563 204.375 117.559 204.532 117.552 204.613C117.523 205.368 117.284 205.973 116.837 206.428C116.397 206.883 115.774 207.11 114.967 207.11ZM114.967 206.263C115.429 206.263 115.792 206.116 116.056 205.823C116.327 205.53 116.474 205.108 116.496 204.558C116.503 204.485 116.507 204.345 116.507 204.14C116.507 203.935 116.503 203.795 116.496 203.722C116.474 203.172 116.327 202.75 116.056 202.457C115.792 202.164 115.429 202.017 114.967 202.017C114.505 202.017 114.138 202.164 113.867 202.457C113.596 202.75 113.453 203.172 113.438 203.722L113.427 204.14L113.438 204.558C113.453 205.108 113.596 205.53 113.867 205.823C114.138 206.116 114.505 206.263 114.967 206.263ZM121.283 207.11C120.477 207.11 119.85 206.883 119.402 206.428C118.962 205.973 118.728 205.368 118.698 204.613L118.687 204.14L118.698 203.667C118.728 202.919 118.966 202.318 119.413 201.863C119.861 201.401 120.484 201.17 121.283 201.17C122.083 201.17 122.706 201.401 123.153 201.863C123.601 202.318 123.839 202.919 123.868 203.667C123.876 203.748 123.879 203.905 123.879 204.14C123.879 204.375 123.876 204.532 123.868 204.613C123.839 205.368 123.601 205.973 123.153 206.428C122.713 206.883 122.09 207.11 121.283 207.11ZM121.283 206.263C121.745 206.263 122.108 206.116 122.372 205.823C122.644 205.53 122.79 205.108 122.812 204.558C122.82 204.485 122.823 204.345 122.823 204.14C122.823 203.935 122.82 203.795 122.812 203.722C122.79 203.172 122.644 202.75 122.372 202.457C122.108 202.164 121.745 202.017 121.283 202.017C120.821 202.017 120.455 202.164 120.183 202.457C119.912 202.75 119.769 203.172 119.754 203.722L119.743 204.14L119.754 204.558C119.769 205.108 119.912 205.53 120.183 205.823C120.455 206.116 120.821 206.263 121.283 206.263ZM125.51 207C125.437 207 125.374 206.978 125.323 206.934C125.279 206.883 125.257 206.82 125.257 206.747V201.533C125.257 201.46 125.279 201.401 125.323 201.357C125.374 201.306 125.437 201.28 125.51 201.28H126.027C126.1 201.28 126.159 201.306 126.203 201.357C126.254 201.401 126.28 201.46 126.28 201.533V202.017C126.493 201.746 126.742 201.537 127.028 201.39C127.321 201.243 127.684 201.17 128.117 201.17C128.821 201.17 129.367 201.397 129.756 201.852C130.152 202.299 130.35 202.897 130.35 203.645V206.747C130.35 206.82 130.324 206.883 130.273 206.934C130.229 206.978 130.17 207 130.097 207H129.547C129.474 207 129.411 206.978 129.36 206.934C129.316 206.883 129.294 206.82 129.294 206.747V203.7C129.294 203.179 129.166 202.776 128.909 202.49C128.66 202.204 128.297 202.061 127.82 202.061C127.358 202.061 126.991 202.208 126.72 202.501C126.449 202.787 126.313 203.187 126.313 203.7V206.747C126.313 206.82 126.287 206.883 126.236 206.934C126.192 206.978 126.133 207 126.06 207H125.51ZM132.203 205.174C132.129 205.174 132.067 205.152 132.016 205.108C131.972 205.057 131.95 204.994 131.95 204.921V199.553C131.95 199.48 131.972 199.421 132.016 199.377C132.067 199.326 132.129 199.3 132.203 199.3H132.72C132.793 199.3 132.852 199.326 132.896 199.377C132.947 199.421 132.973 199.48 132.973 199.553V204.921C132.973 204.994 132.947 205.057 132.896 205.108C132.852 205.152 132.793 205.174 132.72 205.174H132.203ZM132.104 207C132.03 207 131.968 206.978 131.917 206.934C131.873 206.883 131.851 206.82 131.851 206.747V206.054C131.851 205.981 131.873 205.918 131.917 205.867C131.968 205.816 132.03 205.79 132.104 205.79H132.808C132.881 205.79 132.94 205.816 132.984 205.867C133.035 205.918 133.061 205.981 133.061 206.054V206.747C133.061 206.82 133.035 206.883 132.984 206.934C132.94 206.978 132.881 207 132.808 207H132.104ZM1.70951 225C1.63618 225 1.57385 224.978 1.52251 224.934C1.47851 224.883 1.45651 224.82 1.45651 224.747V217.564C1.45651 217.483 1.47851 217.421 1.52251 217.377C1.57385 217.326 1.63618 217.3 1.70951 217.3H2.21551C2.34751 217.3 2.43918 217.351 2.49051 217.454L6.14251 223.064V217.564C6.14251 217.483 6.16451 217.421 6.20851 217.377C6.25985 217.326 6.32218 217.3 6.39551 217.3H6.92351C7.00418 217.3 7.06651 217.326 7.11051 217.377C7.16185 217.421 7.18751 217.483 7.18751 217.564V224.736C7.18751 224.809 7.16185 224.872 7.11051 224.923C7.06651 224.974 7.00785 225 6.93451 225H6.40651C6.29651 225 6.20851 224.949 6.14251 224.846L2.50151 219.291V224.747C2.50151 224.82 2.47585 224.883 2.42451 224.934C2.37318 224.978 2.31085 225 2.23751 225H1.70951ZM11.2499 225.11C10.4946 225.11 9.88962 224.879 9.43495 224.417C8.98762 223.948 8.74195 223.31 8.69795 222.503L8.68695 222.129L8.69795 221.766C8.74928 220.974 8.99862 220.343 9.44595 219.874C9.90062 219.405 10.4983 219.17 11.2389 219.17C12.0529 219.17 12.6836 219.43 13.1309 219.951C13.5783 220.464 13.8019 221.161 13.8019 222.041V222.228C13.8019 222.301 13.7763 222.364 13.7249 222.415C13.6809 222.459 13.6223 222.481 13.5489 222.481H9.74295V222.58C9.76495 223.057 9.90795 223.464 10.1719 223.801C10.4433 224.131 10.7989 224.296 11.2389 224.296C11.5763 224.296 11.8513 224.23 12.0639 224.098C12.2839 223.959 12.4453 223.816 12.5479 223.669C12.6139 223.581 12.6616 223.53 12.6909 223.515C12.7276 223.493 12.7899 223.482 12.8779 223.482H13.4169C13.4829 223.482 13.5379 223.5 13.5819 223.537C13.6259 223.574 13.6479 223.625 13.6479 223.691C13.6479 223.852 13.5453 224.047 13.3399 224.274C13.1419 224.501 12.8596 224.699 12.4929 224.868C12.1336 225.029 11.7193 225.11 11.2499 225.11ZM12.7569 221.722V221.689C12.7569 221.183 12.6176 220.772 12.3389 220.457C12.0676 220.134 11.7009 219.973 11.2389 219.973C10.7769 219.973 10.4103 220.134 10.1389 220.457C9.87495 220.772 9.74295 221.183 9.74295 221.689V221.722H12.7569ZM16.4848 225C16.3895 225 16.3162 224.978 16.2648 224.934C16.2135 224.89 16.1695 224.82 16.1328 224.725L14.5708 219.621L14.5488 219.511C14.5488 219.445 14.5708 219.39 14.6148 219.346C14.6662 219.302 14.7212 219.28 14.7798 219.28H15.2638C15.3372 219.28 15.3958 219.302 15.4398 219.346C15.4912 219.383 15.5242 219.423 15.5388 219.467L16.7598 223.614L18.0688 219.511C18.0835 219.452 18.1165 219.401 18.1678 219.357C18.2192 219.306 18.2888 219.28 18.3768 219.28H18.7508C18.8388 219.28 18.9085 219.306 18.9598 219.357C19.0112 219.401 19.0442 219.452 19.0588 219.511L20.3678 223.614L21.5888 219.467C21.5962 219.43 21.6218 219.39 21.6658 219.346C21.7172 219.302 21.7795 219.28 21.8528 219.28H22.3478C22.4065 219.28 22.4578 219.302 22.5018 219.346C22.5458 219.39 22.5678 219.445 22.5678 219.511L22.5458 219.621L20.9948 224.725C20.9582 224.82 20.9142 224.89 20.8628 224.934C20.8115 224.978 20.7345 225 20.6318 225H20.2028C20.0048 225 19.8838 224.908 19.8398 224.725L18.5638 220.787L17.2878 224.725C17.2292 224.908 17.1045 225 16.9138 225H16.4848ZM28.2213 225C27.0626 225 26.4833 224.355 26.4833 223.064V220.16H25.6253C25.552 220.16 25.4896 220.138 25.4383 220.094C25.3943 220.043 25.3723 219.98 25.3723 219.907V219.533C25.3723 219.46 25.3943 219.401 25.4383 219.357C25.4896 219.306 25.552 219.28 25.6253 219.28H26.4833V217.443C26.4833 217.37 26.5053 217.311 26.5493 217.267C26.6006 217.216 26.663 217.19 26.7363 217.19H27.2533C27.3266 217.19 27.3853 217.216 27.4293 217.267C27.4806 217.311 27.5063 217.37 27.5063 217.443V219.28H28.8703C28.9436 219.28 29.0023 219.306 29.0463 219.357C29.0977 219.401 29.1233 219.46 29.1233 219.533V219.907C29.1233 219.98 29.0977 220.043 29.0463 220.094C29.0023 220.138 28.9436 220.16 28.8703 220.16H27.5063V222.987C27.5063 223.354 27.5686 223.632 27.6933 223.823C27.818 224.006 28.0233 224.098 28.3093 224.098H28.9803C29.0536 224.098 29.1123 224.124 29.1563 224.175C29.2076 224.219 29.2333 224.278 29.2333 224.351V224.747C29.2333 224.82 29.2076 224.883 29.1563 224.934C29.1123 224.978 29.0536 225 28.9803 225H28.2213ZM32.5732 225.11C31.8179 225.11 31.2129 224.879 30.7582 224.417C30.3109 223.948 30.0652 223.31 30.0212 222.503L30.0102 222.129L30.0212 221.766C30.0725 220.974 30.3219 220.343 30.7692 219.874C31.2239 219.405 31.8215 219.17 32.5622 219.17C33.3762 219.17 34.0069 219.43 34.4542 219.951C34.9015 220.464 35.1252 221.161 35.1252 222.041V222.228C35.1252 222.301 35.0995 222.364 35.0482 222.415C35.0042 222.459 34.9455 222.481 34.8722 222.481H31.0662V222.58C31.0882 223.057 31.2312 223.464 31.4952 223.801C31.7665 224.131 32.1222 224.296 32.5622 224.296C32.8995 224.296 33.1745 224.23 33.3872 224.098C33.6072 223.959 33.7685 223.816 33.8712 223.669C33.9372 223.581 33.9849 223.53 34.0142 223.515C34.0509 223.493 34.1132 223.482 34.2012 223.482H34.7402C34.8062 223.482 34.8612 223.5 34.9052 223.537C34.9492 223.574 34.9712 223.625 34.9712 223.691C34.9712 223.852 34.8685 224.047 34.6632 224.274C34.4652 224.501 34.1829 224.699 33.8162 224.868C33.4569 225.029 33.0425 225.11 32.5732 225.11ZM34.0802 221.722V221.689C34.0802 221.183 33.9409 220.772 33.6622 220.457C33.3909 220.134 33.0242 219.973 32.5622 219.973C32.1002 219.973 31.7335 220.134 31.4622 220.457C31.1982 220.772 31.0662 221.183 31.0662 221.689V221.722H34.0802ZM36.6935 225C36.6201 225 36.5578 224.978 36.5065 224.934C36.4625 224.883 36.4405 224.82 36.4405 224.747V219.544C36.4405 219.471 36.4625 219.408 36.5065 219.357C36.5578 219.306 36.6201 219.28 36.6935 219.28H37.1995C37.2728 219.28 37.3351 219.306 37.3865 219.357C37.4378 219.408 37.4635 219.471 37.4635 219.544V220.028C37.7641 219.529 38.2775 219.28 39.0035 219.28H39.4325C39.5058 219.28 39.5645 219.306 39.6085 219.357C39.6598 219.401 39.6855 219.46 39.6855 219.533V219.984C39.6855 220.057 39.6598 220.116 39.6085 220.16C39.5645 220.204 39.5058 220.226 39.4325 220.226H38.7725C38.3765 220.226 38.0648 220.343 37.8375 220.578C37.6101 220.805 37.4965 221.117 37.4965 221.513V224.747C37.4965 224.82 37.4708 224.883 37.4195 224.934C37.3681 224.978 37.3058 225 37.2325 225H36.6935ZM40.8722 225C40.7988 225 40.7365 224.978 40.6852 224.934C40.6412 224.883 40.6192 224.82 40.6192 224.747V219.533C40.6192 219.46 40.6412 219.401 40.6852 219.357C40.7365 219.306 40.7988 219.28 40.8722 219.28H41.3672C41.4405 219.28 41.4992 219.306 41.5432 219.357C41.5945 219.401 41.6202 219.46 41.6202 219.533V219.918C42.0015 219.419 42.5332 219.17 43.2152 219.17C44.0292 219.17 44.6048 219.507 44.9422 220.182C45.1182 219.874 45.3675 219.628 45.6902 219.445C46.0128 219.262 46.3758 219.17 46.7792 219.17C47.3805 219.17 47.8718 219.375 48.2532 219.786C48.6345 220.197 48.8252 220.791 48.8252 221.568V224.747C48.8252 224.82 48.7995 224.883 48.7482 224.934C48.7042 224.978 48.6455 225 48.5722 225H48.0552C47.9818 225 47.9195 224.978 47.8682 224.934C47.8242 224.883 47.8022 224.82 47.8022 224.747V221.667C47.8022 221.095 47.6812 220.684 47.4392 220.435C47.2045 220.186 46.8928 220.061 46.5042 220.061C46.1595 220.061 45.8625 220.189 45.6132 220.446C45.3638 220.695 45.2392 221.102 45.2392 221.667V224.747C45.2392 224.82 45.2135 224.883 45.1622 224.934C45.1182 224.978 45.0595 225 44.9862 225H44.4692C44.3958 225 44.3335 224.978 44.2822 224.934C44.2382 224.883 44.2162 224.82 44.2162 224.747V221.667C44.2162 221.095 44.0915 220.684 43.8422 220.435C43.6002 220.186 43.2922 220.061 42.9182 220.061C42.5735 220.061 42.2765 220.189 42.0272 220.446C41.7778 220.695 41.6532 221.099 41.6532 221.656V224.747C41.6532 224.82 41.6275 224.883 41.5762 224.934C41.5322 224.978 41.4735 225 41.4002 225H40.8722ZM53.2559 218.213C53.1825 218.213 53.1202 218.191 53.0689 218.147C53.0249 218.096 53.0029 218.033 53.0029 217.96V217.366C53.0029 217.293 53.0249 217.23 53.0689 217.179C53.1202 217.128 53.1825 217.102 53.2559 217.102H53.9489C54.0222 217.102 54.0845 217.128 54.1359 217.179C54.1872 217.23 54.2129 217.293 54.2129 217.366V217.96C54.2129 218.033 54.1872 218.096 54.1359 218.147C54.0845 218.191 54.0222 218.213 53.9489 218.213H53.2559ZM53.3439 225C53.2705 225 53.2082 224.978 53.1569 224.934C53.1129 224.883 53.0909 224.82 53.0909 224.747V219.533C53.0909 219.46 53.1129 219.401 53.1569 219.357C53.2082 219.306 53.2705 219.28 53.3439 219.28H53.8719C53.9452 219.28 54.0039 219.306 54.0479 219.357C54.0992 219.401 54.1249 219.46 54.1249 219.533V224.747C54.1249 224.82 54.0992 224.883 54.0479 224.934C54.0039 224.978 53.9452 225 53.8719 225H53.3439ZM56.0079 225C55.9346 225 55.8723 224.978 55.8209 224.934C55.7769 224.883 55.7549 224.82 55.7549 224.747V219.533C55.7549 219.46 55.7769 219.401 55.8209 219.357C55.8723 219.306 55.9346 219.28 56.0079 219.28H56.5249C56.5983 219.28 56.6569 219.306 56.7009 219.357C56.7523 219.401 56.7779 219.46 56.7779 219.533V220.017C56.9906 219.746 57.2399 219.537 57.5259 219.39C57.8193 219.243 58.1823 219.17 58.6149 219.17C59.3189 219.17 59.8653 219.397 60.2539 219.852C60.6499 220.299 60.8479 220.897 60.8479 221.645V224.747C60.8479 224.82 60.8223 224.883 60.7709 224.934C60.7269 224.978 60.6683 225 60.5949 225H60.0449C59.9716 225 59.9093 224.978 59.8579 224.934C59.8139 224.883 59.7919 224.82 59.7919 224.747V221.7C59.7919 221.179 59.6636 220.776 59.4069 220.49C59.1576 220.204 58.7946 220.061 58.3179 220.061C57.8559 220.061 57.4893 220.208 57.2179 220.501C56.9466 220.787 56.8109 221.187 56.8109 221.7V224.747C56.8109 224.82 56.7853 224.883 56.7339 224.934C56.6899 224.978 56.6313 225 56.5579 225H56.0079ZM64.4058 225.11C63.8925 225.11 63.4598 225.029 63.1078 224.868C62.7631 224.699 62.5028 224.509 62.3268 224.296C62.1581 224.083 62.0738 223.907 62.0738 223.768C62.0738 223.695 62.0995 223.64 62.1508 223.603C62.2095 223.559 62.2681 223.537 62.3268 223.537H62.8218C62.8951 223.537 62.9611 223.574 63.0198 223.647C63.1958 223.852 63.3865 224.014 63.5918 224.131C63.7971 224.248 64.0721 224.307 64.4168 224.307C64.7981 224.307 65.1061 224.234 65.3408 224.087C65.5828 223.933 65.7038 223.724 65.7038 223.46C65.7038 223.284 65.6525 223.141 65.5498 223.031C65.4545 222.914 65.2858 222.815 65.0438 222.734C64.8091 222.646 64.4571 222.551 63.9878 222.448C63.3498 222.309 62.8951 222.107 62.6238 221.843C62.3598 221.579 62.2278 221.238 62.2278 220.82C62.2278 220.541 62.3085 220.277 62.4698 220.028C62.6385 219.771 62.8805 219.566 63.1958 219.412C63.5185 219.251 63.9035 219.17 64.3508 219.17C64.8201 219.17 65.2198 219.247 65.5498 219.401C65.8798 219.555 66.1255 219.738 66.2868 219.951C66.4555 220.156 66.5398 220.329 66.5398 220.468C66.5398 220.534 66.5141 220.589 66.4628 220.633C66.4188 220.677 66.3638 220.699 66.2978 220.699H65.8358C65.7478 220.699 65.6745 220.662 65.6158 220.589C65.4985 220.45 65.3958 220.343 65.3078 220.27C65.2271 220.189 65.1061 220.12 64.9448 220.061C64.7908 220.002 64.5928 219.973 64.3508 219.973C63.9988 219.973 63.7275 220.05 63.5368 220.204C63.3461 220.351 63.2508 220.545 63.2508 220.787C63.2508 220.941 63.2911 221.073 63.3718 221.183C63.4525 221.286 63.6065 221.381 63.8338 221.469C64.0685 221.557 64.4058 221.649 64.8458 221.744C65.5425 221.891 66.0338 222.103 66.3198 222.382C66.6132 222.653 66.7598 223.002 66.7598 223.427C66.7598 223.742 66.6681 224.028 66.4848 224.285C66.3015 224.542 66.0301 224.743 65.6708 224.89C65.3188 225.037 64.8971 225.11 64.4058 225.11ZM70.1672 225.11C69.4706 225.11 68.9316 224.886 68.5502 224.439C68.1689 223.984 67.9782 223.383 67.9782 222.635V219.533C67.9782 219.46 68.0002 219.401 68.0442 219.357C68.0956 219.306 68.1579 219.28 68.2312 219.28H68.7812C68.8546 219.28 68.9132 219.306 68.9572 219.357C69.0086 219.401 69.0342 219.46 69.0342 219.533V222.58C69.0342 223.673 69.5109 224.219 70.4642 224.219C70.9262 224.219 71.2929 224.076 71.5642 223.79C71.8356 223.497 71.9712 223.093 71.9712 222.58V219.533C71.9712 219.46 71.9932 219.401 72.0372 219.357C72.0886 219.306 72.1509 219.28 72.2242 219.28H72.7742C72.8476 219.28 72.9062 219.306 72.9502 219.357C72.9942 219.401 73.0162 219.46 73.0162 219.533V224.747C73.0162 224.82 72.9942 224.883 72.9502 224.934C72.9062 224.978 72.8476 225 72.7742 225H72.2572C72.1839 225 72.1216 224.978 72.0702 224.934C72.0262 224.883 72.0042 224.82 72.0042 224.747V224.263C71.7989 224.542 71.5496 224.754 71.2562 224.901C70.9629 225.04 70.5999 225.11 70.1672 225.11ZM74.9034 225C74.8301 225 74.7678 224.978 74.7164 224.934C74.6724 224.883 74.6504 224.82 74.6504 224.747V219.544C74.6504 219.471 74.6724 219.408 74.7164 219.357C74.7678 219.306 74.8301 219.28 74.9034 219.28H75.4094C75.4828 219.28 75.5451 219.306 75.5964 219.357C75.6478 219.408 75.6734 219.471 75.6734 219.544V220.028C75.9741 219.529 76.4874 219.28 77.2134 219.28H77.6424C77.7158 219.28 77.7744 219.306 77.8184 219.357C77.8698 219.401 77.8954 219.46 77.8954 219.533V219.984C77.8954 220.057 77.8698 220.116 77.8184 220.16C77.7744 220.204 77.7158 220.226 77.6424 220.226H76.9824C76.5864 220.226 76.2748 220.343 76.0474 220.578C75.8201 220.805 75.7064 221.117 75.7064 221.513V224.747C75.7064 224.82 75.6808 224.883 75.6294 224.934C75.5781 224.978 75.5158 225 75.4424 225H74.9034ZM80.3382 225.11C79.9789 225.11 79.6452 225.037 79.3372 224.89C79.0292 224.743 78.7835 224.545 78.6002 224.296C78.4242 224.039 78.3362 223.757 78.3362 223.449C78.3362 222.965 78.5342 222.569 78.9302 222.261C79.3335 221.946 79.8762 221.74 80.5582 221.645L82.1972 221.414V221.095C82.1972 220.347 81.7682 219.973 80.9102 219.973C80.5875 219.973 80.3235 220.043 80.1182 220.182C79.9129 220.314 79.7589 220.472 79.6562 220.655C79.6342 220.721 79.6049 220.769 79.5682 220.798C79.5389 220.827 79.4949 220.842 79.4362 220.842H78.9632C78.8972 220.842 78.8385 220.82 78.7872 220.776C78.7432 220.725 78.7212 220.666 78.7212 220.6C78.7285 220.424 78.8092 220.226 78.9632 220.006C79.1245 219.779 79.3702 219.584 79.7002 219.423C80.0302 219.254 80.4372 219.17 80.9212 219.17C81.7425 219.17 82.3329 219.364 82.6922 219.753C83.0515 220.134 83.2312 220.611 83.2312 221.183V224.747C83.2312 224.82 83.2055 224.883 83.1542 224.934C83.1102 224.978 83.0515 225 82.9782 225H82.4722C82.3989 225 82.3365 224.978 82.2852 224.934C82.2412 224.883 82.2192 224.82 82.2192 224.747V224.274C82.0579 224.509 81.8232 224.707 81.5152 224.868C81.2072 225.029 80.8149 225.11 80.3382 225.11ZM80.5692 224.285C81.0459 224.285 81.4345 224.131 81.7352 223.823C82.0432 223.508 82.1972 223.057 82.1972 222.47V222.162L80.9212 222.349C80.4005 222.422 80.0082 222.547 79.7442 222.723C79.4802 222.892 79.3482 223.108 79.3482 223.372C79.3482 223.665 79.4692 223.893 79.7112 224.054C79.9532 224.208 80.2392 224.285 80.5692 224.285ZM85.0655 225C84.9922 225 84.9299 224.978 84.8785 224.934C84.8345 224.883 84.8125 224.82 84.8125 224.747V219.533C84.8125 219.46 84.8345 219.401 84.8785 219.357C84.9299 219.306 84.9922 219.28 85.0655 219.28H85.5825C85.6559 219.28 85.7145 219.306 85.7585 219.357C85.8099 219.401 85.8355 219.46 85.8355 219.533V220.017C86.0482 219.746 86.2975 219.537 86.5835 219.39C86.8769 219.243 87.2399 219.17 87.6725 219.17C88.3765 219.17 88.9229 219.397 89.3115 219.852C89.7075 220.299 89.9055 220.897 89.9055 221.645V224.747C89.9055 224.82 89.8799 224.883 89.8285 224.934C89.7845 224.978 89.7259 225 89.6525 225H89.1025C89.0292 225 88.9669 224.978 88.9155 224.934C88.8715 224.883 88.8495 224.82 88.8495 224.747V221.7C88.8495 221.179 88.7212 220.776 88.4645 220.49C88.2152 220.204 87.8522 220.061 87.3755 220.061C86.9135 220.061 86.5469 220.208 86.2755 220.501C86.0042 220.787 85.8685 221.187 85.8685 221.7V224.747C85.8685 224.82 85.8429 224.883 85.7915 224.934C85.7475 224.978 85.6889 225 85.6155 225H85.0655ZM93.7934 225.11C93.0088 225.11 92.3928 224.89 91.9454 224.45C91.5054 224.003 91.2708 223.379 91.2414 222.58L91.2304 222.14L91.2414 221.7C91.2708 220.901 91.5054 220.281 91.9454 219.841C92.3928 219.394 93.0088 219.17 93.7934 219.17C94.3214 219.17 94.7688 219.265 95.1354 219.456C95.5021 219.647 95.7734 219.881 95.9494 220.16C96.1328 220.439 96.2318 220.717 96.2464 220.996C96.2538 221.069 96.2318 221.128 96.1804 221.172C96.1291 221.216 96.0668 221.238 95.9934 221.238H95.4654C95.3921 221.238 95.3371 221.223 95.3004 221.194C95.2638 221.165 95.2271 221.106 95.1904 221.018C95.0658 220.666 94.8898 220.417 94.6624 220.27C94.4351 220.116 94.1491 220.039 93.8044 220.039C93.3498 220.039 92.9868 220.182 92.7154 220.468C92.4514 220.747 92.3084 221.176 92.2864 221.755L92.2754 222.151L92.2864 222.525C92.3084 223.112 92.4514 223.544 92.7154 223.823C92.9794 224.102 93.3424 224.241 93.8044 224.241C94.1491 224.241 94.4351 224.168 94.6624 224.021C94.8898 223.867 95.0658 223.614 95.1904 223.262C95.2271 223.174 95.2638 223.115 95.3004 223.086C95.3371 223.049 95.3921 223.031 95.4654 223.031H95.9934C96.0668 223.031 96.1291 223.057 96.1804 223.108C96.2318 223.152 96.2538 223.211 96.2464 223.284C96.2318 223.555 96.1328 223.834 95.9494 224.12C95.7734 224.399 95.5021 224.633 95.1354 224.824C94.7761 225.015 94.3288 225.11 93.7934 225.11ZM99.8408 225.11C99.0854 225.11 98.4804 224.879 98.0258 224.417C97.5784 223.948 97.3328 223.31 97.2888 222.503L97.2778 222.129L97.2888 221.766C97.3401 220.974 97.5894 220.343 98.0368 219.874C98.4914 219.405 99.0891 219.17 99.8298 219.17C100.644 219.17 101.274 219.43 101.722 219.951C102.169 220.464 102.393 221.161 102.393 222.041V222.228C102.393 222.301 102.367 222.364 102.316 222.415C102.272 222.459 102.213 222.481 102.14 222.481H98.3338V222.58C98.3558 223.057 98.4988 223.464 98.7628 223.801C99.0341 224.131 99.3898 224.296 99.8298 224.296C100.167 224.296 100.442 224.23 100.655 224.098C100.875 223.959 101.036 223.816 101.139 223.669C101.205 223.581 101.252 223.53 101.282 223.515C101.318 223.493 101.381 223.482 101.469 223.482H102.008C102.074 223.482 102.129 223.5 102.173 223.537C102.217 223.574 102.239 223.625 102.239 223.691C102.239 223.852 102.136 224.047 101.931 224.274C101.733 224.501 101.45 224.699 101.084 224.868C100.724 225.029 100.31 225.11 99.8408 225.11ZM101.348 221.722V221.689C101.348 221.183 101.208 220.772 100.93 220.457C100.658 220.134 100.292 219.973 99.8298 219.973C99.3678 219.973 99.0011 220.134 98.7298 220.457C98.4658 220.772 98.3338 221.183 98.3338 221.689V221.722H101.348ZM108.401 225C107.242 225 106.663 224.355 106.663 223.064V220.16H105.805C105.732 220.16 105.669 220.138 105.618 220.094C105.574 220.043 105.552 219.98 105.552 219.907V219.533C105.552 219.46 105.574 219.401 105.618 219.357C105.669 219.306 105.732 219.28 105.805 219.28H106.663V217.443C106.663 217.37 106.685 217.311 106.729 217.267C106.78 217.216 106.843 217.19 106.916 217.19H107.433C107.506 217.19 107.565 217.216 107.609 217.267C107.66 217.311 107.686 217.37 107.686 217.443V219.28H109.05C109.123 219.28 109.182 219.306 109.226 219.357C109.277 219.401 109.303 219.46 109.303 219.533V219.907C109.303 219.98 109.277 220.043 109.226 220.094C109.182 220.138 109.123 220.16 109.05 220.16H107.686V222.987C107.686 223.354 107.748 223.632 107.873 223.823C107.998 224.006 108.203 224.098 108.489 224.098H109.16C109.233 224.098 109.292 224.124 109.336 224.175C109.387 224.219 109.413 224.278 109.413 224.351V224.747C109.413 224.82 109.387 224.883 109.336 224.934C109.292 224.978 109.233 225 109.16 225H108.401ZM110.729 225C110.656 225 110.593 224.978 110.542 224.934C110.498 224.883 110.476 224.82 110.476 224.747V217.443C110.476 217.37 110.498 217.311 110.542 217.267C110.593 217.216 110.656 217.19 110.729 217.19H111.279C111.352 217.19 111.411 217.216 111.455 217.267C111.506 217.311 111.532 217.37 111.532 217.443V220.006C111.745 219.735 111.994 219.529 112.28 219.39C112.566 219.243 112.922 219.17 113.347 219.17C114.051 219.17 114.597 219.397 114.986 219.852C115.382 220.299 115.58 220.897 115.58 221.645V224.747C115.58 224.82 115.554 224.883 115.503 224.934C115.459 224.978 115.4 225 115.327 225H114.777C114.704 225 114.641 224.978 114.59 224.934C114.546 224.883 114.524 224.82 114.524 224.747V221.7C114.524 221.179 114.396 220.776 114.139 220.49C113.89 220.204 113.527 220.061 113.05 220.061C112.588 220.061 112.218 220.208 111.939 220.501C111.668 220.787 111.532 221.187 111.532 221.7V224.747C111.532 224.82 111.506 224.883 111.455 224.934C111.411 224.978 111.352 225 111.279 225H110.729ZM118.763 225.11C118.404 225.11 118.07 225.037 117.762 224.89C117.454 224.743 117.208 224.545 117.025 224.296C116.849 224.039 116.761 223.757 116.761 223.449C116.761 222.965 116.959 222.569 117.355 222.261C117.758 221.946 118.301 221.74 118.983 221.645L120.622 221.414V221.095C120.622 220.347 120.193 219.973 119.335 219.973C119.012 219.973 118.748 220.043 118.543 220.182C118.338 220.314 118.184 220.472 118.081 220.655C118.059 220.721 118.03 220.769 117.993 220.798C117.964 220.827 117.92 220.842 117.861 220.842H117.388C117.322 220.842 117.263 220.82 117.212 220.776C117.168 220.725 117.146 220.666 117.146 220.6C117.153 220.424 117.234 220.226 117.388 220.006C117.549 219.779 117.795 219.584 118.125 219.423C118.455 219.254 118.862 219.17 119.346 219.17C120.167 219.17 120.758 219.364 121.117 219.753C121.476 220.134 121.656 220.611 121.656 221.183V224.747C121.656 224.82 121.63 224.883 121.579 224.934C121.535 224.978 121.476 225 121.403 225H120.897C120.824 225 120.761 224.978 120.71 224.934C120.666 224.883 120.644 224.82 120.644 224.747V224.274C120.483 224.509 120.248 224.707 119.94 224.868C119.632 225.029 119.24 225.11 118.763 225.11ZM118.994 224.285C119.471 224.285 119.859 224.131 120.16 223.823C120.468 223.508 120.622 223.057 120.622 222.47V222.162L119.346 222.349C118.825 222.422 118.433 222.547 118.169 222.723C117.905 222.892 117.773 223.108 117.773 223.372C117.773 223.665 117.894 223.893 118.136 224.054C118.378 224.208 118.664 224.285 118.994 224.285ZM125.417 225C124.258 225 123.679 224.355 123.679 223.064V220.16H122.821C122.747 220.16 122.685 220.138 122.634 220.094C122.59 220.043 122.568 219.98 122.568 219.907V219.533C122.568 219.46 122.59 219.401 122.634 219.357C122.685 219.306 122.747 219.28 122.821 219.28H123.679V217.443C123.679 217.37 123.701 217.311 123.745 217.267C123.796 217.216 123.858 217.19 123.932 217.19H124.449C124.522 217.19 124.581 217.216 124.625 217.267C124.676 217.311 124.702 217.37 124.702 217.443V219.28H126.066C126.139 219.28 126.198 219.306 126.242 219.357C126.293 219.401 126.319 219.46 126.319 219.533V219.907C126.319 219.98 126.293 220.043 126.242 220.094C126.198 220.138 126.139 220.16 126.066 220.16H124.702V222.987C124.702 223.354 124.764 223.632 124.889 223.823C125.013 224.006 125.219 224.098 125.505 224.098H126.176C126.249 224.098 126.308 224.124 126.352 224.175C126.403 224.219 126.429 224.278 126.429 224.351V224.747C126.429 224.82 126.403 224.883 126.352 224.934C126.308 224.978 126.249 225 126.176 225H125.417ZM131.437 225C131.342 225 131.268 224.978 131.217 224.934C131.166 224.89 131.122 224.82 131.085 224.725L129.523 219.621L129.501 219.511C129.501 219.445 129.523 219.39 129.567 219.346C129.618 219.302 129.673 219.28 129.732 219.28H130.216C130.289 219.28 130.348 219.302 130.392 219.346C130.443 219.383 130.476 219.423 130.491 219.467L131.712 223.614L133.021 219.511C133.036 219.452 133.069 219.401 133.12 219.357C133.171 219.306 133.241 219.28 133.329 219.28H133.703C133.791 219.28 133.861 219.306 133.912 219.357C133.963 219.401 133.996 219.452 134.011 219.511L135.32 223.614L136.541 219.467C136.548 219.43 136.574 219.39 136.618 219.346C136.669 219.302 136.732 219.28 136.805 219.28H137.3C137.359 219.28 137.41 219.302 137.454 219.346C137.498 219.39 137.52 219.445 137.52 219.511L137.498 219.621L135.947 224.725C135.91 224.82 135.866 224.89 135.815 224.934C135.764 224.978 135.687 225 135.584 225H135.155C134.957 225 134.836 224.908 134.792 224.725L133.516 220.787L132.24 224.725C132.181 224.908 132.057 225 131.866 225H131.437ZM140.931 225.11C140.124 225.11 139.497 224.883 139.05 224.428C138.61 223.973 138.375 223.368 138.346 222.613L138.335 222.14L138.346 221.667C138.375 220.919 138.614 220.318 139.061 219.863C139.508 219.401 140.132 219.17 140.931 219.17C141.73 219.17 142.354 219.401 142.801 219.863C143.248 220.318 143.487 220.919 143.516 221.667C143.523 221.748 143.527 221.905 143.527 222.14C143.527 222.375 143.523 222.532 143.516 222.613C143.487 223.368 143.248 223.973 142.801 224.428C142.361 224.883 141.738 225.11 140.931 225.11ZM140.931 224.263C141.393 224.263 141.756 224.116 142.02 223.823C142.291 223.53 142.438 223.108 142.46 222.558C142.467 222.485 142.471 222.345 142.471 222.14C142.471 221.935 142.467 221.795 142.46 221.722C142.438 221.172 142.291 220.75 142.02 220.457C141.756 220.164 141.393 220.017 140.931 220.017C140.469 220.017 140.102 220.164 139.831 220.457C139.56 220.75 139.417 221.172 139.402 221.722L139.391 222.14L139.402 222.558C139.417 223.108 139.56 223.53 139.831 223.823C140.102 224.116 140.469 224.263 140.931 224.263ZM145.157 225C145.084 225 145.022 224.978 144.97 224.934C144.926 224.883 144.904 224.82 144.904 224.747V219.544C144.904 219.471 144.926 219.408 144.97 219.357C145.022 219.306 145.084 219.28 145.157 219.28H145.663C145.737 219.28 145.799 219.306 145.85 219.357C145.902 219.408 145.927 219.471 145.927 219.544V220.028C146.228 219.529 146.741 219.28 147.467 219.28H147.896C147.97 219.28 148.028 219.306 148.072 219.357C148.124 219.401 148.149 219.46 148.149 219.533V219.984C148.149 220.057 148.124 220.116 148.072 220.16C148.028 220.204 147.97 220.226 147.896 220.226H147.236C146.84 220.226 146.529 220.343 146.301 220.578C146.074 220.805 145.96 221.117 145.96 221.513V224.747C145.96 224.82 145.935 224.883 145.883 224.934C145.832 224.978 145.77 225 145.696 225H145.157ZM149.347 225C149.274 225 149.211 224.978 149.16 224.934C149.116 224.883 149.094 224.82 149.094 224.747V217.443C149.094 217.37 149.116 217.311 149.16 217.267C149.211 217.216 149.274 217.19 149.347 217.19H149.864C149.937 217.19 149.996 217.216 150.04 217.267C150.091 217.311 150.117 217.37 150.117 217.443V221.271L152.284 219.467C152.306 219.452 152.343 219.423 152.394 219.379C152.445 219.342 152.493 219.317 152.537 219.302C152.588 219.287 152.651 219.28 152.724 219.28H153.307C153.373 219.28 153.428 219.302 153.472 219.346C153.516 219.39 153.538 219.445 153.538 219.511C153.538 219.592 153.494 219.661 153.406 219.72L150.865 221.832L153.681 224.571C153.769 224.644 153.813 224.71 153.813 224.769C153.813 224.835 153.791 224.89 153.747 224.934C153.703 224.978 153.648 225 153.582 225H153.01C152.9 225 152.819 224.989 152.768 224.967C152.724 224.945 152.658 224.894 152.57 224.813L150.117 222.47V224.747C150.117 224.82 150.091 224.883 150.04 224.934C149.996 224.978 149.937 225 149.864 225H149.347ZM156.627 225.11C156.114 225.11 155.681 225.029 155.329 224.868C154.985 224.699 154.724 224.509 154.548 224.296C154.38 224.083 154.295 223.907 154.295 223.768C154.295 223.695 154.321 223.64 154.372 223.603C154.431 223.559 154.49 223.537 154.548 223.537H155.043C155.117 223.537 155.183 223.574 155.241 223.647C155.417 223.852 155.608 224.014 155.813 224.131C156.019 224.248 156.294 224.307 156.638 224.307C157.02 224.307 157.328 224.234 157.562 224.087C157.804 223.933 157.925 223.724 157.925 223.46C157.925 223.284 157.874 223.141 157.771 223.031C157.676 222.914 157.507 222.815 157.265 222.734C157.031 222.646 156.679 222.551 156.209 222.448C155.571 222.309 155.117 222.107 154.845 221.843C154.581 221.579 154.449 221.238 154.449 220.82C154.449 220.541 154.53 220.277 154.691 220.028C154.86 219.771 155.102 219.566 155.417 219.412C155.74 219.251 156.125 219.17 156.572 219.17C157.042 219.17 157.441 219.247 157.771 219.401C158.101 219.555 158.347 219.738 158.508 219.951C158.677 220.156 158.761 220.329 158.761 220.468C158.761 220.534 158.736 220.589 158.684 220.633C158.64 220.677 158.585 220.699 158.519 220.699H158.057C157.969 220.699 157.896 220.662 157.837 220.589C157.72 220.45 157.617 220.343 157.529 220.27C157.449 220.189 157.328 220.12 157.166 220.061C157.012 220.002 156.814 219.973 156.572 219.973C156.22 219.973 155.949 220.05 155.758 220.204C155.568 220.351 155.472 220.545 155.472 220.787C155.472 220.941 155.513 221.073 155.593 221.183C155.674 221.286 155.828 221.381 156.055 221.469C156.29 221.557 156.627 221.649 157.067 221.744C157.764 221.891 158.255 222.103 158.541 222.382C158.835 222.653 158.981 223.002 158.981 223.427C158.981 223.742 158.89 224.028 158.706 224.285C158.523 224.542 158.252 224.743 157.892 224.89C157.54 225.037 157.119 225.11 156.627 225.11ZM163.572 225C163.499 225 163.436 224.978 163.385 224.934C163.341 224.883 163.319 224.82 163.319 224.747V220.16H162.384C162.311 220.16 162.248 220.138 162.197 220.094C162.153 220.043 162.131 219.98 162.131 219.907V219.533C162.131 219.46 162.153 219.401 162.197 219.357C162.248 219.306 162.311 219.28 162.384 219.28H163.319V218.73C163.319 217.483 163.95 216.86 165.211 216.86H165.871C165.944 216.86 166.003 216.886 166.047 216.937C166.098 216.981 166.124 217.04 166.124 217.113V217.487C166.124 217.56 166.098 217.623 166.047 217.674C166.003 217.718 165.944 217.74 165.871 217.74H165.233C164.903 217.74 164.672 217.828 164.54 218.004C164.408 218.173 164.342 218.433 164.342 218.785V219.28H165.761C165.834 219.28 165.893 219.306 165.937 219.357C165.988 219.401 166.014 219.46 166.014 219.533V219.907C166.014 219.98 165.988 220.043 165.937 220.094C165.893 220.138 165.834 220.16 165.761 220.16H164.342V224.747C164.342 224.82 164.316 224.883 164.265 224.934C164.221 224.978 164.162 225 164.089 225H163.572ZM169.215 225.11C168.408 225.11 167.781 224.883 167.334 224.428C166.894 223.973 166.659 223.368 166.63 222.613L166.619 222.14L166.63 221.667C166.659 220.919 166.898 220.318 167.345 219.863C167.792 219.401 168.416 219.17 169.215 219.17C170.014 219.17 170.638 219.401 171.085 219.863C171.532 220.318 171.771 220.919 171.8 221.667C171.807 221.748 171.811 221.905 171.811 222.14C171.811 222.375 171.807 222.532 171.8 222.613C171.771 223.368 171.532 223.973 171.085 224.428C170.645 224.883 170.022 225.11 169.215 225.11ZM169.215 224.263C169.677 224.263 170.04 224.116 170.304 223.823C170.575 223.53 170.722 223.108 170.744 222.558C170.751 222.485 170.755 222.345 170.755 222.14C170.755 221.935 170.751 221.795 170.744 221.722C170.722 221.172 170.575 220.75 170.304 220.457C170.04 220.164 169.677 220.017 169.215 220.017C168.753 220.017 168.386 220.164 168.115 220.457C167.844 220.75 167.701 221.172 167.686 221.722L167.675 222.14L167.686 222.558C167.701 223.108 167.844 223.53 168.115 223.823C168.386 224.116 168.753 224.263 169.215 224.263ZM173.442 225C173.368 225 173.306 224.978 173.255 224.934C173.211 224.883 173.189 224.82 173.189 224.747V219.544C173.189 219.471 173.211 219.408 173.255 219.357C173.306 219.306 173.368 219.28 173.442 219.28H173.948C174.021 219.28 174.083 219.306 174.135 219.357C174.186 219.408 174.212 219.471 174.212 219.544V220.028C174.512 219.529 175.026 219.28 175.752 219.28H176.181C176.254 219.28 176.313 219.306 176.357 219.357C176.408 219.401 176.434 219.46 176.434 219.533V219.984C176.434 220.057 176.408 220.116 176.357 220.16C176.313 220.204 176.254 220.226 176.181 220.226H175.521C175.125 220.226 174.813 220.343 174.586 220.578C174.358 220.805 174.245 221.117 174.245 221.513V224.747C174.245 224.82 174.219 224.883 174.168 224.934C174.116 224.978 174.054 225 173.981 225H173.442ZM180.506 227.09C180.447 227.09 180.396 227.068 180.352 227.024C180.308 226.98 180.286 226.929 180.286 226.87C180.286 226.819 180.304 226.753 180.341 226.672L181.188 224.659L179.087 219.698C179.05 219.603 179.032 219.54 179.032 219.511C179.032 219.445 179.054 219.39 179.098 219.346C179.142 219.302 179.197 219.28 179.263 219.28H179.802C179.919 219.28 180.007 219.342 180.066 219.467L181.738 223.471L183.454 219.467C183.513 219.342 183.604 219.28 183.729 219.28H184.246C184.312 219.28 184.367 219.302 184.411 219.346C184.455 219.39 184.477 219.441 184.477 219.5C184.477 219.522 184.459 219.588 184.422 219.698L181.298 226.903C181.239 227.028 181.148 227.09 181.023 227.09H180.506ZM187.724 225.11C186.917 225.11 186.29 224.883 185.843 224.428C185.403 223.973 185.168 223.368 185.139 222.613L185.128 222.14L185.139 221.667C185.168 220.919 185.407 220.318 185.854 219.863C186.301 219.401 186.925 219.17 187.724 219.17C188.523 219.17 189.147 219.401 189.594 219.863C190.041 220.318 190.28 220.919 190.309 221.667C190.316 221.748 190.32 221.905 190.32 222.14C190.32 222.375 190.316 222.532 190.309 222.613C190.28 223.368 190.041 223.973 189.594 224.428C189.154 224.883 188.531 225.11 187.724 225.11ZM187.724 224.263C188.186 224.263 188.549 224.116 188.813 223.823C189.084 223.53 189.231 223.108 189.253 222.558C189.26 222.485 189.264 222.345 189.264 222.14C189.264 221.935 189.26 221.795 189.253 221.722C189.231 221.172 189.084 220.75 188.813 220.457C188.549 220.164 188.186 220.017 187.724 220.017C187.262 220.017 186.895 220.164 186.624 220.457C186.353 220.75 186.21 221.172 186.195 221.722L186.184 222.14L186.195 222.558C186.21 223.108 186.353 223.53 186.624 223.823C186.895 224.116 187.262 224.263 187.724 224.263ZM193.831 225.11C193.135 225.11 192.596 224.886 192.214 224.439C191.833 223.984 191.642 223.383 191.642 222.635V219.533C191.642 219.46 191.664 219.401 191.708 219.357C191.76 219.306 191.822 219.28 191.895 219.28H192.445C192.519 219.28 192.577 219.306 192.621 219.357C192.673 219.401 192.698 219.46 192.698 219.533V222.58C192.698 223.673 193.175 224.219 194.128 224.219C194.59 224.219 194.957 224.076 195.228 223.79C195.5 223.497 195.635 223.093 195.635 222.58V219.533C195.635 219.46 195.657 219.401 195.701 219.357C195.753 219.306 195.815 219.28 195.888 219.28H196.438C196.512 219.28 196.57 219.306 196.614 219.357C196.658 219.401 196.68 219.46 196.68 219.533V224.747C196.68 224.82 196.658 224.883 196.614 224.934C196.57 224.978 196.512 225 196.438 225H195.921C195.848 225 195.786 224.978 195.734 224.934C195.69 224.883 195.668 224.82 195.668 224.747V224.263C195.463 224.542 195.214 224.754 194.92 224.901C194.627 225.04 194.264 225.11 193.831 225.11Z" fill="#767E86"/>
<path d="M32.3799 182C32.2299 182 32.1099 181.96 32.0199 181.88C31.9299 181.8 31.8749 181.69 31.8549 181.55L30.0699 171.935L30.0549 171.815C30.0549 171.725 30.0849 171.65 30.1449 171.59C30.2149 171.53 30.2899 171.5 30.3699 171.5H31.6899C31.9399 171.5 32.0799 171.6 32.1099 171.8L33.3549 178.595L34.7049 174.2C34.8049 173.95 34.9699 173.825 35.1999 173.825H36.0099C36.2599 173.825 36.4199 173.95 36.4899 174.2L37.8549 178.58L39.0999 171.8C39.1199 171.69 39.1599 171.615 39.2199 171.575C39.2899 171.525 39.3899 171.5 39.5199 171.5H40.8399C40.9199 171.5 40.9899 171.53 41.0499 171.59C41.1099 171.65 41.1399 171.725 41.1399 171.815C41.1399 171.865 41.1349 171.905 41.1249 171.935L39.3399 181.55C39.2899 181.85 39.1149 182 38.8149 182H37.8099C37.6699 182 37.5549 181.965 37.4649 181.895C37.3749 181.825 37.3149 181.735 37.2849 181.625L35.6049 176.615L33.9249 181.625C33.8249 181.875 33.6449 182 33.3849 182H32.3799ZM45.788 182.15C44.678 182.15 43.793 181.83 43.133 181.19C42.483 180.54 42.138 179.63 42.098 178.46L42.083 178.085L42.098 177.71C42.148 176.57 42.498 175.675 43.148 175.025C43.808 174.375 44.688 174.05 45.788 174.05C46.968 174.05 47.878 174.41 48.518 175.13C49.168 175.85 49.493 176.81 49.493 178.01V178.325C49.493 178.425 49.458 178.51 49.388 178.58C49.318 178.65 49.228 178.685 49.118 178.685H44.138V178.805C44.158 179.355 44.308 179.82 44.588 180.2C44.878 180.57 45.273 180.755 45.773 180.755C46.363 180.755 46.838 180.525 47.198 180.065C47.288 179.955 47.358 179.885 47.408 179.855C47.468 179.825 47.553 179.81 47.663 179.81H48.953C49.043 179.81 49.118 179.84 49.178 179.9C49.248 179.95 49.283 180.015 49.283 180.095C49.283 180.335 49.138 180.62 48.848 180.95C48.568 181.27 48.163 181.55 47.633 181.79C47.103 182.03 46.488 182.15 45.788 182.15ZM47.453 177.425V177.38C47.453 176.79 47.303 176.315 47.003 175.955C46.713 175.595 46.308 175.415 45.788 175.415C45.268 175.415 44.863 175.595 44.573 175.955C44.283 176.315 44.138 176.79 44.138 177.38V177.425H47.453ZM50.7047 174.695C50.6147 174.695 50.5447 174.665 50.4947 174.605C50.4447 174.545 50.4247 174.465 50.4347 174.365L50.8397 171.83C50.8597 171.69 50.9097 171.575 50.9897 171.485C51.0697 171.395 51.1797 171.35 51.3197 171.35H52.6997C52.7697 171.35 52.8297 171.38 52.8797 171.44C52.9397 171.49 52.9697 171.55 52.9697 171.62C52.9697 171.68 52.9547 171.75 52.9247 171.83L51.9647 174.305C51.9047 174.425 51.8397 174.52 51.7697 174.59C51.6997 174.66 51.5997 174.695 51.4697 174.695H50.7047ZM54.7561 182C54.6561 182 54.5711 181.965 54.5011 181.895C54.4311 181.825 54.3961 181.74 54.3961 181.64V171.71C54.3961 171.6 54.4311 171.515 54.5011 171.455C54.5711 171.385 54.6561 171.35 54.7561 171.35H56.0011C56.1111 171.35 56.1961 171.385 56.2561 171.455C56.3261 171.515 56.3611 171.6 56.3611 171.71V181.64C56.3611 181.74 56.3261 181.825 56.2561 181.895C56.1961 181.965 56.1111 182 56.0011 182H54.7561ZM58.7258 182C58.6258 182 58.5408 181.965 58.4708 181.895C58.4008 181.825 58.3658 181.74 58.3658 181.64V171.71C58.3658 171.6 58.4008 171.515 58.4708 171.455C58.5408 171.385 58.6258 171.35 58.7258 171.35H59.9708C60.0808 171.35 60.1658 171.385 60.2258 171.455C60.2958 171.515 60.3308 171.6 60.3308 171.71V181.64C60.3308 181.74 60.2958 181.825 60.2258 181.895C60.1658 181.965 60.0808 182 59.9708 182H58.7258ZM70.0683 182.15C69.0383 182.15 68.2383 181.795 67.6683 181.085V181.64C67.6683 181.74 67.6333 181.825 67.5633 181.895C67.5033 181.965 67.4183 182 67.3083 182H66.1233C66.0233 182 65.9383 181.965 65.8683 181.895C65.7983 181.825 65.7633 181.74 65.7633 181.64V171.71C65.7633 171.6 65.7983 171.515 65.8683 171.455C65.9383 171.385 66.0233 171.35 66.1233 171.35H67.3983C67.5083 171.35 67.5933 171.385 67.6533 171.455C67.7233 171.515 67.7583 171.6 67.7583 171.71V175.04C68.3283 174.38 69.0983 174.05 70.0683 174.05C71.0783 174.05 71.8533 174.38 72.3933 175.04C72.9333 175.7 73.2233 176.555 73.2633 177.605C73.2733 177.725 73.2783 177.885 73.2783 178.085C73.2783 178.295 73.2733 178.46 73.2633 178.58C73.2233 179.66 72.9333 180.525 72.3933 181.175C71.8533 181.825 71.0783 182.15 70.0683 182.15ZM69.5133 180.545C70.5933 180.545 71.1683 179.88 71.2383 178.55C71.2483 178.45 71.2533 178.3 71.2533 178.1C71.2533 177.9 71.2483 177.75 71.2383 177.65C71.1683 176.32 70.5933 175.655 69.5133 175.655C68.9533 175.655 68.5233 175.835 68.2233 176.195C67.9333 176.545 67.7783 176.97 67.7583 177.47L67.7433 178.04L67.7583 178.625C67.7883 179.165 67.9433 179.62 68.2233 179.99C68.5033 180.36 68.9333 180.545 69.5133 180.545ZM78.3075 182.15C77.1975 182.15 76.3125 181.83 75.6525 181.19C75.0025 180.54 74.6575 179.63 74.6175 178.46L74.6025 178.085L74.6175 177.71C74.6675 176.57 75.0175 175.675 75.6675 175.025C76.3275 174.375 77.2075 174.05 78.3075 174.05C79.4875 174.05 80.3975 174.41 81.0375 175.13C81.6875 175.85 82.0125 176.81 82.0125 178.01V178.325C82.0125 178.425 81.9775 178.51 81.9075 178.58C81.8375 178.65 81.7475 178.685 81.6375 178.685H76.6575V178.805C76.6775 179.355 76.8275 179.82 77.1075 180.2C77.3975 180.57 77.7925 180.755 78.2925 180.755C78.8825 180.755 79.3575 180.525 79.7175 180.065C79.8075 179.955 79.8775 179.885 79.9275 179.855C79.9875 179.825 80.0725 179.81 80.1825 179.81H81.4725C81.5625 179.81 81.6375 179.84 81.6975 179.9C81.7675 179.95 81.8025 180.015 81.8025 180.095C81.8025 180.335 81.6575 180.62 81.3675 180.95C81.0875 181.27 80.6825 181.55 80.1525 181.79C79.6225 182.03 79.0075 182.15 78.3075 182.15ZM79.9725 177.425V177.38C79.9725 176.79 79.8225 176.315 79.5225 175.955C79.2325 175.595 78.8275 175.415 78.3075 175.415C77.7875 175.415 77.3825 175.595 77.0925 175.955C76.8025 176.315 76.6575 176.79 76.6575 177.38V177.425H79.9725ZM91.3525 182.15C90.3225 182.15 89.5225 181.795 88.9525 181.085V181.64C88.9525 181.74 88.9175 181.825 88.8475 181.895C88.7875 181.965 88.7025 182 88.5925 182H87.4075C87.3075 182 87.2225 181.965 87.1525 181.895C87.0825 181.825 87.0475 181.74 87.0475 181.64V171.71C87.0475 171.6 87.0825 171.515 87.1525 171.455C87.2225 171.385 87.3075 171.35 87.4075 171.35H88.6825C88.7925 171.35 88.8775 171.385 88.9375 171.455C89.0075 171.515 89.0425 171.6 89.0425 171.71V175.04C89.6125 174.38 90.3825 174.05 91.3525 174.05C92.3625 174.05 93.1375 174.38 93.6775 175.04C94.2175 175.7 94.5075 176.555 94.5475 177.605C94.5575 177.725 94.5625 177.885 94.5625 178.085C94.5625 178.295 94.5575 178.46 94.5475 178.58C94.5075 179.66 94.2175 180.525 93.6775 181.175C93.1375 181.825 92.3625 182.15 91.3525 182.15ZM90.7975 180.545C91.8775 180.545 92.4525 179.88 92.5225 178.55C92.5325 178.45 92.5375 178.3 92.5375 178.1C92.5375 177.9 92.5325 177.75 92.5225 177.65C92.4525 176.32 91.8775 175.655 90.7975 175.655C90.2375 175.655 89.8075 175.835 89.5075 176.195C89.2175 176.545 89.0625 176.97 89.0425 177.47L89.0275 178.04L89.0425 178.625C89.0725 179.165 89.2275 179.62 89.5075 179.99C89.7875 180.36 90.2175 180.545 90.7975 180.545ZM98.4967 182.15C97.9867 182.15 97.5167 182.05 97.0867 181.85C96.6667 181.64 96.3317 181.36 96.0817 181.01C95.8417 180.66 95.7217 180.275 95.7217 179.855C95.7217 179.175 95.9967 178.625 96.5467 178.205C97.0967 177.785 97.8517 177.5 98.8117 177.35L100.867 177.05V176.735C100.867 176.295 100.757 175.965 100.537 175.745C100.317 175.525 99.9617 175.415 99.4717 175.415C99.1417 175.415 98.8717 175.48 98.6617 175.61C98.4617 175.73 98.3017 175.85 98.1817 175.97C98.0617 176.1 97.9817 176.185 97.9417 176.225C97.9017 176.345 97.8267 176.405 97.7167 176.405H96.5617C96.4717 176.405 96.3917 176.375 96.3217 176.315C96.2617 176.255 96.2317 176.175 96.2317 176.075C96.2417 175.825 96.3617 175.54 96.5917 175.22C96.8317 174.9 97.1967 174.625 97.6867 174.395C98.1767 174.165 98.7767 174.05 99.4867 174.05C100.667 174.05 101.527 174.315 102.067 174.845C102.607 175.375 102.877 176.07 102.877 176.93V181.64C102.877 181.74 102.842 181.825 102.772 181.895C102.712 181.965 102.627 182 102.517 182H101.302C101.202 182 101.117 181.965 101.047 181.895C100.977 181.825 100.942 181.74 100.942 181.64V181.055C100.722 181.375 100.407 181.64 99.9967 181.85C99.5967 182.05 99.0967 182.15 98.4967 182.15ZM99.0067 180.725C99.5567 180.725 100.007 180.545 100.357 180.185C100.707 179.825 100.882 179.3 100.882 178.61V178.295L99.3817 178.535C98.8017 178.625 98.3617 178.77 98.0617 178.97C97.7717 179.17 97.6267 179.415 97.6267 179.705C97.6267 180.025 97.7617 180.275 98.0317 180.455C98.3017 180.635 98.6267 180.725 99.0067 180.725ZM108.176 182.15C107.076 182.15 106.196 181.845 105.536 181.235C104.886 180.625 104.541 179.78 104.501 178.7L104.486 178.1L104.501 177.5C104.541 176.42 104.886 175.575 105.536 174.965C106.196 174.355 107.076 174.05 108.176 174.05C108.956 174.05 109.616 174.19 110.156 174.47C110.706 174.75 111.111 175.095 111.371 175.505C111.641 175.905 111.786 176.285 111.806 176.645C111.816 176.745 111.781 176.83 111.701 176.9C111.631 176.97 111.546 177.005 111.446 177.005H110.126C110.026 177.005 109.946 176.985 109.886 176.945C109.836 176.895 109.786 176.815 109.736 176.705C109.586 176.315 109.386 176.035 109.136 175.865C108.896 175.695 108.586 175.61 108.206 175.61C107.696 175.61 107.296 175.775 107.006 176.105C106.716 176.425 106.561 176.915 106.541 177.575L106.526 178.13L106.541 178.625C106.581 179.935 107.136 180.59 108.206 180.59C108.596 180.59 108.911 180.505 109.151 180.335C109.391 180.165 109.586 179.885 109.736 179.495C109.786 179.385 109.836 179.31 109.886 179.27C109.946 179.22 110.026 179.195 110.126 179.195H111.446C111.546 179.195 111.631 179.23 111.701 179.3C111.781 179.37 111.816 179.455 111.806 179.555C111.786 179.905 111.646 180.28 111.386 180.68C111.126 181.08 110.726 181.425 110.186 181.715C109.646 182.005 108.976 182.15 108.176 182.15ZM113.745 182C113.645 182 113.56 181.965 113.49 181.895C113.42 181.825 113.385 181.74 113.385 181.64V171.71C113.385 171.6 113.42 171.515 113.49 171.455C113.56 171.385 113.645 171.35 113.745 171.35H114.96C115.07 171.35 115.155 171.385 115.215 171.455C115.285 171.515 115.32 171.6 115.32 171.71V176.84L117.84 174.455C117.87 174.435 117.92 174.395 117.99 174.335C118.05 174.285 118.11 174.25 118.17 174.23C118.23 174.21 118.305 174.2 118.395 174.2H119.79C119.89 174.2 119.97 174.23 120.03 174.29C120.09 174.35 120.12 174.43 120.12 174.53C120.12 174.62 120.07 174.71 119.97 174.8L116.88 177.695L120.345 181.415C120.445 181.515 120.495 181.6 120.495 181.67C120.495 181.77 120.46 181.85 120.39 181.91C120.33 181.97 120.255 182 120.165 182H118.74C118.6 182 118.495 181.985 118.425 181.955C118.365 181.915 118.285 181.845 118.185 181.745L115.32 178.73V181.64C115.32 181.74 115.285 181.825 115.215 181.895C115.155 181.965 115.07 182 114.96 182H113.745ZM127.898 182.15C127.148 182.15 126.518 182.04 126.008 181.82C125.498 181.59 125.118 181.325 124.868 181.025C124.628 180.715 124.508 180.45 124.508 180.23C124.508 180.13 124.543 180.05 124.613 179.99C124.683 179.93 124.763 179.9 124.853 179.9H126.038C126.128 179.9 126.203 179.935 126.263 180.005C126.303 180.035 126.408 180.125 126.578 180.275C126.748 180.435 126.948 180.56 127.178 180.65C127.408 180.74 127.663 180.785 127.943 180.785C128.343 180.785 128.673 180.705 128.933 180.545C129.193 180.385 129.323 180.165 129.323 179.885C129.323 179.675 129.263 179.505 129.143 179.375C129.033 179.245 128.828 179.13 128.528 179.03C128.228 178.92 127.783 178.805 127.193 178.685C126.343 178.505 125.713 178.23 125.303 177.86C124.903 177.49 124.703 177 124.703 176.39C124.703 175.99 124.823 175.615 125.063 175.265C125.303 174.905 125.658 174.615 126.128 174.395C126.608 174.165 127.178 174.05 127.838 174.05C128.508 174.05 129.088 174.16 129.578 174.38C130.068 174.59 130.438 174.845 130.688 175.145C130.948 175.435 131.078 175.695 131.078 175.925C131.078 176.015 131.043 176.095 130.973 176.165C130.913 176.225 130.838 176.255 130.748 176.255H129.638C129.558 176.255 129.473 176.22 129.383 176.15C129.313 176.1 129.203 176.005 129.053 175.865C128.903 175.725 128.728 175.615 128.528 175.535C128.328 175.455 128.093 175.415 127.823 175.415C127.453 175.415 127.163 175.495 126.953 175.655C126.753 175.815 126.653 176.025 126.653 176.285C126.653 176.475 126.703 176.63 126.803 176.75C126.903 176.87 127.098 176.985 127.388 177.095C127.678 177.205 128.113 177.315 128.693 177.425C129.653 177.615 130.338 177.91 130.748 178.31C131.168 178.71 131.378 179.2 131.378 179.78C131.378 180.48 131.073 181.05 130.463 181.49C129.853 181.93 128.998 182.15 127.898 182.15ZM133.301 182C133.201 182 133.116 181.965 133.046 181.895C132.976 181.825 132.941 181.74 132.941 181.64V171.71C132.941 171.6 132.976 171.515 133.046 171.455C133.116 171.385 133.201 171.35 133.301 171.35H134.636C134.746 171.35 134.831 171.385 134.891 171.455C134.961 171.515 134.996 171.6 134.996 171.71V175.13C135.596 174.41 136.406 174.05 137.426 174.05C138.346 174.05 139.081 174.355 139.631 174.965C140.181 175.565 140.456 176.385 140.456 177.425V181.64C140.456 181.74 140.421 181.825 140.351 181.895C140.291 181.965 140.206 182 140.096 182H138.746C138.646 182 138.561 181.965 138.491 181.895C138.421 181.825 138.386 181.74 138.386 181.64V177.515C138.386 176.925 138.241 176.47 137.951 176.15C137.671 175.82 137.261 175.655 136.721 175.655C136.191 175.655 135.771 175.82 135.461 176.15C135.151 176.48 134.996 176.935 134.996 177.515V181.64C134.996 181.74 134.961 181.825 134.891 181.895C134.831 181.965 134.746 182 134.636 182H133.301ZM145.81 182.15C144.64 182.15 143.735 181.85 143.095 181.25C142.455 180.64 142.11 179.81 142.06 178.76L142.045 178.1L142.06 177.44C142.11 176.4 142.46 175.575 143.11 174.965C143.76 174.355 144.66 174.05 145.81 174.05C146.96 174.05 147.86 174.355 148.51 174.965C149.16 175.575 149.51 176.4 149.56 177.44C149.57 177.56 149.575 177.78 149.575 178.1C149.575 178.42 149.57 178.64 149.56 178.76C149.51 179.81 149.165 180.64 148.525 181.25C147.885 181.85 146.98 182.15 145.81 182.15ZM145.81 180.665C146.34 180.665 146.75 180.5 147.04 180.17C147.33 179.83 147.49 179.335 147.52 178.685C147.53 178.585 147.535 178.39 147.535 178.1C147.535 177.81 147.53 177.615 147.52 177.515C147.49 176.865 147.33 176.375 147.04 176.045C146.75 175.705 146.34 175.535 145.81 175.535C145.28 175.535 144.87 175.705 144.58 176.045C144.29 176.375 144.13 176.865 144.1 177.515L144.085 178.1L144.1 178.685C144.13 179.335 144.29 179.83 144.58 180.17C144.87 180.5 145.28 180.665 145.81 180.665ZM151.597 182C151.497 182 151.412 181.965 151.342 181.895C151.272 181.825 151.237 181.74 151.237 181.64V174.575C151.237 174.475 151.272 174.39 151.342 174.32C151.412 174.24 151.497 174.2 151.597 174.2H152.812C152.922 174.2 153.012 174.235 153.082 174.305C153.152 174.375 153.187 174.465 153.187 174.575V175.19C153.427 174.87 153.727 174.625 154.087 174.455C154.457 174.285 154.877 174.2 155.347 174.2H155.962C156.072 174.2 156.157 174.235 156.217 174.305C156.287 174.365 156.322 174.45 156.322 174.56V175.64C156.322 175.74 156.287 175.825 156.217 175.895C156.157 175.965 156.072 176 155.962 176H154.792C154.322 176 153.952 176.135 153.682 176.405C153.412 176.675 153.277 177.045 153.277 177.515V181.64C153.277 181.74 153.242 181.825 153.172 181.895C153.102 181.965 153.012 182 152.902 182H151.597ZM161.016 182C160.106 182 159.421 181.765 158.961 181.295C158.511 180.815 158.286 180.115 158.286 179.195V175.79H157.101C157.001 175.79 156.916 175.755 156.846 175.685C156.776 175.605 156.741 175.515 156.741 175.415V174.56C156.741 174.46 156.776 174.375 156.846 174.305C156.916 174.235 157.001 174.2 157.101 174.2H158.286V171.71C158.286 171.6 158.321 171.515 158.391 171.455C158.461 171.385 158.546 171.35 158.646 171.35H159.861C159.971 171.35 160.056 171.385 160.116 171.455C160.186 171.515 160.221 171.6 160.221 171.71V174.2H162.096C162.206 174.2 162.291 174.235 162.351 174.305C162.421 174.365 162.456 174.45 162.456 174.56V175.415C162.456 175.525 162.421 175.615 162.351 175.685C162.281 175.755 162.196 175.79 162.096 175.79H160.221V179.045C160.221 179.475 160.296 179.8 160.446 180.02C160.596 180.24 160.846 180.35 161.196 180.35H162.231C162.331 180.35 162.416 180.385 162.486 180.455C162.556 180.525 162.591 180.61 162.591 180.71V181.64C162.591 181.74 162.556 181.825 162.486 181.895C162.426 181.965 162.341 182 162.231 182H161.016ZM164.297 182C164.197 182 164.112 181.965 164.042 181.895C163.972 181.825 163.937 181.74 163.937 181.64V171.71C163.937 171.6 163.972 171.515 164.042 171.455C164.112 171.385 164.197 171.35 164.297 171.35H165.542C165.652 171.35 165.737 171.385 165.797 171.455C165.867 171.515 165.902 171.6 165.902 171.71V181.64C165.902 181.74 165.867 181.825 165.797 181.895C165.737 181.965 165.652 182 165.542 182H164.297ZM169.302 184.85C169.222 184.85 169.152 184.82 169.092 184.76C169.032 184.7 169.002 184.63 169.002 184.55C169.002 184.46 169.022 184.38 169.062 184.31L170.232 181.535L167.352 174.74C167.312 174.65 167.292 174.58 167.292 174.53C167.302 174.44 167.337 174.365 167.397 174.305C167.457 174.235 167.532 174.2 167.622 174.2H168.837C169.027 174.2 169.162 174.295 169.242 174.485L171.237 179.39L173.292 174.485C173.372 174.295 173.507 174.2 173.697 174.2H174.897C174.977 174.2 175.047 174.23 175.107 174.29C175.177 174.35 175.212 174.42 175.212 174.5C175.212 174.57 175.192 174.65 175.152 174.74L170.907 184.565C170.817 184.755 170.677 184.85 170.487 184.85H169.302Z" fill="#160D2E"/>
<path d="M65.579 78.1603C65.535 78.0189 61.1779 63.9167 59.5516 57.0532C53.8878 33.1486 44.8271 27.5674 44.7365 27.5135L45.101 26.9019C45.4823 27.1245 54.502 32.6352 60.2491 56.8904C61.8696 63.7314 66.2203 77.8107 66.2637 77.952L65.579 78.1603Z" fill="#C6C5E8"/>
<path d="M42.6338 22.6145C36.9575 25.4519 50.2814 33.4532 50.2814 33.4532C50.2814 33.4532 50.1233 18.871 42.6338 22.6145Z" fill="#C6C5E8"/>
<path d="M45.6759 41.0965C44.9154 45.4135 54.947 41.3667 54.947 41.3667C54.947 41.3667 46.6791 35.4007 45.6759 41.0965Z" fill="#C6C5E8"/>
<path d="M59.3094 33.7738C55.9915 30.8787 54.241 41.4761 54.241 41.4761C54.241 41.4761 63.6869 37.5936 59.3094 33.7738Z" fill="#C6C5E8"/>
<path d="M53.0429 64.7517C52.2826 69.0687 62.3142 65.022 62.3142 65.022C62.3142 65.022 54.0463 59.0562 53.0429 64.7517Z" fill="#C6C5E8"/>
<path d="M66.6764 57.4292C63.3587 54.5339 61.608 65.1313 61.608 65.1313C61.608 65.1313 71.0539 61.2489 66.6764 57.4292Z" fill="#C6C5E8"/>
<path d="M45.8599 52.8855C44.2903 59.1766 59.509 54.2295 59.509 54.2295C59.509 54.2295 47.9307 44.5852 45.8599 52.8855Z" fill="#C6C5E8"/>
<path d="M66.1033 45.0321C62.1896 41.0949 59.0311 54.2743 59.0311 54.2743C59.0311 54.2743 71.2671 50.2269 66.1033 45.0321Z" fill="#C6C5E8"/>
<path d="M190.828 80.0369C179.706 75.8971 171.572 102.143 172.497 103.662C173.931 101.495 176.041 98.3158 179.134 93.6675C184.327 85.8644 188.409 81.9304 190.828 80.0369Z" fill="#5F40AF"/>
<path d="M179.521 93.8697C176.502 98.4067 174.421 101.542 172.989 103.704C176.708 102.746 199.722 86.8324 193.749 81.8053C192.915 81.1036 192.095 80.588 191.289 80.2292C188.922 82.0595 184.768 85.9836 179.521 93.8697Z" fill="#A998D2"/>
<path d="M172.989 103.704C174.421 101.542 176.501 98.4067 179.52 93.8697C184.768 85.9836 188.921 82.0595 191.289 80.2293C191.134 80.1606 190.98 80.0937 190.827 80.0369C188.408 81.9304 184.326 85.8644 179.133 93.6675C176.04 98.3158 173.931 101.495 172.496 103.662C172.508 103.682 172.521 103.702 172.536 103.713C172.611 103.768 172.767 103.761 172.989 103.704Z" fill="white"/>
<path d="M175.224 103.074C181.337 99.9804 191.345 95.6671 194.876 94.1613C189.58 86.7558 176.254 100.771 175.224 103.074Z" fill="#5F40AF"/>
<path d="M195.351 94.9225C195.258 94.7509 195.161 94.59 195.061 94.4354C191.536 95.9382 181.363 100.321 175.262 103.42C176.93 104.178 199.207 102.024 195.351 94.9225Z" fill="#A998D2"/>
<path d="M175.17 103.352C175.184 103.377 175.217 103.4 175.263 103.42C181.364 100.321 191.537 95.9382 195.062 94.4354C195.001 94.3408 194.939 94.2495 194.876 94.1613C191.345 95.6671 181.337 99.9804 175.224 103.074C175.164 103.207 175.143 103.304 175.17 103.352Z" fill="white"/>
<path d="M175.945 56.375C175.405 58.1375 174.811 60.0349 174.184 62.0369C173.587 63.9448 172.954 65.9707 172.308 68.0653L163.042 58.4223C163.441 52.6296 162.074 46.557 162.223 42.584C162.253 41.7838 162.483 40.3465 162.987 38.6904L177.218 47.8695C177.156 50.7294 176.787 53.6307 175.945 56.375Z" fill="#DFD8EF"/>
<path d="M174.956 28.7015C181.968 29.2005 185.62 33.8424 187.429 39.3675L178.119 46.7209C178.071 38.8526 175.899 31.5193 174.956 28.7015Z" fill="#DFD8EF"/>
<path d="M175.04 62.3006C175.667 60.2969 176.262 58.3982 176.803 56.6334C177.672 53.8003 178.049 50.8089 178.111 47.8641L187.71 40.2825C188.453 42.8677 188.824 45.6006 188.968 48.1643C189.209 52.4595 187.872 57.2676 186.231 61.8554C181.179 63.6887 175.512 66.7341 173.272 67.9818C173.88 66.0107 174.476 64.1028 175.04 62.3006Z" fill="#DFD8EF"/>
<path d="M177.225 46.8144L163.275 37.8152C164.726 33.6614 167.85 28.6478 173.702 28.6528C173.802 28.6528 173.897 28.6598 173.996 28.6616C174.85 31.1468 177.195 38.7123 177.225 46.8144Z" fill="#DFD8EF"/>
<path d="M165.917 91.3242C164.094 88.3071 158.399 78.8022 155.627 73.2696C157.654 70.9023 159.631 68.7279 161.144 65.8311C162.151 63.9041 162.681 61.7807 162.929 59.5946L172.008 69.0416C169.868 76.0195 167.607 83.7969 165.917 91.3242Z" fill="#DFD8EF"/>
<path d="M147.463 88.7991C149.183 81.5015 152.097 77.462 154.998 74.0106C158.22 80.3691 164.771 91.1655 165.641 92.5958C164.751 96.7075 164.044 100.723 163.637 104.47C155.702 104.495 148.485 104.45 148.088 104.465C147.198 104.5 144.414 101.737 147.463 88.7991Z" fill="#F5CE64"/>
<path d="M172.891 69.2182C173.936 68.6237 180.214 65.0988 185.833 62.9526C183.935 68.0801 181.778 72.8517 181.172 76.2055C180.398 80.488 180.579 83.1559 181.425 85.6894C177.073 89.019 169.102 91.2718 166.709 91.8956C168.407 84.2514 170.713 76.3192 172.891 69.2182Z" fill="#DFD8EF"/>
<path d="M181.743 86.5559C182.207 87.7323 182.805 88.9157 183.516 90.257C185.926 94.8032 185.358 102.892 184.837 103.796C184.556 104.283 174.192 104.429 164.54 104.466C164.942 100.806 165.632 96.8861 166.5 92.8685C168.226 92.4421 176.829 90.1907 181.743 86.5559Z" fill="#DFD8EF"/>
<path d="M172.308 68.0653C172.954 65.9706 173.587 63.9448 174.184 62.0369C174.811 60.0349 175.404 58.1375 175.945 56.375C176.786 53.6307 177.156 50.7294 177.218 47.8695L177.705 48.1839L178.11 47.8639C178.049 50.8088 177.671 53.8001 176.803 56.6332C176.262 58.3981 175.667 60.2967 175.04 62.3005C174.476 64.1026 173.88 66.0105 173.271 67.9817C172.997 68.1344 172.757 68.2695 172.593 68.3622L172.308 68.0653Z" fill="white"/>
<path d="M178.119 46.7208L177.652 47.0895L177.225 46.8143C177.194 38.7122 174.849 31.1467 173.996 28.6615C174.322 28.6669 174.642 28.6793 174.955 28.7014C175.898 31.5193 178.071 38.8525 178.119 46.7208Z" fill="white"/>
<path d="M165.917 91.3241C167.607 83.7968 169.868 76.0194 172.008 69.0416L172.432 69.4827L172.737 69.3058C172.744 69.3017 172.799 69.2706 172.891 69.2181C170.712 76.3191 168.407 84.2513 166.708 91.8955C166.56 91.9341 166.426 91.9688 166.323 91.9948C166.226 91.8352 166.086 91.6045 165.917 91.3241Z" fill="white"/>
<path d="M165.726 92.7354L165.895 93.0125L166.213 92.9378C166.254 92.9282 166.352 92.905 166.499 92.8686C165.631 96.8861 164.942 100.806 164.54 104.466C164.238 104.468 163.937 104.469 163.637 104.47C164.043 100.723 164.751 96.7075 165.641 92.5958C165.68 92.6599 165.711 92.7103 165.726 92.7354Z" fill="white"/>
<path d="M177.218 47.8696L162.987 38.6905C163.074 38.4048 163.171 38.1119 163.275 37.8153L177.225 46.8145C177.227 47.1653 177.226 47.5168 177.218 47.8696Z" fill="white"/>
<path d="M178.119 46.7209L187.429 39.3675C187.528 39.6701 187.622 39.9749 187.71 40.2824L178.111 47.864C178.119 47.482 178.121 47.1007 178.119 46.7209Z" fill="white"/>
<path d="M177.218 47.8697C177.225 47.5169 177.226 47.1654 177.225 46.8145L177.652 47.0896L178.119 46.721C178.121 47.1008 178.118 47.4821 178.11 47.8641L177.705 48.1841L177.218 47.8697Z" fill="white"/>
<path d="M172.008 69.0417L162.929 59.5947C162.974 59.2054 163.015 58.8151 163.042 58.4224L172.308 68.0654C172.208 68.3906 172.109 68.7129 172.008 69.0417Z" fill="white"/>
<path d="M173.271 67.9818C175.512 66.7341 181.178 63.6887 186.231 61.8554C186.099 62.2226 185.967 62.5887 185.833 62.9526C180.214 65.0988 173.936 68.6237 172.891 69.2182C173.019 68.8022 173.145 68.3919 173.271 67.9818Z" fill="white"/>
<path d="M172.432 69.4829L172.008 69.0417C172.108 68.7129 172.208 68.3906 172.308 68.0655L172.593 68.3623C172.757 68.2696 172.997 68.1345 173.271 67.9818C173.145 68.3919 173.018 68.8022 172.891 69.2182C172.799 69.2708 172.744 69.3019 172.737 69.3059L172.432 69.4829Z" fill="white"/>
<path d="M166.709 91.8955C169.102 91.2716 177.073 89.0188 181.425 85.6892C181.522 85.979 181.629 86.2677 181.743 86.5559C176.829 90.1907 168.226 92.4421 166.5 92.8685C166.569 92.544 166.636 92.2212 166.709 91.8955Z" fill="white"/>
<path d="M165.641 92.5958C164.77 91.1655 158.22 80.3691 154.998 74.0106C155.208 73.7608 155.418 73.5146 155.627 73.2697C158.399 78.8022 164.094 88.3071 165.917 91.3242C165.821 91.75 165.733 92.1718 165.641 92.5958Z" fill="white"/>
<path d="M166.323 91.9948C166.426 91.9688 166.561 91.9341 166.709 91.8955C166.637 92.2213 166.57 92.544 166.5 92.8685C166.352 92.905 166.254 92.9281 166.214 92.9378L165.895 93.0124L165.727 92.7353C165.711 92.7103 165.681 92.6599 165.642 92.5957C165.734 92.1717 165.821 91.7499 165.917 91.3242C166.087 91.6045 166.226 91.8352 166.323 91.9948Z" fill="white"/>
<path d="M160.206 101.258L159.613 100.662C159.701 100.576 168.465 91.8624 175.656 72.9062C182.917 53.7609 195.07 41.5226 195.192 41.401L195.791 41.9921C195.67 42.1122 183.641 54.2321 176.446 73.2007C169.184 92.3469 160.295 101.171 160.206 101.258Z" fill="#C6C5E8"/>
<path d="M197.82 39.5798C202.144 42.4933 190.419 47.6104 190.419 47.6104C190.419 47.6104 192.115 35.7361 197.82 39.5798Z" fill="#C6C5E8"/>
<path d="M193.809 53.627C193.965 57.2275 186.22 52.868 186.22 52.868C186.22 52.868 193.603 48.8763 193.809 53.627Z" fill="#C6C5E8"/>
<path d="M183.478 46.2156C186.495 44.2052 186.784 53.0316 186.784 53.0316C186.784 53.0316 179.498 48.8679 183.478 46.2156Z" fill="#C6C5E8"/>
<path d="M190.827 65.0439C191.431 70.3395 179.553 64.6978 179.553 64.6978C179.553 64.6978 190.03 58.0567 190.827 65.0439Z" fill="#C6C5E8"/>
<path d="M187.505 74.2682C188.145 79.8814 175.555 73.9017 175.555 73.9017C175.555 73.9017 186.66 66.8623 187.505 74.2682Z" fill="#C6C5E8"/>
<path d="M182.367 84.8266C182.978 90.1857 170.958 84.4766 170.958 84.4766C170.958 84.4766 181.561 77.7561 182.367 84.8266Z" fill="#C6C5E8"/>
<path d="M175.661 93.4873C177.239 98.6484 164.376 95.1869 164.376 95.1869C164.376 95.1869 173.579 86.6776 175.661 93.4873Z" fill="#C6C5E8"/>
<path d="M174.922 56.8065C178.536 54.0094 179.696 65.09 179.696 65.09C179.696 65.09 170.153 60.497 174.922 56.8065Z" fill="#C6C5E8"/>
<path d="M168.823 67.5154C171.307 63.6945 176.081 73.7789 176.081 73.7789C176.081 73.7789 165.545 72.5569 168.823 67.5154Z" fill="#C6C5E8"/>
<path d="M165.174 76.8887C168.329 73.5902 171.136 84.3774 171.136 84.3774C171.136 84.3774 161.011 81.2405 165.174 76.8887Z" fill="#C6C5E8"/>
<path d="M161.907 85.9551C166.046 83.9987 164.762 95.066 164.762 95.066C164.762 95.066 156.446 88.5362 161.907 85.9551Z" fill="#E3671A"/>
<path d="M12.5368 62.3071C27.8449 49.7021 54.6223 91.9465 53.9758 95.0601C50.5638 91.9379 45.5494 87.3587 38.2052 80.6686C25.8753 69.4377 17.3538 64.4773 12.5368 62.3071Z" fill="#DFD8EF"/>
<path d="M37.704 81.2097C44.873 87.7397 49.8176 92.2544 53.2225 95.3696C46.8574 95.4669 2.14934 78.5147 8.87844 66.8156C9.81753 65.1829 10.8349 63.8832 11.9128 62.8664C16.6151 64.9504 25.2435 69.8593 37.704 81.2097Z" fill="#A998D2"/>
<path d="M53.2215 95.3695C49.8167 92.2544 44.8721 87.7397 37.7031 81.2097C25.2426 69.8593 16.6142 64.9504 11.9119 62.8664C12.1182 62.6719 12.3255 62.4808 12.5363 62.3073C17.3533 64.4775 25.8748 69.4379 38.2047 80.6688C45.5488 87.3588 50.5633 91.9381 53.9753 95.0603C53.9669 95.1012 53.958 95.1418 53.9396 95.1688C53.8516 95.3007 53.6009 95.3637 53.2215 95.3695Z" fill="white"/>
<path d="M49.3686 95.333C38.0961 92.8223 20.0417 90.0329 13.6803 89.0773C18.0778 73.5216 46.5202 91.7784 49.3686 95.333Z" fill="#DFD8EF"/>
<path d="M13.3363 90.6437C13.3918 90.2974 13.4595 89.9679 13.5341 89.6482C19.8848 90.6017 38.2363 93.4341 49.4923 95.9605C47.2694 98.0919 11.0451 104.976 13.3363 90.6437Z" fill="#A998D2"/>
<path d="M49.6018 95.7956C49.5935 95.8465 49.5527 95.902 49.4917 95.9606C38.2357 93.4342 19.8842 90.6017 13.5335 89.6482C13.579 89.453 13.628 89.2628 13.6806 89.0773C20.0419 90.033 38.0964 92.8223 49.3688 95.333C49.5334 95.5385 49.6178 95.6978 49.6018 95.7956Z" fill="white"/>
<path d="M47.9181 87.473C44.55 76.5147 38.0751 59.5725 35.7699 53.6159C51.5821 49.721 49.6274 83.2611 47.9181 87.473Z" fill="#DFD8EF"/>
<path d="M34.226 54.093C34.5572 53.9695 34.8795 53.8653 35.1965 53.7716C37.4985 59.7174 44.0822 76.9373 47.4287 87.889C44.4614 87.026 20.5277 59.199 34.226 54.093Z" fill="#A998D2"/>
<path d="M47.6277 87.9024C47.5793 87.9204 47.5103 87.9125 47.429 87.8889C44.0825 76.9372 37.4988 59.7173 35.1968 53.7714C35.3906 53.7142 35.5816 53.6625 35.7702 53.6159C38.0755 59.5725 44.5503 76.5147 47.9184 87.473C47.8196 87.7162 47.7216 87.8679 47.6277 87.9024Z" fill="white"/>
<path d="M52.0623 78.809C52.0563 78.8088 52.0504 78.8086 52.0444 78.8086C47.4971 78.6994 43.8087 79.9787 41.0821 82.6104C37.4084 86.1568 36.1792 91.4198 35.7892 95.1599C36.8696 95.1892 38.0307 95.2137 39.2518 95.2343C39.7299 92.7192 40.7648 89.7817 42.9844 87.639C45.0846 85.6112 47.9031 84.6255 51.3607 84.7085C51.3654 84.7085 51.3702 84.7087 51.3743 84.7087C57.2576 84.8531 61.4541 86.9902 63.8485 91.0612C64.6628 92.4454 65.1503 93.8866 65.4382 95.192C67.4804 95.1601 69.418 95.123 71.197 95.0812C70.9166 92.4917 70.0359 88.7954 67.584 85.5788C64.291 81.2586 59.0687 78.9808 52.0623 78.809Z" fill="#C6C5E8"/>
<path d="M52.4723 64.7703C26.7285 64.153 27.5616 92.997 27.5257 94.4363C27.5197 94.6707 28.9405 94.8504 31.3139 94.9847C31.5334 90.2164 32.7719 81.6054 38.5131 76.063C42.181 72.5226 47.112 70.8008 53.1692 70.9463C53.1772 70.9465 53.1856 70.9467 53.1932 70.9469C63.5369 71.2004 70.9087 74.9456 75.107 82.0794C77.8958 86.8184 78.5488 91.9221 78.5834 94.836C80.3066 94.7488 81.3312 94.6552 81.3829 94.56C81.7633 93.8523 83.5594 65.516 52.4723 64.7703Z" fill="#C6C5E8"/>
<path d="M40.4073 81.9231C43.327 79.104 47.2506 77.734 52.0676 77.8491C52.0739 77.8494 52.081 77.8496 52.087 77.8496C60.3031 78.051 66.1609 81.029 69.4985 86.7023C71.2202 89.6282 71.9103 92.7269 72.1461 95.0583C74.2755 95.0047 76.1412 94.9451 77.6269 94.8807C77.5806 91.86 76.8545 85.8086 73.0143 80.6707C68.8325 75.0757 62.1554 72.1268 53.1694 71.9065C53.162 71.9063 53.1544 71.9061 53.1469 71.9059C47.3591 71.7671 42.6632 73.3975 39.1892 76.7511C33.6802 82.0688 32.4922 90.4093 32.2815 95.0345C33.0534 95.0708 33.9024 95.1034 34.8195 95.1319C35.2194 91.2365 36.5044 85.6904 40.4073 81.9231Z" fill="#C6C5E8"/>
<path d="M62.1696 90.3065C59.8553 87.3481 56.2152 85.7877 51.3503 85.6687C51.3456 85.6684 51.3417 85.6684 51.3374 85.6682C48.1494 85.5919 45.5661 86.4864 43.6592 88.327C41.6577 90.2593 40.6932 92.9225 40.2321 95.2497C47.4688 95.355 56.6233 95.3209 64.4632 95.2068C64.092 93.6573 63.4101 91.8909 62.1696 90.3065Z" fill="#9B98D4"/>
<path d="M53.1932 70.947C53.1856 70.9467 53.1772 70.9465 53.1692 70.9463C47.112 70.8009 42.181 72.5226 38.5131 76.063C32.7719 81.6055 31.5334 90.2165 31.3138 94.9847C31.621 95.0021 31.9426 95.0186 32.2809 95.0345C32.4915 90.4093 33.6796 82.0687 39.1886 76.751C42.6626 73.3974 47.3585 71.7671 53.1463 71.9058C53.1538 71.9061 53.1614 71.9063 53.1688 71.9065C62.1548 72.1267 68.8319 75.0756 73.0137 80.6706C76.8539 85.8086 77.58 91.8599 77.6263 94.8807C77.967 94.8659 78.2838 94.8511 78.5834 94.8361C78.5488 91.9221 77.8958 86.8185 75.1069 82.0794C70.9087 74.9457 63.5369 71.2005 53.1932 70.947Z" fill="#9B98D4"/>
<path d="M41.0818 82.6105C43.8084 79.9788 47.4968 78.6995 52.0441 78.8086L52.0558 78.3289L52.0441 78.8086C52.0502 78.8086 52.056 78.8089 52.0621 78.8091C59.0684 78.9809 64.2907 81.2587 67.5838 85.5789C70.0356 88.7955 70.9164 92.4918 71.1967 95.0812C71.5183 95.0737 71.8348 95.066 72.1456 95.0583C71.9098 92.7268 71.2196 89.6282 69.4979 86.7023C66.1604 81.029 60.3025 78.0509 52.0865 77.8496C52.0805 77.8496 52.0733 77.8493 52.067 77.8491C47.25 77.734 43.3265 79.104 40.4068 81.9231C36.5038 85.6904 35.2188 91.2365 34.8189 95.1318C35.1349 95.1417 35.4576 95.1509 35.789 95.1599C36.1789 91.4199 37.4081 86.1569 41.0818 82.6105Z" fill="#9B98D4"/>
<path d="M51.3746 84.7087C51.3705 84.7087 51.3657 84.7085 51.361 84.7085L51.3495 85.1883L51.361 84.7085C47.9033 84.6255 45.0849 85.6112 42.9847 87.639C40.7651 89.7817 39.7301 92.7192 39.2521 95.2343C39.5751 95.2399 39.9012 95.2448 40.2326 95.2495C40.6937 92.9223 41.6582 90.2591 43.6597 88.3268C45.5665 86.4862 48.1499 85.5917 51.3378 85.668C51.3422 85.6683 51.3461 85.6683 51.3508 85.6685C56.2156 85.7875 59.8558 87.3479 62.1701 90.3063C63.4106 91.8908 64.0925 93.6571 64.4637 95.2066C64.7907 95.2021 65.1164 95.197 65.4385 95.192C65.1506 93.8866 64.6631 92.4454 63.8488 91.0612C61.4544 86.9902 57.2579 84.8531 51.3746 84.7087Z" fill="#9B98D4"/>
<path d="M40.4416 96.1447C40.4453 96.1447 40.4487 96.1447 40.4522 96.1449C43.1217 96.173 45.2586 96.9983 46.8034 98.5971C48.8848 100.751 49.4971 103.863 49.6489 106.065C49.0145 106.06 48.333 106.051 47.6162 106.038C47.388 104.553 46.8414 102.809 45.5839 101.508C44.3939 100.276 42.7613 99.6405 40.7314 99.6191C40.7288 99.6191 40.726 99.6188 40.7234 99.6188C37.2701 99.5843 34.7646 100.753 33.2765 103.092C32.7704 103.887 32.4546 104.722 32.2587 105.482C31.0615 105.422 29.926 105.361 28.8837 105.3C29.1015 103.787 29.6943 101.637 31.1986 99.8005C33.2192 97.3335 36.3291 96.1035 40.4416 96.1447Z" fill="#DFD8EF"/>
<path d="M40.4906 87.9028C55.6022 88.0628 54.5186 104.963 54.5099 105.808C54.5087 105.945 53.6716 106.022 52.277 106.053C52.2467 103.252 51.6975 98.1762 48.4447 94.8091C46.3666 92.658 43.51 91.5485 39.9547 91.5108C39.9499 91.5108 39.9449 91.5108 39.9404 91.5108C33.8687 91.4497 29.4676 93.4967 26.8582 97.5956C25.1249 100.318 24.6365 103.298 24.5563 105.007C23.5473 104.921 22.9483 104.845 22.9202 104.788C22.7115 104.365 22.2426 87.7096 40.4906 87.9028Z" fill="#DFD8EF"/>
<path d="M47.2134 98.2074C45.5592 96.4949 43.2862 95.6117 40.4586 95.5815C40.4549 95.5815 40.4506 95.5815 40.4471 95.5815C35.6243 95.533 32.1273 97.1608 30.0526 100.42C28.9824 102.102 28.5137 103.905 28.3275 105.268C27.0797 105.193 25.9866 105.12 25.1166 105.052C25.206 103.282 25.7569 99.7473 28.1151 96.8117C30.6831 93.6148 34.6601 92.0209 39.935 92.0739C39.9393 92.0739 39.9438 92.0739 39.9482 92.0741C43.3457 92.1101 46.0659 93.1615 48.0344 95.1987C51.1559 98.4296 51.6806 103.345 51.7085 106.062C51.2552 106.068 50.7566 106.07 50.2181 106.068C50.0641 103.775 49.4247 100.496 47.2134 98.2074Z" fill="#DFD8EF"/>
<path d="M34.2769 102.683C35.6952 100.995 37.8626 100.154 40.7183 100.182C40.7211 100.182 40.7233 100.182 40.7259 100.182C42.597 100.202 44.0937 100.779 45.1741 101.897C46.3086 103.071 46.8192 104.653 47.0416 106.027C42.7949 105.942 37.4266 105.736 32.8308 105.511C33.0804 104.609 33.5169 103.587 34.2769 102.683Z" fill="#DFD8EF"/>
<path d="M39.9409 91.5107C39.9455 91.5107 39.9504 91.5107 39.9552 91.5107C43.5106 91.5485 46.3671 92.6579 48.4453 94.809C51.6981 98.1761 52.2472 103.252 52.2775 106.053C52.0969 106.057 51.9081 106.06 51.7091 106.062C51.6812 103.345 51.1565 98.4296 48.035 95.1987C46.0665 93.1615 43.3462 92.1102 39.9487 92.0741C39.9444 92.0739 39.9398 92.0739 39.9355 92.0739C34.6606 92.0209 30.6837 93.6148 28.1156 96.8117C25.7574 99.7473 25.2065 103.282 25.1172 105.052C24.9176 105.037 24.732 105.022 24.5568 105.007C24.637 103.298 25.1254 100.318 26.8588 97.5955C29.4681 93.4967 33.8692 91.4496 39.9409 91.5107Z" fill="#E8E0FF"/>
<path d="M46.804 98.5972C45.2592 96.9983 43.1223 96.1731 40.4528 96.145L40.4561 95.8634L40.4528 96.145C40.4494 96.1448 40.4459 96.1448 40.4422 96.1448C36.3297 96.1036 33.2198 97.3335 31.1992 99.8005C29.6949 101.637 29.1021 103.787 28.8843 105.301C28.6957 105.29 28.5101 105.279 28.3282 105.268C28.5144 103.905 28.9831 102.102 30.0533 100.421C32.128 97.1609 35.625 95.5331 40.4478 95.5816C40.4513 95.5816 40.4556 95.5816 40.4593 95.5816C43.2869 95.6118 45.5599 96.495 47.2141 98.2075C49.4254 100.496 50.0648 103.775 50.2188 106.068C50.0332 106.067 49.8437 106.066 49.6495 106.065C49.4977 103.863 48.8854 100.751 46.804 98.5972Z" fill="#E8E0FF"/>
<path d="M40.7234 99.6189C40.726 99.6189 40.7288 99.6191 40.7314 99.6191L40.7286 99.9007L40.7314 99.6191C42.7613 99.6406 44.3939 100.276 45.5839 101.508C46.8414 102.81 47.388 104.553 47.6162 106.038C47.4267 106.035 47.2355 106.031 47.0411 106.027C46.8187 104.653 46.3081 103.071 45.1736 101.897C44.0933 100.779 42.5965 100.202 40.7254 100.182C40.7228 100.182 40.7206 100.182 40.7178 100.182C37.8621 100.154 35.6947 100.995 34.2764 102.683C33.5164 103.587 33.0799 104.609 32.8303 105.511C32.6385 105.501 32.4477 105.492 32.2587 105.482C32.4546 104.722 32.7704 103.887 33.2765 103.092C34.7646 100.753 37.2701 99.5844 40.7234 99.6189Z" fill="#E8E0FF"/>
<path d="M201.985 103.421C201.746 100.428 197.992 97.7332 195.793 96.6074C195.76 97.6236 195.148 98.5147 194.151 99.2898C195.508 99.9445 198.475 101.571 198.687 103.074C198.951 104.942 196.154 105.392 190.487 105.131C184.821 104.869 181.626 101.847 178.863 98.7909C176.213 95.8602 171.87 94.4355 171.87 94.4355C170.147 93.8822 170.658 97.5483 170.658 97.5483C170.658 97.5483 174.119 98.852 175.978 100.945C178.102 103.336 183.716 108.313 190.399 108.444C197.299 108.579 202.314 107.55 201.985 103.421Z" fill="#5F40AF"/>
<path d="M44.9153 95.1598C44.9153 95.1598 19.0616 100.79 15.1926 100.824C11.3235 100.858 7.80621 99.8551 8.19021 97.501C8.54184 95.3447 11.5607 94.8236 13.7282 94.3247C13.2623 93.2916 13.1073 92.0733 13.3358 90.6436C13.348 90.5679 13.3626 90.4959 13.3759 90.4219C10.3717 90.8525 5.3812 92.4636 4.3327 95.5804C3.24787 98.8055 4.37073 105.14 14.489 104.725C24.6073 104.31 46.5306 99.2012 47.0412 99.0706C47.5521 98.9396 47.1801 97.9721 44.9153 95.1598Z" fill="#5F40AF"/>
<path d="M65.6128 73.9143C65.6128 73.9143 45.9604 81.4708 43.895 84.7718C41.8299 88.0731 48.6554 108.627 50.3502 109.591C52.0449 110.555 74.9468 107.549 76.3748 106.744C77.803 105.939 67.5553 75.4983 65.6128 73.9143Z" fill="#DFD8EF"/>
<path d="M72.398 67.1215C72.398 67.1215 59.8931 70.0123 58.2845 71.3309C54.4594 74.4659 56.0836 84.0864 58.3987 92.7521C60.7022 101.373 67.351 111.275 70.497 111.885C73.6431 112.494 81.9509 110.572 82.9489 108.785C83.9468 106.997 73.0855 68.0467 72.398 67.1215Z" fill="#6650AB"/>
<path d="M82.876 86.6577C85.7897 98.1625 85.8223 108.069 82.9491 108.785C80.0759 109.5 75.3848 100.753 72.4711 89.2485C69.5577 77.7434 69.5248 67.8371 72.3982 67.1216C75.2714 66.4061 79.9623 75.1527 82.876 86.6577Z" fill="#4F2DA7"/>
<path d="M90.6659 76.9473L76.6613 80.4341C75.7576 80.6591 74.8323 80.11 74.6054 79.214L74.4242 78.4981C74.1973 77.6019 74.751 76.6846 75.6546 76.4594L89.6593 72.9724C90.5632 72.7476 91.4882 73.2967 91.7151 74.1929L91.8966 74.9086C92.1235 75.8046 91.5696 76.7221 90.6659 76.9473Z" fill="#B39712"/>
<path d="M95.3674 96.678L81.3628 100.165C80.4589 100.39 79.5338 99.8409 79.3069 98.9447L79.1254 98.2288C78.8986 97.3325 79.4525 96.4153 80.3561 96.1903L94.3608 92.7033C95.2644 92.4783 96.1897 93.0274 96.4166 93.9236L96.5979 94.6395C96.8248 95.5355 96.2711 96.453 95.3674 96.678Z" fill="#B39712"/>
<path d="M150.818 73.8132C150.818 73.8132 170.564 81.1258 172.671 84.4009C174.777 87.6763 168.211 108.313 166.529 109.298C164.846 110.283 141.908 107.562 140.47 106.774C139.032 105.987 148.895 75.421 150.818 73.8132Z" fill="#A38CEB"/>
<path d="M143.948 67.1051C143.948 67.1051 156.488 69.8409 158.113 71.1395C161.977 74.2269 160.474 83.8667 158.268 92.5605C156.074 101.21 149.55 111.193 146.412 111.842C143.274 112.49 134.943 110.67 133.922 108.896C132.902 107.121 143.272 68.0387 143.948 67.1051Z" fill="#6650AB"/>
<path d="M133.717 86.7694C130.948 98.3096 131.04 108.216 133.922 108.895C136.804 109.575 141.385 100.771 144.153 89.2311C146.922 77.6911 146.83 67.7849 143.948 67.1051C141.066 66.4254 136.485 75.2295 133.717 86.7694Z" fill="#4F2DA7"/>
<path d="M142.576 80.2604C142.16 81.9937 141.186 83.2486 140.4 83.0631C139.613 82.8778 139.313 81.3223 139.729 79.5889C140.145 77.8554 141.119 76.6006 141.905 76.7863C142.692 76.9716 142.992 78.5271 142.576 80.2604Z" fill="#24154C"/>
<path d="M138.361 98.7597C137.945 100.493 136.971 101.748 136.184 101.562C135.398 101.377 135.098 99.8213 135.514 98.088C135.929 96.3546 136.904 95.0998 137.69 95.2851C138.476 95.4708 138.777 97.0263 138.361 98.7597Z" fill="#24154C"/>
<path fill-rule="evenodd" clip-rule="evenodd" d="M109.87 32.2337C110.846 30.6453 113.154 30.6453 114.13 32.2337L132.154 61.5701C133.177 63.2358 131.979 65.3787 130.024 65.3787H93.9761C92.0211 65.3787 90.8226 63.2358 91.846 61.57L109.87 32.2337ZM113.278 32.7572C112.692 31.8041 111.307 31.8041 110.722 32.7572L92.6981 62.0935C92.084 63.093 92.8031 64.3787 93.9761 64.3787H130.024C131.197 64.3787 131.916 63.093 131.302 62.0935L113.278 32.7572Z" fill="#D0021B"/>
<path fill-rule="evenodd" clip-rule="evenodd" d="M114.458 57.9342C114.458 58.2602 114.395 58.5659 114.269 58.8511C114.143 59.1364 113.967 59.3809 113.74 59.5847C113.513 59.7885 113.248 59.9515 112.945 60.0738C112.643 60.196 112.323 60.2572 111.987 60.2572C111.651 60.2572 111.335 60.2001 111.041 60.086C110.747 59.9719 110.491 59.8089 110.272 59.5969C110.054 59.385 109.877 59.1405 109.743 58.8634C109.608 58.5862 109.541 58.2847 109.541 57.9586C109.541 57.6489 109.604 57.3514 109.73 57.0661C109.856 56.7808 110.028 56.5322 110.247 56.3203C110.465 56.1084 110.726 55.9413 111.029 55.819C111.331 55.6968 111.651 55.6356 111.987 55.6356C112.323 55.6356 112.643 55.6968 112.945 55.819C113.248 55.9413 113.513 56.1043 113.74 56.3081C113.967 56.5119 114.143 56.7564 114.269 57.0417C114.395 57.3269 114.458 57.6244 114.458 57.9342Z" fill="#D0021B"/>
<path fill-rule="evenodd" clip-rule="evenodd" d="M110.77 53.3248L109.541 41.771H114.458L113.229 53.3248H110.77Z" fill="#D0021B"/>
</svg>
