<?xml version="1.0" encoding="UTF-8"?>
<svg width="30px" height="27px" viewBox="0 0 30 27" version="1.1" xmlns="http://www.w3.org/2000/svg" xmlns:xlink="http://www.w3.org/1999/xlink">
    <!-- Generator: Sketch 50.2 (55047) - http://www.bohemiancoding.com/sketch -->
    <title>outline-thumb_down_alt-24px</title>
    <desc>Created with Sketch.</desc>
    <defs></defs>
    <g id="Page-1" stroke="none" stroke-width="1" fill="none" fill-rule="evenodd">
        <g id="1.4_help_quesions_answer" transform="translate(-183.000000, -329.000000)">
            <g id="outline-thumb_down_alt-24px" transform="translate(182.000000, 325.000000)">
                <polygon id="Shape" opacity="0.87" points="0 0 32 0 32 32 0 32"></polygon>
                <path d="M20,4 L8,4 C6.89333333,4 5.94666667,4.66666667 5.54666667,5.62666667 L1.52,15.0266667 C1.4,15.3333333 1.33333333,15.6533333 1.33333333,16 L1.33333333,18.6666667 C1.33333333,20.1333333 2.53333333,21.3333333 4,21.3333333 L12.4133333,21.3333333 L11.1466667,27.4266667 L11.1066667,27.8533333 C11.1066667,28.4 11.3333333,28.9066667 11.6933333,29.2666667 L13.1066667,30.6666667 L21.88,21.88 C22.3733333,21.4 22.6666667,20.7333333 22.6666667,20 L22.6666667,6.66666667 C22.6666667,5.2 21.4666667,4 20,4 Z M20,20 L14.2133333,25.7866667 L15.6933333,18.6666667 L4,18.6666667 L4,16 L8,6.66666667 L20,6.66666667 L20,20 Z M25.3333333,4 L30.6666667,4 L30.6666667,20 L25.3333333,20 L25.3333333,4 Z" id="Shape" fill="#878787" fill-rule="nonzero"></path>
            </g>
        </g>
    </g>
</svg>