<?xml version="1.0" encoding="UTF-8"?>
<svg width="28px" height="25px" viewBox="0 0 28 25" version="1.1" xmlns="http://www.w3.org/2000/svg" xmlns:xlink="http://www.w3.org/1999/xlink">
    <!-- Generator: Sketch 50.2 (55047) - http://www.bohemiancoding.com/sketch -->
    <title>baseline-thumb_down_alt-24px</title>
    <desc>Created with Sketch.</desc>
    <defs></defs>
    <g id="Page-1" stroke="none" stroke-width="1" fill="none" fill-rule="evenodd">
        <g id="2.0_help_feedback_negative" transform="translate(-193.000000, -460.000000)">
            <g id="baseline-thumb_down_alt-24px" transform="translate(191.000000, 455.000000)">
                <polygon id="Shape" points="32 32 0 32 0 0 32 0"></polygon>
                <path d="M29.3333333,5.33333333 L26.6666667,5.33333333 C25.9333333,5.33333333 25.3333333,5.93333333 25.3333333,6.66666667 L25.3333333,18.6666667 C25.3333333,19.4 25.9333333,20 26.6666667,20 L29.3333333,20 L29.3333333,5.33333333 Z M2.89333333,14.8266667 C2.74666667,15.16 2.66666667,15.52 2.66666667,15.8933333 L2.66666667,17.3333333 C2.66666667,18.8 3.86666667,20 5.33333333,20 L12.6666667,20 L11.44,26.2 C11.3733333,26.4933333 11.4133333,26.8133333 11.5466667,27.08 C11.8533333,27.68 12.24,28.2266667 12.72,28.7066667 L13.3333333,29.3333333 L21.88,20.7866667 C22.3866667,20.28 22.6666667,19.6 22.6666667,18.8933333 L22.6666667,8.45333333 C22.6666667,6.73333333 21.2666667,5.33333333 19.5466667,5.33333333 L8.74666667,5.33333333 C7.8,5.33333333 6.93333333,5.82666667 6.45333333,6.62666667 L2.89333333,14.8266667 Z" id="Shape" fill="#878787" fill-rule="nonzero"></path>
            </g>
        </g>
    </g>
</svg>