<?xml version="1.0" encoding="UTF-8"?>
<svg width="28px" height="25px" viewBox="0 0 28 25" version="1.1" xmlns="http://www.w3.org/2000/svg" xmlns:xlink="http://www.w3.org/1999/xlink">
    <!-- Generator: Sketch 50.2 (55047) - http://www.bohemiancoding.com/sketch -->
    <title>baseline-thumb_up_alt-24px</title>
    <desc>Created with Sketch.</desc>
    <defs></defs>
    <g id="Page-1" stroke="none" stroke-width="1" fill="none" fill-rule="evenodd">
        <g id="1.9_help_feedback_positive" transform="translate(-137.000000, -327.000000)">
            <g id="baseline-thumb_up_alt-24px" transform="translate(135.000000, 325.000000)">
                <polygon id="Shape" points="32 32 0 32 0 0 32 0"></polygon>
                <path d="M2.66666667,26.6666667 L5.33333333,26.6666667 C6.06666667,26.6666667 6.66666667,26.0666667 6.66666667,25.3333333 L6.66666667,13.3333333 C6.66666667,12.6 6.06666667,12 5.33333333,12 L2.66666667,12 L2.66666667,26.6666667 Z M29.1066667,17.1733333 C29.2533333,16.84 29.3333333,16.48 29.3333333,16.1066667 L29.3333333,14.6666667 C29.3333333,13.2 28.1333333,12 26.6666667,12 L19.3333333,12 L20.56,5.8 C20.6266667,5.50666667 20.5866667,5.18666667 20.4533333,4.92 C20.1466667,4.32 19.76,3.77333333 19.28,3.29333333 L18.6666667,2.66666667 L10.12,11.2133333 C9.61333333,11.72 9.33333333,12.4 9.33333333,13.1066667 L9.33333333,23.56 C9.33333333,25.2666667 10.7333333,26.6666667 12.4533333,26.6666667 L23.2666667,26.6666667 C24.2,26.6666667 25.08,26.1733333 25.56,25.3733333 L29.1066667,17.1733333 Z" id="Shape" fill="#878787" fill-rule="nonzero"></path>
            </g>
        </g>
    </g>
</svg>