<svg width="343" height="46" viewBox="0 0 343 46" fill="none" xmlns="http://www.w3.org/2000/svg">
<path d="M110.073 14.2938C109.257 14.2938 108.605 14.0418 108.117 13.5378C107.629 13.0258 107.361 12.3298 107.313 11.4498L107.301 11.0418L107.313 10.6458C107.361 9.78183 107.629 9.09383 108.117 8.58183C108.605 8.06983 109.257 7.81383 110.073 7.81383C110.953 7.81383 111.633 8.09383 112.113 8.65383C112.601 9.21383 112.845 9.97383 112.845 10.9338V11.1498C112.845 11.2298 112.817 11.2978 112.761 11.3538C112.713 11.4018 112.649 11.4258 112.569 11.4258H108.405V11.5338C108.429 12.0538 108.589 12.4978 108.885 12.8658C109.181 13.2338 109.573 13.4178 110.061 13.4178C110.437 13.4178 110.741 13.3458 110.973 13.2018C111.213 13.0498 111.393 12.8938 111.513 12.7338C111.585 12.6378 111.641 12.5818 111.681 12.5658C111.721 12.5418 111.789 12.5298 111.885 12.5298H112.413C112.485 12.5298 112.545 12.5498 112.593 12.5898C112.649 12.6298 112.677 12.6818 112.677 12.7458C112.677 12.9218 112.569 13.1338 112.353 13.3818C112.137 13.6298 111.829 13.8458 111.429 14.0298C111.037 14.2058 110.585 14.2938 110.073 14.2938ZM111.753 10.6098V10.5738C111.753 10.0138 111.601 9.55783 111.297 9.20583C110.993 8.85383 110.585 8.67783 110.073 8.67783C109.553 8.67783 109.145 8.85383 108.849 9.20583C108.553 9.55783 108.405 10.0138 108.405 10.5738V10.6098H111.753ZM114.508 11.0538C114.428 11.0538 114.36 11.0298 114.304 10.9818C114.256 10.9338 114.232 10.8698 114.232 10.7898V10.3578C114.232 10.2778 114.256 10.2138 114.304 10.1658C114.36 10.1098 114.428 10.0818 114.508 10.0818H118.108C118.188 10.0818 118.252 10.1098 118.3 10.1658C118.356 10.2138 118.384 10.2778 118.384 10.3578V10.7898C118.384 10.8698 118.356 10.9338 118.3 10.9818C118.252 11.0298 118.188 11.0538 118.108 11.0538H114.508ZM120.393 14.1738C120.313 14.1738 120.245 14.1498 120.189 14.1018C120.141 14.0458 120.117 13.9778 120.117 13.8978V8.20983C120.117 8.12983 120.141 8.06583 120.189 8.01783C120.245 7.96183 120.313 7.93383 120.393 7.93383H120.897C120.977 7.93383 121.041 7.96183 121.089 8.01783C121.137 8.06583 121.161 8.12983 121.161 8.20983V8.61783C121.593 8.08183 122.177 7.81383 122.913 7.81383C123.793 7.81383 124.417 8.18183 124.785 8.91783C124.977 8.58183 125.249 8.31383 125.601 8.11383C125.961 7.91383 126.361 7.81383 126.801 7.81383C127.457 7.81383 127.993 8.03783 128.409 8.48583C128.825 8.93383 129.033 9.58183 129.033 10.4298V13.8978C129.033 13.9778 129.005 14.0458 128.949 14.1018C128.901 14.1498 128.837 14.1738 128.757 14.1738H128.241C128.161 14.1738 128.093 14.1498 128.037 14.1018C127.989 14.0458 127.965 13.9778 127.965 13.8978V10.5378C127.965 9.89783 127.833 9.44183 127.569 9.16983C127.305 8.88983 126.957 8.74983 126.525 8.74983C126.141 8.74983 125.809 8.89383 125.529 9.18183C125.257 9.46183 125.121 9.91383 125.121 10.5378V13.8978C125.121 13.9778 125.093 14.0458 125.037 14.1018C124.989 14.1498 124.925 14.1738 124.845 14.1738H124.317C124.237 14.1738 124.169 14.1498 124.113 14.1018C124.065 14.0458 124.041 13.9778 124.041 13.8978V10.5378C124.041 9.90583 123.901 9.44983 123.621 9.16983C123.349 8.88983 123.009 8.74983 122.601 8.74983C122.217 8.74983 121.885 8.88983 121.605 9.16983C121.333 9.44983 121.197 9.90183 121.197 10.5258V13.8978C121.197 13.9778 121.169 14.0458 121.113 14.1018C121.065 14.1498 121.001 14.1738 120.921 14.1738H120.393ZM132.497 14.2938C132.105 14.2938 131.741 14.2138 131.405 14.0538C131.077 13.8938 130.813 13.6778 130.613 13.4058C130.421 13.1258 130.325 12.8178 130.325 12.4818C130.325 11.9538 130.541 11.5218 130.973 11.1858C131.405 10.8498 131.993 10.6258 132.737 10.5138L134.537 10.2618V9.91383C134.537 9.08983 134.061 8.67783 133.109 8.67783C132.741 8.67783 132.445 8.75383 132.221 8.90583C131.997 9.04983 131.833 9.22183 131.729 9.42183C131.697 9.50183 131.661 9.55783 131.621 9.58983C131.589 9.61383 131.541 9.62583 131.477 9.62583H131.009C130.937 9.62583 130.873 9.60183 130.817 9.55383C130.769 9.49783 130.745 9.43383 130.745 9.36183C130.745 9.17783 130.829 8.96583 130.997 8.72583C131.173 8.47783 131.441 8.26583 131.801 8.08983C132.161 7.90583 132.601 7.81383 133.121 7.81383C134.017 7.81383 134.657 8.02183 135.041 8.43783C135.433 8.85383 135.629 9.37383 135.629 9.99783V13.8978C135.629 13.9778 135.601 14.0458 135.545 14.1018C135.497 14.1498 135.433 14.1738 135.353 14.1738H134.825C134.745 14.1738 134.681 14.1498 134.633 14.1018C134.585 14.0458 134.561 13.9778 134.561 13.8978V13.3698C134.385 13.6338 134.129 13.8538 133.793 14.0298C133.457 14.2058 133.025 14.2938 132.497 14.2938ZM132.737 13.4178C133.265 13.4178 133.697 13.2458 134.033 12.9018C134.369 12.5578 134.537 12.0578 134.537 11.4018V11.0658L133.133 11.2698C132.557 11.3498 132.121 11.4858 131.825 11.6778C131.529 11.8698 131.381 12.1098 131.381 12.3978C131.381 12.7258 131.513 12.9778 131.777 13.1538C132.049 13.3298 132.369 13.4178 132.737 13.4178ZM137.643 14.1738C137.563 14.1738 137.495 14.1498 137.439 14.1018C137.391 14.0458 137.367 13.9778 137.367 13.8978V8.20983C137.367 8.12983 137.391 8.06583 137.439 8.01783C137.495 7.96183 137.563 7.93383 137.643 7.93383H138.159C138.247 7.93383 138.315 7.95783 138.363 8.00583C138.411 8.05383 138.435 8.12183 138.435 8.20983V8.73783C138.675 8.44183 138.951 8.21383 139.263 8.05383C139.583 7.89383 139.979 7.81383 140.451 7.81383C141.219 7.81383 141.815 8.06183 142.239 8.55783C142.663 9.04583 142.875 9.69383 142.875 10.5018V13.8978C142.875 13.9778 142.847 14.0458 142.791 14.1018C142.743 14.1498 142.679 14.1738 142.599 14.1738H142.047C141.967 14.1738 141.899 14.1498 141.843 14.1018C141.795 14.0458 141.771 13.9778 141.771 13.8978V10.5738C141.771 9.99783 141.631 9.54983 141.351 9.22983C141.071 8.90983 140.671 8.74983 140.151 8.74983C139.639 8.74983 139.231 8.91383 138.927 9.24183C138.623 9.56183 138.471 10.0058 138.471 10.5738V13.8978C138.471 13.9778 138.443 14.0458 138.387 14.1018C138.339 14.1498 138.275 14.1738 138.195 14.1738H137.643ZM146.889 14.2938C146.049 14.2938 145.417 14.0218 144.993 13.4778C144.577 12.9338 144.353 12.2458 144.321 11.4138L144.309 11.0538L144.321 10.6938C144.353 9.86983 144.581 9.18583 145.005 8.64183C145.429 8.08983 146.057 7.81383 146.889 7.81383C147.721 7.81383 148.369 8.10983 148.833 8.70183V5.92983C148.833 5.84983 148.857 5.78583 148.905 5.73783C148.961 5.68183 149.029 5.65383 149.109 5.65383H149.649C149.729 5.65383 149.793 5.68183 149.841 5.73783C149.897 5.78583 149.925 5.84983 149.925 5.92983V13.8978C149.925 13.9778 149.897 14.0458 149.841 14.1018C149.793 14.1498 149.729 14.1738 149.649 14.1738H149.133C149.053 14.1738 148.989 14.1498 148.941 14.1018C148.893 14.0458 148.869 13.9778 148.869 13.8978V13.3818C148.413 13.9898 147.753 14.2938 146.889 14.2938ZM147.117 13.3578C147.677 13.3578 148.097 13.1738 148.377 12.8058C148.657 12.4298 148.809 11.9858 148.833 11.4738C148.841 11.3858 148.845 11.2338 148.845 11.0178C148.845 10.7938 148.841 10.6378 148.833 10.5498C148.817 10.0618 148.661 9.64183 148.365 9.28983C148.077 8.92983 147.661 8.74983 147.117 8.74983C146.541 8.74983 146.121 8.92983 145.857 9.28983C145.593 9.64983 145.449 10.1218 145.425 10.7058L145.413 11.0538C145.413 12.5898 145.981 13.3578 147.117 13.3578ZM153.462 14.2938C153.07 14.2938 152.706 14.2138 152.37 14.0538C152.042 13.8938 151.778 13.6778 151.578 13.4058C151.386 13.1258 151.29 12.8178 151.29 12.4818C151.29 11.9538 151.506 11.5218 151.938 11.1858C152.37 10.8498 152.958 10.6258 153.702 10.5138L155.502 10.2618V9.91383C155.502 9.08983 155.026 8.67783 154.074 8.67783C153.706 8.67783 153.41 8.75383 153.186 8.90583C152.962 9.04983 152.798 9.22183 152.694 9.42183C152.662 9.50183 152.626 9.55783 152.586 9.58983C152.554 9.61383 152.506 9.62583 152.442 9.62583H151.974C151.902 9.62583 151.838 9.60183 151.782 9.55383C151.734 9.49783 151.71 9.43383 151.71 9.36183C151.71 9.17783 151.794 8.96583 151.962 8.72583C152.138 8.47783 152.406 8.26583 152.766 8.08983C153.126 7.90583 153.566 7.81383 154.086 7.81383C154.982 7.81383 155.622 8.02183 156.006 8.43783C156.398 8.85383 156.594 9.37383 156.594 9.99783V13.8978C156.594 13.9778 156.566 14.0458 156.51 14.1018C156.462 14.1498 156.398 14.1738 156.318 14.1738H155.79C155.71 14.1738 155.646 14.1498 155.598 14.1018C155.55 14.0458 155.526 13.9778 155.526 13.8978V13.3698C155.35 13.6338 155.094 13.8538 154.758 14.0298C154.422 14.2058 153.99 14.2938 153.462 14.2938ZM153.702 13.4178C154.23 13.4178 154.662 13.2458 154.998 12.9018C155.334 12.5578 155.502 12.0578 155.502 11.4018V11.0658L154.098 11.2698C153.522 11.3498 153.086 11.4858 152.79 11.6778C152.494 11.8698 152.346 12.1098 152.346 12.3978C152.346 12.7258 152.478 12.9778 152.742 13.1538C153.014 13.3298 153.334 13.4178 153.702 13.4178ZM160.673 14.1738C159.433 14.1738 158.813 13.4738 158.813 12.0738V8.85783H157.865C157.785 8.85783 157.721 8.83383 157.673 8.78583C157.625 8.73783 157.601 8.67383 157.601 8.59383V8.20983C157.601 8.12983 157.625 8.06583 157.673 8.01783C157.721 7.96183 157.785 7.93383 157.865 7.93383H158.813V5.92983C158.813 5.84983 158.837 5.78583 158.885 5.73783C158.933 5.68183 158.997 5.65383 159.077 5.65383H159.605C159.685 5.65383 159.749 5.68183 159.797 5.73783C159.853 5.78583 159.881 5.84983 159.881 5.92983V7.93383H161.369C161.449 7.93383 161.513 7.96183 161.561 8.01783C161.617 8.06583 161.645 8.12983 161.645 8.20983V8.59383C161.645 8.67383 161.617 8.73783 161.561 8.78583C161.513 8.83383 161.449 8.85783 161.369 8.85783H159.881V11.9898C159.881 12.3978 159.945 12.7058 160.073 12.9138C160.209 13.1218 160.437 13.2258 160.757 13.2258H161.489C161.569 13.2258 161.633 13.2538 161.681 13.3098C161.729 13.3578 161.753 13.4218 161.753 13.5018V13.8978C161.753 13.9778 161.729 14.0458 161.681 14.1018C161.633 14.1498 161.569 14.1738 161.489 14.1738H160.673ZM165.397 14.2938C164.581 14.2938 163.929 14.0418 163.441 13.5378C162.953 13.0258 162.685 12.3298 162.637 11.4498L162.625 11.0418L162.637 10.6458C162.685 9.78183 162.953 9.09383 163.441 8.58183C163.929 8.06983 164.581 7.81383 165.397 7.81383C166.277 7.81383 166.957 8.09383 167.437 8.65383C167.925 9.21383 168.169 9.97383 168.169 10.9338V11.1498C168.169 11.2298 168.141 11.2978 168.085 11.3538C168.037 11.4018 167.973 11.4258 167.893 11.4258H163.729V11.5338C163.753 12.0538 163.913 12.4978 164.209 12.8658C164.505 13.2338 164.897 13.4178 165.385 13.4178C165.761 13.4178 166.065 13.3458 166.297 13.2018C166.537 13.0498 166.717 12.8938 166.837 12.7338C166.909 12.6378 166.965 12.5818 167.005 12.5658C167.045 12.5418 167.113 12.5298 167.209 12.5298H167.737C167.809 12.5298 167.869 12.5498 167.917 12.5898C167.973 12.6298 168.001 12.6818 168.001 12.7458C168.001 12.9218 167.893 13.1338 167.677 13.3818C167.461 13.6298 167.153 13.8458 166.753 14.0298C166.361 14.2058 165.909 14.2938 165.397 14.2938ZM167.077 10.6098V10.5738C167.077 10.0138 166.925 9.55783 166.621 9.20583C166.317 8.85383 165.909 8.67783 165.397 8.67783C164.877 8.67783 164.469 8.85383 164.173 9.20583C163.877 9.55783 163.729 10.0138 163.729 10.5738V10.6098H167.077ZM172.87 16.4538C172.79 16.4538 172.722 16.4298 172.666 16.3818C172.618 16.3338 172.594 16.2658 172.594 16.1778V8.20983C172.594 8.12183 172.618 8.05383 172.666 8.00583C172.722 7.95783 172.79 7.93383 172.87 7.93383H173.374C173.462 7.93383 173.53 7.95783 173.578 8.00583C173.626 8.05383 173.65 8.12183 173.65 8.20983V8.73783C174.114 8.12183 174.774 7.81383 175.63 7.81383C176.47 7.81383 177.098 8.08183 177.514 8.61783C177.938 9.14583 178.162 9.82183 178.186 10.6458C178.194 10.7338 178.198 10.8698 178.198 11.0538C178.198 11.2378 178.194 11.3738 178.186 11.4618C178.162 12.2778 177.938 12.9538 177.514 13.4898C177.098 14.0258 176.47 14.2938 175.63 14.2938C174.774 14.2938 174.126 13.9898 173.686 13.3818V16.1778C173.686 16.2578 173.658 16.3218 173.602 16.3698C173.554 16.4258 173.49 16.4538 173.41 16.4538H172.87ZM175.402 13.3578C175.978 13.3578 176.398 13.1778 176.662 12.8178C176.926 12.4578 177.07 11.9858 177.094 11.4018C177.102 11.3218 177.106 11.2058 177.106 11.0538C177.106 9.51783 176.538 8.74983 175.402 8.74983C174.842 8.74983 174.418 8.93783 174.13 9.31383C173.85 9.68183 173.702 10.1178 173.686 10.6218C173.678 10.7098 173.674 10.8658 173.674 11.0898C173.674 11.3138 173.678 11.4698 173.686 11.5578C173.702 12.0458 173.854 12.4698 174.142 12.8298C174.438 13.1818 174.858 13.3578 175.402 13.3578ZM182.239 14.2938C181.359 14.2938 180.679 14.0458 180.199 13.5498C179.727 13.0538 179.475 12.3938 179.443 11.5698L179.431 11.0538L179.443 10.5378C179.475 9.71383 179.731 9.05383 180.211 8.55783C180.699 8.06183 181.375 7.81383 182.239 7.81383C183.103 7.81383 183.775 8.06183 184.255 8.55783C184.743 9.05383 185.003 9.71383 185.035 10.5378C185.051 10.7138 185.059 10.8858 185.059 11.0538C185.059 11.2218 185.051 11.3938 185.035 11.5698C185.003 12.3938 184.747 13.0538 184.267 13.5498C183.795 14.0458 183.119 14.2938 182.239 14.2938ZM182.239 13.3938C182.751 13.3938 183.155 13.2338 183.451 12.9138C183.755 12.5858 183.919 12.1178 183.943 11.5098C183.951 11.4298 183.955 11.2778 183.955 11.0538C183.955 10.8298 183.951 10.6778 183.943 10.5978C183.919 9.98983 183.755 9.52583 183.451 9.20583C183.155 8.87783 182.751 8.71383 182.239 8.71383C181.727 8.71383 181.319 8.87783 181.015 9.20583C180.719 9.52583 180.559 9.98983 180.535 10.5978L180.523 11.0538L180.535 11.5098C180.559 12.1178 180.719 12.5858 181.015 12.9138C181.319 13.2338 181.727 13.3938 182.239 13.3938ZM188.066 14.1738C187.954 14.1738 187.87 14.1498 187.814 14.1018C187.758 14.0538 187.714 13.9778 187.682 13.8738L185.978 8.30583L185.954 8.18583C185.954 8.11383 185.978 8.05383 186.026 8.00583C186.074 7.95783 186.134 7.93383 186.206 7.93383H186.698C186.778 7.93383 186.842 7.95783 186.89 8.00583C186.946 8.04583 186.978 8.08583 186.986 8.12583L188.342 12.7098L189.782 8.18583C189.798 8.12183 189.834 8.06583 189.89 8.01783C189.946 7.96183 190.022 7.93383 190.118 7.93383H190.502C190.598 7.93383 190.674 7.96183 190.73 8.01783C190.786 8.06583 190.822 8.12183 190.838 8.18583L192.278 12.7098L193.634 8.12583C193.642 8.08583 193.67 8.04583 193.718 8.00583C193.774 7.95783 193.842 7.93383 193.922 7.93383H194.414C194.486 7.93383 194.546 7.95783 194.594 8.00583C194.642 8.05383 194.666 8.11383 194.666 8.18583L194.642 8.30583L192.938 13.8738C192.906 13.9778 192.862 14.0538 192.806 14.1018C192.75 14.1498 192.666 14.1738 192.554 14.1738H192.122C191.914 14.1738 191.778 14.0738 191.714 13.8738L190.31 9.52983L188.906 13.8738C188.842 14.0738 188.706 14.1738 188.498 14.1738H188.066ZM198.315 14.2938C197.499 14.2938 196.847 14.0418 196.359 13.5378C195.871 13.0258 195.603 12.3298 195.555 11.4498L195.543 11.0418L195.555 10.6458C195.603 9.78183 195.871 9.09383 196.359 8.58183C196.847 8.06983 197.499 7.81383 198.315 7.81383C199.195 7.81383 199.875 8.09383 200.355 8.65383C200.843 9.21383 201.087 9.97383 201.087 10.9338V11.1498C201.087 11.2298 201.059 11.2978 201.003 11.3538C200.955 11.4018 200.891 11.4258 200.811 11.4258H196.647V11.5338C196.671 12.0538 196.831 12.4978 197.127 12.8658C197.423 13.2338 197.815 13.4178 198.303 13.4178C198.679 13.4178 198.983 13.3458 199.215 13.2018C199.455 13.0498 199.635 12.8938 199.755 12.7338C199.827 12.6378 199.883 12.5818 199.923 12.5658C199.963 12.5418 200.031 12.5298 200.127 12.5298H200.655C200.727 12.5298 200.787 12.5498 200.835 12.5898C200.891 12.6298 200.919 12.6818 200.919 12.7458C200.919 12.9218 200.811 13.1338 200.595 13.3818C200.379 13.6298 200.071 13.8458 199.671 14.0298C199.279 14.2058 198.827 14.2938 198.315 14.2938ZM199.995 10.6098V10.5738C199.995 10.0138 199.843 9.55783 199.539 9.20583C199.235 8.85383 198.827 8.67783 198.315 8.67783C197.795 8.67783 197.387 8.85383 197.091 9.20583C196.795 9.55783 196.647 10.0138 196.647 10.5738V10.6098H199.995ZM202.822 14.1738C202.742 14.1738 202.674 14.1498 202.618 14.1018C202.57 14.0458 202.546 13.9778 202.546 13.8978V8.22183C202.546 8.14183 202.57 8.07383 202.618 8.01783C202.674 7.96183 202.742 7.93383 202.822 7.93383H203.326C203.414 7.93383 203.482 7.96183 203.53 8.01783C203.586 8.06583 203.614 8.13383 203.614 8.22183V8.74983C203.942 8.20583 204.498 7.93383 205.282 7.93383H205.75C205.838 7.93383 205.906 7.95783 205.954 8.00583C206.002 8.05383 206.026 8.12183 206.026 8.20983V8.65383C206.026 8.73383 206.002 8.80183 205.954 8.85783C205.906 8.90583 205.838 8.92983 205.75 8.92983H205.066C204.626 8.92983 204.278 9.05783 204.022 9.31383C203.774 9.56983 203.65 9.91783 203.65 10.3578V13.8978C203.65 13.9778 203.622 14.0458 203.566 14.1018C203.51 14.1498 203.442 14.1738 203.362 14.1738H202.822ZM209.413 14.2938C208.597 14.2938 207.945 14.0418 207.457 13.5378C206.969 13.0258 206.701 12.3298 206.653 11.4498L206.641 11.0418L206.653 10.6458C206.701 9.78183 206.969 9.09383 207.457 8.58183C207.945 8.06983 208.597 7.81383 209.413 7.81383C210.293 7.81383 210.973 8.09383 211.453 8.65383C211.941 9.21383 212.185 9.97383 212.185 10.9338V11.1498C212.185 11.2298 212.157 11.2978 212.101 11.3538C212.053 11.4018 211.989 11.4258 211.909 11.4258H207.745V11.5338C207.769 12.0538 207.929 12.4978 208.225 12.8658C208.521 13.2338 208.913 13.4178 209.401 13.4178C209.777 13.4178 210.081 13.3458 210.313 13.2018C210.553 13.0498 210.733 12.8938 210.853 12.7338C210.925 12.6378 210.981 12.5818 211.021 12.5658C211.061 12.5418 211.129 12.5298 211.225 12.5298H211.753C211.825 12.5298 211.885 12.5498 211.933 12.5898C211.989 12.6298 212.017 12.6818 212.017 12.7458C212.017 12.9218 211.909 13.1338 211.693 13.3818C211.477 13.6298 211.169 13.8458 210.769 14.0298C210.377 14.2058 209.925 14.2938 209.413 14.2938ZM211.093 10.6098V10.5738C211.093 10.0138 210.941 9.55783 210.637 9.20583C210.333 8.85383 209.925 8.67783 209.413 8.67783C208.893 8.67783 208.485 8.85383 208.189 9.20583C207.893 9.55783 207.745 10.0138 207.745 10.5738V10.6098H211.093ZM215.924 14.2938C215.084 14.2938 214.452 14.0218 214.028 13.4778C213.612 12.9338 213.388 12.2458 213.356 11.4138L213.344 11.0538L213.356 10.6938C213.388 9.86983 213.616 9.18583 214.04 8.64183C214.464 8.08983 215.092 7.81383 215.924 7.81383C216.756 7.81383 217.404 8.10983 217.868 8.70183V5.92983C217.868 5.84983 217.892 5.78583 217.94 5.73783C217.996 5.68183 218.064 5.65383 218.144 5.65383H218.684C218.764 5.65383 218.828 5.68183 218.876 5.73783C218.932 5.78583 218.96 5.84983 218.96 5.92983V13.8978C218.96 13.9778 218.932 14.0458 218.876 14.1018C218.828 14.1498 218.764 14.1738 218.684 14.1738H218.168C218.088 14.1738 218.024 14.1498 217.976 14.1018C217.928 14.0458 217.904 13.9778 217.904 13.8978V13.3818C217.448 13.9898 216.788 14.2938 215.924 14.2938ZM216.152 13.3578C216.712 13.3578 217.132 13.1738 217.412 12.8058C217.692 12.4298 217.844 11.9858 217.868 11.4738C217.876 11.3858 217.88 11.2338 217.88 11.0178C217.88 10.7938 217.876 10.6378 217.868 10.5498C217.852 10.0618 217.696 9.64183 217.4 9.28983C217.112 8.92983 216.696 8.74983 216.152 8.74983C215.576 8.74983 215.156 8.92983 214.892 9.28983C214.628 9.64983 214.484 10.1218 214.46 10.7058L214.448 11.0538C214.448 12.5898 215.016 13.3578 216.152 13.3578ZM226.77 14.2938C225.906 14.2938 225.246 13.9898 224.79 13.3818V13.8978C224.79 13.9778 224.762 14.0458 224.706 14.1018C224.658 14.1498 224.594 14.1738 224.514 14.1738H224.01C223.93 14.1738 223.862 14.1498 223.806 14.1018C223.758 14.0458 223.734 13.9778 223.734 13.8978V5.92983C223.734 5.84183 223.758 5.77383 223.806 5.72583C223.862 5.67783 223.93 5.65383 224.01 5.65383H224.55C224.63 5.65383 224.694 5.68183 224.742 5.73783C224.798 5.78583 224.826 5.84983 224.826 5.92983V8.70183C225.274 8.10983 225.922 7.81383 226.77 7.81383C227.61 7.81383 228.238 8.08983 228.654 8.64183C229.078 9.18583 229.302 9.86983 229.326 10.6938C229.334 10.7818 229.338 10.9018 229.338 11.0538C229.338 11.2058 229.334 11.3258 229.326 11.4138C229.302 12.2378 229.078 12.9258 228.654 13.4778C228.238 14.0218 227.61 14.2938 226.77 14.2938ZM226.542 13.3578C227.118 13.3578 227.538 13.1778 227.802 12.8178C228.066 12.4578 228.21 11.9858 228.234 11.4018C228.242 11.3218 228.246 11.2058 228.246 11.0538C228.246 9.51783 227.678 8.74983 226.542 8.74983C225.998 8.74983 225.578 8.92983 225.282 9.28983C224.994 9.64183 224.842 10.0618 224.826 10.5498C224.818 10.6378 224.814 10.7938 224.814 11.0178C224.814 11.2338 224.818 11.3858 224.826 11.4738C224.842 11.9858 224.99 12.4298 225.27 12.8058C225.558 13.1738 225.982 13.3578 226.542 13.3578ZM231.705 16.4538C231.633 16.4538 231.573 16.4298 231.525 16.3818C231.477 16.3338 231.453 16.2778 231.453 16.2138C231.453 16.1898 231.473 16.1178 231.513 15.9978L232.449 13.8018L230.157 8.38983C230.109 8.29383 230.085 8.22583 230.085 8.18583C230.093 8.11383 230.121 8.05383 230.169 8.00583C230.217 7.95783 230.273 7.93383 230.337 7.93383H230.889C231.017 7.93383 231.113 7.99783 231.177 8.12583L233.025 12.5418L234.921 8.12583C234.985 7.99783 235.081 7.93383 235.209 7.93383H235.749C235.813 7.93383 235.869 7.95783 235.917 8.00583C235.965 8.05383 235.989 8.10983 235.989 8.17383C235.989 8.22983 235.969 8.30183 235.929 8.38983L232.533 16.2618C232.493 16.3258 232.449 16.3738 232.401 16.4058C232.361 16.4378 232.305 16.4538 232.233 16.4538H231.705Z" fill="#5A6389"/>
<path fill-rule="evenodd" clip-rule="evenodd" d="M150.066 28.1738L145.439 45.1735L154.324 36.6818L150.066 28.1738Z" fill="#028C44"/>
<path fill-rule="evenodd" clip-rule="evenodd" d="M147.066 28.1738L142.439 45.1735L151.324 36.6818L147.066 28.1738Z" fill="#F57920"/>
<path fill-rule="evenodd" clip-rule="evenodd" d="M66.498 44.4741H69.9861L73.0029 33.3346L86.5944 44.4741L91.5223 27.1738H88.1369L85.0137 38.5329L71.1355 27.1738L66.498 44.4741Z" fill="#5A6389"/>
<path fill-rule="evenodd" clip-rule="evenodd" d="M95.0779 27.1738C94.6206 27.1738 94.2215 27.4841 94.1088 27.9273L93.4138 30.6599H110.618L109.188 34.3271H93.787C92.8858 34.3271 92.096 34.9298 91.858 35.7989L89.4824 44.4741H92.7999L94.9783 37.4662H110.511C111.39 37.4662 112.166 36.8925 112.424 36.0523L114.352 29.7599C114.746 28.4743 113.785 27.1738 112.44 27.1738H95.0779Z" fill="#5A6389"/>
<path fill-rule="evenodd" clip-rule="evenodd" d="M135.902 29.7891C135.845 30.2954 135.417 30.6783 134.908 30.6783H118.918L116.273 40.8459H132.91L132.333 43.0416C132.102 43.9204 131.307 44.5331 130.398 44.5331H114.092C112.77 44.5331 111.812 43.2732 112.165 41.9991L115.867 28.6398C116.107 27.7735 116.895 27.1738 117.794 27.1738H135.076C135.672 27.1738 136.136 27.6922 136.069 28.2847L135.902 29.7891Z" fill="#5A6389"/>
<path fill-rule="evenodd" clip-rule="evenodd" d="M140.071 27.1738H144.038L139.28 44.5331L135.447 44.4741L140.071 27.1738Z" fill="#5A6389"/>
<path fill-rule="evenodd" clip-rule="evenodd" d="M176.904 44.5929L179.922 44.9414L182.973 33.5716L195.651 44.5929L200.14 28.1738H196.85L193.969 39.0008L181.382 28.1738L176.904 44.5929Z" fill="#5A6389"/>
<path fill-rule="evenodd" clip-rule="evenodd" d="M215.208 28.1738L196.85 44.5941H201.32L205.552 40.799H215.208L215.995 44.5941H219.508L215.208 28.1738ZM209.295 37.5791L213.489 33.8965L214.875 37.5791H209.295Z" fill="#5A6389"/>
<path fill-rule="evenodd" clip-rule="evenodd" d="M243.929 30.0551C243.876 30.5327 243.472 30.894 242.992 30.894H227.907L225.231 41.4631H240.926L240.382 43.5344C240.164 44.3636 239.414 44.9416 238.557 44.9416H223.162C221.918 44.9416 221.015 43.7597 221.341 42.5597L225.033 28.9796C225.257 28.1581 226.003 27.5879 226.854 27.5879H243.15C243.713 27.5879 244.15 28.0769 244.088 28.6359L243.929 30.0551Z" fill="#5A6389"/>
<path fill-rule="evenodd" clip-rule="evenodd" d="M250.95 27.5879L249.04 35.2109H261.66L263.693 27.5879H267.114L262.236 44.5942H258.798L260.758 38.3363H247.943L246.312 44.5942H242.99L247.764 27.5879H250.95Z" fill="#5A6389"/>
<path fill-rule="evenodd" clip-rule="evenodd" d="M272.484 28.7617L268.119 44.7992L276.501 36.7881L272.484 28.7617Z" fill="#028C44"/>
<path fill-rule="evenodd" clip-rule="evenodd" d="M269.656 28.7617L265.291 44.7992L273.672 36.7881L269.656 28.7617Z" fill="#F57920"/>
</svg>
