<svg width="123" height="24" viewBox="0 0 123 24" fill="none" xmlns="http://www.w3.org/2000/svg">
<path d="M99.2743 23.4844V23.5134C99.2743 23.5046 99.2761 23.4958 99.2761 23.4844H99.2743ZM99.3251 -3.33798e-06C105.797 -3.33798e-06 111.043 5.25089 111.043 11.7324C111.043 11.7431 111.041 11.7525 111.041 11.7633C117.513 11.7633 122.759 17.0142 122.759 23.4932H122.79V-3.33798e-06H99.3251Z" fill="#356596"/>
<path d="M99.3251 23.4643V23.4932C99.3251 23.4844 99.327 23.4731 99.327 23.4643H99.3251Z" fill="#EF5041"/>
<path d="M102.132 21.9297V21.9543C102.132 21.9455 102.135 21.9385 102.135 21.9297H102.132Z" fill="#F89F32"/>
<path d="M99.998 22.7884V22.8174C99.998 22.8086 100 22.7972 100 22.7884H99.998Z" fill="#F15D3E"/>
<path d="M99.3251 23.4643V23.4932C99.3251 23.4844 99.327 23.4731 99.327 23.4643H99.3251Z" fill="#356596"/>
<path d="M111.716 11.056C111.716 11.0647 111.714 11.0761 111.714 11.0875C116.844 11.0875 121.2 14.3879 122.788 18.9824V5.314e-07H103.92C108.462 1.61451 111.716 5.95382 111.716 11.056Z" fill="#55986A"/>
<path d="M102.676 21.9474V21.9719C102.676 21.965 102.676 21.9587 102.676 21.9474ZM100.518 22.8174V22.8457C100.518 22.8369 100.52 22.8281 100.52 22.8174H100.518ZM99.8336 23.5002V23.5311C99.8336 23.5197 99.8336 23.5089 99.8336 23.5002Z" fill="#55986A"/>
<path fill-rule="evenodd" clip-rule="evenodd" d="M1.07512 9.41043H15.3608L14.284 13.8633H11.0524L11.3408 12.4285H10.0484L7.82528 21.0534H9.90807L9.33296 23.7133H0.573141L0.59776 23.6376H0.573141L1.43973 21.0534H3.01611L5.02651 12.3554H3.66042L3.44755 13.0715L3.30273 13.7939H0L1.07512 9.41043ZM33.2359 19.3273V19.2541H30.4413L29.2889 23.2839C29.2889 23.2839 30.0088 24 34.8173 24C39.6234 24 41.9221 20.8379 41.9221 18.7536C41.9221 16.6674 40.4119 16.0244 39.697 15.5157C38.977 15.0882 37.1846 14.5839 37.1115 13.5713L37.1073 13.5273L37.0977 13.4806V13.4295C37.1115 12.5217 38.4241 12.3061 38.848 12.2815H38.8997C39.268 12.2815 39.979 12.5708 39.979 12.5708V13.6452H42.7149C42.7149 13.6452 42.8574 10.7717 43.7926 9.70181V9.69487H43.7812L43.7788 9.69041C43.6237 9.64185 41.9377 9.12113 39.268 9.12113C35.5593 9.12113 32.4008 10.7672 31.9321 13.1692L31.9074 13.289L31.8918 13.4094L31.8855 13.538L31.8741 13.6672C31.8741 13.705 31.8741 13.7454 31.8741 13.7939C31.8741 16.5987 33.7396 17.2456 35.1038 17.8887C36.2583 18.5311 36.6052 18.9982 36.6669 19.4452V19.4477L36.6738 19.4679V19.4918L36.6828 19.519V19.6879L36.6738 19.7257V19.7522L36.6669 19.7768L36.6606 19.8013V19.8304L36.6582 19.8543V19.8859H36.6431L36.6381 19.9035V19.9345L36.6248 19.959V19.9766V19.9861C36.4649 20.4104 35.97 20.7622 34.7058 20.7685H34.5281L34.5239 20.764H34.3243L34.2083 20.7622H33.9909C33.2889 20.742 33.2333 20.7085 33.2333 20.6909H33.2359V19.3273ZM16.5115 9.41043L15.7897 11.9234H15.8186L15.7897 11.9972H17.0134L17.7308 23.6376H23.3278L32.4429 9.41043H25.6978L24.8381 11.9234H26.2772L22.0392 19.1829V12.0658H23.2591L24.047 9.41043H16.5115ZM34.4551 20.764H34.3303H34.4551Z" fill="#356596"/>
<path d="M54.3978 9.43012C53.6717 9.22583 52.8471 9.12113 51.946 9.12113C50.9353 9.12113 49.9733 9.30586 49.0873 9.66391C48.1986 10.0264 47.4013 10.5579 46.7131 11.2451C45.9754 11.9833 45.3981 12.8735 44.998 13.8897C44.6005 14.9016 44.3985 15.9847 44.3985 17.1056C44.3985 19.1495 45.0428 20.829 46.3111 22.0943C47.5814 23.3596 49.2649 24 51.3192 24C51.8634 24 52.4364 23.9358 53.0229 23.8116C53.605 23.6893 54.2201 23.5021 54.8487 23.2555L55.0238 23.1862L55.6884 19.5366L54.9904 20.0882C54.4356 20.5264 53.8555 20.8599 53.2647 21.0824C52.6829 21.3024 52.0631 21.4115 51.4302 21.4115C50.1578 21.4115 49.154 21.0156 48.3585 20.2017C47.5639 19.3828 47.1746 18.3464 47.1746 17.0319C47.1746 16.2936 47.3107 15.5711 47.5745 14.8839C47.8366 14.1968 48.2187 13.5802 48.712 13.0532C49.1182 12.6106 49.6203 12.2683 50.2047 12.0325C50.791 11.7923 51.4389 11.6725 52.1324 11.6725C52.8005 11.6725 53.4291 11.7992 53.9953 12.0458C54.5665 12.2948 55.1019 12.6818 55.5925 13.1956L56.0681 13.6937L56.5384 10.4999L56.374 10.3801C55.7972 9.95765 55.1326 9.63936 54.3978 9.43012V9.43012ZM61.2581 12.0325H61.3071C62.6708 12.0325 63.2396 12.2285 63.4772 12.3907C63.7838 12.6043 63.9347 12.987 63.9347 13.5651C63.9347 14.2681 63.7459 14.7396 63.3593 15.0082C63.0707 15.2086 62.3976 15.4464 60.8363 15.4464H60.7966L61.2581 12.0325ZM65.7536 16.327C66.4138 15.5667 66.7487 14.5743 66.7487 13.3804C66.7487 12.7486 66.629 12.1636 66.391 11.641C66.1511 11.1114 65.8002 10.6644 65.3493 10.3152C64.9449 9.99057 64.4765 9.75719 63.9593 9.62351C63.4504 9.49244 62.6618 9.42813 61.5473 9.42813H58.8133L56.9517 23.6376H59.726L60.5011 17.842L64.0835 23.6376H67.2667L63.4594 17.6636C64.419 17.4277 65.1875 16.9807 65.7536 16.327V16.327ZM67.6771 23.6401H75.9438L76.3061 21.0156H70.811L71.2884 17.3125H76.779L77.1166 14.7459H71.6417L71.9907 12.0148H77.4831L77.8075 9.42813H69.5426L67.6771 23.6401ZM83.0531 12.0325C84.1729 12.0325 84.9808 12.0948 85.4564 12.2172C85.9142 12.3351 86.3292 12.535 86.6933 12.8155C87.1625 13.1736 87.529 13.6426 87.7821 14.2056C88.0374 14.7792 88.1682 15.4375 88.1682 16.1625C88.1682 17.0098 88.004 17.7973 87.682 18.5021C87.3621 19.1962 86.9112 19.7592 86.3406 20.1727C85.9161 20.4772 85.4053 20.6979 84.819 20.829C84.2126 20.9645 83.1487 21.0332 81.6605 21.0332H81.2676L82.4446 12.0325H83.0531ZM88.6501 10.725C88.0329 10.2578 87.3357 9.91986 86.5762 9.71941C85.821 9.52403 84.7038 9.42813 83.1664 9.42813H79.9992L78.1382 23.6376H83.0179C83.6931 23.6376 84.2661 23.6136 84.7234 23.5575C85.1874 23.5046 85.6277 23.4176 86.0366 23.3021C86.6562 23.1282 87.2374 22.8704 87.7638 22.5393C88.2905 22.2052 88.7722 21.7897 89.1898 21.3049C89.7837 20.6285 90.2453 19.826 90.5628 18.9207C90.8784 18.0172 91.0383 17.0609 91.0383 16.0711C91.0383 14.9439 90.8318 13.9099 90.4274 12.9977C90.0186 12.0772 89.4209 11.3144 88.6501 10.725V10.725ZM91.7493 23.6401H94.5588L96.4489 9.42813H93.6103L91.7493 23.6401ZM97.8325 9.42813L97.4838 12.0502H101.133L99.5984 23.6376H102.41L103.945 12.0502H107.387L107.747 9.42813H97.8325Z" fill="#55986A"/>
</svg>
