<?xml version="1.0" encoding="UTF-8"?>
<svg version="1.1" viewBox="0 0 300 300" xmlns="http://www.w3.org/2000/svg" xmlns:xlink="http://www.w3.org/1999/xlink">
<title>unfortunate_events_icon</title>
<desc>Created with Sketch.</desc>
<defs>
<rect id="b" width="300" height="300"/>
<linearGradient id="d" x1="66.329%" x2="90.799%" y1="54.521%" y2="92.444%">
<stop stop-color="#985858" offset="0"/>
<stop stop-color="#637ADA" offset=".06031"/>
<stop stop-color="#142158" offset="1"/>
</linearGradient>
<linearGradient id="c" x1="34.274%" x2="71.645%" y1="70.281%" y2="65.294%">
<stop stop-color="#FCF68B" offset="0"/>
<stop stop-color="#F7EB53" offset="1"/>
</linearGradient>
</defs>
<g fill="none" fill-rule="evenodd">
<g transform="translate(-30 -360)">
<g transform="translate(30 30)">
<g transform="translate(0 330)">
<mask id="a" fill="white">
<use xlink:href="#b"/>
</mask>
<use fill="#FFFFFF" fill-rule="nonzero" xlink:href="#b"/>
<g fill-rule="nonzero" mask="url(#a)">
<g transform="translate(5 21)">
<path transform="translate(145 150) scale(-1 1) translate(-145 -150)" d="m13 122c4.7112 20.175 14.685 37.615 30.444 46.079 32.759 17.567 106.63 8.505 161.76-1.9033 27.859-5.2419 53.147-19.725 71.792-41.117l-264-3.0589z" fill="#F4F9FF" opacity=".6"/>
<path transform="translate(145 98) scale(-1 1) translate(-145 -98)" d="m5.6378 76c-1.138 11.49-0.75188 23.08 1.1483 34.468l260.14 9.5322c7.242-8.3449 13.322-17.634 18.075-27.614l-279.36-16.386zm102.89 24.587h-5.1221c1.4137 0 2.5597 1.148 2.5597 2.5641 0 1.4161-1.146 2.5641-2.5597 2.5641h-29.629c-0.9145 0-1.7595-0.48872-2.2168-1.2821s-0.45725-1.7708 0-2.5641 1.3023-1.2821 2.2168-1.2821h5.1221c-1.3823-0.044615-2.4799-1.18-2.4799-2.5654s1.0975-2.5208 2.4799-2.5654h-3.6575c-1.3823-0.044615-2.4799-1.18-2.4799-2.5654s1.0975-2.5208 2.4799-2.5654h29.629c1.3823 0.044615 2.4799 1.18 2.4799 2.5654s-1.0975 2.5208-2.4799 2.5654h3.6575c1.3823 0.044615 2.4799 1.18 2.4799 2.5654s-1.0975 2.5208-2.4799 2.5654z" fill="#ECF5FF" opacity=".5"/>
<path transform="translate(145 56) scale(-1 1) translate(-145 -56)" d="m289.87 38-283.09 6.8657c-3.4443 8.8224-5.715 18.791-6.7748 29.134h284.91c1.8596-6.0731 3.2354-12.283 4.1147-18.572 0.84784-6.0761 1.187-11.954 0.84519-17.428zm-232.4 22.488h-5.1056c0.91155-1e-7 1.7539 0.48468 2.2096 1.2715 0.45578 0.78679 0.45578 1.7562 0 2.5429-0.45578 0.78679-1.2981 1.2715-2.2096 1.2715h-29.534c-1.4091-1e-7 -2.5515-1.1385-2.5515-2.5429 0-1.4044 1.1423-2.5429 2.5515-2.5429h5.1056c-1.3779-0.044247-2.4719-1.1703-2.4719-2.5443s1.094-2.5 2.4719-2.5443h-3.6457c-1.3779-0.044247-2.4719-1.1703-2.4719-2.5443s1.094-2.5 2.4719-2.5443h29.534c1.3779 0.044247 2.4719 1.1703 2.4719 2.5443s-1.094 2.5-2.4719 2.5443h3.6457c1.3779 0.044247 2.4719 1.1703 2.4719 2.5443s-1.094 2.5-2.4719 2.5443z" fill="#ECF5FF" opacity=".3"/>
<path transform="translate(145 18) scale(-1 1) translate(-145 -18)" d="m278.91 21.265h-29.328c-1.3993 0-2.5336-1.1359-2.5336-2.5371 0-1.4012 1.1343-2.5371 2.5336-2.5371h5.0699c-1.3682-0.044146-2.4546-1.1676-2.4546-2.5384 0-1.3708 1.0864-2.4943 2.4546-2.5384h-3.6202c-1.3682-0.044146-2.4546-1.1676-2.4546-2.5384s1.0864-2.4943 2.4546-2.5384h15.307c-3.3966-1.5808-7.3667-2.7057-11.942-3.2959-41.738-5.3667-56.64-1.8152-61.896 1.8442-6.4854 4.5052-13.721 7.8195-21.453 9.4161-25.752 5.3193-73.912 11.721-117.56-2.0497-21.695-6.85-37.818 4.7212-47.484 24.049h278c-0.36308-5.617-1.4497-10.802-3.444-15.344-0.45819 0.39436-1.0428 0.6104-1.647 0.60859z" fill="#ECF5FF" opacity=".6"/>
</g>
</g>
<g fill-rule="nonzero" mask="url(#a)">
<g transform="translate(90 48)">
<path d="m76 63.686-2.6373 12.826-12.912 21.488-15.923-6.7342s-21.636-22.449-8.0406-25.657c1.6288-0.34447 3.1666-1.023 4.5144-1.9919 2.6724-1.9919 3.5086-4.8929 3.5086-7.7302 0-4.6844-2.2104-9.2009-2.2104-9.2009l27.853-8.6856c-1.1505 3.6242-1.8227 7.3805-1.9999 11.175-0.21052 7.5275 2.6081 11.21 4.9179 12.976 0.86461 0.6981 1.8604 1.2196 2.9297 1.5345z" fill="#FBBEBE"/>
<path d="m70 38c-1.1566 3.6388-1.8323 7.4103-2.0105 11.221-0.50898 0.60035-1.0527 1.1711-1.6284 1.7092-3.344 3.1614-7.6939 5.4294-12.361 6.0702s-9.0032-1.4257-12-4 0-6.3084 0-6.3084l28-8.6916z" fill="#E1AAAA"/>
<path d="m73.998 34.006c-0.0023681 8.8996-5.3664 16.921-13.59 20.323s-17.687 1.514-23.976-4.7832c-6.2888-6.2971-8.1641-15.763-4.7513-23.982 3.4128-8.2192 11.441-13.573 20.341-13.563 5.8392-0.018746 11.444 2.2946 15.571 6.4263s6.4321 9.7399 6.4056 15.579z" fill="#FBBEBE"/>
<path d="m76 63.513-2.6373 12.89-12.912 21.597-15.923-6.7682s-21.636-22.563-8.0406-25.787c1.6288-0.34621 3.1666-1.0282 4.5144-2.0019-2.456 6.7216 7.6839 20.7 7.6839 20.7 1.1695 1.7459 3.8887 0.64016 3.8887 0.64016 6.526-0.97769 18.555-19.676 20.514-22.784 0.86182 0.68923 1.8513 1.2033 2.9122 1.5131z" fill="#6F6FC6"/>
<path d="m89 189.56c-3.8569 0.84346-25.22 5.3947-33.323 4.2569-8.9092-1.2567-26.245-2.0888-26.245-2.0888s-11.035 0.56608-14.433-0.91705c0-0.39626 0.035331-0.61703 0.035331-0.61703l6.2889-7.2458s60.886-4.3871 65.45 0c1.1247 1.0699 1.8136 3.5153 2.2258 6.6118z" fill="#6F6FC6"/>
<path d="m49.063 84.87s-11.462-15.931-7.1432-22.121l-19.364 7.9598s-11.656-1.4161-15.887 16.026c-0.67529 2.8983-0.91918 5.8808-0.72373 8.8507 0.15298 2.6316-0.20006 7.2635-3.1891 13.253-4.7837 9.5883-3.6952 31.591 6.0841 33.774 9.7792 2.1832 13.251 1.0857 13.251 1.0857s-1.3004 39.876-6.949 44.448c-5.6487 4.5729 14.398 3.4872 14.398 3.4872s17.323 0.87327 26.231 2.1773c8.9084 1.304 33.892-4.5729 33.892-4.5729s-3.6952-16.781-4.9955-27.455-4.3483-33.409-4.3483-33.409l22.165-30.093s3.907-18.191-9.7792-26.251c-13.686-8.0601-19.705-10.031-19.705-10.031s-12.857 22.422-20.024 23.525c0 0-2.7243 1.0975-3.9129-0.65495z" fill="#7C7CDD"/>
<path d="m23.402 91s-0.20043 7.0535 0.99675 9.8367c1.1972 2.7832 5.6013 18.163 5.6013 18.163h-10s5.4171-6.1971 5-9.1887c-0.41712-2.9915-1.598-18.811-1.598-18.811z" fill="#6F6FC6"/>
<path d="m55.152 145s-23.657-5.796-25.862-10.705c-2.2045-4.9092-8.29-15.933-8.29-15.933l2.4945-3.3617 11.51 9.0243s13.708 10.914 20.136 11.986c6.4278 1.0723 0.011602 8.9896 0.011602 8.9896z" fill="#FBBEBE"/>
<path d="m77 117.11v13.269h-2.1262c-10.493 0.002022-20.813 2.6856-29.988 7.7983l-3.9777 2.2195-1.0691 0.59987-6.8386-15.465 5-4.5354h0.32849c1.5648 0.14997 9.7284-0.50343 12.595-1.4752 2.7235-0.92979 6.104-3.8751 14.125-1.7996 3.9538 1.0138 7.3284 5.4648 11.163 4.0731l0.78838-4.685z" fill="#FBBEBE"/>
<path d="m97.623 93.708 4.377 4.8586v11.784s-3.7196 37.177-15.53 41.287-32.89-2.3825-32.89-2.3825-5.4491-14.266-2.9022-15.126 22.507-6.0762 22.507-6.0762-0.27838-21.811 4.0927-28.297c0 0-2.843-20.313 7.0009-20.746s13.344 14.699 13.344 14.699z" fill="#6F6FC6"/>
<path d="m98.625 93.708c2.25 1.528 3.375 2.2921 3.375 2.2921 1.0652 4.0521 1.3986 8.8355 1 14.35 0 0-3.706 37.177-15.546 41.287s-32.881-2.3825-32.881-2.3825-5.4406-14.266-2.895-15.126c2.5457-0.8605 22.497-6.0762 22.497-6.0762s-0.28417-21.811 4.0908-28.297c0 0-2.8417-20.313 6.9976-20.746 9.8393-0.43318 13.362 14.699 13.362 14.699z" fill="#7C7CDD"/>
<path d="m41 90 6.8185 28s5.3793-0.029474-6.8185-28z" fill="#6F6FC6"/>
<path d="m65 86s-8.5707 13.712-5.2251 27.884l1.5964 0.11611s-2.8531-6.5632 3.6287-28z" fill="#6F6FC6"/>
<path d="m71 168.84s11.188-3.9097 12 5.1621c0 0-2.1123-6.2174-12-5.1621z" fill="#6F6FC6"/>
<path d="m39.273 121s-2.1237 15.218 1.7266 21.305c0 0-7.7813 3.2615-18.705 2.608l-1.295-23.913h18.273z" fill="#6F6FC6"/>
<path d="m42 140.41-1.0816 0.59356-6.9184-15.302 6-5.6981h0.80363c-0.10272 0.73601-1.9033 13.913 1.1964 20.406z" fill="#6F6FC6"/>
<path d="m40.151 120s-2.2748 15.219 1.8494 21.309c0 0-8.3347 3.2629-20.035 2.6091l-7.9648-23.918h26.151z" fill="#7C7CDD"/>
<path transform="translate(48 19) scale(-1 1) translate(-48 -19)" d="m32.185 20.734c3.9645-2.8875 11.952-0.44775 14.511 0.48049 9.7493 3.5364 20.234 9.0713 25.384-1.0277 3.2767-6.4257 7.224-13.458 3.2508-17.708-3.2508 5.6665-28.639-2.4791-34.675-2.4791-5.3351 0-15.628 2.2529-19.505 9.5622-3.8764 7.3093-2.1932 26.405 2.4994 28.438 1.0836-3.8957 4.5704-14.378 8.5349-17.266z" fill="#242548" stroke="#242548" stroke-linecap="round" stroke-linejoin="round" stroke-width="3"/>
</g>
</g>
<path d="m150 311c82.843 0 150-16.789 150-37.5s-67.157-37.5-150-37.5c-82.843 0-150 16.789-150 37.5s67.157 37.5 150 37.5z" fill="#ECF5FF" fill-rule="nonzero" mask="url(#a)"/>
<g mask="url(#a)">
<g transform="translate(50 252)">
<polygon points="2 0 34 0 35 10 0 10" fill="#B2B0D4" fill-rule="nonzero"/>
<polygon points="0 10 3 10 2 12" fill="#B2B0D4" fill-rule="nonzero"/>
<polygon points="2 0 34 0 38 12 2 12" fill="#8E87FF" fill-rule="nonzero"/>
<path d="m14.884 4.0014h-1.8368v4.9986h-1.2355v-4.9986h-1.8121v-1.0014h4.8844v1.0014zm4.0896 3.7624h-2.1663l-0.41184 1.2363h-1.3138l2.2322-6h1.1449l2.2445 6h-1.3138l-0.41596-1.2363zm-1.8327-1.0014h1.4991l-0.75367-2.2459-0.74543 2.2459zm6.2682-1.6937 1.1243-2.0687h1.4208l-1.7462 2.9753 1.7915 3.0247h-1.4373l-1.1532-2.1016-1.1532 2.1016h-1.4373l1.7915-3.0247-1.7462-2.9753h1.4208l1.1243 2.0687z" fill="#fff" fill-rule="evenodd"/>
</g>
</g>
<g fill-rule="nonzero" mask="url(#a)">
<g transform="translate(220 102)">
<circle cx="30" cy="30" r="30" fill="#E9F3FF"/>
<path d="m33 13c6.0751 0 11 4.9249 11 11v21h-22v-21c0-6.0751 4.9249-11 11-11z" fill="#D2CBCB"/>
<path d="m30 13c6.0751 0 11 4.9249 11 11v21h-22v-21c0-6.0751 4.9249-11 11-11z" fill="#F2F2F2"/>
<path d="m45 23.909c0-6.0249-5.2058-10.909-11.627-10.909-0.57618 0-1.1474 0.039375-1.7104 0.11729-0.42353 0.058613-0.71622 0.42825-0.65375 0.82562 0.062473 0.39736 0.45646 0.67197 0.87998 0.61336 0.48818-0.06756 0.98374-0.10172 1.4841-0.10172 5.5655 0 10.077 4.2329 10.077 9.4545v20.364c0 0.40166 0.34705 0.72727 0.77516 0.72727 0.42811 0 0.77516-0.32561 0.77516-0.72727v-20.364z" fill="#C6C6C6"/>
<path d="m41 23.909c0-6.0249-4.9249-10.909-11-10.909s-11 4.8842-11 10.909v15.618c0 0.40166 0.32832 0.72727 0.73333 0.72727s0.73333-0.32561 0.73333-0.72727v-15.618c0-5.2216 4.2682-9.4545 9.5333-9.4545 5.2651 0 9.5333 4.2329 9.5333 9.4545v20.364c0 0.40166 0.32832 0.72727 0.73333 0.72727 0.40501 0 0.73333-0.32561 0.73333-0.72727v-20.364z" fill="#E5D8D8"/>
<path d="m29 25h-2.2c-0.44183 0-0.8-0.44772-0.8-1s0.35817-1 0.8-1h2.2v-2.25c0-0.41421 0.44772-0.75 1-0.75s1 0.33579 1 0.75v2.25h2.2c0.44183 0 0.8 0.44772 0.8 1s-0.35817 1-0.8 1h-2.2v6.25c0 0.41421-0.44772 0.75-1 0.75s-1-0.33579-1-0.75v-6.25z" fill="#C9A6A6"/>
<path d="m14.505 41.29c0.5363-0.066006 1.8696 1.2878 4 4.0615 0-2.9538-0.11111-5.0462-0.33333-6.2769 1.7778 1.1074 2.8889 3.3228 3.3333 6.6462-0.22222-5.4154 0.88889-9.2308 3.3333-11.446-0.66667 2.4615-0.66667 6.1538 0 11.077-0.22222-2.7077 1-4.9231 3.6667-6.6462-0.66667 1.9692-1 4.3077-1 7.0154-8 0-12 0.12308-12 0.36923 0 0.36923-0.33333-2.2154-1-4.8z" fill="#57DD7B"/>
<path d="m22.652 45.336c0.089884-1.3241-0.18859-2.9256-1.1529-4.4744-1.0914-1.7529-2.9013-3.0855-5.5252-3.832-0.40596-0.1155-0.8287 0.11997-0.9442 0.52593-0.1155 0.40596 0.11997 0.8287 0.52593 0.9442 2.2643 0.64422 3.7584 1.7443 4.6459 3.1698 0.77045 1.2375 0.99548 2.5316 0.92546 3.5631-0.0030468 0.044883-0.0063069 0.078142-0.0065886 0.078956-0.052759 0.41877 0.24395 0.80101 0.66271 0.85377s0.80101-0.24395 0.85377-0.66271c0.0051322-0.042158 0.0099929-0.091747 0.015067-0.16649z" fill="#35CB5D"/>
<path transform="translate(23.071 40.114) rotate(-7) translate(-23.071 -40.114)" d="m21.543 45.17c-0.056602-1.4951 0.045666-3.2703 0.43255-4.9471 0.60511-2.6226 1.7668-4.2962 3.5741-4.7137 0.41125-0.094993 0.66762-0.50538 0.57263-0.91663s-0.50538-0.66762-0.91663-0.57263c-2.5046 0.57853-3.9972 2.7289-4.7194 5.8593-0.42244 1.8309-0.53186 3.7303-0.47059 5.3486 0.0051531 0.13611 0.010424 0.23369 0.01418 0.2884 0.02891 0.42108 0.3937 0.739 0.81479 0.71009 0.42108-0.02891 0.739-0.3937 0.71009-0.81479-0.0027098-0.039469-0.0071384-0.12146-0.011684-0.24153z" fill="#35CB5D"/>
<path d="m24.773 43.912c-0.1988-1.3833-0.2919-2.7883-0.22169-4.0869 0.11644-2.1538 0.67171-3.7075 1.6918-4.4401 0.34283-0.24621 0.42115-0.72371 0.17495-1.0665-0.24621-0.34283-0.72371-0.42115-1.0665-0.17495-1.487 1.0679-2.1875 3.0278-2.3265 5.5991-0.076339 1.412 0.02308 2.9122 0.23501 4.3869 0.056835 0.39548 0.1178 0.75921 0.17893 1.0835 0.037111 0.19686 0.066426 0.33852 0.083996 0.41719 0.091993 0.41193 0.5005 0.67129 0.91243 0.57929 0.41193-0.091993 0.67129-0.5005 0.57929-0.91243-0.059046-0.2644-0.1501-0.7474-0.24172-1.385z" fill="#35CB5D"/>
<path d="m19.718 45.117c0.61554-2.4118-0.13117-5.1821-3.1956-7.7228-0.093393-0.07743-0.18878-0.15441-0.28618-0.23095-0.33188-0.26078-0.81232-0.20314-1.0731 0.12874-0.26078 0.33188-0.20314 0.81232 0.12874 1.0731 0.086928 0.068305 0.17192 0.1369 0.255 0.20578 2.5845 2.1428 3.1665 4.3019 2.6902 6.1681-0.046978 0.18407-0.090402 0.30433-0.11153 0.35071-0.17497 0.3841-0.0054336 0.83732 0.37867 1.0123 0.3841 0.17497 0.83732 0.0054335 1.0123-0.37867 0.05715-0.12546 0.13114-0.33037 0.20157-0.60635z" fill="#35CB5D"/>
<path d="m17.668 42.347c-1.2001-1.0976-2.7701-1.9121-4.7452-2.3301-0.41293-0.087378-0.81851 0.17653-0.90589 0.58947-0.087378 0.41293 0.17653 0.81851 0.58947 0.90589 1.7062 0.36104 3.0298 1.0477 4.0301 1.9626 0.52348 0.47877 0.92411 0.98922 1.2176 1.496 0.16996 0.29344 0.26383 0.5106 0.29697 0.61349 0.1294 0.40175 0.55998 0.62253 0.96174 0.49313 0.40175-0.1294 0.62253-0.55998 0.49313-0.96173-0.23419-0.72709-0.82961-1.7551-1.9379-2.7687z" fill="#35CB5D"/>
<path transform="translate(26.303 41.585) rotate(14) translate(-26.303 -41.585)" d="m25.539 45.21c-0.048595-1.1172 0.066889-2.4762 0.47772-3.7577 0.44116-1.3762 1.163-2.4173 2.2098-3.0273 0.36466-0.21254 0.48798-0.68045 0.27544-1.0451-0.21254-0.36466-0.68045-0.48798-1.0451-0.27544-1.4113 0.82256-2.3482 2.1738-2.8956 3.8813-0.47532 1.4827-0.605 3.0088-0.54924 4.2908 0.0038676 0.088913 0.0076503 0.14951 0.01092 0.19137 0.033562 0.42074 0.40185 0.73461 0.82259 0.70105 0.42074-0.033562 0.73461-0.40185 0.70105-0.82259-0.0013413-0.01595-0.0044752-0.066156-0.0075242-0.13625z" fill="#35CB5D"/>
<path transform="translate(28.387 42.387) rotate(-47) translate(-28.387 -42.387)" d="m26.942 44.469c0.25693-0.55704 0.58051-1.1144 0.97268-1.6306 0.85859-1.1303 1.9139-1.8958 3.1857-2.1624 0.45764-0.09594 0.75086-0.54471 0.65492-1.0024-0.09594-0.45764-0.54471-0.75086-1.0024-0.65492-1.7138 0.35928-3.0999 1.3648-4.1867 2.7954-0.47222 0.62164-0.8565 1.2835-1.1619 1.9457-0.18504 0.40119-0.30472 0.71949-0.3658 0.9152-0.13929 0.44636 0.10965 0.92113 0.55601 1.0604 0.44636 0.13929 0.92113-0.10965 1.0604-0.55601 0.040381-0.1294 0.13463-0.38006 0.28699-0.71039z" fill="#35CB5D"/>
<path transform="translate(14.5 43.057) rotate(30) translate(-14.5 -43.057)" d="m15.708 42.579c-0.78513-0.73857-1.8122-1.2866-3.1044-1.5679-0.27015-0.058796-0.53549 0.11879-0.59265 0.39665-0.057164 0.27786 0.11549 0.55077 0.38564 0.60957 1.1162 0.24294 1.9821 0.705 2.6365 1.3206 0.34247 0.32216 0.60457 0.66564 0.79659 1.0066 0.11119 0.19745 0.1726 0.34358 0.19428 0.41281 0.084657 0.27034 0.36635 0.4189 0.62918 0.33183s0.40727-0.37681 0.32262-0.64715c-0.15321-0.48925-0.54274-1.181-1.2678-1.8631z" fill="#35CB5D"/>
<path d="m46.25 47c0.41421 0 0.75-0.44772 0.75-1s-0.33579-1-0.75-1h-34.5c-0.41421 0-0.75 0.44772-0.75 1s0.33579 1 0.75 1h34.5z" fill="#8A7474"/>
</g>
</g>
<g mask="url(#a)">
<g transform="translate(194 8)">
<circle cx="33" cy="33" r="33" fill="#E9F3FF" fill-rule="nonzero"/>
<g transform="translate(32 31)" fill-rule="nonzero">
<path d="m0 0h14c1.1046-2.0291e-16 2 0.89543 2 2v8c0 1.1046-0.89543 2-2 2h-14v-12z" fill="#F3F3F3"/>
<path d="m11 9c-0.55228 0-1-0.44772-1-1s0.44772-1 1-1 1 0.44772 1 1-0.44772 1-1 1zm0-4c-0.55228 0-1-0.44772-1-1s0.44772-1 1-1 1 0.44772 1 1-0.44772 1-1 1zm-5 4c-0.55228 0-1-0.44772-1-1s0.44772-1 1-1 1 0.44772 1 1-0.44772 1-1 1zm0-4c-0.55228 0-1-0.44772-1-1s0.44772-1 1-1 1 0.44772 1 1-0.44772 1-1 1zm-5 4c-0.55228 0-1-0.44772-1-1s0.44772-1 1-1 1 0.44772 1 1-0.44772 1-1 1zm0-4c-0.55228 0-1-0.44772-1-1s0.44772-1 1-1 1 0.44772 1 1-0.44772 1-1 1z" fill="#4A90E2"/>
<path d="m14.272 12c0.46153 0 0.88085-0.21902 1.1957-0.53428 0.31481-0.31509 0.53261-0.74067 0.53261-1.2073v-8.5487c0-0.44419-0.21871-0.84993-0.53261-1.1541-0.3139-0.30413-0.73412-0.5236-1.1957-0.5236l-14.272-0.032046v11.904l14.272 0.096zm-13.272-11 13.01 0.03014c0.21789 0 0.47953 0.11366 0.67708 0.30151 0.19756 0.18785 0.3125 0.44179 0.3125 0.63315v8.0402c0 0.23391-0.12623 0.49008-0.32292 0.6834-0.19669 0.19332-0.44878 0.31156-0.66667 0.31156l-13.01-0.029979v-9.97z" fill="#fff"/>
</g>
<g transform="translate(18 21)" fill-rule="evenodd">
<path d="m13.391 18.778v4.86c1.652 0.34372 2.9096 0.51557 3.7727 0.51557 1.1295 0 2.5722-0.26877 3.4081-0.65934s1.0673-1.0238 1.0673-1.4318v-2.2377c0-0.40816-0.2001-0.77341-0.46983-1.0467-0.26973-0.27334-0.61447-0.4812-1.0162-0.6534-0.80335-0.34427-1.8433-0.53758-2.9894-0.53758-0.38923 0-0.75922 0.025227-1.1189 0.067744l-2.6539 1.1232z" fill="#CB8716" fill-rule="nonzero"/>
<path d="m17.163 18.706c0.17766 0.0021851 0.34738 0.011783 0.51791 0.021852l-2.7185 1.8924c-0.12037-0.03916-0.2435-0.077285-0.34746-0.12238-0.30698-0.13158-0.53556-0.28479-0.66214-0.41302-0.12657-0.12822-0.14641-0.20466-0.14641-0.26005 2.24e-5 -0.054824 0.019804-0.13171 0.14641-0.26005 0.1266-0.12822 0.35516-0.28144 0.66214-0.41302 0.61396-0.26316 1.5315-0.44579 2.548-0.44579z" fill="#F5A623"/>
<path d="m19.261 18.995c0.16163 0.04923 0.31557 0.1019 0.45017 0.15953 0.30698 0.13158 0.53554 0.28479 0.66214 0.41302 0.12659 0.12833 0.14641 0.20466 0.14641 0.26005 2.24e-5 0.055943-0.019803 0.13183-0.14641 0.26005-0.12658 0.12822-0.35516 0.28144-0.66214 0.41302-0.61396 0.26316-1.5314 0.4458-2.548 0.4458-0.22715 0-0.44717-0.011626-0.66214-0.028409l2.76-1.923z" fill="#F5A623"/>
<path d="m13.807 21.335c0.11942 0.066013 0.23469 0.13547 0.36713 0.1923 0.80336 0.34427 1.8432 0.53758 2.9894 0.53758 1.1462 0 2.1861-0.1933 2.9894-0.53758 0.13171-0.057062 0.24799-0.125 0.36713-0.19012v0.7277c0 0.054824-0.019803 0.13171-0.14641 0.26005-0.1266 0.12822-0.35516 0.28144-0.66214 0.41302-0.61396 0.26316-1.5314 0.4458-2.548 0.4458-1.0166 0-1.9341-0.18264-2.548-0.4458-0.30698-0.13158-0.53554-0.28479-0.66214-0.41302-0.12659-0.12833-0.14639-0.20478-0.14641-0.26005v-0.72988z" fill="#F5A623"/>
<path d="m12.464 1.7764e-14 -9.9286-2.8422e-14c-0.29585 2.8804e-5 -0.53568 0.23356-0.53571 0.52165v2.9526c2.958e-5 0.28809 0.23986 0.52162 0.53571 0.52165l0.67857 0.0040751v2.2802c-1.7681 0.025039-3.2143 1.4-3.2143 3.1136v11.476c0 0.80564 0.32672 1.5321 0.84752 2.0866 0.27179 0.31954 0.53104 0.53274 0.77776 0.63961 0.28853 0.12498 0.83215 0.25954 1.6309 0.40369h10.744c0.55228 0 1-0.44772 1-1v-13.61c0-1.7136-1.4462-3.0885-3.2143-3.1136v-2.2802h0.67857c0.29585-2.881e-5 0.53568-0.23356 0.53571-0.52165v-2.9526c-2.96e-5 -0.28809-0.23986-0.52162-0.53571-0.52165z" fill="#C8C8C8" fill-rule="nonzero"/>
<polygon points="3 1 12 1 12 3 3 3" fill="#7E6262"/>
<polygon points="3 2 12 2 12 3 3 3" fill="#B48D8D"/>
<path d="m4.25 4h6.5v2.6389c4.33e-5 0.29144 0.24254 0.52778 0.54167 0.52778h0.49935c1.2378 0 2.209 0.9367 2.209 2.1111v12.722c0 0.55228-0.44772 1-1 1h-9.791c-1.2378 0-2.209-0.82559-2.209-2h8c0.55228 0 1-0.44772 1-1v-10c0-0.55228-0.44772-1-1-1h-8c0.0021667-1.1724 0.97271-1.8333 2.209-1.8333h0.49935c0.29914 0 0.54163-0.23634 0.54167-0.52778v-2.6389z" fill="#fff"/>
<polygon points="1 10 9 10 9 20 1 20" fill="#FFFBCC"/>
<path d="m6 14h2v2h-2v2h-2v-2h-2v-2h2v-2h2v2z" fill="#E55B6C" fill-rule="nonzero"/>
</g>
</g>
</g>
<g fill-rule="nonzero" mask="url(#a)">
<g transform="translate(5 18)">
<circle cx="38" cy="38" r="38" fill="#E9F3FF"/>
<circle transform="translate(54.82 28.82) rotate(-40.45) translate(-54.82 -28.82)" cx="54.82" cy="28.82" r="2" fill="#FFBB4C"/>
<path d="m65.981 42.438-0.73526-3.2709c-0.16968-0.76321-0.56559-1.5264-1.0746-2.1261l-1.6968-1.8535-2.8845-4.0886c0.11312-0.16354 0.28279-0.3816 0.50903-0.59966 0.73526-0.92675 0.90494-2.1261 0.50903-3.2164l-0.62214-1.6354c-0.16968-0.49063-0.73526-0.76321-1.3008-0.59966-0.50903 0.16354-0.79182 0.70869-0.62214 1.2538l0.62214 1.6354c0.16968 0.49063 0.11312 0.98127-0.22623 1.3629-0.62214 0.76321-0.79182 0.92675-0.79182 0.98127-0.22623 0.21806-0.79182 0.76321-1.2443 1.1448l-0.39591 0.32709s-0.28279 0.16354-1.5271 0.65418c-0.39591 0.16354-0.79182 0.10903-1.1877 0l-1.923-0.81772c-0.50903-0.21806-1.0746 0-1.3008 0.49063-0.22623 0.49063 0 1.0358 0.50903 1.2538l1.923 0.81772c0.45247 0.21806 0.9615 0.27257 1.414 0.27257 0.45247 0 0.84838-0.054515 1.3008-0.21806 0.56559-0.21806 0.9615-0.3816 1.2443-0.49063l2.4886 2.8893 0.50903 2.5077c0.11312 0.54515 0 1.0903-0.22623 1.5809l-1.3574 2.7257c-0.28279 0.54515-0.056559 1.1993 0.50903 1.4719 0.16968 0.054515 0.33935 0.10903 0.50903 0.10903 0.39591 0 0.79182-0.21806 1.0181-0.59966l1.3574-2.7257c0.45247-0.92675 0.62214-1.908 0.39591-2.9438l-0.22623-1.3084 1.0181 1.1448c0.28279 0.32709 0.50903 0.70869 0.62214 1.1448l0.73526 3.2709c0.11312 0.49063 0.56559 0.87224 1.0746 0.87224h0.22623c0.56559-0.21806 0.9615-0.81772 0.84838-1.4174z" fill="url(#d)"/>
<path d="m57.723 40.589-1.1638-0.69643 0.88671-1.1786c0.11084-0.16071 0.11084-0.32143 0-0.48214-0.11084-0.16071-0.2771-0.21429-0.49877-0.16071l-1.6626 0.48214-0.2771-1.2321c-0.055419-0.16071-0.16626-0.32143-0.33251-0.32143-0.16626 0-0.33251 0.053571-0.44335 0.21429l-0.72045 1.2857-0.8867-0.48214c-0.16626-0.053571-0.33251-0.053571-0.44335 0.053572-0.11084 0.10714-0.22168 0.26786-0.16626 0.42857l0.2771 1.3929c0.055419 0.21429 0.2771 0.375 0.49877 0.32143 0.22168-0.053571 0.38793-0.26786 0.33251-0.48214l-0.11084-0.53571 0.49877 0.26786c0.22168 0.10714 0.44335 0.053571 0.55419-0.16071l0.38793-0.69643 0.11084 0.58929c0 0.10714 0.11084 0.21429 0.22168 0.26786s0.22168 0.053571 0.33251 0.053571l0.83129-0.26786-0.38793 0.53571c-0.055419 0.10714-0.11084 0.21429-0.055419 0.32143 0 0.10714 0.11084 0.21429 0.22168 0.26786l0.77587 0.42857-0.88671 0.26786c-0.22168 0.053571-0.33251 0.32143-0.2771 0.53571l0.055419 0.21429-0.99754-0.48214c-0.22168-0.10714-0.44335 0-0.55419 0.21429-0.11084 0.21429 0 0.42857 0.22168 0.53571l1.8842 0.85714c0.055419 0 0.11084 0.053571 0.16626 0.053571 0.11084 0 0.22168-0.053571 0.2771-0.10714 0.11084-0.10714 0.16626-0.26786 0.11084-0.42857l-0.22168-0.75 1.4409-0.42857c0.16626-0.053571 0.2771-0.16071 0.2771-0.32143-0.055419-0.16071-0.16626-0.32143-0.2771-0.375z" fill="#FF5368"/>
<path d="m16 37.5c0-0.27273-0.27273-0.5-0.6-0.5h-4.8c-0.32727 0-0.6 0.22727-0.6 0.5s0.27273 0.5 0.6 0.5h4.8c0.32727 0 0.6-0.22727 0.6-0.5z" fill="#BECDDF"/>
<path d="m12.606 35h4.7944c0.32689 0 0.59931-0.22727 0.59931-0.5s-0.27241-0.5-0.59931-0.5h-4.7944c-0.32689 0-0.59931 0.22727-0.59931 0.5-0.054482 0.27273 0.21793 0.5 0.59931 0.5z" fill="#BECDDF"/>
<path d="m50.152 39.887-9.0604-1.1268-5.0071-5.2394c-0.95373-0.95775-2.2651-1.5211-3.6361-1.5211h-8.9412c-1.4902 0-2.8016 0.73239-3.5765 1.9155l-2.9208 4.8451-3.1592 0.16901c-1.0729 0.056338-1.9075 0.95775-1.8478 1.9718l0.47686 5.4085c0.059608 0.95775 0.95373 1.6901 1.9671 1.6901h35.109c1.0133 0 1.8478-0.73239 1.9671-1.6901l0.47686-4.507c-0.059608-0.90141-0.7749-1.8028-1.8478-1.9155zm-24.152-0.88732h-6l1.9636-3.3067c0.27273-0.42667 0.70909-0.69333 1.2-0.69333h2.8364v4zm3 0 0.056338-4h3.0986c0.61972 0 1.1831 0.26667 1.6338 0.69333l3.2113 3.3067h-8z" fill="url(#c)" stroke="#DAD468"/>
<rect x="12" y="42" width="2" height="2" fill="#D46674"/>
<polygon points="50 43.2 52 43 52 44 50 43.8" fill="#FFFABB"/>
<rect x="29" y="41" width="2" height="1" fill="#948C17"/>
<circle cx="20" cy="47" r="4.5" fill="#625E5D" stroke="#DCECFE"/>
<circle cx="20" cy="47" r="2" fill="#DCECFE"/>
<circle cx="43" cy="47" r="4.5" fill="#625E5D" stroke="#DCECFE"/>
<circle cx="43" cy="47" r="2" fill="#DCECFE"/>
</g>
</g>
</g>
</g>
</g>
</g>
</svg>
