<svg width="310" height="172" viewBox="0 0 310 172" fill="none" xmlns="http://www.w3.org/2000/svg">
<ellipse opacity="0.332938" cx="155.286" cy="156.706" rx="149.286" ry="10.7057" fill="#D5E8FE"/>
<ellipse cx="77.847" cy="102.468" rx="25.1591" ry="43.4883" transform="rotate(-30 77.847 102.468)" fill="#2668B6"/>
<path d="M102.332 110.627C102.332 110.627 97.7011 114.922 95.5346 118.978C93.368 123.034 94.1017 130.871 94.1017 130.871L93.6225 130.041C93.6225 130.041 93.2084 122.18 95.295 118.563C97.3816 114.946 102.332 110.627 102.332 110.627Z" fill="#3F7ABF"/>
<path d="M67.3125 120.887C67.3125 120.887 73.3473 119.024 77.9433 119.176C82.5393 119.328 89.3742 123.642 89.3742 123.642L88.895 122.812C88.895 122.812 81.8792 118.762 77.7037 118.761C73.5282 118.76 67.3125 120.887 67.3125 120.887Z" fill="#3F7ABF"/>
<path d="M94.3275 88.1385C94.3275 88.1385 88.0367 93.3915 85.8701 97.4476C83.7035 101.504 82.3624 110.538 82.3624 110.538L81.8833 109.708C81.8833 109.708 83.5439 100.649 85.6305 97.0326C87.7171 93.4159 94.3275 88.1385 94.3275 88.1385Z" fill="#3F7ABF"/>
<path d="M52.2536 102.47C52.2536 102.47 59.9482 99.6489 64.5442 99.8007C69.1402 99.9524 77.6349 103.308 77.6349 103.308L77.1558 102.478C77.1558 102.478 68.4801 99.387 64.3046 99.3857C60.1291 99.3844 52.2536 102.47 52.2536 102.47Z" fill="#3F7ABF"/>
<path d="M76.8126 76.4615C76.8126 76.4615 73.5796 82.0305 73.0699 85.6074C72.5603 89.1844 73.998 96.2153 73.998 96.2153L73.4212 95.7313C73.4212 95.7313 72.2129 88.5965 72.7815 85.3654C73.3502 82.1344 76.8126 76.4615 76.8126 76.4615Z" fill="#3F7ABF"/>
<path d="M53.2872 83.4818C53.2872 83.4818 58.1854 82.6061 60.9175 83.1813C63.6495 83.7566 68.3748 86.6588 68.3748 86.6588L68.1758 86.112C68.1758 86.112 63.3144 83.349 60.818 82.908C58.3215 82.4669 53.2872 83.4818 53.2872 83.4818Z" fill="#3F7ABF"/>
<path d="M55.7972 65.0161L108.155 154.254L106.91 154.973L55.7972 65.0161Z" fill="#3F7ABF"/>
<ellipse cx="72.3182" cy="130.075" rx="20.3669" ry="35.2048" transform="rotate(-60 72.3182 130.075)" fill="url(#paint0_linear)"/>
<path fill-rule="evenodd" clip-rule="evenodd" d="M92.7866 125.886C92.7866 125.886 91.2784 130.772 91.4012 134.492C91.524 138.213 95.2104 143.41 95.2104 143.41L94.5386 143.022C94.5386 143.022 91.0664 137.678 91.0653 134.298C91.0642 130.918 92.7866 125.886 92.7866 125.886Z" fill="#A0CBFF"/>
<path fill-rule="evenodd" clip-rule="evenodd" d="M72.3886 147.253C72.3886 147.253 75.8652 143.504 79.1487 141.75C82.4322 139.997 88.9702 140.255 88.9702 140.255L88.2984 139.867C88.2984 139.867 81.7406 139.867 78.8128 141.557C75.885 143.246 72.3886 147.253 72.3886 147.253Z" fill="#A0CBFF"/>
<path fill-rule="evenodd" clip-rule="evenodd" d="M78.0731 113.36C78.0731 113.36 75.7891 119.589 75.9119 123.309C76.0347 127.03 78.7514 133.906 78.7514 133.906L78.0796 133.519C78.0796 133.519 75.5771 126.495 75.576 123.115C75.5749 119.735 78.0731 113.36 78.0731 113.36Z" fill="#A0CBFF"/>
<path fill-rule="evenodd" clip-rule="evenodd" d="M54.378 140.437C54.378 140.437 58.6305 135.345 61.914 133.591C65.1975 131.837 72.5112 130.751 72.5112 130.751L71.8394 130.363C71.8394 130.363 64.5059 131.708 61.578 133.397C58.6502 135.086 54.378 140.437 54.378 140.437Z" fill="#A0CBFF"/>
<path fill-rule="evenodd" clip-rule="evenodd" d="M61.0671 112.262C61.0671 112.262 61.0546 117.475 62.1451 120.189C63.2356 122.903 67.0894 127.25 67.0894 127.25L66.4891 127.144C66.4891 127.144 62.7541 122.631 61.845 120.136C60.9358 117.64 61.0671 112.262 61.0671 112.262Z" fill="#A0CBFF"/>
<path fill-rule="evenodd" clip-rule="evenodd" d="M47.4165 126.706C47.4165 126.706 50.496 124.11 52.6442 123.407C54.7924 122.705 59.2799 122.826 59.2799 122.826L58.9191 122.524C58.9191 122.524 54.3925 122.554 52.4638 123.256C50.5351 123.957 47.4165 126.706 47.4165 126.706Z" fill="#A0CBFF"/>
<path fill-rule="evenodd" clip-rule="evenodd" d="M41.7017 112.744L114.528 154.114L113.947 155.121L41.7017 112.744Z" fill="#A0CBFF"/>
<ellipse rx="25.1591" ry="43.4883" transform="matrix(-0.866025 -0.5 -0.5 0.866025 236.941 102.468)" fill="#2668B6"/>
<path d="M212.456 110.627C212.456 110.627 217.087 114.922 219.254 118.978C221.42 123.034 220.686 130.871 220.686 130.871L221.166 130.041C221.166 130.041 221.58 122.18 219.493 118.563C217.407 114.946 212.456 110.627 212.456 110.627Z" fill="#3F7ABF"/>
<path d="M247.476 120.887C247.476 120.887 241.441 119.024 236.845 119.176C232.249 119.328 225.414 123.642 225.414 123.642L225.893 122.812C225.893 122.812 232.909 118.762 237.084 118.761C241.26 118.76 247.476 120.887 247.476 120.887Z" fill="#3F7ABF"/>
<path d="M220.461 88.1385C220.461 88.1385 226.751 93.3915 228.918 97.4476C231.085 101.504 232.426 110.538 232.426 110.538L232.905 109.708C232.905 109.708 231.244 100.649 229.158 97.0326C227.071 93.4159 220.461 88.1385 220.461 88.1385Z" fill="#3F7ABF"/>
<path d="M262.534 102.47C262.534 102.47 254.84 99.6489 250.244 99.8007C245.648 99.9524 237.153 103.308 237.153 103.308L237.632 102.478C237.632 102.478 246.308 99.387 250.483 99.3857C254.659 99.3844 262.534 102.47 262.534 102.47Z" fill="#3F7ABF"/>
<path d="M237.975 76.4615C237.975 76.4615 241.208 82.0305 241.718 85.6074C242.228 89.1844 240.79 96.2153 240.79 96.2153L241.367 95.7313C241.367 95.7313 242.575 88.5965 242.007 85.3654C241.438 82.1344 237.975 76.4615 237.975 76.4615Z" fill="#3F7ABF"/>
<path d="M261.501 83.4818C261.501 83.4818 256.603 82.6061 253.871 83.1813C251.139 83.7566 246.413 86.6588 246.413 86.6588L246.612 86.112C246.612 86.112 251.474 83.349 253.97 82.908C256.467 82.4669 261.501 83.4818 261.501 83.4818Z" fill="#3F7ABF"/>
<path d="M258.991 65.0161L206.633 154.254L207.878 154.973L258.991 65.0161Z" fill="#3F7ABF"/>
<ellipse rx="20.3669" ry="35.2048" transform="matrix(-0.5 -0.866025 -0.866025 0.5 234.57 130.075)" fill="url(#paint1_linear)"/>
<path fill-rule="evenodd" clip-rule="evenodd" d="M214.1 125.886C214.1 125.886 215.608 130.772 215.486 134.492C215.363 138.213 211.676 143.41 211.676 143.41L212.348 143.022C212.348 143.022 215.82 137.678 215.821 134.298C215.823 130.918 214.1 125.886 214.1 125.886Z" fill="#A0CBFF"/>
<path fill-rule="evenodd" clip-rule="evenodd" d="M234.499 147.253C234.499 147.253 231.022 143.504 227.739 141.75C224.455 139.997 217.918 140.255 217.918 140.255L218.589 139.867C218.589 139.867 225.147 139.867 228.075 141.557C231.003 143.246 234.499 147.253 234.499 147.253Z" fill="#A0CBFF"/>
<path fill-rule="evenodd" clip-rule="evenodd" d="M228.815 113.36C228.815 113.36 231.099 119.589 230.976 123.309C230.853 127.03 228.136 133.906 228.136 133.906L228.808 133.519C228.808 133.519 231.311 126.495 231.312 123.115C231.313 119.735 228.815 113.36 228.815 113.36Z" fill="#A0CBFF"/>
<path fill-rule="evenodd" clip-rule="evenodd" d="M252.51 140.437C252.51 140.437 248.257 135.345 244.974 133.591C241.69 131.837 234.376 130.751 234.376 130.751L235.048 130.363C235.048 130.363 242.382 131.708 245.31 133.397C248.237 135.086 252.51 140.437 252.51 140.437Z" fill="#A0CBFF"/>
<path fill-rule="evenodd" clip-rule="evenodd" d="M245.821 112.262C245.821 112.262 245.833 117.475 244.743 120.189C243.652 122.903 239.798 127.25 239.798 127.25L240.399 127.144C240.399 127.144 244.134 122.631 245.043 120.136C245.952 117.64 245.821 112.262 245.821 112.262Z" fill="#A0CBFF"/>
<path fill-rule="evenodd" clip-rule="evenodd" d="M259.471 126.706C259.471 126.706 256.392 124.11 254.243 123.407C252.095 122.705 247.608 122.826 247.608 122.826L247.969 122.524C247.969 122.524 252.495 122.554 254.424 123.256C256.353 123.957 259.471 126.706 259.471 126.706Z" fill="#A0CBFF"/>
<path fill-rule="evenodd" clip-rule="evenodd" d="M265.186 112.744L192.359 154.114L192.941 155.121L265.186 112.744Z" fill="#A0CBFF"/>
<path fill-rule="evenodd" clip-rule="evenodd" d="M126.075 37.4446L126.253 14.251H210.668V155.582H97.3818V37.4446H126.075Z" fill="#64ABFF"/>
<path fill-rule="evenodd" clip-rule="evenodd" d="M127.612 39.5598L128.078 11.8955H208.307V153.226H95.0214L94.5557 39.5598H127.612Z" fill="#F0F7FF"/>
<rect x="111.543" y="129.671" width="80.2441" height="2.35552" fill="#979797"/>
<path fill-rule="evenodd" clip-rule="evenodd" d="M161.105 117.893H191.787V120.249H161.105V117.893Z" fill="#979797"/>
<rect x="135.144" y="117.893" width="21.2411" height="2.35552" fill="#979797"/>
<rect x="111.543" y="117.893" width="18.881" height="2.35552" fill="#979797"/>
<rect x="139.863" y="106.117" width="56.6429" height="2.35552" fill="#979797"/>
<rect x="111.543" y="106.117" width="18.881" height="2.35552" fill="#979797"/>
<ellipse cx="151.664" cy="70.7824" rx="18.881" ry="9.42206" stroke="#160D2E" stroke-width="1.48245"/>
<ellipse cx="151.664" cy="47.2277" rx="9.44049" ry="9.42206" stroke="#160D2E" stroke-width="1.48245"/>
<path fill-rule="evenodd" clip-rule="evenodd" d="M97.3818 38.0415L125.93 14.251V38.0415H97.3818Z" fill="#A0CBFF"/>
<path fill-rule="evenodd" clip-rule="evenodd" d="M190.08 33.8665L183.787 40.1595C178.299 45.6482 178.299 54.6296 183.787 60.1184C189.276 65.6071 198.257 65.607 203.746 60.1184L210.039 53.8254C215.528 48.3367 215.528 39.3553 210.039 33.8665C204.551 28.3778 195.569 28.3779 190.08 33.8665ZM206.047 49.8329L199.754 56.1259C196.453 59.4275 191.08 59.4275 187.779 56.1259C184.477 52.8244 184.477 47.4521 187.779 44.1506L194.072 37.8576C197.373 34.5561 202.746 34.5561 206.047 37.8576C209.349 41.1592 209.349 46.5313 206.047 49.8329Z" fill="#64ABFF"/>
<path fill-rule="evenodd" clip-rule="evenodd" d="M219.83 4.11654L213.537 10.4095C208.049 15.8982 208.049 24.8796 213.537 30.3684C219.026 35.8571 228.007 35.857 233.496 30.3684L239.789 24.0754C245.278 18.5867 245.278 9.60532 239.789 4.11654C234.301 -1.37224 225.319 -1.37212 219.83 4.11654ZM235.797 20.0832L229.504 26.3761C226.202 29.6777 220.83 29.6777 217.529 26.3761C214.227 23.0746 214.227 17.7023 217.529 14.4008L223.822 8.10783C227.123 4.80628 232.495 4.80628 235.797 8.10783C239.099 11.4094 239.099 16.7815 235.797 20.0832Z" fill="#64ABFF"/>
<path fill-rule="evenodd" clip-rule="evenodd" d="M224.038 23.8952C225.151 22.7826 225.151 20.979 224.038 19.8667C222.926 18.7541 221.122 18.7541 220.01 19.8667C219.935 19.9411 198.402 41.4743 198.348 41.5284C197.236 42.641 197.236 44.4446 198.348 45.557C199.461 46.6694 201.264 46.6695 202.377 45.557C202.428 45.5054 223.96 23.9734 224.038 23.8952Z" fill="#2668B6"/>
<defs>
<linearGradient id="paint0_linear" x1="51.9513" y1="94.8707" x2="51.9513" y2="165.28" gradientUnits="userSpaceOnUse">
<stop stop-color="#A0CBFF"/>
<stop offset="1" stop-color="#64ABFF"/>
</linearGradient>
<linearGradient id="paint1_linear" x1="0" y1="0" x2="0" y2="70.4096" gradientUnits="userSpaceOnUse">
<stop stop-color="#A0CBFF"/>
<stop offset="1" stop-color="#64ABFF"/>
</linearGradient>
</defs>
</svg>
