<svg width="70" height="60" viewBox="0 0 70 60" fill="none" xmlns="http://www.w3.org/2000/svg">
<path d="M48.0783 28.7925H21.8436L15 45.3963H55L48.0783 28.7925Z" fill="#F2F8FF"/>
<path d="M46.4161 31.0566H23.5839L18.7736 43.1321H51.2264L46.4161 31.0566Z" fill="#CBDEF6"/>
<path d="M28.6998 30.3019L30.849 30.5921L29.2247 44.6415L27.0754 44.3513L28.6998 30.3019Z" fill="#F2F8FF"/>
<path d="M40.3737 44.6415L38.3962 30.5987L40.9474 30.3019L42.9245 44.3447L40.3737 44.6415Z" fill="#F2F8FF"/>
<path d="M20.283 36.3396H49.7169V38.6038H20.283V36.3396Z" fill="#F2F8FF"/>
<path d="M34.5 15C30.3668 15 27 18.473 27 22.6679C27 24.1056 27.4 25.5658 28.15 26.7837L34.5 37L40.85 26.7837C41.6 25.5658 42 24.1056 42 22.6679C42 18.473 38.6332 15 34.5 15V15ZM34.5 26.9529C32.2001 26.9529 30.3333 25.002 30.3333 22.6679C30.3333 20.3338 32.2001 18.3829 34.5 18.3829C36.7999 18.3829 38.6667 20.3338 38.6667 22.6679C38.6667 25.002 36.7999 26.9529 34.5 26.9529Z" fill="#3792FC"/>
</svg>
