<svg width="226" height="231" viewBox="0 0 226 231" fill="none" xmlns="http://www.w3.org/2000/svg">
<path fill-rule="evenodd" clip-rule="evenodd" d="M36.2994 138.851C50.6236 124.253 23.6344 97.0641 30.3447 77.419C39.3788 50.9715 112.872 28.2968 162.34 57.0891C203.767 81.201 218.15 135.475 200.053 157.413C194.635 163.979 187.896 165.725 179.043 172.592C170.808 178.979 169.881 180.609 169.287 181.721C163.43 192.689 175.748 202.316 173.269 211.724C169.353 226.589 130.182 234.52 97.4266 229.487C88.5938 228.131 43.8316 220.242 27.3674 187.466C26.0933 184.93 14.0391 160.434 25.3824 146.806C29.3156 142.081 32.4806 142.743 36.2994 138.851Z" fill="#F3F8FF"/>
<path fill-rule="evenodd" clip-rule="evenodd" d="M159.444 85.46C155.604 85.46 152.491 82.3916 152.491 78.6064C152.491 74.821 155.604 71.7525 159.444 71.7525C163.284 71.7525 166.397 74.821 166.397 78.6064C166.397 82.3916 163.284 85.46 159.444 85.46ZM177.408 81.2203L175.212 80.0959C174.858 79.9143 174.636 79.549 174.651 79.1558C174.668 78.7404 174.667 78.3267 174.648 77.9157C174.631 77.5236 174.849 77.1581 175.2 76.974L177.383 75.8313C177.813 75.6061 178.027 75.1177 177.899 74.6548L177.378 72.7709C177.249 72.3081 176.813 71.9945 176.327 72.0159L173.852 72.1244C173.452 72.1421 173.076 71.932 172.888 71.5831C172.694 71.2222 172.485 70.8693 172.262 70.5252C172.046 70.1923 172.046 69.7665 172.258 69.4316L173.572 67.3611C173.83 66.9544 173.768 66.4256 173.422 66.0881L172.015 64.7134C171.669 64.3757 171.132 64.3192 170.722 64.5773L168.639 65.8884C168.301 66.1008 167.87 66.1043 167.53 65.8953C167.18 65.6794 166.819 65.477 166.448 65.2885C166.091 65.1071 165.874 64.7377 165.888 64.3424L165.976 61.904C165.993 61.4246 165.671 60.9975 165.2 60.8754L163.284 60.3787C162.814 60.2565 162.32 60.4722 162.096 60.898L160.955 63.0626C160.771 63.4117 160.4 63.6305 160.001 63.6152C159.58 63.599 159.16 63.6 158.743 63.6183C158.346 63.6357 157.975 63.4207 157.788 63.0741L156.629 60.9225C156.401 60.4988 155.905 60.2875 155.435 60.4138L153.525 60.9279C153.055 61.0541 152.737 61.484 152.759 61.9634L152.869 64.4029C152.886 64.7952 152.677 65.1664 152.325 65.3505C151.955 65.5437 151.594 65.7515 151.241 65.9738C150.905 66.1856 150.474 66.1825 150.137 65.9739L148.037 64.6791C147.624 64.4247 147.088 64.4862 146.745 64.8268L145.351 66.2139C145.008 66.5548 144.951 67.0839 145.213 67.4883L146.543 69.5425C146.758 69.875 146.762 70.3002 146.549 70.6349C146.331 70.9801 146.125 71.3362 145.934 71.702C145.75 72.0538 145.375 72.268 144.974 72.2539L142.501 72.1676C142.015 72.1506 141.581 72.4681 141.457 72.9321L140.953 74.8206C140.829 75.2846 141.048 75.7712 141.48 75.9925L143.676 77.1169C144.03 77.2983 144.252 77.6635 144.237 78.057C144.22 78.4724 144.221 78.8861 144.24 79.2971C144.257 79.689 144.039 80.0544 143.688 80.2385L141.505 81.3815C141.075 81.6064 140.861 82.0949 140.989 82.5577L141.51 84.4416C141.639 84.9045 142.075 85.2181 142.561 85.1967L145.036 85.0882C145.434 85.0706 145.81 85.2771 145.997 85.6241C146.193 85.9888 146.404 86.3452 146.629 86.6928C146.844 87.0238 146.841 87.4484 146.63 87.7815L145.316 89.8515C145.058 90.2584 145.12 90.787 145.466 91.1247L146.873 92.4991C147.219 92.8369 147.755 92.8933 148.166 92.6352L150.249 91.3242C150.587 91.112 151.018 91.1083 151.358 91.3175C151.708 91.5332 152.069 91.7356 152.44 91.9243C152.797 92.1055 153.014 92.4748 153 92.8702L152.912 95.3085C152.895 95.7879 153.217 96.2151 153.688 96.3373L155.604 96.8341C156.074 96.9561 156.568 96.7404 156.792 96.3146L157.933 94.15C158.117 93.8009 158.488 93.5821 158.887 93.5975C159.308 93.6135 159.728 93.6126 160.145 93.5944C160.542 93.5769 160.913 93.792 161.1 94.1384L162.259 96.2903C162.487 96.7138 162.983 96.9251 163.452 96.7988L165.364 96.2849C165.833 96.1586 166.151 95.7286 166.129 95.2493L166.02 92.8095C166.001 92.4151 166.214 92.0446 166.569 91.8595C166.935 91.6681 167.293 91.4622 167.642 91.2421C167.979 91.0295 168.411 91.0289 168.751 91.2384L170.851 92.5334C171.264 92.7879 171.8 92.7266 172.143 92.3858L173.537 90.9986C173.88 90.6578 173.937 90.1287 173.675 89.7242L172.345 87.6703C172.13 87.3376 172.126 86.9125 172.338 86.5779C172.557 86.2324 172.763 85.8764 172.954 85.5105C173.138 85.1589 173.513 84.9448 173.914 84.9586L176.387 85.045C176.873 85.062 177.307 84.7445 177.431 84.2805L177.935 82.3919C178.058 81.9281 177.84 81.4414 177.408 81.2203Z" fill="#FEFEFF"/>
<path fill-rule="evenodd" clip-rule="evenodd" d="M180.004 109.047C177.141 109.047 174.82 106.75 174.82 103.916C174.82 101.083 177.141 98.7861 180.004 98.7861C182.868 98.7861 185.189 101.083 185.189 103.916C185.189 106.75 182.868 109.047 180.004 109.047ZM193.4 105.873L191.762 105.031C191.498 104.896 191.332 104.622 191.343 104.328C191.357 104.017 191.355 103.707 191.341 103.399C191.328 103.106 191.492 102.832 191.752 102.694L193.381 101.839C193.701 101.671 193.861 101.305 193.765 100.959L193.377 99.5485C193.28 99.2019 192.956 98.9672 192.594 98.9832L190.747 99.0645C190.45 99.0776 190.168 98.9204 190.029 98.6593C189.885 98.3892 189.728 98.1249 189.563 97.8673C189.4 97.6182 189.4 97.2995 189.559 97.0489L190.539 95.4989C190.732 95.1945 190.685 94.7988 190.427 94.546L189.377 93.5172C189.121 93.2644 188.719 93.222 188.415 93.4153L186.859 94.3967C186.609 94.5554 186.286 94.5581 186.034 94.4017C185.773 94.24 185.503 94.0886 185.227 93.9474C184.961 93.8117 184.799 93.5353 184.809 93.2394L184.874 91.4143C184.888 91.0553 184.646 90.7355 184.295 90.6442L182.868 90.2722C182.517 90.1808 182.149 90.3423 181.981 90.661L181.131 92.2812C180.994 92.5427 180.717 92.7065 180.42 92.6949C180.105 92.6829 179.793 92.6837 179.482 92.6974C179.185 92.7103 178.909 92.5494 178.769 92.2899L177.905 90.6795C177.735 90.3621 177.365 90.204 177.015 90.2986L175.59 90.6833C175.24 90.7779 175.003 91.0998 175.019 91.4586L175.101 93.2846C175.114 93.5782 174.958 93.8563 174.696 93.9938C174.42 94.1385 174.15 94.2942 173.887 94.4606C173.637 94.619 173.316 94.6167 173.064 94.4608L171.498 93.4914C171.19 93.301 170.79 93.3469 170.535 93.6019L169.495 94.6402C169.24 94.8953 169.197 95.2916 169.392 95.5943L170.384 97.1317C170.544 97.3806 170.547 97.6991 170.389 97.9494C170.226 98.2079 170.073 98.4746 169.93 98.7483C169.793 99.0117 169.514 99.172 169.215 99.1614L167.37 99.0969C167.008 99.0841 166.684 99.3217 166.592 99.6691L166.216 101.083C166.124 101.43 166.287 101.794 166.609 101.96L168.246 102.801C168.51 102.937 168.676 103.211 168.664 103.505C168.652 103.816 168.653 104.126 168.667 104.433C168.68 104.727 168.517 105 168.255 105.138L166.627 105.994C166.307 106.162 166.147 106.528 166.243 106.874L166.631 108.284C166.727 108.631 167.052 108.866 167.415 108.85L169.26 108.768C169.557 108.755 169.838 108.91 169.977 109.169C170.123 109.442 170.28 109.709 170.449 109.97C170.609 110.217 170.606 110.535 170.449 110.784L169.469 112.334C169.277 112.638 169.323 113.034 169.581 113.287L170.63 114.316C170.888 114.568 171.288 114.611 171.594 114.418L173.148 113.436C173.399 113.277 173.721 113.275 173.974 113.431C174.235 113.593 174.505 113.744 174.781 113.885C175.048 114.021 175.21 114.297 175.199 114.593L175.134 116.419C175.121 116.777 175.361 117.097 175.712 117.189L177.141 117.56C177.491 117.652 177.86 117.49 178.027 117.172L178.878 115.552C179.015 115.29 179.291 115.126 179.588 115.138C179.903 115.15 180.216 115.149 180.527 115.136C180.823 115.122 181.1 115.283 181.239 115.543L182.103 117.153C182.273 117.471 182.644 117.629 182.993 117.534L184.419 117.149C184.768 117.055 185.005 116.733 184.99 116.374L184.907 114.548C184.893 114.253 185.054 113.975 185.316 113.837C185.59 113.693 185.856 113.539 186.117 113.375C186.369 113.215 186.692 113.215 186.944 113.372L188.511 114.341C188.818 114.532 189.217 114.486 189.474 114.231L190.514 113.193C190.768 112.937 190.811 112.541 190.616 112.239L189.624 110.701C189.464 110.452 189.46 110.134 189.618 109.883C189.782 109.625 189.935 109.358 190.078 109.084C190.215 108.821 190.494 108.661 190.793 108.671L192.638 108.736C193.001 108.749 193.325 108.511 193.415 108.164L193.792 106.75C193.884 106.403 193.72 106.038 193.4 105.873Z" fill="#FEFEFF"/>
<path fill-rule="evenodd" clip-rule="evenodd" d="M33.6246 214.258L128.53 213.661C131.535 213.642 133.905 211.118 133.711 208.141L125.315 79.1208C125.136 76.3709 122.821 74.2401 120.045 74.2696L25.0371 73.4934C22.9096 73.4866 20.3755 75.7235 20.5016 77.8316L28.3759 209.376C28.5391 212.13 30.8456 214.275 33.6246 214.258Z" fill="#3792FC"/>
<path fill-rule="evenodd" clip-rule="evenodd" d="M36.6492 214.258L131.555 213.658C134.56 213.639 136.929 211.103 136.736 208.112L128.339 78.4754C128.16 75.7122 125.846 73.5704 123.07 73.6007L28.3721 73.5704C25.6777 73.5704 23.5387 75.8312 23.6967 78.5134L31.4003 209.353C31.5637 212.12 33.8701 214.275 36.6492 214.258Z" fill="white"/>
<path fill-rule="evenodd" clip-rule="evenodd" d="M40.3212 205.246L126.677 204.575L119.62 84.2714L33.2119 84.7573L40.3212 205.246Z" fill="#94C5FF"/>
<path fill-rule="evenodd" clip-rule="evenodd" d="M45.9943 106.858L108.78 106.823L108.176 103.107H45.6934L45.9943 106.858Z" fill="white"/>
<path fill-rule="evenodd" clip-rule="evenodd" d="M46.3684 114.082L92.7084 114.14L92.3289 110.423H46.166L46.3684 114.082Z" fill="white"/>
<path fill-rule="evenodd" clip-rule="evenodd" d="M47.1515 126.705L109.529 126.618L108.925 122.902L46.8154 122.944L47.1515 126.705Z" fill="white"/>
<path fill-rule="evenodd" clip-rule="evenodd" d="M47.5995 133.966L94.3537 133.935L93.7498 130.218L47.3008 130.242L47.5995 133.966Z" fill="white"/>
<path fill-rule="evenodd" clip-rule="evenodd" d="M48.3093 146.589L110.953 146.636L110.349 142.92L48.0479 142.903L48.3093 146.589Z" fill="#CADDFF"/>
<path fill-rule="evenodd" clip-rule="evenodd" d="M48.7567 153.962L95.3387 153.953L94.7352 150.236H48.5723L48.7567 153.962Z" fill="#CADDFF"/>
<path fill-rule="evenodd" clip-rule="evenodd" d="M49.4664 166.399L112.15 166.431L111.546 162.715L49.2051 162.749L49.4664 166.399Z" fill="#CADDFF"/>
<path fill-rule="evenodd" clip-rule="evenodd" d="M49.8773 173.325L96.3135 173.301L95.7098 169.584L49.6533 169.601L49.8773 173.325Z" fill="#CADDFF"/>
<path fill-rule="evenodd" clip-rule="evenodd" d="M103.419 89.3431L52.5022 89.0827C51.2155 89.0763 50.1546 88.1186 50.0745 86.892L49.0722 71.5176C48.9844 70.1693 50.1085 69.0311 51.5229 69.0364L102.439 69.2316C103.727 69.2368 104.79 70.1951 104.87 71.423L105.873 86.8623C105.96 88.2117 104.834 89.3504 103.419 89.3431Z" fill="#3792FC"/>
<path fill-rule="evenodd" clip-rule="evenodd" d="M103.181 89.2321L53.8503 88.9687C52.6039 88.9618 51.5757 87.9932 51.4983 86.7527L50.5271 71.2017C50.4421 69.8378 51.5311 68.6863 52.9013 68.6919L102.232 68.8892C103.48 68.8944 104.51 69.8638 104.587 71.1058L105.559 86.7226C105.644 88.0876 104.553 89.2393 103.181 89.2321Z" fill="#73B3FF"/>
<path fill-rule="evenodd" clip-rule="evenodd" d="M75.2876 66.6855C73.7719 66.6855 72.5433 65.1319 72.5433 63.2154C72.5433 61.2991 73.7719 59.7454 75.2876 59.7454C76.8032 59.7454 78.0316 61.2991 78.0316 63.2154C78.0316 65.1319 76.8032 66.6855 75.2876 66.6855ZM84.1329 62.2487C83.8506 57.6933 80.158 54.1294 75.6647 54.0756L74.4624 54.0613C69.1098 53.9974 64.811 58.5282 65.0718 63.9586L65.3854 70.485C65.4295 71.8934 65.7109 74.4998 67.2792 74.4998L84.9767 74.1646L84.1329 62.2487Z" fill="#3792FC"/>
<path fill-rule="evenodd" clip-rule="evenodd" d="M76.4081 66.345C74.8925 66.345 73.6638 64.8196 73.6638 62.9379C73.6638 61.0564 74.8925 59.5308 76.4081 59.5308C77.9235 59.5308 79.1524 61.0564 79.1524 62.9379C79.1524 64.8196 77.9235 66.345 76.4081 66.345ZM85.7012 62.3238C85.419 57.8509 81.7266 54.3515 77.2331 54.2988L76.0307 54.2847C70.6782 54.2216 66.3795 58.6704 66.6402 64.0026L67.2154 72.1272C67.3143 73.5221 68.4862 74.5986 69.8884 74.5826L83.8603 74.4194C85.317 74.4023 86.4596 73.1663 86.3583 71.7167L85.7012 62.3238Z" fill="#73B3FF"/>
<path fill-rule="evenodd" clip-rule="evenodd" d="M82.9772 216.5C85.8815 214.338 88.9039 212.323 91.984 210.401C98.2358 206.5 104.759 203.013 111.336 199.634C114.796 197.856 118.363 196.248 121.891 194.594C125.44 192.93 128.998 191.281 132.556 189.633C135.807 188.127 139.058 186.62 142.305 185.106C151.794 161.66 162.217 135.078 160.704 135.078L45.9963 131.869C43.288 131.869 41.2417 134.046 41.4344 136.723L47.0907 215.297C47.2834 217.974 49.6435 220.152 52.3516 220.152H77.9534C79.5952 218.895 81.319 217.734 82.9772 216.5Z" fill="#3792FC"/>
<path fill-rule="evenodd" clip-rule="evenodd" d="M164.296 132.143H48.3518C45.7928 132.143 43.866 134.194 44.048 136.723L49.7043 215.297C49.8863 217.827 52.1087 219.877 54.6677 219.877H170.612C173.171 219.877 175.098 217.827 174.916 215.297L169.26 136.723C169.078 134.194 166.856 132.143 164.296 132.143Z" fill="white"/>
<path fill-rule="evenodd" clip-rule="evenodd" d="M160.643 135.994H52.938C50.5608 135.994 48.7706 137.898 48.9398 140.248L54.1943 213.239C54.3634 215.588 56.4275 217.493 58.8047 217.493H166.51C168.887 217.493 170.678 215.588 170.508 213.239L165.254 140.248C165.085 137.898 163.021 135.994 160.643 135.994Z" fill="#E2EEFF"/>
<path fill-rule="evenodd" clip-rule="evenodd" d="M161.082 138.891H52.9097C51.7872 138.891 50.9419 139.791 51.0218 140.9L51.1283 142.379C51.2081 143.488 52.183 144.387 53.3054 144.387H161.478C162.601 144.387 163.446 143.488 163.366 142.379L163.26 140.9C163.18 139.791 162.205 138.891 161.082 138.891Z" fill="#94C5FF"/>
<path fill-rule="evenodd" clip-rule="evenodd" d="M79.3584 165.716H116.436L118.465 193.901H81.3874L79.3584 165.716Z" fill="#E2EEFF"/>
<path fill-rule="evenodd" clip-rule="evenodd" d="M124.436 153.432H97.4141L120.41 163.357L145.481 162.736C145.569 162.736 145.586 162.617 145.504 162.582L124.436 153.432Z" fill="#94C5FF"/>
<path fill-rule="evenodd" clip-rule="evenodd" d="M118.892 162.743H77.0889L97.3848 153.433L118.892 162.743Z" fill="white"/>
<path fill-rule="evenodd" clip-rule="evenodd" d="M143.944 165.686H116.446L118.474 193.851H145.972L143.944 165.686Z" fill="#E2EEFF"/>
<path fill-rule="evenodd" clip-rule="evenodd" d="M91.0383 193.901H88.3737L86.3447 165.716H89.0093L91.0383 193.901Z" fill="white"/>
<path fill-rule="evenodd" clip-rule="evenodd" d="M97.9162 193.901H95.2516L93.2227 165.716H95.8873L97.9162 193.901Z" fill="white"/>
<path fill-rule="evenodd" clip-rule="evenodd" d="M104.795 193.901H102.131L100.102 165.716H102.766L104.795 193.901Z" fill="white"/>
<path fill-rule="evenodd" clip-rule="evenodd" d="M111.673 193.901H109.009L106.979 165.716H109.644L111.673 193.901Z" fill="white"/>
<path fill-rule="evenodd" clip-rule="evenodd" d="M118.466 193.901H115.801L113.772 165.716H116.437L118.466 193.901Z" fill="white"/>
<path fill-rule="evenodd" clip-rule="evenodd" d="M84.1606 193.901H81.4958L79.4668 165.716H82.1316L84.1606 193.901Z" fill="white"/>
<path fill-rule="evenodd" clip-rule="evenodd" d="M125.344 193.901H122.68L120.65 165.716H123.315L125.344 193.901Z" fill="#94C5FF"/>
<path fill-rule="evenodd" clip-rule="evenodd" d="M132.222 193.901H129.557L127.528 165.716H130.193L132.222 193.901Z" fill="#94C5FF"/>
<path fill-rule="evenodd" clip-rule="evenodd" d="M139.1 193.901H136.435L134.406 165.716H137.071L139.1 193.901Z" fill="#94C5FF"/>
<path fill-rule="evenodd" clip-rule="evenodd" d="M145.979 193.901H143.314L141.285 165.716H143.95L145.979 193.901Z" fill="#94C5FF"/>
<path fill-rule="evenodd" clip-rule="evenodd" d="M129.429 165.72H143.947L143.733 162.755H116.235L116.449 165.72H129.429Z" fill="#94C5FF"/>
<path fill-rule="evenodd" clip-rule="evenodd" d="M116.236 162.755H79.2539L79.4674 165.72H116.449L116.236 162.755Z" fill="white"/>
<path fill-rule="evenodd" clip-rule="evenodd" d="M81.3652 193.901H145.998L146.457 200.287H81.825L81.3652 193.901Z" fill="#94C5FF"/>
<path fill-rule="evenodd" clip-rule="evenodd" d="M138.765 210.341H92.0885C90.9057 210.341 89.8788 209.393 89.7946 208.224L89.6901 206.773C89.6059 205.603 90.4966 204.655 91.6794 204.655H138.356C139.538 204.655 140.565 205.603 140.65 206.773L140.754 208.224C140.838 209.393 139.948 210.341 138.765 210.341Z" fill="white"/>
<path fill-rule="evenodd" clip-rule="evenodd" d="M108.384 115.392C108.499 123.848 101.719 130.796 93.2405 130.911C84.7621 131.025 77.7954 124.264 77.6802 115.809C77.5649 107.353 84.3447 100.405 92.8229 100.29C101.302 100.175 108.268 106.936 108.384 115.392Z" fill="#7AB5FB"/>
<path fill-rule="evenodd" clip-rule="evenodd" d="M108.579 114.935C108.691 123.139 102.113 129.881 93.886 129.993C85.6592 130.104 78.8993 123.544 78.7875 115.339C78.6755 107.134 85.254 100.393 93.4808 100.281C101.708 100.17 108.467 106.73 108.579 114.935Z" fill="#CBDEF6"/>
<path fill-rule="evenodd" clip-rule="evenodd" d="M106.182 114.967C106.276 121.853 100.756 127.51 93.8516 127.604C86.9476 127.697 81.2747 122.192 81.1809 115.306C81.0871 108.421 86.6075 102.763 93.5115 102.67C100.415 102.576 106.088 108.082 106.182 114.967Z" fill="white"/>
<path fill-rule="evenodd" clip-rule="evenodd" d="M73.9771 159.242C73.6313 165.36 68.3777 170.04 62.2434 169.695C56.1087 169.35 51.4162 164.11 51.7621 157.992C52.1082 151.874 57.3616 147.194 63.496 147.539C69.6305 147.885 74.323 153.124 73.9771 159.242Z" fill="#7AB5FB"/>
<path fill-rule="evenodd" clip-rule="evenodd" d="M74.141 158.921C73.8054 164.857 68.7079 169.398 62.7555 169.063C56.8033 168.729 52.25 163.645 52.5858 157.709C52.9214 151.772 58.0189 147.231 63.9711 147.566C69.9235 147.901 74.4768 152.984 74.141 158.921Z" fill="#CBDEF6"/>
<path fill-rule="evenodd" clip-rule="evenodd" d="M72.4078 158.823C72.1261 163.805 67.8485 167.616 62.8531 167.335C57.8578 167.054 54.0367 162.788 54.3183 157.806C54.6002 152.824 58.8778 149.013 63.8732 149.295C68.8683 149.575 72.6896 153.842 72.4078 158.823Z" fill="white"/>
<path fill-rule="evenodd" clip-rule="evenodd" d="M155.436 100.624L155.17 100.384L155.436 100.624Z" fill="white"/>
<path fill-rule="evenodd" clip-rule="evenodd" d="M46.8816 212.506H41.6704C41.0594 212.506 40.5218 212.02 40.47 211.421L40.0284 206.312C39.9768 205.713 40.4302 205.227 41.0412 205.227H46.2524C46.8636 205.227 47.401 205.713 47.4528 206.312L47.8944 211.421C47.9462 212.02 47.4928 212.506 46.8816 212.506Z" fill="#3792FC"/>
<path fill-rule="evenodd" clip-rule="evenodd" d="M136.489 64.6346C136.445 64.6346 136.4 64.6256 136.358 64.6066C121.006 57.7744 104.821 55.6602 89.5529 58.4917C89.378 58.525 89.2107 58.409 89.1784 58.2354C89.1458 58.0613 89.2608 57.8941 89.4354 57.8616C104.832 55.0062 121.148 57.136 136.62 64.0216C136.782 64.0936 136.855 64.2831 136.782 64.4447C136.729 64.5637 136.611 64.6346 136.489 64.6346Z" fill="#A3C1E3"/>
<path fill-rule="evenodd" clip-rule="evenodd" d="M127.948 66.1673C127.911 66.1673 127.875 66.1611 127.838 66.1481C114.702 61.4054 101.047 60.3197 88.3461 63.0083C88.1722 63.0453 88.0019 62.9347 87.9651 62.7614C87.9282 62.5884 88.039 62.4182 88.2127 62.3817C101.03 59.6681 114.808 60.7621 128.057 65.5455C128.224 65.6058 128.31 65.7895 128.25 65.9558C128.203 66.0861 128.079 66.1673 127.948 66.1673Z" fill="#A3C1E3"/>
<path fill-rule="evenodd" clip-rule="evenodd" d="M131.412 66.7222C131.169 66.7222 130.934 66.8002 130.736 66.9482C130.495 67.1289 130.338 67.3926 130.296 67.6908C130.208 68.3064 130.638 68.8788 131.255 68.9664C131.255 68.9664 131.255 68.9664 131.255 68.9664C131.554 69.0084 131.852 68.9328 132.093 68.7519C132.335 68.5712 132.492 68.3072 132.534 68.0091C132.622 67.3935 132.192 66.8215 131.575 66.7337C131.52 66.726 131.466 66.7222 131.412 66.7222ZM131.419 69.6186C131.334 69.6186 131.249 69.6129 131.165 69.6007C130.197 69.4632 129.522 68.5659 129.659 67.6005C129.797 66.6353 130.697 65.962 131.665 66.0994C132.633 66.2369 133.308 67.1342 133.17 68.0996C133.103 68.5672 132.858 68.9809 132.479 69.2643C132.169 69.4967 131.8 69.6186 131.419 69.6186Z" fill="#A3C1E3"/>
<path fill-rule="evenodd" clip-rule="evenodd" d="M187.914 58.5204C187.736 58.5204 187.593 58.3771 187.593 58.2001V56.5433C187.593 56.3662 187.736 56.2229 187.914 56.2229C188.092 56.2229 188.235 56.3662 188.235 56.5433V58.2001C188.235 58.3771 188.092 58.5204 187.914 58.5204Z" fill="#A3C1E3"/>
<path fill-rule="evenodd" clip-rule="evenodd" d="M187.914 62.3803C187.736 62.3803 187.593 62.237 187.593 62.06V60.403C187.593 60.2261 187.736 60.0826 187.914 60.0826C188.092 60.0826 188.235 60.2261 188.235 60.403V62.06C188.235 62.237 188.092 62.3803 187.914 62.3803Z" fill="#A3C1E3"/>
<path fill-rule="evenodd" clip-rule="evenodd" d="M186.811 59.6228H185.149C184.972 59.6228 184.828 59.4793 184.828 59.302C184.828 59.1249 184.972 58.9811 185.149 58.9811H186.811C186.988 58.9811 187.132 59.1249 187.132 59.302C187.132 59.4793 186.988 59.6228 186.811 59.6228Z" fill="#A3C1E3"/>
<path fill-rule="evenodd" clip-rule="evenodd" d="M190.68 59.6228H189.019C188.842 59.6228 188.698 59.4793 188.698 59.302C188.698 59.1249 188.842 58.9811 189.019 58.9811H190.68C190.858 58.9811 191.001 59.1249 191.001 59.302C191.001 59.4793 190.858 59.6228 190.68 59.6228Z" fill="#A3C1E3"/>
<path fill-rule="evenodd" clip-rule="evenodd" d="M191.769 69.5752C191.592 69.5752 191.448 69.4319 191.448 69.2548V67.5978C191.448 67.421 191.592 67.2775 191.769 67.2775C191.947 67.2775 192.091 67.421 192.091 67.5978V69.2548C192.091 69.4319 191.947 69.5752 191.769 69.5752Z" fill="#A3C1E3"/>
<path fill-rule="evenodd" clip-rule="evenodd" d="M191.769 73.4351C191.592 73.4351 191.448 73.2916 191.448 73.1148V71.4578C191.448 71.2807 191.592 71.1374 191.769 71.1374C191.947 71.1374 192.091 71.2807 192.091 71.4578V73.1148C192.091 73.2916 191.947 73.4351 191.769 73.4351Z" fill="#A3C1E3"/>
<path fill-rule="evenodd" clip-rule="evenodd" d="M190.665 70.6776H189.004C188.827 70.6776 188.683 70.5341 188.683 70.3568C188.683 70.1797 188.827 70.0359 189.004 70.0359H190.665C190.842 70.0359 190.986 70.1797 190.986 70.3568C190.986 70.5341 190.842 70.6776 190.665 70.6776Z" fill="#A3C1E3"/>
<path fill-rule="evenodd" clip-rule="evenodd" d="M194.535 70.6776H192.875C192.697 70.6776 192.554 70.5341 192.554 70.3568C192.554 70.1797 192.697 70.0359 192.875 70.0359H194.535C194.712 70.0359 194.856 70.1797 194.856 70.3568C194.856 70.5341 194.712 70.6776 194.535 70.6776Z" fill="#A3C1E3"/>
<path fill-rule="evenodd" clip-rule="evenodd" d="M7.051 15.5083C9.05898 16.2059 11.1241 16.7411 13.1679 17.3347C14.0779 17.5989 14.2055 17.5002 14.1749 16.5833C14.1036 14.4527 14.2747 12.3461 14.6934 10.2532C15.2035 7.70406 17.1948 6.41998 19.4679 7.21879C20.7921 7.68398 21.6117 8.23632 21.6117 12.508C21.6117 15.5491 22.4683 17.8477 23.5391 19.77C24.4069 21.3279 25.5011 21.5485 26.3611 23.1109C26.4764 23.3202 26.5734 23.5874 26.7965 23.6765C25.0817 29.6171 23.3333 35.5625 21.5738 41.5062C21.4277 41.4079 21.2339 41.3409 21.0131 41.2766C16.4253 39.9438 12.0622 39.2663 7.47697 37.9248C6.31813 37.5856 4.12811 37.6548 2.97956 37.284C0.444306 36.4656 -0.042056 32.3158 1.48042 31.3036C2.12291 30.8764 1.19966 30.3901 1.0521 30.0221C0.623774 28.9542 0.409612 27.2455 1.92888 26.0992C2.26683 25.8439 2.16103 25.4622 1.964 25.0902C1.28575 23.8099 0.805384 22.4814 1.69459 21.2651C1.89504 20.9908 2.45593 20.7717 2.24862 20.4569C1.83251 19.8249 1.713 19.1006 1.58194 18.3791C1.48042 15.9254 5.01025 14.7996 7.051 15.5083Z" fill="#F3F8FF"/>
<path fill-rule="evenodd" clip-rule="evenodd" d="M26.3501 44.169L21.3184 43.0007C20.8158 42.8537 20.5279 42.3283 20.6753 41.8272L25.9336 23.5703C26.0293 22.4853 26.6146 22.434 27.1173 22.5808L31.7809 24.6122C32.2833 24.7591 33.1534 25.5821 33.0061 26.0834L28.2708 42.9501C28.1234 43.4513 27.7887 44.5898 26.3501 44.169Z" fill="#F3F8FF"/>
<path fill-rule="evenodd" clip-rule="evenodd" d="M135.237 24.0803C135.475 23.0374 137.55 22.5483 140.45 22.6916C141.891 22.771 143.159 21.9814 143.746 20.67C144.919 18.0158 146.266 16.3887 147.311 16.626C148.374 16.8793 148.847 18.9335 148.704 21.8409C148.624 23.279 149.417 24.5434 150.732 25.1284C153.394 26.2984 155.023 27.6421 154.786 28.685C154.533 29.728 152.473 30.2013 149.573 30.058C148.115 29.9943 146.847 30.7681 146.262 32.0954C145.103 34.7496 143.741 36.3767 142.694 36.1234C141.649 35.8861 141.174 33.816 141.317 30.9243C141.381 29.4864 140.606 28.222 139.276 27.637C136.614 26.4667 134.982 25.1231 135.237 24.0803Z" fill="#F3F8FF"/>
<path fill-rule="evenodd" clip-rule="evenodd" d="M127.832 1.89216C127.997 1.53761 128.776 1.50963 129.826 1.75867C130.333 1.88789 130.858 1.68242 131.168 1.24307C131.772 0.361389 132.385 -0.133276 132.74 0.0313985C133.111 0.199064 133.139 0.97673 132.873 2.0201C132.76 2.52907 132.95 3.0483 133.391 3.35779C134.274 3.96138 134.771 4.57117 134.621 4.92871C134.456 5.28327 133.657 5.32363 132.627 5.0622C132.1 4.94537 131.58 5.13525 131.286 5.5778C130.665 6.45649 130.07 6.95372 129.697 6.78627C129.34 6.6374 129.314 5.84414 129.562 4.81338C129.695 4.29159 129.487 3.76958 129.044 3.47547C128.164 2.8565 127.665 2.26209 127.832 1.89216Z" fill="#F2EDFF"/>
<path fill-rule="evenodd" clip-rule="evenodd" d="M168.216 23.7066C168.088 23.3405 168.664 22.7937 169.612 22.2826C170.077 22.0419 170.332 21.5406 170.27 21.0068C170.133 19.947 170.257 19.1721 170.632 19.0587C171.009 18.9453 171.561 19.4985 172.06 20.453C172.315 20.9086 172.803 21.1692 173.339 21.1074C174.403 20.9703 175.178 21.0957 175.294 21.4699C175.429 21.8492 174.853 22.3962 173.909 22.8857C173.437 23.148 173.176 23.6356 173.253 24.1615C173.377 25.2294 173.264 25.996 172.883 26.1312C172.508 26.2444 171.947 25.6775 171.456 24.7369C171.206 24.2597 170.705 24.0071 170.176 24.0823C169.105 24.2061 168.338 24.094 168.216 23.7066Z" fill="#F3F8FF"/>
<path fill-rule="evenodd" clip-rule="evenodd" d="M207.76 115.065C208.071 114.826 208.775 115.16 209.591 115.863C209.982 116.211 210.543 116.27 211.021 116.023C211.965 115.518 212.737 115.361 212.976 115.67C213.228 115.989 212.893 116.692 212.175 117.496C211.839 117.896 211.768 118.444 212.017 118.921C212.521 119.863 212.68 120.632 212.382 120.881C212.072 121.119 211.344 120.788 210.551 120.082C210.137 119.737 209.587 119.666 209.123 119.924C208.165 120.418 207.407 120.586 207.154 120.266C206.905 119.969 207.249 119.253 207.946 118.453C208.305 118.051 208.362 117.492 208.104 117.027C207.609 116.073 207.441 115.317 207.76 115.065Z" fill="#F3F8FF"/>
<path fill-rule="evenodd" clip-rule="evenodd" d="M99.3053 37.0741C99.3605 36.6901 100.124 36.4697 101.203 36.4523C101.726 36.4523 102.184 36.1246 102.376 35.6224C102.744 34.6188 103.212 33.9883 103.597 34.0599C103.984 34.1325 104.219 34.8774 104.221 35.9539C104.236 36.4753 104.549 36.931 105.053 37.1224C106.061 37.49 106.691 37.9576 106.62 38.3429C106.565 38.7415 105.801 38.9621 104.736 38.9624C104.197 38.9786 103.74 39.2912 103.565 39.7933C103.182 40.7981 102.727 41.4262 102.326 41.371C101.941 41.2991 101.705 40.5382 101.705 39.478C101.703 38.9393 101.375 38.4847 100.871 38.3083C99.8632 37.926 99.2346 37.474 99.3053 37.0741Z" fill="#F3F8FF"/>
<path fill-rule="evenodd" clip-rule="evenodd" d="M79.0975 14.7893C79.6107 15.7284 78.3782 17.4645 76.1085 19.2695C74.9743 20.161 74.5472 21.5897 74.9768 22.96C75.8568 25.7249 75.9254 27.8338 74.9837 28.3454C74.0195 28.8559 72.3013 27.6279 70.4809 25.3526C69.587 24.2217 68.1547 23.7956 66.7804 24.224C64.0083 25.1017 61.8935 25.17 61.3805 24.2309C60.8792 23.2813 62.1104 21.5674 64.3801 19.7624C65.5156 18.8489 65.9533 17.4322 65.5132 16.0497C64.6212 13.2955 64.5645 11.1758 65.5167 10.676C66.4583 10.1643 68.1873 11.404 69.9971 13.6677C70.9028 14.7882 72.3234 15.2248 73.7094 14.7859C76.4815 13.908 78.5964 13.8397 79.0975 14.7893Z" fill="#F3F8FF"/>
<path fill-rule="evenodd" clip-rule="evenodd" d="M202.342 188.681C202.647 189.239 201.915 190.271 200.568 191.343C199.894 191.873 199.641 192.722 199.896 193.537C200.418 195.18 200.459 196.434 199.9 196.738C199.328 197.041 198.307 196.311 197.227 194.959C196.696 194.287 195.846 194.033 195.03 194.288C193.384 194.81 192.128 194.85 191.824 194.292C191.526 193.728 192.257 192.709 193.605 191.636C194.279 191.093 194.539 190.251 194.277 189.43C193.748 187.793 193.714 186.533 194.279 186.236C194.838 185.932 195.865 186.668 196.939 188.014C197.477 188.68 198.321 188.939 199.143 188.679C200.789 188.157 202.045 188.116 202.342 188.681Z" fill="#F3F8FF"/>
<path fill-rule="evenodd" clip-rule="evenodd" d="M225.912 63.4751C226.303 64.1918 225.362 65.5168 223.63 66.8943C222.764 67.5747 222.438 68.6651 222.766 69.711C223.438 71.8211 223.49 73.4306 222.771 73.821C222.035 74.2106 220.724 73.2735 219.334 71.537C218.652 70.6739 217.558 70.3486 216.509 70.6756C214.393 71.3454 212.779 71.3976 212.387 70.6809C212.005 69.9561 212.945 68.6481 214.677 67.2706C215.544 66.5734 215.878 65.4922 215.542 64.437C214.861 62.335 214.818 60.7173 215.545 60.3359C216.264 59.9453 217.583 60.8914 218.965 62.6191C219.656 63.4743 220.741 63.8075 221.799 63.4725C223.915 62.8025 225.529 62.7504 225.912 63.4751Z" fill="#F3F8FF"/>
<path fill-rule="evenodd" clip-rule="evenodd" d="M15.892 130.258C16.2837 130.975 15.3429 132.3 13.6104 133.677C12.7446 134.358 12.4186 135.448 12.7465 136.494C13.4183 138.604 13.4706 140.213 12.7518 140.604C12.0158 140.993 10.7042 140.056 9.31463 138.32C8.63227 137.457 7.53893 137.131 6.48989 137.458C4.37382 138.128 2.75947 138.18 2.36794 137.464C1.98524 136.739 2.92508 135.431 4.65762 134.053C5.52438 133.356 5.85853 132.275 5.52258 131.22C4.84169 129.118 4.79838 127.5 5.5252 127.119C6.24401 126.728 7.56377 127.674 8.94533 129.402C9.63668 130.257 10.721 130.59 11.7791 130.255C13.8951 129.585 15.5095 129.533 15.892 130.258Z" fill="#F3F8FF"/>
<path fill-rule="evenodd" clip-rule="evenodd" d="M7.11926 53.1694C7.23084 53.5443 6.66438 54.0793 5.71243 54.5847C5.24598 54.8224 4.98963 55.3217 5.04809 55.8561C5.17895 56.9168 5.04831 57.6908 4.67245 57.8019C4.28311 57.9211 3.74642 57.3561 3.25342 56.3986C3.00135 55.9416 2.51413 55.6778 1.97851 55.7363C0.914977 55.8666 0.138854 55.7365 0.0137828 55.3696C-0.0975816 54.9947 0.474446 54.4379 1.42083 53.9544C1.89284 53.6951 2.15733 53.2092 2.08516 52.6829C1.96801 51.6143 2.08495 50.8482 2.47429 50.729C2.84222 50.6043 3.38684 51.1829 3.88541 52.1188C4.13191 52.5974 4.63262 52.8533 5.16032 52.7811C6.23177 52.6643 6.99997 52.7811 7.11926 53.1694Z" fill="#F2EDFF"/>
<path fill-rule="evenodd" clip-rule="evenodd" d="M43.8465 39.5395C44.1846 39.7298 44.1148 40.5203 43.742 41.5297C43.5531 42.0169 43.6955 42.5598 44.096 42.9195C44.9019 43.6234 45.3214 44.2877 45.1154 44.6203C44.9094 44.9526 44.1268 44.9028 43.1198 44.516C42.6264 44.3426 42.0869 44.4697 41.7263 44.8691C41.0202 45.6728 40.3544 46.0912 40.0209 45.8855C39.6675 45.6903 39.7376 44.8998 40.1205 43.9105C40.2991 43.4035 40.1719 42.8654 39.7665 42.5209C38.9655 41.8016 38.541 41.1525 38.7368 40.8003C38.943 40.4677 39.7404 40.5222 40.7326 40.9041C41.2361 41.0974 41.7805 40.9553 42.1259 40.5512C42.847 39.7524 43.4978 39.3291 43.8465 39.5395Z" fill="#F3F8FF"/>
<path fill-rule="evenodd" clip-rule="evenodd" d="M162.841 129.687C162.841 140.375 154.154 149.039 143.437 149.039C132.721 149.039 124.033 140.375 124.033 129.687C124.033 119 132.721 110.336 143.437 110.336C154.154 110.336 162.841 119 162.841 129.687Z" fill="white"/>
<path fill-rule="evenodd" clip-rule="evenodd" d="M159.337 128.799C159.337 137.705 152.146 144.925 143.275 144.925C134.404 144.925 127.213 137.705 127.213 128.799C127.213 119.893 134.404 112.673 143.275 112.673C152.146 112.673 159.337 119.893 159.337 128.799Z" fill="#7ED321"/>
<path fill-rule="evenodd" clip-rule="evenodd" d="M167.046 130.56L166.193 129.573C165.513 128.785 165.473 127.464 166.104 126.637L166.896 125.599C167.527 124.772 167.315 123.654 166.425 123.116L165.309 122.441C164.42 121.902 163.974 120.658 164.32 119.676L164.752 118.444C165.097 117.462 164.551 116.464 163.539 116.228L162.27 115.931C161.257 115.694 160.45 114.649 160.475 113.608L160.507 112.302C160.532 111.261 159.705 110.482 158.669 110.57L157.37 110.681C156.334 110.769 155.244 110.025 154.947 109.027L154.574 107.775C154.277 106.778 153.25 106.292 152.292 106.697L151.091 107.204C150.133 107.609 148.867 107.238 148.276 106.382L147.536 105.307C146.945 104.45 145.819 104.306 145.033 104.987L144.047 105.841C143.261 106.523 141.942 106.563 141.116 105.93L140.08 105.137C139.254 104.505 138.139 104.717 137.601 105.608L136.927 106.726C136.389 107.617 135.147 108.064 134.167 107.718L132.937 107.284C131.957 106.939 130.961 107.486 130.725 108.499L130.428 109.771C130.192 110.785 129.148 111.594 128.109 111.569L126.806 111.537C125.767 111.512 124.989 112.34 125.077 113.378L125.187 114.679C125.275 115.717 124.533 116.809 123.536 117.107L122.287 117.48C121.291 117.778 120.807 118.806 121.21 119.766L121.717 120.969C122.121 121.928 121.751 123.197 120.896 123.789L119.823 124.531C118.967 125.122 118.824 126.25 119.503 127.038L120.356 128.025C121.036 128.813 121.076 130.134 120.445 130.961L119.654 131.999C119.022 132.826 119.234 133.944 120.124 134.482L121.24 135.158C122.129 135.696 122.575 136.94 122.23 137.922L121.797 139.154C121.452 140.136 121.998 141.134 123.01 141.37L124.28 141.667C125.292 141.904 126.099 142.949 126.074 143.99L126.042 145.296C126.017 146.337 126.844 147.116 127.88 147.028L129.179 146.917C130.215 146.829 131.305 147.573 131.602 148.571L131.975 149.823C132.272 150.82 133.299 151.306 134.257 150.901L135.458 150.394C136.416 149.989 137.682 150.36 138.273 151.216L139.013 152.291C139.604 153.148 140.73 153.292 141.516 152.611L142.502 151.757C143.288 151.075 144.607 151.035 145.433 151.668L146.469 152.461C147.295 153.093 148.41 152.881 148.948 151.99L149.622 150.872C150.16 149.981 151.402 149.534 152.382 149.88L153.612 150.314C154.592 150.659 155.588 150.113 155.824 149.099L156.121 147.827C156.357 146.813 157.401 146.004 158.44 146.029L159.743 146.061C160.782 146.086 161.56 145.258 161.472 144.22L161.362 142.919C161.274 141.881 162.016 140.789 163.013 140.491L164.262 140.118C165.258 139.82 165.743 138.792 165.339 137.832L164.832 136.629C164.429 135.67 164.798 134.401 165.653 133.809L166.726 133.067C167.582 132.476 167.726 131.348 167.046 130.56ZM161.69 128.799C161.69 138.971 153.429 147.246 143.275 147.246C133.12 147.246 124.859 138.971 124.859 128.799C124.859 118.627 133.12 110.352 143.275 110.352C153.429 110.352 161.69 118.627 161.69 128.799Z" fill="#7ED321"/>
<path fill-rule="evenodd" clip-rule="evenodd" d="M152.059 120.576L140.051 132.726L134.062 126.666L131.924 128.83L140.02 137.022L140.05 136.992L140.08 137.022L154.197 122.739L152.059 120.576Z" fill="white"/>
<path d="M92.2177 123.996L88.2695 116.987V115.335H89.5856C90.3606 115.335 91.0113 115.164 91.5377 114.822C92.0641 114.465 92.4004 113.974 92.5467 113.349H88.2695V111.697H92.5247C92.3931 111.132 92.1226 110.663 91.7132 110.291C91.3037 109.904 90.7335 109.711 90.0023 109.711H88.2695V108.059H98.1618V109.711H94.7181C95.2299 110.276 95.5516 110.938 95.6832 111.697H98.1618V113.349H95.7271C95.5809 114.45 95.1641 115.313 94.4769 115.938C93.7896 116.548 92.9049 116.965 91.8228 117.188L96.1219 123.996H92.2177Z" fill="#94C5FF"/>
<path d="M62.5185 165.078L59.4814 159.738V158.48H60.4938C61.0899 158.48 61.5905 158.35 61.9954 158.089C62.4004 157.817 62.6591 157.443 62.7716 156.966H59.4814V155.708H62.7547C62.6534 155.277 62.4454 154.92 62.1304 154.637C61.8155 154.342 61.3768 154.194 60.8144 154.194H59.4814V152.936H67.0909V154.194H64.4419C64.8356 154.625 65.0831 155.13 65.1843 155.708H67.0909V156.966H65.218C65.1056 157.805 64.785 158.463 64.2563 158.939C63.7277 159.404 63.0471 159.721 62.2148 159.891L65.5217 165.078H62.5185Z" fill="#94C5FF"/>
</svg>
