<svg width="20" height="21" viewBox="0 0 20 21" fill="none" xmlns="http://www.w3.org/2000/svg">
<path d="M11.2847 11.2865H10.6726C10.6317 10.9266 10.4592 10.6672 10.2369 10.509H11.2847C11.3349 10.509 11.3758 10.469 11.3758 10.421C11.3758 10.373 11.3349 10.333 11.2847 10.333H8.70752C8.65807 10.333 8.61719 10.373 8.61719 10.421C8.61719 10.469 8.65807 10.509 8.70752 10.509H9.80318C10.096 10.5616 10.4289 10.7983 10.4912 11.2865H8.70752C8.65807 11.2865 8.61719 11.3261 8.61719 11.3745C8.61719 11.4229 8.65807 11.4625 8.70752 11.4625H10.5025C10.4986 11.7076 10.4125 11.9058 10.2435 12.0522C9.76463 12.4663 8.78656 12.3607 8.77683 12.3599C8.74062 12.3561 8.70363 12.3741 8.68611 12.4064C8.66897 12.4383 8.67365 12.4779 8.6974 12.5051L10.4176 14.4406C10.4351 14.461 10.4604 14.4709 10.4865 14.4709C10.5071 14.4709 10.5282 14.4637 10.5457 14.4494C10.5835 14.4179 10.5877 14.3622 10.555 14.325L8.9754 12.5482C9.31609 12.557 9.96866 12.5247 10.3631 12.1843C10.5729 12.0034 10.6792 11.7602 10.6831 11.4625H11.2839C11.3341 11.4625 11.375 11.4233 11.375 11.3745C11.375 11.3257 11.3349 11.2865 11.2847 11.2865Z" fill="#FFBD00"/>
<path fill-rule="evenodd" clip-rule="evenodd" d="M8.36719 10.421C8.36719 10.2291 8.52587 10.083 8.70752 10.083H11.2847C11.4657 10.083 11.6258 10.2277 11.6258 10.421C11.6258 10.6143 11.4657 10.759 11.2847 10.759H10.7733C10.8171 10.8442 10.853 10.9368 10.8795 11.0365H11.2847C11.4671 11.0365 11.625 11.1818 11.625 11.3745C11.625 11.57 11.4634 11.7125 11.2839 11.7125H10.9084C10.8585 11.9705 10.7325 12.1959 10.5264 12.3736C10.2828 12.5838 9.973 12.689 9.69675 12.7426C9.6334 12.7549 9.57063 12.7647 9.50932 12.7725L10.7428 14.16C10.8675 14.3018 10.8526 14.5191 10.7058 14.6415L10.7039 14.643C10.642 14.6936 10.565 14.7209 10.4865 14.7209C10.3986 14.7209 10.3009 14.6872 10.2297 14.6055L8.50907 12.6695C8.4276 12.5762 8.40394 12.4455 8.44691 12.33L8.40547 12.2834L8.46756 12.285C8.53689 12.1594 8.67372 12.0977 8.80292 12.1113C8.84004 12.1149 9.0538 12.134 9.31365 12.1125C9.60801 12.0882 9.90351 12.0157 10.0799 11.8632C10.1292 11.8205 10.1687 11.7709 10.1974 11.7125H8.70752C8.52662 11.7125 8.36719 11.5675 8.36719 11.3745C8.36719 11.1815 8.52662 11.0365 8.70752 11.0365H10.1527C10.0582 10.8722 9.91085 10.7879 9.77874 10.759H8.70752C8.52587 10.759 8.36719 10.6129 8.36719 10.421Z" fill="#FFBD00"/>
<path fill-rule="evenodd" clip-rule="evenodd" d="M6 12.4019C6 10.1927 7.79085 8.40186 10 8.40186C12.2081 8.40439 13.9975 10.1938 14 12.4019C14 14.6111 12.2092 16.4019 10 16.4019C7.79085 16.4019 6 14.6111 6 12.4019ZM6.61539 12.4019C6.61539 14.2711 8.13074 15.7865 10 15.7865C11.8683 15.7843 13.3825 14.2702 13.3847 12.4019C13.3847 10.5326 11.8693 9.01724 10 9.01724C8.13074 9.01724 6.61539 10.5326 6.61539 12.4019Z" fill="#675AF6"/>
<path fill-rule="evenodd" clip-rule="evenodd" d="M19.6666 7.73525C19.8507 7.73525 20 7.586 20 7.40191V6.06859C20 6.06642 19.9994 6.0645 19.9988 6.06258C19.9982 6.06067 19.9976 6.05876 19.9976 6.05658C19.9963 6.02017 19.9891 5.98425 19.976 5.95025C19.976 5.94625 19.976 5.94158 19.9729 5.93758C19.9567 5.90121 19.9342 5.868 19.9063 5.83959C19.8964 5.83083 19.8861 5.82259 19.8752 5.81492C19.8604 5.80079 19.8442 5.78808 19.827 5.77692L10.1609 0.443605C10.0608 0.387939 9.93911 0.387939 9.83899 0.443605L0.172988 5.77692C0.155739 5.78808 0.139574 5.80079 0.124658 5.81492C0.113909 5.82259 0.103534 5.83083 0.0936602 5.83959C0.0657455 5.868 0.0432053 5.90121 0.0269982 5.93758C0.0269982 5.94158 0.0269982 5.94625 0.0239983 5.95025C0.0109159 5.98425 0.00362475 6.02017 0.00233317 6.05658C0.00233317 6.05876 0.00174988 6.06067 0.00116658 6.06258C0.000583293 6.0645 0 6.06642 0 6.06859V7.40191C0 7.586 0.14924 7.73525 0.33331 7.73525H1.33457V17.7352H0.334644C0.150573 17.7352 0.00133324 17.8844 0.00133324 18.0685V20.0686C0.00133324 20.2526 0.150573 20.4019 0.334644 20.4019H19.6666C19.8507 20.4019 20 20.2526 20 20.0686V18.0685C20 17.8844 19.8507 17.7352 19.6666 17.7352H18.6667V7.73525H19.6666ZM10.0006 1.11594L18.3724 5.73525H1.62888L10.0006 1.11594ZM19.3334 19.7352V18.4019H0.667954V19.7352H19.3334ZM2.00119 17.7352V7.73525H3.33443V17.7352H2.00119ZM4.00105 7.73525V17.7352H16.0003V7.73525H4.00105ZM16.6668 17.7352V7.73525H18.0001V17.7352H16.6668ZM0.667954 6.40192V7.06858H19.3334V6.40192H0.667954Z" fill="#675AF6"/>
</svg>
