<svg width="220" height="231" viewBox="0 0 220 231" fill="none" xmlns="http://www.w3.org/2000/svg">
<path fill-rule="evenodd" clip-rule="evenodd" d="M37.0235 135.717C51.396 120.622 24.3157 92.5085 31.0486 72.1952C40.1133 44.8482 113.855 21.4022 163.49 51.1738C205.057 76.1059 219.489 132.226 201.33 154.91C195.894 161.699 189.132 163.505 180.249 170.605C171.986 177.21 171.056 178.895 170.46 180.044C164.584 191.386 176.943 201.34 174.456 211.069C170.526 226.439 131.224 234.64 98.3572 229.436C89.4946 228.033 44.5811 219.876 28.0613 185.985C26.7829 183.363 14.688 158.034 26.0696 143.942C30.0161 139.056 33.1918 139.741 37.0235 135.717Z" fill="#F3F8FF"/>
<path fill-rule="evenodd" clip-rule="evenodd" d="M145.585 80.5097C141.732 80.5097 138.609 77.3368 138.609 73.4229C138.609 69.5088 141.732 66.3359 145.585 66.3359C149.438 66.3359 152.561 69.5088 152.561 73.4229C152.561 77.3368 149.438 80.5097 145.585 80.5097ZM163.609 76.1257L161.406 74.9631C161.05 74.7753 160.828 74.3976 160.843 73.991C160.86 73.5614 160.859 73.1337 160.84 72.7087C160.823 72.3033 161.042 71.9254 161.394 71.735L163.584 70.5534C164.016 70.3206 164.231 69.8155 164.102 69.337L163.579 67.389C163.45 66.9104 163.013 66.5861 162.525 66.6082L160.041 66.7204C159.64 66.7388 159.263 66.5215 159.074 66.1607C158.88 65.7876 158.67 65.4226 158.446 65.0668C158.23 64.7226 158.229 64.2823 158.442 63.9361L159.761 61.7951C160.019 61.3745 159.957 60.8278 159.61 60.4788L158.198 59.0574C157.851 58.7082 157.313 58.6498 156.901 58.9167L154.81 60.2723C154.472 60.4919 154.039 60.4955 153.698 60.2795C153.347 60.0562 152.985 59.8469 152.612 59.652C152.254 59.4644 152.036 59.0825 152.05 58.6737L152.138 56.1525C152.156 55.6567 151.832 55.215 151.36 55.0889L149.438 54.5752C148.966 54.4488 148.47 54.6719 148.245 55.1122L147.101 57.3504C146.916 57.7114 146.544 57.9376 146.144 57.9219C145.721 57.9051 145.3 57.9061 144.882 57.925C144.483 57.943 144.111 57.7207 143.923 57.3624L142.76 55.1375C142.531 54.6994 142.034 54.4809 141.563 54.6115L139.645 55.1431C139.174 55.2736 138.855 55.7181 138.877 56.2138L138.987 58.7363C139.005 59.1419 138.795 59.5258 138.442 59.7162C138.071 59.9159 137.708 60.1308 137.354 60.3606C137.017 60.5796 136.585 60.5765 136.246 60.3608L134.139 59.0219C133.725 58.7588 133.187 58.8224 132.843 59.1746L131.444 60.6089C131.1 60.9614 131.043 61.5085 131.305 61.9267L132.64 64.0507C132.856 64.3945 132.859 64.8342 132.647 65.1802C132.427 65.5372 132.221 65.9054 132.029 66.2837C131.844 66.6475 131.469 66.8689 131.066 66.8544L128.584 66.7651C128.096 66.7475 127.662 67.0758 127.537 67.5556L127.032 69.5084C126.907 69.9881 127.127 70.4912 127.56 70.7201L129.763 71.8827C130.119 72.0703 130.341 72.448 130.326 72.8548C130.31 73.2844 130.311 73.7121 130.329 74.1371C130.347 74.5423 130.128 74.9202 129.775 75.1106L127.585 76.2924C127.154 76.525 126.939 77.0301 127.067 77.5086L127.591 79.4566C127.719 79.9352 128.157 80.2595 128.645 80.2374L131.128 80.1252C131.527 80.107 131.905 80.3205 132.092 80.6793C132.289 81.0564 132.501 81.425 132.727 81.7843C132.942 82.1266 132.939 82.5657 132.727 82.9101L131.409 85.0505C131.15 85.4712 131.212 86.0178 131.559 86.367L132.971 87.7882C133.318 88.1374 133.857 88.1958 134.268 87.9289L136.359 86.5733C136.697 86.3538 137.13 86.3501 137.471 86.5663C137.822 86.7894 138.185 86.9987 138.557 87.1938C138.915 87.3812 139.133 87.7631 139.119 88.1719L139.031 90.6931C139.014 91.1889 139.337 91.6306 139.809 91.7569L141.731 92.2706C142.204 92.3968 142.699 92.1737 142.924 91.7334L144.069 89.4952C144.253 89.1342 144.625 88.908 145.026 88.9239C145.448 88.9405 145.869 88.9395 146.288 88.9207C146.687 88.9026 147.059 89.1251 147.246 89.4832L148.409 91.7083C148.638 92.1462 149.136 92.3647 149.607 92.2341L151.524 91.7027C151.995 91.5722 152.314 91.1275 152.293 90.6319L152.182 88.1091C152.164 87.7013 152.378 87.3182 152.733 87.1268C153.101 86.9289 153.46 86.716 153.81 86.4884C154.149 86.2685 154.582 86.2679 154.923 86.4846L157.031 87.8237C157.445 88.0868 157.983 88.0234 158.326 87.671L159.725 86.2366C160.069 85.8842 160.127 85.3371 159.864 84.9189L158.53 82.7951C158.314 82.4511 158.31 82.0116 158.523 81.6655C158.742 81.3084 158.948 80.9402 159.14 80.5619C159.325 80.1983 159.701 79.9769 160.103 79.9912L162.585 80.0805C163.073 80.0981 163.508 79.7698 163.632 79.29L164.138 77.3372C164.262 76.8576 164.043 76.3544 163.609 76.1257Z" fill="#FEFEFF"/>
<path fill-rule="evenodd" clip-rule="evenodd" d="M166.213 104.899C163.34 104.899 161.011 102.523 161.011 99.5938C161.011 96.664 163.34 94.2889 166.213 94.2889C169.086 94.2889 171.415 96.664 171.415 99.5938C171.415 102.523 169.086 104.899 166.213 104.899ZM179.654 101.617L178.01 100.747C177.745 100.606 177.579 100.323 177.59 100.019C177.604 99.6974 177.602 99.3773 177.588 99.0591C177.575 98.7557 177.739 98.4729 178.001 98.3302L179.635 97.4459C179.956 97.2716 180.117 96.8935 180.02 96.5353L179.631 95.0772C179.534 94.7189 179.209 94.4762 178.845 94.4927L176.992 94.5768C176.694 94.5904 176.411 94.4278 176.272 94.1579C176.127 93.8786 175.97 93.6052 175.804 93.3389C175.641 93.0813 175.641 92.7518 175.8 92.4926L176.783 90.8899C176.977 90.5752 176.93 90.166 176.671 89.9046L175.618 88.8408C175.36 88.5794 174.958 88.5356 174.652 88.7354L173.091 89.7502C172.84 89.9144 172.516 89.9172 172.263 89.7554C172.002 89.5883 171.73 89.4317 171.454 89.2857C171.187 89.1454 171.024 88.8595 171.034 88.5535L171.099 86.6664C171.113 86.2952 170.871 85.9645 170.519 85.8701L169.086 85.4854C168.734 85.391 168.365 85.5579 168.197 85.8874L167.343 87.5628C167.206 87.8332 166.928 88.0025 166.63 87.9906C166.314 87.9782 166.001 87.979 165.689 87.9932C165.391 88.0065 165.114 87.8401 164.974 87.5718L164.107 85.9066C163.936 85.5785 163.565 85.4149 163.214 85.5127L161.784 85.9106C161.433 86.0084 161.195 86.3413 161.211 86.7122L161.293 88.6004C161.307 88.904 161.15 89.1914 160.886 89.3337C160.61 89.4833 160.339 89.6442 160.075 89.8164C159.824 89.9801 159.502 89.9777 159.249 89.8166L157.678 88.8141C157.369 88.6173 156.968 88.6647 156.712 88.9285L155.668 90.002C155.412 90.2658 155.369 90.6756 155.565 90.9885L156.56 92.5783C156.721 92.8357 156.724 93.165 156.565 93.4237C156.401 93.6911 156.248 93.9668 156.105 94.2499C155.967 94.5222 155.687 94.688 155.387 94.677L153.536 94.6103C153.172 94.5971 152.848 94.8428 152.755 95.2019L152.378 96.6636C152.286 97.0228 152.449 97.3993 152.772 97.5704L154.415 98.4408C154.68 98.5812 154.847 98.8641 154.835 99.1685C154.823 99.49 154.823 99.8102 154.837 100.128C154.85 100.432 154.687 100.715 154.424 100.857L152.791 101.742C152.469 101.916 152.309 102.294 152.405 102.652L152.795 104.11C152.891 104.468 153.217 104.711 153.581 104.695L155.433 104.611C155.73 104.597 156.012 104.757 156.152 105.025C156.298 105.308 156.456 105.584 156.625 105.853C156.786 106.109 156.783 106.438 156.625 106.695L155.642 108.298C155.449 108.612 155.496 109.021 155.754 109.283L156.807 110.347C157.066 110.608 157.468 110.652 157.775 110.452L159.334 109.437C159.586 109.273 159.909 109.27 160.162 109.432C160.425 109.599 160.695 109.756 160.973 109.902C161.24 110.042 161.402 110.328 161.392 110.634L161.326 112.521C161.313 112.892 161.554 113.223 161.906 113.317L163.34 113.702C163.692 113.796 164.061 113.63 164.229 113.3L165.082 111.625C165.22 111.354 165.498 111.185 165.796 111.197C166.111 111.209 166.425 111.208 166.737 111.195C167.034 111.181 167.312 111.347 167.452 111.616L168.319 113.281C168.49 113.609 168.862 113.772 169.212 113.675L170.643 113.277C170.993 113.179 171.231 112.846 171.216 112.475L171.132 110.587C171.119 110.282 171.279 109.995 171.543 109.852C171.818 109.703 172.085 109.544 172.346 109.374C172.6 109.209 172.923 109.209 173.177 109.371L174.749 110.373C175.056 110.57 175.457 110.523 175.715 110.259L176.758 109.185C177.013 108.922 177.056 108.512 176.861 108.199L175.866 106.609C175.705 106.352 175.701 106.023 175.86 105.764C176.024 105.496 176.177 105.221 176.32 104.938C176.458 104.665 176.739 104.5 177.039 104.51L178.889 104.577C179.253 104.59 179.579 104.345 179.67 103.986L180.047 102.524C180.14 102.165 179.975 101.788 179.654 101.617Z" fill="#FEFEFF"/>
<path fill-rule="evenodd" clip-rule="evenodd" d="M34.6104 221.546L129.837 220.929C132.852 220.909 135.229 218.299 135.035 215.221L126.61 81.8121C126.431 78.9686 124.108 76.7654 121.323 76.7959L25.9939 75.9933C23.8592 75.9863 21.3165 78.2992 21.443 80.479L29.3439 216.498C29.5077 219.346 31.822 221.563 34.6104 221.546Z" fill="#3792FC"/>
<path fill-rule="evenodd" clip-rule="evenodd" d="M37.6452 221.546L132.871 220.926C135.886 220.906 138.264 218.283 138.07 215.19L129.645 81.1446C129.465 78.2874 127.143 76.0728 124.358 76.1041L29.3401 76.0728C26.6366 76.0728 24.4903 78.4105 24.6489 81.1839L32.3785 216.474C32.5425 219.335 34.8566 221.564 37.6452 221.546Z" fill="white"/>
<path fill-rule="evenodd" clip-rule="evenodd" d="M41.3287 212.227L127.976 211.534L120.896 87.1378L34.1953 87.6403L41.3287 212.227Z" fill="#94C5FF"/>
<path fill-rule="evenodd" clip-rule="evenodd" d="M47.0216 110.493L110.019 110.457L109.413 106.614H46.7197L47.0216 110.493Z" fill="white"/>
<path fill-rule="evenodd" clip-rule="evenodd" d="M47.3964 117.962L93.893 118.022L93.5122 114.179H47.1934L47.3964 117.962Z" fill="white"/>
<path fill-rule="evenodd" clip-rule="evenodd" d="M48.1829 131.015L110.771 130.925L110.166 127.082L47.8457 127.126L48.1829 131.015Z" fill="white"/>
<path fill-rule="evenodd" clip-rule="evenodd" d="M48.6318 138.523L95.5439 138.49L94.938 134.647L48.332 134.672L48.6318 138.523Z" fill="white"/>
<path fill-rule="evenodd" clip-rule="evenodd" d="M49.3444 151.575L112.199 151.624L111.594 147.781L49.082 147.763L49.3444 151.575Z" fill="#CADDFF"/>
<path fill-rule="evenodd" clip-rule="evenodd" d="M49.7934 159.199L96.5328 159.189L95.9272 155.347H49.6084L49.7934 159.199Z" fill="#CADDFF"/>
<path fill-rule="evenodd" clip-rule="evenodd" d="M50.5053 172.058L113.401 172.092L112.795 168.249L50.2432 168.285L50.5053 172.058Z" fill="#CADDFF"/>
<path fill-rule="evenodd" clip-rule="evenodd" d="M50.9181 179.22L97.5112 179.195L96.9054 175.353L50.6934 175.37L50.9181 179.22Z" fill="#CADDFF"/>
<path fill-rule="evenodd" clip-rule="evenodd" d="M104.64 92.382L53.5509 92.1127C52.2599 92.1061 51.1954 91.1158 51.115 89.8475L50.1093 73.9502C50.0212 72.556 51.1492 71.379 52.5683 71.3845L103.656 71.5864C104.949 71.5917 106.016 72.5827 106.095 73.8523L107.102 89.8168C107.19 91.2121 106.06 92.3895 104.64 92.382Z" fill="#3792FC"/>
<path fill-rule="evenodd" clip-rule="evenodd" d="M104.401 92.2672L54.9035 91.9948C53.6529 91.9878 52.6212 90.9862 52.5436 89.7035L51.5691 73.6236C51.4838 72.2132 52.5765 71.0226 53.9514 71.0283L103.449 71.2324C104.701 71.2377 105.734 72.2402 105.812 73.5244L106.787 89.6724C106.872 91.0838 105.777 92.2747 104.401 92.2672Z" fill="#73B3FF"/>
<path fill-rule="evenodd" clip-rule="evenodd" d="M76.4139 68.9537C74.8932 68.9537 73.6604 67.3472 73.6604 65.3655C73.6604 63.384 74.8932 61.7775 76.4139 61.7775C77.9347 61.7775 79.1672 63.384 79.1672 65.3655C79.1672 67.3472 77.9347 68.9537 76.4139 68.9537ZM85.2891 64.3659C85.0059 59.6556 81.3008 55.9705 76.7923 55.9148L75.586 55.9C70.2153 55.834 65.9019 60.5189 66.1637 66.1341L66.4782 72.8824C66.5225 74.3387 66.8049 77.0337 68.3785 77.0337L86.1358 76.6872L85.2891 64.3659Z" fill="#3792FC"/>
<path fill-rule="evenodd" clip-rule="evenodd" d="M77.5378 68.6016C76.0171 68.6016 74.7843 67.0243 74.7843 65.0786C74.7843 63.1331 76.0171 61.5556 77.5378 61.5556C79.0583 61.5556 80.2914 63.1331 80.2914 65.0786C80.2914 67.0243 79.0583 68.6016 77.5378 68.6016ZM86.8624 64.4437C86.5791 59.8186 82.8743 56.2002 78.3656 56.1456L77.1592 56.1311C71.7886 56.0659 67.4754 60.666 67.7369 66.1795L68.3141 74.5805C68.4133 76.0229 69.5892 77.136 70.9961 77.1194L85.0152 76.9507C86.4769 76.933 87.6233 75.6549 87.5216 74.156L86.8624 64.4437Z" fill="#73B3FF"/>
<path fill-rule="evenodd" clip-rule="evenodd" d="M84.1293 223.864C87.0434 221.629 90.0761 219.545 93.1665 217.557C99.4395 213.524 105.984 209.918 112.584 206.424C116.055 204.586 119.634 202.923 123.174 201.212C126.736 199.492 130.305 197.787 133.875 196.083C137.138 194.526 140.4 192.968 143.658 191.402C153.178 167.158 163.637 139.673 162.118 139.673L47.0235 136.354C44.306 136.354 42.2528 138.606 42.4462 141.374L48.1216 222.62C48.315 225.388 50.683 227.64 53.4002 227.64H79.0885C80.7358 226.34 82.4655 225.139 84.1293 223.864Z" fill="#3792FC"/>
<path fill-rule="evenodd" clip-rule="evenodd" d="M165.723 136.638H49.3869C46.8193 136.638 44.8859 138.758 45.0686 141.374L50.7439 222.62C50.9266 225.236 53.1565 227.356 55.7241 227.356H172.06C174.628 227.356 176.561 225.236 176.379 222.62L170.703 141.374C170.521 138.758 168.291 136.638 165.723 136.638Z" fill="white"/>
<path fill-rule="evenodd" clip-rule="evenodd" d="M162.058 140.619H53.9886C51.6034 140.619 49.8072 142.589 49.9769 145.019L55.2492 220.492C55.4189 222.921 57.49 224.891 59.8752 224.891H167.945C170.33 224.891 172.126 222.921 171.956 220.492L166.684 145.019C166.514 142.589 164.443 140.619 162.058 140.619Z" fill="#E2EEFF"/>
<path fill-rule="evenodd" clip-rule="evenodd" d="M162.498 143.615H53.96C52.8338 143.615 51.9856 144.546 52.0658 145.693L52.1726 147.221C52.2527 148.369 53.2309 149.299 54.3571 149.299H162.895C164.021 149.299 164.869 148.369 164.789 147.221L164.683 145.693C164.603 144.546 163.624 143.615 162.498 143.615Z" fill="#94C5FF"/>
<path fill-rule="evenodd" clip-rule="evenodd" d="M80.498 171.352H117.701L119.737 200.497H82.5339L80.498 171.352Z" fill="#E2EEFF"/>
<path fill-rule="evenodd" clip-rule="evenodd" d="M125.728 158.651H98.6152L121.689 168.913L146.845 168.271C146.933 168.271 146.95 168.149 146.867 168.112L125.728 158.651Z" fill="#94C5FF"/>
<path fill-rule="evenodd" clip-rule="evenodd" d="M120.165 168.279H78.2207L98.5852 158.652L120.165 168.279Z" fill="white"/>
<path fill-rule="evenodd" clip-rule="evenodd" d="M145.303 171.322H117.712L119.746 200.445H147.337L145.303 171.322Z" fill="#E2EEFF"/>
<path fill-rule="evenodd" clip-rule="evenodd" d="M92.2173 200.497H89.5436L87.5078 171.352H90.1814L92.2173 200.497Z" fill="white"/>
<path fill-rule="evenodd" clip-rule="evenodd" d="M99.1186 200.497H96.445L94.4092 171.352H97.0828L99.1186 200.497Z" fill="white"/>
<path fill-rule="evenodd" clip-rule="evenodd" d="M106.021 200.497H103.347L101.312 171.352H103.985L106.021 200.497Z" fill="white"/>
<path fill-rule="evenodd" clip-rule="evenodd" d="M112.922 200.497H110.248L108.212 171.352H110.886L112.922 200.497Z" fill="white"/>
<path fill-rule="evenodd" clip-rule="evenodd" d="M119.739 200.497H117.065L115.029 171.352H117.703L119.739 200.497Z" fill="white"/>
<path fill-rule="evenodd" clip-rule="evenodd" d="M85.3171 200.497H82.6432L80.6074 171.352H83.2812L85.3171 200.497Z" fill="white"/>
<path fill-rule="evenodd" clip-rule="evenodd" d="M126.639 200.497H123.966L121.93 171.352H124.604L126.639 200.497Z" fill="#94C5FF"/>
<path fill-rule="evenodd" clip-rule="evenodd" d="M133.541 200.497H130.867L128.831 171.352H131.505L133.541 200.497Z" fill="#94C5FF"/>
<path fill-rule="evenodd" clip-rule="evenodd" d="M140.441 200.497H137.767L135.731 171.352H138.405L140.441 200.497Z" fill="#94C5FF"/>
<path fill-rule="evenodd" clip-rule="evenodd" d="M147.343 200.497H144.67L142.634 171.352H145.307L147.343 200.497Z" fill="#94C5FF"/>
<path fill-rule="evenodd" clip-rule="evenodd" d="M130.738 171.357H145.305L145.091 168.291H117.5L117.714 171.357H130.738Z" fill="#94C5FF"/>
<path fill-rule="evenodd" clip-rule="evenodd" d="M117.5 168.291H80.3936L80.6078 171.357H117.714L117.5 168.291Z" fill="white"/>
<path fill-rule="evenodd" clip-rule="evenodd" d="M82.5117 200.497H147.363L147.824 207.1H82.9731L82.5117 200.497Z" fill="#94C5FF"/>
<path fill-rule="evenodd" clip-rule="evenodd" d="M140.105 217.495H93.2704C92.0836 217.495 91.0532 216.515 90.9688 215.307L90.8639 213.806C90.7795 212.597 91.6732 211.617 92.86 211.617H139.694C140.881 211.617 141.911 212.597 141.996 213.806L142.1 215.307C142.185 216.515 141.291 217.495 140.105 217.495Z" fill="white"/>
<path fill-rule="evenodd" clip-rule="evenodd" d="M109.621 119.317C109.737 128.06 102.934 135.244 94.4269 135.363C85.9198 135.482 78.9296 128.491 78.814 119.748C78.6983 111.004 85.501 103.82 94.0079 103.701C102.515 103.582 109.505 110.574 109.621 119.317Z" fill="#7AB5FB"/>
<path fill-rule="evenodd" clip-rule="evenodd" d="M109.818 118.844C109.93 127.328 103.329 134.299 95.0747 134.414C86.8201 134.529 80.0374 127.746 79.9252 119.262C79.8129 110.778 86.4135 103.807 94.6681 103.692C102.923 103.577 109.705 110.36 109.818 118.844Z" fill="#CBDEF6"/>
<path fill-rule="evenodd" clip-rule="evenodd" d="M107.413 118.878C107.507 125.997 101.968 131.847 95.0409 131.944C88.1136 132.041 82.4215 126.348 82.3274 119.228C82.2332 112.109 87.7723 106.259 94.6996 106.162C101.627 106.065 107.319 111.758 107.413 118.878Z" fill="white"/>
<path fill-rule="evenodd" clip-rule="evenodd" d="M75.0991 164.658C74.7521 170.984 69.4807 175.823 63.3258 175.467C57.1704 175.11 52.462 169.692 52.809 163.366C53.1563 157.04 58.4274 152.201 64.5826 152.558C70.7378 152.915 75.4462 158.332 75.0991 164.658Z" fill="#7AB5FB"/>
<path fill-rule="evenodd" clip-rule="evenodd" d="M75.2627 164.326C74.926 170.465 69.8113 175.16 63.8388 174.814C57.8664 174.468 53.2977 169.211 53.6347 163.073C53.9714 156.935 59.0861 152.239 65.0584 152.585C71.031 152.932 75.5997 158.188 75.2627 164.326Z" fill="#CBDEF6"/>
<path fill-rule="evenodd" clip-rule="evenodd" d="M73.5246 164.226C73.242 169.377 68.9499 173.317 63.9377 173.027C58.9255 172.736 55.0915 168.325 55.374 163.174C55.6568 158.022 59.949 154.082 64.9612 154.373C69.9732 154.663 73.8074 159.074 73.5246 164.226Z" fill="white"/>
<path fill-rule="evenodd" clip-rule="evenodd" d="M156.833 104.046L156.565 103.798L156.833 104.046Z" fill="white"/>
<path fill-rule="evenodd" clip-rule="evenodd" d="M47.9116 219.734H42.6828C42.0697 219.734 41.5304 219.231 41.4784 218.612L41.0353 213.329C40.9835 212.71 41.4384 212.207 42.0515 212.207H47.2803C47.8936 212.207 48.4327 212.71 48.4847 213.329L48.9278 218.612C48.9798 219.231 48.5249 219.734 47.9116 219.734Z" fill="#3792FC"/>
<path fill-rule="evenodd" clip-rule="evenodd" d="M137.821 66.833C137.777 66.833 137.733 66.8238 137.69 66.8041C122.286 59.7395 106.047 57.5533 90.7271 60.4812C90.5515 60.5156 90.3837 60.3957 90.3512 60.2161C90.3186 60.0361 90.434 59.8632 90.6091 59.8296C106.058 56.8771 122.429 59.0794 137.953 66.1992C138.115 66.2736 138.188 66.4695 138.116 66.6367C138.062 66.7597 137.945 66.833 137.821 66.833Z" fill="#A3C1E3"/>
<path fill-rule="evenodd" clip-rule="evenodd" d="M129.252 68.4178C129.215 68.4178 129.178 68.4114 129.142 68.398C115.962 63.494 102.26 62.3714 89.5163 65.1514C89.3418 65.1897 89.171 65.0753 89.134 64.8961C89.0971 64.7173 89.2082 64.5412 89.3825 64.5035C102.243 61.6976 116.068 62.8288 129.362 67.7749C129.529 67.8372 129.616 68.0271 129.555 68.1992C129.507 68.3339 129.384 68.4178 129.252 68.4178Z" fill="#A3C1E3"/>
<path fill-rule="evenodd" clip-rule="evenodd" d="M132.728 68.9916C132.484 68.9916 132.248 69.0722 132.049 69.2253C131.807 69.4121 131.65 69.6849 131.607 69.9932C131.519 70.6297 131.951 71.2215 132.57 71.3121C132.57 71.3121 132.57 71.3121 132.57 71.3121C132.87 71.3556 133.169 71.2774 133.411 71.0904C133.654 70.9035 133.811 70.6305 133.854 70.3222C133.942 69.6857 133.51 69.0943 132.891 69.0035C132.836 68.9956 132.782 68.9916 132.728 68.9916ZM132.734 71.9866C132.65 71.9866 132.564 71.9806 132.479 71.968C131.508 71.8258 130.831 70.898 130.969 69.8997C131.107 68.9017 132.01 68.2056 132.981 68.3476C133.953 68.4898 134.63 69.4176 134.492 70.4159C134.425 70.8993 134.178 71.3271 133.798 71.6202C133.487 71.8605 133.116 71.9866 132.734 71.9866Z" fill="#A3C1E3"/>
<path fill-rule="evenodd" clip-rule="evenodd" d="M189.421 60.5109C189.243 60.5109 189.099 60.3627 189.099 60.1796V58.4665C189.099 58.2834 189.243 58.1352 189.421 58.1352C189.599 58.1352 189.743 58.2834 189.743 58.4665V60.1796C189.743 60.3627 189.599 60.5109 189.421 60.5109Z" fill="#A3C1E3"/>
<path fill-rule="evenodd" clip-rule="evenodd" d="M189.421 64.5021C189.243 64.5021 189.099 64.3539 189.099 64.1709V62.4575C189.099 62.2746 189.243 62.1262 189.421 62.1262C189.599 62.1262 189.743 62.2746 189.743 62.4575V64.1709C189.743 64.3539 189.599 64.5021 189.421 64.5021Z" fill="#A3C1E3"/>
<path fill-rule="evenodd" clip-rule="evenodd" d="M188.314 61.6498H186.647C186.469 61.6498 186.324 61.5016 186.324 61.3185C186.324 61.1357 186.469 60.9872 186.647 60.9872H188.314C188.492 60.9872 188.636 61.1357 188.636 61.3185C188.636 61.5016 188.492 61.6498 188.314 61.6498Z" fill="#A3C1E3"/>
<path fill-rule="evenodd" clip-rule="evenodd" d="M192.195 61.6498H190.529C190.351 61.6498 190.207 61.5016 190.207 61.3185C190.207 61.1357 190.351 60.9872 190.529 60.9872H192.195C192.374 60.9872 192.518 61.1357 192.518 61.3185C192.518 61.5016 192.374 61.6498 192.195 61.6498Z" fill="#A3C1E3"/>
<path fill-rule="evenodd" clip-rule="evenodd" d="M193.289 71.9417C193.111 71.9417 192.967 71.7935 192.967 71.6104V69.8971C192.967 69.7142 193.111 69.5658 193.289 69.5658C193.467 69.5658 193.611 69.7142 193.611 69.8971V71.6104C193.611 71.7935 193.467 71.9417 193.289 71.9417Z" fill="#A3C1E3"/>
<path fill-rule="evenodd" clip-rule="evenodd" d="M193.289 75.9329C193.111 75.9329 192.967 75.7845 192.967 75.6016V73.8883C192.967 73.7052 193.111 73.557 193.289 73.557C193.467 73.557 193.611 73.7052 193.611 73.8883V75.6016C193.611 75.7845 193.467 75.9329 193.289 75.9329Z" fill="#A3C1E3"/>
<path fill-rule="evenodd" clip-rule="evenodd" d="M192.18 73.0806H190.514C190.336 73.0806 190.191 72.9325 190.191 72.7494C190.191 72.5665 190.336 72.4181 190.514 72.4181H192.18C192.359 72.4181 192.503 72.5665 192.503 72.7494C192.503 72.9325 192.359 73.0806 192.18 73.0806Z" fill="#A3C1E3"/>
<path fill-rule="evenodd" clip-rule="evenodd" d="M196.063 73.0806H194.398C194.219 73.0806 194.075 72.9325 194.075 72.7494C194.075 72.5665 194.219 72.4181 194.398 72.4181H196.063C196.241 72.4181 196.385 72.5665 196.385 72.7494C196.385 72.9325 196.241 73.0806 196.063 73.0806Z" fill="#A3C1E3"/>
<path fill-rule="evenodd" clip-rule="evenodd" d="M8.37977 36.692C10.3709 36.0736 12.4187 35.5992 14.4453 35.073C15.3476 34.8388 15.4742 34.9263 15.4438 35.7391C15.3731 37.6277 15.5428 39.4951 15.958 41.3504C16.4638 43.6102 18.4384 44.7485 20.6924 44.0403C22.0054 43.628 22.8181 43.1384 22.8181 39.3516C22.8181 36.6559 23.6676 34.6182 24.7294 32.9142C25.5899 31.5332 26.6749 31.3376 27.5277 29.9526C27.642 29.767 27.7382 29.5302 27.9595 29.4512C26.2591 24.185 24.5253 18.9147 22.7806 13.6458C22.6357 13.7329 22.4435 13.7924 22.2246 13.8494C17.6753 15.0308 13.3489 15.6314 8.80216 16.8206C7.65306 17.1213 5.48143 17.0599 4.34253 17.3886C1.82857 18.1142 1.34629 21.7928 2.85599 22.69C3.49308 23.0687 2.57758 23.4998 2.43126 23.8261C2.00653 24.7727 1.79417 26.2874 3.30067 27.3036C3.63578 27.5299 3.53088 27.8682 3.3355 28.198C2.66295 29.3329 2.18662 30.5106 3.06835 31.5888C3.26712 31.8319 3.8233 32.0262 3.61773 32.3053C3.20511 32.8655 3.08661 33.5076 2.95665 34.1472C2.85599 36.3222 6.35616 37.3202 8.37977 36.692Z" fill="#F3F8FF"/>
<path fill-rule="evenodd" clip-rule="evenodd" d="M27.1215 12.9338L22.1587 13.8616C21.6629 13.9782 21.379 14.3955 21.5244 14.7934L26.7106 29.2913C26.805 30.1529 27.3823 30.1936 27.8781 30.0771L32.4778 28.464C32.9733 28.3473 33.8315 27.6938 33.6862 27.2957L29.0157 13.9017C28.8704 13.5037 28.5403 12.5997 27.1215 12.9338Z" fill="#F3F8FF"/>
<path fill-rule="evenodd" clip-rule="evenodd" d="M128.93 24.8994C129.169 23.821 131.251 23.3153 134.161 23.4634C135.607 23.5456 136.879 22.7291 137.468 21.3731C138.645 18.6286 139.997 16.9461 141.046 17.1915C142.112 17.4534 142.586 19.5776 142.442 22.5838C142.363 24.0708 143.158 25.3782 144.477 25.9831C147.148 27.1929 148.784 28.5823 148.545 29.6607C148.292 30.7392 146.224 31.2286 143.315 31.0804C141.852 31.0146 140.579 31.8147 139.993 33.1871C138.83 35.9316 137.464 37.614 136.413 37.3521C135.364 37.1067 134.887 34.9662 135.031 31.9761C135.096 30.4894 134.318 29.1819 132.983 28.577C130.312 27.367 128.675 25.9776 128.93 24.8994Z" fill="#F3F8FF"/>
<path fill-rule="evenodd" clip-rule="evenodd" d="M121.5 1.95652C121.666 1.58991 122.448 1.56098 123.501 1.81849C124.01 1.9521 124.536 1.73964 124.848 1.28535C125.454 0.373681 126.069 -0.13781 126.425 0.0324665C126.797 0.205834 126.825 1.00995 126.559 2.08881C126.445 2.6151 126.636 3.15199 127.079 3.472C127.964 4.09612 128.462 4.72665 128.312 5.09636C128.147 5.46297 127.345 5.50471 126.311 5.23439C125.783 5.11358 125.261 5.30992 124.966 5.76752C124.343 6.6761 123.746 7.19024 123.372 7.0171C123.013 6.86316 122.987 6.04292 123.236 4.9771C123.37 4.43756 123.161 3.8978 122.716 3.59369C121.833 2.95366 121.333 2.33903 121.5 1.95652Z" fill="#F3F8FF"/>
<path fill-rule="evenodd" clip-rule="evenodd" d="M162.021 24.5129C161.892 24.1344 162.47 23.569 163.422 23.0405C163.888 22.7916 164.144 22.2733 164.082 21.7214C163.944 20.6255 164.069 19.8242 164.445 19.707C164.823 19.5897 165.377 20.1617 165.878 21.1487C166.134 21.6198 166.624 21.8892 167.161 21.8254C168.229 21.6836 169.007 21.8132 169.123 22.2002C169.258 22.5924 168.68 23.158 167.732 23.6642C167.26 23.9354 166.998 24.4396 167.075 24.9833C167.2 26.0876 167.086 26.8802 166.703 27.02C166.327 27.1371 165.764 26.5509 165.272 25.5783C165.021 25.0849 164.518 24.8236 163.987 24.9014C162.913 25.0295 162.143 24.9135 162.021 24.5129Z" fill="#F3F8FF"/>
<path fill-rule="evenodd" clip-rule="evenodd" d="M211.698 118.979C212.009 118.732 212.716 119.077 213.535 119.804C213.927 120.164 214.49 120.225 214.97 119.969C215.917 119.447 216.691 119.284 216.932 119.604C217.184 119.934 216.848 120.661 216.128 121.492C215.791 121.906 215.719 122.473 215.969 122.966C216.475 123.94 216.634 124.735 216.335 124.992C216.024 125.239 215.294 124.896 214.498 124.167C214.083 123.809 213.531 123.736 213.065 124.003C212.104 124.514 211.344 124.687 211.089 124.356C210.84 124.05 211.185 123.31 211.884 122.482C212.244 122.066 212.301 121.488 212.043 121.008C211.546 120.021 211.378 119.239 211.698 118.979Z" fill="#F3F8FF"/>
<path fill-rule="evenodd" clip-rule="evenodd" d="M100.512 38.3351C100.567 37.9381 101.334 37.7102 102.416 37.6921C102.941 37.6922 103.4 37.3533 103.593 36.834C103.962 35.7963 104.432 35.1443 104.818 35.2184C105.207 35.2935 105.442 36.0637 105.444 37.1768C105.459 37.716 105.773 38.1872 106.279 38.385C107.29 38.7651 107.922 39.2487 107.852 39.647C107.796 40.0592 107.029 40.2873 105.961 40.2876C105.42 40.3044 104.961 40.6276 104.786 41.1468C104.402 42.1858 103.945 42.8353 103.543 42.7781C103.157 42.7039 102.92 41.917 102.919 40.8207C102.918 40.2638 102.589 39.7937 102.083 39.6113C101.072 39.216 100.441 38.7487 100.512 38.3351Z" fill="#F3F8FF"/>
<path fill-rule="evenodd" clip-rule="evenodd" d="M72.6011 15.2923C73.116 16.2634 71.8793 18.0585 69.602 19.9249C68.4639 20.8467 68.0354 22.324 68.4665 23.741C69.3495 26.5999 69.4182 28.7806 68.4734 29.3095C67.506 29.8374 65.7819 28.5677 63.9554 26.215C63.0585 25.0456 61.6213 24.605 60.2424 25.048C57.4609 25.9555 55.3389 26.0261 54.8243 25.0551C54.3212 24.0732 55.5566 22.301 57.834 20.4346C58.9733 19.4901 59.4125 18.0252 58.9709 16.5956C58.0759 13.7477 58.019 11.556 58.9744 11.0392C59.9192 10.51 61.654 11.7919 63.47 14.1327C64.3787 15.2912 65.8041 15.7427 67.1948 15.2888C69.9763 14.3811 72.0983 14.3104 72.6011 15.2923Z" fill="#F3F8FF"/>
<path fill-rule="evenodd" clip-rule="evenodd" d="M219.912 65.6341C220.305 66.3752 219.361 67.7452 217.622 69.1697C216.754 69.8732 216.426 71.0006 216.756 72.0821C217.43 74.264 217.482 75.9283 216.761 76.332C216.022 76.7348 214.706 75.7658 213.312 73.9702C212.627 73.0777 211.53 72.7414 210.478 73.0796C208.355 73.7721 206.735 73.8261 206.342 73.085C205.958 72.3356 206.901 70.9831 208.639 69.5587C209.509 68.8378 209.844 67.7198 209.507 66.6287C208.824 64.4552 208.781 62.7825 209.51 62.3881C210.231 61.9843 211.555 62.9625 212.941 64.749C213.635 65.6333 214.723 65.9778 215.785 65.6314C217.908 64.9386 219.528 64.8847 219.912 65.6341Z" fill="#F3F8FF"/>
<path fill-rule="evenodd" clip-rule="evenodd" d="M16.8169 134.688C17.2099 135.43 16.2659 136.8 14.5275 138.224C13.6588 138.928 13.3317 140.055 13.6608 141.136C14.3348 143.318 14.3873 144.983 13.666 145.386C12.9276 145.789 11.6116 144.82 10.2173 143.025C9.53263 142.132 8.43559 141.796 7.383 142.134C5.25979 142.826 3.63998 142.88 3.24713 142.139C2.86314 141.39 3.80615 140.037 5.54455 138.613C6.41424 137.892 6.74951 136.774 6.41243 135.683C5.72924 133.51 5.68578 131.837 6.41506 131.442C7.1363 131.039 8.46052 132.017 9.84674 133.803C10.5404 134.688 11.6284 135.032 12.69 134.686C14.8133 133.993 16.4331 133.939 16.8169 134.688Z" fill="#F3F8FF"/>
<path fill-rule="evenodd" clip-rule="evenodd" d="M192.425 186.408C192.818 187.149 191.874 188.519 190.136 189.943C189.267 190.647 188.94 191.774 189.269 192.856C189.943 195.038 189.996 196.702 189.274 197.106C188.536 197.508 187.22 196.539 185.826 194.744C185.141 193.851 184.044 193.515 182.991 193.853C180.868 194.546 179.248 194.6 178.856 193.859C178.472 193.109 179.415 191.757 181.153 190.332C182.023 189.611 182.358 188.493 182.021 187.402C181.338 185.229 181.294 183.556 182.023 183.162C182.745 182.758 184.069 183.736 185.455 185.523C186.149 186.407 187.237 186.751 188.298 186.405C190.422 185.712 192.041 185.658 192.425 186.408Z" fill="#F3F8FF"/>
<path fill-rule="evenodd" clip-rule="evenodd" d="M8.01538 54.9779C8.12734 55.3655 7.55896 55.9188 6.60379 56.4413C6.13577 56.6871 5.87856 57.2034 5.93722 57.756C6.06851 58.8528 5.93743 59.6531 5.56031 59.768C5.16965 59.8912 4.63114 59.307 4.13648 58.317C3.88356 57.8443 3.39469 57.5716 2.85726 57.6321C1.79014 57.7668 1.01139 57.6323 0.8859 57.2529C0.774159 56.8653 1.34812 56.2896 2.2977 55.7896C2.77131 55.5214 3.03669 55.019 2.96427 54.4748C2.84673 53.3699 2.96406 52.5777 3.35472 52.4545C3.7239 52.3255 4.27035 52.9238 4.7706 53.8916C5.01794 54.3865 5.52034 54.6511 6.04982 54.5764C7.12489 54.4556 7.89569 54.5764 8.01538 54.9779Z" fill="#F2EDFF"/>
<path fill-rule="evenodd" clip-rule="evenodd" d="M44.8659 40.8844C45.2052 41.0811 45.1351 41.8985 44.761 42.9423C44.5715 43.446 44.7144 44.0074 45.1162 44.3793C45.9248 45.1073 46.3458 45.7941 46.1391 46.138C45.9323 46.4816 45.1471 46.4302 44.1368 46.0302C43.6417 45.8509 43.1004 45.9823 42.7385 46.3953C42.03 47.2263 41.3619 47.659 41.0274 47.4463C40.6728 47.2444 40.7431 46.4271 41.1273 45.4041C41.3065 44.8798 41.1789 44.3235 40.7721 43.9672C39.9684 43.2234 39.5425 42.5522 39.7389 42.1881C39.9458 41.8442 40.7459 41.9005 41.7414 42.2954C42.2466 42.4953 42.7929 42.3484 43.1395 41.9305C43.863 41.1046 44.516 40.6668 44.8659 40.8844Z" fill="#F3F8FF"/>
<path fill-rule="evenodd" clip-rule="evenodd" d="M154.338 127.813C154.338 138.864 145.621 147.823 134.868 147.823C124.115 147.823 115.398 138.864 115.398 127.813C115.398 116.762 124.115 107.803 134.868 107.803C145.621 107.803 154.338 116.762 154.338 127.813Z" fill="white"/>
<path fill-rule="evenodd" clip-rule="evenodd" d="M150.453 128.781C150.453 137.99 143.237 145.455 134.336 145.455C125.435 145.455 118.22 137.99 118.22 128.781C118.22 119.572 125.435 112.107 134.336 112.107C143.237 112.107 150.453 119.572 150.453 128.781Z" fill="#D6011B" fill-opacity="0.51"/>
<path fill-rule="evenodd" clip-rule="evenodd" d="M158.187 130.602L157.331 129.581C156.649 128.767 156.609 127.4 157.242 126.545L158.037 125.472C158.67 124.617 158.458 123.461 157.565 122.904L156.445 122.206C155.553 121.649 155.106 120.363 155.452 119.347L155.886 118.073C156.232 117.058 155.684 116.027 154.669 115.782L153.395 115.475C152.379 115.23 151.569 114.149 151.594 113.073L151.626 111.723C151.651 110.647 150.822 109.841 149.783 109.932L148.479 110.046C147.44 110.137 146.346 109.368 146.048 108.336L145.673 107.042C145.375 106.01 144.345 105.509 143.384 105.927L142.179 106.452C141.218 106.87 139.947 106.487 139.354 105.601L138.611 104.489C138.019 103.603 136.889 103.455 136.1 104.159L135.111 105.042C134.322 105.747 132.999 105.788 132.17 105.134L131.131 104.314C130.302 103.661 129.183 103.88 128.643 104.801L127.967 105.957C127.427 106.879 126.181 107.34 125.197 106.983L123.963 106.534C122.98 106.177 121.981 106.742 121.744 107.791L121.446 109.106C121.209 110.154 120.162 110.991 119.12 110.965L117.812 110.932C116.769 110.906 115.988 111.762 116.077 112.835L116.188 114.181C116.276 115.253 115.53 116.383 114.531 116.691L113.277 117.077C112.278 117.385 111.792 118.448 112.197 119.44L112.705 120.684C113.11 121.677 112.74 122.989 111.881 123.6L110.805 124.367C109.946 124.979 109.802 126.145 110.484 126.96L111.34 127.981C112.023 128.795 112.063 130.161 111.429 131.017L110.635 132.09C110.002 132.945 110.214 134.101 111.107 134.657L112.226 135.356C113.119 135.912 113.566 137.199 113.22 138.214L112.786 139.488C112.439 140.504 112.987 141.535 114.003 141.78L115.277 142.087C116.292 142.331 117.102 143.412 117.077 144.489L117.046 145.839C117.02 146.915 117.85 147.721 118.889 147.63L120.192 147.515C121.232 147.424 122.326 148.194 122.624 149.225L122.998 150.519C123.296 151.551 124.326 152.053 125.287 151.635L126.493 151.11C127.454 150.692 128.725 151.075 129.317 151.961L130.06 153.072C130.653 153.958 131.783 154.107 132.572 153.403L133.561 152.519C134.35 151.815 135.673 151.773 136.502 152.427L137.541 153.247C138.37 153.901 139.489 153.682 140.028 152.76L140.705 151.605C141.244 150.683 142.49 150.222 143.474 150.579L144.708 151.027C145.692 151.385 146.691 150.819 146.928 149.771L147.225 148.456C147.462 147.407 148.51 146.571 149.552 146.597L150.86 146.63C151.903 146.656 152.683 145.8 152.595 144.727L152.484 143.381C152.396 142.308 153.141 141.179 154.14 140.871L155.394 140.485C156.394 140.177 156.88 139.114 156.474 138.122L155.966 136.877C155.561 135.885 155.932 134.573 156.79 133.962L157.867 133.194C158.725 132.583 158.869 131.416 158.187 130.602ZM152.813 128.781C152.813 139.299 144.524 147.855 134.336 147.855C124.147 147.855 115.858 139.299 115.858 128.781C115.858 118.263 124.147 109.706 134.336 109.706C144.524 109.706 152.813 118.263 152.813 128.781Z" fill="#D6011B" fill-opacity="0.51"/>
<path d="M93.4009 128.213L89.4395 120.966V119.258H90.7599C91.5376 119.258 92.1905 119.081 92.7187 118.727C93.2469 118.358 93.5843 117.85 93.731 117.204H89.4395V115.496H93.709C93.577 114.912 93.3056 114.427 92.8947 114.042C92.4839 113.642 91.9117 113.442 91.1781 113.442H89.4395V111.734H99.3651V113.442H95.9098C96.4234 114.027 96.7462 114.712 96.8782 115.496H99.3651V117.204H96.9222C96.7755 118.343 96.3573 119.235 95.6678 119.881C94.9782 120.512 94.0905 120.943 93.0048 121.174L97.3184 128.213H93.4009Z" fill="#94C5FF"/>
<path d="M63.601 170.693L60.5537 165.172V163.87H61.5695C62.1676 163.87 62.6699 163.736 63.0762 163.466C63.4825 163.185 63.7421 162.798 63.8549 162.305H60.5537V161.004H63.838C63.7364 160.559 63.5276 160.189 63.2116 159.896C62.8956 159.592 62.4554 159.439 61.8911 159.439H60.5537V158.138H68.1888V159.439H65.5309C65.926 159.885 66.1743 160.406 66.2758 161.004H68.1888V162.305H66.3097C66.1968 163.173 65.8752 163.853 65.3447 164.345C64.8143 164.826 64.1314 165.154 63.2963 165.33L66.6144 170.693H63.601Z" fill="#94C5FF"/>
<path fill-rule="evenodd" clip-rule="evenodd" d="M132.946 121.669C133.817 120.197 135.947 120.197 136.819 121.669L143.39 132.777C144.277 134.277 143.196 136.173 141.453 136.173H128.311C126.568 136.173 125.487 134.277 126.374 132.777L132.946 121.669ZM136.388 121.924C135.711 120.778 134.053 120.778 133.376 121.924L126.805 133.032C126.114 134.198 126.955 135.673 128.311 135.673H141.453C142.809 135.673 143.65 134.198 142.96 133.032L136.388 121.924Z" fill="white"/>
<path d="M136.819 121.669L135.958 122.178V122.178L136.819 121.669ZM132.946 121.669L133.806 122.178V122.178L132.946 121.669ZM143.39 132.777L142.529 133.286V133.286L143.39 132.777ZM126.374 132.777L125.514 132.268H125.514L126.374 132.777ZM133.376 121.924L132.515 121.415V121.415L133.376 121.924ZM136.388 121.924L137.249 121.415L137.249 121.415L136.388 121.924ZM126.805 133.032L127.665 133.541L127.665 133.541L126.805 133.032ZM142.96 133.032L142.099 133.541V133.541L142.96 133.032ZM137.679 121.16C136.421 119.033 133.343 119.033 132.085 121.16L133.806 122.178C134.29 121.36 135.474 121.36 135.958 122.178L137.679 121.16ZM144.251 132.268L137.679 121.16L135.958 122.178L142.529 133.286L144.251 132.268ZM141.453 137.173C143.971 137.173 145.532 134.435 144.251 132.268L142.529 133.286C143.022 134.12 142.422 135.173 141.453 135.173V137.173ZM128.311 137.173H141.453V135.173H128.311V137.173ZM125.514 132.268C124.232 134.435 125.794 137.173 128.311 137.173V135.173C127.343 135.173 126.742 134.12 127.235 133.286L125.514 132.268ZM132.085 121.16L125.514 132.268L127.235 133.286L133.806 122.178L132.085 121.16ZM134.237 122.433C134.527 121.942 135.237 121.942 135.528 122.433L137.249 121.415C136.184 119.615 133.58 119.615 132.515 121.415L134.237 122.433ZM127.665 133.541L134.237 122.433L132.515 121.415L125.944 132.523L127.665 133.541ZM128.311 134.673C127.73 134.673 127.369 134.041 127.665 133.541L125.944 132.523C124.859 134.356 126.181 136.673 128.311 136.673V134.673ZM141.453 134.673H128.311V136.673H141.453V134.673ZM142.099 133.541C142.395 134.041 142.034 134.673 141.453 134.673V136.673C143.583 136.673 144.905 134.356 143.82 132.523L142.099 133.541ZM135.528 122.433L142.099 133.541L143.82 132.523L137.249 121.415L135.528 122.433Z" fill="white"/>
<path fill-rule="evenodd" clip-rule="evenodd" d="M136.029 132.556C136.029 132.714 136 132.862 135.941 133C135.882 133.138 135.8 133.257 135.694 133.356C135.588 133.454 135.465 133.533 135.323 133.593C135.182 133.652 135.033 133.682 134.876 133.682C134.719 133.682 134.572 133.654 134.435 133.599C134.298 133.543 134.178 133.464 134.076 133.362C133.974 133.259 133.892 133.14 133.829 133.006C133.766 132.872 133.735 132.726 133.735 132.568C133.735 132.418 133.764 132.273 133.823 132.135C133.882 131.997 133.962 131.877 134.064 131.774C134.166 131.671 134.288 131.59 134.429 131.531C134.57 131.472 134.719 131.442 134.876 131.442C135.033 131.442 135.182 131.472 135.323 131.531C135.465 131.59 135.588 131.669 135.694 131.768C135.8 131.867 135.882 131.985 135.941 132.123C136 132.262 136.029 132.406 136.029 132.556Z" fill="white"/>
<path fill-rule="evenodd" clip-rule="evenodd" d="M134.308 130.322L133.735 124.724H136.029L135.456 130.322H134.308Z" fill="white"/>
</svg>
