<svg width="70" height="60" viewBox="0 0 70 60" fill="none" xmlns="http://www.w3.org/2000/svg">
<rect width="70" height="60" rx="4" fill="white"/>
<mask id="mask0" mask-type="alpha" maskUnits="userSpaceOnUse" x="0" y="0" width="70" height="60">
<rect width="70" height="60" rx="4" fill="white"/>
</mask>
<g mask="url(#mask0)">
<path opacity="0.05" d="M5.18417 18.8141C1.28264 40.0159 -17.3037 39.7092 -9.48561 44.2229C-1.66752 48.7367 7.65806 41.6119 15.0572 39.6293C22.4563 37.6467 29.0892 44.2133 33.2084 37.0787C37.3275 29.9441 30.8697 31.0083 31.9352 21.2287C33.0007 11.4491 46.4355 8.75218 36.2719 2.88427C26.1084 -2.98364 9.08569 -2.38759 5.18417 18.8141Z" fill="#3792FC"/>
<path opacity="0.05" d="M51.1134 46.8363C46.1853 49.6816 24.73 59.7694 23.6953 54.5961C22.6607 49.4229 31.2398 50.7934 28.3512 43.7323C25.4626 36.6713 12.8315 41.1457 14.3835 31.8339C16.1674 21.1307 44.1515 26.2073 49.427 23.1615C54.7024 20.1157 52.6654 15.7969 55.252 13.7276C59.9079 13.7276 69.7371 13.7276 69.7371 13.7276L69.7371 57.1827C69.7371 57.1827 59.4017 42.051 51.1134 46.8363Z" fill="#3792FC"/>
<circle opacity="0.05" cx="9.98615" cy="52.2682" r="2.84528" fill="#3792FC"/>
<path opacity="0.05" d="M64.4833 40.778C64.3777 40.5005 63.9892 40.6437 64.0537 40.9248C64.2309 41.6999 64.5173 42.4839 64.827 43.2142C64.8896 43.3628 65.1599 43.3378 65.1241 43.157C64.972 42.3622 64.7733 41.5352 64.4833 40.778Z" fill="#3792FC"/>
<path opacity="0.05" d="M16.1409 47.9437C16.4716 47.4249 16.9407 47.5546 17.3947 47.7837C17.8573 48.0172 18.2939 48.1555 18.7954 47.9393C19.5801 47.6 19.9497 46.4154 19.1997 45.8577C18.9575 45.6761 18.7176 45.9744 18.75 46.2035C18.7954 46.5213 18.9532 46.8736 18.6809 47.146C18.3155 47.5113 17.8875 47.2044 17.5222 47.0401C17.1288 46.8628 16.7094 46.8239 16.3052 46.9882C15.607 47.2714 15.099 48.2182 15.6545 48.858C15.7323 48.9467 15.9204 48.9056 15.9399 48.7824C15.9853 48.4862 15.9766 48.2052 16.1409 47.9437Z" fill="#3792FC"/>
<path opacity="0.05" d="M9.67074 19.6659C9.75188 19.9288 10.0018 20.0132 10.229 19.8574C11.1216 19.2504 12.011 18.6565 12.8581 17.9846C13.0204 17.8547 12.9847 17.5951 12.8257 17.4847C11.8357 16.8063 10.5017 15.8034 9.24553 15.7969C8.92744 15.7936 8.70348 16.2448 9.02806 16.4298C9.53441 16.722 10.1414 16.8258 10.6834 17.0498C11.3066 17.3094 11.9266 17.6146 12.4784 18.0073C12.4914 17.8255 12.5043 17.6438 12.5141 17.462C11.5695 18.043 10.6802 18.6954 9.78434 19.3446C9.95962 19.3803 10.1381 19.416 10.3134 19.4517C9.9304 18.3676 9.53766 17.2932 9.11246 16.2253C9.01833 16.0014 8.63532 16.1247 8.70024 16.3617C8.99885 17.4717 9.32668 18.5688 9.67074 19.6659Z" fill="#3792FC"/>
<path opacity="0.05" d="M69.2874 16.7783C69.5931 16.7489 69.5544 16.3327 69.258 16.3217C68.4405 16.2904 67.5843 16.3604 66.776 16.469C66.6158 16.4911 66.5661 16.7599 66.7539 16.7746C67.5843 16.8372 68.457 16.8612 69.2874 16.7783Z" fill="#3792FC"/>
<path opacity="0.05" d="M45.2997 19.7619C45.943 20.5425 47.1925 20.7054 47.996 20.085C49.9402 18.5839 47.913 15.819 45.8172 16.3909C45.4284 16.4967 45.5256 17.0514 45.9087 17.0714C46.5206 17.1057 47.1782 17.1286 47.6672 17.5603C48.1933 18.0206 48.2047 18.8012 47.7729 19.333C46.6293 20.7369 44.645 18.6697 45.8458 17.4116C46.0002 17.2544 45.7658 17.0199 45.6057 17.1715C44.888 17.8605 44.6164 18.9327 45.2997 19.7619Z" fill="#3792FC"/>
<path opacity="0.05" d="M50.2943 52.842C50.3552 53.0392 50.5426 53.1025 50.713 52.9856C51.3825 52.5304 52.0495 52.0849 52.6848 51.581C52.8066 51.4836 52.7798 51.2889 52.6605 51.2061C51.918 50.6973 50.9175 49.9451 49.9754 49.9402C49.7368 49.9378 49.5688 50.2762 49.8123 50.4149C50.192 50.634 50.6473 50.7119 51.0538 50.8799C51.5212 51.0746 51.9862 51.3035 52.4 51.598C52.4098 51.4617 52.4195 51.3254 52.4268 51.1891C51.7184 51.6248 51.0514 52.1141 50.3795 52.601C50.5109 52.6278 50.6448 52.6545 50.7763 52.6813C50.489 51.8682 50.1945 51.0625 49.8756 50.2616C49.8074 50.0936 49.5202 50.1861 49.5664 50.3638C49.7904 51.1964 50.0362 52.0192 50.2943 52.842Z" fill="#3792FC"/>
</g>
<path d="M26.9333 23.6588H27.6885V26.1367C27.6885 27.2982 27.9158 28.4405 28.3449 29.5024C28.5142 29.473 28.6878 29.4568 28.8652 29.4568H29.3574C28.8871 28.4213 28.6367 27.2896 28.6367 26.1366V23.6588H29.4185C29.6818 23.6588 29.8952 23.4446 29.8952 23.1803V19.3578C29.8952 19.0935 29.6817 18.8793 29.4185 18.8793H28.6367V18.1579C28.6367 18.0557 28.7195 17.9725 28.8214 17.9725H30.6214V29.4568H32.0436V14.7911C32.0436 14.3968 31.7253 14.0771 31.3324 14.0771C30.9396 14.0771 30.6213 14.3967 30.6213 14.7911V17.0205H28.8213C28.1967 17.0205 27.6885 17.5307 27.6885 18.1578V18.8792H26.9333C26.67 18.8792 26.4567 19.0934 26.4567 19.3577V23.1802C26.4567 23.4445 26.67 23.6588 26.9333 23.6588Z" fill="#3792FC"/>
<path d="M53.4197 21.7376C52.5469 21.7376 51.8394 22.4479 51.8394 23.3242C51.84 23.8111 51.8553 35.2542 51.8591 38.0755C51.8591 38.6012 51.4345 39.0274 50.9109 39.0274H26.7727C26.2491 39.0274 25.8245 38.6012 25.8245 38.0755V36.5356C25.3828 36.4132 24.9927 36.166 24.6947 35.8337H23.8028C24.0553 35.2104 23.7714 34.4945 23.1542 34.2204L21.3288 33.4147C21.553 33.4685 21.7869 33.4977 22.0277 33.4977C23.6834 33.4977 25.0256 32.1502 25.0256 30.488C25.0256 28.8258 23.6834 27.4783 22.0277 27.4783C20.372 27.4783 19.0297 28.8258 19.0297 30.488C19.0297 31.5262 19.5533 32.4416 20.3498 32.9826L18.1606 32.0163V23.3242C18.1606 22.4479 17.4531 21.7376 16.5803 21.7376C15.7075 21.7376 15 22.448 15 23.3242V44.3363C15 45.2126 15.7075 45.9228 16.5803 45.9228C17.4531 45.9228 18.1606 45.2126 18.1606 44.3363V41.4642H51.8394V44.3363C51.8394 45.2126 52.5469 45.9228 53.4197 45.9228C54.2925 45.9228 55 45.2126 55 44.3363V23.3242C55 22.448 54.2925 21.7376 53.4197 21.7376Z" fill="#A1CCFF"/>
<path d="M26.8743 31.8624H38.1504C39.4595 31.8624 40.5208 32.9278 40.5208 34.2421C40.5208 35.5564 39.4595 36.6219 38.1504 36.6219H26.7727V38.0755H50.9109V32.5094C50.9109 31.3493 49.9741 30.4088 48.8185 30.4088H28.8652C27.9345 30.4087 27.1461 31.0189 26.8743 31.8624Z" fill="#63AAFC"/>
<path d="M26.4566 35.7361H38.1504C38.9723 35.7361 39.6385 35.0672 39.6385 34.2421C39.6385 33.417 38.9723 32.7482 38.1504 32.7482H26.4566C25.6348 32.7482 24.9685 33.417 24.9685 34.2421C24.9686 35.0672 25.6348 35.7361 26.4566 35.7361Z" fill="#A1CCFF"/>
</svg>
