<svg width="320" height="138" viewBox="0 0 320 138" fill="none" xmlns="http://www.w3.org/2000/svg">
<rect opacity="0.4" x="320" y="138" width="320" height="138" rx="4" transform="rotate(-180 320 138)" fill="#F0F7FF"/>
<mask id="mask0" mask-type="alpha" maskUnits="userSpaceOnUse" x="0" y="0" width="320" height="138">
<rect x="320" y="138" width="320" height="138" rx="4" transform="rotate(-180 320 138)" fill="#F0F7FF"/>
</mask>
<g mask="url(#mask0)">
<path opacity="0.5" d="M130.534 146.575C110.606 155.834 110.001 180.464 110.001 180.464H324C327.314 180.464 330 177.799 330 174.485C330 154.852 330 93.1502 330 85.1513C324.133 76.1496 310.2 74.0315 288.934 74.0315C267.667 74.0315 238.334 76.6791 223.667 101.037C209 125.395 214.044 131.643 194.334 141.28C174.624 150.917 150.462 137.316 130.534 146.575Z" fill="#F0F7FF"/>
<path opacity="0.5" fill-rule="evenodd" clip-rule="evenodd" d="M243 -2.05879C243 -2.05879 207.145 74.1246 144.42 74.1246C81.6947 74.1246 71.6469 6.14043 -4 -2.05879H243Z" fill="#F0F7FF"/>
</g>
</svg>
