<svg width="110" height="75" viewBox="0 0 110 75" fill="none" xmlns="http://www.w3.org/2000/svg">
<rect width="110" height="75" fill="white"/>
<mask id="mask0" mask-type="alpha" maskUnits="userSpaceOnUse" x="0" y="0" width="110" height="75">
<rect width="110" height="75" fill="white"/>
</mask>
<g mask="url(#mask0)">
<path d="M73.218 63.6302C76.7402 65.5215 83.4244 67.5016 85.6449 67.2639C87.8653 67.0262 85.9058 64.5334 88.0778 63.1022C90.2497 61.671 92.8543 64.9538 94.4963 64.0625C96.1385 63.1713 93.4852 59.821 94.7018 58.384C95.9184 56.9471 98.8272 58.4122 100.395 57.0947C101.963 55.7773 100.355 54.7474 101.033 53.0647C101.62 51.6073 104.454 49.1276 104.147 48.0129C103.841 46.898 101.51 48.448 99.5897 47.8185C97.6689 47.189 97.7357 45.5277 96.6222 45.5468C95.5088 45.5659 97.026 48.659 94.0575 47.9134C91.0889 47.1678 91.1847 43.8694 89.3097 44.2789C87.4347 44.6884 87.5149 48.6293 85.7725 49.7231C84.03 50.817 83.441 46.572 80.5973 48.5282C77.7536 50.4846 77.9012 53.5494 76.4863 56.1116C75.252 58.3467 73.3255 59.7013 72.7984 62.7703C72.7648 62.9661 73.0385 63.5342 73.218 63.6305L73.218 63.6302Z" fill="#3792FC"/>
<path d="M84.6744 65.2834C83.6195 63.9733 82.5733 62.9928 81.536 62.3418C80.4987 61.6909 78.9322 61.3901 76.8366 61.4394L77.1807 61.2716C79.2768 61.3076 80.7858 61.6364 81.7081 62.2579C82.6302 62.8795 83.6189 63.8879 84.6744 65.2834V65.2834Z" fill="#68AEFF"/>
<path d="M81.5613 51.0426C81.9442 52.6804 82.0728 54.1085 81.9471 55.3266C81.8214 56.5448 81.122 58.0217 79.8489 59.7575L80.193 59.5897C81.3992 57.801 82.0412 56.3521 82.1192 55.2427C82.1971 54.1335 82.0112 52.7335 81.5613 51.0426Z" fill="#68AEFF"/>
<path d="M93.8588 62.7204C92.5801 60.9516 91.4221 59.7417 90.3848 59.0908C89.3474 58.4399 87.6411 57.8523 85.2658 57.3282L85.6099 57.1604C87.9857 57.7698 89.6346 58.3854 90.5568 59.0069C91.4789 59.6284 92.5795 60.8663 93.8588 62.7204Z" fill="#68AEFF"/>
<path d="M89.3199 45.5548C89.9266 47.6515 90.167 49.3089 90.0413 50.527C89.9156 51.7452 89.3281 53.4516 88.2787 55.646L88.6228 55.4782C89.6052 53.2308 90.1353 51.5524 90.2134 50.4431C90.2913 49.3338 89.9935 47.7044 89.3199 45.5548V45.5548Z" fill="#68AEFF"/>
<path d="M99.0005 56.0661C97.5811 55.1037 96.4011 54.5217 95.4602 54.3198C94.5193 54.1179 93.1016 54.1427 91.2069 54.394L91.4159 54.1776C93.3338 53.9892 94.7166 54.0006 95.5646 54.2116C96.4126 54.4227 97.5577 55.0409 99.0005 56.0662L99.0005 56.0661Z" fill="#68AEFF"/>
<path d="M96.8583 46.4957C96.9999 47.8133 96.969 48.8297 96.7654 49.5448C96.5619 50.26 96.0307 51.2182 95.1719 52.4197L95.3953 52.3556C96.2197 51.1154 96.7136 50.1678 96.8772 49.5128C97.0407 48.8578 97.0344 47.8521 96.8583 46.4957L96.8583 46.4957Z" fill="#68AEFF"/>
<path d="M104.147 48.0103L67.1262 66.3884L66.8745 65.8723L104.147 48.0103Z" fill="#68AEFF"/>
<path d="M63.2941 54.4766C70.1054 53.7889 81.4907 50.1994 84.4154 47.7356C87.3401 45.272 82.1712 43.6096 83.8843 39.4978C85.5971 35.3862 92.4382 37.5526 93.9159 34.715C95.3938 31.8774 88.4189 29.6617 88.7701 26.4568C89.1213 23.2518 94.6536 22.5464 95.6181 19.1746C96.5827 15.8028 93.3131 15.8809 92.6644 12.8428C92.1026 10.2113 93.751 3.97762 92.2482 2.6888C90.7453 1.39973 88.9215 5.83129 85.5919 6.77694C82.2623 7.72259 80.7663 5.30015 79.2039 6.39344C77.6415 7.48677 82.7573 10.4249 77.829 12.2091C72.9007 13.9933 69.8782 9.21889 67.6086 11.5956C65.3389 13.9725 69.2263 19.4904 67.8001 22.7118C66.3739 25.9331 61.4728 20.4707 59.309 25.9709C57.1453 31.4713 60.2896 35.681 60.7344 40.6732C61.1224 45.0282 59.6845 48.796 61.8751 53.6577C62.0149 53.9678 62.9474 54.5122 63.2944 54.4771L63.2941 54.4766Z" fill="#68AEFF"/>
<path d="M81.1412 45.8533C78.3891 45.0036 75.965 44.6133 73.8691 44.6826C71.7731 44.7518 69.2612 45.8247 66.3334 47.9014L66.6611 47.3337C69.6714 45.3776 72.1286 44.3994 74.033 44.3987C75.9372 44.3981 78.3065 44.8829 81.1412 45.8533V45.8533Z" fill="#3792FC"/>
<path d="M63.0852 28.6173C65.1971 30.5759 66.7472 32.4801 67.7352 34.3298C68.7232 36.1795 69.1446 38.946 68.9993 42.6292L69.327 42.0615C69.3267 38.3672 68.8506 35.6956 67.8991 34.0459C66.9475 32.3965 65.343 30.5871 63.0852 28.6173Z" fill="#3792FC"/>
<path d="M91.7255 33.4202C88.2164 32.1335 85.414 31.5247 83.318 31.594C81.2221 31.6632 78.237 32.4629 74.3631 33.9934L74.6909 33.4257C78.6473 32.0159 81.5776 31.3109 83.4819 31.3101C85.3861 31.3095 88.134 32.0129 91.7255 33.4202Z" fill="#3792FC"/>
<path d="M68.8449 13.3973C71.7137 15.7929 73.6422 17.9156 74.6302 19.7653C75.6182 21.615 76.4181 24.6001 77.0297 28.7202L77.3574 28.1525C76.6001 24.0212 75.7456 21.131 74.7941 19.4814C73.8425 17.832 71.8594 15.804 68.8449 13.3973V13.3973Z" fill="#3792FC"/>
<path d="M92.6531 19.0498C89.7165 19.0428 87.4839 19.3465 85.9548 19.9608C84.4258 20.5751 82.4369 21.9678 79.9877 24.1389L80.0772 23.6317C82.6195 21.5276 84.5935 20.2196 85.9995 19.7072C87.4054 19.1949 89.6231 18.976 92.6531 19.0499L92.6531 19.0498Z" fill="#3792FC"/>
<path d="M80.4476 7.51456C81.9104 9.24939 82.8398 10.722 83.2355 11.9321C83.6313 13.1423 83.7948 15.0114 83.7261 17.5393L83.9819 17.2345C83.9647 14.6844 83.7585 12.8661 83.3635 11.7797C82.9684 10.6931 81.9965 9.27144 80.4476 7.51453L80.4476 7.51456Z" fill="#3792FC"/>
<path d="M92.2456 2.68513L58.2736 62.5171L57.422 62.0254L92.2456 2.68513Z" fill="#3792FC"/>
<path fill-rule="evenodd" clip-rule="evenodd" d="M77.6487 48.6897C87.1191 51.8098 94.7384 51.3074 100.524 47.1041C106.443 42.8033 109.313 35.4832 109.133 25.1443C99.3557 21.7779 91.5073 22.2456 85.5877 26.5464C79.7987 30.7523 76.9663 37.8313 77.0109 47.8118C77.0119 48.0372 77.4296 48.6181 77.6492 48.6904L77.6487 48.6897Z" fill="#68AEFF"/>
<path d="M84.4906 32.981C85.2411 34.7358 85.6662 36.3062 85.7657 37.6921C85.8652 39.0781 85.3747 40.8663 84.294 43.0566L84.6455 42.8013C85.6409 40.5649 86.0728 38.8193 85.9414 37.5644C85.8099 36.3095 85.3263 34.7816 84.4906 32.981L84.4906 32.981Z" fill="#68AEFF"/>
<path d="M100.533 43.607C98.7558 41.8824 97.2234 40.7585 95.9359 40.2355C94.6485 39.7125 92.626 39.3921 89.8685 39.2745L90.2199 39.0192C92.9949 39.2321 94.9588 39.595 96.1116 40.1078C97.2645 40.6206 98.7383 41.787 100.533 43.607L100.533 43.607Z" fill="#68AEFF"/>
<path d="M92.079 25.3193C93.17 27.5426 93.7653 29.3473 93.8649 30.7334C93.9645 32.1194 93.6442 34.1419 92.904 36.8008L93.2554 36.5455C93.9104 33.8406 94.1721 31.8606 94.0407 30.6057C93.9092 29.3509 93.2553 27.5887 92.0791 25.3193L92.079 25.3193Z" fill="#68AEFF"/>
<path d="M104.968 35.1582C103.192 34.3625 101.758 33.9445 100.667 33.9043C99.5762 33.8642 97.9969 34.1712 95.9293 34.8253L96.1202 34.5424C98.2262 33.9539 99.7737 33.694 100.763 33.7628C101.752 33.8317 103.153 34.2968 104.968 35.1582L104.968 35.1582Z" fill="#68AEFF"/>
<path d="M100.688 24.8857C101.106 26.3301 101.272 27.4719 101.185 28.3111C101.098 29.1504 100.694 30.3258 99.9707 31.8376L100.208 31.722C100.885 30.1737 101.25 29.0175 101.304 28.2533C101.357 27.4891 101.152 26.3666 100.688 24.8857L100.688 24.8857Z" fill="#68AEFF"/>
<path d="M109.132 25.1422L77.5212 48.5142L77.1382 47.9871L109.132 25.1422Z" fill="#68AEFF"/>
<path d="M37.6202 58.0225C40.2669 52.1333 42.7053 41.1404 42.0772 37.5907C41.4491 34.041 37.6632 37.4818 35.1236 34.1462C32.5841 30.8106 37.5672 26.241 35.9537 23.6974C34.3403 21.1538 29.2541 25.8097 26.8112 24.0138C24.3683 22.2179 26.3988 17.3654 24.1091 14.9897C21.8194 12.6141 20.3438 15.3224 17.5663 14.422C15.1605 13.642 10.8639 9.36006 9.1075 9.98118C7.35105 10.6023 10.0987 14.1789 9.30083 17.3448C8.50299 20.5107 5.82765 20.5924 5.98186 22.3838C6.13606 24.1752 10.9353 21.3784 10.067 26.2452C9.19875 31.1121 3.89094 31.334 4.75664 34.3076C5.62233 37.2813 11.9424 36.7027 13.8923 39.3849C15.8421 42.0671 9.09017 43.4998 12.5474 47.8573C16.0047 52.2149 20.9104 51.6278 25.1824 53.6149C28.9089 55.3484 31.298 58.2972 36.2853 58.7964C36.6034 58.8283 37.4853 58.3226 37.6202 58.0225Z" fill="#376BA8"/>
<path d="M39.0055 39.3821C39.0055 39.3821 36.0251 42.1552 34.6296 44.7729C33.2342 47.3907 33.7017 52.4458 33.7017 52.4458L33.3941 51.9107C33.3941 51.9107 33.132 46.8397 34.4758 44.5054C35.8196 42.1711 39.0055 39.3821 39.0055 39.3821Z" fill="#89B8EE"/>
<path d="M16.4797 46.0196C16.4797 46.0196 20.3616 44.8144 23.3171 44.9097C26.2725 45.0051 30.6656 47.7845 30.6656 47.7845L30.3579 47.2494C30.3579 47.2494 25.8484 44.6408 23.1632 44.6422C20.4781 44.6436 16.4797 46.0196 16.4797 46.0196Z" fill="#3792FC"/>
<path d="M33.8699 24.8787C33.8699 24.8787 29.8216 28.2708 28.4261 30.8886C27.0306 33.5064 26.1633 39.3354 26.1633 39.3354L25.8556 38.8002C25.8556 38.8002 26.9284 32.9554 28.2722 30.6211C29.616 28.2868 33.8699 24.8787 33.8699 24.8787Z" fill="#3792FC"/>
<path d="M6.80539 34.1474C6.80539 34.1474 11.7552 32.3231 14.7107 32.4184C17.6661 32.5138 23.1271 34.6741 23.1271 34.6741L22.8194 34.139C22.8194 34.139 17.242 32.1495 14.5568 32.1509C11.8717 32.1523 6.80539 34.1474 6.80539 34.1474Z" fill="#3792FC"/>
<path d="M22.6128 17.3551C22.6128 17.3551 20.5307 20.9494 20.201 23.2572C19.8713 25.565 20.7921 30.0998 20.7921 30.0998L20.4214 29.7879C20.4214 29.7879 19.6482 25.1859 20.0157 23.1012C20.3831 21.0166 22.6128 17.3551 22.6128 17.3551Z" fill="#3792FC"/>
<path d="M7.48055 21.8968C7.48055 21.8968 10.631 21.3291 12.3876 21.6988C14.1442 22.0684 17.1814 23.938 17.1814 23.938L17.0537 23.5854C17.0537 23.5854 13.9289 21.8056 12.3237 21.5225C10.7185 21.2393 7.48055 21.8968 7.48055 21.8968Z" fill="#3792FC"/>
<path d="M9.10429 9.98305L42.7262 67.522L41.9252 67.9863L9.10429 9.98305Z" fill="#3792FC"/>
<path d="M39.404 62.8466C38.8855 57.6422 36.1638 48.9444 34.2926 46.7111C32.4214 44.4778 31.1541 48.4287 28.0292 47.1224C24.9042 45.8161 26.5557 40.5872 24.3992 39.4597C22.2427 38.3322 20.5538 43.6635 18.1172 43.3973C15.6806 43.1311 15.1481 38.9039 12.5853 38.1691C10.0224 37.4342 10.0797 39.9326 7.76946 40.4302C5.76845 40.8612 1.03019 39.6055 0.049175 40.7548C-0.931842 41.9041 2.43617 43.2949 3.15299 45.8386C3.8698 48.3824 2.02715 49.527 2.85737 50.7203C3.68759 51.9135 5.92476 48.0022 7.27789 51.7671C8.63101 55.532 4.99932 57.8448 6.8049 59.5777C8.61049 61.3105 12.8081 58.3362 15.2562 59.4242C17.7044 60.5121 13.5484 64.2607 17.7287 65.9105C21.9089 67.5603 25.1115 65.1548 28.9075 64.8117C32.2188 64.5124 35.0824 65.6088 38.7801 63.9317C39.0159 63.8248 39.4304 63.1119 39.404 62.8466Z" fill="#68AEFF"/>
<path d="M32.8613 49.2154C32.8613 49.2154 31.8896 52.3708 31.9665 54.7732C32.0434 57.1756 34.4089 60.5296 34.4089 60.5296L33.9775 60.2795C33.9775 60.2795 31.7497 56.8308 31.7508 54.6482C31.752 52.4655 32.8613 49.2154 32.8613 49.2154Z" fill="#B3D2F7"/>
<path d="M19.7448 63.0239C19.7448 63.0239 21.9804 60.6013 24.0908 59.4669C26.2013 58.3326 30.4015 58.4956 30.4015 58.4956L29.97 58.2455C29.97 58.2455 25.757 58.2495 23.8751 59.3419C21.9932 60.4342 19.7448 63.0239 19.7448 63.0239Z" fill="#68AEFF"/>
<path d="M23.4148 41.1347C23.4148 41.1347 21.9441 45.1582 22.021 47.5606C22.0978 49.963 23.8395 54.402 23.8395 54.402L23.408 54.1519C23.408 54.1519 21.8041 49.6182 21.8053 47.4355C21.8064 45.2529 23.4148 41.1347 23.4148 41.1347Z" fill="#68AEFF"/>
<path d="M8.17665 58.6325C8.17665 58.6325 10.9114 55.3418 13.0218 54.2075C15.1323 53.0731 19.8316 52.3681 19.8316 52.3681L19.4002 52.118C19.4002 52.118 14.688 52.9901 12.8061 54.0824C10.9242 55.1747 8.17665 58.6325 8.17665 58.6325Z" fill="#68AEFF"/>
<path d="M12.4899 40.4354C12.4899 40.4354 12.479 43.8015 13.1781 45.5534C13.8773 47.3053 16.3508 50.1104 16.3508 50.1104L15.9652 50.0423C15.9652 50.0423 13.5681 47.1303 12.9853 45.5194C12.4026 43.9086 12.4899 40.4354 12.4899 40.4354Z" fill="#68AEFF"/>
<path d="M3.71189 49.7697C3.71189 49.7697 5.69174 48.0913 7.07222 47.6365C8.4527 47.1817 11.3356 47.258 11.3356 47.258L11.104 47.0627C11.104 47.0627 8.19587 47.0849 6.9564 47.5388C5.71693 47.9927 3.71189 49.7697 3.71189 49.7697Z" fill="#68AEFF"/>
<path d="M0.0476658 40.7574L46.8128 67.4312L46.4384 68.0822L0.0476658 40.7574Z" fill="#68AEFF"/>
<path d="M31.872 68.6079C32.0292 68.2392 32.3912 68 32.792 68H92.208C92.6088 68 92.9708 68.2392 93.128 68.6079L94.4066 71.6079C94.6878 72.2675 94.2038 73 93.4867 73H31.5133C30.7962 73 30.3122 72.2675 30.5934 71.6079L31.872 68.6079Z" fill="url(#paint0_linear)"/>
<rect x="31" y="2" width="37.0909" height="68" rx="6" fill="#3792FC"/>
<path d="M61.5102 5.25819H58.254C57.8362 5.25819 57.4976 5.59755 57.4976 6.01602V6.98534C57.4976 7.88456 56.7632 8.62039 55.8657 8.62039H43.4231C42.5256 8.62039 41.7912 7.88469 41.7912 6.98534V6.3151C41.7912 5.73139 41.319 5.25819 40.7363 5.25819H37.7787C36.2217 5.25819 34.9597 6.52274 34.9597 8.08266V59.8237C34.9597 61.6108 34.7177 64.0377 36.2981 65.1433C37.5869 66.0448 43.4439 65.9527 43.4439 65.9527H61.5102C63.067 65.9527 64.3291 64.6882 64.3291 63.1283V8.08266C64.3291 6.52274 63.067 5.25819 61.5102 5.25819Z" fill="#D0E6FF"/>
<rect x="38.0641" y="58.5199" width="23.8442" height="5.2987" rx="1" fill="#68AEFF"/>
<path d="M53.7498 6.28013H48.4247C47.8614 6.28013 47.4047 5.8227 47.4047 5.25821C47.4047 4.69371 47.8614 4.23628 48.4247 4.23628H53.7498C54.3131 4.23628 54.7697 4.69371 54.7697 5.25821C54.7697 5.8227 54.3131 6.28013 53.7498 6.28013Z" fill="#D0E6FF"/>
<path d="M44.6509 6.10795C43.9208 5.62707 44.0977 4.45157 45.0167 4.25625C45.6418 4.12705 46.2365 4.61217 46.2365 5.25763C46.2365 5.73228 45.9096 6.15764 45.4151 6.26047C45.3499 6.2728 44.8584 6.24855 44.6509 6.10795Z" fill="#D0E6FF"/>
<path fill-rule="evenodd" clip-rule="evenodd" d="M38.9104 25.0198H41.6386C41.8891 25.0198 42.094 24.815 42.094 24.5645V21.8291C42.094 21.5786 41.8891 21.3738 41.6386 21.3738H38.9104C38.6599 21.3738 38.4551 21.5786 38.4551 21.8291V24.5645C38.4551 24.815 38.6599 25.0198 38.9104 25.0198ZM45.3354 25.0198H48.0637C48.314 25.0198 48.519 24.815 48.519 24.5645V21.8291C48.519 21.5786 48.3141 21.3738 48.0637 21.3738H45.3354C45.085 21.3738 44.8801 21.5786 44.8801 21.8291V24.5645C44.8801 24.815 45.085 25.0198 45.3354 25.0198ZM54.4887 25.0198H51.7605C51.51 25.0198 51.3052 24.815 51.3052 24.5645V21.8291C51.3052 21.5786 51.51 21.3738 51.7605 21.3738H54.4887C54.7392 21.3738 54.9441 21.5786 54.9441 21.8291V24.5645C54.9441 24.815 54.7392 25.0198 54.4887 25.0198ZM58.1853 25.0198H60.9136C61.164 25.0198 61.3689 24.815 61.3689 24.5645V21.8291C61.3689 21.5786 61.164 21.3738 60.9136 21.3738H58.1853C57.9348 21.3738 57.73 21.5786 57.73 21.8291V24.5645C57.73 24.815 57.9348 25.0198 58.1853 25.0198Z" fill="#68AEFF"/>
<path d="M93 68.5785C93 65.8099 93 56.218 93 53.9028V51.3081V45.4215C93 44.6397 92.4838 44 91.853 44H91.4456C89.8091 44 57.9286 44 56.147 44C55.5162 44 55 44.6397 55 45.4215V51.3081C55 53.123 55 54.6825 55 56.4974V68.5785C55 69.3603 55.5162 70 56.147 70H61.6449H62.0933C62.6334 70 90.7392 70 91.8531 70C92.4838 70 93 69.3603 93 68.5785Z" fill="#F4FAFF"/>
<path d="M74 58C74 58 74 58 56.147 44C55.5162 44 55 44.6397 55 45.4215V51.3081C55 53.123 55 54.6825 55 56.4974V68.5785C55 69.3603 55.5162 70 56.147 70C74 58 74 58 74 58Z" fill="#D0E6FF"/>
<path d="M74 58C74 58 74 58 91.853 70C92.4838 70 93 69.3603 93 68.5785V62.6919C93 60.877 93 59.3175 93 57.5026V45.4215C93 44.6397 92.4838 44 91.853 44C74 58 74 58 74 58Z" fill="#D0E6FF"/>
<path d="M93 45.4215C93 44.6397 92.4838 44 91.853 44H91.4456C89.8091 44 57.9286 44 56.147 44C55.5162 44 55 44.6397 55 45.4215C74 60 74 60 74 60C74 60 74 60 93 45.4215Z" fill="#D0E6FF"/>
</g>
<defs>
<linearGradient id="paint0_linear" x1="62.5" y1="68" x2="62.5" y2="73" gradientUnits="userSpaceOnUse">
<stop offset="0.130208" stop-color="#A0BCDD"/>
<stop offset="1" stop-color="#E0E9F3" stop-opacity="0"/>
</linearGradient>
</defs>
</svg>
