<svg width="107" height="72" viewBox="0 0 107 72" fill="none" xmlns="http://www.w3.org/2000/svg">
<path fill-rule="evenodd" clip-rule="evenodd" d="M83.9625 0.985175C84.7002 0.907293 85.4877 0.934785 86.1738 1.18641C87.6327 1.72154 88.0474 3.21079 88.0274 4.42126C88.0059 5.72412 87.6857 7.14717 88.832 8.19691C89.359 8.67952 90.0145 9.04886 90.532 9.54033C91.0849 10.0655 91.5187 10.6665 91.8399 11.3118C92.4297 12.4971 92.7192 13.891 92.1799 15.1344C91.705 16.2292 90.5102 17.2173 90.7684 18.4621C91.0377 19.7607 92.5529 20.7535 93.5002 21.7207C94.5724 22.8154 95.5595 24.2144 95.7217 25.6499C95.8772 27.0256 95.1841 28.4169 94.1205 29.4568C91.9955 31.5347 88.8011 32.5534 85.5803 32.5471C84.2128 32.5443 82.6646 32.491 81.4845 31.856C81.1197 31.6598 80.9273 31.4396 80.7105 31.1335C80.5161 30.859 80.2593 30.6805 79.9621 30.4863C79.309 30.0597 78.8374 29.4847 78.5364 28.8411C77.3677 26.3414 78.3018 23.2489 79.9378 21.0292C80.3254 20.5032 80.6428 19.9972 80.4545 19.3703C80.258 18.7159 79.775 18.1257 79.3477 17.5633C78.9256 17.0074 78.4436 16.477 78.1137 15.876C77.7681 15.2463 77.6708 14.587 77.7319 13.8979C77.8466 12.6035 78.4933 11.409 79.4089 10.368C80.2908 9.36525 81.3262 8.40581 81.3285 7.09195C81.3311 5.69944 80.2537 4.46072 80.7127 3.04497C80.9027 2.45873 81.2844 1.85725 81.8996 1.50579C82.4896 1.16871 83.2686 1.05842 83.9625 0.985175Z" fill="#376BA8"/>
<path fill-rule="evenodd" clip-rule="evenodd" d="M83.4803 3.211C83.4941 3.02399 83.7509 2.91182 83.953 2.96062C84.219 3.02489 84.2139 3.23968 84.2069 3.43104C84.1854 4.01923 84.2839 4.59086 84.4475 5.16157C84.7876 6.34815 85.4162 7.44139 85.9142 8.5812C86.4117 9.72005 86.6453 10.8959 86.3534 12.1009C86.0782 13.2372 85.646 14.3439 85.3644 15.4816C85.1162 16.4842 84.8521 17.5416 85.2301 18.5418C85.5938 19.5045 86.3979 20.2885 86.9769 21.1585C88.1756 22.9594 88.7074 24.9574 88.7785 27.0134C88.8114 27.9682 88.7818 28.9317 88.5254 29.8681C88.3779 30.4073 88.1796 31.136 87.6449 31.5083C87.3983 31.6799 86.9765 31.7393 86.769 31.4851C86.5742 31.2466 86.7451 30.8775 86.8069 30.6234C87.0748 29.5233 87.1287 28.399 87.0646 27.2819C87.0025 26.1999 86.8546 25.1197 86.4604 24.0864C86.0947 23.1274 85.5389 22.266 84.8849 21.4271C84.2185 20.5722 83.5256 19.7155 83.2502 18.7025C82.9704 17.6737 83.1977 16.6269 83.5017 15.6177C83.8231 14.5503 84.2441 13.5135 84.6794 12.475C85.1035 11.463 85.2539 10.5056 85.0197 9.44647C84.5571 7.35402 83.319 5.39003 83.4803 3.211Z" fill="#3792FC"/>
<path fill-rule="evenodd" clip-rule="evenodd" d="M103.442 3.52405C104.355 3.76358 105.262 4.15004 105.913 4.75603C107.297 6.04468 106.872 7.99232 106.108 9.41486C105.286 10.946 104.04 12.485 104.742 14.2417C105.065 15.0493 105.608 15.7808 105.914 16.5946C106.241 17.4642 106.383 18.3699 106.365 19.2775C106.331 20.9444 105.818 22.723 104.425 23.9511C103.198 25.0323 101.193 25.6638 100.734 27.252C100.255 28.9088 101.425 30.764 101.945 32.3337C102.533 34.1101 102.835 36.2084 102.147 37.9789C101.487 39.6758 99.8235 41.0096 97.9399 41.7614C94.1763 43.2636 89.8065 43.0324 86.0327 41.5772C84.4304 40.9593 82.6471 40.2002 81.6514 38.9189C81.3436 38.5228 81.2526 38.1759 81.1856 37.7165C81.1255 37.3045 80.9335 36.9779 80.7036 36.6146C80.1986 35.8166 79.9972 34.9246 80.0379 34.0282C80.1962 30.5466 83.1836 27.3093 86.4603 25.4195C87.2367 24.9718 87.9185 24.5159 88.0811 23.69C88.2509 22.8278 88.0454 21.9127 87.8884 21.0554C87.7333 20.2082 87.4925 19.3644 87.4731 18.5053C87.453 17.6053 87.7422 16.7818 88.2353 15.9943C89.1618 14.5151 90.651 13.3931 92.3617 12.5735C94.0094 11.7841 95.8108 11.1149 96.6172 9.56213C97.4721 7.91646 96.9661 5.96721 98.3705 4.49923C98.952 3.89136 99.7677 3.35162 100.704 3.2125C101.602 3.07906 102.584 3.29878 103.442 3.52405Z" fill="#68AEFF"/>
<path fill-rule="evenodd" clip-rule="evenodd" d="M101.577 6.24523C101.707 6.03002 102.075 6.01346 102.282 6.16278C102.554 6.35938 102.418 6.61142 102.294 6.83485C101.912 7.52166 101.681 8.24323 101.526 8.9932C101.204 10.5524 101.277 12.1317 101.168 13.707C101.06 15.281 100.62 16.7793 99.5484 18.0742C98.538 19.2951 97.3617 20.41 96.3428 21.6297C95.4448 22.7047 94.4951 23.8373 94.3309 25.1929C94.1727 26.4976 94.6377 27.7903 94.7874 29.0828C95.0974 31.7584 94.5082 34.3652 93.3452 36.8323C92.805 37.9779 92.1863 39.1055 91.319 40.0984C90.8196 40.6701 90.1461 41.4432 89.2952 41.6419C88.9028 41.7335 88.3737 41.6128 88.2851 41.2177C88.2018 40.8471 88.6254 40.4874 88.8518 40.2145C89.8318 39.033 90.5763 37.726 91.1784 36.3741C91.7616 35.0646 92.2434 33.7184 92.4089 32.3162C92.5624 31.0149 92.4347 29.7432 92.1784 28.4535C91.9173 27.1393 91.6264 25.8109 91.9184 24.4866C92.2148 23.1416 93.1152 22.0048 94.0822 20.9473C95.1051 19.8288 96.2258 18.7917 97.3642 17.759C98.4735 16.7527 99.2297 15.6869 99.5978 14.3266C100.325 11.6392 100.068 8.75265 101.577 6.24523Z" fill="#3792FC"/>
<path fill-rule="evenodd" clip-rule="evenodd" d="M75.2181 13.409C76.7362 13.409 78.0708 14.1043 78.9905 15.0909C80.067 16.2459 80.2844 17.6564 80.7216 19.0329C80.9391 19.718 81.3132 20.3981 81.9689 20.8635C82.5652 21.2868 83.3222 21.3715 84.036 21.5783C85.4625 21.9916 86.6144 22.9872 87.0693 24.202C87.6243 25.6838 87.0365 27.1782 87.1377 28.6799C87.2306 30.059 88.8043 30.9195 90.0705 31.5806C91.3191 32.2325 92.4438 32.8428 92.8199 34.1128C93.2186 35.4598 93.3524 36.9632 92.8001 38.2939C91.8805 40.5094 89.1894 41.485 86.589 41.6363C84.2291 41.7735 81.2618 41.558 79.4895 40.0779C78.429 39.1922 78.0449 37.9534 78.0926 36.721C78.1222 35.9546 78.2979 35.1953 78.5251 34.4547C78.6861 33.9298 78.9036 33.4072 78.9655 32.8648C79.1303 31.4217 77.5867 31.1446 76.2728 30.7484C74.6031 30.2448 73.4343 29.2937 72.6215 27.9686C71.8645 26.7349 71.5469 25.35 72.0007 23.9916C72.2324 23.298 72.6528 22.6687 73.2228 22.1335C73.4738 21.8979 73.8275 21.7014 74.054 21.4539C74.2654 21.2228 74.2194 20.9233 74.1465 20.6526C73.8096 19.4021 72.76 18.3666 72.3846 17.1183C72.0457 15.9916 72.2461 14.5894 73.4383 13.8625C73.9533 13.5484 74.5885 13.4124 75.2181 13.409Z" fill="#51A0FD"/>
<path fill-rule="evenodd" clip-rule="evenodd" d="M77.2867 16.6673C78.8957 18.1483 79.333 20.1575 79.4614 22.105C79.5333 23.1971 79.4584 24.3489 79.8298 25.4082C80.1475 26.3148 80.8923 27.0078 81.66 27.6628C83.2055 28.9813 84.929 30.3217 85.381 32.23C85.6463 33.3498 85.4672 34.5065 85.8337 35.614C86.167 36.6207 86.7537 37.6098 87.4674 38.4599C88.042 39.1444 88.7906 39.6685 89.4187 40.3067C89.6103 40.5015 89.8849 40.7882 89.8058 41.0632C89.7132 41.3853 89.2385 41.4872 88.9016 41.4366C88.1162 41.3187 87.4552 40.6707 86.9416 40.1997C86.1908 39.5108 85.5527 38.7699 85.0341 37.9388C84.4583 37.0159 83.9947 36.0365 83.7967 35.001C83.5911 33.9268 83.6934 32.8073 83.2241 31.7763C82.4342 30.0416 80.5185 29.0179 79.1334 27.6658C77.4077 25.9811 77.6651 23.8843 77.8418 21.8119C77.9389 20.673 78.0355 19.3869 77.3695 18.3471C77.1152 17.9502 76.5484 17.5801 76.4391 17.1289C76.3389 16.7155 76.8854 16.2978 77.2867 16.6673Z" fill="#3792FC"/>
<path fill-rule="evenodd" clip-rule="evenodd" d="M79.0025 41.0038C79.0026 49.4733 80.6022 53.911 89.047 53.911C97.4918 53.911 99.0914 49.4733 99.0915 41.0038H79.0025Z" fill="#376BA8"/>
<path d="M50.4915 53.959C50.9385 48.105 49.5871 37.9547 47.9141 35.1165C46.241 32.2783 44.0232 36.3938 40.748 34.3321C37.4729 32.2703 40.379 26.8185 38.1638 25.1459C35.9486 23.4734 32.9796 29.0309 30.2765 28.2548C27.5734 27.4786 27.8105 22.7018 25.0576 21.3827C22.3048 20.0636 21.8734 22.836 19.1616 22.9289C16.8127 23.0093 11.7027 20.6844 10.3649 21.7605C9.0271 22.8365 12.5604 25.0397 12.8661 27.9926C13.1718 30.9455 10.8603 31.8459 11.5624 33.3288C12.2645 34.8116 15.5716 30.9318 16.3545 35.36C17.1374 39.7883 12.5704 41.6258 14.2686 43.898C15.9667 46.1701 21.3051 43.7136 23.8582 45.4001C26.4112 47.0867 20.966 50.4072 25.3667 53.0572C29.7673 55.7073 33.8673 53.6826 38.2289 54.0543C42.0337 54.3786 45.055 56.1566 49.5703 55.0347C49.8583 54.9632 50.4687 54.2573 50.4915 53.959Z" fill="url(#paint0_linear)"/>
<path fill-rule="evenodd" clip-rule="evenodd" d="M45.7978 37.6005C45.7978 37.6005 44.0722 40.8954 43.6821 43.5655C43.2921 46.2356 45.3017 50.4099 45.3017 50.4099L44.8634 50.0482C44.8634 50.0482 43.0283 45.7965 43.463 43.3846C43.8977 40.9728 45.7978 37.6005 45.7978 37.6005Z" fill="#68AEFF"/>
<path fill-rule="evenodd" clip-rule="evenodd" d="M28.2201 50.2657C28.2201 50.2657 31.2298 48.0306 33.8421 47.1945C36.4544 46.3584 41.1728 47.3695 41.1728 47.3695L40.7345 47.0078C40.7345 47.0078 35.9685 46.1788 33.623 47.0137C31.2775 47.8485 28.2201 50.2657 28.2201 50.2657Z" fill="#68AEFF"/>
<path fill-rule="evenodd" clip-rule="evenodd" d="M36.7176 26.8019C36.7176 26.8019 34.2551 30.9573 33.865 33.6274C33.475 36.2976 34.5634 41.5476 34.5634 41.5476L34.1251 41.1859C34.1251 41.1859 33.2112 35.8584 33.6459 33.4466C34.0806 31.0347 36.7176 26.8019 36.7176 26.8019Z" fill="#68AEFF"/>
<path fill-rule="evenodd" clip-rule="evenodd" d="M16.0079 43.1245C16.0079 43.1245 19.7546 40.0289 22.3669 39.1928C24.9792 38.3567 30.4344 38.5072 30.4344 38.5072L29.9962 38.1454C29.9962 38.1454 24.4932 38.177 22.1477 39.0119C19.8022 39.8468 16.0079 43.1245 16.0079 43.1245Z" fill="#68AEFF"/>
<path fill-rule="evenodd" clip-rule="evenodd" d="M24.4996 23.8683C24.4996 23.8683 23.8189 27.586 24.2618 29.6604C24.7047 31.7347 26.9455 35.3238 26.9455 35.3238L26.5228 35.1724C26.5228 35.1724 24.3898 31.48 24.0505 29.5846C23.7113 27.6892 24.4996 23.8683 24.4996 23.8683Z" fill="#68AEFF"/>
<path fill-rule="evenodd" clip-rule="evenodd" d="M12.7175 32.4467C12.7175 32.4467 15.2901 30.9836 16.9419 30.7541C18.5936 30.5245 21.8393 31.1791 21.8393 31.1791L21.616 30.9175C21.616 30.9175 18.3223 30.3668 16.8303 30.6232C15.3382 30.8797 12.7175 32.4467 12.7175 32.4467Z" fill="#68AEFF"/>
<path fill-rule="evenodd" clip-rule="evenodd" d="M10.3627 21.7626L57.9611 60.4905L57.4084 61.1359L10.3627 21.7626Z" fill="#68AEFF"/>
<path d="M45.6331 37.6314H82.7382L64.1137 52.5269L45.6331 37.6314Z" fill="url(#paint1_linear)"/>
<path d="M82.7382 37.6455H45.6331L64.2576 22.75L82.7382 37.6455Z" fill="url(#paint2_linear)"/>
<path d="M78.4281 61.0773L49.7376 61.0316L49.7958 25.8136L78.4865 25.8594L78.4281 61.0773Z" fill="#FAFCFF"/>
<path d="M58.8784 30.9667L69.3451 30.9759L69.3456 30.4719L58.8789 30.4626" fill="#51A0FD"/>
<path d="M53.6677 34.2367L62.3056 34.2505L62.3065 33.7463L53.6687 33.7326" fill="#51A0FD"/>
<path d="M63.4247 34.2522L71.5107 34.2651L71.5116 33.7611L63.4254 33.7481" fill="#51A0FD"/>
<path d="M72.3226 34.2665L74.8178 34.2704L74.8188 33.7664L72.3236 33.7622" fill="#51A0FD"/>
<path d="M53.6638 36.6961L61.9526 36.7093L61.9533 36.205L53.6647 36.1918" fill="#51A0FD"/>
<path d="M63.1425 36.7111L65.466 36.7148L65.4669 36.2107L63.1434 36.207" fill="#51A0FD"/>
<path d="M64.3891 36.7131L74.8138 36.7296L74.8148 36.2255L64.39 36.2089" fill="#51A0FD"/>
<path d="M53.6597 39.1552L59.9251 39.1652L59.9261 38.6611L53.6604 38.6512" fill="#51A0FD"/>
<path d="M66.5163 39.1758L74.8098 39.189L74.8105 38.685L66.5172 38.6715" fill="#51A0FD"/>
<path d="M53.6555 41.6144L57.0451 41.6199L57.0458 41.1159L53.6564 41.1103" fill="#51A0FD"/>
<path d="M64.6783 41.632L74.8058 41.6481L74.8065 41.1441L64.679 41.1279" fill="#51A0FD"/>
<path d="M53.6515 44.0738L59.9169 44.0837L59.9179 43.5797L53.6525 43.5697" fill="#51A0FD"/>
<path d="M61.0235 44.0855L68.0347 44.0966L68.0356 43.5926L61.0244 43.5813" fill="#51A0FD"/>
<path d="M66.5081 44.0943L74.8016 44.1075L74.8025 43.6032L66.509 43.59" fill="#51A0FD"/>
<path d="M64.1137 52.5269L45.6331 37.6314V61.2327H82.7382V37.6314L64.1137 52.5269Z" fill="url(#paint3_linear)"/>
<path d="M82.7382 61.2465H45.6331L64.2576 46.3508L82.7382 61.2465Z" fill="url(#paint4_linear)"/>
<defs>
<linearGradient id="paint0_linear" x1="0.818176" y1="32.8827" x2="39.989" y2="66.425" gradientUnits="userSpaceOnUse">
<stop stop-color="#64ABFF"/>
<stop offset="1" stop-color="#3F7ABF"/>
</linearGradient>
<linearGradient id="paint1_linear" x1="61.4708" y1="36.0032" x2="64.3874" y2="61.4181" gradientUnits="userSpaceOnUse">
<stop stop-color="#64ABFF"/>
<stop offset="0.20998" stop-color="#4285F4"/>
<stop offset="1" stop-color="#376BA8"/>
</linearGradient>
<linearGradient id="paint2_linear" x1="61.4708" y1="21.1217" x2="64.3874" y2="46.5367" gradientUnits="userSpaceOnUse">
<stop stop-color="#B3D2F7"/>
<stop offset="0.20998" stop-color="#B3D2F7"/>
<stop offset="1" stop-color="#C5E0FF"/>
</linearGradient>
<linearGradient id="paint3_linear" x1="61.4708" y1="35.0516" x2="68.652" y2="74.5449" gradientUnits="userSpaceOnUse">
<stop stop-color="#B3D2F7"/>
<stop offset="0.20998" stop-color="#B3D2F7"/>
<stop offset="1" stop-color="#C5E0FF"/>
</linearGradient>
<linearGradient id="paint4_linear" x1="61.4708" y1="44.7226" x2="64.3875" y2="70.1378" gradientUnits="userSpaceOnUse">
<stop stop-color="#A9D1FF"/>
<stop offset="0.20998" stop-color="#7CA7D9"/>
<stop offset="1" stop-color="#97C6FF"/>
</linearGradient>
</defs>
</svg>
