<svg width="216" height="216" viewBox="0 0 216 216" fill="none" xmlns="http://www.w3.org/2000/svg">
<circle cx="108" cy="108" r="106" fill="white" stroke="#675AF6" stroke-width="4"/>
<path d="M79.8149 157.718L66.9297 169.469L78.4132 58.5999L91.2984 46.8496L79.8149 157.718Z" fill="#C6C2F9"/>
<path d="M80.8644 59.7936L88.0382 53.252L77.3417 156.519L70.168 163.06L80.8644 59.7936Z" fill="#B9B3F9"/>
<path d="M90.4219 47.6328L78.3982 58.5973L67.7852 161.062C70.7015 158.514 72.5162 155.827 72.5162 155.827C72.5162 155.827 80.7741 80.0925 81.9636 67.4205C82.7302 59.2541 87.2816 51.8597 90.4219 47.6328Z" fill="#B9B3F9"/>
<path d="M72.5478 155.83C72.5478 155.83 80.8059 80.095 81.9954 67.4229C82.3996 63.1162 83.8568 59.0249 85.6042 55.499L80.8922 59.796L70.7031 158.165C71.8792 156.819 72.5478 155.83 72.5478 155.83Z" fill="#C6C2F9"/>
<path d="M118.98 49.8055C115.952 50.4856 112.8 50.8454 109.561 50.8454C103.115 50.8454 97.0084 49.4203 91.5515 46.8768L91.2959 46.8496L79.8125 157.718L131.014 160.733L119.53 49.8643L118.98 49.8055Z" fill="#C6C2F9"/>
<path d="M88.0506 142.654C88.0506 142.654 91.5838 101.295 94.7936 74.2591C96.7027 58.1782 101.256 52.5129 104.633 50.5621C100.001 50.0307 95.5998 48.7619 91.5555 46.8768L91.3 46.8496L81.2031 144.33C85.2926 143.637 88.0506 142.654 88.0506 142.654Z" fill="#B9B3F9"/>
<path d="M129.158 142.738L119.538 49.8644L118.987 49.8057C116.809 50.295 114.566 50.6153 112.273 50.7584C112.672 60.209 115.315 125.97 111.851 131.564C108.118 137.592 82.957 143.324 82.957 143.324L129.158 142.738Z" fill="#C6C2F9"/>
<path d="M109.415 54.2603C103.385 54.2603 97.6629 52.9498 92.5261 50.6084C92.1526 51.764 91.9253 52.9598 91.7617 54.1685C97.2511 56.5387 103.235 57.7853 109.415 57.7853C112.558 57.7853 115.651 57.46 118.653 56.8314C118.366 55.6779 118.127 54.5178 117.991 53.3547C115.227 53.9458 112.358 54.2603 109.415 54.2603Z" fill="#B9B3F9"/>
<path d="M119.614 60.4042C116.319 61.1137 112.899 61.4911 109.39 61.4911C102.989 61.4911 96.8796 60.243 91.3004 57.9873C91.1341 59.191 90.9189 60.3903 90.7305 61.5914C96.5971 63.8387 102.901 65.016 109.39 65.016C113.176 65.016 116.898 64.6148 120.507 63.8354C120.454 63.6077 120.405 63.3785 120.35 63.1513C120.133 62.2437 119.877 61.3274 119.614 60.4042Z" fill="#B9B3F9"/>
<path d="M121.3 67.4546C117.47 68.2854 113.491 68.7272 109.409 68.7272C102.708 68.7272 96.2841 67.5446 90.3417 65.3848C90.2943 66.6442 90.3207 67.9026 90.3615 69.1608C96.4105 71.1917 102.826 72.2523 109.409 72.2523C113.68 72.2523 117.88 71.8046 121.956 70.9375C121.931 70.7793 121.903 70.621 121.875 70.4626C121.691 69.4614 121.499 68.4576 121.3 67.4546Z" fill="#B9B3F9"/>
<path d="M122.307 74.6463C118.144 75.507 113.83 75.9609 109.41 75.9609C102.805 75.9609 96.4375 74.9491 90.4595 73.0771C90.4597 73.291 90.4614 73.5047 90.4586 73.7185C90.4448 74.7287 90.3743 75.729 90.2617 76.723C96.4363 78.5579 102.851 79.4859 109.41 79.4859C113.843 79.4859 118.211 79.0622 122.483 78.221C122.479 78.1553 122.474 78.0895 122.47 78.0238C122.397 76.8909 122.363 75.7672 122.307 74.6463Z" fill="#B9B3F9"/>
<path d="M109.402 83.1949C102.549 83.1949 95.9237 82.2214 89.6627 80.4092C89.4931 81.2546 89.3053 82.0983 89.1066 82.9427C89.0339 83.2516 88.9587 83.5619 88.8828 83.8735C95.5106 85.7642 102.382 86.7199 109.402 86.7199C114.126 86.7199 118.783 86.2865 123.344 85.4275C123.19 84.2573 123.019 83.0878 122.865 81.9169C118.508 82.7547 114.007 83.1949 109.402 83.1949Z" fill="#B9B3F9"/>
<path d="M109.401 90.4252C102.004 90.4252 94.8472 89.3994 88.0705 87.4873C87.8876 88.5013 87.7613 89.5204 87.7475 90.5387C87.7449 90.7184 87.7462 90.8982 87.7496 91.0781C94.7557 92.9861 102.003 93.9503 109.401 93.9503C114.27 93.9503 119.073 93.5319 123.785 92.7029C123.846 91.5025 123.817 90.3079 123.734 89.1168C119.089 89.9751 114.297 90.4252 109.401 90.4252Z" fill="#B9B3F9"/>
<path d="M123.308 97.2138C123.325 96.9847 123.348 96.7559 123.372 96.5275C118.824 97.2716 114.154 97.6593 109.394 97.6593C102.014 97.6593 94.8532 96.7273 88.0256 94.9795C88.1102 96.0995 88.1484 97.2187 88.0118 98.3345C88.0001 98.4305 87.9883 98.526 87.9766 98.6218C94.933 100.324 102.096 101.184 109.394 101.184C114.144 101.184 118.838 100.82 123.454 100.096C123.297 99.1442 123.235 98.1787 123.308 97.2138Z" fill="#B9B3F9"/>
<path d="M109.396 104.892C101.814 104.892 94.4447 103.988 87.3927 102.285C87.3781 102.349 87.3648 102.413 87.3496 102.478C87.0923 103.563 86.8006 104.642 86.5703 105.734C93.9884 107.517 101.622 108.417 109.396 108.417C114.793 108.417 120.122 107.982 125.359 107.12C125.149 105.942 124.784 104.819 124.418 103.69C119.528 104.48 114.511 104.892 109.396 104.892Z" fill="#B9B3F9"/>
<path d="M152.855 143.087L144.605 116.265C144.605 116.265 143.913 114.979 143.476 114.587C142.671 113.865 141.729 113.589 140.601 113.321C131.003 111.047 120.765 109.817 110.135 109.817C109.614 109.817 109.094 109.822 108.574 109.828C108.055 109.822 107.534 109.817 107.013 109.817C95.7569 109.817 84.9399 111.196 74.8581 113.734C74.2992 113.875 73.912 114.022 73.5107 114.382C73.2221 114.641 72.7617 115.555 72.7617 115.555L64.293 143.087L108.574 140.27L152.855 143.087Z" fill="#C6C2F9"/>
<path opacity="0.3" d="M121.863 141.117L151.297 142.99L143.278 116.919C143.278 116.919 142.585 115.632 142.149 115.241C141.344 114.519 140.402 114.243 139.273 113.975C138.044 113.684 136.804 113.411 135.554 113.155C135.843 120.754 134.907 135.397 124.088 140.106C123.394 140.489 122.653 140.828 121.863 141.117Z" fill="#8279F8"/>
<path d="M129.822 114.851C123.402 114.073 116.855 113.67 110.207 113.67C109.414 113.67 108.624 113.678 107.834 113.69C107.044 113.678 106.254 113.67 105.461 113.67C94.069 113.67 82.9735 114.849 72.306 117.082L70.7422 122.165C81.8877 119.716 93.5115 118.418 105.461 118.418C106.254 118.418 107.044 118.426 107.834 118.438C108.624 118.426 109.414 118.418 110.207 118.418C117.128 118.418 123.939 118.856 130.612 119.698L129.822 114.851Z" fill="#B9B3F9"/>
<path d="M70.7422 122.164C75.1192 121.202 79.5708 120.42 84.0858 119.822C86.966 117.58 90.2826 115.58 94.0792 114.066C86.6588 114.583 79.3878 115.598 72.306 117.08L70.7422 122.164Z" fill="#B9B3F9"/>
<path d="M104.682 114.399C105.475 114.399 106.265 114.407 107.055 114.419C107.844 114.407 108.635 114.399 109.428 114.399C116.076 114.399 122.623 114.802 129.043 115.58L129.695 119.586C130.002 119.622 130.309 119.659 130.614 119.698L129.825 114.851C123.405 114.073 116.858 113.67 110.21 113.67C109.417 113.67 108.626 113.678 107.837 113.69C107.047 113.678 106.257 113.67 105.463 113.67C94.0715 113.67 82.9759 114.849 72.3083 117.082L72.1211 117.69C82.6065 115.538 93.501 114.399 104.682 114.399Z" fill="#9D95F8"/>
<path d="M131.404 124.544C124.48 123.635 117.404 123.164 110.21 123.164C109.417 123.164 108.627 123.172 107.837 123.184C107.048 123.172 106.257 123.164 105.464 123.164C92.9525 123.164 80.7983 124.587 69.1762 127.264L67.6016 132.384C79.6986 129.466 92.3863 127.912 105.464 127.912C106.257 127.912 107.048 127.921 107.837 127.932C108.627 127.921 109.417 127.912 110.21 127.912C117.678 127.912 125.019 128.42 132.195 129.398L131.404 124.544Z" fill="#B9B3F9"/>
<path d="M67.6133 132.384C69.6336 131.897 71.6708 131.449 73.723 131.039C74.954 129.228 76.3925 127.343 78.0568 125.485C75.0688 125.997 72.1115 126.591 69.1881 127.265L67.6133 132.384Z" fill="#B9B3F9"/>
<path d="M104.573 123.824C105.366 123.824 106.156 123.832 106.946 123.844C107.735 123.832 108.526 123.824 109.319 123.824C116.513 123.824 123.589 124.295 130.513 125.204L131.174 129.264C131.514 129.308 131.853 129.352 132.191 129.398L131.401 124.544C124.476 123.635 117.4 123.164 110.206 123.164C109.413 123.164 108.623 123.172 107.833 123.184C107.043 123.172 106.253 123.164 105.46 123.164C92.9484 123.164 80.7941 124.587 69.172 127.264L69.0195 127.76C80.4192 125.19 92.324 123.824 104.573 123.824Z" fill="#9D95F8"/>
<path d="M142.471 121.36L135.191 119.697L137.958 142.138L146.735 142.697L142.471 121.36Z" fill="#B9B3F9"/>
<path d="M140.835 123.014L144.743 142.57L146.735 142.697L142.471 121.36L135.191 119.697L135.448 121.783L140.835 123.014Z" fill="#9D95F8"/>
<path d="M157.458 144.825L115.043 138.484V137.894H111.092L109.341 137.632V137.894H108.484V137.632L60.3668 144.825L54.9687 170.149H106.734H108.484H109.341H115.043H162.856L157.458 144.825Z" fill="#C6C2F9"/>
<path d="M67.9974 150.885C65.2263 150.138 62.1616 150.16 59.1315 150.618L54.9688 170.148H82.6102C66.7034 164.104 67.9974 150.885 67.9974 150.885Z" fill="#9D95F8"/>
<path d="M162.848 170.15L157.45 144.825L116.582 138.716C109.793 139.858 104.104 141.754 100.578 144.725L101.337 144.626C101.337 144.626 147.787 146.721 147.477 170.15H162.848Z" fill="#9D95F8"/>
<path d="M116.101 147.402L159.35 153.084L157.709 145.385L115.479 139.072V138.441H111.254L109.382 138.161V138.441H108.467V138.161L60.1422 145.385L58.5273 152.96L100.833 147.402C100.833 147.402 105.474 147.011 108.378 147.149V147.158C108.407 147.156 108.437 147.155 108.467 147.153C108.496 147.155 108.527 147.156 108.556 147.158V147.149C111.46 147.011 116.101 147.402 116.101 147.402Z" fill="#B9B3F9"/>
<path d="M115.631 146.275L158.988 151.971L157.465 144.825L115.049 138.484V137.894H111.098L109.347 137.632V137.894H108.491V137.632L60.3735 144.825L58.875 151.855L101.352 146.275C101.352 146.275 105.692 145.909 108.408 146.038V146.046C108.435 146.044 108.464 146.043 108.491 146.041C108.519 146.043 108.547 146.044 108.575 146.046V146.038C111.29 145.909 115.631 146.275 115.631 146.275Z" fill="#9D95F8"/>
<path d="M161.698 140.349C161.698 140.349 138.429 136.122 126.535 133.839C135.602 136.853 144.243 141.559 147.998 148.877L163.295 150.886L161.698 140.349Z" fill="#9D95F8"/>
<path d="M159.35 142.219C155.304 141.482 145.32 139.66 136.301 137.98C140.432 140.222 144.02 142.989 146.482 146.404L160.259 148.214L159.35 142.219Z" fill="#B9B3F9"/>
<path d="M161.38 163.155L115.161 159.038L114.984 159.028C114.803 159.022 110.512 158.887 107.726 158.937L107.716 158.937L107.705 158.937C104.921 158.887 100.629 159.022 100.447 159.028L100.351 159.031L56.4343 163.337L55.3047 168.638L100.8 165.015C101.169 165.004 102.573 164.963 104.15 164.938L107.716 164.932L111.282 164.938C112.869 164.963 114.282 165.004 114.639 165.015L162.551 168.652L161.38 163.155Z" fill="#B9B3F9"/>
<path d="M71.336 161.876L56.4343 163.337L55.6048 167.23L55.3047 168.638L76.48 166.952C74.2208 165.371 72.558 163.622 71.336 161.876Z" fill="#B9B3F9"/>
<path d="M161.382 163.157L145.266 161.721C146.303 163.465 147.021 165.384 147.331 167.498L162.554 168.653L161.382 163.157Z" fill="#B9B3F9"/>
<path d="M160.805 160.447L159.697 155.249L116.167 149.53L115.981 149.51C115.795 149.494 111.45 149.132 108.502 149.258C105.554 149.132 101.208 149.494 101.023 149.51L100.929 149.518L58.1868 155.133L57.082 160.317L101.793 155.468C102.436 155.415 103.653 155.331 104.947 155.277L108.506 155.263L112.068 155.277C113.357 155.331 114.57 155.416 115.211 155.468L160.805 160.447Z" fill="#B9B3F9"/>
<path d="M58.1868 155.131L58.1295 155.4L57.082 160.314L69.6609 158.95C68.7762 157.022 68.351 155.226 68.153 153.821L58.1868 155.131Z" fill="#B9B3F9"/>
<path d="M159.68 155.247L132.93 151.733C136.748 153.51 140.204 155.724 142.79 158.48L160.788 160.446L159.68 155.247Z" fill="#B9B3F9"/>
<path d="M78.0576 138.469C69.7998 140 61.298 141.552 57.6429 142.218L56.7344 148.213L68.6129 146.652C69.8116 144.421 72.4128 141.368 78.0576 138.469Z" fill="#B9B3F9"/>
<path d="M56.4414 163.956L100.358 159.65L100.454 159.647C100.636 159.641 104.928 159.506 107.712 159.556L107.723 159.556L107.734 159.556C110.519 159.506 114.81 159.641 114.991 159.647L115.168 159.657L161.387 163.774V163.155L115.168 159.038L114.991 159.028C114.81 159.022 110.519 158.887 107.734 158.937L107.723 158.937L107.712 158.937C104.928 158.887 100.636 159.022 100.454 159.028L100.358 159.031L56.4414 163.337V163.956Z" fill="#9D95F8"/>
<path d="M58.1797 155.92L100.922 150.305L101.016 150.298C101.201 150.282 105.547 149.92 108.495 150.046C111.443 149.92 115.788 150.282 115.974 150.298L116.16 150.318L159.69 156.036V155.248L116.16 149.53L115.974 149.51C115.788 149.494 111.443 149.132 108.495 149.258C105.547 149.132 101.201 149.494 101.016 149.51L100.922 149.518L58.1797 155.133V155.92Z" fill="#9D95F8"/>
<path opacity="0.3" d="M109.856 111.141C110.377 111.141 110.897 111.145 111.417 111.151C111.936 111.145 112.456 111.141 112.978 111.141C123.608 111.141 133.846 112.37 143.443 114.644C143.49 114.656 143.537 114.667 143.583 114.678C143.552 114.644 143.521 114.613 143.492 114.587C142.687 113.865 141.745 113.589 140.616 113.321C131.019 111.047 120.781 109.817 110.151 109.817C109.629 109.817 109.109 109.822 108.59 109.828C108.07 109.822 107.55 109.817 107.029 109.817C95.7725 109.817 84.9556 111.196 74.8737 113.734C74.3149 113.875 73.9277 114.022 73.5263 114.382C73.2377 114.641 72.7774 115.555 72.7774 115.555L64.3086 143.087L67.6072 142.878C67.6072 142.878 77.8599 111.141 109.856 111.141Z" fill="#9D95F8"/>
<path d="M161.702 140.348C161.702 140.348 129.76 134.545 121.595 132.865C114.287 131.362 108.553 130.735 108.499 130.735C108.446 130.735 102.711 131.362 95.4028 132.865C87.238 134.545 55.2962 140.348 55.2962 140.348L53.6992 150.885L101.36 144.624C101.36 144.624 105.7 144.258 108.416 144.387V144.395C108.443 144.394 108.472 144.392 108.499 144.391C108.527 144.392 108.555 144.394 108.582 144.395V144.387C111.298 144.258 115.639 144.624 115.639 144.624L163.299 150.885L161.702 140.348Z" fill="#8279F8"/>
<path d="M115.959 142.394L115.889 142.389C115.756 142.377 112.593 142.113 109.887 142.113C109.382 142.113 108.916 142.122 108.501 142.141H108.49C108.074 142.122 107.608 142.113 107.104 142.113C104.398 142.113 101.234 142.377 101.101 142.389L101.031 142.394L56.7344 148.214L57.6429 142.219C64.5735 140.957 88.9283 136.509 96.0063 135.053C102.239 133.771 107.292 133.143 108.495 133.003C109.698 133.143 114.752 133.771 120.984 135.053C128.062 136.509 152.417 140.957 159.347 142.219L160.256 148.214L115.959 142.394Z" fill="#B9B3F9"/>
<path opacity="0.2" d="M161.702 140.348C161.702 140.348 129.76 134.545 121.595 132.865C114.287 131.362 108.553 130.735 108.499 130.735C108.446 130.735 102.711 131.362 95.4028 132.865C94.8414 132.981 55.2962 140.348 55.2962 140.348L55.0633 141.885L53.6992 150.885L67.7069 149.045C68.2133 146.657 70.9636 140.129 85.7984 135.319C89.8947 134.547 93.3792 133.877 95.4028 133.461C102.711 131.958 108.446 131.331 108.499 131.331C108.553 131.331 114.287 131.958 121.595 133.461C129.76 135.141 161.702 140.944 161.702 140.944L163.207 150.873L163.299 150.885L161.702 140.348Z" fill="#4F44D0"/>
<path d="M79.2743 55.2329H59.8633C58.3603 55.2329 57.125 54.1069 57.125 52.721C57.125 51.3351 58.3603 50.2051 59.8633 50.2051L79.2743 50.2051C85.0886 50.2051 89.8034 54.5282 89.8034 59.8434C89.8034 62.6664 88.461 65.202 86.3321 66.9541C88.461 68.7298 89.8034 71.2693 89.8034 74.0844C89.8034 79.4036 85.0845 83.7149 79.2743 83.7149H59.8633C58.3603 83.7149 57.125 82.6006 57.125 81.2029C57.125 79.817 58.3603 78.6949 59.8633 78.6949H79.2743C82.0538 78.6949 84.3144 76.616 84.3144 74.0844C84.3144 71.5528 82.0538 69.4739 79.2743 69.4739H59.8633C58.3603 69.4739 57.125 68.3479 57.125 66.9541C57.125 65.5642 58.3603 64.4421 59.8633 64.4421H79.2784C82.0579 64.4421 84.3186 62.3869 84.3186 59.8434C84.3144 57.3 82.0538 55.2329 79.2743 55.2329ZM137.717 55.2329H157.137C158.644 55.2329 159.875 54.1069 159.875 52.721C159.875 51.3351 158.648 50.2051 157.137 50.2051H137.717C131.916 50.2051 127.192 54.5282 127.192 59.8434C127.192 62.6664 128.531 65.202 130.664 66.9541C128.527 68.7298 127.192 71.2693 127.192 74.0844C127.192 79.4036 131.916 83.7149 137.717 83.7149H157.137C158.644 83.7149 159.875 82.6006 159.875 81.2029C159.875 79.817 158.648 78.6949 157.137 78.6949H137.717C134.946 78.6949 132.681 76.616 132.681 74.0844C132.681 71.5528 134.942 69.4739 137.717 69.4739H157.137C158.644 69.4739 159.875 68.3479 159.875 66.9541C159.875 65.5642 158.648 64.4421 157.137 64.4421H137.717C134.946 64.4421 132.681 62.3869 132.681 59.8434C132.686 57.3 134.946 55.2329 137.717 55.2329ZM102.947 55.2329L122.366 55.2329C123.898 55.2329 125.125 54.1069 125.125 52.721C125.125 51.3272 123.902 50.2012 122.366 50.2012H102.947C97.1618 50.2012 92.4346 54.5321 92.4346 59.8474C92.4346 65.1548 97.1618 69.4778 102.947 69.4778L114.596 69.4778C117.363 69.4778 119.632 71.5528 119.632 74.0883C119.632 76.6278 117.368 78.6988 114.596 78.6988L95.177 78.6988C93.67 78.6988 92.4346 79.8209 92.4346 81.2068C92.4346 82.6046 93.67 83.7188 95.177 83.7188H114.596C120.39 83.7188 125.121 79.4115 125.121 74.0883C125.121 68.7691 120.39 64.4461 114.596 64.4461L102.947 64.4461C100.176 64.4461 97.9195 62.3908 97.9195 59.8474C97.9195 57.3 100.176 55.2329 102.947 55.2329Z" fill="#675AF6"/>
</svg>
