<svg width="321" height="299" viewBox="0 0 321 299" fill="none" xmlns="http://www.w3.org/2000/svg">
<g clip-path="url(#clip0)">
<rect x="0.949219" y="0.210938" width="320" height="298" rx="10" fill="white"/>
<path d="M112 197.837V176.359C106.506 166.869 103.509 156.38 102.01 146.89C98.5136 146.39 94.5176 141.895 89.5226 125.412C83.0296 102.935 90.0226 99.4378 95.5166 99.9378C91.5206 87.9498 91.0216 76.4618 94.0186 65.4728C97.0156 52.4868 104.008 42.4968 111.501 34.5048C116.496 29.5098 121.99 24.5158 127.984 21.0188C132.979 17.5228 137.973 15.0248 143.967 13.0268C148.463 11.5288 153.457 10.5298 158.452 10.5298C173.936 9.03179 185.924 13.0268 194.415 18.0218C207.402 25.0148 211.897 34.5048 211.897 34.5048C211.897 34.5048 243.864 37.0028 229.879 103.934C234.374 105.432 237.371 111.426 232.376 128.908C226.382 150.885 220.388 151.884 217.392 149.387C215.893 156.879 213.895 165.37 209.899 172.863C209.899 183.851 209.899 193.841 209.899 197.837C209.899 198.836 210.399 199.835 211.398 200.334C218.391 203.831 250.857 219.814 283.823 244.789C299.307 256.277 308.797 274.758 308.797 294.238V311.22C308.797 316.215 304.802 320.211 299.807 320.211H22.0926C17.0976 320.211 13.1016 316.215 13.1016 311.22V294.238C13.1016 274.758 22.0926 256.277 38.0756 244.789C71.0416 219.814 103.509 203.831 110.502 200.334C111.501 199.835 112 198.836 112 197.837Z" fill="#EFEEFB"/>
</g>
<defs>
<clipPath id="clip0">
<rect x="0.949219" y="0.210938" width="320" height="298" rx="10" fill="white"/>
</clipPath>
</defs>
</svg>
