<svg width="24" height="24" viewBox="0 0 24 24" fill="none" xmlns="http://www.w3.org/2000/svg">
<path d="M23.3661 23.366C23.315 23.4172 23.2055 23.4948 23.046 23.44L17.5416 21.5486C17.4602 21.5207 17.3755 21.5068 17.2911 21.5068C17.1667 21.5068 17.0429 21.5369 16.9307 21.5963C15.3399 22.4379 13.5422 22.8842 11.732 22.887C5.66112 22.8968 0.639259 17.9658 0.543079 11.8958C0.494685 8.8419 1.65636 5.97169 3.8141 3.81394C5.97185 1.65625 8.84119 0.494781 11.896 0.543074C17.9659 0.639304 22.8965 5.65867 22.887 11.732C22.8842 13.5423 22.4379 15.3399 21.5963 16.9306C21.4967 17.1189 21.4795 17.3401 21.5487 17.5415L23.4401 23.0459C23.4949 23.2053 23.4173 23.315 23.3661 23.366Z" fill="#DBEBFF"/>
</svg>
