<svg width="360" height="317" viewBox="0 0 360 317" fill="none" xmlns="http://www.w3.org/2000/svg">
<path d="M236 177.748C297.102 180.13 351.368 261.159 360 302.514L0 305V0C19 0 81.4875 2.0199 106 55.5464C124.5 95.9437 174.898 175.366 236 177.748Z" fill="#F1F8FF"/>
<path d="M358 302C358 310.284 277.859 317 179 317C80.141 317 0 310.284 0 302C0 302 80.141 302 179 302C277.859 302 358 302 358 302Z" fill="url(#paint0_linear)"/>
<path fill-rule="evenodd" clip-rule="evenodd" d="M116.482 274.926C114.982 271.984 114.068 269.12 114.557 265.856C114.943 263.281 116.541 261.079 117.873 258.838C119.788 255.615 121.256 251.946 120.932 248.215C120.609 244.485 118.087 240.76 114.405 239.99C112.899 239.675 111.234 239.831 109.93 239.017C108.98 238.424 108.388 237.408 107.908 236.399C106.58 233.608 105.815 230.58 104.505 227.781C103.194 224.982 101.178 222.309 98.2792 221.21C95.3801 220.111 91.5353 221.16 90.3658 224.02C89.8338 225.321 89.9015 226.774 89.776 228.173C89.6505 229.572 89.2399 231.081 88.085 231.888C86.8937 232.72 85.2742 232.563 83.9217 233.097C81.8566 233.915 80.7307 236.357 81.0552 238.545C81.3794 240.733 82.9213 242.607 84.8076 243.776C86.6943 244.944 88.9012 245.491 91.0946 245.844C92.4415 246.061 93.9378 246.286 94.7965 247.341C96.0007 248.82 95.2763 251.032 94.3016 252.67C93.327 254.308 92.0945 256.058 92.4441 257.929C92.7639 259.64 94.3447 260.845 95.9678 261.493C97.5909 262.14 99.3577 262.404 100.936 263.153C102.944 264.107 104.56 265.854 105.35 267.925C106.028 269.702 106.138 271.729 107.254 273.272C108.26 274.663 109.916 275.418 111.522 276.039C112.432 276.39 113.389 276.723 114.361 276.627C115.332 276.531 116.317 275.883 116.482 274.926Z" fill="#A3CDFF"/>
<path fill-rule="evenodd" clip-rule="evenodd" d="M110.362 274.475C109.879 272.249 109.369 270.029 108.782 267.83C108.212 265.627 107.588 263.438 106.902 261.269C105.538 256.929 103.985 252.648 102.182 248.472C100.419 244.281 98.4113 240.185 95.9352 236.374C94.7001 234.468 93.3348 232.644 91.8147 230.952C90.3078 229.248 88.6287 227.693 86.8066 226.314C88.701 227.596 90.4266 229.12 92.0087 230.775C93.5794 232.443 94.9929 234.254 96.2799 236.147C97.5738 238.038 98.706 240.032 99.7624 242.059C100.814 244.09 101.775 246.165 102.676 248.263C104.445 252.473 106.011 256.771 107.296 261.15C107.936 263.341 108.518 265.547 109.037 267.768C109.538 269.992 109.997 272.226 110.362 274.475Z" fill="#7F66BF" fill-opacity="0.74"/>
<path fill-rule="evenodd" clip-rule="evenodd" d="M109.915 265.095C109.928 262.817 109.913 260.54 109.819 258.267C109.742 255.993 109.608 253.721 109.411 251.456C109.023 246.925 108.439 242.411 107.587 237.945C106.777 233.475 105.708 229.043 104.12 224.788C103.329 222.662 102.393 220.586 101.277 218.607C100.176 216.618 98.8751 214.739 97.3965 213C98.9669 214.659 100.32 216.52 101.505 218.476C102.675 220.442 103.661 222.516 104.506 224.641C105.358 226.766 106.029 228.957 106.619 231.163C107.205 233.373 107.691 235.606 108.114 237.848C108.925 242.34 109.52 246.872 109.821 251.425C109.969 253.701 110.058 255.981 110.081 258.261C110.087 260.541 110.049 262.82 109.915 265.095Z" fill="#7F66BF" fill-opacity="0.74"/>
<path fill-rule="evenodd" clip-rule="evenodd" d="M204.628 224.416C204.628 224.416 192.709 216.337 196.178 207.563C199.643 198.785 209.986 201.532 209.79 194.104C209.594 186.675 204.604 174.31 212.698 167.306C220.793 160.304 231.116 167.086 234.668 154.693C237.53 144.707 243.459 138.301 252.214 141.966C260.315 145.36 265.493 152.962 263.003 168.523C260.356 185.093 272.795 182.426 270.862 194.637C268.919 206.934 259.144 205.269 253.922 212.852C251.458 216.435 253.833 230.9 239.62 230.376L204.628 224.416Z" fill="#A3CDFF"/>
<path fill-rule="evenodd" clip-rule="evenodd" d="M249.673 148.344C249.671 148.344 249.658 148.627 249.614 149.177C249.483 150.829 249.102 154.849 248.162 160.378C245.411 176.556 237.824 205.672 217.703 226.515C217.671 226.549 217.638 226.589 217.614 226.628L219.299 226.915C239.323 205.752 246.813 176.785 249.573 160.617C250.839 153.176 251.098 148.444 251.101 148.42C251.122 148.026 250.822 147.689 250.426 147.667C250.032 147.645 249.694 147.95 249.673 148.344Z" fill="white"/>
<path fill-rule="evenodd" clip-rule="evenodd" d="M217.014 234.703C217.014 234.703 220.035 215.482 228.438 212.206C236.84 208.93 245.235 206.699 245.644 199.186C246.053 191.672 249.614 183.327 261.859 185.245C269.427 186.433 267.947 177.988 275.892 177.708C280.719 177.538 282.965 182.929 282.748 187.811C282.498 193.37 278.506 198.198 281.285 203.234C284.894 209.762 284.931 220.792 274.553 222.164C264.173 223.533 272.033 235.61 258.37 234.703L253.582 234.522L217.014 234.703Z" fill="#CCE3FF"/>
<path fill-rule="evenodd" clip-rule="evenodd" d="M274.471 182.957C272.995 190.068 268.085 199.715 260.998 208.506C253.916 217.308 239.862 229.934 229.762 233.837C229.612 233.893 229.495 233.993 229.414 234.119L231.837 234.531C241.648 230.317 255.274 217.898 262.112 209.407C269.312 200.455 274.312 190.702 275.873 183.249C275.951 182.864 275.705 182.485 275.315 182.405C274.932 182.324 274.549 182.57 274.471 182.957Z" fill="white"/>
<mask id="mask0" mask-type="alpha" maskUnits="userSpaceOnUse" x="106" y="162" width="139" height="145">
<path d="M207.586 306.038H143.388C139.616 306.038 135.99 305.418 132.584 304.271C136.168 300.225 138.345 294.903 138.345 289.074C138.345 276.411 128.08 266.147 115.417 266.147C112.22 266.147 109.175 266.802 106.408 267.986C106.199 264.908 106.3 261.75 106.741 258.553C113.696 208.14 153.176 162.449 153.176 162.449H197.798C197.798 162.449 237.278 208.14 244.232 258.553C245.808 269.962 243.037 280.862 237.393 289.336C230.69 299.4 219.931 306.038 207.586 306.038Z" fill="white"/>
</mask>
<g mask="url(#mask0)">
<path fill-rule="evenodd" clip-rule="evenodd" d="M207.586 306.038H143.388C139.616 306.038 135.99 305.418 132.584 304.271C136.168 300.225 138.345 294.903 138.345 289.074C138.345 276.411 128.08 266.147 115.417 266.147C112.22 266.147 109.175 266.802 106.408 267.986C106.199 264.908 106.3 261.75 106.741 258.553C113.696 208.14 153.176 162.449 153.176 162.449H197.798C197.798 162.449 237.278 208.14 244.232 258.553C245.808 269.962 243.037 280.862 237.393 289.336C230.69 299.4 219.931 306.038 207.586 306.038Z" fill="url(#paint1_linear)"/>
</g>
<mask id="mask1" mask-type="alpha" maskUnits="userSpaceOnUse" x="150" y="155" width="51" height="8">
<path d="M200.245 159.044C200.245 160.911 198.837 162.437 197.156 162.437H153.53C151.847 162.437 150.474 160.911 150.474 159.044C150.474 157.137 151.847 155.613 153.53 155.613H197.156C198.837 155.613 200.245 157.137 200.245 159.044Z" fill="white"/>
</mask>
<g mask="url(#mask1)">
<path fill-rule="evenodd" clip-rule="evenodd" d="M200.245 159.044C200.245 160.911 198.837 162.437 197.156 162.437H153.53C151.847 162.437 150.474 160.911 150.474 159.044C150.474 157.137 151.847 155.613 153.53 155.613H197.156C198.837 155.613 200.245 157.137 200.245 159.044Z" fill="#A3CDFF"/>
</g>
<mask id="mask2" mask-type="alpha" maskUnits="userSpaceOnUse" x="133" y="112" width="25" height="44">
<path d="M157.032 155.613H153.53C151.471 148.789 136.607 135.561 133.519 132.13C130.396 128.661 142.854 122.219 145.84 119.855C147.73 118.368 146.459 115.09 145.257 112.803C148.004 117.492 154.971 131.558 157.032 155.613Z" fill="white"/>
</mask>
<g mask="url(#mask2)">
<path fill-rule="evenodd" clip-rule="evenodd" d="M157.032 155.613H153.53C151.471 148.789 136.607 135.561 133.519 132.13C130.396 128.661 142.854 122.219 145.84 119.855C147.73 118.368 146.459 115.09 145.257 112.803C148.004 117.492 154.971 131.558 157.032 155.613Z" fill="url(#paint2_linear)"/>
</g>
<mask id="mask3" mask-type="alpha" maskUnits="userSpaceOnUse" x="194" y="116" width="23" height="40">
<path d="M197.158 155.613H194.962C195.854 141.47 203.026 120.503 204.469 116.462C204.228 118.101 204.262 119.893 204.743 121.609C206.219 126.869 214.388 124.734 216.516 132.358C218.68 139.983 200.316 143.147 197.158 155.613Z" fill="white"/>
</mask>
<g mask="url(#mask3)">
<path fill-rule="evenodd" clip-rule="evenodd" d="M197.158 155.613H194.962C195.854 141.47 203.026 120.503 204.469 116.462C204.228 118.101 204.262 119.893 204.743 121.609C206.219 126.869 214.388 124.734 216.516 132.358C218.68 139.983 200.316 143.147 197.158 155.613Z" fill="url(#paint3_linear)"/>
</g>
<mask id="mask4" mask-type="alpha" maskUnits="userSpaceOnUse" x="144" y="98" width="63" height="58">
<path d="M206.013 110.935C205.6 111.85 204.81 113.946 204.503 116.386C204.468 116.424 204.468 116.424 204.468 116.462C203.025 120.503 195.853 141.47 194.961 155.613H157.032C154.971 131.558 148.004 117.492 145.257 112.803C145.155 112.612 145.052 112.421 144.948 112.231C144.469 111.43 144.195 111.011 144.195 111.011C143.988 110.706 144.09 110.287 144.399 110.134C148.999 107.961 183.924 84.9362 205.772 110.134C205.963 110.356 206.116 110.63 206.013 110.935Z" fill="white"/>
</mask>
<g mask="url(#mask4)">
<path fill-rule="evenodd" clip-rule="evenodd" d="M206.013 110.935C205.6 111.85 204.81 113.946 204.503 116.386C204.468 116.424 204.468 116.424 204.468 116.462C203.025 120.503 195.853 141.47 194.961 155.613H157.032C154.971 131.558 148.004 117.492 145.257 112.803C145.155 112.612 145.052 112.421 144.948 112.231C144.469 111.43 144.195 111.011 144.195 111.011C143.988 110.706 144.09 110.287 144.399 110.134C148.999 107.961 183.924 84.9362 205.772 110.134C205.963 110.356 206.116 110.63 206.013 110.935Z" fill="url(#paint4_linear)"/>
</g>
<mask id="mask5" mask-type="alpha" maskUnits="userSpaceOnUse" x="174" y="155" width="59" height="83">
<path d="M232.855 234.839C232.676 236.075 231.79 237.09 230.617 237.272C214.036 239.828 211.061 224.215 207.615 206.135C206.658 201.114 205.67 195.922 204.34 190.424C198.491 166.256 176.425 161.459 176.203 161.413C174.773 161.12 173.811 159.572 174.094 158.006C174.358 156.418 175.731 155.368 177.161 155.662C178.202 155.875 202.725 161.214 209.424 188.905C210.791 194.556 211.842 200.064 212.767 204.924C216.515 224.592 218.646 233.213 229.893 231.478C231.331 231.256 232.663 232.373 232.864 233.973C232.901 234.269 232.896 234.56 232.855 234.839Z" fill="white"/>
</mask>
<g mask="url(#mask5)">
<path fill-rule="evenodd" clip-rule="evenodd" d="M232.855 234.839C232.676 236.075 231.79 237.09 230.617 237.272C214.036 239.828 211.061 224.215 207.615 206.135C206.658 201.114 205.67 195.922 204.34 190.424C198.491 166.256 176.425 161.459 176.203 161.413C174.773 161.12 173.811 159.572 174.094 158.006C174.358 156.418 175.731 155.368 177.161 155.662C178.202 155.875 202.725 161.214 209.424 188.905C210.791 194.556 211.842 200.064 212.767 204.924C216.515 224.592 218.646 233.213 229.893 231.478C231.331 231.256 232.663 232.373 232.864 233.973C232.901 234.269 232.896 234.56 232.855 234.839Z" fill="#A3CDFF"/>
</g>
<mask id="mask6" mask-type="alpha" maskUnits="userSpaceOnUse" x="177" y="156" width="32" height="85">
<path d="M208.56 237.555C208.512 237.877 208.416 238.195 208.266 238.498C207.568 239.915 205.966 240.431 204.692 239.653C195.333 233.944 195.766 225.031 199.538 198.945C203.032 174.79 180.334 162.193 179.366 161.669C178.06 160.961 177.518 159.21 178.151 157.762C178.787 156.31 180.358 155.704 181.667 156.407C181.939 156.554 208.856 171.393 204.738 199.872C200.766 227.332 201.728 231.174 207.226 234.528C208.229 235.139 208.732 236.369 208.56 237.555Z" fill="white"/>
</mask>
<g mask="url(#mask6)">
<path fill-rule="evenodd" clip-rule="evenodd" d="M208.56 237.555C208.512 237.877 208.416 238.195 208.266 238.498C207.568 239.915 205.966 240.431 204.692 239.653C195.333 233.944 195.766 225.031 199.538 198.945C203.032 174.79 180.334 162.193 179.366 161.669C178.06 160.961 177.518 159.21 178.151 157.762C178.787 156.31 180.358 155.704 181.667 156.407C181.939 156.554 208.856 171.393 204.738 199.872C200.766 227.332 201.728 231.174 207.226 234.528C208.229 235.139 208.732 236.369 208.56 237.555Z" fill="#A3CDFF"/>
</g>
<mask id="mask7" mask-type="alpha" maskUnits="userSpaceOnUse" x="226" y="215" width="75" height="94">
<path d="M226.758 302.547V220.85C226.758 218.972 227.885 217.302 229.629 216.253C230.837 215.526 232.338 215.097 233.967 215.097H293.145C295.136 215.097 296.939 215.74 298.242 216.782C299.546 217.823 300.354 219.261 300.354 220.85V302.547C300.354 304.077 299.607 305.466 298.388 306.498C297.074 307.608 295.21 308.302 293.145 308.302H233.967C231.975 308.302 230.173 307.658 228.869 306.615C227.563 305.575 226.758 304.136 226.758 302.547Z" fill="white"/>
</mask>
<g mask="url(#mask7)">
<path fill-rule="evenodd" clip-rule="evenodd" d="M226.758 302.547V220.85C226.758 218.972 227.885 217.302 229.629 216.253C230.837 215.526 232.338 215.097 233.967 215.097H293.145C295.136 215.097 296.939 215.74 298.242 216.782C299.546 217.823 300.354 219.261 300.354 220.85V302.547C300.354 304.077 299.607 305.466 298.388 306.498C297.074 307.608 295.21 308.302 293.145 308.302H233.967C231.975 308.302 230.173 307.658 228.869 306.615C227.563 305.575 226.758 304.136 226.758 302.547Z" fill="#81ADE1"/>
</g>
<path fill-rule="evenodd" clip-rule="evenodd" d="M230.344 237.625H295.177V220.45H230.344V237.625Z" fill="white"/>
<path fill-rule="evenodd" clip-rule="evenodd" d="M264.587 254.596H277.276V241.523H264.587V254.596Z" fill="white"/>
<path fill-rule="evenodd" clip-rule="evenodd" d="M281.123 254.596H293.815V241.523H281.123V254.596Z" fill="#94C5FF"/>
<path fill-rule="evenodd" clip-rule="evenodd" d="M231.706 254.596H244.398V241.523H231.706V254.596Z" fill="white"/>
<path fill-rule="evenodd" clip-rule="evenodd" d="M248.243 254.596H260.932V241.523H248.243V254.596Z" fill="white"/>
<path fill-rule="evenodd" clip-rule="evenodd" d="M264.587 270.223H277.276V257.153H264.587V270.223Z" fill="white"/>
<path fill-rule="evenodd" clip-rule="evenodd" d="M281.123 270.223H293.815V257.153H281.123V270.223Z" fill="white"/>
<path fill-rule="evenodd" clip-rule="evenodd" d="M231.706 270.223H244.398V257.153H231.706V270.223Z" fill="white"/>
<path fill-rule="evenodd" clip-rule="evenodd" d="M248.243 270.223H260.932V257.153H248.243V270.223Z" fill="white"/>
<path fill-rule="evenodd" clip-rule="evenodd" d="M264.587 285.853H277.276V272.781H264.587V285.853Z" fill="white"/>
<path fill-rule="evenodd" clip-rule="evenodd" d="M231.706 285.853H244.398V272.781H231.706V285.853Z" fill="white"/>
<path fill-rule="evenodd" clip-rule="evenodd" d="M248.243 285.853H260.932V272.781H248.243V285.853Z" fill="white"/>
<path fill-rule="evenodd" clip-rule="evenodd" d="M264.587 301.481H277.276V288.411H264.587V301.481Z" fill="white"/>
<path fill-rule="evenodd" clip-rule="evenodd" d="M281.123 301.481H293.815V272.781H281.123V301.481Z" fill="#3792FC"/>
<path fill-rule="evenodd" clip-rule="evenodd" d="M231.706 301.481H244.398V288.411H231.706V301.481Z" fill="white"/>
<path fill-rule="evenodd" clip-rule="evenodd" d="M248.243 301.481H260.932V288.411H248.243V301.481Z" fill="white"/>
<mask id="mask8" mask-type="alpha" maskUnits="userSpaceOnUse" x="69" y="298" width="26" height="1">
<path d="M94.6912 298.886H69.6064C70.2921 298.336 71.1649 298.009 72.1138 298.009H94.2973C94.4214 298.305 94.5541 298.597 94.6912 298.886Z" fill="white"/>
</mask>
<g mask="url(#mask8)">
<path fill-rule="evenodd" clip-rule="evenodd" d="M94.6912 298.886H69.6064C70.2921 298.336 71.1649 298.009 72.1138 298.009H94.2973C94.4214 298.305 94.5541 298.597 94.6912 298.886Z" fill="#F7B336"/>
</g>
<mask id="mask9" mask-type="alpha" maskUnits="userSpaceOnUse" x="69" y="305" width="32" height="2">
<path d="M100.033 306.071H72.1146C71.1678 306.071 70.2972 305.745 69.6094 305.198H99.1191C99.4151 305.499 99.7198 305.788 100.033 306.071Z" fill="white"/>
</mask>
<g mask="url(#mask9)">
<path fill-rule="evenodd" clip-rule="evenodd" d="M100.033 306.071H72.1146C71.1678 306.071 70.2972 305.745 69.6094 305.198H99.1191C99.4151 305.499 99.7198 305.788 100.033 306.071Z" fill="#F7B336"/>
</g>
<mask id="mask10" mask-type="alpha" maskUnits="userSpaceOnUse" x="68" y="298" width="32" height="8">
<path d="M99.1187 305.198H69.609C68.6796 304.463 68.0811 303.322 68.0811 302.042C68.0811 300.928 68.5338 299.92 69.2629 299.191C69.3696 299.084 69.4849 298.98 69.6068 298.886H94.6916C95.806 301.237 97.31 303.37 99.1187 305.198Z" fill="white"/>
</mask>
<g mask="url(#mask10)">
<path fill-rule="evenodd" clip-rule="evenodd" d="M99.1187 305.198H69.609C68.6796 304.463 68.0811 303.322 68.0811 302.042C68.0811 300.928 68.5338 299.92 69.2629 299.191C69.3696 299.084 69.4849 298.98 69.6068 298.886H94.6916C95.806 301.237 97.31 303.37 99.1187 305.198Z" fill="#FCCB23"/>
</g>
<mask id="mask11" mask-type="alpha" maskUnits="userSpaceOnUse" x="66" y="289" width="45" height="2">
<path d="M110.901 290.824H66.6104C67.296 290.274 68.1709 289.947 69.1177 289.947H108.392C109.34 289.947 110.213 290.274 110.901 290.824Z" fill="white"/>
</mask>
<g mask="url(#mask11)">
<path fill-rule="evenodd" clip-rule="evenodd" d="M110.901 290.824H66.6104C67.296 290.274 68.1709 289.947 69.1177 289.947H108.392C109.34 289.947 110.213 290.274 110.901 290.824Z" fill="#F7B336"/>
</g>
<mask id="mask12" mask-type="alpha" maskUnits="userSpaceOnUse" x="66" y="297" width="45" height="2">
<path d="M110.892 297.136C110.204 297.685 109.336 298.009 108.391 298.009H69.1173C68.1727 298.009 67.2999 297.683 66.6143 297.136H110.892Z" fill="white"/>
</mask>
<g mask="url(#mask12)">
<path fill-rule="evenodd" clip-rule="evenodd" d="M110.892 297.136C110.204 297.685 109.336 298.009 108.391 298.009H69.1173C68.1727 298.009 67.2999 297.683 66.6143 297.136H110.892Z" fill="#F7B336"/>
</g>
<mask id="mask13" mask-type="alpha" maskUnits="userSpaceOnUse" x="65" y="290" width="48" height="8">
<path d="M112.423 293.978C112.423 295.093 111.972 296.1 111.241 296.827C111.132 296.936 111.014 297.043 110.893 297.136H66.6149C65.6833 296.401 65.0869 295.258 65.0869 293.978C65.0869 292.866 65.5375 291.858 66.2688 291.129C66.3754 291.02 66.4908 290.918 66.6105 290.824H110.901C111.828 291.562 112.423 292.701 112.423 293.978Z" fill="white"/>
</mask>
<g mask="url(#mask13)">
<path fill-rule="evenodd" clip-rule="evenodd" d="M112.423 293.978C112.423 295.093 111.972 296.1 111.241 296.827C111.132 296.936 111.014 297.043 110.893 297.136H66.6149C65.6833 296.401 65.0869 295.258 65.0869 293.978C65.0869 292.866 65.5375 291.858 66.2688 291.129C66.3754 291.02 66.4908 290.918 66.6105 290.824H110.901C111.828 291.562 112.423 292.701 112.423 293.978Z" fill="#FCCB23"/>
</g>
<mask id="mask14" mask-type="alpha" maskUnits="userSpaceOnUse" x="69" y="281" width="45" height="2">
<path d="M113.895 282.762H69.6045C70.2923 282.212 71.1651 281.885 72.1119 281.885H111.388C112.335 281.885 113.207 282.212 113.895 282.762Z" fill="white"/>
</mask>
<g mask="url(#mask14)">
<path fill-rule="evenodd" clip-rule="evenodd" d="M113.895 282.762H69.6045C70.2923 282.212 71.1651 281.885 72.1119 281.885H111.388C112.335 281.885 113.207 282.212 113.895 282.762Z" fill="#F7B336"/>
</g>
<mask id="mask15" mask-type="alpha" maskUnits="userSpaceOnUse" x="69" y="289" width="45" height="1">
<path d="M113.887 289.074C113.199 289.621 112.331 289.947 111.388 289.947H72.1124C71.1678 289.947 70.2972 289.618 69.6094 289.074H113.887Z" fill="white"/>
</mask>
<g mask="url(#mask15)">
<path fill-rule="evenodd" clip-rule="evenodd" d="M113.887 289.074C113.199 289.621 112.331 289.947 111.388 289.947H72.1124C71.1678 289.947 70.2972 289.618 69.6094 289.074H113.887Z" fill="#F7B336"/>
</g>
<mask id="mask16" mask-type="alpha" maskUnits="userSpaceOnUse" x="68" y="282" width="48" height="8">
<path d="M115.417 285.916C115.417 287.031 114.966 288.038 114.235 288.765C114.126 288.874 114.009 288.979 113.887 289.074H69.609C68.6774 288.337 68.0811 287.196 68.0811 285.916C68.0811 284.804 68.5316 283.796 69.2629 283.065C69.3696 282.958 69.4849 282.856 69.6046 282.762H113.895C114.823 283.5 115.417 284.639 115.417 285.916Z" fill="white"/>
</mask>
<g mask="url(#mask16)">
<path fill-rule="evenodd" clip-rule="evenodd" d="M115.417 285.916C115.417 287.031 114.966 288.038 114.235 288.765C114.126 288.874 114.009 288.979 113.887 289.074H69.609C68.6774 288.337 68.0811 287.196 68.0811 285.916C68.0811 284.804 68.5316 283.796 69.2629 283.065C69.3696 282.958 69.4849 282.856 69.6046 282.762H113.895C114.823 283.5 115.417 284.639 115.417 285.916Z" fill="#FCCB23"/>
</g>
<mask id="mask17" mask-type="alpha" maskUnits="userSpaceOnUse" x="66" y="273" width="45" height="2">
<path d="M110.898 274.7H66.6074C67.2952 274.15 68.168 273.821 69.117 273.821H108.391C109.34 273.821 110.213 274.15 110.898 274.7Z" fill="white"/>
</mask>
<g mask="url(#mask17)">
<path fill-rule="evenodd" clip-rule="evenodd" d="M110.898 274.7H66.6074C67.2952 274.15 68.168 273.821 69.117 273.821H108.391C109.34 273.821 110.213 274.15 110.898 274.7Z" fill="#F7B336"/>
</g>
<mask id="mask18" mask-type="alpha" maskUnits="userSpaceOnUse" x="66" y="281" width="45" height="1">
<path d="M110.892 281.01C110.204 281.559 109.336 281.885 108.391 281.885H69.1175C68.1707 281.885 67.3001 281.557 66.6123 281.01H110.892Z" fill="white"/>
</mask>
<g mask="url(#mask18)">
<path fill-rule="evenodd" clip-rule="evenodd" d="M110.892 281.01C110.204 281.559 109.336 281.885 108.391 281.885H69.1175C68.1707 281.885 67.3001 281.557 66.6123 281.01H110.892Z" fill="#F7B336"/>
</g>
<mask id="mask19" mask-type="alpha" maskUnits="userSpaceOnUse" x="65" y="274" width="48" height="8">
<path d="M112.423 277.854C112.423 278.966 111.97 279.974 111.241 280.703C111.132 280.812 111.015 280.917 110.893 281.01H66.6129C65.6835 280.275 65.085 279.134 65.085 277.854C65.085 276.742 65.5377 275.734 66.2668 275.003C66.3735 274.896 66.4888 274.794 66.6085 274.7H110.899C111.826 275.438 112.423 276.577 112.423 277.854Z" fill="white"/>
</mask>
<g mask="url(#mask19)">
<path fill-rule="evenodd" clip-rule="evenodd" d="M112.423 277.854C112.423 278.966 111.97 279.974 111.241 280.703C111.132 280.812 111.015 280.917 110.893 281.01H66.6129C65.6835 280.275 65.085 279.134 65.085 277.854C65.085 276.742 65.5377 275.734 66.2668 275.003C66.3735 274.896 66.4888 274.794 66.6085 274.7H110.899C111.826 275.438 112.423 276.577 112.423 277.854Z" fill="#FCCB23"/>
</g>
<mask id="mask20" mask-type="alpha" maskUnits="userSpaceOnUse" x="68" y="265" width="45" height="2">
<path d="M112.422 266.643H68.1309C68.8187 266.092 69.6914 265.766 70.6383 265.766H109.914C110.861 265.766 111.734 266.092 112.422 266.643Z" fill="white"/>
</mask>
<g mask="url(#mask20)">
<path fill-rule="evenodd" clip-rule="evenodd" d="M112.422 266.643H68.1309C68.8187 266.092 69.6914 265.766 70.6383 265.766H109.914C110.861 265.766 111.734 266.092 112.422 266.643Z" fill="#F7B336"/>
</g>
<mask id="mask21" mask-type="alpha" maskUnits="userSpaceOnUse" x="68" y="272" width="45" height="2">
<path d="M112.413 272.955C111.728 273.503 110.857 273.828 109.915 273.828H70.6388C69.6942 273.828 68.8235 273.501 68.1357 272.955H112.413Z" fill="white"/>
</mask>
<g mask="url(#mask21)">
<path fill-rule="evenodd" clip-rule="evenodd" d="M112.413 272.955C111.728 273.503 110.857 273.828 109.915 273.828H70.6388C69.6942 273.828 68.8235 273.501 68.1357 272.955H112.413Z" fill="#F7B336"/>
</g>
<mask id="mask22" mask-type="alpha" maskUnits="userSpaceOnUse" x="66" y="266" width="48" height="7">
<path d="M113.943 269.799C113.943 270.911 113.493 271.919 112.761 272.648C112.652 272.757 112.535 272.861 112.413 272.955H68.1354C67.2038 272.219 66.6074 271.079 66.6074 269.799C66.6074 268.684 67.058 267.677 67.7893 266.948C67.8959 266.841 68.0113 266.736 68.131 266.643H112.422C113.349 267.381 113.943 268.521 113.943 269.799Z" fill="white"/>
</mask>
<g mask="url(#mask22)">
<path fill-rule="evenodd" clip-rule="evenodd" d="M113.943 269.799C113.943 270.911 113.493 271.919 112.761 272.648C112.652 272.757 112.535 272.861 112.413 272.955H68.1354C67.2038 272.219 66.6074 271.079 66.6074 269.799C66.6074 268.684 67.058 267.677 67.7893 266.948C67.8959 266.841 68.0113 266.736 68.131 266.643H112.422C113.349 267.381 113.943 268.521 113.943 269.799Z" fill="#FCCB23"/>
</g>
<mask id="mask23" mask-type="alpha" maskUnits="userSpaceOnUse" x="92" y="266" width="47" height="46">
<path d="M115.417 312C109.497 312 104.101 309.756 100.033 306.071C99.7196 305.788 99.4148 305.499 99.1188 305.198C97.3101 303.37 95.8061 301.237 94.6917 298.886C94.5546 298.597 94.4218 298.305 94.2978 298.009C93.475 296.068 92.9135 293.991 92.6545 291.821C92.5456 290.92 92.4912 290.004 92.4912 289.074C92.4912 279.609 98.2243 271.486 106.408 267.986C109.175 266.802 112.22 266.147 115.417 266.147C128.08 266.147 138.345 276.411 138.345 289.074C138.345 294.903 136.168 300.225 132.583 304.271C128.383 309.012 122.249 312 115.417 312ZM96.9488 299.087C100.505 305.634 107.442 310.078 115.417 310.078C123.398 310.078 130.339 305.627 133.896 299.071C135.506 296.098 136.421 292.692 136.421 289.072C136.421 277.473 127.018 268.068 115.417 268.068C103.818 268.068 94.4131 277.473 94.4131 289.072C94.4131 292.696 95.3316 296.105 96.9466 299.08L96.9488 299.087Z" fill="white"/>
</mask>
<g mask="url(#mask23)">
<path fill-rule="evenodd" clip-rule="evenodd" d="M115.417 312C109.497 312 104.101 309.756 100.033 306.071C99.7196 305.788 99.4148 305.499 99.1188 305.198C97.3101 303.37 95.8061 301.237 94.6917 298.886C94.5546 298.597 94.4218 298.305 94.2978 298.009C93.475 296.068 92.9135 293.991 92.6545 291.821C92.5456 290.92 92.4912 290.004 92.4912 289.074C92.4912 279.609 98.2243 271.486 106.408 267.986C109.175 266.802 112.22 266.147 115.417 266.147C128.08 266.147 138.345 276.411 138.345 289.074C138.345 294.903 136.168 300.225 132.583 304.271C128.383 309.012 122.249 312 115.417 312ZM96.9488 299.087C100.505 305.634 107.442 310.078 115.417 310.078C123.398 310.078 130.339 305.627 133.896 299.071C135.506 296.098 136.421 292.692 136.421 289.072C136.421 277.473 127.018 268.068 115.417 268.068C103.818 268.068 94.4131 277.473 94.4131 289.072C94.4131 292.696 95.3316 296.105 96.9466 299.08L96.9488 299.087Z" fill="url(#paint5_linear)"/>
</g>
<mask id="mask24" mask-type="alpha" maskUnits="userSpaceOnUse" x="94" y="266" width="44" height="45">
<path d="M115.882 310.912C108.111 310.912 101.218 306.889 96.9354 300.688L96.9331 300.681C95.2763 297.424 94.334 293.692 94.334 289.724C94.334 277.025 103.983 266.728 115.882 266.728C127.783 266.728 137.43 277.025 137.43 289.724C137.43 293.687 136.492 297.417 134.84 300.672C130.557 306.882 123.659 310.912 115.882 310.912Z" fill="white"/>
</mask>
<g mask="url(#mask24)">
<path fill-rule="evenodd" clip-rule="evenodd" d="M115.5 311C107.747 311 100.869 306.994 96.5956 300.819L96.5934 300.812C94.9402 297.568 94 293.852 94 289.901C94 277.254 103.627 267 115.5 267C127.375 267 137 277.254 137 289.901C137 293.847 136.064 297.561 134.416 300.803C130.142 306.987 123.26 311 115.5 311Z" fill="#FCCB23"/>
</g>
<mask id="mask25" mask-type="alpha" maskUnits="userSpaceOnUse" x="99" y="273" width="33" height="32">
<path d="M131.114 289.074C131.114 297.741 124.086 304.77 115.417 304.77C106.75 304.77 99.7217 297.741 99.7217 289.074C99.7217 280.405 106.75 273.377 115.417 273.377C124.086 273.377 131.114 280.405 131.114 289.074Z" fill="white"/>
</mask>
<g mask="url(#mask25)">
<path fill-rule="evenodd" clip-rule="evenodd" d="M131.114 289.074C131.114 297.741 124.086 304.77 115.417 304.77C106.75 304.77 99.7217 297.741 99.7217 289.074C99.7217 280.405 106.75 273.377 115.417 273.377C124.086 273.377 131.114 280.405 131.114 289.074Z" fill="#FFE999"/>
</g>
<mask id="mask26" mask-type="alpha" maskUnits="userSpaceOnUse" x="59" y="209" width="11" height="22">
<path d="M60.9576 218.735C59.2555 224.104 59.1946 228.964 60.7138 230.218C60.8509 230.331 61.0033 230.414 61.1665 230.466C63.1385 231.091 66.2379 226.851 68.0923 220.994C69.9468 215.141 69.8532 209.889 67.8834 209.265C67.7354 209.218 67.5808 209.2 67.4219 209.205C65.4543 209.286 62.6727 213.319 60.9576 218.735Z" fill="white"/>
</mask>
<g mask="url(#mask26)">
<path fill-rule="evenodd" clip-rule="evenodd" d="M60.9576 218.735C59.2555 224.104 59.1946 228.964 60.7138 230.218C60.8509 230.331 61.0033 230.414 61.1665 230.466C63.1385 231.091 66.2379 226.851 68.0923 220.994C69.9468 215.141 69.8532 209.889 67.8834 209.265C67.7354 209.218 67.5808 209.2 67.4219 209.205C65.4543 209.286 62.6727 213.319 60.9576 218.735Z" fill="#FFE999"/>
</g>
<mask id="mask27" mask-type="alpha" maskUnits="userSpaceOnUse" x="57" y="208" width="11" height="23">
<path d="M58.6719 218.036C56.8175 223.893 56.38 228.668 60.2542 230.157L61.1662 230.466C61.003 230.414 60.8506 230.331 60.7135 230.218C59.1942 228.964 59.2552 224.104 60.9573 218.735C62.6724 213.319 65.454 209.286 67.4216 209.205C67.5805 209.2 67.7351 209.218 67.8831 209.265L66.9711 208.956C63.6845 207.443 60.5263 212.182 58.6719 218.036Z" fill="white"/>
</mask>
<g mask="url(#mask27)">
<path fill-rule="evenodd" clip-rule="evenodd" d="M58.6719 218.036C56.8175 223.893 56.38 228.668 60.2542 230.157L61.1662 230.466C61.003 230.414 60.8506 230.331 60.7135 230.218C59.1942 228.964 59.2552 224.104 60.9573 218.735C62.6724 213.319 65.454 209.286 67.4216 209.205C67.5805 209.2 67.7351 209.218 67.8831 209.265L66.9711 208.956C63.6845 207.443 60.5263 212.182 58.6719 218.036Z" fill="url(#paint6_linear)"/>
</g>
<mask id="mask28" mask-type="alpha" maskUnits="userSpaceOnUse" x="60" y="210" width="9" height="19">
<path d="M61.6815 218.965C60.1187 223.895 60.1622 228.305 61.7772 228.816C63.3922 229.328 65.9671 225.748 67.5277 220.818C69.0905 215.888 69.0469 211.476 67.4319 210.964C65.8169 210.453 63.2421 214.035 61.6815 218.965Z" fill="white"/>
</mask>
<g mask="url(#mask28)">
<path fill-rule="evenodd" clip-rule="evenodd" d="M61.6815 218.965C60.1187 223.895 60.1622 228.305 61.7772 228.816C63.3922 229.328 65.9671 225.748 67.5277 220.818C69.0905 215.888 69.0469 211.476 67.4319 210.964C65.8169 210.453 63.2421 214.035 61.6815 218.965Z" fill="url(#paint7_linear)"/>
</g>
<mask id="mask29" mask-type="alpha" maskUnits="userSpaceOnUse" x="61" y="214" width="7" height="12">
<path d="M62.5828 219.231C61.5707 222.426 61.6229 225.293 62.6981 225.632C63.7733 225.974 65.4645 223.66 66.4766 220.465C67.4887 217.27 67.4387 214.403 66.3634 214.062C65.2882 213.722 63.5949 216.036 62.5828 219.231Z" fill="white"/>
</mask>
<g mask="url(#mask29)">
<path fill-rule="evenodd" clip-rule="evenodd" d="M62.5828 219.231C61.5707 222.426 61.6229 225.293 62.6981 225.632C63.7733 225.974 65.4645 223.66 66.4766 220.465C67.4887 217.27 67.4387 214.403 66.3634 214.062C65.2882 213.722 63.5949 216.036 62.5828 219.231Z" fill="#FFE999"/>
</g>
<mask id="mask30" mask-type="alpha" maskUnits="userSpaceOnUse" x="219" y="20" width="11" height="22">
<path d="M220.671 30.0631C218.971 35.4326 218.908 40.2924 220.43 41.5461C220.567 41.66 220.719 41.7433 220.882 41.7951C222.852 42.4196 225.954 38.1801 227.808 32.3234C229.663 26.4693 229.569 21.218 227.597 20.5937C227.449 20.5469 227.297 20.5282 227.138 20.5334C225.17 20.6142 222.389 24.6478 220.671 30.0631Z" fill="white"/>
</mask>
<g mask="url(#mask30)">
<path fill-rule="evenodd" clip-rule="evenodd" d="M220.671 30.0631C218.971 35.4326 218.908 40.2924 220.43 41.5461C220.567 41.66 220.719 41.7433 220.882 41.7951C222.852 42.4196 225.954 38.1801 227.808 32.3234C229.663 26.4693 229.569 21.218 227.597 20.5937C227.449 20.5469 227.297 20.5282 227.138 20.5334C225.17 20.6142 222.389 24.6478 220.671 30.0631Z" fill="#FFE999"/>
</g>
<mask id="mask31" mask-type="alpha" maskUnits="userSpaceOnUse" x="217" y="20" width="11" height="22">
<path d="M218.388 29.365C216.533 35.2214 216.096 39.9977 219.97 41.486L220.882 41.7951C220.719 41.7433 220.566 41.6599 220.429 41.5461C218.908 40.2924 218.971 35.4326 220.671 30.063C222.388 24.6477 225.17 20.6142 227.137 20.5334C227.296 20.5282 227.449 20.5469 227.597 20.5937L226.685 20.2846C223.4 18.771 220.242 23.5109 218.388 29.365Z" fill="white"/>
</mask>
<g mask="url(#mask31)">
<path fill-rule="evenodd" clip-rule="evenodd" d="M218.388 29.365C216.533 35.2214 216.096 39.9977 219.97 41.486L220.882 41.7951C220.719 41.7433 220.566 41.6599 220.429 41.5461C218.908 40.2924 218.971 35.4326 220.671 30.063C222.388 24.6477 225.17 20.6142 227.137 20.5334C227.296 20.5282 227.449 20.5469 227.597 20.5937L226.685 20.2846C223.4 18.771 220.242 23.5109 218.388 29.365Z" fill="url(#paint8_linear)"/>
</g>
<mask id="mask32" mask-type="alpha" maskUnits="userSpaceOnUse" x="220" y="22" width="9" height="19">
<path d="M221.395 30.2931C219.835 35.223 219.876 39.6342 221.491 40.1457C223.106 40.6574 225.683 37.0754 227.244 32.1455C228.807 27.2156 228.763 22.8044 227.148 22.2927C225.533 21.7812 222.958 25.3632 221.395 30.2931Z" fill="white"/>
</mask>
<g mask="url(#mask32)">
<path fill-rule="evenodd" clip-rule="evenodd" d="M221.395 30.2931C219.835 35.223 219.876 39.6342 221.491 40.1457C223.106 40.6574 225.683 37.0754 227.244 32.1455C228.807 27.2156 228.763 22.8044 227.148 22.2927C225.533 21.7812 222.958 25.3632 221.395 30.2931Z" fill="url(#paint9_linear)"/>
</g>
<mask id="mask33" mask-type="alpha" maskUnits="userSpaceOnUse" x="221" y="25" width="6" height="12">
<path d="M222.3 30.5593C221.288 33.7544 221.338 36.6207 222.413 36.9614C223.488 37.302 225.181 34.9881 226.193 31.7929C227.206 28.5977 227.153 25.7317 226.078 25.3908C225.003 25.0502 223.312 27.3643 222.3 30.5593Z" fill="white"/>
</mask>
<g mask="url(#mask33)">
<path fill-rule="evenodd" clip-rule="evenodd" d="M222.3 30.5593C221.288 33.7544 221.338 36.6207 222.413 36.9614C223.488 37.302 225.181 34.9881 226.193 31.7929C227.206 28.5977 227.153 25.7317 226.078 25.3908C225.003 25.0502 223.312 27.3643 222.3 30.5593Z" fill="#FFE999"/>
</g>
<mask id="mask34" mask-type="alpha" maskUnits="userSpaceOnUse" x="222" y="26" width="5" height="10">
<path d="M222.325 35.4235L222.78 34.3389C222.552 33.6528 222.717 32.5852 223.115 31.6393C223.516 30.6823 223.894 30.2955 224.408 30.339C224.785 30.3488 224.974 30.2696 225.122 29.9187C225.246 29.6212 225.314 29.2373 225.135 28.9695C224.937 28.6731 224.709 28.7282 224.587 28.7377L225.011 27.4172C225.174 27.383 225.359 27.4196 225.557 27.6636L225.949 26.7279L226.219 27.1314L225.795 28.1414C225.997 28.8052 225.86 29.794 225.466 30.7297C225.033 31.7608 224.611 31.9919 224.156 31.9338C223.84 31.895 223.644 32.0182 223.477 32.4222C223.298 32.8475 223.307 33.2419 223.464 33.4765C223.642 33.7442 223.897 33.7641 224.117 33.6924L223.677 35.0595C223.474 35.1372 223.215 35.0606 223.017 34.8169L222.593 35.8268L222.325 35.4235Z" fill="white"/>
</mask>
<g mask="url(#mask34)">
<path fill-rule="evenodd" clip-rule="evenodd" d="M222.325 35.4235L222.78 34.3389C222.552 33.6528 222.717 32.5852 223.115 31.6393C223.516 30.6823 223.894 30.2955 224.408 30.339C224.785 30.3488 224.974 30.2696 225.122 29.9187C225.246 29.6212 225.314 29.2373 225.135 28.9695C224.937 28.6731 224.709 28.7282 224.587 28.7377L225.011 27.4172C225.174 27.383 225.359 27.4196 225.557 27.6636L225.949 26.7279L226.219 27.1314L225.795 28.1414C225.997 28.8052 225.86 29.794 225.466 30.7297C225.033 31.7608 224.611 31.9919 224.156 31.9338C223.84 31.895 223.644 32.0182 223.477 32.4222C223.298 32.8475 223.307 33.2419 223.464 33.4765C223.642 33.7442 223.897 33.7641 224.117 33.6924L223.677 35.0595C223.474 35.1372 223.215 35.0606 223.017 34.8169L222.593 35.8268L222.325 35.4235Z" fill="url(#paint10_linear)"/>
</g>
<mask id="mask35" mask-type="alpha" maskUnits="userSpaceOnUse" x="268" y="125" width="11" height="22">
<path d="M269.99 135.031C268.288 140.401 268.227 145.261 269.746 146.514C269.883 146.628 270.036 146.712 270.199 146.763C272.171 147.388 275.27 143.148 277.125 137.292C278.979 131.438 278.885 126.186 276.916 125.562C276.768 125.515 276.613 125.497 276.454 125.502C274.487 125.583 271.705 129.616 269.99 135.031Z" fill="white"/>
</mask>
<g mask="url(#mask35)">
<path fill-rule="evenodd" clip-rule="evenodd" d="M269.99 135.031C268.288 140.401 268.227 145.261 269.746 146.514C269.883 146.628 270.036 146.712 270.199 146.763C272.171 147.388 275.27 143.148 277.125 137.292C278.979 131.438 278.885 126.186 276.916 125.562C276.768 125.515 276.613 125.497 276.454 125.502C274.487 125.583 271.705 129.616 269.99 135.031Z" fill="#FFE999"/>
</g>
<mask id="mask36" mask-type="alpha" maskUnits="userSpaceOnUse" x="266" y="124" width="11" height="23">
<path d="M267.703 134.333C265.849 140.19 265.411 144.966 269.285 146.454L270.197 146.763C270.034 146.712 269.882 146.628 269.745 146.514C268.225 145.261 268.286 140.401 269.989 135.031C271.704 129.616 274.485 125.583 276.453 125.502C276.612 125.497 276.766 125.515 276.914 125.562L276.002 125.253C272.716 123.74 269.558 128.479 267.703 134.333Z" fill="white"/>
</mask>
<g mask="url(#mask36)">
<path fill-rule="evenodd" clip-rule="evenodd" d="M267.703 134.333C265.849 140.19 265.411 144.966 269.285 146.454L270.197 146.763C270.034 146.712 269.882 146.628 269.745 146.514C268.225 145.261 268.286 140.401 269.989 135.031C271.704 129.616 274.485 125.583 276.453 125.502C276.612 125.497 276.766 125.515 276.914 125.562L276.002 125.253C272.716 123.74 269.558 128.479 267.703 134.333Z" fill="url(#paint11_linear)"/>
</g>
<mask id="mask37" mask-type="alpha" maskUnits="userSpaceOnUse" x="269" y="127" width="9" height="19">
<path d="M270.712 135.261C269.151 140.191 269.195 144.603 270.81 145.114C272.425 145.626 275 142.044 276.56 137.114C278.123 132.184 278.079 127.773 276.464 127.261C274.849 126.75 272.275 130.331 270.712 135.261Z" fill="white"/>
</mask>
<g mask="url(#mask37)">
<path fill-rule="evenodd" clip-rule="evenodd" d="M270.712 135.261C269.151 140.191 269.195 144.603 270.81 145.114C272.425 145.626 275 142.044 276.56 137.114C278.123 132.184 278.079 127.773 276.464 127.261C274.849 126.75 272.275 130.331 270.712 135.261Z" fill="url(#paint12_linear)"/>
</g>
<mask id="mask38" mask-type="alpha" maskUnits="userSpaceOnUse" x="270" y="130" width="7" height="12">
<path d="M271.615 135.528C270.603 138.723 270.655 141.589 271.73 141.93C272.806 142.27 274.497 139.956 275.509 136.761C276.521 133.566 276.471 130.7 275.396 130.359C274.318 130.019 272.627 132.333 271.615 135.528Z" fill="white"/>
</mask>
<g mask="url(#mask38)">
<path fill-rule="evenodd" clip-rule="evenodd" d="M271.615 135.528C270.603 138.723 270.655 141.589 271.73 141.93C272.806 142.27 274.497 139.956 275.509 136.761C276.521 133.566 276.471 130.7 275.396 130.359C274.318 130.019 272.627 132.333 271.615 135.528Z" fill="#FFE999"/>
</g>
<mask id="mask39" mask-type="alpha" maskUnits="userSpaceOnUse" x="271" y="131" width="5" height="10">
<path d="M271.641 140.392L272.096 139.307C271.869 138.621 272.035 137.554 272.431 136.608C272.833 135.651 273.21 135.264 273.724 135.307C274.1 135.317 274.289 135.238 274.437 134.887C274.562 134.59 274.629 134.206 274.451 133.938C274.252 133.641 274.024 133.696 273.904 133.706L274.326 132.386C274.49 132.351 274.675 132.388 274.873 132.632L275.267 131.696L275.534 132.1L275.112 133.11C275.312 133.774 275.175 134.762 274.781 135.698C274.35 136.729 273.926 136.96 273.471 136.902C273.156 136.863 272.962 136.987 272.792 137.39C272.614 137.816 272.622 138.21 272.779 138.445C272.957 138.713 273.214 138.732 273.432 138.661L272.992 140.028C272.79 140.106 272.531 140.029 272.333 139.785L271.911 140.795L271.641 140.392Z" fill="white"/>
</mask>
<g mask="url(#mask39)">
<path fill-rule="evenodd" clip-rule="evenodd" d="M271.641 140.392L272.096 139.307C271.869 138.621 272.035 137.554 272.431 136.608C272.833 135.651 273.21 135.264 273.724 135.307C274.1 135.317 274.289 135.238 274.437 134.887C274.562 134.59 274.629 134.206 274.451 133.938C274.252 133.641 274.024 133.696 273.904 133.706L274.326 132.386C274.49 132.351 274.675 132.388 274.873 132.632L275.267 131.696L275.534 132.1L275.112 133.11C275.312 133.774 275.175 134.762 274.781 135.698C274.35 136.729 273.926 136.96 273.471 136.902C273.156 136.863 272.962 136.987 272.792 137.39C272.614 137.816 272.622 138.21 272.779 138.445C272.957 138.713 273.214 138.732 273.432 138.661L272.992 140.028C272.79 140.106 272.531 140.029 272.333 139.785L271.911 140.795L271.641 140.392Z" fill="url(#paint13_linear)"/>
</g>
<mask id="mask40" mask-type="alpha" maskUnits="userSpaceOnUse" x="115" y="87" width="11" height="23">
<path d="M116.607 97.4779C114.907 102.847 114.844 107.707 116.365 108.961C116.502 109.075 116.655 109.158 116.818 109.21C118.788 109.834 121.889 105.595 123.744 99.7385C125.598 93.8844 125.505 88.633 123.533 88.0086C123.385 87.9618 123.232 87.9433 123.073 87.9485C121.106 88.0292 118.322 92.0628 116.607 97.4779Z" fill="white"/>
</mask>
<g mask="url(#mask40)">
<path fill-rule="evenodd" clip-rule="evenodd" d="M116.607 97.4779C114.907 102.847 114.844 107.707 116.365 108.961C116.502 109.075 116.655 109.158 116.818 109.21C118.788 109.834 121.889 105.595 123.744 99.7385C125.598 93.8844 125.505 88.633 123.533 88.0086C123.385 87.9618 123.232 87.9433 123.073 87.9485C121.106 88.0292 118.322 92.0628 116.607 97.4779Z" fill="#FFE999"/>
</g>
<mask id="mask41" mask-type="alpha" maskUnits="userSpaceOnUse" x="112" y="87" width="12" height="23">
<path d="M114.324 96.78C112.47 102.636 112.03 107.413 115.906 108.901L116.818 109.21C116.655 109.158 116.503 109.075 116.366 108.961C114.844 107.707 114.907 102.847 116.607 97.4778C118.322 92.0628 121.106 88.0292 123.074 87.9485C123.233 87.9432 123.385 87.9617 123.533 88.0085L122.621 87.6997C119.337 86.1861 116.178 90.9258 114.324 96.78Z" fill="white"/>
</mask>
<g mask="url(#mask41)">
<path fill-rule="evenodd" clip-rule="evenodd" d="M114.324 96.78C112.47 102.636 112.03 107.413 115.906 108.901L116.818 109.21C116.655 109.158 116.503 109.075 116.366 108.961C114.844 107.707 114.907 102.847 116.607 97.4778C118.322 92.0628 121.106 88.0292 123.074 87.9485C123.233 87.9432 123.385 87.9617 123.533 88.0085L122.621 87.6997C119.337 86.1861 116.178 90.9258 114.324 96.78Z" fill="url(#paint14_linear)"/>
</g>
<mask id="mask42" mask-type="alpha" maskUnits="userSpaceOnUse" x="116" y="89" width="9" height="19">
<path d="M117.332 97.7082C115.771 102.638 115.813 107.049 117.428 107.561C119.043 108.072 121.62 104.491 123.18 99.5606C124.741 94.6305 124.7 90.2193 123.085 89.7078C121.47 89.1963 118.893 92.7781 117.332 97.7082Z" fill="white"/>
</mask>
<g mask="url(#mask42)">
<path fill-rule="evenodd" clip-rule="evenodd" d="M117.332 97.7082C115.771 102.638 115.813 107.049 117.428 107.561C119.043 108.072 121.62 104.491 123.18 99.5606C124.741 94.6305 124.7 90.2193 123.085 89.7078C121.47 89.1963 118.893 92.7781 117.332 97.7082Z" fill="url(#paint15_linear)"/>
</g>
<mask id="mask43" mask-type="alpha" maskUnits="userSpaceOnUse" x="117" y="92" width="6" height="13">
<path d="M118.235 97.9744C117.223 101.169 117.273 104.036 118.348 104.376C119.424 104.717 121.117 102.403 122.129 99.2078C123.141 96.0128 123.089 93.1465 122.014 92.8059C120.938 92.4653 119.247 94.7794 118.235 97.9744Z" fill="white"/>
</mask>
<g mask="url(#mask43)">
<path fill-rule="evenodd" clip-rule="evenodd" d="M118.235 97.9744C117.223 101.169 117.273 104.036 118.348 104.376C119.424 104.717 121.117 102.403 122.129 99.2078C123.141 96.0128 123.089 93.1465 122.014 92.8059C120.938 92.4653 119.247 94.7794 118.235 97.9744Z" fill="#FFE999"/>
</g>
<mask id="mask44" mask-type="alpha" maskUnits="userSpaceOnUse" x="79" y="172" width="20" height="21">
<path d="M83.8477 187.584C88.0267 191.84 93.4551 193.415 96.5653 191.452C96.8483 191.276 97.1117 191.066 97.3533 190.829C100.255 187.98 98.9139 181.91 94.3561 177.268C89.8028 172.628 83.7585 171.176 80.855 174.025C80.6373 174.238 80.4458 174.47 80.2738 174.716C78.1735 177.776 79.6361 183.292 83.8477 187.584Z" fill="white"/>
</mask>
<g mask="url(#mask44)">
<path fill-rule="evenodd" clip-rule="evenodd" d="M83.8477 187.584C88.0267 191.84 93.4551 193.415 96.5653 191.452C96.8483 191.276 97.1117 191.066 97.3533 190.829C100.255 187.98 98.9139 181.91 94.3561 177.268C89.8028 172.628 83.7585 171.176 80.855 174.025C80.6373 174.238 80.4458 174.47 80.2738 174.716C78.1735 177.776 79.6361 183.292 83.8477 187.584Z" fill="#FFE999"/>
</g>
<mask id="mask45" mask-type="alpha" maskUnits="userSpaceOnUse" x="77" y="174" width="21" height="20">
<path d="M82.4825 188.897C87.0403 193.539 93.0824 194.991 95.9859 192.142L97.3528 190.829C97.1112 191.066 96.8478 191.276 96.5649 191.452C93.4546 193.415 88.0262 191.841 83.8472 187.584C79.6356 183.292 78.173 177.776 80.2733 174.716C80.4453 174.47 80.6368 174.238 80.8545 174.025L79.4898 175.337C76.5863 178.187 77.927 184.257 82.4825 188.897Z" fill="white"/>
</mask>
<g mask="url(#mask45)">
<path fill-rule="evenodd" clip-rule="evenodd" d="M82.4825 188.897C87.0403 193.539 93.0824 194.991 95.9859 192.142L97.3528 190.829C97.1112 191.066 96.8478 191.276 96.5649 191.452C93.4546 193.415 88.0262 191.841 83.8472 187.584C79.6356 183.292 78.173 177.776 80.2733 174.716C80.4453 174.47 80.6368 174.238 80.8545 174.025L79.4898 175.337C76.5863 178.187 77.927 184.257 82.4825 188.897Z" fill="url(#paint16_linear)"/>
</g>
<mask id="mask46" mask-type="alpha" maskUnits="userSpaceOnUse" x="81" y="174" width="17" height="17">
<path d="M84.9171 186.538C88.7522 190.445 93.7909 191.721 96.1677 189.386C98.5467 187.051 97.3648 181.991 93.5276 178.083C89.6925 174.176 84.6559 172.901 82.277 175.235C79.898 177.57 81.0799 182.63 84.9171 186.538Z" fill="white"/>
</mask>
<g mask="url(#mask46)">
<path fill-rule="evenodd" clip-rule="evenodd" d="M84.9171 186.538C88.7522 190.445 93.7909 191.721 96.1677 189.386C98.5467 187.051 97.3648 181.991 93.5276 178.083C89.6925 174.176 84.6559 172.901 82.277 175.235C79.898 177.57 81.0799 182.63 84.9171 186.538Z" fill="url(#paint17_linear)"/>
</g>
<mask id="mask47" mask-type="alpha" maskUnits="userSpaceOnUse" x="83" y="177" width="12" height="11">
<path d="M86.223 185.228C88.7087 187.76 92.0083 188.553 93.5929 186.998C95.1752 185.444 94.4439 182.13 91.9583 179.598C89.4726 177.066 86.173 176.273 84.5885 177.827C83.0061 179.382 83.7374 182.695 86.223 185.228Z" fill="white"/>
</mask>
<g mask="url(#mask47)">
<path fill-rule="evenodd" clip-rule="evenodd" d="M86.223 185.228C88.7087 187.76 92.0083 188.553 93.5929 186.998C95.1752 185.444 94.4439 182.13 91.9583 179.598C89.4726 177.066 86.173 176.273 84.5885 177.827C83.0061 179.382 83.7374 182.695 86.223 185.228Z" fill="#FFE999"/>
</g>
<mask id="mask48" mask-type="alpha" maskUnits="userSpaceOnUse" x="266" y="73" width="21" height="20">
<path d="M271.163 88.0456C275.342 92.3014 280.768 93.8759 283.88 91.9135C284.161 91.7366 284.427 91.5272 284.666 91.2906C287.569 88.4413 286.229 82.3713 281.671 77.7294C277.118 73.0894 271.073 71.6368 268.17 74.4861C267.952 74.6996 267.761 74.9312 267.589 75.1774C265.486 78.2372 266.949 83.7534 271.163 88.0456Z" fill="white"/>
</mask>
<g mask="url(#mask48)">
<path fill-rule="evenodd" clip-rule="evenodd" d="M271.163 88.0456C275.342 92.3014 280.768 93.8759 283.88 91.9135C284.161 91.7366 284.427 91.5272 284.666 91.2906C287.569 88.4413 286.229 82.3713 281.671 77.7294C277.118 73.0894 271.073 71.6368 268.17 74.4861C267.952 74.6996 267.761 74.9312 267.589 75.1774C265.486 78.2372 266.949 83.7534 271.163 88.0456Z" fill="#FFE999"/>
</g>
<mask id="mask49" mask-type="alpha" maskUnits="userSpaceOnUse" x="265" y="74" width="20" height="21">
<path d="M269.798 89.3578C274.354 93.9998 280.398 95.4524 283.301 92.6031L284.666 91.2906C284.427 91.5272 284.161 91.7366 283.88 91.9135C280.768 93.8759 275.342 92.3014 271.163 88.0456C266.949 83.7534 265.486 78.2372 267.589 75.1774C267.761 74.9312 267.952 74.6996 268.17 74.4861L266.805 75.7985C263.902 78.6479 265.242 84.7178 269.798 89.3578Z" fill="white"/>
</mask>
<g mask="url(#mask49)">
<path fill-rule="evenodd" clip-rule="evenodd" d="M269.798 89.3578C274.354 93.9998 280.398 95.4524 283.301 92.6031L284.666 91.2906C284.427 91.5272 284.161 91.7366 283.88 91.9135C280.768 93.8759 275.342 92.3014 271.163 88.0456C266.949 83.7534 265.486 78.2372 267.589 75.1774C267.761 74.9312 267.952 74.6996 268.17 74.4861L266.805 75.7985C263.902 78.6479 265.242 84.7178 269.798 89.3578Z" fill="url(#paint18_linear)"/>
</g>
<mask id="mask50" mask-type="alpha" maskUnits="userSpaceOnUse" x="268" y="74" width="17" height="18">
<path d="M272.232 86.9989C276.067 90.9064 281.103 92.1817 283.482 89.8469C285.861 87.5123 284.679 82.4521 280.842 78.5447C277.007 74.6371 271.968 73.3621 269.591 75.6967C267.212 78.0313 268.394 83.0915 272.232 86.9989Z" fill="white"/>
</mask>
<g mask="url(#mask50)">
<path fill-rule="evenodd" clip-rule="evenodd" d="M272.232 86.9989C276.067 90.9064 281.103 92.1817 283.482 89.8469C285.861 87.5123 284.679 82.4521 280.842 78.5447C277.007 74.6371 271.968 73.3621 269.591 75.6967C267.212 78.0313 268.394 83.0915 272.232 86.9989Z" fill="url(#paint19_linear)"/>
</g>
<mask id="mask51" mask-type="alpha" maskUnits="userSpaceOnUse" x="271" y="77" width="11" height="12">
<path d="M273.538 85.6886C276.023 88.2211 279.323 89.0138 280.905 87.4593C282.49 85.9046 281.758 82.5914 279.273 80.059C276.785 77.5266 273.487 76.7339 271.903 78.2884C270.321 79.8431 271.052 83.1562 273.538 85.6886Z" fill="white"/>
</mask>
<g mask="url(#mask51)">
<path fill-rule="evenodd" clip-rule="evenodd" d="M273.538 85.6886C276.023 88.2211 279.323 89.0138 280.905 87.4593C282.49 85.9046 281.758 82.5914 279.273 80.059C276.785 77.5266 273.487 76.7339 271.903 78.2884C270.321 79.8431 271.052 83.1562 273.538 85.6886Z" fill="#FFE999"/>
</g>
<mask id="mask52" mask-type="alpha" maskUnits="userSpaceOnUse" x="272" y="78" width="9" height="9">
<path d="M280.013 86.6735L279.166 85.8642C278.864 86.3189 278.435 86.6319 278.08 86.717L277.162 85.5051C277.54 85.4 277.971 85.1555 278.241 84.6893C278.476 84.2806 278.441 83.8135 278.084 83.4726C277.747 83.149 277.401 83.174 276.872 83.4918C276.108 83.9523 275.362 84.0501 274.497 83.2236C273.712 82.4738 273.355 81.4413 273.609 80.4949L272.763 79.6854L273.168 78.9826L273.951 79.7324C274.256 79.2775 274.567 79.0738 274.846 78.9737L275.732 80.1442C275.527 80.2372 275.133 80.3713 274.835 80.8875C274.565 81.3538 274.728 81.7429 274.978 81.9813C275.272 82.2625 275.603 82.1904 276.241 81.8533C277.107 81.3577 277.795 81.4817 278.598 82.249C279.39 83.0069 279.806 84.1064 279.51 85.1016L280.418 85.9707L280.013 86.6735Z" fill="white"/>
</mask>
<g mask="url(#mask52)">
<path fill-rule="evenodd" clip-rule="evenodd" d="M280.013 86.6735L279.166 85.8642C278.864 86.3189 278.435 86.6319 278.08 86.717L277.162 85.5051C277.54 85.4 277.971 85.1555 278.241 84.6893C278.476 84.2806 278.441 83.8135 278.084 83.4726C277.747 83.149 277.401 83.174 276.872 83.4918C276.108 83.9523 275.362 84.0501 274.497 83.2236C273.712 82.4738 273.355 81.4413 273.609 80.4949L272.763 79.6854L273.168 78.9826L273.951 79.7324C274.256 79.2775 274.567 79.0738 274.846 78.9737L275.732 80.1442C275.527 80.2372 275.133 80.3713 274.835 80.8875C274.565 81.3538 274.728 81.7429 274.978 81.9813C275.272 82.2625 275.603 82.1904 276.241 81.8533C277.107 81.3577 277.795 81.4817 278.598 82.249C279.39 83.0069 279.806 84.1064 279.51 85.1016L280.418 85.9707L280.013 86.6735Z" fill="url(#paint20_linear)"/>
</g>
<mask id="mask53" mask-type="alpha" maskUnits="userSpaceOnUse" x="50" y="106" width="20" height="20">
<path d="M54.8938 121.074C59.0706 125.33 64.4989 126.905 67.6092 124.942C67.8922 124.765 68.1555 124.556 68.3971 124.319C71.2985 121.47 69.9577 115.4 65.4022 110.758C60.8467 106.118 54.8024 104.666 51.8989 107.515C51.6812 107.728 51.4897 107.96 51.3177 108.206C49.2173 111.266 50.68 116.782 54.8938 121.074Z" fill="white"/>
</mask>
<g mask="url(#mask53)">
<path fill-rule="evenodd" clip-rule="evenodd" d="M54.8938 121.074C59.0706 125.33 64.4989 126.905 67.6092 124.942C67.8922 124.765 68.1555 124.556 68.3971 124.319C71.2985 121.47 69.9577 115.4 65.4022 110.758C60.8467 106.118 54.8024 104.666 51.8989 107.515C51.6812 107.728 51.4897 107.96 51.3177 108.206C49.2173 111.266 50.68 116.782 54.8938 121.074Z" fill="#FFE999"/>
</g>
<mask id="mask54" mask-type="alpha" maskUnits="userSpaceOnUse" x="49" y="107" width="20" height="21">
<path d="M53.5265 122.387C58.0842 127.029 64.1285 128.481 67.0298 125.632L68.3967 124.319C68.1551 124.556 67.8918 124.765 67.6088 124.942C64.4985 126.905 59.0702 125.33 54.8934 121.074C50.6796 116.782 49.2169 111.266 51.3173 108.206C51.4892 107.96 51.6808 107.728 51.8984 107.515L50.5337 108.827C47.6302 111.677 48.971 117.747 53.5265 122.387Z" fill="white"/>
</mask>
<g mask="url(#mask54)">
<path fill-rule="evenodd" clip-rule="evenodd" d="M53.5265 122.387C58.0842 127.029 64.1285 128.481 67.0298 125.632L68.3967 124.319C68.1551 124.556 67.8918 124.765 67.6088 124.942C64.4985 126.905 59.0702 125.33 54.8934 121.074C50.6796 116.782 49.2169 111.266 51.3173 108.206C51.4892 107.96 51.6808 107.728 51.8984 107.515L50.5337 108.827C47.6302 111.677 48.971 117.747 53.5265 122.387Z" fill="url(#paint21_linear)"/>
</g>
<mask id="mask55" mask-type="alpha" maskUnits="userSpaceOnUse" x="52" y="107" width="17" height="18">
<path d="M55.9601 120.028C59.7952 123.935 64.8339 125.21 67.2107 122.876C69.5897 120.541 68.4078 115.481 64.5705 111.573C60.7355 107.666 55.6989 106.391 53.3199 108.725C50.941 111.06 52.1228 116.12 55.9601 120.028Z" fill="white"/>
</mask>
<g mask="url(#mask55)">
<path fill-rule="evenodd" clip-rule="evenodd" d="M55.9601 120.028C59.7952 123.935 64.8339 125.21 67.2107 122.876C69.5897 120.541 68.4078 115.481 64.5705 111.573C60.7355 107.666 55.6989 106.391 53.3199 108.725C50.941 111.06 52.1228 116.12 55.9601 120.028Z" fill="url(#paint22_linear)"/>
</g>
<mask id="mask56" mask-type="alpha" maskUnits="userSpaceOnUse" x="54" y="110" width="12" height="12">
<path d="M57.266 118.717C59.7516 121.25 63.0513 122.042 64.6358 120.488C66.2182 118.933 65.4869 115.62 63.0012 113.088C60.5156 110.555 57.216 109.763 55.6314 111.317C54.0491 112.872 54.7804 116.185 57.266 118.717Z" fill="white"/>
</mask>
<g mask="url(#mask56)">
<path fill-rule="evenodd" clip-rule="evenodd" d="M57.266 118.717C59.7516 121.25 63.0513 122.042 64.6358 120.488C66.2182 118.933 65.4869 115.62 63.0012 113.088C60.5156 110.555 57.216 109.763 55.6314 111.317C54.0491 112.872 54.7804 116.185 57.266 118.717Z" fill="#FFE999"/>
</g>
<mask id="mask57" mask-type="alpha" maskUnits="userSpaceOnUse" x="177" y="63" width="20" height="21">
<path d="M181.578 78.9965C185.757 83.2526 191.183 84.8269 194.295 82.8645C194.576 82.6875 194.842 82.4781 195.081 82.2415C197.985 79.3922 196.644 73.3222 192.086 68.6803C187.533 64.0403 181.488 62.5877 178.585 65.4372C178.367 65.6505 178.176 65.8821 178.004 66.1283C175.901 69.1879 177.364 74.7043 181.578 78.9965Z" fill="white"/>
</mask>
<g mask="url(#mask57)">
<path fill-rule="evenodd" clip-rule="evenodd" d="M181.578 78.9965C185.757 83.2526 191.183 84.8269 194.295 82.8645C194.576 82.6875 194.842 82.4781 195.081 82.2415C197.985 79.3922 196.644 73.3222 192.086 68.6803C187.533 64.0403 181.488 62.5877 178.585 65.4372C178.367 65.6505 178.176 65.8821 178.004 66.1283C175.901 69.1879 177.364 74.7043 181.578 78.9965Z" fill="#FFE999"/>
</g>
<mask id="mask58" mask-type="alpha" maskUnits="userSpaceOnUse" x="175" y="65" width="21" height="21">
<path d="M180.213 80.309C184.768 84.9507 190.812 86.4034 193.716 83.554L195.081 82.2416C194.841 82.4782 194.576 82.6875 194.295 82.8645C191.182 84.8269 185.756 83.2526 181.577 78.9965C177.364 74.7044 175.901 69.1879 178.003 66.1283C178.175 65.8821 178.367 65.6506 178.585 65.4373L177.218 66.7495C174.316 69.5988 175.657 75.6688 180.213 80.309Z" fill="white"/>
</mask>
<g mask="url(#mask58)">
<path fill-rule="evenodd" clip-rule="evenodd" d="M180.213 80.309C184.768 84.9507 190.812 86.4034 193.716 83.554L195.081 82.2416C194.841 82.4782 194.576 82.6875 194.295 82.8645C191.182 84.8269 185.756 83.2526 181.577 78.9965C177.364 74.7044 175.901 69.1879 178.003 66.1283C178.175 65.8821 178.367 65.6506 178.585 65.4373L177.218 66.7495C174.316 69.5988 175.657 75.6688 180.213 80.309Z" fill="url(#paint23_linear)"/>
</g>
<mask id="mask59" mask-type="alpha" maskUnits="userSpaceOnUse" x="178" y="65" width="18" height="17">
<path d="M182.646 77.9501C186.481 81.8574 191.517 83.1327 193.896 80.7981C196.275 78.4633 195.093 73.4032 191.256 69.4955C187.421 65.5881 182.382 64.3129 180.005 66.6476C177.627 68.9822 178.808 74.0425 182.646 77.9501Z" fill="white"/>
</mask>
<g mask="url(#mask59)">
<path fill-rule="evenodd" clip-rule="evenodd" d="M182.646 77.9501C186.481 81.8574 191.517 83.1327 193.896 80.7981C196.275 78.4633 195.093 73.4032 191.256 69.4955C187.421 65.5881 182.382 64.3129 180.005 66.6476C177.627 68.9822 178.808 74.0425 182.646 77.9501Z" fill="url(#paint24_linear)"/>
</g>
<mask id="mask60" mask-type="alpha" maskUnits="userSpaceOnUse" x="181" y="68" width="12" height="12">
<path d="M183.952 76.6396C186.437 79.1722 189.737 79.9649 191.319 78.4102C192.904 76.8555 192.172 73.5423 189.687 71.0099C187.199 68.4775 183.902 67.6848 182.317 69.2395C180.735 70.794 181.466 74.1071 183.952 76.6396Z" fill="white"/>
</mask>
<g mask="url(#mask60)">
<path fill-rule="evenodd" clip-rule="evenodd" d="M183.952 76.6396C186.437 79.1722 189.737 79.9649 191.319 78.4102C192.904 76.8555 192.172 73.5423 189.687 71.0099C187.199 68.4775 183.902 67.6848 182.317 69.2395C180.735 70.794 181.466 74.1071 183.952 76.6396Z" fill="#FFE999"/>
</g>
<path d="M170.166 281L155 249.776V242.417H160.055C163.033 242.417 165.532 241.655 167.554 240.13C169.576 238.539 170.868 236.352 171.43 233.567H155V226.209H171.346C170.84 223.69 169.801 221.601 168.228 219.944C166.656 218.22 164.465 217.359 161.656 217.359H155V210H193V217.359H179.772C181.738 219.878 182.973 222.828 183.479 226.209H193V233.567H183.647C183.086 238.473 181.485 242.318 178.845 245.102C176.205 247.82 172.806 249.676 168.65 250.671L185.164 281H170.166Z" fill="#AFD0F8"/>
<path d="M114.789 299L110 290.204V288.132H111.596C112.537 288.132 113.326 287.917 113.965 287.487C114.603 287.039 115.011 286.423 115.188 285.639H110V283.566H115.162C115.002 282.856 114.674 282.268 114.177 281.801C113.681 281.316 112.989 281.073 112.102 281.073H110V279H122V281.073H117.823C118.443 281.782 118.834 282.613 118.993 283.566H122V285.639H119.047C118.869 287.021 118.364 288.104 117.53 288.888C116.696 289.654 115.623 290.176 114.31 290.457L119.525 299H114.789Z" fill="#F7B336"/>
<path d="M239.292 229.836C238.748 229.836 238.312 229.696 237.984 229.416C237.656 229.136 237.476 228.756 237.444 228.276C237.428 228.036 237.42 227.868 237.42 227.772C237.42 227.668 237.428 227.456 237.444 227.136C237.468 226.648 237.64 226.26 237.96 225.972C238.28 225.684 238.724 225.54 239.292 225.54C239.86 225.54 240.304 225.684 240.624 225.972C240.944 226.26 241.12 226.648 241.152 227.136C241.168 227.456 241.176 227.668 241.176 227.772C241.176 227.868 241.168 228.036 241.152 228.276C241.12 228.756 240.936 229.136 240.6 229.416C240.272 229.696 239.836 229.836 239.292 229.836ZM238.344 234C238.264 234 238.196 233.98 238.14 233.94C238.092 233.892 238.068 233.832 238.068 233.76C238.068 233.712 238.084 233.668 238.116 233.628L244.044 225.828C244.108 225.748 244.168 225.692 244.224 225.66C244.28 225.62 244.36 225.6 244.464 225.6H245.364C245.444 225.6 245.508 225.624 245.556 225.672C245.612 225.712 245.64 225.768 245.64 225.84C245.64 225.888 245.624 225.932 245.592 225.972L239.664 233.772C239.6 233.852 239.54 233.912 239.484 233.952C239.428 233.984 239.348 234 239.244 234H238.344ZM239.292 228.768C239.468 228.768 239.596 228.716 239.676 228.612C239.764 228.5 239.812 228.364 239.82 228.204C239.836 227.964 239.844 227.796 239.844 227.7C239.844 227.596 239.836 227.432 239.82 227.208C239.812 227.04 239.764 226.904 239.676 226.8C239.596 226.688 239.468 226.632 239.292 226.632C238.972 226.632 238.796 226.824 238.764 227.208C238.756 227.32 238.752 227.484 238.752 227.7C238.752 227.916 238.756 228.084 238.764 228.204C238.78 228.372 238.828 228.508 238.908 228.612C238.996 228.716 239.124 228.768 239.292 228.768ZM244.44 234.06C243.896 234.06 243.456 233.916 243.12 233.628C242.792 233.34 242.612 232.956 242.58 232.476C242.564 232.236 242.556 232.068 242.556 231.972C242.556 231.876 242.564 231.668 242.58 231.348C242.612 230.852 242.788 230.46 243.108 230.172C243.428 229.884 243.872 229.74 244.44 229.74C245.008 229.74 245.452 229.884 245.772 230.172C246.092 230.46 246.264 230.852 246.288 231.348C246.304 231.668 246.312 231.876 246.312 231.972C246.312 232.068 246.304 232.236 246.288 232.476C246.256 232.956 246.076 233.34 245.748 233.628C245.42 233.916 244.984 234.06 244.44 234.06ZM244.44 232.98C244.608 232.98 244.732 232.928 244.812 232.824C244.9 232.712 244.952 232.572 244.968 232.404C244.984 232.164 244.992 231.996 244.992 231.9C244.992 231.796 244.984 231.632 244.968 231.408C244.952 231.24 244.9 231.104 244.812 231C244.732 230.896 244.608 230.844 244.44 230.844C244.264 230.844 244.132 230.9 244.044 231.012C243.964 231.116 243.92 231.248 243.912 231.408C243.904 231.52 243.9 231.684 243.9 231.9C243.9 232.116 243.904 232.284 243.912 232.404C243.92 232.572 243.964 232.712 244.044 232.824C244.132 232.928 244.264 232.98 244.44 232.98Z" fill="#3792FC"/>
<defs>
<linearGradient id="paint0_linear" x1="179" y1="287" x2="179" y2="317" gradientUnits="userSpaceOnUse">
<stop stop-color="#3792FC"/>
<stop offset="1" stop-color="#FCFBFF"/>
</linearGradient>
<linearGradient id="paint1_linear" x1="163.028" y1="156.198" x2="188.219" y2="360.249" gradientUnits="userSpaceOnUse">
<stop stop-color="#3792FC"/>
<stop offset="1" stop-color="#3792FC"/>
</linearGradient>
<linearGradient id="paint2_linear" x1="140.439" y1="137.872" x2="149.945" y2="136.189" gradientUnits="userSpaceOnUse">
<stop stop-color="#3792FC"/>
<stop offset="1" stop-color="#62AAFF"/>
</linearGradient>
<linearGradient id="paint3_linear" x1="201.761" y1="139.388" x2="210.214" y2="137.876" gradientUnits="userSpaceOnUse">
<stop stop-color="#5BA3F8"/>
<stop offset="1" stop-color="#3792FC"/>
</linearGradient>
<linearGradient id="paint4_linear" x1="174.299" y1="96.31" x2="177.175" y2="170.364" gradientUnits="userSpaceOnUse">
<stop stop-color="#3792FC"/>
<stop offset="1" stop-color="#3792FC"/>
</linearGradient>
<linearGradient id="paint5_linear" x1="92.4912" y1="289.074" x2="138.344" y2="289.074" gradientUnits="userSpaceOnUse">
<stop stop-color="#FFE999"/>
<stop offset="1" stop-color="#FFC05B"/>
</linearGradient>
<linearGradient id="paint6_linear" x1="63.0468" y1="219.845" x2="61.2597" y2="219.279" gradientUnits="userSpaceOnUse">
<stop stop-color="#F5EE68"/>
<stop offset="1" stop-color="#F8C153"/>
</linearGradient>
<linearGradient id="paint7_linear" x1="64.0207" y1="228.899" x2="69.4595" y2="211.659" gradientUnits="userSpaceOnUse">
<stop stop-color="#F5EE68"/>
<stop offset="1" stop-color="#F8C153"/>
</linearGradient>
<linearGradient id="paint8_linear" x1="222.762" y1="31.1728" x2="220.975" y2="30.6069" gradientUnits="userSpaceOnUse">
<stop stop-color="#F5EE68"/>
<stop offset="1" stop-color="#F8C153"/>
</linearGradient>
<linearGradient id="paint9_linear" x1="223.736" y1="40.2273" x2="229.175" y2="22.9867" gradientUnits="userSpaceOnUse">
<stop stop-color="#F5EE68"/>
<stop offset="1" stop-color="#F8C153"/>
</linearGradient>
<linearGradient id="paint10_linear" x1="224.446" y1="31.5788" x2="223.951" y2="31.4219" gradientUnits="userSpaceOnUse">
<stop stop-color="#F5EE68"/>
<stop offset="1" stop-color="#F8C153"/>
</linearGradient>
<linearGradient id="paint11_linear" x1="272.078" y1="136.141" x2="270.291" y2="135.575" gradientUnits="userSpaceOnUse">
<stop stop-color="#F5EE68"/>
<stop offset="1" stop-color="#F8C153"/>
</linearGradient>
<linearGradient id="paint12_linear" x1="273.053" y1="145.196" x2="278.492" y2="127.955" gradientUnits="userSpaceOnUse">
<stop stop-color="#F5EE68"/>
<stop offset="1" stop-color="#F8C153"/>
</linearGradient>
<linearGradient id="paint13_linear" x1="273.762" y1="136.547" x2="273.267" y2="136.39" gradientUnits="userSpaceOnUse">
<stop stop-color="#F5EE68"/>
<stop offset="1" stop-color="#F8C153"/>
</linearGradient>
<linearGradient id="paint14_linear" x1="118.698" y1="98.5879" x2="116.911" y2="98.022" gradientUnits="userSpaceOnUse">
<stop stop-color="#F5EE68"/>
<stop offset="1" stop-color="#F8C153"/>
</linearGradient>
<linearGradient id="paint15_linear" x1="119.673" y1="107.642" x2="125.111" y2="90.4019" gradientUnits="userSpaceOnUse">
<stop stop-color="#F5EE68"/>
<stop offset="1" stop-color="#F8C153"/>
</linearGradient>
<linearGradient id="paint16_linear" x1="85.8035" y1="188.292" x2="83.8645" y2="192.341" gradientUnits="userSpaceOnUse">
<stop stop-color="#F5EE68"/>
<stop offset="1" stop-color="#F8C153"/>
</linearGradient>
<linearGradient id="paint17_linear" x1="96.1259" y1="189.433" x2="81.7647" y2="174.867" gradientUnits="userSpaceOnUse">
<stop stop-color="#F5EE68"/>
<stop offset="1" stop-color="#F8C153"/>
</linearGradient>
<linearGradient id="paint18_linear" x1="273.119" y1="88.7534" x2="271.18" y2="92.8023" gradientUnits="userSpaceOnUse">
<stop stop-color="#F5EE68"/>
<stop offset="1" stop-color="#F8C153"/>
</linearGradient>
<linearGradient id="paint19_linear" x1="283.44" y1="89.8937" x2="269.079" y2="75.3283" gradientUnits="userSpaceOnUse">
<stop stop-color="#F5EE68"/>
<stop offset="1" stop-color="#F8C153"/>
</linearGradient>
<linearGradient id="paint20_linear" x1="275.053" y1="84.0018" x2="278.187" y2="81.6646" gradientUnits="userSpaceOnUse">
<stop stop-color="#F5EE68"/>
<stop offset="1" stop-color="#F8C153"/>
</linearGradient>
<linearGradient id="paint21_linear" x1="56.8474" y1="121.782" x2="54.9084" y2="125.831" gradientUnits="userSpaceOnUse">
<stop stop-color="#F5EE68"/>
<stop offset="1" stop-color="#F8C153"/>
</linearGradient>
<linearGradient id="paint22_linear" x1="67.1689" y1="122.922" x2="52.8076" y2="108.357" gradientUnits="userSpaceOnUse">
<stop stop-color="#F5EE68"/>
<stop offset="1" stop-color="#F8C153"/>
</linearGradient>
<linearGradient id="paint23_linear" x1="183.534" y1="79.7044" x2="181.595" y2="83.7534" gradientUnits="userSpaceOnUse">
<stop stop-color="#F5EE68"/>
<stop offset="1" stop-color="#F8C153"/>
</linearGradient>
<linearGradient id="paint24_linear" x1="193.854" y1="80.8447" x2="179.493" y2="66.2794" gradientUnits="userSpaceOnUse">
<stop stop-color="#F5EE68"/>
<stop offset="1" stop-color="#F8C153"/>
</linearGradient>
</defs>
</svg>
