<svg width="321" height="253" viewBox="0 0 321 253" fill="none" xmlns="http://www.w3.org/2000/svg">
<g clip-path="url(#clip0)">
<path opacity="0.5" fill-rule="evenodd" clip-rule="evenodd" d="M10.9492 240.711C10.9492 243.494 26.7632 246.167 54.8832 248.135C83.0032 250.104 121.182 251.211 160.949 251.211C200.716 251.211 238.895 250.104 267.015 248.135C295.135 246.167 310.949 243.494 310.949 240.711C310.949 237.928 295.135 235.255 267.015 233.287C238.895 231.318 200.716 230.211 160.949 230.211C121.182 230.211 83.0032 231.318 54.8832 233.287C26.7632 235.255 10.9492 237.928 10.9492 240.711Z" fill="#EFEEFB"/>
<path opacity="0.3" d="M31.9492 240.711C31.9492 241.597 33.2862 242.462 35.7692 243.179C38.2512 243.897 41.7522 244.431 45.7692 244.705C49.7852 244.979 54.1132 244.979 58.1292 244.705C62.1462 244.431 65.6472 243.897 68.1292 243.179C70.6122 242.462 71.9492 241.597 71.9492 240.711C71.9492 239.825 70.6122 238.959 68.1292 238.243C65.6472 237.524 62.1462 236.991 58.1292 236.717C54.1132 236.442 49.7852 236.442 45.7692 236.717C41.7522 236.991 38.2512 237.524 35.7692 238.243C33.2862 238.959 31.9492 239.825 31.9492 240.711Z" fill="#C6C2F9"/>
<path opacity="0.4" d="M66.5569 22.049C97.4649 18.6926 104.445 36.5939 137.347 36.5939C170.249 36.5939 196.172 11.9788 216.112 6.38451C236.053 0.791356 293.881 -5.92246 312.825 18.6926C331.768 43.3077 311.461 61.1774 312.825 86.9424C313.51 99.8851 331.414 140.534 293.881 165.261C256.348 189.99 230.701 193.335 197.169 194.352C129.791 196.395 79.5189 187.638 48.6109 161.905C17.7029 136.171 13.8309 98.5979 18.6999 71.278C23.5689 43.9591 35.6489 25.4053 66.5569 22.049Z" fill="#EFEEFB"/>
<path d="M165.801 162.933C163.397 127.877 34.4097 60.2165 10.464 93.4205C-13.4828 126.625 9.53885 188.94 59.721 204.896C109.903 220.855 168.206 197.988 165.801 162.933Z" fill="#EFEEFB"/>
<path d="M127.908 182.894C130.656 153.653 278.097 97.2124 305.468 124.91C332.84 152.607 325.912 210.866 268.551 224.176C211.189 237.488 125.16 212.136 127.908 182.894Z" fill="#EFEEFB"/>
<path fill-rule="evenodd" clip-rule="evenodd" d="M226.967 157.827L199.845 168.718C195.986 170.268 194.108 174.648 195.647 178.511C195.647 178.511 204.811 199.839 205.302 202.508C205.794 205.178 201.615 208.765 201.615 208.765L229.058 197.98C232.805 196.507 234.546 192.191 232.882 188.525C229.261 180.55 223.665 168.018 223.034 165.392C222.093 161.475 226.967 157.827 226.967 157.827Z" fill="white"/>
<path d="M200.852 175.624L205.879 173.512" stroke="#C6C2F9" stroke-linecap="round" stroke-linejoin="round"/>
<path d="M207.883 172.736L213.563 170.467" stroke="#C6C2F9" stroke-linecap="round" stroke-linejoin="round"/>
<path d="M201.871 178.816L217.497 172.363" stroke="#C6C2F9" stroke-linecap="round" stroke-linejoin="round"/>
<path d="M202.957 181.84L218.669 175.183" stroke="#C6C2F9" stroke-linecap="round" stroke-linejoin="round"/>
<path d="M204.203 184.892L212 181.362" stroke="#C6C2F9" stroke-linecap="round" stroke-linejoin="round"/>
<path d="M205.344 187.762L221.092 181.362" stroke="#C6C2F9" stroke-linecap="round" stroke-linejoin="round"/>
<path d="M206.656 190.758L214.415 187.387" stroke="#C6C2F9" stroke-linecap="round" stroke-linejoin="round"/>
<path d="M207.664 193.714L215.561 190.336" stroke="#C6C2F9" stroke-linecap="round" stroke-linejoin="round"/>
<path d="M220.18 188.55L223.238 187.387" stroke="#C6C2F9" stroke-linecap="round" stroke-linejoin="round"/>
<path d="M208.93 196.791L216.712 193.405" stroke="#C6C2F9" stroke-linecap="round" stroke-linejoin="round"/>
<path d="M42.5653 132.29C43.8761 132.13 45.2739 132.186 46.4929 132.703C49.0839 133.803 49.8201 136.865 49.7846 139.353C49.7466 142.031 49.1782 144.956 51.2143 147.114C52.1502 148.106 53.314 148.866 54.234 149.875C55.2153 150.955 55.9859 152.19 56.5568 153.517C57.6042 155.954 58.1187 158.818 57.1607 161.375C56.3167 163.625 54.1948 165.656 54.653 168.214C55.132 170.884 57.8223 172.925 59.5055 174.913C61.4092 177.163 63.1623 180.038 63.4514 182.99C63.7271 185.817 62.4959 188.676 60.6068 190.814C56.8324 195.086 51.1591 197.18 45.4393 197.167C43.01 197.161 40.2598 197.051 38.1637 195.746C37.5168 195.343 37.175 194.89 36.7891 194.261C36.4437 193.697 35.988 193.33 35.46 192.931C34.2998 192.054 33.4631 190.872 32.9277 189.549C30.8525 184.411 32.5112 178.054 35.4171 173.492C36.1056 172.41 36.6691 171.37 36.3347 170.081C35.9855 168.736 35.128 167.523 34.3696 166.367C33.6199 165.224 32.7636 164.135 32.1768 162.899C31.563 161.605 31.3903 160.249 31.4993 158.833C31.7027 156.172 32.8518 153.717 34.4775 151.577C36.0443 149.516 37.8831 147.544 37.8868 144.842C37.8917 141.981 35.9782 139.434 36.7928 136.524C37.1309 135.319 37.8084 134.083 38.9012 133.36C39.9498 132.668 41.3329 132.441 42.5653 132.29Z" fill="#B9B3F9"/>
<path d="M41.708 136.866C41.7325 136.481 42.1883 136.251 42.5472 136.351C43.0201 136.483 43.0115 136.925 42.9993 137.318C42.9601 138.527 43.1352 139.702 43.4256 140.875C44.0308 143.314 45.1468 145.561 46.0313 147.905C46.9146 150.245 47.3299 152.662 46.8117 155.139C46.3229 157.475 45.5547 159.75 45.0549 162.089C44.6139 164.149 44.1447 166.322 44.816 168.378C45.4616 170.358 46.8901 171.969 47.9179 173.757C50.047 177.459 50.9916 181.566 51.1178 185.792C51.1766 187.755 51.1239 189.736 50.6694 191.66C50.4072 192.769 50.0544 194.266 49.105 195.032C48.6664 195.384 47.9179 195.507 47.5491 194.984C47.2037 194.494 47.5063 193.736 47.6165 193.212C48.0919 190.951 48.1886 188.641 48.0747 186.345C47.9644 184.12 47.7011 181.9 47.0015 179.776C46.351 177.805 45.3649 176.033 44.2035 174.31C43.0189 172.552 41.7889 170.791 41.3001 168.709C40.8027 166.594 41.2058 164.442 41.746 162.368C42.3169 160.174 43.0642 158.042 43.8372 155.908C44.5906 153.828 44.8577 151.859 44.4424 149.682C43.6204 145.381 41.4214 141.345 41.708 136.866Z" fill="#C6C2F9"/>
<path fill-rule="evenodd" clip-rule="evenodd" d="M77.1638 137.509C78.7846 138.002 80.3955 138.796 81.552 140.041C84.0095 142.69 83.2548 146.694 81.8987 149.618C80.4384 152.765 78.2247 155.928 79.4718 159.54C80.0464 161.2 81.0105 162.703 81.5544 164.376C82.1351 166.163 82.3863 168.026 82.3544 169.891C82.2944 173.317 81.3829 176.973 78.9095 179.497C76.7301 181.721 73.1677 183.018 72.353 186.283C71.5028 189.688 73.5817 193.502 74.5042 196.729C75.548 200.379 76.0845 204.693 74.8619 208.333C73.692 211.82 70.7359 214.562 67.3903 216.107C60.7063 219.195 52.9455 218.72 46.242 215.728C43.3962 214.459 40.2294 212.898 38.4604 210.265C37.914 209.45 37.7523 208.737 37.6335 207.792C37.5269 206.946 37.1863 206.274 36.7772 205.528C35.8804 203.888 35.5227 202.054 35.595 200.212C35.8768 193.055 41.1825 186.4 47.0015 182.516C48.381 181.596 49.5926 180.658 49.8804 178.96C50.1818 177.189 49.8167 175.307 49.5387 173.546C49.263 171.804 48.8355 170.069 48.8012 168.304C48.7656 166.454 49.2789 164.761 50.1549 163.142C51.8001 160.102 54.445 157.795 57.4832 156.111C60.4099 154.487 63.6097 153.113 65.0418 149.92C66.5597 146.538 65.6617 142.531 68.1559 139.513C69.1887 138.264 70.6367 137.154 72.3003 136.869C73.8953 136.594 75.6386 137.046 77.1638 137.509Z" fill="#E6E5F4"/>
<path d="M73.8538 143.103C74.0841 142.661 74.7383 142.626 75.1046 142.934C75.5885 143.337 75.3459 143.855 75.1254 144.314C74.448 145.727 74.0376 147.209 73.7632 148.752C73.1911 151.956 73.3197 155.203 73.1274 158.441C72.935 161.676 72.1534 164.756 70.2509 167.418C68.4562 169.927 66.3662 172.219 64.5568 174.727C62.9618 176.935 61.2749 179.264 60.9833 182.05C60.7028 184.733 61.5285 187.389 61.7943 190.046C62.3456 195.547 61.2981 200.905 59.2327 205.975C58.2735 208.33 57.1746 210.648 55.6335 212.689C54.7477 213.865 53.5508 215.454 52.0391 215.862C51.3433 216.05 50.4024 215.802 50.2456 214.991C50.0974 214.229 50.8496 213.489 51.2526 212.928C52.9922 210.5 54.3153 207.813 55.3848 205.033C56.42 202.342 57.2763 199.575 57.5703 196.693C57.8422 194.018 57.6156 191.403 57.1611 188.752C56.6968 186.051 56.1798 183.32 56.6993 180.598C57.2248 177.833 58.8247 175.497 60.5423 173.324C62.3591 171.024 64.3486 168.893 66.3711 166.77C68.341 164.701 69.6837 162.51 70.3379 159.715C71.6303 154.191 71.1734 148.257 73.8538 143.103Z" fill="#EFEEFB"/>
<path fill-rule="evenodd" clip-rule="evenodd" d="M27.0353 157.827C29.7317 157.827 32.1022 159.257 33.7364 161.284C35.6475 163.658 36.0347 166.558 36.8101 169.388C37.1972 170.796 37.8612 172.193 39.0263 173.15C40.0847 174.021 41.4298 174.195 42.6978 174.62C45.2312 175.469 47.2771 177.516 48.0844 180.013C49.0706 183.059 48.0268 186.131 48.2057 189.217C48.371 192.053 51.1666 193.821 53.4159 195.181C55.6332 196.52 57.6301 197.774 58.2977 200.385C59.007 203.153 59.2447 206.244 58.2634 208.98C56.6304 213.533 51.8502 215.539 47.2317 215.85C43.0408 216.132 37.7706 215.689 34.6222 212.646C32.7392 210.826 32.0569 208.28 32.1414 205.747C32.1941 204.171 32.5065 202.611 32.9095 201.088C33.195 200.009 33.5821 198.934 33.6923 197.819C33.9839 194.853 31.2422 194.284 28.9097 193.469C25.9438 192.434 23.8673 190.479 22.4242 187.755C21.0791 185.22 20.5156 182.373 21.3217 179.581C21.7333 178.155 22.4793 176.861 23.4925 175.761C23.9384 175.277 24.5656 174.873 24.9687 174.364C25.3435 173.889 25.2615 173.274 25.1328 172.717C24.5338 170.146 22.6704 168.018 22.004 165.452C21.4013 163.137 21.7578 160.254 23.8747 158.759C24.7898 158.114 25.9181 157.834 27.0353 157.827Z" fill="#C6C2F9"/>
<path fill-rule="evenodd" clip-rule="evenodd" d="M30.7134 164.524C33.5715 167.569 34.3482 171.699 34.5761 175.702C34.7047 177.947 34.5712 180.314 35.2303 182.492C35.795 184.356 37.1181 185.78 38.4816 187.127C41.2269 189.837 44.2871 192.592 45.0908 196.514C45.5612 198.816 45.2439 201.194 45.8944 203.47C46.4861 205.539 47.5287 207.573 48.7954 209.32C49.8171 210.728 51.1463 211.804 52.2623 213.116C52.6016 213.517 53.0892 214.106 52.9496 214.671C52.7842 215.334 51.9413 215.543 51.3435 215.439C49.9482 215.197 48.7746 213.865 47.8619 212.896C46.529 211.481 45.3958 209.957 44.4746 208.249C43.4517 206.352 42.6284 204.339 42.2768 202.211C41.9117 200.002 42.0931 197.701 41.2588 195.582C39.8561 192.016 36.4541 189.911 33.9942 187.133C30.9291 183.67 31.386 179.36 31.6996 175.099C31.8724 172.759 32.0439 170.115 30.8605 167.978C30.4096 167.162 29.4026 166.401 29.2091 165.474C29.0302 164.624 30.0017 163.765 30.7134 164.524Z" fill="#B9B3F9"/>
<path fill-rule="evenodd" clip-rule="evenodd" d="M33.7539 214.55C33.7539 231.959 36.5948 241.081 51.5945 241.081C66.5929 241.081 69.4339 231.959 69.4339 214.55H33.7539Z" fill="#9D95F8"/>
<path opacity="0.2" fill-rule="evenodd" clip-rule="evenodd" d="M47.9861 245.49C52.6461 245.49 54.772 245.647 56.4238 244.128C58.0756 242.609 57.1229 240.563 55.2184 239.892C53.314 239.22 43.1646 238.701 40.7539 239.892C38.3431 241.082 37.9273 242.111 39.5485 243.602C41.1697 245.093 43.3262 245.49 47.9861 245.49Z" fill="#FFBD00"/>
<path opacity="0.2" fill-rule="evenodd" clip-rule="evenodd" d="M33.5877 245.669C38.2477 245.669 40.3736 245.829 42.0254 244.27C43.6771 242.711 42.7244 240.611 40.82 239.922C38.9155 239.232 28.7662 238.7 26.3554 239.922C23.9447 241.144 23.5288 242.2 25.1501 243.73C26.7713 245.261 28.9277 245.669 33.5877 245.669Z" fill="#FFBD00"/>
<path fill-rule="evenodd" clip-rule="evenodd" d="M33.5877 244.721C38.2477 244.721 40.3736 244.366 42.0254 242.907C43.6771 241.448 42.7244 238.977 40.82 238.331C38.9155 237.686 28.7662 237.188 26.3554 238.331C23.9447 239.475 23.5288 241.475 25.1501 242.907C26.7713 244.339 28.9277 244.721 33.5877 244.721Z" fill="#FFBD00"/>
<path opacity="0.5" fill-rule="evenodd" clip-rule="evenodd" d="M33.5253 241.943C37.99 241.943 41.6093 240.812 41.6093 239.416C41.6093 238.021 37.99 236.89 33.5253 236.89C29.0607 236.89 25.4414 238.021 25.4414 239.416C25.4414 240.812 29.0607 241.943 33.5253 241.943Z" fill="#FE794D"/>
<path fill-rule="evenodd" clip-rule="evenodd" d="M33.5279 241.69C37.7135 241.69 41.1066 240.672 41.1066 239.416C41.1066 238.161 37.7135 237.143 33.5279 237.143C29.3423 237.143 25.9492 238.161 25.9492 239.416C25.9492 240.672 29.3423 241.69 33.5279 241.69Z" fill="#FFF5D9"/>
<path fill-rule="evenodd" clip-rule="evenodd" d="M35.352 237.649L32.5957 237.788L31.2618 237.856C31.113 237.863 30.9958 237.933 31.0001 238.012C31.0044 238.091 31.1285 238.149 31.2773 238.141L32.6112 238.073C33.0135 238.053 33.4007 238.138 33.6469 238.301C33.7628 238.378 33.8425 238.465 33.888 238.557L31.3069 238.687C31.1581 238.695 31.041 238.765 31.0453 238.844C31.0496 238.923 31.1736 238.98 31.3224 238.973L33.9133 238.842C33.905 238.867 33.8944 238.892 33.8805 238.917C33.7779 239.098 33.5301 239.24 33.1827 239.315C32.6539 239.429 32.0574 239.448 31.4798 239.466L31.3585 239.47C31.2452 239.473 31.1432 239.515 31.1042 239.573C31.0651 239.631 31.097 239.693 31.184 239.729L34.5919 241.126C34.6445 241.148 34.709 241.156 34.7727 241.153C34.847 241.149 34.92 241.129 34.9715 241.095C35.0673 241.031 35.0524 240.941 34.9383 240.895L32.0941 239.729C32.5173 239.707 32.9429 239.668 33.3559 239.579C33.872 239.468 34.2414 239.256 34.396 238.982C34.4272 238.927 34.4452 238.871 34.457 238.814L35.4126 238.766C35.5614 238.758 35.6785 238.688 35.6743 238.61C35.67 238.531 35.5459 238.473 35.3971 238.481L34.4385 238.529C34.3839 238.379 34.2615 238.236 34.0758 238.113C34.0184 238.075 33.9539 238.041 33.8864 238.009L35.3675 237.934C35.5163 237.927 35.6334 237.857 35.6291 237.778C35.6248 237.699 35.5008 237.641 35.352 237.649Z" fill="#FE794D"/>
<path fill-rule="evenodd" clip-rule="evenodd" d="M47.5903 242.934C52.0633 244.683 54.2064 245.178 56.2131 244.555C58.2199 243.932 58.0186 241.469 56.3769 240.205C54.7352 238.941 45.1369 234.707 42.4927 234.777C39.8485 234.847 38.8722 236.394 40.0149 238.223C41.1576 240.051 43.1172 241.186 47.5903 242.934Z" fill="#FFBD00"/>
<path opacity="0.5" fill-rule="evenodd" clip-rule="evenodd" d="M48.4324 240.369C52.7035 242.03 56.4914 242.421 56.8928 241.243C57.2942 240.065 54.1571 237.765 49.886 236.104C45.6148 234.444 41.8269 234.053 41.4255 235.231C41.0241 236.409 44.1612 238.709 48.4324 240.369Z" fill="#FE794D"/>
<path fill-rule="evenodd" clip-rule="evenodd" d="M48.5046 240.153C52.5062 241.706 56.0428 242.108 56.4038 241.05C56.7649 239.992 53.8136 237.875 49.812 236.321C45.8104 234.768 42.2737 234.366 41.9127 235.424C41.5517 236.482 44.503 238.599 48.5046 240.153Z" fill="#FFF5D9"/>
<path fill-rule="evenodd" clip-rule="evenodd" d="M51.4663 237.398L48.7351 236.453L47.4133 235.995C47.2659 235.944 47.131 235.961 47.112 236.031C47.0931 236.102 47.1972 236.201 47.3447 236.252L48.6665 236.71C49.0651 236.848 49.418 237.072 49.6105 237.311C49.7012 237.423 49.7533 237.531 49.7708 237.629L47.2132 236.744C47.0657 236.693 46.9309 236.709 46.9119 236.78C46.893 236.851 46.9971 236.95 47.1445 237.001L49.7118 237.89C49.6964 237.908 49.6787 237.926 49.6578 237.943C49.5044 238.063 49.2211 238.091 48.86 238.022C48.3104 237.918 47.7226 237.703 47.1534 237.496L47.0338 237.452C46.9225 237.411 46.8106 237.408 46.7554 237.444C46.7003 237.48 46.7131 237.547 46.7875 237.612L49.7037 240.161C49.7487 240.2 49.8092 240.233 49.8723 240.255C49.9459 240.28 50.023 240.291 50.0834 240.281C50.1956 240.262 50.2073 240.177 50.1097 240.092L47.6759 237.965C48.0954 238.109 48.5221 238.24 48.9513 238.322C49.4877 238.424 49.9105 238.381 50.1419 238.2C50.1885 238.163 50.2226 238.121 50.2506 238.076L51.1975 238.404C51.345 238.455 51.4799 238.438 51.4988 238.367C51.5178 238.296 51.4137 238.198 51.2662 238.147L50.3163 237.818C50.3071 237.665 50.2297 237.491 50.0845 237.311C50.0396 237.256 49.9866 237.201 49.9301 237.147L51.3977 237.655C51.5451 237.706 51.68 237.689 51.6989 237.618C51.7179 237.548 51.6138 237.449 51.4663 237.398Z" fill="#FE794D"/>
<path opacity="0.1" fill-rule="evenodd" clip-rule="evenodd" d="M36.8125 242.179C38.9364 242.179 40.8644 241.704 42.3702 241.343C44.1684 240.913 45.4116 240.525 46.3106 239.649C47.9623 238.041 47.0096 235.317 45.1052 234.606C43.2007 233.894 32.2935 234.18 29.8828 235.441C27.472 236.702 27.0562 238.906 28.6774 240.485C30.2986 242.063 32.1526 242.179 36.8125 242.179Z" fill="#FFBD00"/>
<path fill-rule="evenodd" clip-rule="evenodd" d="M37.7678 238.089C42.2408 236.34 44.1789 235.24 45.3431 233.377C46.5073 231.514 44.8797 229.767 42.8653 229.932C40.8509 230.097 30.9649 233.481 28.9811 235.36C26.9973 237.239 27.1752 239.098 29.1449 239.71C31.1145 240.321 33.2947 239.838 37.7678 238.089Z" fill="#FFBD00"/>
<path opacity="0.5" fill-rule="evenodd" clip-rule="evenodd" d="M36.8122 235.57C41.0834 233.91 44.2205 231.609 43.8191 230.431C43.4177 229.254 39.6298 229.645 35.3586 231.305C31.0875 232.965 27.9504 235.266 28.3518 236.444C28.7532 237.621 32.5411 237.23 36.8122 235.57Z" fill="#FE794D"/>
<path fill-rule="evenodd" clip-rule="evenodd" d="M36.7365 235.353C40.7382 233.799 43.6894 231.682 43.3284 230.624C42.9674 229.566 39.4308 229.968 35.4292 231.522C31.4275 233.075 28.4763 235.192 28.8373 236.25C29.1983 237.308 32.7349 236.906 36.7365 235.353Z" fill="#FFF5D9"/>
<path fill-rule="evenodd" clip-rule="evenodd" d="M37.3534 231.167L34.7041 232.357L33.4219 232.933C33.2789 232.997 33.1851 233.104 33.2124 233.172C33.2397 233.239 33.3778 233.242 33.5208 233.178L34.803 232.602C35.1897 232.428 35.5926 232.353 35.8807 232.401C36.0164 232.423 36.1199 232.469 36.1912 232.532L33.7102 233.647C33.5672 233.711 33.4734 233.818 33.5007 233.886C33.528 233.953 33.6661 233.956 33.8091 233.892L36.2994 232.773C36.2987 232.798 36.2957 232.824 36.2894 232.851C36.2427 233.051 36.0423 233.271 35.7251 233.472C35.2424 233.777 34.6659 234.024 34.1075 234.264L33.9902 234.315C33.8804 234.361 33.7932 234.438 33.7721 234.504C33.751 234.57 33.8005 234.612 33.8958 234.61L37.6323 234.519C37.69 234.517 37.7555 234.5 37.8167 234.472C37.8881 234.44 37.9536 234.394 37.9937 234.344C38.0684 234.251 38.0276 234.178 37.9025 234.181L34.7841 234.257C35.1908 234.074 35.5949 233.876 35.9719 233.637C36.443 233.34 36.7413 233.01 36.8118 232.709C36.826 232.649 36.8271 232.592 36.8221 232.538L37.7406 232.125C37.8836 232.061 37.9774 231.954 37.9501 231.887C37.9228 231.819 37.7847 231.816 37.6417 231.88L36.7202 232.294C36.6229 232.184 36.4614 232.105 36.2441 232.069C36.1769 232.058 36.1039 232.053 36.0288 232.051L37.4523 231.411C37.5954 231.347 37.6892 231.24 37.6618 231.173C37.6345 231.105 37.4965 231.102 37.3534 231.167Z" fill="#FE794D"/>
<path fill-rule="evenodd" clip-rule="evenodd" d="M265.112 15.1524L264.948 6.21094L252.601 15.8296L258.015 18.4139L209.325 120.425L156.882 71.6799L147.085 139.333L128.121 124.076L128.12 124.075L126.867 125.634L148.562 143.089L158.316 75.7419L209.957 123.744L259.82 19.2759L265.235 21.8608L265.112 15.1536L265.112 15.1524Z" fill="#EFEEFB"/>
<path fill-rule="evenodd" clip-rule="evenodd" d="M136.635 39.9126C141.687 43.8118 147.155 56.9768 143.985 59.4868C142.722 60.4878 139.284 60.9444 135.365 60.467L143.39 73.2658L131.928 78.3699L127.726 58.3148C124.382 56.7241 121.49 54.2374 120.168 50.5982C116.358 40.1104 131.582 36.0122 136.635 39.9126Z" fill="#F8E4E5"/>
<path fill-rule="evenodd" clip-rule="evenodd" d="M128.18 37.6826C131.519 36.5253 134.825 36.2225 135.897 36.4398C137.246 39.4686 137.055 40.6296 131.982 42.794C131.032 43.9965 130.579 45.5408 130.242 47.4513C133.388 53.3355 135.902 55.8589 137.786 55.0214C140.609 53.764 142.211 50.9135 143.45 50.3617C144.353 49.9601 144.652 51.1735 144.425 52.2747C144.237 53.1817 142.127 54.9165 142.602 55.9822C143.076 57.0492 144.61 55.3779 144.892 56.0103C145.357 57.0565 146.567 58.8743 144.742 59.6873C142.895 60.5101 137.3 62.1985 135.178 59.8753C133.809 58.3762 131.806 54.8981 129.172 49.4412C129.052 49.4754 128.935 49.5194 128.819 49.5706C127.237 50.275 126.523 52.1233 127.223 53.6969C127.578 54.4965 128.232 55.0715 128.995 55.3523C128.746 56.5792 128.435 57.8818 128.031 59.2649C123.982 58.7803 119.12 54.2475 119.856 47.4855C119.549 44.4702 120.881 42.1934 122.902 40.5124C124.428 38.8997 126.332 37.9463 128.18 37.6826Z" fill="#132056"/>
<path fill-rule="evenodd" clip-rule="evenodd" d="M143.177 199.577C141.505 200.036 139.77 200.424 137.972 200.741C136.174 201.06 134.378 201.436 132.586 201.869L132.959 207.208L135.827 210.075C138.429 209.16 140.281 208.581 141.382 208.339C143.032 207.976 144.312 208.134 144.806 208.1C145.716 208.035 145.172 205.195 143.177 199.577Z" fill="#F8E4E5"/>
<path fill-rule="evenodd" clip-rule="evenodd" d="M131.645 197.048L140.001 198.452C138.788 201.4 138.738 205.25 139.851 209.997C135.821 214.567 132.773 220.535 130.706 227.903C130.557 228.434 130.007 228.742 129.476 228.594C129.442 228.584 129.409 228.573 129.376 228.559L126.844 227.549L128.81 208.836L129.958 197.921L131.645 197.048Z" fill="#B9B3F9"/>
<path fill-rule="evenodd" clip-rule="evenodd" d="M168.693 123.422C191.612 144.864 203.409 160.401 204.081 170.032C204.755 179.663 199.943 187.416 189.644 193.293C164.955 203.983 150.052 209.507 144.935 209.865C144.993 210.7 144.18 207.098 142.496 199.06C163.523 187.624 174.29 179.56 174.799 174.869C175.564 167.833 171.644 165.608 159.713 155.084C151.759 148.068 147.118 138.618 145.787 126.731L168.693 123.422Z" fill="#4F44D0"/>
<path fill-rule="evenodd" clip-rule="evenodd" d="M121.916 75.4883L128.959 97.1927C119.883 100.49 114.026 103.514 111.391 106.263C107.437 110.387 110.423 112.398 127.06 123.084C143.698 133.771 156.837 131.441 157.192 136.511C157.428 139.89 152.746 141.832 143.145 142.335C128.892 136.247 118.348 132.359 111.513 130.67C101.258 128.137 89.2761 119.349 88.9246 114.32C88.7598 111.958 90.4371 101.343 100.997 89.2063C103.949 85.8137 110.922 81.2406 121.916 75.4883Z" fill="#F8E4E5"/>
<path fill-rule="evenodd" clip-rule="evenodd" d="M90.2817 142.847C86.1383 139.506 84.0276 137.286 83.9506 136.189C83.875 135.091 81.7239 134.483 77.5 134.366L77.909 140.211L78.7489 143.09C81.2356 146.9 82.5211 149.423 82.6078 150.658C82.6945 151.893 85.661 150.431 91.5085 146.271L90.2817 142.847Z" fill="#F8E4E5"/>
<path fill-rule="evenodd" clip-rule="evenodd" d="M158.226 124.156C160.734 129.149 162.325 136.467 163 146.11C164.011 160.577 154.735 178.707 147.744 187.268C140.751 195.828 134.263 202.23 123.1 194.961C115.659 190.116 101.682 175.536 81.1719 151.223L90.893 142.234C110.199 162.467 122.004 172.274 126.308 171.658C130.611 171.041 129.637 157.104 123.383 129.842L158.226 124.156Z" fill="#675AF6"/>
<path fill-rule="evenodd" clip-rule="evenodd" d="M82.4821 129.089L86.778 136.393C83.7395 137.36 80.7583 139.795 77.837 143.699C71.7465 143.549 65.2152 145.051 58.2433 148.203C57.7403 148.43 57.1495 148.208 56.9224 147.705C56.9078 147.673 56.8943 147.64 56.8834 147.606L56.0312 145.018L71.6293 134.496L80.729 128.359L82.4821 129.089Z" fill="#B9B3F9"/>
<path fill-rule="evenodd" clip-rule="evenodd" d="M184.996 40.3535C192.325 53.0436 196.068 60.5014 196.223 62.7281C196.457 66.0682 192.422 71.6814 186.621 72.0867C182.753 72.3577 177.801 72.3101 171.764 71.9451L157.234 70.2531L164.807 94.6871C179.345 92.3176 189.125 90.2288 194.146 88.4208C201.676 85.7095 210.842 81.101 210.015 69.2703C209.463 61.384 204.529 51.8424 195.211 40.6465L184.996 40.3535Z" fill="#F8E4E5"/>
<path fill-rule="evenodd" clip-rule="evenodd" d="M173.422 24.4825C172.469 23.1286 171.687 22.7783 171.079 23.4289C170.167 24.4043 170.435 25.2577 172.89 28.5355C175.345 31.8133 177.397 33.3308 178.266 33.4846C178.845 33.5871 180.492 35.201 183.208 38.325L185.372 37.0371L178.944 24.9708L173.422 24.4825Z" fill="#F8E4E5"/>
<path fill-rule="evenodd" clip-rule="evenodd" d="M173.106 26.6911C172.416 25.5472 172.588 23.6648 173.62 21.045C175.49 18.3006 176.913 16.6587 177.893 16.1203C179.827 15.0582 182.215 15.6564 183.284 16.887C185.167 19.0526 187.283 24.2092 189.631 32.358L186.323 36.8102C183.883 35.742 182.314 34.5835 181.617 33.3322C180.92 32.0809 180.12 29.4013 179.218 25.2933C179.344 29.1595 178.862 31.0615 177.77 30.998C176.134 30.9028 174.141 28.4075 173.106 26.6911Z" fill="#F8E4E5"/>
<path fill-rule="evenodd" clip-rule="evenodd" d="M182.684 37.7106L188.514 44.4176L195.401 41.0531L189.165 31.6836C187.238 33.9579 185.8 35.5376 184.849 36.4227C183.898 37.3078 183.177 37.7375 182.684 37.7106Z" fill="#F8E4E5"/>
<path fill-rule="evenodd" clip-rule="evenodd" d="M172.571 70.4116C173.645 73.1071 174.167 76.8 174.135 81.4915C174.12 83.5693 173.099 85.6202 172.872 87.5137C172.681 89.1019 172.527 91.3152 172.407 94.156C168.903 94.8005 166.375 94.9776 164.824 94.687C163.644 94.466 159.928 100.144 162.033 111.317C162.476 113.673 164.699 117.707 168.702 123.423C144.159 136.418 129.831 141.52 125.718 138.728C124.403 137.836 119.107 136.145 119.813 137.188C120.519 138.229 124.046 114.796 123.801 111.313C123.595 108.362 122.797 105.099 121.405 101.526L116.887 104.396C115.864 100.17 114.71 97.0834 113.427 95.1363C111.502 92.2161 110.268 93.1854 107.763 90.0297C106.091 87.9263 105.009 85.9535 104.512 84.1113C118.092 77.0942 125.438 73.383 126.549 72.9741C128.217 72.3625 132.102 73.7432 138.254 72.1561C144.407 70.5679 141.126 69.5656 144.513 69.3288C151.784 68.8197 161.136 69.1811 172.571 70.4116Z" fill="#C6C2F9"/>
<path fill-rule="evenodd" clip-rule="evenodd" d="M121.338 101.37C118.179 94.4755 116.764 89.6924 117.092 87.0225C118.207 77.9521 125.109 73.0738 126.54 72.9737C127.557 72.9029 125.29 70.5797 121.735 72.3816C119.297 73.6183 112.906 77.3869 102.562 83.6874L116.877 104.397L121.338 101.37Z" fill="#B9B3F9"/>
<path fill-rule="evenodd" clip-rule="evenodd" d="M164.401 94.7857C160.009 90.8023 156.408 90.8645 153.599 94.9737C150.788 99.0829 152.788 110.116 159.599 128.077C162.995 126.241 165.94 125.188 168.434 124.918C170.928 124.649 174.577 124.989 179.379 125.94C169.519 121.036 163.765 115.876 162.118 110.459C160.501 105.139 160.796 99.0914 164.066 95.0433C164.116 94.981 164.228 94.8943 164.401 94.7857Z" fill="#B9B3F9"/>
<path fill-rule="evenodd" clip-rule="evenodd" d="M223.949 73.2109H231.949V75.2109H223.949V73.2109Z" fill="#C6C2F9"/>
<path fill-rule="evenodd" clip-rule="evenodd" d="M214.414 32.3318L220.071 26.6748L221.485 28.0888L215.828 33.7458L214.414 32.3318Z" fill="#C6C2F9"/>
<path fill-rule="evenodd" clip-rule="evenodd" d="M180.377 1.10986L182.256 1.79386L179.52 9.31186L177.641 8.62786L180.377 1.10986Z" fill="#C6C2F9"/>
<path fill-rule="evenodd" clip-rule="evenodd" d="M80.9492 75.2109V73.2109H88.9492V75.2109H80.9492Z" fill="#C6C2F9"/>
<path fill-rule="evenodd" clip-rule="evenodd" d="M91.2422 28.406L92.5282 26.874L98.6562 32.016L97.3702 33.548L91.2422 28.406Z" fill="#C6C2F9"/>
<path fill-rule="evenodd" clip-rule="evenodd" d="M132.641 3.79386L134.52 3.10986L137.256 10.6279L135.377 11.3119L132.641 3.79386Z" fill="#C6C2F9"/>
</g>
<defs>
<clipPath id="clip0">
<rect width="320" height="252" fill="white" transform="translate(0.949219 0.210938)"/>
</clipPath>
</defs>
</svg>
