<?xml version="1.0" encoding="UTF-8"?>
<svg width="100px" height="60px" viewBox="0 0 100 60" version="1.1" xmlns="http://www.w3.org/2000/svg" xmlns:xlink="http://www.w3.org/1999/xlink">
    <!-- Generator: Sketch 55.2 (78181) - https://sketchapp.com -->
    <title>Group 2</title>
    <desc>Created with Sketch.</desc>
    <defs>
        <rect id="path-1" x="0" y="0" width="100" height="60" rx="3"></rect>
    </defs>
    <g id="assets" stroke="none" stroke-width="1" fill="none" fill-rule="evenodd">
        <g id="Group-2">
            <g id="icn">
                <g id="ic_select_bank-copy-2">
                    <mask id="mask-2" fill="white">
                        <use xlink:href="#path-1"></use>
                    </mask>
                    <use id="Rectangle-351" fill="#FFFFFF" xlink:href="#path-1"></use>
                    <path d="M74.9745113,23.403866 C83.2245113,23.403866 97.4745113,23.403866 100.474511,15.153866 C103.474511,6.90386604 78.5309629,7.38773701 72.7245113,1.5812854 C66.9180597,-4.22516622 57.5558925,-3.59613396 48.7245113,-3.59613396 C39.8931301,-3.59613396 41.5666067,-13.3297199 34.4745113,-11.846134 C27.382416,-10.362548 33.7245113,-2.92821923 31.4745113,1.5812854 C31.4745113,4.38381957 31.4745113,11.6580131 31.4745113,23.403866 C51.2245113,23.403866 65.7245113,23.403866 74.9745113,23.403866 Z" id="Oval" fill="#3792FC" fill-rule="nonzero" opacity="0.05" mask="url(#mask-2)" transform="translate(65.861948, 5.701933) scale(-1, -1) translate(-65.861948, -5.701933) "></path>
                    <path d="M17.2856144,59.675161 C46.7333474,49.2048559 59.8212288,72.7630423 59.8212288,59.675161 C59.8212288,46.5872797 44.1157711,40.043339 36.2630423,32.1906102 C28.4103136,24.3378814 31.8468778,11.25 19.9031907,11.25 C7.95950355,11.25 13.9767953,18.5865724 0.925762739,24.3378814 C-12.12527,30.0891903 -12.1621186,70.1454661 17.2856144,59.675161 Z" id="Oval" fill="#3792FC" fill-rule="nonzero" opacity="0.05" mask="url(#mask-2)"></path>
                    <path d="M66.0356144,45.425161 C95.4833474,34.9548559 108.571229,58.5130423 108.571229,45.425161 C108.571229,32.3372797 92.8657711,25.793339 85.0130423,17.9406102 C77.1603136,10.0878814 80.5968778,-3 68.6531907,-3 C56.7095035,-3 62.7267953,4.33657244 49.6757627,10.0878814 C36.62473,15.8391903 23.5,0.926364402 23.5,17.9406102 C23.5,34.9548559 36.5878814,55.8954661 66.0356144,45.425161 Z" id="Oval" fill="#3792FC" fill-rule="nonzero" opacity="0.05" mask="url(#mask-2)" transform="translate(66.035614, 23.250000) scale(-1, 1) translate(-66.035614, -23.250000) "></path>
                    <path d="M19.2770509,25.6172581 C20.3358744,25.1112028 21.4206495,24.5272927 22.3756668,23.8421716 C22.7260128,23.5904415 22.3808571,23.0999571 22.012345,23.2945938 C20.9924488,23.8291958 19.995909,24.5195073 19.0876045,25.2227945 C18.9007533,25.3629329 19.0357014,25.731445 19.2770509,25.6172581 L19.2770509,25.6172581 Z" id="Shape" fill="#3792FC" fill-rule="nonzero" opacity="0.05" mask="url(#mask-2)"></path>
                    <path d="M88.8122953,35.9158402 C88.5917071,34.763591 88.3036448,33.5646291 87.8832296,32.4668782 C87.7301154,32.0646291 87.1669666,32.2722416 87.2603922,32.679681 C87.5173126,33.8033834 87.9325375,34.9400616 88.3814995,35.9988852 C88.4723299,36.2142831 88.8641984,36.1779509 88.8122953,35.9158402 L88.8122953,35.9158402 Z" id="Shape" fill="#3792FC" fill-rule="nonzero" opacity="0.05" mask="url(#mask-2)"></path>
                    <path d="M23.1967024,4.74397584 C23.1759412,4.72580975 23.1577751,4.70764366 23.1370138,4.69207273 C22.8749031,4.45850871 22.4441072,4.41439107 22.189782,4.69207273 C21.9328616,4.97234954 21.940647,5.35902774 22.189782,5.63930456 C22.2079481,5.66006581 22.2261142,5.6782319 22.2416851,5.69899314 C22.4752491,5.96369902 22.9605432,5.95591356 23.1967024,5.69899314 C23.4302664,5.44207273 23.4769792,4.99311079 23.1967024,4.74397584 L23.1967024,4.74397584 Z" id="Shape" fill="#3792FC" fill-rule="nonzero" opacity="0.05" mask="url(#mask-2)"></path>
                    <path d="M83.5064484,8.82141525 C83.5722606,8.39206882 83.5597249,7.98465979 83.7979025,7.60545601 C84.2773916,6.85331628 84.9574513,7.04135121 85.6155735,7.37354626 C86.2862315,7.71200914 86.9192824,7.91257974 87.6463508,7.59918818 C88.7839622,7.10716344 89.3198617,5.38977771 88.232393,4.58122749 C87.8813945,4.31797858 87.5335299,4.75045893 87.5805386,5.08265398 C87.6463508,5.54333957 87.8751267,6.05416781 87.4802533,6.44904117 C86.9506216,6.9786729 86.3301063,6.53365689 85.8004746,6.29547931 C85.2301019,6.03849823 84.6221223,5.98208775 84.0360801,6.22026533 C83.0238254,6.63080827 82.2873552,8.00346329 83.0927715,8.93110229 C83.2055925,9.05959283 83.4782431,9.00004844 83.5064484,8.82141525 L83.5064484,8.82141525 Z" id="Shape" fill="#3792FC" fill-rule="nonzero" opacity="0.05" mask="url(#mask-2)"></path>
                    <path d="M71.7650465,52.2428221 C70.7245991,53.2418174 70.3308043,54.7962706 71.3215091,55.9983811 C72.2541811,57.1300231 74.0656373,57.3663 75.2304409,56.4667897 C78.0491828,54.2905551 75.1102299,50.2821384 72.0717919,51.1111801 C71.5080435,51.2645528 71.6489806,52.0687233 72.2044386,52.0977398 C73.0915132,52.1474823 74.0449112,52.1806439 74.7537419,52.8065704 C75.5164603,53.473949 75.5330411,54.605591 74.9071146,55.3765998 C73.2490312,57.4118973 70.3722564,54.4149114 72.113244,52.5910196 C72.3370853,52.3630331 71.9971782,52.023126 71.7650465,52.2428221 L71.7650465,52.2428221 Z" id="Shape" fill="#3792FC" fill-rule="nonzero" opacity="0.05" mask="url(#mask-2)"></path>
                    <path d="M10.757268,45.6141129 C11.0819614,46.8211253 11.4384183,48.0140205 11.8125215,49.2069157 C11.9007534,49.4927871 12.1725076,49.5845482 12.4195569,49.415143 C13.3901078,48.7551684 14.3571294,48.1093109 15.2782704,47.3787508 C15.4547342,47.2375798 15.4159121,46.9552377 15.2429776,46.8352424 C14.1665485,46.0976237 12.7160161,45.0070775 11.3501864,45 C11.0043173,44.9964897 10.7607973,45.487059 11.1137249,45.6882277 C11.6642919,46.0058626 12.3242665,46.1187994 12.9136556,46.3623194 C13.5912765,46.6446615 14.2653682,46.9764134 14.8653451,47.4034558 C14.8794622,47.2058163 14.8935793,47.0081769 14.9041671,46.8105374 C13.8771479,47.4422778 12.9101263,48.1516622 11.9360462,48.8575174 C12.1266271,48.8963394 12.3207372,48.9351615 12.5113181,48.9739835 C12.0948636,47.7952054 11.6678212,46.6270151 11.2054861,45.4658834 C11.1066663,45.2223633 10.6902118,45.3564758 10.757268,45.6141129 L10.757268,45.6141129 Z" id="Shape" fill="#3792FC" fill-rule="nonzero" opacity="0.05" mask="url(#mask-2)"></path>
                </g>
            </g>
            <g id="delivery-truck" transform="translate(29.000000, 15.000000)" fill-rule="nonzero">
                <g id="Group-9">
                    <path d="M25.53125,0 L4.03125,0 C3.2895,0 2.6875,0.6 2.6875,1.33928571 L2.6875,24.1071429 L26.875,24.1071429 L26.875,1.33928571 C26.875,0.6 26.273,0 25.53125,0 Z" id="Path" fill="#3792FC"></path>
                    <path d="M42.8091875,18.0642857 L38.7779375,11.3651786 C38.533375,10.9607143 38.098,10.7142857 37.625,10.7142857 L30.90625,10.7142857 C30.1645,10.7142857 29.5625,11.3142857 29.5625,12.0535714 L29.5625,26.7857143 L41.65625,26.7857143 C42.398,26.7857143 43,26.1857143 43,25.4464286 L43,18.75 C42.9355,18.5169643 42.8736875,18.2973214 42.8091875,18.0642857 Z" id="Path" fill="#94C5FF"></path>
                    <g id="Group" transform="translate(32.250000, 13.392857)" fill="#FAFAFA">
                        <polygon id="Path" points="0 0 4.6144375 0 7.8394375 5.35714286 0 5.35714286"></polygon>
                        <ellipse id="Oval" cx="4.03125" cy="12.0535714" rx="2.6875" ry="2.67857143"></ellipse>
                    </g>
                    <path d="M36.28125,29.4642857 C34.0586875,29.4642857 32.25,27.6616071 32.25,25.4464286 C32.25,23.23125 34.0586875,21.4285714 36.28125,21.4285714 C38.5038125,21.4285714 40.3125,23.23125 40.3125,25.4464286 C40.3125,27.6616071 38.5038125,29.4642857 36.28125,29.4642857 Z M36.28125,24.1071429 C35.5421875,24.1071429 34.9375,24.7098214 34.9375,25.4464286 C34.9375,26.1830357 35.5421875,26.7857143 36.28125,26.7857143 C37.0203125,26.7857143 37.625,26.1830357 37.625,25.4464286 C37.625,24.7098214 37.0203125,24.1071429 36.28125,24.1071429 Z" id="Shape" fill="#D0E6FF"></path>
                    <g id="Group">
                        <path d="M29.5625,26.7857143 L1.34375,26.7857143 C0.602,26.7857143 0,26.1857143 0,25.4464286 L0,21.4285714 L29.5625,21.4285714 L29.5625,26.7857143 Z" id="Path" fill="#94C5FF"></path>
                        <polygon id="Path" fill="#D0E6FF" points="18.8125 0 18.8125 10.7142857 14.78125 7.14375 10.75 10.7142857 10.75 0"></polygon>
                    </g>
                    <ellipse id="Oval" fill="#FAFAFA" cx="9.40625" cy="25.4464286" rx="2.6875" ry="2.67857143"></ellipse>
                    <path d="M9.40625,29.4642857 C7.1836875,29.4642857 5.375,27.6616071 5.375,25.4464286 C5.375,23.23125 7.1836875,21.4285714 9.40625,21.4285714 C11.6288125,21.4285714 13.4375,23.23125 13.4375,25.4464286 C13.4375,27.6616071 11.6288125,29.4642857 9.40625,29.4642857 Z M9.40625,24.1071429 C8.6645,24.1071429 8.0625,24.7098214 8.0625,25.4464286 C8.0625,26.1830357 8.6645,26.7857143 9.40625,26.7857143 C10.148,26.7857143 10.75,26.1830357 10.75,25.4464286 C10.75,24.7098214 10.148,24.1071429 9.40625,24.1071429 Z" id="Shape" fill="#D0E6FF"></path>
                </g>
            </g>
        </g>
    </g>
</svg>