<svg width="310" height="125" viewBox="0 0 310 125" fill="none" xmlns="http://www.w3.org/2000/svg">
<mask id="mask0" mask-type="alpha" maskUnits="userSpaceOnUse" x="0" y="0" width="310" height="125">
<rect width="310" height="125" fill="#C4C4C4"/>
</mask>
<g mask="url(#mask0)">
<mask id="mask1" mask-type="alpha" maskUnits="userSpaceOnUse" x="-12" y="0" width="334" height="126">
<rect x="-12" width="334" height="125.25" rx="4" fill="#F7FAFF"/>
</mask>
<g mask="url(#mask1)">
<path d="M286.774 122.825C281.361 125.154 83.515 124.914 59.0324 124.914C48.893 124.914 39.7587 126.673 32.6642 122.138C25.2661 117.407 19.4751 110.566 14.0174 104.979C2.74372 93.4401 -6.36077 80.8054 -7.68913 67.2761C-8.19659 62.0889 -7.43042 56.6256 -2.88315 52.2129C1.66412 47.8002 10.8283 44.8044 19.0622 46.3293C26.893 47.7792 34.0373 52.9213 41.5199 50.9101C46.5547 49.5563 47.9478 45.729 48.8731 42.4509C52.3358 30.1644 58.704 17.5447 73.4204 8.80038C88.1419 0.0590409 113.172 -3.34804 129.779 4.06349C138.938 8.15199 144.122 14.69 147.973 21.1619C151.824 27.6339 154.779 34.406 160.958 40.1816C167.137 45.9571 177.5 50.703 188.878 50.3698C198.868 50.0756 207.406 46.0381 214.565 41.8236C221.724 37.606 228.585 32.8901 237.829 30.5847C247.072 28.2763 259.655 29.381 264.242 34.7452C268.232 39.4131 264.779 45.0145 261.819 49.9525C258.376 55.701 255.63 61.8248 257.102 67.8705C258.575 73.9162 265.207 79.8568 275.023 81.3607C283.998 82.7356 293.704 80.2771 302.645 81.7299C315.918 83.8883 321.675 94.1756 317.56 102.088C313.446 110.001 302.456 115.837 291.401 120.766C291.401 120.766 291.401 120.766 291.396 120.766C289.63 121.558 288.132 122.24 286.774 122.825Z" fill="#F9FCFF"/>
<path d="M175.583 9.39357C177.377 9.41223 179.065 10.103 180.575 10.9282C186.936 14.4045 191.018 20.3602 192.978 26.5846C194.942 32.8091 194.991 39.3472 194.75 45.7883C194.654 48.4431 195.244 58.3866 190.537 56.0604C187.396 54.507 184.272 46.6322 182.71 43.9139C179.621 38.5444 177.434 32.7942 176.226 26.902C175.933 25.4831 174.17 9.37863 175.583 9.39357Z" fill="#EDF5FF"/>
<path d="M200.144 60.3465C207.026 51.2917 216.594 43.738 227.707 38.5889C228.004 42.2369 226.149 45.773 223.852 48.8647C218.41 56.1832 213.309 61.295 205.945 67.1348C203.85 68.7964 195.034 73.7365 194.439 72.8888C192.558 70.2116 198.399 62.6392 200.144 60.3465Z" fill="#E3EFFF"/>
<path d="M188.559 106.17L187.728 105.991C189.443 100.162 190.686 94.0163 191.421 87.7283C192.116 81.7839 192.379 75.5407 192.199 69.1744C192.033 63.2001 191.473 56.942 190.537 50.5756C189.644 44.5117 188.428 38.3544 186.923 32.2718C185.724 27.4326 183.939 21.126 180.737 15.245C180.382 14.5953 180.011 13.9494 179.63 13.3258L180.391 12.9897C180.776 13.6245 181.157 14.278 181.516 14.9389C184.757 20.887 186.556 27.2459 187.763 32.1225C189.272 38.2237 190.493 44.4034 191.386 50.486C192.326 56.8785 192.886 63.1627 193.057 69.1594C193.236 75.5557 192.974 81.8287 192.274 87.803C191.534 94.1246 190.283 100.304 188.559 106.17Z" fill="#E3EFFF"/>
<path d="M192.457 80.5323C192.453 80.5323 192.444 80.5323 192.44 80.5323C192.204 80.5248 192.02 80.353 192.029 80.1514C192.212 76.1262 194.649 71.4326 199.278 66.1977C205.893 58.7186 212.731 50.9856 222.072 45.6236C222.269 45.5116 222.536 45.5564 222.667 45.7245C222.798 45.8925 222.746 46.1203 222.549 46.2323C213.326 51.5233 206.532 59.2077 199.961 66.6383C195.441 71.75 193.061 76.3054 192.886 80.1775C192.877 80.3792 192.685 80.5323 192.457 80.5323Z" fill="#EFF6FF"/>
<path fill-rule="evenodd" clip-rule="evenodd" d="M192.41 67.9823C192.449 67.9973 192.488 68.0047 192.528 68.0047C192.646 68.0047 192.755 67.9487 192.803 67.8479C195.38 62.7362 198.058 56.7693 198.88 50.5822C198.885 50.5747 198.89 50.5672 198.896 50.5598C198.901 50.5523 198.907 50.5448 198.911 50.5374C200.346 48.0356 201.523 45.575 202.704 43.062C205.132 37.8942 206.235 33.5479 206.173 29.3846C206.13 26.5543 205.517 22.6411 203.054 19.0453C203.063 18.8735 202.783 18.5226 201.654 17.2754L201.378 16.9692L201.155 17.3053C197.581 22.6635 197.402 28.9477 197.647 33.828C197.738 35.441 197.878 37.0914 198.014 38.6896C198.29 41.9306 198.574 45.2762 198.482 48.5136C198.053 55.3392 195.092 62.0155 192.252 67.6463C192.187 67.777 192.257 67.9263 192.41 67.9823ZM198.246 33.8098C198.014 29.1423 198.172 23.1755 201.379 18.0339C201.685 18.4558 202.179 18.9188 202.398 19.113C204.909 22.6677 205.526 26.5808 205.57 29.3962C205.635 33.4886 204.546 37.7715 202.144 42.8758C201.16 44.978 200.171 47.0428 199.038 49.1226C199.055 48.9385 199.067 48.751 199.08 48.5666L199.082 48.5364C199.174 45.2692 198.889 41.9087 198.614 38.6564C198.478 37.062 198.338 35.4153 198.246 33.8098Z" fill="#E3EFFF"/>
<path d="M243.165 76.1593C242.308 75.0241 240.912 74.2736 239.482 73.6949C233.457 71.2715 226.33 71.4582 219.96 73.1236C213.59 74.7889 207.842 77.8246 202.316 80.9984C200.037 82.3053 191.055 86.5919 195.298 88.5037C198.129 89.7807 206.49 88.078 209.605 87.8017C215.756 87.2528 221.815 85.9534 227.542 83.9595C228.912 83.4778 243.839 77.0517 243.165 76.1593Z" fill="#F2F8FF"/>
<path d="M237.767 74.7734C237.032 74.8257 236.279 74.8892 235.531 74.9713C228.802 75.692 222.393 77.5254 217.554 79.0451C211.503 80.9419 205.523 83.0628 199.778 85.3442C193.741 87.7414 187.975 90.329 182.646 93.0361C182.007 93.361 181.377 93.6858 180.747 94.0182C181.185 94.0406 181.622 94.0667 182.06 94.0928C182.383 93.9248 182.703 93.7568 183.031 93.5925C188.338 90.9003 194.082 88.3202 200.093 85.9342C205.82 83.6602 211.783 81.5468 217.812 79.6537C222.612 78.1489 228.969 76.3268 235.623 75.6136C236.358 75.5352 237.097 75.468 237.824 75.4194L237.767 74.7734Z" fill="#E2EEFF"/>
<path fill-rule="evenodd" clip-rule="evenodd" d="M201.354 75.3152C194.174 80.2029 188.509 86.6328 183.849 92.398C183.762 92.51 183.762 92.6481 183.845 92.749C183.871 92.7826 183.906 92.8162 183.95 92.8423C184.121 92.9431 184.357 92.9058 184.475 92.7602C189.607 86.4087 195.968 79.2433 204.206 74.2884C208.188 72.0368 212.558 70.0541 216.789 68.1386C218.876 67.1939 221.033 66.2156 223.106 65.2223C229.367 62.1792 237.098 57.8105 241.398 50.9736L241.674 50.548L241.105 50.4994C238.795 50.309 238.165 50.2866 237.96 50.4135C231.817 50.5778 226.515 52.6427 222.953 54.4947C217.708 57.2205 213.018 61.1337 208.188 66.8018C205.843 69.5575 203.554 72.2795 201.389 75.2554C201.376 75.2741 201.363 75.2965 201.354 75.3152ZM223.342 55.0435C226.891 53.1989 232.193 51.1415 238.314 51.0519C238.708 51.1229 239.613 51.2648 240.348 51.2573C236.069 57.6162 228.715 61.7534 222.73 64.6659C220.734 65.6224 218.656 66.565 216.638 67.4801L216.43 67.5746L216.429 67.5749C212.181 69.5015 207.793 71.4916 203.773 73.7618C203.537 73.9036 203.301 74.0455 203.069 74.1912C204.911 71.7678 206.831 69.4864 208.796 67.1825C213.564 61.5816 218.189 57.7245 223.342 55.0435Z" fill="#D3E6FD"/>
<path d="M201.879 74.6017L202.347 75.1095C203.52 74.3179 205.02 73.1865 206.608 71.9842C208.49 70.5653 210.432 69.0941 211.858 68.1868C216.513 65.2108 221.308 62.2909 226.117 59.5016C230.925 56.7161 235.873 53.9866 240.83 51.3878L240.436 50.8389C235.47 53.4414 230.509 56.1747 225.692 58.9677C220.875 61.7606 216.067 64.6881 211.403 67.6677C209.955 68.5938 208 70.0724 206.105 71.4988C204.53 72.6974 203.034 73.825 201.879 74.6017Z" fill="#D3E6FD"/>
<path d="M115.663 32.5026C110.536 24.1169 103.247 17.4531 94.6668 13.3079C94.316 16.9549 95.6634 20.3042 97.3752 23.1717C101.427 29.9618 105.276 34.5938 110.885 39.7469C112.483 41.2147 119.258 45.3487 119.755 44.4584C121.317 41.6324 116.963 34.6272 115.663 32.5026Z" fill="#F3F9FF"/>
<path d="M119.915 44.7479C119.041 42.6621 117.787 40.4882 116.154 38.2373C111.188 31.3889 106.054 24.3075 98.8717 19.8024C98.7208 19.7052 98.5083 19.7745 98.4001 19.9545C98.2886 20.1326 98.324 20.3551 98.4771 20.4485C105.562 24.8977 110.667 31.932 115.603 38.7372C117.317 41.1008 118.603 43.369 119.459 45.5304C119.615 45.267 119.763 45.0037 119.915 44.7479Z" fill="#D5E8FF"/>
<path d="M189.812 95.2087C189.174 92.7771 188.73 89.9377 190.393 88.3844C190.637 88.1551 190.949 87.9593 191.317 88.0046C191.972 88.0814 192.385 88.8278 192.953 89.2264C194.152 90.0713 195.663 89.073 195.904 87.7986C196.146 86.5241 195.63 85.131 195.494 83.7887C195.375 82.6167 195.548 81.4649 195.995 80.4557C196.58 79.1386 198.215 78.0343 199.584 78.9828C200.575 79.6732 200.738 80.9699 200.976 82.0812C201.214 83.1926 201.981 84.5524 203.111 84.56C204.082 84.566 204.52 83.5541 204.842 82.7078C205.621 80.6364 206.782 78.7493 208.26 77.1435C209.291 76.0243 210.538 75.0141 212.132 74.748C213.723 74.479 215.715 75.1469 216.647 76.6302C217.512 78.0147 217.245 79.6671 216.63 80.9589C214.954 84.4807 211.214 86.3923 208.362 89.015C207.688 89.6341 207.063 90.6988 207.778 91.4937C208.281 92.0519 209.098 92.0451 209.806 92.0931C211.527 92.2065 213.302 92.9699 214.674 94.1939C214.908 94.405 215.14 94.6388 215.245 94.9219C215.488 95.5646 214.984 96.1312 214.445 96.4396C211.948 97.8636 208.169 96.8415 205.863 98.5139C205.555 98.738 205.265 99.05 205.295 99.4559C205.318 99.7483 205.51 100.031 205.725 100.265C206.614 101.24 207.935 101.646 209.09 102.27C210.246 102.894 211.412 104.077 211.184 105.221C211.011 106.08 210.115 106.522 209.254 106.751C206.603 107.446 203.577 107.003 200.753 106.012C198.222 105.122 194.904 103.795 192.76 102.021C190.742 100.342 190.397 97.4448 189.812 95.2087Z" fill="#E8F3FF"/>
<path d="M212.898 79.3681L191.102 105.343" stroke="#E5EDF7" stroke-width="0.8" stroke-linecap="round"/>
<path d="M198.284 80.2314C199.097 84.7691 199.798 89.3105 200.387 93.85" stroke="#E5EDF7" stroke-width="0.8" stroke-linecap="round"/>
<path d="M191.436 89.7754C192.505 93.5099 193.485 97.2565 194.379 101.01" stroke="#E5EDF7" stroke-width="0.8" stroke-linecap="round"/>
<path d="M199.706 95.6773C203.825 95.4639 207.959 95.3156 212.104 95.2355" stroke="#E5EDF7" stroke-width="0.8" stroke-linecap="round"/>
<path d="M181.601 55.6257C180.611 55.4922 179.56 55.4899 178.548 55.6625C177.129 55.7853 175.668 56.3414 174.54 57.3944C172.103 59.6665 171.958 63.4402 172.956 66.2248C173.956 69.0232 175.881 71.3411 178.384 72.7674C180.165 73.7819 182.317 74.3483 184.506 73.8661C184.65 73.8332 184.792 73.7979 184.937 73.7535C186.837 73.8005 188.53 72.834 189.86 71.197C190.855 69.9704 191.574 67.9463 191.698 66.4683C191.847 64.6462 191.589 62.9789 190.708 61.5312C188.885 58.5338 185.184 56.1192 181.601 55.6257Z" fill="#F2F8FF"/>
<path d="M176.367 60.1776L192.165 73.4336" stroke="#E2EEFF" stroke-width="0.8" stroke-linecap="round"/>
<path d="M174.695 67.667C177.411 67.416 180.127 67.1649 182.843 66.9139" stroke="#E2EEFF" stroke-width="0.8" stroke-linecap="round"/>
<path d="M178.386 71.2207C179.541 71.0817 180.693 70.9807 181.845 70.9083" stroke="#E2EEFF" stroke-width="0.8" stroke-linecap="round"/>
<path d="M184.01 70.8853C185.423 70.7749 186.839 70.621 188.258 70.4234" stroke="#E2EEFF" stroke-width="0.8" stroke-linecap="round"/>
<path d="M181.527 64.4215C181.231 62.3745 180.879 60.3428 180.479 58.3278" stroke="#E2EEFF" stroke-width="0.8" stroke-linecap="round"/>
<path d="M186.745 68.6067C186.637 66.9055 186.563 65.1987 186.515 63.4846" stroke="#E2EEFF" stroke-width="0.8" stroke-linecap="round"/>
<path d="M85.741 27.1106C84.3764 27.8894 83.4085 29.1317 82.6453 30.399C79.4288 35.7221 79.1362 41.928 80.5992 47.4314C82.0609 52.9313 85.1449 57.8486 88.4007 62.5723C89.7426 64.5197 94.0297 72.2177 96.5317 68.462C98.1988 65.9558 96.8373 58.7228 96.7413 56.016C96.5505 50.6694 95.4863 45.4302 93.5996 40.5022C93.1476 39.3117 86.8207 26.4951 85.741 27.1106Z" fill="#EDF5FF"/>
<path d="M91.2101 75.779C81.6154 71.9439 70.6782 70.3815 59.7002 71.2778C61.2112 74.1372 64.3217 75.9932 67.5572 77.3229C75.2221 80.4736 81.5673 82.1218 90 83.3401C92.3983 83.687 101.512 83.6164 101.565 82.7267C101.731 79.9206 93.6454 76.7522 91.2101 75.779Z" fill="#EDF5FF"/>
<path d="M121.948 105.138L122.501 104.65C118.405 101.02 114.521 96.9496 110.96 92.5515C107.591 88.3976 104.417 83.8349 101.513 78.991C98.7928 74.4459 96.2361 69.5194 93.9175 64.3513C91.7113 59.4284 89.7043 54.2979 87.957 49.1006C86.5681 44.965 84.9294 39.4779 84.5775 33.7012C84.5407 33.0629 84.5163 32.4202 84.5106 31.7904L83.7684 31.8619C83.7738 32.5036 83.7967 33.1549 83.8373 33.8037C84.1891 39.644 85.8403 45.1782 87.2406 49.3454C88.9943 54.5602 91.0036 59.7098 93.2203 64.6488C95.5466 69.8379 98.115 74.784 100.847 79.3486C103.76 84.2171 106.955 88.7999 110.338 92.9768C113.918 97.3914 117.825 101.485 121.948 105.138Z" fill="#E3EFFF"/>
<path d="M106.731 87.6095C106.736 87.608 106.74 87.6065 106.743 87.6015C106.918 87.4941 106.982 87.2878 106.878 87.1429C104.817 84.2055 100.71 81.7347 94.6681 79.7934C86.0283 77.0214 77.0986 74.1562 67.381 74.1407C67.1758 74.1399 66.993 74.2899 66.9739 74.4677C66.952 74.6505 67.0993 74.7996 67.3032 74.7969C76.8958 74.8141 85.7716 77.6592 94.3534 80.4126C100.257 82.3051 104.252 84.6975 106.235 87.5241C106.336 87.674 106.553 87.7064 106.731 87.6095Z" fill="#E3EFFF"/>
<path fill-rule="evenodd" clip-rule="evenodd" d="M81.7959 63.5777C86.9054 69.685 93.8973 74.4277 100.196 78.3142C100.316 78.3895 100.477 78.3828 100.595 78.3118C100.638 78.2883 100.678 78.2579 100.71 78.2183C100.836 78.0652 100.814 77.8628 100.652 77.7629C93.7114 73.4821 85.9301 68.1566 80.8149 61.1255C78.5149 57.7228 76.5438 53.97 74.6417 50.343C73.7064 48.5536 72.7345 46.702 71.7378 44.923C68.6831 39.5618 64.2103 32.9526 56.6551 29.4123L56.182 29.1871L56.0889 29.6859C55.7063 31.7047 55.6364 32.2546 55.7655 32.4302C55.5187 37.777 57.5119 42.3324 59.3907 45.3838C62.1547 49.8693 66.3192 53.841 72.496 57.879C75.4954 59.8391 78.4592 61.7524 81.73 63.5501C81.7528 63.5616 81.7744 63.5697 81.7959 63.5777ZM60.0551 45.0232C58.1868 41.9879 56.1977 37.431 56.5284 32.0973C56.6356 31.7523 56.8633 30.9581 56.9041 30.3154C63.912 33.8483 68.145 40.1316 71.0692 45.2621C71.9986 46.9187 72.9027 48.64 73.7841 50.3181C73.8455 50.4349 73.9068 50.5516 73.968 50.6681L73.9763 50.6838C75.8863 54.3219 77.8589 58.0794 80.182 61.5112C80.3295 61.7118 80.477 61.9125 80.6286 62.1116C77.9725 60.5829 75.488 58.9759 72.9771 57.3348C66.8794 53.3475 62.7732 49.4339 60.0551 45.0232Z" fill="#E3EFFF"/>
<path d="M81.0171 63.1374L81.6316 62.715C80.8082 61.7193 79.6083 60.4435 78.3393 59.0934C76.8411 57.4969 75.2911 55.8478 74.3465 54.634C71.2552 50.669 68.2375 46.5738 65.375 42.4699C62.5125 38.366 59.7278 34.1304 57.0954 29.8911L56.4348 30.2508C59.0711 34.5006 61.8666 38.7402 64.7329 42.8546C67.5992 46.9691 70.6235 51.0697 73.7227 55.0438C74.6845 56.2792 76.2438 57.9408 77.7541 59.5448C79.0109 60.8874 80.203 62.1542 81.0171 63.1374Z" fill="#E3EFFF"/>
<path d="M91.1833 103.032C86.232 98.718 83.1859 92.3066 80.7847 85.7269C91.9513 81.2469 104.244 84.2115 110.946 92.9968C112.114 94.5295 113.139 96.2633 113.507 98.3146C114.509 103.935 110.716 106.913 106.219 107.459C100.494 108.159 95.3213 106.633 91.1833 103.032Z" fill="#F2F8FF"/>
<path d="M84.898 87.4746L118.489 106.868" stroke="#EAF3FE" stroke-width="0.8" stroke-linecap="round"/>
<path d="M85.2178 94.187C88.1502 94.0816 91.0871 93.9384 94.0286 93.7574" stroke="#EAF3FE" stroke-width="0.8" stroke-linecap="round"/>
<path d="M100.65 96.2756C99.8833 92.7263 98.8524 89.2768 97.5653 85.9724" stroke="#EAF3FE" stroke-width="0.8" stroke-linecap="round"/>
<path d="M109.576 43.0124C110.943 43.4061 112.144 44.4401 113.197 45.5683C117.618 50.3241 119.998 57.0446 120.726 63.5883C121.454 70.132 120.68 76.5869 119.697 82.8829C119.294 85.4792 118.511 95.4008 115.206 92.124C112.999 89.939 111.592 81.5235 110.734 78.5163C109.042 72.5769 108.084 66.4543 107.893 60.3932C107.852 58.9422 108.502 42.7032 109.576 43.0124Z" fill="#F2F8FF"/>
<path d="M112.804 47.5557C113.019 48.2606 113.229 48.9859 113.421 49.7138C115.159 56.2539 115.745 62.8946 116.06 67.9566C116.457 74.2851 116.621 80.6286 116.549 86.809C116.475 93.3046 116.126 99.6152 115.508 105.56C115.434 106.273 115.356 106.978 115.272 107.685C115.094 107.284 114.913 106.885 114.732 106.486C114.773 106.124 114.815 105.765 114.851 105.4C115.462 99.481 115.812 93.1935 115.886 86.7264C115.956 80.5649 115.792 74.2405 115.399 67.9337C115.084 62.9138 114.507 56.3261 112.788 49.8581C112.598 49.1439 112.396 48.4295 112.181 47.7341L112.804 47.5557Z" fill="#E2EEFF"/>
<path fill-rule="evenodd" clip-rule="evenodd" d="M125.348 81.7447C123.358 90.1988 119.385 97.7924 115.673 104.208C115.6 104.33 115.471 104.38 115.347 104.338C115.306 104.326 115.262 104.305 115.222 104.274C115.067 104.151 115.017 103.917 115.111 103.754C119.201 96.6869 123.611 88.1803 125.284 78.7136C125.96 74.1899 126.244 69.399 126.517 64.7629C126.651 62.4761 126.791 60.1119 126.975 57.8199C127.573 50.8845 128.881 42.1017 133.722 35.6366L134.021 35.2268L134.27 35.7404C135.276 37.8287 135.522 38.4088 135.477 38.6463C137.525 44.4397 137.498 50.13 137.045 54.1184C136.38 59.9925 134.408 65.7734 130.847 72.3139C129.115 75.4907 127.394 78.6023 125.391 81.6906C125.379 81.7095 125.362 81.7298 125.348 81.7447ZM136.393 53.9518C136.844 49.9783 136.864 44.2907 134.754 38.5444C134.547 38.2022 134.09 37.4076 133.834 36.7188C129.43 42.9922 128.204 51.3407 127.629 57.972C127.452 60.1784 127.317 62.4561 127.185 64.6676L127.172 64.896L127.172 64.8966C126.895 69.5528 126.61 74.3625 125.931 78.9295C125.883 79.2009 125.836 79.4723 125.783 79.741C127.385 77.153 128.827 74.5423 130.274 71.8828C133.794 65.4236 135.737 59.724 136.393 53.9518Z" fill="#D3E6FD"/>
<path d="M125.826 80.9987L125.184 80.7437C125.503 79.3654 126.022 77.559 126.575 75.6454C127.226 73.3806 127.903 71.0399 128.239 69.3832C129.349 63.9709 130.356 58.448 131.237 52.9596C132.115 47.4726 132.89 41.8749 133.54 36.3159L134.193 36.4868C133.543 42.0553 132.769 47.6666 131.888 53.1644C131.007 58.6623 129.997 64.2002 128.886 69.622C128.541 71.3058 127.861 73.6615 127.209 75.9412C126.654 77.8411 126.137 79.6421 125.826 80.9987Z" fill="#D3E6FD"/>
<path d="M112.803 109.496C112.96 109.127 113.322 108.888 113.723 108.888H196.278C196.679 108.888 197.041 109.127 197.198 109.496L199.288 114.4C199.569 115.06 199.085 115.793 198.368 115.793H111.632C110.915 115.793 110.431 115.06 110.712 114.4L112.803 109.496Z" fill="url(#paint0_linear)"/>
<rect x="111.5" y="17.7441" width="51.2211" height="93.9054" rx="6" fill="#73ADF1"/>
<path d="M153.633 22.2437H149.136C148.559 22.2437 148.092 22.7123 148.092 23.2902V24.6288C148.092 25.8706 147.077 26.8867 145.838 26.8867H128.655C127.416 26.8867 126.402 25.8707 126.402 24.6288V23.7032C126.402 22.8971 125.75 22.2437 124.945 22.2437H120.861C118.71 22.2437 116.968 23.9899 116.968 26.1441V97.5965C116.968 100.064 116.633 103.416 118.816 104.943C120.596 106.188 128.684 106.06 128.684 106.06H153.633C155.783 106.06 157.526 104.314 157.526 102.16V26.1441C157.526 23.9899 155.783 22.2437 153.633 22.2437Z" fill="#E4F0FF"/>
<rect x="121.255" y="95.7964" width="32.9279" height="7.31731" rx="1" fill="#BBDAFF"/>
<path d="M142.917 23.6555H135.563C134.785 23.6555 134.154 23.0238 134.154 22.2442C134.154 21.4647 134.785 20.833 135.563 20.833H142.917C143.694 20.833 144.325 21.4647 144.325 22.2442C144.325 23.0238 143.694 23.6555 142.917 23.6555Z" fill="#D8EAFF"/>
<path d="M130.351 23.4176C129.343 22.7535 129.587 21.1302 130.856 20.8605C131.719 20.682 132.541 21.352 132.541 22.2433C132.541 22.8988 132.089 23.4862 131.406 23.6282C131.316 23.6452 130.638 23.6117 130.351 23.4176Z" fill="#D8EAFF"/>
<path d="M197.583 109.687C197.583 105.864 197.583 92.6177 197.583 89.4205V85.8373V77.7081C197.583 76.6285 196.739 75.7451 195.707 75.7451H195.041C192.365 75.7451 140.229 75.7451 137.315 75.7451C136.284 75.7451 135.439 76.6285 135.439 77.7081V85.8373C135.439 88.3437 135.439 90.4972 135.439 93.0036V109.687C135.439 110.767 136.284 111.65 137.315 111.65H146.306H147.039C147.923 111.65 193.886 111.65 195.707 111.65C196.739 111.65 197.583 110.767 197.583 109.687Z" fill="white"/>
<rect x="141.882" y="95.4717" width="22.0954" height="2.76192" rx="1.38096" fill="#E4F0FF"/>
<rect x="141.882" y="100.995" width="30.3812" height="2.76192" rx="1.38096" fill="#E4F0FF"/>
<path fill-rule="evenodd" clip-rule="evenodd" d="M162.596 98.4506C162.87 98.3136 163.077 98.0774 163.283 97.825C163.533 97.5177 163.779 97.2257 164.083 96.9759C164.447 96.677 164.934 96.3909 165.547 96.3004C165.426 96.9992 165.363 97.7174 165.362 98.4506H162.596ZM164.659 90.7469L164.659 90.7472L164.659 90.7468C164.965 90.7654 165.263 90.6645 165.567 90.5487C165.937 90.4077 166.296 90.2778 166.684 90.2134C167.151 90.1363 167.719 90.1328 168.298 90.3643C167.381 91.4627 166.646 92.7187 166.141 94.0864C165.655 93.7014 165.376 93.2096 165.21 92.7682C165.071 92.3998 165.004 92.0242 164.941 91.6328C164.89 91.3114 164.828 91.0031 164.659 90.7469ZM170.296 85.1073L170.296 85.1075V85.1071C170.552 85.2766 170.86 85.3381 171.181 85.3898C171.573 85.4531 171.948 85.5198 172.316 85.6582C172.76 85.8251 173.253 86.1062 173.639 86.5963C172.271 87.0993 171.014 87.8332 169.914 88.7497C169.682 88.1702 169.686 87.6009 169.763 87.1331C169.827 86.7449 169.957 86.3862 170.098 86.0156C170.214 85.7116 170.315 85.4138 170.296 85.1073ZM177.996 83.043V83.0434L177.997 83.043C178.134 83.3178 178.37 83.5252 178.622 83.7304C178.929 83.9812 179.221 84.2267 179.471 84.5307C179.771 84.8975 180.059 85.3887 180.148 86.0072C179.449 85.8873 178.73 85.824 177.997 85.824C177.263 85.824 176.545 85.8873 175.845 86.0074C175.934 85.3887 176.221 84.8975 176.522 84.5307C176.772 84.2267 177.064 83.9812 177.371 83.7304C177.623 83.5252 177.86 83.3178 177.996 83.043ZM185.697 85.1071V85.1075L185.697 85.1073C185.678 85.4136 185.779 85.7115 185.895 86.0156C186.036 86.3862 186.166 86.7449 186.23 87.1331C186.307 87.6008 186.311 88.17 186.079 88.7495C184.979 87.8331 183.722 87.0994 182.354 86.5961C182.74 86.1062 183.233 85.8251 183.677 85.6582C184.045 85.5196 184.42 85.453 184.812 85.3897C185.133 85.3381 185.441 85.2766 185.697 85.1071ZM191.334 90.7467L191.334 90.7469H191.334C191.165 91.0029 191.104 91.3114 191.052 91.6328C190.989 92.024 190.922 92.3998 190.784 92.768C190.617 93.2095 190.338 93.7012 189.852 94.0863C189.347 92.7186 188.613 91.4625 187.695 90.3642C188.274 90.1328 188.842 90.1362 189.309 90.2132C189.697 90.2776 190.056 90.4076 190.426 90.5486C190.73 90.6645 191.028 90.7654 191.334 90.7467ZM190.446 96.3002C191.059 96.3909 191.546 96.6768 191.91 96.9759C192.214 97.2256 192.46 97.5175 192.71 97.825C192.916 98.0773 193.123 98.3136 193.398 98.4506H190.631C190.63 97.7174 190.567 96.9992 190.446 96.3002ZM181.668 87.3774C186.318 88.914 189.679 93.2889 189.699 98.4509H187.398C187.55 93.9418 185.583 89.8718 181.668 87.3774Z" fill="#FAB401"/>
<path fill-rule="evenodd" clip-rule="evenodd" d="M182.136 98.4503H183.331C183.389 97.1504 183.278 95.6104 182.857 94.2656C182.774 94.0004 182.679 93.7427 182.572 93.4968C182.317 92.9157 181.975 92.3897 181.566 91.9035C181.113 91.3636 180.572 90.8779 179.962 90.4954C179.782 90.3824 179.596 90.2783 179.403 90.1842V90.1839C179.212 90.0903 179.014 90.0069 178.811 89.9346L178.81 89.9342C176.481 89.1072 174.126 89.6954 172.151 90.7706C171.765 90.9801 171.395 91.2081 171.042 91.4475C170.689 91.6869 170.353 91.9383 170.037 92.1946H170.037L170.036 92.1952C169.661 92.4996 169.192 92.9159 168.728 93.4082C168.636 93.505 168.546 93.6037 168.458 93.7036C168.223 93.97 167.861 94.3436 167.968 94.7301C168.053 95.0366 168.448 94.9461 168.586 94.8405C168.797 94.7272 169.03 94.5474 169.228 94.3792C169.497 94.1515 169.751 93.9064 170.017 93.6755C171.094 92.7417 172.217 92.0215 173.322 91.534C173.563 91.4279 173.804 91.3323 174.045 91.2479C174.284 91.1636 174.523 91.0907 174.759 91.0293L174.76 91.029C176.817 90.4945 179.053 90.8409 180.484 92.5191C181.863 94.1358 182.115 96.2999 182.136 98.4503ZM167.298 96.6229C167.427 96.5029 167.557 96.3464 167.694 96.173C167.885 95.9308 167.904 95.6962 167.829 95.5269C167.801 95.4637 167.759 95.4094 167.709 95.3671C167.659 95.3254 167.6 95.2955 167.536 95.281C167.38 95.2454 167.194 95.301 167.036 95.4934C166.858 95.7109 166.611 96.0826 166.561 96.4114C166.551 96.4731 166.549 96.533 166.555 96.5892C166.561 96.644 166.576 96.6959 166.6 96.7433L166.6 96.7439L166.601 96.7438C166.641 96.821 166.709 96.8617 166.799 96.8651C166.818 96.8658 166.839 96.865 166.86 96.8625C166.881 96.8603 166.904 96.8561 166.929 96.8504V96.8505L166.93 96.8502C167.052 96.821 167.174 96.7391 167.298 96.6229ZM179.703 98.4503H180.889C180.945 97.0494 180.719 95.6024 180.068 94.3504C179.476 93.2115 178.497 92.4373 177.23 92.2501C175.38 91.9772 173.513 92.7605 171.935 93.8817C170.216 95.1023 168.798 96.7598 167.558 98.4503L169.125 98.4482C170.535 96.4482 173.78 93.412 176.166 93.3921C176.926 93.3857 177.7 93.5645 178.271 94.0747C178.686 94.4444 179.188 95.1625 179.163 95.7452C179.149 96.0908 178.842 96.1967 178.548 96.0898C178.32 96.0065 178.158 95.7977 177.999 95.5782C177.479 94.865 176.669 94.5159 175.781 94.6375C174.721 94.7826 173.408 95.6056 172.561 96.3541C171.83 96.9998 171.16 97.7065 170.527 98.4503H172.211C172.829 97.7049 173.481 97.0691 174.319 96.5467C174.584 96.3814 174.91 96.2066 175.254 96.0887C176.12 95.7907 176.981 95.8662 177.364 96.945C177.514 97.369 177.536 97.7409 177.493 98.4227L177.492 98.4503H178.638L178.641 98.4154C178.642 98.0422 178.634 97.7906 178.667 97.4207C178.696 97.1017 178.795 96.7713 179.091 96.7322C179.72 96.6003 179.69 98.0004 179.703 98.4503ZM171.629 102.071H170.698L170.468 102.882H169.726L170.707 99.7756H171.647L172.657 102.882H171.882L171.629 102.071ZM170.804 101.546H171.518C171.331 100.939 171.21 100.522 171.154 100.296H171.145L170.998 100.887L170.804 101.546ZM168.211 102.071H167.28L167.049 102.882H166.308L167.289 99.7756H168.229L169.238 102.882H168.464L168.211 102.071ZM167.386 101.546H168.1C167.913 100.939 167.791 100.522 167.736 100.296H167.727L167.579 100.887L167.386 101.546ZM173.366 102.869V99.8169C173.673 99.771 174.002 99.748 174.352 99.748C175.014 99.748 175.489 99.886 175.777 100.164C176.065 100.441 176.209 100.803 176.209 101.251C176.209 101.779 176.045 102.189 175.717 102.479C175.389 102.77 174.883 102.915 174.2 102.915C173.883 102.915 173.605 102.899 173.366 102.869ZM174.08 100.324V102.348C174.12 102.357 174.206 102.362 174.338 102.362C174.693 102.362 174.968 102.268 175.162 102.081C175.356 101.894 175.453 101.627 175.453 101.278C175.453 100.959 175.365 100.715 175.187 100.548C175.01 100.38 174.754 100.296 174.421 100.296C174.281 100.296 174.168 100.306 174.08 100.324ZM176.973 99.7756H177.687V100.969H178.908V99.7756H179.623V102.882H178.908V101.587H177.687V102.882H176.973V99.7756ZM182.212 102.071H181.281L181.051 102.882H180.309L181.29 99.7756H182.23L183.239 102.882H182.465L182.212 102.071ZM181.387 101.546H182.101C181.914 100.939 181.792 100.522 181.737 100.296H181.728L181.581 100.887L181.387 101.546ZM185.63 102.071H184.7L184.469 102.882H183.727L184.709 99.7756H185.649L186.658 102.882H185.884L185.63 102.071ZM184.806 101.546H185.52C185.332 100.939 185.211 100.522 185.156 100.296H185.147L184.999 100.887L184.806 101.546ZM187.367 102.882V99.8169C187.628 99.771 187.949 99.748 188.33 99.748C188.8 99.748 189.138 99.8255 189.344 99.9807C189.55 100.136 189.652 100.358 189.652 100.647C189.652 100.819 189.601 100.974 189.497 101.113C189.394 101.252 189.259 101.351 189.095 101.407V101.426C189.288 101.498 189.428 101.688 189.514 101.997C189.672 102.554 189.758 102.849 189.772 102.882H189.044C188.983 102.767 188.909 102.526 188.823 102.159C188.78 101.974 188.722 101.845 188.648 101.772C188.574 101.698 188.456 101.661 188.293 101.661H188.072V102.882H187.367ZM188.072 100.296V101.149H188.367C188.545 101.149 188.686 101.108 188.789 101.028C188.891 100.947 188.943 100.839 188.943 100.702C188.943 100.565 188.897 100.459 188.804 100.385C188.711 100.31 188.579 100.273 188.408 100.273C188.241 100.273 188.129 100.281 188.072 100.296ZM175.427 98.4532L176.378 98.4503C176.503 97.6471 176.259 97.0287 175.446 97.1761C174.762 97.3005 174.027 97.9808 173.583 98.4503L174.836 98.4448C174.976 98.3529 175.249 98.2482 175.361 98.3263C175.403 98.3554 175.425 98.3968 175.427 98.4532ZM185.127 98.451L185.135 98.4506H185.14C185.265 98.4575 185.482 98.3998 185.607 98.1885C185.632 98.1462 185.653 98.0979 185.67 98.0431C185.686 97.9873 185.698 97.924 185.702 97.8529H185.703L185.703 97.8383C185.799 94.5156 184.781 91.765 183.054 89.8961C182.719 89.5334 182.356 89.2033 181.969 88.9085C181.583 88.6141 181.173 88.3551 180.742 88.1344V88.1346L180.735 88.131L180.735 88.1309C179.283 87.3887 177.637 87.1037 176.021 87.2407C175.706 87.2674 175.392 87.3099 175.083 87.3682C174.773 87.4263 174.465 87.5007 174.162 87.5901L174.157 87.5915C172.495 88.0832 170.949 89.0594 169.689 90.3403C169.443 90.5898 169.209 90.8508 168.987 91.1213C168.877 91.2557 168.769 91.3927 168.665 91.5318C169.549 90.769 170.497 90.0999 171.489 89.5682C171.712 89.4484 171.937 89.336 172.162 89.2317C172.388 89.1273 172.616 89.0298 172.847 88.94L172.848 88.9398L172.848 88.9395C173.724 88.5989 174.588 88.3815 175.452 88.2844C176.316 88.1873 177.181 88.2105 178.058 88.3501C178.683 88.4496 179.293 88.6131 179.842 88.8422C179.949 88.8864 180.054 88.9338 180.157 88.9835C180.258 89.0326 180.358 89.085 180.455 89.1401H180.456L180.457 89.1409V89.141C182.391 90.2005 183.735 92.3747 184.327 94.8295C184.442 95.3082 184.529 95.7973 184.586 96.2899C184.643 96.7825 184.67 97.2801 184.667 97.7772V97.7774L184.667 97.8058C184.676 98.0718 184.768 98.2942 184.924 98.3943C184.953 98.4129 184.984 98.4274 185.018 98.4368H185.018C185.052 98.4465 185.088 98.4514 185.127 98.451Z" fill="#D32828"/>
<path d="M151.172 92.7093H143.639C142.673 92.7093 141.882 91.5063 141.882 90.0358V84.3352C141.882 82.8647 142.673 81.6616 143.639 81.6616H151.172C152.139 81.6616 152.93 82.8647 152.93 84.3352V90.0358C152.929 91.5063 152.138 92.7093 151.172 92.7093Z" fill="#B8D9FF"/>
<path fill-rule="evenodd" clip-rule="evenodd" d="M135.858 32.0455C136.632 30.7303 138.533 30.7303 139.307 32.0455L154.99 58.7235C155.773 60.0567 154.812 61.737 153.265 61.737H121.9C120.353 61.737 119.392 60.0567 120.175 58.7235L135.858 32.0455ZM139.766 55.2934C139.766 55.5959 139.71 55.8796 139.598 56.1443C139.486 56.409 139.329 56.636 139.127 56.825C138.926 57.0141 138.691 57.1654 138.422 57.2789C138.153 57.3923 137.87 57.4491 137.571 57.4491C137.273 57.4491 136.993 57.3961 136.731 57.2902C136.47 57.1843 136.243 57.033 136.049 56.8364C135.855 56.6397 135.698 56.4128 135.578 56.1557C135.459 55.8985 135.399 55.6186 135.399 55.3161C135.399 55.0287 135.455 54.7526 135.567 54.4879C135.679 54.2231 135.832 53.9924 136.026 53.7958C136.22 53.5991 136.452 53.4441 136.72 53.3306C136.989 53.2172 137.273 53.1604 137.571 53.1604C137.87 53.1604 138.153 53.2172 138.422 53.3306C138.691 53.4441 138.926 53.5953 139.127 53.7844C139.329 53.9735 139.486 54.2004 139.598 54.4652C139.71 54.7299 139.766 55.006 139.766 55.2934ZM135.399 40.2943L136.491 51.0159H138.674L139.766 40.2943H135.399Z" fill="#D0021B"/>
</g>
</g>
<defs>
<linearGradient id="paint0_linear" x1="155" y1="108.888" x2="155" y2="115.793" gradientUnits="userSpaceOnUse">
<stop offset="0.130208" stop-color="#A0BCDD"/>
<stop offset="1" stop-color="#E0E9F3" stop-opacity="0"/>
</linearGradient>
</defs>
</svg>
