<svg width="310" height="126" viewBox="0 0 310 126" fill="none" xmlns="http://www.w3.org/2000/svg">
<mask id="mask0" mask-type="alpha" maskUnits="userSpaceOnUse" x="0" y="0" width="310" height="126">
<rect y="0.582031" width="310" height="125" fill="#C4C4C4"/>
</mask>
<g mask="url(#mask0)">
<path d="M280.512 130.257C275.34 132.661 86.2987 132.413 62.9057 132.413C53.2176 132.413 44.4897 134.228 37.7109 129.548C30.6421 124.667 25.1088 117.608 19.894 111.844C9.12201 99.9373 0.422692 86.9005 -0.846553 72.9407C-1.33143 67.5884 -0.599359 61.9512 3.74555 57.3981C8.09045 52.8449 16.8468 49.7537 24.7142 51.3272C32.1966 52.8232 39.0229 58.129 46.1726 56.0538C50.9833 54.6569 52.3144 50.7077 53.1986 47.3254C56.5071 34.6479 62.5919 21.6265 76.6534 12.6039C90.7197 3.58436 114.636 0.0688426 130.504 7.71625C139.255 11.9349 144.209 18.6809 147.888 25.3589C151.567 32.0368 154.391 39.0245 160.295 44.9838C166.199 50.9431 176.101 55.8401 186.973 55.4963C196.519 55.1927 204.676 51.0268 211.517 46.6781C218.357 42.3263 224.913 37.4603 233.745 35.0815C242.577 32.6996 254.6 33.8395 258.983 39.3745C262.795 44.1909 259.496 49.9706 256.668 55.0657C253.378 60.9972 250.754 67.3158 252.161 73.5539C253.568 79.792 259.905 85.9217 269.284 87.4735C277.86 88.8921 287.134 86.3554 295.677 87.8545C308.36 90.0815 313.86 100.696 309.928 108.861C305.997 117.026 295.496 123.047 284.933 128.133C284.933 128.133 284.933 128.133 284.928 128.133C283.241 128.95 281.81 129.654 280.512 130.257Z" fill="#EFEEFB"/>
<path d="M207.815 2.83086C209.534 3.84689 210.777 5.45223 211.772 7.0873C215.968 13.9769 216.588 21.9875 215.014 29.0767C213.444 36.1682 209.852 42.4959 206.037 48.5693C204.467 51.0743 199.503 60.9855 196.261 56.1244C194.098 52.8797 195.469 43.5525 195.476 40.0638C195.487 33.1707 196.579 26.412 198.693 20.0618C199.2 18.5313 206.462 2.0302 207.815 2.83086Z" fill="#E6E5F4"/>
<path d="M203.134 65.6015C214.804 60.7044 228.228 58.7484 241.803 59.9692C240.059 63.6504 236.304 66.026 232.371 67.7275C223.054 71.7522 215.293 73.8402 204.948 75.3713C202.004 75.8066 190.759 75.6623 190.658 74.5144C190.334 70.8876 200.176 66.8397 203.134 65.6015Z" fill="#C6C2F9"/>
<path d="M166.479 103.315L165.777 102.68C170.673 98.0171 175.29 92.7853 179.497 87.1345C183.475 81.7929 187.202 75.9223 190.571 69.6872C193.735 63.8372 196.677 57.4946 199.317 50.8383C201.831 44.4979 204.085 37.8873 206.019 31.1881C207.556 25.8575 209.345 18.7866 209.531 11.3372C209.551 10.5139 209.552 9.68443 209.532 8.87171L210.452 8.97141C210.47 9.79736 210.473 10.6389 210.451 11.4754C210.266 19.0115 208.461 26.1401 206.911 31.5115C204.971 38.2312 202.709 44.8658 200.185 51.2242C197.535 57.9081 194.578 64.2759 191.406 70.1499C188.02 76.4138 184.276 82.3132 180.278 87.6812C176.048 93.3619 171.404 98.6212 166.479 103.315Z" fill="#C6C2F9"/>
<path d="M184.499 80.7778C184.495 80.7754 184.486 80.7705 184.482 80.7681C184.259 80.6294 184.177 80.3617 184.298 80.1722C186.714 76.3953 191.674 73.228 199.048 70.7584C209.584 67.2313 220.477 63.5837 232.462 63.6135C232.714 63.6151 232.946 63.8067 232.979 64.0417C233.012 64.2767 232.835 64.4669 232.583 64.4654C220.751 64.4329 209.928 68.0581 199.461 71.5628C192.261 73.9745 187.433 77.0403 185.11 80.6745C184.989 80.864 184.718 80.9044 184.499 80.7778Z" fill="#EFEEFB"/>
<path fill-rule="evenodd" clip-rule="evenodd" d="M191.433 68.6558C191.462 68.6921 191.496 68.7212 191.534 68.7431C191.648 68.8088 191.784 68.8157 191.887 68.7453C197.214 65.2528 203.115 60.9923 207.35 55.4873C207.358 55.4826 207.368 55.4784 207.377 55.4742C207.386 55.4701 207.396 55.4659 207.404 55.4612C210.179 53.8487 212.682 52.1321 215.219 50.3676C220.434 46.7384 223.915 43.1632 226.173 39.1169C227.705 36.3649 229.292 32.253 228.919 27.4172C229.023 27.2565 228.949 26.7625 228.555 24.9326L228.459 24.4841L228.057 24.6838C221.631 27.8588 217.962 33.8152 215.483 38.6547C214.674 40.2603 213.89 41.9287 213.132 43.5443C211.594 46.8211 210.007 50.2035 208.117 53.2723C203.906 59.6117 197.337 64.3977 191.468 68.2443C191.332 68.3337 191.316 68.5166 191.433 68.6558ZM216.072 38.9705C218.445 34.3434 221.917 28.6807 227.868 25.51C227.928 26.087 228.147 26.8083 228.25 27.1171C228.692 31.9401 227.11 36.0545 225.585 38.792C223.372 42.7724 219.939 46.2937 214.784 49.8764C212.666 51.3546 210.564 52.7944 208.315 54.1682C208.433 54 208.55 53.8264 208.664 53.6555L208.683 53.6276C210.589 50.5301 212.185 47.1333 213.729 43.8457C214.485 42.2337 215.267 40.5689 216.072 38.9705Z" fill="#E6E5F4"/>
<path d="M264.35 90.8246C263.215 89.3231 261.369 88.3303 259.477 87.5648C251.508 84.3593 242.081 84.6062 233.655 86.8091C225.229 89.0119 217.625 93.0274 210.316 97.2257C207.301 98.9543 195.42 104.624 201.033 107.153C204.777 108.842 215.837 106.59 219.957 106.225C228.094 105.499 236.109 103.78 243.684 101.142C245.495 100.505 265.241 92.005 264.35 90.8246Z" fill="#C6C2F9"/>
<path d="M257.208 88.9922C256.236 89.0613 255.241 89.1453 254.251 89.254C245.351 90.2072 236.873 92.6323 230.472 94.6425C222.468 97.1516 214.557 99.957 206.959 102.975C198.973 106.146 191.345 109.569 184.297 113.149C183.452 113.579 182.618 114.009 181.785 114.448C182.364 114.478 182.943 114.513 183.521 114.547C183.95 114.325 184.372 114.103 184.806 113.885C191.826 110.324 199.424 106.911 207.376 103.755C214.951 100.747 222.839 97.9517 230.813 95.4476C237.162 93.4571 245.571 91.0469 254.373 90.1035C255.345 89.9998 256.323 89.9109 257.284 89.8467L257.208 88.9922Z" fill="#EFEEFB"/>
<path fill-rule="evenodd" clip-rule="evenodd" d="M209.042 89.7082C199.546 96.1735 192.052 104.679 185.888 112.305C185.773 112.453 185.773 112.636 185.883 112.769C185.917 112.813 185.964 112.858 186.021 112.892C186.247 113.026 186.56 112.976 186.716 112.784C193.504 104.382 201.919 94.9041 212.816 88.3499C218.082 85.3717 223.863 82.749 229.459 80.2152C232.22 78.9656 235.073 77.6716 237.816 76.3578C246.097 72.3324 256.323 66.5537 262.012 57.5102L262.376 56.9471L261.624 56.8829C258.568 56.631 257.735 56.6014 257.463 56.7693C249.338 56.9866 242.324 59.7179 237.613 62.1677C230.675 65.7733 224.471 70.9495 218.082 78.447C214.98 82.0921 211.953 85.6927 209.089 89.6292C209.071 89.6539 209.054 89.6835 209.042 89.7082ZM238.127 62.8933C242.821 60.4534 249.835 57.7319 257.931 57.6134C258.452 57.7072 259.65 57.8949 260.622 57.8851C254.962 66.2963 245.234 71.7689 237.317 75.6214C234.677 76.8867 231.928 78.1335 229.259 79.344L228.984 79.4689L228.983 79.4693C223.364 82.0178 217.56 84.6502 212.242 87.653C211.929 87.8407 211.617 88.0284 211.31 88.221C213.746 85.0156 216.287 81.9978 218.885 78.9503C225.193 71.5417 231.31 66.4396 238.127 62.8933Z" fill="#E6E5F4"/>
<path d="M209.738 88.7645L210.358 89.4362C211.908 88.3891 213.893 86.8926 215.994 85.3022C218.483 83.4253 221.052 81.4793 222.939 80.2791C229.096 76.3426 235.439 72.4803 241.799 68.7908C248.159 65.1062 254.704 61.4957 261.261 58.0581L260.74 57.332C254.172 60.7746 247.609 64.39 241.237 68.0845C234.866 71.7789 228.506 75.6512 222.337 79.5926C220.421 80.8175 217.834 82.7734 215.329 84.6601C213.245 86.2456 211.266 87.7372 209.738 88.7645Z" fill="#E6E5F4"/>
<path d="M200.556 100.226C200.869 96.8476 201.616 93.0416 204.442 91.8394C204.857 91.6612 205.344 91.5573 205.789 91.7842C206.585 92.1841 206.764 93.3214 207.3 94.0889C208.43 95.7137 210.808 95.1454 211.702 93.6405C212.597 92.1357 212.585 90.1309 213.033 88.3659C213.423 86.8247 214.173 85.4438 215.206 84.3703C216.557 82.9702 219.14 82.3243 220.437 84.1589C221.376 85.492 220.984 87.2115 220.773 88.7309C220.562 90.2503 220.907 92.3285 222.336 92.8598C223.566 93.3159 224.588 92.2347 225.387 91.31C227.33 89.0425 229.673 87.1851 232.29 85.8313C234.113 84.8876 236.162 84.1823 238.306 84.5806C240.447 84.9737 242.666 86.7403 243.162 89.0513C243.621 91.2067 242.52 93.179 241.143 94.533C237.392 98.2257 231.767 98.9236 226.939 100.933C225.799 101.408 224.515 102.469 225.055 103.807C225.435 104.747 226.474 105.116 227.349 105.503C229.479 106.441 231.378 108.229 232.553 110.414C232.752 110.79 232.939 111.194 232.941 111.601C232.953 112.529 232.052 113.015 231.227 113.157C227.403 113.81 223.081 110.769 219.385 111.826C218.891 111.968 218.379 112.23 218.231 112.759C218.125 113.14 218.237 113.587 218.402 113.982C219.079 115.63 220.567 116.755 221.745 118.079C222.923 119.404 223.855 121.442 223.037 122.787C222.422 123.797 221.081 123.944 219.885 123.837C216.202 123.495 212.569 121.536 209.444 118.977C206.646 116.679 203.05 113.465 201.15 110.225C199.366 107.165 200.266 103.332 200.556 100.226Z" fill="#E6E5F4"/>
<path d="M237.144 90.7928L197.514 113.673" stroke="#EFEEFB" stroke-linecap="round"/>
<path d="M218.211 85.1436C217.147 91.2732 215.94 97.3562 214.591 103.385" stroke="#EFEEFB" stroke-linecap="round"/>
<path d="M205.121 94.085C204.754 99.3148 204.267 104.518 203.669 109.691" stroke="#EFEEFB" stroke-linecap="round"/>
<path d="M212.888 105.385C218.211 107.016 223.521 108.736 228.815 110.548" stroke="#EFEEFB" stroke-linecap="round"/>
<path d="M69.9111 19.8955C68.2864 20.8227 67.1341 22.3018 66.2254 23.8105C62.3959 30.148 62.0476 37.5366 63.7894 44.0888C65.5296 50.6367 69.2014 56.4912 73.0776 62.1151C74.6753 64.4335 79.7793 73.5986 82.7581 69.1272C84.743 66.1434 83.1219 57.532 83.0077 54.3093C82.7806 47.9439 81.5135 41.7062 79.2672 35.8392C78.7292 34.4218 71.1965 19.1627 69.9111 19.8955Z" fill="#C6C2F9"/>
<path d="M76.4248 77.8384C65.0016 73.2725 51.9803 71.4124 38.9102 72.4795C40.7091 75.8838 44.4123 78.0935 48.2645 79.6766C57.39 83.4277 64.9444 85.39 74.9841 86.8404C77.8395 87.2535 88.6899 87.1694 88.7533 86.1102C88.9508 82.7693 79.3243 78.9971 76.4248 77.8384Z" fill="#C6C2F9"/>
<path d="M113.018 112.791L113.677 112.211C108.8 107.888 104.176 103.042 99.937 97.8061C95.9253 92.8607 92.1466 87.4284 88.6896 81.6614C85.4507 76.2502 82.4069 70.3849 79.6463 64.2319C77.0197 58.3708 74.6302 52.2626 72.5499 46.0749C70.8964 41.1511 68.9455 34.6183 68.5264 27.7409C68.4827 26.9809 68.4536 26.2157 68.4468 25.466L67.5631 25.551C67.5696 26.3151 67.5968 27.0905 67.6452 27.8629C68.0641 34.8161 70.0299 41.405 71.6971 46.3664C73.785 52.5749 76.1772 58.7058 78.8163 64.586C81.5859 70.7641 84.6438 76.6527 87.8967 82.0872C91.3644 87.8834 95.1684 93.3396 99.1956 98.3125C103.459 103.568 108.11 108.442 113.018 112.791Z" fill="#E3EFFF"/>
<path d="M94.9015 91.9231C94.9064 91.9213 94.9113 91.9195 94.9146 91.9135C95.1231 91.7856 95.2 91.54 95.0762 91.3675C92.6226 87.8703 87.7328 84.9287 80.5393 82.6174C70.253 79.3171 59.6215 75.9059 48.052 75.8875C47.8078 75.8866 47.5901 76.0651 47.5674 76.2768C47.5413 76.4945 47.7167 76.6719 47.9594 76.6687C59.38 76.6893 69.9474 80.0765 80.1646 83.3546C87.1929 85.6077 91.949 88.4561 94.3101 91.8213C94.4305 91.9998 94.6885 92.0384 94.9015 91.9231Z" fill="#EFEEFB"/>
<path fill-rule="evenodd" clip-rule="evenodd" d="M65.2148 63.311C71.298 70.5822 79.6223 76.2287 87.1211 80.8558C87.2646 80.9455 87.4557 80.9375 87.5968 80.853C87.6476 80.825 87.6953 80.7887 87.7336 80.7417C87.8835 80.5594 87.8567 80.3184 87.6638 80.1994C79.401 75.1029 70.1368 68.7625 64.0469 60.3915C61.3085 56.3403 58.9617 51.8723 56.6972 47.5542C55.5836 45.4238 54.4265 43.2193 53.2399 41.1013C49.6031 34.7185 44.2779 26.8497 35.2829 22.6348L34.7197 22.3667L34.6088 22.9605C34.1533 25.364 34.0701 26.0188 34.2238 26.2278C33.9299 32.5936 36.303 38.0171 38.5399 41.6499C41.8305 46.9902 46.7888 51.7188 54.1426 56.5264C57.7136 58.8599 61.2421 61.1379 65.1363 63.2781C65.1635 63.2919 65.1891 63.3015 65.2148 63.311L65.2148 63.311ZM39.3323 41.2204C37.108 37.6067 34.7398 32.1814 35.1335 25.8312C35.2612 25.4205 35.5323 24.475 35.5809 23.7099C43.9242 27.916 48.9639 35.3967 52.4454 41.5049C53.5519 43.4772 54.6284 45.5266 55.6777 47.5245C55.7508 47.6636 55.8238 47.8025 55.8966 47.941L55.9064 47.9598C58.1804 52.2912 60.529 56.7647 63.2947 60.8506C63.4703 61.0894 63.646 61.3283 63.8265 61.5653C60.6641 59.7454 57.7062 57.8321 54.7169 55.8782C47.4571 51.131 42.5684 46.4717 39.3323 41.2204Z" fill="#C6C2F9"/>
<path d="M64.2891 62.7878L65.0207 62.285C64.0404 61.0996 62.6118 59.5806 61.101 57.9732C59.3173 56.0725 57.4719 54.1091 56.3472 52.664C52.6668 47.9434 49.0742 43.0678 45.6661 38.1818C42.2581 33.2958 38.9427 28.2531 35.8086 23.2059L35.0222 23.6341C38.1608 28.6938 41.4891 33.7413 44.9016 38.6398C48.3142 43.5384 51.9148 48.4205 55.6047 53.1519C56.7497 54.6227 58.6061 56.601 60.4042 58.5106C61.9006 60.1091 63.3198 61.6173 64.2891 62.7878Z" fill="#C6C2F9"/>
<path d="M138.487 60.3944C143.623 54.4994 151.256 50.8729 159.09 48.0141C164.423 61.3087 160.894 75.9436 150.434 83.9237C148.609 85.3135 146.545 86.5344 144.103 86.9724C137.412 88.1654 133.866 83.6493 133.217 78.2949C132.382 71.4789 134.199 65.3209 138.487 60.3944Z" fill="#E6E5F4"/>
<path d="M157.008 52.9115L133.919 92.9035" stroke="#EFEEFB" stroke-linecap="round"/>
<path d="M149.016 53.292C149.141 56.7832 149.312 60.2798 149.527 63.7819" stroke="#EFEEFB" stroke-linecap="round"/>
<path d="M146.527 71.6652C150.753 70.7529 154.859 69.5256 158.794 67.9932" stroke="#EFEEFB" stroke-linecap="round"/>
<path d="M102.765 37.376C104.449 37.555 106.07 38.5191 107.538 39.6242C113.705 44.2862 117.885 51.6738 120.092 59.1957C122.298 66.7175 122.725 74.4457 122.875 82.0309C122.939 85.1584 124.072 96.9531 119.518 93.7945C116.479 91.6888 113.09 82.1126 111.462 78.7642C108.251 72.1502 105.861 65.1697 104.384 58.1027C104.036 56.4098 101.441 37.2356 102.765 37.376Z" fill="#C6C2F9"/>
<path d="M107.489 42.0362C107.887 42.8183 108.283 43.6252 108.658 44.439C112.049 51.7477 114.108 59.4128 115.524 65.2827C117.299 72.6206 118.802 80.0245 119.996 87.2857C121.251 94.917 122.147 102.388 122.651 109.486C122.712 110.337 122.766 111.18 122.814 112.026C122.522 111.593 122.227 111.163 121.933 110.733C121.906 110.299 121.881 109.87 121.848 109.435C121.341 102.368 120.452 94.9236 119.2 87.326C118.009 80.0872 116.51 72.7058 114.745 65.3925C113.338 59.572 111.299 51.9673 107.947 44.7391C107.576 43.9409 107.191 43.1451 106.795 42.3742L107.489 42.0362Z" fill="#E2EEFF"/>
<path fill-rule="evenodd" clip-rule="evenodd" d="M129.263 79.5277C128.678 89.8515 125.59 99.5761 122.564 107.866C122.503 108.024 122.362 108.109 122.208 108.086C122.158 108.08 122.102 108.065 122.049 108.036C121.841 107.924 121.734 107.66 121.81 107.45C125.145 98.318 128.557 87.4325 128.562 75.987C128.419 70.5434 127.762 64.8673 127.123 59.3753C126.807 56.6664 126.483 53.8654 126.225 51.14C125.492 42.8849 125.21 32.3168 129.55 23.7356L129.815 23.1933L130.213 23.744C131.824 25.9846 132.233 26.6138 132.23 26.9015C135.829 33.2708 136.973 39.9483 137.267 44.7182C137.701 51.7429 136.584 58.9287 133.761 67.3334C132.387 71.4163 131.012 75.4205 129.303 79.4553C129.292 79.4802 129.277 79.5073 129.263 79.5277ZM136.466 44.6571C136.173 39.9051 135.021 33.2322 131.36 26.9311C131.046 26.5727 130.346 25.7355 129.902 24.9809C126.037 33.2466 126.324 43.2888 127.022 51.1825C127.27 53.8062 127.582 56.5049 127.885 59.1249L127.917 59.3954L127.917 59.3961C128.555 64.9126 129.215 70.6109 129.364 76.1058C129.364 76.434 129.364 76.7621 129.357 77.088C130.701 73.7224 131.852 70.3634 132.998 66.946C135.79 58.645 136.891 51.5605 136.466 44.6571Z" fill="#C6C2F9"/>
<path d="M129.672 78.5554L128.866 78.3891C128.955 76.7071 129.19 74.482 129.443 72.124C129.737 69.3341 130.047 66.4496 130.099 64.4377C130.281 57.8624 130.321 51.1785 130.219 44.5614C130.114 37.9466 129.865 31.2232 129.478 24.571L130.279 24.6363C130.668 31.2997 130.921 38.0387 131.024 44.6671C131.128 51.2954 131.089 57.9973 130.907 64.5838C130.85 66.6295 130.541 69.5319 130.247 72.3398C129.989 74.6821 129.756 76.9005 129.672 78.5554Z" fill="#C6C2F9"/>
<path d="M109.119 105.086C102.542 96.3376 99.7972 84.8291 98.1624 73.2697C117.921 69.8353 136.934 78.9286 144.818 95.5746C146.19 98.4782 147.261 101.66 147.15 105.132C146.836 114.642 139.62 118.183 132.098 117.514C122.526 116.667 114.618 112.392 109.119 105.086Z" fill="#C6C2F9"/>
<path d="M104.264 77.5454L149.772 118.522" stroke="#EFEEFB" stroke-linecap="round"/>
<path d="M102.457 88.5986C107.274 89.4429 112.112 90.2272 116.971 90.9515" stroke="#EFEEFB" stroke-linecap="round"/>
<path d="M126.893 97.3535C126.873 91.3013 126.388 85.3201 125.435 79.4867" stroke="#EFEEFB" stroke-linecap="round"/>
<path d="M124.122 123.463C121.633 125.186 118.6 126.863 116.15 125.618C115.791 125.436 115.44 125.164 115.334 124.728C115.153 123.954 115.823 123.18 116.046 122.365C116.505 120.662 114.754 119.36 113.212 119.615C111.671 119.87 110.301 121.026 108.835 121.734C107.556 122.352 106.178 122.631 104.856 122.539C103.123 122.422 101.198 121.02 101.706 119.082C102.078 117.672 103.485 116.956 104.643 116.229C105.802 115.502 107.026 114.07 106.569 112.784C106.176 111.68 104.848 111.602 103.756 111.587C101.087 111.554 98.4699 111.021 96.0459 110.008C94.356 109.299 92.696 108.305 91.7342 106.612C90.7725 104.918 90.7071 102.388 92.0039 100.722C93.2161 99.1699 95.1965 98.7929 96.9182 98.9573C101.601 99.4047 105.304 102.847 109.452 105C110.432 105.508 111.895 105.773 112.498 104.642C112.924 103.844 112.577 102.916 112.338 102.1C111.752 100.102 111.89 97.7761 112.712 95.7206C112.853 95.3674 113.02 95.0094 113.298 94.7711C113.925 94.2337 114.778 94.5659 115.346 95.0543C117.989 97.2947 118.391 101.999 121.236 103.922C121.615 104.183 122.093 104.379 122.536 104.179C122.861 104.03 123.099 103.698 123.278 103.358C124.013 101.95 123.928 100.287 124.165 98.7192C124.395 97.1561 125.252 95.3444 126.641 95.135C127.686 94.9736 128.553 95.8092 129.169 96.6908C131.053 99.4062 131.797 103.021 131.835 106.625C131.872 109.859 131.735 114.165 130.608 117.33C129.555 120.291 126.413 121.877 124.122 123.463Z" fill="#E6E5F4"/>
<path d="M97.495 104.67L130.361 116.633" stroke="#EFEEFB" stroke-linecap="round"/>
<path d="M105.719 119.366C107.696 118.201 109.671 117.027 111.648 115.862" stroke="#EFEEFB" stroke-linecap="round"/>
<path d="M114.191 114.114C115.247 113.567 116.298 113.018 117.354 112.47" stroke="#EFEEFB" stroke-linecap="round"/>
<path d="M117.934 122.845C121.273 120.63 124.637 118.466 128.031 116.357" stroke="#EFEEFB" stroke-linecap="round"/>
<path d="M122.856 113.613C120.662 109.615 118.517 105.584 116.415 101.518" stroke="#EFEEFB" stroke-linecap="round"/>
<path d="M112.684 113.333C112.841 112.965 113.203 112.726 113.604 112.726H196.159C196.559 112.726 196.921 112.965 197.079 113.333L199.169 118.238C199.45 118.898 198.966 119.63 198.249 119.63H111.513C110.796 119.63 110.312 118.898 110.593 118.238L112.684 113.333Z" fill="#EFEEFB"/>
<rect x="111.379" y="21.582" width="51.2211" height="93.9054" rx="6" fill="#675AF6"/>
<path d="M153.512 26.0811H149.015C148.438 26.0811 147.971 26.5497 147.971 27.1276V28.4662C147.971 29.708 146.956 30.7241 145.717 30.7241H128.534C127.295 30.7241 126.281 29.7081 126.281 28.4662V27.5406C126.281 26.7345 125.628 26.0811 124.824 26.0811H120.739C118.589 26.0811 116.846 27.8273 116.846 29.9815V101.434C116.847 103.902 116.512 107.253 118.695 108.78C120.475 110.025 128.563 109.898 128.563 109.898H153.512C155.662 109.898 157.405 108.152 157.405 105.997V29.9815C157.405 27.8273 155.662 26.0811 153.512 26.0811Z" fill="#E4F0FF"/>
<rect x="121.133" y="99.6338" width="32.9279" height="7.31731" rx="1" fill="#BBDAFF"/>
<path d="M142.793 27.4934H135.44C134.662 27.4934 134.031 26.8617 134.031 26.0821C134.031 25.3026 134.662 24.6709 135.44 24.6709H142.793C143.571 24.6709 144.202 25.3026 144.202 26.0821C144.202 26.8617 143.571 27.4934 142.793 27.4934Z" fill="#D8EAFF"/>
<path d="M130.23 27.255C129.222 26.5909 129.466 24.9676 130.735 24.6979C131.598 24.5194 132.42 25.1894 132.42 26.0807C132.42 26.7362 131.968 27.3236 131.285 27.4656C131.195 27.4826 130.516 27.4492 130.23 27.255Z" fill="#D8EAFF"/>
<path d="M197.464 113.525C197.464 109.702 197.464 96.4556 197.464 93.2583V89.6752V81.546C197.464 80.4664 196.619 79.583 195.588 79.583H194.922C192.245 79.583 140.11 79.583 137.196 79.583C136.164 79.583 135.32 80.4664 135.32 81.546V89.6752C135.32 92.1816 135.32 94.3351 135.32 96.8415V113.525C135.32 114.605 136.164 115.488 137.196 115.488H146.187H146.92C147.804 115.488 193.766 115.488 195.588 115.488C196.619 115.488 197.464 114.605 197.464 113.525Z" fill="white"/>
<rect x="141.762" y="99.3096" width="22.0954" height="2.76192" rx="1.38096" fill="#C6C2F9"/>
<rect x="141.762" y="104.833" width="30.3812" height="2.76192" rx="1.38096" fill="#C6C2F9"/>
<path fill-rule="evenodd" clip-rule="evenodd" d="M162.477 102.289C162.751 102.151 162.958 101.915 163.164 101.663C163.414 101.356 163.659 101.064 163.963 100.814C164.328 100.515 164.815 100.229 165.428 100.138C165.307 100.837 165.244 101.555 165.243 102.289H162.477ZM164.54 94.5848L164.54 94.5851L164.54 94.5847C164.846 94.6033 165.144 94.5024 165.448 94.3866C165.818 94.2456 166.177 94.1157 166.565 94.0513C167.032 93.9742 167.6 93.9707 168.179 94.2022C167.261 95.3005 166.527 96.5566 166.021 97.9243C165.536 97.5393 165.257 97.0474 165.09 96.606C164.952 96.2377 164.885 95.8621 164.822 95.4707C164.77 95.1493 164.709 94.841 164.54 94.5848ZM170.177 88.9452L170.177 88.9454V88.945C170.433 89.1145 170.741 89.176 171.062 89.2277C171.454 89.291 171.829 89.3577 172.197 89.4961C172.64 89.663 173.134 89.9441 173.52 90.4342C172.152 90.9372 170.895 91.6711 169.795 92.5876C169.563 92.0081 169.566 91.4388 169.644 90.9709C169.708 90.5828 169.838 90.2241 169.979 89.8535C170.095 89.5495 170.195 89.2517 170.177 88.9452ZM177.877 86.8809V86.8813L177.878 86.8809C178.014 87.1557 178.251 87.3631 178.503 87.5683C178.81 87.8191 179.102 88.0646 179.352 88.3686C179.652 88.7354 179.94 89.2266 180.029 89.8451C179.329 89.7252 178.611 89.6619 177.877 89.6619C177.144 89.6619 176.425 89.7252 175.726 89.8453C175.815 89.2266 176.102 88.7354 176.403 88.3686C176.653 88.0646 176.945 87.8191 177.252 87.5683C177.504 87.3631 177.74 87.1557 177.877 86.8809ZM185.578 88.945V88.9454L185.578 88.9452C185.559 89.2515 185.66 89.5494 185.776 89.8535C185.917 90.2241 186.047 90.5828 186.111 90.9709C186.188 91.4387 186.192 92.0079 185.96 92.5874C184.86 91.671 183.603 90.9373 182.235 90.434C182.621 89.9441 183.114 89.663 183.558 89.4961C183.926 89.3575 184.301 89.2909 184.693 89.2276C185.014 89.176 185.322 89.1145 185.578 88.945ZM191.215 94.5845L191.215 94.5848H191.215C191.046 94.8408 190.984 95.1493 190.933 95.4707C190.869 95.8619 190.803 96.2377 190.664 96.6059C190.498 97.0473 190.219 97.5391 189.733 97.9241C189.228 96.5565 188.493 95.3004 187.576 94.2021C188.155 93.9707 188.723 93.9741 189.19 94.0511C189.578 94.1155 189.937 94.2455 190.307 94.3864C190.611 94.5024 190.909 94.6033 191.215 94.5845ZM190.327 100.138C190.94 100.229 191.427 100.515 191.791 100.814C192.095 101.063 192.341 101.355 192.591 101.663C192.796 101.915 193.004 102.151 193.278 102.289H190.512C190.511 101.555 190.447 100.837 190.327 100.138ZM181.549 91.2153C186.199 92.7519 189.56 97.1268 189.579 102.289H187.279C187.431 97.7796 185.464 93.7097 181.549 91.2153Z" fill="#FAB401"/>
<path fill-rule="evenodd" clip-rule="evenodd" d="M182.015 102.289H183.211C183.269 100.989 183.158 99.4488 182.737 98.104C182.654 97.8387 182.559 97.581 182.452 97.3352C182.197 96.7541 181.855 96.228 181.446 95.7418C180.993 95.2019 180.452 94.7163 179.842 94.3338C179.662 94.2208 179.476 94.1166 179.283 94.0226V94.0223C179.092 93.9287 178.894 93.8452 178.691 93.773L178.69 93.7726C176.361 92.9455 174.006 93.5337 172.03 94.609C171.645 94.8185 171.275 95.0464 170.922 95.2859C170.569 95.5253 170.233 95.7767 169.917 96.033H169.917L169.916 96.0336C169.541 96.338 169.072 96.7542 168.607 97.2466C168.516 97.3434 168.426 97.4421 168.338 97.5419C168.103 97.8084 167.741 98.182 167.848 98.5684C167.933 98.8749 168.328 98.7845 168.466 98.6789C168.677 98.5656 168.909 98.3858 169.108 98.2176C169.377 97.9899 169.631 97.7448 169.897 97.5139C170.974 96.5801 172.096 95.8599 173.202 95.3724C173.443 95.2663 173.684 95.1706 173.925 95.0862C174.164 95.0019 174.403 94.929 174.639 94.8677L174.64 94.8674C176.697 94.3328 178.933 94.6792 180.364 96.3575C181.743 97.9742 181.994 100.138 182.015 102.289ZM167.178 100.461C167.306 100.341 167.437 100.185 167.574 100.011C167.765 99.7691 167.784 99.5346 167.709 99.3653C167.68 99.3021 167.639 99.2478 167.588 99.2055C167.539 99.1638 167.48 99.1339 167.416 99.1194C167.26 99.0838 167.074 99.1394 166.916 99.3318C166.738 99.5493 166.491 99.9209 166.44 100.25C166.431 100.311 166.429 100.371 166.435 100.428C166.441 100.482 166.456 100.534 166.48 100.582L166.48 100.582L166.48 100.582C166.521 100.659 166.589 100.7 166.679 100.704C166.698 100.704 166.718 100.703 166.74 100.701C166.761 100.699 166.784 100.695 166.809 100.689V100.689L166.81 100.689C166.932 100.659 167.054 100.577 167.178 100.461ZM179.582 102.289H180.768C180.825 100.888 180.599 99.4408 179.948 98.1888C179.356 97.0499 178.377 96.2757 177.11 96.0885C175.26 95.8155 173.393 96.5989 171.814 97.72C170.096 98.9406 168.678 100.598 167.438 102.289L169.005 102.287C170.415 100.287 173.659 97.2503 176.046 97.2304C176.806 97.2241 177.579 97.4028 178.151 97.9131C178.565 98.2828 179.068 99.0008 179.043 99.5836C179.028 99.9292 178.722 100.035 178.428 99.9281C178.2 99.8449 178.038 99.6361 177.878 99.4166C177.359 98.7033 176.549 98.3543 175.661 98.4759C174.601 98.6209 173.288 99.444 172.441 100.192C171.71 100.838 171.04 101.545 170.407 102.289H172.091C172.709 101.543 173.36 100.907 174.198 100.385C174.464 100.22 174.79 100.045 175.134 99.9271C176 99.6291 176.861 99.7046 177.244 100.783C177.394 101.207 177.416 101.579 177.372 102.261L177.372 102.289H178.518L178.521 102.254C178.522 101.881 178.513 101.629 178.547 101.259C178.576 100.94 178.675 100.61 178.971 100.571C179.6 100.439 179.57 101.839 179.582 102.289ZM171.509 105.909H170.578L170.348 106.721H169.606L170.587 103.614H171.527L172.536 106.721H171.762L171.509 105.909ZM170.684 105.384H171.398C171.211 104.777 171.09 104.361 171.034 104.135H171.025L170.878 104.725L170.684 105.384ZM168.09 105.909H167.16L166.929 106.721H166.188L167.169 103.614H168.109L169.118 106.721H168.344L168.09 105.909ZM167.266 105.384H167.98C167.792 104.777 167.671 104.361 167.616 104.135H167.607L167.459 104.725L167.266 105.384ZM173.246 106.707V103.655C173.553 103.609 173.881 103.586 174.232 103.586C174.894 103.586 175.369 103.724 175.657 104.002C175.945 104.279 176.089 104.642 176.089 105.089C176.089 105.618 175.925 106.027 175.597 106.318C175.269 106.608 174.763 106.753 174.08 106.753C173.763 106.753 173.485 106.738 173.246 106.707ZM173.96 104.163V106.186C174 106.195 174.086 106.2 174.218 106.2C174.573 106.2 174.848 106.106 175.042 105.919C175.236 105.733 175.333 105.465 175.333 105.117C175.333 104.797 175.245 104.554 175.067 104.386C174.89 104.219 174.634 104.135 174.301 104.135C174.161 104.135 174.047 104.144 173.96 104.163ZM176.853 103.614H177.567V104.808H178.788V103.614H179.502V106.721H178.788V105.426H177.567V106.721H176.853V103.614ZM182.092 105.909H181.161L180.931 106.721H180.189L181.17 103.614H182.11L183.119 106.721H182.345L182.092 105.909ZM181.267 105.384H181.981C181.794 104.777 181.672 104.361 181.617 104.135H181.608L181.46 104.725L181.267 105.384ZM185.51 105.909H184.58L184.349 106.721H183.607L184.589 103.614H185.529L186.538 106.721H185.764L185.51 105.909ZM184.685 105.384H185.4C185.212 104.777 185.091 104.361 185.036 104.135H185.026L184.879 104.725L184.685 105.384ZM187.247 106.721V103.655C187.508 103.609 187.829 103.586 188.21 103.586C188.68 103.586 189.018 103.664 189.224 103.819C189.429 103.974 189.532 104.196 189.532 104.485C189.532 104.657 189.481 104.812 189.377 104.951C189.274 105.091 189.139 105.189 188.975 105.246V105.264C189.168 105.336 189.308 105.527 189.394 105.836C189.552 106.392 189.638 106.687 189.652 106.721H188.924C188.863 106.606 188.789 106.364 188.703 105.997C188.66 105.813 188.602 105.684 188.528 105.61C188.454 105.536 188.336 105.499 188.173 105.499H187.952V106.721H187.247ZM187.952 104.135V104.988H188.247C188.425 104.988 188.565 104.947 188.668 104.866C188.771 104.785 188.823 104.677 188.823 104.541C188.823 104.404 188.777 104.298 188.684 104.223C188.591 104.149 188.459 104.112 188.288 104.112C188.121 104.112 188.009 104.12 187.952 104.135ZM175.307 102.292L176.258 102.289C176.383 101.485 176.139 100.867 175.326 101.014C174.642 101.139 173.907 101.819 173.462 102.289L174.716 102.283C174.856 102.191 175.129 102.087 175.241 102.165C175.283 102.194 175.305 102.235 175.307 102.292ZM185.007 102.289L185.015 102.289H185.02C185.144 102.296 185.362 102.238 185.487 102.027C185.512 101.985 185.533 101.936 185.549 101.881C185.566 101.826 185.578 101.762 185.582 101.691H185.583L185.583 101.677C185.678 98.354 184.661 95.6034 182.934 93.7345C182.599 93.3717 182.236 93.0417 181.849 92.7469C181.463 92.4524 181.052 92.1934 180.622 91.9728V91.9729L180.615 91.9694L180.615 91.9693C179.163 91.2271 177.517 90.9421 175.901 91.0791C175.586 91.1058 175.272 91.1483 174.963 91.2066C174.652 91.2647 174.344 91.339 174.041 91.4285L174.037 91.4298C172.375 91.9216 170.829 92.8978 169.569 94.1787C169.323 94.4282 169.089 94.6892 168.867 94.9597C168.756 95.0941 168.649 95.2311 168.545 95.3702C169.429 94.6074 170.377 93.9383 171.369 93.4066C171.592 93.2868 171.817 93.1744 172.042 93.0701C172.268 92.9657 172.496 92.8682 172.727 92.7784L172.728 92.7781L172.728 92.7779C173.604 92.4372 174.468 92.2199 175.332 92.1228C176.196 92.0257 177.06 92.0488 177.938 92.1885C178.563 92.2879 179.173 92.4515 179.722 92.6805C179.829 92.7248 179.934 92.7721 180.037 92.8219C180.138 92.8709 180.238 92.9234 180.335 92.9785H180.336L180.337 92.9793V92.9794C182.271 94.0389 183.615 96.2131 184.207 98.6679C184.322 99.1466 184.409 99.6356 184.466 100.128C184.523 100.621 184.55 101.119 184.547 101.616V101.616L184.547 101.644C184.556 101.91 184.647 102.133 184.803 102.233C184.833 102.251 184.864 102.266 184.898 102.275H184.898C184.932 102.285 184.968 102.29 185.007 102.289Z" fill="#D32828"/>
<path d="M151.052 96.5467H143.519C142.553 96.5467 141.762 95.3437 141.762 93.8732V88.1726C141.762 86.7021 142.553 85.499 143.519 85.499H151.052C152.019 85.499 152.809 86.7021 152.809 88.1726V93.8732C152.809 95.3437 152.018 96.5467 151.052 96.5467Z" fill="#B9B3F9"/>
<path fill-rule="evenodd" clip-rule="evenodd" d="M135.739 35.8829C136.512 34.5677 138.414 34.5677 139.188 35.8829L154.87 62.5609C155.654 63.8941 154.693 65.5744 153.146 65.5744H121.78C120.234 65.5744 119.272 63.8941 120.056 62.5609L135.739 35.8829ZM139.646 59.1308C139.646 59.4333 139.59 59.717 139.478 59.9817C139.366 60.2464 139.21 60.4734 139.008 60.6624C138.807 60.8515 138.572 61.0028 138.303 61.1163C138.034 61.2297 137.751 61.2865 137.452 61.2865C137.153 61.2865 136.874 61.2335 136.612 61.1276C136.351 61.0217 136.123 60.8705 135.929 60.6738C135.735 60.4771 135.579 60.2502 135.459 59.9931C135.34 59.7359 135.28 59.456 135.28 59.1535C135.28 58.8661 135.336 58.59 135.448 58.3253C135.56 58.0605 135.713 57.8298 135.907 57.6332C136.101 57.4365 136.332 57.2815 136.601 57.168C136.87 57.0546 137.153 56.9978 137.452 56.9978C137.751 56.9978 138.034 57.0546 138.303 57.168C138.572 57.2815 138.807 57.4327 139.008 57.6218C139.21 57.8109 139.366 58.0378 139.478 58.3026C139.59 58.5673 139.646 58.8434 139.646 59.1308ZM135.28 44.1317L136.372 54.8533H138.555L139.646 44.1317H135.28Z" fill="#D04954"/>
</g>
</svg>
