<svg width="344" height="148" viewBox="0 0 344 148" fill="none" xmlns="http://www.w3.org/2000/svg">
<mask id="mask0" mask-type="alpha" maskUnits="userSpaceOnUse" x="0" y="0" width="344" height="148">
<path d="M8 0H336C340.418 0 344 3.5817 344 8V148H0V8C0 3.5817 3.5817 0 8 0Z" fill="white"/>
</mask>
<g mask="url(#mask0)">
<path d="M8 0H336C340.418 0 344 3.5817 344 8V148H0V8C0 3.5817 3.5817 0 8 0Z" fill="#4F44D0"/>
<path opacity="0.1" fill-rule="evenodd" clip-rule="evenodd" d="M158.04 196.011L136.566 199.797L133.628 184.012L110.937 192.271L37.4615 -3.77895L65.5485 -14.002L131.552 172.858L98.2505 -6.03195L127.687 -11.2223L157.789 169.538L156.07 -11.0123H185.96L184.18 175.998L215.324 -11.0223L244.76 -5.83195L211.459 173.058L277.462 -13.802L305.549 -3.57895L232.074 192.471L209.383 184.212L206.444 199.997L183.99 196.038L183.968 198.341H158.063L158.041 196.009L158.04 196.011ZM418.15 -6.09945L441.047 13.1135L304.947 172.204L285.103 155.553L418.143 -6.09745L418.15 -6.09945ZM343.922 -11.4404L369.808 3.50465L263.408 183.815L240.974 170.863L343.924 -11.4374L343.922 -11.4404ZM-75.138 -6.30075L57.902 155.349L38.058 172L-98.042 12.9102L-75.145 -6.30275L-75.138 -6.30075ZM-0.909996 -11.6417L102.04 170.658L79.606 183.61L-26.794 3.30035L-0.90799 -11.6447L-0.909996 -11.6417Z" fill="#132056"/>
<path d="M340 10C344.971 10 349 5.97056 349 1C349 -3.97056 344.971 -8 340 -8C335.029 -8 331 -3.97056 331 1C331 5.97056 335.029 10 340 10Z" fill="#9D95F8"/>
<path d="M20 64H22V61H25V59H22V56H20V59H17V61H20V64Z" fill="#FFF5D9"/>
<path d="M250 34V32H248V30H246V32H244V34H246V36H248V34H250Z" fill="#FFF5D9"/>
<path d="M80 102H78V105H75V107H78V110H80V107H83V105H80V102Z" fill="#FFF5D9"/>
<path d="M52.8946 7.65165L51.834 6.59099L50.243 8.18198L48.652 6.59099L47.5913 7.65165L49.1823 9.24264L47.5913 10.8336L48.652 11.8943L50.243 10.3033L51.834 11.8943L52.8946 10.8336L51.3036 9.24264L52.8946 7.65165Z" fill="#FFF5D9"/>
<path d="M322.892 17.6517L321.831 16.591L320.24 18.182L318.649 16.591L317.588 17.6517L319.179 19.2426L317.588 20.8336L318.649 21.8943L320.24 20.3033L321.831 21.8943L322.892 20.8336L321.301 19.2426L322.892 17.6517Z" fill="#FFF5D9"/>
<path d="M-1.9997 130C-5.8591 130 -9 126.86 -9 123C-9 119.141 -5.8598 116 -1.9997 116C1.8597 116 5 119.14 5 123C5 126.86 1.8598 130 -1.9997 130Z" fill="#9D95F8"/>
<path d="M312.5 116.5C315.261 116.5 317.5 114.261 317.5 111.5C317.5 108.739 315.261 106.5 312.5 106.5C309.739 106.5 307.5 108.739 307.5 111.5C307.5 114.261 309.739 116.5 312.5 116.5Z" stroke="#FFF5D9"/>
<path opacity="0.2" fill-rule="evenodd" clip-rule="evenodd" d="M67.231 0.00325162C66.8265 0.0242936 66.4829 0.307922 66.3837 0.702632L66.2863 1.06863L65.9222 0.97079C65.8333 0.943733 65.741 0.930296 65.6482 0.93093V0.934554C65.1874 0.946115 64.8057 1.29747 64.7539 1.75777C64.7021 2.21806 64.9961 2.64622 65.4426 2.76087L65.8068 2.85871L65.7094 3.22833C65.577 3.72366 65.8692 4.23313 66.3621 4.36623C66.8549 4.49932 67.3618 4.20566 67.4942 3.71033L67.5915 3.34071L67.9593 3.43856C68.284 3.54461 68.6405 3.46179 68.8861 3.22327C69.1316 2.98474 69.226 2.62947 69.1316 2.29965C69.0372 1.96983 68.7693 1.71934 68.4352 1.64844L68.071 1.55059L68.1684 1.18097C68.249 0.893045 68.1865 0.583724 68.0006 0.350154C67.8147 0.116594 67.5281 -0.0125655 67.231 0.00325448L67.231 0.00325162ZM95.271 1.89485C95.2409 1.89458 95.2108 1.89579 95.1808 1.89848C94.8098 1.92588 94.4914 2.17446 94.3732 2.52901L89.6391 15.984C89.5054 16.3017 89.5582 16.6678 89.7761 16.9343C89.994 17.2008 90.3411 17.3238 90.6771 17.2537C91.0132 17.1835 91.2827 16.9317 91.377 16.6L96.1147 3.14504C96.2184 2.86392 96.1806 2.54973 96.0132 2.30158C95.8457 2.05343 95.5692 1.90193 95.271 1.89485V1.89485ZM78.685 2.20287C78.4382 2.20276 78.2016 2.30122 78.0271 2.47658C77.8526 2.65194 77.7546 2.88981 77.7548 3.1378C77.7546 3.38579 77.8526 3.62366 78.0271 3.79902C78.2016 3.97438 78.4382 4.07284 78.685 4.07273C78.9317 4.07285 79.1684 3.97438 79.3429 3.79902C79.5174 3.62366 79.6153 3.38579 79.6152 3.1378C79.6153 2.88981 79.5174 2.65194 79.3429 2.47658C79.1684 2.30122 78.9317 2.20276 78.685 2.20287ZM104.721 4.07267C104.474 4.07256 104.238 4.17102 104.063 4.34638C103.889 4.52174 103.791 4.75961 103.791 5.0076C103.791 5.25559 103.889 5.49346 104.063 5.66882C104.238 5.84418 104.474 5.94264 104.721 5.94253C104.968 5.94265 105.204 5.84418 105.379 5.66882C105.553 5.49346 105.651 5.25559 105.651 5.0076C105.651 4.75961 105.553 4.52174 105.379 4.34638C105.204 4.17102 104.968 4.07256 104.721 4.07267ZM70.223 4.73219C69.8462 4.73079 69.5065 4.95961 69.3645 5.31034C69.2225 5.66107 69.3069 6.06331 69.5776 6.32664L82.8066 19.6216C83.0381 19.864 83.3819 19.9616 83.7053 19.8769C84.0288 19.7921 84.2814 19.5382 84.3657 19.2131C84.4501 18.888 84.3529 18.5425 84.1118 18.3098L70.8828 5.01484C70.7098 4.83509 70.4718 4.73317 70.223 4.73219ZM87.039 4.88439C86.7942 4.88823 86.5609 4.98965 86.3905 5.16634C86.2201 5.34303 86.1266 5.58052 86.1304 5.82656V18.0926C86.1257 18.4271 86.3006 18.7383 86.5881 18.907C86.8756 19.0756 87.2312 19.0756 87.5187 18.907C87.8062 18.7383 87.9811 18.4271 87.9764 18.0926V5.82656C87.9803 5.5755 87.8828 5.33356 87.7062 5.15601C87.5295 4.97846 87.2888 4.88046 87.039 4.88439ZM80.4084 6.37379C80.0987 6.38047 79.8131 6.54275 79.6477 6.80592C79.4823 7.06909 79.4593 7.39808 79.5863 7.68195L82.0561 13.4437C82.1829 13.754 82.4665 13.9714 82.7978 14.0123C83.1291 14.0531 83.4566 13.9109 83.6542 13.6405C83.8517 13.3701 83.8887 13.0136 83.7507 12.708L81.2845 6.94633C81.1384 6.59171 80.7901 6.36411 80.4084 6.37378L80.4084 6.37379ZM102.359 6.63108C102.12 6.63396 101.891 6.7301 101.721 6.89924L94.7372 13.6212C94.3737 13.9764 94.3632 14.5598 94.7137 14.9279C95.0641 15.2961 95.6445 15.3113 96.0136 14.962L102.998 8.24003C103.278 7.97936 103.37 7.57192 103.228 7.21523C103.087 6.85853 102.741 6.6263 102.359 6.63109L102.359 6.63108ZM111.06 10.0773C110.915 10.0792 110.773 10.1152 110.645 10.1824L92.9309 19.2127C92.4794 19.4467 92.3005 20.0031 92.5305 20.4585C92.7604 20.9138 93.313 21.097 93.7675 20.8688L111.481 11.8385C111.87 11.6475 112.075 11.2107 111.974 10.7878C111.872 10.3649 111.492 10.0695 111.06 10.0773L111.06 10.0773ZM64.9196 12.7806C64.4753 12.7821 64.0951 13.1014 64.0148 13.5406C63.9345 13.9798 64.1768 14.4141 64.5915 14.5743L68.9254 16.3354L73.2629 18.0929L77.6004 19.854C78.0733 20.0461 78.6117 19.8166 78.8029 19.3412C78.9941 18.8659 78.7656 18.3248 78.2927 18.1327L73.9552 16.3716L69.6177 14.6141L65.2802 12.853C65.1661 12.8048 65.0434 12.7802 64.9196 12.7806L64.9196 12.7806ZM85.1936 19.9665C84.8175 19.9666 84.4791 20.1959 84.338 20.5463C84.197 20.8967 84.2815 21.2981 84.5518 21.5609L85.7488 22.764L84.5518 23.9671C84.3107 24.1998 84.2136 24.5453 84.2979 24.8704C84.3822 25.1955 84.6348 25.4494 84.9583 25.5341C85.2817 25.6189 85.6255 25.5212 85.857 25.2789L87.054 24.0758L88.251 25.2789C88.4825 25.5213 88.8263 25.6189 89.1498 25.5341C89.4732 25.4494 89.7258 25.1955 89.8102 24.8704C89.8945 24.5453 89.7973 24.1998 89.5562 23.9671L88.3592 22.764L89.5562 21.5609C89.8306 21.2944 89.9135 20.8857 89.765 20.5325C89.6164 20.1793 89.2669 19.9543 88.8856 19.9664C88.6455 19.9741 88.4179 20.0755 88.251 20.2491L87.054 21.4522L85.857 20.2491C85.6831 20.0684 85.4437 19.9664 85.1936 19.9664L85.1936 19.9665ZM109.355 20.1296C108.846 20.1376 108.44 20.5572 108.446 21.0681V21.4486H108.067C107.735 21.4439 107.425 21.6196 107.257 21.9086C107.089 22.1976 107.089 22.555 107.257 22.8439C107.425 23.1329 107.735 23.3087 108.067 23.3039H108.446V23.6844C108.441 24.019 108.616 24.3302 108.904 24.4988C109.191 24.6675 109.547 24.6675 109.834 24.4988C110.122 24.3302 110.297 24.019 110.292 23.6844V23.3039H110.671C111.003 23.3087 111.313 23.1329 111.481 22.8439C111.649 22.555 111.649 22.1976 111.481 21.9086C111.313 21.6196 111.003 21.4439 110.671 21.4486H110.292V21.0681C110.295 20.8177 110.197 20.5767 110.02 20.3999C109.844 20.2232 109.604 20.1256 109.355 20.1296H109.355ZM70.3176 21.8364C69.9847 21.8316 69.6751 22.0074 69.5073 22.2964C69.3395 22.5853 69.3395 22.9427 69.5073 23.2317C69.6751 23.5207 69.9847 23.6964 70.3176 23.6917H82.4066C82.7395 23.6964 83.0491 23.5207 83.2169 23.2317C83.3847 22.9427 83.3847 22.5853 83.2169 22.2964C83.0491 22.0074 82.7395 21.8316 82.4066 21.8364H70.3176ZM91.7206 21.8364C91.3877 21.8316 91.0781 22.0074 90.9103 22.2964C90.7425 22.5853 90.7425 22.9427 90.9103 23.2317C91.0781 23.5207 91.3877 23.6964 91.7206 23.6917H103.792C104.124 23.6964 104.434 23.5207 104.602 23.2317C104.77 22.9427 104.77 22.5853 104.602 22.2964C104.434 22.0074 104.124 21.8316 103.792 21.8364H91.7206ZM79.4586 25.105C79.3453 25.111 79.234 25.1381 79.1305 25.1847L73.0263 27.8264C72.7175 27.9538 72.5011 28.2388 72.4605 28.5718C72.4199 28.9048 72.5613 29.2339 72.8304 29.4325C73.0994 29.631 73.4542 29.6682 73.7582 29.5295L79.8588 26.8878C80.2726 26.7143 80.5024 26.267 80.4037 25.8274C80.3051 25.3879 79.9064 25.0831 79.4586 25.1049L79.4586 25.105ZM95.7736 25.3006C95.3322 25.3048 94.9556 25.6224 94.8747 26.0585C94.7939 26.4946 95.0316 26.9272 95.4419 27.0908L109.201 32.675C109.672 32.8604 110.204 32.63 110.394 32.1584C110.584 31.6868 110.36 31.1496 109.893 30.9537L96.1341 25.3731C96.02 25.3249 95.8974 25.3003 95.7736 25.3006L95.7736 25.3006ZM91.0107 25.6268C90.6362 25.6284 90.2998 25.8571 90.1591 26.2059C90.0184 26.5547 90.1013 26.9544 90.3689 27.2176L103.598 40.5126C103.829 40.755 104.173 40.8526 104.497 40.7678C104.82 40.6831 105.073 40.4292 105.157 40.1041C105.241 39.779 105.144 39.4335 104.903 39.2008L91.6741 25.9058C91.4996 25.7265 91.2603 25.6259 91.0107 25.6268V25.6268ZM83.0532 26.0145C82.8141 26.0269 82.5892 26.1321 82.4258 26.308L64.7158 44.793C64.367 45.163 64.3803 45.7465 64.7458 46.0998C65.1113 46.4532 65.692 46.4441 66.0463 46.0794L83.7533 27.5944C84.0213 27.3227 84.0959 26.9136 83.9412 26.564C83.7864 26.2145 83.4341 25.9963 83.0538 26.0145L83.0532 26.0145ZM87.0409 26.4965C86.5325 26.5045 86.1263 26.9241 86.1323 27.435V47.061C86.1276 47.3956 86.3025 47.7068 86.59 47.8754C86.8775 48.0441 87.2331 48.0441 87.5206 47.8754C87.8081 47.7068 87.983 47.3956 87.9783 47.061V27.435C87.9812 27.1846 87.8833 26.9436 87.7068 26.7668C87.5302 26.5901 87.2901 26.4926 87.0409 26.4965V26.4965ZM68.7499 28.3772C68.3467 28.3998 68.005 28.6831 67.9062 29.0766L67.8088 29.4462L67.4411 29.3483C67.352 29.3225 67.2597 29.3103 67.167 29.3121C66.7069 29.3253 66.3267 29.6772 66.2759 30.137C66.225 30.5969 66.5191 31.0241 66.9651 31.1384L67.3293 31.2363L67.2319 31.6059C67.1264 31.9323 67.2088 32.2906 67.4462 32.5374C67.6835 32.7841 68.037 32.8791 68.3651 32.7842C68.6933 32.6893 68.9425 32.42 69.0131 32.0842L69.1104 31.7182L69.4782 31.8161C69.803 31.9221 70.1595 31.8393 70.405 31.6008C70.6505 31.3622 70.745 31.007 70.6506 30.6771C70.5561 30.3473 70.2883 30.0968 69.9541 30.0259L69.59 29.9281L69.6873 29.5585C69.7647 29.286 69.714 28.993 69.5496 28.7629C69.3852 28.5327 69.1252 28.3906 68.8436 28.3771C68.8124 28.3755 68.7811 28.3755 68.7499 28.3771L68.7499 28.3772ZM90.3799 29.6383C90.0696 29.6438 89.7828 29.8056 89.6166 30.0689C89.4504 30.3323 89.4269 30.662 89.5542 30.9464L92.828 38.5816C92.9547 38.892 93.2384 39.1094 93.5697 39.1503C93.901 39.1911 94.2285 39.0489 94.426 38.7785C94.6236 38.5081 94.6606 38.1515 94.5226 37.846L91.2524 30.2108C91.1068 29.8575 90.7603 29.6301 90.3799 29.6383L90.3799 29.6383ZM83.6159 30.7943C83.2446 30.8059 82.9164 31.0401 82.783 31.3886L78.3806 42.3436C78.1895 42.8189 78.4179 43.3599 78.8908 43.5521C79.3637 43.7442 79.902 43.5146 80.0932 43.0394L84.4956 32.0814C84.6172 31.7902 84.5831 31.4569 84.4052 31.1967C84.2273 30.9365 83.9299 30.7851 83.6159 30.7949L83.6159 30.7943ZM95.1249 39.2521C94.7217 39.2747 94.38 39.558 94.2812 39.9515L94.1838 40.3175L93.8161 40.2196C93.7272 40.1926 93.6349 40.1791 93.5421 40.1797V40.1834C93.0819 40.1966 92.7017 40.5485 92.6509 41.0083C92.6 41.4682 92.8941 41.8954 93.3401 42.0097L93.7043 42.1076L93.607 42.4772C93.505 42.8023 93.5886 43.1573 93.8247 43.402C94.0608 43.6467 94.4114 43.7416 94.7378 43.6491C95.0642 43.5566 95.3139 43.2917 95.3881 42.9591L95.4854 42.5895L95.8532 42.6874C96.178 42.7934 96.5345 42.7106 96.78 42.4721C97.0256 42.2335 97.12 41.8783 97.0256 41.5484C96.9312 41.2186 96.6633 40.9681 96.3292 40.8972L95.965 40.7994L96.0623 40.4298C96.1429 40.1418 96.0805 39.8325 95.8946 39.599C95.7086 39.3654 95.4221 39.2362 95.1249 39.2521L95.1249 39.2521ZM77.6919 45.1914C77.2035 45.2255 76.8251 45.6343 76.8266 46.1263C76.8283 46.6413 77.2443 47.0578 77.7568 47.0576C78.2692 47.0578 78.6853 46.6413 78.687 46.1263C78.6871 45.8783 78.5892 45.6404 78.4147 45.4651C78.2402 45.2897 78.0035 45.1912 77.7568 45.1914C77.7352 45.1906 77.7135 45.1906 77.6919 45.1914V45.1914Z" fill="#FFBD00"/>
<path opacity="0.3" fill-rule="evenodd" clip-rule="evenodd" d="M252.04 86L251.941 86.5566L251.395 86.7137L251.897 86.9788L251.878 87.5448L252.285 87.151L252.82 87.346L252.571 86.8368L252.921 86.39L252.358 86.4695L252.04 86L252.04 86ZM245.34 86.0473L245.21 86.7781L244.493 86.9844L245.153 87.3309L245.127 88.073L245.663 87.5561L246.363 87.8117L246.036 87.1434L246.495 86.5585L245.756 86.6626L245.34 86.0473H245.34ZM255.198 87.2172C254.929 87.2172 254.711 87.4342 254.711 87.7019C254.711 87.9695 254.929 88.1865 255.198 88.1865C255.467 88.1865 255.685 87.9695 255.685 87.7019C255.685 87.4342 255.467 87.2172 255.198 87.2172ZM252.27 88.1827C252.141 88.1842 252.017 88.237 251.927 88.3294C251.837 88.4217 251.787 88.5461 251.789 88.6749V96.4253C251.786 96.6001 251.879 96.7627 252.03 96.8508C252.182 96.9389 252.37 96.9389 252.521 96.8508C252.673 96.7627 252.765 96.6001 252.763 96.4253V88.6749C252.765 88.5441 252.714 88.418 252.621 88.3253C252.528 88.2326 252.402 88.1812 252.27 88.1827ZM240.985 88.1865L240.921 88.5538L240.561 88.656L240.892 88.8302L240.879 89.2012L241.147 88.9438L241.497 89.0706L241.331 88.7374L241.562 88.444L241.193 88.497L240.985 88.1865L240.985 88.1865ZM246.654 88.709C246.483 88.7156 246.327 88.8118 246.245 88.9622C246.163 89.1125 246.167 89.2947 246.255 89.4416L250.636 96.9913C250.723 97.1415 250.884 97.2341 251.058 97.2342C251.232 97.2343 251.393 97.1419 251.48 96.9918C251.568 96.8418 251.568 96.6569 251.481 96.5067L247.099 88.957C247.01 88.7974 246.838 88.7016 246.654 88.709V88.709ZM257.264 89.7691L257.2 90.1364L256.842 90.2386L257.171 90.4128L257.158 90.7838L257.426 90.5264L257.778 90.6532L257.612 90.32L257.843 90.0266L257.472 90.0796L257.264 89.7691L257.264 89.7691ZM263.772 91.0678L263.645 91.8004L262.928 92.0049L263.586 92.3513L263.561 93.0953L264.096 92.5785L264.798 92.8322L264.471 92.1639L264.929 91.5789L264.191 91.6831L263.772 91.0678ZM256.423 91.2268C256.245 91.225 256.081 91.3201 255.994 91.4748L253.073 96.5067C252.939 96.7388 253.019 97.0355 253.252 97.1693C253.485 97.3031 253.784 97.2235 253.918 96.9914L256.838 91.9595C256.928 91.8103 256.93 91.6249 256.844 91.4736C256.758 91.3223 256.598 91.2282 256.423 91.2268ZM246.432 92.5482C246.163 92.5482 245.945 92.7652 245.945 93.0329C245.945 93.3005 246.163 93.5175 246.432 93.5175C246.561 93.5175 246.685 93.4664 246.776 93.3756C246.868 93.2847 246.919 93.1614 246.919 93.0329C246.919 92.9043 246.868 92.7811 246.776 92.6902C246.685 92.5993 246.561 92.5482 246.432 92.5482ZM261.948 92.7887V92.7906C261.872 92.7956 261.799 92.8183 261.733 92.8568L254.145 97.2166C253.986 97.2994 253.887 97.4616 253.884 97.6393C253.882 97.8171 253.978 97.9818 254.134 98.0685C254.289 98.1553 254.481 98.1502 254.632 98.0553L262.22 93.6954C262.42 93.5848 262.515 93.3512 262.45 93.1334C262.384 92.9157 262.176 92.7724 261.948 92.7887H261.948ZM242.492 92.9969L242.427 93.3642L242.068 93.4664L242.399 93.6406L242.386 94.0116L242.654 93.7522L243.004 93.881L242.838 93.5478L243.069 93.2544L242.699 93.3055L242.492 92.9969L242.492 92.9969ZM244.278 93.7579C244.262 93.7577 244.245 93.7584 244.229 93.7598C244.013 93.7732 243.832 93.9264 243.784 94.136C243.736 94.3457 243.833 94.5617 244.022 94.6666L249.923 98.0572C250.074 98.1522 250.265 98.1573 250.421 98.0705C250.577 97.9837 250.672 97.819 250.67 97.6413C250.668 97.4636 250.568 97.3013 250.41 97.2186L244.509 93.828C244.439 93.7858 244.36 93.7617 244.278 93.7579H244.278ZM252.377 97.4002C252.096 97.3799 251.806 97.4401 251.546 97.5895C250.852 97.9882 250.61 98.885 251.011 99.5754C251.412 100.266 252.313 100.506 253.007 100.107C253.7 99.7088 253.942 98.8119 253.541 98.1215C253.291 97.69 252.846 97.434 252.377 97.4002L252.377 97.4002ZM239.648 97.5952L239.549 98.1537L239.003 98.3089L239.505 98.574L239.486 99.14L239.893 98.7481L240.428 98.9412L240.179 98.432L240.529 97.9852L239.966 98.0647L239.648 97.5952L239.648 97.5952ZM264.136 98.1064L264.039 98.6554L263.5 98.8087L263.995 99.0699L263.976 99.6265L264.378 99.2384L264.904 99.4296L264.657 98.928L265.003 98.4888L264.448 98.5683L264.136 98.1063V98.1064ZM242.051 98.3657C241.875 98.3632 241.712 98.4551 241.623 98.606C241.535 98.757 241.535 98.9437 241.623 99.0947C241.712 99.2456 241.875 99.3375 242.051 99.335H249.839C250.015 99.3375 250.178 99.2456 250.267 99.0947C250.355 98.9437 250.355 98.757 250.267 98.606C250.178 98.4551 250.015 98.3632 249.839 98.3657H242.051ZM252.217 98.3657C252.405 98.3409 252.595 98.4288 252.698 98.6061C252.836 98.8429 252.757 99.1321 252.519 99.2687C252.281 99.4054 251.991 99.3273 251.854 99.0908C251.716 98.854 251.794 98.5667 252.032 98.4301C252.092 98.3959 252.154 98.374 252.217 98.3657V98.3657ZM254.715 98.3657C254.539 98.3632 254.376 98.4551 254.287 98.606C254.199 98.757 254.199 98.9437 254.287 99.0947C254.376 99.2456 254.539 99.3375 254.715 99.335H262.501C262.677 99.3375 262.84 99.2456 262.929 99.0947C263.017 98.9437 263.017 98.757 262.929 98.606C262.84 98.4551 262.677 98.3632 262.501 98.3657H254.715ZM250.139 99.5735V99.5754C250.063 99.5802 249.989 99.6029 249.923 99.6417L242.334 104.001C242.176 104.084 242.076 104.246 242.074 104.424C242.071 104.602 242.167 104.767 242.323 104.853C242.479 104.94 242.67 104.935 242.821 104.84L250.41 100.48C250.609 100.37 250.704 100.137 250.639 99.9193C250.574 99.7019 250.367 99.5583 250.139 99.5735V99.5735ZM254.401 99.5735C254.384 99.5733 254.368 99.5739 254.351 99.5754C254.136 99.5888 253.955 99.742 253.907 99.9516C253.859 100.161 253.955 100.377 254.144 100.482L260.045 103.873C260.196 103.968 260.387 103.973 260.543 103.886C260.699 103.799 260.795 103.635 260.792 103.457C260.79 103.279 260.69 103.117 260.532 103.034L254.631 99.6436C254.561 99.6014 254.482 99.5773 254.401 99.5735H254.401ZM259.492 100.28L259.427 100.647L259.067 100.749L259.398 100.923L259.385 101.294L259.653 101.037L260.003 101.164L259.838 100.831L260.068 100.537L259.699 100.59L259.492 100.28ZM251.066 100.459C250.888 100.458 250.723 100.553 250.636 100.707L247.716 105.741C247.581 105.973 247.661 106.27 247.895 106.404C248.128 106.538 248.426 106.458 248.56 106.226L251.481 101.192C251.57 101.043 251.572 100.858 251.486 100.706C251.401 100.555 251.24 100.461 251.066 100.459ZM253.472 100.459C253.301 100.466 253.145 100.562 253.063 100.713C252.981 100.863 252.985 101.045 253.073 101.192L257.454 108.744C257.589 108.976 257.887 109.056 258.12 108.922C258.353 108.788 258.433 108.491 258.299 108.259L253.918 100.707C253.828 100.548 253.656 100.452 253.472 100.459ZM242.959 100.742L242.895 101.109L242.535 101.211L242.866 101.385L242.853 101.756L243.121 101.499L243.473 101.626L243.308 101.292L243.538 100.999L243.167 101.052L242.959 100.742V100.742ZM252.27 100.783C252.14 100.785 252.017 100.837 251.926 100.93C251.836 101.022 251.786 101.147 251.788 101.275V109.026C251.786 109.201 251.878 109.363 252.03 109.451C252.182 109.539 252.369 109.539 252.521 109.451C252.673 109.363 252.765 109.201 252.762 109.026V101.275C252.764 101.145 252.713 101.019 252.62 100.926C252.528 100.833 252.401 100.782 252.27 100.783ZM261.865 103.858L261.766 104.416L261.22 104.571L261.723 104.836L261.704 105.402L262.111 105.011L262.645 105.204L262.396 104.694L262.746 104.248L262.183 104.327L261.865 103.858V103.858ZM240.153 104.638L240.026 105.37L239.307 105.575L239.967 105.921L239.94 106.665L240.477 106.148L241.179 106.402L240.85 105.734L241.31 105.149L240.57 105.253L240.153 104.638H240.153ZM247.198 106.716L247.103 107.265L246.564 107.419L247.059 107.68L247.038 108.236L247.441 107.85L247.967 108.039L247.721 107.54L248.065 107.1L247.512 107.18L247.198 106.716ZM243.509 107.572C243.24 107.572 243.022 107.789 243.022 108.057C243.022 108.324 243.24 108.541 243.509 108.541C243.778 108.541 243.996 108.324 243.996 108.057C243.996 107.789 243.778 107.572 243.509 107.572ZM261.041 107.572C260.772 107.572 260.554 107.789 260.554 108.057C260.554 108.324 260.772 108.541 261.041 108.541C261.31 108.541 261.528 108.324 261.528 108.057C261.528 107.789 261.31 107.572 261.041 107.572ZM258.924 109.465L258.796 110.196L258.077 110.4L258.737 110.748L258.711 111.491L259.247 110.974L259.949 111.229L259.62 110.561L260.081 109.976L259.342 110.08L258.924 109.465ZM252.159 110.48L252.064 111.029L251.526 111.182L252.02 111.443L251.999 112L252.402 111.612L252.928 111.803L252.682 111.303L253.026 110.864L252.473 110.942L252.159 110.48V110.48Z" fill="#FFBD00"/>
<path d="M168.954 88C175.901 94 180.064 102.281 180.863 109C181.604 115.231 179.305 120.261 174.909 124C175.886 122.503 175.937 120.245 175.901 118C175.823 112.946 172.976 111.291 172.976 111.291C172.687 111.098 172.347 110.996 172 111C171.583 111.004 171.182 111.161 170.871 111.441C170.871 111.441 166.891 114.946 166.97 120C167.01 122.58 168.955 123 168.955 125C168.658 124.805 163 121.245 163 116C163 110.797 163.691 109.38 166 105C167.736 101.707 169.369 93.623 168.955 88H168.954Z" fill="#FFBD00"/>
<path d="M171.568 113C172.495 114.056 173.973 116.26 173.999 118.218C174.027 120.298 172.499 121.684 171.568 123C170.641 121.944 169.026 120.789 169 118.827C168.972 116.743 170.637 114.314 171.568 113Z" fill="#FFF5D9"/>
<path d="M168.004 83C167.488 83.0048 167.003 83.245 166.691 83.6507C166.378 84.0565 166.273 84.5822 166.406 85.0748C168.552 92.9834 167.101 96.9808 165.049 100.797C162.997 104.612 160 108.322 160 114.341C160 120.32 162.848 124.19 165.656 126.351C167.332 127.642 168.398 128.014 169.492 128.406C171.54 129.199 172.003 129.199 173.836 128.406C181.867 124.384 184.815 116.485 183.811 108.206C182.754 99.4944 177.442 90.2282 169.087 83.3802C168.783 83.131 168.399 82.9963 168.004 83.0001L168.004 83ZM170.079 89.5463C175.701 95.3986 179.722 102.21 180.497 108.599C181.216 114.524 179.672 119.683 175.408 123.238C176.357 121.815 177.21 119.974 177.176 117.839C177.1 113.034 172.486 110.255 172.486 110.255C172.206 110.071 171.876 109.974 171.54 109.978C171.135 109.982 170.746 110.131 170.444 110.397C170.444 110.397 166.075 113.878 166.152 118.683C166.19 121.136 167.405 123.043 168.591 124.34C168.303 124.155 168.025 123.989 167.711 123.747C165.508 122.052 163.34 119.327 163.34 114.34C163.34 109.394 165.758 106.508 167.998 102.343C169.681 99.2129 170.481 94.8926 170.079 89.5473L170.079 89.5463ZM171.716 114.017C172.657 114.914 173.81 116.228 173.836 117.89C173.864 119.655 172.564 121.386 171.618 122.503C170.677 121.607 169.518 120.295 169.492 118.631C169.464 116.862 170.771 115.132 171.716 114.017H171.716Z" fill="#FFF5D9"/>
<path d="M172 167C183.198 167 190.215 163.503 197 157C202.596 151.637 206 145 209 136C195 139 182 136 172 131C160 136 150 138 135 136C138 146 140.662 151.57 147 157C153.738 162.773 161.47 167 172 167Z" fill="#D04954"/>
<path d="M171.587 129H169.674C159.309 134.608 147.507 136.717 136.031 133.973C135.498 133.847 134.939 133.994 134.536 134.367C134.132 134.74 133.938 135.29 134.017 135.836C134.696 140.546 136.252 145.01 138.489 149.071C138.592 149.324 138.698 149.576 138.806 149.826C138.763 149.692 138.737 149.551 138.696 149.416C142.027 155.317 146.834 160.329 152.805 163.81C164.682 170.73 179.318 170.73 191.194 163.81C197.156 160.336 201.964 155.331 205.296 149.442C205.258 149.567 205.232 149.696 205.193 149.82C205.285 149.599 205.376 149.378 205.464 149.156C207.721 145.086 209.293 140.614 209.982 135.889C210.06 135.342 209.866 134.793 209.463 134.42C209.06 134.047 208.5 133.899 207.968 134.026C196.294 136.801 183.918 134.856 173.445 129.001H171.586L171.587 129ZM172 132.084C182.416 137.902 194.452 139.779 206.13 137.633C205.707 139.624 205.087 141.543 204.355 143.411C193.522 145.124 182.395 143.115 172.833 137.549C172.592 137.407 172.319 137.329 172.039 137.321C171.624 137.345 171.384 137.419 171.168 137.542C161.594 143.097 150.461 145.085 139.626 143.352C138.898 141.486 138.284 139.575 137.864 137.588C149.538 139.75 161.576 137.885 172 132.084L172 132.084ZM172 140.845C181.426 146.107 192.174 148.118 202.786 146.869C200.73 150.836 197.96 154.377 194.563 157.297C186.819 157.143 179.2 156.195 172.412 154.418C172.253 154.375 172.087 154.36 171.922 154.366C171.809 154.366 171.696 154.398 171.586 154.418C164.794 156.191 157.173 157.125 149.429 157.284C146.025 154.353 143.244 150.799 141.187 146.817C151.804 148.085 162.56 146.094 171.999 140.845L172 140.845ZM172 157.707C177.706 159.171 183.905 160.07 190.252 160.456C190.01 160.605 189.789 160.781 189.542 160.925C178.683 167.252 165.316 167.252 154.457 160.925C154.208 160.78 153.985 160.601 153.741 160.45C160.091 160.067 166.289 159.168 172 157.707L172 157.707Z" fill="#FE794D"/>
<path d="M172.348 144.785C172.106 144.785 171.645 146.649 171.449 146.791C171.253 146.935 169.336 146.795 169.261 147.032C169.186 147.262 170.814 148.281 170.889 148.511C170.964 148.741 170.244 150.518 170.44 150.66C170.636 150.803 172.106 149.566 172.348 149.566C172.59 149.566 174.06 150.802 174.256 150.66C174.452 150.517 173.732 148.741 173.807 148.511C173.882 148.281 175.51 147.262 175.435 147.032C175.361 146.802 173.443 146.935 173.247 146.791C173.051 146.648 172.59 144.785 172.348 144.785H172.348Z" fill="#33CF90"/>
<path fill-rule="evenodd" clip-rule="evenodd" d="M77 53H81.4609C82.0093 53 82.5313 53.0712 83.027 53.2137C83.5227 53.3562 83.984 53.5567 84.4112 53.8153C84.8384 54.0739 85.2259 54.3839 85.5739 54.7454C85.9219 55.1069 86.2185 55.5092 86.4637 55.9525C86.7089 56.3957 86.8974 56.872 87.0292 57.3813C87.1611 57.8906 87.227 58.4196 87.227 58.9684C87.227 59.5278 87.1611 60.0634 87.0292 60.5753C86.8974 61.0872 86.7089 61.5674 86.4637 62.0159C86.2185 62.4644 85.9219 62.8721 85.5739 63.2389C85.2259 63.6056 84.8383 63.9196 84.4112 64.1808C83.9841 64.442 83.5227 64.6439 83.027 64.7864C82.5313 64.9288 82.0093 65.0001 81.4609 65.0001H77V63.6386H78.139V54.3695H77V53.0001V53ZM79.6892 54.3694V63.6385H81.5558C82.1095 63.6385 82.6302 63.5171 83.1179 63.2744C83.6056 63.0316 84.0314 62.7005 84.3953 62.281C84.7591 61.8614 85.0465 61.3681 85.2574 60.8008C85.4684 60.2335 85.5738 59.6227 85.5738 58.9683C85.5738 58.3245 85.4684 57.7229 85.2574 57.1636C85.0465 56.6042 84.7591 56.1174 84.3953 55.7032C84.0315 55.2889 83.6057 54.9631 83.1179 54.7256C82.6301 54.4881 82.1094 54.3694 81.5558 54.3694H79.6892V54.3694ZM91.0792 53H94.9074V54.3694H93.7684V63.6385H94.9074V65H91.0792V63.6385H92.2182V54.3694H91.0792V53ZM114.476 53H118.368V54.3694H117.324L113.899 65.0004H111.479L108.228 54.5444L105.23 65.0004H102.834L99.3375 54.3694H98.2776V53H102.169V54.3694H101.125L104.028 63.591L107.089 53H109.454L112.713 63.591L115.671 54.3694H114.476V53H114.476ZM128.832 63.639H129.829L128.88 60.916H124.268L123.343 63.639H124.577V65.0005H120.685V63.639H121.729L125.463 53H127.796L131.521 63.639H132.724V65.0005H128.832V63.639H128.832ZM124.719 59.6021H128.421L126.554 54.2353L124.719 59.6021ZM136.093 53.0005H139.985V54.3699H138.783V63.639H142.919C143.004 63.639 143.088 63.6192 143.172 63.5796C143.257 63.5401 143.333 63.4886 143.402 63.4253C143.47 63.362 143.526 63.2894 143.568 63.2076C143.61 63.1258 143.631 63.0427 143.631 62.9583V61.4464H145.134V65.0005H136.093V63.639H137.232V54.3699H136.093V53.0005L136.093 53.0005ZM148.503 53.0005H152.331V54.3699H151.193V63.639H152.331V65.0005H148.503V63.639H149.642V54.3699H148.503V53.0005ZM162.456 53.0005H166.917C167.466 53.0005 167.988 53.0717 168.483 53.2142C168.979 53.3567 169.44 53.5572 169.867 53.8158C170.295 54.0744 170.682 54.3844 171.03 54.7459C171.378 55.1074 171.675 55.5097 171.92 55.953C172.165 56.3963 172.354 56.8725 172.486 57.3818C172.617 57.8911 172.683 58.4201 172.683 58.9689C172.683 59.5282 172.617 60.0639 172.486 60.5758C172.354 61.0877 172.165 61.5679 171.92 62.0164C171.675 62.4649 171.378 62.8726 171.03 63.2394C170.682 63.6061 170.295 63.9201 169.867 64.1813C169.44 64.4425 168.979 64.6444 168.483 64.7869C167.988 64.9294 167.466 65.0006 166.917 65.0006H162.456V63.6391H163.595V54.37H162.456V53.0006V53.0005ZM165.145 54.3699V63.639H167.012C167.566 63.639 168.087 63.5176 168.574 63.2749C169.062 63.0321 169.488 62.701 169.852 62.2815C170.215 61.8619 170.503 61.3686 170.714 60.8013C170.925 60.234 171.03 59.6232 171.03 58.9688C171.03 58.325 170.925 57.7234 170.714 57.1641C170.503 56.6047 170.215 56.1179 169.852 55.7037C169.488 55.2895 169.062 54.9636 168.574 54.7261C168.086 54.4886 167.566 54.3699 167.012 54.3699H165.145V54.3699ZM184.96 53.0005H188.851V54.362H187.712V63.639H188.851V65.0005H184.96V63.639H186.162V59.325H179.225V63.639H180.427V65.0005H176.536V63.639H177.675V54.362H176.536V53.0005H180.427V54.362H179.225V57.9952H186.162V54.362H184.96V53.0005ZM200.367 63.6395H201.364L200.415 60.9165H195.804L194.878 63.6395H196.112V65.001H192.221V63.6395H193.265L196.998 53.0005H199.331L203.057 63.6395H204.259V65.001H200.367V63.6395H200.367ZM196.255 59.6026H199.956L198.09 54.2358L196.255 59.6026ZM207.629 63.6395H208.768V54.5129H207.629V53.001H211.425L215.23 63.362L219.081 53.001H222.68V54.5129H221.549V63.6395H222.68V65.001H218.789V63.6395H220.07V54.4258L215.878 65.0008H214.533L210.286 54.4018V63.6393H211.52V65.0008H207.628V63.6393L207.629 63.6395ZM234.197 63.6395H235.193L234.244 60.9165H229.633L228.707 63.6395H229.941V65.001H226.05V63.6395H227.094L230.827 53.0005H233.16L236.886 63.6395H238.088V65.001H234.197V63.6395H234.197ZM230.084 59.6026H233.785L231.919 54.2358L230.084 59.6026ZM249.399 54.3704V53.001H252.151V54.3704H251.21L245.958 58.7952L250.87 63.6395H252.151V65.001H248.924V63.6395L244.163 58.8743L249.399 54.3703L249.399 54.3704ZM241.473 53.001H245.365V54.3704H244.147V63.6395H245.349V65.001H241.458V63.6395H242.596V54.3704H241.473V53.001ZM263.106 63.64H264.103L263.154 60.917H258.543L257.617 63.64H258.851V65.0015H254.96V63.64H256.004L259.737 53.001H262.07L265.796 63.64H266.998V65.0015H263.106V63.64H263.106ZM258.993 59.6031H262.695L260.828 54.2363L258.993 59.6031Z" fill="#FFBD00"/>
<path fill-rule="evenodd" clip-rule="evenodd" d="M128.01 43.0001C126.158 43.0001 124.543 42.7366 123.163 42.2097C121.784 41.6827 120.637 40.9363 119.72 39.9702C118.804 39.0041 118.122 37.8429 117.674 36.4865C117.225 35.1301 117.001 33.6273 117.001 31.9782C117.001 30.3583 117.24 28.8751 117.718 27.5284C118.195 26.1818 118.902 25.0254 119.837 24.0593C120.773 23.0932 121.938 22.3418 123.332 21.8051C124.725 21.2683 126.338 21 128.171 21C129.418 21 130.508 21.0903 131.438 21.2708C132.369 21.4513 133.149 21.6977 133.778 22.01C134.406 22.3222 134.876 22.6906 135.188 23.1151C135.5 23.5396 135.656 23.9958 135.656 24.4837C135.656 24.835 135.573 25.1643 135.408 25.4717C135.242 25.7791 134.993 26.0499 134.662 26.2841C134.331 26.5183 133.926 26.7012 133.449 26.833C132.971 26.9647 132.415 27.0306 131.782 27.0306C131.782 26.4256 131.709 25.8694 131.563 25.3619C131.416 24.8544 131.19 24.4202 130.883 24.0592C130.576 23.6981 130.188 23.4176 129.72 23.2175C129.253 23.0175 128.702 22.9175 128.068 22.9175C126.977 22.9175 126.048 23.1175 125.283 23.5176C124.518 23.9177 123.894 24.5032 123.412 25.2741C122.93 26.045 122.579 26.994 122.359 28.1211C122.14 29.2482 122.03 30.5338 122.03 31.9781C122.03 33.4224 122.145 34.7031 122.374 35.8204C122.603 36.9377 122.973 37.8769 123.485 38.6381C123.997 39.3992 124.66 39.9774 125.473 40.3726C126.287 40.7678 127.284 40.9654 128.463 40.9654C128.834 40.9654 129.204 40.9508 129.574 40.9215C129.945 40.8922 130.305 40.8385 130.656 40.7605V36.3546C130.656 35.5544 130.476 34.9982 130.115 34.6859C129.755 34.3736 129.223 34.2175 128.522 34.2175H128.127V32.6367H137.542V34.2175H137.147C136.845 34.2175 136.582 34.2541 136.358 34.3273C136.134 34.4004 135.949 34.5249 135.802 34.7005C135.656 34.8762 135.549 35.1079 135.481 35.3958C135.412 35.6837 135.378 36.0423 135.378 36.4716V41.3898C134.209 41.9265 133.029 42.329 131.84 42.5974C130.651 42.8657 129.374 42.9999 128.01 42.9999L128.01 43.0001ZM139.209 41.1119H140.466C140.671 41.1119 140.866 41.0924 141.051 41.0533C141.236 41.0143 141.4 40.9338 141.541 40.8118C141.682 40.6898 141.794 40.5093 141.877 40.2702C141.96 40.0311 142.001 39.7164 142.001 39.3261V24.7181C142.001 24.318 141.96 23.9985 141.877 23.7594C141.794 23.5203 141.682 23.3373 141.541 23.2105C141.4 23.0836 141.236 22.9982 141.051 22.9543C140.866 22.9104 140.671 22.8885 140.466 22.8885H139.209V21.3077H148.858C151.685 21.3077 153.758 21.7809 155.079 22.7275C156.4 23.674 157.06 25.05 157.06 26.8552C157.06 27.6456 156.943 28.3482 156.709 28.963C156.475 29.5777 156.166 30.1145 155.781 30.5731C155.396 31.0317 154.959 31.4196 154.472 31.7368C153.985 32.0539 153.488 32.3149 152.981 32.5199L156.548 38.6676C156.802 39.0969 157.048 39.4653 157.287 39.7727C157.525 40.08 157.764 40.3337 158.003 40.5338C158.242 40.7338 158.488 40.8802 158.741 40.9729C158.995 41.0656 159.263 41.112 159.545 41.112H159.662V42.7075H158.683C157.786 42.7075 157.004 42.6733 156.336 42.605C155.669 42.5367 155.084 42.4025 154.582 42.2025C154.08 42.0024 153.646 41.7268 153.281 41.3755C152.915 41.0242 152.576 40.5704 152.265 40.0142L148.712 33.4127H146.724V39.3262C146.724 39.7165 146.765 40.0312 146.848 40.2703C146.931 40.5094 147.043 40.6899 147.184 40.8119C147.325 40.9338 147.489 41.0143 147.674 41.0534C147.859 41.0924 148.054 41.1119 148.259 41.1119H149.545V42.7074H139.209V41.1119L139.209 41.1119ZM146.724 31.6708H148.405C149.097 31.6708 149.674 31.5781 150.137 31.3927C150.6 31.2073 150.971 30.9316 151.248 30.5657C151.526 30.1997 151.726 29.7411 151.848 29.1898C151.97 28.6384 152.031 27.9969 152.031 27.265C152.031 26.5038 151.962 25.8598 151.826 25.3329C151.69 24.806 151.475 24.3741 151.183 24.0375C150.89 23.7008 150.51 23.4568 150.042 23.3056C149.574 23.1543 149.009 23.0787 148.346 23.0787H146.724V31.6708L146.724 31.6708ZM166.066 35.6668L165.203 38.243C165.125 38.4869 165.045 38.7724 164.962 39.0993C164.879 39.4262 164.838 39.7116 164.838 39.9556C164.838 40.1507 164.876 40.3215 164.954 40.4679C165.032 40.6142 165.135 40.7338 165.261 40.8265C165.388 40.9192 165.532 40.9899 165.693 41.0387C165.854 41.0875 166.022 41.1119 166.197 41.1119H167.454V42.7074H159.662V41.1119H160.028C160.291 41.1119 160.532 41.0826 160.751 41.0241C160.971 40.9655 161.175 40.8558 161.365 40.6948C161.555 40.5337 161.736 40.3117 161.906 40.0288C162.077 39.7458 162.25 39.3798 162.425 38.931L168.916 21.308H173.025L179.282 38.961C179.428 39.3806 179.582 39.7294 179.742 40.0076C179.903 40.2857 180.079 40.5052 180.269 40.6662C180.459 40.8272 180.661 40.9419 180.876 41.0102C181.09 41.0785 181.314 41.1127 181.548 41.1127H182.089V42.7082H172.206V41.1127H173.376C173.522 41.1127 173.673 41.0907 173.829 41.0468C173.985 41.0029 174.124 40.9346 174.245 40.8419C174.367 40.7492 174.467 40.6296 174.545 40.4833C174.623 40.3369 174.662 40.1612 174.662 39.9563C174.662 39.7124 174.633 39.4782 174.574 39.2537C174.516 39.0293 174.457 38.8341 174.399 38.6682L173.346 35.6675H166.066L166.066 35.6668ZM171.168 28.919C171.061 28.5774 170.951 28.2188 170.839 27.8432C170.727 27.4675 170.615 27.0845 170.503 26.6942C170.391 26.3039 170.283 25.916 170.181 25.5305C170.079 25.145 169.989 24.7767 169.911 24.4254C169.823 24.7279 169.72 25.0597 169.604 25.4207C169.487 25.7818 169.362 26.1526 169.231 26.5331L168.836 27.6748C168.704 28.0554 168.58 28.4213 168.463 28.7726L166.694 33.8371H172.747L171.168 28.9189V28.919ZM199.633 42.707L187.952 26.196V39.165C187.952 39.5944 187.993 39.9359 188.076 40.1896C188.159 40.4433 188.269 40.6385 188.405 40.7751C188.542 40.9117 188.705 41.002 188.895 41.0459C189.085 41.0898 189.282 41.1117 189.487 41.1117H190.744V42.7072H182.923V41.1117H184.18C184.394 41.1117 184.594 41.0898 184.779 41.0459C184.965 41.002 185.128 40.9117 185.269 40.7751C185.41 40.6385 185.52 40.4433 185.598 40.1896C185.676 39.9359 185.715 39.5943 185.715 39.165V24.718C185.715 24.3179 185.674 23.9983 185.591 23.7592C185.508 23.5201 185.396 23.3372 185.255 23.2103C185.113 23.0835 184.95 22.9981 184.765 22.9542C184.58 22.9103 184.385 22.8883 184.18 22.8883H182.923V21.3075H189.575L200.145 36.2665V24.7175C200.145 24.3174 200.103 23.9978 200.02 23.7588C199.938 23.5197 199.825 23.3367 199.684 23.2099C199.543 23.083 199.38 22.9976 199.194 22.9537C199.009 22.9098 198.814 22.8878 198.61 22.8878H197.352V21.307H205.174V22.8878H203.917C203.712 22.8878 203.517 22.9098 203.332 22.9537C203.147 22.9976 202.983 23.0879 202.842 23.2245C202.701 23.3611 202.591 23.5563 202.513 23.81C202.435 24.0637 202.396 24.4053 202.396 24.8346V42.7066H199.633V42.707ZM227.001 31.612C227.001 33.2514 226.777 34.7517 226.328 36.113C225.88 37.4743 225.21 38.6428 224.318 39.6187C223.426 40.5945 222.32 41.3532 220.999 41.8948C219.679 42.4364 218.146 42.7072 216.401 42.7072H206.518V41.1117H207.776C208 41.1117 208.205 41.0897 208.39 41.0458C208.575 41.0019 208.736 40.9116 208.872 40.775C209.009 40.6384 209.116 40.4432 209.194 40.1895C209.272 39.9358 209.311 39.5943 209.311 39.1649V24.7179C209.311 24.3178 209.272 23.9982 209.194 23.7592C209.116 23.5201 209.006 23.3371 208.865 23.2103C208.724 23.0834 208.56 22.998 208.375 22.9541C208.19 22.9102 207.99 22.8882 207.776 22.8882H206.518V21.3074H216.401C218.058 21.3074 219.542 21.5246 220.853 21.9588C222.164 22.393 223.275 23.042 224.187 23.9056C225.098 24.7692 225.795 25.845 226.277 27.1331C226.76 28.4212 227.001 29.9142 227.001 31.6121L227.001 31.612ZM221.942 31.612C221.942 28.7528 221.419 26.6255 220.371 25.2301C219.323 23.8347 217.781 23.137 215.744 23.137H214.033V40.848H215.714C216.738 40.848 217.639 40.6357 218.419 40.2113C219.199 39.7868 219.849 39.1744 220.371 38.3742C220.892 37.5741 221.285 36.6055 221.548 35.4688C221.811 34.332 221.943 33.0462 221.943 31.6117L221.942 31.612Z" fill="#FFBD00"/>
</g>
</svg>
