<svg width="310" height="147" viewBox="0 0 310 147" fill="none" xmlns="http://www.w3.org/2000/svg">
<mask id="mask0" mask-type="alpha" maskUnits="userSpaceOnUse" x="25" y="0" width="261" height="147">
<path d="M25 8C25 3.58172 28.5817 0 33 0H285.184V146.812H33C28.5817 146.812 25 143.231 25 138.812V8Z" fill="white"/>
</mask>
<g mask="url(#mask0)">
<path d="M40.9554 139.119C40.9554 139.119 8.98894 140.952 35.5497 142.936C59.1163 144.697 86.5915 144.577 106.75 143.862C115.336 143.558 140.09 143.825 161.159 145.616C189.89 148.06 289.486 146.578 271.327 142.819C262.539 141 298.073 140.933 279.967 139.115L40.9554 139.119Z" fill="#EFEEFB"/>
<path d="M40.9554 138.678C40.9554 138.678 8.98894 106.406 35.5497 71.467C59.1163 40.4673 86.5915 42.5862 106.75 55.1661C115.336 60.5243 140.09 55.8265 161.159 24.2831C189.89 -18.7339 289.486 7.35561 271.327 73.5391C262.539 105.567 298.073 106.732 279.967 138.746L40.9554 138.678Z" fill="#EFEEFB"/>
<path d="M124.1 28.5419L126.691 26.985C127.266 26.639 127.918 27.2934 127.577 27.865L126.009 30.4374C125.888 30.6404 125.888 30.8962 126.009 31.0992L127.577 33.6716C127.926 34.2432 127.266 34.89 126.691 34.5516L124.1 32.9946C123.896 32.8743 123.638 32.8743 123.433 32.9946L120.843 34.5516C120.267 34.8976 119.616 34.2432 119.956 33.6716L121.524 31.0992C121.646 30.8962 121.646 30.6404 121.524 30.4374L119.956 27.865C119.608 27.2934 120.267 26.6465 120.843 26.985L123.433 28.5419C123.638 28.6623 123.896 28.6623 124.1 28.5419Z" fill="#E6E5F4"/>
<path opacity="0.3" d="M176.798 -6.34799L179.737 -5.62594C180.389 -5.46798 180.389 -4.54284 179.737 -4.38489L176.798 -3.66284C176.563 -3.60266 176.389 -3.42966 176.328 -3.1965L175.601 -0.278184C175.442 0.368661 174.51 0.368661 174.351 -0.278184L173.624 -3.1965C173.563 -3.42966 173.389 -3.60266 173.154 -3.66284L170.215 -4.38489C169.564 -4.54284 169.564 -5.46798 170.215 -5.62594L173.154 -6.34799C173.389 -6.40816 173.563 -6.58116 173.624 -6.81433L174.351 -9.73264C174.51 -10.3795 175.442 -10.3795 175.601 -9.73264L176.328 -6.81433C176.381 -6.58116 176.563 -6.40064 176.798 -6.34799Z" fill="#5A79B1"/>
<path opacity="0.6" d="M250.721 68.5861L251.494 68.7742C251.668 68.8193 251.668 69.06 251.494 69.0976L250.721 69.2856C250.661 69.3007 250.615 69.3458 250.6 69.406L250.411 70.1732C250.365 70.3461 250.123 70.3461 250.085 70.1732L249.896 69.406C249.881 69.3458 249.835 69.3007 249.774 69.2856L249.002 69.0976C248.828 69.0525 248.828 68.8118 249.002 68.7742L249.774 68.5861C249.835 68.5711 249.881 68.526 249.896 68.4658L250.085 67.6986C250.13 67.5256 250.373 67.5256 250.411 67.6986L250.6 68.4658C250.615 68.526 250.661 68.5711 250.721 68.5861Z" fill="#5A79B1"/>
<path d="M187.254 100.035L189.889 100.465C190.099 100.499 190.285 100.587 190.431 100.708C190.585 100.836 190.695 101.002 190.742 101.184C190.757 101.24 190.766 101.296 190.767 101.354C190.769 101.406 190.766 101.459 190.758 101.512L184.696 137.964C184.617 138.433 184.124 138.751 183.586 138.688C183.569 138.685 183.551 138.683 183.534 138.68L180.899 138.25C180.882 138.247 180.865 138.244 180.847 138.241C180.316 138.13 179.952 137.673 180.03 137.203L186.092 100.751C186.101 100.698 186.115 100.647 186.135 100.598C186.155 100.545 186.181 100.493 186.213 100.446C186.317 100.288 186.474 100.166 186.662 100.094C186.84 100.025 187.044 100.001 187.254 100.035Z" fill="#B9B3F9"/>
<path d="M187.927 118.531L184.679 138.059C184.609 138.478 184.123 138.753 183.584 138.688C183.567 138.685 183.549 138.683 183.532 138.68L180.897 138.25C180.88 138.247 180.863 138.244 180.845 138.241C180.313 138.132 179.943 137.717 180.012 137.297L182.862 120.167C184.281 120.118 186.288 119.791 187.927 118.531Z" fill="#675AF6"/>
<path d="M185.506 104.313L185.438 104.727L190.102 105.492L190.171 105.078L185.506 104.313Z" fill="#9D95F8"/>
<path d="M185.272 105.708L185.203 106.122L189.868 106.885L189.937 106.471L185.272 105.708Z" fill="#9D95F8"/>
<path d="M184.987 107.403L184.918 107.817L189.583 108.581L189.652 108.167L184.987 107.403Z" fill="#9D95F8"/>
<path d="M184.565 109.958L184.496 110.372L189.161 111.136L189.23 110.722L184.565 109.958Z" fill="#9D95F8"/>
<path d="M184.108 112.679L184.039 113.093L188.704 113.857L188.773 113.443L184.108 112.679Z" fill="#9D95F8"/>
<path d="M183.409 116.869L183.34 117.283L188.005 118.046L188.074 117.632L183.409 116.869Z" fill="#9D95F8"/>
<path d="M182.764 120.792L182.695 121.206L187.36 121.971L187.429 121.557L182.764 120.792Z" fill="#9D95F8"/>
<path d="M182.186 124.269L182.117 124.683L186.782 125.447L186.851 125.033L182.186 124.269Z" fill="#9D95F8"/>
<path d="M185.721 102.967L185.652 103.381L190.318 104.144L190.386 103.73L185.721 102.967Z" fill="#9D95F8"/>
<path d="M185.87 102.076L185.801 102.49L190.466 103.253L190.535 102.839L185.87 102.076Z" fill="#9D95F8"/>
<path d="M186.01 101.234L185.941 101.648L190.607 102.411L190.676 101.997L186.01 101.234Z" fill="#9D95F8"/>
<path d="M186.047 101.01L190.712 101.771L190.756 101.512C190.765 101.459 190.767 101.406 190.765 101.354L186.131 100.598C186.112 100.647 186.098 100.698 186.089 100.751L186.047 101.01Z" fill="#9D95F8"/>
<path d="M186.211 100.446L190.74 101.185C190.693 101.004 190.582 100.838 190.428 100.709L186.659 100.094C186.473 100.167 186.315 100.289 186.211 100.446Z" fill="#9D95F8"/>
<path d="M192.035 100.035L194.67 100.465C194.88 100.499 195.066 100.587 195.212 100.708C195.366 100.836 195.476 101.003 195.523 101.185C195.538 101.24 195.546 101.297 195.548 101.354C195.551 101.406 195.547 101.46 195.539 101.513L189.477 137.964C189.398 138.434 188.906 138.751 188.368 138.688C188.35 138.686 188.332 138.684 188.315 138.68L185.68 138.25C185.663 138.247 185.646 138.245 185.628 138.241C185.098 138.13 184.733 137.673 184.811 137.203L190.874 100.751C190.883 100.698 190.896 100.647 190.916 100.599C190.936 100.546 190.963 100.494 190.994 100.446C191.098 100.289 191.256 100.167 191.444 100.094C191.622 100.025 191.826 100.002 192.035 100.035Z" fill="#B9B3F9"/>
<path d="M192.709 118.531L189.46 138.059C189.391 138.479 188.904 138.754 188.366 138.688C188.349 138.686 188.33 138.684 188.313 138.68L185.678 138.25C185.661 138.247 185.644 138.245 185.626 138.241C185.095 138.133 184.724 137.718 184.794 137.298L187.643 120.168C189.062 120.118 191.068 119.791 192.709 118.531Z" fill="#675AF6"/>
<path d="M190.292 104.312L190.223 104.726L194.887 105.492L194.956 105.078L190.292 104.312Z" fill="#9D95F8"/>
<path d="M190.057 105.713L189.988 106.127L194.654 106.89L194.722 106.476L190.057 105.713Z" fill="#9D95F8"/>
<path d="M189.772 107.403L189.703 107.817L194.368 108.581L194.437 108.167L189.772 107.403Z" fill="#9D95F8"/>
<path d="M189.342 109.953L189.273 110.368L193.939 111.131L194.008 110.717L189.342 109.953Z" fill="#9D95F8"/>
<path d="M188.889 112.68L188.82 113.094L193.486 113.857L193.554 113.443L188.889 112.68Z" fill="#9D95F8"/>
<path d="M188.194 116.886L188.125 117.3L192.79 118.064L192.859 117.65L188.194 116.886Z" fill="#9D95F8"/>
<path d="M187.542 120.77L187.473 121.184L192.138 121.947L192.207 121.533L187.542 120.77Z" fill="#9D95F8"/>
<path d="M186.963 124.265L186.895 124.679L191.56 125.443L191.629 125.028L186.963 124.265Z" fill="#9D95F8"/>
<path d="M190.506 102.985L190.438 103.399L195.102 104.163L195.171 103.749L190.506 102.985Z" fill="#9D95F8"/>
<path d="M190.663 102.093L190.594 102.507L195.259 103.27L195.328 102.856L190.663 102.093Z" fill="#9D95F8"/>
<path d="M190.791 101.234L190.723 101.649L195.388 102.411L195.457 101.997L190.791 101.234Z" fill="#9D95F8"/>
<path d="M190.832 101.01L195.498 101.772L195.541 101.513C195.55 101.459 195.552 101.406 195.55 101.354L190.916 100.599C190.897 100.647 190.883 100.698 190.874 100.751L190.832 101.01Z" fill="#9D95F8"/>
<path d="M190.996 100.447L195.525 101.185C195.478 101.004 195.367 100.838 195.213 100.709L191.444 100.094C191.257 100.167 191.099 100.289 190.996 100.447Z" fill="#9D95F8"/>
<path d="M174.56 135.03L174.555 137.679C174.555 137.89 174.498 138.086 174.4 138.249C174.298 138.42 174.149 138.554 173.977 138.63C173.925 138.654 173.869 138.671 173.812 138.682C173.761 138.692 173.707 138.698 173.654 138.698L136.415 138.61C135.935 138.609 135.541 138.176 135.517 137.639C135.517 137.621 135.516 137.604 135.516 137.587L135.52 134.938C135.52 134.921 135.52 134.903 135.521 134.886C135.546 134.349 135.943 133.919 136.423 133.92L173.662 134.008C173.715 134.008 173.769 134.014 173.82 134.025C173.877 134.036 173.932 134.055 173.985 134.078C174.157 134.154 174.306 134.29 174.407 134.462C174.504 134.622 174.561 134.818 174.56 135.03Z" fill="#675AF6"/>
<path d="M156.265 138.657L136.314 138.61C135.886 138.609 135.533 138.176 135.513 137.639C135.513 137.621 135.512 137.604 135.512 137.587L135.516 134.938C135.516 134.921 135.516 134.903 135.517 134.886C135.54 134.349 135.894 133.919 136.322 133.92L153.823 133.961C154.101 135.342 154.748 137.253 156.265 138.657Z" fill="#B9B3F9"/>
<path d="M169.609 133.997L169.598 138.688L170.021 138.688L170.032 133.998L169.609 133.997Z" fill="#9D95F8"/>
<path d="M168.175 133.993L168.164 138.684L168.587 138.685L168.598 133.994L168.175 133.993Z" fill="#9D95F8"/>
<path d="M166.458 133.989L166.445 138.68L166.868 138.681L166.881 133.99L166.458 133.989Z" fill="#9D95F8"/>
<path d="M163.824 133.983L163.812 138.674L164.236 138.675L164.247 133.984L163.824 133.983Z" fill="#9D95F8"/>
<path d="M161.039 133.977L161.027 138.668L161.45 138.669L161.462 133.978L161.039 133.977Z" fill="#9D95F8"/>
<path d="M156.769 133.967L156.758 138.658L157.181 138.659L157.192 133.968L156.769 133.967Z" fill="#9D95F8"/>
<path d="M152.773 133.958L152.762 138.648L153.185 138.649L153.196 133.959L152.773 133.958Z" fill="#9D95F8"/>
<path d="M149.204 133.949L149.191 138.64L149.614 138.641L149.627 133.95L149.204 133.949Z" fill="#9D95F8"/>
<path d="M170.972 134L170.961 138.691L171.384 138.692L171.395 134.001L170.972 134Z" fill="#9D95F8"/>
<path d="M171.869 134.002L171.859 138.693L172.282 138.694L172.292 134.003L171.869 134.002Z" fill="#9D95F8"/>
<path d="M172.742 134.004L172.73 138.695L173.153 138.696L173.165 134.005L172.742 134.004Z" fill="#9D95F8"/>
<path d="M173.396 134.006L173.387 138.697L173.651 138.698C173.706 138.698 173.758 138.693 173.81 138.683L173.819 134.024C173.767 134.013 173.714 134.007 173.66 134.007L173.396 134.006Z" fill="#9D95F8"/>
<path d="M173.981 134.076L173.973 138.63C174.146 138.554 174.293 138.421 174.396 138.249L174.402 134.459C174.301 134.287 174.154 134.152 173.981 134.076Z" fill="#9D95F8"/>
<path d="M170.587 130.33L170.583 132.979C170.583 133.19 170.526 133.386 170.428 133.549C170.325 133.72 170.177 133.854 170.005 133.93C169.952 133.954 169.896 133.971 169.839 133.982C169.788 133.992 169.735 133.998 169.681 133.998L132.443 133.91C131.963 133.908 131.568 133.476 131.544 132.939C131.544 132.921 131.543 132.904 131.543 132.887L131.548 130.238C131.548 130.221 131.548 130.203 131.549 130.186C131.574 129.649 131.971 129.219 132.451 129.22L169.689 129.308C169.713 129.308 169.737 129.309 169.76 129.311C169.77 129.311 169.78 129.313 169.79 129.315C169.802 129.316 169.813 129.318 169.823 129.319C169.831 129.321 169.839 129.323 169.847 129.324C169.904 129.335 169.959 129.353 170.012 129.377C170.02 129.38 170.028 129.384 170.036 129.388C170.044 129.392 170.051 129.395 170.058 129.4C170.073 129.408 170.089 129.417 170.104 129.425C170.112 129.43 170.121 129.436 170.13 129.442C170.138 129.446 170.145 129.451 170.153 129.457C170.168 129.466 170.181 129.477 170.195 129.488C170.211 129.5 170.226 129.514 170.242 129.528C170.253 129.538 170.266 129.549 170.277 129.56C170.277 129.56 170.278 129.561 170.28 129.563C170.287 129.571 170.294 129.578 170.302 129.586C170.325 129.61 170.347 129.636 170.367 129.662C170.374 129.67 170.38 129.678 170.386 129.686C170.391 129.694 170.397 129.702 170.403 129.711C170.414 129.728 170.425 129.745 170.436 129.763C170.531 129.923 170.587 130.119 170.587 130.33Z" fill="#675AF6"/>
<path d="M152.292 133.956L132.342 133.909C131.913 133.908 131.561 133.475 131.54 132.938C131.54 132.92 131.539 132.903 131.539 132.886L131.544 130.237C131.544 130.22 131.544 130.202 131.545 130.185C131.568 129.648 131.921 129.218 132.35 129.218L149.849 129.26C149.857 129.298 149.865 129.337 149.873 129.375C150.165 130.746 150.817 132.591 152.292 133.956Z" fill="#B9B3F9"/>
<path d="M165.632 129.297L165.621 133.987L166.044 133.988L166.055 129.298L165.632 129.297Z" fill="#9D95F8"/>
<path d="M164.202 129.292L164.191 133.983L164.614 133.984L164.625 129.293L164.202 129.292Z" fill="#9D95F8"/>
<path d="M162.484 129.288L162.473 133.979L162.896 133.98L162.907 129.289L162.484 129.288Z" fill="#9D95F8"/>
<path d="M159.851 129.283L159.84 133.974L160.263 133.975L160.274 129.284L159.851 129.283Z" fill="#9D95F8"/>
<path d="M157.065 129.276L157.055 133.967L157.478 133.968L157.488 129.277L157.065 129.276Z" fill="#9D95F8"/>
<path d="M152.798 129.265L152.785 133.956L153.208 133.957L153.221 129.266L152.798 129.265Z" fill="#9D95F8"/>
<path d="M148.8 129.257L148.789 133.948L149.212 133.949L149.223 129.258L148.8 129.257Z" fill="#9D95F8"/>
<path d="M145.229 129.249L145.219 133.94L145.642 133.941L145.652 129.25L145.229 129.249Z" fill="#9D95F8"/>
<path d="M166.999 129.3L166.988 133.991L167.411 133.992L167.422 129.301L166.999 129.3Z" fill="#9D95F8"/>
<path d="M167.898 129.302L167.887 133.993L168.31 133.994L168.321 129.303L167.898 129.302Z" fill="#9D95F8"/>
<path d="M168.769 129.304L168.758 133.995L169.181 133.996L169.192 129.305L168.769 129.304Z" fill="#9D95F8"/>
<path d="M169.419 129.306L169.41 133.997H169.675C169.729 133.997 169.782 133.991 169.833 133.981L169.842 129.323C169.791 129.311 169.737 129.306 169.684 129.306H169.419Z" fill="#9D95F8"/>
<path d="M170.008 129.375L170 133.928C170.173 133.852 170.32 133.719 170.423 133.547L170.43 129.757C170.328 129.586 170.18 129.452 170.008 129.375Z" fill="#9D95F8"/>
<path d="M172.518 125.758L172.514 128.407C172.514 128.618 172.457 128.814 172.358 128.977C172.256 129.148 172.108 129.284 171.935 129.358C171.883 129.382 171.827 129.399 171.77 129.41C171.718 129.42 171.665 129.426 171.612 129.426L134.372 129.339C134.223 129.339 134.081 129.296 133.957 129.222C133.694 129.065 133.506 128.764 133.477 128.414C133.476 128.399 133.475 128.383 133.474 128.368C133.474 128.351 133.473 128.333 133.473 128.316L133.477 125.667C133.477 125.65 133.477 125.632 133.478 125.615C133.503 125.078 133.9 124.648 134.38 124.649L171.619 124.736C171.673 124.736 171.726 124.742 171.777 124.753C171.834 124.765 171.889 124.783 171.942 124.806C172.114 124.882 172.262 125.018 172.364 125.19C172.461 125.352 172.518 125.547 172.518 125.758Z" fill="#675AF6"/>
<path d="M154.227 129.385L134.276 129.338C134.143 129.338 134.016 129.295 133.906 129.221C133.671 129.064 133.503 128.764 133.477 128.414C133.476 128.399 133.475 128.383 133.474 128.368C133.474 128.351 133.473 128.333 133.473 128.316L133.477 125.667C133.477 125.65 133.477 125.632 133.478 125.615C133.501 125.078 133.855 124.648 134.283 124.649L151.783 124.69C152.052 126.034 152.673 127.879 154.102 129.271C154.145 129.308 154.185 129.347 154.227 129.385Z" fill="#B9B3F9"/>
<path d="M173.419 121.069L173.415 123.719C173.415 123.93 173.358 124.126 173.26 124.289C173.157 124.459 173.009 124.595 172.837 124.67C172.784 124.694 172.728 124.711 172.671 124.722C172.619 124.732 172.567 124.738 172.513 124.738L135.275 124.649C134.795 124.648 134.4 124.216 134.376 123.679C134.376 123.661 134.375 123.644 134.375 123.627L134.38 120.978C134.38 120.961 134.38 120.943 134.381 120.926C134.403 120.428 134.744 120.023 135.175 119.967C135.211 119.962 135.246 119.96 135.283 119.96L172.521 120.048C172.576 120.048 172.628 120.054 172.679 120.065C172.736 120.076 172.791 120.094 172.845 120.118C173.017 120.194 173.165 120.33 173.267 120.502C173.364 120.662 173.421 120.858 173.419 121.069Z" fill="#675AF6"/>
<path d="M155.128 124.697L135.178 124.649C134.749 124.648 134.397 124.216 134.376 123.679C134.376 123.661 134.375 123.644 134.375 123.627L134.38 120.978C134.38 120.961 134.38 120.943 134.381 120.926C134.401 120.429 134.706 120.023 135.091 119.967C135.122 119.962 135.154 119.96 135.186 119.96L152.686 120C152.686 120.003 152.687 120.006 152.687 120.008C152.965 121.387 153.614 123.294 155.128 124.697Z" fill="#B9B3F9"/>
<path d="M170.69 116.378L170.685 119.028C170.685 119.239 170.628 119.435 170.53 119.598C170.428 119.768 170.28 119.903 170.107 119.979C170.055 120.003 169.999 120.02 169.942 120.031C169.925 120.034 169.907 120.038 169.89 120.04C169.88 120.041 169.87 120.042 169.86 120.043C169.851 120.044 169.841 120.046 169.83 120.046C169.814 120.047 169.798 120.047 169.782 120.047L132.544 119.958C132.064 119.957 131.67 119.525 131.646 118.988C131.646 118.971 131.645 118.953 131.645 118.936L131.649 116.287C131.649 116.269 131.649 116.252 131.65 116.235C131.65 116.22 131.651 116.206 131.653 116.192C131.689 115.76 131.967 115.403 132.33 115.299C132.339 115.296 132.348 115.295 132.357 115.291C132.42 115.276 132.485 115.268 132.552 115.268L169.79 115.356C169.818 115.356 169.845 115.358 169.871 115.36C169.884 115.363 169.895 115.364 169.908 115.365C169.922 115.367 169.935 115.371 169.95 115.373C170.007 115.384 170.062 115.402 170.115 115.426C170.288 115.502 170.436 115.637 170.537 115.809C170.634 115.971 170.69 116.168 170.69 116.378Z" fill="#675AF6"/>
<path d="M152.398 120.006L132.447 119.958C132.019 119.957 131.666 119.525 131.646 118.988C131.646 118.971 131.645 118.953 131.645 118.936L131.649 116.287C131.649 116.269 131.649 116.252 131.65 116.235C131.65 116.22 131.651 116.206 131.653 116.192C131.686 115.749 131.944 115.389 132.278 115.292C132.29 115.288 132.301 115.286 132.313 115.283C132.359 115.273 132.406 115.268 132.455 115.268L149.955 115.308C149.958 115.32 149.96 115.33 149.962 115.341C150.243 116.718 150.89 118.606 152.388 119.998C152.392 120 152.395 120.004 152.398 120.006Z" fill="#B9B3F9"/>
<path d="M170.62 111.72L170.615 114.369C170.615 114.581 170.558 114.776 170.46 114.939C170.357 115.111 170.209 115.245 170.036 115.32C169.995 115.338 169.952 115.353 169.907 115.364H169.906C169.893 115.368 169.882 115.37 169.871 115.372C169.819 115.383 169.766 115.388 169.712 115.388L132.474 115.301C132.435 115.301 132.395 115.298 132.357 115.292C132.343 115.291 132.328 115.288 132.313 115.284C131.908 115.2 131.596 114.807 131.575 114.331C131.575 114.312 131.574 114.296 131.574 114.279L131.579 111.629C131.579 111.611 131.579 111.594 131.58 111.577C131.605 111.04 132.002 110.61 132.482 110.611L169.72 110.7C169.744 110.7 169.768 110.701 169.791 110.703C169.801 110.704 169.811 110.705 169.822 110.706C169.833 110.707 169.844 110.71 169.855 110.712C169.863 110.713 169.871 110.715 169.879 110.717C169.936 110.728 169.99 110.746 170.044 110.77C170.052 110.773 170.059 110.776 170.068 110.781C170.076 110.784 170.083 110.788 170.091 110.792C170.105 110.8 170.121 110.809 170.136 110.817C170.152 110.827 170.169 110.838 170.185 110.849C170.2 110.859 170.214 110.869 170.227 110.879C170.243 110.892 170.258 110.905 170.273 110.919C170.286 110.929 170.297 110.939 170.308 110.952C170.308 110.952 170.31 110.953 170.311 110.954C170.319 110.961 170.327 110.97 170.333 110.978C170.356 111.002 170.378 111.028 170.398 111.054C170.405 111.062 170.411 111.069 170.417 111.077C170.422 111.086 170.428 111.093 170.434 111.102C170.445 111.119 170.457 111.136 170.467 111.154C170.564 111.313 170.62 111.509 170.62 111.72Z" fill="#675AF6"/>
<path d="M152.328 115.348L132.378 115.3C132.362 115.3 132.346 115.299 132.33 115.298C132.313 115.297 132.296 115.295 132.279 115.291C131.896 115.23 131.595 114.824 131.575 114.329C131.575 114.31 131.574 114.293 131.574 114.276L131.579 111.627C131.579 111.609 131.579 111.592 131.58 111.575C131.603 111.038 131.956 110.608 132.385 110.608L149.884 110.649C149.892 110.687 149.9 110.726 149.908 110.764C150.195 112.124 150.839 113.951 152.29 115.313C152.304 115.325 152.316 115.336 152.328 115.348Z" fill="#B9B3F9"/>
<path d="M172.552 107.149L172.548 109.798C172.548 110.01 172.491 110.206 172.393 110.368C172.29 110.539 172.142 110.674 171.97 110.75C171.917 110.773 171.861 110.79 171.804 110.802C171.753 110.812 171.699 110.818 171.646 110.818L134.407 110.729C134.258 110.729 134.117 110.686 133.992 110.613C133.729 110.456 133.542 110.155 133.512 109.804C133.511 109.789 133.51 109.773 133.509 109.759C133.509 109.742 133.508 109.724 133.508 109.707L133.512 107.058C133.512 107.041 133.514 107.023 133.514 107.006C133.539 106.468 133.935 106.038 134.415 106.04L171.654 106.127C171.708 106.127 171.761 106.132 171.812 106.144C171.869 106.155 171.924 106.173 171.978 106.197C172.15 106.273 172.298 106.408 172.399 106.58C172.495 106.742 172.552 106.939 172.552 107.149Z" fill="#675AF6"/>
<path d="M154.258 110.777L134.308 110.731C134.174 110.731 134.049 110.688 133.937 110.614C133.702 110.457 133.535 110.157 133.508 109.806C133.507 109.792 133.506 109.776 133.505 109.761C133.505 109.744 133.504 109.726 133.504 109.709L133.508 107.06C133.508 107.043 133.51 107.025 133.51 107.008C133.532 106.471 133.887 106.041 134.315 106.041L151.815 106.081C152.084 107.425 152.704 109.271 154.134 110.663C154.177 110.7 154.217 110.738 154.258 110.777Z" fill="#B9B3F9"/>
<path d="M175.603 102.465L175.598 105.114C175.598 105.326 175.541 105.522 175.443 105.684C175.341 105.855 175.193 105.99 175.02 106.066C174.968 106.089 174.912 106.106 174.855 106.118C174.804 106.128 174.75 106.133 174.697 106.133L137.458 106.045C136.978 106.044 136.584 105.612 136.56 105.075C136.56 105.058 136.559 105.04 136.559 105.023L136.563 102.374C136.563 102.357 136.563 102.338 136.564 102.321C136.587 101.825 136.928 101.419 137.359 101.362C137.394 101.358 137.43 101.355 137.465 101.355L174.703 101.444C174.758 101.444 174.811 101.449 174.862 101.461C174.919 101.472 174.974 101.49 175.026 101.514C175.198 101.59 175.346 101.725 175.448 101.897C175.547 102.058 175.603 102.255 175.603 102.465Z" fill="#675AF6"/>
<path d="M157.308 106.093L137.357 106.045C136.929 106.044 136.576 105.612 136.556 105.075C136.556 105.058 136.555 105.04 136.555 105.023L136.559 102.374C136.559 102.357 136.559 102.338 136.56 102.321C136.581 101.825 136.885 101.419 137.271 101.362C137.301 101.358 137.333 101.355 137.365 101.355L154.865 101.396C154.865 101.398 154.867 101.401 154.867 101.404C155.146 102.784 155.794 104.691 157.308 106.093Z" fill="#B9B3F9"/>
<path d="M170.724 97.7697L170.719 100.419C170.719 100.63 170.662 100.826 170.564 100.989C170.462 101.16 170.314 101.294 170.141 101.37C170.089 101.394 170.033 101.411 169.976 101.422C169.959 101.426 169.941 101.429 169.924 101.431C169.91 101.433 169.895 101.435 169.881 101.436C169.875 101.436 169.868 101.437 169.861 101.438C169.846 101.438 169.832 101.439 169.818 101.439L132.579 101.351C132.099 101.35 131.705 100.918 131.681 100.38C131.681 100.363 131.68 100.345 131.68 100.328L131.684 97.6792C131.684 97.6622 131.685 97.6441 131.685 97.6271C131.71 97.0898 132.107 96.66 132.587 96.6611L169.826 96.7494C169.842 96.7494 169.858 96.7494 169.873 96.7516C169.911 96.7539 169.949 96.7596 169.984 96.7663C170.041 96.7777 170.096 96.7957 170.149 96.8195C170.177 96.8319 170.203 96.8444 170.227 96.8591C170.243 96.8681 170.259 96.8772 170.274 96.8874C170.275 96.8874 170.277 96.8885 170.278 96.8908C170.293 96.9009 170.309 96.9123 170.324 96.9236C170.327 96.9247 170.33 96.927 170.332 96.9292C170.346 96.9394 170.359 96.9507 170.372 96.962C170.404 96.9892 170.433 97.0186 170.462 97.0514C170.471 97.0604 170.479 97.0706 170.487 97.0808C170.488 97.0819 170.49 97.0842 170.491 97.0865C170.497 97.0921 170.502 97.0989 170.507 97.1057C170.509 97.1068 170.51 97.1079 170.511 97.1102C170.52 97.1215 170.529 97.134 170.537 97.1475C170.55 97.1656 170.561 97.1837 170.572 97.203C170.668 97.3625 170.724 97.5581 170.724 97.7697Z" fill="#675AF6"/>
<path d="M152.433 101.397L132.482 101.35C132.054 101.349 131.701 100.917 131.681 100.379C131.681 100.362 131.68 100.344 131.68 100.327L131.684 97.6781C131.684 97.6611 131.685 97.643 131.685 97.6261C131.708 97.0888 132.063 96.6589 132.49 96.6589L149.99 96.7008C149.997 96.7359 150.005 96.7721 150.013 96.8094C150.301 98.1792 150.952 100.024 152.424 101.391C152.427 101.392 152.43 101.395 152.433 101.397Z" fill="#B9B3F9"/>
<path d="M173.47 93.1931L173.466 95.8422C173.466 96.0537 173.409 96.2494 173.31 96.4123C173.208 96.5831 173.06 96.7177 172.887 96.7935C172.835 96.8173 172.779 96.8342 172.722 96.8455C172.67 96.8557 172.617 96.8614 172.564 96.8614L135.325 96.7731C135.181 96.7731 135.044 96.7336 134.923 96.6634C134.652 96.5085 134.458 96.2019 134.429 95.8433C134.428 95.8298 134.427 95.8162 134.427 95.8015C134.427 95.7845 134.426 95.7664 134.426 95.7495L134.43 93.1003C134.43 93.0822 134.43 93.0652 134.431 93.0483C134.454 92.5506 134.795 92.1456 135.226 92.0891C135.262 92.0845 135.297 92.0823 135.333 92.0823L172.572 92.1705C172.626 92.1705 172.679 92.1762 172.73 92.1875C172.787 92.1988 172.842 92.2169 172.895 92.2406C173.068 92.3164 173.215 92.4522 173.317 92.6241C173.414 92.7859 173.471 92.9827 173.47 93.1931Z" fill="#675AF6"/>
<path d="M155.175 96.8208L135.225 96.7733C135.096 96.7733 134.974 96.7337 134.865 96.6635C134.624 96.5086 134.45 96.202 134.425 95.8446C134.424 95.831 134.423 95.8174 134.423 95.8027C134.423 95.7858 134.422 95.7677 134.422 95.7507L134.426 93.1015C134.426 93.0834 134.426 93.0665 134.428 93.0495C134.448 92.5529 134.753 92.1468 135.138 92.0903C135.169 92.0858 135.201 92.0835 135.233 92.0835L152.733 92.1242C152.733 92.1265 152.734 92.1287 152.734 92.1321C153.004 93.4782 153.627 95.3231 155.06 96.7133C155.098 96.7484 155.136 96.7846 155.175 96.8208Z" fill="#B9B3F9"/>
<path d="M170.741 88.5032L170.736 91.1524C170.736 91.3639 170.679 91.5596 170.581 91.7225C170.479 91.8944 170.33 92.029 170.158 92.1037C170.106 92.1274 170.05 92.1444 169.993 92.1557C169.976 92.1591 169.958 92.1625 169.94 92.1648C169.931 92.1659 169.921 92.167 169.911 92.1682C169.902 92.1693 169.891 92.1693 169.881 92.1704C169.865 92.1716 169.849 92.1716 169.833 92.1716L132.595 92.0833C132.115 92.0822 131.72 91.6501 131.696 91.1128C131.696 91.0947 131.695 91.0777 131.695 91.0608L131.7 88.4116C131.7 88.3946 131.7 88.3765 131.701 88.3596C131.726 87.8223 132.123 87.3924 132.603 87.3936L169.841 87.4818C169.896 87.4818 169.948 87.4874 170 87.4987C170.057 87.5101 170.111 87.5282 170.165 87.5519C170.337 87.6277 170.485 87.7634 170.587 87.9354C170.685 88.096 170.741 88.2917 170.741 88.5032Z" fill="#675AF6"/>
<path d="M152.448 92.1297L132.498 92.0833C132.069 92.0822 131.717 91.6501 131.696 91.1128C131.696 91.0947 131.695 91.0777 131.695 91.0608L131.7 88.4116C131.7 88.3946 131.7 88.3765 131.701 88.3596C131.724 87.8223 132.077 87.3924 132.506 87.3936L150.006 87.4343C150.282 88.8143 150.928 90.7203 152.439 92.1241C152.443 92.1252 152.445 92.1274 152.448 92.1297Z" fill="#B9B3F9"/>
<path d="M167.566 124.725L167.555 129.416L167.978 129.417L167.989 124.726L167.566 124.725Z" fill="#9D95F8"/>
<path d="M166.135 124.722L166.125 129.413L166.548 129.413L166.558 124.723L166.135 124.722Z" fill="#9D95F8"/>
<path d="M164.412 124.718L164.402 129.408L164.825 129.409L164.835 124.718L164.412 124.718Z" fill="#9D95F8"/>
<path d="M161.781 124.712L161.77 129.403L162.193 129.404L162.204 124.713L161.781 124.712Z" fill="#9D95F8"/>
<path d="M158.996 124.705L158.984 129.396L159.407 129.397L159.419 124.706L158.996 124.705Z" fill="#9D95F8"/>
<path d="M154.73 124.696L154.719 129.387L155.142 129.388L155.153 124.697L154.73 124.696Z" fill="#9D95F8"/>
<path d="M150.733 124.685L150.723 129.376L151.146 129.377L151.156 124.686L150.733 124.685Z" fill="#9D95F8"/>
<path d="M147.164 124.678L147.152 129.369L147.575 129.37L147.587 124.679L147.164 124.678Z" fill="#9D95F8"/>
<path d="M168.929 124.728L168.918 129.419L169.341 129.42L169.352 124.729L168.929 124.728Z" fill="#9D95F8"/>
<path d="M169.83 124.731L169.82 129.422L170.243 129.423L170.253 124.732L169.83 124.731Z" fill="#9D95F8"/>
<path d="M170.699 124.733L170.688 129.424L171.11 129.425L171.122 124.734L170.699 124.733Z" fill="#9D95F8"/>
<path d="M171.352 124.734L171.344 129.425L171.608 129.426C171.663 129.426 171.715 129.42 171.767 129.41L171.776 124.752C171.725 124.741 171.671 124.735 171.617 124.735L171.352 124.734Z" fill="#9D95F8"/>
<path d="M171.942 124.804L171.934 129.358C172.107 129.282 172.254 129.149 172.357 128.977L172.363 125.188C172.261 125.016 172.114 124.88 171.942 124.804Z" fill="#9D95F8"/>
<path d="M155.628 120.006L155.617 124.697L156.04 124.698L156.051 120.007L155.628 120.006Z" fill="#9D95F8"/>
<path d="M151.632 119.996L151.621 124.687L152.044 124.688L152.055 119.997L151.632 119.996Z" fill="#9D95F8"/>
<path d="M148.062 119.988L148.051 124.679L148.474 124.68L148.485 119.989L148.062 119.988Z" fill="#9D95F8"/>
<path d="M170.241 124.731L170.25 120.04L169.879 120.039C169.898 120.037 169.918 120.035 169.938 120.03L169.947 115.372C169.921 115.367 169.895 115.363 169.868 115.36L169.876 110.814H170.042L170.034 115.32C170.207 115.244 170.354 115.111 170.457 114.939L170.464 111.15C170.379 111.008 170.263 110.893 170.128 110.814H170.277L170.286 106.123L169.863 106.122L169.855 110.71C169.81 110.702 169.766 110.697 169.719 110.697L169.454 110.696L169.445 115.387H169.524L169.515 120.045L169.779 120.046C169.795 120.046 169.811 120.045 169.827 120.044L169.818 124.73L170.241 124.731Z" fill="#9D95F8"/>
<path d="M170.73 120.041L170.719 124.732L171.142 124.733L171.153 120.042L170.73 120.041Z" fill="#9D95F8"/>
<path d="M171.602 120.043L171.59 124.734L172.013 124.735L172.025 120.044L171.602 120.043Z" fill="#9D95F8"/>
<path d="M172.255 120.045L172.246 124.736L172.511 124.737C172.565 124.737 172.618 124.732 172.669 124.721L172.677 120.063C172.626 120.052 172.572 120.046 172.519 120.046L172.255 120.045Z" fill="#9D95F8"/>
<path d="M172.84 120.115L172.832 124.67C173.005 124.594 173.152 124.46 173.255 124.288L173.262 120.499C173.159 120.327 173.012 120.191 172.84 120.115Z" fill="#9D95F8"/>
<path d="M166.15 120.039L166.157 115.346H166.08L166.088 110.688L165.665 110.687L165.656 115.379H165.735L165.725 120.029L165.313 120.028L165.305 124.72H165.728L165.737 120.037L166.15 120.039Z" fill="#9D95F8"/>
<path d="M163.009 115.34L162.931 115.339L162.94 110.682L162.517 110.681L162.508 115.372H162.586L162.577 120.03H162.682L162.673 124.714L163.096 124.715L163.105 120.024L163 120.023L163.009 115.34Z" fill="#9D95F8"/>
<path d="M170.113 115.424L170.105 119.978C170.279 119.903 170.426 119.768 170.528 119.597L170.535 115.808C170.434 115.636 170.286 115.5 170.113 115.424Z" fill="#9D95F8"/>
<path d="M160.303 110.675L159.88 110.674L159.871 115.366H159.95L159.942 120.016H159.894L159.886 124.707L160.309 124.708L160.318 120.024L160.365 120.025L160.373 115.333H160.295L160.303 110.675Z" fill="#9D95F8"/>
<path d="M157.522 110.669L157.099 110.668L157.09 115.359H157.169L157.159 120.017L157.582 120.018L157.592 115.326H157.513L157.522 110.669Z" fill="#9D95F8"/>
<path d="M153.252 110.659L152.828 110.658L152.82 115.349H152.898L152.89 120.007L153.313 120.008L153.322 115.316H153.243L153.252 110.659Z" fill="#9D95F8"/>
<path d="M149.252 110.649L148.829 110.647L148.82 115.339H148.899L148.89 119.998H149.314L149.322 115.307H149.243L149.252 110.649Z" fill="#9D95F8"/>
<path d="M145.685 110.641L145.262 110.64L145.254 115.331H145.331L145.323 119.989L145.746 119.99L145.756 115.299H145.677L145.685 110.641Z" fill="#9D95F8"/>
<path d="M167.452 110.692L167.029 110.691L167.02 115.383H167.098L167.09 120.033H167.031L167.023 124.724L167.446 124.725L167.454 120.041H167.513L167.521 115.35H167.444L167.452 110.692Z" fill="#9D95F8"/>
<path d="M168.354 110.694L168.014 110.693L168.022 106.117L167.599 106.116L167.59 110.808H167.931L167.923 115.384L168 115.385L167.992 120.042L168.415 120.043L168.423 115.352H168.346L168.354 110.694Z" fill="#9D95F8"/>
<path d="M166.167 106.114L166.156 110.805L166.579 110.806L166.59 106.115L166.167 106.114Z" fill="#9D95F8"/>
<path d="M164.441 110.685L164.235 110.684L164.227 115.376H164.304L164.296 120.034L164.719 120.035L164.728 115.343H164.65L164.658 110.801H164.864L164.873 106.11L164.449 106.109L164.441 110.685Z" fill="#9D95F8"/>
<path d="M161.817 106.103L161.805 110.794L162.228 110.795L162.24 106.104L161.817 106.103Z" fill="#9D95F8"/>
<path d="M159.031 106.096L159.02 110.787L159.443 110.788L159.454 106.097L159.031 106.096Z" fill="#9D95F8"/>
<path d="M154.761 106.087L154.75 110.778L155.173 110.779L155.184 106.088L154.761 106.087Z" fill="#9D95F8"/>
<path d="M150.764 106.077L150.754 110.768L151.177 110.769L151.187 106.078L150.764 106.077Z" fill="#9D95F8"/>
<path d="M147.195 106.069L147.184 110.76L147.607 110.761L147.618 106.07L147.195 106.069Z" fill="#9D95F8"/>
<path d="M168.954 110.696H168.801L168.793 115.386H168.871L168.863 120.038L168.466 120.037L168.457 124.727L168.88 124.729L168.889 120.044L169.286 120.046L169.294 115.355H169.216L169.224 110.812H169.377L169.386 106.121L168.963 106.12L168.954 110.696Z" fill="#9D95F8"/>
<path d="M170.734 106.124L170.723 110.815L171.146 110.816L171.157 106.125L170.734 106.124Z" fill="#9D95F8"/>
<path d="M171.802 110.801L171.811 106.143C171.759 106.132 171.706 106.126 171.653 106.126L171.388 106.125L171.379 110.816L171.643 110.817C171.697 110.817 171.749 110.812 171.802 110.801Z" fill="#9D95F8"/>
<path d="M172.392 110.368L172.399 106.579C172.296 106.407 172.149 106.272 171.977 106.196L171.969 110.75C172.141 110.674 172.289 110.539 172.392 110.368Z" fill="#9D95F8"/>
<path d="M170.652 101.432L170.641 106.123L171.064 106.124L171.075 101.433L170.652 101.432Z" fill="#9D95F8"/>
<path d="M164.867 101.418L164.855 106.109L165.278 106.11L165.29 101.419L164.867 101.418Z" fill="#9D95F8"/>
<path d="M162.082 101.413L162.07 106.104L162.493 106.105L162.504 101.414L162.082 101.413Z" fill="#9D95F8"/>
<path d="M157.816 101.402L157.805 106.093L158.228 106.094L158.239 101.403L157.816 101.402Z" fill="#9D95F8"/>
<path d="M153.816 101.393L153.805 106.084L154.228 106.085L154.239 101.394L153.816 101.393Z" fill="#9D95F8"/>
<path d="M150.248 101.385L150.238 106.076L150.661 106.076L150.671 101.386L150.248 101.385Z" fill="#9D95F8"/>
<path d="M172.015 101.435L172.004 106.126L172.427 106.127L172.438 101.436L172.015 101.435Z" fill="#9D95F8"/>
<path d="M172.917 101.438L172.906 106.129L173.329 106.13L173.34 101.439L172.917 101.438Z" fill="#9D95F8"/>
<path d="M173.785 101.44L173.773 106.131L174.196 106.132L174.208 101.441L173.785 101.44Z" fill="#9D95F8"/>
<path d="M174.438 101.441L174.43 106.132L174.694 106.133C174.749 106.133 174.801 106.128 174.853 106.117L174.862 101.459C174.811 101.449 174.757 101.442 174.703 101.442L174.438 101.441Z" fill="#9D95F8"/>
<path d="M175.028 101.511L175.02 106.066C175.193 105.99 175.34 105.855 175.443 105.684L175.449 101.895C175.348 101.723 175.201 101.587 175.028 101.511Z" fill="#9D95F8"/>
<path d="M165.759 101.43L166.183 101.431L166.191 96.7387L165.778 96.7376L165.786 92.1621L166.199 92.1632L166.208 87.4723L165.785 87.4712L165.776 92.1553L165.363 92.1542L165.355 96.8451L165.768 96.8462L165.759 101.43Z" fill="#9D95F8"/>
<path d="M164.341 96.7331L164.328 101.424L164.751 101.425L164.764 96.7342L164.341 96.7331Z" fill="#9D95F8"/>
<path d="M157.203 96.7166L157.191 101.407L157.614 101.408L157.626 96.7176L157.203 96.7166Z" fill="#9D95F8"/>
<path d="M152.933 96.7064L152.922 101.397L153.345 101.398L153.356 96.7073L152.933 96.7064Z" fill="#9D95F8"/>
<path d="M148.937 96.6973L148.926 101.388L149.349 101.389L149.36 96.6983L148.937 96.6973Z" fill="#9D95F8"/>
<path d="M145.367 96.6891L145.355 101.38L145.779 101.381L145.79 96.6901L145.367 96.6891Z" fill="#9D95F8"/>
<path d="M167.126 101.432L167.499 101.433L167.492 106.117L167.914 106.118L167.922 101.427L167.549 101.426L167.556 96.742H167.498L167.506 92.1665H167.566L167.574 87.4756L167.151 87.4745L167.141 92.1575H167.083L167.074 96.8495H167.134L167.126 101.432Z" fill="#9D95F8"/>
<path d="M168.036 96.743L168.027 101.434L168.45 101.435L168.459 96.7437L168.036 96.743Z" fill="#9D95F8"/>
<path d="M170.22 96.8563H170.294L170.304 92.1654L169.932 92.1642C169.951 92.162 169.972 92.1597 169.991 92.1552L170 87.4971C169.949 87.4858 169.895 87.4801 169.842 87.4801L169.577 87.479L169.568 92.1699H169.833C169.849 92.1699 169.865 92.1688 169.881 92.1676L169.873 96.7488C169.857 96.7477 169.841 96.7465 169.825 96.7465H169.56L169.551 101.431H169.32L169.329 96.7465L168.932 96.7454L168.94 92.1699L169.337 92.171L169.346 87.4801L168.923 87.479L168.914 92.1631L168.517 92.162L168.508 96.8529L168.905 96.854L168.897 101.437L169.218 101.439L169.209 106.123L169.632 106.124L169.641 101.44H169.814C169.869 101.44 169.922 101.434 169.973 101.424L169.981 96.8574H170.146L170.138 101.372C170.312 101.297 170.459 101.163 170.561 100.991L170.568 97.2013C170.483 97.0531 170.361 96.9354 170.22 96.8563Z" fill="#9D95F8"/>
<path d="M155.678 92.1304L155.668 96.8213L156.091 96.8222L156.101 92.1313L155.678 92.1304Z" fill="#9D95F8"/>
<path d="M151.683 92.1214L151.672 96.8123L152.095 96.8132L152.106 92.1223L151.683 92.1214Z" fill="#9D95F8"/>
<path d="M148.113 92.1127L148.102 96.8036L148.525 96.8046L148.536 92.1137L148.113 92.1127Z" fill="#9D95F8"/>
<path d="M170.781 92.1653L170.77 96.8562L171.193 96.8572L171.204 92.1663L170.781 92.1653Z" fill="#9D95F8"/>
<path d="M171.652 92.1677L171.641 96.8586L172.064 96.8596L172.075 92.1687L171.652 92.1677Z" fill="#9D95F8"/>
<path d="M172.306 92.1692L172.297 96.8601H172.561C172.616 96.8601 172.669 96.8544 172.72 96.8442L172.728 92.1862C172.677 92.1748 172.623 92.1692 172.569 92.1692H172.306Z" fill="#9D95F8"/>
<path d="M173.31 96.4123L173.317 92.623C173.214 92.451 173.067 92.3164 172.895 92.2395L172.887 96.7935C173.059 96.7177 173.207 96.5831 173.31 96.4123Z" fill="#9D95F8"/>
<path d="M164.355 87.4673L164.344 92.1582L164.767 92.1592L164.778 87.4683L164.355 87.4673Z" fill="#9D95F8"/>
<path d="M163.059 87.464L162.636 87.4629L162.626 92.1549H162.73L162.722 96.7304H162.619L162.609 101.421L163.032 101.422L163.042 96.839H163.145L163.154 92.1481H163.049L163.059 87.464Z" fill="#9D95F8"/>
<path d="M159.992 92.1413L159.945 92.1401L159.938 96.8322H159.984L159.975 101.416H160.399L160.407 96.7247H160.36L160.368 92.1492H160.416L160.424 87.4583L160.001 87.4572L159.992 92.1413Z" fill="#9D95F8"/>
<path d="M157.218 87.4491L157.207 92.14L157.63 92.141L157.641 87.4501L157.218 87.4491Z" fill="#9D95F8"/>
<path d="M152.953 87.4393L152.941 92.1302L153.364 92.1312L153.376 87.4403L152.953 87.4393Z" fill="#9D95F8"/>
<path d="M148.954 87.4299L148.941 92.1207L149.364 92.1218L149.377 87.4309L148.954 87.4299Z" fill="#9D95F8"/>
<path d="M145.385 87.4229L145.375 92.1138L145.798 92.1147L145.808 87.4238L145.385 87.4229Z" fill="#9D95F8"/>
<path d="M168.055 87.4755L168.043 92.1664L168.466 92.1675L168.478 87.4766L168.055 87.4755Z" fill="#9D95F8"/>
<path d="M170.164 87.5493L170.156 92.1033C170.33 92.0275 170.477 91.8941 170.579 91.7221L170.586 87.9328C170.485 87.7597 170.336 87.6251 170.164 87.5493Z" fill="#9D95F8"/>
<path d="M182.568 100.057L185.197 100.519C185.407 100.557 185.591 100.646 185.735 100.769C185.888 100.899 185.995 101.067 186.041 101.249C186.055 101.304 186.062 101.362 186.063 101.419C186.064 101.471 186.061 101.524 186.052 101.577L179.52 137.948C179.436 138.417 178.938 138.727 178.401 138.657C178.384 138.655 178.366 138.653 178.349 138.649L175.72 138.186C175.703 138.182 175.686 138.179 175.667 138.175C175.138 138.058 174.78 137.596 174.864 137.127L181.396 100.756C181.4 100.732 181.405 100.709 181.411 100.687C181.414 100.677 181.417 100.667 181.421 100.657C181.424 100.647 181.427 100.636 181.432 100.626C181.434 100.618 181.438 100.611 181.441 100.603C181.463 100.55 181.489 100.499 181.522 100.451C181.527 100.445 181.531 100.438 181.537 100.43C181.541 100.423 181.547 100.416 181.552 100.41C181.562 100.396 181.573 100.382 181.585 100.37C181.592 100.362 181.598 100.355 181.605 100.347C181.612 100.341 181.618 100.334 181.625 100.328C181.637 100.316 181.65 100.304 181.662 100.292C181.677 100.278 181.693 100.266 181.709 100.253C181.722 100.243 181.734 100.234 181.747 100.225C181.748 100.225 181.748 100.224 181.749 100.224C181.758 100.218 181.767 100.212 181.776 100.206C181.804 100.188 181.833 100.171 181.863 100.155C181.872 100.151 181.881 100.146 181.889 100.141C181.898 100.137 181.907 100.134 181.917 100.129C181.936 100.121 181.954 100.113 181.974 100.105C182.154 100.041 182.358 100.019 182.568 100.057Z" fill="#675AF6"/>
<path d="M183.005 118.559L179.506 138.044C179.431 138.463 178.94 138.732 178.403 138.659C178.386 138.657 178.368 138.655 178.351 138.652L175.722 138.188C175.705 138.184 175.688 138.181 175.669 138.178C175.14 138.062 174.774 137.643 174.85 137.223L177.919 120.131C177.959 120.13 177.998 120.129 178.038 120.128C179.449 120.083 181.394 119.764 183.005 118.559Z" fill="#B9B3F9"/>
<path d="M180.75 104.307L180.676 104.72L185.33 105.544L185.405 105.131L180.75 104.307Z" fill="#9D95F8"/>
<path d="M180.5 105.705L180.426 106.118L185.081 106.94L185.155 106.527L180.5 105.705Z" fill="#9D95F8"/>
<path d="M180.203 107.373L180.129 107.786L184.784 108.609L184.858 108.195L180.203 107.373Z" fill="#9D95F8"/>
<path d="M179.742 109.944L179.668 110.357L184.323 111.18L184.397 110.767L179.742 109.944Z" fill="#9D95F8"/>
<path d="M179.25 112.674L179.176 113.087L183.831 113.909L183.905 113.496L179.25 112.674Z" fill="#9D95F8"/>
<path d="M178.52 116.844L178.445 117.257L183.1 118.08L183.174 117.667L178.52 116.844Z" fill="#9D95F8"/>
<path d="M177.801 120.747L177.727 121.16L182.381 121.982L182.456 121.569L177.801 120.747Z" fill="#9D95F8"/>
<path d="M177.18 124.243L177.105 124.656L181.76 125.481L181.834 125.068L177.18 124.243Z" fill="#9D95F8"/>
<path d="M180.992 102.963L180.918 103.376L185.573 104.199L185.647 103.786L180.992 102.963Z" fill="#9D95F8"/>
<path d="M181.168 102.093L181.094 102.506L185.749 103.33L185.823 102.916L181.168 102.093Z" fill="#9D95F8"/>
<path d="M181.305 101.234L181.23 101.647L185.885 102.47L185.96 102.057L181.305 101.234Z" fill="#9D95F8"/>
<path d="M181.352 101.016L186.007 101.836L186.054 101.578C186.063 101.525 186.067 101.473 186.065 101.42L181.442 100.605C181.422 100.654 181.407 100.705 181.397 100.758L181.352 101.016Z" fill="#9D95F8"/>
<path d="M181.523 100.455L186.043 101.251C185.999 101.069 185.89 100.901 185.737 100.771L181.977 100.108C181.789 100.179 181.629 100.298 181.523 100.455Z" fill="#9D95F8"/>
<path d="M271.32 138.655H255.318C254.461 137.933 255.912 136.294 257.427 136.185C258.086 136.135 258.919 136.272 259.87 136.472C260.09 133.57 261.347 120.526 266.087 121.05C271.416 121.637 266.087 126.795 264.581 129.848C263.464 132.11 262.288 135.353 261.75 136.884C262.182 136.976 262.63 137.068 263.087 137.152C263.794 135 266.422 127.763 269.764 128.184C273.688 128.678 272.11 131.58 269.329 133.302C267.288 134.569 264.784 136.369 263.592 137.239C264.601 137.402 265.653 137.513 266.722 137.488C269.464 137.422 270.802 138.223 271.32 138.655Z" fill="#4F44D0"/>
<path d="M62.667 138.128C62.0319 137.137 60.1188 134.567 57.5717 134.906C54.7954 135.277 60.6375 137.093 62.4253 138.134C62.0285 138.14 61.6865 138.108 61.4356 138.02C60.2396 137.597 58.1931 138.408 57.5375 138.693H68.9196C68.8409 138.423 68.6357 137.982 68.1055 137.661C67.9185 137.547 67.5434 137.532 67.0577 137.568C67.735 136.776 68.2047 134.248 66.32 134.898C64.9439 135.373 64.9473 136.918 65.083 137.832C64.79 137.878 64.4935 137.924 64.1994 137.966C63.6327 135.101 61.6283 126.703 57.566 126.479C53.4478 126.252 61.0583 135.188 63.5928 138.046C63.269 138.085 62.9566 138.114 62.667 138.128Z" fill="#4F44D0"/>
<path d="M175.528 66.8054C181.928 60.4549 181.928 50.1588 175.528 43.8084C169.127 37.458 158.749 37.458 152.348 43.8084C145.947 50.1588 145.947 60.4549 152.348 66.8054C158.749 73.1558 169.127 73.1558 175.528 66.8054Z" fill="#9D95F8"/>
<path d="M178.538 60.1188C180.837 51.4324 175.603 42.5415 166.848 40.2603C158.092 37.9792 149.131 43.1716 146.831 51.858C144.532 60.5444 149.766 69.4353 158.521 71.7165C167.277 73.9976 176.238 68.8051 178.538 60.1188Z" fill="#8279F8"/>
<path d="M162.806 70.9726C157.536 70.9726 152.421 68.2046 149.702 63.3113C147.776 59.8454 147.326 55.8434 148.435 52.0416C149.544 48.2398 152.078 45.094 155.572 43.1835C159.065 41.273 163.099 40.8262 166.931 41.9257C170.763 43.0252 173.934 45.5397 175.859 49.0056C179.835 56.1601 177.203 65.189 169.991 69.1333C167.711 70.381 165.241 70.9726 162.806 70.9726ZM162.76 42.2209C160.421 42.2209 158.106 42.8068 156.001 43.9584C152.717 45.7546 150.334 48.7126 149.291 52.2882C148.248 55.8626 148.671 59.6271 150.482 62.886C153.038 67.4864 157.85 70.0903 162.804 70.0903C165.094 70.0903 167.415 69.5337 169.559 68.3619C176.341 64.6528 178.816 56.1624 175.077 49.4354C173.267 46.1765 170.285 43.8124 166.681 42.7774C165.389 42.4042 164.071 42.2209 162.76 42.2209Z" fill="#675AF6"/>
<path d="M156.098 53.5351C156.931 53.0583 157.763 52.5816 158.596 52.1048C158.996 51.8751 159.396 51.6174 159.823 51.4395C159.767 51.4624 159.711 51.4853 159.655 51.5082C159.978 51.3764 160.317 51.2876 160.663 51.2437C160.605 51.2509 160.547 51.2581 160.489 51.2653C160.819 51.2257 161.153 51.2274 161.483 51.2699C161.425 51.2623 161.368 51.2546 161.311 51.2469C161.647 51.2924 161.975 51.3796 162.289 51.5069C162.236 51.4852 162.182 51.4634 162.128 51.4416C162.436 51.5686 162.725 51.7324 162.992 51.9307C162.945 51.8956 162.898 51.8604 162.851 51.8253C163.13 52.0353 163.378 52.28 163.591 52.5546C163.554 52.5069 163.517 52.4593 163.48 52.4116C163.688 52.6823 163.859 52.9771 163.992 53.2908C163.969 53.2351 163.946 53.1795 163.922 53.1238C164.055 53.4446 164.145 53.7801 164.189 54.1242C164.182 54.0664 164.175 54.0087 164.167 53.9509C164.207 54.2789 164.205 54.6094 164.163 54.9371C164.17 54.8802 164.178 54.8233 164.186 54.7664C164.14 55.1 164.052 55.4254 163.924 55.737C163.946 55.6839 163.968 55.6308 163.99 55.5777C163.862 55.8827 163.697 56.1697 163.497 56.434C163.532 56.3876 163.567 56.3412 163.603 56.2948C163.391 56.5709 163.145 56.817 162.868 57.0289C162.916 56.9921 162.964 56.9553 163.012 56.9186C162.689 57.1626 162.322 57.3517 161.971 57.5529C161.44 57.8572 160.908 58.1616 160.377 58.4659C160.025 58.6677 159.672 58.8695 159.32 59.0713C159 59.2548 158.887 59.6732 159.072 59.9911C159.132 60.0938 159.191 60.1966 159.251 60.2993C159.354 60.4762 159.5 60.5762 159.691 60.6422C159.751 60.6631 159.812 60.6839 159.872 60.7048C160.174 60.8091 160.476 60.9134 160.778 61.0177C161.839 61.3839 162.899 61.7502 163.96 62.1164C165.119 62.5165 166.278 62.9166 167.436 63.3167C168.08 63.539 168.724 63.7614 169.368 63.9837C169.382 63.9886 169.397 63.9936 169.411 63.9985C169.761 64.1193 170.152 63.8574 170.242 63.5224C170.289 63.3507 170.264 63.1655 170.175 63.0114C170.079 62.8479 169.937 62.7581 169.762 62.6977C169.253 62.5218 168.744 62.346 168.235 62.1702C167.116 61.7838 165.996 61.3974 164.877 61.011C163.761 60.6256 162.645 60.2403 161.529 59.8549C161.029 59.6822 160.529 59.5095 160.029 59.3369C160.166 59.4415 160.304 59.546 160.441 59.6506C160.376 59.5397 160.312 59.4287 160.247 59.3177C160.165 59.6244 160.082 59.931 159.999 60.2376C160.831 59.7608 161.664 59.284 162.496 58.8072C162.814 58.6251 163.141 58.4525 163.45 58.2542C163.86 57.99 164.237 57.664 164.538 57.281C164.869 56.8622 165.115 56.4213 165.299 55.921C165.623 55.039 165.636 54.0261 165.362 53.1301C165.218 52.6579 164.997 52.2009 164.704 51.8019C164.38 51.3614 164.008 51.0009 163.56 50.6854C162.793 50.1454 161.817 49.8707 160.88 49.8903C160.081 49.907 159.312 50.1393 158.623 50.5344C157.705 51.0602 156.787 51.586 155.869 52.1118C155.719 52.1975 155.569 52.2832 155.42 52.3689C155.099 52.5524 154.986 52.9708 155.171 53.2887C155.356 53.6066 155.778 53.7186 156.098 53.5351Z" fill="white"/>
<path d="M166.612 50.5758C166.155 50.8376 165.698 51.0995 165.241 51.3613C164.224 51.9435 163.208 52.5256 162.191 53.1078C161.149 53.7052 160.106 54.3026 159.063 54.9C158.526 55.2076 157.989 55.5152 157.452 55.8228C157.446 55.8259 157.441 55.8289 157.435 55.832C157.115 56.0155 157.002 56.434 157.187 56.7519C157.372 57.0697 157.794 57.1819 158.114 56.9983C158.571 56.7365 159.028 56.4746 159.486 56.2128C160.502 55.6306 161.518 55.0485 162.535 54.4663C163.578 53.8689 164.62 53.2715 165.663 52.6741C166.2 52.3665 166.738 52.0589 167.275 51.7513C167.28 51.7482 167.285 51.7451 167.291 51.7421C167.611 51.5585 167.724 51.1401 167.539 50.8222C167.354 50.5043 166.932 50.3922 166.612 50.5758Z" fill="white"/>
<path d="M156.099 53.5346C156.556 53.2728 157.013 53.0109 157.47 52.7491C158.486 52.1669 159.503 51.5848 160.519 51.0026C161.562 50.4052 162.605 49.8078 163.648 49.2104C164.185 48.9028 164.722 48.5952 165.259 48.2876C165.264 48.2845 165.27 48.2814 165.275 48.2783C165.595 48.0948 165.708 47.6764 165.523 47.3585C165.338 47.0406 164.917 46.9285 164.596 47.112C164.139 47.3739 163.682 47.6357 163.225 47.8975C162.209 48.4797 161.192 49.0619 160.176 49.644C159.133 50.2414 158.09 50.8388 157.047 51.4362C156.51 51.7438 155.973 52.0515 155.436 52.359C155.431 52.3621 155.425 52.3652 155.42 52.3683C155.099 52.5518 154.986 52.9702 155.171 53.2881C155.356 53.606 155.778 53.7181 156.099 53.5346Z" fill="white"/>
<path d="M180.321 67.9325C179.783 67.5549 178.561 66.7251 178.498 66.9099C178.452 67.0432 178.517 67.2688 178.663 67.5043C177.924 67.2306 177.174 67.0512 175.401 67.3888C175.046 67.4563 174.724 67.6571 174.529 67.9582C174.348 68.2372 174.281 68.5872 174.733 68.8662C175.638 69.425 175.376 69.0901 176.634 69.903C177.892 70.7159 179.432 70.9238 180.352 70.3534L181.587 70.1491L181.74 68.1341C181.739 68.1341 181.035 68.0506 180.321 67.9325Z" fill="url(#paint0_linear)"/>
<path d="M212.679 51.0301C212.679 51.0301 209.768 54.4567 206.06 53.0237C206.06 53.0237 205.262 51.11 205.252 49.6992C205.251 49.5251 205.248 49.3572 205.245 49.1973C205.226 47.6088 205.172 46.7168 205.172 46.7168C205.172 46.7168 205.173 46.7168 205.175 46.7159C205.344 46.6457 210.843 44.406 210.839 44.5926C210.744 48.889 212.679 51.0301 212.679 51.0301Z" fill="url(#paint1_linear)"/>
<path opacity="0.1" d="M210.286 45.6172C209.756 46.5927 207.936 48.5002 205.245 49.1967C205.226 47.6082 205.172 46.7162 205.172 46.7162C205.172 46.7162 205.173 46.7162 205.175 46.7153C205.327 46.6753 210.444 45.3294 210.286 45.6172Z" fill="black"/>
<path d="M204.02 46.5518C204.02 46.5518 210.205 47.9946 211.051 44.1593C211.897 40.3248 213.265 37.9288 209.352 36.8458C205.44 35.7628 204.347 37.059 203.751 38.2708C203.155 39.4817 202.434 46.0774 204.02 46.5518Z" fill="url(#paint2_linear)"/>
<path d="M210.843 45.2041C210.927 45.2574 212.257 45.6634 214.777 40.6829C215.173 39.9011 215.443 38.2096 214.52 36.7152C213.598 35.2209 210.329 34.0455 207.612 33.5347C204.896 33.0229 204.243 34.5395 203.603 36.064C202.932 37.6641 200.992 38.9807 200.992 38.9807C203.335 40.2787 206.156 38.4219 207.133 38.7275C208.111 39.0331 208.456 40.5612 208.53 41.0507C208.603 41.5403 208.716 41.948 209.944 41.5101C211.174 41.0729 210.5 43.238 210.303 43.652C210.304 43.6529 210.137 44.7563 210.843 45.2041Z" fill="#00134F"/>
<path d="M226.771 140.831H230.516C231.301 140.831 232.173 140.05 232.391 138.623C232.61 137.194 234.223 136.415 234.572 135.247C234.922 134.078 233.132 132.433 233.132 132.433L232.833 132.052L232.523 131.655L229.557 132.347C229.557 132.347 229.483 133.048 229.438 133.94C229.406 134.584 229.388 135.329 229.426 135.982C229.513 137.541 228.986 139.219 227.591 139.522C226.192 139.826 226.771 140.831 226.771 140.831Z" fill="#132056"/>
<path d="M200.703 140.831H210.629C210.724 140.812 210.796 140.792 210.839 140.771C211.502 140.441 211.294 137.924 211.214 137.147C211.199 137.003 211.188 136.918 211.188 136.918C211.188 136.918 207.698 134.149 207.218 136.27C207.203 136.336 207.185 136.401 207.167 136.465V136.466C206.561 138.45 203.853 139.352 202.288 139.603C201.093 139.795 200.783 140.486 200.703 140.831Z" fill="#132056"/>
<path d="M202.703 84.0437C202.703 84.0437 203.233 90.6047 203.857 98.4921C204.704 109.206 205.722 122.366 205.822 124.86C205.997 129.189 206.695 136.113 206.695 136.113C206.695 136.113 208.352 137.759 211.669 137.065C211.669 137.065 214.624 127.179 215.468 116.72C215.482 116.548 215.494 116.376 215.508 116.203C216.293 105.555 217.514 83.1339 217.514 83.1339L202.703 84.0437Z" fill="#4F44D0"/>
<path opacity="0.2" d="M202.703 84.0435C202.703 84.0435 203.233 90.6045 203.857 98.4919L215.468 116.721C215.482 116.549 215.494 116.377 215.508 116.204C216.293 105.556 217.514 83.1346 217.514 83.1346L202.703 84.0435Z" fill="#0A1D32"/>
<path d="M205.125 84.8226C205.125 84.8226 214.679 108.585 220.962 119.752C227.244 130.918 229.207 134.035 229.207 134.035C229.207 134.035 232.806 132.606 233.134 131.633C233.134 131.633 230.731 110.074 226.524 104.819C224.147 101.849 221.355 92.9383 221.224 89.8217C221.093 86.7052 220.373 80.5377 220.373 80.5377L205.125 84.8226Z" fill="#8279F8"/>
<path d="M226.915 80.5044L227.016 82.0325C227.016 82.0325 226 84.7475 228.846 86.1397C228.846 86.1397 230.065 86.6274 230.114 85.6866C230.164 84.7457 230.008 85.0993 230.107 83.7747C230.207 82.4491 229.681 81.1973 228.797 80.7753L228.072 79.9456L226.915 80.5044Z" fill="#F8E4E5"/>
<path d="M228.027 81.6177C226.969 81.9544 226.8 81.878 226.8 81.878C226.8 81.878 221.653 72.5806 221.132 71.7295C220.61 70.8784 210.203 61.3039 210.203 61.3039L212.878 51.4095C212.878 51.4095 224.715 66.6167 225.993 68.7986C228.106 72.4047 229.343 80.779 229.343 80.779C229.343 80.779 228.857 81.3529 228.027 81.6177Z" fill="#FFBD00"/>
<path d="M200.688 65.189C200.725 67.2209 200.844 69.505 201.005 71.8256C201.015 71.9633 201.025 72.101 201.035 72.2387C201.138 73.6761 201.249 75.1163 201.377 76.5209C201.428 77.0841 201.483 77.6412 201.54 78.1876L201.549 78.2613C201.553 78.4656 201.578 78.6877 201.601 78.8903C202.123 84.1524 202.669 88.3094 202.771 88.3733C202.892 88.4533 203.029 88.4933 203.179 88.4764C204.569 88.3031 208.719 88.6159 212.117 87.8829C214.983 87.2832 217.452 86.1452 220.068 84.6117C220.415 84.4083 221.207 83.869 221.142 83.4657C221.079 83.0224 220.962 82.3827 220.813 81.5778C220.299 78.7792 219.408 73.9649 219.105 68.3305C219.046 67.2813 218.96 66.2445 218.848 65.2255C218.556 62.5709 218.089 60.0495 217.463 57.8098C216.298 53.6484 214.586 50.4617 212.439 49.2152C212.159 49.0588 210.649 50.0121 209.262 50.8952C207.981 51.7099 206.633 51.9347 205.322 51.821L204.167 53.087C202.77 54.6985 201.282 56.8441 200.875 59.894C200.845 60.1197 200.819 60.3587 200.797 60.6128C200.684 61.8548 200.656 63.4273 200.688 65.189Z" fill="#FFF5D9"/>
<path opacity="0.1" d="M200.688 65.1894C200.725 67.2212 200.844 69.5054 201.005 71.8259C201.015 71.9636 201.025 72.1013 201.035 72.239C208.98 67.3056 210.203 58.2775 210.203 58.2775C206.294 58.4472 203.189 59.3391 200.797 60.614C200.684 61.8551 200.656 63.4277 200.688 65.1894Z" fill="#0A1D32"/>
<path d="M180.613 69.0754C180.531 67.9063 181.141 67.7117 181.141 67.7117C181.141 67.7117 193.119 65.5582 194.137 65.2401C195.156 64.9221 203.862 55.9365 203.862 55.9365C203.862 55.9365 207.2 52.2025 209.933 53.027C212.308 53.7439 213.236 55.5812 213.552 57.3323C213.929 59.4183 212.959 61.5176 211.137 62.6264C207.049 65.1139 198.866 70.0145 196.939 70.5751C192.649 71.8224 181.123 70.6755 181.123 70.6755C181.123 70.6755 180.677 69.9932 180.613 69.0754Z" fill="#FFBD00"/>
<path opacity="0.1" d="M197.318 77.0704V133.311C197.318 136.592 194.612 139.277 191.306 139.277H133.036C132.531 139.277 132.038 139.215 131.568 139.099C130.558 138.852 129.645 138.355 128.898 137.679C128.365 137.196 127.918 136.621 127.582 135.982C127.563 135.948 127.546 135.914 127.529 135.878C127.18 135.182 126.961 134.412 126.905 133.6C126.895 133.461 126.891 133.322 126.891 133.18V77.4313C126.891 74.2765 128.534 71.3592 131.214 69.6614C131.214 69.6614 131.216 69.6602 131.221 69.658C133.453 68.2406 134.933 65.7566 134.933 62.9321C134.933 62.094 134.803 61.2874 134.562 60.5284H189.647C189.405 61.2874 189.275 62.094 189.275 62.9321C189.275 65.6413 190.635 68.0348 192.715 69.477C192.716 69.477 192.716 69.4781 192.717 69.4781C192.856 69.5743 192.998 69.6659 193.142 69.753C193.144 69.7541 193.144 69.7541 193.144 69.7541C195.724 71.3106 197.318 74.0729 197.318 77.0704Z" fill="#4F44D0"/>
<path opacity="0.05" d="M197.315 77.0708V133.312C197.315 136.451 194.838 139.044 191.727 139.262C191.587 139.272 191.446 139.276 191.303 139.276H165.645C162.265 139.276 159.5 136.532 159.5 133.179V77.4317C159.5 74.2769 161.143 71.3596 163.823 69.6618C166.06 68.2456 167.544 65.7604 167.544 62.9314C167.544 62.0932 167.414 61.2867 167.172 60.5277H189.643C189.401 61.2867 189.272 62.0932 189.272 62.9314C189.272 65.1519 190.185 67.1597 191.66 68.6053C192.106 69.043 192.602 69.4288 193.14 69.7523C195.721 71.311 197.315 74.0733 197.315 77.0708Z" fill="#4F44D0"/>
<path opacity="0.2" d="M192.713 69.4759C190.913 68.4069 183.118 64.6187 163.297 64.7793C140.592 64.9637 131.497 69.5166 131.219 69.658C133.451 68.2407 134.931 65.7566 134.931 62.9321C134.931 62.094 134.801 61.2874 134.559 60.5284H189.644C189.403 61.2874 189.273 62.094 189.273 62.9321C189.273 65.639 190.633 68.0337 192.713 69.4759Z" fill="#5A79B1"/>
<path d="M190.893 60.1337V62.6845C190.893 62.9367 190.687 63.1415 190.434 63.1415H133.773C133.519 63.1415 133.312 62.9367 133.312 62.6845V60.1337C133.312 59.8826 133.519 59.6768 133.773 59.6768H190.434C190.687 59.6768 190.893 59.8826 190.893 60.1337Z" fill="#675AF6"/>
<path opacity="0.3" d="M190.895 60.1337V62.6845C190.895 62.9367 190.688 63.1415 190.435 63.1415H168.988C168.735 63.1415 168.527 62.9367 168.527 62.6845V60.1337C168.527 59.8826 168.735 59.6768 168.988 59.6768H190.435C190.688 59.6768 190.895 59.8826 190.895 60.1337Z" fill="#4F44D0"/>
<path opacity="0.3" d="M145.695 137.42C145.46 137.543 145.223 137.658 144.986 137.77C144.76 137.9 144.53 138.028 144.295 138.15C143.213 138.714 142.098 139.163 140.964 139.503C140.545 139.123 140.194 138.672 139.929 138.17C139.749 138.266 139.569 138.358 139.387 138.447V105.118C140.22 105.228 141.046 105.394 141.855 105.61C146.393 106.827 150.434 109.692 152.892 113.906C157.776 122.277 154.553 132.805 145.695 137.42Z" fill="#9D95F8"/>
<path d="M148.763 112.593C143.88 103.805 132.741 100.609 123.883 105.453C115.024 110.298 111.803 121.349 116.685 130.137C121.568 138.925 132.707 142.122 141.565 137.278C150.424 132.433 153.646 121.382 148.763 112.593Z" fill="#9D95F8"/>
<path d="M140.855 137.646C140.63 137.783 140.4 137.915 140.167 138.042C140.088 138.086 140.009 138.129 139.929 138.17C139.749 138.265 139.569 138.357 139.387 138.447C130.666 142.696 120.027 139.435 115.286 130.902C110.764 122.763 113.195 112.683 120.616 107.39C121.207 106.968 121.83 106.576 122.484 106.218C122.719 106.089 122.956 105.967 123.194 105.85C123.425 105.736 123.657 105.627 123.891 105.524C124.608 105.207 125.337 104.94 126.073 104.721C127.166 104.394 128.276 104.174 129.389 104.058C132.839 103.695 136.31 104.321 139.387 105.814C142.653 107.398 145.476 109.96 147.365 113.359C152.119 121.916 149.19 132.617 140.855 137.646Z" fill="#8279F8"/>
<path d="M131.452 138.88C129.895 138.88 128.328 138.662 126.791 138.221C122.51 136.992 118.966 134.183 116.815 130.31C114.663 126.438 114.161 121.965 115.399 117.718C116.638 113.47 119.469 109.955 123.373 107.821C127.276 105.686 131.783 105.188 136.065 106.416C140.347 107.645 143.89 110.454 146.042 114.327C148.194 118.199 148.696 122.671 147.458 126.919C146.219 131.167 143.388 134.682 139.484 136.816C136.982 138.185 134.231 138.88 131.452 138.88ZM117.687 129.833C119.71 133.475 123.042 136.116 127.068 137.272C131.095 138.428 135.333 137.959 139.003 135.951C142.674 133.944 145.336 130.638 146.501 126.644C147.666 122.65 147.194 118.445 145.17 114.803C143.146 111.161 139.815 108.52 135.789 107.364C131.763 106.209 127.524 106.678 123.854 108.685C120.183 110.692 117.521 113.998 116.356 117.992C115.191 121.987 115.664 126.192 117.687 129.833Z" fill="#675AF6"/>
<path d="M122.746 118.895C123.686 118.357 124.626 117.818 125.566 117.28C126.018 117.021 126.469 116.73 126.952 116.529C126.889 116.555 126.825 116.581 126.762 116.607C127.127 116.458 127.509 116.358 127.9 116.308C127.835 116.316 127.769 116.324 127.703 116.332C128.076 116.288 128.452 116.29 128.825 116.338C128.761 116.329 128.696 116.32 128.631 116.312C129.011 116.363 129.381 116.461 129.736 116.605C129.675 116.581 129.615 116.556 129.554 116.531C129.901 116.675 130.228 116.86 130.529 117.084C130.476 117.044 130.423 117.004 130.37 116.965C130.685 117.202 130.965 117.478 131.206 117.788C131.164 117.734 131.122 117.68 131.08 117.627C131.315 117.932 131.508 118.265 131.658 118.619C131.632 118.556 131.606 118.494 131.58 118.431C131.73 118.793 131.831 119.172 131.881 119.56C131.873 119.495 131.864 119.43 131.856 119.365C131.901 119.735 131.899 120.108 131.851 120.478C131.86 120.414 131.868 120.349 131.877 120.285C131.825 120.662 131.726 121.029 131.581 121.381C131.606 121.321 131.631 121.261 131.656 121.201C131.511 121.546 131.325 121.87 131.099 122.168C131.139 122.116 131.179 122.063 131.219 122.011C130.98 122.323 130.702 122.6 130.389 122.84C130.443 122.798 130.498 122.757 130.552 122.715C130.187 122.991 129.773 123.204 129.377 123.431C128.777 123.775 128.177 124.118 127.577 124.462C127.179 124.69 126.781 124.918 126.384 125.146C126.022 125.353 125.894 125.825 126.103 126.184C126.171 126.3 126.238 126.416 126.306 126.532C126.422 126.732 126.586 126.845 126.802 126.919C126.87 126.943 126.938 126.966 127.007 126.99C127.348 127.108 127.689 127.225 128.03 127.343C129.227 127.757 130.425 128.17 131.622 128.584C132.931 129.035 134.239 129.487 135.547 129.939C136.274 130.19 137.001 130.441 137.728 130.692C137.744 130.697 137.761 130.703 137.777 130.709C138.171 130.845 138.613 130.549 138.715 130.171C138.768 129.977 138.74 129.768 138.639 129.594C138.531 129.41 138.371 129.308 138.173 129.24C137.598 129.041 137.023 128.843 136.448 128.644C135.185 128.208 133.921 127.772 132.658 127.336C131.398 126.9 130.138 126.465 128.878 126.03C128.313 125.835 127.749 125.64 127.184 125.445C127.339 125.564 127.494 125.682 127.649 125.8C127.576 125.674 127.503 125.549 127.43 125.424C127.337 125.77 127.243 126.116 127.15 126.462C128.09 125.924 129.029 125.386 129.969 124.847C130.328 124.642 130.698 124.447 131.046 124.223C131.51 123.925 131.934 123.557 132.275 123.124C132.648 122.652 132.927 122.154 133.134 121.589C133.499 120.593 133.514 119.449 133.205 118.438C133.042 117.905 132.793 117.389 132.462 116.938C132.096 116.441 131.677 116.034 131.171 115.678C130.305 115.068 129.203 114.758 128.145 114.78C127.243 114.799 126.375 115.061 125.596 115.507C124.56 116.101 123.523 116.694 122.487 117.288C122.318 117.385 122.149 117.482 121.98 117.578C121.618 117.786 121.491 118.258 121.7 118.617C121.908 118.976 122.385 119.102 122.746 118.895Z" fill="white"/>
<path d="M134.614 115.553C134.098 115.849 133.582 116.144 133.066 116.44C131.918 117.097 130.771 117.755 129.623 118.412C128.446 119.086 127.268 119.761 126.091 120.435C125.484 120.783 124.878 121.13 124.272 121.477C124.266 121.481 124.26 121.484 124.253 121.488C123.892 121.695 123.764 122.167 123.973 122.526C124.182 122.885 124.658 123.012 125.02 122.804C125.536 122.509 126.052 122.213 126.568 121.918C127.716 121.26 128.863 120.603 130.011 119.946C131.188 119.271 132.366 118.597 133.543 117.922C134.15 117.575 134.756 117.228 135.362 116.88C135.368 116.877 135.374 116.873 135.38 116.87C135.742 116.663 135.87 116.19 135.661 115.831C135.452 115.473 134.976 115.346 134.614 115.553Z" fill="white"/>
<path d="M122.746 118.895C123.262 118.599 123.779 118.303 124.295 118.008C125.442 117.351 126.59 116.693 127.737 116.036C128.915 115.362 130.092 114.687 131.27 114.013C131.876 113.665 132.482 113.318 133.089 112.971C133.095 112.967 133.101 112.964 133.107 112.96C133.469 112.753 133.596 112.281 133.387 111.922C133.178 111.563 132.702 111.436 132.341 111.643C131.824 111.939 131.308 112.235 130.792 112.53C129.645 113.188 128.497 113.845 127.35 114.502C126.172 115.177 124.995 115.851 123.817 116.526C123.211 116.873 122.605 117.22 121.998 117.567C121.992 117.571 121.986 117.574 121.98 117.578C121.618 117.785 121.491 118.258 121.7 118.616C121.908 118.975 122.385 119.102 122.746 118.895Z" fill="white"/>
<path d="M117.719 58.1625C117.775 57.9395 112.841 60.3747 112.591 60.6501C110.277 63.1963 110.937 66.5199 112.26 66.5519C113.109 66.5723 112.945 67.9733 112.945 67.9733L122.405 64.003C122.405 64.003 121.266 57.4127 117.719 58.1625Z" fill="#132056"/>
<path d="M118.884 58.6769C118.884 58.6769 119.223 55.021 115.104 55.021C115.104 55.021 116.352 55.3568 116.997 56.0285C116.997 56.0285 114.371 54.4986 111.514 56.8494C108.655 59.2001 110.432 65.0948 109.562 66.2142C108.694 67.3337 105.309 67.5575 105.722 71.1761C106.136 74.7946 116.464 79.3274 115.8 82.3222C115.8 82.3222 119.848 76.4196 116.954 73.7259C116.954 73.7259 118.364 75.0443 118.508 76.6115C118.508 76.6115 118.891 73.5517 116.929 72.5736C115.192 71.7074 113.769 68.541 113.921 67.9751C114.071 67.4074 118.884 58.6769 118.884 58.6769Z" fill="#132056"/>
<path d="M115.147 75.8776C114.512 72.8446 110.548 71.9037 108.672 74.3806C108.334 74.8257 108.097 75.3526 108.02 75.9745C107.592 79.418 113.141 93.4427 113.935 94.7122C115.382 97.0239 123.901 104.95 123.901 104.95L125.471 104.005C125.471 104.005 119.428 93.8558 118.492 92.906C117.411 91.808 116.352 81.6373 115.147 75.8776Z" fill="#F8E4E5"/>
<path d="M123.305 104.009C123.305 104.009 125.596 102.517 126.464 102.613C127.332 102.709 129.843 103.426 129.873 103.792C129.903 104.158 127.076 104.386 126.886 104.587C126.696 104.787 124.775 106.059 124.079 105.66C123.383 105.261 123.305 104.009 123.305 104.009Z" fill="#F8E4E5"/>
<path d="M107.32 137.734L105.273 137.436C105.273 137.436 98.3895 132.009 97.3651 121.882C97.2603 120.851 97.2388 119.806 97.3158 118.751C97.3248 118.63 97.3113 118.508 97.2442 118.406C97.2442 118.405 97.2433 118.404 97.2415 118.403C97.0212 118.068 96.4732 117.228 95.7308 116.034C94.9992 114.858 93.7464 112.634 92.3691 110.14C89.8869 105.646 86.998 100.272 86.0067 98.5609C82.8483 93.106 84.3707 89.4377 84.3707 89.4377C84.3707 89.4377 93.1805 88.5733 95.5947 86.4784L96.4642 87.8084C96.4642 87.8084 98.3734 96.1924 98.2829 96.2315C98.377 96.5167 98.4728 96.8072 98.5695 97.1022C100.076 101.715 101.808 107.481 102.753 112.176C103.284 114.818 103.565 117.12 103.414 118.688C103.362 119.227 103.426 120.053 103.57 121.074C104.423 127.09 107.32 137.734 107.32 137.734Z" fill="#DCDEE6"/>
<path d="M111.612 140.303H103.07C103.07 140.303 102.865 139.012 103.312 138.033C103.739 137.093 104.349 137.063 103.39 135.589C103.933 136.143 105.677 136.372 106.912 136.208C107.063 136.451 107.887 138.084 108.393 138.444C108.95 138.841 111.44 138.7 111.612 140.303Z" fill="#5A6389"/>
<path opacity="0.2" d="M98.5695 97.1013C97.8236 101.184 96.0612 107.977 92.3691 110.14C89.8869 105.646 86.998 100.272 86.0067 98.561C82.8483 93.106 84.3707 89.4377 84.3707 89.4377C84.3707 89.4377 93.1805 88.5733 95.5947 86.4784L96.4642 87.8084C96.4642 87.8084 98.3734 96.1924 98.2829 96.2315C98.377 96.5149 98.4728 96.8054 98.5695 97.1013Z" fill="#5A6389"/>
<path d="M114.232 73.9957C114.232 73.9957 115.44 75.2413 115.991 76.7338C115.991 76.7338 114.065 82.2225 109.562 82.9102C109.563 82.9102 113.126 73.994 114.232 73.9957Z" fill="#4F44D0"/>
<path d="M92.5796 90.0672L92.6083 88.4822C89.4257 88.8803 81.6341 84.7091 81.6341 84.7091C81.6341 84.7091 78.3047 86.9062 77.8489 93.1811C77.6268 96.2435 76.2191 109.196 76.0633 113.063C76.0069 114.465 75.9881 115.465 75.9809 115.865C75.9818 115.867 75.9818 115.868 75.9809 115.869C75.9791 115.99 75.9209 116.098 75.8457 116.195C75.1875 117.025 74.6162 117.905 74.121 118.817C69.2647 127.782 71.8043 139.963 71.8043 139.963L72.9318 139.678C72.9318 139.678 77.0385 127.051 79.7222 121.589C80.178 120.663 80.5918 119.942 80.9374 119.526C81.9466 118.309 83.0105 116.245 84.0591 113.76C86.0417 109.061 87.9661 102.861 89.3389 98.0603C89.4383 98.0772 92.5796 90.0672 92.5796 90.0672Z" fill="#DCDEE6"/>
<path d="M111.205 79.49C106.002 78.3057 109.326 71.0517 109.627 71.1797C110.348 71.034 111.931 69.7777 113.348 67.3257L113.539 67.49L116.734 70.2699C116.734 70.2699 115.996 71.3511 115.374 72.4101C114.889 73.239 114.476 74.0564 114.541 74.3362C114.799 74.537 112.593 79.8062 111.205 79.49Z" fill="url(#paint3_linear)"/>
<path opacity="0.1" d="M116.732 70.2707C116.732 70.2707 115.993 71.3501 115.371 72.4109C113.384 71.1955 113.383 68.7559 113.536 67.4917L116.732 70.2707Z" fill="black"/>
<path d="M116.824 71.6629C116.824 71.6629 112 68.9994 113.717 66.0445C115.435 63.0896 115.97 60.7558 119.123 62.3309C122.276 63.9061 122.213 65.3738 121.882 66.4976C121.549 67.6233 118.122 72.2795 116.824 71.6629Z" fill="url(#paint4_linear)"/>
<path d="M122.696 64.7752C122.474 63.463 121.803 63.3378 121.334 63.4257C119.552 60.5028 116.642 61.6435 116.642 61.6435C115.088 63.5794 112.84 63.909 112.84 63.909C112.84 63.909 113.4 64.9422 115.706 65.5819C116.411 65.7774 117.211 65.6592 117.982 65.4016C116.382 66.2864 114.708 66.6258 114.708 66.6258C117.747 66.9021 120.64 64.1453 120.94 63.8504C121.08 64.2777 121.326 65.1723 121.179 65.8262C120.979 66.7146 120.184 68.3245 120.669 68.5324C120.669 68.5324 123.027 66.7431 122.696 64.7752Z" fill="#132056"/>
<path d="M78.5959 140.304H70.0548C70.0548 140.304 69.8497 139.012 70.2966 138.033C70.7237 137.093 71.3935 136.665 71.2332 135.527C71.7759 136.082 72.6607 136.703 73.8955 136.537C74.0469 136.781 74.8725 138.083 75.3776 138.443C75.9346 138.841 78.424 138.7 78.5959 140.304Z" fill="#5A6389"/>
<path d="M111.815 85.2409C110.716 85.6212 109.174 85.83 107.596 85.9996C105.35 86.2431 103.031 86.4092 101.816 86.8898C101.373 87.0649 101.077 87.2816 100.984 87.5579C100.458 89.1287 98.1375 91.5523 98.1375 91.5523C83.2653 90.8806 81.6328 84.7088 81.6328 84.7088C91.639 73.1655 108.581 69.8241 108.581 69.8241C108.581 69.8241 109.791 69.3151 112.838 71.7183C114.871 73.3227 114.604 73.9384 114.604 73.9384C114.604 73.9384 115.05 84.1215 111.815 85.2409Z" fill="#9D95F8"/>
<path d="M107.597 85.9992C105.351 86.2426 103.033 86.4088 101.818 86.8894C101.322 79.5306 104.822 73.9957 104.822 73.9957C104.822 73.9957 107.106 83.2149 107.597 85.9992Z" fill="#4F44D0"/>
<path d="M109.905 72.5717C109.905 72.5717 104.276 73.1234 103.826 76.7517C103.374 80.38 109.222 95.1589 110.059 96.4978C111.584 98.9338 120.561 107.285 120.561 107.285L122.216 106.29C122.216 106.29 115.848 95.5951 114.862 94.5939C113.314 93.0232 111.812 73.8288 109.905 72.5717Z" fill="#F8E4E5"/>
<path d="M103.99 78.9356C104.004 79.0182 109.185 80.6147 112.518 78.9356C112.518 78.9356 113.231 71.3049 109.251 71.7189C105.271 72.1329 102.914 73.3767 102.814 75.2673C102.715 77.1569 103.99 78.9356 103.99 78.9356Z" fill="#B9B3F9"/>
<path d="M120.051 106.224C120.051 106.224 122.07 104.384 122.941 104.341C123.814 104.297 126.408 104.603 126.497 104.959C126.587 105.315 123.833 105.993 123.678 106.222C123.523 106.45 121.835 108.012 121.083 107.729C120.331 107.448 120.051 106.224 120.051 106.224Z" fill="#F8E4E5"/>
</g>
<defs>
<linearGradient id="paint0_linear" x1="175.165" y1="67.3904" x2="175.423" y2="70.9155" gradientUnits="userSpaceOnUse">
<stop stop-color="#FFC794"/>
<stop offset="1" stop-color="#DEC6B9"/>
</linearGradient>
<linearGradient id="paint1_linear" x1="205.963" y1="45.7568" x2="207.292" y2="53.7521" gradientUnits="userSpaceOnUse">
<stop stop-color="#FFC794"/>
<stop offset="1" stop-color="#DEC6B9"/>
</linearGradient>
<linearGradient id="paint2_linear" x1="204" y1="37.8273" x2="205.557" y2="47.2679" gradientUnits="userSpaceOnUse">
<stop stop-color="#FFC794"/>
<stop offset="1" stop-color="#DEC6B9"/>
</linearGradient>
<linearGradient id="paint3_linear" x1="109.193" y1="68.9535" x2="111.433" y2="79.8741" gradientUnits="userSpaceOnUse">
<stop stop-color="#FFC794"/>
<stop offset="1" stop-color="#DEC6B9"/>
</linearGradient>
<linearGradient id="paint4_linear" x1="114.263" y1="63.1465" x2="115.72" y2="72.1574" gradientUnits="userSpaceOnUse">
<stop stop-color="#FFC794"/>
<stop offset="1" stop-color="#DEC6B9"/>
</linearGradient>
</defs>
</svg>
