<svg width="141" height="120" viewBox="0 0 141 120" fill="none" xmlns="http://www.w3.org/2000/svg">
<g clip-path="url(#clip0_5367_10267)">
<path d="M127.399 28.0894C127.042 32.2265 123.605 35.8954 119.504 36.5181C121.693 36.9914 123.587 38.4271 124.982 40.1818C126.377 41.9364 127.323 43.9998 128.154 46.0813C127.952 45.0547 127.999 43.9946 128.291 42.9899C128.583 41.9852 129.112 41.0654 129.833 40.3078C131.482 38.6071 133.905 37.9588 136.205 37.3825C134.169 37.2153 132.306 36.0472 130.976 34.4958C129.645 32.9444 128.879 32.2317 128.252 30.2866L127.399 28.0894Z" fill="#FFBD00"/>
<path d="M113.436 19.9217C113.606 21.1156 112.866 22.2888 111.895 22.9859C110.923 23.6832 109.718 23.9919 108.555 24.2904C109.919 24.3136 111.196 25.0957 112.043 26.166C112.891 27.2363 113.347 28.5664 113.6 29.9095C113.659 28.7217 114.003 27.5656 114.603 26.5391C115.234 25.5382 116.27 24.7381 117.444 24.6146C115.571 24.1 113.847 22.9963 113.619 21.0667L113.436 19.9217Z" fill="#FFBD00"/>
<path d="M9.77964 71.7785C8.11305 72.2931 6.42249 72.7261 4.70795 73.0778L5.01369 73.474C6.38537 71.6563 8.0943 70.1205 10.0468 68.9509C10.1085 68.9144 10.1533 68.8551 10.1716 68.7857C10.1898 68.7164 10.1801 68.6426 10.1445 68.5804C8.80977 66.6901 7.61036 64.7074 6.55524 62.6475L6.324 63.054C8.27513 63.0223 10.2229 63.2261 12.1254 63.6611C12.3052 63.7024 12.5416 63.5325 12.4568 63.3293L9.8079 56.8406L9.4739 57.1724C11.3751 57.687 13.2541 58.2762 15.1109 58.94C15.4397 59.0583 15.581 58.536 15.2547 58.4254C13.3946 57.7634 11.5156 57.1724 9.61778 56.6527C9.43793 56.6038 9.2067 56.7865 9.28635 56.9846L11.9507 63.4836L12.2692 63.1466C10.317 62.6941 8.31733 62.4799 6.31373 62.5085C6.26647 62.5092 6.22018 62.522 6.17942 62.546C6.13866 62.5699 6.10482 62.6041 6.08123 62.6451C6.05765 62.6861 6.04512 62.7326 6.0449 62.7799C6.04467 62.8273 6.05674 62.8738 6.07993 62.9151C7.13754 64.9752 8.33952 66.9579 9.67687 68.848L9.77193 68.4776C7.74336 69.7006 5.96979 71.3046 4.54865 73.2013C4.39193 73.4071 4.64629 73.6412 4.85183 73.5975C6.56466 73.2544 8.25522 72.8256 9.92352 72.3111C10.255 72.2081 10.1136 71.6859 9.77964 71.7965V71.7785Z" fill="#FFBD00"/>
<path d="M48.3875 13.7071C52.6935 12.8812 57.4466 14.4996 60.1674 18.0655C62.8882 21.6315 63.2506 27.0705 60.7455 30.7934C59.5607 32.5028 57.9225 33.8466 56.0155 34.6732C52.1874 36.379 47.4599 35.9597 44.1713 33.3096C40.8827 30.6596 39.3463 25.73 40.8313 21.6855" fill="#FFA283"/>
<path d="M36.7128 27.6406C37.4348 28.927 38.3135 30.1542 39.5389 30.9493C40.7645 31.7442 42.4165 32.0247 43.714 31.3429C44.9549 30.6919 45.664 29.2846 45.7694 27.8773C45.8748 26.47 45.4431 25.0935 44.8804 23.8071C46.3911 24.108 47.9224 24.4117 49.4614 24.3216C51.0004 24.2315 52.5676 23.6836 53.5979 22.5386C53.9741 22.1635 54.21 21.6703 54.2659 21.1415C54.325 19.9169 53.0327 19.1219 51.9228 18.6073C53.9838 17.8307 55.9162 16.7475 57.6547 15.3938C58.608 14.6528 59.5894 13.5491 59.2502 12.3862C58.9573 11.3802 57.8192 10.9068 56.7966 10.6907C52.9428 9.87767 48.9064 10.7987 45.3249 12.4325C42.4294 13.7524 39.6726 15.6074 37.9203 18.2677C36.1681 20.928 35.0941 24.4297 36.4969 27.2881L36.7128 27.6406Z" fill="#132056"/>
<path d="M101.566 34.9455C95.6414 32.4678 87.7462 31.6007 81.1869 32.1745C74.6276 32.7482 70.6221 33.5279 64.3968 35.6736C49.9756 40.6469 35.9373 47.6322 24.9692 58.258C20.4859 62.6035 16.334 68.1428 16.596 74.3871C16.6654 75.9849 17.0507 77.6186 18.0245 78.887C18.8323 79.9578 19.9171 80.7871 21.1616 81.2849C26.8139 83.4487 32.8105 83.8398 36.8699 84.3286L39.2413 72.5605L33.4786 71.0451C33.4786 71.0451 37.6792 66.1051 45.3459 63.0255L52.8455 85.4375C52.8455 85.4375 76.4568 90.0249 86.6131 74.0835L76.0098 49.3842C76.0098 49.3842 83.4323 44.8869 96.5201 47.1356C96.5201 47.1382 97.0079 39.4119 101.566 34.9455Z" fill="#675AF6"/>
<path d="M39.241 72.5657C39.241 72.5657 47.3958 73.9987 49.6105 75.8255C51.8252 77.6521 54.5563 82.803 52.5394 86.5182C50.5226 90.2334 47.5269 90.6913 45.1169 90.0379C45.1169 90.0379 44.1971 89.3354 45.0526 87.0894C45.7592 85.2318 47.6887 84.4239 47.6887 84.4239L36.8721 84.3338L39.241 72.5657Z" fill="#FFA283"/>
<path d="M93.9483 52.83L115.946 52.4209V79.9349L93.9483 52.83Z" fill="#132056"/>
<path d="M96.5201 47.138C96.5201 47.138 98.8966 47.789 100.523 48.1157L100.009 52.6157L104.436 52.7443C104.436 52.7443 104.567 57.8308 104.305 59.5906C104.305 59.5906 112.236 59.6395 113.616 54.1877C114.918 49.042 114.266 43.8191 108.667 39.2652C103.612 35.1486 101.572 34.9608 101.572 34.9608C101.572 34.9608 97.3984 37.814 96.5201 47.138Z" fill="#FFA283"/>
<path d="M51.4788 28.1249C51.8889 28.1249 52.2213 27.792 52.2213 27.3814C52.2213 26.9707 51.8889 26.6378 51.4788 26.6378C51.0687 26.6378 50.7363 26.9707 50.7363 27.3814C50.7363 27.792 51.0687 28.1249 51.4788 28.1249Z" fill="#132056"/>
<path d="M57.2769 23.5681C57.6869 23.5681 58.0194 23.2352 58.0194 22.8245C58.0194 22.4139 57.6869 22.0809 57.2769 22.0809C56.8668 22.0809 56.5344 22.4139 56.5344 22.8245C56.5344 23.2352 56.8668 23.5681 57.2769 23.5681Z" fill="#132056"/>
<path d="M46.1215 66.0774C46.0659 66.0783 46.0114 66.062 45.9654 66.0307C45.9194 65.9994 45.8842 65.9545 45.8646 65.9024L43.375 59.2619C43.3498 59.1937 43.3526 59.1182 43.383 59.0521C43.4134 58.986 43.4688 58.9347 43.5369 58.9094C43.605 58.8842 43.6803 58.8871 43.7464 58.9175C43.8124 58.9479 43.8637 59.0033 43.8889 59.0716L46.3811 65.7121C46.4053 65.7793 46.4021 65.8534 46.3723 65.9183C46.3425 65.9833 46.2885 66.0339 46.2217 66.0593C46.19 66.0725 46.1558 66.0786 46.1215 66.0774Z" fill="#132056"/>
<path d="M33.365 71.0985C33.3453 71.101 33.3255 71.101 33.3059 71.0985L23.3989 68.8344C23.3634 68.8282 23.3296 68.8146 23.2997 68.7945C23.2698 68.7743 23.2444 68.7482 23.2253 68.7176C23.2061 68.687 23.1936 68.6528 23.1885 68.617C23.1834 68.5813 23.186 68.5449 23.1959 68.5102C23.2003 68.4741 23.2122 68.4394 23.2311 68.4083C23.2498 68.3772 23.275 68.3504 23.3048 68.3298C23.3347 68.3091 23.3686 68.2951 23.4043 68.2884C23.44 68.2818 23.4766 68.2829 23.5119 68.2915L33.4189 70.5556C33.4894 70.5634 33.5539 70.599 33.5983 70.6545C33.6427 70.7101 33.6631 70.7809 33.6553 70.8515C33.6475 70.9221 33.6119 70.9867 33.5565 71.0311C33.5011 71.0755 33.4303 71.0961 33.3598 71.0882L33.365 71.0985Z" fill="#132056"/>
<path d="M106.678 59.6908C106.663 59.6934 106.648 59.6934 106.632 59.6908C106.597 59.6863 106.563 59.6745 106.532 59.656C106.501 59.6375 106.475 59.6128 106.454 59.5835C106.434 59.5542 106.42 59.5209 106.412 59.4858C106.406 59.4507 106.406 59.4145 106.414 59.3795C106.881 56.7835 106.9 54.9259 106.766 51.98C106.764 51.9445 106.77 51.909 106.782 51.8757C106.794 51.8422 106.812 51.8114 106.836 51.7852C106.859 51.7588 106.889 51.7376 106.92 51.7224C106.952 51.7073 106.987 51.6986 107.022 51.697C107.094 51.6955 107.162 51.7215 107.214 51.7694C107.266 51.8173 107.298 51.8835 107.303 51.9543C107.439 54.9413 107.421 56.8427 106.946 59.4747C106.933 59.536 106.899 59.5909 106.851 59.6303C106.802 59.6697 106.741 59.691 106.678 59.6908Z" fill="#4F44D0"/>
<path d="M109.937 58.5821H109.888C109.818 58.5689 109.755 58.5286 109.714 58.4699C109.674 58.4112 109.657 58.3387 109.669 58.2682C110.137 55.6748 110.154 53.8146 110.022 50.8687C110.02 50.8332 110.025 50.7977 110.037 50.7643C110.049 50.7309 110.068 50.7001 110.091 50.6738C110.115 50.6475 110.143 50.6262 110.176 50.6111C110.208 50.596 110.243 50.5873 110.278 50.5856C110.349 50.5854 110.418 50.6116 110.469 50.6593C110.522 50.7069 110.554 50.7724 110.561 50.843C110.694 53.83 110.676 55.7159 110.202 58.3608C110.192 58.424 110.16 58.4816 110.111 58.5225C110.062 58.5634 110 58.5846 109.937 58.5821Z" fill="#4F44D0"/>
<path d="M45.0376 90.0424C44.9792 90.0413 44.9227 90.0215 44.8765 89.9858C44.8302 89.9501 44.7966 89.9005 44.7807 89.8443C44.5238 88.8975 45.3202 87.997 46.2349 87.6728C46.6749 87.5312 47.1288 87.4372 47.5888 87.3923C47.9548 87.3534 48.3173 87.2864 48.6731 87.1916C48.7756 87.1699 48.8716 87.1241 48.9532 87.0579C49.0089 86.9857 49.0507 86.9036 49.0765 86.8161C49.1998 86.4765 49.2974 86.1111 49.3899 85.7586C49.4911 85.3319 49.6181 84.9118 49.7702 84.5005C49.9911 83.9448 50.5101 82.9567 51.5069 82.6301C51.5407 82.6189 51.5763 82.6145 51.6117 82.6171C51.6472 82.6197 51.6817 82.6293 51.7134 82.6453C51.7452 82.6614 51.7734 82.6835 51.7967 82.7104C51.8199 82.7374 51.8375 82.7686 51.8487 82.8024C51.8597 82.8362 51.8642 82.8719 51.8615 82.9073C51.8589 82.9428 51.8493 82.9774 51.8333 83.0092C51.8174 83.0409 51.7953 83.0693 51.7684 83.0925C51.7415 83.1157 51.7103 83.1335 51.6765 83.1446C50.8877 83.4019 50.4587 84.2329 50.2711 84.7012C50.127 85.0899 50.006 85.4867 49.9089 85.8899C49.8138 86.2526 49.7136 86.6308 49.58 86.9961C49.5315 87.175 49.4332 87.3364 49.2968 87.4616C49.1605 87.5868 48.9914 87.6707 48.8092 87.7037C48.4274 87.8052 48.0382 87.8774 47.6453 87.9198C47.2225 87.9635 46.805 88.0496 46.3993 88.1771C45.7312 88.4163 45.1146 89.0647 45.2868 89.7002C45.2961 89.7345 45.2986 89.7703 45.2941 89.8056C45.2896 89.8408 45.2782 89.8748 45.2605 89.9057C45.2428 89.9365 45.2193 89.9635 45.1912 89.9853C45.1631 90.0069 45.131 90.0229 45.0966 90.0321C45.0773 90.0372 45.0576 90.0407 45.0376 90.0424Z" fill="#4F44D0"/>
<path d="M44.9191 87.7587C44.8705 87.7584 44.8229 87.746 44.7803 87.7226C44.7191 87.6858 44.6748 87.6262 44.657 87.5569C44.6393 87.4876 44.6494 87.4141 44.6853 87.3521C45.3635 86.197 47.4214 85.7416 48.051 85.7416H48.0869C48.1584 85.7416 48.2271 85.77 48.2777 85.8207C48.3283 85.8714 48.3567 85.9401 48.3567 86.0117C48.3567 86.0833 48.3283 86.152 48.2777 86.2028C48.2271 86.2534 48.1584 86.2819 48.0869 86.2819H48.0458C47.4703 86.2819 45.6898 86.7166 45.158 87.6249C45.1348 87.6675 45.1001 87.7027 45.0578 87.7263C45.0155 87.75 44.9674 87.7612 44.9191 87.7587Z" fill="#4F44D0"/>
<path d="M77.2763 52.8863C77.2217 52.8879 77.1677 52.8727 77.1219 52.8428C77.076 52.8129 77.0403 52.7698 77.0194 52.7191L74.8098 47.3162C74.7826 47.25 74.7827 47.1757 74.8102 47.1096C74.8376 47.0434 74.8902 46.991 74.9563 46.9637C75.0224 46.9364 75.0966 46.9365 75.1626 46.964C75.2286 46.9915 75.2811 47.0441 75.3083 47.1103L77.5179 52.5133C77.5451 52.5794 77.5449 52.6538 77.5174 52.7199C77.49 52.786 77.4375 52.8385 77.3714 52.8658C77.3413 52.8787 77.3091 52.8856 77.2763 52.8863Z" fill="#132056"/>
<path d="M53.9866 43.9996C51.4816 43.9996 49.606 42.8676 49.0562 42.2527C49.0088 42.1986 48.9846 42.128 48.9889 42.0563C48.9933 41.9844 49.0258 41.9172 49.0793 41.8693C49.105 41.8442 49.1356 41.8247 49.1693 41.8121C49.2029 41.7996 49.2388 41.7943 49.2746 41.7964C49.3104 41.7986 49.3454 41.8082 49.3773 41.8248C49.4091 41.8413 49.4372 41.8644 49.4596 41.8925C50.1301 42.6437 53.2878 44.3469 57.0029 42.865C59.6852 41.7947 60.8978 40.0992 61.327 36.8163C61.3315 36.7811 61.3429 36.7472 61.3605 36.7165C61.3782 36.6858 61.4017 36.6589 61.4297 36.6372C61.4578 36.6156 61.4898 36.5997 61.5239 36.5905C61.5581 36.5812 61.5937 36.5788 61.6288 36.5834C61.6639 36.588 61.6977 36.5994 61.7284 36.6171C61.7591 36.6347 61.786 36.6583 61.8076 36.6863C61.8292 36.7144 61.8451 36.7465 61.8543 36.7807C61.8634 36.8149 61.8658 36.8506 61.8613 36.8857C61.4091 40.3513 60.0629 42.2269 57.2007 43.3667C56.1794 43.7809 55.0884 43.9959 53.9866 43.9996Z" fill="#132056"/>
<path d="M54.066 47.8204C50.3303 47.8204 47.0134 46.1738 45.4795 44.329C45.4335 44.2741 45.4112 44.2031 45.4175 44.1317C45.4238 44.0603 45.4581 43.9943 45.5129 43.9483C45.5678 43.9022 45.6386 43.8799 45.71 43.8861C45.7813 43.8924 45.8472 43.9268 45.8931 43.9817C49.1946 47.9542 55.9132 47.7355 59.2892 46.0657C62.5136 44.4705 65.9333 40.7605 64.9544 35.5505C64.9478 35.5157 64.9481 35.4799 64.9554 35.4453C64.9626 35.4106 64.9766 35.3777 64.9965 35.3484C65.0164 35.3192 65.0419 35.2941 65.0714 35.2747C65.1011 35.2553 65.1342 35.2419 65.1689 35.2353C65.2037 35.2288 65.2394 35.229 65.2741 35.2363C65.3087 35.2436 65.3415 35.2575 65.3707 35.2775C65.4 35.2974 65.425 35.323 65.4444 35.3525C65.4638 35.3822 65.4771 35.4154 65.4837 35.4502C66.5114 40.9587 62.9144 44.8719 59.5282 46.5494C57.8294 47.3888 55.9601 47.8237 54.066 47.8204Z" fill="#132056"/>
<path d="M15.224 46.2298L19.232 52.0959C19.4274 52.3815 19.8949 52.1114 19.6971 51.8232L15.6891 45.9571C15.4939 45.6715 15.0262 45.9417 15.224 46.2298Z" fill="#FFBD00"/>
<path d="M56.5583 28.7831C56.5203 28.7839 56.4826 28.7761 56.448 28.7606C56.4134 28.7451 56.3826 28.722 56.3579 28.693C56.3326 28.6675 56.3131 28.637 56.3003 28.6035C56.2875 28.5698 56.282 28.5339 56.2839 28.4981C56.2858 28.4622 56.2952 28.4272 56.3115 28.3952C56.3278 28.3631 56.3506 28.3349 56.3784 28.3123C56.7433 27.9881 57.0516 27.6896 57.1492 27.3191C57.1686 27.2212 57.1661 27.1202 57.1422 27.0232C57.1182 26.9264 57.0732 26.8359 57.0104 26.7582C56.9784 26.7164 56.9371 26.6827 56.89 26.6594C56.8427 26.6362 56.7908 26.6243 56.7381 26.6245C56.6291 26.6408 56.5228 26.672 56.4222 26.7171C56.1652 26.8123 55.8723 26.9332 55.5743 26.7403C55.4486 26.6476 55.3472 26.5258 55.2788 26.3852L54.4592 24.9084C54.4313 24.8463 54.4278 24.7758 54.4495 24.7112C54.4712 24.6466 54.5166 24.5926 54.5764 24.5601C54.6362 24.5275 54.7061 24.5188 54.772 24.5357C54.838 24.5526 54.8951 24.5938 54.932 24.6511L55.7515 26.1279C55.7788 26.1892 55.8181 26.2444 55.8672 26.29C55.9289 26.3312 56.0496 26.29 56.2268 26.2205C56.3785 26.1524 56.5397 26.1082 56.7047 26.0894C56.8413 26.0827 56.9776 26.1086 57.1022 26.1649C57.2268 26.2213 57.3363 26.3065 57.4216 26.4135C57.5383 26.555 57.6221 26.7208 57.6666 26.8989C57.711 27.077 57.7151 27.2628 57.6785 27.4426C57.5475 28.0112 57.0876 28.4203 56.7536 28.7291C56.6976 28.771 56.6278 28.7904 56.5583 28.7831Z" fill="#132056"/>
<path d="M54.446 31.8763C54.1744 31.8769 53.9035 31.8519 53.6366 31.8017C53.5665 31.7863 53.5053 31.7436 53.4664 31.6831C53.4277 31.6225 53.4144 31.549 53.4298 31.4788C53.4452 31.4084 53.4877 31.3471 53.5482 31.3083C53.6087 31.2695 53.682 31.2563 53.7523 31.2716C53.7677 31.2716 55.4376 31.6215 56.3986 30.6104C56.448 30.5586 56.5159 30.5284 56.5875 30.5268C56.6591 30.5251 56.7283 30.5519 56.7801 30.6014C56.8319 30.6509 56.862 30.7189 56.8636 30.7906C56.8653 30.8622 56.8385 30.9316 56.7891 30.9835C56.4792 31.2834 56.1118 31.5171 55.709 31.6706C55.3062 31.824 54.8765 31.894 54.446 31.8763Z" fill="#132056"/>
<path d="M45.7133 32.4645C44.809 33.5966 41.803 32.4645 41.713 29.6652C41.6539 27.8102 44.0665 27.9465 45.1224 29.1506C45.4669 29.4632 45.7423 29.8444 45.9313 30.2697C46.1201 30.695 46.2183 31.1551 46.2195 31.6206" fill="#FFA283"/>
<path d="M34.8811 83.5872C34.8581 83.5897 34.8348 83.5897 34.8118 83.5872C34.743 83.5684 34.6843 83.5235 34.6483 83.4619C34.6123 83.4003 34.6018 83.327 34.619 83.2578L37.2448 73.3241C37.2714 73.2663 37.3174 73.2197 37.375 73.1925C37.4324 73.1654 37.4976 73.1595 37.559 73.1758C37.6204 73.1921 37.6741 73.2296 37.7107 73.2816C37.7472 73.3337 37.7642 73.397 37.7587 73.4604L35.1303 83.3942C35.1161 83.4495 35.0839 83.4984 35.0387 83.5334C34.9936 83.5683 34.9381 83.5873 34.8811 83.5872Z" fill="#132056"/>
<path d="M94.9373 46.2887C94.8691 46.2887 94.8038 46.2616 94.7556 46.2133C94.7074 46.1651 94.6804 46.0996 94.6804 46.0314C94.6804 45.9671 94.2539 39.4964 98.8505 34.9811C98.9012 34.931 98.9705 34.9031 99.0415 34.9039C99.1135 34.9046 99.1818 34.9337 99.2317 34.9849C99.2815 35.0361 99.3092 35.1051 99.3092 35.1767C99.3083 35.2484 99.2788 35.3169 99.228 35.367C94.8089 39.7099 95.2122 45.9285 95.2173 45.9903C95.2201 46.0263 95.2157 46.0627 95.2041 46.0971C95.1927 46.1314 95.1744 46.1631 95.1504 46.1901C95.1264 46.2172 95.0972 46.2393 95.0646 46.2549C95.032 46.2705 94.9965 46.2793 94.9604 46.281L94.9373 46.2887Z" fill="#132056"/>
<path d="M97.0283 87.6824V100.683H77.6795V114.994H97.0283V115.001H116.015V87.6824H97.0283Z" fill="#FE794D"/>
<path d="M77.708 100.726H66V114.992H77.708V100.726Z" fill="#132056"/>
<path d="M97.0496 72.4131V100.732H66.0153L97.0496 72.4131Z" fill="#FFBD00"/>
<path d="M97.0587 64.9062V87.681H116.015L97.0587 64.9062Z" fill="#D04954"/>
<path d="M66.0563 92.3484H48.1564V114.992H66.0563V92.3484Z" fill="#FE794D"/>
<path d="M66.0567 107.564V108.308C65.3861 108.748 64.7155 109.193 64.0424 109.633C63.0814 110.271 62.0229 110.958 60.7871 110.832C58.4748 110.593 58.4748 107.863 58.5904 106.214C58.6624 105.056 58.9784 103.939 59.1351 102.795C59.2411 102.18 59.2244 101.55 59.0863 100.942C58.9399 100.388 58.5725 100.214 58.0124 100.206C56.8921 100.193 55.7822 100.577 54.6723 100.291C53.791 100.067 53.1077 99.4853 52.9844 98.6053C52.843 97.5765 53.0537 96.4292 53.2798 95.4206C53.5208 94.37 53.8856 93.3517 54.3666 92.3872H55.032C55.0364 92.4414 55.0256 92.4956 55.0012 92.5442C54.4562 93.6131 54.062 94.7526 53.8296 95.93C53.7063 96.5458 53.6316 97.1704 53.606 97.7974C53.5856 98.3123 53.565 98.8475 53.9581 99.2441C54.6235 99.9152 55.7385 99.8172 56.6096 99.7146C57.4805 99.612 58.6341 99.3596 59.3072 100.006C59.9804 100.651 59.8904 101.858 59.798 102.655C59.6772 103.7 59.3766 104.714 59.2712 105.768C59.1171 107.294 58.9244 110.621 61.4834 110.204C62.5393 110.03 63.4514 109.278 64.3096 108.714L66.0567 107.564Z" fill="#D04954"/>
<path d="M54.5998 111.747C54.4714 112.493 54.2966 113.247 54.3557 114.006C54.372 114.349 54.4595 114.685 54.6126 114.992H53.901C53.6158 114.259 53.662 113.448 53.7751 112.676C53.901 111.806 54.0782 110.945 54.1579 110.065C54.2518 109.211 54.2732 108.349 54.2222 107.491C54.1836 107.044 54.0474 106.622 53.5259 106.519C53.1259 106.477 52.7215 106.51 52.3337 106.617C50.9335 106.897 49.4408 107.332 48.1433 106.617V105.878C48.453 106.115 48.8124 106.278 49.1942 106.354C50.0368 106.519 50.9053 106.288 51.7223 106.097C52.3826 105.953 53.1405 105.75 53.8136 105.935C54.0867 106.013 54.3303 106.171 54.5133 106.389C54.6963 106.607 54.8105 106.875 54.8414 107.158C54.9257 107.895 54.9317 108.64 54.8593 109.38C54.8166 110.173 54.73 110.963 54.5998 111.747Z" fill="#D04954"/>
<path d="M76.8575 97.4897L79.229 97.3786C79.31 97.3786 79.3878 97.3463 79.4452 97.2889C79.5025 97.2315 79.5347 97.1537 79.5347 97.0724C79.5347 96.9913 79.5025 96.9134 79.4452 96.856C79.3878 96.7986 79.31 96.7663 79.229 96.7663L76.8575 96.8769C76.7747 96.8768 76.695 96.9085 76.6348 96.9654C76.5745 97.0223 76.5384 97.1003 76.5338 97.1831C76.5371 97.2664 76.5729 97.345 76.6334 97.4023C76.6938 97.4592 76.7743 97.4906 76.8575 97.4897Z" fill="#FE794D"/>
<path d="M80.7909 91.2085L80.3028 92.9503C80.2924 92.9899 80.2901 93.0311 80.2959 93.0716C80.3018 93.112 80.3156 93.1509 80.3367 93.186C80.3578 93.2209 80.3856 93.2514 80.4186 93.2754C80.4517 93.2995 80.4891 93.3167 80.5288 93.326C80.6099 93.3468 80.6957 93.3364 80.7695 93.2969C80.8432 93.2573 80.8995 93.1915 80.9271 93.1125L81.4153 91.3732C81.4252 91.3335 81.4274 91.2922 81.4214 91.2517C81.4155 91.2112 81.4015 91.1722 81.3806 91.1371C81.3595 91.102 81.3318 91.0714 81.299 91.0469C81.2661 91.0225 81.2288 91.0049 81.1891 90.995C81.1082 90.9742 81.0222 90.9846 80.9485 91.0241C80.8748 91.0637 80.8185 91.1295 80.7909 91.2085Z" fill="#FE794D"/>
<path d="M85.6649 94.4506C86.3424 94.9915 87.1023 95.4197 87.9155 95.719C87.997 95.7409 88.0836 95.7308 88.1578 95.6906C88.2319 95.6503 88.2877 95.5831 88.3138 95.5029C88.3332 95.423 88.3204 95.3387 88.278 95.2684C88.2357 95.1981 88.1673 95.1473 88.0877 95.1272C87.9155 95.0629 87.7717 95.0038 87.5918 94.9214C87.412 94.8391 87.2322 94.7465 87.06 94.6461C86.7312 94.4645 86.4184 94.2553 86.1248 94.021C86.0612 93.9652 85.9794 93.9345 85.8948 93.9345C85.8103 93.9345 85.7286 93.9652 85.6649 94.021C85.6353 94.0486 85.6118 94.0821 85.5956 94.1192C85.5796 94.1564 85.5712 94.1965 85.5712 94.2371C85.5712 94.2776 85.5796 94.3177 85.5956 94.3549C85.6118 94.392 85.6353 94.4255 85.6649 94.4532V94.4506Z" fill="#FE794D"/>
<path d="M90.0404 89.7019C89.5526 90.1741 89.1813 90.7538 88.9562 91.3948C88.9458 91.4343 88.9435 91.4756 88.9493 91.5159C88.9552 91.5564 88.969 91.5954 88.99 91.6304C89.0112 91.6653 89.0391 91.6957 89.072 91.7199C89.1051 91.7439 89.1425 91.7611 89.1822 91.7704C89.2636 91.7913 89.3499 91.781 89.424 91.7415C89.4982 91.702 89.5549 91.6361 89.583 91.5569C89.6062 91.4874 89.6344 91.4154 89.6627 91.3459C89.6627 91.3304 89.6627 91.315 89.6833 91.297C89.7038 91.279 89.6627 91.3408 89.6833 91.297L89.7321 91.1889C89.7985 91.0533 89.8732 90.9219 89.9556 90.7953L90.0763 90.6177C90.0995 90.5869 90.1226 90.5534 90.1483 90.5225L90.1792 90.4788L90.1971 90.4583L90.2228 90.4274L90.2588 90.3862C90.2814 90.3585 90.3054 90.3318 90.3307 90.3064C90.3846 90.2473 90.4412 90.1881 90.4977 90.1315C90.5273 90.1038 90.5509 90.0703 90.5669 90.0332C90.5831 89.996 90.5914 89.9559 90.5914 89.9154C90.5914 89.8748 90.5831 89.8348 90.5669 89.7976C90.5509 89.7604 90.5273 89.7269 90.4977 89.6993C90.4349 89.6427 90.3535 89.6114 90.2691 89.6114C90.1846 89.6114 90.1032 89.6427 90.0404 89.6993V89.7019Z" fill="#FE794D"/>
<path d="M86.2018 86.7781C86.5843 87.1493 87.0379 87.439 87.5353 87.6298C87.578 87.6419 87.6227 87.6453 87.6668 87.64C87.7109 87.6347 87.7535 87.6207 87.7922 87.5989C87.8635 87.5595 87.9169 87.4941 87.9411 87.4162C87.9525 87.3766 87.9555 87.3351 87.9496 87.2943C87.9439 87.2535 87.9296 87.2143 87.9078 87.1795C87.8603 87.1129 87.7928 87.0634 87.7151 87.038C87.7279 87.038 87.7767 87.0637 87.7357 87.038L87.6894 87.0174L87.6175 86.9865L87.4556 86.9068C87.3529 86.8527 87.2526 86.7936 87.155 86.7318L87.0882 86.6881L87.0471 86.6598C87.0471 86.6598 87.0008 86.6264 87.0471 86.6598C87.0933 86.6932 87.0471 86.6598 87.0471 86.6598L87.006 86.6289L86.9443 86.58C86.8539 86.5065 86.7682 86.4273 86.6874 86.3433C86.6242 86.2866 86.5423 86.2551 86.4575 86.2551C86.3726 86.2551 86.2907 86.2866 86.2276 86.3433C86.1986 86.3716 86.1755 86.4054 86.1598 86.4428C86.144 86.4801 86.136 86.5202 86.136 86.5607C86.136 86.6012 86.144 86.6413 86.1598 86.6787C86.1755 86.716 86.1986 86.7498 86.2276 86.7781H86.2018Z" fill="#FE794D"/>
<path d="M91.3659 83.8381C92.0776 83.6215 92.8162 83.5063 93.56 83.4959C93.6411 83.4959 93.7189 83.4636 93.7762 83.4062C93.8336 83.3488 93.8658 83.2709 93.8658 83.1897C93.8658 83.1084 93.8336 83.0306 93.7762 82.9732C93.7189 82.9158 93.6411 82.8835 93.56 82.8835C92.758 82.8926 91.9613 83.0156 91.1937 83.2489C91.1541 83.2585 91.1169 83.2759 91.0841 83.3C91.0512 83.3241 91.0235 83.3545 91.0025 83.3895C90.9815 83.4244 90.9676 83.4631 90.9616 83.5035C90.9556 83.5438 90.9577 83.585 90.9677 83.6245C90.9947 83.7039 91.0509 83.7701 91.1248 83.8098C91.1987 83.8493 91.2848 83.8595 91.3659 83.8381Z" fill="#FE794D"/>
<path d="M92.9205 93.5054L93.0131 93.5363L93.049 93.5491C93.049 93.5491 93.1158 93.5748 93.0644 93.5491C93.013 93.5233 93.0644 93.5491 93.0773 93.5491L93.1133 93.5645L93.1981 93.6031C93.3057 93.6569 93.4096 93.7179 93.5089 93.7858L93.5423 93.8064C93.5963 93.845 93.4986 93.7729 93.5295 93.8064L93.5963 93.8579C93.6425 93.8938 93.6888 93.9324 93.7325 93.9736C93.7761 94.0148 93.8172 94.0559 93.8584 94.0997L93.92 94.1692L93.9431 94.1975C93.8814 94.1305 93.9277 94.1769 93.9431 94.1975C93.9887 94.2689 94.0599 94.3202 94.1421 94.3408C94.2243 94.3615 94.3112 94.3497 94.3851 94.3081C94.421 94.2891 94.4527 94.2629 94.4783 94.2312C94.5039 94.1995 94.5228 94.1629 94.5338 94.1237C94.5448 94.0845 94.5478 94.0435 94.5425 94.0031C94.5373 93.9627 94.5239 93.9238 94.5032 93.8887C94.1439 93.4295 93.6538 93.0904 93.0978 92.9162C93.0164 92.894 92.9297 92.9037 92.8552 92.9435C92.7808 92.9831 92.7242 93.0498 92.697 93.1297C92.6871 93.1693 92.685 93.2103 92.691 93.2507C92.697 93.291 92.7109 93.3298 92.7319 93.3647C92.7529 93.3996 92.7807 93.4301 92.8134 93.4542C92.8463 93.4783 92.8836 93.4957 92.9231 93.5054H92.9205Z" fill="#FE794D"/>
<path d="M91.0682 97.5739L89.6808 98.7626C89.6513 98.7903 89.6277 98.8236 89.6116 98.8606C89.5954 98.8976 89.5871 98.9382 89.5871 98.9789C89.5871 99.0186 89.5954 99.0593 89.6116 99.0963C89.6277 99.1333 89.6513 99.1665 89.6808 99.1943C89.744 99.2516 89.8259 99.283 89.9107 99.283C89.9957 99.283 90.0775 99.2516 90.1407 99.1943L91.5256 98.0055C91.5555 97.9787 91.5793 97.9455 91.5956 97.9076C91.612 97.8706 91.6204 97.8308 91.6204 97.7902C91.6204 97.7495 91.612 97.7088 91.5956 97.6718C91.5793 97.6349 91.5555 97.6016 91.5256 97.5739C91.4628 97.5175 91.3813 97.4861 91.2968 97.4861C91.2124 97.4861 91.131 97.5175 91.0682 97.5739Z" fill="#FE794D"/>
<path d="M84.0102 97.8566L83.7738 98.6441C83.7634 98.683 83.7611 98.7246 83.767 98.7652C83.7728 98.805 83.7867 98.8447 83.8078 98.8789C83.8288 98.914 83.8567 98.9446 83.8896 98.9686C83.9227 98.9926 83.9602 99.0102 83.9999 99.0194C84.0813 99.0407 84.1675 99.0296 84.2417 98.9908C84.3158 98.951 84.3726 98.8854 84.4007 98.8059L84.6346 98.0183C84.6449 97.9786 84.6472 97.9379 84.6414 97.8972C84.6356 97.8566 84.6216 97.8177 84.6006 97.7826C84.5795 97.7475 84.5517 97.7179 84.5186 97.6939C84.4857 97.6698 84.4482 97.6523 84.4084 97.643C84.3274 97.6218 84.2412 97.6319 84.1674 97.6708C84.0934 97.7105 84.0373 97.7771 84.0102 97.8566Z" fill="#FE794D"/>
<path d="M94.2002 87.9029L95.2022 87.9981C95.2875 87.9991 95.3701 87.9678 95.4334 87.9105C95.4629 87.8821 95.4864 87.8482 95.5028 87.8107C95.519 87.7732 95.5278 87.7328 95.5285 87.6919C95.5254 87.6104 95.4913 87.5331 95.4334 87.4758C95.3678 87.422 95.2868 87.3905 95.2022 87.3857L94.2002 87.2905C94.1153 87.2898 94.0333 87.3221 93.9716 87.3806C93.9416 87.408 93.9177 87.4414 93.9014 87.4787C93.8851 87.5158 93.8767 87.556 93.8767 87.5967C93.8767 87.6373 93.8851 87.6775 93.9014 87.7147C93.9177 87.7519 93.9416 87.7853 93.9716 87.8128C94.0352 87.8682 94.1159 87.9 94.2002 87.9029Z" fill="#FE794D"/>
<path d="M94.1664 77.7632L93.745 79.3249C93.7351 79.3646 93.7329 79.406 93.7389 79.4464C93.7448 79.4869 93.7587 79.5258 93.7797 79.561C93.8007 79.5961 93.8285 79.6268 93.8613 79.6512C93.8941 79.6755 93.9315 79.6933 93.9711 79.7031C94.0525 79.7244 94.1389 79.714 94.2128 79.6738C94.2868 79.6337 94.3427 79.5669 94.3694 79.487L94.7907 77.9279C94.8007 77.8881 94.8028 77.8469 94.7969 77.8063C94.7909 77.7658 94.777 77.7269 94.7561 77.6918C94.735 77.6567 94.7073 77.626 94.6745 77.6017C94.6416 77.5773 94.6043 77.5596 94.5646 77.5496C94.4836 77.5283 94.3974 77.5384 94.3235 77.578C94.2497 77.6176 94.1935 77.6838 94.1664 77.7632Z" fill="#FE794D"/>
<path d="M72.788 99.2349C73.0193 98.8079 73.2659 98.39 73.528 97.9815C73.5487 97.9473 73.5623 97.9085 73.5677 97.8678C73.5732 97.8271 73.5704 97.7864 73.5596 97.7476C73.5488 97.7079 73.5302 97.6718 73.5049 97.6395C73.4795 97.608 73.448 97.5812 73.4123 97.5627C73.3375 97.523 73.2509 97.5128 73.1691 97.5332C73.0871 97.5535 73.0155 97.6034 72.9678 97.6727C72.7058 98.0832 72.4591 98.501 72.2279 98.9262C72.2072 98.9613 72.1939 98.9992 72.1887 99.0399C72.1834 99.0796 72.1865 99.1212 72.1975 99.16C72.2085 99.1989 72.2275 99.2349 72.2529 99.2663C72.2785 99.2978 72.3102 99.3237 72.3461 99.3431C72.4199 99.3837 72.5062 99.3948 72.588 99.3745C72.6698 99.3551 72.7411 99.3052 72.788 99.2349Z" fill="#FE794D"/>
<path d="M68.8287 5.11344L64.574 10.6733C64.3634 10.9486 64.8309 11.2188 65.0417 10.9461L69.2937 5.38616C69.5045 5.11086 69.0368 4.84071 68.8287 5.11344Z" fill="#FFBD00"/>
<path d="M69.8406 19.5192C72.0288 18.636 74.3243 18.0477 76.6672 17.7697C77.0089 17.7285 77.0114 17.1882 76.6672 17.2294C74.2757 17.508 71.9318 18.1032 69.6967 18.9995C69.3782 19.1256 69.5169 19.6504 69.8406 19.5141V19.5192Z" fill="#FFBD00"/>
<path d="M67.5287 15.5622C67.6797 15.5522 67.8213 15.4852 67.9247 15.3746C68.0281 15.264 68.0857 15.1182 68.0857 14.9666C68.0857 14.8151 68.0281 14.6692 67.9247 14.5586C67.8213 14.448 67.6797 14.381 67.5287 14.371C67.3777 14.381 67.2362 14.448 67.1327 14.5586C67.0293 14.6692 66.9717 14.8151 66.9717 14.9666C66.9717 15.1182 67.0293 15.264 67.1327 15.3746C67.2362 15.4852 67.3777 15.5522 67.5287 15.5622Z" fill="#FFBD00"/>
<path d="M71.0436 12.889C73.1179 11.1498 75.2955 9.53801 77.5643 8.06232C77.852 7.87451 77.5823 7.40625 77.292 7.59664C74.9873 9.09766 72.7754 10.737 70.6685 12.5056C70.4116 12.7295 70.784 13.1102 71.0487 12.889H71.0436Z" fill="#FFBD00"/>
<path d="M132.224 87.6888H115.963V102.534H132.224V87.6888Z" fill="#132056"/>
<path d="M132.227 56.8H115.966V87.6818H132.227V56.8Z" fill="#FFBD00"/>
<path d="M132.224 102.539H115.963V114.956H132.224V102.539Z" fill="#FFBD00"/>
<path d="M121.465 102.539C121.468 102.577 121.46 102.615 121.445 102.65C121.429 102.686 121.405 102.716 121.374 102.74C119.508 104.32 117.704 105.983 115.963 107.729V106.941C117.505 105.41 119.103 103.942 120.755 102.539H121.465Z" fill="#FE794D"/>
<path d="M127.79 102.539C123.85 106.218 119.911 109.897 115.972 113.576V112.818L126.986 102.539H127.79Z" fill="#FE794D"/>
<path d="M132.225 102.905V103.676C131.375 104.505 130.522 105.336 129.656 106.157C126.745 108.951 123.233 112.242 120.247 114.953H119.423C119.921 114.504 120.418 114.051 120.913 113.595C124.564 110.278 128.697 106.355 132.225 102.905Z" fill="#FE794D"/>
<path d="M132.224 108.564V109.298C130.084 111.14 127.979 113.026 125.912 114.958H125.097C127.429 112.773 129.805 110.642 132.224 108.564Z" fill="#FE794D"/>
<g opacity="0.5">
<path opacity="0.5" d="M132.225 62.3164V71.7948C131.835 71.8935 131.433 71.9428 131.03 71.9414C129.736 71.9414 128.494 71.4264 127.578 70.5096C126.663 69.5929 126.148 68.3495 126.148 67.0531C126.148 65.7565 126.663 64.5132 127.578 63.5964C128.494 62.6797 129.736 62.1646 131.03 62.1646C131.433 62.165 131.835 62.2159 132.225 62.3164Z" fill="#FE794D"/>
<path opacity="0.5" d="M120.245 77.1925C120.245 78.2332 119.832 79.2311 119.097 79.9669C118.362 80.7028 117.365 81.1162 116.327 81.1162C116.206 81.1166 116.086 81.1106 115.967 81.0982V73.287C116.085 73.287 116.206 73.2715 116.327 73.2715C116.841 73.2713 117.351 73.3724 117.826 73.5693C118.301 73.7662 118.733 74.0549 119.097 74.419C119.461 74.7832 119.75 75.2156 119.946 75.6914C120.143 76.1673 120.245 76.6775 120.245 77.1925Z" fill="#FE794D"/>
<path opacity="0.5" d="M120.666 64.7017C121.431 64.7017 122.051 64.0808 122.051 63.3149C122.051 62.549 121.431 61.9281 120.666 61.9281C119.901 61.9281 119.282 62.549 119.282 63.3149C119.282 64.0808 119.901 64.7017 120.666 64.7017Z" fill="#FE794D"/>
<path opacity="0.5" d="M126.632 80.1512C127.497 80.1512 128.199 79.4485 128.199 78.5818C128.199 77.715 127.497 77.0124 126.632 77.0124C125.766 77.0124 125.065 77.715 125.065 78.5818C125.065 79.4485 125.766 80.1512 126.632 80.1512Z" fill="#FE794D"/>
</g>
</g>
<defs>
<clipPath id="clip0_5367_10267">
<rect width="132" height="110" fill="white" transform="translate(4.5 5)"/>
</clipPath>
</defs>
</svg>
