<svg width="32" height="40" viewBox="0 0 32 40" fill="none" xmlns="http://www.w3.org/2000/svg">
<path d="M0 9.9502V39.2949C0 39.6066 0.253071 39.8593 0.565278 39.8593H22.0435C22.3555 39.8593 22.6086 39.6066 22.6086 39.2949V15.5936C22.6086 15.581 22.6025 15.5703 22.6013 15.558C22.5986 15.5085 22.5888 15.4597 22.5725 15.413C22.5662 15.3948 22.5618 15.3774 22.5539 15.3597C22.5264 15.2984 22.4882 15.2423 22.4407 15.1945L16.7886 9.55132C16.7407 9.50367 16.6843 9.46554 16.6224 9.43835C16.6054 9.43114 16.5882 9.4251 16.5705 9.41975C16.5232 9.40348 16.4741 9.39372 16.424 9.39046C16.4145 9.39209 16.4033 9.38605 16.3914 9.38605H0.565278C0.253071 9.38605 0 9.63849 0 9.9502Z" fill="#94C5FF"/>
<path d="M20.6789 15.0292H16.9564V11.3126L20.6789 15.0292Z" fill="#94C5FF"/>
<path d="M1.13062 10.5146H15.8264V15.5936C15.8264 15.9051 16.0795 16.1577 16.3915 16.1577H21.4785V38.7308H1.13062L1.13062 10.5146Z" fill="#E3EFFF"/>
<path d="M23.7396 35.3447V36.4732H25.4352C25.7474 36.4732 26.0005 36.2208 26.0005 35.9091V6.56438C26.0005 6.25267 25.7474 6 25.4352 6H3.957C3.6448 6 3.39172 6.25267 3.39172 6.56438V8.2573H4.52228V7.12854H24.87V35.3447H23.7396Z" fill="#94C5FF"/>
<path d="M4.52234 17.2866H18.0874V18.4151H4.52234L4.52234 17.2866Z" fill="#94C5FF"/>
<path d="M4.52234 13.9004H9.0441V15.0292H4.52234V13.9004Z" fill="#94C5FF"/>
<path d="M4.52234 20.6724H13.5659V21.8011H4.52234V20.6724Z" fill="#94C5FF"/>
<path d="M14.6952 20.6724H18.0864V21.8011H14.6952L14.6952 20.6724Z" fill="#94C5FF"/>
<path d="M4.52234 24.0582H18.0874V25.187H4.52234L4.52234 24.0582Z" fill="#94C5FF"/>
<path d="M4.52234 30.8301H18.0874V31.9589H4.52234L4.52234 30.8301Z" fill="#94C5FF"/>
<path d="M9.60815 27.4442H18.0864V28.5728H9.60815L9.60815 27.4442Z" fill="#94C5FF"/>
<path d="M4.52234 27.4442H8.47882V28.5728H4.52234V27.4442Z" fill="#94C5FF"/>
<path d="M4.52234 34.2162H6.78322V35.3448H4.52234V34.2162Z" fill="#94C5FF"/>
<path d="M7.91284 34.2162H18.0867V35.3448H7.91284L7.91284 34.2162Z" fill="#94C5FF"/>
<path fill-rule="evenodd" clip-rule="evenodd" d="M4.52234 8.25731H16.9571L23.7397 15.0852V35.3447H24.87V7.12854H4.52234L4.52234 8.25731Z" fill="#E3EFFF"/>
<circle cx="25" cy="7" r="7" fill="#3792FC"/>
<path fill-rule="evenodd" clip-rule="evenodd" d="M27.7952 4.7014C28.0709 4.43291 28.3665 4.12647 28.75 4.50001C29.0257 4.7685 29.0691 4.90518 28.7935 5.17367L24.5582 9.29867C24.2825 9.56715 23.8356 9.56715 23.5599 9.29867L21.207 7.007C20.9313 6.73852 20.9744 6.51851 21.2501 6.25003C21.5433 5.96532 21.9296 6.26624 22.2052 6.53473L24.059 8.34026L27.7952 4.7014Z" fill="white"/>
</svg>
