<svg width="14" height="14" viewBox="0 0 14 14" fill="none" xmlns="http://www.w3.org/2000/svg">
<path d="M12.6562 9.03543C12.4652 9.03543 12.3124 9.14172 12.3124 9.27458V11.45C12.3124 12.0416 11.6197 12.5217 10.7716 12.5217H3.22835C2.37776 12.5217 1.68761 12.0399 1.68761 11.45V9.23915C1.68761 9.10629 1.5348 9 1.3438 9C1.1528 9 1 9.10629 1 9.23915V11.45C1 12.3056 2.00085 13 3.22835 13H10.7716C12.0017 13 13 12.3038 13 11.45V9.27458C13 9.14349 12.8472 9.03543 12.6562 9.03543Z" fill="#33CF90" stroke="#675AF6"/>
<path d="M8.94401 7.17188L7.34469 8.89753V1.37114C7.34469 1.16505 7.19188 1.00018 7.00088 1.00018C6.80988 1.00018 6.65708 1.16505 6.65708 1.37114V8.89753L5.05776 7.17188C4.99154 7.10043 4.90241 7.06196 4.81582 7.06196C4.72669 7.06196 4.6401 7.09768 4.57389 7.17188C4.43891 7.31751 4.43891 7.55108 4.57389 7.69672L6.75895 10.0544C6.82261 10.1231 6.91175 10.1643 7.00088 10.1643C7.09256 10.1643 7.17915 10.1258 7.24282 10.0544L9.42788 7.69672C9.56285 7.55108 9.56285 7.31751 9.42788 7.17188C9.29545 7.02899 9.07643 7.02899 8.94401 7.17188Z" fill="#33CF90" stroke="#675AF6"/>
</svg>
