<svg width="130" height="130" viewBox="0 0 130 130" fill="none" xmlns="http://www.w3.org/2000/svg">
<path fill-rule="evenodd" clip-rule="evenodd" d="M0 6C0 2.68629 2.68629 0 6 0H124C127.314 0 130 2.68629 130 6V124C130 127.314 127.314 130 124 130H6C2.68629 130 0 127.314 0 124V6Z" fill="white"/>
<mask id="mask0" mask-type="alpha" maskUnits="userSpaceOnUse" x="0" y="0" width="130" height="130">
<path fill-rule="evenodd" clip-rule="evenodd" d="M0 6C0 2.68629 2.68629 0 6 0H124C127.314 0 130 2.68629 130 6V124C130 127.314 127.314 130 124 130H6C2.68629 130 0 127.314 0 124V6Z" fill="white"/>
</mask>
<g mask="url(#mask0)">
<path fill-rule="evenodd" clip-rule="evenodd" d="M105.874 72.5162C103.854 72.5162 102.21 70.8724 102.21 68.8526C102.21 68.1772 101.663 67.6313 100.989 67.6313C100.315 67.6313 99.7677 68.1772 99.7677 68.8526C99.7677 70.8724 98.1239 72.5162 96.104 72.5162C95.4299 72.5162 94.8828 73.0621 94.8828 73.7374C94.8828 74.4127 95.4299 74.9586 96.104 74.9586C98.1239 74.9586 99.7677 76.6024 99.7677 78.6223C99.7677 79.2976 100.315 79.8435 100.989 79.8435C101.663 79.8435 102.21 79.2976 102.21 78.6223C102.21 76.6024 103.854 74.9586 105.874 74.9586C106.548 74.9586 107.095 74.4127 107.095 73.7374C107.095 73.0621 106.548 72.5162 105.874 72.5162ZM100.989 74.9622C100.641 74.4981 100.227 74.0854 99.764 73.7373C100.227 73.3893 100.641 72.9765 100.989 72.5125C101.337 72.9765 101.751 73.3893 102.214 73.7373C101.751 74.0854 101.337 74.4981 100.989 74.9622Z" fill="#EFEEFB"/>
<path fill-rule="evenodd" clip-rule="evenodd" d="M39 32.1061C39 32.7814 39.5471 33.3273 40.2212 33.3273C42.2411 33.3273 43.8848 34.971 43.8848 36.9909C43.8848 37.6662 44.432 38.2121 45.1061 38.2121C45.7802 38.2121 46.3273 37.6662 46.3273 36.9909C46.3273 34.971 47.971 33.3273 49.9909 33.3273C50.665 33.3273 51.2121 32.7814 51.2121 32.1061C51.2121 31.4307 50.665 30.8848 49.9909 30.8848C47.971 30.8848 46.3273 29.2411 46.3273 27.2212C46.3273 26.5459 45.7802 26 45.1061 26C44.432 26 43.8848 26.5459 43.8848 27.2212C43.8848 29.2411 42.2411 30.8848 40.2212 30.8848C39.5471 30.8848 39 31.4307 39 32.1061ZM45.106 30.8811C45.454 31.3452 45.868 31.7579 46.3309 32.106C45.868 32.454 45.454 32.8668 45.106 33.3309C44.7579 32.8668 44.3439 32.454 43.8811 32.106C44.3439 31.7579 44.7579 31.3452 45.106 30.8811Z" fill="#EFEEFB"/>
<path opacity="0.05" d="M67.1276 -2.99991C54.5913 -2.99991 32.9377 -2.99991 28.379 9.52485C23.8204 22.0496 61.7234 21.315 70.5466 30.1301C79.3698 38.9452 93.5961 37.9902 107.016 37.9902C120.436 37.9902 117.893 52.7673 128.67 50.5149C139.446 48.2626 129.809 36.9762 133.228 30.1301C133.228 23.7481 133.228 -2.99991 133.228 -2.99991C133.228 -2.99991 88.2114 -2.99991 67.1276 -2.99991Z" fill="#675AF6"/>
<path opacity="0.05" d="M30 57.7943C74.3077 42.055 94 77.4685 94 57.7943C94 38.1202 70.3692 28.2831 58.5538 16.4786C46.7385 4.67415 51.9092 -15 33.9385 -15C15.9677 -15 25.0215 -3.97141 5.38462 4.67415C-14.2522 13.3197 -34 -9.09776 -34 16.4786C-34 42.055 -14.3077 73.5337 30 57.7943Z" fill="#675AF6"/>
<path opacity="0.05" d="M90 140.794C45.6923 125.055 26 160.468 26 140.794C26 121.12 49.6308 111.283 61.4462 99.4786C73.2615 87.6741 68.0908 68 86.0615 68C104.032 68 94.9785 79.0286 114.615 87.6741C134.252 96.3197 154 73.9022 154 99.4786C154 125.055 134.308 156.534 90 140.794Z" fill="#675AF6"/>
</g>
<path d="M68 57.9758C68 57.276 68.5673 56.7087 69.267 56.7087H92.7329C93.4327 56.7087 93.9999 57.276 93.9999 57.9758V105.608H68V57.9758Z" fill="#B9B3F9"/>
<path d="M80 51.8406C80 51.2883 80.4477 50.8406 81 50.8406C81.5523 50.8406 82 51.2883 82 51.8406V56.7084H80V51.8406Z" fill="#B9B3F9"/>
<path fill-rule="evenodd" clip-rule="evenodd" d="M73.03 61.5984H77.9712C78.5888 61.5984 79.0006 62.0175 79.0006 62.6462C79.0006 63.2749 78.5888 63.6941 77.9712 63.6941H73.03C72.4124 63.6941 72.0006 63.2749 72.0006 62.6462C72.0006 62.0175 72.4124 61.5984 73.03 61.5984ZM84.0288 61.5984H88.97C89.5876 61.5984 89.9994 62.0175 89.9994 62.6462C89.9994 63.2749 89.5876 63.6941 88.97 63.6941H84.0288C83.4112 63.6941 82.9994 63.2749 82.9994 62.6462C82.9994 62.0175 83.4112 61.5984 84.0288 61.5984ZM84.0288 67.8853H88.97C89.5876 67.8853 89.9994 68.3044 89.9994 68.9331C89.9994 69.5618 89.5876 69.9809 88.97 69.9809H84.0288C83.4112 69.9809 82.9994 69.5618 82.9994 68.9331C82.9994 68.3044 83.4112 67.8853 84.0288 67.8853ZM88.9713 74.1707H84.0301C83.4125 74.1707 83.0007 74.5898 83.0007 75.2185C83.0007 75.8472 83.4125 76.2663 84.0301 76.2663H88.9713C89.589 76.2663 90.0007 75.8472 90.0007 75.2185C90.0007 74.5898 89.589 74.1707 88.9713 74.1707ZM77.9706 67.8853H73.0294C72.4118 67.8853 72 68.3044 72 68.9331C72 69.5618 72.4118 69.9809 73.0294 69.9809H77.9706C78.5882 69.9809 79 69.5618 79 68.9331C79 68.3044 78.5882 67.8853 77.9706 67.8853ZM73.0294 74.1707H77.9706C78.5882 74.1707 79 74.5898 79 75.2185C79 75.8472 78.5882 76.2663 77.9706 76.2663H73.0294C72.4118 76.2663 72 75.8472 72 75.2185C72 74.5898 72.4118 74.1707 73.0294 74.1707Z" fill="#9D95F8"/>
<path fill-rule="evenodd" clip-rule="evenodd" d="M69 76.2683H87.7329C88.4327 76.2683 89 76.8356 89 77.5353V105.608H69V76.2683Z" fill="#9D95F8"/>
<path fill-rule="evenodd" clip-rule="evenodd" d="M72.0006 81.4024C72.0006 80.6689 72.8006 80.1799 74.0006 80.1799C75.0006 80.1799 76.0006 80.6689 76.0006 81.4024V82.8694C76.0006 83.6029 75.2006 84.0918 74.0006 84.0918C72.8006 84.0918 72.0006 83.6029 72.0006 82.8694V81.4024ZM80.0003 81.4026C80.0003 80.6692 80.8003 80.1802 82.0003 80.1802C83.0003 80.1802 84.0003 80.6692 84.0003 81.4026V82.8696C84.0003 83.6031 83.2003 84.0921 82.0003 84.0921C80.8003 84.0921 80.0003 83.6031 80.0003 82.8696V81.4026ZM74 86.0481C72.8 86.0481 72 86.5371 72 87.2706V88.7375C72 89.471 72.8 89.96 74 89.96C75.2 89.96 76 89.471 76 88.7375V87.2706C76 86.6593 75 86.0481 74 86.0481ZM80.0003 87.2706C80.0003 86.5371 80.8003 86.0481 82.0003 86.0481C83.0003 86.0481 84.0003 86.6593 84.0003 87.2706V88.7375C84.0003 89.471 83.2003 89.96 82.0003 89.96C80.8003 89.96 80.0003 89.471 80.0003 88.7375V87.2706ZM74 91.9163C72.8 91.9163 72 92.4052 72 93.1387V94.6057C72 95.3392 72.8 95.8282 74 95.8282C75.2 95.8282 76 95.3392 76 94.6057V93.1387C76 92.4052 75 91.9163 74 91.9163ZM80.0003 93.1387C80.0003 92.4052 80.8003 91.9163 82.0003 91.9163C83.0003 91.9163 84.0003 92.4052 84.0003 93.1387V94.6057C84.0003 95.3392 83.2003 95.8282 82.0003 95.8282C80.8003 95.8282 80.0003 95.3392 80.0003 94.6057V93.1387ZM74 97.7842C72.8 97.7842 72 98.2732 72 99.0067V100.474C72 101.207 72.8 101.696 74 101.696C75.2 101.696 76 101.207 76 100.474V99.0067C76 98.3954 75 97.7842 74 97.7842ZM80.0003 99.0067C80.0003 98.2732 80.8003 97.7842 82.0003 97.7842C83.0003 97.7842 84.0003 98.3954 84.0003 99.0067V100.474C84.0003 101.207 83.2003 101.696 82.0003 101.696C80.8003 101.696 80.0003 101.207 80.0003 100.474V99.0067Z" fill="#B9B3F9"/>
<path d="M36 85.3591C36 84.6593 36.5673 84.092 37.267 84.092H48V105.608H36V85.3591Z" fill="#C6C2F9"/>
<path fill-rule="evenodd" clip-rule="evenodd" d="M42 88.98H39V92.8919H42V88.98ZM44 88.98H47V92.8919H44V88.98ZM42.0001 97.782H39.0001V101.694H42.0001V97.782ZM47 97.782H44V101.694H47V97.782Z" fill="#9D95F8"/>
<path fill-rule="evenodd" clip-rule="evenodd" d="M46 73.6232C46 72.9235 46.5673 72.3562 47.267 72.3562H68.0831C68.7828 72.3562 69.3501 72.9235 69.3501 73.6232V105.607H46V73.6232Z" fill="#C6C2F9"/>
<path fill-rule="evenodd" clip-rule="evenodd" d="M52.0006 81.1585C52.6006 81.1585 53.0006 80.7768 53.0006 80.2044V78.2007C53.0006 77.6282 52.6006 77.2466 52.0006 77.2466C51.4006 77.2466 51.0006 77.6282 51.0006 78.2007V80.2044C51.0006 80.6814 51.5006 81.1585 52.0006 81.1585ZM57.9994 81.1585C58.5994 81.1585 58.9994 80.7768 58.9994 80.2044V78.2007C58.9994 77.6282 58.5994 77.2466 57.9994 77.2466C57.3994 77.2466 56.9994 77.6282 56.9994 78.2007V80.2044C56.9994 80.6814 57.4994 81.1585 57.9994 81.1585ZM65.0002 80.2044C65.0002 80.7768 64.6002 81.1585 64.0002 81.1585C63.5002 81.1585 63.0002 80.6814 63.0002 80.2044V78.2007C63.0002 77.6282 63.4002 77.2466 64.0002 77.2466C64.6002 77.2466 65.0002 77.6282 65.0002 78.2007V80.2044ZM52 90.9378C52.6 90.9378 53 90.5561 53 89.9837V87.98C53 87.4075 52.6 87.0259 52 87.0259C51.4 87.0259 51 87.4075 51 87.98V89.9837C51 90.5561 51.5 90.9378 52 90.9378ZM58.9994 89.9837C58.9994 90.5561 58.5994 90.9378 57.9994 90.9378C57.4994 90.9378 56.9994 90.5561 56.9994 89.9837V87.98C56.9994 87.4075 57.3994 87.0259 57.9994 87.0259C58.5994 87.0259 58.9994 87.4075 58.9994 87.98V89.9837ZM64.0002 90.9378C64.6002 90.9378 65.0002 90.5561 65.0002 89.9837V87.98C65.0002 87.4075 64.6002 87.0259 64.0002 87.0259C63.4002 87.0259 63.0002 87.4075 63.0002 87.98V89.9837C63.0002 90.5561 63.5002 90.9378 64.0002 90.9378ZM53 99.7639C53 100.336 52.6 100.718 52 100.718C51.5 100.718 51 100.241 51 99.7639V97.7603C51 97.1878 51.4 96.8062 52 96.8062C52.6 96.8062 53 97.1878 53 97.7603V99.7639ZM57.9994 100.718C58.5994 100.718 58.9994 100.336 58.9994 99.7639V97.7603C58.9994 97.1878 58.5994 96.8062 57.9994 96.8062C57.3994 96.8062 56.9994 97.1878 56.9994 97.7603V99.7639C56.9994 100.241 57.4994 100.718 57.9994 100.718ZM65.0002 99.7639C65.0002 100.336 64.6002 100.718 64.0002 100.718C63.5002 100.718 63.0002 100.241 63.0002 99.7639V97.7603C63.0002 97.1878 63.4002 96.8062 64.0002 96.8062C64.6002 96.8062 65.0002 97.1878 65.0002 97.7603V99.7639Z" fill="#B9B3F9"/>
<path fill-rule="evenodd" clip-rule="evenodd" d="M84.9392 26.3857C85.525 25.8128 86.4748 25.8128 87.0606 26.3857C87.6097 26.9228 87.6441 27.7727 87.1635 28.3489L87.0606 28.4603L67.0606 48.0199C66.5114 48.557 65.6424 48.5905 65.0532 48.1206L64.9393 48.0199L58 41.233L43.0607 55.8437C42.5115 56.3808 41.6424 56.4144 41.0533 55.9444L40.9393 55.8437C40.3902 55.3066 40.3558 54.4567 40.8364 53.8805L40.9393 53.7691L56.9393 38.1215C57.4885 37.5844 58.3575 37.5508 58.9467 38.0208L59.0606 38.1215L65.9999 44.9083L84.9392 26.3857Z" fill="#675AF6"/>
<path fill-rule="evenodd" clip-rule="evenodd" d="M88 24C88.7797 24 89.4204 24.5818 89.4931 25.3257L89.5 25.467V39.1587C89.5 39.9688 88.8284 40.6256 88 40.6256C87.2203 40.6256 86.5795 40.0438 86.5068 39.2999L86.5 39.1587V26.9339H74C73.2203 26.9339 72.5796 26.3521 72.5069 25.6082L72.5 25.467C72.5 24.7044 73.0949 24.0778 73.8555 24.0067L74 24H88Z" fill="#675AF6"/>
</svg>
