<svg width="310" height="177" viewBox="0 0 310 177" fill="none" xmlns="http://www.w3.org/2000/svg">
<rect width="310" height="176.53" fill="white"/>
<path d="M304.74 95.3039C304.683 95.0506 304.629 94.7973 304.567 94.5468C302.604 85.9367 299.397 77.6397 294.628 70.0202C294.47 69.7668 294.311 69.5135 294.15 69.2602C291.005 64.3578 287.243 59.8395 282.946 55.8057C280.571 53.5742 277.98 51.4537 274.898 49.9252C270.581 47.7791 265.535 46.9081 260.574 46.1966C255.423 45.4537 250.199 44.8332 244.991 44.1643C243.14 43.9309 241.3 43.6833 239.471 43.4214C234.439 42.7127 229.443 41.8929 224.567 40.8056C218.539 39.465 212.696 37.7089 207.176 35.2383C206.736 35.0485 206.3 34.8474 205.869 34.6348C205.438 34.4299 205.004 34.2221 204.58 34.0115C204.155 33.8009 203.736 33.5903 203.32 33.3739C203.105 33.2629 202.889 33.1519 202.677 33.0352C202.464 32.9185 202.255 32.8161 202.049 32.7022C201.426 32.372 200.816 32.0333 200.206 31.6918L200.182 31.6775C199.778 31.4527 199.38 31.2221 198.985 30.9916C196.729 29.688 194.522 28.3274 192.314 26.9584L190.926 26.1045L188.775 24.7809C188.356 24.5219 187.928 24.2629 187.506 24.0067C187.207 23.8189 186.908 23.631 186.582 23.4375C185.014 22.4982 183.426 21.576 181.795 20.6965C181.409 20.4859 181.02 20.2752 180.628 20.0703C177.334 18.3218 173.889 16.844 170.331 15.6528L170.283 15.6358C168.493 15.0416 166.667 14.5512 164.815 14.1671C163.747 13.945 162.675 13.7629 161.592 13.6234C158.698 13.2329 155.762 13.1937 152.857 13.5067C147.152 14.1357 141.806 16.2192 136.104 16.9223C124.364 18.3454 112.963 13.76 101.924 10.168C99.2095 9.28564 96.4752 8.45926 93.7208 7.68886C91.89 7.17368 90.0531 6.68697 88.2012 6.21732C76.8556 3.36537 65.2764 1.4334 53.5878 0.442154C48.7017 -0.013382 43.7864 -0.117081 38.8838 0.131912C37.02 0.240067 35.1772 0.416534 33.3672 0.701172C27.1745 1.61198 21.4006 3.52187 16.7396 7.01997C12.9222 9.89191 10.1909 13.6348 8.11167 17.5513C5.98327 21.5477 4.48052 25.8187 3.65111 30.2288C3.53743 30.8293 3.43571 31.4328 3.35194 32.0362C3.20236 33.0684 3.09067 34.1064 3.01688 35.15C2.61435 40.7128 3.31251 46.2981 5.07514 51.6159C7.04963 57.5704 10.3404 63.2858 11.7884 69.2858C11.8482 69.5401 11.9051 69.7934 11.9589 70.0458C12.1567 70.9571 12.3035 71.8777 12.3987 72.8039C13.1376 80.1758 10.3045 87.3627 8.08175 94.5724C8.00397 94.8229 7.92618 95.0762 7.85139 95.3295C7.61206 96.1303 7.3827 96.9301 7.16331 97.729C5.10505 105.351 4.53365 113.512 6.36753 121.12C6.42437 121.373 6.49318 121.627 6.559 121.877C7.78672 126.686 10.0954 131.185 13.3261 135.064C16.7605 139.163 21.269 142.575 26.0855 145.573C28.433 147.034 30.8602 148.399 33.3672 149.668C35.1622 150.579 37.0011 151.442 38.8838 152.256C53.9767 158.802 71.1937 161.999 88.2192 161.293C89.1167 161.256 90.0142 161.21 90.9117 161.148C91.8092 161.085 92.7904 161.011 93.7298 160.928C104.697 159.915 115.368 157.47 125.965 154.797C129.516 153.901 133.061 152.982 136.603 152.079C138.18 151.681 139.753 151.282 141.33 150.895C149.051 148.997 156.887 147.278 164.82 145.994C166.657 145.692 168.496 145.417 170.337 145.168C176.729 144.275 183.172 143.755 189.63 143.611C192.141 143.564 194.653 143.585 197.166 143.674C198.435 143.718 199.704 143.783 200.975 143.87C214.093 144.75 226.772 147.693 239.471 150.443C241.308 150.841 243.148 151.234 244.991 151.621C247.408 152.128 249.825 152.617 252.255 153.07C267.371 155.896 280.846 154.271 294.901 148.439C298.096 147.115 301.288 145.516 303.244 143.031C305.201 140.546 305.691 137.495 306.056 134.549C306.574 130.353 306.912 126.104 307.041 121.832C307.041 121.581 307.041 121.328 307.059 121.074C307.262 112.444 306.586 103.732 304.74 95.3039Z" fill="#F6F2FF"/>
<path d="M100.841 64.3667C103.891 35.5975 267.546 -19.93 297.928 7.31958C328.31 34.5692 299.102 85.7096 235.432 98.8053C171.763 111.901 97.7911 93.1359 100.841 64.3667Z" fill="#E8E0FF"/>
<path d="M116.314 130.81C119.043 107.107 265.498 61.3574 292.687 83.8085C319.875 106.26 312.993 153.483 256.016 164.273C199.038 175.062 113.584 154.513 116.314 130.81Z" fill="#F6F2FF"/>
<path d="M193.686 130.81C190.957 107.107 44.5022 61.3574 17.3135 83.8085C-9.87529 106.26 -2.9933 153.483 53.9843 164.273C110.962 175.062 196.416 154.513 193.686 130.81Z" fill="#F6F2FF"/>
<ellipse opacity="0.5" cx="155" cy="168.194" rx="145.312" ry="6.80556" fill="#FAFCFF"/>
<ellipse cx="47.4687" cy="168.195" rx="19.375" ry="3.88922" fill="#E6E5F4"/>
<ellipse cx="274.156" cy="168.195" rx="20.3437" ry="3.88922" fill="#E6E5F4"/>
<path d="M40.3451 75.8962C41.3813 75.7692 42.4873 75.814 43.4509 76.2245C45.5 77.0974 46.0824 79.5269 46.0543 81.5015C46.0241 83.6268 45.5743 85.9483 47.1844 87.6607C47.9245 88.448 48.8452 89.0505 49.5719 89.8522C50.3485 90.709 50.9578 91.6893 51.4089 92.742C52.2373 94.6756 52.6439 96.9495 51.8864 98.9779C51.2194 100.764 49.5414 102.376 49.904 104.406C50.2822 106.525 52.4104 108.144 53.7409 109.722C55.2467 111.508 56.6331 113.79 56.8608 116.132C57.0792 118.376 56.1059 120.645 54.612 122.342C51.6274 125.732 47.141 127.393 42.6174 127.383C40.6968 127.379 38.5222 127.292 36.8648 126.256C36.3525 125.936 36.0823 125.576 35.7778 125.077C35.5047 124.629 35.144 124.338 34.7266 124.021C33.8094 123.325 33.147 122.387 32.7243 121.338C31.0828 117.26 32.3948 112.215 34.6925 108.594C35.2369 107.736 35.6827 106.91 35.4182 105.888C35.1422 104.82 34.4638 103.858 33.8638 102.94C33.2709 102.033 32.594 101.168 32.1305 100.188C31.6452 99.1604 31.5085 98.0848 31.5943 96.9607C31.7554 94.8491 32.6637 92.9005 33.9496 91.2023C35.1882 89.5666 36.6425 88.0015 36.6458 85.8582C36.6494 83.5866 35.1361 81.5659 35.7808 79.2563C36.0477 78.3 36.5839 77.3188 37.4479 76.7455C38.2765 76.1956 39.3706 76.0157 40.3451 75.8962Z" fill="#DFD8EF"/>
<path d="M39.6694 79.5275C39.6888 79.2225 40.0494 79.0395 40.3333 79.1191C40.7069 79.2239 40.6997 79.5743 40.6899 79.8865C40.6596 80.846 40.798 81.7785 41.0279 82.7095C41.5055 84.6452 42.3883 86.4286 43.0877 88.2879C43.7865 90.1457 44.1146 92.0638 43.7046 94.0297C43.3182 95.8832 42.711 97.6886 42.3155 99.5444C41.9669 101.18 41.596 102.905 42.1269 104.537C42.6377 106.107 43.7671 107.386 44.5803 108.805C46.2638 111.743 47.0107 115.002 47.1106 118.356C47.1569 119.914 47.1152 121.486 46.7552 123.013C46.548 123.893 46.2695 125.082 45.5185 125.689C45.1721 125.969 44.5798 126.066 44.2883 125.651C44.0147 125.262 44.2547 124.66 44.3416 124.245C44.7179 122.451 44.7936 120.617 44.7035 118.794C44.6163 117.029 44.4085 115.267 43.855 113.581C43.3412 112.017 42.5607 110.612 41.6421 109.243C40.7061 107.849 39.733 106.451 39.3462 104.799C38.9533 103.121 39.2725 101.413 39.6994 99.7665C40.1508 98.0253 40.7421 96.3339 41.3534 94.6398C41.9492 92.9891 42.1603 91.4272 41.8315 89.6994C41.1818 86.286 39.4428 83.0822 39.6694 79.5275Z" fill="#E8E0FF"/>
<path fill-rule="evenodd" clip-rule="evenodd" d="M67.7027 80.038C68.9849 80.4288 70.2585 81.0592 71.1725 82.0477C73.1161 84.1499 72.5198 87.3271 71.4469 89.6477C70.292 92.1454 68.5419 94.6559 69.5284 97.5217C69.9819 98.8392 70.7444 100.032 71.1745 101.36C71.6341 102.779 71.8325 104.256 71.8072 105.737C71.7604 108.456 71.0397 111.357 69.0829 113.361C67.3601 115.124 64.543 116.155 63.8988 118.745C63.2267 121.448 64.8698 124.474 65.5994 127.035C66.425 129.933 66.8492 133.356 65.883 136.244C64.9572 139.012 62.6202 141.188 59.9746 142.414C54.6887 144.865 48.5514 144.488 43.251 142.114C41.0007 141.106 38.496 139.868 37.0975 137.777C36.6653 137.131 36.5375 136.566 36.4433 135.816C36.3589 135.144 36.0892 134.611 35.7664 134.019C35.0572 132.717 34.7742 131.262 34.8314 129.799C35.0537 124.12 39.2495 118.839 43.8516 115.756C44.9421 115.026 45.8997 114.282 46.128 112.935C46.3665 111.528 46.0779 110.035 45.8574 108.637C45.6396 107.255 45.3013 105.878 45.2741 104.477C45.2458 103.009 45.652 101.665 46.3447 100.381C47.6458 97.9676 49.7374 96.1374 52.1401 94.8004C54.4543 93.5126 56.9844 92.4209 58.117 89.8879C59.3176 87.2033 58.607 84.0235 60.5795 81.6288C61.3962 80.6372 62.5418 79.7567 63.8572 79.5298C65.1187 79.3121 66.4967 79.6705 67.7027 80.038Z" fill="#E8E0FF"/>
<path d="M65.0861 84.4782C65.2681 84.1271 65.7852 84.1001 66.0756 84.3437C66.4578 84.6644 66.2665 85.0756 66.0921 85.4401C65.556 86.5605 65.2312 87.7375 65.0141 88.961C64.5625 91.5045 64.6641 94.0808 64.5116 96.6506C64.3592 99.2183 63.7418 101.662 62.2366 103.775C60.8174 105.766 59.1653 107.585 57.7344 109.575C56.4732 111.329 55.1393 113.176 54.9086 115.387C54.6864 117.516 55.3395 119.625 55.5498 121.733C55.9852 126.098 55.1577 130.35 53.5242 134.375C52.7656 136.244 51.8965 138.083 50.6784 139.703C49.9771 140.635 49.0311 141.897 47.836 142.221C47.2849 142.37 46.5418 142.173 46.4174 141.529C46.3004 140.924 46.8953 140.337 47.2132 139.892C48.5897 137.965 49.6353 135.833 50.4809 133.627C51.3001 131.491 51.9767 129.295 52.2092 127.008C52.4248 124.885 52.2454 122.81 51.8855 120.707C51.5187 118.563 51.1102 116.396 51.5203 114.235C51.9367 112.041 53.2011 110.187 54.5594 108.462C55.996 106.637 57.57 104.945 59.1689 103.261C60.7269 101.619 61.7889 99.8804 62.306 97.6614C63.3276 93.2774 62.9662 88.5686 65.0861 84.4782Z" fill="#DFD8EF"/>
<path fill-rule="evenodd" clip-rule="evenodd" d="M28.0632 96.1624C30.1953 96.1624 32.0698 97.2966 33.3615 98.9061C34.8735 100.79 35.1788 103.091 35.7928 105.337C36.0983 106.454 36.6238 107.564 37.5446 108.323C38.3821 109.013 39.4454 109.152 40.4479 109.489C42.4514 110.163 44.0692 111.787 44.7081 113.769C45.4876 116.186 44.662 118.624 44.8042 121.074C44.9347 123.324 47.145 124.727 48.9233 125.806C50.6769 126.869 52.2566 127.865 52.7847 129.936C53.3448 132.134 53.5327 134.586 52.757 136.757C51.4655 140.371 47.6857 141.963 44.0336 142.21C40.7191 142.433 36.5515 142.082 34.0623 139.667C32.5729 138.222 32.0335 136.202 32.1004 134.191C32.142 132.941 32.3887 131.702 32.7078 130.494C32.9339 129.638 33.2394 128.785 33.3265 127.901C33.5578 125.547 31.3899 125.094 29.5444 124.448C27.1995 123.627 25.5578 122.075 24.4162 119.914C23.3531 117.901 22.907 115.642 23.5443 113.426C23.8698 112.294 24.4602 111.268 25.2609 110.395C25.6133 110.01 26.1101 109.69 26.4282 109.286C26.7251 108.909 26.6605 108.42 26.5581 107.979C26.085 105.939 24.6108 104.25 24.0836 102.213C23.6076 100.375 23.889 98.0879 25.5634 96.9022C26.2868 96.3898 27.179 96.168 28.0632 96.1624Z" fill="#E6E5F4"/>
<path fill-rule="evenodd" clip-rule="evenodd" d="M30.9691 101.478C33.2289 103.894 33.8432 107.171 34.0234 110.348C34.1244 112.13 34.0193 114.009 34.5408 115.737C34.987 117.216 36.0331 118.346 37.1114 119.415C39.282 121.565 41.7027 123.752 42.3376 126.865C42.7101 128.692 42.4586 130.579 42.9734 132.385C43.4414 134.028 44.2655 135.641 45.2678 137.028C46.0748 138.145 47.1263 139 48.0084 140.041C48.2776 140.358 48.6631 140.826 48.5521 141.275C48.4221 141.8 47.7553 141.966 47.2822 141.884C46.1791 141.691 45.2506 140.634 44.5294 139.866C43.4748 138.742 42.5786 137.534 41.8502 136.178C41.0416 134.672 40.3905 133.075 40.1123 131.385C39.8236 129.633 39.9673 127.807 39.3081 126.125C38.1988 123.295 35.5082 121.625 33.5628 119.42C31.1391 116.671 31.5006 113.251 31.7488 109.87C31.8852 108.012 32.0208 105.914 31.0853 104.218C30.7283 103.57 29.9321 102.967 29.7786 102.231C29.638 101.556 30.4055 100.875 30.9691 101.478Z" fill="#DFD8EF"/>
<path fill-rule="evenodd" clip-rule="evenodd" d="M33.3789 141.178C33.379 154.994 35.6257 162.234 47.4864 162.234C59.3471 162.234 61.5937 154.994 61.5938 141.178H33.3789Z" fill="#C6C2F9"/>
<ellipse cx="167.114" cy="159.235" rx="75.4656" ry="8.58863" fill="#E8E0FF"/>
<g clip-path="url(#clip0)">
<rect x="108.766" y="11.6667" width="102.695" height="142.103" fill="#482998"/>
<mask id="mask0" mask-type="alpha" maskUnits="userSpaceOnUse" x="108" y="11" width="104" height="143">
<rect x="108.766" y="11.6667" width="102.695" height="142.103" fill="white"/>
</mask>
<g mask="url(#mask0)">
<path opacity="0.64" d="M194.621 94.3974L191.227 97.8038C191.101 97.9299 190.903 97.9299 190.777 97.8038C190.651 97.6776 190.651 97.4784 190.777 97.3523L192.577 95.5462C192.702 95.42 192.702 95.2142 192.577 95.0814C192.451 94.9552 192.246 94.9552 192.114 95.0814L189.487 97.7175C189.361 97.8436 189.163 97.8436 189.037 97.7175C188.911 97.5913 188.911 97.3921 189.037 97.2659L190.989 95.3071C191.115 95.181 191.115 94.9685 190.989 94.8423C190.863 94.7161 190.651 94.7161 190.526 94.8423L181.355 104.045L181.369 104.059C180.151 105.28 180.204 107.286 181.514 108.448C182.712 109.504 184.545 109.371 185.676 108.235L196.136 97.7374C196.308 97.5647 196.308 97.2859 196.136 97.1066C195.964 96.9339 195.686 96.9339 195.508 97.1066L193.291 99.331C193.166 99.4572 192.967 99.4572 192.841 99.331C192.716 99.2048 192.716 99.0056 192.841 98.8795L194.343 97.3722C194.482 97.2327 194.482 97.0003 194.343 96.8609C194.204 96.7214 193.973 96.7214 193.834 96.8609L191.353 99.3509C191.227 99.4771 191.029 99.4771 190.903 99.3509C190.777 99.2247 190.777 99.0255 190.903 98.8994L195.012 94.7759C195.117 94.6697 195.117 94.497 195.012 94.3908C194.892 94.2912 194.72 94.2912 194.621 94.3974Z" fill="#A38CEB"/>
<path d="M185.066 104.59C185.946 105.473 185.946 106.901 185.066 107.778C184.186 108.661 182.764 108.661 181.89 107.778C181.01 106.894 181.01 105.467 181.89 104.59C182.764 103.707 184.186 103.707 185.066 104.59Z" fill="#F6F2FF"/>
<ellipse cx="184.228" cy="40.1658" rx="20.2279" ry="24.5947" fill="#9D95F8"/>
<ellipse cx="184.228" cy="40.1658" rx="20.2279" ry="24.5947" fill="#8279F8"/>
<path fill-rule="evenodd" clip-rule="evenodd" d="M186.081 53.1088C187.014 54.3107 187.007 55.8912 186.054 56.635C185.108 57.3787 183.58 57.0002 182.647 55.7982C181.714 54.5963 181.721 53.0158 182.674 52.2721C183.62 51.535 185.141 51.9068 186.081 53.1088Z" fill="#6650AB"/>
<path fill-rule="evenodd" clip-rule="evenodd" d="M183.145 55.4064C182.291 54.3107 182.238 52.9095 182.946 52.1127C182.854 52.1592 182.754 52.2056 182.675 52.2787C181.729 53.0224 181.716 54.5963 182.649 55.8049C183.581 57.0068 185.11 57.3853 186.056 56.6416C186.142 56.5752 186.208 56.4955 186.281 56.4158C185.328 56.9006 183.992 56.5021 183.145 55.4064Z" fill="#482998"/>
<path fill-rule="evenodd" clip-rule="evenodd" d="M191.024 57.6306C191.871 58.1884 192.208 59.1778 191.772 59.8552C191.335 60.5259 190.29 60.6255 189.443 60.0677C188.596 59.5099 188.258 58.5204 188.695 57.8431C189.132 57.1724 190.177 57.0794 191.024 57.6306Z" fill="#6650AB"/>
<path fill-rule="evenodd" clip-rule="evenodd" d="M189.668 59.7156C188.894 59.2109 188.556 58.341 188.827 57.6836C188.781 57.7367 188.728 57.7832 188.688 57.843C188.252 58.5137 188.583 59.5098 189.436 60.0676C190.283 60.6254 191.328 60.5258 191.765 59.8551C191.805 59.7953 191.831 59.7289 191.858 59.6625C191.368 60.1805 190.442 60.2203 189.668 59.7156Z" fill="#482998"/>
<ellipse rx="1.05349" ry="1.33299" transform="matrix(0.788805 -0.614643 0.611908 0.790929 174.971 48.1333)" fill="#6650AB"/>
<path fill-rule="evenodd" clip-rule="evenodd" d="M174.372 48.5874C173.962 48.0562 173.936 47.3788 174.28 46.9937C174.233 47.0202 174.187 47.0401 174.147 47.0733C173.691 47.4319 173.684 48.1956 174.134 48.78C174.584 49.3644 175.325 49.5436 175.782 49.1851C175.821 49.1519 175.854 49.112 175.887 49.0788C175.431 49.3112 174.783 49.1186 174.372 48.5874Z" fill="#482998"/>
<path fill-rule="evenodd" clip-rule="evenodd" d="M180.361 42.5964C181.175 43.7519 181.096 45.2129 180.189 45.8636C179.276 46.5078 177.88 46.0961 177.066 44.9406C176.253 43.7851 176.332 42.3242 177.238 41.6734C178.145 41.0226 179.548 41.441 180.361 42.5964Z" fill="#6650AB"/>
<path fill-rule="evenodd" clip-rule="evenodd" d="M177.537 44.6019C176.796 43.546 176.803 42.2511 177.491 41.5339C177.405 41.5738 177.312 41.6136 177.233 41.6734C176.32 42.3175 176.247 43.7851 177.061 44.9406C177.875 46.0961 179.277 46.5144 180.184 45.8636C180.263 45.8039 180.336 45.7308 180.402 45.6644C179.502 46.0828 178.285 45.6511 177.537 44.6019Z" fill="#482998"/>
<path fill-rule="evenodd" clip-rule="evenodd" d="M178.607 53.8608C179.593 54.8502 179.871 56.1651 179.229 56.8026C178.594 57.4401 177.277 57.1612 176.298 56.1783C175.319 55.1889 175.034 53.874 175.676 53.2365C176.311 52.599 177.621 52.878 178.607 53.8608Z" fill="#6650AB"/>
<path fill-rule="evenodd" clip-rule="evenodd" d="M171.735 47.0362C171.98 47.4147 171.954 47.8663 171.689 48.039C171.424 48.2116 171.007 48.0456 170.763 47.6671C170.518 47.2886 170.544 46.837 170.809 46.6643C171.08 46.4917 171.49 46.6577 171.735 47.0362Z" fill="#6650AB"/>
<path fill-rule="evenodd" clip-rule="evenodd" d="M183.135 58.7423C183.519 58.9946 183.691 59.413 183.519 59.672C183.347 59.9376 182.897 59.9509 182.513 59.6985C182.129 59.4462 181.957 59.0278 182.129 58.7688C182.301 58.5032 182.751 58.4899 183.135 58.7423Z" fill="#6650AB"/>
<path fill-rule="evenodd" clip-rule="evenodd" d="M194.392 47.9897C196.255 47.4175 198.078 46.8272 199.853 46.2236C197.254 50.4254 192.665 53.9823 186.887 55.7588C179.986 57.8809 173.076 56.9437 168.367 53.7831C175.475 52.9678 184.618 50.9922 194.392 47.9897ZM189.627 32.3412C192.738 31.3855 195.786 30.5338 198.724 29.7904C194.214 25.0469 185.98 23.2324 177.757 25.7608C168.448 28.6232 162.225 36.1074 162.439 43.4641C168.902 39.7756 178.563 35.7402 189.627 32.3412Z" fill="#675AF6"/>
<path fill-rule="evenodd" clip-rule="evenodd" d="M167.115 153.77C165.396 148.887 162.221 144.47 157.69 141.268C146.112 133.084 130.148 135.921 122.034 147.605C120.677 149.558 119.636 151.631 118.879 153.77H167.115Z" fill="#9D95F8"/>
<path fill-rule="evenodd" clip-rule="evenodd" d="M120.762 153.77C121.368 152.481 122.073 151.225 122.909 150.023C131.022 138.345 146.984 135.502 158.561 143.686C162.327 146.35 165.152 149.857 166.983 153.77H167.115C165.396 148.887 162.215 144.47 157.685 141.268C146.108 133.084 130.146 135.921 122.033 147.605C120.677 149.558 119.63 151.631 118.879 153.77H120.762Z" fill="#8279F8"/>
<path fill-rule="evenodd" clip-rule="evenodd" d="M139.786 147.449C138.264 147.529 136.987 146.612 136.928 145.41C136.868 144.209 138.046 143.166 139.568 143.086C141.09 143.007 142.367 143.923 142.426 145.132C142.486 146.334 141.301 147.369 139.786 147.449Z" fill="#6650AB"/>
<path fill-rule="evenodd" clip-rule="evenodd" d="M139.594 143.717C140.977 143.644 142.148 144.401 142.4 145.444C142.413 145.337 142.426 145.231 142.426 145.125C142.367 143.923 141.083 143.007 139.568 143.08C138.046 143.159 136.868 144.195 136.928 145.404C136.935 145.51 136.961 145.616 136.981 145.716C137.12 144.66 138.212 143.79 139.594 143.717Z" fill="#482998"/>
<path fill-rule="evenodd" clip-rule="evenodd" d="M131.921 150.842C130.981 151.221 129.976 150.922 129.678 150.178C129.38 149.434 129.896 148.518 130.836 148.139C131.775 147.761 132.781 148.06 133.079 148.803C133.377 149.547 132.86 150.457 131.921 150.842Z" fill="#6650AB"/>
<path fill-rule="evenodd" clip-rule="evenodd" d="M130.993 148.531C131.847 148.186 132.753 148.405 133.13 149.009C133.117 148.943 133.104 148.87 133.077 148.803C132.78 148.06 131.774 147.761 130.834 148.139C129.895 148.518 129.372 149.428 129.677 150.178C129.703 150.244 129.743 150.304 129.782 150.364C129.637 149.66 130.14 148.876 130.993 148.531Z" fill="#482998"/>
<path fill-rule="evenodd" clip-rule="evenodd" d="M138.173 152.774C137.438 152.808 136.816 152.369 136.79 151.785C136.763 151.201 137.332 150.703 138.067 150.663C138.801 150.629 139.423 151.068 139.45 151.652C139.476 152.236 138.907 152.741 138.173 152.774Z" fill="#6650AB"/>
<path fill-rule="evenodd" clip-rule="evenodd" d="M138.081 150.968C138.749 150.935 139.318 151.3 139.437 151.805C139.444 151.752 139.45 151.705 139.45 151.652C139.424 151.068 138.802 150.623 138.067 150.663C137.333 150.696 136.757 151.201 136.79 151.785C136.79 151.838 136.804 151.885 136.817 151.938C136.883 151.426 137.412 151.001 138.081 150.968Z" fill="#482998"/>
<path fill-rule="evenodd" clip-rule="evenodd" d="M150.817 147.243C149.408 147.25 148.257 146.347 148.25 145.224C148.243 144.102 149.388 143.192 150.797 143.186C152.207 143.179 153.358 144.082 153.364 145.205C153.371 146.327 152.233 147.237 150.817 147.243Z" fill="#6650AB"/>
<path fill-rule="evenodd" clip-rule="evenodd" d="M150.804 143.777C152.088 143.77 153.146 144.521 153.331 145.497C153.351 145.397 153.371 145.304 153.364 145.205C153.358 144.082 152.213 143.179 150.797 143.186C149.388 143.192 148.243 144.102 148.25 145.225C148.25 145.324 148.27 145.424 148.29 145.517C148.468 144.541 149.52 143.783 150.804 143.777Z" fill="#482998"/>
<path fill-rule="evenodd" clip-rule="evenodd" d="M145.131 142.21C144.682 142.19 144.331 141.918 144.344 141.599C144.357 141.28 144.728 141.035 145.178 141.054C145.628 141.074 145.978 141.347 145.965 141.665C145.959 141.984 145.581 142.23 145.131 142.21Z" fill="#6650AB"/>
<path fill-rule="evenodd" clip-rule="evenodd" d="M133.118 145.829C132.695 146.001 132.258 145.902 132.139 145.61C132.02 145.317 132.271 144.939 132.695 144.766C133.118 144.594 133.555 144.693 133.674 144.985C133.793 145.284 133.542 145.656 133.118 145.829Z" fill="#6650AB"/>
<path fill-rule="evenodd" clip-rule="evenodd" d="M140.209 141.446C138.84 141.686 137.603 141.161 137.45 140.271C137.292 139.381 138.277 138.458 139.647 138.219C141.017 137.98 142.254 138.505 142.406 139.395C142.558 140.291 141.579 141.207 140.209 141.446Z" fill="#6650AB"/>
<path fill-rule="evenodd" clip-rule="evenodd" d="M142.219 73.3489C142.219 74.6426 141.174 75.6915 139.885 75.6915C138.596 75.6915 137.551 74.6426 137.551 73.3489C137.551 72.0553 138.596 71.0063 139.885 71.0063C141.174 71.0151 142.219 72.064 142.219 73.3489Z" fill="#8279F8"/>
<path fill-rule="evenodd" clip-rule="evenodd" d="M122.768 49.9253C122.768 50.7884 122.072 51.487 121.212 51.487C120.352 51.487 119.656 50.7884 119.656 49.9253C119.656 49.0623 120.352 48.3636 121.212 48.3636C122.065 48.3636 122.768 49.0623 122.768 49.9253Z" fill="#A998D2"/>
<ellipse cx="198.237" cy="151.427" rx="3.11199" ry="3.12341" fill="#8279F8"/>
<path fill-rule="evenodd" clip-rule="evenodd" d="M164.78 128.785C164.78 129.649 164.085 130.346 163.224 130.346C162.362 130.346 161.668 129.649 161.668 128.785C161.668 127.92 162.362 127.223 163.224 127.223C164.079 127.223 164.78 127.92 164.78 128.785Z" fill="#C6C2F9"/>
<ellipse cx="147.665" cy="37.4327" rx="0.777996" ry="0.780851" fill="#C6C2F9"/>
<path fill-rule="evenodd" clip-rule="evenodd" d="M174.992 73.0591C175.005 72.8598 175.158 72.7005 175.363 72.6872C175.766 72.6673 176.15 72.6208 176.507 72.5477C176.15 72.4747 175.766 72.4282 175.363 72.4083C175.164 72.395 175.005 72.2423 174.992 72.0364C174.972 71.6313 174.926 71.2462 174.853 70.8876C174.781 71.2462 174.734 71.6313 174.714 72.0364C174.701 72.2356 174.549 72.395 174.344 72.4083C173.94 72.4282 173.557 72.4747 173.199 72.5477C173.557 72.6208 173.94 72.6673 174.344 72.6872C174.542 72.7005 174.701 72.8532 174.714 73.0591C174.734 73.4641 174.781 73.8493 174.853 74.2079C174.926 73.8427 174.972 73.4575 174.992 73.0591Z" fill="#E8E0FF"/>
<path fill-rule="evenodd" clip-rule="evenodd" d="M135.106 108.227C135.112 108.054 135.251 107.914 135.43 107.901C135.78 107.881 136.111 107.841 136.422 107.782C136.111 107.722 135.774 107.682 135.43 107.662C135.258 107.655 135.119 107.516 135.106 107.337C135.086 106.985 135.046 106.653 134.987 106.341C134.927 106.653 134.887 106.991 134.867 107.337C134.861 107.509 134.722 107.649 134.543 107.662C134.193 107.682 133.862 107.722 133.551 107.782C133.862 107.841 134.199 107.881 134.543 107.901C134.715 107.908 134.854 108.047 134.867 108.227C134.887 108.578 134.927 108.911 134.987 109.223C135.046 108.917 135.086 108.578 135.106 108.227Z" fill="#E8E0FF"/>
<path fill-rule="evenodd" clip-rule="evenodd" d="M190.06 133.963C190.007 133.797 190.086 133.617 190.245 133.544C190.563 133.398 190.86 133.245 191.132 133.073C190.821 133.126 190.49 133.212 190.159 133.318C189.994 133.372 189.815 133.292 189.742 133.133C189.597 132.814 189.444 132.515 189.272 132.243C189.325 132.555 189.411 132.887 189.517 133.219C189.57 133.385 189.491 133.564 189.332 133.637C189.014 133.783 188.717 133.936 188.445 134.109C188.756 134.056 189.087 133.969 189.418 133.863C189.583 133.81 189.762 133.89 189.835 134.049C189.98 134.368 190.132 134.666 190.305 134.939C190.252 134.62 190.172 134.295 190.06 133.963Z" fill="#E8E0FF"/>
<path fill-rule="evenodd" clip-rule="evenodd" d="M132.594 30.7436C132.601 30.5709 132.739 30.4315 132.918 30.4182C133.269 30.3983 133.6 30.3584 133.911 30.2987C133.6 30.2389 133.262 30.1991 132.918 30.1792C132.746 30.1725 132.607 30.0331 132.594 29.8538C132.574 29.5018 132.534 29.1698 132.475 28.8577C132.415 29.1698 132.376 29.5084 132.356 29.8538C132.349 30.0264 132.21 30.1659 132.032 30.1792C131.681 30.1991 131.35 30.2389 131.039 30.2987C131.35 30.3584 131.687 30.3983 132.032 30.4182C132.204 30.4249 132.342 30.5643 132.356 30.7436C132.376 31.0956 132.415 31.4276 132.475 31.7397C132.541 31.4276 132.581 31.0889 132.594 30.7436Z" fill="#E8E0FF"/>
<path opacity="0.7" d="M150.986 92.7667C150.079 92.7667 149.372 92.5367 148.866 92.0767C148.359 91.6167 148.092 90.9334 148.066 90.0267C148.059 89.8334 148.056 89.5501 148.056 89.1767C148.056 88.7967 148.059 88.5101 148.066 88.3167C148.092 87.4301 148.366 86.7501 148.886 86.2767C149.406 85.8034 150.106 85.5667 150.986 85.5667C151.866 85.5667 152.566 85.8034 153.086 86.2767C153.612 86.7501 153.889 87.4301 153.916 88.3167C153.929 88.7034 153.936 88.9901 153.936 89.1767C153.936 89.3567 153.929 89.6401 153.916 90.0267C153.882 90.9334 153.612 91.6167 153.106 92.0767C152.599 92.5367 151.892 92.7667 150.986 92.7667ZM150.986 91.6167C151.432 91.6167 151.789 91.4834 152.056 91.2167C152.322 90.9434 152.466 90.5301 152.486 89.9767C152.499 89.5767 152.506 89.3067 152.506 89.1667C152.506 89.0134 152.499 88.7434 152.486 88.3567C152.466 87.8034 152.322 87.3934 152.056 87.1267C151.789 86.8534 151.432 86.7167 150.986 86.7167C150.546 86.7167 150.192 86.8534 149.926 87.1267C149.659 87.3934 149.516 87.8034 149.496 88.3567C149.489 88.5501 149.486 88.8201 149.486 89.1667C149.486 89.5067 149.489 89.7767 149.496 89.9767C149.516 90.5301 149.656 90.9434 149.916 91.2167C150.182 91.4834 150.539 91.6167 150.986 91.6167ZM157.429 92.7667C156.649 92.7667 156.045 92.5667 155.619 92.1667C155.192 91.7601 154.962 91.2067 154.929 90.5067L154.919 90.0667L154.929 89.6267C154.962 88.9334 155.195 88.3834 155.629 87.9767C156.062 87.5701 156.662 87.3667 157.429 87.3667C158.195 87.3667 158.795 87.5701 159.229 87.9767C159.662 88.3834 159.895 88.9334 159.929 89.6267C159.935 89.7067 159.939 89.8534 159.939 90.0667C159.939 90.2801 159.935 90.4267 159.929 90.5067C159.895 91.2067 159.665 91.7601 159.239 92.1667C158.812 92.5667 158.209 92.7667 157.429 92.7667ZM157.429 91.7767C157.782 91.7767 158.055 91.6667 158.249 91.4467C158.442 91.2201 158.549 90.8901 158.569 90.4567C158.575 90.3901 158.579 90.2601 158.579 90.0667C158.579 89.8734 158.575 89.7434 158.569 89.6767C158.549 89.2434 158.442 88.9167 158.249 88.6967C158.055 88.4701 157.782 88.3567 157.429 88.3567C157.075 88.3567 156.802 88.4701 156.609 88.6967C156.415 88.9167 156.309 89.2434 156.289 89.6767L156.279 90.0667L156.289 90.4567C156.309 90.8901 156.415 91.2201 156.609 91.4467C156.802 91.6667 157.075 91.7767 157.429 91.7767ZM161.297 94.5667C161.23 94.5667 161.173 94.5434 161.127 94.4967C161.08 94.4567 161.057 94.4001 161.057 94.3267V87.7067C161.057 87.6334 161.08 87.5767 161.127 87.5367C161.173 87.4901 161.23 87.4667 161.297 87.4667H162.087C162.16 87.4667 162.217 87.4901 162.257 87.5367C162.303 87.5767 162.327 87.6334 162.327 87.7067V88.1067C162.7 87.6134 163.233 87.3667 163.927 87.3667C164.6 87.3667 165.117 87.5801 165.477 88.0067C165.837 88.4267 166.03 88.9967 166.057 89.7167C166.063 89.7967 166.067 89.9134 166.067 90.0667C166.067 90.2267 166.063 90.3467 166.057 90.4267C166.03 91.1267 165.837 91.6934 165.477 92.1267C165.117 92.5534 164.6 92.7667 163.927 92.7667C163.253 92.7667 162.74 92.5301 162.387 92.0567V94.3267C162.387 94.4001 162.363 94.4567 162.317 94.4967C162.277 94.5434 162.22 94.5667 162.147 94.5667H161.297ZM163.557 91.6967C164.277 91.6967 164.66 91.2534 164.707 90.3667C164.713 90.3001 164.717 90.2001 164.717 90.0667C164.717 89.9334 164.713 89.8334 164.707 89.7667C164.66 88.8801 164.277 88.4367 163.557 88.4367C163.17 88.4367 162.883 88.5601 162.697 88.8067C162.51 89.0534 162.407 89.3567 162.387 89.7167L162.377 90.0967L162.387 90.4867C162.4 90.8201 162.503 91.1067 162.697 91.3467C162.897 91.5801 163.183 91.6967 163.557 91.6967ZM169.159 92.7667C168.659 92.7667 168.239 92.6934 167.899 92.5467C167.559 92.3934 167.306 92.2167 167.139 92.0167C166.979 91.8101 166.899 91.6334 166.899 91.4867C166.899 91.4201 166.923 91.3667 166.969 91.3267C167.016 91.2867 167.069 91.2667 167.129 91.2667H167.919C167.979 91.2667 168.029 91.2901 168.069 91.3367C168.096 91.3567 168.166 91.4167 168.279 91.5167C168.393 91.6234 168.526 91.7067 168.679 91.7667C168.833 91.8267 169.003 91.8567 169.189 91.8567C169.456 91.8567 169.676 91.8034 169.849 91.6967C170.023 91.5901 170.109 91.4434 170.109 91.2567C170.109 91.1167 170.069 91.0034 169.989 90.9167C169.916 90.8301 169.779 90.7534 169.579 90.6867C169.379 90.6134 169.083 90.5367 168.689 90.4567C168.123 90.3367 167.703 90.1534 167.429 89.9067C167.163 89.6601 167.029 89.3334 167.029 88.9267C167.029 88.6601 167.109 88.4101 167.269 88.1767C167.429 87.9367 167.666 87.7434 167.979 87.5967C168.299 87.4434 168.679 87.3667 169.119 87.3667C169.566 87.3667 169.953 87.4401 170.279 87.5867C170.606 87.7267 170.853 87.8967 171.019 88.0967C171.193 88.2901 171.279 88.4634 171.279 88.6167C171.279 88.6767 171.256 88.7301 171.209 88.7767C171.169 88.8167 171.119 88.8367 171.059 88.8367H170.319C170.266 88.8367 170.209 88.8134 170.149 88.7667C170.103 88.7334 170.029 88.6701 169.929 88.5767C169.829 88.4834 169.713 88.4101 169.579 88.3567C169.446 88.3034 169.289 88.2767 169.109 88.2767C168.863 88.2767 168.669 88.3301 168.529 88.4367C168.396 88.5434 168.329 88.6834 168.329 88.8567C168.329 88.9834 168.363 89.0867 168.429 89.1667C168.496 89.2467 168.626 89.3234 168.819 89.3967C169.013 89.4701 169.303 89.5434 169.689 89.6167C170.329 89.7434 170.786 89.9401 171.059 90.2067C171.339 90.4734 171.479 90.8001 171.479 91.1867C171.479 91.6534 171.276 92.0334 170.869 92.3267C170.463 92.6201 169.893 92.7667 169.159 92.7667ZM172.782 90.7267C172.715 90.7267 172.658 90.7034 172.612 90.6567C172.565 90.6101 172.542 90.5534 172.542 90.4867V85.9067C172.542 85.8401 172.565 85.7834 172.612 85.7367C172.658 85.6901 172.715 85.6667 172.782 85.6667H173.592C173.665 85.6667 173.722 85.6901 173.762 85.7367C173.808 85.7767 173.832 85.8334 173.832 85.9067V90.4867C173.832 90.5534 173.808 90.6101 173.762 90.6567C173.722 90.7034 173.665 90.7267 173.592 90.7267H172.782ZM172.722 92.6667C172.655 92.6667 172.598 92.6434 172.552 92.5967C172.505 92.5501 172.482 92.4934 172.482 92.4267V91.4967C172.482 91.4234 172.505 91.3634 172.552 91.3167C172.598 91.2701 172.655 91.2467 172.722 91.2467H173.652C173.725 91.2467 173.785 91.2701 173.832 91.3167C173.878 91.3634 173.902 91.4234 173.902 91.4967V92.4267C173.902 92.4934 173.878 92.5501 173.832 92.5967C173.785 92.6434 173.725 92.6667 173.652 92.6667H172.722Z" fill="#F6F2FF"/>
</g>
</g>
<path fill-rule="evenodd" clip-rule="evenodd" d="M108.848 11.6667V156.761H118.657V21.0252H202.181V156.761H211.984V11.6667H108.848Z" fill="#DFD8EF"/>
<path fill-rule="evenodd" clip-rule="evenodd" d="M111.191 13.2616V156.762H120.553V22.9326H200.278V156.762H209.64V13.2616H111.191Z" fill="#8279F8"/>
<path fill-rule="evenodd" clip-rule="evenodd" d="M116.66 156.762H121.939V22.9931H199.672V156.762H204.17V19.6399H116.66V156.762Z" fill="#6650AB"/>
<path fill-rule="evenodd" clip-rule="evenodd" d="M93.2189 96.1721C92.3587 96.1721 91.6562 95.6848 91.6562 95.0881V84.5005C91.6562 83.9037 92.3587 83.4165 93.2189 83.4165C94.0791 83.4165 94.7815 83.9037 94.7815 84.5005V95.0881C94.7894 95.6848 94.087 96.1721 93.2189 96.1721Z" fill="#DFD8EF"/>
<path fill-rule="evenodd" clip-rule="evenodd" d="M97.1258 91.3896H91.3387C90.6484 91.3896 90.0938 90.6791 90.0938 89.795C90.0938 88.9109 90.6484 88.2004 91.3387 88.2004H97.1258V91.3896Z" fill="#675AF6"/>
<path fill-rule="evenodd" clip-rule="evenodd" d="M100.25 166.328L119.002 156.717V22.8727L100.25 13.2616V166.328Z" fill="#8279F8"/>
<path fill-rule="evenodd" clip-rule="evenodd" d="M116.658 87.4035L102.594 87.1632V18.8424L116.658 25.7713V87.4035Z" fill="#DFD8EF"/>
<path fill-rule="evenodd" clip-rule="evenodd" d="M116.658 153.103L102.594 159.95V91.6332L116.658 91.3889V153.103Z" fill="#DFD8EF"/>
<path fill-rule="evenodd" clip-rule="evenodd" d="M97.125 165.105L100.25 166.328V13.2616L97.125 14.4847V165.105Z" fill="#DFD8EF"/>
<path fill-rule="evenodd" clip-rule="evenodd" d="M285.424 104.028L256.349 115.745C252.267 117.39 250.28 122.024 251.903 126.115L251.944 126.218C251.944 126.218 261.74 149.097 262.266 151.962C262.791 154.826 258.324 158.674 258.324 158.674L288.157 146.907C291.896 145.432 293.631 141.122 291.974 137.461C288.115 128.939 281.908 115.016 281.22 112.144C280.214 107.942 285.424 104.028 285.424 104.028Z" fill="white"/>
<path fill-rule="evenodd" clip-rule="evenodd" d="M271.397 134.76L273.434 134.016L273.148 133.227C273.011 132.851 272.922 132.526 272.88 132.251C272.838 131.977 272.836 131.714 272.876 131.461C272.915 131.208 272.999 130.943 273.128 130.666C273.256 130.389 273.419 130.07 273.615 129.709C273.82 129.328 274.007 128.961 274.174 128.611C274.341 128.26 274.462 127.905 274.536 127.546C274.611 127.187 274.633 126.808 274.603 126.41C274.573 126.012 274.471 125.573 274.297 125.091C274.051 124.415 273.719 123.859 273.299 123.425C272.88 122.99 272.404 122.67 271.871 122.465C271.338 122.259 270.776 122.162 270.183 122.174C269.59 122.187 268.99 122.303 268.383 122.525C267.776 122.747 267.24 123.049 266.773 123.433C266.307 123.816 265.933 124.263 265.652 124.775C265.371 125.286 265.187 125.851 265.101 126.47C265.015 127.09 265.045 127.738 265.193 128.417L267.364 127.905C267.185 127.187 267.226 126.508 267.485 125.868C267.743 125.228 268.234 124.777 268.957 124.513C269.65 124.259 270.295 124.267 270.891 124.534C271.487 124.802 271.916 125.297 272.178 126.019C272.369 126.545 272.421 127.016 272.334 127.43C272.248 127.845 272.097 128.254 271.883 128.656L271.367 129.738C271.209 130.069 271.074 130.386 270.964 130.69C270.853 130.995 270.776 131.3 270.731 131.606C270.687 131.911 270.686 132.235 270.728 132.578C270.77 132.92 270.862 133.286 271.004 133.678L271.397 134.76ZM275.094 138.186C275.26 137.785 275.271 137.389 275.13 136.998C274.982 136.592 274.72 136.296 274.341 136.111C273.963 135.925 273.565 135.909 273.146 136.062C272.727 136.215 272.433 136.488 272.265 136.882C272.097 137.275 272.086 137.675 272.233 138.081C272.375 138.472 272.64 138.763 273.028 138.953C273.416 139.144 273.813 139.165 274.217 139.017C274.636 138.864 274.929 138.587 275.094 138.186Z" fill="#E6E5F4"/>
<defs>
<clipPath id="clip0">
<rect width="103.656" height="142.917" fill="white" transform="translate(108.766 11.6667)"/>
</clipPath>
</defs>
</svg>
