<svg width="334" height="189" viewBox="0 0 334 189" fill="none" xmlns="http://www.w3.org/2000/svg">
<path d="M327.349 102.966C327.288 102.694 327.23 102.422 327.163 102.152C325.055 92.9027 321.61 83.9894 316.487 75.8038C316.317 75.5317 316.147 75.2595 315.973 74.9874C312.595 69.7208 308.554 64.8669 303.938 60.5334C301.387 58.1361 298.604 55.8581 295.294 54.2161C290.656 51.9106 285.235 50.9749 279.907 50.2105C274.373 49.4124 268.762 48.7458 263.167 48.0272C261.179 47.7765 259.202 47.5105 257.238 47.2292C251.833 46.4678 246.466 45.5871 241.228 44.4191C234.752 42.9789 228.476 41.0923 222.547 38.4381C222.073 38.2343 221.605 38.0182 221.142 37.7899C220.68 37.5697 220.214 37.3465 219.757 37.1202C219.301 36.894 218.851 36.6677 218.404 36.4353C218.173 36.3161 217.942 36.1968 217.714 36.0714C217.485 35.9461 217.26 35.836 217.039 35.7137C216.37 35.359 215.715 34.9951 215.059 34.6282L215.033 34.6129C214.6 34.3713 214.172 34.1236 213.748 33.876C211.325 32.4755 208.953 31.0139 206.582 29.5431L205.09 28.6258L202.78 27.204C202.33 26.9257 201.87 26.6474 201.417 26.3722C201.096 26.1704 200.775 25.9686 200.424 25.7607C198.74 24.7516 197.034 23.7609 195.283 22.8161C194.868 22.5898 194.45 22.3635 194.029 22.1434C190.491 20.265 186.79 18.6774 182.968 17.3978L182.917 17.3794C180.994 16.7411 179.032 16.2142 177.042 15.8016C175.895 15.5631 174.744 15.3674 173.581 15.2176C170.471 14.7981 167.318 14.7559 164.197 15.0922C158.069 15.768 152.326 18.0063 146.201 18.7615C133.591 20.2904 121.344 15.3644 109.485 11.5055C106.57 10.5576 103.632 9.66982 100.674 8.84218C98.7069 8.28873 96.7337 7.76585 94.7445 7.26134C82.5571 4.19751 70.1187 2.12202 57.5629 1.05716C52.3143 0.56778 47.0343 0.45636 41.768 0.723862C39.7659 0.840057 37.7863 1.02963 35.8421 1.33542C29.1899 2.31389 22.9876 4.36565 17.9808 8.12361C13.8802 11.2089 10.9462 15.2298 8.71272 19.4373C6.42641 23.7305 4.81216 28.3188 3.92122 33.0565C3.7991 33.7017 3.68984 34.3499 3.59986 34.9982C3.43918 36.1071 3.3192 37.2222 3.23993 38.3433C2.80753 44.3194 3.5575 50.3196 5.4509 56.0324C7.57189 62.4292 11.1069 68.5692 12.6623 75.0149C12.7265 75.2881 12.7876 75.5602 12.8454 75.8313C13.0579 76.8103 13.2156 77.7994 13.3178 78.7943C14.1116 86.7139 11.0683 94.4347 8.68059 102.18C8.59703 102.449 8.51348 102.721 8.43314 102.993C8.17605 103.854 7.92967 104.713 7.69401 105.571C5.48304 113.76 4.86924 122.526 6.83918 130.7C6.90024 130.972 6.97415 131.244 7.04485 131.513C8.36367 136.679 10.8437 141.513 14.3141 145.679C18.0033 150.083 22.8462 153.749 28.0201 156.969C30.5418 158.538 33.1491 160.005 35.8421 161.369C37.7703 162.347 39.7456 163.274 41.768 164.148C57.9807 171.181 76.4751 174.615 94.7638 173.857C95.7279 173.817 96.6919 173.768 97.656 173.701C98.6201 173.633 99.6742 173.554 100.683 173.465C112.464 172.377 123.927 169.75 135.31 166.879C139.125 165.916 142.933 164.928 146.738 163.959C148.431 163.531 150.122 163.103 151.815 162.687C160.109 160.647 168.526 158.8 177.048 157.421C179.022 157.097 180.997 156.802 182.974 156.534C189.84 155.574 196.761 155.016 203.699 154.862C206.396 154.811 209.095 154.833 211.794 154.929C213.157 154.976 214.52 155.046 215.885 155.14C229.977 156.085 243.596 159.247 257.238 162.201C259.211 162.629 261.187 163.051 263.167 163.466C265.764 164.011 268.36 164.537 270.97 165.023C287.208 168.059 301.682 166.313 316.78 160.048C320.212 158.626 323.641 156.908 325.743 154.238C327.844 151.569 328.371 148.291 328.763 145.126C329.319 140.619 329.682 136.054 329.821 131.464C329.821 131.195 329.821 130.923 329.84 130.651C330.058 121.38 329.332 112.02 327.349 102.966Z" fill="#F6F2FF"/>
<path d="M108.325 69.7303C111.601 38.824 287.398 -20.8285 320.034 8.44535C352.67 37.7192 321.295 92.6586 252.902 106.727C184.508 120.796 105.048 100.637 108.325 69.7303Z" fill="#E8E0FF"/>
<path d="M124.944 141.109C127.876 115.645 285.196 66.4974 314.402 90.6163C343.608 114.735 336.215 165.467 275.011 177.058C213.806 188.649 122.011 166.573 124.944 141.109Z" fill="#F6F2FF"/>
<path d="M208.056 141.109C205.124 115.645 47.8039 66.4974 18.5979 90.6163C-10.6081 114.735 -3.2155 165.467 57.9895 177.058C119.194 188.649 210.989 166.573 208.056 141.109Z" fill="#F6F2FF"/>
<ellipse opacity="0.5" cx="166.5" cy="181.271" rx="156.094" ry="7.31111" fill="#FAFCFF"/>
<ellipse cx="50.9922" cy="181.271" rx="20.8125" ry="4.17778" fill="#E6E5F4"/>
<ellipse cx="294.498" cy="181.271" rx="21.8531" ry="4.17778" fill="#E6E5F4"/>
<path d="M43.3399 82.1163C44.453 81.9798 45.641 82.028 46.6761 82.469C48.8772 83.4068 49.5029 86.0167 49.4727 88.138C49.4402 90.4212 48.9571 92.9151 50.6866 94.7547C51.4817 95.6005 52.4706 96.2478 53.2513 97.1091C54.0855 98.0295 54.74 99.0826 55.2246 100.214C56.1144 102.291 56.5512 104.734 55.7375 106.913C55.021 108.831 53.2185 110.563 53.608 112.744C54.0143 115.02 56.3003 116.76 57.7296 118.455C59.3471 120.373 60.8363 122.825 61.081 125.341C61.3156 127.752 60.27 130.19 58.6654 132.012C55.4593 135.654 50.64 137.439 45.7808 137.428C43.7176 137.423 41.3818 137.33 39.6014 136.217C39.0511 135.873 38.7608 135.487 38.4337 134.951C38.1404 134.47 37.7529 134.157 37.3045 133.816C36.3192 133.069 35.6077 132.061 35.1536 130.933C33.3904 126.553 34.7997 121.133 37.2679 117.243C37.8527 116.321 38.3316 115.434 38.0474 114.336C37.7509 113.189 37.0222 112.155 36.3777 111.169C35.7408 110.195 35.0137 109.265 34.5159 108.212C33.9945 107.109 33.8477 105.953 33.9398 104.746C34.1129 102.477 35.0886 100.384 36.4699 98.5595C37.8004 96.8022 39.3626 95.1208 39.3661 92.8183C39.37 90.378 37.7445 88.2071 38.4369 85.7261C38.7237 84.6987 39.2996 83.6446 40.2277 83.0287C41.1178 82.438 42.2931 82.2447 43.3399 82.1163Z" fill="#DFD8EF"/>
<path d="M42.6128 86.0174C42.6337 85.6896 43.0211 85.4931 43.326 85.5786C43.7274 85.6912 43.7196 86.0676 43.7091 86.403C43.6766 87.4338 43.8252 88.4356 44.0721 89.4357C44.5852 91.5152 45.5335 93.4311 46.2848 95.4285C47.0355 97.4244 47.3878 99.485 46.9475 101.597C46.5323 103.588 45.8802 105.528 45.4553 107.521C45.0809 109.278 44.6824 111.132 45.2527 112.884C45.8014 114.571 47.0146 115.945 47.8881 117.47C49.6966 120.626 50.4989 124.127 50.6062 127.731C50.6559 129.404 50.6111 131.092 50.2244 132.733C50.0018 133.678 49.7027 134.955 48.8959 135.608C48.5239 135.909 47.8876 136.013 47.5745 135.567C47.2805 135.149 47.5384 134.502 47.6317 134.057C48.0359 132.129 48.1172 130.159 48.0204 128.201C47.9268 126.305 47.7036 124.412 47.109 122.601C46.5571 120.92 45.7187 119.411 44.7319 117.941C43.7265 116.443 42.6812 114.941 42.2657 113.166C41.8436 111.363 42.1865 109.528 42.6451 107.76C43.13 105.889 43.7652 104.072 44.4218 102.252C45.0618 100.479 45.2886 98.801 44.9353 96.9449C44.2374 93.278 42.3695 89.8361 42.6128 86.0174Z" fill="#E8E0FF"/>
<path fill-rule="evenodd" clip-rule="evenodd" d="M72.728 86.5653C74.1054 86.9851 75.4734 87.6624 76.4553 88.7243C78.5431 90.9827 77.9025 94.3959 76.75 96.8888C75.5094 99.5721 73.6294 102.269 74.6892 105.348C75.1763 106.763 75.9954 108.045 76.4575 109.471C76.9511 110.995 77.1642 112.582 77.1371 114.173C77.0868 117.094 76.3126 120.211 74.2107 122.363C72.36 124.258 69.3339 125.365 68.6419 128.148C67.9199 131.052 69.685 134.303 70.4686 137.054C71.3556 140.167 71.8112 143.844 70.7733 146.947C69.7788 149.92 67.2684 152.258 64.4266 153.575C58.7484 156.208 52.1558 155.803 46.4622 153.253C44.0449 152.17 41.3544 150.84 39.8521 148.594C39.3878 147.9 39.2506 147.292 39.1494 146.487C39.0587 145.765 38.769 145.193 38.4223 144.556C37.6604 143.157 37.3565 141.594 37.4178 140.023C37.6567 133.922 42.1637 128.248 47.1074 124.937C48.2787 124.152 49.3074 123.353 49.5527 121.906C49.8088 120.395 49.4988 118.791 49.2619 117.289C49.028 115.804 48.6646 114.325 48.6354 112.82C48.605 111.242 49.0413 109.799 49.7853 108.419C51.183 105.827 53.4298 103.861 56.0107 102.424C58.4967 101.041 61.2144 99.8681 62.4311 97.1469C63.7208 94.2629 62.9575 90.8469 65.0763 88.2743C65.9536 87.209 67.1842 86.2631 68.5972 86.0193C69.9523 85.7855 71.4326 86.1705 72.728 86.5653Z" fill="#E8E0FF"/>
<path d="M69.9138 91.3348C70.1092 90.9576 70.6647 90.9286 70.9766 91.1903C71.3872 91.5348 71.1817 91.9765 70.9944 92.3681C70.4185 93.5717 70.0696 94.8363 69.8364 96.1506C69.3513 98.883 69.4604 101.651 69.2966 104.411C69.1329 107.17 68.4697 109.795 66.8528 112.065C65.3283 114.204 63.5537 116.158 62.0166 118.296C60.6618 120.18 59.2289 122.165 58.9811 124.54C58.7424 126.827 59.444 129.092 59.6699 131.357C60.1376 136.046 59.2487 140.615 57.494 144.938C56.6791 146.946 55.7456 148.922 54.4371 150.662C53.6837 151.664 52.6676 153.019 51.3838 153.367C50.7918 153.527 49.9935 153.316 49.8599 152.623C49.7342 151.974 50.3733 151.344 50.7148 150.865C52.1934 148.795 53.3166 146.504 54.225 144.135C55.1049 141.84 55.8317 139.481 56.0814 137.024C56.313 134.743 56.1204 132.514 55.7337 130.254C55.3398 127.951 54.9009 125.623 55.3415 123.302C55.7887 120.945 57.147 118.953 58.606 117.1C60.1491 115.14 61.84 113.322 63.5575 111.512C65.2311 109.749 66.3719 107.881 66.9274 105.497C68.0248 100.788 67.6365 95.729 69.9138 91.3348Z" fill="#DFD8EF"/>
<path fill-rule="evenodd" clip-rule="evenodd" d="M30.1468 103.889C32.4372 103.889 34.4508 105.107 35.8382 106.836C37.4624 108.86 37.7904 111.332 38.45 113.745C38.7781 114.945 39.3426 116.137 40.3317 116.953C41.2314 117.694 42.3736 117.843 43.4504 118.205C45.6026 118.93 47.3405 120.674 48.0268 122.803C48.8641 125.4 47.9772 128.019 48.1299 130.651C48.2701 133.068 50.6444 134.575 52.5547 135.734C54.4383 136.877 56.1353 137.946 56.7026 140.172C57.3042 142.532 57.5061 145.167 56.6728 147.499C55.2854 151.382 51.2253 153.091 47.3021 153.356C43.7417 153.597 39.2649 153.219 36.5911 150.625C34.9911 149.073 34.4117 146.902 34.4836 144.742C34.5283 143.399 34.7933 142.069 35.1361 140.771C35.379 139.851 35.7071 138.935 35.8006 137.985C36.0491 135.456 33.7203 134.97 31.738 134.276C29.2191 133.393 27.4556 131.726 26.2293 129.404C25.0873 127.242 24.6081 124.815 25.2927 122.435C25.6424 121.219 26.2766 120.116 27.1366 119.178C27.5152 118.765 28.0488 118.421 28.3906 117.987C28.7095 117.582 28.6401 117.057 28.5301 116.583C28.0219 114.391 26.4383 112.577 25.872 110.389C25.3607 108.415 25.663 105.957 27.4616 104.683C28.2387 104.133 29.197 103.895 30.1468 103.889Z" fill="#E6E5F4"/>
<path fill-rule="evenodd" clip-rule="evenodd" d="M33.2657 109.598C35.6932 112.193 36.353 115.714 36.5466 119.127C36.6551 121.041 36.5422 123.06 37.1024 124.916C37.5818 126.505 38.7055 127.719 39.8638 128.867C42.1954 131.178 44.7957 133.527 45.4777 136.871C45.8778 138.833 45.6077 140.861 46.1606 142.801C46.6634 144.566 47.5486 146.299 48.6253 147.789C49.4922 148.988 50.6216 149.907 51.5693 151.025C51.8584 151.367 52.2726 151.869 52.1532 152.351C52.0136 152.915 51.2973 153.094 50.7891 153.005C49.6042 152.799 48.6069 151.663 47.8321 150.838C46.6993 149.631 45.7366 148.332 44.9542 146.876C44.0855 145.258 43.3861 143.542 43.0873 141.727C42.7772 139.845 42.9315 137.883 42.2234 136.076C41.0318 133.036 38.1415 131.242 36.0519 128.872C33.4483 125.92 33.8366 122.245 34.1033 118.614C34.2498 116.618 34.3954 114.364 33.3906 112.541C33.007 111.846 32.1518 111.197 31.9869 110.407C31.8358 109.682 32.6603 108.95 33.2657 109.598Z" fill="#DFD8EF"/>
<path fill-rule="evenodd" clip-rule="evenodd" d="M35.8555 152.248C35.8556 167.091 38.269 174.868 51.0096 174.868C63.7503 174.868 66.1637 167.091 66.1638 152.248H35.8555Z" fill="#C6C2F9"/>
<ellipse cx="179.514" cy="171.646" rx="81.0647" ry="9.22664" fill="#E8E0FF"/>
<g clip-path="url(#clip0)">
<rect x="116.836" y="13.1152" width="110.315" height="152.659" fill="#482998"/>
<mask id="mask0" mask-type="alpha" maskUnits="userSpaceOnUse" x="116" y="13" width="112" height="153">
<rect x="116.836" y="13.1152" width="110.315" height="152.659" fill="white"/>
</mask>
<g mask="url(#mask0)">
<path opacity="0.64" d="M209.064 101.992L205.418 105.651C205.283 105.787 205.07 105.787 204.935 105.651C204.8 105.516 204.8 105.302 204.935 105.166L206.868 103.226C207.003 103.09 207.003 102.869 206.868 102.727C206.733 102.591 206.513 102.591 206.37 102.727L203.549 105.558C203.414 105.694 203.201 105.694 203.066 105.558C202.93 105.423 202.93 105.209 203.066 105.073L205.162 102.969C205.297 102.834 205.297 102.605 205.162 102.47C205.027 102.334 204.8 102.334 204.665 102.47L194.814 112.357L194.828 112.371C193.52 113.683 193.577 115.838 194.985 117.086C196.271 118.22 198.24 118.077 199.455 116.858L210.692 105.58C210.876 105.394 210.876 105.095 210.692 104.902C210.507 104.717 210.208 104.717 210.016 104.902L207.635 107.292C207.5 107.427 207.287 107.427 207.152 107.292C207.017 107.156 207.017 106.942 207.152 106.807L208.766 105.188C208.915 105.038 208.915 104.788 208.766 104.638C208.616 104.488 208.368 104.488 208.218 104.638L205.553 107.313C205.418 107.449 205.205 107.449 205.07 107.313C204.935 107.178 204.935 106.964 205.07 106.828L209.483 102.398C209.597 102.284 209.597 102.099 209.483 101.985C209.355 101.878 209.171 101.878 209.064 101.992Z" fill="#A38CEB"/>
<path d="M198.8 112.941C199.745 113.89 199.745 115.423 198.8 116.365C197.855 117.314 196.327 117.314 195.389 116.365C194.443 115.416 194.443 113.883 195.389 112.941C196.327 111.992 197.855 111.992 198.8 112.941Z" fill="#F6F2FF"/>
<ellipse cx="197.901" cy="43.7313" rx="21.7287" ry="26.4218" fill="#9D95F8"/>
<ellipse cx="197.901" cy="43.7313" rx="21.7287" ry="26.4218" fill="#8279F8"/>
<path fill-rule="evenodd" clip-rule="evenodd" d="M199.891 57.6363C200.893 58.9274 200.886 60.6252 199.863 61.4241C198.846 62.223 197.205 61.8164 196.202 60.5253C195.2 59.2342 195.207 57.5365 196.231 56.7375C197.247 55.9457 198.882 56.3452 199.891 57.6363Z" fill="#6650AB"/>
<path fill-rule="evenodd" clip-rule="evenodd" d="M196.737 60.1045C195.82 58.9275 195.763 57.4224 196.524 56.5664C196.424 56.6163 196.317 56.6663 196.232 56.7447C195.216 57.5437 195.202 59.2343 196.204 60.5325C197.206 61.8237 198.848 62.2303 199.864 61.4313C199.956 61.36 200.027 61.2744 200.106 61.1888C199.082 61.7095 197.646 61.2815 196.737 60.1045Z" fill="#482998"/>
<path fill-rule="evenodd" clip-rule="evenodd" d="M205.199 62.4941C206.109 63.0933 206.471 64.1562 206.002 64.8838C205.533 65.6043 204.41 65.7113 203.501 65.1121C202.591 64.5129 202.228 63.45 202.698 62.7224C203.167 62.0019 204.29 61.9021 205.199 62.4941Z" fill="#6650AB"/>
<path fill-rule="evenodd" clip-rule="evenodd" d="M203.743 64.7336C202.911 64.1914 202.549 63.257 202.84 62.5508C202.791 62.6078 202.734 62.6578 202.691 62.722C202.222 63.4424 202.577 64.5124 203.494 65.1116C204.404 65.7108 205.527 65.6038 205.996 64.8834C206.039 64.8192 206.067 64.7478 206.095 64.6765C205.569 65.2329 204.574 65.2757 203.743 64.7336Z" fill="#482998"/>
<ellipse rx="1.13166" ry="1.43189" transform="matrix(0.788779 -0.614677 0.611874 0.790955 187.956 52.2914)" fill="#6650AB"/>
<path fill-rule="evenodd" clip-rule="evenodd" d="M187.313 52.7784C186.873 52.2077 186.844 51.4801 187.214 51.0664C187.164 51.0949 187.114 51.1163 187.072 51.152C186.581 51.5372 186.574 52.3575 187.057 52.9853C187.541 53.613 188.337 53.8056 188.827 53.4204C188.87 53.3847 188.905 53.3419 188.941 53.3063C188.45 53.5559 187.754 53.3491 187.313 52.7784Z" fill="#482998"/>
<path fill-rule="evenodd" clip-rule="evenodd" d="M193.745 46.343C194.619 47.5842 194.534 49.1535 193.56 49.8526C192.58 50.5445 191.08 50.1023 190.206 48.8611C189.332 47.6199 189.417 46.0505 190.391 45.3515C191.364 44.6524 192.871 45.1018 193.745 46.343Z" fill="#6650AB"/>
<path fill-rule="evenodd" clip-rule="evenodd" d="M190.712 48.4968C189.916 47.3626 189.923 45.9716 190.662 45.2012C190.57 45.244 190.471 45.2868 190.385 45.351C189.404 46.0429 189.326 47.6194 190.2 48.8606C191.075 50.1018 192.581 50.5512 193.555 49.8521C193.64 49.7879 193.719 49.7094 193.79 49.6381C192.823 50.0875 191.515 49.6238 190.712 48.4968Z" fill="#482998"/>
<path fill-rule="evenodd" clip-rule="evenodd" d="M191.862 58.4443C192.921 59.5072 193.219 60.9196 192.53 61.6044C191.847 62.2892 190.433 61.9896 189.381 60.9338C188.329 59.871 188.024 58.4586 188.713 57.7738C189.395 57.089 190.803 57.3886 191.862 58.4443Z" fill="#6650AB"/>
<path fill-rule="evenodd" clip-rule="evenodd" d="M184.48 51.1125C184.743 51.5191 184.715 52.0041 184.43 52.1896C184.146 52.3751 183.698 52.1967 183.435 51.7901C183.172 51.3835 183.201 50.8985 183.485 50.713C183.776 50.5275 184.217 50.7059 184.48 51.1125Z" fill="#6650AB"/>
<path fill-rule="evenodd" clip-rule="evenodd" d="M196.726 63.6879C197.138 63.9589 197.323 64.4083 197.138 64.6865C196.954 64.9719 196.47 64.9861 196.058 64.7151C195.646 64.444 195.461 63.9946 195.646 63.7164C195.831 63.4311 196.314 63.4168 196.726 63.6879Z" fill="#6650AB"/>
<path fill-rule="evenodd" clip-rule="evenodd" d="M208.817 52.1366C210.818 51.5218 212.776 50.8876 214.683 50.2391C211.891 54.7529 206.961 58.5738 200.755 60.4823C193.342 62.762 185.92 61.7555 180.862 58.3606C188.497 57.4846 198.318 55.3621 208.817 52.1366ZM203.699 35.3264C207.041 34.2995 210.315 33.3844 213.471 32.5858C208.627 27.4897 199.781 25.5403 190.948 28.2567C180.948 31.3318 174.263 39.3723 174.493 47.2756C181.435 43.3132 191.813 38.9779 203.699 35.3264Z" fill="#675AF6"/>
<path fill-rule="evenodd" clip-rule="evenodd" d="M179.514 165.775C177.667 160.53 174.257 155.784 169.39 152.344C156.953 143.553 139.804 146.6 131.088 159.152C129.631 161.25 128.513 163.477 127.699 165.775H179.514Z" fill="#9D95F8"/>
<path fill-rule="evenodd" clip-rule="evenodd" d="M129.722 165.775C130.373 164.39 131.13 163.041 132.028 161.75C140.743 149.205 157.89 146.15 170.325 154.942C174.371 157.804 177.406 161.571 179.372 165.775H179.514C177.668 160.53 174.251 155.784 169.384 152.344C156.949 143.553 139.802 146.6 131.088 159.152C129.63 161.25 128.506 163.477 127.699 165.775H129.722Z" fill="#8279F8"/>
<path fill-rule="evenodd" clip-rule="evenodd" d="M150.159 158.985C148.524 159.07 147.152 158.086 147.088 156.795C147.024 155.504 148.289 154.384 149.924 154.298C151.559 154.213 152.93 155.197 152.994 156.495C153.058 157.786 151.786 158.899 150.159 158.985Z" fill="#6650AB"/>
<path fill-rule="evenodd" clip-rule="evenodd" d="M149.952 154.975C151.438 154.897 152.696 155.71 152.966 156.83C152.98 156.716 152.994 156.602 152.994 156.488C152.93 155.196 151.552 154.212 149.924 154.291C148.289 154.376 147.024 155.489 147.088 156.787C147.095 156.901 147.124 157.015 147.145 157.122C147.294 155.988 148.467 155.054 149.952 154.975Z" fill="#482998"/>
<path fill-rule="evenodd" clip-rule="evenodd" d="M141.707 162.629C140.698 163.036 139.617 162.715 139.298 161.916C138.978 161.117 139.532 160.133 140.541 159.726C141.551 159.319 142.631 159.64 142.951 160.439C143.27 161.238 142.716 162.216 141.707 162.629Z" fill="#6650AB"/>
<path fill-rule="evenodd" clip-rule="evenodd" d="M140.711 160.147C141.627 159.776 142.601 160.011 143.006 160.661C142.992 160.589 142.978 160.511 142.949 160.439C142.63 159.64 141.549 159.319 140.54 159.726C139.531 160.133 138.969 161.11 139.296 161.916C139.325 161.987 139.367 162.052 139.41 162.116C139.254 161.36 139.794 160.518 140.711 160.147Z" fill="#482998"/>
<path fill-rule="evenodd" clip-rule="evenodd" d="M148.424 164.705C147.635 164.741 146.967 164.27 146.938 163.642C146.91 163.014 147.521 162.479 148.31 162.436C149.099 162.401 149.767 162.872 149.796 163.499C149.824 164.127 149.213 164.669 148.424 164.705Z" fill="#6650AB"/>
<path fill-rule="evenodd" clip-rule="evenodd" d="M148.325 162.765C149.043 162.73 149.654 163.122 149.782 163.664C149.789 163.607 149.796 163.557 149.796 163.5C149.768 162.872 149.1 162.394 148.311 162.437C147.522 162.473 146.903 163.015 146.939 163.643C146.939 163.7 146.953 163.75 146.967 163.807C147.038 163.258 147.607 162.801 148.325 162.765Z" fill="#482998"/>
<path fill-rule="evenodd" clip-rule="evenodd" d="M162.008 158.763C160.494 158.77 159.257 157.8 159.25 156.594C159.243 155.389 160.472 154.411 161.986 154.404C163.5 154.397 164.737 155.367 164.744 156.573C164.751 157.778 163.529 158.756 162.008 158.763Z" fill="#6650AB"/>
<path fill-rule="evenodd" clip-rule="evenodd" d="M161.993 155.039C163.372 155.032 164.509 155.838 164.708 156.887C164.73 156.78 164.751 156.68 164.744 156.573C164.737 155.367 163.507 154.397 161.986 154.404C160.472 154.411 159.243 155.389 159.25 156.594C159.25 156.701 159.271 156.808 159.293 156.908C159.485 155.86 160.615 155.046 161.993 155.039Z" fill="#482998"/>
<path fill-rule="evenodd" clip-rule="evenodd" d="M155.901 153.356C155.418 153.334 155.041 153.042 155.055 152.699C155.069 152.357 155.467 152.093 155.951 152.114C156.434 152.136 156.811 152.428 156.796 152.771C156.789 153.113 156.384 153.377 155.901 153.356Z" fill="#6650AB"/>
<path fill-rule="evenodd" clip-rule="evenodd" d="M142.994 157.244C142.539 157.43 142.07 157.323 141.942 157.009C141.814 156.695 142.084 156.288 142.539 156.103C142.994 155.917 143.463 156.024 143.591 156.338C143.719 156.659 143.449 157.059 142.994 157.244Z" fill="#6650AB"/>
<path fill-rule="evenodd" clip-rule="evenodd" d="M150.615 152.536C149.143 152.792 147.814 152.229 147.651 151.273C147.48 150.317 148.539 149.326 150.01 149.069C151.482 148.812 152.811 149.376 152.974 150.331C153.138 151.294 152.086 152.279 150.615 152.536Z" fill="#6650AB"/>
<path fill-rule="evenodd" clip-rule="evenodd" d="M152.772 79.3796C152.772 80.7693 151.65 81.896 150.265 81.896C148.88 81.896 147.758 80.7693 147.758 79.3796C147.758 77.99 148.88 76.8633 150.265 76.8633C151.65 76.8727 152.772 77.9994 152.772 79.3796Z" fill="#8279F8"/>
<path fill-rule="evenodd" clip-rule="evenodd" d="M131.878 54.2157C131.878 55.1427 131.13 55.8932 130.207 55.8932C129.283 55.8932 128.535 55.1427 128.535 54.2157C128.535 53.2886 129.283 52.5381 130.207 52.5381C131.123 52.5381 131.878 53.2886 131.878 54.2157Z" fill="#A998D2"/>
<ellipse cx="212.944" cy="163.257" rx="3.34288" ry="3.35514" fill="#8279F8"/>
<path fill-rule="evenodd" clip-rule="evenodd" d="M177.007 138.933C177.007 139.862 176.261 140.611 175.335 140.611C174.41 140.611 173.664 139.862 173.664 138.933C173.664 138.005 174.41 137.256 175.335 137.256C176.254 137.256 177.007 138.005 177.007 138.933Z" fill="#C6C2F9"/>
<ellipse cx="158.621" cy="40.7948" rx="0.835718" ry="0.838786" fill="#C6C2F9"/>
<path fill-rule="evenodd" clip-rule="evenodd" d="M187.977 79.0679C187.991 78.8539 188.155 78.6827 188.375 78.6685C188.808 78.6471 189.221 78.5971 189.604 78.5187C189.221 78.4402 188.808 78.3903 188.375 78.3689C188.162 78.3546 187.991 78.1905 187.977 77.9694C187.956 77.5343 187.906 77.1206 187.828 76.7354C187.749 77.1206 187.7 77.5343 187.678 77.9694C187.664 78.1834 187.501 78.3546 187.28 78.3689C186.847 78.3903 186.435 78.4402 186.051 78.5187C186.435 78.5971 186.847 78.6471 187.28 78.6685C187.494 78.6827 187.664 78.8468 187.678 79.0679C187.7 79.5031 187.749 79.9168 187.828 80.302C187.906 79.9097 187.956 79.4959 187.977 79.0679Z" fill="#E8E0FF"/>
<path fill-rule="evenodd" clip-rule="evenodd" d="M145.127 116.848C145.134 116.663 145.284 116.513 145.475 116.499C145.852 116.477 146.208 116.434 146.542 116.37C146.208 116.306 145.845 116.263 145.475 116.242C145.291 116.235 145.141 116.085 145.127 115.892C145.106 115.514 145.063 115.158 144.999 114.822C144.935 115.158 144.893 115.521 144.871 115.892C144.864 116.078 144.715 116.228 144.523 116.242C144.146 116.263 143.791 116.306 143.457 116.37C143.791 116.434 144.154 116.477 144.523 116.499C144.708 116.506 144.857 116.656 144.871 116.848C144.893 117.226 144.935 117.583 144.999 117.918C145.063 117.59 145.106 117.226 145.127 116.848Z" fill="#E8E0FF"/>
<path fill-rule="evenodd" clip-rule="evenodd" d="M204.16 144.496C204.103 144.318 204.188 144.125 204.359 144.047C204.7 143.89 205.02 143.726 205.311 143.54C204.977 143.597 204.622 143.69 204.267 143.804C204.089 143.861 203.897 143.775 203.819 143.604C203.662 143.262 203.499 142.941 203.314 142.648C203.371 142.984 203.463 143.34 203.577 143.697C203.634 143.875 203.549 144.068 203.378 144.146C203.037 144.303 202.717 144.467 202.426 144.653C202.76 144.596 203.115 144.503 203.471 144.389C203.648 144.332 203.84 144.417 203.918 144.589C204.075 144.931 204.238 145.252 204.423 145.545C204.366 145.202 204.281 144.853 204.16 144.496Z" fill="#E8E0FF"/>
<path fill-rule="evenodd" clip-rule="evenodd" d="M142.432 33.6089C142.439 33.4234 142.588 33.2736 142.78 33.2593C143.157 33.2379 143.512 33.1951 143.846 33.1309C143.512 33.0667 143.15 33.0239 142.78 33.0025C142.595 32.9954 142.446 32.8456 142.432 32.653C142.411 32.2749 142.368 31.9183 142.304 31.583C142.24 31.9183 142.197 32.2821 142.176 32.653C142.169 32.8385 142.02 32.9883 141.828 33.0025C141.451 33.0239 141.096 33.0667 140.762 33.1309C141.096 33.1951 141.458 33.2379 141.828 33.2593C142.013 33.2665 142.162 33.4163 142.176 33.6089C142.197 33.9869 142.24 34.3436 142.304 34.6789C142.375 34.3436 142.418 33.9798 142.432 33.6089Z" fill="#E8E0FF"/>
<path opacity="0.7" d="M161.931 100.215C161.024 100.215 160.318 99.9852 159.811 99.5252C159.304 99.0652 159.038 98.3819 159.011 97.4752C159.004 97.2819 159.001 96.9986 159.001 96.6252C159.001 96.2452 159.004 95.9586 159.011 95.7652C159.038 94.8786 159.311 94.1986 159.831 93.7252C160.351 93.2519 161.051 93.0152 161.931 93.0152C162.811 93.0152 163.511 93.2519 164.031 93.7252C164.558 94.1986 164.834 94.8786 164.861 95.7652C164.874 96.1519 164.881 96.4386 164.881 96.6252C164.881 96.8052 164.874 97.0886 164.861 97.4752C164.828 98.3819 164.558 99.0652 164.051 99.5252C163.544 99.9852 162.838 100.215 161.931 100.215ZM161.931 99.0652C162.378 99.0652 162.734 98.9319 163.001 98.6652C163.268 98.3919 163.411 97.9786 163.431 97.4252C163.444 97.0252 163.451 96.7552 163.451 96.6152C163.451 96.4619 163.444 96.1919 163.431 95.8052C163.411 95.2519 163.268 94.8419 163.001 94.5752C162.734 94.3019 162.378 94.1652 161.931 94.1652C161.491 94.1652 161.138 94.3019 160.871 94.5752C160.604 94.8419 160.461 95.2519 160.441 95.8052C160.434 95.9986 160.431 96.2686 160.431 96.6152C160.431 96.9552 160.434 97.2252 160.441 97.4252C160.461 97.9786 160.601 98.3919 160.861 98.6652C161.128 98.9319 161.484 99.0652 161.931 99.0652ZM168.374 100.215C167.594 100.215 166.991 100.015 166.564 99.6152C166.137 99.2086 165.907 98.6552 165.874 97.9552L165.864 97.5152L165.874 97.0752C165.907 96.3819 166.141 95.8319 166.574 95.4252C167.007 95.0186 167.607 94.8152 168.374 94.8152C169.141 94.8152 169.741 95.0186 170.174 95.4252C170.607 95.8319 170.841 96.3819 170.874 97.0752C170.881 97.1552 170.884 97.3019 170.884 97.5152C170.884 97.7286 170.881 97.8752 170.874 97.9552C170.841 98.6552 170.611 99.2086 170.184 99.6152C169.757 100.015 169.154 100.215 168.374 100.215ZM168.374 99.2252C168.727 99.2252 169.001 99.1152 169.194 98.8952C169.387 98.6686 169.494 98.3386 169.514 97.9052C169.521 97.8386 169.524 97.7086 169.524 97.5152C169.524 97.3219 169.521 97.1919 169.514 97.1252C169.494 96.6919 169.387 96.3652 169.194 96.1452C169.001 95.9186 168.727 95.8052 168.374 95.8052C168.021 95.8052 167.747 95.9186 167.554 96.1452C167.361 96.3652 167.254 96.6919 167.234 97.1252L167.224 97.5152L167.234 97.9052C167.254 98.3386 167.361 98.6686 167.554 98.8952C167.747 99.1152 168.021 99.2252 168.374 99.2252ZM172.242 102.015C172.175 102.015 172.119 101.992 172.072 101.945C172.025 101.905 172.002 101.849 172.002 101.775V95.1552C172.002 95.0819 172.025 95.0252 172.072 94.9852C172.119 94.9386 172.175 94.9152 172.242 94.9152H173.032C173.105 94.9152 173.162 94.9386 173.202 94.9852C173.249 95.0252 173.272 95.0819 173.272 95.1552V95.5552C173.645 95.0619 174.179 94.8152 174.872 94.8152C175.545 94.8152 176.062 95.0286 176.422 95.4552C176.782 95.8752 176.975 96.4452 177.002 97.1652C177.009 97.2452 177.012 97.3619 177.012 97.5152C177.012 97.6752 177.009 97.7952 177.002 97.8752C176.975 98.5752 176.782 99.1419 176.422 99.5752C176.062 100.002 175.545 100.215 174.872 100.215C174.199 100.215 173.685 99.9786 173.332 99.5052V101.775C173.332 101.849 173.309 101.905 173.262 101.945C173.222 101.992 173.165 102.015 173.092 102.015H172.242ZM174.502 99.1452C175.222 99.1452 175.605 98.7019 175.652 97.8152C175.659 97.7486 175.662 97.6486 175.662 97.5152C175.662 97.3819 175.659 97.2819 175.652 97.2152C175.605 96.3286 175.222 95.8852 174.502 95.8852C174.115 95.8852 173.829 96.0086 173.642 96.2552C173.455 96.5019 173.352 96.8052 173.332 97.1652L173.322 97.5452L173.332 97.9352C173.345 98.2686 173.449 98.5552 173.642 98.7952C173.842 99.0286 174.129 99.1452 174.502 99.1452ZM180.105 100.215C179.605 100.215 179.185 100.142 178.845 99.9952C178.505 99.8419 178.251 99.6652 178.085 99.4652C177.925 99.2586 177.845 99.0819 177.845 98.9352C177.845 98.8686 177.868 98.8152 177.915 98.7752C177.961 98.7352 178.015 98.7152 178.075 98.7152H178.865C178.925 98.7152 178.975 98.7386 179.015 98.7852C179.041 98.8052 179.111 98.8652 179.225 98.9652C179.338 99.0719 179.471 99.1552 179.625 99.2152C179.778 99.2752 179.948 99.3052 180.135 99.3052C180.401 99.3052 180.621 99.2519 180.795 99.1452C180.968 99.0386 181.055 98.8919 181.055 98.7052C181.055 98.5652 181.015 98.4519 180.935 98.3652C180.861 98.2786 180.725 98.2019 180.525 98.1352C180.325 98.0619 180.028 97.9852 179.635 97.9052C179.068 97.7852 178.648 97.6019 178.375 97.3552C178.108 97.1086 177.975 96.7819 177.975 96.3752C177.975 96.1086 178.055 95.8586 178.215 95.6252C178.375 95.3852 178.611 95.1919 178.925 95.0452C179.245 94.8919 179.625 94.8152 180.065 94.8152C180.511 94.8152 180.898 94.8886 181.225 95.0352C181.551 95.1752 181.798 95.3452 181.965 95.5452C182.138 95.7386 182.225 95.9119 182.225 96.0652C182.225 96.1252 182.201 96.1786 182.155 96.2252C182.115 96.2652 182.065 96.2852 182.005 96.2852H181.265C181.211 96.2852 181.155 96.2619 181.095 96.2152C181.048 96.1819 180.975 96.1186 180.875 96.0252C180.775 95.9319 180.658 95.8586 180.525 95.8052C180.391 95.7519 180.235 95.7252 180.055 95.7252C179.808 95.7252 179.615 95.7786 179.475 95.8852C179.341 95.9919 179.275 96.1319 179.275 96.3052C179.275 96.4319 179.308 96.5352 179.375 96.6152C179.441 96.6952 179.571 96.7719 179.765 96.8452C179.958 96.9186 180.248 96.9919 180.635 97.0652C181.275 97.1919 181.731 97.3886 182.005 97.6552C182.285 97.9219 182.425 98.2486 182.425 98.6352C182.425 99.1019 182.221 99.4819 181.815 99.7752C181.408 100.069 180.838 100.215 180.105 100.215ZM183.727 98.1752C183.66 98.1752 183.604 98.1519 183.557 98.1052C183.51 98.0586 183.487 98.0019 183.487 97.9352V93.3552C183.487 93.2886 183.51 93.2319 183.557 93.1852C183.604 93.1386 183.66 93.1152 183.727 93.1152H184.537C184.61 93.1152 184.667 93.1386 184.707 93.1852C184.754 93.2252 184.777 93.2819 184.777 93.3552V97.9352C184.777 98.0019 184.754 98.0586 184.707 98.1052C184.667 98.1519 184.61 98.1752 184.537 98.1752H183.727ZM183.667 100.115C183.6 100.115 183.544 100.092 183.497 100.045C183.45 99.9986 183.427 99.9419 183.427 99.8752V98.9452C183.427 98.8719 183.45 98.8119 183.497 98.7652C183.544 98.7186 183.6 98.6952 183.667 98.6952H184.597C184.67 98.6952 184.73 98.7186 184.777 98.7652C184.824 98.8119 184.847 98.8719 184.847 98.9452V99.8752C184.847 99.9419 184.824 99.9986 184.777 100.045C184.73 100.092 184.67 100.115 184.597 100.115H183.667Z" fill="#F6F2FF"/>
</g>
</g>
<path fill-rule="evenodd" clip-rule="evenodd" d="M116.922 13.1152V168.988H127.459V23.1689H217.18V168.988H227.711V13.1152H116.922Z" fill="#DFD8EF"/>
<path fill-rule="evenodd" clip-rule="evenodd" d="M119.438 14.8281V168.988H129.494V25.2176H215.134V168.988H225.19V14.8281H119.438Z" fill="#8279F8"/>
<path fill-rule="evenodd" clip-rule="evenodd" d="M125.312 168.988H130.983V25.282H214.484V168.988H219.315V21.6797H125.312V168.988Z" fill="#6650AB"/>
<path fill-rule="evenodd" clip-rule="evenodd" d="M100.136 103.898C99.2115 103.898 98.457 103.375 98.457 102.734V91.3598C98.457 90.7187 99.2115 90.1953 100.136 90.1953C101.06 90.1953 101.814 90.7187 101.814 91.3598V102.734C101.823 103.375 101.068 103.898 100.136 103.898Z" fill="#DFD8EF"/>
<path fill-rule="evenodd" clip-rule="evenodd" d="M104.331 98.7598H98.1146C97.3732 98.7598 96.7773 97.9966 96.7773 97.0469C96.7773 96.0972 97.3732 95.334 98.1146 95.334H104.331V98.7598Z" fill="#675AF6"/>
<path fill-rule="evenodd" clip-rule="evenodd" d="M107.688 179.265L127.831 168.94V25.1532L107.688 14.8281V179.265Z" fill="#8279F8"/>
<path fill-rule="evenodd" clip-rule="evenodd" d="M125.315 94.4775L110.207 94.2193V20.8232L125.315 28.2669V94.4775Z" fill="#DFD8EF"/>
<path fill-rule="evenodd" clip-rule="evenodd" d="M125.315 165.058L110.207 172.414V99.0222L125.315 98.7598V165.058Z" fill="#DFD8EF"/>
<path fill-rule="evenodd" clip-rule="evenodd" d="M104.332 177.951L107.689 179.265V14.8281L104.332 16.1421V177.951Z" fill="#DFD8EF"/>
<path fill-rule="evenodd" clip-rule="evenodd" d="M306.602 112.338L274.821 125.146C270.739 126.792 268.752 131.425 270.376 135.516L270.637 136.176C270.637 136.176 281.16 160.756 281.725 163.832C282.289 166.909 277.491 171.044 277.491 171.044L310.049 158.201C313.787 156.726 315.525 152.421 313.866 148.76C309.743 139.661 302.838 124.2 302.086 121.057C301.005 116.543 306.602 112.338 306.602 112.338Z" fill="white"/>
<path fill-rule="evenodd" clip-rule="evenodd" d="M291.531 145.352L293.72 144.553L293.412 143.705C293.266 143.301 293.17 142.951 293.125 142.657C293.08 142.363 293.078 142.079 293.12 141.808C293.162 141.536 293.252 141.252 293.391 140.954C293.529 140.657 293.703 140.314 293.914 139.926C294.135 139.516 294.335 139.123 294.515 138.746C294.695 138.37 294.824 137.988 294.904 137.602C294.984 137.216 295.008 136.81 294.976 136.382C294.944 135.955 294.834 135.483 294.647 134.966C294.383 134.239 294.026 133.642 293.575 133.175C293.125 132.709 292.614 132.365 292.041 132.144C291.469 131.923 290.864 131.819 290.228 131.832C289.591 131.845 288.946 131.971 288.295 132.209C287.643 132.447 287.066 132.772 286.565 133.184C286.064 133.596 285.663 134.076 285.361 134.625C285.059 135.175 284.862 135.782 284.769 136.447C284.676 137.112 284.709 137.809 284.868 138.538L287.2 137.988C287.008 137.216 287.051 136.487 287.329 135.8C287.607 135.113 288.134 134.628 288.911 134.344C289.656 134.072 290.348 134.08 290.989 134.367C291.629 134.655 292.09 135.186 292.371 135.962C292.576 136.527 292.632 137.033 292.539 137.478C292.446 137.924 292.284 138.363 292.054 138.794L291.5 139.957C291.33 140.312 291.185 140.653 291.067 140.98C290.948 141.307 290.865 141.635 290.817 141.963C290.769 142.292 290.768 142.64 290.813 143.008C290.858 143.375 290.957 143.769 291.11 144.189L291.531 145.352ZM295.503 149.033C295.681 148.602 295.694 148.177 295.541 147.757C295.383 147.321 295.101 147.003 294.695 146.804C294.288 146.604 293.86 146.587 293.41 146.752C292.96 146.916 292.645 147.21 292.464 147.632C292.283 148.055 292.272 148.485 292.43 148.921C292.582 149.341 292.867 149.653 293.284 149.858C293.701 150.062 294.127 150.085 294.561 149.926C295.011 149.762 295.325 149.464 295.503 149.033Z" fill="#E6E5F4"/>
<defs>
<clipPath id="clip0">
<rect width="111.347" height="153.533" fill="white" transform="translate(116.836 13.1152)"/>
</clipPath>
</defs>
</svg>
