<svg width="310" height="137" viewBox="0 0 310 137" fill="none" xmlns="http://www.w3.org/2000/svg">
<g clip-path="url(#clip0)">
<path d="M275.213 133.048C270.252 135.36 88.9221 135.121 66.4833 135.121C57.1904 135.121 48.8186 136.867 42.3163 132.366C35.5359 127.67 30.2283 120.881 25.2262 115.336C14.8937 103.884 6.54921 91.3445 5.33174 77.9171C4.86664 72.769 5.56885 67.3468 9.73651 62.9673C13.9042 58.5878 22.3033 55.6145 29.8498 57.128C37.027 58.567 43.5749 63.6704 50.4328 61.6743C55.0473 60.3307 56.3241 56.5321 57.1722 53.2788C60.3458 41.0848 66.1824 28.5601 79.6703 19.8816C93.1628 11.2061 116.103 7.82463 131.324 15.1804C139.718 19.2381 144.47 25.7268 147.999 32.1501C151.528 38.5733 154.237 45.2945 159.9 51.0265C165.563 56.7586 175.062 61.4687 185.49 61.138C194.646 60.8461 202.471 56.839 209.032 52.6562C215.594 48.4703 221.882 43.7899 230.354 41.5019C238.826 39.2109 250.358 40.3072 254.562 45.6311C258.219 50.2638 255.054 55.8231 252.341 60.7239C249.186 66.4292 246.669 72.5068 248.018 78.507C249.368 84.5071 255.446 90.4031 264.443 91.8957C272.669 93.2601 281.565 90.8201 289.759 92.2621C301.925 94.4042 307.2 104.614 303.429 112.467C299.658 120.321 289.586 126.112 279.454 131.004C279.454 131.004 279.454 131.004 279.449 131.004C277.83 131.791 276.458 132.467 275.213 133.048Z" fill="#EFEEFB"/>
<path d="M205.481 10.4815C207.13 11.4587 208.322 13.0029 209.277 14.5756C213.302 21.2023 213.897 28.9075 212.387 35.7262C210.88 42.5474 207.435 48.6337 203.775 54.4754C202.27 56.8848 197.509 66.4181 194.399 61.7424C192.324 58.6214 193.639 49.65 193.646 46.2944C193.656 39.6641 194.703 33.1632 196.732 27.0552C197.218 25.5831 204.183 9.71134 205.481 10.4815Z" fill="#E6E5F4"/>
<path d="M200.991 70.8574C212.185 66.1471 225.061 64.2657 238.082 65.4399C236.41 68.9807 232.808 71.2657 229.035 72.9024C220.098 76.7736 212.654 78.7819 202.731 80.2546C199.907 80.6733 189.121 80.5345 189.023 79.4304C188.713 75.9419 198.154 72.0484 200.991 70.8574Z" fill="#C6C2F9"/>
<path d="M165.828 107.133L165.156 106.522C169.852 102.037 174.281 97.0051 178.316 91.5698C182.131 86.4319 185.706 80.7853 188.938 74.7879C191.973 69.161 194.795 63.0604 197.327 56.658C199.739 50.5594 201.901 44.2009 203.756 37.7572C205.23 32.63 206.946 25.8287 207.124 18.6634C207.143 17.8715 207.144 17.0737 207.125 16.292L208.008 16.3879C208.026 17.1823 208.029 17.9917 208.008 18.7964C207.83 26.045 206.098 32.9018 204.612 38.0683C202.751 44.5317 200.581 50.9132 198.16 57.0291C195.618 63.4581 192.781 69.583 189.739 75.233C186.491 81.258 182.9 86.9323 179.065 92.0956C175.007 97.5597 170.553 102.618 165.828 107.133Z" fill="#C6C2F9"/>
<path d="M183.116 85.455C183.112 85.4527 183.104 85.448 183.1 85.4457C182.885 85.3123 182.807 85.0547 182.923 84.8725C185.241 81.2397 189.998 78.1931 197.071 75.8178C207.178 72.4252 217.626 68.9167 229.122 68.9453C229.364 68.9469 229.587 69.1312 229.618 69.3572C229.65 69.5832 229.48 69.7662 229.238 69.7647C217.889 69.7335 207.507 73.2205 197.467 76.5914C190.561 78.9111 185.93 81.8601 183.701 85.3557C183.586 85.5379 183.326 85.5768 183.116 85.455Z" fill="#EFEEFB"/>
<path fill-rule="evenodd" clip-rule="evenodd" d="M189.767 73.7964C189.795 73.8313 189.828 73.8593 189.864 73.8804C189.973 73.9436 190.104 73.9502 190.203 73.8825C195.313 70.5232 200.972 66.4252 205.035 61.1302C205.043 61.1256 205.052 61.1216 205.061 61.1176C205.07 61.1136 205.079 61.1096 205.087 61.105C207.749 59.554 210.15 57.9029 212.583 56.2057C217.586 52.7149 220.924 49.2761 223.09 45.3841C224.56 42.7371 226.082 38.782 225.724 34.1307C225.824 33.9761 225.752 33.5009 225.375 31.7408L225.283 31.3095L224.898 31.5016C218.734 34.5554 215.214 40.2846 212.836 44.9395C212.06 46.4839 211.309 48.0887 210.581 49.6427C209.106 52.7945 207.583 56.0479 205.771 58.9996C201.732 65.0972 195.43 69.7007 189.801 73.4006C189.67 73.4866 189.655 73.6625 189.767 73.7964ZM213.401 45.2431C215.677 40.7926 219.007 35.3459 224.716 32.296C224.774 32.8511 224.984 33.5448 225.082 33.8419C225.507 38.4809 223.988 42.4384 222.526 45.0715C220.403 48.9001 217.11 52.2871 212.166 55.7331C210.134 57.155 208.118 58.5398 205.96 59.8613C206.074 59.6995 206.186 59.5325 206.296 59.3681L206.314 59.3413C208.142 56.3619 209.673 53.0947 211.154 49.9324C211.879 48.3819 212.629 46.7806 213.401 45.2431Z" fill="#E6E5F4"/>
<path d="M259.71 95.119C258.622 93.6748 256.851 92.7199 255.036 91.9836C247.392 88.9003 238.35 89.1379 230.268 91.2567C222.185 93.3755 214.891 97.2379 207.88 101.276C204.988 102.939 193.592 108.393 198.976 110.825C202.568 112.45 213.176 110.283 217.128 109.932C224.933 109.233 232.621 107.58 239.887 105.043C241.625 104.43 260.565 96.2545 259.71 95.119Z" fill="#C6C2F9"/>
<path d="M252.858 93.3564C251.926 93.423 250.971 93.5037 250.022 93.6082C241.484 94.5251 233.352 96.8577 227.212 98.7913C219.535 101.205 211.947 103.903 204.659 106.806C196.998 109.856 189.682 113.148 182.921 116.592C182.11 117.006 181.311 117.419 180.512 117.842C181.067 117.87 181.622 117.903 182.177 117.937C182.588 117.723 182.993 117.509 183.409 117.3C190.143 113.875 197.431 110.592 205.058 107.556C212.325 104.663 219.891 101.974 227.54 99.5656C233.629 97.6511 241.695 95.3327 250.138 94.4254C251.071 94.3256 252.009 94.2401 252.93 94.1783L252.858 93.3564Z" fill="#EFEEFB"/>
<path fill-rule="evenodd" clip-rule="evenodd" d="M206.657 94.0455C197.548 100.264 190.359 108.445 184.447 115.78C184.336 115.923 184.336 116.098 184.442 116.227C184.475 116.269 184.519 116.312 184.575 116.345C184.791 116.474 185.091 116.426 185.241 116.241C191.752 108.16 199.824 99.0433 210.276 92.7391C215.328 89.8744 220.873 87.3518 226.241 84.9146C228.889 83.7127 231.625 82.468 234.257 81.2043C242.2 77.3325 252.009 71.7741 257.465 63.0755L257.815 62.534L257.094 62.4722C254.163 62.2299 253.363 62.2014 253.102 62.3629C245.309 62.572 238.581 65.1991 234.062 67.5555C227.407 71.0235 221.456 76.0023 215.328 83.2139C212.352 86.7199 209.449 90.1832 206.701 93.9695C206.685 93.9933 206.668 94.0218 206.657 94.0455ZM234.555 68.2536C239.057 65.9067 245.785 63.289 253.551 63.175C254.051 63.2653 255.2 63.4458 256.132 63.4363C250.703 71.5268 241.372 76.7906 233.778 80.4962C231.246 81.7132 228.609 82.9124 226.049 84.0767L225.785 84.197L225.784 84.1973C220.394 86.6486 214.827 89.1806 209.726 92.0689C209.426 92.2495 209.126 92.43 208.832 92.6153C211.169 89.5321 213.606 86.6294 216.098 83.6982C222.149 76.5721 228.016 71.6646 234.555 68.2536Z" fill="#E6E5F4"/>
<path d="M207.324 93.1379L207.918 93.784C209.406 92.7769 211.31 91.3374 213.325 89.8077C215.712 88.0024 218.176 86.1306 219.986 84.9762C225.892 81.1898 231.976 77.4748 238.077 73.926C244.177 70.3819 250.456 66.9092 256.745 63.6027L256.245 62.9043C249.945 66.2156 243.65 69.6931 237.538 73.2466C231.427 76.8002 225.326 80.5247 219.409 84.3158C217.571 85.494 215.09 87.3753 212.687 89.1901C210.688 90.715 208.79 92.1498 207.324 93.1379Z" fill="#E6E5F4"/>
<path d="M198.517 104.162C198.817 100.912 199.534 97.2515 202.245 96.0952C202.643 95.9237 203.11 95.8238 203.537 96.0421C204.3 96.4268 204.472 97.5206 204.986 98.2589C206.07 99.8217 208.351 99.2751 209.209 97.8276C210.066 96.3802 210.056 94.4518 210.485 92.7542C210.859 91.2718 211.579 89.9435 212.57 88.9109C213.865 87.5642 216.343 86.943 217.588 88.7076C218.488 89.9899 218.112 91.6438 217.909 93.1052C217.707 94.5667 218.037 96.5657 219.409 97.0767C220.588 97.5154 221.569 96.4754 222.335 95.586C224.199 93.405 226.447 91.6184 228.956 90.3162C230.705 89.4086 232.67 88.7301 234.727 89.1132C236.781 89.4913 238.909 91.1906 239.385 93.4134C239.825 95.4866 238.769 97.3836 237.448 98.6861C233.85 102.238 228.454 102.909 223.824 104.842C222.73 105.298 221.499 106.32 222.017 107.607C222.381 108.511 223.377 108.865 224.217 109.238C226.261 110.14 228.082 111.86 229.209 113.962C229.4 114.323 229.579 114.711 229.581 115.103C229.593 115.995 228.729 116.463 227.937 116.6C224.269 117.228 220.123 114.303 216.578 115.32C216.104 115.456 215.613 115.708 215.471 116.217C215.369 116.583 215.477 117.013 215.635 117.394C216.285 118.978 217.712 120.06 218.841 121.334C219.971 122.608 220.866 124.569 220.081 125.863C219.491 126.834 218.205 126.975 217.057 126.873C213.525 126.544 210.04 124.66 207.043 122.198C204.358 119.988 200.909 116.896 199.087 113.78C197.376 110.836 198.239 107.149 198.517 104.162Z" fill="#E6E5F4"/>
<path d="M233.61 95.0897L195.597 117.097" stroke="#EFEEFB" stroke-linecap="round"/>
<path d="M215.453 89.6543C214.433 95.5502 213.275 101.401 211.981 107.2" stroke="#EFEEFB" stroke-linecap="round"/>
<path d="M202.898 98.2549C202.546 103.285 202.079 108.29 201.506 113.265" stroke="#EFEEFB" stroke-linecap="round"/>
<path d="M210.342 109.125C215.448 110.693 220.542 112.348 225.62 114.09" stroke="#EFEEFB" stroke-linecap="round"/>
<path d="M73.2001 26.8946C71.6416 27.7865 70.5363 29.2092 69.6647 30.6604C65.9914 36.7562 65.6573 43.863 67.328 50.1652C68.9973 56.4634 72.5193 62.0945 76.2373 67.504C77.7699 69.734 82.6657 78.5495 85.523 74.2486C87.4269 71.3787 85.872 63.0957 85.7624 59.9959C85.5445 53.8733 84.3292 47.8735 82.1745 42.2302C81.6584 40.8669 74.433 26.1898 73.2001 26.8946Z" fill="#C6C2F9"/>
<path d="M79.4453 82.6272C68.4881 78.2354 55.9979 76.4463 43.4609 77.4727C45.1865 80.7471 48.7387 82.8725 52.4337 84.3952C61.187 88.0033 68.4332 89.8908 78.0634 91.2858C80.8022 91.6832 91.21 91.6022 91.2709 90.5835C91.4603 87.37 82.2265 83.7417 79.4453 82.6272Z" fill="#C6C2F9"/>
<path d="M114.549 116.247L115.182 115.689C110.503 111.531 106.068 106.87 102.002 101.833C98.1537 97.0767 94.5292 91.8516 91.2131 86.3045C88.1064 81.0998 85.1867 75.4581 82.5387 69.5398C80.0193 63.9023 77.7273 58.027 75.7318 52.0753C74.1457 47.3394 72.2744 41.0558 71.8725 34.4406C71.8305 33.7096 71.8026 32.9736 71.796 32.2524L70.9485 32.3343C70.9547 33.0692 70.9808 33.815 71.0272 34.558C71.4289 41.246 73.3146 47.5836 74.9138 52.3557C76.9165 58.3275 79.2111 64.2245 81.7426 69.8805C84.3992 75.8229 87.3324 81.4869 90.4526 86.7141C93.7788 92.2893 97.4277 97.5374 101.291 102.321C105.38 107.376 109.841 112.064 114.549 116.247Z" fill="#E3EFFF"/>
<path d="M97.1729 96.1749C97.1776 96.1732 97.1823 96.1715 97.1856 96.1658C97.3855 96.0428 97.4593 95.8065 97.3405 95.6405C94.9871 92.2768 90.2967 89.4473 83.3966 87.2242C73.53 84.0498 63.3322 80.7687 52.2346 80.751C52.0003 80.7501 51.7915 80.9219 51.7697 81.1255C51.7447 81.3348 51.913 81.5055 52.1458 81.5024C63.1005 81.5222 73.2368 84.7802 83.0372 87.9333C89.7788 90.1005 94.3409 92.8402 96.6057 96.0771C96.7212 96.2488 96.9686 96.2859 97.1729 96.1749Z" fill="#EFEEFB"/>
<path fill-rule="evenodd" clip-rule="evenodd" d="M68.6939 68.6546C74.5289 75.6484 82.5137 81.0796 89.7065 85.5302C89.8442 85.6164 90.0275 85.6087 90.1628 85.5275C90.2115 85.5006 90.2573 85.4657 90.2941 85.4204C90.4378 85.2451 90.4122 85.0133 90.2271 84.8988C82.3014 79.9967 73.415 73.8981 67.5735 65.8463C64.9469 61.9497 62.6959 57.6521 60.5237 53.4987C59.4556 51.4495 58.3457 49.3291 57.2074 47.2919C53.7189 41.1526 48.6111 33.5839 39.9829 29.5297L39.4427 29.2718L39.3363 29.843C38.8994 32.1548 38.8196 32.7846 38.967 32.9856C38.6852 39.1087 40.9615 44.3253 43.1071 47.8196C46.2635 52.9562 51.0194 57.5044 58.0733 62.1287C61.4986 64.3732 64.8832 66.5643 68.6186 68.6229C68.6446 68.6361 68.6692 68.6453 68.6939 68.6546ZM43.869 47.4058C41.7354 43.9299 39.4638 38.7115 39.8414 32.6036C39.9639 32.2085 40.224 31.2991 40.2705 30.5631C48.2735 34.6088 53.1077 41.8042 56.4471 47.6794C57.5085 49.5765 58.541 51.5477 59.5476 53.4694C59.6177 53.6032 59.6877 53.7368 59.7575 53.8701L59.767 53.8881C61.9482 58.0543 64.201 62.3572 66.8539 66.2872C67.0223 66.517 67.1908 66.7467 67.3639 66.9747C64.3306 65.2242 61.4933 63.3839 58.6259 61.5045C51.6623 56.9384 46.9731 52.4568 43.869 47.4058Z" fill="#C6C2F9"/>
<path d="M67.8082 68.151L68.5099 67.6674C67.5697 66.5272 66.1993 65.0661 64.7502 63.52C63.0392 61.6918 61.2691 59.8033 60.1903 58.4133C56.66 53.8727 53.2139 49.1831 49.9449 44.4835C46.6759 39.7839 43.4958 34.9335 40.4896 30.0788L39.7352 30.4907C42.7458 35.3574 45.9382 40.2124 49.2116 44.9241C52.485 49.6358 55.9387 54.3317 59.478 58.8826C60.5764 60.2973 62.357 62.2002 64.0818 64.037C65.5171 65.5744 66.8785 67.0252 67.8082 68.151Z" fill="#C6C2F9"/>
<path d="M138.979 65.849C143.905 60.179 151.227 56.6908 158.741 53.9409C163.857 66.7285 160.472 80.8052 150.439 88.481C148.688 89.8178 146.708 90.9921 144.366 91.4134C137.947 92.5609 134.547 88.217 133.923 83.0669C133.123 76.5108 134.866 70.5877 138.979 65.849Z" fill="#E6E5F4"/>
<path d="M156.745 58.6512L134.598 97.1179" stroke="#EFEEFB" stroke-linecap="round"/>
<path d="M149.078 59.0176C149.199 62.3756 149.362 65.7389 149.569 69.1074" stroke="#EFEEFB" stroke-linecap="round"/>
<path d="M146.693 76.6896C150.747 75.8121 154.686 74.6316 158.46 73.1577" stroke="#EFEEFB" stroke-linecap="round"/>
<path d="M104.715 43.7079C106.331 43.8802 107.886 44.8075 109.294 45.8704C115.21 50.3546 119.219 57.4605 121.336 64.6955C123.452 71.9304 123.862 79.3639 124.005 86.6597C124.066 89.668 125.153 101.013 120.786 97.9747C117.871 95.9493 114.62 86.7383 113.058 83.5177C109.978 77.1559 107.686 70.4416 106.269 63.6441C105.935 62.0159 103.445 43.5729 104.715 43.7079Z" fill="#C6C2F9"/>
<path d="M109.248 48.1901C109.629 48.9424 110.009 49.7185 110.369 50.5013C113.621 57.5313 115.596 64.904 116.955 70.55C118.657 77.6081 120.098 84.7295 121.244 91.7138C122.448 99.054 123.307 106.24 123.791 113.068C123.849 113.886 123.902 114.696 123.947 115.511C123.667 115.094 123.385 114.68 123.102 114.266C123.076 113.85 123.052 113.437 123.02 113.018C122.534 106.221 121.681 99.0604 120.481 91.7525C119.339 84.7899 117.9 77.69 116.207 70.6556C114.857 65.0571 112.902 57.7425 109.686 50.7899C109.331 50.0222 108.962 49.2568 108.582 48.5153L109.248 48.1901Z" fill="#E2EEFF"/>
<path fill-rule="evenodd" clip-rule="evenodd" d="M130.134 84.2523C129.572 94.1824 126.61 103.536 123.707 111.51C123.649 111.662 123.514 111.743 123.366 111.721C123.318 111.715 123.264 111.701 123.213 111.673C123.014 111.565 122.911 111.311 122.985 111.11C126.183 102.326 129.456 91.8557 129.461 80.8467C129.323 75.6108 128.693 70.1511 128.08 64.8686C127.777 62.263 127.466 59.5688 127.219 56.9474C126.516 49.0071 126.245 38.8421 130.408 30.5882L130.663 30.0666L131.045 30.5963C132.59 32.7514 132.982 33.3566 132.979 33.6334C136.431 39.7597 137.528 46.1825 137.81 50.7705C138.227 57.5273 137.155 64.439 134.448 72.5232C133.13 76.4503 131.811 80.3018 130.171 84.1828C130.161 84.2066 130.147 84.2327 130.134 84.2523ZM137.043 50.7117C136.762 46.141 135.657 39.7226 132.145 33.6617C131.844 33.3171 131.172 32.5118 130.747 31.7859C127.039 39.7364 127.315 49.3956 127.984 56.9882C128.222 59.512 128.522 62.1077 128.812 64.6279L128.842 64.8879L128.842 64.8886C129.455 70.1947 130.088 75.6756 130.23 80.961C130.23 81.2766 130.23 81.5922 130.224 81.9057C131.513 78.6684 132.617 75.4375 133.717 72.1505C136.394 64.1661 137.45 57.3519 137.043 50.7117Z" fill="#C6C2F9"/>
<path d="M130.524 83.3161L129.752 83.1561C129.837 81.5383 130.062 79.398 130.305 77.13C130.587 74.4465 130.885 71.672 130.934 69.7369C131.109 63.4123 131.147 56.9834 131.049 50.6186C130.948 44.2561 130.71 37.7891 130.338 31.3907L131.107 31.4535C131.48 37.8627 131.723 44.3447 131.822 50.7202C131.921 57.0958 131.883 63.542 131.71 69.8774C131.655 71.845 131.358 74.6367 131.076 77.3375C130.829 79.5905 130.605 81.7243 130.524 83.3161Z" fill="#C6C2F9"/>
<path d="M110.812 108.836C104.503 100.421 101.871 89.3519 100.302 78.2333C119.255 74.9299 137.493 83.6764 145.055 99.6876C146.371 102.48 147.398 105.541 147.292 108.88C146.99 118.028 140.068 121.434 132.854 120.791C123.672 119.976 116.086 115.864 110.812 108.836Z" fill="#C6C2F9"/>
<path d="M106.152 82.3458L149.804 121.759" stroke="#EFEEFB" stroke-linecap="round"/>
<path d="M104.422 92.9775C109.043 93.7896 113.683 94.544 118.344 95.2407" stroke="#EFEEFB" stroke-linecap="round"/>
<path d="M127.861 101.399C127.842 95.5773 127.377 89.8243 126.462 84.2133" stroke="#EFEEFB" stroke-linecap="round"/>
<path d="M125.202 126.512C122.815 128.169 119.906 129.782 117.555 128.584C117.211 128.409 116.874 128.148 116.772 127.728C116.599 126.984 117.242 126.239 117.455 125.456C117.896 123.817 116.216 122.565 114.737 122.81C113.259 123.056 111.945 124.167 110.538 124.849C109.312 125.443 107.99 125.711 106.721 125.623C105.06 125.51 103.213 124.162 103.701 122.298C104.057 120.941 105.407 120.252 106.518 119.553C107.629 118.854 108.803 117.477 108.365 116.24C107.988 115.178 106.714 115.102 105.667 115.088C103.106 115.057 100.596 114.544 98.2711 113.57C96.6502 112.888 95.0578 111.932 94.1354 110.303C93.2129 108.674 93.1501 106.24 94.394 104.638C95.5568 103.145 97.4564 102.782 99.1078 102.94C103.599 103.371 107.151 106.682 111.13 108.752C112.07 109.241 113.474 109.497 114.052 108.409C114.461 107.641 114.128 106.748 113.899 105.963C113.337 104.042 113.469 101.804 114.257 99.8273C114.393 99.4875 114.553 99.1432 114.82 98.9139C115.421 98.397 116.239 98.7165 116.784 99.1864C119.319 101.341 119.705 105.866 122.433 107.716C122.798 107.967 123.256 108.155 123.68 107.963C123.992 107.82 124.221 107.5 124.392 107.174C125.097 105.819 125.015 104.219 125.243 102.711C125.464 101.208 126.286 99.4653 127.618 99.2639C128.621 99.1087 129.452 99.9125 130.043 100.76C131.851 103.372 132.564 106.849 132.6 110.315C132.636 113.427 132.505 117.568 131.423 120.612C130.413 123.46 127.4 124.986 125.202 126.512Z" fill="#E6E5F4"/>
<path d="M99.6582 108.435L131.183 119.941" stroke="#EFEEFB" stroke-linecap="round"/>
<path d="M107.551 122.57C109.448 121.449 111.342 120.32 113.239 119.2" stroke="#EFEEFB" stroke-linecap="round"/>
<path d="M115.676 117.52C116.689 116.993 117.697 116.465 118.71 115.938" stroke="#EFEEFB" stroke-linecap="round"/>
<path d="M119.27 125.916C122.473 123.785 125.7 121.705 128.955 119.676" stroke="#EFEEFB" stroke-linecap="round"/>
<path d="M123.989 117.038C121.884 113.192 119.827 109.315 117.811 105.404" stroke="#EFEEFB" stroke-linecap="round"/>
<path fill-rule="evenodd" clip-rule="evenodd" d="M124.774 64.6722C124.723 64.5106 124.695 64.3388 124.695 64.1608V55.3988C124.695 51.5606 127.903 48.4395 131.847 48.4395H174.758C178.702 48.4395 181.91 51.5606 181.91 55.3988V64.1608C181.91 64.3388 181.882 64.5106 181.831 64.6722C181.882 64.8389 181.91 65.0158 181.91 65.1993V118.79V118.986V127.489C181.91 131.355 178.702 134.498 174.758 134.498H131.847C127.903 134.498 124.695 131.355 124.695 127.489V118.986V118.79V65.1993C124.695 65.0158 124.723 64.8389 124.774 64.6722Z" fill="#8279F8"/>
<path fill-rule="evenodd" clip-rule="evenodd" d="M127.184 117.037H179.423V65.9004H127.184V117.037Z" fill="#C6C2F9"/>
<path fill-rule="evenodd" clip-rule="evenodd" d="M127.184 119.531V127.821C127.184 130.127 128.858 132.004 130.915 132.004H175.691C177.748 132.004 179.423 130.127 179.423 127.821V119.531H127.184Z" fill="#C6C2F9"/>
<path fill-rule="evenodd" clip-rule="evenodd" d="M127.184 63.4059H179.423V55.0661C179.423 52.788 177.748 50.9336 175.691 50.9336H130.915C128.858 50.9336 127.184 52.788 127.184 55.0661V63.4059Z" fill="#C6C2F9"/>
<path d="M160.765 125.767C160.765 127.145 159.649 128.261 158.271 128.261H148.334C146.957 128.261 145.84 127.145 145.84 125.767C145.84 124.389 146.957 123.272 148.334 123.272H158.271C159.649 123.272 160.765 124.389 160.765 125.767Z" fill="#9D95F8"/>
<path fill-rule="evenodd" clip-rule="evenodd" d="M154.545 58.4173C155.233 58.4173 155.792 57.8589 155.792 57.1701C155.792 56.4813 155.233 55.9229 154.545 55.9229H145.845C145.156 55.9229 144.598 56.4813 144.598 57.1701C144.598 57.8589 145.156 58.4173 145.845 58.4173H154.545ZM162.005 58.4173C162.694 58.4173 163.252 57.8589 163.252 57.1701C163.252 56.4813 162.694 55.9229 162.005 55.9229H159.525C158.836 55.9229 158.277 56.4813 158.277 57.1701C158.277 57.8589 158.836 58.4173 159.525 58.4173H162.005Z" fill="#9D95F8"/>
<path opacity="0.5" d="M70.0508 66.7822C70.0508 64.5731 71.8416 62.7822 74.0508 62.7822H140.429C142.638 62.7822 144.429 64.5731 144.429 66.7822V100.855C144.429 103.065 142.638 104.855 140.429 104.855H74.0508C71.8416 104.855 70.0508 103.065 70.0508 100.855V66.7822Z" fill="#EFEEFB"/>
<path d="M71.0039 65.8262C71.0039 63.617 72.7948 61.8262 75.0039 61.8262H141.382C143.592 61.8262 145.382 63.617 145.382 65.8262V99.8993C145.382 102.108 143.592 103.899 141.382 103.899H75.0039C72.7948 103.899 71.0039 102.108 71.0039 99.8993V65.8262Z" fill="white"/>
<path fill-rule="evenodd" clip-rule="evenodd" d="M115.57 79.3812C115.787 79.2743 115.95 79.0901 116.112 78.8932C116.31 78.6535 116.503 78.4257 116.743 78.2309C117.03 77.9977 117.414 77.7745 117.898 77.7039C117.803 78.249 117.752 78.8093 117.752 79.3812H115.57ZM117.197 73.3719L117.198 73.3721L117.197 73.3718C117.439 73.3863 117.674 73.3075 117.913 73.2172C118.206 73.1073 118.488 73.0059 118.794 72.9557C119.163 72.8956 119.611 72.8928 120.067 73.0734C119.344 73.9302 118.764 74.91 118.366 75.9769C117.983 75.6765 117.763 75.2929 117.632 74.9485C117.523 74.6612 117.47 74.3682 117.42 74.0629C117.379 73.8122 117.331 73.5717 117.197 73.3719ZM121.643 68.9726L121.643 68.9728V68.9725C121.845 69.1047 122.088 69.1526 122.341 69.193C122.65 69.2424 122.946 69.2944 123.236 69.4024C123.586 69.5325 123.975 69.7518 124.279 70.1341C123.2 70.5265 122.209 71.099 121.342 71.8139C121.159 71.3618 121.161 70.9178 121.222 70.5528C121.273 70.2501 121.376 69.9702 121.487 69.6811C121.578 69.444 121.658 69.2117 121.643 68.9726ZM127.716 67.3623V67.3626L127.716 67.3623C127.824 67.5767 128.01 67.7385 128.209 67.8986C128.451 68.0942 128.682 68.2857 128.878 68.5228C129.116 68.8089 129.342 69.1922 129.412 69.6746C128.861 69.5811 128.294 69.5317 127.716 69.5317C127.137 69.5317 126.571 69.5811 126.019 69.6747C126.089 69.1922 126.316 68.8089 126.553 68.5228C126.75 68.2857 126.98 68.0942 127.222 67.8986C127.421 67.7385 127.608 67.5767 127.716 67.3623ZM133.788 68.9725V68.9728L133.789 68.9726C133.774 69.2116 133.853 69.4439 133.945 69.6811C134.056 69.9702 134.158 70.2501 134.209 70.5528C134.27 70.9177 134.273 71.3617 134.09 71.8138C133.223 71.0989 132.231 70.5266 131.152 70.134C131.456 69.7518 131.846 69.5325 132.195 69.4024C132.486 69.2942 132.782 69.2423 133.09 69.1929C133.344 69.1526 133.587 69.1047 133.788 68.9725ZM138.234 73.3716L138.234 73.3719H138.234C138.101 73.5716 138.052 73.8122 138.011 74.0629C137.962 74.3681 137.909 74.6612 137.8 74.9484C137.669 75.2928 137.449 75.6764 137.066 75.9767C136.667 74.9099 136.088 73.9301 135.364 73.0733C135.821 72.8928 136.269 72.8955 136.637 72.9556C136.943 73.0058 137.226 73.1072 137.518 73.2171C137.758 73.3075 137.993 73.3863 138.234 73.3716ZM137.534 77.7038C138.017 77.7745 138.401 77.9976 138.689 78.2309C138.928 78.4256 139.122 78.6534 139.319 78.8932C139.481 79.09 139.645 79.2743 139.861 79.3812H137.68C137.679 78.8093 137.629 78.249 137.534 77.7038ZM130.611 70.7434C134.279 71.9421 136.929 75.3547 136.944 79.3814H135.13C135.25 75.864 133.699 72.6892 130.611 70.7434Z" fill="#FAB401"/>
<path fill-rule="evenodd" clip-rule="evenodd" d="M130.982 79.3804H131.925C131.971 78.3664 131.883 77.1651 131.552 76.1161C131.486 75.9092 131.411 75.7082 131.326 75.5164C131.126 75.0631 130.856 74.6527 130.533 74.2735C130.176 73.8523 129.749 73.4735 129.268 73.1751C129.126 73.087 128.979 73.0057 128.827 72.9323V72.9321C128.677 72.8591 128.521 72.794 128.36 72.7376L128.36 72.7374C126.523 72.0922 124.666 72.551 123.108 73.3898C122.804 73.5532 122.512 73.731 122.233 73.9178C121.955 74.1045 121.69 74.3006 121.441 74.5006H121.441L121.441 74.501C121.145 74.7385 120.775 75.0632 120.408 75.4472C120.336 75.5228 120.265 75.5998 120.196 75.6777C120.01 75.8855 119.725 76.1769 119.81 76.4784C119.877 76.7175 120.188 76.6469 120.297 76.5645C120.464 76.4762 120.647 76.3359 120.803 76.2047C121.015 76.0271 121.215 75.8359 121.425 75.6558C122.275 74.9273 123.16 74.3656 124.032 73.9853C124.222 73.9025 124.412 73.8279 124.602 73.7621C124.791 73.6963 124.979 73.6394 125.165 73.5916L125.166 73.5914C126.788 73.1744 128.551 73.4446 129.68 74.7537C130.767 76.0148 130.966 77.703 130.982 79.3804ZM119.281 77.9549C119.382 77.8613 119.486 77.7392 119.593 77.604C119.744 77.415 119.759 77.2321 119.7 77.1C119.677 77.0507 119.645 77.0083 119.605 76.9753C119.565 76.9428 119.519 76.9195 119.469 76.9082C119.346 76.8804 119.199 76.9238 119.075 77.0738C118.934 77.2435 118.739 77.5334 118.699 77.7899C118.692 77.8381 118.69 77.8848 118.695 77.9286C118.7 77.9714 118.711 78.0119 118.731 78.0488L118.731 78.0493L118.731 78.0492C118.763 78.1095 118.816 78.1412 118.888 78.1439C118.903 78.1444 118.919 78.1438 118.936 78.1418C118.953 78.1401 118.971 78.1369 118.99 78.1324V78.1325L118.991 78.1322C119.087 78.1095 119.183 78.0456 119.281 77.9549ZM129.064 79.3804H129.999C130.043 78.2876 129.865 77.1589 129.352 76.1823C128.885 75.2938 128.113 74.6899 127.113 74.5439C125.654 74.331 124.182 74.942 122.938 75.8166C121.582 76.7687 120.464 78.0617 119.486 79.3804L120.722 79.3788C121.834 77.8187 124.393 75.4502 126.274 75.4347C126.874 75.4297 127.484 75.5691 127.935 75.9672C128.262 76.2556 128.657 76.8157 128.638 77.2702C128.627 77.5399 128.385 77.6225 128.153 77.539C127.973 77.4741 127.846 77.3112 127.72 77.14C127.31 76.5836 126.672 76.3114 125.971 76.4062C125.135 76.5193 124.1 77.1613 123.431 77.7453C122.855 78.2489 122.326 78.8002 121.827 79.3804H123.156C123.643 78.799 124.157 78.303 124.818 77.8955C125.027 77.7666 125.284 77.6302 125.555 77.5382C126.238 77.3058 126.918 77.3647 127.219 78.2061C127.338 78.5369 127.355 78.827 127.321 79.3589L127.321 79.3804H128.224L128.226 79.3532C128.227 79.062 128.221 78.8658 128.247 78.5772C128.27 78.3284 128.348 78.0707 128.581 78.0402C129.078 77.9373 129.054 79.0295 129.064 79.3804ZM122.697 82.2049H121.963L121.781 82.8378H121.196L121.97 80.4142H122.711L123.507 82.8378H122.896L122.697 82.2049ZM122.046 81.7949H122.609C122.462 81.3215 122.366 80.9967 122.322 80.8205H122.315L122.199 81.2808L122.046 81.7949ZM120.001 82.2049H119.267L119.085 82.8378H118.5L119.274 80.4142H120.015L120.811 82.8378H120.2L120.001 82.2049ZM119.35 81.7949H119.913C119.766 81.3215 119.67 80.9967 119.626 80.8205H119.619L119.503 81.2808L119.35 81.7949ZM124.066 82.8269V80.4465C124.308 80.4106 124.568 80.3927 124.844 80.3927C125.366 80.3927 125.741 80.5004 125.968 80.7169C126.195 80.9332 126.308 81.216 126.308 81.5648C126.308 81.9771 126.179 82.2967 125.921 82.5232C125.662 82.7497 125.263 82.8629 124.724 82.8629C124.474 82.8629 124.255 82.851 124.066 82.8269ZM124.629 80.8421V82.4206C124.661 82.4278 124.729 82.4315 124.833 82.4315C125.113 82.4315 125.33 82.3583 125.483 82.2126C125.636 82.067 125.712 81.8585 125.712 81.5865C125.712 81.3371 125.643 81.1472 125.503 81.0165C125.363 80.8859 125.161 80.8205 124.898 80.8205C124.788 80.8205 124.698 80.8278 124.629 80.8421ZM126.911 80.4142H127.474V81.3454H128.437V80.4142H129V82.8378H128.437V81.8274H127.474V82.8378H126.911V80.4142ZM131.042 82.2049H130.308L130.127 82.8378H129.542L130.316 80.4142H131.057L131.853 82.8378H131.242L131.042 82.2049ZM130.392 81.7949H130.955C130.807 81.3215 130.712 80.9967 130.668 80.8205H130.661L130.545 81.2808L130.392 81.7949ZM133.738 82.2049H133.004L132.823 82.8378H132.238L133.012 80.4142H133.753L134.549 82.8378H133.938L133.738 82.2049ZM133.088 81.7949H133.651C133.503 81.3215 133.408 80.9967 133.364 80.8205H133.357L133.24 81.2808L133.088 81.7949ZM135.108 82.8378V80.4465C135.314 80.4106 135.567 80.3927 135.867 80.3927C136.238 80.3927 136.504 80.4531 136.667 80.5742C136.829 80.6952 136.91 80.8685 136.91 81.0938C136.91 81.228 136.87 81.3491 136.788 81.4575C136.706 81.566 136.6 81.6428 136.471 81.6871V81.7015C136.623 81.7578 136.733 81.9064 136.801 82.1473C136.926 82.5813 136.994 82.8114 137.005 82.8378H136.431C136.382 82.7479 136.324 82.5597 136.256 82.2733C136.222 82.1294 136.176 82.0288 136.118 81.9712C136.06 81.9136 135.967 81.8849 135.838 81.8849H135.664V82.8378H135.108ZM135.664 80.8205V81.4858H135.896C136.037 81.4858 136.148 81.454 136.229 81.391C136.31 81.3281 136.351 81.2436 136.351 81.137C136.351 81.0302 136.314 80.9475 136.241 80.8894C136.168 80.8312 136.064 80.8025 135.929 80.8025C135.797 80.8025 135.709 80.8086 135.664 80.8205ZM125.692 79.3827L126.442 79.3804C126.54 78.7538 126.348 78.2715 125.707 78.3864C125.167 78.4835 124.587 79.0141 124.237 79.3804L125.226 79.3761C125.336 79.3045 125.551 79.2228 125.64 79.2837C125.673 79.3064 125.69 79.3387 125.692 79.3827ZM133.341 79.3809L133.348 79.3806H133.351C133.45 79.386 133.621 79.341 133.72 79.1762C133.74 79.1432 133.757 79.1055 133.769 79.0627C133.782 79.0192 133.791 78.9698 133.795 78.9144H133.795L133.796 78.903C133.871 76.3111 133.069 74.1655 131.707 72.7076C131.442 72.4247 131.156 72.1672 130.851 71.9372C130.546 71.7075 130.223 71.5055 129.883 71.3334V71.3335L129.878 71.3307L129.878 71.3306C128.733 70.7517 127.435 70.5294 126.16 70.6363C125.912 70.6571 125.664 70.6902 125.42 70.7357C125.176 70.781 124.933 70.839 124.694 70.9088L124.69 70.9099C123.38 71.2935 122.16 72.0549 121.166 73.0541C120.973 73.2488 120.788 73.4523 120.613 73.6634C120.526 73.7682 120.441 73.8751 120.359 73.9836C121.056 73.3885 121.804 72.8666 122.586 72.4518C122.762 72.3584 122.939 72.2707 123.117 72.1893C123.295 72.1079 123.475 72.0318 123.657 71.9618L123.658 71.9616L123.658 71.9614C124.349 71.6957 125.03 71.5261 125.712 71.4504C126.393 71.3746 127.075 71.3927 127.767 71.5016C128.26 71.5792 128.741 71.7068 129.174 71.8855C129.258 71.92 129.341 71.9569 129.422 71.9957C129.502 72.034 129.58 72.0749 129.657 72.1179H129.657L129.659 72.1185V72.1186C131.184 72.9451 132.244 74.6411 132.71 76.556C132.801 76.9294 132.87 77.3109 132.915 77.6951C132.96 78.0794 132.981 78.4676 132.979 78.8553V78.8555L132.978 78.8777C132.986 79.0852 133.058 79.2586 133.181 79.3367C133.204 79.3512 133.229 79.3626 133.255 79.3699H133.255C133.282 79.3775 133.311 79.3812 133.341 79.3809Z" fill="#D32828"/>
<rect x="77.6289" y="91.7207" width="26.4992" height="2.21438" rx="1.10719" fill="#EFEEFB"/>
<rect x="77.6289" y="86.1846" width="26.4992" height="2.21438" rx="1.10719" fill="#EFEEFB"/>
<rect x="77.6289" y="80.6484" width="33.1241" height="2.21438" rx="1.10719" fill="#EFEEFB"/>
<path d="M77.8283 74.0059C77.7776 74.0059 77.7302 73.9889 77.6859 73.9548C77.6479 73.9207 77.6289 73.8781 77.6289 73.827C77.6289 73.7759 77.6511 73.7248 77.6954 73.6737L79.3472 71.7404L77.7998 69.9093C77.7555 69.8639 77.7333 69.8128 77.7333 69.756C77.7333 69.7049 77.7523 69.6623 77.7903 69.6282C77.8283 69.5942 77.8757 69.5771 77.9327 69.5771H78.4169C78.5118 69.5771 78.5941 69.6226 78.6637 69.7134L79.9263 71.1868L81.1889 69.7219C81.2269 69.6765 81.2617 69.6424 81.2934 69.6197C81.3313 69.5913 81.3788 69.5771 81.4358 69.5771H81.9009C81.9579 69.5771 82.0054 69.5942 82.0433 69.6282C82.0813 69.6623 82.1003 69.7049 82.1003 69.756C82.1003 69.8128 82.0781 69.8639 82.0338 69.9093L80.4674 71.7575L82.1193 73.6737C82.1636 73.7248 82.1857 73.7759 82.1857 73.827C82.1857 73.8781 82.1667 73.9207 82.1288 73.9548C82.0908 73.9889 82.0433 74.0059 81.9864 74.0059H81.4832C81.3883 74.0059 81.306 73.9633 81.2364 73.8781L79.9073 72.3196L78.5593 73.8781C78.5213 73.9179 78.4833 73.9491 78.4453 73.9718C78.4137 73.9945 78.3694 74.0059 78.3124 74.0059H77.8283Z" fill="#B9B3F9"/>
<path d="M84.4063 74.0059C84.3557 74.0059 84.3082 73.9889 84.2639 73.9548C84.2259 73.9207 84.207 73.8781 84.207 73.827C84.207 73.7759 84.2291 73.7248 84.2734 73.6737L85.9253 71.7404L84.3778 69.9093C84.3335 69.8639 84.3114 69.8128 84.3114 69.756C84.3114 69.7049 84.3304 69.6623 84.3683 69.6282C84.4063 69.5942 84.4538 69.5771 84.5107 69.5771H84.9949C85.0898 69.5771 85.1721 69.6226 85.2417 69.7134L86.5044 71.1868L87.767 69.7219C87.805 69.6765 87.8398 69.6424 87.8714 69.6197C87.9094 69.5913 87.9568 69.5771 88.0138 69.5771H88.479C88.5359 69.5771 88.5834 69.5942 88.6214 69.6282C88.6594 69.6623 88.6783 69.7049 88.6783 69.756C88.6783 69.8128 88.6562 69.8639 88.6119 69.9093L87.0455 71.7575L88.6973 73.6737C88.7416 73.7248 88.7638 73.7759 88.7638 73.827C88.7638 73.8781 88.7448 73.9207 88.7068 73.9548C88.6688 73.9889 88.6214 74.0059 88.5644 74.0059H88.0613C87.9663 74.0059 87.8841 73.9633 87.8144 73.8781L86.4854 72.3196L85.1373 73.8781C85.0993 73.9179 85.0614 73.9491 85.0234 73.9718C84.9917 73.9945 84.9474 74.0059 84.8905 74.0059H84.4063Z" fill="#B9B3F9"/>
<path d="M90.9844 74.0059C90.9337 74.0059 90.8863 73.9889 90.842 73.9548C90.804 73.9207 90.785 73.8781 90.785 73.827C90.785 73.7759 90.8072 73.7248 90.8515 73.6737L92.5033 71.7404L90.9559 69.9093C90.9116 69.8639 90.8894 69.8128 90.8894 69.756C90.8894 69.7049 90.9084 69.6623 90.9464 69.6282C90.9844 69.5942 91.0318 69.5771 91.0888 69.5771H91.573C91.6679 69.5771 91.7502 69.6226 91.8198 69.7134L93.0824 71.1868L94.345 69.7219C94.383 69.6765 94.4178 69.6424 94.4495 69.6197C94.4874 69.5913 94.5349 69.5771 94.5919 69.5771H95.057C95.114 69.5771 95.1615 69.5942 95.1994 69.6282C95.2374 69.6623 95.2564 69.7049 95.2564 69.756C95.2564 69.8128 95.2342 69.8639 95.1899 69.9093L93.6235 71.7575L95.2754 73.6737C95.3197 73.7248 95.3418 73.7759 95.3418 73.827C95.3418 73.8781 95.3228 73.9207 95.2849 73.9548C95.2469 73.9889 95.1994 74.0059 95.1425 74.0059H94.6393C94.5444 74.0059 94.4621 73.9633 94.3925 73.8781L93.0634 72.3196L91.7154 73.8781C91.6774 73.9179 91.6394 73.9491 91.6014 73.9718C91.5698 73.9945 91.5255 74.0059 91.4685 74.0059H90.9844Z" fill="#B9B3F9"/>
<path d="M97.5624 74.0059C97.5118 74.0059 97.4643 73.9889 97.42 73.9548C97.382 73.9207 97.3631 73.8781 97.3631 73.827C97.3631 73.7759 97.3852 73.7248 97.4295 73.6737L99.0814 71.7404L97.5339 69.9093C97.4896 69.8639 97.4675 69.8128 97.4675 69.756C97.4675 69.7049 97.4865 69.6623 97.5244 69.6282C97.5624 69.5942 97.6099 69.5771 97.6668 69.5771H98.151C98.2459 69.5771 98.3282 69.6226 98.3978 69.7134L99.6605 71.1868L100.923 69.7219C100.961 69.6765 100.996 69.6424 101.028 69.6197C101.065 69.5913 101.113 69.5771 101.17 69.5771H101.635C101.692 69.5771 101.74 69.5942 101.777 69.6282C101.815 69.6623 101.834 69.7049 101.834 69.756C101.834 69.8128 101.812 69.8639 101.768 69.9093L100.202 71.7575L101.853 73.6737C101.898 73.7248 101.92 73.7759 101.92 73.827C101.92 73.8781 101.901 73.9207 101.863 73.9548C101.825 73.9889 101.777 74.0059 101.721 74.0059H101.217C101.122 74.0059 101.04 73.9633 100.971 73.8781L99.6415 72.3196L98.2934 73.8781C98.2554 73.9179 98.2175 73.9491 98.1795 73.9718C98.1478 73.9945 98.1035 74.0059 98.0466 74.0059H97.5624Z" fill="#B9B3F9"/>
<path d="M183.971 83.438C189.421 80.2337 194.425 76.4576 198.614 71.5297C199.706 70.1769 198.506 68.2923 196.896 68.3846C193.065 68.6337 190.414 71.3109 187.824 73.8271C185.575 75.9206 183.494 78.151 181.43 80.5344C175.828 83.7548 169.688 86.2584 163.692 88.6694C161.399 89.6072 162.776 93.175 165.069 92.2372C168.772 90.764 172.466 89.2144 176.068 87.5197C172.855 92.1901 170.14 97.1947 167.914 102.457C166.918 104.728 170.399 106.295 171.396 104.024C174.059 97.7873 177.449 91.8606 181.582 86.3972C182.325 85.3907 183.144 84.3761 183.971 83.438Z" fill="#675AF6"/>
<path d="M217.629 80.741C215.67 81.1796 213.148 82.1416 211.003 82.2902C210.979 82.0607 210.879 81.8392 210.771 81.5412C210.369 80.6553 209.297 79.9948 208.269 80.4899C207.683 80.7837 203.45 83.0863 202.996 82.4379C202.45 81.6446 201.105 81.3223 200.33 82.0228C198.21 83.8706 196.085 84.9454 193.523 85.5248C193.704 85.0417 193.877 84.482 194.134 83.9908C194.837 82.6017 193.163 80.6123 191.701 81.3852C188.259 83.1403 184.995 85.1087 181.838 87.3752C179.83 88.8245 182.082 91.9132 184.09 90.464C185.817 89.2764 187.544 88.0888 189.363 87.0462C189.379 87.1992 189.311 87.2838 189.327 87.4368C189.303 88.677 190.033 89.7603 191.415 89.692C195.169 89.451 198.514 88.2476 201.45 86.0817C203.325 87.0444 205.686 86.022 207.819 85.0238C208.112 85.6117 208.626 86.099 209.252 86.1877C212.123 86.3492 215.247 85.2464 218.038 84.6428C220.371 84.0875 220.047 80.2542 217.629 80.741Z" fill="#675AF6"/>
<path fill-rule="evenodd" clip-rule="evenodd" d="M185.531 105.872C177.539 105.872 171 112.429 171 120.443C171 128.458 177.539 135.015 185.531 135.015C193.523 135.015 200.062 128.458 200.062 120.443C200.062 112.429 193.523 105.872 185.531 105.872Z" fill="white"/>
<path fill-rule="evenodd" clip-rule="evenodd" d="M171 120.443C171 112.429 177.539 105.872 185.531 105.872C193.523 105.872 200.062 112.429 200.062 120.443C200.062 128.458 193.523 135.015 185.531 135.015C177.539 135.015 171 128.458 171 120.443ZM180.264 130.097L177.357 127.729L183.228 120.351L177.357 112.793L180.082 110.608L185.531 117.456L190.98 110.608L193.705 112.793L187.834 120.351L193.705 127.729L190.799 130.097L185.531 123.316L180.264 130.097Z" fill="#D04954"/>
</g>
<defs>
<clipPath id="clip0">
<rect width="310" height="136" fill="white" transform="translate(0 0.582031)"/>
</clipPath>
</defs>
</svg>
