<svg width="310" height="124" viewBox="0 0 310 124" fill="none" xmlns="http://www.w3.org/2000/svg">
<path d="M265.383 121.371C260.831 123.495 94.4423 123.276 73.8523 123.276C65.3251 123.276 57.6431 124.88 51.6766 120.744C45.4549 116.43 40.5846 110.192 35.9946 105.098C26.5135 94.5753 18.8566 83.0538 17.7394 70.7166C17.3127 65.9865 17.957 61.0045 21.7813 56.9806C25.6055 52.9567 33.3126 50.2249 40.2373 51.6154C46.8231 52.9376 52.8314 57.6266 59.1243 55.7926C63.3586 54.5581 64.5302 51.068 65.3084 48.0788C68.2205 36.8748 73.5762 25.367 85.9527 17.3932C98.3335 9.422 119.384 6.31512 133.35 13.0736C141.053 16.8019 145.413 22.7638 148.651 28.6655C151.89 34.5672 154.375 40.7427 159.572 46.0093C164.769 51.276 173.484 55.6037 183.053 55.2999C191.455 55.0316 198.635 51.3499 204.655 47.5067C210.676 43.6607 216.446 39.3603 224.22 37.2581C231.994 35.153 242.576 36.1604 246.434 41.052C249.789 45.3086 246.886 50.4165 244.396 54.9194C241.501 60.1614 239.191 65.7456 240.43 71.2586C241.668 76.7716 247.245 82.1888 255.501 83.5602C263.049 84.8139 271.212 82.5721 278.731 83.8969C289.894 85.8651 294.735 95.246 291.275 102.462C287.814 109.677 278.572 114.999 269.275 119.493C269.275 119.493 269.275 119.493 269.27 119.493C267.785 120.216 266.526 120.837 265.383 121.371Z" fill="#EFEEFB"/>
<path d="M201.401 8.75577C202.913 9.6537 204.008 11.0724 204.884 12.5175C208.577 18.6062 209.123 25.6857 207.737 31.9509C206.355 38.2182 203.194 43.8103 199.836 49.1778C198.454 51.3915 194.085 60.1508 191.231 55.8547C189.328 52.9871 190.534 44.7441 190.541 41.6609C190.55 35.569 191.511 29.5959 193.372 23.9838C193.819 22.6312 200.21 8.04817 201.401 8.75577Z" fill="#E6E5F4"/>
<path d="M197.282 64.2294C207.554 59.9015 219.369 58.1729 231.317 59.2518C229.782 62.5051 226.477 64.6046 223.015 66.1083C214.814 69.6652 207.984 71.5105 198.878 72.8636C196.287 73.2483 186.39 73.1208 186.3 72.1063C186.016 68.9011 194.678 65.3237 197.282 64.2294Z" fill="#C6C2F9"/>
<path d="M165.015 97.5606L164.398 96.9992C168.707 92.8783 172.771 88.2547 176.474 83.2607C179.975 78.5399 183.255 73.3517 186.221 67.8413C189.006 62.6713 191.595 57.066 193.919 51.1834C196.132 45.5799 198.115 39.7378 199.818 33.8172C201.171 29.1063 202.745 22.8572 202.909 16.2737C202.926 15.5461 202.927 14.8131 202.91 14.0948L203.72 14.1829C203.736 14.9129 203.738 15.6566 203.719 16.3959C203.556 23.056 201.967 29.356 200.603 34.1031C198.896 40.0417 196.905 45.9051 194.683 51.5244C192.35 57.4314 189.748 63.059 186.956 68.2503C183.975 73.7861 180.681 78.9997 177.161 83.7438C173.438 88.7643 169.35 93.4122 165.015 97.5606Z" fill="#C6C2F9"/>
<path d="M180.879 77.6424C180.875 77.6402 180.868 77.6359 180.864 77.6337C180.667 77.5112 180.595 77.2746 180.702 77.1071C182.829 73.7693 187.194 70.9701 193.684 68.7876C202.958 65.6705 212.545 62.4468 223.094 62.4731C223.316 62.4745 223.521 62.6439 223.55 62.8516C223.579 63.0592 223.423 63.2274 223.201 63.226C212.787 63.1973 203.26 66.4011 194.047 69.4984C187.711 71.6298 183.461 74.3393 181.416 77.5511C181.31 77.7185 181.072 77.7542 180.879 77.6424Z" fill="#EFEEFB"/>
<path fill-rule="evenodd" clip-rule="evenodd" d="M186.981 66.9296C187.007 66.9617 187.036 66.9874 187.07 67.0068C187.17 67.0649 187.29 67.071 187.38 67.0088C192.07 63.9222 197.263 60.1569 200.991 55.2918C200.998 55.2876 201.006 55.2839 201.014 55.2803C201.023 55.2766 201.031 55.2729 201.038 55.2687C203.481 53.8436 205.684 52.3266 207.917 50.7672C212.507 47.5598 215.571 44.4002 217.558 40.8242C218.907 38.3921 220.304 34.7581 219.975 30.4844C220.067 30.3424 220.001 29.9058 219.655 28.2886L219.571 27.8923L219.217 28.0688C213.561 30.8747 210.331 36.1388 208.149 40.4157C207.437 41.8347 206.747 43.3092 206.08 44.737C204.726 47.6329 203.329 50.6222 201.666 53.3342C197.96 58.9368 192.178 63.1665 187.012 66.566C186.892 66.645 186.878 66.8066 186.981 66.9296ZM208.667 40.6946C210.756 36.6054 213.812 31.6009 219.05 28.7987C219.103 29.3087 219.296 29.9461 219.386 30.219C219.776 34.4814 218.382 38.1176 217.041 40.5369C215.092 44.0547 212.071 47.1667 207.534 50.3329C205.669 51.6393 203.819 52.9117 201.84 54.1259C201.944 53.9772 202.046 53.8238 202.147 53.6728L202.164 53.6481C203.842 50.9106 205.246 47.9086 206.605 45.0032C207.271 43.5786 207.959 42.1073 208.667 40.6946Z" fill="#E6E5F4"/>
<path d="M251.159 86.5219C250.16 85.195 248.536 84.3176 246.87 83.641C239.856 80.8081 231.558 81.0264 224.142 82.9732C216.726 84.92 210.033 88.4687 203.599 92.179C200.946 93.7067 190.488 98.7177 195.429 100.953C198.725 102.445 208.459 100.455 212.085 100.132C219.247 99.4904 226.302 97.9713 232.969 95.6404C234.564 95.0773 251.943 87.5652 251.159 86.5219Z" fill="#C6C2F9"/>
<path d="M244.874 84.9023C244.018 84.9635 243.142 85.0377 242.271 85.1337C234.437 85.9761 226.975 88.1194 221.341 89.8959C214.297 92.1133 207.334 94.5927 200.646 97.2597C193.616 100.062 186.903 103.087 180.699 106.252C179.955 106.631 179.222 107.011 178.488 107.4C178.998 107.426 179.507 107.456 180.016 107.487C180.393 107.29 180.765 107.094 181.147 106.902C187.326 103.755 194.014 100.739 201.012 97.9493C207.68 95.2911 214.623 92.8205 221.642 90.6074C227.229 88.8483 234.63 86.7182 242.378 85.8845C243.234 85.7928 244.094 85.7142 244.94 85.6575L244.874 84.9023Z" fill="#EFEEFB"/>
<path fill-rule="evenodd" clip-rule="evenodd" d="M202.48 85.5352C194.121 91.249 187.525 98.7656 182.1 105.505C181.999 105.636 181.999 105.798 182.095 105.915C182.126 105.955 182.167 105.994 182.218 106.025C182.416 106.142 182.691 106.099 182.829 105.929C188.804 98.5037 196.21 90.1272 205.801 84.3349C210.436 81.7028 215.525 79.3849 220.45 77.1457C222.88 76.0414 225.391 74.8977 227.806 73.7366C235.095 70.1792 244.095 65.0721 249.102 57.0798L249.423 56.5822L248.761 56.5254C246.071 56.3028 245.338 56.2766 245.099 56.425C237.947 56.6171 231.774 59.0309 227.627 61.196C221.52 64.3824 216.06 68.957 210.436 75.583C207.706 78.8044 205.042 81.9865 202.521 85.4654C202.506 85.4872 202.49 85.5134 202.48 85.5352ZM228.08 61.8376C232.211 59.6813 238.385 57.2762 245.511 57.1714C245.969 57.2544 247.024 57.4202 247.879 57.4115C242.898 64.8451 234.335 69.6815 227.367 73.0862C225.043 74.2045 222.624 75.3064 220.275 76.3762L220.033 76.4866L220.032 76.4869C215.086 78.7391 209.977 81.0656 205.297 83.7194C205.022 83.8853 204.747 84.0511 204.477 84.2214C206.621 81.3885 208.857 78.7215 211.144 76.0283C216.696 69.4808 222.08 64.9717 228.08 61.8376Z" fill="#E6E5F4"/>
<path d="M203.09 84.7017L203.635 85.2954C205 84.37 206.747 83.0474 208.596 81.6419C210.786 79.9832 213.048 78.2634 214.708 77.2027C220.128 73.7238 225.711 70.3103 231.309 67.0497C236.906 63.7934 242.667 60.6026 248.438 57.5645L247.98 56.9229C242.199 59.9653 236.423 63.1604 230.815 66.4255C225.206 69.6905 219.609 73.1127 214.179 76.5959C212.493 77.6784 210.216 79.407 208.01 81.0744C206.177 82.4756 204.435 83.7938 203.09 84.7017Z" fill="#E6E5F4"/>
<path d="M195.009 94.8303C195.285 91.8447 195.942 88.481 198.43 87.4186C198.795 87.2611 199.224 87.1692 199.616 87.3698C200.316 87.7232 200.474 88.7283 200.946 89.4067C201.94 90.8425 204.033 90.3403 204.82 89.0104C205.607 87.6804 205.597 85.9087 205.991 84.3488C206.335 82.9868 206.995 81.7663 207.904 80.8176C209.093 79.5803 211.366 79.0095 212.509 80.6309C213.335 81.809 212.989 83.3286 212.804 84.6714C212.618 86.0142 212.921 87.8509 214.18 88.3204C215.262 88.7235 216.162 87.7679 216.865 86.9507C218.575 84.9468 220.638 83.3053 222.941 82.1088C224.546 81.2749 226.348 80.6515 228.236 81.0035C230.121 81.3509 232.073 82.9122 232.51 84.9546C232.914 86.8594 231.945 88.6024 230.733 89.7991C227.431 93.0626 222.48 93.6794 218.231 95.4555C217.228 95.8746 216.098 96.8129 216.573 97.9956C216.907 98.8261 217.821 99.1516 218.592 99.4942C220.467 100.323 222.138 101.903 223.172 103.834C223.348 104.167 223.512 104.523 223.514 104.883C223.524 105.703 222.732 106.132 222.005 106.258C218.639 106.836 214.836 104.148 211.583 105.082C211.148 105.208 210.697 105.439 210.566 105.906C210.473 106.243 210.572 106.638 210.717 106.988C211.313 108.444 212.623 109.438 213.659 110.609C214.696 111.779 215.517 113.581 214.797 114.769C214.255 115.662 213.075 115.792 212.022 115.697C208.78 115.395 205.583 113.664 202.833 111.402C200.369 109.371 197.204 106.53 195.533 103.667C193.962 100.963 194.754 97.5751 195.009 94.8303Z" fill="#E6E5F4"/>
<path d="M227.212 86.4945L192.331 106.715" stroke="#EFEEFB" stroke-linecap="round"/>
<path d="M210.551 81.501C209.615 86.9182 208.552 92.294 207.365 97.6218" stroke="#EFEEFB" stroke-linecap="round"/>
<path d="M199.027 89.4033C198.704 94.0252 198.276 98.624 197.749 103.195" stroke="#EFEEFB" stroke-linecap="round"/>
<path d="M205.86 99.391C210.545 100.832 215.219 102.352 219.879 103.953" stroke="#EFEEFB" stroke-linecap="round"/>
<path d="M80.015 23.8353C78.585 24.6548 77.5708 25.962 76.7709 27.2953C73.4003 32.8962 73.0937 39.426 74.6268 45.2165C76.1585 51.0034 79.3904 56.1773 82.802 61.1475C84.2083 63.1965 88.7007 71.2963 91.3226 67.3445C93.0696 64.7076 91.6428 57.0971 91.5422 54.2491C91.3423 48.6235 90.2271 43.1109 88.25 37.9258C87.7764 36.6732 81.1463 23.1877 80.015 23.8353Z" fill="#C6C2F9"/>
<path d="M85.7459 75.0436C75.6916 71.0084 64.2305 69.3646 52.7266 70.3076C54.3099 73.3162 57.5694 75.2691 60.96 76.6681C68.992 79.9832 75.6411 81.7175 84.4779 82.9993C86.9911 83.3643 96.5412 83.29 96.5971 82.3539C96.771 79.4014 88.2979 76.0677 85.7459 75.0436Z" fill="#C6C2F9"/>
<path d="M117.958 105.934L118.538 105.421C114.245 101.601 110.176 97.3185 106.444 92.6909C102.913 88.3203 99.5874 83.5194 96.5446 78.4228C93.6938 73.6406 91.0147 68.457 88.585 63.0192C86.2731 57.8394 84.1699 52.4411 82.3389 46.9727C80.8835 42.6213 79.1664 36.8478 78.7976 30.7697C78.759 30.0982 78.7334 29.4218 78.7274 28.7593L77.9497 28.8345C77.9554 29.5097 77.9794 30.1949 78.0219 30.8776C78.3906 37.0226 80.1208 42.8456 81.5882 47.2303C83.426 52.7172 85.5315 58.1355 87.8544 63.3322C90.2922 68.7921 92.9836 73.9963 95.8467 78.7991C98.8989 83.9216 102.247 88.7436 105.792 93.1384C109.544 97.7834 113.637 102.091 117.958 105.934Z" fill="#E3EFFF"/>
<path d="M102.013 87.4918C102.017 87.4902 102.021 87.4886 102.024 87.4833C102.208 87.3703 102.275 87.1533 102.166 87.0008C100.007 83.9101 95.703 81.3104 89.3715 79.2678C80.3178 76.3511 70.9603 73.3364 60.7771 73.3201C60.5622 73.3193 60.3705 73.4771 60.3505 73.6642C60.3276 73.8565 60.482 74.0133 60.6956 74.0105C70.7477 74.0287 80.0488 77.0222 89.0417 79.9193C95.2278 81.9105 99.414 84.4278 101.492 87.4018C101.598 87.5596 101.825 87.5937 102.013 87.4918Z" fill="#EFEEFB"/>
<path fill-rule="evenodd" clip-rule="evenodd" d="M75.883 62.2051C81.2372 68.6311 88.5641 73.6213 95.1643 77.7106C95.2906 77.7898 95.4588 77.7827 95.583 77.7081C95.6277 77.6834 95.6697 77.6513 95.7034 77.6097C95.8353 77.4486 95.8118 77.2356 95.6419 77.1305C88.3693 72.6264 80.2152 67.0229 74.855 59.6249C72.4448 56.0447 70.3792 52.096 68.386 48.2798C67.4059 46.397 66.3874 44.4488 65.343 42.5769C62.142 36.9361 57.4549 29.9819 49.5378 26.2569L49.042 26.02L48.9444 26.5448C48.5435 28.6689 48.4703 29.2475 48.6055 29.4322C48.3469 35.0581 50.4357 39.8512 52.4045 43.0618C55.3008 47.7813 59.6649 51.9603 66.1375 56.2091C69.2806 58.2714 72.3864 60.2846 75.8139 62.176C75.8378 62.1882 75.8604 62.1966 75.883 62.2051ZM53.1037 42.6817C51.1458 39.488 49.0614 34.6933 49.408 29.0813C49.5203 28.7183 49.759 27.8827 49.8017 27.2065C57.1453 30.9238 61.5811 37.5349 64.6454 42.9331C65.6193 44.6762 66.5668 46.4874 67.4905 48.2531C67.5548 48.376 67.619 48.4987 67.683 48.6212L67.6917 48.6377C69.6932 52.4657 71.7604 56.4192 74.1947 60.0301C74.3492 60.2412 74.5038 60.4523 74.6627 60.6618C71.8793 59.0534 69.2758 57.3625 66.6447 55.6357C60.2548 51.4404 55.952 47.3226 53.1037 42.6817Z" fill="#C6C2F9"/>
<path d="M75.0657 61.7427L75.7096 61.2983C74.8468 60.2507 73.5893 58.9082 72.2596 57.4877C70.6896 55.8079 69.0654 54.0728 68.0755 52.7956C64.8361 48.6237 61.6739 44.3149 58.6743 39.9968C55.6747 35.6787 52.7565 31.2222 49.998 26.7616L49.3058 27.1401C52.0683 31.6117 54.9977 36.0724 58.0014 40.4016C61.005 44.7307 64.1742 49.0454 67.4219 53.2268C68.4297 54.5266 70.0637 56.275 71.6463 57.9627C72.9634 59.3753 74.2125 60.7082 75.0657 61.7427Z" fill="#C6C2F9"/>
<path d="M140.374 59.6283C144.895 54.4186 151.613 51.2136 158.508 48.6871C163.203 60.4364 160.096 73.3702 150.89 80.4227C149.284 81.651 147.467 82.7299 145.317 83.117C139.428 84.1714 136.307 80.1802 135.735 75.4482C135.001 69.4244 136.6 63.9822 140.374 59.6283Z" fill="#E6E5F4"/>
<path d="M156.675 53.0143L136.352 88.3578" stroke="#EFEEFB" stroke-linecap="round"/>
<path d="M149.641 53.3516C149.751 56.437 149.901 59.5272 150.091 62.6222" stroke="#EFEEFB" stroke-linecap="round"/>
<path d="M147.452 69.589C151.171 68.7828 154.786 67.6981 158.249 66.3438" stroke="#EFEEFB" stroke-linecap="round"/>
<path d="M108.931 39.2841C110.414 39.4423 111.841 40.2943 113.133 41.2709C118.561 45.3911 122.24 51.92 124.182 58.5675C126.124 65.2151 126.5 72.045 126.632 78.7485C126.688 81.5125 127.685 91.9362 123.678 89.1448C121.003 87.2838 118.02 78.8207 116.587 75.8615C113.76 70.0163 111.657 63.8472 110.357 57.6016C110.051 56.1055 107.766 39.16 108.931 39.2841Z" fill="#C6C2F9"/>
<path d="M113.089 43.4024C113.439 44.0936 113.788 44.8067 114.118 45.526C117.102 51.9851 118.915 58.7593 120.161 63.9469C121.723 70.4319 123.046 76.9751 124.097 83.3923C125.202 90.1366 125.99 96.7394 126.434 103.012C126.487 103.765 126.536 104.509 126.577 105.257C126.321 104.875 126.061 104.494 125.802 104.114C125.778 103.731 125.756 103.352 125.727 102.967C125.281 96.7215 124.498 90.1425 123.397 83.4279C122.349 77.0306 121.029 70.5071 119.475 64.0439C118.237 58.8999 116.442 52.1792 113.492 45.7911C113.165 45.0857 112.827 44.3825 112.478 43.7012L113.089 43.4024Z" fill="#E2EEFF"/>
<path fill-rule="evenodd" clip-rule="evenodd" d="M132.254 76.5375C131.738 85.6613 129.021 94.2555 126.357 101.582C126.304 101.722 126.179 101.797 126.044 101.776C126 101.771 125.951 101.757 125.904 101.732C125.721 101.633 125.627 101.4 125.694 101.214C128.629 93.1437 131.632 83.5234 131.637 73.4083C131.51 68.5975 130.932 63.5812 130.37 58.7275C130.092 56.3334 129.807 53.858 129.579 51.4495C128.934 44.1539 128.686 34.8142 132.506 27.2305L132.739 26.7512L133.09 27.2378C134.508 29.218 134.868 29.7741 134.865 30.0283C138.032 35.6573 139.039 41.5586 139.298 45.7741C139.681 51.9823 138.697 58.3328 136.213 65.7606C135.003 69.3689 133.793 72.9076 132.289 76.4735C132.279 76.4955 132.266 76.5195 132.254 76.5375ZM138.594 45.7205C138.336 41.5209 137.322 35.6236 134.099 30.0548C133.823 29.7382 133.206 28.9983 132.816 28.3313C129.414 35.6363 129.667 44.5112 130.281 51.4874C130.499 53.8063 130.774 56.1913 131.041 58.5069L131.069 58.7457L131.069 58.7463C131.631 63.6216 132.212 68.6575 132.342 73.5138C132.342 73.8037 132.342 74.0937 132.337 74.3817C133.519 71.4073 134.532 68.4388 135.541 65.4186C137.998 58.0825 138.967 51.8215 138.594 45.7205Z" fill="#C6C2F9"/>
<path d="M132.613 75.6772L131.904 75.5302C131.982 74.0437 132.188 72.0772 132.411 69.9933C132.67 67.5277 132.943 64.9785 132.989 63.2005C133.149 57.3894 133.184 51.4825 133.095 45.6345C133.002 39.7885 132.783 33.8467 132.442 27.9677L133.147 28.0254C133.49 33.9142 133.712 39.87 133.803 45.7279C133.894 51.5858 133.86 57.5086 133.7 63.3296C133.65 65.1375 133.378 67.7025 133.119 70.184C132.892 72.2541 132.687 74.2146 132.613 75.6772Z" fill="#C6C2F9"/>
<path d="M114.529 99.1251C108.739 91.3933 106.324 81.2225 104.885 71.0067C122.275 67.9715 139.011 76.0078 145.95 90.719C147.157 93.2851 148.1 96.0973 148.002 99.1655C147.726 107.57 141.374 110.7 134.754 110.109C126.329 109.36 119.368 105.582 114.529 99.1251Z" fill="#C6C2F9"/>
<path d="M110.254 74.7849L150.309 110.998" stroke="#EFEEFB" stroke-linecap="round"/>
<path d="M108.664 84.5537C112.904 85.2999 117.162 85.993 121.439 86.6331" stroke="#EFEEFB" stroke-linecap="round"/>
<path d="M130.173 92.2906C130.156 86.9418 129.729 81.6559 128.89 76.5005" stroke="#EFEEFB" stroke-linecap="round"/>
<path d="M127.732 115.365C125.541 116.888 122.872 118.37 120.715 117.269C120.399 117.109 120.09 116.869 119.997 116.483C119.837 115.8 120.427 115.115 120.623 114.395C121.028 112.89 119.486 111.739 118.13 111.965C116.773 112.19 115.567 113.211 114.277 113.838C113.151 114.384 111.938 114.63 110.774 114.549C109.249 114.445 107.555 113.207 108.002 111.494C108.329 110.247 109.568 109.615 110.587 108.972C111.607 108.33 112.684 107.064 112.282 105.928C111.936 104.952 110.768 104.883 109.807 104.87C107.457 104.841 105.154 104.369 103.02 103.475C101.533 102.848 100.072 101.969 99.225 100.473C98.3786 98.9762 98.321 96.7401 99.4624 95.2678C100.529 93.896 102.272 93.5628 103.788 93.7081C107.909 94.1035 111.169 97.1458 114.82 99.0482C115.682 99.4975 116.97 99.7319 117.5 98.7322C117.876 98.0267 117.571 97.2067 117.36 96.4851C116.844 94.7199 116.965 92.6641 117.689 90.8476C117.813 90.5355 117.96 90.2191 118.205 90.0084C118.757 89.5335 119.508 89.8271 120.008 90.2588C122.334 92.2387 122.688 96.3959 125.191 98.096C125.526 98.3266 125.946 98.4994 126.336 98.3226C126.622 98.1911 126.831 97.8974 126.989 97.5975C127.635 96.3529 127.561 94.8829 127.77 93.4976C127.972 92.1162 128.726 90.5151 129.949 90.33C130.869 90.1874 131.632 90.9259 132.174 91.705C133.833 94.1048 134.487 97.2993 134.521 100.484C134.553 103.343 134.433 107.148 133.441 109.945C132.514 112.562 129.748 113.964 127.732 115.365Z" fill="#E6E5F4"/>
<path d="M104.294 98.7572L133.221 109.329" stroke="#EFEEFB" stroke-linecap="round"/>
<path d="M111.535 111.744C113.276 110.714 115.014 109.677 116.754 108.647" stroke="#EFEEFB" stroke-linecap="round"/>
<path d="M118.992 107.103C119.922 106.619 120.846 106.133 121.776 105.65" stroke="#EFEEFB" stroke-linecap="round"/>
<path d="M122.285 114.818C125.225 112.861 128.186 110.949 131.173 109.085" stroke="#EFEEFB" stroke-linecap="round"/>
<path d="M126.619 106.66C124.688 103.126 122.8 99.5639 120.95 95.9708" stroke="#EFEEFB" stroke-linecap="round"/>
<path fill-rule="evenodd" clip-rule="evenodd" d="M127.337 58.5465C127.291 58.398 127.266 58.2403 127.266 58.0767V50.0261C127.266 46.4996 130.209 43.6318 133.828 43.6318H173.203C176.822 43.6318 179.766 46.4996 179.766 50.0261V58.0767C179.766 58.2403 179.74 58.398 179.694 58.5465C179.74 58.6995 179.766 58.8621 179.766 59.0306V108.27V108.45V116.263C179.766 119.815 176.822 122.703 173.203 122.703H133.828C130.209 122.703 127.266 119.815 127.266 116.263V108.45V108.27V59.0306C127.266 58.8621 127.291 58.6995 127.337 58.5465Z" fill="#8279F8"/>
<path fill-rule="evenodd" clip-rule="evenodd" d="M129.551 106.659H177.486V59.6748H129.551V106.659Z" fill="#C6C2F9"/>
<path fill-rule="evenodd" clip-rule="evenodd" d="M129.551 108.952V116.569C129.551 118.687 131.087 120.412 132.975 120.412H174.062C175.949 120.412 177.486 118.687 177.486 116.569V108.952H129.551Z" fill="#C6C2F9"/>
<path fill-rule="evenodd" clip-rule="evenodd" d="M129.551 57.3835H177.486V49.7208C177.486 47.6277 175.949 45.9238 174.062 45.9238H132.975C131.087 45.9238 129.551 47.6277 129.551 49.7208V57.3835Z" fill="#C6C2F9"/>
<path d="M160.364 114.682C160.364 115.947 159.337 116.973 158.072 116.973H148.96C147.694 116.973 146.668 115.947 146.668 114.682C146.668 113.416 147.694 112.39 148.96 112.39H158.072C159.337 112.39 160.364 113.416 160.364 114.682Z" fill="#9D95F8"/>
<path fill-rule="evenodd" clip-rule="evenodd" d="M154.653 52.7997C155.286 52.7997 155.799 52.2867 155.799 51.6538C155.799 51.0209 155.286 50.5078 154.653 50.5078H146.673C146.04 50.5078 145.527 51.0209 145.527 51.6538C145.527 52.2867 146.04 52.7997 146.673 52.7997H154.653ZM161.501 52.7997C162.133 52.7997 162.647 52.2867 162.647 51.6538C162.647 51.0209 162.133 50.5078 161.501 50.5078H159.227C158.594 50.5078 158.081 51.0209 158.081 51.6538C158.081 52.2867 158.594 52.7997 159.227 52.7997H161.501Z" fill="#9D95F8"/>
<path opacity="0.5" d="M77.125 60.8106C77.125 58.6014 78.9159 56.8105 81.125 56.8105H141.375C143.584 56.8105 145.375 58.6014 145.375 60.8105V91.4677C145.375 93.6768 143.584 95.4677 141.375 95.4677H81.125C78.9159 95.4677 77.125 93.6768 77.125 91.4677V60.8106Z" fill="#EFEEFB"/>
<path d="M78 59.9316C78 57.7225 79.7909 55.9316 82 55.9316H142.25C144.459 55.9316 146.25 57.7225 146.25 59.9316V90.5888C146.25 92.7979 144.459 94.5888 142.25 94.5888H82C79.7909 94.5888 78 92.7979 78 90.5888V59.9316Z" fill="white"/>
<path fill-rule="evenodd" clip-rule="evenodd" d="M118.895 72.0616C119.093 71.9634 119.243 71.7941 119.392 71.6132C119.573 71.393 119.751 71.1837 119.971 71.0047C120.234 70.7904 120.587 70.5854 121.03 70.5205C120.943 71.0213 120.897 71.5361 120.896 72.0616H118.895ZM120.387 66.5402L120.388 66.5404L120.388 66.5401C120.609 66.5534 120.825 66.4811 121.045 66.3981C121.313 66.2971 121.572 66.2039 121.853 66.1578C122.191 66.1026 122.602 66.1 123.021 66.2659C122.357 67.0532 121.825 67.9534 121.46 68.9337C121.108 68.6577 120.906 68.3052 120.786 67.9888C120.686 67.7248 120.638 67.4556 120.592 67.1751C120.554 66.9447 120.51 66.7238 120.387 66.5402ZM124.467 62.4981L124.467 62.4983V62.498C124.652 62.6195 124.875 62.6635 125.108 62.7006C125.391 62.746 125.662 62.7937 125.929 62.893C126.25 63.0126 126.607 63.214 126.886 63.5653C125.896 63.9258 124.986 64.4519 124.19 65.1087C124.023 64.6934 124.025 64.2853 124.081 63.95C124.127 63.6718 124.221 63.4147 124.323 63.1491C124.407 62.9312 124.48 62.7178 124.467 62.4981ZM130.039 61.0186V61.0189L130.039 61.0186C130.138 61.2155 130.309 61.3642 130.492 61.5113C130.714 61.691 130.925 61.867 131.106 62.0848C131.324 62.3477 131.532 62.6998 131.596 63.1431C131.09 63.0572 130.57 63.0118 130.039 63.0118C129.508 63.0118 128.989 63.0572 128.482 63.1432C128.547 62.6998 128.755 62.3477 128.972 62.0848C129.153 61.867 129.364 61.691 129.586 61.5113C129.769 61.3642 129.94 61.2155 130.039 61.0186ZM135.611 62.498V62.4983L135.612 62.4981C135.598 62.7177 135.671 62.9312 135.755 63.1491C135.857 63.4147 135.951 63.6718 135.998 63.95C136.053 64.2852 136.056 64.6933 135.888 65.1086C135.092 64.4518 134.183 63.9259 133.192 63.5652C133.472 63.214 133.829 63.0126 134.15 62.893C134.416 62.7936 134.688 62.7459 134.971 62.7005C135.203 62.6635 135.426 62.6195 135.611 62.498ZM139.691 66.54L139.691 66.5402H139.691C139.568 66.7237 139.524 66.9447 139.487 67.1751C139.441 67.4555 139.393 67.7248 139.292 67.9887C139.172 68.3051 138.97 68.6576 138.619 68.9336C138.253 67.9533 137.721 67.0531 137.057 66.2658C137.476 66.1 137.887 66.1025 138.226 66.1577C138.506 66.2038 138.766 66.297 139.034 66.398C139.254 66.4811 139.469 66.5534 139.691 66.54ZM139.048 70.5204C139.492 70.5854 139.844 70.7903 140.108 71.0047C140.328 71.1836 140.505 71.3929 140.687 71.6132C140.835 71.794 140.985 71.9634 141.184 72.0616H139.182C139.182 71.5361 139.135 71.0213 139.048 70.5204ZM132.696 64.1252C136.061 65.2265 138.493 68.3621 138.507 72.0618H136.842C136.953 68.83 135.529 65.913 132.696 64.1252Z" fill="#FAB401"/>
<path fill-rule="evenodd" clip-rule="evenodd" d="M133.036 72.0609H133.901C133.943 71.1293 133.862 70.0255 133.558 69.0617C133.498 68.8715 133.429 68.6868 133.351 68.5106C133.167 68.0941 132.919 67.7171 132.624 67.3686C132.296 66.9817 131.904 66.6336 131.463 66.3594C131.333 66.2785 131.198 66.2038 131.059 66.1364V66.1362C130.92 66.0691 130.777 66.0093 130.63 65.9575L130.629 65.9572C128.944 65.3645 127.24 65.786 125.81 66.5567C125.532 66.7068 125.263 66.8702 125.008 67.0419C124.752 67.2134 124.509 67.3936 124.281 67.5773H124.281L124.28 67.5777C124.009 67.7959 123.669 68.0942 123.333 68.4471C123.267 68.5165 123.202 68.5872 123.138 68.6588C122.968 68.8498 122.706 69.1176 122.784 69.3945C122.845 69.6142 123.131 69.5494 123.231 69.4737C123.384 69.3925 123.552 69.2636 123.695 69.1431C123.89 68.9799 124.074 68.8042 124.266 68.6387C125.046 67.9694 125.858 67.4532 126.658 67.1039C126.832 67.0278 127.007 66.9592 127.181 66.8987C127.354 66.8383 127.527 66.7861 127.698 66.7421L127.699 66.7419C129.187 66.3588 130.805 66.607 131.841 67.8099C132.838 68.9686 133.021 70.5197 133.036 72.0609ZM122.299 70.7512C122.392 70.6652 122.486 70.553 122.585 70.4287C122.723 70.2551 122.737 70.087 122.683 69.9657C122.662 69.9204 122.632 69.8814 122.596 69.8511C122.56 69.8212 122.517 69.7998 122.471 69.7894C122.358 69.7639 122.224 69.8037 122.109 69.9416C121.98 70.0975 121.802 70.3639 121.765 70.5996C121.758 70.6438 121.756 70.6868 121.761 70.727C121.766 70.7663 121.776 70.8035 121.794 70.8375L121.794 70.8379L121.794 70.8378C121.823 70.8932 121.872 70.9223 121.938 70.9248C121.951 70.9253 121.966 70.9247 121.982 70.9229C121.997 70.9213 122.014 70.9183 122.032 70.9142V70.9143L122.032 70.9141C122.121 70.8932 122.209 70.8345 122.299 70.7512ZM131.275 72.0609H132.133C132.174 71.0569 132.011 70.0198 131.54 69.1224C131.111 68.3061 130.403 67.7512 129.486 67.6171C128.147 67.4215 126.796 67.9829 125.654 68.7865C124.41 69.6613 123.384 70.8493 122.487 72.0609L123.621 72.0594C124.641 70.626 126.989 68.4498 128.716 68.4356C129.266 68.431 129.826 68.5591 130.239 68.9248C130.539 69.1898 130.903 69.7044 130.885 70.1221C130.874 70.3698 130.652 70.4457 130.44 70.3691C130.274 70.3094 130.158 70.1597 130.042 70.0024C129.666 69.4912 129.08 69.2411 128.437 69.3282C127.671 69.4322 126.72 70.022 126.107 70.5585C125.578 71.0213 125.093 71.5278 124.635 72.0609H125.854C126.301 71.5267 126.773 71.0709 127.379 70.6966C127.571 70.5781 127.807 70.4528 128.056 70.3683C128.682 70.1548 129.306 70.2089 129.583 70.982C129.692 71.2859 129.708 71.5525 129.676 72.0411L129.676 72.0609H130.505L130.507 72.0359C130.507 71.7684 130.502 71.5881 130.526 71.323C130.547 71.0944 130.619 70.8576 130.833 70.8295C131.288 70.735 131.266 71.7385 131.275 72.0609ZM125.433 74.6561H124.759L124.593 75.2376H124.056L124.766 73.0108H125.446L126.176 75.2376H125.616L125.433 74.6561ZM124.836 74.2794H125.353C125.217 73.8445 125.129 73.546 125.089 73.3841H125.083L124.976 73.807L124.836 74.2794ZM122.959 74.6561H122.286L122.119 75.2376H121.582L122.292 73.0108H122.972L123.703 75.2376H123.142L122.959 74.6561ZM122.362 74.2794H122.879C122.743 73.8445 122.656 73.546 122.616 73.3841H122.609L122.502 73.807L122.362 74.2794ZM126.69 75.2276V73.0404C126.912 73.0075 127.15 72.991 127.403 72.991C127.882 72.991 128.226 73.09 128.435 73.2889C128.643 73.4877 128.747 73.7475 128.747 74.068C128.747 74.4468 128.629 74.7404 128.391 74.9485C128.154 75.1567 127.788 75.2607 127.293 75.2607C127.064 75.2607 126.863 75.2497 126.69 75.2276ZM127.206 73.404V74.8543C127.235 74.8609 127.298 74.8643 127.393 74.8643C127.65 74.8643 127.849 74.797 127.989 74.6632C128.13 74.5294 128.2 74.3378 128.2 74.0879C128.2 73.8587 128.136 73.6842 128.008 73.5642C127.879 73.4441 127.694 73.3841 127.453 73.3841C127.352 73.3841 127.27 73.3908 127.206 73.404ZM129.3 73.0108H129.817V73.8664H130.7V73.0108H131.217V75.2376H130.7V74.3092H129.817V75.2376H129.3V73.0108ZM133.091 74.6561H132.418L132.251 75.2376H131.714L132.424 73.0108H133.104L133.834 75.2376H133.274L133.091 74.6561ZM132.494 74.2794H133.011C132.875 73.8445 132.787 73.546 132.748 73.3841H132.741L132.634 73.807L132.494 74.2794ZM135.565 74.6561H134.891L134.725 75.2376H134.188L134.898 73.0108H135.578L136.308 75.2376H135.748L135.565 74.6561ZM134.968 74.2794H135.485C135.349 73.8445 135.261 73.546 135.221 73.3841H135.215L135.108 73.807L134.968 74.2794ZM136.822 75.2376V73.0404C137.01 73.0075 137.243 72.991 137.518 72.991C137.859 72.991 138.103 73.0466 138.252 73.1578C138.401 73.269 138.475 73.4282 138.475 73.6352C138.475 73.7585 138.438 73.8698 138.363 73.9694C138.288 74.0691 138.191 74.1396 138.072 74.1803V74.1936C138.212 74.2453 138.313 74.3818 138.375 74.6031C138.49 75.0019 138.552 75.2133 138.562 75.2376H138.035C137.991 75.155 137.937 74.9821 137.875 74.7189C137.844 74.5867 137.802 74.4943 137.748 74.4414C137.695 74.3885 137.61 74.362 137.492 74.362H137.332V75.2376H136.822ZM137.332 73.3841V73.9954H137.545C137.674 73.9954 137.776 73.9661 137.85 73.9082C137.925 73.8504 137.962 73.7729 137.962 73.6749C137.962 73.5768 137.928 73.5008 137.861 73.4474C137.794 73.394 137.698 73.3675 137.575 73.3675C137.454 73.3675 137.373 73.3731 137.332 73.3841ZM128.181 72.063L128.869 72.0609C128.96 71.4852 128.783 71.042 128.195 71.1476C127.7 71.2369 127.168 71.7244 126.847 72.0609L127.753 72.057C127.855 71.9911 128.052 71.9161 128.134 71.972C128.164 71.9929 128.18 72.0226 128.181 72.063ZM135.2 72.0614L135.207 72.0611H135.21C135.3 72.0661 135.457 72.0247 135.548 71.8733C135.566 71.8429 135.581 71.8083 135.593 71.7691C135.605 71.7291 135.614 71.6837 135.617 71.6328H135.617L135.618 71.6223C135.686 69.2408 134.95 67.2694 133.701 65.9299C133.458 65.6699 133.195 65.4334 132.916 65.2221C132.636 65.011 132.339 64.8254 132.027 64.6673V64.6674L132.022 64.6648L132.022 64.6647C130.972 64.1328 129.78 63.9285 128.611 64.0267C128.383 64.0459 128.156 64.0763 127.932 64.1181C127.708 64.1597 127.485 64.213 127.265 64.2772L127.262 64.2781C126.06 64.6306 124.941 65.3302 124.029 66.2483C123.851 66.4271 123.681 66.6141 123.521 66.808C123.441 66.9044 123.363 67.0026 123.288 67.1023C123.928 66.5555 124.614 66.076 125.331 65.6949C125.493 65.609 125.656 65.5285 125.819 65.4537C125.982 65.3789 126.147 65.309 126.314 65.2447L126.315 65.2445L126.315 65.2443C126.949 65.0001 127.574 64.8444 128.199 64.7747C128.825 64.7052 129.45 64.7218 130.085 64.8218C130.538 64.8931 130.979 65.0104 131.376 65.1745C131.453 65.2062 131.529 65.2402 131.604 65.2758C131.677 65.311 131.749 65.3486 131.82 65.3881H131.82L131.821 65.3886V65.3887C133.221 66.1481 134.193 67.7064 134.621 69.4658C134.705 69.8089 134.768 70.1594 134.809 70.5125C134.85 70.8655 134.87 71.2222 134.868 71.5785V71.5786L134.867 71.599C134.875 71.7897 134.94 71.949 135.053 72.0208C135.074 72.0341 135.097 72.0445 135.121 72.0513H135.122C135.146 72.0582 135.173 72.0617 135.2 72.0614Z" fill="#D32828"/>
<rect x="84.0781" y="83.3984" width="24.3158" height="2.03459" rx="1.01729" fill="#EFEEFB"/>
<rect x="84.0781" y="78.3125" width="24.3158" height="2.03459" rx="1.01729" fill="#EFEEFB"/>
<rect x="84.0781" y="73.2256" width="30.3947" height="2.03459" rx="1.01729" fill="#EFEEFB"/>
<path d="M84.2611 67.1219C84.2146 67.1219 84.171 67.1063 84.1304 67.075C84.0955 67.0437 84.0781 67.0045 84.0781 66.9576C84.0781 66.9106 84.0985 66.8637 84.1391 66.8167L85.6548 65.0404L84.2349 63.3579C84.1943 63.3162 84.1739 63.2692 84.1739 63.2171C84.1739 63.1701 84.1914 63.131 84.2262 63.0997C84.2611 63.0684 84.3046 63.0527 84.3569 63.0527H84.8012C84.8883 63.0527 84.9638 63.0945 85.0276 63.1779L86.1862 64.5317L87.3448 63.1858C87.3797 63.144 87.4116 63.1127 87.4406 63.0919C87.4755 63.0658 87.519 63.0527 87.5713 63.0527H87.9981C88.0504 63.0527 88.094 63.0684 88.1288 63.0997C88.1637 63.131 88.1811 63.1701 88.1811 63.2171C88.1811 63.2692 88.1608 63.3162 88.1201 63.3579L86.6828 65.056L88.1985 66.8167C88.2392 66.8637 88.2595 66.9106 88.2595 66.9576C88.2595 67.0045 88.2421 67.0437 88.2072 67.075C88.1724 67.1063 88.1288 67.1219 88.0765 67.1219H87.6149C87.5277 67.1219 87.4522 67.0828 87.3884 67.0045L86.1688 65.5725L84.9318 67.0045C84.897 67.041 84.8621 67.0697 84.8273 67.0906C84.7982 67.1115 84.7576 67.1219 84.7053 67.1219H84.2611Z" fill="#B9B3F9"/>
<path d="M90.2971 67.1219C90.2506 67.1219 90.2071 67.1063 90.1664 67.075C90.1316 67.0437 90.1142 67.0045 90.1142 66.9576C90.1142 66.9106 90.1345 66.8637 90.1751 66.8167L91.6909 65.0404L90.271 63.3579C90.2303 63.3162 90.21 63.2692 90.21 63.2171C90.21 63.1701 90.2274 63.131 90.2623 63.0997C90.2971 63.0684 90.3407 63.0527 90.3929 63.0527H90.8372C90.9243 63.0527 90.9998 63.0945 91.0637 63.1779L92.2223 64.5317L93.3808 63.1858C93.4157 63.144 93.4476 63.1127 93.4767 63.0919C93.5115 63.0658 93.5551 63.0527 93.6073 63.0527H94.0342C94.0865 63.0527 94.13 63.0684 94.1649 63.0997C94.1997 63.131 94.2171 63.1701 94.2171 63.2171C94.2171 63.2692 94.1968 63.3162 94.1561 63.3579L92.7188 65.056L94.2345 66.8167C94.2752 66.8637 94.2955 66.9106 94.2955 66.9576C94.2955 67.0045 94.2781 67.0437 94.2433 67.075C94.2084 67.1063 94.1649 67.1219 94.1126 67.1219H93.6509C93.5638 67.1219 93.4883 67.0828 93.4244 67.0045L92.2048 65.5725L90.9679 67.0045C90.933 67.041 90.8982 67.0697 90.8633 67.0906C90.8343 67.1115 90.7936 67.1219 90.7414 67.1219H90.2971Z" fill="#B9B3F9"/>
<path d="M96.3331 67.1219C96.2867 67.1219 96.2431 67.1063 96.2025 67.075C96.1676 67.0437 96.1502 67.0045 96.1502 66.9576C96.1502 66.9106 96.1705 66.8637 96.2112 66.8167L97.7269 65.0404L96.307 63.3579C96.2664 63.3162 96.246 63.2692 96.246 63.2171C96.246 63.1701 96.2634 63.131 96.2983 63.0997C96.3331 63.0684 96.3767 63.0527 96.429 63.0527H96.8732C96.9603 63.0527 97.0358 63.0945 97.0997 63.1779L98.2583 64.5317L99.4169 63.1858C99.4517 63.144 99.4837 63.1127 99.5127 63.0919C99.5476 63.0658 99.5911 63.0527 99.6434 63.0527H100.07C100.122 63.0527 100.166 63.0684 100.201 63.0997C100.236 63.131 100.253 63.1701 100.253 63.2171C100.253 63.2692 100.233 63.3162 100.192 63.3579L98.7548 65.056L100.271 66.8167C100.311 66.8637 100.332 66.9106 100.332 66.9576C100.332 67.0045 100.314 67.0437 100.279 67.075C100.244 67.1063 100.201 67.1219 100.149 67.1219H99.6869C99.5998 67.1219 99.5243 67.0828 99.4604 67.0045L98.2409 65.5725L97.0039 67.0045C96.9691 67.041 96.9342 67.0697 96.8994 67.0906C96.8703 67.1115 96.8297 67.1219 96.7774 67.1219H96.3331Z" fill="#B9B3F9"/>
<path d="M102.369 67.1219C102.323 67.1219 102.279 67.1063 102.239 67.075C102.204 67.0437 102.186 67.0045 102.186 66.9576C102.186 66.9106 102.207 66.8637 102.247 66.8167L103.763 65.0404L102.343 63.3579C102.302 63.3162 102.282 63.2692 102.282 63.2171C102.282 63.1701 102.299 63.131 102.334 63.0997C102.369 63.0684 102.413 63.0527 102.465 63.0527H102.909C102.996 63.0527 103.072 63.0945 103.136 63.1779L104.294 64.5317L105.453 63.1858C105.488 63.144 105.52 63.1127 105.549 63.0919C105.584 63.0658 105.627 63.0527 105.679 63.0527H106.106C106.159 63.0527 106.202 63.0684 106.237 63.0997C106.272 63.131 106.289 63.1701 106.289 63.2171C106.289 63.2692 106.269 63.3162 106.228 63.3579L104.791 65.056L106.307 66.8167C106.347 66.8637 106.368 66.9106 106.368 66.9576C106.368 67.0045 106.35 67.0437 106.315 67.075C106.28 67.1063 106.237 67.1219 106.185 67.1219H105.723C105.636 67.1219 105.56 67.0828 105.496 67.0045L104.277 65.5725L103.04 67.0045C103.005 67.041 102.97 67.0697 102.935 67.0906C102.906 67.1115 102.866 67.1219 102.813 67.1219H102.369Z" fill="#B9B3F9"/>
<path d="M181.659 75.7885C186.659 72.8444 191.251 69.3748 195.095 64.847C196.097 63.6041 194.996 61.8725 193.518 61.9573C190.003 62.1862 187.571 64.6461 185.194 66.958C183.13 68.8815 181.221 70.9308 179.327 73.1207C174.186 76.0796 168.552 78.3799 163.051 80.5952C160.947 81.4569 162.21 84.735 164.314 83.8733C167.711 82.5197 171.101 81.0959 174.407 79.5389C171.458 83.83 168.967 88.4283 166.925 93.2634C166.011 95.3499 169.205 96.7896 170.119 94.7031C172.563 88.9727 175.674 83.5273 179.466 78.5074C180.148 77.5826 180.9 76.6504 181.659 75.7885Z" fill="#675AF6"/>
<path d="M212.544 73.311C210.746 73.714 208.432 74.5979 206.464 74.7345C206.442 74.5236 206.35 74.3201 206.251 74.0463C205.882 73.2323 204.899 72.6254 203.955 73.0803C203.417 73.3503 199.533 75.4659 199.117 74.8702C198.616 74.1413 197.382 73.8451 196.671 74.4887C194.725 76.1866 192.776 77.1741 190.425 77.7065C190.591 77.2625 190.749 76.7483 190.985 76.297C191.63 75.0207 190.094 73.1928 188.752 73.9029C185.594 75.5155 182.599 77.3242 179.702 79.4066C177.86 80.7382 179.926 83.5762 181.769 82.2446C183.353 81.1534 184.938 80.0623 186.607 79.1043C186.622 79.2449 186.559 79.3226 186.574 79.4632C186.552 80.6027 187.222 81.598 188.49 81.5353C191.935 81.3139 195.004 80.2082 197.698 78.2182C199.419 79.1027 201.585 78.1633 203.542 77.2461C203.811 77.7863 204.282 78.234 204.857 78.3155C207.492 78.4639 210.359 77.4506 212.919 76.8961C215.06 76.3859 214.762 72.8637 212.544 73.311Z" fill="#675AF6"/>
</svg>
