<svg width="320" height="150" viewBox="0 0 320 150" fill="none" xmlns="http://www.w3.org/2000/svg">
<mask id="mask0" mask-type="alpha" maskUnits="userSpaceOnUse" x="0" y="0" width="320" height="150">
<path d="M0 5.99599C0 2.68449 2.69418 0 6.00122 0H313.999C317.313 0 320 2.68322 320 5.99599V150H0V5.99599Z" fill="white"/>
</mask>
<g mask="url(#mask0)">
<path d="M261.332 0.000839233C250.332 0.000839233 231.332 0.000839233 227.332 11.0008C223.332 22.0008 256.59 21.3557 264.332 29.0976C272.074 36.8395 284.557 36.0008 296.332 36.0008C308.107 36.0008 305.876 48.979 315.332 47.0008C324.788 45.0227 316.332 35.1103 319.332 29.0976C319.332 25.3609 319.332 15.662 319.332 0.000839233C292.999 0.000839233 273.665 0.000839233 261.332 0.000839233Z" fill="#E6E5F4"/>
<path d="M51.338 100.568C112.494 78.8233 139.674 127.748 139.674 100.568C139.674 73.3872 107.058 59.797 90.7496 43.4887C74.4413 27.1804 81.5783 0 56.7741 0C31.9698 0 44.4663 15.2363 17.3624 27.1804C-9.74149 39.1245 -9.81802 122.312 51.338 100.568Z" fill="#E6E5F4"/>
<path d="M205.265 132.238C149.174 112.295 124.245 157.168 124.245 132.238C124.245 107.309 154.16 94.8445 169.117 79.8869C184.075 64.9293 177.529 40 200.279 40C223.029 40 211.567 53.9744 236.427 64.9293C261.286 75.8842 286.285 47.4788 286.285 79.8869C286.285 112.295 261.356 152.182 205.265 132.238Z" fill="#E6E5F4"/>
<path opacity="0.1" d="M309.009 93.7619C309.096 93.1894 309.08 92.6462 309.397 92.1406C310.037 91.1378 310.943 91.3885 311.821 91.8314C312.715 92.2827 313.559 92.5501 314.528 92.1322C316.045 91.4762 316.76 89.1864 315.31 88.1083C314.842 87.7573 314.378 88.3339 314.441 88.7769C314.528 89.3911 314.834 90.0722 314.307 90.5987C313.601 91.3049 312.773 90.7115 312.067 90.394C311.307 90.0513 310.496 89.9761 309.715 90.2937C308.365 90.8411 307.383 92.6713 308.457 93.9081C308.607 94.0795 308.971 94.0001 309.009 93.7619Z" fill="#675AF6"/>
<path opacity="0.2" d="M0.58316 102.41C3.33974 101.659 6.18464 100.738 8.7646 99.5142C9.71079 99.0664 9.09892 97.7417 8.1338 98.0445C5.45922 98.8771 2.77833 100.095 0.292993 101.381C-0.205336 101.64 -0.0413291 102.58 0.58316 102.41ZM249.89 45.4789C250.047 45.9872 250.53 46.1503 250.969 45.8491C252.695 44.6758 254.414 43.5276 256.052 42.2289C256.365 41.9779 256.296 41.476 255.989 41.2626C254.075 39.9513 251.496 38.0126 249.068 38C248.453 37.9937 248.021 38.8659 248.648 39.2235C249.627 39.7882 250.8 39.9889 251.848 40.4219C253.052 40.9238 254.251 41.5136 255.317 42.2728C255.343 41.9214 255.368 41.5701 255.387 41.2187C253.561 42.3418 251.842 43.6029 250.11 44.8578C250.449 44.9268 250.794 44.9958 251.133 45.0648C250.392 42.9692 249.633 40.8924 248.811 38.8282C248.629 38.3953 247.889 38.6337 248.014 39.0917C248.591 41.2375 249.225 43.3582 249.89 45.4789Z" fill="#675AF6"/>
<path opacity="0.1" d="M18.2336 48.8901C19.8387 49.0111 21.5258 49.0573 23.131 48.8972C23.7218 48.8402 23.647 48.0359 23.074 48.0145C21.4938 47.954 19.8387 48.0892 18.2763 48.2992C17.9666 48.342 17.8705 48.8616 18.2336 48.8901ZM303.353 9.6571C301.966 10.9891 301.441 13.0617 302.762 14.6645C304.006 16.1734 306.421 16.4884 307.974 15.2891C311.732 12.3874 307.814 7.04285 303.762 8.14824C303.011 8.35274 303.199 9.42496 303.939 9.46365C305.122 9.52998 306.393 9.57419 307.338 10.4088C308.355 11.2986 308.377 12.8075 307.543 13.8355C305.332 16.5492 301.496 12.5532 303.818 10.1214C304.116 9.81738 303.663 9.36417 303.353 9.6571Z" fill="#675AF6"/>
<path opacity="0.2" d="M202.781 7.23445C201.827 8.60056 200.914 9.98702 200.016 11.3915C199.8 11.7266 199.939 12.0828 200.324 12.19C201.83 12.6157 203.318 13.0498 204.854 13.3645C205.149 13.4238 205.404 13.1422 205.379 12.8627C205.209 11.1311 205.08 8.71484 203.917 7.31373C203.624 6.95745 202.914 7.12917 203.011 7.66206C203.159 8.49663 203.609 9.26751 203.865 10.0782C204.158 11.0123 204.396 11.9852 204.475 12.964C204.688 12.809 204.902 12.654 205.113 12.4955C203.588 11.9879 202.035 11.6082 200.479 11.2182C200.602 11.4461 200.729 11.6777 200.853 11.9056C201.7 10.47 202.527 9.03259 203.317 7.56522C203.481 7.25557 202.987 6.94515 202.781 7.23445Z" fill="#675AF6"/>
<path opacity="0.2" d="M190.544 61.813C190.124 60.3055 189.609 58.746 188.93 57.3333C188.681 56.815 187.957 57.1547 188.127 57.6836C188.593 59.1466 189.269 60.6149 189.982 61.9705C190.123 62.2483 190.638 62.1564 190.544 61.813Z" fill="#675AF6"/>
<path opacity="0.2" d="M122.083 4.88779C121.789 3.35145 121.405 1.75284 120.844 0.289171C120.64 -0.247161 119.889 0.0296554 120.014 0.572908C120.356 2.07118 120.91 3.58675 121.509 4.99851C121.63 5.28571 122.152 5.23727 122.083 4.88779Z" fill="#675AF6"/>
<path d="M264.75 133.403C268.692 127.243 279.3 133.466 282.499 129.299C285.698 125.132 275.052 119.561 276.533 114.479C278.014 109.396 287.161 109.833 289.682 104.657C292.203 99.4796 286.894 98.6737 286.711 93.5764C286.553 89.1613 290.996 79.5519 288.933 77.0391C286.871 74.5262 282.658 81.1717 277.005 81.7515C271.352 82.3312 269.624 77.9879 266.786 79.3103C263.948 80.6326 271.382 86.8422 262.905 88.3216C254.427 89.801 250.901 81.2196 246.553 84.4157C242.206 87.6117 246.919 97.6421 243.694 102.444C240.469 107.246 234.102 97.0164 229.035 105.293C223.969 113.57 227.513 125.203 226.808 133.403C233.132 133.403 258.426 133.403 264.75 133.403Z" fill="#EFEEFB"/>
<path d="M258.665 143.671C254.458 141.512 250.649 140.19 247.241 139.704C243.832 139.219 239.464 140.237 234.138 142.761L234.83 141.936C240.255 139.632 244.507 138.75 247.587 139.292C250.666 139.834 254.359 141.294 258.665 143.671Z" fill="#E6E5F4"/>
<path d="M234.383 110.652C237.24 114.421 239.203 117.941 240.273 121.214C241.343 124.487 241.236 129.08 239.951 134.994L240.643 134.169C241.695 128.196 241.688 123.74 240.619 120.802C239.551 117.864 237.472 114.48 234.383 110.652Z" fill="#E6E5F4"/>
<path d="M279.325 126.584C274.018 123.503 269.66 121.719 266.251 121.233C262.842 120.748 257.788 121.19 251.088 122.56L251.779 121.736C258.579 120.584 263.518 120.279 266.597 120.821C269.676 121.363 273.919 123.284 279.325 126.584Z" fill="#E6E5F4"/>
<path d="M248.038 87.6839C251.994 92.3753 254.507 96.3574 255.577 99.63C256.648 102.903 257.09 107.957 256.904 114.794L257.596 113.969C257.549 107.073 256.992 102.156 255.923 99.2177C254.855 96.2795 252.227 92.4349 248.038 87.6839Z" fill="#E6E5F4"/>
<path d="M284.923 103.612C280.177 102.763 276.48 102.618 273.833 103.175C271.186 103.733 267.572 105.418 262.994 108.23L263.283 107.435C267.994 104.758 271.558 103.205 273.977 102.778C276.396 102.351 280.045 102.629 284.923 103.612Z" fill="#E6E5F4"/>
<path d="M268.475 81.4801C270.345 84.7023 271.428 87.3482 271.723 89.4178C272.018 91.4874 271.749 94.5562 270.917 98.6242L271.418 98.2042C272.117 94.076 272.302 91.0772 271.973 89.2077C271.644 87.3383 270.478 84.7624 268.475 81.4801Z" fill="#E6E5F4"/>
<path d="M288.929 77.0344L242.617 133.403L241.352 133.402L288.929 77.0344Z" fill="#E6E5F4"/>
<path d="M199.145 153.085C195.344 148.955 188.156 155.072 185.183 152.349C182.21 149.626 189.514 143.997 187.717 140.353C185.92 136.709 179.065 138.259 176.47 134.682C173.875 131.105 177.78 129.789 177.239 125.912C176.77 122.554 172.132 115.884 173.356 113.71C174.58 111.536 178.649 115.997 182.999 115.681C187.349 115.366 188.076 111.853 190.397 112.475C192.718 113.096 187.927 118.78 194.531 118.768C201.136 118.756 202.657 111.801 206.369 113.637C210.08 115.473 207.855 123.682 210.933 126.881C214.01 130.081 217.459 121.501 222.391 127.081C227.323 132.661 226.195 141.926 227.82 148.029C223.041 148.872 203.924 152.243 199.145 153.085Z" fill="#EFEEFB"/>
<path d="M205.111 160.035C208.003 157.843 210.705 156.336 213.217 155.515C215.728 154.693 219.165 154.881 223.527 156.078L222.894 155.547C218.487 154.529 215.155 154.429 212.901 155.249C210.646 156.069 208.049 157.664 205.111 160.035Z" fill="#E6E5F4"/>
<path d="M219.061 131.844C217.404 135.073 216.39 137.996 216.017 140.612C215.644 143.228 216.338 146.685 218.097 150.984L217.464 150.453C215.873 146.078 215.285 142.71 215.701 140.347C216.116 137.984 217.237 135.149 219.061 131.844Z" fill="#E6E5F4"/>
<path d="M187.222 149.874C190.822 146.838 193.878 144.91 196.39 144.088C198.901 143.267 202.78 142.928 208.027 143.07L207.394 142.539C202.102 142.575 198.328 143.003 196.073 143.823C193.818 144.643 190.868 146.66 187.222 149.874Z" fill="#E6E5F4"/>
<path d="M205.685 116.305C203.32 120.378 201.952 123.722 201.579 126.338C201.206 128.954 201.545 132.833 202.597 137.975L201.964 137.444C201.08 132.226 200.847 128.436 201.262 126.073C201.678 123.71 203.152 120.454 205.685 116.305Z" fill="#E6E5F4"/>
<path d="M179.928 133.258C183.402 131.985 186.177 131.382 188.252 131.45C190.327 131.519 193.282 132.311 197.117 133.826L196.793 133.264C192.876 131.868 189.975 131.17 188.089 131.169C186.204 131.169 183.484 131.865 179.928 133.258Z" fill="#E6E5F4"/>
<path d="M189.408 114.34C188.423 117.024 187.958 119.168 188.01 120.772C188.063 122.375 188.675 124.659 189.846 127.622L189.412 127.372C188.333 124.345 187.794 122.103 187.793 120.646C187.793 119.19 188.331 117.087 189.408 114.34Z" fill="#E6E5F4"/>
<path d="M173.36 113.706L215.873 150.136L216.828 149.967L173.36 113.706Z" fill="#E6E5F4"/>
<path fill-rule="evenodd" clip-rule="evenodd" d="M296 150C301.259 145.01 305.58 133.796 308.961 116.358C291.379 108.16 276.643 107.493 264.755 114.357C253.13 121.069 246.875 131.368 245 149.999C246 149.999 294 150 296 150Z" fill="#F5F4FD"/>
<path d="M261.266 148.928C257.975 148.369 255.308 148.369 253.266 148.928L255.414 147.559C257.53 147.415 259.481 147.538 261.266 147.928C263.051 148.317 264.718 148.984 266.266 149.928C266.224 149.819 264.557 149.486 261.266 148.928Z" fill="#B9B3F9"/>
<path d="M261.446 126.148C262.503 129.569 262.988 132.582 262.902 135.188C262.816 137.793 261.55 141.034 259.104 144.908L259.81 144.501C262.106 140.524 263.254 137.351 263.255 134.984C263.255 132.617 262.653 129.671 261.446 126.148Z" fill="#B9B3F9"/>
<path d="M289.297 149.12C286.319 145.554 283.68 143.156 281.381 141.928C279.081 140.7 275.37 139.706 270.248 138.945L270.954 138.538C276.09 139.479 279.683 140.541 281.733 141.724C283.784 142.907 286.305 145.373 289.297 149.12Z" fill="#B9B3F9"/>
<path d="M277.109 113.342C278.709 117.704 279.466 121.188 279.38 123.793C279.294 126.399 278.299 130.11 276.397 134.925L277.103 134.518C278.855 129.599 279.732 125.957 279.733 123.59C279.733 121.222 278.859 117.806 277.109 113.342Z" fill="#B9B3F9"/>
<path d="M299.228 134.226C296.07 132.393 293.478 131.332 291.45 131.043C289.422 130.754 286.415 131.017 282.429 131.832L282.841 131.342C286.886 130.657 289.824 130.475 291.656 130.798C293.488 131.12 296.012 132.263 299.228 134.226Z" fill="#B9B3F9"/>
<path d="M293.255 114.22C293.751 116.997 293.837 119.16 293.511 120.709C293.184 122.258 292.199 124.372 290.553 127.051L291.018 126.881C292.585 124.125 293.493 122.04 293.743 120.624C293.993 119.209 293.83 117.074 293.255 114.22Z" fill="#B9B3F9"/>
<path d="M308.96 116.354L252.001 150L250.001 150L308.96 116.354Z" fill="#B9B3F9"/>
<path fill-rule="evenodd" clip-rule="evenodd" d="M63.9986 150.001C63.1005 139.186 62.0756 132.786 60.9239 130.8C58.6448 126.87 55.6334 132.575 51.1762 129.723C46.719 126.87 50.6648 119.313 47.6497 116.999C44.6346 114.685 40.6035 122.388 36.926 121.316C33.2484 120.244 33.5648 113.626 29.8189 111.802C26.073 109.978 25.4898 113.819 21.8016 113.951C18.6069 114.065 11.6537 110.851 9.83549 112.343C8.01726 113.836 12.8258 116.884 13.2453 120.974C13.6648 125.065 10.5221 126.315 11.4789 128.369C12.4357 130.422 16.9288 125.043 17.9993 131.177C19.0697 137.311 12.8604 139.863 15.173 143.008C17.4856 146.154 24.7434 142.744 28.218 145.078C30.1684 146.388 28.6102 147.827 27.9986 150.001C28.6653 150.001 40.6653 150.001 63.9986 150.001Z" fill="#F5F4FD"/>
<path d="M58.05 134.245C56.4881 137.29 55.5314 140.045 55.18 142.512C54.8286 144.978 55.5657 148.138 57.3914 151.992L56.7948 151.492C55.1273 147.566 54.4896 144.489 54.8817 142.261C55.2738 140.033 56.3299 137.361 58.05 134.245Z" fill="#9D95F8"/>
<path d="M34.1568 151.813C36.8839 149.747 39.4315 148.326 41.7995 147.552C44.1675 146.777 47.4911 146.855 51.7703 147.785L51.1737 147.284C46.8515 146.523 43.6273 146.528 41.5012 147.301C39.3752 148.074 36.927 149.578 34.1568 151.813Z" fill="#9D95F8"/>
<path d="M45.6855 119.295C43.4562 123.136 42.1658 126.289 41.8143 128.755C41.4629 131.222 41.7829 134.879 42.7742 139.727L42.1777 139.227C41.3444 134.307 41.1239 130.733 41.516 128.505C41.9081 126.277 43.298 123.207 45.6855 119.295Z" fill="#9D95F8"/>
<path d="M17.5372 141.935C20.9318 139.073 23.8131 137.254 26.1811 136.48C28.5491 135.705 32.2065 135.385 37.1532 135.52L36.5566 135.019C31.5668 135.053 28.0089 135.456 25.8828 136.23C23.7568 137.003 20.9749 138.904 17.5372 141.935Z" fill="#9D95F8"/>
<path d="M29.0644 115.246C28.4504 118.68 28.3451 121.355 28.7484 123.271C29.1517 125.187 30.3708 127.801 32.4057 131.114L31.8306 130.905C29.8934 127.496 28.7701 124.917 28.4609 123.166C28.1517 121.416 28.3529 118.776 29.0644 115.246Z" fill="#9D95F8"/>
<path d="M13.0493 127.146C15.3808 125.793 17.2953 125.009 18.7928 124.796C20.2903 124.583 22.5108 124.777 25.4544 125.379L25.1504 125.016C22.1634 124.511 19.9935 124.377 18.6408 124.615C17.2881 124.853 15.4242 125.697 13.0493 127.146Z" fill="#9D95F8"/>
<path d="M9.83153 112.347L54.9981 150.001L53.998 150.001L9.83153 112.347Z" fill="#9D95F8"/>
<path d="M80.358 127.434C79.3729 121.909 73.4672 127.259 69.4983 122.065C65.5295 116.871 73.3025 109.766 70.7804 105.805C68.2583 101.845 60.3245 109.084 56.5085 106.286C52.6925 103.488 55.8559 95.9388 52.2783 92.2389C48.7008 88.5389 46.4009 92.7516 42.0637 91.3466C38.307 90.1297 31.594 83.4605 28.8528 84.4247C26.1117 85.389 30.4057 90.9586 29.1643 95.8842C27.923 100.81 23.7466 100.934 23.9897 103.722C24.2328 106.51 31.7211 102.163 30.3721 109.736C29.0231 117.309 20.7374 117.647 22.0927 122.276C23.4481 126.905 33.3136 126.013 36.361 130.189C39.4084 134.366 28.8699 136.586 34.2727 143.372C37.8746 147.896 44.4508 150.105 54.0013 150C72.2292 138.639 81.0148 131.118 80.358 127.434Z" fill="#EFEEFB"/>
<path d="M75.5633 130.218C72.4639 133.092 70.1892 135.887 68.7392 138.601C67.2892 141.316 66.8097 145.296 67.3008 150.541L66.8197 149.708C66.5426 144.446 67.1022 140.605 68.4987 138.185C69.8952 135.764 72.2501 133.109 75.5633 130.218Z" fill="#B9B3F9"/>
<path d="M40.4107 140.518C44.4497 139.271 48.0071 138.698 51.083 138.799C54.159 138.901 57.9842 140.395 62.5586 143.283L62.0776 142.45C57.3821 139.739 53.6371 138.384 50.8425 138.383C48.048 138.382 44.5707 139.094 40.4107 140.518Z" fill="#B9B3F9"/>
<path d="M67.5274 107.641C63.3171 111.157 60.487 114.272 59.037 116.986C57.5869 119.701 56.4131 124.082 55.5156 130.128L55.0346 129.295C56.146 123.232 57.4 118.99 58.7964 116.57C60.1929 114.149 63.1032 111.173 67.5274 107.641Z" fill="#B9B3F9"/>
<path d="M25.2929 122.029C30.4427 120.141 34.5556 119.247 37.6316 119.349C40.7075 119.45 45.0881 120.624 50.7734 122.87L50.2924 122.037C44.486 119.968 40.1856 118.933 37.391 118.932C34.5965 118.931 30.5638 119.964 25.2929 122.029Z" fill="#B9B3F9"/>
<path d="M49.948 95.9179C47.7842 99.6451 46.5317 102.706 46.1906 105.1C45.8495 107.494 46.1601 111.043 47.1223 115.749L46.5433 115.263C45.7346 110.488 45.5205 107.019 45.9011 104.857C46.2817 102.694 47.6307 99.7146 49.948 95.9179Z" fill="#B9B3F9"/>
<path d="M26.33 102.966C29.6082 102.38 32.1616 102.279 33.99 102.664C35.8185 103.049 38.314 104.213 41.4765 106.155L41.2768 105.606C38.0231 103.757 35.5609 102.685 33.8901 102.39C32.2193 102.094 29.6993 102.286 26.33 102.966Z" fill="#B9B3F9"/>
<path d="M28.8486 84.4277L67.0023 150L66.0023 150L28.8486 84.4277Z" fill="#B9B3F9"/>
<path d="M102.053 73.7469C98.561 68.884 96.4148 63.1111 97.3978 56.9387C100.23 39.1546 125.019 45.2901 129.117 54.7497C133.216 64.2092 130.631 87.0685 124.171 88.1299C121.595 88.5532 116.365 86.5067 111.187 82.7649L112.513 107.11L92.265 105.339L102.053 73.7469Z" fill="#F8E4E5"/>
<path d="M114.164 60.3968C114.003 71.1656 115.585 76.6954 118.91 76.9863C123.899 77.4228 128.406 74.6543 130.595 74.8458C132.19 74.9854 131.661 76.9332 130.475 78.308C129.496 79.4422 125.145 80.2373 124.981 82.1141C124.816 83.9909 128.301 82.8326 128.203 83.9457C128.042 85.7869 128.33 89.3003 125.105 89.0182C121.843 88.7328 112.59 86.7357 111.407 81.7956C110.643 78.6074 110.536 72.1299 111.085 62.3631C110.889 62.3224 110.689 62.2928 110.484 62.2749C107.689 62.0304 105.226 64.0783 104.983 66.8493C104.86 68.2559 105.333 69.5785 106.194 70.5718C104.88 72.1079 103.417 73.7048 101.758 75.3396C96.4016 71.4849 93.069 61.2813 99.4204 52.315C101.352 47.8194 105.026 45.6492 109.209 44.8583C112.636 43.7764 116.083 43.9222 118.909 44.9978C124.548 45.9778 129.471 48.1386 130.819 49.2841C130.353 54.615 129.172 56.1055 120.283 55.1873C117.995 56.1409 116.142 57.9653 114.164 60.3968Z" fill="#132056"/>
<path d="M70.0019 169.986C56.9903 204.441 33.9664 248.825 32.2122 250.63C31.0427 251.833 2.08279 262.003 -54.6674 281.141L-50.3068 291.33C12.5282 280.082 45.8771 272.886 49.7399 269.741C55.534 265.025 87.4428 213.827 108.904 184.146L70.0019 169.986Z" fill="#F8E4E5"/>
<path d="M-40.0356 272.591L-21.6188 322.373C25.8184 297.771 54.4095 280.859 64.1547 271.636C73.8998 262.413 90.0886 233.713 112.721 185.536L63.1254 167.484C44.7155 210.415 34.7114 232.744 33.1132 234.472C31.5149 236.2 7.13201 248.906 -40.0356 272.591Z" fill="#E0F8EE"/>
<path d="M105.532 95.382L112.961 95.4228C125.142 110.295 131.104 129.989 139.002 150C128.002 150 114.002 150 104.002 150C99.6436 131.384 102.132 111.788 105.532 95.382Z" fill="#675AF6"/>
<path d="M119.003 150C115.531 133.367 112.777 115.487 116.27 95.674L98.3704 89.5564C84.0436 105.468 75.0367 124.84 67.0028 150C70.003 150 113.003 150 119.003 150Z" fill="white"/>
<path d="M71.163 109.453C68.6246 108.217 66.8221 106.061 65.7555 102.983C61.1579 89.7176 64.7602 83.4954 72.3353 82.577C79.9104 81.6586 85.5281 87.2922 96.9831 89.312C97.6061 89.4219 98.1699 89.5614 98.6745 89.7305L104.379 91.0737C106.127 106.375 107.334 126.017 108.002 150C72.0016 150 49.6683 150 41.0016 150C51.0016 129 58.9065 121.241 71.163 109.453Z" fill="#675AF6"/>
<path fill-rule="evenodd" clip-rule="evenodd" d="M247.25 81C250.421 81 253 83.5025 253 86.5798V93.605C253 93.7478 252.978 93.8855 252.937 94.0152C252.978 94.1481 253 94.2902 253 94.4375V144.38C253 147.479 250.421 150 247.25 150H212.75C209.579 150 207 147.479 207 144.38V94.4375C207 94.2902 207.022 94.1481 207.063 94.0143C207.022 93.8855 207 93.7478 207 93.605V86.5798C207 83.5025 209.579 81 212.75 81H247.25Z" fill="#E6E5F4"/>
<path fill-rule="evenodd" clip-rule="evenodd" d="M209 136H251V95H209V136Z" fill="#EFEEFB"/>
<path fill-rule="evenodd" clip-rule="evenodd" d="M209 138V144.646C209 146.495 210.346 148 212 148H248C249.654 148 251 146.495 251 144.646V138H209ZM209 93H251V86.3134C251 84.4868 249.654 83 248 83H212C210.346 83 209 84.4868 209 86.3134V93Z" fill="#EFEEFB"/>
<path d="M234 145H226C224.895 145 224 144.105 224 143C224 141.895 224.895 141 226 141H234C235.105 141 236 141.895 236 143C236 144.105 235.105 145 234 145ZM231 87C231.552 87 232 87.4477 232 88C232 88.5523 231.552 89 231 89H224C223.448 89 223 88.5523 223 88C223 87.4477 223.448 87 224 87H231ZM237 87C237.552 87 238 87.4477 238 88C238 88.5523 237.552 89 237 89H235C234.448 89 234 88.5523 234 88C234 87.4477 234.448 87 235 87H237Z" fill="#B9B3F9"/>
<path fill-rule="evenodd" clip-rule="evenodd" d="M187 100H215C217.209 100 219 101.791 219 104V118C219 120.209 217.209 122 215 122H187C184.791 122 183 120.209 183 118V104C183 101.791 184.791 100 187 100Z" fill="#675AF6"/>
<path fill-rule="evenodd" clip-rule="evenodd" d="M209.5 113.75C209.776 113.75 210 113.974 210 114.25V114.375C210 114.651 209.776 114.875 209.5 114.875H201.5C201.224 114.875 201 114.651 201 114.375V114.25C201 113.974 201.224 113.75 201.5 113.75H209.5ZM209.5 110.375C209.776 110.375 210 110.599 210 110.875V111C210 111.276 209.776 111.5 209.5 111.5H201.5C201.224 111.5 201 111.276 201 111V110.875C201 110.599 201.224 110.375 201.5 110.375H209.5ZM214 107C214.276 107 214.5 107.224 214.5 107.5V107.625C214.5 107.901 214.276 108.125 214 108.125H201.5C201.224 108.125 201 107.901 201 107.625V107.5C201 107.224 201.224 107 201.5 107H214ZM196.5 116.875C196.5 114.39 194.485 112.375 192 112.375C189.515 112.375 187.5 114.39 187.5 116.875C189.75 116.875 194.25 116.875 196.5 116.875Z" fill="#EFEEFB"/>
<path d="M192 110.125C193.243 110.125 194.25 109.118 194.25 107.875C194.25 106.632 193.243 105.625 192 105.625C190.757 105.625 189.75 106.632 189.75 107.875C189.75 109.118 190.757 110.125 192 110.125Z" fill="#EFEEFB" stroke="#EFEEFB"/>
<path d="M242.842 117.357C246.01 115.499 248.919 113.31 251.354 110.453C251.989 109.669 251.291 108.577 250.355 108.63C248.128 108.775 246.587 110.327 245.081 111.785C243.774 112.999 242.565 114.292 241.365 115.674C238.108 117.541 234.538 118.992 231.053 120.39C229.72 120.934 230.52 123.002 231.853 122.458C234.006 121.604 236.153 120.706 238.248 119.723C236.38 122.431 234.801 125.332 233.507 128.383C232.928 129.7 234.952 130.608 235.531 129.292C237.079 125.676 239.05 122.24 241.453 119.073C241.885 118.489 242.361 117.901 242.842 117.357Z" fill="#675AF6"/>
<path d="M262.409 115.794C261.27 116.048 259.804 116.606 258.557 116.692C258.543 116.559 258.485 116.431 258.422 116.258C258.188 115.744 257.565 115.361 256.968 115.648C256.627 115.819 254.166 117.154 253.902 116.778C253.585 116.318 252.803 116.131 252.352 116.537C251.12 117.608 249.885 118.231 248.395 118.567C248.5 118.287 248.601 117.963 248.75 117.678C249.159 116.873 248.186 115.719 247.336 116.167C245.335 117.185 243.437 118.326 241.602 119.64C240.435 120.48 241.744 122.271 242.911 121.431C243.915 120.742 244.919 120.054 245.977 119.449C245.986 119.538 245.946 119.587 245.956 119.676C245.942 120.395 246.366 121.023 247.169 120.983C249.352 120.843 251.297 120.146 253.003 118.89C254.093 119.448 255.466 118.855 256.706 118.277C256.876 118.618 257.175 118.9 257.539 118.952C259.208 119.045 261.024 118.406 262.647 118.056C264.003 117.734 263.814 115.512 262.409 115.794Z" fill="#675AF6"/>
<path fill-rule="evenodd" clip-rule="evenodd" d="M138.627 29.4613C138.232 29.4128 137.865 29.2674 137.529 29.0086C136.854 28.5077 136.731 27.7399 136.804 27.1467C136.836 26.883 136.904 26.6069 137.024 26.304C137.723 24.4327 138.918 23.0072 140.175 21.6228C141.816 19.8339 143.418 17.9565 143.775 15.0564C144.06 12.7331 143.575 11.5027 142.339 11.351C141.235 11.2154 139.752 11.9868 138.487 13.4371C138.237 13.7074 137.988 13.8274 137.724 13.795C137.411 13.7566 137.192 13.6294 137.099 13.434C137.008 13.2221 136.963 13.0492 136.977 12.9339C136.999 12.7526 137.087 12.5794 137.243 12.3979C138.683 10.6177 140.838 9.27657 143.227 9.56994C146.762 9.937 147.959 13.3959 147.591 16.5287C147.292 18.9674 145.723 20.9826 144.094 22.9403C142.739 24.5803 141.427 26.2758 140.692 28.3098C140.367 29.1898 139.5 29.5685 138.627 29.4613ZM138.033 35.6607C137.489 35.594 137.044 35.2716 136.711 34.7123C136.395 34.1549 136.274 33.5045 136.365 32.763C136.456 32.0215 136.731 31.4196 137.173 30.9553C137.633 30.4766 138.143 30.2716 138.687 30.3384C139.231 30.4052 139.676 30.7275 139.99 31.3013C140.323 31.8607 140.444 32.5111 140.353 33.2526C140.262 33.9941 139.987 34.596 139.529 35.0582C139.087 35.5225 138.577 35.7275 138.033 35.6607Z" fill="#675AF6"/>
<path fill-rule="evenodd" clip-rule="evenodd" d="M153.888 33.253C153.608 33.2285 153.333 33.2751 153.063 33.4044C152.524 33.6513 152.326 34.1633 152.289 34.5836C152.273 34.7704 152.279 34.9709 152.318 35.1978C152.525 36.5923 153.141 37.752 153.806 38.8924C154.677 40.3684 155.508 41.8998 155.328 43.9544C155.184 45.6005 154.669 46.3788 153.793 46.3022C153.011 46.2338 152.1 45.4836 151.439 44.2965C151.306 44.0731 151.152 43.9537 150.965 43.9374C150.743 43.918 150.574 43.9737 150.481 44.095C150.387 44.2279 150.33 44.3406 150.323 44.4223C150.311 44.5507 150.347 44.6832 150.428 44.8315C151.161 46.2719 152.452 47.5142 154.145 47.6623C156.639 47.9275 157.973 45.7151 158.179 43.4981C158.33 41.7703 157.543 40.1486 156.706 38.5579C156.011 37.2266 155.353 35.8633 155.145 34.3511C155.049 33.6958 154.507 33.3072 153.888 33.253ZM154.388 28.8854C154.002 28.8517 153.647 29.0089 153.336 29.3463C153.035 29.6847 152.857 30.1161 152.811 30.6414C152.765 31.1667 152.866 31.6226 153.103 32.008C153.35 32.4061 153.672 32.6225 154.058 32.6562C154.443 32.6899 154.798 32.5327 155.099 32.1826C155.411 31.8453 155.59 31.4139 155.636 30.8886C155.682 30.3632 155.58 29.9073 155.332 29.5209C155.095 29.1355 154.773 28.9191 154.388 28.8854Z" fill="#F5F4FD"/>
<path fill-rule="evenodd" clip-rule="evenodd" d="M109.908 21.7198C110.538 18.7132 112.803 16.5159 115.353 17.1201C117.273 17.5706 118.504 19.5489 118.228 22.2992C117.967 24.9162 116.466 26.9312 114.726 28.9053C113.061 30.8204 112.833 32.5633 112.972 34.1729C113.001 34.5138 112.803 34.5856 112.496 34.4422C111.996 34.2091 111.262 33.4224 111.344 31.8922C111.42 30.5235 112.022 29.2828 113.696 27.3011C115.056 25.6885 116.017 23.6788 116.206 21.5667C116.321 20.216 116.107 18.3142 114.992 18.1454C113.239 17.8896 111.654 21.34 111.255 25.1565C111.191 25.5948 111.05 25.6461 110.75 25.436C110.091 24.9416 109.514 23.6192 109.908 21.7198ZM112.988 35.7953C113.537 36.4257 113.698 37.133 113.476 37.6611C113.253 38.1891 112.461 38.3816 111.781 37.8308C111.092 37.2517 110.897 36.3649 111.173 35.7215C111.45 35.0781 112.391 35.1188 112.988 35.7953Z" fill="#F5F4FD"/>
<path fill-rule="evenodd" clip-rule="evenodd" d="M88.6676 35.922C88.3796 36.138 87.9656 36.246 87.4256 36.246C86.9216 36.246 86.3636 36.165 85.7516 36.003C85.1396 35.841 84.5456 35.67 83.9696 35.49C83.3936 35.31 82.8986 35.139 82.4846 34.977C82.0706 34.815 81.8096 34.734 81.7016 34.734C81.4856 34.734 81.2876 34.824 81.1076 35.004C80.9276 35.184 80.8376 35.418 80.8376 35.706C80.8376 36.138 81.1526 36.552 81.7826 36.948C82.4126 37.344 83.1416 37.686 83.9696 37.974C84.7976 38.262 85.6166 38.487 86.4266 38.649C87.2366 38.811 87.8216 38.892 88.1816 38.892C89.3336 38.892 90.2516 38.577 90.9356 37.947C91.6196 37.317 91.9616 36.336 91.9616 35.004C91.9616 33.78 91.7456 32.673 91.3136 31.683C90.8816 30.693 90.3596 29.766 89.7476 28.902C89.1356 28.038 88.4606 27.192 87.7226 26.364C86.9846 25.536 86.3276 24.672 85.7516 23.772C85.2116 22.98 84.8066 22.332 84.5366 21.828C84.2666 21.324 84.0506 20.82 83.8886 20.316C83.7266 19.812 83.5646 19.236 83.4026 18.588C83.2406 17.94 82.9976 17.112 82.6736 16.104C82.4936 15.672 82.2056 15.456 81.8096 15.456C81.6296 15.456 81.4676 15.528 81.3236 15.672C81.1796 15.816 81.1076 16.032 81.1076 16.32C81.1436 18.048 81.3056 19.533 81.5936 20.775C81.8816 22.017 82.2686 23.178 82.7546 24.258C83.2406 25.338 83.8436 26.418 84.5636 27.498L87.0476 31.224C87.1556 31.368 87.3176 31.602 87.5336 31.926C87.7496 32.25 87.9566 32.601 88.1546 32.979C88.3526 33.357 88.5326 33.744 88.6946 34.14C88.8566 34.536 88.9376 34.896 88.9376 35.22C88.9376 35.508 88.8476 35.742 88.6676 35.922ZM82.2416 13.134C82.4216 12.846 82.5116 12.576 82.5116 12.324C82.5116 12 82.4126 11.721 82.2146 11.487C82.0166 11.253 81.7736 11.136 81.4856 11.136C81.1616 11.136 80.8916 11.271 80.6756 11.541C80.4596 11.811 80.3516 12.072 80.3516 12.324C80.3516 12.612 80.4596 12.864 80.6756 13.08C80.8916 13.296 81.1436 13.404 81.4316 13.404C81.7556 13.404 82.0256 13.314 82.2416 13.134Z" fill="#C6C2F9"/>
<path fill-rule="evenodd" clip-rule="evenodd" d="M76.5388 60.4822C76.3838 60.6476 76.1389 60.7598 75.8041 60.8189C75.4916 60.874 75.1367 60.8847 74.7395 60.8512C74.3423 60.8177 73.9553 60.7766 73.5785 60.7279C73.2016 60.6793 72.876 60.6274 72.6016 60.5722C72.3272 60.517 72.1565 60.4953 72.0895 60.5071C71.9556 60.5308 71.8426 60.6082 71.7507 60.7395C71.6588 60.8708 71.6286 61.0257 71.6601 61.2043C71.7073 61.4722 71.9479 61.6944 72.3818 61.8711C72.8157 62.0478 73.3052 62.1801 73.8501 62.2682C74.395 62.3562 74.9274 62.4062 75.4474 62.4181C75.9673 62.43 76.3389 62.4162 76.5621 62.3769C77.2765 62.2509 77.8112 61.9552 78.1665 61.4898C78.5217 61.0244 78.6265 60.3787 78.4809 59.5528C78.3471 58.7938 78.0921 58.131 77.716 57.5644C77.3399 56.9978 76.9149 56.4801 76.4409 56.0112C75.967 55.5424 75.4559 55.0916 74.9078 54.6589C74.3597 54.2262 73.8578 53.7623 73.4022 53.2672C72.9808 52.8351 72.6588 52.4776 72.4363 52.1946C72.2138 51.9116 72.0248 51.6227 71.8692 51.3279C71.7137 51.0331 71.5502 50.6937 71.3789 50.3096C71.2076 49.9255 70.9664 49.4387 70.6553 48.8491C70.4965 48.6009 70.2943 48.4984 70.0487 48.5417C69.9371 48.5614 69.8445 48.6238 69.771 48.7288C69.6975 48.8338 69.6764 48.9756 69.7079 49.1542C69.9192 50.2218 70.182 51.1248 70.4964 51.8635C70.8107 52.6021 71.1776 53.2797 71.5971 53.8962C72.0165 54.5128 72.5085 55.1165 73.073 55.7074L75.0206 57.7462C75.1033 57.8237 75.2294 57.9511 75.3987 58.1284C75.5681 58.3057 75.7348 58.5007 75.8989 58.7134C76.063 58.9261 76.2169 59.1464 76.3607 59.3743C76.5044 59.6021 76.594 59.8165 76.6294 60.0174C76.6609 60.1959 76.6307 60.3509 76.5388 60.4822ZM70.0627 47.0547C70.1429 46.8565 70.1691 46.6792 70.1416 46.5229C70.1062 46.322 70.0143 46.1599 69.8659 46.0364C69.7176 45.913 69.5541 45.867 69.3755 45.8985C69.1746 45.9339 69.022 46.0471 68.9175 46.2382C68.8131 46.4292 68.7747 46.6028 68.8022 46.7591C68.8337 46.9377 68.9283 47.0821 69.0858 47.1925C69.2434 47.3028 69.4114 47.3422 69.59 47.3107C69.7909 47.2753 69.9485 47.1899 70.0627 47.0547Z" fill="#F5F4FD"/>
</g>
</svg>
