<svg width="310" height="123" viewBox="0 0 310 123" fill="none" xmlns="http://www.w3.org/2000/svg">
<path d="M265.383 120.298C260.831 122.413 94.4423 122.195 73.8523 122.195C65.3251 122.195 57.6431 123.793 51.6766 119.673C45.4549 115.377 40.5846 109.164 35.9946 104.09C26.5135 93.6108 18.8566 82.1361 17.7394 69.8491C17.3127 65.1382 17.957 60.1764 21.7813 56.1689C25.6055 52.1614 33.3126 49.4406 40.2373 50.8255C46.8231 52.1423 52.8314 56.8123 59.1243 54.9857C63.3586 53.7562 64.5302 50.2803 65.3084 47.3033C68.2205 36.1448 73.5762 24.6838 85.9527 16.7424C98.3335 8.80362 119.384 5.70936 133.35 12.4404C141.053 16.1535 145.413 22.0912 148.651 27.9689C151.89 33.8466 154.375 39.997 159.572 45.2422C164.769 50.4875 173.484 54.7976 183.053 54.495C191.455 54.2278 198.635 50.5611 204.655 46.7335C210.676 42.9031 216.446 38.6203 224.22 36.5265C231.994 34.4301 242.576 35.4333 246.434 40.3051C249.789 44.5443 246.886 49.6314 244.396 54.1161C241.501 59.3368 239.191 64.8983 240.43 70.3889C241.668 75.8795 247.245 81.2746 255.501 82.6405C263.049 83.8891 271.212 81.6563 278.731 82.9758C289.894 84.936 294.735 94.2787 291.275 101.465C287.814 108.651 278.572 113.951 269.275 118.428C269.275 118.428 269.275 118.428 269.27 118.428C267.785 119.147 266.526 119.766 265.383 120.298Z" fill="#FAFCFF"/>
<path d="M201.399 8.14043C202.912 9.03471 204.006 10.4477 204.882 11.8868C208.575 17.9508 209.121 25.0016 207.735 31.2412C206.353 37.483 203.192 43.0525 199.834 48.3981C198.452 50.6029 194.083 59.3265 191.229 55.0479C189.326 52.192 190.533 43.9825 190.539 40.9118C190.548 34.8447 191.509 28.8958 193.37 23.3066C193.817 21.9595 200.208 7.43571 201.399 8.14043Z" fill="#EDF5FF"/>
<path d="M197.28 63.389C207.552 59.0787 219.367 57.3572 231.315 58.4316C229.78 61.6717 226.475 63.7627 223.013 65.2603C214.812 68.8027 207.982 70.6405 198.876 71.9881C196.285 72.3713 186.388 72.2443 186.298 71.2339C186.014 68.0417 194.676 64.4788 197.28 63.389Z" fill="#E3EFFF"/>
<path d="M165.014 96.5839L164.396 96.0248C168.705 91.9206 172.769 87.3158 176.472 82.3421C179.973 77.6405 183.253 72.4735 186.219 66.9855C189.004 61.8365 191.593 56.2539 193.917 50.3952C196.13 44.8146 198.113 38.9961 199.816 33.0997C201.169 28.4079 202.743 22.1842 202.907 15.6274C202.924 14.9028 202.925 14.1727 202.908 13.4574L203.718 13.5452C203.734 14.2721 203.737 15.0128 203.717 15.7491C203.554 22.3822 201.965 28.6566 200.601 33.3843C198.894 39.2988 196.903 45.1384 194.681 50.7349C192.348 56.6179 189.746 62.2226 186.954 67.3927C183.973 72.9061 180.679 78.0985 177.159 82.8233C173.436 87.8233 169.348 92.4523 165.014 96.5839Z" fill="#E3EFFF"/>
<path d="M180.876 76.7465C180.872 76.7444 180.865 76.7401 180.861 76.7379C180.664 76.6159 180.592 76.3802 180.699 76.2135C182.826 72.8892 187.191 70.1013 193.681 67.9277C202.955 64.8233 212.542 61.6127 223.091 61.6389C223.313 61.6403 223.518 61.809 223.547 62.0158C223.576 62.2226 223.42 62.3901 223.198 62.3887C212.784 62.3602 203.257 65.551 194.044 68.6357C187.708 70.7584 183.458 73.4569 181.413 76.6556C181.307 76.8223 181.069 76.8579 180.876 76.7465Z" fill="#EFF6FF"/>
<path fill-rule="evenodd" clip-rule="evenodd" d="M186.981 66.0778C187.007 66.1098 187.036 66.1354 187.07 66.1547C187.17 66.2126 187.29 66.2186 187.38 66.1567C192.07 63.0827 197.263 59.3327 200.991 54.4873C200.998 54.4831 201.006 54.4795 201.014 54.4758C201.023 54.4722 201.031 54.4685 201.038 54.4643C203.481 53.045 205.684 51.5342 207.917 49.9811C212.507 46.7868 215.571 43.64 217.558 40.0785C218.907 37.6563 220.304 34.0371 219.975 29.7808C220.067 29.6394 220.001 29.2045 219.655 27.5939L219.571 27.1992L219.217 27.375C213.561 30.1695 210.331 35.4121 208.149 39.6717C207.437 41.085 206.747 42.5534 206.08 43.9754C204.726 46.8596 203.329 49.8367 201.666 52.5377C197.96 58.1175 192.178 62.33 187.012 65.7157C186.892 65.7944 186.878 65.9553 186.981 66.0778ZM208.667 39.9494C210.756 35.8768 213.812 30.8927 219.05 28.1019C219.103 28.6098 219.296 29.2446 219.386 29.5164C219.776 33.7615 218.382 37.3829 217.041 39.7924C215.092 43.2958 212.071 46.3952 207.534 49.5485C205.669 50.8496 203.819 52.1169 201.84 53.3261C201.944 53.178 202.047 53.0252 202.147 52.8748L202.164 52.8503C203.842 50.1239 205.246 47.1341 206.605 44.2405C207.271 42.8216 207.959 41.3563 208.667 39.9494Z" fill="#E3EFFF"/>
<path d="M251.159 85.5899C250.16 84.2684 248.536 83.3946 246.87 82.7207C239.856 79.8994 231.558 80.1167 224.142 82.0556C216.726 83.9945 210.033 87.5288 203.599 91.224C200.946 92.7455 190.488 97.7362 195.429 99.962C198.725 101.449 208.459 99.4664 212.085 99.1447C219.247 98.5056 226.302 96.9928 232.969 94.6714C234.564 94.1106 251.943 86.6289 251.159 85.5899Z" fill="#F2F8FF"/>
<path d="M244.873 83.9771C244.017 84.0379 243.141 84.1118 242.27 84.2075C234.436 85.0465 226.974 87.181 221.34 88.9503C214.296 91.1587 207.333 93.628 200.645 96.2841C193.615 99.0751 186.902 102.088 180.698 105.24C179.954 105.618 179.221 105.996 178.487 106.383C178.997 106.409 179.506 106.439 180.015 106.47C180.392 106.274 180.764 106.079 181.146 105.887C187.325 102.753 194.013 99.7489 201.011 96.971C207.679 94.3235 214.622 91.863 221.641 89.6589C227.228 87.907 234.629 85.7855 242.377 84.9552C243.233 84.8639 244.093 84.7856 244.939 84.7291L244.873 83.9771Z" fill="#E2EEFF"/>
<path fill-rule="evenodd" clip-rule="evenodd" d="M202.478 84.6074C194.12 90.298 187.523 97.784 182.099 104.496C181.997 104.627 181.997 104.787 182.093 104.905C182.124 104.944 182.165 104.983 182.216 105.013C182.414 105.131 182.689 105.087 182.827 104.918C188.802 97.5232 196.208 89.1808 205.799 83.412C210.434 80.7906 215.523 78.4822 220.449 76.252C222.878 75.1522 225.389 74.0132 227.804 72.8568C235.093 69.3138 244.093 64.2275 249.1 56.2677L249.421 55.7721L248.759 55.7156C246.07 55.4938 245.336 55.4678 245.097 55.6156C237.945 55.8069 231.772 58.2109 227.625 60.3671C221.518 63.5406 216.058 68.0966 210.434 74.6957C207.704 77.904 205.04 81.0731 202.519 84.5379C202.504 84.5596 202.488 84.5857 202.478 84.6074ZM228.077 61.0062C232.208 58.8586 238.382 56.4633 245.508 56.359C245.966 56.4416 247.021 56.6068 247.876 56.5981C242.895 64.0015 234.332 68.8182 227.364 72.2091C225.04 73.3228 222.621 74.4202 220.272 75.4857L220.029 75.5956L220.029 75.5959C215.083 77.839 209.974 80.156 205.293 82.799C205.018 82.9642 204.743 83.1294 204.473 83.2989C206.618 80.4776 208.854 77.8214 211.141 75.1391C216.693 68.6182 222.077 64.1275 228.077 61.0062Z" fill="#D3E6FD"/>
<path d="M203.09 83.7773L203.635 84.3685C205 83.4469 206.747 82.1297 208.596 80.7299C210.786 79.0779 213.048 77.3651 214.708 76.3087C220.128 72.8439 225.711 69.4444 231.309 66.197C236.906 62.9539 242.667 59.7761 248.438 56.7504L247.98 56.1113C242.199 59.1414 236.423 62.3236 230.815 65.5753C225.206 68.8271 219.609 72.2353 214.179 75.7044C212.493 76.7826 210.216 78.5041 208.01 80.1647C206.177 81.5602 204.435 82.8731 203.09 83.7773Z" fill="#D3E6FD"/>
<path d="M195.007 93.8649C195.283 90.8914 195.94 87.5415 198.428 86.4833C198.793 86.3265 199.222 86.235 199.614 86.4348C200.314 86.7868 200.472 87.7877 200.944 88.4633C201.938 89.8934 204.031 89.3932 204.818 88.0687C205.605 86.7441 205.595 84.9796 205.989 83.4261C206.333 82.0696 206.993 80.8541 207.902 79.9092C209.091 78.6769 211.364 78.1084 212.507 79.7232C213.333 80.8966 212.987 82.41 212.802 83.7473C212.616 85.0847 212.919 86.9139 214.178 87.3815C215.26 87.7829 216.16 86.8313 216.863 86.0174C218.573 84.0216 220.636 82.3868 222.939 81.1952C224.544 80.3646 226.347 79.7438 228.234 80.0943C230.119 80.4404 232.071 81.9953 232.508 84.0294C232.912 85.9265 231.943 87.6624 230.731 88.8542C227.429 92.1044 222.478 92.7187 218.229 94.4876C217.226 94.905 216.096 95.8395 216.571 97.0173C216.905 97.8445 217.819 98.1687 218.59 98.5099C220.465 99.3357 222.136 100.909 223.17 102.833C223.346 103.163 223.51 103.518 223.512 103.877C223.522 104.693 222.73 105.121 222.003 105.247C218.637 105.822 214.834 103.145 211.581 104.075C211.146 104.2 210.695 104.43 210.564 104.896C210.471 105.232 210.57 105.625 210.715 105.973C211.311 107.423 212.621 108.413 213.657 109.579C214.694 110.745 215.515 112.539 214.795 113.723C214.253 114.612 213.073 114.741 212.02 114.647C208.778 114.346 205.581 112.622 202.831 110.369C200.367 108.347 197.202 105.517 195.531 102.666C193.96 99.9723 194.752 96.5986 195.007 93.8649Z" fill="#E8F3FF"/>
<path d="M227.211 85.5629L192.33 105.702" stroke="#E5EDF7" stroke-linecap="round"/>
<path d="M210.547 80.5898C209.611 85.985 208.548 91.339 207.361 96.6452" stroke="#E5EDF7" stroke-linecap="round"/>
<path d="M199.026 88.46C198.703 93.0631 198.275 97.6431 197.748 102.196" stroke="#E5EDF7" stroke-linecap="round"/>
<path d="M205.86 98.4065C210.545 99.842 215.219 101.356 219.879 102.95" stroke="#E5EDF7" stroke-linecap="round"/>
<path d="M80.017 23.1599C78.5869 23.976 77.5727 25.2779 76.7729 26.6058C73.4023 32.1839 73.0957 38.6871 74.6288 44.4541C76.1605 50.2175 79.3923 55.3703 82.804 60.3204C84.2102 62.361 88.7027 70.4278 91.3245 66.4922C93.0715 63.866 91.6447 56.2865 91.5442 53.4499C91.3443 47.8473 90.2291 42.357 88.252 37.193C87.7784 35.9455 81.1483 22.5149 80.017 23.1599Z" fill="#EDF5FF"/>
<path d="M85.7478 74.1596C75.6935 70.1408 64.2325 68.5036 52.7285 69.4429C54.3119 72.4392 57.5714 74.3841 60.9619 75.7775C68.994 79.0792 75.6431 80.8064 84.4798 82.0829C86.993 82.4465 96.5432 82.3725 96.5991 81.4402C96.7729 78.4997 88.2999 75.1795 85.7478 74.1596Z" fill="#EDF5FF"/>
<path d="M117.959 104.925L118.539 104.414C114.246 100.609 110.177 96.3439 106.445 91.7352C102.914 87.3824 99.5884 82.601 96.5456 77.525C93.6948 72.7623 91.0157 67.5998 88.5859 62.1841C86.2741 57.0253 84.1709 51.649 82.3399 46.2028C80.8845 41.8691 79.1673 36.1191 78.7985 30.0657C78.76 29.3969 78.7344 28.7233 78.7284 28.0634L77.9506 28.1383C77.9563 28.8108 77.9803 29.4933 78.0229 30.1732C78.3916 36.2932 80.1218 42.0925 81.5892 46.4594C83.4269 51.924 85.5325 57.3202 87.8553 62.4958C90.2931 67.9335 92.9846 73.1165 95.8477 77.8998C98.8999 83.0015 102.248 87.8039 105.793 92.1809C109.545 96.807 113.638 101.097 117.959 104.925Z" fill="#E3EFFF"/>
<path d="M102.014 86.5569C102.018 86.5553 102.022 86.5538 102.025 86.5485C102.209 86.4359 102.276 86.2198 102.167 86.0679C100.008 82.9898 95.704 80.4006 89.3724 78.3663C80.3188 75.4615 70.9612 72.4591 60.7781 72.4429C60.5631 72.442 60.3715 72.5992 60.3515 72.7855C60.3286 72.9771 60.483 73.1333 60.6966 73.1305C70.7487 73.1485 80.0498 76.1299 89.0427 79.0152C95.2288 80.9983 99.4149 83.5054 101.493 86.4673C101.599 86.6245 101.826 86.6584 102.014 86.5569Z" fill="#E3EFFF"/>
<path fill-rule="evenodd" clip-rule="evenodd" d="M75.883 61.3736C81.2372 67.7734 88.5641 72.7433 95.1643 76.816C95.2906 76.8949 95.4588 76.8878 95.583 76.8135C95.6277 76.7889 95.6697 76.7569 95.7034 76.7155C95.8353 76.5551 95.8118 76.343 95.6419 76.2382C88.3693 71.7524 80.2152 66.1717 74.855 58.8038C72.4448 55.2381 70.3792 51.3055 68.386 47.5048C67.4059 45.6297 66.3874 43.6894 65.343 41.8252C62.142 36.2072 57.4549 29.2813 49.5378 25.5715L49.042 25.3355L48.9444 25.8582C48.5435 27.9737 48.4703 28.5499 48.6055 28.7339C48.3469 34.3369 50.4357 39.1105 52.4045 42.308C55.3008 47.0084 59.6649 51.1704 66.1375 55.4019C69.2806 57.4558 72.3864 59.4608 75.8139 61.3446C75.8378 61.3567 75.8604 61.3651 75.883 61.3736ZM53.1024 41.9296C51.1446 38.7489 49.0602 33.9737 49.4068 28.3845C49.5191 28.023 49.7578 27.1908 49.8005 26.5173C57.1441 30.2195 61.5799 36.8037 64.6442 42.18C65.6181 43.916 66.5656 45.7198 67.4892 47.4783C67.5535 47.6007 67.6177 47.723 67.6818 47.8449L67.6905 47.8614C69.692 51.6738 71.7591 55.6113 74.1934 59.2075C74.348 59.4178 74.5026 59.628 74.6615 59.8367C71.8781 58.2348 69.2746 56.5508 66.6435 54.831C60.2536 50.6527 55.9508 46.5517 53.1024 41.9296Z" fill="#E3EFFF"/>
<path d="M75.0676 60.9126L75.7115 60.4701C74.8488 59.4267 73.5913 58.0897 72.2616 56.6749C70.6916 55.002 69.0673 53.2739 68.0774 52.0019C64.838 47.8469 61.6759 43.5556 58.6762 39.2551C55.6766 34.9546 52.7585 30.5162 50 26.0738L49.3077 26.4506C52.0703 30.9041 54.9997 35.3467 58.0033 39.6583C61.007 43.9698 64.1761 48.2669 67.4238 52.4313C68.4317 53.7259 70.0656 55.4672 71.6483 57.148C72.9654 58.5549 74.2145 59.8824 75.0676 60.9126Z" fill="#E3EFFF"/>
<path d="M140.375 58.8063C144.896 53.6178 151.614 50.4258 158.509 47.9095C163.204 59.611 160.097 72.4923 150.891 79.5161C149.285 80.7394 147.468 81.814 145.318 82.1995C139.429 83.2496 136.308 79.2746 135.736 74.5619C135.002 68.5625 136.601 63.1425 140.375 58.8063Z" fill="#F2F8FF"/>
<path d="M156.677 52.2196L136.354 87.4194" stroke="#EAF3FE" stroke-linecap="round"/>
<path d="M149.643 52.5547C149.753 55.6276 149.903 58.7052 150.093 61.7876" stroke="#EAF3FE" stroke-linecap="round"/>
<path d="M147.453 68.7261C151.172 67.9231 154.787 66.8428 158.25 65.4941" stroke="#EAF3FE" stroke-linecap="round"/>
<path d="M108.933 38.5455C110.416 38.7031 111.843 39.5517 113.135 40.5243C118.563 44.6277 122.242 51.1301 124.184 57.7506C126.126 64.3712 126.502 71.1733 126.634 77.8496C126.69 80.6023 127.687 90.9836 123.68 88.2035C121.005 86.3502 118.022 77.9215 116.589 74.9743C113.762 69.1528 111.659 63.0088 110.359 56.7886C110.053 55.2986 107.768 38.422 108.933 38.5455Z" fill="#F2F8FF"/>
<path d="M113.092 42.6471C113.442 43.3355 113.791 44.0457 114.121 44.762C117.105 51.1949 118.918 57.9415 120.164 63.1081C121.726 69.5667 123.049 76.0833 124.1 82.4744C125.205 89.1913 125.993 95.7673 126.437 102.015C126.49 102.764 126.539 103.505 126.58 104.25C126.324 103.869 126.064 103.491 125.805 103.112C125.781 102.73 125.759 102.353 125.73 101.969C125.284 95.7495 124.501 89.1971 123.4 82.5099C122.352 76.1386 121.032 69.6416 119.478 63.2047C118.24 58.0816 116.445 51.3882 113.494 45.0261C113.168 44.3236 112.83 43.6232 112.481 42.9446L113.092 42.6471Z" fill="#E2EEFF"/>
<path fill-rule="evenodd" clip-rule="evenodd" d="M132.258 75.6469C131.742 84.7337 129.025 93.293 126.361 100.59C126.307 100.729 126.183 100.803 126.048 100.783C126.004 100.778 125.955 100.764 125.907 100.739C125.725 100.64 125.631 100.408 125.698 100.223C128.633 92.1857 131.636 82.6045 131.641 72.5305C131.514 67.7393 130.936 62.7433 130.374 57.9094C130.096 55.5251 129.81 53.0597 129.583 50.6609C128.938 43.395 128.69 34.0933 132.51 26.5404L132.743 26.0631L133.094 26.5477C134.512 28.5199 134.872 29.0737 134.869 29.3269C138.036 34.9329 139.043 40.8103 139.302 45.0087C139.685 51.1916 138.701 57.5163 136.216 64.9139C135.007 68.5075 133.797 72.0319 132.293 75.5833C132.283 75.6051 132.27 75.629 132.258 75.6469ZM138.598 44.9551C138.34 40.7726 137.326 34.8993 134.103 29.3532C133.827 29.0378 133.21 28.3009 132.82 27.6367C129.418 34.9119 129.671 43.7508 130.285 50.6986C130.503 53.0079 130.778 55.3832 131.045 57.6893L131.073 57.9273L131.073 57.928C131.635 62.7835 132.215 67.7989 132.346 72.6354L132.346 72.6356C132.346 72.9243 132.346 73.213 132.341 73.4999C133.523 70.5375 134.536 67.581 135.545 64.5732C138.002 57.2669 138.971 51.0313 138.598 44.9551Z" fill="#D3E6FD"/>
<path d="M132.616 74.7904L131.907 74.644C131.985 73.1635 132.191 71.205 132.414 69.1296C132.673 66.674 132.946 64.1352 132.992 62.3644C133.152 56.5769 133.187 50.694 133.098 44.8698C133.005 39.0476 132.786 33.1299 132.445 27.2748L133.15 27.3323C133.493 33.1972 133.715 39.1287 133.806 44.9628C133.897 50.7969 133.863 56.6956 133.703 62.4929C133.653 64.2935 133.38 66.8481 133.122 69.3195C132.895 71.3811 132.69 73.3337 132.616 74.7904Z" fill="#D3E6FD"/>
<path d="M114.53 98.1428C108.74 90.4425 106.325 80.3131 104.886 70.1388C122.276 67.1159 139.012 75.1196 145.951 89.771C147.158 92.3266 148.101 95.1273 148.003 98.1831C147.727 106.554 141.375 109.67 134.755 109.082C126.33 108.336 119.369 104.573 114.53 98.1428Z" fill="#F2F8FF"/>
<path d="M110.254 73.9021L150.309 109.968" stroke="#EAF3FE" stroke-linecap="round"/>
<path d="M108.667 83.6309C112.907 84.374 117.165 85.0643 121.442 85.7018" stroke="#EAF3FE" stroke-linecap="round"/>
<path d="M130.173 91.3368C130.156 86.0099 129.729 80.7454 128.89 75.611" stroke="#EAF3FE" stroke-linecap="round"/>
<path d="M127.733 114.317C125.542 115.834 122.873 117.31 120.716 116.213C120.4 116.054 120.091 115.814 119.998 115.43C119.838 114.749 120.428 114.068 120.624 113.351C121.029 111.851 119.487 110.705 118.13 110.93C116.774 111.154 115.568 112.171 114.278 112.795C113.152 113.339 111.939 113.584 110.775 113.504C109.25 113.4 107.556 112.167 108.003 110.461C108.33 109.219 109.569 108.589 110.588 107.95C111.608 107.31 112.685 106.049 112.283 104.917C111.937 103.946 110.769 103.877 109.808 103.864C107.458 103.835 105.155 103.365 103.021 102.474C101.534 101.85 100.072 100.975 99.226 99.4848C98.3795 97.9942 98.322 95.7673 99.4633 94.301C100.53 92.9347 102.273 92.6029 103.789 92.7475C107.91 93.1414 111.17 96.1713 114.821 98.066C115.683 98.5135 116.971 98.7469 117.501 97.7512C117.877 97.0486 117.572 96.2319 117.361 95.5133C116.845 93.7553 116.966 91.7079 117.69 89.8987C117.814 89.5879 117.961 89.2727 118.206 89.063C118.758 88.59 119.509 88.8823 120.009 89.3123C122.335 91.2842 122.689 95.4245 125.192 97.1176C125.527 97.3473 125.947 97.5194 126.336 97.3433C126.623 97.2123 126.832 96.9199 126.99 96.6212C127.636 95.3816 127.562 93.9176 127.771 92.538C127.973 91.1622 128.727 89.5676 129.95 89.3832C130.87 89.2412 131.633 89.9767 132.175 90.7526C133.834 93.1427 134.488 96.3242 134.522 99.496C134.554 102.343 134.434 106.133 133.442 108.918C132.515 111.525 129.749 112.921 127.733 114.317Z" fill="#E8F3FF"/>
<path d="M104.295 97.776L133.222 108.305" stroke="#E5EDF7" stroke-linecap="round"/>
<path d="M111.536 110.71C113.277 109.685 115.015 108.652 116.755 107.626" stroke="#E5EDF7" stroke-linecap="round"/>
<path d="M118.992 106.088C119.922 105.606 120.846 105.123 121.776 104.641" stroke="#E5EDF7" stroke-linecap="round"/>
<path d="M122.287 113.772C125.227 111.822 128.188 109.918 131.175 108.062" stroke="#E5EDF7" stroke-linecap="round"/>
<path d="M126.619 105.647C124.688 102.128 122.8 98.5798 120.95 95.0012" stroke="#E5EDF7" stroke-linecap="round"/>
<path fill-rule="evenodd" clip-rule="evenodd" d="M127.339 57.7307C127.292 57.5823 127.267 57.4246 127.267 57.2612V49.2433C127.267 45.7311 130.21 42.875 133.829 42.875H173.204C176.823 42.875 179.767 45.7311 179.767 49.2433V57.2612C179.767 57.4235 179.742 57.5801 179.695 57.7275C179.742 57.8804 179.768 58.0428 179.768 58.2113V107.25V107.43V115.211C179.768 118.748 176.824 121.625 173.205 121.625H133.83C130.211 121.625 127.268 118.748 127.268 115.211V107.43V107.25V58.2113C127.268 58.044 127.293 57.8826 127.339 57.7307Z" fill="#9FCBFF"/>
<path fill-rule="evenodd" clip-rule="evenodd" d="M129.551 105.647H177.486V58.853H129.551V105.647Z" fill="#D7EAFF"/>
<path fill-rule="evenodd" clip-rule="evenodd" d="M129.551 107.929V115.515C129.551 117.625 131.087 119.342 132.975 119.342H174.062C175.949 119.342 177.486 117.625 177.486 115.515V107.929H129.551Z" fill="#D7EAFF"/>
<path fill-rule="evenodd" clip-rule="evenodd" d="M129.551 56.5708H177.486V48.9393C177.486 46.8546 175.949 45.1577 174.062 45.1577H132.975C131.087 45.1577 129.551 46.8546 129.551 48.9393V56.5708Z" fill="#D7EAFF"/>
<path d="M160.366 113.636C160.366 114.896 159.344 115.918 158.083 115.918H148.953C147.692 115.918 146.67 114.896 146.67 113.636C146.67 112.375 147.692 111.353 148.953 111.353H158.083C159.344 111.353 160.366 112.375 160.366 113.636Z" fill="#A3CEFF"/>
<path fill-rule="evenodd" clip-rule="evenodd" d="M154.659 52.0053C155.289 52.0053 155.8 51.4943 155.8 50.864C155.8 50.2336 155.289 49.7227 154.659 49.7227H146.67C146.039 49.7227 145.528 50.2336 145.528 50.864C145.528 51.4943 146.039 52.0053 146.67 52.0053H154.659ZM161.506 52.0053C162.137 52.0053 162.647 51.4943 162.647 50.864C162.647 50.2336 162.137 49.7227 161.506 49.7227H159.224C158.593 49.7227 158.082 50.2336 158.082 50.864C158.082 51.4943 158.593 52.0053 159.224 52.0053H161.506Z" fill="#A3CEFF"/>
<path opacity="0.5" d="M77.125 60C77.125 57.7909 78.9159 56 81.125 56H141.375C143.584 56 145.375 57.7909 145.375 60V90.5C145.375 92.7091 143.584 94.5 141.375 94.5H81.125C78.9159 94.5 77.125 92.7091 77.125 90.5V60Z" fill="#E8EFFB"/>
<path d="M78 59.125C78 56.9159 79.7909 55.125 82 55.125H142.25C144.459 55.125 146.25 56.9159 146.25 59.125V89.625C146.25 91.8341 144.459 93.625 142.25 93.625H82C79.7909 93.625 78 91.8341 78 89.625V59.125Z" fill="white"/>
<path fill-rule="evenodd" clip-rule="evenodd" d="M118.895 71.1891C119.093 71.0913 119.243 70.9227 119.392 70.7425C119.573 70.5232 119.751 70.3147 119.971 70.1364C120.234 69.9231 120.587 69.7189 121.03 69.6542C120.943 70.153 120.897 70.6657 120.896 71.1891H118.895ZM120.387 65.6901L120.388 65.6903L120.388 65.69C120.609 65.7033 120.825 65.6312 121.045 65.5486C121.313 65.448 121.572 65.3552 121.853 65.3093C122.191 65.2543 122.602 65.2517 123.021 65.417C122.357 66.201 121.825 67.0976 121.46 68.0739C121.108 67.799 120.906 67.448 120.786 67.1329C120.686 66.8699 120.638 66.6018 120.592 66.3224C120.554 66.093 120.51 65.8729 120.387 65.6901ZM124.467 61.6644L124.467 61.6646V61.6643C124.652 61.7853 124.875 61.8292 125.108 61.8661C125.391 61.9113 125.662 61.9589 125.929 62.0577C126.25 62.1768 126.607 62.3775 126.886 62.7273C125.896 63.0864 124.986 63.6103 124.19 64.2644C124.023 63.8508 124.025 63.4444 124.081 63.1105C124.127 62.8334 124.221 62.5774 124.323 62.3128C124.407 62.0958 124.48 61.8832 124.467 61.6644ZM130.039 60.1909V60.1912L130.039 60.1909C130.138 60.3871 130.309 60.5352 130.492 60.6816C130.714 60.8606 130.925 61.0359 131.106 61.2529C131.324 61.5147 131.532 61.8654 131.596 62.3068C131.09 62.2213 130.57 62.1761 130.039 62.1761C129.508 62.1761 128.989 62.2213 128.482 62.3069C128.547 61.8654 128.755 61.5147 128.972 61.2529C129.153 61.0359 129.364 60.8606 129.586 60.6816C129.769 60.5352 129.94 60.3871 130.039 60.1909ZM135.611 61.6643V61.6646L135.612 61.6644C135.598 61.8831 135.671 62.0957 135.755 62.3128C135.857 62.5774 135.951 62.8334 135.998 63.1105C136.053 63.4443 136.056 63.8507 135.888 64.2643C135.092 63.6102 134.183 63.0865 133.192 62.7272C133.472 62.3775 133.829 62.1768 134.15 62.0577C134.416 61.9588 134.688 61.9112 134.971 61.866C135.203 61.8292 135.426 61.7853 135.611 61.6643ZM139.691 65.6899L139.691 65.6901H139.691C139.568 65.8728 139.524 66.093 139.487 66.3224C139.441 66.6017 139.393 66.8699 139.292 67.1328C139.172 67.4479 138.97 67.7989 138.619 68.0738C138.253 67.0975 137.721 66.2009 137.057 65.4169C137.476 65.2517 137.887 65.2542 138.226 65.3092C138.506 65.3551 138.766 65.4479 139.034 65.5485C139.254 65.6312 139.469 65.7033 139.691 65.6899ZM139.048 69.6541C139.492 69.7189 139.844 69.923 140.108 70.1364C140.328 70.3146 140.505 70.5231 140.687 70.7425C140.835 70.9226 140.985 71.0913 141.184 71.1891H139.182C139.182 70.6657 139.135 70.153 139.048 69.6541ZM132.696 63.2849C136.061 64.3818 138.493 67.5046 138.507 71.1893H136.842C136.953 67.9706 135.529 65.0655 132.696 63.2849Z" fill="#FAB401"/>
<path fill-rule="evenodd" clip-rule="evenodd" d="M133.035 71.1883H133.9C133.942 70.2605 133.861 69.1612 133.557 68.2013C133.497 68.0119 133.428 67.8279 133.35 67.6524C133.166 67.2377 132.919 66.8622 132.623 66.5151C132.295 66.1297 131.903 65.783 131.462 65.51C131.332 65.4294 131.197 65.355 131.058 65.2879V65.2877C130.919 65.2209 130.776 65.1613 130.629 65.1097L130.628 65.1094C128.943 64.5191 127.239 64.9389 125.809 65.7064C125.531 65.856 125.262 66.0187 125.007 66.1897C124.752 66.3605 124.508 66.54 124.28 66.723H124.28L124.279 66.7234C124.008 66.9406 123.668 67.2378 123.332 67.5892C123.266 67.6583 123.201 67.7288 123.137 67.8C122.967 67.9902 122.705 68.2569 122.783 68.5328C122.844 68.7516 123.13 68.687 123.23 68.6116C123.383 68.5307 123.551 68.4024 123.694 68.2823C123.889 68.1198 124.073 67.9448 124.265 67.78C125.045 67.1134 125.857 66.5994 126.657 66.2514C126.831 66.1757 127.006 66.1074 127.18 66.0471C127.353 65.987 127.526 65.9349 127.697 65.8911L127.698 65.8909C129.186 65.5093 130.804 65.7566 131.84 66.9546C132.837 68.1086 133.02 69.6534 133.035 71.1883ZM122.298 69.8839C122.391 69.7983 122.486 69.6865 122.584 69.5628C122.722 69.3899 122.736 69.2224 122.682 69.1016C122.661 69.0565 122.631 69.0177 122.595 68.9875C122.559 68.9577 122.516 68.9364 122.47 68.9261C122.357 68.9006 122.223 68.9403 122.108 69.0776C121.979 69.2329 121.801 69.4982 121.764 69.7329C121.757 69.777 121.755 69.8197 121.76 69.8598C121.765 69.899 121.775 69.936 121.793 69.9698L121.793 69.9703L121.793 69.9702C121.822 70.0253 121.871 70.0544 121.937 70.0568C121.95 70.0573 121.965 70.0567 121.981 70.0549C121.996 70.0534 122.013 70.0504 122.031 70.0463V70.0464L122.031 70.0462C122.12 70.0253 122.208 69.9668 122.298 69.8839ZM131.274 71.1883H132.132C132.173 70.1883 132.01 69.1555 131.539 68.2618C131.11 67.4488 130.402 66.8962 129.485 66.7626C128.146 66.5677 126.795 67.1269 125.653 67.9272C124.409 68.7985 123.383 69.9816 122.486 71.1883L123.62 71.1869C124.64 69.7592 126.988 67.5919 128.715 67.5777C129.265 67.5731 129.825 67.7007 130.238 68.065C130.538 68.3289 130.902 68.8414 130.884 69.2574C130.873 69.5041 130.651 69.5797 130.439 69.5033C130.273 69.4439 130.157 69.2948 130.041 69.1382C129.665 68.6291 129.079 68.3799 128.436 68.4667C127.67 68.5702 126.719 69.1577 126.106 69.692C125.577 70.1529 125.092 70.6574 124.634 71.1883H125.853C126.3 70.6563 126.772 70.2024 127.378 69.8295C127.57 69.7116 127.806 69.5868 128.055 69.5026C128.681 69.2899 129.305 69.3438 129.582 70.1138C129.691 70.4165 129.707 70.682 129.675 71.1686L129.675 71.1883H130.504L130.506 71.1634C130.507 70.897 130.501 70.7174 130.525 70.4534C130.546 70.2257 130.618 69.9899 130.832 69.9619C131.287 69.8678 131.265 70.8672 131.274 71.1883ZM125.432 73.7729H124.758L124.592 74.3521H124.055L124.765 72.1344H125.445L126.175 74.3521H125.615L125.432 73.7729ZM124.835 73.3978H125.352C125.216 72.9646 125.128 72.6674 125.088 72.5061H125.082L124.975 72.9273L124.835 73.3978ZM122.958 73.7729H122.285L122.118 74.3521H121.581L122.291 72.1344H122.971L123.702 74.3521H123.141L122.958 73.7729ZM122.361 73.3978H122.878C122.742 72.9646 122.655 72.6674 122.615 72.5061H122.608L122.501 72.9273L122.361 73.3978ZM126.689 74.3422V72.1638C126.911 72.1311 127.149 72.1146 127.402 72.1146C127.881 72.1146 128.225 72.2132 128.434 72.4113C128.642 72.6093 128.746 72.868 128.746 73.1872C128.746 73.5645 128.628 73.8569 128.39 74.0642C128.153 74.2715 127.787 74.375 127.292 74.375C127.063 74.375 126.862 74.3641 126.689 74.3422ZM127.205 72.5259V73.9703C127.234 73.9769 127.297 73.9803 127.392 73.9803C127.649 73.9803 127.848 73.9133 127.988 73.78C128.129 73.6468 128.199 73.456 128.199 73.207C128.199 72.9788 128.135 72.805 128.007 72.6855C127.879 72.5659 127.693 72.5061 127.452 72.5061C127.351 72.5061 127.269 72.5128 127.205 72.5259ZM129.299 72.1344H129.816V72.9865H130.7V72.1344H131.216V74.3521H130.7V73.4275H129.816V74.3521H129.299V72.1344ZM133.09 73.7729H132.417L132.25 74.3521H131.713L132.423 72.1344H133.103L133.833 74.3521H133.273L133.09 73.7729ZM132.493 73.3978H133.01C132.874 72.9646 132.787 72.6674 132.747 72.5061H132.74L132.633 72.9273L132.493 73.3978ZM135.564 73.7729H134.89L134.724 74.3521H134.187L134.897 72.1344H135.577L136.307 74.3521H135.747L135.564 73.7729ZM134.967 73.3978H135.484C135.348 72.9646 135.26 72.6674 135.22 72.5061H135.214L135.107 72.9273L134.967 73.3978ZM136.821 74.3521V72.1638C137.009 72.1311 137.242 72.1146 137.517 72.1146C137.858 72.1146 138.102 72.1699 138.251 72.2807C138.4 72.3915 138.474 72.55 138.474 72.7562C138.474 72.879 138.437 72.9898 138.362 73.089C138.287 73.1883 138.19 73.2586 138.071 73.2991V73.3123C138.211 73.3638 138.312 73.4998 138.374 73.7202C138.489 74.1173 138.551 74.3279 138.561 74.3521H138.034C137.99 74.2699 137.936 74.0976 137.874 73.8355C137.843 73.7039 137.801 73.6118 137.747 73.5591C137.694 73.5064 137.609 73.4801 137.491 73.4801H137.331V74.3521H136.821ZM137.331 72.5061V73.1149H137.544C137.673 73.1149 137.775 73.0858 137.849 73.0281C137.924 72.9706 137.961 72.8933 137.961 72.7957C137.961 72.698 137.927 72.6223 137.86 72.5692C137.793 72.5159 137.697 72.4896 137.574 72.4896C137.453 72.4896 137.372 72.4952 137.331 72.5061ZM128.181 71.1904L128.868 71.1883C128.959 70.615 128.782 70.1736 128.194 70.2788C127.699 70.3676 127.167 70.8532 126.846 71.1883L127.752 71.1844C127.854 71.1188 128.051 71.0441 128.133 71.0998C128.163 71.1206 128.179 71.1501 128.181 71.1904ZM135.199 71.1888L135.206 71.1885H135.209C135.299 71.1935 135.456 71.1523 135.547 71.0014C135.565 70.9712 135.58 70.9368 135.592 70.8976C135.604 70.8578 135.613 70.8126 135.616 70.7619H135.616L135.617 70.7515C135.685 68.3797 134.949 66.4163 133.7 65.0823C133.457 64.8233 133.194 64.5877 132.915 64.3773C132.635 64.1671 132.338 63.9822 132.026 63.8247V63.8248L132.021 63.8223L132.021 63.8222C130.971 63.2924 129.779 63.089 128.61 63.1868C128.382 63.2058 128.155 63.2362 127.931 63.2778C127.707 63.3192 127.484 63.3723 127.264 63.4362L127.261 63.4371C126.059 63.7882 124.94 64.485 124.028 65.3993C123.85 65.5774 123.68 65.7637 123.52 65.9568C123.44 66.0527 123.362 66.1505 123.287 66.2498C123.927 65.7053 124.613 65.2277 125.33 64.8482C125.492 64.7627 125.655 64.6824 125.818 64.608C125.981 64.5334 126.146 64.4638 126.313 64.3998L126.314 64.3996L126.314 64.3994C126.948 64.1562 127.573 64.0011 128.198 63.9318C128.824 63.8625 129.449 63.879 130.084 63.9787C130.537 64.0497 130.978 64.1664 131.375 64.3299C131.452 64.3615 131.528 64.3953 131.603 64.4308C131.676 64.4658 131.748 64.5033 131.819 64.5426H131.819L131.82 64.5432V64.5433C133.22 65.2995 134.192 66.8515 134.62 68.6038C134.704 68.9455 134.767 69.2945 134.808 69.6462C134.849 69.9978 134.869 70.353 134.867 70.7078V70.708L134.866 70.7283C134.874 70.9182 134.939 71.0769 135.052 71.1484C135.073 71.1616 135.096 71.172 135.12 71.1787H135.121C135.145 71.1856 135.172 71.1891 135.199 71.1888Z" fill="#D32828"/>
<rect x="84.0791" y="82.4805" width="24.3158" height="2.02632" rx="1.01316" fill="#EAF1F9"/>
<rect x="84.0791" y="77.4146" width="24.3158" height="2.02632" rx="1.01316" fill="#EAF1F9"/>
<rect x="84.0791" y="72.3486" width="30.3947" height="2.02632" rx="1.01316" fill="#EAF1F9"/>
<path d="M84.262 66.2699C84.2156 66.2699 84.172 66.2543 84.1314 66.2232C84.0965 66.192 84.0791 66.153 84.0791 66.1063C84.0791 66.0595 84.0994 66.0127 84.1401 65.966L85.6558 64.1968L84.2359 62.5212C84.1953 62.4797 84.1749 62.4329 84.1749 62.3809C84.1749 62.3342 84.1923 62.2952 84.2272 62.264C84.262 62.2329 84.3056 62.2173 84.3579 62.2173H84.8021C84.8892 62.2173 84.9647 62.2589 85.0286 62.342L86.1872 63.6903L87.3458 62.3498C87.3806 62.3082 87.4126 62.277 87.4416 62.2563C87.4765 62.2303 87.52 62.2173 87.5723 62.2173H87.9991C88.0514 62.2173 88.0949 62.2329 88.1298 62.264C88.1646 62.2952 88.1821 62.3342 88.1821 62.3809C88.1821 62.4329 88.1617 62.4797 88.1211 62.5212L86.6837 64.2124L88.1995 65.966C88.2401 66.0127 88.2605 66.0595 88.2605 66.1063C88.2605 66.153 88.243 66.192 88.2082 66.2232C88.1733 66.2543 88.1298 66.2699 88.0775 66.2699H87.6158C87.5287 66.2699 87.4532 66.2309 87.3893 66.153L86.1698 64.7268L84.9328 66.153C84.898 66.1894 84.8631 66.218 84.8283 66.2387C84.7992 66.2595 84.7586 66.2699 84.7063 66.2699H84.262Z" fill="#94C5FF"/>
<path d="M90.2981 66.2699C90.2516 66.2699 90.2081 66.2543 90.1674 66.2232C90.1326 66.192 90.1151 66.153 90.1151 66.1063C90.1151 66.0595 90.1355 66.0127 90.1761 65.966L91.6919 64.1968L90.2719 62.5212C90.2313 62.4797 90.211 62.4329 90.211 62.3809C90.211 62.3342 90.2284 62.2952 90.2632 62.264C90.2981 62.2329 90.3416 62.2173 90.3939 62.2173H90.8382C90.9253 62.2173 91.0008 62.2589 91.0647 62.342L92.2232 63.6903L93.3818 62.3498C93.4167 62.3082 93.4486 62.277 93.4776 62.2563C93.5125 62.2303 93.556 62.2173 93.6083 62.2173H94.0352C94.0874 62.2173 94.131 62.2329 94.1658 62.264C94.2007 62.2952 94.2181 62.3342 94.2181 62.3809C94.2181 62.4329 94.1978 62.4797 94.1571 62.5212L92.7198 64.2124L94.2355 65.966C94.2762 66.0127 94.2965 66.0595 94.2965 66.1063C94.2965 66.153 94.2791 66.192 94.2442 66.2232C94.2094 66.2543 94.1658 66.2699 94.1136 66.2699H93.6519C93.5648 66.2699 93.4893 66.2309 93.4254 66.153L92.2058 64.7268L90.9688 66.153C90.934 66.1894 90.8991 66.218 90.8643 66.2387C90.8353 66.2595 90.7946 66.2699 90.7423 66.2699H90.2981Z" fill="#94C5FF"/>
<path d="M96.3341 66.2699C96.2877 66.2699 96.2441 66.2543 96.2034 66.2232C96.1686 66.192 96.1512 66.153 96.1512 66.1063C96.1512 66.0595 96.1715 66.0127 96.2122 65.966L97.7279 64.1968L96.308 62.5212C96.2673 62.4797 96.247 62.4329 96.247 62.3809C96.247 62.3342 96.2644 62.2952 96.2993 62.264C96.3341 62.2329 96.3777 62.2173 96.4299 62.2173H96.8742C96.9613 62.2173 97.0368 62.2589 97.1007 62.342L98.2593 63.6903L99.4179 62.3498C99.4527 62.3082 99.4847 62.277 99.5137 62.2563C99.5485 62.2303 99.5921 62.2173 99.6444 62.2173H100.071C100.123 62.2173 100.167 62.2329 100.202 62.264C100.237 62.2952 100.254 62.3342 100.254 62.3809C100.254 62.4329 100.234 62.4797 100.193 62.5212L98.7558 64.2124L100.272 65.966C100.312 66.0127 100.333 66.0595 100.333 66.1063C100.333 66.153 100.315 66.192 100.28 66.2232C100.245 66.2543 100.202 66.2699 100.15 66.2699H99.6879C99.6008 66.2699 99.5253 66.2309 99.4614 66.153L98.2419 64.7268L97.0049 66.153C96.97 66.1894 96.9352 66.218 96.9003 66.2387C96.8713 66.2595 96.8307 66.2699 96.7784 66.2699H96.3341Z" fill="#94C5FF"/>
<path d="M102.37 66.2699C102.324 66.2699 102.28 66.2543 102.239 66.2232C102.205 66.192 102.187 66.153 102.187 66.1063C102.187 66.0595 102.208 66.0127 102.248 65.966L103.764 64.1968L102.344 62.5212C102.303 62.4797 102.283 62.4329 102.283 62.3809C102.283 62.3342 102.3 62.2952 102.335 62.264C102.37 62.2329 102.414 62.2173 102.466 62.2173H102.91C102.997 62.2173 103.073 62.2589 103.137 62.342L104.295 63.6903L105.454 62.3498C105.489 62.3082 105.521 62.277 105.55 62.2563C105.585 62.2303 105.628 62.2173 105.68 62.2173H106.107C106.16 62.2173 106.203 62.2329 106.238 62.264C106.273 62.2952 106.29 62.3342 106.29 62.3809C106.29 62.4329 106.27 62.4797 106.229 62.5212L104.792 64.2124L106.308 65.966C106.348 66.0127 106.369 66.0595 106.369 66.1063C106.369 66.153 106.351 66.192 106.316 66.2232C106.281 66.2543 106.238 66.2699 106.186 66.2699H105.724C105.637 66.2699 105.561 66.2309 105.497 66.153L104.278 64.7268L103.041 66.153C103.006 66.1894 102.971 66.218 102.936 66.2387C102.907 66.2595 102.867 66.2699 102.814 66.2699H102.37Z" fill="#94C5FF"/>
<path d="M181.659 74.9014C186.659 71.9692 191.251 68.5137 195.095 64.0043C196.097 62.7665 194.996 61.0419 193.518 61.1264C190.003 61.3543 187.571 63.8042 185.194 66.1067C183.13 68.0224 181.221 70.0634 179.327 72.2444C174.186 75.1913 168.552 77.4822 163.051 79.6885C160.947 80.5466 162.21 83.8114 164.314 82.9532C167.711 81.6052 171.101 80.1871 174.407 78.6364C171.458 82.9101 168.967 87.4897 166.925 92.3052C166.011 94.3832 169.205 95.817 170.119 93.7391C172.563 88.0319 175.674 82.6087 179.466 77.6092C180.148 76.6882 180.9 75.7598 181.659 74.9014Z" fill="#3792FC"/>
<path d="M212.543 72.4337C210.745 72.8351 208.431 73.7153 206.463 73.8513C206.441 73.6413 206.349 73.4386 206.25 73.166C205.881 72.3553 204.898 71.7509 203.954 72.2039C203.416 72.4728 199.532 74.5798 199.116 73.9865C198.615 73.2606 197.381 72.9656 196.67 73.6066C194.724 75.2976 192.775 76.281 190.424 76.8113C190.59 76.3691 190.748 75.857 190.984 75.4075C191.629 74.1364 190.093 72.316 188.751 73.0232C185.594 74.6292 182.598 76.4305 179.701 78.5045C177.859 79.8307 179.925 82.6571 181.768 81.3309C183.352 80.2442 184.937 79.1575 186.606 78.2035C186.621 78.3435 186.558 78.4208 186.573 78.5609C186.551 79.6957 187.221 80.687 188.489 80.6246C191.934 80.404 195.003 79.3028 197.697 77.3209C199.418 78.2018 201.584 77.2662 203.541 76.3527C203.81 76.8907 204.282 77.3367 204.856 77.4178C207.491 77.5656 210.358 76.5565 212.918 76.0042C215.059 75.496 214.761 71.9882 212.543 72.4337Z" fill="#3792FC"/>
</svg>
