<?xml version="1.0" encoding="UTF-8"?>
<svg width="18px" height="19px" viewBox="0 0 18 19" version="1.1" xmlns="http://www.w3.org/2000/svg" xmlns:xlink="http://www.w3.org/1999/xlink">
    <!-- Generator: Sketch 50.2 (55047) - http://www.bohemiancoding.com/sketch -->
    <title>expense</title>
    <desc>Created with Sketch.</desc>
    <defs></defs>
    <g id="Page-1" stroke="none" stroke-width="1" fill="none" fill-rule="evenodd">
        <g id="Earning-info" transform="translate(-20.000000, -161.000000)" stroke="#008EFF">
            <g id="expense" transform="translate(20.000000, 161.000000)">
                <path d="M16.9774737,16.9117731 L16.9774737,5.57932686 C16.9774737,5.11082195 16.6374445,4.74555 16.2354602,4.74555 L1.71948713,4.74555 C1.31805803,4.74555 0.977473684,5.11122617 0.977473684,5.57932686 L0.977473684,16.9117731 C0.977473684,17.380278 1.31750287,17.74555 1.71948713,17.74555 L16.2354602,17.74555 C16.6368893,17.74555 16.9774737,17.3798738 16.9774737,16.9117731 Z" id="Shape"></path>
                <path d="M17,9 L12.3542649,9 C12.3542649,9 10,9.38358404 10,11.9362328 C10,14.5536298 12.290406,15 12.290406,15 L17,15" id="Shape" stroke-linecap="round"></path>
                <path d="M8.55476096,4.5 L15.2573378,4.5 L13.7454023,0.776346224 L8.55476096,4.5 Z" id="Shape"></path>
                <path d="M5.20745623,4.5 L8.64842429,4.5 L11.3103548,2.54719174 L9.03464744,0.674374967 L5.20745623,4.5 Z M11.3196347,2.54038395 L11.3239944,2.53718566 L11.3983801,2.61963301 L11.340753,2.57220821 L11.3196347,2.54038395 Z" id="Shape"></path>
                <circle id="Oval" cx="13" cy="12" r="1"></circle>
            </g>
        </g>
    </g>
</svg>