<svg width="261" height="66" viewBox="0 0 261 66" fill="none" xmlns="http://www.w3.org/2000/svg">
<path fill-rule="evenodd" clip-rule="evenodd" d="M43.8702 31.7126H1.41517C0.643258 31.7126 0 31.0693 0 30.2974V20.9059C0 9.32724 9.58455 0 21.3562 0H74.8753C75.6472 0 76.2904 0.643258 76.2904 1.41517C75.5185 18.2685 61.3025 31.7126 43.8702 31.7126Z" fill="white"/>
<path fill-rule="evenodd" clip-rule="evenodd" d="M25.7947 65.8701H1.41517C0.643258 65.8701 0 65.2269 0 64.455V55.7067C0 47.8589 6.49691 41.4263 14.602 41.4263H49.4022C50.1741 41.4263 50.8174 42.0696 50.7531 42.8415C49.9812 55.7067 39.1101 65.8701 25.7947 65.8701Z" fill="white"/>
<path d="M95.4635 53.6494V8.0424H124.281V15.0539H103.762V26.6969H121.966V33.7084H103.762V53.5851H95.4635V53.6494Z" fill="white"/>
<path d="M140.234 12.6739C140.234 14.1534 139.72 15.3756 138.755 16.2118C137.79 17.1124 136.632 17.4983 135.346 17.4983C133.995 17.4983 132.837 17.048 131.872 16.2118C130.907 15.3113 130.392 14.1534 130.392 12.6739C130.392 11.1301 130.843 9.90789 131.872 9.07165C132.837 8.17109 133.995 7.78513 135.346 7.78513C136.632 7.78513 137.79 8.23541 138.755 9.07165C139.72 9.97221 140.234 11.1301 140.234 12.6739ZM139.398 53.6494H131.422V22.773H139.398V53.6494Z" fill="white"/>
<path d="M149.497 24.0595C151.041 23.6092 153.035 23.2233 155.479 22.8373C157.924 22.4514 160.626 22.2584 163.649 22.2584C166.479 22.2584 168.795 22.6444 170.66 23.4163C172.526 24.1882 174.07 25.2817 175.163 26.6326C176.257 27.9834 177.093 29.6559 177.543 31.65C177.994 33.5797 178.251 35.7668 178.251 38.0825V53.7137H170.274V39.2404C170.274 37.375 170.146 35.8311 169.888 34.5446C169.631 33.2581 169.245 32.2289 168.731 31.3927C168.152 30.5564 167.444 29.9775 166.479 29.5915C165.514 29.2056 164.356 29.0126 163.006 29.0126C161.976 29.0126 160.947 29.0769 159.854 29.2056C158.76 29.3342 157.924 29.4629 157.409 29.5272V53.5851H149.433V24.0595H149.497Z" fill="white"/>
<path d="M195.747 12.5452C195.747 14.0247 195.233 15.2469 194.268 16.0831C193.303 16.9837 192.145 17.3697 190.859 17.3697C189.508 17.3697 188.35 16.9194 187.385 16.0831C186.42 15.1826 185.906 14.0247 185.906 12.5452C185.906 11.0014 186.356 9.77921 187.385 8.94298C188.35 8.04242 189.508 7.65646 190.859 7.65646C192.145 7.65646 193.303 8.10674 194.268 8.94298C195.297 9.84354 195.747 11.0657 195.747 12.5452ZM194.911 53.6494H186.935V22.6444H194.911V53.6494Z" fill="white"/>
<path d="M203.788 9.58629L211.765 8.29977V22.4514H223.986V29.3986H211.765V39.8837C211.765 42.6497 212.215 44.6438 213.051 45.8017C213.952 46.9596 215.431 47.6028 217.554 47.6028C219.033 47.6028 220.256 47.4742 221.413 47.1526C222.507 46.8309 223.408 46.5736 224.051 46.3163L225.337 52.6203C224.437 53.0062 223.215 53.3922 221.735 53.8424C220.256 54.2284 218.519 54.4857 216.46 54.4857C214.016 54.4857 211.958 54.1641 210.285 53.5208C208.613 52.8775 207.326 51.9127 206.361 50.6905C205.396 49.4683 204.689 47.9245 204.303 46.1233C203.917 44.3222 203.724 42.3281 203.724 40.0124V9.58629H203.788Z" fill="white"/>
<path d="M260.909 22.5801C257.372 35.6382 254.091 44.1936 249.395 54.8073C248.495 56.8014 247.594 58.4739 246.694 59.8891C245.793 61.3042 244.764 62.4621 243.606 63.3627C242.448 64.2632 241.161 64.9708 239.811 65.3568C238.395 65.7427 236.787 66 234.922 66C233.7 66 232.478 65.8714 231.255 65.6141C230.033 65.3568 229.133 65.0351 228.554 64.7778L230.033 58.4096C231.641 59.0528 233.185 59.3101 234.729 59.3101C236.787 59.3101 238.396 58.7955 239.618 57.8306C240.776 56.8657 241.805 55.3219 242.705 53.2635C240.197 48.4391 237.752 43.1643 235.501 37.5037C233.185 31.7787 232.092 29.1413 230.29 22.7087H238.653C239.103 24.5742 239.618 26.5683 240.261 28.691C240.904 30.8138 242.898 36.2815 243.735 38.4686C244.571 40.6556 245.407 42.7141 246.243 44.5795C247.658 40.6556 248.945 36.5388 250.167 32.1003C251.389 27.6618 251.647 26.7613 252.676 22.6444H260.909V22.5801Z" fill="white"/>
</svg>
