<svg width="261" height="66" viewBox="0 0 261 66" fill="none" xmlns="http://www.w3.org/2000/svg">
<path fill-rule="evenodd" clip-rule="evenodd" d="M43.8707 31.7129H1.41518C0.643265 31.7129 0 31.0697 0 30.2977V20.9061C0 9.32733 9.58465 0 21.3564 0H74.8761C75.648 0 76.2912 0.643264 76.2912 1.41518C75.5193 18.2687 61.3032 31.7129 43.8707 31.7129Z" fill="#675AF6"/>
<path fill-rule="evenodd" clip-rule="evenodd" d="M25.7949 65.8709H1.41518C0.643265 65.8709 0 65.2276 0 64.4557V55.7073C0 47.8595 6.49698 41.4268 14.6021 41.4268H49.4028C50.1747 41.4268 50.8179 42.0701 50.7536 42.842C49.9817 55.7073 39.1105 65.8709 25.7949 65.8709Z" fill="#5AAAF6"/>
<path d="M95.4662 53.6492V8.04178H124.284V15.0534H103.764V26.6965H121.969V33.708H103.764V53.5849H95.4662V53.6492Z" fill="#132056"/>
<path d="M140.237 12.6733C140.237 14.1528 139.723 15.375 138.758 16.2113C137.793 17.1119 136.635 17.4978 135.349 17.4978C133.998 17.4978 132.84 17.0475 131.875 16.2113C130.91 15.3107 130.396 14.1528 130.396 12.6733C130.396 11.1295 130.846 9.90729 131.875 9.07105C132.84 8.17048 133.998 7.78452 135.349 7.78452C136.635 7.78452 137.793 8.2348 138.758 9.07105C139.723 9.97162 140.237 11.1295 140.237 12.6733ZM139.401 53.6493H131.425V22.7726H139.401V53.6493Z" fill="#132056"/>
<path d="M149.5 24.0591C151.044 23.6088 153.038 23.2228 155.483 22.8369C157.927 22.4509 160.629 22.2579 163.652 22.2579C166.483 22.2579 168.798 22.6439 170.664 23.4158C172.529 24.1877 174.073 25.2813 175.167 26.6321C176.26 27.983 177.097 29.6555 177.547 31.6496C177.997 33.5794 178.254 35.7665 178.254 38.0822V53.7136H170.278V39.2401C170.278 37.3747 170.149 35.8308 169.892 34.5443C169.635 33.2578 169.249 32.2285 168.734 31.3923C168.155 30.556 167.448 29.9771 166.483 29.5912C165.518 29.2052 164.36 29.0122 163.009 29.0122C161.98 29.0122 160.951 29.0765 159.857 29.2052C158.763 29.3338 157.927 29.4625 157.413 29.5268V53.5849H149.436V24.0591H149.5Z" fill="#132056"/>
<path d="M195.751 12.5447C195.751 14.0242 195.237 15.2464 194.272 16.0826C193.307 16.9832 192.149 17.3691 190.862 17.3691C189.512 17.3691 188.354 16.9189 187.389 16.0826C186.424 15.182 185.909 14.0242 185.909 12.5447C185.909 11.0008 186.36 9.77862 187.389 8.94237C188.354 8.0418 189.512 7.65585 190.862 7.65585C192.149 7.65585 193.307 8.10613 194.272 8.94237C195.301 9.84295 195.751 11.0651 195.751 12.5447ZM194.915 53.6493H186.938V22.6439H194.915V53.6493Z" fill="#132056"/>
<path d="M203.792 9.58569L211.769 8.29916V22.451H223.991V29.3982H211.769V39.8835C211.769 42.6495 212.219 44.6436 213.055 45.8015C213.956 46.9594 215.435 47.6026 217.558 47.6026C219.037 47.6026 220.26 47.474 221.417 47.1524C222.511 46.8307 223.412 46.5734 224.055 46.3161L225.341 52.6201C224.441 53.0061 223.219 53.392 221.739 53.8423C220.26 54.2283 218.523 54.4856 216.464 54.4856C214.02 54.4856 211.961 54.1639 210.289 53.5207C208.617 52.8774 207.33 51.9125 206.365 50.6903C205.4 49.4681 204.693 47.9243 204.307 46.1231C203.921 44.322 203.728 42.3279 203.728 40.0121V9.58569H203.792Z" fill="#132056"/>
<path d="M260.914 22.5796C257.376 35.6379 254.095 44.1933 249.4 54.8072C248.499 56.8013 247.598 58.4738 246.698 59.889C245.797 61.3042 244.768 62.462 243.61 63.3626C242.452 64.2632 241.166 64.9708 239.815 65.3567C238.4 65.7427 236.792 66 234.926 66C233.704 66 232.482 65.8713 231.259 65.614C230.037 65.3567 229.137 65.0351 228.558 64.7778L230.037 58.4095C231.645 59.0527 233.189 59.31 234.733 59.31C236.792 59.31 238.4 58.7954 239.622 57.8305C240.78 56.8656 241.809 55.3218 242.71 53.2634C240.201 48.4389 237.756 43.1641 235.505 37.5034C233.189 31.7783 232.096 29.1409 230.295 22.7083H238.657C239.107 24.5737 239.622 26.5679 240.265 28.6906C240.908 30.8134 242.903 36.2812 243.739 38.4683C244.575 40.6554 245.411 42.7138 246.247 44.5793C247.663 40.6554 248.949 36.5385 250.171 32.0999C251.394 27.6614 251.651 26.7608 252.68 22.6439H260.914V22.5796Z" fill="#132056"/>
</svg>
