<svg width="57" height="26" viewBox="0 0 57 26" fill="none" xmlns="http://www.w3.org/2000/svg">
<path d="M12.8022 14.9367C12.7145 14.8709 12.6926 14.7467 12.7364 14.6517L14.9726 9.79941V6.1748H12.1299V19.4748H14.9726V14.1183L13.0945 14.944C13.0068 15.0098 12.8826 15.0025 12.8022 14.9367Z" fill="white"/>
<path d="M5.88999 2.82076C6.30653 2.48461 6.87653 2.31654 7.60729 2.31654C7.92883 2.31654 8.21383 2.34577 8.46229 2.41153C8.71075 2.4773 8.92998 2.56499 9.12729 2.68922L9.66075 0.643075C9.42691 0.445768 9.09075 0.292307 8.63768 0.175384C8.1846 0.058461 7.68768 0 7.1323 0C6.42345 0 5.78037 0.0949989 5.20307 0.277691C4.62576 0.460383 4.13615 0.738076 3.72692 1.10346C3.31769 1.46884 3.01076 1.91461 2.80615 2.44807C2.60153 2.98153 2.49923 3.58076 2.49923 4.26038V6.17499H0V8.41114H2.49923V19.475H5.34191V8.41114H9.57306V6.17499H5.26153V4.4723C5.26153 3.7123 5.47345 3.15692 5.88999 2.82076Z" fill="white"/>
<path d="M26.4248 6.45237C25.6721 6.08699 24.8244 5.9043 23.8818 5.9043C23.151 5.9043 22.4641 6.02122 21.821 6.24776C21.1706 6.4816 20.6152 6.84699 20.1475 7.35122C19.8479 7.68006 19.5922 8.06006 19.3802 8.49852L19.256 6.16737H16.7275V9.94544L18.8979 14.6443C18.9125 14.6735 18.9198 14.71 18.9198 14.7466C18.9198 14.8197 18.8906 14.8854 18.8322 14.9293C18.7445 14.995 18.6275 15.0024 18.5398 14.9366L16.7348 14.1474V19.4747H19.5848V12.4008C19.5848 11.3924 19.7675 10.5812 20.1329 9.98198C20.4983 9.38275 20.9514 8.93698 21.4995 8.6666C22.0475 8.38891 22.6175 8.25737 23.2021 8.25737C24.0206 8.25737 24.6929 8.51314 25.2337 9.01737C25.7744 9.5216 26.0448 10.4351 26.0448 11.7431V19.4747H28.8875V10.8589C28.8875 9.74083 28.6683 8.82006 28.2225 8.08929C27.7768 7.36583 27.1775 6.81776 26.4248 6.45237Z" fill="white"/>
<path d="M33.3808 6.1748H30.5381V19.4748H33.3808V6.1748Z" fill="white"/>
<path d="M43.5475 17.1511C43.1895 17.3046 42.7729 17.3777 42.2979 17.3777C41.7133 17.3777 41.2456 17.2242 40.9021 16.9246C40.5587 16.625 40.3833 16.1427 40.3833 15.485V8.41114H44.9579V6.17499H40.3833V2.26538L37.5406 3.06192V6.17499H34.9902V8.41114H37.5406V15.9673C37.5552 16.8734 37.7452 17.6042 38.096 18.1596C38.4541 18.715 38.9437 19.1242 39.5868 19.3727C40.2225 19.6211 40.9241 19.7453 41.6914 19.7453C42.4148 19.7453 43.0798 19.643 43.6718 19.4384C44.2637 19.2338 44.7679 18.9561 45.1771 18.598L44.5414 16.5227C44.2271 16.7857 43.8983 16.9977 43.5475 17.1511Z" fill="white"/>
<path d="M54.0764 6.1748V17.4286C53.9376 17.5529 53.7184 17.6698 53.4261 17.7867C53.1338 17.9036 52.8195 17.9621 52.4834 17.9621C51.8768 17.9621 51.3507 17.794 50.8976 17.4579C50.4445 17.1217 50.218 16.4932 50.218 15.5725V6.1748H47.2949V15.5652C47.2949 16.6979 47.4776 17.5675 47.843 18.1594C48.2084 18.7513 48.698 19.1679 49.3191 19.3944C49.9403 19.6282 50.6418 19.7379 51.4238 19.7379C51.9572 19.7379 52.4395 19.6721 52.8853 19.5406C53.3311 19.409 53.7257 19.2263 54.0838 18.9925C54.0838 20.6075 53.8207 21.7255 53.2872 22.3467C52.7538 22.9678 51.9572 23.2748 50.8903 23.2748H48.0403V24.5244C48.4495 24.6486 48.9611 24.7655 49.5676 24.8825C50.1815 24.9994 50.7953 25.0578 51.4165 25.0578C52.6953 25.0578 53.7403 24.8386 54.5661 24.4075C55.3918 23.969 56.0057 23.2748 56.4003 22.3029C56.8022 21.3382 56.9995 20.0375 56.9995 18.4079V6.1748H54.0764Z" fill="white"/>
</svg>
