<svg width="20" height="20" viewBox="0 0 20 20" fill="none" xmlns="http://www.w3.org/2000/svg">
<path fill-rule="evenodd" clip-rule="evenodd" d="M3.23551 9.38387C3.53035 6.11613 6.11584 3.53032 9.3839 3.23548L9.67745 3.20903V0.621613L9.33229 0.646129C4.70713 0.972903 0.972933 4.7071 0.645837 9.33226L0.621643 9.67742H3.20906L3.23551 9.38387ZM6.54551 3.41516C6.35519 3.51484 6.17035 3.62323 5.99035 3.73839L5.27809 2.67226C5.52809 2.51032 5.78519 2.35871 6.05164 2.22258L6.54551 3.41516ZM7.49132 1.63935C7.19939 1.72774 6.91584 1.83419 6.63745 1.95161L7.12971 3.13968C7.33035 3.05581 7.53519 2.97968 7.74455 2.91323L7.49132 1.63935ZM5.46261 4.11C5.29422 4.23968 5.13229 4.37613 4.97584 4.51968L4.07003 3.61387C4.2868 3.41226 4.51293 3.22129 4.74906 3.04226L5.46261 4.11ZM4.11003 5.46226C4.23971 5.29419 4.37648 5.13194 4.51971 4.97581L3.61358 4.06968C3.41229 4.28645 3.22132 4.51258 3.04229 4.74871L4.11003 5.46226ZM3.73842 5.99C3.62293 6.17 3.51487 6.35484 3.41519 6.54548L2.22261 6.05129C2.35906 5.78484 2.51035 5.52774 2.67261 5.27774L3.73842 5.99ZM2.91326 7.74452C2.97938 7.53516 3.05584 7.33065 3.13971 7.12968L1.95164 6.63742C1.83422 6.91581 1.72745 7.19935 1.63938 7.49129L2.91326 7.74452ZM9.03229 2.62516C8.80745 2.65452 8.5868 2.69516 8.36874 2.74387L8.11713 1.47871C8.41745 1.41194 8.72164 1.35548 9.03229 1.32097V2.62516ZM1.47874 8.1171C1.41197 8.41742 1.35551 8.72161 1.321 9.03226H2.62519C2.65455 8.80742 2.69519 8.58645 2.74422 8.36871L1.47874 8.1171Z" fill="#008EFF"/>
<path fill-rule="evenodd" clip-rule="evenodd" d="M10.6161 16.7645C13.8842 16.4697 16.4697 13.8839 16.7645 10.6161L16.791 10.3226H19.3784L19.3539 10.6677C19.0271 15.2929 15.2929 19.0271 10.6677 19.3539L10.3226 19.3784V16.791L10.6161 16.7645ZM10.9677 18.679C14.9993 18.2316 18.2316 14.9994 18.679 10.9677H17.3748C16.9406 14.309 14.309 16.9407 10.9677 17.3748V18.679Z" fill="#008EFF"/>
<path fill-rule="evenodd" clip-rule="evenodd" d="M3.23548 10.6161L3.20903 10.3226H0.621613L0.646129 10.6677C0.84129 13.4287 2.25129 15.8716 4.33968 17.4626L3.09226 18.7097H1.87613C1.74258 18.3352 1.38774 18.0645 0.967742 18.0645C0.434193 18.0645 0 18.4987 0 19.0323C0 19.5658 0.434193 20 0.967742 20C1.38774 20 1.74258 19.7294 1.87613 19.3548H3.35935L4.87419 17.84C6.17516 18.6958 7.69742 19.2384 9.33226 19.3539L9.67742 19.3784V16.791L9.38387 16.7645C6.11581 16.4697 3.53032 13.8842 3.23548 10.6161ZM0.967742 19.3548C0.79 19.3548 0.645161 19.21 0.645161 19.0323C0.645161 18.8545 0.79 18.7097 0.967742 18.7097C1.14548 18.7097 1.29032 18.8545 1.29032 19.0323C1.29032 19.21 1.14548 19.3548 0.967742 19.3548ZM1.32097 10.9677C1.76839 14.9994 5.00065 18.2316 9.03226 18.679V17.3748C5.69097 16.9407 3.05935 14.309 2.62516 10.9677H1.32097Z" fill="#008EFF"/>
<path fill-rule="evenodd" clip-rule="evenodd" d="M18.1239 1.29032C18.2574 1.66484 18.6122 1.93548 19.0322 1.93548C19.5658 1.93548 20 1.50129 20 0.967742C20 0.434193 19.5658 0 19.0322 0C18.6122 0 18.2574 0.270645 18.1239 0.645161H16.6406L15.1258 2.16C13.8248 1.30419 12.3026 0.761613 10.6677 0.646129L10.3226 0.621613V3.20903L10.6161 3.23548C13.8839 3.53032 16.4697 6.11581 16.7645 9.38387L16.791 9.67742H19.3784L19.3539 9.33226C19.1587 6.57129 17.7487 4.12839 15.6603 2.53742L16.9077 1.29032H18.1239ZM19.0322 0.645161C19.21 0.645161 19.3548 0.79 19.3548 0.967742C19.3548 1.14548 19.21 1.29032 19.0322 1.29032C18.8545 1.29032 18.7097 1.14548 18.7097 0.967742C18.7097 0.79 18.8545 0.645161 19.0322 0.645161ZM17.3748 9.03226H18.679C18.2316 5.00065 14.9993 1.76839 10.9677 1.32097V2.62516C14.309 3.05935 16.9406 5.69097 17.3748 9.03226Z" fill="#008EFF"/>
<path d="M11.8679 8.71593H10.9804C10.9211 8.19397 10.671 7.81796 10.3486 7.58846H11.8679C11.9407 7.58846 12 7.53052 12 7.46089C12 7.39126 11.9407 7.33333 11.8679 7.33333H8.13098C8.05928 7.33333 8 7.39126 8 7.46089C8 7.53052 8.05928 7.58846 8.13098 7.58846H9.71969C10.1442 7.66477 10.627 8.00792 10.7173 8.71593H8.13098C8.05928 8.71593 8 8.77331 8 8.84349C8 8.91368 8.05928 8.97106 8.13098 8.97106H10.7337C10.728 9.32646 10.6032 9.6139 10.3582 9.82613C9.6638 10.4266 8.24559 10.2734 8.23148 10.2723C8.17897 10.2668 8.12534 10.2929 8.09993 10.3397C8.07509 10.386 8.08186 10.4433 8.1163 10.4829L10.6106 13.2893C10.636 13.3188 10.6727 13.3333 10.7105 13.3333C10.7404 13.3333 10.7709 13.3227 10.7963 13.3021C10.8511 13.2565 10.8573 13.1757 10.8099 13.1216L8.51941 10.5453C9.01341 10.5581 9.95963 10.5113 10.5315 10.0178C10.8359 9.75539 10.99 9.40277 10.9956 8.97106H11.8668C11.9396 8.97106 11.9989 8.91424 11.9989 8.84349C11.9989 8.77275 11.9407 8.71593 11.8679 8.71593Z" fill="#D6AF09" stroke="#D6AF09" stroke-width="0.5"/>
</svg>
