<svg width="320" height="140" viewBox="0 0 320 140" fill="none" xmlns="http://www.w3.org/2000/svg">
<path d="M286.152 137.483C280.95 139.901 90.7911 139.652 67.2598 139.652C57.5144 139.652 48.735 141.477 41.9161 136.77C34.8056 131.859 29.2395 124.759 23.9939 118.96C13.1583 106.984 4.40752 93.8699 3.13078 79.8275C2.64303 74.4436 3.37943 68.7731 7.75002 64.193C12.1206 59.613 20.9287 56.5036 28.8426 58.0863C36.3692 59.5912 43.2359 64.9283 50.4278 62.8408C55.267 61.4357 56.6059 57.4632 57.4953 54.0609C60.8235 41.3084 66.9442 28.2101 81.0888 19.1341C95.2382 10.0613 119.296 6.52499 135.257 14.2176C144.061 18.4611 149.043 25.2471 152.744 31.9645C156.446 38.6819 159.286 45.7108 165.225 51.7054C171.164 57.7 181.125 62.6259 192.061 62.28C201.662 61.9747 209.868 57.7841 216.749 53.4097C223.63 49.0322 230.224 44.1374 239.109 41.7446C247.994 39.3486 260.087 40.4952 264.496 46.0629C268.331 50.9078 265.012 56.7216 262.167 61.8469C258.858 67.8135 256.218 74.1694 257.634 80.4444C259.049 86.7194 265.423 92.8853 274.858 94.4463C283.484 95.8732 292.814 93.3215 301.407 94.8295C314.164 97.0697 319.697 107.747 315.742 115.96C311.788 124.173 301.225 130.23 290.6 135.346C290.6 135.346 290.6 135.346 290.595 135.346C288.897 136.168 287.458 136.876 286.152 137.483Z" fill="#E4F0FF"/>
<path d="M213.027 9.30334C214.756 10.3254 216.006 11.9402 217.008 13.5849C221.229 20.5152 221.852 28.5732 220.269 35.7043C218.689 42.8378 215.077 49.2028 211.238 55.3121C209.659 57.8319 204.667 67.8017 201.405 62.9119C199.229 59.648 200.608 50.2657 200.616 46.7564C200.627 39.8225 201.724 33.0238 203.852 26.6361C204.362 25.0966 211.666 8.49795 213.027 9.30334Z" fill="#E6F3FF"/>
<path d="M208.32 72.4446C220.06 67.5185 233.563 65.551 247.217 66.779C245.464 70.482 241.687 72.8716 237.73 74.5832C228.357 78.6317 220.551 80.732 210.145 82.2721C207.183 82.71 195.873 82.5649 195.77 81.4102C195.445 77.7619 205.345 73.6901 208.32 72.4446Z" fill="#E6F3FF"/>
<path d="M171.444 110.382L170.738 109.743C175.663 105.052 180.307 99.7894 184.539 94.1052C188.54 88.732 192.289 82.8268 195.678 76.5548C198.861 70.6702 201.821 64.2901 204.476 57.5945C207.005 51.2166 209.272 44.567 211.217 37.8281C212.764 32.4661 214.563 25.3533 214.75 17.8599C214.77 17.0317 214.771 16.1974 214.751 15.3799L215.677 15.4801C215.695 16.311 215.699 17.1575 215.676 17.9989C215.49 25.5796 213.674 32.7503 212.115 38.1535C210.164 44.9129 207.888 51.5867 205.349 57.9827C202.683 64.7061 199.709 71.1115 196.518 77.0202C193.112 83.3212 189.347 89.2554 185.324 94.6551C181.069 100.369 176.398 105.66 171.444 110.382Z" fill="#DAEAF9"/>
<path d="M189.571 87.7105C189.567 87.708 189.559 87.7031 189.554 87.7007C189.33 87.5612 189.248 87.2919 189.369 87.1013C191.8 83.3021 196.789 80.116 204.206 77.6319C214.805 74.0839 225.762 70.4147 237.818 70.4447C238.071 70.4463 238.305 70.6391 238.338 70.8754C238.371 71.1118 238.193 71.3032 237.939 71.3016C226.038 71.269 215.15 74.9156 204.621 78.441C197.379 80.8669 192.522 83.9509 190.186 87.6066C190.064 87.7971 189.792 87.8378 189.571 87.7105Z" fill="#DAEAF9"/>
<path fill-rule="evenodd" clip-rule="evenodd" d="M196.548 75.5176C196.578 75.5541 196.612 75.5834 196.65 75.6055C196.765 75.6716 196.902 75.6785 197.005 75.6077C202.364 72.0946 208.3 67.8088 212.56 62.2713C212.568 62.2665 212.578 62.2624 212.587 62.2582C212.597 62.254 212.606 62.2498 212.614 62.245C215.406 60.623 217.924 58.8963 220.475 57.1214C225.722 53.4707 229.223 49.8744 231.494 45.8041C233.035 43.0359 234.632 38.8997 234.257 34.0353C234.361 33.8737 234.286 33.3767 233.89 31.536L233.794 31.0849L233.39 31.2858C226.926 34.4795 223.235 40.4711 220.741 45.3392C219.927 46.9543 219.139 48.6326 218.376 50.2577C216.829 53.5539 215.233 56.9563 213.332 60.0432C209.096 66.42 202.488 71.2344 196.584 75.1037C196.447 75.1937 196.431 75.3776 196.548 75.5176ZM221.333 45.6566C223.72 41.0021 227.212 35.306 233.199 32.1165C233.26 32.6969 233.48 33.4225 233.583 33.7331C234.028 38.5846 232.436 42.7233 230.903 45.4771C228.676 49.481 225.223 53.0231 220.037 56.6269C217.907 58.1139 215.792 59.5622 213.53 60.9442C213.649 60.775 213.766 60.6003 213.882 60.4284L213.9 60.4004C215.818 57.2846 217.423 53.8677 218.976 50.5606C219.737 48.9391 220.523 47.2645 221.333 45.6566Z" fill="#DAEAF9"/>
<path d="M269.895 97.8172C268.754 96.3068 266.897 95.3082 264.993 94.5381C256.977 91.3137 247.494 91.5621 239.018 93.778C230.543 95.9938 222.893 100.033 215.541 104.256C212.508 105.995 200.557 111.699 206.204 114.242C209.97 115.942 221.095 113.676 225.239 113.308C233.424 112.578 241.487 110.849 249.107 108.196C250.929 107.555 270.791 99.0046 269.895 97.8172Z" fill="#F0F7FF"/>
<path d="M262.711 95.974C261.733 96.0436 260.732 96.128 259.737 96.2373C250.783 97.1962 242.255 99.6356 235.817 101.658C227.766 104.182 219.808 107.004 212.165 110.039C204.132 113.229 196.459 116.672 189.369 120.274C188.519 120.706 187.681 121.138 186.842 121.581C187.424 121.61 188.007 121.645 188.589 121.68C189.019 121.456 189.444 121.233 189.881 121.014C196.942 117.432 204.586 113.999 212.584 110.824C220.204 107.799 228.139 104.986 236.16 102.468C242.546 100.465 251.005 98.0408 259.859 97.0919C260.837 96.9875 261.821 96.8981 262.787 96.8335L262.711 95.974Z" fill="#D0E6FF"/>
<path fill-rule="evenodd" clip-rule="evenodd" d="M214.26 96.6944C204.708 103.198 197.169 111.753 190.969 119.424C190.853 119.573 190.853 119.757 190.964 119.891C190.999 119.936 191.045 119.981 191.103 120.016C191.33 120.15 191.645 120.1 191.802 119.906C198.63 111.455 207.094 101.921 218.056 95.3281C223.353 92.3322 229.169 89.694 234.798 87.1453C237.575 85.8883 240.445 84.5866 243.204 83.2651C251.534 79.2159 261.82 73.403 267.543 64.3061L267.91 63.7397L267.153 63.6751C264.079 63.4217 263.241 63.3919 262.967 63.5608C254.794 63.7794 247.739 66.5269 243 68.9912C236.02 72.618 229.78 77.8248 223.353 85.3667C220.233 89.0333 217.189 92.6552 214.307 96.6149C214.29 96.6397 214.272 96.6695 214.26 96.6944ZM243.518 69.7215C248.239 67.2672 255.294 64.5296 263.438 64.4104C263.962 64.5048 265.167 64.6936 266.145 64.6836C260.452 73.1446 250.666 78.6495 242.703 82.5248C240.046 83.7976 237.281 85.0518 234.597 86.2695L234.32 86.3951L234.319 86.3954C228.667 88.959 222.828 91.607 217.479 94.6276C217.165 94.8164 216.85 95.0052 216.542 95.1989C218.992 91.9745 221.548 88.9389 224.162 85.8734C230.507 78.421 236.66 73.2887 243.518 69.7215Z" fill="#E6F3FF"/>
<path d="M214.959 95.7454L215.582 96.4211C217.142 95.3679 219.139 93.8625 221.252 92.2627C223.755 90.3747 226.34 88.4172 228.237 87.2099C234.431 83.2502 240.811 79.365 247.209 75.6536C253.607 71.9473 260.19 68.3155 266.786 64.8575L266.262 64.1272C259.655 67.5901 253.054 71.2269 246.644 74.9432C240.235 78.6595 233.837 82.5546 227.632 86.5193C225.705 87.7514 223.103 89.7189 220.582 91.6168C218.487 93.2116 216.496 94.712 214.959 95.7454Z" fill="#E6F3FF"/>
<path d="M205.722 107.274C206.037 103.876 206.789 100.047 209.632 98.838C210.049 98.6587 210.539 98.5542 210.987 98.7826C211.787 99.1848 211.967 100.329 212.507 101.101C213.643 102.735 216.035 102.164 216.935 100.65C217.834 99.1361 217.823 97.1194 218.273 95.344C218.666 93.7937 219.42 92.4046 220.459 91.3247C221.818 89.9164 224.416 89.2667 225.721 91.1122C226.665 92.4531 226.271 94.1828 226.059 95.7112C225.847 97.2395 226.193 99.33 227.631 99.8645C228.868 100.323 229.897 99.2357 230.7 98.3055C232.655 96.0246 235.012 94.1563 237.644 92.7944C239.478 91.8452 241.539 91.1357 243.696 91.5363C245.85 91.9318 248.081 93.7088 248.581 96.0335C249.042 98.2016 247.934 100.186 246.549 101.548C242.776 105.262 237.117 105.964 232.262 107.986C231.115 108.463 229.823 109.531 230.366 110.877C230.748 111.822 231.793 112.193 232.674 112.583C234.817 113.526 236.727 115.324 237.908 117.523C238.109 117.901 238.297 118.307 238.299 118.717C238.311 119.65 237.405 120.138 236.575 120.282C232.728 120.939 228.381 117.88 224.663 118.943C224.166 119.086 223.651 119.349 223.502 119.881C223.395 120.265 223.508 120.714 223.674 121.112C224.355 122.769 225.852 123.901 227.036 125.233C228.221 126.565 229.159 128.616 228.337 129.969C227.717 130.985 226.369 131.132 225.165 131.025C221.461 130.681 217.806 128.711 214.663 126.136C211.848 123.825 208.231 120.591 206.32 117.333C204.525 114.254 205.431 110.398 205.722 107.274Z" fill="#E6F3FF"/>
<path d="M242.527 97.7861L202.663 120.802" stroke="#D7E6F4" stroke-linecap="round"/>
<path d="M223.484 92.1024C222.414 98.2683 221.2 104.387 219.843 110.451" stroke="#D7E6F4" stroke-linecap="round"/>
<path d="M210.317 101.097C209.947 106.358 209.457 111.592 208.856 116.795" stroke="#D7E6F4" stroke-linecap="round"/>
<path d="M218.126 112.465C223.481 114.105 228.823 115.835 234.148 117.658" stroke="#D7E6F4" stroke-linecap="round"/>
<path d="M74.3051 26.4682C72.6708 27.4009 71.5117 28.8887 70.5976 30.4064C66.7455 36.7813 66.3951 44.2136 68.1472 50.8045C69.8977 57.3911 73.5912 63.2801 77.4903 68.9373C79.0974 71.2695 84.2316 80.4887 87.228 75.9908C89.2246 72.9895 87.594 64.3271 87.4791 61.0854C87.2506 54.6823 85.9761 48.4078 83.7165 42.5061C83.1753 41.0803 75.5981 25.7311 74.3051 26.4682Z" fill="#E6F3FF"/>
<path d="M80.855 84.7539C69.3644 80.161 56.266 78.2899 43.1187 79.3633C44.9282 82.7877 48.6534 85.0104 52.5283 86.6029C61.7078 90.3762 69.3067 92.3501 79.4058 93.8091C82.2781 94.2246 93.1926 94.14 93.2564 93.0745C93.4551 89.7139 83.7716 85.9194 80.855 84.7539Z" fill="#E6F3FF"/>
<path d="M117.667 119.914L118.33 119.33C113.424 114.982 108.773 110.107 104.508 104.84C100.473 99.8655 96.6721 94.4011 93.1946 88.6C89.9366 83.1568 86.8747 77.2568 84.0979 71.0675C81.4557 65.1718 79.0521 59.0274 76.9595 52.8032C75.2962 47.8503 73.3338 41.2789 72.9123 34.3608C72.8682 33.5964 72.839 32.8266 72.8321 32.0724L71.9433 32.158C71.9498 32.9266 71.9772 33.7065 72.0258 34.4836C72.4471 41.4779 74.4246 48.1057 76.1016 53.0964C78.2019 59.3416 80.6082 65.5088 83.2629 71.4237C86.0489 77.6383 89.1249 83.5617 92.397 89.0283C95.8852 94.8588 99.7117 100.347 103.763 105.349C108.051 110.636 112.729 115.539 117.667 119.914Z" fill="#D6ECFF"/>
<path d="M99.4439 98.9219C99.4488 98.9201 99.4537 98.9183 99.4571 98.9123C99.6668 98.7837 99.7441 98.5366 99.6196 98.363C97.1516 94.8452 92.2328 91.8862 84.9968 89.5613C74.6497 86.2415 63.9554 82.8101 52.3175 82.7916C52.0718 82.7906 51.8529 82.9703 51.83 83.1832C51.8037 83.4021 51.9802 83.5806 52.2244 83.5774C63.7125 83.5981 74.3423 87.0053 84.6199 90.3028C91.6897 92.5693 96.4739 95.4344 98.849 98.8196C98.9702 98.9991 99.2296 99.0379 99.4439 98.9219Z" fill="#D6ECFF"/>
<path fill-rule="evenodd" clip-rule="evenodd" d="M69.5814 70.1409C75.7005 77.455 84.0741 83.1349 91.6172 87.7893C91.7615 87.8795 91.9537 87.8715 92.0956 87.7865C92.1467 87.7584 92.1948 87.7219 92.2333 87.6745C92.384 87.4912 92.3571 87.2487 92.163 87.129C83.8515 82.0024 74.5324 75.6245 68.4065 67.204C65.652 63.129 63.2914 58.6346 61.0134 54.2909C59.8933 52.1479 58.7293 49.9304 57.5357 47.7998C53.8774 41.3793 48.5208 33.464 39.4726 29.2242L38.906 28.9545L38.7945 29.5519C38.3363 31.9695 38.2526 32.6282 38.4072 32.8384C38.1116 39.2418 40.4987 44.6974 42.7488 48.3517C46.0589 53.7235 51.0464 58.4801 58.4437 63.3161C62.0358 65.6634 65.5852 67.9549 69.5024 70.1077C69.5298 70.1216 69.5556 70.1312 69.5814 70.1409ZM43.5448 47.9192C41.3074 44.2841 38.9252 38.8267 39.3212 32.4391C39.4496 32.0259 39.7224 31.0748 39.7712 30.3052C48.1638 34.5362 53.2334 42.0611 56.7354 48.2053C57.8485 50.1893 58.9313 52.2508 59.9869 54.2605C60.0604 54.4005 60.1337 54.5402 60.207 54.6796L60.2169 54.6984C62.5043 59.0554 64.8668 63.5554 67.6489 67.6654C67.8255 67.9056 68.0022 68.1459 68.1838 68.3844C65.0028 66.5537 62.0273 64.6291 59.0203 62.6636C51.7176 57.8884 46.8001 53.2016 43.5448 47.9192Z" fill="#E6F3FF"/>
<path d="M68.6482 69.6145L69.3841 69.1087C68.3981 67.9162 66.961 66.3882 65.4413 64.7714C63.647 62.8595 61.7907 60.8845 60.6594 59.4308C56.9573 54.6822 53.3434 49.7779 49.9152 44.863C46.4871 39.9482 43.1521 34.8756 39.9995 29.7986L39.2084 30.2293C42.3656 35.319 45.7135 40.3963 49.1462 45.3238C52.5789 50.2512 56.2008 55.1622 59.9125 59.9215C61.0643 61.4011 62.9317 63.3911 64.7404 65.312C66.2456 66.9199 67.6732 68.437 68.6482 69.6145Z" fill="#E6F3FF"/>
<path d="M143.285 67.2073C148.451 61.2776 156.129 57.6296 164.009 54.7538C169.374 68.127 165.824 82.8485 155.303 90.8757C153.467 92.2738 151.391 93.5019 148.934 93.9424C142.203 95.1425 138.637 90.5997 137.983 85.2137C137.144 78.3573 138.972 72.163 143.285 67.2073Z" fill="#F0F7FF"/>
<path d="M161.915 59.6795L138.69 99.9078" stroke="#E4F1FD" stroke-linecap="round"/>
<path d="M153.877 60.0629C154.004 63.5747 154.175 67.092 154.392 70.6148" stroke="#E4F1FD" stroke-linecap="round"/>
<path d="M151.375 78.5442C155.625 77.6265 159.757 76.3919 163.714 74.8505" stroke="#E4F1FD" stroke-linecap="round"/>
<path d="M107.353 44.0517C109.047 44.2318 110.678 45.2015 112.155 46.3132C118.358 51.0028 122.562 58.434 124.782 66.0004C127.002 73.5667 127.431 81.3405 127.581 88.9706C127.646 92.1165 128.786 103.981 124.205 100.804C121.149 98.6856 117.739 89.0527 116.102 85.6846C112.871 79.0315 110.467 72.0097 108.982 64.9009C108.632 63.198 106.021 43.9105 107.353 44.0517Z" fill="#E6F3FF"/>
<path d="M112.105 48.7392C112.504 49.526 112.903 50.3376 113.28 51.1563C116.691 58.5082 118.762 66.2186 120.187 72.1232C121.972 79.5045 123.484 86.9521 124.685 94.2562C125.948 101.933 126.848 109.448 127.356 116.588C127.417 117.444 127.472 118.291 127.519 119.143C127.227 118.708 126.93 118.275 126.633 117.842C126.606 117.406 126.581 116.974 126.548 116.536C126.038 109.428 125.143 101.939 123.885 94.2967C122.687 87.0152 121.178 79.5902 119.403 72.2336C117.987 66.3787 115.937 58.7291 112.564 51.4581C112.192 50.6552 111.805 49.8548 111.406 49.0793L112.105 48.7392Z" fill="#E2EEFF"/>
<path fill-rule="evenodd" clip-rule="evenodd" d="M134.009 86.4532C133.42 96.838 130.314 106.62 127.27 114.959C127.209 115.118 127.067 115.203 126.912 115.18C126.861 115.174 126.805 115.159 126.752 115.13C126.543 115.017 126.435 114.751 126.512 114.54C129.867 105.355 133.299 94.4047 133.304 82.8916C133.159 77.4158 132.499 71.7062 131.856 66.1817C131.538 63.4567 131.212 60.6392 130.953 57.8977C130.215 49.5938 129.931 38.9632 134.297 30.3314L134.564 29.7859L134.964 30.3398C136.585 32.5937 136.996 33.2266 136.993 33.5159C140.613 39.9229 141.764 46.6398 142.059 51.438C142.497 58.5042 141.373 65.7324 138.533 74.1868C137.151 78.2938 135.768 82.3217 134.049 86.3804C134.038 86.4054 134.023 86.4327 134.009 86.4532ZM141.256 51.3768C140.961 46.5967 139.802 39.8844 136.119 33.546C135.803 33.1856 135.099 32.3434 134.653 31.5843C130.765 39.8989 131.054 50.0004 131.756 57.9408C132.005 60.58 132.319 63.2945 132.624 65.9299L132.656 66.2022L132.656 66.2029C133.298 71.7521 133.962 77.484 134.111 83.0114L134.111 83.0115C134.111 83.3416 134.111 83.6716 134.105 83.9994C135.457 80.6139 136.614 77.235 137.767 73.7975C140.575 65.4474 141.683 58.3211 141.256 51.3768Z" fill="#BFDBEF"/>
<path d="M134.417 85.4743L133.607 85.307C133.697 83.6151 133.932 81.3768 134.187 79.0049C134.483 76.1985 134.795 73.297 134.847 71.2732C135.031 64.659 135.071 57.9356 134.968 51.2794C134.862 44.6254 134.612 37.8623 134.222 31.1709L135.028 31.2365C135.42 37.9393 135.674 44.7181 135.778 51.3857C135.882 58.0532 135.843 64.7946 135.661 71.4201C135.603 73.4779 135.291 76.3975 134.996 79.2219C134.737 81.5781 134.502 83.8096 134.417 85.4743Z" fill="#BFDBEF"/>
<path d="M113.748 112.163C107.132 103.363 104.371 91.7865 102.727 80.1587C122.602 76.7039 141.728 85.851 149.658 102.595C151.038 105.516 152.116 108.717 152.004 112.209C151.688 121.776 144.429 125.338 136.863 124.665C127.235 123.813 119.279 119.512 113.748 112.163Z" fill="#F0F7FF"/>
<path d="M108.863 84.4594L154.64 125.678" stroke="#E8F2FC" stroke-linecap="round"/>
<path d="M107.048 95.5784C111.894 96.4277 116.76 97.2166 121.648 97.9452" stroke="#E8F2FC" stroke-linecap="round"/>
<path d="M131.628 104.385C131.608 98.2969 131.12 92.2804 130.161 86.4125" stroke="#E8F2FC" stroke-linecap="round"/>
<path d="M128.837 130.648C126.334 132.381 123.283 134.068 120.818 132.815C120.457 132.633 120.104 132.359 119.997 131.92C119.815 131.142 120.489 130.363 120.713 129.544C121.175 127.83 119.414 126.521 117.863 126.777C116.312 127.034 114.934 128.196 113.46 128.909C112.173 129.53 110.787 129.811 109.457 129.719C107.714 129.6 105.778 128.191 106.289 126.241C106.663 124.822 108.078 124.102 109.243 123.371C110.409 122.64 111.64 121.199 111.181 119.906C110.785 118.795 109.449 118.716 108.351 118.702C105.666 118.669 103.033 118.132 100.595 117.114C98.8951 116.401 97.2253 115.4 96.2579 113.697C95.2905 111.993 95.2247 109.448 96.5291 107.773C97.7485 106.211 99.7406 105.832 101.472 105.997C106.182 106.447 109.908 109.91 114.08 112.075C115.066 112.587 116.538 112.854 117.144 111.716C117.573 110.913 117.224 109.979 116.984 109.158C116.394 107.149 116.533 104.809 117.36 102.741C117.501 102.386 117.67 102.026 117.949 101.786C118.58 101.246 119.438 101.58 120.01 102.071C122.668 104.325 123.073 109.057 125.934 110.992C126.316 111.254 126.796 111.451 127.241 111.25C127.569 111.1 127.808 110.766 127.988 110.424C128.727 109.008 128.641 107.335 128.88 105.758C129.112 104.185 129.973 102.363 131.371 102.152C132.422 101.99 133.294 102.831 133.914 103.717C135.81 106.449 136.557 110.085 136.596 113.71C136.633 116.964 136.495 121.295 135.361 124.478C134.302 127.457 131.142 129.053 128.837 130.648Z" fill="#D6ECFF"/>
<path d="M102.051 111.744L135.111 123.777" stroke="#E7F3FE" stroke-linecap="round"/>
<path d="M110.327 126.526C112.317 125.354 114.303 124.173 116.292 123.001" stroke="#E7F3FE" stroke-linecap="round"/>
<path d="M118.848 121.243C119.91 120.693 120.967 120.14 122.029 119.59" stroke="#E7F3FE" stroke-linecap="round"/>
<path d="M122.615 130.025C125.975 127.797 129.358 125.621 132.772 123.5" stroke="#E7F3FE" stroke-linecap="round"/>
<path d="M127.564 120.739C125.357 116.717 123.199 112.663 121.085 108.573" stroke="#E7F3FE" stroke-linecap="round"/>
<path d="M167.842 80.1669C167.842 87.2972 165.604 93.9114 161.806 99.3572C161.789 99.3779 161.736 99.4027 161.736 99.4233C155.778 108.151 145.567 113.808 134.118 113.808C133.181 113.808 132.285 113.762 131.369 113.639C131.365 113.639 131.365 113.696 131.36 113.696C130.91 113.659 130.46 113.643 130.014 113.585C129.858 113.564 129.697 113.56 129.54 113.539C129.399 113.519 129.259 113.506 129.123 113.486C129.003 113.469 128.879 113.453 128.763 113.432C128.735 113.428 128.71 113.424 128.681 113.42C128.388 113.37 128.095 113.321 127.801 113.263H127.797C112.228 110.29 100.465 96.5993 100.465 80.1628C100.465 76.6864 100.969 73.3338 101.947 70.1795C102.1 69.684 102.29 69.1968 102.418 68.7138C102.798 67.9087 103.054 67.1159 103.405 66.3356C103.545 66.026 103.702 65.7163 103.851 65.4108C104.672 63.7304 105.63 62.1284 106.708 60.6173C106.807 60.4811 106.906 60.3448 107.009 60.2086C107.41 59.6636 107.827 59.1351 108.256 58.619C108.904 57.8428 109.581 57.0955 110.296 56.3812C112.149 54.5192 114.222 52.8718 116.472 51.4846C117.166 51.0552 117.88 50.6505 118.607 50.2707C120.37 49.35 122.224 48.5821 124.152 47.9834C127.314 47.0007 130.679 46.4681 134.168 46.4681C142.19 46.4681 149.556 49.2715 155.344 53.9494C159.601 57.3928 163.061 61.8477 165.241 66.9508C165.728 68.0903 166.058 69.2629 166.562 70.4643C166.562 70.4685 166.504 70.4726 166.504 70.4809C167.421 73.5485 167.842 76.7978 167.842 80.1669Z" fill="#3792FC"/>
<path d="M141.504 91.5252C140.782 92.545 138.544 93.8538 140.063 96.4219C141.566 98.9859 139.96 99.4648 138.924 99.2253C137.883 98.99 134.651 98.8579 135.187 100.324C135.724 101.793 136.653 102.347 135.468 102.912C134.283 103.478 133.784 104.956 132.57 106.987C131.368 109.023 128.507 107.264 129.353 109.304C130.2 111.347 130.856 111.149 130.778 112.569C130.757 112.962 131.017 113.362 131.368 113.742C130.918 113.705 130.464 113.659 130.014 113.606C129.857 113.585 129.696 113.569 129.539 113.544C129.399 113.523 129.258 113.507 129.122 113.486C129.003 113.469 128.879 113.449 128.763 113.428C128.734 113.424 128.742 113.42 128.718 113.416C128.429 113.366 128.28 113.317 127.896 113.259C127.644 113.019 127.801 112.755 127.838 112.474C128.218 109.849 124.593 108.04 123.986 106.203C123.387 104.366 123.978 103.271 123.842 101.748C123.701 100.229 124.197 98.2138 123.321 96.9339C122.446 95.6581 118.924 95.2328 118.251 92.6565C117.574 90.0884 119.147 86.2405 119.758 85.5881C120.361 84.9316 116.839 81.9548 115.163 81.8599C113.478 81.7566 114.151 78.367 111.307 78.883C108.454 79.3826 103.334 77.7931 104.391 76.0796C105.262 74.6717 106.728 71.5587 101.947 70.1755C102.1 69.6801 102.29 69.1929 102.418 68.7098C102.797 67.9047 103.053 67.112 103.404 66.3317C103.545 66.022 103.702 65.7124 103.85 65.4068C104.672 63.7265 105.634 62.1245 106.707 60.6134C106.806 60.4771 106.906 60.3409 107.009 60.2046C107.409 59.6596 107.826 59.1312 108.256 58.6151C108.904 57.8389 109.581 57.0916 110.295 56.3773C112.149 54.5152 114.222 52.8679 116.472 51.4806C117.421 52.1453 118.503 52.5541 119.436 52.0504C121.728 50.7664 120.217 50.5723 119.279 50.5228C119.036 50.5104 118.796 50.4154 118.606 50.2668C120.369 49.3461 122.223 48.5781 124.151 47.9795C124.007 49.2718 122.248 51.3526 123.544 51.0967C125.051 50.8118 125.666 46.7408 126.769 48.0951C127.892 49.4534 125.543 51.2329 127.747 50.2007C129.956 49.1809 130.249 46.9019 132.71 48.0084C135.183 49.1314 134.956 50.4608 135.65 50.3287C136.339 50.2007 138.561 51.6953 137.215 52.9216C135.856 54.156 134.613 52.583 132.578 52.1082C130.543 51.6416 130.592 53.3055 129.655 53.6854C128.701 54.0528 124.106 51.8316 122.979 53.8381C121.839 55.8282 121.352 57.2196 123.045 57.1659C124.733 57.1163 124.845 56.6828 124.713 57.9297C124.576 59.1807 124.886 60.1179 126.418 58.9412C127.946 57.7687 127.603 56.6209 128.796 57.1824C129.989 57.7439 130.134 57.2361 131.401 56.3112C132.673 55.3905 134.341 55.2914 134.779 57.3641C135.216 59.4367 134.469 59.8991 132.235 60.0023C130.002 60.1097 129.75 59.4078 129.036 61.274C128.325 63.1443 125.373 65.5431 122.776 66.5299C120.188 67.5208 119.172 68.9823 119.23 70.96C119.292 72.9377 118.317 75.0268 117.669 73.396C117.017 71.761 115.184 69.0071 113.317 70.8485C111.447 72.6941 108.19 75.9516 111.79 76.5503C115.382 77.1572 113.507 73.7923 115.324 74.4653C117.137 75.1424 114.176 76.6246 115.386 77.1614C116.6 77.7022 117.108 77.4504 117.099 79.1019C117.091 80.7534 117.5 82.3594 118.974 81.6576C120.448 80.9598 122.339 77.7187 124.465 79.6345C126.6 81.5543 126.447 81.3066 127.566 80.7451C128.685 80.1877 129.395 81.8599 129.853 82.6237C130.311 83.3875 132.107 82.6072 133.565 84.878C135.018 87.1488 135.592 87.5534 137.252 86.7359C138.911 85.9184 139.589 86.5253 140.022 87.6731C140.451 88.8209 141.475 87.6979 141.967 89.2131C142.458 90.7408 142.223 90.5054 141.504 91.5252Z" fill="#94C5FF"/>
<path d="M147.184 64.0159C146.007 61.4933 151.837 61.774 152.865 61.9681C153.901 62.1415 156.333 60.2423 156.643 59.3587C156.961 58.4669 157.481 58.8922 159.327 58.8674C161.172 58.8468 159.541 58.4298 157.514 57.7609C155.487 57.092 157.221 57.026 155.355 55.552C154.55 54.9079 154.806 54.3588 155.338 53.9501C159.595 57.3934 162.993 61.8483 165.173 66.9515C165.111 66.9308 165.053 66.9226 165 66.9226C163.707 66.9143 163.422 64.0613 162.758 63.504C162.101 62.9507 162.778 65.0729 162.935 65.9441C163.096 66.8152 162.58 66.0844 161.936 66.8854C161.288 67.6864 160.123 67.7029 160.016 66.4973C159.909 65.2958 159.062 64.1192 157.345 63.57C155.627 63.0209 154.141 63.4709 152.745 64.0118C151.358 64.5403 148.369 66.5221 147.184 64.0159Z" fill="#94C5FF"/>
<path d="M161.821 99.4197C161.937 98.5527 162.127 97.6567 161.767 97.3305C160.888 96.5131 160.694 94.2918 160.999 93.1647C161.305 92.0334 163.675 92.0994 162.065 90.225C160.45 88.3423 158.997 86.1086 159.674 84.8329C160.351 83.5571 160.145 83.4662 158.877 83.4704C157.606 83.4786 157.048 83.5323 155.785 82.4052C154.517 81.2615 152.775 85.1095 148.006 82.0212C143.238 78.904 145.954 73.6481 147.742 73.6357C149.538 73.6068 151.64 72.6985 150.166 70.5061C148.696 68.3055 150.991 67.9959 152.114 68.4955C153.237 68.9909 155.228 67.6614 157.259 67.0628C159.294 66.4682 159.203 69.7795 160.335 70.4442C161.47 71.1089 163.601 70.5805 164.707 69.5194C165.496 68.7638 165.669 69.6474 166.449 70.4855C167.37 73.5532 167.861 76.8025 167.861 80.1715C167.861 87.3266 165.628 93.9615 161.821 99.4197Z" fill="#94C5FF"/>
<path d="M153.291 59.8129C153.291 59.8129 154.777 59.1399 154.241 58.0582C153.708 56.9765 152.862 53.6652 152.242 54.7098C151.619 55.7585 152.536 57.794 152.337 58.6734C152.135 59.5569 152.127 60.0152 153.291 59.8129Z" fill="#F0F7FF"/>
<path d="M151.81 58.8016C151.789 58.4548 152.008 57.0387 150.897 57.0841C150.901 57.0799 149.287 57.7529 150.232 58.8966C151.174 60.0361 151.834 59.1526 151.81 58.8016Z" fill="#F0F7FF"/>
<path opacity="0.3" d="M167.754 80.1055C167.754 87.2358 165.558 93.8501 161.763 99.2959C161.747 99.3165 161.739 99.3413 161.739 99.3619C155.653 108.09 145.529 113.722 134.076 113.722C133.139 113.722 132.197 113.651 131.281 113.523C131.277 113.523 131.277 113.606 131.273 113.606C130.823 113.569 130.373 113.565 129.927 113.511C129.77 113.49 129.609 113.495 129.452 113.47C129.311 113.449 129.171 113.441 129.035 113.42C128.915 113.404 128.791 113.391 128.676 113.371C128.647 113.367 128.622 113.362 128.593 113.358C128.3 113.309 128.007 113.259 127.714 113.206H127.709C113.313 110.456 102.169 98.5362 100.571 83.7594C103.949 93.4454 112.297 100.72 122.561 102.747H122.565C122.817 102.875 123.069 102.847 123.325 102.892C123.35 102.896 123.374 102.904 123.395 102.909C123.498 102.925 123.601 102.942 123.705 102.958C123.824 102.979 123.944 102.991 124.064 103.008C124.2 103.028 124.336 103.041 124.473 103.053C124.857 103.103 125.245 103.189 125.633 103.218C125.637 103.218 125.637 103.255 125.641 103.255C126.434 103.255 127.222 103.317 128.032 103.317C132.978 103.317 137.635 102.062 141.714 99.8904C145.789 97.7228 149.286 94.5932 151.896 90.8237C151.896 90.8031 151.929 90.7783 151.941 90.7576C155.219 86.055 157.139 80.3408 157.139 74.1849C157.139 71.2783 156.714 68.4666 155.917 65.8201C155.917 65.8159 155.905 65.8118 155.905 65.8036C155.653 64.7672 155.244 63.7557 154.823 62.7731C152.94 58.3636 150.013 54.5156 146.338 51.5429C143.646 49.3671 140.562 47.6619 137.206 46.5513C144.006 47.1788 150.223 49.8254 155.248 53.888C159.505 57.3314 162.948 61.7863 165.124 66.8894C165.611 68.0289 165.921 69.2015 166.429 70.403C166.429 70.4071 166.387 70.4112 166.392 70.4195C167.308 73.4871 167.754 76.7406 167.754 80.1055Z" fill="#3792FC"/>
<path d="M96.0962 72.5289L89.4118 84.1142L78 78.0408L80.0024 85.5344L91.4143 91.6037L98.1028 80.0226L96.0962 72.5289Z" fill="#60A0ED"/>
<path d="M172.642 54.6725L163.861 51.1383C161.346 47.8518 158.245 44.9617 154.62 42.6083C136.66 30.9405 111.748 36.3574 99.0807 54.6807C93.8207 62.29 91.3228 71.0801 91.8471 79.8908C91.9462 81.6042 92.1609 83.3218 92.4912 85.0311C92.7761 86.4968 91.7934 87.9666 90.2947 88.3175C88.8001 88.6685 87.3551 87.7684 87.0702 86.3027C86.8307 85.06 86.6449 83.8172 86.5087 82.5745C85.3568 71.8397 88.1602 61.0266 94.5721 51.7534C108.994 30.8909 137.358 24.7226 157.8 38.0048C160.335 39.6521 162.643 41.5307 164.715 43.6033C167.977 46.865 170.64 50.6057 172.642 54.6725Z" fill="url(#paint0_linear)"/>
<path d="M173.749 107.73C159.327 128.593 130.963 134.753 110.517 121.475C107.982 119.827 105.674 117.949 103.602 115.88C100.422 112.697 97.8089 109.055 95.823 105.104L105.121 109.183C107.511 112.127 110.389 114.728 113.7 116.879C131.656 128.547 156.573 123.13 169.24 104.807C174.5 97.1977 176.998 88.4076 176.474 79.5969C176.375 77.8834 176.16 76.1659 175.83 74.4607C175.545 72.995 176.527 71.5252 178.026 71.1742C179.521 70.8233 180.966 71.7234 181.251 73.1891C181.49 74.4318 181.676 75.6746 181.812 76.9173C182.964 87.6396 180.161 98.4569 173.749 107.73Z" fill="url(#paint1_linear)"/>
<path d="M172.225 86.946L178.909 75.3608L190.321 81.4341L188.319 73.9446L176.907 67.8754L170.219 79.4565L172.225 86.946Z" fill="#4A90E2"/>
<path d="M184.047 90.9133H181.805V88.0851C181.805 87.1768 181.123 86.4006 180.223 86.2809L170.451 85.0092C169.926 84.9391 169.414 85.0959 169.018 85.4469C168.617 85.7978 168.399 86.2809 168.399 86.8135V89.4146H166.157V86.8135C166.157 85.6451 166.66 84.5344 167.536 83.7665C168.411 82.9944 169.579 82.6393 170.736 82.7921L180.508 84.0638C182.523 84.3239 184.042 86.0538 184.042 88.0893V90.9133H184.047Z" fill="#161A2E"/>
<path d="M147.482 89.8441L159.377 87.6848L158.299 134.827L149.517 133.386C148.737 133.258 148.151 132.601 148.11 131.809L146.103 91.5782C146.058 90.7401 146.648 89.9969 147.482 89.8441Z" fill="#94C5FF"/>
<path d="M196.912 90.8887L159.374 87.689L158.296 134.831L194.298 129.926C195.446 129.769 196.334 128.836 196.425 127.68L199.162 93.5476C199.274 92.1934 198.266 91.0043 196.912 90.8887Z" fill="#3792FC"/>
<path d="M153.101 88.8243L151.987 89.0267C152.181 97.4162 152.788 124.092 152.994 133.956L154.117 134.141C153.915 124.352 153.291 97.1479 153.101 88.8243Z" fill="#161A2E"/>
<path fill-rule="evenodd" clip-rule="evenodd" d="M179.023 32.9536C179.77 31.6821 181.609 31.6821 182.356 32.9536L196.74 57.4216C197.498 58.7105 196.568 60.3349 195.073 60.3349H166.306C164.81 60.3349 163.881 58.7105 164.639 57.4216L179.023 32.9536ZM182.711 54.3665C182.711 54.6467 182.659 54.9094 182.555 55.1546C182.452 55.3998 182.306 55.6099 182.12 55.7851C181.933 55.9602 181.715 56.1003 181.467 56.2054C181.218 56.3105 180.955 56.363 180.679 56.363C180.402 56.363 180.143 56.314 179.901 56.2159C179.659 56.1178 179.448 55.9777 179.268 55.7956C179.089 55.6134 178.943 55.4033 178.833 55.1651C178.722 54.9269 178.667 54.6677 178.667 54.3875C178.667 54.1213 178.719 53.8656 178.822 53.6204C178.926 53.3752 179.068 53.1615 179.248 52.9794C179.427 52.7972 179.642 52.6536 179.89 52.5486C180.139 52.4435 180.402 52.3909 180.679 52.3909C180.955 52.3909 181.218 52.4435 181.467 52.5486C181.715 52.6536 181.933 52.7937 182.12 52.9689C182.306 53.144 182.452 53.3542 182.555 53.5994C182.659 53.8446 182.711 54.1003 182.711 54.3665ZM178.667 40.4745L179.678 50.4047H181.7L182.711 40.4745H178.667Z" fill="#D0021B"/>
<defs>
<linearGradient id="paint0_linear" x1="191.063" y1="-0.45448" x2="50.5877" y2="128.783" gradientUnits="userSpaceOnUse">
<stop offset="0.003597" stop-color="#619ED7"/>
<stop offset="1" stop-color="#80BFF9"/>
</linearGradient>
<linearGradient id="paint1_linear" x1="200.454" y1="39.651" x2="60.0283" y2="168.656" gradientUnits="userSpaceOnUse">
<stop offset="0.003597" stop-color="#619ED7"/>
<stop offset="1" stop-color="#80BFF9"/>
</linearGradient>
</defs>
</svg>
