<svg width="206" height="142" viewBox="0 0 206 142" fill="none" xmlns="http://www.w3.org/2000/svg">
<path fill-rule="evenodd" clip-rule="evenodd" d="M10.4376 90.5887C10.4874 94.0139 10.6314 97.7726 11.0341 100.943C11.6403 106.506 13.6831 113.028 19.0148 114.859C31.7371 121.832 20.3366 137.077 47.9874 136.376C50.9504 136.499 55.0815 139.496 63.6208 137.163C68.4793 135.836 77.3639 135.089 84.8196 137.163C99.4169 141.224 106.656 139.218 122.116 136.912C128.23 136 136.292 134.88 139.053 134.822C141.813 134.765 161.484 129.355 164.334 113.517C168.473 100.976 162.077 97.8484 156.689 88.8772C151.301 79.907 154.533 68.3377 149.876 63.6332C140.826 54.4904 129.697 60.6586 126.668 54.0832C123.639 47.5078 111.616 47.5782 105.086 50.9974C98.5573 54.4164 91.4146 57.2875 80.5153 54.9209C69.6171 52.5536 57.2412 48.8381 47.8944 56.7452C38.5486 64.6526 44.6878 65.2264 38.8257 70.0676C32.9636 74.9099 10.2536 78.3882 10.4376 90.5887Z" fill="#8279F8"/>
<path fill-rule="evenodd" clip-rule="evenodd" d="M125.407 131.231C125.005 132.639 124.801 133.978 127.018 135.911C128.748 137.42 130.601 136.394 132.475 137.386C135.034 138.74 134.715 140.863 138.043 141.13C140.916 141.362 141.572 136.981 145.761 138.709C148.925 140.014 152.503 138.855 152.393 135.82C152.284 132.774 155.469 132.222 153.547 129.249C151.59 126.219 148.386 128.697 146.855 127.988C144.501 126.897 144.208 124.644 140.709 124.808C136.244 125.015 136.727 127.707 132.63 127.54C128.946 127.391 126.098 128.814 125.407 131.231Z" fill="white"/>
<path fill-rule="evenodd" clip-rule="evenodd" d="M15.9945 81.2235C20.2847 78.0679 26.3091 75.8453 31.2716 73.8513C30.3666 72.4179 29.7982 70.8103 28.0272 70.8103C27.5108 70.8103 26.8916 70.9467 26.1338 71.265C25.5925 71.4913 25.1042 71.5919 24.655 71.5919C20.9927 71.5919 20.0259 64.8465 15.1944 64.6982C15.0992 64.6949 15.0061 64.6938 14.9151 64.6938C8.90474 64.6938 11.413 70.9879 6.27519 71.6623C1.26075 72.3216 0.0461082 73.9476 0.00172234 76.4581C-0.0708103 80.6509 2.12897 81.1975 10.862 81.1975C11.1651 81.1975 11.478 81.1965 11.7984 81.1954C11.9327 81.1954 12.0712 81.1954 12.2141 81.1954C13.261 81.1954 14.5427 81.2073 15.9945 81.2235Z" fill="#FAF6EF"/>
<path fill-rule="evenodd" clip-rule="evenodd" d="M24.4016 81.2863C30.1728 81.2863 36.5729 81.1607 41.6426 80.613C51.2568 79.5748 44.5298 73.0913 41.255 73.0913C38.397 73.0913 37.8005 76.0954 35.0378 76.0954C34.6373 76.0954 34.1913 76.0316 33.6868 75.8876C32.5144 75.552 31.8291 74.7346 31.2716 73.8513C26.3091 75.8453 20.2846 78.0679 15.9944 81.2235C16.4805 81.2289 16.985 81.2354 17.5068 81.2409C19.5896 81.2636 21.9377 81.2863 24.4016 81.2863Z" fill="#C6B0FD"/>
<path fill-rule="evenodd" clip-rule="evenodd" d="M147.445 19.5238C140.76 19.9689 134.37 19.3857 127.81 17.9011C126.804 17.6733 125.736 17.369 125.054 16.5244C124.021 15.2452 124.332 13.091 125.446 11.897C126.56 10.703 128.239 10.3452 129.788 10.5112C130.78 10.6175 131.796 10.9107 132.753 10.6069C133.95 10.2271 134.742 9.02524 135.543 7.97861C136.345 6.93199 137.431 5.89716 138.667 6.06096C139.593 6.18372 140.323 6.94963 141.148 7.42964C141.971 7.90965 143.169 7.96032 143.641 7.07651C144.652 5.18538 143.233 0 148.441 0C155.959 0 154.731 5.21926 155.636 6.32683C157.008 8.00568 159.45 7.63587 161.437 7.06796C163.424 6.49994 165.791 5.96071 167.324 7.46169C168.653 8.76347 168.79 11.1503 170.204 12.3402C171.709 13.6066 173.846 12.9308 175.669 12.362C177.492 11.7932 179.843 11.5844 180.901 13.3125C181.789 14.7614 181.127 16.8656 179.865 17.9275C178.604 18.9893 176.94 19.2487 175.354 19.3542C165.056 20.0399 155.706 18.9738 147.445 19.5238Z" fill="white"/>
<path fill-rule="evenodd" clip-rule="evenodd" d="M38.5238 33.148C37.2658 29.7358 39.5641 27.6522 39.4234 27.0026C39.2826 26.3531 38.8345 25.1125 38.8345 25.1125C38.8345 25.1125 39.1787 24.0811 40.7019 24.3047C42.2251 24.5283 43.273 25.2965 43.4819 26.0878C43.7796 27.2124 44.2191 28.1299 42.9417 29.2669C41.7466 30.3312 41.6123 32.8248 41.6123 32.8248L38.5238 33.148Z" fill="#FFA283"/>
<path fill-rule="evenodd" clip-rule="evenodd" d="M51.2525 26.4868C52.2572 26.5685 53.6396 26.6415 54.0878 26.6643C54.1809 26.669 54.2599 26.7298 54.288 26.8157C54.5392 27.5706 54.3313 28.2932 54.1311 28.5303C54.0888 28.579 54.025 28.6025 53.96 28.6002C53.2856 28.5772 51.691 28.5298 51.0934 28.512C50.9667 28.5083 50.8693 28.4021 50.8801 28.2791L51.0144 26.684C51.0241 26.5653 51.1302 26.4769 51.2525 26.4868Z" fill="#132056"/>
<path fill-rule="evenodd" clip-rule="evenodd" d="M51.7327 26.5465C52.1592 27.4917 51.6785 28.5205 51.4707 29.0336C50.3589 29.1371 24.6502 30.0594 23.5795 29.9587C22.3259 28.1583 23.1355 21.6824 24.0795 21.4587C30.0795 23.4587 34.6903 23.8216 38.5795 24.4587C47.028 25.8426 51.1448 26.0354 51.7327 26.5465Z" fill="#9D95F8"/>
<path fill-rule="evenodd" clip-rule="evenodd" d="M25.9982 25.7955C25.9657 27.7283 25.4921 29.2749 24.9407 29.2497C24.3892 29.2247 23.9692 27.6375 24.0018 25.7047C24.0343 23.7717 24.5079 22.2253 25.0593 22.2503C25.6108 22.2755 26.0308 23.8627 25.9982 25.7955Z" fill="white"/>
<path fill-rule="evenodd" clip-rule="evenodd" d="M38.8344 25.1125C38.0204 26.2381 38.094 26.9471 39.7297 27.1421C41.3666 27.337 41.988 26.8286 42.4426 25.3584C42.8973 23.8881 39.6875 24.5096 39.5273 24.6019C39.3671 24.694 38.8344 25.1125 38.8344 25.1125ZM43.2318 28.9804C43.5306 28.5451 43.8261 27.6442 43.3552 27.6342C42.8832 27.6242 42.0139 28.4986 41.7996 28.8921C41.5852 29.2857 43.2318 28.9804 43.2318 28.9804Z" fill="#FFA283"/>
<path fill-rule="evenodd" clip-rule="evenodd" d="M104.071 56.9378C99.9516 56.3141 96.4831 58.2723 93.0568 60.2303C89.5017 62.2614 85.992 64.2925 81.8468 63.4425C78.1737 62.6892 69.4125 56.8317 66.5967 50.7131C64.529 46.2189 62.5837 40.2756 61.7263 35.4625C60.8678 30.6495 61.749 26.552 60.9728 21.8816C60.1079 16.6791 52.203 11.7587 54.3313 10.3671C56.4607 8.9755 82.3665 8.09927 85.7029 10.1994C90.1674 13.0102 91.6744 28.6691 92.2676 36.434C92.8608 44.1988 98.2747 51.9568 104.071 56.9378Z" fill="#3EB58A"/>
<path fill-rule="evenodd" clip-rule="evenodd" d="M79.7543 36.1531C82.4499 35.4508 85.1368 34.3675 87.775 33.1987C87.3734 30.9157 86.962 28.5947 86.5561 26.3981C86.0689 23.7651 85.5893 21.3112 85.1422 19.3202C84.9192 18.3249 84.7038 17.4452 84.5014 16.7189C84.3 15.9932 84.1084 15.4183 83.9417 15.047C83.9114 14.9787 83.8616 14.9061 83.7869 14.8297C83.6483 14.6865 83.4188 14.5354 83.1103 14.3967C82.569 14.1523 81.7917 13.9451 80.8564 13.7818C79.4523 13.5358 77.692 13.3835 75.79 13.2939C73.8879 13.204 71.844 13.1764 69.8651 13.1764C66.7202 13.1764 63.7421 13.2463 61.7469 13.2463C61.1385 13.2463 60.6211 13.2399 60.214 13.2227C60.0311 13.2148 59.8708 13.2049 59.7323 13.1919C59.8124 13.3029 59.9098 13.4314 60.0202 13.5744C60.3786 14.0393 60.8722 14.6624 61.4103 15.4143C62.2168 16.5427 63.124 17.9628 63.8309 19.599C64.5389 21.2347 65.0477 23.0892 65.0477 25.0812C65.0477 25.3021 65.0412 25.5248 65.0282 25.7491C65.0109 26.0508 65.0022 26.3732 65.0022 26.7145C65.0022 28.6374 65.2826 31.1517 65.852 33.9483C66.5438 33.9204 67.3092 33.9013 68.1005 33.9013C70.0437 33.9013 72.1471 34.0172 73.7071 34.4088C74.5862 34.6293 75.6081 34.9073 76.7188 35.2298C76.9916 35.2978 77.2384 35.3686 77.4452 35.4428C78.1868 35.6634 78.9608 35.9012 79.7543 36.1531ZM62.0998 34.3776C62.2276 34.3105 62.3716 34.2587 62.5361 34.2258C62.6249 34.2083 62.7137 34.1932 62.8024 34.1806C62.7981 34.1689 62.7938 34.1573 62.7905 34.1462C62.7905 34.1462 63.7518 34.0514 65.1592 33.9798C65.0585 33.4805 64.9665 32.9901 64.8842 32.5101C64.5053 30.3076 64.3169 28.3266 64.3169 26.7145C64.3169 26.3614 64.3256 26.026 64.344 25.7095C64.3559 25.4986 64.3624 25.2891 64.3624 25.0812C64.3624 23.5094 64.0247 22.0162 63.5148 20.6469C62.7494 18.5932 61.5943 16.8218 60.6265 15.5007C60.1415 14.8397 59.7052 14.292 59.3837 13.8708C59.2224 13.6596 59.0903 13.4811 58.9918 13.3273C58.942 13.2501 58.9009 13.1793 58.8673 13.1061C58.85 13.0694 58.8348 13.0319 58.8229 12.9895C58.811 12.947 58.8002 12.8996 58.8002 12.8394C58.8002 12.7923 58.8078 12.7355 58.8316 12.6754C58.85 12.6307 58.8792 12.5855 58.916 12.5487C58.9702 12.4928 59.0351 12.4593 59.0914 12.4426C59.1477 12.4255 59.1953 12.4216 59.2397 12.4213C59.3339 12.4223 59.4118 12.4403 59.4995 12.4649C59.5342 12.4756 59.6283 12.4928 59.7561 12.5054C59.9488 12.5252 60.2216 12.5395 60.5583 12.5482C60.8939 12.5571 61.2944 12.5608 61.7469 12.5608C63.728 12.5608 66.7116 12.491 69.8651 12.4908C73.0933 12.491 76.499 12.5636 79.2152 12.8617C80.5738 13.0113 81.7603 13.2158 82.6794 13.5047C83.1395 13.6497 83.5336 13.8154 83.854 14.0162C84.0142 14.1169 84.156 14.2267 84.2773 14.3506C84.3985 14.4742 84.4981 14.6127 84.5674 14.7669C84.759 15.1959 84.9539 15.7909 85.1617 16.5348C85.5244 17.8349 85.9174 19.5842 86.3287 21.6036C87.0053 24.9219 87.7274 28.9695 88.4213 32.9108C88.8554 32.7155 89.2896 32.5184 89.7215 32.3212C90.4133 32.0052 91.1126 31.6504 91.8141 31.2682C90.9913 23.1587 89.3155 12.4735 85.703 10.1994C84.2719 9.2988 78.6912 8.94556 72.6148 8.94556C64.5205 8.94556 55.5471 9.57225 54.3314 10.3671C54.0802 10.5315 53.9687 10.7452 53.9687 11.0028C53.973 12.9254 60.2097 17.2939 60.9729 21.8816C61.276 23.7059 61.3269 25.4429 61.3269 27.1692C61.3269 28.0324 61.3139 28.8929 61.3139 29.7604C61.3139 30.588 61.3258 31.4217 61.3702 32.2702C61.6214 32.8619 61.8638 33.6055 62.0998 34.3776Z" fill="#4F44D0"/>
<path fill-rule="evenodd" clip-rule="evenodd" d="M91.8206 54.7156C91.8206 54.6946 91.8217 54.6738 91.8217 54.6533C91.8217 53.4441 91.5413 52.2103 91.0325 50.9813C90.5237 49.7528 89.7865 48.5315 88.8804 47.358L88.8663 47.3402L88.8522 47.3187L89.334 47.0036L88.8771 47.3533C88.7137 47.1398 88.5469 46.9328 88.3716 46.7257L88.3683 46.7213L88.3662 46.7184C88.2687 46.5997 88.1681 46.4821 88.062 46.3577L88.0381 46.33L88.0165 46.2967L88.4982 45.9816L88.0641 46.3592C86.8235 44.9323 85.3545 43.5992 83.7826 42.4239L83.7815 42.4236C82.8137 41.6987 81.8545 41.1674 80.9495 40.8192C80.0434 40.4709 79.1936 40.3063 78.4434 40.3066C77.9053 40.3066 77.4203 40.3904 76.996 40.5474C76.6788 40.6654 76.3951 40.8241 76.1451 41.0229C75.7716 41.3214 75.4706 41.7098 75.2541 42.2076C75.0387 42.7052 74.9099 43.3148 74.9023 44.0427C74.898 44.3969 74.8839 44.8127 74.8839 45.289C74.8839 46.883 75.0441 49.1486 76.2988 51.695C76.9267 52.9683 77.8306 54.3131 79.1395 55.6786C80.4472 57.044 82.1587 58.43 84.404 59.7773L83.8118 60.7644C81.4897 59.3707 79.6937 57.922 78.3081 56.475C76.2284 54.3051 75.0755 52.1368 74.4519 50.1962C73.8284 48.2559 73.732 46.5445 73.732 45.289C73.732 44.79 73.7472 44.3625 73.7504 44.0301C73.7591 43.269 73.8804 42.5807 74.1077 41.9737C74.2787 41.5187 74.5093 41.11 74.793 40.7558C75.2184 40.2239 75.7651 39.8181 76.3865 39.552C77.0079 39.2851 77.704 39.1556 78.4434 39.1556C79.3603 39.1558 80.3454 39.3541 81.363 39.7449C82.3796 40.1361 83.4286 40.7206 84.4722 41.5022L84.4711 41.5019C86.1025 42.7213 87.63 44.1059 88.9323 45.604L88.9583 45.6335L88.9821 45.6692L88.5004 45.9844L88.9378 45.611C89.0428 45.7338 89.1488 45.8577 89.2571 45.9901L88.8111 46.3542L89.2506 45.9826C89.4379 46.2029 89.6165 46.425 89.7919 46.6539L89.8049 46.6707L89.8179 46.6913L89.3361 47.0064L89.7919 46.6549C90.7478 47.8944 91.5402 49.1983 92.0967 50.5408C92.652 51.8828 92.9725 53.2659 92.9725 54.6533C92.9725 54.6775 92.9725 54.7014 92.9725 54.725L91.8206 54.7156ZM72.0075 25.6323C74.4206 23.8359 78.19 23.7332 80.4277 25.4031C82.6665 27.0729 82.5236 29.8828 80.1105 31.6792C77.6975 33.4757 73.928 33.5783 71.6903 31.9084C69.4527 30.2387 69.5945 27.4287 72.0075 25.6323Z" fill="#C6C2F9"/>
<path fill-rule="evenodd" clip-rule="evenodd" d="M80.8174 60.9156C78.0081 59.3334 75.5788 56.9315 73.5111 54.0947C70.4096 49.8386 68.1167 44.5992 66.5935 39.6229C65.8314 37.1347 65.2631 34.7123 64.8842 32.5101C64.5053 30.3076 64.3169 28.3266 64.3169 26.7145C64.3169 26.3615 64.3256 26.0261 64.344 25.7095C64.3559 25.4987 64.3624 25.2892 64.3624 25.0812C64.3624 23.5094 64.0246 22.0163 63.5147 20.6469C62.7494 18.5932 61.5943 16.8218 60.6264 15.5007C60.1415 14.8397 59.7052 14.2921 59.3837 13.8708C59.2224 13.6596 59.0903 13.4811 58.9918 13.3274C58.942 13.2501 58.9008 13.1793 58.8673 13.1061C58.85 13.0694 58.8348 13.032 58.8229 12.9895C58.811 12.9471 58.8002 12.8997 58.8002 12.8395C58.8002 12.7924 58.8077 12.7355 58.8316 12.6755C58.85 12.6308 58.8792 12.5855 58.916 12.5487C58.9701 12.4928 59.0351 12.4594 59.0914 12.4426C59.1477 12.4255 59.1953 12.4214 59.2397 12.4214C59.3339 12.4224 59.4118 12.4403 59.4995 12.4649C59.5341 12.4756 59.6283 12.4928 59.7561 12.5054C59.9488 12.5252 60.2216 12.5395 60.5582 12.5483C60.8938 12.5571 61.2944 12.5608 61.7469 12.5608C63.728 12.5608 66.7115 12.491 69.865 12.4909C73.0933 12.491 76.499 12.5636 79.2152 12.8618C80.5738 13.0114 81.7603 13.2159 82.6794 13.5047C83.1395 13.6498 83.5335 13.8154 83.854 14.0162C84.0142 14.1169 84.156 14.2268 84.2772 14.3506C84.3985 14.4743 84.4981 14.6127 84.5674 14.767C84.759 15.1959 84.9538 15.791 85.1617 16.5348C85.5244 17.835 85.9173 19.5843 86.3287 21.6036C87.5628 27.6594 88.9507 36.1415 90.0354 41.9798C90.1415 42.5517 90.3504 43.2022 90.6384 43.8965C91.1429 45.1124 91.8855 46.4631 92.7148 47.7992C93.9597 49.8042 95.4017 51.7781 96.5308 53.2487C97.0948 53.984 97.5809 54.5936 97.9262 55.019C98.0994 55.2317 98.2358 55.3985 98.33 55.5117C98.3766 55.5683 98.4134 55.6116 98.4372 55.6407C98.4621 55.6697 98.474 55.6841 98.474 55.6841L97.95 56.1263C97.9457 56.1216 96.0371 53.8605 94.0117 50.9862C92.9995 49.5489 91.957 47.9586 91.1071 46.4157C90.6828 45.644 90.306 44.8842 90.0051 44.1589C89.7052 43.4336 89.4801 42.7433 89.361 42.1051C88.5328 37.6477 87.5303 31.6648 86.556 26.3982C86.0689 23.7652 85.5893 21.3112 85.1422 19.3202C84.9192 18.3249 84.7038 17.4452 84.5013 16.719C84.3 15.9932 84.1084 15.4184 83.9416 15.047C83.9113 14.9787 83.8615 14.9061 83.7868 14.8298C83.6483 14.6865 83.4188 14.5354 83.1102 14.3967C82.569 14.1523 81.7917 13.9451 80.8563 13.7818C79.4522 13.5359 77.692 13.3836 75.7899 13.2939C73.8879 13.2041 71.844 13.1765 69.865 13.1765C66.7202 13.1765 63.7421 13.2463 61.7469 13.2463C61.1385 13.2463 60.621 13.2399 60.214 13.2227C60.0105 13.2139 59.8351 13.2027 59.6857 13.1874C59.5363 13.1717 59.4172 13.1544 59.3079 13.1234C59.2819 13.1159 59.2624 13.1112 59.2494 13.1089L59.2364 13.1071V13.107L59.2397 13.0505V13.1071L59.2364 13.107L59.2397 13.0505V13.1071V12.9324L59.283 13.1006C59.2592 13.1069 59.2451 13.1069 59.2397 13.1071V12.9324L59.283 13.1006L59.218 12.8529L59.3523 13.0706C59.3252 13.0872 59.3014 13.0958 59.283 13.1006L59.218 12.8529L59.3523 13.0706L59.204 12.8295L59.4584 12.9535C59.4367 13.0009 59.3934 13.0468 59.3523 13.0706L59.204 12.8295L59.4584 12.9535L59.2245 12.8395H59.4854C59.4854 12.8644 59.4811 12.9061 59.4584 12.9535L59.2245 12.8395H59.4854H59.3111L59.4822 12.8032C59.4833 12.8091 59.4854 12.8204 59.4854 12.8395H59.3111L59.4822 12.8032L59.4151 12.8175L59.4811 12.7983L59.4822 12.8032L59.4151 12.8175L59.4811 12.7983V12.8C59.4854 12.813 59.5147 12.8723 59.5634 12.9484C59.6554 13.0941 59.8156 13.3095 60.0202 13.5744C60.3785 14.0394 60.8722 14.6624 61.4102 15.4144C62.2167 16.5427 63.1239 17.9628 63.8308 19.599C64.5388 21.2348 65.0476 23.0892 65.0476 25.0812C65.0476 25.3022 65.0411 25.5249 65.0282 25.7492C65.0108 26.0509 65.0022 26.3733 65.0022 26.7145C65.0022 28.7936 65.3302 31.5637 65.996 34.6346C66.9952 39.242 68.7533 44.5312 71.2821 49.2324C72.5455 51.5831 74.0015 53.7866 75.6481 55.6858C77.2947 57.5851 79.1307 59.1793 81.154 60.3182L80.8174 60.9156Z" fill="#4F44D0"/>
<path fill-rule="evenodd" clip-rule="evenodd" d="M63.8439 12.9185C67.1879 16.8879 68.6613 21.5208 68.2802 22.5873C68.1308 23.0042 64.5843 23.0174 64.5843 23.0174L62.8566 18.2587L59.3166 12.9543L63.8439 12.9185Z" fill="#C6C2F9"/>
<path fill-rule="evenodd" clip-rule="evenodd" d="M73.2697 58.2443C75.095 60.3802 80.8704 63.6495 86.4424 64.8757C88.1951 65.2622 89.9272 65.4463 91.5099 65.3293C91.8964 65.3012 92.2904 65.2676 92.691 65.2287C97.3243 64.7859 102.785 63.695 106.981 62.266C111.541 60.7125 115.451 58.0104 119.239 55.2889C123.027 52.5673 131.059 50.4433 131.245 47.9458C131.432 45.4473 112.151 22.5889 108.278 22.301C104.405 22.013 96.6997 29.133 89.7215 32.3212C82.7433 35.5083 75.3483 38.6066 68.2921 35.9813C73.3856 42.612 67.9511 52.0174 73.2697 58.2443Z" fill="#9D95F8"/>
<path fill-rule="evenodd" clip-rule="evenodd" d="M87.643 55.32C87.9624 55.1704 88.2579 55.0191 88.5296 54.8726C89.0233 54.6066 89.4368 54.3573 89.7854 54.1592C90.5172 53.7445 91.0282 53.2653 91.3562 52.7612C91.6842 52.2557 91.8369 51.7245 91.838 51.1615C91.838 50.7178 91.7405 50.2527 91.5392 49.7756C91.2382 49.0604 90.7012 48.3211 89.9326 47.6252C89.164 46.929 88.1637 46.2768 86.9523 45.7307L86.9513 45.7306C85.2007 44.94 83.3647 44.3113 81.5558 43.9209L81.52 43.9138C81.363 43.8815 81.2137 43.8507 81.0653 43.8237L81.0599 43.8229L81.0556 43.8219C80.8001 43.771 80.549 43.7266 80.2946 43.6883L80.2902 43.688L80.2686 43.6846C79.7305 43.602 79.1979 43.5426 78.675 43.5081C79.5248 46.5733 81.1823 50.1427 82.4077 51.0342C83.2251 51.6275 85.4974 53.3134 87.643 55.32Z" fill="#9CCCFA"/>
<path fill-rule="evenodd" clip-rule="evenodd" d="M71.9663 43.6658C73.627 42.7318 75.5756 42.3392 77.6281 42.3389C78.5472 42.3389 79.4891 42.4179 80.4406 42.5639L80.354 43.1243L80.3962 42.5589L80.3995 42.5592L80.4201 42.5608L80.4417 42.5638C80.7221 42.6057 80.9992 42.6544 81.2774 42.71L81.1659 43.266L81.2677 42.7082C81.4333 42.7385 81.5914 42.7711 81.7473 42.8028L81.6336 43.3584L81.6758 42.793L81.6791 42.7932L81.7181 42.7961L81.7559 42.8042C83.6678 43.2137 85.5893 43.8715 87.4178 44.6972V44.6971C89.1607 45.4828 90.5334 46.4847 91.485 47.5958C91.9613 48.1516 92.3315 48.7354 92.5838 49.3351C92.8371 49.9344 92.9724 50.5506 92.9724 51.1616C92.9735 51.9365 92.7516 52.7 92.3066 53.3801C91.8628 54.0616 91.2046 54.6589 90.345 55.1459C90.017 55.3317 89.5872 55.5905 89.0687 55.8707C88.2881 56.2916 87.3008 56.7622 86.1024 57.1266C84.904 57.4912 83.4945 57.7491 81.8739 57.7489C80.4211 57.7491 78.7984 57.5415 77.0067 57.0238C75.2151 56.5061 73.2556 55.6788 71.1219 54.4415L71.6913 53.4605C73.7536 54.6568 75.6275 55.445 77.3218 55.9344C79.0149 56.4238 80.5283 56.6148 81.8739 56.615C83.8745 56.6146 85.5081 56.1932 86.8137 55.6779C87.4665 55.42 88.037 55.1384 88.5295 54.8728C89.0232 54.6068 89.4367 54.3575 89.7853 54.1594C90.5171 53.7446 91.0281 53.2655 91.3561 52.7613C91.6841 52.2559 91.8368 51.7247 91.8379 51.1616C91.8379 50.718 91.7404 50.2528 91.5391 49.7757C91.2381 49.0606 90.7012 48.3213 89.9325 47.6253C89.1639 46.9291 88.1636 46.277 86.9523 45.7308L86.9512 45.7307C85.1888 44.9346 83.3397 44.3028 81.5189 43.913L81.6369 43.3586L81.5946 43.9241L81.5914 43.9238L81.5557 43.9211L81.5199 43.914C81.363 43.8817 81.2136 43.8509 81.0653 43.8239L81.0599 43.823L81.0555 43.8221C80.7935 43.7698 80.5359 43.7244 80.2739 43.6854L80.3573 43.1246L80.315 43.69L80.3118 43.6898L80.2901 43.6881L80.2685 43.6848C79.3678 43.5464 78.4823 43.4729 77.6281 43.4729C75.7174 43.4728 73.9669 43.8404 72.5227 44.6541L71.9663 43.6658ZM107.705 44.297C107.56 41.2974 105.199 38.4267 102.43 37.8852C99.6605 37.3436 97.5332 39.3361 97.6772 42.3357C97.8212 45.3354 100.182 48.206 102.951 48.7476C105.721 49.2892 107.849 47.2967 107.705 44.297Z" fill="#C6C2F9"/>
<path fill-rule="evenodd" clip-rule="evenodd" d="M76.2934 57.353C81.3717 60.4887 86.463 61.5924 91.1841 61.5932C96.6034 61.5936 101.533 60.1325 105.347 58.6021C106.908 57.9754 108.912 57.0347 111.034 55.9507C114.217 54.3248 117.668 52.3755 120.314 50.6768C121.637 49.8279 122.759 49.0405 123.539 48.3954C123.928 48.0735 124.233 47.7861 124.427 47.5557C124.525 47.4411 124.594 47.3407 124.634 47.2657C124.654 47.2284 124.667 47.1977 124.673 47.1766C124.68 47.1555 124.68 47.1445 124.68 47.1445H124.736L124.685 47.1651C124.68 47.154 124.68 47.1445 124.68 47.1445H124.736L124.685 47.1651L124.753 47.1376L124.7 47.1903C124.697 47.1872 124.689 47.1765 124.685 47.1651L124.753 47.1376L124.7 47.1903C124.652 47.1414 124.599 47.0819 124.534 47.0071C124.287 46.7194 123.884 46.2036 123.349 45.5095C121.482 43.084 118.045 38.5065 114.717 34.54C113.054 32.5573 111.418 30.7275 110.03 29.4033C109.337 28.7414 108.704 28.2062 108.171 27.845C107.904 27.6645 107.664 27.5277 107.458 27.4397C107.253 27.3509 107.084 27.3137 106.97 27.3146C106.9 27.3147 106.85 27.3267 106.812 27.3446C106.477 27.4992 106.009 27.7552 105.437 28.0869C104.436 28.6678 103.116 29.4821 101.585 30.4138C99.2892 31.8115 96.5189 33.4744 93.6242 35.0207C90.7272 36.5671 87.7069 37.9978 84.8998 38.9315C84.0067 39.2284 82.9512 39.4184 81.821 39.5364C80.6908 39.6543 79.4869 39.6992 78.2994 39.6992C74.3177 39.699 70.5298 39.1931 70.5222 39.1923L70.611 38.5228C70.611 38.5228 70.6251 38.5245 70.6532 38.5282C71.0743 38.5827 74.6187 39.024 78.2994 39.0238C79.4696 39.0239 80.6529 38.9793 81.7506 38.8647C82.8494 38.7505 83.8627 38.5651 84.6865 38.2907C88.8771 36.8979 93.6296 34.3403 97.6795 31.967C99.7049 30.7802 101.555 29.6397 103.078 28.7128C103.839 28.2494 104.518 27.8393 105.098 27.5027C105.679 27.166 106.157 26.9035 106.527 26.7317C106.667 26.6669 106.818 26.6392 106.97 26.6392C107.261 26.6406 107.554 26.7337 107.866 26.8838C108.451 27.1676 109.117 27.6676 109.864 28.3311C111.169 29.4919 112.711 31.1564 114.314 33.0211C116.717 35.8175 119.254 39.0621 121.283 41.7013C122.297 43.0209 123.185 44.1889 123.865 45.0723C124.204 45.5139 124.492 45.8845 124.718 46.1658C124.829 46.3064 124.927 46.4248 125.004 46.5177C125.082 46.6102 125.144 46.6785 125.178 46.712C125.234 46.7676 125.282 46.8371 125.311 46.9129C125.342 46.9887 125.355 47.0688 125.355 47.1445C125.355 47.2527 125.33 47.3519 125.295 47.4454C125.223 47.6261 125.108 47.7942 124.957 47.9751C124.674 48.3118 124.259 48.6887 123.728 49.1116C122.8 49.8496 121.523 50.7201 120.045 51.6472C117.829 53.0371 115.165 54.5517 112.581 55.9094C109.997 57.2673 107.496 58.4672 105.598 59.2288C101.737 60.7782 96.7257 62.2685 91.1841 62.2685C86.358 62.2694 81.1292 61.1343 75.9394 57.9277L76.2934 57.353Z" fill="#4F44D0"/>
<path fill-rule="evenodd" clip-rule="evenodd" d="M122.276 43.9377C118.559 47.5996 113.756 49.3191 113.397 50.3761C113.04 51.4331 115.553 54.0747 115.553 54.0747L121.494 50.3043L125 47.3726L122.276 43.9377Z" fill="#C6C2F9"/>
<path fill-rule="evenodd" clip-rule="evenodd" d="M102.889 51.8312C103.778 52.7681 105.26 53.4027 105.578 54.119C106.381 55.931 105.066 58.6793 103.388 58.3494C101.709 58.0194 101.563 57.0713 101.716 56.2047C101.871 55.338 99.1149 53.1616 99.1149 53.1616L102.07 51.2031L102.889 51.8312ZM97.359 123.572C96.3912 122.218 92.9194 117.107 92.9194 117.107L96.6445 114.768L99.5956 120.342L98.0843 123.532L97.359 123.572Z" fill="#FE794D"/>
<path fill-rule="evenodd" clip-rule="evenodd" d="M96.5438 122.669C96.2667 123.054 96.9216 123.838 97.4997 124.261C98.8237 125.228 98.4177 130.407 98.2175 131.269C98.1146 131.714 100.002 133.28 100.848 131.201C101.58 129.403 102.185 123.849 102.973 121.877C103.138 121.465 103.007 120.991 102.649 120.728C101.373 119.789 99.4895 118.757 99.2167 119.285C98.6104 120.004 97.7 121.068 96.5438 122.669Z" fill="#132056"/>
<path fill-rule="evenodd" clip-rule="evenodd" d="M121.961 100.467C120.325 100.162 116.326 98.8823 116.326 98.8823L117.392 94.6138L123.382 96.5905L124.501 99.9389L121.961 100.467Z" fill="#FE794D"/>
<path fill-rule="evenodd" clip-rule="evenodd" d="M121.196 100.605C120.979 101.027 121.452 100.945 122.088 101.275C123.542 102.031 124.627 106.747 124.761 107.8C124.819 108.254 127.108 109.267 126.944 107.029C126.748 104.338 126.656 100.162 127.139 98.0941C127.24 97.6611 127.039 97.2129 126.646 97.0061C125.243 96.27 122.899 95.8056 122.708 96.3685C122.218 97.1707 122.098 98.8487 121.196 100.605Z" fill="#132056"/>
<path fill-rule="evenodd" clip-rule="evenodd" d="M68.3928 61.0273C69.3411 68.381 80.7492 93.2865 82.5906 96.4703C84.431 99.6563 92.9984 118.522 93.7919 119.456C97.9068 117.9 99.3087 116.832 99.3087 116.832C98.0865 114.008 90.8333 99.4506 89.335 94.0767C88.4181 90.7825 85.978 83.9255 84.2286 79.1146C83.2737 76.4883 82.5246 74.4726 82.3395 73.9768C82.3103 73.8988 82.2951 73.8587 82.2951 73.8587C86.5572 79.1893 90.7618 85.9283 96.2916 91.0022C104.077 97.2909 118.288 100.383 118.288 100.383C120.199 97.1989 121.145 94.6743 120.634 94.7642C116.908 92.9076 102.915 89.1099 100.685 85.8135C99.2492 83.6906 95.4829 75.527 91.4796 67.8678C89.7128 64.4892 87.9006 61.2096 86.2227 58.589C85.7972 57.9247 85.3815 57.3024 84.9755 56.7328C84.3931 55.9134 71.1642 60.4123 71.1642 60.4123L68.3928 61.0273Z" fill="#3B3B4C"/>
<path fill-rule="evenodd" clip-rule="evenodd" d="M60.4641 40.7541L63.334 38.2026C62.6271 36.6563 61.8054 32.6393 60.9047 31.3847C59.9153 30.0082 59.8211 30.1536 59.8211 30.1536L58.1821 32.6531L57.4113 33.8295C57.4113 33.8295 57.8335 34.3766 58.0738 35.5228C58.2405 36.3245 58.3195 37.4189 58.1009 38.8248C57.9374 39.8775 60.4641 40.7541 60.4641 40.7541Z" fill="#FE794D"/>
<path fill-rule="evenodd" clip-rule="evenodd" d="M58.1074 35.6972C58.0965 35.6376 58.0857 35.5794 58.0738 35.5228C57.8335 34.3766 57.4113 33.8296 57.4113 33.8296C57.4113 33.8296 57.8681 34.551 58.1074 35.6972Z" fill="#D0C1B0"/>
<path fill-rule="evenodd" clip-rule="evenodd" d="M58.1073 35.6971C60.6297 35.6458 61.0898 33.4783 60.2854 33.1435C59.7831 32.9341 58.182 32.6531 58.182 32.6531L57.4112 33.8295C57.4112 33.8295 57.8334 34.3765 58.0737 35.5227C58.0857 35.5794 58.0965 35.6375 58.1073 35.6971Z" fill="#FF3F00"/>
<path fill-rule="evenodd" clip-rule="evenodd" d="M56.6394 26.8481C56.1046 28.1249 53.8691 30.1758 54.7568 30.4603C55.6445 30.7448 53.6234 33.1571 54.5566 33.4938C56.8191 34.3097 59.9185 33.7158 60.5735 32.7084C61.2273 31.701 62.0685 28.5672 62.0685 28.5672L56.6394 26.8481Z" fill="#FE794D"/>
<path fill-rule="evenodd" clip-rule="evenodd" d="M58.5859 28.8716C57.8378 28.7226 57.7599 28.8857 57.3344 28.4778C56.9079 28.07 58.0078 27.6566 57.1158 27.1956C56.2248 26.7346 55.2094 26.3418 55.4605 25.2323C55.8242 23.6266 57.1287 24.3176 57.9233 24.7749C58.4354 25.0691 58.9593 23.9191 60.0419 24.3264C60.8906 24.6457 60.6265 25.1161 61.3713 25.4345C61.8206 25.6267 62.9746 25.1568 63.517 25.949C64.5227 27.4186 62.9897 28.3276 63.7475 29.7938C64.6309 31.5037 60.7218 33.2757 60.4804 32.8302C60.1978 32.3104 61.2327 31.1699 60.922 30.7231C60.4533 30.0493 60.2032 30.5546 59.5212 30.8769C58.7937 31.2211 57.7545 30.9195 58.7439 30.1199C59.7345 29.3202 59.2636 29.0065 58.5859 28.8716Z" fill="#132056"/>
<path fill-rule="evenodd" clip-rule="evenodd" d="M84.2285 79.1147C83.2737 76.4884 82.5246 74.4727 82.3394 73.9769C80.7762 72.9344 80.1862 72.5674 80.1862 72.5674C80.1862 72.5674 81.822 76.0511 84.2285 79.1147Z" fill="#2B2B41"/>
<path fill-rule="evenodd" clip-rule="evenodd" d="M90.5399 65.3639C90.8679 65.3639 91.1927 65.3531 91.5099 65.3293C91.8964 65.3011 92.2904 65.2676 92.691 65.2286C92.6953 64.6516 92.5914 63.5873 92.2991 62.2484C91.9299 62.2616 91.5586 62.2684 91.184 62.2684C91.1819 62.2684 91.1797 62.2684 91.1786 62.2684C91.1548 62.2684 91.1321 62.2684 91.1083 62.2684C91.2858 63.3615 91 64.2198 89.8698 64.2794C89.7875 64.2839 89.6858 64.2899 89.5699 64.2971C89.7626 64.6473 89.9553 65.0024 90.148 65.3596C90.279 65.3628 90.41 65.3639 90.5399 65.3639ZM91.184 61.5931C91.5045 61.5931 91.8249 61.5881 92.1421 61.5781C92.1085 61.442 92.0728 61.3038 92.0349 61.1635C91.6192 59.6212 90.1751 57.8217 88.5123 56.1594C88.1745 56.328 87.8053 56.4987 87.4048 56.6625C88.01 57.2025 88.5004 57.65 88.823 57.9634C89.6576 58.7754 90.5561 60.2638 90.9502 61.5922C91.0281 61.5928 91.1061 61.5931 91.184 61.5931Z" fill="#4F44D0"/>
<path fill-rule="evenodd" clip-rule="evenodd" d="M86.4489 55.8164C86.5734 55.7711 86.6947 55.7249 86.8138 55.6779C87.1071 55.5623 87.3832 55.4418 87.643 55.3202C85.4974 53.3136 83.2251 51.6277 82.4077 51.0344C81.1823 50.1429 79.5248 46.5736 78.675 43.5083C78.3697 43.4881 78.0688 43.4766 77.77 43.4736C77.7808 43.5089 77.7917 43.5449 77.8025 43.5816C77.8122 43.6169 77.8241 43.6531 77.835 43.6906C77.8588 43.7795 77.8848 43.8714 77.9118 43.9666C77.9302 44.0329 77.9486 44.1015 77.9681 44.171C77.9963 44.277 78.0255 44.385 78.0547 44.4964C78.0666 44.5424 78.0796 44.5895 78.0926 44.6366C78.1175 44.7308 78.1424 44.8273 78.1695 44.9247C78.2377 45.1804 78.308 45.4481 78.3827 45.7221C78.4228 45.873 78.4661 46.026 78.5094 46.1812C78.5408 46.2957 78.5722 46.4101 78.6058 46.5257C78.6296 46.6058 78.6523 46.685 78.6761 46.7652C78.6934 46.8294 78.7129 46.8925 78.7324 46.9565C78.8461 47.3371 78.9662 47.714 79.0918 48.0778C79.2412 48.5032 79.5573 49.0966 79.9839 49.7889C80.3314 50.3526 80.8943 50.9518 81.5871 51.5614L81.5882 51.5613C83.2759 53.0473 85.0394 54.5764 86.4489 55.8164Z" fill="#4F47BA"/>
<path fill-rule="evenodd" clip-rule="evenodd" d="M87.4048 56.6625C87.8053 56.4987 88.1745 56.328 88.5122 56.1594C88.2275 55.8752 87.9363 55.5945 87.643 55.3201C87.3831 55.4417 87.1071 55.5622 86.8137 55.6778C86.6946 55.7248 86.5734 55.771 86.4489 55.8163C86.7899 56.1169 87.1103 56.4006 87.4048 56.6625ZM78.675 43.5082C78.597 43.229 78.5267 42.9545 78.4639 42.6862C77.915 42.6077 77.5405 42.5648 77.4062 42.5562L77.4192 42.5751C77.4571 42.6264 77.4939 42.6973 77.5329 42.7876L77.5351 42.7929C77.5437 42.8132 77.5535 42.8355 77.5621 42.8579L77.5632 42.8588L77.5643 42.8621C77.6292 43.0237 77.6974 43.2307 77.77 43.4735C78.0687 43.4764 78.3697 43.488 78.675 43.5082ZM91.1786 62.2685C91.1797 62.2685 91.1819 62.2685 91.184 62.2685C91.5586 62.2685 91.9299 62.2616 92.2991 62.2484C92.2514 62.032 92.1995 61.8081 92.1421 61.5781C91.8249 61.5881 91.5045 61.5932 91.184 61.5932C91.1061 61.5932 91.0281 61.5928 90.9502 61.5922C91.0195 61.824 91.0736 62.0508 91.1083 62.2685C91.1321 62.2685 91.1548 62.2685 91.1786 62.2685Z" fill="#5AAAF6"/>
<path fill-rule="evenodd" clip-rule="evenodd" d="M91.4796 67.868C91.0379 67.0225 90.5929 66.1835 90.148 65.3597C88.955 65.3272 87.7046 65.154 86.4424 64.8758L86.096 64.3864C84.2426 64.3388 82.1522 64.0965 80.7589 63.3308C80.1797 63.013 79.6547 62.6144 79.174 62.1611L78.8071 62.3471C78.8049 62.3481 78.8038 62.3493 78.8016 62.3501C83.3603 65.4755 89.2386 67.8323 91.4796 67.868Z" fill="#333347"/>
<path fill-rule="evenodd" clip-rule="evenodd" d="M90.148 65.3597C89.9553 65.0024 89.7626 64.6473 89.5699 64.2971C88.9799 64.3334 87.9894 64.3951 86.8462 64.3951C86.6026 64.3951 86.3514 64.3929 86.096 64.3864L86.4424 64.8758C87.7047 65.154 88.955 65.3272 90.148 65.3597Z" fill="#303045"/>
<path fill-rule="evenodd" clip-rule="evenodd" d="M62.5361 34.2258C60.9924 34.534 61.2197 36.5136 60.1382 37.1121C59.4811 37.4751 58.837 36.9508 58.3682 36.7687C58.0792 36.6566 58.1593 36.8865 57.6429 37.1858C56.2876 37.9712 69.3942 65.8316 69.3942 65.8316C69.3942 65.8316 73.8197 65.0695 76.6333 63.6391C79.4479 62.2091 83.5032 58.9882 82.9165 58.0456C82.3308 57.1029 65.8834 34.3971 65.8834 34.3971C65.8834 34.3971 64.0809 33.9177 62.5361 34.2258Z" fill="white"/>
<path fill-rule="evenodd" clip-rule="evenodd" d="M62.7905 34.1463C63.374 35.7751 68.408 41.8015 69.5403 47.8234C70.4443 52.6312 74.925 55.4754 76.0227 57.6126C77.1064 59.7223 78.5483 62.1168 80.7589 63.3309C83.4221 64.7936 88.6259 64.3454 89.8698 64.2796C92.5134 64.1399 90.5356 59.6291 88.823 57.9636C87.7003 56.8711 84.5295 54.1505 81.5882 51.5613L81.5871 51.5614C80.8943 50.9518 80.3313 50.3526 79.9838 49.7889C79.5573 49.0966 79.2412 48.5032 79.0918 48.0778C78.9662 47.7141 78.8461 47.3371 78.7324 46.9565C78.7129 46.8925 78.6934 46.8294 78.6761 46.7652C78.6523 46.685 78.6296 46.6058 78.6057 46.5257C78.5722 46.4101 78.5408 46.2957 78.5094 46.1812C78.465 46.0271 78.4228 45.873 78.3827 45.7221C78.308 45.4481 78.2377 45.1804 78.1695 44.9247C78.1424 44.8273 78.1175 44.7308 78.0926 44.6366C78.0796 44.5896 78.0666 44.5425 78.0547 44.4965C78.0255 44.3851 77.9963 44.277 77.9681 44.171C77.9486 44.1015 77.9302 44.0329 77.9118 43.9666C77.8847 43.8714 77.8588 43.7795 77.8349 43.6906C77.8241 43.6531 77.8122 43.6169 77.8025 43.5816C77.7169 43.2918 77.639 43.0472 77.5643 42.8622L77.5632 42.859L77.5621 42.858C77.5535 42.8356 77.5437 42.8133 77.5351 42.793L77.5329 42.7877C77.4939 42.6974 77.4571 42.6265 77.4192 42.5752L77.4062 42.5563C78.1976 42.6074 87.3334 43.8435 91.0899 46.564C96.0783 50.7384 98.8778 54.1698 99.8078 55.075L99.8337 55.0759C101.139 54.0401 103.131 52.3624 103.309 51.6877L103.308 51.6747C102.442 49.3642 97.2789 45.3877 94.2445 42.4906C91.4016 39.7742 79.4707 35.8553 73.7071 34.4089C69.8792 33.4483 62.7905 34.1463 62.7905 34.1463Z" fill="#5AAAF6"/>
<path fill-rule="evenodd" clip-rule="evenodd" d="M95.6572 43.7905C94.3527 45.0615 92.9876 46.1185 91.6127 47.0057C96.2743 50.9784 98.9114 54.2018 99.8077 55.075L99.8337 55.0759C101.139 54.04 103.131 52.3623 103.308 51.6876V51.6746C102.566 49.6944 98.6667 46.4894 95.6572 43.7905Z" fill="#5AAAF6"/>
<path fill-rule="evenodd" clip-rule="evenodd" d="M78.5094 46.181C78.4661 46.0258 78.4228 45.8728 78.3827 45.7219C78.4228 45.8728 78.465 46.0269 78.5094 46.181Z" fill="#468076"/>
<path fill-rule="evenodd" clip-rule="evenodd" d="M81.481 51.5663C81.5167 51.5663 81.5514 51.5647 81.5871 51.5613C80.8943 50.9517 80.3313 50.3525 79.9838 49.7888C79.5573 49.0965 79.2412 48.5032 79.0918 48.0777C78.9662 47.714 78.846 47.337 78.7324 46.9564C78.7129 46.8924 78.6934 46.8293 78.6761 46.7651C78.6523 46.6849 78.6295 46.6058 78.6057 46.5256C78.5722 46.41 78.5408 46.2956 78.5094 46.1812C78.465 46.027 78.4228 45.873 78.3827 45.7221C78.308 45.4481 78.2376 45.1803 78.1694 44.9246C78.1424 44.8272 78.1175 44.7307 78.0926 44.6366C78.0796 44.5895 78.0666 44.5424 78.0547 44.4964C78.0255 44.385 77.9962 44.2769 77.9681 44.171C77.9486 44.1015 77.9302 44.0328 77.9118 43.9666C77.8847 43.8713 77.8587 43.7794 77.8349 43.6905C77.8241 43.6531 77.8122 43.6168 77.8025 43.5815C77.7169 43.2917 77.639 43.0471 77.5643 42.8621L77.5632 42.8589L77.5621 42.8579L77.4192 42.5751C76.8444 42.4084 76.04 42.3672 75.3862 42.3672C74.7464 42.3672 74.2495 42.4066 74.2495 42.4066C74.8395 44.0217 79.0723 51.5663 81.481 51.5663Z" fill="#8279F8"/>
<path fill-rule="evenodd" clip-rule="evenodd" d="M37.5754 32.1823C38.0777 36.5325 39.1072 48.5502 41.1771 49.3831C44.7365 50.8152 53.8777 46.9532 56.1966 47.6086C58.4927 48.2574 59.8026 53.2668 59.8026 53.2668C61.6776 56.0409 61.9158 57.1764 62.43 58.7544C63.073 60.723 67.2853 66.9954 69.9289 68.2891C72.0865 69.3446 76.3962 67.0376 76.0584 65.7992C75.0256 62.0014 69.5403 63.1595 66.4322 54.4483C64.6752 49.5207 64.266 49.2493 62.1225 43.8162C62.1225 43.8162 57.9417 36.8843 57.618 37.139C52.7692 40.9532 46.1092 44.0846 44.5525 43.0779C43.2957 42.2651 42.8897 32.7991 42.6927 30.8666C42.5671 29.6443 37.4585 31.1667 37.5754 32.1823Z" fill="#5AAAF6"/>
<path fill-rule="evenodd" clip-rule="evenodd" d="M59.8925 37.209C59.9737 37.1889 60.056 37.1574 60.1382 37.112C60.1978 37.0789 60.253 37.0416 60.306 37.0005C60.2974 37.0002 60.2887 37 60.28 37C60.2238 37 60.1631 37.0093 60.0993 37.0301C59.9758 37.0703 59.912 37.1339 59.8925 37.209Z" fill="#C99492"/>
<path fill-rule="evenodd" clip-rule="evenodd" d="M66.4593 40.4427C66.5069 40.4427 66.5535 40.4422 66.6011 40.441C66.2071 39.7415 65.8065 39.0758 65.4211 38.4543C65.3215 38.4522 65.2219 38.4483 65.1234 38.4429C63.7172 38.3668 62.3965 37.9669 61.3648 37.577C60.9188 37.408 60.6676 37.0182 60.306 37.0005C60.253 37.0415 60.1978 37.0789 60.1382 37.112C60.0559 37.1574 59.9737 37.1889 59.8925 37.209C59.8199 37.4811 60.3158 37.9036 60.5279 37.9036C60.5604 37.9036 60.5864 37.8936 60.6026 37.8715C60.6059 37.8664 60.6124 37.864 60.621 37.864C60.8863 37.864 63.4758 40.1924 65.8682 40.4144C66.0642 40.4328 66.2623 40.4427 66.4593 40.4427Z" fill="#D7D7DB"/>
<path fill-rule="evenodd" clip-rule="evenodd" d="M77.4452 35.4428C77.2384 35.3685 76.9916 35.2977 76.7188 35.2297C76.957 35.2988 77.1994 35.3698 77.4452 35.4428Z" fill="#368E75"/>
<path fill-rule="evenodd" clip-rule="evenodd" d="M66.6012 40.4411C67.0418 40.4302 67.4813 40.3678 67.9078 40.2369C69.8478 39.6412 75.3061 36.681 77.5816 35.4951C77.5383 35.4775 77.4928 35.4602 77.4452 35.4429C77.1995 35.3699 76.957 35.2989 76.7188 35.2298C75.5486 34.9375 73.9031 34.6981 72.932 34.4641C71.4023 35.6518 68.4415 37.984 67.4087 38.2423C66.8058 38.3931 66.1995 38.4563 65.603 38.4563C65.5424 38.4563 65.4818 38.4556 65.4212 38.4543C65.8066 39.0758 66.2071 39.7416 66.6012 40.4411Z" fill="#977D06"/>
<path fill-rule="evenodd" clip-rule="evenodd" d="M59.5244 37.985C59.4389 37.698 59.4681 37.1717 60.069 36.9764C60.5215 36.8292 60.6254 36.9971 61.1158 37.183C62.5913 37.7413 64.7002 38.3187 66.757 37.8043C68.8139 37.2899 72.368 33.0274 75.5291 32.5833C78.6902 32.1393 80.5489 34.4347 85.021 33.5487C89.4941 32.6628 93.3773 29.2021 94.7035 28.9563C96.0285 28.7104 96.8837 28.7049 97.0342 29.21C97.1858 29.7151 96.8664 30.7607 96.1195 31.4337C95.3736 32.1068 87.8541 35.4764 85.7171 35.954C82.228 36.7337 78.2625 34.7883 76.0509 35.3886C73.8392 35.9887 69.785 38.879 67.2226 39.6657C64.3657 40.5429 60.883 38.1228 60.7445 38.3143C60.6048 38.5059 60.4782 38.6887 60.0852 38.7309C59.8156 38.7599 59.61 38.2719 59.5244 37.985Z" fill="#FFBD00"/>
<path fill-rule="evenodd" clip-rule="evenodd" d="M158.71 103.564C158.249 101.732 158.387 98.721 157.07 97.5941C155.403 96.1694 149.794 95.3846 146.819 93.8527C142.386 91.5685 140.448 89.3179 139.925 89.4261C139.403 89.5355 137.782 93.4652 139.11 94.4492C140.68 95.6119 143.446 98.1841 146.638 98.8791C149.453 99.4918 151.827 99.9855 153.346 100.718C155.116 101.572 158.877 104.23 158.71 103.564Z" fill="#9D95F8"/>
<path fill-rule="evenodd" clip-rule="evenodd" d="M149.925 98.3465C150.712 98.3465 150.984 97.8919 150.52 97.2412C149.998 96.5084 148.779 95.7257 147.3 95.5005C147.189 95.4832 147.088 95.4756 146.995 95.4756C146.215 95.4756 146.098 96.0483 146.79 96.753C147.526 97.5043 148.571 98.1896 149.601 98.3238C149.717 98.339 149.825 98.3465 149.925 98.3465Z" fill="#4F44D0"/>
<path fill-rule="evenodd" clip-rule="evenodd" d="M146.79 96.753L146.86 96.6837C147.585 97.4242 148.618 98.0965 149.614 98.2253C149.726 98.2404 149.83 98.2469 149.925 98.2469C150.175 98.248 150.362 98.1982 150.478 98.1214C150.537 98.0824 150.578 98.038 150.605 97.9882C150.633 97.9384 150.647 97.8821 150.647 97.815C150.648 97.6818 150.585 97.5043 150.439 97.2986C150.189 96.9479 149.764 96.5765 149.219 96.2669C148.675 95.9573 148.012 95.7094 147.286 95.599C147.179 95.5827 147.081 95.5752 146.995 95.5752C146.792 95.5741 146.647 95.6174 146.559 95.6791C146.516 95.7105 146.486 95.7451 146.465 95.7852C146.445 95.8263 146.434 95.8729 146.434 95.9281C146.434 96.0169 146.464 96.1305 146.533 96.2593C146.604 96.3871 146.712 96.5311 146.86 96.6837L146.79 96.753L146.718 96.8223C146.559 96.6599 146.44 96.5029 146.359 96.3535C146.278 96.2041 146.236 96.0612 146.235 95.9281C146.235 95.8458 146.252 95.7657 146.288 95.6953C146.342 95.5892 146.436 95.507 146.556 95.455C146.676 95.402 146.822 95.376 146.995 95.376C147.093 95.376 147.2 95.3846 147.315 95.402C148.067 95.5167 148.753 95.7733 149.318 96.0937C149.883 96.4163 150.328 96.8017 150.601 97.1839C150.762 97.4101 150.845 97.6212 150.846 97.815C150.846 97.9113 150.824 98.0034 150.779 98.0846C150.712 98.2058 150.598 98.2978 150.454 98.3574C150.309 98.4169 150.132 98.4461 149.925 98.4461C149.82 98.4461 149.709 98.4386 149.588 98.4223C148.524 98.2816 147.468 97.5844 146.718 96.8223L146.79 96.753Z" fill="#33CF90"/>
<path fill-rule="evenodd" clip-rule="evenodd" d="M156.155 97.6558L156.105 97.7208C156.027 97.6591 155.874 97.5865 155.667 97.5118C154.94 97.2477 153.551 96.9402 152.01 96.5289C150.469 96.1164 148.774 95.6 147.422 94.9083C145.893 94.1245 144.28 93.1762 143.019 92.3913C142.389 91.9983 141.848 91.6465 141.45 91.3759C141.25 91.2405 141.086 91.1258 140.965 91.037C140.904 90.9916 140.853 90.9537 140.813 90.9212C140.774 90.8887 140.746 90.8649 140.724 90.8411C140.642 90.7491 140.571 90.7187 140.502 90.7177C140.459 90.7177 140.413 90.7317 140.362 90.761C140.273 90.8118 140.177 90.9136 140.087 91.0543C139.814 91.4755 139.601 92.2322 139.602 92.9304C139.602 93.2325 139.641 93.5237 139.728 93.7716C139.815 94.0217 139.949 94.2263 140.138 94.3659C140.246 94.446 140.481 94.642 140.82 94.9072C141.835 95.7029 143.773 97.1167 145.804 97.7825C146.588 98.0401 148.055 98.4223 149.508 98.8142C150.963 99.2082 152.403 99.6109 153.15 99.9195C154.825 100.609 155.935 101.278 156.644 101.775C156.998 102.023 157.253 102.229 157.426 102.371C157.512 102.443 157.578 102.498 157.625 102.534C157.648 102.552 157.666 102.565 157.678 102.572L157.687 102.577L157.671 102.616V102.575C157.684 102.575 157.687 102.577 157.687 102.577L157.671 102.616V102.575V102.642L157.642 102.581C157.653 102.576 157.664 102.575 157.671 102.575V102.642L157.642 102.581L157.672 102.644L157.608 102.618C157.611 102.607 157.624 102.59 157.642 102.581L157.672 102.644L157.608 102.618L157.651 102.636H157.604C157.604 102.635 157.603 102.629 157.608 102.618L157.651 102.636H157.604H157.608H157.604H157.608H157.604C157.604 102.635 157.602 102.624 157.598 102.61C157.354 101.68 157.206 100.625 157.003 99.717C156.902 99.2634 156.788 98.8466 156.642 98.5024C156.497 98.1571 156.322 97.8875 156.105 97.7208L156.155 97.6558L156.205 97.5909C156.455 97.7846 156.641 98.0791 156.793 98.4385C157.02 98.9776 157.169 99.664 157.308 100.39C157.447 101.116 157.575 101.88 157.756 102.567C157.763 102.591 157.767 102.611 157.767 102.636C157.767 102.651 157.766 102.671 157.75 102.697C157.742 102.709 157.728 102.722 157.713 102.729C157.698 102.736 157.683 102.738 157.671 102.738C157.651 102.738 157.637 102.733 157.625 102.729C157.602 102.719 157.584 102.707 157.562 102.692C157.483 102.636 157.359 102.525 157.161 102.367C156.573 101.895 155.354 101.005 153.088 100.07C152.36 99.7701 150.919 99.3652 149.466 98.9722C148.012 98.5803 146.547 98.1993 145.753 97.9384C144.376 97.4859 143.053 96.7021 142.019 95.993C141.503 95.639 141.06 95.3023 140.719 95.036C140.379 94.7697 140.14 94.5716 140.04 94.498C139.819 94.3334 139.669 94.0974 139.574 93.8257C139.479 93.554 139.438 93.2465 139.438 92.9304C139.439 92.3729 139.564 91.7916 139.753 91.3434C139.849 91.1182 139.959 90.9266 140.082 90.7869C140.144 90.7177 140.209 90.6603 140.279 90.6192C140.349 90.5791 140.424 90.5542 140.502 90.5542C140.627 90.5542 140.746 90.617 140.848 90.7328C140.855 90.7415 140.88 90.7653 140.917 90.7945C141.055 90.906 141.359 91.1215 141.779 91.3997C143.04 92.2387 145.353 93.6655 147.497 94.7621C149.02 95.5416 151.004 96.1034 152.701 96.5408C153.548 96.7595 154.325 96.9467 154.937 97.1156C155.243 97.2001 155.508 97.2802 155.722 97.3581C155.937 97.4361 156.099 97.5097 156.205 97.5909L156.155 97.6558Z" fill="#33CF90"/>
<path fill-rule="evenodd" clip-rule="evenodd" d="M142.387 94.1798C142.43 94.6756 143.022 95.2634 143.709 95.4951C144.395 95.7257 144.917 95.5113 144.874 95.0155C144.83 94.5208 144.238 93.9319 143.552 93.7013C142.865 93.4707 142.344 93.6851 142.387 94.1798ZM152.634 98.4657C152.773 98.9409 153.38 99.4638 153.987 99.6348C154.594 99.8059 154.974 99.5601 154.834 99.086C154.694 98.6107 154.088 98.0878 153.48 97.9168C152.873 97.7458 152.493 97.9915 152.634 98.4657ZM156.573 98.2026C155.446 97.8746 152.944 97.2824 152.705 97.0302C152.466 96.7779 152.374 96.5398 152.374 96.5398L155.936 97.5152L156.372 97.8562L156.573 98.2026ZM143.551 96.7942C143.456 96.4835 143.433 96.1966 143.224 96.0407C143.014 95.8848 139.567 93.2466 139.61 93.4675C139.654 93.6883 139.838 94.2675 139.838 94.2675L140.856 95.0394L142.555 96.2518L143.551 96.7942Z" fill="#C6C2F9"/>
<path fill-rule="evenodd" clip-rule="evenodd" d="M163.254 110.271C165.958 109.897 178.145 107.09 178.84 106.543C179.721 105.848 182.601 113.559 181.493 114.351C180.385 115.144 166.532 118.131 165.692 117.545C164.254 116.541 162.01 110.443 163.254 110.271Z" fill="#9D95F8"/>
<path fill-rule="evenodd" clip-rule="evenodd" d="M164.326 110.951L164.303 110.862C165.43 110.57 168.711 109.876 171.83 109.184C173.389 108.839 174.907 108.494 176.092 108.202C176.684 108.056 177.193 107.923 177.581 107.809C177.776 107.753 177.94 107.701 178.068 107.656C178.196 107.61 178.29 107.57 178.337 107.541C178.384 107.514 178.437 107.499 178.489 107.499C178.556 107.499 178.619 107.52 178.68 107.554C178.794 107.617 178.903 107.725 179.016 107.868C179.213 108.119 179.418 108.48 179.619 108.906C179.919 109.545 180.206 110.328 180.42 111.089C180.633 111.85 180.772 112.587 180.772 113.139C180.772 113.339 180.754 113.517 180.712 113.664C180.669 113.811 180.601 113.933 180.493 114.01C180.427 114.058 180.331 114.103 180.202 114.156C179.721 114.351 178.781 114.619 177.596 114.914C175.819 115.358 173.5 115.86 171.402 116.252C170.353 116.448 169.36 116.617 168.517 116.736C167.674 116.855 166.984 116.927 166.533 116.927C166.403 116.927 166.293 116.921 166.203 116.907C166.112 116.894 166.041 116.876 165.983 116.836C165.72 116.648 165.473 116.319 165.24 115.907C164.893 115.29 164.583 114.485 164.358 113.703C164.134 112.919 163.995 112.161 163.995 111.626C163.995 111.432 164.013 111.265 164.057 111.134C164.079 111.068 164.108 111.009 164.149 110.962C164.189 110.915 164.242 110.878 164.303 110.862L164.326 110.951L164.349 111.039C164.327 111.045 164.308 111.056 164.288 111.08C164.257 111.115 164.227 111.182 164.207 111.277C164.187 111.37 164.177 111.489 164.177 111.626C164.176 112.299 164.418 113.407 164.781 114.424C164.963 114.931 165.174 115.419 165.399 115.818C165.624 116.218 165.864 116.529 166.088 116.687C166.101 116.697 166.152 116.717 166.229 116.727C166.306 116.738 166.409 116.744 166.533 116.744C167.149 116.745 168.277 116.603 169.628 116.38C171.655 116.046 174.19 115.53 176.298 115.04C177.352 114.794 178.299 114.555 179.023 114.348C179.385 114.245 179.69 114.15 179.924 114.066C180.041 114.024 180.14 113.986 180.219 113.952C180.297 113.917 180.356 113.886 180.387 113.862C180.448 113.82 180.501 113.737 180.536 113.613C180.572 113.489 180.59 113.328 180.59 113.139C180.59 112.714 180.501 112.154 180.354 111.556C180.134 110.66 179.786 109.678 179.426 108.924C179.246 108.548 179.062 108.228 178.894 108.007C178.81 107.898 178.729 107.812 178.659 107.757C178.588 107.702 178.529 107.68 178.489 107.681C178.468 107.681 178.451 107.686 178.431 107.698C178.362 107.739 178.263 107.78 178.129 107.828C177.63 108.004 176.655 108.257 175.435 108.549C173.605 108.986 171.227 109.506 169.109 109.968C166.992 110.43 165.133 110.835 164.349 111.039L164.326 110.951Z" fill="#33CF90"/>
<path fill-rule="evenodd" clip-rule="evenodd" d="M172.401 114.378C173.342 114.378 174.221 113.789 174.446 113.008C174.572 112.569 174.458 112.033 174.139 111.576C173.773 111.05 173.22 110.723 172.621 110.679C172.506 110.67 172.393 110.666 172.283 110.666C171.278 110.666 170.72 111.015 170.429 111.308C170.133 111.605 169.972 111.991 169.974 112.395C169.979 113.353 170.834 114.157 172.054 114.351C172.167 114.368 172.284 114.378 172.401 114.378Z" fill="#4F44D0"/>
<path fill-rule="evenodd" clip-rule="evenodd" d="M172.283 110.599C172.394 110.599 172.508 110.603 172.626 110.612C173.909 110.707 174.795 112.039 174.51 113.027C174.27 113.863 173.351 114.445 172.401 114.445C172.281 114.445 172.162 114.436 172.043 114.417C170.765 114.214 169.912 113.377 169.907 112.395C169.902 111.477 170.697 110.599 172.283 110.599ZM172.283 110.733C171.301 110.733 170.759 111.071 170.476 111.355C170.194 111.639 170.039 112.008 170.041 112.394C170.046 113.318 170.878 114.096 172.064 114.284C172.174 114.301 172.287 114.311 172.401 114.311C173.313 114.311 174.164 113.743 174.382 112.989C174.502 112.57 174.391 112.056 174.084 111.614C173.73 111.106 173.195 110.788 172.616 110.746C172.503 110.738 172.391 110.733 172.283 110.733ZM177.583 112.235C177.331 112.805 176.688 112.941 176.148 112.536C175.608 112.132 175.374 111.341 175.627 110.769C175.879 110.198 176.521 110.063 177.062 110.468C177.602 110.873 177.836 111.663 177.583 112.235ZM168.655 114.154C168.332 114.589 167.708 114.607 167.26 114.191C166.813 113.776 166.712 113.086 167.035 112.65C167.358 112.214 167.983 112.198 168.43 112.613C168.878 113.028 168.978 113.718 168.655 114.154ZM164.021 111.775C164.021 111.775 167.632 111.215 167.995 110.862C168.358 110.51 168.292 110.122 168.292 110.122L164.15 110.996L164.021 111.775ZM175.882 115.312C176.091 114.717 176.027 114.375 176.403 114.237C176.779 114.101 180.606 112.876 180.619 113.068C180.631 113.261 180.681 113.811 180.44 113.937C180.2 114.062 176.136 115.251 176.136 115.251L175.882 115.312Z" fill="#C6C2F9"/>
<path fill-rule="evenodd" clip-rule="evenodd" d="M115.794 75.6613C118.739 75.2174 131.88 73.2049 132.997 72.4417C134.114 71.6785 133.051 77.952 131.459 78.569C129.866 79.1861 114.256 81.8773 113.714 80.9572C113.173 80.037 114.42 75.8691 115.794 75.6613Z" fill="#9D95F8"/>
<path fill-rule="evenodd" clip-rule="evenodd" d="M116.46 75.9786L116.448 75.8996C117.726 75.7069 121.404 75.197 124.884 74.6536C126.624 74.3818 128.314 74.1004 129.628 73.8471C130.285 73.7204 130.849 73.6002 131.277 73.4909C131.49 73.4368 131.67 73.3859 131.811 73.3382C131.949 73.2906 132.051 73.2462 132.098 73.2127C132.163 73.1683 132.227 73.1412 132.293 73.1401C132.344 73.1401 132.395 73.1596 132.431 73.1932C132.486 73.243 132.515 73.3123 132.535 73.3945C132.554 73.4768 132.562 73.5743 132.562 73.6868C132.562 73.9954 132.499 74.4143 132.389 74.8809C132.224 75.5813 131.952 76.3846 131.622 77.0558C131.457 77.3914 131.277 77.6945 131.085 77.9348C130.895 78.1752 130.693 78.3549 130.476 78.4404C130.32 78.4999 130.029 78.5768 129.624 78.6688C128.211 78.9882 125.433 79.4786 122.644 79.8888C119.856 80.3002 117.062 80.6315 115.608 80.6315C115.323 80.6315 115.089 80.6196 114.913 80.5903C114.824 80.5763 114.75 80.5579 114.69 80.5341C114.629 80.5081 114.579 80.4778 114.546 80.4247C114.459 80.2753 114.427 80.0696 114.426 79.8239C114.427 79.1798 114.667 78.252 115.035 77.4552C115.219 77.0579 115.435 76.6931 115.672 76.4149C115.908 76.1378 116.167 75.9429 116.448 75.8996L116.472 76.0577C116.252 76.0901 116.017 76.2568 115.793 76.5199C115.458 76.9118 115.153 77.5105 114.936 78.1243C114.718 78.7381 114.586 79.3703 114.586 79.8239C114.586 80.0545 114.622 80.2374 114.684 80.3435C114.687 80.3479 114.706 80.3673 114.75 80.3847C114.815 80.4117 114.927 80.4345 115.072 80.4496C115.217 80.4637 115.398 80.4713 115.608 80.4713C117.247 80.4713 120.663 80.0393 123.81 79.55C125.384 79.3053 126.892 79.0466 128.08 78.8204C128.673 78.7078 129.187 78.6028 129.588 78.5118C129.989 78.4209 130.28 78.344 130.418 78.2899C130.651 78.2011 130.904 77.9446 131.138 77.5862C131.492 77.0493 131.809 76.2915 132.037 75.5597C132.264 74.8279 132.402 74.1177 132.402 73.6868C132.402 73.5483 132.386 73.4389 132.362 73.374C132.35 73.3426 132.336 73.322 132.325 73.3134C132.313 73.3036 132.307 73.3014 132.293 73.3014C132.275 73.3004 132.239 73.3112 132.189 73.3447C132.116 73.3945 132.009 73.44 131.861 73.4898C131.316 73.6749 130.236 73.9033 128.88 74.1502C124.813 74.8896 118.267 75.787 116.472 76.0577L116.46 75.9786Z" fill="#33CF90"/>
<path fill-rule="evenodd" clip-rule="evenodd" d="M122.341 78.6612C123.317 78.6612 124.387 78.2238 125.278 77.4595C125.691 77.1066 125.868 76.7288 125.765 76.4214C125.663 76.1139 125.29 75.9169 124.741 75.8812C124.616 75.8725 124.489 75.8682 124.364 75.8682C122.686 75.8682 121.535 76.5664 121.06 77.164C120.814 77.4725 120.742 77.7724 120.854 78.0311C120.999 78.3689 121.44 78.5941 122.063 78.6493C122.154 78.6579 122.247 78.6612 122.341 78.6612Z" fill="#4F44D0"/>
<path fill-rule="evenodd" clip-rule="evenodd" d="M124.364 75.8085C124.489 75.8085 124.617 75.8128 124.746 75.8215C125.953 75.8995 126.219 76.733 125.317 77.5049C124.527 78.1826 123.437 78.7206 122.341 78.7206C122.246 78.7206 122.152 78.7174 122.058 78.7087C120.869 78.6037 120.401 77.8957 121.013 77.1271C121.578 76.4158 122.83 75.8085 124.364 75.8085ZM124.364 75.9276C122.706 75.9276 121.573 76.6139 121.106 77.2018C120.874 77.4919 120.806 77.7701 120.908 78.0083C121.044 78.3255 121.468 78.5377 122.067 78.5896C122.157 78.5983 122.249 78.6015 122.341 78.6015C123.303 78.6015 124.359 78.1685 125.24 77.414C125.632 77.0784 125.803 76.7233 125.709 76.4407C125.615 76.156 125.26 75.9741 124.738 75.9406C124.614 75.9319 124.488 75.9276 124.364 75.9276ZM129.41 76.4212C129.248 76.8954 128.569 77.2927 127.894 77.3079C127.218 77.3219 126.803 76.9495 126.965 76.4754C127.127 76.0001 127.806 75.6028 128.482 75.5888C129.156 75.5736 129.573 75.946 129.41 76.4212ZM119.412 77.9444C119.168 78.3688 118.493 78.6979 117.903 78.6784C117.314 78.6589 117.033 78.2984 117.277 77.8741C117.522 77.4497 118.197 77.1217 118.786 77.1412C119.376 77.1606 119.657 77.5201 119.412 77.9444ZM115.653 76.5641C115.653 76.5641 119.507 76.1972 120.086 75.9222C120.667 75.6472 120.845 75.343 120.845 75.343L116.205 76.0153L115.653 76.5641ZM125.082 79.4286C125.662 78.9631 125.813 78.6946 126.271 78.5885C126.728 78.4825 131.277 77.5341 131.169 77.6857C131.059 77.8372 130.763 78.267 130.446 78.3645C130.13 78.4619 125.371 79.381 125.371 79.381L125.082 79.4286Z" fill="#C6C2F9"/>
<path fill-rule="evenodd" clip-rule="evenodd" d="M182.194 134.844C183.232 133.149 184.04 130.08 185.718 129.361C186.873 128.867 189.139 128.93 191.525 128.993C193.527 129.046 195.612 129.098 197.195 128.823C202.368 127.921 205.023 126.268 205.514 126.541C206.005 126.815 206.399 131.274 204.755 131.844C202.812 132.52 199.224 134.236 195.796 133.93C192.776 133.662 190.235 133.412 188.478 133.671C186.431 133.974 181.816 135.462 182.194 134.844Z" fill="#9D95F8"/>
<path fill-rule="evenodd" clip-rule="evenodd" d="M193.604 132.493C194.526 132.493 195.516 132.173 196.313 131.746C197.338 131.196 197.295 130.497 196.194 130.328C195.882 130.279 195.573 130.257 195.273 130.257C194.076 130.257 193.015 130.607 192.411 131.065C191.656 131.637 191.917 132.254 192.994 132.442C193.192 132.477 193.396 132.493 193.604 132.493Z" fill="#80CEB2"/>
<path fill-rule="evenodd" clip-rule="evenodd" d="M196.313 131.746L196.363 131.838C195.553 132.272 194.55 132.597 193.604 132.597C193.391 132.597 193.181 132.581 192.976 132.545C192.635 132.485 192.367 132.384 192.177 132.246C192.082 132.177 192.007 132.098 191.955 132.009C191.902 131.92 191.874 131.822 191.875 131.721C191.875 131.593 191.918 131.464 191.998 131.341C192.078 131.218 192.195 131.097 192.348 130.982C192.978 130.505 194.055 130.153 195.273 130.152C195.578 130.152 195.892 130.175 196.21 130.224C196.506 130.269 196.736 130.353 196.899 130.47C196.98 130.528 197.044 130.596 197.089 130.674C197.133 130.751 197.157 130.837 197.157 130.924C197.156 131.088 197.08 131.25 196.946 131.402C196.812 131.555 196.617 131.701 196.363 131.838L196.313 131.746L196.264 131.654C196.502 131.526 196.677 131.392 196.789 131.264C196.901 131.136 196.948 131.019 196.947 130.924C196.947 130.872 196.935 130.826 196.908 130.778C196.867 130.708 196.791 130.636 196.669 130.575C196.548 130.513 196.384 130.462 196.178 130.431C195.871 130.384 195.568 130.362 195.273 130.362C194.097 130.361 193.052 130.709 192.474 131.148C192.336 131.253 192.236 131.357 192.173 131.455C192.11 131.552 192.084 131.641 192.084 131.721C192.084 131.784 192.1 131.843 192.135 131.903C192.187 131.992 192.284 132.08 192.431 132.157C192.577 132.233 192.772 132.297 193.012 132.339C193.203 132.373 193.401 132.388 193.604 132.388C194.502 132.388 195.48 132.075 196.264 131.654L196.313 131.746Z" fill="#33CF90"/>
<path fill-rule="evenodd" clip-rule="evenodd" d="M186.618 129.711L186.588 129.629C186.683 129.595 186.804 129.573 186.954 129.559C187.103 129.546 187.28 129.54 187.482 129.54C188.703 129.541 190.84 129.751 192.995 129.751C194.112 129.751 195.233 129.694 196.228 129.523C198.005 129.219 199.921 128.773 201.43 128.381C202.184 128.185 202.837 128.002 203.32 127.856C203.562 127.784 203.761 127.721 203.908 127.67C203.982 127.645 204.042 127.622 204.088 127.604C204.134 127.587 204.167 127.57 204.177 127.564C204.273 127.505 204.368 127.475 204.461 127.475C204.575 127.475 204.679 127.525 204.76 127.604C204.881 127.723 204.963 127.904 205.019 128.125C205.074 128.345 205.102 128.606 205.102 128.886C205.102 129.413 205.004 130.006 204.795 130.512C204.691 130.765 204.559 130.996 204.395 131.185C204.231 131.374 204.035 131.522 203.805 131.602C203.682 131.644 203.379 131.769 202.953 131.929C201.675 132.412 199.272 133.23 196.982 133.264C196.919 133.264 196.853 133.265 196.782 133.265C195.254 133.265 192.1 133.063 190.106 133.063C189.642 133.063 189.242 133.074 188.942 133.1C187.095 133.264 185.798 133.574 184.94 133.843C184.511 133.977 184.191 134.101 183.967 134.191C183.855 134.237 183.766 134.275 183.698 134.301C183.664 134.314 183.635 134.324 183.609 134.332C183.583 134.34 183.562 134.346 183.533 134.346C183.516 134.346 183.493 134.345 183.466 134.326C183.453 134.316 183.441 134.302 183.435 134.287C183.428 134.271 183.427 134.257 183.427 134.245C183.427 134.218 183.434 134.203 183.44 134.187C183.447 134.172 183.455 134.158 183.465 134.143C183.996 133.297 184.475 132.286 184.968 131.429C185.215 131 185.466 130.609 185.731 130.296C185.996 129.982 186.276 129.745 186.588 129.629L186.618 129.711L186.647 129.791C186.378 129.89 186.117 130.107 185.862 130.407C185.481 130.858 185.118 131.494 184.752 132.177C184.385 132.861 184.015 133.591 183.611 134.235C183.604 134.245 183.599 134.254 183.598 134.257L183.597 134.26L183.579 134.253L183.598 134.257L183.597 134.26L183.579 134.253L183.598 134.257L183.546 134.245H183.599L183.598 134.257L183.546 134.245H183.599H183.529L183.593 134.217C183.598 134.229 183.599 134.239 183.599 134.245H183.529L183.593 134.217L183.526 134.247L183.555 134.179C183.568 134.185 183.586 134.2 183.593 134.217L183.526 134.247L183.555 134.179L183.533 134.23V134.174C183.535 134.174 183.542 134.174 183.555 134.179L183.533 134.23V134.174V134.192L183.532 134.174H183.533V134.192L183.532 134.174L183.541 134.173C183.565 134.168 183.619 134.147 183.694 134.117C183.957 134.011 184.486 133.782 185.337 133.546C186.188 133.31 187.363 133.067 188.926 132.929C189.236 132.902 189.64 132.891 190.106 132.891C192.109 132.891 195.265 133.093 196.782 133.093C196.852 133.093 196.918 133.091 196.98 133.091C198.48 133.07 200.044 132.703 201.295 132.317C201.921 132.125 202.469 131.928 202.893 131.767C203.317 131.607 203.614 131.485 203.749 131.438C203.945 131.37 204.116 131.244 204.265 131.072C204.487 130.816 204.655 130.46 204.766 130.071C204.876 129.684 204.93 129.265 204.93 128.886C204.93 128.528 204.881 128.205 204.793 127.981C204.75 127.869 204.696 127.781 204.64 127.727C204.582 127.672 204.527 127.648 204.461 127.647C204.407 127.647 204.343 127.666 204.266 127.711C204.238 127.728 204.202 127.745 204.152 127.764C203.966 127.838 203.592 127.958 203.079 128.107C201.542 128.556 198.766 129.263 196.257 129.693C195.247 129.866 194.118 129.923 192.995 129.923C190.831 129.923 188.686 129.712 187.482 129.713C187.284 129.713 187.111 129.718 186.97 129.731C186.828 129.744 186.718 129.765 186.647 129.791L186.618 129.711Z" fill="#33CF90"/>
<path fill-rule="evenodd" clip-rule="evenodd" d="M201.547 130.544C201.347 131.028 200.568 131.434 199.805 131.45C199.043 131.466 198.586 131.086 198.785 130.602C198.984 130.119 199.764 129.714 200.527 129.697C201.289 129.681 201.746 130.06 201.547 130.544ZM189.903 131.631C189.613 132.064 188.839 132.4 188.175 132.38C187.51 132.362 187.206 131.995 187.496 131.562C187.786 131.129 188.56 130.793 189.224 130.813C189.889 130.832 190.192 131.198 189.903 131.631ZM186.026 130.128C187.262 130.153 189.962 130.344 190.282 130.165C190.601 129.988 190.768 129.778 190.768 129.778L186.882 129.638L186.337 129.843L186.026 130.128ZM199.555 132.806C199.748 132.523 199.861 132.242 200.121 132.151C200.38 132.061 204.674 130.492 204.561 130.701C204.448 130.91 204.081 131.433 204.081 131.433L202.814 131.889L200.726 132.574L199.555 132.806Z" fill="#33CF90"/>
<path fill-rule="evenodd" clip-rule="evenodd" d="M157.714 84.6369C156.526 84.822 154.441 84.0729 154.513 83.6431C154.583 83.2144 157.972 79.4709 159.683 77.3718C160.418 78.0073 161.395 78.4154 162.425 78.5172C162.954 78.5691 163.53 78.5529 163.963 78.8203C163.55 78.8517 163.253 79.1938 163.015 79.5045C162.28 80.4626 161.545 81.4195 160.81 82.3776C160.37 82.9514 159.855 83.471 159.313 83.9722C158.937 84.3208 158.38 84.5319 157.714 84.6369Z" fill="#9D95F8"/>
<path fill-rule="evenodd" clip-rule="evenodd" d="M163.444 79.053C162.254 80.6411 161.039 82.1534 159.646 83.6052C159.682 83.2003 159.841 83.0087 159.707 82.6005C159.517 82.0203 159.034 81.9348 159.224 81.5916C159.513 81.0676 160.905 80.6682 161.313 80.5621C161.981 80.3878 161.525 80.6638 163.444 79.053Z" fill="#1E6E56"/>
<path fill-rule="evenodd" clip-rule="evenodd" d="M159.222 81.5786C160.351 80.0132 161.589 78.6319 162.773 77.1585C163.307 76.4938 163.824 75.5249 164.617 75.1211C165.619 74.6112 166.903 74.9187 167.966 75.2456C169.028 75.5725 169.95 76.1679 170.842 76.7698C171.735 77.3718 173.603 77.8059 173.664 78.3807C173.724 78.9566 169.548 84.6921 168.657 84.7852C167.765 84.8793 165.824 82.961 164.191 82.2747C162.559 81.5873 160.832 80.9236 159.222 81.5786Z" fill="#9D95F8"/>
<path fill-rule="evenodd" clip-rule="evenodd" d="M161.749 78.4046C162.092 77.9922 162.435 77.5797 162.773 77.1586C162.914 76.9832 163.053 76.7873 163.197 76.5859C162.905 76.9518 162.265 77.7432 161.732 78.4014C161.738 78.4025 161.743 78.4036 161.749 78.4046Z" fill="#F0E2CE"/>
<path fill-rule="evenodd" clip-rule="evenodd" d="M160.901 79.4266C161.182 79.0845 161.466 78.7445 161.749 78.4046C161.743 78.4035 161.738 78.4024 161.732 78.4014C161.325 78.9037 160.98 79.3291 160.901 79.4266Z" fill="#61C29F"/>
<path fill-rule="evenodd" clip-rule="evenodd" d="M162.03 79.7016C162.267 79.7016 162.513 79.6767 162.762 79.6301H162.762C162.825 79.6193 162.886 79.6063 162.948 79.5922C162.984 79.5847 163.019 79.576 163.055 79.5673H163.056C163.484 79.4623 163.915 79.2999 164.323 79.1007C165.573 78.4913 165.884 77.4109 164.922 76.9031C164.479 76.6693 163.765 76.3564 163.468 76.3564C163.409 76.3564 163.367 76.3694 163.346 76.3965C163.325 76.4246 163.273 76.4907 163.197 76.5859C163.053 76.7873 162.914 76.9832 162.773 77.1586C162.435 77.5797 162.092 77.9922 161.749 78.4047C161.466 78.7446 161.182 79.0845 160.901 79.4266C160.889 79.4407 160.884 79.4472 160.884 79.4472C161.22 79.6236 161.612 79.7016 162.03 79.7016Z" fill="#4F44D0"/>
<path fill-rule="evenodd" clip-rule="evenodd" d="M159.873 82.9762C159.872 82.9773 159.615 83.1894 159.26 83.4211C158.905 83.6517 158.454 83.9018 158.051 83.9776C157.965 83.9927 157.864 83.9992 157.753 83.9992C157.415 83.9992 156.977 83.9375 156.578 83.852C156.379 83.8087 156.19 83.76 156.028 83.7102C155.866 83.6593 155.733 83.6084 155.641 83.5564C155.618 83.5434 155.599 83.5218 155.59 83.4991C155.58 83.4763 155.577 83.4547 155.577 83.4341C155.578 83.3767 155.597 83.3183 155.627 83.2479C155.683 83.1147 155.785 82.9415 155.92 82.7337C156.395 82.0073 157.292 80.8717 158.11 79.9136C158.52 79.4351 158.909 79.0021 159.216 78.686C159.37 78.529 159.503 78.4002 159.609 78.3103C159.662 78.2649 159.708 78.2291 159.749 78.2032C159.77 78.1902 159.789 78.1793 159.809 78.1707C159.829 78.1631 159.848 78.1555 159.875 78.1555C159.89 78.1555 159.908 78.1588 159.925 78.1685L159.925 78.1674C160.129 78.2746 160.485 78.4478 160.788 78.594C160.94 78.6665 161.079 78.7325 161.18 78.7802C161.281 78.8289 161.344 78.8581 161.344 78.8581L161.278 78.9988C161.277 78.9988 160.269 78.5247 159.852 78.306L159.852 78.3049L159.875 78.2627V78.3114C159.87 78.3114 159.862 78.3103 159.852 78.3049L159.875 78.2627V78.3114V78.2887L159.878 78.3114H159.875V78.2887L159.878 78.3114H159.877C159.867 78.3136 159.827 78.3352 159.778 78.3742C159.684 78.4456 159.547 78.5723 159.383 78.739C158.806 79.3225 157.888 80.3899 157.117 81.3686C156.731 81.859 156.382 82.3266 156.13 82.699C156.004 82.8863 155.903 83.0487 155.834 83.1775C155.8 83.2425 155.773 83.2977 155.756 83.3421C155.739 83.3865 155.733 83.4211 155.733 83.4341L155.733 83.4384L155.726 83.4395L155.733 83.4373L155.733 83.4384L155.726 83.4395L155.733 83.4373L155.702 83.4482L155.718 83.4211L155.733 83.4373L155.702 83.4482L155.718 83.4211C155.792 83.4623 155.919 83.5131 156.075 83.5608C156.542 83.7069 157.274 83.8444 157.753 83.8433C157.858 83.8433 157.95 83.8368 158.023 83.8238C158.386 83.7578 158.829 83.5164 159.175 83.2901C159.348 83.1765 159.499 83.0682 159.605 82.9881C159.659 82.947 159.701 82.9145 159.73 82.8917C159.744 82.8798 159.756 82.8712 159.763 82.8647L159.774 82.856L159.873 82.9762Z" fill="#33CF90"/>
<path fill-rule="evenodd" clip-rule="evenodd" d="M160.944 79.3312C161.257 79.4958 161.627 79.5705 162.03 79.5705C162.258 79.5705 162.496 79.5466 162.738 79.5012L162.743 79.5001H162.749L162.762 79.63L162.739 79.5012C162.799 79.4903 162.859 79.4784 162.919 79.4644H162.921C162.955 79.4568 162.989 79.4481 163.025 79.4395L163.034 79.4384L163.043 79.4373L163.056 79.5672L163.025 79.4405C163.442 79.3377 163.865 79.1786 164.266 78.9826C164.627 78.8072 164.903 78.5907 165.086 78.3688C165.268 78.1458 165.356 77.9195 165.356 77.7171C165.356 77.5829 165.319 77.4573 165.24 77.3393C165.161 77.2224 165.037 77.1119 164.861 77.0188C164.615 76.8879 164.27 76.7926 163.967 76.7168C163.814 76.6789 163.672 76.6464 163.554 76.614C163.495 76.5977 163.442 76.5815 163.396 76.5653C163.349 76.5468 163.309 76.5306 163.269 76.5025L163.423 76.2903C163.426 76.2935 163.45 76.3065 163.485 76.3195C163.548 76.3422 163.645 76.3682 163.76 76.3964C163.932 76.4397 164.145 76.4895 164.361 76.5512C164.577 76.614 164.796 76.6887 164.983 76.7872C165.19 76.8965 165.35 77.034 165.457 77.1931C165.564 77.3523 165.618 77.5331 165.618 77.7171C165.617 77.9953 165.499 78.2779 165.288 78.5344C165.076 78.7921 164.77 79.0281 164.381 79.2186C163.964 79.4211 163.526 79.5867 163.087 79.6939L163.078 79.696L163.069 79.6971L163.055 79.5672L163.085 79.695C163.05 79.7036 163.013 79.7112 162.975 79.7198L162.948 79.5921L162.978 79.7198C162.914 79.7339 162.85 79.7469 162.786 79.7588L162.781 79.7599H162.775L162.762 79.63L162.785 79.7588C162.53 79.8065 162.276 79.8324 162.03 79.8324C161.596 79.8324 161.182 79.7523 160.823 79.564L160.944 79.3312ZM167.915 79.761C167.475 80.2698 166.652 80.509 166.077 80.2947C165.501 80.0814 165.391 79.4947 165.831 78.9859C166.271 78.4771 167.094 78.2378 167.669 78.4522C168.245 78.6665 168.355 79.2522 167.915 79.761Z" fill="#C6C2F9"/>
<path fill-rule="evenodd" clip-rule="evenodd" d="M163.952 75.5465C163.954 75.5465 164.287 75.5107 164.794 75.5107C165.538 75.5118 166.657 75.5854 167.668 75.9557C168.412 76.2285 169.561 76.7763 170.527 77.3067C171.011 77.5719 171.448 77.8328 171.767 78.0537C171.926 78.1641 172.056 78.2637 172.149 78.3525C172.196 78.3969 172.233 78.438 172.261 78.4791C172.289 78.5203 172.309 78.5603 172.31 78.6112C172.311 78.6448 172.297 78.6827 172.272 78.7076C172.26 78.7205 172.232 78.7552 172.196 78.8017C172.059 78.9814 171.789 79.3625 171.452 79.8313C170.945 80.5338 170.284 81.4356 169.68 82.1631C169.377 82.5268 169.09 82.8473 168.84 83.0789C168.716 83.1948 168.6 83.289 168.496 83.3561C168.391 83.4221 168.296 83.4643 168.202 83.4654C168.17 83.4654 168.138 83.46 168.108 83.447C167.935 83.3734 167.656 83.2175 167.298 83.014C166.226 82.4045 164.454 81.3696 162.988 80.9311C162.673 80.837 162.242 80.8023 161.799 80.8023C161.299 80.8023 160.783 80.8456 160.393 80.8889C160.198 80.9106 160.034 80.9322 159.919 80.9485C159.862 80.9571 159.817 80.9636 159.786 80.9679C159.755 80.9734 159.739 80.9755 159.739 80.9755L159.714 80.8218C159.716 80.8218 160.781 80.6464 161.799 80.6464C162.25 80.6464 162.691 80.68 163.033 80.7828C164.03 81.0805 165.15 81.6424 166.105 82.1642C166.582 82.424 167.018 82.6752 167.375 82.8787C167.732 83.0811 168.012 83.237 168.169 83.3041C168.177 83.3074 168.188 83.3095 168.202 83.3095C168.232 83.3095 168.279 83.2976 168.337 83.2684C168.445 83.2132 168.589 83.1017 168.75 82.9501C169.318 82.4175 170.116 81.3891 170.795 80.4667C171.135 80.0055 171.446 79.5714 171.687 79.2369C171.807 79.0691 171.909 78.9273 171.989 78.8191C172.029 78.7638 172.063 78.7184 172.091 78.6827C172.12 78.6458 172.141 78.6199 172.159 78.6004L172.17 78.6112H172.154L172.159 78.6004L172.17 78.6112H172.154L172.151 78.5993C172.145 78.5841 172.127 78.5571 172.099 78.5246C172.045 78.4629 171.953 78.3828 171.833 78.2929C171.411 77.9768 170.646 77.5341 169.843 77.1183C169.039 76.7037 168.195 76.3151 167.614 76.1018C166.632 75.7413 165.527 75.6666 164.794 75.6666C164.544 75.6666 164.337 75.6753 164.193 75.6839C164.121 75.6883 164.065 75.6926 164.026 75.6959C163.988 75.6991 163.969 75.7013 163.968 75.7013L163.952 75.5465Z" fill="#33CF90"/>
<path fill-rule="evenodd" clip-rule="evenodd" d="M178.224 93.5281C180.021 92.0363 182.535 88.9813 184.147 88.7605C186.185 88.4812 189.399 91.9833 192.372 91.9854C194.76 91.9865 199.943 90.8715 200.106 91.3305C200.268 91.7884 197.125 97.6916 195.631 97.7653C193.866 97.8519 190.306 98.5187 188.148 97.0508C186.246 95.7582 184.661 94.6442 183.288 94.3422C181.69 93.9904 177.57 94.0705 178.224 93.5281Z" fill="#9D95F8"/>
<path fill-rule="evenodd" clip-rule="evenodd" d="M188.75 94.9364C189.105 94.9364 189.496 94.8877 189.883 94.7935C190.457 94.655 190.866 94.3475 190.95 93.9924C191.006 93.7575 190.913 93.5291 190.68 93.3321C190.175 92.9045 189.509 92.6685 188.806 92.6685C188.409 92.6685 188.02 92.7442 187.679 92.8861C187.238 93.0701 186.952 93.3624 186.896 93.6882C186.85 93.9567 186.965 94.2306 187.219 94.4612C187.562 94.7719 188.092 94.9364 188.75 94.9364Z" fill="#4F44D0"/>
<path fill-rule="evenodd" clip-rule="evenodd" d="M188.806 92.6035C189.464 92.6035 190.16 92.806 190.722 93.2823C191.371 93.8301 190.953 94.6019 189.898 94.8574C189.518 94.9494 189.125 95.0025 188.75 95.0025C188.131 95.0025 187.56 94.8585 187.175 94.5099C186.555 93.9481 186.77 93.1946 187.654 92.8254C187.995 92.6836 188.393 92.6035 188.806 92.6035ZM188.806 92.7345C188.418 92.7345 188.037 92.807 187.704 92.9467C187.284 93.1221 187.013 93.396 186.961 93.6991C186.918 93.9448 187.026 94.1981 187.263 94.4125C187.594 94.7123 188.109 94.8715 188.75 94.8715C189.1 94.8715 189.486 94.8228 189.867 94.7308C190.418 94.5976 190.808 94.3086 190.887 93.9784C190.937 93.7673 190.85 93.5616 190.638 93.3819C190.144 92.964 189.493 92.7345 188.806 92.7345Z" fill="#33CF90"/>
<path fill-rule="evenodd" clip-rule="evenodd" d="M184.541 89.4371L184.535 89.3537C184.547 89.3526 184.56 89.3516 184.573 89.3516C184.704 89.3526 184.855 89.397 185.031 89.4696C185.34 89.5984 185.726 89.8192 186.173 90.0866C187.514 90.8877 189.408 92.1034 191.231 92.4369C191.878 92.556 192.597 92.6025 193.324 92.6025C194.534 92.6025 195.766 92.4726 196.725 92.333C197.205 92.2637 197.617 92.1911 197.925 92.1316C198.078 92.1024 198.206 92.0753 198.303 92.0536C198.399 92.0331 198.466 92.0158 198.494 92.0082C198.539 91.9941 198.582 91.9865 198.623 91.9865C198.661 91.9865 198.698 91.993 198.732 92.0093C198.783 92.032 198.821 92.0764 198.842 92.1251C198.863 92.1749 198.871 92.2301 198.871 92.2896C198.87 92.426 198.83 92.596 198.76 92.7963C198.515 93.4945 197.9 94.563 197.209 95.4735C196.863 95.9271 196.499 96.3417 196.151 96.647C195.977 96.8007 195.807 96.9274 195.643 97.0183C195.48 97.1092 195.322 97.1655 195.171 97.1731C195.06 97.1785 194.769 97.2132 194.37 97.2456C193.97 97.2792 193.458 97.3106 192.895 97.3106C191.784 97.3095 190.472 97.1882 189.408 96.7054C188.791 96.424 187.748 95.8123 186.7 95.2191C186.177 94.9235 185.653 94.6323 185.183 94.3909C184.714 94.1506 184.297 93.959 183.995 93.8626C182.668 93.4415 181.609 93.3408 180.854 93.3408C180.502 93.3408 180.217 93.3625 180.001 93.3841C179.894 93.396 179.803 93.4069 179.73 93.4155C179.657 93.4231 179.602 93.4296 179.558 93.4296C179.537 93.4296 179.519 93.4285 179.495 93.4209C179.483 93.4177 179.467 93.4112 179.451 93.3949C179.435 93.3798 179.423 93.3516 179.424 93.3289C179.424 93.304 179.432 93.2878 179.438 93.2759C179.449 93.2585 179.459 93.2466 179.471 93.2347C179.483 93.2228 179.497 93.2109 179.513 93.1979C180.42 92.4574 181.395 91.521 182.28 90.7578C182.722 90.3768 183.142 90.039 183.522 89.7889C183.902 89.5399 184.24 89.3765 184.535 89.3537L184.548 89.5215C184.307 89.5378 183.983 89.6861 183.614 89.9297C183.06 90.2934 182.403 90.8639 181.714 91.482C181.026 92.1013 180.305 92.7681 179.619 93.3289C179.602 93.343 179.59 93.3538 179.585 93.3592L179.583 93.3614L179.558 93.3419L179.587 93.3549L179.583 93.3614L179.558 93.3419L179.587 93.3549L179.528 93.3289H179.592C179.592 93.3419 179.589 93.3506 179.587 93.3549L179.528 93.3289H179.592H179.519L179.571 93.2769C179.583 93.2889 179.593 93.3116 179.592 93.3289H179.519L179.571 93.2769L179.533 93.3148L179.543 93.2607C179.544 93.2607 179.553 93.2596 179.571 93.2769L179.533 93.3148L179.543 93.2607H179.558C179.585 93.2618 179.639 93.2564 179.711 93.2477C179.928 93.2228 180.316 93.1719 180.854 93.1719C181.624 93.1719 182.702 93.2759 184.046 93.7024C184.366 93.8042 184.786 93.9979 185.26 94.2415C185.97 94.6063 186.798 95.0805 187.562 95.5157C188.326 95.9509 189.028 96.3471 189.477 96.5517C190.503 97.0194 191.797 97.1428 192.895 97.1417C193.452 97.1417 193.959 97.1103 194.356 97.0778C194.754 97.0454 195.038 97.0107 195.163 97.0042C195.293 96.9988 195.452 96.9403 195.626 96.8332C195.932 96.647 196.282 96.319 196.63 95.9195C197.153 95.3197 197.674 94.5587 198.062 93.8724C198.257 93.5292 198.418 93.2044 198.53 92.9284C198.642 92.6545 198.703 92.425 198.702 92.2896C198.703 92.2301 198.69 92.1922 198.679 92.1771L198.66 92.1619C198.653 92.1576 198.641 92.1543 198.623 92.1543C198.603 92.1543 198.576 92.1587 198.542 92.1684C198.505 92.1803 198.438 92.1965 198.339 92.2182C197.65 92.3708 195.463 92.7714 193.324 92.7714C192.59 92.7714 191.862 92.7238 191.2 92.6025C189.774 92.3405 188.331 91.5643 187.131 90.8563C186.531 90.5034 185.993 90.1657 185.551 89.9188C185.33 89.7954 185.133 89.6937 184.967 89.6255C184.801 89.5551 184.664 89.5194 184.573 89.5204L184.548 89.5215L184.541 89.4371Z" fill="#33CF90"/>
<path fill-rule="evenodd" clip-rule="evenodd" d="M194.259 95.2926C193.813 95.7506 193.019 95.9313 192.485 95.6953C191.951 95.4604 191.88 94.8975 192.326 94.4396C192.772 93.9816 193.566 93.8019 194.1 94.0369C194.634 94.2729 194.705 94.8347 194.259 95.2926ZM185.57 92.6068C185.094 92.9792 184.349 93.0853 183.905 92.8439C183.461 92.6035 183.486 92.1056 183.962 91.7332C184.437 91.3608 185.183 91.2547 185.627 91.495C186.071 91.7364 186.045 92.2333 185.57 92.6068ZM183.868 89.6936C184.701 90.1299 186.433 91.233 186.766 91.1453C187.099 91.0587 187.348 90.8866 187.348 90.8866L184.769 89.4468L184.264 89.4868L183.868 89.6936ZM191.447 97.081C191.76 96.8385 192.018 96.5711 192.254 96.5592C192.49 96.5473 196.44 96.2734 196.229 96.4629C196.018 96.6512 195.431 97.0962 195.431 97.0962L194.27 97.1687L192.399 97.2174L191.447 97.081Z" fill="#C6C2F9"/>
<path fill-rule="evenodd" clip-rule="evenodd" d="M114.718 23.0602C114.787 23.0602 114.856 23.0313 114.906 22.9748C114.998 22.8707 114.987 22.7119 114.883 22.62C112.781 20.7691 110.421 19.8597 107.703 19.8597C107.275 19.8597 106.841 19.882 106.396 19.9267C106.258 19.9406 106.157 20.0639 106.171 20.202C106.176 20.2538 106.196 20.3001 106.227 20.3374C106.274 20.3934 106.344 20.4284 106.421 20.4284C106.429 20.4284 106.437 20.428 106.446 20.4271C106.871 20.3845 107.287 20.363 107.695 20.363C110.292 20.363 112.544 21.2308 114.551 22.9976C114.599 23.0396 114.658 23.0602 114.718 23.0602ZM118.042 23.1333C118.098 23.1333 118.154 23.1149 118.2 23.077C118.309 22.9895 118.325 22.8312 118.237 22.7233C116.082 20.0706 113.871 18.7536 110.608 18.1788C110.593 18.1762 110.579 18.175 110.564 18.175C110.445 18.175 110.339 18.2609 110.317 18.3829C110.304 18.4586 110.326 18.5323 110.371 18.5872C110.408 18.6315 110.46 18.6635 110.521 18.6742C112.15 18.9611 113.455 19.424 114.628 20.1307C115.77 20.8187 116.792 21.7429 117.846 23.0404L117.849 23.0425C117.898 23.1023 117.97 23.1333 118.042 23.1333Z" fill="#82615E"/>
</svg>
