<svg width="216" height="216" viewBox="0 0 216 216" fill="none" xmlns="http://www.w3.org/2000/svg">
<circle cx="108" cy="108" r="106" fill="white" stroke="#675AF6" stroke-width="4"/>
<path d="M174 162.666H42V166.332H174V162.666Z" fill="#E6E5F4"/>
<path d="M170.335 155.333H45.668V158.999H170.335V155.333Z" fill="#E6E5F4"/>
<path fill-rule="evenodd" clip-rule="evenodd" d="M49.3359 96.666H166.671V151.666H49.3359V96.666Z" fill="#C6C2F9"/>
<path fill-rule="evenodd" clip-rule="evenodd" d="M119.212 127.519V151.667H115.546V131.186H100.46V151.667H96.7928V127.519H119.212ZM155.67 101.082V116.519L152.001 116.519L152.003 151.667H148.336L148.334 116.519L144.67 116.519V101.082H155.67ZM137.336 101.082V116.519L133.667 116.519L133.669 151.667H130.003L130.001 116.519L126.336 116.519V101.082H137.336ZM89.6694 101.082V116.519L86.0018 116.519L86.0027 151.667H82.336L82.3356 116.519L78.6693 116.519V101.082H89.6694ZM71.336 101.082V116.519L67.6684 116.519L67.6693 151.667H64.0026L64.0022 116.519L60.3359 116.519V101.082H71.336Z" fill="#F5F4FD"/>
<path fill-rule="evenodd" clip-rule="evenodd" d="M53 76.1043L107.998 49L163 76.1043V89.333H53V76.1043Z" fill="#B9B3F9"/>
<path fill-rule="evenodd" clip-rule="evenodd" d="M107.854 53.2295L154.971 75.2626V83.8684H55.668V78.3713L107.854 53.2295Z" fill="#4F44D0"/>
<path fill-rule="evenodd" clip-rule="evenodd" d="M45.7656 86.417H170.431V101.082H45.7656V86.417Z" fill="#675AF6"/>
<path fill-rule="evenodd" clip-rule="evenodd" d="M49.3342 151.666L45.668 155.332H170.335L166.669 151.666H49.3342Z" fill="#C6C2F9"/>
<path fill-rule="evenodd" clip-rule="evenodd" d="M45.6662 158.997L42 162.666H174L170.334 158.997H45.6662Z" fill="#C6C2F9"/>
<path d="M115.546 131.235H108.004V151.977H115.546V131.235Z" fill="#8279F8"/>
<path fill-rule="evenodd" clip-rule="evenodd" d="M100.461 131.237L109.89 130.22V153.138L100.461 151.981V131.237Z" fill="#5A6389"/>
<path fill-rule="evenodd" clip-rule="evenodd" d="M107.142 141.402H108.556C108.686 141.402 108.792 141.508 108.792 141.638C108.792 141.768 108.686 141.874 108.556 141.874H107.142C107.012 141.874 106.906 141.768 106.906 141.638C106.906 141.508 107.012 141.402 107.142 141.402Z" fill="white"/>
<path d="M132.514 69.0068H83.4858C80.3612 69.0068 77.8281 71.5399 77.8281 74.6645C77.8281 77.7892 80.3612 80.3222 83.4858 80.3222H132.514C135.639 80.3222 138.172 77.7892 138.172 74.6645C138.172 71.5399 135.639 69.0068 132.514 69.0068Z" fill="#5A6389"/>
<path d="M83.4801 76.8957C84.7117 76.8957 85.7101 75.8972 85.7101 74.6656C85.7101 73.434 84.7117 72.4355 83.4801 72.4355C82.2484 72.4355 81.25 73.434 81.25 74.6656C81.25 75.8972 82.2484 76.8957 83.4801 76.8957Z" fill="white"/>
<path d="M132.515 76.8957C133.747 76.8957 134.745 75.8972 134.745 74.6656C134.745 73.434 133.747 72.4355 132.515 72.4355C131.284 72.4355 130.285 73.434 130.285 74.6656C130.285 75.8972 131.284 76.8957 132.515 76.8957Z" fill="white"/>
<path d="M96.73 70.8597L94 77.9997H95.25L95.9 76.2097H98.89L99.54 77.9997H100.79L98.06 70.8597H96.73ZM96.25 75.2497L97.38 72.1197H97.42L98.54 75.2497H96.25Z" fill="white"/>
<path d="M103.487 70.8597V77.9997H104.657V73.0797H104.697L106.797 77.9997H107.807L109.907 73.0797H109.947V77.9997H111.117V70.8597H109.747L107.327 76.4597H107.287L104.857 70.8597H103.487Z" fill="white"/>
<path d="M117.62 70.7197C116.48 70.7197 115.61 71.0897 115.01 71.8497C114.48 72.5097 114.22 73.3797 114.22 74.4397C114.22 75.5197 114.47 76.3797 114.98 77.0197C115.56 77.7597 116.45 78.1397 117.64 78.1397C118.41 78.1397 119.07 77.9197 119.62 77.4797C120.21 77.0097 120.58 76.3597 120.74 75.5197H119.6C119.46 76.0597 119.22 76.4697 118.88 76.7397C118.56 76.9797 118.14 77.1097 117.63 77.1097C116.85 77.1097 116.27 76.8597 115.9 76.3797C115.56 75.9297 115.39 75.2797 115.39 74.4397C115.39 73.6197 115.56 72.9797 115.91 72.5197C116.29 71.9997 116.85 71.7497 117.6 71.7497C118.1 71.7497 118.51 71.8497 118.83 72.0697C119.16 72.2897 119.38 72.6297 119.5 73.0997H120.64C120.53 72.3797 120.22 71.7997 119.7 71.3797C119.16 70.9397 118.46 70.7197 117.62 70.7197Z" fill="white"/>
</svg>
