<?xml version="1.0" encoding="UTF-8"?>
<svg width="32px" height="39px" viewBox="0 0 32 39" version="1.1" xmlns="http://www.w3.org/2000/svg" xmlns:xlink="http://www.w3.org/1999/xlink">
    <!-- Generator: Sketch 51 (57462) - http://www.bohemiancoding.com/sketch -->
    <title>goalwise_icn</title>
    <desc>Created with Sketch.</desc>
    <defs></defs>
    <g id="assets" stroke="none" stroke-width="1" fill="none" fill-rule="evenodd">
        <g id="assets_2" transform="translate(-64.000000, -300.000000)">
            <g id="report_menu_icons" transform="translate(63.000000, 214.000000)">
                <g id="goalwise_icn" transform="translate(1.000000, 87.000000)">
                    <path d="M23.5529504,6.92657067 C21.0564765,4.62849827 17.7363072,3.2105387 14.0851554,3.2105387 C6.36489211,3.2105387 0.0846852425,9.49121571 0.0846852425,17.2105387 C0.0846852425,22.6134536 3.16602046,27.3031574 7.6587332,29.6364907 L4.9897158,36.2505011 C4.82845581,36.6482444 5.02215586,37.101935 5.4213096,37.2622547 C5.51580889,37.3008067 5.61406935,37.3182021 5.71091938,37.3182021 C6.01980513,37.3182021 6.3103552,37.1343751 6.43259309,36.8316012 L9.07951364,30.2707174 C10.4048545,30.7794151 11.8232842,31.0897112 13.3070642,31.1715166 L13.3070642,34.2091283 C13.3070642,34.6388415 13.6545019,34.9867493 14.0846852,34.9867493 C14.5143985,34.9867493 14.8608959,34.6388415 14.8608959,34.2091283 L14.8608959,31.1715166 C16.3446758,31.0897112 17.7631056,30.7794151 19.090327,30.2707174 L21.7391281,36.8316012 C21.8599556,37.1348452 22.1519161,37.3182021 22.4598615,37.3182021 C22.5567116,37.3182021 22.6554422,37.3008067 22.7504116,37.2622547 C23.1490952,37.1014649 23.3423251,36.6477742 23.1810651,36.2505011 L20.5106373,29.6364907 C25.0038202,27.3022171 28.0846852,22.6134536 28.0846852,17.2105387 C28.0846852,13.5626779 26.670957,10.2462698 24.3738249,7.75167645 L23.5529504,6.92657067 Z M26.5294431,17.2110088 C26.5294431,24.0741964 20.9459922,29.6571772 14.0846852,29.6571772 C7.2219678,29.6571772 1.63851693,24.0741964 1.63851693,17.2110088 C1.63851693,10.3492317 7.2219678,4.76625097 14.0846852,4.76625097 C17.3080045,4.76625097 20.2384229,6.00837603 22.4523392,8.02671171 L20.1246476,10.353463 C18.509697,8.93080198 16.3996829,8.06009206 14.0846852,8.06009206 C9.03814081,8.06009206 4.93376846,12.1654047 4.93376846,17.2110088 C4.93376846,22.2575533 9.03767067,26.3633361 14.0846852,26.3633361 C19.1316998,26.3633361 23.2379528,22.2580234 23.2379528,17.2110088 C23.2379528,14.8993022 22.3686533,12.7911687 20.9497534,11.1780986 L23.2755644,8.8508772 C25.2891986,11.0624428 26.5294431,13.9909806 26.5294431,17.2110088 L26.5294431,17.2110088 Z M15.6977553,17.2185312 C15.6977553,18.1216812 14.9633876,18.8560488 14.0602377,18.8560488 C13.1599086,18.8560488 12.4264812,18.1216812 12.4264812,17.2185312 C12.4264812,16.3167916 13.1599086,15.5828941 14.0602377,15.5828941 C14.3051836,15.5828941 14.5313237,15.6440131 14.7381878,15.7394527 L13.6728376,16.8071537 C13.445287,17.0347042 13.445287,17.4032985 13.6728376,17.6317893 C13.7847323,17.7460347 13.9337685,17.8024522 14.0846852,17.8024522 C14.2341916,17.8024522 14.3832278,17.7455646 14.4965329,17.6317893 L15.5595324,16.5683196 C15.6469796,16.7686017 15.6977553,16.9867493 15.6977553,17.2185312 L15.6977553,17.2185312 Z M14.0602377,14.0271819 C12.3018926,14.0271819 10.8712391,15.4583055 10.8712391,17.2185312 C10.8712391,18.9787568 12.3018926,20.4108208 14.0602377,20.4108208 C15.819523,20.4108208 17.2520571,18.979227 17.2520571,17.2185312 C17.2520571,16.5551555 17.0466034,15.9397348 16.700106,15.4282162 L19.8303364,12.2970455 C20.9690294,13.6252072 21.6836509,15.3285453 21.6836509,17.2105387 C21.6836509,21.3995373 18.274154,24.8080939 14.0846852,24.8080939 C9.8961568,24.8080939 6.48854044,21.3995373 6.48854044,17.2105387 C6.48854044,13.0220103 9.8961568,9.61439389 14.0846852,9.61439389 C15.9699697,9.61439389 17.6751883,10.3304259 19.0052306,11.4724099 L15.8778211,14.6017 C15.3616011,14.2415683 14.7358371,14.0271819 14.0602377,14.0271819 Z" id="Shape" fill="#3792FC"></path>
                    <path d="M13.6666667,17.4117647 L29.6666667,1.41176471" id="Path-519" stroke="#1BDA4E" stroke-linecap="round"></path>
                    <path d="M26.372549,3.76470588 L26.372549,1.41176471" id="Path-520" stroke="#1BDA4E" stroke-linecap="round"></path>
                    <path d="M28.254902,2.35294118 L28.254902,0" id="Path-520" stroke="#1BDA4E" stroke-linecap="round"></path>
                    <path d="M28.9607843,4.70588235 L26.372549,4.70588235" id="Path-520" stroke="#1BDA4E" stroke-linecap="round" transform="translate(27.666667, 4.705882) scale(-1, -1) translate(-27.666667, -4.705882) "></path>
                    <path d="M30.8431373,2.82352941 L28.254902,2.82352941" id="Path-520" stroke="#1BDA4E" stroke-linecap="round" transform="translate(29.549020, 2.823529) scale(-1, -1) translate(-29.549020, -2.823529) "></path>
                </g>
            </g>
        </g>
    </g>
</svg>