<svg width="130" height="130" viewBox="0 0 130 130" fill="none" xmlns="http://www.w3.org/2000/svg">
<path fill-rule="evenodd" clip-rule="evenodd" d="M0 6C0 2.68629 2.68629 0 6 0H124C127.314 0 130 2.68629 130 6V124C130 127.314 127.314 130 124 130H6C2.68629 130 0 127.314 0 124V6Z" fill="white"/>
<mask id="mask0" mask-type="alpha" maskUnits="userSpaceOnUse" x="0" y="0" width="130" height="130">
<path fill-rule="evenodd" clip-rule="evenodd" d="M0 6C0 2.68629 2.68629 0 6 0H124C127.314 0 130 2.68629 130 6V124C130 127.314 127.314 130 124 130H6C2.68629 130 0 127.314 0 124V6Z" fill="white"/>
</mask>
<g mask="url(#mask0)">
<path fill-rule="evenodd" clip-rule="evenodd" d="M105.874 72.5162C103.854 72.5162 102.21 70.8724 102.21 68.8526C102.21 68.1772 101.663 67.6313 100.989 67.6313C100.315 67.6313 99.7677 68.1772 99.7677 68.8526C99.7677 70.8724 98.1239 72.5162 96.104 72.5162C95.4299 72.5162 94.8828 73.0621 94.8828 73.7374C94.8828 74.4127 95.4299 74.9586 96.104 74.9586C98.1239 74.9586 99.7677 76.6024 99.7677 78.6223C99.7677 79.2976 100.315 79.8435 100.989 79.8435C101.663 79.8435 102.21 79.2976 102.21 78.6223C102.21 76.6024 103.854 74.9586 105.874 74.9586C106.548 74.9586 107.095 74.4127 107.095 73.7374C107.095 73.0621 106.548 72.5162 105.874 72.5162ZM100.989 74.9623C100.641 74.4982 100.227 74.0855 99.764 73.7374C100.227 73.3894 100.641 72.9766 100.989 72.5125C101.337 72.9766 101.751 73.3894 102.214 73.7374C101.751 74.0855 101.337 74.4982 100.989 74.9623Z" fill="#E0EEFF"/>
<path fill-rule="evenodd" clip-rule="evenodd" d="M39 32.1061C39 32.7814 39.5471 33.3273 40.2212 33.3273C42.2411 33.3273 43.8848 34.971 43.8848 36.9909C43.8848 37.6662 44.432 38.2121 45.1061 38.2121C45.7802 38.2121 46.3273 37.6662 46.3273 36.9909C46.3273 34.971 47.971 33.3273 49.9909 33.3273C50.665 33.3273 51.2121 32.7814 51.2121 32.1061C51.2121 31.4307 50.665 30.8848 49.9909 30.8848C47.971 30.8848 46.3273 29.2411 46.3273 27.2212C46.3273 26.5459 45.7802 26 45.1061 26C44.432 26 43.8848 26.5459 43.8848 27.2212C43.8848 29.2411 42.2411 30.8848 40.2212 30.8848C39.5471 30.8848 39 31.4307 39 32.1061ZM45.1061 30.8812C45.4541 31.3452 45.8681 31.758 46.3309 32.1061C45.8681 32.4541 45.4541 32.8669 45.1061 33.3309C44.758 32.8669 44.344 32.4541 43.8812 32.1061C44.344 31.758 44.758 31.3452 45.1061 30.8812Z" fill="#E0EEFF"/>
<path opacity="0.05" d="M67.1276 -2.99991C54.5913 -2.99991 32.9377 -2.99991 28.379 9.52485C23.8204 22.0496 61.7234 21.315 70.5466 30.1301C79.3698 38.9452 93.5961 37.9902 107.016 37.9902C120.436 37.9902 117.893 52.7673 128.67 50.5149C139.446 48.2626 129.809 36.9762 133.228 30.1301C133.228 23.7481 133.228 -2.99991 133.228 -2.99991C133.228 -2.99991 88.2114 -2.99991 67.1276 -2.99991Z" fill="#3792FC"/>
<path opacity="0.05" d="M30 57.7943C74.3077 42.055 94 77.4685 94 57.7943C94 38.1202 70.3692 28.2831 58.5538 16.4786C46.7385 4.67415 51.9092 -15 33.9385 -15C15.9677 -15 25.0215 -3.97141 5.38462 4.67415C-14.2522 13.3197 -34 -9.09776 -34 16.4786C-34 42.055 -14.3077 73.5337 30 57.7943Z" fill="#3792FC"/>
<rect x="25" y="35" width="80" height="60" fill="#D8D8D8" fill-opacity="0.01"/>
<path fill-rule="evenodd" clip-rule="evenodd" d="M41.664 74.6133H49.9779L44.6332 92.8247H36.3193L41.664 74.6133Z" fill="#68AEFF"/>
<path fill-rule="evenodd" clip-rule="evenodd" d="M77.1757 92.8247H85.4896L80.1449 74.6133H71.8311L77.1757 92.8247Z" fill="#68AEFF"/>
<path fill-rule="evenodd" clip-rule="evenodd" d="M60.9043 88.7271C75.2368 88.7271 86.8556 77.1084 86.8556 62.7759C86.8556 48.4435 75.2368 36.8247 60.9043 36.8247C46.5719 36.8247 34.9531 48.4435 34.9531 62.7759C34.9531 77.1084 46.5719 88.7271 60.9043 88.7271Z" fill="#52A0FA"/>
<path fill-rule="evenodd" clip-rule="evenodd" d="M60.6768 88.7262C60.7526 88.7268 60.8284 88.7271 60.9044 88.7271C75.2369 88.7271 86.8556 77.1084 86.8556 62.7759C86.8556 48.4435 75.2369 36.8247 60.9044 36.8247C60.8284 36.8247 60.7526 36.825 60.6768 36.8257C74.9044 36.9479 86.4003 48.5194 86.4003 62.7759C86.4003 77.0324 74.9044 88.6039 60.6768 88.7262Z" fill="#96C7FF"/>
<path fill-rule="evenodd" clip-rule="evenodd" d="M61.132 36.8256C61.0562 36.8249 60.9803 36.8246 60.9043 36.8246C46.5719 36.8246 34.9531 48.4434 34.9531 62.7758C34.9531 77.1083 46.5719 88.7271 60.9043 88.7271C60.9803 88.7271 61.0562 88.7267 61.132 88.7261C46.9043 88.6038 35.4084 77.0323 35.4084 62.7758C35.4084 48.5193 46.9043 36.9478 61.132 36.8256Z" fill="#96C7FF"/>
<path fill-rule="evenodd" clip-rule="evenodd" d="M60.9046 82.8082C71.9682 82.8082 80.9371 73.8393 80.9371 62.7757C80.9371 51.712 71.9682 42.7432 60.9046 42.7432C49.8409 42.7432 40.8721 51.712 40.8721 62.7757C40.8721 73.8393 49.8409 82.8082 60.9046 82.8082Z" fill="#D8EAFF"/>
<path fill-rule="evenodd" clip-rule="evenodd" d="M60.9049 82.8069C60.9807 82.8078 61.0565 82.8082 61.1325 82.8082C72.1962 82.8082 81.165 73.8393 81.165 62.7757C81.165 51.712 72.1962 42.7432 61.1325 42.7432C61.0565 42.7432 60.9807 42.7436 60.9049 42.7444C71.8637 42.8665 80.7098 51.788 80.7098 62.7757C80.7098 73.7634 71.8637 82.6849 60.9049 82.8069Z" fill="#D8EAFF"/>
<path fill-rule="evenodd" clip-rule="evenodd" d="M61.1322 82.8069C61.0565 82.8078 60.9806 82.8082 60.9046 82.8082C49.8409 82.8082 40.8721 73.8393 40.8721 62.7757C40.8721 51.712 49.8409 42.7432 60.9046 42.7432C60.9806 42.7432 61.0565 42.7436 61.1322 42.7444C50.1735 42.8665 41.3274 51.788 41.3274 62.7757C41.3274 73.7634 50.1735 82.6849 61.1322 82.8069Z" fill="#D8EAFF"/>
<path fill-rule="evenodd" clip-rule="evenodd" d="M60.9042 75.5238C67.9447 75.5238 73.6522 69.8163 73.6522 62.7758C73.6522 55.7353 67.9447 50.0278 60.9042 50.0278C53.8637 50.0278 48.1562 55.7353 48.1562 62.7758C48.1562 69.8163 53.8637 75.5238 60.9042 75.5238Z" fill="#96C7FF"/>
<path fill-rule="evenodd" clip-rule="evenodd" d="M59.9941 75.5218C60.0742 75.5231 60.1545 75.5238 60.2349 75.5238C67.684 75.5238 73.7227 69.8163 73.7227 62.7758C73.7227 55.7353 67.684 50.0278 60.2349 50.0278C60.1545 50.0278 60.0742 50.0285 59.9941 50.0298C67.332 50.1513 73.241 55.8113 73.241 62.7758C73.241 69.7403 67.332 75.4003 59.9941 75.5218Z" fill="#3792FC"/>
<path fill-rule="evenodd" clip-rule="evenodd" d="M61.8848 75.5218C61.8047 75.5231 61.7244 75.5238 61.644 75.5238C54.1949 75.5238 48.1562 69.8163 48.1562 62.7758C48.1562 55.7353 54.1949 50.0278 61.644 50.0278C61.7244 50.0278 61.8047 50.0285 61.8848 50.0298C54.5469 50.1513 48.638 55.8113 48.638 62.7758C48.638 69.7403 54.5469 75.4003 61.8848 75.5218Z" fill="#96C7FF"/>
<path fill-rule="evenodd" clip-rule="evenodd" d="M60.9041 68.6948C64.1729 68.6948 66.8228 66.0449 66.8228 62.7761C66.8228 59.5073 64.1729 56.8574 60.9041 56.8574C57.6352 56.8574 54.9854 59.5073 54.9854 62.7761C54.9854 66.0449 57.6352 68.6948 60.9041 68.6948Z" fill="#F3F4F6"/>
<path fill-rule="evenodd" clip-rule="evenodd" d="M61.4421 68.6905C61.3628 68.6934 61.2831 68.6948 61.203 68.6948C57.7691 68.6948 54.9854 66.0449 54.9854 62.7761C54.9854 59.5073 57.7691 56.8574 61.203 56.8574C61.2831 56.8574 61.3628 56.8589 61.4421 56.8617C58.119 56.9813 55.4636 59.5835 55.4636 62.7761C55.4636 65.9687 58.119 68.5709 61.4421 68.6905Z" fill="#3792FC"/>
<path fill-rule="evenodd" clip-rule="evenodd" d="M60.4485 68.6905C60.5279 68.6934 60.6076 68.6948 60.6877 68.6948C64.1215 68.6948 66.9053 66.0449 66.9053 62.7761C66.9053 59.5073 64.1215 56.8574 60.6877 56.8574C60.6076 56.8574 60.5279 56.8589 60.4485 56.8617C63.7716 56.9813 66.427 59.5835 66.427 62.7761C66.427 65.9687 63.7716 68.5709 60.4485 68.6905Z" fill="#3792FC"/>
<g opacity="0.2" filter="url(#filter0_f)">
<path fill-rule="evenodd" clip-rule="evenodd" d="M60.3348 64.4064C60.4638 64.052 60.8557 63.8692 61.2101 63.9982L84.7406 72.5626C85.095 72.6916 85.2778 73.0835 85.1488 73.4379C85.0198 73.7924 84.6279 73.9751 84.2735 73.8461L60.743 65.2817C60.3885 65.1527 60.2058 64.7608 60.3348 64.4064Z" fill="#4A4A4A"/>
</g>
<path fill-rule="evenodd" clip-rule="evenodd" d="M92.4302 40.6131L97.5559 37.6537L98.3608 40.869L93.2351 43.8284L92.4302 40.6131Z" fill="#96C7FF"/>
<path fill-rule="evenodd" clip-rule="evenodd" d="M96.0728 46.9217L101.198 43.9623L98.8164 41.6576L93.6907 44.6169L96.0728 46.9217Z" fill="#96C7FF"/>
<path d="M60.2822 62.3286L98.5282 40.2473C98.9637 39.9959 99.5206 40.1451 99.772 40.5806C100.023 41.0161 99.8742 41.573 99.4387 41.8245L61.1928 63.9058L60.2822 62.3286Z" fill="#376BA8"/>
<path fill-rule="evenodd" clip-rule="evenodd" d="M59.9316 61.6616L60.7873 61.3502L61.8773 64.345L61.0217 64.6564L59.9316 61.6616Z" fill="#DFD8EF"/>
<path opacity="0.05" d="M90 140.794C45.6923 125.055 26 160.468 26 140.794C26 121.12 49.6308 111.283 61.4462 99.4786C73.2615 87.6741 68.0908 68 86.0615 68C104.032 68 94.9785 79.0286 114.615 87.6741C134.252 96.3197 154 73.9022 154 99.4786C154 125.055 134.308 156.534 90 140.794Z" fill="#3792FC"/>
</g>
<defs>
<filter id="filter0_f" x="51.8361" y="55.5002" width="41.8105" height="26.8444" filterUnits="userSpaceOnUse" color-interpolation-filters="sRGB">
<feFlood flood-opacity="0" result="BackgroundImageFix"/>
<feBlend mode="normal" in="SourceGraphic" in2="BackgroundImageFix" result="shape"/>
<feGaussianBlur stdDeviation="4.22844" result="effect1_foregroundBlur"/>
</filter>
</defs>
</svg>
