<svg width="130" height="130" viewBox="0 0 130 130" fill="none" xmlns="http://www.w3.org/2000/svg">
<path fill-rule="evenodd" clip-rule="evenodd" d="M0 6C0 2.68629 2.68629 0 6 0H124C127.314 0 130 2.68629 130 6V124C130 127.314 127.314 130 124 130H6C2.68629 130 0 127.314 0 124V6Z" fill="white"/>
<mask id="mask0" mask-type="alpha" maskUnits="userSpaceOnUse" x="0" y="0" width="130" height="130">
<path fill-rule="evenodd" clip-rule="evenodd" d="M0 6C0 2.68629 2.68629 0 6 0H124C127.314 0 130 2.68629 130 6V124C130 127.314 127.314 130 124 130H6C2.68629 130 0 127.314 0 124V6Z" fill="white"/>
</mask>
<g mask="url(#mask0)">
<path fill-rule="evenodd" clip-rule="evenodd" d="M105.874 72.5162C103.854 72.5162 102.21 70.8724 102.21 68.8526C102.21 68.1772 101.663 67.6313 100.989 67.6313C100.315 67.6313 99.7677 68.1772 99.7677 68.8526C99.7677 70.8724 98.1239 72.5162 96.104 72.5162C95.4299 72.5162 94.8828 73.0621 94.8828 73.7374C94.8828 74.4127 95.4299 74.9586 96.104 74.9586C98.1239 74.9586 99.7677 76.6024 99.7677 78.6223C99.7677 79.2976 100.315 79.8435 100.989 79.8435C101.663 79.8435 102.21 79.2976 102.21 78.6223C102.21 76.6024 103.854 74.9586 105.874 74.9586C106.548 74.9586 107.095 74.4127 107.095 73.7374C107.095 73.0621 106.548 72.5162 105.874 72.5162ZM100.989 74.9623C100.641 74.4982 100.227 74.0855 99.764 73.7374C100.227 73.3894 100.641 72.9766 100.989 72.5125C101.337 72.9766 101.751 73.3894 102.214 73.7374C101.751 74.0855 101.337 74.4982 100.989 74.9623Z" fill="#EFEEFB"/>
<path fill-rule="evenodd" clip-rule="evenodd" d="M39 32.1061C39 32.7814 39.5471 33.3273 40.2212 33.3273C42.2411 33.3273 43.8848 34.971 43.8848 36.9909C43.8848 37.6662 44.432 38.2121 45.1061 38.2121C45.7802 38.2121 46.3273 37.6662 46.3273 36.9909C46.3273 34.971 47.971 33.3273 49.9909 33.3273C50.665 33.3273 51.2121 32.7814 51.2121 32.1061C51.2121 31.4307 50.665 30.8848 49.9909 30.8848C47.971 30.8848 46.3273 29.2411 46.3273 27.2212C46.3273 26.5459 45.7802 26 45.1061 26C44.432 26 43.8848 26.5459 43.8848 27.2212C43.8848 29.2411 42.2411 30.8848 40.2212 30.8848C39.5471 30.8848 39 31.4307 39 32.1061ZM45.1061 30.8812C45.4541 31.3452 45.8681 31.758 46.3309 32.1061C45.8681 32.4541 45.4541 32.8669 45.1061 33.3309C44.758 32.8669 44.344 32.4541 43.8812 32.1061C44.344 31.758 44.758 31.3452 45.1061 30.8812Z" fill="#EFEEFB"/>
<path opacity="0.05" d="M67.1276 -2.99991C54.5913 -2.99991 32.9377 -2.99991 28.379 9.52485C23.8204 22.0496 61.7234 21.315 70.5466 30.1301C79.3698 38.9452 93.5961 37.9902 107.016 37.9902C120.436 37.9902 117.893 52.7673 128.67 50.5149C139.446 48.2626 129.809 36.9762 133.228 30.1301C133.228 23.7481 133.228 -2.99991 133.228 -2.99991C133.228 -2.99991 88.2114 -2.99991 67.1276 -2.99991Z" fill="#675AF6"/>
<path opacity="0.05" d="M30 57.7943C74.3077 42.055 94 77.4685 94 57.7943C94 38.1202 70.3692 28.2831 58.5538 16.4786C46.7385 4.67415 51.9092 -15 33.9385 -15C15.9677 -15 25.0215 -3.97141 5.38462 4.67415C-14.2522 13.3197 -34 -9.09776 -34 16.4786C-34 42.055 -14.3077 73.5337 30 57.7943Z" fill="#675AF6"/>
<path opacity="0.05" d="M90 140.794C45.6923 125.055 26 160.468 26 140.794C26 121.12 49.6308 111.283 61.4462 99.4786C73.2615 87.6741 68.0908 68 86.0615 68C104.032 68 94.9785 79.0286 114.615 87.6741C134.252 96.3197 154 73.9022 154 99.4786C154 125.055 134.308 156.534 90 140.794Z" fill="#675AF6"/>
</g>
<path fill-rule="evenodd" clip-rule="evenodd" d="M37.7486 74.7886H46.1075L40.7339 92.9999H32.375L37.7486 74.7886Z" fill="#8279F8"/>
<path fill-rule="evenodd" clip-rule="evenodd" d="M73.9439 93H82.3028L76.9292 74.7886H68.5703L73.9439 93Z" fill="#8279F8"/>
<path fill-rule="evenodd" clip-rule="evenodd" d="M57.0918 88.9024C71.5019 88.9024 83.1836 77.2836 83.1836 62.9512C83.1836 48.6187 71.5019 37 57.0918 37C42.6817 37 31 48.6187 31 62.9512C31 77.2836 42.6817 88.9024 57.0918 88.9024Z" fill="#9D95F8"/>
<path fill-rule="evenodd" clip-rule="evenodd" d="M56.8633 88.9017C56.9394 88.9023 57.0155 88.9026 57.0918 88.9026C71.5019 88.9026 83.1836 77.2839 83.1836 62.9514C83.1836 48.619 71.5019 37.0002 57.0918 37.0002C57.0155 37.0002 56.9394 37.0006 56.8633 37.0012C71.1682 37.1233 82.7266 48.6948 82.7266 62.9514C82.7266 77.208 71.1682 88.7796 56.8633 88.9017Z" fill="#C6C2F9"/>
<path fill-rule="evenodd" clip-rule="evenodd" d="M57.3186 37.0014C57.2431 37.0008 57.1675 37.0004 57.0918 37.0004C42.6817 37.0004 31 48.6192 31 62.9516C31 77.2841 42.6817 88.9028 57.0918 88.9028C57.1693 88.9028 57.2467 88.9025 57.3241 88.9018C43.0184 88.7807 31.459 77.2088 31.459 62.9516C31.459 48.6962 43.0154 37.1254 57.3186 37.0014Z" fill="#C6C2F9"/>
<path fill-rule="evenodd" clip-rule="evenodd" d="M57.0942 82.9839C68.2178 82.9839 77.2352 74.0151 77.2352 62.9514C77.2352 51.8878 68.2178 42.9189 57.0942 42.9189C45.9706 42.9189 36.9531 51.8878 36.9531 62.9514C36.9531 74.0151 45.9706 82.9839 57.0942 82.9839Z" fill="#E6E5F4"/>
<path fill-rule="evenodd" clip-rule="evenodd" d="M57.0942 42.9204C57.1693 42.9196 57.2446 42.9192 57.3199 42.9192C68.4435 42.9192 77.4609 51.888 77.4609 62.9517C77.4609 74.0153 68.4435 82.9842 57.3199 82.9842C57.2424 82.9842 57.1649 82.9838 57.0876 82.9829C68.1072 82.8625 77.0029 73.9403 77.0029 62.9516C77.0029 51.9651 68.1107 43.0443 57.0942 42.9204Z" fill="#E6E5F4"/>
<path fill-rule="evenodd" clip-rule="evenodd" d="M57.3193 42.9204C57.2444 42.9196 57.1693 42.9192 57.0942 42.9192C45.9706 42.9192 36.9531 51.888 36.9531 62.9517C36.9531 74.0153 45.9706 82.9842 57.0942 82.9842C57.1715 82.9842 57.2488 82.9838 57.3259 82.9829C46.3061 82.8628 37.4101 73.9405 37.4101 62.9516C37.4101 51.9649 46.3025 43.044 57.3193 42.9204Z" fill="#E6E5F4"/>
<path fill-rule="evenodd" clip-rule="evenodd" d="M57.0944 75.6988C64.173 75.6988 69.9114 69.9913 69.9114 62.9508C69.9114 55.9103 64.173 50.2029 57.0944 50.2029C50.0157 50.2029 44.2773 55.9103 44.2773 62.9508C44.2773 69.9913 50.0157 75.6988 57.0944 75.6988Z" fill="#C6C2F9"/>
<path fill-rule="evenodd" clip-rule="evenodd" d="M56.1804 50.2048C56.26 50.2035 56.3397 50.2029 56.4197 50.2029C63.9091 50.2029 69.9805 55.9103 69.9805 62.9508C69.9805 69.9913 63.9091 75.6988 56.4197 75.6988C56.3375 75.6988 56.2556 75.6981 56.1738 75.6967C63.5528 75.5767 69.4953 69.9161 69.4953 62.9507C69.4953 55.9874 63.5564 50.3281 56.1804 50.2048Z" fill="#675AF6"/>
<path fill-rule="evenodd" clip-rule="evenodd" d="M58.0772 50.2048C57.9977 50.2035 57.918 50.2029 57.8381 50.2029C50.3487 50.2029 44.2773 55.9103 44.2773 62.9508C44.2773 69.9913 50.3487 75.6988 57.8381 75.6988C57.9202 75.6988 58.0021 75.6981 58.0838 75.6967C50.7046 75.5769 44.762 69.9162 44.762 62.9507C44.762 55.9873 50.7011 50.328 58.0772 50.2048Z" fill="#C6C2F9"/>
<path fill-rule="evenodd" clip-rule="evenodd" d="M57.0914 68.8696C60.3779 68.8696 63.0422 66.2197 63.0422 62.9509C63.0422 59.6821 60.3779 57.0322 57.0914 57.0322C53.8049 57.0322 51.1406 59.6821 51.1406 62.9509C51.1406 66.2197 53.8049 68.8696 57.0914 68.8696Z" fill="#E6E5F4"/>
<path fill-rule="evenodd" clip-rule="evenodd" d="M57.6317 57.0365C57.5521 57.0337 57.4722 57.0322 57.3919 57.0322C53.9394 57.0322 51.1406 59.6821 51.1406 62.9509C51.1406 66.2197 53.9394 68.8696 57.3919 68.8696C57.4729 68.8696 57.5535 68.8682 57.6338 68.8653C54.2924 68.746 51.6222 66.1436 51.6222 62.9508C51.6222 59.7587 54.2913 57.1568 57.6317 57.0365Z" fill="#675AF6"/>
<path fill-rule="evenodd" clip-rule="evenodd" d="M56.6348 57.0365C56.714 57.0336 56.7937 57.0322 56.8737 57.0322C60.3262 57.0322 63.125 59.6821 63.125 62.9509C63.125 66.2197 60.3262 68.8696 56.8737 68.8696C56.793 68.8696 56.7126 68.8682 56.6327 68.8653C59.9745 68.7464 62.6451 66.1439 62.6451 62.9508C62.6451 59.7584 59.9756 57.1564 56.6348 57.0365Z" fill="#675AF6"/>
<g opacity="0.2" filter="url(#filter0_f)">
<path fill-rule="evenodd" clip-rule="evenodd" d="M56.5191 64.5814C56.6488 64.227 57.0416 64.0438 57.3965 64.1723L81.0598 72.7386C81.4146 72.8671 81.5972 73.2586 81.4675 73.613C81.3378 73.9674 80.945 74.1506 80.5901 74.0221L56.9268 65.4558C56.5719 65.3273 56.3894 64.9359 56.5191 64.5814Z" fill="#132056"/>
</g>
<path fill-rule="evenodd" clip-rule="evenodd" d="M88.7889 40.7889L93.9425 37.8295L94.7517 41.0448L89.5982 44.0042L88.7889 40.7889Z" fill="#C6C2F9"/>
<path fill-rule="evenodd" clip-rule="evenodd" d="M92.4491 47.0975L97.6026 44.1381L95.2076 41.8334L90.0541 44.7927L92.4491 47.0975Z" fill="#C6C2F9"/>
<path d="M56.4648 62.5037L94.9201 40.4212C95.3568 40.1704 95.9158 40.3202 96.1686 40.7557C96.4214 41.1912 96.2723 41.7475 95.8356 41.9983L57.3803 64.0808L56.4648 62.5037Z" fill="#8279F8"/>
<path fill-rule="evenodd" clip-rule="evenodd" d="M56.1133 61.8369L56.9736 61.5255L58.0695 64.5203L57.2092 64.8317L56.1133 61.8369Z" fill="#EFEEFB"/>
<defs>
<filter id="filter0_f" x="52.2481" y="59.9029" width="33.4888" height="18.3888" filterUnits="userSpaceOnUse" color-interpolation-filters="sRGB">
<feFlood flood-opacity="0" result="BackgroundImageFix"/>
<feBlend mode="normal" in="SourceGraphic" in2="BackgroundImageFix" result="shape"/>
<feGaussianBlur stdDeviation="2.11422" result="effect1_foregroundBlur"/>
</filter>
</defs>
</svg>
