<svg width="320" height="160" viewBox="0 0 320 160" fill="none" xmlns="http://www.w3.org/2000/svg">
<path d="M279.84 156.902C274.754 159.878 88.834 159.571 65.8273 159.571C56.2992 159.571 47.7155 161.818 41.0486 156.024C34.0965 149.981 28.6546 141.241 23.5259 134.105C12.9318 119.365 4.37615 103.224 3.12786 85.9416C2.65099 79.3152 3.37097 72.3361 7.64413 66.6991C11.9173 61.0621 20.529 57.2351 28.2665 59.1832C35.6253 61.0353 42.3389 67.6041 49.3705 65.0349C54.1018 63.3054 55.4109 58.4162 56.2805 54.2288C59.5344 38.5334 65.5187 22.4124 79.348 11.242C93.182 0.0754223 116.703 -4.27694 132.309 5.19088C140.916 10.4137 145.788 18.7656 149.406 27.0332C153.025 35.3008 155.802 43.9518 161.609 51.3297C167.415 58.7077 177.154 64.7703 187.846 64.3446C197.234 63.9688 205.256 58.8112 211.984 53.4273C218.712 48.0396 225.159 42.0153 233.845 39.0703C242.532 36.1214 254.356 37.5326 258.666 44.3851C262.416 50.3481 259.171 57.5036 256.389 63.8116C253.154 71.155 250.573 78.9778 251.957 86.7008C253.341 94.4239 259.573 102.013 268.797 103.934C277.231 105.69 286.353 102.55 294.754 104.406C307.228 107.163 312.637 120.304 308.77 130.412C304.904 140.521 294.576 147.975 284.188 154.272C284.188 154.272 284.188 154.272 284.183 154.272C282.524 155.284 281.117 156.155 279.84 156.902Z" fill="#FAFCFF"/>
<path d="M203.51 142.609C208.62 134.448 215.725 127.641 223.977 123C224.198 126.288 222.82 129.475 221.115 132.261C217.073 138.857 213.285 143.464 207.818 148.727C206.262 150.224 199.716 154.677 199.274 153.913C197.877 151.5 202.214 144.675 203.51 142.609Z" fill="#E3EFFF"/>
<path d="M198.308 160C198.304 160 198.298 160 198.295 160C198.126 159.993 197.994 159.841 198 159.662C198.132 156.094 199.878 151.934 203.194 147.293C207.932 140.663 212.831 133.808 219.522 129.055C219.663 128.955 219.854 128.995 219.948 129.144C220.042 129.293 220.005 129.495 219.864 129.594C213.257 134.285 208.39 141.097 203.683 147.683C200.445 152.215 198.74 156.253 198.615 159.686C198.608 159.864 198.471 160 198.308 160Z" fill="#EFF6FF"/>
<path d="M38.0253 134.014C39.005 132.686 40.5996 131.808 42.2342 131.131C49.1174 128.297 57.2603 128.515 64.5385 130.463C71.8166 132.411 78.3849 135.961 84.6983 139.673C87.3026 141.202 97.565 146.215 92.7162 148.451C89.482 149.944 79.9295 147.953 76.3704 147.63C69.3422 146.988 62.419 145.468 55.8757 143.136C54.3111 142.573 37.2555 135.057 38.0253 134.014Z" fill="#F2F8FF"/>
<path d="M45.0628 132C45.8741 132.076 46.7047 132.168 47.5304 132.287C54.9575 133.331 62.0321 135.988 67.3731 138.191C74.0517 140.94 80.653 144.014 86.9936 147.32C93.6577 150.795 100.022 154.545 105.904 158.469C106.609 158.939 107.305 159.41 108 159.892C107.517 159.924 107.034 159.962 106.551 160C106.194 159.757 105.841 159.513 105.479 159.275C99.6216 155.373 93.281 151.634 86.6459 148.176C80.3246 144.88 73.7426 141.817 67.0882 139.073C61.7907 136.892 54.774 134.251 47.429 133.218C46.6177 133.104 45.8016 133.007 45 132.936L45.0628 132Z" fill="#E2EEFF"/>
<path d="M203.079 158.376C208.659 151.472 215.445 143.771 224.043 137.918C224.053 137.895 224.069 137.868 224.085 137.846C226.678 134.282 229.418 131.022 232.227 127.722C238.011 120.934 243.628 116.247 249.91 112.983C254.175 110.765 260.526 108.292 267.882 108.095C268.128 107.943 268.883 107.97 271.649 108.198L272.33 108.256L272 108.766C266.85 116.954 257.591 122.186 250.094 125.83C247.61 127.02 245.027 128.192 242.528 129.323C237.461 131.617 232.227 133.991 227.459 136.688C217.593 142.622 209.974 151.203 203.829 158.81C203.687 158.984 203.404 159.029 203.2 158.908C203.147 158.877 203.105 158.837 203.074 158.796C202.974 158.676 202.974 158.51 203.079 158.376ZM268.306 108.86C260.976 108.967 254.626 111.431 250.377 113.64C244.204 116.851 238.666 121.47 232.955 128.178C230.603 130.937 228.302 133.669 226.097 136.572C226.374 136.397 226.657 136.227 226.94 136.057C231.755 133.339 237.011 130.955 242.098 128.648C244.592 127.516 247.17 126.349 249.643 125.164C256.811 121.676 265.618 116.721 270.743 109.106C269.862 109.115 268.778 108.945 268.306 108.86Z" fill="#D3E6FD"/>
<path d="M224.671 137.063L225.232 137.672C226.636 136.724 228.433 135.369 230.335 133.929C232.588 132.229 234.915 130.468 236.623 129.381C242.198 125.817 247.94 122.32 253.698 118.98C259.457 115.644 265.383 112.375 271.319 109.262L270.847 108.605C264.901 111.722 258.959 114.995 253.19 118.34C247.421 121.685 241.663 125.191 236.078 128.759C234.344 129.868 232.002 131.639 229.733 133.347C227.847 134.783 226.055 136.133 224.671 137.063Z" fill="#D3E6FD"/>
<path d="M188.389 53.1744C182.249 43.1317 173.519 35.1511 163.244 30.1868C162.824 34.5544 164.437 38.5655 166.487 41.9998C171.34 50.1315 175.95 55.6789 182.667 61.8503C184.58 63.6081 192.694 68.559 193.289 67.4928C195.161 64.1083 189.946 55.7189 188.389 53.1744Z" fill="#F3F9FF"/>
<path d="M193.481 67.8397C192.435 65.3417 190.933 62.7381 188.978 60.0425C183.029 51.8408 176.881 43.3601 168.28 37.9647C168.099 37.8483 167.845 37.9313 167.715 38.1467C167.582 38.3602 167.624 38.6267 167.807 38.7385C176.292 44.0669 182.406 52.4913 188.317 60.6412C190.37 63.4719 191.91 66.1882 192.935 68.7767C193.122 68.4613 193.299 68.146 193.481 67.8397Z" fill="#D5E8FF"/>
<path d="M179.857 63.3683C178.672 63.2084 177.413 63.2056 176.2 63.4124C174.501 63.5595 172.751 64.2254 171.401 65.4865C168.482 68.2075 168.309 72.727 169.503 76.0618C170.701 79.4132 173.007 82.1892 176.004 83.8973C178.137 85.1123 180.714 85.7906 183.336 85.2131C183.509 85.1737 183.678 85.1314 183.851 85.0783C186.128 85.1346 188.155 83.9771 189.748 82.0166C190.94 80.5475 191.8 78.1235 191.949 76.3534C192.128 74.1713 191.819 72.1745 190.763 70.4408C188.58 66.8511 184.147 63.9593 179.857 63.3683Z" fill="#F2F8FF"/>
<path d="M173.589 68.8202L192.509 84.6956" stroke="#E2EEFF" stroke-linecap="round"/>
<path d="M171.586 77.7888C174.839 77.4882 178.091 77.1875 181.344 76.8869" stroke="#E2EEFF" stroke-linecap="round"/>
<path d="M176.006 82.045C177.389 81.8785 178.769 81.7575 180.149 81.6708" stroke="#E2EEFF" stroke-linecap="round"/>
<path d="M182.741 81.6432C184.434 81.511 186.13 81.3266 187.828 81.09" stroke="#E2EEFF" stroke-linecap="round"/>
<path d="M179.768 73.9023C179.414 71.4509 178.992 69.0177 178.513 66.6046" stroke="#E2EEFF" stroke-linecap="round"/>
<path d="M186.018 78.9139C185.888 76.8766 185.8 74.8325 185.742 72.7798" stroke="#E2EEFF" stroke-linecap="round"/>
<path d="M64.3052 13.2969C62.6708 14.2296 61.5117 15.7174 60.5977 17.2351C56.7456 23.61 56.3951 31.0423 58.1472 37.6332C59.8978 44.2198 63.5913 50.1088 67.4903 55.766C69.0975 58.0982 74.2317 67.3174 77.2281 62.8195C79.2247 59.8181 77.5941 51.1558 77.4791 47.9141C77.2507 41.511 75.9762 35.2365 73.7166 29.3348C73.1754 27.909 65.5981 12.5598 64.3052 13.2969Z" fill="#EDF5FF"/>
<path d="M70.855 71.5825C59.3644 66.9896 46.266 65.1185 33.1187 66.1919C34.9282 69.6163 38.6534 71.8391 42.5283 73.4315C51.7078 77.2048 59.3067 79.1788 69.4058 80.6377C72.2781 81.0532 83.1926 80.9686 83.2564 79.9032C83.4551 76.5426 73.7716 72.7481 70.855 71.5825Z" fill="#EDF5FF"/>
<path d="M107.667 106.743L108.33 106.159C103.424 101.81 98.773 96.9359 94.5085 91.6688C90.4732 86.6941 86.6721 81.2297 83.1946 75.4286C79.9366 69.9855 76.8748 64.0855 74.0979 57.8961C71.4558 52.0004 69.0522 45.8561 66.9596 39.6318C65.2963 34.679 63.3338 28.1076 62.9123 21.1894C62.8683 20.425 62.839 19.6552 62.8322 18.9011L61.9433 18.9867C61.9498 19.7552 61.9772 20.5352 62.0259 21.3122C62.4472 28.3065 64.4246 34.9344 66.1017 39.925C68.2019 46.1703 70.6083 52.3374 73.263 58.2524C76.049 64.4669 79.125 70.3904 82.3971 75.8569C85.8853 81.6874 89.7118 87.1759 93.7628 92.1781C98.0512 97.4651 102.729 102.368 107.667 106.743Z" fill="#E3EFFF"/>
<path d="M89.4439 85.7506C89.4488 85.7488 89.4538 85.747 89.4572 85.741C89.6668 85.6123 89.7442 85.3653 89.6197 85.1917C87.1516 81.6738 82.2329 78.7149 74.9968 76.3899C64.6498 73.0701 53.9555 69.6388 42.3176 69.6203C42.0719 69.6193 41.8529 69.7989 41.8301 70.0119C41.8038 70.2308 41.9803 70.4093 42.2244 70.4061C53.7126 70.4267 64.3423 73.834 74.6199 77.1315C81.6898 79.3979 86.474 82.2631 88.8491 85.6482C88.9702 85.8278 89.2297 85.8666 89.4439 85.7506Z" fill="#E3EFFF"/>
<path d="M81.6172 74.618C74.0741 69.9636 65.7005 64.2837 59.5814 56.9695C59.5556 56.9599 59.5298 56.9502 59.5024 56.9364C55.5852 54.7835 52.0358 52.4921 48.4437 50.1448C41.0464 45.3088 36.0589 40.5522 32.7488 35.1804C30.4987 31.5261 28.1116 26.0705 28.4072 19.6671C28.2526 19.4568 28.3363 18.7982 28.7945 16.3805L28.906 15.7832L29.4726 16.0528C38.5208 20.2927 43.8774 28.208 47.5357 34.6285C48.7293 36.7591 49.8933 38.9765 51.0134 41.1195C53.2914 45.4632 55.652 49.9576 58.4065 54.0327C64.5324 62.4532 73.8515 68.8311 82.163 73.9577C82.3571 74.0774 82.384 74.3198 82.2333 74.5032C82.1948 74.5505 82.1467 74.587 82.0956 74.6152C81.9537 74.7001 81.7615 74.7082 81.6172 74.618ZM29.3212 19.2678C28.9252 25.6554 31.3074 31.1128 33.5448 34.7479C36.8001 40.0302 41.7176 44.7171 49.0203 49.4923C52.0273 51.4577 55.0028 53.3823 58.1838 55.213C58.0022 54.9746 57.8255 54.7343 57.6489 54.4941C54.8628 50.3781 52.4975 45.8711 50.207 41.5082C49.0819 39.367 47.926 37.1561 46.7354 35.034C43.2334 28.8897 38.1638 21.3649 29.7712 17.1338C29.7224 17.9035 29.4496 18.8546 29.3212 19.2678Z" fill="#E3EFFF"/>
<path d="M58.6482 56.4431L59.3841 55.9373C58.3981 54.7448 56.961 53.2169 55.4413 51.6C53.647 49.6881 51.7907 47.7131 50.6594 46.2594C46.9573 41.5109 43.3434 36.6065 39.9152 31.6916C36.4871 26.7768 33.1521 21.7043 29.9995 16.6272L29.2084 17.0579C32.3656 22.1476 35.7135 27.2249 39.1462 32.1524C42.5789 37.0798 46.2008 41.9908 49.9125 46.7502C51.0643 48.2297 52.9317 50.2197 54.7404 52.1406C56.2456 53.7485 57.6732 55.2656 58.6482 56.4431Z" fill="#E3EFFF"/>
<path d="M133.285 61.036C138.451 55.1062 146.129 51.4583 154.009 48.5825C159.374 61.9557 155.824 76.6771 145.303 84.7044C143.467 86.1024 141.391 87.3305 138.934 87.7711C132.203 88.9711 128.637 84.4283 127.983 79.0423C127.144 72.186 128.972 65.9916 133.285 61.036Z" fill="#F2F8FF"/>
<path d="M151.915 53.5081L128.69 93.7365" stroke="#EAF3FE" stroke-linecap="round"/>
<path d="M143.877 53.8914C144.004 57.4033 144.175 60.9206 144.392 64.4434" stroke="#EAF3FE" stroke-linecap="round"/>
<path d="M141.375 72.3728C145.625 71.4551 149.757 70.2205 153.714 68.6791" stroke="#EAF3FE" stroke-linecap="round"/>
<path d="M92.8505 32.3399C94.4877 32.8115 95.9258 34.0498 97.1869 35.4009C102.482 41.0965 105.332 49.145 106.204 56.9818C107.076 64.8186 106.149 72.5489 104.972 80.0891C104.489 83.1985 103.551 95.0805 99.5925 91.1562C96.9499 88.5395 95.2653 78.461 94.2373 74.8596C92.211 67.7466 91.0632 60.4141 90.8347 53.1553C90.7855 51.4175 91.5636 31.9696 92.8505 32.3399Z" fill="#F2F8FF"/>
<path d="M96.7165 37.7815C96.9735 38.6258 97.2255 39.4944 97.4547 40.3661C99.5369 48.1985 100.238 56.1515 100.615 62.2137C101.092 69.7928 101.287 77.3898 101.202 84.7915C101.113 92.5707 100.694 100.128 99.9546 107.248C99.8656 108.102 99.7727 108.945 99.6716 109.792C99.4588 109.313 99.2418 108.835 99.0248 108.357C99.0737 107.923 99.1245 107.494 99.1674 107.056C99.8997 99.9675 100.319 92.4375 100.407 84.6926C100.491 77.3136 100.295 69.7394 99.8242 62.1864C99.4468 56.1745 98.7558 48.2851 96.6972 40.539C96.4695 39.6835 96.2273 38.828 95.9699 37.9952L96.7165 37.7815Z" fill="#E2EEFF"/>
<path d="M100.152 105.629C104.598 97.945 109.356 88.8509 111.739 78.7261C111.756 78.7084 111.776 78.6841 111.791 78.6614C114.189 74.9628 116.25 71.2363 118.325 67.4318C122.589 59.5989 124.951 52.6757 125.748 45.6409C126.29 40.8643 126.323 34.0495 123.87 27.1113C123.924 26.8269 123.628 26.1322 122.424 23.6312L122.126 23.0161L121.768 23.5069C115.97 31.2496 114.403 41.7679 113.688 50.0738C113.467 52.8186 113.299 55.65 113.139 58.3887C112.813 63.9409 112.472 69.6785 111.663 75.0962C109.659 86.4335 104.377 96.6211 99.4787 105.085C99.3666 105.279 99.4262 105.56 99.6122 105.707C99.6602 105.745 99.7128 105.769 99.7616 105.784C99.91 105.834 100.064 105.775 100.152 105.629ZM123.004 26.9891C125.531 33.8708 125.506 40.6824 124.967 45.4411C124.181 52.3539 121.853 59.1797 117.638 66.9153C115.905 70.1004 114.179 73.2269 112.26 76.3263C112.323 76.0045 112.38 75.6795 112.437 75.3545C113.25 69.8848 113.592 64.1244 113.923 58.5478C114.085 55.814 114.251 52.9891 114.471 50.2557C115.159 42.314 116.628 32.3158 121.901 24.8027C122.208 25.6277 122.756 26.5793 123.004 26.9891Z" fill="#D3E6FD"/>
<path d="M112.311 77.8331L111.542 77.5276C111.924 75.877 112.545 73.7136 113.208 71.422C113.987 68.7096 114.798 65.9064 115.2 63.9223C116.53 57.4405 117.737 50.8262 118.792 44.2533C119.842 37.682 120.77 30.9782 121.549 24.3207L122.331 24.5254C121.553 31.1943 120.626 37.9143 119.571 44.4986C118.515 51.0829 117.306 57.7151 115.976 64.2083C115.562 66.2248 114.748 69.0459 113.967 71.7761C113.302 74.0515 112.684 76.2084 112.311 77.8331Z" fill="#D3E6FD"/>
<path d="M48.3554 118.919C42.6841 111.376 40.3179 101.454 38.9084 91.4869C55.9441 88.5257 72.338 96.366 79.1352 110.718C80.3182 113.222 81.2417 115.965 81.1459 118.959C80.8752 127.159 74.6531 130.212 68.1681 129.635C59.9151 128.905 53.0961 125.219 48.3554 118.919Z" fill="#F2F8FF"/>
<path d="M44.1675 95.1732L83.4056 130.503" stroke="#EAF3FE" stroke-linecap="round"/>
<path d="M42.6121 104.704C46.7657 105.432 50.9371 106.108 55.1261 106.732" stroke="#EAF3FE" stroke-linecap="round"/>
<path d="M63.6807 112.252C63.6641 107.034 63.2456 101.877 62.4237 96.8473" stroke="#EAF3FE" stroke-linecap="round"/>
<path d="M64.898 134.951C62.9767 136.281 60.6353 137.576 58.744 136.614C58.4666 136.474 58.1956 136.264 58.1135 135.927C57.974 135.33 58.4914 134.732 58.6632 134.104C59.0181 132.789 57.666 131.783 56.476 131.98C55.286 132.177 54.2285 133.069 53.0966 133.616C52.1093 134.093 51.0459 134.309 50.0247 134.238C48.6872 134.147 47.2012 133.065 47.5936 131.569C47.8805 130.48 48.9667 129.927 49.8609 129.366C50.7552 128.805 51.7001 127.7 51.3476 126.707C51.0438 125.855 50.019 125.794 49.1761 125.783C47.1152 125.758 45.0951 125.346 43.2238 124.564C41.9192 124.017 40.6377 123.249 39.8953 121.942C39.1529 120.635 39.1024 118.682 40.1035 117.396C41.0393 116.197 42.5681 115.906 43.8972 116.033C47.5119 116.378 50.3707 119.036 53.5728 120.698C54.3294 121.09 55.4589 121.295 55.9242 120.422C56.2532 119.805 55.9857 119.089 55.8011 118.459C55.3487 116.917 55.455 115.121 56.0897 113.534C56.1984 113.262 56.3276 112.985 56.5421 112.801C57.0262 112.387 57.6847 112.643 58.1233 113.02C60.1635 114.75 60.474 118.381 62.6698 119.866C62.9629 120.067 63.3315 120.218 63.6733 120.064C63.9244 119.949 64.1082 119.692 64.2464 119.431C64.8134 118.343 64.7478 117.059 64.9313 115.849C65.1087 114.643 65.77 113.244 66.8425 113.082C67.6492 112.958 68.3186 113.603 68.7943 114.283C70.2489 116.38 70.8227 119.17 70.8523 121.952C70.8809 124.449 70.7752 127.773 69.905 130.216C69.092 132.502 66.6665 133.727 64.898 134.951Z" fill="#E8F3FF"/>
<path d="M44.3411 120.443L69.7128 129.678" stroke="#E5EDF7" stroke-linecap="round"/>
<path d="M50.6927 131.788C52.2193 130.888 53.7436 129.982 55.2702 129.083" stroke="#E5EDF7" stroke-linecap="round"/>
<path d="M57.2318 127.733C58.047 127.311 58.8581 126.887 59.6733 126.464" stroke="#E5EDF7" stroke-linecap="round"/>
<path d="M60.1229 134.473C62.7011 132.763 65.2981 131.093 67.9179 129.465" stroke="#E5EDF7" stroke-linecap="round"/>
<path d="M63.9206 127.347C62.2268 124.26 60.5708 121.148 58.9484 118.01" stroke="#E5EDF7" stroke-linecap="round"/>
<path fill-rule="evenodd" clip-rule="evenodd" d="M220 90.3143L217.282 103.678L215.534 101.946L212.557 104.101L210.283 101.234L205.181 105L200.823 97.5976L195.96 100.489L194.033 97.7893L187.858 101.322L186 97.2838L190.328 76L213.531 80.8643L220 90.3143Z" fill="#C8DEF9"/>
<path fill-rule="evenodd" clip-rule="evenodd" d="M213.569 81L220 90L212 88.3932L213.569 81Z" fill="#B0D3FF"/>
<path fill-rule="evenodd" clip-rule="evenodd" d="M217 106.394L212.927 126L181 119.45L185.041 100L186.939 104.038L193.247 100.505L195.217 103.205L200.185 100.314L204.636 107.716L209.849 103.95L212.172 106.816L215.214 104.662L217 106.394Z" fill="#C8DEF9"/>
<path fill-rule="evenodd" clip-rule="evenodd" d="M167 104.952L133.65 107L131 64.5204L155.763 63L164.856 70.5669L167 104.952Z" fill="#C2DDFF"/>
<path fill-rule="evenodd" clip-rule="evenodd" d="M155 63L164 70.4788L155.5 71L155 63Z" fill="#B0D3FF"/>
<path fill-rule="evenodd" clip-rule="evenodd" d="M145.843 96.8079C145.764 95.4285 146.657 94.4069 147.985 94.3338C149.313 94.2607 150.279 95.18 150.357 96.5594C150.432 97.864 149.617 98.9185 148.213 98.9961C146.885 99.0689 145.917 98.1124 145.843 96.8079ZM146.38 91.5426L146.249 90.5775C145.906 88.5769 146.464 86.3397 148.233 83.9988C149.828 81.9289 150.694 80.4229 150.598 78.7453C150.49 76.844 149.204 75.6432 146.811 75.7374C145.445 75.8126 143.953 76.3435 143.045 77.1041L142 74.8056C143.202 73.842 145.33 73.1263 147.341 73.0157C151.704 72.7756 153.828 75.3142 153.989 78.1473C154.134 80.6823 152.796 82.5881 151.096 84.8134C149.537 86.8438 149.024 88.5177 149.246 90.4125L149.339 91.38L146.38 91.5426Z" fill="#B0D3FF"/>
<path fill-rule="evenodd" clip-rule="evenodd" d="M192.62 159H107L119.38 100H205L192.62 159Z" fill="#0D7DFF"/>
<path fill-rule="evenodd" clip-rule="evenodd" d="M149 100H119L120.283 93H148.315L149 100Z" fill="#0D7DFF"/>
<path fill-rule="evenodd" clip-rule="evenodd" d="M192 159H106.184L95.1012 109.88C94.5368 107.379 96.4388 105 99.0031 105H176.618C178.488 105 180.108 106.296 180.52 108.12L192 159Z" fill="#58A4FD"/>
<path fill-rule="evenodd" clip-rule="evenodd" d="M202.575 117.093C202.832 117.038 203.088 116.978 203.343 116.912L203.246 116.534C202.996 116.598 202.745 116.658 202.494 116.711L202.575 117.093" fill="#132529"/>
<path fill-rule="evenodd" clip-rule="evenodd" d="M187.872 139C188.267 138.865 188.656 138.716 189.038 138.552L188.918 138.265C188.543 138.425 188.161 138.572 187.774 138.704L187.872 139ZM190.168 138.018C190.539 137.824 190.902 137.618 191.255 137.398L191.093 137.132C190.747 137.347 190.391 137.551 190.027 137.74L190.168 138.018ZM192.29 136.695C192.629 136.445 192.955 136.182 193.266 135.908L193.063 135.672C192.759 135.94 192.44 136.198 192.108 136.443L192.29 136.695ZM194.17 135.036C194.46 134.728 194.734 134.408 194.987 134.079L194.743 133.887C194.497 134.208 194.23 134.52 193.947 134.82L194.17 135.036ZM195.699 133.038C195.919 132.674 196.116 132.299 196.286 131.916L196.004 131.788C195.84 132.159 195.65 132.522 195.436 132.875L195.699 133.038ZM196.72 130.725C196.837 130.318 196.924 129.903 196.979 129.481L196.673 129.441C196.62 129.846 196.536 130.245 196.424 130.638L196.72 130.725ZM197.06 128.216C197.06 128.186 197.06 128.156 197.06 128.126C197.06 127.728 197.04 127.338 197.001 126.955L196.694 126.987C196.732 127.36 196.752 127.739 196.752 128.126C196.752 128.155 196.752 128.184 196.752 128.214L197.06 128.216ZM196.806 125.707C196.72 125.294 196.612 124.887 196.487 124.487L196.193 124.581C196.315 124.972 196.42 125.369 196.505 125.772L196.806 125.707ZM196.06 123.303C195.903 122.916 195.73 122.534 195.546 122.156L195.269 122.295C195.451 122.667 195.62 123.042 195.775 123.421L196.06 123.303ZM194.963 121.046C194.761 120.683 194.549 120.323 194.33 119.966L194.068 120.13C194.285 120.484 194.495 120.841 194.694 121.199L194.963 121.046ZM193.663 118.909C193.437 118.561 193.207 118.215 192.975 117.868L192.72 118.043C192.952 118.389 193.181 118.735 193.405 119.08L193.663 118.909ZM192.279 116.836C192.047 116.494 191.815 116.15 191.585 115.805L191.329 115.979C191.56 116.325 191.792 116.67 192.024 117.012L192.279 116.836ZM190.904 114.765C190.681 114.417 190.461 114.066 190.248 113.712L189.985 113.874C190.2 114.232 190.421 114.585 190.645 114.935L190.904 114.765ZM189.628 112.639C189.429 112.277 189.237 111.911 189.056 111.541L188.78 111.679C188.963 112.055 189.157 112.425 189.358 112.791L189.628 112.639ZM188.545 110.415C188.388 110.036 188.241 109.652 188.109 109.261L187.817 109.362C187.952 109.76 188.101 110.151 188.261 110.536L188.545 110.415ZM187.759 108.078C187.658 107.683 187.573 107.281 187.504 106.871L187.2 106.923C187.27 107.342 187.357 107.753 187.46 108.155L187.759 108.078ZM187.353 105.648C187.324 105.277 187.308 104.899 187.308 104.514C187.308 104.481 187.308 104.447 187.309 104.414L187 104.412C187 104.446 187 104.48 187 104.514C187 104.907 187.016 105.293 187.046 105.673L187.353 105.648ZM187.369 103.18C187.377 103.094 187.386 103.008 187.395 102.922C187.431 102.59 187.476 102.268 187.53 101.956L187.227 101.902C187.171 102.221 187.125 102.55 187.088 102.888C187.079 102.976 187.07 103.064 187.062 103.151L187.369 103.18ZM187.797 100.753C187.908 100.345 188.036 99.9557 188.18 99.5844L187.892 99.4708C187.745 99.8524 187.614 100.252 187.5 100.67L187.797 100.753ZM188.685 98.4661C188.879 98.0957 189.09 97.7462 189.316 97.4164L189.063 97.2385C188.829 97.5783 188.612 97.9387 188.412 98.3203L188.685 98.4661ZM190.069 96.4528C190.342 96.1436 190.631 95.8562 190.933 95.5891L190.73 95.3545C190.419 95.6294 190.121 95.9258 189.839 96.2447L190.069 96.4528ZM191.894 94.8349C192.23 94.6009 192.578 94.3878 192.934 94.1937L192.788 93.9191C192.422 94.1179 192.065 94.3372 191.719 94.5778L191.894 94.8349ZM194.036 93.6648C194.413 93.506 194.797 93.3662 195.184 93.2442L195.092 92.9462C194.696 93.071 194.304 93.2142 193.917 93.3768L194.036 93.6648ZM196.365 92.9259C196.766 92.8357 197.169 92.7624 197.568 92.7053L197.525 92.3964C197.118 92.4547 196.708 92.5293 196.298 92.6213L196.365 92.9259ZM198.785 92.5783C199.153 92.5536 199.515 92.5421 199.869 92.5421C199.916 92.5421 199.963 92.5424 200.009 92.5427L200.012 92.2307C199.964 92.2304 199.917 92.2301 199.869 92.2301C199.509 92.2301 199.14 92.2419 198.765 92.2669L198.785 92.5783ZM201.23 92.6007C201.655 92.6379 202.061 92.6915 202.442 92.7596L202.495 92.4522C202.105 92.3826 201.69 92.3277 201.257 92.2896L201.23 92.6007ZM203.626 93.0392C203.696 93.0601 203.763 93.0816 203.829 93.1037C204.169 93.2167 204.475 93.3446 204.749 93.4841L204.888 93.2055C204.599 93.0582 204.279 92.9246 203.926 92.8073C203.857 92.7845 203.787 92.7621 203.715 92.7402L203.626 93.0392ZM205.742 94.1509C206.069 94.4442 206.306 94.7594 206.461 95.0802L206.738 94.9426C206.564 94.5822 206.301 94.2349 205.946 93.9172L205.742 94.1509ZM206.692 96.2107C206.667 96.5951 206.539 96.9664 206.317 97.2994L206.573 97.4738C206.824 97.0978 206.972 96.6725 207 96.231L206.692 96.2107ZM205.471 98.1C205.159 98.2916 204.791 98.4405 204.373 98.5303L204.437 98.8355C204.887 98.7388 205.287 98.5778 205.631 98.3671L205.471 98.1ZM203.185 98.6211C203.022 98.6133 202.856 98.5977 202.684 98.574C202.449 98.5413 202.215 98.5016 201.986 98.4551L201.925 98.7612C202.161 98.809 202.401 98.8496 202.642 98.8833C202.823 98.9082 202.999 98.9244 203.17 98.9329L203.185 98.6211ZM200.806 98.149C200.416 98.0248 200.036 97.8797 199.667 97.715L199.542 98.0005C199.922 98.1699 200.312 98.3188 200.713 98.4467L200.806 98.149ZM198.582 97.1568C198.231 96.9502 197.891 96.7243 197.565 96.4803L197.382 96.7311C197.717 96.982 198.065 97.2142 198.427 97.4264L198.582 97.1568ZM196.628 95.6955C196.331 95.4175 196.048 95.1229 195.78 94.8124L195.547 95.0175C195.823 95.3364 196.113 95.639 196.419 95.9245L196.628 95.6955ZM195.028 93.8426C194.796 93.5088 194.58 93.1609 194.379 92.7995L194.11 92.9521C194.316 93.3225 194.538 93.6798 194.776 94.0224L195.028 93.8426ZM193.836 91.6955C193.675 91.3223 193.529 90.9379 193.401 90.5429L193.108 90.6405C193.239 91.0446 193.388 91.4384 193.554 91.8207L193.836 91.6955ZM193.073 89.354C192.983 88.9577 192.909 88.5524 192.852 88.1396L192.546 88.1826C192.605 88.6045 192.68 89.0186 192.773 89.4239L193.073 89.354ZM192.734 86.9095C192.72 86.6331 192.712 86.3532 192.712 86.0708C192.712 85.9388 192.713 85.8065 192.717 85.6736L192.409 85.6658C192.405 85.8012 192.403 85.9363 192.403 86.0708C192.403 86.3588 192.411 86.6443 192.426 86.9267L192.734 86.9095ZM192.795 84.4392C192.836 84.0351 192.892 83.6263 192.964 83.2135L192.66 83.1592C192.587 83.5795 192.53 83.9958 192.488 84.4077L192.795 84.4392ZM193.217 82.0022C193.314 81.6078 193.425 81.2102 193.551 80.8102L193.257 80.7153C193.129 81.1219 193.016 81.526 192.918 81.927L193.217 82.0022ZM193.959 79.6413C194.109 79.25 194.272 78.8722 194.445 78.5074L194.167 78.3723C193.99 78.7442 193.825 79.1293 193.671 79.5284L193.959 79.6413ZM195.018 77.4156C195.227 77.0536 195.446 76.7063 195.674 76.3728L195.421 76.1949C195.188 76.535 194.964 76.8895 194.751 77.2586L195.018 77.4156ZM196.409 75.3842C196.67 75.0597 196.94 74.7502 197.217 74.455L196.993 74.2403C196.711 74.5411 196.436 74.8566 196.17 75.1873L196.409 75.3842ZM198.09 73.5878C198.396 73.3045 198.707 73.0371 199.021 72.7844L198.829 72.54C198.51 72.7972 198.193 73.0692 197.881 73.3576L198.09 73.5878ZM200.005 72.0448C200.348 71.8036 200.692 71.5787 201.032 71.3693L200.872 71.1025C200.527 71.315 200.177 71.5434 199.828 71.7887L200.005 72.0448ZM202.099 70.7571C202.475 70.5555 202.844 70.373 203.199 70.2073L203.07 69.9239C202.71 70.0915 202.336 70.2768 201.955 70.4812L202.099 70.7571ZM204.328 69.7199C204.745 69.5532 205.133 69.4131 205.482 69.2961L205.385 69C205.031 69.1186 204.638 69.2609 204.215 69.4297L204.328 69.7199Z" fill="#061426"/>
<path fill-rule="evenodd" clip-rule="evenodd" d="M212.469 66.6459C211.665 64.1547 206.282 65.0498 207.332 68.3045C208.384 71.5595 213.274 69.1372 212.469 66.6459Z" fill="#0D7DFF"/>
<path fill-rule="evenodd" clip-rule="evenodd" d="M204.404 65.6415C204.445 64.5488 205.965 63.7082 208.113 64.0962C210.262 64.4842 212.285 65.9312 212.285 65.9312C212.285 65.9312 210.161 67.2307 207.989 67.4599C205.819 67.689 204.364 66.739 204.404 65.6415Z" fill="#94C3FF"/>
<path fill-rule="evenodd" clip-rule="evenodd" d="M212.285 65.9313C211.17 65.9389 210.056 65.9014 208.942 65.8673C207.828 65.8197 206.714 65.7756 205.602 65.6855C206.718 65.6776 207.832 65.7154 208.946 65.7495C210.06 65.797 211.173 65.8415 212.285 65.9313Z" fill="#0D7DFF"/>
<path fill-rule="evenodd" clip-rule="evenodd" d="M206.564 64.674C206.887 64.8186 207.185 65.0015 207.486 65.1814C207.779 65.3731 208.074 65.5615 208.345 65.7888C208.022 65.6444 207.724 65.4613 207.423 65.2817C207.13 65.0897 206.835 64.9012 206.564 64.674Z" fill="#0D7DFF"/>
<path fill-rule="evenodd" clip-rule="evenodd" d="M209.485 65.8281C209.202 66.0677 208.895 66.2694 208.59 66.4739C208.277 66.6672 207.967 66.8632 207.632 67.0208C207.914 66.7806 208.221 66.5792 208.526 66.3747C208.839 66.1818 209.149 65.986 209.485 65.8281Z" fill="#0D7DFF"/>
<path fill-rule="evenodd" clip-rule="evenodd" d="M209.809 65.2129C209.975 65.2844 210.113 65.3913 210.253 65.4953C210.385 65.6103 210.519 65.7222 210.624 65.8701C210.457 65.7988 210.319 65.6917 210.179 65.5873C210.048 65.4726 209.914 65.3604 209.809 65.2129Z" fill="#0D7DFF"/>
<path fill-rule="evenodd" clip-rule="evenodd" d="M206.452 72.1256C207.123 72.9883 208.848 72.7812 210.364 71.2099C211.88 69.639 212.675 67.2817 212.675 67.2817C212.675 67.2817 210.192 67.4699 208.296 68.5538C206.401 69.6378 205.777 71.2588 206.452 72.1256Z" fill="#94C3FF"/>
<path fill-rule="evenodd" clip-rule="evenodd" d="M212.675 67.2817C211.765 67.9278 210.884 68.6099 210 69.2888C209.125 69.9788 208.247 70.6659 207.398 71.3893C208.307 70.7435 209.189 70.0614 210.073 69.3821C210.948 68.6919 211.825 68.0047 212.675 67.2817Z" fill="#0D7DFF"/>
<path fill-rule="evenodd" clip-rule="evenodd" d="M208.769 71.6471C208.946 71.3414 209.082 71.0183 209.22 70.6968C209.346 70.37 209.475 70.0444 209.562 69.7018C209.384 70.0075 209.249 70.3306 209.111 70.6524C208.985 70.9792 208.856 71.3048 208.769 71.6471Z" fill="#0D7DFF"/>
<path fill-rule="evenodd" clip-rule="evenodd" d="M210.463 69.0034C210.094 68.974 209.727 68.9901 209.36 69.0024C208.994 69.0286 208.627 69.0513 208.263 69.1197C208.632 69.1493 208.999 69.1329 209.366 69.1203C209.733 69.0941 210.099 69.0714 210.463 69.0034Z" fill="#0D7DFF"/>
<path fill-rule="evenodd" clip-rule="evenodd" d="M211.086 69.3129C211.179 69.1575 211.229 68.9902 211.282 68.8234C211.321 68.6536 211.364 68.4843 211.363 68.3034C211.269 68.4584 211.22 68.6258 211.167 68.7922C211.128 68.9624 211.085 69.1317 211.086 69.3129Z" fill="#0D7DFF"/>
<path fill-rule="evenodd" clip-rule="evenodd" d="M212.469 66.6459C211.973 66.8064 211.441 66.5337 211.281 66.0376C211.12 65.5412 211.393 65.0088 211.889 64.8487C212.385 64.6883 212.918 64.9609 213.078 65.457C213.238 65.9534 212.966 66.4858 212.469 66.6459Z" fill="#0D7DFF"/>
<path fill-rule="evenodd" clip-rule="evenodd" d="M213.05 68.4433C212.554 68.6034 212.021 68.3311 211.861 67.8346C211.701 67.3382 211.973 66.8062 212.47 66.6457C212.966 66.4856 213.498 66.7579 213.658 67.2544C213.819 67.7508 213.546 68.2828 213.05 68.4433Z" fill="#0D7DFF"/>
<path fill-rule="evenodd" clip-rule="evenodd" d="M100.724 82.0856C105.989 83.1551 109.392 88.2933 108.322 93.5587C107.89 95.6865 106.793 97.5094 105.287 98.8576L105.531 103.771L101.576 100.943C100.088 101.393 98.4717 101.487 96.8489 101.157C91.5835 100.088 88.1808 94.9489 89.2502 89.6839C90.32 84.4185 95.4583 81.0157 100.724 82.0856Z" fill="#A4CEFF"/>
<path fill-rule="evenodd" clip-rule="evenodd" d="M95.0561 94.544L92.8999 87.1022L94.3996 86.7147L96.1185 94.2695L95.0561 94.544ZM95.2428 96.879C95.0975 96.3166 95.383 95.8094 95.914 95.6722C96.4768 95.5268 96.9409 95.8403 97.0862 96.4027C97.2274 96.9493 96.9773 97.4638 96.4145 97.6093C95.868 97.7505 95.3841 97.4255 95.2428 96.879Z" fill="#E4F0FF"/>
<path fill-rule="evenodd" clip-rule="evenodd" d="M98.6496 93.6155L96.4938 86.1736L97.9931 85.7862L99.712 93.341L98.6496 93.6155ZM98.8364 95.9505C98.691 95.3881 98.9765 94.8809 99.5079 94.7436C100.07 94.5984 100.535 94.9118 100.68 95.4742C100.821 96.0207 100.57 96.5355 100.008 96.6807C99.4615 96.822 98.9776 96.4971 98.8364 95.9505Z" fill="#E4F0FF"/>
<path fill-rule="evenodd" clip-rule="evenodd" d="M102.243 92.687L100.087 85.2451L101.587 84.8576L103.305 92.4126L102.243 92.687ZM102.43 95.0221C102.284 94.4597 102.57 93.9524 103.101 93.8152C103.664 93.6699 104.128 93.9834 104.273 94.5458C104.414 95.0923 104.164 95.6069 103.602 95.7522C103.055 95.8935 102.571 95.5686 102.43 95.0221Z" fill="#E4F0FF"/>
</svg>
