<svg width="35" height="19" viewBox="0 0 35 19" fill="none" xmlns="http://www.w3.org/2000/svg">
<path d="M18.2236 18.9972C20.6654 18.9324 23.109 18.9382 25.5514 18.8901C25.8824 18.8837 26.2314 18.783 26.5374 18.6466C27.3548 18.2821 27.7169 17.5259 27.5304 16.6491C27.4878 16.4481 27.4003 16.2565 27.3253 16.0378C28.2399 16.0378 28.8526 15.5978 29.1695 14.7765C29.4841 13.9574 29.2928 13.2071 28.7193 12.5151C29.0189 12.5155 29.2733 12.5045 29.5264 12.5177C31.013 12.5913 31.8195 11.0983 31.4661 9.93184C31.3888 9.67505 31.2597 9.43505 31.1482 9.17214C31.2264 9.16827 31.3103 9.16149 31.3943 9.16117C31.9304 9.1602 32.4665 9.16407 33.0029 9.1602C33.6697 9.15569 34.2305 8.91116 34.5894 8.33373C34.7621 8.05533 34.9105 7.74145 34.9752 7.41467C35.0124 7.22402 35.004 7.02337 34.9749 6.83078C34.9566 6.70981 34.9005 6.59626 34.864 6.48142C34.7739 6.19754 34.5846 5.88592 34.3804 5.64237C34.011 5.20074 33.4858 5.07396 32.9317 5.07687C31.974 5.08171 31.0165 5.10364 30.0584 5.10751C27.466 5.11816 24.873 5.12461 22.281 5.13106C22.2179 5.13138 22.1551 5.12332 22.0919 5.11945C22.48 4.92654 22.878 4.79041 23.2603 4.61879C23.7358 4.40556 24.2469 4.28104 24.649 3.89425C25.5745 3.00391 25.4751 1.72774 24.9451 0.821912C24.5186 0.0935052 23.5551 -0.164244 22.62 0.10286C20.5208 0.701264 18.4216 1.29934 16.3266 1.91065C15.6726 2.1013 15.0058 2.23969 14.3989 2.59099C12.5496 3.66134 10.685 4.70557 8.82259 5.75205C8.59539 5.87979 8.34898 5.9827 8.10032 6.06076C7.33062 6.30206 6.55548 6.52497 5.78258 6.75691C5.19586 6.93208 4.99559 7.19821 5.00007 7.81178C5.01642 10.4299 5.03628 13.0487 5.05455 15.6675C5.05775 16.2756 5.31699 16.582 5.92198 16.7085C8.75658 17.3007 11.5909 17.8956 14.4245 18.4892C15.6784 18.7521 16.9226 19.0308 18.2236 18.9972Z" fill="#FFE8D3"/>
<path fill-rule="evenodd" clip-rule="evenodd" d="M22.381 18.9324C20.995 18.9464 19.609 18.9605 18.2236 18.9972C16.9904 19.029 15.8082 18.7803 14.6205 18.5304C14.5552 18.5166 14.4899 18.5029 14.4245 18.4892C13.5639 18.3089 12.7032 18.1285 11.8425 17.9481C9.86919 17.5345 7.89566 17.1209 5.92198 16.7085C5.31699 16.582 5.05775 16.2756 5.05455 15.6675C5.04884 14.8484 5.04297 14.0293 5.0371 13.2102C5.0242 11.4105 5.0113 9.61101 5.00007 7.81178C4.99559 7.19821 5.19586 6.93208 5.78258 6.75691C6.03495 6.68118 6.28755 6.60641 6.54012 6.53165C7.06109 6.37744 7.58194 6.22327 8.10032 6.06076C8.34898 5.9827 8.59539 5.87979 8.82259 5.75205C8.99372 5.65588 9.16488 5.55974 9.33605 5.46359C11.0275 4.51343 12.7195 3.56299 14.3989 2.59099C14.887 2.30841 15.414 2.16359 15.9419 2.01852C16.0703 1.98324 16.1987 1.94795 16.3266 1.91065C18.3758 1.31271 20.429 0.727423 22.4823 0.142111L22.62 0.10286C23.5551 -0.164244 24.5186 0.0935052 24.9451 0.821912C25.4751 1.72774 25.5745 3.00391 24.649 3.89425C24.3482 4.18363 23.9863 4.32621 23.624 4.46897C23.502 4.51702 23.38 4.56509 23.2603 4.61879C23.1044 4.68875 22.946 4.75281 22.7867 4.81722C22.5552 4.91082 22.3218 5.00517 22.0919 5.11945C22.113 5.12074 22.1341 5.1225 22.1551 5.12426C22.1971 5.12777 22.239 5.13128 22.281 5.13106L22.2846 5.13105C24.8754 5.1246 27.4672 5.11815 30.0584 5.10751C30.5507 5.10552 31.0428 5.09876 31.5349 5.09201C32.0005 5.08561 32.4661 5.07922 32.9317 5.07687C33.4858 5.07396 34.011 5.20074 34.3804 5.64237C34.5846 5.88592 34.7739 6.19754 34.864 6.48142C34.8761 6.51936 34.8903 6.55717 34.9045 6.59514C34.9334 6.67211 34.9626 6.74978 34.9749 6.83078C35.004 7.02337 35.0124 7.22402 34.9752 7.41467C34.9105 7.74145 34.7621 8.05533 34.5894 8.33373C34.2305 8.91116 33.6697 9.15569 33.0029 9.1602C32.6728 9.16259 32.3428 9.16203 32.0129 9.16148C31.8067 9.16114 31.6005 9.1608 31.3943 9.16117C31.3342 9.1614 31.2741 9.16494 31.2162 9.16835C31.1931 9.1697 31.1704 9.17104 31.1482 9.17214C31.1839 9.25642 31.2215 9.33836 31.2586 9.41924C31.3372 9.59066 31.4136 9.75738 31.4661 9.93184C31.8195 11.0983 31.013 12.5913 29.5264 12.5177C29.3565 12.5088 29.1859 12.5109 29.0014 12.5131C28.9112 12.5141 28.8177 12.5152 28.7193 12.5151C29.2928 13.2071 29.4841 13.9574 29.1695 14.7765C28.8526 15.5978 28.2399 16.0378 27.3253 16.0378C27.3493 16.1076 27.3745 16.1747 27.3991 16.2402C27.4516 16.3798 27.5014 16.5123 27.5304 16.6491C27.7169 17.5259 27.3548 18.2821 26.5374 18.6466C26.2314 18.783 25.8824 18.8837 25.5514 18.8901C24.4948 18.9109 23.4379 18.9216 22.381 18.9324ZM10.2237 16.5995C11.7758 16.9235 13.3278 17.2475 14.8786 17.5755C16.0194 17.8176 17.1555 18.0266 18.3345 17.9972C19.738 17.9627 21.1425 17.9497 22.5471 17.9366C23.4759 17.928 24.4047 17.9194 25.3332 17.9046C25.5948 17.9007 25.8653 17.8322 26.1141 17.744C26.4554 17.6226 26.6896 17.3837 26.683 16.9849C26.6769 16.5096 26.4779 16.1793 26.0786 16.0417C25.8938 15.978 25.6884 15.9566 25.4913 15.9554C25.026 15.9521 24.5608 15.9519 24.0955 15.9518C23.4378 15.9516 22.78 15.9515 22.1224 15.9423C21.9916 15.9398 21.7974 15.8445 21.7488 15.7391C21.6866 15.6037 21.6799 15.3619 21.7634 15.2603C21.8577 15.146 22.0786 15.0886 22.2446 15.0873C22.9817 15.0822 23.719 15.0818 24.4563 15.0815C25.4082 15.081 26.3601 15.0806 27.3118 15.0698C27.5438 15.0663 27.8117 14.9685 27.9971 14.8271C28.3838 14.5318 28.4885 13.9505 28.3069 13.464C28.1339 12.9999 27.7778 12.7687 27.2251 12.7677C26.8823 12.7675 26.5395 12.7677 26.1968 12.7679C25.1899 12.7684 24.1833 12.7689 23.1766 12.761C23.0544 12.7604 22.8884 12.7034 22.8204 12.6126C22.649 12.3858 22.6265 12.1175 22.7538 11.8481C22.8649 11.613 23.069 11.6136 23.2829 11.6142L23.2864 11.6142C24.1517 11.615 25.017 11.6151 25.8824 11.6152C27.0805 11.6153 28.2788 11.6154 29.477 11.6174C29.7989 11.6181 30.0823 11.5368 30.2953 11.2868C30.6388 10.8829 30.7013 10.4248 30.495 9.94189C30.3033 9.49306 29.9462 9.2876 29.4573 9.29938C29.2112 9.30511 28.9642 9.30368 28.7173 9.30225C28.6069 9.30161 28.4966 9.30097 28.3863 9.30097C27.9801 9.30097 27.5738 9.30085 27.1676 9.30072C25.7456 9.30028 24.3235 9.29984 22.9014 9.3048C22.6709 9.3048 22.5138 9.23217 22.4335 9.01365C22.291 8.62598 22.5036 8.30775 22.9131 8.29374C22.9689 8.29192 23.0248 8.29253 23.0808 8.29315C23.1032 8.2934 23.1256 8.29365 23.148 8.29374C26.3608 8.2931 29.5735 8.29246 32.7866 8.29469C33.1481 8.29437 33.4871 8.23672 33.7195 7.92805C34.036 7.50948 34.0877 7.04918 33.8592 6.57423C33.6516 6.14133 33.2932 5.98429 32.817 5.98875C30.5894 6.01037 28.3614 6.02065 26.1339 6.03094C25.8018 6.03247 25.4698 6.034 25.1377 6.03557C23.3788 6.04354 21.6202 6.04959 19.8616 6.04386C19.7121 6.04322 19.5236 5.98206 19.4236 5.8798C19.1728 5.62369 19.2896 5.24526 19.6382 5.11116C20.4477 4.79987 21.2579 4.48989 22.0682 4.17991C22.5879 3.98108 23.1075 3.78226 23.627 3.5831C24.1257 3.39229 24.4774 2.94187 24.4584 2.40416L24.4574 2.37559C24.4511 2.19529 24.4473 2.0864 24.4222 1.89831C24.3625 1.44025 24.008 1.06946 23.5781 1.01977C23.3102 0.988231 23.0182 0.989187 22.7604 1.0615C21.2875 1.47106 19.8175 1.89224 18.3477 2.3134C17.8409 2.4586 17.3342 2.60379 16.8273 2.74851C15.9852 2.98933 15.1548 3.23079 14.3834 3.68567C13.0835 4.45216 11.7658 5.18836 10.4479 5.92465C10.0192 6.16418 9.59042 6.40372 9.16226 6.64431C9.02005 6.72427 8.86546 6.78925 8.70929 6.83671C8.04914 7.03858 7.38778 7.23645 6.71795 7.43686C6.47982 7.50811 6.24061 7.57968 6 7.65187V7.94206C6.00611 8.67428 6.012 9.40643 6.01789 10.1386C6.03188 11.8787 6.04587 13.6188 6.06285 15.3594C6.0652 15.5853 6.04864 15.6744 6.08569 15.7182C6.1236 15.7631 6.21768 15.7605 6.44568 15.8085C7.70475 16.0736 8.96426 16.3366 10.2237 16.5995Z" fill="#DBB089"/>
<path d="M0.5 6.5H7C7.27614 6.5 7.5 6.72386 7.5 7V17C7.5 17.2761 7.27614 17.5 7 17.5H0.5V6.5Z" fill="#A9D0FC" stroke="#4A90E2"/>
<circle cx="5" cy="9" r="1" fill="white"/>
</svg>
