<svg width="131" height="131" viewBox="0 0 131 131" fill="none" xmlns="http://www.w3.org/2000/svg">
<path fill-rule="evenodd" clip-rule="evenodd" d="M0.117188 6.36914C0.117188 3.05543 2.80348 0.369141 6.11719 0.369141H124.117C127.431 0.369141 130.117 3.05543 130.117 6.36914V124.369C130.117 127.683 127.431 130.369 124.117 130.369H6.11719C2.80348 130.369 0.117188 127.683 0.117188 124.369V6.36914Z" fill="white"/>
<mask id="mask0" mask-type="alpha" maskUnits="userSpaceOnUse" x="0" y="0" width="131" height="131">
<path fill-rule="evenodd" clip-rule="evenodd" d="M0.117188 6.36914C0.117188 3.05543 2.80348 0.369141 6.11719 0.369141H124.117C127.431 0.369141 130.117 3.05543 130.117 6.36914V124.369C130.117 127.683 127.431 130.369 124.117 130.369H6.11719C2.80348 130.369 0.117188 127.683 0.117188 124.369V6.36914Z" fill="white"/>
</mask>
<g mask="url(#mask0)">
<path opacity="0.05" d="M17.1172 47.1635C61.4249 31.4242 81.1172 66.8376 81.1172 47.1635C81.1172 27.4893 57.4864 17.6523 45.671 5.84778C33.8557 -5.95671 39.0264 -25.6309 21.0556 -25.6309C3.08492 -25.6309 12.1387 -14.6023 -7.4982 -5.95671C-27.1351 2.68885 -46.8828 -19.7286 -46.8828 5.84778C-46.8828 31.4242 -27.1905 62.9028 17.1172 47.1635Z" fill="#675AF6"/>
<path fill-rule="evenodd" clip-rule="evenodd" d="M27.3384 22.6964C26.6643 22.6964 26.1172 22.1505 26.1172 21.4752C26.1172 20.7999 26.6643 20.254 27.3384 20.254C29.3583 20.254 31.002 18.6102 31.002 16.5904C31.002 15.915 31.5491 15.3691 32.2232 15.3691C32.8974 15.3691 33.4445 15.915 33.4445 16.5904C33.4445 18.6102 35.0882 20.254 37.1081 20.254C37.7822 20.254 38.3293 20.7999 38.3293 21.4752C38.3293 22.1505 37.7822 22.6964 37.1081 22.6964C35.0882 22.6964 33.4445 24.3402 33.4445 26.36C33.4445 27.0354 32.8974 27.5813 32.2232 27.5813C31.5491 27.5813 31.002 27.0354 31.002 26.36C31.002 24.3402 29.3583 22.6964 27.3384 22.6964ZM33.4481 21.4752C32.9853 21.1272 32.5713 20.7144 32.2232 20.2503C31.8752 20.7144 31.4612 21.1272 30.9984 21.4752C31.4612 21.8232 31.8752 22.236 32.2232 22.7001C32.5713 22.236 32.9853 21.8232 33.4481 21.4752Z" fill="#F5F3F6"/>
<path opacity="0.05" d="M54.2448 -13.6308C41.7085 -13.6308 20.0549 -13.6308 15.4962 -1.10601C10.9375 11.4187 48.8406 10.6841 57.6638 19.4992C66.487 28.3143 80.7133 27.3593 94.1331 27.3593C107.553 27.3593 105.01 42.1364 115.787 39.8841C126.564 37.6318 116.926 26.3453 120.345 19.4992C120.345 13.1172 120.345 -13.6308 120.345 -13.6308C120.345 -13.6308 75.3286 -13.6308 54.2448 -13.6308Z" fill="#675AF6"/>
<path opacity="0.05" d="M77.1172 130.163C32.8095 114.424 13.1172 149.838 13.1172 130.163C13.1172 110.489 36.748 100.652 48.5633 88.8478C60.3787 77.0433 55.208 57.3691 73.1787 57.3691C91.1495 57.3691 82.0957 68.3977 101.733 77.0433C121.369 85.6889 141.117 63.2714 141.117 88.8478C141.117 114.424 121.425 145.903 77.1172 130.163Z" fill="#675AF6"/>
<path fill-rule="evenodd" clip-rule="evenodd" d="M89.3273 58.2217C89.3273 60.2416 90.971 61.8853 92.9909 61.8853C93.665 61.8853 94.2121 62.4312 94.2121 63.1065C94.2121 63.7819 93.665 64.3278 92.9909 64.3278C90.971 64.3278 89.3273 65.9715 89.3273 67.9914C89.3273 68.6667 88.7802 69.2126 88.1061 69.2126C87.432 69.2126 86.8848 68.6667 86.8848 67.9914C86.8848 65.9715 85.2411 64.3278 83.2212 64.3278C82.5471 64.3278 82 63.7819 82 63.1065C82 62.4312 82.5471 61.8853 83.2212 61.8853C85.2411 61.8853 86.8848 60.2416 86.8848 58.2217C86.8848 57.5464 87.432 57.0005 88.1061 57.0005C88.7802 57.0005 89.3273 57.5464 89.3273 58.2217ZM86.8812 63.1065C87.344 63.4546 87.758 63.8674 88.1061 64.3314C88.4541 63.8674 88.8681 63.4546 89.3309 63.1065C88.8681 62.7585 88.4541 62.3457 88.1061 61.8817C87.758 62.3457 87.344 62.7585 86.8812 63.1065Z" fill="#DFD8EF"/>
</g>
<path d="M80.0485 55.5685C76.0968 51.5937 70.6252 49.1477 64.8496 49.1477C59.074 49.1477 53.9063 51.5937 49.9546 55.2628C46.0029 59.2375 43.875 64.4353 43.875 70.2446C43.875 76.0539 46.3068 81.5575 49.9546 85.2265C53.9063 89.2013 59.074 91.3416 64.8496 91.3416C70.6252 91.3416 76.0968 88.8956 80.0485 84.9208C84.0003 80.946 86.1281 75.7482 86.1281 69.9389C86.1281 64.7411 83.6963 59.5433 80.0485 55.5685Z" fill="#E6F2FE"/>
<path d="M75.2186 45.3783C75.2186 50.9374 70.7138 55.443 65.1581 55.443C59.6024 55.443 55.0977 50.9374 55.0977 45.3783C55.0977 39.8193 59.6024 35.3137 65.1581 35.3137C70.7138 35.3137 75.2186 39.8193 75.2186 45.3783Z" fill="#675AF6" stroke="#B9B3F9" stroke-width="3"/>
<path fill-rule="evenodd" clip-rule="evenodd" d="M69.3607 41.6097C69.3607 41.3706 69.1417 41.1768 68.8714 41.1768H63.8653H61.4424C61.1722 41.1768 60.9531 41.3706 60.9531 41.6097C60.9531 41.8488 61.1722 42.0426 61.4424 42.0426H63.8653C64.596 42.0426 65.2889 42.3594 65.7188 42.8899C65.9213 43.1398 66.057 43.4167 66.1305 43.7004H61.4424C61.1722 43.7004 60.9531 43.8942 60.9531 44.1333C60.9531 44.3724 61.1722 44.5663 61.4424 44.5663H66.1481C66.1307 44.641 66.1091 44.715 66.0814 44.7876C65.8778 45.3218 65.4151 45.7115 64.7784 45.8848C63.8093 46.1485 62.7271 46.1151 61.6791 46.0825L61.4589 46.0757C61.2534 46.0664 61.0646 46.1782 60.9881 46.3478C60.9116 46.5173 60.9633 46.7107 61.1173 46.832L67.1527 51.5806C67.246 51.654 67.362 51.6901 67.4776 51.6901C67.6126 51.6901 67.7468 51.641 67.8435 51.5448C68.0231 51.3662 68.005 51.0926 67.803 50.9336L62.7659 46.9705C63.5346 46.9695 64.3093 46.9182 65.066 46.7124C66.0118 46.4551 66.7018 45.8698 67.0088 45.0643C67.0707 44.9019 67.1089 44.7348 67.1358 44.5663H68.8714C69.1417 44.5663 69.3607 44.3724 69.3607 44.1333C69.3607 43.8942 69.1417 43.7004 68.8714 43.7004H67.1302C67.0461 43.2379 66.8386 42.7858 66.5143 42.3854C66.414 42.2617 66.3005 42.1494 66.1814 42.0426H68.8714C69.1417 42.0426 69.3607 41.8488 69.3607 41.6097Z" fill="white"/>
<path fill-rule="evenodd" clip-rule="evenodd" d="M64.1022 18.051C64.1022 17.4705 64.5728 17 65.1532 17C65.7336 17 66.2041 17.4705 66.2041 18.051V28.565C66.2041 29.1454 65.7336 29.616 65.1532 29.616C64.5728 29.616 64.1022 29.1454 64.1022 28.565V18.051ZM71.459 22.2545C71.459 21.6741 71.9295 21.2036 72.5099 21.2036C73.0904 21.2036 73.5609 21.6741 73.5609 22.2545V30.6659C73.5609 31.2463 73.0904 31.7169 72.5099 31.7169C71.9295 31.7169 71.459 31.2463 71.459 30.6659V22.2545ZM57.797 21.2036C57.2166 21.2036 56.7461 21.6741 56.7461 22.2545V30.6659C56.7461 31.2463 57.2166 31.7169 57.797 31.7169C58.3775 31.7169 58.848 31.2463 58.848 30.6659V22.2545C58.848 21.6741 58.3775 21.2036 57.797 21.2036Z" fill="#675AF6"/>
<path opacity="0.021964" d="M91.8245 114H38.1755C35.1711 114 32.8955 113.764 33.0037 113.463L34.6261 108.956C34.7342 108.656 37.0325 108.42 39.8493 108.42H90.1507C92.9675 108.42 95.2658 108.656 95.3739 108.956L96.9963 113.463C97.1045 113.764 94.8289 114 91.8245 114Z" fill="#5A6389"/>
<path fill-rule="evenodd" clip-rule="evenodd" d="M90.1518 56.1802H39.8504C37.0336 56.1802 34.8203 58.3903 34.8203 61.2033V103.397C34.8203 106.21 37.0336 108.42 39.8504 108.42H90.1518C92.9687 108.42 95.1819 106.21 95.1819 103.397V61.2033C95.1819 58.3903 92.9687 56.1802 90.1518 56.1802Z" fill="#B9B3F9"/>
<path d="M89.1449 104.402C90.2561 104.402 91.1569 103.502 91.1569 102.392C91.1569 101.283 90.2561 100.383 89.1449 100.383C88.0336 100.383 87.1328 101.283 87.1328 102.392C87.1328 103.502 88.0336 104.402 89.1449 104.402Z" fill="#9D95F8"/>
<path d="M40.8558 104.402C41.967 104.402 42.8679 103.502 42.8679 102.392C42.8679 101.283 41.967 100.383 40.8558 100.383C39.7446 100.383 38.8438 101.283 38.8438 102.392C38.8438 103.502 39.7446 104.402 40.8558 104.402Z" fill="#9D95F8"/>
<path d="M89.1449 64.2172C90.2561 64.2172 91.1569 63.3176 91.1569 62.208C91.1569 61.0983 90.2561 60.1987 89.1449 60.1987C88.0336 60.1987 87.1328 61.0983 87.1328 62.208C87.1328 63.3176 88.0336 64.2172 89.1449 64.2172Z" fill="#9D95F8"/>
<path d="M40.8558 64.2172C41.967 64.2172 42.8679 63.3176 42.8679 62.208C42.8679 61.0983 41.967 60.1987 40.8558 60.1987C39.7446 60.1987 38.8438 61.0983 38.8438 62.208C38.8438 63.3176 39.7446 64.2172 40.8558 64.2172Z" fill="#9D95F8"/>
<path d="M80.0485 56.5732C76.0968 52.5984 70.6252 50.1523 64.8496 50.1523C59.074 50.1523 53.9063 52.5984 49.9546 56.2674C46.0029 60.2422 43.875 65.44 43.875 71.2493C43.875 77.0586 46.3068 82.5621 49.9546 86.2312C53.9063 90.206 59.074 92.3462 64.8496 92.3462C70.6252 92.3462 76.0968 89.9002 80.0485 85.9254C84.0003 81.9506 86.1281 76.7528 86.1281 70.9435C86.1281 65.7457 83.6963 60.5479 80.0485 56.5732Z" fill="#4F44D0"/>
<path d="M77.8965 58.6698C74.5093 55.2629 69.8194 53.1663 64.8688 53.1663C59.9183 53.1663 55.4889 55.2629 52.1017 58.4077C48.7145 61.8147 46.8906 66.2699 46.8906 71.2494C46.8906 76.2288 48.9751 80.9461 52.1017 84.091C55.4889 87.4979 59.9183 89.3324 64.8688 89.3324C69.8194 89.3324 74.5093 87.2359 77.8965 83.8289C81.2837 80.4219 83.1076 75.9667 83.1076 70.9873C83.1076 66.532 81.0232 62.0768 77.8965 58.6698Z" fill="#B9B3F9"/>
<path d="M78.5944 72.5052H79.8415C79.5921 75.7702 78.345 78.5329 76.3495 81.0444L75.6013 80.291C75.1024 79.7887 74.3541 79.7887 73.8553 80.291C73.3564 80.7933 73.3564 81.5467 73.8553 82.049L74.6035 82.8025C72.3587 84.8117 69.3656 86.0675 66.123 86.3187V85.0629C66.123 84.3094 65.6241 83.8071 64.8758 83.8071C64.1276 83.8071 63.6287 84.3094 63.6287 85.0629V86.3187C60.3861 86.0675 57.6424 84.8117 55.1481 82.8025L55.8964 82.049C56.3953 81.5467 56.3953 80.7933 55.8964 80.291C55.3976 79.7887 54.6493 79.7887 54.1504 80.291L53.4022 81.0444C51.4067 78.784 50.1596 75.7702 49.9102 72.5052H51.1573C51.9056 72.5052 52.4044 72.0029 52.4044 71.2494C52.4044 70.496 51.9056 69.9936 51.1573 69.9936H49.9102C50.1596 66.7286 51.4067 63.966 53.4022 61.4544L53.901 61.9567C54.1504 62.2079 54.3999 62.2079 54.6493 62.459C54.8987 62.459 55.3976 62.2079 55.647 61.9567C56.1459 61.4544 56.1459 60.7009 55.647 60.1986L55.1481 59.6963C57.393 57.6871 60.3861 56.4313 63.6287 56.1802V57.4359C63.6287 58.1894 64.1276 58.6917 64.8758 58.6917C65.6241 58.6917 66.123 58.1894 66.123 57.4359V56.1802C69.3656 56.4313 72.1093 57.6871 74.6035 59.6963L73.8553 60.4498C73.6058 60.7009 73.6058 60.9521 73.6058 61.2033C73.6058 61.9567 74.1047 62.459 74.853 62.459C75.1024 62.459 75.6013 62.459 75.8507 62.2079L76.599 61.4544C78.5944 63.7148 79.8415 66.7286 80.091 69.9936H78.8438C77.8461 69.9936 77.3473 70.496 77.3473 71.2494C77.3473 72.0029 77.8461 72.5052 78.5944 72.5052Z" fill="url(#paint0_angular)"/>
<path d="M58.9077 63.5618C58.4478 63.0959 57.7579 63.0959 57.298 63.5618C56.8382 64.0277 56.8382 64.7266 57.298 65.1925L63.3917 71.4823C63.6216 71.7152 63.8516 71.7152 64.0815 71.7152C64.3115 71.7152 64.7714 71.4823 65.0013 71.2493C65.4612 70.7834 65.4612 70.0846 65.0013 69.6186L58.9077 63.5618Z" fill="#C6C2F9"/>
<defs>
<radialGradient id="paint0_angular" cx="0" cy="0" r="1" gradientUnits="userSpaceOnUse" gradientTransform="translate(65.0006 71.2494) scale(15.0904 15.0692)">
<stop offset="0.623341" stop-color="#4F44D0"/>
<stop offset="0.623441" stop-color="#B9B3F9"/>
<stop offset="0.623541" stop-color="#B9B3F9"/>
</radialGradient>
</defs>
</svg>
