<svg width="80" height="60" viewBox="0 0 83 60" fill="none" xmlns="http://www.w3.org/2000/svg">
<path d="M78.5 0H4C1.79086 0 0 1.79086 0 4V56C0 58.2091 1.79086 60 4 60H78.5C80.7091 60 82.5 58.2091 82.5 56V4C82.5 1.79086 80.7091 0 78.5 0Z" fill="#EFEEFB"/>
<mask id="mask0" mask-type="alpha" maskUnits="userSpaceOnUse" x="0" y="0" width="83" height="60">
<path d="M78.5 0H4C1.79086 0 0 1.79086 0 4V56C0 58.2091 1.79086 60 4 60H78.5C80.7091 60 82.5 58.2091 82.5 56V4C82.5 1.79086 80.7091 0 78.5 0Z" fill="white"/>
</mask>
<g mask="url(#mask0)">
<path opacity="0.15" d="M51.8346 -5.25C45.8 -5.25 35.3768 -5.25 33.1824 0.866917C30.988 6.98383 49.2332 6.62507 53.4803 10.9302C57.7275 15.2354 64.5755 14.769 71.0353 14.769C77.4951 14.769 76.271 21.9859 81.4585 20.8859C86.6461 19.7859 82.0071 14.2738 83.6529 10.9302C83.6529 7.81335 83.6529 -5.25 83.6529 -5.25C83.6529 -5.25 61.9835 -5.25 51.8346 -5.25Z" fill="#B9B3F9"/>
<path opacity="0.15" d="M19.5 18.7812C40.7885 11.1528 50.25 28.3166 50.25 18.7812C50.25 9.24573 38.8962 4.478 33.2192 -1.24327C27.5423 -6.96454 30.0267 -16.5 21.3923 -16.5C12.7579 -16.5 17.108 -11.1548 7.67308 -6.96454C-1.76182 -2.7743 -11.25 -13.6394 -11.25 -1.24327C-11.25 11.1528 -1.78846 26.4096 19.5 18.7812Z" fill="#B9B3F9"/>
<path opacity="0.15" d="M63.75 64.5312C42.4615 56.9028 33 74.0666 33 64.5312C33 54.9957 44.3538 50.228 50.0308 44.5067C55.7077 38.7855 53.2233 29.25 61.8577 29.25C70.4921 29.25 66.142 34.5952 75.5769 38.7855C85.0118 42.9757 94.5 32.1106 94.5 44.5067C94.5 56.9028 85.0385 72.1596 63.75 64.5312Z" fill="#B9B3F9"/>
<path d="M45.3225 16.8757V18.1257H21.6289V16.8757C21.6289 16.1882 22.1849 15.6257 22.8769 15.6257H44.0745C44.7671 15.6257 45.3225 16.1882 45.3225 16.8757Z" fill="white"/>
<path d="M44.9596 17.9976H21.9961V39.9976H44.9596V17.9976Z" fill="white"/>
<path fill-rule="evenodd" clip-rule="evenodd" d="M34.2439 23.1288L35.0091 24.0083L36.1536 23.5196C36.339 23.4409 36.5526 23.5422 36.6118 23.7349L36.9609 24.8684L38.2023 24.8905C38.403 24.8937 38.56 25.0731 38.5352 25.2738L38.3971 26.4535L39.5225 26.9822C39.6928 27.0626 39.7665 27.2668 39.6867 27.4384C39.5334 27.7584 39.2556 28.1709 39.0677 28.4885L39.8827 29.4335C40.0143 29.5864 39.985 29.8228 39.8212 29.9389L38.8583 30.624L39.221 31.8204C39.2797 32.0155 39.1578 32.2172 38.9602 32.2565L37.8055 32.488L37.654 33.7288C37.6281 33.9413 37.4166 34.0787 37.2147 34.0164L36.0889 33.7594L35.4492 34.8304C35.3454 35.0047 35.1137 35.0507 34.9525 34.9295L34.0068 34.2188L32.9894 34.9356C32.8228 35.0527 32.596 34.998 32.4966 34.821L31.9212 33.7862L30.7005 34.0249C30.4929 34.0647 30.3023 33.9084 30.2951 33.6976L30.1895 32.5365L28.9797 32.255C28.7817 32.2092 28.6687 32.0021 28.7326 31.8096L29.1119 30.6856L28.1202 29.9325C27.9492 29.8027 27.9385 29.5494 28.0949 29.4048L28.8767 28.5538L28.2747 27.4598C28.176 27.2811 28.2536 27.0575 28.4392 26.9772L29.521 26.5095L29.4132 25.2631C29.3947 25.0481 29.5771 24.8702 29.788 24.8908L30.9367 24.9065L31.3415 23.7239C31.4101 23.5231 31.6398 23.4335 31.825 23.5315L32.8784 24.021L33.7255 23.1071C33.8692 22.9516 34.1143 22.9641 34.2439 23.1288ZM31.1784 29.1283C30.7255 28.6723 31.4143 27.9787 31.8674 28.4347L33.3933 29.971L36.0652 26.9891C36.4926 26.511 37.2159 27.166 36.7884 27.6445L33.7891 30.9916C33.6072 31.2167 33.2711 31.2351 33.0665 31.029L31.1784 29.1283Z" fill="#4F47BA"/>
<path d="M21.624 17.5C21.2789 17.5 21 17.2206 21 16.875C21 15.8412 21.8399 15 22.872 15C23.2171 15 23.496 15.2794 23.496 15.625C23.496 15.9706 23.2171 16.25 22.872 16.25C22.5276 16.25 22.248 16.53 22.248 16.875C22.248 17.2206 21.9691 17.5 21.624 17.5Z" fill="#4F44D0"/>
<path d="M45.3213 17.5C44.9762 17.5 44.6973 17.2206 44.6973 16.875C44.6973 16.53 44.4177 16.25 44.0732 16.25C43.7282 16.25 43.4492 15.9706 43.4492 15.625C43.4492 15.2794 43.7282 15 44.0732 15C45.1054 15 45.9453 15.8412 45.9453 16.875C45.9453 17.2206 45.6663 17.5 45.3213 17.5Z" fill="#4F44D0"/>
<path d="M23.5138 17.5C23.1688 17.5 22.8867 17.2206 22.8867 16.875C22.8867 16.5294 23.1625 16.25 23.507 16.25H23.5138C23.8583 16.25 24.1378 16.5294 24.1378 16.875C24.1378 17.2206 23.8583 17.5 23.5138 17.5Z" fill="#4F44D0"/>
<path d="M25.3849 17.5C25.0399 17.5 24.7578 17.2206 24.7578 16.875C24.7578 16.5294 25.0336 16.25 25.3781 16.25H25.3849C25.7294 16.25 26.0089 16.5294 26.0089 16.875C26.0089 17.2206 25.7294 17.5 25.3849 17.5Z" fill="#4F44D0"/>
<path d="M27.26 17.5C26.9149 17.5 26.6328 17.2206 26.6328 16.875C26.6328 16.5294 26.9086 16.25 27.2531 16.25H27.26C27.6044 16.25 27.884 16.5294 27.884 16.875C27.884 17.2206 27.6044 17.5 27.26 17.5Z" fill="#4F44D0"/>
<path d="M44.0753 16.25H22.874C22.5289 16.25 22.25 15.9706 22.25 15.625C22.25 15.2794 22.5289 15 22.874 15H44.0759C44.421 15 44.7 15.2794 44.7 15.625C44.7 15.9706 44.4204 16.25 44.0753 16.25Z" fill="#4F44D0"/>
<path d="M21.624 41.245C21.2789 41.245 21 40.9656 21 40.62V16.875C21 16.5294 21.2789 16.25 21.624 16.25C21.9691 16.25 22.248 16.5294 22.248 16.875V40.62C22.248 40.9656 21.9691 41.245 21.624 41.245Z" fill="#4F44D0"/>
<path d="M45.3193 41.245C44.9743 41.245 44.6953 40.9656 44.6953 40.62V16.875C44.6953 16.5294 44.9743 16.25 45.3193 16.25C45.6644 16.25 45.9434 16.5294 45.9434 16.875V40.62C45.9434 40.9656 45.6644 41.245 45.3193 41.245Z" fill="#4F44D0"/>
<path d="M45.3214 18.75H21.624C21.2789 18.75 21 18.4706 21 18.125C21 17.7794 21.2789 17.5 21.624 17.5H45.322C45.6671 17.5 45.946 17.7794 45.946 18.125C45.946 18.4706 45.6664 18.75 45.3214 18.75Z" fill="#4F44D0"/>
<path d="M45.3214 41.2451H21.624C21.2789 41.2451 21 40.9657 21 40.6201C21 40.2745 21.2789 39.9951 21.624 39.9951H45.322C45.6671 39.9951 45.946 40.2745 45.946 40.6201C45.946 40.9657 45.6664 41.2451 45.3214 41.2451Z" fill="#4F44D0"/>
<path d="M59.9291 32.9976H43.9609C42.8564 32.9976 41.9609 33.893 41.9609 34.9976V43.9976C41.9609 45.1021 42.8564 45.9976 43.9609 45.9976H59.9291C61.0337 45.9976 61.9291 45.1021 61.9291 43.9976V34.9976C61.9291 33.893 61.0337 32.9976 59.9291 32.9976Z" fill="#9D95F8"/>
</g>
<mask id="mask1" mask-type="alpha" maskUnits="userSpaceOnUse" x="41" y="32" width="21" height="14">
<path d="M59.9291 32.9976H43.9609C42.8564 32.9976 41.9609 33.893 41.9609 34.9976V43.9976C41.9609 45.1021 42.8564 45.9976 43.9609 45.9976H59.9291C61.0337 45.9976 61.9291 45.1021 61.9291 43.9976V34.9976C61.9291 33.893 61.0337 32.9976 59.9291 32.9976Z" fill="white"/>
</mask>
<g mask="url(#mask1)">
<path d="M61.9291 35.9976H41.9609V38.9976H61.9291V35.9976Z" fill="#4F47BA"/>
<path d="M47.9491 41.9976H44.957C44.4047 41.9976 43.957 42.4453 43.957 42.9976C43.957 43.5498 44.4047 43.9976 44.957 43.9976H47.9491C48.5014 43.9976 48.9491 43.5498 48.9491 42.9976C48.9491 42.4453 48.5014 41.9976 47.9491 41.9976Z" fill="white"/>
</g>
</svg>
