<svg xmlns="http://www.w3.org/2000/svg" width="30" height="30" viewBox="0 0 30 30">
    <g fill="none" fill-rule="evenodd">
        <path d="M0 0H30V30H0z"/>
        <g fill-rule="nonzero">
            <path fill="#D3E7FF" d="M13.158.527H1.578C.999.527.527 1 .527 1.582v23.836c0 .583.471 1.055 1.053 1.055H18.42c.582 0 1.053-.472 1.053-1.055V6.855L13.158.527z" transform="translate(5 2)"/>
            <path fill="#D3E7FF" d="M19.474 6.855L13.158 6.855 13.158 0.527z" transform="translate(5 2)"/>
            <path fill="#3792FC" d="M3.684 5.219c.29 0 .527-.237.527-.528 0-.29-.236-.527-.527-.527-.29 0-.526.236-.526.527 0 .291.236.528.526.528z" transform="translate(5 2)"/>
            <path fill="#96C7FF" d="M1.579 27H18.42c.87 0 1.579-.71 1.579-1.582V6.855c0-.143-.06-.278-.154-.372L13.53.154C13.436.06 13.301 0 13.158 0H1.578C.709 0 0 .71 0 1.582v23.836C0 26.29.708 27 1.579 27zM13.684 1.8l4.52 4.528h-4.52V1.801zM1.053 1.583c0-.29.236-.527.526-.527h11.053v5.8c0 .292.235.528.526.528h5.79v18.035c0 .29-.237.527-.527.527H1.58c-.29 0-.526-.236-.526-.527V1.582z" transform="translate(5 2)"/>
            <path fill="#3792FC" d="M3.684 9.863h12.632c.29 0 .526-.236.526-.527 0-.291-.236-.527-.526-.527H3.684c-.29 0-.526.236-.526.527 0 .291.236.527.526.527zM5.79 5.219H10c.29 0 .526-.236.526-.528 0-.29-.235-.527-.526-.527H5.79c-.291 0-.527.236-.527.527 0 .292.236.528.526.528zM3.595 14.191H9.72c.242 0 .438-.236.438-.527 0-.291-.196-.527-.438-.527H3.595c-.241 0-.437.236-.437.527 0 .291.196.527.437.527zM3.595 18.52H9.72c.242 0 .438-.237.438-.528 0-.291-.196-.527-.438-.527H3.595c-.241 0-.437.236-.437.527 0 .291.196.528.437.528zM3.595 22.52H9.72c.242 0 .438-.237.438-.528 0-.291-.196-.527-.438-.527H3.595c-.241 0-.437.236-.437.527 0 .291.196.528.437.528z" transform="translate(5 2)"/>
        </g>
        <text fill="#3792FC" font-family="PingFangSC-Regular, PingFang SC" font-size="10">
            <tspan x="17" y="24">₹</tspan>
        </text>
    </g>
</svg>
