<svg width="320" height="274" viewBox="0 0 320 274" fill="none" xmlns="http://www.w3.org/2000/svg">
<mask id="mask0" mask-type="alpha" maskUnits="userSpaceOnUse" x="0" y="0" width="320" height="274">
<path d="M6 0H314C315.591 0 317.117 0.632141 318.243 1.75736C319.368 2.88258 320 4.4087 320 6V268C320 269.591 319.368 271.117 318.243 272.243C317.117 273.368 315.591 274 314 274H6C4.4087 274 2.88258 273.368 1.75736 272.243C0.632141 271.117 0 269.591 0 268L0 6C0 4.4087 0.632141 2.88258 1.75736 1.75736C2.88258 0.632141 4.4087 0 6 0V0Z" fill="white"/>
</mask>
<g mask="url(#mask0)">
<g filter="url(#filter0_dd)">
<path d="M6 0H314C315.591 0 317.117 0.632141 318.243 1.75736C319.368 2.88258 320 4.4087 320 6V268C320 269.591 319.368 271.117 318.243 272.243C317.117 273.368 315.591 274 314 274H6C4.4087 274 2.88258 273.368 1.75736 272.243C0.632141 271.117 0 269.591 0 268L0 6C0 4.4087 0.632141 2.88258 1.75736 1.75736C2.88258 0.632141 4.4087 0 6 0V0Z" fill="black"/>
</g>
<path d="M6 0H314C315.591 0 317.117 0.632141 318.243 1.75736C319.368 2.88258 320 4.4087 320 6V268C320 269.591 319.368 271.117 318.243 272.243C317.117 273.368 315.591 274 314 274H6C4.4087 274 2.88258 273.368 1.75736 272.243C0.632141 271.117 0 269.591 0 268L0 6C0 4.4087 0.632141 2.88258 1.75736 1.75736C2.88258 0.632141 4.4087 0 6 0V0Z" fill="#675AF6"/>
<path d="M290.132 55.267C309.456 42.832 319.412 20.076 320 -13H0V179C8.53299 197.133 28.8 201.4 59.733 201.4C90.666 201.4 133.333 196.067 154.666 147C175.999 97.933 168.664 85.347 197.333 65.933C226.002 46.519 261.147 73.918 290.133 55.266L290.132 55.267Z" fill="#4F44D0"/>
<path d="M307.373 98.5984C317.551 109.698 318.813 119.738 320 131C320.715 137.795 320.715 185.46 320 274H232.64C239.334 258.05 174.903 200.994 173.118 159C171.333 117.006 189.826 91.0454 224.286 77.4544C258.746 63.8634 287.986 77.4544 307.374 98.5984H307.373Z" fill="#4F44D0"/>
</g>
<path d="M268.445 43.7191C269.302 43.6138 270.217 43.6509 271.015 43.9912C272.711 44.7149 273.193 46.7288 273.169 48.3657C273.144 50.1276 272.772 52.052 274.104 53.4715C274.717 54.1242 275.479 54.6236 276.08 55.2883C276.723 55.9985 277.227 56.8112 277.6 57.6838C278.286 59.2867 278.622 61.1717 277.995 62.8532C277.443 64.3336 276.055 65.6698 276.355 67.3532C276.668 69.1093 278.429 70.4519 279.53 71.7599C280.776 73.2401 281.923 75.132 282.112 77.0732C282.292 78.9336 281.487 80.8151 280.251 82.2214C277.781 85.0314 274.068 86.4089 270.325 86.4004C268.736 86.3967 266.936 86.3245 265.565 85.4659C265.141 85.2005 264.917 84.9027 264.665 84.4888C264.439 84.1176 264.141 83.8762 263.795 83.6135C263.036 83.0366 262.488 82.2592 262.139 81.3888C260.78 78.0084 261.866 73.8265 263.767 70.8246C264.218 70.1135 264.587 69.4291 264.368 68.5814C264.139 67.6965 263.578 66.8984 263.081 66.1377C262.591 65.386 262.031 64.6688 261.647 63.856C261.246 63.0045 261.132 62.1129 261.203 61.181C261.337 59.4305 262.088 57.8152 263.153 56.4075C264.177 55.0515 265.381 53.754 265.384 51.9773C265.387 50.0942 264.134 48.4191 264.668 46.5045C264.889 45.7118 265.332 44.8984 266.047 44.4231C266.733 43.9673 267.638 43.8181 268.445 43.7191Z" fill="#EFEEFB"/>
<path d="M267.884 46.73C267.9 46.4771 268.198 46.3254 268.433 46.3914C268.742 46.4783 268.736 46.7688 268.728 47.0276C268.703 47.823 268.818 48.596 269.008 49.3678C269.403 50.9724 270.134 52.4508 270.712 53.9921C271.291 55.5322 271.562 57.1223 271.223 58.7519C270.903 60.2884 270.401 61.7851 270.073 63.3235C269.785 64.6795 269.478 66.1094 269.917 67.4619C270.34 68.7637 271.275 69.824 271.948 71.0005C273.341 73.4359 273.959 76.1377 274.041 78.9182C274.08 80.2093 274.045 81.5123 273.747 82.7786C273.576 83.5077 273.345 84.4931 272.724 84.9965C272.437 85.2287 271.947 85.3089 271.706 84.9652C271.479 84.6427 271.678 84.1436 271.75 83.7999C272.061 82.3122 272.124 80.7918 272.049 79.2812C271.977 77.818 271.805 76.3573 271.347 74.9598C270.922 73.663 270.276 72.4982 269.516 71.3638C268.742 70.2077 267.936 69.0491 267.616 67.6793C267.291 66.288 267.555 64.8723 267.909 63.5076C268.282 62.0642 268.771 60.6621 269.277 59.2577C269.77 57.8893 269.945 56.5945 269.673 55.1623C269.135 52.3326 267.696 49.6767 267.884 46.73Z" fill="white"/>
<path d="M291.078 47.1529C292.139 47.4768 293.193 47.9995 293.95 48.8189C295.558 50.5616 295.065 53.1954 294.177 55.1191C293.221 57.1896 291.773 59.2708 292.589 61.6465C292.964 62.7386 293.595 63.7277 293.951 64.8283C294.332 66.0043 294.496 67.2291 294.475 68.4564C294.436 70.7105 293.84 73.1158 292.22 74.7765C290.795 76.2386 288.464 77.0926 287.931 79.2403C287.374 81.4808 288.734 83.9896 289.338 86.1124C290.021 88.5146 290.372 91.3521 289.573 93.7464C288.806 96.041 286.872 97.8449 284.683 98.8615C280.309 100.893 275.23 100.58 270.844 98.6124C268.982 97.7768 266.91 96.7503 265.752 95.0175C265.395 94.4819 265.289 94.0128 265.211 93.3915C265.141 92.8344 264.918 92.3927 264.651 91.9015C264.064 90.8223 263.83 89.6161 263.877 88.4039C264.061 83.6957 267.533 79.3178 271.341 76.7622C272.244 76.1568 273.036 75.5403 273.225 74.4234C273.422 73.2574 273.184 72.0199 273.001 70.8607C272.821 69.715 272.541 68.5739 272.519 67.4121C272.495 66.1951 272.831 65.0814 273.404 64.0165C274.481 62.0161 276.212 60.4989 278.2 59.3906C280.115 58.323 282.209 57.418 283.146 55.3182C284.14 53.0928 283.552 50.4568 285.184 48.4717C285.86 47.6496 286.808 46.9197 287.896 46.7316C288.94 46.5512 290.08 46.8483 291.078 47.1529Z" fill="#C6C2F9"/>
<path d="M288.91 50.8329C289.061 50.5419 289.489 50.5195 289.729 50.7214C290.045 50.9873 289.887 51.3281 289.743 51.6302C289.299 52.559 289.03 53.5348 288.851 54.549C288.477 56.6575 288.561 58.7932 288.435 60.9235C288.309 63.0521 287.798 65.0781 286.552 66.8292C285.378 68.4803 284.011 69.988 282.827 71.6374C281.783 73.0911 280.679 74.6227 280.488 76.4559C280.304 78.2203 280.845 79.9683 281.019 81.7162C281.379 85.3344 280.694 88.8597 279.343 92.196C278.715 93.7451 277.996 95.27 276.988 96.6126C276.407 97.3857 275.625 98.4313 274.636 98.6999C274.18 98.8238 273.565 98.6606 273.462 98.1264C273.365 97.6252 273.857 97.1388 274.12 96.7697C275.259 95.1719 276.125 93.4045 276.824 91.5763C277.502 89.8055 278.062 87.985 278.254 86.0888C278.433 84.329 278.284 82.6092 277.987 80.8652C277.683 79.088 277.345 77.2917 277.684 75.5008C278.029 73.6819 279.075 72.1446 280.199 70.7146C281.388 69.2021 282.691 67.7995 284.014 66.403C285.303 65.0422 286.182 63.6009 286.61 61.7614C287.455 58.1272 287.156 54.2237 288.91 50.8329Z" fill="#EFEEFB"/>
<path d="M258.276 60.5195C260.04 60.5195 261.591 61.4598 262.66 62.794C263.911 64.3559 264.164 66.2633 264.672 68.1249C264.925 69.0513 265.36 69.9709 266.122 70.6003C266.815 71.1727 267.695 71.2873 268.524 71.5669C270.182 72.1258 271.521 73.4722 272.05 75.115C272.695 77.1188 272.012 79.1397 272.129 81.1705C272.237 83.0355 274.066 84.199 275.538 85.0931C276.989 85.9747 278.296 86.7999 278.733 88.5174C279.197 90.3389 279.352 92.3721 278.71 94.1715C277.641 97.1676 274.514 98.4869 271.492 98.6915C268.749 98.8771 265.3 98.5856 263.24 96.5841C262.008 95.3863 261.561 93.7111 261.617 92.0445C261.651 91.0081 261.855 89.9813 262.119 88.9798C262.306 88.27 262.559 87.5632 262.631 86.8297C262.823 84.8783 261.029 84.5034 259.502 83.9677C257.561 83.2867 256.203 82.0005 255.258 80.2086C254.378 78.5402 254.009 76.6674 254.537 74.8305C254.806 73.8925 255.294 73.0416 255.957 72.3178C256.249 71.9992 256.66 71.7335 256.923 71.3988C257.169 71.0862 257.115 70.6812 257.03 70.3151C256.639 68.624 255.419 67.2237 254.983 65.5357C254.589 64.0121 254.822 62.1158 256.207 61.1328C256.806 60.7081 257.544 60.5242 258.276 60.5195Z" fill="#9D95F8"/>
<path d="M260.683 64.9254C262.553 66.9281 263.061 69.6453 263.21 72.2788C263.294 73.7556 263.207 75.3133 263.638 76.7457C264.008 77.9717 264.873 78.9089 265.766 79.7946C267.562 81.5777 269.565 83.3903 270.09 85.9708C270.398 87.4852 270.19 89.0494 270.616 90.5471C271.004 91.9085 271.686 93.246 272.515 94.3956C273.183 95.3213 274.053 96.0301 274.783 96.893C275.006 97.1564 275.325 97.5442 275.233 97.9161C275.125 98.3516 274.573 98.4895 274.182 98.421C273.269 98.2616 272.501 97.3853 271.904 96.7483C271.031 95.8168 270.29 94.8148 269.687 93.691C269.018 92.4428 268.479 91.1184 268.249 89.7182C268.01 88.2655 268.129 86.7515 267.583 85.3573C266.665 83.0115 264.439 81.6271 262.829 79.7988C260.823 77.5205 261.122 74.6849 261.328 71.8824C261.441 70.3423 261.553 68.6031 260.779 67.197C260.483 66.6602 259.825 66.1597 259.698 65.5496C259.581 64.9906 260.216 64.4257 260.683 64.9254Z" fill="#8279F8"/>
<path d="M262.672 97.8359C262.672 109.289 264.531 115.29 274.346 115.29C284.161 115.29 286.02 109.289 286.02 97.8359H262.672Z" fill="#8279F8"/>
<path d="M204.315 99.4546C207.411 92.5666 210.264 79.7093 209.529 75.5576C208.794 71.4059 204.365 75.4302 201.394 71.5289C198.423 67.6276 204.253 62.283 202.365 59.308C200.478 56.333 194.528 61.7785 191.67 59.678C188.812 57.5775 191.187 51.902 188.509 49.1235C185.83 46.345 184.104 49.5126 180.854 48.4594C178.04 47.5472 173.013 42.539 170.959 43.2655C168.904 43.9919 172.118 48.1752 171.185 51.878C170.251 55.5808 167.122 55.6764 167.302 57.7716C167.482 59.8668 173.097 56.5956 172.081 62.2879C171.065 67.9802 164.856 68.2397 165.869 71.7177C166.881 75.1957 174.275 74.519 176.556 77.6561C178.837 80.7932 170.938 82.4689 174.983 87.5654C179.027 92.662 184.766 91.9753 189.764 94.2995C194.124 96.327 196.919 99.7759 202.753 100.36C203.125 100.397 204.157 99.8056 204.315 99.4546Z" fill="#9D95F8"/>
<path d="M205.931 77.6527C205.931 77.6527 202.445 80.8961 200.812 83.9578C199.18 87.0196 199.727 92.932 199.727 92.932L199.367 92.3061C199.367 92.3061 199.06 86.3751 200.632 83.6449C202.204 80.9147 205.931 77.6527 205.931 77.6527Z" fill="#675AF6"/>
<path d="M179.579 85.4159C179.579 85.4159 184.12 84.0063 187.578 84.1178C191.035 84.2294 196.175 87.4801 196.175 87.4801L195.815 86.8543C195.815 86.8543 190.539 83.8032 187.398 83.8049C184.257 83.8066 179.579 85.4159 179.579 85.4159Z" fill="#675AF6"/>
<path d="M199.924 60.6896C199.924 60.6896 195.188 64.657 193.555 67.7188C191.923 70.7805 190.908 77.5981 190.908 77.5981L190.548 76.9722C190.548 76.9722 191.803 70.136 193.375 67.4058C194.947 64.6756 199.924 60.6896 199.924 60.6896Z" fill="#675AF6"/>
<path d="M168.262 71.5302C168.262 71.5302 174.052 69.3965 177.51 69.508C180.967 69.6196 187.356 72.1462 187.356 72.1462L186.996 71.5203C186.996 71.5203 180.471 69.1934 177.33 69.1951C174.189 69.1967 168.262 71.5302 168.262 71.5302Z" fill="#675AF6"/>
<path d="M186.754 51.8899C186.754 51.8899 184.318 56.0939 183.933 58.793C183.547 61.4922 184.624 66.7962 184.624 66.7962L184.191 66.4314C184.191 66.4314 183.286 61.0489 183.716 58.6106C184.146 56.1724 186.754 51.8899 186.754 51.8899Z" fill="#675AF6"/>
<path d="M169.051 57.2019C169.051 57.2019 172.737 56.538 174.792 56.9703C176.847 57.4026 180.4 59.5893 180.4 59.5893L180.251 59.1769C180.251 59.1769 176.595 57.0952 174.717 56.7641C172.839 56.4329 169.051 57.2019 169.051 57.2019Z" fill="#675AF6"/>
<path d="M170.951 43.2676L210.284 110.565L209.347 111.108L170.951 43.2676Z" fill="#675AF6"/>
<path d="M206.406 105.096C205.8 99.0093 202.616 88.8363 200.427 86.2242C198.238 83.6122 196.755 88.2332 193.099 86.7053C189.443 85.1774 191.375 79.0617 188.853 77.743C186.33 76.4243 184.354 82.6598 181.504 82.3484C178.653 82.0371 178.03 77.093 175.032 76.2335C172.034 75.374 172.101 78.2961 169.398 78.8781C167.057 79.3822 161.514 77.9136 160.366 79.2578C159.219 80.602 163.159 82.2287 163.997 85.2038C164.836 88.179 162.68 89.5178 163.651 90.9134C164.623 92.3089 167.24 87.7343 168.823 92.1377C170.406 96.5411 166.157 99.2462 168.27 101.273C170.382 103.3 175.292 99.821 178.157 101.093C181.021 102.366 176.159 106.75 181.049 108.68C185.939 110.609 189.686 107.796 194.127 107.395C198.001 107.045 201.351 108.327 205.676 106.366C205.952 106.24 206.437 105.407 206.406 105.096Z" fill="#B9B3F9"/>
<path d="M198.747 89.1519C198.747 89.1519 197.61 92.8425 197.7 95.6523C197.79 98.4622 200.558 102.385 200.558 102.385L200.053 102.092C200.053 102.092 197.447 98.0589 197.448 95.5061C197.449 92.9532 198.747 89.1519 198.747 89.1519Z" fill="#9D95F8"/>
<path d="M183.402 105.302C183.402 105.302 186.018 102.469 188.487 101.142C190.956 99.8153 195.869 100.006 195.869 100.006L195.365 99.7135C195.365 99.7135 190.436 99.7182 188.234 100.996C186.033 102.273 183.402 105.302 183.402 105.302Z" fill="#9D95F8"/>
<path d="M187.696 79.7007C187.696 79.7007 185.975 84.4065 186.065 87.2164C186.155 90.0262 188.193 95.2181 188.193 95.2181L187.688 94.9256C187.688 94.9256 185.811 89.623 185.813 87.0701C185.814 84.5173 187.696 79.7007 187.696 79.7007Z" fill="#9D95F8"/>
<path d="M169.869 100.166C169.869 100.166 173.069 96.3173 175.538 94.9906C178.007 93.6639 183.504 92.8393 183.504 92.8393L183 92.5468C183 92.5468 177.487 93.5667 175.285 94.8443C173.084 96.1219 169.869 100.166 169.869 100.166Z" fill="#9D95F8"/>
<path d="M174.915 78.8828C174.915 78.8828 174.902 82.8198 175.72 84.8688C176.538 86.9179 179.432 90.1986 179.432 90.1986L178.981 90.1191C178.981 90.1191 176.176 86.7131 175.495 84.8291C174.813 82.945 174.915 78.8828 174.915 78.8828Z" fill="#9D95F8"/>
<path d="M164.646 89.8001C164.646 89.8001 166.962 87.8371 168.577 87.3052C170.192 86.7732 173.565 86.8625 173.565 86.8625L173.294 86.6341C173.294 86.6341 169.892 86.6601 168.442 87.191C166.992 87.7218 164.646 89.8001 164.646 89.8001Z" fill="#9D95F8"/>
<path d="M160.359 79.2594L215.069 110.457L214.631 111.218L160.359 79.2594Z" fill="#9D95F8"/>
<path fill-rule="evenodd" clip-rule="evenodd" d="M196.84 39.6895H256.857V115.003H196.84V39.6895Z" fill="#C6C2F9"/>
<rect x="196.023" y="38.4346" width="60.0175" height="75.3137" fill="#EFEEFB"/>
<rect x="204.348" y="101.196" width="42.5124" height="1.25523" fill="#C6C2F9"/>
<path fill-rule="evenodd" clip-rule="evenodd" d="M230.605 94.9199H246.86V96.1752H230.605V94.9199Z" fill="#C6C2F9"/>
<rect x="216.852" y="94.9199" width="11.2533" height="1.25523" fill="#C6C2F9"/>
<rect x="204.348" y="94.9199" width="10.0029" height="1.25523" fill="#C6C2F9"/>
<rect x="219.348" y="88.6436" width="30.0088" height="1.25523" fill="#C6C2F9"/>
<rect x="204.348" y="88.6436" width="10.0029" height="1.25523" fill="#C6C2F9"/>
<path d="M226.099 66.5879C231.546 66.5879 235.978 71.0602 236.12 76.6328L236.123 76.9077H235.229C235.229 71.718 231.141 67.5105 226.099 67.5105C221.142 67.5105 217.108 71.5766 216.972 76.6447L216.969 76.9077H216.074C216.074 71.2081 220.563 66.5879 226.099 66.5879Z" fill="#4F44D0"/>
<path fill-rule="evenodd" clip-rule="evenodd" d="M220.863 59.6551C220.863 56.6779 223.207 54.2646 226.099 54.2646C228.99 54.2646 231.335 56.6779 231.335 59.6551C231.335 62.6325 228.99 65.0457 226.099 65.0457C223.207 65.0457 220.863 62.6325 220.863 59.6551ZM230.44 59.6551C230.44 57.1883 228.497 55.1882 226.099 55.1882C223.701 55.1882 221.757 57.1883 221.757 59.6551C221.757 62.122 223.701 64.1221 226.099 64.1221C228.497 64.1221 230.44 62.122 230.44 59.6551Z" fill="#4F44D0"/>
<path opacity="0.3" fill-rule="evenodd" clip-rule="evenodd" d="M270.368 112.633C270.492 112.644 271.169 112.704 271.69 112.903C272.139 113.075 272.315 113.29 272.226 113.545C272.13 113.792 271.72 113.945 271.208 114.026C271.196 114.287 270.844 114.468 270.234 114.518C269.995 114.537 269.753 114.545 269.513 114.545C269.259 114.545 269.011 114.535 268.769 114.521C269.134 114.758 269.434 115.002 269.641 115.25C270.554 116.343 269.714 117.375 267.272 118.159L268.128 119.184C268.515 119.647 267.56 120.025 266.002 120.025H262.396C261.077 120.025 259.706 119.744 259.102 119.372C257.078 119.469 254.93 119.469 252.749 119.372C252.772 119.744 251.87 120.025 250.547 120.025H246.941C245.383 120.025 243.796 119.647 243.409 119.184L242.553 118.159C240.652 117.761 239.062 117.303 237.811 116.794L236.5 116.791H235.733C234.174 116.791 232.588 116.413 232.2 115.949L230.758 114.223C230.371 113.759 231.326 113.381 232.884 113.381H235.555C236.102 112.929 237.01 112.528 238.202 112.193L236.606 110.282C236.558 110.225 236.634 110.173 236.793 110.151C236.953 110.13 237.169 110.141 237.342 110.183L242.467 111.404C244.398 111.178 246.602 111.056 248.98 111.056C256.619 111.056 264.132 112.283 267.76 113.973C267.923 114.049 268.078 114.125 268.224 114.202C268.68 114.249 269.26 114.283 269.763 114.242C269.938 114.227 270.069 114.177 270.117 114.103C269.331 114.103 268.548 113.999 268.058 113.836C267.977 113.809 267.902 113.782 267.839 113.752C267.389 113.541 267.384 113.323 267.831 113.18C268.251 113.046 268.957 113.019 269.633 113.104C269.655 113.107 269.676 113.11 269.698 113.113C269.729 113.116 269.759 113.12 269.788 113.124C270.389 113.217 270.804 113.427 271.023 113.644C271.13 113.594 271.211 113.53 271.242 113.447C271.304 113.274 271.209 113.132 270.956 113.036C270.703 112.939 270.352 112.909 270.347 112.909C270.265 112.903 270.188 112.89 270.123 112.876C269.965 112.842 269.854 112.789 269.856 112.735C269.859 112.658 270.08 112.612 270.355 112.632C270.359 112.633 270.363 112.633 270.368 112.633ZM269.104 113.34C268.903 113.34 268.731 113.364 268.626 113.398C268.547 113.424 268.393 113.492 268.558 113.604C268.579 113.618 268.607 113.634 268.645 113.651C268.858 113.751 269.374 113.818 269.892 113.818C269.9 113.817 269.909 113.817 269.919 113.817C269.985 113.816 270.078 113.814 270.186 113.808C270.081 113.591 269.757 113.41 269.499 113.37C269.366 113.348 269.239 113.34 269.119 113.34H269.104Z" fill="#C6C2F9"/>
<path fill-rule="evenodd" clip-rule="evenodd" d="M276.544 95.6198C276.658 95.6556 277.285 95.8517 277.639 96.511C277.946 97.0763 277.942 97.7875 277.639 98.6307C277.337 99.4456 276.8 99.9496 276.22 100.218C275.99 101.08 275.486 101.678 274.834 101.843C274.58 101.904 274.331 101.933 274.091 101.933C273.837 101.933 273.597 101.9 273.367 101.853C273.535 102.635 273.631 103.44 273.631 104.26C273.631 107.868 271.928 111.274 268.831 113.864V117.246C268.831 118.777 267.56 120.026 266.002 120.026H262.396C261.077 120.026 259.941 119.098 259.648 117.868C257.543 118.189 255.395 118.189 253.295 117.868C253.007 119.098 251.87 120.026 250.547 120.026H246.941C245.383 120.026 244.112 118.777 244.112 117.246V113.864C242.544 112.55 241.336 111.038 240.511 109.356C240.511 109.356 239.216 109.347 239.202 109.347H238.435C236.876 109.347 235.605 108.099 235.605 106.568V100.868C235.605 99.3373 236.876 98.089 238.435 98.089H241.105C242.031 96.5958 243.273 95.2722 244.745 94.1652V87.8579C244.745 87.6695 244.865 87.4952 245.042 87.4245C245.22 87.3539 245.426 87.3916 245.565 87.5282L249.67 91.5603C251.789 90.8161 254.095 90.411 256.474 90.411C264.112 90.411 270.6 94.462 272.816 100.044C272.916 100.294 273.007 100.543 273.089 100.798C273.506 100.953 274.057 101.066 274.595 100.929C274.782 100.882 274.954 100.717 275.064 100.473C274.278 100.473 273.583 100.129 273.228 99.5916C273.17 99.5021 273.118 99.4127 273.079 99.3137C272.806 98.6166 272.983 97.8959 273.549 97.4248C274.081 96.9821 274.81 96.8926 275.414 97.1752C275.434 97.1848 275.453 97.1936 275.473 97.2022C275.501 97.2148 275.528 97.2272 275.554 97.2411C276.076 97.5473 276.316 98.2397 276.354 98.9557C276.503 98.7909 276.637 98.5789 276.738 98.3057C276.944 97.7357 276.968 97.2647 276.795 96.9491C276.623 96.6288 276.297 96.5299 276.292 96.5299C276.215 96.511 276.148 96.4686 276.095 96.4215C275.966 96.3085 275.899 96.1342 275.947 95.9552C276.014 95.7008 276.273 95.5501 276.532 95.616C276.535 95.617 276.539 95.6182 276.544 95.6198ZM274.688 97.9519C274.487 97.9519 274.295 98.032 274.161 98.145C274.06 98.2298 273.849 98.4559 273.921 98.8233C273.93 98.8704 273.945 98.9222 273.969 98.9788C274.098 99.3085 274.559 99.5299 275.077 99.5299C275.085 99.5293 275.094 99.5287 275.104 99.528C275.171 99.5237 275.266 99.5175 275.379 99.4969C275.455 98.7809 275.283 98.1827 275.057 98.0508C274.942 97.9801 274.822 97.9519 274.703 97.9519H274.688Z" fill="#FE794D"/>
<path fill-rule="evenodd" clip-rule="evenodd" d="M246.611 98.0986C244.746 98.0986 244.166 99.8931 244.122 100.845C244.108 101.116 244.294 101.347 244.538 101.362C244.547 101.362 244.556 101.362 244.565 101.362C244.799 101.362 244.994 101.16 245.007 100.894C245.007 100.889 245.007 100.874 245.012 100.854C245.034 100.583 245.22 99.0797 246.615 99.0797C248.054 99.0797 248.107 100.573 248.112 100.746C248.112 100.751 248.116 100.756 248.116 100.761C248.125 101.027 248.316 101.239 248.555 101.239C248.798 101.239 248.998 101.017 248.998 100.746C248.989 99.829 248.493 98.0986 246.611 98.0986Z" fill="#132056"/>
<path fill-rule="evenodd" clip-rule="evenodd" d="M238.543 100.136C238.096 100.136 237.73 100.346 237.73 100.602V106.197C237.73 106.453 238.096 106.663 238.543 106.663C238.99 106.663 239.356 106.453 239.356 106.197V100.602C239.356 100.346 238.998 100.136 238.543 100.136Z" fill="#132056"/>
<path fill-rule="evenodd" clip-rule="evenodd" d="M254.104 95.2567C254.464 95.1787 257.707 94.508 260.955 95.527C261.006 95.5426 261.057 95.5478 261.102 95.5478C261.32 95.5478 261.518 95.4022 261.589 95.1787C261.671 94.9031 261.523 94.612 261.255 94.5288C257.829 93.4526 254.515 94.0921 253.886 94.2325C253.612 94.2949 253.439 94.5704 253.495 94.8512C253.556 95.1423 253.83 95.3191 254.104 95.2567Z" fill="#132056"/>
<defs>
<filter id="filter0_dd" x="-2" y="-2" width="324" height="280" filterUnits="userSpaceOnUse" color-interpolation-filters="sRGB">
<feFlood flood-opacity="0" result="BackgroundImageFix"/>
<feColorMatrix in="SourceAlpha" type="matrix" values="0 0 0 0 0 0 0 0 0 0 0 0 0 0 0 0 0 0 127 0"/>
<feOffset dy="2"/>
<feGaussianBlur stdDeviation="1"/>
<feColorMatrix type="matrix" values="0 0 0 0 0 0 0 0 0 0 0 0 0 0 0 0 0 0 0.0483186 0"/>
<feBlend mode="normal" in2="BackgroundImageFix" result="effect1_dropShadow"/>
<feColorMatrix in="SourceAlpha" type="matrix" values="0 0 0 0 0 0 0 0 0 0 0 0 0 0 0 0 0 0 127 0"/>
<feOffset/>
<feGaussianBlur stdDeviation="1"/>
<feColorMatrix type="matrix" values="0 0 0 0 0 0 0 0 0 0 0 0 0 0 0 0 0 0 0.12 0"/>
<feBlend mode="normal" in2="effect1_dropShadow" result="effect2_dropShadow"/>
<feBlend mode="normal" in="SourceGraphic" in2="effect2_dropShadow" result="shape"/>
</filter>
</defs>
</svg>
