<svg width="115" height="101" viewBox="0 0 115 101" fill="none" xmlns="http://www.w3.org/2000/svg">
<g clip-path="url(#clip0)">
<path opacity="0.046" d="M57.3322 0.582932C46.3322 0.582932 27.3322 0.582932 23.3322 11.5829C19.3322 22.5829 52.5902 21.9378 60.3322 29.6797C68.0741 37.4216 80.557 36.5829 92.3322 36.5829C104.107 36.5829 101.876 49.561 111.332 47.5829C120.788 45.6048 112.332 35.6924 115.332 29.6797C115.332 25.943 115.332 16.2441 115.332 0.582932C88.9988 0.582932 69.6655 0.582932 57.3322 0.582932Z" fill="#675AF6"/>
<path opacity="0.046" d="M60.7155 72.1489C21.4519 58.1885 4.00139 89.5994 4.00139 72.1489C4.00139 54.6984 24.942 45.9732 35.4123 35.5028C45.8826 25.0325 41.3005 7.58203 57.2254 7.58203C73.1503 7.58203 65.1273 17.3641 82.5287 25.0325C99.93 32.701 117.43 12.8172 117.43 35.5028C117.43 58.1885 99.9792 86.1093 60.7155 72.1489Z" fill="#675AF6"/>
<path d="M80.2584 44.4238H46.7909C46.4403 44.4238 46.1562 44.7093 46.1562 45.0612V64.839C46.1562 65.1911 46.4403 65.4765 46.7909 65.4765H80.2585C80.6091 65.4765 80.8931 65.191 80.8931 64.839V45.0613C80.8931 44.7092 80.6089 44.4238 80.2584 44.4238Z" fill="#E8E0FF"/>
<path d="M65.1999 44.4238H61.8547C61.6739 44.4238 61.5273 44.7093 61.5273 45.0612V64.839C61.5273 65.1911 61.6739 65.4765 61.8547 65.4765H65.1999C65.3808 65.4765 65.5273 65.191 65.5273 64.839V45.0613C65.5273 44.7092 65.3807 44.4238 65.1999 44.4238Z" fill="#B9B3F9"/>
<path d="M65.1999 44.4238H61.8547C61.6739 44.4238 61.5273 44.7079 61.5273 45.0581V47.5817H65.5273V45.0581C65.5273 44.7078 65.3807 44.4238 65.1999 44.4238Z" fill="#675AF6"/>
<path d="M78.1506 32.4006C77.5481 30.7711 76.5975 29.1796 75.6077 28.1432C75.2445 27.763 74.7554 27.5702 74.1987 27.5826C72.3539 27.6272 69.3478 30.0297 65.2639 34.7236C65.1619 34.8407 65.1055 34.993 65.1055 35.1509V38.5234C65.1055 38.8756 65.3805 39.161 65.7199 39.161H75.1712C77.2771 39.161 78.1463 38.0978 78.5045 37.2059C78.9824 36.0169 78.8566 34.3103 78.1506 32.4006Z" fill="#B9B3F9"/>
<path d="M78.4901 33.8753C78.4723 33.814 78.4444 33.7558 78.4071 33.7029C77.4505 32.3411 75.3833 32.8506 73.8177 33.5179C69.2693 35.4563 67.3909 38.1265 67.3132 38.2392C67.1866 38.4227 67.1769 38.6565 67.2878 38.8487C67.3986 39.0409 67.6122 39.1605 67.8445 39.1605H75.0554C76.4372 39.1605 77.4618 38.7612 78.101 37.9737C78.8603 37.0381 78.9948 35.6209 78.4901 33.8753Z" fill="#675AF6"/>
<path d="M60.7368 34.7235C56.6529 30.0297 53.6467 27.6272 51.802 27.5826C51.2438 27.5701 50.7561 27.763 50.3929 28.1432C49.4032 29.1795 48.4525 30.7711 47.8501 32.4006C47.1441 34.3102 47.0183 36.0168 47.4959 37.2059C47.8542 38.0978 48.7233 39.161 50.8293 39.161H60.2807C60.6202 39.161 60.8951 38.8755 60.8951 38.5234V35.1508C60.8951 34.9929 60.8389 34.8406 60.7368 34.7235Z" fill="#B9B3F9"/>
<path d="M58.6877 38.2392C58.61 38.1266 56.7316 35.4562 52.1831 33.5178C50.6174 32.8506 48.5503 32.3412 47.5937 33.7028C47.5565 33.7558 47.5285 33.8139 47.5108 33.8752C47.0059 35.6209 47.1405 37.0381 47.8999 37.9737C48.539 38.7612 49.5636 39.1605 50.9455 39.1605H58.1564C58.3887 39.1605 58.6023 39.0409 58.7131 38.8487C58.8239 38.6566 58.8142 38.4227 58.6877 38.2392ZM65.5497 33.8974H60.4511C60.1149 33.8974 59.8425 34.1821 59.8425 34.5331V38.5247C59.8425 38.8759 60.1149 39.1605 60.4511 39.1605H65.5497C65.8859 39.1605 66.1583 38.8758 66.1583 38.5247V34.5331C66.1583 34.182 65.8859 33.8974 65.5497 33.8974Z" fill="#675AF6"/>
<path d="M82.3684 38.1084H43.6316C43.2827 38.1084 43 38.3864 43 38.7293V44.856C43 45.1989 43.2827 45.4768 43.6316 45.4768H82.3684C82.7173 45.4768 83 45.1988 83 44.856V38.7293C83 38.3863 82.7173 38.1084 82.3684 38.1084Z" fill="#E8E0FF"/>
<path d="M66.4727 38.1084H60.4727V45.4764H66.4727V38.1084Z" fill="#B9B3F9"/>
</g>
<defs>
<clipPath id="clip0">
<rect width="115" height="100" fill="white" transform="translate(0 0.582031)"/>
</clipPath>
</defs>
</svg>
