<svg xmlns="http://www.w3.org/2000/svg" width="16" height="28" viewBox="0 0 16 28">
    <g fill="#3792FC">
        <path d="M10.338 1.4H5.662c-.258 0-.467.21-.467.467s.21.466.467.466h4.676c.258 0 .467-.209.467-.466 0-.258-.209-.467-.467-.467zM13.611 1.4h-.468c-.258 0-.467.21-.467.467s.21.466.467.466h.468c.258 0 .468-.209.468-.466 0-.258-.21-.467-.468-.467zM8.58 23.8H7.42c-.711 0-1.29.578-1.29 1.288v.225c0 .71.579 1.287 1.29 1.287h1.16c.711 0 1.29-.577 1.29-1.287v-.225c0-.71-.579-1.288-1.29-1.288zm.355 1.513c0 .195-.159.354-.354.354H7.42c-.196 0-.355-.159-.355-.354v-.225c0-.196.159-.355.355-.355h1.16c.196 0 .355.159.355.355v.225z"/>
        <path d="M14.259 0H1.741C.81 0 .051.757.051 1.687v24.626c0 .93.759 1.687 1.69 1.687H14.26c.931 0 1.69-.757 1.69-1.687V1.687c0-.93-.759-1.687-1.69-1.687zm.755 26.313c0 .415-.339.754-.755.754H1.741c-.416 0-.755-.339-.755-.754V1.687c0-.415.339-.754.755-.754H14.26c.416 0 .755.339.755.754v24.626z"/>
        <path d="M15.481 2.8H.52c-.258 0-.468.21-.468.467v19.6c0 .257.21.466.468.466H15.48c.258 0 .468-.209.468-.466v-19.6c0-.258-.21-.467-.468-.467zm-.467 19.6H.986V3.733h14.028V22.4z"/>
    </g>
</svg>
