<svg xmlns="http://www.w3.org/2000/svg" width="40" height="40" viewBox="0 0 40 40">
  <g fill="none" fill-rule="evenodd" transform="translate(0 10)">
    <path fill="#94C5FF" stroke="#68AEFF" stroke-width="2" d="M29,5 L29,17 L39,17 L39,11.3204651 L34.4853821,5 L29,5 Z"/>
    <circle cx="34" cy="18" r="3.5" fill="#94C5FF" stroke="#FFF"/>
    <path fill="#94C5FF" stroke="#68AEFF" stroke-width="2" d="M12,1 L12,17 L29,17 L29,1 L12,1 Z"/>
    <circle cx="17" cy="18" r="3.5" fill="#94C5FF" stroke="#FFF"/>
    <path fill="#3792FC" d="M8,13 C8.55228475,13 9,13.4477153 9,14 C9,14.5522847 8.55228475,15 8,15 L3,15 C2.44771525,15 2,14.5522847 2,14 C2,13.4477153 2.44771525,13 3,13 L8,13 Z M8,9 C8.55228475,9 9,9.44771525 9,10 C9,10.5522847 8.55228475,11 8,11 L2,11 C1.44771525,11 1,10.5522847 1,10 C1,9.44771525 1.44771525,9 2,9 L8,9 Z M8,5 C8.55228475,5 9,5.44771525 9,6 C9,6.55228475 8.55228475,7 8,7 L1,7 C0.44771525,7 1.78657678e-16,6.55228475 0,6 C4.33869274e-17,5.44771525 0.44771525,5 1,5 L8,5 Z"/>
  </g>
</svg>
