<svg width="113" height="82" viewBox="0 0 113 82" fill="none" xmlns="http://www.w3.org/2000/svg">
<mask id="mask0" mask-type="alpha" maskUnits="userSpaceOnUse" x="0" y="0" width="115" height="84">
<rect width="115" height="84" fill="white"/>
</mask>
<g mask="url(#mask0)">
<path d="M82.6975 55.4811C86.343 57.1221 93.1491 58.6312 95.3476 58.2391C97.546 57.8471 95.4174 55.4971 97.4843 53.9179C99.5511 52.3386 102.378 55.4317 103.954 54.4281C105.53 53.4246 102.65 50.2674 103.763 48.7491C104.876 47.2308 107.88 48.4894 109.353 47.0658C110.825 45.6422 109.149 44.7271 109.708 43.0012C110.192 41.5063 112.846 38.835 112.462 37.7444C112.078 36.6536 109.862 38.3623 107.902 37.8684C105.942 37.3744 105.893 35.7125 104.783 35.8092C103.674 35.9059 105.403 38.8856 102.39 38.3489C99.3765 37.8123 99.242 34.5152 97.4001 35.0545C95.5583 35.5938 95.9131 39.5195 94.2513 40.7322C92.5894 41.9449 91.7057 37.7513 89.0054 39.9012C86.3051 42.0512 86.6661 45.0983 85.4334 47.7528C84.358 50.0686 82.5306 51.5543 82.219 54.6527C82.1991 54.8503 82.5117 55.3979 82.6975 55.4815L82.6975 55.4811Z" fill="#DFD8EF"/>
<path d="M94.2423 56.3309C93.0985 55.0976 91.9866 54.1924 90.9064 53.6155C89.8262 53.0385 88.2425 52.8477 86.1554 53.043L86.4869 52.8516C88.5805 52.7413 90.1088 52.9641 91.0721 53.5198C92.0353 54.0755 93.092 55.0124 94.2423 56.3309V56.3309Z" fill="#DFD8EF"/>
<path d="M90.1425 42.3422C90.6387 43.9494 90.8666 45.365 90.8262 46.5889C90.7857 47.8129 90.1911 49.335 89.0421 51.1553L89.3737 50.9639C90.4522 49.0955 90.9915 47.6053 90.9919 46.4932C90.9923 45.3812 90.7092 43.9976 90.1425 42.3422Z" fill="#DFD8EF"/>
<path d="M103.225 53.1338C101.826 51.4584 100.586 50.3323 99.5059 49.7553C98.4257 49.1783 96.6826 48.7112 94.2765 48.3541L94.608 48.1627C97.0206 48.6049 98.7084 49.1039 99.6717 49.6596C100.635 50.2153 101.819 51.3733 103.225 53.1338Z" fill="#B9B3F9"/>
<path d="M97.5019 36.3267C98.2533 38.3759 98.6088 40.0125 98.5684 41.2364C98.5279 42.4604 98.0609 44.2036 97.1671 46.4659L97.4987 46.2745C98.3219 43.964 98.7337 42.2528 98.7341 41.1407C98.7345 40.0287 98.3237 38.424 97.5019 36.3267V36.3267Z" fill="#B9B3F9"/>
<path d="M107.891 46.1369C106.408 45.2759 105.191 44.7776 104.238 44.6418C103.285 44.506 101.873 44.6296 100 45.0125L100.194 44.7821C102.094 44.4603 103.474 44.3752 104.335 44.5266C105.195 44.678 106.381 45.2148 107.891 46.1369L107.891 46.1369Z" fill="#B9B3F9"/>
<path d="M105.086 36.7396C105.32 38.044 105.36 39.0601 105.206 39.7877C105.053 40.5153 104.59 41.5083 103.817 42.7667L104.036 42.6872C104.772 41.3926 105.198 40.4128 105.316 39.748C105.433 39.0831 105.357 38.0803 105.086 36.7396L105.086 36.7396Z" fill="#B9B3F9"/>
<path d="M112.463 37.7419L76.8141 58.6577L76.527 58.1604L112.463 37.7419Z" fill="#B9B3F9"/>
<path d="M54.2201 60.2403C62.0215 59.4526 75.0619 55.3413 78.4118 52.5194C81.7616 49.6976 75.8413 47.7935 77.8034 43.0841C79.7653 38.3748 87.6008 40.856 89.2934 37.606C90.986 34.3558 82.9972 31.8181 83.3995 28.1472C83.8018 24.4764 90.1383 23.6684 91.243 19.8065C92.3478 15.9446 88.6029 16.034 87.8599 12.5542C87.2164 9.5402 89.1045 2.40031 87.3832 0.924127C85.6618 -0.55233 83.5729 4.52344 79.7593 5.60656C75.9456 6.68969 74.2322 3.91509 72.4426 5.16732C70.6531 6.41958 76.5126 9.78488 70.8679 11.8284C65.2231 13.8719 61.7613 8.4035 59.1617 11.1258C56.5621 13.8481 61.0147 20.1682 59.3811 23.8578C57.7476 27.5474 52.134 21.291 49.6556 27.5908C47.1774 33.8907 50.7788 38.7124 51.2882 44.4303C51.7326 49.4184 50.0857 53.7339 52.5948 59.3024C52.7549 59.6575 53.8229 60.2811 54.2204 60.2409L54.2201 60.2403Z" fill="#B9B3F9"/>
<path d="M74.6616 50.3636C71.5094 49.3904 68.7329 48.9434 66.3323 49.0227C63.9317 49.1019 61.0546 50.3309 57.7011 52.7094L58.0765 52.0592C61.5244 49.8188 64.3388 48.6984 66.52 48.6975C68.7011 48.6968 71.4148 49.2521 74.6616 50.3636V50.3636Z" fill="#DFD8EF"/>
<path d="M53.982 30.622C56.401 32.8653 58.1763 35.0463 59.308 37.165C60.4396 39.2836 60.9222 42.4522 60.7558 46.6709L61.1312 46.0206C61.1308 41.7893 60.5856 38.7293 59.4957 36.8398C58.4058 34.9506 56.568 32.8781 53.982 30.622Z" fill="#DFD8EF"/>
<path d="M86.7829 36.1227C82.7637 34.6489 79.5538 33.9517 77.1532 34.031C74.7525 34.1102 71.3335 35.0263 66.8964 36.7793L67.2719 36.129C71.8035 34.5143 75.1597 33.7068 77.3409 33.7059C79.5219 33.7051 82.6692 34.5108 86.7829 36.1227Z" fill="#DFD8EF"/>
<path d="M60.5765 13.1893C63.8624 15.9332 66.0712 18.3644 67.2028 20.483C68.3345 22.6016 69.2507 26.0206 69.9511 30.7397L70.3265 30.0895C69.4591 25.3576 68.4804 22.0472 67.3906 20.1579C66.3007 18.2687 64.0293 15.9459 60.5765 13.1893V13.1893Z" fill="#9D95F8"/>
<path d="M87.8457 19.6634C84.4822 19.6554 81.9251 20.0032 80.1737 20.7068C78.4225 21.4104 76.1444 23.0056 73.3392 25.4923L73.4417 24.9113C76.3536 22.5013 78.6146 21.0032 80.2249 20.4164C81.8352 19.8296 84.3753 19.5788 87.8457 19.6635L87.8457 19.6634Z" fill="#9D95F8"/>
<path d="M73.8652 6.45133C75.5407 8.43835 76.6051 10.125 77.0584 11.5111C77.5118 12.8972 77.699 15.038 77.6203 17.9334L77.9133 17.5842C77.8936 14.6635 77.6574 12.5809 77.205 11.3364C76.7525 10.092 75.6393 8.4636 73.8653 6.4513L73.8652 6.45133Z" fill="#9D95F8"/>
<path d="M87.3786 0.920079L47.3382 71.4066L46.3629 70.8435L87.3786 0.920079Z" fill="#9D95F8"/>
<path d="M85.0048 39.0945C94.9487 39.8308 102.22 37.5001 106.817 32.022C111.52 26.4169 112.534 18.6199 109.858 8.63169C99.5564 7.73066 92.0543 10.0832 87.351 15.6883C82.7515 21.1697 81.7158 28.7237 84.1735 38.397C84.229 38.6154 84.7749 39.0779 85.0054 39.095L85.0048 39.0945Z" fill="#C6C2F9"/>
<path d="M87.8442 22.197C88.9969 23.7181 89.7893 25.139 90.2211 26.4596C90.653 27.7804 90.6097 29.6341 90.091 32.0209L90.3702 31.6881C90.795 29.2774 90.7919 27.4791 90.3607 26.2933C89.9296 25.1074 89.0907 23.742 87.8442 22.197L87.8442 22.197Z" fill="#DFD8EF"/>
<path d="M105.979 28.6266C103.837 27.3832 102.079 26.6635 100.703 26.4674C99.3271 26.2714 97.2873 26.4499 94.5832 27.0028L94.8624 26.6701C97.6064 26.2053 99.5998 26.0823 100.842 26.301C102.085 26.5197 103.797 27.2949 105.979 28.6266L105.979 28.6266Z" fill="#DFD8EF"/>
<path d="M93.3528 12.9271C94.9492 14.8205 95.9634 16.4276 96.3954 17.7484C96.8274 19.0691 97.0058 21.109 96.9308 23.8681L97.21 23.5353C97.1912 20.7522 96.9662 18.7678 96.5351 17.582C96.1039 16.3962 95.0432 14.8446 93.3528 12.9271L93.3528 12.9271Z" fill="#DFD8EF"/>
<path d="M108.24 19.3559C106.324 19.0134 104.832 18.9547 103.764 19.1797C102.695 19.4046 101.237 20.0846 99.3892 21.2195L99.5059 20.8988C101.407 19.8183 102.846 19.1918 103.822 19.0193C104.798 18.8468 106.271 18.959 108.24 19.3559L108.24 19.3559Z" fill="#DFD8EF"/>
<path d="M101.6 10.4236C102.355 11.724 102.792 12.7918 102.911 13.6271C103.03 14.4623 102.921 15.7008 102.586 17.3425L102.788 17.173C103.07 15.507 103.145 14.2967 103.012 13.5423C102.879 12.7878 102.408 11.7483 101.6 10.4236L101.6 10.4236Z" fill="#DFD8EF"/>
<path d="M109.857 8.63021L84.8398 38.9552L84.3407 38.5364L109.857 8.63021Z" fill="#9D95F8"/>
<path fill-rule="evenodd" clip-rule="evenodd" d="M27.9836 54.1254C29.088 49.7719 29.4297 41.9471 28.5668 39.5915C27.704 37.2358 25.5194 40.0492 23.3689 38.0705C21.2184 36.0918 24.089 32.3605 22.6712 30.8127C21.2533 29.2648 18.3223 33.0677 16.4251 32.1321C14.5279 31.1964 15.3346 27.6274 13.4723 26.2762C11.61 24.925 10.9245 26.9582 8.90596 26.6763C7.15759 26.4322 3.68435 24.0171 2.55241 24.6545C1.42045 25.2918 3.74328 27.4105 3.57915 29.6754C3.41501 31.9404 1.58593 32.3191 1.90938 33.5276C2.23282 34.7361 5.19227 32.2414 5.18619 35.6801C5.18012 39.1188 1.55851 39.9109 2.51457 41.8435C3.47062 43.7762 7.74474 42.6176 9.41059 44.2198C11.0765 45.822 6.60916 47.6178 9.51459 50.1858C12.42 52.7539 15.7209 51.76 18.8986 52.6061C21.6706 53.3441 23.6708 55.0761 27.1597 54.8166C27.3822 54.8001 27.9271 54.3474 27.9834 54.1255L27.9836 54.1254Z" fill="#C6C2F9"/>
<path d="M26.6725 41.1894C25.5311 42.6954 24.7466 44.1023 24.319 45.41C23.8913 46.7177 23.9891 48.507 24.6125 50.778L24.3361 50.4485C23.8056 48.1538 23.7538 46.4193 24.1807 45.2453C24.6077 44.0712 25.4382 42.7192 26.6725 41.1894H26.6725Z" fill="#A998D2"/>
<path d="M21.3817 31.8731C19.801 33.7477 18.7968 35.3389 18.3692 36.6466C17.9415 37.9543 17.7648 39.974 17.8391 42.7057L17.5626 42.3763C17.5813 39.6207 17.804 37.6559 18.231 36.4819C18.6579 35.3078 19.7081 33.7715 21.3817 31.8731L21.3817 31.8731Z" fill="#A998D2"/>
<path d="M11.9948 48.4527C13.6762 47.5902 15.1979 47.0619 16.5599 46.8679C17.922 46.6738 19.7221 47.0348 21.9602 47.9509L21.6837 47.6214C19.4061 46.7926 17.6521 46.4866 16.4217 46.7031C15.1914 46.9197 13.7157 47.5029 11.9948 48.4527Z" fill="#B9B3F9"/>
<path d="M3.90349 41.4863C6.02414 40.2552 7.76551 39.5426 9.12758 39.3485C10.4897 39.1544 12.5094 39.3311 15.1867 39.8786L14.9103 39.5491C12.1934 39.089 10.2197 38.9672 8.98936 39.1838C7.75899 39.4003 6.06366 40.1678 3.90349 41.4863H3.90349Z" fill="#B9B3F9"/>
<path d="M12.7314 28.0769C12.0681 29.8858 11.7543 31.3305 11.7899 32.411C11.8256 33.4914 12.2379 35.0301 13.0268 37.0271L12.7342 36.8581C12.0075 34.8186 11.6439 33.3081 11.6436 32.3265C11.6433 31.3449 12.0059 29.9284 12.7314 28.077L12.7314 28.0769Z" fill="#B9B3F9"/>
<path d="M2.88063 33.0128C4.27843 32.5003 5.3947 32.2578 6.22964 32.2854C7.06452 32.313 8.25355 32.6315 9.79662 33.2412L9.66606 33.015C8.09007 32.4534 6.92282 32.1726 6.16436 32.1723C5.40584 32.1721 4.31126 32.4522 2.88062 33.0128L2.88063 33.0128Z" fill="#B9B3F9"/>
<path d="M2.54963 24.6563L32.6456 60.0172L32.1515 60.4318L2.54963 24.6563Z" fill="#B9B3F9"/>
<path fill-rule="evenodd" clip-rule="evenodd" d="M38.3607 46.9396C40.1885 41.7011 41.4515 32.1093 40.6433 29.117C39.835 26.1247 36.8439 29.3522 34.4105 26.6857C31.9771 24.0192 35.9114 19.7365 34.3333 17.6791C32.7551 15.6217 28.739 19.9858 26.5049 18.6303C24.2707 17.2747 25.6479 12.9695 23.5016 11.1062C21.3554 9.24286 20.2929 11.6711 17.8392 11.107C15.714 10.6183 11.7 7.27264 10.2383 7.93481C8.77669 8.59721 11.407 11.4546 10.9612 14.2241C10.5154 16.9937 8.22376 17.2627 8.49166 18.7848C8.75957 20.3069 12.67 17.5555 12.2923 21.7865C11.9147 26.0174 7.37285 26.6022 8.34109 29.0835C9.30933 31.5649 14.694 30.5991 16.5714 32.7501C18.4488 34.901 12.7581 36.63 16.0571 40.1032C19.3561 43.5763 23.525 42.7085 27.3445 44.0919C30.6762 45.2985 32.9512 47.6452 37.2723 47.7017C37.548 47.7053 38.2672 47.2068 38.3603 46.9399L38.3607 46.9396Z" fill="#B9B3F9"/>
<path d="M38.1385 30.879C36.5718 32.6094 35.4549 34.2563 34.7876 35.8196C34.1206 37.3828 34.0484 39.5953 34.5709 42.4571L34.2662 42.0219C33.8605 39.1408 33.9835 37.0009 34.6353 35.602C35.287 34.2031 36.4547 32.6288 38.1385 30.879L38.1385 30.879Z" fill="#DFD8EF"/>
<path d="M19.2963 38.2368C21.4582 37.3564 23.3877 36.8701 25.085 36.7778C26.7821 36.6856 28.9584 37.3237 31.6139 38.6919L31.3092 38.2567C28.5955 36.9917 26.4701 36.4262 24.9326 36.5602C23.3952 36.6942 21.5165 37.253 19.2962 38.2368L19.2963 38.2368Z" fill="#DFD8EF"/>
<path d="M32.632 18.8451C30.485 20.9819 29.078 22.8319 28.4108 24.3952C27.7437 25.9584 27.3088 28.4248 27.1061 31.7945L26.8014 31.3593C27.121 27.9703 27.6067 25.5765 28.2584 24.1776C28.9102 22.7787 30.368 21.0013 32.632 18.8451L32.632 18.8451Z" fill="#DFD8EF"/>
<path d="M10.0867 28.7941C12.8289 27.5074 15.0486 26.8179 16.7458 26.7256C18.4429 26.6334 20.9094 27.0684 24.1451 28.0303L23.8404 27.5951C20.5465 26.7364 18.1309 26.374 16.5935 26.508C15.0561 26.642 12.8872 27.404 10.0867 28.7941L10.0867 28.7941Z" fill="#9D95F8"/>
<path d="M22.395 13.2423C21.384 15.3969 20.8423 17.1409 20.7699 18.4743C20.6975 19.8077 21.0392 21.7457 21.795 24.2881L21.4531 24.0487C20.7784 21.4606 20.4936 19.5626 20.599 18.3546C20.7042 17.1466 21.303 15.4425 22.3951 13.2423L22.395 13.2423Z" fill="#9D95F8"/>
<path d="M9.74264 18.2562C11.5179 17.776 12.9178 17.5978 13.9422 17.7216C14.9666 17.8454 16.3955 18.3655 18.2288 19.2818L18.0925 18.9894C16.2136 18.1287 14.8074 17.6573 13.874 17.5754C12.9407 17.4934 11.5635 17.7204 9.74261 18.2562L9.74264 18.2562Z" fill="#9D95F8"/>
<path d="M10.2341 7.93678L43.4643 54.6936L42.8111 55.151L10.2341 7.93678Z" fill="#9D95F8"/>
<path d="M31.8437 81.6935H98.6741C100.879 81.6935 102.429 79.9047 102.127 77.6947L94.4673 21.4307H19.6445L27.3041 77.6947C27.6005 79.9047 29.6337 81.6935 31.8437 81.6935Z" fill="#5A6389"/>
<path d="M94.4621 21.4355H19.6445L21.6985 36.5207H96.5161L94.4621 21.4355Z" fill="#8279F8"/>
<path opacity="0.3" d="M94.4609 21.4355H66.8125L101.658 80.0707C102.058 79.4051 102.24 78.5887 102.12 77.6995L94.4609 21.4355Z" fill="#DCDEE6"/>
<path d="M82.391 81.6935H15.5606C13.3558 81.6935 11.8062 79.9047 12.1078 77.6947L19.7674 21.4307H94.5902L86.9306 77.6947C86.629 79.9047 84.5958 81.6935 82.391 81.6935Z" fill="white"/>
<path d="M30.2365 62.6926C30.0337 64.1902 28.6557 65.4018 27.1581 65.4018C25.6605 65.4018 24.6153 64.1902 24.8181 62.6926C25.0209 61.195 26.3989 59.9834 27.8965 59.9834C29.3941 59.9834 30.4393 61.195 30.2365 62.6926Z" fill="#675AF6"/>
<path d="M59.8709 52.2136C61.0419 51.1195 61.2171 49.4042 60.2622 48.3822C59.3074 47.3603 57.5841 47.4187 56.4132 48.5127C55.2422 49.6068 55.067 51.3221 56.0218 52.3441C56.9767 53.366 58.7 53.3076 59.8709 52.2136Z" fill="#675AF6"/>
<path d="M92.3736 37.6963L93.0444 32.7563H18.2216L17.5508 37.6963H92.3736Z" fill="#4F44D0"/>
<path d="M92.5376 36.5207H17.7148L19.7688 21.4355H94.5916L92.5376 36.5207Z" fill="#675AF6"/>
<path fill-rule="evenodd" clip-rule="evenodd" d="M36.3513 49.3784L36.3789 49.1741C36.5738 49.1813 36.7123 49.1681 36.7942 49.1344C36.8761 49.1008 36.9468 49.0046 37.0064 48.8458L37.2166 48.8742L36.9319 50.9849L36.6477 50.9466L36.8501 49.4457L36.3513 49.3784Z" fill="#5A6389"/>
<path fill-rule="evenodd" clip-rule="evenodd" d="M43.0295 50.8496C43.064 50.6684 43.1232 50.5146 43.207 50.3883C43.2909 50.262 43.4355 50.1564 43.6408 50.0716L43.9472 49.9456C44.0845 49.8888 44.1823 49.8377 44.2406 49.7923C44.3326 49.7213 44.3857 49.633 44.4 49.5274C44.4166 49.4041 44.3928 49.3011 44.3286 49.2186C44.2644 49.1361 44.1706 49.0865 44.0472 49.0699C43.8647 49.0453 43.729 49.0973 43.6403 49.226C43.5929 49.295 43.5583 49.3948 43.5367 49.5255L43.2658 49.489C43.2936 49.3048 43.348 49.1589 43.4288 49.0513C43.572 48.8616 43.7896 48.7865 44.0816 48.8259C44.3244 48.8586 44.4929 48.9482 44.5872 49.0945C44.6815 49.2409 44.7178 49.3945 44.6961 49.5553C44.6732 49.725 44.5939 49.862 44.4583 49.9663C44.3798 50.0271 44.2445 50.0952 44.0524 50.1708L43.8345 50.2559C43.7306 50.2962 43.6478 50.3367 43.586 50.3776C43.4757 50.4502 43.4007 50.537 43.3609 50.6382L44.5184 50.7943L44.4845 51.0459L43.0295 50.8496Z" fill="#5A6389"/>
<path fill-rule="evenodd" clip-rule="evenodd" d="M51.1978 49.8725C51.3037 49.9181 51.3819 49.9884 51.4323 50.0834C51.4832 50.1792 51.5001 50.2902 51.4831 50.4165C51.4558 50.6188 51.367 50.7746 51.2166 50.8839C51.0662 50.9932 50.8687 51.0314 50.6239 50.9984C50.3733 50.9646 50.2008 50.8712 50.1063 50.7183C50.0119 50.5654 49.978 50.3903 50.0047 50.193L50.2829 50.2305C50.2763 50.3693 50.2885 50.4724 50.3196 50.5399C50.3736 50.6607 50.4909 50.7333 50.6715 50.7576C50.8116 50.7765 50.9292 50.7542 51.0241 50.6907C51.1191 50.6271 51.1746 50.5361 51.1906 50.4177C51.2103 50.2717 51.1794 50.1635 51.0979 50.0933C51.0165 50.023 50.8963 49.9772 50.7375 49.9557C50.7197 49.9533 50.7017 49.9511 50.6833 49.9492C50.665 49.9472 50.6464 49.9455 50.6275 49.9439L50.6593 49.7086C50.6865 49.7153 50.7094 49.7204 50.728 49.7239C50.7467 49.7274 50.7668 49.7306 50.7885 49.7335C50.8882 49.747 50.9722 49.7422 51.0406 49.7193C51.1606 49.6792 51.2301 49.5881 51.2493 49.446C51.2635 49.3405 51.237 49.254 51.1697 49.1866C51.1025 49.1193 51.019 49.0789 50.9193 49.0655C50.7417 49.0415 50.6109 49.0841 50.5268 49.1934C50.4805 49.2534 50.4468 49.3433 50.4256 49.463L50.1622 49.4275C50.1835 49.2696 50.2331 49.1397 50.3112 49.0377C50.4464 48.855 50.6506 48.782 50.924 48.8189C51.1401 48.8481 51.3008 48.9187 51.4063 49.0309C51.5117 49.1431 51.5521 49.2905 51.5275 49.473C51.5099 49.6033 51.4606 49.7041 51.3797 49.7756C51.3295 49.8201 51.2679 49.852 51.195 49.8713L51.1978 49.8725Z" fill="#5A6389"/>
<path fill-rule="evenodd" clip-rule="evenodd" d="M57.8864 50.2068L57.944 49.3767L57.1434 49.9973L57.8864 50.2068ZM57.8229 50.8682L57.8543 50.4154L56.8278 50.1246L56.8436 49.8969L57.9974 49.0233L58.2459 49.0937L58.1626 50.2956L58.5075 50.3933L58.4934 50.5964L58.1485 50.4987L58.1171 50.9516L57.8229 50.8682Z" fill="white"/>
<path fill-rule="evenodd" clip-rule="evenodd" d="M64.799 50.3043C64.7963 50.4586 64.8526 50.5733 64.9681 50.6481C65.0273 50.6862 65.0983 50.7109 65.1812 50.7221C65.3391 50.7434 65.4628 50.7088 65.5524 50.6184C65.6419 50.528 65.695 50.4216 65.7115 50.2993C65.7314 50.1513 65.7017 50.0307 65.6224 49.9376C65.543 49.8445 65.4401 49.7894 65.3138 49.7724C65.2221 49.76 65.141 49.7672 65.0706 49.7938C65.0002 49.8205 64.9375 49.8623 64.8826 49.9192L64.6535 49.8747L64.9688 48.7553L66.07 48.9038L66.0353 49.1614L65.1339 49.0398L64.9641 49.6167C65.0185 49.5859 65.0692 49.5641 65.1161 49.5513C65.1994 49.5294 65.2929 49.5254 65.3965 49.5394C65.5909 49.5656 65.7472 49.6505 65.8655 49.7941C65.9838 49.9376 66.03 50.1056 66.004 50.298C65.977 50.4984 65.8913 50.6666 65.7468 50.8029C65.6023 50.9391 65.3944 50.9889 65.123 50.9523C64.9503 50.929 64.8042 50.8599 64.6846 50.7447C64.565 50.6296 64.5109 50.4704 64.5222 50.267L64.799 50.3043Z" fill="#5A6389"/>
<path fill-rule="evenodd" clip-rule="evenodd" d="M21.079 55.8495C21.342 55.9242 21.5216 56.0303 21.6177 56.1678C21.7137 56.3054 21.7578 56.4315 21.7499 56.5461L21.4573 56.4631C21.4448 56.3843 21.4209 56.3186 21.3854 56.266C21.3196 56.1676 21.2143 56.0979 21.0697 56.0568C20.9042 56.0098 20.7685 56.0331 20.6625 56.1266C20.5566 56.22 20.4903 56.3781 20.4637 56.6009C20.5372 56.5411 20.6267 56.5063 20.7325 56.4965C20.8291 56.4885 20.9355 56.501 21.0517 56.5339C21.249 56.5899 21.4176 56.6887 21.5575 56.8303C21.6975 56.9719 21.7606 57.1417 21.7469 57.3397C21.7352 57.5091 21.6552 57.6394 21.5069 57.7306C21.3587 57.8218 21.1558 57.8309 20.8982 57.7578C20.6779 57.6953 20.4924 57.575 20.3415 57.3972C20.1907 57.2193 20.1261 56.9736 20.1479 56.66C20.1639 56.4281 20.2132 56.2415 20.2956 56.1001C20.454 55.8298 20.7151 55.7463 21.079 55.8495ZM20.9088 57.5854C21.0602 57.6276 21.1762 57.6193 21.2569 57.5605C21.3377 57.5017 21.3819 57.4179 21.3895 57.3093C21.3959 57.2173 21.3684 57.1204 21.3071 57.0185C21.2458 56.9166 21.1266 56.8409 20.9497 56.7915C20.826 56.757 20.7153 56.7589 20.6175 56.7972C20.5198 56.8355 20.4663 56.9195 20.4573 57.049C20.4493 57.1627 20.485 57.27 20.5643 57.371C20.6437 57.4719 20.7585 57.5434 20.9088 57.5854Z" fill="#5A6389"/>
<path fill-rule="evenodd" clip-rule="evenodd" d="M28.7321 55.8029L28.7007 56.0353C28.6237 56.0922 28.5177 56.1949 28.3826 56.3435C28.2475 56.4921 28.1238 56.6552 28.0114 56.833C27.9006 57.0059 27.8128 57.1654 27.7479 57.3113C27.7061 57.4052 27.6479 57.5576 27.5732 57.7685L27.2786 57.7288C27.4003 57.3333 27.6026 56.9506 27.8856 56.5809C28.0525 56.3643 28.2219 56.1807 28.394 56.03L27.2217 55.8719L27.2578 55.604L28.7321 55.8029Z" fill="#5A6389"/>
<path fill-rule="evenodd" clip-rule="evenodd" d="M34.7721 56.5534C34.8984 56.5884 34.9989 56.5883 35.0739 56.553C35.1488 56.5177 35.189 56.462 35.1943 56.3859C35.199 56.3198 35.1693 56.2496 35.1053 56.1754C35.0413 56.1011 34.9399 56.0447 34.8009 56.0062C34.663 55.9679 34.5614 55.968 34.496 56.0063C34.4305 56.0447 34.3952 56.101 34.39 56.1755C34.3841 56.259 34.4193 56.3354 34.4955 56.4046C34.5717 56.4738 34.6639 56.5234 34.7721 56.5534ZM34.6587 57.5819C34.7906 57.6183 34.902 57.6208 34.993 57.5896C35.084 57.5584 35.1334 57.4879 35.1412 57.3783C35.1492 57.2646 35.1105 57.1659 35.0249 57.0822C34.9394 56.9986 34.8265 56.9375 34.6861 56.8988C34.5499 56.8613 34.4367 56.8607 34.3465 56.8971C34.2562 56.9336 34.2073 57.005 34.1997 57.1113C34.1933 57.203 34.227 57.293 34.3009 57.3813C34.3748 57.4697 34.494 57.5365 34.6587 57.5819ZM34.3283 56.5973C34.248 56.5462 34.1862 56.4954 34.1427 56.445C34.061 56.3509 34.0239 56.2483 34.0316 56.1371C34.0413 55.9982 34.1131 55.8968 34.2471 55.833C34.3812 55.7692 34.5649 55.7704 34.7983 55.8367C35.0241 55.9008 35.1978 55.9981 35.3195 56.1287C35.4412 56.2594 35.4977 56.3876 35.489 56.5136C35.4809 56.63 35.4371 56.7136 35.3576 56.7646C35.3132 56.7936 35.2457 56.8152 35.1553 56.8294C35.2504 56.8927 35.3243 56.9552 35.377 57.0171C35.4751 57.1335 35.5193 57.2612 35.5097 57.4002C35.4983 57.5643 35.4191 57.6838 35.272 57.7585C35.1249 57.8332 34.9243 57.8345 34.67 57.7623C34.441 57.6973 34.2507 57.593 34.0991 57.4495C33.9476 57.306 33.8783 57.1404 33.8913 56.9528C33.899 56.8425 33.9395 56.7568 34.013 56.6958C34.0866 56.6347 34.1916 56.6019 34.3283 56.5973Z" fill="#5A6389"/>
<path fill-rule="evenodd" clip-rule="evenodd" d="M41.8599 57.12C41.8597 57.2521 41.9166 57.3597 42.0306 57.4426C42.0891 57.4858 42.1563 57.5182 42.232 57.5397C42.3735 57.5799 42.4975 57.5674 42.6038 57.5023C42.7101 57.4371 42.794 57.2674 42.8556 56.9931C42.784 57.057 42.6985 57.0919 42.5991 57.0978C42.4996 57.1037 42.394 57.0908 42.282 57.059C42.0549 56.9945 41.8791 56.8873 41.7546 56.7376C41.6302 56.5878 41.5741 56.4246 41.5863 56.248C41.598 56.0784 41.6736 55.9478 41.8131 55.8561C41.9526 55.7645 42.1497 55.7548 42.4042 55.8271C42.7477 55.9246 42.9762 56.1146 43.0898 56.397C43.1529 56.5524 43.1774 56.7315 43.1634 56.9341C43.1476 57.1629 43.0902 57.3533 42.9913 57.5053C42.8272 57.7584 42.5734 57.8363 42.2299 57.7387C41.9995 57.6732 41.8278 57.5757 41.7148 57.446C41.6018 57.3164 41.5503 57.1793 41.5603 57.0349L41.8599 57.12ZM42.3667 56.8074C42.481 56.8394 42.5874 56.839 42.6861 56.8064C42.7848 56.7737 42.8392 56.6836 42.8496 56.536C42.8588 56.4036 42.8233 56.293 42.7429 56.2043C42.6625 56.1156 42.5567 56.0528 42.4253 56.0161C42.2843 55.9767 42.1698 55.9825 42.0819 56.0335C41.9939 56.0846 41.9456 56.1721 41.9369 56.2962C41.9287 56.4136 41.9585 56.517 42.0263 56.6064C42.0941 56.6959 42.2076 56.7629 42.3667 56.8074Z" fill="#5A6389"/>
<path fill-rule="evenodd" clip-rule="evenodd" d="M47.7287 56.0782L47.7422 55.8891C47.9716 55.9362 48.1328 55.9522 48.2258 55.937C48.3188 55.9219 48.3929 55.8447 48.4482 55.7056L48.6974 55.7761L48.5585 57.7303L48.2214 57.6351L48.3202 56.2454L47.7287 56.0782ZM50.0503 55.9343C50.3547 56.0207 50.568 56.1825 50.69 56.4197C50.7845 56.6032 50.8225 56.8285 50.804 57.0958C50.7864 57.3492 50.7243 57.5452 50.6175 57.6839C50.4631 57.8825 50.2292 57.9374 49.9161 57.8485C49.6335 57.7683 49.43 57.6115 49.3055 57.3779C49.2017 57.183 49.1593 56.9489 49.1783 56.6756C49.1929 56.4638 49.24 56.2918 49.3195 56.1596C49.4683 55.9133 49.7119 55.8383 50.0503 55.9343ZM49.927 57.6534C50.084 57.6982 50.2129 57.6786 50.3136 57.5948C50.4144 57.511 50.4752 57.3186 50.4961 57.0178C50.5112 56.8007 50.49 56.6125 50.4324 56.4531C50.3749 56.2938 50.2491 56.1865 50.0551 56.1312C49.8768 56.0804 49.7418 56.1098 49.6501 56.2193C49.5585 56.3289 49.5036 56.5132 49.4856 56.7721C49.4721 56.967 49.4875 57.1312 49.532 57.2646C49.6002 57.4682 49.7319 57.5978 49.927 57.6534Z" fill="#5A6389"/>
<path fill-rule="evenodd" clip-rule="evenodd" d="M56.1351 56.1169L56.1486 55.9278C56.378 55.9749 56.5392 55.9909 56.6322 55.9757C56.7252 55.9605 56.7993 55.8834 56.8546 55.7443L57.1038 55.8148L56.9648 57.769L56.6278 57.6738L56.7267 56.2841L56.1351 56.1169ZM57.5975 56.3142L57.611 56.1251C57.8404 56.1722 58.0016 56.1882 58.0946 56.173C58.1876 56.1578 58.2617 56.0807 58.317 55.9416L58.5662 56.0121L58.4273 57.9663L58.0902 57.871L58.1891 56.4814L57.5975 56.3142Z" fill="#5A6389"/>
<path fill-rule="evenodd" clip-rule="evenodd" d="M63.021 56.0853L63.0345 55.8962C63.2639 55.9434 63.4251 55.9594 63.5181 55.9442C63.6111 55.929 63.6852 55.8518 63.7404 55.7128L63.9897 55.7832L63.8507 57.7375L63.5137 57.6422L63.6125 56.2526L63.021 56.0853ZM64.4127 57.5709C64.4347 57.4139 64.4861 57.2864 64.567 57.1885C64.6479 57.0905 64.7971 57.023 65.0147 56.9858L65.3394 56.931C65.4848 56.906 65.5876 56.8787 65.6476 56.8489C65.7421 56.8025 65.7926 56.733 65.799 56.6404C65.8065 56.5322 65.7715 56.4347 65.694 56.3479C65.6164 56.261 65.5094 56.1983 65.3728 56.1595C65.1706 56.1022 65.0266 56.1231 64.9406 56.2223C64.8946 56.2754 64.8654 56.3589 64.8531 56.4728L64.5531 56.3877C64.5676 56.2268 64.6144 56.1055 64.6936 56.0239C64.834 55.8801 65.0658 55.8541 65.3893 55.9458C65.6581 56.022 65.8505 56.1353 65.9665 56.2855C66.0826 56.4358 66.1357 56.5814 66.1259 56.7225C66.1156 56.8714 66.0407 56.9798 65.9012 57.0479C65.8204 57.0877 65.6781 57.1232 65.4743 57.1545L65.2429 57.1895C65.1326 57.2059 65.0454 57.2266 64.9813 57.2517C64.8668 57.296 64.7922 57.36 64.7574 57.4436L66.0391 57.8071L66.0238 58.0277L64.4127 57.5709Z" fill="#5A6389"/>
<path fill-rule="evenodd" clip-rule="evenodd" d="M18.6702 62.1992L18.6836 62.0101C18.913 62.0573 19.0742 62.0732 19.1671 62.0581C19.2601 62.0429 19.3342 61.9657 19.3894 61.8266L19.6386 61.8971L19.4997 63.8514L19.1628 63.7561L19.2616 62.3665L18.6702 62.1992ZM21.2602 62.9704C21.2602 62.9704 21.2602 62.9704 21.2602 62.9704C21.2612 62.9709 21.2622 62.9715 21.2633 62.972L21.2602 62.9704ZM21.3556 63.0529C21.4758 63.1146 21.5676 63.1932 21.6312 63.2888C21.6954 63.3852 21.7236 63.4889 21.7159 63.5998C21.7036 63.7775 21.6198 63.9013 21.4644 63.9712C21.3089 64.0411 21.0956 64.0376 20.8243 63.9606C20.5465 63.8818 20.3491 63.7642 20.2323 63.6077C20.1154 63.4513 20.063 63.2864 20.075 63.113L20.3834 63.2006C20.3882 63.3248 20.4106 63.4204 20.4506 63.4874C20.5203 63.6071 20.6553 63.6953 20.8555 63.7521C21.0108 63.7961 21.1378 63.7986 21.2364 63.7594C21.3351 63.7202 21.388 63.6486 21.3952 63.5446C21.4041 63.4164 21.3608 63.3126 21.2653 63.2334C21.1699 63.1542 21.0341 63.0896 20.858 63.0396C20.8383 63.034 20.8183 63.0286 20.7981 63.0233C20.7778 63.018 20.7572 63.0128 20.7364 63.0078L20.7507 62.801C20.7812 62.8123 20.8067 62.8214 20.8275 62.8281C20.8482 62.8349 20.8706 62.8417 20.8946 62.8485C21.0051 62.8799 21.0969 62.8917 21.1699 62.8842C21.298 62.871 21.3663 62.802 21.375 62.6772C21.3814 62.5845 21.3448 62.5012 21.2651 62.4273C21.1855 62.3535 21.0904 62.3009 20.9799 62.2695C20.783 62.2137 20.6432 62.227 20.5606 62.3096C20.515 62.355 20.4859 62.4298 20.4731 62.534L20.181 62.4512C20.1906 62.3125 20.2338 62.2046 20.3105 62.1273C20.4428 61.9881 20.6605 61.9615 20.9635 62.0475C21.2031 62.1155 21.3855 62.2103 21.5109 62.3321C21.6364 62.4538 21.6935 62.5949 21.6824 62.7552C21.6745 62.8696 21.6292 62.9513 21.5466 63.0004C21.4955 63.0309 21.4307 63.0479 21.3524 63.0513L21.3556 63.0529Z" fill="#5A6389"/>
<path fill-rule="evenodd" clip-rule="evenodd" d="M25.5508 62.1996L25.5642 62.0105C25.7936 62.0577 25.9548 62.0736 26.0477 62.0585C26.1407 62.0433 26.2148 61.9661 26.2701 61.827L26.5192 61.8975L26.3804 63.8517L26.0434 63.7565L26.1422 62.3669L25.5508 62.1996ZM28.0146 63.3061L28.0722 62.476L27.2716 63.0966L28.0146 63.3061ZM27.9511 63.9675L27.9825 63.5147L26.956 63.2239L26.9718 62.9962L28.1256 62.1226L28.3741 62.193L28.2908 63.3949L28.6357 63.4926L28.6216 63.6957L28.2767 63.598L28.2454 64.0509L27.9511 63.9675Z" fill="white"/>
<path fill-rule="evenodd" clip-rule="evenodd" d="M32.4348 62.1871L32.4482 61.9979C32.6776 62.0451 32.8387 62.0611 32.9317 62.0459C33.0247 62.0307 33.0988 61.9536 33.154 61.8145L33.4032 61.885L33.2643 63.8392L32.9274 63.7439L33.0262 62.3543L32.4348 62.1871ZM34.1651 63.2927C34.1756 63.4316 34.2473 63.5461 34.3805 63.6359C34.4487 63.6818 34.5287 63.7177 34.6205 63.7438C34.7955 63.7934 34.9281 63.786 35.0185 63.7215C35.1088 63.6571 35.1576 63.5711 35.1651 63.4637C35.1741 63.3338 35.131 63.2191 35.0359 63.1197C34.9408 63.0203 34.8232 62.9507 34.6832 62.911C34.5815 62.8822 34.4933 62.873 34.4184 62.8836C34.3435 62.8941 34.2785 62.9198 34.2232 62.9607L33.9682 62.8764L34.2163 61.9254L35.4366 62.2715L35.421 62.4976L34.4221 62.2143L34.2862 62.703C34.3432 62.6856 34.3968 62.6757 34.4472 62.6732C34.5366 62.6694 34.6388 62.6838 34.7536 62.7164C34.969 62.7775 35.1478 62.8843 35.29 63.0368C35.4322 63.1893 35.4974 63.35 35.4857 63.5189C35.4735 63.6947 35.3942 63.8303 35.2477 63.9257C35.1011 64.021 34.8775 64.026 34.5768 63.9407C34.3854 63.8864 34.2192 63.7958 34.078 63.6687C33.9369 63.5417 33.8636 63.3873 33.8584 63.2056L34.1651 63.2927Z" fill="#5A6389"/>
<path fill-rule="evenodd" clip-rule="evenodd" d="M40.0832 62.2041L40.0967 62.0149C40.3261 62.0621 40.4872 62.0781 40.5802 62.0629C40.6732 62.0477 40.7473 61.9706 40.8025 61.8315L41.0517 61.9019L40.9128 63.8562L40.5759 63.7609L40.6746 62.3713L40.0832 62.2041ZM42.4781 62.069C42.7412 62.1436 42.9207 62.2497 43.0168 62.3873C43.1129 62.5248 43.1569 62.6509 43.149 62.7656L42.8564 62.6825C42.844 62.6037 42.82 62.538 42.7845 62.4854C42.7187 62.387 42.6135 62.3173 42.4688 62.2762C42.3033 62.2292 42.1676 62.2525 42.0617 62.346C41.9557 62.4394 41.8895 62.5975 41.8629 62.8203C41.9363 62.7605 42.0259 62.7257 42.1316 62.7159C42.2283 62.7079 42.3347 62.7204 42.4508 62.7534C42.6481 62.8094 42.8167 62.9081 42.9567 63.0497C43.0966 63.1913 43.1597 63.3611 43.146 63.5591C43.1343 63.7285 43.0543 63.8588 42.9061 63.95C42.7578 64.0412 42.5549 64.0503 42.2974 63.9772C42.0771 63.9146 41.8915 63.7944 41.7407 63.6165C41.5898 63.4387 41.5253 63.1929 41.547 62.8794C41.563 62.6475 41.6123 62.4608 41.6947 62.3195C41.8531 62.0492 42.1143 61.9657 42.4781 62.069ZM42.308 63.8045C42.4594 63.8468 42.5755 63.8385 42.6563 63.7797C42.737 63.7209 42.7812 63.6372 42.7888 63.5285C42.7953 63.4366 42.7678 63.3397 42.7065 63.2378C42.6451 63.136 42.5259 63.0603 42.3489 63.0109C42.2253 62.9764 42.1145 62.9783 42.0167 63.0166C41.9189 63.0549 41.8655 63.1388 41.8564 63.2683C41.8485 63.3819 41.8841 63.4892 41.9635 63.5902C42.0428 63.6911 42.1577 63.7626 42.308 63.8045Z" fill="#5A6389"/>
<path fill-rule="evenodd" clip-rule="evenodd" d="M46.9612 62.1851L46.9747 61.996C47.2041 62.0431 47.3653 62.0591 47.4583 62.0439C47.5513 62.0287 47.6254 61.9516 47.6807 61.8125L47.9299 61.883L47.7909 63.8372L47.4539 63.7419L47.5527 62.3523L46.9612 62.1851ZM50.124 62.3118L50.1099 62.515C50.0307 62.5515 49.9237 62.6236 49.789 62.7315C49.6543 62.8394 49.5332 62.9626 49.4258 63.1011C49.3198 63.2356 49.2377 63.3623 49.1794 63.4813C49.1419 63.5577 49.0915 63.6838 49.0282 63.8594L48.7028 63.7672C48.8014 63.4345 48.9893 63.1287 49.2665 62.8501C49.4301 62.687 49.5993 62.5542 49.7742 62.4515L48.4793 62.0847L48.4955 61.8505L50.124 62.3118Z" fill="#5A6389"/>
<path fill-rule="evenodd" clip-rule="evenodd" d="M54.6112 62.2024L54.6246 62.0132C54.854 62.0604 55.0151 62.0764 55.1081 62.0612C55.2011 62.046 55.2752 61.9688 55.3304 61.8297L55.5796 61.9002L55.4407 63.8546L55.1038 63.7593L55.2025 62.3696L54.6112 62.2024ZM56.9185 62.7721C57.0447 62.8071 57.1453 62.807 57.2202 62.7717C57.2952 62.7364 57.3353 62.6808 57.3407 62.6047C57.3454 62.5385 57.3157 62.4683 57.2517 62.3941C57.1877 62.3199 57.0863 62.2635 56.9473 62.2249C56.8094 62.1867 56.7078 62.1867 56.6423 62.225C56.5769 62.2634 56.5416 62.3198 56.5363 62.3942C56.5305 62.4777 56.5656 62.5541 56.6419 62.6233C56.7181 62.6925 56.8103 62.7421 56.9185 62.7721ZM56.8049 63.8006C56.9369 63.837 57.0484 63.8396 57.1394 63.8083C57.2304 63.7771 57.2797 63.7067 57.2875 63.597C57.2956 63.4833 57.2568 63.3846 57.1713 63.301C57.0857 63.2174 56.9727 63.1562 56.8323 63.1175C56.6962 63.08 56.5829 63.0795 56.4926 63.1159C56.4023 63.1523 56.3534 63.2237 56.3459 63.3301C56.3394 63.4217 56.3731 63.5117 56.447 63.6C56.5209 63.6884 56.6402 63.7552 56.8049 63.8006ZM56.4744 62.816C56.3941 62.7649 56.3323 62.7141 56.2889 62.6637C56.2071 62.5697 56.1701 62.4671 56.1778 62.3559C56.1874 62.2169 56.2592 62.1155 56.3933 62.0518C56.5273 61.988 56.711 61.9892 56.9445 62.0554C57.1702 62.1195 57.344 62.2169 57.4657 62.3475C57.5874 62.4781 57.6438 62.6064 57.6351 62.7324C57.6271 62.8487 57.5833 62.9324 57.5038 62.9833C57.4593 63.0123 57.3919 63.0339 57.3015 63.0481C57.3966 63.1114 57.4704 63.174 57.5231 63.2359C57.6212 63.3523 57.6655 63.48 57.6559 63.6189C57.6445 63.7831 57.5653 63.9025 57.4182 63.9772C57.2711 64.0519 57.0704 64.0532 56.8161 63.981C56.5871 63.916 56.3968 63.8117 56.2453 63.6682C56.0937 63.5247 56.0245 63.3591 56.0374 63.1715C56.0451 63.0612 56.0857 62.9756 56.1592 62.9145C56.2327 62.8535 56.3378 62.8206 56.4744 62.816Z" fill="#5A6389"/>
<path fill-rule="evenodd" clip-rule="evenodd" d="M62.2598 62.2003L62.2733 62.0112C62.5027 62.0584 62.6639 62.0743 62.7569 62.0592C62.8499 62.044 62.924 61.9668 62.9792 61.8277L63.2285 61.8982L63.0896 63.8525L62.7526 63.7573L62.8513 62.3676L62.2598 62.2003ZM64.0193 63.3393C64.0191 63.4714 64.076 63.5789 64.19 63.6619C64.2485 63.7051 64.3156 63.7375 64.3913 63.759C64.5329 63.7992 64.6568 63.7867 64.7632 63.7216C64.8695 63.6564 64.9534 63.4867 65.0149 63.2123C64.9434 63.2763 64.8579 63.3112 64.7584 63.3171C64.659 63.323 64.5533 63.3101 64.4414 63.2783C64.2143 63.2138 64.0385 63.1066 63.914 62.9569C63.7896 62.8071 63.7334 62.6439 63.7457 62.4674C63.7574 62.2977 63.833 62.1671 63.9725 62.0755C64.112 61.9838 64.309 61.9741 64.5636 62.0464C64.9071 62.144 65.1356 62.3339 65.2492 62.6163C65.3123 62.7717 65.3368 62.9508 65.3228 63.1534C65.3069 63.3822 65.2496 63.5726 65.1507 63.7245C64.9865 63.9777 64.7328 64.0555 64.3893 63.958C64.1589 63.8925 63.9872 63.795 63.8742 63.6653C63.7612 63.5357 63.7097 63.3986 63.7197 63.2542L64.0193 63.3393ZM64.5261 63.0267C64.6404 63.0586 64.7468 63.0583 64.8455 63.0256C64.9441 62.993 64.9986 62.9029 65.0089 62.7553C65.0182 62.6229 64.9826 62.5123 64.9023 62.4236C64.8219 62.3349 64.716 62.2722 64.5847 62.2354C64.4437 62.196 64.3292 62.2018 64.2413 62.2529C64.1533 62.3039 64.105 62.3915 64.0963 62.5155C64.0881 62.6329 64.1179 62.7363 64.1857 62.8257C64.2535 62.9152 64.3669 62.9822 64.5261 63.0267Z" fill="#5A6389"/>
<path fill-rule="evenodd" clip-rule="evenodd" d="M17.808 69.5924C17.83 69.4354 17.8814 69.308 17.9623 69.21C18.0432 69.112 18.1924 69.0445 18.41 69.0074L18.7346 68.9525C18.88 68.9276 18.9827 68.9002 19.0427 68.8705C19.1373 68.824 19.1878 68.7545 19.1942 68.6619C19.2017 68.5538 19.1667 68.4563 19.0891 68.3694C19.0116 68.2826 18.9045 68.2198 18.768 68.1811C18.5659 68.1237 18.4218 68.1447 18.3359 68.2438C18.2898 68.297 18.2607 68.3804 18.2483 68.4943L17.9484 68.4093C17.9629 68.2484 18.0097 68.1271 18.0889 68.0454C18.2292 67.9017 18.4611 67.8756 18.7844 67.9673C19.0532 68.0435 19.2456 68.1568 19.3616 68.307C19.4777 68.4573 19.5308 68.603 19.521 68.744C19.5107 68.8929 19.4358 69.0014 19.2963 69.0694C19.2156 69.1092 19.0733 69.1447 18.8695 69.1761L18.6381 69.2111C18.5278 69.2274 18.4406 69.2481 18.3765 69.2732C18.262 69.3175 18.1874 69.3815 18.1527 69.4652L19.4342 69.8286L19.4189 70.0493L17.808 69.5924ZM20.4235 68.1904C20.7279 68.2768 20.9411 68.4386 21.0631 68.6758C21.1576 68.8593 21.1956 69.0846 21.1771 69.3519C21.1596 69.6053 21.0974 69.8013 20.9907 69.94C20.8362 70.1386 20.6024 70.1935 20.2892 70.1046C20.0067 70.0244 19.8032 69.8675 19.6786 69.634C19.5749 69.4391 19.5325 69.205 19.5514 68.9316C19.5661 68.7199 19.6132 68.5479 19.6927 68.4156C19.8415 68.1694 20.0851 68.0943 20.4235 68.1904ZM20.3004 69.9096C20.4574 69.9543 20.5863 69.9348 20.687 69.8509C20.7878 69.7671 20.8486 69.5748 20.8695 69.274C20.8846 69.0568 20.8634 68.8686 20.8058 68.7092C20.7483 68.5499 20.6225 68.4426 20.4285 68.3873C20.2502 68.3365 20.1152 68.3659 20.0235 68.4754C19.9319 68.585 19.877 68.7693 19.859 69.0283C19.8455 69.2232 19.8609 69.3873 19.9054 69.5207C19.9736 69.7244 20.1053 69.854 20.3004 69.9096Z" fill="#5A6389"/>
<path fill-rule="evenodd" clip-rule="evenodd" d="M24.6845 69.6247C24.7065 69.4677 24.758 69.3402 24.8388 69.2423C24.9197 69.1443 25.0689 69.0768 25.2865 69.0397L25.6111 68.9848C25.7565 68.9599 25.8592 68.9326 25.9192 68.9028C26.0138 68.8564 26.0643 68.7869 26.0707 68.6943C26.0782 68.5861 26.0432 68.4886 25.9656 68.4018C25.8881 68.3149 25.781 68.2522 25.6445 68.2134C25.4424 68.1561 25.2983 68.177 25.2124 68.2762C25.1664 68.3293 25.1372 68.4128 25.1248 68.5266L24.8249 68.4416C24.8394 68.2807 24.8863 68.1594 24.9654 68.0778C25.1057 67.934 25.3376 67.908 25.661 67.9997C25.9297 68.0759 26.1221 68.1892 26.2381 68.3394C26.3542 68.4897 26.4073 68.6353 26.3975 68.7764C26.3872 68.9252 26.3123 69.0337 26.1728 69.1018C26.0921 69.1415 25.9498 69.1771 25.746 69.2084L25.5147 69.2434C25.4044 69.2597 25.3171 69.2804 25.253 69.3055C25.1386 69.3498 25.0639 69.4138 25.0292 69.4975L26.3107 69.8609L26.2954 70.0815L24.6845 69.6247ZM26.6646 68.5941L26.6781 68.405C26.9075 68.4521 27.0686 68.4681 27.1616 68.4529C27.2546 68.4377 27.3287 68.3606 27.3839 68.2215L27.6331 68.292L27.4942 70.2462L27.1573 70.1509L27.256 68.7613L26.6646 68.5941Z" fill="#5A6389"/>
<path fill-rule="evenodd" clip-rule="evenodd" d="M31.569 69.5919C31.591 69.4349 31.6425 69.3074 31.7233 69.2095C31.8042 69.1115 31.9535 69.044 32.1711 69.0069L32.4957 68.952C32.6412 68.9271 32.7439 68.8997 32.8039 68.87C32.8985 68.8235 32.949 68.754 32.9554 68.6614C32.9629 68.5533 32.9279 68.4558 32.8503 68.3689C32.7728 68.2821 32.6657 68.2193 32.5291 68.1806C32.327 68.1232 32.1829 68.1442 32.0969 68.2433C32.0509 68.2964 32.0217 68.3799 32.0094 68.4938L31.7095 68.4087C31.724 68.2478 31.7708 68.1266 31.85 68.0449C31.9903 67.9011 32.2222 67.8751 32.5456 67.9668C32.8144 68.0431 33.0068 68.1563 33.1229 68.3066C33.2389 68.4568 33.292 68.6025 33.2823 68.7436C33.272 68.8924 33.197 69.0009 33.0575 69.0689C32.9768 69.1087 32.8345 69.1442 32.6307 69.1756L32.3993 69.2105C32.289 69.2269 32.2017 69.2476 32.1376 69.2727C32.0231 69.317 31.9485 69.381 31.9137 69.4646L33.1954 69.8281L33.1802 70.0488L31.569 69.5919ZM33.255 69.8193C33.2771 69.6623 33.3285 69.5348 33.4094 69.4369C33.4902 69.3389 33.6394 69.2714 33.857 69.2343L34.1816 69.1794C34.3271 69.1545 34.4298 69.1271 34.4898 69.0974C34.5843 69.051 34.6348 68.9814 34.6412 68.8888C34.6487 68.7807 34.6137 68.6832 34.5362 68.5963C34.4586 68.5095 34.3516 68.4467 34.215 68.408C34.0129 68.3506 33.8689 68.3716 33.7829 68.4707C33.7369 68.5238 33.7077 68.6073 33.6954 68.7212L33.3955 68.6362C33.41 68.4753 33.4568 68.354 33.536 68.2723C33.6763 68.1286 33.9081 68.1025 34.2315 68.1942C34.5003 68.2705 34.6927 68.3837 34.8087 68.534C34.9247 68.6842 34.9778 68.8299 34.9681 68.9709C34.9578 69.1198 34.8829 69.2283 34.7433 69.2963C34.6626 69.3361 34.5203 69.3716 34.3165 69.403L34.0852 69.438C33.9749 69.4543 33.8877 69.475 33.8236 69.5001C33.7091 69.5444 33.6345 69.6084 33.5997 69.6921L34.8813 70.0555L34.866 70.2762L33.255 69.8193Z" fill="#5A6389"/>
<path fill-rule="evenodd" clip-rule="evenodd" d="M39.2182 69.5923C39.2402 69.4353 39.2917 69.3079 39.3725 69.2099C39.4534 69.112 39.6026 69.0444 39.8202 69.0073L40.1449 68.9525C40.2904 68.9276 40.3931 68.9002 40.4531 68.8705C40.5477 68.8241 40.5982 68.7545 40.6046 68.662C40.6121 68.5538 40.577 68.4563 40.4995 68.3695C40.422 68.2826 40.3149 68.2198 40.1783 68.1811C39.9762 68.1238 39.8321 68.1447 39.7461 68.2438C39.7001 68.297 39.6709 68.3804 39.6586 68.4943L39.3586 68.4092C39.3731 68.2484 39.42 68.1271 39.4992 68.0454C39.6395 67.9017 39.8713 67.8757 40.1948 67.9674C40.4636 68.0436 40.656 68.1569 40.772 68.3071C40.8881 68.4574 40.9412 68.603 40.9315 68.7441C40.9211 68.8929 40.8462 69.0014 40.7067 69.0694C40.626 69.1092 40.4837 69.1447 40.2798 69.176L40.0485 69.211C39.9381 69.2274 39.8509 69.2481 39.7868 69.2731C39.6723 69.3174 39.5977 69.3814 39.5629 69.4651L40.8446 69.8285L40.8293 70.0492L39.2182 69.5923ZM42.1026 69.1055C42.1025 69.1055 42.1025 69.1055 42.1025 69.1055C42.1036 69.106 42.1046 69.1066 42.1056 69.1071L42.1026 69.1055ZM42.1979 69.1881C42.3181 69.2498 42.41 69.3284 42.4736 69.424C42.5377 69.5204 42.566 69.624 42.5583 69.735C42.546 69.9126 42.4621 70.0364 42.3067 70.1063C42.1513 70.1762 41.938 70.1727 41.6667 70.0957C41.3889 70.0169 41.1915 69.8992 41.0746 69.7428C40.9577 69.5864 40.9053 69.4215 40.9173 69.2482L41.2258 69.3357C41.2306 69.4599 41.2529 69.5555 41.2929 69.6225C41.3627 69.7421 41.4977 69.8304 41.6979 69.8872C41.8532 69.9312 41.9802 69.9337 42.0788 69.8945C42.1774 69.8553 42.2304 69.7837 42.2376 69.6797C42.2464 69.5515 42.2032 69.4477 42.1077 69.3685C42.0122 69.2893 41.8765 69.2247 41.7004 69.1747C41.6807 69.1691 41.6607 69.1637 41.6404 69.1584C41.6202 69.1531 41.5996 69.1479 41.5788 69.1429L41.5931 68.9362C41.6235 68.9475 41.6491 68.9565 41.6698 68.9633C41.6906 68.97 41.7129 68.9768 41.737 68.9837C41.8475 69.015 41.9392 69.0269 42.0123 69.0193C42.1403 69.0062 42.2087 68.9372 42.2173 68.8124C42.2237 68.7197 42.1871 68.6364 42.1075 68.5625C42.0278 68.4887 41.9328 68.4361 41.8223 68.4047C41.6254 68.3489 41.4856 68.3622 41.4029 68.4448C41.3574 68.4902 41.3282 68.565 41.3154 68.6692L41.0234 68.5863C41.033 68.4477 41.0761 68.3397 41.1529 68.2625C41.2852 68.1233 41.5029 68.0967 41.8059 68.1827C42.0454 68.2507 42.2279 68.3455 42.3533 68.4673C42.4787 68.589 42.5359 68.73 42.5248 68.8904C42.5168 69.0048 42.4716 69.0865 42.389 69.1355C42.3378 69.1661 42.2731 69.183 42.1948 69.1864L42.1979 69.1881Z" fill="#5A6389"/>
<path fill-rule="evenodd" clip-rule="evenodd" d="M46.0988 69.5903C46.1208 69.4333 46.1722 69.3058 46.2531 69.2079C46.334 69.1099 46.4832 69.0424 46.7008 69.0053L47.0254 68.9504C47.1708 68.9255 47.2735 68.8981 47.3335 68.8684C47.4281 68.822 47.4786 68.7525 47.485 68.6599C47.4925 68.5517 47.4575 68.4542 47.3799 68.3674C47.3024 68.2805 47.1953 68.2177 47.0588 68.179C46.8567 68.1217 46.7126 68.1426 46.6267 68.2418C46.5806 68.2949 46.5515 68.3784 46.5391 68.4922L46.2392 68.4072C46.2537 68.2463 46.3005 68.125 46.3797 68.0434C46.52 67.8996 46.7519 67.8736 47.0752 67.9653C47.344 68.0415 47.5364 68.1547 47.6524 68.305C47.7685 68.4553 47.8216 68.6009 47.8118 68.742C47.8015 68.8908 47.7266 68.9993 47.5871 69.0673C47.5064 69.1071 47.3641 69.1426 47.1603 69.174L46.9289 69.2089C46.8186 69.2253 46.7314 69.246 46.6673 69.2711C46.5528 69.3154 46.4782 69.3794 46.4435 69.463L47.725 69.8264L47.7097 70.0471L46.0988 69.5903ZM48.8569 69.4388L48.9146 68.6086L48.114 69.2293L48.8569 69.4388ZM48.7935 70.1002L48.8249 69.6473L47.7984 69.3566L47.8142 69.1288L48.968 68.2552L49.2164 68.3256L49.1331 69.5276L49.478 69.6252L49.464 69.8284L49.1191 69.7307L49.0877 70.1835L48.7935 70.1002Z" fill="#5A6389"/>
<path fill-rule="evenodd" clip-rule="evenodd" d="M53.7484 69.5923C53.7704 69.4353 53.8218 69.3078 53.9027 69.2098C53.9836 69.1119 54.1328 69.0443 54.3504 69.0072L54.675 68.9524C54.8204 68.9274 54.9231 68.9001 54.9831 68.8703C55.0777 68.8239 55.1282 68.7544 55.1346 68.6618C55.1421 68.5536 55.1071 68.4561 55.0295 68.3693C54.952 68.2824 54.8449 68.2196 54.7084 68.1809C54.5063 68.1236 54.3622 68.1445 54.2763 68.2437C54.2302 68.2968 54.2011 68.3803 54.1887 68.4941L53.8888 68.4091C53.9033 68.2482 53.9501 68.1269 54.0293 68.0452C54.1696 67.9015 54.4015 67.8755 54.7248 67.9672C54.9936 68.0434 55.186 68.1566 55.302 68.3069C55.4181 68.4572 55.4712 68.6028 55.4614 68.7439C55.4511 68.8927 55.3762 69.0012 55.2367 69.0693C55.156 69.109 55.0137 69.1446 54.8099 69.1759L54.5785 69.2109C54.4682 69.2273 54.381 69.248 54.3169 69.273C54.2024 69.3173 54.1278 69.3813 54.0931 69.465L55.3746 69.8284L55.3593 70.0491L53.7484 69.5923ZM55.7728 69.4399C55.7833 69.5789 55.8551 69.6933 55.9882 69.7832C56.0564 69.829 56.1364 69.8649 56.2283 69.891C56.4032 69.9406 56.5359 69.9332 56.6262 69.8687C56.7165 69.8043 56.7654 69.7183 56.7728 69.6109C56.7818 69.481 56.7388 69.3663 56.6436 69.2669C56.5485 69.1675 56.4309 69.0979 56.291 69.0582C56.1893 69.0294 56.101 69.0202 56.0261 69.0308C55.9512 69.0414 55.8862 69.0671 55.831 69.1079L55.5759 69.0237L55.8241 68.0726L57.0444 68.4187L57.0287 68.6448L56.0298 68.3615L55.894 68.8502C55.9509 68.8328 56.0046 68.8229 56.0549 68.8204C56.1444 68.8166 56.2465 68.831 56.3613 68.8636C56.5767 68.9247 56.7555 69.0315 56.8977 69.184C57.0399 69.3365 57.1052 69.4972 57.0935 69.6661C57.0813 69.8419 57.0019 69.9775 56.8554 70.0729C56.7089 70.1682 56.4852 70.1732 56.1845 70.0879C55.9932 70.0336 55.8269 69.943 55.6858 69.8159C55.5446 69.6889 55.4714 69.5345 55.4661 69.3529L55.7728 69.4399Z" fill="#5A6389"/>
<path fill-rule="evenodd" clip-rule="evenodd" d="M61.3969 69.5932C61.4189 69.4362 61.4703 69.3088 61.5512 69.2108C61.6321 69.1129 61.7813 69.0453 61.9989 69.0082L62.3236 68.9533C62.4691 68.9284 62.5718 68.9011 62.6318 68.8713C62.7263 68.8249 62.7768 68.7554 62.7833 68.6628C62.7908 68.5546 62.7557 68.4571 62.6782 68.3703C62.6006 68.2835 62.4936 68.2207 62.357 68.1819C62.1548 68.1246 62.0108 68.1455 61.9248 68.2447C61.8788 68.2978 61.8496 68.3813 61.8373 68.4952L61.5373 68.4101C61.5518 68.2492 61.5987 68.1279 61.6779 68.0463C61.8182 67.9025 62.05 67.8765 62.3735 67.9682C62.6423 68.0445 62.8347 68.1577 62.9507 68.3079C63.0668 68.4582 63.1199 68.6038 63.1101 68.7449C63.0998 68.8937 63.0249 69.0022 62.8854 69.0703C62.8046 69.11 62.6624 69.1456 62.4585 69.1769L62.2271 69.2119C62.1168 69.2282 62.0296 69.2489 61.9655 69.274C61.851 69.3183 61.7764 69.3823 61.7416 69.466L63.0233 69.8294L63.008 70.05L61.3969 69.5932ZM64.0859 68.2001C64.3489 68.2748 64.5284 68.3809 64.6245 68.5184C64.7206 68.656 64.7647 68.782 64.7567 68.8967L64.4641 68.8136C64.4517 68.7348 64.4277 68.6691 64.3923 68.6165C64.3264 68.5182 64.2212 68.4484 64.0765 68.4074C63.911 68.3604 63.7753 68.3836 63.6694 68.4771C63.5635 68.5706 63.4972 68.7287 63.4706 68.9514C63.544 68.8916 63.6336 68.8568 63.7393 68.847C63.836 68.839 63.9424 68.8515 64.0586 68.8845C64.2559 68.9405 64.4245 69.0393 64.5644 69.1809C64.7043 69.3224 64.7675 69.4922 64.7537 69.6903C64.742 69.8597 64.662 69.9899 64.5138 70.0812C64.3656 70.1724 64.1627 70.1814 63.9051 70.1083C63.6848 70.0458 63.4992 69.9256 63.3484 69.7477C63.1976 69.5698 63.133 69.3241 63.1547 69.0105C63.1708 68.7786 63.22 68.592 63.3024 68.4506C63.4609 68.1803 63.722 68.0968 64.0859 68.2001ZM63.9158 69.9358C64.0672 69.978 64.1832 69.9698 64.264 69.9109C64.3448 69.8521 64.3889 69.7684 64.3966 69.6598C64.403 69.5678 64.3755 69.4709 64.3142 69.369C64.2528 69.2671 64.1337 69.1915 63.9567 69.1421C63.833 69.1075 63.7223 69.1094 63.6245 69.1477C63.5267 69.186 63.4732 69.2699 63.4641 69.3995C63.4562 69.5131 63.4919 69.6204 63.5712 69.7214C63.6506 69.8223 63.7654 69.8938 63.9158 69.9358Z" fill="#5A6389"/>
<path fill-rule="evenodd" clip-rule="evenodd" d="M17.0405 75.7078C17.0625 75.5508 17.114 75.4234 17.1948 75.3254C17.2757 75.2275 17.4249 75.1599 17.6425 75.1228L17.9672 75.0679C18.1127 75.043 18.2154 75.0157 18.2754 74.9859C18.37 74.9395 18.4205 74.87 18.4269 74.7774C18.4344 74.6692 18.3993 74.5717 18.3218 74.4849C18.2442 74.398 18.1372 74.3352 18.0006 74.2965C17.7985 74.2392 17.6544 74.2601 17.5684 74.3593C17.5224 74.4124 17.4932 74.4959 17.4809 74.6097L17.1809 74.5247C17.1954 74.3638 17.2423 74.2425 17.3215 74.1608C17.4618 74.0171 17.6936 73.9911 18.0171 74.0828C18.2859 74.159 18.4783 74.2722 18.5943 74.4225C18.7104 74.5728 18.7635 74.7184 18.7537 74.8595C18.7434 75.0083 18.6685 75.1168 18.529 75.1849C18.4482 75.2246 18.306 75.2602 18.1021 75.2915L17.8708 75.3265C17.7604 75.3429 17.6732 75.3636 17.6091 75.3886C17.4946 75.4329 17.42 75.4969 17.3852 75.5806L18.6669 75.944L18.6516 76.1647L17.0405 75.7078ZM20.4974 74.5763L20.4833 74.7795C20.4041 74.816 20.2971 74.8882 20.1624 74.9961C20.0277 75.104 19.9066 75.2271 19.7992 75.3656C19.6932 75.5001 19.6111 75.6269 19.5528 75.7458C19.5153 75.8223 19.4649 75.9484 19.4016 76.124L19.0762 76.0318C19.1748 75.699 19.3627 75.3933 19.6399 75.1146C19.8034 74.9516 19.9727 74.8187 20.1476 74.7161L18.8527 74.3492L18.8689 74.115L20.4974 74.5763Z" fill="#5A6389"/>
<path fill-rule="evenodd" clip-rule="evenodd" d="M23.9248 75.7104C23.9468 75.5534 23.9982 75.4259 24.0791 75.3279C24.16 75.23 24.3092 75.1625 24.5268 75.1253L24.8514 75.0705C24.9968 75.0455 25.0995 75.0182 25.1595 74.9884C25.2541 74.942 25.3046 74.8725 25.311 74.7799C25.3185 74.6717 25.2835 74.5742 25.2059 74.4874C25.1284 74.4006 25.0213 74.3378 24.8848 74.2991C24.6827 74.2417 24.5386 74.2627 24.4527 74.3618C24.4066 74.4149 24.3775 74.4984 24.3651 74.6123L24.0652 74.5272C24.0797 74.3664 24.1265 74.2451 24.2057 74.1634C24.346 74.0197 24.5779 73.9936 24.9012 74.0853C25.17 74.1616 25.3624 74.2748 25.4784 74.425C25.5945 74.5753 25.6476 74.721 25.6378 74.862C25.6275 75.0108 25.5526 75.1193 25.4131 75.1874C25.3324 75.2272 25.1901 75.2627 24.9863 75.294L24.7549 75.329C24.6446 75.3454 24.5574 75.3661 24.4933 75.3911C24.3788 75.4354 24.3042 75.4994 24.2695 75.5831L25.551 75.9465L25.5357 76.1672L23.9248 75.7104ZM26.5262 75.0219C26.6525 75.0569 26.753 75.0568 26.828 75.0215C26.9029 74.9862 26.9431 74.9306 26.9484 74.8545C26.9531 74.7883 26.9234 74.7182 26.8594 74.6439C26.7955 74.5697 26.694 74.5133 26.555 74.4748C26.4171 74.4365 26.3155 74.4366 26.2501 74.4749C26.1846 74.5132 26.1493 74.5696 26.1441 74.644C26.1382 74.7275 26.1734 74.8039 26.2496 74.8731C26.3258 74.9423 26.418 74.9919 26.5262 75.0219ZM26.4127 76.0505C26.5446 76.0869 26.6561 76.0894 26.7471 76.0582C26.8381 76.027 26.8875 75.9566 26.8952 75.847C26.9033 75.7333 26.8646 75.6346 26.779 75.551C26.6935 75.4674 26.5805 75.4062 26.4401 75.3675C26.3039 75.33 26.1907 75.3294 26.1004 75.3659C26.0101 75.4023 25.9612 75.4736 25.9536 75.58C25.9471 75.6716 25.9808 75.7616 26.0548 75.8499C26.1287 75.9383 26.248 76.0051 26.4127 76.0505ZM26.0823 75.0659C26.0021 75.0148 25.9402 74.964 25.8968 74.9136C25.815 74.8196 25.778 74.7169 25.7857 74.6058C25.7953 74.4668 25.8671 74.3654 26.0012 74.3016C26.1352 74.2378 26.3189 74.2391 26.5523 74.3053C26.778 74.3694 26.9517 74.4668 27.0734 74.5974C27.1951 74.728 27.2516 74.8563 27.2429 74.9823C27.2348 75.0986 27.191 75.1823 27.1115 75.2332C27.0671 75.2622 26.9996 75.2838 26.9093 75.298C27.0043 75.3613 27.0782 75.4239 27.1309 75.4858C27.229 75.6022 27.2732 75.7299 27.2636 75.8689C27.2522 76.0331 27.173 76.1525 27.026 76.2272C26.8789 76.3019 26.6782 76.3032 26.424 76.231C26.195 76.166 26.0047 76.0617 25.8532 75.9182C25.7017 75.7746 25.6324 75.6091 25.6454 75.4215C25.6531 75.3112 25.6936 75.2255 25.7671 75.1644C25.8406 75.1034 25.9457 75.0705 26.0823 75.0659Z" fill="#5A6389"/>
<path fill-rule="evenodd" clip-rule="evenodd" d="M31.5734 75.7112C31.5955 75.5542 31.6469 75.4267 31.7278 75.3288C31.8087 75.2308 31.9579 75.1633 32.1755 75.1262L32.5002 75.0713C32.6456 75.0464 32.7483 75.019 32.8083 74.9893C32.9029 74.9428 32.9534 74.8733 32.9598 74.7807C32.9673 74.6726 32.9323 74.5751 32.8548 74.4882C32.7772 74.4014 32.6701 74.3386 32.5336 74.2998C32.3314 74.2425 32.1874 74.2634 32.1014 74.3626C32.0554 74.4157 32.0262 74.4992 32.0138 74.6131L31.7139 74.528C31.7284 74.3671 31.7752 74.2459 31.8544 74.1642C31.9947 74.0204 32.2266 73.9944 32.55 74.0861C32.8188 74.1623 33.0113 74.2756 33.1273 74.4259C33.2433 74.5761 33.2965 74.7218 33.2867 74.8628C33.2764 75.0117 33.2015 75.1201 33.062 75.1882C32.9812 75.228 32.8389 75.2635 32.6351 75.2949L32.4037 75.3298C32.2934 75.3462 32.2062 75.3669 32.142 75.392C32.0276 75.4363 31.9529 75.5003 31.9182 75.5839L33.1999 75.9474L33.1846 76.168L31.5734 75.7112ZM33.6273 75.5921C33.6271 75.7242 33.684 75.8317 33.7979 75.9147C33.8565 75.9579 33.9236 75.9903 33.9993 76.0118C34.1409 76.052 34.2648 76.0395 34.3712 75.9743C34.4775 75.9092 34.5614 75.7394 34.6229 75.4651C34.5514 75.529 34.4659 75.564 34.3664 75.5699C34.267 75.5758 34.1613 75.5628 34.0494 75.5311C33.8223 75.4666 33.6465 75.3594 33.522 75.2097C33.3976 75.0599 33.3414 74.8967 33.3537 74.7201C33.3654 74.5505 33.441 74.4199 33.5805 74.3282C33.72 74.2366 33.917 74.2269 34.1716 74.2992C34.5151 74.3967 34.7436 74.5867 34.8572 74.8691C34.9203 75.0245 34.9448 75.2035 34.9308 75.4062C34.9149 75.635 34.8576 75.8253 34.7586 75.9773C34.5945 76.2305 34.3408 76.3083 33.9973 76.2108C33.7669 76.1453 33.5952 76.0478 33.4822 75.9181C33.3692 75.7885 33.3177 75.6514 33.3277 75.507L33.6273 75.5921ZM34.1338 75.2794C34.2481 75.3114 34.3546 75.311 34.4532 75.2784C34.5519 75.2457 34.6064 75.1556 34.6167 75.0081C34.6259 74.8756 34.5904 74.7651 34.51 74.6764C34.4297 74.5877 34.3238 74.5249 34.1924 74.4882C34.0514 74.4488 33.937 74.4546 33.849 74.5056C33.7611 74.5567 33.7127 74.6442 33.7041 74.7683C33.6959 74.8856 33.7256 74.989 33.7934 75.0785C33.8612 75.168 33.9747 75.2349 34.1338 75.2794Z" fill="#5A6389"/>
<path fill-rule="evenodd" clip-rule="evenodd" d="M40.4391 74.9927C40.4391 74.9927 40.4391 74.9927 40.4391 74.9927C40.4401 74.9932 40.4411 74.9937 40.4422 74.9942L40.4391 74.9927ZM40.5344 75.0752C40.6546 75.1369 40.7465 75.2155 40.8101 75.3111C40.8743 75.4075 40.9025 75.5112 40.8948 75.6221C40.8825 75.7998 40.7986 75.9236 40.6432 75.9935C40.4878 76.0634 40.2744 76.0598 40.0031 75.9828C39.7252 75.904 39.5278 75.7864 39.4109 75.6299C39.294 75.4735 39.2416 75.3086 39.2536 75.1353L39.5621 75.2228C39.5669 75.347 39.5893 75.4426 39.6293 75.5096C39.6991 75.6293 39.8341 75.7175 40.0343 75.7743C40.1896 75.8184 40.3166 75.8208 40.4152 75.7817C40.5139 75.7425 40.5668 75.6709 40.574 75.5669C40.5829 75.4386 40.5396 75.3349 40.4442 75.2557C40.3487 75.1764 40.2129 75.1118 40.0368 75.0619C40.0171 75.0563 39.9971 75.0508 39.9768 75.0455C39.9565 75.0402 39.936 75.0351 39.9151 75.03L39.9295 74.8233C39.9599 74.8346 39.9855 74.8437 40.0062 74.8504C40.027 74.8572 40.0493 74.864 40.0734 74.8708C40.1839 74.9021 40.2757 74.914 40.3487 74.9065C40.4768 74.8933 40.5451 74.8244 40.5538 74.6996C40.5602 74.6068 40.5236 74.5235 40.4439 74.4497C40.3643 74.3758 40.2692 74.3232 40.1587 74.2919C39.9618 74.236 39.822 74.2494 39.7393 74.332C39.6937 74.3774 39.6646 74.4522 39.6518 74.5563L39.3597 74.4735C39.3693 74.3348 39.4125 74.2269 39.4892 74.1497C39.6216 74.0105 39.8392 73.9839 40.1423 74.0698C40.3819 74.1378 40.5644 74.2327 40.6898 74.3544C40.8152 74.4761 40.8724 74.6172 40.8613 74.7775C40.8534 74.8919 40.8081 74.9736 40.7255 75.0227C40.6743 75.0532 40.6095 75.0702 40.5312 75.0736L40.5344 75.0752ZM41.8562 74.3048C42.1606 74.3912 42.3739 74.5531 42.4959 74.7903C42.5904 74.9738 42.6284 75.1991 42.6099 75.4664C42.5923 75.7198 42.5302 75.9159 42.4234 76.0546C42.269 76.2532 42.0352 76.308 41.722 76.2191C41.4394 76.139 41.2359 75.9821 41.1114 75.7485C41.0077 75.5536 40.9652 75.3195 40.9842 75.0462C40.9988 74.8344 41.0459 74.6624 41.1254 74.5301C41.2742 74.2839 41.5178 74.2088 41.8562 74.3048ZM41.7329 76.0241C41.8899 76.0688 42.0188 76.0493 42.1196 75.9654C42.2203 75.8816 42.2811 75.6893 42.302 75.3885C42.3171 75.1714 42.2959 74.9831 42.2384 74.8238C42.1808 74.6645 42.055 74.5572 41.861 74.5019C41.6827 74.4511 41.5477 74.4804 41.456 74.59C41.3644 74.6996 41.3095 74.8838 41.2915 75.1428C41.278 75.3377 41.2935 75.5018 41.3379 75.6352C41.4061 75.8389 41.5378 75.9685 41.7329 76.0241Z" fill="#5A6389"/>
<path fill-rule="evenodd" clip-rule="evenodd" d="M21.9888 44.1528C21.9791 44.277 21.9947 44.3811 22.0356 44.465C22.1138 44.6223 22.2763 44.7175 22.523 44.7508C22.6335 44.7657 22.7363 44.7635 22.8314 44.7442C23.0153 44.7067 23.1178 44.609 23.1391 44.4511C23.1551 44.3327 23.1295 44.2433 23.0623 44.183C22.9939 44.1236 22.8823 44.0648 22.7274 44.0067L22.4418 43.9004C22.2552 43.831 22.1255 43.7648 22.0526 43.7017C21.9267 43.5923 21.876 43.4473 21.9003 43.2667C21.9267 43.0713 22.0159 42.9201 22.168 42.813C22.3201 42.7059 22.52 42.6691 22.7677 42.7025C22.9956 42.7333 23.1818 42.8144 23.3264 42.9459C23.4709 43.0774 23.5268 43.2641 23.4942 43.5058L23.2174 43.4685C23.2183 43.3501 23.1988 43.2565 23.1588 43.1878C23.0844 43.0622 22.9396 42.9849 22.7244 42.9559C22.5508 42.9325 22.421 42.9521 22.3352 43.0149C22.2494 43.0777 22.1999 43.1574 22.1869 43.2541C22.1725 43.3607 22.2064 43.4446 22.2885 43.506C22.3425 43.5454 22.4689 43.6026 22.6678 43.6777L22.9633 43.7884C23.1058 43.8418 23.2131 43.903 23.2852 43.972C23.4096 44.0922 23.4588 44.2491 23.4327 44.4425C23.4002 44.6833 23.2894 44.8436 23.1003 44.9236C22.9111 45.0036 22.7006 45.028 22.4687 44.9967C22.1984 44.9602 21.996 44.8626 21.8617 44.7038C21.7273 44.546 21.6774 44.3499 21.712 44.1154L21.9888 44.1528Z" fill="#4F44D0"/>
<path fill-rule="evenodd" clip-rule="evenodd" d="M29.1172 42.5635L29.539 42.6204L29.9157 44.543L30.7838 42.7883L31.2013 42.8446L30.9079 45.019L30.6282 44.9812L30.8013 43.6979C30.8073 43.6535 30.8182 43.5801 30.834 43.4778C30.8498 43.3754 30.8657 43.2655 30.8815 43.1481L30.0139 44.8984L29.7223 44.859L29.3451 42.9409L29.3361 43.0075C29.3289 43.0607 29.3192 43.1421 29.307 43.2514C29.2947 43.3608 29.2851 43.4412 29.2782 43.4925L29.1051 44.7758L28.8239 44.7378L29.1172 42.5635Z" fill="#4F44D0"/>
<path fill-rule="evenodd" clip-rule="evenodd" d="M38.5261 42.823L38.4911 43.082L37.7584 42.9832L37.5001 44.8985L37.2011 44.8582L37.4595 42.9428L36.7268 42.844L36.7617 42.585L38.5261 42.823Z" fill="#4F44D0"/>
<path fill-rule="evenodd" clip-rule="evenodd" d="M43.9642 42.5607L44.1356 44.3848L44.8657 42.6823L45.1854 42.7254L45.4382 44.5605L46.0868 42.847L46.4095 42.8906L45.5448 44.9878L45.2355 44.9461L44.9769 43.0756L44.229 44.8103L43.9196 44.7686L43.6445 42.5176L43.9642 42.5607Z" fill="#4F44D0"/>
<path fill-rule="evenodd" clip-rule="evenodd" d="M53.0573 42.823L53.0224 43.082L52.2897 42.9832L52.0313 44.8985L51.7323 44.8582L51.9907 42.9428L51.258 42.844L51.293 42.585L53.0573 42.823Z" fill="#4F44D0"/>
<path fill-rule="evenodd" clip-rule="evenodd" d="M58.1758 42.6025L59.6841 42.806L59.6481 43.0724L58.4344 42.9087L58.3453 43.5689L59.4125 43.7128L59.3776 43.9718L58.3104 43.8279L58.177 44.8166L57.8825 44.7769L58.1758 42.6025Z" fill="#4F44D0"/>
<path fill-rule="evenodd" clip-rule="evenodd" d="M65.145 44.1528C65.1353 44.277 65.1509 44.3811 65.1918 44.465C65.2701 44.6223 65.4326 44.7175 65.6793 44.7508C65.7898 44.7657 65.8926 44.7635 65.9876 44.7442C66.1715 44.7067 66.2741 44.609 66.2954 44.4511C66.3114 44.3327 66.2857 44.2433 66.2185 44.183C66.1502 44.1236 66.0386 44.0648 65.8836 44.0067L65.5981 43.9004C65.4115 43.831 65.2818 43.7648 65.2089 43.7017C65.083 43.5923 65.0322 43.4473 65.0566 43.2667C65.0829 43.0713 65.1722 42.9201 65.3243 42.813C65.4763 42.7059 65.6762 42.6691 65.9239 42.7025C66.1519 42.7333 66.3381 42.8144 66.4826 42.9459C66.6271 43.0774 66.6831 43.2641 66.6505 43.5058L66.3737 43.4685C66.3746 43.3501 66.3551 43.2565 66.3151 43.1878C66.2406 43.0622 66.0958 42.9849 65.8807 42.9559C65.707 42.9325 65.5773 42.9521 65.4914 43.0149C65.4056 43.0777 65.3562 43.1574 65.3431 43.2541C65.3287 43.3607 65.3626 43.4446 65.4448 43.506C65.4987 43.5454 65.6252 43.6026 65.824 43.6777L66.1195 43.7884C66.2621 43.8418 66.3693 43.903 66.4414 43.972C66.5659 44.0922 66.615 44.2491 66.5889 44.4425C66.5565 44.6833 66.4457 44.8436 66.2565 44.9236C66.0674 45.0036 65.8569 45.028 65.625 44.9967C65.3546 44.9602 65.1523 44.8626 65.018 44.7038C64.8835 44.546 64.8336 44.3499 64.8682 44.1154L65.145 44.1528Z" fill="#4F44D0"/>
<path fill-rule="evenodd" clip-rule="evenodd" d="M46.8134 29.3643C46.6997 29.1835 46.5421 29.0327 46.3406 28.912C46.1391 28.7912 45.9399 28.7205 45.743 28.6998C45.6415 28.6892 45.5377 28.6873 45.4314 28.6942C45.3251 28.7011 45.2275 28.7256 45.1386 28.7675C45.0497 28.8095 44.9727 28.8677 44.9076 28.9423C44.8424 29.0169 44.8032 29.1169 44.7901 29.2422C44.7788 29.3496 44.7918 29.4415 44.829 29.5178C44.8662 29.5941 44.9253 29.6636 45.0061 29.7264C45.087 29.7892 45.1848 29.8493 45.2994 29.9066C45.4141 29.9639 45.5435 30.0242 45.6876 30.0876C45.8949 30.1818 46.1104 30.2844 46.334 30.3954C46.5576 30.5064 46.7574 30.6435 46.9333 30.8068C47.1092 30.9701 47.2486 31.1642 47.3517 31.3892C47.4547 31.6142 47.4896 31.8848 47.4564 32.2011C47.4181 32.5651 47.3179 32.8728 47.1557 33.1242C46.9936 33.3757 46.79 33.576 46.5451 33.7252C46.3001 33.8744 46.0271 33.9754 45.7259 34.0282C45.4248 34.081 45.119 34.0911 44.8087 34.0585C44.3552 34.0109 43.925 33.8857 43.5179 33.683C43.1109 33.4804 42.7825 33.2181 42.5328 32.8962L43.6425 31.9812C43.7776 32.1885 43.9651 32.3696 44.2053 32.5245C44.4454 32.6795 44.6908 32.7701 44.9414 32.7965C45.0548 32.8084 45.1664 32.8081 45.2763 32.7955C45.3862 32.7829 45.4843 32.754 45.5705 32.7088C45.6567 32.6635 45.7284 32.5987 45.7855 32.5142C45.8427 32.4297 45.8778 32.3248 45.891 32.1995C45.9035 32.0801 45.8844 31.9755 45.8335 31.8857C45.7826 31.7959 45.7055 31.7109 45.6024 31.6307C45.4992 31.5505 45.3685 31.4734 45.2104 31.3994C45.0522 31.3255 44.8722 31.2447 44.6702 31.1572C44.4743 31.0702 44.284 30.9718 44.0995 30.8619C43.915 30.752 43.754 30.6189 43.6166 30.4627C43.4791 30.3065 43.3747 30.1236 43.3032 29.9139C43.2317 29.7043 43.211 29.4563 43.2411 29.1699C43.2781 28.8178 43.3814 28.524 43.551 28.2884C43.7205 28.0529 43.9301 27.8668 44.1798 27.7301C44.4294 27.5935 44.7044 27.5032 45.0046 27.4593C45.3048 27.4155 45.6041 27.4092 45.9025 27.4406C46.2605 27.4782 46.6191 27.5823 46.9782 27.7528C47.3374 27.9232 47.6437 28.1515 47.8972 28.4376L46.8134 29.3643Z" fill="white"/>
<path fill-rule="evenodd" clip-rule="evenodd" d="M50.2871 33.822L50.9531 27.4849L52.4926 27.6467L51.8266 33.9838L50.2871 33.822Z" fill="white"/>
<path fill-rule="evenodd" clip-rule="evenodd" d="M60.2772 31.0393C60.4367 30.8487 60.5247 30.5892 60.5412 30.2607C60.5574 29.9375 60.5017 29.6497 60.3742 29.3974C60.2467 29.145 60.0655 28.923 59.8307 28.7313C59.5958 28.5397 59.3172 28.3753 58.9948 28.2382C58.6725 28.1011 58.3244 27.9888 57.9507 27.9013L55.4376 27.3131L55.1554 32.9405L56.8082 33.3273L56.9147 31.2051L57.7362 31.3974C58.0906 31.4804 58.4338 31.5285 58.7656 31.5419C59.0974 31.5552 59.3924 31.5224 59.6506 31.4434C59.9088 31.3645 60.1177 31.2298 60.2772 31.0393ZM58.8574 29.4073C58.9161 29.5021 58.9422 29.6125 58.9357 29.7384C58.9292 29.8643 58.8924 29.9616 58.8253 30.0305C58.7583 30.0993 58.6685 30.1464 58.5559 30.1718C58.4434 30.1972 58.3176 30.2043 58.1783 30.193C58.0391 30.1818 57.8941 30.159 57.7434 30.1248L57.065 29.9707L57.13 28.7092L57.8366 28.8697C57.9811 28.9025 58.1205 28.9418 58.2547 28.9876C58.389 29.0334 58.5083 29.0911 58.6128 29.1606C58.7172 29.2302 58.7988 29.3124 58.8574 29.4073Z" fill="white"/>
<path d="M84.4862 51.0236H72.2402C71.8814 51.0236 71.6266 50.7324 71.6786 50.3736C71.7254 50.0148 72.0582 49.7236 72.4222 49.7236H84.6682C85.027 49.7236 85.2818 50.0148 85.2298 50.3736C85.1778 50.7324 84.845 51.0236 84.4862 51.0236Z" fill="#B9B3F9"/>
<path d="M83.6347 57.3H71.3887C71.0299 57.3 70.7751 57.0088 70.8271 56.65C70.8739 56.2912 71.2067 56 71.5707 56H83.8167C84.1755 56 84.4303 56.2912 84.3783 56.65C84.3263 57.0036 83.9935 57.3 83.6347 57.3Z" fill="#B9B3F9"/>
<path d="M82.7792 63.5715H70.5332C70.1744 63.5715 69.9196 63.2803 69.9716 62.9215C70.0184 62.5627 70.3512 62.2715 70.7152 62.2715H82.9612C83.32 62.2715 83.5748 62.5627 83.5228 62.9215C83.4708 63.2803 83.138 63.5715 82.7792 63.5715Z" fill="#B9B3F9"/>
<path d="M26.8231 18.5393C28.4195 18.5393 29.7195 19.8393 29.7195 21.4357H30.7855C30.7855 19.2517 29.0071 17.4785 26.8283 17.4785C24.6443 17.4785 22.8711 19.2569 22.8711 21.4357C22.8711 23.6197 24.6495 25.3929 26.8283 25.3929C27.1247 25.3929 27.3587 25.1537 27.3587 24.8625C27.3587 24.5661 27.1195 24.3321 26.8283 24.3321C25.2319 24.3321 23.9319 23.0321 23.9319 21.4357C23.9319 19.8393 25.2267 18.5393 26.8231 18.5393Z" fill="#C6C2F9"/>
<path d="M36.2372 18.5393C37.8336 18.5393 39.1336 19.8393 39.1336 21.4357H40.1996C40.1996 19.2517 38.4212 17.4785 36.2424 17.4785C34.0584 17.4785 32.2852 19.2569 32.2852 21.4357C32.2852 23.6197 34.0636 25.3929 36.2424 25.3929C36.5388 25.3929 36.7728 25.1537 36.7728 24.8625C36.7728 24.5661 36.5336 24.3321 36.2424 24.3321C34.646 24.3321 33.346 23.0321 33.346 21.4357C33.3408 19.8393 34.6408 18.5393 36.2372 18.5393Z" fill="#C6C2F9"/>
<path d="M45.6434 18.5393C47.2398 18.5393 48.5398 19.8393 48.5398 21.4357H49.6058C49.6058 19.2517 47.8274 17.4785 45.6486 17.4785C43.4646 17.4785 41.6914 19.2569 41.6914 21.4357C41.6914 23.6197 43.4698 25.3929 45.6486 25.3929C45.945 25.3929 46.179 25.1537 46.179 24.8625C46.179 24.5661 45.9398 24.3321 45.6486 24.3321C44.0522 24.3321 42.7522 23.0321 42.7522 21.4357C42.747 19.8393 44.047 18.5393 45.6434 18.5393Z" fill="#C6C2F9"/>
<path d="M55.0536 18.5393C56.65 18.5393 57.95 19.8393 57.95 21.4357H59.016C59.016 19.2517 57.2376 17.4785 55.0588 17.4785C52.8748 17.4785 51.1016 19.2569 51.1016 21.4357C51.1016 23.6197 52.88 25.3929 55.0588 25.3929C55.3552 25.3929 55.5892 25.1537 55.5892 24.8625C55.5892 24.5661 55.35 24.3321 55.0588 24.3321C53.4624 24.3321 52.1624 23.0321 52.1624 21.4357C52.1572 19.8393 53.4572 18.5393 55.0536 18.5393Z" fill="#C6C2F9"/>
<path d="M64.4598 18.5393C66.0562 18.5393 67.3562 19.8393 67.3562 21.4357H68.4222C68.4222 19.2517 66.6438 17.4785 64.465 17.4785C62.281 17.4785 60.5078 19.2569 60.5078 21.4357C60.5078 23.6197 62.2862 25.3929 64.465 25.3929C64.7614 25.3929 64.9954 25.1537 64.9954 24.8625C64.9954 24.5661 64.7562 24.3321 64.465 24.3321C62.8686 24.3321 61.5686 23.0321 61.5686 21.4357C61.5634 19.8393 62.8634 18.5393 64.4598 18.5393Z" fill="#C6C2F9"/>
<path d="M73.8739 18.5393C75.4703 18.5393 76.7703 19.8393 76.7703 21.4357H77.8363C77.8363 19.2517 76.0579 17.4785 73.8791 17.4785C71.6951 17.4785 69.9219 19.2569 69.9219 21.4357C69.9219 23.6197 71.7003 25.3929 73.8791 25.3929C74.1755 25.3929 74.4095 25.1537 74.4095 24.8625C74.4095 24.5661 74.1703 24.3321 73.8791 24.3321C72.2827 24.3321 70.9827 23.0321 70.9827 21.4357C70.9775 19.8393 72.2775 18.5393 73.8739 18.5393Z" fill="#C6C2F9"/>
<path d="M83.2801 18.5393C84.8765 18.5393 86.1765 19.8393 86.1765 21.4357H87.2425C87.2425 19.2517 85.4641 17.4785 83.2853 17.4785C81.1013 17.4785 79.3281 19.2569 79.3281 21.4357C79.3281 23.6197 81.1065 25.3929 83.2853 25.3929C83.5817 25.3929 83.8157 25.1537 83.8157 24.8625C83.8157 24.5661 83.5765 24.3321 83.2853 24.3321C81.6889 24.3321 80.3889 23.0321 80.3889 21.4357C80.3837 19.8393 81.6837 18.5393 83.2801 18.5393Z" fill="#C6C2F9"/>
<path opacity="0.16" fill-rule="evenodd" clip-rule="evenodd" d="M83.0603 80.37C88.1614 80.37 90.4886 80.5411 92.2967 78.8785C94.1048 77.2158 93.0619 74.9766 90.9772 74.2412C88.8925 73.5058 77.7824 72.9379 75.1434 74.2412C72.5045 75.5444 72.0493 76.6709 73.824 78.3028C75.5986 79.9348 77.9592 80.37 83.0603 80.37Z" fill="#EFEEFB"/>
<path opacity="0.16" fill-rule="evenodd" clip-rule="evenodd" d="M67.2986 80.5651C72.3997 80.5651 74.7268 80.7407 76.5349 79.034C78.3431 77.3273 77.3002 75.0288 75.2155 74.274C73.1307 73.5192 62.0207 72.9363 59.3817 74.274C56.7428 75.6117 56.2875 76.768 58.0622 78.4432C59.8369 80.1183 62.1975 80.5651 67.2986 80.5651Z" fill="#EFEEFB"/>
<path fill-rule="evenodd" clip-rule="evenodd" d="M67.2986 79.5282C72.3997 79.5282 74.7268 79.1395 76.5349 77.542C78.3431 75.9445 77.3002 73.24 75.2155 72.5334C73.1307 71.8269 62.0207 71.2813 59.3817 72.5334C56.7428 73.7856 56.2875 75.974 58.0622 77.542C59.8369 79.11 62.1975 79.5282 67.2986 79.5282Z" fill="#9D95F8"/>
<path fill-rule="evenodd" clip-rule="evenodd" d="M67.232 76.4863C72.1192 76.4863 76.0811 75.2482 76.0811 73.7209C76.0811 72.1937 72.1192 70.9556 67.232 70.9556C62.3447 70.9556 58.3828 72.1937 58.3828 73.7209C58.3828 75.2482 62.3447 76.4863 67.232 76.4863Z" fill="#4F44D0"/>
<path fill-rule="evenodd" clip-rule="evenodd" d="M67.2336 76.2096C71.8154 76.2096 75.5297 75.0953 75.5297 73.7208C75.5297 72.3462 71.8154 71.2319 67.2336 71.2319C62.6518 71.2319 58.9375 72.3462 58.9375 73.7208C58.9375 75.0953 62.6518 76.2096 67.2336 76.2096Z" fill="#8279F8"/>
<path fill-rule="evenodd" clip-rule="evenodd" d="M69.2288 71.7859L66.2116 71.9385L64.7514 72.0124C64.5885 72.0207 64.4603 72.0973 64.465 72.1836C64.4697 72.2698 64.6055 72.3331 64.7684 72.3249L66.2286 72.251C66.669 72.2287 67.0928 72.3219 67.3623 72.5002C67.4892 72.5842 67.5764 72.68 67.6263 72.7801L64.8008 72.9231C64.6379 72.9313 64.5097 73.0079 64.5144 73.0942C64.5191 73.1805 64.6549 73.2438 64.8178 73.2355L67.6539 73.092C67.6448 73.1195 67.6332 73.1469 67.618 73.1739C67.5057 73.3729 67.2345 73.5276 66.8542 73.6096C66.2753 73.7343 65.6224 73.7552 64.9901 73.7754L64.8573 73.7797C64.7332 73.7826 64.6216 73.8287 64.5789 73.8922C64.5361 73.9557 64.571 74.024 64.6662 74.063L68.3967 75.5925C68.4544 75.6162 68.525 75.6256 68.5947 75.6221C68.676 75.618 68.7559 75.5962 68.8123 75.5585C68.9171 75.4886 68.9008 75.3904 68.7759 75.3392L65.6625 74.0627C66.1258 74.0389 66.5917 73.9968 67.0437 73.8995C67.6087 73.7777 68.0131 73.5455 68.1823 73.2455C68.2164 73.185 68.2362 73.1235 68.2491 73.0619L69.2952 73.009C69.458 73.0007 69.5863 72.9241 69.5816 72.8378C69.5769 72.7515 69.4411 72.6883 69.2782 72.6965L68.2288 72.7496C68.1691 72.5853 68.0351 72.4285 67.8318 72.2939C67.769 72.2523 67.6983 72.2153 67.6245 72.1803L69.2457 72.0983C69.4086 72.0901 69.5368 72.0135 69.5321 71.9272C69.5275 71.8409 69.3917 71.7776 69.2288 71.7859Z" fill="white"/>
<path fill-rule="evenodd" clip-rule="evenodd" d="M82.4199 77.9102C87.2133 79.6549 89.5331 80.0856 91.7785 79.2028C94.024 78.3201 93.969 75.422 92.2516 74.045C90.5343 72.668 80.2809 68.3555 77.3728 68.6295C74.4647 68.9036 73.2885 70.8044 74.4198 72.8848C75.5512 74.9652 77.6264 76.1655 82.4199 77.9102Z" fill="#9D95F8"/>
<path fill-rule="evenodd" clip-rule="evenodd" d="M83.4004 75.029C87.993 76.7005 92.1394 76.8921 92.6617 75.457C93.1841 74.0218 89.8846 71.5033 85.2921 69.8318C80.6995 68.1602 76.5531 67.9686 76.0308 69.4038C75.5084 70.8389 78.8079 73.3574 83.4004 75.029Z" fill="#675AF6"/>
<path fill-rule="evenodd" clip-rule="evenodd" d="M83.4918 74.7688C87.7972 76.3359 91.6686 76.5591 92.1388 75.2675C92.6089 73.9759 89.4997 71.6584 85.1942 70.0913C80.8887 68.5243 77.0173 68.301 76.5472 69.5926C76.0771 70.8843 79.1863 73.2017 83.4918 74.7688Z" fill="#8279F8"/>
<path fill-rule="evenodd" clip-rule="evenodd" d="M86.8865 71.2956L83.9991 70.4071L82.6017 69.9771C82.4458 69.9291 82.2991 69.9573 82.274 70.0399C82.2489 70.1226 82.3549 70.2285 82.5108 70.2765L83.9082 70.7065C84.3297 70.8362 84.6961 71.0687 84.8883 71.3284C84.9788 71.4508 85.028 71.5706 85.0406 71.6818L82.3367 70.8497C82.1808 70.8018 82.0341 70.8299 82.009 70.9126C81.9839 70.9953 82.0899 71.1012 82.2458 71.1491L84.9599 71.9843C84.942 72.007 84.9217 72.0288 84.8981 72.049C84.7246 72.1976 84.4168 72.2502 84.0314 72.1971C83.4448 72.1163 82.8241 71.9127 82.223 71.7154L82.0967 71.674C81.9792 71.6343 81.8585 71.6395 81.7966 71.6845C81.7347 71.7296 81.7442 71.8056 81.8203 71.8749L84.8027 74.588C84.8488 74.63 84.9119 74.663 84.9786 74.6836C85.0565 74.7075 85.139 74.7144 85.2049 74.6982C85.3273 74.6684 85.3455 74.5705 85.2457 74.4797L82.7566 72.2154C83.2001 72.3515 83.6523 72.4712 84.1104 72.5344C84.6829 72.6132 85.1423 72.5333 85.404 72.3092C85.4567 72.2641 85.4963 72.2131 85.5295 72.1596L86.5306 72.4676C86.6865 72.5156 86.8332 72.4874 86.8583 72.4047C86.8834 72.3221 86.7774 72.2162 86.6215 72.1682L85.6172 71.8592C85.6173 71.6843 85.5451 71.4912 85.4001 71.2952C85.3552 71.2346 85.3015 71.1756 85.2441 71.1175L86.7956 71.595C86.9515 71.6429 87.0982 71.6148 87.1233 71.5321C87.1484 71.4494 87.0424 71.3435 86.8865 71.2956Z" fill="white"/>
<path fill-rule="evenodd" clip-rule="evenodd" d="M72.0797 72.6102C76.8731 70.8655 78.927 69.7044 80.0797 67.5848C81.2324 65.4652 79.3274 63.2804 77.1268 63.3295C74.9261 63.3786 64.2995 66.6658 62.2479 68.745C60.1964 70.8242 60.5171 73.0364 62.721 73.9028C64.925 74.7693 67.2862 74.3549 72.0797 72.6102Z" fill="#9D95F8"/>
<path fill-rule="evenodd" clip-rule="evenodd" d="M70.9766 69.7741C75.5692 68.1026 78.8687 65.5841 78.3463 64.1489C77.824 62.7138 73.6775 62.9054 69.085 64.5769C64.4925 66.2485 61.193 68.7669 61.7153 70.2021C62.2377 71.6373 66.3841 71.4456 70.9766 69.7741Z" fill="#675AF6"/>
<path fill-rule="evenodd" clip-rule="evenodd" d="M70.881 69.5144C75.1865 67.9473 78.2957 65.6298 77.8256 64.3382C77.3555 63.0465 73.4841 63.2698 69.1786 64.8369C64.8731 66.404 61.7639 68.7214 62.234 70.013C62.7042 71.3047 66.5756 71.0814 70.881 69.5144Z" fill="#8279F8"/>
<path fill-rule="evenodd" clip-rule="evenodd" d="M71.2464 64.6741L68.4634 65.8494L67.1165 66.4183C66.9663 66.4817 66.872 66.5976 66.9059 66.6771C66.9398 66.7565 67.0891 66.7695 67.2393 66.7061L68.5862 66.1372C68.9925 65.9657 69.4226 65.9083 69.7368 65.9837C69.8848 66.0192 69.9995 66.0794 70.0806 66.1564L67.4744 67.2571C67.3242 67.3206 67.2299 67.4364 67.2638 67.5159C67.2977 67.5954 67.447 67.6084 67.5972 67.5449L70.2132 66.4401C70.2141 66.469 70.2126 66.4987 70.2075 66.5293C70.1701 66.7547 69.9681 66.9928 69.6387 67.1999C69.1374 67.5151 68.5311 67.7581 67.9438 67.9933L67.8205 68.0428C67.7049 68.0879 67.6158 68.1694 67.5973 68.2438C67.5789 68.318 67.635 68.3702 67.7378 68.3743L71.7665 68.5357C71.8287 68.5382 71.8983 68.5229 71.9626 68.4958C72.0376 68.4641 72.1053 68.4163 72.1454 68.3616C72.2199 68.2601 72.171 68.1734 72.0362 68.168L68.6739 68.0333C69.1012 67.8525 69.5246 67.6536 69.916 67.4075C70.4053 67.0999 70.7059 66.7433 70.7623 66.4035C70.7737 66.3351 70.7712 66.2705 70.7622 66.2082L71.7271 65.8007C71.8774 65.7372 71.9716 65.6214 71.9377 65.5419C71.9038 65.4624 71.7546 65.4494 71.6043 65.5129L70.6364 65.9217C70.524 65.7877 70.3445 65.6862 70.1075 65.6292C70.0342 65.6116 69.9551 65.601 69.8738 65.5934L71.3692 64.9619C71.5194 64.8984 71.6137 64.7826 71.5798 64.7031C71.5459 64.6236 71.3966 64.6106 71.2464 64.6741Z" fill="white"/>
<path fill-rule="evenodd" clip-rule="evenodd" d="M93 11C86.4 11 81 16.4 81 23C81 29.6 86.4 35 93 35C99.6 35 105 29.6 105 23C105 16.4 99.6 11 93 11Z" fill="#33CF90"/>
<path fill-rule="evenodd" clip-rule="evenodd" d="M98.2406 18.8844C98.7575 18.3719 99.5955 18.3719 100.112 18.8844C100.629 19.397 100.629 20.228 100.112 20.7406L92.1712 28.6156C91.6543 29.1281 90.8163 29.1281 90.2994 28.6156L85.8877 24.2406C85.3708 23.728 85.3708 22.897 85.8877 22.3844C86.4045 21.8719 87.2425 21.8719 87.7594 22.3844L91.2353 25.8313L98.2406 18.8844Z" fill="white"/>
</g>
</svg>
