<svg xmlns="http://www.w3.org/2000/svg" width="19" height="12" viewBox="0 0 19 12">
    <g fill="#3792FC">
        <g>
            <path d="M11.308 0H1.067C.479 0 0 .59 0 1.316v7.368C0 9.41.479 10 1.067 10h10.241c.588 0 1.067-.59 1.067-1.316V1.316C12.375.59 11.896 0 11.308 0zm.64 8.684c0 .435-.287.79-.64.79H1.067c-.353 0-.64-.355-.64-.79V1.316c0-.435.287-.79.64-.79h10.241c.353 0 .64.355.64.79v7.368z" transform="translate(0 1) translate(5.625)"/>
            <path d="M11.047 2.25c-.334 0-.607-.337-.607-.75 0-.138-.09-.25-.202-.25h-8.1c-.112 0-.203.112-.203.25 0 .413-.273.75-.608.75-.111 0-.202.112-.202.25v5c0 .138.09.25.202.25.335 0 .608.336.608.75 0 .138.09.25.203.25h8.1c.111 0 .202-.112.202-.25 0-.414.273-.75.607-.75.112 0 .203-.112.203-.25v-5c0-.138-.09-.25-.203-.25zm-.992 6H2.32c-.081-.489-.394-.875-.79-.975v-4.55c.396-.1.709-.486.79-.975h7.735c.08.489.394.875.79.975v4.55c-.396.1-.709.486-.79.975z" transform="translate(0 1) translate(5.625)"/>
            <path d="M6 2.5C4.622 2.5 3.5 3.621 3.5 5S4.622 7.5 6 7.5c1.379 0 2.5-1.121 2.5-2.5S7.379 2.5 6 2.5zm0 4.444c-1.072 0-1.944-.872-1.944-1.944S4.928 3.056 6 3.056 7.944 3.928 7.944 5 7.072 6.944 6 6.944z" transform="translate(0 1) translate(5.625)"/>
        </g>
        <path d="M1.348 1.501h4.054c.123 0 .223-.112.223-.251s-.1-.251-.223-.251H1.348c-.123 0-.223.112-.223.251s.1.251.223.251zM3.375 2.5c0-.139-.09-.251-.199-.251H.199C.089 2.249 0 2.36 0 2.5s.09.251.199.251h2.977c.11 0 .199-.112.199-.251zM5.625 2.5c0-.139-.08-.251-.18-.251H4.68c-.099 0-.179.112-.179.251s.08.251.18.251h.766c.099 0 .179-.112.179-.251zM5.426 3.499H2.449c-.11 0-.199.112-.199.251s.09.251.199.251h2.977c.11 0 .199-.112.199-.251s-.09-.251-.199-.251zM5.412 4.749H3.588c-.118 0-.213.112-.213.251s.095.251.213.251h1.824c.118 0 .213-.112.213-.251s-.095-.251-.213-.251z" transform="translate(0 1)"/>
    </g>
</svg>
