<svg width="80" height="61" viewBox="0 0 80 61" fill="none" xmlns="http://www.w3.org/2000/svg">
<g clip-path="url(#clip0)">
<mask id="mask0" mask-type="alpha" maskUnits="userSpaceOnUse" x="0" y="0" width="80" height="61">
<path d="M77 0.582031H3C1.34315 0.582031 0 1.92518 0 3.58203V57.582C0 59.2389 1.34315 60.582 3 60.582H77C78.6569 60.582 80 59.2389 80 57.582V3.58203C80 1.92518 78.6569 0.582031 77 0.582031Z" fill="white"/>
</mask>
<g mask="url(#mask0)">
<path d="M77 0.582031H3C1.34315 0.582031 0 1.92518 0 3.58203V57.582C0 59.2389 1.34315 60.582 3 60.582H77C78.6569 60.582 80 59.2389 80 57.582V3.58203C80 1.92518 78.6569 0.582031 77 0.582031Z" fill="white"/>
<path opacity="0.05" d="M49.7481 -11.4175C41.4981 -11.4175 27.2481 -11.4175 24.2481 -3.16754C21.2481 5.08246 46.1917 4.59859 51.9981 10.405C57.8046 16.2115 67.1668 15.5825 75.9981 15.5825C84.8295 15.5825 83.156 25.316 90.2481 23.8325C97.3402 22.3489 90.9981 14.9145 93.2481 10.405C93.2481 7.60251 93.2481 0.328316 93.2481 -11.4175C73.4981 -11.4175 58.9981 -11.4175 49.7481 -11.4175Z" fill="#675AF6"/>
<path opacity="0.05" d="M10.2866 60.2572C39.7343 49.7869 52.8222 73.3451 52.8222 60.2572C52.8222 47.1693 37.1167 40.6254 29.264 32.7726C21.4113 24.9199 24.8478 11.832 12.9042 11.832C0.960474 11.832 6.97777 19.1686 -6.07327 24.9199C-19.1243 30.6712 -19.1611 70.7275 10.2866 60.2572Z" fill="#675AF6"/>
<path opacity="0.05" d="M59.0347 46.0072C29.587 35.5369 16.4991 59.0951 16.4991 46.0072C16.4991 32.9193 32.2045 26.3754 40.0573 18.5226C47.91 10.6699 44.4734 -2.41797 56.4171 -2.41797C68.3608 -2.41797 62.3435 4.9186 75.3945 10.6699C88.4456 16.4212 101.57 1.5084 101.57 18.5226C101.57 35.5369 88.4824 56.4775 59.0347 46.0072Z" fill="#675AF6"/>
<path opacity="0.05" d="M12.2771 26.1993C13.3359 25.6932 14.4206 25.1093 15.3757 24.4242C15.726 24.1725 15.3809 23.682 15.0123 23.8766C13.9924 24.4112 12.9959 25.1015 12.0876 25.8048C11.9008 25.945 12.0357 26.3135 12.2771 26.1993ZM16.1967 5.32601C16.1759 5.30784 16.1578 5.28968 16.137 5.2741C15.8749 5.04054 15.4441 4.99642 15.1898 5.2741C14.9329 5.55438 14.9406 5.94106 15.1898 6.22134C15.2079 6.2421 15.2261 6.26026 15.2417 6.28102C15.4752 6.54573 15.9605 6.53795 16.1967 6.28102C16.4303 6.0241 16.477 5.57514 16.1967 5.32601ZM76.5064 9.40345C76.5723 8.9741 76.5597 8.56669 76.7979 8.18749C77.2774 7.43535 77.9575 7.62338 78.6156 7.95558C79.2862 8.29404 79.9193 8.49461 80.6463 8.18122C81.784 7.6892 82.3199 5.97181 81.2324 5.16326C80.8814 4.90001 80.5335 5.33249 80.5805 5.66469C80.6463 6.12537 80.8751 6.6362 80.4803 7.03107C79.9506 7.5607 79.3301 7.11569 78.8005 6.87751C78.2301 6.62053 77.6221 6.56412 77.0361 6.8023C76.0238 7.21284 75.2874 8.58549 76.0928 9.51313C76.2056 9.64162 76.4782 9.58208 76.5064 9.40345ZM64.765 52.8249C63.7246 53.8238 63.3308 55.3783 64.3215 56.5804C65.2542 57.7121 67.0656 57.9483 68.2304 57.0488C71.0492 54.8726 68.1102 50.8642 65.0718 51.6932C64.508 51.8466 64.649 52.6508 65.2044 52.6798C66.0915 52.7295 67.0449 52.7627 67.7537 53.3886C68.5165 54.056 68.533 55.1876 67.9071 55.9586C66.249 57.9939 63.3723 54.9969 65.1132 53.173C65.3371 52.9451 64.9972 52.6052 64.765 52.8249ZM3.75727 46.1961C4.08196 47.4032 4.43842 48.5961 4.81252 49.7889C4.90075 50.0748 5.17251 50.1666 5.41956 49.9972C6.39011 49.3372 7.35713 48.6913 8.27827 47.9608C8.45473 47.8196 8.41591 47.5373 8.24298 47.4173C7.16655 46.6797 5.71602 45.5891 4.35019 45.582C4.00432 45.5785 3.7608 46.0691 4.11372 46.2703C4.66429 46.5879 5.32427 46.7008 5.91366 46.9444C6.59128 47.2267 7.26537 47.5584 7.86535 47.9855C7.87946 47.7878 7.89358 47.5902 7.90417 47.3926C6.87715 48.0243 5.91013 48.7337 4.93605 49.4395C5.12663 49.4784 5.32074 49.5172 5.51132 49.556C5.09486 48.3772 4.66782 47.209 4.20549 46.0479C4.10667 45.8044 3.69021 45.9385 3.75727 46.1961Z" fill="#675AF6"/>
<path d="M47.7283 38.8576C47.7283 38.5643 47.6083 38.2749 47.4043 38.0705C46.9905 37.6571 46.2443 37.6571 45.831 38.0705C45.6216 38.2749 45.5065 38.5638 45.5065 38.8576C45.5065 39.146 45.6221 39.4354 45.831 39.6398C46.0398 39.8487 46.3238 39.9687 46.6176 39.9687C46.9114 39.9687 47.1954 39.8483 47.4047 39.6398C47.6083 39.4354 47.7283 39.1509 47.7283 38.8576ZM30.4394 37.302C30.6794 37.302 30.9238 37.2216 31.1283 37.062C31.6083 36.6754 31.6883 35.9776 31.3056 35.4971C30.9238 35.0171 30.2256 34.9371 29.7456 35.3238C29.2656 35.706 29.1856 36.4038 29.5683 36.8838C29.7861 37.1598 30.1105 37.302 30.4394 37.302ZM52.2523 27.9109C51.639 27.8883 51.1238 28.3683 51.1012 28.9816C51.0834 29.5954 51.5634 30.1105 52.1723 30.1331C52.1856 30.1331 52.1994 30.1331 52.2123 30.1331C52.8078 30.1331 53.3012 29.6616 53.3234 29.062C53.3461 28.4487 52.8661 27.9331 52.2523 27.9109ZM32.7105 19.8798C32.9421 19.8798 33.1772 19.8087 33.3772 19.662C33.8665 19.2931 33.9683 18.5998 33.6038 18.1065C33.2398 17.6131 32.5416 17.5109 32.0483 17.8798C31.5554 18.2443 31.4527 18.942 31.8216 19.4309C32.0394 19.7238 32.3727 19.8798 32.7105 19.8798ZM30.8972 22.2087C31.2527 21.7016 31.1287 21.0131 30.6265 20.6576C30.1243 20.3065 29.431 20.426 29.0798 20.9287C28.7287 21.4309 28.8487 22.1238 29.351 22.4794C29.5461 22.6127 29.7683 22.6794 29.9865 22.6794C30.3372 22.6798 30.6838 22.5154 30.8972 22.2087ZM36.1767 18.0798C36.2927 18.0798 36.4083 18.062 36.5234 18.0265C37.1061 17.8309 37.4216 17.2038 37.2301 16.622C37.039 16.0398 36.4123 15.7238 35.8305 15.9154C35.2478 16.1065 34.9283 16.7331 35.119 17.3149C35.275 17.7865 35.7105 18.0798 36.1767 18.0798ZM42.835 16.6398C42.6394 17.222 42.9505 17.8487 43.5327 18.0443C43.6527 18.0843 43.7678 18.102 43.8883 18.102C44.3505 18.102 44.7861 17.8087 44.9416 17.3465C45.1367 16.7643 44.8212 16.1336 44.2394 15.9376C43.6567 15.7416 43.0261 16.0571 42.835 16.6398ZM52.0438 26.2131C52.635 26.0398 52.9727 25.426 52.7994 24.8349C52.6261 24.2487 52.0083 23.9109 51.4216 24.0798C50.8305 24.2531 50.4923 24.8705 50.6661 25.4576C50.8078 25.942 51.2523 26.2576 51.7323 26.2576C51.835 26.2576 51.9416 26.2443 52.0438 26.2131ZM48.0083 17.9243C47.5194 17.5554 46.8216 17.6536 46.4527 18.142C46.0838 18.6305 46.1821 19.3287 46.675 19.6976C46.875 19.8487 47.1105 19.9243 47.3416 19.9243C47.6798 19.9243 48.0132 19.7687 48.2305 19.4798C48.5994 18.9865 48.5016 18.2931 48.0083 17.9243ZM28.1372 31.7465C27.5638 31.9554 27.2661 32.5954 27.4798 33.1731C27.6443 33.622 28.0661 33.902 28.5243 33.902C28.6487 33.902 28.7776 33.8798 28.9065 33.8309C29.4798 33.622 29.7776 32.982 29.5638 32.4043C29.3505 31.8309 28.7145 31.5331 28.1372 31.7465ZM51.0656 33.8931C51.1945 33.9416 51.3234 33.9638 51.4523 33.9638C51.9061 33.9638 52.3283 33.6887 52.4972 33.2394C52.7101 32.666 52.4167 32.0265 51.8434 31.8127C51.2656 31.5954 50.6261 31.8883 50.4123 32.4616C50.1994 33.0354 50.4883 33.6798 51.0656 33.8931ZM50.9638 20.9909C50.6127 20.4887 49.919 20.3598 49.4172 20.7109C48.9105 21.062 48.7861 21.7554 49.1372 22.2571C49.3505 22.5683 49.6972 22.7371 50.0483 22.7371C50.2661 22.7371 50.4883 22.6709 50.6843 22.5371C51.1861 22.186 51.3105 21.4931 50.9638 20.9909ZM48.6527 35.5465C48.2705 36.022 48.3465 36.7238 48.8216 37.1109C49.0261 37.2754 49.2754 37.3558 49.5194 37.3558C49.8434 37.3558 50.1638 37.2136 50.3861 36.942C50.7678 36.462 50.6923 35.7647 50.2172 35.3776C49.7416 34.9954 49.0394 35.0665 48.6527 35.5465ZM27.2216 24.7643C27.0438 25.3505 27.3812 25.9687 27.9683 26.146C28.075 26.1771 28.1816 26.1949 28.2838 26.1949C28.7638 26.1949 29.2083 25.8794 29.3505 25.3994C29.5238 24.8127 29.1905 24.1905 28.6034 24.0171C28.0172 23.8398 27.395 24.1776 27.2216 24.7643ZM27.7816 30.0665C27.795 30.0665 27.8038 30.0665 27.8172 30.0665C28.4305 30.0443 28.9105 29.5331 28.8927 28.9198C28.875 28.3065 28.3638 27.8265 27.7505 27.8443C27.1372 27.862 26.6527 28.3731 26.675 28.9865C26.6883 29.5909 27.1861 30.0665 27.7816 30.0665ZM38.9238 16.3554C38.919 16.9687 39.4167 17.4709 40.0301 17.4709C40.0301 17.4709 40.0301 17.4709 40.035 17.4709C40.6438 17.4709 41.1412 16.9776 41.1461 16.3643C41.1461 15.7509 40.6527 15.2487 40.035 15.2487C39.4216 15.2487 38.9238 15.7416 38.9238 16.3554ZM32.5772 38.0571C32.3683 38.262 32.2483 38.5505 32.2483 38.8443C32.2483 39.1331 32.3687 39.422 32.5772 39.6265C32.7816 39.8354 33.0661 39.9554 33.3594 39.9554C33.6527 39.9554 33.9421 39.8349 34.1465 39.6265C34.3554 39.4176 34.4705 39.1336 34.4705 38.8443C34.4705 38.5509 34.355 38.2665 34.1465 38.0571C33.7323 37.6443 32.9861 37.6443 32.5772 38.0571ZM49.5327 41.6576C49.5327 41.3643 49.4123 41.0798 49.2083 40.8705C48.791 40.4571 48.0483 40.4571 47.635 40.8705C47.4305 41.0798 47.311 41.3638 47.311 41.6576C47.311 41.9514 47.431 42.2354 47.635 42.4443C47.8438 42.6487 48.1283 42.7687 48.4221 42.7687C48.715 42.7687 48.9998 42.6483 49.2087 42.4443C49.4127 42.2354 49.5327 41.9509 49.5327 41.6576ZM25.0127 32.906C24.4345 33.1154 24.1367 33.7549 24.3505 34.3283C24.515 34.7771 24.9416 35.0571 25.395 35.0571C25.5238 35.0571 25.6527 35.0349 25.7772 34.9909C26.355 34.7776 26.6483 34.1376 26.4394 33.5643C26.2261 32.9865 25.5856 32.6931 25.0127 32.906ZM35.1283 14.9154C35.2438 14.9154 35.3594 14.8976 35.4745 14.8576C35.4745 14.862 35.4745 14.862 35.4745 14.862C36.0572 14.6665 36.3727 14.0398 36.1816 13.4576C35.9901 12.8709 35.3634 12.5554 34.7772 12.7509H34.7816C34.195 12.942 33.8794 13.5687 34.0705 14.1509C34.2261 14.6176 34.6616 14.9154 35.1283 14.9154ZM28.1638 20.302C28.515 19.7998 28.395 19.1065 27.8927 18.7554C27.3905 18.3998 26.6972 18.5243 26.3465 19.0265C25.9905 19.5287 26.115 20.2216 26.6172 20.5727C26.8083 20.7065 27.0305 20.7727 27.2527 20.7727C27.6034 20.7731 27.9461 20.6087 28.1638 20.302ZM31.6083 15.4354C31.2438 14.942 30.5456 14.8398 30.0527 15.2087C29.5634 15.5727 29.4616 16.2709 29.8256 16.7643C30.0434 17.0527 30.3767 17.2087 30.7194 17.2087C30.9505 17.2087 31.1816 17.1376 31.3812 16.9909C31.875 16.622 31.9723 15.9243 31.6083 15.4354ZM40.0394 11.9154C39.4261 11.9154 38.9283 12.4083 38.9283 13.0265C38.9238 13.6354 39.4216 14.1376 40.035 14.1376C40.6483 14.1376 41.1461 13.6398 41.1505 13.0309C41.1505 12.4176 40.6527 11.9154 40.0394 11.9154ZM24.7727 25.2038C24.879 25.2349 24.9856 25.2487 25.0883 25.2487C25.5683 25.2487 26.0078 24.9376 26.1545 24.4531C26.3283 23.8665 25.995 23.2487 25.4038 23.0709C24.8172 22.8976 24.1994 23.2309 24.0256 23.822C23.8483 24.4083 24.1816 25.0265 24.7727 25.2038ZM24.4838 30.1776C25.0972 30.1554 25.5816 29.6443 25.5638 29.0309C25.5416 28.4176 25.0305 27.9376 24.4172 27.9554C23.8038 27.9731 23.3238 28.4887 23.3416 29.102C23.3594 29.702 23.8527 30.1776 24.4527 30.1776C24.4616 30.1776 24.4745 30.1776 24.4838 30.1776ZM43.8883 13.4754C43.6927 14.0576 44.0083 14.6843 44.5905 14.8798C44.7061 14.9198 44.8256 14.9376 44.9416 14.9376C45.4038 14.9376 45.8394 14.6443 45.995 14.182C46.1901 13.5998 45.8745 12.9691 45.2927 12.7731C44.7105 12.5776 44.0834 12.8931 43.8883 13.4754ZM55.5816 28.0309C54.9727 28.0087 54.4576 28.4887 54.435 29.102C54.4127 29.7109 54.8927 30.2265 55.5061 30.2487C55.5194 30.2487 55.5332 30.2487 55.5461 30.2487C56.1416 30.2487 56.635 29.7771 56.6572 29.1776C56.675 28.5643 56.1994 28.0487 55.5816 28.0309ZM50.0083 15.2531C49.5194 14.8843 48.8216 14.982 48.4527 15.4754C48.0838 15.9643 48.1821 16.662 48.675 17.0309C48.8705 17.182 49.1065 17.2531 49.3372 17.2531C49.675 17.2531 50.0083 17.0976 50.2261 16.8087C50.595 16.3198 50.4972 15.622 50.0083 15.2531ZM28.7061 37.582C28.3238 37.102 27.6216 37.0265 27.1461 37.4083C26.6661 37.7905 26.5856 38.4887 26.9683 38.9687C27.1905 39.2443 27.5105 39.386 27.8394 39.386C28.0838 39.386 28.3238 39.306 28.5332 39.146C29.0083 38.7594 29.0883 38.062 28.7061 37.582ZM52.8127 37.4665C52.3372 37.0843 51.635 37.1554 51.2523 37.6354C50.8661 38.1105 50.9416 38.8127 51.4167 39.1998C51.6261 39.3643 51.8705 39.4443 52.1145 39.4443C52.439 39.4443 52.759 39.3025 52.9812 39.0309C53.3683 38.5509 53.2927 37.8527 52.8127 37.4665ZM53.8661 24.5194C54.0078 25.0043 54.4483 25.3198 54.9323 25.3198C55.0345 25.3198 55.1367 25.3065 55.2434 25.2749C55.8301 25.1016 56.1678 24.4843 55.999 23.8971C55.8252 23.306 55.2078 22.9683 54.6207 23.1416C54.0301 23.3109 53.6927 23.9287 53.8661 24.5194ZM54.1905 35.0531C54.3194 35.102 54.4483 35.1243 54.5772 35.1243C55.0305 35.1243 55.4527 34.8487 55.6216 34.4043C55.835 33.8265 55.5416 33.1865 54.9683 32.9731C54.3905 32.7598 53.7505 33.0531 53.5372 33.6265C53.3234 34.1998 53.6172 34.8398 54.1905 35.0531ZM53.7016 19.0887C53.3505 18.5865 52.6567 18.462 52.155 18.8087C51.6483 19.1598 51.5238 19.8531 51.875 20.3554C52.0883 20.666 52.435 20.8349 52.791 20.8349C53.0083 20.8349 53.2305 20.7687 53.4221 20.6354C53.9238 20.2843 54.0478 19.5954 53.7016 19.0887ZM30.7638 40.8527C30.5594 41.062 30.4398 41.346 30.4398 41.6398C30.4398 41.9336 30.5598 42.2176 30.7638 42.4265C30.9727 42.6309 31.2572 42.7509 31.551 42.7509C31.8438 42.7509 32.1287 42.6305 32.3376 42.4265C32.5421 42.2176 32.6621 41.9336 32.6621 41.6398C32.6621 41.3509 32.5416 41.062 32.3376 40.8527C31.919 40.4438 31.1816 40.4398 30.7638 40.8527ZM49.4394 43.6754C49.235 43.8798 49.115 44.1683 49.115 44.462C49.115 44.7509 49.2354 45.0403 49.4394 45.2447C49.6438 45.4536 49.9323 45.5731 50.2261 45.5731C50.5198 45.5731 50.8038 45.4531 51.0132 45.2447C51.2176 45.0403 51.3372 44.7514 51.3372 44.462C51.3372 44.1687 51.2172 43.8798 51.0132 43.6754C50.595 43.262 49.8527 43.262 49.4394 43.6754ZM22.2083 22.1198C21.6216 21.946 21.0038 22.2794 20.8261 22.8705C20.6527 23.4571 20.9861 24.0749 21.5772 24.2527C21.6794 24.2838 21.7861 24.2971 21.8927 24.2971C22.3727 24.2971 22.8127 23.9865 22.9594 23.5016C23.1327 22.9154 22.7994 22.2971 22.2083 22.1198ZM28.7283 14.5371C28.9598 14.5371 29.1905 14.4665 29.3905 14.3149C29.8838 13.9509 29.9816 13.2527 29.6172 12.7594C29.2483 12.2665 28.555 12.1683 28.0616 12.5327C27.5687 12.9016 27.4705 13.5954 27.835 14.0883C28.0527 14.382 28.3861 14.5371 28.7283 14.5371ZM34.4261 11.6931C34.4305 11.6931 34.4305 11.6931 34.4305 11.6931C35.0132 11.5016 35.3287 10.8754 35.1372 10.2931C34.9461 9.70692 34.315 9.39092 33.7327 9.58203C33.1505 9.77714 32.835 10.4043 33.0261 10.9865C33.1772 11.4531 33.6127 11.7509 34.0794 11.7509C34.1945 11.7509 34.3105 11.7331 34.4261 11.6931ZM58.0927 34.1376C57.5194 33.9198 56.8794 34.2131 56.6616 34.7909C56.4483 35.3643 56.7416 36.0043 57.315 36.2176C57.4438 36.2665 57.5772 36.2887 57.7061 36.2887C58.155 36.2887 58.5772 36.0131 58.7461 35.5643C58.9594 34.9909 58.6661 34.3505 58.0927 34.1376ZM52.2305 14.142C52.595 13.6531 52.4976 12.9554 52.0083 12.5865C51.5194 12.2176 50.8216 12.3154 50.4527 12.8087C50.0838 13.2976 50.1821 13.9954 50.6705 14.3643C50.675 14.3643 50.675 14.3643 50.675 14.3643C50.8705 14.5154 51.1065 14.5865 51.3372 14.5865C51.675 14.5865 52.0083 14.4309 52.2305 14.142ZM46.3505 9.6127C45.7678 9.41759 45.1372 9.73314 44.9461 10.3149C44.7505 10.8931 45.0616 11.5243 45.6483 11.7194C45.6438 11.7194 45.6438 11.7194 45.6438 11.7194C45.7638 11.7594 45.879 11.7771 45.9994 11.7771C46.4616 11.7771 46.8972 11.4843 47.0527 11.0171C47.2483 10.4354 46.9327 9.80425 46.3505 9.6127ZM40.0438 8.58203C39.4305 8.58203 38.9327 9.07492 38.9327 9.6887C38.9283 10.3065 39.4261 10.8043 40.0394 10.8043H40.0438C40.6572 10.8043 41.1505 10.3065 41.155 9.69759C41.155 9.07981 40.6567 8.58203 40.0438 8.58203ZM58.1283 24.3776C58.235 24.3776 58.3372 24.3643 58.4438 24.3327C59.0301 24.1638 59.3683 23.546 59.1994 22.9549C59.0256 22.3683 58.4083 22.0305 57.8172 22.1994C57.2305 22.3731 56.8927 22.9905 57.0661 23.5816C57.2038 24.0665 57.6483 24.3776 58.1283 24.3776ZM24.5372 39.4887C24.0616 39.8705 23.9816 40.5687 24.3634 41.0487C24.5856 41.3243 24.9061 41.4665 25.235 41.4665C25.4745 41.4665 25.7238 41.386 25.9283 41.2216C26.4038 40.8398 26.4838 40.1416 26.1016 39.6616C25.7145 39.182 25.0172 39.1065 24.5372 39.4887ZM21.8838 34.0571C21.3056 34.2665 21.0078 34.906 21.2216 35.4843C21.3905 35.9331 21.8127 36.2087 22.2661 36.2087C22.395 36.2087 22.5238 36.186 22.6483 36.142C23.2261 35.9291 23.5194 35.2887 23.3105 34.7154C23.0972 34.1376 22.4572 33.8443 21.8838 34.0571ZM22.2305 29.1376C22.2127 28.5243 21.6972 28.0443 21.0838 28.062C20.4705 28.0798 19.9905 28.5905 20.0083 29.2038C20.0261 29.8083 20.5194 30.2843 21.1194 30.2843C21.1327 30.2843 21.1416 30.2843 21.155 30.2843C21.7678 30.262 22.2483 29.7509 22.2305 29.1376ZM55.4127 39.5549C54.9327 39.1683 54.2354 39.2443 53.8483 39.7238C53.4661 40.1994 53.5372 40.9016 54.0172 41.2843C54.2216 41.4531 54.4705 41.5331 54.7145 41.5331C55.039 41.5331 55.359 41.3909 55.5812 41.1198C55.9638 40.6398 55.8883 39.942 55.4127 39.5549ZM55.5278 18.9331C55.7456 18.9331 55.9678 18.8705 56.159 18.7376C56.6661 18.3865 56.7905 17.6931 56.4394 17.1914C56.0883 16.6843 55.3945 16.5603 54.8927 16.9114C54.391 17.2625 54.2616 17.9514 54.6127 18.4576C54.8305 18.7687 55.1767 18.9331 55.5278 18.9331ZM58.915 28.1465C58.3016 28.1243 57.7861 28.6043 57.7683 29.2176C57.7461 29.8309 58.2221 30.3465 58.8394 30.3687C58.8487 30.3687 58.8616 30.3687 58.875 30.3687C59.4705 30.3687 59.9683 29.8976 59.9861 29.2976C60.0083 28.6838 59.5278 28.1683 58.915 28.1465ZM25.4305 18.3905C25.7816 17.8883 25.6621 17.1954 25.1594 16.8443C24.6572 16.4931 23.9643 16.6127 23.6132 17.1154C23.2576 17.6176 23.3816 18.3105 23.8843 18.666C24.0754 18.7998 24.2976 18.866 24.5198 18.866C24.8705 18.8665 25.2123 18.702 25.4305 18.3905ZM28.9545 43.6531C28.7501 43.8576 28.6305 44.146 28.6305 44.4398C28.6305 44.7336 28.7505 45.0176 28.9545 45.222C29.1638 45.4314 29.4478 45.5509 29.7416 45.5509C30.0354 45.5509 30.3194 45.4309 30.5238 45.222C30.7327 45.0176 30.8527 44.7331 30.8527 44.4398C30.8527 44.1465 30.7323 43.862 30.5238 43.6531C30.115 43.2394 29.3683 43.2394 28.9545 43.6531Z" fill="#DFD8EF"/>
<path d="M50.0002 28.5822C50.0002 22.8876 45.2131 18.2862 39.4549 18.5969C34.2086 18.876 29.9673 23.3849 30.0002 28.6471C30.022 32.0227 31.7304 35.1356 34.57 36.9747C35.1873 37.3742 35.5557 38.0631 35.5557 38.8173V40.5822H44.4446V38.8178C44.4446 38.0618 44.8064 37.3764 45.4131 36.9858C48.2855 35.1338 50.0002 31.9924 50.0002 28.5822Z" fill="#B9B3F9"/>
<path fill-rule="evenodd" clip-rule="evenodd" d="M40 21.582C36.15 21.582 33 24.732 33 28.582C33 32.432 36.15 35.582 40 35.582C43.85 35.582 47 32.432 47 28.582C47 24.732 43.85 21.582 40 21.582Z" fill="white"/>
<path fill-rule="evenodd" clip-rule="evenodd" d="M40 21.582C43.85 21.582 47 24.732 47 28.582C47 32.432 43.85 35.582 40 35.582C36.15 35.582 33 32.432 33 28.582C33 24.732 36.15 21.582 40 21.582ZM44.1489 26.1813C43.8474 25.8823 43.3585 25.8823 43.057 26.1813L38.9706 30.2336L36.943 28.2229C36.6415 27.9239 36.1526 27.9239 35.8511 28.2229C35.5496 28.5219 35.5496 29.0067 35.8511 29.3057L38.4247 31.8578C38.7262 32.1568 39.215 32.1568 39.5165 31.8578L44.1489 27.264C44.4504 26.965 44.4504 26.4803 44.1489 26.1813Z" fill="#675AF6"/>
<path fill-rule="evenodd" clip-rule="evenodd" d="M36 41.582H44V43.582C44 45.7912 42.2091 47.582 40 47.582C37.7909 47.582 36 45.7912 36 43.582V41.582Z" fill="#DFD8EF"/>
</g>
</g>
<defs>
<clipPath id="clip0">
<rect width="80" height="60" fill="white" transform="translate(0 0.582031)"/>
</clipPath>
</defs>
</svg>
