<svg width="320" height="140" viewBox="0 0 320 140" fill="none" xmlns="http://www.w3.org/2000/svg">
<path d="M286.152 137.483C280.95 139.901 90.7911 139.652 67.2598 139.652C57.5144 139.652 48.735 141.477 41.9161 136.77C34.8056 131.859 29.2395 124.759 23.9939 118.96C13.1583 106.984 4.40752 93.8699 3.13078 79.8275C2.64303 74.4436 3.37943 68.7731 7.75002 64.193C12.1206 59.613 20.9287 56.5036 28.8426 58.0863C36.3692 59.5912 43.2359 64.9283 50.4278 62.8408C55.267 61.4357 56.6059 57.4632 57.4953 54.0609C60.8235 41.3084 66.9442 28.2101 81.0888 19.1341C95.2382 10.0613 119.296 6.52499 135.257 14.2176C144.061 18.4611 149.043 25.2471 152.744 31.9645C156.446 38.6819 159.286 45.7108 165.225 51.7054C171.164 57.7 181.125 62.6259 192.061 62.28C201.662 61.9747 209.868 57.7841 216.749 53.4097C223.63 49.0322 230.224 44.1374 239.109 41.7446C247.994 39.3486 260.087 40.4952 264.496 46.0629C268.331 50.9078 265.012 56.7216 262.167 61.8469C258.858 67.8135 256.218 74.1694 257.634 80.4444C259.049 86.7194 265.423 92.8853 274.858 94.4463C283.484 95.8732 292.814 93.3215 301.407 94.8295C314.164 97.0697 319.697 107.747 315.742 115.96C311.788 124.173 301.225 130.23 290.6 135.346C290.6 135.346 290.6 135.346 290.595 135.346C288.897 136.168 287.458 136.876 286.152 137.483Z" fill="#FAFCFF"/>
<path d="M213.027 9.30334C214.756 10.3254 216.006 11.9402 217.008 13.5849C221.229 20.5152 221.852 28.5732 220.269 35.7043C218.689 42.8378 215.077 49.2028 211.238 55.3121C209.659 57.8319 204.666 67.8017 201.405 62.9119C199.229 59.648 200.608 50.2657 200.616 46.7564C200.627 39.8225 201.724 33.0238 203.852 26.6361C204.362 25.0966 211.666 8.49795 213.027 9.30334Z" fill="#EDF5FF"/>
<path d="M208.32 72.4446C220.06 67.5185 233.563 65.551 247.217 66.779C245.464 70.4819 241.686 72.8716 237.729 74.5832C228.357 78.6317 220.551 80.7319 210.145 82.2721C207.183 82.71 195.872 82.5648 195.77 81.4101C195.445 77.7619 205.345 73.6901 208.32 72.4446Z" fill="#E3EFFF"/>
<path d="M171.444 110.382L170.738 109.743C175.663 105.052 180.307 99.7895 184.539 94.1053C188.54 88.732 192.289 82.8268 195.678 76.5548C198.861 70.6702 201.821 64.2902 204.476 57.5945C207.005 51.2166 209.272 44.567 211.217 37.8282C212.764 32.4661 214.563 25.3534 214.75 17.8599C214.77 17.0317 214.771 16.1974 214.751 15.3799L215.677 15.4802C215.695 16.311 215.698 17.1575 215.676 17.999C215.49 25.5796 213.674 32.7504 212.115 38.1535C210.164 44.9129 207.888 51.5867 205.349 57.9827C202.683 64.7061 199.709 71.1115 196.518 77.0203C193.112 83.3212 189.347 89.2554 185.324 94.6551C181.069 100.369 176.398 105.66 171.444 110.382Z" fill="#E3EFFF"/>
<path d="M189.571 87.7104C189.567 87.708 189.559 87.7031 189.554 87.7006C189.33 87.5612 189.248 87.2918 189.369 87.1013C191.8 83.3021 196.789 80.116 204.206 77.6318C214.805 74.0839 225.762 70.4147 237.818 70.4446C238.071 70.4462 238.305 70.639 238.338 70.8754C238.371 71.1117 238.193 71.3032 237.939 71.3016C226.038 71.2689 215.15 74.9156 204.621 78.4409C197.379 80.8669 192.522 83.9508 190.186 87.6065C190.064 87.7971 189.792 87.8378 189.571 87.7104Z" fill="#EFF6FF"/>
<path fill-rule="evenodd" clip-rule="evenodd" d="M196.548 75.5177C196.578 75.5542 196.612 75.5835 196.65 75.6055C196.765 75.6716 196.902 75.6785 197.005 75.6077C202.364 72.0946 208.3 67.8089 212.56 62.2714C212.568 62.2666 212.578 62.2624 212.587 62.2582C212.597 62.254 212.606 62.2499 212.614 62.2451C215.406 60.623 217.924 58.8963 220.475 57.1214C225.722 53.4707 229.223 49.8744 231.494 45.8042C233.035 43.0359 234.632 38.8997 234.257 34.0353C234.361 33.8737 234.286 33.3767 233.89 31.536L233.794 31.0849L233.39 31.2858C226.926 34.4796 223.235 40.4711 220.741 45.3392C219.927 46.9544 219.139 48.6326 218.376 50.2578C216.829 53.5539 215.232 56.9564 213.332 60.0432C209.096 66.4201 202.488 71.2344 196.584 75.1037C196.447 75.1937 196.431 75.3777 196.548 75.5177ZM221.333 45.6566C223.72 41.0022 227.212 35.306 233.199 32.1165C233.26 32.697 233.48 33.4225 233.583 33.7332C234.028 38.5847 232.436 42.7234 230.902 45.4771C228.676 49.481 225.223 53.0231 220.037 56.627C217.906 58.1139 215.792 59.5622 213.53 60.9442C213.649 60.775 213.766 60.6003 213.882 60.4284L213.9 60.4004C215.818 57.2846 217.423 53.8677 218.976 50.5607C219.737 48.9391 220.523 47.2645 221.333 45.6566Z" fill="#E3EFFF"/>
<path d="M269.894 97.8173C268.753 96.3069 266.896 95.3083 264.993 94.5382C256.977 91.3138 247.494 91.5622 239.018 93.7781C230.542 95.9939 222.893 100.033 215.541 104.256C212.508 105.995 200.557 111.699 206.204 114.242C209.97 115.942 221.094 113.676 225.239 113.308C233.424 112.578 241.486 110.849 249.107 108.196C250.929 107.555 270.791 99.0047 269.894 97.8173Z" fill="#F2F8FF"/>
<path d="M262.711 95.9741C261.733 96.0436 260.732 96.1281 259.737 96.2374C250.783 97.1963 242.255 99.6357 235.817 101.658C227.766 104.182 219.808 107.004 212.165 110.039C204.132 113.229 196.459 116.672 189.369 120.274C188.519 120.706 187.681 121.138 186.842 121.581C187.424 121.61 188.007 121.645 188.589 121.68C189.019 121.456 189.444 121.233 189.881 121.014C196.942 117.432 204.586 113.999 212.584 110.824C220.204 107.799 228.139 104.987 236.16 102.468C242.546 100.465 251.005 98.0409 259.859 97.0919C260.837 96.9876 261.821 96.8982 262.787 96.8336L262.711 95.9741Z" fill="#E2EEFF"/>
<path fill-rule="evenodd" clip-rule="evenodd" d="M214.26 96.6944C204.708 103.198 197.169 111.753 190.969 119.424C190.853 119.573 190.853 119.757 190.964 119.891C190.998 119.936 191.045 119.981 191.103 120.016C191.33 120.15 191.645 120.1 191.802 119.906C198.63 111.455 207.094 101.921 218.056 95.3282C223.353 92.3323 229.169 89.6941 234.798 87.1454C237.575 85.8884 240.445 84.5867 243.204 83.2651C251.534 79.216 261.82 73.4031 267.543 64.3061L267.909 63.7397L267.153 63.6751C264.079 63.4218 263.241 63.3919 262.967 63.5609C254.794 63.7795 247.739 66.5269 243 68.9912C236.02 72.6181 229.78 77.8249 223.353 85.3667C220.233 89.0333 217.188 92.6552 214.307 96.615C214.289 96.6398 214.272 96.6696 214.26 96.6944ZM243.518 69.7216C248.239 67.2672 255.294 64.5297 263.438 64.4104C263.962 64.5048 265.167 64.6936 266.145 64.6837C260.452 73.1447 250.666 78.6496 242.703 82.5249C240.046 83.7977 237.281 85.0519 234.597 86.2696L234.32 86.3952L234.319 86.3955C228.667 88.959 222.828 91.607 217.479 94.6276C217.165 94.8164 216.85 95.0052 216.542 95.199C218.992 91.9746 221.548 88.9389 224.162 85.8735C230.507 78.421 236.66 73.2888 243.518 69.7216Z" fill="#D3E6FD"/>
<path d="M214.959 95.7455L215.582 96.4212C217.142 95.3679 219.139 93.8625 221.252 92.2627C223.755 90.3748 226.34 88.4173 228.237 87.21C234.431 83.2502 240.811 79.365 247.209 75.6537C253.607 71.9474 260.19 68.3155 266.786 64.8576L266.262 64.1273C259.655 67.5902 253.054 71.227 246.644 74.9432C240.235 78.6595 233.837 82.5547 227.632 86.5194C225.705 87.7515 223.103 89.719 220.582 91.6168C218.487 93.2117 216.496 94.7121 214.959 95.7455Z" fill="#D3E6FD"/>
<path d="M205.723 107.274C206.037 103.876 206.789 100.047 209.632 98.838C210.049 98.6587 210.539 98.5542 210.987 98.7826C211.787 99.1848 211.967 100.329 212.507 101.101C213.643 102.735 216.035 102.164 216.935 100.65C217.834 99.1361 217.823 97.1194 218.273 95.344C218.666 93.7937 219.421 92.4046 220.459 91.3247C221.818 89.9164 224.416 89.2667 225.722 91.1122C226.665 92.4531 226.271 94.1828 226.059 95.7112C225.847 97.2395 226.193 99.33 227.632 99.8645C228.868 100.323 229.897 99.2357 230.7 98.3055C232.655 96.0246 235.012 94.1563 237.644 92.7944C239.478 91.8452 241.539 91.1357 243.696 91.5363C245.85 91.9318 248.081 93.7088 248.581 96.0335C249.042 98.2016 247.934 100.186 246.549 101.548C242.776 105.262 237.118 105.964 232.262 107.986C231.115 108.463 229.823 109.531 230.366 110.877C230.748 111.822 231.793 112.193 232.674 112.583C234.817 113.526 236.727 115.324 237.909 117.523C238.109 117.901 238.297 118.307 238.299 118.717C238.311 119.65 237.405 120.138 236.575 120.282C232.728 120.939 228.381 117.88 224.663 118.943C224.166 119.086 223.651 119.349 223.502 119.881C223.395 120.265 223.508 120.714 223.674 121.112C224.355 122.769 225.852 123.901 227.037 125.233C228.221 126.565 229.159 128.616 228.337 129.969C227.717 130.985 226.369 131.132 225.165 131.025C221.461 130.681 217.806 128.711 214.663 126.136C211.848 123.825 208.231 120.591 206.32 117.333C204.526 114.254 205.431 110.398 205.723 107.274Z" fill="#E8F3FF"/>
<path d="M242.527 97.7861L202.663 120.802" stroke="#E5EDF7" stroke-linecap="round"/>
<path d="M223.484 92.1024C222.414 98.2683 221.2 104.387 219.843 110.451" stroke="#E5EDF7" stroke-linecap="round"/>
<path d="M210.317 101.097C209.947 106.358 209.457 111.592 208.856 116.795" stroke="#E5EDF7" stroke-linecap="round"/>
<path d="M218.126 112.465C223.481 114.105 228.823 115.835 234.148 117.658" stroke="#E5EDF7" stroke-linecap="round"/>
<path d="M74.3052 26.4682C72.6708 27.4009 71.5117 28.8887 70.5976 30.4064C66.7455 36.7814 66.3951 44.2136 68.1472 50.8045C69.8978 57.3912 73.5913 63.2802 77.4903 68.9373C79.0975 71.2695 84.2317 80.4887 87.2281 75.9909C89.2247 72.9895 87.594 64.3272 87.4791 61.0854C87.2507 54.6824 85.9761 48.4078 83.7166 42.5061C83.1753 41.0803 75.5981 25.7311 74.3052 26.4682Z" fill="#EDF5FF"/>
<path d="M80.855 84.7538C69.3644 80.1609 56.266 78.2898 43.1187 79.3633C44.9282 82.7877 48.6534 85.0104 52.5283 86.6029C61.7078 90.3762 69.3067 92.3501 79.4058 93.809C82.2781 94.2246 93.1926 94.1399 93.2564 93.0745C93.4551 89.7139 83.7716 85.9194 80.855 84.7538Z" fill="#EDF5FF"/>
<path d="M117.667 119.914L118.33 119.33C113.424 114.981 108.773 110.107 104.509 104.84C100.473 99.8655 96.6721 94.401 93.1946 88.6C89.9366 83.1568 86.8748 77.2568 84.0979 71.0675C81.4558 65.1717 79.0522 59.0274 76.9596 52.8031C75.2963 47.8503 73.3338 41.2789 72.9123 34.3608C72.8683 33.5963 72.839 32.8266 72.8322 32.0724L71.9433 32.158C71.9498 32.9265 71.9772 33.7065 72.0258 34.4835C72.4472 41.4779 74.4246 48.1057 76.1017 53.0964C78.2019 59.3416 80.6083 65.5088 83.263 71.4237C86.049 77.6383 89.125 83.5617 92.3971 89.0283C95.8853 94.8588 99.7118 100.347 103.763 105.349C108.051 110.636 112.729 115.539 117.667 119.914Z" fill="#E3EFFF"/>
<path d="M99.4439 98.9219C99.4488 98.9201 99.4537 98.9183 99.4571 98.9123C99.6668 98.7837 99.7441 98.5366 99.6196 98.363C97.1516 94.8452 92.2329 91.8862 84.9968 89.5613C74.6498 86.2415 63.9554 82.8101 52.3176 82.7916C52.0719 82.7906 51.8529 82.9703 51.83 83.1832C51.8038 83.4021 51.9802 83.5806 52.2244 83.5774C63.7125 83.5981 74.3423 87.0053 84.6199 90.3028C91.6897 92.5693 96.4739 95.4344 98.8491 98.8196C98.9702 98.9991 99.2296 99.0379 99.4439 98.9219Z" fill="#E3EFFF"/>
<path fill-rule="evenodd" clip-rule="evenodd" d="M69.5814 70.1409C75.7005 77.455 84.0741 83.1349 91.6171 87.7893C91.7615 87.8795 91.9537 87.8715 92.0956 87.7865C92.1467 87.7584 92.1948 87.7219 92.2333 87.6745C92.384 87.4912 92.3571 87.2487 92.163 87.129C83.8514 82.0024 74.5324 75.6245 68.4065 67.204C65.652 63.129 63.2913 58.6346 61.0134 54.2909C59.8933 52.1479 58.7293 49.9304 57.5357 47.7998C53.8774 41.3793 48.5208 33.464 39.4725 29.2242L38.906 28.9545L38.7945 29.5519C38.3363 31.9695 38.2526 32.6282 38.4071 32.8384C38.1116 39.2418 40.4987 44.6974 42.7488 48.3517C46.0589 53.7235 51.0464 58.4801 58.4437 63.3161C62.0358 65.6634 65.5852 67.9549 69.5024 70.1077C69.5298 70.1216 69.5556 70.1312 69.5814 70.1409ZM43.5448 47.9192C41.3073 44.2841 38.9251 38.8267 39.3212 32.4391C39.4496 32.0259 39.7224 31.0748 39.7712 30.3052C48.1638 34.5362 53.2334 42.0611 56.7354 48.2053C57.8485 50.1893 58.9313 52.2508 59.9868 54.2605C60.0604 54.4005 60.1337 54.5402 60.207 54.6796L60.2169 54.6984C62.5043 59.0554 64.8668 63.5554 67.6489 67.6654C67.8255 67.9056 68.0022 68.1459 68.1838 68.3844C65.0027 66.5537 62.0273 64.6291 59.0203 62.6636C51.7176 57.8884 46.8001 53.2016 43.5448 47.9192Z" fill="#E3EFFF"/>
<path d="M68.6482 69.6144L69.3841 69.1086C68.3981 67.9161 66.961 66.3882 65.4413 64.7713C63.647 62.8594 61.7907 60.8844 60.6594 59.4307C56.9572 54.6822 53.3433 49.7778 49.9152 44.863C46.487 39.9481 43.1521 34.8756 39.9994 29.7986L39.2083 30.2293C42.3655 35.3189 45.7134 40.3962 49.1462 45.3237C52.5789 50.2512 56.2008 55.1622 59.9124 59.9215C61.0643 61.401 62.9316 63.391 64.7404 65.3119C66.2456 66.9198 67.6732 68.437 68.6482 69.6144Z" fill="#E3EFFF"/>
<path d="M143.285 67.2073C148.451 61.2775 156.129 57.6296 164.009 54.7538C169.374 68.127 165.824 82.8484 155.303 90.8757C153.467 92.2737 151.391 93.5018 148.934 93.9424C142.203 95.1424 138.637 90.5997 137.983 85.2137C137.144 78.3573 138.972 72.1629 143.285 67.2073Z" fill="#F2F8FF"/>
<path d="M161.915 59.6794L138.69 99.9078" stroke="#EAF3FE" stroke-linecap="round"/>
<path d="M153.877 60.0628C154.004 63.5746 154.175 67.0919 154.392 70.6147" stroke="#EAF3FE" stroke-linecap="round"/>
<path d="M151.375 78.5441C155.625 77.6264 159.757 76.3919 163.714 74.8504" stroke="#EAF3FE" stroke-linecap="round"/>
<path d="M107.353 44.0516C109.047 44.2317 110.678 45.2015 112.155 46.3131C118.358 51.0027 122.562 58.434 124.782 66.0003C127.002 73.5666 127.431 81.3405 127.581 88.9705C127.646 92.1165 128.786 103.981 124.205 100.804C121.149 98.6855 117.739 89.0527 116.102 85.6845C112.871 79.0314 110.467 72.0096 108.982 64.9008C108.632 63.198 106.021 43.9104 107.353 44.0516Z" fill="#F2F8FF"/>
<path d="M112.105 48.7393C112.504 49.526 112.903 50.3377 113.28 51.1563C116.691 58.5082 118.762 66.2186 120.187 72.1232C121.972 79.5045 123.484 86.9521 124.685 94.2562C125.948 101.933 126.848 109.448 127.356 116.588C127.417 117.444 127.472 118.291 127.519 119.143C127.227 118.708 126.93 118.275 126.633 117.842C126.606 117.406 126.581 116.974 126.548 116.536C126.038 109.428 125.143 101.939 123.885 94.2968C122.687 87.0152 121.178 79.5902 119.403 72.2337C117.987 66.3787 115.937 58.7291 112.565 51.4581C112.192 50.6553 111.805 49.8548 111.406 49.0793L112.105 48.7393Z" fill="#E2EEFF"/>
<path fill-rule="evenodd" clip-rule="evenodd" d="M134.009 86.4532C133.42 96.838 130.314 106.62 127.27 114.959C127.209 115.118 127.067 115.203 126.912 115.18C126.861 115.174 126.805 115.159 126.751 115.13C126.543 115.017 126.435 114.751 126.512 114.54C129.867 105.355 133.299 94.4047 133.304 82.8916C133.159 77.4158 132.499 71.7062 131.856 66.1817C131.538 63.4567 131.212 60.6392 130.953 57.8977C130.215 49.5938 129.931 38.9632 134.297 30.3314L134.564 29.7859L134.964 30.3398C136.585 32.5937 136.996 33.2266 136.993 33.5159C140.613 39.9229 141.764 46.6398 142.059 51.438C142.497 58.5042 141.373 65.7324 138.533 74.1868C137.151 78.2938 135.768 82.3217 134.049 86.3804C134.038 86.4054 134.023 86.4327 134.009 86.4532ZM141.256 51.3768C140.961 46.5967 139.802 39.8844 136.119 33.546C135.803 33.1856 135.099 32.3434 134.653 31.5843C130.765 39.8989 131.054 50.0004 131.756 57.9408C132.005 60.58 132.319 63.2945 132.624 65.9299L132.656 66.2022L132.656 66.2029C133.298 71.7521 133.962 77.484 134.111 83.0114L134.111 83.0115C134.111 83.3416 134.111 83.6716 134.105 83.9994C135.457 80.6139 136.614 77.235 137.767 73.7975C140.575 65.4474 141.683 58.3211 141.256 51.3768Z" fill="#D3E6FD"/>
<path d="M134.417 85.4743L133.607 85.307C133.697 83.6151 133.932 81.3768 134.187 79.0049C134.483 76.1985 134.795 73.297 134.847 71.2732C135.031 64.659 135.071 57.9356 134.968 51.2794C134.862 44.6254 134.612 37.8623 134.222 31.1709L135.029 31.2365C135.42 37.9393 135.674 44.7181 135.778 51.3857C135.882 58.0532 135.843 64.7946 135.661 71.4201C135.603 73.4779 135.292 76.3975 134.996 79.2219C134.737 81.5781 134.502 83.8096 134.417 85.4743Z" fill="#D3E6FD"/>
<path d="M113.748 112.163C107.132 103.363 104.371 91.7864 102.727 80.1586C122.602 76.7039 141.728 85.8509 149.658 102.595C151.038 105.516 152.116 108.717 152.004 112.209C151.688 121.776 144.429 125.338 136.863 124.665C127.235 123.813 119.279 119.512 113.748 112.163Z" fill="#F2F8FF"/>
<path d="M108.862 84.4593L154.64 125.678" stroke="#EAF3FE" stroke-linecap="round"/>
<path d="M107.048 95.5783C111.894 96.4276 116.76 97.2165 121.647 97.9451" stroke="#EAF3FE" stroke-linecap="round"/>
<path d="M131.628 104.385C131.608 98.2968 131.12 92.2803 130.161 86.4124" stroke="#EAF3FE" stroke-linecap="round"/>
<path d="M128.837 130.648C126.334 132.381 123.283 134.068 120.818 132.815C120.457 132.633 120.104 132.359 119.997 131.92C119.815 131.142 120.489 130.363 120.713 129.544C121.175 127.83 119.414 126.521 117.863 126.777C116.312 127.034 114.934 128.196 113.46 128.909C112.173 129.53 110.787 129.811 109.457 129.719C107.714 129.6 105.778 128.191 106.289 126.241C106.663 124.822 108.078 124.102 109.243 123.371C110.409 122.64 111.64 121.199 111.181 119.906C110.785 118.795 109.449 118.716 108.351 118.702C105.666 118.669 103.033 118.132 100.595 117.114C98.8951 116.401 97.2253 115.4 96.2579 113.697C95.2905 111.994 95.2247 109.448 96.5291 107.773C97.7485 106.211 99.7406 105.832 101.472 105.997C106.182 106.447 109.908 109.91 114.08 112.076C115.066 112.587 116.538 112.854 117.144 111.716C117.573 110.913 117.224 109.979 116.984 109.158C116.394 107.149 116.533 104.809 117.36 102.742C117.501 102.386 117.67 102.026 117.949 101.786C118.58 101.246 119.438 101.58 120.01 102.071C122.668 104.325 123.073 109.057 125.934 110.992C126.316 111.254 126.796 111.451 127.241 111.25C127.569 111.1 127.808 110.766 127.988 110.424C128.727 109.008 128.641 107.335 128.88 105.758C129.112 104.185 129.973 102.363 131.371 102.152C132.422 101.99 133.294 102.831 133.914 103.717C135.81 106.449 136.557 110.085 136.596 113.71C136.633 116.964 136.495 121.295 135.361 124.478C134.302 127.457 131.142 129.053 128.837 130.648Z" fill="#E8F3FF"/>
<path d="M102.051 111.744L135.111 123.777" stroke="#E5EDF7" stroke-linecap="round"/>
<path d="M110.327 126.526C112.317 125.354 114.303 124.174 116.292 123.001" stroke="#E5EDF7" stroke-linecap="round"/>
<path d="M118.848 121.243C119.91 120.693 120.967 120.14 122.029 119.59" stroke="#E5EDF7" stroke-linecap="round"/>
<path d="M122.615 130.025C125.975 127.797 129.358 125.621 132.772 123.5" stroke="#E5EDF7" stroke-linecap="round"/>
<path d="M127.564 120.739C125.357 116.717 123.199 112.663 121.085 108.573" stroke="#E5EDF7" stroke-linecap="round"/>
<path fill-rule="evenodd" clip-rule="evenodd" d="M128.386 65.9761C128.333 65.8071 128.304 65.6275 128.304 65.4414V56.2781C128.304 52.2641 131.668 49 135.804 49H180.804C184.941 49 188.304 52.2641 188.304 56.2781V65.4414C188.304 65.6275 188.276 65.8071 188.222 65.9761C188.276 66.1503 188.304 66.3354 188.304 66.5272V122.572V122.777V131.669C188.304 135.712 184.941 139 180.804 139H135.804C131.668 139 128.304 135.712 128.304 131.669V122.777V122.572V66.5272C128.304 66.3354 128.333 66.1503 128.386 65.9761Z" fill="#9FCBFF"/>
<path fill-rule="evenodd" clip-rule="evenodd" d="M130.913 120.739H185.696V67.2609H130.913V120.739Z" fill="#D7EAFF"/>
<path fill-rule="evenodd" clip-rule="evenodd" d="M130.913 123.348V132.017C130.913 134.428 132.669 136.391 134.826 136.391H181.783C183.94 136.391 185.696 134.428 185.696 132.017V123.348H130.913Z" fill="#D7EAFF"/>
<path fill-rule="evenodd" clip-rule="evenodd" d="M130.913 64.6522H185.696V55.9305C185.696 53.548 183.94 51.6087 181.783 51.6087H134.826C132.669 51.6087 130.913 53.548 130.913 55.9305V64.6522Z" fill="#D7EAFF"/>
<path d="M166.13 129.87C166.13 131.31 164.962 132.478 163.522 132.478H153.087C151.646 132.478 150.478 131.31 150.478 129.87C150.478 128.429 151.646 127.261 153.087 127.261H163.522C164.962 127.261 166.13 128.429 166.13 129.87Z" fill="#A3CEFF"/>
<path fill-rule="evenodd" clip-rule="evenodd" d="M159.609 59.4348C160.329 59.4348 160.913 58.8508 160.913 58.1304C160.913 57.4101 160.329 56.8261 159.609 56.8261H150.478C149.758 56.8261 149.174 57.4101 149.174 58.1304C149.174 58.8508 149.758 59.4348 150.478 59.4348H159.609ZM167.435 59.4348C168.155 59.4348 168.739 58.8508 168.739 58.1304C168.739 57.4101 168.155 56.8261 167.435 56.8261H164.826C164.106 56.8261 163.522 57.4101 163.522 58.1304C163.522 58.8508 164.106 59.4348 164.826 59.4348H167.435Z" fill="#A3CEFF"/>
<path opacity="0.5" d="M71 68C71 65.7909 72.7909 64 75 64H145C147.209 64 149 65.7909 149 68V104C149 106.209 147.209 108 145 108H75C72.7909 108 71 106.209 71 104V68Z" fill="#E8EFFB"/>
<path d="M72 67C72 64.7909 73.7909 63 76 63H146C148.209 63 150 64.7909 150 67V103C150 105.209 148.209 107 146 107H76C73.7909 107 72 105.209 72 103V67Z" fill="white"/>
<path fill-rule="evenodd" clip-rule="evenodd" d="M118.736 81.3588C118.963 81.2471 119.135 81.0544 119.305 80.8484C119.512 80.5978 119.715 80.3596 119.966 80.1558C120.267 79.9119 120.67 79.6786 121.177 79.6047C121.077 80.1748 121.025 80.7607 121.024 81.3588H118.736ZM120.442 75.0743L120.443 75.0745L120.443 75.0742C120.696 75.0893 120.942 75.007 121.193 74.9126C121.5 74.7976 121.797 74.6916 122.117 74.639C122.504 74.5762 122.974 74.5733 123.452 74.7621C122.694 75.6581 122.086 76.6828 121.668 77.7986C121.266 77.4845 121.035 77.0832 120.898 76.7232C120.784 76.4227 120.728 76.1162 120.676 75.7969C120.633 75.5347 120.583 75.2832 120.442 75.0743ZM125.105 70.4735L125.105 70.4737V70.4734C125.316 70.6117 125.571 70.6618 125.837 70.704C126.161 70.7557 126.471 70.81 126.775 70.923C127.142 71.0591 127.55 71.2884 127.869 71.6882C126.738 72.0986 125.698 72.6973 124.789 73.4449C124.597 72.9722 124.6 72.5078 124.664 72.1261C124.717 71.8095 124.824 71.5169 124.941 71.2145C125.037 70.9665 125.12 70.7236 125.105 70.4735ZM131.473 68.7895V68.7898L131.473 68.7895C131.586 69.0137 131.782 69.1829 131.991 69.3503C132.245 69.5549 132.486 69.7551 132.692 70.0032C132.941 70.3024 133.179 70.7031 133.252 71.2077C132.674 71.1099 132.08 71.0582 131.473 71.0582C130.867 71.0582 130.272 71.1099 129.694 71.2078C129.767 70.7031 130.005 70.3024 130.254 70.0032C130.46 69.7551 130.702 69.5549 130.956 69.3503C131.164 69.1829 131.36 69.0137 131.473 68.7895ZM137.841 70.4734V70.4737L137.842 70.4735C137.826 70.7234 137.91 70.9664 138.006 71.2145C138.122 71.5169 138.23 71.8095 138.283 72.1261C138.346 72.5077 138.349 72.9721 138.157 73.4448C137.248 72.6972 136.208 72.0987 135.077 71.6881C135.396 71.2884 135.804 71.0591 136.171 70.923C136.475 70.8099 136.786 70.7556 137.109 70.7039C137.375 70.6618 137.63 70.6117 137.841 70.4734ZM142.504 75.074L142.503 75.0743H142.504C142.364 75.2831 142.313 75.5347 142.27 75.7969C142.218 76.1161 142.163 76.4227 142.048 76.723C141.911 77.0832 141.68 77.4843 141.278 77.7984C140.861 76.6827 140.253 75.658 139.494 74.762C139.973 74.5733 140.442 74.576 140.829 74.6389C141.15 74.6914 141.446 74.7975 141.753 74.9124C142.004 75.007 142.25 75.0893 142.504 75.074ZM141.769 79.6046C142.276 79.6786 142.679 79.9118 142.98 80.1558C143.232 80.3595 143.435 80.5976 143.642 80.8484C143.811 81.0543 143.983 81.2471 144.21 81.3588H141.922C141.922 80.7607 141.869 80.1748 141.769 79.6046ZM134.51 72.3255C138.356 73.579 141.135 77.1479 141.151 81.3591H139.248C139.374 77.6806 137.747 74.3604 134.51 72.3255Z" fill="#FAB401"/>
<path fill-rule="evenodd" clip-rule="evenodd" d="M134.898 81.3581H135.886C135.934 80.2977 135.842 79.0414 135.495 77.9443C135.426 77.7279 135.347 77.5177 135.258 77.3171C135.048 76.8431 134.765 76.4139 134.427 76.0173C134.052 75.5768 133.604 75.1806 133.1 74.8686C132.951 74.7764 132.797 74.6915 132.638 74.6147V74.6145C132.48 74.5382 132.316 74.4701 132.148 74.4111L132.147 74.4108C130.221 73.7361 128.274 74.216 126.64 75.0931C126.321 75.264 126.015 75.45 125.723 75.6453C125.431 75.8406 125.153 76.0457 124.892 76.2548H124.892L124.891 76.2553C124.581 76.5036 124.193 76.8432 123.809 77.2448C123.733 77.3238 123.659 77.4043 123.586 77.4858C123.391 77.7031 123.092 78.0079 123.181 78.3232C123.251 78.5732 123.578 78.4994 123.692 78.4133C123.867 78.3209 124.059 78.1742 124.223 78.037C124.445 77.8512 124.655 77.6513 124.875 77.4629C125.766 76.7011 126.694 76.1136 127.609 75.7159C127.808 75.6293 128.007 75.5513 128.206 75.4825C128.404 75.4137 128.602 75.3542 128.797 75.3042L128.798 75.3039C130.499 74.8678 132.348 75.1504 133.532 76.5195C134.672 77.8384 134.88 79.6039 134.898 81.3581ZM122.627 79.8673C122.733 79.7695 122.841 79.6418 122.954 79.5003C123.112 79.3027 123.128 79.1114 123.065 78.9732C123.042 78.9217 123.008 78.8774 122.966 78.8429C122.925 78.8088 122.876 78.7845 122.823 78.7726C122.695 78.7436 122.541 78.789 122.41 78.9459C122.263 79.1234 122.058 79.4265 122.017 79.6948C122.009 79.7451 122.007 79.794 122.012 79.8398C122.017 79.8845 122.029 79.9269 122.05 79.9656L122.05 79.9661L122.05 79.966C122.083 80.029 122.139 80.0622 122.214 80.0649C122.23 80.0655 122.247 80.0648 122.264 80.0628C122.282 80.061 122.301 80.0576 122.321 80.0529V80.053L122.322 80.0528C122.423 80.029 122.524 79.9621 122.627 79.8673ZM132.885 81.3581H133.866C133.913 80.2153 133.726 79.0349 133.188 78.0135C132.698 77.0844 131.888 76.4528 130.84 76.3001C129.31 76.0774 127.766 76.7165 126.461 77.6311C125.04 78.6268 123.867 79.979 122.842 81.3581L124.137 81.3564C125.304 79.7248 127.987 77.2479 129.96 77.2317C130.589 77.2265 131.229 77.3723 131.702 77.7885C132.044 78.0901 132.46 78.6759 132.439 79.1513C132.427 79.4333 132.174 79.5196 131.931 79.4324C131.742 79.3645 131.608 79.1941 131.476 79.0151C131.047 78.4332 130.377 78.1485 129.642 78.2477C128.766 78.366 127.68 79.0374 126.979 79.6481C126.375 80.1748 125.82 80.7513 125.297 81.3581H126.69C127.201 80.75 127.74 80.2313 128.433 79.8052C128.652 79.6704 128.922 79.5277 129.206 79.4315C129.922 79.1885 130.635 79.2501 130.951 80.1301C131.076 80.476 131.094 80.7794 131.058 81.3356L131.058 81.3581H132.005L132.007 81.3296C132.008 81.0251 132.001 80.82 132.029 80.5181C132.053 80.258 132.135 79.9884 132.38 79.9565C132.9 79.8489 132.875 80.9911 132.885 81.3581ZM126.208 84.3119H125.439L125.248 84.9738H124.635L125.446 82.4393H126.224L127.058 84.9738H126.418L126.208 84.3119ZM125.526 83.8832H126.117C125.962 83.3881 125.862 83.0484 125.816 82.8642H125.808L125.686 83.3455L125.526 83.8832ZM123.381 84.3119H122.612L122.421 84.9738H121.808L122.619 82.4393H123.396L124.231 84.9738H123.591L123.381 84.3119ZM122.699 83.8832H123.29C123.135 83.3881 123.034 83.0484 122.989 82.8642H122.981L122.859 83.3455L122.699 83.8832ZM127.645 84.9625V82.473C127.899 82.4355 128.171 82.4168 128.46 82.4168C129.008 82.4168 129.401 82.5294 129.639 82.7558C129.877 82.982 129.996 83.2777 129.996 83.6425C129.996 84.0737 129.861 84.4079 129.589 84.6448C129.318 84.8817 128.9 85.0001 128.334 85.0001C128.073 85.0001 127.843 84.9876 127.645 84.9625ZM128.235 82.8868V84.5375C128.268 84.5451 128.34 84.5489 128.449 84.5489C128.742 84.5489 128.97 84.4724 129.13 84.32C129.291 84.1678 129.371 83.9497 129.371 83.6652C129.371 83.4044 129.298 83.2058 129.151 83.0691C129.005 82.9325 128.793 82.8642 128.517 82.8642C128.402 82.8642 128.308 82.8718 128.235 82.8868ZM130.628 82.4393H131.219V83.4131H132.229V82.4393H132.819V84.9738H132.229V83.9171H131.219V84.9738H130.628V82.4393ZM134.961 84.3119H134.191L134 84.9738H133.387L134.198 82.4393H134.976L135.81 84.9738H135.17L134.961 84.3119ZM134.279 83.8832H134.869C134.714 83.3881 134.614 83.0484 134.568 82.8642H134.56L134.439 83.3455L134.279 83.8832ZM137.788 84.3119H137.018L136.827 84.9738H136.214L137.026 82.4393H137.803L138.637 84.9738H137.997L137.788 84.3119ZM137.106 83.8832H137.696C137.541 83.3881 137.441 83.0484 137.395 82.8642H137.388L137.266 83.3455L137.106 83.8832ZM139.224 84.9738V82.473C139.44 82.4355 139.705 82.4168 140.02 82.4168C140.409 82.4168 140.689 82.48 140.859 82.6066C141.029 82.7332 141.114 82.9143 141.114 83.15C141.114 83.2903 141.072 83.4169 140.986 83.5303C140.9 83.6438 140.789 83.7241 140.653 83.7704V83.7855C140.813 83.8444 140.929 83.9998 141 84.2517C141.131 84.7056 141.202 84.9462 141.213 84.9738H140.611C140.56 84.8799 140.499 84.683 140.428 84.3834C140.393 84.233 140.344 84.1277 140.283 84.0676C140.222 84.0073 140.125 83.9772 139.99 83.9772H139.807V84.9738H139.224ZM139.807 82.8642V83.5599H140.051C140.198 83.5599 140.314 83.5266 140.4 83.4607C140.485 83.395 140.527 83.3067 140.527 83.1951C140.527 83.0835 140.489 82.997 140.412 82.9362C140.335 82.8754 140.226 82.8453 140.085 82.8453C139.947 82.8453 139.854 82.8517 139.807 82.8642ZM129.35 81.3605L130.136 81.3581C130.239 80.7028 130.037 80.1984 129.366 80.3186C128.799 80.4201 128.191 80.9751 127.824 81.3581L128.861 81.3536C128.976 81.2787 129.202 81.1933 129.295 81.2569C129.33 81.2807 129.348 81.3145 129.35 81.3605ZM137.371 81.3586L137.378 81.3583H137.382C137.485 81.364 137.665 81.3169 137.769 81.1445C137.789 81.11 137.807 81.0706 137.82 81.0259C137.834 80.9804 137.844 80.9287 137.847 80.8708H137.848L137.848 80.8588C137.927 78.1482 137.086 75.9043 135.657 74.3797C135.38 74.0838 135.08 73.8146 134.76 73.574C134.44 73.3338 134.101 73.1225 133.745 72.9426V72.9427L133.739 72.9398L133.739 72.9397C132.538 72.3342 131.177 72.1017 129.841 72.2135C129.58 72.2353 129.321 72.27 129.065 72.3175C128.808 72.3649 128.553 72.4255 128.303 72.4985L128.299 72.4996C126.925 72.9008 125.646 73.6971 124.604 74.7421C124.401 74.9457 124.207 75.1585 124.023 75.3792C123.932 75.4889 123.843 75.6006 123.757 75.7141C124.488 75.0918 125.272 74.5459 126.092 74.1122C126.277 74.0145 126.463 73.9228 126.649 73.8377C126.836 73.7525 127.025 73.673 127.216 73.5998L127.216 73.5995L127.217 73.5993C127.941 73.3214 128.656 73.1441 129.37 73.0649C130.085 72.9857 130.8 73.0046 131.526 73.1185C132.042 73.1996 132.547 73.3331 133.001 73.5199C133.089 73.556 133.176 73.5946 133.261 73.6352C133.345 73.6752 133.427 73.7181 133.508 73.763H133.508L133.509 73.7636V73.7637C135.109 74.6281 136.22 76.4017 136.71 78.4043C136.805 78.7948 136.877 79.1938 136.924 79.5956C136.971 79.9975 136.994 80.4035 136.991 80.809V80.8092L136.991 80.8324C136.999 81.0494 137.074 81.2307 137.203 81.3124C137.227 81.3276 137.253 81.3394 137.281 81.3471H137.281C137.31 81.355 137.34 81.359 137.371 81.3586Z" fill="#D32828"/>
<rect x="78.9469" y="94.2632" width="27.7895" height="2.31579" rx="1.15789" fill="#EAF1F9"/>
<rect x="78.9469" y="88.4737" width="27.7895" height="2.31579" rx="1.15789" fill="#EAF1F9"/>
<rect x="78.9469" y="82.6842" width="34.7368" height="2.31579" rx="1.15789" fill="#EAF1F9"/>
<path d="M79.156 75.7368C79.1029 75.7368 79.0531 75.719 79.0067 75.6834C78.9669 75.6478 78.9469 75.6032 78.9469 75.5498C78.9469 75.4963 78.9702 75.4429 79.0166 75.3895L80.7489 73.3676L79.1261 71.4526C79.0797 71.4051 79.0565 71.3517 79.0565 71.2923C79.0565 71.2389 79.0764 71.1943 79.1162 71.1587C79.156 71.1231 79.2058 71.1053 79.2655 71.1053H79.7733C79.8728 71.1053 79.9591 71.1528 80.0321 71.2478L81.3562 72.7887L82.6803 71.2567C82.7201 71.2092 82.7566 71.1735 82.7898 71.1498C82.8296 71.1201 82.8794 71.1053 82.9391 71.1053H83.427C83.4867 71.1053 83.5365 71.1231 83.5763 71.1587C83.6161 71.1943 83.636 71.2389 83.636 71.2923C83.636 71.3517 83.6128 71.4051 83.5663 71.4526L81.9237 73.3854L83.6559 75.3895C83.7024 75.4429 83.7256 75.4963 83.7256 75.5498C83.7256 75.6032 83.7057 75.6478 83.6659 75.6834C83.6261 75.719 83.5763 75.7368 83.5166 75.7368H82.9889C82.8894 75.7368 82.8031 75.6923 82.7301 75.6032L81.3363 73.9733L79.9226 75.6032C79.8828 75.6448 79.843 75.6775 79.8031 75.7012C79.7699 75.725 79.7235 75.7368 79.6637 75.7368H79.156Z" fill="#94C5FF"/>
<path d="M86.0543 75.7368C86.0012 75.7368 85.9515 75.719 85.905 75.6834C85.8652 75.6478 85.8453 75.6032 85.8453 75.5498C85.8453 75.4963 85.8685 75.4429 85.915 75.3895L87.6472 73.3676L86.0245 71.4526C85.978 71.4051 85.9548 71.3517 85.9548 71.2923C85.9548 71.2389 85.9747 71.1943 86.0145 71.1587C86.0543 71.1231 86.1041 71.1053 86.1639 71.1053H86.6716C86.7711 71.1053 86.8574 71.1528 86.9304 71.2478L88.2545 72.7887L89.5786 71.2567C89.6185 71.2092 89.655 71.1735 89.6881 71.1498C89.728 71.1201 89.7777 71.1053 89.8375 71.1053H90.3253C90.385 71.1053 90.4348 71.1231 90.4746 71.1587C90.5145 71.1943 90.5344 71.2389 90.5344 71.2923C90.5344 71.3517 90.5111 71.4051 90.4647 71.4526L88.822 73.3854L90.5543 75.3895C90.6007 75.4429 90.624 75.4963 90.624 75.5498C90.624 75.6032 90.6041 75.6478 90.5642 75.6834C90.5244 75.719 90.4746 75.7368 90.4149 75.7368H89.8873C89.7877 75.7368 89.7014 75.6923 89.6284 75.6032L88.2346 73.9733L86.8209 75.6032C86.7811 75.6448 86.7413 75.6775 86.7015 75.7012C86.6683 75.725 86.6218 75.7368 86.5621 75.7368H86.0543Z" fill="#94C5FF"/>
<path d="M92.9527 75.7368C92.8996 75.7368 92.8498 75.719 92.8033 75.6834C92.7635 75.6478 92.7436 75.6032 92.7436 75.5498C92.7436 75.4963 92.7668 75.4429 92.8133 75.3895L94.5456 73.3676L92.9228 71.4526C92.8763 71.4051 92.8531 71.3517 92.8531 71.2923C92.8531 71.2389 92.873 71.1943 92.9129 71.1587C92.9527 71.1231 93.0025 71.1053 93.0622 71.1053H93.5699C93.6695 71.1053 93.7558 71.1528 93.8288 71.2478L95.1529 72.7887L96.477 71.2567C96.5168 71.2092 96.5533 71.1735 96.5865 71.1498C96.6263 71.1201 96.6761 71.1053 96.7358 71.1053H97.2236C97.2834 71.1053 97.3331 71.1231 97.373 71.1587C97.4128 71.1943 97.4327 71.2389 97.4327 71.2923C97.4327 71.3517 97.4095 71.4051 97.363 71.4526L95.7203 73.3854L97.4526 75.3895C97.4991 75.4429 97.5223 75.4963 97.5223 75.5498C97.5223 75.6032 97.5024 75.6478 97.4626 75.6834C97.4227 75.719 97.373 75.7368 97.3132 75.7368H96.7856C96.686 75.7368 96.5997 75.6923 96.5267 75.6032L95.133 73.9733L93.7193 75.6032C93.6794 75.6448 93.6396 75.6775 93.5998 75.7012C93.5666 75.725 93.5201 75.7368 93.4604 75.7368H92.9527Z" fill="#94C5FF"/>
<path d="M99.851 75.7368C99.7979 75.7368 99.7481 75.719 99.7017 75.6834C99.6618 75.6478 99.6419 75.6032 99.6419 75.5498C99.6419 75.4963 99.6652 75.4429 99.7116 75.3895L101.444 73.3676L99.8211 71.4526C99.7747 71.4051 99.7514 71.3517 99.7514 71.2923C99.7514 71.2389 99.7714 71.1943 99.8112 71.1587C99.851 71.1231 99.9008 71.1053 99.9605 71.1053H100.468C100.568 71.1053 100.654 71.1528 100.727 71.2478L102.051 72.7887L103.375 71.2567C103.415 71.2092 103.452 71.1735 103.485 71.1498C103.525 71.1201 103.574 71.1053 103.634 71.1053H104.122C104.182 71.1053 104.231 71.1231 104.271 71.1587C104.311 71.1943 104.331 71.2389 104.331 71.2923C104.331 71.3517 104.308 71.4051 104.261 71.4526L102.619 73.3854L104.351 75.3895C104.397 75.4429 104.421 75.4963 104.421 75.5498C104.421 75.6032 104.401 75.6478 104.361 75.6834C104.321 75.719 104.271 75.7368 104.212 75.7368H103.684C103.584 75.7368 103.498 75.6923 103.425 75.6032L102.031 73.9733L100.618 75.6032C100.578 75.6448 100.538 75.6775 100.498 75.7012C100.465 75.725 100.418 75.7368 100.359 75.7368H99.851Z" fill="#94C5FF"/>
<path d="M190.467 85.6015C196.182 82.2505 201.429 78.3014 205.822 73.1478C206.968 71.7331 205.709 69.7621 204.02 69.8587C200.003 70.1192 197.223 72.9191 194.507 75.5505C192.148 77.7399 189.967 80.0724 187.802 82.565C181.927 85.9329 175.488 88.5511 169.2 91.0725C166.796 92.0533 168.24 95.7845 170.644 94.8037C174.527 93.2631 178.401 91.6424 182.179 89.8702C178.809 94.7544 175.962 99.9883 173.628 105.492C172.583 107.867 176.234 109.505 177.279 107.13C180.072 100.608 183.627 94.4099 187.961 88.6962C188.74 87.6436 189.599 86.5826 190.467 85.6015Z" fill="#3792FC"/>
<path d="M225.764 82.7815C223.709 83.2402 221.064 84.2462 218.816 84.4017C218.79 84.1616 218.685 83.93 218.571 83.6184C218.15 82.6919 217.026 82.0011 215.948 82.5189C215.333 82.8262 210.894 85.2342 210.419 84.5562C209.846 83.7265 208.436 83.3894 207.623 84.122C205.399 86.0545 203.171 87.1785 200.484 87.7844C200.674 87.2791 200.855 86.6938 201.125 86.1801C201.862 84.7275 200.106 82.6469 198.573 83.4552C194.964 85.2906 191.54 87.3493 188.23 89.7196C186.124 91.2352 188.486 94.4654 190.592 92.9498C192.403 91.7078 194.214 90.4659 196.122 89.3755C196.138 89.5355 196.067 89.6239 196.084 89.784C196.058 91.081 196.824 92.2138 198.273 92.1425C202.21 91.8904 205.718 90.6319 208.797 88.3669C210.763 89.3736 213.24 88.3044 215.476 87.2604C215.783 87.8753 216.322 88.3849 216.979 88.4776C219.99 88.6465 223.266 87.4932 226.193 86.8621C228.639 86.2813 228.299 82.2724 225.764 82.7815Z" fill="#3792FC"/>
</svg>
