<svg width="66" height="66" viewBox="0 0 66 66" fill="none" xmlns="http://www.w3.org/2000/svg">
<path fill-rule="evenodd" clip-rule="evenodd" d="M32.04 29.275L18.268 53.6226C17.7841 54.478 18.3889 55.5471 19.3566 55.5471H46.901C47.8687 55.5471 48.4734 54.4779 47.9897 53.6226L34.2174 29.275C33.7335 28.4197 32.5239 28.4197 32.04 29.275Z" fill="#675AF6"/>
<path d="M33.1268 45.2209C32.3837 45.2209 31.7702 44.6281 31.7297 43.8708L31.4206 38.1038C31.367 37.1045 32.1464 36.2644 33.1268 36.2644C34.1071 36.2644 34.8865 37.1046 34.8329 38.1038L34.5238 43.8708C34.4833 44.6281 33.8698 45.2209 33.1268 45.2209Z" fill="white"/>
<ellipse cx="33.1308" cy="50.2339" rx="1.77147" ry="1.80813" fill="white"/>
<path fill-rule="evenodd" clip-rule="evenodd" d="M33.1231 10.2566C27.708 10.2566 22.628 11.7206 18.2422 14.282L22.9538 22.6116C25.9555 20.8644 29.4271 19.8654 33.123 19.8654C36.8189 19.8654 40.2904 20.8644 43.2922 22.6116L48.0039 14.2821C43.6183 11.7208 38.5382 10.2566 33.1231 10.2566Z" fill="#9D95F8"/>
<path fill-rule="evenodd" clip-rule="evenodd" d="M48.0045 14.282L43.293 22.6116C49.3369 26.1296 53.4762 32.6812 53.7066 40.2207C53.7178 40.5902 54.0129 40.8844 54.3751 40.8844H62.4524C62.8291 40.8844 63.1315 40.5674 63.1229 40.1831C62.8788 29.0891 56.8552 19.4509 48.0045 14.282V14.282Z" fill="#8279F8"/>
<ellipse cx="8.11973" cy="48.995" rx="2.99863" ry="3.06066" fill="#C6C2F9"/>
<ellipse cx="59.1353" cy="47.974" rx="2.99863" ry="3.06066" fill="#8279F8"/>
<path fill-rule="evenodd" clip-rule="evenodd" d="M18.2437 14.282C16.4695 15.3181 14.809 16.5339 13.2859 17.9048L14.008 20.6554C14.1223 21.0906 13.7321 21.4889 13.3056 21.3722L10.6109 20.6353C6.08766 25.8706 3.28974 32.696 3.12517 40.1847C3.11673 40.5683 3.41962 40.8844 3.79564 40.8844H11.8732C12.2354 40.8844 12.5304 40.5902 12.5416 40.2207C12.772 32.6812 16.9113 26.1296 22.9552 22.6116L18.2437 14.282Z" fill="#C6C2F9"/>
<path fill-rule="evenodd" clip-rule="evenodd" d="M14.0093 20.6556L12.245 13.9347C12.1307 13.4994 11.5977 13.3537 11.2855 13.6723L6.4652 18.5924C6.15306 18.911 6.29582 19.455 6.72225 19.5716L13.3069 21.3724C13.7333 21.4891 14.1236 21.0908 14.0093 20.6556Z" fill="#675AF6"/>
</svg>
