<svg xmlns="http://www.w3.org/2000/svg" width="65" height="65" viewBox="0 0 65 65">
  <g fill="none" fill-rule="evenodd" transform="translate(11 3)">
    <g transform="translate(3)">
      <g fill-rule="nonzero" transform="translate(2.824 8.567)">
        <path fill="#68AEFF" d="M0,13.4861476 C3.41647492,10.5574666 6.86303437,8.0406599 10.1497697,4.81127428 C11.6464753,3.36242464 12.7013143,1.73497467 13.853928,0 C16.4054726,1.27207176 18.5076294,3.7159804 21.0648148,5.09193195 C19.9422856,7.24060331 16.8811843,9.21249678 15.0836334,10.889153 C13.1864274,12.6769788 11.0598269,14.273447 8.82040938,15.7751478 C8.4105076,16.0102442 7.31806295,17.1219401 6.88559777,17.049042 C6.2481817,17.0927809 4.85113115,15.5327616 4.39610257,15.1500466 C3.05169994,14.3117185 1.61704372,13.6847949 0.114697287,13.5827376"/>
        <path fill="#94C5FF" d="M4.10647964,11.8773449 C5.96839,10.2932011 7.90886969,8.79912557 9.75068091,7.19378913 C11.5431579,5.63083781 12.9537514,3.96545578 14.2583677,2.00867605 C14.1012291,2.04752908 13.9459176,2.08814815 13.7887789,2.12700118 C15.7109867,3.1301157 17.1581241,4.77253912 19.0456151,5.82686899 C19.0054169,5.67498898 18.9633914,5.52487501 18.9231932,5.37299499 C18.1521174,6.73991513 16.789031,7.70947476 15.5776015,8.69492881 C14.1067106,9.89230847 12.7491057,11.1726923 11.1959911,12.2800036 C10.6332155,12.6808962 10.0503407,13.0464679 9.51680012,13.4844474 C9.25368423,13.6999051 9.00884028,13.9913028 8.66167348,13.8041019 C8.32912423,13.6239651 8.04590921,13.3131409 7.77548455,13.0552981 C6.75225609,12.0786743 5.37455206,11.5206035 3.94751379,11.3775537 C3.50898731,11.3334026 3.5126417,11.9956701 3.94751379,12.0398212 C4.9287168,12.1369538 6.16938131,12.4972273 6.91304913,13.1594948 C7.37715633,13.5727498 7.7901021,14.0248577 8.31450668,14.3727689 C8.69090858,14.6235475 9.06731048,14.5811624 9.44188518,14.3674708 C10.0832302,14.0018991 10.6679321,13.4544246 11.2745604,13.0341055 C12.9080716,11.9038356 14.3405914,10.591663 15.855335,9.32717353 C17.1690872,8.23045853 18.6637317,7.20438541 19.5133767,5.70147968 C19.6029092,5.54430152 19.5554022,5.34120615 19.3909548,5.24760568 C17.5034637,4.1932758 16.0581535,2.55085239 14.1341185,1.54773787 C13.9641895,1.45943553 13.7686798,1.51065089 13.6645298,1.66606299 C12.3288512,3.67229203 10.8451699,5.33944011 9.01249467,6.93771236 C7.25656154,8.47064088 5.39830557,9.89054242 3.62227332,11.4005123 C3.28972407,11.69191 3.77575759,12.1581464 4.10647964,11.8773449 L4.10647964,11.8773449 Z"/>
        <path fill="#94C5FF" d="M12.4209515 7.19864151C11.6416493 6.7992342 10.3131583 7.07783313 10.0901616 8.012249 10.0984647 8.02950735 10.1020232 8.04923116 10.0949063 8.07388594 10.0806724 8.12196274 10.0699971 8.17003955 10.0605078 8.21811635 10.0581355 8.25633125 10.0569494 8.29577889 10.0593217 8.33645926 10.0605078 8.36357951 10.0510186 8.38453607 10.0367848 8.39932893 9.9810356 9.05021492 10.3214614 9.63453303 10.9536807 9.88354623 11.5052417 10.101741 12.2667517 10.125163 12.6937666 9.62220565 13.2026261 9.0206292 13.1824615 7.58941966 12.4209515 7.19864151zM17.0524691 6.52006173C17.7211934 6.52006173 17.7211934 5.51697531 17.0524691 5.51697531 16.3837449 5.51697531 16.3837449 6.52006173 17.0524691 6.52006173L17.0524691 6.52006173zM14.5447531 4.51388889C15.2134774 4.51388889 15.2134774 3.51080247 14.5447531 3.51080247 13.8760288 3.51080247 13.8760288 4.51388889 14.5447531 4.51388889L14.5447531 4.51388889z"/>
      </g>
      <g fill-rule="nonzero" transform="translate(4.329 8.065)">
        <path fill="#68AEFF" d="M0,14.1950593 C2.86928508,9.91646548 5.10095125,5.00980425 5.52665564,0 C7.22759784,0.939338298 8.92666469,2.19178936 10.520712,3.33925556 C12.8592731,4.79983452 13.8157014,4.38357872 12.3266737,7.09660875 C10.413817,10.645834 9.03168428,14.7163 6.90691304,18.0555556 C5.41976071,16.0718941 2.44358069,14.6113151 0.105019585,14.2982024"/>
        <path fill="#94C5FF" d="M2.64363277,12.5188158 C4.71992152,9.29207606 6.29596453,5.71468271 6.65277062,1.84477522 C6.48422905,1.94288556 6.31568748,2.04099589 6.1471459,2.13910622 C7.48113453,2.91853829 8.64658157,3.93416189 9.95188227,4.74993113 C10.3337903,4.98975638 10.7443863,5.17870961 11.1280873,5.416718 C11.6014381,5.70923214 11.2195301,6.29062669 11.0384375,6.66489943 C9.69010493,9.4374247 8.61430766,12.3916358 7.0167487,15.0315304 C7.19246226,15.0079112 7.36817581,14.986109 7.54388937,14.9624898 C6.3461684,13.4054425 4.42587026,12.3989032 2.51812309,12.0954879 C2.09497616,12.0282642 1.91209063,12.6841499 2.33882355,12.7531905 C4.14974896,13.0420709 5.93019345,13.9668516 7.06695257,15.445774 C7.20501322,15.625643 7.4918925,15.5457012 7.59409324,15.3767334 C8.53541586,13.8196861 9.25978602,12.1518105 9.98415619,10.4857517 C10.6099116,9.04680023 11.5082023,7.62783416 11.9779671,6.1343769 C12.2254005,5.34404368 11.653435,4.92071577 11.0438165,4.58823077 C9.43908557,3.71250522 8.06206505,2.47522494 6.48243605,1.55226109 C6.24576065,1.41417988 6.00012028,1.59586568 5.97681133,1.84659208 C5.63255621,5.59113637 4.06727117,9.05588452 2.06090925,12.1754297 C1.82602684,12.5442518 2.40875037,12.8858211 2.64363277,12.5188158 L2.64363277,12.5188158 Z"/>
        <path fill="#94C5FF" d="M7.54741752 7.06915378C7.51784595 7.11858139 7.62233217 7.09006546 7.54741752 7.06915378 5.68046554 6.55206485 3.96925717 10.4112212 5.79480895 10.9511229 7.03090071 11.3161268 8.62382279 10.4264297 8.94911009 9.23066154 9.26848308 8.06721145 8.57847971 7.28207275 7.54741752 7.06915378zM10.0308642 6.52006173C10.6995885 6.52006173 10.6995885 5.51697531 10.0308642 5.51697531 9.36213992 5.51697531 9.36213992 6.52006173 10.0308642 6.52006173L10.0308642 6.52006173zM7.52314815 5.0154321C8.19187243 5.0154321 8.19187243 4.01234568 7.52314815 4.01234568 6.85442387 4.01234568 6.85442387 5.0154321 7.52314815 5.0154321L7.52314815 5.0154321z"/>
      </g>
      <g transform="translate(.818 20.102)">
        <path fill="#68AEFF" fill-rule="nonzero" d="M12.5385802 5.0154321C12.5385802 5.84719607 11.8959604 6.52006173 11.1015849 6.52006173L3.94471135 6.52006173C3.15033585 6.52006173 2.50771605 5.84719607 2.50771605 5.0154321L2.50771605 5.0154321C2.50771605 4.18366813 3.15033585 3.51080247 3.94471135 3.51080247L11.1015849 3.51080247C11.8959604 3.51080247 12.5385802 4.18562984 12.5385802 5.0154321L12.5385802 5.0154321zM17.0524691 2.00617284C17.0524691 2.83793681 16.4098493 3.51080247 15.6154738 3.51080247L8.45860024 3.51080247C7.66422474 3.51080247 7.02160494 2.83793681 7.02160494 2.00617284L7.02160494 2.00617284C7.02160494 1.17440887 7.66422474.50154321 8.45860024.50154321L15.6154738.50154321C16.4098493.50154321 17.0524691 1.17440887 17.0524691 2.00617284L17.0524691 2.00617284z"/>
        <path fill="#3A95FF" d="M16.0493827,0.752327178 C16.0493827,1.16878032 14.2526455,1.50462963 12.037037,1.50462963 C9.82142857,1.50462963 8.02469136,1.16878032 8.02469136,0.752327178 C8.02469136,0.335874035 9.82142857,2.47261437e-05 12.037037,2.47261437e-05 C14.2526455,-0.00333376694 16.0493827,0.335874035 16.0493827,0.752327178 Z"/>
        <path fill="#68AEFF" fill-rule="nonzero" d="M10.0308642,3.00925926 C10.0308642,3.84102323 9.3882444,4.51388889 8.5938689,4.51388889 L1.4369953,4.51388889 C0.642619802,4.51388889 0,3.84102323 0,3.00925926 L0,3.00925926 C0,2.17749529 0.642619802,1.50462963 1.4369953,1.50462963 L8.5938689,1.50462963 C9.38637087,1.50462963 10.0308642,2.17749529 10.0308642,3.00925926 L10.0308642,3.00925926 Z"/>
        <path fill="#3A95FF" d="M9.02777778,1.7554136 C9.02777778,2.17186674 7.23104056,2.50771605 5.0154321,2.50771605 C2.79982363,2.50771605 1.00308642,2.17186674 1.00308642,1.7554136 C1.00308642,1.33896045 2.79982363,1.00311115 5.0154321,1.00311115 C7.23104056,0.999752653 9.02777778,1.33896045 9.02777778,1.7554136 Z"/>
        <path fill="#68AEFF" fill-rule="nonzero" d="M18.0555556,5.0154321 C18.0555556,5.84719607 17.4129358,6.52006173 16.6185603,6.52006173 L9.46168666,6.52006173 C8.66731116,6.52006173 8.02469136,5.84719607 8.02469136,5.0154321 L8.02469136,5.0154321 C8.02469136,4.18366813 8.66731116,3.51080247 9.46168666,3.51080247 L16.6185603,3.51080247 C17.4110622,3.51080247 18.0555556,4.18562984 18.0555556,5.0154321 L18.0555556,5.0154321 Z"/>
        <path fill="#3A95FF" d="M17.0524691,3.76158644 C17.0524691,4.17803958 15.2557319,4.51388889 13.0401235,4.51388889 C10.824515,4.51388889 9.02777778,4.17803958 9.02777778,3.76158644 C9.02777778,3.34513329 10.824515,3.00928399 13.0401235,3.00928399 C15.2557319,3.00592549 17.0524691,3.34513329 17.0524691,3.76158644 Z"/>
        <path fill="#68AEFF" fill-rule="nonzero" d="M20.1293627,4.01234568 L12.9724891,4.01234568 C12.1781136,4.01234568 11.5354938,3.33948002 11.5354938,2.50771605 C11.5354938,1.67595208 12.1781136,1.00308642 12.9724891,1.00308642 L20.1293627,1.00308642 C20.9218647,1.00308642 21.566358,1.67595208 21.566358,2.50771605 C21.566358,3.33948002 20.9237382,4.01234568 20.1293627,4.01234568 Z"/>
        <path fill="#3A95FF" d="M20.5632716,1.25387039 C20.5632716,1.67032353 18.7665344,2.00617284 16.5509259,2.00617284 C14.3353175,2.00617284 12.5385802,1.67032353 12.5385802,1.25387039 C12.5385802,0.837417245 14.3353175,0.501567936 16.5509259,0.501567936 C18.7665344,0.498209443 20.5632716,0.837417245 20.5632716,1.25387039 Z"/>
      </g>
      <g transform="translate(4.842 .157)">
        <path fill="#94C5FF" fill-rule="nonzero" d="M8.94922055,4.61121498 C8.69760817,5.32102101 7.92693528,5.6910452 7.22488395,5.43665357 L0.895864812,3.15068678 C0.193813482,2.8980741 -0.172168164,2.11710957 0.0794442172,1.40730354 L0.0794442172,1.40730354 C0.329297072,0.697497511 1.10172949,0.327473315 1.80378082,0.58186495 L8.13279995,2.86783174 C8.83309176,3.12044441 9.1990734,3.90140894 8.94922055,4.61121498 L8.94922055,4.61121498 Z"/>
        <path fill="#68AEFF" d="M8.51457077,3.39416451 C8.41114606,3.67815443 6.65467299,3.30546846 4.57928382,2.52752606 C2.50389465,1.74030307 0.905982892,0.878474436 1.00768386,0.593555525 C1.10938482,0.306504582 2.87449986,0.698476284 4.94988903,1.48514761 C7.0252782,2.26999741 8.61799548,3.11249169 8.51457077,3.39416451 Z"/>
      </g>
    </g>
    <rect width="2" height="5" x="1" y="14" fill="#94C5FF" rx="1"/>
    <rect width="2" height="5" x="29" y="15" fill="#94C5FF" rx="1"/>
    <path stroke="#68AEFF" stroke-width="2" d="M15.6264714,35.7454604 L15.6264714,51.9140383 C15.6264714,55.6070363 18.6202378,58.6008026 22.3132357,58.6008026 C26.0062337,58.6008026 29,55.6070363 29,51.9140383 L29,41.3039276 C29,38.1541786 31.553376,35.6008026 34.703125,35.6008026 C37.852874,35.6008026 40.40625,38.1541786 40.40625,41.3039276 L40.40625,45.3512959 L40.40625,45.3512959"/>
    <circle cx="40" cy="44.573" r="3.5" fill="#94C5FF" stroke="#3A95FF"/>
    <path stroke="#68AEFF" stroke-linecap="round" stroke-linejoin="round" stroke-width="2" d="M0,14.5733563 L0,19.2855987 C1.07247011e-15,28.0429817 7.09926164,35.1422434 15.8566447,35.1422434 C24.6140277,35.1422434 31.7132894,28.0429817 31.7132894,19.2855987 L31.7132894,15.2523686 L31.7132894,15.2523686"/>
  </g>
</svg>
