<svg width="66" height="66" viewBox="0 0 66 66" fill="none" xmlns="http://www.w3.org/2000/svg">
<path d="M17.4492 25.4551C20.8657 22.5265 24.3123 20.0097 27.599 16.7803C29.0957 15.3314 30.1505 13.704 31.3031 11.969C33.8547 13.2411 35.9568 15.685 38.514 17.0609C37.3915 19.2096 34.3304 21.1815 32.5329 22.8581C30.6356 24.646 28.509 26.2424 26.2696 27.7441C25.8597 27.9792 24.7673 29.0909 24.3348 29.018C23.6974 29.0618 22.3003 27.5018 21.8453 27.119C20.5009 26.2807 19.0663 25.6538 17.5639 25.5517" fill="#9D95F8"/>
<path d="M21.5566 23.8463C23.4185 22.2622 25.359 20.7681 27.2008 19.1628C28.9933 17.5998 30.4039 15.9345 31.7085 13.9777C31.5514 14.0165 31.3961 14.0572 31.2389 14.096C33.1611 15.0991 34.6083 16.7415 36.4957 17.7959C36.4556 17.644 36.4135 17.4939 36.3733 17.342C35.6023 18.7089 34.2392 19.6785 33.0277 20.6639C31.5568 21.8613 30.1992 23.1417 28.6461 24.249C28.0834 24.6499 27.5005 25.0155 26.9669 25.4535C26.7038 25.6689 26.459 25.9603 26.1118 25.7731C25.7793 25.593 25.496 25.2821 25.2256 25.0243C24.2024 24.0477 22.8247 23.4896 21.3976 23.3466C20.9591 23.3024 20.9628 23.9647 21.3976 24.0088C22.3789 24.106 23.6195 24.4662 24.3632 25.1285C24.8273 25.5418 25.2402 25.9939 25.7646 26.3418C26.141 26.5926 26.5174 26.5502 26.892 26.3365C27.5334 25.9709 28.1181 25.4234 28.7247 25.0031C30.3582 23.8728 31.7907 22.5607 33.3055 21.2962C34.6192 20.1995 36.1139 19.1734 36.9635 17.6705C37.053 17.5133 37.0055 17.3102 36.8411 17.2166C34.9536 16.1623 33.5083 14.5199 31.5843 13.5167C31.4143 13.4284 31.2188 13.4797 31.1147 13.6351C29.779 15.6413 28.2953 17.3084 26.4626 18.9067C24.7067 20.4396 22.8484 21.8595 21.0724 23.3695C20.7399 23.6609 21.2259 24.1272 21.5566 23.8463Z" fill="#C6C2F9"/>
<path d="M29.8706 19.1676C29.0913 18.7682 27.7628 19.0468 27.5398 19.9812C27.5481 19.9984 27.5516 20.0182 27.5445 20.0428C27.5303 20.0909 27.5196 20.139 27.5101 20.1871C27.5077 20.2253 27.5066 20.2647 27.5089 20.3054C27.5101 20.3325 27.5006 20.3535 27.4864 20.3683C27.4306 21.0191 27.7711 21.6035 28.4033 21.8525C28.9548 22.0707 29.7164 22.0941 30.1434 21.5911C30.6522 20.9896 30.6321 19.5584 29.8706 19.1676ZM34.5021 18.489C35.1708 18.489 35.1708 17.4859 34.5021 17.4859C33.8333 17.4859 33.8333 18.489 34.5021 18.489ZM31.9944 16.4828C32.6631 16.4828 32.6631 15.4797 31.9944 15.4797C31.3256 15.4797 31.3256 16.4828 31.9944 16.4828Z" fill="#C6C2F9"/>
<path d="M18.9531 25.6621C21.8224 21.3835 24.0541 16.4768 24.4798 11.467C26.1807 12.4064 27.8798 13.6588 29.4738 14.8063C31.8124 16.2669 32.7688 15.8506 31.2798 18.5636C29.3669 22.1129 27.9848 26.1833 25.86 29.5226C24.3729 27.5389 21.3967 26.0784 19.0581 25.7652" fill="#9D95F8"/>
<path d="M21.5984 23.9859C23.6747 20.7591 25.2507 17.1817 25.6075 13.3118C25.439 13.4099 25.2705 13.508 25.1019 13.6062C26.4359 14.3856 27.6013 15.4012 28.9066 16.217C29.2886 16.4568 29.6992 16.6458 30.0829 16.8838C30.5562 17.1763 30.1743 17.7577 29.9932 18.1319C28.6449 20.9045 27.5691 23.8587 25.9715 26.4986C26.1472 26.475 26.3229 26.4532 26.4987 26.4295C25.3009 24.8725 23.3806 23.866 21.4729 23.5625C21.0497 23.4953 20.8669 24.1512 21.2936 24.2202C23.1045 24.5091 24.885 25.4339 26.0217 26.9128C26.1598 27.0927 26.4467 27.0128 26.5489 26.8438C27.4902 25.2867 28.2146 23.6189 28.9389 21.9528C29.5647 20.5139 30.463 19.0949 30.9327 17.6014C31.1802 16.8111 30.6082 16.3878 29.9986 16.0553C28.3938 15.1796 27.0168 13.9423 25.4372 13.0193C25.2005 12.8812 24.9549 13.0629 24.9316 13.3136C24.5873 17.0582 23.022 20.5229 21.0157 23.6425C20.7808 24.0113 21.3635 24.3529 21.5984 23.9859Z" fill="#C6C2F9"/>
<path d="M26.5007 18.5363C26.4712 18.5857 26.5757 18.5572 26.5007 18.5363C24.6338 18.0192 22.9226 21.8784 24.7481 22.4183C25.9842 22.7833 27.5771 21.8936 27.9024 20.6978C28.2218 19.5344 27.5318 18.7492 26.5007 18.5363ZM28.9842 17.9872C29.6529 17.9872 29.6529 16.9841 28.9842 16.9841C28.3155 16.9841 28.3155 17.9872 28.9842 17.9872ZM26.4765 16.4826C27.1452 16.4826 27.1452 15.4795 26.4765 15.4795C25.8077 15.4795 25.8077 16.4826 26.4765 16.4826Z" fill="#C6C2F9"/>
<path d="M27.9801 28.5193C27.9801 29.351 27.3375 30.0239 26.5431 30.0239H19.3862C18.5918 30.0239 17.9492 29.351 17.9492 28.5193C17.9492 27.6875 18.5918 27.0146 19.3862 27.0146H26.5431C27.3375 27.0146 27.9801 27.6895 27.9801 28.5193ZM32.494 25.51C32.494 26.3418 31.8514 27.0146 31.057 27.0146H23.9001C23.1057 27.0146 22.4631 26.3418 22.4631 25.51C22.4631 24.6782 23.1057 24.0054 23.9001 24.0054H31.057C31.8514 24.0054 32.494 24.6782 32.494 25.51Z" fill="#9D95F8"/>
<path fill-rule="evenodd" clip-rule="evenodd" d="M31.4895 24.2562C31.4895 24.6727 29.6928 25.0085 27.4772 25.0085C25.2616 25.0085 23.4648 24.6727 23.4648 24.2562C23.4648 23.8398 25.2616 23.5039 27.4772 23.5039C29.6928 23.5006 31.4895 23.8398 31.4895 24.2562Z" fill="#675AF6"/>
<path d="M25.4723 26.5132C25.4723 27.3449 24.8297 28.0178 24.0353 28.0178H16.8784C16.084 28.0178 15.4414 27.3449 15.4414 26.5132C15.4414 25.6814 16.084 25.0085 16.8784 25.0085H24.0353C24.8278 25.0085 25.4723 25.6814 25.4723 26.5132Z" fill="#9D95F8"/>
<path fill-rule="evenodd" clip-rule="evenodd" d="M24.47 25.2594C24.47 25.6759 22.6733 26.0117 20.4577 26.0117C18.242 26.0117 16.4453 25.6759 16.4453 25.2594C16.4453 24.843 18.242 24.5071 20.4577 24.5071C22.6733 24.5037 24.47 24.843 24.47 25.2594Z" fill="#675AF6"/>
<path d="M33.4957 28.5193C33.4957 29.351 32.8531 30.0239 32.0587 30.0239H24.9018C24.1075 30.0239 23.4648 29.351 23.4648 28.5193C23.4648 27.6875 24.1075 27.0146 24.9018 27.0146H32.0587C32.8512 27.0146 33.4957 27.6895 33.4957 28.5193Z" fill="#9D95F8"/>
<path fill-rule="evenodd" clip-rule="evenodd" d="M32.4934 27.2655C32.4934 27.682 30.6967 28.0178 28.4811 28.0178C26.2655 28.0178 24.4688 27.682 24.4688 27.2655C24.4688 26.8491 26.2655 26.5132 28.4811 26.5132C30.6967 26.5098 32.4934 26.8491 32.4934 27.2655Z" fill="#675AF6"/>
<path d="M35.5704 27.5163H28.4136C27.6192 27.5163 26.9766 26.8435 26.9766 26.0117C26.9766 25.1799 27.6192 24.5071 28.4136 24.5071H35.5704C36.3629 24.5071 37.0074 25.1799 37.0074 26.0117C37.0074 26.8435 36.3648 27.5163 35.5704 27.5163Z" fill="#9D95F8"/>
<path fill-rule="evenodd" clip-rule="evenodd" d="M36.0052 24.7577C36.0052 25.1742 34.2084 25.51 31.9928 25.51C29.7772 25.51 27.9805 25.1742 27.9805 24.7577C27.9805 24.3412 29.7772 24.0054 31.9928 24.0054C34.2084 24.002 36.0052 24.3412 36.0052 24.7577Z" fill="#675AF6"/>
<path d="M28.4141 8.17022C28.1625 8.88002 27.3918 9.25005 26.6897 8.99566L20.3607 6.70969C19.6587 6.45708 19.2927 5.67611 19.5443 4.96631C19.7941 4.2565 20.5666 3.88648 21.2686 4.14087L27.5976 6.42684C28.2979 6.67945 28.6639 7.46041 28.4141 8.17022Z" fill="#C6C2F9"/>
<path fill-rule="evenodd" clip-rule="evenodd" d="M27.9802 6.95309C27.8768 7.23708 26.1203 6.8644 24.0449 6.08646C21.9696 5.29923 20.3716 4.4374 20.4733 4.15249C20.575 3.86543 22.3402 4.25741 24.4156 5.04408C26.4909 5.82893 28.0837 6.67142 27.9802 6.95309Z" fill="#9D95F8"/>
<path d="M14.625 18.4019C14.625 17.8496 14.1773 17.4019 13.625 17.4019C13.0727 17.4019 12.625 17.8496 12.625 18.4019V21.4019C12.625 21.9541 13.0727 22.4019 13.625 22.4019C14.1773 22.4019 14.625 21.9541 14.625 21.4019V18.4019Z" fill="#C6C2F9"/>
<path d="M42.625 19.4019C42.625 18.8496 42.1773 18.4019 41.625 18.4019C41.0727 18.4019 40.625 18.8496 40.625 19.4019V22.4019C40.625 22.9541 41.0727 23.4019 41.625 23.4019C42.1773 23.4019 42.625 22.9541 42.625 22.4019V19.4019Z" fill="#C6C2F9"/>
<path d="M51.625 51.4749C53.558 51.4749 55.125 49.9079 55.125 47.9749C55.125 46.0419 53.558 44.4749 51.625 44.4749C49.692 44.4749 48.125 46.0419 48.125 47.9749C48.125 49.9079 49.692 51.4749 51.625 51.4749Z" fill="#C6C2F9"/>
<path fill-rule="evenodd" clip-rule="evenodd" d="M51.625 44.9749C49.9681 44.9749 48.625 46.318 48.625 47.9749C48.625 49.6317 49.9681 50.9749 51.625 50.9749C53.2819 50.9749 54.625 49.6317 54.625 47.9749C54.625 46.318 53.2819 44.9749 51.625 44.9749ZM47.625 47.9749C47.625 45.7657 49.4159 43.9749 51.625 43.9749C53.8341 43.9749 55.625 45.7657 55.625 47.9749C55.625 50.184 53.8341 51.9749 51.625 51.9749C49.4159 51.9749 47.625 50.184 47.625 47.9749Z" fill="#675AF6"/>
<path fill-rule="evenodd" clip-rule="evenodd" d="M46.3281 40.0025C43.7307 40.0025 41.625 42.1082 41.625 44.7057V55.3158C41.625 59.5611 38.1835 63.0025 33.9382 63.0025C29.693 63.0025 26.2515 59.5611 26.2515 55.3158V39.1472H28.2515V55.3158C28.2515 58.4565 30.7975 61.0025 33.9382 61.0025C37.0789 61.0025 39.625 58.4565 39.625 55.3158V44.7057C39.625 41.0036 42.6261 38.0025 46.3281 38.0025C50.0302 38.0025 53.0312 41.0036 53.0312 44.7057V48.753H51.0312V44.7057C51.0312 42.1082 48.9256 40.0025 46.3281 40.0025Z" fill="#9D95F8"/>
<path fill-rule="evenodd" clip-rule="evenodd" d="M11.625 16.9751C12.1773 16.9751 12.625 17.4228 12.625 17.9751V22.6873C12.625 30.8924 19.2765 37.544 27.4816 37.544C35.6867 37.544 42.3383 30.8924 42.3383 22.6873V18.6541C42.3383 18.1018 42.786 17.6541 43.3383 17.6541C43.8906 17.6541 44.3383 18.1018 44.3383 18.6541V22.6873C44.3383 31.997 36.7913 39.544 27.4816 39.544C18.172 39.544 10.625 31.997 10.625 22.6873V17.9751C10.625 17.4228 11.0727 16.9751 11.625 16.9751Z" fill="#9D95F8"/>
</svg>
