<svg width="101" height="61" viewBox="0 0 101 61" fill="none" xmlns="http://www.w3.org/2000/svg">
<g clip-path="url(#clip0)">
<path opacity="0.05" d="M57.3731 -11.598C49.1231 -11.598 34.8731 -11.598 31.8731 -3.34796C28.8731 4.90204 53.8167 4.41817 59.6231 10.2246C65.4296 16.0311 74.7918 15.402 83.6231 15.402C92.4545 15.402 90.781 25.1356 97.8731 23.652C104.965 22.1685 98.6231 14.7341 100.873 10.2246C100.873 7.42209 100.873 0.147896 100.873 -11.598C81.1231 -11.598 66.6231 -11.598 57.3731 -11.598Z" fill="#675AF6"/>
<path opacity="0.05" d="M17.9116 60.077C47.3593 49.6067 60.4472 73.1649 60.4472 60.077C60.4472 46.9891 44.7417 40.4452 36.889 32.5925C29.0363 24.7397 32.4728 11.6519 20.5292 11.6519C8.58547 11.6519 14.6028 18.9884 1.55173 24.7397C-11.4993 30.491 -11.5361 70.5473 17.9116 60.077Z" fill="#675AF6"/>
<path opacity="0.05" d="M66.6597 45.827C37.212 35.3567 24.1241 58.9149 24.1241 45.827C24.1241 32.7391 39.8295 26.1952 47.6823 18.3425C55.535 10.4897 52.0984 -2.59814 64.0421 -2.59814C75.9858 -2.59814 69.9685 4.73843 83.0196 10.4897C96.0706 16.241 109.195 1.32822 109.195 18.3425C109.195 35.3567 96.1074 56.2973 66.6597 45.827Z" fill="#675AF6"/>
<path opacity="0.05" d="M19.9021 26.0191C20.9609 25.5131 22.0457 24.9291 23.0007 24.244C23.351 23.9923 23.0059 23.5018 22.6373 23.6964C21.6174 24.2311 20.6209 24.9214 19.7126 25.6246C19.5258 25.7648 19.6607 26.1333 19.9021 26.0191ZM89.4373 36.3177C89.2167 35.1654 88.9286 33.9665 88.5082 32.8687C88.3551 32.4665 87.792 32.6741 87.8854 33.0815C88.1423 34.2052 88.5575 35.3419 89.0065 36.4007C89.0973 36.6161 89.4892 36.5798 89.4373 36.3177ZM23.8217 5.14583C23.8009 5.12767 23.7828 5.1095 23.762 5.09393C23.4999 4.86036 23.0691 4.81625 22.8148 5.09393C22.5579 5.37421 22.5656 5.76088 22.8148 6.04116C22.8329 6.06192 22.8511 6.08009 22.8667 6.10085C23.1003 6.36555 23.5855 6.35777 23.8217 6.10085C24.0553 5.84393 24.102 5.39497 23.8217 5.14583ZM84.1314 9.22327C84.1973 8.79392 84.1847 8.38652 84.4229 8.00731C84.9024 7.25517 85.5825 7.44321 86.2406 7.7754C86.9112 8.11386 87.5443 8.31444 88.2713 8.00104C89.409 7.50902 89.9449 5.79163 88.8574 4.98308C88.5064 4.71983 88.1585 5.15231 88.2055 5.48451C88.2713 5.9452 88.5001 6.45602 88.1053 6.8509C87.5756 7.38053 86.9551 6.93551 86.4255 6.69733C85.8551 6.44035 85.2471 6.38394 84.6611 6.62212C83.6488 7.03266 82.9124 8.40532 83.7178 9.33296C83.8306 9.46145 84.1032 9.4019 84.1314 9.22327ZM72.39 52.6447C71.3496 53.6437 70.9558 55.1981 71.9465 56.4002C72.8792 57.5319 74.6906 57.7682 75.8554 56.8686C78.6742 54.6924 75.7352 50.684 72.6968 51.513C72.133 51.6664 72.274 52.4706 72.8294 52.4996C73.7165 52.5493 74.6699 52.5825 75.3787 53.2084C76.1415 53.8758 76.158 55.0074 75.5321 55.7785C73.874 57.8138 70.9973 54.8168 72.7382 52.9929C72.9621 52.7649 72.6222 52.425 72.39 52.6447ZM11.3823 46.016C11.707 47.223 12.0634 48.4159 12.4375 49.6088C12.5258 49.8946 12.7975 49.9864 13.0446 49.817C14.0151 49.157 14.9821 48.5112 15.9033 47.7806C16.0797 47.6394 16.0409 47.3571 15.868 47.2371C14.7915 46.4995 13.341 45.4089 11.9752 45.4019C11.6293 45.3983 11.3858 45.8889 11.7387 46.0901C12.2893 46.4077 12.9493 46.5207 13.5387 46.7642C14.2163 47.0465 14.8904 47.3783 15.4903 47.8053C15.5045 47.6077 15.5186 47.41 15.5292 47.2124C14.5021 47.8441 13.5351 48.5535 12.561 49.2594C12.7516 49.2982 12.9457 49.337 13.1363 49.3758C12.7199 48.1971 12.2928 47.0289 11.8305 45.8677C11.7317 45.6242 11.3152 45.7583 11.3823 46.016Z" fill="#675AF6"/>
<path d="M60.5328 10.4019H40.7148C40.1626 10.4019 39.7148 10.8496 39.7148 11.4019V16.6749C39.7148 17.2271 40.1626 17.6749 40.7148 17.6749H60.5328C61.0851 17.6749 61.5328 17.2271 61.5328 16.6749V11.4019C61.5328 10.8496 61.0851 10.4019 60.5328 10.4019Z" fill="#C6C2F9"/>
<path d="M62.96 12.8259H38.293C37.7407 12.8259 37.293 13.2736 37.293 13.8259V19.0989C37.293 19.6512 37.7407 20.0989 38.293 20.0989H62.96C63.5123 20.0989 63.96 19.6512 63.96 19.0989V13.8259C63.96 13.2736 63.5123 12.8259 62.96 12.8259Z" fill="#9D95F8"/>
<path d="M65.3822 15.2498H35.8672C35.3149 15.2498 34.8672 15.6975 34.8672 16.2498V21.5228C34.8672 22.075 35.3149 22.5228 35.8672 22.5228H65.3822C65.9345 22.5228 66.3822 22.075 66.3822 21.5228V16.2498C66.3822 15.6975 65.9345 15.2498 65.3822 15.2498Z" fill="#675AF6"/>
<path fill-rule="evenodd" clip-rule="evenodd" d="M63.9596 34.5687C63.9596 33.1064 62.8394 31.9466 61.4269 31.9466C60.5015 31.9466 59.7222 32.4508 59.2838 33.1568V33.1064C59.2838 31.6441 58.1636 30.4843 56.7511 30.4843C55.8744 30.4843 55.0464 30.9885 54.608 31.6945V31.6441C54.608 30.1817 53.4878 29.022 52.0753 29.022C51.1986 29.022 50.3706 29.5262 49.9322 30.2322V21.5088C49.9322 20.8028 49.6887 20.1473 49.2016 19.6431C48.7146 19.1388 48.0814 18.8867 47.3995 18.8867C45.987 18.8867 44.8668 20.0465 44.8668 21.5088V37.695C44.8668 37.8462 44.7694 37.9471 44.672 38.0479C44.5258 38.0984 44.3797 38.0984 44.2823 37.9471L41.7009 35.325C40.8242 34.4174 39.4604 34.3165 38.4376 35.0225C37.8531 35.4259 37.4147 36.0814 37.3173 36.8377C37.2199 37.5941 37.4147 38.3505 37.9018 38.9051L44.331 46.8218C46.1332 49.0908 48.812 50.4019 51.637 50.4019H55.6309C57.8714 50.4019 59.9657 49.4942 61.5243 47.8807C63.0829 46.2671 63.9596 44.0988 63.9596 41.7793V34.5687Z" fill="#B9B3F9"/>
</g>
<defs>
<clipPath id="clip0">
<rect width="100" height="60" fill="white" transform="translate(0.625 0.401855)"/>
</clipPath>
</defs>
</svg>
