<svg xmlns="http://www.w3.org/2000/svg" width="30" height="30" viewBox="0 0 30 30">
    <g fill="none" transform="translate(2)">
        <path fill="#C6E0FF" d="M4.783 4.752h-3.77c-.304 0-.55-.246-.55-.55V2.597c0-1.191.967-2.157 2.16-2.157s2.16.966 2.16 2.157v2.156z"/>
        <path fill="#C8E2FF" d="M4.783 2.596v2.156H3.588V2.596c0-.596-.242-1.135-.632-1.525C2.7.817 2.382.625 2.026.523c.19-.054.39-.084.597-.084.597 0 1.137.242 1.528.632.39.39.632.93.632 1.525z"/>
        <path fill="#94C5FF" d="M26.394 29.085c-.747-.402-1.529-1.127-1.529-2.403V3.366c0-1.616-1.313-2.927-2.932-2.927H2.623c1.193 0 2.16.966 2.16 2.157v24.028c0 1.616 1.313 2.927 2.932 2.927H26.28c.258 0 .342-.344.114-.466z"/>
        <path fill="#C6E0FF" d="M26.28 29.55h-1.534c.258 0 .342-.342.114-.465-.747-.402-1.17-1.127-1.17-2.403V3.367C23.69 1.75 22.379.44 20.759.44h1.175c1.62 0 2.932 1.31 2.932 2.927v23.315c0 1.276.782 2 1.53 2.403.227.123.143.466-.115.466z"/>
        <path fill="#FFF" d="M13.223 21.741l3.243.005-.01 4.19c0 .103-.112.169-.203.119l-1.351-.745c-.041-.023-.091-.023-.132 0l-1.354.74c-.091.05-.203-.015-.202-.12l.01-4.189z"/>
        <ellipse cx="14.824" cy="20.135" fill="#FFF" rx="2.898" ry="2.893"/>
        <path fill="#FFF" d="M17.722 20.135c0 1.597-1.298 2.892-2.898 2.892-.776 0-1.482-.305-2.002-.802.296.102.614.157.945.157 1.6 0 2.897-1.295 2.897-2.892 0-.822-.343-1.563-.894-2.09 1.136.391 1.952 1.467 1.952 2.735z"/>
        <g fill="#4298FD">
            <path d="M26.603 28.698c-.861-.463-1.298-1.141-1.298-2.016V6.997c0-.243-.197-.44-.44-.44s-.44.197-.44.44v19.685c0 .993.412 1.822 1.2 2.43H7.716c-1.374 0-2.492-1.116-2.492-2.488V2.596c0-.633-.231-1.243-.651-1.717h17.361c1.374 0 2.492 1.116 2.492 2.487v1.61c0 .242.197.44.44.44s.44-.198.44-.44v-1.61C25.305 1.51 23.792 0 21.933 0H2.623c-1.434 0-2.6 1.164-2.6 2.596v1.607c0 .545.444.989.99.989h3.33v21.432c0 1.856 1.513 3.366 3.372 3.366H26.28c.32 0 .588-.208.666-.517.078-.311-.06-.622-.343-.775zM4.343 4.313h-3.33c-.06 0-.11-.05-.11-.11V2.596c0-.947.772-1.717 1.72-1.717s1.72.77 1.72 1.717v1.717z"/>
            <path d="M18.751 4.358c.243 0 .44-.197.44-.44 0-.242-.197-.44-.44-.44h-7.854c-.243 0-.44.198-.44.44 0 .243.197.44.44.44h7.854zM21.705 7.458H7.944c-.243 0-.44.196-.44.439s.197.44.44.44h13.76c.244 0 .44-.197.44-.44s-.196-.44-.44-.44zM21.705 9.644H7.944c-.243 0-.44.197-.44.44 0 .242.197.439.44.439h13.76c.244 0 .44-.197.44-.44 0-.242-.196-.44-.44-.44zM22.145 12.27c0-.243-.197-.44-.44-.44H7.944c-.243 0-.44.197-.44.44 0 .242.197.439.44.439h13.76c.244 0 .44-.197.44-.44zM16.303 14.456c0-.243-.197-.44-.44-.44h-7.92c-.242 0-.44.197-.44.44s.198.44.44.44h7.92c.243 0 .44-.197.44-.44zM13.056 26.426c.174.104.394.107.572.01l1.207-.661 1.206.664c.086.048.182.072.278.072.102 0 .203-.027.293-.08.175-.102.284-.292.284-.494l.008-3.199c.766-.61 1.258-1.55 1.258-2.603 0-1.838-1.497-3.332-3.338-3.332-1.84 0-3.338 1.494-3.338 3.332 0 .242.197.44.44.44.244 0 .44-.198.44-.44 0-1.353 1.103-2.454 2.458-2.454 1.355 0 2.458 1.101 2.458 2.454 0 1.352-1.103 2.453-2.458 2.453-.725 0-1.41-.317-1.878-.87-.157-.186-.434-.21-.62-.053s-.21.434-.052.62c.153.18.323.342.507.484l-.008 3.161c0 .203.108.393.283.496zm.604-3.17c.368.137.761.21 1.164.21.422 0 .826-.079 1.198-.222l-.005 2.178-.903-.497c-.087-.048-.183-.072-.278-.072-.096 0-.19.023-.278.071l-.903.495.005-2.162z"/>
        </g>
    </g>
</svg>
