<svg width="130" height="131" viewBox="0 0 130 131" fill="none" xmlns="http://www.w3.org/2000/svg">
<g clip-path="url(#clip0)">
<path opacity="0.05" d="M71.3322 1.58293C60.3322 1.58293 41.3322 1.58293 37.3322 12.5829C33.3322 23.5829 66.5902 22.9378 74.3322 30.6797C82.0741 38.4216 94.557 37.5829 106.332 37.5829C118.107 37.5829 115.876 50.561 125.332 48.5829C134.788 46.6048 126.332 36.6924 129.332 30.6797C129.332 26.943 129.332 17.2441 129.332 1.58293C102.999 1.58293 83.6655 1.58293 71.3322 1.58293Z" fill="#675AF6"/>
<path opacity="0.05" d="M73.7141 122.149C112.978 108.189 130.428 139.599 130.428 122.149C130.428 104.698 109.488 95.9732 99.0174 85.5028C88.5471 75.0325 93.1292 57.582 77.2043 57.582C61.2793 57.582 69.3024 67.3641 51.901 75.0325C34.4996 82.701 17 62.8172 17 85.5028C17 108.189 34.4505 136.109 73.7141 122.149Z" fill="#675AF6"/>
<path opacity="0.05" d="M73.7155 93.1489C34.4519 79.1885 17.0014 110.599 17.0014 93.1489C17.0014 75.6984 37.942 66.9732 48.4123 56.5028C58.8826 46.0325 54.3005 28.582 70.2254 28.582C86.1503 28.582 78.1273 38.3641 95.5287 46.0325C112.93 53.701 130.43 33.8172 130.43 56.5028C130.43 79.1885 112.979 107.109 73.7155 93.1489Z" fill="#675AF6"/>
<path opacity="0.05" d="M18.3694 66.7384C19.7812 66.0636 21.2275 65.2851 22.5009 64.3716C22.968 64.036 22.5078 63.382 22.0165 63.6415C20.6566 64.3543 19.3279 65.2747 18.1168 66.2124C17.8677 66.3993 18.0476 66.8906 18.3694 66.7384ZM111.083 80.4698C110.789 78.9335 110.405 77.3349 109.844 75.8712C109.64 75.3349 108.889 75.6117 109.014 76.1549C109.356 77.6532 109.91 79.1688 110.509 80.5805C110.63 80.8677 111.152 80.8193 111.083 80.4698ZM23.5956 38.9073C23.5679 38.8831 23.5437 38.8589 23.516 38.8381C23.1665 38.5267 22.5921 38.4679 22.253 38.8381C21.9105 39.2118 21.9209 39.7274 22.253 40.1011C22.2773 40.1288 22.3015 40.153 22.3222 40.1807C22.6337 40.5336 23.2807 40.5232 23.5956 40.1807C23.907 39.8381 23.9693 39.2395 23.5956 38.9073ZM104.009 44.3439C104.096 43.7715 104.08 43.2282 104.397 42.7226C105.037 41.7198 105.943 41.9705 106.821 42.4134C107.715 42.8647 108.559 43.1321 109.528 42.7143C111.045 42.0583 111.76 39.7684 110.31 38.6903C109.842 38.3393 109.378 38.916 109.441 39.3589C109.528 39.9732 109.834 40.6543 109.307 41.1808C108.601 41.8869 107.773 41.2936 107.067 40.976C106.307 40.6334 105.496 40.5581 104.715 40.8757C103.365 41.4231 102.383 43.2533 103.457 44.4902C103.607 44.6615 103.971 44.5821 104.009 44.3439ZM88.3534 102.239C86.9661 103.571 86.4411 105.644 87.762 107.247C89.0056 108.755 91.4209 109.07 92.9739 107.871C96.7322 104.969 92.8136 99.6249 88.7624 100.73C88.0107 100.935 88.1986 102.007 88.9393 102.046C90.122 102.112 91.3932 102.156 92.3383 102.991C93.3553 103.881 93.3774 105.389 92.5428 106.417C90.332 109.131 86.4963 105.135 88.8177 102.703C89.1161 102.399 88.6629 101.946 88.3534 102.239ZM7.00969 93.4008C7.44262 95.0102 7.91789 96.6007 8.4167 98.1913C8.53434 98.5724 8.89668 98.6948 9.22608 98.4689C10.5201 97.5889 11.8095 96.7278 13.0377 95.7537C13.273 95.5655 13.2212 95.189 12.9906 95.029C11.5554 94.0455 9.62135 92.5915 7.80025 92.582C7.33909 92.5774 7.0144 93.2314 7.48497 93.4997C8.21906 93.9232 9.09902 94.0738 9.88487 94.3985C10.7884 94.7749 11.6872 95.2172 12.4871 95.7866C12.5059 95.5231 12.5248 95.2596 12.5389 94.9961C11.1695 95.8384 9.88017 96.7842 8.58139 97.7254C8.8355 97.7771 9.09432 97.8289 9.34842 97.8807C8.79315 96.309 8.22376 94.7514 7.60731 93.2032C7.47556 92.8785 6.92028 93.0573 7.00969 93.4008Z" fill="#675AF6"/>
<path d="M95.4721 81.2356C92.7078 80.8332 92.2925 78.1858 92.2276 77.6407C94.0176 71.9273 92.982 65.7032 89.4384 60.8772C85.8949 56.0513 80.2663 53.1996 74.2791 53.1967H62.3849V52.3272C62.3834 51.9772 62.2407 51.6426 61.989 51.3993L57.8361 47.3956C57.5955 47.1637 57.2748 47.0336 56.9406 47.0322H51.704C50.9873 47.0322 50.4062 47.6133 50.4062 48.33V49.9912H47.3434C46.6553 49.9912 46.0975 50.549 46.0975 51.2371V59.0238C45.5328 60.2899 45.241 61.6607 45.241 63.047C45.241 64.9464 43.7012 66.4861 41.8019 66.4861H40.7506C40.0342 66.4861 39.3476 66.7729 38.8441 67.2825C38.3405 67.7921 38.062 68.4822 38.0705 69.1985V76.5635C38.0743 77.9203 39.1733 79.0193 40.53 79.0228C41.7091 79.0205 42.8087 79.6167 43.45 80.6061L46.4999 85.2912C48.6187 88.5535 52.1732 90.6022 56.0581 90.8003V92.8313C56.0512 93.4451 56.2901 94.036 56.7217 94.4724C57.1532 94.9089 57.7415 95.1544 58.3552 95.1544H62.6639C63.9275 95.1508 64.9509 94.1274 64.9545 92.8638V90.8522H70.1457V92.8638C70.1492 94.1274 71.1727 95.1508 72.4363 95.1544H76.7449C78.0085 95.1508 79.032 94.1274 79.0355 92.8638V90.2682C84.5734 88.7974 89.1443 84.8924 91.4619 79.6523C92.1445 81.2126 93.5949 82.3011 95.2839 82.5204H95.3812C95.7396 82.5455 96.0505 82.2753 96.0756 81.9169C96.1007 81.5585 95.8305 81.2477 95.4721 81.2226V81.2356Z" fill="#B9B3F9"/>
<path fill-rule="evenodd" clip-rule="evenodd" d="M63.6251 92.8179C63.6374 93.0846 63.5418 93.3449 63.3599 93.5403C63.178 93.7356 62.9251 93.8495 62.6583 93.8562H58.3561C57.8078 93.8562 57.3633 93.4117 57.3633 92.8634V90.8518H63.6576L63.6251 92.8179ZM77.7127 92.8179C77.725 93.0846 77.6294 93.3449 77.4475 93.5403C77.2656 93.7356 77.0127 93.8495 76.7458 93.8562H72.4371C71.8888 93.8562 71.4443 93.4117 71.4443 92.8634V90.8518H74.28C75.4404 90.8505 76.5982 90.7419 77.7386 90.5273L77.7127 92.8179Z" fill="#A998D2"/>
<path fill-rule="evenodd" clip-rule="evenodd" d="M74.3183 89.1623H56.7721C53.091 89.1737 49.6555 87.3167 47.6486 84.2307L44.5988 79.5457C43.719 78.1893 42.2119 77.3711 40.5951 77.3719C39.9551 77.3683 39.4371 76.8504 39.4336 76.2104V68.8519C39.4371 68.0936 40.051 67.4798 40.8093 67.4762H41.8734C44.4881 67.4726 46.6068 65.3539 46.6104 62.7393C46.6195 59.8552 48.0839 57.1706 50.5038 55.6014V58.7161C50.5038 62.0203 53.1824 64.6989 56.4866 64.6989C59.7908 64.6989 62.4694 62.0203 62.4694 58.7161V54.1738H74.3442C80.6036 54.1738 86.3875 57.5132 89.5172 62.9339C92.6469 68.3547 92.6469 75.0334 89.5172 80.4541C86.3875 85.8749 80.6036 89.2142 74.3442 89.2142L74.3183 89.1623Z" fill="#B9B3F9"/>
<path fill-rule="evenodd" clip-rule="evenodd" d="M56.9346 48.3301L61.0876 52.3273V59.0109C61.0876 60.6847 60.1946 62.2314 58.7451 63.0683C57.2955 63.9052 55.5096 63.9052 54.06 63.0683C52.6105 62.2314 51.7175 60.6847 51.7175 59.0109V48.3366L56.9346 48.3301ZM47.4023 51.289H50.4197V54.3908C49.2556 55.0197 48.2296 55.8758 47.4023 56.9085V51.289Z" fill="#A998D2"/>
<path d="M74.7639 56.832H65.6129C64.8149 56.832 64.168 57.4789 64.168 58.2769C64.168 59.0749 64.8149 59.7218 65.6129 59.7218H74.7639C75.5619 59.7218 76.2088 59.0749 76.2088 58.2769C76.2088 57.4789 75.5619 56.832 74.7639 56.832Z" fill="#8279F8"/>
<path d="M78.8295 69.9307H55.7105C53.0507 69.9307 50.8945 72.0869 50.8945 74.7467V74.7477C50.8945 77.4075 53.0507 79.5637 55.7105 79.5637H78.8295C81.4893 79.5637 83.6455 77.4075 83.6455 74.7477V74.7467C83.6455 72.0869 81.4893 69.9307 78.8295 69.9307Z" fill="#675AF6"/>
<path d="M54.7461 75.7471C55.2984 75.7471 55.7461 75.2994 55.7461 74.7471C55.7461 74.1948 55.2984 73.7471 54.7461 73.7471C54.1938 73.7471 53.7461 74.1948 53.7461 74.7471C53.7461 75.2994 54.1938 75.7471 54.7461 75.7471Z" fill="#8279F8"/>
<path d="M78.8281 75.7471C79.3804 75.7471 79.8281 75.2994 79.8281 74.7471C79.8281 74.1948 79.3804 73.7471 78.8281 73.7471C78.2758 73.7471 77.8281 74.1948 77.8281 74.7471C77.8281 75.2994 78.2758 75.7471 78.8281 75.7471Z" fill="#8279F8"/>
<path fill-rule="evenodd" clip-rule="evenodd" d="M73.284 74.5504L71.345 71.8574H72.685L73.972 73.8324L75.241 71.8574H76.52L74.616 74.5754L76.855 77.6364H75.453L73.928 75.3674L72.465 77.6364H71.125L73.284 74.5504Z" fill="white"/>
<path fill-rule="evenodd" clip-rule="evenodd" d="M66.7275 71.8574L69.1482 77.637H68.0053L67.4815 76.3146H65.045L64.537 77.637H63.418L65.8624 71.8574H66.7275ZM66.2672 73.0819L65.3862 75.4329H67.1323L66.2672 73.0819Z" fill="white"/>
<path fill-rule="evenodd" clip-rule="evenodd" d="M59.3017 72.7544H57.6367V71.8574H61.9347V72.7544H60.2687V77.6364H59.3017V72.7544Z" fill="white"/>
<path d="M70.0823 58.57C72.3459 58.5722 74.3879 57.2103 75.2557 55.1196C76.1234 53.0289 75.646 50.6213 74.0462 49.0199C72.4463 47.4184 70.0392 46.9387 67.9476 47.8045C65.8561 48.6702 64.4922 50.7109 64.4922 52.9745C64.4952 56.0615 66.9953 58.5641 70.0823 58.57Z" fill="#9D95F8"/>
<path d="M70.0832 57.1707C71.7809 57.1723 73.3124 56.1509 73.9632 54.5829C74.6141 53.0148 74.256 51.2091 73.0561 50.0081C71.8562 48.807 70.0509 48.4472 68.4822 49.0965C66.9135 49.7458 65.8906 51.2763 65.8906 52.9741C65.8929 55.2893 67.768 57.1662 70.0832 57.1707Z" fill="#675AF6"/>
<path d="M71.953 50.4072C71.953 50.2799 71.8558 50.1768 71.7359 50.1768H69.5148H68.4398C68.3199 50.1768 68.2227 50.2799 68.2227 50.4072C68.2227 50.5344 68.3199 50.6376 68.4398 50.6376H69.5148C69.839 50.6376 70.1464 50.8062 70.3371 51.0885C70.427 51.2216 70.4872 51.3689 70.5198 51.5199H68.4398C68.3199 51.5199 68.2227 51.6231 68.2227 51.7503C68.2227 51.8776 68.3198 51.9808 68.4398 51.9808H70.5276C70.5199 52.0205 70.5103 52.06 70.498 52.0986C70.4077 52.3829 70.2024 52.5903 69.9199 52.6825C69.4899 52.8229 69.0098 52.8051 68.5448 52.7878L68.4471 52.7842C68.3559 52.7792 68.2721 52.8387 68.2382 52.929C68.2043 53.0192 68.2272 53.1221 68.2955 53.1867L70.9734 55.7141C71.0148 55.7532 71.0662 55.7723 71.1176 55.7723C71.1774 55.7723 71.237 55.7462 71.2799 55.695C71.3596 55.6 71.3515 55.4543 71.2619 55.3697L69.027 53.2604C69.3681 53.2599 69.7118 53.2326 70.0476 53.123C70.4672 52.986 70.7733 52.6745 70.9095 52.2458C70.937 52.1594 70.9539 52.0704 70.9659 51.9808H71.736C71.8559 51.9808 71.9531 51.8776 71.9531 51.7503C71.9531 51.6231 71.8559 51.5199 71.736 51.5199H70.9634C70.9261 51.2738 70.834 51.0331 70.6901 50.82C70.6457 50.7542 70.5953 50.6944 70.5425 50.6376H71.736C71.8559 50.6376 71.9531 50.5345 71.9531 50.4072L71.953 50.4072Z" fill="white" stroke="white" stroke-width="0.2"/>
<path d="M73.5218 39.7861C73.8543 39.7861 74.1239 40.0557 74.1239 40.3882V46.4086C74.1239 46.7411 73.8543 47.0106 73.5218 47.0106C73.1893 47.0106 72.9198 46.7411 72.9198 46.4086V40.3882C72.9198 40.0557 73.1893 39.7861 73.5218 39.7861ZM66.2974 39.7861C66.6299 39.7861 66.8994 40.0557 66.8994 40.3882V46.4086C66.8994 46.7411 66.6299 47.0106 66.2974 47.0106C65.9649 47.0106 65.6953 46.7411 65.6953 46.4086V40.3882C65.6953 40.0557 65.9649 39.7861 66.2974 39.7861ZM69.9096 38.582C70.2421 38.582 70.5116 38.8516 70.5116 39.1841V45.2045C70.5116 45.537 70.2421 45.8065 69.9096 45.8065C69.5771 45.8065 69.3076 45.537 69.3076 45.2045V39.1841C69.3076 38.8516 69.5771 38.582 69.9096 38.582Z" fill="#8279F8"/>
</g>
<defs>
<clipPath id="clip0">
<rect width="130" height="130" fill="white" transform="translate(0 0.582031)"/>
</clipPath>
</defs>
</svg>
