<svg xmlns="http://www.w3.org/2000/svg" width="130" height="130" viewBox="0 0 130 130">
  <defs>
    <linearGradient id="ic_invest_recommended_mf-a" x1="50%" x2="50%" y1="100%" y2="55.061%">
      <stop offset="0%" stop-color="#FFF"/>
      <stop offset="100%" stop-color="#0C3E77"/>
    </linearGradient>
    <linearGradient id="ic_invest_recommended_mf-b" x1="50%" x2="50%" y1="100%" y2="55.061%">
      <stop offset="0%" stop-color="#FFF"/>
      <stop offset="100%" stop-color="#0C3E77"/>
    </linearGradient>
    <linearGradient id="ic_invest_recommended_mf-c" x1="50%" x2="50%" y1="133.077%" y2="52.497%">
      <stop offset="0%" stop-color="#90B9E7"/>
      <stop offset="100%" stop-color="#AED4FF"/>
    </linearGradient>
    <radialGradient id="ic_invest_recommended_mf-d" cx="50%" cy="50%" r="169.969%" fx="50%" fy="50%" gradientTransform="matrix(.31123 .09 -.01212 .42918 .35 .24)">
      <stop offset="0%" stop-color="#9DCBFF"/>
      <stop offset="100%" stop-color="#9BC8FC"/>
    </radialGradient>
    <radialGradient id="ic_invest_recommended_mf-e" cx="50%" cy="50%" r="172.982%" fx="50%" fy="50%" gradientTransform="matrix(.29888 .08643 -.01117 .42932 .356 .242)">
      <stop offset="0%" stop-color="#D6E9FF"/>
      <stop offset="100%" stop-color="#AAD2FF"/>
    </radialGradient>
    <linearGradient id="ic_invest_recommended_mf-f" x1="50%" x2="50%" y1="137.279%" y2="35.767%">
      <stop offset="0%" stop-color="#99C4F7"/>
      <stop offset="100%" stop-color="#C3DFFF"/>
    </linearGradient>
    <radialGradient id="ic_invest_recommended_mf-g" cx="50%" cy="50%" r="172.982%" fx="50%" fy="50%" gradientTransform="matrix(.29888 .08643 -.01117 .42932 .356 .242)">
      <stop offset="0%" stop-color="#CADFF8"/>
      <stop offset="100%" stop-color="#AAD2FF"/>
    </radialGradient>
    <linearGradient id="ic_invest_recommended_mf-h" x1="50%" x2="50%" y1="100%" y2=".217%">
      <stop offset="0%" stop-color="#B7D9FF"/>
      <stop offset="100%" stop-color="#96C7FF"/>
    </linearGradient>
  </defs>
  <g fill="none" fill-rule="evenodd" transform="translate(11 2)">
    <path fill="#3792FC" fill-rule="nonzero" d="M85.6326818,47.2051547 C96.6326818,47.2051547 115.632682,47.2051547 119.632682,36.2051547 C123.632682,25.2051547 90.3746172,25.850316 82.6326818,18.1083805 C74.8907463,10.366445 62.4078567,11.2051547 50.6326818,11.2051547 C38.8575068,11.2051547 41.0888089,-1.77295985 31.6326818,0.205154721 C22.1765546,2.18326929 30.6326818,12.0957077 27.6326818,18.1083805 C27.6326818,21.8450928 27.6326818,31.5440175 27.6326818,47.2051547 C53.9660151,47.2051547 73.2993484,47.2051547 85.6326818,47.2051547 Z" opacity=".05" transform="rotate(180 73.483 23.603)"/>
    <path fill="#3792FC" fill-rule="nonzero" d="M59.7141525,122.566881 C98.9777965,108.606475 116.428305,140.01739 116.428305,122.566881 C116.428305,105.116373 95.4876948,96.3911187 85.0173897,85.9208136 C74.5470848,75.4505085 79.1291704,58 63.2042542,58 C47.2793381,58 55.3023938,67.7820966 37.901017,75.4505085 C20.4996401,83.1189204 3,63.2351525 3,85.9208136 C3,108.606475 20.4505085,136.527288 59.7141525,122.566881 Z" opacity=".05"/>
    <path fill="#3792FC" fill-rule="nonzero" d="M62.7141525,84.5668814 C101.977797,70.6064746 119.428305,102.01739 119.428305,84.5668814 C119.428305,67.1163729 98.4876948,58.3911187 88.0173897,47.9208136 C77.5470848,37.4505085 82.1291704,20 66.2042542,20 C50.2793381,20 58.3023938,29.7820966 40.901017,37.4505085 C23.4996401,45.1189204 6,25.2351525 6,47.9208136 C6,70.6064746 23.4505085,98.5272882 62.7141525,84.5668814 Z" opacity=".05" transform="matrix(-1 0 0 1 125.428 0)"/>
    <path fill="#3792FC" fill-rule="nonzero" d="M11.3694012 58.1563442C12.7811659 57.4816037 14.2275327 56.703057 15.5008891 55.7895622 15.9680171 55.453922 15.5078095 54.7999428 15.01646 55.0594583 13.6565984 55.7722611 12.3278787 56.6926763 11.1168061 57.6303926 10.8676711 57.8172438 11.0476019 58.3085933 11.3694012 58.1563442L11.3694012 58.1563442zM104.08306 71.8877869C103.788943 70.3514547 103.40486 68.7528388 102.844306 67.289171 102.640154 66.7528388 101.889289 67.0296554 102.013856 67.572908 102.356417 69.0711779 102.91005 70.5867488 103.508666 71.9985135 103.629773 72.2857108 104.152265 72.2372679 104.08306 71.8877869L104.08306 71.8877869zM16.5956032 30.3253011C16.5679215 30.3010797 16.5437001 30.2768582 16.5160184 30.256097 16.1665375 29.9446783 15.592143 29.8858548 15.2530427 30.256097 14.9104821 30.6297994 14.9208627 31.1453703 15.2530427 31.5190727 15.2772641 31.5467544 15.3014856 31.5709759 15.3222468 31.5986575 15.6336655 31.9515987 16.2807243 31.9412181 16.5956032 31.5986575 16.9070219 31.256097 16.9693056 30.6574811 16.5956032 30.3253011L16.5956032 30.3253011zM97.0085978 35.761887C97.0963475 35.1894251 97.0796333 34.6462131 97.3972034 34.140608 98.0365221 33.137755 98.9432684 33.3884683 99.8207647 33.831395 100.714975 34.2826789 101.559043 34.5501063 102.528468 34.1322509 104.045283 33.4762179 104.759816 31.1863703 103.309857 30.1083033 102.841859 29.7573048 102.37804 30.3339452 102.440718 30.776872 102.528468 31.3911194 102.833502 32.0722237 102.307004 32.5987216 101.600829 33.3048972 100.773475 32.7115425 100.067299 32.3939724 99.3068026 32.051331 98.4961631 31.976117 97.7147735 32.2936871 96.3651005 32.8410777 95.3831403 34.6712844 96.4570287 35.9081364 96.6074566 36.0794571 96.9709908 36.0000646 97.0085978 35.761887L97.0085978 35.761887zM81.3533953 93.6570961C79.9661321 94.9890898 79.4410724 97.0616941 80.7620122 98.6645082 82.0055748 100.173364 84.4208497 100.4884 85.9739212 99.2890529 89.7322437 96.3874069 85.8136398 91.0428511 81.7623892 92.1482401 81.0107247 92.3527371 81.1986408 93.4249644 81.9392514 93.463653 83.1220177 93.5299764 84.393215 93.5741919 85.3383226 94.4087606 86.3552804 95.2985987 86.3773882 96.8074547 85.5428195 97.8354664 83.3320416 100.549196 79.4963418 96.5532152 81.8176587 94.1213595 82.1161137 93.8173775 81.6629042 93.364168 81.3533953 93.6570961L81.3533953 93.6570961zM.00969071669 84.8188172C.442615217 86.428167.917891027 88.018694 1.41669534 89.609221 1.53433787 89.9903827 1.89667685 90.112731 2.22607593 89.8868573 3.52014373 89.0068912 4.80950583 88.1457479 6.03769381 87.1716678 6.27297887 86.9834397 6.22121615 86.6069837 5.9906368 86.4469898 4.55539797 85.4634983 2.62135482 84.0094367.8002485 84 .339089793 83.9953196.0143964178 84.649412.484966527 84.917637 1.2190559 85.3411501 2.099022 85.4917325 2.88487408 85.8164259 3.78836869 86.192882 4.6871576 86.6352179 5.48712678 87.2046077 5.50594959 86.9410884 5.52477239 86.6775692 5.5388895 86.4140499 4.16953048 87.2563704 2.88016838 88.2022163 1.58139488 89.1433565 1.83550274 89.1951193 2.0943163 89.246882 2.34842416 89.2986447 1.79315143 87.7269405 1.2237616 86.1693535.607314755 84.6211778.475555125 84.2964844-.079717604 84.4753011.00969071669 84.8188172L.00969071669 84.8188172z" opacity=".05"/>
    <g transform="translate(22 30)">
      <g transform="translate(0 35)">
        <path fill="url(#ic_invest_recommended_mf-a)" d="M48.1795077,23.8219255 C54.810936,23.8219255 57.836225,24.0430213 60.1867708,21.8948225 C62.5373165,19.7466236 61.1815855,16.8535256 58.4714475,15.9034167 C55.7613094,14.9533078 41.3182146,14.2196342 37.887568,15.9034167 C34.4569214,17.5871992 33.8651382,19.042599 36.1722447,21.1510981 C38.4793512,23.2595972 41.5480795,23.8219255 48.1795077,23.8219255 Z" opacity=".16"/>
        <path fill="url(#ic_invest_recommended_mf-b)" d="M31.588167,24.1035365 C38.2195952,24.1035365 41.2448842,24.3311713 43.59543,22.1194394 C45.9459757,19.9077075 44.5902448,16.9290462 41.8801067,15.9508378 C39.1699686,14.9726294 24.7268738,14.2172574 21.2962272,15.9508378 C17.8655806,17.6844182 17.2737974,19.1828614 19.5809039,21.3537194 C21.8880104,23.5245774 24.9567387,24.1035365 31.588167,24.1035365 Z" opacity=".16"/>
        <path fill="url(#ic_invest_recommended_mf-b)" d="M13.388167,20.2035365 C20.0195952,20.2035365 23.0448842,20.4311713 25.39543,18.2194394 C27.7459757,16.0077075 26.3902448,13.0290462 23.6801067,12.0508378 C20.9699686,11.0726294 6.5268738,10.3172574 3.09622722,12.0508378 C-0.334419356,13.7844182 -0.926202576,15.2828614 1.38090393,17.4537194 C3.68801044,19.6245774 6.7567387,20.2035365 13.388167,20.2035365 Z" opacity=".16"/>
        <g transform="translate(0 7.742)">
          <path fill="url(#ic_invest_recommended_mf-c)" d="M13.388167,11.1444134 C20.0195952,11.1444134 23.0448842,10.639163 25.39543,8.56239496 C27.7459757,6.48562691 26.3902448,2.96973441 23.6801067,2.05121802 C20.9699686,1.13270163 6.5268738,0.423423784 3.09622722,2.05121802 C-0.334419356,3.67901226 -0.926202576,6.52400659 1.38090393,8.56239496 C3.68801044,10.6007833 6.7567387,11.1444134 13.388167,11.1444134 Z"/>
          <path fill="url(#ic_invest_recommended_mf-d)" d="M13.3013966,7.18994413 C19.654831,7.18994413 24.8053073,5.58042032 24.8053073,3.59497207 C24.8053073,1.60952382 19.654831,0 13.3013966,0 C6.94796225,0 1.79748603,1.60952382 1.79748603,3.59497207 C1.79748603,5.58042032 6.94796225,7.18994413 13.3013966,7.18994413 Z"/>
          <path fill="url(#ic_invest_recommended_mf-e)" d="M13.3013966,6.83044693 C19.2577414,6.83044693 24.0863128,5.38187549 24.0863128,3.59497207 C24.0863128,1.80806864 19.2577414,0.359497207 13.3013966,0.359497207 C7.3450519,0.359497207 2.51648045,1.80806864 2.51648045,3.59497207 C2.51648045,5.38187549 7.3450519,6.83044693 13.3013966,6.83044693 Z"/>
          <path fill="#FFF" d="M15.8995188,1.07943034 L11.9772498,1.27788177 L10.0789381,1.3739289 C9.86718263,1.3846429 9.70049699,1.48423902 9.70658624,1.59641239 C9.7126755,1.70858576 9.88923143,1.7908152 10.1009869,1.7801012 L11.9992986,1.68405407 C12.5718172,1.65508688 13.12275,1.77620603 13.4730612,2.00802503 C13.6380742,2.11724858 13.7514904,2.24177069 13.816277,2.37193521 L10.1432026,2.55777837 C9.93144714,2.56849237 9.76476149,2.66808849 9.77085074,2.78026186 C9.77694,2.89243522 9.95349594,2.97466467 10.1652514,2.96395067 L13.8521596,2.77740757 C13.8403603,2.81316497 13.8253235,2.84875804 13.8054755,2.88389849 C13.6595889,3.14257323 13.3069507,3.34369488 12.8125263,3.45024795 C12.0599752,3.61234007 11.2112063,3.63961341 10.389261,3.66584777 L10.2165694,3.67140336 C10.0553445,3.67518554 9.91023175,3.73510918 9.85464853,3.81770854 C9.799061,3.90022856 9.84442174,3.98893688 9.96821306,4.03970972 L14.817844,6.02805691 C14.892794,6.05878875 14.9846134,6.07108686 15.075216,6.06650273 C15.180944,6.0611533 15.2848241,6.03282833 15.3581505,5.98385526 C15.4943739,5.89295976 15.4731793,5.76532279 15.3108388,5.69876108 L11.2633887,4.03932904 C11.865683,4.00837802 12.4713407,3.95363095 13.0589852,3.82708802 C13.7934254,3.66885553 14.3191414,3.3669393 14.5391387,2.97691919 C14.5834882,2.8983088 14.6091826,2.81837516 14.6259507,2.73825676 L15.9858321,2.66945209 C16.1975876,2.65873809 16.3642733,2.55914197 16.358184,2.4469686 C16.3520948,2.33479524 16.1755388,2.25256579 15.9637833,2.26327979 L14.599559,2.33230419 C14.5219074,2.11867808 14.347777,1.91480578 14.0835012,1.73984622 C14.0017846,1.68578114 13.9099517,1.63761733 13.8139714,1.59223873 L15.9215676,1.48560262 C16.1333231,1.47488864 16.3000088,1.37529252 16.2939195,1.26311915 C16.2878302,1.15094578 16.1112743,1.06871634 15.8995188,1.07943034 Z"/>
        </g>
        <g transform="translate(18.2 11.642)">
          <path fill="url(#ic_invest_recommended_mf-c)" d="M13.388167,11.1444134 C20.0195952,11.1444134 23.0448842,10.639163 25.39543,8.56239496 C27.7459757,6.48562691 26.3902448,2.96973441 23.6801067,2.05121802 C20.9699686,1.13270163 6.5268738,0.423423784 3.09622722,2.05121802 C-0.334419356,3.67901226 -0.926202576,6.52400659 1.38090393,8.56239496 C3.68801044,10.6007833 6.7567387,11.1444134 13.388167,11.1444134 Z"/>
          <path fill="url(#ic_invest_recommended_mf-d)" d="M13.3013966,7.18994413 C19.654831,7.18994413 24.8053073,5.58042032 24.8053073,3.59497207 C24.8053073,1.60952382 19.654831,0 13.3013966,0 C6.94796225,0 1.79748603,1.60952382 1.79748603,3.59497207 C1.79748603,5.58042032 6.94796225,7.18994413 13.3013966,7.18994413 Z"/>
          <path fill="url(#ic_invest_recommended_mf-e)" d="M13.3013966,6.83044693 C19.2577414,6.83044693 24.0863128,5.38187549 24.0863128,3.59497207 C24.0863128,1.80806864 19.2577414,0.359497207 13.3013966,0.359497207 C7.3450519,0.359497207 2.51648045,1.80806864 2.51648045,3.59497207 C2.51648045,5.38187549 7.3450519,6.83044693 13.3013966,6.83044693 Z"/>
          <path fill="#FFF" d="M15.8995188,1.07943034 L11.9772498,1.27788177 L10.0789381,1.3739289 C9.86718263,1.3846429 9.70049699,1.48423902 9.70658624,1.59641239 C9.7126755,1.70858576 9.88923143,1.7908152 10.1009869,1.7801012 L11.9992986,1.68405407 C12.5718172,1.65508688 13.12275,1.77620603 13.4730612,2.00802503 C13.6380742,2.11724858 13.7514904,2.24177069 13.816277,2.37193521 L10.1432026,2.55777837 C9.93144714,2.56849237 9.76476149,2.66808849 9.77085074,2.78026186 C9.77694,2.89243522 9.95349594,2.97466467 10.1652514,2.96395067 L13.8521596,2.77740757 C13.8403603,2.81316497 13.8253235,2.84875804 13.8054755,2.88389849 C13.6595889,3.14257323 13.3069507,3.34369488 12.8125263,3.45024795 C12.0599752,3.61234007 11.2112063,3.63961341 10.389261,3.66584777 L10.2165694,3.67140336 C10.0553445,3.67518554 9.91023175,3.73510918 9.85464853,3.81770854 C9.799061,3.90022856 9.84442174,3.98893688 9.96821306,4.03970972 L14.817844,6.02805691 C14.892794,6.05878875 14.9846134,6.07108686 15.075216,6.06650273 C15.180944,6.0611533 15.2848241,6.03282833 15.3581505,5.98385526 C15.4943739,5.89295976 15.4731793,5.76532279 15.3108388,5.69876108 L11.2633887,4.03932904 C11.865683,4.00837802 12.4713407,3.95363095 13.0589852,3.82708802 C13.7934254,3.66885553 14.3191414,3.3669393 14.5391387,2.97691919 C14.5834882,2.8983088 14.6091826,2.81837516 14.6259507,2.73825676 L15.9858321,2.66945209 C16.1975876,2.65873809 16.3642733,2.55914197 16.358184,2.4469686 C16.3520948,2.33479524 16.1755388,2.25256579 15.9637833,2.26327979 L14.599559,2.33230419 C14.5219074,2.11867808 14.347777,1.91480578 14.0835012,1.73984622 C14.0017846,1.68578114 13.9099517,1.63761733 13.8139714,1.59223873 L15.9215676,1.48560262 C16.1333231,1.47488864 16.3000088,1.37529252 16.2939195,1.26311915 C16.2878302,1.15094578 16.1112743,1.06871634 15.8995188,1.07943034 Z"/>
        </g>
        <g transform="translate(10.4 5.142)">
          <path fill="url(#ic_invest_recommended_mf-f)" d="M13.388167,11.1444134 C20.0195952,11.1444134 23.0448842,10.639163 25.39543,8.56239496 C27.7459757,6.48562691 26.3902448,2.96973441 23.6801067,2.05121802 C20.9699686,1.13270163 6.5268738,0.423423784 3.09622722,2.05121802 C-0.334419356,3.67901226 -0.926202576,6.52400659 1.38090393,8.56239496 C3.68801044,10.6007833 6.7567387,11.1444134 13.388167,11.1444134 Z"/>
          <path fill="url(#ic_invest_recommended_mf-d)" d="M13.3013966,7.18994413 C19.654831,7.18994413 24.8053073,5.58042032 24.8053073,3.59497207 C24.8053073,1.60952382 19.654831,0 13.3013966,0 C6.94796225,0 1.79748603,1.60952382 1.79748603,3.59497207 C1.79748603,5.58042032 6.94796225,7.18994413 13.3013966,7.18994413 Z"/>
          <path fill="url(#ic_invest_recommended_mf-g)" d="M13.3013966,6.83044693 C19.2577414,6.83044693 24.0863128,5.38187549 24.0863128,3.59497207 C24.0863128,1.80806864 19.2577414,0.359497207 13.3013966,0.359497207 C7.3450519,0.359497207 2.51648045,1.80806864 2.51648045,3.59497207 C2.51648045,5.38187549 7.3450519,6.83044693 13.3013966,6.83044693 Z"/>
          <path fill="#FFF" d="M15.8995188,1.07943034 L11.9772498,1.27788177 L10.0789381,1.3739289 C9.86718263,1.3846429 9.70049699,1.48423902 9.70658624,1.59641239 C9.7126755,1.70858576 9.88923143,1.7908152 10.1009869,1.7801012 L11.9992986,1.68405407 C12.5718172,1.65508688 13.12275,1.77620603 13.4730612,2.00802503 C13.6380742,2.11724858 13.7514904,2.24177069 13.816277,2.37193521 L10.1432026,2.55777837 C9.93144714,2.56849237 9.76476149,2.66808849 9.77085074,2.78026186 C9.77694,2.89243522 9.95349594,2.97466467 10.1652514,2.96395067 L13.8521596,2.77740757 C13.8403603,2.81316497 13.8253235,2.84875804 13.8054755,2.88389849 C13.6595889,3.14257323 13.3069507,3.34369488 12.8125263,3.45024795 C12.0599752,3.61234007 11.2112063,3.63961341 10.389261,3.66584777 L10.2165694,3.67140336 C10.0553445,3.67518554 9.91023175,3.73510918 9.85464853,3.81770854 C9.799061,3.90022856 9.84442174,3.98893688 9.96821306,4.03970972 L14.817844,6.02805691 C14.892794,6.05878875 14.9846134,6.07108686 15.075216,6.06650273 C15.180944,6.0611533 15.2848241,6.03282833 15.3581505,5.98385526 C15.4943739,5.89295976 15.4731793,5.76532279 15.3108388,5.69876108 L11.2633887,4.03932904 C11.865683,4.00837802 12.4713407,3.95363095 13.0589852,3.82708802 C13.7934254,3.66885553 14.3191414,3.3669393 14.5391387,2.97691919 C14.5834882,2.8983088 14.6091826,2.81837516 14.6259507,2.73825676 L15.9858321,2.66945209 C16.1975876,2.65873809 16.3642733,2.55914197 16.358184,2.4469686 C16.3520948,2.33479524 16.1755388,2.25256579 15.9637833,2.26327979 L14.599559,2.33230419 C14.5219074,2.11867808 14.347777,1.91480578 14.0835012,1.73984622 C14.0017846,1.68578114 13.9099517,1.63761733 13.8139714,1.59223873 L15.9215676,1.48560262 C16.1333231,1.47488864 16.3000088,1.37529252 16.2939195,1.26311915 C16.2878302,1.15094578 16.1112743,1.06871634 15.8995188,1.07943034 Z"/>
        </g>
        <g transform="rotate(25 12.025 90.81)">
          <path fill="url(#ic_invest_recommended_mf-h)" d="M13.388167,11.1444134 C20.0195952,11.1444134 23.0448842,10.639163 25.39543,8.56239496 C27.7459757,6.48562691 26.3902448,2.96973441 23.6801067,2.05121802 C20.9699686,1.13270163 6.5268738,0.423423784 3.09622722,2.05121802 C-0.334419356,3.67901226 -0.926202576,6.52400659 1.38090393,8.56239496 C3.68801044,10.6007833 6.7567387,11.1444134 13.388167,11.1444134 Z"/>
          <path fill="url(#ic_invest_recommended_mf-d)" d="M13.3013966,7.18994413 C19.654831,7.18994413 24.8053073,5.58042032 24.8053073,3.59497207 C24.8053073,1.60952382 19.654831,0 13.3013966,0 C6.94796225,0 1.79748603,1.60952382 1.79748603,3.59497207 C1.79748603,5.58042032 6.94796225,7.18994413 13.3013966,7.18994413 Z"/>
          <path fill="url(#ic_invest_recommended_mf-e)" d="M13.3013966,6.83044693 C19.2577414,6.83044693 24.0863128,5.38187549 24.0863128,3.59497207 C24.0863128,1.80806864 19.2577414,0.359497207 13.3013966,0.359497207 C7.3450519,0.359497207 2.51648045,1.80806864 2.51648045,3.59497207 C2.51648045,5.38187549 7.3450519,6.83044693 13.3013966,6.83044693 Z"/>
          <path fill="#FFF" d="M15.8995188,1.07943034 L11.9772498,1.27788177 L10.0789381,1.3739289 C9.86718263,1.3846429 9.70049699,1.48423902 9.70658624,1.59641239 C9.7126755,1.70858576 9.88923143,1.7908152 10.1009869,1.7801012 L11.9992986,1.68405407 C12.5718172,1.65508688 13.12275,1.77620603 13.4730612,2.00802503 C13.6380742,2.11724858 13.7514904,2.24177069 13.816277,2.37193521 L10.1432026,2.55777837 C9.93144714,2.56849237 9.76476149,2.66808849 9.77085074,2.78026186 C9.77694,2.89243522 9.95349594,2.97466467 10.1652514,2.96395067 L13.8521596,2.77740757 C13.8403603,2.81316497 13.8253235,2.84875804 13.8054755,2.88389849 C13.6595889,3.14257323 13.3069507,3.34369488 12.8125263,3.45024795 C12.0599752,3.61234007 11.2112063,3.63961341 10.389261,3.66584777 L10.2165694,3.67140336 C10.0553445,3.67518554 9.91023175,3.73510918 9.85464853,3.81770854 C9.799061,3.90022856 9.84442174,3.98893688 9.96821306,4.03970972 L14.817844,6.02805691 C14.892794,6.05878875 14.9846134,6.07108686 15.075216,6.06650273 C15.180944,6.0611533 15.2848241,6.03282833 15.3581505,5.98385526 C15.4943739,5.89295976 15.4731793,5.76532279 15.3108388,5.69876108 L11.2633887,4.03932904 C11.865683,4.00837802 12.4713407,3.95363095 13.0589852,3.82708802 C13.7934254,3.66885553 14.3191414,3.3669393 14.5391387,2.97691919 C14.5834882,2.8983088 14.6091826,2.81837516 14.6259507,2.73825676 L15.9858321,2.66945209 C16.1975876,2.65873809 16.3642733,2.55914197 16.358184,2.4469686 C16.3520948,2.33479524 16.1755388,2.25256579 15.9637833,2.26327979 L14.599559,2.33230419 C14.5219074,2.11867808 14.347777,1.91480578 14.0835012,1.73984622 C14.0017846,1.68578114 13.9099517,1.63761733 13.8139714,1.59223873 L15.9215676,1.48560262 C16.1333231,1.47488864 16.3000088,1.37529252 16.2939195,1.26311915 C16.2878302,1.15094578 16.1112743,1.06871634 15.8995188,1.07943034 Z"/>
        </g>
        <g transform="translate(18.2 1.242)">
          <path fill="url(#ic_invest_recommended_mf-h)" d="M13.388167,11.1444134 C20.0195952,11.1444134 23.0448842,10.639163 25.39543,8.56239496 C27.7459757,6.48562691 26.3902448,2.96973441 23.6801067,2.05121802 C20.9699686,1.13270163 6.5268738,0.423423784 3.09622722,2.05121802 C-0.334419356,3.67901226 -0.926202576,6.52400659 1.38090393,8.56239496 C3.68801044,10.6007833 6.7567387,11.1444134 13.388167,11.1444134 Z"/>
          <path fill="url(#ic_invest_recommended_mf-d)" d="M13.3013966,7.18994413 C19.654831,7.18994413 24.8053073,5.58042032 24.8053073,3.59497207 C24.8053073,1.60952382 19.654831,0 13.3013966,0 C6.94796225,0 1.79748603,1.60952382 1.79748603,3.59497207 C1.79748603,5.58042032 6.94796225,7.18994413 13.3013966,7.18994413 Z"/>
          <path fill="url(#ic_invest_recommended_mf-e)" d="M13.3013966,6.83044693 C19.2577414,6.83044693 24.0863128,5.38187549 24.0863128,3.59497207 C24.0863128,1.80806864 19.2577414,0.359497207 13.3013966,0.359497207 C7.3450519,0.359497207 2.51648045,1.80806864 2.51648045,3.59497207 C2.51648045,5.38187549 7.3450519,6.83044693 13.3013966,6.83044693 Z"/>
          <path fill="#FFF" d="M15.8995188,1.07943034 L11.9772498,1.27788177 L10.0789381,1.3739289 C9.86718263,1.3846429 9.70049699,1.48423902 9.70658624,1.59641239 C9.7126755,1.70858576 9.88923143,1.7908152 10.1009869,1.7801012 L11.9992986,1.68405407 C12.5718172,1.65508688 13.12275,1.77620603 13.4730612,2.00802503 C13.6380742,2.11724858 13.7514904,2.24177069 13.816277,2.37193521 L10.1432026,2.55777837 C9.93144714,2.56849237 9.76476149,2.66808849 9.77085074,2.78026186 C9.77694,2.89243522 9.95349594,2.97466467 10.1652514,2.96395067 L13.8521596,2.77740757 C13.8403603,2.81316497 13.8253235,2.84875804 13.8054755,2.88389849 C13.6595889,3.14257323 13.3069507,3.34369488 12.8125263,3.45024795 C12.0599752,3.61234007 11.2112063,3.63961341 10.389261,3.66584777 L10.2165694,3.67140336 C10.0553445,3.67518554 9.91023175,3.73510918 9.85464853,3.81770854 C9.799061,3.90022856 9.84442174,3.98893688 9.96821306,4.03970972 L14.817844,6.02805691 C14.892794,6.05878875 14.9846134,6.07108686 15.075216,6.06650273 C15.180944,6.0611533 15.2848241,6.03282833 15.3581505,5.98385526 C15.4943739,5.89295976 15.4731793,5.76532279 15.3108388,5.69876108 L11.2633887,4.03932904 C11.865683,4.00837802 12.4713407,3.95363095 13.0589852,3.82708802 C13.7934254,3.66885553 14.3191414,3.3669393 14.5391387,2.97691919 C14.5834882,2.8983088 14.6091826,2.81837516 14.6259507,2.73825676 L15.9858321,2.66945209 C16.1975876,2.65873809 16.3642733,2.55914197 16.358184,2.4469686 C16.3520948,2.33479524 16.1755388,2.25256579 15.9637833,2.26327979 L14.599559,2.33230419 C14.5219074,2.11867808 14.347777,1.91480578 14.0835012,1.73984622 C14.0017846,1.68578114 13.9099517,1.63761733 13.8139714,1.59223873 L15.9215676,1.48560262 C16.1333231,1.47488864 16.3000088,1.37529252 16.2939195,1.26311915 C16.2878302,1.15094578 16.1112743,1.06871634 15.8995188,1.07943034 Z"/>
        </g>
      </g>
      <g transform="translate(4)">
        <polygon fill="#3792FC" fill-rule="nonzero" points="62 8.921 60.012 8.921 60.012 1.987 53.125 1.987 53.125 0 62 0"/>
        <polyline stroke="#3792FC" stroke-width="2.6" points="0 34 17.97 16.425 26.284 24.555 41.815 9.365 47.142 14.575 60 2"/>
      </g>
    </g>
  </g>
</svg>
