<svg width="130" height="135" viewBox="0 0 130 135" fill="none" xmlns="http://www.w3.org/2000/svg">
<path opacity="0.05" d="M65.9572 5.10881C54.9572 5.10881 35.9572 5.10881 31.9572 16.1088C27.9572 27.1088 61.2152 26.4636 68.9572 34.2056C76.6991 41.9475 89.182 41.1088 100.957 41.1088C112.732 41.1088 110.501 54.0869 119.957 52.1088C129.413 50.1307 120.957 40.2183 123.957 34.2056C123.957 28.6005 123.957 5.10881 123.957 5.10881C123.957 5.10881 84.4572 5.10881 65.9572 5.10881Z" fill="#675AF6"/>
<path opacity="0.05" d="M63.3392 124.676C102.603 110.715 120.053 142.126 120.053 124.676C120.053 107.225 99.1127 98.5 88.6424 88.0297C78.1721 77.5594 82.7542 60.1089 66.8293 60.1089C50.9043 60.1089 58.9274 69.891 41.526 77.5594C24.1246 85.2278 6.625 65.344 6.625 88.0297C6.625 110.715 24.0755 138.636 63.3392 124.676Z" fill="#675AF6"/>
<path opacity="0.05" d="M67.3405 85.6758C28.0769 71.7154 10.6264 103.126 10.6264 85.6758C10.6264 68.2253 31.567 59.5 42.0373 49.0297C52.5076 38.5594 47.9255 21.1089 63.8504 21.1089C79.7753 21.1089 71.7523 30.891 89.1537 38.5594C106.555 46.2278 124.055 26.344 124.055 49.0297C124.055 71.7154 106.604 99.6362 67.3405 85.6758Z" fill="#675AF6"/>
<path opacity="0.05" d="M15.9944 69.2652C17.4062 68.5905 18.8525 67.8119 20.1259 66.8984C20.593 66.5628 20.1328 65.9088 19.6415 66.1683C18.2816 66.8811 16.9529 67.8016 15.7418 68.7393C15.4927 68.9261 15.6726 69.4175 15.9944 69.2652Z" fill="#3792FC"/>
<path opacity="0.05" d="M108.708 82.9967C108.414 81.4603 108.03 79.8617 107.469 78.3981C107.265 77.8617 106.514 78.1385 106.639 78.6818C106.981 80.1801 107.535 81.6956 108.134 83.1074C108.255 83.3946 108.777 83.3462 108.708 82.9967Z" fill="#3792FC"/>
<path opacity="0.05" d="M21.2206 41.4342C21.1929 41.41 21.1687 41.3857 21.141 41.365C20.7915 41.0536 20.2171 40.9947 19.878 41.365C19.5355 41.7387 19.5459 42.2543 19.878 42.628C19.9023 42.6556 19.9265 42.6799 19.9472 42.7075C20.2587 43.0605 20.9057 43.0501 21.2206 42.7075C21.532 42.365 21.5943 41.7664 21.2206 41.4342Z" fill="#3792FC"/>
<path opacity="0.05" d="M101.634 46.8708C101.721 46.2983 101.705 45.7551 102.022 45.2495C102.662 44.2466 103.568 44.4974 104.446 44.9403C105.34 45.3916 106.184 45.659 107.153 45.2411C108.67 44.5851 109.385 42.2953 107.935 41.2172C107.467 40.8662 107.003 41.4428 107.066 41.8858C107.153 42.5 107.459 43.1811 106.932 43.7076C106.226 44.4138 105.398 43.8204 104.692 43.5029C103.932 43.1602 103.121 43.085 102.34 43.4026C100.99 43.95 100.008 45.7802 101.082 47.017C101.232 47.1883 101.596 47.109 101.634 46.8708Z" fill="#675AF6"/>
<path opacity="0.05" d="M85.9784 104.766C84.5911 106.098 84.0661 108.171 85.387 109.773C86.6306 111.282 89.0458 111.597 90.5989 110.398C94.3572 107.496 90.4386 102.152 86.3874 103.257C85.6357 103.462 85.8236 104.534 86.5643 104.573C87.747 104.639 89.0182 104.683 89.9633 105.518C90.9803 106.407 91.0024 107.916 90.1678 108.944C87.957 111.658 84.1213 107.662 86.4427 105.23C86.7411 104.926 86.2879 104.473 85.9784 104.766Z" fill="#675AF6"/>
<path opacity="0.05" d="M4.63469 95.9277C5.06762 97.5371 5.54289 99.1276 6.0417 100.718C6.15934 101.099 6.52168 101.222 6.85108 100.996C8.14514 100.116 9.43451 99.2546 10.6627 98.2806C10.898 98.0923 10.8462 97.7159 10.6156 97.5559C9.1804 96.5724 7.24635 95.1183 5.42525 95.1089C4.96409 95.1042 4.6394 95.7583 5.10997 96.0265C5.84406 96.45 6.72402 96.6006 7.50987 96.9253C8.41337 97.3018 9.31216 97.7441 10.1121 98.3135C10.1309 98.05 10.1498 97.7865 10.1639 97.5229C8.79453 98.3653 7.50517 99.3111 6.20639 100.252C6.4605 100.304 6.71932 100.356 6.97342 100.408C6.41815 98.8358 5.84876 97.2782 5.23231 95.7301C5.10056 95.4054 4.54528 95.5842 4.63469 95.9277Z" fill="#675AF6"/>
<path fill-rule="evenodd" clip-rule="evenodd" d="M84.0234 55.0422C84.0234 52.8331 85.8143 51.0422 88.0234 51.0422H96.6234C98.2803 51.0422 99.6234 52.3854 99.6234 54.0422V86.1756C99.6234 87.8324 98.2803 89.1756 96.6234 89.1756H88.0234C85.8143 89.1756 84.0234 87.3847 84.0234 85.1756V55.0422Z" fill="#675AF6"/>
<rect x="55.9894" y="51.2733" width="33.6667" height="14.6" transform="rotate(-10 55.9894 51.2733)" fill="#C6C2F9" stroke="#4F44D0"/>
<path fill-rule="evenodd" clip-rule="evenodd" d="M57.1094 52.3743L87.8354 46.9564L89.9423 58.9054L59.2163 64.3233L57.1094 52.3743Z" fill="#4F44D0"/>
<path d="M55.4062 52.7809C55.406 48.3056 59.0979 44.6089 63.5783 44.6089C68.0578 44.6089 71.7398 48.3048 71.7396 52.7809C71.7394 57.2562 68.0583 60.9422 63.5783 60.9422C59.0974 60.9422 55.4065 57.2554 55.4062 52.7809Z" fill="#9D95F8" stroke="#8279F8"/>
<path d="M64.0703 52.7799C64.0702 49.2549 66.9789 46.3423 70.5079 46.3423C74.0362 46.3423 76.9371 49.2541 76.937 52.7799C76.9368 56.3049 74.0367 59.209 70.5079 59.209C66.9784 59.209 64.0705 56.3041 64.0703 52.7799Z" fill="#9D95F8" stroke="#8279F8"/>
<rect x="47.625" y="51.0422" width="48.5333" height="38.1333" rx="3" fill="#B9B3F9"/>
<path d="M79.3242 70.1089C79.3242 66.5558 82.2045 63.6755 85.7576 63.6755H99.1242V76.5422H85.7576C82.2045 76.5422 79.3242 73.6619 79.3242 70.1089Z" fill="#675AF6" stroke="#4F44D0"/>
<path fill-rule="evenodd" clip-rule="evenodd" d="M85.7618 66.6423C83.8591 66.6423 82.2929 68.2107 82.293 70.1111C82.2931 72.0116 83.8592 73.5757 85.7618 73.5757C87.6643 73.5757 89.2262 72.0116 89.2263 70.1111C89.2264 68.2107 87.6645 66.6423 85.7618 66.6423Z" fill="#B9B3F9"/>
<path fill-rule="evenodd" clip-rule="evenodd" d="M85.7597 68.3755C86.7343 68.3755 87.4901 69.1371 87.4901 70.1117C87.4901 71.0866 86.7343 71.8422 85.7597 71.8422C84.7851 71.8422 84.0235 71.0866 84.0234 70.1117C84.0234 69.1371 84.785 68.3755 85.7597 68.3755Z" fill="#675AF6"/>
<path d="M63.6895 80.509L63.5744 79.6141C63.4672 78.781 64.3669 75.9284 66.2489 71.1352L64.118 70.9417C63.791 70.9122 63.513 70.7466 63.3569 70.4877C63.2008 70.2277 63.1841 69.9051 63.3111 69.6016L67.0797 60.5947C67.2903 60.0901 67.8646 59.709 68.4154 59.709L72.0437 59.7862C72.377 59.7934 72.665 59.9416 72.833 60.1924C73.0019 60.4417 73.0309 60.7647 72.9123 61.0757L70.8789 66.4137L73.0166 66.6085C73.3667 66.6399 73.6403 66.8159 73.7677 67.0907C73.8947 67.3647 73.8521 67.6869 73.6506 67.9744C73.2802 68.5009 71.3364 71.2595 69.3612 73.9603C65.231 79.6078 64.7161 79.9088 64.4688 80.0534L63.6895 80.509Z" fill="white"/>
</svg>
