<svg xmlns="http://www.w3.org/2000/svg" width="122" height="84" viewBox="0 0 122 84">
    <defs>
        <radialGradient id="prefix__b" cx="50%" cy="50%" r="169.393%" fx="50%" fy="50%" gradientTransform="matrix(.31229 .09031 -.0122 .42917 .35 .24)">
            <stop offset="0%" stop-color="#76B6FF"/>
            <stop offset="100%" stop-color="#1A70D4"/>
        </radialGradient>
        <radialGradient id="prefix__c" cx="50%" cy="50%" r="168.083%" fx="50%" fy="50%" gradientTransform="matrix(.2999 .08673 -.01125 .4293 .356 .242)">
            <stop offset="0%" stop-color="#6AAFFF"/>
            <stop offset="100%" stop-color="#1380FE"/>
        </radialGradient>
        <linearGradient id="prefix__a" x1="50%" x2="50%" y1="0%" y2="100%">
            <stop offset="0%" stop-color="#3792FC"/>
            <stop offset="100%" stop-color="#107EFF"/>
        </linearGradient>
    </defs>
    <g fill="none" fill-rule="evenodd">
        <ellipse cx="64.5" cy="71.273" fill="#F0F7FF" rx="57.5" ry="12.727"/>
        <g>
            <g fill-rule="nonzero">
                <g>
                    <path fill="#EAF4FF" d="M5.795.041c.684-.083 1.414-.054 2.05.217C9.2.833 9.585 2.434 9.566 3.735c-.02 1.4-.317 2.93.746 4.06.489.518 1.097.915 1.577 1.443.513.565.915 1.21 1.213 1.905.547 1.274.816 2.772.315 4.109-.44 1.177-1.548 2.24-1.309 3.577.25 1.396 1.655 2.464 2.534 3.503.994 1.177 1.91 2.681 2.06 4.224.145 1.479-.498 2.975-1.485 4.093-1.97 2.233-4.933 3.329-7.92 3.322-1.27-.003-2.705-.06-3.8-.743-.338-.211-.516-.448-.717-.777-.18-.295-.419-.487-.695-.696-.605-.458-1.043-1.076-1.322-1.768-1.084-2.687-.218-6.012 1.3-8.398.36-.566.654-1.11.48-1.783-.183-.704-.631-1.338-1.027-1.943-.392-.598-.839-1.168-1.145-1.814-.32-.677-.41-1.386-.354-2.126.106-1.392.706-2.676 1.555-3.795.818-1.078 1.779-2.11 1.78-3.522.003-1.497-.996-2.828-.57-4.35.176-.63.53-1.277 1.1-1.655.548-.362 1.27-.48 1.914-.56z" transform="translate(.235) translate(82.868 13.576) translate(5.494)"/>
                    <path fill="#D7EBFF" d="M5.348 2.435c.012-.202.25-.322.438-.27.247.07.242.3.236.506-.02.632.07 1.247.223 1.86.315 1.276.898 2.451 1.36 3.677.462 1.224.678 2.488.407 3.783-.255 1.222-.656 2.411-.917 3.634-.23 1.078-.475 2.215-.124 3.29.337 1.035 1.083 1.878 1.62 2.813 1.111 1.936 1.605 4.084 1.67 6.294.031 1.027.004 2.063-.234 3.07-.137.579-.32 1.362-.817 1.762-.228.185-.62.249-.812-.025-.18-.256-.022-.653.035-.926.249-1.183.299-2.391.239-3.592-.058-1.163-.195-2.324-.56-3.435-.34-1.031-.855-1.957-1.462-2.859-.618-.919-1.26-1.84-1.516-2.929-.26-1.106-.048-2.231.233-3.316.299-1.148.689-2.262 1.093-3.379.393-1.087.533-2.117.315-3.255-.429-2.25-1.577-4.361-1.427-6.703z" transform="translate(.235) translate(82.868 13.576) translate(5.494)"/>
                </g>
                <g>
                    <path fill="#D4E8FF" d="M21.712.379c.847.257 1.688.672 2.292 1.324 1.283 1.385.89 3.479.181 5.008-.763 1.646-1.918 3.3-1.267 5.19.3.867.803 1.654 1.087 2.528.304.935.435 1.909.418 2.885-.031 1.792-.507 3.704-1.8 5.024-1.137 1.162-2.997 1.84-3.423 3.548-.444 1.781.642 3.776 1.123 5.463.546 1.91.826 4.165.188 6.069-.612 1.824-2.155 3.258-3.902 4.066-3.49 1.615-7.544 1.366-11.044-.198-1.486-.664-3.14-1.48-4.064-2.858-.285-.426-.37-.798-.432-1.292-.056-.443-.234-.794-.447-1.185-.468-.858-.655-1.817-.617-2.78.147-3.743 2.917-7.223 5.957-9.255.72-.481 1.352-.971 1.503-1.859.157-.927-.033-1.91-.179-2.832-.144-.91-.367-1.818-.385-2.742-.019-.967.25-1.852.707-2.699.86-1.59 2.24-2.796 3.827-3.677 1.528-.849 3.2-1.568 3.947-3.237.793-1.77.324-3.865 1.626-5.443.54-.654 1.296-1.234 2.165-1.383.833-.144 1.743.092 2.54.335z" transform="translate(.235) translate(82.868 13.576) translate(7.644 2.392)"/>
                    <path fill="#CBE2FD" d="M19.983 3.304c.12-.231.461-.25.653-.089.252.212.126.483.01.723-.353.738-.568 1.514-.711 2.32-.298 1.676-.231 3.374-.332 5.067-.1 1.693-.508 3.303-1.502 4.695-.937 1.313-2.028 2.511-2.973 3.822-.833 1.156-1.714 2.374-1.866 3.83-.147 1.404.284 2.793.423 4.183.288 2.876-.259 5.678-1.338 8.33-.5 1.232-1.075 2.444-1.879 3.511-.463.615-1.088 1.446-1.877 1.66-.364.098-.855-.032-.937-.456-.077-.399.316-.785.526-1.079.909-1.27 1.6-2.675 2.158-4.128.54-1.408.987-2.855 1.14-4.363.143-1.398.025-2.766-.213-4.152-.242-1.413-.512-2.84-.241-4.264.275-1.446 1.11-2.668 2.007-3.805.949-1.203 1.988-2.317 3.044-3.428 1.029-1.081 1.73-2.227 2.072-3.69.674-2.888.436-5.992 1.836-8.687z" transform="translate(.235) translate(82.868 13.576) translate(7.644 2.392)"/>
                </g>
                <g>
                    <path fill="#D7E9FF" d="M3.179 0c1.408 0 2.645.747 3.498 1.808.999 1.242 1.2 2.758 1.606 4.238.202.736.549 1.467 1.157 1.968.553.455 1.255.546 1.917.768 1.323.444 2.392 1.515 2.814 2.82.514 1.594-.03 3.2.063 4.814.086 1.483 1.546 2.408 2.72 3.119 1.158.7 2.201 1.356 2.55 2.722.37 1.448.494 3.064-.018 4.494-.853 2.382-3.35 3.431-5.76 3.594-2.19.147-4.942-.085-6.586-1.676-.983-.952-1.34-2.283-1.295-3.608.027-.824.19-1.64.4-2.437.15-.564.352-1.126.41-1.709.152-1.551-1.28-1.85-2.498-2.275-1.549-.541-2.633-1.564-3.387-2.988-.702-1.327-.996-2.815-.576-4.276C.41 10.631.8 9.954 1.328 9.38c.233-.253.56-.465.77-.73.197-.25.154-.571.087-.862C1.872 6.443.899 5.329.55 3.987c-.315-1.21-.129-2.718.977-3.5C2.005.15 2.595.005 3.178 0z" transform="translate(.235) translate(82.868 13.576) translate(0 13.397)"/>
                    <path fill="#C4DEFE" d="M5.097 3.503C6.59 5.095 6.995 7.255 7.114 9.348c.067 1.174-.003 2.412.342 3.551.295.975.985 1.72 1.697 2.424 1.434 1.417 3.032 2.858 3.452 4.91.246 1.203.08 2.447.42 3.638.309 1.082.853 2.145 1.515 3.059.533.736 1.227 1.3 1.81 1.985.177.21.432.518.359.813-.086.347-.527.456-.839.402-.728-.127-1.342-.823-1.818-1.33-.696-.74-1.288-1.537-1.77-2.43-.533-.992-.963-2.045-1.147-3.158-.19-1.155-.096-2.359-.53-3.467-.733-1.865-2.51-2.965-3.795-4.419-1.6-1.811-1.362-4.065-1.198-6.293.09-1.224.18-2.607-.438-3.725-.236-.426-.762-.824-.863-1.31-.093-.444.414-.893.786-.495z" transform="translate(.235) translate(82.868 13.576) translate(0 13.397)"/>
                </g>
                <path fill="#D3E3F5" d="M6.689 43.062c0 9.104 1.483 13.875 9.316 13.875s9.316-4.77 9.316-13.875H6.69z" transform="translate(.235) translate(82.868 13.576)"/>
            </g>
            <g fill-rule="nonzero">
                <path fill="#F5F7FB" d="M18.291 60.033c5.56-4.01 13.63-12.831 14.932-16.435 1.302-3.604-4.01-2.457-4.582-6.884-.573-4.427 6.44-5.975 6.3-9.178-.138-3.204-7.292-1.632-8.591-4.59-1.3-2.958 3.142-6.342 2.29-9.752-.85-3.41-3.645-1.704-5.727-4.015C21.109 7.176 19.419.939 17.47.574c-1.948-.366-1.31 4.394-3.723 6.884-2.413 2.489-4.922 1.136-5.729 2.868-.807 1.732 5.098 1.718 1.719 5.736-3.379 4.019-8.387 1.39-9.165 4.59-.778 3.2 5.352 6.041 5.728 9.552.376 3.51-6.605 1.226-5.728 7.084.877 5.858 5.708 7.936 8.592 12.047 2.516 3.585 3.155 7.576 7.486 10.698.276.2 1.357.204 1.64 0z" transform="translate(.235) rotate(-30 34.553 5.047)"/>
                <path fill="#CBDEF6" d="M29.444 43.608c-2.81.642-5.107 1.518-6.889 2.628s-3.422 3.3-4.92 6.57v-.657c1.63-3.206 3.27-5.287 4.92-6.242 1.65-.954 3.947-1.72 6.889-2.3zM5.17 37.695c2.81.641 5.107 1.517 6.889 2.628 1.781 1.11 3.53 3.3 5.248 6.57v-.657c-1.849-3.206-3.598-5.287-5.248-6.242-1.65-.954-3.947-1.721-6.889-2.3zM32.396 27.511c-3.685.642-6.419 1.518-8.2 2.628-1.782 1.11-3.97 3.3-6.561 6.57v-.657c2.724-3.206 4.91-5.287 6.56-6.241 1.65-.955 4.384-1.722 8.201-2.3zM2.546 21.598c3.685.642 6.419 1.518 8.2 2.628 1.782 1.11 3.97 3.3 6.56 6.57v-.657c-2.723-3.206-4.91-5.287-6.56-6.241-1.65-.955-4.383-1.722-8.2-2.3zM26.009 14.574c-2.549 1.465-4.332 2.848-5.35 4.147-1.017 1.3-2.044 3.505-3.08 6.616l-.177-.485c1.15-3.1 2.207-5.225 3.17-6.374.961-1.149 2.774-2.45 5.437-3.904zM9.659 10.677c2.135.773 3.678 1.586 4.626 2.438.949.852 2.026 2.392 3.231 4.62l.07-.392c-1.292-2.205-2.38-3.68-3.266-4.425-.886-.745-2.44-1.492-4.661-2.24z" transform="translate(.235) rotate(-30 34.553 5.047)"/>
                <path fill="#CBDEF6" d="M17.467 0.574L17.963 71.506 16.979 71.506z" transform="translate(.235) rotate(-30 34.553 5.047)"/>
            </g>
            <g fill-rule="nonzero">
                <path fill="#E6F2FF" d="M14.807 48.598c4.5-3.246 11.034-10.387 12.088-13.304 1.054-2.918-3.246-1.99-3.71-5.573-.463-3.584 5.214-4.837 5.101-7.43-.112-2.594-5.903-1.32-6.955-3.715-1.052-2.395 2.544-5.135 1.854-7.895-.689-2.76-2.95-1.38-4.637-3.25C17.088 5.808 15.72.76 14.143.463c-1.576-.296-1.06 3.558-3.014 5.573-1.953 2.015-3.984.92-4.637 2.322-.653 1.402 4.126 1.391 1.391 4.644-2.735 3.253-6.79 1.124-7.42 3.715-.629 2.59 4.334 4.89 4.638 7.733.304 2.842-5.347.992-4.637 5.734.71 4.743 4.621 6.425 6.955 9.753 2.037 2.902 2.554 6.133 6.06 8.66.224.161 1.099.166 1.328 0z" transform="translate(.235) rotate(-60 47.35 26.89)"/>
                <path fill="#CBDEF6" d="M23.835 35.302c-2.275.519-4.133 1.228-5.576 2.127-1.442.899-2.77 2.672-3.983 5.319v-.532c1.32-2.596 2.647-4.28 3.983-5.053 1.336-.773 3.195-1.393 5.576-1.861zM4.185 30.515c2.275.52 4.134 1.228 5.577 2.127 1.442.9 2.858 2.672 4.248 5.319v-.532c-1.496-2.596-2.913-4.28-4.248-5.053-1.336-.773-3.195-1.393-5.577-1.861zM26.225 22.27c-2.983.52-5.196 1.23-6.638 2.128-1.443.9-3.213 2.672-5.311 5.319v-.532c2.205-2.595 3.975-4.28 5.31-5.053 1.337-.772 3.55-1.393 6.64-1.861zM2.06 17.484c2.984.52 5.197 1.229 6.64 2.128 1.442.898 3.212 2.671 5.31 5.318v-.532c-2.204-2.595-3.975-4.28-5.31-5.052-1.336-.773-3.55-1.394-6.64-1.862zM21.055 11.798c-2.063 1.186-3.507 2.305-4.33 3.357-.825 1.052-1.656 2.837-2.495 5.356l-.142-.392c.931-2.51 1.786-4.23 2.565-5.16.779-.93 2.246-1.984 4.402-3.161zM7.819 8.644c1.729.625 2.977 1.283 3.745 1.973.768.69 1.64 1.936 2.616 3.74l.056-.317c-1.045-1.785-1.926-2.98-2.644-3.582-.717-.604-1.975-1.208-3.773-1.814z" transform="translate(.235) rotate(-60 47.35 26.89)"/>
                <path fill="#CBDEF6" d="M14.14 0.464L14.541 57.886 13.745 57.886z" transform="translate(.235) rotate(-60 47.35 26.89)"/>
            </g>
            <g>
                <path fill="#E9F0FF" d="M0 51.475H59.191V53.125H0zM1.644 48.175H57.547V49.824999999999996H1.644z" transform="translate(.235) translate(34.67 18.667)"/>
                <path fill="#94C5FF" d="M3.288 21.778L55.903 21.778 55.903 46.525 3.288 46.525z" transform="translate(.235) translate(34.67 18.667)"/>
                <path fill="#F0F7FF" d="M34.622 35.66v10.865h-1.644V37.31h-6.765v9.215H24.57V35.66h10.053zM50.97 23.764v6.946h-1.645l.001 15.815h-1.644L47.68 30.71l-1.643.001v-6.946h4.932zm-8.22 0v6.946h-1.646l.001 15.815h-1.644L39.46 30.71l-1.643.001v-6.946h4.932zm-21.375 0v6.946H19.73v15.815h-1.644V30.71l-1.644.001v-6.946h4.933zm-8.221 0v6.946h-1.645v15.815H9.865V30.71l-1.644.001v-6.946h4.933z" transform="translate(.235) translate(34.67 18.667)"/>
                <path fill="#94C5FF" d="M4.933 12.526L29.595 0.33 54.259 12.526 54.259 18.478 4.933 18.478z" transform="translate(.235) translate(34.67 18.667)"/>
                <path fill="#68AEFF" d="M29.529 2.233L50.657 12.147 50.657 16.018 6.128 16.018 6.128 13.546zM1.688 17.165L57.59 17.165 57.59 23.764 1.688 23.764z" transform="translate(.235) translate(34.67 18.667)"/>
                <g transform="translate(.235) translate(34.67 18.667) translate(0 9.333)">
                    <path fill="#C5E0FF" d="M3.288 37.192L1.644 38.842 57.547 38.842 55.903 37.192zM1.644 40.492L0 42.141 59.191 42.141 57.547 40.492z"/>
                    <path fill="#2871C6" d="M29.596 28H32.978V37.333H29.596z"/>
                    <path fill="#19487F" d="M26.213 28L30.441 27.542 30.441 37.854 26.213 37.333z"/>
                    <path fill="#FFF" d="M29.212 32.574h.634c.058 0 .106.048.106.106 0 .059-.048.106-.106.106h-.634c-.058 0-.106-.047-.106-.106 0-.058.048-.106.106-.106z"/>
                    <rect width="27.059" height="5.091" x="16.066" fill="#19487F" rx="2.545"/>
                    <circle cx="18.603" cy="2.545" r="1" fill="#FFF"/>
                    <circle cx="40.588" cy="2.545" r="1" fill="#FFF"/>
                    <path fill="#FFF" fill-rule="nonzero" d="M22.346 1.412h1.33c.121 0 .232.024.33.073.1.048.178.116.234.203.056.088.085.188.085.3 0 .13-.036.241-.107.335-.07.094-.162.16-.272.195v.014c.13.025.237.089.32.192.082.103.123.224.123.364 0 .21-.067.372-.201.484-.134.112-.305.168-.513.168h-1.329V1.412zm1.19.93c.09 0 .16-.023.21-.07.05-.046.075-.106.075-.178 0-.086-.023-.152-.07-.197-.046-.045-.11-.068-.19-.068h-.721v.513h.697zm.058.98c.086 0 .156-.024.21-.074.054-.05.081-.121.081-.214 0-.084-.027-.151-.081-.203-.054-.052-.133-.079-.237-.079h-.727v.57h.754zm3.572-1.91h.615l.907 2.328h-.535l-.165-.444h-1.056l-.165.444h-.508l.907-2.328zm.666 1.473l-.22-.59-.077-.238-.068-.22h-.017l-.112.362-.033.095-.22.59h.747zm2.78-1.473h.477l.914 1.296.102.173.013.024.017-.01-.003-.051-.003-.037c-.003-.04-.005-.077-.005-.109V1.412h.477V3.74h-.477l-.896-1.276-.04-.062-.092-.162-.017.01.01.145V3.74h-.477V1.412zm4.134 0h.49v1.123l1.072-1.123h.596l-.907.947.92 1.381h-.582l-.666-1.035-.433.36v.675h-.49V1.412z"/>
                </g>
            </g>
        </g>
        <g>
            <g>
                <path fill="url(#prefix__a)" d="M8.708 7.274c4.314 0 6.282-.33 7.81-1.685 1.53-1.356.648-3.65-1.115-4.25-1.763-.6-11.158-1.063-13.39 0C-.216 2.4-.601 4.259.899 5.589c1.5 1.33 3.497 1.685 7.81 1.685z" transform="translate(74 59) translate(0 9.295)"/>
                <path fill="url(#prefix__b)" d="M8.652 4.693c4.133 0 7.483-1.05 7.483-2.347C16.135 1.051 12.785 0 8.652 0 4.519 0 1.169 1.05 1.169 2.346s3.35 2.347 7.483 2.347z" transform="translate(74 59) translate(0 9.295)"/>
                <path fill="url(#prefix__c)" d="M8.652 4.458c3.874 0 7.015-.945 7.015-2.112 0-1.166-3.14-2.111-7.015-2.111-3.874 0-7.015.945-7.015 2.111 0 1.167 3.14 2.112 7.015 2.112z" transform="translate(74 59) translate(0 9.295)"/>
                <path fill="#FFF" d="M10.342.705L7.79.834 6.556.897c-.138.007-.246.072-.242.145.004.073.118.127.256.12l1.235-.063c.372-.019.73.06.959.212.107.07.18.152.223.237l-2.39.121c-.137.007-.245.072-.242.146.004.073.12.127.257.12l2.398-.122c-.008.023-.017.046-.03.07-.095.168-.324.3-.646.369-.49.106-1.042.124-1.576.14l-.113.004c-.104.003-.199.042-.235.096-.036.054-.007.112.074.145l3.154 1.297c.05.02.109.028.168.025.068-.003.136-.021.184-.053.088-.06.075-.143-.031-.187L7.326 2.636c.392-.02.786-.056 1.168-.138.478-.103.82-.3.963-.555.029-.051.046-.104.056-.156l.885-.045c.138-.007.246-.072.242-.145-.004-.073-.119-.127-.256-.12l-.888.045c-.05-.14-.163-.272-.335-.386-.054-.036-.113-.067-.176-.097l1.371-.07c.138-.006.246-.071.242-.145-.004-.073-.118-.126-.256-.12z" transform="translate(74 59) translate(0 9.295)"/>
            </g>
            <g>
                <path fill="url(#prefix__a)" d="M8.708 7.274c4.314 0 6.282-.33 7.81-1.685 1.53-1.356.648-3.65-1.115-4.25-1.763-.6-11.158-1.063-13.39 0C-.216 2.4-.601 4.259.899 5.589c1.5 1.33 3.497 1.685 7.81 1.685z" transform="translate(74 59) rotate(20 -7.366 47.484)"/>
                <path fill="url(#prefix__b)" d="M8.652 4.693c4.133 0 7.483-1.05 7.483-2.347C16.135 1.051 12.785 0 8.652 0 4.519 0 1.169 1.05 1.169 2.346s3.35 2.347 7.483 2.347z" transform="translate(74 59) rotate(20 -7.366 47.484)"/>
                <path fill="url(#prefix__c)" d="M8.652 4.458c3.874 0 7.015-.945 7.015-2.112 0-1.166-3.14-2.111-7.015-2.111-3.874 0-7.015.945-7.015 2.111 0 1.167 3.14 2.112 7.015 2.112z" transform="translate(74 59) rotate(20 -7.366 47.484)"/>
                <path fill="#FFF" d="M10.342.705L7.79.834 6.556.897c-.138.007-.246.072-.242.145.004.073.118.127.256.12l1.235-.063c.372-.019.73.06.959.212.107.07.18.152.223.237l-2.39.121c-.137.007-.245.072-.242.146.004.073.12.127.257.12l2.398-.122c-.008.023-.017.046-.03.07-.095.168-.324.3-.646.369-.49.106-1.042.124-1.576.14l-.113.004c-.104.003-.199.042-.235.096-.036.054-.007.112.074.145l3.154 1.297c.05.02.109.028.168.025.068-.003.136-.021.184-.053.088-.06.075-.143-.031-.187L7.326 2.636c.392-.02.786-.056 1.168-.138.478-.103.82-.3.963-.555.029-.051.046-.104.056-.156l.885-.045c.138-.007.246-.072.242-.145-.004-.073-.119-.127-.256-.12l-.888.045c-.05-.14-.163-.272-.335-.386-.054-.036-.113-.067-.176-.097l1.371-.07c.138-.006.246-.071.242-.145-.004-.073-.118-.126-.256-.12z" transform="translate(74 59) rotate(20 -7.366 47.484)"/>
            </g>
            <g>
                <path fill="url(#prefix__a)" d="M8.708 7.274c4.314 0 6.282-.33 7.81-1.685 1.53-1.356.648-3.65-1.115-4.25-1.763-.6-11.158-1.063-13.39 0C-.216 2.4-.601 4.259.899 5.589c1.5 1.33 3.497 1.685 7.81 1.685z" transform="translate(74 59) rotate(-20 20.444 -2.487)"/>
                <path fill="url(#prefix__b)" d="M8.652 4.693c4.133 0 7.483-1.05 7.483-2.347C16.135 1.051 12.785 0 8.652 0 4.519 0 1.169 1.05 1.169 2.346s3.35 2.347 7.483 2.347z" transform="translate(74 59) rotate(-20 20.444 -2.487)"/>
                <path fill="url(#prefix__c)" d="M8.652 4.458c3.874 0 7.015-.945 7.015-2.112 0-1.166-3.14-2.111-7.015-2.111-3.874 0-7.015.945-7.015 2.111 0 1.167 3.14 2.112 7.015 2.112z" transform="translate(74 59) rotate(-20 20.444 -2.487)"/>
                <path fill="#FFF" d="M10.342.705L7.79.834 6.556.897c-.138.007-.246.072-.242.145.004.073.118.127.256.12l1.235-.063c.372-.019.73.06.959.212.107.07.18.152.223.237l-2.39.121c-.137.007-.245.072-.242.146.004.073.12.127.257.12l2.398-.122c-.008.023-.017.046-.03.07-.095.168-.324.3-.646.369-.49.106-1.042.124-1.576.14l-.113.004c-.104.003-.199.042-.235.096-.036.054-.007.112.074.145l3.154 1.297c.05.02.109.028.168.025.068-.003.136-.021.184-.053.088-.06.075-.143-.031-.187L7.326 2.636c.392-.02.786-.056 1.168-.138.478-.103.82-.3.963-.555.029-.051.046-.104.056-.156l.885-.045c.138-.007.246-.072.242-.145-.004-.073-.119-.127-.256-.12l-.888.045c-.05-.14-.163-.272-.335-.386-.054-.036-.113-.067-.176-.097l1.371-.07c.138-.006.246-.071.242-.145-.004-.073-.118-.126-.256-.12z" transform="translate(74 59) rotate(-20 20.444 -2.487)"/>
            </g>
        </g>
    </g>
</svg>
