<svg xmlns="http://www.w3.org/2000/svg" xmlns:xlink="http://www.w3.org/1999/xlink" width="80" height="60" viewBox="0 0 80 60">
    <defs>
        <rect id="prefix__a" width="80" height="60" x="0" y="0" rx="3"/>
    </defs>
    <g fill="none" fill-rule="evenodd">
        <mask id="prefix__b" fill="#fff">
            <use xlink:href="#prefix__a"/>
        </mask>
        <g fill="#3792FC" fill-rule="nonzero" mask="url(#prefix__b)" opacity=".05">
            <g>
                <path d="M64.184 0c-8.25 0-22.5 0-25.5 8.25s21.943 7.766 27.75 13.573C72.24 27.629 81.603 27 90.434 27s7.158 9.734 14.25 8.25.75-8.918 3-13.427V0h-43.5zM24.72 71.675c29.448-10.47 42.536 13.088 42.536 0S51.55 52.043 43.698 44.191c-7.853-7.853-4.417-20.941-16.36-20.941-11.944 0-5.927 7.337-18.978 13.088-13.05 5.751-13.088 45.807 16.36 35.337z" transform="translate(-17.435 -12)"/>
                <path d="M73.47 57.425c-29.448-10.47-42.535 13.088-42.535 0S46.64 37.793 54.493 29.941C62.345 22.088 58.909 9 70.853 9c11.943 0 5.926 7.337 18.977 13.088 13.051 5.751 26.176-9.162 26.176 7.853 0 17.014-13.088 37.954-42.536 27.484zM26.712 37.617c1.058-.506 2.143-1.09 3.098-1.775.35-.252.005-.742-.363-.547-1.02.534-2.017 1.225-2.925 1.928-.187.14-.052.508.19.394z" transform="translate(-17.435 -12)"/>
                <path d="M96.247 47.916c-.22-1.152-.509-2.351-.93-3.45-.152-.401-.715-.194-.622.214.257 1.123.672 2.26 1.121 3.319.09.215.483.179.43-.083zM30.631 16.744c-.02-.018-.039-.036-.06-.052-.262-.233-.692-.278-.947 0-.257.28-.249.667 0 .947.019.021.037.04.052.06.234.265.72.257.955 0 .234-.257.28-.706 0-.955zM90.941 20.821c.066-.429.053-.836.291-1.216.48-.752 1.16-.564 1.818-.231.67.338 1.304.539 2.03.225 1.139-.492 1.674-2.21.587-3.018-.351-.263-.699.17-.652.502.066.46.295.971-.1 1.366-.53.53-1.15.085-1.68-.154-.57-.257-1.178-.313-1.764-.075-1.013.41-1.75 1.783-.944 2.711.113.129.386.069.414-.11zM79.2 64.243c-1.04.999-1.435 2.553-.444 3.755.933 1.132 2.744 1.368 3.909.469 2.819-2.176-.12-6.185-3.159-5.356-.563.154-.422.958.133.987.887.05 1.84.083 2.55.709.762.667.779 1.799.153 2.57-1.658 2.035-4.535-.962-2.794-2.786.224-.228-.116-.568-.348-.348zM18.192 57.614c.325 1.207.681 2.4 1.055 3.593.088.286.36.378.607.208.97-.66 1.938-1.306 2.859-2.036.176-.141.137-.424-.035-.544-1.077-.737-2.527-1.828-3.893-1.835-.346-.004-.59.487-.237.688.55.318 1.21.43 1.8.674.678.283 1.352.614 1.952 1.041.014-.197.028-.395.039-.592-1.027.631-1.994 1.34-2.968 2.047l.575.116c-.417-1.179-.844-2.347-1.306-3.508-.099-.244-.515-.11-.448.148z" transform="translate(-17.435 -12)"/>
            </g>
        </g>
        <g mask="url(#prefix__b)">
            <g transform="translate(20 15)">
                <g transform="translate(9.784 11.85)">
                    <path fill="#98C7FF" d="M9.114.412L.11 16.067c-.316.55.08 1.237.712 1.237h18.005c.632 0 1.028-.687.711-1.237L10.537.412c-.316-.55-1.107-.55-1.423 0z"/>
                    <path fill="#FFF" fill-rule="nonzero" d="M9.825 10.665c-.485 0-.886-.381-.913-.868L8.71 6.089c-.035-.642.474-1.183 1.115-1.183s1.15.54 1.116 1.183l-.202 3.708c-.027.487-.428.868-.914.868z"/>
                    <ellipse cx="9.825" cy="13.888" fill="#FFF" fill-rule="nonzero" rx="1.158" ry="1.163"/>
                </g>
                <path fill="#A6CFFF" d="M19.61.035c-3.54 0-6.86.942-9.727 2.588l3.08 5.356c1.962-1.123 4.23-1.766 6.647-1.766 2.416 0 4.685.643 6.647 1.766l3.08-5.356C26.47.977 23.149.035 19.61.035z"/>
                <path fill="#86BEFF" d="M29.337 2.623l-3.08 5.356c3.95 2.262 6.657 6.474 6.807 11.322.008.237.2.427.437.427h5.28c.246 0 .444-.204.438-.451-.16-7.133-4.097-13.33-9.882-16.654z"/>
                <ellipse cx="3.268" cy="24.942" fill="#E0EEFF" fill-rule="nonzero" rx="1.96" ry="1.968"/>
                <ellipse cx="36.613" cy="24.286" fill="#86BEFF" fill-rule="nonzero" rx="1.96" ry="1.968"/>
                <path fill="#FFF" d="M9.883 2.623c-1.16.667-2.246 1.448-3.241 2.33l.472 1.768c.075.28-.18.536-.46.461l-1.76-.474C1.936 10.074.107 14.463 0 19.278c-.005.246.193.45.438.45h5.28c.237 0 .43-.19.437-.427.15-4.848 2.857-9.06 6.807-11.322l-3.08-5.356z"/>
                <path fill="#449AFF" stroke="#3792FC" stroke-opacity=".372" d="M7.114 6.721L5.96 2.4c-.075-.28-.424-.374-.628-.169l-3.15 3.164c-.205.205-.111.554.168.63l4.304 1.157c.278.075.534-.18.459-.46h0z"/>
            </g>
        </g>
    </g>
</svg>
