<svg width="80" height="61" viewBox="0 0 80 61" fill="none" xmlns="http://www.w3.org/2000/svg">
<rect y="0.582031" width="80" height="60" rx="3" fill="white"/>
<mask id="mask0" mask-type="alpha" maskUnits="userSpaceOnUse" x="0" y="0" width="80" height="61">
<rect y="0.582031" width="80" height="60" rx="3" fill="white"/>
<rect y="0.582031" width="80" height="60" rx="3" stroke="white"/>
</mask>
<g mask="url(#mask0)">
</g>
<path fill-rule="evenodd" clip-rule="evenodd" d="M39.8988 27.8451L30.8965 43.4994C30.5802 44.0494 30.9755 44.7368 31.6081 44.7368H49.613C50.2456 44.7368 50.6409 44.0493 50.3246 43.4994L41.3221 27.8451C41.0058 27.2951 40.2151 27.2951 39.8988 27.8451Z" fill="#675AF6"/>
<path d="M40.6092 38.0975C40.1235 38.0975 39.7224 37.7163 39.6959 37.2294L39.4939 33.5215C39.4589 32.879 39.9683 32.3389 40.6092 32.3389C41.25 32.3389 41.7595 32.8791 41.7244 33.5215L41.5224 37.2294C41.4959 37.7163 41.0949 38.0975 40.6092 38.0975Z" fill="white"/>
<ellipse cx="40.6111" cy="41.3207" rx="1.15796" ry="1.16254" fill="white"/>
<path fill-rule="evenodd" clip-rule="evenodd" d="M40.61 15.6172C37.0703 15.6172 33.7497 16.5585 30.8828 18.2053L33.9626 23.5609C35.9248 22.4375 38.194 21.7952 40.6099 21.7952C43.0258 21.7952 45.2951 22.4375 47.2572 23.5609L50.3371 18.2054C47.4704 16.5586 44.1497 15.6172 40.61 15.6172Z" fill="#9D95F8"/>
<path fill-rule="evenodd" clip-rule="evenodd" d="M50.3376 18.2051L47.2578 23.5606C51.2086 25.8226 53.9143 30.0349 54.0649 34.8824C54.0722 35.1201 54.2651 35.3092 54.5018 35.3092H59.7818C60.028 35.3092 60.2256 35.1054 60.22 34.8583C60.0604 27.7253 56.123 21.5285 50.3376 18.2051V18.2051Z" fill="#8279F8"/>
<ellipse cx="24.2648" cy="40.5245" rx="1.96011" ry="1.96786" fill="#EFEEFB"/>
<ellipse cx="57.6125" cy="39.8673" rx="1.96011" ry="1.96786" fill="#8279F8"/>
<path fill-rule="evenodd" clip-rule="evenodd" d="M30.8826 18.2051C29.7229 18.8712 28.6375 19.6529 27.6419 20.5344L28.1139 22.3029C28.1886 22.5827 27.9335 22.8388 27.6548 22.7638L25.8933 22.2899C22.9366 25.656 21.1077 30.0444 21.0001 34.8593C20.9946 35.106 21.1926 35.3092 21.4384 35.3092H26.7184C26.9552 35.3092 27.148 35.1201 27.1554 34.8824C27.3059 30.0349 30.0117 25.8226 33.9624 23.5606L30.8826 18.2051Z" fill="#EFEEFB"/>
<path fill-rule="evenodd" clip-rule="evenodd" d="M28.1117 22.3035L26.9584 17.9823C26.8837 17.7024 26.5353 17.6087 26.3313 17.8136L23.1803 20.977C22.9763 21.1818 23.0696 21.5316 23.3484 21.6066L27.6526 22.7644C27.9313 22.8394 28.1864 22.5833 28.1117 22.3035Z" fill="#675AF6"/>
</svg>
