<svg width="20" height="21" viewBox="0 0 20 21" fill="none" xmlns="http://www.w3.org/2000/svg">
<g clip-path="url(#clip0)">
<path d="M5 0.582031H15C16.3807 0.582031 17.5 1.70132 17.5 3.08203V18.082C17.5 19.4627 16.3807 20.582 15 20.582H5C3.61929 20.582 2.5 19.4627 2.5 18.082V3.08203C2.5 1.70132 3.61929 0.582031 5 0.582031ZM5 1.58203C4.17157 1.58203 3.5 2.2536 3.5 3.08203V18.082C3.5 18.9105 4.17157 19.582 5 19.582H15C15.8284 19.582 16.5 18.9105 16.5 18.082V3.08203C16.5 2.2536 15.8284 1.58203 15 1.58203H5Z" fill="#675AF6"/>
<path d="M9 18.582H11C11.2761 18.582 11.5 18.3582 11.5 18.082C11.5 17.8059 11.2761 17.582 11 17.582H9C8.72386 17.582 8.5 17.8059 8.5 18.082C8.5 18.3582 8.72386 18.582 9 18.582ZM6 2.58203H14C15.1046 2.58203 16 3.47746 16 4.58203V14.582C16 15.6866 15.1046 16.582 14 16.582H6C4.89543 16.582 4 15.6866 4 14.582V4.58203C4 3.47746 4.89543 2.58203 6 2.58203ZM6 3.58203C5.44772 3.58203 5 4.02975 5 4.58203V14.582C5 15.1343 5.44772 15.582 6 15.582H14C14.5523 15.582 15 15.1343 15 14.582V4.58203C15 4.02975 14.5523 3.58203 14 3.58203H6Z" fill="#675AF6"/>
</g>
<defs>
<clipPath id="clip0">
<rect width="20" height="20" fill="white" transform="translate(0 0.582031)"/>
</clipPath>
</defs>
</svg>
