<svg width="100" height="78" viewBox="0 0 100 78" fill="none" xmlns="http://www.w3.org/2000/svg">
<mask id="mask0" mask-type="alpha" maskUnits="userSpaceOnUse" x="0" y="0" width="100" height="77">
<path d="M0 0.582031H100V76.772H0V0.582031Z" fill="white"/>
</mask>
<g mask="url(#mask0)">
<path opacity="0.5" d="M50.0008 74.3908C75.4235 74.3908 96.0327 73.5026 96.0327 72.4068C96.0327 71.3111 75.4235 70.4229 50.0008 70.4229C24.578 70.4229 3.96875 71.3111 3.96875 72.4068C3.96875 73.5026 24.578 74.3908 50.0008 74.3908Z" fill="url(#paint0_linear)"/>
<path fill-rule="evenodd" clip-rule="evenodd" d="M89.9764 17.327C89.9764 17.327 91.1384 19.401 90.5924 21.432C90.1654 23.023 88.8164 24.117 88.2544 24.515C88.8404 25.686 89.3204 26.91 89.6904 28.165C89.7204 27.439 89.8734 26.594 90.3124 25.833C91.3644 24.013 93.6524 23.366 93.6524 23.366C93.6524 23.366 94.2374 25.671 93.1864 27.493C92.3584 28.927 90.7614 29.633 90.1214 29.868C90.3894 31.126 90.5484 32.408 90.5954 33.695C90.8144 33.019 91.1774 32.272 91.7794 31.67C93.2644 30.184 95.6454 30.152 95.6454 30.152C95.6454 30.152 95.6144 32.53 94.1254 34.017C92.9734 35.167 91.2864 35.447 90.5854 35.514C90.5284 36.761 90.3634 38.005 90.0864 39.232C90.4664 38.668 90.9894 38.088 91.6834 37.688C93.5034 36.638 95.8094 37.222 95.8094 37.222C95.8094 37.222 95.1644 39.509 93.3424 40.562C91.9574 41.362 90.2904 41.214 89.5724 41.098C89.4794 41.387 89.3794 41.674 89.2724 41.958C88.9354 42.856 88.5404 43.723 88.0934 44.555C88.6074 44.107 89.2634 43.682 90.0364 43.474C92.0674 42.929 94.1414 44.091 94.1414 44.091C94.1414 44.091 92.9244 46.136 90.8934 46.681C89.3374 47.098 87.7554 46.513 87.1014 46.217C86.3974 47.286 85.6024 48.286 84.7314 49.209C85.3544 48.897 86.1194 48.641 86.9454 48.641C89.0474 48.641 90.7524 50.3 90.7524 50.3C90.7524 50.3 89.0474 51.959 86.9454 51.96C85.3184 51.96 83.9294 50.966 83.3854 50.516C82.4414 51.362 81.4264 52.126 80.3554 52.798C81.0334 52.661 81.8314 52.614 82.6234 52.826C84.6524 53.37 85.8724 55.413 85.8724 55.413C85.8724 55.413 83.7964 56.577 81.7634 56.033C80.2074 55.615 79.1294 54.317 78.7104 53.733C77.6214 54.299 76.4834 54.773 75.3114 55.15C75.9684 55.204 76.6974 55.37 77.3624 55.754C79.1834 56.805 79.8304 59.094 79.8304 59.094C79.8304 59.094 77.5244 59.679 75.7034 58.628C74.3474 57.845 73.6424 56.375 73.3714 55.676C72.2214 55.933 71.0454 56.096 69.8554 56.161C70.4304 56.385 71.0284 56.72 71.5274 57.218C73.0114 58.705 73.0454 61.084 73.0454 61.084C73.0454 61.084 70.6674 61.053 69.1804 59.564C68.1014 58.484 67.7894 56.933 67.6984 56.165C67.3344 56.149 66.9684 56.122 66.6034 56.085C65.8014 56.004 65.0044 55.879 64.2184 55.71C64.6984 56.07 65.1684 56.535 65.5084 57.124C66.5584 58.944 65.9744 61.251 65.9744 61.251C65.9744 61.251 63.6864 60.606 62.6344 58.784C61.8774 57.473 61.9684 55.909 62.0784 55.137C60.7434 54.71 59.4504 54.154 58.2254 53.477L57.8594 53.271L58.2034 52.677C59.4794 53.414 60.8354 54.015 62.2414 54.471C62.4874 53.81 63.1934 52.251 64.6044 51.436C66.4244 50.386 68.7314 50.97 68.7314 50.97C68.7314 50.97 68.0844 53.26 66.2644 54.31C65.4924 54.756 64.6344 54.907 63.9004 54.934C64.8114 55.151 65.7384 55.308 66.6724 55.402C67.0104 55.436 67.3494 55.462 67.6864 55.479C67.7564 54.764 68.0404 53.099 69.1804 51.961C70.6674 50.472 73.0444 50.441 73.0444 50.441C73.0444 50.441 73.0114 52.821 71.5274 54.307C70.9284 54.907 70.1854 55.27 69.5114 55.49C70.7574 55.441 71.9884 55.28 73.1914 55.013C73.0774 54.276 72.9484 52.643 73.7344 51.28C74.7864 49.46 77.0744 48.813 77.0744 48.813C77.0744 48.813 77.6594 51.118 76.6084 52.939C76.2274 53.599 75.6834 54.105 75.1454 54.482C76.2594 54.122 77.3414 53.67 78.3794 53.135C78.0734 52.429 77.5634 50.924 77.9594 49.445C78.5044 47.415 80.5474 46.196 80.5474 46.196C80.5474 46.196 81.7074 48.273 81.1654 50.303C80.9844 50.981 80.6354 51.568 80.2534 52.049C81.1894 51.442 82.0794 50.763 82.9134 50.019C82.4324 49.409 81.5664 48.097 81.5664 46.579C81.5664 44.477 83.2264 42.772 83.2264 42.772C83.2264 42.772 84.8844 44.477 84.8854 46.579C84.8854 47.277 84.7024 47.931 84.4584 48.493C85.2084 47.675 85.8964 46.796 86.5134 45.863C85.8934 45.403 84.7034 44.356 84.3074 42.878C83.7994 40.982 84.7784 39.047 84.9114 38.798L84.9254 38.77C84.9254 38.77 86.9684 39.986 87.5134 42.017C87.7004 42.72 87.6844 43.427 87.5834 44.053C87.9764 43.303 88.3274 42.523 88.6294 41.718C88.7294 41.45 88.8244 41.181 88.9124 40.911C88.2004 40.629 86.7664 39.926 85.9974 38.593C84.9474 36.773 85.5314 34.466 85.5314 34.466C85.5314 34.466 87.8214 35.112 88.8714 36.933C89.2314 37.557 89.3994 38.237 89.4654 38.863C89.7034 37.751 89.8474 36.623 89.9004 35.494C89.1254 35.402 87.5914 35.085 86.5214 34.016C85.0334 32.53 85.0054 30.148 85.0054 30.148C85.0054 30.148 87.3834 30.183 88.8694 31.668C89.3384 32.137 89.6624 32.694 89.8864 33.237C89.8224 32.157 89.6774 31.082 89.4534 30.024C88.6714 30.131 87.1344 30.209 85.8414 29.463C84.0214 28.409 83.3764 26.123 83.3764 26.123C83.3764 26.123 85.6794 25.538 87.5004 26.589C88.0604 26.912 88.5074 27.351 88.8604 27.805C88.5304 26.789 88.1274 25.796 87.6514 24.838C86.9254 25.144 85.4534 25.624 84.0064 25.238C82.1144 24.728 80.9304 22.922 80.7764 22.676L80.7594 22.648C80.7594 22.648 82.8354 21.488 84.8654 22.029C85.5224 22.206 86.0934 22.539 86.5654 22.909C85.9004 21.855 85.1404 20.859 84.2904 19.934C83.5204 19.696 82.1404 19.126 81.3004 17.941C80.0834 16.226 80.4484 13.875 80.4484 13.875C80.4484 13.875 82.7854 14.305 84.0044 16.02C84.8774 17.25 84.9364 18.805 84.9004 19.586C85.8334 20.614 86.6594 21.728 87.3724 22.906C87.2254 22.216 87.1684 21.391 87.3874 20.574C87.9334 18.543 89.9764 17.327 89.9764 17.327Z" fill="#E8E0FF"/>
<path fill-rule="evenodd" clip-rule="evenodd" d="M8.09272 17.3377C8.09272 17.3377 10.1357 18.5537 10.6827 20.5847C10.9007 21.4027 10.8427 22.2277 10.6967 22.9207C11.4107 21.7407 12.2367 20.6257 13.1697 19.5957C13.1347 18.8147 13.1947 17.2587 14.0667 16.0297C15.2837 14.3157 17.6227 13.8857 17.6227 13.8857C17.6227 13.8857 17.9877 16.2357 16.7717 17.9507C15.9297 19.1357 14.5507 19.7067 13.7797 19.9457C12.9297 20.8697 12.1697 21.8667 11.5037 22.9197C11.9767 22.5497 12.5477 22.2157 13.2057 22.0397C15.2357 21.4967 17.3127 22.6577 17.3127 22.6577C17.3127 22.6577 16.0937 24.7027 14.0657 25.2477C12.6157 25.6337 11.1447 25.1537 10.4197 24.8477C9.94372 25.8057 9.53972 26.7977 9.20972 27.8147C9.56372 27.3607 10.0117 26.9217 10.5697 26.5987C12.3917 25.5477 14.6967 26.1327 14.6967 26.1327C14.6967 26.1327 14.0497 28.4187 12.2297 29.4727C10.9377 30.2187 9.40172 30.1407 8.61772 30.0327C8.39372 31.0927 8.24772 32.1677 8.18472 33.2477C8.40872 32.7047 8.73272 32.1477 9.20172 31.6777C10.6877 30.1937 13.0657 30.1577 13.0657 30.1577C13.0657 30.1577 13.0377 32.5407 11.5497 34.0267C10.4797 35.0957 8.94672 35.4117 8.17172 35.5047C8.22372 36.6327 8.36772 37.7597 8.60572 38.8717C8.67172 38.2467 8.83972 37.5667 9.19972 36.9427C10.2497 35.1227 12.5397 34.4757 12.5397 34.4757C12.5397 34.4757 13.1237 36.7827 12.0737 38.6027C11.3047 39.9347 9.87272 40.6387 9.15872 40.9207C9.24672 41.1907 9.34172 41.4607 9.44172 41.7277C9.74372 42.5327 10.0937 43.3107 10.4877 44.0617C10.3867 43.4357 10.3707 42.7287 10.5577 42.0267C11.1027 39.9967 13.1457 38.7807 13.1457 38.7807C13.1457 38.7807 14.3087 40.8567 13.7637 42.8877C13.3677 44.3667 12.1777 45.4127 11.5587 45.8727C12.1747 46.8057 12.8627 47.6847 13.6127 48.5027C13.3687 47.9407 13.1857 47.2867 13.1857 46.5897C13.1857 44.4877 14.8457 42.7827 14.8457 42.7827C14.8457 42.7827 16.5057 44.4867 16.5057 46.5887C16.5047 48.1067 15.6387 49.4187 15.1587 50.0287C15.9917 50.7737 16.8817 51.4527 17.8187 52.0587C17.4347 51.5777 17.0867 50.9907 16.9057 50.3127C16.3637 48.2827 17.5237 46.2067 17.5237 46.2067C17.5237 46.2067 19.5667 47.4267 20.1107 49.4547C20.5077 50.9337 19.9977 52.4387 19.6917 53.1457C20.7277 53.6787 21.8067 54.1297 22.9177 54.4897C22.3817 54.1137 21.8407 53.6087 21.4607 52.9507C20.4087 51.1307 20.9937 48.8247 20.9937 48.8247C20.9937 48.8247 23.2827 49.4707 24.3337 51.2917C25.1197 52.6517 24.9917 54.2837 24.8767 55.0217C26.0807 55.2887 27.3117 55.4517 28.5587 55.4997C27.8847 55.2797 27.1427 54.9167 26.5447 54.3177C25.0597 52.8307 25.0267 50.4517 25.0267 50.4517C25.0267 50.4517 27.4047 50.4817 28.8907 51.9707C30.0307 53.1087 30.3137 54.7737 30.3847 55.4887C30.7227 55.4717 31.0607 55.4457 31.3987 55.4117C32.3337 55.3177 33.2607 55.1617 34.1717 54.9447C33.4387 54.9177 32.5787 54.7657 31.8067 54.3207C29.9867 53.2707 29.3397 50.9807 29.3397 50.9807C29.3397 50.9807 31.6457 50.3957 33.4667 51.4467C34.8777 52.2607 35.5837 53.8197 35.8297 54.4797C37.1067 54.0667 38.3417 53.5337 39.5147 52.8867L39.8687 52.6867L40.2117 53.2817C38.8777 54.0517 37.4607 54.6777 35.9917 55.1497C36.1007 55.9197 36.1917 57.4837 35.4347 58.7957C34.3847 60.6157 32.0947 61.2627 32.0947 61.2627C32.0947 61.2627 31.5107 58.9567 32.5607 57.1357C32.9007 56.5457 33.3707 56.0807 33.8507 55.7187C33.0657 55.8887 32.2697 56.0137 31.4677 56.0947C31.1017 56.1317 30.7367 56.1587 30.3717 56.1767C30.2817 56.9427 29.9697 58.4937 28.8917 59.5747C27.4037 61.0627 25.0267 61.0947 25.0267 61.0947C25.0267 61.0947 25.0597 58.7147 26.5447 57.2287C27.0427 56.7297 27.6407 56.3947 28.2157 56.1687C27.0257 56.1067 25.8497 55.9427 24.6987 55.6867C24.4287 56.3837 23.7227 57.8547 22.3657 58.6387C20.5447 59.6907 18.2387 59.1057 18.2387 59.1057C18.2387 59.1057 18.8857 56.8167 20.7067 55.7657C21.3727 55.3807 22.1047 55.2157 22.7637 55.1597C21.5907 54.7847 20.4517 54.3097 19.3597 53.7457C18.9407 54.3287 17.8637 55.6257 16.3077 56.0437C14.2747 56.5867 12.1997 55.4227 12.1997 55.4227C12.1997 55.4227 13.4197 53.3807 15.4477 52.8357C16.2397 52.6237 17.0377 52.6707 17.7177 52.8077C16.6447 52.1357 15.6297 51.3717 14.6847 50.5267C14.1417 50.9757 12.7527 51.9697 11.1257 51.9697C9.02372 51.9697 7.31872 50.3097 7.31872 50.3097C7.31872 50.3097 9.02372 48.6497 11.1257 48.6497C11.9517 48.6507 12.7167 48.9077 13.3407 49.2187C12.4687 48.2957 11.6737 47.2957 10.9697 46.2267C10.3157 46.5227 8.73372 47.1067 7.17772 46.6907C5.14672 46.1467 3.92972 44.1007 3.92972 44.1007C3.92972 44.1007 6.00372 42.9397 8.03472 43.4837C8.80872 43.6917 9.46472 44.1167 9.97872 44.5637C9.53072 43.7337 9.13672 42.8667 8.79872 41.9687C8.69272 41.6837 8.59172 41.3977 8.49872 41.1087C7.78272 41.2237 6.11472 41.3717 4.72872 40.5717C2.90672 39.5187 2.26172 37.2317 2.26172 37.2317C2.26172 37.2317 4.56772 36.6477 6.38872 37.6977C7.08072 38.0977 7.60372 38.6777 7.98572 39.2417C7.70772 38.0147 7.54272 36.7707 7.48472 35.5237C6.78472 35.4567 5.09772 35.1767 3.94472 34.0267C2.45772 32.5397 2.42872 30.1617 2.42872 30.1617C2.42872 30.1617 4.80672 30.1947 6.29372 31.6797C6.89372 32.2817 7.25772 33.0277 7.47672 33.7037C7.52272 32.4177 7.68172 31.1377 7.94872 29.8797C7.31172 29.6467 5.71172 28.9417 4.88272 27.5047C3.83072 25.6847 4.41572 23.3787 4.41572 23.3787C4.41572 23.3787 6.70472 24.0247 7.75572 25.8457C8.19572 26.6087 8.34972 27.4557 8.37872 28.1827C8.74872 26.9257 9.22872 25.7017 9.81272 24.5267C9.25272 24.1307 7.90372 23.0367 7.47672 21.4447C6.93272 19.4117 8.09272 17.3387 8.09272 17.3387V17.3377Z" fill="#E8E0FF"/>
<path fill-rule="evenodd" clip-rule="evenodd" d="M24.875 6.41113H76.11V70.4551H24.875V6.41113Z" fill="#EEEEEE"/>
<g filter="url(#filter0_d)">
<path d="M23.8086 5.34375H75.0436V69.3867H23.8086V5.34375Z" fill="#161A2E"/>
</g>
<path d="M23.8086 5.34375H75.0436V69.3867H23.8086V5.34375Z" fill="#FAFCFF"/>
<path fill-rule="evenodd" clip-rule="evenodd" d="M31.2812 58.714H67.5723V59.781H31.2812V58.714ZM53.6962 53.377H67.5723V54.444H53.6962V53.377ZM41.9552 53.377H51.5623V54.444H41.9552V53.377ZM31.2812 53.377H39.8202V54.444H31.2812V53.377Z" fill="#E8ECF1"/>
<path fill-rule="evenodd" clip-rule="evenodd" d="M44.0893 48.04H69.7062V49.107H44.0893V48.04ZM31.2812 48.04H39.8202V49.107H31.2812V48.04Z" fill="#878787"/>
<path fill-rule="evenodd" clip-rule="evenodd" d="M92.0653 48.2012C91.8612 51.8312 90.1132 55.0272 87.5042 57.0482C87.7393 57.3222 87.8822 57.6772 87.8853 58.0652C87.8923 58.9412 87.1873 59.6582 86.3113 59.6652C85.6093 59.6712 85.0093 59.2192 84.7943 58.5882C83.6243 59.0462 82.3592 59.3002 81.0382 59.3112C79.6103 59.3242 78.2432 59.0512 76.9853 58.5432C75.7273 59.0512 74.3603 59.3242 72.9333 59.3112C71.6123 59.3012 70.3472 59.0462 69.1762 58.5882C68.9622 59.2182 68.3623 59.6712 67.6603 59.6662C66.7843 59.6582 66.0782 58.9412 66.0852 58.0662C66.0893 57.6762 66.2312 57.3222 66.4672 57.0482C63.8562 55.0282 62.1102 51.8322 61.9062 48.2012L76.9853 48.3312L92.0653 48.2012ZM88.8902 49.7872L83.9422 49.8302C83.3362 53.0372 81.5083 55.7722 78.9993 57.4682C79.6432 57.6412 80.3193 57.7292 81.0142 57.7232C85.2253 57.6892 88.6432 54.1852 88.8902 49.7872ZM65.0803 49.7872C65.3282 54.1852 68.7462 57.6892 72.9572 57.7232C73.6532 57.7292 74.3283 57.6412 74.9733 57.4682C72.4633 55.7722 70.6353 53.0382 70.0293 49.8302L65.0803 49.7872ZM76.9853 49.8912L73.0173 49.9252C73.2213 52.7872 74.7673 55.2472 76.9853 56.6032C79.2043 55.2472 80.7502 52.7872 80.9543 49.9252L76.9853 49.8912Z" fill="#FFDA2C"/>
<path fill-rule="evenodd" clip-rule="evenodd" d="M75.3711 61.7061L78.494 61.6809L78.5971 68.0293L75.4742 68.0544L75.3711 61.7061Z" fill="#FFDA2C"/>
<path fill-rule="evenodd" clip-rule="evenodd" d="M67.4609 47.5572L67.5149 54.0872C67.5569 59.2072 71.8449 63.3242 77.0889 63.2802C82.3329 63.2392 86.5489 59.0532 86.5079 53.9342L86.4529 47.4072L67.4609 47.5572Z" fill="#FFDA2C"/>
<path fill-rule="evenodd" clip-rule="evenodd" d="M69.0479 47.5439L69.0979 53.4199C69.1359 58.0269 73.0669 61.7319 77.8739 61.6919C82.5819 61.6559 86.3879 58.0409 86.5049 53.5619L86.5079 53.9339C86.5499 59.0529 82.3329 63.2389 77.0879 63.2799C71.8449 63.3239 67.5579 59.2069 67.5149 54.0879L67.4609 47.5569L69.0479 47.5439Z" fill="#FFDA2C"/>
<path fill-rule="evenodd" clip-rule="evenodd" d="M69.445 67.3106L84.492 67.1876C85.596 67.1776 86.499 68.0666 86.508 69.1706L86.524 71.1396L67.477 71.2946L67.461 69.3266C67.452 68.2226 68.341 67.3196 69.445 67.3106Z" fill="#FFDA2C"/>
<path fill-rule="evenodd" clip-rule="evenodd" d="M66.662 71.3009L87.296 71.1319C87.734 71.1289 88.093 71.4809 88.096 71.9189C88.1 72.3579 87.747 72.7159 87.309 72.7189L66.675 72.8889C66.236 72.8919 65.878 72.5389 65.875 72.1009C65.871 71.6629 66.223 71.3049 66.662 71.3009Z" fill="#B39712"/>
<path d="M71.4228 68.881L82.5338 68.791C82.9728 68.787 83.3308 69.139 83.3338 69.577C83.3378 70.016 82.9858 70.374 82.5468 70.377L71.4368 70.468C70.9978 70.472 70.6398 70.12 70.6368 69.681C70.6328 69.243 70.9848 68.885 71.4228 68.881Z" fill="#B39712"/>
<path fill-rule="evenodd" clip-rule="evenodd" d="M44.5805 43.4391L47.2125 31.5091H42.8555L53.8495 15.6611L52.0365 27.5331H56.6565L44.5805 43.4391Z" fill="#675AF6"/>
</g>
<defs>
<filter id="filter0_d" x="21.8086" y="4.34375" width="55.235" height="68.043" filterUnits="userSpaceOnUse" color-interpolation-filters="sRGB">
<feFlood flood-opacity="0" result="BackgroundImageFix"/>
<feColorMatrix in="SourceAlpha" type="matrix" values="0 0 0 0 0 0 0 0 0 0 0 0 0 0 0 0 0 0 127 0"/>
<feOffset dy="1"/>
<feGaussianBlur stdDeviation="1"/>
<feColorMatrix type="matrix" values="0 0 0 0 0 0 0 0 0 0 0 0 0 0 0 0 0 0 0.0440444 0"/>
<feBlend mode="normal" in2="BackgroundImageFix" result="effect1_dropShadow"/>
<feBlend mode="normal" in="SourceGraphic" in2="effect1_dropShadow" result="shape"/>
</filter>
<linearGradient id="paint0_linear" x1="3.96875" y1="74.3663" x2="94.8957" y2="74.3663" gradientUnits="userSpaceOnUse">
<stop stop-color="#F4F4F4"/>
<stop offset="1" stop-color="white"/>
</linearGradient>
</defs>
</svg>
