<svg width="158" height="117" viewBox="0 0 158 117" fill="none" xmlns="http://www.w3.org/2000/svg">
<path opacity="0.05" d="M14.7478 33.7794C5.20654 27.6407 0.29081 16.4068 0.000610352 0.0776367H158.001C158.001 56.9494 158.001 88.5448 158.001 94.8639C153.787 103.816 143.781 105.922 128.507 105.922C113.234 105.922 92.1675 103.289 81.6342 79.0662C71.1009 54.843 74.7228 48.6294 60.5676 39.0453C46.4125 29.4613 29.0597 42.9875 14.7478 33.7794Z" fill="#675AF6"/>
<mask id="mask0" mask-type="alpha" maskUnits="userSpaceOnUse" x="35" y="40" width="100" height="77">
<path fill-rule="evenodd" clip-rule="evenodd" d="M35 39.9999H135V116.19H35V39.9999Z" fill="white"/>
</mask>
<g mask="url(#mask0)">
<path opacity="0.5" fill-rule="evenodd" clip-rule="evenodd" d="M85 113.809C110.423 113.809 131.032 112.921 131.032 111.825C131.032 110.73 110.423 109.841 85 109.841C59.5774 109.841 38.9683 110.73 38.9683 111.825C38.9683 112.921 59.5774 113.809 85 113.809Z" fill="url(#paint0_linear)"/>
<path fill-rule="evenodd" clip-rule="evenodd" d="M121.568 62.327C121.095 61.957 120.523 61.6239 119.866 61.4473C117.836 60.905 115.76 62.0656 115.76 62.0656C115.76 62.0656 116.975 64.1089 119.007 64.655C120.455 65.0419 121.927 64.5619 122.652 64.2551C123.128 65.2136 123.532 66.2063 123.861 67.2227C123.508 66.7688 123.06 66.3296 122.501 66.0069C120.68 64.9555 118.377 65.5416 118.377 65.5416C118.377 65.5416 119.023 67.8267 120.842 68.8805C122.135 69.6266 123.671 69.5489 124.454 69.4408C124.678 70.4996 124.823 71.575 124.887 72.656C124.663 72.1124 124.339 71.555 123.87 71.0858C122.384 69.6012 120.006 69.566 120.006 69.566C120.006 69.566 120.034 71.9483 121.522 73.4343C122.593 74.5035 124.127 74.8196 124.901 74.9128C124.848 76.0419 124.704 77.1687 124.466 78.2809C124.4 77.6554 124.232 76.9747 123.872 76.351C122.822 74.5304 120.532 73.8839 120.532 73.8839C120.532 73.8839 119.948 76.1901 120.998 78.0108C121.767 79.3435 123.201 80.0471 123.913 80.3285C123.825 80.5989 123.73 80.868 123.63 81.1356C123.328 81.9403 122.978 82.7193 122.584 83.4698C122.685 82.8447 122.701 82.1372 122.514 81.4345C121.969 79.4037 119.926 78.1883 119.926 78.1883C119.926 78.1883 118.764 80.2648 119.308 82.2956C119.704 83.7748 120.896 84.8215 121.514 85.2809C120.897 86.2143 120.208 87.0935 119.458 87.9123C119.703 87.3497 119.886 86.6955 119.886 85.9974C119.885 83.8954 118.226 82.1902 118.226 82.1902C118.226 82.1902 116.566 83.895 116.567 85.997C116.567 87.5151 117.433 88.8262 117.913 89.4375C117.08 90.1818 116.19 90.8604 115.253 91.467C115.637 90.9857 115.985 90.3988 116.166 89.7211C116.708 87.6909 115.548 85.6142 115.548 85.6142C115.548 85.6142 113.506 86.8338 112.961 88.8626C112.564 90.3411 113.074 91.8457 113.38 92.5532C112.341 93.0882 111.259 93.5396 110.145 93.9003C110.684 93.5236 111.228 93.0177 111.609 92.3574C112.66 90.5363 112.076 88.2308 112.076 88.2308C112.076 88.2308 109.787 88.8772 108.735 90.6983C107.949 92.061 108.078 93.695 108.193 94.4312C106.989 94.6975 105.758 94.859 104.512 94.9074C105.186 94.6876 105.929 94.3245 106.528 93.7251C108.012 92.239 108.045 89.8591 108.045 89.8591C108.045 89.8591 105.668 89.8899 104.182 91.3785C103.042 92.5165 102.758 94.1814 102.687 94.8968C102.35 94.8797 102.011 94.8541 101.673 94.8199C100.738 94.7254 99.81 94.5687 98.8976 94.3523C99.6318 94.3257 100.492 94.1743 101.265 93.7283C103.085 92.6777 103.732 90.3879 103.732 90.3879C103.732 90.3879 101.426 89.8037 99.605 90.8543C98.1933 91.669 97.4875 93.2289 97.2417 93.8883C95.8362 93.4328 94.4803 92.832 93.2036 92.0949L92.8604 92.6893L93.2259 92.8956C94.4516 93.5716 95.744 94.1278 97.0791 94.5571C96.9689 95.3297 96.8782 96.8916 97.6344 98.2019C98.6874 100.024 100.975 100.669 100.975 100.669C100.975 100.669 101.559 98.3628 100.508 96.5421C100.17 95.955 99.7018 95.4899 99.2236 95.1293C100.009 95.297 100.804 95.4219 101.604 95.5028C101.97 95.5398 102.335 95.567 102.7 95.5846C102.79 96.3526 103.103 97.9026 104.181 98.9823C105.668 100.471 108.046 100.502 108.046 100.502C108.046 100.502 108.012 98.1233 106.528 96.6362C106.03 96.1384 105.433 95.8036 104.859 95.5785C106.047 95.5143 107.222 95.3507 108.372 95.0946C108.643 95.794 109.348 97.2628 110.704 98.0456C112.525 99.097 114.831 98.5123 114.831 98.5123C114.831 98.5123 114.184 96.2234 112.363 95.172C111.7 94.7889 110.972 94.623 110.315 94.5669C111.485 94.1904 112.622 93.7167 113.713 93.1537C114.133 93.7384 115.21 95.0334 116.764 95.4513C118.797 95.995 120.873 94.8305 120.873 94.8305C120.873 94.8305 119.653 92.7883 117.624 92.2436C116.833 92.0321 116.037 92.0787 115.358 92.2146C116.428 91.5423 117.442 90.7795 118.387 89.9351C118.932 90.3851 120.32 91.3776 121.946 91.3773C124.048 91.3768 125.753 89.7178 125.753 89.7178C125.753 89.7178 124.048 88.058 121.946 88.0585C121.121 88.0586 120.356 88.3147 119.733 88.6255C120.604 87.7031 121.398 86.7033 122.102 85.6348C122.757 85.9309 124.338 86.5154 125.894 86.0985C127.925 85.5543 129.142 83.5089 129.142 83.5089C129.142 83.5089 127.068 82.3473 125.037 82.8915C124.265 83.0992 123.611 83.5229 123.096 83.9684C123.542 83.1379 123.936 82.2729 124.273 81.3768C124.38 81.0916 124.48 80.8047 124.574 80.5164C125.292 80.6324 126.958 80.7793 128.343 79.98C130.165 78.9269 130.811 76.6395 130.811 76.6395C130.811 76.6395 128.504 76.0554 126.684 77.106C125.992 77.5051 125.47 78.0831 125.088 78.6465C125.365 77.4208 125.53 76.1772 125.587 74.9313C126.291 74.8636 127.975 74.5839 129.126 73.4349C130.615 71.9477 130.646 69.5703 130.646 69.5703C130.646 69.5703 128.265 69.6021 126.78 71.0882C126.179 71.6885 125.816 72.434 125.596 73.1095C125.549 71.8235 125.39 70.543 125.123 69.2854C125.763 69.0504 127.359 68.3448 128.187 66.9104C129.238 65.0893 128.654 62.7838 128.654 62.7838C128.654 62.7838 126.365 63.4303 125.313 65.2514C124.875 66.0109 124.721 66.8546 124.691 67.5803C124.32 66.3261 123.841 65.1037 123.257 63.9311C123.82 63.5323 125.166 62.4395 125.593 60.8501C126.139 58.8189 124.977 56.7447 124.977 56.7447C124.977 56.7447 122.934 57.9605 122.388 59.9917C122.169 60.8073 122.226 61.6295 122.372 62.3218C121.658 61.1445 120.833 60.0313 119.901 59.0031C119.937 58.221 119.877 56.6664 119.005 55.4378C117.786 53.7223 115.449 53.2933 115.449 53.2933C115.449 53.2933 115.084 55.6444 116.3 57.3585C117.142 58.5439 118.521 59.1142 119.291 59.3532C120.141 60.2773 120.902 61.2741 121.568 62.327Z" fill="#9D95F8"/>
<path fill-rule="evenodd" clip-rule="evenodd" d="M45.4212 64.2655C44.9454 65.2239 44.5413 66.2166 44.2117 67.233C44.5646 66.7792 45.0129 66.3399 45.5718 66.0173C47.3929 64.9659 49.6983 65.5505 49.6983 65.5505C49.6983 65.5505 49.0505 67.837 47.2308 68.8909C45.9386 69.6369 44.4024 69.5592 43.6192 69.4511C43.395 70.5099 43.2496 71.5853 43.1858 72.6663C43.4098 72.1228 43.7339 71.5653 44.2026 71.0961C45.6887 69.6115 48.0672 69.5763 48.0672 69.5763C48.0672 69.5763 48.0392 71.9586 46.5507 73.4446C45.4804 74.5138 43.9465 74.83 43.1719 74.9232C43.2251 76.0522 43.3691 77.179 43.6074 78.2912C43.6728 77.6658 43.8409 76.985 44.2008 76.3613C45.2514 74.5407 47.5413 73.8942 47.5413 73.8942C47.5413 73.8942 48.1254 76.2005 47.0748 78.0211C46.3057 79.3539 44.8725 80.0574 44.1597 80.3388C44.2482 80.6092 44.3426 80.8783 44.443 81.1458C44.7452 81.9506 45.0953 82.7296 45.4891 83.4801C45.3879 82.855 45.3719 82.1475 45.5595 81.4448C46.1036 79.414 48.1466 78.1986 48.1466 78.1986C48.1466 78.1986 49.3096 80.2751 48.7654 82.3059C48.3691 83.7852 47.1775 84.8318 46.5595 85.2912C47.1765 86.2246 47.8648 87.1038 48.6146 87.9226C48.3701 87.36 48.1872 86.7058 48.1873 86.0077C48.1878 83.9057 49.8468 82.2005 49.8468 82.2005C49.8468 82.2005 51.5066 83.9053 51.5062 86.0073C51.5058 87.5254 50.6405 88.8365 50.1597 89.4478C50.9935 90.1921 51.8835 90.8707 52.8196 91.4774C52.4362 90.996 52.0883 90.4091 51.907 89.7314C51.3647 87.7012 52.5253 85.6245 52.5253 85.6245C52.5253 85.6245 54.5676 86.8442 55.1123 88.8729C55.5092 90.3514 54.9993 91.856 54.6934 92.5635C55.7295 93.0972 56.8088 93.5477 57.9197 93.9079C57.3831 93.5317 56.8416 93.0271 56.4618 92.3691C55.4104 90.548 55.995 88.2425 55.995 88.2425C55.995 88.2425 58.284 88.889 59.3354 90.7101C60.1214 92.0716 59.993 93.7039 59.8781 94.441C61.0825 94.7076 62.3145 94.8693 63.5609 94.9177C62.8868 94.6979 62.1439 94.3349 61.5455 93.7354C60.0609 92.2493 60.0282 89.8695 60.0282 89.8695C60.0282 89.8695 62.4055 89.9002 63.8916 91.3888C65.0315 92.5269 65.3154 94.1917 65.3858 94.9071C65.7234 94.89 66.0616 94.8644 66.4001 94.8302C67.3355 94.7357 68.2631 94.579 69.1755 94.3626C68.4413 94.336 67.581 94.1846 66.8083 93.7387C64.9876 92.688 64.3412 90.3982 64.3412 90.3982C64.3412 90.3982 66.6474 89.814 68.468 90.8647C69.8798 91.6793 70.5856 93.2392 70.8314 93.8987C72.1077 93.485 73.3432 92.9515 74.5155 92.305L74.8695 92.1052L75.2127 92.6997C73.8786 93.4699 72.4609 94.096 70.9915 94.5683C71.1017 95.3407 71.1926 96.903 70.4363 98.2137C69.3856 100.034 67.0958 100.681 67.0958 100.681C67.0958 100.681 66.5116 98.3745 67.5623 96.5539C67.9015 95.966 68.3699 95.5006 68.8487 95.1398C68.0639 95.3074 67.2693 95.4323 66.4691 95.5132C66.1034 95.5501 65.7381 95.5773 65.3734 95.595C65.283 96.363 64.9702 97.9129 63.8921 98.9927C62.405 100.481 60.0276 100.512 60.0276 100.512C60.0276 100.512 60.0608 98.1336 61.5455 96.6466C62.0428 96.1488 62.6398 95.814 63.214 95.5888C62.0251 95.5246 60.8499 95.3609 59.6995 95.1046C59.4284 95.8032 58.7237 97.2738 57.3667 98.0573C55.5456 99.1087 53.2401 98.524 53.2401 98.524C53.2401 98.524 53.8865 96.2351 55.7076 95.1837C56.3729 94.7996 57.1029 94.6338 57.7615 94.5782C56.5895 94.2015 55.4516 93.7275 54.3602 93.164C53.9404 93.7487 52.8634 95.0437 51.3088 95.4617C49.2762 96.0053 47.2005 94.8409 47.2005 94.8409C47.2005 94.8409 48.4202 92.7986 50.449 92.2539C51.2396 92.0424 52.0365 92.089 52.7152 92.2249C51.6448 91.5526 50.6306 90.7899 49.6864 89.9454C49.1407 90.3954 47.7527 91.388 46.1272 91.3876C44.0251 91.3872 42.3199 89.7281 42.3199 89.7281C42.3199 89.7281 44.0247 88.0683 46.1267 88.0688C46.9523 88.069 47.7167 88.325 48.3406 88.6359C47.4694 87.7134 46.6748 86.7137 45.9706 85.6452C45.3163 85.9412 43.7348 86.5258 42.1787 86.1088C40.1478 85.5646 38.931 83.5192 38.931 83.5192C38.931 83.5192 41.0051 82.3577 43.0359 82.9018C43.808 83.1095 44.4623 83.5332 44.9767 83.9788C44.5308 83.1482 44.1369 82.2832 43.8004 81.3871C43.6934 81.1019 43.5929 80.8151 43.499 80.5267C42.7811 80.6427 41.1149 80.7897 39.7297 79.9903C37.9076 78.9373 37.2626 76.6499 37.2626 76.6499C37.2626 76.6499 39.5688 76.0657 41.3895 77.1163C42.0811 77.5155 42.6033 78.0934 42.985 78.6568C42.7085 77.4311 42.5435 76.1876 42.4856 74.9416C41.7825 74.8739 40.0977 74.5942 38.9468 73.4452C37.4583 71.958 37.4295 69.5792 37.4295 69.5792C37.4295 69.5792 39.8083 69.6124 41.2953 71.0971C41.8948 71.6976 42.2575 72.4427 42.477 73.1181C42.5242 71.8334 42.6834 70.5542 42.95 69.2979C42.3108 69.0636 40.7126 68.358 39.8836 66.9222C38.8322 65.1011 39.4168 62.7956 39.4168 62.7956C39.4168 62.7956 41.7058 63.442 42.7572 65.2631C43.1969 66.0247 43.3505 66.871 43.3803 67.598C43.7507 66.3421 44.2304 65.118 44.8146 63.9437C44.2524 63.5457 42.9049 62.4524 42.4778 60.8619C41.9342 58.8292 43.0937 56.7564 43.0937 56.7564C43.0937 56.7564 45.137 57.9722 45.6831 60.0034C45.9017 60.8206 45.8446 61.6445 45.6981 62.3376C46.4121 61.1583 47.2386 60.0432 48.1718 59.0134C48.1359 58.2313 48.1959 56.6768 49.0679 55.4481C50.2845 53.734 52.624 53.3036 52.624 53.3036C52.624 53.3036 52.9893 55.6547 51.7727 57.3688C50.9314 58.5542 49.5523 59.1245 48.7816 59.3635C47.9318 60.2876 47.1716 61.2844 46.5055 62.3373C46.9783 61.9673 47.5498 61.6342 48.2067 61.4576C50.2369 60.9153 52.3136 62.0759 52.3136 62.0759C52.3136 62.0759 51.0953 64.1206 49.0665 64.6653C47.6181 65.0522 46.1459 64.5723 45.4212 64.2655Z" fill="#9D95F8"/>
<path fill-rule="evenodd" clip-rule="evenodd" d="M59.877 45.8292H111.112V109.873H59.877V45.8292Z" fill="#F0F0F0"/>
<g filter="url(#filter0_d)">
<rect x="58.8096" y="44.7618" width="51.2348" height="64.0435" fill="url(#paint1_linear)"/>
</g>
<rect x="66.2812" y="98.1314" width="36.2913" height="1.06739" fill="#D3DBE4"/>
<path fill-rule="evenodd" clip-rule="evenodd" d="M88.6965 92.7944H102.573V93.8618H88.6965V92.7944Z" fill="#D3DBE4"/>
<rect x="76.9552" y="92.7944" width="9.60652" height="1.06739" fill="#D3DBE4"/>
<rect x="66.2812" y="92.7944" width="8.53913" height="1.06739" fill="#D3DBE4"/>
<rect x="79.09" y="87.4575" width="25.6174" height="1.06739" fill="#B5B5B5"/>
<rect x="66.2812" y="87.4575" width="8.53913" height="1.06739" fill="#B5B5B5"/>
<path fill-rule="evenodd" clip-rule="evenodd" d="M109.021 97.4835C109.024 97.0978 109.165 96.745 109.396 96.4717C106.833 94.4898 105.094 91.3732 104.841 87.8123L104.854 87.8122C104.849 87.7479 104.845 87.6835 104.841 87.619L115.952 87.7156L127.064 87.619C127.06 87.6835 127.056 87.7479 127.051 87.8122L127.064 87.8123C126.81 91.3732 125.072 94.4898 122.509 96.4717C122.74 96.745 122.881 97.0978 122.884 97.4835C122.891 98.3594 122.186 99.0767 121.31 99.0838C120.609 99.0895 120.01 98.6395 119.795 98.011C118.597 98.4777 117.302 98.7316 115.952 98.7301C114.603 98.7316 113.308 98.4777 112.11 98.011C111.894 98.6395 111.295 99.0895 110.595 99.0838C109.719 99.0767 109.014 98.3594 109.021 97.4835ZM108.025 89.3443L115.952 89.2753L123.88 89.3443C123.57 93.6772 120.18 97.1083 116.013 97.1425L115.952 97.1428L115.892 97.1425C111.725 97.1083 108.335 93.6772 108.025 89.3443Z" fill="#FFBD00"/>
<path fill-rule="evenodd" clip-rule="evenodd" d="M110.371 101.124L113.494 101.099L113.597 107.447L110.474 107.472L110.371 101.124Z" fill="#FFBD00"/>
<path fill-rule="evenodd" clip-rule="evenodd" d="M102.46 86.9762L102.515 93.5062C102.557 98.6253 106.845 102.742 112.089 102.698C117.332 102.657 121.549 98.4713 121.508 93.3522L121.453 86.8253L102.46 86.9762Z" fill="url(#paint2_linear)"/>
<path fill-rule="evenodd" clip-rule="evenodd" d="M102.515 93.5062L102.46 86.9762L104.048 86.9635L104.098 92.8381C104.136 97.4453 108.067 101.15 112.874 101.111C117.576 101.075 121.378 97.4686 121.505 92.9985L121.508 93.3522C121.549 98.4713 117.332 102.657 112.089 102.698C106.845 102.742 102.557 98.6253 102.515 93.5062ZM121.453 86.8254V86.8253L121.205 86.8273L121.453 86.8254Z" fill="url(#paint3_linear)"/>
<path fill-rule="evenodd" clip-rule="evenodd" d="M102.461 108.744C102.452 107.64 103.34 106.737 104.444 106.728L119.492 106.605C120.596 106.596 121.499 107.484 121.508 108.589L121.524 110.557L102.477 110.713L102.461 108.744Z" fill="#F7DE68"/>
<path fill-rule="evenodd" clip-rule="evenodd" d="M100.873 111.519C100.87 111.081 101.222 110.723 101.661 110.719L122.295 110.55C122.733 110.547 123.091 110.899 123.095 111.338C123.099 111.776 122.746 112.134 122.308 112.138L101.674 112.307C101.235 112.31 100.877 111.958 100.873 111.519Z" fill="#D9C259"/>
<path d="M105.635 109.1C105.632 108.661 105.984 108.303 106.422 108.299L117.533 108.208C117.971 108.205 118.33 108.557 118.333 108.996C118.337 109.434 117.984 109.792 117.546 109.796L106.435 109.887C105.997 109.89 105.639 109.538 105.635 109.1Z" fill="#DDC34D"/>
<path fill-rule="evenodd" clip-rule="evenodd" d="M79.5823 82.8571L82.2139 70.9272H77.8572L88.8513 55.0793L87.0385 66.9506H91.6583L79.5823 82.8571Z" fill="#675AF6"/>
</g>
<defs>
<filter id="filter0_d" x="56.8096" y="43.7618" width="55.2348" height="68.0435" filterUnits="userSpaceOnUse" color-interpolation-filters="sRGB">
<feFlood flood-opacity="0" result="BackgroundImageFix"/>
<feColorMatrix in="SourceAlpha" type="matrix" values="0 0 0 0 0 0 0 0 0 0 0 0 0 0 0 0 0 0 127 0" result="hardAlpha"/>
<feOffset dy="1"/>
<feGaussianBlur stdDeviation="1"/>
<feColorMatrix type="matrix" values="0 0 0 0 0 0 0 0 0 0 0 0 0 0 0 0 0 0 0.0440444 0"/>
<feBlend mode="normal" in2="BackgroundImageFix" result="effect1_dropShadow"/>
<feBlend mode="normal" in="SourceGraphic" in2="effect1_dropShadow" result="shape"/>
</filter>
<linearGradient id="paint0_linear" x1="38.9683" y1="109.841" x2="38.9683" y2="113.809" gradientUnits="userSpaceOnUse">
<stop stop-color="white"/>
<stop offset="1" stop-color="#B9B3F9"/>
</linearGradient>
<linearGradient id="paint1_linear" x1="60.1923" y1="107.316" x2="109.045" y2="107.316" gradientUnits="userSpaceOnUse">
<stop stop-color="#FEFEFF"/>
<stop offset="1" stop-color="#DEDBFF"/>
</linearGradient>
<linearGradient id="paint2_linear" x1="97.8952" y1="98.4653" x2="110.654" y2="108.191" gradientUnits="userSpaceOnUse">
<stop stop-color="#FFF5A7"/>
<stop offset="0.500185" stop-color="#FFDE36"/>
<stop offset="1" stop-color="#FFE263"/>
</linearGradient>
<linearGradient id="paint3_linear" x1="97.8952" y1="98.4653" x2="110.654" y2="108.191" gradientUnits="userSpaceOnUse">
<stop stop-color="#FFF9C8"/>
<stop offset="0.475428" stop-color="#FFDF3B"/>
<stop offset="1" stop-color="#F3D658"/>
</linearGradient>
</defs>
</svg>
