<svg xmlns="http://www.w3.org/2000/svg" xmlns:xlink="http://www.w3.org/1999/xlink" width="115" height="100" viewBox="0 0 115 100">
  <defs>
    <rect id="ic_pf_withdraw-a" width="5" height="5" x="0" y="0"/>
    <rect id="ic_pf_withdraw-c" width="5" height="5" x="0" y="0"/>
  </defs>
  <g fill="none" fill-rule="evenodd" transform="translate(-17)">
    <path fill="#3792FC" fill-rule="nonzero" d="M98.6326818,47.2051547 C109.632682,47.2051547 128.632682,47.2051547 132.632682,36.2051547 C136.632682,25.2051547 103.374617,25.850316 95.6326818,18.1083805 C87.8907463,10.366445 75.4078567,11.2051547 63.6326818,11.2051547 C51.8575068,11.2051547 54.0888089,-1.77295985 44.6326818,0.205154721 C35.1765546,2.18326929 43.6326818,12.0957077 40.6326818,18.1083805 C40.6326818,21.8450928 40.6326818,31.5440175 40.6326818,47.2051547 C66.9660151,47.2051547 86.2993484,47.2051547 98.6326818,47.2051547 Z" opacity=".046" transform="rotate(180 86.483 23.603)"/>
    <path fill="#3792FC" fill-rule="nonzero" d="M77.7141525,71.5668814 C116.977797,57.6064746 134.428305,89.0173897 134.428305,71.5668814 C134.428305,54.1163729 113.487695,45.3911187 103.01739,34.9208136 C92.5470848,24.4505085 97.1291704,7 81.2042542,7 C65.2793381,7 73.3023938,16.7820966 55.901017,24.4505085 C38.4996401,32.1189204 21,12.2351525 21,34.9208136 C21,57.6064746 38.4505085,85.5272882 77.7141525,71.5668814 Z" opacity=".046" transform="matrix(-1 0 0 1 155.428 0)"/>
    <g transform="translate(58 27)">
      <rect width="40" height="20" fill="#D5E9FF" rx="2"/>
      <rect width="27" height="7" x="6.5" y="6.5" fill="#86BEFF" stroke="#3792FC" rx="1"/>
      <rect width="19" height="28" x="10.5" y="6.5" fill="#D5E9FF" stroke="#3792FC" rx="1"/>
      <g transform="translate(10 30)">
        <mask id="ic_pf_withdraw-b" fill="#fff">
          <use xlink:href="#ic_pf_withdraw-a"/>
        </mask>
        <circle cx="1" cy="4" r="3.5" stroke="#3792FC" mask="url(#ic_pf_withdraw-b)"/>
      </g>
      <g transform="matrix(-1 0 0 1 30 30)">
        <mask id="ic_pf_withdraw-d" fill="#fff">
          <use xlink:href="#ic_pf_withdraw-c"/>
        </mask>
        <circle cx="1" cy="4" r="3.5" stroke="#3792FC" mask="url(#ic_pf_withdraw-d)"/>
      </g>
      <circle cx="20" cy="15" r="5.5" stroke="#3792FC"/>
      <path fill="#3792FC" fill-rule="nonzero" d="M18.0007042,13.8556098 C18.0007042,14.1200808 18.2025383,14.3344768 18.4515132,14.3344768 L20.0900349,14.3344768 C19.9428562,14.630495 19.6529514,14.8150471 19.3378038,14.8133439 L18.4515132,14.8133439 C18.2666331,14.8130442 18.1003219,14.9326821 18.0319635,15.1151521 C17.963605,15.297622 18.0070583,15.5059301 18.1415821,15.6406466 L20.3569139,17.8643854 C20.4734776,17.9848237 20.6420693,18.0292459 20.7981087,17.9806357 C20.9541482,17.9320256 21.0734498,17.7979175 21.1103142,17.6296825 C21.1471786,17.4614475 21.095892,17.2851615 20.9761,17.1683521 L19.5691251,15.7430044 C20.2948735,15.6519921 20.8900328,15.0895598 21.0596124,14.3344768 L21.549191,14.3344768 C21.7981659,14.3344768 22,14.1200808 22,13.8556098 C22,13.5911388 21.7981659,13.3767428 21.549191,13.3767428 L21.0596124,13.3767428 C21.0166817,13.2304276 20.9580679,13.0898362 20.8849239,12.9577341 L21.5489656,12.9577341 C21.7979405,12.9577341 21.9997746,12.743338 21.9997746,12.478867 C21.9997746,12.2143961 21.7979405,12 21.5489656,12 L18.4515132,12 C18.2025383,12 18.0007042,12.2143961 18.0007042,12.478867 C18.0007042,12.743338 18.2025383,12.9577341 18.4515132,12.9577341 L19.3378038,12.9577341 C19.6378485,12.9588353 19.9185606,13.1151978 20.0900349,13.3767428 L18.4515132,13.3767428 C18.2025383,13.3767428 18.0007042,13.5911388 18.0007042,13.8556098 Z"/>
    </g>
  </g>
</svg>
