<svg width="115" height="101" viewBox="0 0 115 101" fill="none" xmlns="http://www.w3.org/2000/svg">
<g clip-path="url(#clip0)">
<path opacity="0.1" d="M57.3322 0.582932C46.3322 0.582932 27.3322 0.582932 23.3322 11.5829C19.3322 22.5829 52.5902 21.9378 60.3322 29.6797C68.0741 37.4216 80.557 36.5829 92.3322 36.5829C104.107 36.5829 101.876 49.561 111.332 47.5829C120.788 45.6048 112.332 35.6924 115.332 29.6797C115.332 25.943 115.332 16.2441 115.332 0.582932C88.9988 0.582932 69.6655 0.582932 57.3322 0.582932Z" fill="#675AF6"/>
<path opacity="0.1" d="M60.7155 72.1489C21.4519 58.1885 4.00139 89.5994 4.00139 72.1489C4.00139 54.6984 24.942 45.9732 35.4123 35.5028C45.8826 25.0325 41.3005 7.58203 57.2254 7.58203C73.1503 7.58203 65.1273 17.3641 82.5287 25.0325C99.93 32.701 117.43 12.8172 117.43 35.5028C117.43 58.1885 99.9792 86.1093 60.7155 72.1489Z" fill="#675AF6"/>
<path d="M81.9998 26.7139H42.0008C41.5214 26.7139 41.1328 27.1025 41.1328 27.5819V58.8179C41.1328 59.2972 41.5214 59.6859 42.0008 59.6859H81.9998C82.4792 59.6859 82.8678 59.2972 82.8678 58.8179V27.5819C82.8678 27.1025 82.4792 26.7139 81.9998 26.7139Z" fill="#EFEEFB" stroke="#675AF6" stroke-width="1.735"/>
<path d="M77.7485 31.0527H46.5125C46.0331 31.0527 45.6445 31.4414 45.6445 31.9207V54.2197C45.6445 54.6991 46.0331 55.0877 46.5125 55.0877H77.7485C78.2279 55.0877 78.6165 54.6991 78.6165 54.2197V31.9207C78.6165 31.4414 78.2279 31.0527 77.7485 31.0527Z" fill="#E8E0FF" stroke="#675AF6" stroke-width="1.735"/>
<path d="M57.5771 48.3192C60.4523 48.3192 62.7831 45.9884 62.7831 43.1132C62.7831 40.238 60.4523 37.9072 57.5771 37.9072C54.7019 37.9072 52.3711 40.238 52.3711 43.1132C52.3711 45.9884 54.7019 48.3192 57.5771 48.3192Z" fill="#EFEEFB" stroke="#675AF6" stroke-width="1.735"/>
<path d="M71.9355 38.7744H69.9405C69.3412 38.7744 68.8555 39.26 68.8555 39.8589C68.8555 40.4579 69.3412 40.9434 69.9405 40.9434H71.9355C72.5347 40.9434 73.0205 40.4579 73.0205 39.8589C73.0205 39.26 72.5347 38.7744 71.9355 38.7744Z" fill="#675AF6"/>
<path d="M71.9355 45.3691H69.9405C69.3412 45.3691 68.8555 45.8547 68.8555 46.4536C68.8555 47.0526 69.3412 47.5381 69.9405 47.5381H71.9355C72.5347 47.5381 73.0205 47.0526 73.0205 46.4536C73.0205 45.8547 72.5347 45.3691 71.9355 45.3691Z" fill="#675AF6"/>
<path fill-rule="evenodd" clip-rule="evenodd" d="M45.2539 59.8594H51.8483V62.5492C51.8483 63.5076 51.0713 64.2845 50.1129 64.2845H46.9893C46.0309 64.2845 45.2539 63.5076 45.2539 62.5492V59.8594ZM71.9784 59.8594H78.5728V62.5492C78.5728 63.5076 77.7958 64.2845 76.8374 64.2845H73.7138C72.7554 64.2845 71.9784 63.5076 71.9784 62.5492V59.8594Z" fill="#EFEEFB" stroke="#675AF6" stroke-width="1.735"/>
<path d="M57.7411 45.6136C58.1137 45.6136 58.4579 45.5753 58.7737 45.4988C59.0895 45.4222 59.3655 45.3231 59.6018 45.2015V42.6684H57.6116V43.6006H58.5317V44.472C58.4272 44.517 58.3136 44.5497 58.1909 44.5699C58.0683 44.5902 57.9388 44.6003 57.8025 44.6003C57.5662 44.6003 57.356 44.5632 57.172 44.4889C56.988 44.4146 56.8335 44.311 56.7086 44.1781C56.5836 44.0453 56.4893 43.8865 56.4257 43.7019C56.3621 43.5173 56.3303 43.3146 56.3303 43.0939C56.3303 42.8778 56.3655 42.6785 56.4359 42.4961C56.5064 42.3137 56.6052 42.1561 56.7324 42.0233C56.8596 41.8904 57.0096 41.7868 57.1822 41.7125C57.3549 41.6382 57.5435 41.6011 57.7479 41.6011C57.9842 41.6011 58.1955 41.6427 58.3818 41.726C58.5681 41.8094 58.718 41.9163 58.8316 42.0469L59.5677 41.216C59.3632 41.0224 59.0974 40.8681 58.7703 40.7533C58.4431 40.6385 58.0887 40.5811 57.707 40.5811C57.339 40.5811 56.9959 40.6396 56.6779 40.7567C56.3598 40.8738 56.0827 41.0415 55.8464 41.2599C55.6101 41.4784 55.4249 41.7429 55.2909 42.0537C55.1569 42.3644 55.0898 42.7112 55.0898 43.0939C55.0898 43.4722 55.1557 43.8156 55.2875 44.1241C55.4193 44.4326 55.6022 44.6972 55.8362 44.9178C56.0702 45.1385 56.3496 45.3096 56.6745 45.4312C56.9994 45.5528 57.3549 45.6136 57.7411 45.6136Z" fill="#161A2E"/>
</g>
<defs>
<clipPath id="clip0">
<rect width="115" height="100" fill="white" transform="translate(0 0.582031)"/>
</clipPath>
</defs>
</svg>
