<svg xmlns="http://www.w3.org/2000/svg" width="144" height="116" viewBox="0 0 144 116">
    <g fill="none">
        <g transform="translate(16)">
            <circle cx="55" cy="55" r="55" fill="#E7FFEE"/>
            <circle cx="55" cy="55" r="45" fill="#A6FFBE"/>
            <circle cx="55" cy="55" r="35" fill="#35CB5D"/>
            <path fill="#FFF" d="M51.976 67c-.825 0-1.614-.338-2.188-.936L39.882 55.74c-.771-.788-1.065-1.934-.769-3.002.296-1.067 1.136-1.892 2.2-2.16 1.064-.267 2.188.064 2.943.868L51.9 59.41l13.823-15.43c1.137-1.232 3.04-1.313 4.276-.182 1.235 1.131 1.343 3.056.243 4.322L54.238 65.99c-.567.631-1.367.997-2.21 1.01h-.052z"/>
        </g>
        <path fill="#3792FC" d="M133.75 110L136.25 110 136.25 106.25 140 106.25 140 103.75 136.25 103.75 136.25 100 133.75 100 133.75 103.75 130 103.75 130 106.25 133.75 106.25zM8 19.333L8 16.667 5.333 16.667 5.333 14 2.667 14 2.667 16.667 0 16.667 0 19.333 2.667 19.333 2.667 22 5.333 22 5.333 19.333zM24.25 60L21.75 60 21.75 63.75 18 63.75 18 66.25 21.75 66.25 21.75 70 24.25 70 24.25 66.25 28 66.25 28 63.75 24.25 63.75zM18.75 102L15.25 102 15.25 107.25 10 107.25 10 110.75 15.25 110.75 15.25 116 18.75 116 18.75 110.75 24 110.75 24 107.25 18.75 107.25z" opacity=".4"/>
        <path fill="#7ED321" d="M139 17L137 17 137 20 134 20 134 22 137 22 137 25 139 25 139 22 142 22 142 20 139 20z" opacity=".4" transform="rotate(45 138 21)"/>
    </g>
</svg>
