<svg xmlns="http://www.w3.org/2000/svg" xmlns:xlink="http://www.w3.org/1999/xlink" width="155" height="100" viewBox="0 0 155 100">
  <defs>
    <linearGradient id="ic_popup_kyc_verified@2x-a" x1="50%" x2="50%" y1="0%" y2="100%">
      <stop offset="0%" stop-color="#64ABFF"/>
      <stop offset="100%" stop-color="#60A0ED"/>
    </linearGradient>
    <linearGradient id="ic_popup_kyc_verified@2x-d" x1="2.699%" x2="98.049%" y1="50%" y2="50%">
      <stop offset="0%" stop-color="#F1F8FF"/>
      <stop offset="100%" stop-color="#FBFDFF"/>
    </linearGradient>
    <rect id="ic_popup_kyc_verified@2x-c" width="64.556" height="80.695" x="0" y="0"/>
    <filter id="ic_popup_kyc_verified@2x-b" width="110.8%" height="108.7%" x="-5.4%" y="-3.1%" filterUnits="objectBoundingBox">
      <feOffset dy="1" in="SourceAlpha" result="shadowOffsetOuter1"/>
      <feGaussianBlur in="shadowOffsetOuter1" result="shadowBlurOuter1" stdDeviation="1"/>
      <feColorMatrix in="shadowBlurOuter1" values="0 0 0 0 0   0 0 0 0 0   0 0 0 0 0  0 0 0 0.0440443841 0"/>
    </filter>
    <linearGradient id="ic_popup_kyc_verified@2x-e" x1="13.673%" x2="23.749%" y1="47.196%" y2="52.804%">
      <stop offset="0%" stop-opacity="0"/>
      <stop offset="100%" stop-opacity=".105"/>
    </linearGradient>
    <linearGradient id="ic_popup_kyc_verified@2x-f" x1="50%" x2="50%" y1="50%" y2="100%">
      <stop offset="0%" stop-color="#EE817A" stop-opacity="0"/>
      <stop offset="100%" stop-color="#D86760"/>
    </linearGradient>
    <linearGradient id="ic_popup_kyc_verified@2x-g" x1="50%" x2="50%" y1="0%" y2="73.495%">
      <stop offset="0%" stop-color="#FFBBB6"/>
      <stop offset="100%" stop-color="#D86760" stop-opacity="0"/>
    </linearGradient>
  </defs>
  <g fill="none" fill-rule="evenodd" transform="translate(-5)">
    <g fill-rule="nonzero" transform="translate(114.986 14.206)">
      <g transform="translate(6.498)">
        <path fill="#52A9FF" d="M6.8529108,0.0488036555 C7.6621583,-0.049870979 8.52587121,-0.0150392359 9.2784477,0.303763781 C10.8787246,0.981753566 11.3336059,2.86860363 11.3116612,4.40223735 C11.288003,6.0529223 10.9367814,7.85588757 12.1942144,9.18588435 C12.7722313,9.7973401 13.4912395,10.2652818 14.0588134,10.887965 C14.6652754,11.553386 15.1411336,12.3147598 15.493471,13.1323545 C16.1404043,14.634121 16.4579304,16.4001787 15.8663453,17.9755416 C15.345465,19.3625561 14.0349884,20.6144556 14.3181506,22.1916254 C14.6135137,23.8369072 16.2755415,25.094739 17.3146485,26.3202156 C18.490624,27.7070714 19.5733781,29.4796 19.7512502,31.2983159 C19.9218118,33.0412922 19.1616336,34.8040621 17.9950042,36.1216097 C15.6640756,38.7542875 12.1603283,40.0449134 8.62747571,40.0369536 C7.1275227,40.0334487 5.42927133,39.9658367 4.13485227,39.1613607 C3.73479331,38.912703 3.52373651,38.6337317 3.28591268,38.2459219 C3.07267807,37.8981691 2.79099679,37.6719708 2.4649564,37.4259011 C1.74864672,36.8854234 1.23134407,36.1569905 0.901214506,35.3415858 C-0.380749946,32.1744919 0.643868255,28.2564085 2.43832832,25.4440044 C2.86353614,24.7776884 3.21166049,24.1364926 3.00509281,23.3422831 C2.78953318,22.5132247 2.2597344,21.7654591 1.79113337,21.0528129 C1.32808109,20.3484962 0.799445246,19.6765877 0.43752649,18.9150669 C0.0584758236,18.1173197 -0.0482618058,17.2819442 0.0187122007,16.4088762 C0.144585255,14.7688751 0.853926744,13.2554686 1.85819991,11.9365455 C2.82550081,10.6661341 3.96127352,9.45054708 3.96381843,7.78592536 C3.96661311,6.0216531 2.78482493,4.45222408 3.28828414,2.65850422 C3.49674921,1.91575736 3.91545927,1.15369458 4.59024135,0.708406816 C5.23737,0.281343101 6.09182315,0.141605976 6.8529108,0.0488036555 Z"/>
        <path fill="#6DB6FF" d="M6.32412594,2.86924854 C6.33930139,2.63230009 6.6209191,2.49018719 6.84261469,2.55201776 C7.13442717,2.63344393 7.12881508,2.90557522 7.12111087,3.14802288 C7.09749405,3.89324931 7.20556952,4.61748772 7.38505963,5.34056869 C7.75811048,6.84393451 8.4475586,8.22903908 8.99377448,9.6731411 C9.5395143,11.1160342 9.79569607,12.6057777 9.4755422,14.1325646 C9.17373261,15.5721118 8.69958051,16.9743476 8.39070753,18.4157118 C8.11846104,19.6860892 7.82877774,21.0257734 8.24337432,22.2929159 C8.6423182,23.5126327 9.52432817,24.5059586 10.1594518,25.6082259 C11.4742311,27.8899893 12.0575262,30.4213332 12.1355446,33.0263094 C12.171701,34.2359602 12.1391412,35.4567343 11.8579674,36.6431384 C11.6961332,37.3262731 11.4786552,38.2494993 10.8921101,38.7211372 C10.6216392,38.9386343 10.159048,39.0138414 9.9314058,38.6917532 C9.71768289,38.3896597 9.90517601,37.9219889 9.97302566,37.6000046 C10.266864,36.2061875 10.3259776,34.7817615 10.2556285,33.3664859 C10.1875419,31.9956057 10.0252555,30.6270146 9.59295817,29.317767 C9.1917283,28.1027661 8.5821859,27.0114594 7.86479125,25.948592 C7.13377115,24.8654558 6.37381156,23.7800087 6.07175664,22.4966039 C5.76485998,21.19312 6.01418273,19.8667832 6.34756146,18.5881931 C6.70011758,17.2358054 7.16191096,15.9222137 7.63932299,14.6064682 C8.10457739,13.3243723 8.26948728,12.1112816 8.01264736,10.7694193 C7.50527242,8.1183466 6.14717895,5.63001802 6.32412594,2.86924854 Z"/>
      </g>
      <g transform="translate(9.04 2.82)">
        <path fill="#64ABFF" d="M25.6772293,0.446122608 C26.6786549,0.749594639 27.6732587,1.23923362 28.3871205,2.00700164 C29.9050284,3.63968558 29.4392926,6.10730153 28.6013485,7.90962302 C27.699405,9.84948273 26.3326146,11.7993597 27.1031003,14.0251172 C27.4572334,15.0483513 28.0527398,15.9750658 28.3886782,17.0061558 C28.7475948,18.1079795 28.9025099,19.2554692 28.8827729,20.4053142 C28.8462339,22.5172349 28.2833653,24.770683 26.7551892,26.3265929 C25.4096914,27.6964678 23.2096309,28.4965879 22.7064908,30.50881 C22.1815893,32.6079179 23.4648432,34.9583997 24.0346072,36.9471925 C24.679439,39.1978995 25.0106806,41.856312 24.2561239,44.0995253 C23.533104,46.2493716 21.7079351,47.9393793 19.6418262,48.8918229 C15.5136218,50.7950616 10.7205606,50.502218 6.58110592,48.658478 C4.82364479,47.87559 2.86756936,46.913886 1.77538949,45.2904197 C1.43784742,44.7886371 1.3380404,44.349136 1.2644786,43.7670221 C1.19854347,43.2450479 0.98795256,42.8312886 0.735856533,42.3709975 C0.181929872,41.3599015 -0.0390407374,40.22985 0.00558399867,39.0941257 C0.179243254,34.6830323 3.4560183,30.5813933 7.05017975,28.1870676 C7.90178461,27.6198359 8.64967457,27.0422897 8.82800048,25.9957854 C9.01423557,24.9033991 8.78884664,23.7439965 8.61663762,22.6579014 C8.44652546,21.5845379 8.18232703,20.5154497 8.16112958,19.4269444 C8.13902346,18.2867018 8.45624154,17.243346 8.99716809,16.2456064 C10.0133416,14.3714523 11.6468225,12.9499535 13.5232318,11.9115866 C15.3305848,10.9113945 17.3065039,10.063511 18.1910645,8.09620718 C19.1286926,6.01118366 18.573733,3.5415428 20.1141868,1.68164249 C20.7520511,0.911487208 21.6467417,0.22764916 22.6740173,0.051392001 C23.6592066,-0.117670782 24.7354005,0.160710775 25.6772293,0.446122608 Z"/>
        <path fill="#7CB8FF" d="M23.6316132,3.8939832 C23.7736966,3.62131883 24.1775683,3.60033997 24.4043533,3.78953245 C24.7028438,4.03860936 24.5534807,4.35794112 24.4172478,4.64102606 C23.998575,5.51119536 23.7449047,6.42539913 23.5753474,7.37558967 C23.2226681,9.35107406 23.3020125,11.352019 23.1829152,13.347905 C23.0638957,15.3421103 22.5817087,17.2403276 21.4061689,18.8809278 C20.2978583,20.4278116 19.0076053,21.8403564 17.8900819,23.3856971 C16.9051115,24.7477088 15.8633833,26.1826748 15.6832419,27.9001481 C15.5096844,29.55327 16.0197787,31.1909875 16.1840198,32.8285688 C16.5240478,36.2184842 15.8777777,39.5213166 14.6020446,42.6470331 C14.0095587,44.0984581 13.3308853,45.5271097 12.379541,46.7850074 C11.8318321,47.509343 11.0930705,48.4888955 10.1597263,48.7406 C9.72933079,48.8566826 9.14895391,48.7037609 9.05178574,48.203251 C8.96040113,47.7337013 9.42504863,47.277948 9.67334694,46.9321356 C10.7483399,45.435237 11.5649291,43.7793044 12.2253348,42.0664849 C12.8650898,40.4074235 13.3934946,38.7017965 13.5750331,36.9252015 C13.7434429,35.2764685 13.6033626,33.6652484 13.3222463,32.0312893 C13.0358336,30.3661995 12.7167944,28.6832343 13.0370654,27.0053739 C13.3622113,25.3012025 14.3497415,23.8609302 15.410504,22.5211714 C16.5324161,21.1040508 17.761702,19.7900165 19.0103812,18.4816018 C20.2271867,17.2066765 21.0565863,15.8563572 21.4604031,14.1329217 C22.258275,10.7280165 21.9759943,7.07082164 23.6316132,3.8939832 Z"/>
      </g>
      <g transform="translate(0 15.79)">
        <path fill="#A0CBFF" d="M3.75895966,-1.56319402e-13 C5.42410587,-1.56319402e-13 6.88804778,0.880914818 7.89679249,2.13096225 C9.07762393,3.59432033 9.31611545,5.38137151 9.7956122,7.12543376 C10.0342084,7.99338042 10.4445772,8.85499618 11.1637176,9.44468937 C11.8178149,9.9809783 12.6481884,10.0882974 13.4311151,10.3503151 C14.9958163,10.8739423 16.2592871,12.1353241 16.7582653,13.6744488 C17.3670104,15.5518685 16.722235,17.4452176 16.8332587,19.3478588 C16.9351701,21.0951886 18.6613794,22.1853297 20.0502232,23.0229493 C21.4196902,23.8489282 22.653415,24.6221155 23.0658786,26.2311865 C23.5032701,27.9377739 23.6500099,29.8426616 23.0441975,31.5285205 C22.0355576,34.335562 19.0836884,35.5716201 16.2314264,35.7632832 C13.6428981,35.9371789 10.3881227,35.6641331 8.44416033,33.7888577 C7.2809251,32.6666538 6.85966343,31.0972018 6.91192835,29.5357146 C6.94439756,28.5647376 7.13711797,27.6027465 7.38629289,26.6644451 C7.56288342,25.9993937 7.80147967,25.3372014 7.86945552,24.6499919 C8.05013089,22.8216878 6.35701927,22.4705267 4.9158058,21.9685472 C3.08443824,21.3305553 1.80232383,20.125539 0.91078247,18.4467259 C0.0805136292,16.883605 -0.267849454,15.1289232 0.229871945,13.4079381 C0.484074352,12.5291676 0.945136976,11.731882 1.57043091,11.0537604 C1.84568592,10.7552889 2.23364048,10.5063413 2.48208222,10.1927573 C2.71397515,9.89990189 2.66349078,9.520456 2.58357466,9.1774639 C2.21405422,7.59310384 1.06275927,6.28117692 0.651028876,4.69967597 C0.279308919,3.27215895 0.499052078,1.49552318 1.80672288,0.574580697 C2.37168695,0.176652676 3.06841311,0.00439078907 3.75895966,-1.56319402e-13 Z"/>
        <path fill="#B0D4FF" d="M6.02793194,4.12814169 C7.7928086,6.0044217 8.27252338,8.55013802 8.41331037,11.0175356 C8.49217187,12.4011325 8.41008942,13.8604954 8.81738464,15.2025335 C9.16587141,16.3511742 9.98285157,17.2292222 10.824976,18.059074 C12.5201345,19.7296014 14.4106285,21.4279029 14.906448,23.8455726 C15.1973732,25.2643977 15.0009987,26.7298873 15.4029949,28.1330894 C15.7685216,29.4085514 16.4120896,30.661651 17.1948861,31.7387125 C17.8251546,32.6060389 18.6462909,33.2700634 19.335264,34.0785741 C19.5454574,34.3253752 19.8465649,34.6886843 19.7598069,35.037085 C19.6582948,35.4451185 19.1375387,35.5742885 18.7680638,35.5101631 C17.9066137,35.3607753 17.1814827,34.5398072 16.6182309,33.9429712 C15.794601,33.070233 15.0947182,32.1315314 14.5258556,31.0785683 C13.8943402,29.9091991 13.3858446,28.6683527 13.1685859,27.3564372 C12.9431189,25.9954066 13.0553328,24.57699 12.5404992,23.2707928 C11.6741657,21.0729669 9.57285491,19.7759596 8.05360221,18.0629542 C6.16071848,15.9284368 6.44301979,13.2718286 6.63690061,10.6461597 C6.74340001,9.20323662 6.84927596,7.57375762 6.11874214,6.25632826 C5.83986961,5.75343416 5.21812099,5.28454284 5.09821827,4.7129284 C4.98839402,4.18920377 5.58780374,3.65996518 6.02793194,4.12814169 Z"/>
      </g>
      <path fill="#2668B6" d="M7.91004481,50.751068 C7.91004481,61.4816736 9.66472694,67.1041899 18.9276335,67.1041899 C28.1905401,67.1041899 29.9451696,61.4816736 29.9451696,50.751068 L7.91004481,50.751068 Z"/>
    </g>
    <g fill-rule="nonzero" transform="rotate(-30 40.83 5.813)">
      <path fill="#3F7ABF" d="M21.6311001,70.7533208 C28.2053884,66.0271127 37.7505981,55.6309683 39.2903226,51.3834146 C40.830047,47.135861 34.5483871,48.4880561 33.8709677,43.2702439 C33.1935484,38.0524317 41.4870589,36.2283011 41.3225806,32.4526829 C41.1581024,28.6770648 32.6981608,30.5299746 31.1612903,27.0439024 C29.6244198,23.5578303 34.8776329,19.5690478 33.8709677,15.5502439 C32.8643025,11.53144 29.5593456,13.5423089 27.0967742,10.817561 C24.9637711,8.45746866 22.964553,1.10711665 20.6612903,0.676097561 C18.3580277,0.245078471 19.1111883,5.85542202 16.2580645,8.78926829 C13.4049408,11.7231146 10.4382763,10.1285923 9.48387097,12.1697561 C8.52946563,14.2109199 15.5117971,14.1951341 11.516129,18.9307317 C7.52046098,23.6663293 1.59726104,20.5676318 0.677419355,24.3395122 C-0.242422331,28.1113926 7.0074194,31.4598708 7.4516129,35.5975874 C7.89580641,39.7353041 -0.359779506,37.0420456 0.677419355,43.9463415 C1.71461822,50.8506373 7.42847186,53.2999724 10.8387097,58.1443902 C13.813531,62.3702766 14.5693531,67.0737176 19.6914806,70.7533208 C20.0181837,70.9880159 21.2960861,70.9941599 21.6311001,70.7533208 Z"/>
      <path fill="#376BA8" d="M34.8205128,51.3949719 C31.4968991,52.151199 28.7814318,53.1836443 26.6741108,54.4923077 C24.5667899,55.8009711 22.6271704,58.3820843 20.8552523,62.2356473 L20.8552523,61.4613133 C22.7831332,57.6824497 24.7227527,55.2303922 26.6741108,54.1051407 C28.625469,52.9798893 31.3409363,52.0764996 34.8205128,51.3949719 Z"/>
      <path fill="#376BA8" d="M20.4673284,44.4259662 C17.1437146,45.1821934 14.4282473,46.2146386 12.3209264,47.5233021 C10.2136055,48.8319655 8.14467796,51.4130787 6.11414392,55.2666417 L6.11414392,54.4923077 C8.30064077,50.7134441 10.3695683,48.2613865 12.3209264,47.1361351 C14.2722845,46.0108836 16.9877518,45.107494 20.4673284,44.4259662 Z" transform="matrix(-1 0 0 1 26.581 0)"/>
      <path fill="#376BA8" d="M38.311828,32.4237899 C33.9537505,33.180017 30.7210513,34.2124623 28.6137304,35.5211257 C26.5064094,36.8297891 23.9202501,39.4109023 20.8552523,43.2644653 L20.8552523,42.4901313 C24.0762129,38.7112677 26.6623722,36.2592102 28.6137304,35.1339587 C30.5650885,34.0087073 33.7977877,33.1053176 38.311828,32.4237899 Z"/>
      <path fill="#376BA8" d="M20.4673284,25.4547842 C16.1092509,26.2110114 12.8765517,27.2434566 10.7692308,28.5521201 C8.66190983,29.8607835 6.07575047,32.4418967 3.01075269,36.2954597 L3.01075269,35.5211257 C6.23171328,31.7422621 8.81787264,29.2902046 10.7692308,28.1649531 C12.7205889,27.0397016 15.9532881,26.136312 20.4673284,25.4547842 Z" transform="matrix(-1 0 0 1 23.478 0)"/>
      <path fill="#376BA8" d="M32.6272839,19.2635046 C29.2042351,19.8556716 26.6653466,20.6654713 25.0106184,21.6929037 C23.3558903,22.7203361 21.325646,24.7475431 18.9198856,27.7745248 L18.9195033,27.1659804 C21.4478148,24.1977813 23.4781228,22.2719983 25.0104273,21.3886315 C26.5427318,20.5052646 29.081684,19.796889 32.6272839,19.2635046 Z" transform="rotate(-20 25.773 23.519)"/>
      <path fill="#376BA8" d="M21.3666099,13.4541958 C18.7209435,13.9124778 16.7585583,14.5387017 15.4794544,15.3328672 C14.2003505,16.1270328 12.6307986,17.6937057 10.7707988,20.0328859 L10.7706416,19.5627269 C12.7253427,17.2689341 14.2949208,15.780621 15.4793758,15.0977877 C16.6638309,14.4149544 18.6262422,13.8670904 21.3666099,13.4541958 Z" transform="scale(-1 1) rotate(-10 0 200.409)"/>
      <polygon fill="#376BA8" points="20.657 .676 21.243 84.275 20.079 84.275"/>
    </g>
    <g fill-rule="nonzero" transform="rotate(-60 55.9 31.627)">
      <path fill="url(#ic_popup_kyc_verified@2x-a)" d="M17.5108905,57.2764978 C22.8329335,53.4505198 30.560008,45.0345934 31.8064516,41.5960976 C33.0528952,38.1576018 27.9677419,39.2522359 27.4193548,35.0282927 C26.8709677,30.8043495 33.584762,29.3276723 33.4516129,26.2712195 C33.3184638,23.2147667 26.4699397,24.7147413 25.2258065,21.8926829 C23.9816732,19.0706245 28.2342743,15.8416101 27.4193548,12.5882927 C26.6044354,9.33497526 23.928994,10.9628215 21.9354839,8.75707317 C20.2087671,6.84652225 18.5903524,0.896237289 16.7258065,0.547317073 C14.8612605,0.198396858 15.4709619,4.74010354 13.1612903,7.11512195 C10.8516187,9.49014036 8.4500332,8.19933665 7.67741935,9.85170732 C6.90480551,11.504078 12.5571691,11.4912991 9.32258065,15.324878 C6.08799222,19.158457 1.29302084,16.6499877 0.548387097,19.7034146 C-0.196246649,22.7568416 5.67267285,25.4675145 6.03225806,28.8170946 C6.39184328,32.1666747 -0.291250077,29.9864179 0.548387097,35.5756098 C1.38802427,41.1648016 6.01352484,43.1475967 8.77419355,47.0692683 C11.1823823,50.4902239 11.7942382,54.2977714 15.9407224,57.2764978 C16.2051964,57.4664891 17.2396888,57.4714628 17.5108905,57.2764978 Z"/>
      <path fill="#97C6FF" d="M28.1880342,41.6054534 C25.4974897,42.2176373 23.2992543,43.0534263 21.5933278,44.1128205 C19.8874013,45.1722147 18.3172332,47.2616873 16.8828233,50.3812383 L16.8828233,49.7543965 C18.4434888,46.6953164 20.013657,44.7103175 21.5933278,43.7993996 C23.1729987,42.8884818 25.3712341,42.1571664 28.1880342,41.6054534 Z"/>
      <path fill="#97C6FF" d="M16.5687896,35.9638774 C13.8782452,36.5760613 11.6800097,37.4118503 9.97408326,38.4712445 C8.26815679,39.5306387 6.59331073,41.6201113 4.94954508,44.7396623 L4.94954508,44.1128205 C6.71956634,41.0537404 8.3944124,39.0687415 9.97408326,38.1578236 C11.5537541,37.2469058 13.7519896,36.5155904 16.5687896,35.9638774 Z" transform="matrix(-1 0 0 1 21.518 0)"/>
      <path fill="#97C6FF" d="M31.0143369,26.2478299 C27.4863694,26.8600138 24.8694225,27.6958028 23.163496,28.755197 C21.4575695,29.8145912 19.364012,31.9040638 16.8828233,35.0236148 L16.8828233,34.396773 C19.4902676,31.3376929 21.5838251,29.352694 23.163496,28.4417761 C24.7431669,27.5308583 27.3601138,26.7995429 31.0143369,26.2478299 Z"/>
      <path fill="#97C6FF" d="M16.5687896,20.6062539 C13.0408222,21.2184378 10.4238752,22.0542268 8.71794872,23.113621 C7.01202225,24.1730152 4.91846467,26.2624878 2.43727599,29.3820388 L2.43727599,28.755197 C5.04472027,25.6961169 7.13827785,23.711118 8.71794872,22.8002001 C10.2976196,21.8892823 12.9145666,21.1579669 16.5687896,20.6062539 Z" transform="matrix(-1 0 0 1 19.006 0)"/>
      <path fill="#97C6FF" d="M26.4125631,15.5942657 C23.6415236,16.0736389 21.5862329,16.7291911 20.2466911,17.560922 C18.9071493,18.392653 17.2636182,20.0337254 15.3160979,22.4841391 L15.3157884,21.9915079 C17.3625168,19.5886801 19.0060994,18.0297129 20.2465364,17.3146064 C21.4869733,16.5994999 23.5423156,16.026053 26.4125631,15.5942657 Z" transform="rotate(-20 20.864 19.04)"/>
      <path fill="#97C6FF" d="M17.2967795,10.8914918 C15.1550495,11.2624821 13.566452,11.7694252 12.5309869,12.4123211 C11.4955218,13.055217 10.2249322,14.323476 8.71921808,16.2170981 L8.71909084,15.8364932 C10.3014679,13.9796133 11.5720787,12.7747885 12.5309233,12.2220186 C13.4897678,11.6692488 15.0783866,11.2257399 17.2967795,10.8914918 Z" transform="scale(-1 1) rotate(-10 0 162.236)"/>
      <polygon fill="#97C6FF" points="16.722 .547 17.197 68.223 16.255 68.223"/>
    </g>
    <g transform="translate(46.56 5.194)">
      <g transform="translate(.894 .862)">
        <polygon fill="#F0F0F0" points="1.345 1.345 65.901 1.345 65.901 82.04 1.345 82.04"/>
        <use fill="#000" filter="url(#ic_popup_kyc_verified@2x-b)" xlink:href="#ic_popup_kyc_verified@2x-c"/>
        <use fill="url(#ic_popup_kyc_verified@2x-d)" xlink:href="#ic_popup_kyc_verified@2x-c"/>
        <rect width="45.727" height="1.345" x="9.414" y="67.246" fill="#D3DBE4"/>
        <polygon fill="#D3DBE4" points="37.658 60.521 55.141 60.521 55.141 61.866 37.658 61.866"/>
        <rect width="12.104" height="1.345" x="22.864" y="60.521" fill="#D3DBE4"/>
        <rect width="10.759" height="1.345" x="9.414" y="60.521" fill="#D3DBE4"/>
        <rect width="32.278" height="1.345" x="25.553" y="53.797" fill="#B5B5B5"/>
        <rect width="10.759" height="1.345" x="9.414" y="53.797" fill="#B5B5B5"/>
        <path fill="#7ED321" fill-rule="nonzero" d="M32.0487805,17 C37.5756098,17 42.097561,21.5219512 42.097561,27.0487805 C42.097561,32.5756098 37.5756098,37.097561 32.0487805,37.097561 C26.5219512,37.097561 22,32.5756098 22,27.0487805 C22,21.5219512 26.5219512,17 32.0487805,17 Z M38.0046485,23.6024025 C37.5718221,23.1731829 36.8700718,23.1731829 36.4372454,23.6024025 L36.4372454,23.6024025 L30.5710187,29.4197439 L27.6603156,26.5332968 C27.2274892,26.1040772 26.5257389,26.1040772 26.0929125,26.5332968 C25.6600861,26.9625163 25.6600861,27.6584187 26.0929125,28.0876382 L26.0929125,28.0876382 L29.7873171,31.7512561 C30.2201435,32.1804756 30.9218938,32.1804756 31.3547202,31.7512561 L31.3547202,31.7512561 L38.0046485,25.1567439 C38.4374749,24.7275244 38.4374749,24.031622 38.0046485,23.6024025 Z"/>
      </g>
      <g transform="translate(38.552 53.313)">
        <path fill="url(#ic_popup_kyc_verified@2x-e)" fill-rule="nonzero" d="M44.1922833,27.3367688 C43.6079675,27.1135878 42.8410489,27.0539709 42.7572734,27.0463277 C42.4608095,27.0249268 42.2233178,27.0738432 42.2203383,27.1563896 C42.2174775,27.2144778 42.3371195,27.2710374 42.5071456,27.3077247 C42.5767003,27.3230111 42.6604462,27.3367688 42.7480974,27.3428834 C42.7532551,27.3428834 43.1309009,27.3749847 43.4037545,27.4789321 C43.6753261,27.5813508 43.7777381,27.7342145 43.7110796,27.9191796 C43.6771242,28.0078406 43.5903989,28.0766292 43.4753803,28.1301315 C43.2392539,27.8977787 42.7929141,27.673069 42.1473943,27.5737076 C42.094565,27.5660644 42.03786,27.5599498 41.9798729,27.5523067 C41.2530823,27.4605884 40.4934699,27.4896325 40.0414736,27.6333244 C39.5610655,27.7861882 39.5663774,28.0200697 40.0501032,28.246308 C40.1182869,28.2784094 40.1993797,28.3074535 40.2856302,28.3364976 C40.8134487,28.5107622 41.6549017,28.6223527 42.5007646,28.6223527 C42.4488018,28.7018419 42.3079948,28.7553442 42.1196645,28.7706306 C41.5791802,28.814961 40.9552764,28.7782737 40.4642503,28.7278287 C40.3073411,28.6452823 40.1413985,28.5642645 39.9651405,28.4832468 C36.0631062,26.6718116 27.9822124,25.3571835 19.7659952,25.3571835 C17.2077756,25.3571835 14.837174,25.4886463 12.7600272,25.730171 L7.24763867,24.4216575 C7.06088719,24.3773271 6.82885001,24.365098 6.65724517,24.3880275 C6.48564032,24.4109571 6.40413201,24.4675167 6.45541223,24.5286621 L8.17201758,26.5755074 C6.88987475,26.9347372 5.91427381,27.3642843 5.32523331,27.8488623 L2.45239401,27.8488623 C0.776141271,27.8488623 -0.250917965,28.2539512 0.16573382,28.7507583 L1.71696047,30.6004094 C2.13361225,31.0972165 3.8401344,31.5023054 5.51638713,31.5023054 L6.34161925,31.5023054 C6.35193465,31.5023054 6.82214009,31.5033244 7.75223556,31.5053626 C9.09703604,32.0510861 10.8083004,32.5417787 12.8525481,32.9682685 L13.773028,34.0658301 C14.1896798,34.5626372 15.8962019,34.967726 17.5724547,34.967726 L21.4510456,34.967726 C22.874571,34.967726 23.844391,34.6665845 23.8192496,34.2676102 C26.1654989,34.3715575 28.4761488,34.3715575 30.6532031,34.2676102 C31.3024263,34.6665845 32.7773564,34.967726 34.1957241,34.967726 L38.0743151,34.967726 C39.7505678,34.967726 40.777627,34.5626372 40.3609752,34.0658301 L39.4404953,32.9682685 C42.0672669,32.127518 42.9713607,31.0223133 41.9893445,29.8513771 C41.7662756,29.5853942 41.4438986,29.3239973 41.0505662,29.0702435 C41.3109559,29.0855298 41.5778149,29.0962303 41.8511731,29.0962303 C42.1090581,29.0962303 42.3695665,29.0870585 42.6262586,29.0671862 C43.2828357,29.0136839 43.6615796,28.819547 43.6745422,28.5398063 C44.2255497,28.452674 44.6660376,28.2891098 44.7691858,28.0246556 C44.8646419,27.7510295 44.6762168,27.5202053 44.1922833,27.3367688 Z M40.8978062,27.8672059 C41.0114537,27.8305186 41.1959676,27.8045318 41.412591,27.8045318 C41.4177487,27.8045318 41.4229064,27.8045318 41.4280641,27.8045318 C41.5570066,27.8045318 41.6936412,27.8137036 41.8366561,27.8366332 C42.1149642,27.879435 42.4634561,28.073572 42.5757977,28.3059248 C42.4429498,28.313568 42.3307624,28.3150967 42.2598366,28.3166253 C41.7028049,28.3166253 41.1474114,28.2447793 40.9184131,28.1377747 C40.8772405,28.1194311 40.8476654,28.1026161 40.8245299,28.0873297 C40.647168,27.968096 40.8125706,27.8947214 40.8978062,27.8672059 Z"/>
        <path fill="#F78780" fill-rule="nonzero" d="M50.5920547,9.77306474 C50.1949118,9.03620165 49.4779914,8.83936836 49.4006258,8.81413333 C49.12211,8.74347522 48.8435942,8.90497946 48.7713864,9.17751786 C48.7198093,9.36930415 48.7920172,9.55604342 48.9312751,9.6771716 C48.9880098,9.72764168 49.0602176,9.77306474 49.1427408,9.79325277 C49.1478985,9.79325277 49.4986222,9.89923993 49.6842994,10.2424364 C49.8699766,10.5805859 49.8441881,11.0852867 49.622407,11.6959746 C49.5140953,11.988701 49.3696796,12.2158164 49.2097909,12.3924616 C49.1685293,11.6253165 48.9106443,10.8834064 48.3484549,10.5553509 C48.3020356,10.5301159 48.2504586,10.5099278 48.1988816,10.4846928 C47.5490113,10.1818723 46.7650408,10.2777655 46.192536,10.7521842 C45.5839273,11.2568849 45.3930924,12.0290771 45.6870813,12.7760342 C45.7283429,12.8820213 45.7850776,12.9779145 45.84697,13.0738076 C46.2286399,13.6491665 46.9765065,14.017598 47.8223694,14.017598 C47.7037423,14.2800424 47.5180651,14.4566877 47.3169147,14.5071578 C46.7392523,14.653521 46.1461167,14.5323928 45.6973967,14.3658415 C45.6097158,14.0933031 45.5117195,13.8258117 45.4034078,13.5583203 C43.02055,7.57761649 36.042181,3.23719007 27.8259637,3.23719007 C25.2677442,3.23719007 22.7868901,3.67123271 20.5071864,4.46865989 L16.0921946,0.148421497 C15.9426212,0.00205828053 15.7208401,-0.0383177792 15.5300052,0.0373873328 C15.3391703,0.113092445 15.2102277,0.299831721 15.2102277,0.50171202 L15.2102277,7.25965502 C13.6268136,8.44570178 12.2909691,9.86391088 11.2955329,11.4638122 L8.42269359,11.4638122 C6.74644085,11.4638122 5.37965016,12.8012692 5.37965016,14.4415467 L5.37965016,20.5484257 C5.37965016,22.1887031 6.74644085,23.5261601 8.42269359,23.5261601 L9.2479257,23.5261601 C9.2582411,23.5261601 9.72759187,23.5295248 10.655978,23.5362541 C11.5431025,25.3380358 12.8428431,26.9581252 14.5294112,28.3662403 L14.5294112,31.9899916 C14.5294112,33.6302691 15.8962019,34.967726 17.5724547,34.967726 L21.4510456,34.967726 C22.874571,34.967726 24.0969461,33.9734656 24.4064081,32.6561966 C26.665481,32.9993931 28.976131,32.9993931 31.2403616,32.6561966 C31.5549813,33.9734656 32.7773564,34.967726 34.1957241,34.967726 L38.0743151,34.967726 C39.7505678,34.967726 41.1173585,33.6302691 41.1173585,31.9899916 L41.1173585,28.3662403 C44.4492331,25.5903862 46.2802169,21.9413998 46.2802169,18.075392 C46.2802169,17.1972127 46.1770629,16.3341745 45.9965434,15.4963712 C46.244113,15.5468413 46.501998,15.5821703 46.7753562,15.5821703 C47.0332412,15.5821703 47.3014416,15.5518883 47.5747998,15.4862772 C48.2762471,15.3096319 48.8178057,14.668662 49.0653753,13.7450596 C49.6894571,13.4573802 50.2671196,12.9173504 50.5920547,12.0442181 C50.9169899,11.1408038 50.9221476,10.3787056 50.5920547,9.77306474 Z M46.8527217,11.5243763 C46.9971373,11.4032482 47.2034453,11.317449 47.4200688,11.317449 C47.4252265,11.317449 47.4303842,11.317449 47.4355419,11.317449 C47.5644844,11.317449 47.6934269,11.3477311 47.8172117,11.4234362 C48.0596237,11.5647524 48.2453009,12.2057223 48.1627777,12.9728675 C48.0235197,12.9981025 47.9100503,13.0031495 47.8378425,13.0081965 C47.2808108,13.0081965 46.7856716,12.7709872 46.6464137,12.4176967 C46.6206252,12.3571326 46.605152,12.3016155 46.5948366,12.2511454 C46.5174711,11.8574788 46.74441,11.6152225 46.8527217,11.5243763 Z"/>
        <path fill="url(#ic_popup_kyc_verified@2x-f)" fill-rule="nonzero" d="M50.5920547,9.77306474 C50.1949118,9.03620165 49.4779914,8.83936836 49.4006258,8.81413333 C49.12211,8.74347522 48.8435942,8.90497946 48.7713864,9.17751786 C48.7198093,9.36930415 48.7920172,9.55604342 48.9312751,9.6771716 C48.9880098,9.72764168 49.0602176,9.77306474 49.1427408,9.79325277 C49.1478985,9.79325277 49.4986222,9.89923993 49.6842994,10.2424364 C49.8699766,10.5805859 49.8441881,11.0852867 49.622407,11.6959746 C49.5140953,11.988701 49.3696796,12.2158164 49.2097909,12.3924616 C49.1685293,11.6253165 48.9106443,10.8834064 48.3484549,10.5553509 C48.3020356,10.5301159 48.2504586,10.5099278 48.1988816,10.4846928 C47.5490113,10.1818723 46.7650408,10.2777655 46.192536,10.7521842 C45.5839273,11.2568849 45.3930924,12.0290771 45.6870813,12.7760342 C45.7283429,12.8820213 45.7850776,12.9779145 45.84697,13.0738076 C46.2286399,13.6491665 46.9765065,14.017598 47.8223694,14.017598 C47.7037423,14.2800424 47.5180651,14.4566877 47.3169147,14.5071578 C46.7392523,14.653521 46.1461167,14.5323928 45.6973967,14.3658415 C45.6097158,14.0933031 45.5117195,13.8258117 45.4034078,13.5583203 C43.02055,7.57761649 36.042181,3.23719007 27.8259637,3.23719007 C25.2677442,3.23719007 22.7868901,3.67123271 20.5071864,4.46865989 L16.0921946,0.148421497 C15.9426212,0.00205828053 15.7208401,-0.0383177792 15.5300052,0.0373873328 C15.3391703,0.113092445 15.2102277,0.299831721 15.2102277,0.50171202 L15.2102277,7.25965502 C13.6268136,8.44570178 12.2909691,9.86391088 11.2955329,11.4638122 L8.42269359,11.4638122 C6.74644085,11.4638122 5.37965016,12.8012692 5.37965016,14.4415467 L5.37965016,20.5484257 C5.37965016,22.1887031 6.74644085,23.5261601 8.42269359,23.5261601 L9.2479257,23.5261601 C9.2582411,23.5261601 9.72759187,23.5295248 10.655978,23.5362541 C11.5431025,25.3380358 12.8428431,26.9581252 14.5294112,28.3662403 L14.5294112,31.9899916 C14.5294112,33.6302691 15.8962019,34.967726 17.5724547,34.967726 L21.4510456,34.967726 C22.874571,34.967726 24.0969461,33.9734656 24.4064081,32.6561966 C26.665481,32.9993931 28.976131,32.9993931 31.2403616,32.6561966 C31.5549813,33.9734656 32.7773564,34.967726 34.1957241,34.967726 L38.0743151,34.967726 C39.7505678,34.967726 41.1173585,33.6302691 41.1173585,31.9899916 L41.1173585,28.3662403 C44.4492331,25.5903862 46.2802169,21.9413998 46.2802169,18.075392 C46.2802169,17.1972127 46.1770629,16.3341745 45.9965434,15.4963712 C46.244113,15.5468413 46.501998,15.5821703 46.7753562,15.5821703 C47.0332412,15.5821703 47.3014416,15.5518883 47.5747998,15.4862772 C48.2762471,15.3096319 48.8178057,14.668662 49.0653753,13.7450596 C49.6894571,13.4573802 50.2671196,12.9173504 50.5920547,12.0442181 C50.9169899,11.1408038 50.9221476,10.3787056 50.5920547,9.77306474 Z M46.8527217,11.5243763 C46.9971373,11.4032482 47.2034453,11.317449 47.4200688,11.317449 C47.4252265,11.317449 47.4303842,11.317449 47.4355419,11.317449 C47.5644844,11.317449 47.6934269,11.3477311 47.8172117,11.4234362 C48.0596237,11.5647524 48.2453009,12.2057223 48.1627777,12.9728675 C48.0235197,12.9981025 47.9100503,13.0031495 47.8378425,13.0081965 C47.2808108,13.0081965 46.7856716,12.7709872 46.6464137,12.4176967 C46.6206252,12.3571326 46.605152,12.3016155 46.5948366,12.2511454 C46.5174711,11.8574788 46.74441,11.6152225 46.8527217,11.5243763 Z"/>
        <path fill="url(#ic_popup_kyc_verified@2x-g)" fill-rule="nonzero" d="M50.5920547,9.77306474 C50.1949118,9.03620165 49.4779914,8.83936836 49.4006258,8.81413333 C49.12211,8.74347522 48.8435942,8.90497946 48.7713864,9.17751786 C48.7198093,9.36930415 48.7920172,9.55604342 48.9312751,9.6771716 C48.9880098,9.72764168 49.0602176,9.77306474 49.1427408,9.79325277 C49.1478985,9.79325277 49.4986222,9.89923993 49.6842994,10.2424364 C49.8699766,10.5805859 49.8441881,11.0852867 49.622407,11.6959746 C49.5140953,11.988701 49.3696796,12.2158164 49.2097909,12.3924616 C49.1685293,11.6253165 48.9106443,10.8834064 48.3484549,10.5553509 C48.3020356,10.5301159 48.2504586,10.5099278 48.1988816,10.4846928 C47.5490113,10.1818723 46.7650408,10.2777655 46.192536,10.7521842 C45.5839273,11.2568849 45.3930924,12.0290771 45.6870813,12.7760342 C45.7283429,12.8820213 45.7850776,12.9779145 45.84697,13.0738076 C46.2286399,13.6491665 46.9765065,14.017598 47.8223694,14.017598 C47.7037423,14.2800424 47.5180651,14.4566877 47.3169147,14.5071578 C46.7392523,14.653521 46.1461167,14.5323928 45.6973967,14.3658415 C45.6097158,14.0933031 45.5117195,13.8258117 45.4034078,13.5583203 C43.02055,7.57761649 36.042181,3.23719007 27.8259637,3.23719007 C25.2677442,3.23719007 22.7868901,3.67123271 20.5071864,4.46865989 L16.0921946,0.148421497 C15.9426212,0.00205828053 15.7208401,-0.0383177792 15.5300052,0.0373873328 C15.3391703,0.113092445 15.2102277,0.299831721 15.2102277,0.50171202 L15.2102277,7.25965502 C13.6268136,8.44570178 12.2909691,9.86391088 11.2955329,11.4638122 L8.42269359,11.4638122 C6.74644085,11.4638122 5.37965016,12.8012692 5.37965016,14.4415467 L5.37965016,20.5484257 C5.37965016,22.1887031 6.74644085,23.5261601 8.42269359,23.5261601 L9.2479257,23.5261601 C9.2582411,23.5261601 9.72759187,23.5295248 10.655978,23.5362541 C11.5431025,25.3380358 12.8428431,26.9581252 14.5294112,28.3662403 L14.5294112,31.9899916 C14.5294112,33.6302691 15.8962019,34.967726 17.5724547,34.967726 L21.4510456,34.967726 C22.874571,34.967726 24.0969461,33.9734656 24.4064081,32.6561966 C26.665481,32.9993931 28.976131,32.9993931 31.2403616,32.6561966 C31.5549813,33.9734656 32.7773564,34.967726 34.1957241,34.967726 L38.0743151,34.967726 C39.7505678,34.967726 41.1173585,33.6302691 41.1173585,31.9899916 L41.1173585,28.3662403 C44.4492331,25.5903862 46.2802169,21.9413998 46.2802169,18.075392 C46.2802169,17.1972127 46.1770629,16.3341745 45.9965434,15.4963712 C46.244113,15.5468413 46.501998,15.5821703 46.7753562,15.5821703 C47.0332412,15.5821703 47.3014416,15.5518883 47.5747998,15.4862772 C48.2762471,15.3096319 48.8178057,14.668662 49.0653753,13.7450596 C49.6894571,13.4573802 50.2671196,12.9173504 50.5920547,12.0442181 C50.9169899,11.1408038 50.9221476,10.3787056 50.5920547,9.77306474 Z M46.8527217,11.5243763 C46.9971373,11.4032482 47.2034453,11.317449 47.4200688,11.317449 C47.4252265,11.317449 47.4303842,11.317449 47.4355419,11.317449 C47.5644844,11.317449 47.6934269,11.3477311 47.8172117,11.4234362 C48.0596237,11.5647524 48.2453009,12.2057223 48.1627777,12.9728675 C48.0235197,12.9981025 47.9100503,13.0031495 47.8378425,13.0081965 C47.2808108,13.0081965 46.7856716,12.7709872 46.6464137,12.4176967 C46.6206252,12.3571326 46.605152,12.3016155 46.5948366,12.2511454 C46.5174711,11.8574788 46.74441,11.6152225 46.8527217,11.5243763 Z"/>
        <path fill="#5C5C5C" d="M17.218157,11.4744095 C15.2127904,11.4744095 14.5887927,13.3971062 14.5411593,14.4165581 C14.5268693,14.7070754 14.7269296,14.9553357 14.9889134,14.9711821 C14.9984401,14.9711821 15.0079667,14.9711821 15.0174934,14.9711821 C15.2699505,14.9711821 15.4795375,14.7546146 15.4938275,14.4693794 C15.4938275,14.4640973 15.4938275,14.4482509 15.4985909,14.4271223 C15.5224076,14.136605 15.7224679,12.5255542 17.2229204,12.5255542 C18.7710063,12.5255542 18.8281664,14.1260407 18.8329297,14.3109154 C18.8329297,14.3161975 18.8376931,14.3214797 18.8376931,14.3267618 C18.8472197,14.611997 19.0520434,14.8391288 19.3092638,14.8391288 C19.5712476,14.8391288 19.785598,14.6014328 19.785598,14.3109154 C19.7760713,13.3284385 19.2425771,11.4744095 17.218157,11.4744095 Z"/>
        <path fill="#A34842" d="M8.54173167,13.6573947 C8.06092544,13.6573947 7.66753852,13.8821872 7.66753852,14.1569337 L7.66753852,20.151401 C7.66753852,20.4261474 8.06092544,20.6509399 8.54173167,20.6509399 C9.02253791,20.6509399 9.41592482,20.4261474 9.41592482,20.151401 L9.41592482,14.1569337 C9.41592482,13.8821872 9.03127984,13.6573947 8.54173167,13.6573947 Z"/>
        <path fill="#B34E48" d="M25.2782189,8.42998714 C25.665789,8.34643061 29.1539205,7.62784446 32.6475107,8.71964977 C32.7020981,8.73636107 32.7566854,8.74193151 32.805814,8.74193151 C33.0405396,8.74193151 33.2534303,8.58595932 33.3298525,8.34643061 C33.4171923,8.05119754 33.258889,7.73925316 32.9695761,7.6501262 C29.2849301,6.4970461 25.7203764,7.18220964 25.0434933,7.33261139 C24.7487216,7.39945661 24.5631246,7.69468968 24.6231707,7.99549319 C24.6886755,8.30743756 24.9834472,8.49683236 25.2782189,8.42998714 Z"/>
      </g>
    </g>
  </g>
</svg>
