<svg width="115" height="101" viewBox="0 0 115 101" fill="none" xmlns="http://www.w3.org/2000/svg">
<g clip-path="url(#clip0)">
<g opacity="0.1">
<path opacity="0.1" d="M57.3322 0.582932C46.3322 0.582932 27.3322 0.582932 23.3322 11.5829C19.3322 22.5829 52.5902 21.9378 60.3322 29.6797C68.0741 37.4216 80.557 36.5829 92.3322 36.5829C104.107 36.5829 101.876 49.561 111.332 47.5829C120.788 45.6048 112.332 35.6924 115.332 29.6797C115.332 25.943 115.332 16.2441 115.332 0.582932C88.9988 0.582932 69.6655 0.582932 57.3322 0.582932Z" fill="#675AF6"/>
<path opacity="0.1" d="M60.7155 72.1489C21.4519 58.1885 4.00139 89.5994 4.00139 72.1489C4.00139 54.6984 24.942 45.9732 35.4123 35.5028C45.8826 25.0325 41.3005 7.58203 57.2254 7.58203C73.1503 7.58203 65.1273 17.3641 82.5287 25.0325C99.93 32.701 117.43 12.8172 117.43 35.5028C117.43 58.1885 99.9792 86.1093 60.7155 72.1489Z" fill="#675AF6"/>
</g>
<path d="M62.2844 50.0877L69.9106 44.6587C71.8186 43.3086 72.9548 41.1182 72.9596 38.7808V27.6125C72.9596 27.4752 72.8785 27.3509 72.7527 27.296L62.063 22.6753C61.9751 22.6369 61.8751 22.6369 61.7872 22.6753L51.0975 27.296C50.9717 27.3509 50.8906 27.4752 50.8906 27.6125V38.7849C50.8953 41.1225 52.0318 43.313 53.9403 44.6629L61.5665 50.0918C61.7824 50.243 62.0703 50.2414 62.2844 50.0877Z" fill="#B9B3F9"/>
<path d="M54.9815 43.1754C53.6992 42.2372 52.9336 40.7165 52.9258 39.0919V28.3137L61.9258 24.293L70.9258 28.3137V39.0965C70.9181 40.7211 70.1525 42.242 68.87 43.18L61.9258 48.293L54.9815 43.1754Z" fill="#F6F2FF"/>
<path d="M60.346 40.6471C60.1968 40.6471 60.0516 40.5987 59.9322 40.5091L56.7798 38.1443C56.5827 37.9965 56.4794 37.7547 56.5089 37.5101C56.5383 37.2655 56.6961 37.0551 56.9227 36.9584C57.1492 36.8616 57.4103 36.893 57.6074 37.0409L60.2281 39.005L66.1156 31.645C66.3535 31.3473 66.7876 31.2989 67.0853 31.5367C67.383 31.7746 67.4314 32.2087 67.1936 32.5064L60.8874 40.3864C60.7562 40.5514 60.5568 40.6475 60.346 40.6471Z" fill="#675AF6"/>
<path d="M51.1845 52.1217L48.0341 48.9707C47.3584 48.295 46.8177 47.4966 46.441 46.6183L44.8976 43.019C44.6598 42.4646 44.1147 42.105 43.5114 42.1045C42.9986 42.1052 42.5213 42.3662 42.2439 42.7975C41.9665 43.2288 41.927 43.7714 42.139 44.2383L44.8417 50.1845C45.1732 50.9134 45.6329 51.5768 46.199 52.1431L51.1845 57.13H57.8631V55.1569C57.8856 53.6801 57.4061 52.2394 56.5031 51.0707C55.9984 50.4047 55.311 49.8999 54.5245 49.6176C52.9935 48.9714 51.5822 48.0719 50.35 46.9569C49.366 46.1355 47.9173 46.2025 47.0135 47.1114L51.1845 52.1217ZM72.8162 52.1217L75.9672 48.9707C76.643 48.295 77.1837 47.4966 77.5604 46.6183L79.1045 43.019C79.3425 42.4641 79.8883 42.1045 80.4921 42.1045C81.0046 42.1057 81.4815 42.3669 81.7586 42.7981C82.0357 43.2293 82.075 43.7716 81.8631 44.2383L79.1604 50.1845C78.8289 50.9134 78.3692 51.5768 77.8031 52.1431L72.8162 57.13H66.139V55.1569C66.1166 53.68 66.5964 52.2393 67.4997 51.0707C68.0044 50.4047 68.6918 49.8999 69.4783 49.6176C71.0091 48.9714 72.4201 48.0719 73.6521 46.9569C74.6364 46.1357 76.0851 46.2028 76.9893 47.1114" fill="#E8E0FF"/>
<path d="M65.4467 64.0273H73.0327C73.4137 64.0273 73.7227 63.7184 73.7227 63.3373V57.8203C73.7227 57.4393 73.4137 57.1303 73.0327 57.1303H65.4467C65.0656 57.1303 64.7567 57.4393 64.7567 57.8203V63.3373C64.7567 63.7184 65.0656 64.0273 65.4467 64.0273Z" fill="#B9B3F9"/>
<path d="M68.2074 61.268H67.5178C67.1369 61.268 66.8281 60.9592 66.8281 60.5783C66.8281 60.1974 67.1369 59.8887 67.5178 59.8887H68.2074C68.5883 59.8887 68.8971 60.1974 68.8971 60.5783C68.8971 60.9592 68.5883 61.268 68.2074 61.268Z" fill="#E8E0FF"/>
<path d="M58.5533 57.1289H50.9673C50.5863 57.1289 50.2773 57.4378 50.2773 57.8189V63.3359C50.2773 63.717 50.5863 64.0259 50.9673 64.0259H58.5533C58.9344 64.0259 59.2433 63.717 59.2433 63.3359V57.8189C59.2433 57.4378 58.9344 57.1289 58.5533 57.1289Z" fill="#B9B3F9"/>
<path d="M56.4848 61.268H55.7951C55.4142 61.268 55.1055 60.9592 55.1055 60.5783C55.1055 60.1974 55.4142 59.8887 55.7951 59.8887H56.4848C56.8657 59.8887 57.1744 60.1974 57.1744 60.5783C57.1744 60.9592 56.8657 61.268 56.4848 61.268Z" fill="#E8E0FF"/>
<path d="M52.2925 52.2949C52.0206 52.5617 51.5852 52.5617 51.3132 52.2949L48.1615 49.1432C47.7028 48.6843 47.3 48.1727 46.9615 47.6191C46.8994 47.5156 46.8442 47.4191 46.7891 47.3156L47.0511 47.0742C47.2983 46.8257 47.5974 46.6349 47.927 46.5156C48.2452 47.1258 48.6545 47.6839 49.1408 48.1708L52.2925 51.3156C52.5615 51.5867 52.5615 52.0239 52.2925 52.2949ZM71.767 52.2949C72.0389 52.5617 72.4743 52.5617 72.7463 52.2949L75.898 49.1432C76.3567 48.6843 76.7595 48.1727 77.098 47.6191C77.1601 47.5156 77.2153 47.4191 77.2704 47.3156L77.0084 47.0742C76.7612 46.8257 76.4621 46.6349 76.1325 46.5156C75.8143 47.1258 75.405 47.6839 74.9187 48.1708L71.767 51.3156C71.498 51.5867 71.498 52.0239 71.767 52.2949Z" fill="#B9B3F9"/>
</g>
<defs>
<clipPath id="clip0">
<rect width="115" height="100" fill="white" transform="translate(0 0.582031)"/>
</clipPath>
</defs>
</svg>
