<?xml version="1.0" encoding="UTF-8"?>
<svg width="14px" height="18px" viewBox="0 0 14 18" version="1.1" xmlns="http://www.w3.org/2000/svg" xmlns:xlink="http://www.w3.org/1999/xlink">
    <!-- Generator: Sketch 55.2 (78181) - https://sketchapp.com -->
    <title>ic_read</title>
    <desc>Created with Sketch.</desc>
    <g id="Page-1" stroke="none" stroke-width="1" fill="none" fill-rule="evenodd">
        <g id="ic_read" fill="#378EFC" fill-rule="nonzero">
            <path d="M10.6458333,6.41666667 L3.35416667,6.41666667 C3.19316667,6.41666667 3.0625,6.54704167 3.0625,6.70833333 C3.0625,6.869625 3.19316667,7 3.35416667,7 L10.6458333,7 C10.8068333,7 10.9375,6.869625 10.9375,6.70833333 C10.9375,6.54704167 10.8068333,6.41666667 10.6458333,6.41666667 Z M3.35416667,4.66666667 L6.27083333,4.66666667 C6.43183333,4.66666667 6.5625,4.53629167 6.5625,4.375 C6.5625,4.21370833 6.43183333,4.08333333 6.27083333,4.08333333 L3.35416667,4.08333333 C3.19316667,4.08333333 3.0625,4.21370833 3.0625,4.375 C3.0625,4.53629167 3.19316667,4.66666667 3.35416667,4.66666667 Z M10.6458333,8.75 L3.35416667,8.75 C3.19316667,8.75 3.0625,8.880375 3.0625,9.04166666 C3.0625,9.20295833 3.19316667,9.33333333 3.35416667,9.33333333 L10.6458333,9.33333333 C10.8068333,9.33333333 10.9375,9.20295833 10.9375,9.04166666 C10.9375,8.880375 10.8068333,8.75 10.6458333,8.75 Z M10.6458333,11.0833333 L3.35416667,11.0833333 C3.19316667,11.0833333 3.0625,11.2137083 3.0625,11.375 C3.0625,11.5362917 3.19316667,11.6666667 3.35416667,11.6666667 L10.6458333,11.6666667 C10.8068333,11.6666667 10.9375,11.5362917 10.9375,11.375 C10.9375,11.2137083 10.8068333,11.0833333 10.6458333,11.0833333 Z M10.6458333,13.4166667 L3.35416667,13.4166667 C3.19316667,13.4166667 3.0625,13.5470417 3.0625,13.7083333 C3.0625,13.869625 3.19316667,14 3.35416667,14 L10.6458333,14 C10.8068333,14 10.9375,13.869625 10.9375,13.7083333 C10.9375,13.5470417 10.8068333,13.4166667 10.6458333,13.4166667 Z" id="Shape"></path>
            <path d="M8.77148954,0 L1.14583333,0 C0.593548584,0 0.145833333,0.44771525 0.145833333,1 L0.145833333,16.5 C0.145833333,17.0522847 0.593548584,17.5 1.14583333,17.5 L12.8541667,17.5 C13.4064514,17.5 13.8541667,17.0522847 13.8541667,16.5 L13.8541667,5.08267712 C13.8541667,4.55224415 13.643453,4.04353632 13.2683802,3.66846356 L10.1857031,0.585786438 C9.81063035,0.210713681 9.30192252,0 8.77148954,0 Z M9.77083333,0.99575 L12.8584167,4.08333333 L10.7708333,4.08333333 C10.2185486,4.08333333 9.77083333,3.63561808 9.77083333,3.08333333 L9.77083333,0.99575 L9.77083333,0.99575 Z M0.729166667,15.9166667 L0.729166667,1.58333333 C0.729166667,1.03104858 1.17688192,0.583333333 1.72916667,0.583333333 L9.1875,0.583333333 L9.1875,0.583333333 L9.1875,3.66666667 C9.1875,4.21895142 9.63521525,4.66666667 10.1875,4.66666667 L13.2708333,4.66666667 L13.2708333,4.66666667 L13.2708333,15.9166667 C13.2708333,16.4689514 12.8231181,16.9166667 12.2708333,16.9166667 L1.72916667,16.9166667 C1.17688192,16.9166667 0.729166667,16.4689514 0.729166667,15.9166667 Z" id="Shape"></path>
        </g>
    </g>
</svg>