<svg width="140" height="109" viewBox="0 0 140 109" fill="none" xmlns="http://www.w3.org/2000/svg">
<g clip-path="url(#clip0)">
<path opacity="0.05" d="M72.3531 108.259C59.486 108.259 37.2612 108.259 32.5823 96.4143C27.9033 84.5698 66.8063 85.2645 75.8623 76.9282C84.9183 68.592 99.5199 69.4951 113.294 69.4951C127.067 69.4951 124.457 55.5206 135.519 57.6506C146.58 59.7806 136.688 70.454 140.197 76.9282C140.197 80.9518 140.197 91.3953 140.197 108.259C109.395 108.259 86.7798 108.259 72.3531 108.259Z" fill="#675AF6"/>
<path opacity="0.05" d="M74.3598 79.7961C120.288 64.764 140.7 98.5863 140.7 79.7961C140.7 61.0059 116.205 51.6109 103.958 40.3367C91.7103 29.0626 97.0701 10.2725 78.4423 10.2725C59.8144 10.2725 69.1992 20.8055 48.8443 29.0626C28.4894 37.3198 8.01953 15.9095 8.01953 40.3367C8.01953 64.764 28.4319 94.8283 74.3598 79.7961ZM122.663 108.002C122.766 107.386 122.746 106.801 123.118 106.256C123.866 105.177 124.926 105.446 125.953 105.923C126.999 106.409 127.986 106.697 129.12 106.247C130.894 105.541 131.73 103.075 130.034 101.914C129.486 101.537 128.944 102.157 129.017 102.634C129.12 103.296 129.477 104.029 128.861 104.596C128.035 105.356 127.067 104.718 126.241 104.376C125.351 104.007 124.403 103.926 123.489 104.268C121.91 104.857 120.762 106.828 122.018 108.16C122.194 108.344 122.619 108.259 122.663 108.002ZM129.543 46.3216C129.727 46.8688 130.292 47.0445 130.805 46.7202C132.824 45.4568 134.835 44.2205 136.75 42.822C137.117 42.5518 137.036 42.0113 136.677 41.7816C134.438 40.3696 131.422 38.282 128.582 38.2685C127.862 38.2618 127.356 39.2008 128.09 39.5859C129.235 40.194 130.607 40.4101 131.833 40.8763C133.242 41.4168 134.644 42.0518 135.891 42.8693C135.921 42.491 135.95 42.1126 135.972 41.7343C133.837 42.9436 131.826 44.3016 129.8 45.6528C130.196 45.7271 130.6 45.8014 130.996 45.8757C130.13 43.6192 129.242 41.383 128.281 39.1603C128.068 38.6941 127.202 38.9509 127.349 39.444C128.024 41.7546 128.765 44.0381 129.543 46.3216Z" fill="#675AF6"/>
<path opacity="0.05" d="M55.082 52.1478C56.9597 52.2781 58.933 52.328 60.8107 52.1555C61.5018 52.0942 61.4143 51.2281 60.7441 51.2051C58.8956 51.1399 56.9596 51.2856 55.132 51.5117C54.7698 51.5577 54.6574 52.1172 55.082 52.1478ZM131.733 76.6707C133.187 78.2954 136.012 78.6346 137.829 77.3432C142.225 74.2188 137.642 68.4639 132.903 69.6542C132.024 69.8744 132.243 71.0289 133.11 71.0706C134.493 71.142 135.98 71.1896 137.086 72.0882C138.275 73.0464 138.301 74.6711 137.325 75.778C134.739 78.7001 130.252 74.3973 132.967 71.7788C133.317 71.4514 132.786 70.9634 132.424 71.2788C130.802 72.7131 130.187 74.9448 131.733 76.6707ZM44.2926 99.449C44.799 101.182 45.3549 102.895 45.9384 104.607C46.076 105.018 46.4999 105.149 46.8852 104.906C48.3989 103.959 49.9071 103.031 51.3437 101.982C51.6189 101.78 51.5584 101.374 51.2887 101.202C49.6098 100.143 47.3475 98.5775 45.2173 98.5673C44.6779 98.5623 44.2981 99.2666 44.8485 99.5554C45.7072 100.011 46.7365 100.174 47.6558 100.523C48.7126 100.929 49.764 101.405 50.6997 102.018C50.7217 101.734 50.7437 101.45 50.7603 101.167C49.1585 102.074 47.6503 103.092 46.1311 104.106C46.4283 104.161 46.731 104.217 47.0283 104.273C46.3788 102.58 45.7127 100.903 44.9916 99.2362C44.8375 98.8866 44.188 99.0791 44.2926 99.449Z" fill="#675AF6"/>
<path d="M121.671 97.4902H81.529C80.3394 97.4902 79.375 98.4544 79.375 99.6437C79.375 100.833 80.3394 101.797 81.529 101.797H121.671C122.861 101.797 123.825 100.833 123.825 99.6437C123.825 98.4544 122.861 97.4902 121.671 97.4902Z" fill="#C6C2F9"/>
<path d="M85.2227 54.4189H117.975V68.417C114.856 74.1597 109.397 77.0311 101.599 77.0311C93.8007 77.0311 88.3419 74.1597 85.2227 68.417V54.4189Z" fill="#E8E0FF"/>
<path d="M87.5625 64.1106C89.1221 62.6749 91.0717 61.957 93.4112 61.957C96.9203 61.957 106.278 65.1873 109.787 65.1873C112.127 65.1873 114.076 64.8284 115.636 64.1106V68.4176C111.737 72.7247 107.058 74.8783 101.599 74.8783C96.1405 74.8783 91.4616 72.7247 87.5625 68.4176V64.1106Z" fill="#8279F8"/>
<path d="M85.2227 97.4902H117.975V84.569C115.636 78.8262 110.177 75.9548 101.599 75.9548C93.0209 75.9548 87.5621 78.8262 85.2227 84.569V97.4902Z" fill="#E8E0FF"/>
<path d="M91.0742 97.4902H112.129C109.01 93.901 105.501 92.1064 101.602 92.1064C97.7027 92.1064 94.1935 93.901 91.0742 97.4902Z" fill="#8279F8"/>
<path d="M121.671 50.1123H81.529C80.3394 50.1123 79.375 51.0765 79.375 52.2658C79.375 53.4552 80.3394 54.4193 81.529 54.4193H121.671C122.861 54.4193 123.825 53.4552 123.825 52.2658C123.825 51.0765 122.861 50.1123 121.671 50.1123Z" fill="#C6C2F9"/>
<path d="M102.769 74.9718C102.769 74.3256 102.245 73.8018 101.599 73.8018C100.953 73.8018 100.43 74.3256 100.43 74.9718V78.0158C100.43 78.6619 100.953 79.1858 101.599 79.1858C102.245 79.1858 102.769 78.6619 102.769 78.0158V74.9718Z" fill="#675AF6"/>
<path d="M101.6 83.4919C102.246 83.4919 102.77 83.0097 102.77 82.4149C102.77 81.8201 102.246 81.3379 101.6 81.3379C100.954 81.3379 100.43 81.8201 100.43 82.4149C100.43 83.0097 100.954 83.4919 101.6 83.4919Z" fill="#675AF6"/>
</g>
<defs>
<clipPath id="clip0">
<rect width="140" height="108" fill="white" transform="translate(0 0.582031)"/>
</clipPath>
</defs>
</svg>
