<svg width="140" height="109" viewBox="0 0 140 109" fill="none" xmlns="http://www.w3.org/2000/svg">
<g clip-path="url(#clip0)">
<path opacity="0.05" d="M70.4998 109.014C57.1693 109.014 34.1439 109.014 29.2964 95.6834C24.449 82.3528 64.7532 83.1347 74.1354 73.7525C83.5176 64.3703 98.6452 65.3867 112.915 65.3867C127.185 65.3867 124.481 49.659 135.941 52.0562C147.4 54.4534 137.152 66.466 140.788 73.7525C140.788 78.2809 140.788 90.0347 140.788 109.014C108.876 109.014 85.4462 109.014 70.4998 109.014Z" fill="#675AF6"/>
<path opacity="0.05" d="M70.7299 81.8283C118.312 64.9102 139.46 102.976 139.46 81.8283C139.46 60.6807 114.083 50.1069 101.394 37.4183C88.7054 24.7297 94.2582 3.58203 74.9594 3.58203C55.6606 3.58203 65.3834 15.4366 44.2953 24.7297C23.2072 34.0228 2 9.92632 2 37.4183C2 64.9102 23.1477 98.7465 70.7299 81.8283ZM120.053 44.154C120.244 44.7699 120.829 44.9676 121.361 44.6026C123.452 43.1807 125.536 41.7893 127.52 40.2153C127.9 39.9112 127.817 39.3029 127.444 39.0444C125.125 37.4553 122 35.1058 119.057 35.0905C118.312 35.0829 117.788 36.1398 118.548 36.5732C119.734 37.2576 121.156 37.5009 122.426 38.0255C123.886 38.6338 125.338 39.3485 126.631 40.2686C126.661 39.8428 126.691 39.417 126.714 38.9912C124.502 40.3522 122.418 41.8805 120.32 43.4012C120.73 43.4849 121.148 43.5685 121.559 43.6522C120.662 41.1126 119.742 38.5958 118.746 36.0942C118.525 35.5696 117.628 35.8585 117.78 36.4136C118.479 39.014 119.247 41.584 120.053 44.154Z" fill="#675AF6"/>
<path opacity="0.05" d="M42.9086 50.7116C44.8538 50.8582 46.8983 50.9143 48.8436 50.7202C49.5596 50.6512 49.469 49.6764 48.7746 49.6505C46.8595 49.5772 44.8538 49.7411 42.9603 49.9956C42.5851 50.0473 42.4686 50.6771 42.9086 50.7116ZM98.7996 31.0394C97.1184 32.6536 96.4821 35.1653 98.0829 37.1077C99.5899 38.9363 102.517 39.318 104.399 37.8646C108.954 34.3482 104.205 27.8713 99.2952 29.2109C98.3843 29.4587 98.612 30.7581 99.5095 30.805C100.943 30.8854 102.483 30.939 103.629 31.9503C104.861 33.0287 104.888 34.8572 103.877 36.103C101.197 39.3917 96.5491 34.5491 99.3622 31.6021C99.7239 31.2337 99.1746 30.6844 98.7996 31.0394ZM31.7305 103.947C32.2551 105.898 32.8311 107.825 33.4356 109.753C33.5782 110.215 34.0173 110.363 34.4165 110.089C35.9847 109.023 37.5472 107.979 39.0356 106.799C39.3208 106.571 39.258 106.114 38.9786 105.92C37.2393 104.729 34.8955 102.966 32.6885 102.955C32.1297 102.949 31.7362 103.742 32.3065 104.067C33.1961 104.58 34.2625 104.763 35.2148 105.156C36.3097 105.612 37.3989 106.149 38.3684 106.839C38.3912 106.519 38.414 106.2 38.4311 105.88C36.7717 106.901 35.2091 108.048 33.6352 109.188C33.9431 109.251 34.2568 109.313 34.5647 109.376C33.8918 107.472 33.2018 105.584 32.4547 103.708C32.2951 103.314 31.6221 103.531 31.7305 103.947Z" fill="#675AF6"/>
<path d="M74.8516 50.6484H107.617V57.7174H74.8516V50.6484Z" fill="#F6F2FF"/>
<path d="M115.327 94.4612C115.327 102.445 108.598 108.916 100.296 108.916H82.171C73.8693 108.916 67.1406 102.445 67.1406 94.4612V69.8876C67.1406 61.9034 73.8693 55.4326 82.171 55.4326H100.296C108.598 55.4326 115.327 61.9034 115.327 69.8876V94.4612Z" fill="#E8E0FF"/>
<path d="M110.512 92.0041C110.512 98.3898 105.126 103.568 98.4884 103.568H83.9909C77.35 103.568 71.9648 98.3898 71.9648 92.0041V72.3453C71.9648 65.9595 77.35 60.7812 83.9909 60.7812H98.4884C105.129 60.7812 110.512 65.9595 110.512 72.3453V92.0041Z" fill="#F6F2FF"/>
<path d="M111.783 50.138C111.783 52.4253 109.93 54.2789 107.643 54.2789H74.8948C72.6076 54.2789 70.7539 52.4253 70.7539 50.138C70.7539 47.8507 72.6076 45.9971 74.8948 45.9971H107.643C109.93 45.9971 111.783 47.8507 111.783 50.138Z" fill="#8279F8"/>
<path d="M74.6445 52.221L76.2005 48.3311M106.524 52.221L108.08 48.3311L106.524 52.221ZM82.4063 52.221L83.9623 48.3311L82.4063 52.221ZM86.2962 52.221L87.8522 48.3311L86.2962 52.221ZM90.9642 52.221L92.5201 48.3311L90.9642 52.221ZM94.8541 52.221L96.4101 48.3311L94.8541 52.221ZM98.744 52.221L100.3 48.3311L98.744 52.221ZM102.634 52.221L104.19 48.3311L102.634 52.221ZM78.5164 52.221L80.0723 48.3311L78.5164 52.221Z" stroke="#9D95F8" stroke-width="1.212" stroke-linecap="round" stroke-linejoin="round"/>
<path d="M78.5156 96.2994C83.8152 91.7565 89.1615 87.8524 94.2598 82.8431C96.5815 80.5956 98.2177 78.0712 100.006 75.3799C103.964 77.3531 107.224 81.1441 111.191 83.2784C109.45 86.6114 104.701 89.6702 101.913 92.271C98.9702 95.0442 95.6715 97.5207 92.1977 99.8501C91.5619 100.215 89.8673 101.939 89.1965 101.826C88.2077 101.894 86.0406 99.4741 85.3348 98.8804C83.2494 97.58 81.024 96.6076 78.6935 96.4492" fill="#B9B3F9"/>
<path d="M84.8849 93.8039C87.7731 91.3466 90.7832 89.029 93.6402 86.5388C96.4206 84.1144 98.6087 81.5311 100.632 78.4957C100.389 78.556 100.148 78.619 99.904 78.6793C102.886 80.2353 105.13 82.783 108.058 84.4185C107.996 84.1829 107.931 83.95 107.868 83.7144C106.672 85.8348 104.558 87.3387 102.679 88.8674C100.397 90.7247 98.2913 92.7108 95.8821 94.4285C95.0091 95.0503 94.105 95.6174 93.2774 96.2968C92.8692 96.631 92.4894 97.083 91.9509 96.7926C91.4351 96.5132 90.9957 96.0311 90.5763 95.6311C88.989 94.1162 86.852 93.2505 84.6384 93.0286C83.9581 92.9601 83.9638 93.9874 84.6384 94.0559C86.1604 94.2066 88.0849 94.7654 89.2385 95.7927C89.9584 96.4338 90.5989 97.1351 91.4124 97.6747C91.9962 98.0638 92.5801 97.998 93.1612 97.6665C94.156 97.0995 95.063 96.2502 96.004 95.5982C98.5379 93.845 100.76 91.8096 103.11 89.8481C105.147 88.1469 107.466 86.5553 108.784 84.224C108.923 83.9802 108.849 83.6651 108.594 83.5199C105.666 81.8845 103.424 79.3368 100.44 77.7807C100.176 77.6438 99.8728 77.7232 99.7113 77.9643C97.6394 81.0763 95.3379 83.6624 92.4951 86.1416C89.7713 88.5194 86.8888 90.722 84.1338 93.0642C83.618 93.5162 84.3719 94.2395 84.8849 93.8039Z" fill="#9D95F8"/>
<path d="M97.7817 86.5467C96.5728 85.9271 94.5121 86.3593 94.1662 87.8088C94.1791 87.8355 94.1846 87.8661 94.1736 87.9044C94.1515 87.9789 94.1349 88.0535 94.1202 88.1281C94.1165 88.1874 94.1147 88.2486 94.1184 88.3117C94.1202 88.3537 94.1055 88.3862 94.0834 88.4092C93.9969 89.4188 94.525 90.3252 95.5057 90.7115C96.3613 91.0499 97.5425 91.0863 98.2049 90.3061C98.9942 89.3729 98.9629 87.1529 97.7817 86.5467ZM104.966 85.4941C106.003 85.4941 106.003 83.9381 104.966 83.9381C103.929 83.9381 103.929 85.4941 104.966 85.4941ZM101.076 82.3821C102.113 82.3821 102.113 80.8262 101.076 80.8262C100.039 80.8262 100.039 82.3821 101.076 82.3821Z" fill="#9D95F8"/>
<path d="M80.8477 96.6217C85.2985 89.9848 88.7602 82.3737 89.4205 74.6025C92.059 76.0596 94.6946 78.0024 97.1672 79.7823C100.795 82.048 102.278 81.4023 99.9686 85.6107C97.0014 91.1162 94.8575 97.4303 91.5616 102.61C89.2547 99.533 84.6381 97.2674 81.0106 96.7817" fill="#B9B3F9"/>
<path d="M84.9498 94.0216C88.1705 89.0163 90.6152 83.4671 91.1687 77.4642C90.9072 77.6163 90.6458 77.7685 90.3844 77.9207C92.4536 79.1298 94.2614 80.7052 96.2862 81.9706C96.8786 82.3426 97.5155 82.6357 98.1107 83.0049C98.845 83.4586 98.2526 84.3605 97.9717 84.9411C95.8801 89.2418 94.2114 93.8243 91.7333 97.9193C92.0058 97.8826 92.2784 97.8488 92.551 97.8122C90.6931 95.3969 87.7143 93.8356 84.7551 93.3649C84.0987 93.2606 83.815 94.278 84.4769 94.3851C87.286 94.8332 90.0478 96.2678 91.8112 98.5618C92.0253 98.8408 92.4703 98.7168 92.6288 98.4547C94.089 96.0395 95.2126 93.4523 96.3363 90.8679C97.3069 88.6358 98.7004 86.4348 99.4291 84.1181C99.8129 82.8922 98.9256 82.2355 97.98 81.7198C95.4908 80.3614 93.3548 78.4421 90.9045 77.0104C90.5373 76.7962 90.1563 77.078 90.1201 77.467C89.5861 83.2755 87.1581 88.6499 84.0458 93.4889C83.6815 94.061 84.5854 94.5909 84.9498 94.0216Z" fill="#C6C2F9"/>
<path d="M92.5565 85.5679C92.5106 85.6445 92.6727 85.6003 92.5565 85.5679C89.6605 84.7657 87.0061 90.752 89.8379 91.5895C91.7553 92.1557 94.2262 90.7756 94.7308 88.9208C95.2262 87.116 94.1559 85.8981 92.5565 85.5679ZM96.4088 84.7161C97.4461 84.7161 97.4461 83.1601 96.4088 83.1601C95.3715 83.1601 95.3715 84.7161 96.4088 84.7161ZM92.5188 82.3821C93.5562 82.3821 93.5562 80.8262 92.5188 80.8262C91.4815 80.8262 91.4815 82.3821 92.5188 82.3821Z" fill="#C6C2F9"/>
<path d="M94.8527 101.054C94.8527 102.344 93.8559 103.388 92.6237 103.388H81.522C80.2898 103.388 79.293 102.344 79.293 101.054C79.293 99.7635 80.2898 98.7197 81.522 98.7197H92.6237C93.8559 98.7197 94.8527 99.7665 94.8527 101.054Z" fill="#8279F8"/>
<path d="M101.853 96.3857C101.853 97.6759 100.856 98.7197 99.6237 98.7197H88.522C87.2898 98.7197 86.293 97.6759 86.293 96.3857C86.293 95.0955 87.2898 94.0518 88.522 94.0518H99.6237C100.856 94.0518 101.853 95.0955 101.853 96.3857Z" fill="#8279F8"/>
<path fill-rule="evenodd" clip-rule="evenodd" d="M100.299 94.4404C100.299 95.0864 97.5123 95.6074 94.0755 95.6074C90.6386 95.6074 87.8516 95.0864 87.8516 94.4404C87.8516 93.7944 90.6386 93.2735 94.0755 93.2735C97.5123 93.2683 100.299 93.7944 100.299 94.4404Z" fill="#9D95F8"/>
<path d="M90.9621 97.9414C90.9621 99.2316 89.9653 100.275 88.733 100.275H77.6314C76.3992 100.275 75.4023 99.2316 75.4023 97.9414C75.4023 96.6512 76.3992 95.6074 77.6314 95.6074H88.733C89.9624 95.6074 90.9621 96.6512 90.9621 97.9414Z" fill="#8279F8"/>
<path fill-rule="evenodd" clip-rule="evenodd" d="M89.4048 95.9961C89.4048 96.6421 86.6177 97.1631 83.1809 97.1631C79.7441 97.1631 76.957 96.6421 76.957 95.9961C76.957 95.3501 79.7441 94.8291 83.1809 94.8291C86.6177 94.8239 89.4048 95.3501 89.4048 95.9961Z" fill="#B9B3F9"/>
<path d="M103.411 101.054C103.411 102.344 102.414 103.388 101.182 103.388H90.0806C88.8484 103.388 87.8516 102.344 87.8516 101.054C87.8516 99.7635 88.8484 98.7197 90.0806 98.7197H101.182C102.412 98.7197 103.411 99.7665 103.411 101.054Z" fill="#8279F8"/>
<path fill-rule="evenodd" clip-rule="evenodd" d="M101.854 99.1084C101.854 99.7544 99.067 100.275 95.6301 100.275C92.1933 100.275 89.4062 99.7544 89.4062 99.1084C89.4062 98.4624 92.1933 97.9414 95.6301 97.9414C99.067 97.9362 101.854 98.4624 101.854 99.1084Z" fill="#B9B3F9"/>
<path d="M106.628 99.497H95.5259C94.2937 99.497 93.2969 98.4533 93.2969 97.1631C93.2969 95.8728 94.2937 94.8291 95.5259 94.8291H106.628C107.857 94.8291 108.857 95.8728 108.857 97.1631C108.857 98.4533 107.86 99.497 106.628 99.497Z" fill="#8279F8"/>
<path fill-rule="evenodd" clip-rule="evenodd" d="M107.299 95.2188C107.299 95.8648 104.512 96.3857 101.075 96.3857C97.6386 96.3857 94.8516 95.8648 94.8516 95.2188C94.8516 94.5728 97.6386 94.0518 101.075 94.0518C104.512 94.0466 107.299 94.5728 107.299 95.2188Z" fill="#9D95F8"/>
<path d="M95.5264 69.4881C95.1361 70.5892 93.9407 71.1632 92.8517 70.7686L83.0342 67.2226C81.9452 66.8307 81.3775 65.6193 81.7678 64.5183C82.1553 63.4172 83.3535 62.8433 84.4425 63.2379L94.26 66.7838C95.3463 67.1757 95.914 68.3871 95.5264 69.4881Z" fill="#8279F8"/>
<path fill-rule="evenodd" clip-rule="evenodd" d="M94.8509 67.6003C94.6905 68.0408 91.9659 67.4627 88.7466 66.2559C85.5273 65.0348 83.0486 63.698 83.2064 63.256C83.3641 62.8107 86.1021 63.4187 89.3214 64.639C92.5408 65.8565 95.0114 67.1633 94.8509 67.6003Z" fill="#9D95F8"/>
</g>
<defs>
<clipPath id="clip0">
<rect width="140" height="108" fill="white" transform="translate(0 0.582031)"/>
</clipPath>
</defs>
</svg>
