<svg xmlns="http://www.w3.org/2000/svg" xmlns:xlink="http://www.w3.org/1999/xlink" width="110" height="84" viewBox="0 0 110 84">
  <defs>
    <rect id="to_sell_gold-a" width="110" height="84" x="0" y="0"/>
    <rect id="to_sell_gold-d" width="39.033" height="48.648" x="0" y="0"/>
    <filter id="to_sell_gold-c" width="110.2%" height="108.2%" x="-5.1%" y="-2.1%" filterUnits="objectBoundingBox">
      <feOffset dy="1" in="SourceAlpha" result="shadowOffsetOuter1"/>
      <feGaussianBlur in="shadowOffsetOuter1" result="shadowBlurOuter1" stdDeviation=".5"/>
      <feColorMatrix in="shadowBlurOuter1" values="0 0 0 0 0   0 0 0 0 0   0 0 0 0 0  0 0 0 0.0440443841 0"/>
    </filter>
  </defs>
  <g fill="none" fill-rule="evenodd">
    <mask id="to_sell_gold-b" fill="#fff">
      <use xlink:href="#to_sell_gold-a"/>
    </mask>
    <g mask="url(#to_sell_gold-b)">
      <g transform="translate(-21)">
        <path fill="#8AC0FF" fill-rule="nonzero" d="M98.6326818,47.2051547 C109.632682,47.2051547 128.632682,47.2051547 132.632682,36.2051547 C136.632682,25.2051547 103.374617,25.850316 95.6326818,18.1083805 C87.8907463,10.366445 75.4078567,11.2051547 63.6326818,11.2051547 C51.8575068,11.2051547 54.0888089,-1.77295985 44.6326818,0.205154721 C35.1765546,2.18326929 43.6326818,12.0957077 40.6326818,18.1083805 C40.6326818,21.8450928 40.6326818,31.5440175 40.6326818,47.2051547 C66.9660151,47.2051547 86.2993484,47.2051547 98.6326818,47.2051547 Z" opacity=".268" transform="rotate(180 86.483 23.603)"/>
        <path fill="#3792FC" fill-rule="nonzero" d="M77.7141525,71.5668814 C116.977797,57.6064746 134.428305,89.0173897 134.428305,71.5668814 C134.428305,54.1163729 113.487695,45.3911187 103.01739,34.9208136 C92.5470848,24.4505085 97.1291704,7 81.2042542,7 C65.2793381,7 73.3023938,16.7820966 55.901017,24.4505085 C38.4996401,32.1189204 21,12.2351525 21,34.9208136 C21,57.6064746 38.4505085,85.5272882 77.7141525,71.5668814 Z" opacity=".229" transform="matrix(-1 0 0 1 155.428 0)"/>
        <g transform="translate(61 18)">
          <polygon fill="#5F40AF" points=".813 .811 39.847 .811 39.847 49.458 .813 49.458" opacity=".23"/>
          <use fill="#000" filter="url(#to_sell_gold-c)" xlink:href="#to_sell_gold-d"/>
          <use fill="#FFF" xlink:href="#to_sell_gold-d"/>
          <path fill="#94C5FF" d="M23.1748634,42.4856948 L32.9356084,42.4856948 C33.1595027,42.4856948 33.341005,42.667197 33.341005,42.8910914 C33.341005,43.1149857 33.1595027,43.296488 32.9356084,43.296488 L23.1748634,43.296488 C22.9509691,43.296488 22.7694668,43.1149857 22.7694668,42.8910914 C22.7694668,42.667197 22.9509691,42.4856948 23.1748634,42.4856948 Z"/>
          <rect width="7.319" height="1" x="13.824" y="42.486" fill="#94C5FF" rx=".405"/>
          <rect width="6.506" height="1" x="5.692" y="42.486" fill="#94C5FF" rx=".405"/>
          <rect width="19.517" height="1" x="15.451" y="38.432" fill="#94C5FF" rx=".405"/>
          <rect width="6.506" height="1" x="5.692" y="38.432" fill="#94C5FF" rx=".405"/>
          <path fill="#3792FC" d="M11.0296256 13C17.1204585 13 22.0592513 17.9242045 22.0592513 24 22.0592513 24.5522847 21.611536 25 21.0592513 25 20.5069665 25 20.0592513 24.5522847 20.0592513 24 20.0592513 19.0301005 16.0172113 15 11.0296256 15 6.04203998 15 2 19.0301005 2 24 2 24.5522847 1.55228475 25 1 25 .44771525 25 0 24.5522847 0 24 0 17.9242045 4.93879273 13 11.0296256 13zM11.0118503 0C8.24454292 0 6 2.23791296 6 5 6 7.76208704 8.24454292 10 11.0118503 10 13.7791576 10 16.0237005 7.76208704 16.0237005 5 16.0237005 2.23791296 13.7791576 0 11.0118503 0zM11.0118503 2C12.6759103 2 14.0237005 3.34380904 14.0237005 5 14.0237005 6.65619096 12.6759103 8 11.0118503 8 9.34779016 8 8 6.65619096 8 5 8 3.34380904 9.34779016 2 11.0118503 2z" transform="translate(9 7)"/>
        </g>
      </g>
    </g>
  </g>
</svg>
