<svg width="80" height="60" viewBox="0 0 80 60" fill="none" xmlns="http://www.w3.org/2000/svg">
<path d="M77 0H3C1.34315 0 0 1.34315 0 3V57C0 58.6569 1.34315 60 3 60H77C78.6569 60 80 58.6569 80 57V3C80 1.34315 78.6569 0 77 0Z" fill="white"/>
<mask id="mask0" mask-type="alpha" maskUnits="userSpaceOnUse" x="0" y="0" width="80" height="60">
<path d="M77 0H3C1.34315 0 0 1.34315 0 3V57C0 58.6569 1.34315 60 3 60H77C78.6569 60 80 58.6569 80 57V3C80 1.34315 78.6569 0 77 0Z" fill="white"/>
</mask>
<g mask="url(#mask0)">
<path opacity="0.05" d="M49.7481 -12.0001C41.4981 -12.0001 27.2481 -12.0001 24.2481 -3.75006C21.2481 4.49994 46.1917 4.01607 51.9981 9.82252C57.8046 15.629 67.1668 14.9999 75.9981 14.9999C84.8295 14.9999 83.156 24.7335 90.2481 23.2499C97.3402 21.7664 90.9981 14.332 93.2481 9.82252C93.2481 7.01999 93.2481 -0.254205 93.2481 -12.0001C73.4981 -12.0001 58.9981 -12.0001 49.7481 -12.0001Z" fill="#9D95F8"/>
</g>
<mask id="mask1" mask-type="alpha" maskUnits="userSpaceOnUse" x="0" y="0" width="80" height="60">
<path d="M77 0H3C1.34315 0 0 1.34315 0 3V57C0 58.6569 1.34315 60 3 60H77C78.6569 60 80 58.6569 80 57V3C80 1.34315 78.6569 0 77 0Z" fill="white"/>
</mask>
<g mask="url(#mask1)">
<path opacity="0.05" d="M10.2866 59.6752C39.7343 49.2049 52.8222 72.763 52.8222 59.6752C52.8222 46.5873 37.1167 40.0433 29.264 32.1906C21.4113 24.3379 24.8478 11.25 12.9042 11.25C0.960474 11.25 6.97777 18.5866 -6.07327 24.3379C-19.1243 30.0892 -19.1611 70.1455 10.2866 59.6752Z" fill="#675AF6"/>
</g>
<mask id="mask2" mask-type="alpha" maskUnits="userSpaceOnUse" x="0" y="0" width="80" height="60">
<path d="M77 0H3C1.34315 0 0 1.34315 0 3V57C0 58.6569 1.34315 60 3 60H77C78.6569 60 80 58.6569 80 57V3C80 1.34315 78.6569 0 77 0Z" fill="white"/>
</mask>
<g mask="url(#mask2)">
<path opacity="0.05" d="M59.0347 45.4252C29.587 34.9549 16.4991 58.513 16.4991 45.4252C16.4991 32.3373 32.2045 25.7933 40.0573 17.9406C47.91 10.0879 44.4734 -3 56.4171 -3C68.3608 -3 62.3435 4.33657 75.3945 10.0879C88.4456 15.8392 101.57 0.926365 101.57 17.9406C101.57 34.9549 88.4824 55.8955 59.0347 45.4252Z" fill="#675AF6"/>
</g>
<mask id="mask3" mask-type="alpha" maskUnits="userSpaceOnUse" x="0" y="0" width="80" height="60">
<path d="M77 0H3C1.34315 0 0 1.34315 0 3V57C0 58.6569 1.34315 60 3 60H77C78.6569 60 80 58.6569 80 57V3C80 1.34315 78.6569 0 77 0Z" fill="white"/>
</mask>
<g mask="url(#mask3)">
<path opacity="0.05" d="M15.3757 23.8422C15.726 23.5904 15.3809 23.1 15.0123 23.2946C13.9924 23.8292 12.9959 24.5195 12.0876 25.2228C11.9008 25.3629 12.0357 25.7314 12.2771 25.6173C13.3359 25.1112 14.4206 24.5273 15.3757 23.8422ZM16.137 4.69207C15.8749 4.45851 15.4441 4.41439 15.1898 4.69207C14.9329 4.97235 14.9406 5.35903 15.1898 5.6393C15.2079 5.66007 15.2261 5.67823 15.2417 5.69899C15.4752 5.9637 15.9605 5.95591 16.1967 5.69899C16.4303 5.44207 16.477 4.99311 16.1967 4.74398C16.1759 4.72581 16.1578 4.70764 16.137 4.69207ZM76.7979 7.60546C77.2774 6.85332 77.9574 7.04135 78.6156 7.37355C79.2862 7.71201 79.9193 7.91258 80.6463 7.59919C81.784 7.10716 82.3199 5.38978 81.2324 4.58123C80.8814 4.31798 80.5335 4.75046 80.5805 5.08265C80.6463 5.54334 80.8751 6.05417 80.4803 6.44904C79.9506 6.97867 79.3301 6.53366 78.8005 6.29548C78.2301 6.0385 77.6221 5.98209 77.0361 6.22027C76.0238 6.63081 75.2874 8.00346 76.0928 8.9311C76.2056 9.05959 76.4782 9.00005 76.5064 8.82141C76.5723 8.39207 76.5597 7.98466 76.7979 7.60546ZM64.3215 55.9984C65.2542 57.13 67.0656 57.3663 68.2304 56.4668C71.0492 54.2906 68.1102 50.2821 65.0718 51.1112C64.508 51.2646 64.649 52.0687 65.2044 52.0977C66.0915 52.1475 67.0449 52.1806 67.7537 52.8066C68.5165 53.474 68.533 54.6056 67.9071 55.3766C66.249 57.4119 63.3723 54.4149 65.1132 52.591C65.3371 52.363 64.9972 52.0231 64.765 52.2428C63.7246 53.2418 63.3308 54.7963 64.3215 55.9984ZM4.81252 49.2069C4.90075 49.4928 5.17251 49.5845 5.41956 49.4151C6.39011 48.7552 7.35713 48.1093 8.27827 47.3787C8.45473 47.2376 8.41591 46.9552 8.24298 46.8352C7.16655 46.0976 5.71602 45.0071 4.35019 44.9999C4.00432 44.9965 3.7608 45.4871 4.11372 45.6882C4.66429 46.0059 5.32427 46.1188 5.91366 46.3623C6.59128 46.6447 7.26537 46.9764 7.86535 47.4035C7.87946 47.2058 7.89358 47.0082 7.90417 46.8105C6.87715 47.4423 5.91013 48.1517 4.93605 48.8575C5.12663 48.8963 5.32074 48.9352 5.51132 48.974C5.09486 47.7952 4.66782 46.627 4.20549 45.4659C4.10667 45.2224 3.69021 45.3565 3.75727 45.6141C4.08196 46.8211 4.43842 48.014 4.81252 49.2069Z" fill="#675AF6"/>
<path d="M44 15H30C28.3431 15 27 16.3431 27 18V42C27 43.6569 28.3431 45 30 45H44C45.6569 45 47 43.6569 47 42V18C47 16.3431 45.6569 15 44 15Z" fill="#C6C2F9" stroke="#9D95F8"/>
<path fill-rule="evenodd" clip-rule="evenodd" d="M30 15H44C45.6569 15 47 16.3431 47 18V20H27V18C27 16.3431 28.3431 15 30 15Z" fill="#C6C2F9" stroke="#9D95F8"/>
<mask id="path-12-inside-1" fill="white">
<path fill-rule="evenodd" clip-rule="evenodd" d="M39.5 17C39.7761 17 40 17.2239 40 17.5C40 17.7761 39.7761 18 39.5 18C39.2239 18 39 17.7761 39 17.5C39 17.2239 39.2239 17 39.5 17ZM37.5 17C37.7761 17 38 17.2239 38 17.5C38 17.7761 37.7761 18 37.5 18H34.5C34.2239 18 34 17.7761 34 17.5C34 17.2239 34.2239 17 34.5 17H37.5Z"/>
</mask>
<path fill-rule="evenodd" clip-rule="evenodd" d="M39.5 17C39.7761 17 40 17.2239 40 17.5C40 17.7761 39.7761 18 39.5 18C39.2239 18 39 17.7761 39 17.5C39 17.2239 39.2239 17 39.5 17ZM37.5 17C37.7761 17 38 17.2239 38 17.5C38 17.7761 37.7761 18 37.5 18H34.5C34.2239 18 34 17.7761 34 17.5C34 17.2239 34.2239 17 34.5 17H37.5Z" fill="#C6C2F9"/>
<path d="M39.5 18C39.2239 18 39 17.7761 39 17.5H41C41 16.6716 40.3284 16 39.5 16V18ZM39 17.5C39 17.2239 39.2239 17 39.5 17V19C40.3284 19 41 18.3284 41 17.5H39ZM39.5 17C39.7761 17 40 17.2239 40 17.5H38C38 18.3284 38.6716 19 39.5 19V17ZM40 17.5C40 17.7761 39.7761 18 39.5 18V16C38.6716 16 38 16.6716 38 17.5H40ZM37.5 18C37.2239 18 37 17.7761 37 17.5H39C39 16.6716 38.3284 16 37.5 16V18ZM37 17.5C37 17.2239 37.2239 17 37.5 17V19C38.3284 19 39 18.3284 39 17.5H37ZM37.5 17H34.5V19H37.5V17ZM34.5 17C34.7761 17 35 17.2239 35 17.5H33C33 18.3284 33.6716 19 34.5 19V17ZM35 17.5C35 17.7761 34.7761 18 34.5 18V16C33.6716 16 33 16.6716 33 17.5H35ZM34.5 18H37.5V16H34.5V18Z" fill="#9D95F8" mask="url(#path-12-inside-1)"/>
<path fill-rule="evenodd" clip-rule="evenodd" d="M30 45H44C45.6569 45 47 43.6569 47 42V40H27V42C27 43.6569 28.3431 45 30 45Z" fill="#C6C2F9" stroke="#9D95F8"/>
<path fill-rule="evenodd" clip-rule="evenodd" d="M35.5 41.5C34.9477 41.5 34.5 41.9477 34.5 42.5C34.5 43.0523 34.9477 43.5 35.5 43.5H38.5C39.0523 43.5 39.5 43.0523 39.5 42.5C39.5 41.9477 39.0523 41.5 38.5 41.5H35.5Z" stroke="#9D95F8"/>
<path fill-rule="evenodd" clip-rule="evenodd" d="M49.5 36V33.5H52C52.2761 33.5 52.5 33.2761 52.5 33V26C52.5 25.7239 52.2761 25.5 52 25.5H35C34.7239 25.5 34.5 25.7239 34.5 26V33C34.5 33.2761 34.7239 33.5 35 33.5H46.1667L49.5 36Z" fill="white" stroke="#675AF6"/>
<path d="M38.8358 28V28.9L39.6418 28.3429L40 28.9L39.1045 29.5L40 30.1429L39.6418 30.6571L38.8358 30.1429V31H38.1642V30.1429L37.403 30.6571L37 30.1429L37.9403 29.5L37 28.9L37.403 28.3429L38.1642 28.9V28H38.8358ZM43.8358 28V28.9L44.6418 28.3429L45 28.9L44.1045 29.5L45 30.1429L44.6418 30.6571L43.8358 30.1429V31H43.1642V30.1429L42.403 30.6571L42 30.1429L42.9403 29.5L42 28.9L42.403 28.3429L43.1642 28.9V28H43.8358ZM48.8358 28V28.9L49.6418 28.3429L50 28.9L49.1045 29.5L50 30.1429L49.6418 30.6571L48.8358 30.1429V31H48.1642V30.1429L47.403 30.6571L47 30.1429L47.9403 29.5L47 28.9L47.403 28.3429L48.1642 28.9V28H48.8358Z" fill="#675AF6"/>
</g>
</svg>
