<svg width="172" height="112" viewBox="0 0 172 112" fill="none" xmlns="http://www.w3.org/2000/svg">
<rect opacity="0.184733" width="172" height="112" rx="4" fill="#3993FC"/>
<path opacity="0.650507" d="M99.733 21.9701C109.697 15.9674 110 0 110 0L0 0C0 0 0 55.6119 0 61.791C2.93333 67.6269 9.89996 69 20.5333 69C31.1665 69 45.8332 67.2836 53.1665 51.4925C60.4998 35.7015 57.9782 31.6508 67.8331 25.403C77.688 19.1552 89.769 27.9729 99.733 21.9701Z" fill="#EFF5FF"/>
<path opacity="0.58152" d="M167.093 49.4806C170.887 53.4367 171.358 57.0158 171.8 61.0297C172.142 64.1373 171.899 99.2264 171.821 109.307C171.81 110.811 170.594 112 169.09 112C161.586 112 140.971 112 139.233 112C141.729 106.315 117.709 85.978 117.044 71.0099C116.379 56.0417 123.273 46.7884 136.119 41.9441C148.965 37.0998 159.865 41.9441 167.093 49.4806Z" fill="#EFF5FF"/>
<path d="M24.774 25.14C23.5606 25.14 22.618 24.804 21.946 24.132C21.274 23.46 20.9146 22.55 20.868 21.402C20.8586 21.122 20.854 20.6833 20.854 20.086C20.854 19.4793 20.8586 19.0407 20.868 18.77C20.9053 17.6313 21.26 16.7307 21.932 16.068C22.6133 15.396 23.5606 15.06 24.774 15.06C25.5953 15.06 26.2906 15.2093 26.86 15.508C27.4293 15.8067 27.8586 16.166 28.148 16.586C28.4373 16.9967 28.5913 17.3793 28.61 17.734V17.762C28.61 17.8367 28.5773 17.902 28.512 17.958C28.456 18.0047 28.3906 18.028 28.316 18.028H27.532C27.448 18.028 27.3826 18.0093 27.336 17.972C27.2986 17.9347 27.2613 17.8647 27.224 17.762C27.0746 17.3233 26.7993 16.9547 26.398 16.656C25.9966 16.3573 25.4553 16.208 24.774 16.208C23.99 16.208 23.374 16.4227 22.926 16.852C22.478 17.2813 22.24 17.944 22.212 18.84C22.2026 19.1107 22.198 19.526 22.198 20.086C22.198 20.6367 22.2026 21.052 22.212 21.332C22.24 22.2373 22.478 22.9047 22.926 23.334C23.374 23.7633 23.99 23.978 24.774 23.978C25.5673 23.978 26.202 23.7633 26.678 23.334C27.154 22.8953 27.392 22.242 27.392 21.374V20.772H25.25C25.1566 20.772 25.0773 20.7393 25.012 20.674C24.956 20.6087 24.928 20.5293 24.928 20.436V20.016C24.928 19.9227 24.956 19.8433 25.012 19.778C25.0773 19.7127 25.1566 19.68 25.25 19.68H28.386C28.4886 19.68 28.568 19.7127 28.624 19.778C28.6893 19.834 28.722 19.9133 28.722 20.016V21.346C28.722 22.102 28.5633 22.7693 28.246 23.348C27.938 23.9173 27.4853 24.3607 26.888 24.678C26.2906 24.986 25.586 25.14 24.774 25.14Z" fill="black"/>
<path d="M33.4359 25.14C32.4839 25.14 31.7233 24.846 31.1539 24.258C30.5846 23.6607 30.2719 22.8487 30.2159 21.822L30.2019 21.346L30.2159 20.884C30.2719 19.876 30.5846 19.0733 31.1539 18.476C31.7233 17.8787 32.4839 17.58 33.4359 17.58C34.4626 17.58 35.2559 17.9067 35.8159 18.56C36.3853 19.2133 36.6699 20.1 36.6699 21.22V21.472C36.6699 21.5653 36.6373 21.6447 36.5719 21.71C36.5159 21.766 36.4413 21.794 36.3479 21.794H31.4899V21.92C31.5179 22.5267 31.7046 23.0447 32.0499 23.474C32.3953 23.9033 32.8526 24.118 33.4219 24.118C33.8606 24.118 34.2153 24.034 34.4859 23.866C34.7659 23.6887 34.9759 23.5067 35.1159 23.32C35.1999 23.208 35.2653 23.1427 35.3119 23.124C35.3586 23.096 35.4379 23.082 35.5499 23.082H36.1659C36.2499 23.082 36.3199 23.1053 36.3759 23.152C36.4413 23.1987 36.4739 23.2593 36.4739 23.334C36.4739 23.5393 36.3479 23.7867 36.0959 24.076C35.8439 24.3653 35.4846 24.6173 35.0179 24.832C34.5606 25.0373 34.0333 25.14 33.4359 25.14ZM35.3959 20.842V20.8C35.3959 20.1467 35.2186 19.6147 34.8639 19.204C34.5093 18.7933 34.0333 18.588 33.4359 18.588C32.8293 18.588 32.3533 18.7933 32.0079 19.204C31.6626 19.6147 31.4899 20.1467 31.4899 20.8V20.842H35.3959Z" fill="black"/>
<path d="M41.1312 25C39.6845 25 38.9612 24.1833 38.9612 22.55V18.798H37.8552C37.7619 18.798 37.6872 18.77 37.6312 18.714C37.5752 18.658 37.5472 18.5833 37.5472 18.49V18.042C37.5472 17.9487 37.5752 17.874 37.6312 17.818C37.6872 17.7527 37.7619 17.72 37.8552 17.72H38.9612V15.382C38.9612 15.2887 38.9892 15.214 39.0452 15.158C39.1012 15.0927 39.1759 15.06 39.2692 15.06H39.8852C39.9785 15.06 40.0532 15.0927 40.1092 15.158C40.1745 15.214 40.2072 15.2887 40.2072 15.382V17.72H41.9432C42.0366 17.72 42.1112 17.7527 42.1672 17.818C42.2325 17.874 42.2652 17.9487 42.2652 18.042V18.49C42.2652 18.5833 42.2325 18.658 42.1672 18.714C42.1112 18.77 42.0366 18.798 41.9432 18.798H40.2072V22.452C40.2072 22.928 40.2819 23.2873 40.4312 23.53C40.5899 23.7727 40.8559 23.894 41.2292 23.894H42.0832C42.1765 23.894 42.2512 23.9267 42.3072 23.992C42.3632 24.048 42.3912 24.1227 42.3912 24.216V24.678C42.3912 24.7713 42.3632 24.8507 42.3072 24.916C42.2512 24.972 42.1765 25 42.0832 25H41.1312Z" fill="black"/>
<path d="M50.1163 25.14C49.1176 25.14 48.3383 24.86 47.7783 24.3C47.2183 23.7307 46.9243 22.9373 46.8963 21.92L46.8823 21.36L46.8963 20.8C46.9243 19.7827 47.2183 18.994 47.7783 18.434C48.3383 17.8647 49.1176 17.58 50.1163 17.58C50.7883 17.58 51.3529 17.7013 51.8103 17.944C52.2769 18.1773 52.6223 18.4713 52.8463 18.826C53.0796 19.1807 53.2056 19.5353 53.2243 19.89C53.2336 19.974 53.2009 20.0487 53.1263 20.114C53.0609 20.1793 52.9863 20.212 52.9023 20.212H52.2863C52.1929 20.212 52.1229 20.1933 52.0763 20.156C52.0296 20.1093 51.9829 20.03 51.9363 19.918C51.7683 19.4607 51.5349 19.1387 51.2363 18.952C50.9469 18.756 50.5783 18.658 50.1303 18.658C49.5423 18.658 49.0756 18.84 48.7303 19.204C48.3849 19.568 48.1983 20.1233 48.1703 20.87L48.1563 21.36L48.1703 21.85C48.1983 22.5967 48.3849 23.152 48.7303 23.516C49.0756 23.88 49.5423 24.062 50.1303 24.062C50.5876 24.062 50.9609 23.9687 51.2503 23.782C51.5396 23.586 51.7683 23.2593 51.9363 22.802C51.9829 22.69 52.0296 22.6153 52.0763 22.578C52.1229 22.5313 52.1929 22.508 52.2863 22.508H52.9023C52.9863 22.508 53.0609 22.5407 53.1263 22.606C53.2009 22.6713 53.2336 22.746 53.2243 22.83C53.2056 23.1753 53.0796 23.5253 52.8463 23.88C52.6223 24.2347 52.2769 24.5333 51.8103 24.776C51.3529 25.0187 50.7883 25.14 50.1163 25.14Z" fill="black"/>
<path d="M57.8555 25.14C56.8289 25.14 56.0355 24.8507 55.4755 24.272C54.9249 23.6933 54.6309 22.9233 54.5935 21.962L54.5795 21.36L54.5935 20.758C54.6309 19.7967 54.9295 19.0267 55.4895 18.448C56.0589 17.8693 56.8475 17.58 57.8555 17.58C58.8635 17.58 59.6475 17.8693 60.2075 18.448C60.7769 19.0267 61.0802 19.7967 61.1175 20.758C61.1362 20.9633 61.1455 21.164 61.1455 21.36C61.1455 21.556 61.1362 21.7567 61.1175 21.962C61.0802 22.9233 60.7815 23.6933 60.2215 24.272C59.6709 24.8507 58.8822 25.14 57.8555 25.14ZM57.8555 24.09C58.4529 24.09 58.9242 23.9033 59.2695 23.53C59.6242 23.1473 59.8155 22.6013 59.8435 21.892C59.8529 21.7987 59.8575 21.6213 59.8575 21.36C59.8575 21.0987 59.8529 20.9213 59.8435 20.828C59.8155 20.1187 59.6242 19.5773 59.2695 19.204C58.9242 18.8213 58.4529 18.63 57.8555 18.63C57.2582 18.63 56.7822 18.8213 56.4275 19.204C56.0822 19.5773 55.8955 20.1187 55.8675 20.828L55.8535 21.36L55.8675 21.892C55.8955 22.6013 56.0822 23.1473 56.4275 23.53C56.7822 23.9033 57.2582 24.09 57.8555 24.09Z" fill="black"/>
<path d="M65.1875 25C64.9448 25 64.7721 24.8833 64.6695 24.65L62.0655 18.154C62.0561 18.126 62.0515 18.0793 62.0515 18.014C62.0515 17.93 62.0795 17.86 62.1355 17.804C62.1915 17.748 62.2568 17.72 62.3315 17.72H62.9755C63.1248 17.72 63.2368 17.7947 63.3115 17.944L65.4675 23.53L67.6235 17.944C67.6421 17.888 67.6795 17.8367 67.7355 17.79C67.8008 17.7433 67.8755 17.72 67.9595 17.72H68.6035C68.6781 17.72 68.7435 17.748 68.7995 17.804C68.8555 17.86 68.8835 17.93 68.8835 18.014L68.8555 18.154L66.2655 24.65C66.1628 24.8833 65.9902 25 65.7475 25H65.1875Z" fill="black"/>
<path d="M73.0023 25.14C72.0503 25.14 71.2897 24.846 70.7203 24.258C70.151 23.6607 69.8383 22.8487 69.7823 21.822L69.7683 21.346L69.7823 20.884C69.8383 19.876 70.151 19.0733 70.7203 18.476C71.2897 17.8787 72.0503 17.58 73.0023 17.58C74.029 17.58 74.8223 17.9067 75.3823 18.56C75.9517 19.2133 76.2363 20.1 76.2363 21.22V21.472C76.2363 21.5653 76.2037 21.6447 76.1383 21.71C76.0823 21.766 76.0077 21.794 75.9143 21.794H71.0563V21.92C71.0843 22.5267 71.271 23.0447 71.6163 23.474C71.9617 23.9033 72.419 24.118 72.9883 24.118C73.427 24.118 73.7817 24.034 74.0523 23.866C74.3323 23.6887 74.5423 23.5067 74.6823 23.32C74.7663 23.208 74.8317 23.1427 74.8783 23.124C74.925 23.096 75.0043 23.082 75.1163 23.082H75.7323C75.8163 23.082 75.8863 23.1053 75.9423 23.152C76.0077 23.1987 76.0403 23.2593 76.0403 23.334C76.0403 23.5393 75.9143 23.7867 75.6623 24.076C75.4103 24.3653 75.051 24.6173 74.5843 24.832C74.127 25.0373 73.5997 25.14 73.0023 25.14ZM74.9623 20.842V20.8C74.9623 20.1467 74.785 19.6147 74.4303 19.204C74.0757 18.7933 73.5997 18.588 73.0023 18.588C72.3957 18.588 71.9197 18.7933 71.5743 19.204C71.229 19.6147 71.0563 20.1467 71.0563 20.8V20.842H74.9623Z" fill="black"/>
<path d="M78.2606 25C78.1673 25 78.088 24.972 78.0226 24.916C77.9666 24.8507 77.9386 24.7713 77.9386 24.678V18.056C77.9386 17.9627 77.9666 17.8833 78.0226 17.818C78.088 17.7527 78.1673 17.72 78.2606 17.72H78.8486C78.9513 17.72 79.0306 17.7527 79.0866 17.818C79.152 17.874 79.1846 17.9533 79.1846 18.056V18.672C79.5673 18.0373 80.216 17.72 81.1306 17.72H81.6766C81.7793 17.72 81.8586 17.748 81.9146 17.804C81.9706 17.86 81.9986 17.9393 81.9986 18.042V18.56C81.9986 18.6533 81.9706 18.7327 81.9146 18.798C81.8586 18.854 81.7793 18.882 81.6766 18.882H80.8786C80.3653 18.882 79.9593 19.0313 79.6606 19.33C79.3713 19.6287 79.2266 20.0347 79.2266 20.548V24.678C79.2266 24.7713 79.194 24.8507 79.1286 24.916C79.0633 24.972 78.984 25 78.8906 25H78.2606Z" fill="black"/>
<path d="M85.1089 25.14C84.6516 25.14 84.2269 25.0467 83.8349 24.86C83.4523 24.6733 83.1443 24.4213 82.9109 24.104C82.6869 23.7773 82.5749 23.418 82.5749 23.026C82.5749 22.41 82.8269 21.906 83.3309 21.514C83.8349 21.122 84.5209 20.8607 85.3889 20.73L87.4889 20.436V20.03C87.4889 19.0687 86.9336 18.588 85.8229 18.588C85.3936 18.588 85.0483 18.6767 84.7869 18.854C84.5256 19.022 84.3343 19.2227 84.2129 19.456C84.1756 19.5493 84.1336 19.6147 84.0869 19.652C84.0496 19.68 83.9936 19.694 83.9189 19.694H83.3729C83.2889 19.694 83.2143 19.666 83.1489 19.61C83.0929 19.5447 83.0649 19.47 83.0649 19.386C83.0649 19.1713 83.1629 18.924 83.3589 18.644C83.5643 18.3547 83.8769 18.1073 84.2969 17.902C84.7169 17.6873 85.2303 17.58 85.8369 17.58C86.8823 17.58 87.6289 17.8227 88.0769 18.308C88.5343 18.7933 88.7629 19.4 88.7629 20.128V24.678C88.7629 24.7713 88.7303 24.8507 88.6649 24.916C88.6089 24.972 88.5343 25 88.4409 25H87.8249C87.7316 25 87.6569 24.972 87.6009 24.916C87.5449 24.8507 87.5169 24.7713 87.5169 24.678V24.062C87.3116 24.37 87.0129 24.6267 86.6209 24.832C86.2289 25.0373 85.7249 25.14 85.1089 25.14ZM85.3889 24.118C86.0049 24.118 86.5089 23.9173 86.9009 23.516C87.2929 23.1147 87.4889 22.5313 87.4889 21.766V21.374L85.8509 21.612C85.1789 21.7053 84.6703 21.864 84.3249 22.088C83.9796 22.312 83.8069 22.592 83.8069 22.928C83.8069 23.3107 83.9609 23.6047 84.2689 23.81C84.5863 24.0153 84.9596 24.118 85.3889 24.118Z" fill="black"/>
<path d="M93.7442 28.08C92.9695 28.08 92.3489 27.9493 91.8822 27.688C91.4155 27.4267 91.0842 27.128 90.8882 26.792C90.7015 26.456 90.6082 26.1667 90.6082 25.924C90.6082 25.84 90.6409 25.7653 90.7062 25.7C90.7715 25.644 90.8462 25.616 90.9302 25.616H91.5462C91.6302 25.616 91.7002 25.6347 91.7562 25.672C91.8122 25.7187 91.8589 25.798 91.8962 25.91C92.1575 26.6567 92.7502 27.03 93.6742 27.03C94.3742 27.03 94.8922 26.8807 95.2282 26.582C95.5642 26.2833 95.7322 25.756 95.7322 25V24.034C95.1909 24.7247 94.4349 25.07 93.4642 25.07C92.4749 25.07 91.7329 24.7527 91.2382 24.118C90.7529 23.4833 90.4962 22.6807 90.4682 21.71L90.4542 21.318L90.4682 20.94C90.4962 19.9787 90.7529 19.1807 91.2382 18.546C91.7329 17.902 92.4749 17.58 93.4642 17.58C94.4442 17.58 95.2095 17.9393 95.7602 18.658V18.056C95.7602 17.9627 95.7882 17.8833 95.8442 17.818C95.9095 17.7527 95.9889 17.72 96.0822 17.72H96.6842C96.7775 17.72 96.8522 17.7527 96.9082 17.818C96.9735 17.8833 97.0062 17.9627 97.0062 18.056V24.846C97.0062 27.002 95.9189 28.08 93.7442 28.08ZM93.7162 23.978C94.3695 23.978 94.8595 23.768 95.1862 23.348C95.5222 22.9187 95.7042 22.4053 95.7322 21.808C95.7415 21.724 95.7462 21.5607 95.7462 21.318C95.7462 21.0847 95.7415 20.926 95.7322 20.842C95.7042 20.2447 95.5222 19.736 95.1862 19.316C94.8595 18.8867 94.3695 18.672 93.7162 18.672C93.0442 18.672 92.5542 18.8867 92.2462 19.316C91.9475 19.736 91.7842 20.282 91.7562 20.954L91.7422 21.318L91.7562 21.696C91.7842 22.368 91.9475 22.9187 92.2462 23.348C92.5542 23.768 93.0442 23.978 93.7162 23.978Z" fill="black"/>
<path d="M102 25.14C101.048 25.14 100.288 24.846 99.7184 24.258C99.149 23.6607 98.8364 22.8487 98.7804 21.822L98.7664 21.346L98.7804 20.884C98.8364 19.876 99.149 19.0733 99.7184 18.476C100.288 17.8787 101.048 17.58 102 17.58C103.027 17.58 103.82 17.9067 104.38 18.56C104.95 19.2133 105.234 20.1 105.234 21.22V21.472C105.234 21.5653 105.202 21.6447 105.136 21.71C105.08 21.766 105.006 21.794 104.912 21.794H100.054V21.92C100.082 22.5267 100.269 23.0447 100.614 23.474C100.96 23.9033 101.417 24.118 101.986 24.118C102.425 24.118 102.78 24.034 103.05 23.866C103.33 23.6887 103.54 23.5067 103.68 23.32C103.764 23.208 103.83 23.1427 103.876 23.124C103.923 23.096 104.002 23.082 104.114 23.082H104.73C104.814 23.082 104.884 23.1053 104.94 23.152C105.006 23.1987 105.038 23.2593 105.038 23.334C105.038 23.5393 104.912 23.7867 104.66 24.076C104.408 24.3653 104.049 24.6173 103.582 24.832C103.125 25.0373 102.598 25.14 102 25.14ZM103.96 20.842V20.8C103.96 20.1467 103.783 19.6147 103.428 19.204C103.074 18.7933 102.598 18.588 102 18.588C101.394 18.588 100.918 18.7933 100.572 19.204C100.227 19.6147 100.054 20.1467 100.054 20.8V20.842H103.96Z" fill="black"/>
<path d="M111.172 25C111.079 25 111 24.972 110.934 24.916C110.878 24.8507 110.85 24.7713 110.85 24.678V18.798H109.646C109.553 18.798 109.474 18.77 109.408 18.714C109.352 18.658 109.324 18.5833 109.324 18.49V18.042C109.324 17.9487 109.352 17.874 109.408 17.818C109.474 17.7527 109.553 17.72 109.646 17.72H110.85V17.02C110.85 16.264 111.032 15.6807 111.396 15.27C111.77 14.85 112.376 14.64 113.216 14.64H114.042C114.136 14.64 114.21 14.6727 114.266 14.738C114.332 14.794 114.364 14.8687 114.364 14.962V15.41C114.364 15.5033 114.332 15.578 114.266 15.634C114.21 15.69 114.136 15.718 114.042 15.718H113.244C112.815 15.718 112.516 15.83 112.348 16.054C112.18 16.278 112.096 16.6233 112.096 17.09V17.72H113.902C113.996 17.72 114.07 17.7527 114.126 17.818C114.192 17.874 114.224 17.9487 114.224 18.042V18.49C114.224 18.5833 114.192 18.658 114.126 18.714C114.07 18.77 113.996 18.798 113.902 18.798H112.096V24.678C112.096 24.7713 112.064 24.8507 111.998 24.916C111.942 24.972 111.868 25 111.774 25H111.172Z" fill="black"/>
<path d="M118.285 25.14C117.259 25.14 116.465 24.8507 115.905 24.272C115.355 23.6933 115.061 22.9233 115.023 21.962L115.009 21.36L115.023 20.758C115.061 19.7967 115.359 19.0267 115.919 18.448C116.489 17.8693 117.277 17.58 118.285 17.58C119.293 17.58 120.077 17.8693 120.637 18.448C121.207 19.0267 121.51 19.7967 121.547 20.758C121.566 20.9633 121.575 21.164 121.575 21.36C121.575 21.556 121.566 21.7567 121.547 21.962C121.51 22.9233 121.211 23.6933 120.651 24.272C120.101 24.8507 119.312 25.14 118.285 25.14ZM118.285 24.09C118.883 24.09 119.354 23.9033 119.699 23.53C120.054 23.1473 120.245 22.6013 120.273 21.892C120.283 21.7987 120.287 21.6213 120.287 21.36C120.287 21.0987 120.283 20.9213 120.273 20.828C120.245 20.1187 120.054 19.5773 119.699 19.204C119.354 18.8213 118.883 18.63 118.285 18.63C117.688 18.63 117.212 18.8213 116.857 19.204C116.512 19.5773 116.325 20.1187 116.297 20.828L116.283 21.36L116.297 21.892C116.325 22.6013 116.512 23.1473 116.857 23.53C117.212 23.9033 117.688 24.09 118.285 24.09Z" fill="black"/>
<path d="M123.665 25C123.572 25 123.492 24.972 123.427 24.916C123.371 24.8507 123.343 24.7713 123.343 24.678V18.056C123.343 17.9627 123.371 17.8833 123.427 17.818C123.492 17.7527 123.572 17.72 123.665 17.72H124.253C124.356 17.72 124.435 17.7527 124.491 17.818C124.556 17.874 124.589 17.9533 124.589 18.056V18.672C124.972 18.0373 125.62 17.72 126.535 17.72H127.081C127.184 17.72 127.263 17.748 127.319 17.804C127.375 17.86 127.403 17.9393 127.403 18.042V18.56C127.403 18.6533 127.375 18.7327 127.319 18.798C127.263 18.854 127.184 18.882 127.081 18.882H126.283C125.77 18.882 125.364 19.0313 125.065 19.33C124.776 19.6287 124.631 20.0347 124.631 20.548V24.678C124.631 24.7713 124.598 24.8507 124.533 24.916C124.468 24.972 124.388 25 124.295 25H123.665Z" fill="black"/>
<path d="M24.732 46.14C23.4906 46.14 22.5433 45.804 21.89 45.132C21.246 44.4507 20.9006 43.522 20.854 42.346C20.8446 42.094 20.84 41.6833 20.84 41.114C20.84 40.5353 20.8446 40.1153 20.854 39.854C20.9006 38.678 21.246 37.754 21.89 37.082C22.5433 36.4007 23.4906 36.06 24.732 36.06C25.5626 36.06 26.2673 36.2093 26.846 36.508C27.4246 36.7973 27.8586 37.18 28.148 37.656C28.4466 38.132 28.61 38.6407 28.638 39.182C28.638 39.266 28.6053 39.336 28.54 39.392C28.484 39.4387 28.414 39.462 28.33 39.462H27.63C27.5366 39.462 27.462 39.4387 27.406 39.392C27.35 39.3453 27.308 39.266 27.28 39.154C27.1213 38.4353 26.832 37.9313 26.412 37.642C26.0013 37.3527 25.4413 37.208 24.732 37.208C23.108 37.208 22.2633 38.1133 22.198 39.924C22.1886 40.176 22.184 40.5633 22.184 41.086C22.184 41.6087 22.1886 42.0054 22.198 42.276C22.2633 44.0773 23.108 44.978 24.732 44.978C25.432 44.978 25.992 44.8333 26.412 44.544C26.832 44.2547 27.1213 43.7554 27.28 43.046C27.308 42.934 27.35 42.8547 27.406 42.808C27.462 42.7613 27.5366 42.738 27.63 42.738H28.33C28.414 42.738 28.484 42.766 28.54 42.822C28.6053 42.8687 28.638 42.934 28.638 43.018C28.61 43.5594 28.4466 44.068 28.148 44.544C27.8586 45.02 27.4246 45.4074 26.846 45.706C26.2673 45.9953 25.5626 46.14 24.732 46.14Z" fill="black"/>
<path d="M34.0425 46.14C32.8292 46.14 31.8912 45.8227 31.2285 45.188C30.5658 44.544 30.2158 43.578 30.1785 42.29C30.1692 42.01 30.1645 41.6133 30.1645 41.1C30.1645 40.5867 30.1692 40.1947 30.1785 39.924C30.2158 38.6547 30.5752 37.6933 31.2565 37.04C31.9472 36.3867 32.8758 36.06 34.0425 36.06C35.2092 36.06 36.1332 36.3867 36.8145 37.04C37.4958 37.6933 37.8552 38.6547 37.8925 39.924C37.9112 40.4653 37.9205 40.8573 37.9205 41.1C37.9205 41.3333 37.9112 41.73 37.8925 42.29C37.8552 43.578 37.5052 44.544 36.8425 45.188C36.1892 45.8227 35.2558 46.14 34.0425 46.14ZM34.0425 44.978C34.7892 44.978 35.3865 44.754 35.8345 44.306C36.2825 43.8487 36.5252 43.1534 36.5625 42.22C36.5812 41.66 36.5905 41.2867 36.5905 41.1C36.5905 40.8947 36.5812 40.5213 36.5625 39.98C36.5252 39.0467 36.2825 38.3513 35.8345 37.894C35.3865 37.4367 34.7892 37.208 34.0425 37.208C33.2958 37.208 32.6938 37.4367 32.2365 37.894C31.7885 38.3513 31.5505 39.0467 31.5225 39.98C31.5132 40.2507 31.5085 40.624 31.5085 41.1C31.5085 41.5667 31.5132 41.94 31.5225 42.22C31.5505 43.1534 31.7885 43.8487 32.2365 44.306C32.6845 44.754 33.2865 44.978 34.0425 44.978Z" fill="black"/>
<path d="M42.6283 46C42.3857 46 42.2177 45.8787 42.1243 45.636L38.9743 36.634L38.9463 36.48C38.9463 36.4053 38.9743 36.34 39.0303 36.284C39.0957 36.228 39.1657 36.2 39.2403 36.2H39.9123C40.015 36.2 40.0943 36.228 40.1503 36.284C40.2157 36.3307 40.2577 36.3867 40.2763 36.452L43.0483 44.46L45.8343 36.452C45.853 36.3867 45.8903 36.3307 45.9463 36.284C46.0117 36.228 46.0957 36.2 46.1983 36.2H46.8703C46.945 36.2 47.0103 36.228 47.0663 36.284C47.1223 36.34 47.1503 36.4053 47.1503 36.48C47.1503 36.5453 47.1457 36.5967 47.1363 36.634L43.9863 45.636C43.893 45.8787 43.725 46 43.4823 46H42.6283Z" fill="black"/>
<path d="M49.1708 46C49.0775 46 49.0028 45.972 48.9468 45.916C48.8908 45.8507 48.8628 45.7714 48.8628 45.678V36.522C48.8628 36.4287 48.8908 36.354 48.9468 36.298C49.0028 36.2327 49.0775 36.2 49.1708 36.2H49.8708C49.9735 36.2 50.0528 36.228 50.1088 36.284C50.1648 36.34 50.1928 36.4193 50.1928 36.522V45.678C50.1928 45.7714 50.1602 45.8507 50.0948 45.916C50.0388 45.972 49.9642 46 49.8708 46H49.1708Z" fill="black"/>
<path d="M52.9716 46C52.8783 46 52.8036 45.972 52.7476 45.916C52.6916 45.8507 52.6636 45.7714 52.6636 45.678V36.536C52.6636 36.4333 52.6916 36.354 52.7476 36.298C52.8036 36.2327 52.8783 36.2 52.9716 36.2H56.1356C57.5449 36.2 58.5623 36.5173 59.1876 37.152C59.8129 37.7773 60.1349 38.7247 60.1536 39.994C60.1629 40.2647 60.1676 40.6287 60.1676 41.086C60.1676 41.5433 60.1629 41.912 60.1536 42.192C60.1349 43.0787 59.9903 43.802 59.7196 44.362C59.4583 44.9127 59.0429 45.3234 58.4736 45.594C57.9043 45.8647 57.1483 46 56.2056 46H52.9716ZM56.1356 44.838C56.7889 44.838 57.3069 44.7493 57.6896 44.572C58.0816 44.3853 58.3616 44.1007 58.5296 43.718C58.7069 43.326 58.8049 42.7987 58.8236 42.136C58.8423 41.576 58.8516 41.226 58.8516 41.086C58.8516 40.9367 58.8423 40.5913 58.8236 40.05C58.8049 39.1167 58.5809 38.4353 58.1516 38.006C57.7316 37.5673 57.0363 37.348 56.0656 37.348H53.9796V44.838H56.1356Z" fill="black"/>
<path d="M62.3583 42.36C62.2649 42.36 62.1856 42.332 62.1203 42.276C62.0643 42.22 62.0363 42.1453 62.0363 42.052V41.548C62.0363 41.4547 62.0643 41.38 62.1203 41.324C62.1856 41.2587 62.2649 41.226 62.3583 41.226H66.5583C66.6516 41.226 66.7263 41.2587 66.7823 41.324C66.8476 41.38 66.8803 41.4547 66.8803 41.548V42.052C66.8803 42.1453 66.8476 42.22 66.7823 42.276C66.7263 42.332 66.6516 42.36 66.5583 42.36H62.3583Z" fill="black"/>
<path d="M71.196 46C71.1027 46 71.028 45.972 70.972 45.916C70.916 45.8507 70.888 45.7714 70.888 45.678V37.782L68.536 39.588C68.4707 39.644 68.4007 39.672 68.326 39.672C68.242 39.672 68.1627 39.6253 68.088 39.532L67.752 39.098C67.7053 39.0327 67.682 38.9674 67.682 38.902C67.682 38.7993 67.7287 38.7153 67.822 38.65L70.86 36.298C70.9627 36.2327 71.084 36.2 71.224 36.2H71.882C71.9753 36.2 72.05 36.2327 72.106 36.298C72.1713 36.354 72.204 36.4287 72.204 36.522V45.678C72.204 45.7714 72.1713 45.8507 72.106 45.916C72.05 45.972 71.9753 46 71.882 46H71.196Z" fill="black"/>
<path d="M75.9953 46C75.9113 46 75.8413 45.972 75.7853 45.916C75.7386 45.8507 75.7153 45.776 75.7153 45.692C75.7153 45.6267 75.7339 45.566 75.7713 45.51L77.9273 42.514C77.7033 42.57 77.4419 42.598 77.1433 42.598C76.4713 42.5887 75.8833 42.4347 75.3793 42.136C74.8753 41.828 74.4879 41.4313 74.2173 40.946C73.9559 40.4513 73.8253 39.924 73.8253 39.364C73.8253 38.804 73.9559 38.272 74.2173 37.768C74.4879 37.264 74.8846 36.8533 75.4073 36.536C75.9393 36.2187 76.5786 36.06 77.3253 36.06C78.0719 36.06 78.7113 36.214 79.2433 36.522C79.7753 36.83 80.1766 37.236 80.4473 37.74C80.7179 38.2347 80.8533 38.7667 80.8533 39.336C80.8533 39.8493 80.7599 40.302 80.5733 40.694C80.3959 41.086 80.1579 41.492 79.8593 41.912L77.1433 45.72C77.0779 45.804 77.0126 45.874 76.9473 45.93C76.8913 45.9767 76.8073 46 76.6953 46H75.9953ZM77.3253 41.492C77.7266 41.492 78.0953 41.4033 78.4313 41.226C78.7673 41.0487 79.0333 40.8013 79.2293 40.484C79.4253 40.1573 79.5233 39.784 79.5233 39.364C79.5233 38.9347 79.4253 38.5567 79.2293 38.23C79.0333 37.9033 78.7673 37.6513 78.4313 37.474C78.0953 37.2967 77.7266 37.208 77.3253 37.208C76.9333 37.208 76.5693 37.2967 76.2333 37.474C75.9066 37.6513 75.6453 37.9033 75.4493 38.23C75.2533 38.5567 75.1553 38.9347 75.1553 39.364C75.1553 39.784 75.2533 40.1573 75.4493 40.484C75.6453 40.8013 75.9066 41.0487 76.2333 41.226C76.5599 41.4033 76.9239 41.492 77.3253 41.492Z" fill="black"/>
<path d="M150.128 82.7325C150.688 82.7851 151.077 83.3076 150.978 83.8633L148.993 96.1492C148.76 97.4093 147.92 98.4636 146.757 98.9666L143.091 100.802C142.375 101.113 141.567 101.113 140.851 100.802L137.185 98.9666C136.022 98.4636 135.182 97.4093 134.949 96.1492L132.964 83.8633C132.865 83.3076 133.254 82.7851 133.814 82.7325L136.777 82.4595C137.584 82.3874 138.064 82.1431 138.766 81.7503L141.51 80.0732C141.795 79.915 142.147 79.915 142.432 80.0732L145.176 81.7503C145.878 82.1431 146.657 82.3874 147.459 82.4595L150.128 82.7325Z" fill="#C3B3F4"/>
<path d="M140.851 100.802L137.185 98.9666C136.022 98.4636 135.182 97.4093 134.949 96.1492L132.964 83.8633C132.865 83.3076 133.254 82.7851 133.814 82.7325L136.777 82.4595C137.584 82.3874 138.064 82.1431 138.766 81.7503L141.51 80.0732C141.795 79.9151 132 87.6201 140.851 100.802Z" fill="#EAE4FE"/>
<path fill-rule="evenodd" clip-rule="evenodd" d="M136.785 99.8363C135.339 99.2006 134.305 97.8899 134.016 96.3244L132.029 84.0242C131.937 83.4978 132.067 82.9534 132.387 82.5282C132.707 82.1015 133.196 81.8277 133.726 81.7779L136.691 81.5049C137.291 81.4513 137.627 81.2913 138.306 80.9118L141.017 79.2532C141.618 78.9193 142.321 78.9188 142.888 79.233L145.666 80.9302C146.223 81.2407 146.882 81.4459 147.542 81.5049L150.222 81.7788C150.745 81.8282 151.233 82.1015 151.554 82.5282C151.876 82.9557 152.006 83.5048 151.911 84.0338L149.929 96.3029C149.637 97.8894 148.602 99.2006 147.155 99.8363L143.513 101.66C143.497 101.668 143.482 101.675 143.466 101.682C142.991 101.888 142.48 101.992 141.97 101.992C141.46 101.992 140.95 101.888 140.475 101.682C140.459 101.675 140.444 101.668 140.428 101.66L136.785 99.8363ZM139.258 82.5701C138.46 83.0165 137.842 83.3265 136.86 83.4138L133.901 83.6859C133.902 83.6886 133.902 83.6928 133.902 83.6971C133.902 83.7014 133.902 83.7057 133.902 83.7086L135.887 95.9943C136.057 96.9173 136.684 97.7065 137.56 98.0855C137.576 98.0927 137.592 98.0998 137.608 98.1079L141.248 99.9303C141.715 100.127 142.228 100.127 142.695 99.9303L146.335 98.1079C146.351 98.0998 146.367 98.0927 146.383 98.0855C147.259 97.7069 147.886 96.9173 148.06 95.9732L150.041 83.7091L147.364 83.4124C146.454 83.331 145.534 83.0458 144.716 82.5881L141.971 80.9118L139.258 82.5701Z" fill="#6650AB"/>
<path d="M140.825 94.0474C141.01 94.2348 141.253 94.3284 141.496 94.3284C141.739 94.3284 141.982 94.2348 142.168 94.0474L146.915 89.2558C147.286 88.8816 147.286 88.275 146.915 87.9008C146.545 87.5265 145.943 87.5265 145.573 87.9008L141.496 92.0145L139.319 89.8175C138.948 89.4432 138.347 89.4432 137.976 89.8175C137.605 90.1916 137.605 90.7983 137.976 91.1724L140.825 94.0474Z" fill="#6650AB"/>
</svg>
