<svg width="172" height="112" viewBox="0 0 172 112" fill="none" xmlns="http://www.w3.org/2000/svg">
<g clip-path="url(#clip0)">
<rect opacity="0.184733" width="172" height="112" rx="4" fill="#3993FC"/>
<path opacity="0.650507" d="M98.3329 21.9701C109.656 15.9674 110 0 110 0L-15 0C-15 0 -15 55.6119 -15 61.791C-11.6667 67.6269 -3.75005 69 8.33324 69C20.4165 69 37.0831 67.2836 45.4164 51.4925C53.7497 35.7015 50.8843 31.6508 62.083 25.403C73.2818 19.1552 87.0102 27.9729 98.3329 21.9701Z" fill="#EFF5FF"/>
<path opacity="0.58152" d="M171.647 50.7447C175.786 55.2282 176.3 59.2846 176.782 63.8337C177.159 67.3936 176.884 107.986 176.803 118.908C176.791 120.412 175.584 121.6 174.08 121.6C166.116 121.6 143.17 121.6 141.254 121.6C143.977 115.157 117.774 92.1084 117.048 75.1445C116.322 58.1806 123.843 47.6936 137.857 42.2034C151.871 36.7132 163.762 42.2034 171.647 50.7447Z" fill="#EFF5FF"/>
<path d="M21.372 26H25.068C27.266 26 28.456 25.02 28.456 23.438C28.456 22.402 27.756 21.52 26.566 21.324V21.31C27.644 21.114 28.218 20.26 28.218 19.294C28.218 17.712 27.224 16.76 25.012 16.76H21.372V26ZM22.842 20.736V18.02H24.9C26.076 18.02 26.664 18.468 26.664 19.378C26.664 20.288 26.076 20.736 24.9 20.736H22.842ZM22.842 24.754V21.982H25.138C26.314 21.982 26.902 22.486 26.902 23.368C26.902 24.25 26.314 24.754 25.138 24.754H22.842ZM36.6335 22.08C36.6335 20.246 35.4575 18.86 33.4275 18.86C31.4115 18.86 29.9835 20.218 29.9835 22.5C29.9835 24.782 31.4115 26.14 33.5115 26.14C34.8975 26.14 36.0035 25.524 36.4935 24.502L35.3035 23.942C34.9675 24.572 34.4215 24.95 33.4835 24.95C32.3355 24.95 31.5795 24.25 31.4535 22.948H36.5775C36.6055 22.738 36.6335 22.43 36.6335 22.08ZM33.3995 20.05C34.4355 20.05 35.0935 20.68 35.1635 21.8H31.4815C31.6775 20.666 32.3635 20.05 33.3995 20.05ZM42.2913 18.86C41.2693 18.86 40.3873 19.28 39.9253 20.204L39.8553 19H38.5253V26H40.0233V22.276C40.0233 20.68 41.0033 20.092 41.9273 20.092C42.7813 20.092 43.4253 20.554 43.4253 21.926V26H44.9233V21.464C44.9233 19.714 43.7753 18.86 42.2913 18.86ZM53.3953 22.08C53.3953 20.246 52.2193 18.86 50.1893 18.86C48.1733 18.86 46.7453 20.218 46.7453 22.5C46.7453 24.782 48.1733 26.14 50.2733 26.14C51.6593 26.14 52.7653 25.524 53.2553 24.502L52.0653 23.942C51.7293 24.572 51.1833 24.95 50.2453 24.95C49.0973 24.95 48.3413 24.25 48.2153 22.948H53.3393C53.3673 22.738 53.3953 22.43 53.3953 22.08ZM50.1613 20.05C51.1973 20.05 51.8553 20.68 51.9253 21.8H48.2433C48.4393 20.666 49.1253 20.05 50.1613 20.05ZM58.4523 16.97C58.7883 16.97 59.0403 17.04 59.2503 17.166L59.5303 16.088C59.2783 15.878 58.7743 15.752 58.2003 15.752C56.6743 15.752 55.7643 16.578 55.7643 17.992V19H54.4483V20.176H55.7643V26H57.2623V20.176H59.4883V19H57.2203V18.104C57.2203 17.292 57.6823 16.97 58.4523 16.97ZM61.5883 15.962C60.9443 15.962 60.5803 16.298 60.5803 16.886C60.5803 17.474 60.9443 17.824 61.5883 17.824C62.2323 17.824 62.5823 17.474 62.5823 16.886C62.5823 16.298 62.2323 15.962 61.5883 15.962ZM60.8323 26H62.3303V19H60.8323V26ZM68.8802 24.446C68.5722 24.726 68.2222 24.894 67.7042 24.894C67.1022 24.894 66.6962 24.586 66.6962 23.9V20.176H69.1042V19H66.6962V16.942L65.1982 17.362V19H63.8542V20.176H65.1982V24.152C65.2122 25.594 66.1502 26.14 67.3822 26.14C68.1522 26.14 68.7822 25.916 69.2162 25.538L68.8802 24.446ZM78.1766 18.86C76.1326 18.86 74.6906 20.218 74.6906 22.5C74.6906 24.782 76.1326 26.14 78.1766 26.14C80.2206 26.14 81.6486 24.782 81.6486 22.5C81.6486 20.218 80.2206 18.86 78.1766 18.86ZM78.1766 20.036C79.4086 20.036 80.1506 20.918 80.1506 22.5C80.1506 24.082 79.4086 24.964 78.1766 24.964C76.9306 24.964 76.1886 24.082 76.1886 22.5C76.1886 20.918 76.9306 20.036 78.1766 20.036ZM85.4254 18.104C85.4254 17.292 85.8874 16.97 86.6574 16.97C86.9934 16.97 87.2454 17.04 87.4554 17.166L87.7354 16.088C87.4834 15.878 86.9794 15.752 86.4054 15.752C84.8794 15.752 83.9694 16.578 83.9694 17.992V19H82.6534V20.176H83.9694V26H85.4674V20.176H87.6934V19H85.4254V18.104ZM97.14 24.446C96.832 24.726 96.482 24.894 95.964 24.894C95.362 24.894 94.956 24.586 94.956 23.9V20.176H97.364V19H94.956V16.942L93.458 17.362V19H92.114V20.176H93.458V24.152C93.472 25.594 94.41 26.14 95.642 26.14C96.412 26.14 97.042 25.916 97.476 25.538L97.14 24.446ZM104.935 24.992C104.599 24.992 104.417 24.824 104.417 24.474V21.352C104.417 19.672 103.213 18.86 101.547 18.86C99.8946 18.86 98.8446 19.616 98.4946 20.75L99.7546 21.282C100.021 20.4 100.665 20.036 101.491 20.036C102.387 20.036 102.933 20.582 102.933 21.506V21.772L100.441 22.262C99.1946 22.514 98.4806 23.2 98.4806 24.236C98.4806 25.496 99.4606 26.14 100.791 26.14C101.631 26.14 102.555 25.804 103.017 25.104C103.185 25.776 103.787 26.098 104.529 26.112C104.865 26.112 105.145 26.042 105.341 25.958L105.425 24.922C105.285 24.964 105.089 24.992 104.935 24.992ZM101.099 24.978C100.427 24.978 99.9926 24.642 99.9926 24.124C99.9926 23.578 100.371 23.34 101.169 23.186L102.933 22.822V23.41C102.933 24.53 102.051 24.978 101.099 24.978ZM113.059 26L110.497 22.444L113.017 19H111.295L109.629 21.534L107.963 19H106.157L108.663 22.472L106.017 26H107.725L109.531 23.368L111.281 26H113.059ZM23.822 47.14C25.628 47.14 26.748 46.23 26.748 44.886C26.748 43.99 26.258 43.346 24.914 43.08L23.318 42.744C22.576 42.59 22.352 42.296 22.352 41.932C22.352 41.414 22.87 41.05 23.78 41.05C24.522 41.05 25.278 41.414 25.642 42.156L26.678 41.288C26.16 40.378 25.138 39.86 23.752 39.86C21.918 39.86 20.868 40.882 20.868 42.016C20.868 43.038 21.456 43.71 22.94 44.004L24.41 44.312C25.068 44.452 25.25 44.746 25.25 45.096C25.25 45.628 24.704 45.95 23.85 45.95C22.772 45.95 21.988 45.46 21.568 44.69L20.532 45.586C21.204 46.58 22.436 47.14 23.822 47.14ZM34.6202 45.992C34.2842 45.992 34.1022 45.824 34.1022 45.474V42.352C34.1022 40.672 32.8982 39.86 31.2322 39.86C29.5802 39.86 28.5302 40.616 28.1802 41.75L29.4402 42.282C29.7062 41.4 30.3502 41.036 31.1762 41.036C32.0722 41.036 32.6182 41.582 32.6182 42.506V42.772L30.1262 43.262C28.8802 43.514 28.1662 44.2 28.1662 45.236C28.1662 46.496 29.1462 47.14 30.4762 47.14C31.3162 47.14 32.2402 46.804 32.7022 46.104C32.8702 46.776 33.4722 47.098 34.2142 47.112C34.5502 47.112 34.8302 47.042 35.0262 46.958L35.1102 45.922C34.9702 45.964 34.7742 45.992 34.6202 45.992ZM30.7842 45.978C30.1122 45.978 29.6782 45.642 29.6782 45.124C29.6782 44.578 30.0562 44.34 30.8542 44.186L32.6182 43.822V44.41C32.6182 45.53 31.7362 45.978 30.7842 45.978ZM40.9164 40L38.8864 45.698L36.9124 40H35.2604L38.0604 47H39.6984L42.4844 40H40.9164ZM44.5176 38.824C45.1616 38.824 45.5116 38.474 45.5116 37.886C45.5116 37.298 45.1616 36.962 44.5176 36.962C43.8736 36.962 43.5096 37.298 43.5096 37.886C43.5096 38.474 43.8736 38.824 44.5176 38.824ZM45.2596 40H43.7616V47H45.2596V40ZM51.3694 39.86C50.3474 39.86 49.4654 40.28 49.0034 41.204L48.9334 40H47.6034V47H49.1014V43.276C49.1014 41.68 50.0814 41.092 51.0054 41.092C51.8594 41.092 52.5034 41.554 52.5034 42.926V47H54.0014V42.464C54.0014 40.714 52.8534 39.86 51.3694 39.86ZM62.6694 39.692L62.4314 38.53C61.3394 38.502 60.5694 39.174 60.4294 40.14C59.9814 39.958 59.4634 39.86 58.8754 39.86C57.0694 39.86 55.8654 40.798 55.8654 42.226C55.8654 43.08 56.2434 43.766 56.9714 44.172C56.2854 44.41 55.9214 44.914 55.9214 45.53C55.9214 46.16 56.2434 46.552 56.7614 46.776C55.8934 46.972 55.5574 47.518 55.5574 48.148C55.5574 49.212 56.6214 50.01 58.9314 50.01C60.9614 50.01 62.4594 49.156 62.4594 47.672C62.4594 46.58 61.6474 45.908 60.2194 45.908H58.1194C57.4754 45.908 57.1254 45.684 57.1254 45.222C57.1254 44.914 57.3214 44.634 57.8254 44.48C58.1334 44.55 58.4834 44.592 58.8754 44.592C60.6954 44.592 61.8994 43.654 61.8994 42.226C61.8994 41.554 61.6334 40.994 61.1574 40.574C61.2554 39.972 61.7734 39.65 62.6694 39.692ZM58.8754 43.556C58.0214 43.556 57.3774 43.024 57.3774 42.226C57.3774 41.428 58.0214 40.91 58.8754 40.91C59.7434 40.91 60.3874 41.428 60.3874 42.226C60.3874 43.024 59.7434 43.556 58.8754 43.556ZM59.9954 47.14C60.8914 47.14 61.1854 47.42 61.1854 47.854C61.1854 48.414 60.4714 48.89 58.9314 48.89C57.6014 48.89 56.8174 48.498 56.8174 47.896C56.8174 47.434 57.2094 47.14 57.7414 47.14H59.9954ZM70.8767 47.14C71.9967 47.14 72.8367 46.748 73.3127 45.866L73.3827 47H74.6987V40H73.2007V43.794C73.2007 45.278 72.3047 45.908 71.3667 45.908C70.3867 45.908 69.8267 45.516 69.8267 44.242V40H68.3287V44.62C68.3287 46.426 69.4907 47.14 70.8767 47.14ZM80.833 39.86C79.727 39.86 78.859 40.448 78.439 41.302L78.369 40H77.039V49.94H78.537V45.852C78.957 46.608 79.755 47.14 80.791 47.14C82.513 47.14 83.899 45.782 83.899 43.486C83.899 41.204 82.541 39.86 80.833 39.86ZM80.469 45.922C79.293 45.922 78.537 44.984 78.537 43.5C78.537 42.002 79.321 41.064 80.497 41.064C81.701 41.064 82.401 41.974 82.401 43.5C82.401 45.026 81.673 45.922 80.469 45.922ZM89.9486 45.446C89.6406 45.726 89.2906 45.894 88.7726 45.894C88.1706 45.894 87.7646 45.586 87.7646 44.9V41.176H90.1726V40H87.7646V37.942L86.2666 38.362V40H84.9226V41.176H86.2666V45.152C86.2806 46.594 87.2186 47.14 88.4506 47.14C89.2206 47.14 89.8506 46.916 90.2846 46.538L89.9486 45.446ZM94.6922 39.86C92.6482 39.86 91.2062 41.218 91.2062 43.5C91.2062 45.782 92.6482 47.14 94.6922 47.14C96.7362 47.14 98.1642 45.782 98.1642 43.5C98.1642 41.218 96.7362 39.86 94.6922 39.86ZM94.6922 41.036C95.9242 41.036 96.6662 41.918 96.6662 43.5C96.6662 45.082 95.9242 45.964 94.6922 45.964C93.4462 45.964 92.7042 45.082 92.7042 43.5C92.7042 41.918 93.4462 41.036 94.6922 41.036ZM25.194 68H27.266L22.478 64.374H23.402C24.97 64.332 25.992 63.408 26.188 62.12H27.56V61.07H26.174C26.062 60.468 25.768 60.006 25.334 59.824L27.56 59.838V58.76H20.728V59.81L23.178 59.824C24.158 59.824 24.788 60.258 24.956 61.07H20.728V62.12H24.956C24.788 62.932 24.158 63.38 23.178 63.38H20.728V64.514L25.194 68ZM30.84 68H32.324V58.76H31.064C30.56 59.46 29.006 60.3 28.25 60.398L28.53 61.7C29.37 61.504 30.224 61.042 30.868 60.44C30.854 60.874 30.84 61.294 30.84 61.658V68ZM37.6489 68.14C39.5669 68.14 41.0089 67.02 41.0089 64.99C41.0089 63.254 39.8749 62.064 38.0969 62.064C37.1589 62.064 36.4729 62.344 36.0529 62.806H36.0249L36.0529 62.652L36.3889 60.048H40.5749V58.76H35.1989L34.6389 63.856L35.8709 64.094C36.2629 63.548 36.9209 63.296 37.7469 63.296C38.8949 63.296 39.5249 63.912 39.5389 65.074C39.5529 66.194 38.8389 66.866 37.6769 66.866C36.5569 66.866 36.0389 66.25 35.7729 65.34L34.3729 66.068C34.9889 67.412 36.0109 68.14 37.6489 68.14ZM43.6833 66.11C43.1093 66.11 42.6193 66.544 42.6193 67.16C42.6193 67.818 43.1093 68.126 43.5013 68.126C43.7253 68.126 43.8373 68.084 43.9213 68.028L43.9773 68.056C43.8093 68.644 43.2773 69.232 42.5213 69.498L43.2213 70.1C44.2713 69.61 44.8733 68.602 44.8733 67.566C44.8733 66.74 44.4533 66.11 43.6833 66.11ZM50.0494 58.62C47.9214 58.62 46.2834 60.258 46.2834 63.408C46.2834 66.264 47.6414 68.14 49.9794 68.14C51.9674 68.14 53.2414 66.964 53.2414 65.116C53.2414 63.31 52.0094 62.176 50.1754 62.176C49.1954 62.176 48.0334 62.666 47.7254 63.758L47.6694 63.73V63.478C47.6694 61.434 48.4954 59.922 49.9514 59.922C50.9594 59.922 51.5054 60.412 51.7574 61.224L53.0734 60.594C52.5134 59.18 51.5194 58.62 50.0494 58.62ZM49.9514 63.422C51.0994 63.422 51.7574 64.066 51.7574 65.116C51.7574 66.208 51.0994 66.852 49.9514 66.852C48.9294 66.852 48.1454 66.082 48.1454 65.116C48.1454 64.108 48.8874 63.422 49.9514 63.422ZM58.398 68.14C60.624 68.14 61.968 66.488 61.968 63.38C61.968 60.272 60.624 58.62 58.398 58.62C56.172 58.62 54.842 60.272 54.842 63.38C54.842 66.488 56.172 68.14 58.398 68.14ZM58.398 66.866C57.054 66.866 56.368 65.704 56.368 63.38C56.368 61.056 57.054 59.894 58.398 59.894C59.742 59.894 60.442 61.056 60.442 63.38C60.442 65.704 59.742 66.866 58.398 66.866ZM67.189 68.14C69.415 68.14 70.759 66.488 70.759 63.38C70.759 60.272 69.415 58.62 67.189 58.62C64.963 58.62 63.633 60.272 63.633 63.38C63.633 66.488 64.963 68.14 67.189 68.14ZM67.189 66.866C65.845 66.866 65.159 65.704 65.159 63.38C65.159 61.056 65.845 59.894 67.189 59.894C68.533 59.894 69.233 61.056 69.233 63.38C69.233 65.704 68.533 66.866 67.189 66.866Z" fill="black"/>
<path d="M141.044 85.9093H139.933C138.693 85.9093 138.084 84.4034 138.951 83.5346C139.203 83.2828 139.55 83.127 139.933 83.127L138.682 80.8405C138.412 80.3462 138.769 79.7419 139.332 79.7419H141.645C142.208 79.7419 142.565 80.3462 142.295 80.8405L141.044 83.127C142.285 83.127 142.893 84.6329 142.026 85.5017C141.775 85.7535 141.427 85.9093 141.044 85.9093Z" fill="#D1E7FF"/>
<path d="M145.656 101.25C145.485 101.262 146.228 101.258 135.548 101.258C133.688 101.258 132.288 99.5609 132.638 97.7311L133.85 91.4046C134.461 88.2153 137.247 85.9093 140.489 85.9093C143.715 85.9093 146.513 88.1977 147.128 91.4047C147.213 91.8518 148.297 97.513 148.339 97.7311C148.685 99.536 147.322 101.158 145.656 101.25Z" fill="#FFDCE9"/>
<path d="M142.328 80.1964C142.394 80.3517 142.264 80.5208 142.096 80.5033C142.039 80.4974 142.204 80.4992 139.702 80.4992C139.428 80.4992 139.203 80.6425 139.075 80.8466C138.982 80.9953 138.767 80.9944 138.682 80.8404C138.412 80.346 138.769 79.7419 139.332 79.7419H141.645C141.966 79.7419 142.219 79.9372 142.328 80.1964Z" fill="#E8F3FF"/>
<path d="M141.335 83.1576C141.911 83.2807 141.819 84.1317 141.23 84.1319C140.525 84.1321 139.962 84.6512 139.857 85.3027C139.798 85.6708 139.36 85.8391 139.069 85.6069C138.029 84.7778 138.644 83.127 139.964 83.127C141.095 83.127 141.144 83.1168 141.335 83.1576Z" fill="#B2B2B2"/>
<path d="M141.044 83.127C141.811 83.127 142.433 83.7498 142.433 84.5181C142.433 85.286 141.811 85.9093 141.044 85.9093C140.642 85.9093 140.335 85.9093 139.933 85.9093C138.692 85.9093 138.085 84.4031 138.951 83.5346C139.203 83.2828 139.55 83.127 139.933 83.127H141.044Z" fill="#B9DCFF"/>
<path d="M143.635 86.6869C144.41 87.0959 144.078 88.2764 143.203 88.2251C139.98 88.0359 136.825 90.199 136.152 93.7107C135.741 95.8566 135.453 97.3149 135.257 98.3307C134.931 100.015 132.398 99.6369 132.607 97.9338C132.625 97.7875 132.54 98.246 133.85 91.4047C134.709 86.9214 139.65 84.5853 143.635 86.6869Z" fill="#FFF3F7"/>
<path d="M144.886 88.5524C148.389 88.5524 151.228 91.3968 151.228 94.9053C151.228 98.4137 148.389 101.258 144.886 101.258C141.384 101.258 138.545 98.4137 138.545 94.9053C138.545 91.3968 141.384 88.5524 144.886 88.5524Z" fill="#FFDCE9"/>
<path d="M147.722 89.2215C148.579 89.6512 148.256 90.9403 147.298 90.9402C143.976 90.9397 140.915 93.6004 140.934 97.3331C140.939 98.2931 139.65 98.6158 139.219 97.7584C137.094 93.532 140.201 88.5524 144.886 88.5524C145.906 88.5524 146.869 88.7934 147.722 89.2215Z" fill="#FFF3F7"/>
<path fill-rule="evenodd" clip-rule="evenodd" d="M135.733 100.516H138.637C139.046 100.516 139.378 100.848 139.378 101.258C139.378 101.668 139.046 102 138.637 102H135.733C133.41 102 131.658 99.8808 132.096 97.5913L133.308 91.2651C133.816 88.6122 135.689 86.5056 138.111 85.6204C137.507 84.6219 137.816 83.2998 138.847 82.6846L137.432 80.0984C137.162 79.6043 137.52 79 138.082 79H142.896C143.458 79 143.815 79.605 143.545 80.0985L142.131 82.6847C143.118 83.2742 143.451 84.522 142.927 85.5136C143.314 85.6381 143.529 86.0528 143.407 86.4423C143.285 86.8332 142.869 87.0505 142.479 86.9277C139.047 85.8476 135.439 88.0152 134.763 91.5446L133.551 97.8709C133.288 99.2419 134.337 100.516 135.733 100.516ZM140.606 82.3851L141.645 80.4839H139.332L140.372 82.3851H140.606ZM139.933 85.1673C139.576 85.1673 139.285 84.8761 139.285 84.5181C139.285 84.1612 139.575 83.869 139.934 83.869H141.039C141.413 83.869 141.692 84.1699 141.692 84.5181C141.692 84.8761 141.402 85.1673 141.044 85.1673H139.933ZM147.236 93.6003C147.526 93.3105 147.526 92.8408 147.236 92.551C146.947 92.2613 146.478 92.2613 146.189 92.5511L142.536 96.2102C142.068 96.6789 142.406 97.4767 143.06 97.4767C143.25 97.4767 143.439 97.4043 143.584 97.2594L147.236 93.6003ZM146.408 95.7489C145.866 95.7489 145.424 96.1912 145.424 96.7348C145.424 97.2784 145.866 97.7207 146.408 97.7207C146.951 97.7207 147.392 97.2784 147.392 96.7348C147.392 96.1912 146.951 95.7489 146.408 95.7489ZM144.349 93.0757C144.349 93.6193 143.907 94.0616 143.364 94.0616C142.822 94.0616 142.38 93.6193 142.38 93.0757C142.38 92.5321 142.822 92.0898 143.364 92.0898C143.907 92.0898 144.349 92.5321 144.349 93.0757ZM144.886 87.8105C140.981 87.8105 137.804 90.9932 137.804 94.9052C137.804 98.8173 140.981 102 144.886 102C148.791 102 151.969 98.8173 151.969 94.9052C151.969 90.9932 148.791 87.8105 144.886 87.8105ZM139.285 94.9052C139.285 97.9991 141.798 100.516 144.886 100.516C147.975 100.516 150.487 97.9991 150.487 94.9052C150.487 91.8114 147.975 89.2944 144.886 89.2944C141.798 89.2944 139.285 91.8114 139.285 94.9052Z" fill="#F16FA0"/>
</g>
<defs>
<clipPath id="clip0">
<rect width="172" height="112" fill="white"/>
</clipPath>
</defs>
</svg>
