<svg width="172" height="112" viewBox="0 0 172 112" fill="none" xmlns="http://www.w3.org/2000/svg">
<rect opacity="0.1847" width="172" height="112" rx="4" fill="#3993FC"/>
<path opacity="0.5815" d="M98.3329 21.9701C109.656 15.9674 110 0 110 0L0 0C0 0 0 62.8209 0 69C3.33332 74.8358 -3.75007 69 8.33322 69C20.4165 69 37.0831 67.2836 45.4164 51.4925C53.7497 35.7015 50.8843 31.6508 62.083 25.403C73.2817 19.1552 87.0102 27.9729 98.3329 21.9701Z" fill="#EFF5FF"/>
<path opacity="0.5815" d="M167.093 49.4806C170.887 53.4367 171.358 57.0158 171.8 61.0297C172.142 64.1373 171.899 99.2264 171.821 109.307C171.81 110.811 170.594 112 169.09 112C161.586 112 140.971 112 139.233 112C141.729 106.315 117.709 85.978 117.044 71.0099C116.379 56.0417 123.273 46.7884 136.119 41.9441C148.965 37.0998 159.865 41.9441 167.093 49.4806Z" fill="#EFF5FF"/>
<path d="M21.938 26C21.8447 26 21.77 25.972 21.714 25.916C21.658 25.8507 21.63 25.7713 21.63 25.678V16.536C21.63 16.4333 21.658 16.354 21.714 16.298C21.77 16.2327 21.8447 16.2 21.938 16.2H25.48C26.5347 16.2 27.3607 16.4567 27.958 16.97C28.5647 17.474 28.868 18.2113 28.868 19.182C28.868 20.1527 28.5647 20.89 27.958 21.394C27.3607 21.898 26.5347 22.15 25.48 22.15H22.96V25.678C22.96 25.7713 22.9273 25.8507 22.862 25.916C22.806 25.972 22.7313 26 22.638 26H21.938ZM25.41 21.016C26.8193 21.016 27.524 20.4047 27.524 19.182C27.524 18.5847 27.3467 18.1273 26.992 17.81C26.6467 17.4927 26.1193 17.334 25.41 17.334H22.96V21.016H25.41Z" fill="black"/>
<path d="M30.7387 26C30.6454 26 30.5661 25.972 30.5007 25.916C30.4447 25.8507 30.4167 25.7713 30.4167 25.678V19.056C30.4167 18.9627 30.4447 18.8833 30.5007 18.818C30.5661 18.7527 30.6454 18.72 30.7387 18.72H31.3267C31.4294 18.72 31.5087 18.7527 31.5647 18.818C31.6301 18.874 31.6628 18.9533 31.6628 19.056V19.672C32.0454 19.0373 32.6941 18.72 33.6087 18.72H34.1547C34.2574 18.72 34.3368 18.748 34.3927 18.804C34.4487 18.86 34.4768 18.9393 34.4768 19.042V19.56C34.4768 19.6533 34.4487 19.7327 34.3927 19.798C34.3368 19.854 34.2574 19.882 34.1547 19.882H33.3568C32.8434 19.882 32.4374 20.0313 32.1388 20.33C31.8494 20.6287 31.7048 21.0347 31.7048 21.548V25.678C31.7048 25.7713 31.6721 25.8507 31.6067 25.916C31.5414 25.972 31.4621 26 31.3687 26H30.7387Z" fill="black"/>
<path d="M38.4977 26.14C37.471 26.14 36.6777 25.8507 36.1177 25.272C35.567 24.6933 35.273 23.9233 35.2357 22.962L35.2217 22.36L35.2357 21.758C35.273 20.7967 35.5717 20.0267 36.1317 19.448C36.701 18.8693 37.4897 18.58 38.4977 18.58C39.5057 18.58 40.2897 18.8693 40.8497 19.448C41.419 20.0267 41.7224 20.7967 41.7597 21.758C41.7784 21.9633 41.7877 22.164 41.7877 22.36C41.7877 22.556 41.7784 22.7567 41.7597 22.962C41.7224 23.9233 41.4237 24.6933 40.8637 25.272C40.313 25.8507 39.5244 26.14 38.4977 26.14ZM38.4977 25.09C39.095 25.09 39.5664 24.9033 39.9117 24.53C40.2664 24.1473 40.4577 23.6013 40.4857 22.892C40.495 22.7987 40.4997 22.6213 40.4997 22.36C40.4997 22.0987 40.495 21.9213 40.4857 21.828C40.4577 21.1187 40.2664 20.5773 39.9117 20.204C39.5664 19.8213 39.095 19.63 38.4977 19.63C37.9004 19.63 37.4244 19.8213 37.0697 20.204C36.7244 20.5773 36.5377 21.1187 36.5097 21.828L36.4957 22.36L36.5097 22.892C36.5377 23.6013 36.7244 24.1473 37.0697 24.53C37.4244 24.9033 37.9004 25.09 38.4977 25.09Z" fill="black"/>
<path d="M46.2871 26C44.8404 26 44.1171 25.1833 44.1171 23.55V19.798H43.0111C42.9177 19.798 42.8431 19.77 42.7871 19.714C42.7311 19.658 42.7031 19.5833 42.7031 19.49V19.042C42.7031 18.9487 42.7311 18.874 42.7871 18.818C42.8431 18.7527 42.9177 18.72 43.0111 18.72H44.1171V16.382C44.1171 16.2887 44.1451 16.214 44.2011 16.158C44.2571 16.0927 44.3317 16.06 44.4251 16.06H45.0411C45.1344 16.06 45.2091 16.0927 45.2651 16.158C45.3304 16.214 45.3631 16.2887 45.3631 16.382V18.72H47.0991C47.1924 18.72 47.2671 18.7527 47.3231 18.818C47.3884 18.874 47.4211 18.9487 47.4211 19.042V19.49C47.4211 19.5833 47.3884 19.658 47.3231 19.714C47.2671 19.77 47.1924 19.798 47.0991 19.798H45.3631V23.452C45.3631 23.928 45.4377 24.2873 45.5871 24.53C45.7457 24.7727 46.0117 24.894 46.3851 24.894H47.2391C47.3324 24.894 47.4071 24.9267 47.4631 24.992C47.5191 25.048 47.5471 25.1227 47.5471 25.216V25.678C47.5471 25.7713 47.5191 25.8507 47.4631 25.916C47.4071 25.972 47.3324 26 47.2391 26H46.2871Z" fill="black"/>
<path d="M51.7988 26.14C50.8468 26.14 50.0861 25.846 49.5168 25.258C48.9475 24.6607 48.6348 23.8487 48.5788 22.822L48.5648 22.346L48.5788 21.884C48.6348 20.876 48.9475 20.0733 49.5168 19.476C50.0861 18.8787 50.8468 18.58 51.7988 18.58C52.8255 18.58 53.6188 18.9067 54.1788 19.56C54.7481 20.2133 55.0328 21.1 55.0328 22.22V22.472C55.0328 22.5653 55.0001 22.6447 54.9348 22.71C54.8788 22.766 54.8041 22.794 54.7108 22.794H49.8528V22.92C49.8808 23.5267 50.0675 24.0447 50.4128 24.474C50.7581 24.9033 51.2155 25.118 51.7848 25.118C52.2235 25.118 52.5781 25.034 52.8488 24.866C53.1288 24.6887 53.3388 24.5067 53.4788 24.32C53.5628 24.208 53.6281 24.1427 53.6748 24.124C53.7215 24.096 53.8008 24.082 53.9128 24.082H54.5288C54.6128 24.082 54.6828 24.1053 54.7388 24.152C54.8041 24.1987 54.8368 24.2593 54.8368 24.334C54.8368 24.5393 54.7108 24.7867 54.4588 25.076C54.2068 25.3653 53.8475 25.6173 53.3808 25.832C52.9235 26.0373 52.3961 26.14 51.7988 26.14ZM53.7588 21.842V21.8C53.7588 21.1467 53.5815 20.6147 53.2268 20.204C52.8721 19.7933 52.3961 19.588 51.7988 19.588C51.1921 19.588 50.7161 19.7933 50.3708 20.204C50.0255 20.6147 49.8528 21.1467 49.8528 21.8V21.842H53.7588Z" fill="black"/>
<path d="M59.6471 26.14C58.6484 26.14 57.8691 25.86 57.3091 25.3C56.7491 24.7307 56.4551 23.9373 56.4271 22.92L56.4131 22.36L56.4271 21.8C56.4551 20.7827 56.7491 19.994 57.3091 19.434C57.8691 18.8647 58.6484 18.58 59.6471 18.58C60.3191 18.58 60.8838 18.7013 61.3411 18.944C61.8078 19.1773 62.1531 19.4713 62.3771 19.826C62.6104 20.1807 62.7364 20.5353 62.7551 20.89C62.7644 20.974 62.7318 21.0487 62.6571 21.114C62.5918 21.1793 62.5171 21.212 62.4331 21.212H61.8171C61.7238 21.212 61.6538 21.1933 61.6071 21.156C61.5604 21.1093 61.5138 21.03 61.4671 20.918C61.2991 20.4607 61.0658 20.1387 60.7671 19.952C60.4778 19.756 60.1091 19.658 59.6611 19.658C59.0731 19.658 58.6064 19.84 58.2611 20.204C57.9158 20.568 57.7291 21.1233 57.7011 21.87L57.6871 22.36L57.7011 22.85C57.7291 23.5967 57.9158 24.152 58.2611 24.516C58.6064 24.88 59.0731 25.062 59.6611 25.062C60.1184 25.062 60.4918 24.9687 60.7811 24.782C61.0704 24.586 61.2991 24.2593 61.4671 23.802C61.5138 23.69 61.5604 23.6153 61.6071 23.578C61.6538 23.5313 61.7238 23.508 61.8171 23.508H62.4331C62.5171 23.508 62.5918 23.5407 62.6571 23.606C62.7318 23.6713 62.7644 23.746 62.7551 23.83C62.7364 24.1753 62.6104 24.5253 62.3771 24.88C62.1531 25.2347 61.8078 25.5333 61.3411 25.776C60.8838 26.0187 60.3191 26.14 59.6471 26.14Z" fill="black"/>
<path d="M67.2324 26C65.7857 26 65.0624 25.1833 65.0624 23.55V19.798H63.9564C63.863 19.798 63.7884 19.77 63.7324 19.714C63.6764 19.658 63.6484 19.5833 63.6484 19.49V19.042C63.6484 18.9487 63.6764 18.874 63.7324 18.818C63.7884 18.7527 63.863 18.72 63.9564 18.72H65.0624V16.382C65.0624 16.2887 65.0904 16.214 65.1464 16.158C65.2024 16.0927 65.277 16.06 65.3704 16.06H65.9864C66.0797 16.06 66.1544 16.0927 66.2104 16.158C66.2757 16.214 66.3084 16.2887 66.3084 16.382V18.72H68.0444C68.1377 18.72 68.2124 18.7527 68.2684 18.818C68.3337 18.874 68.3664 18.9487 68.3664 19.042V19.49C68.3664 19.5833 68.3337 19.658 68.2684 19.714C68.2124 19.77 68.1377 19.798 68.0444 19.798H66.3084V23.452C66.3084 23.928 66.383 24.2873 66.5324 24.53C66.691 24.7727 66.957 24.894 67.3304 24.894H68.1844C68.2777 24.894 68.3524 24.9267 68.4084 24.992C68.4644 25.048 68.4924 25.1227 68.4924 25.216V25.678C68.4924 25.7713 68.4644 25.8507 68.4084 25.916C68.3524 25.972 68.2777 26 68.1844 26H67.2324Z" fill="black"/>
<path d="M70.0701 17.348C69.9768 17.348 69.8974 17.32 69.8321 17.264C69.7761 17.1987 69.7481 17.1193 69.7481 17.026V16.298C69.7481 16.2047 69.7761 16.1253 69.8321 16.06C69.8974 15.9947 69.9768 15.962 70.0701 15.962H70.8961C70.9894 15.962 71.0688 15.9947 71.1341 16.06C71.1994 16.1253 71.2321 16.2047 71.2321 16.298V17.026C71.2321 17.1193 71.1994 17.1987 71.1341 17.264C71.0688 17.32 70.9894 17.348 70.8961 17.348H70.0701ZM70.1821 26C70.0888 26 70.0094 25.972 69.9441 25.916C69.8881 25.8507 69.8601 25.7713 69.8601 25.678V19.042C69.8601 18.9487 69.8881 18.874 69.9441 18.818C70.0094 18.7527 70.0888 18.72 70.1821 18.72H70.7981C70.8914 18.72 70.9661 18.7527 71.0221 18.818C71.0874 18.874 71.1201 18.9487 71.1201 19.042V25.678C71.1201 25.7713 71.0874 25.8507 71.0221 25.916C70.9661 25.972 70.8914 26 70.7981 26H70.1821Z" fill="black"/>
<path d="M76.1774 26.14C75.1507 26.14 74.3574 25.8507 73.7974 25.272C73.2467 24.6933 72.9527 23.9233 72.9154 22.962L72.9014 22.36L72.9154 21.758C72.9527 20.7967 73.2514 20.0267 73.8114 19.448C74.3807 18.8693 75.1694 18.58 76.1774 18.58C77.1854 18.58 77.9694 18.8693 78.5294 19.448C79.0987 20.0267 79.4021 20.7967 79.4394 21.758C79.4581 21.9633 79.4674 22.164 79.4674 22.36C79.4674 22.556 79.4581 22.7567 79.4394 22.962C79.4021 23.9233 79.1034 24.6933 78.5434 25.272C77.9927 25.8507 77.2041 26.14 76.1774 26.14ZM76.1774 25.09C76.7747 25.09 77.2461 24.9033 77.5914 24.53C77.9461 24.1473 78.1374 23.6013 78.1654 22.892C78.1747 22.7987 78.1794 22.6213 78.1794 22.36C78.1794 22.0987 78.1747 21.9213 78.1654 21.828C78.1374 21.1187 77.9461 20.5773 77.5914 20.204C77.2461 19.8213 76.7747 19.63 76.1774 19.63C75.5801 19.63 75.1041 19.8213 74.7494 20.204C74.4041 20.5773 74.2174 21.1187 74.1894 21.828L74.1754 22.36L74.1894 22.892C74.2174 23.6013 74.4041 24.1473 74.7494 24.53C75.1041 24.9033 75.5801 25.09 76.1774 25.09Z" fill="black"/>
<path d="M81.5571 26C81.4638 26 81.3844 25.972 81.3191 25.916C81.2631 25.8507 81.2351 25.7713 81.2351 25.678V19.042C81.2351 18.9487 81.2631 18.874 81.3191 18.818C81.3844 18.7527 81.4638 18.72 81.5571 18.72H82.1591C82.2618 18.72 82.3411 18.748 82.3971 18.804C82.4531 18.86 82.4811 18.9393 82.4811 19.042V19.658C82.7611 19.3127 83.0831 19.0467 83.4471 18.86C83.8204 18.6733 84.2824 18.58 84.8331 18.58C85.7291 18.58 86.4244 18.8693 86.9191 19.448C87.4138 20.0173 87.6611 20.7733 87.6611 21.716V25.678C87.6611 25.7713 87.6284 25.8507 87.5631 25.916C87.5071 25.972 87.4324 26 87.3391 26H86.6951C86.6018 26 86.5224 25.972 86.4571 25.916C86.4011 25.8507 86.3731 25.7713 86.3731 25.678V21.8C86.3731 21.128 86.2098 20.6053 85.8831 20.232C85.5564 19.8587 85.0898 19.672 84.4831 19.672C83.8858 19.672 83.4098 19.8633 83.0551 20.246C82.7004 20.6193 82.5231 21.1373 82.5231 21.8V25.678C82.5231 25.7713 82.4904 25.8507 82.4251 25.916C82.3691 25.972 82.2944 26 82.2011 26H81.5571Z" fill="black"/>
<path d="M95.1456 26.14C94.6883 26.14 94.2636 26.0467 93.8716 25.86C93.489 25.6733 93.181 25.4213 92.9476 25.104C92.7236 24.7773 92.6116 24.418 92.6116 24.026C92.6116 23.41 92.8636 22.906 93.3676 22.514C93.8716 22.122 94.5576 21.8607 95.4256 21.73L97.5256 21.436V21.03C97.5256 20.0687 96.9703 19.588 95.8596 19.588C95.4303 19.588 95.085 19.6767 94.8236 19.854C94.5623 20.022 94.371 20.2227 94.2496 20.456C94.2123 20.5493 94.1703 20.6147 94.1236 20.652C94.0863 20.68 94.0303 20.694 93.9556 20.694H93.4096C93.3256 20.694 93.251 20.666 93.1856 20.61C93.1296 20.5447 93.1016 20.47 93.1016 20.386C93.1016 20.1713 93.1996 19.924 93.3956 19.644C93.601 19.3547 93.9136 19.1073 94.3336 18.902C94.7536 18.6873 95.267 18.58 95.8736 18.58C96.919 18.58 97.6656 18.8227 98.1136 19.308C98.571 19.7933 98.7996 20.4 98.7996 21.128V25.678C98.7996 25.7713 98.767 25.8507 98.7016 25.916C98.6456 25.972 98.571 26 98.4776 26H97.8616C97.7683 26 97.6936 25.972 97.6376 25.916C97.5816 25.8507 97.5536 25.7713 97.5536 25.678V25.062C97.3483 25.37 97.0496 25.6267 96.6576 25.832C96.2656 26.0373 95.7616 26.14 95.1456 26.14ZM95.4256 25.118C96.0416 25.118 96.5456 24.9173 96.9376 24.516C97.3296 24.1147 97.5256 23.5313 97.5256 22.766V22.374L95.8876 22.612C95.2156 22.7053 94.707 22.864 94.3616 23.088C94.0163 23.312 93.8436 23.592 93.8436 23.928C93.8436 24.3107 93.9976 24.6047 94.3056 24.81C94.623 25.0153 94.9963 25.118 95.4256 25.118Z" fill="black"/>
<path d="M103.781 29.08C103.006 29.08 102.386 28.9493 101.919 28.688C101.452 28.4267 101.121 28.128 100.925 27.792C100.738 27.456 100.645 27.1667 100.645 26.924C100.645 26.84 100.678 26.7653 100.743 26.7C100.808 26.644 100.883 26.616 100.967 26.616H101.583C101.667 26.616 101.737 26.6347 101.793 26.672C101.849 26.7187 101.896 26.798 101.933 26.91C102.194 27.6567 102.787 28.03 103.711 28.03C104.411 28.03 104.929 27.8807 105.265 27.582C105.601 27.2833 105.769 26.756 105.769 26V25.034C105.228 25.7247 104.472 26.07 103.501 26.07C102.512 26.07 101.77 25.7527 101.275 25.118C100.79 24.4833 100.533 23.6807 100.505 22.71L100.491 22.318L100.505 21.94C100.533 20.9787 100.79 20.1807 101.275 19.546C101.77 18.902 102.512 18.58 103.501 18.58C104.481 18.58 105.246 18.9393 105.797 19.658V19.056C105.797 18.9627 105.825 18.8833 105.881 18.818C105.946 18.7527 106.026 18.72 106.119 18.72H106.721C106.814 18.72 106.889 18.7527 106.945 18.818C107.01 18.8833 107.043 18.9627 107.043 19.056V25.846C107.043 28.002 105.956 29.08 103.781 29.08ZM103.753 24.978C104.406 24.978 104.896 24.768 105.223 24.348C105.559 23.9187 105.741 23.4053 105.769 22.808C105.778 22.724 105.783 22.5607 105.783 22.318C105.783 22.0847 105.778 21.926 105.769 21.842C105.741 21.2447 105.559 20.736 105.223 20.316C104.896 19.8867 104.406 19.672 103.753 19.672C103.081 19.672 102.591 19.8867 102.283 20.316C101.984 20.736 101.821 21.282 101.793 21.954L101.779 22.318L101.793 22.696C101.821 23.368 101.984 23.9187 102.283 24.348C102.591 24.768 103.081 24.978 103.753 24.978Z" fill="black"/>
<path d="M111.169 26.14C110.712 26.14 110.287 26.0467 109.895 25.86C109.512 25.6733 109.204 25.4213 108.971 25.104C108.747 24.7773 108.635 24.418 108.635 24.026C108.635 23.41 108.887 22.906 109.391 22.514C109.895 22.122 110.581 21.8607 111.449 21.73L113.549 21.436V21.03C113.549 20.0687 112.994 19.588 111.883 19.588C111.454 19.588 111.108 19.6767 110.847 19.854C110.586 20.022 110.394 20.2227 110.273 20.456C110.236 20.5493 110.194 20.6147 110.147 20.652C110.11 20.68 110.054 20.694 109.979 20.694H109.433C109.349 20.694 109.274 20.666 109.209 20.61C109.153 20.5447 109.125 20.47 109.125 20.386C109.125 20.1713 109.223 19.924 109.419 19.644C109.624 19.3547 109.937 19.1073 110.357 18.902C110.777 18.6873 111.29 18.58 111.897 18.58C112.942 18.58 113.689 18.8227 114.137 19.308C114.594 19.7933 114.823 20.4 114.823 21.128V25.678C114.823 25.7713 114.79 25.8507 114.725 25.916C114.669 25.972 114.594 26 114.501 26H113.885C113.792 26 113.717 25.972 113.661 25.916C113.605 25.8507 113.577 25.7713 113.577 25.678V25.062C113.372 25.37 113.073 25.6267 112.681 25.832C112.289 26.0373 111.785 26.14 111.169 26.14ZM111.449 25.118C112.065 25.118 112.569 24.9173 112.961 24.516C113.353 24.1147 113.549 23.5313 113.549 22.766V22.374L111.911 22.612C111.239 22.7053 110.73 22.864 110.385 23.088C110.04 23.312 109.867 23.592 109.867 23.928C109.867 24.3107 110.021 24.6047 110.329 24.81C110.646 25.0153 111.02 25.118 111.449 25.118Z" fill="black"/>
<path d="M117.06 17.348C116.967 17.348 116.888 17.32 116.822 17.264C116.766 17.1987 116.738 17.1193 116.738 17.026V16.298C116.738 16.2047 116.766 16.1253 116.822 16.06C116.888 15.9947 116.967 15.962 117.06 15.962H117.886C117.98 15.962 118.059 15.9947 118.124 16.06C118.19 16.1253 118.222 16.2047 118.222 16.298V17.026C118.222 17.1193 118.19 17.1987 118.124 17.264C118.059 17.32 117.98 17.348 117.886 17.348H117.06ZM117.172 26C117.079 26 117 25.972 116.934 25.916C116.878 25.8507 116.85 25.7713 116.85 25.678V19.042C116.85 18.9487 116.878 18.874 116.934 18.818C117 18.7527 117.079 18.72 117.172 18.72H117.788C117.882 18.72 117.956 18.7527 118.012 18.818C118.078 18.874 118.11 18.9487 118.11 19.042V25.678C118.11 25.7713 118.078 25.8507 118.012 25.916C117.956 25.972 117.882 26 117.788 26H117.172Z" fill="black"/>
<path d="M120.536 26C120.442 26 120.363 25.972 120.298 25.916C120.242 25.8507 120.214 25.7713 120.214 25.678V19.042C120.214 18.9487 120.242 18.874 120.298 18.818C120.363 18.7527 120.442 18.72 120.536 18.72H121.138C121.24 18.72 121.32 18.748 121.376 18.804C121.432 18.86 121.46 18.9393 121.46 19.042V19.658C121.74 19.3127 122.062 19.0467 122.426 18.86C122.799 18.6733 123.261 18.58 123.812 18.58C124.708 18.58 125.403 18.8693 125.898 19.448C126.392 20.0173 126.64 20.7733 126.64 21.716V25.678C126.64 25.7713 126.607 25.8507 126.542 25.916C126.486 25.972 126.411 26 126.318 26H125.674C125.58 26 125.501 25.972 125.436 25.916C125.38 25.8507 125.352 25.7713 125.352 25.678V21.8C125.352 21.128 125.188 20.6053 124.862 20.232C124.535 19.8587 124.068 19.672 123.462 19.672C122.864 19.672 122.388 19.8633 122.034 20.246C121.679 20.6193 121.502 21.1373 121.502 21.8V25.678C121.502 25.7713 121.469 25.8507 121.404 25.916C121.348 25.972 121.273 26 121.18 26H120.536Z" fill="black"/>
<path d="M131.155 26.14C130.511 26.14 129.965 26.0373 129.517 25.832C129.078 25.6173 128.752 25.3747 128.537 25.104C128.322 24.8333 128.215 24.6093 128.215 24.432C128.215 24.3387 128.248 24.2687 128.313 24.222C128.378 24.166 128.448 24.138 128.523 24.138H129.111C129.167 24.138 129.209 24.1473 129.237 24.166C129.274 24.1847 129.321 24.2267 129.377 24.292C129.592 24.5533 129.83 24.7587 130.091 24.908C130.362 25.0573 130.721 25.132 131.169 25.132C131.673 25.132 132.074 25.0387 132.373 24.852C132.681 24.6653 132.835 24.3947 132.835 24.04C132.835 23.8067 132.77 23.62 132.639 23.48C132.508 23.34 132.289 23.214 131.981 23.102C131.682 22.99 131.234 22.8687 130.637 22.738C129.825 22.5607 129.251 22.304 128.915 21.968C128.579 21.632 128.411 21.198 128.411 20.666C128.411 20.3207 128.514 19.9893 128.719 19.672C128.924 19.3453 129.228 19.084 129.629 18.888C130.04 18.6827 130.525 18.58 131.085 18.58C131.673 18.58 132.172 18.678 132.583 18.874C133.003 19.07 133.316 19.2987 133.521 19.56C133.736 19.8213 133.843 20.0407 133.843 20.218C133.843 20.302 133.81 20.372 133.745 20.428C133.689 20.484 133.619 20.512 133.535 20.512H133.003C132.872 20.512 132.779 20.4607 132.723 20.358C132.564 20.1807 132.429 20.0453 132.317 19.952C132.214 19.8493 132.06 19.7653 131.855 19.7C131.65 19.6253 131.393 19.588 131.085 19.588C130.628 19.588 130.278 19.686 130.035 19.882C129.792 20.0687 129.671 20.3207 129.671 20.638C129.671 20.834 129.722 21.002 129.825 21.142C129.928 21.2727 130.124 21.3987 130.413 21.52C130.702 21.632 131.132 21.7487 131.701 21.87C132.588 22.0567 133.213 22.3227 133.577 22.668C133.95 23.0133 134.137 23.4567 134.137 23.998C134.137 24.3993 134.02 24.7633 133.787 25.09C133.563 25.4167 133.222 25.6733 132.765 25.86C132.317 26.0467 131.78 26.14 131.155 26.14Z" fill="black"/>
<path d="M138.559 26C137.112 26 136.389 25.1833 136.389 23.55V19.798H135.283C135.189 19.798 135.115 19.77 135.059 19.714C135.003 19.658 134.975 19.5833 134.975 19.49V19.042C134.975 18.9487 135.003 18.874 135.059 18.818C135.115 18.7527 135.189 18.72 135.283 18.72H136.389V16.382C136.389 16.2887 136.417 16.214 136.473 16.158C136.529 16.0927 136.603 16.06 136.697 16.06H137.313C137.406 16.06 137.481 16.0927 137.537 16.158C137.602 16.214 137.635 16.2887 137.635 16.382V18.72H139.371C139.464 18.72 139.539 18.7527 139.595 18.818C139.66 18.874 139.693 18.9487 139.693 19.042V19.49C139.693 19.5833 139.66 19.658 139.595 19.714C139.539 19.77 139.464 19.798 139.371 19.798H137.635V23.452C137.635 23.928 137.709 24.2873 137.859 24.53C138.017 24.7727 138.283 24.894 138.657 24.894H139.511C139.604 24.894 139.679 24.9267 139.735 24.992C139.791 25.048 139.819 25.1227 139.819 25.216V25.678C139.819 25.7713 139.791 25.8507 139.735 25.916C139.679 25.972 139.604 26 139.511 26H138.559Z" fill="black"/>
<path d="M23.94 47.14C23.296 47.14 22.75 47.0373 22.302 46.832C21.8633 46.6173 21.5367 46.3747 21.322 46.104C21.1073 45.8333 21 45.6093 21 45.432C21 45.3387 21.0327 45.2687 21.098 45.222C21.1633 45.166 21.2333 45.138 21.308 45.138H21.896C21.952 45.138 21.994 45.1473 22.022 45.166C22.0593 45.1847 22.106 45.2267 22.162 45.292C22.3767 45.5533 22.6147 45.7587 22.876 45.908C23.1467 46.0573 23.506 46.132 23.954 46.132C24.458 46.132 24.8593 46.0387 25.158 45.852C25.466 45.6653 25.62 45.3947 25.62 45.04C25.62 44.8067 25.5547 44.62 25.424 44.48C25.2933 44.34 25.074 44.214 24.766 44.102C24.4673 43.99 24.0193 43.8687 23.422 43.738C22.61 43.5607 22.036 43.304 21.7 42.968C21.364 42.632 21.196 42.198 21.196 41.666C21.196 41.3207 21.2987 40.9893 21.504 40.672C21.7093 40.3453 22.0127 40.084 22.414 39.888C22.8247 39.6827 23.31 39.58 23.87 39.58C24.458 39.58 24.9573 39.678 25.368 39.874C25.788 40.07 26.1007 40.2987 26.306 40.56C26.5207 40.8213 26.628 41.0407 26.628 41.218C26.628 41.302 26.5953 41.372 26.53 41.428C26.474 41.484 26.404 41.512 26.32 41.512H25.788C25.6573 41.512 25.564 41.4607 25.508 41.358C25.3493 41.1807 25.214 41.0453 25.102 40.952C24.9993 40.8493 24.8453 40.7653 24.64 40.7C24.4347 40.6253 24.178 40.588 23.87 40.588C23.4127 40.588 23.0627 40.686 22.82 40.882C22.5773 41.0687 22.456 41.3207 22.456 41.638C22.456 41.834 22.5073 42.002 22.61 42.142C22.7127 42.2727 22.9087 42.3987 23.198 42.52C23.4873 42.632 23.9167 42.7487 24.486 42.87C25.3727 43.0567 25.998 43.3227 26.362 43.668C26.7353 44.0133 26.922 44.4567 26.922 44.998C26.922 45.3993 26.8053 45.7633 26.572 46.09C26.348 46.4167 26.0073 46.6733 25.55 46.86C25.102 47.0467 24.5653 47.14 23.94 47.14Z" fill="black"/>
<path d="M31.5114 47.14C30.4847 47.14 29.6914 46.8507 29.1314 46.272C28.5807 45.6933 28.2867 44.9233 28.2494 43.962L28.2354 43.36L28.2494 42.758C28.2867 41.7967 28.5854 41.0267 29.1454 40.448C29.7147 39.8693 30.5034 39.58 31.5114 39.58C32.5194 39.58 33.3034 39.8693 33.8634 40.448C34.4327 41.0267 34.736 41.7967 34.7734 42.758C34.792 42.9633 34.8014 43.164 34.8014 43.36C34.8014 43.556 34.792 43.7567 34.7734 43.962C34.736 44.9233 34.4374 45.6933 33.8774 46.272C33.3267 46.8507 32.538 47.14 31.5114 47.14ZM31.5114 46.09C32.1087 46.09 32.58 45.9033 32.9254 45.53C33.28 45.1473 33.4714 44.6013 33.4994 43.892C33.5087 43.7987 33.5134 43.6213 33.5134 43.36C33.5134 43.0987 33.5087 42.9213 33.4994 42.828C33.4714 42.1187 33.28 41.5773 32.9254 41.204C32.58 40.8213 32.1087 40.63 31.5114 40.63C30.914 40.63 30.438 40.8213 30.0834 41.204C29.738 41.5773 29.5514 42.1187 29.5234 42.828L29.5094 43.36L29.5234 43.892C29.5514 44.6013 29.738 45.1473 30.0834 45.53C30.438 45.9033 30.914 46.09 31.5114 46.09Z" fill="black"/>
<path d="M38.5851 47.14C38.1278 47.14 37.7031 47.0467 37.3111 46.86C36.9284 46.6733 36.6204 46.4213 36.3871 46.104C36.1631 45.7773 36.0511 45.418 36.0511 45.026C36.0511 44.41 36.3031 43.906 36.8071 43.514C37.3111 43.122 37.9971 42.8607 38.8651 42.73L40.9651 42.436V42.03C40.9651 41.0687 40.4098 40.588 39.2991 40.588C38.8698 40.588 38.5244 40.6767 38.2631 40.854C38.0018 41.022 37.8104 41.2227 37.6891 41.456C37.6518 41.5493 37.6098 41.6147 37.5631 41.652C37.5258 41.68 37.4698 41.694 37.3951 41.694H36.8491C36.7651 41.694 36.6904 41.666 36.6251 41.61C36.5691 41.5447 36.5411 41.47 36.5411 41.386C36.5411 41.1713 36.6391 40.924 36.8351 40.644C37.0404 40.3547 37.3531 40.1073 37.7731 39.902C38.1931 39.6873 38.7064 39.58 39.3131 39.58C40.3584 39.58 41.1051 39.8227 41.5531 40.308C42.0104 40.7933 42.2391 41.4 42.2391 42.128V46.678C42.2391 46.7713 42.2064 46.8507 42.1411 46.916C42.0851 46.972 42.0104 47 41.9171 47H41.3011C41.2078 47 41.1331 46.972 41.0771 46.916C41.0211 46.8507 40.9931 46.7713 40.9931 46.678V46.062C40.7878 46.37 40.4891 46.6267 40.0971 46.832C39.7051 47.0373 39.2011 47.14 38.5851 47.14ZM38.8651 46.118C39.4811 46.118 39.9851 45.9173 40.3771 45.516C40.7691 45.1147 40.9651 44.5313 40.9651 43.766V43.374L39.3271 43.612C38.6551 43.7053 38.1464 43.864 37.8011 44.088C37.4558 44.312 37.2831 44.592 37.2831 44.928C37.2831 45.3107 37.4371 45.6047 37.7451 45.81C38.0624 46.0153 38.4358 46.118 38.8651 46.118Z" fill="black"/>
<path d="M44.5884 47C44.495 47 44.4157 46.972 44.3504 46.916C44.2944 46.8507 44.2664 46.7713 44.2664 46.678V40.056C44.2664 39.9627 44.2944 39.8833 44.3504 39.818C44.4157 39.7527 44.495 39.72 44.5884 39.72H45.1764C45.279 39.72 45.3584 39.7527 45.4144 39.818C45.4797 39.874 45.5124 39.9533 45.5124 40.056V40.672C45.895 40.0373 46.5437 39.72 47.4584 39.72H48.0044C48.107 39.72 48.1864 39.748 48.2424 39.804C48.2984 39.86 48.3264 39.9393 48.3264 40.042V40.56C48.3264 40.6533 48.2984 40.7327 48.2424 40.798C48.1864 40.854 48.107 40.882 48.0044 40.882H47.2064C46.693 40.882 46.287 41.0313 45.9884 41.33C45.699 41.6287 45.5544 42.0347 45.5544 42.548V46.678C45.5544 46.7713 45.5217 46.8507 45.4564 46.916C45.391 46.972 45.3117 47 45.2184 47H44.5884Z" fill="black"/>
<path d="M49.74 38.348C49.6467 38.348 49.5674 38.32 49.502 38.264C49.446 38.1987 49.418 38.1193 49.418 38.026V37.298C49.418 37.2047 49.446 37.1253 49.502 37.06C49.5674 36.9947 49.6467 36.962 49.74 36.962H50.566C50.6594 36.962 50.7387 36.9947 50.804 37.06C50.8694 37.1253 50.902 37.2047 50.902 37.298V38.026C50.902 38.1193 50.8694 38.1987 50.804 38.264C50.7387 38.32 50.6594 38.348 50.566 38.348H49.74ZM49.852 47C49.7587 47 49.6794 46.972 49.614 46.916C49.558 46.8507 49.53 46.7713 49.53 46.678V40.042C49.53 39.9487 49.558 39.874 49.614 39.818C49.6794 39.7527 49.7587 39.72 49.852 39.72H50.468C50.5614 39.72 50.636 39.7527 50.692 39.818C50.7574 39.874 50.79 39.9487 50.79 40.042V46.678C50.79 46.7713 50.7574 46.8507 50.692 46.916C50.636 46.972 50.5614 47 50.468 47H49.852Z" fill="black"/>
<path d="M53.2153 47C53.122 47 53.0426 46.972 52.9773 46.916C52.9213 46.8507 52.8933 46.7713 52.8933 46.678V40.042C52.8933 39.9487 52.9213 39.874 52.9773 39.818C53.0426 39.7527 53.122 39.72 53.2153 39.72H53.8173C53.92 39.72 53.9993 39.748 54.0553 39.804C54.1113 39.86 54.1393 39.9393 54.1393 40.042V40.658C54.4193 40.3127 54.7413 40.0467 55.1053 39.86C55.4786 39.6733 55.9406 39.58 56.4913 39.58C57.3873 39.58 58.0826 39.8693 58.5773 40.448C59.072 41.0173 59.3193 41.7733 59.3193 42.716V46.678C59.3193 46.7713 59.2866 46.8507 59.2213 46.916C59.1653 46.972 59.0906 47 58.9973 47H58.3533C58.26 47 58.1806 46.972 58.1153 46.916C58.0593 46.8507 58.0313 46.7713 58.0313 46.678V42.8C58.0313 42.128 57.868 41.6053 57.5413 41.232C57.2146 40.8587 56.748 40.672 56.1413 40.672C55.544 40.672 55.068 40.8633 54.7133 41.246C54.3586 41.6193 54.1813 42.1373 54.1813 42.8V46.678C54.1813 46.7713 54.1486 46.8507 54.0833 46.916C54.0273 46.972 53.9526 47 53.8593 47H53.2153Z" fill="black"/>
<path d="M64.2965 50.08C63.5219 50.08 62.9012 49.9493 62.4345 49.688C61.9679 49.4267 61.6365 49.128 61.4405 48.792C61.2539 48.456 61.1605 48.1667 61.1605 47.924C61.1605 47.84 61.1932 47.7653 61.2585 47.7C61.3239 47.644 61.3985 47.616 61.4825 47.616H62.0985C62.1825 47.616 62.2525 47.6347 62.3085 47.672C62.3645 47.7187 62.4112 47.798 62.4485 47.91C62.7099 48.6567 63.3025 49.03 64.2265 49.03C64.9265 49.03 65.4445 48.8807 65.7805 48.582C66.1165 48.2833 66.2845 47.756 66.2845 47V46.034C65.7432 46.7247 64.9872 47.07 64.0165 47.07C63.0272 47.07 62.2852 46.7527 61.7905 46.118C61.3052 45.4833 61.0485 44.6807 61.0205 43.71L61.0065 43.318L61.0205 42.94C61.0485 41.9787 61.3052 41.1807 61.7905 40.546C62.2852 39.902 63.0272 39.58 64.0165 39.58C64.9965 39.58 65.7619 39.9393 66.3125 40.658V40.056C66.3125 39.9627 66.3405 39.8833 66.3965 39.818C66.4619 39.7527 66.5412 39.72 66.6345 39.72H67.2365C67.3299 39.72 67.4045 39.7527 67.4605 39.818C67.5259 39.8833 67.5585 39.9627 67.5585 40.056V46.846C67.5585 49.002 66.4712 50.08 64.2965 50.08ZM64.2685 45.978C64.9219 45.978 65.4119 45.768 65.7385 45.348C66.0745 44.9187 66.2565 44.4053 66.2845 43.808C66.2939 43.724 66.2985 43.5607 66.2985 43.318C66.2985 43.0847 66.2939 42.926 66.2845 42.842C66.2565 42.2447 66.0745 41.736 65.7385 41.316C65.4119 40.8867 64.9219 40.672 64.2685 40.672C63.5965 40.672 63.1065 40.8867 62.7985 41.316C62.4999 41.736 62.3365 42.282 62.3085 42.954L62.2945 43.318L62.3085 43.696C62.3365 44.368 62.4999 44.9187 62.7985 45.348C63.1065 45.768 63.5965 45.978 64.2685 45.978Z" fill="black"/>
<path d="M73.436 47C73.3427 47 73.2633 46.972 73.198 46.916C73.142 46.8507 73.114 46.7713 73.114 46.678V40.042C73.114 39.9487 73.142 39.874 73.198 39.818C73.2633 39.7527 73.3427 39.72 73.436 39.72H74.024C74.1173 39.72 74.192 39.7527 74.248 39.818C74.304 39.874 74.332 39.9487 74.332 40.042V40.518C74.836 39.8927 75.5173 39.58 76.376 39.58C77.4027 39.58 78.1307 40.0093 78.56 40.868C78.784 40.476 79.1013 40.1633 79.512 39.93C79.932 39.6967 80.3987 39.58 80.912 39.58C81.6773 39.58 82.3027 39.8413 82.788 40.364C83.2733 40.8867 83.516 41.6427 83.516 42.632V46.678C83.516 46.7713 83.4833 46.8507 83.418 46.916C83.362 46.972 83.2873 47 83.194 47H82.592C82.4987 47 82.4193 46.972 82.354 46.916C82.298 46.8507 82.27 46.7713 82.27 46.678V42.758C82.27 42.0113 82.116 41.4793 81.808 41.162C81.5 40.8353 81.094 40.672 80.59 40.672C80.142 40.672 79.7547 40.84 79.428 41.176C79.1107 41.5027 78.952 42.03 78.952 42.758V46.678C78.952 46.7713 78.9193 46.8507 78.854 46.916C78.798 46.972 78.7234 47 78.63 47H78.014C77.9207 47 77.8414 46.972 77.776 46.916C77.72 46.8507 77.692 46.7713 77.692 46.678V42.758C77.692 42.0207 77.5287 41.4887 77.202 41.162C76.8847 40.8353 76.488 40.672 76.012 40.672C75.564 40.672 75.1767 40.8353 74.85 41.162C74.5327 41.4887 74.374 42.016 74.374 42.744V46.678C74.374 46.7713 74.3414 46.8507 74.276 46.916C74.22 46.972 74.1453 47 74.052 47H73.436Z" fill="black"/>
<path d="M88.4258 47.14C87.4737 47.14 86.7131 46.846 86.1438 46.258C85.5744 45.6607 85.2617 44.8487 85.2057 43.822L85.1917 43.346L85.2057 42.884C85.2617 41.876 85.5744 41.0733 86.1438 40.476C86.7131 39.8787 87.4737 39.58 88.4258 39.58C89.4524 39.58 90.2458 39.9067 90.8058 40.56C91.3751 41.2133 91.6598 42.1 91.6598 43.22V43.472C91.6598 43.5653 91.6271 43.6447 91.5618 43.71C91.5058 43.766 91.4311 43.794 91.3378 43.794H86.4798V43.92C86.5078 44.5267 86.6944 45.0447 87.0397 45.474C87.3851 45.9033 87.8424 46.118 88.4118 46.118C88.8504 46.118 89.2051 46.034 89.4758 45.866C89.7558 45.6887 89.9658 45.5067 90.1058 45.32C90.1898 45.208 90.2551 45.1427 90.3018 45.124C90.3484 45.096 90.4277 45.082 90.5397 45.082H91.1558C91.2398 45.082 91.3098 45.1053 91.3658 45.152C91.4311 45.1987 91.4638 45.2593 91.4638 45.334C91.4638 45.5393 91.3378 45.7867 91.0858 46.076C90.8338 46.3653 90.4744 46.6173 90.0078 46.832C89.5504 47.0373 89.0231 47.14 88.4258 47.14ZM90.3857 42.842V42.8C90.3857 42.1467 90.2084 41.6147 89.8538 41.204C89.4991 40.7933 89.0231 40.588 88.4258 40.588C87.8191 40.588 87.3431 40.7933 86.9977 41.204C86.6524 41.6147 86.4798 42.1467 86.4798 42.8V42.842H90.3857Z" fill="black"/>
<path d="M96.0221 47.14C95.0421 47.14 94.3047 46.8227 93.8101 46.188C93.3247 45.5533 93.0634 44.7507 93.0261 43.78L93.0121 43.36L93.0261 42.94C93.0634 41.9787 93.3294 41.1807 93.8241 40.546C94.3187 39.902 95.0514 39.58 96.0221 39.58C96.9927 39.58 97.7487 39.9253 98.2901 40.616V37.382C98.2901 37.2887 98.3181 37.214 98.3741 37.158C98.4394 37.0927 98.5187 37.06 98.6121 37.06H99.2421C99.3354 37.06 99.4101 37.0927 99.4661 37.158C99.5314 37.214 99.5641 37.2887 99.5641 37.382V46.678C99.5641 46.7713 99.5314 46.8507 99.4661 46.916C99.4101 46.972 99.3354 47 99.2421 47H98.6401C98.5467 47 98.4721 46.972 98.4161 46.916C98.3601 46.8507 98.3321 46.7713 98.3321 46.678V46.076C97.8001 46.7853 97.0301 47.14 96.0221 47.14ZM96.2881 46.048C96.9414 46.048 97.4314 45.8333 97.7581 45.404C98.0847 44.9653 98.2621 44.4473 98.2901 43.85C98.2994 43.7473 98.3041 43.57 98.3041 43.318C98.3041 43.0567 98.2994 42.8747 98.2901 42.772C98.2714 42.2027 98.0894 41.7127 97.7441 41.302C97.4081 40.882 96.9227 40.672 96.2881 40.672C95.6161 40.672 95.1261 40.882 94.8181 41.302C94.5101 41.722 94.3421 42.2727 94.3141 42.954L94.3001 43.36C94.3001 45.152 94.9627 46.048 96.2881 46.048Z" fill="black"/>
<path d="M101.885 38.348C101.791 38.348 101.712 38.32 101.647 38.264C101.591 38.1987 101.563 38.1193 101.563 38.026V37.298C101.563 37.2047 101.591 37.1253 101.647 37.06C101.712 36.9947 101.791 36.962 101.885 36.962H102.711C102.804 36.962 102.883 36.9947 102.949 37.06C103.014 37.1253 103.047 37.2047 103.047 37.298V38.026C103.047 38.1193 103.014 38.1987 102.949 38.264C102.883 38.32 102.804 38.348 102.711 38.348H101.885ZM101.997 47C101.903 47 101.824 46.972 101.759 46.916C101.703 46.8507 101.675 46.7713 101.675 46.678V40.042C101.675 39.9487 101.703 39.874 101.759 39.818C101.824 39.7527 101.903 39.72 101.997 39.72H102.613C102.706 39.72 102.781 39.7527 102.837 39.818C102.902 39.874 102.935 39.9487 102.935 40.042V46.678C102.935 46.7713 102.902 46.8507 102.837 46.916C102.781 46.972 102.706 47 102.613 47H101.997Z" fill="black"/>
<path d="M107.95 47.14C106.951 47.14 106.172 46.86 105.612 46.3C105.052 45.7307 104.758 44.9373 104.73 43.92L104.716 43.36L104.73 42.8C104.758 41.7827 105.052 40.994 105.612 40.434C106.172 39.8647 106.951 39.58 107.95 39.58C108.622 39.58 109.187 39.7013 109.644 39.944C110.111 40.1773 110.456 40.4713 110.68 40.826C110.913 41.1807 111.039 41.5353 111.058 41.89C111.067 41.974 111.035 42.0487 110.96 42.114C110.895 42.1793 110.82 42.212 110.736 42.212H110.12C110.027 42.212 109.957 42.1933 109.91 42.156C109.863 42.1093 109.817 42.03 109.77 41.918C109.602 41.4607 109.369 41.1387 109.07 40.952C108.781 40.756 108.412 40.658 107.964 40.658C107.376 40.658 106.909 40.84 106.564 41.204C106.219 41.568 106.032 42.1233 106.004 42.87L105.99 43.36L106.004 43.85C106.032 44.5967 106.219 45.152 106.564 45.516C106.909 45.88 107.376 46.062 107.964 46.062C108.421 46.062 108.795 45.9687 109.084 45.782C109.373 45.586 109.602 45.2593 109.77 44.802C109.817 44.69 109.863 44.6153 109.91 44.578C109.957 44.5313 110.027 44.508 110.12 44.508H110.736C110.82 44.508 110.895 44.5407 110.96 44.606C111.035 44.6713 111.067 44.746 111.058 44.83C111.039 45.1753 110.913 45.5253 110.68 45.88C110.456 46.2347 110.111 46.5333 109.644 46.776C109.187 47.0187 108.622 47.14 107.95 47.14Z" fill="black"/>
<path d="M114.751 47.14C114.294 47.14 113.869 47.0467 113.477 46.86C113.094 46.6733 112.786 46.4213 112.553 46.104C112.329 45.7773 112.217 45.418 112.217 45.026C112.217 44.41 112.469 43.906 112.973 43.514C113.477 43.122 114.163 42.8607 115.031 42.73L117.131 42.436V42.03C117.131 41.0687 116.576 40.588 115.465 40.588C115.036 40.588 114.69 40.6767 114.429 40.854C114.168 41.022 113.976 41.2227 113.855 41.456C113.818 41.5493 113.776 41.6147 113.729 41.652C113.692 41.68 113.636 41.694 113.561 41.694H113.015C112.931 41.694 112.856 41.666 112.791 41.61C112.735 41.5447 112.707 41.47 112.707 41.386C112.707 41.1713 112.805 40.924 113.001 40.644C113.206 40.3547 113.519 40.1073 113.939 39.902C114.359 39.6873 114.872 39.58 115.479 39.58C116.524 39.58 117.271 39.8227 117.719 40.308C118.176 40.7933 118.405 41.4 118.405 42.128V46.678C118.405 46.7713 118.372 46.8507 118.307 46.916C118.251 46.972 118.176 47 118.083 47H117.467C117.374 47 117.299 46.972 117.243 46.916C117.187 46.8507 117.159 46.7713 117.159 46.678V46.062C116.954 46.37 116.655 46.6267 116.263 46.832C115.871 47.0373 115.367 47.14 114.751 47.14ZM115.031 46.118C115.647 46.118 116.151 45.9173 116.543 45.516C116.935 45.1147 117.131 44.5313 117.131 43.766V43.374L115.493 43.612C114.821 43.7053 114.312 43.864 113.967 44.088C113.622 44.312 113.449 44.592 113.449 44.928C113.449 45.3107 113.603 45.6047 113.911 45.81C114.228 46.0153 114.602 46.118 115.031 46.118Z" fill="black"/>
<path d="M120.768 47C120.675 47 120.596 46.972 120.53 46.916C120.474 46.8507 120.446 46.7713 120.446 46.678V37.382C120.446 37.2793 120.474 37.2 120.53 37.144C120.596 37.088 120.675 37.06 120.768 37.06H121.384C121.478 37.06 121.552 37.0927 121.608 37.158C121.674 37.214 121.706 37.2887 121.706 37.382V46.678C121.706 46.7713 121.674 46.8507 121.608 46.916C121.552 46.972 121.478 47 121.384 47H120.768Z" fill="black"/>
<path d="M24.332 68.14C23.38 68.14 22.6193 67.846 22.05 67.258C21.4807 66.6607 21.168 65.8487 21.112 64.822L21.098 64.346L21.112 63.884C21.168 62.876 21.4807 62.0733 22.05 61.476C22.6193 60.8787 23.38 60.58 24.332 60.58C25.3587 60.58 26.152 60.9067 26.712 61.56C27.2813 62.2133 27.566 63.1 27.566 64.22V64.472C27.566 64.5653 27.5333 64.6447 27.468 64.71C27.412 64.766 27.3373 64.794 27.244 64.794H22.386V64.92C22.414 65.5267 22.6007 66.0447 22.946 66.474C23.2913 66.9033 23.7487 67.118 24.318 67.118C24.7567 67.118 25.1113 67.034 25.382 66.866C25.662 66.6887 25.872 66.5067 26.012 66.32C26.096 66.208 26.1613 66.1427 26.208 66.124C26.2547 66.096 26.334 66.082 26.446 66.082H27.062C27.146 66.082 27.216 66.1053 27.272 66.152C27.3373 66.1987 27.37 66.2593 27.37 66.334C27.37 66.5393 27.244 66.7867 26.992 67.076C26.74 67.3653 26.3807 67.6173 25.914 67.832C25.4567 68.0373 24.9293 68.14 24.332 68.14ZM26.292 63.842V63.8C26.292 63.1467 26.1147 62.6147 25.76 62.204C25.4053 61.7933 24.9293 61.588 24.332 61.588C23.7253 61.588 23.2493 61.7933 22.904 62.204C22.5587 62.6147 22.386 63.1467 22.386 63.8V63.842H26.292Z" fill="black"/>
<path d="M28.7819 68C28.6979 68 28.6279 67.972 28.5719 67.916C28.5159 67.86 28.4879 67.79 28.4879 67.706C28.4879 67.622 28.5206 67.5333 28.5859 67.44L31.0219 64.276L28.7399 61.266C28.6653 61.1633 28.6279 61.0793 28.6279 61.014C28.6279 60.93 28.6559 60.86 28.7119 60.804C28.7773 60.748 28.8473 60.72 28.9219 60.72H29.5939C29.7339 60.72 29.8553 60.7947 29.9579 60.944L31.8479 63.394L33.7379 60.944C33.7939 60.8693 33.8453 60.8133 33.8919 60.776C33.9479 60.7387 34.0179 60.72 34.1019 60.72H34.7459C34.8206 60.72 34.8859 60.748 34.9419 60.804C34.9979 60.86 35.0259 60.9253 35.0259 61C35.0259 61.0933 34.9933 61.182 34.9279 61.266L32.6179 64.304L35.0539 67.44C35.1193 67.5333 35.1519 67.622 35.1519 67.706C35.1519 67.79 35.1239 67.86 35.0679 67.916C35.0119 67.972 34.9419 68 34.8579 68H34.1719C34.0319 68 33.9106 67.93 33.8079 67.79L31.8059 65.2L29.8039 67.79C29.7479 67.8553 29.6919 67.9067 29.6359 67.944C29.5893 67.9813 29.5239 68 29.4399 68H28.7819Z" fill="black"/>
<path d="M36.9735 70.66C36.8801 70.66 36.8008 70.632 36.7355 70.576C36.6795 70.52 36.6515 70.4407 36.6515 70.338V61.042C36.6515 60.9393 36.6795 60.86 36.7355 60.804C36.8008 60.748 36.8801 60.72 36.9735 60.72H37.5615C37.6641 60.72 37.7435 60.748 37.7995 60.804C37.8555 60.86 37.8835 60.9393 37.8835 61.042V61.658C38.4248 60.9393 39.1948 60.58 40.1935 60.58C41.1735 60.58 41.9061 60.8927 42.3915 61.518C42.8861 62.134 43.1475 62.9227 43.1755 63.884C43.1848 63.9867 43.1895 64.1453 43.1895 64.36C43.1895 64.5747 43.1848 64.7333 43.1755 64.836C43.1475 65.788 42.8861 66.5767 42.3915 67.202C41.9061 67.8273 41.1735 68.14 40.1935 68.14C39.1948 68.14 38.4388 67.7853 37.9255 67.076V70.338C37.9255 70.4313 37.8928 70.506 37.8275 70.562C37.7715 70.6273 37.6968 70.66 37.6035 70.66H36.9735ZM39.9275 67.048C40.5995 67.048 41.0895 66.838 41.3975 66.418C41.7055 65.998 41.8735 65.4473 41.9015 64.766C41.9108 64.6727 41.9155 64.5373 41.9155 64.36C41.9155 62.568 41.2528 61.672 39.9275 61.672C39.2741 61.672 38.7795 61.8913 38.4435 62.33C38.1168 62.7593 37.9441 63.268 37.9255 63.856C37.9161 63.9587 37.9115 64.1407 37.9115 64.402C37.9115 64.6633 37.9161 64.8453 37.9255 64.948C37.9441 65.5173 38.1215 66.012 38.4575 66.432C38.8028 66.8427 39.2928 67.048 39.9275 67.048Z" fill="black"/>
<path d="M47.834 68.14C46.882 68.14 46.1213 67.846 45.552 67.258C44.9826 66.6607 44.67 65.8487 44.614 64.822L44.6 64.346L44.614 63.884C44.67 62.876 44.9826 62.0733 45.552 61.476C46.1213 60.8787 46.882 60.58 47.834 60.58C48.8606 60.58 49.654 60.9067 50.214 61.56C50.7833 62.2133 51.068 63.1 51.068 64.22V64.472C51.068 64.5653 51.0353 64.6447 50.97 64.71C50.914 64.766 50.8393 64.794 50.746 64.794H45.888V64.92C45.916 65.5267 46.1026 66.0447 46.448 66.474C46.7933 66.9033 47.2506 67.118 47.82 67.118C48.2586 67.118 48.6133 67.034 48.884 66.866C49.164 66.6887 49.374 66.5067 49.514 66.32C49.598 66.208 49.6633 66.1427 49.71 66.124C49.7566 66.096 49.836 66.082 49.948 66.082H50.564C50.648 66.082 50.718 66.1053 50.774 66.152C50.8393 66.1987 50.872 66.2593 50.872 66.334C50.872 66.5393 50.746 66.7867 50.494 67.076C50.242 67.3653 49.8826 67.6173 49.416 67.832C48.9586 68.0373 48.4313 68.14 47.834 68.14ZM49.794 63.842V63.8C49.794 63.1467 49.6166 62.6147 49.262 62.204C48.9073 61.7933 48.4313 61.588 47.834 61.588C47.2273 61.588 46.7513 61.7933 46.406 62.204C46.0606 62.6147 45.888 63.1467 45.888 63.8V63.842H49.794Z" fill="black"/>
<path d="M53.0923 68C52.9989 68 52.9196 67.972 52.8543 67.916C52.7983 67.8507 52.7703 67.7713 52.7703 67.678V61.042C52.7703 60.9487 52.7983 60.874 52.8543 60.818C52.9196 60.7527 52.9989 60.72 53.0923 60.72H53.6943C53.7969 60.72 53.8763 60.748 53.9323 60.804C53.9883 60.86 54.0163 60.9393 54.0163 61.042V61.658C54.2963 61.3127 54.6183 61.0467 54.9823 60.86C55.3556 60.6733 55.8176 60.58 56.3683 60.58C57.2643 60.58 57.9596 60.8693 58.4543 61.448C58.9489 62.0173 59.1963 62.7733 59.1963 63.716V67.678C59.1963 67.7713 59.1636 67.8507 59.0983 67.916C59.0423 67.972 58.9676 68 58.8743 68H58.2303C58.1369 68 58.0576 67.972 57.9923 67.916C57.9363 67.8507 57.9083 67.7713 57.9083 67.678V63.8C57.9083 63.128 57.7449 62.6053 57.4183 62.232C57.0916 61.8587 56.6249 61.672 56.0183 61.672C55.4209 61.672 54.9449 61.8633 54.5903 62.246C54.2356 62.6193 54.0583 63.1373 54.0583 63.8V67.678C54.0583 67.7713 54.0256 67.8507 53.9603 67.916C53.9043 67.972 53.8296 68 53.7363 68H53.0923Z" fill="black"/>
<path d="M63.7115 68.14C63.0675 68.14 62.5215 68.0373 62.0735 67.832C61.6348 67.6173 61.3082 67.3747 61.0935 67.104C60.8788 66.8333 60.7715 66.6093 60.7715 66.432C60.7715 66.3387 60.8041 66.2687 60.8695 66.222C60.9348 66.166 61.0048 66.138 61.0795 66.138H61.6675C61.7235 66.138 61.7655 66.1473 61.7935 66.166C61.8308 66.1847 61.8775 66.2267 61.9335 66.292C62.1482 66.5533 62.3862 66.7587 62.6475 66.908C62.9182 67.0573 63.2775 67.132 63.7255 67.132C64.2295 67.132 64.6308 67.0387 64.9295 66.852C65.2375 66.6653 65.3915 66.3947 65.3915 66.04C65.3915 65.8067 65.3261 65.62 65.1955 65.48C65.0648 65.34 64.8455 65.214 64.5375 65.102C64.2388 64.99 63.7908 64.8687 63.1935 64.738C62.3815 64.5607 61.8075 64.304 61.4715 63.968C61.1355 63.632 60.9675 63.198 60.9675 62.666C60.9675 62.3207 61.0701 61.9893 61.2755 61.672C61.4808 61.3453 61.7841 61.084 62.1855 60.888C62.5961 60.6827 63.0815 60.58 63.6415 60.58C64.2295 60.58 64.7288 60.678 65.1395 60.874C65.5595 61.07 65.8722 61.2987 66.0775 61.56C66.2922 61.8213 66.3995 62.0407 66.3995 62.218C66.3995 62.302 66.3668 62.372 66.3015 62.428C66.2455 62.484 66.1755 62.512 66.0915 62.512H65.5595C65.4288 62.512 65.3355 62.4607 65.2795 62.358C65.1208 62.1807 64.9855 62.0453 64.8735 61.952C64.7708 61.8493 64.6168 61.7653 64.4115 61.7C64.2062 61.6253 63.9495 61.588 63.6415 61.588C63.1842 61.588 62.8342 61.686 62.5915 61.882C62.3488 62.0687 62.2275 62.3207 62.2275 62.638C62.2275 62.834 62.2788 63.002 62.3815 63.142C62.4841 63.2727 62.6801 63.3987 62.9695 63.52C63.2588 63.632 63.6882 63.7487 64.2575 63.87C65.1441 64.0567 65.7695 64.3227 66.1335 64.668C66.5068 65.0133 66.6935 65.4567 66.6935 65.998C66.6935 66.3993 66.5768 66.7633 66.3435 67.09C66.1195 67.4167 65.7788 67.6733 65.3215 67.86C64.8735 68.0467 64.3368 68.14 63.7115 68.14Z" fill="black"/>
<path d="M71.2129 68.14C70.2609 68.14 69.5002 67.846 68.9309 67.258C68.3615 66.6607 68.0489 65.8487 67.9929 64.822L67.9789 64.346L67.9929 63.884C68.0489 62.876 68.3615 62.0733 68.9309 61.476C69.5002 60.8787 70.2609 60.58 71.2129 60.58C72.2395 60.58 73.0329 60.9067 73.5929 61.56C74.1622 62.2133 74.4469 63.1 74.4469 64.22V64.472C74.4469 64.5653 74.4142 64.6447 74.3489 64.71C74.2929 64.766 74.2182 64.794 74.1249 64.794H69.2669V64.92C69.2949 65.5267 69.4815 66.0447 69.8269 66.474C70.1722 66.9033 70.6295 67.118 71.1989 67.118C71.6375 67.118 71.9922 67.034 72.2629 66.866C72.5429 66.6887 72.7529 66.5067 72.8929 66.32C72.9769 66.208 73.0422 66.1427 73.0889 66.124C73.1355 66.096 73.2149 66.082 73.3269 66.082H73.9429C74.0269 66.082 74.0969 66.1053 74.1529 66.152C74.2182 66.1987 74.2509 66.2593 74.2509 66.334C74.2509 66.5393 74.1249 66.7867 73.8729 67.076C73.6209 67.3653 73.2615 67.6173 72.7949 67.832C72.3375 68.0373 71.8102 68.14 71.2129 68.14ZM73.1729 63.842V63.8C73.1729 63.1467 72.9955 62.6147 72.6409 62.204C72.2862 61.7933 71.8102 61.588 71.2129 61.588C70.6062 61.588 70.1302 61.7933 69.7849 62.204C69.4395 62.6147 69.2669 63.1467 69.2669 63.8V63.842H73.1729Z" fill="black"/>
<path d="M78.6412 68.14C77.9972 68.14 77.4512 68.0373 77.0032 67.832C76.5645 67.6173 76.2378 67.3747 76.0232 67.104C75.8085 66.8333 75.7012 66.6093 75.7012 66.432C75.7012 66.3387 75.7338 66.2687 75.7992 66.222C75.8645 66.166 75.9345 66.138 76.0092 66.138H76.5972C76.6532 66.138 76.6952 66.1473 76.7232 66.166C76.7605 66.1847 76.8072 66.2267 76.8632 66.292C77.0778 66.5533 77.3158 66.7587 77.5772 66.908C77.8478 67.0573 78.2072 67.132 78.6552 67.132C79.1592 67.132 79.5605 67.0387 79.8592 66.852C80.1672 66.6653 80.3212 66.3947 80.3212 66.04C80.3212 65.8067 80.2558 65.62 80.1252 65.48C79.9945 65.34 79.7752 65.214 79.4672 65.102C79.1685 64.99 78.7205 64.8687 78.1232 64.738C77.3112 64.5607 76.7372 64.304 76.4012 63.968C76.0652 63.632 75.8972 63.198 75.8972 62.666C75.8972 62.3207 75.9998 61.9893 76.2052 61.672C76.4105 61.3453 76.7138 61.084 77.1152 60.888C77.5258 60.6827 78.0112 60.58 78.5712 60.58C79.1592 60.58 79.6585 60.678 80.0692 60.874C80.4892 61.07 80.8018 61.2987 81.0072 61.56C81.2218 61.8213 81.3292 62.0407 81.3292 62.218C81.3292 62.302 81.2965 62.372 81.2312 62.428C81.1752 62.484 81.1052 62.512 81.0212 62.512H80.4892C80.3585 62.512 80.2652 62.4607 80.2092 62.358C80.0505 62.1807 79.9152 62.0453 79.8032 61.952C79.7005 61.8493 79.5465 61.7653 79.3412 61.7C79.1358 61.6253 78.8792 61.588 78.5712 61.588C78.1138 61.588 77.7638 61.686 77.5212 61.882C77.2785 62.0687 77.1572 62.3207 77.1572 62.638C77.1572 62.834 77.2085 63.002 77.3112 63.142C77.4138 63.2727 77.6098 63.3987 77.8992 63.52C78.1885 63.632 78.6178 63.7487 79.1872 63.87C80.0738 64.0567 80.6992 64.3227 81.0632 64.668C81.4365 65.0133 81.6232 65.4567 81.6232 65.998C81.6232 66.3993 81.5065 66.7633 81.2732 67.09C81.0492 67.4167 80.7085 67.6733 80.2512 67.86C79.8032 68.0467 79.2665 68.14 78.6412 68.14Z" fill="black"/>
<path d="M150.128 82.7325C150.688 82.7851 151.077 83.3076 150.978 83.8633L148.993 96.1492C148.76 97.4093 147.92 98.4636 146.757 98.9666L143.091 100.802C142.375 101.113 141.567 101.113 140.851 100.802L137.185 98.9666C136.022 98.4636 135.182 97.4093 134.949 96.1492L132.964 83.8633C132.865 83.3076 133.254 82.7851 133.814 82.7325L136.777 82.4595C137.584 82.3874 138.064 82.1431 138.766 81.7503L141.51 80.0732C141.795 79.915 142.147 79.915 142.432 80.0732L145.176 81.7503C145.878 82.1431 146.657 82.3874 147.459 82.4595L150.128 82.7325Z" fill="#C3B3F4"/>
<path d="M140.851 100.802L137.185 98.9666C136.022 98.4636 135.182 97.4093 134.949 96.1492L132.964 83.8633C132.865 83.3076 133.254 82.7851 133.814 82.7325L136.777 82.4595C137.584 82.3874 138.064 82.1431 138.766 81.7503L141.51 80.0732C141.795 79.9151 132 87.6201 140.851 100.802Z" fill="#EAE4FE"/>
<path fill-rule="evenodd" clip-rule="evenodd" d="M136.785 99.8363C135.339 99.2006 134.305 97.8899 134.016 96.3244L132.029 84.0242C131.937 83.4978 132.067 82.9534 132.387 82.5282C132.707 82.1015 133.196 81.8277 133.726 81.7779L136.691 81.5049C137.291 81.4513 137.627 81.2913 138.306 80.9118L141.017 79.2532C141.618 78.9193 142.321 78.9188 142.888 79.233L145.666 80.9302C146.223 81.2407 146.882 81.4459 147.542 81.5049L150.222 81.7788C150.745 81.8282 151.233 82.1015 151.554 82.5282C151.876 82.9557 152.006 83.5048 151.911 84.0338L149.929 96.3029C149.637 97.8894 148.602 99.2006 147.155 99.8363L143.513 101.66C143.497 101.668 143.482 101.675 143.466 101.682C142.991 101.888 142.48 101.992 141.97 101.992C141.46 101.992 140.95 101.888 140.475 101.682C140.459 101.675 140.444 101.668 140.428 101.66L136.785 99.8363ZM139.258 82.5701C138.46 83.0165 137.842 83.3265 136.86 83.4138L133.901 83.6859C133.902 83.6886 133.902 83.6928 133.902 83.6971C133.902 83.7014 133.902 83.7057 133.902 83.7086L135.887 95.9943C136.057 96.9173 136.684 97.7065 137.56 98.0855C137.576 98.0927 137.592 98.0998 137.608 98.1079L141.248 99.9303C141.715 100.127 142.228 100.127 142.695 99.9303L146.335 98.1079C146.351 98.0998 146.367 98.0927 146.383 98.0855C147.259 97.7069 147.886 96.9173 148.06 95.9732L150.041 83.7091L147.364 83.4124C146.454 83.331 145.534 83.0458 144.716 82.5881L141.971 80.9118L139.258 82.5701Z" fill="#6650AB"/>
<path d="M140.825 94.0474C141.01 94.2348 141.253 94.3284 141.496 94.3284C141.739 94.3284 141.982 94.2348 142.168 94.0474L146.915 89.2558C147.286 88.8816 147.286 88.275 146.915 87.9008C146.545 87.5265 145.943 87.5265 145.573 87.9008L141.496 92.0145L139.319 89.8175C138.948 89.4432 138.347 89.4432 137.976 89.8175C137.605 90.1916 137.605 90.7983 137.976 91.1724L140.825 94.0474Z" fill="#6650AB"/>
</svg>
