<svg width="172" height="112" viewBox="0 0 172 112" fill="none" xmlns="http://www.w3.org/2000/svg">
<g clip-path="url(#clip0)">
<rect opacity="0.184733" width="172" height="112" rx="4" fill="#3993FC"/>
<path opacity="0.650507" d="M98.3329 21.9701C109.656 15.9674 110 0 110 0L-15 0C-15 0 -15 55.6119 -15 61.791C-11.6667 67.6269 -3.75005 69 8.33324 69C20.4165 69 37.0831 67.2836 45.4164 51.4925C53.7497 35.7015 50.8843 31.6508 62.083 25.403C73.2818 19.1552 87.0102 27.9729 98.3329 21.9701Z" fill="#EFF5FF"/>
<path opacity="0.58152" d="M171.647 50.7447C175.786 55.2282 176.3 59.2846 176.782 63.8337C177.159 67.3936 176.884 107.986 176.803 118.908C176.791 120.412 175.584 121.6 174.08 121.6C166.116 121.6 143.17 121.6 141.254 121.6C143.977 115.157 117.774 92.1084 117.048 75.1445C116.322 58.1806 123.843 47.6936 137.857 42.2034C151.871 36.7132 163.762 42.2034 171.647 50.7447Z" fill="#EFF5FF"/>
<path d="M125.504 84.5682H120.611C119.988 84.5682 119.483 85.0669 119.483 85.6821V86.8403H126.631V85.6822C126.631 85.0669 126.127 84.5682 125.504 84.5682Z" fill="#B9F6D3"/>
<path d="M151.517 86.8405V89.3883C151.517 90.2998 150.768 91.0392 149.846 91.0392H121.154C120.232 91.0392 119.483 90.2998 119.483 89.3883V86.8405H151.517Z" fill="#B9F6D3"/>
<path d="M149.28 86.8405V91.0392H128.874V84.5679H146.981C148.251 84.5679 149.28 85.5857 149.28 86.8405Z" fill="#B9F6D3"/>
<path d="M149.28 86.8405V91.0392H146.64V86.8405C146.64 85.5857 145.611 84.5679 144.341 84.5679H146.981C148.251 84.5679 149.28 85.5857 149.28 86.8405Z" fill="#B9F6D3"/>
<path d="M128.874 84.5679H131.452V91.0392H128.874V84.5679Z" fill="#B9F6D3"/>
<ellipse cx="124.897" cy="99.7842" rx="1.75003" ry="1.72943" fill="#B9F6D3"/>
<ellipse cx="146.103" cy="99.7842" rx="1.75003" ry="1.72943" fill="#B9F6D3"/>
<path fill-rule="evenodd" clip-rule="evenodd" d="M151.517 82.0087C151.25 82.0087 151.033 82.2225 151.033 82.4864V86.3627H149.722C149.492 85.0733 148.351 84.0905 146.981 84.0905H146.103C145.836 84.0905 145.62 84.3043 145.62 84.5682C145.62 84.8321 145.836 85.0459 146.103 85.0459H146.981C147.982 85.0459 148.797 85.851 148.797 86.8404V90.5615H131.935V85.0459H143.861C144.128 85.0459 144.344 84.8321 144.344 84.5682C144.344 84.3043 144.128 84.0905 143.861 84.0905H128.874C128.607 84.0905 128.391 84.3043 128.391 84.5682V86.3627H127.115V85.6822C127.115 84.8046 126.392 84.0906 125.504 84.0906H120.611C120.382 84.0906 120.164 84.138 119.967 84.2233V82.4864C119.967 82.2225 119.75 82.0087 119.483 82.0087C119.216 82.0087 119 82.2225 119 82.4864V89.3883C119 90.562 119.966 91.5169 121.154 91.5169H124.413V97.6291C123.414 97.848 122.663 98.7312 122.663 99.7841C122.663 101.001 123.665 101.991 124.897 101.991C126.128 101.991 127.13 101.001 127.13 99.7841C127.13 98.7311 126.38 97.848 125.38 97.6291V95.184H128.392C128.659 95.184 128.876 94.9701 128.876 94.7062C128.876 94.4424 128.659 94.2285 128.392 94.2285H125.38V91.5169L145.62 91.517V94.2285H130.63C130.363 94.2285 130.147 94.4424 130.147 94.7062C130.147 94.9701 130.363 95.184 130.63 95.184H145.62V97.6291C144.62 97.848 143.87 98.7312 143.87 99.7841C143.87 101.001 144.872 101.991 146.103 101.991C147.335 101.991 148.336 101.001 148.336 99.7841C148.336 98.7311 147.586 97.848 146.586 97.6291V91.517L149.846 91.5169C151.034 91.5169 152 90.562 152 89.3883V82.4864C152 82.2225 151.784 82.0087 151.517 82.0087ZM119.967 85.6822C119.967 85.3313 120.256 85.046 120.611 85.046H125.504C125.859 85.046 126.148 85.3313 126.148 85.6822V86.3627H119.967V85.6822ZM124.897 101.036C125.595 101.036 126.164 100.474 126.164 99.7842C126.164 99.094 125.595 98.5325 124.897 98.5325C124.198 98.5325 123.63 99.094 123.63 99.7842C123.63 100.474 124.198 101.036 124.897 101.036ZM128.391 90.5615H121.154C120.499 90.5615 119.967 90.0352 119.967 89.3883V87.3181H128.391V90.5615ZM129.357 90.5615H130.969V85.0459H129.357V90.5615ZM147.37 99.7842C147.37 100.474 146.802 101.036 146.103 101.036C145.405 101.036 144.836 100.474 144.836 99.7842C144.836 99.094 145.405 98.5325 146.103 98.5325C146.802 98.5325 147.37 99.094 147.37 99.7842ZM149.846 90.5615C150.501 90.5615 151.033 90.0352 151.033 89.3883V87.3181H149.764V90.5615H149.846Z" fill="#35CB5D"/>
<path d="M21.54 25C21.4467 25 21.372 24.972 21.316 24.916C21.26 24.8507 21.232 24.7713 21.232 24.678V15.536C21.232 15.4333 21.26 15.354 21.316 15.298C21.372 15.2327 21.4467 15.2 21.54 15.2H25.082C26.1367 15.2 26.9627 15.4567 27.56 15.97C28.1667 16.474 28.47 17.2113 28.47 18.182C28.47 19.1527 28.1667 19.89 27.56 20.394C26.9627 20.898 26.1367 21.15 25.082 21.15H22.562V24.678C22.562 24.7713 22.5293 24.8507 22.464 24.916C22.408 24.972 22.3333 25 22.24 25H21.54ZM25.012 20.016C26.4213 20.016 27.126 19.4047 27.126 18.182C27.126 17.5847 26.9487 17.1273 26.594 16.81C26.2487 16.4927 25.7213 16.334 25.012 16.334H22.562V20.016H25.012ZM30.3408 25C30.2474 25 30.1681 24.972 30.1028 24.916C30.0468 24.8507 30.0188 24.7713 30.0188 24.678V18.056C30.0188 17.9627 30.0468 17.8833 30.1028 17.818C30.1681 17.7527 30.2474 17.72 30.3408 17.72H30.9288C31.0314 17.72 31.1108 17.7527 31.1668 17.818C31.2321 17.874 31.2648 17.9533 31.2648 18.056V18.672C31.6474 18.0373 32.2961 17.72 33.2108 17.72H33.7568C33.8594 17.72 33.9388 17.748 33.9948 17.804C34.0508 17.86 34.0788 17.9393 34.0788 18.042V18.56C34.0788 18.6533 34.0508 18.7327 33.9948 18.798C33.9388 18.854 33.8594 18.882 33.7568 18.882H32.9588C32.4454 18.882 32.0394 19.0313 31.7408 19.33C31.4514 19.6287 31.3068 20.0347 31.3068 20.548V24.678C31.3068 24.7713 31.2741 24.8507 31.2088 24.916C31.1434 24.972 31.0641 25 30.9708 25H30.3408ZM38.0297 25.14C37.0777 25.14 36.317 24.846 35.7477 24.258C35.1784 23.6607 34.8657 22.8487 34.8097 21.822L34.7957 21.346L34.8097 20.884C34.8657 19.876 35.1784 19.0733 35.7477 18.476C36.317 17.8787 37.0777 17.58 38.0297 17.58C39.0564 17.58 39.8497 17.9067 40.4097 18.56C40.979 19.2133 41.2637 20.1 41.2637 21.22V21.472C41.2637 21.5653 41.231 21.6447 41.1657 21.71C41.1097 21.766 41.035 21.794 40.9417 21.794H36.0837V21.92C36.1117 22.5267 36.2984 23.0447 36.6437 23.474C36.989 23.9033 37.4464 24.118 38.0157 24.118C38.4544 24.118 38.809 24.034 39.0797 23.866C39.3597 23.6887 39.5697 23.5067 39.7097 23.32C39.7937 23.208 39.859 23.1427 39.9057 23.124C39.9524 23.096 40.0317 23.082 40.1437 23.082H40.7597C40.8437 23.082 40.9137 23.1053 40.9697 23.152C41.035 23.1987 41.0677 23.2593 41.0677 23.334C41.0677 23.5393 40.9417 23.7867 40.6897 24.076C40.4377 24.3653 40.0784 24.6173 39.6117 24.832C39.1544 25.0373 38.627 25.14 38.0297 25.14ZM39.9897 20.842V20.8C39.9897 20.1467 39.8124 19.6147 39.4577 19.204C39.103 18.7933 38.627 18.588 38.0297 18.588C37.423 18.588 36.947 18.7933 36.6017 19.204C36.2564 19.6147 36.0837 20.1467 36.0837 20.8V20.842H39.9897ZM48.4273 25.14C47.97 25.14 47.5453 25.0467 47.1533 24.86C46.7707 24.6733 46.4627 24.4213 46.2293 24.104C46.0053 23.7773 45.8933 23.418 45.8933 23.026C45.8933 22.41 46.1453 21.906 46.6493 21.514C47.1533 21.122 47.8393 20.8607 48.7073 20.73L50.8073 20.436V20.03C50.8073 19.0687 50.252 18.588 49.1413 18.588C48.712 18.588 48.3667 18.6767 48.1053 18.854C47.844 19.022 47.6527 19.2227 47.5313 19.456C47.494 19.5493 47.452 19.6147 47.4053 19.652C47.368 19.68 47.312 19.694 47.2373 19.694H46.6913C46.6073 19.694 46.5327 19.666 46.4673 19.61C46.4113 19.5447 46.3833 19.47 46.3833 19.386C46.3833 19.1713 46.4813 18.924 46.6773 18.644C46.8827 18.3547 47.1953 18.1073 47.6153 17.902C48.0353 17.6873 48.5487 17.58 49.1553 17.58C50.2007 17.58 50.9473 17.8227 51.3953 18.308C51.8527 18.7933 52.0813 19.4 52.0813 20.128V24.678C52.0813 24.7713 52.0487 24.8507 51.9833 24.916C51.9273 24.972 51.8527 25 51.7593 25H51.1433C51.05 25 50.9753 24.972 50.9193 24.916C50.8633 24.8507 50.8353 24.7713 50.8353 24.678V24.062C50.63 24.37 50.3313 24.6267 49.9393 24.832C49.5473 25.0373 49.0433 25.14 48.4273 25.14ZM48.7073 24.118C49.3233 24.118 49.8273 23.9173 50.2193 23.516C50.6113 23.1147 50.8073 22.5313 50.8073 21.766V21.374L49.1693 21.612C48.4973 21.7053 47.9887 21.864 47.6433 22.088C47.298 22.312 47.1253 22.592 47.1253 22.928C47.1253 23.3107 47.2793 23.6047 47.5873 23.81C47.9047 24.0153 48.278 24.118 48.7073 24.118ZM54.4306 25C54.3373 25 54.2579 24.972 54.1926 24.916C54.1366 24.8507 54.1086 24.7713 54.1086 24.678V18.042C54.1086 17.9487 54.1366 17.874 54.1926 17.818C54.2579 17.7527 54.3373 17.72 54.4306 17.72H55.0326C55.1353 17.72 55.2146 17.748 55.2706 17.804C55.3266 17.86 55.3546 17.9393 55.3546 18.042V18.658C55.6346 18.3127 55.9566 18.0467 56.3206 17.86C56.6939 17.6733 57.1559 17.58 57.7066 17.58C58.6026 17.58 59.2979 17.8693 59.7926 18.448C60.2873 19.0173 60.5346 19.7733 60.5346 20.716V24.678C60.5346 24.7713 60.5019 24.8507 60.4366 24.916C60.3806 24.972 60.3059 25 60.2126 25H59.5686C59.4753 25 59.3959 24.972 59.3306 24.916C59.2746 24.8507 59.2466 24.7713 59.2466 24.678V20.8C59.2466 20.128 59.0833 19.6053 58.7566 19.232C58.4299 18.8587 57.9633 18.672 57.3566 18.672C56.7593 18.672 56.2833 18.8633 55.9286 19.246C55.5739 19.6193 55.3966 20.1373 55.3966 20.8V24.678C55.3966 24.7713 55.3639 24.8507 55.2986 24.916C55.2426 24.972 55.1679 25 55.0746 25H54.4306ZM65.2178 25.14C64.2378 25.14 63.5005 24.8227 63.0058 24.188C62.5205 23.5533 62.2591 22.7507 62.2218 21.78L62.2078 21.36L62.2218 20.94C62.2591 19.9787 62.5251 19.1807 63.0198 18.546C63.5145 17.902 64.2471 17.58 65.2178 17.58C66.1885 17.58 66.9445 17.9253 67.4858 18.616V15.382C67.4858 15.2887 67.5138 15.214 67.5698 15.158C67.6351 15.0927 67.7145 15.06 67.8078 15.06H68.4378C68.5311 15.06 68.6058 15.0927 68.6618 15.158C68.7271 15.214 68.7598 15.2887 68.7598 15.382V24.678C68.7598 24.7713 68.7271 24.8507 68.6618 24.916C68.6058 24.972 68.5311 25 68.4378 25H67.8358C67.7425 25 67.6678 24.972 67.6118 24.916C67.5558 24.8507 67.5278 24.7713 67.5278 24.678V24.076C66.9958 24.7853 66.2258 25.14 65.2178 25.14ZM65.4838 24.048C66.1371 24.048 66.6271 23.8333 66.9538 23.404C67.2805 22.9653 67.4578 22.4473 67.4858 21.85C67.4951 21.7473 67.4998 21.57 67.4998 21.318C67.4998 21.0567 67.4951 20.8747 67.4858 20.772C67.4671 20.2027 67.2851 19.7127 66.9398 19.302C66.6038 18.882 66.1185 18.672 65.4838 18.672C64.8118 18.672 64.3218 18.882 64.0138 19.302C63.7058 19.722 63.5378 20.2727 63.5098 20.954L63.4958 21.36C63.4958 23.152 64.1585 24.048 65.4838 24.048ZM74.6516 27.66C74.5583 27.66 74.479 27.632 74.4136 27.576C74.3576 27.52 74.3296 27.4407 74.3296 27.338V18.042C74.3296 17.9393 74.3576 17.86 74.4136 17.804C74.479 17.748 74.5583 17.72 74.6516 17.72H75.2396C75.3423 17.72 75.4216 17.748 75.4776 17.804C75.5336 17.86 75.5616 17.9393 75.5616 18.042V18.658C76.103 17.9393 76.873 17.58 77.8716 17.58C78.8516 17.58 79.5843 17.8927 80.0696 18.518C80.5643 19.134 80.8256 19.9227 80.8536 20.884C80.863 20.9867 80.8676 21.1453 80.8676 21.36C80.8676 21.5747 80.863 21.7333 80.8536 21.836C80.8256 22.788 80.5643 23.5767 80.0696 24.202C79.5843 24.8273 78.8516 25.14 77.8716 25.14C76.873 25.14 76.117 24.7853 75.6036 24.076V27.338C75.6036 27.4313 75.571 27.506 75.5056 27.562C75.4496 27.6273 75.375 27.66 75.2816 27.66H74.6516ZM77.6056 24.048C78.2776 24.048 78.7676 23.838 79.0756 23.418C79.3836 22.998 79.5516 22.4473 79.5796 21.766C79.589 21.6727 79.5936 21.5373 79.5936 21.36C79.5936 19.568 78.931 18.672 77.6056 18.672C76.9523 18.672 76.4576 18.8913 76.1216 19.33C75.795 19.7593 75.6223 20.268 75.6036 20.856C75.5943 20.9587 75.5896 21.1407 75.5896 21.402C75.5896 21.6633 75.5943 21.8453 75.6036 21.948C75.6223 22.5173 75.7996 23.012 76.1356 23.432C76.481 23.8427 76.971 24.048 77.6056 24.048ZM85.5821 25.14C84.5555 25.14 83.7621 24.8507 83.2021 24.272C82.6515 23.6933 82.3575 22.9233 82.3201 21.962L82.3061 21.36L82.3201 20.758C82.3575 19.7967 82.6561 19.0267 83.2161 18.448C83.7855 17.8693 84.5741 17.58 85.5821 17.58C86.5901 17.58 87.3741 17.8693 87.9341 18.448C88.5035 19.0267 88.8068 19.7967 88.8441 20.758C88.8628 20.9633 88.8721 21.164 88.8721 21.36C88.8721 21.556 88.8628 21.7567 88.8441 21.962C88.8068 22.9233 88.5081 23.6933 87.9481 24.272C87.3975 24.8507 86.6088 25.14 85.5821 25.14ZM85.5821 24.09C86.1795 24.09 86.6508 23.9033 86.9961 23.53C87.3508 23.1473 87.5421 22.6013 87.5701 21.892C87.5795 21.7987 87.5841 21.6213 87.5841 21.36C87.5841 21.0987 87.5795 20.9213 87.5701 20.828C87.5421 20.1187 87.3508 19.5773 86.9961 19.204C86.6508 18.8213 86.1795 18.63 85.5821 18.63C84.9848 18.63 84.5088 18.8213 84.1541 19.204C83.8088 19.5773 83.6221 20.1187 83.5941 20.828L83.5801 21.36L83.5941 21.892C83.6221 22.6013 83.8088 23.1473 84.1541 23.53C84.5088 23.9033 84.9848 24.09 85.5821 24.09ZM93.1318 25.14C92.4878 25.14 91.9418 25.0373 91.4938 24.832C91.0552 24.6173 90.7285 24.3747 90.5138 24.104C90.2992 23.8333 90.1918 23.6093 90.1918 23.432C90.1918 23.3387 90.2245 23.2687 90.2898 23.222C90.3552 23.166 90.4252 23.138 90.4998 23.138H91.0878C91.1438 23.138 91.1858 23.1473 91.2138 23.166C91.2512 23.1847 91.2978 23.2267 91.3538 23.292C91.5685 23.5533 91.8065 23.7587 92.0678 23.908C92.3385 24.0573 92.6978 24.132 93.1458 24.132C93.6498 24.132 94.0512 24.0387 94.3498 23.852C94.6578 23.6653 94.8118 23.3947 94.8118 23.04C94.8118 22.8067 94.7465 22.62 94.6158 22.48C94.4852 22.34 94.2658 22.214 93.9578 22.102C93.6592 21.99 93.2112 21.8687 92.6138 21.738C91.8018 21.5607 91.2278 21.304 90.8918 20.968C90.5558 20.632 90.3878 20.198 90.3878 19.666C90.3878 19.3207 90.4905 18.9893 90.6958 18.672C90.9012 18.3453 91.2045 18.084 91.6058 17.888C92.0165 17.6827 92.5018 17.58 93.0618 17.58C93.6498 17.58 94.1492 17.678 94.5598 17.874C94.9798 18.07 95.2925 18.2987 95.4978 18.56C95.7125 18.8213 95.8198 19.0407 95.8198 19.218C95.8198 19.302 95.7872 19.372 95.7218 19.428C95.6658 19.484 95.5958 19.512 95.5118 19.512H94.9798C94.8492 19.512 94.7558 19.4607 94.6998 19.358C94.5412 19.1807 94.4058 19.0453 94.2938 18.952C94.1912 18.8493 94.0372 18.7653 93.8318 18.7C93.6265 18.6253 93.3698 18.588 93.0618 18.588C92.6045 18.588 92.2545 18.686 92.0118 18.882C91.7692 19.0687 91.6478 19.3207 91.6478 19.638C91.6478 19.834 91.6992 20.002 91.8018 20.142C91.9045 20.2727 92.1005 20.3987 92.3898 20.52C92.6792 20.632 93.1085 20.7487 93.6778 20.87C94.5645 21.0567 95.1898 21.3227 95.5538 21.668C95.9272 22.0133 96.1138 22.4567 96.1138 22.998C96.1138 23.3993 95.9972 23.7633 95.7638 24.09C95.5398 24.4167 95.1992 24.6733 94.7418 24.86C94.2938 25.0467 93.7572 25.14 93.1318 25.14ZM100.536 25C99.0889 25 98.3655 24.1833 98.3655 22.55V18.798H97.2595C97.1662 18.798 97.0915 18.77 97.0355 18.714C96.9795 18.658 96.9515 18.5833 96.9515 18.49V18.042C96.9515 17.9487 96.9795 17.874 97.0355 17.818C97.0915 17.7527 97.1662 17.72 97.2595 17.72H98.3655V15.382C98.3655 15.2887 98.3935 15.214 98.4495 15.158C98.5055 15.0927 98.5802 15.06 98.6735 15.06H99.2895C99.3829 15.06 99.4575 15.0927 99.5135 15.158C99.5789 15.214 99.6115 15.2887 99.6115 15.382V17.72H101.348C101.441 17.72 101.516 17.7527 101.572 17.818C101.637 17.874 101.67 17.9487 101.67 18.042V18.49C101.67 18.5833 101.637 18.658 101.572 18.714C101.516 18.77 101.441 18.798 101.348 18.798H99.6115V22.452C99.6115 22.928 99.6862 23.2873 99.8355 23.53C99.9942 23.7727 100.26 23.894 100.634 23.894H101.488C101.581 23.894 101.656 23.9267 101.712 23.992C101.768 24.048 101.796 24.1227 101.796 24.216V24.678C101.796 24.7713 101.768 24.8507 101.712 24.916C101.656 24.972 101.581 25 101.488 25H100.536ZM21.386 46C21.2927 46 21.2133 45.972 21.148 45.916C21.092 45.8507 21.064 45.7713 21.064 45.678V36.382C21.064 36.2793 21.092 36.2 21.148 36.144C21.2133 36.088 21.2927 36.06 21.386 36.06H22.03C22.1327 36.06 22.212 36.088 22.268 36.144C22.324 36.2 22.352 36.2793 22.352 36.382V39.644C22.6227 39.2987 22.94 39.0373 23.304 38.86C23.6773 38.6733 24.1347 38.58 24.676 38.58C25.572 38.58 26.2673 38.8693 26.762 39.448C27.266 40.0173 27.518 40.7733 27.518 41.716V45.678C27.518 45.7713 27.4853 45.8507 27.42 45.916C27.364 45.972 27.2893 46 27.196 46H26.538C26.4447 46 26.3653 45.972 26.3 45.916C26.244 45.8507 26.216 45.7713 26.216 45.678V41.8C26.216 41.128 26.0527 40.6053 25.726 40.232C25.3993 39.8587 24.928 39.672 24.312 39.672C23.7147 39.672 23.2387 39.8633 22.884 40.246C22.5293 40.6193 22.352 41.1373 22.352 41.8V45.678C22.352 45.7713 22.3193 45.8507 22.254 45.916C22.198 45.972 22.1233 46 22.03 46H21.386ZM32.5079 46.14C31.4812 46.14 30.6879 45.8507 30.1279 45.272C29.5772 44.6933 29.2832 43.9233 29.2459 42.962L29.2319 42.36L29.2459 41.758C29.2832 40.7967 29.5819 40.0267 30.1419 39.448C30.7112 38.8693 31.4999 38.58 32.5079 38.58C33.5159 38.58 34.2999 38.8693 34.8599 39.448C35.4292 40.0267 35.7326 40.7967 35.7699 41.758C35.7886 41.9633 35.7979 42.164 35.7979 42.36C35.7979 42.556 35.7886 42.7567 35.7699 42.962C35.7326 43.9233 35.4339 44.6933 34.8739 45.272C34.3232 45.8507 33.5346 46.14 32.5079 46.14ZM32.5079 45.09C33.1052 45.09 33.5766 44.9033 33.9219 44.53C34.2766 44.1473 34.4679 43.6013 34.4959 42.892C34.5052 42.7987 34.5099 42.6213 34.5099 42.36C34.5099 42.0987 34.5052 41.9213 34.4959 41.828C34.4679 41.1187 34.2766 40.5773 33.9219 40.204C33.5766 39.8213 33.1052 39.63 32.5079 39.63C31.9106 39.63 31.4346 39.8213 31.0799 40.204C30.7346 40.5773 30.5479 41.1187 30.5199 41.828L30.5059 42.36L30.5199 42.892C30.5479 43.6013 30.7346 44.1473 31.0799 44.53C31.4346 44.9033 31.9106 45.09 32.5079 45.09ZM40.0576 46.14C39.4136 46.14 38.8676 46.0373 38.4196 45.832C37.981 45.6173 37.6543 45.3747 37.4396 45.104C37.225 44.8333 37.1176 44.6093 37.1176 44.432C37.1176 44.3387 37.1503 44.2687 37.2156 44.222C37.281 44.166 37.351 44.138 37.4256 44.138H38.0136C38.0696 44.138 38.1116 44.1473 38.1396 44.166C38.177 44.1847 38.2236 44.2267 38.2796 44.292C38.4943 44.5533 38.7323 44.7587 38.9936 44.908C39.2643 45.0573 39.6236 45.132 40.0716 45.132C40.5756 45.132 40.977 45.0387 41.2756 44.852C41.5836 44.6653 41.7376 44.3947 41.7376 44.04C41.7376 43.8067 41.6723 43.62 41.5416 43.48C41.411 43.34 41.1916 43.214 40.8836 43.102C40.585 42.99 40.137 42.8687 39.5396 42.738C38.7276 42.5607 38.1536 42.304 37.8176 41.968C37.4816 41.632 37.3136 41.198 37.3136 40.666C37.3136 40.3207 37.4163 39.9893 37.6216 39.672C37.827 39.3453 38.1303 39.084 38.5316 38.888C38.9423 38.6827 39.4276 38.58 39.9876 38.58C40.5756 38.58 41.075 38.678 41.4856 38.874C41.9056 39.07 42.2183 39.2987 42.4236 39.56C42.6383 39.8213 42.7456 40.0407 42.7456 40.218C42.7456 40.302 42.713 40.372 42.6476 40.428C42.5916 40.484 42.5216 40.512 42.4376 40.512H41.9056C41.775 40.512 41.6816 40.4607 41.6256 40.358C41.467 40.1807 41.3316 40.0453 41.2196 39.952C41.117 39.8493 40.963 39.7653 40.7576 39.7C40.5523 39.6253 40.2956 39.588 39.9876 39.588C39.5303 39.588 39.1803 39.686 38.9376 39.882C38.695 40.0687 38.5736 40.3207 38.5736 40.638C38.5736 40.834 38.625 41.002 38.7276 41.142C38.8303 41.2727 39.0263 41.3987 39.3156 41.52C39.605 41.632 40.0343 41.7487 40.6036 41.87C41.4903 42.0567 42.1156 42.3227 42.4796 42.668C42.853 43.0133 43.0396 43.4567 43.0396 43.998C43.0396 44.3993 42.923 44.7633 42.6896 45.09C42.4656 45.4167 42.125 45.6733 41.6676 45.86C41.2196 46.0467 40.683 46.14 40.0576 46.14ZM44.885 37.348C44.7917 37.348 44.7123 37.32 44.647 37.264C44.591 37.1987 44.563 37.1193 44.563 37.026V36.298C44.563 36.2047 44.591 36.1253 44.647 36.06C44.7123 35.9947 44.7917 35.962 44.885 35.962H45.711C45.8043 35.962 45.8837 35.9947 45.949 36.06C46.0143 36.1253 46.047 36.2047 46.047 36.298V37.026C46.047 37.1193 46.0143 37.1987 45.949 37.264C45.8837 37.32 45.8043 37.348 45.711 37.348H44.885ZM44.997 46C44.9037 46 44.8243 45.972 44.759 45.916C44.703 45.8507 44.675 45.7713 44.675 45.678V39.042C44.675 38.9487 44.703 38.874 44.759 38.818C44.8243 38.7527 44.9037 38.72 44.997 38.72H45.613C45.7063 38.72 45.781 38.7527 45.837 38.818C45.9023 38.874 45.935 38.9487 45.935 39.042V45.678C45.935 45.7713 45.9023 45.8507 45.837 45.916C45.781 45.972 45.7063 46 45.613 46H44.997ZM50.8383 46C49.3916 46 48.6683 45.1833 48.6683 43.55V39.798H47.5623C47.4689 39.798 47.3943 39.77 47.3383 39.714C47.2823 39.658 47.2543 39.5833 47.2543 39.49V39.042C47.2543 38.9487 47.2823 38.874 47.3383 38.818C47.3943 38.7527 47.4689 38.72 47.5623 38.72H48.6683V36.382C48.6683 36.2887 48.6963 36.214 48.7523 36.158C48.8083 36.0927 48.8829 36.06 48.9763 36.06H49.5923C49.6856 36.06 49.7603 36.0927 49.8163 36.158C49.8816 36.214 49.9143 36.2887 49.9143 36.382V38.72H51.6503C51.7436 38.72 51.8183 38.7527 51.8743 38.818C51.9396 38.874 51.9723 38.9487 51.9723 39.042V39.49C51.9723 39.5833 51.9396 39.658 51.8743 39.714C51.8183 39.77 51.7436 39.798 51.6503 39.798H49.9143V43.452C49.9143 43.928 49.9889 44.2873 50.1383 44.53C50.2969 44.7727 50.5629 44.894 50.9363 44.894H51.7903C51.8836 44.894 51.9583 44.9267 52.0143 44.992C52.0703 45.048 52.0983 45.1227 52.0983 45.216V45.678C52.0983 45.7713 52.0703 45.8507 52.0143 45.916C51.9583 45.972 51.8836 46 51.7903 46H50.8383ZM55.482 46.14C55.0247 46.14 54.6 46.0467 54.208 45.86C53.8253 45.6733 53.5173 45.4213 53.284 45.104C53.06 44.7773 52.948 44.418 52.948 44.026C52.948 43.41 53.2 42.906 53.704 42.514C54.208 42.122 54.894 41.8607 55.762 41.73L57.862 41.436V41.03C57.862 40.0687 57.3067 39.588 56.196 39.588C55.7667 39.588 55.4213 39.6767 55.16 39.854C54.8987 40.022 54.7073 40.2227 54.586 40.456C54.5487 40.5493 54.5067 40.6147 54.46 40.652C54.4227 40.68 54.3667 40.694 54.292 40.694H53.746C53.662 40.694 53.5873 40.666 53.522 40.61C53.466 40.5447 53.438 40.47 53.438 40.386C53.438 40.1713 53.536 39.924 53.732 39.644C53.9373 39.3547 54.25 39.1073 54.67 38.902C55.09 38.6873 55.6033 38.58 56.21 38.58C57.2553 38.58 58.002 38.8227 58.45 39.308C58.9073 39.7933 59.136 40.4 59.136 41.128V45.678C59.136 45.7713 59.1033 45.8507 59.038 45.916C58.982 45.972 58.9073 46 58.814 46H58.198C58.1047 46 58.03 45.972 57.974 45.916C57.918 45.8507 57.89 45.7713 57.89 45.678V45.062C57.6847 45.37 57.386 45.6267 56.994 45.832C56.602 46.0373 56.098 46.14 55.482 46.14ZM55.762 45.118C56.378 45.118 56.882 44.9173 57.274 44.516C57.666 44.1147 57.862 43.5313 57.862 42.766V42.374L56.224 42.612C55.552 42.7053 55.0433 42.864 54.698 43.088C54.3527 43.312 54.18 43.592 54.18 43.928C54.18 44.3107 54.334 44.6047 54.642 44.81C54.9593 45.0153 55.3327 45.118 55.762 45.118ZM61.4993 46C61.4059 46 61.3266 45.972 61.2613 45.916C61.2053 45.8507 61.1773 45.7713 61.1773 45.678V36.382C61.1773 36.2793 61.2053 36.2 61.2613 36.144C61.3266 36.088 61.4059 36.06 61.4993 36.06H62.1153C62.2086 36.06 62.2833 36.0927 62.3393 36.158C62.4046 36.214 62.4373 36.2887 62.4373 36.382V45.678C62.4373 45.7713 62.4046 45.8507 62.3393 45.916C62.2833 45.972 62.2086 46 62.1153 46H61.4993ZM64.7502 37.348C64.6569 37.348 64.5776 37.32 64.5122 37.264C64.4562 37.1987 64.4282 37.1193 64.4282 37.026V36.298C64.4282 36.2047 64.4562 36.1253 64.5122 36.06C64.5776 35.9947 64.6569 35.962 64.7502 35.962H65.5762C65.6696 35.962 65.7489 35.9947 65.8142 36.06C65.8796 36.1253 65.9122 36.2047 65.9122 36.298V37.026C65.9122 37.1193 65.8796 37.1987 65.8142 37.264C65.7489 37.32 65.6696 37.348 65.5762 37.348H64.7502ZM64.8622 46C64.7689 46 64.6896 45.972 64.6242 45.916C64.5682 45.8507 64.5402 45.7713 64.5402 45.678V39.042C64.5402 38.9487 64.5682 38.874 64.6242 38.818C64.6896 38.7527 64.7689 38.72 64.8622 38.72H65.4782C65.5716 38.72 65.6462 38.7527 65.7022 38.818C65.7676 38.874 65.8002 38.9487 65.8002 39.042V45.678C65.8002 45.7713 65.7676 45.8507 65.7022 45.916C65.6462 45.972 65.5716 46 65.4782 46H64.8622ZM70.3955 46.14C69.7515 46.14 69.2055 46.0373 68.7575 45.832C68.3188 45.6173 67.9922 45.3747 67.7775 45.104C67.5628 44.8333 67.4555 44.6093 67.4555 44.432C67.4555 44.3387 67.4882 44.2687 67.5535 44.222C67.6188 44.166 67.6888 44.138 67.7635 44.138H68.3515C68.4075 44.138 68.4495 44.1473 68.4775 44.166C68.5148 44.1847 68.5615 44.2267 68.6175 44.292C68.8322 44.5533 69.0702 44.7587 69.3315 44.908C69.6022 45.0573 69.9615 45.132 70.4095 45.132C70.9135 45.132 71.3148 45.0387 71.6135 44.852C71.9215 44.6653 72.0755 44.3947 72.0755 44.04C72.0755 43.8067 72.0102 43.62 71.8795 43.48C71.7488 43.34 71.5295 43.214 71.2215 43.102C70.9228 42.99 70.4748 42.8687 69.8775 42.738C69.0655 42.5607 68.4915 42.304 68.1555 41.968C67.8195 41.632 67.6515 41.198 67.6515 40.666C67.6515 40.3207 67.7542 39.9893 67.9595 39.672C68.1648 39.3453 68.4682 39.084 68.8695 38.888C69.2802 38.6827 69.7655 38.58 70.3255 38.58C70.9135 38.58 71.4128 38.678 71.8235 38.874C72.2435 39.07 72.5562 39.2987 72.7615 39.56C72.9762 39.8213 73.0835 40.0407 73.0835 40.218C73.0835 40.302 73.0508 40.372 72.9855 40.428C72.9295 40.484 72.8595 40.512 72.7755 40.512H72.2435C72.1128 40.512 72.0195 40.4607 71.9635 40.358C71.8048 40.1807 71.6695 40.0453 71.5575 39.952C71.4548 39.8493 71.3008 39.7653 71.0955 39.7C70.8902 39.6253 70.6335 39.588 70.3255 39.588C69.8682 39.588 69.5182 39.686 69.2755 39.882C69.0328 40.0687 68.9115 40.3207 68.9115 40.638C68.9115 40.834 68.9628 41.002 69.0655 41.142C69.1682 41.2727 69.3642 41.3987 69.6535 41.52C69.9428 41.632 70.3722 41.7487 70.9415 41.87C71.8282 42.0567 72.4535 42.3227 72.8175 42.668C73.1908 43.0133 73.3775 43.4567 73.3775 43.998C73.3775 44.3993 73.2608 44.7633 73.0275 45.09C72.8035 45.4167 72.4628 45.6733 72.0055 45.86C71.5575 46.0467 71.0208 46.14 70.3955 46.14ZM77.0289 46.14C76.5716 46.14 76.1469 46.0467 75.7549 45.86C75.3722 45.6733 75.0642 45.4213 74.8309 45.104C74.6069 44.7773 74.4949 44.418 74.4949 44.026C74.4949 43.41 74.7469 42.906 75.2509 42.514C75.7549 42.122 76.4409 41.8607 77.3089 41.73L79.4089 41.436V41.03C79.4089 40.0687 78.8536 39.588 77.7429 39.588C77.3136 39.588 76.9682 39.6767 76.7069 39.854C76.4456 40.022 76.2542 40.2227 76.1329 40.456C76.0956 40.5493 76.0536 40.6147 76.0069 40.652C75.9696 40.68 75.9136 40.694 75.8389 40.694H75.2929C75.2089 40.694 75.1342 40.666 75.0689 40.61C75.0129 40.5447 74.9849 40.47 74.9849 40.386C74.9849 40.1713 75.0829 39.924 75.2789 39.644C75.4842 39.3547 75.7969 39.1073 76.2169 38.902C76.6369 38.6873 77.1502 38.58 77.7569 38.58C78.8022 38.58 79.5489 38.8227 79.9969 39.308C80.4542 39.7933 80.6829 40.4 80.6829 41.128V45.678C80.6829 45.7713 80.6502 45.8507 80.5849 45.916C80.5289 45.972 80.4542 46 80.3609 46H79.7449C79.6516 46 79.5769 45.972 79.5209 45.916C79.4649 45.8507 79.4369 45.7713 79.4369 45.678V45.062C79.2316 45.37 78.9329 45.6267 78.5409 45.832C78.1489 46.0373 77.6449 46.14 77.0289 46.14ZM77.3089 45.118C77.9249 45.118 78.4289 44.9173 78.8209 44.516C79.2129 44.1147 79.4089 43.5313 79.4089 42.766V42.374L77.7709 42.612C77.0989 42.7053 76.5902 42.864 76.2449 43.088C75.8996 43.312 75.7269 43.592 75.7269 43.928C75.7269 44.3107 75.8809 44.6047 76.1889 44.81C76.5062 45.0153 76.8796 45.118 77.3089 45.118ZM85.4418 46C83.9951 46 83.2718 45.1833 83.2718 43.55V39.798H82.1658C82.0725 39.798 81.9978 39.77 81.9418 39.714C81.8858 39.658 81.8578 39.5833 81.8578 39.49V39.042C81.8578 38.9487 81.8858 38.874 81.9418 38.818C81.9978 38.7527 82.0725 38.72 82.1658 38.72H83.2718V36.382C83.2718 36.2887 83.2998 36.214 83.3558 36.158C83.4118 36.0927 83.4865 36.06 83.5798 36.06H84.1958C84.2891 36.06 84.3638 36.0927 84.4198 36.158C84.4851 36.214 84.5178 36.2887 84.5178 36.382V38.72H86.2538C86.3471 38.72 86.4218 38.7527 86.4778 38.818C86.5431 38.874 86.5758 38.9487 86.5758 39.042V39.49C86.5758 39.5833 86.5431 39.658 86.4778 39.714C86.4218 39.77 86.3471 39.798 86.2538 39.798H84.5178V43.452C84.5178 43.928 84.5925 44.2873 84.7418 44.53C84.9005 44.7727 85.1665 44.894 85.5398 44.894H86.3938C86.4871 44.894 86.5618 44.9267 86.6178 44.992C86.6738 45.048 86.7018 45.1227 86.7018 45.216V45.678C86.7018 45.7713 86.6738 45.8507 86.6178 45.916C86.5618 45.972 86.4871 46 86.3938 46H85.4418ZM88.2795 37.348C88.1862 37.348 88.1069 37.32 88.0415 37.264C87.9855 37.1987 87.9575 37.1193 87.9575 37.026V36.298C87.9575 36.2047 87.9855 36.1253 88.0415 36.06C88.1069 35.9947 88.1862 35.962 88.2795 35.962H89.1055C89.1989 35.962 89.2782 35.9947 89.3435 36.06C89.4089 36.1253 89.4415 36.2047 89.4415 36.298V37.026C89.4415 37.1193 89.4089 37.1987 89.3435 37.264C89.2782 37.32 89.1989 37.348 89.1055 37.348H88.2795ZM88.3915 46C88.2982 46 88.2189 45.972 88.1535 45.916C88.0975 45.8507 88.0695 45.7713 88.0695 45.678V39.042C88.0695 38.9487 88.0975 38.874 88.1535 38.818C88.2189 38.7527 88.2982 38.72 88.3915 38.72H89.0075C89.1009 38.72 89.1755 38.7527 89.2315 38.818C89.2969 38.874 89.3295 38.9487 89.3295 39.042V45.678C89.3295 45.7713 89.2969 45.8507 89.2315 45.916C89.1755 45.972 89.1009 46 89.0075 46H88.3915ZM94.3868 46.14C93.3601 46.14 92.5668 45.8507 92.0068 45.272C91.4561 44.6933 91.1621 43.9233 91.1248 42.962L91.1108 42.36L91.1248 41.758C91.1621 40.7967 91.4608 40.0267 92.0208 39.448C92.5901 38.8693 93.3788 38.58 94.3868 38.58C95.3948 38.58 96.1788 38.8693 96.7388 39.448C97.3081 40.0267 97.6115 40.7967 97.6488 41.758C97.6675 41.9633 97.6768 42.164 97.6768 42.36C97.6768 42.556 97.6675 42.7567 97.6488 42.962C97.6115 43.9233 97.3128 44.6933 96.7528 45.272C96.2021 45.8507 95.4135 46.14 94.3868 46.14ZM94.3868 45.09C94.9841 45.09 95.4555 44.9033 95.8008 44.53C96.1555 44.1473 96.3468 43.6013 96.3748 42.892C96.3841 42.7987 96.3888 42.6213 96.3888 42.36C96.3888 42.0987 96.3841 41.9213 96.3748 41.828C96.3468 41.1187 96.1555 40.5773 95.8008 40.204C95.4555 39.8213 94.9841 39.63 94.3868 39.63C93.7895 39.63 93.3135 39.8213 92.9588 40.204C92.6135 40.5773 92.4268 41.1187 92.3988 41.828L92.3848 42.36L92.3988 42.892C92.4268 43.6013 92.6135 44.1473 92.9588 44.53C93.3135 44.9033 93.7895 45.09 94.3868 45.09ZM99.7665 46C99.6732 46 99.5939 45.972 99.5285 45.916C99.4725 45.8507 99.4445 45.7713 99.4445 45.678V39.042C99.4445 38.9487 99.4725 38.874 99.5285 38.818C99.5939 38.7527 99.6732 38.72 99.7665 38.72H100.369C100.471 38.72 100.551 38.748 100.607 38.804C100.663 38.86 100.691 38.9393 100.691 39.042V39.658C100.971 39.3127 101.293 39.0467 101.657 38.86C102.03 38.6733 102.492 38.58 103.043 38.58C103.939 38.58 104.634 38.8693 105.129 39.448C105.623 40.0173 105.871 40.7733 105.871 41.716V45.678C105.871 45.7713 105.838 45.8507 105.773 45.916C105.717 45.972 105.642 46 105.549 46H104.905C104.811 46 104.732 45.972 104.667 45.916C104.611 45.8507 104.583 45.7713 104.583 45.678V41.8C104.583 41.128 104.419 40.6053 104.093 40.232C103.766 39.8587 103.299 39.672 102.693 39.672C102.095 39.672 101.619 39.8633 101.265 40.246C100.91 40.6193 100.733 41.1373 100.733 41.8V45.678C100.733 45.7713 100.7 45.8507 100.635 45.916C100.579 45.972 100.504 46 100.411 46H99.7665ZM23.934 67.14C22.982 67.14 22.2213 66.846 21.652 66.258C21.0827 65.6607 20.77 64.8487 20.714 63.822L20.7 63.346L20.714 62.884C20.77 61.876 21.0827 61.0733 21.652 60.476C22.2213 59.8787 22.982 59.58 23.934 59.58C24.9607 59.58 25.754 59.9067 26.314 60.56C26.8833 61.2133 27.168 62.1 27.168 63.22V63.472C27.168 63.5653 27.1353 63.6447 27.07 63.71C27.014 63.766 26.9393 63.794 26.846 63.794H21.988V63.92C22.016 64.5267 22.2027 65.0447 22.548 65.474C22.8933 65.9033 23.3507 66.118 23.92 66.118C24.3587 66.118 24.7133 66.034 24.984 65.866C25.264 65.6887 25.474 65.5067 25.614 65.32C25.698 65.208 25.7633 65.1427 25.81 65.124C25.8567 65.096 25.936 65.082 26.048 65.082H26.664C26.748 65.082 26.818 65.1053 26.874 65.152C26.9393 65.1987 26.972 65.2593 26.972 65.334C26.972 65.5393 26.846 65.7867 26.594 66.076C26.342 66.3653 25.9827 66.6173 25.516 66.832C25.0587 67.0373 24.5313 67.14 23.934 67.14ZM25.894 62.842V62.8C25.894 62.1467 25.7167 61.6147 25.362 61.204C25.0073 60.7933 24.5313 60.588 23.934 60.588C23.3273 60.588 22.8513 60.7933 22.506 61.204C22.1607 61.6147 21.988 62.1467 21.988 62.8V62.842H25.894ZM28.3839 67C28.2999 67 28.2299 66.972 28.1739 66.916C28.1179 66.86 28.0899 66.79 28.0899 66.706C28.0899 66.622 28.1226 66.5333 28.1879 66.44L30.6239 63.276L28.3419 60.266C28.2673 60.1633 28.2299 60.0793 28.2299 60.014C28.2299 59.93 28.2579 59.86 28.3139 59.804C28.3793 59.748 28.4493 59.72 28.5239 59.72H29.1959C29.3359 59.72 29.4573 59.7947 29.5599 59.944L31.4499 62.394L33.3399 59.944C33.3959 59.8693 33.4473 59.8133 33.4939 59.776C33.5499 59.7387 33.6199 59.72 33.7039 59.72H34.3479C34.4226 59.72 34.4879 59.748 34.5439 59.804C34.5999 59.86 34.6279 59.9253 34.6279 60C34.6279 60.0933 34.5953 60.182 34.5299 60.266L32.2199 63.304L34.6559 66.44C34.7213 66.5333 34.7539 66.622 34.7539 66.706C34.7539 66.79 34.7259 66.86 34.6699 66.916C34.6139 66.972 34.5439 67 34.4599 67H33.7739C33.6339 67 33.5126 66.93 33.4099 66.79L31.4079 64.2L29.4059 66.79C29.3499 66.8553 29.2939 66.9067 29.2379 66.944C29.1913 66.9813 29.1259 67 29.0419 67H28.3839ZM36.5755 69.66C36.4821 69.66 36.4028 69.632 36.3375 69.576C36.2815 69.52 36.2535 69.4407 36.2535 69.338V60.042C36.2535 59.9393 36.2815 59.86 36.3375 59.804C36.4028 59.748 36.4821 59.72 36.5755 59.72H37.1635C37.2661 59.72 37.3455 59.748 37.4015 59.804C37.4575 59.86 37.4855 59.9393 37.4855 60.042V60.658C38.0268 59.9393 38.7968 59.58 39.7955 59.58C40.7755 59.58 41.5081 59.8927 41.9935 60.518C42.4881 61.134 42.7495 61.9227 42.7775 62.884C42.7868 62.9867 42.7915 63.1453 42.7915 63.36C42.7915 63.5747 42.7868 63.7333 42.7775 63.836C42.7495 64.788 42.4881 65.5767 41.9935 66.202C41.5081 66.8273 40.7755 67.14 39.7955 67.14C38.7968 67.14 38.0408 66.7853 37.5275 66.076V69.338C37.5275 69.4313 37.4948 69.506 37.4295 69.562C37.3735 69.6273 37.2988 69.66 37.2055 69.66H36.5755ZM39.5295 66.048C40.2015 66.048 40.6915 65.838 40.9995 65.418C41.3075 64.998 41.4755 64.4473 41.5035 63.766C41.5128 63.6727 41.5175 63.5373 41.5175 63.36C41.5175 61.568 40.8548 60.672 39.5295 60.672C38.8761 60.672 38.3815 60.8913 38.0455 61.33C37.7188 61.7593 37.5461 62.268 37.5275 62.856C37.5181 62.9587 37.5135 63.1407 37.5135 63.402C37.5135 63.6633 37.5181 63.8453 37.5275 63.948C37.5461 64.5173 37.7235 65.012 38.0595 65.432C38.4048 65.8427 38.8948 66.048 39.5295 66.048ZM47.436 67.14C46.484 67.14 45.7233 66.846 45.154 66.258C44.5846 65.6607 44.272 64.8487 44.216 63.822L44.202 63.346L44.216 62.884C44.272 61.876 44.5846 61.0733 45.154 60.476C45.7233 59.8787 46.484 59.58 47.436 59.58C48.4626 59.58 49.256 59.9067 49.816 60.56C50.3853 61.2133 50.67 62.1 50.67 63.22V63.472C50.67 63.5653 50.6373 63.6447 50.572 63.71C50.516 63.766 50.4413 63.794 50.348 63.794H45.49V63.92C45.518 64.5267 45.7046 65.0447 46.05 65.474C46.3953 65.9033 46.8526 66.118 47.422 66.118C47.8606 66.118 48.2153 66.034 48.486 65.866C48.766 65.6887 48.976 65.5067 49.116 65.32C49.2 65.208 49.2653 65.1427 49.312 65.124C49.3586 65.096 49.438 65.082 49.55 65.082H50.166C50.25 65.082 50.32 65.1053 50.376 65.152C50.4413 65.1987 50.474 65.2593 50.474 65.334C50.474 65.5393 50.348 65.7867 50.096 66.076C49.844 66.3653 49.4846 66.6173 49.018 66.832C48.5606 67.0373 48.0333 67.14 47.436 67.14ZM49.396 62.842V62.8C49.396 62.1467 49.2186 61.6147 48.864 61.204C48.5093 60.7933 48.0333 60.588 47.436 60.588C46.8293 60.588 46.3533 60.7933 46.008 61.204C45.6626 61.6147 45.49 62.1467 45.49 62.8V62.842H49.396ZM52.6943 67C52.6009 67 52.5216 66.972 52.4563 66.916C52.4003 66.8507 52.3723 66.7713 52.3723 66.678V60.042C52.3723 59.9487 52.4003 59.874 52.4563 59.818C52.5216 59.7527 52.6009 59.72 52.6943 59.72H53.2963C53.3989 59.72 53.4783 59.748 53.5343 59.804C53.5903 59.86 53.6183 59.9393 53.6183 60.042V60.658C53.8983 60.3127 54.2203 60.0467 54.5843 59.86C54.9576 59.6733 55.4196 59.58 55.9703 59.58C56.8663 59.58 57.5616 59.8693 58.0563 60.448C58.5509 61.0173 58.7983 61.7733 58.7983 62.716V66.678C58.7983 66.7713 58.7656 66.8507 58.7003 66.916C58.6443 66.972 58.5696 67 58.4763 67H57.8323C57.7389 67 57.6596 66.972 57.5943 66.916C57.5383 66.8507 57.5103 66.7713 57.5103 66.678V62.8C57.5103 62.128 57.3469 61.6053 57.0203 61.232C56.6936 60.8587 56.2269 60.672 55.6203 60.672C55.0229 60.672 54.5469 60.8633 54.1923 61.246C53.8376 61.6193 53.6603 62.1373 53.6603 62.8V66.678C53.6603 66.7713 53.6276 66.8507 53.5623 66.916C53.5063 66.972 53.4316 67 53.3383 67H52.6943ZM63.3135 67.14C62.6695 67.14 62.1235 67.0373 61.6755 66.832C61.2368 66.6173 60.9102 66.3747 60.6955 66.104C60.4808 65.8333 60.3735 65.6093 60.3735 65.432C60.3735 65.3387 60.4062 65.2687 60.4715 65.222C60.5368 65.166 60.6068 65.138 60.6815 65.138H61.2695C61.3255 65.138 61.3675 65.1473 61.3955 65.166C61.4328 65.1847 61.4795 65.2267 61.5355 65.292C61.7502 65.5533 61.9882 65.7587 62.2495 65.908C62.5202 66.0573 62.8795 66.132 63.3275 66.132C63.8315 66.132 64.2328 66.0387 64.5315 65.852C64.8395 65.6653 64.9935 65.3947 64.9935 65.04C64.9935 64.8067 64.9282 64.62 64.7975 64.48C64.6668 64.34 64.4475 64.214 64.1395 64.102C63.8408 63.99 63.3928 63.8687 62.7955 63.738C61.9835 63.5607 61.4095 63.304 61.0735 62.968C60.7375 62.632 60.5695 62.198 60.5695 61.666C60.5695 61.3207 60.6722 60.9893 60.8775 60.672C61.0828 60.3453 61.3862 60.084 61.7875 59.888C62.1982 59.6827 62.6835 59.58 63.2435 59.58C63.8315 59.58 64.3308 59.678 64.7415 59.874C65.1615 60.07 65.4742 60.2987 65.6795 60.56C65.8942 60.8213 66.0015 61.0407 66.0015 61.218C66.0015 61.302 65.9688 61.372 65.9035 61.428C65.8475 61.484 65.7775 61.512 65.6935 61.512H65.1615C65.0308 61.512 64.9375 61.4607 64.8815 61.358C64.7228 61.1807 64.5875 61.0453 64.4755 60.952C64.3728 60.8493 64.2188 60.7653 64.0135 60.7C63.8082 60.6253 63.5515 60.588 63.2435 60.588C62.7862 60.588 62.4362 60.686 62.1935 60.882C61.9508 61.0687 61.8295 61.3207 61.8295 61.638C61.8295 61.834 61.8808 62.002 61.9835 62.142C62.0862 62.2727 62.2822 62.3987 62.5715 62.52C62.8608 62.632 63.2902 62.7487 63.8595 62.87C64.7462 63.0567 65.3715 63.3227 65.7355 63.668C66.1088 64.0133 66.2955 64.4567 66.2955 64.998C66.2955 65.3993 66.1788 65.7633 65.9455 66.09C65.7215 66.4167 65.3808 66.6733 64.9235 66.86C64.4755 67.0467 63.9388 67.14 63.3135 67.14ZM70.8149 67.14C69.8629 67.14 69.1022 66.846 68.5329 66.258C67.9635 65.6607 67.6509 64.8487 67.5949 63.822L67.5809 63.346L67.5949 62.884C67.6509 61.876 67.9635 61.0733 68.5329 60.476C69.1022 59.8787 69.8629 59.58 70.8149 59.58C71.8415 59.58 72.6349 59.9067 73.1949 60.56C73.7642 61.2133 74.0489 62.1 74.0489 63.22V63.472C74.0489 63.5653 74.0162 63.6447 73.9509 63.71C73.8949 63.766 73.8202 63.794 73.7269 63.794H68.8689V63.92C68.8969 64.5267 69.0835 65.0447 69.4289 65.474C69.7742 65.9033 70.2315 66.118 70.8009 66.118C71.2395 66.118 71.5942 66.034 71.8649 65.866C72.1449 65.6887 72.3549 65.5067 72.4949 65.32C72.5789 65.208 72.6442 65.1427 72.6909 65.124C72.7375 65.096 72.8169 65.082 72.9289 65.082H73.5449C73.6289 65.082 73.6989 65.1053 73.7549 65.152C73.8202 65.1987 73.8529 65.2593 73.8529 65.334C73.8529 65.5393 73.7269 65.7867 73.4749 66.076C73.2229 66.3653 72.8635 66.6173 72.3969 66.832C71.9395 67.0373 71.4122 67.14 70.8149 67.14ZM72.7749 62.842V62.8C72.7749 62.1467 72.5975 61.6147 72.2429 61.204C71.8882 60.7933 71.4122 60.588 70.8149 60.588C70.2082 60.588 69.7322 60.7933 69.3869 61.204C69.0415 61.6147 68.8689 62.1467 68.8689 62.8V62.842H72.7749ZM78.2432 67.14C77.5992 67.14 77.0532 67.0373 76.6052 66.832C76.1665 66.6173 75.8398 66.3747 75.6252 66.104C75.4105 65.8333 75.3032 65.6093 75.3032 65.432C75.3032 65.3387 75.3358 65.2687 75.4012 65.222C75.4665 65.166 75.5365 65.138 75.6112 65.138H76.1992C76.2552 65.138 76.2972 65.1473 76.3252 65.166C76.3625 65.1847 76.4092 65.2267 76.4652 65.292C76.6798 65.5533 76.9178 65.7587 77.1792 65.908C77.4498 66.0573 77.8092 66.132 78.2572 66.132C78.7612 66.132 79.1625 66.0387 79.4612 65.852C79.7692 65.6653 79.9232 65.3947 79.9232 65.04C79.9232 64.8067 79.8578 64.62 79.7272 64.48C79.5965 64.34 79.3772 64.214 79.0692 64.102C78.7705 63.99 78.3225 63.8687 77.7252 63.738C76.9132 63.5607 76.3392 63.304 76.0032 62.968C75.6672 62.632 75.4992 62.198 75.4992 61.666C75.4992 61.3207 75.6018 60.9893 75.8072 60.672C76.0125 60.3453 76.3158 60.084 76.7172 59.888C77.1278 59.6827 77.6132 59.58 78.1732 59.58C78.7612 59.58 79.2605 59.678 79.6712 59.874C80.0912 60.07 80.4038 60.2987 80.6092 60.56C80.8238 60.8213 80.9312 61.0407 80.9312 61.218C80.9312 61.302 80.8985 61.372 80.8332 61.428C80.7772 61.484 80.7072 61.512 80.6232 61.512H80.0912C79.9605 61.512 79.8672 61.4607 79.8112 61.358C79.6525 61.1807 79.5172 61.0453 79.4052 60.952C79.3025 60.8493 79.1485 60.7653 78.9432 60.7C78.7378 60.6253 78.4812 60.588 78.1732 60.588C77.7158 60.588 77.3658 60.686 77.1232 60.882C76.8805 61.0687 76.7592 61.3207 76.7592 61.638C76.7592 61.834 76.8105 62.002 76.9132 62.142C77.0158 62.2727 77.2118 62.3987 77.5012 62.52C77.7905 62.632 78.2198 62.7487 78.7892 62.87C79.6758 63.0567 80.3012 63.3227 80.6652 63.668C81.0385 64.0133 81.2252 64.4567 81.2252 64.998C81.2252 65.3993 81.1085 65.7633 80.8752 66.09C80.6512 66.4167 80.3105 66.6733 79.8532 66.86C79.4052 67.0467 78.8685 67.14 78.2432 67.14ZM89.2179 67.14C88.2192 67.14 87.4399 66.86 86.8799 66.3C86.3199 65.7307 86.0259 64.9373 85.9979 63.92L85.9839 63.36L85.9979 62.8C86.0259 61.7827 86.3199 60.994 86.8799 60.434C87.4399 59.8647 88.2192 59.58 89.2179 59.58C89.8899 59.58 90.4545 59.7013 90.9119 59.944C91.3785 60.1773 91.7239 60.4713 91.9479 60.826C92.1812 61.1807 92.3072 61.5353 92.3259 61.89C92.3352 61.974 92.3025 62.0487 92.2279 62.114C92.1625 62.1793 92.0879 62.212 92.0039 62.212H91.3879C91.2945 62.212 91.2245 62.1933 91.1779 62.156C91.1312 62.1093 91.0845 62.03 91.0379 61.918C90.8699 61.4607 90.6365 61.1387 90.3379 60.952C90.0485 60.756 89.6799 60.658 89.2319 60.658C88.6439 60.658 88.1772 60.84 87.8319 61.204C87.4865 61.568 87.2999 62.1233 87.2719 62.87L87.2579 63.36L87.2719 63.85C87.2999 64.5967 87.4865 65.152 87.8319 65.516C88.1772 65.88 88.6439 66.062 89.2319 66.062C89.6892 66.062 90.0625 65.9687 90.3519 65.782C90.6412 65.586 90.8699 65.2593 91.0379 64.802C91.0845 64.69 91.1312 64.6153 91.1779 64.578C91.2245 64.5313 91.2945 64.508 91.3879 64.508H92.0039C92.0879 64.508 92.1625 64.5407 92.2279 64.606C92.3025 64.6713 92.3352 64.746 92.3259 64.83C92.3072 65.1753 92.1812 65.5253 91.9479 65.88C91.7239 66.2347 91.3785 66.5333 90.9119 66.776C90.4545 67.0187 89.8899 67.14 89.2179 67.14ZM96.9571 67.14C95.9305 67.14 95.1371 66.8507 94.5771 66.272C94.0265 65.6933 93.7325 64.9233 93.6951 63.962L93.6811 63.36L93.6951 62.758C93.7325 61.7967 94.0311 61.0267 94.5911 60.448C95.1605 59.8693 95.9491 59.58 96.9571 59.58C97.9651 59.58 98.7491 59.8693 99.3091 60.448C99.8785 61.0267 100.182 61.7967 100.219 62.758C100.238 62.9633 100.247 63.164 100.247 63.36C100.247 63.556 100.238 63.7567 100.219 63.962C100.182 64.9233 99.8831 65.6933 99.3231 66.272C98.7725 66.8507 97.9838 67.14 96.9571 67.14ZM96.9571 66.09C97.5545 66.09 98.0258 65.9033 98.3711 65.53C98.7258 65.1473 98.9171 64.6013 98.9451 63.892C98.9545 63.7987 98.9591 63.6213 98.9591 63.36C98.9591 63.0987 98.9545 62.9213 98.9451 62.828C98.9171 62.1187 98.7258 61.5773 98.3711 61.204C98.0258 60.8213 97.5545 60.63 96.9571 60.63C96.3598 60.63 95.8838 60.8213 95.5291 61.204C95.1838 61.5773 94.9971 62.1187 94.9691 62.828L94.9551 63.36L94.9691 63.892C94.9971 64.6013 95.1838 65.1473 95.5291 65.53C95.8838 65.9033 96.3598 66.09 96.9571 66.09ZM104.289 67C104.046 67 103.874 66.8833 103.771 66.65L101.167 60.154C101.158 60.126 101.153 60.0793 101.153 60.014C101.153 59.93 101.181 59.86 101.237 59.804C101.293 59.748 101.358 59.72 101.433 59.72H102.077C102.226 59.72 102.338 59.7947 102.413 59.944L104.569 65.53L106.725 59.944C106.744 59.888 106.781 59.8367 106.837 59.79C106.902 59.7433 106.977 59.72 107.061 59.72H107.705C107.78 59.72 107.845 59.748 107.901 59.804C107.957 59.86 107.985 59.93 107.985 60.014L107.957 60.154L105.367 66.65C105.264 66.8833 105.092 67 104.849 67H104.289ZM112.104 67.14C111.152 67.14 110.391 66.846 109.822 66.258C109.253 65.6607 108.94 64.8487 108.884 63.822L108.87 63.346L108.884 62.884C108.94 61.876 109.253 61.0733 109.822 60.476C110.391 59.8787 111.152 59.58 112.104 59.58C113.131 59.58 113.924 59.9067 114.484 60.56C115.053 61.2133 115.338 62.1 115.338 63.22V63.472C115.338 63.5653 115.305 63.6447 115.24 63.71C115.184 63.766 115.109 63.794 115.016 63.794H110.158V63.92C110.186 64.5267 110.373 65.0447 110.718 65.474C111.063 65.9033 111.521 66.118 112.09 66.118C112.529 66.118 112.883 66.034 113.154 65.866C113.434 65.6887 113.644 65.5067 113.784 65.32C113.868 65.208 113.933 65.1427 113.98 65.124C114.027 65.096 114.106 65.082 114.218 65.082H114.834C114.918 65.082 114.988 65.1053 115.044 65.152C115.109 65.1987 115.142 65.2593 115.142 65.334C115.142 65.5393 115.016 65.7867 114.764 66.076C114.512 66.3653 114.153 66.6173 113.686 66.832C113.229 67.0373 112.701 67.14 112.104 67.14ZM114.064 62.842V62.8C114.064 62.1467 113.887 61.6147 113.532 61.204C113.177 60.7933 112.701 60.588 112.104 60.588C111.497 60.588 111.021 60.7933 110.676 61.204C110.331 61.6147 110.158 62.1467 110.158 62.8V62.842H114.064ZM117.362 67C117.269 67 117.19 66.972 117.124 66.916C117.068 66.8507 117.04 66.7713 117.04 66.678V60.056C117.04 59.9627 117.068 59.8833 117.124 59.818C117.19 59.7527 117.269 59.72 117.362 59.72H117.95C118.053 59.72 118.132 59.7527 118.188 59.818C118.254 59.874 118.286 59.9533 118.286 60.056V60.672C118.669 60.0373 119.318 59.72 120.232 59.72H120.778C120.881 59.72 120.96 59.748 121.016 59.804C121.072 59.86 121.1 59.9393 121.1 60.042V60.56C121.1 60.6533 121.072 60.7327 121.016 60.798C120.96 60.854 120.881 60.882 120.778 60.882H119.98C119.467 60.882 119.061 61.0313 118.762 61.33C118.473 61.6287 118.328 62.0347 118.328 62.548V66.678C118.328 66.7713 118.296 66.8507 118.23 66.916C118.165 66.972 118.086 67 117.992 67H117.362ZM124.211 67.14C123.753 67.14 123.329 67.0467 122.937 66.86C122.554 66.6733 122.246 66.4213 122.013 66.104C121.789 65.7773 121.677 65.418 121.677 65.026C121.677 64.41 121.929 63.906 122.433 63.514C122.937 63.122 123.623 62.8607 124.491 62.73L126.591 62.436V62.03C126.591 61.0687 126.035 60.588 124.925 60.588C124.495 60.588 124.15 60.6767 123.889 60.854C123.627 61.022 123.436 61.2227 123.315 61.456C123.277 61.5493 123.235 61.6147 123.189 61.652C123.151 61.68 123.095 61.694 123.021 61.694H122.475C122.391 61.694 122.316 61.666 122.251 61.61C122.195 61.5447 122.167 61.47 122.167 61.386C122.167 61.1713 122.265 60.924 122.461 60.644C122.666 60.3547 122.979 60.1073 123.399 59.902C123.819 59.6873 124.332 59.58 124.939 59.58C125.984 59.58 126.731 59.8227 127.179 60.308C127.636 60.7933 127.865 61.4 127.865 62.128V66.678C127.865 66.7713 127.832 66.8507 127.767 66.916C127.711 66.972 127.636 67 127.543 67H126.927C126.833 67 126.759 66.972 126.703 66.916C126.647 66.8507 126.619 66.7713 126.619 66.678V66.062C126.413 66.37 126.115 66.6267 125.723 66.832C125.331 67.0373 124.827 67.14 124.211 67.14ZM124.491 66.118C125.107 66.118 125.611 65.9173 126.003 65.516C126.395 65.1147 126.591 64.5313 126.591 63.766V63.374L124.953 63.612C124.281 63.7053 123.772 63.864 123.427 64.088C123.081 64.312 122.909 64.592 122.909 64.928C122.909 65.3107 123.063 65.6047 123.371 65.81C123.688 66.0153 124.061 66.118 124.491 66.118ZM132.846 70.08C132.071 70.08 131.45 69.9493 130.984 69.688C130.517 69.4267 130.186 69.128 129.99 68.792C129.803 68.456 129.71 68.1667 129.71 67.924C129.71 67.84 129.742 67.7653 129.808 67.7C129.873 67.644 129.948 67.616 130.032 67.616H130.648C130.732 67.616 130.802 67.6347 130.858 67.672C130.914 67.7187 130.96 67.798 130.998 67.91C131.259 68.6567 131.852 69.03 132.776 69.03C133.476 69.03 133.994 68.8807 134.33 68.582C134.666 68.2833 134.834 67.756 134.834 67V66.034C134.292 66.7247 133.536 67.07 132.566 67.07C131.576 67.07 130.834 66.7527 130.34 66.118C129.854 65.4833 129.598 64.6807 129.57 63.71L129.556 63.318L129.57 62.94C129.598 61.9787 129.854 61.1807 130.34 60.546C130.834 59.902 131.576 59.58 132.566 59.58C133.546 59.58 134.311 59.9393 134.862 60.658V60.056C134.862 59.9627 134.89 59.8833 134.946 59.818C135.011 59.7527 135.09 59.72 135.184 59.72H135.786C135.879 59.72 135.954 59.7527 136.01 59.818C136.075 59.8833 136.108 59.9627 136.108 60.056V66.846C136.108 69.002 135.02 70.08 132.846 70.08ZM132.818 65.978C133.471 65.978 133.961 65.768 134.288 65.348C134.624 64.9187 134.806 64.4053 134.834 63.808C134.843 63.724 134.848 63.5607 134.848 63.318C134.848 63.0847 134.843 62.926 134.834 62.842C134.806 62.2447 134.624 61.736 134.288 61.316C133.961 60.8867 133.471 60.672 132.818 60.672C132.146 60.672 131.656 60.8867 131.348 61.316C131.049 61.736 130.886 62.282 130.858 62.954L130.844 63.318L130.858 63.696C130.886 64.368 131.049 64.9187 131.348 65.348C131.656 65.768 132.146 65.978 132.818 65.978ZM141.102 67.14C140.15 67.14 139.389 66.846 138.82 66.258C138.251 65.6607 137.938 64.8487 137.882 63.822L137.868 63.346L137.882 62.884C137.938 61.876 138.251 61.0733 138.82 60.476C139.389 59.8787 140.15 59.58 141.102 59.58C142.129 59.58 142.922 59.9067 143.482 60.56C144.051 61.2133 144.336 62.1 144.336 63.22V63.472C144.336 63.5653 144.303 63.6447 144.238 63.71C144.182 63.766 144.107 63.794 144.014 63.794H139.156V63.92C139.184 64.5267 139.371 65.0447 139.716 65.474C140.061 65.9033 140.519 66.118 141.088 66.118C141.527 66.118 141.881 66.034 142.152 65.866C142.432 65.6887 142.642 65.5067 142.782 65.32C142.866 65.208 142.931 65.1427 142.978 65.124C143.025 65.096 143.104 65.082 143.216 65.082H143.832C143.916 65.082 143.986 65.1053 144.042 65.152C144.107 65.1987 144.14 65.2593 144.14 65.334C144.14 65.5393 144.014 65.7867 143.762 66.076C143.51 66.3653 143.151 66.6173 142.684 66.832C142.227 67.0373 141.699 67.14 141.102 67.14ZM143.062 62.842V62.8C143.062 62.1467 142.885 61.6147 142.53 61.204C142.175 60.7933 141.699 60.588 141.102 60.588C140.495 60.588 140.019 60.7933 139.674 61.204C139.329 61.6147 139.156 62.1467 139.156 62.8V62.842H143.062Z" fill="black"/>
</g>
<defs>
<clipPath id="clip0">
<rect width="172" height="112" fill="white"/>
</clipPath>
</defs>
</svg>
