<svg width="320" height="160" viewBox="0 0 320 160" fill="none" xmlns="http://www.w3.org/2000/svg">
<path d="M286.152 156.902C280.95 159.878 90.7911 159.571 67.2598 159.571C57.5144 159.571 48.735 161.818 41.9161 156.024C34.8056 149.981 29.2395 141.241 23.9939 134.105C13.1583 119.365 4.40752 103.224 3.13078 85.9416C2.64303 79.3152 3.37943 72.3361 7.75002 66.6991C12.1206 61.0621 20.9287 57.2351 28.8426 59.1832C36.3692 61.0353 43.2359 67.6041 50.4278 65.0349C55.267 63.3054 56.6059 58.4162 57.4953 54.2288C60.8235 38.5334 66.9442 22.4124 81.0888 11.242C95.2382 0.0754223 119.296 -4.27694 135.257 5.19088C144.061 10.4137 149.043 18.7656 152.744 27.0332C156.446 35.3008 159.286 43.9518 165.225 51.3297C171.164 58.7077 181.125 64.7703 192.061 64.3446C201.662 63.9688 209.868 58.8112 216.749 53.4273C223.63 48.0396 230.224 42.0153 239.109 39.0703C247.994 36.1214 260.087 37.5326 264.496 44.3851C268.331 50.3481 265.012 57.5036 262.167 63.8116C258.858 71.155 256.218 78.9778 257.634 86.7008C259.049 94.4239 265.423 102.013 274.858 103.934C283.484 105.69 292.814 102.55 301.407 104.406C314.164 107.163 319.697 120.304 315.742 130.412C311.788 140.521 301.225 147.975 290.6 154.272C290.6 154.272 290.6 154.272 290.595 154.272C288.897 155.284 287.458 156.155 286.152 156.902Z" fill="#FAFCFF"/>
<path d="M222.649 13C224.797 13.0224 226.82 13.8497 228.627 14.8379C236.246 19.0011 241.134 26.1336 243.481 33.5881C245.834 41.0426 245.892 48.8727 245.604 56.5865C245.488 59.7659 246.196 71.6743 240.558 68.8884C236.796 67.0281 233.055 57.5971 231.184 54.3417C227.485 47.9112 224.865 41.0247 223.419 33.9682C223.068 32.2689 220.957 12.9821 222.649 13Z" fill="#EDF5FF"/>
<path d="M252.064 74.022C260.306 63.1779 271.765 54.1315 285.073 47.9649C285.429 52.3338 283.208 56.5686 280.457 60.2713C273.939 69.036 267.83 75.1578 259.011 82.1517C256.502 84.1417 245.944 90.0578 245.231 89.0427C242.978 85.8365 249.973 76.7677 252.064 74.022Z" fill="#E3EFFF"/>
<path d="M238.19 128.9L237.194 128.685C239.248 121.705 240.736 114.344 241.616 106.814C242.449 99.6945 242.764 92.2177 242.549 84.5933C242.35 77.4384 241.679 69.9437 240.558 62.3193C239.489 55.0571 238.032 47.6832 236.23 40.3986C234.794 34.6032 232.657 27.0504 228.821 20.0073C228.397 19.2292 227.951 18.4556 227.496 17.7088L228.407 17.3063C228.868 18.0665 229.324 18.8491 229.754 19.6406C233.636 26.7642 235.79 34.3796 237.236 40.2198C239.044 47.5267 240.505 54.9275 241.574 62.212C242.701 69.8677 243.371 77.3937 243.576 84.5754C243.791 92.2356 243.476 99.7482 242.638 106.903C241.752 114.474 240.254 121.875 238.19 128.9Z" fill="#E3EFFF"/>
<path d="M242.858 98.1965C242.853 98.1965 242.842 98.1965 242.837 98.1965C242.554 98.1875 242.334 97.9818 242.345 97.7403C242.565 92.9198 245.483 87.2987 251.027 81.0293C258.949 72.0723 267.138 62.8112 278.325 56.3897C278.56 56.2556 278.88 56.3092 279.037 56.5105C279.194 56.7117 279.131 56.9845 278.896 57.1186C267.851 63.4552 259.714 72.6581 251.844 81.5569C246.431 87.6788 243.581 93.1344 243.372 97.7716C243.361 98.0131 243.131 98.1965 242.858 98.1965Z" fill="#EFF6FF"/>
<path fill-rule="evenodd" clip-rule="evenodd" d="M242.8 83.1668C242.848 83.1847 242.895 83.1936 242.942 83.1936C243.083 83.1936 243.214 83.1265 243.272 83.0058C246.358 76.8839 249.565 69.738 250.55 62.3283C250.555 62.3193 250.561 62.3104 250.568 62.3014C250.575 62.2925 250.581 62.2835 250.586 62.2746C252.305 59.2785 253.714 56.3316 255.129 53.3221C258.037 47.1331 259.357 41.928 259.284 36.9419C259.232 33.5523 258.498 28.8659 255.548 24.5596C255.559 24.3539 255.223 23.9335 253.872 22.4399L253.541 22.0732L253.274 22.4757C248.994 28.8927 248.779 36.4187 249.072 42.2634C249.182 44.1952 249.35 46.1717 249.512 48.0856C249.842 51.9671 250.183 55.9739 250.073 59.8509C249.559 68.0253 246.012 76.0209 242.612 82.7643C242.533 82.9208 242.617 83.0997 242.8 83.1668ZM249.79 42.241C249.512 36.6513 249.701 29.5053 253.541 23.3477C253.908 23.853 254.5 24.4075 254.762 24.64C257.77 28.8972 258.509 33.5836 258.561 36.9553C258.64 41.8564 257.335 46.9856 254.458 53.0985C253.279 55.6161 252.095 58.089 250.738 60.5798C250.758 60.3593 250.773 60.1347 250.788 59.9138L250.791 59.8777C250.901 55.9649 250.56 51.9403 250.23 48.0454C250.068 46.1359 249.9 44.1639 249.79 42.241Z" fill="#E3EFFF"/>
<path d="M303.587 92.9595C302.56 91.6 300.889 90.7012 299.176 90.0081C291.961 87.1059 283.425 87.3295 275.797 89.3239C268.168 91.3183 261.283 94.9539 254.666 98.7549C251.936 100.32 241.179 105.454 246.261 107.743C249.651 109.273 259.664 107.233 263.395 106.902C270.762 106.245 278.018 104.689 284.877 102.301C286.517 101.724 304.394 94.0282 303.587 92.9595Z" fill="#F2F8FF"/>
<path d="M297.122 91.3005C296.241 91.3631 295.34 91.4391 294.444 91.5375C286.386 92.4005 278.71 94.5962 272.915 96.4162C265.669 98.6879 258.506 101.228 251.627 103.96C244.396 106.831 237.49 109.93 231.109 113.172C230.344 113.561 229.589 113.95 228.835 114.348C229.359 114.375 229.883 114.406 230.407 114.437C230.794 114.236 231.177 114.035 231.57 113.838C237.925 110.614 244.805 107.524 252.004 104.667C258.863 101.943 266.004 99.4123 273.224 97.1451C278.972 95.343 286.585 93.1607 294.554 92.3066C295.435 92.2127 296.32 92.1322 297.19 92.0741L297.122 91.3005Z" fill="#E2EEFF"/>
<path fill-rule="evenodd" clip-rule="evenodd" d="M253.513 91.9489C244.915 97.8024 238.13 105.503 232.549 112.407C232.445 112.541 232.445 112.707 232.544 112.828C232.576 112.868 232.618 112.908 232.67 112.939C232.874 113.06 233.157 113.015 233.299 112.841C239.445 105.235 247.063 96.6532 256.929 90.7191C261.697 88.0226 266.931 85.6481 271.998 83.3541C274.497 82.2227 277.08 81.0511 279.564 79.8616C287.062 76.2171 296.32 70.9851 301.47 62.7973L301.801 62.2875L301.119 62.2294C298.353 62.0013 297.598 61.9745 297.352 62.1265C289.996 62.3233 283.645 64.7962 279.381 67.0142C273.098 70.2786 267.482 74.965 261.697 81.7532C258.889 85.0534 256.148 88.3133 253.555 91.8773C253.539 91.8997 253.523 91.9265 253.513 91.9489ZM279.847 67.6715C284.096 65.4625 290.446 62.9985 297.777 62.8912C298.248 62.9762 299.333 63.1461 300.213 63.1371C295.089 70.7526 286.281 75.7073 279.113 79.1953C276.723 80.3409 274.234 81.4697 271.818 82.5656L271.568 82.6789L271.568 82.6792C266.48 84.9865 261.225 87.3699 256.41 90.0886L256.41 90.0886C256.127 90.2586 255.844 90.4285 255.567 90.6029C257.773 87.7007 260.073 84.9684 262.425 82.2093C268.136 75.5016 273.675 70.8823 279.847 67.6715Z" fill="#D3E6FD"/>
<path d="M254.142 91.0947L254.702 91.7029C256.106 90.7549 257.904 89.3999 259.806 87.96C262.059 86.2607 264.385 84.4988 266.093 83.4122C271.668 79.8482 277.41 76.3513 283.169 73.0108C288.927 69.6749 294.853 66.406 300.789 63.2936L300.318 62.6363C294.371 65.7531 288.429 69.0265 282.66 72.3714C276.892 75.7163 271.133 79.2221 265.548 82.7906C263.814 83.8996 261.472 85.6705 259.203 87.3787C257.317 88.8141 255.525 90.1646 254.142 91.0947Z" fill="#D3E6FD"/>
<path d="M188.389 53.1744C182.249 43.1316 173.519 35.1511 163.244 30.1867C162.824 34.5544 164.437 38.5655 166.487 41.9997C171.34 50.1315 175.95 55.6788 182.667 61.8502C184.58 63.608 192.694 68.559 193.289 67.4928C195.161 64.1083 189.946 55.7188 188.389 53.1744Z" fill="#F3F9FF"/>
<path d="M193.481 67.8397C192.435 65.3417 190.932 62.7382 188.978 60.0425C183.029 51.8409 176.881 43.3602 168.28 37.9647C168.099 37.8484 167.845 37.9313 167.715 38.1469C167.582 38.3602 167.624 38.6267 167.807 38.7386C176.292 44.0669 182.406 52.4913 188.317 60.6412C190.369 63.4719 191.91 66.1882 192.935 68.7767C193.122 68.4614 193.299 68.146 193.481 67.8397Z" fill="#D5E8FF"/>
<path d="M239.691 115.773C238.927 112.861 238.395 109.46 240.386 107.6C240.678 107.325 241.053 107.091 241.493 107.145C242.278 107.237 242.773 108.131 243.453 108.608C244.888 109.62 246.698 108.425 246.987 106.898C247.276 105.372 246.658 103.704 246.496 102.096C246.354 100.693 246.56 99.3132 247.096 98.1046C247.797 96.5272 249.755 95.2047 251.394 96.3407C252.581 97.1675 252.776 98.7204 253.061 100.051C253.346 101.382 254.264 103.011 255.618 103.02C256.781 103.027 257.306 101.815 257.691 100.802C258.624 98.321 260.014 96.061 261.785 94.1379C263.019 92.7976 264.513 91.5877 266.422 91.269C268.327 90.9469 270.713 91.7467 271.828 93.5232C272.865 95.1812 272.545 97.1602 271.808 98.7073C269.801 102.925 265.322 105.214 261.907 108.355C261.1 109.097 260.351 110.372 261.208 111.324C261.81 111.992 262.788 111.984 263.635 112.042C265.697 112.177 267.823 113.092 269.465 114.558C269.746 114.81 270.024 115.09 270.15 115.429C270.441 116.199 269.837 116.878 269.192 117.247C266.202 118.952 261.675 117.728 258.914 119.731C258.545 120 258.197 120.373 258.234 120.859C258.261 121.209 258.491 121.548 258.748 121.828C259.813 122.996 261.395 123.483 262.779 124.23C264.163 124.977 265.56 126.394 265.286 127.763C265.079 128.792 264.005 129.322 262.975 129.596C259.801 130.428 256.176 129.897 252.794 128.711C249.763 127.645 245.789 126.056 243.222 123.931C240.805 121.92 240.392 118.451 239.691 115.773Z" fill="#E8F3FF"/>
<path d="M267.34 96.8024L241.237 127.91" stroke="#E5EDF7" stroke-linecap="round"/>
<path d="M249.837 97.8367C250.811 103.271 251.651 108.71 252.355 114.146" stroke="#E5EDF7" stroke-linecap="round"/>
<path d="M241.635 109.266C242.916 113.739 244.089 118.226 245.161 122.721" stroke="#E5EDF7" stroke-linecap="round"/>
<path d="M251.539 116.334C256.473 116.078 261.423 115.9 266.387 115.804" stroke="#E5EDF7" stroke-linecap="round"/>
<path d="M179.856 63.3683C178.671 63.2083 177.413 63.2056 176.2 63.4124C174.501 63.5595 172.751 64.2254 171.401 65.4865C168.481 68.2075 168.308 72.727 169.503 76.0618C170.701 79.4132 173.007 82.1892 176.004 83.8972C178.137 85.1123 180.714 85.7906 183.335 85.2131C183.509 85.1737 183.678 85.1314 183.851 85.0782C186.127 85.1345 188.155 83.9771 189.748 82.0166C190.94 80.5475 191.8 78.1234 191.949 76.3534C192.128 74.1713 191.819 72.1745 190.763 70.4408C188.58 66.851 184.147 63.9593 179.856 63.3683Z" fill="#F2F8FF"/>
<path d="M173.589 68.8202L192.508 84.6955" stroke="#E2EEFF" stroke-linecap="round"/>
<path d="M171.586 77.7888C174.838 77.4881 178.091 77.1875 181.344 76.8869" stroke="#E2EEFF" stroke-linecap="round"/>
<path d="M176.006 82.0449C177.389 81.8785 178.769 81.7574 180.149 81.6708" stroke="#E2EEFF" stroke-linecap="round"/>
<path d="M182.741 81.6431C184.434 81.511 186.13 81.3266 187.828 81.09" stroke="#E2EEFF" stroke-linecap="round"/>
<path d="M179.768 73.9023C179.414 71.4508 178.992 69.0177 178.513 66.6045" stroke="#E2EEFF" stroke-linecap="round"/>
<path d="M186.018 78.9139C185.888 76.8766 185.8 74.8325 185.742 72.7797" stroke="#E2EEFF" stroke-linecap="round"/>
<path d="M64.3052 13.2968C62.6709 14.2296 61.5118 15.7174 60.5977 17.235C56.7456 23.61 56.3952 31.0423 58.1473 37.6331C59.8979 44.2198 63.5914 50.1088 67.4904 55.766C69.0976 58.0982 74.2318 67.3174 77.2282 62.8195C79.2247 59.8181 77.5941 51.1558 77.4792 47.9141C77.2508 41.511 75.9762 35.2365 73.7167 29.3348C73.1754 27.909 65.5982 12.5598 64.3052 13.2968Z" fill="#EDF5FF"/>
<path d="M70.855 71.5825C59.3644 66.9896 46.266 65.1185 33.1187 66.1919C34.9282 69.6163 38.6534 71.8391 42.5283 73.4315C51.7078 77.2048 59.3067 79.1787 69.4058 80.6377C72.2781 81.0532 83.1926 80.9686 83.2564 79.9032C83.4551 76.5425 73.7716 72.748 70.855 71.5825Z" fill="#EDF5FF"/>
<path d="M107.667 106.742L108.33 106.159C103.424 101.81 98.773 96.9359 94.5085 91.6687C90.4731 86.6941 86.6721 81.2297 83.1946 75.4286C79.9366 69.9855 76.8747 64.0854 74.0979 57.8961C71.4557 52.0004 69.0521 45.856 66.9595 39.6318C65.2962 34.6789 63.3338 28.1075 62.9123 21.1894C62.8682 20.425 62.839 19.6552 62.8321 18.901L61.9433 18.9866C61.9498 19.7552 61.9772 20.5352 62.0258 21.3122C62.4471 28.3065 64.4246 34.9343 66.1016 39.925C68.2019 46.1703 70.6082 52.3374 73.2629 58.2524C76.0489 64.4669 79.1249 70.3903 82.397 75.8569C85.8852 81.6874 89.7117 87.1759 93.7627 92.1781C98.0511 97.4651 102.729 102.368 107.667 106.742Z" fill="#E3EFFF"/>
<path d="M89.4439 85.7506C89.4488 85.7488 89.4537 85.747 89.4571 85.741C89.6668 85.6123 89.7441 85.3653 89.6196 85.1917C87.1516 81.6738 82.2328 78.7149 74.9968 76.3899C64.6497 73.0701 53.9554 69.6388 42.3175 69.6203C42.0718 69.6193 41.8529 69.7989 41.83 70.0119C41.8037 70.2308 41.9802 70.4093 42.2244 70.4061C53.7125 70.4267 64.3423 73.834 74.6199 77.1315C81.6897 79.3979 86.4739 82.2631 88.849 85.6482C88.9702 85.8278 89.2296 85.8666 89.4439 85.7506Z" fill="#E3EFFF"/>
<path fill-rule="evenodd" clip-rule="evenodd" d="M59.5814 56.9695C65.7005 64.2836 74.0741 69.9635 81.6172 74.6179C81.7615 74.7082 81.9537 74.7001 82.0956 74.6151C82.1467 74.587 82.1948 74.5505 82.2333 74.5031C82.384 74.3198 82.3571 74.0774 82.163 73.9577C73.8515 68.831 64.5324 62.4531 58.4065 54.0326C55.652 49.9576 53.2914 45.4632 51.0134 41.1195C49.8933 38.9765 48.7293 36.759 47.5357 34.6285C43.8774 28.2079 38.5208 20.2926 29.4726 16.0528L28.906 15.7831L28.7945 16.3805C28.3363 18.7982 28.2526 19.4568 28.4072 19.667C28.1116 26.0704 30.4987 31.526 32.7488 35.1803C36.0589 40.5521 41.0464 45.3087 48.4437 50.1447C52.0358 52.492 55.5852 54.7835 59.5024 56.9363C59.5298 56.9502 59.5556 56.9598 59.5814 56.9695ZM33.5448 34.7478C31.3074 31.1127 28.9252 25.6554 29.3212 19.2677C29.4496 18.8545 29.7224 17.9034 29.7712 17.1338C38.1638 21.3648 43.2334 28.8897 46.7354 35.034C47.8485 37.0179 48.9313 39.0794 49.9869 41.0891C50.0604 41.2291 50.1337 41.3688 50.207 41.5082L50.2169 41.527C52.5043 45.884 54.8668 50.384 57.6489 54.494C57.8255 54.7343 58.0022 54.9745 58.1838 55.213C55.0028 53.3823 52.0273 51.4577 49.0203 49.4923C41.7176 44.717 36.8001 40.0302 33.5448 34.7478Z" fill="#E3EFFF"/>
<path d="M58.6481 56.443L59.384 55.9372C58.398 54.7448 56.9609 53.2168 55.4412 51.5999C53.6469 49.688 51.7906 47.713 50.6593 46.2593C46.9572 41.5108 43.3433 36.6064 39.9151 31.6916C36.487 26.7767 33.152 21.7042 29.9994 16.6272L29.2082 17.0579C32.3654 22.1475 35.7133 27.2248 39.1461 32.1523C42.5788 37.0798 46.2007 41.9908 49.9124 46.7501C51.0642 48.2296 52.9316 50.2196 54.7403 52.1406C56.2455 53.7484 57.6731 55.2656 58.6481 56.443Z" fill="#E3EFFF"/>
<path d="M133.285 61.0359C138.451 55.1062 146.129 51.4583 154.009 48.5825C159.374 61.9557 155.824 76.6771 145.303 84.7043C143.467 86.1024 141.391 87.3305 138.934 87.771C132.203 88.9711 128.637 84.4283 127.983 79.0423C127.144 72.186 128.972 65.9916 133.285 61.0359Z" fill="#F2F8FF"/>
<path d="M151.915 53.5081L128.69 93.7364" stroke="#EAF3FE" stroke-linecap="round"/>
<path d="M143.877 53.8914C144.004 57.4033 144.175 60.9206 144.392 64.4434" stroke="#EAF3FE" stroke-linecap="round"/>
<path d="M141.375 72.3728C145.626 71.4551 149.757 70.2205 153.714 68.6791" stroke="#EAF3FE" stroke-linecap="round"/>
<path d="M92.8504 32.3399C94.4876 32.8115 95.9257 34.0498 97.1868 35.4009C102.482 41.0965 105.332 49.1449 106.204 56.9817C107.076 64.8185 106.149 72.5489 104.972 80.0891C104.489 83.1984 103.551 95.0805 99.5924 91.1562C96.9497 88.5394 95.2652 78.461 94.2372 74.8596C92.2109 67.7465 91.0631 60.4141 90.8345 53.1553C90.7854 51.4175 91.5635 31.9696 92.8504 32.3399Z" fill="#F2F8FF"/>
<path d="M96.7164 37.7815C96.9734 38.6257 97.2254 39.4943 97.4546 40.366C99.5368 48.1985 100.238 56.1515 100.615 62.2137C101.091 69.7928 101.287 77.3898 101.202 84.7915C101.113 92.5707 100.694 100.128 99.9545 107.248C99.8654 108.102 99.7726 108.945 99.6715 109.792C99.4586 109.313 99.2417 108.835 99.0247 108.357C99.0736 107.923 99.1244 107.494 99.1672 107.056C99.8996 99.9675 100.319 92.4375 100.407 84.6925C100.491 77.3136 100.295 69.7394 99.8241 62.1863C99.4467 56.1745 98.7557 48.2851 96.6971 40.539C96.4693 39.6835 96.2272 38.828 95.9697 37.9952L96.7164 37.7815Z" fill="#E2EEFF"/>
<path fill-rule="evenodd" clip-rule="evenodd" d="M111.739 78.7261C109.355 88.8509 104.598 97.945 100.152 105.629C100.064 105.775 99.9098 105.834 99.7614 105.784C99.7126 105.769 99.66 105.745 99.612 105.707C99.426 105.56 99.3664 105.279 99.4785 105.085C104.377 96.6211 109.659 86.4335 111.663 75.0962C112.471 69.6785 112.812 63.9409 113.138 58.3887C113.299 55.65 113.467 52.8186 113.687 50.0738C114.403 41.7679 115.97 31.2496 121.768 23.5069L122.125 23.0161L122.424 23.6312C123.628 26.1322 123.924 26.8269 123.87 27.1113C126.322 34.0495 126.29 40.8643 125.747 45.6409C124.951 52.6757 122.589 59.5989 118.324 67.4318C116.25 71.2363 114.189 74.9628 111.791 78.6614C111.775 78.6841 111.756 78.7084 111.739 78.7261ZM124.967 45.4411C125.506 40.6824 125.531 33.8709 123.004 26.9891C122.756 26.5793 122.208 25.6277 121.901 24.8027C116.628 32.3158 115.159 42.3141 114.471 50.2557C114.258 52.898 114.096 55.6259 113.939 58.2743L113.923 58.5478L113.923 58.5486C113.592 64.125 113.25 69.885 112.437 75.3545L112.437 75.3546C112.38 75.6796 112.323 76.0046 112.259 76.3263C114.178 73.2269 115.905 70.1004 117.638 66.9153C121.853 59.1797 124.181 52.3539 124.967 45.4411Z" fill="#D3E6FD"/>
<path d="M112.311 77.8331L111.542 77.5276C111.924 75.8769 112.545 73.7136 113.208 71.4219C113.987 68.7096 114.798 65.9064 115.2 63.9223C116.53 57.4405 117.737 50.8262 118.792 44.2533C119.842 37.682 120.77 30.9782 121.549 24.3207L122.331 24.5254C121.553 31.1942 120.626 37.9143 119.571 44.4986C118.515 51.0829 117.306 57.7151 115.976 64.2083C115.562 66.2248 114.748 69.0459 113.967 71.7761C113.302 74.0515 112.684 76.2084 112.311 77.8331Z" fill="#D3E6FD"/>
<path d="M48.3555 118.919C42.6842 111.376 40.318 101.453 38.9085 91.4868C55.9443 88.5256 72.3381 96.3659 79.1353 110.718C80.3183 113.222 81.2418 115.965 81.146 118.959C80.8753 127.159 74.6533 130.212 68.1682 129.635C59.9152 128.905 53.0963 125.218 48.3555 118.919Z" fill="#F2F8FF"/>
<path d="M44.1676 95.1731L83.4057 130.503" stroke="#EAF3FE" stroke-linecap="round"/>
<path d="M42.6123 104.704C46.7659 105.432 50.9373 106.108 55.1263 106.732" stroke="#EAF3FE" stroke-linecap="round"/>
<path d="M63.6809 112.252C63.6642 107.034 63.2458 101.877 62.4238 96.8472" stroke="#EAF3FE" stroke-linecap="round"/>
<path d="M64.8982 134.951C62.9768 136.281 60.6355 137.576 58.7441 136.614C58.4667 136.474 58.1958 136.264 58.1136 135.927C57.9741 135.33 58.4915 134.732 58.6633 134.103C59.0182 132.789 57.6661 131.783 56.4761 131.98C55.2861 132.177 54.2286 133.069 53.0968 133.616C52.1094 134.093 51.046 134.308 50.0248 134.238C48.6873 134.147 47.2013 133.065 47.5937 131.569C47.8806 130.48 48.9668 129.927 49.861 129.366C50.7553 128.805 51.7003 127.7 51.3477 126.707C51.044 125.855 50.0192 125.794 49.1762 125.783C47.1153 125.758 45.0952 125.346 43.2239 124.564C41.9194 124.017 40.6378 123.249 39.8954 121.942C39.153 120.635 39.1025 118.682 40.1036 117.395C41.0394 116.197 42.5682 115.906 43.8973 116.033C47.512 116.378 50.3708 119.036 53.573 120.698C54.3295 121.09 55.459 121.295 55.9243 120.422C56.2533 119.805 55.9858 119.089 55.8012 118.459C55.3488 116.917 55.4552 115.121 56.0898 113.534C56.1985 113.262 56.3277 112.985 56.5422 112.801C57.0263 112.387 57.6848 112.643 58.1234 113.02C60.1636 114.749 60.4741 118.381 62.6699 119.866C62.963 120.067 63.3316 120.218 63.6734 120.064C63.9246 119.949 64.1083 119.692 64.2465 119.43C64.8135 118.343 64.7479 117.059 64.9314 115.849C65.1088 114.642 65.7702 113.244 66.8426 113.082C67.6494 112.958 68.3187 113.603 68.7944 114.283C70.249 116.38 70.8228 119.17 70.8524 121.952C70.881 124.449 70.7753 127.773 69.905 130.216C69.0921 132.502 66.6667 133.727 64.8982 134.951Z" fill="#E8F3FF"/>
<path d="M44.3413 120.443L69.713 129.678" stroke="#E5EDF7" stroke-linecap="round"/>
<path d="M50.6929 131.788C52.2195 130.888 53.7438 129.982 55.2704 129.083" stroke="#E5EDF7" stroke-linecap="round"/>
<path d="M57.2319 127.733C58.0472 127.311 58.8583 126.887 59.6735 126.464" stroke="#E5EDF7" stroke-linecap="round"/>
<path d="M60.123 134.473C62.7013 132.763 65.2983 131.093 67.9181 129.465" stroke="#E5EDF7" stroke-linecap="round"/>
<path d="M63.9208 127.347C62.227 124.26 60.571 121.148 58.9485 118.01" stroke="#E5EDF7" stroke-linecap="round"/>
<path d="M132.254 117.254C134.096 115.287 134.127 112.145 132.197 110.341L127.904 106.048L113.177 120.774L112.216 122.606L103.901 130.922L104.647 131.668C106.888 133.909 108.748 136.404 110.166 139.218L110.228 139.28L132.191 117.317C132.191 117.317 132.254 117.254 132.254 117.254Z" fill="#2BA037"/>
<path d="M65.6803 84.8329C65.6803 84.8329 76.7704 94.1026 82.3156 98.7375C86.6906 102.394 126.132 126.5 126.132 126.5L106.882 144C106.882 144 91.4145 127.546 84.5128 120.636C83.2573 119.379 72.5 107.716 72.1124 108.236L60.8093 96.9325C58.8379 94.961 58.8141 91.6987 60.7574 89.7555C60.7575 89.7556 65.6803 84.8329 65.6803 84.8329Z" fill="#5DA0EC"/>
<path d="M132.203 94.7872L90.4371 53.0212C88.4753 51.0594 85.4038 51.0934 83.3347 53.036L61.0122 75.3585L60.9476 75.4231C59.0698 77.4274 59.0343 80.6272 60.9974 82.4608L81.5009 102.964L91.3948 112.858C94.3371 112.954 89.111 111.092 91.136 113.117C91.9586 113.94 107.509 129.422 108.073 130.503L112.779 121.172L127.79 106.161L132.125 101.826C134.066 99.8853 134.102 96.6858 132.203 94.7872Z" fill="#7CB7FD"/>
<path d="M106.339 80.2366C111.249 85.1471 111.092 93.161 105.985 98.2678C100.878 103.375 92.8643 103.532 87.9538 98.6214C83.0434 93.7109 83.2005 85.697 88.3074 80.5902C93.4144 75.4834 101.428 75.3262 106.339 80.2366Z" fill="#5DA0EC"/>
<ellipse cx="87.2468" cy="62.5589" rx="3.5" ry="4" transform="rotate(45 87.2468 62.5589)" fill="#5DA0EC"/>
<path fill-rule="evenodd" clip-rule="evenodd" d="M257.785 123.258C256.176 119.158 254.975 114.806 253.663 110.21C252.778 107.112 251.353 103.647 248.261 102.67C245.254 101.72 242.016 103.689 240.167 106.226C238.317 108.763 237.385 111.839 235.803 114.549C232.936 119.459 227.857 121.517 223.66 117.2C217.664 111.033 214.965 102.627 211.163 95.1051C208.403 89.6443 206.093 83.2515 202.615 78.2186C197.312 70.5438 190.041 64 180.372 64C174.242 64.9215 168.842 70.3088 165.186 77.0411C161.531 83.7734 159.399 91.7803 157.582 99.7676C154.278 114.293 151.857 129.156 149.439 144L271.439 142.588C270.955 142.594 267.963 138.626 267.39 138.076C262.706 133.579 259.895 128.634 257.785 123.258Z" fill="#EDF4FF"/>
<path fill-rule="evenodd" clip-rule="evenodd" d="M234.425 132.171C234.188 136.924 229.089 145.235 224.403 144.995C219.717 144.755 217.219 136.056 217.455 131.303C217.691 126.55 222.681 102.762 227.368 103.002C232.054 103.241 234.661 127.417 234.425 132.171Z" fill="#C0DBF9"/>
<path fill-rule="evenodd" clip-rule="evenodd" d="M227.028 106.179L224.44 144.797C224.433 144.902 224.519 144.993 224.633 145C224.746 145.006 224.844 144.926 224.851 144.821L227.439 106.203C227.446 106.097 227.36 106.007 227.246 106C227.133 105.994 227.035 106.074 227.028 106.179Z" fill="#075697"/>
<path fill-rule="evenodd" clip-rule="evenodd" d="M224.081 131.009C222.994 133.415 222.167 135.939 221.666 138.568C221.413 139.901 221.253 141.346 221.852 142.562C222.506 143.89 223.957 144.664 225.409 144.904C228.956 145.491 232.504 143.302 234.582 140.348C236.661 137.393 237.561 133.782 238.388 130.257C239.038 127.482 239.678 124.665 240.904 122.079C241.43 120.97 244.508 116.69 243.052 115.58C241.06 114.003 235.295 115.719 231.6 119.783C228.557 123.13 225.939 126.896 224.081 131.009Z" fill="#D2E7FF"/>
<path fill-rule="evenodd" clip-rule="evenodd" d="M224.816 144.859C224.816 144.859 224.833 144.798 224.866 144.677C225.367 142.867 229.742 128.027 239.378 119.324C239.456 119.254 239.46 119.136 239.389 119.06C239.317 118.984 239.196 118.98 239.118 119.05C228.727 128.448 224.453 144.753 224.446 144.767C224.419 144.867 224.481 144.968 224.583 144.994C224.686 145.02 224.79 144.959 224.816 144.859Z" fill="#5191C1"/>
<path fill-rule="evenodd" clip-rule="evenodd" d="M248.213 127.271C247.854 127.932 247.181 128.382 246.57 128.736C245.817 129.172 245.015 129.555 244.24 129.926C243.244 130.401 242.214 130.894 241.264 131.506C240.571 131.954 239.956 132.459 239.439 133C240.255 131.096 241.208 129.433 242.332 127.946C243.811 125.991 245.329 125 246.845 125L246.951 125.002C247.42 125.016 247.784 125.135 248.036 125.357C248.551 125.811 248.531 126.687 248.213 127.271Z" fill="#C0DBF9"/>
<path fill-rule="evenodd" clip-rule="evenodd" d="M250.713 137.785C250.116 138.189 249.323 138.291 248.626 138.338C247.768 138.396 246.887 138.39 246.036 138.385C244.942 138.378 243.811 138.371 242.701 138.497C241.892 138.588 241.129 138.759 240.439 139C241.964 137.746 243.512 136.749 245.139 135.968C247.281 134.94 249.059 134.73 250.424 135.343L250.518 135.387C250.935 135.588 251.214 135.835 251.348 136.121C251.623 136.708 251.241 137.428 250.713 137.785Z" fill="#C0DBF9"/>
<path fill-rule="evenodd" clip-rule="evenodd" d="M246.238 142.99C245.734 142.925 245.282 142.621 244.906 142.333C244.444 141.978 244.002 141.58 243.574 141.197C243.025 140.704 242.458 140.194 241.835 139.76C241.38 139.444 240.909 139.188 240.439 139C241.838 139.055 243.12 139.249 244.334 139.586C245.932 140.031 246.935 140.721 247.317 141.639L247.342 141.703C247.452 141.99 247.469 142.238 247.393 142.442C247.238 142.858 246.684 143.047 246.238 142.99Z" fill="#C0DBF9"/>
<path fill-rule="evenodd" clip-rule="evenodd" d="M234.788 144.831C234.788 144.831 234.788 144.796 234.791 144.722C234.844 143.614 235.604 134.308 247.365 126.31C247.444 126.257 247.463 126.151 247.408 126.073C247.353 125.996 247.245 125.977 247.166 126.03C234.506 134.635 234.437 144.798 234.439 144.829C234.439 144.923 234.517 145 234.613 145C234.709 145 234.787 144.925 234.788 144.831Z" fill="#C0DBF9"/>
<path fill-rule="evenodd" clip-rule="evenodd" d="M234.756 144.907C234.756 144.907 234.768 144.88 234.797 144.826C235.011 144.416 236.066 142.536 238.224 140.764C240.382 138.991 243.635 137.323 248.274 137.323C248.365 137.323 248.439 137.25 248.439 137.161C248.439 137.072 248.365 137 248.274 137C243.236 136.999 239.774 138.94 237.584 140.881C235.391 142.821 234.461 144.758 234.455 144.771C234.416 144.851 234.452 144.947 234.535 144.985C234.618 145.022 234.717 144.988 234.756 144.907Z" fill="#1A1C3A"/>
<path fill-rule="evenodd" clip-rule="evenodd" d="M240.609 139.308L240.613 139.307L240.637 139.307C240.882 139.307 242.688 139.4 246.187 141.969C246.256 142.02 246.355 142.007 246.408 141.939C246.46 141.871 246.446 141.775 246.376 141.724C242.841 139.126 240.967 139 240.637 139L240.586 139.001C240.499 139.007 240.433 139.081 240.44 139.166C240.446 139.25 240.522 139.314 240.609 139.308Z" fill="#1A1C3A"/>
<path fill-rule="evenodd" clip-rule="evenodd" d="M181.287 145H98.5922C96.2985 145 94.4395 143.148 94.4395 140.862V29.1375C94.4395 26.8522 96.2985 25 98.5922 25H181.287C183.58 25 185.439 26.8522 185.439 29.1375V140.862C185.439 143.148 183.58 145 181.287 145Z" fill="#7CB7FD"/>
<path fill-rule="evenodd" clip-rule="evenodd" d="M94.4395 54V140.852C94.4395 143.143 96.2985 145 98.5922 145H181.287C183.58 145 185.439 143.143 185.439 140.852V123.711L94.4395 54Z" fill="#63AAFC"/>
<path fill-rule="evenodd" clip-rule="evenodd" d="M177.752 139H101.128C100.195 139 99.4395 138.242 99.4395 137.308V31.6922C99.4395 30.7576 100.195 30 101.128 30H177.752C178.684 30 179.439 30.7576 179.439 31.6922V137.308C179.439 138.242 178.684 139 177.752 139Z" fill="#E4F0FF"/>
<path fill-rule="evenodd" clip-rule="evenodd" d="M146.329 21.994C146.329 18.1316 143.244 15 139.439 15C135.634 15 132.55 18.1316 132.55 21.994C132.55 22.1104 132.562 22.2237 132.567 22.3384H122.439V33H156.439V22.3384H146.311C146.317 22.2237 146.329 22.1104 146.329 21.994Z" fill="#63AAFC"/>
<path fill-rule="evenodd" clip-rule="evenodd" d="M122.439 23V33H156.439L122.439 23Z" fill="#7CB7FD"/>
<path fill-rule="evenodd" clip-rule="evenodd" d="M143.439 22C143.439 24.2091 141.649 26 139.439 26C137.23 26 135.439 24.2091 135.439 22C135.439 19.7909 137.23 18 139.439 18C141.649 18 143.439 19.7909 143.439 22Z" fill="#63AAFC"/>
<path fill-rule="evenodd" clip-rule="evenodd" d="M136.641 19C135.039 20.6015 135.039 23.1979 136.641 24.7989C138.242 26.4004 140.838 26.4004 142.439 24.7989L136.641 19Z" fill="#7CB7FD"/>
<path fill-rule="evenodd" clip-rule="evenodd" d="M122.439 34H156.439V33H122.439V34Z" fill="#ABCCE0"/>
<path fill-rule="evenodd" clip-rule="evenodd" d="M110.143 109C109.754 109 109.439 108.776 109.439 108.5C109.439 108.224 109.754 108 110.143 108H169.735C170.125 108 170.439 108.224 170.439 108.5C170.439 108.776 170.125 109 169.735 109H110.143Z" fill="#BED5EF"/>
<path fill-rule="evenodd" clip-rule="evenodd" d="M169.735 115H110.143C109.754 115 109.439 114.776 109.439 114.5C109.439 114.224 109.754 114 110.143 114H169.735C170.125 114 170.439 114.224 170.439 114.5C170.439 114.776 170.125 115 169.735 115Z" fill="#BED5EF"/>
<path fill-rule="evenodd" clip-rule="evenodd" d="M110.143 97C109.754 97 109.439 96.776 109.439 96.5C109.439 96.224 109.754 96 110.143 96H169.735C170.125 96 170.439 96.224 170.439 96.5C170.439 96.776 170.125 97 169.735 97H110.143Z" fill="#BED5EF"/>
<path fill-rule="evenodd" clip-rule="evenodd" d="M169.735 103H110.143C109.754 103 109.439 102.776 109.439 102.5C109.439 102.224 109.754 102 110.143 102H169.735C170.125 102 170.439 102.224 170.439 102.5C170.439 102.776 170.125 103 169.735 103Z" fill="#BED5EF"/>
<path fill-rule="evenodd" clip-rule="evenodd" d="M169.735 121H110.143C109.754 121 109.439 120.776 109.439 120.5C109.439 120.224 109.754 120 110.143 120H169.735C170.125 120 170.439 120.224 170.439 120.5C170.439 120.776 170.125 121 169.735 121Z" fill="#BED5EF"/>
<path fill-rule="evenodd" clip-rule="evenodd" d="M169.735 127H110.143C109.754 127 109.439 126.776 109.439 126.5C109.439 126.224 109.754 126 110.143 126H169.735C170.125 126 170.439 126.224 170.439 126.5C170.439 126.776 170.125 127 169.735 127Z" fill="#BED5EF"/>
<path fill-rule="evenodd" clip-rule="evenodd" d="M230.439 70C231.717 69.5637 232.763 68.4757 233.221 67.0439C232.763 68.4757 231.717 69.5637 230.439 70Z" fill="#CCCEC9"/>
<path fill-rule="evenodd" clip-rule="evenodd" d="M164.288 62L164.591 60L164.288 62Z" fill="#ECAC51"/>
<path fill-rule="evenodd" clip-rule="evenodd" d="M184.439 55L179.439 54.0032V54L184.439 54.9955V55Z" fill="#4E8EBF"/>
<path fill-rule="evenodd" clip-rule="evenodd" d="M179.439 54L170.222 52.6831C170.222 52.6831 170.222 52.6826 170.222 52.6821L179.439 53.9976V54ZM166.58 52.1627H166.578L165.439 52L166.58 52.1627Z" fill="#E4E6E3"/>
<path fill-rule="evenodd" clip-rule="evenodd" d="M170.439 53.236L166.439 52.7641H166.441L170.439 53.2351C170.439 53.2355 170.439 53.236 170.439 53.236Z" fill="#4E8EBF"/>
<path fill-rule="evenodd" clip-rule="evenodd" d="M185.949 55.1319L185.439 55.0059L185.44 55L185.949 55.1261L185.949 55.1319Z" fill="#E78276"/>
<path fill-rule="evenodd" clip-rule="evenodd" d="M189.439 55.2274L185.439 54.7756L185.44 54.7726L189.438 55.2234L189.439 55.2274Z" fill="#E26464"/>
<path fill-rule="evenodd" clip-rule="evenodd" d="M190.439 56.0744L189.439 55.9291L189.442 55.9256L190.439 56.0705C190.439 56.0718 190.439 56.0731 190.439 56.0744Z" fill="#E46B6A"/>
<path fill-rule="evenodd" clip-rule="evenodd" d="M225.439 60.1471L223.439 59.8529L225.438 60.1466L225.439 60.1471Z" fill="#E78276"/>
<path fill-rule="evenodd" clip-rule="evenodd" d="M224.413 70.2105L224.466 69.7894L224.413 70.2105Z" fill="#D4D5D0"/>
<path fill-rule="evenodd" clip-rule="evenodd" d="M225.261 70L225.618 67L225.261 70Z" fill="#AACDCF"/>
<path fill-rule="evenodd" clip-rule="evenodd" d="M225.363 69L225.516 68L225.363 69Z" fill="#97B2B6"/>
<path fill-rule="evenodd" clip-rule="evenodd" d="M227.44 128L227.439 131.685C227.439 132.962 233.707 133.999 241.439 134C249.171 134.001 255.439 132.967 255.439 131.69L255.439 128.005L227.44 128Z" fill="#A3CBFB"/>
<path fill-rule="evenodd" clip-rule="evenodd" d="M256.439 128.002C256.439 129.107 250.171 130.001 242.439 130C234.707 129.999 228.439 129.102 228.439 127.997C228.439 126.893 234.708 125.999 242.44 126C250.172 126.001 256.44 126.898 256.439 128.002Z" fill="#4E9FFF"/>
<path fill-rule="evenodd" clip-rule="evenodd" d="M252.439 128.002C252.439 128.554 247.514 129.001 241.439 129C235.364 128.999 230.439 128.55 230.439 127.998C230.439 127.446 235.364 126.999 241.44 127C247.515 127.001 252.44 127.45 252.439 128.002Z" fill="#EC953A"/>
<path fill-rule="evenodd" clip-rule="evenodd" d="M230.913 127.997C232.284 127.68 236.477 127.449 241.44 127.45C246.402 127.451 250.595 127.682 251.965 128C252.273 127.929 252.439 127.853 252.439 127.775C252.44 127.348 247.515 127.001 241.44 127C235.364 126.999 230.439 127.345 230.439 127.772C230.439 127.85 230.606 127.926 230.913 127.997Z" fill="#E46F35"/>
<path fill-rule="evenodd" clip-rule="evenodd" d="M229.44 124L229.439 127.685C229.439 128.962 235.707 129.999 243.439 130C251.17 130.002 257.439 128.967 257.439 127.69L257.439 124.005L229.44 124Z" fill="#A3CBFB"/>
<path fill-rule="evenodd" clip-rule="evenodd" d="M258.439 124.002C258.439 125.107 252.171 126.001 244.439 126C236.707 125.999 230.439 125.102 230.439 123.998C230.44 122.893 236.708 121.999 244.44 122C252.172 122.001 258.44 122.898 258.439 124.002Z" fill="#4E9FFF"/>
<path fill-rule="evenodd" clip-rule="evenodd" d="M254.439 124.002C254.439 124.554 249.514 125.001 243.439 125C237.364 124.999 232.439 124.55 232.439 123.998C232.44 123.446 237.365 122.999 243.44 123C249.515 123.001 254.439 123.45 254.439 124.002Z" fill="#EC953A"/>
<path fill-rule="evenodd" clip-rule="evenodd" d="M232.914 123.997C234.284 123.68 238.477 123.449 243.439 123.45C248.402 123.45 252.595 123.682 253.965 124C254.273 123.929 254.439 123.853 254.439 123.775C254.439 123.348 249.515 123.001 243.44 123C237.365 122.999 232.44 123.345 232.439 123.772C232.439 123.85 232.606 123.926 232.914 123.997Z" fill="#E46F35"/>
<path fill-rule="evenodd" clip-rule="evenodd" d="M231.44 120L231.439 123.684C231.439 124.962 237.707 125.999 245.439 126C253.171 126.001 259.438 124.967 259.439 123.69L259.439 120.005L231.44 120Z" fill="#A3CBFB"/>
<path fill-rule="evenodd" clip-rule="evenodd" d="M259.439 120.002C259.439 121.107 253.171 122.001 245.439 122C237.707 121.998 231.439 121.102 231.439 119.997C231.44 118.893 237.708 117.999 245.44 118C253.172 118.001 259.439 118.898 259.439 120.002Z" fill="#E3EFFF"/>
<path fill-rule="evenodd" clip-rule="evenodd" d="M256.439 120.002C256.439 120.555 251.514 121.001 245.439 121C239.364 120.999 234.439 120.551 234.439 119.998C234.439 119.446 239.364 118.999 245.44 119C251.515 119.001 256.44 119.45 256.439 120.002Z" fill="#4E9FFF"/>
<path fill-rule="evenodd" clip-rule="evenodd" d="M234.913 119.997C236.283 119.68 240.477 119.449 245.44 119.45C250.402 119.451 254.595 119.682 255.966 120C256.273 119.929 256.439 119.853 256.439 119.775C256.44 119.348 251.515 119.001 245.44 119C239.364 118.999 234.439 119.345 234.439 119.772C234.439 119.85 234.606 119.926 234.913 119.997Z" fill="#4C87CA"/>
<path fill-rule="evenodd" clip-rule="evenodd" d="M227.44 116L227.439 119.685C227.439 120.962 233.707 121.999 241.439 122C249.171 122.001 255.438 120.967 255.439 119.69L255.439 116.005L227.44 116Z" fill="#A3CBFB"/>
<path fill-rule="evenodd" clip-rule="evenodd" d="M256.439 116.002C256.439 117.107 250.171 118.001 242.439 118C234.707 117.999 228.439 117.102 228.439 115.998C228.439 114.893 234.708 113.999 242.44 114C250.172 114.001 256.439 114.898 256.439 116.002Z" fill="#4E9FFF"/>
<path fill-rule="evenodd" clip-rule="evenodd" d="M252.439 115.002C252.439 115.554 247.514 116.001 241.439 116C235.364 115.999 230.439 115.55 230.439 114.998C230.439 114.446 235.364 113.999 241.44 114C247.515 114.001 252.44 114.449 252.439 115.002Z" fill="#EC953A"/>
<path fill-rule="evenodd" clip-rule="evenodd" d="M230.913 115.997C232.283 115.68 236.477 115.449 241.439 115.45C246.402 115.45 250.595 115.682 251.965 116C252.273 115.929 252.439 115.853 252.439 115.775C252.44 115.348 247.515 115.001 241.44 115C235.364 114.999 230.439 115.345 230.439 115.772C230.439 115.85 230.606 115.926 230.913 115.997Z" fill="#E46F35"/>
<path fill-rule="evenodd" clip-rule="evenodd" d="M231.44 112L231.439 115.685C231.439 116.962 237.707 117.999 245.439 118C253.171 118.001 259.439 116.967 259.439 115.69L259.439 112.005L231.44 112Z" fill="#A3CBFB"/>
<path fill-rule="evenodd" clip-rule="evenodd" d="M259.439 112.002C259.439 113.107 253.171 114.001 245.439 114C237.707 113.999 231.439 113.102 231.439 111.998C231.44 110.893 237.708 109.999 245.44 110C253.172 110.001 259.44 110.898 259.439 112.002Z" fill="#E3EFFF"/>
<path fill-rule="evenodd" clip-rule="evenodd" d="M256.439 112.002C256.439 112.554 251.514 113.001 245.439 113C239.364 112.999 234.439 112.55 234.439 111.998C234.439 111.445 239.364 110.999 245.44 111C251.515 111.001 256.44 111.449 256.439 112.002Z" fill="#4C87CA"/>
<path fill-rule="evenodd" clip-rule="evenodd" d="M234.913 111.997C236.284 111.68 240.477 111.449 245.44 111.45C250.402 111.451 254.595 111.682 255.965 112C256.273 111.929 256.439 111.853 256.439 111.775C256.44 111.348 251.515 111.001 245.44 111C239.364 110.999 234.439 111.345 234.439 111.772C234.439 111.85 234.606 111.926 234.913 111.997Z" fill="#4E9FFF"/>
<path fill-rule="evenodd" clip-rule="evenodd" d="M227.44 106L227.439 109.685C227.439 110.962 233.707 111.999 241.439 112C249.171 112.001 255.439 110.967 255.439 109.69L255.439 106.005L227.44 106Z" fill="#A3CBFB"/>
<path fill-rule="evenodd" clip-rule="evenodd" d="M256.439 106.002C256.439 107.107 250.171 108.001 242.439 108C234.707 107.999 228.439 107.102 228.439 105.998C228.439 104.893 234.708 103.999 242.44 104C250.172 104.001 256.44 104.898 256.439 106.002Z" fill="#4E9FFF"/>
<path fill-rule="evenodd" clip-rule="evenodd" d="M252.439 106.002C252.439 106.554 247.514 107.001 241.439 107C235.364 106.999 230.439 106.55 230.439 105.998C230.439 105.446 235.364 104.999 241.44 105C247.515 105.001 252.44 105.45 252.439 106.002Z" fill="#EC953A"/>
<path fill-rule="evenodd" clip-rule="evenodd" d="M230.913 105.997C232.284 105.68 236.477 105.449 241.44 105.45C246.402 105.451 250.595 105.682 251.965 106C252.273 105.929 252.439 105.853 252.439 105.775C252.44 105.348 247.515 105.001 241.44 105C235.364 104.999 230.439 105.345 230.439 105.772C230.439 105.85 230.606 105.926 230.913 105.997Z" fill="#E46F35"/>
<path fill-rule="evenodd" clip-rule="evenodd" d="M229.44 102L229.439 105.685C229.439 106.962 235.707 107.999 243.439 108C251.17 108.002 257.439 106.967 257.439 105.69L257.439 102.005L229.44 102Z" fill="#A3CBFB"/>
<path fill-rule="evenodd" clip-rule="evenodd" d="M257.439 102.003C257.439 103.107 251.171 104.001 243.439 104C235.707 103.999 229.439 103.102 229.439 101.998C229.44 100.893 235.708 99.9988 243.44 100C251.172 100.001 257.44 100.898 257.439 102.003Z" fill="#4E9FFF"/>
<path fill-rule="evenodd" clip-rule="evenodd" d="M254.439 102.002C254.439 102.554 249.514 103.001 243.439 103C237.364 102.999 232.439 102.55 232.439 101.998C232.44 101.446 237.365 100.999 243.44 101C249.515 101.001 254.439 101.45 254.439 102.002Z" fill="#EC953A"/>
<path fill-rule="evenodd" clip-rule="evenodd" d="M232.914 101.997C234.284 101.68 238.477 101.449 243.439 101.45C248.402 101.45 252.595 101.683 253.965 102C254.273 101.929 254.439 101.853 254.439 101.775C254.439 101.348 249.515 101.001 243.44 101C237.365 100.999 232.44 101.345 232.439 101.772C232.439 101.85 232.606 101.926 232.914 101.997Z" fill="#E46F35"/>
<path fill-rule="evenodd" clip-rule="evenodd" d="M231.44 98L231.439 101.684C231.439 102.962 237.707 103.999 245.439 104C253.171 104.001 259.438 102.967 259.439 101.69L259.439 98.0055L231.44 98Z" fill="#A3CBFB"/>
<path fill-rule="evenodd" clip-rule="evenodd" d="M259.439 98.0021C259.439 99.1067 253.171 100.001 245.439 100C237.707 99.9985 231.439 99.1022 231.439 97.9976C231.44 96.893 237.708 95.9988 245.44 96C253.172 96.0013 259.439 96.8978 259.439 98.0021Z" fill="#E3EFFF"/>
<path fill-rule="evenodd" clip-rule="evenodd" d="M256.439 98.0022C256.439 98.5543 251.514 99.0011 245.439 99C239.364 98.9989 234.439 98.5503 234.439 97.9981C234.439 97.446 239.364 96.9992 245.44 97C251.515 97.0011 256.44 97.4497 256.439 98.0022Z" fill="#4C87CA"/>
<path fill-rule="evenodd" clip-rule="evenodd" d="M234.913 97.9973C236.283 97.6798 240.477 97.4492 245.44 97.4501C250.402 97.4507 254.595 97.6823 255.966 98C256.273 97.9289 256.439 97.8535 256.439 97.7753C256.44 97.3479 251.515 97.0008 245.44 97C239.364 96.9992 234.439 97.345 234.439 97.7721C234.439 97.8505 234.606 97.926 234.913 97.9973Z" fill="#4E9FFF"/>
<path fill-rule="evenodd" clip-rule="evenodd" d="M227.44 94L227.439 97.6847C227.439 98.9621 233.707 99.9986 241.439 100C249.171 100.001 255.438 98.9673 255.439 97.6899L255.439 94.0052L227.44 94Z" fill="#A3CBFB"/>
<path fill-rule="evenodd" clip-rule="evenodd" d="M255.439 94.0025C255.439 95.1069 249.171 96.0012 241.439 96C233.707 95.999 227.439 95.1024 227.439 93.9977C227.439 92.8933 233.708 91.9988 241.44 92C249.172 92.0013 255.439 92.8978 255.439 94.0025Z" fill="#E3EFFF"/>
<path fill-rule="evenodd" clip-rule="evenodd" d="M252.439 94.0019C252.439 94.5543 247.514 95.0011 241.439 95C235.364 94.9989 230.439 94.5505 230.439 93.9981C230.439 93.4457 235.364 92.9989 241.44 93C247.515 93.0013 252.44 93.4497 252.439 94.0019Z" fill="#4E9FFF"/>
<path fill-rule="evenodd" clip-rule="evenodd" d="M230.913 93.9971C232.283 93.6798 236.477 93.4492 241.439 93.4499C246.402 93.4507 250.595 93.6825 251.965 94C252.273 93.9289 252.439 93.8535 252.439 93.7751C252.44 93.3479 247.515 93.001 241.44 93C235.364 92.9992 230.439 93.3448 230.439 93.7721C230.439 93.8503 230.606 93.926 230.913 93.9971Z" fill="#4E9FFF"/>
<path fill-rule="evenodd" clip-rule="evenodd" d="M231.44 90L231.439 93.6845C231.439 94.9619 237.707 95.9986 245.439 96C253.171 96.0012 259.439 94.9671 259.439 93.69L259.439 90.0055L231.44 90Z" fill="#A3CBFB"/>
<path fill-rule="evenodd" clip-rule="evenodd" d="M259.439 90.0023C259.439 91.1069 253.171 92.0012 245.439 92C237.707 91.9987 231.439 91.1022 231.439 89.9977C231.44 88.8931 237.708 87.9985 245.44 88C253.172 88.0013 259.44 88.8976 259.439 90.0023Z" fill="#E3EFFF"/>
<path fill-rule="evenodd" clip-rule="evenodd" d="M256.439 90.0019C256.439 90.5543 251.514 91.0011 245.439 91C239.364 90.9989 234.439 90.5503 234.439 89.9978C234.439 89.4457 239.364 88.9989 245.44 89C251.515 89.0011 256.44 89.4497 256.439 90.0019Z" fill="#4E9FFF"/>
<path fill-rule="evenodd" clip-rule="evenodd" d="M234.913 89.9971C236.284 89.6796 240.477 89.449 245.44 89.4499C250.402 89.4505 254.595 89.6823 255.965 90C256.273 89.9287 256.439 89.8532 256.439 89.7751C256.44 89.3479 251.515 89.0008 245.44 89C239.364 88.9992 234.439 89.3448 234.439 89.7719C234.439 89.8503 234.606 89.9258 234.913 89.9971Z" fill="#4C87CA"/>
<path fill-rule="evenodd" clip-rule="evenodd" d="M233.439 135V138.686C233.439 139.964 226.948 141 218.939 141C210.931 141 204.439 139.964 204.439 138.686V135H233.439Z" fill="#EC953A"/>
<path fill-rule="evenodd" clip-rule="evenodd" d="M204.439 135C204.439 136.104 210.931 137 218.939 137C226.948 137 233.439 136.104 233.439 135C233.439 133.896 226.948 133 218.939 133C210.931 133 204.439 133.896 204.439 135Z" fill="#FACA30"/>
<path fill-rule="evenodd" clip-rule="evenodd" d="M207.439 135C207.439 135.552 212.588 136 218.939 136C225.29 136 230.439 135.552 230.439 135C230.439 134.448 225.29 134 218.939 134C212.588 134 207.439 134.448 207.439 135Z" fill="#EC953A"/>
<path fill-rule="evenodd" clip-rule="evenodd" d="M229.944 135C228.511 134.682 224.127 134.451 218.939 134.451C213.752 134.451 209.367 134.682 207.935 135C207.614 134.929 207.439 134.853 207.439 134.775C207.439 134.347 212.588 134 218.939 134C225.29 134 230.439 134.347 230.439 134.775C230.439 134.853 230.265 134.929 229.944 135Z" fill="#E46F35"/>
<path fill-rule="evenodd" clip-rule="evenodd" d="M235.439 131V134.686C235.439 135.964 228.948 137 220.94 137C212.931 137 206.439 135.964 206.439 134.686V131H235.439Z" fill="#EC953A"/>
<path fill-rule="evenodd" clip-rule="evenodd" d="M206.439 131C206.439 132.105 212.931 133 220.94 133C228.948 133 235.439 132.105 235.439 131C235.439 129.896 228.948 129 220.94 129C212.931 129 206.439 129.896 206.439 131Z" fill="#FACA30"/>
<path fill-rule="evenodd" clip-rule="evenodd" d="M209.439 131C209.439 131.552 214.588 132 220.939 132C227.291 132 232.439 131.552 232.439 131C232.439 130.448 227.291 130 220.939 130C214.588 130 209.439 130.448 209.439 131Z" fill="#EC953A"/>
<path fill-rule="evenodd" clip-rule="evenodd" d="M231.944 131C230.512 130.682 226.128 130.451 220.939 130.451C215.751 130.451 211.367 130.682 209.935 131C209.614 130.929 209.439 130.853 209.439 130.775C209.439 130.347 214.588 130 220.939 130C227.291 130 232.439 130.347 232.439 130.775C232.439 130.853 232.265 130.929 231.944 131Z" fill="#E46F35"/>
<path fill-rule="evenodd" clip-rule="evenodd" d="M233.439 127V130.686C233.439 131.964 226.948 133 218.939 133C210.931 133 204.439 131.964 204.439 130.686V127H233.439Z" fill="#EC953A"/>
<path fill-rule="evenodd" clip-rule="evenodd" d="M204.439 127C204.439 128.104 210.931 129 218.939 129C226.948 129 233.439 128.104 233.439 127C233.439 125.896 226.948 125 218.939 125C210.931 125 204.439 125.896 204.439 127Z" fill="#FACA30"/>
<path fill-rule="evenodd" clip-rule="evenodd" d="M207.439 127C207.439 127.552 212.588 128 218.939 128C225.291 128 230.439 127.552 230.439 127C230.439 126.448 225.291 126 218.939 126C212.588 126 207.439 126.448 207.439 127Z" fill="#EC953A"/>
<path fill-rule="evenodd" clip-rule="evenodd" d="M229.944 127C228.511 126.682 224.128 126.451 218.939 126.451C213.751 126.451 209.368 126.682 207.935 127C207.614 126.929 207.439 126.853 207.439 126.775C207.439 126.347 212.588 126 218.939 126C225.291 126 230.439 126.347 230.439 126.775C230.439 126.853 230.265 126.929 229.944 127Z" fill="#E46F35"/>
<path fill-rule="evenodd" clip-rule="evenodd" d="M232.439 123V126.686C232.439 127.964 225.948 129 217.939 129C209.931 129 203.439 127.964 203.439 126.686V123H232.439Z" fill="#EC953A"/>
<path fill-rule="evenodd" clip-rule="evenodd" d="M203.439 123C203.439 124.105 209.931 125 217.939 125C225.948 125 232.439 124.105 232.439 123C232.439 121.895 225.948 121 217.939 121C209.931 121 203.439 121.895 203.439 123Z" fill="#FACA30"/>
<path fill-rule="evenodd" clip-rule="evenodd" d="M206.439 123C206.439 123.552 211.588 124 217.939 124C224.291 124 229.439 123.552 229.439 123C229.439 122.448 224.291 122 217.939 122C211.588 122 206.439 122.448 206.439 123Z" fill="#EC953A"/>
<path fill-rule="evenodd" clip-rule="evenodd" d="M228.944 123C227.511 122.682 223.127 122.451 217.939 122.451C212.751 122.451 208.367 122.682 206.935 123C206.614 122.929 206.439 122.853 206.439 122.775C206.439 122.347 211.588 122 217.939 122C224.291 122 229.439 122.347 229.439 122.775C229.439 122.853 229.265 122.929 228.944 123Z" fill="#E46F35"/>
<path fill-rule="evenodd" clip-rule="evenodd" d="M235.439 119V122.686C235.439 123.964 228.947 125 220.939 125C212.931 125 206.439 123.964 206.439 122.686V119H235.439Z" fill="#EC953A"/>
<path fill-rule="evenodd" clip-rule="evenodd" d="M206.439 119C206.439 120.105 212.931 121 220.939 121C228.947 121 235.439 120.105 235.439 119C235.439 117.895 228.947 117 220.939 117C212.931 117 206.439 117.895 206.439 119Z" fill="#FACA30"/>
<path fill-rule="evenodd" clip-rule="evenodd" d="M209.439 119C209.439 119.552 214.588 120 220.939 120C227.291 120 232.439 119.552 232.439 119C232.439 118.448 227.291 118 220.939 118C214.588 118 209.439 118.448 209.439 119Z" fill="#EC953A"/>
<path fill-rule="evenodd" clip-rule="evenodd" d="M231.944 119C230.511 118.682 226.127 118.451 220.939 118.451C215.752 118.451 211.367 118.682 209.935 119C209.614 118.929 209.439 118.853 209.439 118.775C209.439 118.347 214.588 118 220.939 118C227.291 118 232.439 118.347 232.439 118.775C232.439 118.853 232.265 118.929 231.944 119Z" fill="#E46F35"/>
<path fill-rule="evenodd" clip-rule="evenodd" d="M232.439 115V118.686C232.439 119.964 225.948 121 217.94 121C209.931 121 203.439 119.964 203.439 118.686V115H232.439Z" fill="#EC953A"/>
<path fill-rule="evenodd" clip-rule="evenodd" d="M203.439 115C203.439 116.105 209.931 117 217.94 117C225.948 117 232.439 116.105 232.439 115C232.439 113.896 225.948 113 217.94 113C209.931 113 203.439 113.896 203.439 115Z" fill="#FACA30"/>
<path fill-rule="evenodd" clip-rule="evenodd" d="M206.439 115C206.439 115.552 211.588 116 217.94 116C224.291 116 229.439 115.552 229.439 115C229.439 114.448 224.291 114 217.94 114C211.588 114 206.439 114.448 206.439 115Z" fill="#EC953A"/>
<path fill-rule="evenodd" clip-rule="evenodd" d="M228.944 115C227.511 114.682 223.127 114.451 217.94 114.451C212.752 114.451 208.367 114.682 206.935 115C206.614 114.929 206.439 114.853 206.439 114.775C206.439 114.347 211.588 114 217.94 114C224.291 114 229.439 114.347 229.439 114.775C229.439 114.853 229.265 114.929 228.944 115Z" fill="#E46F35"/>
<path fill-rule="evenodd" clip-rule="evenodd" d="M235.439 111V114.686C235.439 115.964 228.948 117 220.939 117C212.931 117 206.439 115.964 206.439 114.686V111H235.439Z" fill="#EC953A"/>
<path fill-rule="evenodd" clip-rule="evenodd" d="M206.439 111C206.439 112.104 212.931 113 220.939 113C228.947 113 235.439 112.104 235.439 111C235.439 109.895 228.947 109 220.939 109C212.931 109 206.439 109.895 206.439 111Z" fill="#FACA30"/>
<path fill-rule="evenodd" clip-rule="evenodd" d="M209.439 111C209.439 111.552 214.588 112 220.939 112C227.291 112 232.439 111.552 232.439 111C232.439 110.448 227.291 110 220.939 110C214.588 110 209.439 110.448 209.439 111Z" fill="#EC953A"/>
<path fill-rule="evenodd" clip-rule="evenodd" d="M231.944 111C230.511 110.682 226.127 110.451 220.939 110.451C215.752 110.451 211.367 110.682 209.935 111C209.614 110.929 209.439 110.853 209.439 110.775C209.439 110.347 214.588 110 220.939 110C227.291 110 232.439 110.347 232.439 110.775C232.439 110.853 232.265 110.929 231.944 111Z" fill="#E46F35"/>
<path fill-rule="evenodd" clip-rule="evenodd" d="M223.44 142C223.439 142 223.439 142 223.439 142C224.64 141.404 225.42 141.012 225.437 141.004C225.42 141.013 224.641 141.404 223.44 142Z" fill="#00654E"/>
<path fill-rule="evenodd" clip-rule="evenodd" d="M225.439 139V137.063C225.778 137.043 226.111 137.022 226.439 137C226.154 137.696 225.819 138.374 225.439 139Z" fill="#CE572E"/>
<path fill-rule="evenodd" clip-rule="evenodd" d="M223.439 141V137.04C223.777 137.027 224.11 137.014 224.439 137V140.96C224.11 140.975 223.777 140.988 223.439 141Z" fill="#CE572E"/>
<path fill-rule="evenodd" clip-rule="evenodd" d="M220.439 141V137.014C220.775 137.01 221.109 137.006 221.439 137V140.987C221.109 140.992 220.775 140.997 220.439 141Z" fill="#CE572E"/>
<path fill-rule="evenodd" clip-rule="evenodd" d="M209.439 141C209.095 140.965 208.762 140.929 208.439 140.891V137C208.762 137.037 209.095 137.074 209.439 137.109V141Z" fill="#CE572E"/>
<path fill-rule="evenodd" clip-rule="evenodd" d="M212.439 141C212.1 140.978 211.767 140.955 211.439 140.931V137C211.767 137.024 212.1 137.047 212.439 137.069V141Z" fill="#CE572E"/>
<path fill-rule="evenodd" clip-rule="evenodd" d="M214.439 141C214.103 140.988 213.769 140.975 213.439 140.96V137C213.769 137.014 214.103 137.027 214.439 137.04V141Z" fill="#CE572E"/>
<path fill-rule="evenodd" clip-rule="evenodd" d="M217.439 141C217.104 140.997 216.77 140.992 216.439 140.987V137C216.77 137.006 217.104 137.01 217.439 137.014V141Z" fill="#CE572E"/>
<path fill-rule="evenodd" clip-rule="evenodd" d="M218.476 138C218.024 138 217.577 137.996 217.135 137.988C216.902 137.984 216.669 137.979 216.438 137.973C215.619 137.951 214.822 137.916 214.052 137.87C213.817 137.855 213.584 137.84 213.355 137.823C212.615 137.77 211.902 137.706 211.223 137.632C210.987 137.606 210.755 137.579 210.527 137.551C209.863 137.468 209.236 137.376 208.651 137.275C208.411 137.233 208.179 137.19 207.954 137.146C207.778 137.111 207.607 137.076 207.439 137.039L207.628 136C207.753 136.045 207.886 136.09 208.023 136.133C208.241 136.202 208.473 136.27 208.72 136.335C209.136 136.445 209.593 136.549 210.085 136.645C210.31 136.69 210.542 136.733 210.781 136.774C211.366 136.876 211.994 136.968 212.657 137.05C212.885 137.078 213.118 137.105 213.354 137.131C214.033 137.205 214.745 137.27 215.486 137.323C215.715 137.339 215.947 137.354 216.182 137.368C216.953 137.415 217.75 137.45 218.569 137.472C218.799 137.478 219.032 137.483 219.266 137.488C219.707 137.495 220.155 137.499 220.607 137.499C221.059 137.499 221.506 137.495 221.948 137.488C222.182 137.483 222.414 137.478 222.645 137.472C223.464 137.45 224.261 137.415 225.032 137.368C225.267 137.354 225.499 137.339 225.728 137.323C225.968 137.305 226.206 137.287 226.439 137.267C226.419 137.364 226.398 137.461 226.377 137.557C226.164 137.583 225.949 137.608 225.729 137.632C225.051 137.706 224.338 137.77 223.598 137.823C223.368 137.84 223.136 137.855 222.901 137.87C222.131 137.916 221.333 137.951 220.514 137.973C220.284 137.979 220.051 137.984 219.818 137.988C219.376 137.996 218.929 138 218.476 138Z" fill="#CB9C33"/>
<path fill-rule="evenodd" clip-rule="evenodd" d="M225.439 137V133.04C225.777 133.027 226.11 133.014 226.439 133V136.961C226.11 136.975 225.777 136.988 225.439 137Z" fill="#CE572E"/>
<path fill-rule="evenodd" clip-rule="evenodd" d="M222.439 137V133.013C222.775 133.01 223.109 133.005 223.439 133V136.986C223.109 136.992 222.775 136.996 222.439 137Z" fill="#CE572E"/>
<path fill-rule="evenodd" clip-rule="evenodd" d="M209.439 136C209.085 135.944 208.752 135.887 208.439 135.828V133.853L209.004 132C209.146 132.024 209.29 132.048 209.439 132.071V136Z" fill="#CE572E"/>
<path fill-rule="evenodd" clip-rule="evenodd" d="M211.439 137C211.096 136.965 210.762 136.929 210.439 136.891V133C210.762 133.037 211.096 133.074 211.439 133.109V137Z" fill="#CE572E"/>
<path fill-rule="evenodd" clip-rule="evenodd" d="M214.439 137C214.1 136.978 213.767 136.955 213.439 136.931V133C213.767 133.024 214.1 133.047 214.439 133.069V137Z" fill="#CE572E"/>
<path fill-rule="evenodd" clip-rule="evenodd" d="M216.439 137C216.102 136.988 215.769 136.975 215.439 136.961V133C215.769 133.014 216.102 133.027 216.439 133.04V137Z" fill="#CE572E"/>
<path fill-rule="evenodd" clip-rule="evenodd" d="M219.439 137C219.104 136.996 218.77 136.992 218.439 136.986V133C218.77 133.005 219.104 133.01 219.439 133.013V137Z" fill="#CE572E"/>
<path fill-rule="evenodd" clip-rule="evenodd" d="M221.175 133C220.74 133 220.309 132.997 219.884 132.991C219.659 132.988 219.435 132.983 219.213 132.979C218.424 132.961 217.657 132.933 216.915 132.896C216.689 132.885 216.466 132.872 216.245 132.859C215.532 132.817 214.846 132.766 214.193 132.707C213.965 132.686 213.741 132.665 213.522 132.642C212.883 132.576 212.279 132.503 211.716 132.422C211.486 132.389 211.262 132.355 211.046 132.32C210.572 132.242 210.132 132.16 209.731 132.072C209.631 132.05 209.534 132.028 209.439 132.006L209.441 132C209.996 132.079 210.591 132.152 211.221 132.216C211.44 132.239 211.664 132.26 211.891 132.281C212.545 132.34 213.231 132.391 213.944 132.433C214.165 132.446 214.388 132.459 214.614 132.47C215.356 132.507 216.123 132.535 216.912 132.553C217.134 132.558 217.358 132.562 217.582 132.565C218.008 132.571 218.438 132.574 218.874 132.574C219.309 132.574 219.739 132.571 220.165 132.565C220.39 132.562 220.614 132.558 220.836 132.553C221.624 132.535 222.392 132.507 223.133 132.47C223.359 132.459 223.583 132.446 223.804 132.433C224.517 132.391 225.202 132.34 225.856 132.281C226.083 132.26 226.307 132.239 226.526 132.216C226.84 132.184 227.144 132.15 227.439 132.114C227.437 132.176 227.435 132.238 227.432 132.301C227.426 132.454 227.417 132.61 227.406 132.77C226.984 132.803 226.549 132.833 226.105 132.859C225.884 132.872 225.661 132.885 225.435 132.896C224.693 132.933 223.925 132.961 223.137 132.979C222.915 132.983 222.691 132.988 222.466 132.991C222.041 132.997 221.61 133 221.175 133Z" fill="#CB9C33"/>
<path fill-rule="evenodd" clip-rule="evenodd" d="M225.439 133V129.069C225.778 129.047 226.113 129.024 226.439 129V132.931C226.113 132.955 225.778 132.978 225.439 133Z" fill="#CE572E"/>
<path fill-rule="evenodd" clip-rule="evenodd" d="M222.439 133V129.039C222.777 129.027 223.11 129.014 223.439 129V132.96C223.11 132.974 222.777 132.988 222.439 133Z" fill="#CE572E"/>
<path fill-rule="evenodd" clip-rule="evenodd" d="M219.439 133V129.014C219.775 129.01 220.109 129.006 220.439 129V132.987C220.109 132.992 219.775 132.997 219.439 133Z" fill="#CE572E"/>
<path fill-rule="evenodd" clip-rule="evenodd" d="M211.439 133C211.1 132.978 210.766 132.955 210.439 132.931V129C210.766 129.024 211.1 129.047 211.439 129.069V133Z" fill="#CE572E"/>
<path fill-rule="evenodd" clip-rule="evenodd" d="M214.439 133C214.102 132.988 213.769 132.974 213.439 132.96V129C213.769 129.014 214.102 129.027 214.439 129.039V133Z" fill="#CE572E"/>
<path fill-rule="evenodd" clip-rule="evenodd" d="M217.439 133C217.104 132.997 216.77 132.992 216.439 132.987V129C216.77 129.006 217.104 129.01 217.439 129.014V133Z" fill="#CE572E"/>
<path fill-rule="evenodd" clip-rule="evenodd" d="M219.04 130C218.607 130 218.179 129.997 217.756 129.991C217.533 129.988 217.31 129.984 217.09 129.979C216.306 129.963 215.543 129.936 214.806 129.9C214.581 129.89 214.359 129.878 214.139 129.865C213.431 129.825 212.749 129.776 212.099 129.719C211.873 129.7 211.651 129.679 211.433 129.657C211.091 129.623 210.76 129.587 210.439 129.549L210.517 129.207C210.711 129.226 210.909 129.244 211.109 129.262C211.758 129.318 212.44 129.367 213.149 129.407C213.369 129.42 213.591 129.432 213.815 129.443C214.553 129.478 215.315 129.505 216.099 129.522C216.32 129.526 216.542 129.53 216.766 129.533C217.189 129.539 217.617 129.542 218.049 129.542C218.482 129.542 218.91 129.539 219.332 129.533C219.556 129.53 219.779 129.526 219.999 129.522C220.783 129.505 221.546 129.478 222.283 129.443C222.508 129.432 222.73 129.42 222.95 129.407C223.658 129.367 224.34 129.318 224.99 129.262C225.215 129.242 225.438 129.221 225.656 129.2C226.261 129.14 226.833 129.073 227.37 129C227.396 129.189 227.419 129.38 227.439 129.573C227.182 129.602 226.917 129.63 226.646 129.657C226.428 129.679 226.206 129.7 225.98 129.719C225.33 129.776 224.649 129.825 223.94 129.865C223.721 129.878 223.498 129.89 223.274 129.9C222.536 129.936 221.773 129.963 220.99 129.979C220.769 129.984 220.547 129.988 220.323 129.991C219.9 129.997 219.472 130 219.04 130Z" fill="#CB9C33"/>
<path fill-rule="evenodd" clip-rule="evenodd" d="M224.439 129V125.069C224.778 125.047 225.112 125.024 225.439 125V128.931C225.112 128.955 224.778 128.978 224.439 129Z" fill="#CE572E"/>
<path fill-rule="evenodd" clip-rule="evenodd" d="M221.439 129V125.039C221.777 125.027 222.11 125.014 222.439 125V128.96C222.11 128.975 221.777 128.988 221.439 129Z" fill="#CE572E"/>
<path fill-rule="evenodd" clip-rule="evenodd" d="M218.439 129V125.014C218.775 125.01 219.109 125.006 219.439 125V128.987C219.109 128.992 218.775 128.997 218.439 129Z" fill="#CE572E"/>
<path fill-rule="evenodd" clip-rule="evenodd" d="M210.439 129C210.101 128.98 209.767 128.959 209.439 128.938L210.439 126V129Z" fill="#CE572E"/>
<path fill-rule="evenodd" clip-rule="evenodd" d="M213.439 129C213.102 128.988 212.769 128.975 212.439 128.96V125C212.769 125.014 213.102 125.027 213.439 125.039V129Z" fill="#CE572E"/>
<path fill-rule="evenodd" clip-rule="evenodd" d="M216.439 129C216.104 128.997 215.77 128.992 215.439 128.987V125C215.77 125.006 216.104 125.01 216.439 125.014V129Z" fill="#CE572E"/>
<path fill-rule="evenodd" clip-rule="evenodd" d="M217.501 125C217.048 125 216.601 124.997 216.158 124.992C215.925 124.989 215.691 124.985 215.461 124.98C214.641 124.964 213.843 124.938 213.072 124.904C212.836 124.894 212.604 124.882 212.374 124.87C211.705 124.835 211.059 124.793 210.439 124.745L210.623 124C210.804 124.026 210.99 124.051 211.18 124.075C211.766 124.149 212.393 124.217 213.058 124.278C213.286 124.299 213.519 124.318 213.755 124.337C214.435 124.392 215.148 124.439 215.889 124.478C216.119 124.49 216.351 124.502 216.587 124.512C217.358 124.546 218.156 124.572 218.976 124.588C219.206 124.593 219.44 124.597 219.673 124.6C220.116 124.605 220.563 124.608 221.016 124.608C221.469 124.608 221.916 124.605 222.358 124.6C222.592 124.597 222.825 124.593 223.056 124.588C223.876 124.572 224.674 124.546 225.445 124.512C225.68 124.502 225.913 124.49 226.143 124.478C226.229 124.474 226.315 124.469 226.4 124.464C226.414 124.501 226.427 124.536 226.439 124.572C226.123 124.606 225.796 124.639 225.459 124.67C225.231 124.691 224.998 124.71 224.762 124.729C224.082 124.784 223.369 124.831 222.628 124.87C222.398 124.882 222.166 124.894 221.931 124.904C221.159 124.938 220.361 124.964 219.541 124.98C219.31 124.985 219.077 124.989 218.843 124.992C218.401 124.997 217.954 125 217.501 125Z" fill="#CB9C33"/>
<path fill-rule="evenodd" clip-rule="evenodd" d="M225.439 125V123C225.806 123.429 226.14 123.877 226.439 124.342V124.968C226.11 124.979 225.777 124.99 225.439 125Z" fill="#CE572E"/>
<path fill-rule="evenodd" clip-rule="evenodd" d="M222.439 125V121.013C222.775 121.01 223.109 121.005 223.439 121V124.986C223.109 124.992 222.775 124.996 222.439 125Z" fill="#CE572E"/>
<path fill-rule="evenodd" clip-rule="evenodd" d="M211.439 124C211.098 123.979 210.764 123.958 210.439 123.936L211.439 122V124Z" fill="#CE572E"/>
<path fill-rule="evenodd" clip-rule="evenodd" d="M214.439 125C214.1 124.978 213.767 124.955 213.439 124.931V121C213.767 121.024 214.1 121.047 214.439 121.069V125Z" fill="#CE572E"/>
<path fill-rule="evenodd" clip-rule="evenodd" d="M216.439 125C216.102 124.987 215.769 124.974 215.439 124.96V121C215.769 121.014 216.102 121.027 216.439 121.04V125Z" fill="#CE572E"/>
<path fill-rule="evenodd" clip-rule="evenodd" d="M219.439 125C219.104 124.996 218.77 124.992 218.439 124.986V121C218.77 121.005 219.104 121.01 219.439 121.013V125Z" fill="#CE572E"/>
<path fill-rule="evenodd" clip-rule="evenodd" d="M220.851 122C220.406 122 219.967 121.995 219.533 121.986C219.303 121.982 219.074 121.975 218.848 121.968C218.042 121.942 217.259 121.901 216.501 121.846C216.27 121.829 216.042 121.81 215.816 121.791C215.089 121.729 214.388 121.653 213.721 121.565C213.489 121.534 213.26 121.502 213.036 121.469C212.476 121.385 211.943 121.293 211.439 121.193L211.469 121C211.971 121.06 212.491 121.113 213.025 121.159C213.251 121.179 213.479 121.197 213.71 121.214C214.468 121.269 215.251 121.31 216.057 121.336C216.283 121.343 216.512 121.349 216.742 121.354C217.176 121.363 217.615 121.368 218.06 121.368C218.505 121.368 218.944 121.363 219.378 121.354C219.608 121.349 219.837 121.343 220.063 121.336C220.868 121.31 221.652 121.269 222.409 121.214C222.64 121.197 222.869 121.179 223.094 121.159C223.423 121.131 223.745 121.1 224.061 121.066C224.191 121.337 224.317 121.614 224.439 121.896C223.922 121.927 223.393 121.951 222.854 121.968C222.628 121.975 222.399 121.982 222.169 121.986C221.735 121.995 221.295 122 220.851 122Z" fill="#CB9C33"/>
<path fill-rule="evenodd" clip-rule="evenodd" d="M222.439 121V119C222.784 119.226 223.118 119.461 223.439 119.704V120.964C223.11 120.977 222.777 120.989 222.439 121Z" fill="#CE572E"/>
<path fill-rule="evenodd" clip-rule="evenodd" d="M219.439 121V117.014C219.775 117.01 220.109 117.006 220.439 117V120.987C220.109 120.992 219.775 120.997 219.439 121Z" fill="#CE572E"/>
<path fill-rule="evenodd" clip-rule="evenodd" d="M214.439 121C214.102 120.988 213.769 120.975 213.439 120.96V117C213.769 117.014 214.102 117.027 214.439 117.04V121Z" fill="#CE572E"/>
<path fill-rule="evenodd" clip-rule="evenodd" d="M217.439 121C217.104 120.997 216.77 120.992 216.439 120.987V117C216.77 117.006 217.104 117.01 217.439 117.014V121Z" fill="#CE572E"/>
<path fill-rule="evenodd" clip-rule="evenodd" d="M218.1 118C217.665 118 217.235 117.996 216.81 117.989C216.585 117.985 216.361 117.98 216.14 117.974C215.351 117.953 214.585 117.918 213.844 117.873C213.618 117.859 213.394 117.844 213.173 117.828C212.925 117.81 212.681 117.791 212.439 117.77L212.577 117C212.685 117.014 212.794 117.028 212.904 117.042C213.123 117.07 213.347 117.096 213.574 117.121C214.227 117.193 214.913 117.256 215.625 117.308C215.846 117.324 216.069 117.339 216.295 117.353C217.036 117.398 217.803 117.432 218.591 117.454C218.813 117.459 219.037 117.464 219.261 117.468C219.444 117.472 219.627 117.474 219.812 117.476C220.026 117.632 220.234 117.794 220.439 117.963C220.314 117.967 220.187 117.97 220.06 117.974C219.839 117.98 219.615 117.985 219.39 117.989C218.965 117.996 218.535 118 218.1 118Z" fill="#CB9C33"/>
<path fill-rule="evenodd" clip-rule="evenodd" d="M213.439 117C213.1 116.98 212.767 116.958 212.439 116.936V115.421L212.578 115L213.439 115.138V117Z" fill="#CE572E"/>
<path fill-rule="evenodd" clip-rule="evenodd" d="M216.439 117C216.102 116.985 215.769 116.97 215.439 116.953V115L215.609 115.035C215.889 115.093 216.166 115.154 216.439 115.22V117Z" fill="#CE572E"/>
<path fill-rule="evenodd" clip-rule="evenodd" d="M219.439 117C219.104 116.995 218.77 116.989 218.439 116.981V116C218.778 116.166 219.113 116.341 219.439 116.524V117Z" fill="#CE572E"/>
<path fill-rule="evenodd" clip-rule="evenodd" d="M219.082 73.2162H218.936C218.6 71.6069 218.752 70.3014 219.39 69.3309C220.116 68.2282 221.276 67.4146 222.24 66.4669C223.205 65.5194 224.018 64.2907 223.789 63.0302C223.56 61.7694 221.821 60.7469 220.621 61.4513C220.065 61.778 219.777 62.3573 219.328 62.7954C218.765 63.3451 217.909 63.666 217.078 63.5798C216.247 63.4937 215.474 62.9772 215.212 62.2716C214.852 61.2988 215.453 60.2804 215.78 59.2979C216.054 58.473 216.132 57.5732 215.82 56.7589C215.509 55.9448 214.76 55.2351 213.814 55.0499C212.534 54.7997 211.255 55.5274 210.405 56.4127C209.556 57.2982 208.96 58.3673 208.03 59.1866C207.101 60.0065 205.644 60.5412 204.474 60.0178C203.619 59.6354 203.16 58.813 202.644 58.0968C202.127 57.3806 201.346 56.6631 200.39 56.7246C199.184 56.8017 198.544 58.042 198.427 59.1095C198.188 61.3101 199.059 63.4732 199.917 65.5489C200.974 68.1047 202.03 70.6606 203.087 73.2162H202.797C202.797 86.6191 182.439 101.317 182.439 117.666C182.439 134.015 194.967 145 210.939 145C226.912 145 239.439 134.015 239.439 117.666C239.439 101.317 219.082 86.6191 219.082 73.2162Z" fill="#5DA0EC"/>
<path fill-rule="evenodd" clip-rule="evenodd" d="M219.066 73.8835H218.92C218.584 72.2892 218.735 70.9959 219.375 70.0344C220.101 68.9419 221.261 68.1359 222.227 67.197C223.192 66.2583 224.006 65.041 223.776 63.7922C223.547 62.5432 221.808 61.5301 220.606 62.228C220.049 62.5516 219.761 63.1256 219.312 63.5597C218.749 64.1042 217.892 64.4221 217.06 64.3368C216.936 64.324 216.813 64.2986 216.693 64.2676C216.476 64.549 216.233 64.8162 215.978 65.0636C215.013 66.0023 213.852 66.8083 213.126 67.901C212.72 68.512 212.512 69.2585 212.5 70.13L212.499 70.1291C212.5 70.157 212.501 70.1898 212.502 70.2229C212.502 70.4133 212.513 70.61 212.531 70.8119C212.576 71.5934 212.661 72.7214 212.78 73.4568L212.782 73.4554C214.386 86.273 233.191 100.28 233.191 115.787C233.191 131.984 220.654 142.866 204.668 142.866C202.162 142.866 199.741 142.598 197.439 142.085C201.433 143.973 206.012 145 210.917 145C226.902 145 239.439 134.117 239.439 117.92C239.439 101.723 219.066 87.1619 219.066 73.8835Z" fill="#4C87CA"/>
<path fill-rule="evenodd" clip-rule="evenodd" d="M218.812 74H203.067C202.72 74 202.439 73.5556 202.439 73.0073V72.9927C202.439 72.4444 202.72 72 203.067 72H218.812C219.159 72 219.439 72.4444 219.439 72.9927V73.0073C219.439 73.5556 219.159 74 218.812 74Z" fill="#CCD8E8"/>
<path fill-rule="evenodd" clip-rule="evenodd" d="M195.184 114.649L192.422 114L185.439 145.016L188.196 145.686C195.539 147.411 203.055 141.861 204.985 133.29C206.914 124.72 202.526 116.374 195.184 114.649Z" fill="#A3CBFB"/>
<path fill-rule="evenodd" clip-rule="evenodd" d="M201.976 132.557C200.011 140.948 192.358 146.381 184.882 144.692C177.406 143.004 172.938 134.833 174.903 126.443C176.868 118.052 184.521 112.619 191.997 114.307C199.473 115.996 203.941 124.167 201.976 132.557Z" fill="#E3EFFF"/>
<path fill-rule="evenodd" clip-rule="evenodd" d="M175.303 127.228C177.228 118.723 184.73 113.216 192.057 114.927C195.113 115.641 197.653 117.5 199.439 120.038C197.642 117.186 194.945 115.082 191.647 114.312C184.32 112.6 176.819 118.107 174.893 126.612C173.77 131.571 174.793 136.451 177.291 140C175.095 136.513 174.244 131.906 175.303 127.228Z" fill="#A3CBFB"/>
<path fill-rule="evenodd" clip-rule="evenodd" d="M186.165 141.781C180.582 140.527 177.284 134.222 178.814 127.726C180.344 121.23 186.13 116.965 191.714 118.219C197.297 119.473 200.595 125.778 199.065 132.274C197.536 138.77 191.748 143.035 186.165 141.781Z" fill="#FACA30"/>
<path fill-rule="evenodd" clip-rule="evenodd" d="M186.165 141.781C180.582 140.527 177.284 134.222 178.814 127.726C180.344 121.23 186.13 116.965 191.714 118.219C197.297 119.473 200.595 125.778 199.065 132.274C197.535 138.77 191.748 143.035 186.165 141.781Z" fill="#A3CBFB"/>
<path fill-rule="evenodd" clip-rule="evenodd" d="M187.33 141.395C181.784 140.127 178.508 133.753 180.028 127.186C181.053 122.757 184.002 119.358 187.514 118C183.479 118.979 179.953 122.639 178.811 127.571C177.292 134.138 180.567 140.512 186.113 141.78C187.918 142.192 189.744 142.01 191.439 141.356C190.103 141.68 188.71 141.711 187.33 141.395Z" fill="#81BAFE"/>
<path fill-rule="evenodd" clip-rule="evenodd" d="M194.972 124.296L192.248 123.623C192.077 123.58 191.932 123.777 192.008 123.946C192.277 124.549 192.399 125.272 192.306 126.134C192.294 126.245 192.356 126.346 192.455 126.371L194.328 126.834C194.438 126.861 194.502 126.981 194.472 127.101L194.267 127.91C194.236 128.03 194.122 128.106 194.012 128.078L192.165 127.622C192.063 127.596 191.959 127.66 191.918 127.767C191.075 130.002 189.199 131.133 186.797 130.788C186.631 130.764 186.501 130.951 186.572 131.112C187.56 133.339 188.555 135.994 189.531 138.686C189.591 138.854 189.446 139.035 189.282 138.994L187.799 138.628C187.736 138.612 187.685 138.565 187.662 138.501C186.671 135.826 185.731 133.334 184.459 130.435C184.438 130.389 184.434 130.334 184.447 130.283L184.763 129.037C184.793 128.917 184.907 128.842 185.017 128.869L185.951 129.1C188.064 129.622 189.504 128.905 190.141 127.392C190.195 127.264 190.132 127.119 190.008 127.088L185.737 126.032C185.627 126.005 185.563 125.885 185.593 125.765L185.799 124.956C185.829 124.836 185.943 124.761 186.053 124.788L190.228 125.82C190.363 125.854 190.497 125.734 190.492 125.584C190.44 124.238 189.537 123.349 187.866 122.935L186.602 122.623C186.492 122.596 186.428 122.476 186.459 122.356L186.758 121.174C186.789 121.054 186.903 120.978 187.013 121.006L195.288 123.052C195.398 123.079 195.462 123.199 195.432 123.319L195.227 124.127C195.196 124.248 195.082 124.323 194.972 124.296Z" fill="#81BAFE"/>
<path fill-rule="evenodd" clip-rule="evenodd" d="M193.972 124.296L191.248 123.623C191.077 123.58 190.932 123.777 191.008 123.947C191.277 124.549 191.399 125.272 191.306 126.134C191.294 126.245 191.356 126.346 191.455 126.371L193.328 126.834C193.438 126.861 193.502 126.981 193.472 127.101L193.267 127.91C193.236 128.03 193.122 128.106 193.012 128.078L191.165 127.621C191.064 127.596 190.959 127.66 190.918 127.767C190.075 130.002 188.199 131.134 185.797 130.788C185.631 130.764 185.501 130.951 185.572 131.112C186.56 133.339 187.555 135.994 188.531 138.686C188.591 138.854 188.446 139.035 188.282 138.994L186.799 138.628C186.736 138.612 186.686 138.565 186.662 138.501C185.671 135.826 184.731 133.334 183.459 130.435C183.438 130.389 183.434 130.334 183.447 130.283L183.763 129.037C183.793 128.917 183.907 128.842 184.017 128.869L184.951 129.1C187.064 129.622 188.504 128.905 189.141 127.392C189.195 127.264 189.131 127.119 189.008 127.088L184.737 126.032C184.627 126.005 184.563 125.885 184.593 125.765L184.799 124.956C184.829 124.836 184.943 124.761 185.053 124.788L189.228 125.82C189.363 125.854 189.497 125.734 189.492 125.584C189.44 124.238 188.537 123.349 186.866 122.935L185.602 122.623C185.492 122.596 185.428 122.476 185.459 122.356L185.758 121.174C185.789 121.054 185.903 120.978 186.013 121.006L194.288 123.052C194.398 123.079 194.462 123.199 194.432 123.319L194.227 124.127C194.196 124.248 194.082 124.323 193.972 124.296Z" fill="#E3EFFF"/>
<path d="M201.764 105.136L201.082 107.182H208.894C208.708 107.957 208.274 108.577 207.623 109.042C206.662 109.724 205.205 110.065 203.252 110.065H201.33V112.483C202.012 112.483 202.694 112.7 203.314 113.134C203.872 113.506 204.399 114.002 204.895 114.684L210.444 122H215.373L208.677 113.568C207.995 112.7 207.53 112.142 207.282 111.956C208.925 111.584 210.227 110.902 211.219 109.91C211.901 109.166 212.366 108.236 212.552 107.182H215.776L216.458 105.136H212.614C212.49 103.865 212.087 102.78 211.436 101.912H215.745L216.427 99.866H201.702L201.02 101.912H204.337C205.856 101.912 207.003 102.222 207.809 102.904C208.429 103.431 208.801 104.175 208.956 105.136H201.764Z" fill="white"/>
<path fill-rule="evenodd" clip-rule="evenodd" d="M218.44 139L218.439 142.684C218.439 143.962 224.707 144.999 232.439 145C240.171 145.001 246.439 143.967 246.439 142.69L246.439 139.005L218.44 139Z" fill="#A3CBFB"/>
<path fill-rule="evenodd" clip-rule="evenodd" d="M246.439 139.002C246.439 140.107 240.171 141.001 232.439 141C224.707 140.999 218.439 140.102 218.439 138.998C218.44 137.893 224.708 136.999 232.44 137C240.172 137.001 246.439 137.898 246.439 139.002Z" fill="#4698FB"/>
<path fill-rule="evenodd" clip-rule="evenodd" d="M243.439 139.002C243.439 139.554 238.514 140.001 232.439 140C226.364 139.999 221.439 139.55 221.439 138.998C221.44 138.446 226.365 137.999 232.44 138C238.515 138.001 243.44 138.45 243.439 139.002Z" fill="#EC953A"/>
<path fill-rule="evenodd" clip-rule="evenodd" d="M221.914 138.997C223.284 138.68 227.477 138.449 232.44 138.45C237.402 138.451 241.595 138.682 242.966 139C243.273 138.929 243.439 138.853 243.439 138.775C243.44 138.348 238.515 138.001 232.44 138C226.365 137.999 221.44 138.345 221.439 138.772C221.439 138.85 221.606 138.926 221.914 138.997Z" fill="#E46F35"/>
<path fill-rule="evenodd" clip-rule="evenodd" d="M217.44 135L217.439 138.685C217.439 139.962 223.707 140.999 231.439 141C239.171 141.001 245.439 139.967 245.439 138.69L245.439 135.005L217.44 135Z" fill="#A3CBFB"/>
<path fill-rule="evenodd" clip-rule="evenodd" d="M245.439 135.003C245.439 136.107 239.171 137.001 231.439 137C223.707 136.999 217.439 136.102 217.439 134.998C217.44 133.893 223.708 132.999 231.44 133C239.172 133.001 245.44 133.898 245.439 135.003Z" fill="#E3EFFF"/>
<path fill-rule="evenodd" clip-rule="evenodd" d="M242.439 135.002C242.439 135.554 237.514 136.001 231.439 136C225.364 135.999 220.439 135.55 220.439 134.998C220.439 134.446 225.364 133.999 231.439 134C237.515 134.001 242.439 134.45 242.439 135.002Z" fill="#A3CBFB"/>
<path fill-rule="evenodd" clip-rule="evenodd" d="M220.913 134.997C222.284 134.68 226.477 134.449 231.439 134.45C236.402 134.45 240.595 134.682 241.965 135C242.273 134.929 242.439 134.853 242.439 134.775C242.439 134.348 237.515 134.001 231.439 134C225.364 133.999 220.439 134.345 220.439 134.772C220.439 134.85 220.606 134.926 220.913 134.997Z" fill="#81BAFE"/>
<path d="M155.444 71L156.439 69.0717L155.011 67.4335L155.512 65.3248L153.728 64.0763L153.704 61.9099L151.671 61.1218L151.126 59.0237L148.963 58.7388L147.93 56.83L145.761 57.0675L144.297 55.4614L142.249 56.2106L140.439 55L138.63 56.2106L136.582 55.4614L135.117 57.0675L132.948 56.8301L131.916 58.7388L129.752 59.0238L129.208 61.1219L127.175 61.9101L127.151 64.0765L125.367 65.3248L125.868 67.4336L124.439 69.0717L125.435 71L124.44 72.9283L125.868 74.5665L125.367 76.6752L127.151 77.9237L127.175 80.0901L129.208 80.8782L129.753 82.9763L131.916 83.2612L132.948 85.17L135.118 84.9325L136.582 86.5386L138.63 85.7894L140.439 87L142.249 85.7894L144.297 86.5386L145.762 84.9325L147.931 85.1699L148.963 83.2612L151.126 82.9762L151.671 80.8781L153.704 80.0899L153.728 77.9235L155.512 76.6752L155.011 74.5664L156.439 72.9283L155.444 71Z" fill="#5DA0EC"/>
<circle cx="140.439" cy="71" r="13" fill="#A3CBFB"/>
<path fill-rule="evenodd" clip-rule="evenodd" d="M140.445 61.1C140.791 61.1002 141.136 61.1182 141.48 61.154L141.594 60.0599C141.213 60.0202 140.829 60.0002 140.446 60L140.445 61.1ZM138.386 61.313L138.16 60.2366C138.535 60.1575 138.915 60.0981 139.297 60.0586L139.41 61.1529C139.066 61.1883 138.724 61.2418 138.386 61.3131V61.313ZM142.503 61.3151C142.841 61.3869 143.175 61.4764 143.504 61.5832L143.844 60.5369C143.478 60.4183 143.107 60.3189 142.732 60.239L142.503 61.3151ZM136.418 61.9506L135.971 60.9457C136.322 60.7894 136.681 60.6517 137.046 60.5332L137.385 61.5795C137.057 61.6862 136.734 61.8101 136.418 61.9506ZM144.47 61.9546C144.786 62.0956 145.093 62.2528 145.392 62.4258L145.944 61.4738C145.611 61.2815 145.269 61.1068 144.919 60.9502L144.47 61.9546ZM134.626 62.9853L133.98 62.0954C134.29 61.8698 134.613 61.6604 134.945 61.4682L135.495 62.4208C135.196 62.5938 134.906 62.7823 134.626 62.9856V62.9853ZM146.261 62.991C146.54 63.1945 146.809 63.4124 147.065 63.6437L147.802 62.8268C147.517 62.5698 147.219 62.3277 146.908 62.1017L146.261 62.991ZM133.087 64.37L132.271 63.6332C132.528 63.3482 132.8 63.0768 133.085 62.82L133.821 63.6377C133.564 63.869 133.319 64.1134 133.087 64.37ZM147.798 64.377C148.029 64.634 148.247 64.9028 148.451 65.1824L149.34 64.5352C149.114 64.225 148.872 63.9266 148.616 63.6414L147.798 64.377ZM131.868 66.0424L130.917 65.4906C131.109 65.1585 131.319 64.8368 131.545 64.5265L132.434 65.1745C132.23 65.4538 132.042 65.7435 131.868 66.0424ZM149.016 66.051C149.189 66.3502 149.346 66.6582 149.487 66.9739L150.492 66.5258C150.335 66.175 150.16 65.8326 149.968 65.5L149.016 66.051ZM131.024 67.9307L129.978 67.59C130.098 67.2248 130.236 66.8661 130.392 66.5154L131.397 66.9643C131.256 67.2797 131.131 67.6023 131.024 67.9307ZM149.858 67.9406C149.965 68.2694 150.054 68.6035 150.125 68.9416L151.202 68.7139C151.122 68.338 151.023 67.9666 150.905 67.6011L149.858 67.9406ZM130.594 69.954L129.5 69.8392C129.54 69.4573 129.6 69.0778 129.68 68.7022L130.756 68.9308C130.684 69.2688 130.63 69.6103 130.594 69.954ZM150.339 71.0231H151.439V71C151.439 70.6163 151.42 70.2329 151.38 69.8512L150.286 69.9648C150.322 70.3087 150.339 70.6542 150.339 71V71.0231ZM129.498 72.1368C129.459 71.7591 129.439 71.3797 129.439 71V70.9885H130.539V71C130.539 71.3421 130.557 71.684 130.592 72.0244L129.498 72.1368ZM150.121 73.08L151.196 73.31C151.277 72.9345 151.337 72.555 151.378 72.1732L150.284 72.0572C150.247 72.4007 150.193 72.7421 150.121 73.08ZM129.971 74.3872C129.853 74.0216 129.754 73.65 129.675 73.274L130.751 73.0477C130.823 73.3858 130.911 73.72 131.018 74.0488L129.971 74.3872ZM149.478 75.0456L150.482 75.4956V75.4958C150.639 75.1453 150.777 74.7869 150.897 74.4219L149.851 74.08C149.744 74.4082 149.619 74.7305 149.478 75.0456ZM130.905 76.489C130.713 76.1563 130.539 75.8137 130.382 75.4628L131.388 75.0159C131.528 75.3317 131.685 75.64 131.858 75.9394L130.905 76.489ZM148.439 76.8341L149.327 77.4831C149.553 77.1731 149.763 76.8515 149.956 76.5197L149.005 75.9668C148.832 76.2656 148.642 76.5551 148.439 76.8341ZM132.255 78.35C131.999 78.0644 131.757 77.7657 131.532 77.455L132.422 76.8088C132.625 77.0885 132.842 77.3575 133.073 77.6146L132.255 78.35ZM147.05 78.37L147.785 79.1881C148.07 78.9317 148.343 78.6606 148.6 78.376L147.784 77.6385C147.552 77.8949 147.307 78.139 147.05 78.37ZM133.961 79.8905C133.651 79.6641 133.353 79.4218 133.068 79.1645L133.805 78.3483C134.062 78.5801 134.33 78.7985 134.609 79.0025L133.961 79.8905ZM145.374 79.5841L145.923 80.5373V80.5375C146.256 80.3456 146.579 80.1364 146.889 79.9109L146.244 79.0204C145.964 79.2233 145.674 79.4114 145.374 79.5841ZM135.949 81.0444C135.599 80.8874 135.257 80.7122 134.925 80.5195L135.477 79.5682C135.776 79.7416 136.084 79.8992 136.399 80.0404L135.949 81.0444ZM143.483 80.4236L143.821 81.4704V81.4706C144.186 81.3525 144.546 81.2152 144.897 81.0594L144.451 80.0539C144.135 80.194 143.812 80.3174 143.483 80.4236ZM138.136 81.7583C137.76 81.6781 137.389 81.5783 137.024 81.4593L137.365 80.4135C137.693 80.5206 138.027 80.6104 138.365 80.6825L138.136 81.7583ZM141.458 80.8483L141.57 81.9426C141.952 81.9035 142.332 81.8446 142.707 81.766L142.482 80.6894C142.144 80.7601 141.802 80.8131 141.458 80.8483ZM139.272 81.9388C139.654 81.9789 140.038 81.9993 140.421 82L140.423 80.8999C140.077 80.8993 139.732 80.881 139.388 80.8449L139.272 81.9388Z" fill="#5DA0EC"/>
<circle cx="140.439" cy="71" r="8" fill="#E3EFFF"/>
<path d="M138.604 75C138.325 75.0004 138.057 74.8878 137.86 74.6873L135.755 72.5521C135.485 72.2833 135.378 71.8882 135.475 71.5172C135.571 71.1463 135.857 70.8566 136.223 70.7585C136.588 70.6603 136.978 70.7687 137.243 71.0424L138.604 72.4226L143.649 67.3059C144.061 66.8954 144.723 66.8984 145.131 67.3127C145.54 67.7269 145.543 68.3976 145.138 68.8156L139.348 74.6873C139.151 74.8878 138.883 75.0004 138.604 75Z" fill="#35CB5D"/>
</svg>
