<svg width="125" height="95" viewBox="0 0 125 95" fill="none" xmlns="http://www.w3.org/2000/svg">
<mask id="mask0" mask-type="alpha" maskUnits="userSpaceOnUse" x="92" y="85" width="31" height="9">
<path fill-rule="evenodd" clip-rule="evenodd" d="M121.152 93.0687H94.3218C93.4826 93.0687 92.7958 92.3815 92.7958 91.5409V91.2179V87.5184V87.1947C92.7958 86.354 93.4826 85.6669 94.3218 85.6669H121.152C121.991 85.6669 122.677 86.354 122.677 87.1947V87.5184V91.2179V91.5409C122.677 92.3815 121.991 93.0687 121.152 93.0687Z" fill="white"/>
</mask>
<g mask="url(#mask0)">
<path fill-rule="evenodd" clip-rule="evenodd" d="M94.2346 92.6583H121.239C122.03 92.6583 122.677 92.01 122.677 91.2179V87.5184C122.677 86.7255 122.03 86.0773 121.239 86.0773H94.2346C93.443 86.0773 92.7958 86.7255 92.7958 87.5184V91.2179C92.7958 92.01 93.443 92.6583 94.2346 92.6583Z" fill="#FFE065" fill-opacity="0.640352"/>
</g>
<g opacity="0.582031" clip-path="url(#clip0)">
<path fill-rule="evenodd" clip-rule="evenodd" d="M121.149 92.209C121.429 92.209 121.659 91.9792 121.659 91.6988V87.0383C121.659 86.7578 121.429 86.528 121.149 86.528C120.869 86.528 120.64 86.7578 120.64 87.0383V91.6988C120.64 91.9792 120.869 92.209 121.149 92.209Z" fill="#FFDD99"/>
<path fill-rule="evenodd" clip-rule="evenodd" d="M119.371 92.209C119.652 92.209 119.88 91.9792 119.88 91.6988V87.0383C119.88 86.7578 119.652 86.528 119.371 86.528C119.091 86.528 118.862 86.7578 118.862 87.0383V91.6988C118.862 91.9792 119.091 92.209 119.371 92.209Z" fill="#FFDD99"/>
<path fill-rule="evenodd" clip-rule="evenodd" d="M117.594 92.209C117.874 92.209 118.103 91.9792 118.103 91.6988V87.0383C118.103 86.7578 117.874 86.528 117.594 86.528C117.314 86.528 117.084 86.7578 117.084 87.0383V91.6988C117.084 91.9792 117.314 92.209 117.594 92.209Z" fill="#FFDD99"/>
<path fill-rule="evenodd" clip-rule="evenodd" d="M115.816 92.209C116.096 92.209 116.326 91.9792 116.326 91.6988V87.0383C116.326 86.7578 116.096 86.528 115.816 86.528C115.536 86.528 115.307 86.7578 115.307 87.0383V91.6988C115.307 91.9792 115.536 92.209 115.816 92.209Z" fill="#FFDD99"/>
<path fill-rule="evenodd" clip-rule="evenodd" d="M114.038 92.209C114.318 92.209 114.548 91.9792 114.548 91.6988V87.0383C114.548 86.7578 114.318 86.528 114.038 86.528C113.758 86.528 113.529 86.7578 113.529 87.0383V91.6988C113.529 91.9792 113.758 92.209 114.038 92.209Z" fill="#FFDD99"/>
<path fill-rule="evenodd" clip-rule="evenodd" d="M112.261 92.209C112.541 92.209 112.77 91.9792 112.77 91.6988V87.0383C112.77 86.7578 112.541 86.528 112.261 86.528C111.981 86.528 111.751 86.7578 111.751 87.0383V91.6988C111.751 91.9792 111.981 92.209 112.261 92.209Z" fill="#FFDD99"/>
<path fill-rule="evenodd" clip-rule="evenodd" d="M110.483 92.209C110.763 92.209 110.992 91.9792 110.992 91.6988V87.0383C110.992 86.7578 110.763 86.528 110.483 86.528C110.203 86.528 109.974 86.7578 109.974 87.0383V91.6988C109.974 91.9792 110.203 92.209 110.483 92.209Z" fill="#FFDD99"/>
<path fill-rule="evenodd" clip-rule="evenodd" d="M108.705 92.209C108.985 92.209 109.215 91.9792 109.215 91.6988V87.0383C109.215 86.7578 108.985 86.528 108.705 86.528C108.425 86.528 108.196 86.7578 108.196 87.0383V91.6988C108.196 91.9792 108.425 92.209 108.705 92.209Z" fill="#FFDD99"/>
<path fill-rule="evenodd" clip-rule="evenodd" d="M106.928 92.209C107.208 92.209 107.437 91.9792 107.437 91.6988V87.0383C107.437 86.7578 107.208 86.528 106.928 86.528C106.648 86.528 106.418 86.7578 106.418 87.0383V91.6988C106.418 91.9792 106.648 92.209 106.928 92.209Z" fill="#FFDD99"/>
<path fill-rule="evenodd" clip-rule="evenodd" d="M105.15 92.209C105.43 92.209 105.659 91.9792 105.659 91.6988V87.0383C105.659 86.7578 105.43 86.528 105.15 86.528C104.87 86.528 104.64 86.7578 104.64 87.0383V91.6988C104.64 91.9792 104.87 92.209 105.15 92.209Z" fill="#FFDD99"/>
<path fill-rule="evenodd" clip-rule="evenodd" d="M103.372 92.209C103.652 92.209 103.882 91.9792 103.882 91.6988V87.0383C103.882 86.7578 103.652 86.528 103.372 86.528C103.092 86.528 102.863 86.7578 102.863 87.0383V91.6988C102.863 91.9792 103.092 92.209 103.372 92.209Z" fill="#FFDD99"/>
<path fill-rule="evenodd" clip-rule="evenodd" d="M101.595 92.209C101.875 92.209 102.104 91.9792 102.104 91.6988V87.0383C102.104 86.7578 101.875 86.528 101.595 86.528C101.314 86.528 101.085 86.7578 101.085 87.0383V91.6988C101.085 91.9792 101.314 92.209 101.595 92.209Z" fill="#FFDD99"/>
<path fill-rule="evenodd" clip-rule="evenodd" d="M99.8167 92.209C100.097 92.209 100.326 91.9792 100.326 91.6988V87.0383C100.326 86.7578 100.097 86.528 99.8167 86.528C99.5367 86.528 99.3073 86.7578 99.3073 87.0383V91.6988C99.3073 91.9792 99.5367 92.209 99.8167 92.209Z" fill="#FFDD99"/>
<path fill-rule="evenodd" clip-rule="evenodd" d="M98.0393 92.209C98.3193 92.209 98.5487 91.9792 98.5487 91.6988V87.0383C98.5487 86.7578 98.3193 86.528 98.0393 86.528C97.7593 86.528 97.5299 86.7578 97.5299 87.0383V91.6988C97.5299 91.9792 97.7593 92.209 98.0393 92.209Z" fill="#FFDD99"/>
<path fill-rule="evenodd" clip-rule="evenodd" d="M96.2618 92.209C96.5418 92.209 96.7705 91.9792 96.7705 91.6988V87.0383C96.7705 86.7578 96.5418 86.528 96.2618 86.528C95.9811 86.528 95.7524 86.7578 95.7524 87.0383V91.6988C95.7524 91.9792 95.9811 92.209 96.2618 92.209Z" fill="#FFDD99"/>
<path fill-rule="evenodd" clip-rule="evenodd" d="M94.4838 92.209C94.7638 92.209 94.9932 91.9792 94.9932 91.6988V87.0383C94.9932 86.7578 94.7638 86.528 94.4838 86.528C94.2038 86.528 93.9744 86.7578 93.9744 87.0383V91.6988C93.9744 91.9792 94.2038 92.209 94.4838 92.209Z" fill="#FFDD99"/>
<path fill-rule="evenodd" clip-rule="evenodd" d="M95.7612 85.9304H122.591C123.43 85.9304 124.117 85.2425 124.117 84.4026V80.0557C124.117 79.2158 123.43 78.5279 122.591 78.5279H95.7612C94.922 78.5279 94.236 79.2158 94.236 80.0557V84.4026C94.236 85.2425 94.922 85.9304 95.7612 85.9304Z" fill="#FFD840"/>
<path fill-rule="evenodd" clip-rule="evenodd" d="M95.674 85.5193H122.678C123.47 85.5193 124.117 84.871 124.117 84.0789V80.3794C124.117 79.5873 123.47 78.939 122.678 78.939H95.674C94.8832 78.939 94.236 79.5873 94.236 80.3794V84.0789C94.236 84.871 94.8832 85.5193 95.674 85.5193Z" fill="#FFE065" fill-opacity="0.640352"/>
<path fill-rule="evenodd" clip-rule="evenodd" d="M122.589 85.07C122.869 85.07 123.098 84.8409 123.098 84.5598V79.9C123.098 79.6196 122.869 79.3898 122.589 79.3898C122.309 79.3898 122.079 79.6196 122.079 79.9V84.5598C122.079 84.8409 122.309 85.07 122.589 85.07Z" fill="#FFC34E"/>
<path fill-rule="evenodd" clip-rule="evenodd" d="M120.811 85.07C121.091 85.07 121.32 84.8409 121.32 84.5598V79.9C121.32 79.6196 121.091 79.3898 120.811 79.3898C120.531 79.3898 120.302 79.6196 120.302 79.9V84.5598C120.302 84.8409 120.531 85.07 120.811 85.07Z" fill="#FFC34E"/>
<path fill-rule="evenodd" clip-rule="evenodd" d="M119.033 85.07C119.313 85.07 119.543 84.8409 119.543 84.5598V79.9C119.543 79.6196 119.313 79.3898 119.033 79.3898C118.753 79.3898 118.524 79.6196 118.524 79.9V84.5598C118.524 84.8409 118.753 85.07 119.033 85.07Z" fill="#FFC34E"/>
<path fill-rule="evenodd" clip-rule="evenodd" d="M117.256 85.07C117.536 85.07 117.765 84.8409 117.765 84.5598V79.9C117.765 79.6196 117.536 79.3898 117.256 79.3898C116.975 79.3898 116.746 79.6196 116.746 79.9V84.5598C116.746 84.8409 116.975 85.07 117.256 85.07Z" fill="#FFC34E"/>
<path fill-rule="evenodd" clip-rule="evenodd" d="M115.478 85.07C115.758 85.07 115.987 84.8409 115.987 84.5598V79.9C115.987 79.6196 115.758 79.3898 115.478 79.3898C115.198 79.3898 114.968 79.6196 114.968 79.9V84.5598C114.968 84.8409 115.198 85.07 115.478 85.07Z" fill="#FFC34E"/>
<path fill-rule="evenodd" clip-rule="evenodd" d="M113.7 85.07C113.98 85.07 114.21 84.8409 114.21 84.5598V79.9C114.21 79.6196 113.98 79.3898 113.7 79.3898C113.42 79.3898 113.191 79.6196 113.191 79.9V84.5598C113.191 84.8409 113.42 85.07 113.7 85.07Z" fill="#FFC34E"/>
<path fill-rule="evenodd" clip-rule="evenodd" d="M111.923 85.07C112.203 85.07 112.432 84.8409 112.432 84.5598V79.9C112.432 79.6196 112.203 79.3898 111.923 79.3898C111.642 79.3898 111.413 79.6196 111.413 79.9V84.5598C111.413 84.8409 111.642 85.07 111.923 85.07Z" fill="#FFC34E"/>
<path fill-rule="evenodd" clip-rule="evenodd" d="M110.145 85.07C110.425 85.07 110.654 84.8409 110.654 84.5598V79.9C110.654 79.6196 110.425 79.3898 110.145 79.3898C109.865 79.3898 109.635 79.6196 109.635 79.9V84.5598C109.635 84.8409 109.865 85.07 110.145 85.07Z" fill="#FFC34E"/>
<path fill-rule="evenodd" clip-rule="evenodd" d="M108.367 85.07C108.647 85.07 108.877 84.8409 108.877 84.5598V79.9C108.877 79.6196 108.647 79.3898 108.367 79.3898C108.087 79.3898 107.858 79.6196 107.858 79.9V84.5598C107.858 84.8409 108.087 85.07 108.367 85.07Z" fill="#FFC34E"/>
<path fill-rule="evenodd" clip-rule="evenodd" d="M106.59 85.07C106.87 85.07 107.099 84.8409 107.099 84.5598V79.9C107.099 79.6196 106.87 79.3898 106.59 79.3898C106.309 79.3898 106.08 79.6196 106.08 79.9V84.5598C106.08 84.8409 106.309 85.07 106.59 85.07Z" fill="#FFC34E"/>
<path fill-rule="evenodd" clip-rule="evenodd" d="M94.4873 79.0087H121.318C122.156 79.0087 122.843 78.3216 122.843 77.481V73.134C122.843 72.2941 122.156 71.6062 121.318 71.6062H94.4873C93.6481 71.6062 92.962 72.2941 92.962 73.134V77.481C92.962 78.3216 93.6481 79.0087 94.4873 79.0087Z" fill="#FFC34E"/>
<path fill-rule="evenodd" clip-rule="evenodd" d="M94.4001 78.5976H121.405C122.196 78.5976 122.843 77.9493 122.843 77.1572V73.4577C122.843 72.6656 122.196 72.0173 121.405 72.0173H94.4001C93.6092 72.0173 92.962 72.6656 92.962 73.4577V77.1572C92.962 77.9493 93.6092 78.5976 94.4001 78.5976Z" fill="#FFE065" fill-opacity="0.640352"/>
<path fill-rule="evenodd" clip-rule="evenodd" d="M121.315 78.149C121.595 78.149 121.824 77.9192 121.824 77.6388V72.9783C121.824 72.6979 121.595 72.4681 121.315 72.4681C121.035 72.4681 120.806 72.6979 120.806 72.9783V77.6388C120.806 77.9192 121.035 78.149 121.315 78.149Z" fill="#FFC34E"/>
<path fill-rule="evenodd" clip-rule="evenodd" d="M119.537 78.149C119.817 78.149 120.046 77.9192 120.046 77.6388V72.9783C120.046 72.6979 119.817 72.4681 119.537 72.4681C119.257 72.4681 119.028 72.6979 119.028 72.9783V77.6388C119.028 77.9192 119.257 78.149 119.537 78.149Z" fill="#FFC34E"/>
<path fill-rule="evenodd" clip-rule="evenodd" d="M117.759 78.149C118.039 78.149 118.269 77.9192 118.269 77.6388V72.9783C118.269 72.6979 118.039 72.4681 117.759 72.4681C117.479 72.4681 117.25 72.6979 117.25 72.9783V77.6388C117.25 77.9192 117.479 78.149 117.759 78.149Z" fill="#FFC34E"/>
<path fill-rule="evenodd" clip-rule="evenodd" d="M115.982 78.149C116.262 78.149 116.491 77.9192 116.491 77.6388V72.9783C116.491 72.6979 116.262 72.4681 115.982 72.4681C115.702 72.4681 115.473 72.6979 115.473 72.9783V77.6388C115.473 77.9192 115.702 78.149 115.982 78.149Z" fill="#FFC34E"/>
<path fill-rule="evenodd" clip-rule="evenodd" d="M114.204 78.149C114.485 78.149 114.713 77.9192 114.713 77.6388V72.9783C114.713 72.6979 114.485 72.4681 114.204 72.4681C113.924 72.4681 113.695 72.6979 113.695 72.9783V77.6388C113.695 77.9192 113.924 78.149 114.204 78.149Z" fill="#FFC34E"/>
<path fill-rule="evenodd" clip-rule="evenodd" d="M112.426 78.149C112.706 78.149 112.936 77.9192 112.936 77.6388V72.9783C112.936 72.6979 112.706 72.4681 112.426 72.4681C112.146 72.4681 111.917 72.6979 111.917 72.9783V77.6388C111.917 77.9192 112.146 78.149 112.426 78.149Z" fill="#FFC34E"/>
<path fill-rule="evenodd" clip-rule="evenodd" d="M74.1333 56.2151H100.964C101.802 56.2151 102.489 55.528 102.489 54.6874V50.3411C102.489 49.5005 101.802 48.8133 100.964 48.8133H74.1333C73.2941 48.8133 72.608 49.5005 72.608 50.3411V54.6874C72.608 55.528 73.2941 56.2151 74.1333 56.2151Z" fill="#FFC34E"/>
<path fill-rule="evenodd" clip-rule="evenodd" d="M74.0461 55.8048H101.051C101.842 55.8048 102.489 55.1565 102.489 54.3643V50.6649C102.489 49.872 101.842 49.2244 101.051 49.2244H74.0461C73.2552 49.2244 72.608 49.872 72.608 50.6649V54.3643C72.608 55.1565 73.2552 55.8048 74.0461 55.8048Z" fill="#FFE065" fill-opacity="0.640352"/>
<path fill-rule="evenodd" clip-rule="evenodd" d="M100.961 55.3554C101.241 55.3554 101.47 55.1257 101.47 54.8452V50.1847C101.47 49.9043 101.241 49.6745 100.961 49.6745C100.681 49.6745 100.451 49.9043 100.451 50.1847V54.8452C100.451 55.1257 100.681 55.3554 100.961 55.3554Z" fill="#FFC34E"/>
<path fill-rule="evenodd" clip-rule="evenodd" d="M99.1834 55.3554C99.4633 55.3554 99.6928 55.1257 99.6928 54.8452V50.1847C99.6928 49.9043 99.4633 49.6745 99.1834 49.6745C98.9034 49.6745 98.674 49.9043 98.674 50.1847V54.8452C98.674 55.1257 98.9034 55.3554 99.1834 55.3554Z" fill="#FFC34E"/>
<path fill-rule="evenodd" clip-rule="evenodd" d="M97.4053 55.3554C97.686 55.3554 97.9147 55.1257 97.9147 54.8452V50.1847C97.9147 49.9043 97.686 49.6745 97.4053 49.6745C97.1253 49.6745 96.8966 49.9043 96.8966 50.1847V54.8452C96.8966 55.1257 97.1253 55.3554 97.4053 55.3554Z" fill="#FFC34E"/>
<path fill-rule="evenodd" clip-rule="evenodd" d="M95.6278 55.3554C95.9078 55.3554 96.1372 55.1257 96.1372 54.8452V50.1847C96.1372 49.9043 95.9078 49.6745 95.6278 49.6745C95.3478 49.6745 95.1184 49.9043 95.1184 50.1847V54.8452C95.1184 55.1257 95.3478 55.3554 95.6278 55.3554Z" fill="#FFC34E"/>
<path fill-rule="evenodd" clip-rule="evenodd" d="M93.8505 55.3554C94.1305 55.3554 94.3599 55.1257 94.3599 54.8452V50.1847C94.3599 49.9043 94.1305 49.6745 93.8505 49.6745C93.5705 49.6745 93.3411 49.9043 93.3411 50.1847V54.8452C93.3411 55.1257 93.5705 55.3554 93.8505 55.3554Z" fill="#FFC34E"/>
<path fill-rule="evenodd" clip-rule="evenodd" d="M92.0723 55.3554C92.353 55.3554 92.5817 55.1257 92.5817 54.8452V50.1847C92.5817 49.9043 92.353 49.6745 92.0723 49.6745C91.7923 49.6745 91.5629 49.9043 91.5629 50.1847V54.8452C91.5629 55.1257 91.7923 55.3554 92.0723 55.3554Z" fill="#FFC34E"/>
<path fill-rule="evenodd" clip-rule="evenodd" d="M90.2949 55.3554C90.5749 55.3554 90.8043 55.1257 90.8043 54.8452V50.1847C90.8043 49.9043 90.5749 49.6745 90.2949 49.6745C90.0149 49.6745 89.7855 49.9043 89.7855 50.1847V54.8452C89.7855 55.1257 90.0149 55.3554 90.2949 55.3554Z" fill="#FFC34E"/>
<path fill-rule="evenodd" clip-rule="evenodd" d="M70.2399 49.0805H97.0696C97.9089 49.0805 98.5949 48.3934 98.5949 47.5528V43.2058C98.5949 42.3659 97.9089 41.6782 97.0696 41.6782H70.2399C69.4006 41.6782 68.7146 42.3659 68.7146 43.2058V47.5528C68.7146 48.3934 69.4006 49.0805 70.2399 49.0805Z" fill="#FFC34E"/>
<path fill-rule="evenodd" clip-rule="evenodd" d="M70.1527 48.6694H97.1568C97.9484 48.6694 98.5949 48.0211 98.5949 47.229V43.5295C98.5949 42.7374 97.9484 42.0891 97.1568 42.0891H70.1527C69.3618 42.0891 68.7146 42.7374 68.7146 43.5295V47.229C68.7146 48.0211 69.3618 48.6694 70.1527 48.6694Z" fill="#FFE065" fill-opacity="0.640352"/>
<path fill-rule="evenodd" clip-rule="evenodd" d="M97.0674 48.2201C97.3474 48.2201 97.5768 47.991 97.5768 47.7106V43.0501C97.5768 42.7697 97.3474 42.5399 97.0674 42.5399C96.7874 42.5399 96.558 42.7697 96.558 43.0501V47.7106C96.558 47.991 96.7874 48.2201 97.0674 48.2201Z" fill="#FFC34E"/>
<path fill-rule="evenodd" clip-rule="evenodd" d="M95.2892 48.2201C95.5699 48.2201 95.7986 47.991 95.7986 47.7106V43.0501C95.7986 42.7697 95.5699 42.5399 95.2892 42.5399C95.0092 42.5399 94.7805 42.7697 94.7805 43.0501V47.7106C94.7805 47.991 95.0092 48.2201 95.2892 48.2201Z" fill="#FFC34E"/>
<path fill-rule="evenodd" clip-rule="evenodd" d="M93.5118 48.2201C93.7918 48.2201 94.0212 47.991 94.0212 47.7106V43.0501C94.0212 42.7697 93.7918 42.5399 93.5118 42.5399C93.2319 42.5399 93.0024 42.7697 93.0024 43.0501V47.7106C93.0024 47.991 93.2319 48.2201 93.5118 48.2201Z" fill="#FFC34E"/>
<path fill-rule="evenodd" clip-rule="evenodd" d="M91.7344 48.2201C92.0144 48.2201 92.2438 47.991 92.2438 47.7106V43.0501C92.2438 42.7697 92.0144 42.5399 91.7344 42.5399C91.4544 42.5399 91.225 42.7697 91.225 43.0501V47.7106C91.225 47.991 91.4544 48.2201 91.7344 48.2201Z" fill="#FFC34E"/>
<path fill-rule="evenodd" clip-rule="evenodd" d="M89.9563 48.2201C90.237 48.2201 90.4657 47.991 90.4657 47.7106V43.0501C90.4657 42.7697 90.237 42.5399 89.9563 42.5399C89.6763 42.5399 89.4469 42.7697 89.4469 43.0501V47.7106C89.4469 47.991 89.6763 48.2201 89.9563 48.2201Z" fill="#FFC34E"/>
<path fill-rule="evenodd" clip-rule="evenodd" d="M78.5837 70.5108C78.5837 79.9477 86.2204 87.597 95.641 87.597C105.062 87.597 112.699 79.9477 112.699 70.5108C112.699 61.0746 105.062 53.4253 95.641 53.4253C86.2204 53.4253 78.5837 61.0746 78.5837 70.5108Z" fill="#FFCD6B"/>
<path fill-rule="evenodd" clip-rule="evenodd" d="M95.641 86.7755C104.609 86.7755 111.879 79.494 111.879 70.5108C111.879 61.5283 104.609 54.2469 95.641 54.2469C86.6734 54.2469 79.4039 61.5283 79.4039 70.5108C79.4039 79.494 86.6734 86.7755 95.641 86.7755Z" fill="#FFE065" fill-opacity="0.640352"/>
<path fill-rule="evenodd" clip-rule="evenodd" d="M82.1921 70.5108C82.1921 77.9515 88.2133 83.9827 95.6411 83.9827C103.07 83.9827 109.091 77.9515 109.091 70.5108C109.091 63.0708 103.07 57.0396 95.6411 57.0396C88.2133 57.0396 82.1921 63.0708 82.1921 70.5108Z" fill="#FFC34E"/>
<path fill-rule="evenodd" clip-rule="evenodd" d="M82.5197 70.9219C82.5197 78.2261 88.4309 84.1471 95.7231 84.1471C103.015 84.1471 108.926 78.2261 108.926 70.9219C108.926 63.6177 103.015 57.6967 95.7231 57.6967C88.4309 57.6967 82.5197 63.6177 82.5197 70.9219Z" fill="url(#paint0_linear)"/>
<path d="M96.9389 77.1258L92.5919 69.5358V68.5238H93.0979C94.3246 68.5238 95.2599 68.3474 95.9039 67.9948C96.5632 67.6421 96.9466 67.0058 97.0539 66.0858H92.5919V64.6138H97.0309C96.8776 63.7551 96.4712 63.1341 95.8119 62.7508C95.1679 62.3674 94.2632 62.1758 93.0979 62.1758H92.5919V60.7038H102.114V62.1758H97.7669C98.5029 62.7738 98.9399 63.5864 99.0779 64.6138H102.114V66.0858H99.1239C99.0166 67.2051 98.5872 68.0791 97.8359 68.7078C97.0999 69.3211 96.1186 69.7121 94.8919 69.8808L99.2849 77.1258H96.9389Z" fill="#FFC34E"/>
</g>
<path fill-rule="evenodd" clip-rule="evenodd" d="M91.1093 62.758C91.3892 62.758 91.6187 62.5282 91.6187 62.2478V57.5873C91.6187 57.3069 91.3892 57.0771 91.1093 57.0771C90.8293 57.0771 90.5999 57.3069 90.5999 57.5873V62.2478C90.5999 62.5282 90.8293 62.758 91.1093 62.758Z" fill="#FFC34E"/>
<path fill-rule="evenodd" clip-rule="evenodd" d="M89.3311 62.758C89.6118 62.758 89.8405 62.5282 89.8405 62.2478V57.5873C89.8405 57.3069 89.6118 57.0771 89.3311 57.0771C89.0511 57.0771 88.8224 57.3069 88.8224 57.5873V62.2478C88.8224 62.5282 89.0511 62.758 89.3311 62.758Z" fill="#FFC34E"/>
<path fill-rule="evenodd" clip-rule="evenodd" d="M87.5537 62.758C87.8337 62.758 88.0631 62.5282 88.0631 62.2478V57.5873C88.0631 57.3069 87.8337 57.0771 87.5537 57.0771C87.2737 57.0771 87.0443 57.3069 87.0443 57.5873V62.2478C87.0443 62.5282 87.2737 62.758 87.5537 62.758Z" fill="#FFC34E"/>
<path fill-rule="evenodd" clip-rule="evenodd" d="M85.7762 62.758C86.0562 62.758 86.2857 62.5282 86.2857 62.2478V57.5873C86.2857 57.3069 86.0562 57.0771 85.7762 57.0771C85.4955 57.0771 85.2668 57.3069 85.2668 57.5873V62.2478C85.2668 62.5282 85.4955 62.758 85.7762 62.758Z" fill="#FFC34E"/>
<path fill-rule="evenodd" clip-rule="evenodd" d="M83.9982 62.758C84.2782 62.758 84.5076 62.5282 84.5076 62.2478V57.5873C84.5076 57.3069 84.2782 57.0771 83.9982 57.0771C83.7182 57.0771 83.4888 57.3069 83.4888 57.5873V62.2478C83.4888 62.5282 83.7182 62.758 83.9982 62.758Z" fill="#FFC34E"/>
<path fill-rule="evenodd" clip-rule="evenodd" d="M82.2207 62.758C82.5007 62.758 82.7301 62.5282 82.7301 62.2478V57.5873C82.7301 57.3069 82.5007 57.0771 82.2207 57.0771C81.9407 57.0771 81.7113 57.3069 81.7113 57.5873V62.2478C81.7113 62.5282 81.9407 62.758 82.2207 62.758Z" fill="#FFC34E"/>
<path fill-rule="evenodd" clip-rule="evenodd" d="M80.4432 62.758C80.7232 62.758 80.9519 62.5282 80.9519 62.2478V57.5873C80.9519 57.3069 80.7232 57.0771 80.4432 57.0771C80.1625 57.0771 79.9338 57.3069 79.9338 57.5873V62.2478C79.9338 62.5282 80.1625 62.758 80.4432 62.758Z" fill="#FFC34E"/>
<path fill-rule="evenodd" clip-rule="evenodd" d="M78.6652 62.758C78.9452 62.758 79.1746 62.5282 79.1746 62.2478V57.5873C79.1746 57.3069 78.9452 57.0771 78.6652 57.0771C78.3852 57.0771 78.1558 57.3069 78.1558 57.5873V62.2478C78.1558 62.5282 78.3852 62.758 78.6652 62.758Z" fill="#FFC34E"/>
<path fill-rule="evenodd" clip-rule="evenodd" d="M76.8877 62.758C77.1677 62.758 77.3971 62.5282 77.3971 62.2478V57.5873C77.3971 57.3069 77.1677 57.0771 76.8877 57.0771C76.6077 57.0771 76.3783 57.3069 76.3783 57.5873V62.2478C76.3783 62.5282 76.6077 62.758 76.8877 62.758Z" fill="#FFC34E"/>
<path fill-rule="evenodd" clip-rule="evenodd" d="M75.1096 62.758C75.3903 62.758 75.619 62.5282 75.619 62.2478V57.5873C75.619 57.3069 75.3903 57.0771 75.1096 57.0771C74.8296 57.0771 74.601 57.3069 74.601 57.5873V62.2478C74.601 62.5282 74.8296 62.758 75.1096 62.758Z" fill="#FFC34E"/>
<path fill-rule="evenodd" clip-rule="evenodd" d="M73.3322 62.758C73.6121 62.758 73.8416 62.5282 73.8416 62.2478V57.5873C73.8416 57.3069 73.6121 57.0771 73.3322 57.0771C73.0522 57.0771 72.8228 57.3069 72.8228 57.5873V62.2478C72.8228 62.5282 73.0522 62.758 73.3322 62.758Z" fill="#FFC34E"/>
<path fill-rule="evenodd" clip-rule="evenodd" d="M88.5175 55.3554C88.7974 55.3554 89.0269 55.1257 89.0269 54.8452V50.1847C89.0269 49.9043 88.7974 49.6745 88.5175 49.6745C88.2367 49.6745 88.0081 49.9043 88.0081 50.1847V54.8452C88.0081 55.1257 88.2367 55.3554 88.5175 55.3554Z" fill="#FFC34E"/>
<path fill-rule="evenodd" clip-rule="evenodd" d="M86.7394 55.3554C87.0201 55.3554 87.2488 55.1257 87.2488 54.8452V50.1847C87.2488 49.9043 87.0201 49.6745 86.7394 49.6745C86.4594 49.6745 86.23 49.9043 86.23 50.1847V54.8452C86.23 55.1257 86.4594 55.3554 86.7394 55.3554Z" fill="#FFC34E"/>
<path fill-rule="evenodd" clip-rule="evenodd" d="M84.9619 55.3554C85.2419 55.3554 85.4713 55.1257 85.4713 54.8452V50.1847C85.4713 49.9043 85.2419 49.6745 84.9619 49.6745C84.6819 49.6745 84.4525 49.9043 84.4525 50.1847V54.8452C84.4525 55.1257 84.6819 55.3554 84.9619 55.3554Z" fill="#FFC34E"/>
<path fill-rule="evenodd" clip-rule="evenodd" d="M83.1846 55.3554C83.4646 55.3554 83.6932 55.1257 83.6932 54.8452V50.1847C83.6932 49.9043 83.4646 49.6745 83.1846 49.6745C82.9039 49.6745 82.6752 49.9043 82.6752 50.1847V54.8452C82.6752 55.1257 82.9039 55.3554 83.1846 55.3554Z" fill="#FFC34E"/>
<path fill-rule="evenodd" clip-rule="evenodd" d="M81.4064 55.3554C81.6864 55.3554 81.9158 55.1257 81.9158 54.8452V50.1847C81.9158 49.9043 81.6864 49.6745 81.4064 49.6745C81.1264 49.6745 80.897 49.9043 80.897 50.1847V54.8452C80.897 55.1257 81.1264 55.3554 81.4064 55.3554Z" fill="#FFC34E"/>
<path fill-rule="evenodd" clip-rule="evenodd" d="M79.629 55.3554C79.909 55.3554 80.1384 55.1257 80.1384 54.8452V50.1847C80.1384 49.9043 79.909 49.6745 79.629 49.6745C79.349 49.6745 79.1196 49.9043 79.1196 50.1847V54.8452C79.1196 55.1257 79.349 55.3554 79.629 55.3554Z" fill="#FFC34E"/>
<path fill-rule="evenodd" clip-rule="evenodd" d="M77.8508 55.3554C78.1316 55.3554 78.3602 55.1257 78.3602 54.8452V50.1847C78.3602 49.9043 78.1316 49.6745 77.8508 49.6745C77.5708 49.6745 77.3422 49.9043 77.3422 50.1847V54.8452C77.3422 55.1257 77.5708 55.3554 77.8508 55.3554Z" fill="#FFC34E"/>
<path fill-rule="evenodd" clip-rule="evenodd" d="M76.0734 55.3554C76.3534 55.3554 76.5828 55.1257 76.5828 54.8452V50.1847C76.5828 49.9043 76.3534 49.6745 76.0734 49.6745C75.7934 49.6745 75.564 49.9043 75.564 50.1847V54.8452C75.564 55.1257 75.7934 55.3554 76.0734 55.3554Z" fill="#FFC34E"/>
<path fill-rule="evenodd" clip-rule="evenodd" d="M74.296 55.3554C74.576 55.3554 74.8054 55.1257 74.8054 54.8452V50.1847C74.8054 49.9043 74.576 49.6745 74.296 49.6745C74.016 49.6745 73.7866 49.9043 73.7866 50.1847V54.8452C73.7866 55.1257 74.016 55.3554 74.296 55.3554Z" fill="#FFC34E"/>
<path fill-rule="evenodd" clip-rule="evenodd" d="M88.1788 48.2201C88.4588 48.2201 88.6882 47.9911 88.6882 47.7106V43.0501C88.6882 42.7697 88.4588 42.5399 88.1788 42.5399C87.8988 42.5399 87.6694 42.7697 87.6694 43.0501V47.7106C87.6694 47.9911 87.8988 48.2201 88.1788 48.2201Z" fill="#FFC34E"/>
<path fill-rule="evenodd" clip-rule="evenodd" d="M86.4015 48.2201C86.6815 48.2201 86.9102 47.9911 86.9102 47.7106V43.0501C86.9102 42.7697 86.6815 42.5399 86.4015 42.5399C86.1208 42.5399 85.8921 42.7697 85.8921 43.0501V47.7106C85.8921 47.9911 86.1208 48.2201 86.4015 48.2201Z" fill="#FFC34E"/>
<path fill-rule="evenodd" clip-rule="evenodd" d="M84.6233 48.2201C84.9033 48.2201 85.1327 47.9911 85.1327 47.7106V43.0501C85.1327 42.7697 84.9033 42.5399 84.6233 42.5399C84.3433 42.5399 84.1139 42.7697 84.1139 43.0501V47.7106C84.1139 47.9911 84.3433 48.2201 84.6233 48.2201Z" fill="#FFC34E"/>
<path fill-rule="evenodd" clip-rule="evenodd" d="M82.846 48.2201C83.1259 48.2201 83.3554 47.9911 83.3554 47.7106V43.0501C83.3554 42.7697 83.1259 42.5399 82.846 42.5399C82.566 42.5399 82.3365 42.7697 82.3365 43.0501V47.7106C82.3365 47.9911 82.566 48.2201 82.846 48.2201Z" fill="#FFC34E"/>
<path fill-rule="evenodd" clip-rule="evenodd" d="M81.0678 48.2201C81.3485 48.2201 81.5772 47.9911 81.5772 47.7106V43.0501C81.5772 42.7697 81.3485 42.5399 81.0678 42.5399C80.7878 42.5399 80.5591 42.7697 80.5591 43.0501V47.7106C80.5591 47.9911 80.7878 48.2201 81.0678 48.2201Z" fill="#FFC34E"/>
<path fill-rule="evenodd" clip-rule="evenodd" d="M79.2904 48.2201C79.5704 48.2201 79.7998 47.9911 79.7998 47.7106V43.0501C79.7998 42.7697 79.5704 42.5399 79.2904 42.5399C79.0104 42.5399 78.781 42.7697 78.781 43.0501V47.7106C78.781 47.9911 79.0104 48.2201 79.2904 48.2201Z" fill="#FFC34E"/>
<path fill-rule="evenodd" clip-rule="evenodd" d="M77.5129 48.2201C77.7929 48.2201 78.0223 47.9911 78.0223 47.7106V43.0501C78.0223 42.7697 77.7929 42.5399 77.5129 42.5399C77.233 42.5399 77.0035 42.7697 77.0035 43.0501V47.7106C77.0035 47.9911 77.233 48.2201 77.5129 48.2201Z" fill="#FFC34E"/>
<path fill-rule="evenodd" clip-rule="evenodd" d="M75.7347 48.2201C76.0155 48.2201 76.2441 47.9911 76.2441 47.7106V43.0501C76.2441 42.7697 76.0155 42.5399 75.7347 42.5399C75.4548 42.5399 75.2261 42.7697 75.2261 43.0501V47.7106C75.2261 47.9911 75.4548 48.2201 75.7347 48.2201Z" fill="#FFC34E"/>
<path fill-rule="evenodd" clip-rule="evenodd" d="M73.9574 48.2201C74.2374 48.2201 74.4668 47.9911 74.4668 47.7106V43.0501C74.4668 42.7697 74.2374 42.5399 73.9574 42.5399C73.6774 42.5399 73.448 42.7697 73.448 43.0501V47.7106C73.448 47.9911 73.6774 48.2201 73.9574 48.2201Z" fill="#FFC34E"/>
<path fill-rule="evenodd" clip-rule="evenodd" d="M72.1799 48.2201C72.4599 48.2201 72.6893 47.9911 72.6893 47.7106V43.0501C72.6893 42.7697 72.4599 42.5399 72.1799 42.5399C71.8999 42.5399 71.6705 42.7697 71.6705 43.0501V47.7106C71.6705 47.9911 71.8999 48.2201 72.1799 48.2201Z" fill="#FFC34E"/>
<path fill-rule="evenodd" clip-rule="evenodd" d="M70.4019 48.2201C70.6818 48.2201 70.9113 47.9911 70.9113 47.7106V43.0501C70.9113 42.7697 70.6818 42.5399 70.4019 42.5399C70.1219 42.5399 69.8925 42.7697 69.8925 43.0501V47.7106C69.8925 47.9911 70.1219 48.2201 70.4019 48.2201Z" fill="#FFC34E"/>
<path fill-rule="evenodd" clip-rule="evenodd" d="M91.4867 93.322H41.4868C40.4841 93.322 39.6434 92.5643 39.5364 91.5659L29.9883 2.17371C29.8644 1.01249 30.7725 0 31.9386 0H81.9385C82.9412 0 83.7819 0.757143 83.8889 1.75561L93.4371 91.1481C93.5609 92.3089 92.6528 93.322 91.4867 93.322Z" fill="#94C5FF"/>
<mask id="mask1" mask-type="alpha" maskUnits="userSpaceOnUse" x="35" y="3" width="56" height="85">
<path fill-rule="evenodd" clip-rule="evenodd" d="M88.4332 87.517H60.6865V63.6148C60.6865 61.554 59.0183 59.883 56.9602 59.883H42.0006L35.9369 5.38582C35.8291 4.37745 36.6178 3.49814 37.6307 3.49814H79.464C80.3348 3.49814 81.0655 4.15573 81.1579 5.02278L90.127 85.6294C90.2348 86.6374 89.4461 87.517 88.4332 87.517Z" fill="white"/>
</mask>
<g mask="url(#mask1)">
<path fill-rule="evenodd" clip-rule="evenodd" d="M88.4332 87.517H60.6865V63.6148C60.6865 61.554 59.0183 59.883 56.9602 59.883H42.0006L35.9369 5.38582C35.8291 4.37745 36.6178 3.49814 37.6307 3.49814H79.464C80.3348 3.49814 81.0655 4.15573 81.1579 5.02278L90.127 85.6294C90.2348 86.6374 89.4461 87.517 88.4332 87.517Z" fill="url(#paint1_linear)"/>
</g>
<path fill-rule="evenodd" clip-rule="evenodd" d="M41.7727 93.322H40.0092C39.3414 93.322 38.7807 92.8184 38.7074 92.1532L28.7811 1.5927C28.6872 0.74268 29.352 0 30.2059 0H31.7187C32.4502 0 33.0644 0.551137 33.1443 1.27928L43.0736 91.8669C43.1587 92.6436 42.5518 93.322 41.7727 93.322Z" fill="#94C5FF"/>
<path fill-rule="evenodd" clip-rule="evenodd" d="M76.3204 90.7509H67.4158C67.1438 90.7509 66.921 90.5278 66.921 90.2554C66.921 89.983 67.1438 89.7598 67.4158 89.7598H76.3204C76.5931 89.7598 76.8152 89.983 76.8152 90.2554C76.8152 90.5278 76.5931 90.7509 76.3204 90.7509Z" fill="#0F2D5C"/>
<path fill-rule="evenodd" clip-rule="evenodd" d="M66.1595 2.40285C65.8099 2.40285 65.524 2.11653 65.524 1.76663C65.524 1.41665 65.8099 1.13033 66.1595 1.13033C66.5084 1.13033 66.7943 1.41665 66.7943 1.76663C66.7943 2.11653 66.5084 2.40285 66.1595 2.40285Z" fill="#0F2D5C"/>
<path fill-rule="evenodd" clip-rule="evenodd" d="M68.6516 2.40285C68.302 2.40285 68.0161 2.11653 68.0161 1.76663C68.0161 1.41665 68.302 1.13033 68.6516 1.13033C69.0005 1.13033 69.2863 1.41665 69.2863 1.76663C69.2863 2.11653 69.0005 2.40285 68.6516 2.40285Z" fill="#0F2D5C"/>
<path fill-rule="evenodd" clip-rule="evenodd" d="M62.2016 2.40285H55.3602C55.0113 2.40285 54.7255 2.11653 54.7255 1.76663C54.7255 1.41665 55.0113 1.13033 55.3602 1.13033H62.2016C62.5505 1.13033 62.8363 1.41665 62.8363 1.76663C62.8363 2.11653 62.5505 2.40285 62.2016 2.40285Z" fill="#0F2D5C"/>
<path fill-rule="evenodd" clip-rule="evenodd" d="M56.988 63.9775H82.0052L76.4692 18.6805C76.4017 18.1275 75.8997 17.6793 75.347 17.6793H45.7145C45.1626 17.6793 44.7697 18.1275 44.8371 18.6805L49.5632 57.3516C50.0103 61.0107 53.3342 63.9775 56.988 63.9775Z" fill="#2A66C6"/>
<path fill-rule="evenodd" clip-rule="evenodd" d="M57.5657 62.6956H81.4922L76.2025 19.4137C76.1387 18.8884 75.6616 18.4626 75.1368 18.4626H46.825C46.3009 18.4626 45.9279 18.8884 45.9924 19.4137L50.5125 56.4009C50.9369 59.8772 54.0952 62.6956 57.5657 62.6956Z" fill="white"/>
<path fill-rule="evenodd" clip-rule="evenodd" d="M62.6039 53.6199L62.5064 52.8219C62.4295 52.1927 62.8077 51.6824 63.3501 51.6824H93.6474C94.1898 51.6824 94.6919 52.1927 94.7688 52.8219L94.8663 53.6199C95.5575 59.2744 92.1639 63.8578 87.2868 63.8578H56.3313C61.2084 63.8578 63.4248 59.7898 62.6039 53.6199Z" fill="#2A66C6"/>
<path fill-rule="evenodd" clip-rule="evenodd" d="M63.4461 54.412L63.3669 53.7667C63.3053 53.2579 63.6667 52.8453 64.1746 52.8453H92.545C93.053 52.8453 93.5155 53.2579 93.5778 53.7667L93.6569 54.412C94.2154 58.9866 90.967 62.6956 86.3999 62.6956H56.1891C60.7561 62.6956 64.1878 60.4814 63.4461 54.412Z" fill="white"/>
<path fill-rule="evenodd" clip-rule="evenodd" d="M54.0526 41.9379H75.4827C75.7876 41.9379 76.006 41.688 75.9686 41.383C75.9312 41.078 75.652 40.8285 75.3471 40.8285H53.917C53.6121 40.8285 53.3937 41.078 53.431 41.383C53.4684 41.688 53.7477 41.9379 54.0526 41.9379Z" fill="#2455A3"/>
<path fill-rule="evenodd" clip-rule="evenodd" d="M54.2995 43.9605H75.7303C76.0345 43.9605 76.2529 43.7109 76.2163 43.4062C76.1789 43.1015 75.8989 42.8519 75.5947 42.8519H54.1639C53.8598 42.8519 53.6406 43.1015 53.678 43.4062C53.7154 43.7109 53.9946 43.9605 54.2995 43.9605Z" fill="#2455A3"/>
<path fill-rule="evenodd" clip-rule="evenodd" d="M54.5386 45.9134H75.9686C76.2735 45.9134 76.492 45.6645 76.4546 45.3591C76.4172 45.0544 76.1379 44.8048 75.833 44.8048H54.403C54.098 44.8048 53.8796 45.0544 53.917 45.3591C53.9544 45.6645 54.2336 45.9134 54.5386 45.9134Z" fill="#2455A3"/>
<path fill-rule="evenodd" clip-rule="evenodd" d="M62.7769 34.5767H50.8232C50.5887 34.5767 50.3761 34.3867 50.3475 34.1523L48.8838 22.1783C48.8552 21.9439 49.0216 21.7539 49.2562 21.7539H61.2099C61.4437 21.7539 61.657 21.9439 61.6856 22.1783L63.1493 34.1523C63.1779 34.3867 63.0107 34.5767 62.7769 34.5767Z" fill="#2455A3"/>
<path fill-rule="evenodd" clip-rule="evenodd" d="M62.3298 34.1523H51.167C50.9478 34.1523 50.7492 33.9748 50.7228 33.756L49.3558 22.5746C49.3294 22.3557 49.4848 22.1783 49.7032 22.1783H60.8661C61.0845 22.1783 61.2839 22.3557 61.3103 22.5746L62.6765 33.756C62.7036 33.9748 62.5482 34.1523 62.3298 34.1523Z" fill="white"/>
<path fill-rule="evenodd" clip-rule="evenodd" d="M53.2082 25.8666H49.166C48.9769 25.8666 48.8046 25.7132 48.7819 25.5239L48.2864 21.4744C48.2637 21.2852 48.3979 21.1317 48.587 21.1317H52.6299C52.819 21.1317 52.9905 21.2852 53.014 21.4744L53.5087 25.5239C53.5322 25.7132 53.3973 25.8666 53.2082 25.8666Z" fill="#2455A3"/>
<path fill-rule="evenodd" clip-rule="evenodd" d="M52.4753 25.2125H49.7391C49.55 25.2125 49.3778 25.0591 49.3551 24.8698L49.0201 22.1286C48.9967 21.9393 49.1308 21.7859 49.3199 21.7859H52.0567C52.2458 21.7859 52.4174 21.9393 52.4408 22.1286L52.7758 24.8698C52.7992 25.0591 52.6644 25.2125 52.4753 25.2125Z" fill="white"/>
<path fill-rule="evenodd" clip-rule="evenodd" d="M51.8295 24.6362H50.2434C50.0551 24.6362 49.8828 24.4828 49.8594 24.2936L49.6659 22.7048C49.6424 22.5156 49.7765 22.3622 49.9656 22.3622H51.5518C51.7409 22.3622 51.9124 22.5156 51.9358 22.7048L52.1301 24.2936C52.1528 24.4828 52.0186 24.6362 51.8295 24.6362Z" fill="#2455A3"/>
<path fill-rule="evenodd" clip-rule="evenodd" d="M53.4993 34.5767H50.533C50.3945 34.5767 50.2684 34.4641 50.2508 34.3253L49.888 31.3537C49.8711 31.2148 49.9693 31.1022 50.1086 31.1022H53.0749C53.2134 31.1022 53.3395 31.2148 53.3563 31.3537L53.7199 34.3253C53.7367 34.4641 53.6385 34.5767 53.4993 34.5767Z" fill="#2455A3"/>
<path fill-rule="evenodd" clip-rule="evenodd" d="M52.962 34.0966H50.9537C50.8152 34.0966 50.6884 33.9841 50.6715 33.8452L50.426 31.8337C50.4091 31.6948 50.5073 31.5823 50.6458 31.5823H52.6541C52.7927 31.5823 52.9195 31.6948 52.9363 31.8337L53.1819 33.8452C53.1987 33.9841 53.1005 34.0966 52.962 34.0966Z" fill="white"/>
<path fill-rule="evenodd" clip-rule="evenodd" d="M52.4878 33.6738H51.3238C51.1853 33.6738 51.0592 33.5612 51.0424 33.4223L50.8995 32.2566C50.8826 32.1177 50.9815 32.0051 51.1201 32.0051H52.284C52.4225 32.0051 52.5486 32.1177 52.5655 32.2566L52.7084 33.4223C52.7252 33.5612 52.6263 33.6738 52.4878 33.6738Z" fill="#2455A3"/>
<path fill-rule="evenodd" clip-rule="evenodd" d="M61.808 25.2364H58.8417C58.7032 25.2364 58.5771 25.1238 58.5603 24.985L58.1967 22.0135C58.1798 21.8746 58.2781 21.7619 58.4173 21.7619H61.3836C61.5221 21.7619 61.6482 21.8746 61.6658 22.0135L62.0286 24.985C62.0454 25.1238 61.9472 25.2364 61.808 25.2364Z" fill="#2455A3"/>
<path fill-rule="evenodd" clip-rule="evenodd" d="M61.2707 24.7564H59.2624C59.1239 24.7564 58.9971 24.6438 58.9802 24.505L58.7347 22.4935C58.7178 22.3546 58.816 22.242 58.9546 22.242H60.9628C61.1021 22.242 61.2282 22.3546 61.245 22.4935L61.4906 24.505C61.5074 24.6438 61.4092 24.7564 61.2707 24.7564Z" fill="white"/>
<path fill-rule="evenodd" clip-rule="evenodd" d="M60.7965 24.3336H59.6325C59.494 24.3336 59.368 24.2209 59.3511 24.082L59.2082 22.9163C59.1913 22.7774 59.2903 22.6649 59.4288 22.6649H60.5927C60.7312 22.6649 60.8573 22.7774 60.8742 22.9163L61.0171 24.082C61.034 24.2209 60.935 24.3336 60.7965 24.3336Z" fill="#2455A3"/>
<path fill-rule="evenodd" clip-rule="evenodd" d="M59.6047 31.1254L59.5497 30.6797H58.9633L59.0183 31.1254H58.0523L57.8764 29.6853H58.5837L58.517 29.1368H55.6189L55.5683 28.7253H59.8128L60.1067 31.1254H59.6047ZM54.8126 26.4623L54.8573 26.828H54.378L54.2607 25.868H55.2194L55.1359 25.1823H54.1771L54.0525 24.1651H55.0113L55.0963 24.8622H55.9406L55.8556 24.1651H56.1979L56.3643 25.5252H56.022L56.0638 25.868H56.4061L56.4559 26.2795H55.786L55.8527 26.828H56.5233L56.604 27.4909H57.0833L57.0027 26.828H57.3677L57.5297 28.1539H55.4987L55.292 26.4623H54.8126ZM55.0193 28.1539H53.2734L53.2932 28.3138L53.3438 28.7253L53.3936 29.1368H52.6064L52.4056 27.4909H54.9387L55.0193 28.1539ZM55.1395 29.1368H54.0672L54.0166 28.7253H55.0889L55.1395 29.1368ZM57.2504 25.868L57.3003 26.2795H56.9353L56.8854 25.868H57.2504ZM58.1204 26.828H59.5812L59.7432 28.1539H58.2824L58.1204 26.828ZM62.6904 30.4024H61.7889L61.7016 29.6853H61.1167L61.2934 31.1254H60.677L60.3838 28.7253H60.751L60.6814 28.1539H60.3134L60.1515 26.828H61.1329L61.0662 26.2795H60.0848L59.9975 25.5651H59.4266L59.5145 26.2795H58.0537L58.0032 25.868H58.9619L58.9201 25.5252H57.9614L57.7129 23.4907H56.9602L57.2086 25.5252H56.8436L56.5776 23.3506H57.0342L56.84 21.7619H55.2539L55.4481 23.3506H56.0982L56.1151 23.4907H54.4498L54.367 22.8134H55.3037L55.2531 22.402H54.3164L54.238 21.7619H53.7022L53.9133 23.4907H53.0572L53.14 24.1651H53.3452L53.6707 26.828H52.3242L52.1652 25.5252H51.6177L51.7767 26.828H51.219L51.1926 26.6079H49.4254L49.6416 28.3778H51.4088L51.3003 27.4909H51.8574L52.0589 29.1368H50.5182L50.5857 29.6853H52.1256L52.1901 30.2111H52.7376L52.6739 29.6853H53.4611L53.5446 30.371H54.2175L54.1339 29.6853H55.2069L55.4019 31.2854H53.8048L54.0423 33.2283H55.6394L55.7244 33.9226H54.6521L54.732 34.5767H56.2837L56.1187 33.2283H56.3467L56.2998 32.8394H54.9702L54.8478 31.8366H55.4693L55.4972 32.0625H55.9766L55.9487 31.8366H56.6333L56.5658 31.2854H55.8813L55.6856 29.6853H57.1647L57.4549 32.0625H58.1673L58.1197 31.674H59.085L59.1803 32.4511H56.8686L56.9631 33.2283H58.6973L58.8622 34.5767H59.5695L59.4053 33.2283H59.8612L59.8026 32.7483L59.7667 32.4511L59.6714 31.674H60.1734L60.2577 32.3636L60.2951 32.671L60.3743 33.3153H61.4693L61.5646 34.0966H60.4696L60.5282 34.5767H62.0571L61.9032 33.3153H62.1326L62.0161 32.3636H60.828L60.7437 31.674H61.9443L61.8922 31.2481H62.7937L62.6904 30.4024Z" fill="#2455A3"/>
<path fill-rule="evenodd" clip-rule="evenodd" d="M56.9602 94.3006H4.68441C2.62658 94.3006 0.958374 92.6297 0.958374 90.5681V63.6148C0.958374 61.554 2.62658 59.883 4.68441 59.883H56.9602C59.0184 59.883 60.6866 61.554 60.6866 63.6148V90.5681C60.6866 92.6297 59.0184 94.3006 56.9602 94.3006Z" fill="#19487F"/>
<path fill-rule="evenodd" clip-rule="evenodd" d="M55.5984 93.6891H3.67891C1.64709 93.6891 0 92.0394 0 90.0043V63.5678C0 61.5327 1.64709 59.883 3.67891 59.883H55.5984C57.6301 59.883 59.2771 61.5327 59.2771 63.5678V90.0043C59.2771 92.0394 57.6301 93.6891 55.5984 93.6891L43.0816 75.656Z" fill="#EFF6FF"/>
<path opacity="0.348354" fill-rule="evenodd" clip-rule="evenodd" d="M52.9531 67.5536H39.9007C38.5645 67.5536 37.4709 66.4589 37.4709 65.1198C37.4709 63.7814 38.5645 62.6861 39.9007 62.6861H52.9531C54.2893 62.6861 55.3829 63.7814 55.3829 65.1198C55.3829 66.4589 54.2893 67.5536 52.9531 67.5536Z" fill="#4789D6"/>
<mask id="mask2" mask-type="alpha" maskUnits="userSpaceOnUse" x="40" y="82" width="7" height="8">
<path fill-rule="evenodd" clip-rule="evenodd" d="M44.4385 89.5455C42.4016 89.5455 40.7495 87.8914 40.7495 85.8511C40.7495 83.8102 42.4016 82.1561 44.4385 82.1561C45.4118 82.1561 46.2965 82.5335 46.9562 83.1509C46.2357 83.8249 45.7849 84.7851 45.7849 85.8511C45.7849 86.9164 46.2357 87.8767 46.9562 88.5507C46.2965 89.1681 45.4118 89.5455 44.4385 89.5455Z" fill="white"/>
</mask>
<g mask="url(#mask2)">
<path fill-rule="evenodd" clip-rule="evenodd" d="M40.7495 89.5455H46.9562V82.1561H40.7495V89.5455Z" fill="#67AEE7"/>
</g>
<path fill-rule="evenodd" clip-rule="evenodd" d="M49.4731 89.5455C48.5005 89.5455 47.6151 89.1681 46.9562 88.5507C47.6767 87.8767 48.1267 86.9164 48.1267 85.8511C48.1267 84.7851 47.6767 83.8249 46.9562 83.1509C47.6151 82.5335 48.5005 82.1561 49.4731 82.1561C51.5107 82.1561 53.1621 83.8102 53.1621 85.8511C53.1621 87.8914 51.5107 89.5455 49.4731 89.5455Z" fill="#67AEE7"/>
<path fill-rule="evenodd" clip-rule="evenodd" d="M46.9562 88.5507C46.2357 87.8767 45.7849 86.9164 45.7849 85.8512C45.7849 84.7852 46.2357 83.8249 46.9562 83.1509C47.6767 83.8249 48.1267 84.7852 48.1267 85.8512C48.1267 86.9164 47.6767 87.8767 46.9562 88.5507Z" fill="#5EA3E3"/>
<path opacity="0.348354" fill-rule="evenodd" clip-rule="evenodd" d="M50.5795 75.656H8.85234C6.30236 75.656 4.21606 75.3138 4.21606 74.8953V73.4167C4.21606 72.9983 6.30236 72.656 8.85234 72.656H50.5795C53.1298 72.656 55.2161 72.9983 55.2161 73.4167V74.8953C55.2161 75.3138 53.1298 75.656 50.5795 75.656Z" fill="#4789D6"/>
<path opacity="0.348354" fill-rule="evenodd" clip-rule="evenodd" d="M21.8158 87.5455H5.3056C4.70634 87.5455 4.21606 87.0543 4.21606 86.4538V85.47C4.21606 84.8695 4.70634 84.3783 5.3056 84.3783H21.8158C22.4154 84.3783 22.9057 84.8695 22.9057 85.47V86.4538C22.9057 87.0543 22.4154 87.5455 21.8158 87.5455Z" fill="#4789D6"/>
<path fill-rule="evenodd" clip-rule="evenodd" d="M58.2993 6.22262C58.4524 6.15449 58.6408 6.15449 58.8226 6.22262L80.6126 14.3671C81.3836 14.6553 81.4005 15.714 80.6338 15.714H40.4731C39.7064 15.714 39.2784 14.6553 39.9285 14.3671L58.2993 6.22262Z" fill="#3792FC"/>
<mask id="mask3" mask-type="alpha" maskUnits="userSpaceOnUse" x="43" y="7" width="34" height="8">
<path fill-rule="evenodd" clip-rule="evenodd" d="M58.8365 7.53413L76.9712 14.3124H43.5471L58.8365 7.53413Z" fill="white"/>
</mask>
<g mask="url(#mask3)">
<path fill-rule="evenodd" clip-rule="evenodd" d="M58.8365 7.53413L76.9712 14.3124H43.5471L58.8365 7.53413Z" fill="url(#paint2_linear)"/>
</g>
<path fill-rule="evenodd" clip-rule="evenodd" d="M62.3371 11.0518C62.6574 12.5772 61.6826 13.8137 60.1595 13.8137C58.6364 13.8137 57.1427 12.5772 56.8224 11.0518C56.5021 9.52636 57.4769 8.28981 59 8.28981C60.5223 8.28981 62.0168 9.52636 62.3371 11.0518Z" fill="#4789D6"/>
<path fill-rule="evenodd" clip-rule="evenodd" d="M59 8.47336C58.3308 8.47336 57.7547 8.729 57.3787 9.19328C56.9895 9.6735 56.8561 10.3201 57.0012 11.014C57.3039 12.4566 58.7207 13.6302 60.1595 13.6302C60.8287 13.6302 61.404 13.3746 61.7801 12.9103C62.1692 12.4301 62.3034 11.7835 62.1575 11.0896C61.8548 9.64699 60.438 8.47336 59 8.47336ZM60.1595 13.9973C58.5573 13.9973 56.9792 12.6929 56.6428 11.0896C56.4742 10.2853 56.634 9.52975 57.0943 8.96195C57.5414 8.41015 58.2179 8.10628 59 8.10628C60.6022 8.10628 62.1795 9.41067 62.5159 11.014C62.6852 11.8183 62.5247 12.5738 62.0644 13.1416C61.6173 13.6934 60.9408 13.9973 60.1595 13.9973Z" fill="#1C47AB"/>
<path fill-rule="evenodd" clip-rule="evenodd" d="M40.1455 16.8728H43.5471L47.7968 50.5122L43.3712 50.5599L40.1455 16.8728Z" fill="#3792FC"/>
<path fill-rule="evenodd" clip-rule="evenodd" d="M77.2777 17.1026H80.6793L84.7941 49.7406L81.1997 49.7956L77.2777 17.1026Z" fill="#3792FC"/>
<defs>
<linearGradient id="paint0_linear" x1="37.3141" y1="91.8416" x2="120.035" y2="144.395" gradientUnits="userSpaceOnUse">
<stop stop-color="#F9EA90"/>
<stop offset="1" stop-color="#FFE662"/>
</linearGradient>
<linearGradient id="paint1_linear" x1="69.4148" y1="-69.6535" x2="-44.319" y2="-15.7965" gradientUnits="userSpaceOnUse">
<stop stop-color="#EEF6FF"/>
<stop offset="1" stop-color="#94C5FF"/>
</linearGradient>
<linearGradient id="paint2_linear" x1="14.9456" y1="1.42703" x2="14.7982" y2="20.773" gradientUnits="userSpaceOnUse">
<stop stop-color="#1C46AB"/>
<stop offset="1" stop-color="#4687D6"/>
</linearGradient>
<clipPath id="clip0">
<rect width="57" height="52" fill="white" transform="translate(67.7852 41.1375)"/>
</clipPath>
</defs>
</svg>
