<svg width="110" height="75" viewBox="0 0 110 75" fill="none" xmlns="http://www.w3.org/2000/svg">
<g clip-path="url(#clip0)">
<path opacity="0.228399" d="M76.1074 3.00001C68.1397 3.00001 54.3772 3.00001 51.4799 10.9677C48.5825 18.9354 72.6726 18.4681 78.2804 24.0759C83.8882 29.6837 92.93 29.0762 101.459 29.0762C109.988 29.0762 108.372 38.4767 115.222 37.0439C122.071 35.6111 115.946 28.4311 118.119 24.0759C118.119 20.0159 118.119 3.00001 118.119 3.00001C118.119 3.00001 89.5076 3.00001 76.1074 3.00001Z" fill="#3792FC"/>
<path opacity="0.2" d="M60.1523 68.35C24.0469 55.5221 7.99998 84.3848 7.99998 68.35C7.99998 52.3151 27.2562 44.2977 36.8844 34.6768C46.5125 25.0559 42.299 9.02109 56.943 9.02109C71.587 9.02109 64.2092 18.0096 80.2109 25.0559C96.2126 32.1022 112.305 13.8315 112.305 34.6768C112.305 55.5221 96.2578 81.1778 60.1523 68.35Z" fill="#3792FC"/>
<path opacity="0.05" d="M11.1544 35.316C12.177 34.8272 13.2247 34.2633 14.147 33.6016C14.4854 33.3585 14.152 32.8848 13.7961 33.0728C12.8111 33.5891 11.8487 34.2558 10.9714 34.935C10.791 35.0704 10.9213 35.4263 11.1544 35.316Z" fill="#3792FC"/>
<path opacity="0.05" d="M78.3105 45.2622C78.0974 44.1494 77.8192 42.9915 77.4132 41.9313C77.2653 41.5428 76.7214 41.7433 76.8117 42.1368C77.0598 43.2221 77.4608 44.3199 77.8944 45.3424C77.9821 45.5505 78.3606 45.5154 78.3105 45.2622Z" fill="#3792FC"/>
<path opacity="0.05" d="M14.9399 15.1568C14.9199 15.1393 14.9023 15.1217 14.8823 15.1067C14.6291 14.8811 14.2131 14.8385 13.9675 15.1067C13.7193 15.3774 13.7269 15.7508 13.9675 16.0215C13.985 16.0416 14.0026 16.0591 14.0176 16.0792C14.2432 16.3348 14.7119 16.3273 14.9399 16.0792C15.1655 15.831 15.2106 15.3974 14.9399 15.1568Z" fill="#3792FC"/>
<path opacity="0.05" d="M73.1861 19.0948C73.2497 18.6801 73.2376 18.2866 73.4676 17.9204C73.9307 17.194 74.5875 17.3756 75.2231 17.6964C75.8708 18.0233 76.4822 18.217 77.1844 17.9144C78.2831 17.4392 78.8006 15.7805 77.7504 14.9997C77.4114 14.7454 77.0754 15.1631 77.1208 15.4839C77.1844 15.9288 77.4053 16.4222 77.024 16.8036C76.5125 17.3151 75.9132 16.8853 75.4017 16.6552C74.8508 16.4071 74.2636 16.3526 73.6976 16.5826C72.72 16.9791 72.0088 18.3048 72.7866 19.2007C72.8956 19.3248 73.1589 19.2673 73.1861 19.0948Z" fill="#3792FC"/>
<path opacity="0.05" d="M61.8465 61.0304C60.8417 61.9953 60.4614 63.4965 61.4182 64.6575C62.3189 65.7504 64.0684 65.9786 65.1934 65.1099C67.9156 63.0081 65.0773 59.1368 62.1428 59.9375C61.5983 60.0856 61.7344 60.8623 62.2709 60.8903C63.1276 60.9384 64.0484 60.9704 64.733 61.5749C65.4696 62.2194 65.4856 63.3124 64.8811 64.057C63.2797 66.0226 60.5014 63.1282 62.1828 61.3667C62.399 61.1465 62.0707 60.8183 61.8465 61.0304Z" fill="#3792FC"/>
<path d="M82.582 10.145V63.704H41V10.145H82.582Z" fill="#2871C6"/>
<path d="M82.582 43.5642V63.704H41V50.0421L82.582 43.5642Z" fill="#3792FC"/>
<path d="M43.2634 61.4408V12.4081H80.3184V61.4408H43.2634Z" fill="white"/>
<path d="M67.8878 23.1378H64.4554V22.9115H67.8878V23.1378Z" fill="#3792FC"/>
<path d="M63.1731 23.1378H52.8953V22.9115H63.1731V23.1378Z" fill="#3792FC"/>
<path d="M67.8879 24.7968H59.7053V24.5705H67.8879V24.7968Z" fill="#3792FC"/>
<path d="M59.1961 24.7968H58.7227V24.5705H59.1961V24.7968Z" fill="#3792FC"/>
<path d="M57.5534 24.7968H48.2372V24.5705H57.5534V24.7968Z" fill="#3792FC"/>
<path d="M61.5513 26.456H48.2372V26.2297H61.5513V26.456Z" fill="#3792FC"/>
<path d="M67.8878 31.8071H52.8953V31.5808H67.8878V31.8071Z" fill="#3792FC"/>
<path d="M51.726 31.8071H48.2372V31.5808H51.726V31.8071Z" fill="#3792FC"/>
<path d="M66.398 33.4664H48.2372V33.2401H66.398V33.4664Z" fill="#3792FC"/>
<path d="M55.2148 35.1254H54.8397V34.8991H55.2148V35.1254Z" fill="#3792FC"/>
<path d="M54.1418 35.1254H48.2372V34.8991H54.1418V35.1254Z" fill="#3792FC"/>
<path d="M67.8878 40.4767H48.2372V40.2504H67.8878V40.4767Z" fill="#3792FC"/>
<path d="M67.8878 42.1357H61.791V41.9094H67.8878V42.1357Z" fill="#3792FC"/>
<path d="M60.3822 42.1357H48.2372V41.9094H60.3822V42.1357Z" fill="#3792FC"/>
<path d="M65.0967 43.795H48.2372V43.5686H65.0967V43.795Z" fill="#3792FC"/>
<path d="M72.1685 26.3428H71.4401V25.1299L72.1685 26.3428Z" fill="white"/>
<path d="M71.4401 22.3275V21.8167H73.781L71.4401 22.3275Z" fill="white"/>
<path d="M72.9897 25.8771L70.3577 23.7053L71.0778 22.8325L72.821 24.2709L76.4768 19.6708L77.3626 20.3749L72.9897 25.8771Z" fill="#7ED321"/>
<path d="M72.1685 26.4555H71.3269V25.1295H71.5532V26.2292H72.1685V26.4555Z" fill="#4D890D"/>
<path d="M76.0792 26.4555H72.7094V26.2292H75.8529V22.7793H76.0792V26.4555Z" fill="#4D890D"/>
<path d="M74.5165 21.9297H74.1842V21.7034H74.5165V21.9297Z" fill="#4D890D"/>
<path d="M71.5532 22.3275H71.3269V21.7034H73.781V21.9297H71.5532V22.3275Z" fill="#4D890D"/>
<path d="M72.9897 34.6025L70.3577 32.4307L71.0778 31.5579L72.821 32.9963L76.4768 28.3961L77.3626 29.1003L72.9897 34.6025Z" fill="#7ED321"/>
<path d="M72.1685 35.1811H71.3269V33.8551H71.5532V34.9548H72.1685V35.1811Z" fill="#4D890D"/>
<path d="M76.0792 35.1811H72.7094V34.9548H75.8529V31.5049H76.0792V35.1811Z" fill="#4D890D"/>
<path d="M74.5165 30.655H74.1842V30.4287H74.5165V30.655Z" fill="#4D890D"/>
<path d="M71.5532 31.0529H71.3269V30.4287H73.781V30.655H71.5532V31.0529Z" fill="#4D890D"/>
<path d="M72.9897 43.3434L70.3577 41.1716L71.0778 40.2989L72.821 41.7372L76.4768 37.1371L77.3626 37.8412L72.9897 43.3434Z" fill="#7ED321"/>
<path d="M72.1685 43.9218H71.3269V42.5958H71.5532V43.6955H72.1685V43.9218Z" fill="#4D890D"/>
<path d="M76.0792 43.9218H72.7094V43.6955H75.8529V40.2456H76.0792V43.9218Z" fill="#4D890D"/>
<path d="M74.5165 39.396H74.1842V39.1697H74.5165V39.396Z" fill="#4D890D"/>
<path d="M71.5532 39.7939H71.3269V39.1697H73.781V39.396H71.5532V39.7939Z" fill="#4D890D"/>
<path d="M72.9897 51.8297L70.3577 49.6578L71.0778 48.7851L72.821 50.2235L76.4768 45.6233L77.3626 46.3274L72.9897 51.8297Z" fill="#7ED321"/>
<path d="M72.1685 52.4083H71.3269V51.0823H71.5532V52.182H72.1685V52.4083Z" fill="#4D890D"/>
<path d="M76.0792 52.4083H72.7094V52.182H75.8529V48.7321H76.0792V52.4083Z" fill="#4D890D"/>
<path d="M74.5165 47.8822H74.1842V47.6559H74.5165V47.8822Z" fill="#4D890D"/>
<path d="M71.5532 48.2801H71.3269V47.6559H73.781V47.8822H71.5532V48.2801Z" fill="#4D890D"/>
<path d="M66.398 49.1461H48.2372V48.9198H66.398V49.1461Z" fill="#3792FC"/>
<path d="M67.8878 50.8051H53.5625V50.5788H67.8878V50.8051Z" fill="#3792FC"/>
<path d="M52.5854 50.8051H52.1975V50.5788H52.5854V50.8051Z" fill="#3792FC"/>
<path d="M50.8775 50.8051H48.2372V50.5788H50.8775V50.8051Z" fill="#3792FC"/>
<path d="M55.2149 52.4643H48.2372V52.238H55.2149V52.4643Z" fill="#3792FC"/>
<path d="M80.3184 61.5541H43.2634V61.3278H80.3184V61.5541Z" fill="#2871C6"/>
<path d="M51.6079 10.1452V15.8027H71.9751V10.1452H65.7224L64.1145 6.67709H59.4697L57.8618 10.1452H51.6079Z" fill="#2871C6"/>
<path d="M51.6079 10.145V14.2694L71.9751 11.0967V10.145H65.7224L64.1145 6.67696H59.4697L57.8618 10.145H51.6079Z" fill="#2871C6"/>
<path d="M88.0451 26.6724C87.7124 28.2143 87.1547 29.6988 86.7095 31.2121C86.2513 32.7698 85.7889 34.3543 85.7946 35.9779C85.8018 38.0898 86.6399 40.1877 88.0897 41.7233C88.6579 42.325 89.3213 42.8508 89.7588 43.5533C90.1964 44.2556 90.3577 45.2202 89.869 45.8881C89.164 46.8514 87.6557 46.6427 86.6247 47.2445C85.3266 48.0023 85.1461 49.9337 85.8863 51.2419C86.6265 52.5502 89.9967 56.2932 94.8056 55.3663C96.9579 54.9515 99.8754 52.9031 99.7922 50.7127C99.7055 48.4319 97.5276 46.5845 97.6017 44.3033C97.6502 42.8088 98.655 41.5456 99.5247 40.3294C100.394 39.1131 101.205 37.6312 100.804 36.1905C100.215 34.0697 97.4837 33.4147 96.161 31.6552C95.3094 30.5222 95.1217 29.0319 95.0689 27.6155C95.016 26.1989 95.0522 24.7473 94.5797 23.411C93.4337 20.1697 89.3648 20.5563 88.0451 26.6724Z" fill="#DBEBFF"/>
<path d="M93.2124 59.405H92.9861V34.8229H93.2124V59.405Z" fill="#94C5FF"/>
<path d="M93.2109 41.9256L92.9877 41.8889C93.3536 39.6651 95.8826 38.2821 95.9901 38.2243L96.0973 38.4237C96.072 38.4373 93.5586 39.8126 93.2109 41.9256Z" fill="#94C5FF"/>
<path d="M92.9877 51.6061C92.7406 50.1042 90.9488 49.1231 90.9305 49.1134L91.0378 48.9142C91.1155 48.9559 92.9456 49.9567 93.211 51.5695L92.9877 51.6061Z" fill="#94C5FF"/>
<path d="M94.3533 63.704H91.8067C90.2602 63.704 89.0066 62.4504 89.0066 60.9039V58.5563H97.1535V60.9039C97.1535 62.4504 95.8998 63.704 94.3533 63.704Z" fill="#24154C"/>
<path d="M97.1535 59.5182H89.0066V59.2919H97.1535V59.5182Z" fill="white"/>
<path d="M62.758 8.73252C62.758 9.26626 62.3253 9.69894 61.7915 9.69894C61.2578 9.69894 60.8251 9.26626 60.8251 8.73252C60.8251 8.19868 61.2578 7.76598 61.7915 7.76598C62.3253 7.76598 62.758 8.19868 62.758 8.73252Z" fill="white"/>
<path d="M98.5293 11.4892H98.303V10.5193H98.5293V11.4892Z" fill="#DBEBFF"/>
<path d="M98.5293 17.3084H98.303V16.3386H98.5293V17.3084Z" fill="#DBEBFF"/>
<path d="M97.1059 11.8704L96.621 11.0305L96.817 10.9173L97.3019 11.7572L97.1059 11.8704Z" fill="#DBEBFF"/>
<path d="M100.015 16.9102L99.5305 16.0702L99.7266 15.9571L100.211 16.7971L100.015 16.9102Z" fill="#DBEBFF"/>
<path d="M96.26 12.7995L95.4199 12.3146L95.5331 12.1185L96.3731 12.6034L96.26 12.7995Z" fill="#DBEBFF"/>
<path d="M101.299 15.7091L100.459 15.2243L100.573 15.0282L101.413 15.513L101.299 15.7091Z" fill="#DBEBFF"/>
<path d="M95.9917 14.0267H95.0217V13.8004H95.9917V14.0267Z" fill="#DBEBFF"/>
<path d="M101.811 14.0267H100.841V13.8004H101.811V14.0267Z" fill="#DBEBFF"/>
<path d="M95.5331 15.7091L95.4199 15.513L96.26 15.0282L96.3731 15.2243L95.5331 15.7091Z" fill="#DBEBFF"/>
<path d="M100.573 12.7995L100.459 12.6034L101.299 12.1185L101.413 12.3146L100.573 12.7995Z" fill="#DBEBFF"/>
<path d="M96.817 16.9102L96.621 16.7971L97.1059 15.9571L97.3019 16.0702L96.817 16.9102Z" fill="#DBEBFF"/>
<path d="M99.7266 11.8704L99.5305 11.7572L100.015 10.9173L100.211 11.0305L99.7266 11.8704Z" fill="#DBEBFF"/>
<path d="M46.4647 3.69726C46.9569 3.88068 47.3484 4.27229 47.5317 4.76428C47.715 4.27229 48.1067 3.88068 48.5988 3.69726C48.1067 3.51396 47.715 3.12234 47.5317 2.63036C47.3484 3.12234 46.9569 3.51396 46.4647 3.69726ZM47.6449 5.39453H47.4186C47.4186 4.52112 46.708 3.81041 45.8345 3.81041V3.58411C46.708 3.58411 47.4186 2.87352 47.4186 1.99999H47.6449C47.6449 2.87352 48.3556 3.58411 49.229 3.58411V3.81041C48.3556 3.81041 47.6449 4.52112 47.6449 5.39453Z" fill="#DBEBFF"/>
<path d="M51.7211 16.0029H51.4948V10.1451H51.7211V16.0029Z" fill="white"/>
<path d="M46.3521 20.763L45.5164 17.4787L45.7356 17.4228L46.5714 20.7071L46.3521 20.763Z" fill="white"/>
</g>
<defs>
<clipPath id="clip0">
<rect width="110" height="75" fill="white"/>
</clipPath>
</defs>
</svg>
