<svg width="30" height="30" viewBox="0 0 30 30" fill="none" xmlns="http://www.w3.org/2000/svg">
<path d="M14.4482 9.78666C14.5377 9.55748 14.7563 9.40726 14.9999 9.40726C15.2436 9.40726 15.4621 9.55748 15.5517 9.78666L17.0663 13.6595L21.1838 13.9166C21.4264 13.931 21.6363 14.0947 21.7105 14.3287C21.7865 14.5627 21.7124 14.8188 21.5237 14.9758L18.3441 17.6267L19.3735 21.6584C19.4341 21.8962 19.3446 22.1475 19.1472 22.292C18.9508 22.4364 18.686 22.4451 18.4809 22.3132L14.9999 20.0792L11.519 22.3132C11.3139 22.4451 11.0491 22.4364 10.8527 22.292C10.6553 22.1475 10.5657 21.8962 10.6264 21.6584L11.6558 17.6267L8.47527 14.9758C8.2875 14.8188 8.21336 14.5627 8.28846 14.3287C8.36357 14.0947 8.57348 13.931 8.81614 13.9166L12.9335 13.6595L14.4482 9.78666Z" stroke="#94C5FF" stroke-miterlimit="10" stroke-linecap="round" stroke-linejoin="round"/>
<path d="M16.1989 11.439L19.1935 11.2513L20.7053 7.38036C20.7967 7.14926 21.0134 7.00001 21.2589 7.00001C21.5045 7.00001 21.7211 7.14926 21.8126 7.38036L23.3244 11.2513L27.4408 11.5112C27.6864 11.5257 27.8934 11.6894 27.9704 11.9205C28.0475 12.1564 27.9704 12.4116 27.7827 12.5704L24.6051 15.2185L25.6306 19.253C25.6931 19.489 25.6017 19.7393 25.4043 19.8837C25.2117 20.0282 24.9469 20.0378 24.7399 19.9078L21.2589 17.6739L18.765 19.2723" stroke="#94C5FF" stroke-miterlimit="10" stroke-linecap="round" stroke-linejoin="round"/>
<path d="M11.235 19.2723L8.74109 17.6739L5.26017 19.9078C5.05314 20.0378 4.78834 20.0282 4.59576 19.8837C4.39836 19.7393 4.30689 19.489 4.36947 19.253L5.39497 15.2185L2.21737 12.5704C2.0296 12.4116 1.95257 12.1564 2.0296 11.9205C2.10664 11.6894 2.31366 11.5257 2.5592 11.5112L6.67564 11.2513L8.18741 7.38036C8.27889 7.14926 8.49554 7.00001 8.74109 7.00001C8.98663 7.00001 9.20328 7.14926 9.29476 7.38036L10.8065 11.2513L13.8012 11.439" stroke="#94C5FF" stroke-miterlimit="10" stroke-linecap="round" stroke-linejoin="round"/>
</svg>
