<svg width="114" height="73" viewBox="0 0 114 73" fill="none" xmlns="http://www.w3.org/2000/svg">
<g id="verified">
<g id="Big-Leaf-Plant">
<g id="Big-Ass-Leaf">
<path id="leaf" d="M95.2172 10.576C95.8176 10.5028 96.4585 10.5286 97.0168 10.7652C98.2041 11.2682 98.5416 12.6681 98.5253 13.806C98.5078 15.0307 98.2472 16.3684 99.1801 17.3551C99.609 17.8088 100.142 18.156 100.564 18.618C101.014 19.1117 101.367 19.6766 101.628 20.2832C102.108 21.3974 102.344 22.7077 101.905 23.8765C101.518 24.9056 100.546 25.8344 100.756 27.0045C100.975 28.2252 102.208 29.1585 102.979 30.0677C103.852 31.0967 104.655 32.4118 104.787 33.7611C104.914 35.0543 104.35 36.3622 103.484 37.3397C101.755 39.293 99.155 40.2505 96.5338 40.2446C95.421 40.242 94.161 40.1919 93.2006 39.595C92.9038 39.4105 92.7472 39.2035 92.5707 38.9158C92.4125 38.6578 92.2036 38.49 91.9617 38.3074C91.4302 37.9064 91.0464 37.3659 90.8015 36.761C89.8503 34.4112 90.6105 31.5042 91.9419 29.4176C92.2574 28.9232 92.5157 28.4475 92.3624 27.8583C92.2025 27.2432 91.8094 26.6884 91.4617 26.1596C91.1182 25.6371 90.7259 25.1386 90.4574 24.5736C90.1762 23.9817 90.097 23.3619 90.1467 22.7141C90.2401 21.4973 90.7664 20.3745 91.5115 19.3959C92.2292 18.4534 93.0718 17.5515 93.0737 16.3164C93.0758 15.0075 92.199 13.8431 92.5725 12.5122C92.7272 11.9612 93.0378 11.3958 93.5385 11.0654C94.0186 10.7485 94.6526 10.6449 95.2172 10.576Z" fill="#8279F8"/>
<path id="middle-thing" d="M94.8247 12.6687C94.836 12.4929 95.0449 12.3875 95.2094 12.4333C95.4259 12.4938 95.4217 12.6957 95.416 12.8755C95.3985 13.4284 95.4787 13.9658 95.6119 14.5023C95.8886 15.6177 96.4002 16.6453 96.8054 17.7168C97.2103 18.7873 97.4004 19.8926 97.1629 21.0254C96.9389 22.0934 96.5871 23.1338 96.358 24.2032C96.156 25.1457 95.9411 26.1397 96.2487 27.0798C96.5447 27.9848 97.1991 28.7217 97.6703 29.5396C98.6458 31.2325 99.0785 33.1106 99.1364 35.0433C99.1632 35.9408 99.1391 36.8465 98.9305 37.7268C98.8104 38.2336 98.649 38.9186 98.2139 39.2685C98.0132 39.4299 97.67 39.4857 97.5011 39.2467C97.3425 39.0226 97.4816 38.6756 97.532 38.4367C97.75 37.4026 97.7938 36.3457 97.7416 35.2957C97.6911 34.2786 97.5707 33.2632 97.25 32.2918C96.9523 31.3903 96.5001 30.5807 95.9678 29.7921C95.4254 28.9885 94.8616 28.1831 94.6375 27.2309C94.4098 26.2638 94.5948 25.2798 94.8421 24.3311C95.1037 23.3278 95.4463 22.3532 95.8005 21.377C96.1457 20.4257 96.268 19.5257 96.0775 18.5301C95.7011 16.5632 94.6934 14.717 94.8247 12.6687Z" fill="#C6C2F9"/>
</g>
<g id="Big-Ass-Leaf_2">
<path id="leaf_2" d="M111.07 12.9626C111.813 13.1877 112.551 13.551 113.08 14.1207C114.207 15.332 113.861 17.1628 113.239 18.5C112.57 19.9393 111.556 21.386 112.128 23.0373C112.391 23.7965 112.832 24.4841 113.082 25.2491C113.348 26.0665 113.463 26.9179 113.448 27.771C113.421 29.3379 113.003 31.0098 111.87 32.1642C110.871 33.1806 109.239 33.7742 108.866 35.2672C108.476 36.8246 109.428 38.5685 109.851 40.044C110.33 41.7139 110.575 43.6863 110.016 45.3506C109.479 46.9456 108.125 48.1995 106.592 48.9062C103.529 50.3182 99.973 50.101 96.9018 48.733C95.5979 48.1522 94.1466 47.4387 93.3363 46.2342C93.0858 45.8619 93.0118 45.5358 92.9572 45.1039C92.9083 44.7166 92.752 44.4096 92.565 44.0681C92.154 43.318 91.9901 42.4795 92.0232 41.6369C92.152 38.3642 94.5832 35.321 97.2498 33.5446C97.8817 33.1237 98.4365 32.6952 98.5688 31.9188C98.707 31.1083 98.5398 30.2481 98.412 29.4423C98.2858 28.6459 98.0898 27.8527 98.0741 27.0451C98.0577 26.1991 98.293 25.425 98.6944 24.6848C99.4483 23.2943 100.66 22.2396 102.052 21.4692C103.393 20.7271 104.859 20.0981 105.516 18.6385C106.211 17.0915 105.8 15.2592 106.942 13.8793C107.416 13.3079 108.08 12.8005 108.842 12.6697C109.573 12.5443 110.371 12.7508 111.07 12.9626Z" fill="#8279F8"/>
<path id="middle-thing_2" d="M109.552 15.5207C109.657 15.3184 109.957 15.3028 110.125 15.4432C110.347 15.628 110.236 15.8649 110.135 16.075C109.824 16.7206 109.636 17.3988 109.51 18.1038C109.249 19.5695 109.308 21.0541 109.219 22.5349C109.131 24.0145 108.773 25.4228 107.901 26.64C107.079 27.7877 106.121 28.8358 105.292 29.9823C104.561 30.9928 103.789 32.0575 103.655 33.3317C103.526 34.5582 103.905 35.7733 104.026 36.9883C104.279 39.5034 103.799 41.9539 102.853 44.273C102.413 45.3498 101.91 46.4098 101.204 47.3431C100.797 47.8805 100.249 48.6073 99.5568 48.794C99.2375 48.8801 98.8069 48.7667 98.7348 48.3953C98.667 48.0469 99.0117 47.7088 99.1959 47.4522C99.9935 46.3416 100.599 45.113 101.089 43.8422C101.564 42.6113 101.956 41.3459 102.091 40.0277C102.216 38.8045 102.112 37.6091 101.903 36.3968C101.691 35.1614 101.454 33.9127 101.692 32.6679C101.933 31.4035 102.666 30.3349 103.453 29.3409C104.285 28.2895 105.197 27.3145 106.123 26.3438C107.026 25.3979 107.642 24.396 107.941 23.1173C108.533 20.5911 108.324 17.8777 109.552 15.5207Z" fill="#B9B3F9"/>
</g>
<g id="Big-Ass-Leaf_3">
<path id="leaf_3" d="M88.1009 22.2544C89.3363 22.2544 90.4225 22.908 91.1709 23.8354C92.047 24.9211 92.224 26.247 92.5797 27.541C92.7567 28.185 93.0612 28.8242 93.5948 29.2617C94.0801 29.6596 94.6962 29.7393 95.277 29.9337C96.4379 30.3222 97.3754 31.258 97.7456 32.4C98.1972 33.7929 97.7188 35.1976 97.8012 36.6093C97.8768 37.9057 99.1576 38.7145 100.188 39.3359C101.204 39.9488 102.119 40.5224 102.425 41.7162C102.75 42.9824 102.859 44.3957 102.409 45.6465C101.661 47.7292 99.4709 48.6462 97.3547 48.7884C95.4342 48.9175 93.0193 48.7149 91.577 47.3235C90.714 46.4909 90.4014 45.3265 90.4402 44.168C90.4643 43.4476 90.6073 42.7339 90.7922 42.0377C90.9232 41.5443 91.1002 41.053 91.1506 40.5431C91.2847 39.1866 90.0285 38.9261 88.9592 38.5536C87.6005 38.0803 86.6492 37.1862 85.9878 35.9407C85.3717 34.7809 85.1133 33.4791 85.4826 32.2022C85.6712 31.5502 86.0132 30.9587 86.4772 30.4556C86.6814 30.2341 86.9692 30.0494 87.1536 29.8168C87.3256 29.5995 87.2881 29.318 87.2289 29.0635C86.9547 27.888 86.1005 26.9146 85.795 25.7413C85.5192 24.6821 85.6823 23.364 86.6525 22.6807C87.0717 22.3855 87.5886 22.2577 88.1009 22.2544Z" fill="#C6C2F9"/>
<path id="middle-thing_3" d="M89.7845 25.3173C91.094 26.7094 91.4499 28.5981 91.5543 30.4288C91.6128 31.4553 91.5519 32.5381 91.8541 33.5338C92.1127 34.386 92.7188 35.0374 93.3436 35.6531C94.6013 36.8926 96.004 38.1526 96.3718 39.9463C96.5877 40.999 96.442 42.0863 96.7402 43.1274C97.0114 44.0737 97.4889 45.0034 98.0697 45.8025C98.5373 46.446 99.1465 46.9387 99.6577 47.5386C99.8137 47.7217 100.037 47.9912 99.9727 48.2497C99.8974 48.5525 99.511 48.6483 99.2369 48.6007C98.5977 48.4899 98.0597 47.8808 97.6419 47.438C97.0308 46.7904 96.5115 46.094 96.0894 45.3128C95.6209 44.4452 95.2436 43.5245 95.0824 42.5512C94.9152 41.5414 94.9984 40.489 94.6164 39.5199C93.9737 37.8892 92.4146 36.9269 91.2875 35.656C89.8831 34.0723 90.0925 32.1013 90.2363 30.1532C90.3154 29.0827 90.3939 27.8737 89.8519 26.8963C89.645 26.5231 89.1837 26.1752 89.0947 25.7511C89.0133 25.3626 89.458 24.9699 89.7845 25.3173Z" fill="#9D95F8"/>
</g>
<path id="Base" d="M91.1807 48.1938C91.1807 56.1553 92.4825 60.3268 99.355 60.3268C106.227 60.3268 107.529 56.1553 107.529 48.1938H91.1807Z" fill="#4F47BA"/>
</g>
<g id="leave_right">
<path id="Oval" d="M42.0475 53.1613C44.5185 47.6857 46.795 37.4649 46.2086 34.1645C45.6222 30.8641 42.0877 34.0632 39.7168 30.9619C37.3458 27.8606 41.998 23.6119 40.4917 21.2469C38.9854 18.882 34.237 23.2109 31.9562 21.5411C29.6755 19.8713 31.5712 15.3596 29.4335 13.1508C27.2959 10.942 25.9183 13.4601 23.3252 12.6229C21.0792 11.8977 17.0678 7.91653 15.428 8.49402C13.7882 9.07151 16.3534 12.397 15.6085 15.3405C14.8636 18.284 12.3659 18.36 12.5099 20.0256C12.6539 21.6911 17.1344 19.0908 16.3238 23.6158C15.5132 28.1409 10.5578 28.3472 11.366 31.112C12.1743 33.8768 18.0747 33.3388 19.8951 35.8327C21.7155 38.3265 15.4118 39.6586 18.6395 43.71C21.8673 47.7615 26.4472 47.2156 30.4356 49.0633C33.9146 50.675 36.1451 53.4167 40.8013 53.8809C41.0983 53.9105 41.9216 53.4403 42.0475 53.1613Z" fill="#4F47BA"/>
<path id="Rectangle 2" d="M43.3408 35.8301C43.3408 35.8301 40.5583 38.4084 39.2555 40.8423C37.9527 43.2762 38.3892 47.9763 38.3892 47.9763L38.102 47.4787C38.102 47.4787 37.8573 42.7639 39.1119 40.5935C40.3665 38.4232 43.3408 35.8301 43.3408 35.8301Z" fill="#4F47BA"/>
<path id="Rectangle 2_2" d="M22.3108 42.0013C22.3108 42.0013 25.9349 40.8807 28.6941 40.9694C31.4534 41.0581 35.5547 43.6423 35.5547 43.6423L35.2675 43.1447C35.2675 43.1447 31.0574 40.7193 28.5505 40.7207C26.0436 40.722 22.3108 42.0013 22.3108 42.0013Z" fill="#4F47BA"/>
<path id="Rectangle 2_3" d="M38.5465 22.3452C38.5465 22.3452 34.767 25.4991 33.4642 27.933C32.1614 30.367 31.3516 35.7866 31.3516 35.7866L31.0644 35.289C31.0644 35.289 32.066 29.8546 33.3206 27.6843C34.5751 25.5139 38.5465 22.3452 38.5465 22.3452Z" fill="#BDB7F9"/>
<path id="Rectangle 2_4" d="M13.2791 30.9629C13.2791 30.9629 17.9003 29.2667 20.6595 29.3554C23.4188 29.444 28.5171 31.4526 28.5171 31.4526L28.2299 30.955C28.2299 30.955 23.0228 29.1053 20.5159 29.1066C18.009 29.1079 13.2791 30.9629 13.2791 30.9629Z" fill="#BDB7F9"/>
<path id="Rectangle 2_5" d="M28.0368 15.35C28.0368 15.35 26.093 18.6919 25.7852 20.8375C25.4774 22.9832 26.337 27.1996 26.337 27.1996L25.9909 26.9096C25.9909 26.9096 25.2691 22.6308 25.6121 20.6925C25.9552 18.7543 28.0368 15.35 28.0368 15.35Z" fill="#BDB7F9"/>
<path id="Rectangle 2_6" d="M13.909 19.5728C13.909 19.5728 16.8502 19.0451 18.4902 19.3887C20.1301 19.7324 22.9657 21.4707 22.9657 21.4707L22.8465 21.1428C22.8465 21.1428 19.9292 19.4881 18.4306 19.2248C16.932 18.9616 13.909 19.5728 13.909 19.5728Z" fill="#4F47BA"/>
<path id="Rectangle" d="M15.4251 8.49582L46.8146 61.9936L46.0668 62.4254L15.4251 8.49582Z" fill="#BDB7F9"/>
</g>
<g id="leave_left">
<path id="Oval_2" d="M43.7135 57.6466C43.2295 52.8077 40.6884 44.7207 38.9415 42.6443C37.1945 40.5678 36.0114 44.2413 33.094 43.0267C30.1765 41.8121 31.7183 36.9504 29.705 35.9021C27.6917 34.8539 26.1149 39.8107 23.8401 39.5632C21.5653 39.3157 21.0682 35.3854 18.6755 34.7022C16.2828 34.0189 16.3362 36.3418 14.1794 36.8045C12.3113 37.2052 7.88764 36.0377 6.97176 37.1063C6.05588 38.1749 9.20027 39.468 9.86949 41.8331C10.5387 44.1982 8.81841 45.2625 9.5935 46.3719C10.3686 47.4813 12.4572 43.8447 13.7205 47.3452C14.9838 50.8456 11.5932 52.996 13.2789 54.6072C14.9646 56.2184 18.8835 53.4529 21.1691 54.4645C23.4547 55.476 19.5746 58.9613 23.4774 60.4953C27.3801 62.0292 30.37 59.7927 33.9139 59.4737C37.0054 59.1954 39.6789 60.2147 43.131 58.6555C43.3512 58.556 43.7382 57.8932 43.7135 57.6466Z" fill="url(#paint0_linear)"/>
<path id="Rectangle 2_7" d="M37.605 44.9726C37.605 44.9726 36.6979 47.9064 36.7696 50.1401C36.8414 52.3737 39.0499 55.4921 39.0499 55.4921L38.6471 55.2596C38.6471 55.2596 36.5672 52.0532 36.5683 50.0238C36.5693 47.9944 37.605 44.9726 37.605 44.9726Z" fill="#9D95F8"/>
<path id="Rectangle 2_8" d="M25.3596 57.8115C25.3596 57.8115 27.4467 55.559 29.4171 54.5043C31.3874 53.4496 35.3087 53.6012 35.3087 53.6012L34.9059 53.3687C34.9059 53.3687 30.9726 53.3724 29.2157 54.388C27.4587 55.4036 25.3596 57.8115 25.3596 57.8115Z" fill="#9D95F8"/>
<path id="Rectangle 2_9" d="M28.7858 37.4596C28.7858 37.4596 27.4127 41.2005 27.4845 43.4342C27.5562 45.6678 29.1822 49.7951 29.1822 49.7951L28.7794 49.5625C28.7794 49.5625 27.282 45.3473 27.2831 43.3179C27.2841 41.2885 28.7858 37.4596 28.7858 37.4596Z" fill="#9D95F8"/>
<path id="Rectangle 2_10" d="M14.5599 53.7284C14.5599 53.7284 17.1131 50.6688 19.0834 49.6141C21.0537 48.5595 25.441 47.904 25.441 47.904L25.0382 47.6714C25.0382 47.6714 20.639 48.4823 18.882 49.4979C17.1251 50.5135 14.5599 53.7284 14.5599 53.7284Z" fill="#9D95F8"/>
<path id="Rectangle 2_11" d="M18.5864 36.8092C18.5864 36.8092 18.5763 39.9389 19.229 41.5678C19.8817 43.1966 22.191 45.8047 22.191 45.8047L21.831 45.7414C21.831 45.7414 19.593 43.0339 19.049 41.5362C18.505 40.0384 18.5864 36.8092 18.5864 36.8092Z" fill="#9D95F8"/>
<path id="Rectangle 2_12" d="M10.3912 45.488C10.3912 45.488 12.2396 43.9275 13.5284 43.5046C14.8172 43.0817 17.5087 43.1527 17.5087 43.1527L17.2925 42.9711C17.2925 42.9711 14.5774 42.9918 13.4203 43.4138C12.2631 43.8358 10.3912 45.488 10.3912 45.488Z" fill="#9D95F8"/>
<path id="Rectangle_2" d="M6.97023 37.1087L50.6303 61.909L50.2808 62.5144L6.97023 37.1087Z" fill="#9D95F8"/>
</g>
<g id="doc">
<g id="file">
<path id="base" fill-rule="evenodd" clip-rule="evenodd" d="M36.2061 5.49072H84.1023V65.361H36.2061V5.49072Z" fill="#E6E5F4"/>
<g id="base_2" filter="url(#filter0_d)">
<rect x="35.208" y="4.49292" width="47.8962" height="59.8703" fill="url(#paint1_linear)"/>
</g>
<rect id="base_3" x="42.1929" y="54.3848" width="33.9265" height="0.997838" fill="#EFEEFB"/>
<path id="base_4" fill-rule="evenodd" clip-rule="evenodd" d="M63.1475 49.3958H76.1194V50.3936H63.1475V49.3958Z" fill="#EFEEFB"/>
<rect id="base_5" x="52.1714" y="49.3958" width="8.98055" height="0.997838" fill="#EFEEFB"/>
<rect id="base_6" x="42.1929" y="49.3958" width="7.98271" height="0.997838" fill="#EFEEFB"/>
<rect id="base_7" x="54.167" y="44.4065" width="23.9481" height="0.997838" fill="#ADB1C3"/>
<rect id="base_8" x="42.1929" y="44.4065" width="7.98271" height="0.997838" fill="#ADB1C3"/>
<path id="Shape" fill-rule="evenodd" clip-rule="evenodd" d="M51.5308 24.5613C51.5308 20.4607 54.8858 17.1057 58.9863 17.1057C63.0869 17.1057 66.4419 20.4607 66.4419 24.5613C66.4419 28.6618 63.0869 32.0168 58.9863 32.0168C54.8858 32.0168 51.5308 28.6618 51.5308 24.5613ZM63.4052 22.0043C63.084 21.6858 62.5634 21.6858 62.2423 22.0043L57.8899 26.3204L55.7304 24.1788C55.4092 23.8604 54.8886 23.8604 54.5674 24.1788C54.2463 24.4973 54.2463 25.0136 54.5674 25.332L57.3084 28.0502C57.6296 28.3686 58.1502 28.3686 58.4714 28.0502L63.4052 23.1575C63.7263 22.839 63.7263 22.3227 63.4052 22.0043Z" fill="#33CF90"/>
</g>
<g id="piggy_bank">
<path id="Shape_2" fill-rule="evenodd" clip-rule="evenodd" d="M94.8809 63.4762C94.9796 63.4849 95.5197 63.5321 95.9353 63.6908C96.2944 63.8269 96.4342 63.9982 96.3633 64.2012C96.2868 64.3974 95.96 64.5187 95.5512 64.5834C95.5416 64.7909 95.2606 64.935 94.7734 64.9747C94.583 64.9894 94.3897 64.9962 94.1984 64.9962C93.9955 64.9962 93.7976 64.9883 93.6044 64.9769C93.8962 65.1652 94.1354 65.3591 94.3009 65.5565C95.0295 66.4252 94.3587 67.2452 92.4098 67.869L93.0927 68.6833C93.4019 69.0519 92.6398 69.3525 91.3962 69.3525H88.5185C87.4662 69.3525 86.3719 69.1291 85.8902 68.833C84.275 68.9102 82.5606 68.9102 80.8198 68.833C80.8385 69.1291 80.1189 69.3525 79.0628 69.3525H76.1851C74.9414 69.3525 73.6753 69.0519 73.3662 68.6833L72.6833 67.869C71.1666 67.5526 69.8969 67.1885 68.8992 66.7836L67.8526 66.7814H67.2403C65.9966 66.7814 64.7305 66.4808 64.4214 66.1122L63.2705 64.7399C62.9613 64.3713 63.7233 64.0707 64.967 64.0707H67.0985C67.5355 63.7112 68.2593 63.3925 69.2106 63.126L67.937 61.6074C67.8989 61.562 67.9594 61.52 68.0867 61.503C68.2141 61.486 68.3862 61.4951 68.5248 61.528L72.6146 62.4988C74.1557 62.3196 75.9146 62.2221 77.8126 62.2221C83.9085 62.2221 89.904 63.1975 92.799 64.5414C92.9298 64.6015 93.0529 64.6616 93.1694 64.7229C93.5337 64.7603 93.9966 64.7875 94.3976 64.7546C94.5373 64.7433 94.6418 64.7036 94.6803 64.6446C94.0527 64.6446 93.4284 64.5618 93.0368 64.4325C92.9728 64.411 92.9127 64.3894 92.8621 64.3656C92.5032 64.1978 92.4993 64.0242 92.8557 63.9108C93.191 63.8042 93.7546 63.7827 94.2938 63.8507C94.3113 63.853 94.3287 63.8551 94.3457 63.8572C94.3706 63.8603 94.3949 63.8632 94.4181 63.8666C94.8971 63.9403 95.2282 64.107 95.4034 64.2794C95.4888 64.2397 95.5531 64.1887 95.5783 64.1229C95.6278 63.9857 95.5518 63.8723 95.3503 63.7963C95.1478 63.7192 94.8676 63.6953 94.8638 63.6953C94.7988 63.6908 94.7367 63.6806 94.6851 63.6693C94.5589 63.642 94.4701 63.6001 94.4723 63.557C94.4745 63.4957 94.6507 63.4594 94.8706 63.4753C94.8732 63.4756 94.8766 63.4759 94.8809 63.4762ZM93.873 64.0379C93.7122 64.0379 93.5753 64.0571 93.491 64.0844C93.4278 64.1048 93.3051 64.1592 93.4367 64.2477C93.4538 64.259 93.4758 64.2715 93.5063 64.2851C93.6762 64.3645 94.0883 64.4178 94.5016 64.4178C94.5082 64.4177 94.5154 64.4175 94.523 64.4174C94.5756 64.4163 94.6499 64.4148 94.736 64.4099C94.6526 64.2375 94.3941 64.0934 94.1876 64.0617C94.0815 64.0447 93.9801 64.0379 93.8844 64.0379H93.873Z" fill="url(#paint2_linear)"/>
<path id="Shape_3" fill-rule="evenodd" clip-rule="evenodd" d="M99.8089 49.9512C99.9004 49.9797 100.401 50.1356 100.683 50.6597C100.928 51.109 100.924 51.6744 100.683 52.3447C100.442 52.9925 100.014 53.3932 99.5507 53.6066C99.367 54.2919 98.9652 54.7675 98.4447 54.8985C98.2419 54.9472 98.0429 54.9697 97.8516 54.9697C97.6488 54.9697 97.4575 54.9434 97.2738 54.906C97.4077 55.5276 97.4843 56.1679 97.4843 56.8195C97.4843 59.6878 96.1258 62.3951 93.6537 64.4546V67.1432C93.6537 68.3602 92.6397 69.3525 91.396 69.3525H88.5183C87.466 69.3525 86.5591 68.6148 86.3257 67.6375C84.6457 67.8921 82.9314 67.8921 81.2553 67.6375C81.0257 68.6148 80.1188 69.3525 79.0626 69.3525H76.1849C74.9413 69.3525 73.9272 68.3602 73.9272 67.1432V64.4546C72.6759 63.4099 71.7116 62.2079 71.0534 60.8711L70.0087 60.8636H69.3964C68.1527 60.8636 67.1387 59.8713 67.1387 58.6543V54.1234C67.1387 52.9064 68.1527 51.9141 69.3964 51.9141H71.5279C72.2664 50.7271 73.2575 49.6749 74.4323 48.7949V43.7809C74.4323 43.6311 74.528 43.4926 74.6696 43.4364C74.8112 43.3803 74.9757 43.4102 75.0867 43.5188L78.3623 46.7241C80.0537 46.1325 81.8944 45.8105 83.7924 45.8105C89.8883 45.8105 95.0658 49.0308 96.8337 53.4681C96.9141 53.6666 96.9868 53.865 97.0518 54.0672C97.3848 54.1908 97.8248 54.2807 98.2534 54.1721C98.4027 54.1346 98.5404 54.0036 98.6284 53.8088C98.0009 53.8088 97.446 53.5355 97.1628 53.1086C97.1169 53.0375 97.0748 52.9663 97.0442 52.8877C96.8261 52.3335 96.9677 51.7606 97.4192 51.3861C97.844 51.0341 98.4256 50.963 98.9078 51.1877C98.9233 51.1953 98.9389 51.2023 98.9542 51.2091C98.9765 51.2192 98.9983 51.229 99.0188 51.2401C99.4359 51.4835 99.6272 52.0339 99.6578 52.6031C99.7764 52.472 99.8836 52.3035 99.9639 52.0864C100.128 51.6333 100.148 51.2588 100.01 51.0079C99.8721 50.7533 99.6119 50.6747 99.6081 50.6747C99.5468 50.6597 99.4933 50.626 99.4512 50.5885C99.3478 50.4987 99.2943 50.3601 99.3325 50.2178C99.3861 50.0156 99.5928 49.8958 99.7994 49.9482C99.8018 49.949 99.805 49.95 99.8089 49.9512ZM98.33 51.8055C98.1692 51.8055 98.0162 51.8692 97.909 51.959C97.8287 52.0264 97.6603 52.2062 97.7177 52.4983C97.7253 52.5357 97.7368 52.5769 97.7559 52.6218C97.8593 52.8839 98.2266 53.0599 98.6399 53.0599C98.6467 53.0595 98.654 53.059 98.6618 53.0585C98.7152 53.055 98.7908 53.0501 98.881 53.0337C98.9422 52.4646 98.8045 51.989 98.6246 51.8841C98.5328 51.828 98.4371 51.8055 98.3414 51.8055H98.33Z" fill="#F78780"/>
<path id="Shape_4" fill-rule="evenodd" clip-rule="evenodd" d="M99.8089 49.9512C99.9004 49.9797 100.401 50.1356 100.683 50.6597C100.928 51.109 100.924 51.6744 100.683 52.3447C100.442 52.9925 100.014 53.3932 99.5507 53.6066C99.367 54.2919 98.9652 54.7675 98.4447 54.8985C98.2419 54.9472 98.0429 54.9697 97.8516 54.9697C97.6488 54.9697 97.4575 54.9434 97.2738 54.906C97.4077 55.5276 97.4843 56.1679 97.4843 56.8195C97.4843 59.6878 96.1258 62.3951 93.6537 64.4546V67.1432C93.6537 68.3602 92.6397 69.3525 91.396 69.3525H88.5183C87.466 69.3525 86.5591 68.6148 86.3257 67.6375C84.6457 67.8921 82.9314 67.8921 81.2553 67.6375C81.0257 68.6148 80.1188 69.3525 79.0626 69.3525H76.1849C74.9413 69.3525 73.9272 68.3602 73.9272 67.1432V64.4546C72.6759 63.4099 71.7116 62.2079 71.0534 60.8711L70.0087 60.8636H69.3964C68.1527 60.8636 67.1387 59.8713 67.1387 58.6543V54.1234C67.1387 52.9064 68.1527 51.9141 69.3964 51.9141H71.5279C72.2664 50.7271 73.2575 49.6749 74.4323 48.7949V43.7809C74.4323 43.6311 74.528 43.4926 74.6696 43.4364C74.8112 43.3803 74.9757 43.4102 75.0867 43.5188L78.3623 46.7241C80.0537 46.1325 81.8944 45.8105 83.7924 45.8105C89.8883 45.8105 95.0658 49.0308 96.8337 53.4681C96.9141 53.6666 96.9868 53.865 97.0518 54.0672C97.3848 54.1908 97.8248 54.2807 98.2534 54.1721C98.4027 54.1346 98.5404 54.0036 98.6284 53.8088C98.0009 53.8088 97.446 53.5355 97.1628 53.1086C97.1169 53.0375 97.0748 52.9663 97.0442 52.8877C96.8261 52.3335 96.9677 51.7606 97.4192 51.3861C97.844 51.0341 98.4256 50.963 98.9078 51.1877C98.9233 51.1953 98.9389 51.2023 98.9542 51.2091C98.9765 51.2192 98.9983 51.229 99.0188 51.2401C99.4359 51.4835 99.6272 52.0339 99.6578 52.6031C99.7764 52.472 99.8836 52.3035 99.9639 52.0864C100.128 51.6333 100.148 51.2588 100.01 51.0079C99.8721 50.7533 99.6119 50.6747 99.6081 50.6747C99.5468 50.6597 99.4933 50.626 99.4512 50.5885C99.3478 50.4987 99.2943 50.3601 99.3325 50.2178C99.3861 50.0156 99.5928 49.8958 99.7994 49.9482C99.8018 49.949 99.805 49.95 99.8089 49.9512ZM98.33 51.8055C98.1692 51.8055 98.0162 51.8692 97.909 51.959C97.8287 52.0264 97.6603 52.2062 97.7177 52.4983C97.7253 52.5357 97.7368 52.5769 97.7559 52.6218C97.8593 52.8839 98.2266 53.0599 98.6399 53.0599C98.6467 53.0595 98.654 53.059 98.6618 53.0585C98.7152 53.055 98.7908 53.0501 98.881 53.0337C98.9422 52.4646 98.8045 51.989 98.6246 51.8841C98.5328 51.828 98.4371 51.8055 98.3414 51.8055H98.33Z" fill="url(#paint3_linear)"/>
<path id="Shape_5" fill-rule="evenodd" clip-rule="evenodd" d="M99.8089 49.9512C99.9004 49.9797 100.401 50.1356 100.683 50.6597C100.928 51.109 100.924 51.6744 100.683 52.3447C100.442 52.9925 100.014 53.3932 99.5507 53.6066C99.367 54.2919 98.9652 54.7675 98.4447 54.8985C98.2419 54.9472 98.0429 54.9697 97.8516 54.9697C97.6488 54.9697 97.4575 54.9434 97.2738 54.906C97.4077 55.5276 97.4843 56.1679 97.4843 56.8195C97.4843 59.6878 96.1258 62.3951 93.6537 64.4546V67.1432C93.6537 68.3602 92.6397 69.3525 91.396 69.3525H88.5183C87.466 69.3525 86.5591 68.6148 86.3257 67.6375C84.6457 67.8921 82.9314 67.8921 81.2553 67.6375C81.0257 68.6148 80.1188 69.3525 79.0626 69.3525H76.1849C74.9413 69.3525 73.9272 68.3602 73.9272 67.1432V64.4546C72.6759 63.4099 71.7116 62.2079 71.0534 60.8711L70.0087 60.8636H69.3964C68.1527 60.8636 67.1387 59.8713 67.1387 58.6543V54.1234C67.1387 52.9064 68.1527 51.9141 69.3964 51.9141H71.5279C72.2664 50.7271 73.2575 49.6749 74.4323 48.7949V43.7809C74.4323 43.6311 74.528 43.4926 74.6696 43.4364C74.8112 43.3803 74.9757 43.4102 75.0867 43.5188L78.3623 46.7241C80.0537 46.1325 81.8944 45.8105 83.7924 45.8105C89.8883 45.8105 95.0658 49.0308 96.8337 53.4681C96.9141 53.6666 96.9868 53.865 97.0518 54.0672C97.3848 54.1908 97.8248 54.2807 98.2534 54.1721C98.4027 54.1346 98.5404 54.0036 98.6284 53.8088C98.0009 53.8088 97.446 53.5355 97.1628 53.1086C97.1169 53.0375 97.0748 52.9663 97.0442 52.8877C96.8261 52.3335 96.9677 51.7606 97.4192 51.3861C97.844 51.0341 98.4256 50.963 98.9078 51.1877C98.9233 51.1953 98.9389 51.2023 98.9542 51.2091C98.9765 51.2192 98.9983 51.229 99.0188 51.2401C99.4359 51.4835 99.6272 52.0339 99.6578 52.6031C99.7764 52.472 99.8836 52.3035 99.9639 52.0864C100.128 51.6333 100.148 51.2588 100.01 51.0079C99.8721 50.7533 99.6119 50.6747 99.6081 50.6747C99.5468 50.6597 99.4933 50.626 99.4512 50.5885C99.3478 50.4987 99.2943 50.3601 99.3325 50.2178C99.3861 50.0156 99.5928 49.8958 99.7994 49.9482C99.8018 49.949 99.805 49.95 99.8089 49.9512ZM98.33 51.8055C98.1692 51.8055 98.0162 51.8692 97.909 51.959C97.8287 52.0264 97.6603 52.2062 97.7177 52.4983C97.7253 52.5357 97.7368 52.5769 97.7559 52.6218C97.8593 52.8839 98.2266 53.0599 98.6399 53.0599C98.6467 53.0595 98.654 53.059 98.6618 53.0585C98.7152 53.055 98.7908 53.0501 98.881 53.0337C98.9422 52.4646 98.8045 51.989 98.6246 51.8841C98.5328 51.828 98.4371 51.8055 98.3414 51.8055H98.33Z" fill="url(#paint4_linear)"/>
<path id="Path" fill-rule="evenodd" clip-rule="evenodd" d="M75.9222 51.9219C74.4344 51.9219 73.9714 53.3484 73.9361 54.1048C73.9255 54.3203 74.0739 54.5045 74.2683 54.5163C74.2754 54.5163 74.2824 54.5163 74.2895 54.5163C74.4768 54.5163 74.6323 54.3556 74.6429 54.1439C74.6429 54.14 74.6429 54.1283 74.6464 54.1126C74.6641 53.8971 74.8125 52.7018 75.9258 52.7018C77.0744 52.7018 77.1168 53.8892 77.1203 54.0264C77.1203 54.0303 77.1238 54.0342 77.1238 54.0381C77.1309 54.2498 77.2829 54.4183 77.4737 54.4183C77.6681 54.4183 77.8271 54.2419 77.8271 54.0264C77.82 53.2974 77.4242 51.9219 75.9222 51.9219Z" fill="#5A6389"/>
<path id="Path_2" fill-rule="evenodd" clip-rule="evenodd" d="M69.485 53.5415C69.1283 53.5415 68.8364 53.7083 68.8364 53.9121V58.3596C68.8364 58.5635 69.1283 58.7303 69.485 58.7303C69.8417 58.7303 70.1336 58.5635 70.1336 58.3596V53.9121C70.1336 53.7083 69.8482 53.5415 69.485 53.5415Z" fill="#A34842"/>
<path id="Path_3" fill-rule="evenodd" clip-rule="evenodd" d="M81.9021 49.6632C82.1896 49.6012 84.7776 49.068 87.3696 49.8781C87.4101 49.8905 87.4506 49.8946 87.4871 49.8946C87.6612 49.8946 87.8192 49.7789 87.8759 49.6012C87.9407 49.3821 87.8232 49.1507 87.6086 49.0846C84.8748 48.229 82.2301 48.7374 81.7279 48.849C81.5092 48.8986 81.3715 49.1176 81.4161 49.3408C81.4647 49.5722 81.6834 49.7128 81.9021 49.6632Z" fill="#B34E48"/>
</g>
</g>
</g>
<defs>
<filter id="filter0_d" x="34.208" y="4.49292" width="49.8962" height="61.8703" filterUnits="userSpaceOnUse" color-interpolation-filters="sRGB">
<feFlood flood-opacity="0" result="BackgroundImageFix"/>
<feColorMatrix in="SourceAlpha" type="matrix" values="0 0 0 0 0 0 0 0 0 0 0 0 0 0 0 0 0 0 127 0" result="hardAlpha"/>
<feOffset dy="1"/>
<feGaussianBlur stdDeviation="0.5"/>
<feColorMatrix type="matrix" values="0 0 0 0 0 0 0 0 0 0 0 0 0 0 0 0 0 0 0.0440444 0"/>
<feBlend mode="normal" in2="BackgroundImageFix" result="effect1_dropShadow"/>
<feBlend mode="normal" in="SourceGraphic" in2="effect1_dropShadow" result="shape"/>
</filter>
<linearGradient id="paint0_linear" x1="0.931152" y1="47.5408" x2="37.4866" y2="68.6461" gradientUnits="userSpaceOnUse">
<stop stop-color="#4F47BA"/>
<stop offset="1" stop-color="#675AF6"/>
</linearGradient>
<linearGradient id="paint1_linear" x1="36.5006" y1="62.9714" x2="82.1699" y2="62.9714" gradientUnits="userSpaceOnUse">
<stop stop-color="#EDEBFF"/>
<stop offset="1" stop-color="#F5F4FF"/>
</linearGradient>
<linearGradient id="paint2_linear" x1="51.1487" y1="61.8905" x2="51.3379" y2="69.8236" gradientUnits="userSpaceOnUse">
<stop stop-color="#675AF6" stop-opacity="0.01"/>
<stop offset="1" stop-color="#C6C2F9" stop-opacity="0.05"/>
</linearGradient>
<linearGradient id="paint3_linear" x1="75.5704" y1="56.3806" x2="75.5704" y2="69.3525" gradientUnits="userSpaceOnUse">
<stop stop-color="#EE817A" stop-opacity="0.01"/>
<stop offset="1" stop-color="#D86760"/>
</linearGradient>
<linearGradient id="paint4_linear" x1="71.6083" y1="43.4087" x2="71.6083" y2="62.4761" gradientUnits="userSpaceOnUse">
<stop stop-color="#FFBBB6"/>
<stop offset="1" stop-color="#D86760" stop-opacity="0.01"/>
</linearGradient>
</defs>
</svg>
