<svg width="115" height="84" viewBox="0 0 115 84" fill="none" xmlns="http://www.w3.org/2000/svg">
<mask id="mask0" mask-type="alpha" maskUnits="userSpaceOnUse" x="0" y="0" width="115" height="84">
<rect width="115" height="84" fill="white"/>
</mask>
<g mask="url(#mask0)">
<path d="M82.6964 55.4817C86.342 57.1227 93.148 58.6317 95.3465 58.2396C97.5449 57.8476 95.4162 55.4976 97.4832 53.9183C99.55 52.3391 102.377 55.4322 103.953 54.4287C105.529 53.4251 102.649 50.2679 103.762 48.7497C104.875 47.2314 107.879 48.49 109.352 47.0664C110.824 45.6428 109.148 44.7276 109.707 43.0017C110.191 41.5068 112.845 38.8356 112.461 37.7449C112.077 36.6542 109.861 38.3629 107.901 37.869C105.941 37.3751 105.892 35.7131 104.782 35.8098C103.673 35.9066 105.402 38.8862 102.389 38.3496C99.3755 37.8129 99.241 34.5158 97.3992 35.0552C95.5573 35.5945 95.9122 39.5202 94.2503 40.7329C92.5884 41.9456 91.7047 37.752 89.0044 39.9019C86.3041 42.0519 86.6651 45.099 85.4323 47.7536C84.3569 50.0693 82.5296 51.555 82.218 54.6533C82.1981 54.851 82.5107 55.3986 82.6965 55.4822L82.6965 55.4818L82.6964 55.4817Z" fill="url(#paint0_linear)"/>
<path d="M94.2409 56.3313C93.0972 55.098 91.9852 54.1927 90.905 53.6158C89.8248 53.0388 88.2411 52.848 86.1541 53.0434L86.4856 52.852C88.5791 52.7417 90.1074 52.9644 91.0707 53.5201C92.034 54.0758 93.0906 55.0128 94.2409 56.3313L94.2409 56.3313Z" fill="#BED6F1"/>
<path d="M90.1414 42.3426C90.6375 43.9498 90.8655 45.3654 90.825 46.5894C90.7846 47.8133 90.1899 49.3354 89.041 51.1557L89.3725 50.9643C90.451 49.0959 90.9904 47.6057 90.9908 46.4936C90.9912 45.3816 90.708 43.9981 90.1414 42.3426L90.1414 42.3426Z" fill="#BED6F1"/>
<path d="M103.224 53.1344C101.825 51.4591 100.585 50.3329 99.5052 49.756C98.425 49.179 96.6818 48.7119 94.2758 48.3548L94.6073 48.1634C97.0199 48.6056 98.7078 49.1047 99.671 49.6603C100.634 50.216 101.818 51.374 103.224 53.1344L103.224 53.1344Z" fill="#BED6F1"/>
<path d="M97.4983 36.3272C98.2497 38.3765 98.6052 40.0131 98.5647 41.237C98.5243 42.461 98.0572 44.2042 97.1635 46.4664L97.495 46.275C98.3183 43.9645 98.73 42.2533 98.7305 41.1413C98.7309 40.0293 98.3201 38.4246 97.4983 36.3272L97.4983 36.3272Z" fill="#BED6F1"/>
<path d="M107.889 46.1374C106.406 45.2764 105.188 44.7781 104.236 44.6423C103.283 44.5066 101.87 44.6302 99.9977 45.0131L100.191 44.7826C102.091 44.4608 103.472 44.3757 104.332 44.5272C105.193 44.6786 106.378 45.2154 107.889 46.1375L107.889 46.1375L107.889 46.1374Z" fill="#BED6F1"/>
<path d="M105.085 36.7403C105.318 38.0448 105.358 39.0609 105.205 39.7885C105.051 40.5161 104.588 41.5091 103.815 42.7674L104.034 42.6879C104.77 41.3932 105.196 40.4135 105.314 39.7487C105.431 39.0839 105.355 38.0811 105.085 36.7403L105.085 36.7403Z" fill="#BED6F1"/>
<path d="M112.462 37.7425L76.8125 58.6583L76.5255 58.1612L112.462 37.7425Z" fill="#BED6F1"/>
<path d="M54.2195 60.24C62.0209 59.4523 75.0615 55.3406 78.4108 52.5193C81.7606 49.6974 75.8403 47.7934 77.8024 43.0839C79.7643 38.3746 87.5998 40.8559 89.2924 37.6059C90.985 34.3557 82.9962 31.818 83.3985 28.1472C83.8008 24.4763 90.1374 23.6683 91.242 19.8065C92.3467 15.9445 88.6019 16.034 87.8589 12.5542C87.2154 9.54014 89.1036 2.40028 87.3822 0.924142C85.6608 -0.552304 83.572 4.52344 79.7583 5.6066C75.9446 6.68967 74.2312 3.91516 72.4417 5.16735C70.6521 6.41965 76.5117 9.78488 70.867 11.8284C65.2223 13.8719 61.7605 8.40351 59.1609 11.1259C56.5613 13.8482 61.0139 20.1683 59.3801 23.8583C57.7463 27.5482 52.133 21.2914 49.6546 27.5913C47.1765 33.8912 50.7778 38.7129 51.2873 44.4306C51.7316 49.4188 50.0847 53.7343 52.594 59.3025C52.7541 59.6576 53.8221 60.2811 54.2197 60.241L54.2193 60.2404L54.2195 60.24Z" fill="url(#paint1_linear)"/>
<path d="M74.6604 50.3632C71.5082 49.39 68.7317 48.943 66.3311 49.0223C63.9305 49.1015 61.0534 50.3306 57.7 52.7091L58.0754 52.0588C61.5232 49.8184 64.3376 48.698 66.5188 48.6972C68.6999 48.6965 71.4136 49.2518 74.6603 50.3633L74.6604 50.3632Z" fill="#BED6F1"/>
<path d="M53.9794 30.6218C56.3983 32.8651 58.1736 35.0461 59.3052 37.1648C60.437 39.2834 60.9195 42.452 60.7531 46.6706L61.1285 46.0204C61.1281 41.7891 60.5829 38.729 59.493 36.8396C58.403 34.9504 56.5653 32.8779 53.9793 30.6219L53.9794 30.6218Z" fill="#BED6F1"/>
<path d="M86.7837 36.123C82.7645 34.6493 79.5546 33.952 77.154 34.0314C74.7534 34.1106 71.3344 35.0267 66.8974 36.7796L67.2728 36.1294C71.8044 34.5146 75.1607 33.7071 77.3417 33.7062C79.5228 33.7055 82.6701 34.5111 86.7837 36.1231L86.7837 36.123Z" fill="#BED6F1"/>
<path d="M60.5767 13.1889C63.8626 15.9328 66.0714 18.364 67.203 20.4827C68.3347 22.6013 69.2508 26.0203 69.9513 30.7393L70.3267 30.0891C69.4593 25.3572 68.4805 22.0468 67.3907 20.1575C66.3008 18.2683 64.0295 15.9455 60.5767 13.189L60.5767 13.1889Z" fill="#BED6F1"/>
<path d="M87.8462 19.6631C84.4827 19.6551 81.9255 20.0029 80.1741 20.7066C78.4229 21.4102 76.1448 23.0053 73.3397 25.4921L73.4421 24.9111C76.3541 22.5011 78.6151 21.003 80.2253 20.4162C81.8357 19.8294 84.3757 19.5786 87.8461 19.6633L87.8462 19.6632L87.8462 19.6631Z" fill="#BED6F1"/>
<path d="M73.8667 6.45124C75.5421 8.4383 76.6065 10.1249 77.0599 11.5111C77.5132 12.8971 77.7005 15.038 77.6218 17.9334L77.9148 17.5841C77.8951 14.6634 77.6589 12.5808 77.2064 11.3364C76.7539 10.0919 75.6407 8.46361 73.8667 6.45128L73.8667 6.45124Z" fill="#BED6F1"/>
<path d="M87.3793 0.91944L47.3383 71.4064L46.3632 70.8434L87.3793 0.91944Z" fill="#BED6F1"/>
<path d="M85.0024 39.0932C94.9462 39.8295 102.218 37.499 106.814 32.021C111.518 26.4159 112.531 18.6193 109.856 8.63083C99.5544 7.72981 92.0524 10.0827 87.3491 15.6878C82.7496 21.1692 81.7139 28.7233 84.172 38.3964C84.2275 38.6148 84.7734 39.0774 85.0039 39.0945L85.0033 39.094L85.0024 39.0932Z" fill="#D8EAFF"/>
<path d="M87.8404 22.1964C88.9932 23.7175 89.7856 25.1384 90.2173 26.4591C90.6492 27.7798 90.6059 29.6335 90.0872 32.0203L90.3664 31.6875C90.7912 29.2768 90.7881 27.4785 90.3569 26.2927C89.9258 25.1069 89.0869 23.7415 87.8404 22.1964L87.8404 22.1964Z" fill="#B1CAE8"/>
<path d="M105.978 28.6261C103.836 27.3827 102.077 26.663 100.701 26.467C99.3258 26.271 97.2859 26.4494 94.5818 27.0024L94.861 26.6696C97.605 26.2049 99.5985 26.0819 100.841 26.3006C102.084 26.5193 103.796 27.2945 105.978 28.6262L105.978 28.6261Z" fill="#B1CAE8"/>
<path d="M93.3503 12.9262C94.9467 14.8196 95.9609 16.4266 96.3928 17.7475C96.8247 19.0682 97.0033 21.1081 96.9282 23.8671L97.2074 23.5344C97.1886 20.7514 96.9636 18.7669 96.5324 17.5811C96.1013 16.3953 95.0406 14.8437 93.3502 12.9263L93.3503 12.9262Z" fill="#B1CAE8"/>
<path d="M108.236 19.3547C106.321 19.0122 104.829 18.9534 103.76 19.1784C102.692 19.4034 101.234 20.0833 99.3858 21.2183L99.5025 20.8976C101.404 19.817 102.842 19.1905 103.819 19.0181C104.795 18.8456 106.267 18.9578 108.236 19.3548L108.236 19.3547Z" fill="#B1CAE8"/>
<path d="M101.598 10.4221C102.353 11.7225 102.79 12.7903 102.909 13.6255C103.028 14.4608 102.92 15.6993 102.584 17.3411L102.786 17.1715C103.068 15.5055 103.143 14.2952 103.01 13.5408C102.877 12.7863 102.407 11.7467 101.598 10.4221L101.598 10.4221Z" fill="#B1CAE8"/>
<path d="M109.854 8.6289L84.8362 38.9537L84.3375 38.5353L109.854 8.6289Z" fill="#B1CAE8"/>
<path d="M27.9836 54.1256C29.088 49.7721 29.4297 41.9474 28.5667 39.5915C27.7038 37.2358 25.5193 40.0493 23.3687 38.0706C21.2182 36.0919 24.0888 32.3605 22.6709 30.8127C21.2531 29.2648 18.3221 33.0677 16.4249 32.132C14.5276 31.1964 15.3343 27.6274 13.4721 26.2762C11.6098 24.925 10.9243 26.9582 8.90571 26.6763C7.15738 26.4322 3.68412 24.0171 2.55216 24.6544C1.42019 25.2917 3.74302 27.4104 3.57891 29.6754C3.41476 31.9403 1.58568 32.3191 1.90916 33.5275C2.2326 34.7361 5.19203 32.2415 5.18598 35.68C5.17992 39.1187 1.55828 39.9109 2.51434 41.8435C3.47037 43.7761 7.74455 42.6176 9.41034 44.2198C11.0762 45.822 6.60892 47.6178 9.51436 50.1858C12.4198 52.7538 15.7206 51.76 18.8984 52.6061C21.6704 53.3442 23.6706 55.0761 27.1595 54.8167C27.382 54.8001 27.9269 54.3474 27.9831 54.1255L27.9834 54.1254L27.9836 54.1256Z" fill="#94C5FF"/>
<path d="M26.6729 41.1897C25.5316 42.6957 24.747 44.1026 24.3193 45.4103C23.8917 46.718 23.9895 48.5074 24.6129 50.7783L24.3364 50.4488C23.806 48.154 23.7542 46.4196 24.1811 45.2455C24.608 44.0715 25.4386 42.7195 26.6729 41.1897L26.6729 41.1897Z" fill="#8EB2DD"/>
<path d="M11.9946 48.453C13.676 47.5905 15.1977 47.0622 16.5598 46.8681C17.9219 46.674 19.722 47.035 21.96 47.9511L21.6836 47.6216C19.4059 46.7929 17.652 46.4867 16.4215 46.7033C15.1912 46.9199 13.7155 47.503 11.9946 48.453L11.9946 48.453Z" fill="#8EB2DD"/>
<path d="M21.3829 31.8735C19.8022 33.7481 18.7981 35.3393 18.3705 36.6469C17.9428 37.9546 17.7661 39.9744 17.8404 42.706L17.5639 42.3766C17.5825 39.621 17.8053 37.6562 18.2322 36.4822C18.6591 35.3081 19.7093 33.7718 21.3829 31.8734L21.3829 31.8735Z" fill="#8EB2DD"/>
<path d="M3.90476 41.4862C6.02544 40.255 7.76679 39.5424 9.1288 39.3484C10.4909 39.1543 12.5106 39.331 15.1879 39.8785L14.9115 39.549C12.1945 39.0889 10.2209 38.9671 8.99055 39.1836C7.7602 39.4002 6.06488 40.1676 3.90471 41.4861L3.90476 41.4862Z" fill="#8EB2DD"/>
<path d="M12.7309 28.077C12.0676 29.8859 11.7538 31.3305 11.7895 32.411C11.8252 33.4915 12.2374 35.0302 13.0264 37.0272L12.7337 36.8583C12.007 34.8188 11.6435 33.3082 11.6432 32.3266C11.6429 31.3449 12.0055 29.9285 12.7309 28.077L12.7309 28.077Z" fill="#8EB2DD"/>
<path d="M2.88124 33.0132C4.27905 32.5007 5.39535 32.2581 6.23028 32.2857C7.06516 32.3133 8.2542 32.6318 9.79725 33.2415L9.66669 33.0153C8.09077 32.4537 6.92344 32.1729 6.16497 32.1726C5.40646 32.1723 4.31188 32.4525 2.8812 33.0131L2.88124 33.0132Z" fill="#8EB2DD"/>
<path d="M2.5514 24.6568L32.6469 60.0176L32.1528 60.4322L2.5514 24.6568Z" fill="#8EB2DD"/>
<path d="M38.3619 46.9398C40.1897 41.7014 41.4529 32.11 40.6443 29.1176C39.8357 26.1253 36.8449 29.3528 34.4116 26.6863C31.9782 24.0197 35.9124 19.7371 34.3343 17.6797C32.7562 15.6222 28.7401 19.9864 26.5059 18.6309C24.2718 17.2753 25.6489 12.9701 23.5026 11.1067C21.3564 9.24342 20.2939 11.6717 17.8402 11.1075C15.715 10.6188 11.701 7.2732 10.2393 7.93537C8.77767 8.59777 11.408 11.4552 10.9622 14.2247C10.5164 16.9943 8.22482 17.2633 8.4927 18.7854C8.76062 20.3075 12.6711 17.5561 12.2933 21.7871C11.9157 26.018 7.37384 26.6028 8.34205 29.0841C9.31032 31.5654 14.6949 30.5997 16.5723 32.7507C18.4498 34.9016 12.7591 36.6305 16.0581 40.1038C19.3571 43.5769 23.5261 42.7091 27.3455 44.0925C30.6772 45.2991 32.9522 47.6457 37.2733 47.7024C37.5489 47.7059 38.2682 47.2075 38.3613 46.9405L38.3617 46.9402L38.3619 46.9398Z" fill="url(#paint2_linear)"/>
<path d="M38.1415 30.8799C36.5748 32.6103 35.4579 34.2572 34.7906 35.8206C34.1235 37.3838 34.0514 39.5963 34.5739 42.458L34.2692 42.0228C33.8635 39.1417 33.9866 37.0018 34.6382 35.6029C35.2901 34.2041 36.4577 32.6297 38.1415 30.8799L38.1415 30.8799Z" fill="#C5D8EF"/>
<path d="M19.2965 38.2375C21.4584 37.3572 23.388 36.8709 25.0853 36.7786C26.7824 36.6863 28.9587 37.3245 31.6142 38.6927L31.3095 38.2575C28.5958 36.9924 26.4704 36.4269 24.9329 36.5609C23.3954 36.6949 21.5167 37.2538 19.2965 38.2375L19.2965 38.2375Z" fill="#C5D8EF"/>
<path d="M32.6338 18.8456C30.4868 20.9823 29.0798 22.8324 28.4126 24.3957C27.7455 25.9589 27.3107 28.4254 27.1079 31.795L26.8032 31.3598C27.1228 27.9708 27.6086 25.5769 28.2602 24.178C28.9121 22.7792 30.3698 21.0017 32.6338 18.8456L32.6338 18.8456Z" fill="#C5D8EF"/>
<path d="M10.0893 28.7949C12.8315 27.5082 15.0512 26.8187 16.7484 26.7265C18.4456 26.6343 20.912 27.0692 24.1477 28.0312L23.843 27.596C20.5491 26.7372 18.1335 26.3749 16.5961 26.5088C15.0586 26.6429 12.8898 27.4048 10.0893 28.7949L10.0893 28.7949Z" fill="#C5D8EF"/>
<path d="M22.3965 13.2434C21.3855 15.398 20.8438 17.142 20.7714 18.4753C20.699 19.8087 21.0407 21.7467 21.7965 24.2891L21.4546 24.0497C20.7798 21.4616 20.4952 19.5636 20.6005 18.3557C20.7058 17.1477 21.3045 15.4436 22.3965 13.2434L22.3965 13.2434Z" fill="#C5D8EF"/>
<path d="M9.74379 18.2566C11.5191 17.7763 12.9189 17.5981 13.9434 17.7219C14.9679 17.8458 16.3967 18.3659 18.23 19.2821L18.0937 18.9898C16.2148 18.129 14.8086 17.6577 13.8752 17.5757C12.9418 17.4937 11.5647 17.7207 9.74376 18.2565L9.74379 18.2566L9.74379 18.2566Z" fill="#C5D8EF"/>
<path d="M10.2366 7.93735L43.4668 54.6942L42.814 55.1513L10.2366 7.93735Z" fill="#C5D8EF"/>
</g>
<path d="M90.2007 17.2394V27.6295H77.1735V17.2394C77.1672 13.6479 80.0738 10.7315 83.6647 10.7258H83.6974C87.2849 10.7258 90.1944 13.6313 90.2007 17.2188V17.2394Z" fill="#3484E0"/>
<path d="M77.1736 64.9658C77.1679 69.7966 73.2502 73.7097 68.4194 73.7097H68.393C68.1907 73.7097 67.9907 73.7022 67.7912 73.6879C63.2018 73.3669 59.644 69.5478 59.6492 64.9469V59.7873V59.2873H59.1492H30.8138V59.2112V59.2094L30.8169 58.7873M77.1736 64.9658V17.2394M77.1736 64.9658L76.6736 64.9652M77.1736 64.9658H76.6736V64.9652M77.1736 17.2394C77.1688 14.532 78.8194 12.2082 81.1706 11.2258H80.0673M77.1736 17.2394L76.6736 17.2403C76.6691 14.6885 78.0301 12.4532 80.0673 11.2258M77.1736 17.2394L76.6736 64.9652M80.0673 11.2258C80.3865 11.0335 80.7222 10.866 81.0719 10.7258L36.8275 10.7258C33.4159 10.7258 30.6234 13.4404 30.6234 16.852L30.3169 58.7873H30.8169M80.0673 11.2258H36.8275C33.6838 11.2258 31.1234 13.7247 31.1234 16.852V16.8556H31.1233L30.8169 58.7873M30.8169 58.7873H59.6492H60.1492V59.2873V64.9469V64.9475C60.1443 69.2855 63.4988 72.8865 67.8261 73.1891L67.827 73.1892C68.015 73.2027 68.203 73.2097 68.393 73.2097H68.4194C72.9743 73.2097 76.6682 69.5201 76.6736 64.9652" fill="white" stroke="#3484E0"/>
<path d="M64.2148 73.2097H28.7542C24.1994 73.2097 20.5056 69.5202 20.5 64.9655V59.7873H59.1491V64.9463V64.9469H59.6491L64.2148 73.2097Z" fill="#3484E0" stroke="#3484E0"/>
<path d="M91 11.5396V23.6144C91 26.7086 89.0152 30.4987 86.4842 32.2446L77.8294 38.2097L69.1747 32.2446C66.6436 30.4987 64.6613 26.7086 64.6613 23.6144V11.5206L77.8294 5L91 11.5396Z" fill="#35CB5D"/>
<path d="M76.2876 26.7581H76.2838C75.8647 26.7564 75.4632 26.5728 75.1687 26.247L71.9989 22.7422C71.5967 22.3061 71.4391 21.6671 71.5867 21.0677C71.7344 20.4691 72.1642 20.0036 72.7125 19.8478C73.2608 19.6921 73.843 19.8714 74.2375 20.3159L76.2938 22.589L81.4407 16.9567C82.0558 16.2832 83.0532 16.2832 83.6677 16.9567C84.2829 17.6303 84.2829 18.7214 83.6677 19.3949L77.4019 26.2529C77.1058 26.5762 76.7052 26.7581 76.2876 26.7581Z" fill="white"/>
<path d="M67.7194 45.7406H39.5464C38.8982 45.7406 38.3726 45.517 38.3726 45.2406C38.3726 44.9645 38.8982 44.7406 39.5464 44.7406H67.7194C68.3676 44.7406 68.8932 44.9645 68.8932 45.2406C68.8932 45.517 68.3676 45.7406 67.7194 45.7406Z" fill="#3792FC"/>
<path d="M67.7194 37.7245H39.5464C38.8982 37.7245 38.3726 37.5009 38.3726 37.2245C38.3726 36.9484 38.8982 36.7245 39.5464 36.7245H67.7194C68.3676 36.7245 68.8932 36.9484 68.8932 37.2245C68.8932 37.5009 68.3676 37.7245 67.7194 37.7245Z" fill="#3792FC"/>
<path d="M51.536 30.0484H38.8511C38.5592 30.0484 38.3226 29.8248 38.3226 29.5484C38.3226 29.2723 38.5592 29.0484 38.8511 29.0484H51.536C51.8279 29.0484 52.0645 29.2723 52.0645 29.5484C52.0645 29.8248 51.8279 30.0484 51.536 30.0484Z" fill="#3792FC"/>
<path d="M51.536 23.1774H38.8511C38.5592 23.1774 38.3226 22.9538 38.3226 22.6774C38.3226 22.4013 38.5592 22.1774 38.8511 22.1774H51.536C51.8279 22.1774 52.0645 22.4013 52.0645 22.6774C52.0645 22.9538 51.8279 23.1774 51.536 23.1774Z" fill="#3792FC"/>
<path d="M67.7194 52.315H39.5464C38.8982 52.315 38.3726 52.0914 38.3726 51.815C38.3726 51.5389 38.8982 51.315 39.5464 51.315H67.7194C68.3676 51.315 68.8932 51.5389 68.8932 51.815C68.8932 52.0914 68.3676 52.315 67.7194 52.315Z" fill="#3792FC"/>
<defs>
<linearGradient id="paint0_linear" x1="107.519" y1="29.1613" x2="77.4284" y2="46.5339" gradientUnits="userSpaceOnUse">
<stop stop-color="#EBF5FF"/>
<stop offset="1" stop-color="#94C5FF"/>
</linearGradient>
<linearGradient id="paint1_linear" x1="70.5695" y1="-8.80897" x2="36.4961" y2="50.208" gradientUnits="userSpaceOnUse">
<stop stop-color="#EBF5FF"/>
<stop offset="1" stop-color="#94C5FF"/>
</linearGradient>
<linearGradient id="paint2_linear" x1="-1.03027" y1="15.8067" x2="26.6274" y2="55.306" gradientUnits="userSpaceOnUse">
<stop stop-color="#DEF0FF"/>
<stop offset="1" stop-color="#BCDBFF"/>
</linearGradient>
</defs>
</svg>
