<svg width="218" height="163" viewBox="0 0 218 163" fill="none" xmlns="http://www.w3.org/2000/svg">
<rect width="218" height="163" rx="4" fill="#B8DAFF"/>
<path opacity="0.650507" d="M113.333 21.9701C124.656 15.9674 125 0 125 0L0 0C0 0 0 55.6119 0 61.791C3.33332 67.6269 11.25 69 23.3332 69C35.4165 69 52.0831 67.2836 60.4164 51.4925C68.7497 35.7015 65.8843 31.6508 77.083 25.403C88.2818 19.1552 102.01 27.9729 113.333 21.9701Z" fill="#D2E6FD"/>
<path opacity="0.58152" d="M212.647 91.7447C216.786 96.2282 217.3 100.285 217.782 104.834C218.159 108.394 217.884 148.986 217.803 159.908C217.791 161.412 216.584 162.6 215.08 162.6C207.116 162.6 184.17 162.6 182.254 162.6C184.977 156.157 158.774 133.108 158.048 116.145C157.322 99.1806 164.843 88.6936 178.857 83.2034C192.871 77.7132 204.762 83.2034 212.647 91.7447Z" fill="#D2E6FD"/>
<path d="M26.3939 120.13C25.2673 120.13 24.3963 119.835 23.7809 119.246C23.1656 118.648 22.8406 117.751 22.8059 116.555C22.7973 116.295 22.7929 115.927 22.7929 115.45C22.7929 114.973 22.7973 114.609 22.8059 114.358C22.8406 113.179 23.1743 112.287 23.8069 111.68C24.4483 111.073 25.3106 110.77 26.3939 110.77C27.4773 110.77 28.3353 111.073 28.9679 111.68C29.6006 112.287 29.9343 113.179 29.9689 114.358C29.9863 114.861 29.9949 115.225 29.9949 115.45C29.9949 115.667 29.9863 116.035 29.9689 116.555C29.9343 117.751 29.6093 118.648 28.9939 119.246C28.3873 119.835 27.5206 120.13 26.3939 120.13ZM26.3939 119.051C27.0873 119.051 27.6419 118.843 28.0579 118.427C28.4739 118.002 28.6993 117.357 28.7339 116.49C28.7513 115.97 28.7599 115.623 28.7599 115.45C28.7599 115.259 28.7513 114.913 28.7339 114.41C28.6993 113.543 28.4739 112.898 28.0579 112.473C27.6419 112.048 27.0873 111.836 26.3939 111.836C25.7006 111.836 25.1416 112.048 24.7169 112.473C24.3009 112.898 24.0799 113.543 24.0539 114.41C24.0453 114.661 24.0409 115.008 24.0409 115.45C24.0409 115.883 24.0453 116.23 24.0539 116.49C24.0799 117.357 24.3009 118.002 24.7169 118.427C25.1329 118.843 25.6919 119.051 26.3939 119.051Z" fill="#767E86"/>
<path d="M34.2694 120.13C33.4461 120.13 32.8091 119.866 32.3584 119.337C31.9077 118.8 31.6824 118.089 31.6824 117.205V113.539C31.6824 113.452 31.7084 113.383 31.7604 113.331C31.8211 113.27 31.8947 113.24 31.9814 113.24H32.5794C32.6661 113.24 32.7354 113.27 32.7874 113.331C32.8481 113.383 32.8784 113.452 32.8784 113.539V117.14C32.8784 118.457 33.4504 119.116 34.5944 119.116C35.1491 119.116 35.5867 118.943 35.9074 118.596C36.2367 118.241 36.4014 117.755 36.4014 117.14V113.539C36.4014 113.452 36.4274 113.383 36.4794 113.331C36.5401 113.27 36.6137 113.24 36.7004 113.24H37.2984C37.3851 113.24 37.4544 113.27 37.5064 113.331C37.5671 113.383 37.5974 113.452 37.5974 113.539V119.701C37.5974 119.788 37.5671 119.861 37.5064 119.922C37.4544 119.974 37.3851 120 37.2984 120H36.7394C36.6527 120 36.5791 119.974 36.5184 119.922C36.4664 119.861 36.4404 119.788 36.4404 119.701V119.116C36.1891 119.454 35.8944 119.71 35.5564 119.883C35.2184 120.048 34.7894 120.13 34.2694 120.13Z" fill="#767E86"/>
<path d="M39.8413 120C39.7547 120 39.681 119.974 39.6203 119.922C39.5683 119.861 39.5423 119.788 39.5423 119.701V113.552C39.5423 113.465 39.5683 113.392 39.6203 113.331C39.681 113.27 39.7547 113.24 39.8413 113.24H40.3873C40.4827 113.24 40.5563 113.27 40.6083 113.331C40.669 113.383 40.6993 113.457 40.6993 113.552V114.124C41.0547 113.535 41.657 113.24 42.5063 113.24H43.0133C43.1087 113.24 43.1823 113.266 43.2343 113.318C43.2863 113.37 43.3123 113.444 43.3123 113.539V114.02C43.3123 114.107 43.2863 114.18 43.2343 114.241C43.1823 114.293 43.1087 114.319 43.0133 114.319H42.2723C41.7957 114.319 41.4187 114.458 41.1413 114.735C40.8727 115.012 40.7383 115.389 40.7383 115.866V119.701C40.7383 119.788 40.708 119.861 40.6473 119.922C40.5867 119.974 40.513 120 40.4263 120H39.8413Z" fill="#767E86"/>
<path d="M50.0026 120.13C49.1186 120.13 48.4122 119.857 47.8836 119.311C47.3549 118.756 47.0646 118.002 47.0126 117.049L46.9996 116.607L47.0126 116.178C47.0646 115.242 47.3549 114.497 47.8836 113.942C48.4122 113.387 49.1186 113.11 50.0026 113.11C50.9559 113.11 51.6926 113.413 52.2126 114.02C52.7412 114.627 53.0056 115.45 53.0056 116.49V116.724C53.0056 116.811 52.9752 116.884 52.9146 116.945C52.8626 116.997 52.7932 117.023 52.7066 117.023H48.1956V117.14C48.2216 117.703 48.3949 118.184 48.7156 118.583C49.0362 118.982 49.4609 119.181 49.9896 119.181C50.3969 119.181 50.7262 119.103 50.9776 118.947C51.2376 118.782 51.4326 118.613 51.5626 118.44C51.6406 118.336 51.7012 118.275 51.7446 118.258C51.7879 118.232 51.8616 118.219 51.9656 118.219H52.5376C52.6156 118.219 52.6806 118.241 52.7326 118.284C52.7932 118.327 52.8236 118.384 52.8236 118.453C52.8236 118.644 52.7066 118.873 52.4726 119.142C52.2386 119.411 51.9049 119.645 51.4716 119.844C51.0469 120.035 50.5572 120.13 50.0026 120.13ZM51.8226 116.139V116.1C51.8226 115.493 51.6579 114.999 51.3286 114.618C50.9992 114.237 50.5572 114.046 50.0026 114.046C49.4392 114.046 48.9972 114.237 48.6766 114.618C48.3559 114.999 48.1956 115.493 48.1956 116.1V116.139H51.8226Z" fill="#767E86"/>
<path d="M54.1346 120C54.0566 120 53.9916 119.974 53.9396 119.922C53.8876 119.87 53.8616 119.805 53.8616 119.727C53.8616 119.649 53.892 119.567 53.9526 119.48L56.2146 116.542L54.0956 113.747C54.0263 113.652 53.9916 113.574 53.9916 113.513C53.9916 113.435 54.0176 113.37 54.0696 113.318C54.1303 113.266 54.1953 113.24 54.2646 113.24H54.8886C55.0186 113.24 55.1313 113.309 55.2266 113.448L56.9816 115.723L58.7366 113.448C58.7886 113.379 58.8363 113.327 58.8796 113.292C58.9316 113.257 58.9966 113.24 59.0746 113.24H59.6726C59.742 113.24 59.8026 113.266 59.8546 113.318C59.9066 113.37 59.9326 113.431 59.9326 113.5C59.9326 113.587 59.9023 113.669 59.8416 113.747L57.6966 116.568L59.9586 119.48C60.0193 119.567 60.0496 119.649 60.0496 119.727C60.0496 119.805 60.0236 119.87 59.9716 119.922C59.9196 119.974 59.8546 120 59.7766 120H59.1396C59.0096 120 58.897 119.935 58.8016 119.805L56.9426 117.4L55.0836 119.805C55.0316 119.866 54.9796 119.913 54.9276 119.948C54.8843 119.983 54.8236 120 54.7456 120H54.1346Z" fill="#767E86"/>
<path d="M61.741 122.47C61.6544 122.47 61.5807 122.444 61.5201 122.392C61.4681 122.34 61.442 122.266 61.442 122.171V113.539C61.442 113.444 61.4681 113.37 61.5201 113.318C61.5807 113.266 61.6544 113.24 61.741 113.24H62.287C62.3824 113.24 62.4561 113.266 62.508 113.318C62.56 113.37 62.586 113.444 62.586 113.539V114.111C63.0887 113.444 63.8037 113.11 64.731 113.11C65.641 113.11 66.3214 113.4 66.772 113.981C67.2314 114.553 67.474 115.285 67.5 116.178C67.5087 116.273 67.5131 116.421 67.5131 116.62C67.5131 116.819 67.5087 116.967 67.5 117.062C67.474 117.946 67.2314 118.678 66.772 119.259C66.3214 119.84 65.641 120.13 64.731 120.13C63.8037 120.13 63.1017 119.801 62.625 119.142V122.171C62.625 122.258 62.5947 122.327 62.534 122.379C62.4821 122.44 62.4127 122.47 62.326 122.47H61.741ZM64.484 119.116C65.108 119.116 65.563 118.921 65.849 118.531C66.135 118.141 66.291 117.63 66.317 116.997C66.3257 116.91 66.33 116.785 66.33 116.62C66.33 114.956 65.7147 114.124 64.484 114.124C63.8774 114.124 63.418 114.328 63.106 114.735C62.8027 115.134 62.6424 115.606 62.625 116.152C62.6164 116.247 62.612 116.416 62.612 116.659C62.612 116.902 62.6164 117.071 62.625 117.166C62.6424 117.695 62.807 118.154 63.119 118.544C63.4397 118.925 63.8947 119.116 64.484 119.116Z" fill="#767E86"/>
<path d="M71.8258 120.13C70.9418 120.13 70.2355 119.857 69.7068 119.311C69.1781 118.756 68.8878 118.002 68.8358 117.049L68.8228 116.607L68.8358 116.178C68.8878 115.242 69.1781 114.497 69.7068 113.942C70.2355 113.387 70.9418 113.11 71.8258 113.11C72.7791 113.11 73.5158 113.413 74.0358 114.02C74.5645 114.627 74.8288 115.45 74.8288 116.49V116.724C74.8288 116.811 74.7985 116.884 74.7378 116.945C74.6858 116.997 74.6165 117.023 74.5298 117.023H70.0188V117.14C70.0448 117.703 70.2181 118.184 70.5388 118.583C70.8595 118.982 71.2841 119.181 71.8128 119.181C72.2201 119.181 72.5495 119.103 72.8008 118.947C73.0608 118.782 73.2558 118.613 73.3858 118.44C73.4638 118.336 73.5245 118.275 73.5678 118.258C73.6111 118.232 73.6848 118.219 73.7888 118.219H74.3608C74.4388 118.219 74.5038 118.241 74.5558 118.284C74.6165 118.327 74.6468 118.384 74.6468 118.453C74.6468 118.644 74.5298 118.873 74.2958 119.142C74.0618 119.411 73.7281 119.645 73.2948 119.844C72.8701 120.035 72.3805 120.13 71.8258 120.13ZM73.6458 116.139V116.1C73.6458 115.493 73.4811 114.999 73.1518 114.618C72.8225 114.237 72.3805 114.046 71.8258 114.046C71.2625 114.046 70.8205 114.237 70.4998 114.618C70.1791 114.999 70.0188 115.493 70.0188 116.1V116.139H73.6458Z" fill="#767E86"/>
<path d="M76.7085 120C76.6218 120 76.5482 119.974 76.4875 119.922C76.4355 119.861 76.4095 119.788 76.4095 119.701V113.552C76.4095 113.465 76.4355 113.392 76.4875 113.331C76.5482 113.27 76.6218 113.24 76.7085 113.24H77.2545C77.3498 113.24 77.4235 113.27 77.4755 113.331C77.5362 113.383 77.5665 113.457 77.5665 113.552V114.124C77.9219 113.535 78.5242 113.24 79.3735 113.24H79.8805C79.9758 113.24 80.0495 113.266 80.1015 113.318C80.1535 113.37 80.1795 113.444 80.1795 113.539V114.02C80.1795 114.107 80.1535 114.18 80.1015 114.241C80.0495 114.293 79.9758 114.319 79.8805 114.319H79.1395C78.6629 114.319 78.2859 114.458 78.0085 114.735C77.7399 115.012 77.6055 115.389 77.6055 115.866V119.701C77.6055 119.788 77.5752 119.861 77.5145 119.922C77.4539 119.974 77.3802 120 77.2935 120H76.7085Z" fill="#767E86"/>
<path d="M83.8972 120C82.5539 120 81.8822 119.242 81.8822 117.725V114.241H80.8552C80.7685 114.241 80.6992 114.215 80.6472 114.163C80.5952 114.111 80.5692 114.042 80.5692 113.955V113.539C80.5692 113.452 80.5952 113.383 80.6472 113.331C80.6992 113.27 80.7685 113.24 80.8552 113.24H81.8822V111.069C81.8822 110.982 81.9082 110.913 81.9602 110.861C82.0122 110.8 82.0815 110.77 82.1682 110.77H82.7402C82.8269 110.77 82.8962 110.8 82.9482 110.861C83.0089 110.913 83.0392 110.982 83.0392 111.069V113.24H84.6512C84.7379 113.24 84.8072 113.27 84.8592 113.331C84.9199 113.383 84.9502 113.452 84.9502 113.539V113.955C84.9502 114.042 84.9199 114.111 84.8592 114.163C84.8072 114.215 84.7379 114.241 84.6512 114.241H83.0392V117.634C83.0392 118.076 83.1085 118.41 83.2472 118.635C83.3945 118.86 83.6415 118.973 83.9882 118.973H84.7812C84.8679 118.973 84.9372 119.003 84.9892 119.064C85.0412 119.116 85.0672 119.185 85.0672 119.272V119.701C85.0672 119.788 85.0412 119.861 84.9892 119.922C84.9372 119.974 84.8679 120 84.7812 120H83.8972Z" fill="#767E86"/>
<path d="M88.6513 120.13C88.0533 120.13 87.5462 120.035 87.1302 119.844C86.7229 119.645 86.4196 119.419 86.2203 119.168C86.0209 118.917 85.9213 118.709 85.9213 118.544C85.9213 118.457 85.9516 118.392 86.0123 118.349C86.0729 118.297 86.1379 118.271 86.2073 118.271H86.7533C86.8053 118.271 86.8443 118.28 86.8703 118.297C86.9049 118.314 86.9482 118.353 87.0003 118.414C87.1996 118.657 87.4206 118.847 87.6633 118.986C87.9146 119.125 88.2483 119.194 88.6643 119.194C89.1323 119.194 89.5049 119.107 89.7822 118.934C90.0683 118.761 90.2113 118.509 90.2113 118.18C90.2113 117.963 90.1506 117.79 90.0293 117.66C89.9079 117.53 89.7043 117.413 89.4183 117.309C89.1409 117.205 88.7249 117.092 88.1702 116.971C87.4163 116.806 86.8832 116.568 86.5713 116.256C86.2593 115.944 86.1032 115.541 86.1032 115.047C86.1032 114.726 86.1986 114.419 86.3893 114.124C86.5799 113.821 86.8616 113.578 87.2343 113.396C87.6156 113.205 88.0663 113.11 88.5863 113.11C89.1322 113.11 89.5959 113.201 89.9772 113.383C90.3672 113.565 90.6576 113.777 90.8483 114.02C91.0476 114.263 91.1473 114.466 91.1473 114.631C91.1473 114.709 91.1169 114.774 91.0563 114.826C91.0042 114.878 90.9393 114.904 90.8613 114.904H90.3672C90.2459 114.904 90.1593 114.856 90.1073 114.761C89.9599 114.596 89.8343 114.471 89.7303 114.384C89.6349 114.289 89.4919 114.211 89.3013 114.15C89.1106 114.081 88.8723 114.046 88.5863 114.046C88.1616 114.046 87.8366 114.137 87.6113 114.319C87.3859 114.492 87.2733 114.726 87.2733 115.021C87.2733 115.203 87.3209 115.359 87.4163 115.489C87.5116 115.61 87.6936 115.727 87.9622 115.84C88.2309 115.944 88.6296 116.052 89.1582 116.165C89.9816 116.338 90.5623 116.585 90.9003 116.906C91.2469 117.227 91.4202 117.638 91.4202 118.141C91.4202 118.514 91.3119 118.852 91.0953 119.155C90.8873 119.458 90.5709 119.697 90.1462 119.87C89.7302 120.043 89.2319 120.13 88.6513 120.13Z" fill="#767E86"/>
<path d="M98.01 120.13C97.5854 120.13 97.191 120.043 96.827 119.87C96.4717 119.697 96.1857 119.463 95.969 119.168C95.761 118.865 95.657 118.531 95.657 118.167C95.657 117.595 95.891 117.127 96.359 116.763C96.827 116.399 97.464 116.156 98.27 116.035L100.22 115.762V115.385C100.22 114.492 99.7044 114.046 98.673 114.046C98.2744 114.046 97.9537 114.128 97.711 114.293C97.4684 114.449 97.2907 114.635 97.178 114.852C97.1434 114.939 97.1044 114.999 97.061 115.034C97.0264 115.06 96.9744 115.073 96.905 115.073H96.398C96.32 115.073 96.2507 115.047 96.19 114.995C96.138 114.934 96.112 114.865 96.112 114.787C96.112 114.588 96.203 114.358 96.385 114.098C96.5757 113.829 96.866 113.6 97.256 113.409C97.646 113.21 98.1227 113.11 98.686 113.11C99.6567 113.11 100.35 113.335 100.766 113.786C101.191 114.237 101.403 114.8 101.403 115.476V119.701C101.403 119.788 101.373 119.861 101.312 119.922C101.26 119.974 101.191 120 101.104 120H100.532C100.445 120 100.376 119.974 100.324 119.922C100.272 119.861 100.246 119.788 100.246 119.701V119.129C100.055 119.415 99.778 119.653 99.414 119.844C99.05 120.035 98.582 120.13 98.01 120.13ZM98.27 119.181C98.842 119.181 99.31 118.995 99.674 118.622C100.038 118.249 100.22 117.708 100.22 116.997V116.633L98.699 116.854C98.075 116.941 97.6027 117.088 97.282 117.296C96.9614 117.504 96.801 117.764 96.801 118.076C96.801 118.431 96.944 118.704 97.23 118.895C97.5247 119.086 97.8714 119.181 98.27 119.181Z" fill="#767E86"/>
<path d="M103.584 120C103.498 120 103.424 119.974 103.363 119.922C103.311 119.861 103.285 119.788 103.285 119.701V113.552C103.285 113.465 103.311 113.392 103.363 113.331C103.424 113.27 103.498 113.24 103.584 113.24H104.13C104.226 113.24 104.299 113.27 104.351 113.331C104.412 113.383 104.442 113.457 104.442 113.552V114.124C104.798 113.535 105.4 113.24 106.249 113.24H106.756C106.852 113.24 106.925 113.266 106.977 113.318C107.029 113.37 107.055 113.444 107.055 113.539V114.02C107.055 114.107 107.029 114.18 106.977 114.241C106.925 114.293 106.852 114.319 106.756 114.319H106.015C105.539 114.319 105.162 114.458 104.884 114.735C104.616 115.012 104.481 115.389 104.481 115.866V119.701C104.481 119.788 104.451 119.861 104.39 119.922C104.33 119.974 104.256 120 104.169 120H103.584Z" fill="#767E86"/>
<path d="M110.724 120.13C109.84 120.13 109.134 119.857 108.605 119.311C108.077 118.756 107.786 118.002 107.734 117.049L107.721 116.607L107.734 116.178C107.786 115.242 108.077 114.497 108.605 113.942C109.134 113.387 109.84 113.11 110.724 113.11C111.678 113.11 112.414 113.413 112.934 114.02C113.463 114.627 113.727 115.45 113.727 116.49V116.724C113.727 116.811 113.697 116.884 113.636 116.945C113.584 116.997 113.515 117.023 113.428 117.023H108.917V117.14C108.943 117.703 109.117 118.184 109.437 118.583C109.758 118.982 110.183 119.181 110.711 119.181C111.119 119.181 111.448 119.103 111.699 118.947C111.959 118.782 112.154 118.613 112.284 118.44C112.362 118.336 112.423 118.275 112.466 118.258C112.51 118.232 112.583 118.219 112.687 118.219H113.259C113.337 118.219 113.402 118.241 113.454 118.284C113.515 118.327 113.545 118.384 113.545 118.453C113.545 118.644 113.428 118.873 113.194 119.142C112.96 119.411 112.627 119.645 112.193 119.844C111.769 120.035 111.279 120.13 110.724 120.13ZM112.544 116.139V116.1C112.544 115.493 112.38 114.999 112.05 114.618C111.721 114.237 111.279 114.046 110.724 114.046C110.161 114.046 109.719 114.237 109.398 114.618C109.078 114.999 108.917 115.493 108.917 116.1V116.139H112.544Z" fill="#767E86"/>
<path d="M120.379 120.13C119.955 120.13 119.56 120.043 119.196 119.87C118.841 119.697 118.555 119.463 118.338 119.168C118.13 118.865 118.026 118.531 118.026 118.167C118.026 117.595 118.26 117.127 118.728 116.763C119.196 116.399 119.833 116.156 120.639 116.035L122.589 115.762V115.385C122.589 114.492 122.074 114.046 121.042 114.046C120.644 114.046 120.323 114.128 120.08 114.293C119.838 114.449 119.66 114.635 119.547 114.852C119.513 114.939 119.474 114.999 119.43 115.034C119.396 115.06 119.344 115.073 119.274 115.073H118.767C118.689 115.073 118.62 115.047 118.559 114.995C118.507 114.934 118.481 114.865 118.481 114.787C118.481 114.588 118.572 114.358 118.754 114.098C118.945 113.829 119.235 113.6 119.625 113.409C120.015 113.21 120.492 113.11 121.055 113.11C122.026 113.11 122.719 113.335 123.135 113.786C123.56 114.237 123.772 114.8 123.772 115.476V119.701C123.772 119.788 123.742 119.861 123.681 119.922C123.629 119.974 123.56 120 123.473 120H122.901C122.815 120 122.745 119.974 122.693 119.922C122.641 119.861 122.615 119.788 122.615 119.701V119.129C122.425 119.415 122.147 119.653 121.783 119.844C121.419 120.035 120.951 120.13 120.379 120.13ZM120.639 119.181C121.211 119.181 121.679 118.995 122.043 118.622C122.407 118.249 122.589 117.708 122.589 116.997V116.633L121.068 116.854C120.444 116.941 119.972 117.088 119.651 117.296C119.331 117.504 119.17 117.764 119.17 118.076C119.17 118.431 119.313 118.704 119.599 118.895C119.894 119.086 120.241 119.181 120.639 119.181Z" fill="#767E86"/>
<path d="M125.967 120C125.88 120 125.806 119.974 125.746 119.922C125.694 119.861 125.668 119.788 125.668 119.701V111.069C125.668 110.974 125.694 110.9 125.746 110.848C125.806 110.796 125.88 110.77 125.967 110.77H126.539C126.625 110.77 126.695 110.8 126.747 110.861C126.807 110.913 126.838 110.982 126.838 111.069V119.701C126.838 119.788 126.807 119.861 126.747 119.922C126.695 119.974 126.625 120 126.539 120H125.967Z" fill="#767E86"/>
<path d="M130.584 120C130.463 120 130.372 119.974 130.311 119.922C130.251 119.87 130.203 119.788 130.168 119.675L128.322 113.643L128.296 113.513C128.296 113.435 128.322 113.37 128.374 113.318C128.426 113.266 128.491 113.24 128.569 113.24H129.102C129.189 113.24 129.258 113.266 129.31 113.318C129.371 113.361 129.406 113.405 129.414 113.448L130.883 118.414L132.443 113.513C132.461 113.444 132.5 113.383 132.56 113.331C132.621 113.27 132.703 113.24 132.807 113.24H133.223C133.327 113.24 133.41 113.27 133.47 113.331C133.531 113.383 133.57 113.444 133.587 113.513L135.147 118.414L136.616 113.448C136.625 113.405 136.655 113.361 136.707 113.318C136.768 113.266 136.842 113.24 136.928 113.24H137.461C137.539 113.24 137.604 113.266 137.656 113.318C137.708 113.37 137.734 113.435 137.734 113.513L137.708 113.643L135.862 119.675C135.828 119.788 135.78 119.87 135.719 119.922C135.659 119.974 135.568 120 135.446 120H134.978C134.753 120 134.606 119.892 134.536 119.675L133.015 114.969L131.494 119.675C131.425 119.892 131.278 120 131.052 120H130.584Z" fill="#767E86"/>
<path d="M140.869 120.13C140.445 120.13 140.05 120.043 139.686 119.87C139.331 119.697 139.045 119.463 138.828 119.168C138.62 118.865 138.516 118.531 138.516 118.167C138.516 117.595 138.75 117.127 139.218 116.763C139.686 116.399 140.323 116.156 141.129 116.035L143.079 115.762V115.385C143.079 114.492 142.564 114.046 141.532 114.046C141.134 114.046 140.813 114.128 140.57 114.293C140.328 114.449 140.15 114.635 140.037 114.852C140.003 114.939 139.964 114.999 139.92 115.034C139.886 115.06 139.834 115.073 139.764 115.073H139.257C139.179 115.073 139.11 115.047 139.049 114.995C138.997 114.934 138.971 114.865 138.971 114.787C138.971 114.588 139.062 114.358 139.244 114.098C139.435 113.829 139.725 113.6 140.115 113.409C140.505 113.21 140.982 113.11 141.545 113.11C142.516 113.11 143.209 113.335 143.625 113.786C144.05 114.237 144.262 114.8 144.262 115.476V119.701C144.262 119.788 144.232 119.861 144.171 119.922C144.119 119.974 144.05 120 143.963 120H143.391C143.305 120 143.235 119.974 143.183 119.922C143.131 119.861 143.105 119.788 143.105 119.701V119.129C142.915 119.415 142.637 119.653 142.273 119.844C141.909 120.035 141.441 120.13 140.869 120.13ZM141.129 119.181C141.701 119.181 142.169 118.995 142.533 118.622C142.897 118.249 143.079 117.708 143.079 116.997V116.633L141.558 116.854C140.934 116.941 140.462 117.088 140.141 117.296C139.821 117.504 139.66 117.764 139.66 118.076C139.66 118.431 139.803 118.704 140.089 118.895C140.384 119.086 140.731 119.181 141.129 119.181Z" fill="#767E86"/>
<path d="M147.188 122.47C147.11 122.47 147.045 122.444 146.993 122.392C146.941 122.34 146.915 122.279 146.915 122.21C146.915 122.184 146.937 122.106 146.98 121.976L147.994 119.597L145.511 113.734C145.459 113.63 145.433 113.556 145.433 113.513C145.442 113.435 145.472 113.37 145.524 113.318C145.576 113.266 145.637 113.24 145.706 113.24H146.304C146.443 113.24 146.547 113.309 146.616 113.448L148.618 118.232L150.672 113.448C150.742 113.309 150.846 113.24 150.984 113.24H151.569C151.639 113.24 151.699 113.266 151.751 113.318C151.803 113.37 151.829 113.431 151.829 113.5C151.829 113.561 151.808 113.639 151.764 113.734L148.085 122.262C148.042 122.331 147.994 122.383 147.942 122.418C147.899 122.453 147.838 122.47 147.76 122.47H147.188Z" fill="#767E86"/>
<path d="M155.251 120.13C154.653 120.13 154.146 120.035 153.73 119.844C153.323 119.645 153.019 119.419 152.82 119.168C152.621 118.917 152.521 118.709 152.521 118.544C152.521 118.457 152.551 118.392 152.612 118.349C152.673 118.297 152.738 118.271 152.807 118.271H153.353C153.405 118.271 153.444 118.28 153.47 118.297C153.505 118.314 153.548 118.353 153.6 118.414C153.799 118.657 154.02 118.847 154.263 118.986C154.514 119.125 154.848 119.194 155.264 119.194C155.732 119.194 156.105 119.107 156.382 118.934C156.668 118.761 156.811 118.509 156.811 118.18C156.811 117.963 156.75 117.79 156.629 117.66C156.508 117.53 156.304 117.413 156.018 117.309C155.741 117.205 155.325 117.092 154.77 116.971C154.016 116.806 153.483 116.568 153.171 116.256C152.859 115.944 152.703 115.541 152.703 115.047C152.703 114.726 152.798 114.419 152.989 114.124C153.18 113.821 153.461 113.578 153.834 113.396C154.215 113.205 154.666 113.11 155.186 113.11C155.732 113.11 156.196 113.201 156.577 113.383C156.967 113.565 157.257 113.777 157.448 114.02C157.647 114.263 157.747 114.466 157.747 114.631C157.747 114.709 157.717 114.774 157.656 114.826C157.604 114.878 157.539 114.904 157.461 114.904H156.967C156.846 114.904 156.759 114.856 156.707 114.761C156.56 114.596 156.434 114.471 156.33 114.384C156.235 114.289 156.092 114.211 155.901 114.15C155.71 114.081 155.472 114.046 155.186 114.046C154.761 114.046 154.436 114.137 154.211 114.319C153.986 114.492 153.873 114.726 153.873 115.021C153.873 115.203 153.921 115.359 154.016 115.489C154.111 115.61 154.293 115.727 154.562 115.84C154.831 115.944 155.229 116.052 155.758 116.165C156.581 116.338 157.162 116.585 157.5 116.906C157.847 117.227 158.02 117.638 158.02 118.141C158.02 118.514 157.912 118.852 157.695 119.155C157.487 119.458 157.171 119.697 156.746 119.87C156.33 120.043 155.832 120.13 155.251 120.13Z" fill="#767E86"/>
<path d="M163.05 120C162.963 120 162.889 119.974 162.829 119.922C162.777 119.861 162.751 119.788 162.751 119.701V111.069C162.751 110.974 162.777 110.9 162.829 110.848C162.889 110.796 162.963 110.77 163.05 110.77H163.648C163.743 110.77 163.817 110.796 163.869 110.848C163.921 110.9 163.947 110.974 163.947 111.069V114.098C164.198 113.777 164.493 113.535 164.831 113.37C165.177 113.197 165.602 113.11 166.105 113.11C166.937 113.11 167.582 113.379 168.042 113.916C168.51 114.445 168.744 115.147 168.744 116.022V119.701C168.744 119.788 168.713 119.861 168.653 119.922C168.601 119.974 168.531 120 168.445 120H167.834C167.747 120 167.673 119.974 167.613 119.922C167.561 119.861 167.535 119.788 167.535 119.701V116.1C167.535 115.476 167.383 114.991 167.08 114.644C166.776 114.297 166.339 114.124 165.767 114.124C165.212 114.124 164.77 114.302 164.441 114.657C164.111 115.004 163.947 115.485 163.947 116.1V119.701C163.947 119.788 163.916 119.861 163.856 119.922C163.804 119.974 163.734 120 163.648 120H163.05Z" fill="#767E86"/>
<path d="M173.312 120.13C172.428 120.13 171.722 119.857 171.193 119.311C170.664 118.756 170.374 118.002 170.322 117.049L170.309 116.607L170.322 116.178C170.374 115.242 170.664 114.497 171.193 113.942C171.722 113.387 172.428 113.11 173.312 113.11C174.265 113.11 175.002 113.413 175.522 114.02C176.051 114.627 176.315 115.45 176.315 116.49V116.724C176.315 116.811 176.285 116.884 176.224 116.945C176.172 116.997 176.103 117.023 176.016 117.023H171.505V117.14C171.531 117.703 171.704 118.184 172.025 118.583C172.346 118.982 172.77 119.181 173.299 119.181C173.706 119.181 174.036 119.103 174.287 118.947C174.547 118.782 174.742 118.613 174.872 118.44C174.95 118.336 175.011 118.275 175.054 118.258C175.097 118.232 175.171 118.219 175.275 118.219H175.847C175.925 118.219 175.99 118.241 176.042 118.284C176.103 118.327 176.133 118.384 176.133 118.453C176.133 118.644 176.016 118.873 175.782 119.142C175.548 119.411 175.214 119.645 174.781 119.844C174.356 120.035 173.867 120.13 173.312 120.13ZM175.132 116.139V116.1C175.132 115.493 174.967 114.999 174.638 114.618C174.309 114.237 173.867 114.046 173.312 114.046C172.749 114.046 172.307 114.237 171.986 114.618C171.665 114.999 171.505 115.493 171.505 116.1V116.139H175.132Z" fill="#767E86"/>
<path d="M178.195 120C178.108 120 178.035 119.974 177.974 119.922C177.922 119.861 177.896 119.788 177.896 119.701V113.552C177.896 113.465 177.922 113.392 177.974 113.331C178.035 113.27 178.108 113.24 178.195 113.24H178.741C178.836 113.24 178.91 113.27 178.962 113.331C179.023 113.383 179.053 113.457 179.053 113.552V114.124C179.408 113.535 180.011 113.24 180.86 113.24H181.367C181.462 113.24 181.536 113.266 181.588 113.318C181.64 113.37 181.666 113.444 181.666 113.539V114.02C181.666 114.107 181.64 114.18 181.588 114.241C181.536 114.293 181.462 114.319 181.367 114.319H180.626C180.149 114.319 179.772 114.458 179.495 114.735C179.226 115.012 179.092 115.389 179.092 115.866V119.701C179.092 119.788 179.062 119.861 179.001 119.922C178.94 119.974 178.867 120 178.78 120H178.195Z" fill="#767E86"/>
<path d="M185.335 120.13C184.451 120.13 183.744 119.857 183.216 119.311C182.687 118.756 182.397 118.002 182.345 117.049L182.332 116.607L182.345 116.178C182.397 115.242 182.687 114.497 183.216 113.942C183.744 113.387 184.451 113.11 185.335 113.11C186.288 113.11 187.025 113.413 187.545 114.02C188.073 114.627 188.338 115.45 188.338 116.49V116.724C188.338 116.811 188.307 116.884 188.247 116.945C188.195 116.997 188.125 117.023 188.039 117.023H183.528V117.14C183.554 117.703 183.727 118.184 184.048 118.583C184.368 118.982 184.793 119.181 185.322 119.181C185.729 119.181 186.058 119.103 186.31 118.947C186.57 118.782 186.765 118.613 186.895 118.44C186.973 118.336 187.033 118.275 187.077 118.258C187.12 118.232 187.194 118.219 187.298 118.219H187.87C187.948 118.219 188.013 118.241 188.065 118.284C188.125 118.327 188.156 118.384 188.156 118.453C188.156 118.644 188.039 118.873 187.805 119.142C187.571 119.411 187.237 119.645 186.804 119.844C186.379 120.035 185.889 120.13 185.335 120.13ZM187.155 116.139V116.1C187.155 115.493 186.99 114.999 186.661 114.618C186.331 114.237 185.889 114.046 185.335 114.046C184.771 114.046 184.329 114.237 184.009 114.618C183.688 114.999 183.528 115.493 183.528 116.1V116.139H187.155Z" fill="#767E86"/>
<path d="M25.5749 140C24.2316 140 23.5599 139.242 23.5599 137.725V134.241H22.5329C22.4463 134.241 22.3769 134.215 22.3249 134.163C22.2729 134.111 22.2469 134.042 22.2469 133.955V133.539C22.2469 133.452 22.2729 133.383 22.3249 133.331C22.3769 133.27 22.4463 133.24 22.5329 133.24H23.5599V131.069C23.5599 130.982 23.5859 130.913 23.6379 130.861C23.6899 130.8 23.7593 130.77 23.8459 130.77H24.4179C24.5046 130.77 24.5739 130.8 24.6259 130.861C24.6866 130.913 24.7169 130.982 24.7169 131.069V133.24H26.3289C26.4156 133.24 26.4849 133.27 26.5369 133.331C26.5976 133.383 26.6279 133.452 26.6279 133.539V133.955C26.6279 134.042 26.5976 134.111 26.5369 134.163C26.4849 134.215 26.4156 134.241 26.3289 134.241H24.7169V137.634C24.7169 138.076 24.7863 138.41 24.9249 138.635C25.0723 138.86 25.3193 138.973 25.6659 138.973H26.4589C26.5456 138.973 26.6149 139.003 26.6669 139.064C26.7189 139.116 26.7449 139.185 26.7449 139.272V139.701C26.7449 139.788 26.7189 139.861 26.6669 139.922C26.6149 139.974 26.5456 140 26.4589 140H25.5749Z" fill="#767E86"/>
<path d="M30.758 140.13C29.8047 140.13 29.068 139.861 28.548 139.324C28.0367 138.787 27.7637 138.072 27.729 137.179L27.716 136.62L27.729 136.061C27.7637 135.168 28.041 134.453 28.561 133.916C29.0897 133.379 29.822 133.11 30.758 133.11C31.694 133.11 32.422 133.379 32.942 133.916C33.4707 134.453 33.7523 135.168 33.787 136.061C33.8043 136.252 33.813 136.438 33.813 136.62C33.813 136.802 33.8043 136.988 33.787 137.179C33.7523 138.072 33.475 138.787 32.955 139.324C32.4437 139.861 31.7113 140.13 30.758 140.13ZM30.758 139.155C31.3127 139.155 31.7503 138.982 32.071 138.635C32.4003 138.28 32.578 137.773 32.604 137.114C32.6127 137.027 32.617 136.863 32.617 136.62C32.617 136.377 32.6127 136.213 32.604 136.126C32.578 135.467 32.4003 134.965 32.071 134.618C31.7503 134.263 31.3127 134.085 30.758 134.085C30.2033 134.085 29.7613 134.263 29.432 134.618C29.1113 134.965 28.938 135.467 28.912 136.126L28.899 136.62L28.912 137.114C28.938 137.773 29.1113 138.28 29.432 138.635C29.7613 138.982 30.2033 139.155 30.758 139.155Z" fill="#767E86"/>
<path d="M38.9657 140C38.879 140 38.8053 139.974 38.7447 139.922C38.6927 139.861 38.6667 139.788 38.6667 139.701V131.069C38.6667 130.974 38.6927 130.9 38.7447 130.848C38.8053 130.796 38.879 130.77 38.9657 130.77H39.5637C39.659 130.77 39.7327 130.796 39.7847 130.848C39.8367 130.9 39.8627 130.974 39.8627 131.069V134.098C40.114 133.777 40.4087 133.535 40.7467 133.37C41.0933 133.197 41.518 133.11 42.0207 133.11C42.8527 133.11 43.4983 133.379 43.9577 133.916C44.4257 134.445 44.6597 135.147 44.6597 136.022V139.701C44.6597 139.788 44.6293 139.861 44.5687 139.922C44.5167 139.974 44.4473 140 44.3607 140H43.7497C43.663 140 43.5893 139.974 43.5287 139.922C43.4767 139.861 43.4507 139.788 43.4507 139.701V136.1C43.4507 135.476 43.299 134.991 42.9957 134.644C42.6923 134.297 42.2547 134.124 41.6827 134.124C41.128 134.124 40.686 134.302 40.3567 134.657C40.0273 135.004 39.8627 135.485 39.8627 136.1V139.701C39.8627 139.788 39.8323 139.861 39.7717 139.922C39.7197 139.974 39.6503 140 39.5637 140H38.9657Z" fill="#767E86"/>
<path d="M49.2281 140.13C48.3441 140.13 47.6378 139.857 47.1091 139.311C46.5805 138.756 46.2901 138.002 46.2381 137.049L46.2251 136.607L46.2381 136.178C46.2901 135.242 46.5805 134.497 47.1091 133.942C47.6378 133.387 48.3441 133.11 49.2281 133.11C50.1815 133.11 50.9181 133.413 51.4381 134.02C51.9668 134.627 52.2311 135.45 52.2311 136.49V136.724C52.2311 136.811 52.2008 136.884 52.1401 136.945C52.0881 136.997 52.0188 137.023 51.9321 137.023H47.4211V137.14C47.4471 137.703 47.6205 138.184 47.9411 138.583C48.2618 138.982 48.6865 139.181 49.2151 139.181C49.6225 139.181 49.9518 139.103 50.2031 138.947C50.4631 138.782 50.6581 138.613 50.7881 138.44C50.8661 138.336 50.9268 138.275 50.9701 138.258C51.0135 138.232 51.0871 138.219 51.1911 138.219H51.7631C51.8411 138.219 51.9061 138.241 51.9581 138.284C52.0188 138.327 52.0491 138.384 52.0491 138.453C52.0491 138.644 51.9321 138.873 51.6981 139.142C51.4641 139.411 51.1305 139.645 50.6971 139.844C50.2725 140.035 49.7828 140.13 49.2281 140.13ZM51.0481 136.139V136.1C51.0481 135.493 50.8835 134.999 50.5541 134.618C50.2248 134.237 49.7828 134.046 49.2281 134.046C48.6648 134.046 48.2228 134.237 47.9021 134.618C47.5815 134.999 47.4211 135.493 47.4211 136.1V136.139H51.0481Z" fill="#767E86"/>
<path d="M54.1239 140C54.0372 140 53.9635 139.974 53.9029 139.922C53.8509 139.861 53.8249 139.788 53.8249 139.701V131.069C53.8249 130.974 53.8509 130.9 53.9029 130.848C53.9635 130.796 54.0372 130.77 54.1239 130.77H54.6959C54.7825 130.77 54.8519 130.8 54.9039 130.861C54.9645 130.913 54.9949 130.982 54.9949 131.069V139.701C54.9949 139.788 54.9645 139.861 54.9039 139.922C54.8519 139.974 54.7825 140 54.6959 140H54.1239Z" fill="#767E86"/>
<path d="M57.2596 142.47C57.1729 142.47 57.0993 142.444 57.0386 142.392C56.9866 142.34 56.9606 142.266 56.9606 142.171V133.539C56.9606 133.444 56.9866 133.37 57.0386 133.318C57.0993 133.266 57.1729 133.24 57.2596 133.24H57.8056C57.9009 133.24 57.9746 133.266 58.0266 133.318C58.0786 133.37 58.1046 133.444 58.1046 133.539V134.111C58.6073 133.444 59.3223 133.11 60.2496 133.11C61.1596 133.11 61.8399 133.4 62.2906 133.981C62.7499 134.553 62.9926 135.285 63.0186 136.178C63.0273 136.273 63.0316 136.421 63.0316 136.62C63.0316 136.819 63.0273 136.967 63.0186 137.062C62.9926 137.946 62.7499 138.678 62.2906 139.259C61.8399 139.84 61.1596 140.13 60.2496 140.13C59.3223 140.13 58.6203 139.801 58.1436 139.142V142.171C58.1436 142.258 58.1133 142.327 58.0526 142.379C58.0006 142.44 57.9313 142.47 57.8446 142.47H57.2596ZM60.0026 139.116C60.6266 139.116 61.0816 138.921 61.3676 138.531C61.6536 138.141 61.8096 137.63 61.8356 136.997C61.8443 136.91 61.8486 136.785 61.8486 136.62C61.8486 134.956 61.2333 134.124 60.0026 134.124C59.3959 134.124 58.9366 134.328 58.6246 134.735C58.3213 135.134 58.1609 135.606 58.1436 136.152C58.1349 136.247 58.1306 136.416 58.1306 136.659C58.1306 136.902 58.1349 137.071 58.1436 137.166C58.1609 137.695 58.3256 138.154 58.6376 138.544C58.9583 138.925 59.4133 139.116 60.0026 139.116Z" fill="#767E86"/>
<path d="M68.6931 142.47C68.6151 142.47 68.5501 142.444 68.4981 142.392C68.4461 142.34 68.4201 142.279 68.4201 142.21C68.4201 142.184 68.4418 142.106 68.4851 141.976L69.4991 139.597L67.0161 133.734C66.9641 133.63 66.9381 133.556 66.9381 133.513C66.9468 133.435 66.9771 133.37 67.0291 133.318C67.0811 133.266 67.1418 133.24 67.2111 133.24H67.8091C67.9478 133.24 68.0518 133.309 68.1211 133.448L70.1231 138.232L72.1771 133.448C72.2464 133.309 72.3504 133.24 72.4891 133.24H73.0741C73.1434 133.24 73.2041 133.266 73.2561 133.318C73.3081 133.37 73.3341 133.431 73.3341 133.5C73.3341 133.561 73.3124 133.639 73.2691 133.734L69.5901 142.262C69.5468 142.331 69.4991 142.383 69.4471 142.418C69.4038 142.453 69.3431 142.47 69.2651 142.47H68.6931Z" fill="#767E86"/>
<path d="M77.1594 140.13C76.206 140.13 75.4694 139.861 74.9494 139.324C74.438 138.787 74.165 138.072 74.1304 137.179L74.1174 136.62L74.1304 136.061C74.165 135.168 74.4424 134.453 74.9624 133.916C75.491 133.379 76.2234 133.11 77.1594 133.11C78.0954 133.11 78.8234 133.379 79.3434 133.916C79.872 134.453 80.1537 135.168 80.1884 136.061C80.2057 136.252 80.2144 136.438 80.2144 136.62C80.2144 136.802 80.2057 136.988 80.1884 137.179C80.1537 138.072 79.8764 138.787 79.3564 139.324C78.845 139.861 78.1127 140.13 77.1594 140.13ZM77.1594 139.155C77.714 139.155 78.1517 138.982 78.4724 138.635C78.8017 138.28 78.9794 137.773 79.0054 137.114C79.014 137.027 79.0184 136.863 79.0184 136.62C79.0184 136.377 79.014 136.213 79.0054 136.126C78.9794 135.467 78.8017 134.965 78.4724 134.618C78.1517 134.263 77.714 134.085 77.1594 134.085C76.6047 134.085 76.1627 134.263 75.8334 134.618C75.5127 134.965 75.3394 135.467 75.3134 136.126L75.3004 136.62L75.3134 137.114C75.3394 137.773 75.5127 138.28 75.8334 138.635C76.1627 138.982 76.6047 139.155 77.1594 139.155Z" fill="#767E86"/>
<path d="M84.3778 140.13C83.5545 140.13 82.9175 139.866 82.4668 139.337C82.0161 138.8 81.7908 138.089 81.7908 137.205V133.539C81.7908 133.452 81.8168 133.383 81.8688 133.331C81.9295 133.27 82.0031 133.24 82.0898 133.24H82.6878C82.7745 133.24 82.8438 133.27 82.8958 133.331C82.9565 133.383 82.9868 133.452 82.9868 133.539V137.14C82.9868 138.457 83.5588 139.116 84.7028 139.116C85.2575 139.116 85.6951 138.943 86.0158 138.596C86.3451 138.241 86.5098 137.755 86.5098 137.14V133.539C86.5098 133.452 86.5358 133.383 86.5878 133.331C86.6485 133.27 86.7221 133.24 86.8088 133.24H87.4068C87.4935 133.24 87.5628 133.27 87.6148 133.331C87.6755 133.383 87.7058 133.452 87.7058 133.539V139.701C87.7058 139.788 87.6755 139.861 87.6148 139.922C87.5628 139.974 87.4935 140 87.4068 140H86.8478C86.7611 140 86.6875 139.974 86.6268 139.922C86.5748 139.861 86.5488 139.788 86.5488 139.701V139.116C86.2975 139.454 86.0028 139.71 85.6648 139.883C85.3268 140.048 84.8978 140.13 84.3778 140.13Z" fill="#767E86"/>
<path d="M21.53 89C21.43 89 21.345 88.965 21.275 88.895C21.205 88.825 21.17 88.74 21.17 88.64V78.875C21.17 78.765 21.2 78.675 21.26 78.605C21.33 78.535 21.42 78.5 21.53 78.5H28.145C28.255 78.5 28.345 78.535 28.415 78.605C28.485 78.675 28.52 78.765 28.52 78.875V79.88C28.52 79.99 28.485 80.08 28.415 80.15C28.345 80.21 28.255 80.24 28.145 80.24H23.225V82.865H27.815C27.925 82.865 28.015 82.9 28.085 82.97C28.155 83.04 28.19 83.13 28.19 83.24V84.185C28.19 84.295 28.155 84.385 28.085 84.455C28.015 84.515 27.925 84.545 27.815 84.545H23.225V87.26H28.265C28.375 87.26 28.465 87.295 28.535 87.365C28.605 87.425 28.64 87.51 28.64 87.62V88.64C28.64 88.75 28.605 88.84 28.535 88.91C28.465 88.97 28.375 89 28.265 89H21.53Z" fill="#3792FC"/>
<path d="M30.6957 89C30.5957 89 30.5107 88.965 30.4407 88.895C30.3707 88.825 30.3357 88.74 30.3357 88.64V81.56C30.3357 81.45 30.3707 81.365 30.4407 81.305C30.5107 81.235 30.5957 81.2 30.6957 81.2H31.9407C32.0507 81.2 32.1357 81.235 32.1957 81.305C32.2657 81.365 32.3007 81.45 32.3007 81.56V82.175C32.9107 81.425 33.7457 81.05 34.8057 81.05C35.7257 81.05 36.4557 81.35 36.9957 81.95C37.5357 82.55 37.8057 83.375 37.8057 84.425V88.64C37.8057 88.74 37.7707 88.825 37.7007 88.895C37.6407 88.965 37.5557 89 37.4457 89H36.0957C35.9957 89 35.9107 88.965 35.8407 88.895C35.7707 88.825 35.7357 88.74 35.7357 88.64V84.515C35.7357 83.935 35.5907 83.485 35.3007 83.165C35.0207 82.835 34.6157 82.67 34.0857 82.67C33.5757 82.67 33.1657 82.835 32.8557 83.165C32.5457 83.495 32.3907 83.945 32.3907 84.515V88.64C32.3907 88.74 32.3557 88.825 32.2857 88.895C32.2257 88.965 32.1407 89 32.0307 89H30.6957Z" fill="#3792FC"/>
<path d="M42.6057 89.15C41.5957 89.15 40.8207 88.83 40.2807 88.19C39.7407 87.54 39.4457 86.675 39.3957 85.595L39.3807 85.1L39.3957 84.605C39.4357 83.545 39.7257 82.69 40.2657 82.04C40.8157 81.38 41.5957 81.05 42.6057 81.05C43.5657 81.05 44.3307 81.38 44.9007 82.04V78.71C44.9007 78.6 44.9357 78.515 45.0057 78.455C45.0757 78.385 45.1607 78.35 45.2607 78.35H46.5657C46.6757 78.35 46.7607 78.385 46.8207 78.455C46.8907 78.515 46.9257 78.6 46.9257 78.71V88.64C46.9257 88.74 46.8907 88.825 46.8207 88.895C46.7607 88.965 46.6757 89 46.5657 89H45.3507C45.2507 89 45.1657 88.965 45.0957 88.895C45.0257 88.825 44.9907 88.74 44.9907 88.64V88.085C44.4407 88.795 43.6457 89.15 42.6057 89.15ZM43.1757 87.53C43.7457 87.53 44.1657 87.35 44.4357 86.99C44.7157 86.62 44.8707 86.165 44.9007 85.625C44.9107 85.505 44.9157 85.315 44.9157 85.055C44.9157 84.785 44.9107 84.59 44.9007 84.47C44.8807 83.97 44.7257 83.545 44.4357 83.195C44.1457 82.845 43.7257 82.67 43.1757 82.67C42.1057 82.67 41.5357 83.33 41.4657 84.65L41.4507 85.1L41.4657 85.55C41.5357 86.87 42.1057 87.53 43.1757 87.53Z" fill="#3792FC"/>
<path d="M55.5847 89C54.6747 89 53.9897 88.765 53.5297 88.295C53.0697 87.815 52.8397 87.115 52.8397 86.195V82.805H51.6547C51.5547 82.805 51.4697 82.77 51.3997 82.7C51.3297 82.63 51.2947 82.545 51.2947 82.445V81.56C51.2947 81.46 51.3297 81.375 51.3997 81.305C51.4697 81.235 51.5547 81.2 51.6547 81.2H52.8397V78.71C52.8397 78.6 52.8747 78.515 52.9447 78.455C53.0147 78.385 53.0997 78.35 53.1997 78.35H54.4447C54.5547 78.35 54.6397 78.385 54.6997 78.455C54.7697 78.515 54.8047 78.6 54.8047 78.71V81.2H56.6797C56.7797 81.2 56.8647 81.235 56.9347 81.305C57.0047 81.375 57.0397 81.46 57.0397 81.56V82.445C57.0397 82.545 57.0047 82.63 56.9347 82.7C56.8647 82.77 56.7797 82.805 56.6797 82.805H54.8047V86.03C54.8047 86.46 54.8797 86.785 55.0297 87.005C55.1797 87.225 55.4247 87.335 55.7647 87.335H56.8147C56.9247 87.335 57.0097 87.37 57.0697 87.44C57.1397 87.5 57.1747 87.585 57.1747 87.695V88.64C57.1747 88.74 57.1397 88.825 57.0697 88.895C57.0097 88.965 56.9247 89 56.8147 89H55.5847Z" fill="#3792FC"/>
<path d="M61.9697 89.15C60.7897 89.15 59.8797 88.85 59.2397 88.25C58.5997 87.65 58.2547 86.82 58.2047 85.76L58.1897 85.1L58.2047 84.44C58.2547 83.39 58.6047 82.565 59.2547 81.965C59.9047 81.355 60.8097 81.05 61.9697 81.05C63.1197 81.05 64.0197 81.355 64.6697 81.965C65.3197 82.565 65.6697 83.39 65.7197 84.44C65.7297 84.56 65.7347 84.78 65.7347 85.1C65.7347 85.42 65.7297 85.64 65.7197 85.76C65.6697 86.82 65.3247 87.65 64.6847 88.25C64.0447 88.85 63.1397 89.15 61.9697 89.15ZM61.9697 87.635C62.4997 87.635 62.9047 87.47 63.1847 87.14C63.4747 86.81 63.6297 86.325 63.6497 85.685C63.6597 85.585 63.6647 85.39 63.6647 85.1C63.6647 84.81 63.6597 84.615 63.6497 84.515C63.6297 83.875 63.4747 83.39 63.1847 83.06C62.8947 82.72 62.4897 82.55 61.9697 82.55C61.4397 82.55 61.0297 82.72 60.7397 83.06C60.4497 83.39 60.2947 83.875 60.2747 84.515L60.2597 85.1L60.2747 85.685C60.2947 86.325 60.4497 86.81 60.7397 87.14C61.0297 87.47 61.4397 87.635 61.9697 87.635Z" fill="#3792FC"/>
<path d="M74.1844 89.15C73.0644 89.15 72.1744 88.83 71.5144 88.19C70.8644 87.55 70.5194 86.64 70.4794 85.46L70.4644 85.085C70.4644 83.835 70.7894 82.85 71.4394 82.13C72.0994 81.41 73.0094 81.05 74.1694 81.05C75.3594 81.05 76.2744 81.41 76.9144 82.13C77.5644 82.85 77.8894 83.81 77.8894 85.01V85.325C77.8894 85.425 77.8544 85.51 77.7844 85.58C77.7144 85.65 77.6244 85.685 77.5144 85.685H72.5344V85.805C72.5544 86.365 72.7044 86.83 72.9844 87.2C73.2744 87.56 73.6694 87.74 74.1694 87.74C74.7394 87.74 75.2044 87.51 75.5644 87.05C75.6544 86.94 75.7244 86.875 75.7744 86.855C75.8244 86.825 75.9094 86.81 76.0294 86.81H77.3494C77.4394 86.81 77.5144 86.835 77.5744 86.885C77.6444 86.935 77.6794 87.005 77.6794 87.095C77.6794 87.335 77.5344 87.62 77.2444 87.95C76.9644 88.27 76.5594 88.55 76.0294 88.79C75.4994 89.03 74.8844 89.15 74.1844 89.15ZM75.8194 84.41V84.38C75.8194 83.79 75.6694 83.32 75.3694 82.97C75.0794 82.61 74.6794 82.43 74.1694 82.43C73.6594 82.43 73.2594 82.61 72.9694 82.97C72.6794 83.32 72.5344 83.79 72.5344 84.38V84.41H75.8194Z" fill="#3792FC"/>
<path d="M79.8413 89C79.7413 89 79.6563 88.965 79.5863 88.895C79.5163 88.825 79.4813 88.74 79.4813 88.64V81.56C79.4813 81.45 79.5163 81.365 79.5863 81.305C79.6563 81.235 79.7413 81.2 79.8413 81.2H81.0863C81.1963 81.2 81.2813 81.235 81.3413 81.305C81.4113 81.365 81.4463 81.45 81.4463 81.56V82.175C82.0563 81.425 82.8913 81.05 83.9513 81.05C84.8713 81.05 85.6013 81.35 86.1413 81.95C86.6813 82.55 86.9513 83.375 86.9513 84.425V88.64C86.9513 88.74 86.9163 88.825 86.8463 88.895C86.7863 88.965 86.7013 89 86.5913 89H85.2413C85.1413 89 85.0563 88.965 84.9863 88.895C84.9163 88.825 84.8813 88.74 84.8813 88.64V84.515C84.8813 83.935 84.7363 83.485 84.4463 83.165C84.1663 82.835 83.7613 82.67 83.2313 82.67C82.7213 82.67 82.3113 82.835 82.0013 83.165C81.6912 83.495 81.5363 83.945 81.5363 84.515V88.64C81.5363 88.74 81.5013 88.825 81.4313 88.895C81.3713 88.965 81.2863 89 81.1763 89H79.8413Z" fill="#3792FC"/>
<path d="M91.7513 89.15C90.7413 89.15 89.9663 88.83 89.4263 88.19C88.8863 87.54 88.5913 86.675 88.5413 85.595L88.5263 85.1L88.5413 84.605C88.5813 83.545 88.8713 82.69 89.4113 82.04C89.9613 81.38 90.7413 81.05 91.7513 81.05C92.7113 81.05 93.4763 81.38 94.0463 82.04V78.71C94.0463 78.6 94.0813 78.515 94.1513 78.455C94.2213 78.385 94.3063 78.35 94.4063 78.35H95.7113C95.8213 78.35 95.9063 78.385 95.9663 78.455C96.0363 78.515 96.0713 78.6 96.0713 78.71V88.64C96.0713 88.74 96.0363 88.825 95.9663 88.895C95.9063 88.965 95.8213 89 95.7113 89H94.4963C94.3963 89 94.3113 88.965 94.2413 88.895C94.1713 88.825 94.1363 88.74 94.1363 88.64V88.085C93.5863 88.795 92.7913 89.15 91.7513 89.15ZM92.3213 87.53C92.8913 87.53 93.3113 87.35 93.5813 86.99C93.8613 86.62 94.0163 86.165 94.0463 85.625C94.0563 85.505 94.0613 85.315 94.0613 85.055C94.0613 84.785 94.0563 84.59 94.0463 84.47C94.0263 83.97 93.8713 83.545 93.5813 83.195C93.2913 82.845 92.8713 82.67 92.3213 82.67C91.2513 82.67 90.6813 83.33 90.6113 84.65L90.5963 85.1L90.6113 85.55C90.6813 86.87 91.2513 87.53 92.3213 87.53Z" fill="#3792FC"/>
<path d="M103.748 89.15C103.238 89.15 102.768 89.05 102.338 88.85C101.918 88.64 101.583 88.36 101.333 88.01C101.093 87.66 100.973 87.275 100.973 86.855C100.973 86.175 101.248 85.625 101.798 85.205C102.348 84.785 103.103 84.5 104.063 84.35L106.118 84.05V83.735C106.118 83.305 106.008 82.98 105.788 82.76C105.568 82.54 105.218 82.43 104.738 82.43C104.408 82.43 104.143 82.49 103.943 82.61C103.743 82.73 103.578 82.855 103.448 82.985C103.328 83.105 103.248 83.185 103.208 83.225C103.168 83.345 103.093 83.405 102.983 83.405H101.813C101.723 83.405 101.643 83.375 101.573 83.315C101.513 83.255 101.483 83.175 101.483 83.075C101.493 82.825 101.613 82.545 101.843 82.235C102.083 81.915 102.448 81.64 102.938 81.41C103.428 81.17 104.033 81.05 104.753 81.05C105.933 81.05 106.793 81.315 107.333 81.845C107.873 82.375 108.143 83.07 108.143 83.93V88.64C108.143 88.74 108.108 88.825 108.038 88.895C107.978 88.965 107.893 89 107.783 89H106.538C106.438 89 106.353 88.965 106.283 88.895C106.213 88.825 106.178 88.74 106.178 88.64V88.055C105.958 88.375 105.648 88.64 105.248 88.85C104.848 89.05 104.348 89.15 103.748 89.15ZM104.258 87.71C104.808 87.71 105.258 87.53 105.608 87.17C105.958 86.81 106.133 86.29 106.133 85.61V85.31L104.633 85.55C103.483 85.73 102.908 86.115 102.908 86.705C102.908 87.025 103.038 87.275 103.298 87.455C103.568 87.625 103.888 87.71 104.258 87.71Z" fill="#3792FC"/>
<path d="M113.037 89.15C112.277 89.15 111.642 89.035 111.132 88.805C110.622 88.575 110.242 88.31 109.992 88.01C109.752 87.7 109.632 87.435 109.632 87.215C109.632 87.115 109.662 87.035 109.722 86.975C109.792 86.915 109.872 86.885 109.962 86.885H111.192C111.272 86.885 111.342 86.925 111.402 87.005C111.452 87.045 111.562 87.14 111.732 87.29C111.912 87.44 112.112 87.56 112.332 87.65C112.562 87.73 112.812 87.77 113.082 87.77C113.482 87.77 113.807 87.695 114.057 87.545C114.307 87.385 114.432 87.16 114.432 86.87C114.432 86.67 114.372 86.51 114.252 86.39C114.142 86.26 113.937 86.145 113.637 86.045C113.347 85.935 112.907 85.815 112.317 85.685C111.467 85.505 110.837 85.23 110.427 84.86C110.027 84.49 109.827 84 109.827 83.39C109.827 82.99 109.947 82.615 110.187 82.265C110.427 81.905 110.782 81.615 111.252 81.395C111.732 81.165 112.302 81.05 112.962 81.05C113.642 81.05 114.227 81.16 114.717 81.38C115.207 81.59 115.577 81.845 115.827 82.145C116.087 82.445 116.217 82.71 116.217 82.94C116.217 83.03 116.182 83.11 116.112 83.18C116.052 83.24 115.977 83.27 115.887 83.27H114.762C114.652 83.27 114.567 83.23 114.507 83.15C114.437 83.1 114.322 83.01 114.162 82.88C114.012 82.74 113.842 82.63 113.652 82.55C113.462 82.47 113.232 82.43 112.962 82.43C112.592 82.43 112.307 82.51 112.107 82.67C111.907 82.83 111.807 83.04 111.807 83.3C111.807 83.48 111.852 83.63 111.942 83.75C112.042 83.87 112.237 83.985 112.527 84.095C112.817 84.195 113.252 84.3 113.832 84.41C115.632 84.76 116.532 85.545 116.532 86.765C116.532 87.475 116.222 88.05 115.602 88.49C114.992 88.93 114.137 89.15 113.037 89.15Z" fill="#3792FC"/>
<path d="M121.035 89.15C120.275 89.15 119.64 89.035 119.13 88.805C118.62 88.575 118.24 88.31 117.99 88.01C117.75 87.7 117.63 87.435 117.63 87.215C117.63 87.115 117.66 87.035 117.72 86.975C117.79 86.915 117.87 86.885 117.96 86.885H119.19C119.27 86.885 119.34 86.925 119.4 87.005C119.45 87.045 119.56 87.14 119.73 87.29C119.91 87.44 120.11 87.56 120.33 87.65C120.56 87.73 120.81 87.77 121.08 87.77C121.48 87.77 121.805 87.695 122.055 87.545C122.305 87.385 122.43 87.16 122.43 86.87C122.43 86.67 122.37 86.51 122.25 86.39C122.14 86.26 121.935 86.145 121.635 86.045C121.345 85.935 120.905 85.815 120.315 85.685C119.465 85.505 118.835 85.23 118.425 84.86C118.025 84.49 117.825 84 117.825 83.39C117.825 82.99 117.945 82.615 118.185 82.265C118.425 81.905 118.78 81.615 119.25 81.395C119.73 81.165 120.3 81.05 120.96 81.05C121.64 81.05 122.225 81.16 122.715 81.38C123.205 81.59 123.575 81.845 123.825 82.145C124.085 82.445 124.215 82.71 124.215 82.94C124.215 83.03 124.18 83.11 124.11 83.18C124.05 83.24 123.975 83.27 123.885 83.27H122.76C122.65 83.27 122.565 83.23 122.505 83.15C122.435 83.1 122.32 83.01 122.16 82.88C122.01 82.74 121.84 82.63 121.65 82.55C121.46 82.47 121.23 82.43 120.96 82.43C120.59 82.43 120.305 82.51 120.105 82.67C119.905 82.83 119.805 83.04 119.805 83.3C119.805 83.48 119.85 83.63 119.94 83.75C120.04 83.87 120.235 83.985 120.525 84.095C120.815 84.195 121.25 84.3 121.83 84.41C123.63 84.76 124.53 85.545 124.53 86.765C124.53 87.475 124.22 88.05 123.6 88.49C122.99 88.93 122.135 89.15 121.035 89.15Z" fill="#3792FC"/>
<path d="M126.363 79.925C126.263 79.925 126.178 79.89 126.108 79.82C126.038 79.75 126.003 79.665 126.003 79.565V78.47C126.003 78.36 126.038 78.27 126.108 78.2C126.178 78.13 126.263 78.095 126.363 78.095H127.743C127.853 78.095 127.943 78.13 128.013 78.2C128.083 78.27 128.118 78.36 128.118 78.47V79.565C128.118 79.665 128.078 79.75 127.998 79.82C127.928 79.89 127.843 79.925 127.743 79.925H126.363ZM126.423 89C126.323 89 126.238 88.965 126.168 88.895C126.098 88.825 126.063 88.74 126.063 88.64V81.56C126.063 81.45 126.098 81.365 126.168 81.305C126.238 81.235 126.323 81.2 126.423 81.2H127.698C127.798 81.2 127.883 81.235 127.953 81.305C128.023 81.375 128.058 81.46 128.058 81.56V88.64C128.058 88.74 128.023 88.825 127.953 88.895C127.883 88.965 127.798 89 127.698 89H126.423Z" fill="#3792FC"/>
<path d="M133.003 89.15C132.243 89.15 131.608 89.035 131.098 88.805C130.588 88.575 130.208 88.31 129.958 88.01C129.718 87.7 129.598 87.435 129.598 87.215C129.598 87.115 129.628 87.035 129.688 86.975C129.758 86.915 129.838 86.885 129.928 86.885H131.158C131.238 86.885 131.308 86.925 131.368 87.005C131.418 87.045 131.528 87.14 131.698 87.29C131.878 87.44 132.078 87.56 132.298 87.65C132.528 87.73 132.778 87.77 133.048 87.77C133.448 87.77 133.773 87.695 134.023 87.545C134.273 87.385 134.398 87.16 134.398 86.87C134.398 86.67 134.338 86.51 134.218 86.39C134.108 86.26 133.903 86.145 133.603 86.045C133.313 85.935 132.873 85.815 132.283 85.685C131.433 85.505 130.803 85.23 130.393 84.86C129.993 84.49 129.793 84 129.793 83.39C129.793 82.99 129.913 82.615 130.153 82.265C130.393 81.905 130.748 81.615 131.218 81.395C131.698 81.165 132.268 81.05 132.928 81.05C133.608 81.05 134.193 81.16 134.683 81.38C135.173 81.59 135.543 81.845 135.793 82.145C136.053 82.445 136.183 82.71 136.183 82.94C136.183 83.03 136.148 83.11 136.078 83.18C136.018 83.24 135.943 83.27 135.853 83.27H134.728C134.618 83.27 134.533 83.23 134.473 83.15C134.403 83.1 134.288 83.01 134.128 82.88C133.978 82.74 133.808 82.63 133.618 82.55C133.428 82.47 133.198 82.43 132.928 82.43C132.558 82.43 132.273 82.51 132.073 82.67C131.873 82.83 131.773 83.04 131.773 83.3C131.773 83.48 131.818 83.63 131.908 83.75C132.008 83.87 132.203 83.985 132.493 84.095C132.783 84.195 133.218 84.3 133.798 84.41C135.598 84.76 136.498 85.545 136.498 86.765C136.498 87.475 136.188 88.05 135.568 88.49C134.958 88.93 134.103 89.15 133.003 89.15Z" fill="#3792FC"/>
<path d="M141.542 89C140.632 89 139.947 88.765 139.487 88.295C139.027 87.815 138.797 87.115 138.797 86.195V82.805H137.612C137.512 82.805 137.427 82.77 137.357 82.7C137.287 82.63 137.252 82.545 137.252 82.445V81.56C137.252 81.46 137.287 81.375 137.357 81.305C137.427 81.235 137.512 81.2 137.612 81.2H138.797V78.71C138.797 78.6 138.832 78.515 138.902 78.455C138.972 78.385 139.057 78.35 139.157 78.35H140.402C140.512 78.35 140.597 78.385 140.657 78.455C140.727 78.515 140.762 78.6 140.762 78.71V81.2H142.637C142.737 81.2 142.822 81.235 142.892 81.305C142.962 81.375 142.997 81.46 142.997 81.56V82.445C142.997 82.545 142.962 82.63 142.892 82.7C142.822 82.77 142.737 82.805 142.637 82.805H140.762V86.03C140.762 86.46 140.837 86.785 140.987 87.005C141.137 87.225 141.382 87.335 141.722 87.335H142.772C142.882 87.335 142.967 87.37 143.027 87.44C143.097 87.5 143.132 87.585 143.132 87.695V88.64C143.132 88.74 143.097 88.825 143.027 88.895C142.967 88.965 142.882 89 142.772 89H141.542Z" fill="#3792FC"/>
<path d="M146.727 89.15C146.217 89.15 145.747 89.05 145.317 88.85C144.897 88.64 144.562 88.36 144.312 88.01C144.072 87.66 143.952 87.275 143.952 86.855C143.952 86.175 144.227 85.625 144.777 85.205C145.327 84.785 146.082 84.5 147.042 84.35L149.097 84.05V83.735C149.097 83.305 148.987 82.98 148.767 82.76C148.547 82.54 148.197 82.43 147.717 82.43C147.387 82.43 147.122 82.49 146.922 82.61C146.722 82.73 146.557 82.855 146.427 82.985C146.307 83.105 146.227 83.185 146.187 83.225C146.147 83.345 146.072 83.405 145.962 83.405H144.792C144.702 83.405 144.622 83.375 144.552 83.315C144.492 83.255 144.462 83.175 144.462 83.075C144.472 82.825 144.592 82.545 144.822 82.235C145.062 81.915 145.427 81.64 145.917 81.41C146.407 81.17 147.012 81.05 147.732 81.05C148.912 81.05 149.772 81.315 150.312 81.845C150.852 82.375 151.122 83.07 151.122 83.93V88.64C151.122 88.74 151.087 88.825 151.017 88.895C150.957 88.965 150.872 89 150.762 89H149.517C149.417 89 149.332 88.965 149.262 88.895C149.192 88.825 149.157 88.74 149.157 88.64V88.055C148.937 88.375 148.627 88.64 148.227 88.85C147.827 89.05 147.327 89.15 146.727 89.15ZM147.237 87.71C147.787 87.71 148.237 87.53 148.587 87.17C148.937 86.81 149.112 86.29 149.112 85.61V85.31L147.612 85.55C146.462 85.73 145.887 86.115 145.887 86.705C145.887 87.025 146.017 87.275 146.277 87.455C146.547 87.625 146.867 87.71 147.237 87.71Z" fill="#3792FC"/>
<path d="M153.406 89C153.306 89 153.221 88.965 153.151 88.895C153.081 88.825 153.046 88.74 153.046 88.64V81.56C153.046 81.45 153.081 81.365 153.151 81.305C153.221 81.235 153.306 81.2 153.406 81.2H154.651C154.761 81.2 154.846 81.235 154.906 81.305C154.976 81.365 155.011 81.45 155.011 81.56V82.175C155.621 81.425 156.456 81.05 157.516 81.05C158.436 81.05 159.166 81.35 159.706 81.95C160.246 82.55 160.516 83.375 160.516 84.425V88.64C160.516 88.74 160.481 88.825 160.411 88.895C160.351 88.965 160.266 89 160.156 89H158.806C158.706 89 158.621 88.965 158.551 88.895C158.481 88.825 158.446 88.74 158.446 88.64V84.515C158.446 83.935 158.301 83.485 158.011 83.165C157.731 82.835 157.326 82.67 156.796 82.67C156.286 82.67 155.876 82.835 155.566 83.165C155.256 83.495 155.101 83.945 155.101 84.515V88.64C155.101 88.74 155.066 88.825 154.996 88.895C154.936 88.965 154.851 89 154.741 89H153.406Z" fill="#3792FC"/>
<path d="M165.796 89.15C164.696 89.15 163.816 88.845 163.156 88.235C162.506 87.625 162.161 86.78 162.121 85.7L162.106 85.1L162.121 84.5C162.161 83.42 162.506 82.575 163.156 81.965C163.816 81.355 164.696 81.05 165.796 81.05C166.586 81.05 167.251 81.19 167.791 81.47C168.341 81.75 168.746 82.095 169.006 82.505C169.276 82.905 169.421 83.29 169.441 83.66C169.451 83.76 169.416 83.845 169.336 83.915C169.266 83.985 169.181 84.02 169.081 84.02H167.746C167.636 84.02 167.556 84 167.506 83.96C167.456 83.91 167.406 83.825 167.356 83.705C167.206 83.325 167.006 83.05 166.756 82.88C166.516 82.71 166.206 82.625 165.826 82.625C165.316 82.625 164.916 82.785 164.626 83.105C164.346 83.425 164.196 83.915 164.176 84.575L164.161 85.13L164.176 85.625C164.236 86.925 164.786 87.575 165.826 87.575C166.216 87.575 166.531 87.495 166.771 87.335C167.011 87.165 167.206 86.885 167.356 86.495C167.396 86.385 167.441 86.305 167.491 86.255C167.551 86.205 167.636 86.18 167.746 86.18H169.081C169.181 86.18 169.266 86.215 169.336 86.285C169.416 86.355 169.451 86.44 169.441 86.54C169.421 86.89 169.281 87.27 169.021 87.68C168.761 88.08 168.361 88.425 167.821 88.715C167.281 89.005 166.606 89.15 165.796 89.15Z" fill="#3792FC"/>
<path d="M174.38 89.15C173.26 89.15 172.37 88.83 171.71 88.19C171.06 87.55 170.715 86.64 170.675 85.46L170.66 85.085C170.66 83.835 170.985 82.85 171.635 82.13C172.295 81.41 173.205 81.05 174.365 81.05C175.555 81.05 176.47 81.41 177.11 82.13C177.76 82.85 178.085 83.81 178.085 85.01V85.325C178.085 85.425 178.05 85.51 177.98 85.58C177.91 85.65 177.82 85.685 177.71 85.685H172.73V85.805C172.75 86.365 172.9 86.83 173.18 87.2C173.47 87.56 173.865 87.74 174.365 87.74C174.935 87.74 175.4 87.51 175.76 87.05C175.85 86.94 175.92 86.875 175.97 86.855C176.02 86.825 176.105 86.81 176.225 86.81H177.545C177.635 86.81 177.71 86.835 177.77 86.885C177.84 86.935 177.875 87.005 177.875 87.095C177.875 87.335 177.73 87.62 177.44 87.95C177.16 88.27 176.755 88.55 176.225 88.79C175.695 89.03 175.08 89.15 174.38 89.15ZM176.015 84.41V84.38C176.015 83.79 175.865 83.32 175.565 82.97C175.275 82.61 174.875 82.43 174.365 82.43C173.855 82.43 173.455 82.61 173.165 82.97C172.875 83.32 172.73 83.79 172.73 84.38V84.41H176.015Z" fill="#3792FC"/>
<rect x="120" width="98" height="62.3636" fill="#D8D8D8" fill-opacity="0.01"/>
<mask id="mask0" mask-type="alpha" maskUnits="userSpaceOnUse" x="120" y="0" width="98" height="63">
<rect x="120" width="98" height="62.3636" fill="white"/>
</mask>
<g mask="url(#mask0)">
<path opacity="0.1" d="M182.301 0.890923C175.228 0.890923 163.01 0.890921 160.438 7.96441C157.866 15.0379 179.252 14.623 184.231 19.6014C189.209 24.5799 197.236 24.0405 204.808 24.0405C212.38 24.0405 210.945 32.386 217.026 31.114C223.107 29.842 217.669 23.4679 219.598 19.6014C219.598 15.9971 219.598 0.890923 219.598 0.890923C219.598 0.890923 194.198 0.890923 182.301 0.890923Z" fill="#1C87FC"/>
<path opacity="0.2" d="M171.701 58.0158C139.647 46.6276 125.402 72.251 125.402 58.0158C125.402 43.7806 142.497 36.663 151.044 28.1218C159.592 19.5807 155.851 5.34549 168.852 5.34549C181.852 5.34549 175.302 13.3252 189.508 19.5807C203.714 25.8362 218 9.61605 218 28.1218C218 46.6276 203.754 69.404 171.701 58.0158Z" fill="#78B8FF"/>
<path opacity="0.05" d="M128.202 28.6892C129.11 28.2553 130.04 27.7546 130.859 27.1672C131.159 26.9514 130.863 26.5308 130.547 26.6977C129.673 27.1561 128.818 27.748 128.039 28.3509C127.879 28.4711 127.995 28.7871 128.202 28.6892Z" fill="#3792FC"/>
<path opacity="0.05" d="M187.821 37.5191C187.632 36.5311 187.385 35.5032 187.024 34.562C186.893 34.2171 186.41 34.3951 186.49 34.7444C186.711 35.7079 187.067 36.6824 187.452 37.5903C187.529 37.775 187.865 37.7438 187.821 37.5191Z" fill="#3792FC"/>
<path opacity="0.05" d="M131.563 10.7926C131.545 10.777 131.529 10.7614 131.511 10.7481C131.287 10.5478 130.917 10.51 130.699 10.7481C130.479 10.9884 130.486 11.3199 130.699 11.5602C130.715 11.578 130.73 11.5936 130.744 11.6114C130.944 11.8383 131.36 11.8317 131.563 11.6114C131.763 11.3911 131.803 11.0062 131.563 10.7926Z" fill="#3792FC"/>
<path opacity="0.05" d="M183.272 14.2885C183.328 13.9204 183.317 13.5711 183.522 13.246C183.933 12.6011 184.516 12.7623 185.08 13.0471C185.655 13.3373 186.198 13.5093 186.821 13.2406C187.797 12.8187 188.256 11.3463 187.324 10.653C187.023 10.4273 186.725 10.7981 186.765 11.0829C186.821 11.4779 187.017 11.9159 186.679 12.2545C186.225 12.7086 185.693 12.327 185.239 12.1228C184.75 11.9025 184.228 11.8541 183.726 12.0583C182.858 12.4103 182.227 13.5872 182.917 14.3826C183.014 14.4927 183.248 14.4417 183.272 14.2885Z" fill="#3792FC"/>
<path opacity="0.05" d="M173.205 51.5177C172.313 52.3743 171.975 53.707 172.824 54.7377C173.624 55.708 175.177 55.9106 176.176 55.1393C178.593 53.2734 176.073 49.8367 173.468 50.5475C172.984 50.679 173.105 51.3685 173.581 51.3933C174.342 51.436 175.16 51.4644 175.767 52.0011C176.421 52.5733 176.435 53.5436 175.899 54.2046C174.477 55.9497 172.011 53.3801 173.503 51.8163C173.695 51.6208 173.404 51.3294 173.205 51.5177Z" fill="#3792FC"/>
<path opacity="0.05" d="M120.897 45.8343C121.175 46.8692 121.481 47.892 121.802 48.9147C121.878 49.1599 122.111 49.2385 122.322 49.0933C123.154 48.5274 123.984 47.9737 124.773 47.3473C124.925 47.2263 124.891 46.9842 124.743 46.8813C123.82 46.2489 122.577 45.3138 121.405 45.3078C121.109 45.3048 120.9 45.7254 121.203 45.8979C121.675 46.1702 122.241 46.267 122.746 46.4758C123.327 46.7179 123.905 47.0023 124.419 47.3685C124.431 47.199 124.444 47.0296 124.453 46.8601C123.572 47.4018 122.743 48.01 121.908 48.6152C122.071 48.6485 122.238 48.6817 122.401 48.715C122.044 47.7044 121.678 46.7028 121.281 45.7072C121.197 45.4984 120.84 45.6134 120.897 45.8343Z" fill="#3792FC"/>
</g>
<path fill-rule="evenodd" clip-rule="evenodd" d="M178.677 5.00012C178.471 5.00136 178.294 5.01031 178.149 5.02094C177.206 5.08998 174.277 5.47357 172.269 7.93886C170.326 10.3256 170.493 13.132 170.557 14.2036C170.574 14.494 170.601 14.7083 170.623 14.8968C170.774 16.1393 171.226 18.4271 172.751 20.7094C174.418 23.204 176.721 24.7258 176.362 25.2875C176.154 25.6139 175.232 25.3543 173.906 26.0104C173.426 26.2476 173.112 26.5035 172.12 27.4561C170.266 29.2367 169.339 30.1271 169.217 30.5885C168.679 32.6332 170.977 34.9044 171.227 35.1666C172.933 36.9596 175.002 37.1024 178.372 37.3352C180.982 37.5153 182.732 37.6086 184.4 36.3713C184.921 35.9849 186.227 35.1073 186.633 33.4799C186.942 32.2427 186.541 31.1289 185.74 28.9018C185.17 27.3173 184.871 26.515 184.177 26.0104C182.973 25.1349 181.536 25.8298 181.274 25.2875C181.005 24.7306 182.316 23.7247 183.357 22.637C183.616 22.3669 187.253 18.4723 187.303 13.7217C187.311 12.8961 187.335 10.5501 185.768 8.42077C184.026 6.0551 181.079 4.98696 178.677 5.00012Z" fill="#4EA0FF"/>
<path fill-rule="evenodd" clip-rule="evenodd" d="M169.859 27.938C169.441 27.954 168.241 28.2144 165.52 36.3714C163.609 42.1005 162.662 45.0199 163.11 47.6962C163.661 50.9927 165.777 55.9095 168.172 55.8886C172.207 55.8531 177.304 41.7868 173.233 32.0342C172.853 31.123 171.498 27.8753 169.859 27.938Z" fill="#89BCF8"/>
<path fill-rule="evenodd" clip-rule="evenodd" d="M187.214 27.9384C189.097 27.6746 191.546 35.7429 192.276 38.1509C193.678 42.773 194.645 45.9591 193.481 49.6402C192.308 53.35 189.019 57.41 186.973 56.789C182.207 55.3432 183.859 28.4083 187.214 27.9384Z" fill="#89BCF8"/>
<path fill-rule="evenodd" clip-rule="evenodd" d="M176.007 23.2506L176.897 27.5732C176.897 27.5732 180.902 27.5732 180.903 27.5732C180.903 27.5728 181.793 23.251 181.793 23.2506C181.792 23.2506 176.007 23.2506 176.007 23.2506Z" fill="white"/>
<path fill-rule="evenodd" clip-rule="evenodd" d="M179.106 27.048C177.682 27.1316 176.223 26.1323 176.223 26.1323C176.223 26.1327 169.977 27.9633 169.977 27.9633C169.059 32.0775 168.752 35.5578 168.654 38.058C168.448 43.237 168.321 47.9572 171.064 52.5152C171.729 53.6196 172.401 54.4473 172.86 54.9695C174.982 55.2571 177.402 55.4488 180.067 55.4272C181.76 55.4134 183.344 55.3153 184.804 55.1657C185.193 54.689 185.735 53.9594 186.25 52.9971C187.474 50.7103 187.688 48.7036 187.937 46.0095C188.451 40.4672 188.708 37.6958 188.66 36.6123C188.566 34.4504 188.249 31.4538 187.274 27.9633C187.261 27.9592 184.404 27.0521 184.391 27.048C182.95 26.5904 181.509 26.1323 181.509 26.1323C179.423 27.0294 179.106 27.048 179.106 27.048Z" fill="#89BCF8"/>
<path fill-rule="evenodd" clip-rule="evenodd" d="M178.888 25.7694C179.849 25.7437 180.577 25.0231 180.797 24.8056C180.945 24.6583 181.829 23.7836 181.645 23.3599C181.434 22.8754 180.124 23.662 178.039 23.3599C176.64 23.1573 176.068 22.6344 175.919 22.878C175.647 23.32 177.059 25.8186 178.888 25.7694Z" fill="#D8D8D8"/>
<path fill-rule="evenodd" clip-rule="evenodd" d="M177.591 5.99011C177.358 6.0339 173.613 6.79819 172.333 9.96229C172.252 10.1619 172.03 10.9776 171.897 12.0351C171.858 12.3376 171.815 12.7638 171.787 13.7218C171.758 14.7259 171.758 15.8785 171.787 16.3722C171.92 18.6471 173.536 21.9704 176.367 23.8418C177.85 24.8216 178.776 24.816 179.041 24.8056C179.762 24.7765 180.643 24.505 181.911 23.3599C185.394 20.2154 186.009 15.8903 186.009 15.8903C186.283 13.9635 186.687 11.1213 184.771 8.69647C183.14 6.63229 180.316 5.47754 177.591 5.99011Z" fill="white"/>
<path fill-rule="evenodd" clip-rule="evenodd" d="M177.787 9.32271C177.161 10.4228 176.066 9.92614 174.672 11.2438C173.876 11.9963 173.484 12.8445 172.892 14.1255C171.921 16.226 171.846 17.5132 171.557 17.4874C171.187 17.4545 170.993 15.3176 171.111 13.6452C171.199 12.4014 171.448 11.5762 171.557 11.2438C171.599 11.1135 171.904 10.198 172.446 9.32271C173.569 7.5137 176.12 5.2133 177.342 5.96078C178.141 6.44932 178.396 8.25446 177.787 9.32271Z" fill="#4EA0FF"/>
<path fill-rule="evenodd" clip-rule="evenodd" d="M176.007 6.44109C175.565 7.5682 177.251 9.23473 177.342 9.32271C178.998 10.9279 180.303 10.18 182.238 11.2439C185.336 12.9478 185.943 17.2756 186.688 17.0072C186.941 16.9159 187.006 16.306 187.133 15.0861C187.197 14.473 187.28 13.6831 187.133 12.6847C187.075 12.2915 186.828 10.8165 185.798 9.32271C184.922 8.05066 183.937 7.43086 183.128 6.92135C182.236 6.35996 180.914 5.53624 179.122 5.48052C178.403 5.45814 176.417 5.39633 176.007 6.44109Z" fill="#4EA0FF"/>
<path fill-rule="evenodd" clip-rule="evenodd" d="M171.067 14.9256C171.021 14.9011 171.548 10.5486 174.027 7.92742C176.126 5.70834 178.653 5.75668 179.101 5.77417C182.214 5.89536 184.151 8.3925 184.598 9.0041C186.495 11.599 186.824 14.8649 186.713 14.9256C186.644 14.9632 186.345 13.8032 185.444 12.234C184.954 11.3808 184.206 10.0525 182.907 9.0041C182.268 8.48833 180.764 7.30997 178.678 7.38915C176.851 7.45838 175.572 8.45849 174.873 9.0041C173.148 10.35 172.255 12.0893 171.913 12.7723C171.281 14.0324 171.088 14.937 171.067 14.9256Z" fill="#2188FF"/>
<path fill-rule="evenodd" clip-rule="evenodd" d="M181.078 22.4807C180.954 22.4807 180.853 22.4759 180.779 22.4706L180.794 22.1356C181.322 22.1443 181.846 22.0692 182.347 21.9193C183.354 21.6175 184.008 21.0859 184.243 20.8714C185.401 19.8097 185.623 18.3823 185.665 17.818L186.009 17.8342C185.997 18.3269 185.843 20.0344 184.345 21.3113C183.144 22.3352 181.763 22.4807 181.078 22.4807Z" fill="#2188FF"/>
<path fill-rule="evenodd" clip-rule="evenodd" d="M171.949 20.2979L170.887 20.3943C170.697 20.4116 170.525 20.2577 170.507 20.0523C170.287 19.4913 170.035 18.679 169.935 17.6723C169.825 16.5834 169.934 15.6756 170.053 15.0595C170.051 15.0344 170.042 14.9022 170.131 14.7865C170.188 14.7131 170.27 14.6633 170.365 14.6547L171.428 14.5582C171.618 14.541 171.789 14.6949 171.808 14.9003L172.261 19.8931C172.28 20.0985 172.139 20.2807 171.949 20.2979Z" fill="#2188FF"/>
<path fill-rule="evenodd" clip-rule="evenodd" d="M186.488 20.3906L185.435 20.2202C185.246 20.1897 185.119 19.9982 185.152 19.7946L185.953 14.8456C185.986 14.642 186.167 14.5004 186.356 14.5309L187.409 14.7013C187.597 14.7318 187.725 14.9233 187.692 15.1269C187.784 15.7197 187.859 16.6436 187.668 17.7481C187.493 18.7688 187.155 19.5614 186.891 20.0759C186.887 20.1008 186.863 20.2311 186.488 20.3906Z" fill="#2188FF"/>
<path fill-rule="evenodd" clip-rule="evenodd" d="M181.207 22.7705H178.596C178.579 22.7705 178.566 22.7573 178.566 22.7412V21.8393C178.566 21.8231 178.579 21.8099 178.596 21.8099H181.207C181.223 21.8099 181.237 21.8231 181.237 21.8393V22.7412C181.237 22.7573 181.223 22.7705 181.207 22.7705Z" fill="#2188FF"/>
<mask id="mask1" mask-type="alpha" maskUnits="userSpaceOnUse" x="165" y="42" width="27" height="17">
<path d="M190.816 58.2981H166.016C165.876 58.2981 165.761 58.1832 165.761 58.043V42.6503C165.761 42.5101 165.876 42.3952 166.016 42.3952H190.816C190.956 42.3952 191.071 42.5101 191.071 42.6503V58.043C191.071 58.1832 190.956 58.2981 190.816 58.2981Z" fill="white"/>
</mask>
<g mask="url(#mask1)">
<path fill-rule="evenodd" clip-rule="evenodd" d="M104.294 82.1524H248.922V-14.2274H104.294V82.1524Z" fill="url(#paint0_linear)"/>
</g>
<path fill-rule="evenodd" clip-rule="evenodd" d="M170.207 42.2124C170.652 40.7831 171.096 39.3534 171.541 37.9241C171.308 37.86 171.076 37.7958 170.843 37.7317C170.454 39.174 170.065 40.616 169.675 42.058C169.554 42.5078 170.251 42.6996 170.373 42.2505C170.762 40.8081 171.151 39.3661 171.541 37.9241C171.662 37.4732 170.981 37.2886 170.843 37.7317C170.399 39.1614 169.955 40.591 169.51 42.0203C169.372 42.4657 170.07 42.6559 170.207 42.2124Z" fill="#75B5FF"/>
<path fill-rule="evenodd" clip-rule="evenodd" d="M184.975 37.5448C185.166 39.0461 185.357 40.5474 185.548 42.0487C185.606 42.5037 186.33 42.5097 186.271 42.0487C186.08 40.5474 185.889 39.0461 185.698 37.5448C185.64 37.0894 184.916 37.0838 184.975 37.5448Z" fill="#75B5FF"/>
<path fill-rule="evenodd" clip-rule="evenodd" d="M180.465 51.3104C180.465 52.375 179.601 53.2381 178.537 53.2381C177.472 53.2381 176.608 52.375 176.608 51.3104C176.608 50.2459 177.472 49.3828 178.537 49.3828C179.601 49.3828 180.465 50.2459 180.465 51.3104Z" fill="#FFFFFE"/>
<defs>
<linearGradient id="paint0_linear" x1="178.416" y1="42.3952" x2="178.416" y2="58.2981" gradientUnits="userSpaceOnUse">
<stop stop-color="#A1CCFF"/>
<stop offset="1" stop-color="#3D84D6"/>
</linearGradient>
</defs>
</svg>
