<svg width="219" height="163" viewBox="0 0 219 163" fill="none" xmlns="http://www.w3.org/2000/svg">
<rect width="218" height="163" rx="4" fill="#B8DAFF"/>
<path opacity="0.650507" d="M113.333 21.9701C124.656 15.9674 125 0 125 0L0 0C0 0 0 55.6119 0 61.791C3.33332 67.6269 11.25 69 23.3332 69C35.4165 69 52.0831 67.2836 60.4164 51.4925C68.7497 35.7015 65.8843 31.6508 77.083 25.403C88.2818 19.1552 102.01 27.9729 113.333 21.9701Z" fill="#C7E1FE"/>
<path opacity="0.58152" d="M212.647 91.7447C216.786 96.2282 217.3 100.285 217.782 104.834C218.159 108.394 217.884 148.986 217.803 159.908C217.791 161.412 216.584 162.6 215.08 162.6C207.116 162.6 184.17 162.6 182.254 162.6C184.977 156.157 158.774 133.108 158.048 116.145C157.322 99.1806 164.843 88.6936 178.857 83.2034C192.871 77.7132 204.762 83.2034 212.647 91.7447Z" fill="#C7E1FE"/>
<rect x="121" width="98" height="62.3636" fill="#D8D8D8" fill-opacity="0.01"/>
<mask id="mask0" mask-type="alpha" maskUnits="userSpaceOnUse" x="121" y="0" width="98" height="63">
<rect x="121" width="98" height="62.3636" fill="white"/>
</mask>
<g mask="url(#mask0)">
<path opacity="0.1" d="M183.301 0.890923C176.228 0.890923 164.01 0.890921 161.438 7.96441C158.866 15.0379 180.252 14.623 185.231 19.6014C190.209 24.5799 198.236 24.0405 205.808 24.0405C213.38 24.0405 211.945 32.386 218.026 31.114C224.107 29.842 218.669 23.4679 220.598 19.6014C220.598 15.9971 220.598 0.890923 220.598 0.890923C220.598 0.890923 195.198 0.890923 183.301 0.890923Z" fill="#5FACFF"/>
<path opacity="0.2" d="M172.701 58.0158C140.647 46.6276 126.402 72.251 126.402 58.0158C126.402 43.7806 143.497 36.663 152.044 28.1218C160.592 19.5807 156.851 5.34549 169.852 5.34549C182.852 5.34549 176.302 13.3252 190.508 19.5807C204.714 25.8362 219 9.61605 219 28.1218C219 46.6276 204.754 69.404 172.701 58.0158Z" fill="#5FACFF"/>
<path opacity="0.05" d="M129.202 28.6892C130.11 28.2553 131.04 27.7546 131.859 27.1672C132.159 26.9514 131.863 26.5308 131.547 26.6977C130.673 27.1561 129.818 27.748 129.039 28.3509C128.879 28.4711 128.995 28.7871 129.202 28.6892Z" fill="#3792FC"/>
<path opacity="0.05" d="M188.821 37.5191C188.632 36.5311 188.385 35.5032 188.024 34.562C187.893 34.2171 187.41 34.3951 187.49 34.7444C187.711 35.7079 188.067 36.6824 188.452 37.5903C188.529 37.775 188.865 37.7438 188.821 37.5191Z" fill="#3792FC"/>
<path opacity="0.05" d="M132.563 10.7926C132.545 10.777 132.529 10.7614 132.511 10.7481C132.287 10.5478 131.917 10.51 131.699 10.7481C131.479 10.9884 131.486 11.3199 131.699 11.5602C131.715 11.578 131.73 11.5936 131.744 11.6114C131.944 11.8383 132.36 11.8317 132.563 11.6114C132.763 11.3911 132.803 11.0062 132.563 10.7926Z" fill="#3792FC"/>
<path opacity="0.05" d="M184.272 14.2885C184.328 13.9204 184.317 13.5711 184.522 13.246C184.933 12.6011 185.516 12.7623 186.08 13.0471C186.655 13.3373 187.198 13.5093 187.821 13.2406C188.797 12.8187 189.256 11.3463 188.324 10.653C188.023 10.4273 187.725 10.7981 187.765 11.0829C187.821 11.4779 188.017 11.9159 187.679 12.2545C187.225 12.7086 186.693 12.327 186.239 12.1228C185.75 11.9025 185.228 11.8541 184.726 12.0583C183.858 12.4103 183.227 13.5872 183.917 14.3826C184.014 14.4927 184.248 14.4417 184.272 14.2885Z" fill="#3792FC"/>
<path opacity="0.05" d="M174.205 51.5177C173.313 52.3743 172.975 53.707 173.824 54.7377C174.624 55.708 176.177 55.9106 177.176 55.1393C179.593 53.2734 177.073 49.8367 174.468 50.5475C173.984 50.679 174.105 51.3685 174.581 51.3933C175.342 51.436 176.16 51.4644 176.767 52.0011C177.421 52.5733 177.435 53.5436 176.899 54.2046C175.477 55.9497 173.011 53.3801 174.503 51.8163C174.695 51.6208 174.404 51.3294 174.205 51.5177Z" fill="#3792FC"/>
<path opacity="0.05" d="M121.897 45.8343C122.175 46.8692 122.481 47.892 122.802 48.9147C122.878 49.1599 123.111 49.2385 123.322 49.0933C124.154 48.5274 124.984 47.9737 125.773 47.3473C125.925 47.2263 125.891 46.9842 125.743 46.8813C124.82 46.2489 123.577 45.3138 122.405 45.3078C122.109 45.3048 121.9 45.7254 122.203 45.8979C122.675 46.1702 123.241 46.267 123.746 46.4758C124.327 46.7179 124.905 47.0023 125.419 47.3685C125.431 47.199 125.444 47.0296 125.453 46.8601C124.572 47.4018 123.743 48.01 122.908 48.6152C123.071 48.6485 123.238 48.6817 123.401 48.715C123.044 47.7044 122.678 46.7028 122.281 45.7072C122.197 45.4984 121.84 45.6134 121.897 45.8343Z" fill="#3792FC"/>
</g>
<path d="M23.588 117C23.5013 117 23.432 116.974 23.38 116.922C23.328 116.861 23.302 116.788 23.302 116.701V109.369L21.118 111.046C21.0573 111.098 20.9923 111.124 20.923 111.124C20.845 111.124 20.7713 111.081 20.702 110.994L20.39 110.591C20.3466 110.53 20.325 110.47 20.325 110.409C20.325 110.314 20.3683 110.236 20.455 110.175L23.276 107.991C23.3713 107.93 23.484 107.9 23.614 107.9H24.225C24.3116 107.9 24.381 107.93 24.433 107.991C24.4936 108.043 24.524 108.112 24.524 108.199V116.701C24.524 116.788 24.4936 116.861 24.433 116.922C24.381 116.974 24.3116 117 24.225 117H23.588Z" fill="#767E86"/>
<path d="M29.6304 117.13C28.5124 117.13 27.6934 116.805 27.1734 116.155C26.6621 115.496 26.3891 114.638 26.3544 113.581L26.3414 112.463L26.3544 111.306C26.3804 110.257 26.6534 109.408 27.1734 108.758C27.7021 108.099 28.5211 107.77 29.6304 107.77C30.7484 107.77 31.5674 108.099 32.0874 108.758C32.6161 109.408 32.8934 110.257 32.9194 111.306C32.9281 111.549 32.9324 111.934 32.9324 112.463C32.9324 112.974 32.9281 113.347 32.9194 113.581C32.8847 114.638 32.6074 115.496 32.0874 116.155C31.5761 116.805 30.7571 117.13 29.6304 117.13ZM29.6304 116.051C30.2977 116.051 30.8004 115.83 31.1384 115.388C31.4764 114.946 31.6541 114.322 31.6714 113.516C31.6801 113.265 31.6844 112.905 31.6844 112.437C31.6844 111.96 31.6801 111.605 31.6714 111.371C31.6541 110.574 31.4721 109.954 31.1254 109.512C30.7874 109.061 30.2891 108.836 29.6304 108.836C28.9717 108.836 28.4734 109.061 28.1354 109.512C27.7974 109.954 27.6197 110.574 27.6024 111.371L27.5894 112.437L27.6024 113.516C27.6197 114.322 27.7974 114.946 28.1354 115.388C28.4734 115.83 28.9717 116.051 29.6304 116.051Z" fill="#767E86"/>
<path d="M37.857 117.13C36.739 117.13 35.92 116.805 35.4 116.155C34.8886 115.496 34.6156 114.638 34.581 113.581L34.568 112.463L34.581 111.306C34.607 110.257 34.88 109.408 35.4 108.758C35.9286 108.099 36.7476 107.77 37.857 107.77C38.975 107.77 39.794 108.099 40.314 108.758C40.8426 109.408 41.12 110.257 41.146 111.306C41.1546 111.549 41.159 111.934 41.159 112.463C41.159 112.974 41.1546 113.347 41.146 113.581C41.1113 114.638 40.834 115.496 40.314 116.155C39.8026 116.805 38.9836 117.13 37.857 117.13ZM37.857 116.051C38.5243 116.051 39.027 115.83 39.365 115.388C39.703 114.946 39.8806 114.322 39.898 113.516C39.9066 113.265 39.911 112.905 39.911 112.437C39.911 111.96 39.9066 111.605 39.898 111.371C39.8806 110.574 39.6986 109.954 39.352 109.512C39.014 109.061 38.5156 108.836 37.857 108.836C37.1983 108.836 36.7 109.061 36.362 109.512C36.024 109.954 35.8463 110.574 35.829 111.371L35.816 112.437L35.829 113.516C35.8463 114.322 36.024 114.946 36.362 115.388C36.7 115.83 37.1983 116.051 37.857 116.051Z" fill="#767E86"/>
<path d="M44.4845 112.463C43.9212 112.463 43.4749 112.316 43.1455 112.021C42.8249 111.718 42.6515 111.302 42.6255 110.773C42.6169 110.626 42.6125 110.435 42.6125 110.201C42.6125 109.95 42.6169 109.746 42.6255 109.59C42.6515 109.053 42.8205 108.628 43.1325 108.316C43.4445 107.995 43.8952 107.835 44.4845 107.835C45.0739 107.835 45.5245 107.995 45.8365 108.316C46.1572 108.628 46.3305 109.053 46.3565 109.59C46.3739 109.902 46.3825 110.106 46.3825 110.201C46.3825 110.288 46.3739 110.478 46.3565 110.773C46.3305 111.302 46.1529 111.718 45.8235 112.021C45.4942 112.316 45.0479 112.463 44.4845 112.463ZM43.3925 117C43.3145 117 43.2495 116.978 43.1975 116.935C43.1455 116.883 43.1195 116.818 43.1195 116.74C43.1195 116.688 43.1369 116.64 43.1715 116.597L49.5935 108.147C49.6629 108.052 49.7235 107.987 49.7755 107.952C49.8362 107.917 49.9185 107.9 50.0225 107.9H50.4385C50.5165 107.9 50.5772 107.926 50.6205 107.978C50.6725 108.021 50.6985 108.082 50.6985 108.16C50.6985 108.212 50.6812 108.26 50.6465 108.303L44.2375 116.753C44.1682 116.84 44.1032 116.905 44.0425 116.948C43.9905 116.983 43.9125 117 43.8085 117H43.3925ZM44.4845 111.67C44.7965 111.67 45.0262 111.579 45.1735 111.397C45.3209 111.215 45.4075 110.99 45.4335 110.721C45.4509 110.409 45.4595 110.227 45.4595 110.175C45.4595 110.097 45.4509 109.919 45.4335 109.642C45.4162 109.373 45.3295 109.148 45.1735 108.966C45.0262 108.775 44.7965 108.68 44.4845 108.68C44.1725 108.68 43.9429 108.775 43.7955 108.966C43.6482 109.148 43.5659 109.373 43.5485 109.642C43.5399 109.781 43.5355 109.958 43.5355 110.175C43.5355 110.383 43.5399 110.565 43.5485 110.721C43.5745 110.981 43.6569 111.206 43.7955 111.397C43.9429 111.579 44.1725 111.67 44.4845 111.67ZM49.3205 117.078C48.7572 117.078 48.3109 116.918 47.9815 116.597C47.6609 116.276 47.4875 115.852 47.4615 115.323C47.4442 115.063 47.4355 114.89 47.4355 114.803C47.4355 114.716 47.4442 114.5 47.4615 114.153C47.4875 113.616 47.6565 113.191 47.9685 112.879C48.2805 112.558 48.7312 112.398 49.3205 112.398C49.9099 112.398 50.3605 112.558 50.6725 112.879C50.9932 113.191 51.1665 113.616 51.1925 114.153C51.2099 114.465 51.2185 114.664 51.2185 114.751C51.2185 114.838 51.2099 115.028 51.1925 115.323C51.1665 115.852 50.9889 116.276 50.6595 116.597C50.3302 116.918 49.8839 117.078 49.3205 117.078ZM49.3205 116.233C49.6325 116.233 49.8622 116.142 50.0095 115.96C50.1569 115.778 50.2435 115.553 50.2695 115.284C50.2869 114.972 50.2955 114.786 50.2955 114.725C50.2955 114.656 50.2869 114.482 50.2695 114.205C50.2522 113.936 50.1655 113.711 50.0095 113.529C49.8622 113.338 49.6325 113.243 49.3205 113.243C49.0085 113.243 48.7789 113.338 48.6315 113.529C48.4842 113.711 48.4019 113.936 48.3845 114.205C48.3759 114.344 48.3715 114.517 48.3715 114.725C48.3715 114.942 48.3759 115.128 48.3845 115.284C48.4019 115.544 48.4842 115.769 48.6315 115.96C48.7789 116.142 49.0085 116.233 49.3205 116.233Z" fill="#767E86"/>
<path d="M58.484 117.13C57.574 117.13 56.8893 116.835 56.43 116.246C55.9793 115.657 55.7367 114.911 55.702 114.01L55.689 113.62L55.702 113.23C55.7367 112.337 55.9837 111.596 56.443 111.007C56.9023 110.409 57.5827 110.11 58.484 110.11C59.3853 110.11 60.0873 110.431 60.59 111.072V108.069C60.59 107.982 60.616 107.913 60.668 107.861C60.7287 107.8 60.8023 107.77 60.889 107.77H61.474C61.5607 107.77 61.63 107.8 61.682 107.861C61.7427 107.913 61.773 107.982 61.773 108.069V116.701C61.773 116.788 61.7427 116.861 61.682 116.922C61.63 116.974 61.5607 117 61.474 117H60.915C60.8283 117 60.759 116.974 60.707 116.922C60.655 116.861 60.629 116.788 60.629 116.701V116.142C60.135 116.801 59.42 117.13 58.484 117.13ZM58.731 116.116C59.3377 116.116 59.7927 115.917 60.096 115.518C60.3993 115.111 60.564 114.63 60.59 114.075C60.5987 113.98 60.603 113.815 60.603 113.581C60.603 113.338 60.5987 113.169 60.59 113.074C60.5727 112.545 60.4037 112.09 60.083 111.709C59.771 111.319 59.3203 111.124 58.731 111.124C58.107 111.124 57.652 111.319 57.366 111.709C57.08 112.099 56.924 112.61 56.898 113.243L56.885 113.62C56.885 115.284 57.5003 116.116 58.731 116.116Z" fill="#767E86"/>
<path d="M63.9278 108.966C63.8411 108.966 63.7674 108.94 63.7068 108.888C63.6548 108.827 63.6288 108.754 63.6288 108.667V107.991C63.6288 107.904 63.6548 107.831 63.7068 107.77C63.7674 107.709 63.8411 107.679 63.9278 107.679H64.6948C64.7814 107.679 64.8551 107.709 64.9158 107.77C64.9764 107.831 65.0068 107.904 65.0068 107.991V108.667C65.0068 108.754 64.9764 108.827 64.9158 108.888C64.8551 108.94 64.7814 108.966 64.6948 108.966H63.9278ZM64.0318 117C63.9451 117 63.8714 116.974 63.8108 116.922C63.7588 116.861 63.7328 116.788 63.7328 116.701V110.539C63.7328 110.452 63.7588 110.383 63.8108 110.331C63.8714 110.27 63.9451 110.24 64.0318 110.24H64.6038C64.6904 110.24 64.7598 110.27 64.8118 110.331C64.8724 110.383 64.9028 110.452 64.9028 110.539V116.701C64.9028 116.788 64.8724 116.861 64.8118 116.922C64.7598 116.974 64.6904 117 64.6038 117H64.0318Z" fill="#767E86"/>
<path d="M69.5988 119.86C68.8795 119.86 68.3031 119.739 67.8698 119.496C67.4365 119.253 67.1288 118.976 66.9468 118.664C66.7735 118.352 66.6868 118.083 66.6868 117.858C66.6868 117.78 66.7171 117.711 66.7778 117.65C66.8385 117.598 66.9078 117.572 66.9858 117.572H67.5578C67.6358 117.572 67.7008 117.589 67.7528 117.624C67.8048 117.667 67.8481 117.741 67.8828 117.845C68.1255 118.538 68.6758 118.885 69.5338 118.885C70.1838 118.885 70.6648 118.746 70.9768 118.469C71.2888 118.192 71.4448 117.702 71.4448 117V116.103C70.9421 116.744 70.2401 117.065 69.3388 117.065C68.4201 117.065 67.7311 116.77 67.2718 116.181C66.8211 115.592 66.5828 114.846 66.5568 113.945L66.5438 113.581L66.5568 113.23C66.5828 112.337 66.8211 111.596 67.2718 111.007C67.7311 110.409 68.4201 110.11 69.3388 110.11C70.2488 110.11 70.9595 110.444 71.4708 111.111V110.552C71.4708 110.465 71.4968 110.392 71.5488 110.331C71.6095 110.27 71.6831 110.24 71.7698 110.24H72.3288C72.4155 110.24 72.4848 110.27 72.5368 110.331C72.5975 110.392 72.6278 110.465 72.6278 110.552V116.857C72.6278 118.859 71.6181 119.86 69.5988 119.86ZM69.5728 116.051C70.1795 116.051 70.6345 115.856 70.9378 115.466C71.2498 115.067 71.4188 114.591 71.4448 114.036C71.4535 113.958 71.4578 113.806 71.4578 113.581C71.4578 113.364 71.4535 113.217 71.4448 113.139C71.4188 112.584 71.2498 112.112 70.9378 111.722C70.6345 111.323 70.1795 111.124 69.5728 111.124C68.9488 111.124 68.4938 111.323 68.2078 111.722C67.9305 112.112 67.7788 112.619 67.7528 113.243L67.7398 113.581L67.7528 113.932C67.7788 114.556 67.9305 115.067 68.2078 115.466C68.4938 115.856 68.9488 116.051 69.5728 116.051Z" fill="#767E86"/>
<path d="M74.7823 108.966C74.6956 108.966 74.6219 108.94 74.5613 108.888C74.5093 108.827 74.4833 108.754 74.4833 108.667V107.991C74.4833 107.904 74.5093 107.831 74.5613 107.77C74.6219 107.709 74.6956 107.679 74.7823 107.679H75.5493C75.6359 107.679 75.7096 107.709 75.7703 107.77C75.8309 107.831 75.8613 107.904 75.8613 107.991V108.667C75.8613 108.754 75.8309 108.827 75.7703 108.888C75.7096 108.94 75.6359 108.966 75.5493 108.966H74.7823ZM74.8863 117C74.7996 117 74.7259 116.974 74.6653 116.922C74.6133 116.861 74.5873 116.788 74.5873 116.701V110.539C74.5873 110.452 74.6133 110.383 74.6653 110.331C74.7259 110.27 74.7996 110.24 74.8863 110.24H75.4583C75.5449 110.24 75.6143 110.27 75.6663 110.331C75.7269 110.383 75.7573 110.452 75.7573 110.539V116.701C75.7573 116.788 75.7269 116.861 75.6663 116.922C75.6143 116.974 75.5449 117 75.4583 117H74.8863Z" fill="#767E86"/>
<path d="M80.3103 117C78.967 117 78.2953 116.242 78.2953 114.725V111.241H77.2683C77.1816 111.241 77.1123 111.215 77.0603 111.163C77.0083 111.111 76.9823 111.042 76.9823 110.955V110.539C76.9823 110.452 77.0083 110.383 77.0603 110.331C77.1123 110.27 77.1816 110.24 77.2683 110.24H78.2953V108.069C78.2953 107.982 78.3213 107.913 78.3733 107.861C78.4253 107.8 78.4946 107.77 78.5813 107.77H79.1533C79.24 107.77 79.3093 107.8 79.3613 107.861C79.422 107.913 79.4523 107.982 79.4523 108.069V110.24H81.0643C81.151 110.24 81.2203 110.27 81.2723 110.331C81.333 110.383 81.3633 110.452 81.3633 110.539V110.955C81.3633 111.042 81.333 111.111 81.2723 111.163C81.2203 111.215 81.151 111.241 81.0643 111.241H79.4523V114.634C79.4523 115.076 79.5216 115.41 79.6603 115.635C79.8076 115.86 80.0546 115.973 80.4013 115.973H81.1943C81.281 115.973 81.3503 116.003 81.4023 116.064C81.4543 116.116 81.4803 116.185 81.4803 116.272V116.701C81.4803 116.788 81.4543 116.861 81.4023 116.922C81.3503 116.974 81.281 117 81.1943 117H80.3103Z" fill="#767E86"/>
<path d="M84.6223 117.13C84.1977 117.13 83.8033 117.043 83.4393 116.87C83.084 116.697 82.798 116.463 82.5813 116.168C82.3733 115.865 82.2693 115.531 82.2693 115.167C82.2693 114.595 82.5033 114.127 82.9713 113.763C83.4393 113.399 84.0763 113.156 84.8823 113.035L86.8323 112.762V112.385C86.8323 111.492 86.3167 111.046 85.2853 111.046C84.8867 111.046 84.566 111.128 84.3233 111.293C84.0807 111.449 83.903 111.635 83.7903 111.852C83.7557 111.939 83.7167 111.999 83.6733 112.034C83.6387 112.06 83.5867 112.073 83.5173 112.073H83.0103C82.9323 112.073 82.863 112.047 82.8023 111.995C82.7503 111.934 82.7243 111.865 82.7243 111.787C82.7243 111.588 82.8153 111.358 82.9973 111.098C83.188 110.829 83.4783 110.6 83.8683 110.409C84.2583 110.21 84.735 110.11 85.2983 110.11C86.269 110.11 86.9623 110.335 87.3783 110.786C87.803 111.237 88.0153 111.8 88.0153 112.476V116.701C88.0153 116.788 87.985 116.861 87.9243 116.922C87.8723 116.974 87.803 117 87.7163 117H87.1443C87.0577 117 86.9883 116.974 86.9363 116.922C86.8843 116.861 86.8583 116.788 86.8583 116.701V116.129C86.6677 116.415 86.3903 116.653 86.0263 116.844C85.6623 117.035 85.1943 117.13 84.6223 117.13ZM84.8823 116.181C85.4543 116.181 85.9223 115.995 86.2863 115.622C86.6503 115.249 86.8323 114.708 86.8323 113.997V113.633L85.3113 113.854C84.6873 113.941 84.215 114.088 83.8943 114.296C83.5737 114.504 83.4133 114.764 83.4133 115.076C83.4133 115.431 83.5563 115.704 83.8423 115.895C84.137 116.086 84.4837 116.181 84.8823 116.181Z" fill="#767E86"/>
<path d="M90.2098 117C90.1231 117 90.0495 116.974 89.9888 116.922C89.9368 116.861 89.9108 116.788 89.9108 116.701V108.069C89.9108 107.974 89.9368 107.9 89.9888 107.848C90.0495 107.796 90.1231 107.77 90.2098 107.77H90.7818C90.8685 107.77 90.9378 107.8 90.9898 107.861C91.0505 107.913 91.0808 107.982 91.0808 108.069V116.701C91.0808 116.788 91.0505 116.861 90.9898 116.922C90.9378 116.974 90.8685 117 90.7818 117H90.2098Z" fill="#767E86"/>
<path d="M96.5448 119.47C96.4581 119.47 96.3844 119.444 96.3238 119.392C96.2718 119.34 96.2458 119.266 96.2458 119.171V110.539C96.2458 110.444 96.2718 110.37 96.3238 110.318C96.3844 110.266 96.4581 110.24 96.5448 110.24H97.0908C97.1861 110.24 97.2598 110.266 97.3118 110.318C97.3638 110.37 97.3898 110.444 97.3898 110.539V111.111C97.8924 110.444 98.6074 110.11 99.5348 110.11C100.445 110.11 101.125 110.4 101.576 110.981C102.035 111.553 102.278 112.285 102.304 113.178C102.312 113.273 102.317 113.421 102.317 113.62C102.317 113.819 102.312 113.967 102.304 114.062C102.278 114.946 102.035 115.678 101.576 116.259C101.125 116.84 100.445 117.13 99.5348 117.13C98.6074 117.13 97.9054 116.801 97.4288 116.142V119.171C97.4288 119.258 97.3984 119.327 97.3378 119.379C97.2858 119.44 97.2164 119.47 97.1298 119.47H96.5448ZM99.2878 116.116C99.9118 116.116 100.367 115.921 100.653 115.531C100.939 115.141 101.095 114.63 101.121 113.997C101.129 113.91 101.134 113.785 101.134 113.62C101.134 111.956 100.518 111.124 99.2878 111.124C98.6811 111.124 98.2218 111.328 97.9098 111.735C97.6064 112.134 97.4461 112.606 97.4288 113.152C97.4201 113.247 97.4158 113.416 97.4158 113.659C97.4158 113.902 97.4201 114.071 97.4288 114.166C97.4461 114.695 97.6108 115.154 97.9228 115.544C98.2434 115.925 98.6984 116.116 99.2878 116.116Z" fill="#767E86"/>
<path d="M104.251 117C104.164 117 104.09 116.974 104.03 116.922C103.978 116.861 103.952 116.788 103.952 116.701V110.552C103.952 110.465 103.978 110.392 104.03 110.331C104.09 110.27 104.164 110.24 104.251 110.24H104.797C104.892 110.24 104.966 110.27 105.018 110.331C105.078 110.383 105.109 110.457 105.109 110.552V111.124C105.464 110.535 106.066 110.24 106.916 110.24H107.423C107.518 110.24 107.592 110.266 107.644 110.318C107.696 110.37 107.722 110.444 107.722 110.539V111.02C107.722 111.107 107.696 111.18 107.644 111.241C107.592 111.293 107.518 111.319 107.423 111.319H106.682C106.205 111.319 105.828 111.458 105.551 111.735C105.282 112.012 105.148 112.389 105.148 112.866V116.701C105.148 116.788 105.117 116.861 105.057 116.922C104.996 116.974 104.922 117 104.836 117H104.251Z" fill="#767E86"/>
<path d="M111.455 117.13C110.502 117.13 109.765 116.861 109.245 116.324C108.734 115.787 108.461 115.072 108.426 114.179L108.413 113.62L108.426 113.061C108.461 112.168 108.738 111.453 109.258 110.916C109.787 110.379 110.519 110.11 111.455 110.11C112.391 110.11 113.119 110.379 113.639 110.916C114.168 111.453 114.45 112.168 114.484 113.061C114.502 113.252 114.51 113.438 114.51 113.62C114.51 113.802 114.502 113.988 114.484 114.179C114.45 115.072 114.172 115.787 113.652 116.324C113.141 116.861 112.409 117.13 111.455 117.13ZM111.455 116.155C112.01 116.155 112.448 115.982 112.768 115.635C113.098 115.28 113.275 114.773 113.301 114.114C113.31 114.027 113.314 113.863 113.314 113.62C113.314 113.377 113.31 113.213 113.301 113.126C113.275 112.467 113.098 111.965 112.768 111.618C112.448 111.263 112.01 111.085 111.455 111.085C110.901 111.085 110.459 111.263 110.129 111.618C109.809 111.965 109.635 112.467 109.609 113.126L109.596 113.62L109.609 114.114C109.635 114.773 109.809 115.28 110.129 115.635C110.459 115.982 110.901 116.155 111.455 116.155Z" fill="#767E86"/>
<path d="M118.856 117.13C117.928 117.13 117.205 116.87 116.685 116.35C116.165 115.821 115.892 115.085 115.866 114.14L115.853 113.62L115.866 113.1C115.892 112.155 116.165 111.423 116.685 110.903C117.205 110.374 117.928 110.11 118.856 110.11C119.48 110.11 120.004 110.223 120.429 110.448C120.862 110.665 121.183 110.938 121.391 111.267C121.607 111.596 121.724 111.926 121.742 112.255C121.75 112.333 121.72 112.402 121.651 112.463C121.59 112.524 121.521 112.554 121.443 112.554H120.871C120.784 112.554 120.719 112.537 120.676 112.502C120.632 112.459 120.589 112.385 120.546 112.281C120.39 111.856 120.173 111.557 119.896 111.384C119.627 111.202 119.285 111.111 118.869 111.111C118.323 111.111 117.889 111.28 117.569 111.618C117.248 111.956 117.075 112.472 117.049 113.165L117.036 113.62L117.049 114.075C117.075 114.768 117.248 115.284 117.569 115.622C117.889 115.96 118.323 116.129 118.869 116.129C119.293 116.129 119.64 116.042 119.909 115.869C120.177 115.687 120.39 115.384 120.546 114.959C120.589 114.855 120.632 114.786 120.676 114.751C120.719 114.708 120.784 114.686 120.871 114.686H121.443C121.521 114.686 121.59 114.716 121.651 114.777C121.72 114.838 121.75 114.907 121.742 114.985C121.724 115.306 121.607 115.631 121.391 115.96C121.183 116.289 120.862 116.567 120.429 116.792C120.004 117.017 119.48 117.13 118.856 117.13Z" fill="#767E86"/>
<path d="M125.977 117.13C125.093 117.13 124.387 116.857 123.858 116.311C123.33 115.756 123.039 115.002 122.987 114.049L122.974 113.607L122.987 113.178C123.039 112.242 123.33 111.497 123.858 110.942C124.387 110.387 125.093 110.11 125.977 110.11C126.931 110.11 127.667 110.413 128.187 111.02C128.716 111.627 128.98 112.45 128.98 113.49V113.724C128.98 113.811 128.95 113.884 128.889 113.945C128.837 113.997 128.768 114.023 128.681 114.023H124.17V114.14C124.196 114.703 124.37 115.184 124.69 115.583C125.011 115.982 125.436 116.181 125.964 116.181C126.372 116.181 126.701 116.103 126.952 115.947C127.212 115.782 127.407 115.613 127.537 115.44C127.615 115.336 127.676 115.275 127.719 115.258C127.763 115.232 127.836 115.219 127.94 115.219H128.512C128.59 115.219 128.655 115.241 128.707 115.284C128.768 115.327 128.798 115.384 128.798 115.453C128.798 115.644 128.681 115.873 128.447 116.142C128.213 116.411 127.88 116.645 127.446 116.844C127.022 117.035 126.532 117.13 125.977 117.13ZM127.797 113.139V113.1C127.797 112.493 127.633 111.999 127.303 111.618C126.974 111.237 126.532 111.046 125.977 111.046C125.414 111.046 124.972 111.237 124.651 111.618C124.331 111.999 124.17 112.493 124.17 113.1V113.139H127.797Z" fill="#767E86"/>
<path d="M132.875 117.13C132.277 117.13 131.77 117.035 131.354 116.844C130.947 116.645 130.643 116.419 130.444 116.168C130.245 115.917 130.145 115.709 130.145 115.544C130.145 115.457 130.175 115.392 130.236 115.349C130.297 115.297 130.362 115.271 130.431 115.271H130.977C131.029 115.271 131.068 115.28 131.094 115.297C131.129 115.314 131.172 115.353 131.224 115.414C131.423 115.657 131.644 115.847 131.887 115.986C132.138 116.125 132.472 116.194 132.888 116.194C133.356 116.194 133.729 116.107 134.006 115.934C134.292 115.761 134.435 115.509 134.435 115.18C134.435 114.963 134.374 114.79 134.253 114.66C134.132 114.53 133.928 114.413 133.642 114.309C133.365 114.205 132.949 114.092 132.394 113.971C131.64 113.806 131.107 113.568 130.795 113.256C130.483 112.944 130.327 112.541 130.327 112.047C130.327 111.726 130.422 111.419 130.613 111.124C130.804 110.821 131.085 110.578 131.458 110.396C131.839 110.205 132.29 110.11 132.81 110.11C133.356 110.11 133.82 110.201 134.201 110.383C134.591 110.565 134.881 110.777 135.072 111.02C135.271 111.263 135.371 111.466 135.371 111.631C135.371 111.709 135.341 111.774 135.28 111.826C135.228 111.878 135.163 111.904 135.085 111.904H134.591C134.47 111.904 134.383 111.856 134.331 111.761C134.184 111.596 134.058 111.471 133.954 111.384C133.859 111.289 133.716 111.211 133.525 111.15C133.334 111.081 133.096 111.046 132.81 111.046C132.385 111.046 132.06 111.137 131.835 111.319C131.61 111.492 131.497 111.726 131.497 112.021C131.497 112.203 131.545 112.359 131.64 112.489C131.735 112.61 131.917 112.727 132.186 112.84C132.455 112.944 132.853 113.052 133.382 113.165C134.205 113.338 134.786 113.585 135.124 113.906C135.471 114.227 135.644 114.638 135.644 115.141C135.644 115.514 135.536 115.852 135.319 116.155C135.111 116.458 134.795 116.697 134.37 116.87C133.954 117.043 133.456 117.13 132.875 117.13Z" fill="#767E86"/>
<path d="M139.476 117.13C138.878 117.13 138.371 117.035 137.955 116.844C137.548 116.645 137.245 116.419 137.045 116.168C136.846 115.917 136.746 115.709 136.746 115.544C136.746 115.457 136.777 115.392 136.837 115.349C136.898 115.297 136.963 115.271 137.032 115.271H137.578C137.63 115.271 137.669 115.28 137.695 115.297C137.73 115.314 137.773 115.353 137.825 115.414C138.025 115.657 138.246 115.847 138.488 115.986C138.74 116.125 139.073 116.194 139.489 116.194C139.957 116.194 140.33 116.107 140.607 115.934C140.893 115.761 141.036 115.509 141.036 115.18C141.036 114.963 140.976 114.79 140.854 114.66C140.733 114.53 140.529 114.413 140.243 114.309C139.966 114.205 139.55 114.092 138.995 113.971C138.241 113.806 137.708 113.568 137.396 113.256C137.084 112.944 136.928 112.541 136.928 112.047C136.928 111.726 137.024 111.419 137.214 111.124C137.405 110.821 137.687 110.578 138.059 110.396C138.441 110.205 138.891 110.11 139.411 110.11C139.957 110.11 140.421 110.201 140.802 110.383C141.192 110.565 141.483 110.777 141.673 111.02C141.873 111.263 141.972 111.466 141.972 111.631C141.972 111.709 141.942 111.774 141.881 111.826C141.829 111.878 141.764 111.904 141.686 111.904H141.192C141.071 111.904 140.984 111.856 140.932 111.761C140.785 111.596 140.659 111.471 140.555 111.384C140.46 111.289 140.317 111.211 140.126 111.15C139.936 111.081 139.697 111.046 139.411 111.046C138.987 111.046 138.662 111.137 138.436 111.319C138.211 111.492 138.098 111.726 138.098 112.021C138.098 112.203 138.146 112.359 138.241 112.489C138.337 112.61 138.519 112.727 138.787 112.84C139.056 112.944 139.455 113.052 139.983 113.165C140.807 113.338 141.387 113.585 141.725 113.906C142.072 114.227 142.245 114.638 142.245 115.141C142.245 115.514 142.137 115.852 141.92 116.155C141.712 116.458 141.396 116.697 140.971 116.87C140.555 117.043 140.057 117.13 139.476 117.13Z" fill="#767E86"/>
<path d="M148.835 117.13C148.411 117.13 148.016 117.043 147.652 116.87C147.297 116.697 147.011 116.463 146.794 116.168C146.586 115.865 146.482 115.531 146.482 115.167C146.482 114.595 146.716 114.127 147.184 113.763C147.652 113.399 148.289 113.156 149.095 113.035L151.045 112.762V112.385C151.045 111.492 150.53 111.046 149.498 111.046C149.1 111.046 148.779 111.128 148.536 111.293C148.294 111.449 148.116 111.635 148.003 111.852C147.969 111.939 147.93 111.999 147.886 112.034C147.852 112.06 147.8 112.073 147.73 112.073H147.223C147.145 112.073 147.076 112.047 147.015 111.995C146.963 111.934 146.937 111.865 146.937 111.787C146.937 111.588 147.028 111.358 147.21 111.098C147.401 110.829 147.691 110.6 148.081 110.409C148.471 110.21 148.948 110.11 149.511 110.11C150.482 110.11 151.175 110.335 151.591 110.786C152.016 111.237 152.228 111.8 152.228 112.476V116.701C152.228 116.788 152.198 116.861 152.137 116.922C152.085 116.974 152.016 117 151.929 117H151.357C151.271 117 151.201 116.974 151.149 116.922C151.097 116.861 151.071 116.788 151.071 116.701V116.129C150.881 116.415 150.603 116.653 150.239 116.844C149.875 117.035 149.407 117.13 148.835 117.13ZM149.095 116.181C149.667 116.181 150.135 115.995 150.499 115.622C150.863 115.249 151.045 114.708 151.045 113.997V113.633L149.524 113.854C148.9 113.941 148.428 114.088 148.107 114.296C147.787 114.504 147.626 114.764 147.626 115.076C147.626 115.431 147.769 115.704 148.055 115.895C148.35 116.086 148.697 116.181 149.095 116.181Z" fill="#767E86"/>
<path d="M156.647 117C155.304 117 154.632 116.242 154.632 114.725V111.241H153.605C153.519 111.241 153.449 111.215 153.397 111.163C153.345 111.111 153.319 111.042 153.319 110.955V110.539C153.319 110.452 153.345 110.383 153.397 110.331C153.449 110.27 153.519 110.24 153.605 110.24H154.632V108.069C154.632 107.982 154.658 107.913 154.71 107.861C154.762 107.8 154.832 107.77 154.918 107.77H155.49C155.577 107.77 155.646 107.8 155.698 107.861C155.759 107.913 155.789 107.982 155.789 108.069V110.24H157.401C157.488 110.24 157.557 110.27 157.609 110.331C157.67 110.383 157.7 110.452 157.7 110.539V110.955C157.7 111.042 157.67 111.111 157.609 111.163C157.557 111.215 157.488 111.241 157.401 111.241H155.789V114.634C155.789 115.076 155.859 115.41 155.997 115.635C156.145 115.86 156.392 115.973 156.738 115.973H157.531C157.618 115.973 157.687 116.003 157.739 116.064C157.791 116.116 157.817 116.185 157.817 116.272V116.701C157.817 116.788 157.791 116.861 157.739 116.922C157.687 116.974 157.618 117 157.531 117H156.647Z" fill="#767E86"/>
<path d="M164.607 117C163.264 117 162.592 116.242 162.592 114.725V111.241H161.565C161.479 111.241 161.409 111.215 161.357 111.163C161.305 111.111 161.279 111.042 161.279 110.955V110.539C161.279 110.452 161.305 110.383 161.357 110.331C161.409 110.27 161.479 110.24 161.565 110.24H162.592V108.069C162.592 107.982 162.618 107.913 162.67 107.861C162.722 107.8 162.792 107.77 162.878 107.77H163.45C163.537 107.77 163.606 107.8 163.658 107.861C163.719 107.913 163.749 107.982 163.749 108.069V110.24H165.361C165.448 110.24 165.517 110.27 165.569 110.331C165.63 110.383 165.66 110.452 165.66 110.539V110.955C165.66 111.042 165.63 111.111 165.569 111.163C165.517 111.215 165.448 111.241 165.361 111.241H163.749V114.634C163.749 115.076 163.819 115.41 163.957 115.635C164.105 115.86 164.352 115.973 164.698 115.973H165.491C165.578 115.973 165.647 116.003 165.699 116.064C165.751 116.116 165.777 116.185 165.777 116.272V116.701C165.777 116.788 165.751 116.861 165.699 116.922C165.647 116.974 165.578 117 165.491 117H164.607Z" fill="#767E86"/>
<path d="M167.359 117C167.273 117 167.199 116.974 167.138 116.922C167.086 116.861 167.06 116.788 167.06 116.701V108.069C167.06 107.974 167.086 107.9 167.138 107.848C167.199 107.796 167.273 107.77 167.359 107.77H167.957C168.053 107.77 168.126 107.796 168.178 107.848C168.23 107.9 168.256 107.974 168.256 108.069V111.098C168.508 110.777 168.802 110.535 169.14 110.37C169.487 110.197 169.912 110.11 170.414 110.11C171.246 110.11 171.892 110.379 172.351 110.916C172.819 111.445 173.053 112.147 173.053 113.022V116.701C173.053 116.788 173.023 116.861 172.962 116.922C172.91 116.974 172.841 117 172.754 117H172.143C172.057 117 171.983 116.974 171.922 116.922C171.87 116.861 171.844 116.788 171.844 116.701V113.1C171.844 112.476 171.693 111.991 171.389 111.644C171.086 111.297 170.648 111.124 170.076 111.124C169.522 111.124 169.08 111.302 168.75 111.657C168.421 112.004 168.256 112.485 168.256 113.1V116.701C168.256 116.788 168.226 116.861 168.165 116.922C168.113 116.974 168.044 117 167.957 117H167.359Z" fill="#767E86"/>
<path d="M177.622 117.13C176.738 117.13 176.031 116.857 175.503 116.311C174.974 115.756 174.684 115.002 174.632 114.049L174.619 113.607L174.632 113.178C174.684 112.242 174.974 111.497 175.503 110.942C176.031 110.387 176.738 110.11 177.622 110.11C178.575 110.11 179.312 110.413 179.832 111.02C180.36 111.627 180.625 112.45 180.625 113.49V113.724C180.625 113.811 180.594 113.884 180.534 113.945C180.482 113.997 180.412 114.023 180.326 114.023H175.815V114.14C175.841 114.703 176.014 115.184 176.335 115.583C176.655 115.982 177.08 116.181 177.609 116.181C178.016 116.181 178.345 116.103 178.597 115.947C178.857 115.782 179.052 115.613 179.182 115.44C179.26 115.336 179.32 115.275 179.364 115.258C179.407 115.232 179.481 115.219 179.585 115.219H180.157C180.235 115.219 180.3 115.241 180.352 115.284C180.412 115.327 180.443 115.384 180.443 115.453C180.443 115.644 180.326 115.873 180.092 116.142C179.858 116.411 179.524 116.645 179.091 116.844C178.666 117.035 178.176 117.13 177.622 117.13ZM179.442 113.139V113.1C179.442 112.493 179.277 111.999 178.948 111.618C178.618 111.237 178.176 111.046 177.622 111.046C177.058 111.046 176.616 111.237 176.296 111.618C175.975 111.999 175.815 112.493 175.815 113.1V113.139H179.442Z" fill="#767E86"/>
<path d="M23.679 137.13C22.7516 137.13 22.028 136.87 21.508 136.35C20.988 135.821 20.715 135.085 20.689 134.14L20.676 133.62L20.689 133.1C20.715 132.155 20.988 131.423 21.508 130.903C22.028 130.374 22.7516 130.11 23.679 130.11C24.303 130.11 24.8273 130.223 25.252 130.448C25.6853 130.665 26.006 130.938 26.214 131.267C26.4306 131.596 26.5476 131.926 26.565 132.255C26.5736 132.333 26.5433 132.402 26.474 132.463C26.4133 132.524 26.344 132.554 26.266 132.554H25.694C25.6073 132.554 25.5423 132.537 25.499 132.502C25.4556 132.459 25.4123 132.385 25.369 132.281C25.213 131.856 24.9963 131.557 24.719 131.384C24.4503 131.202 24.108 131.111 23.692 131.111C23.146 131.111 22.7126 131.28 22.392 131.618C22.0713 131.956 21.898 132.472 21.872 133.165L21.859 133.62L21.872 134.075C21.898 134.768 22.0713 135.284 22.392 135.622C22.7126 135.96 23.146 136.129 23.692 136.129C24.1166 136.129 24.4633 136.042 24.732 135.869C25.0006 135.687 25.213 135.384 25.369 134.959C25.4123 134.855 25.4556 134.786 25.499 134.751C25.5423 134.708 25.6073 134.686 25.694 134.686H26.266C26.344 134.686 26.4133 134.716 26.474 134.777C26.5433 134.838 26.5736 134.907 26.565 134.985C26.5476 135.306 26.4306 135.631 26.214 135.96C26.006 136.289 25.6853 136.567 25.252 136.792C24.8273 137.017 24.303 137.13 23.679 137.13Z" fill="#767E86"/>
<path d="M30.8654 137.13C29.9121 137.13 29.1754 136.861 28.6554 136.324C28.1441 135.787 27.8711 135.072 27.8364 134.179L27.8234 133.62L27.8364 133.061C27.8711 132.168 28.1484 131.453 28.6684 130.916C29.1971 130.379 29.9294 130.11 30.8654 130.11C31.8014 130.11 32.5294 130.379 33.0494 130.916C33.5781 131.453 33.8597 132.168 33.8944 133.061C33.9117 133.252 33.9204 133.438 33.9204 133.62C33.9204 133.802 33.9117 133.988 33.8944 134.179C33.8597 135.072 33.5824 135.787 33.0624 136.324C32.5511 136.861 31.8187 137.13 30.8654 137.13ZM30.8654 136.155C31.4201 136.155 31.8577 135.982 32.1784 135.635C32.5077 135.28 32.6854 134.773 32.7114 134.114C32.7201 134.027 32.7244 133.863 32.7244 133.62C32.7244 133.377 32.7201 133.213 32.7114 133.126C32.6854 132.467 32.5077 131.965 32.1784 131.618C31.8577 131.263 31.4201 131.085 30.8654 131.085C30.3107 131.085 29.8687 131.263 29.5394 131.618C29.2187 131.965 29.0454 132.467 29.0194 133.126L29.0064 133.62L29.0194 134.114C29.0454 134.773 29.2187 135.28 29.5394 135.635C29.8687 135.982 30.3107 136.155 30.8654 136.155Z" fill="#767E86"/>
<path d="M35.8609 137C35.7742 137 35.7005 136.974 35.6399 136.922C35.5879 136.861 35.5619 136.788 35.5619 136.701V130.539C35.5619 130.452 35.5879 130.383 35.6399 130.331C35.7005 130.27 35.7742 130.24 35.8609 130.24H36.4069C36.4935 130.24 36.5629 130.27 36.6149 130.331C36.6669 130.383 36.6929 130.452 36.6929 130.539V130.981C37.1609 130.4 37.7935 130.11 38.5909 130.11C39.5442 130.11 40.2202 130.509 40.6189 131.306C40.8269 130.942 41.1215 130.652 41.5029 130.435C41.8929 130.218 42.3262 130.11 42.8029 130.11C43.5135 130.11 44.0942 130.353 44.5449 130.838C44.9955 131.323 45.2209 132.025 45.2209 132.944V136.701C45.2209 136.788 45.1905 136.861 45.1299 136.922C45.0779 136.974 45.0085 137 44.9219 137H44.3629C44.2762 137 44.2025 136.974 44.1419 136.922C44.0899 136.861 44.0639 136.788 44.0639 136.701V133.061C44.0639 132.368 43.9209 131.874 43.6349 131.579C43.3489 131.276 42.9719 131.124 42.5039 131.124C42.0879 131.124 41.7282 131.28 41.4249 131.592C41.1302 131.895 40.9829 132.385 40.9829 133.061V136.701C40.9829 136.788 40.9525 136.861 40.8919 136.922C40.8399 136.974 40.7705 137 40.6839 137H40.1119C40.0252 137 39.9515 136.974 39.8909 136.922C39.8389 136.861 39.8129 136.788 39.8129 136.701V133.061C39.8129 132.376 39.6612 131.882 39.3579 131.579C39.0632 131.276 38.6949 131.124 38.2529 131.124C37.8369 131.124 37.4772 131.276 37.1739 131.579C36.8792 131.882 36.7319 132.372 36.7319 133.048V136.701C36.7319 136.788 36.7015 136.861 36.6409 136.922C36.5889 136.974 36.5195 137 36.4329 137H35.8609Z" fill="#767E86"/>
<path d="M47.9753 137C47.8887 137 47.815 136.974 47.7543 136.922C47.7023 136.861 47.6763 136.788 47.6763 136.701V131.241H46.5583C46.4717 131.241 46.398 131.215 46.3373 131.163C46.2853 131.111 46.2593 131.042 46.2593 130.955V130.539C46.2593 130.452 46.2853 130.383 46.3373 130.331C46.398 130.27 46.4717 130.24 46.5583 130.24H47.6763V129.59C47.6763 128.888 47.8453 128.346 48.1833 127.965C48.53 127.575 49.0933 127.38 49.8733 127.38H50.6403C50.727 127.38 50.7963 127.41 50.8483 127.471C50.909 127.523 50.9393 127.592 50.9393 127.679V128.095C50.9393 128.182 50.909 128.251 50.8483 128.303C50.7963 128.355 50.727 128.381 50.6403 128.381H49.8993C49.5007 128.381 49.2233 128.485 49.0673 128.693C48.9113 128.901 48.8333 129.222 48.8333 129.655V130.24H50.5103C50.597 130.24 50.6663 130.27 50.7183 130.331C50.779 130.383 50.8093 130.452 50.8093 130.539V130.955C50.8093 131.042 50.779 131.111 50.7183 131.163C50.6663 131.215 50.597 131.241 50.5103 131.241H48.8333V136.701C48.8333 136.788 48.803 136.861 48.7423 136.922C48.6903 136.974 48.621 137 48.5343 137H47.9753Z" fill="#767E86"/>
<path d="M54.5803 137.13C53.6269 137.13 52.8903 136.861 52.3703 136.324C51.8589 135.787 51.5859 135.072 51.5513 134.179L51.5383 133.62L51.5513 133.061C51.5859 132.168 51.8633 131.453 52.3833 130.916C52.9119 130.379 53.6443 130.11 54.5803 130.11C55.5163 130.11 56.2443 130.379 56.7643 130.916C57.2929 131.453 57.5746 132.168 57.6093 133.061C57.6266 133.252 57.6353 133.438 57.6353 133.62C57.6353 133.802 57.6266 133.988 57.6093 134.179C57.5746 135.072 57.2973 135.787 56.7773 136.324C56.2659 136.861 55.5336 137.13 54.5803 137.13ZM54.5803 136.155C55.1349 136.155 55.5726 135.982 55.8933 135.635C56.2226 135.28 56.4003 134.773 56.4263 134.114C56.4349 134.027 56.4393 133.863 56.4393 133.62C56.4393 133.377 56.4349 133.213 56.4263 133.126C56.4003 132.467 56.2226 131.965 55.8933 131.618C55.5726 131.263 55.1349 131.085 54.5803 131.085C54.0256 131.085 53.5836 131.263 53.2543 131.618C52.9336 131.965 52.7603 132.467 52.7343 133.126L52.7213 133.62L52.7343 134.114C52.7603 134.773 52.9336 135.28 53.2543 135.635C53.5836 135.982 54.0256 136.155 54.5803 136.155Z" fill="#767E86"/>
<path d="M59.5757 137C59.489 137 59.4154 136.974 59.3547 136.922C59.3027 136.861 59.2767 136.788 59.2767 136.701V130.552C59.2767 130.465 59.3027 130.392 59.3547 130.331C59.4154 130.27 59.489 130.24 59.5757 130.24H60.1217C60.217 130.24 60.2907 130.27 60.3427 130.331C60.4034 130.383 60.4337 130.457 60.4337 130.552V131.124C60.789 130.535 61.3914 130.24 62.2407 130.24H62.7477C62.843 130.24 62.9167 130.266 62.9687 130.318C63.0207 130.37 63.0467 130.444 63.0467 130.539V131.02C63.0467 131.107 63.0207 131.18 62.9687 131.241C62.9167 131.293 62.843 131.319 62.7477 131.319H62.0067C61.53 131.319 61.153 131.458 60.8757 131.735C60.607 132.012 60.4727 132.389 60.4727 132.866V136.701C60.4727 136.788 60.4424 136.861 60.3817 136.922C60.321 136.974 60.2474 137 60.1607 137H59.5757Z" fill="#767E86"/>
<path d="M66.7644 137C65.4211 137 64.7494 136.242 64.7494 134.725V131.241H63.7224C63.6357 131.241 63.5664 131.215 63.5144 131.163C63.4624 131.111 63.4364 131.042 63.4364 130.955V130.539C63.4364 130.452 63.4624 130.383 63.5144 130.331C63.5664 130.27 63.6357 130.24 63.7224 130.24H64.7494V128.069C64.7494 127.982 64.7754 127.913 64.8274 127.861C64.8794 127.8 64.9487 127.77 65.0354 127.77H65.6074C65.6941 127.77 65.7634 127.8 65.8154 127.861C65.8761 127.913 65.9064 127.982 65.9064 128.069V130.24H67.5184C67.6051 130.24 67.6744 130.27 67.7264 130.331C67.7871 130.383 67.8174 130.452 67.8174 130.539V130.955C67.8174 131.042 67.7871 131.111 67.7264 131.163C67.6744 131.215 67.6051 131.241 67.5184 131.241H65.9064V134.634C65.9064 135.076 65.9757 135.41 66.1144 135.635C66.2617 135.86 66.5087 135.973 66.8554 135.973H67.6484C67.7351 135.973 67.8044 136.003 67.8564 136.064C67.9084 136.116 67.9344 136.185 67.9344 136.272V136.701C67.9344 136.788 67.9084 136.861 67.8564 136.922C67.8044 136.974 67.7351 137 67.6484 137H66.7644Z" fill="#767E86"/>
<path d="M75.1467 137.13C74.1933 137.13 73.4567 136.861 72.9367 136.324C72.4253 135.787 72.1523 135.072 72.1177 134.179L72.1047 133.62L72.1177 133.061C72.1523 132.168 72.4297 131.453 72.9497 130.916C73.4783 130.379 74.2107 130.11 75.1467 130.11C76.0827 130.11 76.8107 130.379 77.3307 130.916C77.8593 131.453 78.141 132.168 78.1757 133.061C78.193 133.252 78.2017 133.438 78.2017 133.62C78.2017 133.802 78.193 133.988 78.1757 134.179C78.141 135.072 77.8637 135.787 77.3437 136.324C76.8323 136.861 76.1 137.13 75.1467 137.13ZM75.1467 136.155C75.7013 136.155 76.139 135.982 76.4597 135.635C76.789 135.28 76.9667 134.773 76.9927 134.114C77.0013 134.027 77.0057 133.863 77.0057 133.62C77.0057 133.377 77.0013 133.213 76.9927 133.126C76.9667 132.467 76.789 131.965 76.4597 131.618C76.139 131.263 75.7013 131.085 75.1467 131.085C74.592 131.085 74.15 131.263 73.8207 131.618C73.5 131.965 73.3267 132.467 73.3007 133.126L73.2877 133.62L73.3007 134.114C73.3267 134.773 73.5 135.28 73.8207 135.635C74.15 135.982 74.592 136.155 75.1467 136.155Z" fill="#767E86"/>
<path d="M80.7419 137C80.6553 137 80.5816 136.974 80.5209 136.922C80.4689 136.861 80.4429 136.788 80.4429 136.701V131.241H79.3249C79.2383 131.241 79.1646 131.215 79.1039 131.163C79.0519 131.111 79.0259 131.042 79.0259 130.955V130.539C79.0259 130.452 79.0519 130.383 79.1039 130.331C79.1646 130.27 79.2383 130.24 79.3249 130.24H80.4429V129.59C80.4429 128.888 80.6119 128.346 80.9499 127.965C81.2966 127.575 81.8599 127.38 82.6399 127.38H83.4069C83.4936 127.38 83.5629 127.41 83.6149 127.471C83.6756 127.523 83.7059 127.592 83.7059 127.679V128.095C83.7059 128.182 83.6756 128.251 83.6149 128.303C83.5629 128.355 83.4936 128.381 83.4069 128.381H82.6659C82.2673 128.381 81.9899 128.485 81.8339 128.693C81.6779 128.901 81.5999 129.222 81.5999 129.655V130.24H83.2769C83.3636 130.24 83.4329 130.27 83.4849 130.331C83.5456 130.383 83.5759 130.452 83.5759 130.539V130.955C83.5759 131.042 83.5456 131.111 83.4849 131.163C83.4329 131.215 83.3636 131.241 83.2769 131.241H81.5999V136.701C81.5999 136.788 81.5696 136.861 81.5089 136.922C81.4569 136.974 81.3876 137 81.3009 137H80.7419Z" fill="#767E86"/>
<path d="M88.4656 139.47C88.3876 139.47 88.3226 139.444 88.2706 139.392C88.2186 139.34 88.1926 139.279 88.1926 139.21C88.1926 139.184 88.2142 139.106 88.2576 138.976L89.2716 136.597L86.7886 130.734C86.7366 130.63 86.7106 130.556 86.7106 130.513C86.7192 130.435 86.7496 130.37 86.8016 130.318C86.8536 130.266 86.9142 130.24 86.9836 130.24H87.5816C87.7202 130.24 87.8242 130.309 87.8936 130.448L89.8956 135.232L91.9496 130.448C92.0189 130.309 92.1229 130.24 92.2616 130.24H92.8466C92.9159 130.24 92.9766 130.266 93.0286 130.318C93.0806 130.37 93.1066 130.431 93.1066 130.5C93.1066 130.561 93.0849 130.639 93.0416 130.734L89.3626 139.262C89.3192 139.331 89.2716 139.383 89.2196 139.418C89.1762 139.453 89.1156 139.47 89.0376 139.47H88.4656Z" fill="#767E86"/>
<path d="M96.9318 137.13C95.9785 137.13 95.2418 136.861 94.7218 136.324C94.2105 135.787 93.9375 135.072 93.9028 134.179L93.8898 133.62L93.9028 133.061C93.9375 132.168 94.2148 131.453 94.7348 130.916C95.2635 130.379 95.9958 130.11 96.9318 130.11C97.8678 130.11 98.5958 130.379 99.1158 130.916C99.6445 131.453 99.9262 132.168 99.9608 133.061C99.9782 133.252 99.9868 133.438 99.9868 133.62C99.9868 133.802 99.9782 133.988 99.9608 134.179C99.9262 135.072 99.6488 135.787 99.1288 136.324C98.6175 136.861 97.8852 137.13 96.9318 137.13ZM96.9318 136.155C97.4865 136.155 97.9242 135.982 98.2448 135.635C98.5742 135.28 98.7518 134.773 98.7778 134.114C98.7865 134.027 98.7908 133.863 98.7908 133.62C98.7908 133.377 98.7865 133.213 98.7778 133.126C98.7518 132.467 98.5742 131.965 98.2448 131.618C97.9242 131.263 97.4865 131.085 96.9318 131.085C96.3772 131.085 95.9352 131.263 95.6058 131.618C95.2852 131.965 95.1118 132.467 95.0858 133.126L95.0728 133.62L95.0858 134.114C95.1118 134.773 95.2852 135.28 95.6058 135.635C95.9352 135.982 96.3772 136.155 96.9318 136.155Z" fill="#767E86"/>
<path d="M104.15 137.13C103.327 137.13 102.69 136.866 102.239 136.337C101.789 135.8 101.563 135.089 101.563 134.205V130.539C101.563 130.452 101.589 130.383 101.641 130.331C101.702 130.27 101.776 130.24 101.862 130.24H102.46C102.547 130.24 102.616 130.27 102.668 130.331C102.729 130.383 102.759 130.452 102.759 130.539V134.14C102.759 135.457 103.331 136.116 104.475 136.116C105.03 136.116 105.468 135.943 105.788 135.596C106.118 135.241 106.282 134.755 106.282 134.14V130.539C106.282 130.452 106.308 130.383 106.36 130.331C106.421 130.27 106.495 130.24 106.581 130.24H107.179C107.266 130.24 107.335 130.27 107.387 130.331C107.448 130.383 107.478 130.452 107.478 130.539V136.701C107.478 136.788 107.448 136.861 107.387 136.922C107.335 136.974 107.266 137 107.179 137H106.62C106.534 137 106.46 136.974 106.399 136.922C106.347 136.861 106.321 136.788 106.321 136.701V136.116C106.07 136.454 105.775 136.71 105.437 136.883C105.099 137.048 104.67 137.13 104.15 137.13Z" fill="#767E86"/>
<path d="M109.722 137C109.636 137 109.562 136.974 109.501 136.922C109.449 136.861 109.423 136.788 109.423 136.701V130.552C109.423 130.465 109.449 130.392 109.501 130.331C109.562 130.27 109.636 130.24 109.722 130.24H110.268C110.364 130.24 110.437 130.27 110.489 130.331C110.55 130.383 110.58 130.457 110.58 130.552V131.124C110.936 130.535 111.538 130.24 112.387 130.24H112.894C112.99 130.24 113.063 130.266 113.115 130.318C113.167 130.37 113.193 130.444 113.193 130.539V131.02C113.193 131.107 113.167 131.18 113.115 131.241C113.063 131.293 112.99 131.319 112.894 131.319H112.153C111.677 131.319 111.3 131.458 111.022 131.735C110.754 132.012 110.619 132.389 110.619 132.866V136.701C110.619 136.788 110.589 136.861 110.528 136.922C110.468 136.974 110.394 137 110.307 137H109.722Z" fill="#767E86"/>
<path d="M117.517 137C117.431 137 117.357 136.974 117.296 136.922C117.244 136.861 117.218 136.788 117.218 136.701V128.069C117.218 127.974 117.244 127.9 117.296 127.848C117.357 127.796 117.431 127.77 117.517 127.77H118.115C118.211 127.77 118.284 127.796 118.336 127.848C118.388 127.9 118.414 127.974 118.414 128.069V131.098C118.666 130.777 118.96 130.535 119.298 130.37C119.645 130.197 120.07 130.11 120.572 130.11C121.404 130.11 122.05 130.379 122.509 130.916C122.977 131.445 123.211 132.147 123.211 133.022V136.701C123.211 136.788 123.181 136.861 123.12 136.922C123.068 136.974 122.999 137 122.912 137H122.301C122.215 137 122.141 136.974 122.08 136.922C122.028 136.861 122.002 136.788 122.002 136.701V133.1C122.002 132.476 121.851 131.991 121.547 131.644C121.244 131.297 120.806 131.124 120.234 131.124C119.68 131.124 119.238 131.302 118.908 131.657C118.579 132.004 118.414 132.485 118.414 133.1V136.701C118.414 136.788 118.384 136.861 118.323 136.922C118.271 136.974 118.202 137 118.115 137H117.517Z" fill="#767E86"/>
<path d="M127.845 137.13C126.892 137.13 126.155 136.861 125.635 136.324C125.124 135.787 124.851 135.072 124.816 134.179L124.803 133.62L124.816 133.061C124.851 132.168 125.128 131.453 125.648 130.916C126.177 130.379 126.909 130.11 127.845 130.11C128.781 130.11 129.509 130.379 130.029 130.916C130.558 131.453 130.839 132.168 130.874 133.061C130.891 133.252 130.9 133.438 130.9 133.62C130.9 133.802 130.891 133.988 130.874 134.179C130.839 135.072 130.562 135.787 130.042 136.324C129.531 136.861 128.798 137.13 127.845 137.13ZM127.845 136.155C128.4 136.155 128.837 135.982 129.158 135.635C129.487 135.28 129.665 134.773 129.691 134.114C129.7 134.027 129.704 133.863 129.704 133.62C129.704 133.377 129.7 133.213 129.691 133.126C129.665 132.467 129.487 131.965 129.158 131.618C128.837 131.263 128.4 131.085 127.845 131.085C127.29 131.085 126.848 131.263 126.519 131.618C126.198 131.965 126.025 132.467 125.999 133.126L125.986 133.62L125.999 134.114C126.025 134.773 126.198 135.28 126.519 135.635C126.848 135.982 127.29 136.155 127.845 136.155Z" fill="#767E86"/>
<path d="M132.84 137C132.754 137 132.68 136.974 132.619 136.922C132.567 136.861 132.541 136.788 132.541 136.701V130.539C132.541 130.452 132.567 130.383 132.619 130.331C132.68 130.27 132.754 130.24 132.84 130.24H133.386C133.473 130.24 133.542 130.27 133.594 130.331C133.646 130.383 133.672 130.452 133.672 130.539V130.981C134.14 130.4 134.773 130.11 135.57 130.11C136.524 130.11 137.2 130.509 137.598 131.306C137.806 130.942 138.101 130.652 138.482 130.435C138.872 130.218 139.306 130.11 139.782 130.11C140.493 130.11 141.074 130.353 141.524 130.838C141.975 131.323 142.2 132.025 142.2 132.944V136.701C142.2 136.788 142.17 136.861 142.109 136.922C142.057 136.974 141.988 137 141.901 137H141.342C141.256 137 141.182 136.974 141.121 136.922C141.069 136.861 141.043 136.788 141.043 136.701V133.061C141.043 132.368 140.9 131.874 140.614 131.579C140.328 131.276 139.951 131.124 139.483 131.124C139.067 131.124 138.708 131.28 138.404 131.592C138.11 131.895 137.962 132.385 137.962 133.061V136.701C137.962 136.788 137.932 136.861 137.871 136.922C137.819 136.974 137.75 137 137.663 137H137.091C137.005 137 136.931 136.974 136.87 136.922C136.818 136.861 136.792 136.788 136.792 136.701V133.061C136.792 132.376 136.641 131.882 136.337 131.579C136.043 131.276 135.674 131.124 135.232 131.124C134.816 131.124 134.457 131.276 134.153 131.579C133.859 131.882 133.711 132.372 133.711 133.048V136.701C133.711 136.788 133.681 136.861 133.62 136.922C133.568 136.974 133.499 137 133.412 137H132.84Z" fill="#767E86"/>
<path d="M146.759 137.13C145.875 137.13 145.169 136.857 144.64 136.311C144.112 135.756 143.821 135.002 143.769 134.049L143.756 133.607L143.769 133.178C143.821 132.242 144.112 131.497 144.64 130.942C145.169 130.387 145.875 130.11 146.759 130.11C147.713 130.11 148.449 130.413 148.969 131.02C149.498 131.627 149.762 132.45 149.762 133.49V133.724C149.762 133.811 149.732 133.884 149.671 133.945C149.619 133.997 149.55 134.023 149.463 134.023H144.952V134.14C144.978 134.703 145.152 135.184 145.472 135.583C145.793 135.982 146.218 136.181 146.746 136.181C147.154 136.181 147.483 136.103 147.734 135.947C147.994 135.782 148.189 135.613 148.319 135.44C148.397 135.336 148.458 135.275 148.501 135.258C148.545 135.232 148.618 135.219 148.722 135.219H149.294C149.372 135.219 149.437 135.241 149.489 135.284C149.55 135.327 149.58 135.384 149.58 135.453C149.58 135.644 149.463 135.873 149.229 136.142C148.995 136.411 148.662 136.645 148.228 136.844C147.804 137.035 147.314 137.13 146.759 137.13ZM148.579 133.139V133.1C148.579 132.493 148.415 131.999 148.085 131.618C147.756 131.237 147.314 131.046 146.759 131.046C146.196 131.046 145.754 131.237 145.433 131.618C145.113 131.999 144.952 132.493 144.952 133.1V133.139H148.579Z" fill="#767E86"/>
<path d="M20.945 88C20.835 88 20.745 87.965 20.675 87.895C20.615 87.825 20.585 87.735 20.585 87.625V86.56C20.585 86.43 20.605 86.325 20.645 86.245C20.695 86.165 20.75 86.085 20.81 86.005L26.015 79.3H21.095C20.995 79.3 20.91 79.265 20.84 79.195C20.77 79.125 20.735 79.035 20.735 78.925V77.875C20.735 77.765 20.765 77.675 20.825 77.605C20.895 77.535 20.985 77.5 21.095 77.5H28.28C28.39 77.5 28.48 77.535 28.55 77.605C28.62 77.675 28.655 77.765 28.655 77.875V78.925C28.655 79.125 28.59 79.3 28.46 79.45L23.375 86.2H28.46C28.57 86.2 28.655 86.235 28.715 86.305C28.785 86.365 28.82 86.45 28.82 86.56V87.64C28.82 87.74 28.785 87.825 28.715 87.895C28.655 87.965 28.57 88 28.46 88H20.945Z" fill="#3792FC"/>
<path d="M33.6081 88.15C32.4881 88.15 31.5981 87.83 30.9381 87.19C30.2881 86.55 29.9431 85.64 29.9031 84.46L29.8881 84.085C29.8881 82.835 30.2131 81.85 30.8631 81.13C31.5231 80.41 32.4331 80.05 33.5931 80.05C34.7831 80.05 35.6981 80.41 36.3381 81.13C36.9881 81.85 37.3131 82.81 37.3131 84.01V84.325C37.3131 84.425 37.2781 84.51 37.2081 84.58C37.1381 84.65 37.0481 84.685 36.9381 84.685H31.9581V84.805C31.9781 85.365 32.1281 85.83 32.4081 86.2C32.6981 86.56 33.0931 86.74 33.5931 86.74C34.1631 86.74 34.6281 86.51 34.9881 86.05C35.0781 85.94 35.1481 85.875 35.1981 85.855C35.2481 85.825 35.3331 85.81 35.4531 85.81H36.7731C36.8631 85.81 36.9381 85.835 36.9981 85.885C37.0681 85.935 37.1031 86.005 37.1031 86.095C37.1031 86.335 36.9581 86.62 36.6681 86.95C36.3881 87.27 35.9831 87.55 35.4531 87.79C34.9231 88.03 34.3081 88.15 33.6081 88.15ZM35.2431 83.41V83.38C35.2431 82.79 35.0931 82.32 34.7931 81.97C34.5031 81.61 34.1031 81.43 33.5931 81.43C33.0831 81.43 32.6831 81.61 32.3931 81.97C32.1031 82.32 31.9581 82.79 31.9581 83.38V83.41H35.2431Z" fill="#3792FC"/>
<path d="M39.265 88C39.165 88 39.08 87.965 39.01 87.895C38.94 87.825 38.905 87.74 38.905 87.64V80.575C38.905 80.465 38.94 80.375 39.01 80.305C39.08 80.235 39.165 80.2 39.265 80.2H40.495C40.605 80.2 40.695 80.235 40.765 80.305C40.835 80.375 40.87 80.465 40.87 80.575V81.19C41.37 80.53 42.09 80.2 43.03 80.2H43.66C43.77 80.2 43.855 80.235 43.915 80.305C43.985 80.365 44.02 80.45 44.02 80.56V81.655C44.02 81.755 43.985 81.84 43.915 81.91C43.855 81.98 43.77 82.015 43.66 82.015H42.475C42.005 82.015 41.635 82.15 41.365 82.42C41.095 82.69 40.96 83.06 40.96 83.53V87.64C40.96 87.74 40.925 87.825 40.855 87.895C40.785 87.965 40.7 88 40.6 88H39.265Z" fill="#3792FC"/>
<path d="M48.5516 88.15C47.3716 88.15 46.4616 87.85 45.8216 87.25C45.1816 86.65 44.8366 85.82 44.7866 84.76L44.7716 84.1L44.7866 83.44C44.8366 82.39 45.1866 81.565 45.8366 80.965C46.4866 80.355 47.3916 80.05 48.5516 80.05C49.7016 80.05 50.6016 80.355 51.2516 80.965C51.9016 81.565 52.2516 82.39 52.3016 83.44C52.3116 83.56 52.3166 83.78 52.3166 84.1C52.3166 84.42 52.3116 84.64 52.3016 84.76C52.2516 85.82 51.9066 86.65 51.2666 87.25C50.6266 87.85 49.7216 88.15 48.5516 88.15ZM48.5516 86.635C49.0816 86.635 49.4866 86.47 49.7666 86.14C50.0566 85.81 50.2116 85.325 50.2316 84.685C50.2416 84.585 50.2466 84.39 50.2466 84.1C50.2466 83.81 50.2416 83.615 50.2316 83.515C50.2116 82.875 50.0566 82.39 49.7666 82.06C49.4766 81.72 49.0716 81.55 48.5516 81.55C48.0216 81.55 47.6116 81.72 47.3216 82.06C47.0316 82.39 46.8766 82.875 46.8566 83.515L46.8416 84.1L46.8566 84.685C46.8766 85.325 47.0316 85.81 47.3216 86.14C47.6116 86.47 48.0216 86.635 48.5516 86.635Z" fill="#3792FC"/>
<path d="M57.7663 90.85C57.6663 90.85 57.5813 90.815 57.5113 90.745C57.4413 90.685 57.4063 90.6 57.4063 90.49V80.56C57.4063 80.45 57.4413 80.365 57.5113 80.305C57.5813 80.235 57.6663 80.2 57.7663 80.2H58.9663C59.0763 80.2 59.1663 80.235 59.2363 80.305C59.3063 80.375 59.3413 80.46 59.3413 80.56V81.16C59.8713 80.42 60.6663 80.05 61.7263 80.05C62.7363 80.05 63.5113 80.37 64.0513 81.01C64.5913 81.64 64.8813 82.49 64.9213 83.56C64.9313 83.68 64.9363 83.86 64.9363 84.1C64.9363 84.34 64.9313 84.52 64.9213 84.64C64.8913 85.69 64.6013 86.54 64.0513 87.19C63.5113 87.83 62.7363 88.15 61.7263 88.15C60.7263 88.15 59.9613 87.795 59.4313 87.085V90.49C59.4313 90.6 59.3963 90.685 59.3263 90.745C59.2663 90.815 59.1813 90.85 59.0713 90.85H57.7663ZM61.1563 86.53C62.2263 86.53 62.7963 85.87 62.8663 84.55C62.8763 84.45 62.8813 84.3 62.8813 84.1C62.8813 83.9 62.8763 83.75 62.8663 83.65C62.7963 82.33 62.2263 81.67 61.1563 81.67C60.5863 81.67 60.1613 81.855 59.8813 82.225C59.6013 82.595 59.4513 83.045 59.4313 83.575C59.4213 83.695 59.4163 83.885 59.4163 84.145C59.4163 84.405 59.4213 84.6 59.4313 84.73C59.4513 85.23 59.6063 85.655 59.8963 86.005C60.1863 86.355 60.6063 86.53 61.1563 86.53Z" fill="#3792FC"/>
<path d="M68.8702 88.15C68.3602 88.15 67.8902 88.05 67.4602 87.85C67.0402 87.64 66.7052 87.36 66.4552 87.01C66.2152 86.66 66.0952 86.275 66.0952 85.855C66.0952 85.175 66.3702 84.625 66.9202 84.205C67.4702 83.785 68.2252 83.5 69.1852 83.35L71.2402 83.05V82.735C71.2402 82.305 71.1302 81.98 70.9102 81.76C70.6902 81.54 70.3402 81.43 69.8602 81.43C69.5302 81.43 69.2652 81.49 69.0652 81.61C68.8652 81.73 68.7002 81.855 68.5702 81.985C68.4502 82.105 68.3702 82.185 68.3302 82.225C68.2902 82.345 68.2152 82.405 68.1052 82.405H66.9352C66.8452 82.405 66.7652 82.375 66.6952 82.315C66.6352 82.255 66.6052 82.175 66.6052 82.075C66.6152 81.825 66.7352 81.545 66.9652 81.235C67.2052 80.915 67.5702 80.64 68.0602 80.41C68.5502 80.17 69.1552 80.05 69.8752 80.05C71.0552 80.05 71.9152 80.315 72.4552 80.845C72.9952 81.375 73.2652 82.07 73.2652 82.93V87.64C73.2652 87.74 73.2302 87.825 73.1602 87.895C73.1002 87.965 73.0152 88 72.9052 88H71.6602C71.5602 88 71.4752 87.965 71.4052 87.895C71.3352 87.825 71.3002 87.74 71.3002 87.64V87.055C71.0802 87.375 70.7702 87.64 70.3702 87.85C69.9702 88.05 69.4702 88.15 68.8702 88.15ZM69.3802 86.71C69.9302 86.71 70.3802 86.53 70.7302 86.17C71.0802 85.81 71.2552 85.29 71.2552 84.61V84.31L69.7552 84.55C68.6052 84.73 68.0302 85.115 68.0302 85.705C68.0302 86.025 68.1602 86.275 68.4202 86.455C68.6902 86.625 69.0102 86.71 69.3802 86.71Z" fill="#3792FC"/>
<path d="M75.5642 90.85C75.4642 90.85 75.3792 90.815 75.3092 90.745C75.2392 90.685 75.2042 90.6 75.2042 90.49V80.56C75.2042 80.45 75.2392 80.365 75.3092 80.305C75.3792 80.235 75.4642 80.2 75.5642 80.2H76.7642C76.8742 80.2 76.9642 80.235 77.0342 80.305C77.1042 80.375 77.1392 80.46 77.1392 80.56V81.16C77.6692 80.42 78.4642 80.05 79.5242 80.05C80.5342 80.05 81.3092 80.37 81.8492 81.01C82.3892 81.64 82.6792 82.49 82.7192 83.56C82.7292 83.68 82.7342 83.86 82.7342 84.1C82.7342 84.34 82.7292 84.52 82.7192 84.64C82.6892 85.69 82.3992 86.54 81.8492 87.19C81.3092 87.83 80.5342 88.15 79.5242 88.15C78.5242 88.15 77.7592 87.795 77.2292 87.085V90.49C77.2292 90.6 77.1942 90.685 77.1242 90.745C77.0642 90.815 76.9792 90.85 76.8692 90.85H75.5642ZM78.9542 86.53C80.0242 86.53 80.5942 85.87 80.6642 84.55C80.6742 84.45 80.6792 84.3 80.6792 84.1C80.6792 83.9 80.6742 83.75 80.6642 83.65C80.5942 82.33 80.0242 81.67 78.9542 81.67C78.3842 81.67 77.9592 81.855 77.6792 82.225C77.3992 82.595 77.2492 83.045 77.2292 83.575C77.2192 83.695 77.2142 83.885 77.2142 84.145C77.2142 84.405 77.2192 84.6 77.2292 84.73C77.2492 85.23 77.4042 85.655 77.6942 86.005C77.9842 86.355 78.4042 86.53 78.9542 86.53Z" fill="#3792FC"/>
<path d="M87.778 88.15C86.658 88.15 85.7681 87.83 85.108 87.19C84.458 86.55 84.1131 85.64 84.0731 84.46L84.058 84.085C84.058 82.835 84.383 81.85 85.0331 81.13C85.6931 80.41 86.603 80.05 87.763 80.05C88.953 80.05 89.868 80.41 90.508 81.13C91.1581 81.85 91.483 82.81 91.483 84.01V84.325C91.483 84.425 91.4481 84.51 91.3781 84.58C91.3081 84.65 91.218 84.685 91.108 84.685H86.128V84.805C86.148 85.365 86.298 85.83 86.578 86.2C86.868 86.56 87.263 86.74 87.763 86.74C88.333 86.74 88.798 86.51 89.1581 86.05C89.248 85.94 89.318 85.875 89.368 85.855C89.4181 85.825 89.503 85.81 89.623 85.81H90.943C91.033 85.81 91.108 85.835 91.168 85.885C91.238 85.935 91.273 86.005 91.273 86.095C91.273 86.335 91.1281 86.62 90.8381 86.95C90.5581 87.27 90.153 87.55 89.623 87.79C89.093 88.03 88.478 88.15 87.778 88.15ZM89.413 83.41V83.38C89.413 82.79 89.2631 82.32 88.9631 81.97C88.673 81.61 88.273 81.43 87.763 81.43C87.253 81.43 86.8531 81.61 86.563 81.97C86.273 82.32 86.128 82.79 86.128 83.38V83.41H89.413Z" fill="#3792FC"/>
<path d="M93.4349 88C93.3349 88 93.2499 87.965 93.1799 87.895C93.1099 87.825 93.0749 87.74 93.0749 87.64V80.575C93.0749 80.465 93.1099 80.375 93.1799 80.305C93.2499 80.235 93.3349 80.2 93.4349 80.2H94.6649C94.7749 80.2 94.8649 80.235 94.9349 80.305C95.0049 80.375 95.0399 80.465 95.0399 80.575V81.19C95.5399 80.53 96.2599 80.2 97.1999 80.2H97.8299C97.9399 80.2 98.0249 80.235 98.0849 80.305C98.1549 80.365 98.1899 80.45 98.1899 80.56V81.655C98.1899 81.755 98.1549 81.84 98.0849 81.91C98.0249 81.98 97.9399 82.015 97.8299 82.015H96.6449C96.1749 82.015 95.8049 82.15 95.5349 82.42C95.2649 82.69 95.1299 83.06 95.1299 83.53V87.64C95.1299 87.74 95.0949 87.825 95.0249 87.895C94.9549 87.965 94.8699 88 94.7699 88H93.4349Z" fill="#3792FC"/>
<path d="M101.489 88C101.239 88 101.074 87.875 100.994 87.625L98.8491 80.665C98.8391 80.635 98.8341 80.59 98.8341 80.53C98.8341 80.44 98.8641 80.365 98.9241 80.305C98.9841 80.235 99.0591 80.2 99.1491 80.2H100.289C100.389 80.2 100.474 80.23 100.544 80.29C100.624 80.35 100.674 80.415 100.694 80.485L102.149 85.42L103.694 80.53C103.724 80.44 103.774 80.365 103.844 80.305C103.924 80.235 104.024 80.2 104.144 80.2H104.909C105.029 80.2 105.124 80.235 105.194 80.305C105.274 80.365 105.324 80.44 105.344 80.53L106.904 85.42L108.359 80.485C108.379 80.415 108.424 80.35 108.494 80.29C108.564 80.23 108.654 80.2 108.764 80.2H109.889C109.979 80.2 110.054 80.235 110.114 80.305C110.184 80.365 110.219 80.44 110.219 80.53L110.189 80.665L108.044 87.625C108.004 87.745 107.944 87.84 107.864 87.91C107.794 87.97 107.694 88 107.564 88H106.574C106.314 88 106.149 87.875 106.079 87.625L104.534 82.915L102.974 87.625C102.894 87.875 102.724 88 102.464 88H101.489Z" fill="#3792FC"/>
<path d="M114.924 88.15C113.744 88.15 112.834 87.85 112.194 87.25C111.554 86.65 111.209 85.82 111.159 84.76L111.144 84.1L111.159 83.44C111.209 82.39 111.559 81.565 112.209 80.965C112.859 80.355 113.764 80.05 114.924 80.05C116.074 80.05 116.974 80.355 117.624 80.965C118.274 81.565 118.624 82.39 118.674 83.44C118.684 83.56 118.689 83.78 118.689 84.1C118.689 84.42 118.684 84.64 118.674 84.76C118.624 85.82 118.279 86.65 117.639 87.25C116.999 87.85 116.094 88.15 114.924 88.15ZM114.924 86.635C115.454 86.635 115.859 86.47 116.139 86.14C116.429 85.81 116.584 85.325 116.604 84.685C116.614 84.585 116.619 84.39 116.619 84.1C116.619 83.81 116.614 83.615 116.604 83.515C116.584 82.875 116.429 82.39 116.139 82.06C115.849 81.72 115.444 81.55 114.924 81.55C114.394 81.55 113.984 81.72 113.694 82.06C113.404 82.39 113.249 82.875 113.229 83.515L113.214 84.1L113.229 84.685C113.249 85.325 113.404 85.81 113.694 86.14C113.984 86.47 114.394 86.635 114.924 86.635Z" fill="#3792FC"/>
<path d="M120.71 88C120.61 88 120.525 87.965 120.455 87.895C120.385 87.825 120.35 87.74 120.35 87.64V80.575C120.35 80.465 120.385 80.375 120.455 80.305C120.525 80.235 120.61 80.2 120.71 80.2H121.94C122.05 80.2 122.14 80.235 122.21 80.305C122.28 80.375 122.315 80.465 122.315 80.575V81.19C122.815 80.53 123.535 80.2 124.475 80.2H125.105C125.215 80.2 125.3 80.235 125.36 80.305C125.43 80.365 125.465 80.45 125.465 80.56V81.655C125.465 81.755 125.43 81.84 125.36 81.91C125.3 81.98 125.215 82.015 125.105 82.015H123.92C123.45 82.015 123.08 82.15 122.81 82.42C122.54 82.69 122.405 83.06 122.405 83.53V87.64C122.405 87.74 122.37 87.825 122.3 87.895C122.23 87.965 122.145 88 122.045 88H120.71Z" fill="#3792FC"/>
<path d="M127.009 88C126.909 88 126.824 87.965 126.754 87.895C126.684 87.825 126.649 87.74 126.649 87.64V77.71C126.649 77.6 126.684 77.515 126.754 77.455C126.824 77.385 126.909 77.35 127.009 77.35H128.254C128.354 77.35 128.439 77.385 128.509 77.455C128.579 77.525 128.614 77.61 128.614 77.71V82.84L131.104 80.455C131.134 80.435 131.179 80.4 131.239 80.35C131.309 80.29 131.374 80.25 131.434 80.23C131.494 80.21 131.569 80.2 131.659 80.2H133.084C133.184 80.2 133.264 80.23 133.324 80.29C133.384 80.35 133.414 80.43 133.414 80.53C133.414 80.62 133.364 80.71 133.264 80.8L130.204 83.695L133.639 87.415C133.729 87.505 133.774 87.59 133.774 87.67C133.774 87.77 133.744 87.85 133.684 87.91C133.624 87.97 133.549 88 133.459 88H132.004C131.864 88 131.759 87.985 131.689 87.955C131.629 87.915 131.549 87.845 131.449 87.745L128.614 84.73V87.64C128.614 87.74 128.579 87.825 128.509 87.895C128.439 87.965 128.354 88 128.254 88H127.009Z" fill="#3792FC"/>
<path d="M198.733 17.3517H198.448V9.52819C198.448 8.32724 197.971 7.17548 197.121 6.32628C196.272 5.47708 195.12 5 193.919 5H177.344C176.749 5 176.16 5.11713 175.611 5.34469C175.061 5.57225 174.562 5.9058 174.142 6.32628C173.721 6.74676 173.388 7.24594 173.16 7.79533C172.933 8.34471 172.816 8.93354 172.816 9.52819V52.4491C172.816 53.6501 173.293 54.8018 174.142 55.651C174.991 56.5002 176.143 56.9773 177.344 56.9773H193.919C195.12 56.9773 196.272 56.5002 197.121 55.651C197.97 54.8018 198.448 53.6501 198.448 52.4491V22.9206H198.733L198.733 17.3517Z" fill="#3792FC"/>
<path d="M194.102 6.17764H191.939C192.038 6.4216 192.076 6.68629 192.049 6.94838C192.022 7.21048 191.931 7.46193 191.784 7.6806C191.637 7.89927 191.439 8.07844 191.206 8.20231C190.974 8.32619 190.714 8.39098 190.451 8.39097H180.955C180.691 8.39096 180.432 8.32615 180.2 8.20226C179.967 8.07838 179.769 7.89921 179.622 7.68054C179.475 7.46188 179.384 7.21043 179.357 6.94835C179.33 6.68626 179.368 6.42159 179.467 6.17764H177.447C176.55 6.17764 175.69 6.53392 175.055 7.16809C174.421 7.80227 174.065 8.66239 174.065 9.55925V52.4179C174.065 53.3147 174.421 54.1749 175.055 54.809C175.69 55.4432 176.55 55.7995 177.447 55.7995H194.102C194.999 55.7995 195.859 55.4432 196.493 54.809C197.127 54.1749 197.484 53.3147 197.484 52.4179V9.55918C197.484 8.66234 197.127 7.80223 196.493 7.16807C195.859 6.53391 194.999 6.17764 194.102 6.17764Z" fill="#D6ECFF"/>
<path d="M180.736 16.1745C180.646 16.1753 180.557 16.1571 180.474 16.121C180.391 16.085 180.317 16.032 180.256 15.9654C180.184 15.8817 180.13 15.7841 180.097 15.6785C180.064 15.573 180.054 15.4618 180.066 15.352C180.083 15.1428 180.171 14.9456 180.315 14.7927C180.384 14.7181 180.467 14.6583 180.56 14.6171C180.653 14.5759 180.754 14.5541 180.855 14.5531C180.95 14.5527 181.044 14.5722 181.13 14.6104C181.217 14.6485 181.294 14.7044 181.358 14.7745C181.43 14.8559 181.484 14.9513 181.517 15.0548C181.551 15.1583 181.562 15.2675 181.551 15.3757C181.538 15.5976 181.442 15.8065 181.283 15.9616C181.134 16.0996 180.939 16.1758 180.736 16.1745ZM180.855 14.8234C180.591 14.8234 180.362 15.066 180.335 15.3757C180.326 15.4481 180.332 15.5217 180.353 15.5918C180.373 15.6618 180.408 15.7269 180.455 15.7829C180.491 15.8219 180.534 15.853 180.583 15.8739C180.631 15.8948 180.684 15.9052 180.736 15.9042C180.984 15.9042 181.248 15.7335 181.282 15.3519C181.29 15.2811 181.283 15.2095 181.261 15.1415C181.24 15.0736 181.205 15.0107 181.158 14.957C181.12 14.9147 181.073 14.881 181.021 14.8579C180.969 14.8349 180.912 14.8231 180.855 14.8234Z" fill="#3792FC"/>
<path d="M180.745 16.9851C180.536 16.9885 180.329 16.9475 180.137 16.8646C179.945 16.7818 179.773 16.6591 179.632 16.5046C179.491 16.3502 179.385 16.1675 179.32 15.9688C179.255 15.7701 179.233 15.5599 179.255 15.352C179.3 14.9158 179.502 14.511 179.825 14.2143C180.148 13.9176 180.569 13.7498 181.007 13.7425C181.494 13.7425 181.894 13.8988 182.165 14.1945C182.421 14.4748 182.542 14.8695 182.503 15.3058C182.467 15.7192 182.291 15.9344 182.151 16.0422C182.088 16.0929 182.017 16.1304 181.94 16.1525C181.863 16.1745 181.782 16.1808 181.702 16.1707C181.48 16.1313 181.234 15.9292 181.273 15.4896L181.344 14.6768C181.348 14.6413 181.365 14.6085 181.392 14.5856C181.42 14.5627 181.455 14.5516 181.491 14.5548C181.526 14.5579 181.559 14.575 181.582 14.6023C181.605 14.6296 181.616 14.665 181.613 14.7005L181.542 15.5133C181.523 15.7319 181.6 15.8782 181.75 15.9046C181.836 15.9113 181.921 15.8837 181.986 15.8277C182.084 15.7529 182.206 15.5975 182.234 15.2821C182.266 14.917 182.173 14.604 181.965 14.377C181.747 14.1387 181.416 14.0127 181.007 14.0127C180.636 14.0197 180.281 14.1622 180.008 14.4133C179.734 14.6643 179.563 15.0066 179.524 15.3756C179.505 15.5461 179.523 15.7187 179.575 15.882C179.628 16.0452 179.716 16.1952 179.831 16.3221C179.947 16.4489 180.088 16.5495 180.246 16.6173C180.403 16.685 180.574 16.7183 180.745 16.7149C180.957 16.7264 181.168 16.688 181.362 16.603C181.395 16.5893 181.432 16.5893 181.465 16.6028C181.498 16.6164 181.525 16.6425 181.539 16.6755C181.552 16.7084 181.553 16.7455 181.539 16.7786C181.526 16.8117 181.5 16.8382 181.467 16.8522C181.24 16.9511 180.993 16.9966 180.745 16.9851Z" fill="#3792FC"/>
<path d="M179.318 36.2975C179.292 36.2975 179.266 36.2896 179.243 36.2747C179.221 36.2599 179.204 36.2388 179.194 36.2141C179.183 36.1894 179.181 36.1622 179.186 36.136C179.191 36.1098 179.204 36.0857 179.223 36.0668L180.101 35.1886C180.127 35.1636 180.161 35.1496 180.196 35.1498C180.232 35.1499 180.266 35.1641 180.292 35.1893C180.317 35.2145 180.331 35.2487 180.331 35.2844C180.331 35.32 180.317 35.3543 180.292 35.3797L179.414 36.2579C179.401 36.2705 179.387 36.2804 179.37 36.2872C179.354 36.294 179.336 36.2975 179.318 36.2975ZM181.548 35.9597C181.521 35.9597 181.495 35.9518 181.473 35.9369C181.45 35.9221 181.433 35.901 181.423 35.8763C181.413 35.8516 181.41 35.8245 181.415 35.7982C181.42 35.772 181.433 35.748 181.452 35.7291L182.195 34.986C182.221 34.9609 182.255 34.947 182.291 34.9471C182.326 34.9472 182.361 34.9614 182.386 34.9867C182.411 35.0119 182.425 35.046 182.425 35.0817C182.425 35.1174 182.411 35.1516 182.386 35.177L181.643 35.9201C181.631 35.9327 181.616 35.9427 181.599 35.9495C181.583 35.9563 181.566 35.9597 181.548 35.9597ZM181.142 35.9597C181.125 35.9597 181.107 35.9563 181.091 35.9495C181.074 35.9427 181.059 35.9327 181.047 35.9201L180.506 35.3797C180.494 35.3672 180.484 35.3523 180.477 35.3359C180.47 35.3194 180.466 35.3018 180.466 35.284C180.466 35.2661 180.47 35.2485 180.476 35.232C180.483 35.2155 180.493 35.2006 180.506 35.188C180.518 35.1754 180.533 35.1654 180.55 35.1586C180.566 35.1518 180.584 35.1483 180.602 35.1484C180.62 35.1484 180.637 35.152 180.654 35.1589C180.67 35.1658 180.685 35.1759 180.698 35.1886L181.238 35.7291C181.257 35.748 181.27 35.772 181.275 35.7982C181.28 35.8245 181.277 35.8516 181.267 35.8763C181.257 35.901 181.24 35.9221 181.218 35.9369C181.195 35.9518 181.169 35.9597 181.142 35.9597Z" fill="#3792FC"/>
<path d="M182.494 35.2166C182.427 35.2166 182.362 35.1968 182.306 35.1597C182.25 35.1226 182.207 35.0698 182.182 35.0081C182.156 34.9464 182.149 34.8785 182.162 34.813C182.175 34.7474 182.208 34.6872 182.255 34.64C182.302 34.5928 182.362 34.5606 182.428 34.5476C182.493 34.5345 182.561 34.5412 182.623 34.5668C182.685 34.5924 182.737 34.6356 182.775 34.6912C182.812 34.7467 182.831 34.812 182.831 34.8789C182.831 34.9684 182.796 35.0543 182.732 35.1176C182.669 35.1809 182.583 35.2165 182.494 35.2166ZM182.494 34.8113C182.48 34.8113 182.467 34.8153 182.456 34.8227C182.445 34.8301 182.436 34.8407 182.431 34.853C182.426 34.8653 182.425 34.8789 182.427 34.892C182.43 34.9051 182.436 34.9172 182.446 34.9266C182.455 34.9361 182.467 34.9425 182.48 34.9451C182.494 34.9477 182.507 34.9464 182.52 34.9413C182.532 34.9362 182.542 34.9275 182.55 34.9164C182.557 34.9053 182.561 34.8922 182.561 34.8789C182.561 34.8609 182.554 34.8438 182.541 34.8311C182.529 34.8184 182.512 34.8113 182.494 34.8113Z" fill="#3792FC"/>
<path d="M181.345 36.3651C181.278 36.3651 181.213 36.3453 181.158 36.3081C181.102 36.271 181.059 36.2183 181.033 36.1566C181.008 36.0948 181.001 36.0269 181.014 35.9614C181.027 35.8959 181.059 35.8357 181.106 35.7884C181.154 35.7412 181.214 35.709 181.279 35.696C181.345 35.683 181.413 35.6897 181.474 35.7152C181.536 35.7408 181.589 35.7841 181.626 35.8396C181.663 35.8952 181.683 35.9605 181.683 36.0273C181.683 36.1168 181.647 36.2027 181.584 36.266C181.521 36.3293 181.435 36.365 181.345 36.3651ZM181.345 35.9597C181.332 35.9597 181.319 35.9637 181.308 35.9711C181.297 35.9785 181.288 35.9891 181.283 36.0014C181.278 36.0138 181.276 36.0274 181.279 36.0405C181.282 36.0536 181.288 36.0656 181.297 36.0751C181.307 36.0845 181.319 36.0909 181.332 36.0935C181.345 36.0962 181.359 36.0948 181.371 36.0897C181.383 36.0846 181.394 36.0759 181.401 36.0648C181.409 36.0537 181.413 36.0407 181.413 36.0273C181.413 36.0094 181.406 35.9922 181.393 35.9795C181.38 35.9669 181.363 35.9598 181.345 35.9597Z" fill="#3792FC"/>
<path d="M180.399 35.4193C180.333 35.4193 180.267 35.3995 180.212 35.3624C180.156 35.3253 180.113 35.2725 180.087 35.2108C180.062 35.1491 180.055 35.0811 180.068 35.0156C180.081 34.9501 180.113 34.8899 180.161 34.8427C180.208 34.7954 180.268 34.7633 180.334 34.7502C180.399 34.7372 180.467 34.7439 180.529 34.7695C180.59 34.795 180.643 34.8383 180.68 34.8939C180.717 34.9494 180.737 35.0147 180.737 35.0815C180.737 35.1711 180.701 35.2569 180.638 35.3203C180.575 35.3836 180.489 35.4192 180.399 35.4193ZM180.399 35.014C180.386 35.014 180.373 35.0179 180.362 35.0253C180.351 35.0328 180.342 35.0433 180.337 35.0557C180.332 35.068 180.331 35.0816 180.333 35.0947C180.336 35.1078 180.342 35.1198 180.352 35.1293C180.361 35.1387 180.373 35.1452 180.386 35.1478C180.399 35.1504 180.413 35.149 180.425 35.1439C180.438 35.1388 180.448 35.1302 180.456 35.1191C180.463 35.1079 180.467 35.0949 180.467 35.0815C180.467 35.0636 180.46 35.0464 180.447 35.0338C180.435 35.0211 180.417 35.014 180.399 35.014Z" fill="#3792FC"/>
<path d="M179.116 36.7028C179.049 36.7028 178.984 36.683 178.928 36.6459C178.873 36.6088 178.829 36.556 178.804 36.4943C178.778 36.4326 178.772 36.3647 178.785 36.2992C178.798 36.2336 178.83 36.1735 178.877 36.1262C178.924 36.079 178.984 36.0468 179.05 36.0338C179.115 36.0207 179.183 36.0274 179.245 36.053C179.307 36.0786 179.36 36.1219 179.397 36.1774C179.434 36.2329 179.454 36.2983 179.454 36.3651C179.454 36.4546 179.418 36.5405 179.355 36.6038C179.291 36.6671 179.205 36.7027 179.116 36.7028ZM179.116 36.2975C179.102 36.2975 179.089 36.3015 179.078 36.3089C179.067 36.3163 179.059 36.3269 179.053 36.3392C179.048 36.3515 179.047 36.3651 179.05 36.3782C179.052 36.3913 179.059 36.4034 179.068 36.4128C179.078 36.4223 179.09 36.4287 179.103 36.4313C179.116 36.4339 179.129 36.4326 179.142 36.4275C179.154 36.4224 179.165 36.4137 179.172 36.4026C179.179 36.3915 179.183 36.3784 179.183 36.3651C179.183 36.3471 179.176 36.33 179.164 36.3173C179.151 36.3046 179.134 36.2975 179.116 36.2975Z" fill="#3792FC"/>
<path d="M191.938 47.122H189.101C188.976 47.1219 188.855 47.072 188.767 46.9834C188.678 46.8947 188.628 46.7745 188.628 46.6491V44.6225C188.628 44.4971 188.678 44.3769 188.767 44.2883C188.855 44.1996 188.976 44.1497 189.101 44.1496H191.938C192.064 44.1497 192.184 44.1996 192.273 44.2883C192.361 44.3769 192.411 44.4971 192.411 44.6225V46.6491C192.411 46.7745 192.361 46.8947 192.273 46.9834C192.184 47.072 192.064 47.1219 191.938 47.122ZM189.101 44.4198C189.047 44.4199 188.996 44.4413 188.958 44.4792C188.92 44.5172 188.898 44.5688 188.898 44.6225V46.6491C188.898 46.7029 188.92 46.7544 188.958 46.7924C188.996 46.8304 189.047 46.8518 189.101 46.8518H191.938C191.992 46.8518 192.044 46.8304 192.082 46.7924C192.12 46.7544 192.141 46.7029 192.141 46.6491V44.6225C192.141 44.5688 192.12 44.5172 192.082 44.4792C192.044 44.4412 191.992 44.4199 191.938 44.4198L189.101 44.4198Z" fill="#3792FC"/>
<path d="M190.52 45.9061C190.49 45.9061 190.46 45.8961 190.437 45.8776L189.221 44.9318C189.207 44.9209 189.195 44.9074 189.186 44.892C189.177 44.8765 189.172 44.8595 189.17 44.8419C189.167 44.8243 189.169 44.8065 189.173 44.7893C189.178 44.7722 189.186 44.7562 189.197 44.7422C189.208 44.7282 189.221 44.7165 189.237 44.7077C189.252 44.699 189.269 44.6933 189.287 44.6911C189.305 44.6889 189.322 44.6902 189.34 44.6949C189.357 44.6996 189.373 44.7076 189.387 44.7185L190.52 45.5998L191.653 44.7185C191.667 44.7076 191.683 44.6996 191.7 44.6949C191.717 44.6902 191.735 44.6889 191.752 44.6911C191.77 44.6933 191.787 44.699 191.802 44.7077C191.818 44.7165 191.831 44.7282 191.842 44.7422C191.853 44.7562 191.861 44.7722 191.866 44.7893C191.871 44.8065 191.872 44.8243 191.87 44.8419C191.868 44.8595 191.862 44.8765 191.853 44.892C191.844 44.9074 191.833 44.9209 191.819 44.9318L190.603 45.8776C190.579 45.8961 190.55 45.9061 190.52 45.9061Z" fill="#3792FC"/>
<path d="M190.52 48.9987C189.855 48.9987 189.204 48.8015 188.651 48.4319C188.098 48.0624 187.667 47.5372 187.413 46.9227C187.158 46.3083 187.092 45.6321 187.221 44.9798C187.351 44.3274 187.672 43.7282 188.142 43.2579C188.612 42.7876 189.211 42.4673 189.864 42.3376C190.516 42.2078 191.192 42.2744 191.807 42.5289C192.421 42.7835 192.946 43.2145 193.316 43.7675C193.685 44.3205 193.883 44.9707 193.883 45.6358C193.882 46.5274 193.527 47.3822 192.897 48.0126C192.266 48.6431 191.411 48.9977 190.52 48.9987ZM190.52 42.4224C189.884 42.4224 189.263 42.6109 188.734 42.964C188.206 43.3171 187.794 43.8189 187.551 44.4061C187.308 44.9933 187.244 45.6394 187.368 46.2627C187.492 46.8861 187.798 47.4586 188.248 47.908C188.697 48.3574 189.269 48.6635 189.893 48.7875C190.516 48.9115 191.162 48.8478 191.749 48.6046C192.337 48.3614 192.838 47.9495 193.192 47.4211C193.545 46.8927 193.733 46.2714 193.733 45.6358C193.732 44.7839 193.393 43.9671 192.791 43.3647C192.188 42.7622 191.372 42.4234 190.52 42.4224Z" fill="#AED9FF"/>
<path d="M180.805 38.9848C180.14 38.9848 179.489 38.7876 178.936 38.4181C178.383 38.0486 177.952 37.5234 177.698 36.9089C177.443 36.2944 177.377 35.6182 177.507 34.9659C177.636 34.3136 177.957 33.7144 178.427 33.2441C178.897 32.7738 179.496 32.4535 180.149 32.3237C180.801 32.194 181.477 32.2606 182.092 32.5151C182.706 32.7696 183.231 33.2006 183.601 33.7537C183.97 34.3067 184.168 34.9569 184.168 35.622C184.167 36.5135 183.812 37.3683 183.182 37.9988C182.551 38.6292 181.696 38.9838 180.805 38.9848ZM180.805 32.4086C180.169 32.4086 179.548 32.597 179.019 32.9501C178.491 33.3032 178.079 33.8051 177.836 34.3922C177.593 34.9794 177.529 35.6255 177.653 36.2489C177.777 36.8722 178.083 37.4448 178.533 37.8942C178.982 38.3436 179.555 38.6496 180.178 38.7736C180.801 38.8976 181.447 38.834 182.034 38.5908C182.622 38.3476 183.124 37.9357 183.477 37.4072C183.83 36.8788 184.018 36.2575 184.018 35.622C184.017 34.77 183.678 33.9532 183.076 33.3508C182.474 32.7484 181.657 32.4095 180.805 32.4086Z" fill="#AED9FF"/>
<path d="M189.847 28.971C189.182 28.971 188.532 28.7737 187.979 28.4042C187.426 28.0347 186.995 27.5095 186.74 26.895C186.486 26.2805 186.419 25.6043 186.549 24.952C186.679 24.2997 186.999 23.7005 187.469 23.2302C187.94 22.7599 188.539 22.4396 189.191 22.3098C189.843 22.1801 190.52 22.2467 191.134 22.5012C191.749 22.7557 192.274 23.1867 192.643 23.7398C193.013 24.2928 193.21 24.943 193.21 25.6081C193.209 26.4997 192.854 27.3544 192.224 27.9849C191.593 28.6153 190.739 28.9699 189.847 28.971ZM189.847 22.3947C189.212 22.3947 188.59 22.5831 188.062 22.9362C187.533 23.2893 187.122 23.7912 186.878 24.3784C186.635 24.9655 186.571 25.6116 186.695 26.235C186.819 26.8583 187.125 27.4309 187.575 27.8803C188.024 28.3297 188.597 28.6358 189.22 28.7597C189.844 28.8837 190.49 28.8201 191.077 28.5769C191.664 28.3337 192.166 27.9218 192.519 27.3934C192.872 26.8649 193.061 26.2436 193.061 25.6081C193.06 24.7561 192.721 23.9393 192.118 23.3369C191.516 22.7345 190.699 22.3956 189.847 22.3947Z" fill="#AED9FF"/>
<path d="M180.879 18.7267C180.214 18.7267 179.564 18.5295 179.011 18.1599C178.458 17.7904 178.027 17.2652 177.773 16.6507C177.518 16.0362 177.451 15.3601 177.581 14.7078C177.711 14.0554 178.031 13.4562 178.502 12.9859C178.972 12.5156 179.571 12.1953 180.223 12.0656C180.876 11.9358 181.552 12.0024 182.166 12.2569C182.781 12.5115 183.306 12.9425 183.676 13.4955C184.045 14.0485 184.242 14.6987 184.242 15.3638C184.241 16.2554 183.887 17.1102 183.256 17.7406C182.626 18.3711 181.771 18.7257 180.879 18.7267ZM180.879 12.1504C180.244 12.1504 179.623 12.3389 179.094 12.692C178.566 13.0451 178.154 13.5469 177.911 14.1341C177.667 14.7213 177.604 15.3674 177.728 15.9907C177.852 16.6141 178.158 17.1866 178.607 17.636C179.057 18.0854 179.629 18.3915 180.253 18.5155C180.876 18.6395 181.522 18.5758 182.109 18.3326C182.696 18.0894 183.198 17.6775 183.551 17.1491C183.904 16.6207 184.093 15.9994 184.093 15.3638C184.092 14.5119 183.753 13.6951 183.151 13.0927C182.548 12.4902 181.731 12.1514 180.879 12.1504Z" fill="#AED9FF"/>
<path d="M172.045 32.7423C171.909 32.635 171.797 32.4993 171.715 32.3439C171.633 32.1885 171.583 32.0171 171.569 31.8406C171.566 31.7995 171.565 31.7583 171.567 31.7171L166.414 28.1287C166.245 28.01 166.118 27.8382 166.052 27.6388C165.985 27.4395 165.983 27.2232 166.045 27.0223L168.507 20.6955C168.613 20.4231 168.819 20.2053 169.08 20.0897C169.341 19.9741 169.636 19.9701 169.9 20.0786C170.163 20.1871 170.375 20.3993 170.488 20.6687C170.601 20.9381 170.606 21.2427 170.502 21.5159L168.513 26.7437L172.526 30.5121C172.578 30.4996 172.632 30.4911 172.686 30.4864C172.996 30.4609 173.304 30.559 173.546 30.7605C173.788 30.962 173.946 31.2517 173.989 31.5702C174.031 31.8886 173.954 32.2117 173.773 32.4732C173.592 32.7347 173.321 32.9147 173.016 32.9764C172.938 32.992 172.859 32.9999 172.779 33C172.514 33.0002 172.256 32.9096 172.045 32.7423Z" fill="white"/>
<path d="M166.042 24.8653C166.012 24.7951 165.998 24.7193 166 24.643C166.002 24.5667 166.02 24.4917 166.053 24.4231L167.194 22.0286C167.309 21.6564 167.563 21.3462 167.901 21.1662C168.238 20.9861 168.631 20.9508 168.994 21.068C169.357 21.1852 169.66 21.4453 169.836 21.7913C170.013 22.1373 170.048 22.541 169.935 22.9138L169.518 25.5538C169.506 25.6292 169.479 25.701 169.438 25.7644C169.396 25.8278 169.342 25.8814 169.279 25.9213C169.215 25.9613 169.144 25.9868 169.07 25.9961C168.997 26.0053 168.922 25.9982 168.851 25.9751L166.361 25.1626C166.29 25.1395 166.225 25.101 166.17 25.0497C166.115 24.9984 166.071 24.9355 166.042 24.8653Z" fill="#85BEFF"/>
<path d="M174 56H176.033L177 50L174 50.0001L174 56Z" fill="white"/>
<path d="M174 55.0001L177.054 55H177.054C177.309 55 177.563 55.0501 177.799 55.1474C178.035 55.2448 178.249 55.3874 178.43 55.5673C178.611 55.7471 178.754 55.9607 178.852 56.1957C178.95 56.4307 179 56.6825 179 56.9369V56.9998L174 57L174 55.0001Z" fill="#85BEFF"/>
<path d="M161 54.6253L162.216 55L164 49.5531L162.205 49L161 54.6253Z" fill="white"/>
<path d="M160.407 54L162.811 54.7147L162.812 54.7147C163.013 54.7745 163.202 54.8796 163.368 55.0239C163.534 55.1682 163.674 55.349 163.78 55.5558C163.886 55.7627 163.955 55.9916 163.984 56.2295C164.013 56.4674 164.002 56.7097 163.95 56.9424L163.937 57L160 55.8299L160.407 54Z" fill="#85BEFF"/>
<path d="M170.5 18C171.881 18 173 16.8807 173 15.5C173 14.1193 171.881 13 170.5 13C169.119 13 168 14.1193 168 15.5C168 16.8807 169.119 18 170.5 18Z" fill="white"/>
<path d="M169.092 26.8009C168.426 26.1156 167.861 25.3395 167.413 24.4955C167.175 24.0328 167.037 23.5254 167.006 23.0058C166.976 22.4863 167.055 21.9662 167.238 21.479C167.425 20.9809 167.714 20.5275 168.086 20.1479C168.459 19.7683 168.907 19.4709 169.401 19.2749C170.268 18.923 171.235 18.9084 172.113 19.2341C172.99 19.5598 173.713 20.2022 174.141 21.0348C174.841 22.4051 175.115 23.7448 174.956 25.017C174.652 27.449 174.474 28.706 174.427 28.753L174.412 28.7687L169.208 29L169.092 26.8009Z" fill="#85BEFF"/>
<path d="M169.427 29.2321L174.273 29.0006C174.395 28.9947 174.515 29.0346 174.608 29.1118C174.7 29.189 174.758 29.2976 174.769 29.4147L176.998 53.4045C177.004 53.4683 176.996 53.5325 176.974 53.593C176.953 53.6535 176.918 53.709 176.872 53.7557C176.827 53.8025 176.772 53.8395 176.71 53.8644C176.649 53.8892 176.582 53.9014 176.516 53.9L174.622 53.8613C174.518 53.8592 174.418 53.8242 174.337 53.7618C174.255 53.6994 174.198 53.6129 174.172 53.5159L170.555 39.5245C170.532 39.4329 170.479 39.3507 170.405 39.2892C170.33 39.2276 170.238 39.1898 170.14 39.181C170.042 39.1721 169.944 39.1926 169.859 39.2397C169.774 39.2868 169.706 39.3581 169.665 39.4437L162.81 53.7352C162.764 53.8323 162.683 53.9105 162.582 53.9562C162.482 54.002 162.368 54.0122 162.26 53.9853L160.355 53.5081C160.237 53.4787 160.135 53.4068 160.071 53.3073C160.007 53.2079 159.985 53.0885 160.01 52.9741C160.637 50.133 164.392 33.863 169.12 29.3596C169.203 29.2823 169.312 29.2369 169.427 29.2321Z" fill="#60A9FF"/>
<path d="M178.442 31.9443C178.28 31.893 178.131 31.8072 178.004 31.6925C177.877 31.5777 177.775 31.4367 177.704 31.2785C177.687 31.2416 177.673 31.2039 177.66 31.1654L171.706 29.6606C171.511 29.6102 171.337 29.4961 171.21 29.3353C171.082 29.1745 171.009 28.9756 171 28.7682L171.197 22.0591C171.206 21.7704 171.325 21.4968 171.528 21.2984C171.732 21.1 172.003 20.9928 172.283 21.0004C172.563 21.008 172.829 21.1297 173.022 21.3388C173.216 21.548 173.321 21.8276 173.314 22.1164L173.195 27.6438L178.152 29.7155C178.197 29.6854 178.244 29.6586 178.292 29.6352H178.292C178.469 29.5506 178.664 29.5117 178.858 29.5218C179.053 29.532 179.243 29.5909 179.411 29.6935C179.579 29.7961 179.72 29.9393 179.822 30.1108C179.924 30.2822 179.984 30.4767 179.997 30.6775C180.01 30.8783 179.976 31.0794 179.897 31.2633C179.817 31.4472 179.696 31.6085 179.543 31.7332C179.39 31.8579 179.209 31.9423 179.018 31.9791C178.826 32.0159 178.628 32.004 178.442 31.9444V31.9443Z" fill="white"/>
<path d="M170.151 24.8214C170.096 24.7627 170.054 24.693 170.028 24.6169C170.003 24.5409 169.994 24.4603 170.004 24.3807L170.322 21.602C170.307 21.1927 170.458 20.7943 170.742 20.4942C171.026 20.1941 171.42 20.0168 171.837 20.0011C172.254 19.9855 172.66 20.1328 172.967 20.4107C173.273 20.6886 173.455 21.0745 173.472 21.4838L173.991 24.2426C174.005 24.3213 174.003 24.4023 173.983 24.4799C173.963 24.5575 173.926 24.63 173.875 24.6924C173.824 24.7549 173.76 24.8057 173.687 24.8416C173.614 24.8775 173.534 24.8975 173.452 24.9004L170.588 24.9996C170.506 25.0025 170.425 24.9881 170.35 24.9573C170.274 24.9266 170.207 24.8802 170.151 24.8214Z" fill="#85BEFF"/>
<path d="M166.214 18.8873L166.518 17.9658L166.726 19L168.435 18.9576L168.428 17.9379L169.077 18.9442L170.626 18.6235C170.295 18.2104 169.96 17.7909 169.749 17.304C169.537 16.8171 169.46 16.2461 169.658 15.7532C170.147 14.5347 172 14.8757 173.013 14.8653C173.309 14.8623 173.643 14.8423 173.836 14.6158C173.982 14.4452 174.006 14.2012 173.999 13.9757C173.961 12.8141 173.217 11.706 172.164 11.2443C171.649 11.022 171.075 10.9492 170.516 11.035C170.224 11.0782 169.94 11.1619 169.675 11.2832C169.438 11.3916 169.189 11.6497 168.934 11.6427C168.72 11.6368 168.436 11.4277 168.203 11.392C167.922 11.3514 167.636 11.3607 167.358 11.4196C166.801 11.536 166.299 11.8175 165.927 12.2225C165.134 13.0849 164.899 14.3556 165.037 15.5256C165.175 16.6955 165.642 17.7957 166.104 18.877" fill="#60A9FF"/>
<path d="M188.763 27.5837C188.729 27.5835 188.696 27.575 188.667 27.5587C188.637 27.5425 188.612 27.5191 188.594 27.4908C188.575 27.4624 188.564 27.4299 188.562 27.3962C188.559 27.3625 188.565 27.3287 188.579 27.2978L188.812 26.7761C188.49 26.4899 188.285 26.0949 188.236 25.6667C188.187 25.2385 188.298 24.8074 188.548 24.4559C188.797 24.1045 189.167 23.8575 189.588 23.7623C190.008 23.6671 190.449 23.7305 190.825 23.9402C191.202 24.1498 191.488 24.4911 191.628 24.8986C191.768 25.3061 191.753 25.751 191.586 26.1481C191.418 26.5452 191.11 26.8664 190.72 27.0503C190.331 27.2342 189.887 27.2677 189.474 27.1445L188.877 27.5484C188.843 27.5713 188.804 27.5836 188.763 27.5837ZM189.97 23.9767C189.659 23.9765 189.356 24.073 189.102 24.2529C188.849 24.4328 188.657 24.6871 188.555 24.9805C188.452 25.274 188.444 25.5921 188.53 25.8907C188.616 26.1893 188.793 26.4537 189.037 26.6472L189.11 26.706L188.859 27.2673L189.436 26.8765L189.493 26.8956C189.699 26.9648 189.918 26.9884 190.133 26.9647C190.349 26.9411 190.558 26.8707 190.744 26.7586C190.93 26.6464 191.089 26.4952 191.211 26.3153C191.333 26.1354 191.414 25.9311 191.449 25.7167C191.484 25.5023 191.472 25.2828 191.414 25.0735C191.356 24.8642 191.253 24.6701 191.112 24.5046C190.971 24.3391 190.796 24.2061 190.599 24.115C190.402 24.0238 190.187 23.9766 189.97 23.9767Z" fill="#3792FC"/>
<path d="M189.97 25.6376C190.104 25.6376 190.213 25.5288 190.213 25.3946C190.213 25.2603 190.104 25.1515 189.97 25.1515C189.836 25.1515 189.727 25.2603 189.727 25.3946C189.727 25.5288 189.836 25.6376 189.97 25.6376Z" fill="#3792FC"/>
<path d="M189.281 25.6376C189.415 25.6376 189.524 25.5288 189.524 25.3946C189.524 25.2603 189.415 25.1515 189.281 25.1515C189.147 25.1515 189.038 25.2603 189.038 25.3946C189.038 25.5288 189.147 25.6376 189.281 25.6376Z" fill="#3792FC"/>
<path d="M190.658 25.6376C190.793 25.6376 190.902 25.5288 190.902 25.3946C190.902 25.2603 190.793 25.1515 190.658 25.1515C190.524 25.1515 190.415 25.2603 190.415 25.3946C190.415 25.5288 190.524 25.6376 190.658 25.6376Z" fill="#3792FC"/>
</svg>
