<svg width="24" height="30" viewBox="0 0 24 30" fill="none" xmlns="http://www.w3.org/2000/svg">
<path d="M17.8461 0.514862V5.85937H23.4592L17.8461 0.514862Z" fill="#94C5FF"/>
<path d="M13.9 11.25H10.1C9.38073 12.4455 8.16621 13.2608 6.76923 13.5119V17.7304C6.76923 20.9094 8.85975 23.6709 12 24.6831C15.1402 23.6709 17.2308 20.9094 17.2308 17.7304V13.5119C15.8338 13.2608 14.6193 12.4454 13.9 11.25ZM15.2636 16.9525L11.7825 20.267C11.6022 20.4386 11.366 20.5245 11.1298 20.5245C10.8936 20.5245 10.6573 20.4387 10.4771 20.267L8.73655 18.6097C8.37606 18.2665 8.37606 17.71 8.73655 17.3668C9.09698 17.0235 9.68147 17.0235 10.042 17.3668L11.1298 18.4025L13.9583 15.7095C14.3187 15.3663 14.9032 15.3663 15.2637 15.7095C15.6241 16.0528 15.6241 16.6092 15.2636 16.9525Z" fill="#3792FC"/>
<path d="M16.9231 7.61719C16.4133 7.61719 16 7.22367 16 6.73828V0H3.38462C1.51834 0 0 1.44568 0 3.22266V26.7773C0 28.5543 1.51834 30 3.38462 30H20.6154C22.4817 30 24 28.5543 24 26.7773V7.61719H16.9231ZM19.0769 17.7303C19.0769 19.7022 18.4234 21.5808 17.1872 23.1629C15.951 24.7449 14.2489 25.8807 12.2652 26.4473C12.1787 26.472 12.0894 26.4844 12 26.4844C11.9106 26.4844 11.8213 26.472 11.7348 26.4473C9.75108 25.8807 8.04905 24.7449 6.8128 23.1629C5.57655 21.5808 4.92308 19.7022 4.92308 17.7303V12.7148C4.92308 12.2295 5.33637 11.8359 5.84615 11.8359C7.01262 11.8359 8.06129 11.2188 8.58289 10.2255L8.7128 9.97811C8.86917 9.68027 9.1888 9.49219 9.53846 9.49219H14.4615C14.8112 9.49219 15.1308 9.68027 15.2872 9.97805L15.4171 10.2255C15.9387 11.2188 16.9874 11.8359 18.1538 11.8359C18.6636 11.8359 19.0769 12.2295 19.0769 12.7148V17.7303Z" fill="#94C5FF"/>
</svg>
