<svg xmlns="http://www.w3.org/2000/svg" xmlns:xlink="http://www.w3.org/1999/xlink" width="70" height="60" viewBox="0 0 70 60">
    <defs>
        <rect id="prefix__a" width="70" height="60" x="0" y="0" rx="4"/>
    </defs>
    <g fill="none" fill-rule="evenodd" transform="translate(0 1)">
        <mask id="prefix__b" fill="#fff">
            <use xlink:href="#prefix__a"/>
        </mask>
        <use fill="#FFF" opacity=".05" xlink:href="#prefix__a"/>
        <g fill="#3792FC" fill-rule="nonzero" mask="url(#prefix__b)" opacity=".05">
            <g transform="translate(-12 -8)">
                <path d="M17.184 26.814C13.283 48.016-5.304 47.71 2.514 52.223c7.819 4.514 17.144-2.611 24.543-4.594 7.4-1.982 14.032 4.584 18.151-2.55 4.12-7.135-2.338-6.07-1.273-15.85 1.066-9.78 14.5-12.477 4.337-18.345-10.163-5.868-27.186-5.272-31.088 15.93z"/>
                <path d="M63.113 54.836c-4.928 2.846-26.383 12.933-27.418 7.76-1.034-5.173 7.545-3.803 4.656-10.864-2.888-7.06-15.52-2.586-13.968-11.898 1.784-10.703 29.769-5.627 35.044-8.673 5.275-3.045 3.238-7.364 5.825-9.433h14.485v43.455c-6.89-10.088-13.098-13.537-18.624-10.347z"/>
                <circle cx="21.986" cy="60.268" r="2.845"/>
                <path d="M76.483 48.778c-.105-.277-.494-.134-.43.147.178.775.464 1.559.774 2.29.063.148.333.123.297-.058-.152-.795-.35-1.622-.64-2.379zM28.14 55.944c.332-.52.8-.39 1.255-.16.462.233.899.372 1.4.155.785-.339 1.155-1.524.405-2.081-.242-.182-.482.116-.45.346.045.317.203.67-.07.942-.364.365-.792.058-1.158-.106-.393-.177-.813-.216-1.217-.052-.698.283-1.206 1.23-.65 1.87.077.089.265.048.285-.076.045-.296.037-.577.2-.838zM21.67 27.666c.082.263.332.347.56.191.892-.607 1.781-1.2 2.628-1.872.162-.13.127-.39-.032-.5-.99-.679-2.324-1.682-3.58-1.688-.318-.003-.542.448-.218.633.506.292 1.113.396 1.655.62.624.26 1.244.565 1.795.957.013-.181.026-.363.036-.545-.944.581-1.834 1.233-2.73 1.883l.53.107c-.384-1.084-.776-2.159-1.201-3.227-.095-.224-.478-.1-.413.137.299 1.11.627 2.207.97 3.304zM81.288 24.778c.305-.03.266-.445-.03-.456-.817-.032-1.674.038-2.482.147-.16.022-.21.29-.022.306.83.062 1.703.086 2.534.003zM57.3 27.762c.643.78 1.893.943 2.696.323 1.944-1.501-.083-4.266-2.179-3.694-.389.106-.291.66.092.68.612.035 1.27.058 1.758.49.526.46.538 1.24.106 1.772-1.144 1.404-3.128-.663-1.927-1.921.154-.158-.08-.392-.24-.24-.718.689-.99 1.76-.306 2.59zM62.294 60.842c.061.197.249.26.42.144.669-.456 1.336-.901 1.97-1.405.123-.097.096-.292-.023-.375-.743-.509-1.743-1.26-2.686-1.266-.238-.002-.406.336-.163.475.38.219.835.297 1.242.465.467.195.932.423 1.346.718.01-.136.02-.273.027-.409-.709.436-1.376.925-2.047 1.412l.396.08c-.287-.813-.581-1.619-.9-2.42-.069-.167-.356-.075-.31.103.224.832.47 1.655.728 2.478z"/>
            </g>
        </g>
        <g>
            <g>
                <g fill-rule="nonzero">
                    <path fill="#94C5FF" d="M.005 3.033v22.534c0 .239.194.433.434.433h16.493c.24 0 .434-.194.434-.433v-18.2c0-.01-.005-.018-.006-.028-.002-.038-.01-.075-.022-.11-.005-.015-.008-.028-.014-.042-.021-.047-.05-.09-.087-.127l-4.34-4.333c-.037-.037-.08-.066-.128-.087l-.04-.014c-.036-.013-.074-.02-.112-.023-.008.002-.016-.003-.025-.003H.439c-.24 0-.434.194-.434.433z" transform="translate(15 10) translate(10 7)"/>
                    <path fill="#94C5FF" d="M15.884 6.933L13.026 6.933 13.026 4.079z" transform="translate(15 10) translate(10 7)"/>
                    <path fill="#CBE2FF" d="M.873 3.467h11.285v3.9c0 .239.194.433.434.433h3.906v17.333H.873V3.467z" transform="translate(15 10) translate(10 7)"/>
                    <path fill="#94C5FF" d="M18.234 22.533v.867h1.302c.24 0 .434-.194.434-.433V.433c0-.239-.194-.433-.434-.433H3.043c-.24 0-.434.194-.434.433v1.3h.868V.867h15.625v21.666h-.868z" transform="translate(15 10) translate(10 7)"/>
                    <path fill="#94C5FF" d="M3.477 8.667L13.894 8.667 13.894 9.533 3.477 9.533zM3.477 6.067L6.949 6.067 6.949 6.933 3.477 6.933zM3.477 11.267L10.422 11.267 10.422 12.133 3.477 12.133zM11.29 11.267L13.894 11.267 13.894 12.133 11.29 12.133zM3.477 13.867L13.894 13.867 13.894 14.733 3.477 14.733zM3.477 19.067L13.894 19.067 13.894 19.933 3.477 19.933zM7.383 16.467L13.894 16.467 13.894 17.333 7.383 17.333zM3.477 16.467L6.515 16.467 6.515 17.333 3.477 17.333zM3.477 21.667L5.213 21.667 5.213 22.533 3.477 22.533zM6.081 21.667L13.894 21.667 13.894 22.533 6.081 22.533z" transform="translate(15 10) translate(10 7)"/>
                </g>
                <path fill="#CBE2FF" d="M3.477 1.733L13.026 1.733 18.234 6.976 18.234 22.533 19.102 22.533 19.102 0.867 3.477 0.867z" transform="translate(15 10) translate(10 7)"/>
            </g>
            <g stroke="#3792FC" stroke-width=".909" transform="translate(15 10)">
                <circle cx="20" cy="20" r="19.545"/>
                <path stroke-linecap="round" stroke-linejoin="round" d="M33.636 6.364L6.364 33.287"/>
            </g>
        </g>
    </g>
</svg>
