<svg xmlns="http://www.w3.org/2000/svg" width="100" height="80" viewBox="0 0 100 80">
    <g fill="none" fill-rule="evenodd">
        <path fill="#EBF4FE" d="M6.43 57.03C-4.819 33.686-1.31 16.586 16.955 5.731 35.22-5.123 49.157-.559 58.766 19.422c10.205 14.932 20.365 20.269 30.48 16.01 15.173-6.389 15.173 25.97-5.68 32.055-20.855 6.084-55.195 8.518-66.61 0-7.61-5.679-11.12-9.164-10.527-10.457z"/>
        <g fill-rule="nonzero">
            <path fill="#FFDA2C" d="M18.23 39.956c-8.263 0-14.986 6.73-14.986 15.001v.034c0 .472.382.855.854.855h28.263c.472 0 .854-.383.854-.855v-.034c0-8.271-6.722-15.001-14.985-15.001z" transform="matrix(-1 0 0 1 88 24)"/>
            <path fill="#EAC412" d="M18.226 39.956c-.733 0-1.454.054-2.16.156 7.246 1.05 12.83 7.307 12.83 14.845v.034c0 .472-.381.855-.853.855h4.318c.472 0 .854-.383.854-.855v-.034c0-8.271-6.724-15.001-14.989-15.001z" transform="matrix(-1 0 0 1 88 24)"/>
            <path fill="#E09C77" d="M20.364 35.016c-3.328-.862-6.909-.862-10.237 0-.564.146-.931.687-.859 1.265.378 2.999 2.948 5.26 5.978 5.26s5.6-2.261 5.977-5.26c.073-.578-.295-1.119-.859-1.265z" transform="matrix(-1 0 0 1 88 24)"/>
            <path fill="#A58260" d="M71.825 12.573c-1.42-3.7-3.897-6.842-7.163-9.088C61.395 1.238 57.572.05 53.605.05c-3.966 0-7.79 1.188-11.057 3.435-3.266 2.246-5.743 5.388-7.163 9.088-2.132 5.554-2.14 17.855.892 24.294 1.118 2.376 2.58 3.883 4.344 4.478.606.205 1.263-.12 1.468-.726.042-.122.06-.247.06-.37h22.912c0 .123.019.248.06.37.164.483.614.787 1.098.787.123 0 .248-.02.37-.06 1.765-.596 3.226-2.103 4.345-4.479 3.03-6.438 3.023-18.74.891-24.294z" transform="matrix(-1 0 0 1 88 24)"/>
            <g fill="#8C6B50">
                <path d="M1.998 41.345c.607.205 1.264-.12 1.469-.726.042-.122.06-.247.06-.37H.094c.588.5 1.223.866 1.904 1.096zM33.203 12.573c-1.42-3.7-3.897-6.842-7.163-9.088C22.773 1.238 18.95.05 14.983.05c-.907 0-1.806.066-2.693.188 2.992.414 5.844 1.514 8.364 3.247 3.265 2.246 5.742 5.388 7.162 9.088 2.133 5.554 2.14 17.856-.891 24.294-.687 1.459-1.503 2.588-2.44 3.382h1.953c0 .123.019.248.06.37.164.483.615.787 1.098.787.123 0 .248-.02.371-.06 1.764-.596 3.225-2.103 4.344-4.479 3.031-6.438 3.024-18.74.892-24.294z" transform="matrix(-1 0 0 1 88 24) translate(38.622)"/>
            </g>
            <path fill="#70C1AB" d="M53.605 34.367c-11.215 0-20.338 9.11-20.338 20.31v.045c0 .639.519 1.157 1.158 1.157h38.36c.64 0 1.158-.518 1.158-1.157v-.046c0-11.198-9.123-20.31-20.338-20.31z" transform="matrix(-1 0 0 1 88 24)"/>
            <path fill="#38B299" d="M53.605 34.367c-.913 0-1.813.061-2.694.178 9.945 1.32 17.644 9.845 17.644 20.131v.046c0 .639-.519 1.157-1.16 1.157h5.39c.64 0 1.158-.518 1.158-1.157v-.046c0-11.198-9.123-20.31-20.338-20.31z" transform="matrix(-1 0 0 1 88 24)"/>
            <path fill="#E09C77" d="M58.724 35.016c-3.33-.862-6.91-.862-10.238 0-.564.146-.931.687-.859 1.265.378 2.999 2.948 5.26 5.978 5.26s5.6-2.261 5.977-5.26c.073-.578-.294-1.119-.858-1.265z" transform="matrix(-1 0 0 1 88 24)"/>
            <path fill="#FFC89F" d="M66.836 19.026c-5.735-.984-9.705-6.797-9.744-6.854-.238-.356-.652-.552-1.08-.509-.426.044-.794.319-.956.715-.027.066-2.84 6.632-14.486 6.632-.64 0-1.159.518-1.159 1.157v2.34c0 7.816 6.368 14.174 14.194 14.174 7.826 0 14.194-6.358 14.194-14.174v-2.34c0-.564-.407-1.045-.963-1.14z" transform="matrix(-1 0 0 1 88 24)"/>
            <path fill="#F7B081" d="M66.836 19.026c-1.635-.28-3.126-.954-4.424-1.774v5.255c0 6.896-4.957 12.656-11.499 13.917.872.168 1.772.257 2.692.257 7.826 0 14.194-6.358 14.194-14.174v-2.34c0-.564-.407-1.045-.963-1.14z" transform="matrix(-1 0 0 1 88 24)"/>
            <g fill="#464649">
                <path d="M2.026 3.878C.991 3.878.148 3.036.148 2.002.148.968.991.126 2.026.126c1.036 0 1.879.842 1.879 1.876 0 1.034-.843 1.876-1.879 1.876zM12.8 3.878c-1.036 0-1.88-.842-1.88-1.876 0-1.034.844-1.876 1.88-1.876 1.035 0 1.878.842 1.878 1.876 0 1.034-.843 1.876-1.879 1.876z" transform="matrix(-1 0 0 1 88 24) translate(46.192 22.832)"/>
            </g>
            <path fill="#F7B081" d="M7.35 39.562c-.813-1.483-1.303-3.092-1.455-4.782-.047-.522-.44-.947-.958-1.036-.24-.041-.479-.062-.712-.062-2.33 0-4.225 1.893-4.225 4.22 0 2.325 1.895 4.218 4.225 4.218 1.085 0 2.118-.414 2.908-1.164.38-.362.47-.934.217-1.394z" transform="matrix(-1 0 0 1 88 24)"/>
            <path fill="#E09C77" d="M32.106 33.682c-.234 0-.473.021-.712.062-.518.089-.91.514-.958 1.036-.152 1.69-.642 3.299-1.455 4.782-.252.46-.163 1.032.217 1.394.79.75 1.823 1.164 2.908 1.164 2.33 0 4.225-1.893 4.225-4.219 0-2.326-1.896-4.219-4.225-4.219z" transform="matrix(-1 0 0 1 88 24)"/>
            <path fill="#FFC89F" d="M18.165 19.043c-8.072 0-14.639 6.558-14.639 14.619 0 8.06 6.567 14.618 14.64 14.618 8.072 0 14.639-6.558 14.639-14.618 0-8.061-6.567-14.619-14.64-14.619z" transform="matrix(-1 0 0 1 88 24)"/>
            <path fill="#F7B081" d="M18.165 19.043c-.92 0-1.82.086-2.693.249 6.79 1.266 11.946 7.227 11.946 14.37 0 7.142-5.156 13.103-11.946 14.37.874.162 1.773.248 2.693.248 8.073 0 14.64-6.558 14.64-14.618 0-8.061-6.567-14.619-14.64-14.619z" transform="matrix(-1 0 0 1 88 24)"/>
            <g fill="#464649">
                <path d="M1.95 3.862C.914 3.862.07 3.02.07 1.986.071.952.914.11 1.95.11s1.878.842 1.878 1.876c0 1.035-.842 1.876-1.878 1.876zM12.723 3.862c-1.036 0-1.879-.842-1.879-1.876 0-1.034.843-1.876 1.879-1.876 1.035 0 1.878.842 1.878 1.876 0 1.035-.843 1.876-1.878 1.876z" transform="matrix(-1 0 0 1 88 24) translate(10.83 33.059)"/>
            </g>
            <path fill="#464649" d="M17.521 21.357c-.1 0-.2-.013-.3-.04-4.826-1.292-5.557-5.45-5.586-5.627-.102-.63.326-1.225.958-1.328.629-.102 1.222.322 1.328.948.02.108.368 1.868 2.188 3.032-.063-.916-.057-2 .159-2.978.137-.624.756-1.018 1.38-.881.626.137 1.02.755.883 1.379-.315 1.428-.018 3.44.123 4.095.085.394-.042.804-.334 1.082-.218.207-.505.318-.799.318z" transform="matrix(-1 0 0 1 88 24)"/>
        </g>
    </g>
</svg>
