<svg width="80" height="60" viewBox="0 0 80 60" fill="none" xmlns="http://www.w3.org/2000/svg">
<rect width="80" height="60" rx="3" fill="white"/>
<mask id="mask0" mask-type="alpha" maskUnits="userSpaceOnUse" x="0" y="0" width="80" height="60">
<rect width="80" height="60" rx="3" fill="white"/>
</mask>
<g mask="url(#mask0)">
<path opacity="0.05" d="M46.7494 -12C38.4994 -12 24.2494 -12 21.2494 -3.75C18.2494 4.5 43.1929 4.01613 48.9994 9.82258C54.8058 15.629 64.168 15 72.9994 15C81.8307 15 80.1573 24.7336 87.2494 23.25C94.3415 21.7664 87.9994 14.3321 90.2494 9.82258C90.2494 5.61878 90.2494 -12 90.2494 -12C90.2494 -12 60.6244 -12 46.7494 -12Z" fill="#3792FC"/>
<path opacity="0.05" d="M7.28561 59.6752C36.7333 49.2049 49.8212 72.763 49.8212 59.6752C49.8212 46.5873 34.1158 40.0433 26.263 32.1906C18.4103 24.3379 21.8469 11.25 9.90318 11.25C-2.0405 11.25 3.97679 18.5866 -9.07424 24.3379C-22.1253 30.0892 -22.1621 70.1455 7.28561 59.6752Z" fill="#3792FC"/>
<path opacity="0.05" d="M56.0357 45.4252C26.5879 34.9549 13.5001 58.513 13.5001 45.4252C13.5001 32.3373 29.2055 25.7933 37.0582 17.9406C44.911 10.0879 41.4744 -3 53.4181 -3C65.3618 -3 59.3445 4.33657 72.3955 10.0879C85.4466 15.8392 98.5713 0.926365 98.5713 17.9406C98.5713 34.9549 85.4834 55.8955 56.0357 45.4252Z" fill="#3792FC"/>
<path opacity="0.05" d="M9.27705 25.6173C10.3359 25.1112 11.4206 24.5273 12.3757 23.8422C12.726 23.5904 12.3809 23.1 12.0123 23.2946C10.9924 23.8292 9.99591 24.5195 9.0876 25.2228C8.90075 25.3629 9.0357 25.7314 9.27705 25.6173Z" fill="#3792FC"/>
<path opacity="0.05" d="M78.8123 35.9158C78.5917 34.7636 78.3036 33.5646 77.8832 32.4669C77.7301 32.0646 77.167 32.2722 77.2604 32.6797C77.5173 33.8034 77.9325 34.9401 78.3815 35.9989C78.4723 36.2143 78.8642 36.178 78.8123 35.9158Z" fill="#3792FC"/>
<path opacity="0.05" d="M13.1967 4.74398C13.1759 4.72581 13.1578 4.70764 13.137 4.69207C12.8749 4.45851 12.4441 4.41439 12.1898 4.69207C11.9329 4.97235 11.9406 5.35903 12.1898 5.6393C12.2079 5.66007 12.2261 5.67823 12.2417 5.69899C12.4752 5.9637 12.9605 5.95591 13.1967 5.69899C13.4303 5.44207 13.477 4.99311 13.1967 4.74398Z" fill="#3792FC"/>
<path opacity="0.05" d="M73.5064 8.82142C73.5723 8.39207 73.5597 7.98466 73.7979 7.60546C74.2774 6.85332 74.9575 7.04135 75.6156 7.37355C76.2862 7.71201 76.9193 7.91258 77.6464 7.59919C78.784 7.10716 79.3199 5.38978 78.2324 4.58123C77.8814 4.31798 77.5335 4.75046 77.5805 5.08265C77.6464 5.54334 77.8751 6.05417 77.4803 6.44904C76.9506 6.97867 76.3301 6.53366 75.8005 6.29548C75.2301 6.0385 74.6221 5.98209 74.0361 6.22027C73.0238 6.63081 72.2874 8.00346 73.0928 8.9311C73.2056 9.05959 73.4782 9.00005 73.5064 8.82142Z" fill="#3792FC"/>
<path opacity="0.05" d="M61.765 52.2428C60.7246 53.2418 60.3308 54.7963 61.3215 55.9984C62.2542 57.13 64.0656 57.3663 65.2304 56.4668C68.0492 54.2906 65.1102 50.2821 62.0718 51.1112C61.508 51.2646 61.649 52.0687 62.2044 52.0977C63.0915 52.1475 64.0449 52.1806 64.7537 52.8066C65.5165 53.4739 65.533 54.6056 64.9071 55.3766C63.249 57.4119 60.3723 54.4149 62.1132 52.591C62.3371 52.363 61.9972 52.0231 61.765 52.2428Z" fill="#3792FC"/>
<path opacity="0.05" d="M0.757268 45.6141C1.08196 46.8211 1.43842 48.014 1.81252 49.2069C1.90075 49.4928 2.17251 49.5845 2.41956 49.4151C3.39011 48.7552 4.35713 48.1093 5.27827 47.3788C5.45473 47.2376 5.41591 46.9552 5.24298 46.8352C4.16655 46.0976 2.71602 45.0071 1.35019 45C1.00432 44.9965 0.760797 45.4871 1.11372 45.6882C1.66429 46.0059 2.32427 46.1188 2.91366 46.3623C3.59128 46.6447 4.26537 46.9764 4.86535 47.4035C4.87946 47.2058 4.89358 47.0082 4.90417 46.8105C3.87715 47.4423 2.91013 48.1517 1.93605 48.8575C2.12663 48.8963 2.32074 48.9352 2.51132 48.974C2.09486 47.7952 1.66782 46.627 1.20549 45.4659C1.10667 45.2224 0.690212 45.3565 0.757268 45.6141Z" fill="#3792FC"/>
</g>
<path d="M47.7609 18.49C48.9478 15.618 48.1064 12.3776 46.3673 11.0995C44.9136 10.0311 43.2198 10.3379 43.2198 10.3379C43.2198 10.3379 41.9451 9 39.6464 9C36.5071 9 30.1321 10.5917 31.3451 18.5927L47.7609 18.49Z" fill="#3792FC"/>
<path d="M32.4452 21.6964L33.37 20.7437L34.1083 19.6198L33.37 18.4959C33.091 18.3588 32.7772 18.2816 32.4452 18.2816C31.5541 18.2816 30.7932 18.8367 30.488 19.6199C30.488 21.051 31.5541 21.6964 32.4452 21.6964Z" fill="#D1E1FC"/>
<path d="M30.4881 19.6198C30.396 19.8561 30.345 20.1129 30.345 20.3818C30.345 21.5418 31.2854 22.4822 32.4454 22.4822C32.7773 22.4822 33.0911 22.405 33.3702 22.2678L34.1085 21.5649L33.3702 20.7436C33.0911 20.8807 32.7774 20.9579 32.4454 20.9579C31.5542 20.9581 30.7933 20.4029 30.4881 19.6198Z" fill="#D1E1FC"/>
<path d="M30.2013 34.7435C30.0027 35.2199 29.8198 35.7271 29.657 36.2677L39.6927 37.006L49.6359 36.2677C49.473 35.7271 49.2901 35.2199 49.0916 34.7435L39.6927 34.0052L30.2013 34.7435Z" fill="#DEEAF3"/>
<path d="M49.0917 34.7435C46.8036 29.2515 42.4269 27.9011 42.4269 27.9011H42.4251C41.5874 28.3155 40.6445 28.5494 39.6466 28.5494C38.6487 28.5494 37.7058 28.3155 36.868 27.9011H36.8662C36.8662 27.9011 32.4895 29.2516 30.2014 34.7435H49.0917Z" fill="#ABD1FE"/>
<path d="M36.8673 27.9008L36.866 27.9011L38.2561 31.4242L39.6463 32.1625L41.0365 31.4242L42.4267 27.9011L42.4255 27.9008C42.4266 27.9011 36.8673 27.9008 36.8673 27.9008Z" fill="#E3EFFF"/>
<path d="M37.6501 34.7435L37.3718 36.2677L39.6926 37.006L41.9208 36.2677L41.6425 34.7435L39.6463 34.0052L37.6501 34.7435Z" fill="#E3EFFF"/>
<path d="M41.6428 34.7435L41.0368 31.4243H38.2564L37.6504 34.7435H41.6428Z" fill="#E3EFFF"/>
<path d="M24.5403 50.2141H54.6601C56.0631 50.2141 57.2004 49.4365 57.2004 46.9355V38.808C57.2004 37.405 56.0631 36.2676 54.6601 36.2676H24.5403C23.1374 36.2676 22 37.405 22 38.808V46.9355C22 49.1618 23.1374 50.2141 24.5403 50.2141Z" fill="#E0EBFC"/>
<path d="M54.6601 49.4758H24.5403C23.1374 49.4758 22 48.3384 22 46.9354V48.4596C22 49.8626 23.1374 51 24.5403 51H54.6601C56.0631 51 57.2004 49.8626 57.2004 48.4596V46.9354C57.2004 48.3385 56.0631 49.4758 54.6601 49.4758Z" fill="#ABD1FE"/>
<path d="M46.8474 21.6964L45.9226 20.7437L45.1843 19.6198L45.9226 18.4959C46.2017 18.3588 46.5154 18.2816 46.8474 18.2816C47.7385 18.2816 48.4995 18.8367 48.8046 19.6199C48.8047 21.051 47.7385 21.6964 46.8474 21.6964Z" fill="#D1E1FC"/>
<path d="M48.8047 19.6198C48.8968 19.8561 48.9478 20.1129 48.9478 20.3818C48.9478 21.5418 48.0074 22.4822 46.8474 22.4822C46.5155 22.4822 46.2018 22.405 45.9226 22.2678L45.1843 21.5649L45.9226 20.7436C46.2017 20.8807 46.5154 20.9579 46.8474 20.9579C47.7385 20.9581 48.4995 20.4029 48.8047 19.6198Z" fill="#D1E1FC"/>
<path d="M39.6462 27.7635C43.1125 27.7635 45.9224 25.5834 45.9224 20.749V18.4959C44.3012 17.7667 42.5634 15.608 41.935 14.7765C41.799 14.5965 41.5438 14.5606 41.3632 14.6956C40.2585 15.5215 36.5619 18.1237 33.3699 18.4959V20.749C33.37 25.2621 36.1799 27.7635 39.6462 27.7635Z" fill="#D1E1FC"/>
<path d="M39.6466 27.0252C36.1803 27.0252 33.3704 24.2153 33.3704 20.749V22.2732C33.3704 25.7395 36.1803 28.5495 39.6466 28.5495C43.1128 28.5495 45.9228 25.7395 45.9228 22.2732V20.749C45.9228 24.2153 43.1128 27.0252 39.6466 27.0252Z" fill="#D1E1FC"/>
<path d="M42.4784 21.643C42.8298 21.643 43.1147 21.3581 43.1147 21.0067V19.9881C43.1147 19.6367 42.8298 19.3518 42.4784 19.3518C42.1269 19.3518 41.842 19.6367 41.842 19.9881V21.0066C41.842 21.3581 42.1269 21.643 42.4784 21.643Z" fill="#6CADFB"/>
<path d="M36.9071 21.643C37.2585 21.643 37.5434 21.3581 37.5434 21.0067V19.9881C37.5434 19.6367 37.2585 19.3518 36.9071 19.3518C36.5556 19.3518 36.2708 19.6367 36.2708 19.9881V21.0066C36.2708 21.3581 36.5556 21.643 36.9071 21.643Z" fill="#6CADFB"/>
<path d="M37.4779 24.3299C37.6739 24.7985 38.3573 25.5834 39.6927 25.5834C41.0281 25.5834 41.7114 24.7985 41.9074 24.3299C41.9439 24.2497 41.9647 24.1608 41.9647 24.0669C41.9647 23.7149 41.6793 23.4294 41.3273 23.4294C41.0617 23.4294 40.8337 23.5917 40.7379 23.8226C40.7379 23.8225 40.7379 23.8226 40.7379 23.8225C40.714 23.8722 40.4812 24.3082 39.6927 24.3082C38.9041 24.3082 38.6714 23.8722 38.6474 23.8225C38.6474 23.8226 38.6475 23.8225 38.6474 23.8226C38.5516 23.5916 38.3237 23.4294 38.0581 23.4294C37.706 23.4294 37.4207 23.7148 37.4207 24.0669C37.4207 24.1608 37.4415 24.2497 37.4779 24.3299Z" fill="#6CADFB"/>
<path d="M31.2 46.45C31.1467 46.45 31.1 46.4334 31.06 46.4C31.02 46.36 31 46.31 31 46.25V45.47C31 45.39 31.02 45.3267 31.06 45.28C31.1 45.2267 31.1633 45.17 31.25 45.11L33.67 43.49L31.25 41.87C31.1633 41.81 31.1 41.7567 31.06 41.71C31.02 41.6567 31 41.5867 31 41.5V40.73C31 40.6634 31.02 40.6134 31.06 40.58C31.1 40.54 31.1467 40.52 31.2 40.52C31.26 40.52 31.3267 40.55 31.4 40.61L34.79 42.92C34.8967 42.9934 34.97 43.0634 35.01 43.13C35.0567 43.1967 35.08 43.2767 35.08 43.37V43.61C35.08 43.7034 35.0567 43.7834 35.01 43.85C34.9633 43.9167 34.89 43.9834 34.79 44.05L31.4 46.37C31.3333 46.4234 31.2667 46.45 31.2 46.45Z" fill="#3792FC"/>
<path d="M38.5991 47.1C38.0391 47.1 37.5457 46.9934 37.1191 46.78C36.6991 46.5667 36.3724 46.2734 36.1391 45.9C35.9124 45.5267 35.7991 45.1067 35.7991 44.64C35.7991 44.0534 36.0591 43.4067 36.5791 42.7L38.3991 40.2C38.4524 40.1334 38.5024 40.0834 38.5491 40.05C38.5957 40.0167 38.6624 40 38.7491 40H39.6991C39.7591 40 39.8057 40.0234 39.8391 40.07C39.8791 40.11 39.8991 40.16 39.8991 40.22C39.8991 40.2667 39.8857 40.31 39.8591 40.35L38.4591 42.28C38.5657 42.2534 38.7057 42.24 38.8791 42.24C39.3257 42.2467 39.7357 42.3567 40.1091 42.57C40.4891 42.7767 40.7891 43.06 41.0091 43.42C41.2357 43.78 41.3491 44.18 41.3491 44.62C41.3491 45.0734 41.2357 45.49 41.0091 45.87C40.7891 46.2434 40.4691 46.5434 40.0491 46.77C39.6357 46.99 39.1524 47.1 38.5991 47.1ZM38.5791 45.94C38.9524 45.94 39.2691 45.8267 39.5291 45.6C39.7891 45.3667 39.9191 45.0467 39.9191 44.64C39.9191 44.24 39.7891 43.9267 39.5291 43.7C39.2757 43.4667 38.9591 43.35 38.5791 43.35C38.2057 43.35 37.8891 43.4667 37.6291 43.7C37.3757 43.9267 37.2491 44.24 37.2491 44.64C37.2491 45.0467 37.3757 45.3667 37.6291 45.6C37.8891 45.8267 38.2057 45.94 38.5791 45.94Z" fill="#3792FC"/>
<path d="M44.9684 47.1C44.075 47.1 43.4084 46.8534 42.9684 46.36C42.535 45.8667 42.2984 45.22 42.2584 44.42C42.2517 44.24 42.2484 43.9334 42.2484 43.5C42.2484 43.06 42.2517 42.7467 42.2584 42.56C42.2917 41.7734 42.5317 41.1334 42.9784 40.64C43.425 40.1467 44.0884 39.9 44.9684 39.9C45.8484 39.9 46.5117 40.1467 46.9584 40.64C47.405 41.1334 47.645 41.7734 47.6784 42.56C47.6917 42.9334 47.6984 43.2467 47.6984 43.5C47.6984 43.7534 47.6917 44.06 47.6784 44.42C47.6384 45.22 47.3984 45.8667 46.9584 46.36C46.525 46.8534 45.8617 47.1 44.9684 47.1ZM44.9684 45.93C45.3817 45.93 45.6917 45.7967 45.8984 45.53C46.105 45.2567 46.215 44.87 46.2284 44.37C46.235 44.1767 46.2384 43.88 46.2384 43.48C46.2384 43.08 46.235 42.79 46.2284 42.61C46.215 42.1234 46.105 41.7434 45.8984 41.47C45.6917 41.1967 45.3817 41.0567 44.9684 41.05C44.555 41.0567 44.245 41.1967 44.0384 41.47C43.8317 41.7434 43.7217 42.1234 43.7084 42.61C43.7017 42.79 43.6984 43.08 43.6984 43.48C43.6984 43.88 43.7017 44.1767 43.7084 44.37C43.7217 44.87 43.8317 45.2567 44.0384 45.53C44.245 45.7967 44.555 45.93 44.9684 45.93Z" fill="#3792FC"/>
</svg>
