<svg width="47" height="40" viewBox="0 0 47 40" fill="none" xmlns="http://www.w3.org/2000/svg">
<rect opacity="0.05" width="46.6667" height="40" rx="4" fill="white"/>
<mask id="mask0" mask-type="alpha" maskUnits="userSpaceOnUse" x="0" y="0" width="47" height="40">
<rect width="46.6667" height="40" rx="4" fill="white"/>
</mask>
<g mask="url(#mask0)">
<path opacity="0.05" d="M3.45627 12.5428C0.855258 26.6772 -11.5356 26.4728 -6.32358 29.482C-1.11152 32.4911 5.10554 27.7413 10.0383 26.4195C14.971 25.0978 19.393 29.4756 22.1391 24.7192C24.8852 19.9628 20.58 20.6722 21.2903 14.1525C22.0007 7.63275 30.9571 5.83479 24.1815 1.92285C17.4058 -1.98909 6.05729 -1.59172 3.45627 12.5428Z" fill="#3792FC"/>
<path opacity="0.05" d="M34.0757 31.2242C30.7903 33.121 16.4867 39.8462 15.797 36.3974C15.1072 32.9486 20.8266 33.8623 18.9009 29.1549C16.9751 24.4475 8.55443 27.4305 9.58907 21.2226C10.7783 14.0871 29.4344 17.4715 32.9514 15.441C36.4684 13.4105 35.1104 10.5312 36.8348 9.15171C39.9387 9.15171 46.4915 9.15171 46.4915 9.15171L46.4915 38.1218C46.4915 38.1218 39.6012 28.034 34.0757 31.2242Z" fill="#3792FC"/>
<path opacity="0.05" d="M6.65759 36.7423C7.7052 36.7423 8.55445 35.893 8.55445 34.8454C8.55445 33.7978 7.7052 32.9486 6.65759 32.9486C5.60999 32.9486 4.76074 33.7978 4.76074 34.8454C4.76074 35.893 5.60999 36.7423 6.65759 36.7423Z" fill="#3792FC"/>
<path opacity="0.05" d="M42.9892 27.1853C42.9188 27.0004 42.6598 27.0958 42.7028 27.2832C42.8209 27.7999 43.0119 28.3226 43.2183 28.8095C43.2601 28.9085 43.4403 28.8918 43.4164 28.7713C43.315 28.2415 43.1825 27.6901 42.9892 27.1853Z" fill="#3792FC"/>
<path opacity="0.05" d="M10.7609 31.9624C10.9814 31.6166 11.2941 31.703 11.5968 31.8558C11.9052 32.0114 12.1963 32.1037 12.5306 31.9596C13.0537 31.7333 13.3002 30.9436 12.8001 30.5718C12.6387 30.4507 12.4787 30.6496 12.5003 30.8024C12.5306 31.0142 12.6358 31.2491 12.4542 31.4307C12.2107 31.6742 11.9253 31.4696 11.6818 31.3601C11.4195 31.2419 11.1399 31.216 10.8704 31.3255C10.405 31.5143 10.0663 32.1455 10.4367 32.572C10.4886 32.6311 10.6139 32.6037 10.6269 32.5216C10.6572 32.3242 10.6514 32.1368 10.7609 31.9624Z" fill="#3792FC"/>
<path opacity="0.05" d="M6.44757 13.1106C6.50166 13.2859 6.66828 13.3421 6.81975 13.2383C7.41482 12.8336 8.00773 12.4376 8.5725 11.9897C8.68069 11.9032 8.65689 11.7301 8.55086 11.6565C7.89088 11.2042 7.00152 10.5356 6.1641 10.5313C5.95204 10.5291 5.80273 10.8299 6.01912 10.9532C6.35668 11.148 6.76133 11.2172 7.1227 11.3665C7.53816 11.5396 7.95146 11.743 8.31932 12.0049C8.32798 11.8837 8.33664 11.7625 8.34313 11.6413C7.71344 12.0287 7.12053 12.4636 6.5233 12.8964C6.64015 12.9202 6.75916 12.944 6.87601 12.9678C6.62068 12.2451 6.35885 11.5288 6.07538 10.8169C6.01262 10.6676 5.75729 10.7498 5.80056 10.9078C5.99964 11.6478 6.21819 12.3792 6.44757 13.1106Z" fill="#3792FC"/>
<path opacity="0.05" d="M46.1917 11.1856C46.3955 11.1659 46.3697 10.8885 46.1721 10.8811C45.6271 10.8603 45.0563 10.9069 44.5174 10.9793C44.4106 10.9941 44.3775 11.1733 44.5027 11.1831C45.0563 11.2248 45.6381 11.2408 46.1917 11.1856Z" fill="#3792FC"/>
<path opacity="0.05" d="M30.2001 13.1746C30.6289 13.695 31.4619 13.8036 31.9976 13.39C33.2937 12.3893 31.9423 10.546 30.5451 10.9273C30.2858 10.9978 30.3506 11.3676 30.6061 11.3809C31.014 11.4038 31.4524 11.419 31.7783 11.7069C32.1291 12.0138 32.1367 12.5341 31.8489 12.8887C31.0864 13.8246 29.7636 12.4465 30.5641 11.6077C30.6671 11.5029 30.5108 11.3466 30.404 11.4476C29.9256 11.907 29.7445 12.6218 30.2001 13.1746Z" fill="#3792FC"/>
<path opacity="0.05" d="M33.5296 35.228C33.5702 35.3595 33.6951 35.4017 33.8087 35.3238C34.2551 35.0203 34.6997 34.7233 35.1233 34.3873C35.2045 34.3224 35.1866 34.1926 35.1071 34.1374C34.6121 33.7982 33.9451 33.2967 33.317 33.2935C33.158 33.2919 33.046 33.5175 33.2083 33.61C33.4614 33.756 33.7649 33.808 34.036 33.9199C34.3476 34.0498 34.6575 34.2023 34.9334 34.3987C34.9399 34.3078 34.9464 34.2169 34.9513 34.1261C34.479 34.4166 34.0343 34.7428 33.5864 35.0673C33.674 35.0852 33.7633 35.103 33.8509 35.1209C33.6594 34.5788 33.4631 34.0417 33.2505 33.5077C33.205 33.3957 33.0135 33.4574 33.0444 33.5759C33.1937 34.1309 33.3576 34.6795 33.5296 35.228Z" fill="#3792FC"/>
<path d="M30.0666 25.2377H28.0006V23.1718C28.0006 22.6563 27.5827 22.2384 27.0672 22.2384C26.5517 22.2384 26.1338 22.6563 26.1338 23.1718V26.1712C26.1338 26.6867 26.5517 27.1046 27.0672 27.1046H30.0666C30.5821 27.1046 31 26.6867 31 26.1712C31 25.6557 30.5821 25.2377 30.0666 25.2377Z" fill="#3792FC"/>
<path d="M33.5523 19.0976V9.39352C33.5523 8.97285 33.2113 8.6318 32.7906 8.6318H29.065V7.76172C29.065 7.34105 28.7239 7 28.3032 7C27.8826 7 27.5415 7.34105 27.5415 7.76172V8.6318H22.5379V7.76172C22.5379 7.34105 22.1968 7 21.7762 7C21.3555 7 21.0145 7.34105 21.0145 7.76172V8.6318H16.0108V7.76172C16.0108 7.34105 15.6698 7 15.2491 7C14.8284 7 14.4874 7.34105 14.4874 7.76172V8.6318H10.7617C10.341 8.6318 10 8.97285 10 9.39352V29.7907C10 30.2113 10.341 30.5524 10.7617 30.5524H22.0976C23.5704 32.0614 25.6251 33 27.8953 33C32.3642 33 36 29.3643 36 24.8953C36 22.6251 35.0614 20.5704 33.5523 19.0976ZM11.5234 10.1552H32.0289V13.5271H11.5234V10.1552ZM11.5234 29.0289V15.0506H32.0289V17.9267C30.8178 17.2056 29.4042 16.7906 27.8953 16.7906C23.4264 16.7906 19.7906 20.4264 19.7906 24.8953C19.7906 26.4042 20.2056 27.8179 20.9267 29.0289H11.5234ZM27.8953 31.4766C24.2664 31.4766 21.314 28.5242 21.314 24.8953C21.314 21.2664 24.2663 18.3141 27.8953 18.3141C31.5242 18.3141 34.4766 21.2664 34.4766 24.8953C34.4766 28.5242 31.5242 31.4766 27.8953 31.4766Z" fill="#94C5FF"/>
</g>
</svg>
