<svg xmlns="http://www.w3.org/2000/svg" width="100" height="80" viewBox="0 0 100 80">
    <g fill="none" fill-rule="evenodd">
        <path fill="#EBF4FE" d="M.126 57.122c1.429-8.146 3.81-30.2 23.143-30.2 12.89 0 25.891-6.237 39.006-18.71C85.473-6.29 97.948-1.585 99.7 22.326c1.753 23.91-4.204 41.549-17.87 52.915-20.964 6.773-31.51 4.393-31.638-7.138-.193-17.296-27.598-13.838-34.015-4.02-6.417 9.82-17.48 1.184-16.052-6.961z"/>
        <g fill-rule="nonzero">
            <path fill="#F2D9B9" d="M37.936 35.609l-6.991-1.683H11.253l-6.991 1.683C1.757 36.212 0 38.379 0 40.865v25.569c0 .748.63 1.354 1.407 1.354H40.79c.777 0 1.407-.606 1.407-1.354v-25.57c0-2.485-1.757-4.652-4.262-5.255z" transform="translate(13 11)"/>
            <path fill="#A98E6F" d="M37.936 35.608l-4.427-1.065c-.86 2.024-4.147 8.76-11.603 13.758-.484.325-1.13.325-1.614 0-7.456-4.997-10.743-11.734-11.603-13.758l-4.427 1.066C1.757 36.212 0 38.379 0 40.865v25.568c0 .748.63 1.355 1.407 1.355h40.79V40.865c0-2.486-1.756-4.654-4.261-5.257z" transform="translate(13 11)"/>
            <path fill="#D29B6E" d="M14.066 27.153H28.132V35.28H14.066z" transform="translate(13 11)"/>
            <path fill="#F0C087" d="M33.758 13.608V9.545c0-5.237-4.408-9.482-9.846-9.482h-5.626c-5.438 0-9.846 4.245-9.846 9.482v4.063c-1.554 0-2.814 1.213-2.814 2.71 0 1.495 1.26 2.708 2.814 2.708 0 6.733 5.667 12.19 12.66 12.19 6.99 0 12.658-5.457 12.658-12.19 1.554 0 2.814-1.213 2.814-2.709s-1.26-2.709-2.814-2.709z" transform="translate(13 11)"/>
            <path fill="#E6AF78" d="M15.472 19.026V9.545c0-5.008 4.035-9.099 9.144-9.448-.234-.016-.466-.034-.704-.034h-5.626c-5.438 0-9.846 4.245-9.846 9.482v4.063c-1.554 0-2.814 1.213-2.814 2.71 0 1.495 1.26 2.708 2.814 2.708 0 6.733 5.667 12.19 12.66 12.19 1.22 0 2.398-.175 3.516-.486-5.28-1.469-9.144-6.147-9.144-11.704z" transform="translate(13 11)"/>
            <path fill="#D29B6E" d="M21.099 25.799c-1.49 0-2.912-.676-3.905-1.856-.49-.58-.397-1.434.206-1.905.604-.472 1.49-.383 1.978.198.928 1.101 2.513 1.101 3.442 0 .488-.582 1.372-.67 1.978-.198.603.471.696 1.324.206 1.905-.993 1.18-2.416 1.856-3.905 1.856z" transform="translate(13 11)"/>
            <g fill="#64463C">
                <path d="M1.472 4.211c-.777 0-1.406-.605-1.406-1.354V1.502C.066.754.695.148 1.472.148c.778 0 1.407.606 1.407 1.354v1.355c0 .748-.629 1.354-1.407 1.354zM12.725 4.211c-.777 0-1.406-.605-1.406-1.354V1.502c0-.748.629-1.354 1.406-1.354.778 0 1.407.606 1.407 1.354v1.355c0 .748-.63 1.354-1.407 1.354z" transform="translate(13 11) translate(14 14.815)"/>
            </g>
            <g fill="#D5DCED">
                <path d="M7.868 2.857c0-1.496-1.26-2.71-2.813-2.71-1.554 0-2.813 1.214-2.813 2.71 0 .552.173 1.064.467 1.492C1.226 4.747.132 6.043.132 7.598c0 1.87 1.574 3.386 3.516 3.386s3.517-1.516 3.517-3.386c0-.885-.36-1.683-.937-2.286.966-.429 1.64-1.364 1.64-2.455zM27.56 2.857c0-1.496 1.26-2.71 2.814-2.71 1.553 0 2.813 1.214 2.813 2.71 0 .552-.173 1.064-.468 1.492 1.483.398 2.578 1.694 2.578 3.249 0 1.87-1.575 3.386-3.517 3.386s-3.516-1.516-3.516-3.386c0-.885.36-1.683.936-2.286-.965-.429-1.64-1.364-1.64-2.455z" transform="translate(13 11) translate(3.385 2.963)"/>
            </g>
            <g fill="#C5AA95">
                <path d="M6.38 5.148L1.088.053C.405.956 0 2.056 0 3.235v25.569c0 .748.63 1.355 1.407 1.355H8.44V9.937c0-1.796-.741-3.518-2.06-4.789zM35.818 5.148L41.11.053c.683.903 1.088 2.003 1.088 3.182V30.16h-8.44V9.937c0-1.796.741-3.518 2.06-4.789z" transform="translate(13 11) translate(0 37.63)"/>
            </g>
            <path fill="#C5AA95" d="M21.099 44.762c-.777 0-1.407-.607-1.407-1.355V35.28h2.814v8.127c0 .748-.63 1.355-1.407 1.355z" transform="translate(13 11)"/>
            <g fill="#C5AA95">
                <path d="M2.687.267l7.181 3.458-3.13 4.019c-.552.708-1.65.725-2.224.033L.022 2.37.8.873c.347-.67 1.192-.94 1.887-.606zM17.05.267L9.868 3.725l3.13 4.019c.552.708 1.65.725 2.224.033l4.492-5.407-.777-1.497c-.348-.67-1.193-.94-1.887-.606z" transform="translate(13 11) translate(11.23 31.556)"/>
            </g>
            <g>
                <path fill="#E6E6E6" d="M23.077 5.629c0 .093-.002.184-.007.276-.147 2.982-2.671 5.354-5.762 5.354-3.092 0-5.616-2.372-5.762-5.354-.005-.092-.008-.183-.008-.276C11.538 2.52 14.121 0 17.308 0c3.186 0 5.769 2.52 5.769 5.629z" transform="translate(13 11) translate(39.385 10.519)"/>
                <path fill="#D3D3D3" d="M13.828 5.63c0-2.728 1.99-5.002 4.634-5.52-.37-.072-.753-.11-1.145-.11-3.191 0-5.779 2.52-5.779 5.63 0 3.109 2.588 5.63 5.779 5.63.392 0 .775-.04 1.145-.112-2.643-.517-4.634-2.791-4.634-5.518z" transform="translate(13 11) translate(39.385 10.519)"/>
                <path fill="#FFE0EC" d="M34.53 44.268v13.08H.147v-13.08c0-4.3 2.846-7.96 6.821-9.328.48-.164.975-.296 1.484-.392h17.775c.51.096 1.004.228 1.484.392 3.975 1.368 6.82 5.029 6.82 9.328z" transform="translate(13 11) translate(39.385 10.519)"/>
                <g fill="#FFB4BB">
                    <path d="M12.824.03H8.451C3.718.917.145 4.932.145 9.75v13.08H4.52V9.75c0-4.818 3.573-8.833 8.305-9.72z" transform="translate(13 11) translate(39.385 10.519) translate(0 34.519)"/>
                    <path d="M27.71.421l-5.282 3.695c-3.035 2.123-7.145 2.123-10.18 0L6.969.42C7.446.257 7.94.125 8.45.03h17.775c.51.096 1.004.228 1.484.392z" transform="translate(13 11) translate(39.385 10.519) translate(0 34.519)"/>
                </g>
                <g fill="#FAD098">
                    <path d="M2.69 5.535C1.192 5.47 0 4.268 0 2.795 0 1.282 1.26.053 2.818.053c.14 0 .277.01.413.03M27.772 5.535c1.497-.065 2.69-1.267 2.69-2.74 0-1.513-1.262-2.742-2.818-2.742-.14 0-.28.011-.413.03" transform="translate(13 11) translate(39.385 10.519) translate(2 18.815)"/>
                </g>
                <path fill="#FFE1B4" d="M22.615 31.852v6.48c0 2.803-2.377 5.075-5.307 5.075-2.932 0-5.308-2.272-5.308-5.076v-6.48h10.615z" transform="translate(13 11) translate(39.385 10.519)"/>
                <path fill="#FAD098" d="M22.615 31.852v4.873l-1.191.82c-2.455 1.693-5.779 1.693-8.232 0L12 36.726v-4.873h10.615z" transform="translate(13 11) translate(39.385 10.519)"/>
                <path fill="#FFE1B4" d="M13.218 36.057l-4.975-3.47c-2.63-1.834-4.051-4.867-3.739-7.973l.863-8.574c.594-5.905 5.762-10.41 11.94-10.41 6.18 0 11.347 4.505 11.941 10.41l.863 8.574c.313 3.106-1.11 6.139-3.738 7.973l-4.975 3.47c-2.439 1.702-5.742 1.702-8.18 0z" transform="translate(13 11) translate(39.385 10.519)"/>
                <path fill="#FAD098" d="M7.587 26.358c-.084 1.362.375 2.701 1.283 3.746l5.179 6.151c.27.312.577.573.908.782-.623-.21-1.221-.511-1.775-.9l-4.955-3.48c-2.618-1.838-4.034-4.879-3.723-7.993l.858-8.598c.587-5.863 5.64-10.351 11.715-10.436-3.742.087-7.979 3.497-8.2 7.128l-1.29 13.6z" transform="translate(13 11) translate(39.385 10.519)"/>
                <path fill="#D3D3D3" d="M23.077 5.897c-.147 2.986-2.674 5.362-5.769 5.362s-5.623-2.376-5.77-5.362c1.637-.885 3.505-1.403 5.484-1.45h.108c.059-.003.118-.003.178-.003 2.085 0 4.055.525 5.769 1.453z" transform="translate(13 11) translate(39.385 10.519)"/>
                <path fill="#E6E6E6" d="M29.385 17.481c-5.725 0-8.924-5.86-8.924-5.86s-2.673 4.758-11.888 4.645c-.986-.012-2.046-.08-3.187-.216h-.001c.584-5.819 5.596-10.28 11.64-10.417l.108-.001c.06-.002.119-.002.18-.002 3.085 0 5.92 1.127 8.055 2.993 2.137 1.867 3.576 4.471 3.872 7.427l.145 1.431z" transform="translate(13 11) translate(39.385 10.519)"/>
                <path fill="#D3D3D3" d="M17.077 5.63c-3.735.087-7.965 3.501-8.185 7.137l-.334 3.53c-.982-.012-2.036-.081-3.172-.217h-.001c.582-5.837 5.57-10.312 11.584-10.45h.108z" transform="translate(13 11) translate(39.385 10.519)"/>
                <g fill="#D7E9F4" transform="translate(13 11) translate(39.385 10.519) translate(8.615 20.593)">
                    <ellipse cx="14" cy="3.313" rx="3.385" ry="3.259"/>
                    <ellipse cx="3.538" cy="3.313" rx="3.385" ry="3.259"/>
                </g>
                <g fill="#B6CDD8">
                    <path d="M12.808 1.387h-1.462c-.403 0-.73-.299-.73-.667 0-.368.327-.667.73-.667h1.462c.403 0 .73.299.73.667 0 .368-.327.667-.73.667zM2.192 1.387H.731C.327 1.387 0 1.088 0 .72 0 .352.327.053.73.053h1.462c.404 0 .731.299.731.667 0 .368-.327.667-.73.667z" transform="translate(13 11) translate(39.385 10.519) translate(10.462 22.667)"/>
                </g>
                <path fill="#E0B394" d="M16.308 28.74l1.615-.402c.497-.124.793-.601.66-1.067l-1.1-3.864" transform="translate(13 11) translate(39.385 10.519)"/>
                <path fill="#ED7C58" d="M30.16 20.385c-.218-.244-.6-.272-.852-.061l-2.947 2.453c-.501-1.575-2.023-2.724-3.817-2.724-1.996 0-3.654 1.42-3.947 3.269h-2.579c-.292-1.848-1.95-3.269-3.947-3.269-1.794 0-3.315 1.149-3.817 2.724l-2.946-2.453c-.253-.21-.635-.184-.853.06-.219.245-.19.613.062.824l3.574 2.974c.147 1.995 1.876 3.575 3.98 3.575 1.996 0 3.655-1.42 3.947-3.268h2.58c.292 1.848 1.95 3.268 3.946 3.268 2.105 0 3.833-1.58 3.981-3.575l3.573-2.974c.253-.21.281-.58.063-.823zM12 26.572c-1.527 0-2.77-1.196-2.77-2.667 0-1.47 1.243-2.666 2.77-2.666s2.77 1.196 2.77 2.666-1.243 2.667-2.77 2.667zm10.615 0c-1.527 0-2.769-1.196-2.769-2.667 0-1.47 1.242-2.666 2.77-2.666 1.526 0 2.769 1.196 2.769 2.666s-1.243 2.667-2.77 2.667z" transform="translate(13 11) translate(39.385 10.519)"/>
                <g fill="#FFB4BB">
                    <path d="M2.291 13.941L.029 13.941 1.16.104zM22.952 13.941L20.69 13.941 21.822.104z" transform="translate(13 11) translate(39.385 10.519) translate(5.846 43.407)"/>
                </g>
                <path fill="#4D4D4D" d="M14 30.222c.702.156 1.254.279 1.79.345.531.07 1.023.103 1.518.103.494-.001.986-.035 1.516-.105.535-.067 1.088-.189 1.791-.343-.164.689-.647 1.244-1.243 1.634-.601.387-1.334.59-2.064.588-.73 0-1.463-.203-2.063-.59-.596-.39-1.08-.945-1.245-1.632z" transform="translate(13 11) translate(39.385 10.519)"/>
            </g>
        </g>
    </g>
</svg>
