<svg width="47" height="40" viewBox="0 0 47 40" fill="none" xmlns="http://www.w3.org/2000/svg">
<rect opacity="0.05" width="46.6667" height="40" rx="4" fill="white"/>
<mask id="mask0" mask-type="alpha" maskUnits="userSpaceOnUse" x="0" y="0" width="47" height="40">
<rect width="46.6667" height="40" rx="4" fill="white"/>
</mask>
<g mask="url(#mask0)">
<path opacity="0.05" d="M3.45627 12.5428C0.855258 26.6772 -11.5356 26.4728 -6.32358 29.482C-1.11152 32.4911 5.10554 27.7413 10.0383 26.4195C14.971 25.0978 19.393 29.4756 22.1391 24.7192C24.8852 19.9628 20.58 20.6722 21.2903 14.1525C22.0007 7.63275 30.9571 5.83479 24.1815 1.92285C17.4058 -1.98909 6.05729 -1.59172 3.45627 12.5428Z" fill="#3792FC"/>
<path opacity="0.05" d="M34.0757 31.2242C30.7903 33.121 16.4867 39.8462 15.797 36.3974C15.1072 32.9486 20.8266 33.8623 18.9009 29.1549C16.9751 24.4475 8.55443 27.4305 9.58907 21.2226C10.7783 14.0871 29.4344 17.4715 32.9514 15.441C36.4684 13.4105 35.1104 10.5312 36.8348 9.15171C39.9387 9.15171 46.4915 9.15171 46.4915 9.15171L46.4915 38.1218C46.4915 38.1218 39.6012 28.034 34.0757 31.2242Z" fill="#3792FC"/>
<path opacity="0.05" d="M6.65759 36.7423C7.7052 36.7423 8.55445 35.893 8.55445 34.8454C8.55445 33.7978 7.7052 32.9486 6.65759 32.9486C5.60999 32.9486 4.76074 33.7978 4.76074 34.8454C4.76074 35.893 5.60999 36.7423 6.65759 36.7423Z" fill="#3792FC"/>
<path opacity="0.05" d="M42.9892 27.1853C42.9188 27.0004 42.6598 27.0958 42.7028 27.2832C42.8209 27.7999 43.0119 28.3226 43.2183 28.8095C43.2601 28.9085 43.4403 28.8918 43.4164 28.7713C43.315 28.2415 43.1825 27.6901 42.9892 27.1853Z" fill="#3792FC"/>
<path opacity="0.05" d="M10.7609 31.9624C10.9814 31.6166 11.2941 31.703 11.5968 31.8558C11.9052 32.0114 12.1963 32.1037 12.5306 31.9596C13.0537 31.7333 13.3002 30.9436 12.8001 30.5718C12.6387 30.4507 12.4787 30.6496 12.5003 30.8024C12.5306 31.0142 12.6358 31.2491 12.4542 31.4307C12.2107 31.6742 11.9253 31.4696 11.6818 31.3601C11.4195 31.2419 11.1399 31.216 10.8704 31.3255C10.405 31.5143 10.0663 32.1455 10.4367 32.572C10.4886 32.6311 10.6139 32.6037 10.6269 32.5216C10.6572 32.3242 10.6514 32.1368 10.7609 31.9624Z" fill="#3792FC"/>
<path opacity="0.05" d="M6.44757 13.1106C6.50166 13.2859 6.66828 13.3421 6.81975 13.2383C7.41482 12.8336 8.00773 12.4376 8.5725 11.9897C8.68069 11.9032 8.65689 11.7301 8.55086 11.6565C7.89088 11.2042 7.00152 10.5356 6.1641 10.5313C5.95204 10.5291 5.80273 10.8299 6.01912 10.9532C6.35668 11.148 6.76133 11.2172 7.1227 11.3665C7.53816 11.5396 7.95146 11.743 8.31932 12.0049C8.32798 11.8837 8.33664 11.7625 8.34313 11.6413C7.71344 12.0287 7.12053 12.4636 6.5233 12.8964C6.64015 12.9202 6.75916 12.944 6.87601 12.9678C6.62068 12.2451 6.35885 11.5288 6.07538 10.8169C6.01262 10.6676 5.75729 10.7498 5.80056 10.9078C5.99964 11.6478 6.21819 12.3792 6.44757 13.1106Z" fill="#3792FC"/>
<path opacity="0.05" d="M46.1917 11.1856C46.3955 11.1659 46.3697 10.8885 46.1721 10.8811C45.6271 10.8603 45.0563 10.9069 44.5174 10.9793C44.4106 10.9941 44.3775 11.1733 44.5027 11.1831C45.0563 11.2248 45.6381 11.2408 46.1917 11.1856Z" fill="#3792FC"/>
<path opacity="0.05" d="M30.2001 13.1746C30.6289 13.695 31.4619 13.8036 31.9976 13.39C33.2937 12.3893 31.9423 10.546 30.5451 10.9273C30.2858 10.9978 30.3506 11.3676 30.6061 11.3809C31.014 11.4038 31.4524 11.419 31.7783 11.7069C32.1291 12.0138 32.1367 12.5341 31.8489 12.8887C31.0864 13.8246 29.7636 12.4465 30.5641 11.6077C30.6671 11.5029 30.5108 11.3466 30.404 11.4476C29.9256 11.907 29.7445 12.6218 30.2001 13.1746Z" fill="#3792FC"/>
<path opacity="0.05" d="M33.5296 35.228C33.5702 35.3595 33.6951 35.4017 33.8087 35.3238C34.2551 35.0203 34.6997 34.7233 35.1233 34.3873C35.2045 34.3224 35.1866 34.1926 35.1071 34.1374C34.6121 33.7982 33.9451 33.2967 33.317 33.2935C33.158 33.2919 33.046 33.5175 33.2083 33.61C33.4614 33.756 33.7649 33.808 34.036 33.9199C34.3476 34.0498 34.6575 34.2023 34.9334 34.3987C34.9399 34.3078 34.9464 34.2169 34.9513 34.1261C34.479 34.4166 34.0343 34.7428 33.5864 35.0673C33.674 35.0852 33.7633 35.103 33.8509 35.1209C33.6594 34.5788 33.4631 34.0417 33.2505 33.5077C33.205 33.3957 33.0135 33.4574 33.0444 33.5759C33.1937 34.1309 33.3576 34.6795 33.5296 35.228Z" fill="#3792FC"/>
</g>
<path d="M35.9237 23.9639C35.7246 23.2734 35.1643 22.7517 34.4614 22.6022C34.0113 22.5064 33.5432 22.5763 33.1435 22.7888C33.3749 21.3494 33.2533 19.8603 32.7771 18.4724C32.686 18.2071 32.3971 18.0661 32.1319 18.1569C31.8666 18.2479 31.7253 18.5368 31.8163 18.8021C32.3789 20.4412 32.3835 22.2393 31.8323 23.8804L27.7854 27.4747C27.5357 27.6965 27.2618 27.8845 26.9708 28.0371C27.0531 27.7042 27.0475 27.3517 26.9487 27.0169C26.7926 26.488 26.4179 26.0481 25.9206 25.81L22.3355 24.0928C20.7681 23.3421 18.9336 23.2553 17.3024 23.8541L16.938 23.988C15.9265 21.1305 16.6305 17.9616 18.7966 15.7955L22.3818 12.2104H26.3509L29.3886 15.2481C29.587 15.4464 29.9084 15.4464 30.1068 15.2481C30.3051 15.0498 30.3051 14.7282 30.1068 14.5299L27.2044 11.6276L28.2536 8.60809C28.3943 8.2033 28.2389 7.76169 27.8758 7.53407C27.5128 7.30652 27.0475 7.35928 26.7445 7.66215L26.7383 7.6684C26.5284 7.87839 26.1867 7.87839 25.9768 7.6684C25.0855 6.7772 23.6354 6.7772 22.7441 7.6684C22.6424 7.77012 22.5072 7.82608 22.3634 7.82608C22.2196 7.82608 22.0843 7.77006 21.9827 7.6684C21.6793 7.36507 21.2138 7.31256 20.8505 7.54083C20.4873 7.76905 20.3325 8.21127 20.4742 8.61622L21.5281 11.6279L18.0784 15.0774C16.8018 16.3541 15.9532 17.9637 15.6244 19.7323C15.336 21.2832 15.4609 22.8646 15.9837 24.3384L15.1831 24.6323C14.9167 24.286 14.4985 24.0621 14.0288 24.0621H11.4558C10.6531 24.0622 10 24.7153 10 25.518V31.5442C10 32.3469 10.6531 33 11.4558 33H24.8404C26.9428 33 28.9309 32.1931 30.4385 30.7278L35.4111 25.895C35.9264 25.3943 36.1228 24.6543 35.9237 23.9639ZM22.3633 8.84179C22.7784 8.84179 23.1687 8.68015 23.4623 8.38662C23.9575 7.89139 24.7634 7.89139 25.2586 8.38662C25.5521 8.68015 25.9424 8.84179 26.3575 8.84179C26.6523 8.84179 26.9344 8.76034 27.1784 8.60799L26.2795 11.1948H22.4526L21.5487 8.61185C21.7913 8.76166 22.0711 8.84179 22.3633 8.84179ZM11.0157 31.5442V25.518C11.0157 25.2753 11.2131 25.0778 11.4558 25.0778H14.0288C14.2715 25.0778 14.4689 25.2753 14.4689 25.518V31.5442C14.4689 31.7869 14.2715 31.9843 14.0288 31.9843H11.4558C11.2131 31.9844 11.0157 31.7869 11.0157 31.5442ZM34.7033 25.1667L29.7306 29.9995C28.4136 31.2795 26.6769 31.9844 24.8404 31.9844H15.4164C15.4606 31.8454 15.4846 31.6976 15.4846 31.5442V25.6037L17.6524 24.8077C19.028 24.3027 20.5751 24.3759 21.8968 25.009L25.4819 26.7261C25.7237 26.8419 25.8986 27.0473 25.9745 27.3045C26.0504 27.5616 26.015 27.8292 25.8747 28.0577C25.6495 28.4248 25.2054 28.59 24.7949 28.4596L20.0322 26.9451C19.765 26.8602 19.4794 27.0078 19.3943 27.2752C19.3093 27.5424 19.4571 27.828 19.7244 27.913L24.4871 29.4276C24.6833 29.4899 24.883 29.5199 25.0802 29.5199C25.104 29.5199 25.1277 29.5185 25.1513 29.5176C26.3727 29.5 27.5451 29.0466 28.4597 28.2342L33.4419 23.8093C33.6611 23.6146 33.9633 23.5348 34.25 23.5958C34.5904 23.6682 34.8512 23.911 34.9477 24.2454C35.0443 24.5797 34.9529 24.9241 34.7033 25.1667Z" fill="#94C5FF" stroke="#94C5FF"/>
<path d="M31.2649 17.1053C31.3985 17.1053 31.5295 17.0514 31.6239 16.9565C31.7183 16.862 31.7727 16.7315 31.7727 16.5974C31.7727 16.4639 31.7184 16.3334 31.6239 16.2384C31.5295 16.144 31.3985 16.0896 31.2649 16.0896C31.1313 16.0896 31.0008 16.144 30.9059 16.2384C30.8114 16.3334 30.7571 16.4639 30.7571 16.5974C30.7571 16.7315 30.8114 16.862 30.9059 16.9565C31.0003 17.0515 31.1313 17.1053 31.2649 17.1053Z" fill="#94C5FF" stroke="#94C5FF"/>
<path d="M24.45 23L22.65 19.86V19.12H23.25C23.6033 19.12 23.9 19.0433 24.14 18.89C24.38 18.73 24.5333 18.51 24.6 18.23H22.65V17.49H24.59C24.53 17.2367 24.4067 17.0267 24.22 16.86C24.0333 16.6867 23.7733 16.6 23.44 16.6H22.65V15.86H27.16V16.6H25.59C25.8233 16.8533 25.97 17.15 26.03 17.49H27.16V18.23H26.05C25.9833 18.7233 25.7933 19.11 25.48 19.39C25.1667 19.6633 24.7633 19.85 24.27 19.95L26.23 23H24.45Z" fill="#3792FC"/>
</svg>
