<svg width="280" height="160" viewBox="0 0 280 160" fill="none" xmlns="http://www.w3.org/2000/svg">
<rect width="280" height="160" rx="4" fill="#014493"/>
<path d="M138.5 129.5C73.4677 92.6149 21.0753 101.866 0 108.882V156C0 158.209 1.79085 160 3.99999 160H276C278.209 160 280 158.209 280 156V112.5C261.935 129.205 203.532 166.385 138.5 129.5Z" fill="url(#paint0_linear)"/>
<path d="M21.196 131.62C21.1093 131.62 21.0356 131.594 20.975 131.542C20.923 131.49 20.897 131.421 20.897 131.334V130.866C20.897 130.779 20.923 130.71 20.975 130.658C21.0356 130.597 21.1093 130.567 21.196 130.567H25.096C25.1826 130.567 25.252 130.597 25.304 130.658C25.3646 130.71 25.395 130.779 25.395 130.866V131.334C25.395 131.421 25.3646 131.49 25.304 131.542C25.252 131.594 25.1826 131.62 25.096 131.62H21.196Z" fill="#D6ECFF"/>
<path d="M27.6253 135C27.5386 135 27.4693 134.974 27.4173 134.922C27.3653 134.861 27.3393 134.788 27.3393 134.701V126.212C27.3393 126.117 27.3653 126.043 27.4173 125.991C27.4693 125.93 27.5386 125.9 27.6253 125.9H30.7973C31.7853 125.9 32.5566 126.134 33.1113 126.602C33.6746 127.061 33.9563 127.733 33.9563 128.617C33.9563 129.276 33.7916 129.817 33.4623 130.242C33.133 130.667 32.6736 130.961 32.0843 131.126L34.0863 134.597C34.1123 134.649 34.1253 134.697 34.1253 134.74C34.1253 134.809 34.0993 134.87 34.0473 134.922C33.9953 134.974 33.9346 135 33.8653 135H33.2933C33.1633 135 33.0593 134.97 32.9813 134.909C32.912 134.848 32.847 134.762 32.7863 134.649L30.8753 131.321H28.5613V134.701C28.5613 134.788 28.531 134.861 28.4703 134.922C28.4096 134.974 28.336 135 28.2493 135H27.6253ZM30.7453 130.255C32.054 130.255 32.7083 129.705 32.7083 128.604C32.7083 127.503 32.054 126.953 30.7453 126.953H28.5613V130.255H30.7453Z" fill="#D6ECFF"/>
<path d="M35.8711 126.966C35.7845 126.966 35.7108 126.94 35.6501 126.888C35.5981 126.827 35.5721 126.754 35.5721 126.667V125.991C35.5721 125.904 35.5981 125.831 35.6501 125.77C35.7108 125.709 35.7845 125.679 35.8711 125.679H36.6381C36.7248 125.679 36.7985 125.709 36.8591 125.77C36.9198 125.831 36.9501 125.904 36.9501 125.991V126.667C36.9501 126.754 36.9198 126.827 36.8591 126.888C36.7985 126.94 36.7248 126.966 36.6381 126.966H35.8711ZM35.9751 135C35.8885 135 35.8148 134.974 35.7541 134.922C35.7021 134.861 35.6761 134.788 35.6761 134.701V128.539C35.6761 128.452 35.7021 128.383 35.7541 128.331C35.8148 128.27 35.8885 128.24 35.9751 128.24H36.5471C36.6338 128.24 36.7031 128.27 36.7551 128.331C36.8158 128.383 36.8461 128.452 36.8461 128.539V134.701C36.8461 134.788 36.8158 134.861 36.7551 134.922C36.7031 134.974 36.6338 135 36.5471 135H35.9751Z" fill="#D6ECFF"/>
<path d="M41.2692 135.13C40.3592 135.13 39.6745 134.835 39.2152 134.246C38.7645 133.657 38.5219 132.911 38.4872 132.01L38.4742 131.62L38.4872 131.23C38.5219 130.337 38.7689 129.596 39.2282 129.007C39.6875 128.409 40.3679 128.11 41.2692 128.11C42.1705 128.11 42.8725 128.431 43.3752 129.072V126.069C43.3752 125.982 43.4012 125.913 43.4532 125.861C43.5139 125.8 43.5875 125.77 43.6742 125.77H44.2592C44.3459 125.77 44.4152 125.8 44.4672 125.861C44.5279 125.913 44.5582 125.982 44.5582 126.069V134.701C44.5582 134.788 44.5279 134.861 44.4672 134.922C44.4152 134.974 44.3459 135 44.2592 135H43.7002C43.6135 135 43.5442 134.974 43.4922 134.922C43.4402 134.861 43.4142 134.788 43.4142 134.701V134.142C42.9202 134.801 42.2052 135.13 41.2692 135.13ZM41.5162 134.116C42.1229 134.116 42.5779 133.917 42.8812 133.518C43.1845 133.111 43.3492 132.63 43.3752 132.075C43.3839 131.98 43.3882 131.815 43.3882 131.581C43.3882 131.338 43.3839 131.169 43.3752 131.074C43.3579 130.545 43.1889 130.09 42.8682 129.709C42.5562 129.319 42.1055 129.124 41.5162 129.124C40.8922 129.124 40.4372 129.319 40.1512 129.709C39.8652 130.099 39.7092 130.61 39.6832 131.243L39.6702 131.62C39.6702 133.284 40.2855 134.116 41.5162 134.116Z" fill="#D6ECFF"/>
<path d="M46.8299 135C46.7433 135 46.6696 134.974 46.6089 134.922C46.5569 134.861 46.5309 134.788 46.5309 134.701V126.069C46.5309 125.974 46.5569 125.9 46.6089 125.848C46.6696 125.796 46.7433 125.77 46.8299 125.77H47.4279C47.5233 125.77 47.5969 125.796 47.6489 125.848C47.7009 125.9 47.7269 125.974 47.7269 126.069V129.098C47.9783 128.777 48.2729 128.535 48.6109 128.37C48.9576 128.197 49.3823 128.11 49.8849 128.11C50.7169 128.11 51.3626 128.379 51.8219 128.916C52.2899 129.445 52.5239 130.147 52.5239 131.022V134.701C52.5239 134.788 52.4936 134.861 52.4329 134.922C52.3809 134.974 52.3116 135 52.2249 135H51.6139C51.5273 135 51.4536 134.974 51.3929 134.922C51.3409 134.861 51.3149 134.788 51.3149 134.701V131.1C51.3149 130.476 51.1633 129.991 50.8599 129.644C50.5566 129.297 50.1189 129.124 49.5469 129.124C48.9923 129.124 48.5503 129.302 48.2209 129.657C47.8916 130.004 47.7269 130.485 47.7269 131.1V134.701C47.7269 134.788 47.6966 134.861 47.6359 134.922C47.5839 134.974 47.5146 135 47.4279 135H46.8299Z" fill="#D6ECFF"/>
<path d="M54.6094 126.966C54.5228 126.966 54.4491 126.94 54.3884 126.888C54.3364 126.827 54.3104 126.754 54.3104 126.667V125.991C54.3104 125.904 54.3364 125.831 54.3884 125.77C54.4491 125.709 54.5228 125.679 54.6094 125.679H55.3764C55.4631 125.679 55.5368 125.709 55.5974 125.77C55.6581 125.831 55.6884 125.904 55.6884 125.991V126.667C55.6884 126.754 55.6581 126.827 55.5974 126.888C55.5368 126.94 55.4631 126.966 55.3764 126.966H54.6094ZM54.7134 135C54.6268 135 54.5531 134.974 54.4924 134.922C54.4404 134.861 54.4144 134.788 54.4144 134.701V128.539C54.4144 128.452 54.4404 128.383 54.4924 128.331C54.5531 128.27 54.6268 128.24 54.7134 128.24H55.2854C55.3721 128.24 55.4414 128.27 55.4934 128.331C55.5541 128.383 55.5844 128.452 55.5844 128.539V134.701C55.5844 134.788 55.5541 134.861 55.4934 134.922C55.4414 134.974 55.3721 135 55.2854 135H54.7134Z" fill="#D6ECFF"/>
<path d="M57.8365 135C57.7498 135 57.6761 134.974 57.6155 134.922C57.5635 134.861 57.5375 134.788 57.5375 134.701V128.539C57.5375 128.452 57.5635 128.383 57.6155 128.331C57.6761 128.27 57.7498 128.24 57.8365 128.24H58.3825C58.4691 128.24 58.5385 128.27 58.5905 128.331C58.6425 128.383 58.6685 128.452 58.6685 128.539V128.981C59.1365 128.4 59.7691 128.11 60.5665 128.11C61.5198 128.11 62.1958 128.509 62.5945 129.306C62.8025 128.942 63.0971 128.652 63.4785 128.435C63.8685 128.218 64.3018 128.11 64.7785 128.11C65.4891 128.11 66.0698 128.353 66.5205 128.838C66.9711 129.323 67.1965 130.025 67.1965 130.944V134.701C67.1965 134.788 67.1661 134.861 67.1055 134.922C67.0535 134.974 66.9841 135 66.8975 135H66.3385C66.2518 135 66.1781 134.974 66.1175 134.922C66.0655 134.861 66.0395 134.788 66.0395 134.701V131.061C66.0395 130.368 65.8965 129.874 65.6105 129.579C65.3245 129.276 64.9475 129.124 64.4795 129.124C64.0635 129.124 63.7038 129.28 63.4005 129.592C63.1058 129.895 62.9585 130.385 62.9585 131.061V134.701C62.9585 134.788 62.9281 134.861 62.8675 134.922C62.8155 134.974 62.7461 135 62.6595 135H62.0875C62.0008 135 61.9271 134.974 61.8665 134.922C61.8145 134.861 61.7885 134.788 61.7885 134.701V131.061C61.7885 130.376 61.6368 129.882 61.3335 129.579C61.0388 129.276 60.6705 129.124 60.2285 129.124C59.8125 129.124 59.4528 129.276 59.1495 129.579C58.8548 129.882 58.7075 130.372 58.7075 131.048V134.701C58.7075 134.788 58.6771 134.861 58.6165 134.922C58.5645 134.974 58.4951 135 58.4085 135H57.8365Z" fill="#D6ECFF"/>
<path d="M70.9495 135.13C70.5248 135.13 70.1305 135.043 69.7665 134.87C69.4112 134.697 69.1252 134.463 68.9085 134.168C68.7005 133.865 68.5965 133.531 68.5965 133.167C68.5965 132.595 68.8305 132.127 69.2985 131.763C69.7665 131.399 70.4035 131.156 71.2095 131.035L73.1595 130.762V130.385C73.1595 129.492 72.6438 129.046 71.6125 129.046C71.2138 129.046 70.8932 129.128 70.6505 129.293C70.4078 129.449 70.2302 129.635 70.1175 129.852C70.0828 129.939 70.0438 129.999 70.0005 130.034C69.9658 130.06 69.9138 130.073 69.8445 130.073H69.3375C69.2595 130.073 69.1902 130.047 69.1295 129.995C69.0775 129.934 69.0515 129.865 69.0515 129.787C69.0515 129.588 69.1425 129.358 69.3245 129.098C69.5152 128.829 69.8055 128.6 70.1955 128.409C70.5855 128.21 71.0622 128.11 71.6255 128.11C72.5962 128.11 73.2895 128.335 73.7055 128.786C74.1302 129.237 74.3425 129.8 74.3425 130.476V134.701C74.3425 134.788 74.3122 134.861 74.2515 134.922C74.1995 134.974 74.1302 135 74.0435 135H73.4715C73.3848 135 73.3155 134.974 73.2635 134.922C73.2115 134.861 73.1855 134.788 73.1855 134.701V134.129C72.9948 134.415 72.7175 134.653 72.3535 134.844C71.9895 135.035 71.5215 135.13 70.9495 135.13ZM71.2095 134.181C71.7815 134.181 72.2495 133.995 72.6135 133.622C72.9775 133.249 73.1595 132.708 73.1595 131.997V131.633L71.6385 131.854C71.0145 131.941 70.5422 132.088 70.2215 132.296C69.9008 132.504 69.7405 132.764 69.7405 133.076C69.7405 133.431 69.8835 133.704 70.1695 133.895C70.4642 134.086 70.8108 134.181 71.2095 134.181Z" fill="#D6ECFF"/>
<path d="M21.43 60C21.3434 60 21.274 59.974 21.222 59.922C21.17 59.8613 21.144 59.7877 21.144 59.701V51.199C21.144 51.1123 21.17 51.043 21.222 50.991C21.274 50.9303 21.3434 50.9 21.43 50.9H22.08C22.1667 50.9 22.236 50.9303 22.288 50.991C22.34 51.043 22.366 51.1123 22.366 51.199V58.908H26.708C26.8034 58.908 26.877 58.9383 26.929 58.999C26.9897 59.051 27.02 59.1203 27.02 59.207V59.701C27.02 59.7877 26.9897 59.8613 26.929 59.922C26.8684 59.974 26.7947 60 26.708 60H21.43Z" fill="white"/>
<path d="M28.4571 51.966C28.3705 51.966 28.2968 51.94 28.2361 51.888C28.1841 51.8273 28.1581 51.7537 28.1581 51.667V50.991C28.1581 50.9043 28.1841 50.8307 28.2361 50.77C28.2968 50.7093 28.3705 50.679 28.4571 50.679H29.2241C29.3108 50.679 29.3845 50.7093 29.4451 50.77C29.5058 50.8307 29.5361 50.9043 29.5361 50.991V51.667C29.5361 51.7537 29.5058 51.8273 29.4451 51.888C29.3845 51.94 29.3108 51.966 29.2241 51.966H28.4571ZM28.5611 60C28.4745 60 28.4008 59.974 28.3401 59.922C28.2881 59.8613 28.2621 59.7877 28.2621 59.701V53.539C28.2621 53.4523 28.2881 53.383 28.3401 53.331C28.4008 53.2703 28.4745 53.24 28.5611 53.24H29.1331C29.2198 53.24 29.2891 53.2703 29.3411 53.331C29.4018 53.383 29.4321 53.4523 29.4321 53.539V59.701C29.4321 59.7877 29.4018 59.8613 29.3411 59.922C29.2891 59.974 29.2198 60 29.1331 60H28.5611Z" fill="white"/>
<path d="M31.6842 60C31.5975 60 31.5238 59.974 31.4632 59.922C31.4112 59.8613 31.3852 59.7877 31.3852 59.701V53.539C31.3852 53.4523 31.4112 53.383 31.4632 53.331C31.5238 53.2703 31.5975 53.24 31.6842 53.24H32.2302C32.3168 53.24 32.3862 53.2703 32.4382 53.331C32.4902 53.383 32.5162 53.4523 32.5162 53.539V53.981C32.9842 53.4003 33.6168 53.11 34.4142 53.11C35.3675 53.11 36.0435 53.5087 36.4422 54.306C36.6502 53.942 36.9448 53.6517 37.3262 53.435C37.7162 53.2183 38.1495 53.11 38.6262 53.11C39.3368 53.11 39.9175 53.3527 40.3682 53.838C40.8188 54.3233 41.0442 55.0253 41.0442 55.944V59.701C41.0442 59.7877 41.0138 59.8613 40.9532 59.922C40.9012 59.974 40.8319 60 40.7452 60H40.1862C40.0995 60 40.0258 59.974 39.9652 59.922C39.9132 59.8613 39.8872 59.7877 39.8872 59.701V56.061C39.8872 55.3677 39.7442 54.8737 39.4582 54.579C39.1722 54.2757 38.7952 54.124 38.3272 54.124C37.9112 54.124 37.5515 54.28 37.2482 54.592C36.9535 54.8953 36.8062 55.385 36.8062 56.061V59.701C36.8062 59.7877 36.7758 59.8613 36.7152 59.922C36.6632 59.974 36.5938 60 36.5072 60H35.9352C35.8485 60 35.7748 59.974 35.7142 59.922C35.6622 59.8613 35.6362 59.7877 35.6362 59.701V56.061C35.6362 55.3763 35.4845 54.8823 35.1812 54.579C34.8865 54.2757 34.5182 54.124 34.0762 54.124C33.6602 54.124 33.3005 54.2757 32.9972 54.579C32.7025 54.8823 32.5552 55.372 32.5552 56.048V59.701C32.5552 59.7877 32.5248 59.8613 32.4642 59.922C32.4122 59.974 32.3428 60 32.2562 60H31.6842Z" fill="white"/>
<path d="M43.1202 51.966C43.0336 51.966 42.9599 51.94 42.8992 51.888C42.8472 51.8273 42.8212 51.7537 42.8212 51.667V50.991C42.8212 50.9043 42.8472 50.8307 42.8992 50.77C42.9599 50.7093 43.0336 50.679 43.1202 50.679H43.8872C43.9739 50.679 44.0476 50.7093 44.1082 50.77C44.1689 50.8307 44.1992 50.9043 44.1992 50.991V51.667C44.1992 51.7537 44.1689 51.8273 44.1082 51.888C44.0476 51.94 43.9739 51.966 43.8872 51.966H43.1202ZM43.2242 60C43.1376 60 43.0639 59.974 43.0032 59.922C42.9512 59.8613 42.9252 59.7877 42.9252 59.701V53.539C42.9252 53.4523 42.9512 53.383 43.0032 53.331C43.0639 53.2703 43.1376 53.24 43.2242 53.24H43.7962C43.8829 53.24 43.9522 53.2703 44.0042 53.331C44.0649 53.383 44.0952 53.4523 44.0952 53.539V59.701C44.0952 59.7877 44.0649 59.8613 44.0042 59.922C43.9522 59.974 43.8829 60 43.7962 60H43.2242Z" fill="white"/>
<path d="M48.6483 60C47.3049 60 46.6333 59.2417 46.6333 57.725V54.241H45.6063C45.5196 54.241 45.4503 54.215 45.3983 54.163C45.3463 54.111 45.3203 54.0417 45.3203 53.955V53.539C45.3203 53.4523 45.3463 53.383 45.3983 53.331C45.4503 53.2703 45.5196 53.24 45.6063 53.24H46.6333V51.069C46.6333 50.9823 46.6593 50.913 46.7113 50.861C46.7633 50.8003 46.8326 50.77 46.9193 50.77H47.4913C47.5779 50.77 47.6473 50.8003 47.6993 50.861C47.7599 50.913 47.7903 50.9823 47.7903 51.069V53.24H49.4023C49.4889 53.24 49.5583 53.2703 49.6103 53.331C49.6709 53.383 49.7013 53.4523 49.7013 53.539V53.955C49.7013 54.0417 49.6709 54.111 49.6103 54.163C49.5583 54.215 49.4889 54.241 49.4023 54.241H47.7903V57.634C47.7903 58.076 47.8596 58.4097 47.9983 58.635C48.1456 58.8603 48.3926 58.973 48.7393 58.973H49.5323C49.6189 58.973 49.6883 59.0033 49.7403 59.064C49.7923 59.116 49.8183 59.1853 49.8183 59.272V59.701C49.8183 59.7877 49.7923 59.8613 49.7403 59.922C49.6883 59.974 49.6189 60 49.5323 60H48.6483Z" fill="white"/>
<path d="M53.7663 60.13C52.8823 60.13 52.176 59.857 51.6473 59.311C51.1186 58.7563 50.8283 58.0023 50.7763 57.049L50.7633 56.607L50.7763 56.178C50.8283 55.242 51.1186 54.4967 51.6473 53.942C52.176 53.3873 52.8823 53.11 53.7663 53.11C54.7196 53.11 55.4563 53.4133 55.9763 54.02C56.505 54.6267 56.7693 55.45 56.7693 56.49V56.724C56.7693 56.8107 56.739 56.8843 56.6783 56.945C56.6263 56.997 56.557 57.023 56.4703 57.023H51.9593V57.14C51.9853 57.7033 52.1586 58.1843 52.4793 58.583C52.8 58.9817 53.2246 59.181 53.7533 59.181C54.1606 59.181 54.49 59.103 54.7413 58.947C55.0013 58.7823 55.1963 58.6133 55.3263 58.44C55.4043 58.336 55.465 58.2753 55.5083 58.258C55.5516 58.232 55.6253 58.219 55.7293 58.219H56.3013C56.3793 58.219 56.4443 58.2407 56.4963 58.284C56.557 58.3273 56.5873 58.3837 56.5873 58.453C56.5873 58.6437 56.4703 58.8733 56.2363 59.142C56.0023 59.4107 55.6686 59.6447 55.2353 59.844C54.8106 60.0347 54.321 60.13 53.7663 60.13ZM55.5863 56.139V56.1C55.5863 55.4933 55.4216 54.9993 55.0923 54.618C54.763 54.2367 54.321 54.046 53.7663 54.046C53.203 54.046 52.761 54.2367 52.4403 54.618C52.1196 54.9993 51.9593 55.4933 51.9593 56.1V56.139H55.5863Z" fill="white"/>
<path d="M60.82 60.13C59.91 60.13 59.2254 59.8353 58.766 59.246C58.3154 58.6567 58.0727 57.9113 58.038 57.01L58.025 56.62L58.038 56.23C58.0727 55.3373 58.3197 54.5963 58.779 54.007C59.2384 53.409 59.9187 53.11 60.82 53.11C61.7214 53.11 62.4234 53.4307 62.926 54.072V51.069C62.926 50.9823 62.952 50.913 63.004 50.861C63.0647 50.8003 63.1384 50.77 63.225 50.77H63.81C63.8967 50.77 63.966 50.8003 64.018 50.861C64.0787 50.913 64.109 50.9823 64.109 51.069V59.701C64.109 59.7877 64.0787 59.8613 64.018 59.922C63.966 59.974 63.8967 60 63.81 60H63.251C63.1644 60 63.095 59.974 63.043 59.922C62.991 59.8613 62.965 59.7877 62.965 59.701V59.142C62.471 59.8007 61.756 60.13 60.82 60.13ZM61.067 59.116C61.6737 59.116 62.1287 58.9167 62.432 58.518C62.7354 58.1107 62.9 57.6297 62.926 57.075C62.9347 56.9797 62.939 56.815 62.939 56.581C62.939 56.3383 62.9347 56.1693 62.926 56.074C62.9087 55.5453 62.7397 55.0903 62.419 54.709C62.107 54.319 61.6564 54.124 61.067 54.124C60.443 54.124 59.988 54.319 59.702 54.709C59.416 55.099 59.26 55.6103 59.234 56.243L59.221 56.62C59.221 58.284 59.8364 59.116 61.067 59.116Z" fill="white"/>
<path d="M72.57 60.13C71.634 60.13 70.919 59.8007 70.425 59.142V59.701C70.425 59.7877 70.3947 59.8613 70.334 59.922C70.282 59.974 70.2127 60 70.126 60H69.58C69.4933 60 69.4197 59.974 69.359 59.922C69.307 59.8613 69.281 59.7877 69.281 59.701V51.069C69.281 50.9737 69.307 50.9 69.359 50.848C69.4197 50.796 69.4933 50.77 69.58 50.77H70.165C70.2517 50.77 70.321 50.8003 70.373 50.861C70.4337 50.913 70.464 50.9823 70.464 51.069V54.072C70.9493 53.4307 71.6513 53.11 72.57 53.11C73.48 53.11 74.1603 53.409 74.611 54.007C75.0703 54.5963 75.313 55.3373 75.339 56.23C75.3477 56.3253 75.352 56.4553 75.352 56.62C75.352 56.7847 75.3477 56.9147 75.339 57.01C75.313 57.9027 75.0703 58.648 74.611 59.246C74.1603 59.8353 73.48 60.13 72.57 60.13ZM72.323 59.116C72.947 59.116 73.402 58.921 73.688 58.531C73.974 58.141 74.13 57.6297 74.156 56.997C74.1647 56.9103 74.169 56.7847 74.169 56.62C74.169 54.956 73.5537 54.124 72.323 54.124C71.7337 54.124 71.2787 54.319 70.958 54.709C70.646 55.0903 70.4813 55.5453 70.464 56.074C70.4553 56.1693 70.451 56.3383 70.451 56.581C70.451 56.815 70.4553 56.9797 70.464 57.075C70.4813 57.6297 70.6417 58.1107 70.945 58.518C71.257 58.9167 71.7163 59.116 72.323 59.116Z" fill="white"/>
<path d="M79.5087 60.13C78.6854 60.13 78.0484 59.8657 77.5977 59.337C77.1471 58.7997 76.9217 58.089 76.9217 57.205V53.539C76.9217 53.4523 76.9477 53.383 76.9997 53.331C77.0604 53.2703 77.1341 53.24 77.2207 53.24H77.8187C77.9054 53.24 77.9747 53.2703 78.0267 53.331C78.0874 53.383 78.1177 53.4523 78.1177 53.539V57.14C78.1177 58.4573 78.6897 59.116 79.8337 59.116C80.3884 59.116 80.8261 58.9427 81.1467 58.596C81.4761 58.2407 81.6407 57.7553 81.6407 57.14V53.539C81.6407 53.4523 81.6667 53.383 81.7187 53.331C81.7794 53.2703 81.8531 53.24 81.9397 53.24H82.5377C82.6244 53.24 82.6937 53.2703 82.7457 53.331C82.8064 53.383 82.8367 53.4523 82.8367 53.539V59.701C82.8367 59.7877 82.8064 59.8613 82.7457 59.922C82.6937 59.974 82.6244 60 82.5377 60H81.9787C81.8921 60 81.8184 59.974 81.7577 59.922C81.7057 59.8613 81.6797 59.7877 81.6797 59.701V59.116C81.4284 59.454 81.1337 59.7097 80.7957 59.883C80.4577 60.0477 80.0287 60.13 79.5087 60.13Z" fill="white"/>
<path d="M87.3817 60C86.0383 60 85.3667 59.2417 85.3667 57.725V54.241H84.3397C84.253 54.241 84.1837 54.215 84.1317 54.163C84.0797 54.111 84.0537 54.0417 84.0537 53.955V53.539C84.0537 53.4523 84.0797 53.383 84.1317 53.331C84.1837 53.2703 84.253 53.24 84.3397 53.24H85.3667V51.069C85.3667 50.9823 85.3927 50.913 85.4447 50.861C85.4967 50.8003 85.566 50.77 85.6527 50.77H86.2247C86.3113 50.77 86.3807 50.8003 86.4327 50.861C86.4933 50.913 86.5237 50.9823 86.5237 51.069V53.24H88.1357C88.2223 53.24 88.2917 53.2703 88.3437 53.331C88.4043 53.383 88.4347 53.4523 88.4347 53.539V53.955C88.4347 54.0417 88.4043 54.111 88.3437 54.163C88.2917 54.215 88.2223 54.241 88.1357 54.241H86.5237V57.634C86.5237 58.076 86.593 58.4097 86.7317 58.635C86.879 58.8603 87.126 58.973 87.4727 58.973H88.2657C88.3523 58.973 88.4217 59.0033 88.4737 59.064C88.5257 59.116 88.5517 59.1853 88.5517 59.272V59.701C88.5517 59.7877 88.5257 59.8613 88.4737 59.922C88.4217 59.974 88.3523 60 88.2657 60H87.3817Z" fill="white"/>
<path d="M93.3329 60C93.2463 60 93.1726 59.974 93.1119 59.922C93.0599 59.8613 93.0339 59.7877 93.0339 59.701V51.069C93.0339 50.9737 93.0599 50.9 93.1119 50.848C93.1726 50.796 93.2463 50.77 93.3329 50.77H93.9309C94.0263 50.77 94.0999 50.796 94.1519 50.848C94.2039 50.9 94.2299 50.9737 94.2299 51.069V54.098C94.4813 53.7773 94.7759 53.5347 95.1139 53.37C95.4606 53.1967 95.8853 53.11 96.3879 53.11C97.2199 53.11 97.8656 53.3787 98.3249 53.916C98.7929 54.4447 99.0269 55.1467 99.0269 56.022V59.701C99.0269 59.7877 98.9966 59.8613 98.9359 59.922C98.8839 59.974 98.8146 60 98.7279 60H98.1169C98.0303 60 97.9566 59.974 97.8959 59.922C97.8439 59.8613 97.8179 59.7877 97.8179 59.701V56.1C97.8179 55.476 97.6663 54.9907 97.3629 54.644C97.0596 54.2973 96.6219 54.124 96.0499 54.124C95.4953 54.124 95.0533 54.3017 94.7239 54.657C94.3946 55.0037 94.2299 55.4847 94.2299 56.1V59.701C94.2299 59.7877 94.1996 59.8613 94.1389 59.922C94.0869 59.974 94.0176 60 93.9309 60H93.3329Z" fill="white"/>
<path d="M102.789 60.13C102.365 60.13 101.97 60.0433 101.606 59.87C101.251 59.6967 100.965 59.4627 100.748 59.168C100.54 58.8647 100.436 58.531 100.436 58.167C100.436 57.595 100.67 57.127 101.138 56.763C101.606 56.399 102.243 56.1563 103.049 56.035L104.999 55.762V55.385C104.999 54.4923 104.484 54.046 103.452 54.046C103.054 54.046 102.733 54.1283 102.49 54.293C102.248 54.449 102.07 54.6353 101.957 54.852C101.923 54.9387 101.884 54.9993 101.84 55.034C101.806 55.06 101.754 55.073 101.684 55.073H101.177C101.099 55.073 101.03 55.047 100.969 54.995C100.917 54.9343 100.891 54.865 100.891 54.787C100.891 54.5877 100.982 54.358 101.164 54.098C101.355 53.8293 101.645 53.5997 102.035 53.409C102.425 53.2097 102.902 53.11 103.465 53.11C104.436 53.11 105.129 53.3353 105.545 53.786C105.97 54.2367 106.182 54.8 106.182 55.476V59.701C106.182 59.7877 106.152 59.8613 106.091 59.922C106.039 59.974 105.97 60 105.883 60H105.311C105.225 60 105.155 59.974 105.103 59.922C105.051 59.8613 105.025 59.7877 105.025 59.701V59.129C104.835 59.415 104.557 59.6533 104.193 59.844C103.829 60.0347 103.361 60.13 102.789 60.13ZM103.049 59.181C103.621 59.181 104.089 58.9947 104.453 58.622C104.817 58.2493 104.999 57.7077 104.999 56.997V56.633L103.478 56.854C102.854 56.9407 102.382 57.088 102.061 57.296C101.741 57.504 101.58 57.764 101.58 58.076C101.58 58.4313 101.723 58.7043 102.009 58.895C102.304 59.0857 102.651 59.181 103.049 59.181Z" fill="white"/>
<path d="M108.364 60C108.277 60 108.204 59.974 108.143 59.922C108.091 59.8613 108.065 59.7877 108.065 59.701V53.539C108.065 53.4523 108.091 53.383 108.143 53.331C108.204 53.2703 108.277 53.24 108.364 53.24H108.923C109.018 53.24 109.092 53.266 109.144 53.318C109.196 53.37 109.222 53.4437 109.222 53.539V54.111C109.482 53.7903 109.781 53.5433 110.119 53.37C110.466 53.1967 110.895 53.11 111.406 53.11C112.238 53.11 112.884 53.3787 113.343 53.916C113.802 54.4447 114.032 55.1467 114.032 56.022V59.701C114.032 59.7877 114.002 59.8613 113.941 59.922C113.889 59.974 113.82 60 113.733 60H113.135C113.048 60 112.975 59.974 112.914 59.922C112.862 59.8613 112.836 59.7877 112.836 59.701V56.1C112.836 55.476 112.684 54.9907 112.381 54.644C112.078 54.2973 111.644 54.124 111.081 54.124C110.526 54.124 110.084 54.3017 109.755 54.657C109.426 55.0037 109.261 55.4847 109.261 56.1V59.701C109.261 59.7877 109.231 59.8613 109.17 59.922C109.118 59.974 109.049 60 108.962 60H108.364Z" fill="white"/>
<path d="M118.381 60.13C117.471 60.13 116.786 59.8353 116.327 59.246C115.876 58.6567 115.633 57.9113 115.599 57.01L115.586 56.62L115.599 56.23C115.633 55.3373 115.88 54.5963 116.34 54.007C116.799 53.409 117.479 53.11 118.381 53.11C119.282 53.11 119.984 53.4307 120.487 54.072V51.069C120.487 50.9823 120.513 50.913 120.565 50.861C120.625 50.8003 120.699 50.77 120.786 50.77H121.371C121.457 50.77 121.527 50.8003 121.579 50.861C121.639 50.913 121.67 50.9823 121.67 51.069V59.701C121.67 59.7877 121.639 59.8613 121.579 59.922C121.527 59.974 121.457 60 121.371 60H120.812C120.725 60 120.656 59.974 120.604 59.922C120.552 59.8613 120.526 59.7877 120.526 59.701V59.142C120.032 59.8007 119.317 60.13 118.381 60.13ZM118.628 59.116C119.234 59.116 119.689 58.9167 119.993 58.518C120.296 58.1107 120.461 57.6297 120.487 57.075C120.495 56.9797 120.5 56.815 120.5 56.581C120.5 56.3383 120.495 56.1693 120.487 56.074C120.469 55.5453 120.3 55.0903 119.98 54.709C119.668 54.319 119.217 54.124 118.628 54.124C118.004 54.124 117.549 54.319 117.263 54.709C116.977 55.099 116.821 55.6103 116.795 56.243L116.782 56.62C116.782 58.284 117.397 59.116 118.628 59.116Z" fill="white"/>
<path d="M123.941 62.47C123.855 62.47 123.781 62.444 123.72 62.392C123.668 62.34 123.642 62.2663 123.642 62.171V53.539C123.642 53.4437 123.668 53.37 123.72 53.318C123.781 53.266 123.855 53.24 123.941 53.24H124.487C124.583 53.24 124.656 53.266 124.708 53.318C124.76 53.37 124.786 53.4437 124.786 53.539V54.111C125.289 53.4437 126.004 53.11 126.931 53.11C127.841 53.11 128.522 53.4003 128.972 53.981C129.432 54.553 129.674 55.2853 129.7 56.178C129.709 56.2733 129.713 56.4207 129.713 56.62C129.713 56.8193 129.709 56.9667 129.7 57.062C129.674 57.946 129.432 58.6783 128.972 59.259C128.522 59.8397 127.841 60.13 126.931 60.13C126.004 60.13 125.302 59.8007 124.825 59.142V62.171C124.825 62.2577 124.795 62.327 124.734 62.379C124.682 62.4397 124.613 62.47 124.526 62.47H123.941ZM126.684 59.116C127.308 59.116 127.763 58.921 128.049 58.531C128.335 58.141 128.491 57.6297 128.517 56.997C128.526 56.9103 128.53 56.7847 128.53 56.62C128.53 54.956 127.915 54.124 126.684 54.124C126.078 54.124 125.618 54.3277 125.306 54.735C125.003 55.1337 124.843 55.606 124.825 56.152C124.817 56.2473 124.812 56.4163 124.812 56.659C124.812 56.9017 124.817 57.0707 124.825 57.166C124.843 57.6947 125.007 58.154 125.319 58.544C125.64 58.9253 126.095 59.116 126.684 59.116Z" fill="white"/>
<path d="M131.543 51.966C131.456 51.966 131.383 51.94 131.322 51.888C131.27 51.8273 131.244 51.7537 131.244 51.667V50.991C131.244 50.9043 131.27 50.8307 131.322 50.77C131.383 50.7093 131.456 50.679 131.543 50.679H132.31C132.397 50.679 132.47 50.7093 132.531 50.77C132.592 50.8307 132.622 50.9043 132.622 50.991V51.667C132.622 51.7537 132.592 51.8273 132.531 51.888C132.47 51.94 132.397 51.966 132.31 51.966H131.543ZM131.647 60C131.56 60 131.487 59.974 131.426 59.922C131.374 59.8613 131.348 59.7877 131.348 59.701V53.539C131.348 53.4523 131.374 53.383 131.426 53.331C131.487 53.2703 131.56 53.24 131.647 53.24H132.219C132.306 53.24 132.375 53.2703 132.427 53.331C132.488 53.383 132.518 53.4523 132.518 53.539V59.701C132.518 59.7877 132.488 59.8613 132.427 59.922C132.375 59.974 132.306 60 132.219 60H131.647Z" fill="white"/>
<path d="M137.175 60.13C136.248 60.13 135.524 59.87 135.004 59.35C134.484 58.8213 134.211 58.0847 134.185 57.14L134.172 56.62L134.185 56.1C134.211 55.1553 134.484 54.423 135.004 53.903C135.524 53.3743 136.248 53.11 137.175 53.11C137.799 53.11 138.323 53.2227 138.748 53.448C139.181 53.6647 139.502 53.9377 139.71 54.267C139.927 54.5963 140.044 54.9257 140.061 55.255C140.07 55.333 140.039 55.4023 139.97 55.463C139.909 55.5237 139.84 55.554 139.762 55.554H139.19C139.103 55.554 139.038 55.5367 138.995 55.502C138.952 55.4587 138.908 55.385 138.865 55.281C138.709 54.8563 138.492 54.5573 138.215 54.384C137.946 54.202 137.604 54.111 137.188 54.111C136.642 54.111 136.209 54.28 135.888 54.618C135.567 54.956 135.394 55.4717 135.368 56.165L135.355 56.62L135.368 57.075C135.394 57.7683 135.567 58.284 135.888 58.622C136.209 58.96 136.642 59.129 137.188 59.129C137.613 59.129 137.959 59.0423 138.228 58.869C138.497 58.687 138.709 58.3837 138.865 57.959C138.908 57.855 138.952 57.7857 138.995 57.751C139.038 57.7077 139.103 57.686 139.19 57.686H139.762C139.84 57.686 139.909 57.7163 139.97 57.777C140.039 57.8377 140.07 57.907 140.061 57.985C140.044 58.3057 139.927 58.6307 139.71 58.96C139.502 59.2893 139.181 59.5667 138.748 59.792C138.323 60.0173 137.799 60.13 137.175 60.13Z" fill="white"/>
<path d="M141.931 60C141.844 60 141.77 59.974 141.71 59.922C141.658 59.8613 141.632 59.7877 141.632 59.701V51.069C141.632 50.9737 141.658 50.9 141.71 50.848C141.77 50.796 141.844 50.77 141.931 50.77H142.49C142.576 50.77 142.646 50.8003 142.698 50.861C142.758 50.913 142.789 50.9823 142.789 51.069V55.606L145.389 53.461C145.519 53.3657 145.61 53.305 145.662 53.279C145.714 53.253 145.796 53.24 145.909 53.24H146.559C146.637 53.24 146.697 53.266 146.741 53.318C146.793 53.3613 146.819 53.4263 146.819 53.513C146.819 53.591 146.771 53.6733 146.676 53.76L143.634 56.256L147.001 59.48C147.096 59.5753 147.144 59.6577 147.144 59.727C147.144 59.805 147.118 59.87 147.066 59.922C147.022 59.974 146.962 60 146.884 60H146.247C146.117 60 146.021 59.987 145.961 59.961C145.909 59.935 145.831 59.8743 145.727 59.779L142.789 56.997V59.701C142.789 59.7877 142.758 59.8613 142.698 59.922C142.646 59.974 142.576 60 142.49 60H141.931Z" fill="white"/>
<path d="M150.644 60.13C149.76 60.13 149.054 59.857 148.525 59.311C147.997 58.7563 147.706 58.0023 147.654 57.049L147.641 56.607L147.654 56.178C147.706 55.242 147.997 54.4967 148.525 53.942C149.054 53.3873 149.76 53.11 150.644 53.11C151.598 53.11 152.334 53.4133 152.854 54.02C153.383 54.6267 153.647 55.45 153.647 56.49V56.724C153.647 56.8107 153.617 56.8843 153.556 56.945C153.504 56.997 153.435 57.023 153.348 57.023H148.837V57.14C148.863 57.7033 149.037 58.1843 149.357 58.583C149.678 58.9817 150.103 59.181 150.631 59.181C151.039 59.181 151.368 59.103 151.619 58.947C151.879 58.7823 152.074 58.6133 152.204 58.44C152.282 58.336 152.343 58.2753 152.386 58.258C152.43 58.232 152.503 58.219 152.607 58.219H153.179C153.257 58.219 153.322 58.2407 153.374 58.284C153.435 58.3273 153.465 58.3837 153.465 58.453C153.465 58.6437 153.348 58.8733 153.114 59.142C152.88 59.4107 152.547 59.6447 152.113 59.844C151.689 60.0347 151.199 60.13 150.644 60.13ZM152.464 56.139V56.1C152.464 55.4933 152.3 54.9993 151.97 54.618C151.641 54.2367 151.199 54.046 150.644 54.046C150.081 54.046 149.639 54.2367 149.318 54.618C148.998 54.9993 148.837 55.4933 148.837 56.1V56.139H152.464Z" fill="white"/>
<path d="M157.698 60.13C156.788 60.13 156.103 59.8353 155.644 59.246C155.193 58.6567 154.951 57.9113 154.916 57.01L154.903 56.62L154.916 56.23C154.951 55.3373 155.198 54.5963 155.657 54.007C156.116 53.409 156.797 53.11 157.698 53.11C158.599 53.11 159.301 53.4307 159.804 54.072V51.069C159.804 50.9823 159.83 50.913 159.882 50.861C159.943 50.8003 160.016 50.77 160.103 50.77H160.688C160.775 50.77 160.844 50.8003 160.896 50.861C160.957 50.913 160.987 50.9823 160.987 51.069V59.701C160.987 59.7877 160.957 59.8613 160.896 59.922C160.844 59.974 160.775 60 160.688 60H160.129C160.042 60 159.973 59.974 159.921 59.922C159.869 59.8613 159.843 59.7877 159.843 59.701V59.142C159.349 59.8007 158.634 60.13 157.698 60.13ZM157.945 59.116C158.552 59.116 159.007 58.9167 159.31 58.518C159.613 58.1107 159.778 57.6297 159.804 57.075C159.813 56.9797 159.817 56.815 159.817 56.581C159.817 56.3383 159.813 56.1693 159.804 56.074C159.787 55.5453 159.618 55.0903 159.297 54.709C158.985 54.319 158.534 54.124 157.945 54.124C157.321 54.124 156.866 54.319 156.58 54.709C156.294 55.099 156.138 55.6103 156.112 56.243L156.099 56.62C156.099 58.284 156.714 59.116 157.945 59.116Z" fill="white"/>
<path d="M166.458 62.47C166.371 62.47 166.298 62.444 166.237 62.392C166.185 62.34 166.159 62.2663 166.159 62.171V53.539C166.159 53.4437 166.185 53.37 166.237 53.318C166.298 53.266 166.371 53.24 166.458 53.24H167.004C167.099 53.24 167.173 53.266 167.225 53.318C167.277 53.37 167.303 53.4437 167.303 53.539V54.111C167.806 53.4437 168.521 53.11 169.448 53.11C170.358 53.11 171.038 53.4003 171.489 53.981C171.948 54.553 172.191 55.2853 172.217 56.178C172.226 56.2733 172.23 56.4207 172.23 56.62C172.23 56.8193 172.226 56.9667 172.217 57.062C172.191 57.946 171.948 58.6783 171.489 59.259C171.038 59.8397 170.358 60.13 169.448 60.13C168.521 60.13 167.819 59.8007 167.342 59.142V62.171C167.342 62.2577 167.312 62.327 167.251 62.379C167.199 62.4397 167.13 62.47 167.043 62.47H166.458ZM169.201 59.116C169.825 59.116 170.28 58.921 170.566 58.531C170.852 58.141 171.008 57.6297 171.034 56.997C171.043 56.9103 171.047 56.7847 171.047 56.62C171.047 54.956 170.432 54.124 169.201 54.124C168.594 54.124 168.135 54.3277 167.823 54.735C167.52 55.1337 167.359 55.606 167.342 56.152C167.333 56.2473 167.329 56.4163 167.329 56.659C167.329 56.9017 167.333 57.0707 167.342 57.166C167.359 57.6947 167.524 58.154 167.836 58.544C168.157 58.9253 168.612 59.116 169.201 59.116Z" fill="white"/>
<path d="M174.177 60C174.09 60 174.016 59.974 173.956 59.922C173.904 59.8613 173.878 59.7877 173.878 59.701V51.069C173.878 50.9737 173.904 50.9 173.956 50.848C174.016 50.796 174.09 50.77 174.177 50.77H174.749C174.835 50.77 174.905 50.8003 174.957 50.861C175.017 50.913 175.048 50.9823 175.048 51.069V59.701C175.048 59.7877 175.017 59.8613 174.957 59.922C174.905 59.974 174.835 60 174.749 60H174.177Z" fill="white"/>
<path d="M178.872 60.13C178.448 60.13 178.053 60.0433 177.689 59.87C177.334 59.6967 177.048 59.4627 176.831 59.168C176.623 58.8647 176.519 58.531 176.519 58.167C176.519 57.595 176.753 57.127 177.221 56.763C177.689 56.399 178.326 56.1563 179.132 56.035L181.082 55.762V55.385C181.082 54.4923 180.567 54.046 179.535 54.046C179.137 54.046 178.816 54.1283 178.573 54.293C178.331 54.449 178.153 54.6353 178.04 54.852C178.006 54.9387 177.967 54.9993 177.923 55.034C177.889 55.06 177.837 55.073 177.767 55.073H177.26C177.182 55.073 177.113 55.047 177.052 54.995C177 54.9343 176.974 54.865 176.974 54.787C176.974 54.5877 177.065 54.358 177.247 54.098C177.438 53.8293 177.728 53.5997 178.118 53.409C178.508 53.2097 178.985 53.11 179.548 53.11C180.519 53.11 181.212 53.3353 181.628 53.786C182.053 54.2367 182.265 54.8 182.265 55.476V59.701C182.265 59.7877 182.235 59.8613 182.174 59.922C182.122 59.974 182.053 60 181.966 60H181.394C181.308 60 181.238 59.974 181.186 59.922C181.134 59.8613 181.108 59.7877 181.108 59.701V59.129C180.918 59.415 180.64 59.6533 180.276 59.844C179.912 60.0347 179.444 60.13 178.872 60.13ZM179.132 59.181C179.704 59.181 180.172 58.9947 180.536 58.622C180.9 58.2493 181.082 57.7077 181.082 56.997V56.633L179.561 56.854C178.937 56.9407 178.465 57.088 178.144 57.296C177.824 57.504 177.663 57.764 177.663 58.076C177.663 58.4313 177.806 58.7043 178.092 58.895C178.387 59.0857 178.734 59.181 179.132 59.181Z" fill="white"/>
<path d="M184.447 60C184.36 60 184.287 59.974 184.226 59.922C184.174 59.8613 184.148 59.7877 184.148 59.701V53.539C184.148 53.4523 184.174 53.383 184.226 53.331C184.287 53.2703 184.36 53.24 184.447 53.24H185.006C185.101 53.24 185.175 53.266 185.227 53.318C185.279 53.37 185.305 53.4437 185.305 53.539V54.111C185.565 53.7903 185.864 53.5433 186.202 53.37C186.549 53.1967 186.978 53.11 187.489 53.11C188.321 53.11 188.967 53.3787 189.426 53.916C189.885 54.4447 190.115 55.1467 190.115 56.022V59.701C190.115 59.7877 190.085 59.8613 190.024 59.922C189.972 59.974 189.903 60 189.816 60H189.218C189.131 60 189.058 59.974 188.997 59.922C188.945 59.8613 188.919 59.7877 188.919 59.701V56.1C188.919 55.476 188.767 54.9907 188.464 54.644C188.161 54.2973 187.727 54.124 187.164 54.124C186.609 54.124 186.167 54.3017 185.838 54.657C185.509 55.0037 185.344 55.4847 185.344 56.1V59.701C185.344 59.7877 185.314 59.8613 185.253 59.922C185.201 59.974 185.132 60 185.045 60H184.447Z" fill="white"/>
<path d="M194.308 60.13C193.71 60.13 193.203 60.0347 192.787 59.844C192.379 59.6447 192.076 59.4193 191.877 59.168C191.677 58.9167 191.578 58.7087 191.578 58.544C191.578 58.4573 191.608 58.3923 191.669 58.349C191.729 58.297 191.794 58.271 191.864 58.271H192.41C192.462 58.271 192.501 58.2797 192.527 58.297C192.561 58.3143 192.605 58.3533 192.657 58.414C192.856 58.6567 193.077 58.8473 193.32 58.986C193.571 59.1247 193.905 59.194 194.321 59.194C194.789 59.194 195.161 59.1073 195.439 58.934C195.725 58.7607 195.868 58.5093 195.868 58.18C195.868 57.9633 195.807 57.79 195.686 57.66C195.564 57.53 195.361 57.413 195.075 57.309C194.797 57.205 194.381 57.0923 193.827 56.971C193.073 56.8063 192.54 56.568 192.228 56.256C191.916 55.944 191.76 55.541 191.76 55.047C191.76 54.7263 191.855 54.4187 192.046 54.124C192.236 53.8207 192.518 53.578 192.891 53.396C193.272 53.2053 193.723 53.11 194.243 53.11C194.789 53.11 195.252 53.201 195.634 53.383C196.024 53.565 196.314 53.7773 196.505 54.02C196.704 54.2627 196.804 54.4663 196.804 54.631C196.804 54.709 196.773 54.774 196.713 54.826C196.661 54.878 196.596 54.904 196.518 54.904H196.024C195.902 54.904 195.816 54.8563 195.764 54.761C195.616 54.5963 195.491 54.4707 195.387 54.384C195.291 54.2887 195.148 54.2107 194.958 54.15C194.767 54.0807 194.529 54.046 194.243 54.046C193.818 54.046 193.493 54.137 193.268 54.319C193.042 54.4923 192.93 54.7263 192.93 55.021C192.93 55.203 192.977 55.359 193.073 55.489C193.168 55.6103 193.35 55.7273 193.619 55.84C193.887 55.944 194.286 56.0523 194.815 56.165C195.638 56.3383 196.219 56.5853 196.557 56.906C196.903 57.2267 197.077 57.6383 197.077 58.141C197.077 58.5137 196.968 58.8517 196.752 59.155C196.544 59.4583 196.227 59.6967 195.803 59.87C195.387 60.0433 194.888 60.13 194.308 60.13Z" fill="white"/>
<path d="M198.803 60C198.716 60 198.643 59.974 198.582 59.922C198.53 59.8613 198.504 59.7877 198.504 59.701V58.804C198.504 58.7173 198.53 58.6437 198.582 58.583C198.643 58.5223 198.716 58.492 198.803 58.492H199.7C199.787 58.492 199.856 58.5223 199.908 58.583C199.969 58.6437 199.999 58.7173 199.999 58.804V59.701C199.999 59.7877 199.969 59.8613 199.908 59.922C199.856 59.974 199.787 60 199.7 60H198.803Z" fill="white"/>
<path d="M24.394 77.13C23.2414 77.13 22.3617 76.818 21.755 76.194C21.157 75.5613 20.8364 74.699 20.793 73.607C20.7844 73.373 20.78 72.9917 20.78 72.463C20.78 71.9257 20.7844 71.5357 20.793 71.293C20.8364 70.201 21.157 69.343 21.755 68.719C22.3617 68.0863 23.2414 67.77 24.394 67.77C25.1654 67.77 25.8197 67.9087 26.357 68.186C26.8944 68.4547 27.2974 68.81 27.566 69.252C27.8434 69.694 27.995 70.1663 28.021 70.669C28.021 70.747 27.9907 70.812 27.93 70.864C27.878 70.9073 27.813 70.929 27.735 70.929H27.085C26.9984 70.929 26.929 70.9073 26.877 70.864C26.825 70.8207 26.786 70.747 26.76 70.643C26.6127 69.9757 26.344 69.5077 25.954 69.239C25.5727 68.9703 25.0527 68.836 24.394 68.836C22.886 68.836 22.1017 69.6767 22.041 71.358C22.0324 71.592 22.028 71.9517 22.028 72.437C22.028 72.9223 22.0324 73.2907 22.041 73.542C22.1017 75.2147 22.886 76.051 24.394 76.051C25.044 76.051 25.564 75.9167 25.954 75.648C26.344 75.3793 26.6127 74.9157 26.76 74.257C26.786 74.153 26.825 74.0793 26.877 74.036C26.929 73.9927 26.9984 73.971 27.085 73.971H27.735C27.813 73.971 27.878 73.997 27.93 74.049C27.9907 74.0923 28.021 74.153 28.021 74.231C27.995 74.7337 27.8434 75.206 27.566 75.648C27.2974 76.09 26.8944 76.4497 26.357 76.727C25.8197 76.9957 25.1654 77.13 24.394 77.13Z" fill="white"/>
<path d="M29.9325 77C29.8459 77 29.7722 76.974 29.7115 76.922C29.6595 76.8613 29.6335 76.7877 29.6335 76.701V68.069C29.6335 67.9737 29.6595 67.9 29.7115 67.848C29.7722 67.796 29.8459 67.77 29.9325 67.77H30.5305C30.6259 67.77 30.6995 67.796 30.7515 67.848C30.8035 67.9 30.8295 67.9737 30.8295 68.069V71.098C31.0809 70.7773 31.3755 70.5347 31.7135 70.37C32.0602 70.1967 32.4849 70.11 32.9875 70.11C33.8195 70.11 34.4652 70.3787 34.9245 70.916C35.3925 71.4447 35.6265 72.1467 35.6265 73.022V76.701C35.6265 76.7877 35.5962 76.8613 35.5355 76.922C35.4835 76.974 35.4142 77 35.3275 77H34.7165C34.6299 77 34.5562 76.974 34.4955 76.922C34.4435 76.8613 34.4175 76.7877 34.4175 76.701V73.1C34.4175 72.476 34.2659 71.9907 33.9625 71.644C33.6592 71.2973 33.2215 71.124 32.6495 71.124C32.0949 71.124 31.6529 71.3017 31.3235 71.657C30.9942 72.0037 30.8295 72.4847 30.8295 73.1V76.701C30.8295 76.7877 30.7992 76.8613 30.7385 76.922C30.6865 76.974 30.6172 77 30.5305 77H29.9325Z" fill="white"/>
<path d="M40.26 77.13C39.3067 77.13 38.57 76.8613 38.05 76.324C37.5387 75.7867 37.2657 75.0717 37.231 74.179L37.218 73.62L37.231 73.061C37.2657 72.1683 37.543 71.4533 38.063 70.916C38.5917 70.3787 39.324 70.11 40.26 70.11C41.196 70.11 41.924 70.3787 42.444 70.916C42.9727 71.4533 43.2544 72.1683 43.289 73.061C43.3064 73.2517 43.315 73.438 43.315 73.62C43.315 73.802 43.3064 73.9883 43.289 74.179C43.2544 75.0717 42.977 75.7867 42.457 76.324C41.9457 76.8613 41.2134 77.13 40.26 77.13ZM40.26 76.155C40.8147 76.155 41.2523 75.9817 41.573 75.635C41.9023 75.2797 42.08 74.7727 42.106 74.114C42.1147 74.0273 42.119 73.8626 42.119 73.62C42.119 73.3773 42.1147 73.2127 42.106 73.126C42.08 72.4673 41.9023 71.9647 41.573 71.618C41.2523 71.2627 40.8147 71.085 40.26 71.085C39.7054 71.085 39.2634 71.2627 38.934 71.618C38.6133 71.9647 38.44 72.4673 38.414 73.126L38.401 73.62L38.414 74.114C38.44 74.7727 38.6133 75.2797 38.934 75.635C39.2634 75.9817 39.7054 76.155 40.26 76.155Z" fill="white"/>
<path d="M47.6995 77.13C46.7461 77.13 46.0095 76.8613 45.4895 76.324C44.9781 75.7867 44.7051 75.0717 44.6705 74.179L44.6575 73.62L44.6705 73.061C44.7051 72.1683 44.9825 71.4533 45.5025 70.916C46.0311 70.3787 46.7635 70.11 47.6995 70.11C48.6355 70.11 49.3635 70.3787 49.8835 70.916C50.4121 71.4533 50.6938 72.1683 50.7285 73.061C50.7458 73.2517 50.7545 73.438 50.7545 73.62C50.7545 73.802 50.7458 73.9883 50.7285 74.179C50.6938 75.0717 50.4165 75.7867 49.8965 76.324C49.3851 76.8613 48.6528 77.13 47.6995 77.13ZM47.6995 76.155C48.2541 76.155 48.6918 75.9817 49.0125 75.635C49.3418 75.2797 49.5195 74.7727 49.5455 74.114C49.5541 74.0273 49.5585 73.8626 49.5585 73.62C49.5585 73.3773 49.5541 73.2127 49.5455 73.126C49.5195 72.4673 49.3418 71.9647 49.0125 71.618C48.6918 71.2627 48.2541 71.085 47.6995 71.085C47.1448 71.085 46.7028 71.2627 46.3735 71.618C46.0528 71.9647 45.8795 72.4673 45.8535 73.126L45.8405 73.62L45.8535 74.114C45.8795 74.7727 46.0528 75.2797 46.3735 75.635C46.7028 75.9817 47.1448 76.155 47.6995 76.155Z" fill="white"/>
<path d="M54.7099 77.13C54.1119 77.13 53.6049 77.0347 53.1889 76.844C52.7816 76.6447 52.4783 76.4193 52.2789 76.168C52.0796 75.9167 51.9799 75.7087 51.9799 75.544C51.9799 75.4573 52.0103 75.3923 52.0709 75.349C52.1316 75.297 52.1966 75.271 52.2659 75.271H52.8119C52.8639 75.271 52.9029 75.2797 52.9289 75.297C52.9636 75.3143 53.0069 75.3533 53.0589 75.414C53.2583 75.6567 53.4793 75.8473 53.7219 75.986C53.9733 76.1247 54.3069 76.194 54.7229 76.194C55.1909 76.194 55.5636 76.1073 55.8409 75.934C56.1269 75.7607 56.2699 75.5093 56.2699 75.18C56.2699 74.9633 56.2093 74.79 56.0879 74.66C55.9666 74.53 55.7629 74.413 55.4769 74.309C55.1996 74.205 54.7836 74.0923 54.2289 73.971C53.4749 73.8063 52.9419 73.568 52.6299 73.256C52.3179 72.944 52.1619 72.541 52.1619 72.047C52.1619 71.7263 52.2573 71.4187 52.4479 71.124C52.6386 70.8207 52.9203 70.578 53.2929 70.396C53.6743 70.2053 54.1249 70.11 54.6449 70.11C55.1909 70.11 55.6546 70.201 56.0359 70.383C56.4259 70.565 56.7163 70.7773 56.9069 71.02C57.1063 71.2627 57.2059 71.4663 57.2059 71.631C57.2059 71.709 57.1756 71.774 57.1149 71.826C57.0629 71.878 56.9979 71.904 56.9199 71.904H56.4259C56.3046 71.904 56.2179 71.8563 56.1659 71.761C56.0186 71.5963 55.8929 71.4707 55.7889 71.384C55.6936 71.2887 55.5506 71.2107 55.3599 71.15C55.1693 71.0807 54.9309 71.046 54.6449 71.046C54.2203 71.046 53.8953 71.137 53.6699 71.319C53.4446 71.4923 53.3319 71.7263 53.3319 72.021C53.3319 72.203 53.3796 72.359 53.4749 72.489C53.5703 72.6103 53.7523 72.7273 54.0209 72.84C54.2896 72.944 54.6883 73.0523 55.2169 73.165C56.0403 73.3383 56.6209 73.5853 56.9589 73.906C57.3056 74.2267 57.4789 74.6383 57.4789 75.141C57.4789 75.5137 57.3706 75.8517 57.1539 76.155C56.9459 76.4583 56.6296 76.6967 56.2049 76.87C55.7889 77.0433 55.2906 77.13 54.7099 77.13Z" fill="white"/>
<path d="M59.1925 68.966C59.1058 68.966 59.0322 68.94 58.9715 68.888C58.9195 68.8273 58.8935 68.7537 58.8935 68.667V67.991C58.8935 67.9043 58.9195 67.8307 58.9715 67.77C59.0322 67.7093 59.1058 67.679 59.1925 67.679H59.9595C60.0462 67.679 60.1198 67.7093 60.1805 67.77C60.2411 67.8307 60.2715 67.9043 60.2715 67.991V68.667C60.2715 68.7537 60.2411 68.8273 60.1805 68.888C60.1198 68.94 60.0462 68.966 59.9595 68.966H59.1925ZM59.2965 77C59.2098 77 59.1362 76.974 59.0755 76.922C59.0235 76.8613 58.9975 76.7877 58.9975 76.701V70.539C58.9975 70.4523 59.0235 70.383 59.0755 70.331C59.1362 70.2703 59.2098 70.24 59.2965 70.24H59.8685C59.9552 70.24 60.0245 70.2703 60.0765 70.331C60.1371 70.383 60.1675 70.4523 60.1675 70.539V76.701C60.1675 76.7877 60.1371 76.8613 60.0765 76.922C60.0245 76.974 59.9552 77 59.8685 77H59.2965Z" fill="white"/>
<path d="M62.4195 77C62.3329 77 62.2592 76.974 62.1985 76.922C62.1465 76.8613 62.1205 76.7877 62.1205 76.701V70.539C62.1205 70.4523 62.1465 70.383 62.1985 70.331C62.2592 70.2703 62.3329 70.24 62.4195 70.24H62.9785C63.0739 70.24 63.1475 70.266 63.1995 70.318C63.2515 70.37 63.2775 70.4437 63.2775 70.539V71.111C63.5375 70.7903 63.8365 70.5433 64.1745 70.37C64.5212 70.1967 64.9502 70.11 65.4615 70.11C66.2935 70.11 66.9392 70.3787 67.3985 70.916C67.8579 71.4447 68.0875 72.1467 68.0875 73.022V76.701C68.0875 76.7877 68.0572 76.8613 67.9965 76.922C67.9445 76.974 67.8752 77 67.7885 77H67.1905C67.1039 77 67.0302 76.974 66.9695 76.922C66.9175 76.8613 66.8915 76.7877 66.8915 76.701V73.1C66.8915 72.476 66.7399 71.9907 66.4365 71.644C66.1332 71.2973 65.6999 71.124 65.1365 71.124C64.5819 71.124 64.1399 71.3017 63.8105 71.657C63.4812 72.0037 63.3165 72.4847 63.3165 73.1V76.701C63.3165 76.7877 63.2862 76.8613 63.2255 76.922C63.1735 76.974 63.1042 77 63.0175 77H62.4195Z" fill="white"/>
<path d="M72.7092 79.86C71.9899 79.86 71.4136 79.7386 70.9802 79.496C70.5469 79.2533 70.2392 78.976 70.0572 78.664C69.8839 78.352 69.7972 78.0833 69.7972 77.858C69.7972 77.78 69.8276 77.7107 69.8882 77.65C69.9489 77.598 70.0182 77.572 70.0962 77.572H70.6682C70.7462 77.572 70.8112 77.5893 70.8632 77.624C70.9152 77.6673 70.9586 77.741 70.9932 77.845C71.2359 78.5383 71.7862 78.885 72.6442 78.885C73.2942 78.885 73.7752 78.7463 74.0872 78.469C74.3992 78.1917 74.5552 77.702 74.5552 77V76.103C74.0526 76.7443 73.3506 77.065 72.4492 77.065C71.5306 77.065 70.8416 76.7703 70.3822 76.181C69.9316 75.5917 69.6932 74.8463 69.6672 73.945L69.6542 73.581L69.6672 73.23C69.6932 72.3373 69.9316 71.5963 70.3822 71.007C70.8416 70.409 71.5306 70.11 72.4492 70.11C73.3592 70.11 74.0699 70.4437 74.5812 71.111V70.552C74.5812 70.4653 74.6072 70.3917 74.6592 70.331C74.7199 70.2703 74.7936 70.24 74.8802 70.24H75.4392C75.5259 70.24 75.5952 70.2703 75.6472 70.331C75.7079 70.3917 75.7382 70.4653 75.7382 70.552V76.857C75.7382 78.859 74.7286 79.86 72.7092 79.86ZM72.6832 76.051C73.2899 76.051 73.7449 75.856 74.0482 75.466C74.3602 75.0673 74.5292 74.5907 74.5552 74.036C74.5639 73.958 74.5682 73.8063 74.5682 73.581C74.5682 73.3643 74.5639 73.217 74.5552 73.139C74.5292 72.5843 74.3602 72.112 74.0482 71.722C73.7449 71.3233 73.2899 71.124 72.6832 71.124C72.0592 71.124 71.6042 71.3233 71.3182 71.722C71.0409 72.112 70.8892 72.619 70.8632 73.243L70.8502 73.581L70.8632 73.932C70.8892 74.556 71.0409 75.0673 71.3182 75.466C71.6042 75.856 72.0592 76.051 72.6832 76.051Z" fill="white"/>
<path d="M83.6399 77.13C82.6866 77.13 81.9499 76.8613 81.4299 76.324C80.9186 75.7867 80.6456 75.0717 80.6109 74.179L80.5979 73.62L80.6109 73.061C80.6456 72.1683 80.9229 71.4533 81.4429 70.916C81.9716 70.3787 82.7039 70.11 83.6399 70.11C84.5759 70.11 85.3039 70.3787 85.8239 70.916C86.3526 71.4533 86.6342 72.1683 86.6689 73.061C86.6862 73.2517 86.6949 73.438 86.6949 73.62C86.6949 73.802 86.6862 73.9883 86.6689 74.179C86.6342 75.0717 86.3569 75.7867 85.8369 76.324C85.3256 76.8613 84.5932 77.13 83.6399 77.13ZM83.6399 76.155C84.1946 76.155 84.6322 75.9817 84.9529 75.635C85.2822 75.2797 85.4599 74.7727 85.4859 74.114C85.4946 74.0273 85.4989 73.8626 85.4989 73.62C85.4989 73.3773 85.4946 73.2127 85.4859 73.126C85.4599 72.4673 85.2822 71.9647 84.9529 71.618C84.6322 71.2627 84.1946 71.085 83.6399 71.085C83.0852 71.085 82.6432 71.2627 82.3139 71.618C81.9932 71.9647 81.8199 72.4673 81.7939 73.126L81.7809 73.62L81.7939 74.114C81.8199 74.7727 81.9932 75.2797 82.3139 75.635C82.6432 75.9817 83.0852 76.155 83.6399 76.155Z" fill="white"/>
<path d="M88.6354 77C88.5487 77 88.475 76.974 88.4144 76.922C88.3624 76.8613 88.3363 76.7877 88.3363 76.701V70.539C88.3363 70.4523 88.3624 70.383 88.4144 70.331C88.475 70.2703 88.5487 70.24 88.6354 70.24H89.1944C89.2897 70.24 89.3633 70.266 89.4154 70.318C89.4674 70.37 89.4934 70.4437 89.4934 70.539V71.111C89.7534 70.7903 90.0524 70.5433 90.3904 70.37C90.737 70.1967 91.166 70.11 91.6774 70.11C92.5094 70.11 93.155 70.3787 93.6143 70.916C94.0737 71.4447 94.3034 72.1467 94.3034 73.022V76.701C94.3034 76.7877 94.273 76.8613 94.2123 76.922C94.1603 76.974 94.091 77 94.0043 77H93.4063C93.3197 77 93.246 76.974 93.1853 76.922C93.1333 76.8613 93.1074 76.7877 93.1074 76.701V73.1C93.1074 72.476 92.9557 71.9907 92.6524 71.644C92.349 71.2973 91.9157 71.124 91.3523 71.124C90.7977 71.124 90.3557 71.3017 90.0264 71.657C89.697 72.0037 89.5323 72.4847 89.5323 73.1V76.701C89.5323 76.7877 89.502 76.8613 89.4414 76.922C89.3894 76.974 89.32 77 89.2334 77H88.6354Z" fill="white"/>
<path d="M98.8601 77.13C97.9761 77.13 97.2697 76.857 96.7411 76.311C96.2124 75.7563 95.9221 75.0023 95.8701 74.049L95.8571 73.607L95.8701 73.178C95.9221 72.242 96.2124 71.4967 96.7411 70.942C97.2697 70.3873 97.9761 70.11 98.8601 70.11C99.8134 70.11 100.55 70.4133 101.07 71.02C101.599 71.6267 101.863 72.45 101.863 73.49V73.724C101.863 73.8106 101.833 73.8843 101.772 73.945C101.72 73.997 101.651 74.023 101.564 74.023H97.0531V74.14C97.0791 74.7033 97.2524 75.1843 97.5731 75.583C97.8937 75.9817 98.3184 76.181 98.8471 76.181C99.2544 76.181 99.5837 76.103 99.8351 75.947C100.095 75.7823 100.29 75.6133 100.42 75.44C100.498 75.336 100.559 75.2753 100.602 75.258C100.645 75.232 100.719 75.219 100.823 75.219H101.395C101.473 75.219 101.538 75.2407 101.59 75.284C101.651 75.3273 101.681 75.3836 101.681 75.453C101.681 75.6437 101.564 75.8733 101.33 76.142C101.096 76.4107 100.762 76.6447 100.329 76.844C99.9044 77.0347 99.4147 77.13 98.8601 77.13ZM100.68 73.139V73.1C100.68 72.4933 100.515 71.9993 100.186 71.618C99.8567 71.2367 99.4147 71.046 98.8601 71.046C98.2967 71.046 97.8547 71.2367 97.5341 71.618C97.2134 71.9993 97.0531 72.4933 97.0531 73.1V73.139H100.68Z" fill="white"/>
<path d="M107.377 77C107.29 77 107.216 76.974 107.156 76.922C107.104 76.8613 107.078 76.7877 107.078 76.701V71.241H105.96C105.873 71.241 105.799 71.215 105.739 71.163C105.687 71.111 105.661 71.0417 105.661 70.955V70.539C105.661 70.4523 105.687 70.383 105.739 70.331C105.799 70.2703 105.873 70.24 105.96 70.24H107.078V69.59C107.078 68.888 107.247 68.3463 107.585 67.965C107.931 67.575 108.495 67.38 109.275 67.38H110.042C110.128 67.38 110.198 67.4103 110.25 67.471C110.31 67.523 110.341 67.5923 110.341 67.679V68.095C110.341 68.1817 110.31 68.251 110.25 68.303C110.198 68.355 110.128 68.381 110.042 68.381H109.301C108.902 68.381 108.625 68.485 108.469 68.693C108.313 68.901 108.235 69.2217 108.235 69.655V70.24H109.912C109.998 70.24 110.068 70.2703 110.12 70.331C110.18 70.383 110.211 70.4523 110.211 70.539V70.955C110.211 71.0417 110.18 71.111 110.12 71.163C110.068 71.215 109.998 71.241 109.912 71.241H108.235V76.701C108.235 76.7877 108.204 76.8613 108.144 76.922C108.092 76.974 108.022 77 107.936 77H107.377Z" fill="white"/>
<path d="M113.982 77.13C113.028 77.13 112.292 76.8613 111.772 76.324C111.26 75.7867 110.987 75.0717 110.953 74.179L110.94 73.62L110.953 73.061C110.987 72.1683 111.265 71.4533 111.785 70.916C112.313 70.3787 113.046 70.11 113.982 70.11C114.918 70.11 115.646 70.3787 116.166 70.916C116.694 71.4533 116.976 72.1683 117.011 73.061C117.028 73.2517 117.037 73.438 117.037 73.62C117.037 73.802 117.028 73.9883 117.011 74.179C116.976 75.0717 116.699 75.7867 116.179 76.324C115.667 76.8613 114.935 77.13 113.982 77.13ZM113.982 76.155C114.536 76.155 114.974 75.9817 115.295 75.635C115.624 75.2797 115.802 74.7727 115.828 74.114C115.836 74.0273 115.841 73.8626 115.841 73.62C115.841 73.3773 115.836 73.2127 115.828 73.126C115.802 72.4673 115.624 71.9647 115.295 71.618C114.974 71.2627 114.536 71.085 113.982 71.085C113.427 71.085 112.985 71.2627 112.656 71.618C112.335 71.9647 112.162 72.4673 112.136 73.126L112.123 73.62L112.136 74.114C112.162 74.7727 112.335 75.2797 112.656 75.635C112.985 75.9817 113.427 76.155 113.982 76.155Z" fill="white"/>
<path d="M118.977 77C118.89 77 118.817 76.974 118.756 76.922C118.704 76.8613 118.678 76.7877 118.678 76.701V70.552C118.678 70.4653 118.704 70.3917 118.756 70.331C118.817 70.2703 118.89 70.24 118.977 70.24H119.523C119.618 70.24 119.692 70.2703 119.744 70.331C119.805 70.383 119.835 70.4567 119.835 70.552V71.124C120.19 70.5347 120.793 70.24 121.642 70.24H122.149C122.244 70.24 122.318 70.266 122.37 70.318C122.422 70.37 122.448 70.4437 122.448 70.539V71.02C122.448 71.1067 122.422 71.1803 122.37 71.241C122.318 71.293 122.244 71.319 122.149 71.319H121.408C120.931 71.319 120.554 71.4577 120.277 71.735C120.008 72.0123 119.874 72.3893 119.874 72.866V76.701C119.874 76.7877 119.844 76.8613 119.783 76.922C119.722 76.974 119.649 77 119.562 77H118.977Z" fill="white"/>
<path d="M126.759 77C126.673 77 126.599 76.974 126.538 76.922C126.486 76.8613 126.46 76.7877 126.46 76.701V70.539C126.46 70.4523 126.486 70.383 126.538 70.331C126.599 70.2703 126.673 70.24 126.759 70.24H127.305C127.392 70.24 127.461 70.2703 127.513 70.331C127.565 70.383 127.591 70.4523 127.591 70.539V70.981C128.059 70.4003 128.692 70.11 129.489 70.11C130.443 70.11 131.119 70.5087 131.517 71.306C131.725 70.942 132.02 70.6517 132.401 70.435C132.791 70.2183 133.225 70.11 133.701 70.11C134.412 70.11 134.993 70.3527 135.443 70.838C135.894 71.3233 136.119 72.0253 136.119 72.944V76.701C136.119 76.7877 136.089 76.8613 136.028 76.922C135.976 76.974 135.907 77 135.82 77H135.261C135.175 77 135.101 76.974 135.04 76.922C134.988 76.8613 134.962 76.7877 134.962 76.701V73.061C134.962 72.3677 134.819 71.8737 134.533 71.579C134.247 71.2757 133.87 71.124 133.402 71.124C132.986 71.124 132.627 71.28 132.323 71.592C132.029 71.8953 131.881 72.385 131.881 73.061V76.701C131.881 76.7877 131.851 76.8613 131.79 76.922C131.738 76.974 131.669 77 131.582 77H131.01C130.924 77 130.85 76.974 130.789 76.922C130.737 76.8613 130.711 76.7877 130.711 76.701V73.061C130.711 72.3763 130.56 71.8823 130.256 71.579C129.962 71.2757 129.593 71.124 129.151 71.124C128.735 71.124 128.376 71.2757 128.072 71.579C127.778 71.8823 127.63 72.372 127.63 73.048V76.701C127.63 76.7877 127.6 76.8613 127.539 76.922C127.487 76.974 127.418 77 127.331 77H126.759Z" fill="white"/>
<path d="M138.98 79.47C138.902 79.47 138.837 79.444 138.785 79.392C138.733 79.34 138.707 79.2793 138.707 79.21C138.707 79.184 138.729 79.106 138.772 78.976L139.786 76.597L137.303 70.734C137.251 70.63 137.225 70.5563 137.225 70.513C137.234 70.435 137.264 70.37 137.316 70.318C137.368 70.266 137.429 70.24 137.498 70.24H138.096C138.235 70.24 138.339 70.3093 138.408 70.448L140.41 75.232L142.464 70.448C142.534 70.3093 142.638 70.24 142.776 70.24H143.361C143.431 70.24 143.491 70.266 143.543 70.318C143.595 70.37 143.621 70.4307 143.621 70.5C143.621 70.5607 143.6 70.6387 143.556 70.734L139.877 79.262C139.834 79.3313 139.786 79.3833 139.734 79.418C139.691 79.4527 139.63 79.47 139.552 79.47H138.98Z" fill="white"/>
<path d="M147.043 77.13C146.445 77.13 145.938 77.0347 145.522 76.844C145.115 76.6447 144.811 76.4193 144.612 76.168C144.413 75.9167 144.313 75.7087 144.313 75.544C144.313 75.4573 144.343 75.3923 144.404 75.349C144.465 75.297 144.53 75.271 144.599 75.271H145.145C145.197 75.271 145.236 75.2797 145.262 75.297C145.297 75.3143 145.34 75.3533 145.392 75.414C145.591 75.6567 145.812 75.8473 146.055 75.986C146.306 76.1247 146.64 76.194 147.056 76.194C147.524 76.194 147.897 76.1073 148.174 75.934C148.46 75.7607 148.603 75.5093 148.603 75.18C148.603 74.9633 148.542 74.79 148.421 74.66C148.3 74.53 148.096 74.413 147.81 74.309C147.533 74.205 147.117 74.0923 146.562 73.971C145.808 73.8063 145.275 73.568 144.963 73.256C144.651 72.944 144.495 72.541 144.495 72.047C144.495 71.7263 144.59 71.4187 144.781 71.124C144.972 70.8207 145.253 70.578 145.626 70.396C146.007 70.2053 146.458 70.11 146.978 70.11C147.524 70.11 147.988 70.201 148.369 70.383C148.759 70.565 149.049 70.7773 149.24 71.02C149.439 71.2627 149.539 71.4663 149.539 71.631C149.539 71.709 149.509 71.774 149.448 71.826C149.396 71.878 149.331 71.904 149.253 71.904H148.759C148.638 71.904 148.551 71.8563 148.499 71.761C148.352 71.5963 148.226 71.4707 148.122 71.384C148.027 71.2887 147.884 71.2107 147.693 71.15C147.502 71.0807 147.264 71.046 146.978 71.046C146.553 71.046 146.228 71.137 146.003 71.319C145.778 71.4923 145.665 71.7263 145.665 72.021C145.665 72.203 145.713 72.359 145.808 72.489C145.903 72.6103 146.085 72.7273 146.354 72.84C146.623 72.944 147.021 73.0523 147.55 73.165C148.373 73.3383 148.954 73.5853 149.292 73.906C149.639 74.2267 149.812 74.6383 149.812 75.141C149.812 75.5137 149.704 75.8517 149.487 76.155C149.279 76.4583 148.963 76.6967 148.538 76.87C148.122 77.0433 147.624 77.13 147.043 77.13Z" fill="white"/>
<path d="M154.008 77.13C153.124 77.13 152.418 76.857 151.889 76.311C151.361 75.7563 151.07 75.0023 151.018 74.049L151.005 73.607L151.018 73.178C151.07 72.242 151.361 71.4967 151.889 70.942C152.418 70.3873 153.124 70.11 154.008 70.11C154.962 70.11 155.699 70.4133 156.219 71.02C156.747 71.6267 157.012 72.45 157.012 73.49V73.724C157.012 73.8106 156.981 73.8843 156.921 73.945C156.868 73.997 156.799 74.023 156.712 74.023H152.201V74.14C152.227 74.7033 152.401 75.1843 152.721 75.583C153.042 75.9817 153.467 76.181 153.995 76.181C154.403 76.181 154.732 76.103 154.984 75.947C155.243 75.7823 155.438 75.6133 155.568 75.44C155.646 75.336 155.707 75.2753 155.751 75.258C155.794 75.232 155.867 75.219 155.971 75.219H156.544C156.622 75.219 156.686 75.2407 156.738 75.284C156.799 75.3273 156.829 75.3836 156.829 75.453C156.829 75.6437 156.712 75.8733 156.479 76.142C156.245 76.4107 155.911 76.6447 155.477 76.844C155.053 77.0347 154.563 77.13 154.008 77.13ZM155.829 73.139V73.1C155.829 72.4933 155.664 71.9993 155.335 71.618C155.005 71.2367 154.563 71.046 154.008 71.046C153.445 71.046 153.003 71.2367 152.682 71.618C152.362 71.9993 152.201 72.4933 152.201 73.1V73.139H155.829Z" fill="white"/>
<path d="M158.904 77C158.818 77 158.744 76.974 158.683 76.922C158.631 76.8613 158.605 76.7877 158.605 76.701V68.069C158.605 67.9737 158.631 67.9 158.683 67.848C158.744 67.796 158.818 67.77 158.904 67.77H159.476C159.563 67.77 159.632 67.8003 159.684 67.861C159.745 67.913 159.775 67.9823 159.775 68.069V76.701C159.775 76.7877 159.745 76.8613 159.684 76.922C159.632 76.974 159.563 77 159.476 77H158.904Z" fill="white"/>
<path d="M162.703 77C162.616 77 162.543 76.974 162.482 76.922C162.43 76.8613 162.404 76.7877 162.404 76.701V71.241H161.286C161.199 71.241 161.126 71.215 161.065 71.163C161.013 71.111 160.987 71.0417 160.987 70.955V70.539C160.987 70.4523 161.013 70.383 161.065 70.331C161.126 70.2703 161.199 70.24 161.286 70.24H162.404V69.59C162.404 68.888 162.573 68.3463 162.911 67.965C163.258 67.575 163.821 67.38 164.601 67.38H165.368C165.455 67.38 165.524 67.4103 165.576 67.471C165.637 67.523 165.667 67.5923 165.667 67.679V68.095C165.667 68.1817 165.637 68.251 165.576 68.303C165.524 68.355 165.455 68.381 165.368 68.381H164.627C164.228 68.381 163.951 68.485 163.795 68.693C163.639 68.901 163.561 69.2217 163.561 69.655V70.24H165.238C165.325 70.24 165.394 70.2703 165.446 70.331C165.507 70.383 165.537 70.4523 165.537 70.539V70.955C165.537 71.0417 165.507 71.111 165.446 71.163C165.394 71.215 165.325 71.241 165.238 71.241H163.561V76.701C163.561 76.7877 163.531 76.8613 163.47 76.922C163.418 76.974 163.349 77 163.262 77H162.703Z" fill="white"/>
<path d="M171.088 77C170.967 77 170.876 76.974 170.815 76.922C170.755 76.87 170.707 76.7877 170.672 76.675L168.826 70.643L168.8 70.513C168.8 70.435 168.826 70.37 168.878 70.318C168.93 70.266 168.995 70.24 169.073 70.24H169.606C169.693 70.24 169.762 70.266 169.814 70.318C169.875 70.3613 169.91 70.4047 169.918 70.448L171.387 75.414L172.947 70.513C172.965 70.4437 173.004 70.383 173.064 70.331C173.125 70.2703 173.207 70.24 173.311 70.24H173.727C173.831 70.24 173.914 70.2703 173.974 70.331C174.035 70.383 174.074 70.4437 174.091 70.513L175.651 75.414L177.12 70.448C177.129 70.4047 177.159 70.3613 177.211 70.318C177.272 70.266 177.346 70.24 177.432 70.24H177.965C178.043 70.24 178.108 70.266 178.16 70.318C178.212 70.37 178.238 70.435 178.238 70.513L178.212 70.643L176.366 76.675C176.332 76.7877 176.284 76.87 176.223 76.922C176.163 76.974 176.072 77 175.95 77H175.482C175.257 77 175.11 76.8917 175.04 76.675L173.519 71.969L171.998 76.675C171.929 76.8917 171.782 77 171.556 77H171.088Z" fill="white"/>
<path d="M181.373 77.13C180.949 77.13 180.554 77.0433 180.19 76.87C179.835 76.6967 179.549 76.4627 179.332 76.168C179.124 75.8647 179.02 75.531 179.02 75.167C179.02 74.595 179.254 74.127 179.722 73.763C180.19 73.399 180.827 73.1563 181.633 73.035L183.583 72.762V72.385C183.583 71.4923 183.068 71.046 182.036 71.046C181.638 71.046 181.317 71.1283 181.074 71.293C180.832 71.449 180.654 71.6353 180.541 71.852C180.507 71.9387 180.468 71.9993 180.424 72.034C180.39 72.06 180.338 72.073 180.268 72.073H179.761C179.683 72.073 179.614 72.047 179.553 71.995C179.501 71.9343 179.475 71.865 179.475 71.787C179.475 71.5877 179.566 71.358 179.748 71.098C179.939 70.8293 180.229 70.5997 180.619 70.409C181.009 70.2097 181.486 70.11 182.049 70.11C183.02 70.11 183.713 70.3353 184.129 70.786C184.554 71.2367 184.766 71.8 184.766 72.476V76.701C184.766 76.7877 184.736 76.8613 184.675 76.922C184.623 76.974 184.554 77 184.467 77H183.895C183.809 77 183.739 76.974 183.687 76.922C183.635 76.8613 183.609 76.7877 183.609 76.701V76.129C183.419 76.415 183.141 76.6533 182.777 76.844C182.413 77.0347 181.945 77.13 181.373 77.13ZM181.633 76.181C182.205 76.181 182.673 75.9947 183.037 75.622C183.401 75.2493 183.583 74.7077 183.583 73.997V73.633L182.062 73.854C181.438 73.9407 180.966 74.088 180.645 74.296C180.325 74.504 180.164 74.764 180.164 75.076C180.164 75.4313 180.307 75.7043 180.593 75.895C180.888 76.0857 181.235 76.181 181.633 76.181Z" fill="white"/>
<path d="M188.963 77.13C188.365 77.13 187.858 77.0347 187.442 76.844C187.035 76.6447 186.731 76.4193 186.532 76.168C186.333 75.9167 186.233 75.7087 186.233 75.544C186.233 75.4573 186.263 75.3923 186.324 75.349C186.385 75.297 186.45 75.271 186.519 75.271H187.065C187.117 75.271 187.156 75.2797 187.182 75.297C187.217 75.3143 187.26 75.3533 187.312 75.414C187.511 75.6567 187.732 75.8473 187.975 75.986C188.226 76.1247 188.56 76.194 188.976 76.194C189.444 76.194 189.817 76.1073 190.094 75.934C190.38 75.7607 190.523 75.5093 190.523 75.18C190.523 74.9633 190.462 74.79 190.341 74.66C190.22 74.53 190.016 74.413 189.73 74.309C189.453 74.205 189.037 74.0923 188.482 73.971C187.728 73.8063 187.195 73.568 186.883 73.256C186.571 72.944 186.415 72.541 186.415 72.047C186.415 71.7263 186.51 71.4187 186.701 71.124C186.892 70.8207 187.173 70.578 187.546 70.396C187.927 70.2053 188.378 70.11 188.898 70.11C189.444 70.11 189.908 70.201 190.289 70.383C190.679 70.565 190.969 70.7773 191.16 71.02C191.359 71.2627 191.459 71.4663 191.459 71.631C191.459 71.709 191.429 71.774 191.368 71.826C191.316 71.878 191.251 71.904 191.173 71.904H190.679C190.558 71.904 190.471 71.8563 190.419 71.761C190.272 71.5963 190.146 71.4707 190.042 71.384C189.947 71.2887 189.804 71.2107 189.613 71.15C189.422 71.0807 189.184 71.046 188.898 71.046C188.473 71.046 188.148 71.137 187.923 71.319C187.698 71.4923 187.585 71.7263 187.585 72.021C187.585 72.203 187.633 72.359 187.728 72.489C187.823 72.6103 188.005 72.7273 188.274 72.84C188.543 72.944 188.941 73.0523 189.47 73.165C190.293 73.3383 190.874 73.5853 191.212 73.906C191.559 74.2267 191.732 74.6383 191.732 75.141C191.732 75.5137 191.624 75.8517 191.407 76.155C191.199 76.4583 190.883 76.6967 190.458 76.87C190.042 77.0433 189.544 77.13 188.963 77.13Z" fill="white"/>
<path d="M199.128 77.13C198.244 77.13 197.537 76.857 197.009 76.311C196.48 75.7563 196.19 75.0023 196.138 74.049L196.125 73.607L196.138 73.178C196.19 72.242 196.48 71.4967 197.009 70.942C197.537 70.3873 198.244 70.11 199.128 70.11C200.081 70.11 200.818 70.4133 201.338 71.02C201.866 71.6267 202.131 72.45 202.131 73.49V73.724C202.131 73.8106 202.1 73.8843 202.04 73.945C201.988 73.997 201.918 74.023 201.832 74.023H197.321V74.14C197.347 74.7033 197.52 75.1843 197.841 75.583C198.161 75.9817 198.586 76.181 199.115 76.181C199.522 76.181 199.851 76.103 200.103 75.947C200.363 75.7823 200.558 75.6133 200.688 75.44C200.766 75.336 200.826 75.2753 200.87 75.258C200.913 75.232 200.987 75.219 201.091 75.219H201.663C201.741 75.219 201.806 75.2407 201.858 75.284C201.918 75.3273 201.949 75.3836 201.949 75.453C201.949 75.6437 201.832 75.8733 201.598 76.142C201.364 76.4107 201.03 76.6447 200.597 76.844C200.172 77.0347 199.682 77.13 199.128 77.13ZM200.948 73.139V73.1C200.948 72.4933 200.783 71.9993 200.454 71.618C200.124 71.2367 199.682 71.046 199.128 71.046C198.564 71.046 198.122 71.2367 197.802 71.618C197.481 71.9993 197.321 72.4933 197.321 73.1V73.139H200.948Z" fill="white"/>
<path d="M205.583 77.13C205.159 77.13 204.764 77.0433 204.4 76.87C204.045 76.6967 203.759 76.4627 203.542 76.168C203.334 75.8647 203.23 75.531 203.23 75.167C203.23 74.595 203.464 74.127 203.932 73.763C204.4 73.399 205.037 73.1563 205.843 73.035L207.793 72.762V72.385C207.793 71.4923 207.278 71.046 206.246 71.046C205.848 71.046 205.527 71.1283 205.284 71.293C205.042 71.449 204.864 71.6353 204.751 71.852C204.717 71.9387 204.678 71.9993 204.634 72.034C204.6 72.06 204.548 72.073 204.478 72.073H203.971C203.893 72.073 203.824 72.047 203.763 71.995C203.711 71.9343 203.685 71.865 203.685 71.787C203.685 71.5877 203.776 71.358 203.958 71.098C204.149 70.8293 204.439 70.5997 204.829 70.409C205.219 70.2097 205.696 70.11 206.259 70.11C207.23 70.11 207.923 70.3353 208.339 70.786C208.764 71.2367 208.976 71.8 208.976 72.476V76.701C208.976 76.7877 208.946 76.8613 208.885 76.922C208.833 76.974 208.764 77 208.677 77H208.105C208.019 77 207.949 76.974 207.897 76.922C207.845 76.8613 207.819 76.7877 207.819 76.701V76.129C207.629 76.415 207.351 76.6533 206.987 76.844C206.623 77.0347 206.155 77.13 205.583 77.13ZM205.843 76.181C206.415 76.181 206.883 75.9947 207.247 75.622C207.611 75.2493 207.793 74.7077 207.793 73.997V73.633L206.272 73.854C205.648 73.9407 205.176 74.088 204.855 74.296C204.535 74.504 204.374 74.764 204.374 75.076C204.374 75.4313 204.517 75.7043 204.803 75.895C205.098 76.0857 205.445 76.181 205.843 76.181Z" fill="white"/>
<path d="M213.173 77.13C212.575 77.13 212.068 77.0347 211.652 76.844C211.244 76.6447 210.941 76.4193 210.742 76.168C210.542 75.9167 210.443 75.7087 210.443 75.544C210.443 75.4573 210.473 75.3923 210.534 75.349C210.594 75.297 210.659 75.271 210.729 75.271H211.275C211.327 75.271 211.366 75.2797 211.392 75.297C211.426 75.3143 211.47 75.3533 211.522 75.414C211.721 75.6567 211.942 75.8473 212.185 75.986C212.436 76.1247 212.77 76.194 213.186 76.194C213.654 76.194 214.026 76.1073 214.304 75.934C214.59 75.7607 214.733 75.5093 214.733 75.18C214.733 74.9633 214.672 74.79 214.551 74.66C214.429 74.53 214.226 74.413 213.94 74.309C213.662 74.205 213.246 74.0923 212.692 73.971C211.938 73.8063 211.405 73.568 211.093 73.256C210.781 72.944 210.625 72.541 210.625 72.047C210.625 71.7263 210.72 71.4187 210.911 71.124C211.101 70.8207 211.383 70.578 211.756 70.396C212.137 70.2053 212.588 70.11 213.108 70.11C213.654 70.11 214.117 70.201 214.499 70.383C214.889 70.565 215.179 70.7773 215.37 71.02C215.569 71.2627 215.669 71.4663 215.669 71.631C215.669 71.709 215.638 71.774 215.578 71.826C215.526 71.878 215.461 71.904 215.383 71.904H214.889C214.767 71.904 214.681 71.8563 214.629 71.761C214.481 71.5963 214.356 71.4707 214.252 71.384C214.156 71.2887 214.013 71.2107 213.823 71.15C213.632 71.0807 213.394 71.046 213.108 71.046C212.683 71.046 212.358 71.137 212.133 71.319C211.907 71.4923 211.795 71.7263 211.795 72.021C211.795 72.203 211.842 72.359 211.938 72.489C212.033 72.6103 212.215 72.7273 212.484 72.84C212.752 72.944 213.151 73.0523 213.68 73.165C214.503 73.3383 215.084 73.5853 215.422 73.906C215.768 74.2267 215.942 74.6383 215.942 75.141C215.942 75.5137 215.833 75.8517 215.617 76.155C215.409 76.4583 215.092 76.6967 214.668 76.87C214.252 77.0433 213.753 77.13 213.173 77.13Z" fill="white"/>
<path d="M218.415 79.47C218.337 79.47 218.272 79.444 218.22 79.392C218.168 79.34 218.142 79.2793 218.142 79.21C218.142 79.184 218.164 79.106 218.207 78.976L219.221 76.597L216.738 70.734C216.686 70.63 216.66 70.5563 216.66 70.513C216.669 70.435 216.699 70.37 216.751 70.318C216.803 70.266 216.864 70.24 216.933 70.24H217.531C217.67 70.24 217.774 70.3093 217.843 70.448L219.845 75.232L221.899 70.448C221.968 70.3093 222.072 70.24 222.211 70.24H222.796C222.865 70.24 222.926 70.266 222.978 70.318C223.03 70.37 223.056 70.4307 223.056 70.5C223.056 70.5607 223.034 70.6387 222.991 70.734L219.312 79.262C219.269 79.3313 219.221 79.3833 219.169 79.418C219.126 79.4527 219.065 79.47 218.987 79.47H218.415Z" fill="white"/>
<path d="M23.445 94.13C22.535 94.13 21.8504 93.8353 21.391 93.246C20.9404 92.6567 20.6977 91.9113 20.663 91.01L20.65 90.62L20.663 90.23C20.6977 89.3373 20.9447 88.5963 21.404 88.007C21.8634 87.409 22.5437 87.11 23.445 87.11C24.3464 87.11 25.0484 87.4306 25.551 88.072V85.069C25.551 84.9823 25.577 84.913 25.629 84.861C25.6897 84.8003 25.7634 84.77 25.85 84.77H26.435C26.5217 84.77 26.591 84.8003 26.643 84.861C26.7037 84.913 26.734 84.9823 26.734 85.069V93.701C26.734 93.7877 26.7037 93.8613 26.643 93.922C26.591 93.974 26.5217 94 26.435 94H25.876C25.7894 94 25.72 93.974 25.668 93.922C25.616 93.8613 25.59 93.7877 25.59 93.701V93.142C25.096 93.8007 24.381 94.13 23.445 94.13ZM23.692 93.116C24.2987 93.116 24.7537 92.9167 25.057 92.518C25.3604 92.1107 25.525 91.6297 25.551 91.075C25.5597 90.9797 25.564 90.815 25.564 90.581C25.564 90.3383 25.5597 90.1693 25.551 90.074C25.5337 89.5453 25.3647 89.0903 25.044 88.709C24.732 88.319 24.2814 88.124 23.692 88.124C23.068 88.124 22.613 88.319 22.327 88.709C22.041 89.099 21.885 89.6103 21.859 90.243L21.846 90.62C21.846 92.284 22.4614 93.116 23.692 93.116Z" fill="white"/>
<path d="M31.2158 94.13C30.3924 94.13 29.7554 93.8657 29.3048 93.337C28.8541 92.7997 28.6288 92.089 28.6288 91.205V87.539C28.6288 87.4523 28.6548 87.383 28.7068 87.331C28.7674 87.2703 28.8411 87.24 28.9278 87.24H29.5258C29.6124 87.24 29.6818 87.2703 29.7338 87.331C29.7944 87.383 29.8248 87.4523 29.8248 87.539V91.14C29.8248 92.4573 30.3968 93.116 31.5408 93.116C32.0954 93.116 32.5331 92.9427 32.8538 92.596C33.1831 92.2407 33.3478 91.7553 33.3478 91.14V87.539C33.3478 87.4523 33.3738 87.383 33.4258 87.331C33.4864 87.2703 33.5601 87.24 33.6468 87.24H34.2448C34.3314 87.24 34.4008 87.2703 34.4528 87.331C34.5134 87.383 34.5438 87.4523 34.5438 87.539V93.701C34.5438 93.7877 34.5134 93.8613 34.4528 93.922C34.4008 93.974 34.3314 94 34.2448 94H33.6858C33.5991 94 33.5254 93.974 33.4648 93.922C33.4128 93.8613 33.3868 93.7877 33.3868 93.701V93.116C33.1354 93.454 32.8408 93.7097 32.5028 93.883C32.1648 94.0476 31.7358 94.13 31.2158 94.13Z" fill="white"/>
<path d="M39.1667 94.13C38.2827 94.13 37.5764 93.857 37.0477 93.311C36.519 92.7563 36.2287 92.0023 36.1767 91.049L36.1637 90.607L36.1767 90.178C36.2287 89.242 36.519 88.4967 37.0477 87.942C37.5764 87.3873 38.2827 87.11 39.1667 87.11C40.12 87.11 40.8567 87.4133 41.3767 88.02C41.9054 88.6267 42.1697 89.45 42.1697 90.49V90.724C42.1697 90.8106 42.1394 90.8843 42.0787 90.945C42.0267 90.997 41.9574 91.023 41.8707 91.023H37.3597V91.14C37.3857 91.7033 37.559 92.1843 37.8797 92.583C38.2004 92.9817 38.625 93.181 39.1537 93.181C39.561 93.181 39.8904 93.103 40.1417 92.947C40.4017 92.7823 40.5967 92.6133 40.7267 92.44C40.8047 92.336 40.8654 92.2753 40.9087 92.258C40.952 92.232 41.0257 92.219 41.1297 92.219H41.7017C41.7797 92.219 41.8447 92.2407 41.8967 92.284C41.9574 92.3273 41.9877 92.3837 41.9877 92.453C41.9877 92.6437 41.8707 92.8733 41.6367 93.142C41.4027 93.4106 41.069 93.6447 40.6357 93.844C40.211 94.0347 39.7214 94.13 39.1667 94.13ZM40.9867 90.139V90.1C40.9867 89.4933 40.822 88.9993 40.4927 88.618C40.1634 88.2367 39.7214 88.046 39.1667 88.046C38.6034 88.046 38.1614 88.2367 37.8407 88.618C37.52 88.9993 37.3597 89.4933 37.3597 90.1V90.139H40.9867Z" fill="white"/>
<path d="M49.2703 94C47.927 94 47.2553 93.2416 47.2553 91.725V88.241H46.2283C46.1417 88.241 46.0723 88.215 46.0203 88.163C45.9683 88.111 45.9423 88.0416 45.9423 87.955V87.539C45.9423 87.4523 45.9683 87.383 46.0203 87.331C46.0723 87.2703 46.1417 87.24 46.2283 87.24H47.2553V85.069C47.2553 84.9823 47.2813 84.913 47.3333 84.861C47.3853 84.8003 47.4547 84.77 47.5413 84.77H48.1133C48.2 84.77 48.2693 84.8003 48.3213 84.861C48.382 84.913 48.4123 84.9823 48.4123 85.069V87.24H50.0243C50.111 87.24 50.1803 87.2703 50.2323 87.331C50.293 87.383 50.3233 87.4523 50.3233 87.539V87.955C50.3233 88.0416 50.293 88.111 50.2323 88.163C50.1803 88.215 50.111 88.241 50.0243 88.241H48.4123V91.634C48.4123 92.076 48.4817 92.4096 48.6203 92.635C48.7677 92.8603 49.0147 92.973 49.3613 92.973H50.1543C50.241 92.973 50.3103 93.0033 50.3623 93.064C50.4143 93.116 50.4403 93.1853 50.4403 93.272V93.701C50.4403 93.7877 50.4143 93.8613 50.3623 93.922C50.3103 93.974 50.241 94 50.1543 94H49.2703Z" fill="white"/>
<path d="M54.4534 94.13C53.5 94.13 52.7634 93.8613 52.2434 93.324C51.732 92.7867 51.459 92.0717 51.4244 91.179L51.4114 90.62L51.4244 90.061C51.459 89.1683 51.7364 88.4533 52.2564 87.916C52.785 87.3787 53.5174 87.11 54.4534 87.11C55.3894 87.11 56.1174 87.3787 56.6374 87.916C57.166 88.4533 57.4477 89.1683 57.4824 90.061C57.4997 90.2517 57.5084 90.438 57.5084 90.62C57.5084 90.802 57.4997 90.9883 57.4824 91.179C57.4477 92.0717 57.1704 92.7867 56.6504 93.324C56.139 93.8613 55.4067 94.13 54.4534 94.13ZM54.4534 93.155C55.008 93.155 55.4457 92.9817 55.7664 92.635C56.0957 92.2796 56.2734 91.7727 56.2994 91.114C56.308 91.0273 56.3124 90.8627 56.3124 90.62C56.3124 90.3773 56.308 90.2127 56.2994 90.126C56.2734 89.4673 56.0957 88.9647 55.7664 88.618C55.4457 88.2627 55.008 88.085 54.4534 88.085C53.8987 88.085 53.4567 88.2627 53.1274 88.618C52.8067 88.9647 52.6334 89.4673 52.6074 90.126L52.5944 90.62L52.6074 91.114C52.6334 91.7727 52.8067 92.2796 53.1274 92.635C53.4567 92.9817 53.8987 93.155 54.4534 93.155Z" fill="white"/>
<path d="M64.6698 94C63.3264 94 62.6548 93.2416 62.6548 91.725V88.241H61.6278C61.5411 88.241 61.4717 88.215 61.4198 88.163C61.3678 88.111 61.3418 88.0416 61.3418 87.955V87.539C61.3418 87.4523 61.3678 87.383 61.4198 87.331C61.4717 87.2703 61.5411 87.24 61.6278 87.24H62.6548V85.069C62.6548 84.9823 62.6808 84.913 62.7327 84.861C62.7847 84.8003 62.8541 84.77 62.9408 84.77H63.5127C63.5994 84.77 63.6688 84.8003 63.7207 84.861C63.7814 84.913 63.8117 84.9823 63.8117 85.069V87.24H65.4237C65.5104 87.24 65.5798 87.2703 65.6317 87.331C65.6924 87.383 65.7227 87.4523 65.7227 87.539V87.955C65.7227 88.0416 65.6924 88.111 65.6317 88.163C65.5798 88.215 65.5104 88.241 65.4237 88.241H63.8117V91.634C63.8117 92.076 63.8811 92.4096 64.0197 92.635C64.1671 92.8603 64.4141 92.973 64.7607 92.973H65.5537C65.6404 92.973 65.7097 93.0033 65.7617 93.064C65.8137 93.116 65.8397 93.1853 65.8397 93.272V93.701C65.8397 93.7877 65.8137 93.8613 65.7617 93.922C65.7097 93.974 65.6404 94 65.5537 94H64.6698Z" fill="white"/>
<path d="M67.4218 94C67.3351 94 67.2615 93.974 67.2008 93.922C67.1488 93.8613 67.1228 93.7877 67.1228 93.701V85.069C67.1228 84.9737 67.1488 84.9 67.2008 84.848C67.2615 84.796 67.3351 84.77 67.4218 84.77H68.0198C68.1151 84.77 68.1888 84.796 68.2408 84.848C68.2928 84.9 68.3188 84.9737 68.3188 85.069V88.098C68.5701 87.7773 68.8648 87.5346 69.2028 87.37C69.5495 87.1967 69.9741 87.11 70.4768 87.11C71.3088 87.11 71.9545 87.3787 72.4138 87.916C72.8818 88.4447 73.1158 89.1467 73.1158 90.022V93.701C73.1158 93.7877 73.0855 93.8613 73.0248 93.922C72.9728 93.974 72.9035 94 72.8168 94H72.2058C72.1191 94 72.0455 93.974 71.9848 93.922C71.9328 93.8613 71.9068 93.7877 71.9068 93.701V90.1C71.9068 89.476 71.7551 88.9907 71.4518 88.644C71.1485 88.2973 70.7108 88.124 70.1388 88.124C69.5841 88.124 69.1421 88.3017 68.8128 88.657C68.4835 89.0037 68.3188 89.4846 68.3188 90.1V93.701C68.3188 93.7877 68.2885 93.8613 68.2278 93.922C68.1758 93.974 68.1065 94 68.0198 94H67.4218Z" fill="white"/>
<path d="M75.2013 85.966C75.1146 85.966 75.0409 85.94 74.9803 85.888C74.9283 85.8273 74.9023 85.7537 74.9023 85.667V84.991C74.9023 84.9043 74.9283 84.8307 74.9803 84.77C75.0409 84.7093 75.1146 84.679 75.2013 84.679H75.9683C76.0549 84.679 76.1286 84.7093 76.1893 84.77C76.2499 84.8307 76.2803 84.9043 76.2803 84.991V85.667C76.2803 85.7537 76.2499 85.8273 76.1893 85.888C76.1286 85.94 76.0549 85.966 75.9683 85.966H75.2013ZM75.3053 94C75.2186 94 75.1449 93.974 75.0843 93.922C75.0323 93.8613 75.0063 93.7877 75.0063 93.701V87.539C75.0063 87.4523 75.0323 87.383 75.0843 87.331C75.1449 87.2703 75.2186 87.24 75.3053 87.24H75.8773C75.9639 87.24 76.0333 87.2703 76.0853 87.331C76.1459 87.383 76.1763 87.4523 76.1763 87.539V93.701C76.1763 93.7877 76.1459 93.8613 76.0853 93.922C76.0333 93.974 75.9639 94 75.8773 94H75.3053Z" fill="white"/>
<path d="M80.4433 94.13C79.8453 94.13 79.3383 94.0347 78.9223 93.844C78.515 93.6447 78.2117 93.4193 78.0123 93.168C77.813 92.9166 77.7133 92.7086 77.7133 92.544C77.7133 92.4573 77.7437 92.3923 77.8043 92.349C77.865 92.297 77.93 92.271 77.9993 92.271H78.5453C78.5973 92.271 78.6363 92.2797 78.6623 92.297C78.697 92.3143 78.7403 92.3533 78.7923 92.414C78.9917 92.6567 79.2127 92.8473 79.4553 92.986C79.7067 93.1247 80.0403 93.194 80.4563 93.194C80.9243 93.194 81.297 93.1073 81.5743 92.934C81.8603 92.7607 82.0033 92.5093 82.0033 92.18C82.0033 91.9633 81.9427 91.79 81.8213 91.66C81.7 91.53 81.4963 91.413 81.2103 91.309C80.933 91.205 80.517 91.0923 79.9623 90.971C79.2083 90.8063 78.6753 90.568 78.3633 90.256C78.0513 89.944 77.8953 89.541 77.8953 89.047C77.8953 88.7263 77.9907 88.4187 78.1813 88.124C78.372 87.8207 78.6537 87.578 79.0263 87.396C79.4077 87.2053 79.8583 87.11 80.3783 87.11C80.9243 87.11 81.388 87.201 81.7693 87.383C82.1593 87.565 82.4497 87.7773 82.6403 88.02C82.8397 88.2627 82.9393 88.4663 82.9393 88.631C82.9393 88.709 82.909 88.774 82.8483 88.826C82.7963 88.878 82.7313 88.904 82.6533 88.904H82.1593C82.038 88.904 81.9513 88.8563 81.8993 88.761C81.752 88.5963 81.6263 88.4706 81.5223 88.384C81.427 88.2887 81.284 88.2107 81.0933 88.15C80.9027 88.0807 80.6643 88.046 80.3783 88.046C79.9537 88.046 79.6287 88.137 79.4033 88.319C79.178 88.4923 79.0653 88.7263 79.0653 89.021C79.0653 89.203 79.113 89.359 79.2083 89.489C79.3037 89.6103 79.4857 89.7273 79.7543 89.84C80.023 89.944 80.4217 90.0523 80.9503 90.165C81.7737 90.3383 82.3543 90.5853 82.6923 90.906C83.039 91.2267 83.2123 91.6383 83.2123 92.141C83.2123 92.5136 83.104 92.8517 82.8873 93.155C82.6793 93.4583 82.363 93.6967 81.9383 93.87C81.5223 94.0433 81.024 94.13 80.4433 94.13Z" fill="white"/>
<path d="M84.9389 94C84.8522 94 84.7785 93.974 84.7179 93.922C84.6659 93.8613 84.6399 93.7877 84.6399 93.701V92.804C84.6399 92.7173 84.6659 92.6437 84.7179 92.583C84.7785 92.5223 84.8522 92.492 84.9389 92.492H85.8359C85.9226 92.492 85.9919 92.5223 86.0439 92.583C86.1046 92.6437 86.1349 92.7173 86.1349 92.804V93.701C86.1349 93.7877 86.1046 93.8613 86.0439 93.922C85.9919 93.974 85.9226 94 85.8359 94H84.9389Z" fill="white"/>
<path d="M40.1738 34.8574H32.5273V27.5625C32.5273 25.3164 33.0938 23.4609 34.2266 21.9961C35.3789 20.5312 37.0488 19.4863 39.2363 18.8613L40.1445 21.6152C39.4023 21.8691 38.7871 22.1426 38.2988 22.4355C37.8105 22.709 37.4199 23.0312 37.127 23.4023C36.834 23.7539 36.6289 24.1641 36.5117 24.6328C36.3945 25.1016 36.3359 25.6484 36.3359 26.2734H40.1738V34.8574ZM28.7773 34.8574H21.1309V27.5625C21.1309 25.3164 21.6973 23.4609 22.8301 21.9961C23.9824 20.5312 25.6523 19.4863 27.8398 18.8613L28.748 21.6152C28.0059 21.8691 27.3906 22.1426 26.9023 22.4355C26.4141 22.709 26.0234 23.0312 25.7305 23.4023C25.4375 23.7539 25.2324 24.1641 25.1152 24.6328C24.998 25.1016 24.9395 25.6484 24.9395 26.2734H28.7773V34.8574Z" fill="#4F85C4"/>
<defs>
<linearGradient id="paint0_linear" x1="140" y1="104" x2="140" y2="160" gradientUnits="userSpaceOnUse">
<stop stop-color="#156BD0"/>
<stop offset="1" stop-color="#014493"/>
</linearGradient>
</defs>
</svg>
