<svg width="130" height="179" viewBox="0 0 130 179" fill="none" xmlns="http://www.w3.org/2000/svg">
<g clip-path="url(#clip0)">
<mask id="mask0" mask-type="alpha" maskUnits="userSpaceOnUse" x="0" y="0" width="130" height="179">
<path d="M124 0.582031H6C2.68629 0.582031 0 3.26832 0 6.58203V172.582C0 175.896 2.68629 178.582 6 178.582H124C127.314 178.582 130 175.896 130 172.582V6.58203C130 3.26832 127.314 0.582031 124 0.582031Z" fill="white"/>
</mask>
<g mask="url(#mask0)">
<g filter="url(#filter0_dd)">
<path d="M124 0.582031H6C2.68629 0.582031 0 3.26832 0 6.58203V172.582C0 175.896 2.68629 178.582 6 178.582H124C127.314 178.582 130 175.896 130 172.582V6.58203C130 3.26832 127.314 0.582031 124 0.582031Z" fill="#161A2E"/>
</g>
<path d="M124 0.582031H6C2.68629 0.582031 0 3.26832 0 6.58203V172.582C0 175.896 2.68629 178.582 6 178.582H124C127.314 178.582 130 175.896 130 172.582V6.58203C130 3.26832 127.314 0.582031 124 0.582031Z" fill="white"/>
<path opacity="0.05" d="M64.1819 -3.41797C50.6664 -3.41797 27.3215 -3.41797 22.4068 10.0975C17.4921 23.613 58.3556 22.8203 67.8679 32.3326C77.3803 41.845 92.7178 40.8145 107.186 40.8145C121.654 40.8145 118.912 56.7604 130.531 54.33C142.149 51.8995 131.759 39.7203 135.445 32.3326C135.445 27.7414 135.445 15.8245 135.445 -3.41797C103.09 -3.41797 79.3356 -3.41797 64.1819 -3.41797Z" fill="#4F44D0"/>
<path opacity="0.05" d="M27.2572 128.268C94.5663 104.336 124.481 158.183 124.481 128.268C124.481 98.353 88.5832 83.3954 70.6341 65.4463C52.6851 47.4972 60.5401 17.582 33.2402 17.582C5.94035 17.582 19.6942 34.3513 -10.1368 47.4972C-39.9677 60.643 -40.0519 152.2 27.2572 128.268Z" fill="#4F44D0"/>
<path opacity="0.05" d="M78.7155 179.149C39.4519 165.189 22.0014 196.599 22.0014 179.149C22.0014 161.698 42.942 152.973 53.4123 142.503C63.8826 132.033 59.3005 114.582 75.2254 114.582C91.1503 114.582 83.1273 124.364 100.529 132.033C117.93 139.701 135.43 119.817 135.43 142.503C135.43 165.188 117.979 193.109 78.7155 179.149Z" fill="#4F44D0"/>
<path d="M35 119.582H15V122.582H35V119.582Z" fill="#E8E0FF"/>
<path opacity="0.16" fill-rule="evenodd" clip-rule="evenodd" d="M60.094 88.0051C67.9418 88.0051 71.5221 88.2668 74.3038 85.7245C77.0855 83.1823 75.4811 79.7585 72.2738 78.6341C69.0665 77.5097 51.9741 76.6415 47.9142 78.6341C43.8542 80.6268 43.1539 82.3491 45.8842 84.8444C48.6145 87.3396 52.2461 88.0051 60.094 88.0051Z" fill="#6650AB"/>
<path opacity="0.16" fill-rule="evenodd" clip-rule="evenodd" d="M35.844 88.338C43.6918 88.338 47.2721 88.6074 50.0538 85.99C52.8355 83.3725 51.2311 79.8475 48.0238 78.6898C44.8165 77.5322 27.7241 76.6383 23.6642 78.6898C19.6042 80.7414 18.9039 82.5147 21.6342 85.0838C24.3645 87.6528 27.9961 88.338 35.844 88.338Z" fill="#6650AB"/>
<path fill-rule="evenodd" clip-rule="evenodd" d="M35.844 86.7805C43.6918 86.7805 47.2721 86.1826 50.0538 83.7249C52.8355 81.2671 51.2311 77.1063 48.0238 76.0193C44.8165 74.9323 27.7241 74.0929 23.6642 76.0193C19.6042 77.9457 18.9039 81.3126 21.6342 83.7249C24.3645 86.1371 27.9961 86.7805 35.844 86.7805Z" fill="#4F44D0"/>
<path fill-rule="evenodd" clip-rule="evenodd" d="M35.743 82.1006C43.2619 82.1006 49.3571 80.1958 49.3571 77.8462C49.3571 75.4966 43.2619 73.5918 35.743 73.5918C28.2241 73.5918 22.1289 75.4966 22.1289 77.8462C22.1289 80.1958 28.2241 82.1006 35.743 82.1006Z" fill="#4F44D0"/>
<path fill-rule="evenodd" clip-rule="evenodd" d="M35.7398 81.6755C42.7887 81.6755 48.503 79.9612 48.503 77.8465C48.503 75.7319 42.7887 74.0176 35.7398 74.0176C28.6908 74.0176 22.9766 75.7319 22.9766 77.8465C22.9766 79.9612 28.6908 81.6755 35.7398 81.6755Z" fill="#A998D2"/>
<path fill-rule="evenodd" clip-rule="evenodd" d="M38.8174 74.8693L34.1756 75.1041L31.9291 75.2178C31.6785 75.2305 31.4813 75.3483 31.4885 75.4811C31.4957 75.6138 31.7046 75.7112 31.9552 75.6985L34.2017 75.5848C34.8793 75.5505 35.5313 75.6939 35.9458 75.9682C36.1411 76.0975 36.2753 76.2448 36.352 76.3989L32.0052 76.6188C31.7546 76.6315 31.5573 76.7493 31.5645 76.8821C31.5717 77.0148 31.7807 77.1122 32.0313 77.0995L36.3945 76.8787C36.3805 76.921 36.3627 76.9632 36.3392 77.0047C36.1666 77.3109 35.7493 77.5489 35.1641 77.675C34.2735 77.8668 33.2691 77.8991 32.2964 77.9301L32.092 77.9367C31.9012 77.9412 31.7295 78.0121 31.6637 78.1098C31.5979 78.2075 31.6516 78.3125 31.7981 78.3726L37.5373 80.7256C37.626 80.762 37.7347 80.7766 37.8419 80.7711C37.967 80.7648 38.0899 80.7313 38.1767 80.6733C38.3379 80.5658 38.3128 80.4147 38.1207 80.3359L33.3308 78.3721C34.0436 78.3355 34.7604 78.2707 35.4558 78.1209C36.325 77.9337 36.9471 77.5764 37.2075 77.1148C37.26 77.0218 37.2904 76.9272 37.3102 76.8324L38.9195 76.751C39.1701 76.7383 39.3674 76.6204 39.3602 76.4877C39.353 76.3549 39.144 76.2576 38.8934 76.2703L37.279 76.352C37.1871 76.0992 36.981 75.8579 36.6683 75.6508C36.5715 75.5868 36.4629 75.5299 36.3493 75.4761L38.8435 75.35C39.0941 75.3373 39.2913 75.2194 39.2841 75.0867C39.2769 74.9539 39.068 74.8566 38.8174 74.8693Z" fill="white"/>
<path fill-rule="evenodd" clip-rule="evenodd" d="M59.1072 84.2897C66.4817 86.9738 70.0506 87.6364 73.5051 86.2783C76.9596 84.9202 76.8751 80.4616 74.233 78.3432C71.5909 76.2248 55.8164 69.5901 51.3424 70.0117C46.8685 70.4333 45.0589 73.3576 46.7995 76.5583C48.54 79.7589 51.7326 81.6055 59.1072 84.2897Z" fill="#4F44D0"/>
<path fill-rule="evenodd" clip-rule="evenodd" d="M60.6133 79.857C67.6788 82.4286 74.0579 82.7234 74.8615 80.5155C75.6651 78.3076 70.5889 74.433 63.5235 71.8614C56.4581 69.2898 50.079 68.995 49.2754 71.2029C48.4718 73.4109 53.5479 77.2854 60.6133 79.857Z" fill="#4F44D0"/>
<path fill-rule="evenodd" clip-rule="evenodd" d="M60.7571 79.4569C67.381 81.8678 73.337 82.2113 74.0602 80.2241C74.7835 78.237 70.0001 74.6717 63.3763 72.2608C56.7525 69.8499 50.7965 69.5064 50.0732 71.4936C49.35 73.4807 54.1333 77.046 60.7571 79.4569Z" fill="#A998D2"/>
<path fill-rule="evenodd" clip-rule="evenodd" d="M65.9766 74.1132L61.5344 72.7463L59.3845 72.0848C59.1447 72.011 58.919 72.0543 58.8804 72.1815C58.8418 72.3087 59.0048 72.4716 59.2446 72.5454L61.3946 73.207C62.043 73.4065 62.6066 73.7642 62.9023 74.1637C63.0416 74.352 63.1174 74.5364 63.1367 74.7074L58.9768 73.4273C58.737 73.3535 58.5113 73.3968 58.4727 73.524C58.4341 73.6512 58.5971 73.8141 58.8369 73.8879L63.0125 75.1728C62.9849 75.2078 62.9538 75.2413 62.9175 75.2723C62.6506 75.5009 62.177 75.5819 61.584 75.5002C60.6815 75.3759 59.7266 75.0627 58.8019 74.7592L58.6077 74.6954C58.4268 74.6344 58.2412 74.6423 58.146 74.7116C58.0507 74.7809 58.0653 74.8979 58.1824 75.0045L62.7707 79.1786C62.8416 79.2431 62.9387 79.2939 63.0413 79.3255C63.1611 79.3624 63.2881 79.3729 63.3894 79.3481C63.5777 79.3022 63.6058 79.1517 63.4522 79.0119L59.6229 75.5283C60.3052 75.7377 61.0009 75.9219 61.7056 76.0191C62.5864 76.1404 63.2932 76.0174 63.6957 75.6727C63.7769 75.6032 63.8378 75.5248 63.8889 75.4424L65.429 75.9164C65.6688 75.9901 65.8945 75.9469 65.9331 75.8197C65.9717 75.6924 65.8087 75.5295 65.5689 75.4557L64.0238 74.9803C64.0239 74.7113 63.9128 74.4141 63.6897 74.1126C63.6207 74.0194 63.5381 73.9287 63.4497 73.8393L65.8367 74.5738C66.0765 74.6476 66.3022 74.6043 66.3408 74.4771C66.3795 74.3499 66.2164 74.187 65.9766 74.1132Z" fill="white"/>
<path d="M24.6133 64.4051L40.3543 48.6631L48.2253 56.5341L68.2213 36.5381" stroke="#4F44D0" stroke-width="3" stroke-linecap="round" stroke-linejoin="round"/>
<path d="M59.5 30.582H73.965V45.047" stroke="#4F44D0" stroke-width="3" stroke-linecap="round" stroke-linejoin="round"/>
</g>
</g>
<defs>
<filter id="filter0_dd" x="-2" y="-1.41797" width="134" height="184" filterUnits="userSpaceOnUse" color-interpolation-filters="sRGB">
<feFlood flood-opacity="0" result="BackgroundImageFix"/>
<feColorMatrix in="SourceAlpha" type="matrix" values="0 0 0 0 0 0 0 0 0 0 0 0 0 0 0 0 0 0 127 0"/>
<feOffset dy="2"/>
<feGaussianBlur stdDeviation="1"/>
<feColorMatrix type="matrix" values="0 0 0 0 0 0 0 0 0 0 0 0 0 0 0 0 0 0 0.0483186 0"/>
<feBlend mode="normal" in2="BackgroundImageFix" result="effect1_dropShadow"/>
<feColorMatrix in="SourceAlpha" type="matrix" values="0 0 0 0 0 0 0 0 0 0 0 0 0 0 0 0 0 0 127 0"/>
<feOffset/>
<feGaussianBlur stdDeviation="1"/>
<feColorMatrix type="matrix" values="0 0 0 0 0 0 0 0 0 0 0 0 0 0 0 0 0 0 0.12 0"/>
<feBlend mode="normal" in2="effect1_dropShadow" result="effect2_dropShadow"/>
<feBlend mode="normal" in="SourceGraphic" in2="effect2_dropShadow" result="shape"/>
</filter>
<clipPath id="clip0">
<rect width="130" height="178" fill="white" transform="translate(0 0.582031)"/>
</clipPath>
</defs>
</svg>
