<svg width="110" height="75" viewBox="0 0 110 75" fill="none" xmlns="http://www.w3.org/2000/svg">
<path opacity="0.2" d="M15.2467 66.4296C16.651 66.6146 36.5787 66.7033 56.2839 66.7458C60.987 66.7563 65.6775 66.7636 70.1002 66.7693C84.4573 66.7875 95.995 66.7847 95.995 66.7847C103.456 62.9107 108.103 51.9627 102.568 43.4106C98.9109 37.761 96.5645 37.2075 96.8953 24.5688C97.4692 2.65971 76.2558 13.3531 68.5888 8.07645C57.2073 0.242699 51.2338 1.17646 46.1152 4.25513C43.2019 6.00645 40.5654 8.45344 37.3661 10.3736C34.2312 12.2553 30.5557 13.6317 25.5499 13.3531C-1.63738 11.8391 13.4451 35.4339 7.71076 43.8815C1.37449 53.2159 7.07641 65.3537 15.2467 66.4296Z" fill="#DBEBFF"/>
<path d="M13.6665 67.284C13.6665 64.1272 32.9509 61.568 56.7395 61.568C80.5282 61.568 99.8127 64.1272 99.8127 67.284C99.8127 70.4408 80.5282 73 56.7395 73C32.9509 73 13.6665 70.4408 13.6665 67.284Z" fill="#DBEBFF"/>
<path d="M74.7284 26.4866C75.0693 27.5969 74.3793 31.3959 74.062 31.4931C73.7442 31.5903 71.0399 28.8287 70.699 27.7184C70.3581 26.608 70.9835 25.4325 72.0964 25.0924C73.2092 24.7522 74.3875 25.3766 74.7284 26.4866Z" fill="#BDD1F9"/>
<path d="M71.8115 30.3513C72.1524 31.4612 71.4625 35.2607 71.1451 35.3579C70.8273 35.455 68.1226 32.693 67.7817 31.5831C67.4408 30.4728 68.0666 29.2969 69.1795 28.9567C70.2924 28.6166 71.4706 29.241 71.8115 30.3513Z" fill="#BDD1F9"/>
<path d="M66.7889 34.7519C67.5276 35.6488 68.3405 39.4235 68.0836 39.6341C67.8271 39.8447 64.2722 38.3189 63.5331 37.422C62.7941 36.525 62.9239 35.2001 63.8229 34.4627C64.7219 33.7254 66.0499 33.8549 66.7889 34.7519Z" fill="#BDD1F9"/>
<path d="M72.2133 42.2327C71.0595 42.0824 67.8784 39.8833 67.9214 39.5549C67.9644 39.2261 71.6037 37.9129 72.7576 38.0627C73.9115 38.2129 74.7252 39.2678 74.575 40.419C74.4249 41.5706 73.3676 42.3825 72.2133 42.2327Z" fill="#BDD1F9"/>
<path d="M40.4845 32.5214C39.9463 33.541 39.9147 37.3732 40.2065 37.5263C40.4983 37.6798 43.6474 35.4854 44.1855 34.4658C44.7237 33.4462 44.3316 32.1845 43.3097 31.6475C42.2873 31.1106 41.0227 31.5017 40.4845 32.5214Z" fill="#BDD1F9"/>
<path d="M42.6131 36.8276C42.0746 37.8476 42.0433 41.6795 42.3351 41.833C42.6265 41.986 45.776 39.7921 46.3142 38.7725C46.8523 37.7525 46.4599 36.4907 45.4379 35.9538C44.416 35.4169 43.1513 35.808 42.6131 36.8276Z" fill="#BDD1F9"/>
<path d="M46.6953 42.0459C45.8081 42.7841 44.3162 46.3155 44.5276 46.5678C44.7387 46.8205 48.488 45.9887 49.3748 45.2502C50.262 44.512 50.3809 43.1959 49.641 42.3112C48.9011 41.4264 47.5821 41.3074 46.6953 42.0459Z" fill="#BDD1F9"/>
<path d="M40.0188 48.3397C41.1722 48.4061 44.6813 46.8488 44.7004 46.5204C44.7194 46.192 41.4141 44.2398 40.2611 44.1734C39.108 44.1066 38.119 44.9849 38.052 46.1357C37.985 47.2861 38.8657 48.2729 40.0188 48.3397Z" fill="#BDD1F9"/>
<path d="M67.9615 39.6565C67.955 39.6537 67.9493 39.6504 67.9432 39.6464C67.8974 39.614 67.8864 39.5504 67.9193 39.5042C76.4376 27.5102 83.2712 19.3177 87.1612 16.435C87.2476 16.3711 87.31 16.3249 87.3363 16.2998C87.3771 16.2609 87.4418 16.2625 87.4807 16.303C87.5197 16.3435 87.5183 16.4079 87.4775 16.4468C87.442 16.4808 87.3821 16.5253 87.283 16.5986C83.4099 19.4688 76.5921 27.6451 68.0857 39.6221C68.0573 39.6622 68.0049 39.6755 67.9615 39.6565Z" fill="#94C5FF"/>
<path d="M89.2211 16.3623C88.7683 16.6806 86.9439 16.9308 86.8529 16.802C86.7619 16.6729 87.614 15.0442 88.0669 14.726C88.5198 14.4081 89.1453 14.5166 89.464 14.9685C89.7828 15.4204 89.674 16.0444 89.2211 16.3623Z" fill="#94C5FF"/>
<path d="M85.7702 16.6334C85.7517 17.1983 84.8334 18.8395 84.6718 18.8342C84.5101 18.829 83.701 17.1315 83.7196 16.5666C83.738 16.0017 84.212 15.5587 84.7783 15.577C85.3446 15.5952 85.7887 16.0681 85.7702 16.6334Z" fill="#94C5FF"/>
<path d="M86.6016 20.3215C86.054 20.1761 84.658 18.9139 84.6995 18.758C84.7411 18.6021 86.581 18.198 87.1286 18.343C87.6762 18.4883 88.0021 19.0488 87.8566 19.595C87.711 20.1413 87.1492 20.4664 86.6016 20.3215Z" fill="#94C5FF"/>
<path d="M78.1972 23.9364C78.2688 24.8823 77.034 27.7873 76.7633 27.8075C76.4926 27.8282 74.8346 25.141 74.7632 24.1951C74.6914 23.2488 75.402 22.424 76.3505 22.3527C77.2988 22.281 78.1256 22.9901 78.1972 23.9364Z" fill="#94C5FF"/>
<path d="M80.2531 29.941C79.313 29.7972 76.7544 27.9431 76.7955 27.675C76.8365 27.4073 79.8337 26.4007 80.7737 26.5444C81.7138 26.6878 82.3594 27.5644 82.2156 28.5023C82.0718 29.4401 81.1932 30.0843 80.2531 29.941Z" fill="#94C5FF"/>
<path d="M77.8641 34.4947C76.7379 34.2019 73.8577 31.6234 73.9413 31.3026C74.0249 30.9819 77.8003 30.1328 78.9264 30.4256C80.0527 30.7183 80.7278 31.8663 80.4345 32.99C80.1411 34.1137 78.9903 34.7871 77.8641 34.4947Z" fill="#94C5FF"/>
<path d="M74.9473 38.3593C73.821 38.0665 70.9406 35.4879 71.0246 35.1672C71.1082 34.8465 74.8835 33.9978 76.0098 34.2906C77.1359 34.5829 77.8111 35.7313 77.5177 36.855C77.2244 37.9787 76.0736 38.6521 74.9473 38.3593Z" fill="#94C5FF"/>
<path d="M83.4259 18.9115C83.4072 19.4857 82.4742 21.1532 82.31 21.1479C82.1457 21.1427 81.3236 19.4177 81.3424 18.8439C81.3612 18.2697 81.8429 17.8194 82.4182 17.8384C82.9935 17.8571 83.4447 18.3377 83.4259 18.9115Z" fill="#94C5FF"/>
<path d="M84.1889 22.6685C83.6325 22.5207 82.2142 21.2383 82.2563 21.08C82.2985 20.9217 84.168 20.5107 84.7243 20.6585C85.2807 20.8058 85.6118 21.3756 85.4639 21.9303C85.3161 22.4855 84.7453 22.8159 84.1889 22.6685Z" fill="#94C5FF"/>
<path d="M80.9472 20.9265C80.9876 21.7412 79.8613 24.2109 79.6282 24.2226C79.3951 24.234 78.0296 21.8878 77.9892 21.0727C77.9487 20.2575 78.5781 19.5643 79.3949 19.5238C80.2117 19.4833 80.9067 20.1114 80.9472 20.9265Z" fill="#94C5FF"/>
<path d="M82.3805 26.3845C81.5901 26.1747 79.5749 24.353 79.6348 24.1278C79.6948 23.9027 82.3507 23.3192 83.1411 23.5285C83.9315 23.7383 84.402 24.5473 84.1919 25.3361C83.9818 26.1245 83.1709 26.5938 82.3805 26.3845Z" fill="#94C5FF"/>
<path d="M44.6434 46.6127C44.6499 46.6111 44.6564 46.609 44.6625 46.6062C44.7136 46.5827 44.736 46.5228 44.7124 46.4722C38.629 33.2047 33.4835 23.9549 30.2245 20.4263C30.1522 20.3478 30.0999 20.2915 30.0788 20.2619C30.0463 20.2166 29.983 20.206 29.9375 20.2384C29.8921 20.2708 29.8815 20.334 29.914 20.3793C29.9424 20.419 29.9923 20.4733 30.0755 20.5632C33.3204 24.0764 38.4533 33.3075 44.5282 46.556C44.5489 46.6005 44.5976 46.6232 44.6434 46.6127Z" fill="#94C5FF"/>
<path d="M28.2297 19.9749C28.6124 20.3685 30.345 20.9496 30.4574 20.8406C30.5703 20.7317 30.041 18.9861 29.6583 18.5925C29.2756 18.1985 28.6457 18.1892 28.2512 18.5706C27.8567 18.9525 27.847 19.5813 28.2297 19.9749Z" fill="#94C5FF"/>
<path d="M31.5446 20.876C31.4581 21.4304 32.0495 23.2003 32.2078 23.225C32.3665 23.2497 33.47 21.7438 33.5568 21.1895C33.6433 20.6351 33.2634 20.1156 32.7078 20.0289C32.1522 19.9423 31.6314 20.3217 31.5446 20.876Z" fill="#94C5FF"/>
<path d="M30.0502 24.3188C30.6111 24.2783 32.2061 23.3049 32.1948 23.1454C32.183 22.9854 30.4638 22.2521 29.9029 22.2926C29.342 22.3331 28.9203 22.8194 28.9609 23.379C29.0015 23.9386 29.4893 24.3593 30.0502 24.3188Z" fill="#94C5FF"/>
<path d="M37.576 29.3944C37.3309 30.3039 37.9965 33.3643 38.2566 33.434C38.5168 33.504 40.6317 31.1899 40.8768 30.2804C41.122 29.3709 40.5818 28.4355 39.6702 28.191C38.7591 27.946 37.8211 28.4849 37.576 29.3944Z" fill="#94C5FF"/>
<path d="M34.4578 34.8705C35.401 34.9037 38.2396 33.5674 38.2494 33.299C38.2591 33.0305 35.5228 31.4958 34.5796 31.4622C33.6364 31.4286 32.8445 32.1643 32.8109 33.1054C32.7772 34.0465 33.5146 34.8369 34.4578 34.8705Z" fill="#94C5FF"/>
<path d="M35.9435 39.752C37.0958 39.6743 40.3824 37.691 40.3605 37.363C40.3382 37.0346 36.8141 35.5104 35.6615 35.5882C34.5092 35.6655 33.6378 36.6608 33.7158 37.8104C33.7937 38.9604 34.7909 39.8294 35.9435 39.752Z" fill="#94C5FF"/>
<path d="M38.0711 44.0587C39.2237 43.9809 42.5104 41.9976 42.488 41.6696C42.4661 41.3412 38.9421 39.8171 37.7894 39.8948C36.6372 39.9726 35.7658 40.9675 35.8437 42.1175C35.9217 43.2671 36.9188 44.136 38.0711 44.0587Z" fill="#94C5FF"/>
<path d="M33.4085 23.53C33.3204 24.0933 33.9211 25.8916 34.0822 25.9167C34.2434 25.9418 35.3648 24.4116 35.4528 23.8483C35.5409 23.2851 35.1545 22.757 34.59 22.6692C34.0254 22.5813 33.4966 22.9668 33.4085 23.53Z" fill="#94C5FF"/>
<path d="M31.9679 27.0527C32.5381 27.0114 34.1587 26.0225 34.1469 25.8601C34.1351 25.6982 32.3883 24.9527 31.8185 24.9936C31.2487 25.0349 30.8201 25.5293 30.8615 26.0978C30.9029 26.6664 31.398 27.094 31.9679 27.0527Z" fill="#94C5FF"/>
<path d="M35.452 25.9521C35.2616 26.7393 35.9021 29.3556 36.1273 29.4098C36.3526 29.4641 38.1189 27.4277 38.3092 26.6405C38.5 25.8533 38.0146 25.0609 37.2256 24.871C36.4366 24.6807 35.6427 25.165 35.452 25.9521Z" fill="#94C5FF"/>
<path d="M33.0427 31.01C33.852 30.9513 36.1549 29.5466 36.1382 29.3158C36.1216 29.0854 33.6397 28.0265 32.8301 28.0848C32.0204 28.1435 31.412 28.8457 31.4704 29.6535C31.5293 30.4614 32.233 31.0684 33.0427 31.01Z" fill="#94C5FF"/>
<path d="M68.262 54.3299C68.262 54.3299 69.3651 41.1823 91.4573 46.8088C91.4573 46.8088 77.6018 65.7262 68.262 54.3299Z" fill="#3792FC"/>
<path opacity="0.9" d="M91.5004 46.7942L68.6858 52.7212C69.8287 49.4036 74.3114 42.4166 91.5004 46.7942Z" fill="#3792FC"/>
<path opacity="0.9" d="M64.3075 57.9221C64.3075 57.9221 71.8297 44.0173 93.3798 60.7497C93.3798 60.7497 69.0893 74.8951 64.3075 57.9221Z" fill="#3792FC"/>
<path d="M93.3798 60.7497L64.3075 57.9221C64.3075 57.9221 66.3688 74.787 93.3798 60.7497Z" fill="#3792FC"/>
<path d="M38.614 52.2657C38.614 52.2657 41.9595 45.5001 29.4732 41.757C29.4732 41.757 30.6697 55.1014 38.614 52.2657Z" fill="#3792FC"/>
<path opacity="0.9" d="M29.4557 41.7365L38.8814 51.3528C39.3018 49.3913 39.1708 44.6492 29.4557 41.7365Z" fill="#3792FC"/>
<path opacity="0.9" d="M42.4885 56.672C42.4885 56.672 39.1451 44.1865 18.8205 53.4245C18.8205 53.4245 35.4599 69.2722 42.4885 56.672Z" fill="#3792FC"/>
<path d="M18.8205 53.4245L42.4885 56.672C42.4885 56.672 37.645 69.7006 18.8205 53.4245Z" fill="#3792FC"/>
<path d="M34.6547 63.0108L69.7026 69.0632L77.2222 25.72L42.1744 19.6672L34.6547 63.0108Z" fill="white"/>
<path d="M44.3537 25.1188L54.5501 26.8799L54.6146 26.5065L44.4186 24.7459L44.3537 25.1188Z" fill="#3792FC"/>
<path d="M44.1317 26.3964L54.328 28.1575L54.3926 27.7841L44.1962 26.0235L44.1317 26.3964Z" fill="#3792FC"/>
<path d="M43.9102 27.674L54.1062 29.4351L54.1711 29.0621L43.9748 27.3011L43.9102 27.674Z" fill="#3792FC"/>
<path d="M49.3566 32.5432L56.6767 33.8074L56.7697 33.2704L49.45 32.0062L49.3566 32.5432Z" fill="#3792FC"/>
<path d="M43.2483 31.4884L47.9574 32.3015L48.0508 31.765L43.3416 30.9515L43.2483 31.4884Z" fill="#3792FC"/>
<path d="M58.7953 34.1728L72.2235 36.4919L72.3169 35.9553L58.8882 33.6363L58.7953 34.1728Z" fill="#3792FC"/>
<path d="M60.9454 36.4564L71.9024 38.3487L71.9954 37.8117L61.0388 35.9195L60.9454 36.4564Z" fill="#3792FC"/>
<path d="M48.8013 34.359L59.7583 36.2512L59.8512 35.7147L48.8942 33.8225L48.8013 34.359Z" fill="#3792FC"/>
<path d="M48.5271 38.0862L55.8471 39.3503L55.9401 38.8138L48.6204 37.5496L48.5271 38.0862Z" fill="#3792FC"/>
<path d="M42.419 37.0315L47.1281 37.845L47.2211 37.308L42.5119 36.4949L42.419 37.0315Z" fill="#3792FC"/>
<path d="M57.9657 39.7164L71.3944 42.0354L71.4873 41.4985L58.0591 39.1794L57.9657 39.7164Z" fill="#3792FC"/>
<path d="M60.1156 41.9994L71.0722 43.8916L71.1655 43.3551L60.2086 41.4628L60.1156 41.9994Z" fill="#3792FC"/>
<path d="M42.1021 38.8887L58.9282 41.7944L59.0211 41.2575L42.195 38.3517L42.1021 38.8887Z" fill="#3792FC"/>
<path d="M47.843 42.0327L55.1626 43.2969L55.256 42.7599L47.9359 41.4958L47.843 42.0327Z" fill="#3792FC"/>
<path d="M41.7345 40.9779L46.4437 41.791L46.5366 41.2545L41.8274 40.441L41.7345 40.9779Z" fill="#3792FC"/>
<path d="M57.2808 43.6625L70.7094 45.9819L70.8024 45.445L57.3741 43.126L57.2808 43.6625Z" fill="#3792FC"/>
<path d="M59.4307 45.9459L70.3872 47.8381L70.4806 47.3012L59.5236 45.409L59.4307 45.9459Z" fill="#3792FC"/>
<path d="M47.2866 43.8489L58.2436 45.7407L58.3365 45.2042L47.38 43.312L47.2866 43.8489Z" fill="#3792FC"/>
<path d="M50.2061 48.5462L54.0813 49.2156L54.1742 48.679L50.2991 48.0097L50.2061 48.5462Z" fill="#3792FC"/>
<path d="M56.2 49.5818L69.6282 51.9009L69.7216 51.3639L56.2929 49.0449L56.2 49.5818Z" fill="#3792FC"/>
<path d="M60.8119 52.2897L65.4854 53.0972L65.5787 52.5602L60.9053 51.7532L60.8119 52.2897Z" fill="#3792FC"/>
<path d="M49.8842 50.4031L59.6646 52.092L59.7576 51.5551L49.9776 49.8661L49.8842 50.4031Z" fill="#3792FC"/>
<path d="M49.6245 52.0984L59.4049 53.7874L59.4978 53.2508L49.7174 51.5615L49.6245 52.0984Z" fill="#3792FC"/>
<path d="M66.8561 70.5428C63.2119 70.6012 60.2442 69.818 60.228 68.794C60.2114 67.7695 63.1522 66.8916 66.7964 66.8329C70.4406 66.7746 73.4083 67.5577 73.4245 68.5822C73.4411 69.6062 70.5003 70.4841 66.8561 70.5428Z" fill="#2871C6"/>
<path d="M60.2281 68.7941L60.1716 67.61L61.3738 67.7688L73.3685 67.3983L73.4246 68.5823L69.5052 69.8691L63.9129 69.2541L60.2281 68.7941Z" fill="#2871C6"/>
<path d="M66.8002 69.359C63.156 69.4177 60.1883 68.6345 60.1717 67.6101C60.1554 66.5856 63.0963 65.7077 66.7405 65.6494C70.3847 65.5907 73.3523 66.3738 73.3686 67.3983C73.3852 68.4228 70.4444 69.3007 66.8002 69.359Z" fill="#68AEFF"/>
<path d="M68.198 68.0323C64.5538 68.091 61.5861 67.3079 61.5699 66.2834C61.5533 65.2589 64.4941 64.3811 68.1383 64.3227C71.7825 64.264 74.7502 65.0472 74.7664 66.0716C74.783 67.0961 71.8422 67.974 68.198 68.0323Z" fill="#2871C6"/>
<path d="M61.57 66.2834L61.5136 65.0994L62.7157 65.2585L74.7105 64.8876L74.7665 66.0716L70.8471 67.3589L65.2548 66.7434L61.57 66.2834Z" fill="#2871C6"/>
<path d="M68.1421 66.8488C64.4979 66.9071 61.5302 66.1239 61.5136 65.0995C61.4974 64.0754 64.4382 63.1975 68.0824 63.1388C71.7266 63.0805 74.6943 63.8636 74.7105 64.8877C74.7271 65.9121 71.7863 66.79 68.1421 66.8488Z" fill="#68AEFF"/>
<path d="M66.6146 66.4718C62.9704 66.5305 60.0028 65.7473 59.9865 64.7229C59.9699 63.6984 62.9107 62.8209 66.555 62.7622C70.1992 62.7039 73.1668 63.487 73.183 64.5111C73.1997 65.5356 70.2588 66.4134 66.6146 66.4718Z" fill="#2871C6"/>
<path d="M59.9866 64.7228L59.9302 63.5392L61.1323 63.698L73.1271 63.3275L73.1831 64.5111L69.2637 65.7983L63.6714 65.1833L59.9866 64.7228Z" fill="#2871C6"/>
<path d="M66.5587 65.2882C62.9145 65.3465 59.9469 64.5638 59.9302 63.5393C59.914 62.5148 62.8548 61.637 66.499 61.5786C70.1433 61.5199 73.1109 62.3031 73.1271 63.3275C73.1438 64.352 70.2029 65.2295 66.5587 65.2882Z" fill="#68AEFF"/>
<path d="M61.7929 63.4116L62.7073 63.3982C62.7207 63.3646 62.7479 63.3375 62.7751 63.3104C62.7884 63.2901 62.8156 63.2699 62.8359 63.2565C62.9102 63.1889 63.0121 63.1346 63.1407 63.0873C63.3303 63.0063 63.5673 62.9524 63.8449 62.9115C63.8587 62.905 63.8721 62.905 63.8859 62.905C64.1294 62.8645 64.4005 62.8508 64.685 62.8443H64.9557C65.4501 62.8577 65.8295 62.9184 66.1408 63.0265C66.2902 63.0808 66.4253 63.1415 66.5544 63.2156C66.5609 63.2091 66.5609 63.2091 66.5609 63.2156C66.6559 63.263 66.737 63.3173 66.8251 63.378C66.8994 63.4254 66.9672 63.4659 67.0487 63.5064C67.0487 63.5064 67.0552 63.5132 67.0621 63.5132C67.3803 63.6752 67.7598 63.7562 68.3016 63.7497C68.884 63.736 69.3244 63.6145 69.4595 63.4387C69.4936 63.3982 69.507 63.3578 69.507 63.3173C69.507 63.3039 69.507 63.297 69.5005 63.2832C69.4936 63.2428 69.4798 63.2023 69.453 63.1618C69.3784 63.0468 69.2294 62.9455 69.0468 62.8577C69.0399 62.8577 69.0399 62.8577 69.033 62.8508C69.0127 62.8443 68.9855 62.8305 68.9652 62.8236L69.2022 62.7969L69.7915 62.7293C69.7984 62.7293 69.8118 62.7362 69.8187 62.7427C69.9949 62.8103 70.1438 62.9115 70.2388 63.0196C70.2388 63.0265 70.2388 63.0265 70.2453 63.0265C70.2656 63.0605 70.2928 63.0941 70.3062 63.1282C70.32 63.1549 70.3334 63.1889 70.3334 63.2156C70.3403 63.2294 70.3403 63.2359 70.3403 63.2496L70.6248 63.2428H70.6382L71.2344 63.2359L71.5862 63.2294V63.3375L71.5931 63.3711V63.4525L70.9904 63.459L70.3062 63.4728C70.2656 63.54 70.2047 63.6011 70.1235 63.655C69.8727 63.8238 69.4393 63.9388 68.938 63.9996H68.9315C68.701 64.0267 68.464 64.0469 68.2205 64.0538C67.313 64.0672 66.7098 63.9522 66.2358 63.7092C66.2224 63.7092 66.2155 63.7023 66.2086 63.6955C66.1205 63.655 66.0325 63.6076 65.9513 63.5537C65.9448 63.5537 65.9448 63.5469 65.9379 63.5469C65.9241 63.5335 65.9107 63.5266 65.8973 63.5201C65.7752 63.4387 65.6603 63.3711 65.545 63.3241C65.2605 63.1889 64.976 63.1346 64.5426 63.1415C64.3055 63.1415 64.0551 63.1751 63.8587 63.2294C63.7365 63.263 63.6351 63.3104 63.5673 63.3646C63.5539 63.378 63.5401 63.3914 63.5401 63.4051C63.4995 63.4387 63.4861 63.4792 63.4861 63.5266C63.4861 63.5602 63.493 63.5942 63.5064 63.6214C63.5133 63.655 63.5336 63.689 63.5604 63.7157C63.6282 63.8036 63.7365 63.8712 63.8315 63.9186C63.8587 63.9319 63.8859 63.9457 63.9127 63.9591L63.8315 63.9728L63.1001 64.0603C63.0255 64.0267 62.9512 63.9793 62.8834 63.9388C62.775 63.8578 62.6935 63.7631 62.6667 63.6485C62.6667 63.6347 62.6598 63.6282 62.6598 63.6145L61.4609 63.6347V63.4185L61.7929 63.4116Z" fill="white"/>
<path d="M66.6049 64.7066C62.9606 64.7653 59.993 63.9822 59.9764 62.9577C59.9597 61.9333 62.9006 61.0554 66.5448 60.9971C70.189 60.9383 73.1566 61.7215 73.1733 62.746C73.1899 63.7704 70.2491 64.6483 66.6049 64.7066Z" fill="#2871C6"/>
<path d="M59.9764 62.9577L59.9204 61.7737L61.1222 61.9328L73.1173 61.5619L73.1733 62.7459L69.2536 64.0332L63.6612 63.4177L59.9764 62.9577Z" fill="#2871C6"/>
<path d="M66.5487 63.5231C62.9045 63.5814 59.9372 62.7982 59.9206 61.7738C59.9039 60.7497 62.8448 59.8718 66.489 59.8131C70.1332 59.7548 73.1008 60.5379 73.1175 61.562C73.1337 62.5865 70.1929 63.4644 66.5487 63.5231Z" fill="#68AEFF"/>
<path d="M61.7653 61.6482L62.6931 61.6349C62.7 61.628 62.7 61.6211 62.7069 61.6146C62.7134 61.6008 62.7272 61.5806 62.7406 61.5672C62.8221 61.4725 62.9508 61.3915 63.1265 61.3239C63.1403 61.317 63.1468 61.3105 63.1537 61.317C63.2349 61.2834 63.3165 61.2563 63.411 61.2291C63.4516 61.2226 63.4991 61.2089 63.5466 61.202C63.5466 61.1955 63.5466 61.1955 63.5466 61.1955C63.8648 61.1279 64.2512 61.0874 64.6708 61.0805H64.8875C64.8944 61.0805 64.8944 61.0805 64.9013 61.0805C65.795 61.0943 66.3101 61.2765 66.7638 61.5806C66.7841 61.5875 66.7975 61.6008 66.8178 61.6146C66.8584 61.6413 66.899 61.6685 66.94 61.6887C66.9737 61.709 67.0078 61.7292 67.0483 61.7495C67.1023 61.7766 67.1632 61.8037 67.2245 61.824C67.5086 61.939 67.8406 61.9928 68.2943 61.9863C68.5313 61.9791 68.7481 61.9592 68.9311 61.9118C69.1409 61.8713 69.3037 61.8102 69.3983 61.7223C69.3983 61.7223 69.3983 61.7292 69.4052 61.7223C69.4186 61.709 69.4388 61.6956 69.4526 61.6754C69.4591 61.662 69.4729 61.6482 69.4729 61.6349C69.4794 61.6211 69.4863 61.6146 69.4863 61.6008C69.4932 61.5875 69.4932 61.5672 69.4932 61.5535C69.4932 61.3777 69.2968 61.2158 69.0395 61.0943C69.0123 61.0805 68.9851 61.0736 68.9583 61.0603L69.7777 60.9655C69.9673 61.0331 70.13 61.1413 70.2246 61.2563C70.279 61.317 70.3127 61.3777 70.3261 61.4454C70.333 61.4591 70.333 61.4725 70.333 61.4859L70.8951 61.4794L71.2271 61.4725L71.5793 61.4656V61.6818L71.2676 61.6887L70.2993 61.7021C70.2721 61.7495 70.2315 61.7968 70.184 61.8373C70.1637 61.8576 70.1365 61.8713 70.1162 61.8916C69.798 62.1009 69.1953 62.2362 68.5249 62.2698C68.423 62.2767 68.3215 62.2836 68.2132 62.2836C67.4343 62.2969 66.8856 62.2159 66.4452 62.0467C66.3032 61.9863 66.1676 61.9252 66.0459 61.8442C66.0118 61.824 65.9781 61.8037 65.9444 61.7835C65.8425 61.7159 65.748 61.662 65.653 61.6077C65.3348 61.4389 65.0231 61.3644 64.5288 61.3777C64.4066 61.3777 64.2848 61.3846 64.1696 61.4049C64.1696 61.4049 64.1631 61.398 64.1562 61.4049C63.9529 61.4251 63.7633 61.4725 63.6416 61.547C63.5669 61.5806 63.5194 61.628 63.4926 61.6818C63.4857 61.6956 63.4788 61.7021 63.4857 61.7158C63.4719 61.7292 63.4719 61.743 63.4719 61.7632C63.4719 61.7835 63.4788 61.8102 63.4857 61.8308C63.4857 61.8373 63.4857 61.8507 63.4926 61.8576C63.5332 61.9726 63.6481 62.0536 63.7564 62.1212C63.8108 62.1483 63.8583 62.175 63.8989 62.1957L63.7702 62.2091L63.0859 62.29C62.9236 62.2159 62.7677 62.1143 62.6931 61.9791C62.6797 61.9523 62.6663 61.9183 62.6594 61.8847C62.6594 61.8713 62.6525 61.8645 62.6525 61.8507L61.454 61.8713L61.4471 61.7563V61.6547L61.7653 61.6482Z" fill="white"/>
<path d="M66.596 63.0274C62.9518 63.0861 59.9846 62.303 59.9679 61.2785C59.9513 60.2541 62.8922 59.3766 66.5364 59.3179C70.1806 59.2596 73.1482 60.0427 73.1649 61.0668C73.1811 62.0912 70.2402 62.9691 66.596 63.0274Z" fill="#2871C6"/>
<path d="M59.968 61.2785L59.912 60.0949L61.1138 60.2536L73.1089 59.8831L73.1649 61.0667L69.2451 62.354L63.6528 61.7389L59.968 61.2785Z" fill="#2871C6"/>
<path d="M66.5401 61.8439C62.8959 61.9022 59.9283 61.1194 59.912 60.095C59.8954 59.0705 62.8363 58.1926 66.4805 58.1343C70.1247 58.0756 73.0923 58.8587 73.1089 59.8832C73.1252 60.9077 70.1843 61.7852 66.5401 61.8439Z" fill="#68AEFF"/>
<path d="M61.5894 59.9727L61.7725 59.9654H61.9417L62.6869 59.952C62.7072 59.9253 62.7275 59.8913 62.7547 59.8642C62.8017 59.8172 62.863 59.7767 62.9304 59.7358C62.9917 59.7022 63.0526 59.6751 63.1268 59.6415C63.3233 59.5601 63.5741 59.4993 63.8651 59.4588C64.1025 59.4252 64.3732 59.405 64.6646 59.3981H64.9422C65.3485 59.405 65.6805 59.4524 65.9581 59.5265C66.2085 59.601 66.4188 59.6953 66.6152 59.8103C66.683 59.8508 66.7503 59.8913 66.8116 59.9387C66.8859 59.9861 66.9671 60.033 67.0486 60.0739C67.3668 60.2359 67.7394 60.3169 68.2812 60.3035C68.8503 60.2897 69.2902 60.182 69.4327 59.9994C69.4461 59.9925 69.453 59.9792 69.4595 59.9654C69.4797 59.9387 69.4866 59.9051 69.4866 59.8711C69.4797 59.6884 69.2768 59.5265 69.0057 59.4115C68.9854 59.3981 68.9651 59.3912 68.9448 59.3847L69.7711 59.2831C69.9607 59.3576 70.1165 59.4588 70.2115 59.5738C70.2793 59.6483 70.3199 59.7293 70.3264 59.8103L71.119 59.7965H71.2343L71.5728 59.7901V60.0063L71.302 60.0128L70.2927 60.0265C70.2793 60.0468 70.2655 60.067 70.2521 60.0873C70.1303 60.2359 69.8726 60.3574 69.5475 60.4456C69.5475 60.4456 69.541 60.4456 69.5341 60.4456C69.1615 60.5469 68.6875 60.6007 68.2001 60.6076C67.6988 60.6145 67.2922 60.5874 66.9468 60.5064C66.5608 60.4319 66.2495 60.3035 65.9784 60.1347C65.965 60.1278 65.9512 60.1144 65.9378 60.1075C65.7686 59.9994 65.6196 59.9115 65.4703 59.8508C65.2065 59.7358 64.9284 59.6953 64.5222 59.7022C64.1025 59.7091 63.6281 59.7901 63.4994 59.9727C63.4994 59.9792 63.4929 59.9861 63.4929 59.9861C63.4791 60.0128 63.4657 60.0399 63.4657 60.067C63.4657 60.0739 63.4657 60.0739 63.4657 60.0804C63.4657 60.1144 63.4722 60.148 63.486 60.182C63.4929 60.1885 63.4929 60.1954 63.4994 60.2088C63.581 60.3574 63.7705 60.459 63.8923 60.5129L63.3302 60.5805L63.0798 60.6145C63.0457 60.6007 63.012 60.5805 62.9848 60.5671C62.8289 60.4793 62.7003 60.3711 62.6528 60.2225C62.6528 60.2225 62.6528 60.2156 62.6528 60.2088C62.6463 60.1954 62.6394 60.182 62.6394 60.1683L61.9145 60.182L61.5083 60.1885H61.4474L61.4405 60.0739V59.9727H61.5894Z" fill="white"/>
<path d="M68.0773 61.7005C64.4331 61.7592 61.4654 60.9761 61.4488 59.9516C61.4325 58.9272 64.3734 58.0493 68.0176 57.991C71.6618 57.9327 74.6294 58.7154 74.6457 59.7398C74.6623 60.7643 71.7215 61.6422 68.0773 61.7005Z" fill="#2871C6"/>
<path d="M61.4488 59.9516L61.3928 58.768L62.595 58.9267L74.5897 58.5562L74.6458 59.7398L70.726 61.0271L65.134 60.412L61.4488 59.9516Z" fill="#2871C6"/>
<path d="M68.0214 60.517C64.3771 60.5753 61.4095 59.7921 61.3929 58.7681C61.3766 57.7436 64.3175 56.8657 67.9617 56.8074C71.6059 56.7487 74.5731 57.5318 74.5898 58.5563C74.6064 59.5808 71.6656 60.4582 68.0214 60.517Z" fill="#68AEFF"/>
<path d="M66.0438 58.8651C62.3996 58.9234 59.432 58.1407 59.4153 57.1162C59.3991 56.0917 62.3395 55.2139 65.9837 55.1556C69.628 55.0968 72.5956 55.88 72.6122 56.9044C72.6289 57.9289 69.688 58.8068 66.0438 58.8651Z" fill="#2871C6"/>
<path d="M59.4154 57.1162L59.3594 55.9321L60.5611 56.0909L72.5563 55.7204L72.6123 56.9044L68.6925 58.1917L63.1002 57.5762L59.4154 57.1162Z" fill="#2871C6"/>
<path d="M65.9879 57.6812C62.3437 57.7399 59.3761 56.9568 59.3594 55.9323C59.3428 54.9079 62.2836 54.03 65.9278 53.9717C69.572 53.9134 72.5397 54.6961 72.5563 55.7206C72.573 56.745 69.6321 57.6229 65.9879 57.6812Z" fill="#68AEFF"/>
<path d="M49.8007 63.2248C49.8575 59.2408 53.0504 56.056 56.932 56.1111C60.8141 56.1661 63.9148 59.4404 63.858 63.4241C63.8012 67.4082 60.6083 70.5929 56.7266 70.5379C52.8446 70.4828 49.7438 67.2085 49.8007 63.2248Z" fill="#2871C6"/>
<path d="M49.8858 63.5822C49.9396 59.7833 52.9606 56.7466 56.6333 56.7991C60.3063 56.8516 63.2402 59.9737 63.1864 63.7722C63.1326 67.571 60.1116 70.6077 56.439 70.5552C52.7659 70.5027 49.8321 67.3807 49.8858 63.5822Z" fill="#68AEFF"/>
</svg>
