<svg width="14" height="14" viewBox="0 0 14 14" fill="none" xmlns="http://www.w3.org/2000/svg">
<path fill-rule="evenodd" clip-rule="evenodd" d="M0 7C0 3.15 3.15 0 7 0C10.85 0 14 3.15 14 7C14 10.85 10.85 14 7 14C3.15 14 0 10.85 0 7ZM11.1489 4.59925C10.8474 4.30025 10.3585 4.30025 10.057 4.59925L5.97059 8.65162L3.94299 6.64091C3.64148 6.34192 3.15264 6.34192 2.85113 6.64091C2.54962 6.93991 2.54962 7.42467 2.85113 7.72367L5.42466 10.2758C5.72617 10.5747 6.21501 10.5747 6.51652 10.2758L11.1489 5.682C11.4504 5.38301 11.4504 4.89824 11.1489 4.59925Z" fill="#3792FC"/>
</svg>
