<svg width="200" height="200" viewBox="0 0 200 200" fill="none" xmlns="http://www.w3.org/2000/svg">
<path fill-rule="evenodd" clip-rule="evenodd" d="M84.5 143C117.858 143 145 115.744 145 82C145 48.2557 117.858 21 84.5 21C51.1415 21 24 48.2557 24 82C24 115.744 51.1415 143 84.5 143ZM84.5 151C122.332 151 153 120.108 153 82C153 43.8924 122.332 13 84.5 13C46.6685 13 16 43.8924 16 82C16 120.108 46.6685 151 84.5 151Z" fill="#675AF6"/>
<path d="M178.5 187.5L126.5 135.5L132 130L183.5 182L178.5 187.5Z" fill="#675AF6"/>
</svg>
