<svg xmlns="http://www.w3.org/2000/svg" width="250" height="165" viewBox="0 0 250 165">
  <defs>
    <linearGradient id="ill_refer_earn-a" x1="99.943%" x2="-.003%" y1="49.996%" y2="49.996%">
      <stop offset="0%" stop-color="gray" stop-opacity=".25"/>
      <stop offset="54%" stop-color="gray" stop-opacity=".12"/>
      <stop offset="100%" stop-color="gray" stop-opacity=".1"/>
    </linearGradient>
  </defs>
  <g fill="none" fill-rule="evenodd" transform="translate(-42 2)">
    <path fill="#F9FCFF" d="M242.241376,55 L303.548204,55 C305.897054,53.9553461 307.047159,51.9707066 306.99852,49.0460815 C306.94988,46.1214565 305.799775,44.0268913 303.548204,42.762386 L282.081646,42.762386 C280.721084,41.8562045 280.040803,40.3090814 280.040803,38.1210167 C280.040803,35.932952 280.721084,34.4590737 282.081646,33.6993817 L296.732143,33.6993817 C300.485986,29.7972594 302.330308,25.3232544 302.265109,20.2773666 C302.199909,15.2314788 300.355587,11.4723566 296.732143,9 L252.679229,9 C251.216008,9.57326097 250.496393,10.8094393 250.520383,12.7085349 C250.544373,14.6076306 251.263989,16.018629 252.679229,16.9415301 L272.454709,16.9415301 C273.551552,17.5815423 274.084858,18.8128837 274.054627,20.6355543 C274.024397,22.4582249 273.491091,23.7420886 272.454709,24.4871455 L242.241376,24.4871455 C239.538985,25.079852 238.267012,26.9228298 238.425456,30.0160788 C238.5839,33.1093278 240.060666,34.9313893 242.855754,35.4822633 L255.839224,35.4822633 C257.642883,36.0551561 258.502698,37.3388212 258.418669,39.3332586 C258.334641,41.3276961 257.372585,42.4707386 255.532501,42.762386 L242.241376,42.762386 C239.413792,43.4507762 238,45.5131319 238,48.9494532 C238,52.3857744 239.413792,54.4026234 242.241376,55 Z"/>
    <path fill="#FBFDFF" d="M6.45426736,164 L99.7472676,164 C103.321604,162.410309 105.071764,159.390206 104.997748,154.939689 C104.923731,150.489173 103.173571,147.301791 99.7472676,145.377544 L67.0807656,145.377544 C65.0103456,143.998572 63.9751355,141.644254 63.9751355,138.314591 C63.9751355,134.984927 65.0103456,132.742069 67.0807656,131.586016 L89.3749997,131.586016 C95.0873697,125.648003 97.8939467,118.839735 97.7947305,111.16121 C97.6955144,103.482685 94.8889375,97.7622818 89.3749997,94 L22.3379577,94 C20.1113166,94.8723536 19.0162496,96.7534946 19.0527565,99.6434227 C19.0892635,102.533351 20.1843306,104.680522 22.3379577,106.084937 L52.4310789,106.084937 C54.1001872,107.058869 54.91174,108.932649 54.8657374,111.706278 C54.8197347,114.479907 54.0081819,116.433613 52.4310789,117.567395 L6.45426736,117.567395 C2.34193387,118.46934 0.406322274,121.273871 0.647432576,125.980989 C0.888542877,130.688107 3.13579566,133.46081 7.38919093,134.299096 L27.146646,134.299096 C29.8913442,135.17089 31.1997583,137.124293 31.0718883,140.159307 C30.9440183,143.19432 29.48002,144.933733 26.6798933,145.377544 L6.45426736,145.377544 C2.15142245,146.425094 0,149.563462 0,154.792646 C0,160.021831 2.15142245,163.090949 6.45426736,164 Z"/>
    <polygon fill="#EBEAB6" fill-rule="nonzero" points="212 39 212 37 210 37 210 35 208 35 208 37 206 37 206 39 208 39 208 41 210 41 210 39"/>
    <polygon fill="#EBEAB6" fill-rule="nonzero" points="72 111 70 111 70 114 67 114 67 116 70 116 70 119 72 119 72 116 75 116 75 114 72 114"/>
    <polygon fill="#EBEAB6" fill-rule="nonzero" points="103.75 36 102.25 36 102.25 38.25 100 38.25 100 39.75 102.25 39.75 102.25 42 103.75 42 103.75 39.75 106 39.75 106 38.25 103.75 38.25" transform="rotate(45 103 39)"/>
    <circle cx="274.5" cy="80.5" r="5" stroke="#EDEC99"/>
    <g transform="translate(42)">
      <ellipse cx="38.434" cy="149.233" fill="#F2F2F2" fill-rule="nonzero" rx="31.601" ry="5.062"/>
      <path fill="#008EFF" fill-rule="nonzero" d="M139.384982,26.4621487 C124.052913,25.9274802 109.45081,20.962303 95.5092854,15.5292909 C81.5677607,10.0962788 67.7539107,4.07568825 52.7882126,1.21298377 C43.1654242,-0.638863001 32.1576426,-0.900627808 24.4027908,4.27618896 C16.9449217,9.24415082 14.5302041,17.8434032 13.234028,25.8244451 C12.2570389,31.8283272 11.6825026,38.1468841 14.344243,43.7664733 C16.2010776,47.6650981 19.4956406,50.9510818 21.7743569,54.6881921 C29.7012919,67.6928905 24.0974817,83.730162 15.5071932,96.4313246 C11.4771128,102.387866 6.80310772,108.06872 3.69173021,114.412339 C0.580352702,120.755959 -0.854600172,128.01854 1.86542655,134.487472 C4.56324898,140.892356 10.9886182,145.715511 17.9496662,149.101745 C32.0882541,155.982818 48.7581322,157.951624 64.997802,159.065516 C100.963217,161.535574 137.120143,160.457882 173.179926,159.394115 C186.527486,158.998683 199.930556,158.597682 213.058849,156.528626 C220.350185,155.378531 227.877443,153.551747 233.167618,149.146301 C239.887194,143.554559 241.552516,134.083686 237.05337,127.071731 C229.501133,115.309023 208.620764,112.387839 203.341692,99.7646488 C200.43848,92.8167425 203.422182,85.0779723 207.643775,78.6341025 C216.700354,64.8079082 231.882544,52.6804004 232.684674,36.8798311 C233.239782,26.0193763 225.934567,15.1589216 214.64368,10.0238758 C202.81434,4.64377358 186.410913,5.32046345 177.684623,14.2288211 C168.714086,23.404513 152.921278,26.9327684 139.384982,26.4621487 Z" opacity=".039"/>
      <g fill-rule="nonzero" transform="translate(81.993 81.139)">
        <path fill="#C6E0FF" d="M79.5588117,35.9617906 L8.09788525,35.9617906 C7.34928912,35.9617906 6.74283574,36.5712531 6.74283574,37.3228113 L6.74283574,79.5530081 C6.74283574,80.3047347 7.34928912,80.9140288 8.09788525,80.9140288 L79.5589793,80.9140288 C80.3075755,80.9140288 80.9140288,80.3045663 80.9140288,79.5530081 L80.9140288,37.3229797 C80.9140288,36.5710848 80.3072402,35.9617906 79.5588117,35.9617906 Z"/>
        <path fill="#94C5FF" d="M47.3998199,35.9617906 L40.2570446,35.9617906 C39.8708412,35.9617906 39.5579697,36.5712531 39.5579697,37.3228113 L39.5579697,79.5530081 C39.5579697,80.3047347 39.8708412,80.9140288 40.2570446,80.9140288 L47.3998199,80.9140288 C47.7859369,80.9140288 48.0988949,80.3045663 48.0988949,79.5530081 L48.0988949,37.3229797 C48.0988949,36.5710848 47.7858505,35.9617906 47.3998199,35.9617906 Z"/>
        <path fill="#3792FC" d="M47.3998199,35.9617906 L40.2570446,35.9617906 C39.8708412,35.9617906 39.5579697,36.5682571 39.5579697,37.3161209 L39.5579697,42.7046263 L48.0988949,42.7046263 L48.0988949,37.3161209 C48.0988949,36.5680896 47.7858505,35.9617906 47.3998199,35.9617906 Z"/>
        <path fill="#94C5FF" d="M75.0541857,10.2888232 C73.7677497,6.80943044 71.7380466,3.41120835 69.6246043,1.19821283 C68.8490425,0.386337675 67.8047362,-0.0252414318 66.6159959,0.00119797892 C62.6770055,0.0963461767 56.2582947,5.22643387 47.5382151,15.248823 C47.3204282,15.4989028 47.1998502,15.8240907 47.1998502,16.1612353 L47.1998502,23.362354 C47.1998502,24.1142774 47.7869986,24.723731 48.5117651,24.723731 L68.6924371,24.723731 C73.18904,24.723731 75.0449355,22.4536466 75.8097864,20.549167 C76.8302368,18.0104784 76.5616545,14.3663866 75.0541857,10.2888232 Z"/>
        <path fill="#3792FC" d="M75.7785916,13.438516 C75.7407735,13.3077524 75.6810343,13.1834481 75.6015493,13.0704873 C73.5588695,10.1626511 69.1450278,11.2506674 65.8021413,12.6753606 C56.0900832,16.8144229 52.0793557,22.515874 51.9133577,22.7564476 C51.6431088,23.1482658 51.622359,23.6475307 51.8591406,24.0579394 C52.0957547,24.4683481 52.5519147,24.723731 53.0479009,24.723731 L68.4448908,24.723731 C71.3952052,24.723731 73.5831333,23.8710892 74.9479319,22.1895952 C76.5692578,20.1919053 76.8564077,17.1657516 75.7785916,13.438516 Z"/>
        <path fill="#94C5FF" d="M37.8713579,15.2487246 C29.1511752,5.22640963 22.7323885,0.0963598608 18.7933515,0.00121236648 C17.6015137,-0.0253952514 16.5601162,0.386349215 15.7847075,1.19821837 C13.6714025,3.41102912 11.6415131,6.80939449 10.3552241,10.2887615 C8.84773748,14.3662948 8.57915202,18.0101912 9.59896533,20.5491979 C10.3639876,22.4536634 12.2197427,24.723731 16.7165611,24.723731 L36.8974719,24.723731 C37.6222469,24.723731 38.2094025,24.1141135 38.2094025,23.3623641 L38.2094025,16.1611302 C38.2094025,15.8239881 38.0893098,15.4988026 37.8713579,15.2487246 Z"/>
        <path fill="#3792FC" d="M33.49602 22.7565581C33.3300221 22.5159788 29.3192979 16.8142336 19.6072476 12.6752298 16.2640293 11.2505025 11.8503585 10.1629328 9.80768034 13.0702084 9.72836278 13.1833295 9.66862361 13.3074791 9.63080553 13.4384034 8.55265567 17.1657283 8.84013999 20.1919544 10.4614645 22.1895345 11.8260947 23.8710688 14.014021 24.723731 16.9645004 24.723731L32.3614777 24.723731C32.8574634 24.723731 33.3136231 24.468342 33.5502371 24.0579235 33.786851 23.6476625 33.7661013 23.1483856 33.49602 22.7565581zM48.147925 13.4856715L37.2613277 13.4856715C36.5433994 13.4856715 35.9617906 14.0935789 35.9617906 14.8432195L35.9617906 23.366183C35.9617906 24.1159915 36.5433994 24.723731 37.2613277 24.723731L48.147925 24.723731C48.8658533 24.723731 49.4474621 24.1158236 49.4474621 23.366183L49.4474621 14.8432195C49.4474621 14.093411 48.8658533 13.4856715 48.147925 13.4856715z"/>
        <path fill="#C6E0FF" d="M84.0607206,22.4761191 L1.34853203,22.4761191 C0.603536477,22.4761191 0,23.0697599 0,23.8018074 L0,36.8837142 C0,37.6159258 0.603536477,38.2094025 1.34853203,38.2094025 L84.0607206,38.2094025 C84.8057162,38.2094025 85.4092527,37.6157618 85.4092527,36.8837142 L85.4092527,23.8018074 C85.4092527,23.0695959 84.8057162,22.4761191 84.0607206,22.4761191 Z"/>
        <rect width="12.811" height="15.733" x="37.31" y="22.476" fill="#94C5FF"/>
      </g>
      <g transform="translate(49.75 138.34)">
        <g transform="translate(1.495 4.293)">
          <ellipse cx="12.384" cy="6.963" fill="#8B572A" rx="12.384" ry="5.849"/>
          <ellipse cx="12.384" cy="5.849" fill="#F8E71C" rx="12.384" ry="5.849"/>
          <ellipse cx="12.247" cy="5.849" fill="#FFF573" rx="10.595" ry="5.013"/>
          <ellipse cx="12.66" cy="5.57" fill="#F8E71C" rx="9.357" ry="3.899"/>
        </g>
        <g transform="translate(.64 1.73)">
          <ellipse cx="12.384" cy="6.963" fill="#8B572A" rx="12.384" ry="5.849"/>
          <ellipse cx="12.384" cy="5.849" fill="#F8E71C" rx="12.384" ry="5.849"/>
          <ellipse cx="12.247" cy="5.849" fill="#FFF573" rx="10.595" ry="5.013"/>
          <ellipse cx="12.66" cy="5.57" fill="#F8E71C" rx="9.357" ry="3.899"/>
        </g>
        <g transform="translate(1.495 .022)">
          <ellipse cx="12.384" cy="6.963" fill="#8B572A" rx="12.384" ry="5.849"/>
          <ellipse cx="12.384" cy="5.849" fill="#F8E71C" rx="12.384" ry="5.849"/>
          <ellipse cx="12.247" cy="5.849" fill="#FFF573" rx="10.595" ry="5.013"/>
          <ellipse cx="12.66" cy="5.57" fill="#F8E71C" rx="9.357" ry="3.899"/>
          <ellipse cx="12.66" cy="5.57" fill="#FFF35F" rx="6.055" ry="2.507"/>
        </g>
      </g>
      <g transform="translate(177.865 16.27)">
        <path fill="url(#ill_refer_earn-a)" fill-rule="nonzero" d="M0.000698124,58.6288814 C-0.0121132639,59.9948535 0.150164316,61.2582174 0.590021967,62.2479594 L1.01706823,68.447207 C1.01706823,68.447207 1.1238298,68.3873522 1.31813585,68.2932946 C1.05977286,70.6447333 1.24553798,74.9521416 5.85763763,75.7623191 C5.96093363,75.7352089 6.05758397,75.6871923 6.14162339,75.6212328 C6.45973814,74.9800102 6.74480974,74.3228826 6.99571592,73.6524373 L7.0490967,73.6695386 L6.99571592,73.9346099 L7.33735293,74.0414935 C5.67400773,77.6498831 6.05621414,85.1573857 6.42560916,85.8927447 C6.58148104,86.2005694 6.69891876,87.1069422 6.78646325,88.1351622 C6.94963192,90.13181 6.87796649,92.1407352 6.57294012,94.1206427 C6.35941699,95.4866148 6.29536005,97.1625493 6.99998638,97.8594302 C8.28112517,99.1249318 8.13806467,108.832098 8.13806467,108.832098 C8.22617859,109.050719 8.32523649,109.264758 8.43486183,109.4734 L7.99500417,109.535392 C7.99500417,109.535392 7.99500417,113.334035 8.7060362,116.006124 C9.11600062,117.54311 8.5352177,119.546108 7.9693814,120.969798 C7.18643599,122.885079 7.01415564,124.995872 7.47614296,127.012995 C7.89251307,128.75306 8.75728175,130.488849 10.5572818,131.059608 C14.5437586,132.325109 15.3978511,125.715429 15.3978511,125.715429 C15.3978511,125.715429 15.2547907,120.651285 15.3978511,119.943715 C15.442691,119.729948 15.6476732,119.122849 15.9124419,118.391766 C16.8745687,115.724772 17.2390494,112.878573 16.9800576,110.054847 L16.8156447,108.276304 L16.042691,108.387463 C16.0298796,108.203623 16.0192035,108.011233 16.0085273,107.810291 C15.9978511,107.60935 15.9893102,107.463989 15.9807693,107.282287 C15.9722284,107.100584 15.9636874,106.914607 15.9551465,106.722217 C15.9466056,106.529826 15.9380647,106.335298 15.931659,106.136495 C15.931659,106.036737 15.9281003,105.936266 15.9209828,105.835083 C15.8889544,104.924435 15.8611963,103.951794 15.8377088,102.989842 C15.8377088,102.562308 15.8184917,102.134773 15.812086,101.717927 C15.812086,101.405827 15.8014099,101.095865 15.7971394,100.796591 C15.7971394,100.696833 15.7971394,100.597075 15.7971394,100.497317 C15.7971394,100.005653 15.784328,99.5353648 15.7821928,99.1014174 C15.7821928,99.0144855 15.7821928,98.9289786 15.7821928,98.8448968 C15.7821928,98.6767333 15.7821928,98.5156954 15.7821928,98.3617831 C15.7821928,98.2848269 15.7821928,98.2092958 15.7821928,98.1351899 C15.7821928,97.9876905 15.7821928,97.8487419 15.7821928,97.7076556 C15.7821928,97.5665692 15.7821928,97.451135 15.7821928,97.3378384 C15.7821928,97.2245418 15.7821928,97.1240712 15.7821928,97.021463 C15.7821928,96.4934581 15.8035451,96.2583142 15.8248974,96.4528423 C15.89536,97.0941438 16.1088832,100.954779 15.8248974,96.025308 C15.5942924,92.0513766 19.1686697,82.5772161 20.5544348,79.0735724 C20.9965175,79.3025478 21.4243465,79.5581109 21.8355736,79.8388588 C22.3095949,85.3668775 21.6583494,95.9633156 21.4490967,99.077903 L21.4490967,99.0907291 C21.4320148,99.332286 21.4192035,99.5182634 21.4085273,99.6700381 L21.4085273,99.6956901 L21.3978511,99.8496025 L21.3978511,99.8923559 L21.3978511,99.937247 L21.3978511,99.9607614 C21.3978511,99.9607614 19.5466056,111.504188 19.5466056,114.169864 C19.5466056,116.228442 18.5323707,119.206219 18.0668903,120.46317 C17.390022,120.758168 16.8412675,121.061718 16.8412675,121.061718 L16.984328,131.613265 C16.984328,131.613265 15.4192035,136.818495 21.1117302,138.083996 C26.8042568,139.349498 24.3850398,132.878766 24.3850398,132.878766 L23.9579935,128.235743 L25.9501643,121.061718 L25.3907337,120.948421 C26.5736519,117.164742 29.7423351,106.754282 29.5095949,104.462698 C29.2490967,101.897492 30.5281003,99.1014174 30.75657,98.6268543 L30.75657,98.6268543 L30.7907337,98.5541735 C29.5693814,96.031721 33.2825487,82.7354038 34.9757871,76.9978933 C37.0875309,75.9889123 38.6184917,75.2022492 38.6184917,75.2022492 C38.6184917,75.2022492 38.5757871,75.1231553 38.501054,74.988482 L38.6184917,74.9286272 C37.7089363,73.2203809 36.9769842,71.4231505 36.4341501,69.5652092 L36.5558583,69.4412242 L36.4640433,69.182566 C36.7544348,68.902531 36.9124419,68.7379303 36.9124419,68.7379303 C36.9124419,68.7379303 41.039844,69.4412242 40.0448262,67.4724287 C39.0498084,65.5036332 39.3337942,62.5557841 39.3337942,62.5557841 L39.3337942,51.7434412 L41.325965,52.3997064 C45.073296,53.0174935 45.7437586,48.8276572 45.7249369,45.6147368 C45.7300763,44.3542081 45.6401388,43.0950735 45.4555024,41.8481595 C45.4555024,41.8481595 42.609239,20.0439094 37.6256092,20.7472033 C32.9579935,21.4056061 28.8540789,18.6715242 28.3522995,18.3209461 C28.2910896,18.132831 28.2362853,17.9475661 28.1878867,17.7651514 C28.4668852,17.449027 28.7169977,17.1084853 28.9352177,16.7476198 C29.0910896,16.7476198 29.2490967,16.7262431 29.3985629,16.7091417 C29.3985629,16.6663883 29.3985629,16.6257725 29.3985629,16.5830191 L29.5416234,16.5680554 C29.5109844,15.5817653 29.8771626,14.6244548 30.5579935,13.9109296 C30.8331415,13.6480546 31.1489675,13.4314882 31.4932248,13.2696281 C32.1829045,12.9468397 32.962264,12.8420938 33.6391323,12.495791 C33.8790249,12.3704556 34.0956848,12.2048829 34.2797017,12.0062642 C34.7067479,11.6214833 34.984328,11.0849278 34.8369971,10.5505099 C34.7708049,10.3132283 34.6234739,10.0951858 34.6234739,9.84935358 C34.6234739,9.50732613 34.8903778,9.23370417 35.0505202,8.93229247 C35.5202711,8.04729644 35.0932248,6.93998256 34.5060362,6.12339202 C33.9188476,5.30680147 33.1651109,4.5372397 32.9494526,3.55818612 C32.8619081,3.15630386 32.8683138,2.73304489 32.7359294,2.34185099 C32.3088832,1.07421174 30.673296,0.695843871 29.3195593,0.766387033 C27.9658227,0.836930196 26.5138654,1.12551586 25.3437586,0.458562326 C25.1216959,0.297305452 24.8825237,0.161093951 24.6305914,0.0524047253 C24.3350113,-0.0174682418 24.027239,-0.0174682418 23.731659,0.0524047253 C22.0234739,0.349541075 20.4498084,1.19819669 19.0341501,2.19007631 C18.4629932,2.57305601 17.929618,3.00969232 17.4412675,3.49405597 C17.1188565,3.80040975 16.8323155,4.14250039 16.587175,4.51372532 C16.0106625,5.40513436 15.7330825,6.54237565 16.0939366,7.54066827 C16.2978346,8.09190532 16.6558477,8.57277 17.1252533,8.92587946 C15.9862395,10.4174061 15.496125,12.3057496 15.7657831,14.1637295 C16.0354413,16.0217094 17.0420856,17.6923238 18.5579935,18.7976468 C18.3214753,19.1856903 18.0529218,19.5532283 17.7551465,19.89641 L17.7551465,19.8408306 C17.7551465,19.8408306 13.4142213,22.0212556 11.8469615,21.7390829 C10.3181358,21.4633233 6.3466056,24.0092901 6.42774439,29.1054992 C6.42774439,29.2337595 6.42774439,29.3662951 6.42774439,29.4988308 L3.86546681,37.4531067 C2.8345858,40.6479383 2.30937263,43.9845814 2.30888318,47.3419754 C2.30888318,47.3419754 -0.0441417337,53.7421642 0.000698124,58.6288814 Z M6.88254866,61.9978518 L10.2690255,49.3513867 L10.2690255,52.1175338 L8.13379421,59.7148186 C8.13379421,59.7148186 7.70674795,62.2565101 7.38005755,64.9563893 L6.88254866,61.9978518 Z"/>
        <path fill="#A1616A" fill-rule="nonzero" d="M1.6109552,66.0839793 C1.6109552,66.0839793 -0.449543018,73.7795969 5.72981641,74.8826355 C5.83006748,74.8565222 5.9238445,74.809944 6.00526125,74.7458245 C6.00526125,74.7458245 9.57536801,67.7342617 6.82946054,64.9852161 L1.6109552,66.0839793 Z"/>
        <path fill="#5A5773" fill-rule="nonzero" d="M16.9800576,106.455008 L17.1380647,108.192935 C17.3874103,110.954355 17.0340529,113.737034 16.1024775,116.348152 C15.848385,117.064272 15.6498084,117.654269 15.6071038,117.865899 C15.470449,118.554229 15.6071038,123.502939 15.6071038,123.502939 C15.6071038,123.502939 14.7829045,129.96512 10.9373529,128.727408 C9.20781556,128.171613 8.37507535,126.472164 7.96511094,124.772715 C7.51997701,122.801979 7.68609243,120.742181 8.44126752,118.868467 C8.98788674,117.476842 9.54731734,115.520873 9.15229955,114.01809 C8.46475506,111.405855 8.46475506,107.694857 8.46475506,107.694857 L16.9800576,106.455008 Z"/>
        <path fill="#605D82" fill-rule="nonzero" d="M21.0989188,76.6238008 C21.0989188,76.6238008 15.7437586,89.6849741 16.0192035,94.4947352 C16.2946483,99.3044962 16.0875309,95.5250929 16.0192035,94.9073058 C15.8974953,93.8064049 16.0192035,106.878267 16.4313031,108.374637 C16.4313031,108.374637 10.8006981,112.498205 8.6035451,107.000114 C8.6035451,107.000114 8.7401999,97.5152651 7.5060362,96.2775533 C6.82703264,95.5977737 6.89322481,93.9603173 7.09393656,92.6242725 C7.39018334,90.6916391 7.46183517,88.7311566 7.30745969,86.7820161 C7.22418567,85.7773105 7.10888318,84.8923144 6.95941699,84.5909027 C6.54731734,83.7657615 6.1352177,74.4177237 8.60781556,71.805489 L21.0989188,76.6238008 Z"/>
        <path fill="#000" fill-rule="nonzero" d="M15.7437586,108.38105 C15.331659,106.869716 15.2099508,93.8064049 15.331659,94.9137188 C15.3999864,95.5315059 15.6071038,99.3130469 15.331659,94.5011482 C15.0562141,89.6892495 20.4113743,76.6302138 20.4113743,76.6302138 L8.43059136,72.0171185 C8.48610738,71.9465753 8.54375862,71.8803075 8.60140987,71.818315 L21.0967835,76.6302138 C21.0967835,76.6302138 15.7416234,89.6913871 16.0170682,94.5011482 C16.2925131,99.3109092 16.0853956,95.5315059 16.0170682,94.9137188 C15.89536,93.8128179 16.0170682,106.88468 16.4291679,108.38105 C16.4291679,108.38105 14.1807693,110.027057 11.9708049,109.851768 C13.9373529,109.702131 15.7437586,108.38105 15.7437586,108.38105 Z"/>
        <path fill="#5A5773" fill-rule="nonzero" d="M25.7665344,118.966799 L23.8448262,125.978362 L24.2569259,130.514501 C24.2569259,130.514501 26.5907337,136.837734 21.0989188,135.600022 C15.6071038,134.36231 17.1167124,129.276789 17.1167124,129.276789 L16.9800576,118.966799 C16.9800576,118.966799 19.1772106,117.729088 20.1380647,117.868036 C21.0989188,118.006985 25.7665344,118.966799 25.7665344,118.966799 Z"/>
        <path fill="#605D82" fill-rule="nonzero" d="M35.242691,73.3253735 C35.242691,73.3253735 28.9266768,93.8085426 30.4362853,96.9744342 C30.4362853,96.9744342 28.9266768,99.9992395 29.1999864,102.746147 C29.473296,105.493055 24.8056803,120.204511 24.8056803,120.204511 L17.9387764,118.966799 C17.9387764,118.966799 19.587175,114.843231 19.587175,112.230996 C19.587175,109.618762 21.3722284,98.336131 21.3722284,98.336131 C21.3722284,98.336131 22.8818369,77.7140133 21.0967835,75.5143492 L35.242691,73.3253735 Z"/>
        <path fill="#000" fill-rule="nonzero" d="M21.6305914 77.1838707C22.7686697 81.8525454 21.5110184 99.0330119 21.5110184 99.0330119 21.5110184 99.0330119 19.725965 110.304954 19.725965 112.927877 19.725965 114.922325 18.7672462 117.795355 18.3124419 119.043756L17.9409116 118.977488C17.9409116 118.977488 19.5893102 114.853919 19.5893102 112.241685 19.5893102 109.62945 21.3743636 98.3468194 21.3743636 98.3468194 21.3743636 98.3468194 22.5231181 82.6520346 21.6305914 77.1838707zM30.4362853 96.9744342L30.4021216 97.0449774C30.3914455 96.9744342 30.3807693 96.8996157 30.3743636 96.8312102 30.3925407 96.8799817 30.4132085 96.927786 30.4362853 96.9744342zM21.4085273 76.1855781C21.3461382 75.9484415 21.2412317 75.7246266 21.0989188 75.5250376L35.242691 73.3253735C35.242691 73.3253735 35.159417 73.5925825 35.0163565 74.0692832L21.4085273 76.1855781z"/>
        <path fill="#A1616A" fill-rule="nonzero" d="M27.553723,14.7595852 C27.553723,14.7595852 27.1416234,20.5312985 31.6725842,23.2824818 C36.2035451,26.0336651 22.0640433,33.5924718 22.0640433,33.5924718 L14.6441145,21.771148 C14.6441145,21.771148 17.7978511,22.1837186 19.7195593,16.6856273 L27.553723,14.7595852 Z"/>
        <path fill="#000" fill-rule="nonzero" d="M30.5729401,23.6950524 C30.5729401,23.6950524 23.5693814,38.2675596 17.2533672,24.5201936 L7.50390097,72.9128029 C7.50390097,72.9128029 22.6085273,77.5878906 22.7451821,79.7875547 C22.8818369,81.9872188 37.9864632,74.1505147 37.9864632,74.1505147 C37.9864632,74.1505147 34.6918013,68.1009042 35.5138654,64.3899063 C36.3359294,60.6789084 30.5729401,23.6950524 30.5729401,23.6950524 Z"/>
        <path fill="#E1E7EF" fill-rule="nonzero" d="M30.5729401,23.4214304 C30.5729401,23.4214304 23.5693814,37.9939376 17.2533672,24.2465717 L7.50390097,72.6370433 C7.50390097,72.6370433 22.6085273,77.3078557 22.7473173,79.5096574 C22.8861074,81.7114591 37.9885985,73.8726174 37.9885985,73.8726174 C37.9885985,73.8726174 34.6939366,67.8230069 35.5160006,64.112009 C36.3380647,60.4010111 30.5729401,23.4214304 30.5729401,23.4214304 Z"/>
        <path fill="#5A5773" fill-rule="nonzero" d="M23.7081714 122.814608C23.7081714 122.814608 25.4932248 118.827851 21.3743636 118.827851 17.2555024 118.827851 17.9409116 122.412726 17.9409116 122.412726L23.7081714 122.814608zM14.3708049 112.504618C14.3708049 112.504618 16.0192035 108.242101 11.898207 108.10529 7.77721058 107.968479 9.8377088 111.953099 9.8377088 111.953099L14.3708049 112.504618z"/>
        <path fill="#000" fill-rule="nonzero" d="M17.8725842,20.3282197 C17.8725842,20.3282197 13.6853956,22.4658913 12.1736519,22.1837186 C10.6619081,21.901546 6.68183691,24.5201936 6.95514652,29.744663 L4.47400773,37.5471643 C3.48148566,40.6723184 2.97731566,43.9322578 2.97934581,47.2115775 L2.97934581,47.2115775 C2.97934581,47.2115775 -0.590760951,57.1089969 1.33094723,61.508325 L1.74304688,67.5579356 C1.74304688,67.5579356 4.8946483,65.7644291 8.18931022,66.3138107 L7.36511094,61.365101 L11.0718725,47.3419754 L17.2512319,32.3568977 L17.8725842,20.3282197 Z"/>
        <path fill="#67647E" fill-rule="nonzero" d="M17.8725842,20.05246 C17.8725842,20.05246 13.6853956,22.1901316 12.1736519,21.907959 C10.6619081,21.6257863 6.68183691,24.244434 6.95514652,29.4689034 L4.47400773,37.2649916 C3.48148566,40.3901458 2.97731566,43.6500852 2.97934581,46.9294048 L2.97934581,46.9294048 C2.97934581,46.9294048 -0.590760951,56.8268242 1.33094723,61.2261524 L1.74304688,67.2757629 C1.74304688,67.2757629 4.901054,65.4886695 8.19785115,66.0380511 L7.37365186,61.0893414 L11.0804134,47.0662158 L17.2597729,32.081138 L17.8725842,20.05246 Z"/>
        <path fill="#000" fill-rule="nonzero" d="M10.9373529,36.7562258 L10.9373529,52.2970982 L8.87685471,59.7212316 C8.87685471,59.7212316 7.50390097,67.8315575 7.91600062,70.3069812 C8.32810026,72.7824049 14.9195593,73.3317865 16.7046127,71.2689334 C18.4896661,69.2060804 17.528812,51.6023549 17.528812,51.6023549 L17.8725842,25.826311 L17.5971394,25.0011697 L10.9373529,36.7562258 Z"/>
        <path fill="#67647E" fill-rule="nonzero" d="M10.6619081,36.0678955 L10.6619081,51.6023549 L8.60140987,59.0264883 C8.60140987,59.0264883 7.22845613,67.1368143 7.64055578,69.612238 C8.05265542,72.0876617 14.6441145,72.6370433 16.4291679,70.5741902 C18.2142213,68.5113371 17.2533672,50.9076116 17.2533672,50.9076116 L17.5971394,25.1486691 L10.6619081,36.0678955 Z"/>
        <path fill="#000" fill-rule="nonzero" d="M38.3323707,48.9922579 L33.9380647,62.673356 L35.9985629,68.5156125 C35.9985629,68.5156125 26.2490967,78.8256025 20.0697373,73.8768928 C20.0697373,73.8768928 19.3821928,52.8422044 20.7572818,47.8934947 C22.1323707,42.944785 28.7216946,26.3030117 28.7216946,26.3030117 L30.0946483,21.9036836 L37.3715166,26.0272521 L38.3323707,48.9922579 Z"/>
        <path fill="#67647E" fill-rule="nonzero" d="M38.676143,48.3039277 L38.676143,61.7712586 C38.676143,61.7712586 38.4006981,64.6592529 39.3636874,66.5831573 C40.3266768,68.5070618 36.3423351,67.8208692 36.3423351,67.8208692 C36.3423351,67.8208692 26.5928689,78.1308592 20.4135095,73.1821495 C20.4135095,73.1821495 19.725965,52.1474612 21.101054,47.1987514 C22.476143,42.2500417 29.0654668,25.6082685 29.0654668,25.6082685 L30.4384205,21.2089404 L37.7152889,25.3325088 L38.676143,48.3039277 Z"/>
        <path fill="#000" fill-rule="nonzero" d="M28.0341501,18.8147482 C28.0341501,18.8147482 32.2213387,21.907959 37.0277444,21.2196287 C41.8341501,20.5312985 44.5800576,41.8417465 44.5800576,41.8417465 C44.5800576,41.8417465 46.3651109,52.8400667 40.5978511,51.8781145 L27.8334383,47.6155974 C27.8334383,47.6155974 30.5793458,44.7276031 30.1672462,41.0166052 L36.3466056,43.4920289 L36.0711608,31.6685674 L28.0341501,18.8147482 Z"/>
        <path fill="#000" fill-rule="nonzero" d="M44.3046127,41.5681245 C44.3046127,41.5681245 46.0896661,52.5664448 40.3224063,51.6044926 L27.5515878,47.3419754 C27.5515878,47.3419754 30.2974953,44.4539811 29.8853956,40.7429833 L36.0647551,43.218407 L44.3046127,41.5681245 Z"/>
        <g transform="translate(19.217 32.92)">
          <path fill="#454545" d="M4.68143213,0.301211949 L9.0564331,1.88844348 C9.47346499,2.03974085 9.7052347,2.48512765 9.58984347,2.91348656 L6.82175003,13.1892889 C6.69905666,13.644755 6.2303658,13.9145206 5.77489969,13.7918273 C5.75748197,13.7871353 5.74021726,13.7818927 5.72313154,13.7761073 L0.79934854,12.1088815 C0.356341228,11.9588763 0.116385597,11.4804568 0.261077445,11.0356857 L3.57795291,0.839877663 C3.72387835,0.391314619 4.20580648,0.145978365 4.65436953,0.291903803 C4.66344175,0.294855156 4.67246388,0.297958307 4.68143213,0.301211949 Z"/>
          <ellipse cx="5.979" cy="3.848" fill="#B6B4B4" rx="1" ry="1"/>
          <ellipse cx="4.27" cy="1.069" fill="#929292" rx="1" ry="1"/>
          <ellipse cx="4.804" cy="1.389" fill="#929292" rx="1" ry="1" transform="rotate(180 4.804 1.39)"/>
        </g>
        <path fill="#A1616A" fill-rule="nonzero" d="M30.1821928,42.1923246 C30.1821928,42.1923246 25.9117302,36.5510093 22.7494526,39.2573015 C19.587175,41.9635937 29.0590611,46.9294048 29.0590611,46.9294048 L30.1821928,42.1923246 Z"/>
        <path fill="#67647E" fill-rule="nonzero" d="M28.0341501,18.5411262 C28.0341501,18.5411262 32.2213387,21.634337 37.0277444,20.9460068 C41.8341501,20.2576765 44.5800576,41.5681245 44.5800576,41.5681245 C44.5800576,41.5681245 46.3651109,52.5664448 40.5978511,51.6044926 L27.8334383,47.3419754 C27.8334383,47.3419754 30.5793458,44.4539811 30.1672462,40.7429833 L36.3466056,43.218407 L36.0711608,31.3949454 L29.067602,25.6232322 L28.0341501,18.5411262 Z"/>
        <path fill="#000" fill-rule="nonzero" d="M19.587175,16.9592493 L27.414933,15.0353448 C27.414933,15.0353448 27.0071038,15.4970819 27.4832604,17.3034144 C26.2234739,18.750618 24.6754312,20.6723968 22.6085273,20.6723968 C21.1293956,20.6751609 19.6893042,20.1973323 18.5046127,19.310688 C18.946701,18.5669802 19.3095454,17.7788441 19.587175,16.9592493 Z"/>
        <ellipse cx="22.745" cy="13.522" fill="#A1616A" fill-rule="nonzero" rx="6.867" ry="6.875"/>
        <path fill="#000" fill-rule="nonzero" d="M20.1466056,10.5398215 C18.553723,10.2683372 16.8028334,9.56076792 16.2690255,8.03447041 C15.9273885,7.0575545 16.1878867,5.94596527 16.7451821,5.07593294 C17.3024775,4.20590061 18.1224063,3.5368094 18.9679579,2.93826136 C20.3409116,1.97203381 21.8547907,1.14261723 23.5074597,0.851893897 C23.7924122,0.783688149 24.0894111,0.783688149 24.3743636,0.851893897 C24.6221684,0.953439559 24.8578069,1.08250764 25.0768547,1.23667478 C26.2063921,1.88866461 27.6113743,1.60649196 28.9202711,1.53808647 C30.2291679,1.46968098 31.7985629,1.83949817 32.2106625,3.07721001 C32.3387764,3.45985323 32.3302355,3.87242384 32.4241857,4.26575541 C32.6377088,5.22770762 33.3615522,5.97589268 33.9188476,6.77751952 C34.476143,7.57914636 34.9053245,8.66294585 34.4355736,9.52656517 C34.2754312,9.81942618 34.0085273,10.0887728 34.0085273,10.4222496 C34.0497328,10.6592693 34.1215073,10.8899288 34.2220504,11.1084421 C34.4163565,11.8181491 33.8505202,12.5342691 33.1971394,12.8720212 C32.5437586,13.2097733 31.7921572,13.3145192 31.125965,13.6287569 C29.8526048,14.2578299 29.0625486,15.5724758 29.103901,16.993452 C28.4974953,17.0639952 27.7907337,17.1003356 27.3807693,16.6471492 C27.1971394,16.4440704 27.1074597,16.1725861 26.9409116,15.9566813 C26.7273885,15.6745086 26.3942924,15.5077703 26.1209828,15.2811771 C24.6839721,14.0990447 25.7046127,12.4658636 24.8910896,11.1918113 C24.4640433,10.5355462 23.7850398,10.7364873 23.0974953,10.7471756 C22.1095592,10.7703175 21.1216265,10.7008971 20.1466056,10.5398215 Z"/>
        <path fill="#4A4347" fill-rule="nonzero" d="M20.2811252,10.3987352 C18.6882426,10.1272509 16.9373529,9.41968159 16.4035451,7.89338408 C16.0619081,6.91646817 16.3224063,5.80487895 16.8797017,4.93484662 C17.4369971,4.06481428 18.2569259,3.39572308 19.1024775,2.79717504 C20.4754312,1.83094748 21.9893102,1.00153091 23.6419793,0.710807572 C23.9269317,0.642601824 24.2239307,0.642601824 24.5088832,0.710807572 C24.756688,0.812353235 24.9923265,0.941421317 25.2113743,1.09558846 C26.3409116,1.74757829 27.7458939,1.46540564 29.0547907,1.39700015 C30.3636874,1.32859466 31.9330825,1.69841184 32.3451821,2.93612369 C32.473296,3.3187669 32.4647551,3.73133752 32.5587052,4.12466909 C32.7722284,5.0866213 33.4960718,5.83480635 34.0533672,6.6364332 C34.6106625,7.43806004 35.039844,8.52185953 34.5700931,9.38547885 C34.4099508,9.67833985 34.1430469,9.94768647 34.1430469,10.2811632 C34.1842524,10.518183 34.2560269,10.7488424 34.35657,10.9673558 C34.5508761,11.6770628 33.9850398,12.3931828 33.331659,12.7309349 C32.6782782,13.068687 31.9266768,13.1734329 31.2604846,13.4876706 C29.9871244,14.1167436 29.1970682,15.4313895 29.2384205,16.8523657 C28.6320148,16.9229088 27.9252533,16.9592493 27.5152889,16.5060629 C27.331659,16.3029841 27.2419793,16.0314998 27.0754312,15.815595 C26.8619081,15.5334223 26.528812,15.3666839 26.2555024,15.1400907 C24.8184917,13.9579584 25.8391323,12.3247773 25.0256092,11.050725 C24.5985629,10.3944598 23.9195593,10.595401 23.2320148,10.6060893 C22.2440788,10.6292312 21.2561461,10.5598108 20.2811252,10.3987352 L20.2811252,10.3987352 Z"/>
        <path fill="#000" fill-rule="nonzero" d="M36.3743636,36.8246313 C36.3743636,36.8246313 37.0320148,42.0491006 35.9366412,43.1478638"/>
      </g>
      <g transform="matrix(-1 0 0 1 188.557 24.296)">
        <path stroke="#3F3D56" stroke-width=".5" d="M125.781566,13.991581 C125.781566,10.1744246 98.7101727,-2.10618024 67.7157593,0.899599416 C39.8033986,3.60648743 22.02639,13.6761985 0.40087524,27.8723734"/>
        <polygon fill="#3F3D56" fill-rule="nonzero" points="4.226 25.395 4.555 25.948 1.369 25.762 3.217 28.489 2.596 28.491 .345 25.17" transform="rotate(-70 2.45 26.83)"/>
      </g>
      <path fill="#68AEFF" fill-rule="nonzero" d="M21.4533779,143.271255 C21.4533779,148.074296 18.601469,149.75134 15.0831544,149.75134 C15.0016512,149.75134 14.9202769,149.750432 14.8390313,149.748618 C14.6760171,149.745121 14.5145573,149.737351 14.3550406,149.72647 C11.1798299,149.501493 8.7129331,147.738187 8.7129331,143.271255 C8.7129331,138.648509 14.6135295,132.815386 15.0567609,132.38369 L15.0575381,132.382914 C15.0746199,132.366206 15.0831609,132.358044 15.0831609,132.358044 C15.0831609,132.358044 21.4533779,138.468215 21.4533779,143.271255 Z"/>
      <path fill="#3F3D56" fill-rule="nonzero" d="M14.8510591,149.016562 L17.1809445,145.757299 L14.8452363,149.374432 L14.8390313,149.748618 C14.6760171,149.745121 14.5145573,149.737351 14.3550406,149.72647 L14.6061587,144.9211 L14.6042157,144.883795 L14.6084861,144.876803 L14.6321616,144.42296 L12.2906242,140.796879 L14.6395302,144.082577 L14.6449708,144.178941 L14.8347566,140.5482 L12.8301181,136.801274 L14.8592093,139.910945 L15.0567609,132.383681 L15.0575381,132.358029 L15.0575381,132.382899 L15.0245552,138.318629 L17.0202726,135.965481 L15.0163986,138.82996 L14.9636157,142.080686 L16.8269829,138.960906 L14.9558541,142.559011 L14.926358,144.36622 L17.6315552,140.024017 L14.9162669,144.996861 L14.8510591,149.016562 Z"/>
      <path fill="#2F2E41" fill-rule="nonzero" d="M51.8377025,142.026915 L53.2003644,141.0134 C53.2003644,141.0134 54.1023609,146.057576 53.095847,146.81333 C52.0893331,147.569085 48.3149018,148.828661 48.3149018,150.340159 C48.3149018,151.851657 39.7595253,153.866986 39.5078968,151.599739 C39.2562683,149.332493 40.2627822,148.072913 40.2627822,148.072913 C40.2627822,148.072913 44.288842,144.042252 44.7920989,143.286503 C45.2953559,142.530755 46.5535004,141.019257 46.5535004,141.019257 L51.8377025,142.026915 Z"/>
      <path fill="#2F2E41" fill-rule="nonzero" d="M31.7074078 79.2997638C31.7074078 79.2997638 31.7451566 79.521451 31.8105523 79.9270314 31.8709794 80.2872719 31.9539972 80.7961467 32.0546562 81.4234165 33.1115146 87.8800398 36.1939665 106.887117 35.985094 107.514386 35.7334655 108.270135 33.9720662 111.041213 35.985094 111.796964 36.1788534 111.870012 36.387694 112.106815 36.6116477 112.479646 37.0438951 113.282667 37.4002394 114.124372 37.6760327 114.993781 38.876306 118.480293 40.1596377 124.060245 40.9019295 127.924631 41.2265402 129.62256 41.4479445 130.987942 41.5133701 131.703376 41.5361157 131.86872 41.5386532 132.036222 41.5209267 132.20218 41.2692982 133.209847 43.0306975 136.736673 43.7855851 137.744338 44.5404726 138.752002 45.7986149 139.759668 45.5469843 140.767334 45.2953537 141.775001 51.8377025 144.546077 52.5925879 142.782665 53.3474733 141.019253 53.3474754 140.011584 53.5991039 139.507752 53.8507324 139.00392 54.1023609 135.477093 52.8442185 134.973259 51.5860762 134.469425 52.3409594 125.652357 51.0828171 123.888944 50.6626164 123.301974 50.0209516 121.314352 49.3490904 118.923668 49.0849004 117.986547 48.8181587 116.988953 48.5564541 115.988858 47.4945886 111.890177 46.5535004 107.766305 46.5535004 107.766305L46.8051246 78.2920975 32.9655459 76.5286852 32.6107708 77.3121418 31.9036804 78.866462 31.7074078 79.2997638zM30.9525267 127.667681C30.9525267 127.667681 28.9394968 125.65235 27.9329829 127.667681 26.926469 129.683011 25.919953 137.492419 24.1585516 139.25583 22.3971502 141.01924 20.132494 149.836314 22.6487808 150.340146 25.1650676 150.843978 27.9329829 149.584396 28.1846114 148.0729 28.4362399 146.561403 33.720427 138.752004 33.720427 137.996256 33.720427 137.240508 30.1976263 134.469427 30.1976263 134.469427L30.9525267 127.667681z"/>
      <path fill="#2F2E41" fill-rule="nonzero" d="M61.9028498,65.4443685 C61.9028498,65.4443685 58.6316754,94.9185714 57.8767922,97.6896479 C57.1219089,100.460724 53.095847,111.041209 51.8377025,112.804623 C50.579558,114.568038 42.5274406,128.927265 41.5209267,129.683013 C40.5144128,130.438762 38.5013808,132.454092 38.5013808,132.454092 C38.5013808,132.454092 34.7269516,136.232837 34.2236947,136.988585 C33.7204377,137.744333 29.4427495,135.477089 29.191121,133.96559 C28.9394925,132.454092 29.4427495,129.934929 29.6943779,128.927265 C29.9460064,127.919601 29.191121,126.408103 29.9460064,125.652352 C30.7008918,124.896602 34.4753231,121.117859 34.4753231,119.354447 C34.4753231,117.591035 41.0176719,107.262466 43.5339566,104.99522 C46.0502413,102.727973 45.5469843,98.9492281 45.5469843,98.9492281 L45.5469843,83.5823408 L31.7074078,79.2997638 C31.7074078,79.2997638 32.4622932,67.2077829 34.2236947,67.2077829 C35.9850961,67.2077829 59.1349345,63.1771219 61.9028498,65.4443685 Z"/>
      <ellipse cx="41.521" cy="15.061" fill="#9F616A" fill-rule="nonzero" rx="8.304" ry="8.313"/>
      <path fill="#9F616A" fill-rule="nonzero" d="M44.288842,21.610936 C44.288842,21.610936 45.2953559,25.389681 46.5535004,26.3973473 C47.8116448,27.4050136 43.282326,31.6875885 43.282326,31.6875885 L34.7269516,32.1914206 L33.2171786,27.4050115 C33.2171786,27.4050115 35.985094,21.8628542 35.2302085,18.3360253 C34.4753231,14.8091964 44.288842,21.610936 44.288842,21.610936 Z"/>
      <path fill="#68AEFF" fill-rule="nonzero" d="M47.8116427,25.893513 C47.8116427,25.893513 45.5469843,26.1454291 45.0437274,26.9011794 C44.5404705,27.6569296 41.0176698,29.924174 38.2497523,29.420342 C35.4818349,28.9165099 33.7204356,28.1607596 33.2171786,28.4126756 C32.7139217,28.6645917 31.7074078,33.954835 31.7074078,33.954835 L34.4753231,42.0161549 L33.9720662,64.1847861 L33.2171786,70.2307776 C33.2171786,70.2307776 31.7074078,68.2154471 37.7464954,69.4750295 C43.7855829,70.7346118 51.586074,68.4673632 54.1023673,68.2154471 C56.6186605,67.9635311 60.8963423,67.2077829 61.1479708,65.6962845 C61.3995993,64.1847861 60.3930854,58.6426288 60.3930854,58.6426288 L56.3670256,41.7642389 L53.8507388,32.6952527 L47.8116427,25.893513 Z"/>
      <path fill="#C6E0FF" fill-rule="nonzero" d="M45.4315132 24.7565133C45.4315132 24.7565133 47.5600142 23.6262665 48.3149018 24.6339328 49.0697893 25.6415991 58.6316776 27.1530954 58.6316776 27.9088457 58.6316776 28.664596 60.6447075 49.0698127 60.1414505 50.8332357 59.6381936 52.5966587 61.1479644 54.6119785 61.1479644 54.6119785L62.9093658 62.1694684C62.9093658 62.1694684 67.690311 76.5286958 65.6772811 77.0325279 63.6642512 77.53636 61.9028498 77.0325279 61.1479644 77.0325279 60.393079 77.0325279 60.6447075 67.4597097 58.6316776 64.9405471 56.6186477 62.4213845 53.8507324 56.1234769 53.3474754 54.8638967 52.8442185 53.6043165 46.5535004 36.2220923 46.8051267 34.2067618 47.056753 32.1914313 45.4315132 24.7565133 45.4315132 24.7565133zM34.9785801 25.893513C34.9785801 25.893513 32.9655502 25.893513 32.7139217 26.3973473 32.4622932 26.9011815 29.9460064 30.1760901 28.9394904 30.9318425 27.9329744 31.6875949 24.4101779 34.9624992 24.4101779 35.7182474 24.4101779 36.4739955 31.70741 42.0161549 31.70741 42.0161549 31.70741 42.0161549 34.7269537 56.8792144 33.2171808 61.9175396 31.7074078 66.9558647 29.4427516 79.0478477 30.4492655 79.8035959 31.4557794 80.559344 33.7204399 80.8112601 33.7204399 79.8035959 33.7204399 78.7959317 35.2302128 67.9635311 36.4883573 65.6962845 37.7465018 63.429038 41.520931 49.0698106 40.011158 45.0391496 38.5013851 41.0084886 34.9785801 25.893513 34.9785801 25.893513z"/>
      <path fill="#9F616A" fill-rule="nonzero" d="M68.193568,50.833225 C68.193568,50.833225 68.4451964,58.6426288 65.6772811,62.6732898 C62.9093658,66.7039508 61.1479644,71.2384418 61.1479644,71.2384418 C61.1479644,71.2384418 56.6186477,69.9788616 55.8637623,68.4673632 C55.1088769,66.9558647 50.3279295,68.2154471 50.3279295,67.711615 C50.3279295,67.2077829 56.1153907,64.6886203 56.6186477,64.1847861 C57.1219046,63.6809519 58.883306,63.680954 59.8898221,62.6732898 C60.8963381,61.6656257 61.1479665,59.398377 61.1479665,59.398377 L62.1544804,52.8485513 L68.193568,50.833225 Z"/>
      <path fill="#2F2E41" fill-rule="nonzero" d="M47.2401075,9.93534578 C47.878926,9.87725242 48.5377665,9.81332963 49.1023473,9.50850621 C50.3673822,8.8255009 50.7028377,6.88048056 49.7398249,5.81232669 C49.4742999,5.5405432 49.1773136,5.30146863 48.8551708,5.1001785 L46.9424669,3.79680166 C46.0965181,3.22034859 45.230573,2.63444701 44.2439189,2.36269765 C43.3515117,2.11691031 42.4089779,2.1421669 41.4852,2.19965316 C39.6919004,2.31123962 37.8874996,2.54174047 36.2007907,3.16160538 C34.5140819,3.78147028 32.9406769,4.8184911 31.9191267,6.29828143 C30.2996541,8.64420498 30.2773943,11.8081 31.1693509,14.5163461 C32.0613075,17.2245921 33.7556242,19.582927 35.4251018,21.8934507 L36.291348,17.6619725 C36.3685046,17.2850818 36.4682819,16.872011 36.7813836,16.6489514 C37.5595772,16.0945526 38.5114911,17.2328435 39.4665758,17.2254643 C40.0802584,17.2207229 40.5954854,16.7153902 40.8280527,16.1468144 C41.0606199,15.5782387 41.0759317,14.9485875 41.1297395,14.3365529 C41.2437053,13.040224 41.6962911,11.2364888 42.9225203,10.5215552 C44.0651701,9.85535839 45.9557295,10.0521353 47.2401075,9.93534578 Z"/>
      <path fill="#000" fill-rule="nonzero" d="M46.7742918,79.503082 C46.7742918,79.503082 45.9244292,104.113516 45.4211701,104.869266 C44.917911,105.625016 45.4211701,79.4257218 45.4211701,79.4257218 L46.7742918,79.503082 Z" opacity=".1"/>
      <path fill="#C6E0FF" fill-rule="nonzero" d="M56.6186477,27.9088435 L58.6316776,27.9088435 C58.6316776,27.9088435 67.1870541,39.4969923 66.1805381,40.2527404 C65.1740221,41.0084886 66.1805381,43.0238212 66.1805381,43.0238212 L68.193568,46.802564 C68.193568,46.802564 70.7098548,49.0698106 69.9549694,49.5736427 C69.200084,50.0774748 68.193568,52.0928053 68.193568,52.0928053 C68.193568,52.0928053 63.1609943,51.3370571 61.6512192,54.3600518 L58.3876441,50.2352798 L56.6186477,27.9088435 Z"/>
      <polygon fill="#2F2E41" fill-rule="nonzero" points="52.8 32.539 60.274 32.536 60.269 46.476 52.794 46.479" transform="rotate(-22.438 56.534 39.508)"/>
      <ellipse cx="55.303" cy="36.392" fill="#4F2DA7" fill-rule="nonzero" rx="1.495" ry="1.374" transform="rotate(-22.438 55.303 36.392)"/>
      <path fill="#9F616A" fill-rule="nonzero" d="M51.586074,48.0621464 C51.586074,48.0621464 33.4688071,63.1771219 30.4492633,58.3907128 C27.4297196,53.6043037 33.7204377,49.5736427 33.7204377,49.5736427 C33.7204377,49.5736427 39.2562705,49.8255587 45.5469865,45.7948999 L51.8377046,43.0238212 C51.8377046,43.0238212 57.5806335,34.8153761 59.5376498,37.9410795 C61.4946662,41.0667829 56.1970591,46.5068108 51.586074,48.0621464 Z"/>
      <path fill="#C6E0FF" fill-rule="nonzero" d="M27.1780911,34.7105832 L24.4101779,35.7182474 L24.4101779,43.2757373 L23.4036619,44.7872335 C23.4036619,44.7872335 23.6552904,47.8102304 24.4101779,48.5659785 C25.1650655,49.3217266 26.6748342,49.0698106 26.1715772,50.833225 C25.8691171,51.9828987 25.7837781,53.1790116 25.9199488,54.3600518 C25.9199488,54.3600518 30.4492655,60.1541273 30.700894,59.398377 C30.9525224,58.6426267 34.4753253,49.3217266 34.9785822,49.3217266 C35.4818391,49.3217266 29.9460085,34.7105832 29.9460085,34.7105832 L27.1780911,34.7105832 Z"/>
      <path fill="#2F2E41" fill-rule="nonzero" d="M60.2672648,72.8758982 C60.2672648,72.8758982 62.8690441,70.3567356 61.5681566,70.2307776 C60.267269,70.1048196 55.737948,67.585657 54.9830605,68.8452372 C54.228173,70.1048174 60.2672648,72.8758982 60.2672648,72.8758982 Z"/>
    </g>
  </g>
</svg>
