<svg width="285" height="134" viewBox="0 0 285 134" fill="none" xmlns="http://www.w3.org/2000/svg">
<path fill-rule="evenodd" clip-rule="evenodd" d="M0 6C0 2.68629 2.68629 0 6 0H279C282.314 0 285 2.68629 285 6V133.594H0V6Z" fill="white"/>
<mask id="mask0" mask-type="alpha" maskUnits="userSpaceOnUse" x="0" y="0" width="285" height="134">
<path fill-rule="evenodd" clip-rule="evenodd" d="M0 6C0 2.68629 2.68629 0 6 0H279C282.314 0 285 2.68629 285 6V133.594H0V6Z" fill="white"/>
</mask>
<g mask="url(#mask0)">
<path opacity="0.05" d="M239.202 -1.78135C229.405 -1.78135 212.483 -1.78135 208.921 8.01553C205.358 17.8124 234.979 17.2378 241.874 24.133C248.769 31.0281 259.887 30.2812 270.374 30.2812C280.861 30.2812 278.874 41.8398 287.296 40.078C295.718 38.3163 288.187 29.488 290.858 24.133C290.858 19.141 290.858 -1.78135 290.858 -1.78135C290.858 -1.78135 255.679 -1.78135 239.202 -1.78135Z" fill="#3792FC"/>
<path opacity="0.05" d="M39.4885 79.7712C93.9556 60.4051 118.163 103.979 118.163 79.7712C118.163 55.5636 89.114 43.4598 74.5895 28.9353C60.0649 14.4107 66.4213 -9.79688 44.33 -9.79688C22.2388 -9.79688 33.3685 3.77298 9.22903 14.4107C-14.9104 25.0484 -14.9785 99.1372 39.4885 79.7712Z" fill="#3792FC"/>
<path opacity="0.05" d="M182.816 117.775C132.86 100.013 110.657 139.977 110.657 117.775C110.657 95.5722 137.301 84.4708 150.622 71.1493C163.944 57.8277 158.114 35.625 178.375 35.625C198.637 35.625 188.429 48.071 210.569 57.8277C232.709 67.5843 254.975 42.2858 254.975 71.1493C254.975 100.013 232.772 135.537 182.816 117.775Z" fill="#3792FC"/>
<path opacity="0.1" d="M275.211 85.2879C275.289 84.7781 275.274 84.2943 275.557 83.844C276.126 82.9508 276.934 83.1741 277.715 83.5686C278.512 83.9705 279.264 84.2087 280.127 83.8365C281.478 83.2523 282.114 81.2129 280.823 80.2527C280.406 79.9401 279.993 80.4537 280.049 80.8482C280.127 81.3952 280.399 82.0018 279.93 82.4707C279.301 83.0997 278.564 82.5712 277.935 82.2884C277.258 81.9832 276.536 81.9162 275.84 82.1991C274.638 82.6866 273.763 84.3166 274.72 85.4182C274.854 85.5708 275.177 85.5001 275.211 85.2879Z" fill="#323F81"/>
<path opacity="0.2" d="M-3.04312 92.9898C-0.588042 92.3213 1.94569 91.5011 4.24347 90.4112C5.08617 90.0123 4.54123 88.8325 3.68167 89.1021C1.29962 89.8437 -1.08805 90.928 -3.30155 92.0741C-3.74538 92.3044 -3.59931 93.1415 -3.04312 92.9898Z" fill="#8395ED"/>
<path opacity="0.2" d="M222.558 42.286C222.698 42.7386 223.128 42.8839 223.52 42.6156C225.056 41.5707 226.587 40.5481 228.046 39.3914C228.325 39.1678 228.264 38.7208 227.99 38.5308C226.286 37.3629 223.989 35.6362 221.826 35.625C221.279 35.6194 220.893 36.3962 221.452 36.7147C222.324 37.2176 223.369 37.3964 224.302 37.782C225.375 38.229 226.442 38.7543 227.392 39.4305C227.414 39.1175 227.437 38.8046 227.454 38.4917C225.827 39.4919 224.296 40.6151 222.754 41.7327C223.056 41.7942 223.363 41.8557 223.665 41.9171C223.006 40.0507 222.329 38.2011 221.597 36.3626C221.435 35.9771 220.776 36.1894 220.888 36.5973C221.402 38.5084 221.966 40.3972 222.558 42.286Z" fill="#E6E8F5"/>
<path opacity="0.1" d="M16.2393 45.324C17.6689 45.4317 19.1714 45.4729 20.601 45.3303C21.1272 45.2796 21.0607 44.5632 20.5503 44.5442C19.1429 44.4903 17.6689 44.6107 16.2773 44.7978C16.0015 44.8358 15.9159 45.2986 16.2393 45.324Z" fill="#323F81"/>
<path opacity="0.1" d="M270.174 10.3821C268.939 11.5684 268.471 13.4143 269.647 14.8418C270.755 16.1857 272.906 16.4662 274.289 15.3981C277.637 12.8138 274.147 8.05379 270.538 9.03828C269.869 9.22041 270.036 10.1754 270.696 10.2098C271.749 10.2689 272.881 10.3083 273.723 11.0516C274.629 11.8441 274.649 13.1879 273.905 14.1035C271.936 16.5204 268.52 12.9615 270.588 10.7956C270.853 10.5249 270.45 10.1212 270.174 10.3821Z" fill="#8A9DFC"/>
<path opacity="0.2" d="M180.603 8.22415C179.753 9.44084 178.94 10.6757 178.14 11.9265C177.948 12.225 178.072 12.5422 178.414 12.6377C179.755 13.0168 181.081 13.4035 182.449 13.6838C182.712 13.7365 182.939 13.4857 182.916 13.2368C182.766 11.6946 182.65 9.54262 181.614 8.29477C181.354 7.97745 180.721 8.13038 180.808 8.60498C180.939 9.34828 181.34 10.0348 181.569 10.7569C181.829 11.5888 182.042 12.4552 182.111 13.327C182.302 13.189 182.492 13.051 182.68 12.9097C181.322 12.4577 179.938 12.1195 178.552 11.7722C178.663 11.9752 178.775 12.1814 178.886 12.3844C179.64 11.1058 180.377 9.82562 181.08 8.51874C181.226 8.24296 180.786 7.96649 180.603 8.22415Z" fill="#7083E3"/>
<path opacity="0.2" d="M169.702 56.8328C169.329 55.4902 168.87 54.1012 168.266 52.8431C168.043 52.3815 167.399 52.684 167.55 53.1551C167.965 54.458 168.567 55.7658 169.202 56.9731C169.327 57.2205 169.786 57.1386 169.702 56.8328Z" fill="#8395ED"/>
<path opacity="0.2" d="M108.73 4.35319C108.468 2.98489 108.126 1.56112 107.627 0.257543C107.445 -0.220128 106.776 0.0264118 106.887 0.510246C107.192 1.84464 107.686 3.19445 108.219 4.4518C108.327 4.70759 108.792 4.66444 108.73 4.35319Z" fill="#7E90E8"/>
<path opacity="0.1" d="M17.0945 -5.09951C16.9216 -5.25032 16.7703 -5.40114 16.5973 -5.53041C14.4137 -7.46946 10.8248 -7.83573 8.70605 -5.53041C6.56568 -3.20354 6.63054 0.00667286 8.70605 2.33354C8.85738 2.5059 9.00872 2.65672 9.13844 2.82908C11.0842 5.02667 15.1271 4.96204 17.0945 2.82908C19.0403 0.696115 19.4295 -3.03118 17.0945 -5.09951Z" fill="#1A2351"/>
<path d="M211.863 119.861C220.786 120.522 236.256 118.485 240.58 115.978C244.903 113.47 238.627 110.157 241.766 105.254C244.904 100.35 253.217 104.691 255.764 101.374C258.31 98.0567 249.835 93.6218 251.014 89.5758C252.194 85.5298 259.475 85.8779 261.482 81.7567C263.489 77.6355 259.262 76.9939 259.117 72.9362C258.991 69.4214 262.528 61.7717 260.886 59.7713C259.244 57.7709 255.891 63.0612 251.39 63.5227C246.89 63.9842 245.514 60.5266 243.255 61.5793C240.996 62.632 246.914 67.5753 240.165 68.753C233.417 69.9307 230.61 63.0993 227.149 65.6436C223.688 68.1878 227.439 76.1727 224.872 79.9954C222.305 83.8181 217.236 75.6746 213.203 82.2634C209.17 88.8521 212.261 94.9845 211.701 101.512C211.212 107.206 208.506 111.729 210.222 118.484C210.331 118.915 211.408 119.827 211.863 119.861Z" fill="#EEFFDC"/>
<path d="M236.789 112.815C236.789 112.815 231.765 110.237 227.694 109.657C223.624 109.077 217.264 112.09 217.264 112.09L217.815 111.434C217.815 111.434 224.293 108.682 227.97 109.329C231.647 109.976 236.789 112.815 236.789 112.815Z" fill="#DFF3CB"/>
<path d="M217.461 86.5295C217.461 86.5295 220.872 91.0301 222.15 94.9379C223.428 98.8458 221.893 105.908 221.893 105.908L222.444 105.251C222.444 105.251 223.701 98.1183 222.425 94.6097C221.149 91.1012 217.461 86.5295 217.461 86.5295Z" fill="#DFF3CB"/>
<path d="M253.237 99.2121C253.237 99.2121 246.9 95.5331 242.829 94.9531C238.759 94.3731 230.758 96.0092 230.758 96.0092L231.309 95.3528C231.309 95.3528 239.428 93.9778 243.105 94.6249C246.782 95.272 253.237 99.2121 253.237 99.2121Z" fill="#DFF3CB"/>
<path d="M228.329 68.2454C228.329 68.2454 233.053 73.8475 234.331 77.7553C235.609 81.6632 235.387 89.8266 235.387 89.8266L235.938 89.1702C235.938 89.1702 235.882 80.9357 234.606 77.4272C233.331 73.9186 228.329 68.2454 228.329 68.2454Z" fill="#DFF3CB"/>
<path d="M257.693 80.9251C257.693 80.9251 252.025 79.9118 248.864 80.5774C245.703 81.2431 240.235 84.6011 240.235 84.6011L240.466 83.9685C240.466 83.9685 246.091 80.7714 248.979 80.2611C251.868 79.7508 257.693 80.9251 257.693 80.9251Z" fill="#DFF3CB"/>
<path d="M244.599 63.3067C244.599 63.3067 246.833 67.1543 247.185 69.6257C247.537 72.097 246.544 76.9546 246.544 76.9546L246.942 76.6202C246.942 76.6202 247.777 71.6908 247.384 69.4585C246.991 67.2261 244.599 63.3067 244.599 63.3067Z" fill="#DFF3CB"/>
<path d="M260.881 59.7682L201.916 131.048L200.931 130.222L260.881 59.7682Z" fill="#DFF3CB"/>
<path d="M221.699 141.089C237.849 145.186 250.489 143.46 259.643 135.779C273.691 123.991 271.433 98.1728 271.433 98.1728C271.433 98.1728 246.399 91.4661 232.351 103.254C223.192 110.939 219.296 123.069 220.533 139.699C220.561 140.074 221.325 140.994 221.699 141.089Z" fill="url(#paint0_linear)"/>
<path d="M243.528 138.877C243.528 138.877 239.716 135.988 236.406 134.905C233.096 133.823 227.347 135.401 227.347 135.401L227.903 134.934C227.903 134.934 233.712 133.591 236.684 134.672C239.656 135.753 243.528 138.877 243.528 138.877Z" fill="#C8E8A4"/>
<path d="M231.272 114.107C231.272 114.107 233.455 118.363 233.946 121.811C234.437 125.258 232.118 130.924 232.118 130.924L232.674 130.457C232.674 130.457 234.772 124.692 234.224 121.577C233.676 118.463 231.272 114.107 231.272 114.107Z" fill="#C8E8A4"/>
<path d="M259.251 129.949C259.251 129.949 254.505 125.948 251.195 124.865C247.885 123.783 240.97 123.971 240.97 123.971L241.526 123.504C241.526 123.504 248.501 123.551 251.473 124.632C254.445 125.713 259.251 129.949 259.251 129.949Z" fill="#C8E8A4"/>
<path d="M243.028 100.453C243.028 100.453 246.145 105.821 246.636 109.269C247.127 112.717 245.742 119.494 245.742 119.494L246.298 119.027C246.298 119.027 247.462 112.15 246.914 109.035C246.366 105.921 243.028 100.453 243.028 100.453Z" fill="#C8E8A4"/>
<path d="M265.657 115.349C265.657 115.349 261.078 113.67 258.343 113.761C255.608 113.851 250.553 115.848 250.553 115.848L250.838 115.354C250.838 115.354 256.001 113.514 258.486 113.514C260.97 113.513 265.657 115.349 265.657 115.349Z" fill="#C8E8A4"/>
<path d="M257.328 98.726C257.328 98.726 258.625 102.264 258.555 104.378C258.486 106.491 256.942 110.397 256.942 110.397L257.324 110.177C257.324 110.177 258.746 106.187 258.746 104.267C258.747 102.347 257.328 98.726 257.328 98.726Z" fill="#C8E8A4"/>
<path d="M271.431 98.1693L221.467 140.811L220.767 139.977L271.431 98.1693Z" fill="#C8E8A4"/>
<path d="M57.405 139.741C57.9399 132.517 56.2914 119.994 54.2616 116.494C52.2317 112.993 49.5498 118.074 45.58 115.534C41.6103 112.993 45.1246 106.263 42.4392 104.202C39.7539 102.14 36.1637 109.001 32.8884 108.046C29.6131 107.092 29.8948 101.197 26.5587 99.5728C23.2225 97.9482 22.7031 101.369 19.4182 101.487C16.573 101.589 10.3803 98.7259 8.76095 100.055C7.14159 101.384 11.4242 104.099 11.7978 107.742C12.1714 111.385 9.37243 112.499 10.2246 114.328C11.0768 116.157 15.0784 111.366 16.0318 116.829C16.9852 122.292 11.455 124.565 13.5147 127.366C15.5743 130.168 22.0383 127.131 25.1328 129.209C28.2274 131.287 21.6351 135.391 26.9688 138.656C32.3026 141.921 37.2668 139.418 42.5508 139.872C47.1601 140.268 50.8219 142.458 56.2904 141.069C56.6392 140.98 57.3777 140.109 57.405 139.741Z" fill="#D3F2B2"/>
<path d="M51.7031 119.562C51.7031 119.562 49.6165 123.629 49.147 126.924C48.6775 130.219 51.1166 135.368 51.1166 135.368L50.5852 134.922C50.5852 134.922 48.3575 129.678 48.8813 126.701C49.4052 123.725 51.7031 119.562 51.7031 119.562Z" fill="#AEDA7E"/>
<path d="M30.4217 135.208C30.4217 135.208 34.065 132.447 37.2285 131.413C40.392 130.378 46.1088 131.62 46.1088 131.62L45.5774 131.174C45.5774 131.174 39.8031 130.157 36.9628 131.19C34.1225 132.222 30.4217 135.208 30.4217 135.208Z" fill="#AEDA7E"/>
<path d="M40.6899 106.247C40.6899 106.247 37.7116 111.377 37.2421 114.672C36.7726 117.967 38.097 124.444 38.097 124.444L37.5657 123.998C37.5657 123.998 36.4526 117.426 36.9764 114.449C37.5003 111.473 40.6899 106.247 40.6899 106.247Z" fill="#AEDA7E"/>
<path d="M15.6226 126.411C15.6226 126.411 20.1577 122.587 23.3212 121.552C26.4847 120.518 33.0931 120.697 33.0931 120.697L32.5618 120.251C32.5618 120.251 25.8958 120.297 23.0555 121.329C20.2152 122.362 15.6226 126.411 15.6226 126.411Z" fill="#AEDA7E"/>
<path d="M25.8873 102.64C25.8873 102.64 25.067 107.228 25.6058 109.787C26.1447 112.346 28.8631 116.773 28.8631 116.773L28.3509 116.586C28.3509 116.586 25.7628 112.033 25.3498 109.694C24.9367 107.356 25.8873 102.64 25.8873 102.64Z" fill="#AEDA7E"/>
<path d="M11.6243 113.239C11.6243 113.239 14.739 111.431 16.7396 111.146C18.7402 110.861 22.6726 111.665 22.6726 111.665L22.4019 111.342C22.4019 111.342 18.4114 110.666 16.6042 110.985C14.7971 111.303 11.6243 113.239 11.6243 113.239Z" fill="#AEDA7E"/>
<path d="M8.75946 100.058L66.462 147.792L65.7932 148.589L8.75946 100.058Z" fill="#AEDA7E"/>
<path d="M65.3936 141.81C69.0665 133.65 72.4438 118.417 71.5664 113.496C70.689 108.576 65.4293 113.34 61.8945 108.714C58.3598 104.088 65.2826 97.7605 63.0364 94.2332C60.7901 90.7059 53.7241 97.153 50.3254 94.6609C46.9268 92.1689 49.7442 85.4458 46.558 82.1505C43.3717 78.8552 41.3233 82.6071 37.4606 81.3558C34.1148 80.272 28.136 74.3322 25.6946 75.191C23.2533 76.0498 27.0776 81.0102 25.9721 85.3971C24.8665 89.7841 21.1469 89.8942 21.3634 92.3772C21.5799 94.8603 28.2492 90.9896 27.0477 97.734C25.8462 104.478 18.4668 104.78 19.6739 108.902C20.881 113.025 29.6675 112.23 32.3816 115.95C35.0957 119.67 25.7098 121.648 30.5217 127.691C35.3336 133.735 42.1536 132.927 48.0955 135.686C53.2787 138.093 56.6038 142.183 63.5385 142.881C63.9808 142.925 65.2064 142.225 65.3936 141.81Z" fill="url(#paint1_linear)"/>
<path d="M67.298 115.976C67.298 115.976 63.1575 119.815 61.2203 123.442C59.2832 127.069 59.9392 134.075 59.9392 134.075L59.5108 133.333C59.5108 133.333 59.1405 126.305 61.0061 123.071C62.8717 119.837 67.298 115.976 67.298 115.976Z" fill="#C4E4A1"/>
<path d="M35.9872 125.149C35.9872 125.149 41.383 123.483 45.4922 123.619C49.6015 123.754 55.7126 127.612 55.7126 127.612L55.2842 126.87C55.2842 126.87 49.0113 123.249 45.278 123.248C41.5447 123.246 35.9872 125.149 35.9872 125.149Z" fill="#C4E4A1"/>
<path d="M60.1411 95.868C60.1411 95.868 54.5165 100.565 52.5793 104.191C50.6422 107.818 49.4431 115.896 49.4431 115.896L49.0147 115.154C49.0147 115.154 50.4995 107.054 52.3651 103.82C54.2307 100.587 60.1411 95.868 60.1411 95.868Z" fill="#C4E4A1"/>
<path d="M22.523 108.683C22.523 108.683 29.4028 106.16 33.5121 106.295C37.6213 106.431 45.2165 109.432 45.2165 109.432L44.7881 108.69C44.7881 108.69 37.0312 105.926 33.2979 105.924C29.5645 105.923 22.523 108.683 22.523 108.683Z" fill="#C4E4A1"/>
<path d="M44.4808 85.4271C44.4808 85.4271 41.5901 90.4064 41.1344 93.6045C40.6787 96.8027 41.9642 103.089 41.9642 103.089L41.4485 102.656C41.4485 102.656 40.3681 96.2771 40.8765 93.3882C41.385 90.4993 44.4808 85.4271 44.4808 85.4271Z" fill="#C4E4A1"/>
<path d="M23.4463 91.704C23.4463 91.704 27.8259 90.921 30.2686 91.4353C32.7113 91.9497 36.9363 94.5445 36.9363 94.5445L36.7583 94.0556C36.7583 94.0556 32.4117 91.5852 30.1796 91.1909C27.9475 90.7966 23.4463 91.704 23.4463 91.704Z" fill="#C4E4A1"/>
<path d="M25.6908 75.1937L72.5044 154.982L71.3913 155.624L25.6908 75.1937Z" fill="#C4E4A1"/>
<path d="M90.8906 65.6806C87.7807 61.3496 85.8692 56.2081 86.7447 50.7109C89.2674 34.8719 111.345 40.3363 114.995 48.7613C118.645 57.1862 116.343 77.5452 110.59 78.4906C108.295 78.8676 103.637 77.0448 99.0261 73.7123L100.207 95.395L82.1733 93.8172L90.8906 65.6806Z" fill="#B28B67"/>
<path d="M101.677 53.791C101.533 63.382 102.942 68.307 105.904 68.5661C110.347 68.9548 114.361 66.4891 116.31 66.6596C117.731 66.784 117.26 68.5188 116.204 69.7432C115.332 70.7534 111.457 71.4615 111.31 73.133C111.164 74.8045 114.267 73.773 114.181 74.7643C114.037 76.4041 114.293 79.5332 111.422 79.282C108.516 79.0277 100.275 77.2491 99.2214 72.8493C98.5413 70.0098 98.4456 64.2408 98.9344 55.5422C98.7599 55.506 98.5815 55.4797 98.3995 55.4637C95.9097 55.2459 93.7162 57.0699 93.5003 59.5377C93.3907 60.7905 93.8118 61.9684 94.5788 62.8531C93.4079 64.2213 92.1055 65.6435 90.6282 67.0994C85.8572 63.6664 82.8891 54.5788 88.5458 46.5932C90.2665 42.5893 93.538 40.6564 97.2637 39.952C100.316 38.9885 103.386 39.1183 105.903 40.0763C110.925 40.9491 115.309 42.8736 116.51 43.8938C116.095 48.6416 115.044 49.9691 107.126 49.1513C105.089 50.0006 103.438 51.6255 101.677 53.791Z" fill="#191847"/>
<path d="M62.3432 151.394C50.7548 182.08 30.2491 221.61 28.6868 223.217C27.6452 224.288 1.85279 233.346 -48.6904 250.391L-44.8067 259.465C11.1558 249.448 40.8571 243.039 44.2974 240.238C49.4578 236.037 77.8766 190.44 96.9903 164.004L62.3432 151.394Z" fill="#B28B67"/>
<path d="M-35.6577 242.776L-19.2552 287.113C22.9935 265.202 48.4575 250.139 57.1368 241.925C65.8161 233.711 80.2342 208.15 100.391 165.242L56.2201 149.165C39.8238 187.401 30.9139 207.288 29.4905 208.826C28.067 210.365 6.35097 221.682 -35.6577 242.776Z" fill="#89C5CC"/>
<path d="M93.9877 84.9496L100.604 84.9859C120.823 109.674 123.672 150.755 149.208 176.754L140.648 184.186C91.0721 169.007 86.9758 118.788 93.9877 84.9496Z" fill="#FFDA2C"/>
<path d="M51.826 160.333C77.5801 164.875 96.5243 168.215 108.659 170.355C111.255 170.812 111.424 166.995 111.381 165.046C110.88 142.551 98.0973 116.143 103.552 85.2099L87.6096 79.7613C70.224 99.0704 60.824 124.961 51.826 160.333Z" fill="#F3F6F9"/>
<path d="M63.3796 97.482C61.1188 96.3812 59.5135 94.4604 58.5636 91.7196C54.4688 79.9048 57.6771 74.3632 64.4237 73.5452C71.1703 72.7273 76.1735 77.7447 86.3756 79.5436C86.9305 79.6414 87.4327 79.7657 87.882 79.9163L92.9625 81.1126C98.931 133.365 97.1501 167.21 87.6201 182.649L42.8884 174.762C39.1538 180.444 35.7054 185.171 32.5431 188.942L20.3546 186.793C25.7152 149.683 40.0569 119.913 63.3796 97.482Z" fill="#FFDA2C"/>
<path d="M161.955 138.664H221.476C223.439 138.664 224.819 137.071 224.551 135.103L217.729 84.9927H151.09L157.912 135.103C158.176 137.071 159.986 138.664 161.955 138.664Z" fill="#C9C9C9"/>
<path d="M217.724 84.9976H151.09L152.919 98.4328H219.554L217.724 84.9976Z" fill="#3271BB"/>
<path opacity="0.3" d="M217.724 84.9976H193.1L224.134 137.22C224.49 136.627 224.652 135.9 224.546 135.108L217.724 84.9976Z" fill="url(#paint2_linear)"/>
<path d="M206.975 138.664H147.454C145.491 138.664 144.111 137.071 144.379 135.103L151.201 84.9927H217.84L211.018 135.103C210.75 137.071 208.939 138.664 206.975 138.664Z" fill="white"/>
<path d="M160.524 121.742C160.343 123.076 159.116 124.155 157.782 124.155C156.448 124.155 155.518 123.076 155.698 121.742C155.879 120.408 157.106 119.329 158.44 119.329C159.774 119.329 160.705 120.408 160.524 121.742Z" fill="#35CB5D"/>
<path d="M186.919 112.409C187.962 111.435 188.118 109.907 187.268 108.997C186.417 108.087 184.882 108.139 183.839 109.113C182.797 110.087 182.641 111.615 183.491 112.525C184.341 113.435 185.876 113.383 186.919 112.409Z" fill="#35CB5D"/>
<path d="M215.868 99.4793L216.465 95.0796H149.826L149.229 99.4793H215.868Z" fill="#2879D7"/>
<path d="M216.01 98.4328H149.371L151.2 84.9976H217.839L216.01 98.4328Z" fill="#3792FC"/>
<path fill-rule="evenodd" clip-rule="evenodd" d="M165.97 109.884L165.994 109.702C166.168 109.708 166.291 109.697 166.364 109.667C166.437 109.637 166.5 109.551 166.553 109.41L166.74 109.435L166.487 111.315L166.234 111.281L166.414 109.944L165.97 109.884Z" fill="#A1A1A1"/>
<path fill-rule="evenodd" clip-rule="evenodd" d="M171.92 111.194C171.951 111.033 172.004 110.896 172.078 110.783C172.153 110.671 172.282 110.577 172.465 110.501L172.738 110.389C172.86 110.338 172.947 110.293 172.999 110.252C173.081 110.189 173.128 110.111 173.141 110.017C173.156 109.907 173.134 109.815 173.077 109.742C173.02 109.668 172.937 109.624 172.827 109.609C172.664 109.587 172.543 109.633 172.464 109.748C172.422 109.81 172.391 109.898 172.372 110.015L172.131 109.982C172.156 109.818 172.204 109.688 172.276 109.592C172.403 109.424 172.597 109.357 172.857 109.392C173.074 109.421 173.224 109.501 173.308 109.631C173.392 109.761 173.424 109.898 173.405 110.041C173.384 110.193 173.314 110.315 173.193 110.407C173.123 110.462 173.002 110.522 172.831 110.59L172.637 110.665C172.545 110.701 172.471 110.737 172.416 110.774C172.318 110.838 172.251 110.916 172.215 111.006L173.246 111.145L173.216 111.369L171.92 111.194Z" fill="#A1A1A1"/>
<path fill-rule="evenodd" clip-rule="evenodd" d="M179.196 110.324C179.291 110.365 179.36 110.427 179.405 110.512C179.451 110.597 179.466 110.696 179.451 110.809C179.426 110.989 179.347 111.127 179.213 111.225C179.079 111.322 178.903 111.356 178.685 111.327C178.462 111.297 178.308 111.214 178.224 111.077C178.14 110.941 178.11 110.785 178.134 110.609L178.382 110.643C178.376 110.766 178.387 110.858 178.414 110.918C178.462 111.026 178.567 111.091 178.728 111.112C178.852 111.129 178.957 111.109 179.042 111.053C179.126 110.996 179.176 110.915 179.19 110.81C179.208 110.68 179.18 110.583 179.107 110.521C179.035 110.458 178.928 110.417 178.786 110.398C178.771 110.396 178.755 110.394 178.738 110.392C178.722 110.391 178.705 110.389 178.689 110.388L178.717 110.178C178.741 110.184 178.761 110.189 178.778 110.192C178.795 110.195 178.813 110.198 178.832 110.2C178.921 110.212 178.996 110.208 179.056 110.188C179.163 110.152 179.225 110.071 179.242 109.944C179.255 109.85 179.231 109.773 179.171 109.713C179.112 109.653 179.037 109.617 178.948 109.605C178.79 109.584 178.674 109.622 178.599 109.719C178.558 109.773 178.528 109.853 178.509 109.959L178.274 109.928C178.293 109.787 178.337 109.671 178.407 109.581C178.527 109.418 178.709 109.353 178.953 109.386C179.145 109.412 179.288 109.475 179.382 109.574C179.476 109.674 179.512 109.806 179.49 109.968C179.474 110.084 179.431 110.174 179.358 110.238C179.314 110.277 179.259 110.306 179.194 110.323L179.196 110.324Z" fill="#A1A1A1"/>
<path fill-rule="evenodd" clip-rule="evenodd" d="M185.094 110.633L185.21 109.777L184.489 110.551L185.094 110.633ZM185.008 111.302L185.07 110.84L184.242 110.729L184.274 110.497L185.3 109.414L185.501 109.441L185.336 110.665L185.614 110.703L185.586 110.91L185.308 110.872L185.245 111.334L185.008 111.302Z" fill="white"/>
<path fill-rule="evenodd" clip-rule="evenodd" d="M191.307 110.708C191.305 110.846 191.355 110.948 191.458 111.015C191.51 111.049 191.574 111.071 191.648 111.081C191.788 111.1 191.898 111.069 191.978 110.988C192.058 110.908 192.105 110.813 192.12 110.704C192.138 110.572 192.111 110.465 192.04 110.382C191.97 110.299 191.878 110.25 191.766 110.235C191.684 110.224 191.612 110.23 191.549 110.254C191.486 110.278 191.43 110.315 191.382 110.366L191.178 110.326L191.458 109.329L192.439 109.461L192.408 109.691L191.605 109.582L191.454 110.096C191.503 110.069 191.548 110.049 191.59 110.038C191.664 110.018 191.747 110.015 191.839 110.027C192.012 110.051 192.152 110.126 192.257 110.254C192.362 110.382 192.403 110.532 192.38 110.703C192.356 110.881 192.28 111.031 192.151 111.153C192.023 111.274 191.837 111.318 191.596 111.286C191.442 111.265 191.312 111.203 191.205 111.101C191.099 110.998 191.05 110.856 191.061 110.675L191.307 110.708Z" fill="#A1A1A1"/>
<path fill-rule="evenodd" clip-rule="evenodd" d="M152.436 115.523C152.647 115.551 152.787 115.626 152.855 115.747C152.923 115.867 152.95 115.986 152.934 116.102L152.699 116.07C152.695 115.993 152.681 115.932 152.656 115.885C152.609 115.799 152.528 115.747 152.412 115.732C152.279 115.714 152.166 115.761 152.071 115.873C151.976 115.985 151.909 116.155 151.869 116.382C151.935 116.309 152.011 116.259 152.099 116.231C152.179 116.206 152.266 116.199 152.359 116.212C152.518 116.233 152.649 116.302 152.753 116.419C152.857 116.536 152.896 116.695 152.868 116.895C152.845 117.067 152.769 117.211 152.64 117.328C152.51 117.445 152.342 117.49 152.136 117.462C151.959 117.438 151.816 117.351 151.705 117.2C151.595 117.048 151.561 116.814 151.604 116.497C151.636 116.262 151.691 116.067 151.77 115.911C151.922 115.613 152.144 115.484 152.436 115.523ZM152.184 117.254C152.309 117.271 152.408 117.242 152.481 117.166C152.554 117.09 152.598 116.996 152.614 116.881C152.627 116.785 152.612 116.689 152.568 116.594C152.525 116.499 152.43 116.442 152.284 116.422C152.182 116.408 152.088 116.43 152.002 116.487C151.916 116.545 151.864 116.641 151.845 116.778C151.829 116.897 151.851 117.002 151.909 117.093C151.968 117.184 152.06 117.237 152.184 117.254Z" fill="#A1A1A1"/>
<path fill-rule="evenodd" clip-rule="evenodd" d="M159.184 115.606L159.156 115.813C159.088 115.863 158.993 115.955 158.873 116.087C158.753 116.22 158.642 116.365 158.542 116.523C158.444 116.677 158.365 116.819 158.308 116.949C158.27 117.033 158.218 117.169 158.152 117.356L157.89 117.321C157.998 116.969 158.178 116.628 158.43 116.299C158.579 116.106 158.73 115.942 158.883 115.808L157.839 115.667L157.871 115.429L159.184 115.606Z" fill="#A1A1A1"/>
<path fill-rule="evenodd" clip-rule="evenodd" d="M164.547 116.314C164.651 116.328 164.737 116.31 164.804 116.259C164.87 116.209 164.909 116.143 164.92 116.062C164.93 115.992 164.91 115.923 164.862 115.857C164.814 115.79 164.732 115.749 164.617 115.734C164.503 115.718 164.416 115.737 164.357 115.789C164.298 115.841 164.263 115.906 164.253 115.985C164.241 116.074 164.264 116.148 164.323 116.207C164.383 116.266 164.457 116.302 164.547 116.314ZM164.435 117.25C164.544 117.265 164.64 117.248 164.72 117.198C164.801 117.149 164.849 117.065 164.865 116.947C164.881 116.825 164.856 116.727 164.79 116.654C164.724 116.581 164.633 116.536 164.516 116.52C164.402 116.505 164.305 116.525 164.225 116.58C164.145 116.635 164.097 116.719 164.081 116.833C164.068 116.932 164.089 117.021 164.145 117.102C164.201 117.182 164.298 117.232 164.435 117.25ZM164.212 116.361C164.15 116.324 164.103 116.284 164.072 116.241C164.012 116.162 163.989 116.066 164.004 115.953C164.023 115.813 164.091 115.699 164.206 115.611C164.322 115.524 164.473 115.493 164.66 115.518C164.841 115.543 164.977 115.609 165.067 115.719C165.157 115.828 165.193 115.946 165.176 116.074C165.16 116.191 165.117 116.283 165.048 116.348C165.009 116.384 164.952 116.418 164.876 116.448C164.949 116.495 165.005 116.544 165.044 116.597C165.115 116.696 165.142 116.816 165.123 116.956C165.1 117.122 165.026 117.256 164.898 117.356C164.771 117.457 164.606 117.493 164.402 117.466C164.218 117.441 164.069 117.37 163.956 117.253C163.842 117.136 163.798 116.983 163.824 116.793C163.839 116.682 163.879 116.589 163.945 116.515C164.01 116.441 164.099 116.39 164.212 116.361Z" fill="#A1A1A1"/>
<path fill-rule="evenodd" clip-rule="evenodd" d="M170.885 116.901C170.875 117.033 170.913 117.131 171 117.193C171.045 117.226 171.098 117.247 171.158 117.255C171.272 117.27 171.375 117.236 171.467 117.152C171.56 117.069 171.643 116.884 171.715 116.6C171.651 116.676 171.578 116.726 171.496 116.749C171.413 116.773 171.327 116.778 171.238 116.766C171.056 116.742 170.92 116.666 170.829 116.538C170.738 116.41 170.705 116.257 170.729 116.079C170.752 115.908 170.825 115.764 170.947 115.648C171.069 115.532 171.232 115.488 171.436 115.515C171.711 115.552 171.884 115.702 171.955 115.964C171.995 116.108 172.001 116.282 171.973 116.487C171.942 116.718 171.88 116.918 171.786 117.087C171.631 117.369 171.416 117.491 171.141 117.454C170.956 117.429 170.823 117.362 170.74 117.252C170.657 117.143 170.626 117.015 170.645 116.869L170.885 116.901ZM171.298 116.562C171.392 116.575 171.482 116.556 171.568 116.504C171.654 116.453 171.707 116.35 171.728 116.195C171.747 116.056 171.726 115.948 171.665 115.87C171.605 115.793 171.52 115.747 171.412 115.732C171.296 115.716 171.199 115.743 171.12 115.811C171.042 115.88 170.994 115.979 170.976 116.109C170.959 116.233 170.976 116.334 171.026 116.415C171.076 116.495 171.167 116.545 171.298 116.562Z" fill="#A1A1A1"/>
<path fill-rule="evenodd" clip-rule="evenodd" d="M176.195 115.891L176.22 115.709C176.393 115.716 176.517 115.704 176.59 115.674C176.663 115.644 176.726 115.558 176.779 115.417L176.966 115.442L176.712 117.322L176.459 117.288L176.639 115.951L176.195 115.891ZM178.243 115.607C178.488 115.64 178.651 115.764 178.733 115.98C178.796 116.147 178.809 116.366 178.773 116.636C178.738 116.893 178.671 117.1 178.572 117.258C178.429 117.484 178.232 117.579 177.981 117.546C177.754 117.515 177.598 117.394 177.514 117.182C177.444 117.005 177.428 116.778 177.465 116.502C177.494 116.287 177.546 116.107 177.623 115.96C177.765 115.688 177.972 115.57 178.243 115.607ZM178.008 117.329C178.131 117.346 178.236 117.304 178.324 117.205C178.412 117.106 178.476 116.908 178.516 116.611C178.544 116.397 178.542 116.217 178.508 116.071C178.474 115.926 178.381 115.842 178.229 115.822C178.089 115.803 177.978 115.855 177.896 115.978C177.813 116.1 177.755 116.29 177.72 116.545C177.694 116.738 177.694 116.895 177.72 117.018C177.759 117.205 177.855 117.308 178.008 117.329Z" fill="#A1A1A1"/>
<path fill-rule="evenodd" clip-rule="evenodd" d="M183.683 115.926L183.707 115.744C183.881 115.75 184.004 115.738 184.077 115.709C184.15 115.679 184.213 115.593 184.266 115.451L184.453 115.477L184.2 117.357L183.946 117.322L184.127 115.986L183.683 115.926ZM184.985 116.101L185.01 115.919C185.184 115.926 185.307 115.914 185.38 115.884C185.453 115.854 185.516 115.768 185.569 115.627L185.756 115.652L185.502 117.532L185.249 117.498L185.43 116.161L184.985 116.101Z" fill="#A1A1A1"/>
<path fill-rule="evenodd" clip-rule="evenodd" d="M189.813 115.898L189.838 115.716C190.012 115.722 190.135 115.71 190.208 115.68C190.281 115.65 190.344 115.565 190.397 115.423L190.584 115.449L190.331 117.328L190.077 117.294L190.258 115.958L189.813 115.898ZM190.96 117.413C190.991 117.252 191.044 117.115 191.118 117.003C191.193 116.89 191.322 116.796 191.505 116.72L191.777 116.608C191.9 116.558 191.987 116.512 192.039 116.472C192.121 116.409 192.168 116.33 192.181 116.236C192.196 116.126 192.174 116.034 192.117 115.961C192.06 115.887 191.976 115.843 191.867 115.828C191.704 115.806 191.583 115.853 191.504 115.967C191.462 116.029 191.431 116.118 191.412 116.234L191.171 116.202C191.195 116.038 191.244 115.908 191.316 115.812C191.443 115.643 191.637 115.576 191.897 115.611C192.113 115.64 192.264 115.72 192.348 115.85C192.432 115.981 192.464 116.117 192.445 116.261C192.424 116.412 192.354 116.534 192.233 116.627C192.163 116.681 192.042 116.742 191.871 116.809L191.677 116.885C191.585 116.921 191.511 116.957 191.456 116.993C191.358 117.058 191.291 117.135 191.255 117.225L192.286 117.364L192.256 117.588L190.96 117.413Z" fill="#A1A1A1"/>
<path fill-rule="evenodd" clip-rule="evenodd" d="M150.316 121.344L150.34 121.162C150.514 121.168 150.637 121.157 150.71 121.127C150.783 121.097 150.846 121.011 150.899 120.869L151.086 120.895L150.833 122.775L150.58 122.74L150.76 121.404L150.316 121.344ZM152.582 121.989C152.582 121.989 152.582 121.989 152.582 121.989C152.583 121.99 152.584 121.99 152.585 121.99L152.582 121.989ZM152.584 121.99C152.679 122.031 152.748 122.094 152.793 122.178C152.839 122.264 152.854 122.362 152.838 122.475C152.814 122.655 152.735 122.794 152.601 122.891C152.467 122.989 152.291 123.023 152.073 122.993C151.85 122.963 151.696 122.88 151.612 122.744C151.528 122.608 151.498 122.452 151.522 122.276L151.77 122.309C151.764 122.433 151.774 122.525 151.802 122.585C151.85 122.692 151.955 122.757 152.116 122.779C152.24 122.796 152.345 122.776 152.43 122.719C152.514 122.663 152.564 122.581 152.578 122.476C152.595 122.346 152.568 122.25 152.495 122.187C152.423 122.124 152.316 122.084 152.174 122.065C152.159 122.062 152.142 122.06 152.126 122.059C152.11 122.057 152.093 122.055 152.076 122.054L152.105 121.844C152.129 121.85 152.149 121.855 152.166 121.858C152.183 121.861 152.201 121.864 152.22 121.867C152.309 121.879 152.383 121.874 152.444 121.854C152.551 121.818 152.613 121.737 152.63 121.611C152.643 121.517 152.619 121.44 152.559 121.38C152.499 121.32 152.425 121.284 152.336 121.272C152.178 121.25 152.062 121.288 151.987 121.386C151.946 121.439 151.916 121.519 151.897 121.626L151.662 121.594C151.681 121.453 151.725 121.338 151.795 121.247C151.915 121.084 152.097 121.019 152.34 121.052C152.533 121.078 152.676 121.141 152.77 121.241C152.864 121.341 152.9 121.472 152.878 121.635C152.862 121.751 152.818 121.84 152.746 121.904C152.702 121.944 152.647 121.972 152.582 121.989L152.584 121.99Z" fill="#A1A1A1"/>
<path fill-rule="evenodd" clip-rule="evenodd" d="M156.443 121.343L156.467 121.161C156.641 121.168 156.764 121.156 156.837 121.126C156.91 121.096 156.973 121.01 157.026 120.869L157.213 120.894L156.96 122.774L156.706 122.74L156.887 121.403L156.443 121.343ZM158.487 122.299L158.602 121.444L157.882 122.218L158.487 122.299ZM158.401 122.968L158.463 122.507L157.635 122.395L157.667 122.163L158.693 121.08L158.894 121.107L158.728 122.332L159.007 122.37L158.979 122.577L158.701 122.539L158.638 123L158.401 122.968Z" fill="white"/>
<path fill-rule="evenodd" clip-rule="evenodd" d="M162.575 121.332L162.6 121.15C162.773 121.156 162.897 121.145 162.97 121.115C163.043 121.085 163.106 120.999 163.159 120.858L163.346 120.883L163.092 122.763L162.839 122.729L163.019 121.392L162.575 121.332ZM164.037 122.4C164.034 122.538 164.085 122.64 164.188 122.706C164.24 122.74 164.304 122.762 164.377 122.772C164.518 122.791 164.628 122.76 164.708 122.68C164.788 122.599 164.835 122.505 164.85 122.396C164.867 122.264 164.841 122.156 164.77 122.074C164.7 121.991 164.608 121.942 164.495 121.926C164.414 121.915 164.342 121.922 164.279 121.946C164.216 121.969 164.16 122.006 164.111 122.057L163.907 122.018L164.188 121.021L165.169 121.153L165.138 121.382L164.335 121.274L164.184 121.788C164.232 121.76 164.278 121.741 164.319 121.73C164.394 121.71 164.477 121.706 164.569 121.719C164.742 121.742 164.881 121.818 164.987 121.946C165.092 122.074 165.133 122.223 165.11 122.395C165.086 122.573 165.01 122.723 164.881 122.844C164.752 122.966 164.567 123.01 164.326 122.977C164.172 122.957 164.042 122.895 163.935 122.792C163.828 122.69 163.78 122.548 163.79 122.367L164.037 122.4Z" fill="#A1A1A1"/>
<path fill-rule="evenodd" clip-rule="evenodd" d="M169.386 121.347L169.41 121.165C169.584 121.172 169.707 121.16 169.78 121.13C169.853 121.1 169.916 121.014 169.969 120.873L170.156 120.898L169.903 122.778L169.649 122.744L169.83 121.407L169.386 121.347ZM171.493 121.062C171.704 121.091 171.844 121.165 171.912 121.286C171.98 121.406 172.007 121.525 171.991 121.641L171.756 121.609C171.752 121.533 171.738 121.471 171.713 121.425C171.666 121.338 171.585 121.287 171.469 121.271C171.336 121.253 171.223 121.3 171.128 121.412C171.033 121.524 170.966 121.694 170.926 121.921C170.992 121.849 171.068 121.798 171.156 121.77C171.237 121.745 171.323 121.739 171.416 121.751C171.575 121.773 171.706 121.842 171.81 121.959C171.914 122.076 171.953 122.234 171.926 122.435C171.903 122.606 171.826 122.75 171.697 122.868C171.567 122.985 171.399 123.029 171.193 123.002C171.016 122.978 170.873 122.89 170.762 122.739C170.652 122.587 170.619 122.353 170.661 122.036C170.693 121.801 170.748 121.606 170.828 121.45C170.98 121.152 171.202 121.023 171.493 121.062ZM171.242 122.793C171.367 122.81 171.466 122.781 171.539 122.705C171.612 122.63 171.656 122.535 171.672 122.421C171.685 122.324 171.67 122.228 171.626 122.133C171.583 122.038 171.488 121.981 171.342 121.961C171.24 121.948 171.146 121.969 171.06 122.027C170.974 122.084 170.922 122.181 170.903 122.317C170.887 122.436 170.909 122.542 170.967 122.632C171.026 122.723 171.118 122.777 171.242 122.793Z" fill="#A1A1A1"/>
<path fill-rule="evenodd" clip-rule="evenodd" d="M175.515 121.33L175.539 121.148C175.713 121.154 175.836 121.143 175.909 121.113C175.982 121.083 176.045 120.997 176.098 120.856L176.285 120.881L176.032 122.761L175.779 122.727L175.959 121.39L175.515 121.33ZM178.239 121.169L178.212 121.376C178.143 121.426 178.049 121.518 177.928 121.65C177.808 121.783 177.698 121.928 177.598 122.086C177.499 122.24 177.421 122.382 177.363 122.512C177.326 122.596 177.274 122.732 177.207 122.919L176.945 122.884C177.053 122.532 177.234 122.191 177.486 121.862C177.634 121.669 177.785 121.505 177.938 121.371L176.894 121.23L176.926 120.992L178.239 121.169Z" fill="#A1A1A1"/>
<path fill-rule="evenodd" clip-rule="evenodd" d="M182.325 121.346L182.35 121.164C182.523 121.171 182.647 121.159 182.72 121.129C182.793 121.099 182.856 121.013 182.909 120.872L183.096 120.897L182.842 122.777L182.589 122.743L182.769 121.406L182.325 121.346ZM184.271 121.852C184.375 121.866 184.461 121.848 184.528 121.798C184.595 121.747 184.633 121.681 184.644 121.601C184.654 121.53 184.634 121.462 184.586 121.395C184.538 121.329 184.456 121.288 184.341 121.272C184.227 121.257 184.14 121.275 184.081 121.327C184.022 121.379 183.988 121.445 183.977 121.524C183.965 121.613 183.988 121.687 184.048 121.746C184.107 121.805 184.181 121.84 184.271 121.852ZM184.159 122.789C184.269 122.804 184.364 122.786 184.444 122.737C184.525 122.687 184.573 122.604 184.589 122.486C184.605 122.364 184.581 122.266 184.514 122.192C184.448 122.119 184.357 122.075 184.24 122.059C184.126 122.044 184.03 122.063 183.949 122.118C183.869 122.173 183.821 122.258 183.806 122.372C183.792 122.47 183.814 122.56 183.869 122.64C183.925 122.721 184.022 122.77 184.159 122.789ZM183.936 121.9C183.874 121.863 183.827 121.823 183.795 121.78C183.735 121.7 183.713 121.604 183.728 121.492C183.747 121.351 183.814 121.237 183.93 121.15C184.045 121.062 184.197 121.031 184.384 121.057C184.565 121.081 184.7 121.148 184.79 121.257C184.88 121.366 184.917 121.485 184.9 121.612C184.884 121.73 184.841 121.821 184.771 121.886C184.732 121.923 184.675 121.956 184.599 121.986C184.673 122.033 184.729 122.083 184.767 122.135C184.839 122.234 184.865 122.354 184.846 122.495C184.824 122.661 184.749 122.794 184.622 122.895C184.495 122.995 184.329 123.032 184.125 123.004C183.942 122.979 183.793 122.909 183.679 122.792C183.566 122.675 183.522 122.522 183.548 122.332C183.563 122.22 183.603 122.127 183.668 122.053C183.734 121.979 183.823 121.928 183.936 121.9Z" fill="#A1A1A1"/>
<path fill-rule="evenodd" clip-rule="evenodd" d="M189.136 121.344L189.161 121.162C189.334 121.168 189.458 121.157 189.531 121.127C189.604 121.097 189.667 121.011 189.72 120.87L189.907 120.895L189.653 122.775L189.4 122.74L189.58 121.404L189.136 121.344ZM190.619 122.44C190.608 122.572 190.647 122.669 190.734 122.732C190.779 122.765 190.832 122.786 190.892 122.794C191.006 122.809 191.109 122.775 191.201 122.691C191.294 122.607 191.377 122.423 191.449 122.139C191.385 122.215 191.312 122.265 191.23 122.288C191.147 122.312 191.061 122.317 190.972 122.305C190.79 122.281 190.653 122.204 190.563 122.077C190.472 121.949 190.439 121.796 190.463 121.618C190.486 121.446 190.559 121.303 190.681 121.187C190.803 121.071 190.966 121.027 191.17 121.054C191.445 121.091 191.618 121.241 191.689 121.503C191.729 121.647 191.735 121.821 191.707 122.026C191.676 122.257 191.614 122.457 191.52 122.626C191.365 122.908 191.15 123.03 190.875 122.993C190.69 122.968 190.557 122.901 190.474 122.791C190.391 122.681 190.36 122.554 190.379 122.408L190.619 122.44ZM191.031 122.101C191.125 122.114 191.215 122.094 191.302 122.043C191.388 121.991 191.441 121.888 191.462 121.734C191.481 121.595 191.46 121.487 191.399 121.409C191.339 121.332 191.254 121.285 191.146 121.271C191.03 121.255 190.933 121.282 190.854 121.35C190.776 121.419 190.727 121.518 190.71 121.648C190.693 121.771 190.71 121.873 190.76 121.954C190.81 122.034 190.9 122.083 191.031 122.101Z" fill="#A1A1A1"/>
<path fill-rule="evenodd" clip-rule="evenodd" d="M149.455 128.12C149.486 127.959 149.539 127.822 149.614 127.709C149.688 127.597 149.817 127.503 150 127.427L150.273 127.315C150.395 127.264 150.482 127.219 150.534 127.178C150.616 127.115 150.663 127.036 150.676 126.942C150.691 126.832 150.67 126.741 150.612 126.667C150.555 126.594 150.472 126.55 150.362 126.535C150.199 126.513 150.078 126.559 149.999 126.674C149.957 126.735 149.926 126.824 149.907 126.941L149.666 126.908C149.691 126.744 149.739 126.614 149.811 126.518C149.939 126.349 150.132 126.282 150.392 126.318C150.609 126.347 150.759 126.426 150.843 126.557C150.927 126.687 150.959 126.824 150.94 126.967C150.919 127.118 150.849 127.24 150.728 127.333C150.658 127.387 150.538 127.448 150.366 127.515L150.172 127.591C150.08 127.627 150.006 127.663 149.951 127.7C149.853 127.764 149.786 127.841 149.751 127.932L150.781 128.071L150.751 128.295L149.455 128.12ZM151.857 126.522C152.102 126.555 152.265 126.679 152.347 126.895C152.41 127.062 152.423 127.281 152.387 127.552C152.352 127.808 152.285 128.015 152.186 128.173C152.043 128.399 151.846 128.495 151.594 128.461C151.368 128.43 151.212 128.309 151.128 128.097C151.058 127.921 151.042 127.694 151.079 127.417C151.108 127.202 151.16 127.022 151.237 126.876C151.379 126.603 151.586 126.485 151.857 126.522ZM151.622 128.244C151.745 128.261 151.85 128.22 151.938 128.121C152.026 128.021 152.089 127.823 152.13 127.526C152.158 127.312 152.156 127.132 152.122 126.986C152.088 126.841 151.995 126.758 151.843 126.737C151.703 126.718 151.592 126.77 151.51 126.893C151.427 127.016 151.369 127.205 151.334 127.461C151.308 127.653 151.308 127.811 151.334 127.933C151.373 128.12 151.469 128.224 151.622 128.244Z" fill="#A1A1A1"/>
<path fill-rule="evenodd" clip-rule="evenodd" d="M155.58 128.149C155.611 127.988 155.664 127.851 155.739 127.738C155.813 127.626 155.942 127.532 156.125 127.456L156.398 127.344C156.52 127.293 156.607 127.248 156.659 127.207C156.741 127.144 156.788 127.065 156.801 126.971C156.816 126.862 156.795 126.77 156.737 126.696C156.68 126.623 156.597 126.579 156.487 126.564C156.324 126.542 156.203 126.588 156.124 126.703C156.082 126.764 156.051 126.853 156.032 126.97L155.791 126.937C155.816 126.773 155.864 126.643 155.936 126.547C156.064 126.378 156.257 126.311 156.517 126.347C156.734 126.376 156.884 126.455 156.968 126.586C157.052 126.716 157.084 126.853 157.065 126.996C157.044 127.147 156.974 127.269 156.853 127.362C156.783 127.416 156.663 127.477 156.491 127.544L156.297 127.62C156.205 127.656 156.131 127.692 156.076 127.729C155.978 127.793 155.911 127.871 155.876 127.961L156.906 128.1L156.876 128.324L155.58 128.149ZM157.435 127.038L157.46 126.856C157.633 126.863 157.757 126.851 157.83 126.821C157.903 126.791 157.966 126.705 158.019 126.564L158.206 126.589L157.952 128.469L157.699 128.435L157.879 127.098L157.435 127.038Z" fill="#A1A1A1"/>
<path fill-rule="evenodd" clip-rule="evenodd" d="M161.711 128.119C161.742 127.958 161.795 127.821 161.869 127.709C161.944 127.596 162.073 127.502 162.256 127.426L162.529 127.314C162.651 127.264 162.738 127.218 162.79 127.178C162.872 127.115 162.919 127.036 162.932 126.942C162.947 126.832 162.925 126.74 162.868 126.667C162.811 126.593 162.728 126.549 162.618 126.534C162.455 126.512 162.334 126.559 162.255 126.673C162.213 126.735 162.182 126.824 162.163 126.94L161.922 126.908C161.947 126.744 161.995 126.614 162.067 126.518C162.194 126.349 162.388 126.282 162.648 126.317C162.865 126.346 163.015 126.426 163.099 126.556C163.183 126.687 163.215 126.823 163.196 126.967C163.175 127.118 163.105 127.24 162.984 127.333C162.914 127.387 162.793 127.448 162.622 127.515L162.428 127.591C162.336 127.627 162.262 127.663 162.207 127.699C162.109 127.764 162.042 127.841 162.006 127.931L163.037 128.07L163.007 128.294L161.711 128.119ZM163.212 128.322C163.243 128.161 163.296 128.024 163.371 127.911C163.445 127.799 163.574 127.705 163.757 127.629L164.03 127.517C164.152 127.466 164.239 127.421 164.291 127.381C164.373 127.317 164.42 127.239 164.433 127.145C164.448 127.035 164.427 126.943 164.369 126.87C164.312 126.796 164.229 126.752 164.119 126.737C163.956 126.715 163.835 126.762 163.756 126.876C163.714 126.938 163.683 127.026 163.664 127.143L163.423 127.11C163.448 126.946 163.496 126.816 163.568 126.721C163.696 126.552 163.889 126.485 164.15 126.52C164.366 126.549 164.516 126.629 164.6 126.759C164.684 126.889 164.716 127.026 164.697 127.169C164.676 127.321 164.606 127.443 164.485 127.536C164.415 127.59 164.295 127.65 164.123 127.718L163.929 127.793C163.837 127.829 163.763 127.865 163.708 127.902C163.61 127.966 163.543 128.044 163.508 128.134L164.539 128.273L164.508 128.497L163.212 128.322Z" fill="#A1A1A1"/>
<path fill-rule="evenodd" clip-rule="evenodd" d="M168.526 128.12C168.556 127.959 168.609 127.822 168.684 127.709C168.759 127.597 168.887 127.503 169.07 127.427L169.343 127.315C169.465 127.264 169.552 127.219 169.604 127.178C169.686 127.115 169.734 127.037 169.746 126.943C169.761 126.833 169.74 126.741 169.683 126.668C169.626 126.594 169.542 126.55 169.432 126.535C169.27 126.513 169.149 126.56 169.07 126.674C169.027 126.736 168.997 126.824 168.977 126.941L168.736 126.908C168.761 126.744 168.809 126.614 168.881 126.519C169.009 126.35 169.203 126.283 169.463 126.318C169.679 126.347 169.829 126.427 169.913 126.557C169.997 126.687 170.029 126.824 170.01 126.967C169.99 127.119 169.919 127.241 169.798 127.333C169.728 127.388 169.608 127.448 169.437 127.516L169.243 127.591C169.15 127.627 169.076 127.663 169.021 127.7C168.923 127.764 168.856 127.842 168.821 127.932L169.852 128.071L169.822 128.295L168.526 128.12ZM171.144 127.454C171.144 127.454 171.144 127.454 171.144 127.454C171.145 127.454 171.146 127.454 171.147 127.455L171.144 127.454ZM171.148 127.455C171.243 127.495 171.312 127.558 171.357 127.642C171.403 127.728 171.418 127.827 171.402 127.939C171.378 128.119 171.299 128.258 171.165 128.355C171.031 128.453 170.855 128.487 170.637 128.457C170.414 128.427 170.26 128.344 170.176 128.208C170.092 128.072 170.062 127.916 170.086 127.74L170.334 127.773C170.328 127.897 170.338 127.989 170.366 128.049C170.414 128.157 170.519 128.221 170.68 128.243C170.804 128.26 170.909 128.24 170.994 128.183C171.078 128.127 171.128 128.046 171.142 127.94C171.159 127.81 171.132 127.714 171.059 127.651C170.987 127.589 170.88 127.548 170.738 127.529C170.723 127.527 170.706 127.525 170.69 127.523C170.674 127.521 170.657 127.52 170.64 127.518L170.669 127.309C170.693 127.315 170.713 127.319 170.73 127.322C170.747 127.325 170.764 127.328 170.784 127.331C170.873 127.343 170.947 127.339 171.008 127.318C171.115 127.282 171.177 127.201 171.194 127.075C171.207 126.981 171.183 126.904 171.123 126.844C171.063 126.784 170.989 126.748 170.9 126.736C170.742 126.714 170.626 126.752 170.551 126.85C170.51 126.903 170.479 126.983 170.461 127.09L170.226 127.058C170.245 126.918 170.289 126.802 170.359 126.711C170.479 126.548 170.661 126.483 170.904 126.516C171.097 126.542 171.24 126.605 171.334 126.705C171.428 126.805 171.464 126.936 171.442 127.099C171.426 127.215 171.382 127.305 171.31 127.368C171.266 127.408 171.211 127.436 171.146 127.453L171.148 127.455Z" fill="#A1A1A1"/>
<path fill-rule="evenodd" clip-rule="evenodd" d="M174.651 128.118C174.681 127.957 174.734 127.82 174.809 127.707C174.884 127.595 175.012 127.501 175.195 127.425L175.468 127.313C175.59 127.262 175.677 127.217 175.729 127.176C175.811 127.113 175.859 127.034 175.871 126.94C175.886 126.831 175.865 126.739 175.808 126.665C175.751 126.592 175.667 126.548 175.557 126.533C175.395 126.511 175.274 126.557 175.195 126.672C175.152 126.733 175.122 126.822 175.102 126.939L174.861 126.906C174.886 126.742 174.934 126.612 175.006 126.516C175.134 126.347 175.328 126.28 175.588 126.316C175.804 126.345 175.954 126.424 176.038 126.555C176.122 126.685 176.154 126.822 176.135 126.965C176.115 127.116 176.044 127.238 175.923 127.331C175.853 127.385 175.733 127.446 175.562 127.513L175.368 127.589C175.275 127.625 175.201 127.661 175.146 127.698C175.048 127.762 174.981 127.84 174.946 127.93L175.977 128.069L175.947 128.293L174.651 128.118ZM177.05 127.761L177.166 126.906L176.445 127.68L177.05 127.761ZM176.964 128.43L177.027 127.969L176.199 127.857L176.23 127.625L177.257 126.542L177.457 126.569L177.292 127.794L177.57 127.831L177.542 128.038L177.264 128.001L177.202 128.462L176.964 128.43Z" fill="#A1A1A1"/>
<path fill-rule="evenodd" clip-rule="evenodd" d="M181.465 128.12C181.496 127.959 181.549 127.822 181.623 127.709C181.698 127.597 181.827 127.503 182.01 127.427L182.282 127.315C182.405 127.264 182.492 127.219 182.544 127.178C182.626 127.115 182.673 127.036 182.686 126.942C182.701 126.832 182.679 126.741 182.622 126.667C182.565 126.594 182.481 126.55 182.372 126.535C182.209 126.513 182.088 126.559 182.009 126.674C181.967 126.735 181.936 126.824 181.917 126.941L181.676 126.908C181.7 126.744 181.749 126.614 181.821 126.518C181.948 126.349 182.142 126.282 182.402 126.318C182.618 126.347 182.769 126.426 182.853 126.557C182.936 126.687 182.969 126.824 182.95 126.967C182.929 127.118 182.859 127.24 182.738 127.333C182.668 127.387 182.547 127.448 182.376 127.515L182.182 127.591C182.09 127.627 182.016 127.663 181.961 127.7C181.863 127.764 181.796 127.841 181.76 127.932L182.791 128.071L182.761 128.295L181.465 128.12ZM183.281 127.875C183.279 128.012 183.329 128.115 183.432 128.181C183.484 128.215 183.548 128.237 183.621 128.247C183.762 128.266 183.872 128.235 183.952 128.155C184.032 128.074 184.079 127.98 184.094 127.871C184.111 127.739 184.085 127.631 184.014 127.548C183.944 127.466 183.852 127.416 183.74 127.401C183.658 127.39 183.586 127.397 183.523 127.42C183.46 127.444 183.404 127.481 183.355 127.532L183.151 127.492L183.432 126.495L184.413 126.628L184.382 126.857L183.579 126.749L183.428 127.263C183.477 127.235 183.522 127.216 183.563 127.204C183.638 127.185 183.721 127.181 183.813 127.194C183.986 127.217 184.126 127.293 184.231 127.421C184.336 127.548 184.377 127.698 184.354 127.869C184.33 128.048 184.254 128.198 184.125 128.319C183.996 128.44 183.811 128.485 183.57 128.452C183.416 128.431 183.286 128.37 183.179 128.267C183.073 128.165 183.024 128.023 183.035 127.842L183.281 127.875Z" fill="#A1A1A1"/>
<path fill-rule="evenodd" clip-rule="evenodd" d="M188.277 128.121C188.308 127.959 188.361 127.822 188.436 127.71C188.51 127.597 188.639 127.503 188.822 127.428L189.095 127.315C189.217 127.265 189.304 127.219 189.356 127.179C189.438 127.116 189.485 127.037 189.498 126.943C189.513 126.833 189.492 126.741 189.434 126.668C189.377 126.595 189.294 126.55 189.184 126.536C189.021 126.514 188.901 126.56 188.822 126.675C188.779 126.736 188.748 126.825 188.729 126.941L188.488 126.909C188.513 126.745 188.561 126.615 188.633 126.519C188.761 126.35 188.954 126.283 189.215 126.318C189.431 126.347 189.581 126.427 189.665 126.557C189.749 126.688 189.781 126.825 189.762 126.968C189.741 127.119 189.671 127.241 189.55 127.334C189.48 127.388 189.36 127.449 189.189 127.516L188.994 127.592C188.902 127.628 188.828 127.664 188.773 127.7C188.675 127.765 188.608 127.842 188.573 127.932L189.604 128.071L189.573 128.295L188.277 128.121ZM190.739 126.522C190.95 126.551 191.09 126.625 191.158 126.746C191.226 126.867 191.253 126.985 191.237 127.101L191.002 127.069C190.998 126.993 190.984 126.931 190.959 126.885C190.912 126.798 190.831 126.747 190.715 126.731C190.582 126.713 190.469 126.76 190.374 126.872C190.279 126.985 190.212 127.154 190.172 127.382C190.238 127.309 190.314 127.258 190.402 127.23C190.482 127.205 190.569 127.199 190.662 127.211C190.821 127.233 190.952 127.302 191.056 127.419C191.16 127.536 191.198 127.694 191.171 127.895C191.148 128.066 191.072 128.21 190.943 128.328C190.813 128.445 190.645 128.49 190.439 128.462C190.262 128.438 190.119 128.35 190.008 128.199C189.898 128.048 189.864 127.813 189.907 127.496C189.939 127.261 189.994 127.066 190.073 126.91C190.225 126.612 190.447 126.483 190.739 126.522ZM190.488 128.254C190.612 128.27 190.711 128.241 190.785 128.166C190.858 128.09 190.902 127.995 190.918 127.881C190.931 127.784 190.915 127.688 190.872 127.593C190.828 127.499 190.734 127.441 190.588 127.422C190.486 127.408 190.392 127.43 190.306 127.487C190.22 127.544 190.168 127.641 190.149 127.777C190.133 127.897 190.154 128.002 190.213 128.093C190.272 128.183 190.364 128.237 190.488 128.254Z" fill="#A1A1A1"/>
<path fill-rule="evenodd" clip-rule="evenodd" d="M148.772 133.566C148.803 133.405 148.855 133.268 148.93 133.156C149.005 133.043 149.133 132.949 149.316 132.873L149.589 132.761C149.711 132.711 149.799 132.665 149.85 132.625C149.932 132.562 149.98 132.483 149.992 132.389C150.007 132.279 149.986 132.187 149.929 132.114C149.872 132.04 149.788 131.996 149.678 131.981C149.516 131.959 149.395 132.006 149.316 132.12C149.274 132.182 149.243 132.271 149.224 132.387L148.982 132.355C149.007 132.191 149.055 132.061 149.127 131.965C149.255 131.796 149.449 131.729 149.709 131.764C149.925 131.793 150.075 131.873 150.159 132.003C150.243 132.134 150.275 132.27 150.256 132.414C150.236 132.565 150.165 132.687 150.044 132.78C149.974 132.834 149.854 132.895 149.683 132.962L149.489 133.038C149.396 133.074 149.322 133.11 149.267 133.146C149.169 133.211 149.102 133.288 149.067 133.378L150.098 133.517L150.068 133.741L148.772 133.566ZM151.851 132.092L151.823 132.299C151.755 132.349 151.66 132.441 151.54 132.573C151.42 132.706 151.309 132.851 151.209 133.009C151.111 133.163 151.033 133.305 150.975 133.435C150.937 133.519 150.886 133.655 150.819 133.842L150.557 133.807C150.665 133.455 150.845 133.114 151.097 132.785C151.246 132.592 151.397 132.428 151.55 132.294L150.506 132.153L150.538 131.915L151.851 132.092Z" fill="#A1A1A1"/>
<path fill-rule="evenodd" clip-rule="evenodd" d="M154.905 133.569C154.935 133.407 154.988 133.27 155.063 133.158C155.137 133.045 155.266 132.951 155.449 132.876L155.722 132.764C155.844 132.713 155.931 132.667 155.983 132.627C156.065 132.564 156.113 132.485 156.125 132.391C156.14 132.281 156.119 132.19 156.062 132.116C156.004 132.043 155.921 131.998 155.811 131.984C155.648 131.962 155.528 132.008 155.449 132.123C155.406 132.184 155.376 132.273 155.356 132.389L155.115 132.357C155.14 132.193 155.188 132.063 155.26 131.967C155.388 131.798 155.582 131.731 155.842 131.766C156.058 131.795 156.208 131.875 156.292 132.006C156.376 132.136 156.408 132.273 156.389 132.416C156.369 132.567 156.298 132.689 156.177 132.782C156.107 132.836 155.987 132.897 155.816 132.964L155.622 133.04C155.529 133.076 155.455 133.112 155.4 133.148C155.302 133.213 155.235 133.29 155.2 133.38L156.231 133.519L156.2 133.743L154.905 133.569ZM157.204 132.762C157.309 132.776 157.394 132.758 157.461 132.708C157.528 132.657 157.567 132.591 157.578 132.511C157.587 132.44 157.568 132.372 157.519 132.305C157.471 132.239 157.389 132.198 157.274 132.182C157.16 132.167 157.074 132.185 157.015 132.237C156.956 132.289 156.921 132.355 156.91 132.434C156.898 132.523 156.922 132.597 156.981 132.656C157.04 132.715 157.115 132.75 157.204 132.762ZM157.092 133.699C157.202 133.714 157.297 133.696 157.378 133.647C157.458 133.597 157.506 133.514 157.522 133.396C157.539 133.274 157.514 133.176 157.448 133.102C157.382 133.029 157.29 132.985 157.173 132.969C157.06 132.953 156.963 132.973 156.883 133.028C156.802 133.083 156.754 133.168 156.739 133.282C156.726 133.38 156.747 133.47 156.803 133.55C156.859 133.631 156.955 133.68 157.092 133.699ZM156.869 132.81C156.807 132.773 156.76 132.733 156.728 132.69C156.669 132.61 156.646 132.514 156.661 132.402C156.68 132.261 156.748 132.147 156.863 132.06C156.979 131.972 157.13 131.941 157.317 131.967C157.498 131.991 157.634 132.058 157.724 132.167C157.814 132.276 157.85 132.395 157.833 132.522C157.817 132.64 157.774 132.731 157.705 132.796C157.666 132.833 157.608 132.866 157.533 132.896C157.606 132.943 157.662 132.993 157.701 133.045C157.772 133.144 157.799 133.264 157.78 133.405C157.757 133.571 157.682 133.704 157.555 133.805C157.428 133.905 157.263 133.942 157.059 133.914C156.875 133.889 156.726 133.819 156.613 133.702C156.499 133.585 156.455 133.432 156.481 133.242C156.496 133.13 156.536 133.037 156.602 132.963C156.667 132.889 156.756 132.838 156.869 132.81Z" fill="#A1A1A1"/>
<path fill-rule="evenodd" clip-rule="evenodd" d="M161.715 133.569C161.746 133.408 161.799 133.271 161.873 133.159C161.948 133.046 162.077 132.952 162.26 132.876L162.532 132.764C162.655 132.714 162.742 132.668 162.794 132.628C162.876 132.564 162.923 132.486 162.936 132.392C162.951 132.282 162.929 132.19 162.872 132.117C162.815 132.043 162.731 131.999 162.622 131.984C162.459 131.962 162.338 132.009 162.259 132.123C162.217 132.185 162.186 132.274 162.167 132.39L161.926 132.358C161.95 132.194 161.999 132.064 162.071 131.968C162.198 131.799 162.392 131.732 162.652 131.767C162.868 131.796 163.019 131.876 163.103 132.006C163.186 132.137 163.219 132.273 163.2 132.417C163.179 132.568 163.109 132.69 162.988 132.783C162.918 132.837 162.797 132.897 162.626 132.965L162.432 133.041C162.34 133.076 162.266 133.113 162.211 133.149C162.113 133.214 162.046 133.291 162.01 133.381L163.041 133.52L163.011 133.744L161.715 133.569ZM163.552 133.353C163.542 133.485 163.58 133.582 163.667 133.645C163.712 133.678 163.765 133.698 163.826 133.706C163.939 133.722 164.042 133.688 164.135 133.604C164.227 133.52 164.31 133.336 164.382 133.051C164.318 133.128 164.245 133.178 164.163 133.201C164.081 133.224 163.995 133.23 163.905 133.218C163.723 133.193 163.587 133.117 163.496 132.99C163.406 132.862 163.372 132.709 163.396 132.53C163.419 132.359 163.492 132.215 163.614 132.099C163.736 131.983 163.899 131.939 164.103 131.967C164.378 132.004 164.551 132.153 164.623 132.415C164.662 132.559 164.668 132.734 164.641 132.939C164.609 133.17 164.547 133.37 164.454 133.539C164.298 133.82 164.083 133.943 163.808 133.905C163.624 133.881 163.49 133.813 163.407 133.704C163.324 133.594 163.293 133.466 163.313 133.32L163.552 133.353ZM163.965 133.014C164.059 133.026 164.149 133.007 164.235 132.956C164.321 132.904 164.375 132.801 164.395 132.646C164.414 132.508 164.393 132.399 164.333 132.322C164.272 132.244 164.187 132.198 164.079 132.184C163.963 132.168 163.866 132.194 163.787 132.263C163.709 132.332 163.661 132.431 163.643 132.561C163.627 132.684 163.643 132.786 163.693 132.866C163.743 132.947 163.834 132.996 163.965 133.014Z" fill="#A1A1A1"/>
<path fill-rule="evenodd" clip-rule="evenodd" d="M169.664 132.697C169.664 132.697 169.664 132.697 169.664 132.697C169.665 132.697 169.666 132.698 169.667 132.698L169.664 132.697ZM169.667 132.698C169.761 132.738 169.831 132.801 169.876 132.886C169.921 132.971 169.936 133.07 169.921 133.182C169.897 133.362 169.818 133.501 169.684 133.599C169.55 133.696 169.374 133.73 169.156 133.701C168.933 133.67 168.779 133.587 168.695 133.451C168.611 133.315 168.581 133.159 168.604 132.983L168.852 133.017C168.846 133.14 168.857 133.232 168.885 133.292C168.933 133.4 169.038 133.464 169.198 133.486C169.323 133.503 169.428 133.483 169.512 133.426C169.597 133.37 169.646 133.289 169.661 133.183C169.678 133.053 169.651 132.957 169.578 132.894C169.506 132.832 169.399 132.791 169.257 132.772C169.241 132.77 169.225 132.768 169.209 132.766C169.193 132.764 169.176 132.763 169.159 132.761L169.188 132.552C169.212 132.558 169.232 132.562 169.249 132.565C169.265 132.569 169.283 132.571 169.303 132.574C169.391 132.586 169.466 132.582 169.527 132.561C169.634 132.526 169.696 132.445 169.713 132.318C169.726 132.224 169.702 132.147 169.642 132.087C169.582 132.027 169.508 131.991 169.419 131.979C169.261 131.958 169.144 131.996 169.07 132.093C169.028 132.146 168.998 132.227 168.979 132.333L168.745 132.301C168.764 132.161 168.808 132.045 168.878 131.954C168.998 131.792 169.18 131.727 169.423 131.759C169.616 131.785 169.759 131.848 169.853 131.948C169.947 132.048 169.983 132.179 169.961 132.342C169.945 132.458 169.901 132.548 169.829 132.612C169.784 132.651 169.73 132.68 169.665 132.697L169.667 132.698ZM170.947 131.968C171.191 132.001 171.354 132.125 171.436 132.341C171.499 132.508 171.513 132.727 171.476 132.998C171.442 133.254 171.375 133.461 171.276 133.619C171.132 133.845 170.935 133.941 170.684 133.907C170.457 133.876 170.302 133.755 170.217 133.543C170.147 133.367 170.131 133.14 170.168 132.863C170.197 132.648 170.25 132.468 170.326 132.322C170.468 132.049 170.675 131.931 170.947 131.968ZM170.713 133.691C170.836 133.707 170.941 133.666 171.029 133.567C171.117 133.468 171.181 133.27 171.221 132.973C171.249 132.758 171.247 132.578 171.213 132.433C171.179 132.287 171.086 132.204 170.934 132.184C170.794 132.165 170.683 132.217 170.601 132.339C170.518 132.462 170.46 132.651 170.425 132.907C170.399 133.099 170.399 133.257 170.425 133.379C170.464 133.566 170.56 133.67 170.713 133.691Z" fill="#A1A1A1"/>
<path fill-rule="evenodd" clip-rule="evenodd" d="M153.18 105.23C153.172 105.34 153.185 105.433 153.222 105.508C153.292 105.648 153.436 105.733 153.656 105.762C153.754 105.776 153.846 105.774 153.931 105.756C154.094 105.723 154.186 105.636 154.205 105.495C154.219 105.39 154.196 105.31 154.136 105.257C154.075 105.204 153.976 105.151 153.838 105.1L153.584 105.005C153.418 104.943 153.302 104.884 153.237 104.828C153.125 104.73 153.08 104.601 153.101 104.441C153.125 104.267 153.204 104.132 153.34 104.036C153.475 103.941 153.653 103.908 153.874 103.938C154.077 103.965 154.243 104.038 154.372 104.155C154.5 104.272 154.55 104.438 154.521 104.653L154.275 104.62C154.275 104.515 154.258 104.431 154.222 104.37C154.156 104.258 154.027 104.19 153.835 104.164C153.681 104.143 153.565 104.16 153.489 104.216C153.412 104.272 153.368 104.343 153.357 104.429C153.344 104.524 153.374 104.599 153.447 104.654C153.495 104.689 153.608 104.74 153.785 104.807L154.048 104.905C154.175 104.953 154.271 105.007 154.335 105.069C154.446 105.176 154.489 105.315 154.466 105.488C154.437 105.702 154.339 105.845 154.17 105.916C154.002 105.987 153.814 106.009 153.608 105.981C153.367 105.949 153.187 105.862 153.067 105.72C152.947 105.58 152.903 105.405 152.934 105.196L153.18 105.23Z" fill="#3C57AB"/>
<path fill-rule="evenodd" clip-rule="evenodd" d="M159.527 103.814L159.903 103.865L160.238 105.577L161.012 104.014L161.383 104.065L161.122 106.001L160.873 105.968L161.027 104.825C161.033 104.785 161.042 104.72 161.056 104.629C161.07 104.537 161.085 104.439 161.099 104.335L160.326 105.894L160.066 105.859L159.73 104.15L159.722 104.21C159.716 104.257 159.707 104.33 159.696 104.427C159.685 104.524 159.677 104.596 159.671 104.642L159.517 105.785L159.266 105.751L159.527 103.814Z" fill="#3C57AB"/>
<path fill-rule="evenodd" clip-rule="evenodd" d="M167.907 104.045L167.876 104.276L167.224 104.188L166.994 105.894L166.727 105.858L166.957 104.152L166.305 104.064L166.336 103.833L167.907 104.045Z" fill="#3C57AB"/>
<path fill-rule="evenodd" clip-rule="evenodd" d="M172.752 103.812L172.904 105.436L173.554 103.92L173.839 103.959L174.064 105.593L174.642 104.067L174.929 104.106L174.159 105.974L173.884 105.936L173.653 104.27L172.987 105.815L172.712 105.778L172.467 103.773L172.752 103.812Z" fill="#3C57AB"/>
<path fill-rule="evenodd" clip-rule="evenodd" d="M180.851 104.045L180.82 104.276L180.167 104.188L179.937 105.894L179.671 105.858L179.901 104.152L179.248 104.064L179.279 103.833L180.851 104.045Z" fill="#3C57AB"/>
<path fill-rule="evenodd" clip-rule="evenodd" d="M185.406 103.849L186.75 104.03L186.718 104.267L185.637 104.122L185.557 104.709L186.508 104.838L186.477 105.068L185.526 104.94L185.407 105.821L185.145 105.785L185.406 103.849Z" fill="#3C57AB"/>
<path fill-rule="evenodd" clip-rule="evenodd" d="M191.614 105.23C191.605 105.34 191.619 105.433 191.656 105.508C191.725 105.648 191.87 105.733 192.09 105.762C192.188 105.776 192.28 105.774 192.364 105.756C192.528 105.723 192.619 105.636 192.638 105.495C192.653 105.39 192.63 105.31 192.57 105.257C192.509 105.204 192.41 105.151 192.272 105.1L192.017 105.005C191.851 104.943 191.736 104.884 191.671 104.828C191.559 104.73 191.513 104.601 191.535 104.441C191.559 104.267 191.638 104.132 191.773 104.036C191.909 103.941 192.087 103.908 192.308 103.938C192.511 103.965 192.676 104.038 192.805 104.155C192.934 104.272 192.984 104.438 192.955 104.653L192.708 104.62C192.709 104.515 192.692 104.431 192.656 104.37C192.59 104.258 192.461 104.19 192.269 104.164C192.114 104.143 191.999 104.16 191.922 104.216C191.846 104.272 191.802 104.343 191.79 104.429C191.777 104.524 191.808 104.599 191.881 104.654C191.929 104.689 192.041 104.74 192.219 104.807L192.482 104.905C192.609 104.953 192.704 105.007 192.768 105.069C192.879 105.176 192.923 105.315 192.9 105.488C192.871 105.702 192.772 105.845 192.604 105.916C192.435 105.987 192.248 106.009 192.041 105.981C191.801 105.949 191.62 105.862 191.501 105.72C191.381 105.58 191.336 105.405 191.367 105.196L191.614 105.23Z" fill="#3C57AB"/>
<path fill-rule="evenodd" clip-rule="evenodd" d="M175.288 92.0589C175.187 91.8978 175.047 91.7635 174.867 91.656C174.688 91.5485 174.51 91.4855 174.335 91.4671C174.245 91.4576 174.152 91.4559 174.057 91.4621C173.963 91.4682 173.876 91.49 173.797 91.5274C173.717 91.5647 173.649 91.6166 173.591 91.683C173.533 91.7495 173.498 91.8385 173.486 91.9501C173.476 92.0458 173.488 92.1276 173.521 92.1955C173.554 92.2635 173.607 92.3255 173.679 92.3814C173.751 92.4373 173.838 92.4908 173.94 92.5418C174.042 92.5929 174.157 92.6466 174.286 92.7031C174.47 92.787 174.662 92.8783 174.861 92.9772C175.06 93.076 175.238 93.1982 175.395 93.3436C175.552 93.489 175.676 93.6619 175.768 93.8623C175.859 94.0627 175.89 94.3037 175.861 94.5854C175.827 94.9096 175.738 95.1836 175.593 95.4076C175.449 95.6315 175.267 95.8099 175.049 95.9428C174.831 96.0757 174.588 96.1656 174.32 96.2127C174.051 96.2597 173.779 96.2687 173.503 96.2397C173.099 96.1972 172.716 96.0857 172.353 95.9052C171.991 95.7247 171.698 95.4912 171.476 95.2045L172.464 94.3896C172.584 94.5742 172.751 94.7355 172.965 94.8735C173.179 95.0115 173.398 95.0922 173.621 95.1156C173.722 95.1263 173.821 95.126 173.919 95.1148C174.017 95.1036 174.104 95.0778 174.181 95.0375C174.258 94.9972 174.322 94.9395 174.373 94.8642C174.424 94.789 174.455 94.6955 174.467 94.5839C174.478 94.4776 174.461 94.3845 174.415 94.3045C174.37 94.2245 174.302 94.1488 174.21 94.0774C174.118 94.0059 174.001 93.9373 173.861 93.8714C173.72 93.8056 173.559 93.7336 173.379 93.6556C173.205 93.5782 173.035 93.4905 172.871 93.3926C172.707 93.2948 172.563 93.1763 172.441 93.0371C172.319 92.898 172.226 92.7351 172.162 92.5484C172.098 92.3617 172.08 92.1408 172.107 91.8857C172.14 91.5722 172.232 91.3105 172.383 91.1007C172.534 90.8909 172.72 90.7251 172.943 90.6034C173.165 90.4817 173.41 90.4013 173.677 90.3623C173.945 90.3232 174.211 90.3176 174.477 90.3456C174.796 90.3791 175.115 90.4718 175.435 90.6236C175.755 90.7754 176.028 90.9787 176.253 91.2335L175.288 92.0589Z" fill="white"/>
<path fill-rule="evenodd" clip-rule="evenodd" d="M178.381 96.0287L178.975 90.3848L180.346 90.5289L179.753 96.1729L178.381 96.0287Z" fill="white"/>
<path fill-rule="evenodd" clip-rule="evenodd" d="M187.142 93.2335C187.288 93.0205 187.378 92.7492 187.413 92.4197C187.447 92.0955 187.418 91.8171 187.327 91.5846C187.236 91.352 187.098 91.1575 186.913 91.001C186.728 90.8446 186.504 90.7217 186.242 90.6324C185.98 90.543 185.695 90.4822 185.387 90.4498L183.314 90.2319L182.721 95.8759L184.084 96.0192L184.308 93.8907L184.986 93.962C185.278 93.9927 185.563 93.9904 185.841 93.9551C186.119 93.9198 186.368 93.844 186.59 93.7276C186.812 93.6112 186.996 93.4465 187.142 93.2335ZM186.002 91.9491C186.047 92.0397 186.062 92.1514 186.048 92.2843C186.034 92.4171 185.996 92.5246 185.933 92.6067C185.871 92.6888 185.79 92.7516 185.692 92.7949C185.593 92.8383 185.484 92.8645 185.365 92.8734C185.246 92.8824 185.123 92.8802 184.995 92.8668L184.421 92.8065L184.561 91.4752L185.159 91.538C185.281 91.5509 185.399 91.5713 185.511 91.5992C185.624 91.6272 185.723 91.6698 185.808 91.7271C185.893 91.7845 185.958 91.8584 186.002 91.9491Z" fill="white"/>
<path d="M208.841 111.349H197.934C197.614 111.349 197.387 111.09 197.434 110.77C197.475 110.451 197.772 110.191 198.096 110.191H209.003C209.322 110.191 209.549 110.451 209.503 110.77C209.456 111.09 209.16 111.349 208.841 111.349Z" fill="#C2C2C2"/>
<path d="M208.083 116.939H197.176C196.857 116.939 196.63 116.68 196.676 116.36C196.718 116.041 197.014 115.781 197.338 115.781H208.245C208.564 115.781 208.791 116.041 208.745 116.36C208.699 116.675 208.402 116.939 208.083 116.939Z" fill="#C2C2C2"/>
<path d="M207.323 122.524H196.416C196.097 122.524 195.87 122.265 195.916 121.945C195.958 121.626 196.254 121.366 196.578 121.366H207.485C207.805 121.366 208.032 121.626 207.985 121.945C207.939 122.265 207.642 122.524 207.323 122.524Z" fill="#C2C2C2"/>
<path d="M157.485 82.4179C158.906 82.4179 160.064 83.5757 160.064 84.9975H161.014C161.014 83.0524 159.43 81.4731 157.489 81.4731C155.544 81.4731 153.965 83.057 153.965 84.9975C153.965 86.9427 155.549 88.5219 157.489 88.5219C157.753 88.5219 157.962 88.3089 157.962 88.0495C157.962 87.7855 157.749 87.5771 157.489 87.5771C156.067 87.5771 154.91 86.4193 154.91 84.9975C154.91 83.5757 156.063 82.4179 157.485 82.4179Z" fill="#C4DFFF"/>
<path d="M165.867 82.4179C167.289 82.4179 168.447 83.5757 168.447 84.9975H169.396C169.396 83.0524 167.813 81.4731 165.872 81.4731C163.927 81.4731 162.348 83.057 162.348 84.9975C162.348 86.9427 163.932 88.5219 165.872 88.5219C166.136 88.5219 166.344 88.3089 166.344 88.0495C166.344 87.7855 166.131 87.5771 165.872 87.5771C164.45 87.5771 163.292 86.4193 163.292 84.9975C163.288 83.5757 164.446 82.4179 165.867 82.4179Z" fill="#C4DFFF"/>
<path d="M174.246 82.4179C175.668 82.4179 176.826 83.5757 176.826 84.9975H177.775C177.775 83.0524 176.191 81.4731 174.251 81.4731C172.306 81.4731 170.727 83.057 170.727 84.9975C170.727 86.9427 172.31 88.5219 174.251 88.5219C174.515 88.5219 174.723 88.3089 174.723 88.0495C174.723 87.7855 174.51 87.5771 174.251 87.5771C172.829 87.5771 171.671 86.4193 171.671 84.9975C171.667 83.5757 172.825 82.4179 174.246 82.4179Z" fill="#C4DFFF"/>
<path d="M182.629 82.4179C184.051 82.4179 185.209 83.5757 185.209 84.9975H186.158C186.158 83.0524 184.574 81.4731 182.634 81.4731C180.689 81.4731 179.109 83.057 179.109 84.9975C179.109 86.9427 180.693 88.5219 182.634 88.5219C182.898 88.5219 183.106 88.3089 183.106 88.0495C183.106 87.7855 182.893 87.5771 182.634 87.5771C181.212 87.5771 180.054 86.4193 180.054 84.9975C180.05 83.5757 181.207 82.4179 182.629 82.4179Z" fill="#C4DFFF"/>
<path d="M191.006 82.4179C192.428 82.4179 193.586 83.5757 193.586 84.9975H194.535C194.535 83.0524 192.951 81.4731 191.011 81.4731C189.066 81.4731 187.486 83.057 187.486 84.9975C187.486 86.9427 189.07 88.5219 191.011 88.5219C191.275 88.5219 191.483 88.3089 191.483 88.0495C191.483 87.7855 191.27 87.5771 191.011 87.5771C189.589 87.5771 188.431 86.4193 188.431 84.9975C188.426 83.5757 189.584 82.4179 191.006 82.4179Z" fill="#C4DFFF"/>
<path d="M199.389 82.4179C200.811 82.4179 201.968 83.5757 201.968 84.9975H202.918C202.918 83.0524 201.334 81.4731 199.394 81.4731C197.448 81.4731 195.869 83.057 195.869 84.9975C195.869 86.9427 197.453 88.5219 199.394 88.5219C199.658 88.5219 199.866 88.3089 199.866 88.0495C199.866 87.7855 199.653 87.5771 199.394 87.5771C197.972 87.5771 196.814 86.4193 196.814 84.9975C196.809 83.5757 197.967 82.4179 199.389 82.4179Z" fill="#C4DFFF"/>
<path d="M207.768 82.4179C209.19 82.4179 210.347 83.5757 210.347 84.9975H211.297C211.297 83.0524 209.713 81.4731 207.772 81.4731C205.827 81.4731 204.248 83.057 204.248 84.9975C204.248 86.9427 205.832 88.5219 207.772 88.5219C208.036 88.5219 208.245 88.3089 208.245 88.0495C208.245 87.7855 208.032 87.5771 207.772 87.5771C206.351 87.5771 205.193 86.4193 205.193 84.9975C205.188 83.5757 206.346 82.4179 207.768 82.4179Z" fill="#C4DFFF"/>
<path opacity="0.16" fill-rule="evenodd" clip-rule="evenodd" d="M207.569 137.486C212.112 137.486 214.184 137.638 215.795 136.157C217.405 134.676 216.476 132.682 214.62 132.027C212.763 131.372 202.868 130.866 200.518 132.027C198.167 133.188 197.762 134.191 199.343 135.644C200.923 137.098 203.025 137.486 207.569 137.486Z" fill="url(#paint3_linear)"/>
<path opacity="0.16" fill-rule="evenodd" clip-rule="evenodd" d="M193.532 137.659C198.075 137.659 200.147 137.816 201.758 136.296C203.368 134.776 202.439 132.728 200.583 132.056C198.726 131.384 188.831 130.865 186.481 132.056C184.13 133.248 183.725 134.277 185.305 135.769C186.886 137.261 188.988 137.659 193.532 137.659Z" fill="url(#paint4_linear)"/>
<path fill-rule="evenodd" clip-rule="evenodd" d="M193.532 136.736C198.075 136.736 200.147 136.39 201.758 134.967C203.368 133.544 202.439 131.135 200.583 130.506C198.726 129.877 188.831 129.391 186.481 130.506C184.13 131.621 183.725 133.57 185.305 134.967C186.886 136.363 188.988 136.736 193.532 136.736Z" fill="url(#paint5_linear)"/>
<path fill-rule="evenodd" clip-rule="evenodd" d="M193.473 134.027C197.826 134.027 201.354 132.924 201.354 131.564C201.354 130.204 197.826 129.101 193.473 129.101C189.12 129.101 185.592 130.204 185.592 131.564C185.592 132.924 189.12 134.027 193.473 134.027Z" fill="url(#paint6_radial)"/>
<path fill-rule="evenodd" clip-rule="evenodd" d="M193.473 133.78C197.553 133.78 200.861 132.788 200.861 131.564C200.861 130.34 197.553 129.347 193.473 129.347C189.392 129.347 186.084 130.34 186.084 131.564C186.084 132.788 189.392 133.78 193.473 133.78Z" fill="url(#paint7_radial)"/>
<path fill-rule="evenodd" clip-rule="evenodd" d="M195.253 129.84L192.565 129.976L191.265 130.042C191.12 130.049 191.006 130.118 191.01 130.194C191.014 130.271 191.135 130.328 191.28 130.32L192.581 130.254C192.973 130.235 193.35 130.318 193.59 130.476C193.703 130.551 193.781 130.637 193.825 130.726L191.309 130.853C191.164 130.86 191.05 130.929 191.054 131.005C191.058 131.082 191.179 131.139 191.324 131.131L193.85 131.004C193.842 131.028 193.832 131.052 193.818 131.076C193.718 131.254 193.476 131.391 193.138 131.464C192.622 131.576 192.041 131.594 191.478 131.612L191.359 131.616C191.249 131.619 191.149 131.66 191.111 131.716C191.073 131.773 191.104 131.834 191.189 131.868L194.512 133.231C194.563 133.252 194.626 133.26 194.688 133.257C194.76 133.253 194.832 133.234 194.882 133.2C194.975 133.138 194.961 133.051 194.849 133.005L192.076 131.868C192.489 131.847 192.904 131.809 193.307 131.723C193.81 131.614 194.17 131.407 194.321 131.14C194.351 131.086 194.369 131.032 194.38 130.977L195.312 130.93C195.457 130.922 195.571 130.854 195.567 130.777C195.563 130.7 195.442 130.644 195.297 130.651L194.362 130.699C194.309 130.552 194.19 130.413 194.008 130.293C193.953 130.256 193.89 130.223 193.824 130.192L195.268 130.119C195.413 130.111 195.527 130.043 195.523 129.966C195.519 129.889 195.398 129.833 195.253 129.84Z" fill="#B5A34C"/>
<path fill-rule="evenodd" clip-rule="evenodd" d="M207.001 135.295C211.27 136.848 213.336 137.232 215.336 136.446C217.336 135.66 217.287 133.078 215.757 131.852C214.228 130.626 205.096 126.785 202.506 127.029C199.916 127.273 198.868 128.966 199.876 130.819C200.883 132.672 202.731 133.741 207.001 135.295Z" fill="url(#paint8_linear)"/>
<path fill-rule="evenodd" clip-rule="evenodd" d="M207.87 132.728C211.96 134.217 215.653 134.388 216.118 133.11C216.583 131.831 213.645 129.588 209.554 128.1C205.464 126.611 201.771 126.44 201.306 127.718C200.841 128.997 203.779 131.24 207.87 132.728Z" fill="url(#paint9_radial)"/>
<path fill-rule="evenodd" clip-rule="evenodd" d="M207.954 132.497C211.789 133.893 215.237 134.091 215.655 132.941C216.074 131.791 213.305 129.727 209.47 128.331C205.636 126.935 202.188 126.737 201.769 127.887C201.351 129.037 204.12 131.101 207.954 132.497Z" fill="url(#paint10_radial)"/>
<path fill-rule="evenodd" clip-rule="evenodd" d="M210.975 129.403L208.403 128.612L207.159 128.229C207.02 128.186 206.889 128.211 206.867 128.285C206.845 128.359 206.939 128.453 207.078 128.496L208.322 128.879C208.698 128.994 209.024 129.201 209.195 129.433C209.276 129.542 209.32 129.648 209.331 129.747L206.923 129.006C206.784 128.964 206.653 128.989 206.631 129.062C206.609 129.136 206.703 129.23 206.842 129.273L209.259 130.017C209.243 130.037 209.225 130.056 209.204 130.074C209.05 130.207 208.775 130.254 208.432 130.206C207.91 130.134 207.357 129.953 206.822 129.777L206.709 129.74C206.604 129.705 206.497 129.71 206.442 129.75C206.387 129.79 206.395 129.858 206.463 129.919L209.119 132.336C209.16 132.373 209.216 132.403 209.276 132.421C209.345 132.442 209.419 132.448 209.477 132.434C209.586 132.407 209.603 132.32 209.514 132.239L207.297 130.223C207.692 130.344 208.095 130.45 208.503 130.507C209.012 130.577 209.422 130.506 209.655 130.306C209.702 130.266 209.737 130.221 209.766 130.173L210.658 130.447C210.797 130.49 210.928 130.465 210.95 130.391C210.972 130.318 210.878 130.223 210.739 130.181L209.845 129.905C209.845 129.75 209.78 129.578 209.651 129.403C209.611 129.349 209.563 129.297 209.512 129.245L210.894 129.67C211.033 129.713 211.164 129.688 211.186 129.614C211.208 129.54 211.114 129.446 210.975 129.403Z" fill="#B5A34C"/>
<path opacity="0.1" fill-rule="evenodd" clip-rule="evenodd" d="M196.674 134.256C198.745 134.256 200.624 133.793 202.093 133.442C203.846 133.022 205.058 132.644 205.934 131.791C207.544 130.222 206.616 127.567 204.759 126.874C202.902 126.18 192.268 126.459 189.918 127.688C187.568 128.917 187.162 131.066 188.743 132.605C190.324 134.144 192.131 134.256 196.674 134.256Z" fill="url(#paint11_linear)"/>
<path fill-rule="evenodd" clip-rule="evenodd" d="M197.786 130.574C202.055 129.021 203.885 127.986 204.911 126.099C205.938 124.211 204.241 122.265 202.281 122.309C200.321 122.352 190.857 125.28 189.03 127.132C187.203 128.984 187.488 130.954 189.451 131.726C191.414 132.497 193.517 132.128 197.786 130.574Z" fill="url(#paint12_linear)"/>
<path fill-rule="evenodd" clip-rule="evenodd" d="M196.806 128.049C200.896 126.56 203.834 124.317 203.369 123.039C202.904 121.761 199.211 121.931 195.121 123.42C191.031 124.909 188.092 127.152 188.557 128.43C189.022 129.708 192.715 129.538 196.806 128.049Z" fill="url(#paint13_radial)"/>
<path fill-rule="evenodd" clip-rule="evenodd" d="M196.721 127.817C200.556 126.422 203.325 124.358 202.906 123.207C202.487 122.057 199.039 122.256 195.205 123.652C191.37 125.047 188.601 127.111 189.02 128.262C189.439 129.412 192.887 129.213 196.721 127.817Z" fill="url(#paint14_radial)"/>
<path fill-rule="evenodd" clip-rule="evenodd" d="M197.046 123.506L194.567 124.553L193.368 125.06C193.234 125.116 193.15 125.219 193.18 125.29C193.21 125.361 193.343 125.373 193.477 125.316L194.677 124.809C195.038 124.657 195.421 124.605 195.701 124.673C195.833 124.704 195.935 124.758 196.008 124.826L193.686 125.807C193.553 125.863 193.469 125.966 193.499 126.037C193.529 126.108 193.662 126.12 193.796 126.063L196.126 125.079C196.126 125.105 196.125 125.131 196.121 125.159C196.087 125.359 195.907 125.571 195.614 125.756C195.167 126.037 194.627 126.253 194.104 126.462L193.995 126.507C193.892 126.547 193.812 126.619 193.796 126.686C193.779 126.752 193.829 126.798 193.921 126.802L197.509 126.946C197.564 126.948 197.626 126.934 197.684 126.91C197.75 126.882 197.811 126.839 197.846 126.79C197.913 126.7 197.869 126.623 197.749 126.618L194.755 126.498C195.135 126.337 195.512 126.16 195.861 125.941C196.297 125.667 196.564 125.349 196.615 125.047C196.625 124.986 196.623 124.928 196.615 124.873L197.474 124.51C197.608 124.453 197.692 124.35 197.662 124.279C197.631 124.208 197.498 124.197 197.365 124.253L196.502 124.617C196.402 124.498 196.243 124.408 196.031 124.357C195.966 124.341 195.896 124.332 195.823 124.325L197.155 123.763C197.289 123.706 197.373 123.603 197.343 123.532C197.313 123.461 197.18 123.45 197.046 123.506Z" fill="#B5A34C"/>
<path fill-rule="evenodd" clip-rule="evenodd" d="M123.462 26.2388C123.11 26.1956 122.783 26.0661 122.484 25.8356C121.883 25.3895 121.774 24.7056 121.838 24.1773C121.867 23.9425 121.927 23.6966 122.035 23.4268C122.657 21.7602 123.721 20.4906 124.841 19.2576C126.303 17.6644 127.73 15.9924 128.047 13.4095C128.301 11.3402 127.869 10.2445 126.769 10.1093C125.785 9.98859 124.464 10.6755 123.338 11.9673C123.114 12.208 122.893 12.3149 122.658 12.286C122.379 12.2518 122.184 12.1385 122.101 11.9645C122.02 11.7757 121.98 11.6218 121.992 11.519C122.012 11.3576 122.091 11.2034 122.23 11.0417C123.512 9.4562 125.431 8.26178 127.559 8.52306C130.707 8.84997 131.774 11.9305 131.446 14.7207C131.179 16.8927 129.782 18.6875 128.332 20.4311C127.124 21.8917 125.956 23.4018 125.301 25.2133C125.011 25.997 124.24 26.3343 123.462 26.2388ZM122.935 31.7603C122.45 31.7008 122.053 31.4137 121.757 30.9155C121.475 30.4192 121.368 29.8399 121.449 29.1795C121.53 28.5191 121.775 27.983 122.168 27.5695C122.578 27.1432 123.032 26.9606 123.517 27.0201C124.001 27.0795 124.398 27.3666 124.677 27.8777C124.974 28.3758 125.081 28.9551 125 29.6155C124.919 30.2759 124.675 30.812 124.267 31.2237C123.873 31.6372 123.419 31.8197 122.935 31.7603Z" fill="#3792FC"/>
<path fill-rule="evenodd" clip-rule="evenodd" d="M137.056 29.6159C136.807 29.5941 136.562 29.6356 136.322 29.7507C135.841 29.9706 135.665 30.4267 135.632 30.801C135.618 30.9673 135.623 31.1459 135.658 31.348C135.843 32.59 136.391 33.6228 136.983 34.6385C137.759 35.9531 138.499 37.3169 138.339 39.1469C138.21 40.6129 137.752 41.3061 136.972 41.2379C136.275 41.1769 135.464 40.5088 134.876 39.4515C134.757 39.2526 134.619 39.1462 134.453 39.1317C134.256 39.1144 134.105 39.1641 134.022 39.2721C133.938 39.3905 133.887 39.4908 133.881 39.5636C133.871 39.6779 133.903 39.796 133.975 39.928C134.627 41.2109 135.777 42.3173 137.285 42.4492C139.506 42.6854 140.695 40.715 140.878 38.7404C141.013 37.2016 140.312 35.7573 139.566 34.3406C138.947 33.1549 138.361 31.9408 138.175 30.5939C138.09 30.0102 137.607 29.6641 137.056 29.6159ZM137.501 25.726C137.158 25.696 136.842 25.8359 136.564 26.1364C136.297 26.4378 136.137 26.822 136.096 27.2899C136.055 27.7577 136.146 28.1638 136.357 28.507C136.577 28.8615 136.864 29.0543 137.207 29.0843C137.55 29.1143 137.866 28.9743 138.135 28.6625C138.412 28.3621 138.572 27.9779 138.613 27.51C138.653 27.0421 138.563 26.6361 138.342 26.292C138.131 25.9487 137.844 25.756 137.501 25.726Z" fill="#BAD5F5"/>
<path fill-rule="evenodd" clip-rule="evenodd" d="M97.8895 19.3445C98.4502 16.6667 100.468 14.7098 102.739 15.2479C104.449 15.6491 105.545 17.4111 105.299 19.8605C105.067 22.1913 103.73 23.9859 102.181 25.744C100.697 27.4497 100.495 29.002 100.618 30.4355C100.644 30.7391 100.468 30.8031 100.194 30.6753C99.7486 30.4677 99.0956 29.7671 99.1682 28.4043C99.2363 27.1853 99.7724 26.0803 101.263 24.3153C102.474 22.8791 103.33 21.0892 103.498 19.2082C103.6 18.0052 103.411 16.3114 102.417 16.161C100.856 15.9332 99.4439 19.0062 99.0888 22.4053C99.0319 22.7957 98.9063 22.8414 98.6392 22.6543C98.0524 22.2139 97.5384 21.0361 97.8895 19.3445ZM100.632 31.8804C101.121 32.4418 101.265 33.0718 101.066 33.5421C100.868 34.0124 100.163 34.1838 99.5576 33.6932C98.9434 33.1775 98.7697 32.3877 99.016 31.8147C99.2624 31.2417 100.1 31.2779 100.632 31.8804Z" fill="#D3E7FF"/>
<path fill-rule="evenodd" clip-rule="evenodd" d="M78.9673 31.9933C78.7108 32.1856 78.3421 32.2818 77.8611 32.2818C77.4122 32.2818 76.9153 32.2097 76.3702 32.0654C75.8251 31.9211 75.2961 31.7688 74.7831 31.6085C74.2701 31.4482 73.8293 31.2959 73.4605 31.1516C73.0918 31.0073 72.8594 30.9352 72.7632 30.9352C72.5708 30.9352 72.3945 31.0154 72.2342 31.1757C72.0738 31.336 71.9937 31.5444 71.9937 31.8009C71.9937 32.1856 72.2742 32.5544 72.8353 32.9071C73.3964 33.2597 74.0457 33.5643 74.7831 33.8208C75.5206 34.0773 76.25 34.2777 76.9714 34.422C77.6928 34.5663 78.2138 34.6384 78.5344 34.6384C79.5604 34.6384 80.378 34.3579 80.9872 33.7968C81.5964 33.2357 81.901 32.362 81.901 31.1757C81.901 30.0855 81.7086 29.0996 81.3239 28.2179C80.9391 27.3362 80.4742 26.5106 79.9292 25.7411C79.3841 24.9716 78.7829 24.2181 78.1256 23.4807C77.4684 22.7432 76.8832 21.9737 76.3702 21.1722C75.8893 20.4668 75.5286 19.8897 75.2881 19.4408C75.0476 18.9919 74.8553 18.5431 74.711 18.0942C74.5667 17.6453 74.4224 17.1323 74.2781 16.5552C74.1339 15.978 73.9174 15.2406 73.6289 14.3429C73.4686 13.9581 73.2121 13.7657 72.8594 13.7657C72.6991 13.7657 72.5548 13.8299 72.4265 13.9581C72.2983 14.0864 72.2342 14.2787 72.2342 14.5352C72.2662 16.0742 72.4105 17.3968 72.667 18.503C72.9235 19.6091 73.2682 20.6431 73.701 21.605C74.1339 22.5669 74.6709 23.5288 75.3122 24.4906L77.5245 27.8091C77.6207 27.9374 77.7649 28.1458 77.9573 28.4343C78.1497 28.7229 78.334 29.0355 78.5104 29.3722C78.6867 29.7088 78.847 30.0535 78.9913 30.4062C79.1356 30.7589 79.2077 31.0795 79.2077 31.3681C79.2077 31.6246 79.1276 31.833 78.9673 31.9933ZM73.2438 11.6977C73.4041 11.4412 73.4843 11.2007 73.4843 10.9763C73.4843 10.6877 73.3961 10.4392 73.2198 10.2308C73.0434 10.0224 72.827 9.91821 72.5705 9.91821C72.282 9.91821 72.0415 10.0384 71.8491 10.2789C71.6567 10.5194 71.5605 10.7518 71.5605 10.9763C71.5605 11.2328 71.6567 11.4572 71.8491 11.6496C72.0415 11.842 72.2659 11.9381 72.5224 11.9381C72.811 11.9381 73.0515 11.858 73.2438 11.6977Z" fill="#96C7FF"/>
<path fill-rule="evenodd" clip-rule="evenodd" d="M68.1691 53.8666C68.0311 54.0139 67.813 54.1139 67.5147 54.1665C67.2364 54.2156 66.9204 54.2252 66.5666 54.1953C66.2129 54.1654 65.8682 54.1288 65.5326 54.0855C65.1969 54.0422 64.9069 53.996 64.6625 53.9468C64.4181 53.8977 64.2661 53.8783 64.2065 53.8889C64.0872 53.9099 63.9866 53.9789 63.9047 54.0958C63.8228 54.2127 63.7959 54.3507 63.824 54.5098C63.866 54.7483 64.0803 54.9463 64.4668 55.1036C64.8533 55.261 65.2891 55.3789 65.7744 55.4573C66.2598 55.5357 66.7339 55.5802 67.197 55.5908C67.6601 55.6014 67.9911 55.5892 68.1899 55.5541C68.8261 55.4419 69.3024 55.1786 69.6188 54.7641C69.9351 54.3495 70.0285 53.7745 69.8988 53.0389C69.7796 52.3629 69.5525 51.7726 69.2175 51.268C68.8826 50.7633 68.504 50.3022 68.0819 49.8847C67.6598 49.4671 67.2047 49.0657 66.7165 48.6803C66.2283 48.2949 65.7813 47.8817 65.3756 47.4408C65.0003 47.056 64.7135 46.7376 64.5153 46.4855C64.3172 46.2335 64.1488 45.9762 64.0103 45.7136C63.8717 45.4511 63.7262 45.1488 63.5736 44.8067C63.421 44.4646 63.2062 44.031 62.9291 43.5059C62.7877 43.2848 62.6076 43.1936 62.3889 43.2322C62.2895 43.2497 62.207 43.3052 62.1415 43.3988C62.076 43.4923 62.0573 43.6186 62.0853 43.7777C62.2735 44.7284 62.5076 45.5327 62.7875 46.1906C63.0675 46.8484 63.3943 47.4519 63.7679 48.001C64.1414 48.5501 64.5796 49.0878 65.0824 49.6141L66.817 51.4299C66.8906 51.4989 67.0029 51.6124 67.1537 51.7703C67.3046 51.9282 67.453 52.1018 67.5992 52.2913C67.7454 52.4808 67.8824 52.677 68.0105 52.8799C68.1385 53.0828 68.2183 53.2737 68.2498 53.4526C68.2779 53.6117 68.251 53.7497 68.1691 53.8666ZM62.4008 41.9078C62.4721 41.7313 62.4955 41.5734 62.471 41.4342C62.4394 41.2553 62.3576 41.1109 62.2255 41.0009C62.0933 40.891 61.9478 40.85 61.7887 40.8781C61.6098 40.9096 61.4738 41.0105 61.3808 41.1806C61.2878 41.3507 61.2536 41.5054 61.2782 41.6446C61.3062 41.8036 61.3904 41.9323 61.5307 42.0305C61.671 42.1288 61.8207 42.1639 61.9797 42.1358C62.1587 42.1043 62.299 42.0283 62.4008 41.9078Z" fill="#D3E7FF"/>
</g>
<defs>
<linearGradient id="paint0_linear" x1="257.787" y1="81.9102" x2="207.342" y2="124.239" gradientUnits="userSpaceOnUse">
<stop stop-color="#ECFFD6"/>
<stop offset="1" stop-color="#D7FFAC"/>
</linearGradient>
<linearGradient id="paint1_linear" x1="6.48242" y1="86.2532" x2="45.3655" y2="153.601" gradientUnits="userSpaceOnUse">
<stop stop-color="#ECFFD6"/>
<stop offset="1" stop-color="#CFF3A8"/>
</linearGradient>
<linearGradient id="paint2_linear" x1="193.102" y1="137.216" x2="224.58" y2="137.216" gradientUnits="userSpaceOnUse">
<stop/>
<stop offset="1" stop-opacity="0.01"/>
</linearGradient>
<linearGradient id="paint3_linear" x1="211.604" y1="137.49" x2="211.604" y2="134.723" gradientUnits="userSpaceOnUse">
<stop stop-color="white"/>
<stop offset="1" stop-color="#C6AB2A"/>
</linearGradient>
<linearGradient id="paint4_linear" x1="197.567" y1="137.664" x2="197.567" y2="134.824" gradientUnits="userSpaceOnUse">
<stop stop-color="white"/>
<stop offset="1" stop-color="#C6AB2A"/>
</linearGradient>
<linearGradient id="paint5_linear" x1="184.359" y1="129.84" x2="184.359" y2="136.736" gradientUnits="userSpaceOnUse">
<stop stop-color="#FFED42"/>
<stop offset="1" stop-color="#FBCF00"/>
</linearGradient>
<radialGradient id="paint6_radial" cx="0" cy="0" r="1" gradientUnits="userSpaceOnUse" gradientTransform="translate(193.473 131.564) rotate(5.16402) scale(8.37232 1.21185)">
<stop stop-color="#FFEA6C"/>
<stop offset="1" stop-color="#EEC80E"/>
</radialGradient>
<radialGradient id="paint7_radial" cx="0" cy="0" r="1" gradientUnits="userSpaceOnUse" gradientTransform="translate(193.473 131.564) rotate(4.95851) scale(7.66868 1.06628)">
<stop stop-color="#FFE970"/>
<stop offset="0.974982" stop-color="#FFD922"/>
</radialGradient>
<linearGradient id="paint8_linear" x1="200.74" y1="125.677" x2="198.382" y2="132.157" gradientUnits="userSpaceOnUse">
<stop stop-color="#FFED42"/>
<stop offset="1" stop-color="#FBCF00"/>
</linearGradient>
<radialGradient id="paint9_radial" cx="0" cy="0" r="1" gradientUnits="userSpaceOnUse" gradientTransform="translate(208.712 130.414) rotate(25.164) scale(8.37232 1.21185)">
<stop stop-color="#FFEA6C"/>
<stop offset="1" stop-color="#EEC80E"/>
</radialGradient>
<radialGradient id="paint10_radial" cx="0" cy="0" r="1" gradientUnits="userSpaceOnUse" gradientTransform="translate(208.712 130.414) rotate(24.9585) scale(7.66868 1.06628)">
<stop stop-color="#FFE970"/>
<stop offset="0.974982" stop-color="#FFD922"/>
</radialGradient>
<linearGradient id="paint11_linear" x1="201.54" y1="134.256" x2="201.54" y2="130.771" gradientUnits="userSpaceOnUse">
<stop stop-color="white"/>
<stop offset="1" stop-color="#C49342"/>
</linearGradient>
<linearGradient id="paint12_linear" x1="190.535" y1="128.379" x2="192.089" y2="132.648" gradientUnits="userSpaceOnUse">
<stop stop-color="#FFEF57"/>
<stop offset="1" stop-color="#ECC924"/>
</linearGradient>
<radialGradient id="paint13_radial" cx="0" cy="0" r="1" gradientUnits="userSpaceOnUse" gradientTransform="translate(195.963 125.735) rotate(-14.836) scale(8.37232 1.21185)">
<stop stop-color="#FFE13A"/>
<stop offset="1" stop-color="#FBD730"/>
</radialGradient>
<radialGradient id="paint14_radial" cx="0" cy="0" r="1" gradientUnits="userSpaceOnUse" gradientTransform="translate(195.963 125.735) rotate(-15.0415) scale(7.84656 1.09102)">
<stop stop-color="#FFE54C"/>
<stop offset="1" stop-color="#EFD12E"/>
</radialGradient>
</defs>
</svg>
