<svg width="481" height="272" viewBox="0 0 481 272" fill="none" xmlns="http://www.w3.org/2000/svg">
<mask id="mask0" mask-type="alpha" maskUnits="userSpaceOnUse" x="0" y="0" width="481" height="272">
<path d="M0.949219 8.21093C0.949219 3.79265 4.53094 0.210938 8.94922 0.210938H480.949V271.057H8.94921C4.53093 271.057 0.949219 267.476 0.949219 263.057V8.21093Z" fill="white"/>
</mask>
<g mask="url(#mask0)">
<path d="M30.3844 256.863C30.3844 256.863 -28.5887 260.245 20.4117 263.906C63.8885 267.155 114.576 266.933 151.766 265.615C167.605 265.053 213.272 265.545 252.141 268.851C305.146 273.358 488.885 270.624 455.385 263.689C439.172 260.333 504.726 260.211 471.324 256.856L30.3844 256.863Z" fill="#EFEEFB"/>
<path d="M30.3844 256.051C30.3844 256.051 -28.5887 196.515 20.4117 132.057C63.8885 74.8672 114.576 78.7763 151.766 101.984C167.605 111.869 213.272 103.203 252.141 45.0098C305.146 -34.3498 488.885 13.7813 455.385 135.88C439.172 194.967 504.726 197.115 471.324 256.176L30.3844 256.051Z" fill="#EFEEFB"/>
<path d="M183.773 52.8664L188.552 49.9941C189.614 49.3558 190.816 50.563 190.187 51.6176L187.294 56.3632C187.071 56.7378 187.071 57.2096 187.294 57.5842L190.187 62.3298C190.83 63.3844 189.614 64.5777 188.552 63.9533L183.773 61.081C183.395 60.859 182.92 60.859 182.543 61.081L177.763 63.9533C176.701 64.5916 175.499 63.3844 176.128 62.3298L179.021 57.5842C179.245 57.2096 179.245 56.7378 179.021 56.3632L176.128 51.6176C175.485 50.563 176.701 49.3697 177.763 49.9941L182.543 52.8664C182.92 53.0884 183.395 53.0884 183.773 52.8664Z" fill="#E6E5F4"/>
<path opacity="0.3" d="M280.995 -11.5005L286.417 -10.1684C287.619 -9.87702 287.619 -8.17027 286.417 -7.87888L280.995 -6.5468C280.562 -6.43579 280.24 -6.11663 280.129 -5.68648L278.787 -0.302643C278.493 0.890686 276.775 0.890686 276.481 -0.302643L275.139 -5.68648C275.028 -6.11663 274.706 -6.43579 274.273 -6.5468L268.851 -7.87888C267.649 -8.17027 267.649 -9.87702 268.851 -10.1684L274.273 -11.5005C274.706 -11.6115 275.028 -11.9307 275.139 -12.3608L276.481 -17.7447C276.775 -18.938 278.493 -18.938 278.787 -17.7447L280.129 -12.3608C280.226 -11.9307 280.562 -11.5976 280.995 -11.5005Z" fill="#5A79B1"/>
<path opacity="0.6" d="M417.37 126.742L418.796 127.089C419.117 127.172 419.117 127.616 418.796 127.686L417.37 128.032C417.259 128.06 417.175 128.143 417.147 128.254L416.797 129.67C416.714 129.989 416.266 129.989 416.197 129.67L415.847 128.254C415.819 128.143 415.735 128.06 415.624 128.032L414.198 127.686C413.877 127.602 413.877 127.158 414.198 127.089L415.624 126.742C415.735 126.714 415.819 126.631 415.847 126.52L416.197 125.105C416.28 124.785 416.728 124.785 416.797 125.105L417.147 126.52C417.175 126.631 417.259 126.714 417.37 126.742Z" fill="#5A79B1"/>
<path d="M300.284 184.761L305.145 185.554C305.532 185.616 305.875 185.779 306.144 186.002C306.428 186.238 306.632 186.545 306.719 186.881C306.746 186.983 306.763 187.087 306.765 187.194C306.769 187.29 306.763 187.388 306.748 187.486L295.564 254.733C295.419 255.599 294.51 256.186 293.518 256.069C293.486 256.065 293.452 256.06 293.421 256.054L288.56 255.261C288.528 255.255 288.497 255.251 288.463 255.245C287.485 255.04 286.812 254.197 286.957 253.329L298.141 186.082C298.158 185.984 298.183 185.89 298.219 185.8C298.257 185.702 298.305 185.606 298.364 185.518C298.555 185.228 298.846 185.003 299.193 184.869C299.521 184.742 299.897 184.698 300.284 184.761Z" fill="#B9B3F9"/>
<path d="M301.527 218.882L295.535 254.908C295.406 255.683 294.508 256.19 293.516 256.069C293.484 256.064 293.45 256.06 293.419 256.054L288.558 255.261C288.526 255.255 288.495 255.251 288.461 255.244C287.481 255.044 286.797 254.278 286.926 253.504L292.182 221.901C294.801 221.81 298.503 221.207 301.527 218.882Z" fill="#675AF6"/>
<path d="M297.065 192.652L296.938 193.416L305.543 194.827L305.671 194.064L297.065 192.652Z" fill="#9D95F8"/>
<path d="M296.631 195.227L296.504 195.991L305.111 197.398L305.238 196.634L296.631 195.227Z" fill="#9D95F8"/>
<path d="M296.108 198.353L295.98 199.117L304.586 200.527L304.713 199.763L296.108 198.353Z" fill="#9D95F8"/>
<path d="M295.33 203.067L295.203 203.831L303.81 205.24L303.937 204.476L295.33 203.067Z" fill="#9D95F8"/>
<path d="M294.486 208.086L294.359 208.85L302.966 210.259L303.093 209.495L294.486 208.086Z" fill="#9D95F8"/>
<path d="M293.197 215.816L293.07 216.58L301.677 217.987L301.804 217.223L293.197 215.816Z" fill="#9D95F8"/>
<path d="M292.006 223.053L291.879 223.817L300.485 225.228L300.612 224.464L292.006 223.053Z" fill="#9D95F8"/>
<path d="M290.94 229.468L290.812 230.232L299.419 231.641L299.546 230.877L290.94 229.468Z" fill="#9D95F8"/>
<path d="M297.459 190.171L297.332 190.935L305.939 192.342L306.066 191.578L297.459 190.171Z" fill="#9D95F8"/>
<path d="M297.736 188.525L297.609 189.289L306.216 190.698L306.343 189.934L297.736 188.525Z" fill="#9D95F8"/>
<path d="M297.994 186.972L297.867 187.736L306.474 189.144L306.601 188.38L297.994 186.972Z" fill="#9D95F8"/>
<path d="M298.062 186.559L306.67 187.964L306.75 187.486C306.766 187.388 306.771 187.29 306.766 187.194L298.218 185.8C298.182 185.89 298.157 185.983 298.14 186.082L298.062 186.559Z" fill="#9D95F8"/>
<path d="M298.367 185.519L306.722 186.882C306.636 186.548 306.432 186.241 306.148 186.003L299.194 184.868C298.851 185.004 298.559 185.229 298.367 185.519Z" fill="#9D95F8"/>
<path d="M309.101 184.761L313.962 185.554C314.349 185.617 314.692 185.78 314.961 186.003C315.245 186.239 315.449 186.545 315.535 186.881C315.562 186.984 315.577 187.088 315.581 187.194C315.585 187.29 315.579 187.388 315.564 187.487L304.381 254.734C304.236 255.6 303.327 256.186 302.334 256.069C302.303 256.065 302.269 256.061 302.237 256.055L297.376 255.262C297.345 255.255 297.313 255.251 297.28 255.245C296.302 255.041 295.628 254.197 295.774 253.329L306.957 186.082C306.974 185.984 306.999 185.89 307.035 185.8C307.073 185.702 307.121 185.606 307.18 185.519C307.372 185.229 307.662 185.003 308.009 184.87C308.337 184.742 308.714 184.699 309.101 184.761Z" fill="#B9B3F9"/>
<path d="M310.344 218.883L304.351 254.909C304.223 255.684 303.325 256.191 302.332 256.07C302.301 256.065 302.267 256.061 302.235 256.055L297.374 255.262C297.343 255.256 297.311 255.252 297.278 255.245C296.297 255.045 295.614 254.279 295.742 253.505L300.998 221.902C303.617 221.811 307.317 221.208 310.344 218.883Z" fill="#675AF6"/>
<path d="M305.885 192.652L305.758 193.416L314.364 194.827L314.491 194.064L305.885 192.652Z" fill="#9D95F8"/>
<path d="M305.451 195.235L305.324 195.999L313.931 197.406L314.058 196.642L305.451 195.235Z" fill="#9D95F8"/>
<path d="M304.924 198.353L304.797 199.117L313.403 200.527L313.53 199.763L304.924 198.353Z" fill="#9D95F8"/>
<path d="M304.135 203.059L304.008 203.823L312.615 205.232L312.742 204.468L304.135 203.059Z" fill="#9D95F8"/>
<path d="M303.295 208.088L303.168 208.852L311.775 210.26L311.902 209.496L303.295 208.088Z" fill="#9D95F8"/>
<path d="M302.014 215.847L301.887 216.611L310.492 218.021L310.62 217.257L302.014 215.847Z" fill="#9D95F8"/>
<path d="M300.811 223.013L300.684 223.777L309.29 225.185L309.418 224.421L300.811 223.013Z" fill="#9D95F8"/>
<path d="M299.744 229.461L299.617 230.225L308.224 231.634L308.351 230.87L299.744 229.461Z" fill="#9D95F8"/>
<path d="M306.279 190.202L306.152 190.966L314.758 192.376L314.885 191.612L306.279 190.202Z" fill="#9D95F8"/>
<path d="M306.568 188.558L306.441 189.322L315.048 190.729L315.175 189.965L306.568 188.558Z" fill="#9D95F8"/>
<path d="M306.803 186.973L306.676 187.737L315.283 189.144L315.409 188.38L306.803 186.973Z" fill="#9D95F8"/>
<path d="M306.883 186.56L315.49 187.964L315.57 187.486C315.587 187.388 315.591 187.29 315.587 187.194L307.038 185.8C307.003 185.89 306.977 185.984 306.961 186.082L306.883 186.56Z" fill="#9D95F8"/>
<path d="M307.184 185.52L315.538 186.883C315.452 186.549 315.248 186.242 314.964 186.004L308.01 184.869C307.665 185.005 307.373 185.23 307.184 185.52Z" fill="#9D95F8"/>
<path d="M276.863 249.32L276.854 254.207C276.854 254.597 276.749 254.958 276.568 255.259C276.379 255.574 276.106 255.822 275.788 255.962C275.691 256.006 275.588 256.037 275.483 256.058C275.388 256.077 275.289 256.087 275.191 256.087L206.492 255.924C205.606 255.922 204.878 255.125 204.834 254.134C204.834 254.101 204.832 254.069 204.832 254.038L204.84 249.151C204.84 249.119 204.84 249.086 204.843 249.055C204.889 248.063 205.621 247.27 206.506 247.272L275.205 247.435C275.304 247.435 275.403 247.446 275.498 247.467C275.603 247.487 275.704 247.521 275.803 247.565C276.12 247.704 276.394 247.955 276.581 248.272C276.76 248.568 276.865 248.929 276.863 249.32Z" fill="#675AF6"/>
<path d="M243.11 256.012L206.305 255.924C205.514 255.922 204.864 255.125 204.826 254.134C204.826 254.1 204.824 254.069 204.824 254.038L204.833 249.151C204.833 249.119 204.833 249.086 204.835 249.055C204.877 248.063 205.529 247.27 206.32 247.272L238.605 247.348C239.118 249.896 240.313 253.422 243.11 256.012Z" fill="#B9B3F9"/>
<path d="M267.728 247.414L267.707 256.068L268.487 256.07L268.508 247.416L267.728 247.414Z" fill="#9D95F8"/>
<path d="M265.083 247.408L265.062 256.062L265.843 256.064L265.864 247.41L265.083 247.408Z" fill="#9D95F8"/>
<path d="M261.91 247.401L261.887 256.055L262.667 256.057L262.69 247.403L261.91 247.401Z" fill="#9D95F8"/>
<path d="M257.056 247.389L257.035 256.043L257.816 256.045L257.836 247.391L257.056 247.389Z" fill="#9D95F8"/>
<path d="M251.915 247.378L251.895 256.032L252.675 256.034L252.696 247.38L251.915 247.378Z" fill="#9D95F8"/>
<path d="M244.036 247.359L244.016 256.013L244.796 256.015L244.817 247.361L244.036 247.359Z" fill="#9D95F8"/>
<path d="M236.665 247.342L236.645 255.996L237.425 255.998L237.446 247.344L236.665 247.342Z" fill="#9D95F8"/>
<path d="M230.081 247.326L230.059 255.98L230.839 255.982L230.862 247.328L230.081 247.326Z" fill="#9D95F8"/>
<path d="M270.239 247.42L270.219 256.074L270.999 256.076L271.02 247.422L270.239 247.42Z" fill="#9D95F8"/>
<path d="M271.893 247.425L271.875 256.079L272.655 256.08L272.674 247.426L271.893 247.425Z" fill="#9D95F8"/>
<path d="M273.509 247.428L273.488 256.082L274.269 256.083L274.289 247.429L273.509 247.428Z" fill="#9D95F8"/>
<path d="M274.712 247.432L274.695 256.086L275.183 256.088C275.284 256.088 275.381 256.077 275.476 256.059L275.492 247.465C275.398 247.444 275.299 247.434 275.2 247.434L274.712 247.432Z" fill="#9D95F8"/>
<path d="M275.792 247.56L275.777 255.962C276.097 255.822 276.368 255.575 276.558 255.258L276.57 248.267C276.383 247.95 276.112 247.7 275.792 247.56Z" fill="#9D95F8"/>
<path d="M269.535 240.65L269.526 245.537C269.526 245.927 269.421 246.288 269.24 246.589C269.051 246.904 268.778 247.152 268.46 247.292C268.363 247.336 268.26 247.367 268.155 247.388C268.06 247.407 267.961 247.417 267.863 247.417L199.163 247.254C198.278 247.252 197.55 246.455 197.506 245.464C197.506 245.431 197.504 245.399 197.504 245.368L197.512 240.481C197.512 240.449 197.512 240.416 197.514 240.385C197.561 239.393 198.293 238.6 199.178 238.603L267.877 238.765C267.921 238.765 267.966 238.767 268.008 238.772C268.027 238.772 268.046 238.774 268.065 238.778C268.086 238.78 268.107 238.784 268.125 238.786C268.14 238.788 268.155 238.792 268.17 238.795C268.275 238.815 268.376 238.849 268.473 238.893C268.487 238.899 268.502 238.905 268.517 238.913C268.531 238.92 268.546 238.926 268.559 238.934C268.586 238.949 268.616 238.966 268.643 238.98C268.658 238.991 268.674 239.001 268.691 239.012C268.706 239.02 268.719 239.028 268.733 239.041C268.761 239.057 268.786 239.076 268.811 239.097C268.841 239.12 268.868 239.145 268.897 239.17C268.918 239.189 268.942 239.21 268.963 239.231C268.963 239.231 268.965 239.233 268.967 239.235C268.982 239.249 268.994 239.264 269.009 239.279C269.051 239.323 269.091 239.37 269.129 239.418C269.141 239.433 269.152 239.448 269.162 239.462C269.173 239.477 269.184 239.492 269.194 239.508C269.215 239.54 269.236 239.571 269.255 239.604C269.432 239.901 269.535 240.262 269.535 240.65Z" fill="#675AF6"/>
<path d="M235.782 247.339L198.977 247.252C198.186 247.25 197.536 246.452 197.498 245.461C197.498 245.428 197.496 245.396 197.496 245.365L197.505 240.478C197.505 240.447 197.505 240.413 197.507 240.382C197.549 239.391 198.201 238.598 198.992 238.598L231.275 238.675C231.289 238.746 231.304 238.817 231.319 238.888C231.857 241.417 233.06 244.821 235.782 247.339Z" fill="#B9B3F9"/>
<path d="M260.388 238.743L260.367 247.397L261.148 247.399L261.168 238.745L260.388 238.743Z" fill="#9D95F8"/>
<path d="M257.755 238.735L257.734 247.389L258.515 247.391L258.535 238.737L257.755 238.735Z" fill="#9D95F8"/>
<path d="M254.579 238.728L254.559 247.382L255.339 247.384L255.36 238.73L254.579 238.728Z" fill="#9D95F8"/>
<path d="M249.728 238.718L249.707 247.372L250.487 247.374L250.508 238.72L249.728 238.718Z" fill="#9D95F8"/>
<path d="M244.585 238.705L244.566 247.359L245.347 247.361L245.365 238.707L244.585 238.705Z" fill="#9D95F8"/>
<path d="M236.71 238.686L236.688 247.34L237.468 247.342L237.491 238.688L236.71 238.686Z" fill="#9D95F8"/>
<path d="M229.337 238.669L229.316 247.323L230.097 247.325L230.117 238.671L229.337 238.669Z" fill="#9D95F8"/>
<path d="M222.749 238.656L222.73 247.31L223.511 247.312L223.529 238.658L222.749 238.656Z" fill="#9D95F8"/>
<path d="M262.911 238.749L262.891 247.403L263.671 247.405L263.691 238.751L262.911 238.749Z" fill="#9D95F8"/>
<path d="M264.568 238.753L264.547 247.407L265.327 247.409L265.348 238.755L264.568 238.753Z" fill="#9D95F8"/>
<path d="M266.181 238.757L266.16 247.411L266.941 247.412L266.961 238.759L266.181 238.757Z" fill="#9D95F8"/>
<path d="M267.376 238.76L267.359 247.414H267.847C267.948 247.414 268.045 247.404 268.14 247.385L268.157 238.792C268.062 238.771 267.963 238.76 267.864 238.76H267.376Z" fill="#9D95F8"/>
<path d="M268.464 238.888L268.449 247.287C268.769 247.147 269.04 246.901 269.23 246.584L269.242 239.593C269.055 239.278 268.782 239.03 268.464 238.888Z" fill="#9D95F8"/>
<path d="M273.099 232.214L273.091 237.102C273.091 237.492 272.986 237.853 272.805 238.154C272.615 238.469 272.342 238.719 272.024 238.857C271.928 238.901 271.825 238.932 271.719 238.953C271.623 238.972 271.526 238.982 271.427 238.982L202.726 238.821C202.45 238.821 202.19 238.742 201.96 238.606C201.474 238.316 201.127 237.761 201.075 237.114C201.073 237.087 201.071 237.058 201.069 237.031C201.069 237 201.066 236.966 201.066 236.935L201.075 232.048C201.075 232.016 201.075 231.983 201.077 231.952C201.123 230.96 201.855 230.167 202.741 230.169L271.44 230.33C271.541 230.33 271.637 230.341 271.732 230.361C271.837 230.382 271.938 230.416 272.037 230.46C272.355 230.599 272.626 230.85 272.815 231.167C272.994 231.465 273.099 231.826 273.099 232.214Z" fill="#675AF6"/>
<path d="M239.355 238.907L202.549 238.819C202.303 238.819 202.07 238.74 201.866 238.604C201.432 238.314 201.123 237.761 201.075 237.114C201.073 237.087 201.071 237.058 201.069 237.031C201.069 237 201.066 236.966 201.066 236.935L201.075 232.048C201.075 232.016 201.075 231.983 201.077 231.952C201.119 230.96 201.771 230.167 202.562 230.169L234.847 230.245C235.343 232.724 236.488 236.127 239.125 238.696C239.203 238.765 239.277 238.836 239.355 238.907Z" fill="#B9B3F9"/>
<path d="M274.761 223.565L274.753 228.453C274.753 228.843 274.648 229.204 274.467 229.504C274.278 229.819 274.004 230.07 273.687 230.208C273.59 230.251 273.487 230.283 273.382 230.304C273.285 230.322 273.188 230.333 273.089 230.333L204.39 230.17C203.504 230.168 202.777 229.371 202.733 228.379C202.733 228.346 202.73 228.315 202.73 228.283L202.739 223.396C202.739 223.365 202.739 223.332 202.741 223.3C202.783 222.382 203.412 221.635 204.207 221.531C204.272 221.522 204.337 221.518 204.405 221.518L273.104 221.681C273.205 221.681 273.302 221.691 273.396 221.712C273.501 221.733 273.602 221.766 273.701 221.81C274.019 221.95 274.292 222.2 274.479 222.518C274.658 222.814 274.763 223.175 274.761 223.565Z" fill="#675AF6"/>
<path d="M241.016 230.258L204.211 230.17C203.42 230.168 202.77 229.371 202.733 228.379C202.733 228.346 202.73 228.315 202.73 228.283L202.739 223.396C202.739 223.365 202.739 223.332 202.741 223.3C202.779 222.384 203.34 221.635 204.051 221.531C204.108 221.522 204.167 221.518 204.226 221.518L236.511 221.593C236.511 221.597 236.513 221.604 236.513 221.608C237.026 224.152 238.223 227.67 241.016 230.258Z" fill="#B9B3F9"/>
<path d="M269.724 214.911L269.716 219.798C269.716 220.188 269.611 220.549 269.43 220.85C269.24 221.165 268.967 221.413 268.649 221.553C268.553 221.597 268.45 221.628 268.344 221.649C268.313 221.655 268.279 221.661 268.248 221.666C268.231 221.668 268.212 221.67 268.193 221.672C268.176 221.674 268.157 221.676 268.138 221.676C268.109 221.678 268.079 221.678 268.05 221.678L199.351 221.515C198.465 221.513 197.738 220.716 197.694 219.725C197.694 219.694 197.691 219.66 197.691 219.629L197.7 214.742C197.7 214.708 197.7 214.677 197.702 214.646C197.702 214.618 197.704 214.593 197.706 214.566C197.773 213.769 198.287 213.112 198.956 212.92C198.972 212.914 198.989 212.911 199.006 212.905C199.122 212.876 199.242 212.861 199.366 212.861L268.065 213.024C268.115 213.024 268.166 213.028 268.214 213.032C268.237 213.037 268.258 213.039 268.281 213.041C268.307 213.045 268.332 213.051 268.359 213.055C268.464 213.076 268.565 213.11 268.664 213.153C268.982 213.293 269.255 213.544 269.442 213.861C269.621 214.159 269.724 214.522 269.724 214.911Z" fill="#675AF6"/>
<path d="M235.977 221.603L199.172 221.515C198.381 221.513 197.731 220.716 197.694 219.725C197.694 219.694 197.691 219.66 197.691 219.629L197.7 214.742C197.7 214.708 197.7 214.677 197.702 214.646C197.702 214.618 197.704 214.593 197.706 214.566C197.767 213.75 198.245 213.085 198.861 212.907C198.882 212.899 198.903 212.895 198.924 212.891C199.01 212.872 199.096 212.861 199.187 212.861L231.472 212.936C231.476 212.957 231.48 212.976 231.485 212.997C232.002 215.537 233.197 219.02 235.961 221.588C235.967 221.593 235.973 221.599 235.977 221.603Z" fill="#B9B3F9"/>
<path d="M269.595 206.317L269.587 211.204C269.587 211.595 269.482 211.956 269.301 212.256C269.112 212.573 268.838 212.82 268.518 212.959C268.443 212.993 268.363 213.02 268.281 213.041H268.279C268.255 213.047 268.234 213.051 268.213 213.055C268.119 213.074 268.02 213.085 267.921 213.085L199.222 212.924C199.151 212.924 199.077 212.918 199.008 212.907C198.98 212.905 198.953 212.899 198.925 212.893C198.179 212.738 197.602 212.012 197.565 211.133C197.565 211.1 197.562 211.069 197.562 211.037L197.571 206.15C197.571 206.117 197.571 206.085 197.573 206.054C197.619 205.063 198.351 204.27 199.237 204.272L267.936 204.435C267.98 204.435 268.024 204.437 268.066 204.441C268.085 204.443 268.104 204.445 268.123 204.447C268.144 204.449 268.165 204.454 268.184 204.458C268.199 204.46 268.213 204.464 268.228 204.466C268.333 204.487 268.434 204.52 268.533 204.564C268.548 204.57 268.56 204.577 268.577 204.585C268.592 204.591 268.605 204.598 268.619 204.606C268.647 204.62 268.676 204.637 268.703 204.652C268.733 204.671 268.765 204.689 268.794 204.71C268.821 204.729 268.847 204.748 268.872 204.767C268.901 204.79 268.929 204.815 268.956 204.84C268.979 204.858 269 204.877 269.021 204.9C269.021 204.9 269.023 204.902 269.025 204.904C269.04 204.917 269.055 204.934 269.067 204.948C269.109 204.992 269.149 205.04 269.187 205.088C269.2 205.103 269.21 205.117 269.221 205.132C269.231 205.148 269.242 205.161 269.252 205.178C269.274 205.209 269.295 205.24 269.313 205.274C269.492 205.566 269.595 205.929 269.595 206.317Z" fill="#675AF6"/>
<path d="M235.851 213.009L199.045 212.922C199.016 212.922 198.986 212.92 198.957 212.917C198.926 212.915 198.894 212.911 198.862 212.905C198.156 212.792 197.6 212.043 197.565 211.129C197.565 211.096 197.562 211.064 197.562 211.033L197.571 206.146C197.571 206.112 197.571 206.081 197.573 206.05C197.615 205.059 198.267 204.266 199.058 204.266L231.341 204.341C231.356 204.412 231.37 204.483 231.385 204.554C231.915 207.062 233.104 210.432 235.779 212.945C235.806 212.968 235.827 212.988 235.851 213.009Z" fill="#B9B3F9"/>
<path d="M273.16 197.885L273.151 202.772C273.151 203.163 273.046 203.524 272.865 203.824C272.676 204.139 272.402 204.388 272.085 204.527C271.988 204.571 271.885 204.602 271.78 204.623C271.685 204.642 271.586 204.653 271.488 204.653L202.788 204.49C202.513 204.49 202.252 204.41 202.023 204.275C201.537 203.985 201.192 203.43 201.137 202.783C201.135 202.756 201.133 202.726 201.131 202.699C201.131 202.668 201.129 202.635 201.129 202.603L201.137 197.716C201.137 197.685 201.139 197.651 201.139 197.62C201.186 196.629 201.918 195.836 202.803 195.838L271.502 195.999C271.603 195.999 271.7 196.009 271.795 196.03C271.9 196.051 272.001 196.084 272.1 196.128C272.417 196.268 272.691 196.518 272.878 196.835C273.055 197.134 273.16 197.497 273.16 197.885Z" fill="#675AF6"/>
<path d="M239.409 204.577L202.604 204.492C202.358 204.492 202.127 204.412 201.92 204.277C201.487 203.987 201.178 203.434 201.13 202.787C201.127 202.76 201.125 202.73 201.123 202.703C201.123 202.672 201.121 202.639 201.121 202.607L201.13 197.72C201.13 197.689 201.132 197.655 201.132 197.624C201.174 196.633 201.828 195.84 202.617 195.84L234.902 195.915C235.398 198.394 236.542 201.8 239.18 204.367C239.26 204.435 239.333 204.506 239.409 204.577Z" fill="#B9B3F9"/>
<path d="M278.789 189.243L278.78 194.131C278.78 194.521 278.675 194.882 278.494 195.182C278.305 195.498 278.031 195.746 277.714 195.886C277.617 195.93 277.514 195.961 277.409 195.982C277.314 196 277.215 196.011 277.116 196.011L208.417 195.848C207.532 195.846 206.804 195.049 206.76 194.058C206.76 194.026 206.758 193.993 206.758 193.962L206.766 189.074C206.766 189.043 206.766 189.01 206.768 188.978C206.81 188.062 207.439 187.313 208.234 187.209C208.3 187.2 208.365 187.196 208.43 187.196L277.129 187.359C277.23 187.359 277.327 187.37 277.421 187.39C277.527 187.411 277.628 187.445 277.724 187.488C278.042 187.628 278.315 187.879 278.503 188.196C278.686 188.492 278.789 188.855 278.789 189.243Z" fill="#675AF6"/>
<path d="M245.036 195.935L208.231 195.848C207.44 195.846 206.79 195.048 206.752 194.057C206.752 194.026 206.75 193.993 206.75 193.961L206.758 189.074C206.758 189.043 206.758 189.009 206.761 188.978C206.798 188.062 207.36 187.313 208.071 187.208C208.128 187.2 208.187 187.196 208.246 187.196L240.531 187.271C240.531 187.275 240.533 187.279 240.533 187.286C241.048 189.831 242.243 193.35 245.036 195.935Z" fill="#B9B3F9"/>
<path d="M269.789 180.581L269.78 185.468C269.78 185.858 269.675 186.219 269.494 186.52C269.305 186.835 269.031 187.083 268.714 187.223C268.617 187.267 268.514 187.298 268.409 187.319C268.377 187.325 268.344 187.332 268.312 187.336C268.287 187.34 268.259 187.342 268.234 187.344C268.222 187.344 268.209 187.346 268.196 187.348C268.169 187.348 268.144 187.35 268.116 187.35L199.417 187.188C198.532 187.185 197.804 186.388 197.76 185.397C197.76 185.366 197.758 185.332 197.758 185.301L197.766 180.414C197.766 180.382 197.768 180.349 197.768 180.318C197.815 179.327 198.547 178.534 199.432 178.536L268.131 178.698C268.161 178.698 268.19 178.698 268.219 178.703C268.289 178.707 268.358 178.717 268.424 178.73C268.529 178.751 268.63 178.784 268.729 178.828C268.779 178.851 268.827 178.874 268.872 178.901C268.901 178.918 268.93 178.934 268.958 178.953C268.96 178.953 268.964 178.955 268.966 178.959C268.994 178.978 269.023 178.999 269.05 179.02C269.057 179.022 269.061 179.026 269.065 179.03C269.09 179.049 269.116 179.07 269.139 179.091C269.198 179.141 269.252 179.195 269.305 179.256C269.322 179.272 269.336 179.291 269.351 179.31C269.353 179.312 269.357 179.316 269.36 179.32C269.37 179.331 269.378 179.343 269.389 179.356C269.391 179.358 269.393 179.36 269.395 179.364C269.412 179.385 269.429 179.408 269.444 179.433C269.467 179.466 269.488 179.5 269.509 179.535C269.686 179.829 269.789 180.19 269.789 180.581Z" fill="#675AF6"/>
<path d="M236.044 187.273L199.239 187.186C198.448 187.184 197.798 186.386 197.76 185.395C197.76 185.364 197.758 185.331 197.758 185.299L197.766 180.412C197.766 180.381 197.768 180.347 197.768 180.316C197.81 179.325 198.465 178.532 199.253 178.532L231.538 178.609C231.551 178.674 231.566 178.74 231.58 178.809C232.111 181.336 233.312 184.74 236.027 187.261C236.033 187.263 236.04 187.269 236.044 187.273Z" fill="#B9B3F9"/>
<path d="M274.851 172.138L274.843 177.025C274.843 177.416 274.737 177.777 274.557 178.077C274.367 178.392 274.094 178.641 273.776 178.78C273.679 178.824 273.576 178.855 273.471 178.876C273.374 178.895 273.278 178.906 273.179 178.906L204.48 178.743C204.213 178.743 203.96 178.67 203.737 178.54C203.237 178.255 202.879 177.689 202.827 177.027C202.825 177.002 202.822 176.977 202.822 176.95C202.822 176.919 202.82 176.886 202.82 176.854L202.829 171.967C202.829 171.934 202.829 171.902 202.831 171.871C202.873 170.953 203.502 170.206 204.297 170.101C204.362 170.093 204.427 170.089 204.495 170.089L273.194 170.252C273.295 170.252 273.391 170.262 273.486 170.283C273.591 170.304 273.692 170.337 273.791 170.381C274.109 170.521 274.38 170.771 274.569 171.088C274.748 171.387 274.853 171.75 274.851 172.138Z" fill="#675AF6"/>
<path d="M241.102 178.83L204.297 178.743C204.06 178.743 203.834 178.67 203.635 178.54C203.189 178.254 202.869 177.689 202.823 177.029C202.821 177.004 202.819 176.979 202.819 176.952C202.819 176.921 202.816 176.888 202.816 176.856L202.825 171.969C202.825 171.936 202.825 171.904 202.827 171.873C202.865 170.957 203.426 170.208 204.137 170.103C204.194 170.095 204.253 170.091 204.312 170.091L236.597 170.166C236.597 170.17 236.599 170.174 236.599 170.181C237.098 172.664 238.246 176.067 240.89 178.632C240.962 178.697 241.031 178.764 241.102 178.83Z" fill="#B9B3F9"/>
<path d="M269.818 163.486L269.81 168.373C269.81 168.763 269.704 169.124 269.524 169.425C269.334 169.742 269.061 169.99 268.743 170.128C268.646 170.172 268.543 170.203 268.438 170.224C268.407 170.23 268.373 170.236 268.341 170.241C268.325 170.243 268.306 170.245 268.287 170.247C268.27 170.249 268.251 170.249 268.232 170.251C268.203 170.253 268.173 170.253 268.144 170.253L199.445 170.09C198.559 170.088 197.831 169.291 197.787 168.3C197.787 168.267 197.785 168.235 197.785 168.204L197.794 163.317C197.794 163.285 197.794 163.252 197.796 163.221C197.842 162.229 198.574 161.436 199.459 161.438L268.158 161.601C268.259 161.601 268.356 161.612 268.451 161.633C268.556 161.653 268.657 161.687 268.756 161.731C269.073 161.87 269.347 162.121 269.534 162.438C269.715 162.734 269.818 163.095 269.818 163.486Z" fill="#675AF6"/>
<path d="M236.071 170.176L199.266 170.09C198.475 170.088 197.825 169.291 197.787 168.3C197.787 168.267 197.785 168.235 197.785 168.204L197.794 163.317C197.794 163.285 197.794 163.252 197.796 163.221C197.838 162.229 198.49 161.436 199.281 161.438L231.566 161.514C232.075 164.06 233.267 167.576 236.054 170.166C236.061 170.168 236.065 170.172 236.071 170.176Z" fill="#B9B3F9"/>
<path d="M263.966 230.31L263.945 238.964L264.726 238.966L264.746 230.312L263.966 230.31Z" fill="#9D95F8"/>
<path d="M261.323 230.303L261.305 238.957L262.085 238.959L262.103 230.305L261.323 230.303Z" fill="#9D95F8"/>
<path d="M258.144 230.296L258.125 238.95L258.905 238.951L258.924 230.297L258.144 230.296Z" fill="#9D95F8"/>
<path d="M253.294 230.285L253.273 238.938L254.054 238.94L254.074 230.286L253.294 230.285Z" fill="#9D95F8"/>
<path d="M248.153 230.272L248.133 238.926L248.913 238.928L248.934 230.274L248.153 230.272Z" fill="#9D95F8"/>
<path d="M240.282 230.255L240.262 238.909L241.042 238.911L241.063 230.257L240.282 230.255Z" fill="#9D95F8"/>
<path d="M232.909 230.236L232.891 238.89L233.671 238.892L233.689 230.238L232.909 230.236Z" fill="#9D95F8"/>
<path d="M226.325 230.221L226.305 238.875L227.085 238.877L227.106 230.223L226.325 230.221Z" fill="#9D95F8"/>
<path d="M266.478 230.315L266.457 238.969L267.237 238.971L267.258 230.317L266.478 230.315Z" fill="#9D95F8"/>
<path d="M268.139 230.321L268.121 238.975L268.901 238.976L268.92 230.322L268.139 230.321Z" fill="#9D95F8"/>
<path d="M269.743 230.324L269.723 238.978L270.503 238.98L270.524 230.326L269.743 230.324Z" fill="#9D95F8"/>
<path d="M270.948 230.325L270.934 238.979L271.422 238.981C271.523 238.981 271.619 238.971 271.714 238.952L271.731 230.359C271.636 230.338 271.537 230.327 271.438 230.327L270.948 230.325Z" fill="#9D95F8"/>
<path d="M272.034 230.455L272.02 238.856C272.339 238.716 272.611 238.47 272.8 238.153L272.812 231.162C272.623 230.845 272.352 230.594 272.034 230.455Z" fill="#9D95F8"/>
<path d="M241.943 221.604L241.922 230.258L242.702 230.26L242.723 221.606L241.943 221.604Z" fill="#9D95F8"/>
<path d="M234.567 221.585L234.547 230.239L235.327 230.241L235.348 221.587L234.567 221.585Z" fill="#9D95F8"/>
<path d="M227.982 221.571L227.961 230.225L228.741 230.226L228.762 221.572L227.982 221.571Z" fill="#9D95F8"/>
<path d="M268.898 230.321L268.915 221.667L268.229 221.665C268.265 221.661 268.303 221.656 268.338 221.648L268.355 213.055C268.307 213.044 268.258 213.038 268.21 213.032L268.225 204.645H268.53L268.515 212.959C268.835 212.819 269.106 212.573 269.295 212.255L269.308 205.265C269.152 205.004 268.938 204.791 268.69 204.645H268.963L268.98 195.991L268.2 195.989L268.185 204.453C268.103 204.438 268.021 204.43 267.935 204.43L267.447 204.428L267.43 213.082H267.575L267.558 221.675L268.046 221.677C268.075 221.677 268.105 221.675 268.134 221.673L268.118 230.319L268.898 230.321Z" fill="#9D95F8"/>
<path d="M269.802 221.668L269.781 230.322L270.562 230.324L270.582 221.67L269.802 221.668Z" fill="#9D95F8"/>
<path d="M271.41 221.672L271.387 230.326L272.167 230.328L272.19 221.674L271.41 221.672Z" fill="#9D95F8"/>
<path d="M272.611 221.675L272.594 230.329L273.082 230.331C273.183 230.331 273.279 230.321 273.374 230.302L273.389 221.709C273.294 221.688 273.195 221.677 273.096 221.677L272.611 221.675Z" fill="#9D95F8"/>
<path d="M273.694 221.805L273.68 230.207C273.999 230.067 274.271 229.821 274.46 229.503L274.473 222.513C274.283 222.195 274.012 221.945 273.694 221.805Z" fill="#9D95F8"/>
<path d="M261.352 221.663L261.366 213.007H261.223L261.238 204.414L260.458 204.412L260.441 213.068H260.586L260.569 221.647L259.808 221.644L259.793 230.301H260.573L260.59 221.661L261.352 221.663Z" fill="#9D95F8"/>
<path d="M255.554 212.995L255.409 212.993L255.426 204.402L254.646 204.399L254.629 213.053H254.774L254.757 221.647H254.951L254.934 230.288L255.714 230.29L255.731 221.636L255.538 221.634L255.554 212.995Z" fill="#9D95F8"/>
<path d="M268.663 213.151L268.648 221.552C268.968 221.413 269.239 221.164 269.429 220.849L269.441 213.858C269.254 213.541 268.981 213.291 268.663 213.151Z" fill="#9D95F8"/>
<path d="M250.563 204.388L249.782 204.386L249.766 213.042H249.911L249.896 221.621H249.808L249.793 230.275L250.573 230.277L250.59 221.636L250.676 221.638L250.691 212.982H250.548L250.563 204.388Z" fill="#9D95F8"/>
<path d="M245.434 204.379L244.654 204.376L244.637 213.03H244.782L244.765 221.624L245.545 221.626L245.562 212.97H245.417L245.434 204.379Z" fill="#9D95F8"/>
<path d="M237.555 204.36L236.773 204.357L236.758 213.011H236.901L236.886 221.605L237.667 221.607L237.683 212.951H237.538L237.555 204.36Z" fill="#9D95F8"/>
<path d="M230.18 204.34L229.4 204.338L229.383 212.994H229.528L229.511 221.588H230.294L230.308 212.934H230.163L230.18 204.34Z" fill="#9D95F8"/>
<path d="M223.596 204.326L222.815 204.324L222.801 212.978H222.944L222.929 221.572L223.709 221.574L223.726 212.92H223.581L223.596 204.326Z" fill="#9D95F8"/>
<path d="M263.754 204.42L262.974 204.418L262.957 213.074H263.102L263.087 221.653H262.978L262.963 230.307L263.744 230.309L263.758 221.667H263.868L263.883 213.013H263.74L263.754 204.42Z" fill="#9D95F8"/>
<path d="M265.417 204.424L264.79 204.422L264.805 195.981L264.025 195.979L264.008 204.635H264.637L264.622 213.076L264.765 213.078L264.75 221.67L265.531 221.672L265.545 213.018H265.402L265.417 204.424Z" fill="#9D95F8"/>
<path d="M261.38 195.974L261.359 204.628L262.14 204.63L262.16 195.976L261.38 195.974Z" fill="#9D95F8"/>
<path d="M258.2 204.407L257.819 204.405L257.805 213.061H257.948L257.933 221.654L258.713 221.656L258.73 213H258.585L258.6 204.622H258.981L258.997 195.968L258.215 195.966L258.2 204.407Z" fill="#9D95F8"/>
<path d="M253.359 195.953L253.336 204.607L254.116 204.609L254.139 195.955L253.359 195.953Z" fill="#9D95F8"/>
<path d="M248.22 195.941L248.199 204.595L248.98 204.597L249 195.943L248.22 195.941Z" fill="#9D95F8"/>
<path d="M240.341 195.924L240.32 204.578L241.101 204.58L241.121 195.926L240.341 195.924Z" fill="#9D95F8"/>
<path d="M232.964 195.907L232.945 204.561L233.726 204.562L233.744 195.908L232.964 195.907Z" fill="#9D95F8"/>
<path d="M226.38 195.891L226.359 204.545L227.14 204.547L227.16 195.893L226.38 195.891Z" fill="#9D95F8"/>
<path d="M266.523 204.427H266.241L266.226 213.081H266.369L266.354 221.662L265.622 221.66L265.605 230.314L266.386 230.316L266.403 221.674L267.135 221.676L267.149 213.023H267.006L267.021 204.642H267.303L267.32 195.988L266.539 195.986L266.523 204.427Z" fill="#9D95F8"/>
<path d="M269.806 195.994L269.785 204.648L270.565 204.65L270.586 195.996L269.806 195.994Z" fill="#9D95F8"/>
<path d="M271.78 204.622L271.797 196.029C271.7 196.008 271.604 195.998 271.505 195.998L271.017 195.996L271 204.65L271.488 204.652C271.587 204.652 271.684 204.641 271.78 204.622Z" fill="#9D95F8"/>
<path d="M272.862 203.823L272.875 196.832C272.686 196.515 272.414 196.267 272.097 196.125L272.082 204.526C272.4 204.387 272.673 204.138 272.862 203.823Z" fill="#9D95F8"/>
<path d="M269.657 187.337L269.637 195.991L270.417 195.993L270.438 187.339L269.657 187.337Z" fill="#9D95F8"/>
<path d="M258.986 187.312L258.965 195.966L259.745 195.968L259.766 187.314L258.986 187.312Z" fill="#9D95F8"/>
<path d="M253.845 187.301L253.824 195.955L254.605 195.957L254.625 187.303L253.845 187.301Z" fill="#9D95F8"/>
<path d="M245.978 187.283L245.957 195.937L246.737 195.938L246.758 187.284L245.978 187.283Z" fill="#9D95F8"/>
<path d="M238.595 187.265L238.574 195.919L239.355 195.921L239.375 187.267L238.595 187.265Z" fill="#9D95F8"/>
<path d="M232.014 187.25L231.996 195.904L232.776 195.905L232.795 187.251L232.014 187.25Z" fill="#9D95F8"/>
<path d="M272.169 187.343L272.148 195.997L272.929 195.998L272.949 187.344L272.169 187.343Z" fill="#9D95F8"/>
<path d="M273.837 187.348L273.816 196.002L274.597 196.004L274.617 187.35L273.837 187.348Z" fill="#9D95F8"/>
<path d="M275.435 187.351L275.414 196.005L276.194 196.007L276.215 187.353L275.435 187.351Z" fill="#9D95F8"/>
<path d="M276.64 187.354L276.625 196.008L277.113 196.01C277.214 196.01 277.311 196 277.405 195.981L277.422 187.387C277.328 187.369 277.229 187.356 277.13 187.356L276.64 187.354Z" fill="#9D95F8"/>
<path d="M277.73 187.484L277.715 195.885C278.035 195.746 278.306 195.497 278.495 195.182L278.508 188.191C278.321 187.874 278.049 187.624 277.73 187.484Z" fill="#9D95F8"/>
<path d="M260.631 187.333L261.414 187.335L261.429 178.679L260.667 178.677L260.682 170.236L261.443 170.238L261.46 161.584L260.68 161.582L260.663 170.223L259.901 170.221L259.887 178.875L260.648 178.877L260.631 187.333Z" fill="#9D95F8"/>
<path d="M258.015 178.668L257.992 187.322L258.772 187.324L258.795 178.67L258.015 178.668Z" fill="#9D95F8"/>
<path d="M244.845 178.638L244.824 187.292L245.605 187.294L245.625 178.64L244.845 178.638Z" fill="#9D95F8"/>
<path d="M236.966 178.619L236.945 187.273L237.726 187.275L237.746 178.621L236.966 178.619Z" fill="#9D95F8"/>
<path d="M229.595 178.602L229.574 187.256L230.355 187.258L230.375 178.604L229.595 178.602Z" fill="#9D95F8"/>
<path d="M223.009 178.588L222.988 187.242L223.769 187.244L223.789 178.59L223.009 178.588Z" fill="#9D95F8"/>
<path d="M263.149 187.336L263.839 187.339L263.825 195.98L264.605 195.982L264.62 187.328L263.93 187.326L263.944 178.685H263.837L263.852 170.243H263.961L263.976 161.589L263.196 161.587L263.179 170.227H263.072L263.055 178.883H263.164L263.149 187.336Z" fill="#9D95F8"/>
<path d="M264.828 178.686L264.812 187.34L265.593 187.342L265.609 178.688L264.828 178.686Z" fill="#9D95F8"/>
<path d="M268.862 178.896H268.999L269.016 170.242L268.33 170.24C268.366 170.236 268.404 170.231 268.44 170.223L268.456 161.63C268.362 161.609 268.263 161.598 268.164 161.598L267.676 161.596L267.659 170.25H268.147C268.177 170.25 268.206 170.248 268.236 170.246L268.221 178.698C268.191 178.695 268.162 178.693 268.133 178.693H267.645L267.628 187.335H267.201L267.218 178.693L266.486 178.691L266.5 170.25L267.232 170.252L267.249 161.598L266.469 161.596L266.452 170.238L265.72 170.236L265.703 178.89L266.435 178.892L266.42 187.347L267.014 187.349L266.997 195.991L267.777 195.993L267.794 187.352H268.114C268.215 187.352 268.311 187.341 268.406 187.322L268.421 178.898H268.726L268.711 187.226C269.031 187.089 269.302 186.84 269.491 186.523L269.504 179.532C269.346 179.259 269.121 179.042 268.862 178.896Z" fill="#9D95F8"/>
<path d="M242.03 170.178L242.012 178.832L242.792 178.833L242.81 170.179L242.03 170.178Z" fill="#9D95F8"/>
<path d="M234.661 170.16L234.641 178.814L235.421 178.816L235.442 170.162L234.661 170.16Z" fill="#9D95F8"/>
<path d="M228.075 170.144L228.055 178.798L228.835 178.8L228.856 170.146L228.075 170.144Z" fill="#9D95F8"/>
<path d="M269.892 170.242L269.871 178.896L270.652 178.897L270.672 170.243L269.892 170.242Z" fill="#9D95F8"/>
<path d="M271.501 170.246L271.48 178.9L272.261 178.902L272.282 170.248L271.501 170.246Z" fill="#9D95F8"/>
<path d="M272.704 170.249L272.688 178.902H273.175C273.276 178.902 273.373 178.892 273.468 178.873L273.483 170.28C273.388 170.259 273.289 170.249 273.19 170.249H272.704Z" fill="#9D95F8"/>
<path d="M274.558 178.077L274.57 171.086C274.381 170.769 274.11 170.52 273.792 170.378L273.777 178.78C274.095 178.64 274.368 178.392 274.558 178.077Z" fill="#9D95F8"/>
<path d="M258.04 161.574L258.02 170.228L258.8 170.23L258.821 161.576L258.04 161.574Z" fill="#9D95F8"/>
<path d="M255.645 161.568L254.865 161.566L254.848 170.222H255.039L255.025 178.664H254.833L254.816 187.318L255.597 187.32L255.614 178.864H255.805L255.822 170.21H255.628L255.645 161.568Z" fill="#9D95F8"/>
<path d="M249.988 170.197L249.901 170.195L249.887 178.851H249.973L249.956 187.307H250.739L250.753 178.653H250.667L250.682 170.212H250.77L250.785 161.558L250.004 161.556L249.988 170.197Z" fill="#9D95F8"/>
<path d="M244.872 161.54L244.852 170.194L245.632 170.196L245.653 161.542L244.872 161.54Z" fill="#9D95F8"/>
<path d="M237.001 161.522L236.98 170.176L237.761 170.178L237.782 161.524L237.001 161.522Z" fill="#9D95F8"/>
<path d="M229.628 161.505L229.605 170.159L230.386 170.161L230.409 161.507L229.628 161.505Z" fill="#9D95F8"/>
<path d="M223.042 161.493L223.023 170.147L223.804 170.149L223.822 161.495L223.042 161.493Z" fill="#9D95F8"/>
<path d="M264.863 161.589L264.84 170.243L265.62 170.245L265.643 161.591L264.863 161.589Z" fill="#9D95F8"/>
<path d="M268.757 161.726L268.742 170.127C269.062 169.987 269.333 169.741 269.523 169.424L269.535 162.433C269.348 162.114 269.075 161.865 268.757 161.726Z" fill="#9D95F8"/>
<path d="M291.641 184.8L296.492 185.654C296.879 185.723 297.219 185.888 297.484 186.115C297.766 186.355 297.964 186.664 298.048 187C298.075 187.102 298.088 187.209 298.09 187.313C298.092 187.409 298.086 187.507 298.069 187.605L286.019 254.704C285.863 255.57 284.946 256.142 283.955 256.013C283.924 256.008 283.89 256.004 283.859 255.998L279.008 255.142C278.977 255.136 278.945 255.13 278.911 255.124C277.935 254.907 277.275 254.055 277.428 253.189L289.479 186.09C289.487 186.046 289.496 186.004 289.508 185.963C289.513 185.944 289.519 185.927 289.525 185.908C289.531 185.89 289.538 185.869 289.546 185.85C289.55 185.835 289.557 185.823 289.563 185.808C289.603 185.71 289.651 185.616 289.712 185.529C289.721 185.516 289.729 185.504 289.74 185.489C289.748 185.477 289.759 185.464 289.767 185.451C289.786 185.426 289.807 185.401 289.828 185.378C289.841 185.364 289.853 185.351 289.866 185.337C289.878 185.324 289.889 185.312 289.902 185.301C289.925 185.278 289.948 185.257 289.971 185.234C289.998 185.209 290.028 185.186 290.057 185.163C290.08 185.145 290.104 185.128 290.127 185.111C290.129 185.111 290.129 185.109 290.131 185.109C290.148 185.099 290.165 185.086 290.181 185.076C290.232 185.042 290.287 185.011 290.341 184.982C290.358 184.974 290.375 184.965 290.39 184.957C290.406 184.949 290.423 184.942 290.44 184.934C290.476 184.919 290.51 184.905 290.545 184.89C290.878 184.771 291.254 184.732 291.641 184.8Z" fill="#675AF6"/>
<path d="M292.446 218.934L285.991 254.881C285.852 255.653 284.948 256.15 283.957 256.016C283.926 256.012 283.892 256.008 283.86 256.001L279.01 255.146C278.978 255.14 278.947 255.133 278.913 255.127C277.937 254.914 277.262 254.14 277.401 253.366L283.063 221.834C283.137 221.832 283.208 221.83 283.282 221.828C285.886 221.745 289.474 221.156 292.446 218.934Z" fill="#B9B3F9"/>
<path d="M288.286 192.641L288.148 193.403L296.735 194.923L296.872 194.161L288.286 192.641Z" fill="#9D95F8"/>
<path d="M287.824 195.22L287.688 195.982L296.275 197.499L296.412 196.736L287.824 195.22Z" fill="#9D95F8"/>
<path d="M287.274 198.297L287.137 199.059L295.724 200.577L295.861 199.815L287.274 198.297Z" fill="#9D95F8"/>
<path d="M286.43 203.041L286.293 203.803L294.881 205.321L295.018 204.559L286.43 203.041Z" fill="#9D95F8"/>
<path d="M285.52 208.077L285.383 208.839L293.97 210.355L294.107 209.593L285.52 208.077Z" fill="#9D95F8"/>
<path d="M284.172 215.769L284.035 216.531L292.623 218.05L292.76 217.288L284.172 215.769Z" fill="#9D95F8"/>
<path d="M282.844 222.971L282.707 223.733L291.295 225.25L291.431 224.487L282.844 222.971Z" fill="#9D95F8"/>
<path d="M281.7 229.421L281.562 230.183L290.149 231.704L290.286 230.942L281.7 229.421Z" fill="#9D95F8"/>
<path d="M288.731 190.161L288.594 190.923L297.181 192.441L297.318 191.679L288.731 190.161Z" fill="#9D95F8"/>
<path d="M289.059 188.557L288.922 189.319L297.509 190.838L297.646 190.076L289.059 188.557Z" fill="#9D95F8"/>
<path d="M289.309 186.971L289.172 187.733L297.76 189.251L297.896 188.489L289.309 186.971Z" fill="#9D95F8"/>
<path d="M289.395 186.57L297.983 188.083L298.069 187.607C298.086 187.509 298.094 187.413 298.09 187.315L289.561 185.812C289.525 185.902 289.498 185.996 289.479 186.094L289.395 186.57Z" fill="#9D95F8"/>
<path d="M289.711 185.534L298.049 187.003C297.967 186.667 297.767 186.358 297.485 186.118L290.548 184.896C290.201 185.025 289.907 185.246 289.711 185.534Z" fill="#9D95F8"/>
<path d="M455.371 256.008H425.85C424.269 254.677 426.946 251.653 429.742 251.451C430.957 251.359 432.493 251.611 434.247 251.981C434.653 246.628 436.973 222.563 445.717 223.529C455.548 224.612 445.717 234.128 442.938 239.76C440.879 243.934 438.708 249.917 437.716 252.74C438.513 252.911 439.339 253.08 440.183 253.235C441.487 249.266 446.335 235.914 452.5 236.691C459.74 237.603 456.829 242.955 451.699 246.134C447.934 248.471 443.313 251.791 441.115 253.396C442.976 253.696 444.918 253.901 446.888 253.855C451.947 253.734 454.417 255.211 455.371 256.008Z" fill="#4F44D0"/>
<path d="M70.4425 255.035C69.2709 253.207 65.7414 248.466 61.0424 249.092C55.9207 249.777 66.6985 253.126 69.9966 255.048C69.2646 255.058 68.6336 255 68.1708 254.837C65.9644 254.057 62.1888 255.553 60.9793 256.079H81.9775C81.8324 255.58 81.4538 254.766 80.4757 254.173C80.1307 253.965 79.4387 253.936 78.5427 254.002C79.7921 252.542 80.6587 247.878 77.1818 249.078C74.643 249.954 74.6493 252.805 74.8996 254.491C74.359 254.574 73.8121 254.66 73.2695 254.737C72.2241 249.451 68.5263 233.959 61.0319 233.545C53.4345 233.126 67.4746 249.612 72.1505 254.885C71.5531 254.956 70.9768 255.01 70.4425 255.035Z" fill="#4F44D0"/>
<path d="M278.645 123.457C290.454 111.741 290.454 92.7463 278.645 81.0307C266.836 69.3152 247.69 69.3152 235.882 81.0307C224.073 92.7463 224.073 111.741 235.882 123.457C247.69 135.172 266.836 135.172 278.645 123.457Z" fill="#9D95F8"/>
<path d="M284.197 111.121C288.439 95.0959 278.784 78.6935 262.631 74.4852C246.479 70.2768 229.946 79.8561 225.704 95.8811C221.462 111.906 231.118 128.309 247.27 132.517C263.423 136.725 279.955 127.146 284.197 111.121Z" fill="#8279F8"/>
<path d="M255.173 131.144C245.451 131.144 236.015 126.038 230.998 117.011C227.446 110.617 226.615 103.233 228.661 96.2197C230.706 89.2059 235.382 83.4025 241.826 79.8779C248.271 76.3533 255.713 75.529 262.783 77.5574C269.852 79.5858 275.702 84.2247 279.254 90.6187C286.589 103.818 281.732 120.475 268.428 127.751C264.221 130.053 259.665 131.144 255.173 131.144ZM255.088 78.1021C250.772 78.1021 246.502 79.183 242.619 81.3074C236.56 84.6212 232.164 90.0782 230.239 96.6746C228.316 103.269 229.097 110.214 232.437 116.226C237.153 124.713 246.029 129.517 255.168 129.517C259.394 129.517 263.677 128.49 267.631 126.328C280.142 119.485 284.708 103.822 277.811 91.4117C274.471 85.3996 268.971 81.0382 262.322 79.1288C259.939 78.4401 257.507 78.1021 255.088 78.1021Z" fill="#675AF6"/>
<path d="M242.801 98.9747C244.337 98.0951 245.872 97.2156 247.408 96.336C248.148 95.9123 248.884 95.4369 249.673 95.1087C249.57 95.151 249.466 95.1932 249.363 95.2354C249.959 94.9922 250.583 94.8283 251.223 94.7474C251.115 94.7607 251.008 94.774 250.901 94.7873C251.511 94.7143 252.125 94.7174 252.734 94.7958C252.629 94.7817 252.523 94.7675 252.417 94.7533C253.037 94.8372 253.642 94.9981 254.222 95.2331C254.123 95.1929 254.024 95.1527 253.926 95.1125C254.493 95.3468 255.027 95.649 255.518 96.0148C255.432 95.95 255.345 95.8852 255.259 95.8204C255.773 96.2079 256.23 96.6593 256.624 97.1658C256.556 97.0779 256.487 96.99 256.419 96.902C256.802 97.4014 257.119 97.9454 257.363 98.5241C257.32 98.4213 257.278 98.3186 257.235 98.2159C257.48 98.8078 257.646 99.4266 257.727 100.061C257.714 99.9549 257.7 99.8484 257.687 99.7418C257.761 100.347 257.757 100.957 257.678 101.561C257.693 101.456 257.707 101.351 257.721 101.246C257.637 101.862 257.474 102.462 257.238 103.037C257.278 102.939 257.319 102.841 257.359 102.743C257.123 103.306 256.818 103.835 256.45 104.323C256.515 104.237 256.58 104.151 256.646 104.066C256.255 104.575 255.8 105.029 255.29 105.42C255.378 105.352 255.467 105.284 255.555 105.217C254.959 105.667 254.283 106.016 253.635 106.387C252.655 106.948 251.675 107.51 250.694 108.071C250.045 108.444 249.395 108.816 248.745 109.188C248.154 109.527 247.945 110.299 248.287 110.885C248.397 111.075 248.507 111.264 248.617 111.454C248.807 111.78 249.076 111.964 249.428 112.086C249.54 112.125 249.651 112.163 249.763 112.202C250.32 112.394 250.877 112.586 251.434 112.779C253.391 113.455 255.348 114.13 257.305 114.806C259.442 115.544 261.58 116.282 263.718 117.02C264.906 117.43 266.094 117.841 267.282 118.251C267.308 118.26 267.335 118.269 267.361 118.278C268.006 118.501 268.728 118.018 268.894 117.4C268.98 117.083 268.935 116.741 268.769 116.457C268.594 116.155 268.332 115.99 268.009 115.878C267.07 115.554 266.13 115.229 265.191 114.905C263.126 114.192 261.061 113.479 258.997 112.766C256.938 112.056 254.879 111.345 252.82 110.634C251.898 110.315 250.975 109.997 250.052 109.678C250.306 109.871 250.559 110.064 250.813 110.257C250.693 110.052 250.574 109.847 250.455 109.643C250.302 110.208 250.15 110.774 249.997 111.34C251.532 110.46 253.068 109.581 254.604 108.701C255.19 108.365 255.794 108.047 256.363 107.681C257.121 107.193 257.815 106.592 258.372 105.885C258.981 105.113 259.436 104.299 259.775 103.376C260.372 101.749 260.396 99.8805 259.891 98.2276C259.624 97.3565 259.218 96.5134 258.677 95.7772C258.079 94.9645 257.394 94.2994 256.567 93.7175C255.152 92.7212 253.351 92.2145 251.622 92.2506C250.148 92.2814 248.73 92.7099 247.458 93.4389C245.764 94.4089 244.071 95.3789 242.377 96.349C242.101 96.5071 241.825 96.6651 241.549 96.8232C240.958 97.1618 240.75 97.9337 241.091 98.5202C241.432 99.1066 242.21 99.3133 242.801 98.9747Z" fill="white"/>
<path d="M262.197 93.5154C261.354 93.9985 260.51 94.4815 259.667 94.9646C257.792 96.0386 255.917 97.1126 254.042 98.1865C252.118 99.2887 250.194 100.391 248.27 101.493C247.279 102.06 246.288 102.628 245.298 103.195C245.288 103.201 245.278 103.207 245.268 103.212C244.677 103.551 244.468 104.323 244.81 104.909C245.151 105.496 245.929 105.703 246.52 105.364C247.363 104.881 248.207 104.398 249.05 103.915C250.925 102.841 252.8 101.767 254.675 100.693C256.599 99.5907 258.523 98.4886 260.447 97.3865C261.438 96.819 262.429 96.2515 263.42 95.6841C263.429 95.6784 263.439 95.6727 263.449 95.667C264.04 95.3285 264.249 94.5565 263.908 93.9701C263.566 93.3836 262.788 93.1768 262.197 93.5154Z" fill="white"/>
<path d="M242.801 98.9744C243.645 98.4913 244.488 98.0083 245.331 97.5252C247.206 96.4512 249.081 95.3773 250.956 94.3033C252.88 93.2011 254.804 92.099 256.729 90.9969C257.719 90.4294 258.71 89.8619 259.701 89.2944C259.711 89.2888 259.721 89.2831 259.73 89.2774C260.322 88.9388 260.53 88.1669 260.189 87.5805C259.848 86.994 259.069 86.7872 258.478 87.1258C257.635 87.6088 256.792 88.0919 255.948 88.5749C254.073 89.6489 252.198 90.7229 250.323 91.7969C248.399 92.899 246.475 94.0012 244.551 95.1033C243.56 95.6708 242.57 96.2382 241.579 96.8057C241.569 96.8114 241.559 96.8171 241.549 96.8227C240.958 97.1613 240.75 97.9332 241.091 98.5197C241.432 99.1061 242.21 99.313 242.801 98.9744Z" fill="white"/>
<path d="M287.495 125.536C286.502 124.839 284.249 123.309 284.131 123.649C284.047 123.895 284.168 124.312 284.437 124.746C283.074 124.241 281.69 123.91 278.419 124.533C277.763 124.657 277.17 125.028 276.81 125.583C276.476 126.098 276.352 126.744 277.186 127.259C278.856 128.289 278.372 127.672 280.694 129.171C283.015 130.671 285.856 131.054 287.553 130.002L289.831 129.625L290.113 125.908C290.112 125.908 288.813 125.754 287.495 125.536Z" fill="url(#paint0_linear)"/>
<path d="M347.189 94.3536C347.189 94.3536 341.818 100.675 334.979 98.0315C334.979 98.0315 333.507 94.5011 333.487 91.8984C333.485 91.5771 333.48 91.2674 333.475 90.9723C333.439 88.0418 333.34 86.3962 333.34 86.3962C333.34 86.3962 333.342 86.3962 333.346 86.3946C333.657 86.2651 343.802 82.1332 343.794 82.4774C343.619 90.4036 347.189 94.3536 347.189 94.3536Z" fill="url(#paint1_linear)"/>
<path opacity="0.1" d="M342.775 84.3679C341.797 86.1675 338.44 89.6864 333.475 90.9714C333.439 88.0409 333.34 86.3953 333.34 86.3953C333.34 86.3953 333.342 86.3953 333.346 86.3937C333.626 86.3199 343.065 83.8368 342.775 84.3679Z" fill="black"/>
<path d="M331.22 86.0919C331.22 86.0919 342.629 88.7536 344.19 81.678C345.751 74.6041 348.274 70.1837 341.056 68.1858C333.838 66.1878 331.823 68.5791 330.723 70.8147C329.622 73.0487 328.292 85.2166 331.22 86.0919Z" fill="url(#paint2_linear)"/>
<path d="M343.805 83.6059C343.961 83.7042 346.415 84.4532 351.064 75.265C351.794 73.8227 352.292 70.702 350.59 67.9452C348.889 65.1884 342.857 63.02 337.845 62.0776C332.834 61.1335 331.63 63.9313 330.45 66.7438C329.211 69.6956 325.633 72.1247 325.633 72.1247C329.955 74.5192 335.16 71.0937 336.962 71.6575C338.766 72.2214 339.403 75.0404 339.538 75.9435C339.673 76.8466 339.882 77.5989 342.148 76.7909C344.416 75.9845 343.174 79.9788 342.811 80.7425C342.812 80.7442 342.503 82.7798 343.805 83.6059Z" fill="#00134F"/>
<path d="M373.187 260.021H380.096C381.545 260.021 383.154 258.582 383.556 255.948C383.959 253.313 386.936 251.876 387.58 249.72C388.224 247.563 384.924 244.53 384.924 244.53L384.372 243.826L383.799 243.094L378.327 244.371C378.327 244.371 378.191 245.664 378.107 247.309C378.049 248.498 378.016 249.873 378.086 251.077C378.246 253.952 377.275 257.048 374.701 257.607C372.12 258.168 373.187 260.021 373.187 260.021Z" fill="#132056"/>
<path d="M325.098 260.022H343.409C343.584 259.988 343.718 259.95 343.797 259.911C345.02 259.303 344.636 254.66 344.489 253.225C344.461 252.96 344.441 252.804 344.441 252.804C344.441 252.804 338.002 247.695 337.116 251.608C337.088 251.729 337.055 251.85 337.022 251.968V251.97C335.904 255.63 330.908 257.293 328.022 257.757C325.816 258.111 325.245 259.386 325.098 260.022Z" fill="#132056"/>
<path d="M328.789 155.259C328.789 155.259 329.767 167.363 330.917 181.914C332.48 201.679 334.358 225.957 334.543 230.558C334.865 238.545 336.154 251.319 336.154 251.319C336.154 251.319 339.21 254.355 345.329 253.075C345.329 253.075 350.781 234.837 352.339 215.541C352.364 215.225 352.387 214.907 352.412 214.588C353.86 194.944 356.114 153.581 356.114 153.581L328.789 155.259Z" fill="#4F44D0"/>
<path opacity="0.2" d="M328.789 155.258C328.789 155.258 329.767 167.362 330.917 181.913L352.339 215.542C352.364 215.226 352.387 214.908 352.412 214.589C353.86 194.945 356.114 153.582 356.114 153.582L328.789 155.258Z" fill="#0A1D32"/>
<path d="M333.258 156.696C333.258 156.696 350.883 200.534 362.474 221.135C374.065 241.736 377.686 247.485 377.686 247.485C377.686 247.485 384.326 244.85 384.93 243.053C384.93 243.053 380.498 203.281 372.736 193.587C368.35 188.107 363.199 171.668 362.958 165.919C362.717 160.169 361.389 148.791 361.389 148.791L333.258 156.696Z" fill="#8279F8"/>
<path d="M373.451 148.729L373.637 151.548C373.637 151.548 371.764 156.557 377.014 159.125C377.014 159.125 379.263 160.025 379.353 158.289C379.444 156.554 379.157 157.206 379.34 154.762C379.524 152.317 378.554 150.008 376.923 149.229L375.585 147.698L373.451 148.729Z" fill="#F8E4E5"/>
<path d="M375.507 150.783C373.556 151.404 373.244 151.263 373.244 151.263C373.244 151.263 363.748 134.111 362.786 132.541C361.825 130.971 342.625 113.307 342.625 113.307L347.56 95.0537C347.56 95.0537 369.396 123.109 371.755 127.134C375.653 133.787 377.936 149.236 377.936 149.236C377.936 149.236 377.039 150.295 375.507 150.783Z" fill="#FFBD00"/>
<path d="M325.07 120.475C325.138 124.223 325.357 128.437 325.655 132.718C325.673 132.972 325.691 133.226 325.709 133.48C325.899 136.132 326.104 138.789 326.34 141.38C326.435 142.419 326.535 143.447 326.641 144.455L326.658 144.591C326.666 144.968 326.712 145.378 326.753 145.751C327.717 155.459 328.724 163.128 328.913 163.246C329.136 163.394 329.388 163.467 329.664 163.436C332.23 163.117 339.885 163.694 346.153 162.341C351.441 161.235 355.996 159.135 360.822 156.307C361.463 155.931 362.923 154.936 362.804 154.192C362.687 153.374 362.472 152.194 362.198 150.709C361.248 145.547 359.606 136.665 359.046 126.27C358.937 124.335 358.778 122.422 358.572 120.542C358.033 115.645 357.172 110.993 356.016 106.861C353.867 99.184 350.71 93.3049 346.748 91.0054C346.231 90.717 343.446 92.4756 340.887 94.1048C338.524 95.6077 336.036 96.0224 333.618 95.8126L331.488 98.1482C328.911 101.121 326.165 105.08 325.415 110.706C325.359 111.123 325.311 111.563 325.27 112.032C325.062 114.324 325.011 117.225 325.07 120.475Z" fill="#FFF5D9"/>
<path opacity="0.1" d="M325.07 120.476C325.138 124.224 325.357 128.438 325.655 132.719C325.673 132.973 325.691 133.227 325.709 133.481C340.366 124.38 342.623 107.724 342.623 107.724C335.412 108.037 329.684 109.683 325.27 112.035C325.062 114.324 325.011 117.225 325.07 120.476Z" fill="#0A1D32"/>
<path d="M288.033 127.645C287.883 125.488 289.008 125.129 289.008 125.129C289.008 125.129 311.106 121.156 312.984 120.569C314.862 119.982 330.925 103.405 330.925 103.405C330.925 103.405 337.082 96.5167 342.124 98.0377C346.505 99.3603 348.217 102.75 348.8 105.98C349.496 109.829 347.706 113.702 344.346 115.747C336.805 120.336 321.707 129.377 318.152 130.411C310.238 132.712 288.975 130.596 288.975 130.596C288.975 130.596 288.152 129.338 288.033 127.645Z" fill="#FFBD00"/>
<path opacity="0.1" d="M318.849 142.394V246.15C318.849 252.202 313.857 257.156 307.758 257.156H200.259C199.327 257.156 198.419 257.041 197.55 256.828C195.689 256.371 194.004 255.455 192.626 254.207C191.642 253.316 190.817 252.256 190.197 251.077C190.163 251.015 190.131 250.952 190.1 250.885C189.456 249.602 189.052 248.181 188.949 246.682C188.93 246.426 188.922 246.169 188.922 245.908V143.06C188.922 137.24 191.953 131.858 196.898 128.726C196.898 128.726 196.902 128.724 196.911 128.72C201.029 126.105 203.759 121.522 203.759 116.311C203.759 114.765 203.519 113.277 203.074 111.877H304.697C304.251 113.277 304.011 114.765 304.011 116.311C304.011 121.309 306.521 125.725 310.357 128.386C310.359 128.386 310.359 128.388 310.362 128.388C310.618 128.565 310.879 128.734 311.146 128.895C311.148 128.897 311.148 128.897 311.148 128.897C315.908 131.768 318.849 136.864 318.849 142.394Z" fill="#4F44D0"/>
<path opacity="0.05" d="M318.845 142.394V246.15C318.845 251.941 314.275 256.726 308.537 257.127C308.278 257.146 308.017 257.154 307.754 257.154H260.419C254.183 257.154 249.082 252.091 249.082 245.906V143.06C249.082 137.24 252.113 131.858 257.058 128.726C261.185 126.113 263.921 121.529 263.921 116.309C263.921 114.763 263.682 113.275 263.236 111.875H304.692C304.246 113.275 304.006 114.763 304.006 116.309C304.006 120.406 305.691 124.11 308.413 126.777C309.235 127.584 310.15 128.296 311.143 128.893C315.905 131.768 318.845 136.864 318.845 142.394Z" fill="#4F44D0"/>
<path opacity="0.2" d="M310.353 128.384C307.034 126.412 292.653 119.423 256.085 119.719C214.198 120.059 197.419 128.459 196.906 128.72C201.025 126.105 203.755 121.522 203.755 116.311C203.755 114.765 203.515 113.277 203.069 111.877H304.693C304.247 113.277 304.007 114.765 304.007 116.311C304.007 121.305 306.516 125.723 310.353 128.384Z" fill="#5A79B1"/>
<path d="M306.997 111.149V115.854C306.997 116.32 306.617 116.698 306.15 116.698H201.619C201.15 116.698 200.77 116.32 200.77 115.854V111.149C200.77 110.685 201.15 110.306 201.619 110.306H306.15C306.617 110.306 306.997 110.685 306.997 111.149Z" fill="#675AF6"/>
<path opacity="0.3" d="M306.999 111.149V115.854C306.999 116.32 306.618 116.698 306.151 116.698H266.584C266.117 116.698 265.734 116.32 265.734 115.854V111.149C265.734 110.685 266.117 110.306 266.584 110.306H306.151C306.618 110.306 306.999 110.685 306.999 111.149Z" fill="#4F44D0"/>
<path opacity="0.3" d="M223.613 253.73C223.181 253.956 222.745 254.169 222.307 254.376C221.889 254.615 221.464 254.851 221.031 255.076C219.036 256.117 216.979 256.946 214.886 257.572C214.113 256.872 213.465 256.04 212.978 255.114C212.644 255.291 212.312 255.459 211.977 255.625V194.138C213.515 194.341 215.038 194.646 216.53 195.046C224.902 197.291 232.358 202.575 236.893 210.349C245.901 225.793 239.955 245.216 223.613 253.73Z" fill="#9D95F8"/>
<path d="M229.269 207.928C220.261 191.715 199.711 185.818 183.369 194.755C167.027 203.693 161.083 224.08 170.09 240.293C179.099 256.506 199.648 262.404 215.99 253.468C232.334 244.529 238.278 224.141 229.269 207.928Z" fill="#9D95F8"/>
<path d="M214.683 254.147C214.267 254.4 213.844 254.642 213.413 254.878C213.267 254.959 213.122 255.037 212.975 255.113C212.641 255.29 212.309 255.458 211.974 255.624C195.884 263.463 176.258 257.447 167.512 241.706C159.17 226.691 163.653 208.095 177.344 198.329C178.436 197.551 179.584 196.828 180.791 196.168C181.224 195.93 181.662 195.704 182.1 195.489C182.526 195.278 182.956 195.078 183.387 194.887C184.708 194.302 186.053 193.809 187.411 193.406C189.428 192.803 191.477 192.396 193.529 192.181C199.894 191.513 206.297 192.667 211.974 195.422C217.999 198.344 223.207 203.071 226.692 209.34C235.462 225.127 230.058 244.869 214.683 254.147Z" fill="#8279F8"/>
<path d="M197.333 256.423C194.46 256.423 191.571 256.02 188.734 255.207C180.836 252.94 174.299 247.758 170.331 240.613C166.361 233.469 165.434 225.218 167.719 217.382C170.004 209.546 175.227 203.061 182.429 199.124C189.63 195.185 197.945 194.266 205.845 196.533C213.743 198.799 220.28 203.982 224.25 211.126C228.22 218.271 229.147 226.52 226.862 234.357C224.577 242.193 219.353 248.679 212.152 252.616C207.536 255.14 202.461 256.423 197.333 256.423ZM171.94 239.733C175.672 246.452 181.819 251.324 189.247 253.457C196.674 255.589 204.493 254.724 211.265 251.02C218.037 247.317 222.948 241.218 225.097 233.849C227.247 226.48 226.374 218.723 222.641 212.005C218.907 205.286 212.762 200.414 205.334 198.281C197.907 196.151 190.087 197.014 183.316 200.719C176.544 204.421 171.633 210.52 169.483 217.889C167.334 225.258 168.206 233.015 171.94 239.733Z" fill="#675AF6"/>
<path d="M181.279 219.554C183.012 218.56 184.746 217.567 186.48 216.574C187.315 216.096 188.146 215.559 189.037 215.189C188.92 215.236 188.803 215.284 188.687 215.332C189.36 215.057 190.064 214.872 190.787 214.781C190.666 214.796 190.544 214.811 190.423 214.826C191.112 214.743 191.806 214.747 192.493 214.835C192.374 214.819 192.255 214.803 192.135 214.787C192.835 214.882 193.519 215.064 194.173 215.329C194.061 215.284 193.95 215.238 193.838 215.193C194.479 215.457 195.081 215.799 195.636 216.212C195.539 216.139 195.441 216.065 195.344 215.992C195.924 216.43 196.44 216.939 196.885 217.511C196.808 217.412 196.731 217.313 196.654 217.213C197.086 217.777 197.443 218.391 197.719 219.045C197.671 218.929 197.623 218.813 197.575 218.697C197.852 219.365 198.038 220.064 198.13 220.78C198.115 220.66 198.1 220.54 198.085 220.42C198.168 221.103 198.165 221.791 198.075 222.474C198.091 222.355 198.108 222.237 198.124 222.118C198.028 222.813 197.845 223.491 197.578 224.14C197.623 224.029 197.669 223.919 197.715 223.808C197.448 224.443 197.104 225.041 196.688 225.592C196.762 225.495 196.836 225.398 196.909 225.302C196.468 225.877 195.955 226.389 195.378 226.831C195.478 226.754 195.578 226.677 195.678 226.601C195.005 227.109 194.242 227.503 193.51 227.922C192.404 228.556 191.297 229.19 190.19 229.824C189.456 230.244 188.723 230.664 187.989 231.085C187.322 231.467 187.086 232.338 187.472 233.001C187.596 233.215 187.721 233.429 187.845 233.643C188.06 234.011 188.363 234.219 188.761 234.357C188.887 234.4 189.012 234.444 189.138 234.487C189.767 234.704 190.396 234.922 191.026 235.139C193.235 235.902 195.444 236.665 197.654 237.427C200.067 238.261 202.481 239.094 204.894 239.928C206.236 240.391 207.577 240.854 208.918 241.317C208.948 241.327 208.978 241.337 209.007 241.348C209.736 241.599 210.55 241.054 210.739 240.356C210.835 239.998 210.784 239.612 210.598 239.292C210.399 238.951 210.103 238.764 209.739 238.638C208.678 238.272 207.618 237.906 206.557 237.539C204.226 236.735 201.895 235.93 199.564 235.125C197.239 234.322 194.915 233.52 192.59 232.717C191.549 232.357 190.507 231.998 189.465 231.638C189.751 231.856 190.037 232.074 190.324 232.291C190.189 232.06 190.055 231.829 189.92 231.598C189.748 232.237 189.575 232.875 189.403 233.514C191.136 232.521 192.87 231.528 194.604 230.535C195.266 230.155 195.948 229.796 196.59 229.383C197.446 228.833 198.229 228.154 198.858 227.356C199.546 226.484 200.06 225.565 200.442 224.523C201.116 222.686 201.144 220.576 200.573 218.71C200.273 217.727 199.813 216.775 199.202 215.943C198.528 215.026 197.754 214.275 196.821 213.618C195.223 212.493 193.189 211.921 191.238 211.962C189.574 211.997 187.973 212.48 186.536 213.303C184.624 214.399 182.712 215.494 180.8 216.589C180.488 216.767 180.177 216.946 179.865 217.124C179.198 217.507 178.962 218.378 179.347 219.04C179.733 219.702 180.611 219.936 181.279 219.554Z" fill="white"/>
<path d="M203.166 213.388C202.214 213.934 201.262 214.479 200.31 215.024C198.193 216.237 196.076 217.449 193.959 218.662C191.786 219.906 189.614 221.151 187.442 222.395C186.323 223.036 185.204 223.676 184.086 224.317C184.075 224.324 184.064 224.33 184.052 224.336C183.385 224.719 183.15 225.59 183.535 226.252C183.92 226.914 184.799 227.148 185.466 226.766C186.418 226.22 187.37 225.675 188.323 225.129C190.44 223.917 192.556 222.704 194.673 221.492C196.846 220.247 199.018 219.003 201.191 217.759C202.309 217.118 203.428 216.477 204.546 215.837C204.557 215.83 204.569 215.824 204.58 215.817C205.247 215.435 205.483 214.564 205.097 213.902C204.712 213.239 203.833 213.006 203.166 213.388Z" fill="white"/>
<path d="M181.275 219.554C182.227 219.008 183.179 218.463 184.131 217.918C186.248 216.705 188.365 215.492 190.482 214.28C192.654 213.036 194.827 211.791 196.999 210.547C198.118 209.906 199.236 209.266 200.355 208.625C200.366 208.618 200.377 208.612 200.388 208.606C201.056 208.223 201.291 207.352 200.906 206.69C200.52 206.028 199.642 205.794 198.975 206.176C198.022 206.722 197.07 207.267 196.118 207.812C194.001 209.025 191.884 210.238 189.767 211.45C187.595 212.694 185.423 213.939 183.25 215.183C182.132 215.824 181.013 216.465 179.895 217.105C179.883 217.112 179.872 217.118 179.861 217.124C179.194 217.507 178.958 218.378 179.344 219.04C179.729 219.702 180.607 219.936 181.275 219.554Z" fill="white"/>
<path d="M172.002 107.512C172.105 107.101 163.004 111.593 162.541 112.101C158.272 116.799 159.49 122.93 161.932 122.989C163.498 123.027 163.195 125.612 163.195 125.612L180.647 118.287C180.647 118.287 178.546 106.129 172.002 107.512Z" fill="#132056"/>
<path d="M174.155 108.46C174.155 108.46 174.779 101.716 167.181 101.716C167.181 101.716 169.483 102.335 170.674 103.574C170.674 103.574 165.828 100.752 160.557 105.089C155.283 109.426 158.561 120.3 156.957 122.366C155.354 124.431 149.11 124.844 149.873 131.519C150.636 138.195 169.689 146.557 168.465 152.082C168.465 152.082 175.932 141.193 170.593 136.223C170.593 136.223 173.195 138.656 173.461 141.547C173.461 141.547 174.168 135.902 170.547 134.098C167.343 132.5 164.718 126.658 164.997 125.614C165.275 124.567 174.155 108.46 174.155 108.46Z" fill="#132056"/>
<path d="M167.258 140.194C166.087 134.598 158.773 132.862 155.312 137.432C154.69 138.253 154.252 139.225 154.11 140.372C153.32 146.725 163.558 172.598 165.023 174.94C167.693 179.205 183.409 193.827 183.409 193.827L186.305 192.084C186.305 192.084 175.157 173.36 173.43 171.608C171.435 169.582 169.482 150.819 167.258 140.194Z" fill="#F8E4E5"/>
<path d="M182.309 192.092C182.309 192.092 186.536 189.339 188.137 189.516C189.738 189.693 194.37 191.016 194.426 191.691C194.482 192.366 189.265 192.787 188.915 193.158C188.565 193.527 185.021 195.874 183.738 195.138C182.452 194.402 182.309 192.092 182.309 192.092Z" fill="#F8E4E5"/>
<path d="M152.82 254.309L149.043 253.758C149.043 253.758 136.344 243.747 134.454 225.064C134.261 223.163 134.221 221.234 134.363 219.288C134.38 219.064 134.355 218.839 134.231 218.651C134.231 218.649 134.229 218.648 134.226 218.646C133.82 218.028 132.809 216.479 131.439 214.276C130.089 212.106 127.778 208.004 125.237 203.402C120.658 195.111 115.328 185.197 113.5 182.04C107.673 171.977 110.481 165.21 110.481 165.21C110.481 165.21 126.734 163.615 131.188 159.75L132.792 162.204C132.792 162.204 136.314 177.671 136.147 177.743C136.321 178.269 136.498 178.805 136.676 179.349C139.455 187.859 142.651 198.496 144.394 207.158C145.374 212.033 145.893 216.279 145.613 219.172C145.518 220.165 145.635 221.69 145.901 223.573C147.475 234.672 152.82 254.309 152.82 254.309Z" fill="#DCDEE6"/>
<path d="M160.738 259.049H144.981C144.981 259.049 144.603 256.666 145.427 254.859C146.215 253.125 147.34 253.07 145.571 250.351C146.572 251.373 149.79 251.796 152.068 251.493C152.348 251.942 153.867 254.955 154.801 255.618C155.828 256.351 160.421 256.09 160.738 259.049Z" fill="#5A6389"/>
<path opacity="0.2" d="M136.676 179.348C135.3 186.879 132.049 199.412 125.237 203.402C120.658 195.112 115.328 185.197 113.5 182.04C107.673 171.977 110.481 165.21 110.481 165.21C110.481 165.21 126.734 163.615 131.188 159.75L132.792 162.204C132.792 162.204 136.314 177.671 136.147 177.743C136.321 178.266 136.498 178.802 136.676 179.348Z" fill="#5A6389"/>
<path d="M165.572 136.722C165.572 136.722 167.801 139.02 168.817 141.773C168.817 141.773 165.263 151.899 156.957 153.167C156.959 153.167 163.53 136.718 165.572 136.722Z" fill="#4F44D0"/>
<path d="M125.626 166.371L125.679 163.447C119.807 164.181 105.433 156.486 105.433 156.486C105.433 156.486 99.2908 160.54 98.4499 172.116C98.0402 177.766 95.4432 201.661 95.1558 208.795C95.0517 211.381 95.017 213.227 95.0038 213.965C95.0054 213.968 95.0054 213.969 95.0038 213.971C95.0005 214.196 94.8931 214.394 94.7543 214.573C93.5401 216.105 92.4861 217.728 91.5725 219.411C82.6135 235.948 87.2987 258.421 87.2987 258.421L89.3786 257.896C89.3786 257.896 96.9548 234.601 101.906 224.525C102.747 222.815 103.51 221.486 104.148 220.717C106.01 218.473 107.972 214.664 109.907 210.08C113.564 201.411 117.115 189.974 119.647 181.117C119.831 181.148 125.626 166.371 125.626 166.371Z" fill="#DCDEE6"/>
<path d="M159.983 146.858C150.385 144.673 156.517 131.29 157.072 131.526C158.402 131.258 161.323 128.94 163.936 124.417L164.29 124.72L170.184 129.848C170.184 129.848 168.821 131.843 167.675 133.797C166.779 135.326 166.018 136.834 166.138 137.35C166.614 137.72 162.544 147.441 159.983 146.858Z" fill="url(#paint3_linear)"/>
<path opacity="0.1" d="M170.181 129.849C170.181 129.849 168.818 131.841 167.671 133.798C164.006 131.556 164.002 127.055 164.285 124.723L170.181 129.849Z" fill="black"/>
<path d="M170.35 132.418C170.35 132.418 161.451 127.504 164.62 122.053C167.788 116.602 168.774 112.296 174.591 115.202C180.408 118.108 180.292 120.816 179.681 122.889C179.068 124.966 172.746 133.556 170.35 132.418Z" fill="url(#paint4_linear)"/>
<path d="M181.186 119.711C180.778 117.29 179.539 117.059 178.675 117.222C175.388 111.829 170.018 113.934 170.018 113.934C167.151 117.505 163.004 118.113 163.004 118.113C163.004 118.113 164.036 120.019 168.292 121.199C169.592 121.56 171.068 121.342 172.49 120.867C169.538 122.499 166.45 123.125 166.45 123.125C172.057 123.635 177.393 118.549 177.947 118.005C178.206 118.793 178.659 120.444 178.388 121.65C178.019 123.289 176.552 126.259 177.448 126.643C177.448 126.643 181.797 123.342 181.186 119.711Z" fill="#132056"/>
<path d="M99.8282 259.05H84.071C84.071 259.05 83.6927 256.666 84.5171 254.86C85.3051 253.126 86.5408 252.338 86.2451 250.238C87.2462 251.261 88.8785 252.407 91.1566 252.102C91.4358 252.551 92.959 254.954 93.8907 255.618C94.9183 256.352 99.511 256.091 99.8282 259.05Z" fill="#5A6389"/>
<path d="M161.112 157.467C159.084 158.169 156.238 158.554 153.327 158.867C149.184 159.316 144.907 159.622 142.665 160.509C141.847 160.832 141.3 161.232 141.13 161.742C140.159 164.639 135.878 169.111 135.878 169.111C108.441 167.872 105.43 156.485 105.43 156.485C123.89 135.19 155.144 129.026 155.144 129.026C155.144 129.026 157.376 128.086 162.998 132.52C166.75 135.48 166.256 136.616 166.256 136.616C166.256 136.616 167.079 155.402 161.112 157.467Z" fill="#9D95F8"/>
<path d="M153.333 158.866C149.19 159.315 144.913 159.622 142.671 160.509C141.756 146.933 148.213 136.722 148.213 136.722C148.213 136.722 152.426 153.73 153.333 158.866Z" fill="#4F44D0"/>
<path d="M157.59 134.094C157.59 134.094 147.205 135.112 146.374 141.806C145.541 148.499 156.329 175.764 157.874 178.234C160.687 182.728 177.249 198.135 177.249 198.135L180.302 196.299C180.302 196.299 168.554 176.569 166.735 174.722C163.879 171.824 161.107 136.413 157.59 134.094Z" fill="#F8E4E5"/>
<path d="M146.675 145.835C146.702 145.987 156.259 148.933 162.408 145.835C162.408 145.835 163.724 131.757 156.381 132.521C149.039 133.285 144.691 135.58 144.506 139.067C144.323 142.554 146.675 145.835 146.675 145.835Z" fill="#B9B3F9"/>
<path d="M176.305 196.179C176.305 196.179 180.03 192.784 181.637 192.704C183.247 192.624 188.033 193.187 188.198 193.845C188.363 194.502 183.283 195.752 182.997 196.174C182.711 196.595 179.596 199.476 178.209 198.955C176.822 198.436 176.305 196.179 176.305 196.179Z" fill="#F8E4E5"/>
</g>
<defs>
<linearGradient id="paint0_linear" x1="277.984" y1="124.536" x2="278.46" y2="131.039" gradientUnits="userSpaceOnUse">
<stop stop-color="#FFC794"/>
<stop offset="1" stop-color="#DEC6B9"/>
</linearGradient>
<linearGradient id="paint1_linear" x1="334.799" y1="84.6252" x2="337.252" y2="99.3752" gradientUnits="userSpaceOnUse">
<stop stop-color="#FFC794"/>
<stop offset="1" stop-color="#DEC6B9"/>
</linearGradient>
<linearGradient id="paint2_linear" x1="331.182" y1="69.9965" x2="334.055" y2="87.4129" gradientUnits="userSpaceOnUse">
<stop stop-color="#FFC794"/>
<stop offset="1" stop-color="#DEC6B9"/>
</linearGradient>
<linearGradient id="paint3_linear" x1="156.272" y1="127.42" x2="160.403" y2="147.566" gradientUnits="userSpaceOnUse">
<stop stop-color="#FFC794"/>
<stop offset="1" stop-color="#DEC6B9"/>
</linearGradient>
<linearGradient id="paint4_linear" x1="165.626" y1="116.707" x2="168.315" y2="133.33" gradientUnits="userSpaceOnUse">
<stop stop-color="#FFC794"/>
<stop offset="1" stop-color="#DEC6B9"/>
</linearGradient>
</defs>
</svg>
