<svg width="320" height="120" viewBox="0 0 320 120" fill="none" xmlns="http://www.w3.org/2000/svg">
<g clip-path="url(#clip0)">
<path d="M285.411 126.675C280.239 129.079 91.1972 128.831 67.8041 128.831C58.116 128.831 49.3882 130.646 42.6094 125.966C35.5406 121.085 30.0072 114.026 24.7924 108.262C14.0204 96.3553 5.32113 83.3185 4.05188 69.3586C3.567 64.0064 4.29908 58.3692 8.64398 53.816C12.9889 49.2629 21.7453 46.1717 29.6127 47.7452C37.095 49.2412 43.9214 54.547 51.071 52.4718C55.8818 51.0749 57.2128 47.1257 58.097 43.7434C61.4056 31.0658 67.4904 18.0445 81.5519 9.02187C95.6181 0.00232679 119.534 -3.51319 135.402 4.13422C144.154 8.35283 149.107 15.0989 152.786 21.7768C156.466 28.4548 159.29 35.4424 165.194 41.4018C171.098 47.3611 181 52.258 191.872 51.9142C201.417 51.6107 209.574 47.4447 216.415 43.096C223.256 38.7442 229.811 33.8783 238.643 31.4995C247.476 29.1176 259.498 30.2574 263.881 35.7924C267.694 40.6088 264.394 46.3885 261.566 51.4837C258.276 57.4152 255.652 63.7338 257.059 69.9719C258.467 76.21 264.803 82.3397 274.182 83.8915C282.758 85.3101 292.033 82.7733 300.575 84.2725C313.258 86.4995 318.758 97.1142 314.827 105.279C310.895 113.444 300.394 119.465 289.832 124.551C289.832 124.551 289.832 124.551 289.827 124.551C288.139 125.368 286.708 126.071 285.411 126.675Z" fill="#EFEEFB"/>
<path d="M212.714 -0.751174C214.432 0.264863 215.675 1.8702 216.671 3.50527C220.867 10.3948 221.487 18.4055 219.912 25.4946C218.342 32.5862 214.751 38.9139 210.935 44.9873C209.365 47.4922 204.402 57.4035 201.16 52.5424C198.997 49.2977 200.368 39.9705 200.375 36.4818C200.386 29.5887 201.477 22.8299 203.592 16.4797C204.099 14.9492 211.36 -1.55183 212.714 -0.751174Z" fill="#E6E5F4"/>
<path d="M208.033 62.019C219.703 57.1218 233.127 55.1659 246.701 56.3867C244.958 60.0679 241.203 62.4435 237.269 64.145C227.952 68.1697 220.192 70.2576 209.846 71.7888C206.902 72.2241 195.658 72.0798 195.556 70.9319C195.233 67.305 205.075 63.2571 208.033 62.019Z" fill="#C6C2F9"/>
<path d="M171.377 99.7332L170.676 99.098C175.572 94.435 180.189 89.2033 184.396 83.5525C188.373 78.2108 192.1 72.3403 195.469 66.1052C198.633 60.2551 201.576 53.9126 204.216 47.2563C206.729 40.9159 208.983 34.3053 210.917 27.6061C212.454 22.2755 214.243 15.2046 214.429 7.75514C214.449 6.93184 214.45 6.1024 214.43 5.28968L215.351 5.38938C215.369 6.21533 215.372 7.05684 215.35 7.89337C215.165 15.4295 213.359 22.5581 211.81 27.9295C209.87 34.6492 207.608 41.2837 205.083 47.6422C202.433 54.3261 199.476 60.6938 196.304 66.5679C192.918 72.8318 189.175 78.7311 185.176 84.0991C180.946 89.7799 176.302 95.0391 171.377 99.7332Z" fill="#C6C2F9"/>
<path d="M189.397 77.1953C189.393 77.1929 189.385 77.188 189.381 77.1856C189.157 77.0469 189.076 76.7792 189.196 76.5897C191.613 72.8128 196.573 69.6455 203.946 67.1759C214.483 63.6488 225.375 60.0012 237.36 60.031C237.612 60.0326 237.845 60.2242 237.878 60.4592C237.911 60.6941 237.733 60.8844 237.481 60.8828C225.65 60.8504 214.826 64.4756 204.359 67.9803C197.159 70.3919 192.331 73.4578 190.008 77.092C189.887 77.2815 189.617 77.3219 189.397 77.1953Z" fill="#EFEEFB"/>
<path fill-rule="evenodd" clip-rule="evenodd" d="M196.331 65.0742C196.361 65.1105 196.394 65.1397 196.432 65.1616C196.546 65.2273 196.683 65.2342 196.785 65.1638C202.113 61.6713 208.013 57.4108 212.248 51.9058C212.257 51.901 212.266 51.8969 212.275 51.8927C212.285 51.8886 212.294 51.8844 212.303 51.8796C215.078 50.2671 217.581 48.5506 220.117 46.7861C225.333 43.1568 228.814 39.5817 231.071 35.5353C232.604 32.7834 234.191 28.6714 233.818 23.8356C233.922 23.675 233.847 23.1809 233.453 21.351L233.358 20.9026L232.956 21.1023C226.53 24.2773 222.861 30.2336 220.381 35.0731C219.572 36.6788 218.789 38.3472 218.03 39.9628C216.493 43.2396 214.905 46.622 213.016 49.6907C208.805 56.0301 202.235 60.8161 196.366 64.6628C196.23 64.7522 196.215 64.9351 196.331 65.0742ZM220.97 35.3889C223.344 30.7618 226.815 25.0992 232.767 21.9284C232.827 22.5055 233.046 23.2267 233.149 23.5356C233.591 28.3585 232.008 32.4729 230.484 35.2105C228.27 39.1909 224.837 42.7122 219.682 46.2948C217.564 47.7731 215.462 49.2128 213.213 50.5867C213.332 50.4185 213.448 50.2449 213.563 50.074L213.581 50.0461C215.488 46.9486 217.084 43.5518 218.628 40.2642C219.384 38.6522 220.165 36.9874 220.97 35.3889Z" fill="#E6E5F4"/>
<path d="M269.248 87.2421C268.114 85.7406 266.268 84.7478 264.375 83.9822C256.407 80.7768 246.979 81.0237 238.553 83.2266C230.127 85.4294 222.523 89.4449 215.214 93.6431C212.199 95.3718 200.318 101.042 205.932 103.571C209.676 105.26 220.735 103.008 224.855 102.642C232.992 101.916 241.007 100.197 248.582 97.5598C250.394 96.9227 270.139 88.4225 269.248 87.2421Z" fill="#C6C2F9"/>
<path d="M262.107 85.4097C261.135 85.4788 260.139 85.5628 259.15 85.6714C250.249 86.6247 241.771 89.0498 235.37 91.06C227.367 93.5691 219.456 96.3745 211.857 99.3923C203.871 102.563 196.244 105.986 189.195 109.567C188.35 109.997 187.517 110.426 186.684 110.866C187.262 110.895 187.841 110.93 188.42 110.965C188.848 110.742 189.27 110.52 189.704 110.303C196.724 106.742 204.323 103.329 212.274 100.173C219.849 97.1647 227.737 94.3692 235.712 91.8651C242.06 89.8746 250.469 87.4643 259.271 86.521C260.243 86.4172 261.221 86.3283 262.182 86.2641L262.107 85.4097Z" fill="#EFEEFB"/>
<path fill-rule="evenodd" clip-rule="evenodd" d="M213.941 86.1257C204.444 92.591 196.95 101.096 190.787 108.722C190.671 108.87 190.671 109.053 190.781 109.186C190.816 109.231 190.862 109.275 190.92 109.31C191.146 109.443 191.458 109.394 191.614 109.201C198.403 100.8 206.817 91.3216 217.714 84.7674C222.98 81.7891 228.762 79.1665 234.358 76.6327C237.118 75.3831 239.971 74.0891 242.714 72.7753C250.996 68.7499 261.222 62.9711 266.91 53.9276L267.275 53.3646L266.522 53.3004C263.467 53.0485 262.634 53.0188 262.362 53.1868C254.236 53.4041 247.223 56.1354 242.512 58.5852C235.573 62.1908 229.369 67.3669 222.98 74.8645C219.878 78.5096 216.852 82.1102 213.987 86.0466C213.97 86.0713 213.953 86.101 213.941 86.1257ZM243.026 59.3108C247.719 56.8709 254.733 54.1494 262.829 54.0309C263.35 54.1247 264.548 54.3124 265.52 54.3025C259.86 62.7138 250.132 68.1864 242.216 72.0389C239.575 73.3042 236.826 74.551 234.158 75.7615L233.882 75.8864L233.882 75.8867C228.263 78.4352 222.458 81.0677 217.14 84.0705C216.828 84.2582 216.515 84.4459 216.208 84.6385C218.645 81.433 221.185 78.4152 223.784 75.3678C230.092 67.9592 236.209 62.8571 243.026 59.3108Z" fill="#E6E5F4"/>
<path d="M214.637 85.1825L215.256 85.8542C216.807 84.8071 218.792 83.3105 220.893 81.7202C223.381 79.8433 225.95 77.8973 227.837 76.6971C233.995 72.7606 240.337 68.8982 246.697 65.2087C253.057 61.5242 259.602 57.9137 266.159 54.476L265.638 53.75C259.07 57.1926 252.507 60.808 246.136 64.5024C239.764 68.1969 233.404 72.0691 227.235 76.0105C225.32 77.2354 222.733 79.1913 220.227 81.0781C218.144 82.6635 216.165 84.1551 214.637 85.1825Z" fill="#E6E5F4"/>
<path d="M205.454 96.6438C205.767 93.2656 206.514 89.4596 209.341 88.2573C209.756 88.0791 210.243 87.9752 210.688 88.2022C211.483 88.6021 211.663 89.7393 212.199 90.5069C213.329 92.1316 215.706 91.5634 216.601 90.0585C217.495 88.5536 217.484 86.5488 217.931 84.7839C218.321 83.2427 219.072 81.8617 220.105 80.7882C221.455 79.3881 224.038 78.7422 225.336 80.5769C226.274 81.91 225.882 83.6295 225.671 85.1489C225.46 86.6683 225.805 88.7465 227.235 89.2778C228.464 89.7339 229.486 88.6527 230.285 87.728C232.229 85.4605 234.572 83.6031 237.188 82.2493C239.012 81.3056 241.06 80.6003 243.204 80.9985C245.346 81.3917 247.564 83.1583 248.061 85.4693C248.52 87.6247 247.418 89.5969 246.041 90.951C242.29 94.6437 236.665 95.3416 231.838 97.3513C230.698 97.8255 229.414 98.8872 229.954 100.225C230.333 101.165 231.372 101.534 232.248 101.921C234.378 102.859 236.277 104.647 237.451 106.832C237.651 107.208 237.837 107.612 237.84 108.019C237.852 108.947 236.951 109.432 236.125 109.575C232.301 110.228 227.98 107.187 224.284 108.244C223.79 108.386 223.278 108.648 223.129 109.177C223.023 109.558 223.136 110.005 223.3 110.4C223.978 112.048 225.465 113.173 226.643 114.497C227.821 115.822 228.754 117.86 227.936 119.205C227.32 120.215 225.979 120.362 224.783 120.255C221.1 119.913 217.467 117.954 214.343 115.395C211.544 113.097 207.948 109.883 206.049 106.643C204.264 103.583 205.164 99.7497 205.454 96.6438Z" fill="#E6E5F4"/>
<path d="M242.042 87.2112L202.412 110.092" stroke="#EFEEFB" stroke-linecap="round"/>
<path d="M223.109 81.5615C222.046 87.6912 220.839 93.7741 219.49 99.8026" stroke="#EFEEFB" stroke-linecap="round"/>
<path d="M210.02 90.5034C209.652 95.7332 209.165 100.937 208.567 106.109" stroke="#EFEEFB" stroke-linecap="round"/>
<path d="M217.786 101.803C223.109 103.434 228.42 105.154 233.713 106.966" stroke="#EFEEFB" stroke-linecap="round"/>
<path d="M74.8096 16.3129C73.1848 17.2402 72.0325 18.7193 71.1238 20.228C67.2944 26.5655 66.946 33.9541 68.6878 40.5063C70.4281 47.0542 74.0999 52.9086 77.976 58.5326C79.5737 60.851 84.6778 70.0161 87.6566 65.5447C89.6414 62.5609 88.0204 53.9495 87.9061 50.7268C87.679 44.3614 86.412 38.1237 84.1657 32.2566C83.6276 30.8393 76.0949 15.5802 74.8096 16.3129Z" fill="#C6C2F9"/>
<path d="M81.3232 74.2564C69.9001 69.6905 56.8787 67.8304 43.8086 68.8975C45.6075 72.3018 49.3108 74.5114 53.1629 76.0945C62.2885 79.8457 69.8428 81.808 79.8826 83.2584C82.7379 83.6715 93.5883 83.5873 93.6518 82.5282C93.8493 79.1873 84.2227 75.4151 81.3232 74.2564Z" fill="#C6C2F9"/>
<path d="M117.917 109.21L118.576 108.629C113.699 104.306 109.075 99.4608 104.835 94.2245C100.824 89.2791 97.0451 83.8468 93.588 78.0798C90.3492 72.6687 87.3053 66.8033 84.5448 60.6504C81.9182 54.7893 79.5286 48.681 77.4484 42.4933C75.7948 37.5696 73.8439 31.0368 73.4249 24.1593C73.3811 23.3994 73.352 22.6341 73.3452 21.8844L72.4616 21.9695C72.468 22.7335 72.4953 23.5089 72.5436 24.2814C72.9625 31.2346 74.9283 37.8235 76.5955 42.7848C78.6834 48.9934 81.0756 55.1243 83.7147 61.0045C86.4844 67.1825 89.5423 73.0712 92.7951 78.5056C96.2628 84.3018 100.067 89.7581 104.094 94.7309C108.357 99.9869 113.008 104.861 117.917 109.21Z" fill="#E6E5F4"/>
<path d="M99.7999 88.341C99.8048 88.3392 99.8097 88.3375 99.8131 88.3315C100.021 88.2036 100.098 87.958 99.9746 87.7854C97.5211 84.2883 92.6313 81.3466 85.4377 79.0354C75.1514 75.7351 64.52 72.3239 52.9505 72.3055C52.7062 72.3045 52.4885 72.4831 52.4658 72.6948C52.4397 72.9125 52.6151 73.0899 52.8579 73.0867C64.2785 73.1072 74.8458 76.4945 85.063 79.7726C92.0913 82.0257 96.8474 84.8741 99.2086 88.2393C99.329 88.4178 99.5869 88.4564 99.7999 88.341Z" fill="#EFEEFB"/>
<path fill-rule="evenodd" clip-rule="evenodd" d="M70.1132 59.7295C76.1964 67.0007 84.5208 72.6472 92.0196 77.2743C92.1631 77.364 92.3541 77.3559 92.4952 77.2715C92.546 77.2435 92.5938 77.2072 92.6321 77.1601C92.7819 76.9779 92.7552 76.7369 92.5622 76.6179C84.2995 71.5214 75.0352 65.1809 68.9453 56.8099C66.207 52.7588 63.8602 48.2908 61.5956 43.9726C60.4821 41.8422 59.325 39.6378 58.1383 37.5198C54.5015 31.137 49.1764 23.2682 40.1813 19.0532L39.6181 18.7851L39.5072 19.379C39.0517 21.7825 38.9685 22.4372 39.1222 22.6462C38.8284 29.012 41.2015 34.4355 43.4383 38.0684C46.729 43.4086 51.6872 48.1372 59.041 52.9448C62.612 55.2784 66.1406 57.5564 70.0347 59.6966C70.0619 59.7103 70.0876 59.7199 70.1132 59.7295ZM44.2308 37.6389C42.0064 34.0251 39.6382 28.5998 40.032 22.2497C40.1596 21.839 40.4308 20.8935 40.4793 20.1283C48.8226 24.3345 53.8623 31.8151 57.3438 37.9233C58.4503 39.8956 59.5268 41.945 60.5761 43.9428C60.6492 44.082 60.7222 44.2209 60.795 44.3595L60.8048 44.3782C63.0788 48.7097 65.4274 53.1832 68.1931 57.269C68.3688 57.5079 68.5444 57.7467 68.7249 57.9838C65.5626 56.1638 62.6047 54.2506 59.6153 52.2967C52.3555 47.5495 47.4669 42.8902 44.2308 37.6389Z" fill="#C6C2F9"/>
<path d="M69.1875 59.2058L69.9191 58.703C68.9389 57.5175 67.5102 55.9985 65.9995 54.3911C64.2157 52.4905 62.3703 50.5271 61.2457 49.0819C57.5653 44.3613 53.9726 39.4858 50.5646 34.5998C47.1566 29.7138 43.8412 24.6711 40.7071 19.6239L39.9206 20.0521C43.0593 25.1118 46.3875 30.1593 49.8001 35.0578C53.2126 39.9563 56.8132 44.8385 60.5031 49.5698C61.6482 51.0406 63.5045 53.019 65.3027 54.9286C66.799 56.527 68.2182 58.0353 69.1875 59.2058Z" fill="#C6C2F9"/>
<path d="M143.386 56.8123C148.521 50.9174 156.154 47.2909 163.988 44.432C169.322 57.7266 165.792 72.3616 155.333 80.3417C153.508 81.7315 151.444 82.9524 149.002 83.3903C142.31 84.5833 138.765 80.0673 138.115 74.7129C137.281 67.8968 139.098 61.7389 143.386 56.8123Z" fill="#E6E5F4"/>
<path d="M161.907 49.3289L138.817 89.321" stroke="#EFEEFB" stroke-linecap="round"/>
<path d="M153.914 49.71C154.04 53.2012 154.21 56.6978 154.426 60.1999" stroke="#EFEEFB" stroke-linecap="round"/>
<path d="M151.425 68.0827C155.651 67.1704 159.758 65.9431 163.692 64.4107" stroke="#EFEEFB" stroke-linecap="round"/>
<path d="M107.663 33.7934C109.347 33.9725 110.969 34.9365 112.437 36.0416C118.604 40.7037 122.784 48.0913 124.99 55.6132C127.197 63.135 127.624 70.8632 127.773 78.4484C127.837 81.5759 128.97 93.3705 124.417 90.212C121.378 88.1063 117.989 78.5301 116.361 75.1817C113.149 68.5677 110.76 61.5872 109.283 54.5201C108.935 52.8273 106.339 33.6531 107.663 33.7934Z" fill="#C6C2F9"/>
<path d="M112.388 38.4536C112.785 39.2358 113.182 40.0426 113.557 40.8565C116.947 48.1652 119.006 55.8303 120.423 61.7002C122.197 69.0381 123.7 76.442 124.894 83.7032C126.15 91.3345 127.045 98.8058 127.55 105.904C127.61 106.755 127.665 107.597 127.712 108.444C127.421 108.011 127.126 107.581 126.831 107.15C126.804 106.717 126.78 106.288 126.746 105.852C126.239 98.7855 125.35 91.3411 124.099 83.7435C122.908 76.5047 121.408 69.1233 119.643 61.81C118.236 55.9894 116.198 48.3848 112.845 41.1565C112.474 40.3584 112.09 39.5626 111.694 38.7917L112.388 38.4536Z" fill="#E6E5F4"/>
<path fill-rule="evenodd" clip-rule="evenodd" d="M134.162 75.9461C133.576 86.2699 130.489 95.9945 127.462 104.285C127.401 104.443 127.26 104.527 127.107 104.504C127.056 104.498 127 104.483 126.947 104.454C126.739 104.342 126.633 104.078 126.709 103.868C130.044 94.7365 133.456 83.8509 133.461 72.4055C133.317 66.9619 132.661 61.2858 132.021 55.7938C131.706 53.0848 131.381 50.2838 131.123 47.5585C130.39 39.3033 130.108 28.7352 134.448 20.1541L134.713 19.6118L135.112 20.1625C136.722 22.4031 137.132 23.0323 137.128 23.32C140.727 29.6893 141.871 36.3667 142.165 41.1367C142.6 48.1614 141.482 55.3471 138.66 63.7519C137.285 67.8347 135.91 71.8389 134.201 75.8738C134.19 75.8986 134.176 75.9258 134.162 75.9461ZM141.365 41.0756C141.071 36.3236 139.92 29.6507 136.258 23.3495C135.944 22.9912 135.244 22.154 134.801 21.3993C130.935 29.6651 131.223 39.7073 131.92 47.601C132.168 50.2248 132.481 52.9236 132.784 55.5438L132.815 55.8138L132.815 55.8147C133.454 61.3312 134.114 67.0294 134.262 72.5243L134.262 72.5246C134.262 72.8526 134.262 73.1806 134.256 73.5065C135.6 70.1408 136.75 66.7818 137.897 63.3645C140.688 55.0635 141.789 47.979 141.365 41.0756Z" fill="#C6C2F9"/>
<path d="M134.57 74.9729L133.765 74.8066C133.854 73.1246 134.088 70.8994 134.341 68.5415C134.636 65.7516 134.946 62.8671 134.997 60.8552C135.18 54.2799 135.219 47.596 135.118 40.9789C135.012 34.3641 134.763 27.6407 134.376 20.9885L135.178 21.0538C135.567 27.7172 135.819 34.4562 135.923 41.0846C136.026 47.7129 135.987 54.4147 135.806 61.0013C135.749 63.047 135.439 65.9494 135.145 68.7573C134.888 71.0996 134.654 73.318 134.57 74.9729Z" fill="#C6C2F9"/>
<path d="M114.018 101.504C107.44 92.7556 104.696 81.2471 103.061 69.6877C122.819 66.2532 141.833 75.3465 149.716 91.9926C151.088 94.8962 152.159 98.0782 152.048 101.55C151.734 111.06 144.518 114.601 136.997 113.932C127.425 113.085 119.516 108.81 114.018 101.504Z" fill="#C6C2F9"/>
<path d="M109.162 73.9634L154.671 114.94" stroke="#EFEEFB" stroke-linecap="round"/>
<path d="M107.355 85.0161C112.173 85.8604 117.011 86.6447 121.869 87.369" stroke="#EFEEFB" stroke-linecap="round"/>
<path d="M131.791 93.7715C131.772 87.7192 131.287 81.7381 130.333 75.9047" stroke="#EFEEFB" stroke-linecap="round"/>
<path d="M129.021 119.881C126.532 121.604 123.499 123.281 121.049 122.035C120.689 121.854 120.338 121.581 120.232 121.146C120.051 120.372 120.722 119.597 120.944 118.783C121.404 117.079 119.652 115.777 118.111 116.033C116.569 116.288 115.2 117.443 113.733 118.152C112.454 118.77 111.077 119.048 109.754 118.957C108.022 118.839 106.097 117.438 106.605 115.499C106.976 114.089 108.384 113.373 109.542 112.646C110.7 111.92 111.924 110.487 111.468 109.202C111.074 108.098 109.747 108.019 108.655 108.004C105.985 107.972 103.368 107.438 100.944 106.426C99.2544 105.717 97.5944 104.723 96.6327 103.029C95.671 101.336 95.6055 98.8056 96.9023 97.1397C98.1146 95.5874 100.095 95.2104 101.817 95.3748C106.499 95.8222 110.202 99.2647 114.35 101.417C115.33 101.926 116.793 102.191 117.396 101.06C117.822 100.261 117.476 99.3335 117.237 98.517C116.651 96.5197 116.788 94.1935 117.61 92.1381C117.751 91.7849 117.919 91.4269 118.196 91.1886C118.824 90.6512 119.677 90.9834 120.245 91.4718C122.888 93.7121 123.29 98.4161 126.134 100.34C126.514 100.601 126.991 100.796 127.434 100.596C127.759 100.447 127.997 100.115 128.176 99.7758C128.911 98.3675 128.826 96.7042 129.064 95.1367C129.293 93.5735 130.15 91.7618 131.539 91.5524C132.584 91.3911 133.452 92.2267 134.068 93.1082C135.952 95.8237 136.695 99.4383 136.734 103.042C136.771 106.277 136.634 110.582 135.506 113.747C134.453 116.708 131.311 118.295 129.021 119.881Z" fill="#E6E5F4"/>
<path d="M102.393 101.088L135.259 113.051" stroke="#EFEEFB" stroke-linecap="round"/>
<path d="M110.617 115.783C112.595 114.618 114.569 113.444 116.547 112.279" stroke="#EFEEFB" stroke-linecap="round"/>
<path d="M119.09 110.532C120.146 109.984 121.197 109.435 122.253 108.888" stroke="#EFEEFB" stroke-linecap="round"/>
<path d="M122.832 119.262C126.172 117.047 129.536 114.883 132.93 112.774" stroke="#EFEEFB" stroke-linecap="round"/>
<path d="M127.754 110.031C125.56 106.033 123.415 102.002 121.314 97.9358" stroke="#EFEEFB" stroke-linecap="round"/>
<path d="M117.582 106.751C117.739 106.383 118.102 106.144 118.502 106.144H201.057C201.458 106.144 201.82 106.383 201.977 106.751L204.068 111.656C204.349 112.316 203.865 113.048 203.148 113.048H116.412C115.695 113.048 115.211 112.316 115.492 111.656L117.582 106.751Z" fill="#EFEEFB"/>
<rect x="116.277" y="15" width="51.2211" height="93.9054" rx="6" fill="#675AF6"/>
<path d="M158.41 19.4995H153.913C153.337 19.4995 152.869 19.9682 152.869 20.546V21.8846C152.869 23.1264 151.855 24.1426 150.615 24.1426H133.433C132.193 24.1426 131.179 23.1266 131.179 21.8846V20.9591C131.179 20.153 130.527 19.4995 129.722 19.4995H125.638C123.488 19.4995 121.745 21.2458 121.745 23.4V94.8524C121.745 97.3203 121.411 100.672 123.593 102.198C125.373 103.443 133.461 103.316 133.461 103.316H158.41C160.56 103.316 162.303 101.57 162.303 99.4159V23.4C162.303 21.2458 160.56 19.4995 158.41 19.4995Z" fill="#EFEEFB"/>
<rect x="126.031" y="93.0522" width="32.9279" height="7.31731" rx="1" fill="#C6C2F9"/>
<path d="M147.692 20.9113H140.338C139.56 20.9113 138.93 20.2797 138.93 19.5001C138.93 18.7206 139.56 18.0889 140.338 18.0889H147.692C148.47 18.0889 149.1 18.7206 149.1 19.5001C149.1 20.2797 148.47 20.9113 147.692 20.9113Z" fill="#C6C2F9"/>
<path d="M135.128 20.6735C134.12 20.0094 134.364 18.3861 135.633 18.1163C136.497 17.9379 137.318 18.6078 137.318 19.4992C137.318 20.1547 136.867 20.7421 136.184 20.8841C136.094 20.9011 135.415 20.8676 135.128 20.6735Z" fill="#C6C2F9"/>
<path d="M202.362 106.943C202.362 103.12 202.362 89.8735 202.362 86.6763V83.0932V74.964C202.362 73.8843 201.518 73.001 200.486 73.001H199.82C197.144 73.001 145.008 73.001 142.095 73.001C141.063 73.001 140.219 73.8843 140.219 74.964V83.0932C140.219 85.5995 140.219 87.7531 140.219 90.2594V106.943C140.219 108.023 141.063 108.906 142.095 108.906H151.085H151.819C152.702 108.906 198.665 108.906 200.486 108.906C201.518 108.906 202.362 108.023 202.362 106.943Z" fill="white"/>
<rect x="146.66" y="92.7275" width="22.0954" height="2.76192" rx="1.38096" fill="#C6C2F9"/>
<rect x="146.66" y="98.251" width="30.3812" height="2.76192" rx="1.38096" fill="#C6C2F9"/>
<path fill-rule="evenodd" clip-rule="evenodd" d="M167.375 95.7065C167.649 95.5695 167.857 95.3333 168.062 95.0808C168.313 94.7735 168.558 94.4816 168.862 94.2318C169.226 93.9328 169.713 93.6468 170.326 93.5562C170.206 94.255 170.142 94.9733 170.141 95.7065H167.375ZM169.438 88.0028L169.438 88.0031L169.438 88.0027C169.745 88.0213 170.042 87.9203 170.346 87.8046C170.717 87.6636 171.075 87.5336 171.463 87.4692C171.93 87.3922 172.499 87.3886 173.077 87.6202C172.16 88.7185 171.425 89.9746 170.92 91.3423C170.434 90.9572 170.155 90.4654 169.989 90.024C169.85 89.6556 169.784 89.28 169.721 88.8886C169.669 88.5672 169.607 88.2589 169.438 88.0028ZM175.075 82.3631L175.075 82.3634V82.363C175.331 82.5325 175.64 82.594 175.961 82.6457C176.352 82.709 176.728 82.7756 177.096 82.9141C177.539 83.0809 178.033 83.362 178.418 83.8521C177.05 84.3552 175.793 85.0891 174.693 86.0055C174.461 85.426 174.465 84.8568 174.542 84.3889C174.606 84.0008 174.736 83.6421 174.877 83.2715C174.993 82.9674 175.094 82.6696 175.075 82.3631ZM182.776 80.2988V80.2992L182.776 80.2988C182.913 80.5737 183.149 80.7811 183.402 80.9863C183.709 81.237 184.001 81.4825 184.25 81.7865C184.551 82.1533 184.839 82.6446 184.927 83.2631C184.228 83.1432 183.509 83.0799 182.776 83.0799C182.042 83.0799 181.324 83.1432 180.624 83.2632C180.713 82.6446 181.001 82.1533 181.302 81.7865C181.551 81.4825 181.843 81.237 182.15 80.9863C182.403 80.7811 182.639 80.5737 182.776 80.2988ZM190.476 82.363V82.3634L190.476 82.3631C190.458 82.6695 190.559 82.9674 190.675 83.2715C190.815 83.6421 190.945 84.0008 191.01 84.3889C191.087 84.8566 191.09 85.4259 190.858 86.0054C189.759 85.0889 188.502 84.3553 187.133 83.852C187.519 83.362 188.013 83.0809 188.456 82.9141C188.824 82.7755 189.2 82.7089 189.591 82.6455C189.912 82.594 190.22 82.5325 190.476 82.363ZM196.113 88.0025L196.113 88.0028H196.114C195.944 88.2588 195.883 88.5672 195.831 88.8886C195.768 89.2799 195.701 89.6556 195.563 90.0239C195.397 90.4653 195.118 90.9571 194.632 91.3421C194.127 89.9744 193.392 88.7184 192.474 87.62C193.053 87.3886 193.621 87.3921 194.089 87.4691C194.476 87.5335 194.835 87.6635 195.206 87.8044C195.509 87.9203 195.807 88.0213 196.113 88.0025ZM195.225 93.5561C195.838 93.6468 196.325 93.9327 196.69 94.2318C196.994 94.4814 197.239 94.7734 197.49 95.0808C197.695 95.3331 197.902 95.5695 198.177 95.7065H195.41C195.41 94.9733 195.346 94.255 195.225 93.5561ZM186.448 84.6333C191.098 86.1699 194.458 90.5447 194.478 95.7068H192.177C192.329 91.1976 190.362 87.1277 186.448 84.6333Z" fill="#FFBD00"/>
<path fill-rule="evenodd" clip-rule="evenodd" d="M186.914 95.7062H188.11C188.167 94.4063 188.056 92.8663 187.636 91.5215C187.553 91.2562 187.458 90.9985 187.35 90.7526C187.096 90.1716 186.753 89.6455 186.345 89.1593C185.891 88.6194 185.35 88.1337 184.74 87.7512C184.561 87.6383 184.374 87.5341 184.182 87.44V87.4398C183.99 87.3462 183.793 87.2627 183.589 87.1905L183.588 87.1901C181.26 86.363 178.905 86.9512 176.929 88.0264C176.544 88.236 176.173 88.4639 175.82 88.7034C175.467 88.9428 175.131 89.1941 174.815 89.4505H174.815L174.815 89.4511C174.44 89.7554 173.97 90.1717 173.506 90.664C173.414 90.7609 173.324 90.8596 173.236 90.9594C173.001 91.2258 172.639 91.5995 172.747 91.9859C172.832 92.2924 173.227 92.202 173.365 92.0964C173.576 91.9831 173.808 91.8032 174.006 91.6351C174.275 91.4074 174.529 91.1623 174.796 90.9314C175.872 89.9975 176.995 89.2774 178.1 88.7899C178.341 88.6838 178.583 88.5881 178.823 88.5037C179.063 88.4194 179.301 88.3465 179.537 88.2852L179.538 88.2849C181.595 87.7503 183.831 88.0967 185.262 89.775C186.641 91.3917 186.893 93.5558 186.914 95.7062ZM172.076 93.8788C172.205 93.7588 172.336 93.6023 172.472 93.4289C172.663 93.1866 172.682 92.9521 172.607 92.7828C172.579 92.7196 172.537 92.6653 172.487 92.623C172.437 92.5812 172.378 92.5514 172.314 92.5369C172.159 92.5013 171.973 92.5569 171.815 92.7492C171.636 92.9668 171.389 93.3384 171.339 93.6673C171.329 93.7289 171.327 93.7889 171.333 93.845C171.34 93.8999 171.354 93.9518 171.379 93.9992L171.379 93.9998L171.379 93.9997C171.419 94.0769 171.487 94.1176 171.578 94.121C171.596 94.1216 171.617 94.1209 171.638 94.1184C171.66 94.1161 171.683 94.112 171.707 94.1062V94.1064L171.708 94.1061C171.83 94.0769 171.952 93.995 172.076 93.8788ZM184.481 95.7062H185.667C185.723 94.3052 185.498 92.8583 184.846 91.6063C184.254 90.4674 183.275 89.6932 182.008 89.506C180.158 89.233 178.291 90.0164 176.713 91.1375C174.994 92.3581 173.576 94.0156 172.336 95.7062L173.903 95.7041C175.314 93.7041 178.558 90.6678 180.944 90.6479C181.705 90.6416 182.478 90.8203 183.05 91.3305C183.464 91.7002 183.966 92.4183 183.941 93.001C183.927 93.3467 183.62 93.4525 183.326 93.3456C183.098 93.2624 182.937 93.0535 182.777 92.8341C182.258 92.1208 181.448 91.7718 180.559 91.8934C179.5 92.0384 178.186 92.8614 177.339 93.61C176.609 94.2557 175.938 94.9623 175.305 95.7062H176.99C177.607 94.9608 178.259 94.3249 179.097 93.8026C179.362 93.6373 179.689 93.4625 180.032 93.3446C180.898 93.0466 181.76 93.1221 182.142 94.2008C182.293 94.6249 182.315 94.9968 182.271 95.6786L182.271 95.7062H183.416L183.419 95.6712C183.42 95.298 183.412 95.0465 183.446 94.6765C183.474 94.3576 183.574 94.0272 183.87 93.988C184.499 93.8561 184.468 95.2563 184.481 95.7062ZM176.407 99.327H175.477L175.246 100.138H174.504L175.486 97.0315H176.426L177.435 100.138H176.661L176.407 99.327ZM175.583 98.8014H176.297C176.109 98.1946 175.988 97.7782 175.933 97.5523H175.924L175.776 98.1424L175.583 98.8014ZM172.989 99.327H172.058L171.828 100.138H171.086L172.067 97.0315H173.007L174.016 100.138H173.242L172.989 99.327ZM172.164 98.8014H172.878C172.691 98.1946 172.57 97.7782 172.514 97.5523H172.505L172.358 98.1424L172.164 98.8014ZM178.144 100.124V97.0728C178.451 97.0269 178.78 97.0039 179.13 97.0039C179.792 97.0039 180.267 97.1419 180.556 97.4195C180.843 97.6968 180.987 98.0593 180.987 98.5065C180.987 99.035 180.824 99.4447 180.496 99.735C180.168 100.025 179.662 100.171 178.978 100.171C178.662 100.171 178.384 100.155 178.144 100.124ZM178.858 97.58V99.6035C178.898 99.6128 178.984 99.6175 179.116 99.6175C179.471 99.6175 179.746 99.5237 179.94 99.3369C180.135 99.1503 180.231 98.8829 180.231 98.5342C180.231 98.2145 180.143 97.9711 179.966 97.8036C179.788 97.6361 179.533 97.5523 179.199 97.5523C179.059 97.5523 178.946 97.5616 178.858 97.58ZM181.751 97.0315H182.466V98.2252H183.687V97.0315H184.401V100.138H183.687V98.8431H182.466V100.138H181.751V97.0315ZM186.99 99.327H186.059L185.829 100.138H185.087L186.069 97.0315H187.009L188.017 100.138H187.243L186.99 99.327ZM186.165 98.8014H186.879C186.692 98.1946 186.571 97.7782 186.516 97.5523H186.506L186.359 98.1424L186.165 98.8014ZM190.409 99.327H189.478L189.248 100.138H188.506L189.487 97.0315H190.427L191.436 100.138H190.662L190.409 99.327ZM189.584 98.8014H190.298C190.111 98.1946 189.989 97.7782 189.934 97.5523H189.925L189.777 98.1424L189.584 98.8014ZM192.145 100.138V97.0728C192.406 97.0269 192.727 97.0039 193.108 97.0039C193.578 97.0039 193.916 97.0813 194.122 97.2365C194.328 97.3917 194.431 97.6138 194.431 97.9026C194.431 98.0747 194.379 98.2299 194.276 98.3689C194.172 98.508 194.037 98.6065 193.873 98.6632V98.6817C194.067 98.7539 194.207 98.9443 194.292 99.2532C194.451 99.8095 194.537 100.104 194.551 100.138H193.823C193.761 100.023 193.687 99.7819 193.601 99.4146C193.558 99.2303 193.5 99.1012 193.426 99.0274C193.352 98.9536 193.234 98.9167 193.071 98.9167H192.85V100.138H192.145ZM192.85 97.5523V98.4052H193.145C193.323 98.4052 193.464 98.3644 193.567 98.2836C193.67 98.203 193.721 98.0947 193.721 97.958C193.721 97.8211 193.675 97.7151 193.582 97.6406C193.489 97.566 193.357 97.5292 193.187 97.5292C193.019 97.5292 192.907 97.537 192.85 97.5523ZM180.206 95.7091L181.156 95.7062C181.281 94.9029 181.037 94.2846 180.225 94.4319C179.54 94.5564 178.805 95.2366 178.361 95.7062L179.614 95.7007C179.754 95.6088 180.027 95.5041 180.139 95.5821C180.181 95.6113 180.203 95.6527 180.206 95.7091ZM189.905 95.7068L189.914 95.7064H189.918C190.043 95.7134 190.26 95.6557 190.385 95.4443C190.41 95.402 190.432 95.3537 190.448 95.2989C190.465 95.2432 190.476 95.1798 190.481 95.1088H190.481L190.482 95.0941C190.577 91.7714 189.56 89.0209 187.833 87.152C187.497 86.7892 187.134 86.4592 186.748 86.1644C186.361 85.8699 185.951 85.6109 185.52 85.3903V85.3904L185.513 85.3869L185.513 85.3867C184.061 84.6446 182.415 84.3596 180.799 84.4966C180.484 84.5233 180.171 84.5658 179.861 84.6241C179.551 84.6821 179.243 84.7565 178.94 84.846L178.936 84.8473C177.274 85.3391 175.727 86.3152 174.467 87.5962C174.221 87.8457 173.987 88.1066 173.765 88.3772C173.655 88.5116 173.547 88.6486 173.443 88.7877C174.327 88.0249 175.275 87.3557 176.267 86.824C176.49 86.7043 176.715 86.5919 176.94 86.4876C177.166 86.3831 177.395 86.2856 177.625 86.1959L177.626 86.1956L177.627 86.1953C178.503 85.8547 179.366 85.6374 180.23 85.5402C181.094 85.4431 181.959 85.4663 182.837 85.6059C183.462 85.7054 184.071 85.869 184.621 86.098C184.727 86.1422 184.832 86.1896 184.935 86.2393C185.036 86.2884 185.136 86.3409 185.234 86.396H185.234L185.235 86.3968V86.3969C187.17 87.4564 188.513 89.6306 189.105 92.0854C189.22 92.5641 189.307 93.0531 189.364 93.5457C189.421 94.0383 189.449 94.536 189.445 95.033V95.0332L189.445 95.0617C189.455 95.3277 189.546 95.55 189.702 95.6502C189.731 95.6687 189.762 95.6833 189.796 95.6927H189.796C189.83 95.7024 189.867 95.7072 189.905 95.7068Z" fill="#D04954"/>
<path d="M155.95 89.9652H148.418C147.451 89.9652 146.66 88.7621 146.66 87.2916V81.591C146.66 80.1205 147.451 78.9175 148.418 78.9175H155.95C156.917 78.9175 157.708 80.1205 157.708 81.591V87.2916C157.708 88.7621 156.917 89.9652 155.95 89.9652Z" fill="#B9B3F9"/>
<path fill-rule="evenodd" clip-rule="evenodd" d="M140.638 29.3014C141.411 27.9861 143.313 27.9861 144.086 29.3014L159.769 55.9793C160.553 57.3126 159.591 58.9929 158.045 58.9929H126.679C125.132 58.9929 124.171 57.3126 124.955 55.9793L140.638 29.3014ZM144.545 52.5493C144.545 52.8518 144.489 53.1354 144.377 53.4002C144.265 53.6649 144.108 53.8918 143.907 54.0809C143.705 54.27 143.47 54.4213 143.201 54.5347C142.933 54.6482 142.649 54.7049 142.35 54.7049C142.052 54.7049 141.772 54.652 141.511 54.5461C141.25 54.4402 141.022 54.2889 140.828 54.0923C140.634 53.8956 140.477 53.6687 140.358 53.4115C140.238 53.1544 140.179 52.8745 140.179 52.5719C140.179 52.2845 140.234 52.0085 140.346 51.7437C140.458 51.479 140.611 51.2483 140.805 51.0516C141 50.855 141.231 50.6999 141.5 50.5865C141.768 50.473 142.052 50.4163 142.35 50.4163C142.649 50.4163 142.933 50.473 143.201 50.5865C143.47 50.6999 143.705 50.8512 143.907 51.0403C144.108 51.2294 144.265 51.4563 144.377 51.721C144.489 51.9858 144.545 52.2618 144.545 52.5493ZM140.179 37.5502L141.27 48.2717H143.453L144.545 37.5502H140.179Z" fill="#D04954"/>
</g>
<defs>
<clipPath id="clip0">
<rect width="320" height="120" fill="white"/>
</clipPath>
</defs>
</svg>
