<svg width="320" height="140" viewBox="0 0 320 140" fill="none" xmlns="http://www.w3.org/2000/svg">
<path d="M273.811 136.361C269.114 138.741 97.4405 138.496 76.1967 138.496C67.3987 138.496 59.4727 140.293 53.3167 135.659C46.8973 130.825 41.8724 123.836 37.1366 118.129C27.3544 106.34 19.4543 93.4313 18.3017 79.6089C17.8613 74.3094 18.5261 68.7277 22.4719 64.2194C26.4176 59.7111 34.3695 56.6504 41.5141 58.2084C48.309 59.6897 54.5082 64.9432 61.0009 62.8884C65.3697 61.5053 66.5784 57.595 67.3814 54.246C70.386 41.6933 75.9117 28.8003 88.6814 19.8665C101.455 10.9358 123.174 7.45492 137.584 15.027C145.532 19.2041 150.03 25.8837 153.371 32.4958C156.713 39.108 159.277 46.0268 164.639 51.9275C170 57.8281 178.993 62.6768 188.865 62.3364C197.534 62.0358 204.942 57.9109 211.154 53.605C217.366 49.2961 223.319 44.4781 231.34 42.1227C239.361 39.7643 250.279 40.8929 254.259 46.3734C257.721 51.1423 254.725 56.8651 252.157 61.9101C249.169 67.7831 246.786 74.0395 248.064 80.2162C249.342 86.3928 255.097 92.4621 263.614 93.9986C271.402 95.4033 279.824 92.8915 287.582 94.3759C299.1 96.5809 304.094 107.091 300.524 115.175C296.954 123.26 287.418 129.222 277.826 134.257C277.826 134.257 277.825 134.257 277.821 134.257C276.289 135.067 274.989 135.763 273.811 136.361Z" fill="#EFEEFB"/>
<path d="M207.791 10.1902C209.351 11.1962 210.48 12.7857 211.384 14.4047C215.195 21.2264 215.758 29.1582 214.328 36.1775C212.902 43.1992 209.641 49.4645 206.176 55.4781C204.75 57.9584 200.243 67.772 197.298 62.9588C195.334 59.746 196.579 50.5107 196.586 47.0564C196.595 40.2312 197.586 33.539 199.507 27.2514C199.967 25.7359 206.562 9.39742 207.791 10.1902Z" fill="#E6E5F4"/>
<path d="M203.541 72.3421C214.139 67.4932 226.329 65.5566 238.656 66.7653C237.073 70.4102 233.663 72.7624 230.091 74.4472C221.63 78.4323 214.583 80.4996 205.188 82.0157C202.514 82.4467 192.303 82.3038 192.21 81.1672C191.917 77.5761 200.855 73.5681 203.541 72.3421Z" fill="#C6C2F9"/>
<path d="M170.248 109.685L169.611 109.056C174.057 104.439 178.25 99.2588 182.071 93.6636C185.683 88.3746 189.067 82.5619 192.127 76.3882C195 70.5958 197.672 64.3157 200.07 57.725C202.353 51.447 204.399 44.9016 206.156 38.2683C207.552 32.9902 209.176 25.989 209.345 18.6129C209.363 17.7977 209.364 16.9765 209.346 16.1717L210.182 16.2705C210.198 17.0883 210.201 17.9215 210.181 18.7498C210.013 26.2116 208.373 33.2701 206.966 38.5886C205.204 45.242 203.15 51.8113 200.858 58.1071C198.451 64.7251 195.766 71.0302 192.885 76.8463C189.81 83.0485 186.411 88.8898 182.779 94.2049C178.938 99.8297 174.721 105.037 170.248 109.685Z" fill="#C6C2F9"/>
<path d="M186.616 87.3688C186.612 87.3664 186.604 87.3616 186.601 87.3592C186.398 87.2219 186.324 86.9567 186.433 86.7692C188.628 83.0295 193.132 79.8933 199.828 77.4481C209.396 73.9557 219.288 70.344 230.172 70.3735C230.401 70.3751 230.612 70.5649 230.642 70.7975C230.672 71.0302 230.511 71.2186 230.282 71.217C219.537 71.1849 209.708 74.7744 200.203 78.2445C193.665 80.6324 189.28 83.6681 187.17 87.2665C187.061 87.4541 186.815 87.4941 186.616 87.3688Z" fill="#EFEEFB"/>
<path fill-rule="evenodd" clip-rule="evenodd" d="M192.915 75.3668C192.942 75.4028 192.972 75.4316 193.007 75.4533C193.11 75.5183 193.234 75.5252 193.327 75.4555C198.165 71.9974 203.524 67.7788 207.37 62.3281C207.377 62.3233 207.386 62.3192 207.394 62.3151C207.403 62.311 207.411 62.3069 207.419 62.3022C209.939 60.7055 212.212 59.0059 214.516 57.2588C219.252 53.6653 222.413 50.1254 224.463 46.1189C225.855 43.394 227.296 39.3226 226.957 34.5344C227.052 34.3753 226.984 33.8862 226.626 32.0743L226.54 31.6303L226.175 31.828C220.339 34.9717 217.007 40.8694 214.755 45.6612C214.021 47.251 213.309 48.903 212.621 50.5027C211.224 53.7472 209.783 57.0963 208.066 60.1348C204.242 66.4118 198.277 71.1506 192.947 74.9594C192.823 75.0479 192.809 75.229 192.915 75.3668ZM215.291 45.9736C217.446 41.3921 220.599 35.7852 226.004 32.6457C226.058 33.217 226.257 33.9312 226.35 34.237C226.752 39.0125 225.315 43.0863 223.93 45.7969C221.92 49.7381 218.803 53.2247 214.122 56.7721C212.198 58.2357 210.289 59.6614 208.247 61.0217C208.354 60.8552 208.46 60.6832 208.564 60.5141L208.581 60.4864C210.312 57.4194 211.762 54.056 213.164 50.8008C213.851 49.2047 214.56 47.5563 215.291 45.9736Z" fill="#E6E5F4"/>
<path d="M259.134 97.3175C258.104 95.8308 256.428 94.8479 254.709 94.0898C247.473 90.9159 238.911 91.1605 231.26 93.3416C223.608 95.5228 216.702 99.4987 210.065 103.656C207.326 105.367 196.537 110.981 201.635 113.485C205.035 115.158 215.078 112.928 218.82 112.566C226.209 111.847 233.488 110.145 240.367 107.534C242.012 106.903 259.944 98.4864 259.134 97.3175Z" fill="#C6C2F9"/>
<path d="M252.646 95.5029C251.763 95.5714 250.859 95.6545 249.961 95.7621C241.878 96.706 234.179 99.1072 228.366 101.098C221.098 103.582 213.914 106.36 207.013 109.348C199.761 112.487 192.834 115.877 186.433 119.422C185.666 119.848 184.909 120.273 184.152 120.708C184.678 120.738 185.203 120.772 185.729 120.806C186.118 120.586 186.502 120.366 186.896 120.151C193.27 116.625 200.171 113.245 207.392 110.12C214.271 107.142 221.434 104.374 228.676 101.895C234.441 99.9239 242.077 97.5374 250.071 96.6033C250.954 96.5006 251.842 96.4126 252.714 96.349L252.646 95.5029Z" fill="#EFEEFB"/>
<path fill-rule="evenodd" clip-rule="evenodd" d="M208.903 96.2123C200.279 102.614 193.473 111.035 187.876 118.586C187.771 118.733 187.771 118.914 187.871 119.046C187.903 119.09 187.945 119.134 187.997 119.168C188.202 119.3 188.486 119.251 188.628 119.06C194.792 110.742 202.434 101.357 212.33 94.8674C217.112 91.9185 222.362 89.3216 227.444 86.8128C229.951 85.5755 232.542 84.2942 235.033 82.9934C242.554 79.0077 251.84 73.2858 257.006 64.3314L257.337 63.7739L256.654 63.7103C253.879 63.4609 253.122 63.4316 252.875 63.5978C245.497 63.813 239.127 66.5174 234.849 68.9431C228.548 72.5131 222.914 77.6383 217.112 85.062C214.295 88.6712 211.547 92.2363 208.945 96.134C208.93 96.1585 208.914 96.1878 208.903 96.2123ZM235.314 69.6616C239.577 67.2457 245.946 64.5511 253.299 64.4337C253.771 64.5266 254.859 64.7125 255.742 64.7027C250.602 73.0311 241.768 78.4498 234.579 82.2643C232.181 83.5171 229.685 84.7517 227.261 85.9503L227.011 86.074L227.01 86.0743C221.907 88.5977 216.637 91.2042 211.807 94.1775C211.523 94.3633 211.239 94.5491 210.961 94.7399C213.173 91.566 215.481 88.5779 217.84 85.5605C223.569 78.2248 229.124 73.173 235.314 69.6616Z" fill="#E6E5F4"/>
<path d="M209.539 95.2781L210.101 95.9432C211.51 94.9064 213.312 93.4246 215.22 91.8499C217.48 89.9915 219.813 88.0647 221.527 86.8763C227.118 82.9786 232.878 79.1543 238.654 75.5011C244.43 71.8528 250.374 68.2779 256.328 64.8742L255.855 64.1553C249.89 67.5639 243.93 71.1437 238.144 74.8018C232.358 78.4598 226.582 82.294 220.98 86.1965C219.241 87.4094 216.891 89.346 214.616 91.2141C212.724 92.784 210.926 94.2609 209.539 95.2781Z" fill="#E6E5F4"/>
<path d="M201.2 106.626C201.484 103.281 202.162 99.5124 204.729 98.322C205.106 98.1455 205.548 98.0427 205.952 98.2674C206.675 98.6633 206.838 99.7894 207.325 100.549C208.351 102.158 210.51 101.595 211.322 100.105C212.134 98.6154 212.124 96.6303 212.53 94.8827C212.885 93.3567 213.566 91.9894 214.504 90.9264C215.731 89.5402 218.076 88.9006 219.255 90.7172C220.107 92.0372 219.751 93.7397 219.559 95.2441C219.368 96.7486 219.681 98.8063 220.979 99.3324C222.095 99.784 223.024 98.7134 223.749 97.7979C225.514 95.5527 227.642 93.7136 230.018 92.3731C231.674 91.4387 233.534 90.7404 235.482 91.1347C237.426 91.5239 239.441 93.2732 239.892 95.5614C240.308 97.6955 239.308 99.6484 238.058 100.989C234.651 104.645 229.543 105.336 225.159 107.326C224.124 107.796 222.958 108.847 223.448 110.172C223.793 111.103 224.736 111.467 225.532 111.851C227.466 112.78 229.191 114.55 230.257 116.714C230.438 117.086 230.608 117.486 230.61 117.889C230.621 118.807 229.803 119.289 229.053 119.43C225.58 120.077 221.656 117.066 218.299 118.112C217.851 118.252 217.386 118.512 217.251 119.035C217.155 119.413 217.257 119.855 217.406 120.247C218.022 121.878 219.372 122.992 220.442 124.303C221.512 125.615 222.358 127.633 221.616 128.965C221.057 129.965 219.839 130.11 218.753 130.005C215.408 129.666 212.109 127.726 209.272 125.192C206.73 122.917 203.465 119.734 201.74 116.527C200.119 113.496 200.937 109.701 201.2 106.626Z" fill="#E6E5F4"/>
<path d="M234.423 97.2864L198.434 119.941" stroke="#EFEEFB" stroke-linecap="round"/>
<path d="M217.234 91.6914C216.268 97.7607 215.172 103.784 213.947 109.753" stroke="#EFEEFB" stroke-linecap="round"/>
<path d="M205.348 100.545C205.014 105.724 204.572 110.876 204.029 115.997" stroke="#EFEEFB" stroke-linecap="round"/>
<path d="M212.397 111.734C217.231 113.349 222.054 115.052 226.861 116.846" stroke="#EFEEFB" stroke-linecap="round"/>
<path d="M82.5551 27.0862C81.0797 28.0044 80.0333 29.4689 79.208 30.9627C75.7304 37.2378 75.414 44.5536 76.9958 51.0412C78.5762 57.5247 81.9106 63.3214 85.4307 68.89C86.8816 71.1856 91.5167 80.2604 94.2218 75.833C96.0243 72.8786 94.5522 64.352 94.4485 61.1611C94.2422 54.8584 93.0916 48.6821 91.0517 42.8729C90.5631 41.4695 83.7224 26.3607 82.5551 27.0862Z" fill="#C6C2F9"/>
<path d="M88.4664 84.4585C78.0928 79.9375 66.2677 78.0958 54.3984 79.1523C56.0321 82.5231 59.3951 84.711 62.8933 86.2785C71.1805 89.9927 78.0408 91.9357 87.1581 93.3718C89.7512 93.7808 99.6046 93.6975 99.6623 92.6488C99.8417 89.3408 91.0995 85.6058 88.4664 84.4585Z" fill="#C6C2F9"/>
<path d="M121.702 119.068L122.301 118.493C117.872 114.212 113.672 109.415 109.823 104.23C106.179 99.3333 102.748 93.9545 99.6085 88.2443C96.6672 82.8864 93.903 77.0788 91.396 70.9865C89.0108 65.1831 86.8408 59.1351 84.9516 53.0083C83.45 48.1331 81.6783 41.6646 81.2978 34.8549C81.2581 34.1025 81.2316 33.3447 81.2255 32.6024L80.423 32.6866C80.4289 33.4432 80.4536 34.2109 80.4975 34.9758C80.8779 41.8605 82.6631 48.3845 84.1771 53.297C86.0732 59.4444 88.2456 65.5149 90.6423 71.3372C93.1575 77.4543 95.9344 83.2849 98.8884 88.6659C102.038 94.405 105.492 99.8075 109.149 104.731C113.021 109.936 117.244 114.761 121.702 119.068Z" fill="#E6E5F4"/>
<path d="M105.249 98.4046C105.254 98.4029 105.258 98.4011 105.261 98.3952C105.45 98.2686 105.52 98.0254 105.408 97.8545C103.18 94.3918 98.7392 91.4791 92.2065 89.1906C82.8653 85.9229 73.2106 82.5453 62.704 82.5271C62.4822 82.5261 62.2845 82.7029 62.2639 82.9125C62.2402 83.128 62.3995 83.3037 62.6199 83.3005C72.9913 83.3209 82.5877 86.6747 91.8663 89.9206C98.2488 92.1515 102.568 94.9718 104.712 98.3039C104.822 98.4806 105.056 98.5189 105.249 98.4046Z" fill="#EFEEFB"/>
<path fill-rule="evenodd" clip-rule="evenodd" d="M78.2886 70.0748C83.8129 77.2744 91.3724 82.8653 98.1822 87.4468C98.3126 87.5356 98.4861 87.5276 98.6142 87.444C98.6603 87.4163 98.7037 87.3804 98.7385 87.3338C98.8746 87.1533 98.8503 86.9147 98.675 86.7968C91.1714 81.7505 82.7583 75.4726 77.2279 67.184C74.7412 63.1728 72.61 58.7488 70.5535 54.4732C69.5423 52.3638 68.4915 50.181 67.4139 48.0839C64.1112 41.7639 59.2753 33.9727 51.1066 29.7992L50.5952 29.5338L50.4945 30.1218C50.0808 32.5016 50.0053 33.1499 50.1448 33.3568C49.878 39.6599 52.0331 45.03 54.0644 48.6271C57.0527 53.9147 61.5554 58.5968 68.2336 63.357C71.4765 65.6675 74.6809 67.9231 78.2173 70.0422C78.242 70.0558 78.2652 70.0653 78.2885 70.0748L78.2886 70.0748ZM54.7861 48.2011C52.7662 44.623 50.6155 39.2512 50.9731 32.9636C51.089 32.5569 51.3353 31.6207 51.3794 30.8631C58.9561 35.0278 63.5328 42.4348 66.6945 48.4828C67.6993 50.4357 68.6769 52.4649 69.6298 54.4431C69.6962 54.5809 69.7624 54.7184 69.8286 54.8556L69.8375 54.8741C71.9026 59.1629 74.0354 63.5923 76.547 67.6379C76.7065 67.8744 76.866 68.1109 77.0299 68.3457C74.1581 66.5436 71.4719 64.6492 68.7572 62.7146C62.1644 58.0142 57.7249 53.4007 54.7861 48.2011Z" fill="#C6C2F9"/>
<path d="M77.4515 69.5567L78.1158 69.0588C77.2257 67.885 75.9283 66.381 74.5563 64.7894C72.9364 62.9075 71.2606 60.9634 70.2393 59.5325C66.897 54.8584 63.6344 50.0309 60.5395 45.193C57.4446 40.3552 54.4338 35.3621 51.5877 30.3647L50.8735 30.7886C53.7237 35.7985 56.7462 40.7963 59.8452 45.6466C62.9443 50.4968 66.2141 55.3309 69.5649 60.0156C70.6048 61.472 72.2906 63.4308 73.9235 65.3216C75.2824 66.9043 76.5713 68.3977 77.4515 69.5567Z" fill="#C6C2F9"/>
<path d="M144.833 67.1861C149.497 61.3492 156.429 57.7584 163.543 54.9277C168.386 68.0914 165.181 82.5821 155.683 90.4836C154.025 91.8598 152.151 93.0686 149.933 93.5023C143.856 94.6835 140.637 90.2119 140.047 84.9103C139.289 78.1614 140.939 72.0641 144.833 67.1861Z" fill="#E6E5F4"/>
<path d="M161.651 59.7764L140.683 99.3744" stroke="#EFEEFB" stroke-linecap="round"/>
<path d="M154.395 60.1533C154.509 63.6101 154.663 67.0723 154.859 70.5399" stroke="#EFEEFB" stroke-linecap="round"/>
<path d="M152.134 78.3455C155.972 77.4422 159.701 76.227 163.274 74.7097" stroke="#EFEEFB" stroke-linecap="round"/>
<path d="M112.395 44.3943C113.925 44.5716 115.397 45.5261 116.73 46.6203C122.331 51.2365 126.127 58.5513 128.13 65.9991C130.134 73.4469 130.522 81.0989 130.658 88.6094C130.716 91.7061 131.745 103.385 127.61 100.257C124.85 98.1722 121.772 88.6903 120.294 85.3749C117.377 78.826 115.207 71.9143 113.866 64.9168C113.55 63.2407 111.193 44.2553 112.395 44.3943Z" fill="#C6C2F9"/>
<path d="M116.686 49.0088C117.047 49.7832 117.407 50.5821 117.748 51.388C120.827 58.6247 122.697 66.2143 123.983 72.0264C125.594 79.292 126.959 86.6229 128.043 93.8126C129.184 101.369 129.997 108.766 130.455 115.795C130.51 116.637 130.559 117.471 130.602 118.309C130.338 117.881 130.07 117.455 129.802 117.028C129.778 116.599 129.756 116.175 129.725 115.743C129.265 108.746 128.457 101.375 127.321 93.8525C126.24 86.685 124.878 79.3763 123.275 72.1351C121.997 66.3718 120.146 58.8421 117.101 51.685C116.765 50.8947 116.415 50.1068 116.056 49.3435L116.686 49.0088Z" fill="#E6E5F4"/>
<path fill-rule="evenodd" clip-rule="evenodd" d="M136.459 86.1315C135.927 96.3536 133.123 105.982 130.375 114.191C130.32 114.347 130.191 114.431 130.052 114.408C130.006 114.402 129.955 114.387 129.907 114.359C129.718 114.248 129.621 113.986 129.691 113.779C132.719 104.737 135.817 93.9585 135.822 82.6258C135.692 77.2358 135.095 71.6156 134.515 66.1777C134.228 63.4954 133.934 60.722 133.699 58.0235C133.033 49.8497 132.777 39.3857 136.719 30.8891L136.96 30.3521L137.321 30.8974C138.784 33.1159 139.156 33.7389 139.153 34.0238C142.421 40.3303 143.46 46.942 143.727 51.665C144.122 58.6205 143.107 65.7354 140.543 74.0574C139.295 78.1 138.047 82.0648 136.495 86.0599C136.485 86.0845 136.471 86.1114 136.459 86.1315ZM143 51.6048C142.733 46.8996 141.687 40.2924 138.362 34.0533C138.077 33.6985 137.441 32.8696 137.039 32.1223C133.528 40.3067 133.789 50.2499 134.423 58.0659C134.648 60.6639 134.932 63.336 135.207 65.9303L135.236 66.1979L135.236 66.1986C135.816 71.6608 136.415 77.3029 136.55 82.7437C136.55 83.0686 136.55 83.3935 136.544 83.7162C137.764 80.3837 138.809 77.0578 139.85 73.6741C142.385 65.4549 143.385 58.4402 143 51.6048Z" fill="#C6C2F9"/>
<path d="M136.829 85.1683L136.098 85.0035C136.179 83.3382 136.392 81.1349 136.621 78.8002C136.889 76.0377 137.171 73.1817 137.217 71.1896C137.383 64.679 137.419 58.061 137.327 51.5091C137.231 44.9594 137.005 38.3023 136.653 31.7156L137.381 31.7802C137.734 38.378 137.964 45.0507 138.058 51.6137C138.152 58.1768 138.116 64.8126 137.952 71.3343C137.9 73.3598 137.618 76.2336 137.351 79.0138C137.118 81.3331 136.906 83.5296 136.829 85.1683Z" fill="#C6C2F9"/>
<path d="M118.163 111.439C112.189 102.776 109.697 91.3811 108.213 79.9355C126.156 76.5349 143.423 85.5386 150.582 102.021C151.828 104.896 152.8 108.046 152.7 111.484C152.414 120.901 145.861 124.407 139.031 123.744C130.338 122.906 123.156 118.672 118.163 111.439Z" fill="#C6C2F9"/>
<path d="M113.749 84.1692L155.077 124.742" stroke="#EFEEFB" stroke-linecap="round"/>
<path d="M112.113 95.1133C116.488 95.9493 120.882 96.7258 125.294 97.443" stroke="#EFEEFB" stroke-linecap="round"/>
<path d="M134.303 103.782C134.286 97.7896 133.845 91.8674 132.979 86.0914" stroke="#EFEEFB" stroke-linecap="round"/>
<path d="M131.787 129.634C129.527 131.34 126.772 133 124.547 131.767C124.221 131.587 123.902 131.318 123.806 130.886C123.642 130.12 124.25 129.353 124.452 128.547C124.87 126.86 123.279 125.571 121.879 125.823C120.48 126.076 119.236 127.22 117.904 127.922C116.743 128.534 115.492 128.809 114.29 128.719C112.717 128.602 110.969 127.215 111.431 125.296C111.768 123.899 113.046 123.19 114.098 122.471C115.15 121.751 116.261 120.333 115.847 119.06C115.489 117.967 114.284 117.889 113.292 117.874C110.868 117.842 108.491 117.314 106.29 116.311C104.755 115.609 103.248 114.625 102.375 112.948C101.501 111.271 101.442 108.766 102.619 107.117C103.72 105.58 105.519 105.206 107.082 105.369C111.334 105.812 114.697 109.221 118.464 111.352C119.354 111.855 120.683 112.118 121.23 110.998C121.617 110.208 121.303 109.289 121.086 108.48C120.553 106.503 120.678 104.199 121.425 102.164C121.553 101.815 121.705 101.46 121.957 101.224C122.527 100.692 123.301 101.021 123.817 101.505C126.217 103.723 126.583 108.38 129.166 110.285C129.51 110.544 129.944 110.737 130.346 110.539C130.642 110.392 130.858 110.063 131.02 109.727C131.687 108.332 131.61 106.685 131.826 105.133C132.035 103.586 132.813 101.792 134.074 101.584C135.023 101.425 135.811 102.252 136.37 103.125C138.081 105.814 138.756 109.393 138.791 112.961C138.825 116.164 138.7 120.427 137.677 123.561C136.72 126.492 133.867 128.063 131.787 129.634Z" fill="#E6E5F4"/>
<path d="M107.601 111.026L137.448 122.87" stroke="#EFEEFB" stroke-linecap="round"/>
<path d="M115.074 125.577C116.87 124.423 118.663 123.261 120.459 122.107" stroke="#EFEEFB" stroke-linecap="round"/>
<path d="M122.77 120.376C123.729 119.835 124.683 119.291 125.642 118.749" stroke="#EFEEFB" stroke-linecap="round"/>
<path d="M126.172 129.021C129.205 126.828 132.26 124.686 135.342 122.598" stroke="#EFEEFB" stroke-linecap="round"/>
<path d="M130.636 119.88C128.644 115.921 126.696 111.93 124.787 107.904" stroke="#EFEEFB" stroke-linecap="round"/>
<path fill-rule="evenodd" clip-rule="evenodd" d="M131.383 65.9752C131.335 65.8088 131.309 65.6321 131.309 65.4489V56.4292C131.309 52.4781 134.345 49.2651 138.08 49.2651H178.705C182.439 49.2651 185.476 52.4781 185.476 56.4292V65.4489C185.476 65.6321 185.45 65.8088 185.402 65.9752C185.45 66.1467 185.476 66.3288 185.476 66.5176V121.684V121.886V130.639C185.476 134.619 182.439 137.855 178.705 137.855H138.08C134.345 137.855 131.309 134.619 131.309 130.639V121.886V121.684V66.5176C131.309 66.3288 131.335 66.1467 131.383 65.9752Z" fill="#8279F8"/>
<path fill-rule="evenodd" clip-rule="evenodd" d="M133.664 119.88H183.121V67.2393H133.664V119.88Z" fill="#C6C2F9"/>
<path fill-rule="evenodd" clip-rule="evenodd" d="M133.664 122.448V130.981C133.664 133.355 135.249 135.287 137.197 135.287H179.589C181.536 135.287 183.121 133.355 183.121 130.981V122.448H133.664Z" fill="#C6C2F9"/>
<path fill-rule="evenodd" clip-rule="evenodd" d="M133.664 64.6721H183.121V56.0871C183.121 53.7419 181.536 51.833 179.589 51.833H137.197C135.249 51.833 133.664 53.7419 133.664 56.0871V64.6721Z" fill="#C6C2F9"/>
<path d="M165.459 128.867C165.459 130.285 164.309 131.435 162.891 131.435H153.896C152.478 131.435 151.328 130.285 151.328 128.867C151.328 127.449 152.478 126.299 153.896 126.299H162.891C164.309 126.299 165.459 127.449 165.459 128.867Z" fill="#9D95F8"/>
<path fill-rule="evenodd" clip-rule="evenodd" d="M159.466 59.5361C160.175 59.5361 160.75 58.9613 160.75 58.2522C160.75 57.5431 160.175 56.9683 159.466 56.9683H151.436C150.727 56.9683 150.152 57.5431 150.152 58.2522C150.152 58.9613 150.727 59.5361 151.436 59.5361H159.466ZM166.528 59.5363C167.237 59.5363 167.812 58.9615 167.812 58.2524C167.812 57.5433 167.237 56.9685 166.528 56.9685H164.385C163.676 56.9685 163.102 57.5433 163.102 58.2524C163.102 58.9615 163.676 59.5363 164.385 59.5363H166.528Z" fill="#9D95F8"/>
<path opacity="0.5" d="M79.5742 68.0298C79.5742 65.8207 81.3651 64.0298 83.5742 64.0298H145.992C148.201 64.0298 149.992 65.8206 149.992 68.0298V103.34C149.992 105.55 148.201 107.34 145.992 107.34H83.5742C81.3651 107.34 79.5742 105.55 79.5742 103.34V68.0298Z" fill="#EFEEFB"/>
<path d="M80.4766 67.0454C80.4766 64.8363 82.2674 63.0454 84.4766 63.0454H146.894C149.103 63.0454 150.894 64.8363 150.894 67.0454V102.356C150.894 104.565 149.103 106.356 146.894 106.356H84.4766C82.2674 106.356 80.4766 104.565 80.4766 102.356V67.0454Z" fill="white"/>
<path fill-rule="evenodd" clip-rule="evenodd" d="M122.66 81.117C122.865 81.007 123.02 80.8173 123.173 80.6146C123.36 80.3679 123.543 80.1334 123.77 79.9328C124.042 79.6928 124.406 79.4631 124.864 79.3904C124.774 79.9515 124.726 80.5283 124.726 81.117H122.66ZM124.2 74.9309L124.201 74.9312L124.201 74.9308C124.429 74.9458 124.652 74.8647 124.878 74.7718C125.155 74.6586 125.423 74.5542 125.712 74.5025C126.061 74.4406 126.486 74.4378 126.918 74.6237C126.233 75.5057 125.684 76.5143 125.307 77.6125C124.944 77.3034 124.736 76.9084 124.612 76.554C124.508 76.2582 124.459 75.9566 124.411 75.6423C124.373 75.3842 124.327 75.1366 124.2 74.9309ZM128.409 70.4023L128.409 70.4025V70.4022C128.6 70.5382 128.831 70.5876 129.07 70.6291C129.363 70.68 129.643 70.7335 129.918 70.8447C130.249 70.9787 130.617 71.2044 130.905 71.5979C129.884 72.0019 128.945 72.5912 128.124 73.3271C127.951 72.8618 127.954 72.4047 128.011 72.029C128.059 71.7173 128.156 71.4293 128.261 71.1317C128.348 70.8875 128.423 70.6484 128.409 70.4023ZM134.159 68.7446V68.745L134.159 68.7446C134.261 68.9653 134.438 69.1319 134.626 69.2967C134.855 69.498 135.073 69.6952 135.26 69.9393C135.484 70.2338 135.699 70.6283 135.765 71.1249C135.243 71.0287 134.707 70.9778 134.159 70.9778C133.611 70.9778 133.075 71.0287 132.552 71.1251C132.619 70.6283 132.833 70.2338 133.058 69.9393C133.244 69.6952 133.462 69.498 133.692 69.2967C133.88 69.1319 134.057 68.9653 134.159 68.7446ZM139.908 70.4022V70.4025L139.908 70.4023C139.894 70.6483 139.97 70.8875 140.056 71.1317C140.161 71.4293 140.258 71.7173 140.306 72.029C140.364 72.4046 140.366 72.8617 140.193 73.327C139.372 72.5911 138.434 72.002 137.412 71.5978C137.7 71.2044 138.069 70.9787 138.4 70.8447C138.675 70.7334 138.955 70.6799 139.247 70.629C139.487 70.5876 139.717 70.5382 139.908 70.4022ZM144.117 74.9307L144.117 74.9309H144.117C143.991 75.1365 143.945 75.3842 143.906 75.6423C143.859 75.9565 143.809 76.2582 143.706 76.5539C143.582 76.9084 143.373 77.3033 143.011 77.6124C142.634 76.5142 142.085 75.5056 141.4 74.6236C141.832 74.4378 142.256 74.4405 142.605 74.5024C142.895 74.5541 143.163 74.6585 143.439 74.7716C143.666 74.8647 143.888 74.9458 144.117 74.9307ZM143.454 79.3903C143.911 79.4631 144.275 79.6927 144.547 79.9328C144.774 80.1333 144.957 80.3678 145.145 80.6146C145.298 80.8172 145.452 81.007 145.658 81.117H143.592C143.592 80.5283 143.544 79.9515 143.454 79.3903ZM136.9 72.2252C140.372 73.4591 142.881 76.9721 142.896 81.1173H141.178C141.292 77.4964 139.823 74.2282 136.9 72.2252Z" fill="#FFBD00"/>
<path fill-rule="evenodd" clip-rule="evenodd" d="M137.251 81.1159H138.144C138.187 80.0721 138.104 78.8355 137.79 77.7556C137.728 77.5426 137.657 77.3356 137.577 77.1382C137.387 76.6716 137.131 76.2492 136.826 75.8588C136.487 75.4252 136.084 75.0352 135.628 74.7281C135.494 74.6373 135.355 74.5537 135.211 74.4782V74.4779C135.068 74.4028 134.921 74.3358 134.769 74.2777L134.768 74.2775C133.03 73.6133 131.271 74.0856 129.796 74.949C129.508 75.1173 129.232 75.3003 128.968 75.4926C128.705 75.6849 128.454 75.8867 128.218 76.0926H128.218L128.218 76.093C127.938 76.3374 127.587 76.6717 127.24 77.067C127.172 77.1448 127.105 77.224 127.039 77.3042C126.864 77.5182 126.593 77.8182 126.673 78.1285C126.737 78.3746 127.032 78.302 127.135 78.2172C127.293 78.1262 127.466 77.9818 127.614 77.8468C127.815 77.6639 128.004 77.4671 128.203 77.2817C129.007 76.5318 129.845 75.9536 130.671 75.5621C130.851 75.4769 131.031 75.4001 131.21 75.3323C131.389 75.2646 131.567 75.2061 131.744 75.1568L131.744 75.1566C133.28 74.7273 134.949 75.0055 136.018 76.3531C137.047 77.6513 137.235 79.3891 137.251 81.1159ZM126.173 79.6485C126.269 79.5521 126.367 79.4265 126.469 79.2872C126.611 79.0927 126.625 78.9044 126.569 78.7684C126.548 78.7176 126.517 78.674 126.48 78.6401C126.442 78.6066 126.398 78.5826 126.351 78.5709C126.234 78.5424 126.096 78.587 125.978 78.7415C125.844 78.9162 125.66 79.2146 125.622 79.4787C125.615 79.5282 125.614 79.5763 125.618 79.6214C125.623 79.6654 125.634 79.7071 125.652 79.7452L125.652 79.7457L125.652 79.7456C125.682 79.8076 125.733 79.8403 125.801 79.843C125.815 79.8435 125.83 79.8429 125.846 79.8409C125.862 79.8391 125.879 79.8358 125.897 79.8311V79.8312L125.898 79.831C125.989 79.8076 126.08 79.7418 126.173 79.6485ZM135.435 81.1159H136.32C136.362 79.9909 136.194 78.829 135.708 77.8237C135.265 76.9091 134.534 76.2874 133.588 76.1371C132.207 75.9179 130.813 76.547 129.635 77.4473C128.352 78.4274 127.293 79.7584 126.367 81.1159L127.537 81.1142C128.59 79.5082 131.012 77.0701 132.794 77.0541C133.362 77.049 133.939 77.1925 134.366 77.6023C134.675 77.8991 135.05 78.4757 135.032 78.9437C135.021 79.2212 134.792 79.3062 134.573 79.2204C134.402 79.1535 134.282 78.9858 134.162 78.8096C133.775 78.2369 133.17 77.9566 132.507 78.0542C131.716 78.1707 130.735 78.8316 130.102 79.4326C129.557 79.9511 129.056 80.5186 128.584 81.1159H129.841C130.302 80.5173 130.789 80.0067 131.415 79.5873C131.613 79.4546 131.857 79.3142 132.113 79.2195C132.76 78.9803 133.403 79.0409 133.689 79.9071C133.801 80.2476 133.817 80.5462 133.785 81.0937L133.784 81.1159H134.64L134.642 81.0878C134.643 80.7881 134.636 80.5862 134.662 80.2891C134.683 80.033 134.757 79.7677 134.978 79.7362C135.448 79.6303 135.425 80.7546 135.435 81.1159ZM129.407 84.0234H128.712L128.54 84.675H127.986L128.719 82.1801H129.42L130.174 84.675H129.596L129.407 84.0234ZM128.791 83.6014H129.324C129.184 83.1141 129.094 82.7797 129.052 82.5984H129.045L128.935 83.0722L128.791 83.6014ZM126.854 84.0234H126.159L125.987 84.675H125.434L126.166 82.1801H126.868L127.622 84.675H127.044L126.854 84.0234ZM126.239 83.6014H126.772C126.632 83.1141 126.541 82.7797 126.5 82.5984H126.493L126.383 83.0722L126.239 83.6014ZM130.703 84.6638V82.2133C130.933 82.1764 131.178 82.158 131.44 82.158C131.934 82.158 132.289 82.2688 132.504 82.4917C132.719 82.7144 132.826 83.0055 132.826 83.3645C132.826 83.789 132.704 84.1179 132.459 84.3511C132.214 84.5843 131.836 84.7008 131.326 84.7008C131.09 84.7008 130.882 84.6885 130.703 84.6638ZM131.237 82.6206V84.2455C131.266 84.2529 131.331 84.2567 131.429 84.2567C131.694 84.2567 131.899 84.1814 132.044 84.0314C132.19 83.8815 132.262 83.6669 132.262 83.3868C132.262 83.1301 132.196 82.9346 132.063 82.8001C131.931 82.6656 131.74 82.5984 131.491 82.5984C131.387 82.5984 131.302 82.6058 131.237 82.6206ZM133.397 82.1801H133.93V83.1387H134.842V82.1801H135.375V84.675H134.842V83.6348H133.93V84.675H133.397V82.1801ZM137.308 84.0234H136.613L136.441 84.675H135.887L136.62 82.1801H137.322L138.075 84.675H137.497L137.308 84.0234ZM136.692 83.6014H137.225C137.086 83.1141 136.995 82.7797 136.954 82.5984H136.947L136.837 83.0722L136.692 83.6014ZM139.86 84.0234H139.166L138.993 84.675H138.44L139.172 82.1801H139.874L140.628 84.675H140.05L139.86 84.0234ZM139.245 83.6014H139.778C139.638 83.1141 139.547 82.7797 139.506 82.5984H139.499L139.389 83.0722L139.245 83.6014ZM141.157 84.675V82.2133C141.352 82.1764 141.592 82.158 141.876 82.158C142.227 82.158 142.479 82.2202 142.633 82.3448C142.787 82.4694 142.863 82.6477 142.863 82.8797C142.863 83.0178 142.825 83.1425 142.748 83.2541C142.67 83.3658 142.57 83.4448 142.447 83.4904V83.5053C142.592 83.5632 142.696 83.7162 142.76 83.9641C142.878 84.4109 142.943 84.6477 142.953 84.675H142.409C142.363 84.5825 142.308 84.3887 142.244 84.0938C142.212 83.9458 142.168 83.8421 142.113 83.7829C142.058 83.7236 141.97 83.694 141.848 83.694H141.683V84.675H141.157ZM141.683 82.5984V83.2832H141.904C142.037 83.2832 142.141 83.2504 142.218 83.1856C142.295 83.1208 142.334 83.0339 142.334 82.9241C142.334 82.8142 142.299 82.7291 142.23 82.6693C142.16 82.6094 142.062 82.5798 141.935 82.5798C141.809 82.5798 141.726 82.5861 141.683 82.5984ZM132.243 81.1182L132.952 81.1159C133.046 80.4709 132.863 79.9743 132.257 80.0927C131.746 80.1926 131.197 80.7388 130.865 81.1159L131.801 81.1115C131.905 81.0377 132.109 80.9536 132.193 81.0163C132.225 81.0397 132.241 81.0729 132.243 81.1182ZM139.484 81.1164L139.491 81.1161H139.494C139.587 81.1217 139.75 81.0753 139.843 80.9056C139.862 80.8717 139.878 80.8329 139.89 80.7889C139.902 80.7441 139.911 80.6932 139.914 80.6362H139.914L139.915 80.6244C139.986 77.9563 139.226 75.7476 137.937 74.2469C137.687 73.9556 137.416 73.6905 137.127 73.4538C136.838 73.2173 136.532 73.0094 136.211 72.8322V72.8323L136.205 72.8295L136.205 72.8293C135.121 72.2334 133.892 72.0045 132.686 72.1146C132.45 72.136 132.216 72.1701 131.985 72.2169C131.754 72.2636 131.524 72.3233 131.298 72.3951L131.294 72.3962C130.053 72.7911 128.899 73.5749 127.958 74.6035C127.775 74.8039 127.6 75.0134 127.434 75.2307C127.352 75.3386 127.271 75.4486 127.194 75.5603C127.854 74.9478 128.561 74.4105 129.302 73.9835C129.469 73.8873 129.636 73.7971 129.805 73.7133C129.973 73.6295 130.144 73.5512 130.316 73.4791L130.317 73.4789L130.317 73.4787C130.971 73.2051 131.616 73.0306 132.261 72.9526C132.906 72.8746 133.552 72.8933 134.207 73.0054C134.674 73.0853 135.129 73.2166 135.539 73.4005C135.619 73.436 135.697 73.4741 135.774 73.514C135.849 73.5534 135.924 73.5956 135.997 73.6398H135.997L135.998 73.6404V73.6405C137.442 74.4913 138.445 76.2372 138.887 78.2084C138.973 78.5928 139.038 78.9855 139.081 79.381C139.123 79.7766 139.144 80.1762 139.141 80.5754V80.5755L139.141 80.5984C139.148 80.812 139.216 80.9905 139.333 81.0709C139.354 81.0858 139.378 81.0975 139.403 81.1051H139.403C139.429 81.1129 139.456 81.1168 139.484 81.1164Z" fill="#D04954"/>
<rect x="86.75" y="93.8188" width="25.088" height="2.27951" rx="1.13975" fill="#EFEEFB"/>
<rect x="86.75" y="88.1196" width="25.088" height="2.27951" rx="1.13975" fill="#EFEEFB"/>
<rect x="86.75" y="82.4214" width="31.3601" height="2.27951" rx="1.13975" fill="#EFEEFB"/>
<path d="M86.9387 75.5829C86.8908 75.5829 86.8459 75.5654 86.8039 75.5303C86.768 75.4953 86.75 75.4514 86.75 75.3988C86.75 75.3462 86.771 75.2936 86.8129 75.241L88.3768 73.2508L86.9118 71.3659C86.8698 71.3191 86.8489 71.2665 86.8489 71.208C86.8489 71.1554 86.8668 71.1116 86.9028 71.0765C86.9387 71.0415 86.9837 71.0239 87.0376 71.0239H87.496C87.5859 71.0239 87.6638 71.0707 87.7297 71.1642L88.9251 72.681L90.1204 71.173C90.1564 71.1262 90.1893 71.0911 90.2193 71.0678C90.2553 71.0385 90.3002 71.0239 90.3541 71.0239H90.7945C90.8484 71.0239 90.8934 71.0415 90.9293 71.0765C90.9653 71.1116 90.9833 71.1554 90.9833 71.208C90.9833 71.2665 90.9623 71.3191 90.9204 71.3659L89.4374 73.2684L91.0012 75.241C91.0432 75.2936 91.0642 75.3462 91.0642 75.3988C91.0642 75.4514 91.0462 75.4953 91.0102 75.5303C90.9743 75.5654 90.9293 75.5829 90.8754 75.5829H90.3991C90.3092 75.5829 90.2313 75.5391 90.1654 75.4514L88.9071 73.847L87.6308 75.4514C87.5949 75.4923 87.5589 75.5245 87.523 75.5479C87.493 75.5712 87.4511 75.5829 87.3971 75.5829H86.9387Z" fill="#B9B3F9"/>
<path d="M93.1665 75.5829C93.1185 75.5829 93.0736 75.5654 93.0317 75.5303C92.9957 75.4953 92.9777 75.4514 92.9777 75.3988C92.9777 75.3462 92.9987 75.2936 93.0407 75.241L94.6045 73.2508L93.1395 71.3659C93.0976 71.3191 93.0766 71.2665 93.0766 71.208C93.0766 71.1554 93.0946 71.1116 93.1305 71.0765C93.1665 71.0415 93.2114 71.0239 93.2654 71.0239H93.7237C93.8136 71.0239 93.8915 71.0707 93.9574 71.1642L95.1528 72.681L96.3482 71.173C96.3841 71.1262 96.4171 71.0911 96.447 71.0678C96.483 71.0385 96.5279 71.0239 96.5819 71.0239H97.0223C97.0762 71.0239 97.1211 71.0415 97.1571 71.0765C97.193 71.1116 97.211 71.1554 97.211 71.208C97.211 71.2665 97.19 71.3191 97.1481 71.3659L95.6651 73.2684L97.229 75.241C97.2709 75.2936 97.2919 75.3462 97.2919 75.3988C97.2919 75.4514 97.2739 75.4953 97.238 75.5303C97.202 75.5654 97.1571 75.5829 97.1032 75.5829H96.6268C96.5369 75.5829 96.459 75.5391 96.3931 75.4514L95.1348 73.847L93.8585 75.4514C93.8226 75.4923 93.7866 75.5245 93.7507 75.5479C93.7207 75.5712 93.6788 75.5829 93.6249 75.5829H93.1665Z" fill="#B9B3F9"/>
<path d="M99.3942 75.5829C99.3463 75.5829 99.3013 75.5654 99.2594 75.5303C99.2235 75.4953 99.2055 75.4514 99.2055 75.3988C99.2055 75.3462 99.2265 75.2936 99.2684 75.241L100.832 73.2508L99.3673 71.3659C99.3253 71.3191 99.3043 71.2665 99.3043 71.208C99.3043 71.1554 99.3223 71.1116 99.3583 71.0765C99.3942 71.0415 99.4392 71.0239 99.4931 71.0239H99.9515C100.041 71.0239 100.119 71.0707 100.185 71.1642L101.381 72.681L102.576 71.173C102.612 71.1262 102.645 71.0911 102.675 71.0678C102.711 71.0385 102.756 71.0239 102.81 71.0239H103.25C103.304 71.0239 103.349 71.0415 103.385 71.0765C103.421 71.1116 103.439 71.1554 103.439 71.208C103.439 71.2665 103.418 71.3191 103.376 71.3659L101.893 73.2684L103.457 75.241C103.499 75.2936 103.52 75.3462 103.52 75.3988C103.52 75.4514 103.502 75.4953 103.466 75.5303C103.43 75.5654 103.385 75.5829 103.331 75.5829H102.855C102.765 75.5829 102.687 75.5391 102.621 75.4514L101.363 73.847L100.086 75.4514C100.05 75.4923 100.014 75.5245 99.9784 75.5479C99.9485 75.5712 99.9065 75.5829 99.8526 75.5829H99.3942Z" fill="#B9B3F9"/>
<path d="M105.622 75.5829C105.574 75.5829 105.529 75.5654 105.487 75.5303C105.451 75.4953 105.433 75.4514 105.433 75.3988C105.433 75.3462 105.454 75.2936 105.496 75.241L107.06 73.2508L105.595 71.3659C105.553 71.3191 105.532 71.2665 105.532 71.208C105.532 71.1554 105.55 71.1116 105.586 71.0765C105.622 71.0415 105.667 71.0239 105.721 71.0239H106.179C106.269 71.0239 106.347 71.0707 106.413 71.1642L107.608 72.681L108.804 71.173C108.84 71.1262 108.873 71.0911 108.903 71.0678C108.938 71.0385 108.983 71.0239 109.037 71.0239H109.478C109.532 71.0239 109.577 71.0415 109.613 71.0765C109.649 71.1116 109.666 71.1554 109.666 71.208C109.666 71.2665 109.646 71.3191 109.604 71.3659L108.121 73.2684L109.684 75.241C109.726 75.2936 109.747 75.3462 109.747 75.3988C109.747 75.4514 109.729 75.4953 109.693 75.5303C109.657 75.5654 109.613 75.5829 109.559 75.5829H109.082C108.992 75.5829 108.915 75.5391 108.849 75.4514L107.59 73.847L106.314 75.4514C106.278 75.4923 106.242 75.5245 106.206 75.5479C106.176 75.5712 106.134 75.5829 106.08 75.5829H105.622Z" fill="#B9B3F9"/>
<path d="M187.426 85.2929C192.585 81.9943 197.323 78.1071 201.288 73.0343C202.323 71.6417 201.186 69.7016 199.662 69.7967C196.035 70.0531 193.525 72.8091 191.073 75.3993C188.944 77.5544 186.974 79.8504 185.02 82.3039C179.716 85.619 173.903 88.1962 168.227 90.6781C166.056 91.6435 167.359 95.3163 169.53 94.3508C173.036 92.8344 176.533 91.2391 179.944 89.4947C176.902 94.3024 174.331 99.4542 172.224 104.871C171.281 107.209 174.577 108.822 175.52 106.484C178.041 100.064 181.251 93.9632 185.163 88.3391C185.867 87.3029 186.643 86.2585 187.426 85.2929Z" fill="#675AF6"/>
<path d="M219.29 82.5168C217.435 82.9683 215.047 83.9586 213.017 84.1116C212.994 83.8753 212.899 83.6473 212.797 83.3406C212.417 82.4286 211.402 81.7486 210.428 82.2583C209.873 82.5608 205.866 84.9311 205.436 84.2636C204.92 83.447 203.646 83.1152 202.912 83.8363C200.905 85.7385 198.893 86.8449 196.468 87.4413C196.639 86.944 196.803 86.3678 197.046 85.8622C197.711 84.4323 196.126 82.3844 194.743 83.18C191.484 84.9866 188.393 87.013 185.405 89.3462C183.504 90.838 185.636 94.0176 187.537 92.5258C189.172 91.3033 190.807 90.0808 192.529 89.0075C192.544 89.165 192.48 89.252 192.495 89.4095C192.472 90.6862 193.164 91.8013 194.471 91.7311C198.026 91.483 201.193 90.2442 203.972 88.0146C205.748 89.0056 207.983 87.9532 210.002 86.9255C210.279 87.5308 210.766 88.0324 211.359 88.1237C214.077 88.2899 217.035 87.1547 219.677 86.5334C221.886 85.9618 221.579 82.0157 219.29 82.5168Z" fill="#675AF6"/>
<path fill-rule="evenodd" clip-rule="evenodd" d="M188.906 108.387C181.339 108.387 175.148 115.137 175.148 123.387C175.148 131.637 181.339 138.387 188.906 138.387C196.472 138.387 202.663 131.637 202.663 123.387C202.663 115.137 196.472 108.387 188.906 108.387Z" fill="white"/>
<path fill-rule="evenodd" clip-rule="evenodd" d="M175.148 123.387C175.148 115.137 181.339 108.387 188.906 108.387C196.472 108.387 202.663 115.137 202.663 123.387C202.663 131.637 196.472 138.387 188.906 138.387C181.339 138.387 175.148 131.637 175.148 123.387ZM183.919 133.325L181.167 130.887L186.725 123.292L181.167 115.512L183.747 113.262L188.906 120.312L194.065 113.262L196.644 115.512L191.086 123.292L196.644 130.887L193.893 133.325L188.906 126.344L183.919 133.325Z" fill="#D04954"/>
</svg>
