<svg width="20" height="21" viewBox="0 0 20 21" fill="none" xmlns="http://www.w3.org/2000/svg">
<path fill-rule="evenodd" clip-rule="evenodd" d="M9.16669 14.9852C9.16669 17.9719 11.5967 20.4019 14.5834 20.4019C17.57 20.4019 20 17.9719 20 14.9852C20 11.9986 17.57 9.56853 14.5834 9.56853C11.5967 9.56853 9.16669 11.9986 9.16669 14.9852ZM10 14.9852C10 12.4577 12.0559 10.4019 14.5834 10.4019C17.1109 10.4019 19.1667 12.4577 19.1667 14.9852C19.1667 17.5127 17.1109 19.5686 14.5834 19.5686C12.0559 19.5686 10 17.5127 10 14.9852Z" fill="#675AF6"/>
<path d="M7.08333 17.9019H2.08333C0.935 17.9019 0 16.9669 0 15.8186V2.48519C0 1.33686 0.935 0.401855 2.08333 0.401855H11.25C12.3983 0.401855 13.3333 1.33686 13.3333 2.48519V7.48519C13.3333 7.71519 13.1467 7.90186 12.9167 7.90186C12.6867 7.90186 12.5 7.71519 12.5 7.48519V2.48519C12.5 1.79603 11.9392 1.23519 11.25 1.23519H2.08333C1.39417 1.23519 0.833333 1.79603 0.833333 2.48519V15.8186C0.833333 16.5077 1.39417 17.0686 2.08333 17.0686H7.08333C7.31333 17.0686 7.5 17.2552 7.5 17.4852C7.5 17.7152 7.31333 17.9019 7.08333 17.9019Z" fill="#675AF6"/>
<path d="M2.91669 11.2352C2.81003 11.2352 2.70336 11.1944 2.62169 11.1136C2.45919 10.9511 2.45919 10.6869 2.62169 10.5244L4.70503 8.44102C4.83169 8.31352 5.02503 8.28186 5.18586 8.36269L6.58419 9.06186L9.28836 6.35769C9.45086 6.19519 9.71503 6.19519 9.87753 6.35769C10.04 6.52019 10.04 6.78436 9.87753 6.94686L6.96086 9.86352C6.83336 9.99102 6.63919 10.021 6.48003 9.94186L5.08169 9.24269L3.21086 11.1136C3.13003 11.1944 3.02336 11.2352 2.91669 11.2352Z" fill="#675AF6"/>
<path d="M9.58335 9.56852C9.35335 9.56852 9.16669 9.38186 9.16669 9.15185V7.06852H7.08335C6.85335 7.06852 6.66669 6.88185 6.66669 6.65185C6.66669 6.42185 6.85335 6.23519 7.08335 6.23519H9.58335C9.81335 6.23519 10 6.42185 10 6.65185V9.15185C10 9.38186 9.81335 9.56852 9.58335 9.56852Z" fill="#675AF6"/>
<path d="M15.851 13.6815H15.0903C15.0396 13.207 14.8251 12.8652 14.5488 12.6565H15.851C15.9134 12.6565 15.9643 12.6038 15.9643 12.5405C15.9643 12.4773 15.9134 12.4246 15.851 12.4246H12.648C12.5866 12.4246 12.5357 12.4773 12.5357 12.5405C12.5357 12.6038 12.5866 12.6565 12.648 12.6565H14.0097C14.3736 12.7259 14.7874 13.0379 14.8648 13.6815H12.648C12.5866 13.6815 12.5357 13.7337 12.5357 13.7975C12.5357 13.8613 12.5866 13.9135 12.648 13.9135H14.8789C14.874 14.2365 14.767 14.4979 14.557 14.6907C13.9618 15.2367 12.7462 15.0974 12.7341 15.0964C12.6891 15.0913 12.6432 15.1151 12.6213 15.1576C12.6001 15.1997 12.6059 15.2519 12.6354 15.2878L14.7734 17.8391C14.7951 17.8659 14.8266 17.8791 14.859 17.8791C14.8847 17.8791 14.9108 17.8695 14.9326 17.8508C14.9795 17.8092 14.9848 17.7358 14.9441 17.6867L12.9809 15.3445C13.4043 15.3562 14.2154 15.3136 14.7056 14.8649C14.9665 14.6265 15.0985 14.3059 15.1034 13.9135H15.8501C15.9125 13.9135 15.9633 13.8617 15.9633 13.7975C15.9633 13.7331 15.9134 13.6815 15.851 13.6815Z" fill="#FFBD00"/>
<path fill-rule="evenodd" clip-rule="evenodd" d="M12.25 12.5405C12.25 12.3476 12.4077 12.1519 12.648 12.1519H15.851C16.0908 12.1519 16.25 12.346 16.25 12.5405C16.25 12.7351 16.0908 12.9292 15.851 12.9292H15.1497C15.2301 13.0717 15.2928 13.2319 15.3336 13.4088H15.851C16.0922 13.4088 16.249 13.6033 16.249 13.7975C16.249 13.9946 16.0883 14.1862 15.8501 14.1862H15.3669C15.3132 14.5266 15.1622 14.8251 14.9034 15.0618C14.6058 15.3342 14.2236 15.4729 13.8785 15.544C13.7687 15.5666 13.6602 15.5828 13.5562 15.5943L15.1683 17.5176C15.2984 17.6746 15.2866 17.9092 15.1269 18.0507L15.1242 18.0531C15.0536 18.114 14.9603 18.1519 14.859 18.1519C14.744 18.1519 14.6281 18.104 14.5493 18.0082L12.4109 15.4564C12.3124 15.337 12.2963 15.1732 12.3639 15.0392L12.3648 15.0376C12.4373 14.8963 12.5964 14.8061 12.768 14.8256C12.8215 14.831 13.083 14.855 13.4008 14.8271C13.7635 14.7953 14.1336 14.7008 14.3589 14.4942C14.4472 14.4131 14.5133 14.3122 14.5524 14.1862H12.648C12.4085 14.1862 12.25 13.9918 12.25 13.7975C12.25 13.6031 12.4085 13.4088 12.648 13.4088H14.5052C14.3847 13.1113 14.1609 12.972 13.9786 12.9292H12.648C12.4077 12.9292 12.25 12.7335 12.25 12.5405Z" fill="#FFBD00"/>
</svg>
