<svg width="14" height="14" viewBox="0 0 14 14" fill="none" xmlns="http://www.w3.org/2000/svg">
<path fill-rule="evenodd" clip-rule="evenodd" d="M7 0C3.14008 0 0 3.14008 0 7C0 10.8599 3.14008 14 7 14C10.8599 14 14 10.8599 14 7C14 3.14008 10.8599 0 7 0ZM8.5505 10.6657C8.16492 10.8173 6.8285 11.4555 6.0585 10.7771C5.82867 10.5752 5.71433 10.3192 5.71433 10.0083C5.71433 9.42608 5.90567 8.91858 6.25042 7.7C6.31108 7.46958 6.38517 7.17092 6.38517 6.93408C6.38517 6.52517 6.23 6.41667 5.80942 6.41667C5.60408 6.41667 5.37658 6.48958 5.17067 6.56658L5.28442 6.1005C5.7435 5.91383 6.31983 5.68633 6.81333 5.68633C7.55358 5.68633 8.09842 6.05558 8.09842 6.75792C8.09842 6.96033 8.06342 7.315 7.98992 7.56L7.56408 9.06617C7.476 9.37067 7.31675 10.0421 7.5635 10.241C7.80617 10.4376 8.38075 10.3332 8.66425 10.1996L8.5505 10.6657ZM7.847 4.66667C7.364 4.66667 6.972 4.27467 6.972 3.79167C6.972 3.30867 7.364 2.91667 7.847 2.91667C8.33 2.91667 8.722 3.30867 8.722 3.79167C8.722 4.27467 8.33 4.66667 7.847 4.66667Z" fill="#675AF6"/>
</svg>
