<svg width="22" height="22" viewBox="0 0 22 22" fill="none" xmlns="http://www.w3.org/2000/svg">
<path d="M17.1193 15.7256H16.5677C16.5309 15.3919 16.3758 15.1516 16.1755 15.0045H17.1193C17.1646 15.0045 17.2011 14.9681 17.2011 14.9231C17.2011 14.8782 17.1646 14.8417 17.1193 14.8417H14.7983C14.7537 14.8417 14.7169 14.8782 14.7169 14.9231C14.7169 14.9681 14.7537 15.0045 14.7983 15.0045H15.7849C16.0488 15.0533 16.3488 15.2726 16.4046 15.7256H14.7983C14.7537 15.7256 14.7169 15.7621 14.7169 15.807C14.7169 15.8519 14.7537 15.8884 14.7983 15.8884H16.4148C16.4112 16.1151 16.3341 16.2989 16.1818 16.4347C15.7502 16.8186 14.8695 16.7203 14.8607 16.7196C14.8281 16.7161 14.7948 16.7326 14.779 16.7624C14.7635 16.7923 14.7677 16.8284 14.7891 16.854L16.3386 18.6473C16.3544 18.6659 16.3769 18.6754 16.4004 18.6754C16.419 18.6754 16.4379 18.6688 16.4537 18.6554C16.4874 18.6259 16.4912 18.5747 16.4618 18.5403L15.0404 16.8947C15.347 16.9024 15.9348 16.873 16.2902 16.5568C16.4786 16.3895 16.5748 16.1642 16.5779 15.8888H17.1193C17.1646 15.8888 17.2011 15.8523 17.2011 15.8073C17.2014 15.7621 17.1646 15.7256 17.1193 15.7256Z" fill="#D6AF09" stroke="#D6AF09" stroke-width="0.5"/>
<path d="M10.4499 1.16138C10.4499 1.16138 6.05371 4.05611 6.05371 10.9449C6.05371 17.8337 11.1772 20.7305 11.1772 20.7305" stroke="#008EFF" stroke-linecap="round" stroke-linejoin="round"/>
<path d="M10.5386 1.16138C10.5386 1.16138 14.9351 4.05611 14.9351 10.9449" stroke="#008EFF" stroke-linecap="round" stroke-linejoin="round"/>
<path d="M1.01196 10.9445H20.6611C20.6611 5.53681 16.2632 1.15295 10.8369 1.15295C5.41056 1.15295 1.01196 5.53681 1.01196 10.9445C1.01196 16.3526 5.41056 20.7361 10.8369 20.7361C10.9502 20.7361 11.0635 20.7344 11.1769 20.7301" stroke="#008EFF" stroke-linecap="round" stroke-linejoin="round"/>
<path d="M2.49548 5.77084H19.0411" stroke="#008EFF" stroke-linecap="round" stroke-linejoin="round"/>
<path d="M2.49548 16.0101H10.405" stroke="#008EFF" stroke-linecap="round" stroke-linejoin="round"/>
<ellipse cx="15.959" cy="16.3656" rx="4.44526" ry="4.43719" stroke="#008EFF" stroke-linecap="round" stroke-linejoin="round"/>
</svg>
