<svg width="311" height="148" viewBox="0 0 311 148" fill="none" xmlns="http://www.w3.org/2000/svg">
<mask id="mask0" mask-type="alpha" maskUnits="userSpaceOnUse" x="25" y="0" width="261" height="148">
<path d="M25.2461 8.80664C25.2461 4.38836 28.8278 0.806641 33.2461 0.806641H285.43V147.619H33.2461C28.8278 147.619 25.2461 144.037 25.2461 139.619V8.80664Z" fill="white"/>
</mask>
<g mask="url(#mask0)">
<path d="M41.2015 139.925C41.2015 139.925 9.23503 141.758 35.7957 143.743C59.3624 145.504 86.8376 145.384 106.996 144.669C115.582 144.365 140.336 144.631 161.405 146.423C190.136 148.867 289.732 147.385 271.573 143.625C262.785 141.806 298.319 141.74 280.213 139.922L41.2015 139.925Z" fill="#EFEEFB"/>
<path d="M41.2015 139.485C41.2015 139.485 9.23503 107.213 35.7957 72.2738C59.3624 41.2741 86.8376 43.393 106.996 55.9729C115.582 61.331 140.336 56.6333 161.405 25.0898C190.136 -17.9271 289.732 8.16237 271.573 74.3459C262.785 106.374 298.319 107.538 280.213 139.553L41.2015 139.485Z" fill="#EFEEFB"/>
<path d="M124.346 29.3486L126.937 27.7916C127.513 27.4457 128.164 28.1 127.823 28.6717L126.255 31.244C126.134 31.4471 126.134 31.7028 126.255 31.9059L127.823 34.4782C128.172 35.0498 127.513 35.6967 126.937 35.3582L124.346 33.8013C124.142 33.6809 123.884 33.6809 123.68 33.8013L121.089 35.3582C120.513 35.7042 119.862 35.0498 120.202 34.4782L121.771 31.9059C121.892 31.7028 121.892 31.4471 121.771 31.244L120.202 28.6717C119.854 28.1 120.513 27.4532 121.089 27.7916L123.68 29.3486C123.884 29.4689 124.142 29.4689 124.346 29.3486Z" fill="#E6E5F4"/>
<path opacity="0.3" d="M177.044 -5.54135L179.983 -4.81929C180.635 -4.66134 180.635 -3.7362 179.983 -3.57825L177.044 -2.8562C176.809 -2.79602 176.635 -2.62302 176.574 -2.38986L175.847 0.528457C175.688 1.1753 174.756 1.1753 174.597 0.528457L173.87 -2.38986C173.81 -2.62302 173.635 -2.79602 173.4 -2.8562L170.461 -3.57825C169.81 -3.7362 169.81 -4.66134 170.461 -4.81929L173.4 -5.54135C173.635 -5.60152 173.81 -5.77452 173.87 -6.00768L174.597 -8.926C174.756 -9.57284 175.688 -9.57284 175.847 -8.926L176.574 -6.00768C176.628 -5.77452 176.809 -5.594 177.044 -5.54135Z" fill="#5A79B1"/>
<path opacity="0.6" d="M250.967 69.3923L251.74 69.5803C251.914 69.6255 251.914 69.8661 251.74 69.9037L250.967 70.0918C250.907 70.1068 250.861 70.152 250.846 70.2121L250.657 70.9793C250.611 71.1523 250.369 71.1523 250.331 70.9793L250.142 70.2121C250.127 70.152 250.081 70.1068 250.021 70.0918L249.248 69.9037C249.074 69.8586 249.074 69.6179 249.248 69.5803L250.021 69.3923C250.081 69.3773 250.127 69.3321 250.142 69.2719L250.331 68.5047C250.377 68.3318 250.619 68.3318 250.657 68.5047L250.846 69.2719C250.861 69.3321 250.907 69.3773 250.967 69.3923Z" fill="#5A79B1"/>
<path d="M187.5 100.841L190.135 101.271C190.345 101.305 190.531 101.393 190.677 101.515C190.831 101.642 190.941 101.809 190.988 101.991C191.003 102.046 191.012 102.103 191.013 102.16C191.015 102.212 191.012 102.266 191.004 102.319L184.942 138.77C184.863 139.24 184.371 139.557 183.832 139.494C183.815 139.492 183.797 139.49 183.78 139.486L181.145 139.056C181.128 139.053 181.111 139.051 181.093 139.047C180.562 138.936 180.198 138.479 180.276 138.009L186.338 101.558C186.348 101.504 186.361 101.453 186.381 101.405C186.401 101.352 186.427 101.3 186.459 101.252C186.563 101.095 186.72 100.973 186.909 100.9C187.086 100.831 187.29 100.808 187.5 100.841Z" fill="#B9B3F9"/>
<path d="M188.173 119.337L184.925 138.865C184.855 139.285 184.369 139.56 183.83 139.494C183.813 139.492 183.795 139.49 183.778 139.486L181.143 139.056C181.126 139.053 181.109 139.051 181.091 139.047C180.559 138.939 180.189 138.524 180.258 138.104L183.108 120.974C184.527 120.924 186.534 120.597 188.173 119.337Z" fill="#675AF6"/>
<path d="M185.753 105.119L185.684 105.533L190.348 106.298L190.417 105.884L185.753 105.119Z" fill="#9D95F8"/>
<path d="M185.518 106.514L185.449 106.928L190.114 107.691L190.183 107.277L185.518 106.514Z" fill="#9D95F8"/>
<path d="M185.233 108.21L185.164 108.624L189.829 109.388L189.898 108.974L185.233 108.21Z" fill="#9D95F8"/>
<path d="M184.811 110.765L184.742 111.179L189.407 111.943L189.476 111.528L184.811 110.765Z" fill="#9D95F8"/>
<path d="M184.354 113.485L184.285 113.899L188.951 114.663L189.019 114.249L184.354 113.485Z" fill="#9D95F8"/>
<path d="M183.655 117.675L183.586 118.089L188.251 118.852L188.32 118.438L183.655 117.675Z" fill="#9D95F8"/>
<path d="M183.01 121.598L182.941 122.012L187.606 122.777L187.675 122.363L183.01 121.598Z" fill="#9D95F8"/>
<path d="M182.432 125.075L182.363 125.489L187.029 126.253L187.097 125.839L182.432 125.075Z" fill="#9D95F8"/>
<path d="M185.967 103.773L185.898 104.188L190.564 104.95L190.632 104.536L185.967 103.773Z" fill="#9D95F8"/>
<path d="M186.116 102.882L186.047 103.296L190.712 104.06L190.781 103.646L186.116 102.882Z" fill="#9D95F8"/>
<path d="M186.256 102.04L186.188 102.454L190.853 103.217L190.922 102.803L186.256 102.04Z" fill="#9D95F8"/>
<path d="M186.293 101.817L190.958 102.578L191.002 102.319C191.011 102.266 191.013 102.212 191.011 102.16L186.377 101.405C186.358 101.453 186.344 101.504 186.335 101.557L186.293 101.817Z" fill="#9D95F8"/>
<path d="M186.457 101.253L190.986 101.991C190.939 101.81 190.828 101.644 190.674 101.515L186.905 100.9C186.719 100.973 186.561 101.096 186.457 101.253Z" fill="#9D95F8"/>
<path d="M192.282 100.842L194.916 101.272C195.126 101.306 195.312 101.394 195.458 101.515C195.612 101.643 195.722 101.809 195.769 101.991C195.784 102.047 195.792 102.103 195.794 102.161C195.797 102.213 195.793 102.266 195.785 102.319L189.723 138.771C189.644 139.24 189.152 139.558 188.614 139.495C188.597 139.492 188.578 139.49 188.561 139.487L185.926 139.057C185.909 139.053 185.892 139.051 185.874 139.048C185.344 138.937 184.979 138.48 185.058 138.009L191.12 101.558C191.129 101.505 191.143 101.454 191.162 101.405C191.182 101.352 191.209 101.3 191.241 101.253C191.344 101.095 191.502 100.973 191.69 100.901C191.868 100.832 192.072 100.808 192.282 100.842Z" fill="#B9B3F9"/>
<path d="M192.955 119.337L189.706 138.866C189.637 139.285 189.15 139.56 188.612 139.495C188.595 139.492 188.576 139.49 188.559 139.487L185.924 139.057C185.907 139.053 185.89 139.051 185.872 139.048C185.341 138.939 184.97 138.524 185.04 138.104L187.889 120.974C189.308 120.924 191.314 120.598 192.955 119.337Z" fill="#675AF6"/>
<path d="M190.538 105.119L190.469 105.533L195.134 106.298L195.203 105.884L190.538 105.119Z" fill="#9D95F8"/>
<path d="M190.303 106.519L190.234 106.933L194.9 107.696L194.968 107.282L190.303 106.519Z" fill="#9D95F8"/>
<path d="M190.018 108.21L189.949 108.624L194.614 109.388L194.683 108.974L190.018 108.21Z" fill="#9D95F8"/>
<path d="M189.588 110.76L189.52 111.174L194.185 111.938L194.254 111.524L189.588 110.76Z" fill="#9D95F8"/>
<path d="M189.135 113.486L189.066 113.9L193.732 114.664L193.801 114.25L189.135 113.486Z" fill="#9D95F8"/>
<path d="M188.44 117.692L188.371 118.106L193.036 118.87L193.105 118.456L188.44 117.692Z" fill="#9D95F8"/>
<path d="M187.788 121.576L187.719 121.99L192.384 122.754L192.453 122.34L187.788 121.576Z" fill="#9D95F8"/>
<path d="M187.209 125.071L187.141 125.485L191.806 126.249L191.875 125.835L187.209 125.071Z" fill="#9D95F8"/>
<path d="M190.752 103.792L190.684 104.206L195.348 104.97L195.417 104.556L190.752 103.792Z" fill="#9D95F8"/>
<path d="M190.909 102.899L190.84 103.313L195.505 104.076L195.574 103.662L190.909 102.899Z" fill="#9D95F8"/>
<path d="M191.038 102.041L190.969 102.455L195.634 103.218L195.703 102.803L191.038 102.041Z" fill="#9D95F8"/>
<path d="M191.078 101.817L195.744 102.578L195.787 102.319C195.796 102.266 195.798 102.213 195.796 102.161L191.162 101.405C191.143 101.454 191.129 101.505 191.12 101.558L191.078 101.817Z" fill="#9D95F8"/>
<path d="M191.242 101.253L195.771 101.992C195.724 101.811 195.613 101.645 195.46 101.516L191.69 100.9C191.503 100.974 191.345 101.096 191.242 101.253Z" fill="#9D95F8"/>
<path d="M174.806 135.836L174.801 138.485C174.801 138.697 174.744 138.893 174.646 139.056C174.544 139.226 174.396 139.361 174.223 139.437C174.171 139.46 174.115 139.477 174.058 139.489C174.007 139.499 173.953 139.505 173.9 139.505L136.661 139.416C136.181 139.415 135.787 138.983 135.763 138.446C135.763 138.428 135.762 138.411 135.762 138.394L135.766 135.745C135.766 135.728 135.766 135.71 135.767 135.693C135.792 135.155 136.189 134.725 136.669 134.727L173.908 134.815C173.961 134.815 174.015 134.82 174.066 134.832C174.123 134.843 174.178 134.861 174.231 134.885C174.404 134.961 174.552 135.096 174.653 135.268C174.75 135.429 174.807 135.625 174.806 135.836Z" fill="#675AF6"/>
<path d="M156.511 139.464L136.56 139.416C136.132 139.415 135.779 138.983 135.759 138.446C135.759 138.428 135.758 138.411 135.758 138.394L135.762 135.745C135.762 135.728 135.762 135.71 135.764 135.693C135.786 135.155 136.14 134.725 136.568 134.727L154.069 134.767C154.347 136.148 154.994 138.06 156.511 139.464Z" fill="#B9B3F9"/>
<path d="M169.855 134.803L169.844 139.494L170.267 139.495L170.278 134.804L169.855 134.803Z" fill="#9D95F8"/>
<path d="M168.421 134.8L168.41 139.491L168.833 139.492L168.844 134.801L168.421 134.8Z" fill="#9D95F8"/>
<path d="M166.704 134.796L166.691 139.487L167.114 139.488L167.127 134.797L166.704 134.796Z" fill="#9D95F8"/>
<path d="M164.07 134.79L164.059 139.48L164.482 139.481L164.493 134.791L164.07 134.79Z" fill="#9D95F8"/>
<path d="M161.285 134.783L161.273 139.474L161.696 139.475L161.708 134.784L161.285 134.783Z" fill="#9D95F8"/>
<path d="M157.015 134.773L157.004 139.464L157.427 139.465L157.438 134.774L157.015 134.773Z" fill="#9D95F8"/>
<path d="M153.019 134.764L153.008 139.455L153.431 139.456L153.442 134.765L153.019 134.764Z" fill="#9D95F8"/>
<path d="M149.45 134.756L149.438 139.447L149.86 139.448L149.873 134.757L149.45 134.756Z" fill="#9D95F8"/>
<path d="M171.218 134.806L171.207 139.497L171.63 139.498L171.641 134.807L171.218 134.806Z" fill="#9D95F8"/>
<path d="M172.115 134.809L172.105 139.5L172.528 139.5L172.538 134.81L172.115 134.809Z" fill="#9D95F8"/>
<path d="M172.988 134.81L172.977 139.501L173.399 139.502L173.411 134.811L172.988 134.81Z" fill="#9D95F8"/>
<path d="M173.642 134.813L173.633 139.504L173.897 139.505C173.952 139.505 174.004 139.499 174.056 139.489L174.065 134.831C174.014 134.82 173.96 134.814 173.906 134.814L173.642 134.813Z" fill="#9D95F8"/>
<path d="M174.227 134.882L174.219 139.436C174.392 139.361 174.539 139.227 174.642 139.055L174.649 135.266C174.547 135.094 174.4 134.958 174.227 134.882Z" fill="#9D95F8"/>
<path d="M170.833 131.136L170.829 133.785C170.829 133.997 170.772 134.192 170.674 134.355C170.571 134.526 170.423 134.661 170.251 134.736C170.198 134.76 170.143 134.777 170.086 134.789C170.034 134.799 169.981 134.804 169.927 134.804L132.689 134.716C132.209 134.715 131.814 134.283 131.79 133.746C131.79 133.727 131.789 133.711 131.789 133.694L131.794 131.044C131.794 131.027 131.794 131.009 131.795 130.992C131.82 130.455 132.217 130.025 132.697 130.026L169.935 130.115C169.959 130.115 169.983 130.116 170.006 130.118C170.016 130.118 170.026 130.119 170.036 130.121C170.048 130.123 170.059 130.125 170.07 130.126C170.078 130.127 170.086 130.129 170.094 130.13C170.151 130.142 170.205 130.16 170.258 130.184C170.266 130.187 170.274 130.19 170.282 130.195C170.29 130.198 170.298 130.202 170.304 130.206C170.319 130.214 170.335 130.223 170.35 130.231C170.358 130.237 170.367 130.242 170.376 130.248C170.384 130.253 170.391 130.257 170.399 130.264C170.414 130.273 170.428 130.283 170.441 130.294C170.457 130.307 170.472 130.32 170.488 130.334C170.499 130.344 170.512 130.356 170.523 130.367C170.523 130.367 170.524 130.368 170.526 130.369C170.534 130.377 170.54 130.385 170.548 130.393C170.571 130.417 170.593 130.443 170.613 130.469C170.62 130.477 170.626 130.484 170.632 130.492C170.637 130.5 170.643 130.508 170.649 130.517C170.66 130.534 170.672 130.551 170.682 130.569C170.778 130.73 170.833 130.926 170.833 131.136Z" fill="#675AF6"/>
<path d="M152.538 134.763L132.588 134.715C132.159 134.714 131.807 134.282 131.786 133.745C131.786 133.727 131.785 133.71 131.785 133.693L131.79 131.044C131.79 131.027 131.79 131.009 131.791 130.992C131.814 130.454 132.167 130.024 132.596 130.024L150.095 130.066C150.103 130.105 150.111 130.143 150.119 130.182C150.411 131.553 151.063 133.398 152.538 134.763Z" fill="#B9B3F9"/>
<path d="M165.878 130.103L165.867 134.794L166.29 134.795L166.301 130.104L165.878 130.103Z" fill="#9D95F8"/>
<path d="M164.449 130.099L164.438 134.79L164.86 134.791L164.872 130.1L164.449 130.099Z" fill="#9D95F8"/>
<path d="M162.73 130.095L162.719 134.786L163.142 134.787L163.153 130.096L162.73 130.095Z" fill="#9D95F8"/>
<path d="M160.097 130.089L160.086 134.78L160.509 134.781L160.52 130.09L160.097 130.089Z" fill="#9D95F8"/>
<path d="M157.311 130.082L157.301 134.773L157.724 134.774L157.734 130.083L157.311 130.082Z" fill="#9D95F8"/>
<path d="M153.044 130.072L153.031 134.763L153.454 134.764L153.467 130.073L153.044 130.072Z" fill="#9D95F8"/>
<path d="M149.046 130.063L149.035 134.754L149.458 134.755L149.469 130.064L149.046 130.063Z" fill="#9D95F8"/>
<path d="M145.475 130.056L145.465 134.747L145.888 134.747L145.898 130.057L145.475 130.056Z" fill="#9D95F8"/>
<path d="M167.245 130.106L167.234 134.797L167.657 134.798L167.668 130.107L167.245 130.106Z" fill="#9D95F8"/>
<path d="M168.144 130.108L168.133 134.799L168.556 134.8L168.567 130.109L168.144 130.108Z" fill="#9D95F8"/>
<path d="M169.015 130.11L169.004 134.801L169.427 134.802L169.438 130.111L169.015 130.11Z" fill="#9D95F8"/>
<path d="M169.665 130.112L169.656 134.803H169.921C169.976 134.803 170.028 134.798 170.079 134.787L170.088 130.129C170.037 130.118 169.984 130.112 169.93 130.112H169.665Z" fill="#9D95F8"/>
<path d="M170.254 130.181L170.246 134.734C170.419 134.659 170.566 134.525 170.669 134.353L170.676 130.564C170.574 130.393 170.426 130.258 170.254 130.181Z" fill="#9D95F8"/>
<path d="M172.764 126.564L172.76 129.214C172.76 129.425 172.703 129.621 172.605 129.784C172.502 129.954 172.354 130.09 172.182 130.165C172.129 130.189 172.073 130.206 172.016 130.217C171.964 130.227 171.911 130.233 171.858 130.233L134.618 130.146C134.469 130.146 134.328 130.103 134.203 130.029C133.94 129.872 133.752 129.571 133.723 129.22C133.722 129.206 133.721 129.19 133.72 129.175C133.72 129.158 133.719 129.14 133.719 129.123L133.723 126.474C133.723 126.457 133.723 126.439 133.724 126.422C133.75 125.885 134.146 125.455 134.626 125.456L171.865 125.543C171.919 125.543 171.972 125.549 172.023 125.56C172.08 125.571 172.135 125.589 172.188 125.613C172.361 125.689 172.508 125.825 172.61 125.996C172.707 126.158 172.764 126.354 172.764 126.564Z" fill="#675AF6"/>
<path d="M154.473 130.192L134.523 130.144C134.389 130.144 134.263 130.101 134.152 130.028C133.917 129.871 133.75 129.571 133.723 129.22C133.722 129.206 133.721 129.19 133.72 129.175C133.72 129.158 133.719 129.14 133.719 129.123L133.723 126.474C133.723 126.457 133.723 126.439 133.724 126.422C133.747 125.885 134.101 125.455 134.529 125.456L152.03 125.497C152.299 126.84 152.919 128.685 154.349 130.078C154.391 130.115 154.431 130.154 154.473 130.192Z" fill="#B9B3F9"/>
<path d="M173.665 121.876L173.661 124.525C173.661 124.737 173.604 124.932 173.506 125.095C173.403 125.266 173.255 125.402 173.083 125.476C173.03 125.5 172.975 125.517 172.918 125.529C172.865 125.539 172.813 125.544 172.759 125.544L135.521 125.456C135.041 125.455 134.646 125.023 134.622 124.486C134.622 124.467 134.621 124.451 134.621 124.434L134.626 121.784C134.626 121.767 134.626 121.749 134.627 121.732C134.65 121.235 134.99 120.83 135.421 120.773C135.457 120.769 135.492 120.766 135.529 120.766L172.767 120.855C172.822 120.855 172.874 120.86 172.926 120.872C172.983 120.883 173.037 120.901 173.091 120.925C173.263 121.001 173.411 121.136 173.513 121.308C173.61 121.469 173.667 121.664 173.665 121.876Z" fill="#675AF6"/>
<path d="M155.374 125.504L135.424 125.456C134.995 125.455 134.643 125.023 134.622 124.486C134.622 124.467 134.621 124.451 134.621 124.434L134.626 121.784C134.626 121.767 134.626 121.749 134.627 121.732C134.647 121.236 134.952 120.83 135.337 120.773C135.368 120.769 135.4 120.766 135.432 120.766L152.932 120.807C152.932 120.809 152.933 120.813 152.933 120.815C153.211 122.194 153.86 124.101 155.374 125.504Z" fill="#B9B3F9"/>
<path d="M170.936 117.185L170.932 119.834C170.932 120.046 170.875 120.241 170.776 120.404C170.674 120.575 170.526 120.71 170.353 120.785C170.301 120.809 170.245 120.826 170.188 120.838C170.171 120.841 170.153 120.844 170.136 120.847C170.127 120.848 170.116 120.849 170.106 120.85C170.097 120.851 170.087 120.852 170.076 120.852C170.06 120.853 170.044 120.853 170.029 120.853L132.79 120.765C132.31 120.764 131.916 120.332 131.892 119.795C131.892 119.778 131.891 119.76 131.891 119.743L131.895 117.093C131.895 117.075 131.895 117.058 131.896 117.041C131.896 117.027 131.897 117.013 131.899 116.998C131.935 116.566 132.213 116.21 132.576 116.106C132.585 116.103 132.594 116.101 132.603 116.098C132.666 116.082 132.731 116.074 132.798 116.074L170.036 116.162C170.064 116.162 170.091 116.165 170.117 116.167C170.13 116.169 170.141 116.17 170.154 116.171C170.168 116.174 170.181 116.177 170.196 116.179C170.253 116.191 170.308 116.209 170.361 116.233C170.534 116.308 170.682 116.444 170.783 116.616C170.88 116.778 170.936 116.975 170.936 117.185Z" fill="#675AF6"/>
<path d="M152.644 120.813L132.693 120.765C132.265 120.764 131.912 120.332 131.892 119.795C131.892 119.778 131.891 119.76 131.891 119.743L131.895 117.093C131.895 117.075 131.895 117.058 131.896 117.041C131.896 117.027 131.897 117.013 131.899 116.998C131.932 116.556 132.19 116.195 132.525 116.099C132.536 116.095 132.547 116.092 132.559 116.09C132.605 116.08 132.652 116.074 132.701 116.074L150.201 116.115C150.204 116.126 150.206 116.136 150.208 116.148C150.489 117.524 151.136 119.412 152.634 120.805C152.638 120.807 152.641 120.81 152.644 120.813Z" fill="#B9B3F9"/>
<path d="M170.866 112.527L170.861 115.176C170.861 115.387 170.804 115.583 170.706 115.746C170.604 115.918 170.455 116.051 170.282 116.127C170.241 116.145 170.198 116.16 170.153 116.171H170.152C170.139 116.174 170.128 116.177 170.117 116.179C170.065 116.189 170.012 116.195 169.958 116.195L132.72 116.108C132.681 116.108 132.641 116.104 132.604 116.099C132.589 116.098 132.574 116.094 132.559 116.091C132.154 116.007 131.842 115.613 131.821 115.137C131.821 115.119 131.82 115.102 131.82 115.085L131.825 112.436C131.825 112.418 131.825 112.401 131.826 112.384C131.851 111.847 132.248 111.417 132.728 111.418L169.966 111.506C169.99 111.506 170.014 111.507 170.037 111.51C170.047 111.511 170.057 111.512 170.068 111.513C170.079 111.514 170.09 111.516 170.101 111.519C170.109 111.52 170.117 111.522 170.125 111.523C170.182 111.534 170.236 111.553 170.29 111.576C170.298 111.58 170.305 111.583 170.314 111.588C170.322 111.591 170.329 111.594 170.337 111.599C170.352 111.607 170.368 111.616 170.382 111.624C170.398 111.634 170.415 111.644 170.431 111.656C170.446 111.666 170.46 111.676 170.474 111.686C170.49 111.699 170.504 111.712 170.519 111.726C170.532 111.736 170.543 111.746 170.555 111.758C170.555 111.758 170.556 111.76 170.557 111.761C170.565 111.768 170.573 111.777 170.58 111.784C170.602 111.808 170.624 111.834 170.645 111.86C170.651 111.868 170.657 111.876 170.663 111.884C170.669 111.893 170.674 111.9 170.68 111.909C170.691 111.926 170.703 111.943 170.713 111.961C170.81 112.119 170.866 112.316 170.866 112.527Z" fill="#675AF6"/>
<path d="M152.574 116.154L132.624 116.107C132.608 116.107 132.592 116.106 132.576 116.105C132.559 116.103 132.542 116.101 132.525 116.098C132.142 116.037 131.841 115.631 131.821 115.135C131.821 115.117 131.82 115.1 131.82 115.083L131.825 112.434C131.825 112.416 131.825 112.399 131.826 112.382C131.849 111.845 132.202 111.415 132.631 111.415L150.13 111.456C150.138 111.494 150.146 111.532 150.154 111.571C150.441 112.931 151.085 114.757 152.536 116.119C152.55 116.132 152.562 116.143 152.574 116.154Z" fill="#B9B3F9"/>
<path d="M172.798 107.956L172.794 110.605C172.794 110.817 172.737 111.012 172.639 111.175C172.536 111.346 172.388 111.481 172.216 111.556C172.163 111.58 172.107 111.597 172.05 111.608C171.999 111.619 171.945 111.624 171.892 111.624L134.653 111.536C134.504 111.536 134.363 111.493 134.238 111.419C133.975 111.262 133.788 110.961 133.758 110.611C133.757 110.596 133.756 110.58 133.755 110.565C133.755 110.548 133.754 110.53 133.754 110.513L133.758 107.864C133.758 107.847 133.76 107.829 133.76 107.812C133.785 107.275 134.181 106.845 134.661 106.846L171.9 106.933C171.955 106.933 172.007 106.939 172.058 106.95C172.115 106.962 172.17 106.98 172.224 107.003C172.396 107.079 172.544 107.215 172.645 107.387C172.741 107.549 172.798 107.745 172.798 107.956Z" fill="#675AF6"/>
<path d="M154.504 111.584L134.554 111.537C134.42 111.537 134.295 111.494 134.183 111.421C133.948 111.263 133.781 110.964 133.755 110.613C133.753 110.598 133.752 110.582 133.751 110.568C133.751 110.551 133.75 110.533 133.75 110.516L133.755 107.867C133.755 107.85 133.756 107.832 133.756 107.815C133.779 107.277 134.133 106.847 134.561 106.847L152.061 106.888C152.33 108.232 152.95 110.078 154.38 111.469C154.423 111.507 154.463 111.545 154.504 111.584Z" fill="#B9B3F9"/>
<path d="M175.849 103.272L175.844 105.921C175.844 106.132 175.787 106.328 175.689 106.491C175.587 106.662 175.439 106.796 175.266 106.872C175.214 106.896 175.158 106.913 175.101 106.924C175.05 106.934 174.996 106.94 174.943 106.94L137.704 106.852C137.224 106.851 136.83 106.419 136.806 105.881C136.806 105.864 136.805 105.846 136.805 105.829L136.809 103.18C136.809 103.163 136.809 103.145 136.81 103.128C136.833 102.632 137.174 102.225 137.605 102.169C137.64 102.164 137.676 102.162 137.711 102.162L174.949 102.25C175.004 102.25 175.057 102.256 175.108 102.267C175.165 102.279 175.22 102.297 175.272 102.32C175.444 102.396 175.593 102.532 175.694 102.704C175.793 102.865 175.849 103.061 175.849 103.272Z" fill="#675AF6"/>
<path d="M157.554 106.899L137.603 106.852C137.175 106.851 136.822 106.419 136.802 105.881C136.802 105.864 136.801 105.846 136.801 105.829L136.805 103.18C136.805 103.163 136.805 103.145 136.806 103.128C136.827 102.632 137.131 102.225 137.517 102.169C137.548 102.164 137.58 102.162 137.611 102.162L155.112 102.203C155.112 102.205 155.113 102.207 155.113 102.211C155.392 103.591 156.04 105.498 157.554 106.899Z" fill="#B9B3F9"/>
<path d="M170.97 98.5763L170.966 101.225C170.966 101.437 170.909 101.633 170.811 101.796C170.708 101.966 170.56 102.101 170.388 102.177C170.335 102.201 170.279 102.218 170.222 102.229C170.205 102.232 170.187 102.236 170.17 102.238C170.156 102.24 170.141 102.241 170.128 102.242C170.121 102.242 170.114 102.244 170.107 102.245C170.092 102.245 170.079 102.246 170.064 102.246L132.825 102.158C132.345 102.156 131.951 101.724 131.927 101.187C131.927 101.17 131.926 101.152 131.926 101.135L131.93 98.4858C131.93 98.4688 131.931 98.4508 131.931 98.4338C131.957 97.8965 132.353 97.4666 132.833 97.4678L170.072 97.556C170.088 97.556 170.104 97.556 170.12 97.5583C170.157 97.5605 170.195 97.5662 170.23 97.573C170.287 97.5843 170.342 97.6024 170.396 97.6261C170.423 97.6386 170.449 97.651 170.473 97.6657C170.489 97.6748 170.505 97.6838 170.52 97.694C170.521 97.694 170.523 97.6951 170.524 97.6974C170.539 97.7076 170.555 97.7189 170.57 97.7302C170.573 97.7313 170.576 97.7336 170.578 97.7359C170.592 97.746 170.605 97.7574 170.618 97.7687C170.65 97.7958 170.679 97.8252 170.708 97.858C170.717 97.8671 170.725 97.8773 170.733 97.8874C170.734 97.8886 170.736 97.8908 170.738 97.8931C170.743 97.8987 170.748 97.9055 170.754 97.9123C170.755 97.9135 170.756 97.9146 170.757 97.9168C170.766 97.9282 170.775 97.9406 170.783 97.9542C170.796 97.9723 170.807 97.9904 170.819 98.0096C170.914 98.1691 170.97 98.3648 170.97 98.5763Z" fill="#675AF6"/>
<path d="M152.679 102.204L132.728 102.156C132.3 102.155 131.947 101.723 131.927 101.186C131.927 101.169 131.926 101.151 131.926 101.134L131.93 98.4847C131.93 98.4678 131.931 98.4497 131.931 98.4327C131.954 97.8954 132.309 97.4656 132.736 97.4656L150.237 97.5074C150.243 97.5425 150.251 97.5787 150.259 97.616C150.547 98.9859 151.198 100.831 152.67 102.197C152.673 102.198 152.676 102.202 152.679 102.204Z" fill="#B9B3F9"/>
<path d="M173.716 93.9997L173.712 96.6489C173.712 96.8604 173.655 97.0561 173.557 97.219C173.454 97.3898 173.306 97.5244 173.134 97.6002C173.081 97.6239 173.025 97.6409 172.968 97.6522C172.916 97.6624 172.863 97.668 172.81 97.668L135.571 97.5798C135.427 97.5798 135.29 97.5402 135.169 97.4701C134.898 97.3151 134.704 97.0086 134.675 96.65C134.674 96.6364 134.673 96.6228 134.673 96.6081C134.673 96.5912 134.672 96.5731 134.672 96.5561L134.676 93.907C134.676 93.8889 134.676 93.8719 134.678 93.8549C134.7 93.3572 135.041 92.9523 135.472 92.8957C135.508 92.8912 135.543 92.8889 135.579 92.8889L172.818 92.9771C172.872 92.9771 172.925 92.9828 172.976 92.9941C173.033 93.0054 173.088 93.0235 173.142 93.0473C173.314 93.1231 173.461 93.2588 173.563 93.4307C173.66 93.5925 173.717 93.7893 173.716 93.9997Z" fill="#675AF6"/>
<path d="M155.421 97.6274L135.471 97.5799C135.342 97.5799 135.22 97.5403 135.111 97.4702C134.87 97.3152 134.696 97.0087 134.671 96.6512C134.67 96.6376 134.669 96.6241 134.669 96.6094C134.669 96.5924 134.668 96.5743 134.668 96.5573L134.673 93.9082C134.673 93.8901 134.673 93.8731 134.674 93.8561C134.694 93.3596 134.999 92.9535 135.384 92.8969C135.415 92.8924 135.447 92.8901 135.479 92.8901L152.979 92.9309C152.979 92.9331 152.98 92.9354 152.98 92.9388C153.25 94.2848 153.873 96.1298 155.306 97.5199C155.345 97.555 155.382 97.5912 155.421 97.6274Z" fill="#B9B3F9"/>
<path d="M170.987 89.3099L170.982 91.959C170.982 92.1706 170.925 92.3662 170.827 92.5291C170.725 92.7011 170.576 92.8357 170.404 92.9103C170.352 92.9341 170.296 92.9511 170.239 92.9624C170.222 92.9658 170.204 92.9691 170.187 92.9714C170.177 92.9725 170.167 92.9737 170.157 92.9748C170.148 92.9759 170.137 92.9759 170.127 92.9771C170.111 92.9782 170.095 92.9782 170.079 92.9782L132.841 92.89C132.361 92.8888 131.966 92.4567 131.943 91.9194C131.943 91.9013 131.941 91.8844 131.941 91.8674L131.946 89.2182C131.946 89.2013 131.946 89.1832 131.947 89.1662C131.972 88.6289 132.369 88.1991 132.849 88.2002L170.087 88.2884C170.142 88.2884 170.195 88.2941 170.246 88.3054C170.303 88.3167 170.358 88.3348 170.411 88.3585C170.583 88.4343 170.732 88.5701 170.833 88.742C170.931 88.9026 170.987 89.0983 170.987 89.3099Z" fill="#675AF6"/>
<path d="M152.694 92.9364L132.744 92.89C132.315 92.8888 131.963 92.4567 131.943 91.9194C131.943 91.9013 131.941 91.8844 131.941 91.8674L131.946 89.2182C131.946 89.2013 131.946 89.1832 131.947 89.1662C131.97 88.6289 132.323 88.1991 132.752 88.2002L150.252 88.2409C150.528 89.6209 151.175 91.5269 152.685 92.9307C152.689 92.9318 152.691 92.9341 152.694 92.9364Z" fill="#B9B3F9"/>
<path d="M167.812 125.532L167.801 130.223L168.224 130.224L168.235 125.533L167.812 125.532Z" fill="#9D95F8"/>
<path d="M166.381 125.528L166.371 130.219L166.794 130.22L166.804 125.529L166.381 125.528Z" fill="#9D95F8"/>
<path d="M164.658 125.524L164.648 130.215L165.071 130.216L165.081 125.525L164.658 125.524Z" fill="#9D95F8"/>
<path d="M162.027 125.518L162.016 130.209L162.439 130.21L162.45 125.519L162.027 125.518Z" fill="#9D95F8"/>
<path d="M159.242 125.511L159.23 130.202L159.653 130.203L159.665 125.512L159.242 125.511Z" fill="#9D95F8"/>
<path d="M154.976 125.502L154.965 130.193L155.388 130.194L155.399 125.503L154.976 125.502Z" fill="#9D95F8"/>
<path d="M150.979 125.492L150.969 130.183L151.392 130.184L151.402 125.493L150.979 125.492Z" fill="#9D95F8"/>
<path d="M147.41 125.484L147.398 130.175L147.821 130.176L147.833 125.485L147.41 125.484Z" fill="#9D95F8"/>
<path d="M169.175 125.535L169.164 130.226L169.587 130.227L169.598 125.536L169.175 125.535Z" fill="#9D95F8"/>
<path d="M170.076 125.538L170.066 130.229L170.489 130.229L170.499 125.539L170.076 125.538Z" fill="#9D95F8"/>
<path d="M170.945 125.54L170.934 130.23L171.357 130.231L171.368 125.541L170.945 125.54Z" fill="#9D95F8"/>
<path d="M171.598 125.54L171.59 130.231L171.854 130.232C171.909 130.232 171.962 130.227 172.013 130.216L172.022 125.558C171.971 125.547 171.917 125.541 171.863 125.541L171.598 125.54Z" fill="#9D95F8"/>
<path d="M172.188 125.611L172.18 130.165C172.353 130.089 172.5 129.955 172.603 129.783L172.609 125.994C172.507 125.822 172.36 125.686 172.188 125.611Z" fill="#9D95F8"/>
<path d="M155.874 120.813L155.863 125.504L156.286 125.505L156.298 120.814L155.874 120.813Z" fill="#9D95F8"/>
<path d="M151.878 120.803L151.867 125.493L152.29 125.494L152.301 120.803L151.878 120.803Z" fill="#9D95F8"/>
<path d="M148.308 120.795L148.297 125.486L148.72 125.487L148.731 120.796L148.308 120.795Z" fill="#9D95F8"/>
<path d="M170.487 125.538L170.496 120.847L170.125 120.846C170.144 120.844 170.165 120.841 170.184 120.837L170.193 116.179C170.167 116.173 170.141 116.17 170.114 116.166L170.122 111.62H170.288L170.28 116.127C170.453 116.051 170.6 115.917 170.703 115.746L170.71 111.956C170.625 111.815 170.509 111.699 170.374 111.62H170.523L170.532 106.929L170.109 106.928L170.101 111.516C170.056 111.508 170.012 111.504 169.965 111.504L169.701 111.503L169.691 116.194H169.77L169.761 120.852L170.025 120.853C170.041 120.853 170.057 120.852 170.073 120.85L170.064 125.537L170.487 125.538Z" fill="#9D95F8"/>
<path d="M170.976 120.848L170.965 125.539L171.388 125.54L171.399 120.849L170.976 120.848Z" fill="#9D95F8"/>
<path d="M171.848 120.85L171.836 125.541L172.259 125.542L172.271 120.851L171.848 120.85Z" fill="#9D95F8"/>
<path d="M172.501 120.852L172.492 125.542L172.757 125.544C172.811 125.544 172.864 125.538 172.915 125.528L172.923 120.87C172.872 120.858 172.818 120.853 172.765 120.853L172.501 120.852Z" fill="#9D95F8"/>
<path d="M173.086 120.922L173.078 125.476C173.251 125.4 173.398 125.267 173.501 125.095L173.508 121.305C173.405 121.133 173.258 120.998 173.086 120.922Z" fill="#9D95F8"/>
<path d="M166.396 120.845L166.404 116.153H166.326L166.334 111.495L165.911 111.494L165.902 116.186H165.981L165.971 120.836L165.559 120.835L165.551 125.527H165.974L165.983 120.844L166.396 120.845Z" fill="#9D95F8"/>
<path d="M163.256 116.147L163.177 116.145L163.186 111.488L162.763 111.487L162.754 116.178H162.833L162.823 120.836H162.928L162.919 125.52L163.342 125.522L163.351 120.831L163.246 120.829L163.256 116.147Z" fill="#9D95F8"/>
<path d="M170.36 116.231L170.352 120.785C170.525 120.709 170.672 120.575 170.775 120.404L170.781 116.614C170.68 116.442 170.532 116.307 170.36 116.231Z" fill="#9D95F8"/>
<path d="M160.549 111.481L160.126 111.48L160.117 116.172H160.196L160.188 120.822H160.14L160.132 125.513L160.555 125.514L160.564 120.83L160.611 120.831L160.619 116.139H160.541L160.549 111.481Z" fill="#9D95F8"/>
<path d="M157.768 111.476L157.345 111.475L157.336 116.166H157.415L157.405 120.824L157.829 120.825L157.838 116.133H157.759L157.768 111.476Z" fill="#9D95F8"/>
<path d="M153.499 111.465L153.074 111.464L153.066 116.155H153.144L153.136 120.813L153.559 120.814L153.568 116.122H153.489L153.499 111.465Z" fill="#9D95F8"/>
<path d="M149.499 111.455L149.076 111.454L149.066 116.146H149.145L149.136 120.804H149.56L149.568 116.113H149.489L149.499 111.455Z" fill="#9D95F8"/>
<path d="M145.931 111.448L145.508 111.447L145.5 116.137H145.578L145.57 120.796L145.993 120.797L146.002 116.106H145.923L145.931 111.448Z" fill="#9D95F8"/>
<path d="M167.698 111.498L167.275 111.497L167.266 116.189H167.344L167.336 120.839H167.277L167.269 125.53L167.692 125.531L167.7 120.847H167.759L167.767 116.156H167.69L167.698 111.498Z" fill="#9D95F8"/>
<path d="M168.6 111.5L168.26 111.499L168.268 106.924L167.845 106.923L167.836 111.615H168.177L168.169 116.19L168.246 116.191L168.238 120.848L168.661 120.849L168.669 116.158H168.592L168.6 111.5Z" fill="#9D95F8"/>
<path d="M166.414 106.92L166.402 111.611L166.825 111.612L166.837 106.921L166.414 106.92Z" fill="#9D95F8"/>
<path d="M164.687 111.491L164.481 111.49L164.473 116.182H164.55L164.542 120.84L164.965 120.841L164.974 116.149H164.896L164.904 111.608H165.11L165.119 106.917L164.695 106.916L164.687 111.491Z" fill="#9D95F8"/>
<path d="M162.063 106.909L162.051 111.6L162.474 111.601L162.486 106.911L162.063 106.909Z" fill="#9D95F8"/>
<path d="M159.277 106.902L159.266 111.593L159.689 111.594L159.7 106.903L159.277 106.902Z" fill="#9D95F8"/>
<path d="M155.007 106.893L154.996 111.584L155.419 111.585L155.43 106.894L155.007 106.893Z" fill="#9D95F8"/>
<path d="M151.01 106.884L151 111.575L151.423 111.576L151.433 106.885L151.01 106.884Z" fill="#9D95F8"/>
<path d="M147.441 106.875L147.43 111.566L147.853 111.567L147.864 106.876L147.441 106.875Z" fill="#9D95F8"/>
<path d="M169.2 111.502H169.047L169.039 116.193H169.117L169.109 120.844L168.712 120.843L168.703 125.534L169.126 125.535L169.135 120.851L169.532 120.852L169.54 116.161H169.462L169.47 111.619H169.623L169.632 106.928L169.209 106.927L169.2 111.502Z" fill="#9D95F8"/>
<path d="M170.98 106.931L170.969 111.622L171.392 111.623L171.403 106.932L170.98 106.931Z" fill="#9D95F8"/>
<path d="M172.048 111.608L172.057 106.95C172.005 106.938 171.952 106.933 171.899 106.933L171.634 106.932L171.625 111.623L171.89 111.624C171.943 111.624 171.996 111.618 172.048 111.608Z" fill="#9D95F8"/>
<path d="M172.638 111.175L172.645 107.385C172.542 107.213 172.395 107.079 172.223 107.002L172.215 111.556C172.387 111.48 172.535 111.346 172.638 111.175Z" fill="#9D95F8"/>
<path d="M170.898 102.238L170.887 106.929L171.31 106.93L171.321 102.239L170.898 102.238Z" fill="#9D95F8"/>
<path d="M165.113 102.225L165.102 106.916L165.525 106.917L165.536 102.226L165.113 102.225Z" fill="#9D95F8"/>
<path d="M162.328 102.219L162.316 106.91L162.739 106.911L162.751 102.22L162.328 102.219Z" fill="#9D95F8"/>
<path d="M158.062 102.209L158.051 106.9L158.474 106.901L158.485 102.21L158.062 102.209Z" fill="#9D95F8"/>
<path d="M154.062 102.199L154.051 106.89L154.474 106.891L154.485 102.2L154.062 102.199Z" fill="#9D95F8"/>
<path d="M150.494 102.191L150.484 106.882L150.907 106.883L150.917 102.192L150.494 102.191Z" fill="#9D95F8"/>
<path d="M172.261 102.242L172.25 106.933L172.673 106.934L172.684 102.243L172.261 102.242Z" fill="#9D95F8"/>
<path d="M173.164 102.244L173.152 106.935L173.575 106.936L173.587 102.245L173.164 102.244Z" fill="#9D95F8"/>
<path d="M174.031 102.246L174.02 106.937L174.443 106.938L174.454 102.247L174.031 102.246Z" fill="#9D95F8"/>
<path d="M174.684 102.248L174.676 106.938L174.94 106.94C174.995 106.94 175.048 106.934 175.099 106.924L175.108 102.266C175.057 102.255 175.003 102.249 174.949 102.249L174.684 102.248Z" fill="#9D95F8"/>
<path d="M175.274 102.318L175.266 106.872C175.439 106.796 175.586 106.662 175.689 106.491L175.695 102.701C175.594 102.529 175.447 102.394 175.274 102.318Z" fill="#9D95F8"/>
<path d="M166.005 102.236L166.429 102.237L166.437 97.5451L166.025 97.544L166.033 92.9685L166.445 92.9696L166.454 88.2787L166.031 88.2776L166.022 92.9617L165.61 92.9606L165.602 97.6515L166.014 97.6526L166.005 102.236Z" fill="#9D95F8"/>
<path d="M164.587 97.5396L164.574 102.23L164.997 102.232L165.01 97.5407L164.587 97.5396Z" fill="#9D95F8"/>
<path d="M157.449 97.523L157.438 102.214L157.86 102.215L157.872 97.524L157.449 97.523Z" fill="#9D95F8"/>
<path d="M153.179 97.513L153.168 102.204L153.591 102.205L153.602 97.514L153.179 97.513Z" fill="#9D95F8"/>
<path d="M149.183 97.5037L149.172 102.195L149.595 102.196L149.606 97.5047L149.183 97.5037Z" fill="#9D95F8"/>
<path d="M145.613 97.4956L145.602 102.187L146.025 102.188L146.036 97.4966L145.613 97.4956Z" fill="#9D95F8"/>
<path d="M167.372 102.238L167.746 102.239L167.738 106.924L168.161 106.925L168.169 102.234L167.795 102.233L167.803 97.5485H167.744L167.752 92.973H167.812L167.82 88.2821L167.397 88.281L167.388 92.964H167.329L167.32 97.656H167.38L167.372 102.238Z" fill="#9D95F8"/>
<path d="M168.282 97.5496L168.273 102.24L168.696 102.241L168.705 97.5504L168.282 97.5496Z" fill="#9D95F8"/>
<path d="M170.466 97.6627H170.541L170.55 92.9718L170.178 92.9706C170.197 92.9684 170.218 92.9661 170.237 92.9616L170.246 88.3035C170.195 88.2922 170.141 88.2865 170.088 88.2865L169.823 88.2854L169.814 92.9763H170.079C170.095 92.9763 170.111 92.9752 170.127 92.974L170.119 97.5552C170.103 97.5541 170.087 97.5529 170.071 97.5529H169.806L169.797 102.237H169.566L169.575 97.5529L169.178 97.5518L169.186 92.9763L169.583 92.9774L169.592 88.2865L169.169 88.2854L169.16 92.9695L168.763 92.9684L168.754 97.6593L169.151 97.6604L169.143 102.244L169.464 102.245L169.455 106.929L169.878 106.93L169.887 102.246H170.061C170.115 102.246 170.168 102.24 170.219 102.23L170.227 97.6638H170.392L170.384 102.178C170.558 102.104 170.705 101.969 170.807 101.797L170.814 98.0077C170.729 97.8595 170.607 97.7418 170.466 97.6627Z" fill="#9D95F8"/>
<path d="M155.924 92.9368L155.914 97.6277L156.337 97.6286L156.347 92.9377L155.924 92.9368Z" fill="#9D95F8"/>
<path d="M151.929 92.9278L151.918 97.6187L152.341 97.6196L152.352 92.9287L151.929 92.9278Z" fill="#9D95F8"/>
<path d="M148.359 92.919L148.348 97.6099L148.771 97.6109L148.782 92.92L148.359 92.919Z" fill="#9D95F8"/>
<path d="M171.027 92.9719L171.016 97.6628L171.439 97.6638L171.45 92.9729L171.027 92.9719Z" fill="#9D95F8"/>
<path d="M171.898 92.9741L171.887 97.665L172.31 97.666L172.321 92.9751L171.898 92.9741Z" fill="#9D95F8"/>
<path d="M172.552 92.9756L172.543 97.6665H172.807C172.862 97.6665 172.915 97.6608 172.966 97.6506L172.974 92.9926C172.923 92.9812 172.869 92.9756 172.815 92.9756H172.552Z" fill="#9D95F8"/>
<path d="M173.556 97.2187L173.563 93.4294C173.46 93.2574 173.313 93.1228 173.141 93.0459L173.133 97.5999C173.305 97.5241 173.453 97.3895 173.556 97.2187Z" fill="#9D95F8"/>
<path d="M164.601 88.2737L164.59 92.9646L165.013 92.9656L165.024 88.2747L164.601 88.2737Z" fill="#9D95F8"/>
<path d="M163.305 88.2704L162.882 88.2693L162.873 92.9613H162.976L162.968 97.5368H162.865L162.855 102.228L163.278 102.229L163.288 97.6454H163.391L163.4 92.9545H163.296L163.305 88.2704Z" fill="#9D95F8"/>
<path d="M160.238 92.9478L160.192 92.9467L160.184 97.6387H160.23L160.221 102.222H160.645L160.653 97.5312H160.607L160.615 92.9557H160.662L160.67 88.2648L160.247 88.2637L160.238 92.9478Z" fill="#9D95F8"/>
<path d="M157.464 88.2556L157.453 92.9465L157.876 92.9475L157.887 88.2566L157.464 88.2556Z" fill="#9D95F8"/>
<path d="M153.199 88.2459L153.188 92.9368L153.611 92.9378L153.622 88.2469L153.199 88.2459Z" fill="#9D95F8"/>
<path d="M149.2 88.2366L149.188 92.9275L149.611 92.9286L149.623 88.2377L149.2 88.2366Z" fill="#9D95F8"/>
<path d="M145.631 88.2293L145.621 92.9202L146.044 92.921L146.054 88.2302L145.631 88.2293Z" fill="#9D95F8"/>
<path d="M168.302 88.2822L168.289 92.9731L168.712 92.9743L168.725 88.2834L168.302 88.2822Z" fill="#9D95F8"/>
<path d="M170.41 88.3557L170.402 92.9097C170.576 92.8339 170.723 92.7005 170.825 92.5285L170.832 88.7392C170.731 88.5661 170.582 88.4315 170.41 88.3557Z" fill="#9D95F8"/>
<path d="M182.814 100.863L185.443 101.326C185.653 101.363 185.837 101.452 185.981 101.576C186.134 101.706 186.241 101.873 186.287 102.055C186.301 102.111 186.308 102.168 186.309 102.225C186.311 102.277 186.307 102.33 186.298 102.383L179.766 138.754C179.682 139.224 179.185 139.534 178.648 139.464C178.63 139.461 178.612 139.459 178.595 139.456L175.966 138.992C175.949 138.989 175.932 138.985 175.913 138.982C175.384 138.864 175.026 138.403 175.11 137.933L181.642 101.562C181.646 101.538 181.651 101.516 181.658 101.493C181.66 101.483 181.663 101.474 181.667 101.464C181.67 101.453 181.674 101.442 181.678 101.432C181.68 101.424 181.684 101.417 181.687 101.409C181.709 101.356 181.735 101.305 181.768 101.258C181.773 101.251 181.777 101.244 181.783 101.236C181.788 101.23 181.793 101.223 181.798 101.216C181.808 101.202 181.819 101.189 181.831 101.176C181.838 101.168 181.845 101.162 181.851 101.154C181.858 101.147 181.864 101.14 181.871 101.135C181.883 101.122 181.896 101.111 181.908 101.098C181.923 101.085 181.939 101.072 181.955 101.06C181.968 101.05 181.98 101.041 181.993 101.032C181.994 101.032 181.994 101.03 181.995 101.03C182.004 101.025 182.013 101.018 182.022 101.012C182.05 100.994 182.079 100.977 182.109 100.961C182.118 100.957 182.127 100.952 182.135 100.948C182.144 100.943 182.154 100.94 182.163 100.935C182.182 100.928 182.2 100.92 182.22 100.912C182.4 100.847 182.604 100.826 182.814 100.863Z" fill="#675AF6"/>
<path d="M183.251 119.365L179.752 138.85C179.677 139.269 179.187 139.538 178.65 139.466C178.632 139.464 178.614 139.461 178.597 139.458L175.968 138.994C175.951 138.991 175.934 138.987 175.916 138.984C175.386 138.869 175.02 138.449 175.096 138.029L178.165 120.938C178.205 120.936 178.244 120.935 178.284 120.934C179.695 120.889 181.64 120.57 183.251 119.365Z" fill="#B9B3F9"/>
<path d="M180.996 105.113L180.922 105.526L185.576 106.35L185.651 105.937L180.996 105.113Z" fill="#9D95F8"/>
<path d="M180.746 106.511L180.672 106.924L185.327 107.746L185.401 107.333L180.746 106.511Z" fill="#9D95F8"/>
<path d="M180.449 108.179L180.375 108.592L185.03 109.415L185.104 109.002L180.449 108.179Z" fill="#9D95F8"/>
<path d="M179.988 110.75L179.914 111.164L184.569 111.986L184.643 111.573L179.988 110.75Z" fill="#9D95F8"/>
<path d="M179.496 113.48L179.422 113.893L184.077 114.715L184.151 114.302L179.496 113.48Z" fill="#9D95F8"/>
<path d="M178.766 117.65L178.691 118.063L183.346 118.886L183.421 118.473L178.766 117.65Z" fill="#9D95F8"/>
<path d="M178.047 121.554L177.973 121.967L182.628 122.789L182.702 122.376L178.047 121.554Z" fill="#9D95F8"/>
<path d="M177.426 125.05L177.352 125.463L182.006 126.287L182.08 125.874L177.426 125.05Z" fill="#9D95F8"/>
<path d="M181.238 103.769L181.164 104.182L185.819 105.005L185.893 104.592L181.238 103.769Z" fill="#9D95F8"/>
<path d="M181.414 102.899L181.34 103.312L185.995 104.136L186.069 103.723L181.414 102.899Z" fill="#9D95F8"/>
<path d="M181.551 102.04L181.477 102.453L186.131 103.276L186.206 102.863L181.551 102.04Z" fill="#9D95F8"/>
<path d="M181.598 101.823L186.253 102.643L186.3 102.385C186.309 102.332 186.313 102.28 186.311 102.227L181.688 101.412C181.668 101.461 181.654 101.512 181.643 101.565L181.598 101.823Z" fill="#9D95F8"/>
<path d="M181.77 101.261L186.289 102.058C186.245 101.875 186.136 101.708 185.984 101.578L182.223 100.915C182.035 100.985 181.876 101.105 181.77 101.261Z" fill="#9D95F8"/>
<path d="M271.566 139.462H255.564C254.707 138.74 256.158 137.101 257.673 136.991C258.332 136.941 259.165 137.078 260.116 137.279C260.336 134.377 261.593 121.333 266.333 121.856C271.662 122.443 266.333 127.602 264.827 130.655C263.71 132.917 262.534 136.16 261.996 137.69C262.428 137.783 262.876 137.875 263.333 137.958C264.04 135.807 266.668 128.57 270.01 128.991C273.934 129.485 272.356 132.386 269.575 134.109C267.535 135.376 265.03 137.176 263.838 138.045C264.847 138.208 265.9 138.319 266.968 138.294C269.71 138.229 271.048 139.03 271.566 139.462Z" fill="#4F44D0"/>
<path d="M62.9131 138.934C62.278 137.943 60.3649 135.373 57.8178 135.713C55.0415 136.084 60.8836 137.899 62.6714 138.941C62.2746 138.947 61.9326 138.915 61.6817 138.827C60.4857 138.404 58.4392 139.215 57.7836 139.5H69.1657C69.087 139.23 68.8818 138.788 68.3516 138.467C68.1646 138.354 67.7895 138.338 67.3038 138.374C67.9811 137.583 68.4508 135.055 66.5661 135.705C65.19 136.18 65.1934 137.725 65.3291 138.639C65.0361 138.684 64.7396 138.731 64.4455 138.773C63.8788 135.907 61.8744 127.51 57.8121 127.286C53.6939 127.058 61.3043 135.994 63.8389 138.853C63.5151 138.891 63.2027 138.921 62.9131 138.934Z" fill="#4F44D0"/>
<path d="M175.774 67.612C182.175 61.2616 182.175 50.9655 175.774 44.615C169.373 38.2646 158.995 38.2646 152.594 44.615C146.193 50.9655 146.193 61.2616 152.594 67.612C158.995 73.9624 169.373 73.9624 175.774 67.612Z" fill="#9D95F8"/>
<path d="M178.784 60.9253C181.083 52.2389 175.849 43.348 167.094 41.0668C158.338 38.7857 149.377 43.9781 147.077 52.6645C144.778 61.3509 150.012 70.2418 158.767 72.523C167.523 74.8041 176.484 69.6117 178.784 60.9253Z" fill="#8279F8"/>
<path d="M163.052 71.7788C157.782 71.7788 152.668 69.0109 149.948 64.1175C148.023 60.6517 147.572 56.6497 148.682 52.8479C149.79 49.046 152.324 45.9003 155.818 43.9898C159.311 42.0793 163.345 41.6325 167.177 42.7319C171.009 43.8314 174.18 46.346 176.106 49.8118C180.081 56.9664 177.449 65.9953 170.237 69.9396C167.957 71.1872 165.487 71.7788 163.052 71.7788ZM163.006 43.0272C160.667 43.0272 158.352 43.6131 156.248 44.7646C152.963 46.5609 150.58 49.5189 149.537 53.0944C148.495 56.6689 148.918 60.4334 150.728 63.6922C153.284 68.2926 158.096 70.8965 163.05 70.8965C165.34 70.8965 167.662 70.34 169.805 69.1681C176.587 65.4591 179.062 56.9686 175.323 50.2417C173.513 46.9828 170.531 44.6187 166.927 43.5837C165.636 43.2104 164.318 43.0272 163.006 43.0272Z" fill="#675AF6"/>
<path d="M156.345 54.3415C157.177 53.8647 158.009 53.388 158.842 52.9112C159.243 52.6815 159.642 52.4238 160.07 52.246C160.013 52.2688 159.957 52.2918 159.901 52.3146C160.225 52.1828 160.563 52.094 160.91 52.0501C160.851 52.0573 160.793 52.0645 160.735 52.0718C161.066 52.0322 161.399 52.0338 161.729 52.0764C161.672 52.0687 161.614 52.061 161.557 52.0533C161.893 52.0988 162.221 52.186 162.535 52.3134C162.482 52.2916 162.428 52.2698 162.375 52.248C162.682 52.375 162.971 52.5388 163.238 52.7371C163.191 52.702 163.144 52.6669 163.097 52.6317C163.376 52.8418 163.624 53.0864 163.837 53.361C163.8 53.3134 163.763 53.2657 163.726 53.218C163.934 53.4887 164.105 53.7836 164.238 54.0972C164.215 54.0415 164.192 53.9859 164.169 53.9302C164.301 54.251 164.391 54.5865 164.435 54.9306C164.428 54.8728 164.421 54.8151 164.413 54.7573C164.453 55.0853 164.452 55.4158 164.409 55.7435C164.417 55.6866 164.424 55.6297 164.432 55.5728C164.386 55.9064 164.298 56.2318 164.17 56.5434C164.192 56.4903 164.214 56.4372 164.236 56.3841C164.108 56.6891 163.943 56.9761 163.743 57.2404C163.778 57.194 163.814 57.1476 163.849 57.1012C163.637 57.3773 163.391 57.6234 163.114 57.8353C163.162 57.7985 163.21 57.7617 163.258 57.725C162.935 57.969 162.568 58.1581 162.217 58.3592C161.686 58.6636 161.154 58.968 160.623 59.2723C160.271 59.4741 159.919 59.6759 159.566 59.8776C159.246 60.0612 159.133 60.4796 159.318 60.7975C159.378 60.9002 159.437 61.0029 159.497 61.1057C159.6 61.2826 159.746 61.3826 159.937 61.4486C159.997 61.4695 160.058 61.4903 160.118 61.5112C160.42 61.6155 160.722 61.7198 161.024 61.824C162.085 62.1903 163.146 62.5565 164.206 62.9228C165.365 63.3229 166.524 63.723 167.683 64.1231C168.326 64.3454 168.97 64.5678 169.614 64.7901C169.629 64.795 169.643 64.8 169.657 64.8049C170.007 64.9256 170.398 64.6637 170.489 64.3288C170.535 64.157 170.51 63.9718 170.421 63.8178C170.326 63.6543 170.184 63.5645 170.009 63.5041C169.499 63.3282 168.99 63.1524 168.481 62.9766C167.362 62.5902 166.243 62.2037 165.124 61.8173C164.007 61.432 162.891 61.0466 161.775 60.6613C161.275 60.4886 160.775 60.3159 160.275 60.1433C160.412 60.2478 160.55 60.3524 160.687 60.457C160.623 60.346 160.558 60.2351 160.493 60.1241C160.411 60.4307 160.328 60.7373 160.245 61.0439C161.077 60.5672 161.91 60.0904 162.742 59.6136C163.06 59.4314 163.387 59.2589 163.696 59.0606C164.107 58.7964 164.483 58.4704 164.785 58.0874C165.115 57.6686 165.362 57.2277 165.545 56.7274C165.869 55.8454 165.882 54.8325 165.608 53.9366C165.464 53.4644 165.243 53.0074 164.95 52.6083C164.626 52.1678 164.254 51.8073 163.806 51.4919C163.039 50.9518 162.063 50.6772 161.126 50.6967C160.327 50.7134 159.558 50.9457 158.869 51.3408C157.951 51.8666 157.033 52.3924 156.115 52.9182C155.965 53.0039 155.816 53.0896 155.666 53.1753C155.346 53.3588 155.232 53.7772 155.417 54.0951C155.602 54.413 156.024 54.525 156.345 54.3415Z" fill="white"/>
<path d="M166.858 51.3822C166.401 51.6441 165.944 51.9059 165.487 52.1677C164.47 52.7499 163.454 53.332 162.438 53.9142C161.395 54.5116 160.352 55.109 159.309 55.7064C158.772 56.014 158.235 56.3216 157.698 56.6292C157.692 56.6323 157.687 56.6353 157.682 56.6384C157.361 56.8219 157.248 57.2404 157.433 57.5582C157.618 57.8761 158.04 57.9882 158.36 57.8047C158.817 57.5429 159.275 57.281 159.732 57.0192C160.748 56.437 161.764 55.8549 162.781 55.2727C163.824 54.6753 164.867 54.0779 165.91 53.4805C166.447 53.1729 166.984 52.8653 167.521 52.5577C167.526 52.5547 167.531 52.5516 167.537 52.5485C167.857 52.365 167.97 51.9466 167.785 51.6287C167.6 51.3108 167.178 51.1987 166.858 51.3822Z" fill="white"/>
<path d="M156.345 54.3411C156.802 54.0793 157.259 53.8174 157.716 53.5556C158.732 52.9734 159.749 52.3913 160.765 51.8091C161.808 51.2117 162.851 50.6143 163.894 50.0169C164.431 49.7093 164.968 49.4017 165.505 49.0941C165.51 49.0911 165.516 49.088 165.521 49.0849C165.842 48.9014 165.955 48.4829 165.77 48.1651C165.585 47.8472 165.163 47.7351 164.842 47.9186C164.385 48.1804 163.928 48.4423 163.471 48.7041C162.455 49.2863 161.438 49.8684 160.422 50.4506C159.379 51.048 158.336 51.6454 157.293 52.2428C156.756 52.5504 156.219 52.858 155.682 53.1656C155.677 53.1686 155.671 53.1717 155.666 53.1748C155.346 53.3583 155.232 53.7767 155.417 54.0946C155.602 54.4125 156.024 54.5246 156.345 54.3411Z" fill="white"/>
<path d="M180.567 68.739C180.029 68.3614 178.807 67.5316 178.744 67.7164C178.698 67.8497 178.763 68.0753 178.909 68.3108C178.171 68.0371 177.42 67.8577 175.647 68.1953C175.292 68.2628 174.97 68.4636 174.775 68.7648C174.594 69.0437 174.527 69.3938 174.979 69.6727C175.884 70.2315 175.622 69.8966 176.88 70.7095C178.138 71.5224 179.679 71.7303 180.598 71.1599L181.833 70.9556L181.986 68.9407C181.985 68.9407 181.282 68.8572 180.567 68.739Z" fill="url(#paint0_linear)"/>
<path d="M212.925 51.8367C212.925 51.8367 210.014 55.2634 206.306 53.8303C206.306 53.8303 205.508 51.9167 205.498 50.5059C205.497 50.3317 205.494 50.1638 205.491 50.0039C205.472 48.4154 205.418 47.5234 205.418 47.5234C205.418 47.5234 205.419 47.5234 205.422 47.5225C205.59 47.4524 211.089 45.2127 211.085 45.3992C210.99 49.6956 212.925 51.8367 212.925 51.8367Z" fill="url(#paint1_linear)"/>
<path opacity="0.1" d="M210.532 46.4236C210.002 47.3991 208.182 49.3066 205.491 50.0031C205.472 48.4146 205.418 47.5226 205.418 47.5226C205.418 47.5226 205.419 47.5226 205.422 47.5217C205.573 47.4817 210.69 46.1358 210.532 46.4236Z" fill="black"/>
<path d="M204.267 47.3582C204.267 47.3582 210.451 48.801 211.297 44.9657C212.143 41.1312 213.511 38.7352 209.598 37.6522C205.686 36.5692 204.593 37.8654 203.997 39.0772C203.401 40.2881 202.68 46.8838 204.267 47.3582Z" fill="url(#paint2_linear)"/>
<path d="M211.089 46.0105C211.173 46.0638 212.504 46.4698 215.023 41.4893C215.419 40.7075 215.689 39.016 214.766 37.5216C213.844 36.0273 210.575 34.8519 207.858 34.3411C205.142 33.8293 204.489 35.3459 203.85 36.8704C203.178 38.4705 201.238 39.7871 201.238 39.7871C203.581 41.0851 206.403 39.2283 207.38 39.5339C208.357 39.8395 208.702 41.3676 208.776 41.8571C208.849 42.3467 208.962 42.7544 210.19 42.3164C211.42 41.8793 210.747 44.0444 210.55 44.4584C210.55 44.4593 210.383 45.5627 211.089 46.0105Z" fill="#00134F"/>
<path d="M227.017 141.637H230.762C231.547 141.637 232.419 140.857 232.637 139.429C232.856 138.001 234.469 137.222 234.819 136.053C235.168 134.884 233.379 133.24 233.379 133.24L233.079 132.859L232.769 132.461L229.803 133.154C229.803 133.154 229.729 133.854 229.684 134.746C229.652 135.391 229.635 136.136 229.672 136.789C229.759 138.347 229.232 140.025 227.837 140.328C226.439 140.632 227.017 141.637 227.017 141.637Z" fill="#132056"/>
<path d="M200.949 141.637H210.875C210.97 141.619 211.042 141.598 211.085 141.577C211.748 141.247 211.54 138.731 211.46 137.953C211.445 137.809 211.434 137.725 211.434 137.725C211.434 137.725 207.944 134.956 207.464 137.076C207.449 137.142 207.431 137.208 207.413 137.272V137.273C206.807 139.257 204.099 140.158 202.534 140.41C201.339 140.602 201.029 141.293 200.949 141.637Z" fill="#132056"/>
<path d="M202.949 84.8502C202.949 84.8502 203.479 91.4112 204.103 99.2986C204.95 110.012 205.968 123.172 206.068 125.666C206.243 129.995 206.941 136.92 206.941 136.92C206.941 136.92 208.598 138.565 211.915 137.871C211.915 137.871 214.87 127.986 215.714 117.526C215.728 117.355 215.74 117.183 215.754 117.009C216.539 106.362 217.761 83.9404 217.761 83.9404L202.949 84.8502Z" fill="#4F44D0"/>
<path opacity="0.2" d="M202.949 84.8498C202.949 84.8498 203.479 91.4108 204.103 99.2982L215.714 117.527C215.728 117.355 215.74 117.183 215.754 117.01C216.539 106.362 217.761 83.9409 217.761 83.9409L202.949 84.8498Z" fill="#0A1D32"/>
<path d="M205.371 85.6291C205.371 85.6291 214.925 109.392 221.208 120.558C227.491 131.725 229.453 134.842 229.453 134.842C229.453 134.842 233.052 133.413 233.38 132.439C233.38 132.439 230.978 110.881 226.771 105.626C224.393 102.656 221.601 93.7448 221.47 90.6283C221.339 87.5117 220.619 81.3442 220.619 81.3442L205.371 85.6291Z" fill="#8279F8"/>
<path d="M227.161 81.3113L227.262 82.8393C227.262 82.8393 226.247 85.5544 229.092 86.9465C229.092 86.9465 230.311 87.4343 230.36 86.4934C230.41 85.5526 230.254 85.9062 230.353 84.5816C230.453 83.256 229.927 82.0042 229.043 81.5822L228.318 80.7524L227.161 81.3113Z" fill="#F8E4E5"/>
<path d="M228.273 82.4244C227.215 82.7612 227.046 82.6847 227.046 82.6847C227.046 82.6847 221.899 73.3874 221.378 72.5363C220.857 71.6852 210.449 62.1107 210.449 62.1107L213.124 52.2163C213.124 52.2163 224.961 67.4234 226.239 69.6054C228.352 73.2115 229.589 81.5858 229.589 81.5858C229.589 81.5858 229.103 82.1597 228.273 82.4244Z" fill="#FFBD00"/>
<path d="M200.934 65.9952C200.971 68.027 201.09 70.3112 201.251 72.6317C201.261 72.7694 201.271 72.9071 201.281 73.0448C201.384 74.4823 201.495 75.9224 201.623 77.327C201.674 77.8903 201.729 78.4473 201.786 78.9937L201.795 79.0675C201.799 79.2718 201.825 79.4939 201.847 79.6965C202.369 84.9586 202.915 89.1155 203.017 89.1795C203.138 89.2594 203.275 89.2994 203.425 89.2825C204.815 89.1093 208.965 89.422 212.363 88.6891C215.229 88.0894 217.698 86.9513 220.314 85.4179C220.661 85.2145 221.453 84.6752 221.388 84.2718C221.325 83.8285 221.208 83.1888 221.06 82.3839C220.545 79.5854 219.655 74.771 219.351 69.1367C219.292 68.0874 219.206 67.0506 219.094 66.0316C218.802 63.377 218.336 60.8557 217.709 58.616C216.544 54.4546 214.832 51.2678 212.685 50.0214C212.405 49.865 210.895 50.8183 209.508 51.7014C208.227 52.516 206.879 52.7408 205.568 52.6271L204.413 53.8931C203.016 55.5047 201.528 57.6502 201.122 60.7002C201.091 60.9259 201.065 61.1648 201.043 61.4189C200.93 62.6609 200.902 64.2335 200.934 65.9952Z" fill="#FFF5D9"/>
<path opacity="0.1" d="M200.934 65.9959C200.971 68.0277 201.09 70.3119 201.251 72.6324C201.261 72.7701 201.271 72.9078 201.281 73.0456C209.226 68.1121 210.449 59.084 210.449 59.084C206.54 59.2537 203.436 60.1456 201.043 61.4205C200.93 62.6617 200.902 64.2342 200.934 65.9959Z" fill="#0A1D32"/>
<path d="M180.859 69.8822C180.778 68.713 181.387 68.5185 181.387 68.5185C181.387 68.5185 193.365 66.3649 194.384 66.0469C195.402 65.7288 204.109 56.7433 204.109 56.7433C204.109 56.7433 207.446 53.0093 210.179 53.8337C212.554 54.5507 213.482 56.3879 213.798 58.139C214.175 60.225 213.205 62.3244 211.383 63.4331C207.296 65.9207 199.112 70.8213 197.185 71.3818C192.895 72.6292 181.369 71.4822 181.369 71.4822C181.369 71.4822 180.924 70.7999 180.859 69.8822Z" fill="#FFBD00"/>
<path opacity="0.1" d="M197.564 77.8772V134.118C197.564 137.398 194.858 140.084 191.552 140.084H133.282C132.777 140.084 132.284 140.022 131.814 139.906C130.805 139.659 129.891 139.162 129.145 138.486C128.611 138.003 128.164 137.428 127.828 136.789C127.809 136.755 127.792 136.721 127.775 136.685C127.426 135.989 127.207 135.219 127.152 134.407C127.141 134.267 127.137 134.128 127.137 133.987V78.238C127.137 75.0832 128.78 72.166 131.46 70.4681C131.46 70.4681 131.462 70.467 131.467 70.4647C133.699 69.0474 135.179 66.5634 135.179 63.7389C135.179 62.9007 135.049 62.0942 134.808 61.3352H189.893C189.651 62.0942 189.521 62.9007 189.521 63.7389C189.521 66.448 190.881 68.8415 192.961 70.2838C192.962 70.2838 192.962 70.2849 192.963 70.2849C193.102 70.381 193.244 70.4727 193.388 70.5598C193.39 70.5609 193.39 70.5609 193.39 70.5609C195.97 72.1174 197.564 74.8796 197.564 77.8772Z" fill="#4F44D0"/>
<path opacity="0.05" d="M197.561 77.8773V134.118C197.561 137.257 195.084 139.851 191.973 140.068C191.833 140.078 191.692 140.083 191.549 140.083H165.891C162.511 140.083 159.746 137.339 159.746 133.986V78.2382C159.746 75.0834 161.389 72.1662 164.07 70.4683C166.307 69.0521 167.79 66.5669 167.79 63.7379C167.79 62.8997 167.66 62.0932 167.418 61.3342H189.889C189.648 62.0932 189.518 62.8997 189.518 63.7379C189.518 65.9584 190.431 67.9662 191.906 69.4118C192.352 69.8496 192.848 70.2353 193.386 70.5588C195.967 72.1175 197.561 74.8798 197.561 77.8773Z" fill="#4F44D0"/>
<path opacity="0.2" d="M192.959 70.2826C191.16 69.2137 183.364 65.4255 163.543 65.5861C140.838 65.7705 131.743 70.3234 131.465 70.4648C133.697 69.0474 135.177 66.5634 135.177 63.7389C135.177 62.9007 135.047 62.0942 134.805 61.3352H189.891C189.649 62.0942 189.519 62.9007 189.519 63.7389C189.519 66.4458 190.879 68.8404 192.959 70.2826Z" fill="#5A79B1"/>
<path d="M191.139 60.9404V63.4911C191.139 63.7434 190.933 63.9481 190.68 63.9481H134.019C133.765 63.9481 133.559 63.7434 133.559 63.4911V60.9404C133.559 60.6893 133.765 60.4834 134.019 60.4834H190.68C190.933 60.4834 191.139 60.6893 191.139 60.9404Z" fill="#675AF6"/>
<path opacity="0.3" d="M191.141 60.9404V63.4911C191.141 63.7434 190.935 63.9481 190.681 63.9481H169.234C168.981 63.9481 168.773 63.7434 168.773 63.4911V60.9404C168.773 60.6893 168.981 60.4834 169.234 60.4834H190.681C190.935 60.4834 191.141 60.6893 191.141 60.9404Z" fill="#4F44D0"/>
<path opacity="0.3" d="M145.941 138.227C145.706 138.35 145.47 138.465 145.232 138.577C145.006 138.707 144.776 138.835 144.541 138.956C143.459 139.521 142.344 139.97 141.21 140.309C140.791 139.93 140.44 139.479 140.175 138.977C139.995 139.073 139.815 139.164 139.633 139.254V105.925C140.467 106.035 141.292 106.2 142.101 106.417C146.639 107.634 150.68 110.498 153.139 114.712C158.022 123.084 154.799 133.612 145.941 138.227Z" fill="#9D95F8"/>
<path d="M149.009 113.4C144.126 104.612 132.987 101.415 124.129 106.26C115.271 111.104 112.049 122.155 116.931 130.944C121.814 139.732 132.953 142.928 141.811 138.085C150.67 133.239 153.892 122.188 149.009 113.4Z" fill="#9D95F8"/>
<path d="M141.101 138.453C140.876 138.59 140.647 138.721 140.413 138.849C140.334 138.893 140.255 138.935 140.175 138.976C139.995 139.072 139.815 139.164 139.633 139.253C130.912 143.503 120.273 140.241 115.533 131.709C111.01 123.57 113.441 113.49 120.862 108.197C121.454 107.775 122.076 107.383 122.73 107.025C122.965 106.896 123.202 106.773 123.44 106.657C123.671 106.542 123.904 106.434 124.137 106.331C124.854 106.014 125.583 105.746 126.319 105.528C127.412 105.201 128.523 104.981 129.635 104.864C133.085 104.502 136.556 105.127 139.633 106.621C142.899 108.205 145.722 110.767 147.611 114.165C152.365 122.722 149.436 133.423 141.101 138.453Z" fill="#8279F8"/>
<path d="M131.698 139.687C130.141 139.687 128.574 139.468 127.037 139.027C122.756 137.799 119.212 134.989 117.061 131.117C114.909 127.244 114.407 122.772 115.645 118.524C116.884 114.277 119.715 110.761 123.619 108.627C127.522 106.492 132.029 105.994 136.311 107.223C140.593 108.451 144.136 111.261 146.288 115.133C148.44 119.006 148.942 123.477 147.704 127.726C146.465 131.973 143.634 135.489 139.73 137.623C137.228 138.991 134.478 139.687 131.698 139.687ZM117.933 130.64C119.956 134.281 123.288 136.923 127.315 138.079C131.341 139.234 135.579 138.765 139.25 136.757C142.92 134.75 145.582 131.445 146.747 127.45C147.913 123.456 147.44 119.251 145.416 115.609C143.392 111.968 140.061 109.326 136.035 108.171C132.009 107.016 127.77 107.484 124.1 109.492C120.429 111.499 117.767 114.805 116.602 118.799C115.437 122.793 115.91 126.998 117.933 130.64Z" fill="#675AF6"/>
<path d="M122.996 119.701C123.936 119.163 124.876 118.625 125.816 118.087C126.268 117.827 126.719 117.536 127.202 117.336C127.139 117.361 127.075 117.387 127.012 117.413C127.377 117.264 127.759 117.164 128.15 117.114C128.085 117.123 128.019 117.131 127.953 117.139C128.326 117.094 128.702 117.096 129.075 117.144C129.011 117.135 128.946 117.127 128.881 117.118C129.261 117.169 129.631 117.268 129.986 117.412C129.925 117.387 129.865 117.362 129.804 117.338C130.151 117.481 130.478 117.666 130.779 117.89C130.726 117.85 130.673 117.811 130.62 117.771C130.935 118.008 131.215 118.284 131.456 118.594C131.414 118.541 131.372 118.487 131.33 118.433C131.565 118.739 131.758 119.072 131.908 119.426C131.882 119.363 131.856 119.3 131.83 119.237C131.98 119.599 132.081 119.978 132.131 120.367C132.123 120.301 132.114 120.236 132.106 120.171C132.151 120.541 132.149 120.914 132.101 121.284C132.11 121.22 132.118 121.156 132.127 121.092C132.075 121.468 131.976 121.836 131.831 122.187C131.856 122.128 131.881 122.068 131.906 122.008C131.761 122.352 131.575 122.676 131.349 122.974C131.389 122.922 131.429 122.87 131.469 122.817C131.23 123.129 130.951 123.407 130.639 123.646C130.693 123.605 130.748 123.563 130.802 123.521C130.437 123.797 130.023 124.011 129.627 124.238C129.027 124.581 128.427 124.925 127.827 125.269C127.429 125.496 127.031 125.724 126.634 125.952C126.272 126.159 126.144 126.632 126.353 126.99C126.421 127.106 126.488 127.222 126.556 127.338C126.672 127.538 126.836 127.651 127.052 127.726C127.12 127.749 127.188 127.773 127.257 127.796C127.598 127.914 127.939 128.032 128.28 128.15C129.477 128.563 130.675 128.977 131.872 129.39C133.181 129.842 134.489 130.293 135.797 130.745C136.524 130.996 137.251 131.247 137.978 131.498C137.994 131.504 138.01 131.509 138.027 131.515C138.421 131.651 138.863 131.356 138.965 130.977C139.017 130.784 138.99 130.574 138.889 130.401C138.781 130.216 138.621 130.115 138.423 130.046C137.848 129.848 137.273 129.649 136.698 129.451C135.435 129.014 134.171 128.578 132.908 128.142C131.648 127.707 130.388 127.272 129.128 126.837C128.563 126.642 127.998 126.447 127.434 126.252C127.589 126.37 127.744 126.488 127.899 126.606C127.826 126.481 127.753 126.356 127.68 126.23C127.587 126.576 127.493 126.923 127.4 127.269C128.34 126.73 129.279 126.192 130.219 125.654C130.578 125.448 130.948 125.253 131.296 125.029C131.76 124.731 132.184 124.363 132.525 123.931C132.898 123.458 133.177 122.96 133.384 122.395C133.749 121.399 133.764 120.256 133.455 119.244C133.292 118.711 133.043 118.195 132.712 117.745C132.346 117.247 131.927 116.84 131.421 116.484C130.555 115.874 129.453 115.564 128.395 115.586C127.493 115.605 126.625 115.867 125.846 116.314C124.81 116.907 123.773 117.501 122.737 118.095C122.568 118.191 122.399 118.288 122.23 118.385C121.868 118.592 121.741 119.064 121.95 119.423C122.158 119.782 122.635 119.909 122.996 119.701Z" fill="white"/>
<path d="M134.86 116.359C134.344 116.655 133.828 116.951 133.312 117.246C132.164 117.904 131.017 118.561 129.869 119.218C128.692 119.893 127.514 120.567 126.337 121.242C125.73 121.589 125.124 121.936 124.518 122.284C124.512 122.287 124.506 122.29 124.5 122.294C124.138 122.501 124.01 122.974 124.219 123.332C124.428 123.691 124.904 123.818 125.266 123.611C125.782 123.315 126.298 123.019 126.814 122.724C127.962 122.067 129.109 121.409 130.257 120.752C131.434 120.078 132.612 119.403 133.789 118.729C134.396 118.381 135.002 118.034 135.608 117.687C135.614 117.683 135.62 117.68 135.626 117.676C135.988 117.469 136.116 116.997 135.907 116.638C135.698 116.279 135.222 116.152 134.86 116.359Z" fill="white"/>
<path d="M122.992 119.701C123.509 119.405 124.025 119.11 124.541 118.814C125.688 118.157 126.836 117.5 127.983 116.842C129.161 116.168 130.338 115.493 131.516 114.819C132.122 114.472 132.728 114.124 133.335 113.777C133.341 113.774 133.347 113.77 133.353 113.767C133.715 113.559 133.842 113.087 133.633 112.728C133.425 112.369 132.948 112.243 132.587 112.45C132.071 112.745 131.554 113.041 131.038 113.337C129.891 113.994 128.743 114.651 127.596 115.309C126.418 115.983 125.241 116.657 124.063 117.332C123.457 117.679 122.851 118.027 122.244 118.374C122.238 118.377 122.232 118.381 122.226 118.384C121.864 118.591 121.737 119.064 121.946 119.423C122.155 119.782 122.631 119.908 122.992 119.701Z" fill="white"/>
<path d="M117.965 58.9686C118.021 58.7456 113.087 61.1808 112.837 61.4562C110.523 64.0024 111.183 67.326 112.506 67.358C113.355 67.3785 113.191 68.7795 113.191 68.7795L122.651 64.8091C122.651 64.8091 121.512 58.2188 117.965 58.9686Z" fill="#132056"/>
<path d="M119.13 59.4835C119.13 59.4835 119.469 55.8276 115.351 55.8276C115.351 55.8276 116.598 56.1635 117.244 56.8351C117.244 56.8351 114.617 55.3052 111.76 57.656C108.901 60.0068 110.678 65.9015 109.808 67.0209C108.94 68.1403 105.555 68.3642 105.968 71.9827C106.382 75.6013 116.71 80.134 116.046 83.1289C116.046 83.1289 120.094 77.2262 117.2 74.5325C117.2 74.5325 118.61 75.8509 118.754 77.4181C118.754 77.4181 119.138 74.3584 117.175 73.3802C115.438 72.514 114.015 69.3477 114.167 68.7817C114.317 68.214 119.13 59.4835 119.13 59.4835Z" fill="#132056"/>
<path d="M115.393 76.6842C114.758 73.6511 110.794 72.7102 108.918 75.1872C108.58 75.6323 108.343 76.1591 108.266 76.781C107.838 80.2245 113.387 94.2492 114.181 95.5187C115.628 97.8304 124.147 105.756 124.147 105.756L125.717 104.812C125.717 104.812 119.674 94.6623 118.738 93.7126C117.657 92.6145 116.598 82.4438 115.393 76.6842Z" fill="#F8E4E5"/>
<path d="M123.551 104.816C123.551 104.816 125.842 103.324 126.71 103.419C127.578 103.515 130.089 104.232 130.119 104.598C130.15 104.964 127.322 105.193 127.132 105.394C126.942 105.593 125.021 106.866 124.325 106.467C123.629 106.068 123.551 104.816 123.551 104.816Z" fill="#F8E4E5"/>
<path d="M107.566 138.541L105.519 138.242C105.519 138.242 98.6356 132.816 97.6112 122.689C97.5064 121.658 97.4849 120.613 97.5619 119.558C97.5709 119.436 97.5574 119.315 97.4903 119.212C97.4903 119.212 97.4894 119.211 97.4876 119.21C97.2673 118.875 96.7193 118.035 95.9769 116.841C95.2453 115.665 93.9925 113.441 92.6152 110.947C90.133 106.453 87.2441 101.079 86.2528 99.3677C83.0944 93.9128 84.6168 90.2445 84.6168 90.2445C84.6168 90.2445 93.4266 89.3801 95.8408 87.2852L96.7103 88.6151C96.7103 88.6151 98.6195 96.9992 98.529 97.0383C98.6231 97.3234 98.7189 97.614 98.8156 97.9089C100.322 102.522 102.055 108.287 102.999 112.983C103.53 115.625 103.812 117.927 103.66 119.495C103.608 120.033 103.672 120.86 103.816 121.88C104.669 127.897 107.566 138.541 107.566 138.541Z" fill="#DCDEE6"/>
<path d="M111.858 141.11H103.316C103.316 141.11 103.111 139.818 103.558 138.839C103.985 137.899 104.595 137.869 103.636 136.395C104.179 136.949 105.923 137.179 107.158 137.014C107.309 137.258 108.133 138.891 108.639 139.25C109.196 139.648 111.686 139.506 111.858 141.11Z" fill="#5A6389"/>
<path opacity="0.2" d="M98.8156 97.908C98.0697 101.99 96.3073 108.784 92.6152 110.947C90.1329 106.453 87.2441 101.079 86.2528 99.3677C83.0944 93.9128 84.6168 90.2445 84.6168 90.2445C84.6168 90.2445 93.4265 89.3801 95.8408 87.2852L96.7103 88.6151C96.7103 88.6151 98.6195 96.9992 98.529 97.0383C98.6231 97.3217 98.7189 97.6122 98.8156 97.908Z" fill="#5A6389"/>
<path d="M114.479 74.8022C114.479 74.8022 115.687 76.0478 116.237 77.5404C116.237 77.5404 114.311 83.029 109.809 83.7167C109.809 83.7167 113.372 74.8005 114.479 74.8022Z" fill="#4F44D0"/>
<path d="M92.8257 90.8737L92.8544 89.2888C89.6718 89.6868 81.8802 85.5156 81.8802 85.5156C81.8802 85.5156 78.5508 87.7127 78.095 93.9876C77.8729 97.05 76.4652 110.002 76.3094 113.87C76.253 115.272 76.2342 116.272 76.227 116.672C76.2279 116.674 76.2279 116.674 76.227 116.675C76.2252 116.797 76.167 116.904 76.0918 117.001C75.4336 117.832 74.8623 118.712 74.3671 119.624C69.5108 128.588 72.0504 140.769 72.0504 140.769L73.1779 140.485C73.1779 140.485 77.2846 127.858 79.9683 122.396C80.4241 121.469 80.8378 120.749 81.1835 120.332C82.1927 119.116 83.2566 117.051 84.3052 114.566C86.2878 109.867 88.2122 103.668 89.585 98.8668C89.6844 98.8837 92.8257 90.8737 92.8257 90.8737Z" fill="#DCDEE6"/>
<path d="M111.451 80.2966C106.248 79.1123 109.572 71.8584 109.873 71.9863C110.594 71.8406 112.177 70.5844 113.594 68.1323L113.785 68.2967L116.98 71.0766C116.98 71.0766 116.242 72.1578 115.62 73.2168C115.135 74.0457 114.722 74.863 114.787 75.1429C115.045 75.3436 112.839 80.6129 111.451 80.2966Z" fill="url(#paint3_linear)"/>
<path opacity="0.1" d="M116.978 71.0768C116.978 71.0768 116.239 72.1563 115.618 73.2171C113.63 72.0017 113.629 69.5621 113.782 68.2979L116.978 71.0768Z" fill="black"/>
<path d="M117.07 72.4694C117.07 72.4694 112.246 69.8059 113.963 66.8511C115.681 63.8962 116.216 61.5623 119.369 63.1374C122.522 64.7126 122.459 66.1803 122.128 67.3041C121.795 68.4298 118.368 73.086 117.07 72.4694Z" fill="url(#paint4_linear)"/>
<path d="M122.942 65.5819C122.721 64.2697 122.049 64.1444 121.581 64.2323C119.799 61.3094 116.888 62.4502 116.888 62.4502C115.334 64.386 113.086 64.7157 113.086 64.7157C113.086 64.7157 113.646 65.7489 115.952 66.3886C116.657 66.584 117.457 66.4658 118.228 66.2082C116.628 67.0931 114.954 67.4324 114.954 67.4324C117.993 67.7087 120.886 64.952 121.186 64.657C121.326 65.0843 121.572 65.979 121.425 66.6329C121.225 67.5213 120.43 69.1311 120.915 69.339C120.915 69.339 123.273 67.5497 122.942 65.5819Z" fill="#132056"/>
<path d="M78.842 141.11H70.3009C70.3009 141.11 70.0958 139.818 70.5427 138.839C70.9698 137.899 71.6396 137.472 71.4793 136.334C72.022 136.888 72.9067 137.509 74.1416 137.344C74.293 137.588 75.1186 138.89 75.6237 139.25C76.1806 139.648 78.6701 139.507 78.842 141.11Z" fill="#5A6389"/>
<path d="M112.061 86.0473C110.963 86.4276 109.42 86.6364 107.842 86.806C105.596 87.0495 103.277 87.2156 102.062 87.6962C101.619 87.8713 101.323 88.088 101.23 88.3643C100.704 89.9351 98.3836 92.3587 98.3836 92.3587C83.5114 91.687 81.8789 85.5152 81.8789 85.5152C91.8851 73.9719 108.827 70.6305 108.827 70.6305C108.827 70.6305 110.037 70.1215 113.084 72.5246C115.118 74.1291 114.85 74.7448 114.85 74.7448C114.85 74.7448 115.296 84.9279 112.061 86.0473Z" fill="#9D95F8"/>
<path d="M107.843 86.8057C105.597 87.0492 103.279 87.2153 102.064 87.6959C101.568 80.3371 105.068 74.8022 105.068 74.8022C105.068 74.8022 107.352 84.0214 107.843 86.8057Z" fill="#4F44D0"/>
<path d="M110.151 73.3779C110.151 73.3779 104.522 73.9296 104.072 77.558C103.62 81.1863 109.468 95.9652 110.305 97.304C111.83 99.7401 120.807 108.091 120.807 108.091L122.462 107.096C122.462 107.096 116.094 96.4014 115.109 95.4002C113.56 93.8294 112.058 74.635 110.151 73.3779Z" fill="#F8E4E5"/>
<path d="M104.236 79.7422C104.25 79.8248 109.431 81.4213 112.764 79.7422C112.764 79.7422 113.477 72.1115 109.497 72.5255C105.517 72.9395 103.161 74.1833 103.06 76.0739C102.961 77.9636 104.236 79.7422 104.236 79.7422Z" fill="#B9B3F9"/>
<path d="M120.297 107.031C120.297 107.031 122.316 105.191 123.188 105.147C124.06 105.104 126.654 105.409 126.744 105.766C126.833 106.122 124.079 106.8 123.925 107.028C123.77 107.256 122.081 108.818 121.329 108.536C120.577 108.254 120.297 107.031 120.297 107.031Z" fill="#F8E4E5"/>
</g>
<defs>
<linearGradient id="paint0_linear" x1="175.411" y1="68.1969" x2="175.67" y2="71.722" gradientUnits="userSpaceOnUse">
<stop stop-color="#FFC794"/>
<stop offset="1" stop-color="#DEC6B9"/>
</linearGradient>
<linearGradient id="paint1_linear" x1="206.209" y1="46.5634" x2="207.538" y2="54.5587" gradientUnits="userSpaceOnUse">
<stop stop-color="#FFC794"/>
<stop offset="1" stop-color="#DEC6B9"/>
</linearGradient>
<linearGradient id="paint2_linear" x1="204.246" y1="38.6337" x2="205.803" y2="48.0743" gradientUnits="userSpaceOnUse">
<stop stop-color="#FFC794"/>
<stop offset="1" stop-color="#DEC6B9"/>
</linearGradient>
<linearGradient id="paint3_linear" x1="109.439" y1="69.7601" x2="111.679" y2="80.6807" gradientUnits="userSpaceOnUse">
<stop stop-color="#FFC794"/>
<stop offset="1" stop-color="#DEC6B9"/>
</linearGradient>
<linearGradient id="paint4_linear" x1="114.509" y1="63.953" x2="115.966" y2="72.9639" gradientUnits="userSpaceOnUse">
<stop stop-color="#FFC794"/>
<stop offset="1" stop-color="#DEC6B9"/>
</linearGradient>
</defs>
</svg>
