<svg width="139" height="120" viewBox="0 0 139 120" fill="none" xmlns="http://www.w3.org/2000/svg">
<path d="M35.6777 65.9238V91.0672C35.6777 92.6551 36.2876 94.178 37.3732 95.3008C38.4587 96.4236 39.9311 97.0544 41.4663 97.0544H116.707C118.242 97.0544 119.715 96.4236 120.8 95.3008C121.886 94.178 122.496 92.6551 122.496 91.0672V65.9238H35.6777Z" fill="#132056"/>
<path d="M35.3828 65.8489H122.204V69.4408H35.3828V65.8489Z" fill="#4F44D0"/>
<path d="M35.3828 49.086H122.206V45.4884C122.206 43.9005 121.596 42.3776 120.511 41.2548C119.425 40.132 117.953 39.5012 116.418 39.5012H41.1769C39.6417 39.5012 38.1693 40.132 37.0837 41.2548C35.9982 42.3776 35.3883 43.9005 35.3883 45.4884L35.3828 49.086Z" fill="#915E3A"/>
<path d="M116.418 39.5078H41.1773C39.642 39.5078 38.1697 40.1386 37.0841 41.2614C35.9985 42.3842 35.3887 43.9071 35.3887 45.495V49.0926C35.3887 47.5047 35.9985 45.9818 37.0841 44.859C38.1697 43.7362 39.642 43.1054 41.1773 43.1054H116.418C117.178 43.1054 117.931 43.2603 118.633 43.5612C119.335 43.862 119.974 44.303 120.511 44.859C121.049 45.415 121.475 46.075 121.766 46.8014C122.057 47.5278 122.207 48.3063 122.207 49.0926V45.495C122.207 44.7087 122.057 43.9302 121.766 43.2038C121.475 42.4774 121.049 41.8174 120.511 41.2614C119.974 40.7055 119.335 40.2644 118.633 39.9636C117.931 39.6627 117.178 39.5078 116.418 39.5078Z" fill="#BF8256"/>
<path d="M35.3828 49.086H122.206V45.4884C122.206 43.9005 121.596 42.3776 120.511 41.2548C119.425 40.132 117.953 39.5012 116.418 39.5012H41.1769C39.6417 39.5012 38.1693 40.132 37.0837 41.2548C35.9982 42.3776 35.3883 43.9005 35.3883 45.4884L35.3828 49.086Z" fill="#4F44D0"/>
<path d="M43.0896 39.8458L85.3415 54.4785L104.617 48.8776L98.354 25.8227C98.272 25.52 98.1331 25.2369 97.9452 24.9897C97.7574 24.7425 97.5242 24.5361 97.2591 24.3822C96.994 24.2283 96.7022 24.13 96.4003 24.0929C96.0985 24.0558 95.7925 24.0806 95.4999 24.1659L42.2969 39.6299C42.5655 39.6834 42.8303 39.7555 43.0896 39.8458Z" fill="#33CF90"/>
<path d="M112.946 57.4669L62.7962 72.0466L56.5316 48.9917C56.3655 48.3798 56.4411 47.7247 56.7418 47.1704C57.0425 46.6161 57.5438 46.2081 58.1353 46.036L103.827 32.757C104.12 32.672 104.426 32.6473 104.727 32.6846C105.029 32.7218 105.321 32.8201 105.586 32.974C105.851 33.1278 106.084 33.3342 106.272 33.5812C106.46 33.8283 106.599 34.1112 106.681 34.4138L112.946 57.4669Z" fill="#71DEB2"/>
<ellipse cx="87.2443" cy="54.1666" rx="8.06652" ry="8.33332" fill="#E0F8EE"/>
<path d="M35.6777 49.1616H122.499V58.7407H35.6777V49.1616Z" fill="#132056"/>
<path d="M35.6777 58.739H122.499V65.9228H35.6777V58.739Z" fill="#4F44D0"/>
<path d="M35.3828 45.4947C35.3834 44.5383 35.6054 43.596 36.0303 42.7465C36.4552 41.8971 37.0706 41.1653 37.8251 40.6122C38.5795 40.0592 39.451 39.7011 40.3666 39.5679C41.2823 39.4347 42.2155 39.5302 43.0881 39.8465L95.1727 57.8856C96.3014 58.276 97.283 59.0235 97.9785 60.0225C98.674 61.0215 99.0482 62.2214 99.0482 63.4524V108.953C99.0482 109.911 98.8277 110.856 98.4051 111.71C97.9825 112.563 97.3698 113.3 96.6175 113.86C95.8652 114.421 94.995 114.788 94.0785 114.932C93.1621 115.076 92.2256 114.992 91.3465 114.688L39.3352 96.6734C38.1842 96.274 37.1836 95.5108 36.4744 94.4916C35.7652 93.4725 35.3834 92.2486 35.3828 90.993V45.4947Z" fill="#4F44D0"/>
<path d="M95.1797 57.8859L43.0897 39.8468C42.2168 39.5294 41.283 39.433 40.3666 39.5656C39.4502 39.6983 38.5779 40.0562 37.8227 40.6094C37.0676 41.1625 36.4516 41.8948 36.0264 42.7448C35.6012 43.5949 35.3792 44.5379 35.3789 45.495V52.6201C35.3797 51.6632 35.6021 50.7204 36.0274 49.8706C36.4527 49.0207 37.0686 48.2886 37.8235 47.7354C38.5785 47.1822 39.4505 46.8241 40.3667 46.6909C41.2829 46.5578 42.2166 46.6535 43.0897 46.97L95.1742 65.011C96.303 65.4014 97.2846 66.1489 97.98 67.1479C98.6755 68.1469 99.0497 69.3468 99.0498 70.5778V63.4527C99.0501 62.2224 98.6767 61.023 97.9823 60.0241C97.2878 59.0252 96.3075 58.2772 95.1797 57.8859Z" fill="#9D95F8"/>
<path d="M41.1719 51.3982L42.9074 52.0007" stroke="#132056" stroke-width="2" stroke-linecap="round" stroke-linejoin="round"/>
<path d="M46.1504 53.1208L89.9017 68.2781" stroke="#132056" stroke-width="2" stroke-linecap="round" stroke-linejoin="round"/>
<path d="M91.5215 68.8379L93.257 69.4404" stroke="#132056" stroke-width="2" stroke-linecap="round" stroke-linejoin="round"/>
<path d="M68.4531 98.4412L70.1904 99.0418" stroke="#132056" stroke-width="2" stroke-linecap="round" stroke-linejoin="round"/>
<path d="M73.2363 100.097L89.998 105.901" stroke="#132056" stroke-width="2" stroke-linecap="round" stroke-linejoin="round"/>
<path d="M91.5215 106.428L93.257 107.031" stroke="#132056" stroke-width="2" stroke-linecap="round" stroke-linejoin="round"/>
<path d="M20.3356 111.347C19.4484 111.295 18.6138 110.894 18.0034 110.226C17.3929 109.558 17.0527 108.674 17.0527 107.755C17.0527 106.835 17.3929 105.951 18.0034 105.283C18.6138 104.615 19.4484 104.214 20.3356 104.163H35.3838C35.8563 104.135 36.3292 104.208 36.7737 104.376C37.2181 104.544 37.6247 104.804 37.9686 105.14C38.3125 105.476 38.5864 105.882 38.7737 106.331C38.9609 106.781 39.0575 107.265 39.0575 107.755C39.0575 108.244 38.9609 108.728 38.7737 109.178C38.5864 109.627 38.3125 110.033 37.9686 110.369C37.6247 110.705 37.2181 110.965 36.7737 111.133C36.3292 111.302 35.8563 111.374 35.3838 111.347H20.3356Z" fill="#FE794D"/>
<path d="M20.4253 107.764H35.4734C36.0805 107.765 36.6766 107.932 37.2018 108.247C37.7269 108.562 38.1625 109.015 38.4648 109.559C38.7776 109.016 38.9444 108.396 38.9481 107.764C38.9481 107.292 38.8581 106.824 38.6833 106.387C38.5085 105.951 38.2523 105.554 37.9293 105.22C37.6063 104.886 37.2229 104.621 36.8009 104.44C36.3789 104.26 35.9266 104.167 35.4698 104.167H20.4216C19.9649 104.167 19.5126 104.26 19.0906 104.44C18.6686 104.621 18.2851 104.886 17.9621 105.22C17.6391 105.554 17.3829 105.951 17.2081 106.387C17.0333 106.824 16.9434 107.292 16.9434 107.764C16.9463 108.396 17.1126 109.016 17.4248 109.559C17.7282 109.013 18.1653 108.56 18.6921 108.245C19.2189 107.93 19.8167 107.764 20.4253 107.764Z" fill="#FFBD00"/>
<path d="M42.613 111.759C41.7257 111.707 40.8912 111.306 40.2807 110.638C39.6702 109.97 39.3301 109.086 39.3301 108.167C39.3301 107.248 39.6702 106.363 40.2807 105.695C40.8912 105.028 41.7257 104.627 42.613 104.575H57.6611C58.5484 104.627 59.3829 105.028 59.9934 105.695C60.6039 106.363 60.944 107.248 60.944 108.167C60.944 109.086 60.6039 109.97 59.9934 110.638C59.3829 111.306 58.5484 111.707 57.6611 111.759H42.613Z" fill="#FE794D"/>
<path d="M42.8529 107.764H57.9011C58.5081 107.766 59.104 107.932 59.6291 108.247C60.1542 108.562 60.5898 109.015 60.8924 109.559C61.2047 109.016 61.3709 108.396 61.3739 107.764C61.3739 107.292 61.2839 106.824 61.1091 106.387C60.9343 105.951 60.6781 105.554 60.3551 105.22C60.0321 104.886 59.6487 104.621 59.2267 104.44C58.8046 104.26 58.3523 104.167 57.8956 104.167H42.8474C42.3906 104.167 41.9383 104.26 41.5163 104.44C41.0943 104.621 40.7109 104.886 40.3879 105.22C40.0649 105.554 39.8087 105.951 39.6339 106.387C39.4591 106.824 39.3691 107.292 39.3691 107.764C39.3721 108.396 39.5383 109.016 39.8506 109.559C40.1538 109.013 40.5911 108.559 41.1184 108.244C41.6456 107.929 42.244 107.763 42.8529 107.764Z" fill="#FFBD00"/>
<path d="M18.0192 104.163C17.132 104.111 16.2974 103.71 15.687 103.042C15.0765 102.374 14.7363 101.49 14.7363 100.571C14.7363 99.6515 15.0765 98.7672 15.687 98.0993C16.2974 97.4313 17.132 97.0304 18.0192 96.9788H33.0692C33.9565 97.0304 34.791 97.4313 35.4015 98.0993C36.0119 98.7672 36.3521 99.6515 36.3521 100.571C36.3521 101.49 36.0119 102.374 35.4015 103.042C34.791 103.71 33.9565 104.111 33.0692 104.163H18.0192Z" fill="#FE794D"/>
<path d="M18.0193 100.571H33.0693C33.6763 100.573 34.2721 100.74 34.7972 101.055C35.3222 101.37 35.7579 101.822 36.0606 102.366C36.3729 101.823 36.5391 101.203 36.5421 100.571C36.5421 100.099 36.4521 99.6312 36.2773 99.1947C36.1025 98.7583 35.8463 98.3617 35.5233 98.0276C35.2003 97.6935 34.8169 97.4285 34.3949 97.2477C33.9729 97.0669 33.5206 96.9739 33.0638 96.9739H18.0193C17.5625 96.9739 17.1102 97.0669 16.6882 97.2477C16.2662 97.4285 15.8828 97.6935 15.5598 98.0276C15.2368 98.3617 14.9806 98.7583 14.8058 99.1947C14.631 99.6312 14.541 100.099 14.541 100.571C14.544 101.203 14.7102 101.823 15.0225 102.366C15.3256 101.821 15.7622 101.369 16.2883 101.054C16.8144 100.738 17.4114 100.572 18.0193 100.571Z" fill="#FFBD00"/>
<path d="M40.2966 104.576C39.4093 104.525 38.5748 104.124 37.9643 103.456C37.3538 102.788 37.0137 101.903 37.0137 100.984C37.0137 100.065 37.3538 99.1809 37.9643 98.5129C38.5748 97.845 39.4093 97.444 40.2966 97.3924H55.3447C55.8172 97.3649 56.2901 97.4374 56.7346 97.6055C57.179 97.7736 57.5856 98.0337 57.9295 98.37C58.2734 98.7062 58.5474 99.1115 58.7346 99.561C58.9218 100.011 59.0184 100.495 59.0184 100.984C59.0184 101.474 58.9218 101.958 58.7346 102.408C58.5474 102.857 58.2734 103.262 57.9295 103.599C57.5856 103.935 57.179 104.195 56.7346 104.363C56.2901 104.531 55.8172 104.604 55.3447 104.576H40.2966Z" fill="#FE794D"/>
<path d="M40.4487 101.097H55.4969C56.104 101.098 56.7001 101.265 57.2252 101.58C57.7503 101.895 58.1859 102.348 58.4882 102.892C58.801 102.349 58.9679 101.73 58.9715 101.097C58.9715 100.625 58.8815 100.157 58.7067 99.7206C58.5319 99.2841 58.2757 98.8875 57.9527 98.5535C57.6298 98.2194 57.2463 97.9544 56.8243 97.7736C56.4023 97.5928 55.95 97.4998 55.4932 97.4998H40.4451C39.9883 97.4998 39.536 97.5928 39.114 97.7736C38.692 97.9544 38.3086 98.2194 37.9856 98.5535C37.6626 98.8875 37.4064 99.2841 37.2316 99.7206C37.0568 100.157 36.9668 100.625 36.9668 101.097C36.9698 101.729 37.136 102.349 37.4483 102.892C37.7516 102.347 38.1887 101.893 38.7155 101.578C39.2423 101.263 39.8402 101.097 40.4487 101.097Z" fill="#FFBD00"/>
<path d="M21.7692 97.3921C20.882 97.3404 20.0474 96.9395 19.437 96.2716C18.8265 95.6036 18.4863 94.7193 18.4863 93.8002C18.4863 92.881 18.8265 91.9967 19.437 91.3288C20.0474 90.6608 20.882 90.2599 21.7692 90.2083H36.8192C37.7065 90.2599 38.541 90.6608 39.1515 91.3288C39.762 91.9967 40.1021 92.881 40.1021 93.8002C40.1021 94.7193 39.762 95.6036 39.1515 96.2716C38.541 96.9395 37.7065 97.3404 36.8192 97.3921H21.7692Z" fill="#FE794D"/>
<path d="M21.9636 93.3354H36.7557C37.3523 93.337 37.9379 93.4916 38.454 93.7837C38.97 94.0758 39.3982 94.4952 39.6957 94.9997C40.0027 94.496 40.166 93.9214 40.169 93.3354C40.169 92.4507 39.8088 91.6023 39.1677 90.9767C38.5265 90.3512 37.657 89.9998 36.7503 89.9998H21.9636C21.0569 89.9998 20.1874 90.3512 19.5462 90.9767C18.9051 91.6023 18.5449 92.4507 18.5449 93.3354C18.5478 93.9214 18.7112 94.496 19.0181 94.9997C19.3161 94.4944 19.7452 94.0746 20.2622 93.7824C20.7793 93.4902 21.3661 93.3361 21.9636 93.3354Z" fill="#FFBD00"/>
<path d="M43.7712 97.3921C42.8839 97.3404 42.0494 96.9395 41.4389 96.2716C40.8284 95.6036 40.4883 94.7193 40.4883 93.8002C40.4883 92.881 40.8284 91.9967 41.4389 91.3288C42.0494 90.6608 42.8839 90.2599 43.7712 90.2083H58.8211C59.7084 90.2599 60.5429 90.6608 61.1534 91.3288C61.7639 91.9967 62.104 92.881 62.104 93.8002C62.104 94.7193 61.7639 95.6036 61.1534 96.2716C60.5429 96.9395 59.7084 97.3404 58.8211 97.3921H43.7712Z" fill="#FE794D"/>
<path d="M43.6482 93.5973H58.6982C59.3052 93.599 59.9011 93.7658 60.4261 94.0808C60.9511 94.3959 61.3868 94.8482 61.6895 95.3923C62.0018 94.8491 62.168 94.2293 62.171 93.5973C62.171 92.6432 61.8045 91.7281 61.1522 91.0535C60.4999 90.3788 59.6152 89.9998 58.6927 89.9998H43.6482C42.7257 89.9998 41.841 90.3788 41.1887 91.0535C40.5364 91.7281 40.1699 92.6432 40.1699 93.5973C40.1729 94.2293 40.3391 94.8491 40.6514 95.3923C40.9544 94.8472 41.3909 94.3943 41.917 94.0791C42.4432 93.764 43.0402 93.5978 43.6482 93.5973Z" fill="#FFBD00"/>
<path d="M24.089 90.2079C23.1985 90.1606 22.3596 89.7615 21.7456 89.0929C21.1315 88.4243 20.7891 87.5373 20.7891 86.6151C20.7891 85.6929 21.1315 84.8059 21.7456 84.1373C22.3596 83.4687 23.1985 83.0695 24.089 83.0222H39.1389C40.0294 83.0695 40.8683 83.4687 41.4824 84.1373C42.0965 84.8059 42.4389 85.6929 42.4389 86.6151C42.4389 87.5373 42.0965 88.4243 41.4824 89.0929C40.8683 89.7615 40.0294 90.1606 39.1389 90.2079H24.089Z" fill="#FE794D"/>
<path d="M23.8084 86.204H38.8583C39.4653 86.2057 40.0612 86.3725 40.5862 86.6875C41.1113 87.0026 41.547 87.4549 41.8497 87.9991C42.1619 87.4558 42.3282 86.8361 42.3311 86.204C42.3311 85.2499 41.9647 84.3348 41.3124 83.6602C40.6601 82.9855 39.7753 82.6064 38.8528 82.6064H23.8084C22.8859 82.6064 22.0011 82.9855 21.3488 83.6602C20.6965 84.3348 20.3301 85.2499 20.3301 86.204C20.3331 86.8361 20.4993 87.4558 20.8115 87.9991C21.1146 87.4539 21.5511 87.001 22.0772 86.6859C22.6033 86.3707 23.2004 86.2045 23.8084 86.204Z" fill="#FFBD00"/>
<path d="M20.617 83.0228C20.1445 83.0503 19.6716 82.9777 19.2272 82.8097C18.7827 82.6416 18.3761 82.3814 18.0322 82.0452C17.6883 81.709 17.4144 81.3037 17.2271 80.8542C17.0399 80.4046 16.9434 79.9203 16.9434 79.4309C16.9434 78.9414 17.0399 78.4571 17.2271 78.0075C17.4144 77.558 17.6883 77.1527 18.0322 76.8165C18.3761 76.4803 18.7827 76.2201 19.2272 76.052C19.6716 75.884 20.1445 75.8114 20.617 75.8389H35.6652C36.1376 75.8114 36.6106 75.884 37.055 76.052C37.4995 76.2201 37.9061 76.4803 38.25 76.8165C38.5939 77.1527 38.8678 77.558 39.055 78.0075C39.2423 78.4571 39.3388 78.9414 39.3388 79.4309C39.3388 79.9203 39.2423 80.4046 39.055 80.8542C38.8678 81.3037 38.5939 81.709 38.25 82.0452C37.9061 82.3814 37.4995 82.6416 37.055 82.8097C36.6106 82.9777 36.1376 83.0503 35.6652 83.0228H20.617Z" fill="#FE794D"/>
<path d="M20.3355 79.018H35.3836C35.9908 79.0195 36.587 79.1864 37.1121 79.5018C37.6372 79.8172 38.0728 80.2701 38.3749 80.8149C38.6877 80.2711 38.8546 79.6508 38.8582 79.018C38.8582 78.0639 38.4918 77.1488 37.8395 76.4741C37.1872 75.7994 36.3024 75.4204 35.3799 75.4204H20.3318C19.4093 75.4204 18.5246 75.7994 17.8723 76.4741C17.22 77.1488 16.8535 78.0639 16.8535 79.018C16.8565 79.6506 17.0227 80.2709 17.335 80.8149C17.6382 80.269 18.0753 79.8154 18.6021 79.4999C19.1288 79.1845 19.7267 79.0182 20.3355 79.018Z" fill="#FFBD00"/>
<path d="M116.818 5C118.458 9.42525 116.818 14.9158 113.051 17.606C115.455 16.9956 118.029 17.5212 120.264 18.6205C122.498 19.7197 124.449 21.37 126.271 23.0853C125.575 22.1329 125.109 21.0216 124.913 19.8445C124.717 18.6674 124.797 17.4588 125.146 16.3203C125.965 13.7459 128.058 11.8696 130.064 10.1261C127.963 10.9738 125.545 10.7082 123.474 9.7813C121.403 8.85443 119.463 8.0858 117.898 6.39031L116.818 5Z" fill="#FFBD00"/>
<path d="M114.982 25C115.728 26.1303 115.561 27.7156 114.922 28.9222C114.283 30.1289 113.258 31.0473 112.25 31.9402C113.616 31.279 115.255 31.4401 116.621 32.1154C117.987 32.7908 119.08 33.9268 119.982 35.1786C119.465 33.932 119.247 32.5749 119.345 31.2225C119.49 29.8774 120.135 28.5521 121.239 27.8315C119.129 28.2384 116.987 28.0491 115.835 26.1755L114.982 25Z" fill="#FFBD00"/>
<path d="M38.6634 32.7325C38.9796 30.4633 38.6649 28.1474 37.7564 26.0584C37.7324 26.0176 37.6984 25.9841 37.6579 25.9614C37.6175 25.9387 37.5719 25.9275 37.526 25.929C37.48 25.9305 37.4352 25.9446 37.3962 25.9699C37.3571 25.9951 37.3252 26.0307 37.3037 26.073C36.3628 28.4545 35.6287 30.9189 35.1102 33.4366L35.4874 33.2613L29.0125 30.3214C28.9613 30.2914 28.9019 30.2803 28.8438 30.2899C28.7858 30.2994 28.7326 30.3291 28.6928 30.3741C28.653 30.4191 28.6289 30.4767 28.6246 30.5377C28.6202 30.5987 28.6357 30.6594 28.6686 30.71C29.5781 32.3341 30.5801 33.9 31.6694 35.3994L31.8265 34.9946C29.4302 35.6801 26.9983 36.2233 24.5427 36.6215C24.3037 36.6609 24.3193 37.0127 24.494 37.1203C26.4071 38.3096 28.3653 39.4152 30.3687 40.4371C30.6706 40.5905 30.9192 40.1151 30.6172 39.9617C28.6029 38.9394 26.6419 37.8337 24.7343 36.6447L24.6822 37.1417C27.1378 36.7436 29.5697 36.2004 31.966 35.5148C32.0058 35.5043 32.0427 35.4841 32.0736 35.4558C32.1045 35.4276 32.1285 35.3922 32.1437 35.3525C32.159 35.3128 32.165 35.2699 32.1613 35.2273C32.1575 35.1847 32.1442 35.1436 32.1223 35.1074C31.0332 33.6076 30.0304 32.0419 29.119 30.4188L28.7752 30.8074L35.2396 33.7392C35.2746 33.7591 35.3135 33.7703 35.3533 33.7721C35.3931 33.7739 35.4328 33.7661 35.4693 33.7494C35.5058 33.7328 35.5382 33.7076 35.5639 33.6759C35.5896 33.6442 35.6079 33.6068 35.6175 33.5665C36.1245 31.0944 36.8419 28.674 37.7613 26.3342L37.3103 26.3455C38.1555 28.3034 38.4472 30.4713 38.1513 32.5955C38.1019 32.939 38.61 33.0715 38.658 32.7228L38.6634 32.7325Z" fill="#FFBD00"/>
<path d="M9.26532 74.1544L15.0413 75.3788C15.3556 75.4441 15.2931 75.9648 14.9751 75.8959L9.20762 74.6742C8.89325 74.6088 8.95579 74.0882 9.27377 74.157L9.26532 74.1544Z" fill="#FFBD00"/>
<path d="M13.3447 69.0395L17.159 73.704C17.3668 73.9589 17.01 74.3272 16.8 74.0717L12.9857 69.4072C12.7778 69.1523 13.1347 68.784 13.3447 69.0395Z" fill="#FFBD00"/>
<path d="M18.6851 68.1883C19.1499 70.1702 19.3181 70.8166 19.7717 72.7974C19.8496 73.1223 19.3715 73.2862 19.2949 72.9569C18.8307 70.9729 18.662 70.3287 18.2083 68.3479C18.1311 68.0208 18.6085 67.8591 18.6851 68.1883Z" fill="#FFBD00"/>
</svg>
