<svg width="55" height="53" viewBox="0 0 55 53" fill="none" xmlns="http://www.w3.org/2000/svg">
<path d="M11.3287 43.9767V36.9906L14.257 33.0987L15.4185 31.9373L18.3147 30.0045L21.8078 31.7511L25.3008 35.8263H28.7939L30.3337 31.815L32.7788 27.7195L35.78 24.1828L39.273 20.1077L42.766 17.1967V43.9767H11.3287Z" fill="#B9B3F9"/>
<path d="M42.766 11.375C41.4817 11.375 40.4372 12.4195 40.4372 13.7038C40.4372 14.1515 40.57 14.5654 40.7901 14.9211L27.5981 30.3114C27.2611 30.1217 26.8785 30.0046 26.4652 30.0046C25.8184 30.0046 25.2333 30.2706 24.8107 30.6974L20.3675 27.5875C20.5381 27.2637 20.6434 26.9016 20.6434 26.5116C20.6434 25.2273 19.599 24.1829 18.3147 24.1829C17.0304 24.1829 15.9861 25.2273 15.9861 26.5116C15.9861 26.9424 16.1113 27.3406 16.3162 27.687L12.5041 31.499C12.1578 31.2941 11.7596 31.1689 11.3287 31.1689C10.0444 31.1689 9 32.2134 9 33.4977C9 34.782 10.0444 35.8264 11.3287 35.8264C12.613 35.8264 13.6575 34.782 13.6575 33.4977C13.6575 33.0669 13.5323 32.6687 13.3274 32.3223L17.1395 28.5102C17.4858 28.7151 17.884 28.8403 18.3148 28.8403C18.7834 28.8403 19.2178 28.6989 19.5834 28.4596L24.2308 31.7129C24.1755 31.912 24.1365 32.1175 24.1365 32.3334C24.1365 33.6177 25.181 34.6622 26.4653 34.6622C27.7496 34.6622 28.794 33.6177 28.794 32.3334C28.794 31.8857 28.6613 31.4718 28.4412 31.1161L41.6331 15.7257C41.9702 15.9154 42.3527 16.0325 42.7661 16.0325C44.0504 16.0325 45.0948 14.9881 45.0948 13.7038C45.0948 12.4195 44.0503 11.375 42.766 11.375ZM11.3287 34.6621C10.6866 34.6621 10.1644 34.1399 10.1644 33.4977C10.1644 32.8555 10.6865 32.3333 11.3287 32.3333C11.9709 32.3333 12.4931 32.8555 12.4931 33.4977C12.4931 34.1399 11.9708 34.6621 11.3287 34.6621ZM18.3147 27.676C17.6726 27.676 17.1503 27.1538 17.1503 26.5116C17.1503 25.8695 17.6725 25.3472 18.3147 25.3472C18.9569 25.3472 19.4791 25.8694 19.4791 26.5116C19.4791 27.1537 18.9569 27.676 18.3147 27.676ZM26.4652 33.4977C25.8231 33.4977 25.3008 32.9755 25.3008 32.3333C25.3008 31.6912 25.823 31.1689 26.4652 31.1689C27.1073 31.1689 27.6295 31.6911 27.6295 32.3333C27.6295 32.9754 27.1073 33.4977 26.4652 33.4977ZM42.766 14.8682C42.1239 14.8682 41.6016 14.346 41.6016 13.7038C41.6016 13.0616 42.1237 12.5394 42.766 12.5394C43.408 12.5394 43.9303 13.0616 43.9303 13.7038C43.9303 14.346 43.4082 14.8682 42.766 14.8682Z" fill="#675AF6"/>
<path d="M11.911 36.2141L10.7466 37.7114V43.9768H11.911V36.2141Z" fill="#675AF6"/>
<path d="M15.4039 31.9374L14.2395 33.0988V43.9768H15.4039V31.9374Z" fill="#675AF6"/>
<path d="M18.897 43.9768V30.2869L18.2915 29.9812L17.7326 30.2869V43.9768H18.897Z" fill="#675AF6"/>
<path d="M22.39 43.9768V32.4189L21.8567 31.7221L21.2256 31.4705V43.9768H22.39Z" fill="#675AF6"/>
<path d="M25.883 35.8263H24.7186V43.9768H25.883V35.8263Z" fill="#675AF6"/>
<path d="M28.9919 35.8495H27.8275V44H28.9919V35.8495Z" fill="#675AF6"/>
<path d="M32.8691 27.6469L31.7047 29.4808V43.9768H32.8691V27.6469Z" fill="#675AF6"/>
<path d="M36.3622 23.5716L35.1978 24.7941V43.9767H36.3622V23.5716Z" fill="#675AF6"/>
<path d="M39.8552 19.6187L38.6908 20.719V43.9768H39.8552V19.6187Z" fill="#675AF6"/>
<path d="M43.3482 16.7775L42.1838 17.6333V43.9767H43.3482V16.7775Z" fill="#675AF6"/>
<path d="M10.3807 9.09763H11.9289V20.3954H10.3807V9.09763Z" fill="#675AF6"/>
<path d="M14.7331 9.09763H17.5366C18.513 9.09763 19.2197 9.36265 19.6567 9.89267C20.1031 10.4227 20.3262 11.1991 20.3262 12.222C20.3262 13.1425 20.0891 13.8585 19.6149 14.3699C19.1406 14.8814 18.4526 15.1371 17.5506 15.1371H16.3092V20.3954H14.7331V9.09763ZM17.0345 14.0073C17.4994 14.0073 17.8574 13.9562 18.1085 13.8539C18.3689 13.7516 18.5548 13.5749 18.6664 13.3239C18.778 13.0728 18.8338 12.7101 18.8338 12.2359C18.8338 11.6594 18.792 11.2363 18.7083 10.9667C18.6246 10.697 18.4572 10.5064 18.2061 10.3948C17.9644 10.2832 17.5785 10.2274 17.0485 10.2274H16.3092V14.0073H17.0345Z" fill="#675AF6"/>
<path d="M25.2982 20.521C24.1917 20.521 23.3967 20.2095 22.9131 19.5865C22.4389 18.9542 22.2018 18.0429 22.2018 16.8527V12.5707C22.2018 11.399 22.4435 10.511 22.9271 9.90661C23.4106 9.3022 24.201 9 25.2982 9C26.3955 9 27.1812 9.30685 27.6554 9.92056C28.1389 10.525 28.3807 11.4083 28.3807 12.5707V16.8666C28.3807 18.0382 28.1389 18.9402 27.6554 19.5725C27.1719 20.2048 26.3862 20.521 25.2982 20.521ZM25.2982 19.2796C25.884 19.2796 26.2792 19.1076 26.4838 18.7635C26.6884 18.4195 26.7906 17.8988 26.7906 17.2014V12.2499C26.7906 11.5618 26.6884 11.055 26.4838 10.7295C26.2792 10.3948 25.884 10.2274 25.2982 10.2274C24.7031 10.2274 24.3033 10.3948 24.0987 10.7295C23.8941 11.055 23.7918 11.5618 23.7918 12.2499V17.2014C23.7918 17.8988 23.8941 18.4195 24.0987 18.7635C24.3033 19.1076 24.7031 19.2796 25.2982 19.2796Z" fill="#675AF6"/>
</svg>
