<svg width="141" height="120" viewBox="0 0 141 120" fill="none" xmlns="http://www.w3.org/2000/svg">
<g clip-path="url(#clip0_2341_366)">
<path d="M69.1929 49.0889C68.1196 50.7399 65.0575 50.821 62.3568 50.1446C62.3517 48.772 60.3302 31.3751 60.9997 30.0002C61.6693 28.6252 68.2654 28.0859 72.9999 31.5C76.7875 34.2312 79.3786 43.2976 82.3293 50.8358C79.641 53.5907 71.0985 50.4524 71.096 49.7661C71.0935 49.0798 69.6968 36.0457 69.6993 36.732C69.7013 37.281 69.6318 46.1135 69.1929 49.0889Z" fill="#675AF6"/>
<path d="M97.8235 31.2147C97.5362 35.5816 94.7027 39.776 90.4554 41.524C86.208 43.2721 80.7049 42.2769 77.647 38.9344C76.2518 37.3663 75.337 35.4502 75.0059 33.4023C74.2949 29.2798 75.9293 24.8136 79.4119 22.2901C82.8945 19.7666 88.1932 19.5008 91.8336 21.9368" fill="#FFA283"/>
<path d="M82.7493 30.77C82.7193 31.1798 83.3536 31.5146 84.1659 31.5178C84.9783 31.5211 85.6612 31.1916 85.6912 30.7817C85.7213 30.372 85.0871 30.0372 84.2747 30.034C83.4624 30.0307 82.7794 30.3602 82.7493 30.77Z" fill="#132056"/>
<path d="M85.6342 38.5948C85.6042 39.0046 86.3671 39.3399 87.3381 39.3438C88.3092 39.3477 89.1206 39.0187 89.1507 38.6088C89.1807 38.1991 88.418 37.8638 87.4469 37.8599C86.476 37.856 85.6643 38.185 85.6342 38.5948Z" fill="#132056"/>
<path d="M79.8559 23.9897C78.9628 22.8355 80.8628 20.2097 83.6702 20.8151C85.5305 21.2169 84.7737 23.5153 83.3042 24.2382C82.9045 24.4939 82.4545 24.6659 81.9828 24.7433C81.5112 24.8207 81.0282 24.8018 80.5649 24.6877" fill="#FFA283"/>
<ellipse cx="79.6321" cy="35.7733" rx="2.88839" ry="1.75958" transform="rotate(87.2672 79.6321 35.7733)" fill="#132056"/>
<path d="M86.9706 16.4821C85.5051 16.8618 84.0583 17.4076 82.9519 18.3956C81.8457 19.3837 81.1414 20.9113 81.4854 22.3342C81.8134 23.6947 83.0306 24.7284 84.4031 25.1784C85.7758 25.6283 87.2561 25.5516 88.6805 25.3258C87.9921 26.7117 87.2958 28.1169 86.9891 29.6268C86.6825 31.1369 86.824 32.7874 87.6975 34.0665C87.9737 34.523 88.4036 34.873 88.9151 35.0579C90.1179 35.4179 91.2414 34.3654 92.039 33.4197C92.2807 35.6042 92.8606 37.7401 93.7594 39.7556C94.2509 40.8604 95.096 42.0821 96.34 42.0419C97.416 42.0076 98.1799 41.0245 98.6582 40.0895C100.459 36.5652 100.582 32.4355 99.8795 28.5692C99.3123 25.4436 98.177 22.3199 95.9823 19.9679C93.7874 17.6161 90.581 15.7116 87.3767 16.3606L86.9706 16.4821Z" fill="#132056"/>
<g opacity="0.5">
<path opacity="0.5" d="M63.4385 60.1081V78.6309C62.64 78.8238 61.8188 78.9201 60.9939 78.9174C58.3474 78.9174 55.8084 77.911 53.9358 76.1194C52.0632 74.3278 51.0117 71.898 51.0117 69.3645C51.0117 66.8309 52.0632 64.4011 53.9358 62.6095C55.8084 60.8181 58.3474 59.8115 60.9939 59.8115C61.8188 59.8122 62.64 59.9118 63.4385 60.1081Z" fill="#8279F8"/>
<path opacity="0.5" d="M38.9386 89.179C38.9386 91.2127 38.0948 93.1629 36.5922 94.6008C35.0895 96.0388 33.0508 96.8467 30.9271 96.8467C30.6798 96.8476 30.4344 96.8358 30.1909 96.8115V81.5468C30.4325 81.5468 30.6798 81.5166 30.9271 81.5166C31.9786 81.5161 33.0206 81.7137 33.9928 82.0984C34.9649 82.4832 35.8484 83.0475 36.5922 83.7591C37.3359 84.4708 37.9268 85.3157 38.3289 86.2456C38.7309 87.1755 38.9386 88.1725 38.9386 89.179Z" fill="#8279F8"/>
<path opacity="0.5" d="M39.8013 64.7693C41.3643 64.7693 42.6328 63.5559 42.6328 62.0593C42.6328 60.5625 41.3643 59.3491 39.8013 59.3491C38.2364 59.3491 36.9697 60.5625 36.9697 62.0593C36.9697 63.5559 38.2364 64.7693 39.8013 64.7693Z" fill="#8279F8"/>
<path opacity="0.5" d="M52.0017 94.9612C53.7705 94.9612 55.2052 93.5879 55.2052 91.8941C55.2052 90.2002 53.7705 88.8271 52.0017 88.8271C50.231 88.8271 48.7964 90.2002 48.7964 91.8941C48.7964 93.5879 50.231 94.9612 52.0017 94.9612Z" fill="#8279F8"/>
</g>
<path d="M55.1838 50.107C54.1405 44.3266 46.0553 38.9403 42.1431 36.9697C47.881 32.7658 59.6031 29.6073 63.0806 29.1694C64.1239 29.6949 63.2255 43.7573 64.3123 50.107H55.1838Z" fill="#675AF6"/>
<path d="M21.13 68.5183C21.1057 68.516 21.0819 68.5107 21.059 68.5025L9.74909 63.1413C9.70801 63.1243 9.671 63.099 9.64041 63.0668C9.60981 63.0346 9.58625 62.9964 9.57143 62.9545C9.55649 62.9126 9.55061 62.8682 9.55404 62.8238C9.55744 62.7795 9.57025 62.7364 9.59136 62.6974C9.60631 62.6551 9.62986 62.6166 9.6608 62.5841C9.69161 62.5518 9.72905 62.5263 9.77039 62.5094C9.81187 62.4925 9.85635 62.4846 9.90097 62.4861C9.94567 62.4877 9.98947 62.4987 10.0296 62.5186L21.3395 67.8798C21.4222 67.908 21.4903 67.968 21.5289 68.0465C21.5674 68.1251 21.5732 68.2158 21.5449 68.2986C21.5167 68.3814 21.4567 68.4496 21.3783 68.4882C21.2999 68.5268 21.2093 68.5328 21.1266 68.5045L21.13 68.5183Z" fill="#132056"/>
<rect width="46.8017" height="60.3495" transform="translate(63.4424 49.3276)" fill="#FFA283"/>
<path opacity="0.5" d="M76.9702 58.0509C79.1704 58.0509 80.9561 56.0981 80.9561 53.6894C80.9561 51.2804 79.1704 49.3276 76.9702 49.3276C74.7674 49.3276 72.9844 51.2804 72.9844 53.6894C72.9844 56.0981 74.7674 58.0509 76.9702 58.0509Z" fill="white"/>
<path opacity="0.5" d="M83.0011 97.9999C86.0371 97.9999 88.4995 95.5373 88.4995 92.4998C88.4995 89.4622 86.0371 86.9999 83.0011 86.9999C79.9619 86.9999 77.4995 89.4622 77.4995 92.4998C77.4995 95.5373 79.9619 97.9999 83.0011 97.9999Z" fill="#FFEBE4"/>
<path opacity="0.5" d="M104.001 78.9999C105.932 78.9999 107.5 77.2089 107.5 74.9998C107.5 72.7907 105.932 70.9999 104.001 70.9999C102.067 70.9999 100.5 72.7907 100.5 74.9998C100.5 77.2089 102.067 78.9999 104.001 78.9999Z" fill="#FFEBE4"/>
<path opacity="0.5" d="M107 107C107.828 107 108.5 106.104 108.5 105C108.5 103.895 107.828 103 107 103C106.171 103 105.5 103.895 105.5 105C105.5 106.104 106.171 107 107 107Z" fill="#FFEBE4"/>
<path d="M63 51.1942V104" stroke="#FFA283"/>
<path d="M74.2581 75.9999L62 48.9999H110.419L119 75.9999H74.2581Z" fill="#FE794D"/>
<path d="M68.9842 62.0946V62.6896C69.5509 63.0419 70.1176 63.3986 70.6863 63.7509C71.4983 64.2615 72.3927 64.8114 73.437 64.7107C75.3908 64.519 75.3908 62.3336 75.2932 61.0133C75.2323 60.086 74.9653 59.192 74.8329 58.2757C74.7434 57.7836 74.7574 57.2796 74.8742 56.7926C74.9979 56.3493 75.3083 56.2095 75.7816 56.2035C76.7282 56.1932 77.666 56.5003 78.6039 56.2716C79.3485 56.0918 79.926 55.6263 80.0302 54.9217C80.1496 54.098 79.9716 53.1794 79.7805 52.3719C79.5768 51.5308 79.2686 50.7155 78.8622 49.9433H78.2999C78.2963 49.9867 78.3053 50.0301 78.326 50.0689C78.7865 50.9248 79.1196 51.8371 79.3159 52.7798C79.4201 53.2728 79.4832 53.7728 79.5049 54.2749C79.5222 54.6871 79.5396 55.1156 79.2074 55.4331C78.6452 55.9704 77.7029 55.892 76.9669 55.8098C76.231 55.7277 75.2562 55.5256 74.6874 56.0429C74.1187 56.5595 74.1946 57.526 74.2728 58.164C74.3748 59.0003 74.6288 59.8122 74.7178 60.6566C74.8481 61.8785 75.0109 64.542 72.8486 64.2082C71.9564 64.0683 71.1857 63.4667 70.4605 63.0152L68.9842 62.0946Z" fill="#FFEBE4"/>
<path d="M116.93 73.6963L117.351 73.2756C117.199 72.6258 117.05 71.9728 116.897 71.3216C116.684 70.3863 116.441 69.3651 115.631 68.6978C114.114 67.4518 112.569 68.9971 111.704 69.9998C111.091 70.6985 110.648 71.5195 110.094 72.261C109.809 72.6723 109.443 73.0188 109.016 73.2805C108.615 73.5065 108.297 73.3859 107.958 73.0554C107.281 72.3934 106.835 71.5131 106.01 71.0116C105.356 70.6122 104.619 70.5331 104.047 70.9576C103.38 71.4556 102.857 72.231 102.421 72.9371C101.97 73.6759 101.611 74.4704 101.353 75.3038L101.75 75.7014C101.784 75.6733 101.808 75.6362 101.821 75.5941C102.1 74.6633 102.51 73.7826 103.038 72.9772C103.313 72.5549 103.621 72.1567 103.961 71.7864C104.24 71.4827 104.531 71.1674 104.991 71.1778C105.768 71.1954 106.379 71.9172 106.841 72.4957C107.303 73.0741 107.85 73.9063 108.618 73.9427C109.385 73.9796 110.015 73.2424 110.411 72.7361C110.93 72.0726 111.325 71.3189 111.859 70.6588C112.631 69.7027 114.399 67.7042 115.692 69.4692C116.224 70.199 116.343 71.1694 116.537 72.0014L116.93 73.6963Z" fill="#FFEBE4"/>
<path d="M63 48.9999H30V110H63V48.9999Z" fill="#FE794D"/>
<path opacity="0.5" d="M34.4995 91.4983C34.4995 92.6922 34.0172 93.8371 33.1583 94.6813C32.2995 95.5256 31.1342 95.9998 29.9203 95.9998C29.779 96.0004 29.6387 95.9935 29.4995 95.9792V87.0176C29.6376 87.0176 29.779 86.9999 29.9203 86.9999C30.5213 86.9995 31.1169 87.1156 31.6726 87.3414C32.2283 87.5673 32.7332 87.8986 33.1583 88.3164C33.5835 88.7342 33.9212 89.2302 34.151 89.7762C34.3808 90.3221 34.4995 90.9074 34.4995 91.4983Z" fill="#FFEBE4"/>
<path opacity="0.5" d="M58.1559 109.225C60.1954 109.225 61.8497 107.57 61.8497 105.53C61.8497 103.489 60.1954 101.835 58.1559 101.835C56.1142 101.835 54.46 103.489 54.46 105.53C54.46 107.57 56.1142 109.225 58.1559 109.225Z" fill="white"/>
<path opacity="0.5" d="M37.2179 59.9595C39.2574 59.9595 40.9117 58.3051 40.9117 56.2645C40.9117 54.2239 39.2574 52.5697 37.2179 52.5697C35.1762 52.5697 33.522 54.2239 33.522 56.2645C33.522 58.3051 35.1762 59.9595 37.2179 59.9595Z" fill="white"/>
<path opacity="0.5" d="M47.0704 78.4342C48.4301 78.4342 49.5329 77.3313 49.5329 75.9709C49.5329 74.6105 48.4301 73.5077 47.0704 73.5077C45.7093 73.5077 44.6064 74.6105 44.6064 75.9709C44.6064 77.3313 45.7093 78.4342 47.0704 78.4342Z" fill="#FFEBE4"/>
<path d="M50.4995 107V99.9999C50.4995 98.8953 51.4085 97.9999 52.5131 97.9999C53.2098 97.9999 53.8647 98.3662 54.3552 98.861C55.5089 100.025 57.9092 101.795 61.9709 103.343C67.2509 105.354 68.4662 109 64.0138 109H52.4995C51.3949 109 50.4995 108.104 50.4995 107Z" fill="#132056"/>
<path d="M2.11523 109.225H135.746C137.183 109.019 139.934 108.732 139.441 109.225C138.948 109.717 136.773 110.251 135.746 110.456C74.6578 117.353 21.2054 112.509 2.11523 109.225Z" fill="#ECECF1"/>
<path d="M8.07679 58.5757L14.1601 62.6702C14.6183 62.9785 14.7398 63.5999 14.4314 64.0581L13.809 64.9828C13.6145 65.2718 13.2838 65.4315 12.9359 65.4509C11.8113 65.5137 9.7865 65.9688 6.49988 68.2875C2.56957 71.0603 -0.582808 70.1857 1.53356 67.0412L6.67198 58.8728C6.9725 58.3951 7.60858 58.2606 8.07679 58.5757Z" fill="#132056"/>
<path d="M31.6748 51.9541C34.138 42.1011 38.8592 38.8168 40.9119 38.4062C44.6068 39.8431 52.4892 44.318 54.4598 50.7225C56.4303 57.1269 58.1546 86.2343 58.7704 99.9874C55.8145 101.958 48.3016 101.219 48.3016 99.9874C48.9174 95.6767 48.9174 91.9818 48.3016 89.5186L43.991 57.4964C43.6242 58.0649 43.2118 58.6852 42.7605 59.3438C38.1595 66.0572 29.5015 76.7537 23.6692 77.2024C17.2648 77.695 12.9473 72.4687 8.22608 67.5422C10.0735 62.6157 15 61.3841 15 61.9999C15 62.6157 21.206 67.9652 23.6692 66.7336C26.1325 65.5019 28.5957 64.2703 31.6748 51.9541Z" fill="#675AF6"/>
<path d="M58.1545 99.9874C56.9228 100.398 53.5975 101.096 50.1489 100.603" stroke="#132056" stroke-width="0.615811" stroke-linecap="round"/>
<path d="M46.1433 69.1574C46.1215 68.9888 45.9671 68.8697 45.7985 68.8914C45.6298 68.9132 45.5108 69.0676 45.5325 69.2362L46.1433 69.1574ZM48.0548 99.1868C47.9528 99.3229 47.9804 99.5159 48.1164 99.6179C48.2524 99.7199 48.4454 99.6924 48.5475 99.5563L48.0548 99.1868ZM45.5325 69.2362C45.943 72.4176 46.5587 77.2511 47.0718 81.4122C47.3284 83.4928 47.5592 85.4047 47.7258 86.8576C47.8941 88.3246 47.9932 89.2951 47.9932 89.5186H48.609C48.609 89.2495 48.5029 88.2289 48.3376 86.7874C48.1707 85.3319 47.9396 83.418 47.683 81.3368C47.1697 77.1742 46.5538 72.3395 46.1433 69.1574L45.5325 69.2362ZM47.9932 89.5186C47.9932 89.7002 48.0262 89.9536 48.0729 90.2435C48.1205 90.5387 48.1862 90.8939 48.2581 91.2867C48.4024 92.0759 48.5739 93.029 48.688 94.0185C48.8024 95.0092 48.8578 96.0249 48.7739 96.9379C48.6896 97.8556 48.4675 98.6366 48.0548 99.1868L48.5475 99.5563C49.0585 98.8749 49.2982 97.9625 49.3871 96.9942C49.4765 96.0213 49.4164 94.9586 49.2998 93.9479C49.183 92.936 49.0081 91.9648 48.8638 91.1759C48.7913 90.7797 48.7271 90.4326 48.6809 90.1456C48.6338 89.8534 48.609 89.6449 48.609 89.5186H47.9932Z" fill="#132056"/>
<path d="M43.8796 57.7157C44.0013 57.7766 44.1492 57.7272 44.2101 57.6056C44.2709 57.4839 44.2216 57.3359 44.0999 57.2751L43.8796 57.7157ZM42.3768 54.9553C42.3337 54.8262 42.1942 54.7565 42.0652 54.7995C41.9361 54.8425 41.8664 54.982 41.9094 55.1111L42.3768 54.9553ZM44.0999 57.2751C43.7491 57.0997 42.849 56.3719 42.3768 54.9553L41.9094 55.1111C42.4221 56.6491 43.4096 57.4807 43.8796 57.7157L44.0999 57.2751Z" fill="#132056"/>
<path d="M41.009 38.7299C40.8477 38.6761 40.6733 38.7633 40.6195 38.9246C40.5657 39.0859 40.6529 39.2603 40.8143 39.3141L41.009 38.7299ZM54.1841 50.8601C54.2601 51.0122 54.4451 51.0738 54.5972 50.9978C54.7493 50.9217 54.8109 50.7368 54.7349 50.5847L54.1841 50.8601ZM41.9313 39.4066L42.0495 39.1223L41.9313 39.4066ZM40.8143 39.3141C41.1103 39.4128 41.4456 39.5382 41.8131 39.6909L42.0495 39.1223C41.67 38.9646 41.3208 38.8338 41.009 38.7299L40.8143 39.3141ZM41.8131 39.6909C45.1863 41.0931 51.1215 44.7349 54.1841 50.8601L54.7349 50.5847C51.5811 44.2772 45.4971 40.5554 42.0495 39.1223L41.8131 39.6909Z" fill="#132056"/>
<rect x="110.863" y="-2.354" width="33.9967" height="33.9967" rx="16.9984" transform="rotate(23.0702 110.863 -2.354)" fill="#D04954"/>
<path d="M115.574 23.0859C115.461 23.0048 115.39 22.906 115.36 22.7894C115.339 22.6604 115.374 22.5334 115.464 22.4085C115.554 22.2835 115.644 22.1586 115.734 22.0337C115.825 21.9087 115.915 21.7838 116.005 21.6589C116.417 21.1397 116.879 20.7506 117.389 20.4916C117.898 20.2326 118.425 20.0426 118.968 19.9216C119.524 19.8096 120.066 19.7164 120.595 19.6419C121.132 19.555 121.62 19.4319 122.058 19.2729C122.508 19.1228 122.884 18.8909 123.187 18.5771C123.561 18.1634 123.744 17.7256 123.736 17.2635C123.736 16.7889 123.601 16.3307 123.331 15.8888C123.061 15.447 122.72 15.0773 122.308 14.7798C121.646 14.3021 120.951 14.0668 120.224 14.0741C119.518 14.0779 118.797 14.4317 118.062 15.1356C117.916 15.2584 117.777 15.3196 117.644 15.3189C117.512 15.3183 117.389 15.2774 117.277 15.1963L116.377 14.5473C116.265 14.4661 116.192 14.3565 116.159 14.2185C116.138 14.0894 116.172 13.9624 116.263 13.8375C116.645 13.3343 117.109 12.9282 117.655 12.6192C118.2 12.3102 118.793 12.1205 119.433 12.0502C120.085 11.9888 120.752 12.052 121.433 12.2397C122.136 12.424 122.825 12.7595 123.5 13.2463C124.262 13.7961 124.835 14.3711 125.219 14.9711C125.624 15.5676 125.863 16.1579 125.936 16.7421C126.03 17.3228 126.003 17.8734 125.855 18.3938C125.708 18.9143 125.473 19.3716 125.15 19.7658C124.752 20.2385 124.303 20.5981 123.802 20.8447C123.31 21.0787 122.792 21.2562 122.249 21.3772C121.715 21.4857 121.175 21.5896 120.628 21.6891C120.103 21.7851 119.601 21.9268 119.124 22.1144C118.668 22.2985 118.284 22.5814 117.97 22.9631C117.859 23.0915 117.747 23.2199 117.635 23.3483C117.545 23.4733 117.455 23.5982 117.365 23.7231C117.241 23.8425 117.114 23.9127 116.985 23.9335C116.856 23.9544 116.723 23.9153 116.585 23.8161L115.574 23.0859ZM113.206 26.0511C113.081 25.9609 113.002 25.8468 112.969 25.7088C112.957 25.5672 112.996 25.434 113.086 25.3091L113.911 24.166C114.001 24.041 114.111 23.9681 114.24 23.9472C114.39 23.9229 114.528 23.9558 114.653 24.0459L115.871 24.9248C116.008 25.024 116.083 25.1443 116.095 25.2859C116.128 25.4239 116.1 25.5554 116.01 25.6804L115.185 26.8235C115.095 26.9484 114.974 27.023 114.824 27.0474C114.695 27.0683 114.562 27.0291 114.424 26.93L113.206 26.0511Z" fill="white"/>
</g>
<defs>
<clipPath id="clip0_2341_366">
<rect width="140" height="120" fill="white" transform="translate(0.5)"/>
</clipPath>
</defs>
</svg>
