<svg width="64" height="64" viewBox="0 0 64 64" fill="none" xmlns="http://www.w3.org/2000/svg">
<circle cx="32" cy="32" r="32" fill="#ECECF1"/>
<rect x="17.5332" y="16.4688" width="19.6858" height="33.5307" rx="2" fill="#9D95F8"/>
<path d="M28.47 45.0684H26.2826C25.7994 45.0684 25.4077 45.5099 25.4077 46.0546C25.4077 46.5992 25.7994 47.0408 26.2826 47.0408H28.47C28.9532 47.0408 29.3449 46.5992 29.3449 46.0546C29.3449 45.5099 28.9532 45.0684 28.47 45.0684Z" fill="white"/>
<path d="M49.7891 24.3594H26.616C26.2948 24.3594 25.9867 24.4893 25.7595 24.7206C25.5324 24.9519 25.4048 25.2656 25.4048 25.5928V33.9741C25.4048 34.3012 25.5324 34.615 25.7595 34.8463C25.9867 35.0776 26.2948 35.2075 26.616 35.2075H31.1671V38.9158C31.1671 39.3634 31.7102 39.5855 32.0238 39.2661L36.0095 35.2075H49.7891C49.9481 35.2075 50.1056 35.1756 50.2526 35.1136C50.3996 35.0517 50.5331 34.9608 50.6456 34.8463C50.758 34.7317 50.8473 34.5958 50.9081 34.4461C50.969 34.2965 51.0003 34.1361 51.0003 33.9741V25.5928C51.0003 25.2656 50.8727 24.9519 50.6456 24.7206C50.4184 24.4893 50.1103 24.3594 49.7891 24.3594Z" fill="#33CF90"/>
<path d="M48.1737 30.1073L47.6227 29.7834L48.1737 29.4595C48.3034 29.3832 48.398 29.2576 48.4368 29.1103C48.4755 28.963 48.4552 28.806 48.3803 28.6739C48.3054 28.5418 48.1821 28.4455 48.0374 28.406C47.8927 28.3665 47.7386 28.3872 47.6088 28.4635L47.058 28.7873V28.1396C47.0575 27.9874 46.9977 27.8417 46.8918 27.7343C46.786 27.6269 46.6426 27.5666 46.4932 27.5666C46.3438 27.5666 46.2004 27.6269 46.0946 27.7343C45.9887 27.8417 45.9289 27.9874 45.9284 28.1396V28.7873L45.3776 28.4635C45.2478 28.3872 45.0937 28.3665 44.949 28.406C44.8043 28.4455 44.681 28.5418 44.6061 28.6739C44.5312 28.806 44.5109 28.963 44.5496 29.1103C44.5884 29.2576 44.683 29.3832 44.8127 29.4595L45.3637 29.7834L44.8127 30.1073C44.7485 30.1451 44.6922 30.1953 44.6471 30.2552C44.6019 30.3152 44.5688 30.3835 44.5496 30.4565C44.5304 30.5294 44.5256 30.6055 44.5352 30.6804C44.5449 30.7553 44.569 30.8275 44.6061 30.8929C44.6432 30.9583 44.6925 31.0156 44.7514 31.0616C44.8102 31.1075 44.8774 31.1412 44.949 31.1608C45.0207 31.1803 45.0954 31.1853 45.1689 31.1754C45.2424 31.1656 45.3133 31.1411 45.3776 31.1033L45.9284 30.7795V31.4272C45.9289 31.5794 45.9887 31.7251 46.0946 31.8325C46.2004 31.9399 46.3438 32.0002 46.4932 32.0002C46.6426 32.0002 46.786 31.9399 46.8918 31.8325C46.9977 31.7251 47.0575 31.5794 47.058 31.4272V30.7795L47.6088 31.1033C47.6731 31.1411 47.744 31.1656 47.8175 31.1754C47.891 31.1853 47.9657 31.1803 48.0374 31.1608C48.109 31.1412 48.1762 31.1075 48.235 31.0616C48.2938 31.0156 48.3432 30.9583 48.3803 30.8929C48.4174 30.8275 48.4415 30.7553 48.4512 30.6804C48.4608 30.6055 48.4559 30.5294 48.4368 30.4565C48.4176 30.3835 48.3845 30.3152 48.3393 30.2552C48.2942 30.1953 48.2379 30.1451 48.1737 30.1073ZM42.6461 30.1073L42.0952 29.7834L42.6461 29.4595C42.7758 29.3832 42.8705 29.2576 42.9092 29.1103C42.948 28.963 42.9277 28.806 42.8528 28.6739C42.7779 28.5418 42.6545 28.4455 42.5098 28.406C42.3652 28.3665 42.211 28.3872 42.0813 28.4635L41.5305 28.7873V28.1396C41.5305 27.9871 41.4709 27.8408 41.365 27.7329C41.2591 27.625 41.1154 27.5645 40.9656 27.5645C40.8158 27.5645 40.6722 27.625 40.5663 27.7329C40.4603 27.8408 40.4008 27.9871 40.4008 28.1396V28.7873L39.85 28.4635C39.7203 28.3872 39.5661 28.3665 39.4215 28.406C39.2768 28.4455 39.1534 28.5418 39.0785 28.6739C39.0036 28.806 38.9833 28.963 39.0221 29.1103C39.0608 29.2576 39.1555 29.3832 39.2852 29.4595L39.8361 29.7834L39.2852 30.1073C39.221 30.1451 39.1647 30.1953 39.1195 30.2552C39.0744 30.3152 39.0413 30.3835 39.0221 30.4565C39.0029 30.5294 38.998 30.6055 39.0077 30.6804C39.0174 30.7553 39.0414 30.8275 39.0785 30.8929C39.1534 31.0249 39.2768 31.1213 39.4215 31.1608C39.4931 31.1803 39.5678 31.1853 39.6413 31.1754C39.7149 31.1656 39.7858 31.1411 39.85 31.1033L40.4008 30.7795V31.4272C40.4008 31.5797 40.4603 31.726 40.5663 31.8339C40.6722 31.9417 40.8158 32.0023 40.9656 32.0023C41.1154 32.0023 41.2591 31.9417 41.365 31.8339C41.4709 31.726 41.5305 31.5797 41.5305 31.4272V30.7795L42.0813 31.1033C42.1455 31.1411 42.2164 31.1656 42.2899 31.1754C42.3635 31.1853 42.4382 31.1803 42.5098 31.1608C42.5815 31.1412 42.6486 31.1075 42.7075 31.0616C42.7663 31.0156 42.8157 30.9583 42.8528 30.8929C42.8898 30.8275 42.9139 30.7553 42.9236 30.6804C42.9333 30.6055 42.9284 30.5294 42.9092 30.4565C42.89 30.3835 42.8569 30.3152 42.8118 30.2552C42.7666 30.1953 42.7103 30.1451 42.6461 30.1073H42.6461ZM37.1186 30.1073L36.5676 29.7834L37.1186 29.4595C37.1828 29.4217 37.2391 29.3715 37.2842 29.3115C37.3294 29.2516 37.3625 29.1832 37.3817 29.1103C37.4008 29.0373 37.4057 28.9613 37.3961 28.8864C37.3864 28.8115 37.3623 28.7393 37.3252 28.6739C37.2881 28.6085 37.2387 28.5512 37.1799 28.5052C37.1211 28.4593 37.0539 28.4255 36.9823 28.406C36.9106 28.3865 36.8359 28.3815 36.7624 28.3913C36.6889 28.4012 36.618 28.4257 36.5537 28.4635L36.0029 28.7873V28.1396C36.0029 27.9871 35.9434 27.8408 35.8375 27.7329C35.7316 27.625 35.5879 27.5645 35.4381 27.5645C35.2883 27.5645 35.1446 27.625 35.0387 27.7329C34.9328 27.8408 34.8733 27.9871 34.8733 28.1396V28.7873L34.3224 28.4635C34.1927 28.3872 34.0386 28.3665 33.8939 28.406C33.7492 28.4455 33.6259 28.5418 33.551 28.6739C33.4761 28.806 33.4558 28.963 33.4945 29.1103C33.5333 29.2576 33.6279 29.3832 33.7576 29.4595L34.3086 29.7834L33.7576 30.1073C33.6934 30.1451 33.6371 30.1953 33.592 30.2552C33.5468 30.3152 33.5137 30.3835 33.4945 30.4565C33.4753 30.5294 33.4705 30.6055 33.4801 30.6804C33.4898 30.7553 33.5139 30.8275 33.551 30.8929C33.6259 31.0249 33.7492 31.1213 33.8939 31.1608C33.9656 31.1803 34.0403 31.1853 34.1138 31.1754C34.1873 31.1656 34.2582 31.1411 34.3224 31.1033L34.8733 30.7795V31.4272C34.8733 31.5797 34.9328 31.726 35.0387 31.8339C35.1446 31.9417 35.2883 32.0023 35.4381 32.0023C35.5879 32.0023 35.7316 31.9417 35.8375 31.8339C35.9434 31.726 36.0029 31.5797 36.0029 31.4272V30.7795L36.5537 31.1033C36.618 31.1411 36.6889 31.1656 36.7624 31.1754C36.8359 31.1853 36.9106 31.1803 36.9823 31.1608C37.0539 31.1412 37.1211 31.1075 37.1799 31.0616C37.2387 31.0156 37.2881 30.9583 37.3252 30.8929C37.3623 30.8275 37.3864 30.7553 37.3961 30.6804C37.4057 30.6055 37.4008 30.5294 37.3817 30.4565C37.3625 30.3835 37.3294 30.3152 37.2842 30.2552C37.2391 30.1953 37.1828 30.1451 37.1186 30.1073ZM31.591 30.1073L31.0401 29.7834L31.591 29.4595C31.6552 29.4217 31.7115 29.3715 31.7567 29.3115C31.8018 29.2516 31.8349 29.1832 31.8541 29.1103C31.8733 29.0373 31.8782 28.9613 31.8685 28.8864C31.8588 28.8115 31.8347 28.7393 31.7977 28.6739C31.7606 28.6085 31.7112 28.5512 31.6524 28.5052C31.5935 28.4593 31.5264 28.4255 31.4547 28.406C31.3831 28.3865 31.3084 28.3815 31.2348 28.3913C31.1613 28.4012 31.0904 28.4257 31.0262 28.4635L30.4754 28.7873V28.1396C30.4748 27.9874 30.4151 27.8417 30.3092 27.7343C30.2033 27.6269 30.06 27.5666 29.9105 27.5666C29.7611 27.5666 29.6178 27.6269 29.5119 27.7343C29.406 27.8417 29.3463 27.9874 29.3457 28.1396V28.7873L28.7949 28.4635C28.7307 28.4257 28.6598 28.4012 28.5862 28.3913C28.5127 28.3815 28.438 28.3865 28.3664 28.406C28.2947 28.4255 28.2276 28.4593 28.1687 28.5052C28.1099 28.5512 28.0605 28.6085 28.0234 28.6739C27.9863 28.7393 27.9623 28.8115 27.9526 28.8864C27.9429 28.9613 27.9478 29.0373 27.967 29.1103C27.9862 29.1832 28.0193 29.2516 28.0644 29.3115C28.1096 29.3715 28.1659 29.4217 28.2301 29.4595L28.781 29.7834L28.2301 30.1073C28.1659 30.1451 28.1096 30.1953 28.0644 30.2552C28.0193 30.3152 27.9862 30.3835 27.967 30.4565C27.9478 30.5294 27.9429 30.6055 27.9526 30.6804C27.9623 30.7553 27.9863 30.8275 28.0234 30.8929C28.0605 30.9583 28.1099 31.0156 28.1687 31.0616C28.2276 31.1075 28.2947 31.1412 28.3664 31.1608C28.438 31.1803 28.5127 31.1853 28.5862 31.1754C28.6598 31.1656 28.7307 31.1411 28.7949 31.1033L29.3457 30.7795V31.4272C29.3463 31.5794 29.406 31.7251 29.5119 31.8325C29.6178 31.9399 29.7611 32.0002 29.9105 32.0002C30.06 32.0002 30.2033 31.9399 30.3092 31.8325C30.4151 31.7251 30.4748 31.5794 30.4754 31.4272V30.7795L31.0262 31.1033C31.0904 31.1411 31.1613 31.1656 31.2348 31.1754C31.3084 31.1853 31.3831 31.1803 31.4547 31.1608C31.5264 31.1412 31.5935 31.1075 31.6524 31.0616C31.7112 31.0156 31.7606 30.9583 31.7977 30.8929C31.8347 30.8275 31.8588 30.7553 31.8685 30.6804C31.8782 30.6055 31.8733 30.5294 31.8541 30.4565C31.8349 30.3835 31.8018 30.3152 31.7567 30.2552C31.7115 30.1953 31.6552 30.1451 31.591 30.1073Z" fill="white"/>
</svg>
