<svg width="32" height="33" viewBox="0 0 32 33" fill="none" xmlns="http://www.w3.org/2000/svg">
<path d="M0 10.5C0 4.97715 4.47715 0.5 10 0.5H22C27.5228 0.5 32 4.97715 32 10.5V22.5C32 28.0228 27.5228 32.5 22 32.5H10C4.47715 32.5 0 28.0228 0 22.5V10.5Z" fill="#FFEBE4"/>
<g clip-path="url(#clip0_2316_2835)">
<path d="M20.1063 12.8719C20.1626 12.0281 19.3188 11.2687 18.3063 11.2687C17.2657 11.2687 16.4219 12.0281 16.5063 12.9C16.5626 13.7156 17.3501 14.3344 18.2782 14.3625C19.2063 14.3625 20.0501 13.7156 20.1063 12.8719Z" fill="#FE794D"/>
<path d="M23.7906 16.5563C23.65 15.9375 23.0594 15.4875 22.3844 15.4875H22.1875L22.525 12C22.5531 11.775 22.5812 11.55 22.5812 11.325C22.6094 11.1 22.6375 10.8469 22.6375 10.6219C22.6937 10.1156 22.7219 9.69376 22.75 9.32813C22.8344 8.45626 22.3562 7.92188 21.4562 7.89376C20.5562 7.86563 19.6562 7.86563 18.7562 7.86563H17.7719C16.8437 7.86563 15.9156 7.86563 14.9875 7.89376C14.2562 7.92188 13.8344 8.31563 13.7781 9.04688V9.46876C13.975 11.4094 14.0875 12.675 14.2281 14.1094C13.6937 14.1938 13.3281 14.5313 12.9906 14.925C12.2031 15.9094 10.4031 15.4875 9.27812 15.4875C8.60313 15.4875 8.125 15.9656 8.125 16.6406V22.7156C8.125 23.2781 8.4625 23.7 8.94062 23.8125C9.05312 23.8406 9.16562 23.8688 9.27812 23.8688C10.4312 23.8688 11.5844 23.7563 12.7094 23.9813C13.9187 24.2063 15.0156 24.8531 16.225 24.9938C17.5187 25.1625 18.8406 24.9656 20.1344 24.9656C20.275 24.9656 20.4156 24.9375 20.5281 24.9094C20.8375 24.825 21.0625 24.6563 21.2594 24.4031C21.4844 24.0938 21.5969 23.7 21.5125 23.2781C21.4844 23.0813 21.3719 22.9125 21.3156 22.7156C21.6531 22.6875 21.9344 22.575 22.1594 22.4063C22.5531 22.0969 22.75 21.5906 22.6656 21.0844C22.6375 20.8594 22.525 20.6063 22.3562 20.3813C22.6094 20.2688 22.8344 20.1 22.975 19.9031C23.3406 19.425 23.3687 18.7219 22.9187 18.1313C22.9469 18.1313 22.975 18.1031 23.0031 18.1031C23.65 17.85 23.9594 17.2313 23.7906 16.5563ZM16.1969 10.5375C16.6187 10.2281 16.8719 9.77813 16.9562 9.18751H19.6C19.7406 10.1719 20.3312 10.7625 21.3156 10.9313H21.3437V10.9594C21.2031 12.8719 21.1469 14.0531 21.0344 15.5156H20.6125L19.1219 15.4875L17.0406 15.4594C16.675 15.4313 16.3375 15.375 16.0562 15.2625C16 15.2344 15.9437 15.2344 15.8875 15.2063C15.8594 15.2063 15.8312 15.1781 15.8031 15.15C15.6906 15.0938 15.5781 15.0375 15.4937 14.9813C15.4937 14.8125 15.4656 14.6719 15.4656 14.5031L15.2125 10.9313C15.6062 10.875 15.9437 10.7344 16.1969 10.5375Z" fill="#FE794D"/>
</g>
<defs>
<clipPath id="clip0_2316_2835">
<rect width="18" height="18" fill="white" transform="translate(7 7.5)"/>
</clipPath>
</defs>
</svg>
