<svg width="32" height="33" viewBox="0 0 32 33" fill="none" xmlns="http://www.w3.org/2000/svg">
<path d="M0 10.5C0 4.97715 4.47715 0.5 10 0.5H22C27.5228 0.5 32 4.97715 32 10.5V22.5C32 28.0228 27.5228 32.5 22 32.5H10C4.47715 32.5 0 28.0228 0 22.5V10.5Z" fill="#E6F2FE"/>
<path d="M21.1313 20.9256C20.4616 20.9256 19.8192 20.6566 19.3457 20.1778C18.8721 19.699 18.606 19.0496 18.606 18.3724C18.606 17.6953 18.8721 17.0459 19.3457 16.5671C19.8192 16.0882 20.4616 15.8193 21.1313 15.8193H22.6532C22.6966 15.8175 22.7378 15.7988 22.7679 15.7671C22.798 15.7353 22.8148 15.693 22.8148 15.649V13.9469C22.8148 13.4955 22.6374 13.0626 22.3217 12.7434C22.006 12.4241 21.5778 12.2448 21.1313 12.2448H9.6835C9.23755 12.2466 8.81038 12.4265 8.49504 12.7453C8.17971 13.0642 8.00177 13.4961 8 13.9469V22.7979C8.00177 23.2488 8.17971 23.6807 8.49504 23.9995C8.81038 24.3183 9.23755 24.4982 9.6835 24.5H21.1313C21.5778 24.5 22.006 24.3207 22.3217 24.0015C22.6374 23.6823 22.8148 23.2494 22.8148 22.7979V21.0958C22.8148 21.0518 22.798 21.0095 22.7679 20.9778C22.7378 20.9461 22.6966 20.9274 22.6532 20.9256H21.1313Z" fill="#5AAAF6"/>
<path d="M23.1516 16.8405H21.1314C20.7295 16.8405 20.3441 17.0019 20.06 17.2892C19.7758 17.5765 19.6162 17.9661 19.6162 18.3724C19.6162 18.7787 19.7758 19.1683 20.06 19.4556C20.3441 19.7429 20.7295 19.9043 21.1314 19.9043H23.1516C23.39 19.8638 23.6063 19.7388 23.7618 19.5516C23.9173 19.3645 24.0018 19.1274 24 18.883V17.8618C24.0018 17.6173 23.9173 17.3803 23.7618 17.1931C23.6063 17.006 23.39 16.8809 23.1516 16.8405Z" fill="#5AAAF6"/>
<path d="M21.26 9.1333C21.2346 9.02591 21.1882 8.92476 21.1234 8.83587C21.0586 8.74697 20.9768 8.67216 20.8829 8.61586C20.6918 8.50267 20.4641 8.47083 20.2499 8.52735L11.5832 10.8899C11.5476 10.8991 11.5163 10.9204 11.4942 10.9501C11.4722 10.9798 11.4608 11.0162 11.462 11.0533C11.4668 11.0937 11.4857 11.131 11.5154 11.1584C11.545 11.1859 11.5834 11.2017 11.6236 11.2031H21.5697C21.5948 11.2026 21.6194 11.1961 21.6416 11.1843C21.6639 11.1725 21.683 11.1556 21.6977 11.135C21.7164 11.1116 21.7281 11.0832 21.7313 11.0533L21.26 9.1333Z" fill="#5AAAF6"/>
</svg>
