<svg width="310" height="184" viewBox="0 0 310 184" fill="none" xmlns="http://www.w3.org/2000/svg">
<path d="M284.958 85.0354C284.908 84.8093 284.861 84.5833 284.807 84.3598C283.104 76.6774 280.32 69.2744 276.182 62.4758C276.044 62.2498 275.906 62.0237 275.766 61.7977C273.037 57.4235 269.772 53.392 266.043 49.7929C263.981 47.8018 261.733 45.9098 259.058 44.546C255.312 42.6311 250.932 41.854 246.627 41.2191C242.156 40.5562 237.622 40.0026 233.102 39.4058C231.496 39.1975 229.899 38.9766 228.312 38.7429C223.944 38.1106 219.608 37.3792 215.376 36.409C210.144 35.2129 205.074 33.6459 200.283 31.4415C199.901 31.2722 199.522 31.0927 199.149 30.9031C198.775 30.7202 198.398 30.5348 198.03 30.3469C197.661 30.159 197.297 29.971 196.936 29.778C196.749 29.679 196.563 29.5799 196.378 29.4758C196.194 29.3717 196.012 29.2803 195.833 29.1787C195.293 28.8841 194.763 28.5819 194.234 28.2771L194.213 28.2644C193.862 28.0638 193.517 27.8581 193.174 27.6524C191.217 26.4892 189.3 25.2753 187.384 24.0537L186.179 23.2918L184.313 22.1109C183.949 21.8798 183.578 21.6487 183.212 21.4201C182.952 21.2525 182.693 21.0849 182.409 20.9122C181.049 20.0741 179.67 19.2513 178.255 18.4665C177.92 18.2786 177.583 18.0906 177.243 17.9078C174.384 16.3477 171.394 15.0291 168.306 13.9663L168.264 13.951C166.711 13.4209 165.126 12.9833 163.518 12.6406C162.591 12.4425 161.662 12.28 160.722 12.1555C158.209 11.8071 155.662 11.7721 153.14 12.0514C148.189 12.6127 143.549 14.4717 138.6 15.099C128.412 16.3688 118.517 12.2774 108.936 9.07242C106.58 8.28513 104.207 7.54778 101.817 6.86038C100.228 6.40071 98.6335 5.96643 97.0264 5.54739C87.1797 3.00273 77.1302 1.27892 66.9858 0.394485C62.7452 -0.0119629 58.4793 -0.104507 54.2244 0.117661C52.6069 0.214172 51.0075 0.371628 49.4367 0.625595C44.0621 1.43828 39.051 3.14238 35.0058 6.26358C31.6927 8.82607 29.3222 12.1657 27.5177 15.6602C25.6705 19.226 24.3663 23.0368 23.6465 26.9717C23.5478 27.5076 23.4595 28.046 23.3868 28.5844C23.257 29.5054 23.1601 30.4316 23.096 31.3628C22.7467 36.3262 23.3526 41.3097 24.8823 46.0545C26.596 51.3674 29.452 56.467 30.7087 61.8206C30.7606 62.0474 30.81 62.2735 30.8567 62.4987C31.0283 63.3118 31.1557 64.1332 31.2384 64.9596C31.8797 71.5372 29.4209 77.9498 27.4917 84.3827C27.4242 84.6062 27.3567 84.8322 27.2918 85.0582C27.0841 85.7727 26.885 86.4863 26.6946 87.1991C24.9083 94.0003 24.4124 101.281 26.004 108.07C26.0533 108.296 26.113 108.522 26.1702 108.745C27.2357 113.036 29.2394 117.051 32.0433 120.511C35.0239 124.169 38.9367 127.214 43.117 129.888C45.1543 131.191 47.2609 132.41 49.4367 133.542C50.9945 134.355 52.5904 135.125 54.2244 135.851C67.3234 141.692 82.2657 144.544 97.0419 143.914C97.8209 143.881 98.5998 143.841 99.3787 143.785C100.158 143.729 101.009 143.663 101.825 143.589C111.343 142.685 120.604 140.503 129.801 138.119C132.883 137.319 135.96 136.498 139.034 135.693C140.402 135.338 141.768 134.982 143.136 134.637C149.837 132.943 156.637 131.409 163.523 130.264C165.117 129.994 166.713 129.749 168.311 129.527C173.858 128.73 179.45 128.266 185.055 128.138C187.234 128.096 189.415 128.114 191.596 128.194C192.696 128.233 193.798 128.291 194.901 128.369C206.286 129.154 217.29 131.78 228.312 134.233C229.906 134.589 231.503 134.939 233.102 135.285C235.2 135.737 237.298 136.173 239.406 136.577C252.526 139.099 264.22 137.649 276.418 132.445C279.191 131.264 281.961 129.837 283.659 127.62C285.357 125.403 285.783 122.68 286.1 120.052C286.549 116.308 286.843 112.517 286.954 108.705C286.954 108.481 286.954 108.255 286.97 108.029C287.146 100.329 286.56 92.5552 284.958 85.0354Z" fill="#F0F7FF"/>
<ellipse cx="154.5" cy="155.5" rx="112.5" ry="28.5" fill="#F0F7FF"/>
<path d="M227.928 46.9759C229.157 46.8261 230.468 46.879 231.611 47.363C234.04 48.3923 234.731 51.2568 234.697 53.5851C234.661 56.0911 234.128 58.8283 236.037 60.8474C236.915 61.7757 238.006 62.4861 238.868 63.4315C239.789 64.4417 240.511 65.5975 241.046 66.8388C242.028 69.1187 242.51 71.7998 241.612 74.1915C240.821 76.2972 238.832 78.1978 239.262 80.5921C239.71 83.0899 242.233 84.9995 243.811 86.86C245.596 88.9654 247.24 91.6564 247.51 94.4175C247.769 97.0636 246.615 99.7397 244.844 101.74C241.305 105.737 235.986 107.696 230.622 107.684C228.345 107.679 225.767 107.576 223.802 106.355C223.194 105.977 222.874 105.554 222.513 104.965C222.189 104.437 221.762 104.094 221.267 103.72C220.179 102.9 219.394 101.794 218.893 100.556C216.946 95.7477 218.502 89.7994 221.226 85.5297C221.872 84.5182 222.4 83.5447 222.087 82.339C221.759 81.0804 220.955 79.9451 220.244 78.8632C219.541 77.794 218.738 76.7739 218.189 75.6178C217.613 74.4067 217.451 73.1385 217.553 71.813C217.744 69.3233 218.821 67.0257 220.345 65.0234C221.814 63.0947 223.538 61.2492 223.542 58.7221C223.546 56.0436 221.752 53.661 222.517 50.9379C222.833 49.8103 223.469 48.6533 224.493 47.9773C225.476 47.329 226.773 47.1168 227.928 46.9759Z" fill="#52A9FF"/>
<path d="M227.126 51.258C227.149 50.8982 227.576 50.6825 227.913 50.7764C228.356 50.9 228.347 51.3131 228.336 51.6812C228.3 52.8125 228.464 53.9121 228.736 55.0098C229.303 57.2921 230.349 59.3949 231.179 61.5873C232.007 63.7778 232.396 66.0395 231.91 68.3574C231.452 70.5428 230.732 72.6717 230.263 74.8599C229.85 76.7885 229.41 78.8223 230.039 80.7461C230.645 82.5978 231.984 84.1058 232.948 85.7792C234.944 89.2433 235.83 93.0862 235.948 97.041C236.003 98.8774 235.954 100.731 235.527 102.532C235.281 103.569 234.951 104.971 234.061 105.687C233.65 106.017 232.948 106.131 232.602 105.642C232.278 105.183 232.562 104.473 232.665 103.985C233.111 101.869 233.201 99.706 233.094 97.5574C232.991 95.4762 232.745 93.3985 232.088 91.4109C231.479 89.5663 230.554 87.9095 229.465 86.2959C228.355 84.6516 227.201 83.0037 226.743 81.0553C226.277 79.0764 226.655 77.0628 227.161 75.1217C227.697 73.0686 228.398 71.0744 229.122 69.0769C229.829 67.1304 230.079 65.2888 229.689 63.2516C228.919 59.2269 226.857 55.4492 227.126 51.258Z" fill="#6DB6FF"/>
<path d="M260.368 51.8594C261.888 52.3201 263.398 53.0635 264.482 54.2291C266.786 56.7077 266.079 60.4539 264.807 63.1901C263.438 66.1351 261.363 69.0954 262.532 72.4744C263.07 74.0278 263.974 75.4347 264.484 77.0001C265.029 78.6728 265.264 80.4149 265.234 82.1605C265.179 85.3667 264.324 88.7878 262.004 91.1499C259.962 93.2296 256.622 94.4443 255.858 97.4992C255.061 100.686 257.009 104.254 257.874 107.274C258.853 110.691 259.356 114.726 258.21 118.132C257.113 121.396 254.342 123.961 251.205 125.407C244.938 128.297 237.661 127.852 231.377 125.053C228.709 123.865 225.739 122.405 224.081 119.94C223.569 119.178 223.417 118.511 223.305 117.627C223.205 116.835 222.886 116.207 222.503 115.508C221.662 113.973 221.326 112.257 221.394 110.533C221.658 103.836 226.633 97.6094 232.089 93.9744C233.382 93.1133 234.517 92.2365 234.788 90.6477C235.071 88.9893 234.729 87.2291 234.467 85.5803C234.209 83.9508 233.808 82.3277 233.776 80.6752C233.742 78.9441 234.224 77.3602 235.045 75.8454C236.588 73.0002 239.067 70.8421 241.916 69.2657C244.66 67.7473 247.66 66.4601 249.003 63.4734C250.426 60.308 249.584 56.5587 251.922 53.7351C252.891 52.5659 254.249 51.5277 255.808 51.2601C257.304 51.0035 258.938 51.4261 260.368 51.8594Z" fill="#64ABFF"/>
<path d="M257.262 57.0937C257.477 56.6797 258.09 56.6479 258.435 56.9351C258.888 57.3132 258.661 57.798 258.454 58.2278C257.819 59.5489 257.434 60.9368 257.176 62.3793C256.641 65.3784 256.761 68.4161 256.58 71.4462C256.4 74.4737 255.668 77.3555 253.883 79.8462C252.2 82.1946 250.242 84.339 248.545 86.6851C247.05 88.7528 245.468 90.9313 245.195 93.5387C244.931 96.0484 245.706 98.5347 245.955 101.021C246.471 106.167 245.49 111.181 243.553 115.927C242.654 118.13 241.624 120.299 240.179 122.209C239.348 123.308 238.226 124.796 236.809 125.178C236.156 125.354 235.275 125.122 235.127 124.362C234.988 123.649 235.694 122.957 236.071 122.432C237.703 120.16 238.943 117.646 239.945 115.045C240.916 112.527 241.719 109.937 241.994 107.24C242.25 104.737 242.037 102.291 241.61 99.8104C241.176 97.2825 240.691 94.7276 241.177 92.1803C241.671 89.5931 243.17 87.4066 244.781 85.3726C246.484 83.2212 248.35 81.2263 250.246 79.2399C252.093 77.3044 253.352 75.2544 253.965 72.6379C255.177 67.4688 254.748 61.9166 257.262 57.0937Z" fill="#7CB8FF"/>
<path d="M213.368 70.8716C215.896 70.8716 218.118 72.2089 219.65 74.1067C221.442 76.3283 221.804 79.0413 222.532 81.6891C222.895 83.0068 223.518 84.3148 224.609 85.2101C225.602 86.0242 226.863 86.1872 228.052 86.5849C230.427 87.3799 232.345 89.2949 233.103 91.6315C234.027 94.4817 233.048 97.3561 233.217 100.245C233.371 102.897 235.992 104.552 238.1 105.824C240.18 107.078 242.052 108.252 242.679 110.695C243.343 113.285 243.565 116.177 242.646 118.737C241.114 122.998 236.633 124.875 232.303 125.166C228.373 125.43 223.432 125.015 220.481 122.168C218.715 120.465 218.075 118.082 218.154 115.711C218.204 114.237 218.496 112.777 218.875 111.352C219.143 110.343 219.505 109.337 219.608 108.294C219.882 105.518 217.312 104.985 215.124 104.223C212.344 103.255 210.397 101.425 209.044 98.8765C207.783 96.5035 207.254 93.8396 208.01 91.2269C208.396 89.8928 209.096 88.6824 210.045 87.6529C210.463 87.1998 211.052 86.8218 211.429 86.3457C211.781 85.9011 211.705 85.3251 211.583 84.8044C211.022 82.3991 209.275 80.4074 208.649 78.0064C208.085 75.8392 208.419 73.142 210.404 71.7439C211.262 71.1398 212.319 70.8782 213.368 70.8716Z" fill="#A0CBFF"/>
<path d="M216.812 77.1388C219.492 79.9873 220.22 83.8521 220.434 87.5979C220.553 89.6985 220.429 91.914 221.047 93.9514C221.576 95.6952 222.817 97.0282 224.095 98.2881C226.668 100.824 229.539 103.402 230.291 107.073C230.733 109.227 230.435 111.452 231.045 113.582C231.6 115.518 232.577 117.421 233.765 119.056C234.722 120.373 235.969 121.381 237.015 122.608C237.334 122.983 237.791 123.534 237.659 124.063C237.505 124.683 236.715 124.879 236.154 124.782C234.846 124.555 233.745 123.308 232.89 122.402C231.64 121.077 230.577 119.652 229.713 118.054C228.755 116.278 227.983 114.395 227.653 112.403C227.311 110.337 227.481 108.183 226.699 106.2C225.384 102.864 222.194 100.895 219.888 98.294C217.014 95.0534 217.442 91.0203 217.737 87.0341C217.899 84.8436 218.059 82.3698 216.95 80.3697C216.527 79.6062 215.583 78.8944 215.401 78.0266C215.234 77.2315 216.144 76.428 216.812 77.1388Z" fill="#B0D4FF"/>
<path d="M219.671 123.949C219.671 140.24 222.335 148.776 236.397 148.776C250.46 148.776 253.124 140.24 253.124 123.949H219.671Z" fill="#2668B6"/>
<path d="M119.132 134.115C124.188 122.911 128.847 101.997 127.647 95.2435C126.447 88.4902 119.214 95.0363 114.363 88.6903C109.512 82.3443 119.031 73.6507 115.949 68.8115C112.867 63.9723 103.15 72.8302 98.4835 69.4134C93.8167 65.9967 97.6956 56.7648 93.3215 52.2452C88.9474 47.7256 86.1286 52.8781 80.8226 51.165C76.2267 49.6811 68.0188 41.5348 64.6634 42.7164C61.3079 43.8981 66.5569 50.7026 65.0327 56.7257C63.5085 62.7487 58.3977 62.9042 58.6923 66.3123C58.9869 69.7204 68.155 64.3996 66.4963 73.6587C64.8377 82.9179 54.698 83.34 56.3517 88.9974C58.0055 94.6547 70.079 93.554 73.8039 98.6569C77.5287 103.76 64.6303 106.485 71.2348 114.776C77.8394 123.066 87.2109 121.949 95.3719 125.729C102.491 129.027 107.055 134.638 116.582 135.587C117.19 135.648 118.875 134.686 119.132 134.115Z" fill="#3F7ABF"/>
<path d="M121.779 98.6517C121.779 98.6517 116.085 103.927 113.419 108.908C110.754 113.888 111.647 123.505 111.647 123.505L111.059 122.487C111.059 122.487 110.558 112.84 113.126 108.399C115.693 103.958 121.779 98.6517 121.779 98.6517Z" fill="#376BA8"/>
<path d="M78.7462 111.279C78.7462 111.279 86.1619 108.986 91.8079 109.167C97.4539 109.349 105.846 114.637 105.846 114.637L105.258 113.619C105.258 113.619 96.6436 108.656 91.514 108.658C86.3844 108.661 78.7462 111.279 78.7462 111.279Z" fill="#376BA8"/>
<path d="M111.968 71.0592C111.968 71.0592 104.234 77.5127 101.568 82.493C98.9024 87.4733 97.2455 98.5629 97.2455 98.5629L96.6577 97.5449C96.6577 97.5449 98.7072 86.425 101.274 81.984C103.841 77.543 111.968 71.0592 111.968 71.0592Z" fill="#376BA8"/>
<path d="M60.2666 88.6933C60.2666 88.6933 69.7224 85.2225 75.3684 85.4039C81.0144 85.5853 91.4467 89.6953 91.4467 89.6953L90.8589 88.6772C90.8589 88.6772 80.204 84.8922 75.0745 84.8949C69.9449 84.8976 60.2666 88.6933 60.2666 88.6933Z" fill="#376BA8"/>
<path d="M90.4636 56.7457C90.4636 56.7457 86.4861 63.5839 85.8563 67.9744C85.2264 72.365 86.9854 80.9925 86.9854 80.9925L86.2773 80.3991C86.2773 80.3991 84.8003 71.6438 85.5022 67.6777C86.2042 63.7116 90.4636 56.7457 90.4636 56.7457Z" fill="#376BA8"/>
<path d="M61.5557 65.3851C61.5557 65.3851 67.5741 64.3052 70.9298 65.0084C74.2855 65.7116 80.0876 69.2685 80.0876 69.2685L79.8437 68.5977C79.8437 68.5977 73.8743 65.2117 70.8078 64.673C67.7414 64.1343 61.5557 65.3851 61.5557 65.3851Z" fill="#376BA8"/>
<path d="M64.6574 42.72L128.887 152.188L127.357 153.071L64.6574 42.72Z" fill="#376BA8"/>
<path d="M122.541 143.293C121.551 133.392 116.352 116.844 112.777 112.595C109.202 108.347 106.781 115.863 100.812 113.378C94.842 110.893 97.9968 100.945 93.8772 98.7997C89.7577 96.6547 86.5312 106.797 81.8765 106.291C77.2218 105.785 76.2044 97.7424 71.3085 96.3443C66.4126 94.9462 66.522 99.6994 62.1087 100.646C58.2861 101.466 49.2344 99.0772 47.3603 101.264C45.4863 103.45 51.9203 106.096 53.2897 110.936C54.659 115.775 51.1389 117.953 52.7249 120.223C54.3109 122.493 58.5847 115.052 61.1696 122.214C63.7546 129.377 56.8168 133.777 60.2661 137.074C63.7154 140.371 71.7342 134.712 76.4111 136.782C81.0879 138.852 73.1484 145.984 81.1342 149.122C89.12 152.261 95.238 147.685 102.49 147.032C108.815 146.462 114.286 148.548 121.35 145.358C121.8 145.154 122.592 143.798 122.541 143.293Z" fill="url(#paint0_linear)"/>
<path d="M110.043 117.36C110.043 117.36 108.187 123.363 108.334 127.933C108.481 132.504 113 138.885 113 138.885L112.176 138.409C112.176 138.409 107.92 131.848 107.922 127.695C107.924 123.543 110.043 117.36 110.043 117.36Z" fill="#97C6FF"/>
<path d="M84.9838 143.63C84.9838 143.63 89.2546 139.021 93.2863 136.863C97.318 134.705 105.342 135.015 105.342 135.015L104.518 134.539C104.518 134.539 96.4693 134.547 92.8742 136.625C89.2791 138.703 84.9838 143.63 84.9838 143.63Z" fill="#97C6FF"/>
<path d="M91.9964 101.986C91.9964 101.986 89.1867 109.641 89.3336 114.211C89.4805 118.782 92.8076 127.227 92.8076 127.227L91.9834 126.751C91.9834 126.751 88.9194 118.126 88.9216 113.973C88.9237 109.821 91.9964 101.986 91.9964 101.986Z" fill="#97C6FF"/>
<path d="M62.8874 135.276C62.8874 135.276 68.1117 129.016 72.1433 126.858C76.175 124.7 85.1523 123.358 85.1523 123.358L84.3282 122.882C84.3282 122.882 75.3263 124.542 71.7313 126.62C68.1362 128.698 62.8874 135.276 62.8874 135.276Z" fill="#97C6FF"/>
<path d="M71.1256 100.656C71.1256 100.656 71.1049 107.06 72.4404 110.393C73.776 113.726 78.5013 119.062 78.5013 119.062L77.7646 118.933C77.7646 118.933 73.1853 113.393 72.0721 110.328C70.9589 107.264 71.1256 100.656 71.1256 100.656Z" fill="#97C6FF"/>
<path d="M54.357 118.415C54.357 118.415 58.1392 115.221 60.7764 114.356C63.4136 113.491 68.9209 113.636 68.9209 113.636L68.4784 113.265C68.4784 113.265 62.9229 113.307 60.5551 114.17C58.1873 115.034 54.357 118.415 54.357 118.415Z" fill="#97C6FF"/>
<path d="M47.3576 101.268L136.695 152.015L135.98 153.254L47.3576 101.268Z" fill="#97C6FF"/>
<path fill-rule="evenodd" clip-rule="evenodd" d="M104.144 36.5713H202.149V159.078H104.144V36.5713Z" fill="#F0F0F0"/>
<g filter="url(#filter0_d)">
<rect x="102.101" y="34.5288" width="98.0056" height="122.507" fill="url(#paint1_linear)"/>
</g>
<rect x="116.395" y="136.618" width="69.4206" height="2.04178" fill="#D3DBE4"/>
<path fill-rule="evenodd" clip-rule="evenodd" d="M159.271 126.409H185.815V128.451H159.271V126.409Z" fill="#D3DBE4"/>
<rect x="136.812" y="126.409" width="18.376" height="2.04178" fill="#D3DBE4"/>
<rect x="116.395" y="126.409" width="16.3343" height="2.04178" fill="#D3DBE4"/>
<rect x="140.896" y="116.2" width="49.0028" height="2.04178" fill="#B5B5B5"/>
<rect x="116.395" y="116.2" width="16.3343" height="2.04178" fill="#B5B5B5"/>
<path fill-rule="evenodd" clip-rule="evenodd" d="M150.393 60.5356C150.961 59.535 152.404 59.535 152.973 60.5356L168.729 88.2495C169.291 89.2387 168.576 90.4668 167.439 90.4668H135.926C134.789 90.4668 134.074 89.2387 134.637 88.2495L150.393 60.5356ZM153.767 84.1055C153.767 84.4041 153.713 84.684 153.606 84.9453C153.5 85.2066 153.35 85.4306 153.158 85.6172C152.965 85.8038 152.741 85.9532 152.484 86.0651C152.228 86.1771 151.957 86.2331 151.672 86.2331C151.387 86.2331 151.12 86.1808 150.871 86.0763C150.621 85.9718 150.404 85.8225 150.219 85.6284C150.033 85.4343 149.884 85.2104 149.77 84.9565C149.656 84.7027 149.599 84.4265 149.599 84.1279C149.599 83.8442 149.652 83.5717 149.759 83.3104C149.866 83.0491 150.012 82.8214 150.197 82.6273C150.383 82.4332 150.603 82.2802 150.86 82.1682C151.116 82.0562 151.387 82.0003 151.672 82.0003C151.957 82.0003 152.228 82.0562 152.484 82.1682C152.741 82.2802 152.965 82.4295 153.158 82.6161C153.35 82.8028 153.5 83.0267 153.606 83.288C153.713 83.5493 153.767 83.8218 153.767 84.1055ZM149.599 69.3023L150.641 79.8844H152.725L153.767 69.3023H149.599Z" fill="#D0021B"/>
<path fill-rule="evenodd" clip-rule="evenodd" d="M224.205 155.22C224.407 155.238 225.512 155.335 226.363 155.659C227.097 155.938 227.383 156.288 227.238 156.704C227.082 157.105 226.413 157.353 225.577 157.486C225.557 157.91 224.982 158.205 223.985 158.286C223.595 158.317 223.2 158.33 222.808 158.33C222.393 158.33 221.988 158.314 221.593 158.291C222.19 158.676 222.68 159.073 223.018 159.477C224.509 161.255 223.137 162.932 219.149 164.209L220.546 165.875C221.179 166.629 219.619 167.244 217.075 167.244H211.186C209.033 167.244 206.794 166.787 205.808 166.181C202.503 166.339 198.995 166.339 195.433 166.181C195.471 166.787 193.999 167.244 191.838 167.244H185.95C183.405 167.244 180.814 166.629 180.182 165.875L178.784 164.209C175.681 163.561 173.083 162.816 171.041 161.988L168.9 161.983H167.647C165.102 161.983 162.511 161.368 161.879 160.614L159.524 157.806C158.891 157.052 160.45 156.437 162.995 156.437H167.356C168.251 155.701 169.732 155.049 171.678 154.504L169.072 151.396C168.994 151.303 169.118 151.218 169.379 151.183C169.639 151.148 169.991 151.166 170.275 151.234L178.644 153.22C181.797 152.854 185.396 152.654 189.28 152.654C201.753 152.654 214.021 154.65 219.945 157.4C220.213 157.523 220.465 157.646 220.703 157.771C221.448 157.848 222.396 157.903 223.216 157.836C223.502 157.813 223.716 157.732 223.795 157.611C222.51 157.611 221.233 157.442 220.432 157.177C220.301 157.133 220.178 157.089 220.074 157.04C219.34 156.697 219.332 156.342 220.061 156.11C220.747 155.891 221.9 155.847 223.004 155.987C223.04 155.991 223.075 155.996 223.11 156C223.161 156.006 223.211 156.012 223.258 156.019C224.238 156.17 224.916 156.511 225.274 156.864C225.449 156.783 225.581 156.678 225.632 156.544C225.733 156.263 225.578 156.031 225.166 155.875C224.751 155.717 224.178 155.669 224.17 155.669C224.037 155.659 223.91 155.638 223.804 155.615C223.546 155.56 223.365 155.474 223.369 155.386C223.373 155.26 223.734 155.186 224.184 155.218C224.189 155.219 224.196 155.22 224.205 155.22ZM222.143 156.37C221.814 156.37 221.534 156.41 221.362 156.465C221.232 156.507 220.981 156.618 221.25 156.799C221.285 156.823 221.33 156.848 221.393 156.876C221.741 157.038 222.584 157.148 223.429 157.148C223.443 157.147 223.458 157.147 223.473 157.147C223.581 157.144 223.733 157.141 223.909 157.131C223.738 156.779 223.209 156.484 222.787 156.419C222.57 156.384 222.362 156.37 222.167 156.37H222.143Z" fill="url(#paint2_linear)"/>
<path fill-rule="evenodd" clip-rule="evenodd" d="M234.289 127.546C234.477 127.604 235.501 127.923 236.079 128.995C236.58 129.915 236.572 131.072 236.079 132.443C235.585 133.769 234.709 134.589 233.761 135.025C233.385 136.427 232.563 137.401 231.498 137.669C231.083 137.768 230.676 137.814 230.284 137.814C229.869 137.814 229.478 137.761 229.102 137.684C229.376 138.956 229.533 140.266 229.533 141.599C229.533 147.469 226.753 153.008 221.695 157.222V162.724C221.695 165.214 219.62 167.245 217.075 167.245H211.187C209.033 167.245 207.178 165.735 206.7 163.735C203.263 164.256 199.755 164.256 196.325 163.735C195.855 165.735 193.999 167.245 191.838 167.245H185.95C183.405 167.245 181.33 165.214 181.33 162.724V157.222C178.77 155.085 176.797 152.625 175.45 149.89C175.45 149.89 173.336 149.875 173.312 149.875H172.059C169.514 149.875 167.439 147.844 167.439 145.354V136.083C167.439 133.592 169.514 131.562 172.059 131.562H176.421C177.932 129.133 179.96 126.98 182.364 125.179V114.92C182.364 114.613 182.56 114.33 182.849 114.215C183.139 114.1 183.476 114.161 183.703 114.384L190.405 120.942C193.866 119.732 197.633 119.073 201.516 119.073C213.99 119.073 224.584 125.662 228.202 134.742C228.366 135.148 228.515 135.554 228.648 135.968C229.329 136.221 230.23 136.404 231.107 136.182C231.412 136.106 231.694 135.837 231.874 135.439C230.59 135.439 229.454 134.88 228.875 134.006C228.781 133.861 228.695 133.715 228.632 133.554C228.186 132.42 228.476 131.248 229.4 130.482C230.269 129.761 231.459 129.616 232.446 130.076C232.477 130.091 232.509 130.105 232.541 130.12C232.586 130.14 232.631 130.16 232.673 130.183C233.526 130.681 233.918 131.807 233.98 132.972C234.223 132.704 234.442 132.359 234.607 131.914C234.943 130.987 234.983 130.221 234.701 129.708C234.419 129.187 233.886 129.026 233.879 129.026C233.753 128.995 233.644 128.926 233.557 128.85C233.346 128.666 233.236 128.382 233.315 128.091C233.424 127.677 233.847 127.432 234.27 127.539C234.275 127.541 234.281 127.543 234.289 127.546ZM231.264 131.34C230.935 131.34 230.622 131.47 230.402 131.654C230.238 131.792 229.894 132.16 230.011 132.757C230.027 132.834 230.05 132.918 230.089 133.01C230.301 133.547 231.052 133.907 231.898 133.907C231.912 133.906 231.927 133.905 231.943 133.904C232.052 133.897 232.207 133.886 232.391 133.853C232.517 132.688 232.235 131.715 231.867 131.501C231.679 131.386 231.483 131.34 231.287 131.34H231.264Z" fill="#F78780"/>
<path fill-rule="evenodd" clip-rule="evenodd" d="M234.289 127.546C234.477 127.604 235.501 127.923 236.079 128.995C236.58 129.915 236.572 131.072 236.079 132.443C235.585 133.769 234.709 134.589 233.761 135.025C233.385 136.427 232.563 137.401 231.498 137.669C231.083 137.768 230.676 137.814 230.284 137.814C229.869 137.814 229.478 137.761 229.102 137.684C229.376 138.956 229.533 140.266 229.533 141.599C229.533 147.469 226.753 153.008 221.695 157.222V162.724C221.695 165.214 219.62 167.245 217.075 167.245H211.187C209.033 167.245 207.178 165.735 206.7 163.735C203.263 164.256 199.755 164.256 196.325 163.735C195.855 165.735 193.999 167.245 191.838 167.245H185.95C183.405 167.245 181.33 165.214 181.33 162.724V157.222C178.77 155.085 176.797 152.625 175.45 149.89C175.45 149.89 173.336 149.875 173.312 149.875H172.059C169.514 149.875 167.439 147.844 167.439 145.354V136.083C167.439 133.592 169.514 131.562 172.059 131.562H176.421C177.932 129.133 179.96 126.98 182.364 125.179V114.92C182.364 114.613 182.56 114.33 182.849 114.215C183.139 114.1 183.476 114.161 183.703 114.384L190.405 120.942C193.866 119.732 197.633 119.073 201.516 119.073C213.99 119.073 224.584 125.662 228.202 134.742C228.366 135.148 228.515 135.554 228.648 135.968C229.329 136.221 230.23 136.404 231.107 136.182C231.412 136.106 231.694 135.837 231.874 135.439C230.59 135.439 229.454 134.88 228.875 134.006C228.781 133.861 228.695 133.715 228.632 133.554C228.186 132.42 228.476 131.248 229.4 130.482C230.269 129.761 231.459 129.616 232.446 130.076C232.477 130.091 232.509 130.105 232.541 130.12C232.586 130.14 232.631 130.16 232.673 130.183C233.526 130.681 233.918 131.807 233.98 132.972C234.223 132.704 234.442 132.359 234.607 131.914C234.943 130.987 234.983 130.221 234.701 129.708C234.419 129.187 233.886 129.026 233.879 129.026C233.753 128.995 233.644 128.926 233.557 128.85C233.346 128.666 233.236 128.382 233.315 128.091C233.424 127.677 233.847 127.432 234.27 127.539C234.275 127.541 234.281 127.543 234.289 127.546ZM231.264 131.34C230.935 131.34 230.622 131.47 230.402 131.654C230.238 131.792 229.894 132.16 230.011 132.757C230.027 132.834 230.05 132.918 230.089 133.01C230.301 133.547 231.052 133.907 231.898 133.907C231.912 133.906 231.927 133.905 231.943 133.904C232.052 133.897 232.207 133.886 232.391 133.853C232.517 132.688 232.235 131.715 231.867 131.501C231.679 131.386 231.483 131.34 231.287 131.34H231.264Z" fill="url(#paint3_linear)"/>
<path fill-rule="evenodd" clip-rule="evenodd" d="M234.289 127.546C234.477 127.604 235.501 127.923 236.079 128.995C236.58 129.915 236.572 131.072 236.079 132.443C235.585 133.769 234.709 134.589 233.761 135.025C233.385 136.427 232.563 137.401 231.498 137.669C231.083 137.768 230.676 137.814 230.284 137.814C229.869 137.814 229.478 137.761 229.102 137.684C229.376 138.956 229.533 140.266 229.533 141.599C229.533 147.469 226.753 153.008 221.695 157.222V162.724C221.695 165.214 219.62 167.245 217.075 167.245H211.187C209.033 167.245 207.178 165.735 206.7 163.735C203.263 164.256 199.755 164.256 196.325 163.735C195.855 165.735 193.999 167.245 191.838 167.245H185.95C183.405 167.245 181.33 165.214 181.33 162.724V157.222C178.77 155.085 176.797 152.625 175.45 149.89C175.45 149.89 173.336 149.875 173.312 149.875H172.059C169.514 149.875 167.439 147.844 167.439 145.354V136.083C167.439 133.592 169.514 131.562 172.059 131.562H176.421C177.932 129.133 179.96 126.98 182.364 125.179V114.92C182.364 114.613 182.56 114.33 182.849 114.215C183.139 114.1 183.476 114.161 183.703 114.384L190.405 120.942C193.866 119.732 197.633 119.073 201.516 119.073C213.99 119.073 224.584 125.662 228.202 134.742C228.366 135.148 228.515 135.554 228.648 135.968C229.329 136.221 230.23 136.404 231.107 136.182C231.412 136.106 231.694 135.837 231.874 135.439C230.59 135.439 229.454 134.88 228.875 134.006C228.781 133.861 228.695 133.715 228.632 133.554C228.186 132.42 228.476 131.248 229.4 130.482C230.269 129.761 231.459 129.616 232.446 130.076C232.477 130.091 232.509 130.105 232.541 130.12C232.586 130.14 232.631 130.16 232.673 130.183C233.526 130.681 233.918 131.807 233.98 132.972C234.223 132.704 234.442 132.359 234.607 131.914C234.943 130.987 234.983 130.221 234.701 129.708C234.419 129.187 233.886 129.026 233.879 129.026C233.753 128.995 233.644 128.926 233.557 128.85C233.346 128.666 233.236 128.382 233.315 128.091C233.424 127.677 233.847 127.432 234.27 127.539C234.275 127.541 234.281 127.543 234.289 127.546ZM231.264 131.34C230.935 131.34 230.622 131.47 230.402 131.654C230.238 131.792 229.894 132.16 230.011 132.757C230.027 132.834 230.05 132.918 230.089 133.01C230.301 133.547 231.052 133.907 231.898 133.907C231.912 133.906 231.927 133.905 231.943 133.904C232.052 133.897 232.207 133.886 232.391 133.853C232.517 132.688 232.235 131.715 231.867 131.501C231.679 131.386 231.483 131.34 231.287 131.34H231.264Z" fill="url(#paint4_linear)"/>
<path fill-rule="evenodd" clip-rule="evenodd" d="M185.413 131.578C182.368 131.578 181.421 134.497 181.349 136.044C181.327 136.485 181.631 136.862 182.029 136.886C182.043 136.886 182.057 136.886 182.072 136.886C182.455 136.886 182.773 136.557 182.795 136.124C182.795 136.116 182.795 136.092 182.802 136.06C182.838 135.619 183.142 133.173 185.42 133.173C187.77 133.173 187.857 135.603 187.864 135.884C187.864 135.892 187.872 135.9 187.872 135.908C187.886 136.341 188.197 136.686 188.587 136.686C188.985 136.686 189.311 136.325 189.311 135.884C189.296 134.392 188.486 131.578 185.413 131.578Z" fill="#5C5C5C"/>
<path fill-rule="evenodd" clip-rule="evenodd" d="M172.24 134.892C171.51 134.892 170.913 135.233 170.913 135.65V144.75C170.913 145.168 171.51 145.509 172.24 145.509C172.97 145.509 173.567 145.168 173.567 144.75V135.65C173.567 135.233 172.983 134.892 172.24 134.892Z" fill="#A34842"/>
<path fill-rule="evenodd" clip-rule="evenodd" d="M197.647 126.957C198.236 126.83 203.531 125.739 208.835 127.396C208.918 127.422 209.001 127.43 209.075 127.43C209.432 127.43 209.755 127.193 209.871 126.83C210.004 126.382 209.763 125.908 209.324 125.773C203.73 124.022 198.319 125.062 197.291 125.291C196.843 125.392 196.562 125.84 196.653 126.297C196.752 126.771 197.2 127.058 197.647 126.957Z" fill="#B34E48"/>
<defs>
<filter id="filter0_d" x="101.101" y="34.5288" width="100.006" height="124.507" filterUnits="userSpaceOnUse" color-interpolation-filters="sRGB">
<feFlood flood-opacity="0" result="BackgroundImageFix"/>
<feColorMatrix in="SourceAlpha" type="matrix" values="0 0 0 0 0 0 0 0 0 0 0 0 0 0 0 0 0 0 127 0"/>
<feOffset dy="1"/>
<feGaussianBlur stdDeviation="0.5"/>
<feColorMatrix type="matrix" values="0 0 0 0 0 0 0 0 0 0 0 0 0 0 0 0 0 0 0.0440444 0"/>
<feBlend mode="normal" in2="BackgroundImageFix" result="effect1_dropShadow"/>
<feBlend mode="normal" in="SourceGraphic" in2="effect1_dropShadow" result="shape"/>
</filter>
<linearGradient id="paint0_linear" x1="35" y1="122.615" x2="109.8" y2="165.801" gradientUnits="userSpaceOnUse">
<stop stop-color="#64ABFF"/>
<stop offset="1" stop-color="#60A0ED"/>
</linearGradient>
<linearGradient id="paint1_linear" x1="102.101" y1="155.841" x2="198.194" y2="155.841" gradientUnits="userSpaceOnUse">
<stop offset="0.0275244" stop-color="#F1F8FF"/>
<stop offset="1" stop-color="#FBFDFF"/>
</linearGradient>
<linearGradient id="paint2_linear" x1="134.72" y1="151.976" x2="135.107" y2="168.208" gradientUnits="userSpaceOnUse">
<stop stop-opacity="0.01"/>
<stop offset="1" stop-opacity="0.105387"/>
</linearGradient>
<linearGradient id="paint3_linear" x1="184.693" y1="140.701" x2="184.693" y2="167.245" gradientUnits="userSpaceOnUse">
<stop stop-color="#EE817A" stop-opacity="0.01"/>
<stop offset="1" stop-color="#D86760"/>
</linearGradient>
<linearGradient id="paint4_linear" x1="176.585" y1="114.158" x2="176.585" y2="153.174" gradientUnits="userSpaceOnUse">
<stop stop-color="#FFBBB6"/>
<stop offset="1" stop-color="#D86760" stop-opacity="0.01"/>
</linearGradient>
</defs>
</svg>
