<svg width="310" height="184" viewBox="0 0 310 184" fill="none" xmlns="http://www.w3.org/2000/svg">
<path d="M284.958 85.0354C284.908 84.8093 284.861 84.5833 284.807 84.3598C283.104 76.6774 280.32 69.2744 276.182 62.4758C276.044 62.2498 275.906 62.0237 275.766 61.7977C273.037 57.4235 269.772 53.392 266.043 49.7929C263.981 47.8018 261.733 45.9098 259.058 44.546C255.312 42.6311 250.932 41.854 246.627 41.2191C242.156 40.5562 237.622 40.0026 233.102 39.4058C231.496 39.1975 229.899 38.9766 228.312 38.7429C223.944 38.1106 219.608 37.3792 215.376 36.409C210.144 35.2129 205.074 33.6459 200.283 31.4415C199.901 31.2722 199.522 31.0927 199.149 30.9031C198.775 30.7202 198.398 30.5348 198.03 30.3469C197.661 30.159 197.297 29.971 196.936 29.778C196.749 29.679 196.563 29.5799 196.378 29.4758C196.194 29.3717 196.012 29.2803 195.833 29.1787C195.293 28.8841 194.763 28.5819 194.234 28.2771L194.213 28.2644C193.862 28.0638 193.517 27.8581 193.174 27.6524C191.217 26.4892 189.3 25.2753 187.384 24.0537L186.179 23.2918L184.313 22.1109C183.949 21.8798 183.578 21.6487 183.212 21.4201C182.952 21.2525 182.693 21.0849 182.409 20.9122C181.049 20.0741 179.67 19.2513 178.255 18.4665C177.92 18.2786 177.583 18.0906 177.243 17.9078C174.384 16.3477 171.394 15.0291 168.306 13.9663L168.264 13.951C166.711 13.4209 165.126 12.9833 163.518 12.6406C162.591 12.4425 161.662 12.28 160.722 12.1555C158.209 11.8071 155.662 11.7721 153.14 12.0514C148.189 12.6127 143.549 14.4717 138.6 15.099C128.412 16.3688 118.517 12.2774 108.936 9.07242C106.58 8.28513 104.207 7.54778 101.817 6.86038C100.228 6.40071 98.6335 5.96643 97.0264 5.54739C87.1797 3.00273 77.1302 1.27892 66.9858 0.394485C62.7452 -0.0119629 58.4793 -0.104507 54.2244 0.117661C52.6069 0.214172 51.0075 0.371628 49.4367 0.625595C44.0621 1.43828 39.051 3.14238 35.0058 6.26358C31.6927 8.82607 29.3222 12.1657 27.5177 15.6602C25.6705 19.226 24.3663 23.0368 23.6465 26.9717C23.5478 27.5076 23.4595 28.046 23.3868 28.5844C23.257 29.5054 23.1601 30.4316 23.096 31.3628C22.7467 36.3262 23.3526 41.3097 24.8823 46.0545C26.596 51.3674 29.452 56.467 30.7087 61.8206C30.7606 62.0474 30.81 62.2735 30.8567 62.4987C31.0283 63.3118 31.1557 64.1332 31.2384 64.9596C31.8797 71.5372 29.4209 77.9498 27.4917 84.3827C27.4242 84.6062 27.3567 84.8322 27.2918 85.0582C27.0841 85.7727 26.885 86.4863 26.6946 87.1991C24.9083 94.0003 24.4124 101.281 26.004 108.07C26.0533 108.296 26.113 108.522 26.1702 108.745C27.2357 113.036 29.2394 117.051 32.0433 120.511C35.0239 124.169 38.9367 127.214 43.117 129.888C45.1543 131.191 47.2609 132.41 49.4367 133.542C50.9945 134.355 52.5904 135.125 54.2244 135.851C67.3234 141.692 82.2657 144.544 97.0419 143.914C97.8209 143.881 98.5998 143.841 99.3787 143.785C100.158 143.729 101.009 143.663 101.825 143.589C111.343 142.685 120.604 140.503 129.801 138.119C132.883 137.319 135.96 136.498 139.034 135.693C140.402 135.338 141.768 134.982 143.136 134.637C149.837 132.943 156.637 131.409 163.523 130.264C165.117 129.994 166.713 129.749 168.311 129.527C173.858 128.73 179.45 128.266 185.055 128.138C187.234 128.096 189.415 128.114 191.596 128.194C192.696 128.233 193.798 128.291 194.901 128.369C206.286 129.154 217.29 131.78 228.312 134.233C229.906 134.589 231.503 134.939 233.102 135.285C235.2 135.737 237.298 136.173 239.406 136.577C252.526 139.099 264.22 137.649 276.418 132.445C279.191 131.264 281.961 129.837 283.659 127.62C285.357 125.403 285.783 122.68 286.1 120.052C286.549 116.308 286.843 112.517 286.954 108.705C286.954 108.481 286.954 108.255 286.97 108.029C287.146 100.329 286.56 92.5552 284.958 85.0354Z" fill="#F0F7FF"/>
<ellipse cx="154.5" cy="155.5" rx="112.5" ry="28.5" fill="#F0F7FF"/>
<path opacity="0.23" fill-rule="evenodd" clip-rule="evenodd" d="M183.987 54.9834H231.341V114H183.987V54.9834Z" fill="#3792FC"/>
<g filter="url(#filter0_d)">
<rect x="183" y="54" width="47.3532" height="59.0167" fill="white"/>
</g>
<path fill-rule="evenodd" clip-rule="evenodd" d="M210.623 105.946C210.623 105.723 210.805 105.541 211.028 105.541H223.042C223.266 105.541 223.448 105.723 223.448 105.946V106.119C223.448 106.343 223.266 106.525 223.042 106.525H211.028C210.805 106.525 210.623 106.343 210.623 106.119V105.946Z" fill="#94C5FF"/>
<rect x="199.771" y="105.541" width="8.87873" height="0.983612" rx="0.405397" fill="#94C5FF"/>
<rect x="189.905" y="105.541" width="7.8922" height="0.983612" rx="0.405397" fill="#94C5FF"/>
<rect x="201.744" y="100.623" width="23.6766" height="0.983612" rx="0.405397" fill="#94C5FF"/>
<rect x="189.905" y="100.623" width="7.8922" height="0.983612" rx="0.405397" fill="#94C5FF"/>
<path fill-rule="evenodd" clip-rule="evenodd" d="M207.299 78.2622C214.688 78.2622 220.679 84.236 220.679 91.6068C220.679 92.2768 220.136 92.82 219.466 92.82C218.796 92.82 218.253 92.2768 218.253 91.6068C218.253 85.5776 213.349 80.6885 207.299 80.6885C201.248 80.6885 196.344 85.5776 196.344 91.6068C196.344 92.2768 195.801 92.82 195.131 92.82C194.461 92.82 193.918 92.2768 193.918 91.6068C193.918 84.236 199.909 78.2622 207.299 78.2622Z" fill="#3792FC"/>
<path fill-rule="evenodd" clip-rule="evenodd" d="M207.278 62.4922C203.921 62.4922 201.198 65.2071 201.198 68.5579C201.198 71.9087 203.921 74.6237 207.278 74.6237C210.636 74.6237 213.358 71.9087 213.358 68.5579C213.358 65.2071 210.636 62.4922 207.278 62.4922ZM207.277 64.9175C209.296 64.9175 210.931 66.5477 210.931 68.5569C210.931 70.5661 209.296 72.1964 207.277 72.1964C205.259 72.1964 203.624 70.5661 203.624 68.5569C203.624 66.5477 205.259 64.9175 207.277 64.9175Z" fill="#3792FC"/>
<path opacity="0.23" fill-rule="evenodd" clip-rule="evenodd" d="M92.3682 15.3599H206.001V156.981H92.3682V15.3599Z" fill="#3792FC"/>
<g filter="url(#filter1_d)">
<rect x="90" y="13" width="113.633" height="141.621" fill="white"/>
</g>
<path fill-rule="evenodd" clip-rule="evenodd" d="M156.286 137.088C156.286 136.864 156.468 136.682 156.692 136.682H186.656C186.88 136.682 187.062 136.864 187.062 137.088V138.637C187.062 138.861 186.88 139.042 186.656 139.042H156.692C156.468 139.042 156.286 138.861 156.286 138.637V137.088Z" fill="#94C5FF"/>
<rect x="130.244" y="136.682" width="21.3061" height="2.36035" rx="0.405397" fill="#94C5FF"/>
<rect x="106.571" y="136.682" width="18.9388" height="2.36035" rx="0.405397" fill="#94C5FF"/>
<rect x="134.98" y="124.881" width="56.8163" height="2.36035" rx="0.405397" fill="#94C5FF"/>
<rect x="106.571" y="124.881" width="18.9388" height="2.36035" rx="0.405397" fill="#94C5FF"/>
<path fill-rule="evenodd" clip-rule="evenodd" d="M148.31 71.2236C166.042 71.2236 180.419 85.5588 180.419 103.246C180.419 104.854 179.116 106.158 177.508 106.158C175.9 106.158 174.597 104.854 174.597 103.246C174.597 88.7783 162.83 77.046 148.31 77.046C133.791 77.046 122.024 88.7783 122.024 103.246C122.024 104.854 120.72 106.158 119.112 106.158C117.505 106.158 116.201 104.854 116.201 103.246C116.201 85.5588 130.579 71.2236 148.31 71.2236Z" fill="#3792FC"/>
<path fill-rule="evenodd" clip-rule="evenodd" d="M148.258 33.3784C140.202 33.3784 133.668 39.8934 133.668 47.9343C133.668 55.9751 140.202 62.4901 148.258 62.4901C156.314 62.4901 162.849 55.9751 162.849 47.9343C162.849 39.8934 156.314 33.3784 148.258 33.3784ZM148.258 39.201C153.102 39.201 157.026 43.113 157.026 47.9345C157.026 52.7559 153.102 56.668 148.258 56.668C143.413 56.668 139.49 52.7559 139.49 47.9345C139.49 43.113 143.413 39.201 148.258 39.201Z" fill="#3792FC"/>
<defs>
<filter id="filter0_d" x="182" y="54" width="49.3532" height="61.0167" filterUnits="userSpaceOnUse" color-interpolation-filters="sRGB">
<feFlood flood-opacity="0" result="BackgroundImageFix"/>
<feColorMatrix in="SourceAlpha" type="matrix" values="0 0 0 0 0 0 0 0 0 0 0 0 0 0 0 0 0 0 127 0"/>
<feOffset dy="1"/>
<feGaussianBlur stdDeviation="0.5"/>
<feColorMatrix type="matrix" values="0 0 0 0 0 0 0 0 0 0 0 0 0 0 0 0 0 0 0.0440444 0"/>
<feBlend mode="normal" in2="BackgroundImageFix" result="effect1_dropShadow"/>
<feBlend mode="normal" in="SourceGraphic" in2="effect1_dropShadow" result="shape"/>
</filter>
<filter id="filter1_d" x="89" y="13" width="115.633" height="143.621" filterUnits="userSpaceOnUse" color-interpolation-filters="sRGB">
<feFlood flood-opacity="0" result="BackgroundImageFix"/>
<feColorMatrix in="SourceAlpha" type="matrix" values="0 0 0 0 0 0 0 0 0 0 0 0 0 0 0 0 0 0 127 0"/>
<feOffset dy="1"/>
<feGaussianBlur stdDeviation="0.5"/>
<feColorMatrix type="matrix" values="0 0 0 0 0 0 0 0 0 0 0 0 0 0 0 0 0 0 0.0440444 0"/>
<feBlend mode="normal" in2="BackgroundImageFix" result="effect1_dropShadow"/>
<feBlend mode="normal" in="SourceGraphic" in2="effect1_dropShadow" result="shape"/>
</filter>
</defs>
</svg>
