<svg width="37" height="32" viewBox="0 0 37 32" fill="none" xmlns="http://www.w3.org/2000/svg">
<path d="M26.9125 17.0653L32.0433 14.5172C33.1738 13.9178 34.5789 14.3209 35.234 15.4324L24.8459 22.4604C23.4471 23.1394 21.865 23.3459 20.334 23.0493L13.0172 21.1151C12.3438 20.9373 11.6299 21.0275 11.0245 21.3669L9.5215 22.4207L9.55889 14.7499L9.61925 14.7502C11.7576 13.1629 14.6066 12.916 17.0012 14.1105L17.441 14.3295C18.1294 14.6734 18.8854 14.8565 19.6521 14.8648L23.9291 14.9139C25.2713 14.9293 26.465 15.79 26.9125 17.0653Z" fill="url(#paint0_linear)"/>
<path d="M9.52157 22.4207L9.51872 23.0501L4.82885 22.9971L4.87877 12.6498L9.569 12.7036L9.55896 14.7499L9.52157 22.4207Z" fill="url(#paint1_linear)"/>
<path d="M24.9417 23.0526L35.3297 16.0247C35.554 15.873 35.6208 15.5711 35.4821 15.336C34.6896 13.988 32.9872 13.4975 31.6162 14.2221L26.9695 16.5299C26.3255 15.3341 25.0882 14.5807 23.7394 14.5631L19.4622 14.5138C18.7728 14.5053 18.0931 14.3407 17.4738 14.0323L17.0343 13.8135C14.761 12.6727 12.079 12.7433 9.88359 14.0017L9.88903 12.8735C9.88976 12.7368 9.83643 12.6051 9.74079 12.5074C9.64515 12.4096 9.51504 12.3538 9.3791 12.3523L4.68886 12.2985C4.55292 12.2969 4.42227 12.3497 4.32566 12.4452C4.22905 12.5407 4.17441 12.6712 4.17378 12.8079L4.12386 23.1552C4.12314 23.2918 4.17648 23.4236 4.27214 23.5213C4.36779 23.6191 4.49792 23.6748 4.63387 23.6763L9.32374 23.7293C9.45969 23.7309 9.59036 23.6781 9.68695 23.5826C9.78355 23.487 9.83816 23.3565 9.83875 23.2198L9.8405 22.8564L11.1051 21.9696C11.5907 21.7032 12.1605 21.6344 12.6976 21.7773L20.0145 23.7114C20.0253 23.7144 20.0367 23.7169 20.0479 23.719C21.6872 24.033 23.38 23.8121 24.8788 23.0887C24.9006 23.0782 24.9216 23.0662 24.9417 23.0526ZM5.1517 22.652L5.19658 13.3349L8.86863 13.3739L8.83067 22.5727L8.8232 22.69L5.1517 22.652ZM20.2525 22.7107L12.9525 20.7811C12.1513 20.5678 11.301 20.6752 10.5809 21.0806C10.566 21.0889 10.5516 21.0979 10.5376 21.1077L9.84687 21.592L9.87769 15.2261C11.8468 13.8384 14.4205 13.6504 16.5842 14.7363L17.0232 14.955C17.7815 15.3325 18.6135 15.5338 19.4574 15.5441L23.7345 15.5933C24.8603 15.6074 25.8612 16.3294 26.2375 17.3987C26.2824 17.5262 26.3175 17.6569 26.3424 17.7897L19.8729 17.7161C19.6889 17.7126 19.5177 17.8085 19.4245 17.9674C19.3313 18.1263 19.3304 18.3238 19.422 18.4849C19.5137 18.6459 19.6839 18.7457 19.8679 18.7463L26.8986 18.8263C27.0346 18.8279 27.1652 18.7751 27.2618 18.6796C27.3584 18.584 27.413 18.4536 27.4137 18.3169C27.4152 18.0436 27.3867 17.7709 27.3287 17.5035L32.0806 15.1435C32.0847 15.1415 32.0883 15.1399 32.0928 15.1378C32.8204 14.7509 33.7169 14.8869 34.3045 15.4733L24.3966 22.176C23.1085 22.7892 21.6583 22.9762 20.2525 22.7107Z" fill="#3792FC"/>
<path d="M30 5.99998C30 9.31379 27.3139 12 24.0002 12C20.6865 12 18 9.31379 18 5.99998C18 2.68618 20.6865 -1.52588e-05 24.0002 -1.52588e-05C27.3139 -1.52588e-05 30 2.68618 30 5.99998Z" fill="url(#paint2_linear)"/>
<path d="M23.9999 9.59998C25.9881 9.59998 27.5999 7.9882 27.5999 5.99998C27.5999 4.01175 25.9881 2.39998 23.9999 2.39998C22.0117 2.39998 20.3999 4.01175 20.3999 5.99998C20.3999 7.9882 22.0117 9.59998 23.9999 9.59998Z" fill="#3792FC"/>
<path fill-rule="evenodd" clip-rule="evenodd" d="M25.6801 4.37302C25.6801 4.2775 25.5925 4.20007 25.4845 4.20007H23.4839H22.5156C22.4076 4.20007 22.3201 4.2775 22.3201 4.37302C22.3201 4.46855 22.4076 4.54597 22.5156 4.54597H23.4839C23.7759 4.54597 24.0528 4.67251 24.2246 4.88444C24.3055 4.9843 24.3598 5.09492 24.3891 5.20825H22.5156C22.4076 5.20825 22.3201 5.28568 22.3201 5.3812C22.3201 5.47673 22.4076 5.55416 22.5156 5.55416H24.3962C24.3892 5.58402 24.3806 5.6136 24.3695 5.64259C24.2882 5.85601 24.1032 6.01166 23.8488 6.08091C23.4615 6.18624 23.029 6.17293 22.6102 6.15989L22.5222 6.15719C22.4401 6.15347 22.3646 6.19813 22.334 6.26589C22.3035 6.33358 22.3241 6.41087 22.3857 6.45931L24.7977 8.35636C24.8349 8.38568 24.8813 8.40007 24.9275 8.40007C24.9814 8.40007 25.0351 8.38048 25.0737 8.34204C25.1455 8.2707 25.1383 8.16139 25.0575 8.09788L23.0445 6.51464C23.3517 6.51423 23.6613 6.49376 23.9637 6.41155C24.3417 6.30872 24.6175 6.0749 24.7401 5.75312C24.7649 5.68826 24.7801 5.62148 24.7909 5.55416H25.4845C25.5925 5.55416 25.6801 5.47673 25.6801 5.3812C25.6801 5.28568 25.5925 5.20825 25.4845 5.20825H24.7887C24.7551 5.02349 24.6721 4.84286 24.5425 4.68292C24.5025 4.63349 24.4571 4.58864 24.4095 4.54597H25.4845C25.5925 4.54597 25.6801 4.46855 25.6801 4.37302Z" fill="white"/>
<path d="M24 12C27.3136 12 30 9.31355 30 5.99998C30 2.68642 27.3136 -1.52588e-05 24 -1.52588e-05C20.6864 -1.52588e-05 18 2.68642 18 5.99998C18.004 9.31202 20.688 11.9957 24 12ZM24 1.33328C26.5772 1.33328 28.6664 3.4225 28.6664 5.99998C28.6664 8.57717 26.5772 10.6664 24 10.6664C21.4225 10.6664 19.3333 8.57717 19.3333 5.99998C19.3364 3.42372 21.4237 1.33634 24 1.33328Z" fill="#3792FC"/>
<defs>
<linearGradient id="paint0_linear" x1="33.2039" y1="11.0789" x2="9.40715" y2="22.1755" gradientUnits="userSpaceOnUse">
<stop stop-color="#DDEDFF"/>
<stop offset="1" stop-color="#B5D7FF"/>
</linearGradient>
<linearGradient id="paint1_linear" x1="11.1168" y1="16.0229" x2="3.28066" y2="19.677" gradientUnits="userSpaceOnUse">
<stop stop-color="#DDEDFF"/>
<stop offset="1" stop-color="#B5D7FF"/>
</linearGradient>
<linearGradient id="paint2_linear" x1="24" y1="-1.52588e-05" x2="24" y2="12" gradientUnits="userSpaceOnUse">
<stop stop-color="#DDEDFF"/>
<stop offset="1" stop-color="#B5D7FF"/>
</linearGradient>
</defs>
</svg>
