<svg width="54" height="54" viewBox="0 0 54 54" fill="none" xmlns="http://www.w3.org/2000/svg">
<path d="M34.9124 28.0653L40.0432 25.5172C41.1736 24.9178 42.5787 25.3209 43.2339 26.4324L32.8458 33.4604C31.447 34.1394 29.8649 34.3459 28.3339 34.0493L21.017 32.1151C20.3437 31.9373 19.6298 32.0275 19.0244 32.3669L17.5214 33.4207L17.5588 25.7499L17.6191 25.7502C19.7574 24.1629 22.6065 23.916 25.0011 25.1105L25.4409 25.3295C26.1293 25.6734 26.8852 25.8565 27.652 25.8648L31.9289 25.9139C33.2712 25.9293 34.4649 26.79 34.9124 28.0653Z" fill="url(#paint0_linear)"/>
<path d="M17.5214 33.4207L17.5185 34.0501L12.8287 33.9971L12.8786 23.6498L17.5688 23.7036L17.5588 25.7499L17.5214 33.4207Z" fill="url(#paint1_linear)"/>
<path d="M32.9415 34.0526L43.3296 27.0247C43.5538 26.873 43.6206 26.5711 43.4819 26.336C42.6894 24.988 40.9871 24.4975 39.6161 25.2221L34.9693 27.5299C34.3254 26.3341 33.088 25.5807 31.7392 25.5631L27.462 25.5138C26.7726 25.5053 26.093 25.3407 25.4736 25.0323L25.0341 24.8135C22.7608 23.6727 20.0788 23.7433 17.8834 25.0017L17.8888 23.8735C17.8896 23.7368 17.8363 23.6051 17.7406 23.5074C17.645 23.4096 17.5149 23.3538 17.3789 23.3523L12.6887 23.2985C12.5527 23.2969 12.4221 23.3497 12.3255 23.4452C12.2289 23.5407 12.1742 23.6712 12.1736 23.8079L12.1237 34.1552C12.123 34.2918 12.1763 34.4236 12.272 34.5213C12.3676 34.6191 12.4977 34.6748 12.6337 34.6763L17.3236 34.7293C17.4595 34.7309 17.5902 34.6781 17.6868 34.5826C17.7834 34.487 17.838 34.3565 17.8386 34.2198L17.8403 33.8564L19.1049 32.9696C19.5905 32.7032 20.1603 32.6344 20.6974 32.7773L28.0143 34.7114C28.0251 34.7144 28.0365 34.7169 28.0478 34.719C29.687 35.033 31.3798 34.8121 32.8786 34.0887C32.9004 34.0782 32.9214 34.0662 32.9415 34.0526ZM13.1515 33.652L13.1964 24.3349L16.8685 24.3739L16.8305 33.5727L16.823 33.69L13.1515 33.652ZM28.2523 33.7107L20.9523 31.7811C20.1511 31.5678 19.3008 31.6752 18.5807 32.0806C18.5658 32.0889 18.5514 32.0979 18.5374 32.1077L17.8467 32.592L17.8775 26.2261C19.8467 24.8384 22.4203 24.6504 24.584 25.7363L25.023 25.955C25.7813 26.3325 26.6133 26.5338 27.4572 26.5441L31.7343 26.5933C32.8602 26.6074 33.8611 27.3294 34.2373 28.3987C34.2822 28.5262 34.3173 28.6569 34.3422 28.7897L27.8727 28.7161C27.6887 28.7126 27.5175 28.8085 27.4243 28.9674C27.3311 29.1263 27.3302 29.3238 27.4219 29.4849C27.5135 29.6459 27.6837 29.7457 27.8677 29.7463L34.8984 29.8263C35.0344 29.8279 35.165 29.7751 35.2616 29.6796C35.3582 29.584 35.4129 29.4536 35.4135 29.3169C35.415 29.0436 35.3865 28.7709 35.3285 28.5035L40.0804 26.1435C40.0845 26.1415 40.0881 26.1399 40.0926 26.1378C40.8203 25.7509 41.7167 25.8869 42.3044 26.4733L32.3964 33.176C31.1083 33.7892 29.6581 33.9762 28.2523 33.7107Z" fill="#3792FC"/>
<path d="M37 17C37 19.7615 34.7616 22 32.0001 22C29.2387 22 27 19.7615 27 17C27 14.2385 29.2387 12 32.0001 12C34.7616 12 37 14.2385 37 17Z" fill="#94C5FF"/>
<path d="M32 20C33.6568 20 35 18.6569 35 17C35 15.3431 33.6568 14 32 14C30.3431 14 29 15.3431 29 17C29 18.6569 30.3431 20 32 20Z" fill="#3792FC"/>
<path fill-rule="evenodd" clip-rule="evenodd" d="M33 16.103C33 16.0461 32.9479 16 32.8836 16H31.6927H31.1164C31.0521 16 31 16.0461 31 16.103C31 16.1598 31.0521 16.2059 31.1164 16.2059H31.6927C31.8666 16.2059 32.0314 16.2812 32.1336 16.4074C32.1818 16.4668 32.2141 16.5327 32.2316 16.6001H31.1164C31.0521 16.6001 31 16.6462 31 16.7031C31 16.7599 31.0521 16.806 31.1164 16.806H32.2358C32.2316 16.8238 32.2265 16.8414 32.2199 16.8587C32.1715 16.9857 32.0614 17.0783 31.9099 17.1196C31.6794 17.1823 31.422 17.1743 31.1727 17.1666L31.1203 17.165C31.0714 17.1628 31.0265 17.1893 31.0083 17.2297C30.9901 17.27 31.0024 17.316 31.039 17.3448L32.4747 18.474C32.4969 18.4914 32.5245 18.5 32.552 18.5C32.5841 18.5 32.6161 18.4884 32.6391 18.4655C32.6818 18.423 32.6775 18.3579 32.6294 18.3201L31.4312 17.3777C31.6141 17.3775 31.7984 17.3653 31.9784 17.3164C32.2033 17.2552 32.3675 17.116 32.4405 16.9244C32.4552 16.8858 32.4643 16.8461 32.4707 16.806H32.8836C32.9479 16.806 33 16.7599 33 16.7031C33 16.6462 32.9479 16.6001 32.8836 16.6001H32.4694C32.4494 16.4901 32.4 16.3826 32.3229 16.2874C32.299 16.258 32.272 16.2313 32.2437 16.2059H32.8836C32.9479 16.2059 33 16.1598 33 16.103Z" fill="white"/>
<path d="M32 22C34.7613 22 37 19.7613 37 17C37 14.2387 34.7613 12 32 12C29.2387 12 27 14.2387 27 17C27.0033 19.76 29.24 21.9964 32 22ZM32 13.1111C34.1476 13.1111 35.8886 14.8521 35.8886 17C35.8886 19.1477 34.1476 20.8887 32 20.8887C29.8521 20.8887 28.1111 19.1477 28.1111 17C28.1136 14.8531 29.8531 13.1136 32 13.1111Z" fill="#3792FC"/>
<defs>
<linearGradient id="paint0_linear" x1="41.2038" y1="22.0789" x2="17.407" y2="33.1755" gradientUnits="userSpaceOnUse">
<stop stop-color="#A9D0FF"/>
<stop offset="1" stop-color="#CFE5FF"/>
</linearGradient>
<linearGradient id="paint1_linear" x1="19.1166" y1="27.0229" x2="11.2805" y2="30.677" gradientUnits="userSpaceOnUse">
<stop stop-color="#A9D0FF"/>
<stop offset="1" stop-color="#CFE5FF"/>
</linearGradient>
</defs>
</svg>
