<svg width="17" height="21" viewBox="0 0 17 21" fill="none" xmlns="http://www.w3.org/2000/svg">
<path fill-rule="evenodd" clip-rule="evenodd" d="M12.9982 9.78648V19.0173C12.9982 19.782 13.5354 20.4019 14.1982 20.4019H15.7982C16.4609 20.4019 16.9982 19.782 16.9982 19.0173V9.78648C16.9982 9.02177 16.4609 8.40186 15.7982 8.40186H14.1982C13.5354 8.40186 12.9982 9.02177 12.9982 9.78648ZM15.9982 19.1292C15.9982 19.3903 15.8489 19.6019 15.6648 19.6019H14.3315C14.1474 19.6019 13.9982 19.3903 13.9982 19.1292V9.67459C13.9982 9.41351 14.1474 9.20186 14.3315 9.20186H15.6648C15.8489 9.20186 15.9982 9.41351 15.9982 9.67459V19.1292Z" fill="#675AF6"/>
<path fill-rule="evenodd" clip-rule="evenodd" d="M6.97754 10.728V19.5957C6.97754 20.041 7.52577 20.4019 8.20203 20.4019H9.83469C10.511 20.4019 11.0592 20.041 11.0592 19.5957V10.728C11.0592 10.2828 10.511 9.92185 9.83469 9.92185H8.20203C7.52577 9.92185 6.97754 10.2828 6.97754 10.728ZM10.2433 19.5958C10.2433 19.7442 10.0605 19.8645 9.8351 19.8645H8.20244C7.97702 19.8645 7.79428 19.7442 7.79428 19.5958V10.7281C7.79428 10.5796 7.97702 10.4593 8.20244 10.4593H9.8351C10.0605 10.4593 10.2433 10.5796 10.2433 10.7281V19.5958Z" fill="#675AF6"/>
<path fill-rule="evenodd" clip-rule="evenodd" d="M0.855469 13.1038V19.62C0.855469 20.0518 1.4037 20.4019 2.07996 20.4019H3.71262C4.38888 20.4019 4.93711 20.0518 4.93711 19.62V13.1038C4.93711 12.672 4.38888 12.3219 3.71262 12.3219H2.07996C1.4037 12.3219 0.855469 12.672 0.855469 13.1038ZM4.1207 19.62C4.1207 19.7639 3.93796 19.8806 3.71254 19.8806H2.07988C1.85446 19.8806 1.67172 19.7639 1.67172 19.62V13.1038C1.67172 12.9599 1.85446 12.8432 2.07988 12.8432H3.71254C3.93796 12.8432 4.1207 12.9599 4.1207 13.1038V19.62Z" fill="#675AF6"/>
<path fill-rule="evenodd" clip-rule="evenodd" d="M15.4745 0.991063C15.6279 1.0974 15.7092 1.2803 15.6856 1.46543L15.4517 3.29367C15.4166 3.56757 15.1662 3.76121 14.8922 3.72617C14.6183 3.69113 14.4247 3.44067 14.4597 3.16676L14.5715 2.29361L1.23349 9.33355C0.989279 9.46245 0.686813 9.36897 0.557914 9.12476C0.429016 8.88054 0.522497 8.57808 0.766709 8.44918L14.9562 0.959788C15.1213 0.872671 15.3211 0.88473 15.4745 0.991063Z" fill="#FFBD00"/>
<path fill-rule="evenodd" clip-rule="evenodd" d="M12.515 0.780706C12.582 0.512809 12.8535 0.349928 13.1214 0.416903L15.1214 0.916902C15.3893 0.983877 15.5521 1.25534 15.4852 1.52324C15.4182 1.79114 15.1467 1.95402 14.8788 1.88705L12.8788 1.38704C12.6109 1.32007 12.4481 1.0486 12.515 0.780706Z" fill="#FFBD00"/>
</svg>
