<svg width="39" height="40" viewBox="0 0 39 40" fill="none" xmlns="http://www.w3.org/2000/svg">
<path d="M20.6897 0H2.75862C1.23508 0 0 1.23508 0 2.75862V37.2414C0 38.7649 1.23508 40 2.75862 40H20.6897C22.2132 40 23.4483 38.7649 23.4483 37.2414V2.75862C23.4483 1.23508 22.2132 0 20.6897 0Z" fill="#9BC9FF"/>
<path d="M19.9997 2.75863H17.2411C17.24 3.12411 17.0943 3.47431 16.8359 3.73274C16.5774 3.99118 16.2272 4.13685 15.8617 4.13794H7.58589C7.22041 4.13685 6.87021 3.99118 6.61177 3.73274C6.35334 3.47431 6.20767 3.12411 6.20658 2.75863H3.44796C3.26505 2.75863 3.08963 2.83129 2.9603 2.96062C2.83096 3.08996 2.7583 3.26537 2.7583 3.44828V36.5517C2.7583 36.7346 2.83096 36.9101 2.9603 37.0394C3.08963 37.1687 3.26505 37.2414 3.44796 37.2414H19.9997C20.1826 37.2414 20.358 37.1687 20.4873 37.0394C20.6167 36.9101 20.6893 36.7346 20.6893 36.5517V3.44828C20.6893 3.26537 20.6167 3.08996 20.4873 2.96062C20.358 2.83129 20.1826 2.75863 19.9997 2.75863Z" fill="#D1E7F8"/>
<path d="M38.6211 17.9311V27.5862C38.6211 28.3179 38.3305 29.0195 37.8132 29.5369C37.2958 30.0542 36.5942 30.3449 35.8625 30.3449H23.4487V17.9311H38.6211Z" fill="#3792FC"/>
<path d="M23.4487 13.7931H38.6211V17.9311H23.4487V13.7931Z" fill="white"/>
<path d="M38.6211 13.7931V12.4138C38.6211 11.6822 38.3305 10.9805 37.8132 10.4632C37.2958 9.94583 36.5942 9.65519 35.8625 9.65519H23.4487V13.7931H38.6211Z" fill="#3792FC"/>
<path d="M5.51709 12.4138V13.7931H20.6895V9.65519H8.27571C7.54408 9.65519 6.84241 9.94583 6.32507 10.4632C5.80773 10.9805 5.51709 11.6822 5.51709 12.4138Z" fill="#3792FC"/>
<path d="M20.6895 17.9311V30.3449H8.27571C7.54408 30.3449 6.84241 30.0542 6.32507 29.5369C5.80773 29.0195 5.51709 28.3179 5.51709 27.5862V17.9311H20.6895Z" fill="#3792FC"/>
<path d="M5.51709 13.7931H20.6895V17.9311H5.51709V13.7931Z" fill="white"/>
<path d="M32.4142 27.5862C33.5568 27.5862 34.4831 26.6599 34.4831 25.5172C34.4831 24.3745 33.5568 23.4482 32.4142 23.4482C31.2715 23.4482 30.3452 24.3745 30.3452 25.5172C30.3452 26.6599 31.2715 27.5862 32.4142 27.5862Z" fill="#F2F8FF"/>
<path d="M28.9655 27.5862C30.1081 27.5862 31.0344 26.6599 31.0344 25.5172C31.0344 24.3745 30.1081 23.4482 28.9655 23.4482C27.8228 23.4482 26.8965 24.3745 26.8965 25.5172C26.8965 26.6599 27.8228 27.5862 28.9655 27.5862Z" fill="#F2F8FF"/>
<path d="M15.1727 24.8276V23.4482C15.1727 23.0824 15.0274 22.7316 14.7687 22.4729C14.51 22.2142 14.1592 22.0689 13.7934 22.0689H12.4141V24.8276H15.1727Z" fill="#F2F8FF"/>
<path d="M12.4141 27.5862H13.7934C14.1592 27.5862 14.51 27.4409 14.7687 27.1822C15.0274 26.9235 15.1727 26.5727 15.1727 26.2069V24.8276H12.4141V27.5862Z" fill="#F2F8FF"/>
<path d="M9.65519 27.5862H12.4138V22.0689H9.65519C9.28937 22.0689 8.93854 22.2142 8.67987 22.4729C8.4212 22.7316 8.27588 23.0824 8.27588 23.4482V26.2069C8.27588 26.5727 8.4212 26.9235 8.67987 27.1822C8.93854 27.4409 9.28937 27.5862 9.65519 27.5862Z" fill="#F2F8FF"/>
<path d="M2.7583 20.6896V36.5517C2.7583 36.7346 2.83096 36.91 2.9603 37.0393C3.08963 37.1687 3.26505 37.2413 3.44796 37.2413H19.31C17.1361 37.2426 14.9832 36.8154 12.9745 35.984C10.9657 35.1526 9.14058 33.9335 7.60336 32.3963C6.06614 30.8591 4.847 29.0339 4.01564 27.0252C3.18429 25.0165 2.75703 22.8636 2.7583 20.6896Z" fill="#9BC9FF" fill-opacity="0.4"/>
</svg>
