<svg width="31" height="41" viewBox="0 0 31 41" fill="none" xmlns="http://www.w3.org/2000/svg">
<path d="M30.2832 13.6201V13.6369C30.2077 13.3764 30.1186 13.1196 30.016 12.8675C29.8435 12.4444 29.5958 11.9444 29.2896 11.6344C28.6367 11.0242 27.7572 10.6839 26.8423 10.6875C25.9258 10.6757 25.0432 11.0172 24.3952 11.6344C23.7471 12.2516 23.3887 13.092 23.4013 13.9646C23.3984 13.0947 23.042 12.2596 22.4067 11.6344C21.7539 11.024 20.8743 10.6837 19.9594 10.6875C19.0484 10.676 18.1709 11.0134 17.5238 11.6241C16.8767 12.2347 16.5145 13.0672 16.5184 13.9346C16.5074 13.0751 16.1516 12.2521 15.5239 11.6344C14.8718 11.0233 13.9923 10.6829 13.0774 10.6875C12.161 10.6757 11.2785 11.0171 10.6304 11.6341C9.98221 12.251 9.62343 13.0912 9.6355 13.9637C9.63256 13.0943 9.27652 12.2596 8.64189 11.6344C7.9894 11.0235 7.10962 10.6831 6.19452 10.6875C5.28091 10.6903 4.40389 11.0297 3.74715 11.6344C3.13577 12.2527 2.75354 13.6369 2.75354 13.6369V13.6272C2.75369 6.39697 8.90709 0.534536 16.5008 0.530001H16.5184C20.1669 0.527822 23.6668 1.90575 26.2482 4.36064C28.8296 6.81553 30.2811 10.1463 30.2832 13.6201Z" fill="#7FB9FF"/>
<path d="M13.5793 17.1279C19.2292 17.1279 23.3844 21.0929 23.8104 25.9515C24.1592 29.93 22.6707 31.239 22.044 32.39C22.0013 32.3891 22.4153 35.3541 21.212 35.3541C20.0087 35.3541 19.6941 35.3103 19.4482 35.3541C19.2819 34.8893 21.3564 28.9626 20.8407 28.9619C21.5053 28.9619 12.9556 28.9619 13.6201 28.9619C12.9553 28.9619 12.4164 29.4751 12.4164 30.1081C12.4164 30.7411 12.9553 31.2542 13.6201 31.2542H19.4519C19.4503 31.2557 19.4491 31.2575 19.4482 31.2595H13.6201C13.1902 31.2595 12.793 31.4779 12.5781 31.8323C12.3631 32.1868 12.3631 32.6235 12.5781 32.978C12.793 33.3325 13.1902 33.5509 13.6201 33.5509H18.6652L13.6201 33.5562C13.3009 33.5558 12.9947 33.6766 12.7694 33.8918C12.7294 33.93 12.6922 33.9707 12.6581 34.0137H10.3554C10.0549 34.0136 9.76677 34.1272 9.55431 34.3295C9.34186 34.5318 9.22254 34.8062 9.22264 35.0923C9.22267 35.3786 9.10323 35.6531 8.89062 35.8556C8.678 36.058 8.38963 36.1717 8.08895 36.1717H6.51272C5.88702 36.1711 5.38011 35.688 5.37995 35.0923C5.38451 33.5217 4.77728 32.0054 3.6757 30.8364C3.12282 30.2596 2.66235 29.6084 2.30914 28.9036H0.769095C0.344613 28.9038 0.000307323 28.5764 0 28.1722V23.5259C0.000307323 23.1217 0.344613 22.7943 0.769095 22.7945H2.25719L2.82867 21.9341C4.00636 20.1622 5.76204 18.8071 7.8264 18.0766C7.93191 17.2091 7.84694 16.3303 7.57776 15.4955L7.46458 15.144C9.0988 15.143 10.6114 15.9661 11.4399 17.3072C12.1461 17.1876 12.862 17.1276 13.5793 17.1279Z" fill="#CAE3FF"/>
<path d="M13.8064 39.8848C18.4796 39.8848 21.9165 39.1118 22.2689 38.1644C22.5574 37.3887 21.3262 37.1335 20.8078 36.909C20.7725 36.9092 21.1149 36.3311 20.1197 36.3311C19.1244 36.3311 18.8642 36.3396 18.6607 36.3311C18.5232 36.4217 13.4846 36.6827 13.8401 36.6827C13.5761 36.6818 13.3228 36.6582 13.1365 36.6162C13.1033 36.6088 13.0726 36.6008 13.0444 36.5925H11.1398C10.8913 36.5925 10.6529 36.5703 10.4772 36.5309C10.3014 36.4914 10.2027 36.4379 10.2028 36.3822C10.2028 36.3263 10.1041 36.2728 9.9282 36.2333C9.75234 36.1939 9.51381 36.1717 9.26511 36.1717H7.96136C7.44382 36.1718 7.02453 36.266 7.02441 36.3822C7.02817 36.6884 6.52592 36.984 5.61476 37.212C5.15746 37.3244 4.77658 37.4514 4.48443 37.5888H3.21061C2.8595 37.5888 2.57472 37.6526 2.57446 37.7314V38.6374C2.57472 38.7162 2.8595 38.78 3.21061 38.78H4.44146L4.91416 38.9477C5.88826 39.2932 7.34044 39.5574 9.04794 39.6999C9.13522 39.869 9.06494 40.0404 8.84229 40.2031L8.74867 40.2717C10.1004 40.2719 11.3515 40.1114 12.0368 39.8499C12.6209 39.8732 13.2131 39.8849 13.8064 39.8848Z" fill="url(#paint0_linear)"/>
<path d="M20.6515 28.7C21.3161 28.7 21.8548 29.2507 21.8548 29.93C21.8548 30.6093 21.3161 31.16 20.6515 31.16H13.4309C12.7664 31.16 12.2277 30.6093 12.2277 29.93C12.2277 29.2507 12.7664 28.7 13.4309 28.7L20.6515 28.7Z" fill="#7FB9FF"/>
<path d="M20.6515 31.16C21.3161 31.16 21.8548 31.7107 21.8548 32.39C21.8548 33.0693 21.3161 33.62 20.6515 33.62H13.4309C12.7664 33.62 12.2277 33.0693 12.2277 32.39C12.2277 31.7107 12.7664 31.16 13.4309 31.16L20.6515 31.16Z" fill="#3792FC"/>
<path d="M20.6515 33.62C21.3161 33.62 21.8548 34.1707 21.8548 34.85C21.8548 35.5293 21.3161 36.08 20.6515 36.08H13.4309C12.7664 36.08 12.2277 35.5293 12.2277 34.85C12.2277 34.1707 12.7664 33.62 13.4309 33.62L20.6515 33.62Z" fill="#7FB9FF"/>
<path d="M7.17791 24.0921C8.20634 24.0912 9.03979 23.2976 9.04081 22.3184C9.04081 22.0257 8.79159 21.7884 8.48417 21.7884C8.17674 21.7884 7.92752 22.0257 7.92752 22.3184C7.92752 22.7128 7.5917 23.0326 7.17745 23.0326C6.76319 23.0326 6.42737 22.7128 6.42737 22.3184C6.42737 22.0257 6.17815 21.7884 5.87073 21.7884C5.5633 21.7884 5.31409 22.0257 5.31409 22.3184C5.31552 23.2978 6.14929 24.0912 7.17791 24.0921Z" fill="#3792FC"/>
<path fill-rule="evenodd" clip-rule="evenodd" d="M17.0751 16.9044C17.0751 17.1971 16.8258 17.4343 16.5184 17.4343C16.211 17.4343 15.9618 17.1971 15.9618 16.9044V13.939C15.9529 13.2166 15.6542 12.5247 15.1268 12.0053C14.5817 11.4946 13.8458 11.2111 13.0811 11.2175C12.3119 11.2052 11.5703 11.4905 11.026 12.0081C10.4816 12.5257 10.181 13.2313 10.1929 13.9637C10.1929 14.2564 9.94369 14.4937 9.63627 14.4937C9.32884 14.4937 9.07962 14.2564 9.07962 13.9637C9.07733 13.2327 8.77813 12.5309 8.24466 12.0052C7.70241 11.4987 6.97256 11.2157 6.21292 11.2175C5.44121 11.2169 4.69915 11.5004 4.14193 12.0087C3.72695 12.4394 3.38832 13.4254 3.29212 13.772C3.22055 14.0292 2.9597 14.1961 2.6825 14.1619C2.4053 14.1277 2.19772 13.903 2.19739 13.6369V13.6272C2.19739 6.1177 8.6139 0.00459333 16.501 0H16.5277C24.4152 0 30.8351 6.10799 30.8396 13.6196V13.6366C30.8391 13.9027 30.6315 14.1272 30.3543 14.1613C30.0772 14.1954 29.8164 14.0285 29.7449 13.7713C29.7442 13.7684 29.654 13.4457 29.4968 13.0581C29.2481 12.4486 29.0314 12.149 28.8913 12.0044C28.3477 11.4981 27.617 11.2154 26.8567 11.2172H26.8445C26.0753 11.2049 25.3338 11.4904 24.7897 12.0082C24.2456 12.5261 23.9454 13.232 23.9579 13.9644C23.9579 14.2571 23.7087 14.4944 23.4013 14.4944C23.0939 14.4944 22.8447 14.2571 22.8447 13.9644C22.8422 13.233 22.5428 12.5308 22.0089 12.0049C21.4656 11.4981 20.7346 11.2151 19.9739 11.2172C19.2073 11.2022 18.467 11.483 17.9211 11.9955C17.3752 12.5081 17.0701 13.209 17.0751 13.939V16.9044ZM15.9256 11.2675C15.9267 11.2685 15.9277 11.2696 15.9288 11.2706C16.1539 11.4968 16.3517 11.7464 16.5184 12.0146C16.685 11.7464 16.8827 11.4968 17.1077 11.2706C17.1152 11.2631 17.1229 11.2558 17.1307 11.2487C17.8929 10.5445 18.9146 10.1527 19.9767 10.1574C21.0322 10.1552 22.046 10.5502 22.797 11.2564C22.8021 11.2612 22.8072 11.2661 22.8121 11.2711C23.037 11.4974 23.2345 11.747 23.4011 12.0152C23.5675 11.7472 23.7648 11.4977 23.9893 11.2714C23.9971 11.2636 24.0051 11.2559 24.0133 11.2485C24.7762 10.5454 25.7973 10.1539 26.859 10.1574C27.8068 10.1554 28.7246 10.4739 29.4488 11.0562C28.1988 5.35547 22.8785 1.06 16.527 1.06H16.5008C10.1501 1.06371 4.83311 5.36183 3.5866 11.0627C4.31629 10.477 5.24022 10.1563 6.19457 10.1574C7.25618 10.1504 8.27712 10.5458 9.03214 11.2564C9.03725 11.2612 9.04235 11.2661 9.04727 11.2711C9.27186 11.4972 9.46924 11.7465 9.63573 12.0144C9.80237 11.7463 10 11.4969 10.225 11.2708C10.2326 11.2631 10.2404 11.2557 10.2485 11.2485C11.0071 10.5491 12.0215 10.1579 13.0775 10.1574C14.1393 10.1484 15.1609 10.5442 15.9144 11.2567C15.9183 11.2602 15.922 11.2639 15.9256 11.2675Z" fill="#3792FC"/>
<defs>
<linearGradient id="paint0_linear" x1="4.38687" y1="39.5187" x2="4.38687" y2="36.1717" gradientUnits="userSpaceOnUse">
<stop stop-color="white"/>
<stop offset="1" stop-color="#DBECFF"/>
</linearGradient>
</defs>
</svg>
