<svg width="54" height="54" viewBox="0 0 54 54" fill="none" xmlns="http://www.w3.org/2000/svg">
<path fill-rule="evenodd" clip-rule="evenodd" d="M13 45.652C13 43.7259 14.5669 42.1675 16.493 42.1779L35.5464 42.2816C37.216 42.2907 38.6733 43.4152 39.1055 45.0279C39.3808 46.0551 39.1982 47.1582 38.3948 47.855C36.7734 49.2612 33.2783 51.3897 26.9764 51.3897C20.3668 51.3897 16.147 49.3092 14.2207 48.0708C13.4054 47.5466 13 46.6213 13 45.652Z" fill="url(#paint0_linear)"/>
<path fill-rule="evenodd" clip-rule="evenodd" d="M40.6527 5.69428L40.6124 5.22525L40.1571 5.10649C39.4599 4.9242 38.7414 4.83205 38.0202 4.83205C36.0445 4.83205 34.1234 5.53431 32.6104 6.80978C30.6067 8.50019 29.5126 11.0382 29.6403 13.6507C29.4806 13.8527 29.3289 14.0562 29.1818 14.26C29.1741 11.895 28.4309 9.55788 26.9995 7.60877C24.8403 4.66721 21.343 2.93302 17.6763 3.00198L17.2055 3.01028L17.0564 3.457C15.8929 6.93884 16.4927 10.7804 18.6607 13.7323C20.5472 16.3018 23.4558 17.9459 26.6048 18.2764C26.6569 18.8399 26.6065 19.4271 26.436 20.0724C26.3218 20.5065 26.003 22.7458 26.003 25.0352C26.003 27.3246 26.5824 27.7717 26.6014 27.8292C26.6254 27.9025 26.6612 27.968 26.7053 28.0261C26.8326 28.1912 27.0278 28.2882 27.2341 28.2882C27.3028 28.2882 27.3726 28.2776 27.4413 28.2553C27.791 28.1414 27.9822 27.7651 27.8683 27.4154C27.8668 27.4111 27.8491 27.3553 27.8196 27.2523C27.8094 27.2163 27.1853 27.9146 27.1477 25.3214C27.1137 22.9727 27.6619 20.6493 27.7243 20.4121C27.7361 20.368 27.7452 20.3248 27.7561 20.2813C27.9367 19.6102 28.1547 18.9603 28.4109 18.3319L28.6032 17.8843C29.1203 16.7167 29.765 15.639 30.5394 14.6357C31.1135 14.757 31.6995 14.8217 32.2871 14.8217C34.2636 14.8217 36.1856 14.1192 37.698 12.844C39.7819 11.088 40.8862 8.41492 40.6527 5.69428Z" fill="#2871C6"/>
<path fill-rule="evenodd" clip-rule="evenodd" d="M19.7353 12.9439C17.9175 10.4688 17.3498 7.28482 18.1799 4.33754C21.2374 4.42883 24.1151 5.9318 25.9255 8.39774C27.6611 10.7609 28.254 13.7698 27.5818 16.6023C27.0281 15.0956 25.9149 13.6576 24.5381 11.8793C23.9729 11.1496 23.333 10.3231 22.6714 9.41222C22.4553 9.11431 22.0384 9.04849 21.7408 9.26455C21.4429 9.4809 21.377 9.89728 21.5931 10.1952C22.2668 11.1227 22.9132 11.958 23.4838 12.6952C24.7879 14.3793 25.7658 15.6447 26.2617 16.8899C23.6707 16.4898 21.3026 15.0784 19.7353 12.9439Z" fill="#68AEFF"/>
<path fill-rule="evenodd" clip-rule="evenodd" d="M36.8397 11.8252C35.5674 12.8984 33.9508 13.489 32.2882 13.489C32.0412 13.489 31.7943 13.4747 31.5487 13.449C32.7069 12.2098 34.0882 11.1018 35.6928 10.1299C36.0078 9.93935 36.1083 9.52955 35.9174 9.21476C35.7268 8.89997 35.317 8.79953 35.0022 8.98983C33.4446 9.93334 32.1465 10.9693 31.0614 12.055C31.3387 10.423 32.18 8.91628 33.4701 7.82826C34.7424 6.7554 36.3587 6.16446 38.0202 6.16446C38.4666 6.16446 38.9116 6.20624 39.3495 6.2898C39.3867 8.41062 38.4692 10.4516 36.8397 11.8252Z" fill="#68AEFF"/>
<path d="M17.7885 40.0367V39.0297C17.7885 38.8283 17.6526 38.694 17.4485 38.694C17.2445 38.694 17.1086 38.8283 17.1086 39.0297V40.0367" fill="#F19920"/>
<path d="M19.8286 40.0367V39.0297C19.8286 38.8283 19.6926 38.694 19.4886 38.694C19.2846 38.694 19.1486 38.8283 19.1486 39.0297V40.0367" fill="#F19920"/>
<path d="M21.8686 40.0367V39.0297C21.8686 38.8283 21.7326 38.694 21.5286 38.694C21.3246 38.694 21.1886 38.8283 21.1886 39.0297V40.0367" fill="#F19920"/>
<path d="M23.9087 40.0367V39.0297C23.9087 38.8283 23.7727 38.694 23.5687 38.694C23.3647 38.694 23.2287 38.8283 23.2287 39.0297V40.0367" fill="#F19920"/>
<path d="M18.4685 37.3514V36.3445C18.4685 36.1431 18.3326 36.0088 18.1285 36.0088C17.9245 36.0088 17.7885 36.1431 17.7885 36.3445V37.3514" fill="#F19920"/>
<path d="M20.5086 37.3514V36.3445C20.5086 36.1431 20.3726 36.0088 20.1686 36.0088C19.9646 36.0088 19.8286 36.1431 19.8286 36.3445V37.3514" fill="#F19920"/>
<path d="M22.5486 37.3514V36.3445C22.5486 36.1431 22.4126 36.0088 22.2086 36.0088C22.0046 36.0088 21.8686 36.1431 21.8686 36.3445V37.3514" fill="#F19920"/>
<path d="M17.1085 42.7218V41.7148C17.1085 41.5134 16.9725 41.3792 16.7685 41.3792C16.5645 41.3792 16.4285 41.5134 16.4285 41.7148V42.7218" fill="#F19920"/>
<path d="M19.1485 42.7218V41.7148C19.1485 41.5134 19.0125 41.3792 18.8085 41.3792C18.6045 41.3792 18.4685 41.5134 18.4685 41.7148V42.7218" fill="#F19920"/>
<path d="M21.1886 42.7218V41.7148C21.1886 41.5134 21.0526 41.3792 20.8486 41.3792C20.6446 41.3792 20.5086 41.5134 20.5086 41.7148V42.7218" fill="#F19920"/>
<path d="M37.509 40.9921C36.625 40.4743 36.1489 39.6114 36.1489 38.691C36.1489 35.1816 34.5169 31.8449 31.5928 29.3711L28.6688 26.8973V25.1714L31.0488 22.6401C31.2529 22.41 31.3889 22.1223 31.3889 21.8346C31.3889 21.1443 30.7089 20.569 29.8928 20.569H27.3088L26.6288 21.7196L25.2687 20.569H22.0046C21.1886 20.569 20.5086 21.1443 20.5086 21.8346C20.5086 22.1223 20.6446 22.4099 20.8486 22.6401L23.2286 25.1714V26.8973L20.3046 29.3711C17.3805 31.8448 15.7484 35.1816 15.7484 38.6909C15.7484 39.6114 15.2725 40.4743 14.3884 40.9921C13.5043 41.5098 13.0284 42.3728 13.0284 43.2933C13.0284 44.0987 13.7764 44.7315 14.7284 44.7315H37.1689C38.121 44.7315 38.869 44.0987 38.869 43.2933C38.869 42.3729 38.393 41.5099 37.509 40.9921Z" fill="#94C5FF"/>
<path d="M37.509 41.0408C36.625 40.4642 36.1489 39.5992 36.1489 38.6765C36.217 35.0435 34.2449 31.6411 31.2528 29.0461L28.6688 26.9124V25.1824L31.0488 22.645C31.4568 22.2414 31.5248 21.6647 31.1848 21.1456C30.9128 20.742 30.3687 20.569 29.8247 20.569C29.3488 20.569 29.0767 21.0303 29.2127 21.3763C29.2807 21.4917 29.3487 21.6647 29.3487 21.8377C29.3487 22.126 29.2127 22.4143 29.0087 22.645L26.6287 25.1824V26.9124H23.2286L22.5486 27.489H27.3087L29.8248 29.6227C32.6129 31.9871 33.7009 35.2165 33.4289 38.5035C33.3609 39.4838 33.8369 40.4065 34.7209 40.9832C34.7889 41.0409 34.8569 41.0985 34.9249 41.0985C35.945 42.0212 35.0609 43.5782 33.4969 43.5782H13.0964C13.2324 44.2125 13.9125 44.7315 14.7285 44.7315H34.449H36.149H37.169C38.121 44.7316 38.869 44.0972 38.869 43.2899V43.1746C38.869 42.3095 38.325 41.5599 37.509 41.0408Z" fill="#68AEFF"/>
<path d="M29.0088 27.9533H22.8886C22.3446 27.9533 21.8686 27.4834 21.8686 26.9463C21.8686 26.4093 22.3446 25.9393 22.8886 25.9393H29.0088C29.5528 25.9393 30.0288 26.4092 30.0288 26.9463C30.0288 27.4834 29.5528 27.9533 29.0088 27.9533Z" fill="#2871C6"/>
<path d="M29.0088 25.9394H28.6688V26.6107C28.6688 27.0134 28.3968 27.2819 27.9888 27.2819H21.9366C22.0726 27.6847 22.4807 27.9532 22.8887 27.9532H29.0088C29.5528 27.9532 30.0289 27.4833 30.0289 26.9462C30.0289 26.4091 29.5528 25.9394 29.0088 25.9394Z" fill="#2871C6"/>
<path d="M25.2272 39.733C27.7015 39.733 29.7074 37.7529 29.7074 35.3103C29.7074 32.8678 27.7015 30.8877 25.2272 30.8877C22.7529 30.8877 20.7471 32.8678 20.7471 35.3103C20.7471 37.7529 22.7529 39.733 25.2272 39.733Z" fill="#2871C6"/>
<path d="M25.2272 39.1802C27.3923 39.1802 29.1474 37.4476 29.1474 35.3103C29.1474 33.1731 27.3923 31.4405 25.2272 31.4405C23.0622 31.4405 21.3071 33.1731 21.3071 35.3103C21.3071 37.4476 23.0622 39.1802 25.2272 39.1802Z" fill="#3792FC"/>
<path fill-rule="evenodd" clip-rule="evenodd" d="M27.3395 33.2249C27.3395 33.1052 27.2284 33.0082 27.0914 33.0082H24.5525H23.3237C23.1867 33.0082 23.0756 33.1052 23.0756 33.2249C23.0756 33.3445 23.1867 33.4415 23.3237 33.4415H24.5525C24.9231 33.4415 25.2745 33.6001 25.4925 33.8656C25.5952 33.9906 25.664 34.1292 25.7013 34.2712H23.3237C23.1867 34.2712 23.0756 34.3682 23.0756 34.4879C23.0756 34.6076 23.1867 34.7045 23.3237 34.7045H25.7103C25.7014 34.742 25.6904 34.779 25.6764 34.8153C25.5731 35.0827 25.3385 35.2777 25.0156 35.3645C24.5241 35.4964 23.9752 35.4797 23.4437 35.4634L23.3321 35.46C23.2278 35.4554 23.1321 35.5113 23.0933 35.5962C23.0545 35.681 23.0807 35.7778 23.1588 35.8385L26.2197 38.2151C26.267 38.2518 26.3259 38.2698 26.3845 38.2698C26.453 38.2698 26.521 38.2453 26.5701 38.1971C26.6612 38.1078 26.652 37.9708 26.5495 37.8913L23.9949 35.9078C24.3848 35.9073 24.7777 35.8817 25.1615 35.7787C25.6411 35.6498 25.991 35.3569 26.1467 34.9538C26.1781 34.8726 26.1975 34.7889 26.2111 34.7045H27.0914C27.2284 34.7045 27.3395 34.6076 27.3395 34.4879C27.3395 34.3682 27.2284 34.2712 27.0914 34.2712H26.2083C26.1657 34.0397 26.0604 33.8135 25.8959 33.6131C25.8451 33.5512 25.7875 33.495 25.7271 33.4415H27.0914C27.2284 33.4415 27.3395 33.3445 27.3395 33.2249Z" fill="white"/>
<defs>
<linearGradient id="paint0_linear" x1="16.8835" y1="42.1589" x2="16.8835" y2="48.6881" gradientUnits="userSpaceOnUse">
<stop stop-color="#94C5FF"/>
<stop offset="1" stop-color="white" stop-opacity="0.01"/>
</linearGradient>
</defs>
</svg>
