<svg width="40" height="41" viewBox="0 0 40 41" fill="none" xmlns="http://www.w3.org/2000/svg">
<path d="M10.6625 38.4999H8.57603L5.08644 33.2751V38.4999H3V30.0293H5.08644L8.57603 35.2782V30.0293H10.6625V38.4999Z" fill="#94C5FF"/>
<path d="M14.2613 30.0293V38.4999H12.1749V30.0293H14.2613Z" fill="#94C5FF"/>
<path d="M21.3493 30.0293V31.6824H17.8598V33.4682H20.4708V35.073H17.8598V38.4999H15.7733V30.0293H21.3493Z" fill="#94C5FF"/>
<path d="M28.6076 30.0293V31.6824H26.3382V38.4999H24.2518V31.6824H21.9823V30.0293H28.6076Z" fill="#94C5FF"/>
<path d="M37 30.0293L34.0351 35.7005V38.4999H31.9486V35.7005L28.9837 30.0293H31.3508L33.0101 33.5768L34.6573 30.0293H37Z" fill="#94C5FF"/>
<path fill-rule="evenodd" clip-rule="evenodd" d="M33.8402 4.22253C34.2467 3.80904 34.9059 3.80904 35.3124 4.22253C35.6935 4.61017 35.7173 5.22361 35.3838 5.63948L35.3124 5.71989L21.4327 19.8371C21.0516 20.2248 20.4485 20.249 20.0396 19.9098L19.9605 19.8371L15.1447 14.9387L4.77706 25.4841C4.39594 25.8717 3.79282 25.8959 3.38396 25.5567L3.3049 25.4841C2.92378 25.0964 2.89996 24.483 3.23344 24.0671L3.3049 23.9867L14.4086 12.6929C14.7898 12.3052 15.3929 12.281 15.8018 12.6202L15.8808 12.6929L20.6966 17.5913L33.8402 4.22253Z" fill="#3792FC"/>
<path fill-rule="evenodd" clip-rule="evenodd" d="M35.959 2.5C36.5001 2.5 36.9448 2.91991 36.9952 3.45683L37 3.55879V13.4409C37 14.0256 36.5339 14.4997 35.959 14.4997C35.4179 14.4997 34.9733 14.0798 34.9228 13.5428L34.918 13.4409V4.61759H26.2432C25.7021 4.61759 25.2575 4.19768 25.207 3.66076L25.2023 3.55879C25.2023 3.00844 25.6151 2.55615 26.143 2.50485L26.2432 2.5H35.959Z" fill="#3792FC"/>
</svg>
