<?xml version="1.0" encoding="UTF-8"?>
<svg width="32px" height="31px" viewBox="0 0 32 31" version="1.1" xmlns="http://www.w3.org/2000/svg" xmlns:xlink="http://www.w3.org/1999/xlink">
    <!-- Generator: Sketch 51 (57462) - http://www.bohemiancoding.com/sketch -->
    <title>nps_option</title>
    <desc>Created with Sketch.</desc>
    <defs></defs>
    <g id="assets" stroke="none" stroke-width="1" fill="none" fill-rule="evenodd">
        <g id="assets_2" transform="translate(-200.000000, -217.000000)">
            <g id="report_menu_icons" transform="translate(63.000000, 214.000000)">
                <g id="nps_option" transform="translate(137.000000, 3.000000)">
                    <path d="M31.9434847,6.25355572 C32.1239115,5.79358463 31.8532714,5.24161933 31.4022046,5.0576309 C30.9511379,4.87364247 30.4098577,5.14962512 30.229431,5.6095962 L28.2447372,11.4972261 L14.9833742,9.65734173 C14.5323075,9.56534752 13.9910273,9.93332438 13.9910273,10.4852897 C13.9910273,11.037255 14.2616674,11.4972261 14.8029475,11.4972261 L18.4114817,11.9571971 L17.6897748,15.5449716 L15.8855078,15.2689889 C14.4420941,15.0850005 12.9986804,16.0969369 12.8182537,17.6608386 C12.637827,19.0407518 13.5399606,20.4206651 14.8029475,20.6966477 L12.0063335,26.4002892 C10.8335599,25.8483239 9.9314264,25.3883528 9.39014628,25.0203759 C8.93907951,24.7443933 8.39779939,24.9283817 8.12715933,25.3883528 C7.85651927,25.8483239 8.03694597,26.4002892 8.48801274,26.6762718 C10.1118531,27.596214 14.5323075,29.9880636 20.1255354,30.7240173 C21.6591624,30.9080058 23.0123627,31 24.365563,31 C26.8013236,31 28.8762307,30.7240173 30.5000711,30.4480347 C30.9511379,30.3560405 31.3119913,29.8960694 31.2217779,29.3441041 C31.1315646,28.884133 30.6804978,28.5161561 30.1392177,28.6081504 C29.5979375,28.7001446 28.9664441,28.7921388 28.2447372,28.884133 L26.6208969,21.7085841 L31.9434847,6.25355572 Z M19.7230769,12.4285714 L27.3846154,13.429972 L26.0923077,17.0714286 L19.0769231,15.9789916 L19.7230769,12.4285714 Z M14.4987158,17.9285714 C14.4987158,17.6428571 14.6782239,17.452381 14.8577319,17.2619048 C15.03724,17.0714286 15.3065021,17.0714286 15.4860101,17.0714286 L25.5384615,18.8809524 L24.9101833,20.7857143 L15.216748,18.9761905 C14.947486,18.9761905 14.7679779,18.7857143 14.5884698,18.5952381 C14.4987158,18.4047619 14.4089618,18.1190476 14.4987158,17.9285714 Z M20.2730228,28.8579545 C17.7248104,28.4780844 15.3586132,27.8133117 13.5384615,27.0535714 L16.5417118,20.7857143 L24.9144095,22.3051948 L26.4615385,29.1428571 C24.5503792,29.1428571 22.5482124,29.1428571 20.2730228,28.8579545 Z" id="Shape" fill="#3792FC" fill-rule="nonzero"></path>
                    <circle id="Oval" stroke="#35CB5D" fill="#FFFFFF" cx="9" cy="9" r="8.5"></circle>
                    <path d="M13,4.41178741 C13,4.1843392 12.7915748,4 12.5344079,4 L7.77100051,4 L5.46559211,4 C5.20842521,4 5,4.1843392 5,4.41178741 C5,4.63923562 5.20842521,4.82357483 5.46559211,4.82357483 L7.77100051,4.82357483 C8.46629684,4.82357483 9.12558256,5.12485523 9.53461248,5.62945567 C9.72728303,5.86719857 9.85645757,6.13059773 9.92636459,6.40043108 L5.46559211,6.40043108 C5.20842521,6.40043108 5,6.58477029 5,6.81221849 C5,7.0396667 5.20842521,7.22400591 5.46559211,7.22400591 L9.94316501,7.22400591 C9.92652375,7.29510357 9.90597221,7.36553773 9.8796235,7.43456441 C9.68592992,7.94270365 9.24561801,8.31331232 8.63980264,8.47818815 C7.71771204,8.72896026 6.68795322,8.69727193 5.69074951,8.66622701 L5.48123306,8.65979285 C5.28572076,8.65094585 5.1060313,8.75727064 5.03328254,8.91860766 C4.96053377,9.07978383 5.00963917,9.26380134 5.15622794,9.37913397 L10.8990156,13.8959272 C10.9877691,13.965738 11.0981653,14 11.2081978,14 C11.3365994,14 11.4642735,13.9533522 11.5563007,13.861826 C11.7272603,13.6919637 11.7099825,13.4317012 11.5177438,13.280498 L6.72487326,9.51087373 C7.45636211,9.5099086 8.19348899,9.4611697 8.91351992,9.26540982 C9.81342215,9.02058932 10.4699798,8.46387204 10.7620661,7.69772226 C10.8209471,7.54330198 10.8573215,7.38429735 10.8828972,7.22400587 L12.5344079,7.22400587 C12.7915748,7.22400587 13,7.03966667 13,6.81221846 C13,6.58477025 12.7915748,6.40043105 12.5344079,6.40043105 L10.8776229,6.40043105 C10.797622,5.96051421 10.6001319,5.53044972 10.2915634,5.14962678 C10.1961488,5.03194163 10.0880942,4.92515438 9.97483347,4.82357479 L12.5344079,4.82357479 C12.7915748,4.82357483 13,4.63923562 13,4.41178741 L13,4.41178741 Z" id="Path" fill="#35CB5D"></path>
                </g>
            </g>
        </g>
    </g>
</svg>