<svg width="20" height="20" viewBox="0 0 20 20" fill="none" xmlns="http://www.w3.org/2000/svg">
<path fill-rule="evenodd" clip-rule="evenodd" d="M18.6652 17.9999H19.6652C19.8493 17.9999 19.9985 18.1492 19.9985 18.3332C19.9985 18.5173 19.8493 18.6666 19.6652 18.6666H18.6652V19.6666C18.6652 19.8507 18.5159 19.9999 18.3319 19.9999C18.1478 19.9999 17.9985 19.8507 17.9985 19.6666V18.6666H13.6652C13.5969 18.6665 13.5303 18.6455 13.4744 18.6064C13.3235 18.5009 13.2867 18.2931 13.3922 18.1422L18.0589 11.4756C18.1212 11.3866 18.223 11.3336 18.3316 11.3335C18.5157 11.3334 18.6651 11.4825 18.6652 11.6666V17.9999ZM14.3052 17.9999H17.9985V12.7239L14.3052 17.9999Z" fill="#FFBD00"/>
<path d="M13.668 19.3331H9.72163L13.3907 15.0128C13.399 15.0029 13.4068 14.9926 13.414 14.9818C14.1042 13.9602 13.8743 12.5771 12.8907 11.8338C11.6946 10.9744 10.0284 11.2474 9.16901 12.4434C8.84313 12.897 8.66788 13.4413 8.66797 13.9998C8.66797 14.1839 8.81722 14.3331 9.0013 14.3331C9.18538 14.3331 9.33463 14.1839 9.33463 13.9998C9.33451 12.8952 10.2299 11.9997 11.3344 11.9996C11.7531 11.9996 12.1612 12.1309 12.5013 12.3751C13.1904 12.9031 13.3508 13.8754 12.868 14.5968L8.7473 19.4508C8.62818 19.5912 8.64543 19.8015 8.7858 19.9206C8.84601 19.9717 8.92234 19.9998 9.0013 19.9998H13.668C13.8521 19.9998 14.0013 19.8506 14.0013 19.6665C14.0013 19.4824 13.8521 19.3331 13.668 19.3331Z" fill="#FFBD00"/>
<path d="M9.00733 17.673C9.01429 17.489 8.87075 17.3343 8.68679 17.3273C8.68675 17.3273 8.68671 17.3273 8.68667 17.3273C4.33792 17.1659 0.847542 13.6818 0.678333 9.33333H2C2.18408 9.33333 2.33333 9.18408 2.33333 9C2.33333 8.81592 2.18408 8.66667 2 8.66667H0.678333C0.845125 4.32588 4.32583 0.845292 8.66667 0.678667V1.66667C8.66667 1.85075 8.81592 2 9 2C9.18408 2 9.33333 1.85075 9.33333 1.66667V0.678667C13.6147 0.84425 17.0702 4.2345 17.3173 8.512L16.0173 7.212C15.8849 7.08408 15.6739 7.08775 15.546 7.22017C15.4212 7.34933 15.4212 7.55412 15.546 7.68333L17.4067 9.544C17.4417 9.58642 17.4869 9.61929 17.538 9.63967C17.551 9.64358 17.5643 9.64683 17.5777 9.64933C17.6005 9.65758 17.6242 9.66329 17.6483 9.66633C17.6517 9.66633 17.6547 9.66633 17.658 9.66633C17.6613 9.66633 17.6643 9.66633 17.6673 9.66633C17.6927 9.66442 17.7178 9.6595 17.742 9.65167C17.7557 9.65 17.7693 9.64746 17.7827 9.644C17.8278 9.62796 17.8689 9.60225 17.903 9.56867L19.789 7.68333C19.9169 7.55092 19.9132 7.33992 19.7808 7.212C19.6517 7.08725 19.4469 7.08725 19.3177 7.212L17.9853 8.54333C17.7472 3.76542 13.8075 0.0117083 9.02367 0.00466667C9.01533 0.00433333 9.00833 0 9 0C8.99167 0 8.98467 0.00433333 8.97633 0.00466667C4.02425 0.0114583 0.0114583 4.02425 0.00466667 8.97633C0.00466667 8.98467 0 8.99167 0 9C0 9.00833 0.00433333 9.01533 0.00466667 9.02367C0.0129583 13.8535 3.83546 17.8141 8.662 17.9937H8.67433C8.85346 17.9936 9.00054 17.852 9.00733 17.673Z" fill="#675AF6"/>
<path fill-rule="evenodd" clip-rule="evenodd" d="M13.0057 4.52143C13.1359 4.3913 13.3469 4.3913 13.477 4.52143C13.6072 4.65159 13.6072 4.86259 13.477 4.99276L9.8984 8.57143C10.084 8.95218 10.0065 9.40884 9.70573 9.70709C9.40656 10.0065 8.95115 10.0847 8.56927 9.90222C8.07173 9.66459 7.86106 9.06859 8.09873 8.57109L6.40606 6.87843C6.28131 6.74926 6.28131 6.54447 6.40606 6.4153C6.53394 6.28288 6.74498 6.27922 6.8774 6.40709L8.5734 8.10309C8.84398 7.98243 9.15311 7.98243 9.42373 8.10309L13.0057 4.52143ZM9.2344 9.23543L9.23448 9.23534C9.36461 9.10518 9.36461 8.89409 9.2344 8.76393C9.10419 8.6338 8.89315 8.6338 8.76298 8.76401C8.63286 8.89422 8.63286 9.10526 8.76306 9.23543C8.8949 9.36147 9.10256 9.36147 9.2344 9.23543Z" fill="#675AF6"/>
</svg>
