<svg width="278" height="116" viewBox="0 0 278 116" fill="none" xmlns="http://www.w3.org/2000/svg">
<path opacity="0.06" d="M142.001 95.3035C128.413 100.958 128.001 116 128.001 116H272C275.314 116 278 113.333 278 110.02C278 96.1059 278 62.3933 278 57.791C274 52.2935 264.5 51 250 51C235.5 51 215.5 52.6169 205.5 67.4925C195.5 82.3682 198.939 86.184 185.5 92.0697C172.062 97.9553 155.588 89.6487 142.001 95.3035Z" fill="#675AF6"/>
<path opacity="0.06" fill-rule="evenodd" clip-rule="evenodd" d="M174 0C174 0 148.741 48 104.555 48C60.3679 48 53.2897 5.16599 0 0H174Z" fill="#675AF6"/>
</svg>
