<svg width="146" height="140" viewBox="0 0 146 140" fill="none" xmlns="http://www.w3.org/2000/svg">
<path opacity="0.05" d="M61.954 15C46.2169 15 19.0347 15 13.3121 30.8469C7.58955 46.6938 55.17 45.7643 66.2459 56.9175C77.3219 68.0708 95.1804 66.8625 112.026 66.8625C128.873 66.8625 125.68 85.5591 139.209 82.7094C152.737 79.8597 140.639 65.5795 144.931 56.9175C144.931 48.8427 144.931 15 144.931 15C144.931 15 88.4209 15 61.954 15Z" fill="#3792FC"/>
<path opacity="0.05" d="M72.9182 118.099C22.4364 100.15 3.05176e-05 140.535 3.05176e-05 118.099C3.05176e-05 95.6627 26.9237 84.4445 40.3855 70.9827C53.8473 57.5208 47.9561 35.0845 68.431 35.0845C88.9058 35.0845 78.5905 47.6615 100.964 57.5208C123.337 67.3802 145.836 41.8154 145.836 70.9827C145.836 100.15 123.4 136.048 72.9182 118.099Z" fill="#3792FC"/>
<path opacity="0.06" d="M128.856 4.66855e-05C131.065 2.03833e-05 132.836 1.74993 132.836 3.95908C132.836 19.6388 132.836 77.4826 132.836 97.1128C126.841 98.9884 120.458 100 113.836 100C79.0425 100 50.8364 72.069 50.8364 37.6142C50.8364 23.4882 55.5776 10.4586 63.5702 0.00100453C83.0866 0.000606436 117.259 0.000184761 128.856 4.66855e-05Z" fill="white"/>
<path opacity="0.06" d="M132.836 75.4644C127.131 78.365 120.675 80 113.836 80C90.6405 80 71.8364 61.1861 71.8364 37.978C71.8364 21.2149 81.6467 6.74431 95.8364 7.52541e-08C110.286 1.54169e-05 122.748 3.1189e-05 128.846 3.91629e-05C131.055 4.20517e-05 132.836 1.76399 132.836 3.97313C132.836 16.3043 132.836 54.3579 132.836 75.4644Z" fill="white"/>
<g opacity="0.5">
<path opacity="0.5" d="M120.647 126.368L114.94 120.742L120.742 120.566L120.647 126.368Z" fill="#002B6A"/>
<path opacity="0.5" d="M116.821 124.532C117.387 125.091 117.394 126.002 116.835 126.568C116.277 127.135 115.365 127.141 114.799 126.583C114.233 126.025 114.227 125.113 114.785 124.547C115.343 123.98 116.255 123.974 116.821 124.532Z" fill="#002B6A"/>
<path opacity="0.5" d="M113.877 127.511C114.443 128.07 114.45 128.981 113.892 129.547C113.333 130.114 112.422 130.12 111.856 129.562C111.289 129.004 111.283 128.092 111.841 127.526C112.399 126.959 113.31 126.953 113.877 127.511Z" fill="#002B6A"/>
<path opacity="0.5" d="M110.964 130.465C111.53 131.023 111.536 131.935 110.978 132.501C110.42 133.067 109.508 133.074 108.942 132.515C108.376 131.957 108.369 131.045 108.928 130.479C109.486 129.913 110.398 129.907 110.964 130.465Z" fill="#002B6A"/>
</g>
<g opacity="0.5">
<path opacity="0.5" d="M75.247 43.3732L69.5397 37.7458L75.3407 37.5701L75.247 43.3732Z" fill="white"/>
<path opacity="0.5" d="M71.4349 41.5311C72.0011 42.0897 72.0075 43.0011 71.4494 43.5676C70.8908 44.1338 69.9794 44.1402 69.413 43.5821C68.8469 43.0239 68.8403 42.1121 69.3985 41.5461C69.957 40.9795 70.8688 40.9729 71.4349 41.5311Z" fill="white"/>
<path opacity="0.5" d="M68.543 44.4913C69.1091 45.0495 69.1157 45.9613 68.5575 46.5274C67.9993 47.0934 67.0875 47.1 66.5214 46.5418C65.9553 45.9836 65.9488 45.0718 66.5068 44.5053C67.0652 43.9396 67.977 43.9331 68.543 44.4913Z" fill="white"/>
<path opacity="0.5" d="M66.0157 48.2806C65.9036 47.4934 65.1746 46.946 64.3873 47.058C63.6001 47.1701 63.0527 47.8991 63.1647 48.6864C63.2768 49.4736 64.0058 50.021 64.7931 49.909C65.5803 49.7969 66.1277 49.0679 66.0157 48.2806Z" fill="white"/>
</g>
<path d="M51.7935 121.561L60.5491 119.241L61.0205 128.286L51.7935 121.561Z" fill="#9DC5FF"/>
<path d="M101.191 100.312L109.86 97.6882L110.648 106.711L101.191 100.312Z" fill="#B0D5FF"/>
<path d="M68.0513 45.7825L68.4565 45.4896C68.3579 45.3533 68.1975 45.2757 68.0295 45.283C67.8615 45.2903 67.7084 45.3816 67.6221 45.526L68.0513 45.7825ZM93.1488 80.4981L92.7436 80.791C92.8515 80.9403 93.0328 81.0181 93.2154 80.9936C93.3979 80.9691 93.5522 80.8462 93.6169 80.6737L93.1488 80.4981ZM118.007 14.2588L113.547 17.9257L118.953 19.9543L118.007 14.2588ZM33.9797 103.755L68.4804 46.0391L67.6221 45.526L33.1214 103.242L33.9797 103.755ZM67.6461 46.0755L92.7436 80.791L93.554 80.2051L68.4565 45.4896L67.6461 46.0755ZM93.6169 80.6737L116.894 18.6476L115.958 18.2962L92.6807 80.3224L93.6169 80.6737Z" fill="#DBEBFF"/>
<path fill-rule="evenodd" clip-rule="evenodd" d="M45.4565 50.9236C45.4565 50.9236 43.604 50.5204 42.4803 51.2648C41.3567 52.0092 42.3285 52.5055 40.5367 53.312C38.7449 54.1184 36.0724 55.204 35.6169 56.972C35.1917 58.771 36.0117 60.2909 36.0117 60.2909C36.0117 60.2909 33.0051 64.8194 35.6169 66.2462C38.2286 67.673 41.8426 66.3703 44.2721 65.6879C46.732 65.0055 47.6431 64.6023 47.6431 64.6023C47.6431 64.6023 46.489 66.5874 46.6105 68.6035C46.732 70.6197 46.8535 70.8988 46.7927 71.7363C46.732 72.5427 45.7602 76.1408 44.5454 77.4125C43.3307 78.6842 42.0248 79.1184 41.9337 79.8318C41.8729 80.5142 41.7515 83.2748 41.1441 85.1048C40.5671 86.9348 40.0811 87.5241 40.2937 87.5862C40.5063 87.6792 40.9011 88.1445 40.9011 88.1445L40.0508 90.905L45.4565 90.9671C45.4565 90.9671 44.4239 88.3306 44.2721 88.1445C44.1203 87.9584 43.938 87.6482 43.9988 86.5316C44.0595 85.415 45.6387 81.91 46.7927 80.8244C47.9468 79.7388 51.3481 78.0328 52.6236 77.1643C55.5694 75.1792 60.4589 72.0155 61.4003 68.6346C60.7018 71.178 58.5456 73.6904 56.8753 74.807L58.7278 75.0241C58.7278 75.0241 56.1161 78.343 56.4198 79.7388C56.7235 81.1346 58.2116 82.5924 59.0923 84.7016C59.973 86.8107 60.1248 88.7648 60.2463 88.9199C60.3678 89.044 61.0663 89.013 61.0663 89.013C61.0663 89.013 61.2789 89.2611 61.3092 89.3852C61.3092 89.5092 61.127 89.6333 61.127 89.6333L61.6737 90.9981H65.895C65.895 90.9981 65.1054 89.4162 64.7409 89.106C64.3765 88.7958 64.0728 88.7958 64.0728 88.7958L63.101 87.9274C63.101 87.9274 63.1921 87.8033 63.0099 87.1519C62.8277 86.5006 61.1878 84.2983 61.0359 83.3678C60.8841 82.4373 60.3678 79.4906 62.0685 78.5291C63.678 77.6606 65.895 78.0018 67.7779 77.2264C66.2594 76.7921 65.8039 76.606 63.921 75.8306C67.5957 76.637 69.7519 76.9162 73.1532 77.1333C73.1532 77.1333 73.7302 78.5601 73.5177 79.8318C73.3051 81.1035 72.9103 82.5924 71.9688 84.3293C71.0274 86.0663 70.7237 86.5316 70.7237 86.5316L71.4829 87.214L69.9645 90.9981H76.0383L75.1576 87.245V86.8418C75.1576 86.8418 75.8561 85.8802 75.9776 85.508C76.099 85.1358 76.1598 83.6159 76.2509 82.7475C76.342 81.879 77.1316 79.3976 77.2834 79.2425C77.4657 79.0874 78.9234 77.8157 78.9234 77.8157C81.4744 75.5824 81.9907 73.5043 81.9907 73.5043C81.8388 75.3033 80.7455 77.1333 80.0167 78.0328L83.6002 78.7772H84.9972C84.9972 78.7772 87.1534 78.343 88.3075 77.8467C89.4615 77.3504 90.2815 76.9472 90.2815 76.9472C93.6524 75.3653 94.7457 74.1246 94.7457 74.1246C94.3206 75.2413 91.5873 77.1333 90.7066 77.5986C91.1014 78.1259 91.7392 78.8393 92.6806 79.3356C94.3206 80.173 95.839 80.3901 95.9301 80.8864C96.0212 81.4137 95.6264 81.972 94.9279 82.3132C94.2598 82.6234 92.8628 82.8095 92.5591 82.9025C92.2555 82.9956 92.1947 84.5465 92.1947 84.5465C92.1947 84.5465 91.5873 84.4844 91.2836 84.1743C90.9799 83.8641 91.0407 83.6159 91.1014 83.4919C91.1622 83.3988 91.3444 83.0266 91.3444 83.0266L90.2207 82.0341L84.6328 84.4534L88.6415 86.7177C88.6415 86.7177 89.7652 86.8418 90.4637 87.0589C91.1622 87.307 93.0754 87.276 93.2273 87.276C93.4095 87.276 94.1383 86.8107 95.2316 85.1048C96.3249 83.3988 99.5441 81.0415 99.8781 80.6383C100.182 80.2351 100.334 77.5055 100.303 76.9162C100.243 76.3269 99.2404 76.2338 98.9063 75.6445C98.8456 75.5514 98.7545 75.3653 98.633 75.1792C98.967 74.1867 99.5744 73.2561 100.03 72.0465C96.0516 68.7586 99.5137 64.044 94.5331 62.4311C97.236 62.9274 98.1167 65.3467 98.4811 67.4869C98.6937 68.8207 100.243 72.6668 102.399 69.8753C103.887 67.9212 103.249 65.2847 107.076 65.812C110.082 66.2152 114.941 64.106 116.399 65.0055C119.436 66.9286 124.234 63.1755 121.957 60.9112C121.562 60.539 120.985 60.0117 120.377 59.4534C119.254 58.4609 117.917 57.2822 117.158 56.4757C115.093 54.3045 115.366 53.4981 115.366 53.4981L116.338 52.7537C116.338 52.7537 116.338 52.7537 117.644 51.575C118.95 50.3963 120.499 46.7673 120.499 46.7673C120.499 46.7673 120.074 48.008 117.492 49.3418C114.972 50.6755 112.299 50.9236 109.505 50.6445C110.872 50.3963 111.965 50.3963 112.876 50.1172L112.694 49.5899C112.694 49.5899 115.184 49.1556 117.705 46.9224C120.165 44.7202 121.531 40.9981 121.531 40.9981C121.531 40.9981 120.013 42.9212 117.067 44.6271C114.091 46.3021 110.113 46.209 108.746 46.0539C107.379 45.8988 107.349 46.8604 107.106 47.2016C104.434 51.0167 90.0081 48.4112 87.3053 47.7909C80.9885 46.3331 66.6542 56.2276 56.0857 57.9336C54.871 58.1197 51.0748 60.9112 49.6171 61.5936C48.1594 62.276 40.1419 65.3157 37.8642 65.1296C35.5865 64.9435 35.8598 62.4931 36.7405 61.3145C37.6212 60.1358 37.9857 59.3604 39.6863 58.74C41.387 58.1197 42.7536 58.3058 43.4521 56.0415C44.1506 53.7772 43.3914 53.4671 43.6647 52.1333C43.938 50.8306 45.4565 50.9236 45.4565 50.9236ZM97.2664 72.8219L97.236 72.7599H97.2664V72.8219Z" fill="#3792FC"/>
<g opacity="0.05">
<mask id="mask0" mask-type="alpha" maskUnits="userSpaceOnUse" x="34" y="40" width="89" height="51">
<path fill-rule="evenodd" clip-rule="evenodd" d="M45.4565 50.9236C45.4565 50.9236 43.604 50.5204 42.4803 51.2648C41.3567 52.0092 42.3285 52.5055 40.5367 53.312C38.7449 54.1184 36.0724 55.204 35.6169 56.972C35.1917 58.771 36.0117 60.2909 36.0117 60.2909C36.0117 60.2909 33.0051 64.8194 35.6169 66.2462C38.2286 67.673 41.8426 66.3703 44.2721 65.6879C46.732 65.0055 47.6431 64.6023 47.6431 64.6023C47.6431 64.6023 46.489 66.5874 46.6105 68.6035C46.732 70.6197 46.8535 70.8988 46.7927 71.7363C46.732 72.5427 45.7602 76.1408 44.5454 77.4125C43.3307 78.6842 42.0248 79.1184 41.9337 79.8318C41.8729 80.5142 41.7515 83.2748 41.1441 85.1048C40.5671 86.9348 40.0811 87.5241 40.2937 87.5862C40.5063 87.6792 40.9011 88.1445 40.9011 88.1445L40.0508 90.905L45.4565 90.9671C45.4565 90.9671 44.4239 88.3306 44.2721 88.1445C44.1203 87.9584 43.938 87.6482 43.9988 86.5316C44.0595 85.415 45.6387 81.91 46.7927 80.8244C47.9468 79.7388 51.3481 78.0328 52.6236 77.1643C55.5694 75.1792 60.4589 72.0155 61.4003 68.6346C60.7018 71.178 58.5456 73.6904 56.8753 74.807L58.7278 75.0241C58.7278 75.0241 56.1161 78.343 56.4198 79.7388C56.7235 81.1346 58.2116 82.5924 59.0923 84.7016C59.973 86.8107 60.1248 88.7648 60.2463 88.9199C60.3678 89.044 61.0663 89.013 61.0663 89.013C61.0663 89.013 61.2789 89.2611 61.3092 89.3852C61.3092 89.5092 61.127 89.6333 61.127 89.6333L61.6737 90.9981H65.895C65.895 90.9981 65.1054 89.4162 64.7409 89.106C64.3765 88.7958 64.0728 88.7958 64.0728 88.7958L63.101 87.9274C63.101 87.9274 63.1921 87.8033 63.0099 87.1519C62.8277 86.5006 61.1878 84.2983 61.0359 83.3678C60.8841 82.4373 60.3678 79.4906 62.0685 78.5291C63.678 77.6606 65.895 78.0018 67.7779 77.2264C66.2594 76.7921 65.8039 76.606 63.921 75.8306C67.5957 76.637 69.7519 76.9162 73.1532 77.1333C73.1532 77.1333 73.7302 78.5601 73.5177 79.8318C73.3051 81.1035 72.9103 82.5924 71.9688 84.3293C71.0274 86.0663 70.7237 86.5316 70.7237 86.5316L71.4829 87.214L69.9645 90.9981H76.0383L75.1576 87.245V86.8418C75.1576 86.8418 75.8561 85.8802 75.9776 85.508C76.099 85.1358 76.1598 83.6159 76.2509 82.7475C76.342 81.879 77.1316 79.3976 77.2834 79.2425C77.4657 79.0874 78.9234 77.8157 78.9234 77.8157C81.4744 75.5824 81.9907 73.5043 81.9907 73.5043C81.8388 75.3033 80.7455 77.1333 80.0167 78.0328L83.6002 78.7772H84.9972C84.9972 78.7772 87.1534 78.343 88.3075 77.8467C89.4615 77.3504 90.2815 76.9472 90.2815 76.9472C93.6524 75.3653 94.7457 74.1246 94.7457 74.1246C94.3206 75.2413 91.5873 77.1333 90.7066 77.5986C91.1014 78.1259 91.7392 78.8393 92.6806 79.3356C94.3206 80.173 95.839 80.3901 95.9301 80.8864C96.0212 81.4137 95.6264 81.972 94.9279 82.3132C94.2598 82.6234 92.8628 82.8095 92.5591 82.9025C92.2555 82.9956 92.1947 84.5465 92.1947 84.5465C92.1947 84.5465 91.5873 84.4844 91.2836 84.1743C90.9799 83.8641 91.0407 83.6159 91.1014 83.4919C91.1622 83.3988 91.3444 83.0266 91.3444 83.0266L90.2207 82.0341L84.6328 84.4534L88.6415 86.7177C88.6415 86.7177 89.7652 86.8418 90.4637 87.0589C91.1622 87.307 93.0754 87.276 93.2273 87.276C93.4095 87.276 94.1383 86.8107 95.2316 85.1048C96.3249 83.3988 99.5441 81.0415 99.8781 80.6383C100.182 80.2351 100.334 77.5055 100.303 76.9162C100.243 76.3269 99.2404 76.2338 98.9063 75.6445C98.8456 75.5514 98.7545 75.3653 98.633 75.1792C98.967 74.1867 99.5744 73.2561 100.03 72.0465C96.0516 68.7586 99.5137 64.044 94.5331 62.4311C97.236 62.9274 98.1167 65.3467 98.4811 67.4869C98.6937 68.8207 100.243 72.6668 102.399 69.8753C103.887 67.9212 103.249 65.2847 107.076 65.812C110.082 66.2152 114.941 64.106 116.399 65.0055C119.436 66.9286 124.234 63.1755 121.957 60.9112C121.562 60.539 120.985 60.0117 120.377 59.4534C119.254 58.4609 117.917 57.2822 117.158 56.4757C115.093 54.3045 115.366 53.4981 115.366 53.4981L116.338 52.7537C116.338 52.7537 116.338 52.7537 117.644 51.575C118.95 50.3963 120.499 46.7673 120.499 46.7673C120.499 46.7673 120.074 48.008 117.492 49.3418C114.972 50.6755 112.299 50.9236 109.505 50.6445C110.872 50.3963 111.965 50.3963 112.876 50.1172L112.694 49.5899C112.694 49.5899 115.184 49.1556 117.705 46.9224C120.165 44.7202 121.531 40.9981 121.531 40.9981C121.531 40.9981 120.013 42.9212 117.067 44.6271C114.091 46.3021 110.113 46.209 108.746 46.0539C107.379 45.8988 107.349 46.8604 107.106 47.2016C104.434 51.0167 90.0081 48.4112 87.3053 47.7909C80.9885 46.3331 66.6542 56.2276 56.0857 57.9336C54.871 58.1197 51.0748 60.9112 49.6171 61.5936C48.1594 62.276 40.1419 65.3157 37.8642 65.1296C35.5865 64.9435 35.8598 62.4931 36.7405 61.3145C37.6212 60.1358 37.9857 59.3604 39.6863 58.74C41.387 58.1197 42.7536 58.3058 43.4521 56.0415C44.1506 53.7772 43.3914 53.4671 43.6647 52.1333C43.938 50.8306 45.4565 50.9236 45.4565 50.9236ZM97.2664 72.8219L97.236 72.7599H97.2664V72.8219Z" fill="#24154C"/>
</mask>
<g mask="url(#mask0)">
<ellipse cx="71.9832" cy="15.3524" rx="43.1243" ry="44.0447" fill="#24154C"/>
</g>
</g>
<g opacity="0.06">
<mask id="mask1" mask-type="alpha" maskUnits="userSpaceOnUse" x="34" y="40" width="89" height="51">
<path fill-rule="evenodd" clip-rule="evenodd" d="M45.4565 50.9236C45.4565 50.9236 43.604 50.5204 42.4803 51.2648C41.3567 52.0092 42.3285 52.5055 40.5367 53.312C38.7449 54.1184 36.0724 55.204 35.6169 56.972C35.1917 58.771 36.0117 60.2909 36.0117 60.2909C36.0117 60.2909 33.0051 64.8194 35.6169 66.2462C38.2286 67.673 41.8426 66.3703 44.2721 65.6879C46.732 65.0055 47.6431 64.6023 47.6431 64.6023C47.6431 64.6023 46.489 66.5874 46.6105 68.6035C46.732 70.6197 46.8535 70.8988 46.7927 71.7363C46.732 72.5427 45.7602 76.1408 44.5454 77.4125C43.3307 78.6842 42.0248 79.1184 41.9337 79.8318C41.8729 80.5142 41.7515 83.2748 41.1441 85.1048C40.5671 86.9348 40.0811 87.5241 40.2937 87.5862C40.5063 87.6792 40.9011 88.1445 40.9011 88.1445L40.0508 90.905L45.4565 90.9671C45.4565 90.9671 44.4239 88.3306 44.2721 88.1445C44.1203 87.9584 43.938 87.6482 43.9988 86.5316C44.0595 85.415 45.6387 81.91 46.7927 80.8244C47.9468 79.7388 51.3481 78.0328 52.6236 77.1643C55.5694 75.1792 60.4589 72.0155 61.4003 68.6346C60.7018 71.178 58.5456 73.6904 56.8753 74.807L58.7278 75.0241C58.7278 75.0241 56.1161 78.343 56.4198 79.7388C56.7235 81.1346 58.2116 82.5924 59.0923 84.7016C59.973 86.8107 60.1248 88.7648 60.2463 88.9199C60.3678 89.044 61.0663 89.013 61.0663 89.013C61.0663 89.013 61.2789 89.2611 61.3092 89.3852C61.3092 89.5092 61.127 89.6333 61.127 89.6333L61.6737 90.9981H65.895C65.895 90.9981 65.1054 89.4162 64.7409 89.106C64.3765 88.7958 64.0728 88.7958 64.0728 88.7958L63.101 87.9274C63.101 87.9274 63.1921 87.8033 63.0099 87.1519C62.8277 86.5006 61.1878 84.2983 61.0359 83.3678C60.8841 82.4373 60.3678 79.4906 62.0685 78.5291C63.678 77.6606 65.895 78.0018 67.7779 77.2264C66.2594 76.7921 65.8039 76.606 63.921 75.8306C67.5957 76.637 69.7519 76.9162 73.1532 77.1333C73.1532 77.1333 73.7302 78.5601 73.5177 79.8318C73.3051 81.1035 72.9103 82.5924 71.9688 84.3293C71.0274 86.0663 70.7237 86.5316 70.7237 86.5316L71.4829 87.214L69.9645 90.9981H76.0383L75.1576 87.245V86.8418C75.1576 86.8418 75.8561 85.8802 75.9776 85.508C76.099 85.1358 76.1598 83.6159 76.2509 82.7475C76.342 81.879 77.1316 79.3976 77.2834 79.2425C77.4657 79.0874 78.9234 77.8157 78.9234 77.8157C81.4744 75.5824 81.9907 73.5043 81.9907 73.5043C81.8388 75.3033 80.7455 77.1333 80.0167 78.0328L83.6002 78.7772H84.9972C84.9972 78.7772 87.1534 78.343 88.3075 77.8467C89.4615 77.3504 90.2815 76.9472 90.2815 76.9472C93.6524 75.3653 94.7457 74.1246 94.7457 74.1246C94.3206 75.2413 91.5873 77.1333 90.7066 77.5986C91.1014 78.1259 91.7392 78.8393 92.6806 79.3356C94.3206 80.173 95.839 80.3901 95.9301 80.8864C96.0212 81.4137 95.6264 81.972 94.9279 82.3132C94.2598 82.6234 92.8628 82.8095 92.5591 82.9025C92.2555 82.9956 92.1947 84.5465 92.1947 84.5465C92.1947 84.5465 91.5873 84.4844 91.2836 84.1743C90.9799 83.8641 91.0407 83.6159 91.1014 83.4919C91.1622 83.3988 91.3444 83.0266 91.3444 83.0266L90.2207 82.0341L84.6328 84.4534L88.6415 86.7177C88.6415 86.7177 89.7652 86.8418 90.4637 87.0589C91.1622 87.307 93.0754 87.276 93.2273 87.276C93.4095 87.276 94.1383 86.8107 95.2316 85.1048C96.3249 83.3988 99.5441 81.0415 99.8781 80.6383C100.182 80.2351 100.334 77.5055 100.303 76.9162C100.243 76.3269 99.2404 76.2338 98.9063 75.6445C98.8456 75.5514 98.7545 75.3653 98.633 75.1792C98.967 74.1867 99.5744 73.2561 100.03 72.0465C96.0516 68.7586 99.5137 64.044 94.5331 62.4311C97.236 62.9274 98.1167 65.3467 98.4811 67.4869C98.6937 68.8207 100.243 72.6668 102.399 69.8753C103.887 67.9212 103.249 65.2847 107.076 65.812C110.082 66.2152 114.941 64.106 116.399 65.0055C119.436 66.9286 124.234 63.1755 121.957 60.9112C121.562 60.539 120.985 60.0117 120.377 59.4534C119.254 58.4609 117.917 57.2822 117.158 56.4757C115.093 54.3045 115.366 53.4981 115.366 53.4981L116.338 52.7537C116.338 52.7537 116.338 52.7537 117.644 51.575C118.95 50.3963 120.499 46.7673 120.499 46.7673C120.499 46.7673 120.074 48.008 117.492 49.3418C114.972 50.6755 112.299 50.9236 109.505 50.6445C110.872 50.3963 111.965 50.3963 112.876 50.1172L112.694 49.5899C112.694 49.5899 115.184 49.1556 117.705 46.9224C120.165 44.7202 121.531 40.9981 121.531 40.9981C121.531 40.9981 120.013 42.9212 117.067 44.6271C114.091 46.3021 110.113 46.209 108.746 46.0539C107.379 45.8988 107.349 46.8604 107.106 47.2016C104.434 51.0167 90.0081 48.4112 87.3053 47.7909C80.9885 46.3331 66.6542 56.2276 56.0857 57.9336C54.871 58.1197 51.0748 60.9112 49.6171 61.5936C48.1594 62.276 40.1419 65.3157 37.8642 65.1296C35.5865 64.9435 35.8598 62.4931 36.7405 61.3145C37.6212 60.1358 37.9857 59.3604 39.6863 58.74C41.387 58.1197 42.7536 58.3058 43.4521 56.0415C44.1506 53.7772 43.3914 53.4671 43.6647 52.1333C43.938 50.8306 45.4565 50.9236 45.4565 50.9236ZM97.2664 72.8219L97.236 72.7599H97.2664V72.8219Z" fill="#24154C"/>
</mask>
<g mask="url(#mask1)">
<ellipse opacity="0.9" cx="56.8152" cy="110.485" rx="43.1243" ry="44.0447" fill="#24154C"/>
</g>
</g>
</svg>
