<svg width="310" height="182" viewBox="0 0 310 182" fill="none" xmlns="http://www.w3.org/2000/svg">
<path fill-rule="evenodd" clip-rule="evenodd" d="M0 6.0001C0 2.68639 2.68629 9.64517e-05 6 9.64517e-05H304C307.314 9.64517e-05 310 2.68639 310 6.0001V175.25C310 178.564 307.314 181.25 304 181.25H5.99999C2.68629 181.25 0 178.564 0 175.25L0 6.0001Z" fill="white"/>
<mask id="mask0" mask-type="alpha" maskUnits="userSpaceOnUse" x="10" y="0" width="290" height="182">
<path fill-rule="evenodd" clip-rule="evenodd" d="M10 6.0001C10 2.68639 12.6863 9.64517e-05 16 9.64517e-05H294C297.314 9.64517e-05 300 2.68639 300 6.0001V175.25C300 178.564 297.314 181.25 294 181.25H16C12.6863 181.25 10 178.564 10 175.25L10 6.0001Z" fill="white"/>
</mask>
<g mask="url(#mask0)">
<path fill-rule="evenodd" clip-rule="evenodd" d="M155 177.625C230.076 177.625 290.938 174.582 290.938 170.828C290.938 167.074 230.076 164.031 155 164.031C79.9238 164.031 19.0625 167.074 19.0625 170.828C19.0625 174.582 79.9238 177.625 155 177.625Z" fill="#F9FCFF"/>
<path d="M56.2188 173.094C66.2289 173.094 74.3438 171.877 74.3438 170.375C74.3438 168.873 66.2289 167.656 56.2188 167.656C46.2086 167.656 38.0938 168.873 38.0938 170.375C38.0938 171.877 46.2086 173.094 56.2188 173.094Z" fill="url(#paint0_radial)"/>
<path d="M153.188 174.906C175.71 174.906 193.969 173.283 193.969 171.281C193.969 169.279 175.71 167.656 153.188 167.656C130.665 167.656 112.406 169.279 112.406 171.281C112.406 173.283 130.665 174.906 153.188 174.906Z" fill="url(#paint1_radial)"/>
<path d="M250.156 174.906C265.672 174.906 278.25 173.283 278.25 171.281C278.25 169.279 265.672 167.656 250.156 167.656C234.641 167.656 222.062 169.279 222.062 171.281C222.062 173.283 234.641 174.906 250.156 174.906Z" fill="url(#paint2_radial)"/>
<path d="M62.2075 16.8653C90.2179 14.1618 96.5428 28.5805 126.36 28.5805C156.178 28.5805 179.671 8.75479 197.742 4.24895C215.813 -0.256897 268.22 -5.66393 285.387 14.1618C302.555 33.9875 284.151 48.381 285.387 69.1332C286.008 79.5576 302.234 112.298 268.22 132.215C234.205 152.132 210.962 154.826 180.574 155.645C119.513 157.291 73.9538 150.238 45.9434 129.512C17.933 108.785 14.424 78.5209 18.8365 56.5168C23.249 34.5127 34.1971 19.5688 62.2075 16.8653Z" fill="#F9FCFF"/>
<path d="M142.255 132.053C140.326 110.296 36.8441 68.3026 17.6331 88.9106C-1.57797 109.519 16.8911 148.194 57.1504 158.098C97.4097 168.002 144.183 153.811 142.255 132.053Z" fill="#F4F9FF"/>
<path d="M147.801 125.895C149.967 102.84 266.215 58.3408 287.796 80.1783C309.376 102.016 303.914 147.949 258.688 158.443C213.463 168.938 145.634 148.951 147.801 125.895Z" fill="#F4F9FE"/>
<path opacity="0.1" d="M56.302 115.098L34.501 128.514C34.501 128.514 34.501 156.186 56.302 171.278C78.1031 156.186 78.1031 128.514 78.1031 128.514L56.302 115.098Z" fill="#BED6F2"/>
<path d="M36.6784 129.777L56.3035 117.698L75.9285 129.777C75.9245 129.863 75.9199 129.956 75.9146 130.055C75.8748 130.788 75.7949 131.861 75.6339 133.198C75.3118 135.874 74.6668 139.595 73.377 143.762C70.8674 151.87 65.9472 161.572 56.3034 168.599C46.6598 161.573 41.7396 151.871 39.23 143.763C37.9402 139.596 37.2951 135.874 36.973 133.198C36.8121 131.861 36.7321 130.789 36.6924 130.055C36.6871 129.956 36.6824 129.863 36.6784 129.777Z" fill="url(#paint3_linear)" stroke="#F4F9FF" stroke-width="3"/>
<path opacity="0.3" d="M56.4289 115.937L56.0674 116.158V170.185C56.1874 170.27 56.3074 170.355 56.4289 170.439C77.5791 155.796 77.5791 128.954 77.5791 128.954L56.4289 115.937Z" fill="#F4F9FF"/>
<path d="M52.1234 142.531L55.3575 145.496L59.9397 138.758L61.5567 140.106L55.3575 148.191L50.7754 143.07L52.1234 142.531Z" fill="url(#paint4_linear)"/>
<path fill-rule="evenodd" clip-rule="evenodd" d="M267.041 123.25L239.919 134.141C236.06 135.691 234.182 140.071 235.721 143.934C235.721 143.934 244.885 165.261 245.376 167.931C245.868 170.601 241.69 174.188 241.69 174.188L269.133 163.403C272.88 161.93 274.62 157.614 272.956 153.948C269.335 145.973 263.739 133.441 263.108 130.815C262.167 126.898 267.041 123.25 267.041 123.25Z" fill="white"/>
<path d="M240.928 141.047L245.955 138.935" stroke="#EBF5FF" stroke-linecap="round" stroke-linejoin="round"/>
<path d="M247.956 138.16L253.636 135.891" stroke="#EBF5FF" stroke-linecap="round" stroke-linejoin="round"/>
<path d="M241.947 144.238L257.574 137.785" stroke="#EBF5FF" stroke-linecap="round" stroke-linejoin="round"/>
<path d="M243.03 147.263L258.742 140.605" stroke="#EBF5FF" stroke-linecap="round" stroke-linejoin="round"/>
<path d="M244.278 150.315L252.075 146.785" stroke="#EBF5FF" stroke-linecap="round" stroke-linejoin="round"/>
<path d="M245.42 153.185L261.168 146.785" stroke="#EBF5FF" stroke-linecap="round" stroke-linejoin="round"/>
<path d="M246.729 156.181L254.489 152.81" stroke="#EBF5FF" stroke-linecap="round" stroke-linejoin="round"/>
<path d="M247.736 159.137L255.633 155.759" stroke="#EBF5FF" stroke-linecap="round" stroke-linejoin="round"/>
<path d="M260.252 153.973L263.31 152.81" stroke="#EBF5FF" stroke-linecap="round" stroke-linejoin="round"/>
<path d="M249.006 162.213L256.788 158.827" stroke="#EBF5FF" stroke-linecap="round" stroke-linejoin="round"/>
<path fill-rule="evenodd" clip-rule="evenodd" d="M246.978 173.365C251.201 173.365 253.128 173.507 254.625 172.13C256.122 170.754 255.258 168.9 253.532 168.291C251.807 167.682 242.609 167.212 240.424 168.291C238.239 169.37 237.862 170.303 239.332 171.654C240.801 173.005 242.755 173.365 246.978 173.365Z" fill="url(#paint5_linear)"/>
<path fill-rule="evenodd" clip-rule="evenodd" d="M233.927 173.527C238.151 173.527 240.077 173.672 241.574 172.259C243.071 170.846 242.208 168.943 240.482 168.319C238.756 167.694 229.558 167.211 227.373 168.319C225.188 169.426 224.812 170.383 226.281 171.77C227.75 173.157 229.704 173.527 233.927 173.527Z" fill="url(#paint6_linear)"/>
<path fill-rule="evenodd" clip-rule="evenodd" d="M233.927 172.668C238.151 172.668 240.077 172.346 241.574 171.024C243.071 169.701 242.208 167.462 240.482 166.877C238.756 166.292 229.558 165.841 227.373 166.877C225.188 167.914 224.812 169.726 226.281 171.024C227.75 172.322 229.704 172.668 233.927 172.668Z" fill="url(#paint7_linear)"/>
<path fill-rule="evenodd" clip-rule="evenodd" d="M233.873 170.15C237.919 170.15 241.199 169.125 241.199 167.861C241.199 166.596 237.919 165.571 233.873 165.571C229.827 165.571 226.547 166.596 226.547 167.861C226.547 169.125 229.827 170.15 233.873 170.15Z" fill="url(#paint8_radial)"/>
<path fill-rule="evenodd" clip-rule="evenodd" d="M233.871 169.921C237.664 169.921 240.739 168.999 240.739 167.861C240.739 166.723 237.664 165.8 233.871 165.8C230.078 165.8 227.003 166.723 227.003 167.861C227.003 168.999 230.078 169.921 233.871 169.921Z" fill="url(#paint9_radial)"/>
<path fill-rule="evenodd" clip-rule="evenodd" d="M235.526 166.258L233.028 166.385L231.819 166.446C231.684 166.453 231.578 166.516 231.582 166.588C231.586 166.659 231.698 166.711 231.833 166.705L233.042 166.643C233.407 166.625 233.758 166.702 233.981 166.85C234.086 166.919 234.158 166.999 234.199 167.082L231.86 167.2C231.725 167.207 231.619 167.27 231.623 167.342C231.627 167.413 231.739 167.465 231.874 167.459L234.222 167.34C234.215 167.363 234.205 167.385 234.192 167.408C234.1 167.572 233.875 167.7 233.56 167.768C233.081 167.871 232.54 167.889 232.017 167.906L231.907 167.909C231.804 167.911 231.712 167.95 231.676 168.002C231.641 168.055 231.67 168.111 231.749 168.144L234.837 169.41C234.885 169.429 234.943 169.437 235.001 169.434C235.068 169.431 235.135 169.413 235.181 169.382C235.268 169.324 235.254 169.243 235.151 169.2L232.574 168.143C232.957 168.124 233.343 168.089 233.717 168.008C234.185 167.907 234.52 167.715 234.66 167.467C234.688 167.417 234.704 167.366 234.715 167.315L235.581 167.271C235.716 167.264 235.822 167.201 235.818 167.129C235.814 167.058 235.702 167.006 235.567 167.012L234.698 167.056C234.649 166.92 234.538 166.79 234.369 166.679C234.317 166.645 234.259 166.614 234.198 166.585L235.54 166.517C235.675 166.51 235.781 166.447 235.777 166.375C235.773 166.304 235.661 166.252 235.526 166.258Z" fill="#B5A34C"/>
<path fill-rule="evenodd" clip-rule="evenodd" d="M246.446 171.329C250.415 172.773 252.335 173.13 254.194 172.399C256.053 171.668 256.008 169.269 254.586 168.129C253.164 166.989 244.675 163.419 242.268 163.646C239.86 163.873 238.887 165.446 239.823 167.169C240.76 168.891 242.478 169.885 246.446 171.329Z" fill="url(#paint10_linear)"/>
<path fill-rule="evenodd" clip-rule="evenodd" d="M247.257 168.943C251.059 170.327 254.492 170.486 254.924 169.297C255.356 168.109 252.625 166.024 248.823 164.64C245.021 163.257 241.588 163.098 241.155 164.286C240.723 165.474 243.455 167.559 247.257 168.943Z" fill="url(#paint11_radial)"/>
<path fill-rule="evenodd" clip-rule="evenodd" d="M247.336 168.728C250.9 170.026 254.105 170.21 254.494 169.141C254.883 168.072 252.309 166.153 248.745 164.856C245.181 163.559 241.976 163.374 241.586 164.443C241.197 165.512 243.771 167.431 247.336 168.728Z" fill="url(#paint12_radial)"/>
<path fill-rule="evenodd" clip-rule="evenodd" d="M250.142 165.852L247.752 165.117L246.595 164.761C246.466 164.721 246.345 164.744 246.324 164.813C246.303 164.881 246.391 164.969 246.52 165.009L247.677 165.365C248.026 165.472 248.329 165.665 248.488 165.88C248.563 165.981 248.604 166.08 248.614 166.172L246.376 165.483C246.247 165.444 246.125 165.467 246.104 165.535C246.084 165.604 246.171 165.691 246.3 165.731L248.547 166.423C248.533 166.441 248.516 166.459 248.496 166.476C248.353 166.599 248.098 166.643 247.779 166.599C247.293 166.532 246.779 166.363 246.282 166.2L246.177 166.166C246.08 166.133 245.98 166.137 245.929 166.174C245.877 166.212 245.885 166.275 245.948 166.332L248.417 168.578C248.455 168.613 248.508 168.64 248.563 168.657C248.627 168.677 248.696 168.683 248.75 168.669C248.852 168.645 248.867 168.564 248.784 168.489L246.723 166.614C247.091 166.727 247.465 166.826 247.844 166.878C248.318 166.943 248.698 166.877 248.915 166.692C248.959 166.654 248.992 166.612 249.019 166.568L249.848 166.823C249.977 166.862 250.098 166.839 250.119 166.771C250.14 166.702 250.052 166.615 249.923 166.575L249.092 166.319C249.092 166.174 249.032 166.014 248.912 165.852C248.875 165.802 248.83 165.753 248.783 165.705L250.067 166.1C250.196 166.14 250.318 166.117 250.338 166.048C250.359 165.98 250.271 165.892 250.142 165.852Z" fill="#B5A34C"/>
<path fill-rule="evenodd" clip-rule="evenodd" d="M236.849 170.364C238.773 170.364 240.521 169.934 241.885 169.607C243.515 169.217 244.641 168.865 245.456 168.072C246.953 166.614 246.09 164.146 244.364 163.501C242.638 162.856 232.753 163.116 230.568 164.258C228.384 165.401 228.007 167.398 229.476 168.829C230.945 170.26 232.625 170.364 236.849 170.364Z" fill="url(#paint13_linear)"/>
<path fill-rule="evenodd" clip-rule="evenodd" d="M237.886 166.941C241.854 165.496 243.555 164.535 244.509 162.78C245.463 161.025 243.886 159.217 242.064 159.257C240.242 159.298 231.445 162.019 229.746 163.741C228.048 165.462 228.313 167.293 230.138 168.011C231.963 168.728 233.918 168.385 237.886 166.941Z" fill="url(#paint14_linear)"/>
<path fill-rule="evenodd" clip-rule="evenodd" d="M236.973 164.593C240.775 163.209 243.506 161.124 243.074 159.936C242.642 158.748 239.209 158.906 235.407 160.29C231.605 161.674 228.873 163.759 229.305 164.947C229.738 166.135 233.171 165.977 236.973 164.593Z" fill="url(#paint15_radial)"/>
<path fill-rule="evenodd" clip-rule="evenodd" d="M236.894 164.378C240.458 163.081 243.032 161.162 242.643 160.093C242.254 159.024 239.049 159.209 235.484 160.506C231.92 161.803 229.346 163.722 229.735 164.791C230.124 165.861 233.329 165.676 236.894 164.378Z" fill="url(#paint16_radial)"/>
<path fill-rule="evenodd" clip-rule="evenodd" d="M237.195 160.37L234.891 161.343L233.776 161.814C233.651 161.867 233.573 161.963 233.601 162.029C233.629 162.094 233.753 162.105 233.877 162.053L234.992 161.582C235.329 161.44 235.685 161.392 235.945 161.455C236.067 161.484 236.162 161.534 236.229 161.598L234.072 162.509C233.947 162.561 233.869 162.657 233.897 162.723C233.926 162.789 234.049 162.8 234.174 162.747L236.339 161.832C236.34 161.856 236.339 161.881 236.334 161.906C236.304 162.093 236.136 162.29 235.864 162.462C235.449 162.722 234.947 162.924 234.46 163.118L234.358 163.159C234.263 163.197 234.189 163.264 234.174 163.326C234.158 163.387 234.205 163.43 234.29 163.434L237.625 163.567C237.677 163.569 237.734 163.557 237.788 163.534C237.85 163.508 237.906 163.469 237.939 163.423C238.001 163.339 237.96 163.267 237.848 163.263L235.065 163.151C235.419 163.002 235.769 162.837 236.093 162.633C236.498 162.379 236.747 162.084 236.794 161.802C236.803 161.746 236.801 161.692 236.794 161.64L237.593 161.303C237.717 161.251 237.795 161.155 237.767 161.089C237.739 161.023 237.615 161.012 237.491 161.065L236.69 161.403C236.597 161.292 236.448 161.208 236.252 161.161C236.191 161.147 236.126 161.138 236.058 161.132L237.296 160.609C237.421 160.556 237.499 160.46 237.471 160.394C237.443 160.329 237.319 160.318 237.195 160.37Z" fill="#B5A34C"/>
<path d="M137.447 123.726L138.421 123.955L138.019 125.661L136.755 124.448L137.447 123.726ZM151.604 63.5592L150.63 63.3302L151.067 61.4735L152.346 62.8889L151.604 63.5592ZM194.767 111.341L195.628 111.849L194.937 113.022L194.025 112.012L194.767 111.341ZM223.359 62.8323L222.497 62.3245L223.359 62.8323ZM253.851 11.0991L253.747 22.6457L243.799 16.7824L253.851 11.0991ZM121.078 106.632L138.139 123.005L136.755 124.448L119.693 108.075L121.078 106.632ZM136.474 123.497L150.63 63.3302L152.577 63.7883L138.421 123.955L136.474 123.497ZM152.346 62.8889L195.509 110.671L194.025 112.012L150.862 64.2296L152.346 62.8889ZM193.905 110.834L222.497 62.3245L224.22 63.3401L195.628 111.849L193.905 110.834ZM222.497 62.3245L248.419 18.3448L250.142 19.3603L224.22 63.3401L222.497 62.3245Z" fill="#EBF5FF"/>
<path fill-rule="evenodd" clip-rule="evenodd" d="M149.62 48.1549C152.529 48.5092 155.081 48.17 156.019 47.427C158.371 45.5638 154.312 35.7912 150.561 32.8961C146.811 30.001 135.509 33.0431 138.337 40.8287C139.319 43.5311 141.466 45.377 143.95 46.5573L147.068 61.4448L155.577 57.6562L149.62 48.1549Z" fill="#D4B69E"/>
<path fill-rule="evenodd" clip-rule="evenodd" d="M145.827 38.4935C146.077 37.0751 146.414 35.9286 147.118 35.0362C150.885 33.4294 151.026 32.5672 150.025 30.3185C149.229 30.1574 146.775 30.3824 144.296 31.2416C142.924 31.4372 141.51 32.1448 140.378 33.342C138.878 34.5902 137.889 36.2801 138.117 38.5185C137.57 43.5383 141.18 46.9031 144.185 47.2632C144.486 46.2367 144.716 45.269 144.901 44.3586C144.334 44.1504 143.85 43.7233 143.586 43.13C143.065 41.9611 143.596 40.5896 144.771 40.0665C144.857 40.0281 144.944 39.9953 145.032 39.9681C145.736 41.4064 148.154 46.2529 149.49 47.7157C151.066 49.4404 155.219 48.187 156.59 47.5765C157.774 47.0492 157.237 45.9514 156.852 45.1646C156.797 45.0513 156.744 44.9445 156.701 44.8467C156.61 44.6424 156.343 44.7619 156.042 44.8968C155.65 45.0721 155.2 45.2734 155.001 44.8262C154.784 44.3387 155.295 43.6632 155.752 43.0588C156.037 42.6817 156.301 42.3322 156.355 42.0733C156.524 41.2565 156.302 40.355 155.631 40.6536C155.265 40.8167 154.855 41.2509 154.363 41.7731C153.62 42.5616 152.687 43.551 151.426 44.1124C149.35 45.0367 145.894 38.6188 145.827 38.4935Z" fill="#1E1140"/>
<path fill-rule="evenodd" clip-rule="evenodd" d="M155.424 151.423C155.424 151.423 153.563 151.934 151.56 152.288C149.557 152.642 147.562 153.125 147.562 153.125L147.839 157.088L149.968 159.217C149.968 159.217 152.865 158.198 154.091 157.928C155.317 157.658 156.266 157.776 156.633 157.75C157.646 157.679 155.424 151.423 155.424 151.423Z" fill="#D4B69E"/>
<path fill-rule="evenodd" clip-rule="evenodd" d="M146.857 149.545L152.555 150.503C152.814 150.546 152.966 150.818 152.885 151.068C151.825 154.362 152.949 159.158 152.949 159.158C149.151 163.465 146.919 170.004 146.201 172.361C146.057 172.831 145.542 173.086 145.085 172.903L143.293 172.188L144.753 158.297L145.605 150.194L146.857 149.545Z" fill="#BED6F2"/>
<path fill-rule="evenodd" clip-rule="evenodd" d="M174.364 94.8897C174.364 94.8897 199.884 118.765 200.634 129.49C201.384 140.214 189.916 146.758 189.916 146.758C189.916 146.758 162.425 158.662 156.726 159.06C156.791 159.989 154.916 151.038 154.916 151.038C154.916 151.038 178.33 138.304 178.897 133.081C179.464 127.858 176.553 126.205 167.697 118.393C158.841 110.581 157.36 97.345 157.36 97.345L174.364 94.8897Z" fill="#1C69C4"/>
<path fill-rule="evenodd" clip-rule="evenodd" d="M139.648 59.3064L144.876 75.4184C144.876 75.4184 134.769 79.0899 131.834 82.1518C128.899 85.2136 131.115 86.7058 143.466 94.6391C155.817 102.572 165.571 100.842 165.834 104.606C166.098 108.369 155.407 108.93 155.407 108.93C155.407 108.93 139.536 102.15 131.924 100.27C124.313 98.3897 115.418 91.8661 115.157 88.1332C115.034 86.3797 116.279 78.4999 124.118 69.4893C127.405 65.7119 139.648 59.3064 139.648 59.3064Z" fill="#D4B69E"/>
<path fill-rule="evenodd" clip-rule="evenodd" d="M116.158 109.31C116.158 109.31 111.543 105.589 111.458 104.367C111.373 103.145 106.669 103.015 106.669 103.015L106.973 107.354L107.596 109.49C107.596 109.49 110.364 113.734 110.46 115.109C110.557 116.483 117.068 111.852 117.068 111.852L116.158 109.31Z" fill="#D4B69E"/>
<path fill-rule="evenodd" clip-rule="evenodd" d="M166.588 95.4339C166.588 95.4339 169.381 100.994 170.132 111.732C170.883 122.471 163.997 135.93 158.807 142.285C153.616 148.64 148.799 153.393 140.513 147.997C132.227 142.601 109.387 115.528 109.387 115.528L116.603 108.854C116.603 108.854 138.101 131.384 142.894 130.697C147.686 130.011 140.723 99.6552 140.723 99.6552L166.588 95.4339Z" fill="#3792FC"/>
<path fill-rule="evenodd" clip-rule="evenodd" d="M110.365 99.0961L113.295 104.077C113.428 104.303 113.317 104.594 113.074 104.693C109.869 105.998 106.918 109.942 106.918 109.942C101.177 109.8 94.7334 112.294 92.4661 113.259C92.014 113.451 91.4871 113.22 91.3334 112.753L90.7299 110.92L102.309 103.11L109.064 98.554L110.365 99.0961Z" fill="#BED6F2"/>
<path fill-rule="evenodd" clip-rule="evenodd" d="M186.473 33.2236C186.473 33.2236 194.633 47.3536 194.807 49.8328C194.98 52.312 191.986 56.4792 187.678 56.7804C183.371 57.0816 176.65 56.6754 176.65 56.6754L165.864 55.4193L171.485 73.5576C171.485 73.5576 187.674 70.9195 193.265 68.9061C198.855 66.8926 205.659 63.4718 205.045 54.6898C204.431 45.9079 194.055 33.4403 194.055 33.4403L186.473 33.2236Z" fill="#D4B69E"/>
<path fill-rule="evenodd" clip-rule="evenodd" d="M177.88 21.4425C177.88 21.4425 176.818 19.9352 176.141 20.6599C175.464 21.3846 175.663 22.0175 177.485 24.4507C179.308 26.884 180.831 28.0104 181.476 28.1249C182.121 28.2393 185.145 31.718 185.145 31.718L186.752 30.7619L181.979 21.8047L177.88 21.4425Z" fill="#CFAC90"/>
<path fill-rule="evenodd" clip-rule="evenodd" d="M177.636 23.0813C176.869 21.8075 178.018 18.8896 178.018 18.8896C178.018 18.8896 180.099 15.8336 181.191 15.2341C182.626 14.4456 184.398 14.8894 185.192 15.8027C187.288 18.2143 189.904 27.2879 189.904 27.2879L187.448 30.5928C187.448 30.5928 184.731 29.4041 183.955 28.011C183.178 26.618 182.173 22.0432 182.173 22.0432C182.173 22.0432 182.314 26.3488 181.099 26.2782C179.885 26.2076 178.404 24.355 177.636 23.0813Z" fill="#D4B69E"/>
<path fill-rule="evenodd" clip-rule="evenodd" d="M184.748 31.262L189.076 36.2407L194.188 33.743L189.559 26.7877C189.559 26.7877 187.414 29.3204 186.355 30.3058C185.296 31.2912 184.748 31.262 184.748 31.262Z" fill="#D4B69E"/>
<path fill-rule="evenodd" clip-rule="evenodd" d="M177.237 55.5365C177.237 55.5365 178.434 58.5379 178.398 63.7625C178.388 65.3047 177.63 66.8269 177.461 68.2321C177.249 70.0007 177.116 73.1641 177.116 73.1641C177.116 73.1641 173.213 73.8813 171.486 73.5578C170.611 73.394 167.852 77.6094 169.415 85.9034C169.909 88.5261 174.365 94.8898 174.365 94.8898C174.365 94.8898 147.037 109.361 142.457 106.252C141.48 105.589 137.549 104.334 138.073 105.108C138.596 105.882 141.214 88.4856 141.034 85.9003C140.804 82.6143 139.255 78.6348 139.255 78.6348L135.901 80.7658C135.901 80.7658 134.761 76.0593 133.333 73.8915C131.904 71.7237 130.988 72.4433 129.127 70.101C127.267 67.7586 126.714 65.7071 126.714 65.7071C126.714 65.7071 141.836 57.8939 143.074 57.4395C144.312 56.9852 147.195 58.0103 151.763 56.8319C156.33 55.6536 153.895 54.9089 156.41 54.733C164.505 54.1669 177.237 55.5365 177.237 55.5365Z" fill="#D0E6FF"/>
<mask id="mask1" mask-type="alpha" maskUnits="userSpaceOnUse" x="126" y="53" width="56" height="55">
<path fill-rule="evenodd" clip-rule="evenodd" d="M177.237 55.5365C177.237 55.5365 178.434 58.5379 178.398 63.7625C178.388 65.3047 177.63 66.8269 177.461 68.2321C177.249 70.0007 177.116 73.1641 177.116 73.1641C177.116 73.1641 173.213 73.8813 171.486 73.5578C170.611 73.394 167.852 77.6094 169.415 85.9034C169.909 88.5261 174.365 94.8898 174.365 94.8898C174.365 94.8898 147.037 109.361 142.457 106.252C141.48 105.589 137.549 104.334 138.073 105.108C138.596 105.882 141.214 88.4856 141.034 85.9003C140.804 82.6143 139.255 78.6348 139.255 78.6348L135.901 80.7658C135.901 80.7658 134.761 76.0593 133.333 73.8915C131.904 71.7237 130.988 72.4433 129.127 70.101C127.267 67.7586 126.714 65.7071 126.714 65.7071C126.714 65.7071 141.836 57.8939 143.074 57.4395C144.312 56.9852 147.195 58.0103 151.763 56.8319C156.33 55.6536 153.895 54.9089 156.41 54.733C164.505 54.1669 177.237 55.5365 177.237 55.5365Z" fill="white"/>
</mask>
<g mask="url(#mask1)">
<path fill-rule="evenodd" clip-rule="evenodd" d="M139.212 78.5193C139.212 78.5193 135.695 70.8418 136.061 67.8682C136.888 61.1353 142.012 57.5138 143.074 57.4395C143.829 57.3867 142.147 55.6619 139.508 57.0002C136.793 58.3771 125.274 65.3922 125.274 65.3922L135.901 80.7658L139.212 78.5193Z" fill="#BED6F2"/>
</g>
<path fill-rule="evenodd" clip-rule="evenodd" d="M171.181 73.6311C171.181 73.6311 166.29 69.1951 163.161 73.7706C160.032 78.3462 167.615 98.3446 167.615 98.3446C167.615 98.3446 171.397 96.3002 174.174 96.0003C176.951 95.7003 182.299 96.7585 182.299 96.7585C182.299 96.7585 171.32 91.2986 169.486 85.2664C168.285 81.317 168.505 76.8276 170.931 73.822C170.987 73.7527 171.181 73.6311 171.181 73.6311Z" fill="#BED6F2"/>
<rect x="222.062" y="66.1567" width="7.25" height="1.8125" fill="#94C5FF"/>
<path fill-rule="evenodd" clip-rule="evenodd" d="M213.421 29.1104L218.547 23.9838L219.829 25.2655L214.703 30.392L213.421 29.1104Z" fill="#94C5FF"/>
<rect x="182.575" y="0.81543" width="1.8125" height="7.25" transform="rotate(20 182.575 0.81543)" fill="#94C5FF"/>
<path fill-rule="evenodd" clip-rule="evenodd" d="M92.4688 67.9692V66.1567H99.7188V67.9692H92.4688Z" fill="#94C5FF"/>
<path fill-rule="evenodd" clip-rule="evenodd" d="M101.797 25.5522L102.962 24.1638L108.516 28.824L107.351 30.2125L101.797 25.5522Z" fill="#94C5FF"/>
<rect x="139.314" y="3.24805" width="1.8125" height="7.25" transform="rotate(-20 139.314 3.24805)" fill="#94C5FF"/>
</g>
<defs>
<radialGradient id="paint0_radial" cx="0" cy="0" r="1" gradientUnits="userSpaceOnUse" gradientTransform="translate(56.2182 170.375) rotate(90) scale(5.43609 36.2406)">
<stop offset="0.00013" stop-color="#EBF5FF"/>
<stop offset="1" stop-color="#F7FBFF"/>
</radialGradient>
<radialGradient id="paint1_radial" cx="0" cy="0" r="1" gradientUnits="userSpaceOnUse" gradientTransform="translate(153.172 171.281) rotate(90) scale(7.24906 81.5519)">
<stop offset="0.00013" stop-color="#EBF5FF"/>
<stop offset="1" stop-color="#F7FBFF"/>
</radialGradient>
<radialGradient id="paint2_radial" cx="0" cy="0" r="1" gradientUnits="userSpaceOnUse" gradientTransform="translate(250.155 171.281) rotate(90) scale(7.24811 56.1729)">
<stop offset="0.00013" stop-color="#EBF5FF"/>
<stop offset="1" stop-color="#F7FBFF"/>
</radialGradient>
<linearGradient id="paint3_linear" x1="77.3934" y1="115.975" x2="35.1533" y2="115.975" gradientUnits="userSpaceOnUse">
<stop stop-color="#BED6F2"/>
<stop offset="0.999287" stop-color="#E3F1FF"/>
</linearGradient>
<linearGradient id="paint4_linear" x1="61.481" y1="138.791" x2="50.7754" y2="138.791" gradientUnits="userSpaceOnUse">
<stop stop-color="#F7F7F7"/>
<stop offset="0.500845" stop-color="#F7F7F7"/>
<stop offset="0.582955" stop-color="white"/>
<stop offset="1" stop-color="white"/>
</linearGradient>
<linearGradient id="paint5_linear" x1="250.73" y1="173.369" x2="250.73" y2="170.798" gradientUnits="userSpaceOnUse">
<stop stop-opacity="0.0432146"/>
<stop offset="1" stop-color="#C6AB2A" stop-opacity="0.0993499"/>
</linearGradient>
<linearGradient id="paint6_linear" x1="237.679" y1="173.531" x2="237.679" y2="170.891" gradientUnits="userSpaceOnUse">
<stop stop-opacity="0.0432146"/>
<stop offset="1" stop-color="#C6AB2A" stop-opacity="0.0993499"/>
</linearGradient>
<linearGradient id="paint7_linear" x1="225.401" y1="166.258" x2="225.401" y2="172.668" gradientUnits="userSpaceOnUse">
<stop stop-color="#FFED42"/>
<stop offset="1" stop-color="#FBCF00"/>
</linearGradient>
<radialGradient id="paint8_radial" cx="0" cy="0" r="1" gradientUnits="userSpaceOnUse" gradientTransform="translate(233.873 167.861) rotate(5.16402) scale(7.78251 1.12648)">
<stop stop-color="#FFEA6C"/>
<stop offset="1" stop-color="#EEC80E"/>
</radialGradient>
<radialGradient id="paint9_radial" cx="0" cy="0" r="1" gradientUnits="userSpaceOnUse" gradientTransform="translate(233.871 167.861) rotate(4.95851) scale(7.12844 0.991165)">
<stop stop-color="#FFE970"/>
<stop offset="0.974982" stop-color="#FFD922"/>
</radialGradient>
<linearGradient id="paint10_linear" x1="240.627" y1="162.389" x2="238.434" y2="168.413" gradientUnits="userSpaceOnUse">
<stop stop-color="#FFED42"/>
<stop offset="1" stop-color="#FBCF00"/>
</linearGradient>
<radialGradient id="paint11_radial" cx="0" cy="0" r="1" gradientUnits="userSpaceOnUse" gradientTransform="translate(248.04 166.792) rotate(25.164) scale(7.78251 1.12648)">
<stop stop-color="#FFEA6C"/>
<stop offset="1" stop-color="#EEC80E"/>
</radialGradient>
<radialGradient id="paint12_radial" cx="0" cy="0" r="1" gradientUnits="userSpaceOnUse" gradientTransform="translate(248.04 166.792) rotate(24.9585) scale(7.12844 0.991165)">
<stop stop-color="#FFE970"/>
<stop offset="0.974982" stop-color="#FFD922"/>
</radialGradient>
<linearGradient id="paint13_linear" x1="241.372" y1="170.364" x2="241.372" y2="167.124" gradientUnits="userSpaceOnUse">
<stop stop-opacity="0.01"/>
<stop offset="1" stop-color="#C6AB2A" stop-opacity="0.08"/>
</linearGradient>
<linearGradient id="paint14_linear" x1="231.146" y1="164.9" x2="232.59" y2="168.868" gradientUnits="userSpaceOnUse">
<stop stop-color="#FFEF57"/>
<stop offset="1" stop-color="#ECC924"/>
</linearGradient>
<radialGradient id="paint15_radial" cx="0" cy="0" r="1" gradientUnits="userSpaceOnUse" gradientTransform="translate(236.19 162.442) rotate(-14.836) scale(7.78251 1.12648)">
<stop stop-color="#FFE13A"/>
<stop offset="1" stop-color="#FBD730"/>
</radialGradient>
<radialGradient id="paint16_radial" cx="0" cy="0" r="1" gradientUnits="userSpaceOnUse" gradientTransform="translate(236.189 162.442) rotate(-15.0415) scale(7.29379 1.01416)">
<stop stop-color="#FFE54C"/>
<stop offset="1" stop-color="#EFD12E"/>
</radialGradient>
</defs>
</svg>
