<svg width="320" height="160" viewBox="0 0 320 160" fill="none" xmlns="http://www.w3.org/2000/svg">
<path d="M286.152 156.902C280.95 159.878 90.7911 159.571 67.2598 159.571C57.5144 159.571 48.735 161.818 41.9161 156.024C34.8056 149.981 29.2395 141.241 23.9939 134.105C13.1583 119.365 4.40752 103.224 3.13078 85.9416C2.64303 79.3152 3.37943 72.3361 7.75002 66.6991C12.1206 61.0621 20.9287 57.2351 28.8426 59.1832C36.3692 61.0353 43.2359 67.6041 50.4278 65.0349C55.267 63.3054 56.6059 58.4162 57.4953 54.2288C60.8235 38.5334 66.9442 22.4124 81.0888 11.242C95.2382 0.0754223 119.296 -4.27694 135.257 5.19088C144.061 10.4137 149.043 18.7656 152.744 27.0332C156.446 35.3008 159.286 43.9518 165.225 51.3297C171.164 58.7077 181.125 64.7703 192.061 64.3446C201.662 63.9688 209.868 58.8112 216.749 53.4273C223.63 48.0396 230.224 42.0153 239.109 39.0703C247.994 36.1214 260.087 37.5326 264.496 44.3851C268.331 50.3481 265.012 57.5036 262.167 63.8116C258.858 71.155 256.218 78.9778 257.634 86.7008C259.049 94.4239 265.423 102.013 274.858 103.934C283.484 105.69 292.814 102.55 301.407 104.406C314.164 107.163 319.697 120.304 315.742 130.412C311.788 140.521 301.225 147.975 290.6 154.272C290.6 154.272 290.6 154.272 290.595 154.272C288.897 155.284 287.458 156.155 286.152 156.902Z" fill="#FBFAFF"/>
<g opacity="0.3">
<path d="M222.649 13C224.797 13.0224 226.82 13.8497 228.627 14.8379C236.246 19.0011 241.134 26.1336 243.481 33.5881C245.834 41.0426 245.892 48.8727 245.604 56.5865C245.488 59.7659 246.196 71.6743 240.558 68.8884C236.796 67.0281 233.055 57.5971 231.184 54.3417C227.485 47.9112 224.865 41.0247 223.419 33.9682C223.068 32.2689 220.957 12.9821 222.649 13Z" fill="#EFEEFB"/>
<path d="M252.064 74.0219C260.306 63.1779 271.765 54.1314 285.073 47.9648C285.429 52.3338 283.208 56.5686 280.457 60.2712C273.939 69.0359 267.83 75.1578 259.011 82.1516C256.502 84.1416 245.944 90.0578 245.231 89.0427C242.978 85.8364 249.973 76.7676 252.064 74.0219Z" fill="#EFEEFB"/>
<path d="M238.19 128.9L237.194 128.685C239.248 121.705 240.736 114.344 241.616 106.814C242.449 99.6946 242.764 92.2178 242.549 84.5934C242.35 77.4385 241.679 69.9438 240.558 62.3194C239.489 55.0572 238.032 47.6832 236.23 40.3987C234.794 34.6033 232.657 27.0504 228.821 20.0074C228.397 19.2293 227.952 18.4556 227.496 17.7089L228.407 17.3064C228.868 18.0666 229.324 18.8492 229.754 19.6407C233.636 26.7642 235.79 34.3797 237.236 40.2198C239.044 47.5267 240.505 54.9275 241.574 62.2121C242.701 69.8678 243.371 77.3938 243.576 84.5755C243.791 92.2356 243.476 99.7482 242.638 106.903C241.752 114.474 240.254 121.875 238.19 128.9Z" fill="#EFEEFB"/>
<path d="M242.858 98.1965C242.853 98.1965 242.842 98.1965 242.837 98.1965C242.554 98.1875 242.334 97.9818 242.344 97.7403C242.565 92.9198 245.483 87.2987 251.026 81.0293C258.949 72.0723 267.138 62.8112 278.324 56.3897C278.56 56.2556 278.88 56.3092 279.037 56.5105C279.194 56.7117 279.131 56.9845 278.896 57.1186C267.851 63.4552 259.714 72.6581 251.844 81.5569C246.431 87.6788 243.581 93.1344 243.371 97.7716C243.361 98.0131 243.13 98.1965 242.858 98.1965Z" fill="#EFEEFB"/>
<path fill-rule="evenodd" clip-rule="evenodd" d="M242.8 83.1668C242.847 83.1847 242.895 83.1936 242.942 83.1936C243.083 83.1936 243.214 83.1265 243.272 83.0058C246.358 76.8839 249.565 69.738 250.55 62.3283C250.555 62.3193 250.561 62.3104 250.568 62.3014C250.574 62.2925 250.581 62.2835 250.586 62.2746C252.305 59.2785 253.714 56.3316 255.129 53.3221C258.037 47.1331 259.357 41.928 259.284 36.9419C259.232 33.5523 258.498 28.8659 255.548 24.5596C255.559 24.3539 255.223 23.9335 253.871 22.4399L253.541 22.0732L253.274 22.4757C248.993 28.8927 248.779 36.4187 249.072 42.2634C249.182 44.1952 249.35 46.1717 249.512 48.0856C249.842 51.9671 250.183 55.9739 250.073 59.8509C249.559 68.0253 246.012 76.0209 242.612 82.7643C242.533 82.9208 242.617 83.0997 242.8 83.1668ZM249.79 42.241C249.512 36.6513 249.701 29.5053 253.541 23.3477C253.908 23.853 254.5 24.4075 254.762 24.64C257.77 28.8972 258.508 33.5836 258.561 36.9553C258.639 41.8564 257.335 46.9856 254.458 53.0985C253.279 55.6161 252.095 58.089 250.738 60.5798C250.758 60.3593 250.773 60.1347 250.788 59.9138L250.791 59.8777C250.901 55.9649 250.56 51.9403 250.23 48.0454C250.068 46.1359 249.9 44.1639 249.79 42.241Z" fill="#EFEEFB"/>
<path d="M303.587 92.9595C302.56 91.6 300.889 90.7012 299.176 90.0081C291.961 87.1059 283.426 87.3295 275.797 89.3239C268.168 91.3183 261.283 94.9539 254.666 98.7549C251.936 100.32 241.179 105.454 246.262 107.743C249.652 109.273 259.664 107.233 263.395 106.902C270.762 106.245 278.018 104.689 284.877 102.301C286.517 101.724 304.394 94.0282 303.587 92.9595Z" fill="#EFEEFB"/>
<path d="M297.122 91.3005C296.241 91.3631 295.34 91.4392 294.444 91.5375C286.386 92.4006 278.71 94.5962 272.915 96.4163C265.669 98.6879 258.506 101.228 251.627 103.96C244.396 106.831 237.491 109.93 231.109 113.172C230.344 113.561 229.589 113.95 228.835 114.348C229.359 114.375 229.883 114.406 230.407 114.438C230.794 114.236 231.177 114.035 231.57 113.838C237.925 110.614 244.805 107.524 252.004 104.667C258.863 101.943 266.004 99.4124 273.224 97.1452C278.972 95.343 286.585 93.1608 294.554 92.3067C295.435 92.2128 296.32 92.1323 297.19 92.0742L297.122 91.3005Z" fill="#EFEEFB"/>
<path fill-rule="evenodd" clip-rule="evenodd" d="M253.513 91.9489C244.915 97.8024 238.13 105.503 232.55 112.407C232.445 112.541 232.445 112.707 232.544 112.828C232.576 112.868 232.618 112.908 232.67 112.939C232.874 113.06 233.157 113.015 233.299 112.841C239.445 105.235 247.063 96.6532 256.929 90.7191C261.697 88.0226 266.931 85.6481 271.998 83.3541C274.497 82.2227 277.08 81.0511 279.564 79.8616C287.062 76.2171 296.32 70.9851 301.471 62.7973L301.801 62.2875L301.119 62.2294C298.353 62.0013 297.599 61.9745 297.352 62.1265C289.996 62.3233 283.646 64.7962 279.381 67.0142C273.098 70.2786 267.482 74.965 261.697 81.7532C258.889 85.0534 256.148 88.3133 253.555 91.8773C253.539 91.8997 253.523 91.9265 253.513 91.9489ZM279.847 67.6715C284.096 65.4625 290.447 62.9985 297.777 62.8912C298.248 62.9762 299.333 63.1461 300.213 63.1371C295.089 70.7526 286.281 75.7073 279.113 79.1953C276.723 80.3409 274.234 81.4697 271.818 82.5656L271.568 82.6789L271.568 82.6792C266.48 84.9865 261.225 87.3699 256.41 90.0886L256.41 90.0886C256.127 90.2586 255.845 90.4285 255.567 90.6029C257.773 87.7007 260.073 84.9684 262.425 82.2093C268.137 75.5016 273.675 70.8823 279.847 67.6715Z" fill="#C6C2F9"/>
<path d="M254.142 91.0947L254.702 91.7028C256.107 90.7548 257.904 89.3999 259.806 87.96C262.059 86.2607 264.385 84.4988 266.093 83.4121C271.668 79.8481 277.411 76.3512 283.169 73.0108C288.927 69.6748 294.853 66.4059 300.789 63.2936L300.318 62.6362C294.371 65.7531 288.429 69.0264 282.661 72.3713C276.892 75.7162 271.134 79.2221 265.548 82.7906C263.814 83.8996 261.472 85.6704 259.203 87.3786C257.317 88.8141 255.525 90.1645 254.142 91.0947Z" fill="#C6C2F9"/>
<path d="M188.389 53.1743C182.249 43.1316 173.519 35.151 163.244 30.1867C162.824 34.5543 164.437 38.5654 166.487 41.9997C171.34 50.1314 175.95 55.6788 182.667 61.8502C184.58 63.608 192.694 68.5589 193.289 67.4927C195.161 64.1082 189.946 55.7188 188.389 53.1743Z" fill="#EFEEFB"/>
<path d="M193.481 67.8396C192.435 65.3417 190.933 62.7381 188.978 60.0425C183.03 51.8408 176.881 43.3601 168.28 37.9647C168.099 37.8483 167.845 37.9313 167.715 38.1469C167.582 38.3602 167.624 38.6266 167.807 38.7385C176.292 44.0668 182.406 52.4912 188.317 60.6412C190.37 63.4718 191.91 66.1882 192.935 68.7767C193.122 68.4613 193.299 68.146 193.481 67.8396Z" fill="#B9B3F9"/>
<path d="M239.691 115.773C238.927 112.861 238.395 109.46 240.386 107.6C240.678 107.325 241.053 107.091 241.493 107.145C242.278 107.237 242.773 108.131 243.453 108.608C244.888 109.62 246.698 108.425 246.987 106.898C247.276 105.372 246.658 103.704 246.496 102.096C246.354 100.693 246.56 99.3132 247.096 98.1046C247.797 96.5272 249.755 95.2046 251.394 96.3406C252.581 97.1674 252.776 98.7203 253.061 100.051C253.346 101.382 254.264 103.011 255.618 103.02C256.781 103.027 257.306 101.815 257.691 100.802C258.624 98.321 260.014 96.0609 261.785 94.1378C263.019 92.7975 264.513 91.5877 266.422 91.269C268.327 90.9469 270.713 91.7467 271.828 93.5231C272.865 95.1812 272.545 97.1601 271.808 98.7072C269.801 102.925 265.322 105.214 261.907 108.355C261.1 109.097 260.351 110.372 261.208 111.324C261.81 111.992 262.788 111.984 263.635 112.042C265.697 112.177 267.823 113.092 269.465 114.557C269.746 114.81 270.024 115.09 270.15 115.429C270.441 116.199 269.837 116.878 269.192 117.247C266.202 118.952 261.675 117.728 258.914 119.731C258.545 120 258.197 120.373 258.234 120.859C258.261 121.209 258.491 121.548 258.748 121.828C259.813 122.996 261.395 123.483 262.779 124.23C264.163 124.977 265.56 126.393 265.286 127.763C265.079 128.792 264.005 129.322 262.975 129.596C259.801 130.428 256.176 129.897 252.794 128.711C249.763 127.645 245.789 126.056 243.222 123.931C240.805 121.92 240.392 118.451 239.691 115.773Z" fill="#EFEEFB"/>
<path d="M267.339 96.8024L241.237 127.91" stroke="#E6E5F4" stroke-linecap="round"/>
<path d="M249.837 97.8367C250.811 103.271 251.651 108.71 252.355 114.146" stroke="#E6E5F4" stroke-linecap="round"/>
<path d="M241.635 109.266C242.916 113.739 244.09 118.226 245.161 122.72" stroke="#E6E5F4" stroke-linecap="round"/>
<path d="M251.539 116.334C256.473 116.078 261.423 115.9 266.388 115.804" stroke="#E6E5F4" stroke-linecap="round"/>
<path d="M179.857 63.3683C178.672 63.2083 177.413 63.2056 176.2 63.4124C174.501 63.5595 172.751 64.2254 171.401 65.4865C168.482 68.2075 168.309 72.727 169.503 76.0618C170.701 79.4132 173.007 82.1892 176.005 83.8972C178.137 85.1123 180.714 85.7906 183.336 85.2131C183.509 85.1737 183.679 85.1314 183.852 85.0782C186.128 85.1345 188.155 83.9771 189.748 82.0166C190.94 80.5475 191.8 78.1234 191.949 76.3534C192.128 74.1713 191.819 72.1745 190.763 70.4408C188.58 66.851 184.148 63.9593 179.857 63.3683Z" fill="#EFEEFB"/>
<path d="M173.589 68.8203L192.509 84.6957" stroke="#EFEEFB" stroke-linecap="round"/>
<path d="M171.586 77.7888C174.839 77.4882 178.091 77.1876 181.344 76.8869" stroke="#EFEEFB" stroke-linecap="round"/>
<path d="M176.006 82.0449C177.389 81.8785 178.769 81.7574 180.149 81.6708" stroke="#EFEEFB" stroke-linecap="round"/>
<path d="M182.741 81.6431C184.434 81.5109 186.13 81.3265 187.829 81.0899" stroke="#EFEEFB" stroke-linecap="round"/>
<path d="M179.768 73.9023C179.414 71.4508 178.992 69.0177 178.513 66.6045" stroke="#EFEEFB" stroke-linecap="round"/>
<path d="M186.018 78.914C185.888 76.8767 185.8 74.8325 185.742 72.7798" stroke="#EFEEFB" stroke-linecap="round"/>
</g>
<g opacity="0.2">
<path d="M64.3051 13.2968C62.6708 14.2295 61.5117 15.7173 60.5976 17.235C56.7455 23.6099 56.3951 31.0422 58.1472 37.6331C59.8977 44.2197 63.5912 50.1088 67.4903 55.7659C69.0974 58.0981 74.2316 67.3173 77.228 62.8195C79.2246 59.8181 77.594 51.1558 77.4791 47.914C77.2506 41.511 75.9761 35.2364 73.7165 29.3347C73.1753 27.9089 65.5981 12.5597 64.3051 13.2968Z" fill="#EFEEFB"/>
<path d="M70.855 71.5825C59.3644 66.9896 46.266 65.1185 33.1187 66.1919C34.9282 69.6163 38.6534 71.8391 42.5283 73.4315C51.7078 77.2048 59.3067 79.1787 69.4058 80.6377C72.2781 81.0532 83.1926 80.9686 83.2564 79.9032C83.4551 76.5425 73.7716 72.748 70.855 71.5825Z" fill="#EFEEFB"/>
<path d="M107.667 106.743L108.33 106.159C103.424 101.81 98.773 96.936 94.5085 91.6689C90.4732 86.6942 86.6721 81.2298 83.1946 75.4287C79.9366 69.9856 76.8748 64.0856 74.0979 57.8962C71.4558 52.0005 69.0522 45.8562 66.9596 39.6319C65.2963 34.6791 63.3338 28.1076 62.9123 21.1895C62.8683 20.4251 62.839 19.6553 62.8322 18.9012L61.9433 18.9867C61.9498 19.7553 61.9772 20.5353 62.0259 21.3123C62.4472 28.3066 64.4246 34.9344 66.1017 39.9251C68.2019 46.1704 70.6083 52.3375 73.263 58.2525C76.049 64.467 79.125 70.3905 82.3971 75.857C85.8853 81.6875 89.7118 87.176 93.7628 92.1782C98.0512 97.4652 102.729 102.368 107.667 106.743Z" fill="#EFEEFB"/>
<path d="M89.4439 85.7506C89.4488 85.7488 89.4538 85.747 89.4572 85.7411C89.6668 85.6124 89.7442 85.3653 89.6197 85.1918C87.1516 81.6739 82.2329 78.7149 74.9968 76.39C64.6498 73.0702 53.9555 69.6388 42.3176 69.6203C42.0719 69.6194 41.8529 69.799 41.8301 70.0119C41.8038 70.2309 41.9803 70.4093 42.2244 70.4061C53.7126 70.4268 64.3423 73.834 74.6199 77.1315C81.6898 79.398 86.474 82.2632 88.8491 85.6483C88.9702 85.8279 89.2297 85.8667 89.4439 85.7506Z" fill="#EFEEFB"/>
<path fill-rule="evenodd" clip-rule="evenodd" d="M59.5814 56.9695C65.7005 64.2836 74.0741 69.9635 81.6172 74.6179C81.7615 74.7082 81.9537 74.7001 82.0956 74.6151C82.1467 74.587 82.1948 74.5505 82.2333 74.5031C82.384 74.3198 82.3571 74.0774 82.163 73.9577C73.8515 68.831 64.5324 62.4531 58.4065 54.0326C55.652 49.9576 53.2914 45.4632 51.0134 41.1195C49.8933 38.9765 48.7293 36.759 47.5357 34.6285C43.8774 28.2079 38.5208 20.2926 29.4726 16.0528L28.906 15.7831L28.7945 16.3805C28.3363 18.7982 28.2526 19.4568 28.4072 19.667C28.1116 26.0704 30.4987 31.526 32.7488 35.1803C36.0589 40.5521 41.0464 45.3087 48.4437 50.1447C52.0358 52.492 55.5852 54.7835 59.5024 56.9363C59.5298 56.9502 59.5556 56.9598 59.5814 56.9695ZM33.5448 34.7478C31.3074 31.1127 28.9252 25.6554 29.3212 19.2677C29.4496 18.8545 29.7224 17.9034 29.7712 17.1338C38.1638 21.3648 43.2334 28.8897 46.7354 35.034C47.8485 37.0179 48.9313 39.0794 49.9869 41.0891C50.0604 41.2291 50.1337 41.3688 50.207 41.5082L50.2169 41.527C52.5043 45.884 54.8668 50.384 57.6489 54.494C57.8255 54.7343 58.0022 54.9745 58.1838 55.213C55.0028 53.3823 52.0273 51.4577 49.0203 49.4923C41.7176 44.717 36.8001 40.0302 33.5448 34.7478Z" fill="#EFEEFB"/>
<path d="M58.6482 56.4431L59.3841 55.9373C58.3981 54.7448 56.9609 53.2169 55.4413 51.6C53.647 49.6881 51.7907 47.7131 50.6594 46.2594C46.9572 41.5109 43.3433 36.6065 39.9152 31.6916C36.487 26.7768 33.152 21.7043 29.9994 16.6272L29.2083 17.0579C32.3655 22.1476 35.7134 27.2249 39.1461 32.1524C42.5789 37.0798 46.2008 41.9908 49.9124 46.7502C51.0643 48.2297 52.9316 50.2197 54.7404 52.1406C56.2456 53.7485 57.6732 55.2656 58.6482 56.4431Z" fill="#EFEEFB"/>
<path d="M133.285 61.0359C138.451 55.1062 146.129 51.4583 154.009 48.5825C159.374 61.9557 155.824 76.6771 145.303 84.7043C143.467 86.1024 141.391 87.3305 138.934 87.771C132.203 88.9711 128.637 84.4283 127.983 79.0423C127.144 72.186 128.972 65.9916 133.285 61.0359Z" fill="#EFEEFB"/>
<path d="M151.915 53.5079L128.69 93.7363" stroke="#C6C2F9" stroke-linecap="round"/>
<path d="M143.877 53.8914C144.004 57.4032 144.175 60.9205 144.392 64.4433" stroke="#C6C2F9" stroke-linecap="round"/>
<path d="M141.375 72.3728C145.625 71.4551 149.757 70.2205 153.714 68.6791" stroke="#C6C2F9" stroke-linecap="round"/>
<path d="M92.8506 32.3399C94.4878 32.8115 95.9259 34.0498 97.187 35.4009C102.482 41.0965 105.332 49.1449 106.204 56.9817C107.076 64.8185 106.149 72.5489 104.972 80.0891C104.489 83.1984 103.551 95.0805 99.5926 91.1562C96.9499 88.5394 95.2654 78.461 94.2374 74.8596C92.2111 67.7465 91.0633 60.4141 90.8347 53.1553C90.7855 51.4175 91.5637 31.9696 92.8506 32.3399Z" fill="#EFEEFB"/>
<path d="M96.7165 37.7816C96.9735 38.6258 97.2255 39.4944 97.4547 40.3661C99.5369 48.1986 100.238 56.1515 100.615 62.2138C101.092 69.7929 101.287 77.3898 101.202 84.7916C101.113 92.5707 100.694 100.128 99.9546 107.248C99.8656 108.102 99.7728 108.945 99.6716 109.792C99.4588 109.313 99.2418 108.835 99.0248 108.357C99.0737 107.923 99.1245 107.494 99.1674 107.056C99.8997 99.9675 100.319 92.4376 100.407 84.6926C100.491 77.3136 100.295 69.7394 99.8242 62.1864C99.4468 56.1746 98.7558 48.2851 96.6972 40.539C96.4695 39.6836 96.2273 38.8281 95.9699 37.9952L96.7165 37.7816Z" fill="#EFEEFB"/>
<path fill-rule="evenodd" clip-rule="evenodd" d="M111.739 78.7261C109.356 88.8509 104.598 97.945 100.152 105.629C100.064 105.775 99.91 105.834 99.7616 105.784C99.7128 105.769 99.6602 105.745 99.6122 105.707C99.4262 105.56 99.3666 105.279 99.4787 105.085C104.377 96.6211 109.659 86.4335 111.663 75.0962C112.472 69.6785 112.813 63.9409 113.139 58.3887C113.299 55.65 113.467 52.8186 113.688 50.0738C114.403 41.7679 115.97 31.2496 121.768 23.5069L122.126 23.0161L122.424 23.6312C123.628 26.1322 123.924 26.8269 123.87 27.1113C126.323 34.0495 126.29 40.8643 125.748 45.6409C124.951 52.6757 122.589 59.5989 118.325 67.4318C116.25 71.2363 114.189 74.9628 111.791 78.6614C111.776 78.6841 111.756 78.7084 111.739 78.7261ZM124.967 45.4411C125.506 40.6824 125.531 33.8709 123.004 26.9891C122.756 26.5793 122.208 25.6277 121.901 24.8027C116.628 32.3158 115.159 42.3141 114.471 50.2557C114.258 52.898 114.096 55.6259 113.939 58.2743L113.923 58.5478L113.923 58.5486C113.592 64.125 113.25 69.885 112.437 75.3545L112.437 75.3546C112.38 75.6796 112.323 76.0046 112.26 76.3263C114.179 73.2269 115.905 70.1004 117.638 66.9153C121.853 59.1797 124.181 52.3539 124.967 45.4411Z" fill="#C6C2F9"/>
<path d="M112.311 77.8331L111.542 77.5277C111.924 75.877 112.545 73.7136 113.208 71.422C113.987 68.7097 114.798 65.9064 115.2 63.9224C116.53 57.4405 117.737 50.8262 118.792 44.2533C119.842 37.682 120.77 30.9782 121.549 24.3208L122.331 24.5254C121.553 31.1943 120.626 37.9144 119.571 44.4986C118.515 51.0829 117.306 57.7151 115.976 64.2083C115.562 66.2248 114.748 69.046 113.967 71.7762C113.302 74.0515 112.684 76.2084 112.311 77.8331Z" fill="#C6C2F9"/>
</g>
<path d="M48.3555 118.919C42.6841 111.376 40.318 101.453 38.9084 91.4868C55.9442 88.5256 72.3381 96.3659 79.1353 110.718C80.3183 113.222 81.2417 115.965 81.1459 118.959C80.8752 127.159 74.6532 130.212 68.1682 129.635C59.9152 128.905 53.0962 125.218 48.3555 118.919Z" fill="#EFEEFB"/>
<path d="M44.1676 95.1731L83.4057 130.503" stroke="#C6C2F9" stroke-linecap="round"/>
<path d="M42.6122 104.704C46.7658 105.432 50.9371 106.108 55.1262 106.732" stroke="#C6C2F9" stroke-linecap="round"/>
<path d="M63.6808 112.252C63.6641 107.034 63.2457 101.877 62.4237 96.8473" stroke="#C6C2F9" stroke-linecap="round"/>
<path d="M64.8981 134.951C62.9768 136.281 60.6354 137.576 58.744 136.614C58.4666 136.474 58.1957 136.264 58.1136 135.927C57.974 135.33 58.4914 134.732 58.6632 134.103C59.0181 132.789 57.666 131.783 56.476 131.98C55.286 132.177 54.2285 133.069 53.0967 133.616C52.1093 134.093 51.046 134.308 50.0247 134.238C48.6873 134.147 47.2013 133.065 47.5937 131.569C47.8805 130.48 48.9667 129.927 49.861 129.366C50.7552 128.805 51.7002 127.7 51.3476 126.707C51.0439 125.855 50.0191 125.794 49.1761 125.783C47.1153 125.758 45.0952 125.346 43.2239 124.564C41.9193 124.017 40.6378 123.249 39.8954 121.942C39.1529 120.635 39.1024 118.682 40.1035 117.395C41.0393 116.197 42.5681 115.906 43.8972 116.033C47.5119 116.378 50.3707 119.036 53.5729 120.698C54.3295 121.09 55.4589 121.295 55.9243 120.422C56.2533 119.805 55.9858 119.089 55.8012 118.459C55.3488 116.917 55.4551 115.121 56.0897 113.534C56.1985 113.262 56.3276 112.985 56.5421 112.801C57.0262 112.387 57.6848 112.643 58.1233 113.02C60.1635 114.749 60.4741 118.381 62.6699 119.866C62.963 120.067 63.3316 120.218 63.6733 120.064C63.9245 119.949 64.1083 119.692 64.2465 119.43C64.8135 118.343 64.7478 117.059 64.9313 115.849C65.1088 114.642 65.7701 113.244 66.8426 113.082C67.6493 112.958 68.3187 113.603 68.7943 114.283C70.2489 116.38 70.8227 119.17 70.8524 121.952C70.8809 124.449 70.7752 127.773 69.905 130.216C69.0921 132.502 66.6666 133.727 64.8981 134.951Z" fill="#EFEEFB"/>
<path d="M44.3412 120.443L69.7129 129.678" stroke="#E6E5F4" stroke-linecap="round"/>
<path d="M50.6927 131.788C52.2194 130.888 53.7436 129.982 55.2703 129.082" stroke="#E6E5F4" stroke-linecap="round"/>
<path d="M57.2318 127.733C58.0471 127.311 58.8581 126.887 59.6734 126.464" stroke="#E6E5F4" stroke-linecap="round"/>
<path d="M60.1229 134.473C62.7012 132.763 65.2981 131.093 67.918 129.465" stroke="#E6E5F4" stroke-linecap="round"/>
<path d="M63.9207 127.347C62.2269 124.26 60.5709 121.148 58.9484 118.009" stroke="#E6E5F4" stroke-linecap="round"/>
<g clip-path="url(#clip0_14862_12172)">
<mask id="mask0_14862_12172" style="mask-type:alpha" maskUnits="userSpaceOnUse" x="38" y="28" width="232" height="139">
<rect x="38.642" y="28.2222" width="230.716" height="138.43" fill="white"/>
</mask>
<g mask="url(#mask0_14862_12172)">
<path d="M225.183 65.1224C233.04 57.0872 232.896 44.2035 224.861 36.3458C216.826 28.4882 203.942 28.6321 196.085 36.6673C188.227 44.7025 188.371 57.5862 196.406 65.4439C204.441 73.3015 217.325 73.1576 225.183 65.1224Z" fill="#C6C2F9"/>
<path d="M194.521 46.6599H187.738V63.6177H194.521V46.6599Z" fill="#F5F4FD" stroke="#675AF6" stroke-width="1.69578" stroke-linejoin="round"/>
<path d="M204.696 38.1809H197.913V56.8345H204.696V38.1809Z" fill="#F5F4FD" stroke="#675AF6" stroke-width="1.69578" stroke-linejoin="round"/>
<path d="M214.871 50.8994H208.088V68.7051H214.871V50.8994Z" fill="#B9B3F9" stroke="#675AF6" stroke-width="1.69578" stroke-linecap="round" stroke-linejoin="round"/>
<path d="M225.046 44.9641H218.262V56.8346H225.046V44.9641Z" fill="#F5F4FD" stroke="#675AF6" stroke-width="1.69578" stroke-linejoin="round"/>
<path d="M191.13 46.6598V39.8767" stroke="#675AF6" stroke-width="1.69578" stroke-linejoin="round"/>
<path d="M191.13 70.4008V63.6177" stroke="#675AF6" stroke-width="1.69578" stroke-linejoin="round"/>
<path d="M201.305 38.1809V33.0935" stroke="#675AF6" stroke-width="1.69578" stroke-linejoin="round"/>
<path d="M201.305 63.6176V56.8345" stroke="#675AF6" stroke-width="1.69578" stroke-linejoin="round"/>
<path d="M211.479 50.8993V41.5725" stroke="#675AF6" stroke-width="1.69578" stroke-linejoin="round"/>
<path d="M211.479 73.7924V68.7051" stroke="#675AF6" stroke-width="1.69578" stroke-linejoin="round"/>
<path d="M221.654 44.964V38.1809" stroke="#675AF6" stroke-width="1.69578" stroke-linejoin="round"/>
<path d="M221.654 67.0092V56.8345" stroke="#675AF6" stroke-width="1.69578" stroke-linejoin="round"/>
<path d="M235.221 39.8767H228.438V48.3556H235.221V39.8767Z" fill="#B9B3F9" stroke="#675AF6" stroke-width="1.69578" stroke-linecap="round" stroke-linejoin="round"/>
<path d="M231.829 39.8766V33.9414" stroke="#675AF6" stroke-width="1.69578" stroke-linejoin="round"/>
<path d="M231.829 56.8346V48.3557" stroke="#675AF6" stroke-width="1.69578" stroke-linejoin="round"/>
<path d="M233.525 64.4656V69.5529" stroke="#C6C2F9" stroke-width="1.69578" stroke-miterlimit="10"/>
<path d="M236.068 67.0093H230.981" stroke="#C6C2F9" stroke-width="1.69578" stroke-miterlimit="10"/>
<path d="M226.741 70.4009V75.4882" stroke="#C6C2F9" stroke-width="1.69578" stroke-miterlimit="10"/>
<path d="M229.285 72.9443H224.198" stroke="#C6C2F9" stroke-width="1.69578" stroke-miterlimit="10"/>
<path d="M190.282 29.7021V34.7895" stroke="#C6C2F9" stroke-width="1.69578" stroke-miterlimit="10"/>
<path d="M192.826 32.2456H187.738" stroke="#C6C2F9" stroke-width="1.69578" stroke-miterlimit="10"/>
<path d="M197.913 24.6147V29.7021" stroke="#C6C2F9" stroke-width="1.69578" stroke-miterlimit="10"/>
<path d="M120.517 123.949C123.545 109.848 114.569 95.9621 100.468 92.9339C86.3665 89.9058 72.4804 98.8822 69.4523 112.983C66.4241 127.084 75.4005 140.97 89.5016 143.999C103.603 147.027 117.489 138.05 120.517 123.949Z" fill="#C6C2F9"/>
<path d="M118.766 100.58C118.076 100.579 117.396 100.749 116.788 101.074C116.179 101.4 115.661 101.871 115.278 102.445H69.8016V100.58H65.1383V108.974H69.8016V107.108H115.278C115.681 107.711 116.233 108.199 116.881 108.525C117.529 108.851 118.25 109.004 118.974 108.968C119.698 108.933 120.401 108.71 121.014 108.322C121.626 107.934 122.128 107.394 122.469 106.754C122.811 106.115 122.981 105.398 122.963 104.673C122.945 103.948 122.74 103.24 122.367 102.618C121.994 101.996 121.466 101.481 120.835 101.124C120.204 100.767 119.491 100.579 118.766 100.58Z" fill="#F5F4FD"/>
<path d="M110.926 107.234C109.949 112.618 96.9685 115.936 93.0732 117.095C85.1341 115.03 76.8553 111.487 73.7773 107.234V148.363H110.926V107.234Z" fill="#B9B3F9"/>
<path d="M86.0906 133.26L83.0643 127.977V127.272H83.4166C84.2706 127.272 84.9217 127.149 85.3701 126.904C85.8291 126.658 86.0959 126.215 86.1707 125.575H83.0643V124.55H86.1547C86.0479 123.952 85.765 123.52 85.306 123.253C84.8577 122.986 84.2279 122.853 83.4166 122.853H83.0643V121.828H89.6933V122.853H86.667C87.1794 123.269 87.4837 123.835 87.5797 124.55H89.6933V125.575H87.6118C87.537 126.354 87.2381 126.962 86.7151 127.4C86.2027 127.827 85.5195 128.099 84.6655 128.217L87.7238 133.26H86.0906Z" fill="#D5D1FF"/>
<path d="M96.0223 133.421C94.6453 133.421 93.6365 133.02 92.996 132.22C92.3662 131.408 92.03 130.352 91.9873 129.049L91.9713 127.672L91.9873 126.247C92.0193 124.956 92.3556 123.909 92.996 123.109C93.6472 122.298 94.656 121.892 96.0223 121.892C97.3994 121.892 98.4081 122.298 99.0486 123.109C99.6998 123.909 100.041 124.956 100.073 126.247C100.084 126.546 100.089 127.021 100.089 127.672C100.089 128.302 100.084 128.761 100.073 129.049C100.031 130.352 99.6891 131.408 99.0486 132.22C98.4188 133.02 97.41 133.421 96.0223 133.421ZM96.0223 132.092C96.8443 132.092 97.4634 131.819 97.8797 131.275C98.296 130.731 98.5149 129.962 98.5362 128.969C98.5469 128.66 98.5522 128.217 98.5522 127.64C98.5522 127.053 98.5469 126.615 98.5362 126.327C98.5149 125.345 98.2907 124.582 97.8637 124.038C97.4474 123.482 96.8336 123.205 96.0223 123.205C95.211 123.205 94.5973 123.482 94.1809 124.038C93.7646 124.582 93.5458 125.345 93.5244 126.327L93.5084 127.64L93.5244 128.969C93.5458 129.962 93.7646 130.731 94.1809 131.275C94.5973 131.819 95.211 132.092 96.0223 132.092Z" fill="#D5D1FF"/>
<path d="M77.8999 139.147C77.8619 139.147 77.8277 139.133 77.7973 139.107C77.7707 139.076 77.7574 139.042 77.7574 139.004V135.301C77.7574 135.259 77.7707 135.225 77.7973 135.198C77.8239 135.167 77.8581 135.152 77.8999 135.152H79.6611C80.1437 135.152 80.5028 135.251 80.7384 135.449C80.974 135.647 81.0918 135.928 81.0918 136.294C81.0918 136.476 81.0424 136.634 80.9436 136.767C80.8486 136.9 80.7422 136.997 80.6244 137.058C80.7802 137.127 80.9113 137.241 81.0177 137.401C81.1241 137.557 81.1773 137.733 81.1773 137.931C81.1773 138.316 81.05 138.614 80.7954 138.827C80.5446 139.04 80.1836 139.147 79.7124 139.147H77.8999ZM79.5414 136.733C79.682 136.733 79.7903 136.695 79.8663 136.619C79.9423 136.543 79.9803 136.444 79.9803 136.322C79.9803 136.204 79.9423 136.109 79.8663 136.037C79.7941 135.961 79.6858 135.923 79.5414 135.923H78.829V136.733H79.5414ZM79.5927 138.376C79.7409 138.376 79.8549 138.335 79.9347 138.251C80.0183 138.163 80.0601 138.057 80.0601 137.931C80.0601 137.802 80.0183 137.695 79.9347 137.612C79.8511 137.524 79.7371 137.48 79.5927 137.48H78.829V138.376H79.5927Z" fill="#D5D1FF"/>
<path d="M81.8671 139.147C81.8291 139.147 81.7949 139.133 81.7645 139.107C81.7379 139.076 81.7246 139.042 81.7246 139.004V136.328C81.7246 136.286 81.7379 136.252 81.7645 136.225C81.7911 136.195 81.8253 136.179 81.8671 136.179H82.5625C82.6043 136.179 82.6384 136.195 82.665 136.225C82.6954 136.252 82.7106 136.286 82.7106 136.328V136.545C82.817 136.427 82.9405 136.337 83.0811 136.276C83.2255 136.212 83.3851 136.179 83.5599 136.179H83.8164C83.8582 136.179 83.8924 136.193 83.919 136.219C83.9456 136.246 83.9589 136.28 83.9589 136.322V136.944C83.9589 136.982 83.9456 137.016 83.919 137.047C83.8924 137.073 83.8582 137.087 83.8164 137.087H83.2407C83.0887 137.087 82.9709 137.129 82.8873 137.212C82.8075 137.296 82.7676 137.414 82.7676 137.566V139.004C82.7676 139.046 82.7524 139.08 82.722 139.107C82.6954 139.133 82.6612 139.147 82.6195 139.147H81.8671Z" fill="#D5D1FF"/>
<path d="M85.7545 139.204C85.2757 139.204 84.9071 139.093 84.6487 138.873C84.3941 138.648 84.2554 138.331 84.2326 137.92C84.2288 137.87 84.2269 137.785 84.2269 137.663C84.2269 137.541 84.2288 137.456 84.2326 137.406C84.2554 137.003 84.3979 136.689 84.6601 136.465C84.9261 136.236 85.2909 136.122 85.7545 136.122C86.218 136.122 86.5809 136.236 86.8431 136.465C87.1091 136.689 87.2535 137.003 87.2763 137.406C87.2839 137.505 87.2877 137.591 87.2877 137.663C87.2877 137.735 87.2839 137.821 87.2763 137.92C87.2535 138.331 87.1129 138.648 86.8545 138.873C86.5999 139.093 86.2332 139.204 85.7545 139.204ZM85.7545 138.485C85.9102 138.485 86.0261 138.437 86.1021 138.342C86.1781 138.243 86.2218 138.093 86.2332 137.891C86.237 137.853 86.2389 137.777 86.2389 137.663C86.2389 137.549 86.237 137.473 86.2332 137.435C86.2218 137.237 86.1781 137.089 86.1021 136.99C86.0261 136.891 85.9102 136.841 85.7545 136.841C85.5987 136.841 85.4828 136.891 85.4068 136.99C85.3308 137.089 85.2871 137.237 85.2757 137.435L85.27 137.663L85.2757 137.891C85.2871 138.093 85.3308 138.243 85.4068 138.342C85.4828 138.437 85.5987 138.485 85.7545 138.485Z" fill="#D5D1FF"/>
<path d="M87.9788 139.147C87.937 139.147 87.9009 139.133 87.8705 139.107C87.8439 139.08 87.8306 139.046 87.8306 139.004V135.238C87.8306 135.196 87.8439 135.162 87.8705 135.135C87.9009 135.109 87.937 135.095 87.9788 135.095H88.6742C88.716 135.095 88.7502 135.109 88.7768 135.135C88.8033 135.162 88.8166 135.196 88.8166 135.238V137.144L89.5747 136.276C89.5823 136.269 89.5956 136.256 89.6146 136.236C89.6374 136.217 89.6602 136.204 89.683 136.197C89.7058 136.185 89.7343 136.179 89.7685 136.179H90.5722C90.6063 136.179 90.6348 136.193 90.6576 136.219C90.6842 136.242 90.6975 136.273 90.6975 136.311C90.6975 136.345 90.6842 136.375 90.6576 136.402L89.6545 137.509L90.8001 138.93C90.8267 138.964 90.84 138.993 90.84 139.015C90.84 139.054 90.8267 139.086 90.8001 139.112C90.7773 139.135 90.7469 139.147 90.7089 139.147H89.8825C89.8331 139.147 89.7951 139.139 89.7685 139.124C89.7457 139.109 89.7172 139.084 89.683 139.05L88.8166 137.977V139.004C88.8166 139.042 88.8033 139.076 88.7768 139.107C88.7502 139.133 88.716 139.147 88.6742 139.147H87.9788Z" fill="#D5D1FF"/>
<path d="M92.4552 139.204C91.9917 139.204 91.6269 139.08 91.3609 138.833C91.0949 138.582 90.9581 138.218 90.9505 137.743V137.566C90.9657 137.113 91.1063 136.76 91.3723 136.505C91.6383 136.25 91.9974 136.122 92.4495 136.122C92.7763 136.122 93.0518 136.189 93.276 136.322C93.504 136.451 93.6731 136.632 93.7833 136.864C93.8972 137.092 93.9542 137.353 93.9542 137.646V137.789C93.9542 137.83 93.939 137.867 93.9086 137.897C93.882 137.924 93.8478 137.937 93.806 137.937H91.9993V137.971C92.0031 138.142 92.0429 138.281 92.1189 138.388C92.1949 138.491 92.3032 138.542 92.4438 138.542C92.535 138.542 92.6072 138.525 92.6604 138.491C92.7174 138.452 92.7706 138.405 92.82 138.348C92.8542 138.31 92.8808 138.287 92.8998 138.279C92.9226 138.268 92.9568 138.262 93.0024 138.262H93.7491C93.7833 138.262 93.8118 138.274 93.8345 138.296C93.8611 138.316 93.8744 138.34 93.8744 138.371C93.8744 138.47 93.8174 138.586 93.7035 138.719C93.5933 138.852 93.4299 138.966 93.2133 139.061C93.0005 139.156 92.7478 139.204 92.4552 139.204ZM92.9055 137.355V137.344C92.9055 137.161 92.8656 137.02 92.7858 136.921C92.706 136.819 92.5939 136.767 92.4495 136.767C92.3051 136.767 92.193 136.819 92.1132 136.921C92.0372 137.02 91.9993 137.161 91.9993 137.344V137.355H92.9055Z" fill="#D5D1FF"/>
<path d="M94.6079 139.147C94.5699 139.147 94.5357 139.133 94.5053 139.107C94.4787 139.076 94.4654 139.042 94.4654 139.004V136.328C94.4654 136.286 94.4787 136.252 94.5053 136.225C94.5319 136.195 94.5661 136.179 94.6079 136.179H95.3032C95.345 136.179 95.3792 136.195 95.4058 136.225C95.4362 136.252 95.4514 136.286 95.4514 136.328V136.545C95.5578 136.427 95.6813 136.337 95.8219 136.276C95.9663 136.212 96.1259 136.179 96.3007 136.179H96.5572C96.599 136.179 96.6332 136.193 96.6598 136.219C96.6864 136.246 96.6997 136.28 96.6997 136.322V136.944C96.6997 136.982 96.6864 137.016 96.6598 137.047C96.6332 137.073 96.599 137.087 96.5572 137.087H95.9815C95.8295 137.087 95.7117 137.129 95.6281 137.212C95.5483 137.296 95.5084 137.414 95.5084 137.566V139.004C95.5084 139.046 95.4932 139.08 95.4628 139.107C95.4362 139.133 95.402 139.147 95.3602 139.147H94.6079Z" fill="#D5D1FF"/>
<path d="M97.9373 139.204C97.736 139.204 97.5517 139.166 97.3845 139.09C97.2211 139.01 97.0919 138.901 96.9969 138.764C96.9057 138.627 96.8601 138.477 96.8601 138.314C96.8601 138.055 96.9665 137.846 97.1793 137.686C97.3959 137.522 97.6923 137.41 98.0684 137.349L98.7752 137.241V137.172C98.7752 137.032 98.7467 136.929 98.6897 136.864C98.6327 136.8 98.5358 136.767 98.399 136.767C98.323 136.767 98.2584 136.78 98.2052 136.807C98.1558 136.834 98.0988 136.874 98.0342 136.927C97.9848 136.969 97.9411 136.999 97.9031 137.018C97.8879 137.045 97.8689 137.058 97.8461 137.058H97.185C97.147 137.058 97.1147 137.047 97.0881 137.024C97.0653 136.997 97.0558 136.967 97.0596 136.933C97.0634 136.83 97.1147 136.716 97.2135 136.59C97.3123 136.461 97.4624 136.351 97.6638 136.259C97.8651 136.168 98.114 136.122 98.4104 136.122C98.8816 136.122 99.2312 136.227 99.4592 136.436C99.6871 136.642 99.8011 136.921 99.8011 137.275V139.004C99.8011 139.042 99.7878 139.076 99.7612 139.107C99.7346 139.133 99.7004 139.147 99.6586 139.147H98.9576C98.9196 139.147 98.8854 139.133 98.855 139.107C98.8284 139.076 98.8151 139.042 98.8151 139.004V138.804C98.7315 138.922 98.6156 139.019 98.4674 139.095C98.3192 139.168 98.1425 139.204 97.9373 139.204ZM98.2223 138.53C98.3895 138.53 98.5244 138.475 98.627 138.365C98.7334 138.255 98.7866 138.095 98.7866 137.886V137.817L98.3135 137.897C97.9943 137.958 97.8347 138.072 97.8347 138.239C97.8347 138.327 97.8708 138.397 97.943 138.451C98.019 138.504 98.1121 138.53 98.2223 138.53Z" fill="#D5D1FF"/>
<path d="M101.903 140.402C101.538 140.402 101.242 140.343 101.014 140.225C100.786 140.107 100.622 139.97 100.524 139.814C100.425 139.662 100.376 139.535 100.376 139.432C100.376 139.394 100.391 139.362 100.421 139.335C100.452 139.308 100.486 139.295 100.524 139.295H101.287C101.325 139.295 101.356 139.303 101.379 139.318C101.401 139.337 101.422 139.367 101.441 139.409C101.479 139.493 101.529 139.558 101.59 139.603C101.65 139.653 101.745 139.677 101.875 139.677C102.038 139.677 102.16 139.636 102.239 139.552C102.319 139.472 102.359 139.337 102.359 139.147V138.764C102.158 138.974 101.882 139.078 101.533 139.078C101.149 139.078 100.854 138.968 100.649 138.747C100.448 138.523 100.338 138.194 100.319 137.76L100.313 137.606C100.313 137.142 100.415 136.779 100.621 136.516C100.83 136.254 101.134 136.122 101.533 136.122C101.726 136.122 101.897 136.16 102.046 136.236C102.194 136.309 102.317 136.408 102.416 136.533V136.328C102.416 136.286 102.429 136.252 102.456 136.225C102.482 136.195 102.517 136.179 102.558 136.179H103.254C103.296 136.179 103.33 136.195 103.356 136.225C103.387 136.252 103.402 136.286 103.402 136.328V139.061C103.402 139.499 103.271 139.831 103.009 140.06C102.747 140.288 102.378 140.402 101.903 140.402ZM101.857 138.308C102.021 138.308 102.142 138.258 102.222 138.16C102.302 138.061 102.348 137.935 102.359 137.783C102.363 137.756 102.365 137.699 102.365 137.612C102.365 137.52 102.363 137.463 102.359 137.441C102.348 137.285 102.302 137.159 102.222 137.064C102.142 136.965 102.021 136.916 101.857 136.916C101.69 136.916 101.569 136.967 101.493 137.07C101.417 137.169 101.375 137.307 101.367 137.486L101.362 137.612C101.362 137.829 101.398 138 101.47 138.125C101.542 138.247 101.671 138.308 101.857 138.308Z" fill="#D5D1FF"/>
<path d="M105.446 139.204C104.983 139.204 104.618 139.08 104.352 138.833C104.086 138.582 103.949 138.218 103.942 137.743V137.566C103.957 137.113 104.098 136.76 104.364 136.505C104.63 136.25 104.989 136.122 105.441 136.122C105.768 136.122 106.043 136.189 106.267 136.322C106.495 136.451 106.664 136.632 106.775 136.864C106.889 137.092 106.946 137.353 106.946 137.646V137.789C106.946 137.83 106.93 137.867 106.9 137.897C106.873 137.924 106.839 137.937 106.797 137.937H104.991V137.971C104.994 138.142 105.034 138.281 105.11 138.388C105.186 138.491 105.294 138.542 105.435 138.542C105.526 138.542 105.598 138.525 105.652 138.491C105.709 138.452 105.762 138.405 105.811 138.348C105.845 138.31 105.872 138.287 105.891 138.279C105.914 138.268 105.948 138.262 105.994 138.262H106.74C106.775 138.262 106.803 138.274 106.826 138.296C106.852 138.316 106.866 138.34 106.866 138.371C106.866 138.47 106.809 138.586 106.695 138.719C106.585 138.852 106.421 138.966 106.205 139.061C105.992 139.156 105.739 139.204 105.446 139.204ZM105.897 137.355V137.344C105.897 137.161 105.857 137.02 105.777 136.921C105.697 136.819 105.585 136.767 105.441 136.767C105.296 136.767 105.184 136.819 105.105 136.921C105.029 137.02 104.991 137.161 104.991 137.344V137.355H105.897Z" fill="#D5D1FF"/>
<path d="M114.569 107.109H69.8016" stroke="#675AF6" stroke-width="2.24984" stroke-linecap="round" stroke-linejoin="round"/>
<path d="M69.8016 102.446H114.569" stroke="#675AF6" stroke-width="2.24984" stroke-linecap="round" stroke-linejoin="round"/>
<path d="M122.963 104.777C122.963 105.607 122.717 106.418 122.256 107.108C121.794 107.798 121.139 108.336 120.372 108.654C119.605 108.972 118.761 109.055 117.947 108.893C117.133 108.731 116.385 108.331 115.798 107.744C115.211 107.157 114.812 106.409 114.65 105.595C114.488 104.781 114.571 103.937 114.889 103.17C115.206 102.404 115.744 101.748 116.434 101.287C117.124 100.826 117.936 100.58 118.766 100.58C119.317 100.578 119.864 100.686 120.374 100.897C120.883 101.107 121.346 101.416 121.736 101.806C122.126 102.196 122.435 102.659 122.646 103.169C122.856 103.679 122.964 104.225 122.963 104.777V104.777Z" stroke="#675AF6" stroke-width="2.24984" stroke-linecap="round" stroke-linejoin="round"/>
<path d="M65.1383 100.58H69.8016V108.974H65.1383" stroke="#675AF6" stroke-width="2.24984" stroke-linecap="round" stroke-linejoin="round"/>
<path d="M93.0096 117.086C96.9048 115.927 109.992 112.618 110.926 107.234V148.363H73.7773V107.234C77.7893 112.842 90.5578 117.067 100.036 118.563" stroke="#675AF6" stroke-width="2.24984" stroke-linecap="round" stroke-linejoin="round"/>
<path d="M65.1383 98.7151V110.84" stroke="#675AF6" stroke-width="2.24984" stroke-linecap="round" stroke-linejoin="round"/>
<path d="M119.233 113.637V119.233" stroke="#C6C2F9" stroke-width="2.24984" stroke-miterlimit="10"/>
<path d="M116.435 116.435H122.031" stroke="#C6C2F9" stroke-width="2.24984" stroke-miterlimit="10"/>
<path d="M114.569 123.897V129.493" stroke="#C6C2F9" stroke-width="2.24984" stroke-miterlimit="10"/>
<path d="M111.771 126.694H117.367" stroke="#C6C2F9" stroke-width="2.24984" stroke-miterlimit="10"/>
<path d="M68.8687 116.435V122.031" stroke="#C6C2F9" stroke-width="2.24984" stroke-miterlimit="10"/>
<path d="M71.6671 119.234H66.0712" stroke="#C6C2F9" stroke-width="2.24984" stroke-miterlimit="10"/>
<path d="M91.2826 73.0888C101.582 62.6372 101.459 45.8151 91.0071 35.5156C80.5555 25.216 63.7334 25.3394 53.4339 35.791C43.1344 46.2426 43.2577 63.0647 53.7093 73.3642C64.1609 83.6638 80.9831 83.5404 91.2826 73.0888Z" fill="#C6C2F9"/>
<path d="M75.7523 74.7993L72.1657 70.7209L70.3088 73.1035L72.3607 75.6472L75.7523 74.7993Z" fill="#F5F4FD"/>
<path d="M95.0416 51.118L94.0665 49.1424C92.7438 47.8197 91.26 45.7932 89.4201 45.4032C87.5802 45.0132 81.9078 43.1054 78.601 44.2416C75.2942 45.3778 71.2667 51.7624 69.7066 52.5424C68.1465 53.3225 63.8816 54.5519 62.6776 57.5196C62.2265 58.5448 62.067 59.6745 62.2166 60.7845C62.3662 61.8945 62.8191 62.9417 63.5255 63.8109C64.3734 65.1167 65.7894 67.2025 65.2976 68.2963C64.8058 69.39 63.2796 71.5861 63.0337 72.2559C63.5679 73.8923 65.5774 78.1911 65.5774 78.1911L68.969 77.3433C68.1926 75.8302 67.5977 74.2308 67.1969 72.5781C68.0448 71.7302 70.3171 69.0085 73.1321 66.185C73.6583 65.6299 74.017 64.9375 74.167 64.1875C74.317 63.4375 74.2522 62.6603 73.98 61.9456C76.6339 60.8942 79.3387 62.3865 81.6704 59.2323L83.7392 61.2672L80.3985 65.2439L83.7392 66.4055L87.4445 62.3865L86.1557 57.6383L89.1912 56.0527C90.1493 58.0707 91.0311 58.1724 92.7099 58.5964C93.9836 58.8256 95.2955 58.7085 96.5085 58.2572C95.9573 55.2981 95.8895 52.8138 95.0416 51.118Z" fill="#F5F4FD"/>
<path d="M95.0415 51.1177C95.8894 52.8135 95.9572 55.2639 96.5253 58.2654C95.3124 58.7167 94.0005 58.8338 92.7267 58.6046C91.031 58.1891 90.1831 58.0873 89.208 56.0609" stroke="#675AF6" stroke-width="1.69578" stroke-linecap="round" stroke-linejoin="round"/>
<path d="M91.7518 49.3623C93.3373 49.2775 97.0935 48.896 99.6202 47.2002" stroke="#675AF6" stroke-width="1.69578" stroke-linecap="round" stroke-linejoin="round"/>
<path d="M94.0665 49.1424C92.7438 47.8197 91.26 45.7932 89.4201 45.4032C87.5802 45.0132 81.9078 43.1054 78.601 44.2416C75.2942 45.3778 71.2667 51.7624 69.7066 52.5424C68.1465 53.3225 63.8816 54.5519 62.6776 57.5196C62.2265 58.5447 62.067 59.6745 62.2166 60.7845C62.3662 61.8945 62.8191 62.9417 63.5255 63.8109C64.3734 65.1167 65.7894 67.2025 65.2976 68.2963C64.8058 69.39 63.2796 71.5861 63.0337 72.2559C63.5679 73.8923 65.5774 78.1911 65.5774 78.1911" stroke="#675AF6" stroke-width="1.69578" stroke-linecap="round" stroke-linejoin="round"/>
<path d="M71.9875 57.9431C72.8354 59.3252 75.8115 63.5138 73.1406 66.1846C70.3171 69.0081 68.0533 71.7553 67.2054 72.5777C67.6035 74.23 68.1955 75.8295 68.969 77.3429" stroke="#675AF6" stroke-width="1.69578" stroke-linecap="round" stroke-linejoin="round"/>
<path d="M73.9967 61.962C76.6506 60.9106 79.3554 62.4029 81.6871 59.2488" stroke="#675AF6" stroke-width="1.69578" stroke-linecap="round" stroke-linejoin="round"/>
<path d="M79.5165 57.0952C80.1524 57.7396 83.7559 61.2838 83.7559 61.2838L80.4152 65.2604" stroke="#675AF6" stroke-width="1.69578" stroke-linecap="round" stroke-linejoin="round"/>
<path d="M85.7321 56.0435L87.4617 62.4026L83.7565 66.4301" stroke="#675AF6" stroke-width="1.69578" stroke-linecap="round" stroke-linejoin="round"/>
<path d="M89.2082 56.0693L86.1727 57.6549" stroke="#675AF6" stroke-width="1.69578" stroke-linecap="round" stroke-linejoin="round"/>
<path d="M63.2373 56.544C63.2373 56.544 60.1171 57.9007 58.5315 57.6548C56.946 57.4089 54.9195 55.5011 57.0901 53.322C59.7016 50.719 56.3525 48.6841 56.3525 48.6841" stroke="#675AF6" stroke-width="1.69578" stroke-linecap="round" stroke-linejoin="round"/>
<path d="M70.3088 73.1033L72.3607 75.6469" stroke="#675AF6" stroke-width="1.69578" stroke-linecap="round" stroke-linejoin="round"/>
<path d="M72.1655 70.7209L75.752 74.7993" stroke="#675AF6" stroke-width="1.69578" stroke-linecap="round" stroke-linejoin="round"/>
<path d="M102.885 80.7342V62.0806L99.493 62.9285L96.9493 65.4721L93.5578 66.32L90.1662 68.8637H85.9268L82.5352 71.4074L79.1436 72.2553L75.7521 74.7989L72.3605 75.6468L68.9689 77.3426L65.5774 78.1905L61.6177 80.7342H102.885Z" fill="#B9B3F9" stroke="#675AF6" stroke-width="1.69578" stroke-linecap="round" stroke-linejoin="round"/>
<path d="M57.0984 38.3396L59.6421 35.7959L62.1858 38.3396" stroke="#C6C2F9" stroke-width="1.69578" stroke-miterlimit="10"/>
<path d="M59.6419 35.7959V40.8832" stroke="#C6C2F9" stroke-width="1.69578" stroke-miterlimit="10"/>
<path d="M65.5778 43.427L68.1214 40.8833L70.6651 43.427" stroke="#C6C2F9" stroke-width="1.69578" stroke-miterlimit="10"/>
<path d="M68.1208 40.8833V45.9706" stroke="#C6C2F9" stroke-width="1.69578" stroke-miterlimit="10"/>
<path d="M73.2084 35.7961L75.7521 33.2524L78.2958 35.7961" stroke="#C6C2F9" stroke-width="1.69578" stroke-miterlimit="10"/>
<path d="M75.7522 33.2524V38.3398" stroke="#C6C2F9" stroke-width="1.69578" stroke-miterlimit="10"/>
<path opacity="0.1" d="M97.4079 88.5017C97.5024 87.8851 97.4844 87.3 97.8264 86.7555C98.515 85.6754 99.4916 85.9454 100.437 86.4224C101.4 86.9085 102.309 87.1965 103.353 86.7465C104.987 86.0399 105.756 83.5737 104.195 82.4125C103.691 82.0345 103.191 82.6556 103.258 83.1326C103.353 83.7942 103.682 84.5278 103.114 85.0948C102.354 85.8554 101.463 85.2163 100.702 84.8743C99.8831 84.5053 99.0101 84.4242 98.1685 84.7663C96.7148 85.3558 95.6572 87.327 96.8138 88.6592C96.9758 88.8437 97.3674 88.7582 97.4079 88.5017Z" fill="#5AAAF6"/>
<path opacity="0.2" d="M55.0194 135.219C57.4555 134.556 59.9696 133.742 62.2496 132.66C63.0858 132.265 62.5451 131.094 61.6921 131.362C59.3285 132.097 56.9593 133.173 54.763 134.311C54.3226 134.539 54.4675 135.37 55.0194 135.219Z" fill="#F3EFFF"/>
<path opacity="0.2" d="M213.372 94.7625C213.513 95.2177 213.946 95.3638 214.339 95.0941C215.884 94.0432 217.424 93.0148 218.891 91.8516C219.172 91.6268 219.11 91.1772 218.835 90.9862C217.121 89.8117 214.811 88.0752 212.636 88.064C212.085 88.0584 211.698 88.8395 212.26 89.1598C213.136 89.6656 214.187 89.8454 215.126 90.2331C216.205 90.6827 217.278 91.2109 218.233 91.8909C218.256 91.5762 218.278 91.2615 218.295 90.9468C216.66 91.9527 215.12 93.0823 213.569 94.2062C213.872 94.268 214.182 94.3298 214.485 94.3916C213.822 92.5147 213.142 90.6546 212.406 88.8058C212.243 88.418 211.58 88.6316 211.692 89.0418C212.209 90.9637 212.777 92.8631 213.372 94.7625Z" fill="#5AAAF6"/>
<path opacity="0.1" d="M53.3218 74.6333C55.1058 74.7677 56.9807 74.8192 58.7647 74.6412C59.4213 74.5779 59.3383 73.6839 58.7014 73.6602C56.9451 73.5929 55.1058 73.7432 53.3692 73.9766C53.0251 74.0241 52.9183 74.6016 53.3218 74.6333Z" fill="#5AAAF6"/>
<path opacity="0.1" d="M256.105 47.836C254.17 49.6938 253.438 52.5844 255.28 54.8199C257.015 56.9242 260.383 57.3636 262.549 55.6909C267.791 51.644 262.326 44.19 256.676 45.7317C255.627 46.0169 255.889 47.5123 256.922 47.5663C258.572 47.6588 260.345 47.7204 261.663 48.8844C263.081 50.1254 263.112 52.2298 261.948 53.6636C258.865 57.4484 253.515 51.8752 256.753 48.4836C257.169 48.0596 256.537 47.4275 256.105 47.836Z" fill="#5AAAF6"/>
<path opacity="0.2" d="M173.206 43.8836C172.059 45.5251 170.962 47.1912 169.884 48.8789C169.624 49.2816 169.791 49.7096 170.253 49.8383C172.063 50.3499 173.851 50.8716 175.697 51.2498C176.052 51.321 176.358 50.9825 176.327 50.6467C176.124 48.5659 175.969 45.6625 174.571 43.9788C174.219 43.5507 173.366 43.757 173.483 44.3974C173.66 45.4003 174.201 46.3266 174.509 47.3008C174.86 48.4232 175.147 49.5922 175.241 50.7684C175.498 50.5822 175.755 50.396 176.009 50.2054C174.176 49.5955 172.309 49.1392 170.44 48.6706C170.588 48.9445 170.74 49.2227 170.889 49.4966C171.907 47.7715 172.901 46.0443 173.85 44.281C174.047 43.9089 173.454 43.5359 173.206 43.8836Z" fill="#5AAAF6"/>
<path opacity="0.2" d="M242.353 148.491C242.051 147.404 241.679 146.279 241.19 145.261C241.01 144.887 240.488 145.132 240.611 145.514C240.947 146.568 241.434 147.627 241.948 148.604C242.05 148.805 242.421 148.738 242.353 148.491Z" fill="#5AAAF6"/>
<path opacity="0.2" d="M111.38 43.9193C111.087 42.3844 110.703 40.7873 110.143 39.325C109.939 38.7892 109.189 39.0658 109.313 39.6085C109.655 41.1054 110.209 42.6195 110.807 44.0299C110.928 44.3169 111.45 44.2685 111.38 43.9193Z" fill="#5AAAF6"/>
<path d="M173.969 109.917C174.071 109.187 170.6 108.917 165.287 109.157C157.183 109.522 146.229 108.751 142.268 108.434C140.791 108.315 142.113 108.133 141.011 109.478C140.332 110.306 140.129 112.347 140.173 113.679C140.295 117.224 143.421 117.322 148.281 118.816C151.525 119.813 160.67 119.576 167.856 119.742C167.964 119.674 166.909 119.597 167.017 119.529C168.734 118.454 173.699 111.864 173.969 109.917Z" fill="#A998D2"/>
<path d="M176.649 119.937C176.619 119.305 173.334 119.035 168.423 119.194C160.927 119.434 154.242 117.927 150.498 117.619C149.102 117.504 147.926 119.076 147.368 120.978C147.125 121.81 146.337 124.145 147.145 125.01C148.71 126.69 152.82 128.268 157.605 129.468C162.299 130.644 167.139 132.952 173.868 133.165C175.943 130.702 176.257 123.165 177.389 124.764C178.366 126.146 176.734 121.627 176.649 119.937Z" fill="#C6C2F9"/>
<path d="M165.956 102.293C166.2 101.6 162.854 100.633 157.602 99.8017C149.589 98.531 139.011 95.5738 135.195 94.4687C133.772 94.0564 131.204 93.9009 129.855 94.9959C129.024 95.6718 128.605 96.5776 128.48 97.9024C128.145 101.377 134.85 103.952 139.007 105.848C142.096 107.257 150.991 109.082 158.001 110.688C158.122 110.644 157.102 110.356 157.223 110.309C159.119 109.606 165.304 104.145 165.956 102.293Z" fill="#B9B3F9"/>
<path d="M171.678 134.9C171.911 134.823 180.12 140.25 190.627 142.717C192.444 143.144 204.623 158.108 211.466 166.666C217.447 166.652 248.449 166.652 261.427 166.652C254.217 160.884 205.082 121.747 205.082 121.747L179.312 119.834L171.678 134.9Z" fill="#B9B3F9"/>
<path d="M151.373 72.1832C151.542 72.0446 151.802 72.0683 151.948 72.2339C152.096 72.4029 152.076 72.6496 151.907 72.7915L147.963 76.0191C147.794 76.1576 147.537 76.134 147.389 75.965C147.24 75.796 147.26 75.5493 147.429 75.4107L151.373 72.1832Z" fill="#C8C3FF"/>
<path d="M183.354 105.455L187.538 110.21L166.274 127.605L162.09 122.85L183.354 105.455Z" fill="white"/>
<path fill-rule="evenodd" clip-rule="evenodd" d="M194.463 113.239L152.475 65.5223C151.938 64.914 151.005 64.8295 150.386 65.333L126.151 85.1546C125.532 85.6581 125.468 86.5639 126.002 87.1722L167.991 134.889C168.528 135.498 169.461 135.582 170.079 135.078L194.315 115.257C194.933 114.753 195.001 113.848 194.463 113.239ZM182.182 122.211C182.128 122.962 181.763 123.61 181.219 124.053C180.675 124.499 179.951 124.739 179.177 124.668C177.626 124.53 176.46 123.201 176.568 121.704C176.622 120.957 176.987 120.305 177.532 119.862C178.076 119.416 178.799 119.176 179.573 119.247C181.124 119.386 182.293 120.714 182.182 122.211ZM166.271 127.603L162.148 122.8L131.16 87.5877L152.272 70.3178L183.351 105.456L187.535 110.211L166.271 127.603Z" fill="#9D95F8"/>
<path d="M136.705 84.1849C136.874 84.0463 137.135 84.07 137.28 84.2356C137.429 84.4046 137.408 84.6513 137.239 84.7932L133.295 88.0208C133.126 88.1593 132.87 88.1357 132.721 87.9667C132.572 87.7977 132.592 87.551 132.761 87.4124L136.705 84.1849Z" fill="#C8C3FF"/>
<path fill-rule="evenodd" clip-rule="evenodd" d="M131.163 87.5878L152.242 70.345L159.187 78.2364L138.108 95.4793L131.163 87.5878ZM133.292 88.0199L137.236 84.7924C137.405 84.6538 137.425 84.4037 137.276 84.2347C137.128 84.0657 136.871 84.0455 136.702 84.184L132.758 87.4116C132.589 87.5501 132.572 87.7969 132.717 87.9658C132.866 88.1348 133.123 88.1585 133.292 88.0199ZM151.377 72.1824C151.546 72.0439 151.802 72.0641 151.951 72.2331C152.1 72.4021 152.08 72.6522 151.911 72.7908L147.966 76.0183C147.798 76.1569 147.541 76.1332 147.392 75.9642C147.247 75.7986 147.264 75.5485 147.433 75.41L151.377 72.1824Z" fill="#C8C3FF"/>
<path d="M125.215 87.5133L125.698 85.8438C125.57 86.2899 125.668 86.79 126.006 87.1753L125.522 88.8449C125.184 88.4596 125.086 87.9594 125.215 87.5133Z" fill="#8279F8"/>
<path d="M152.242 70.345L183.263 105.53L162.147 122.804L138.105 95.4827L159.183 78.2398L152.242 70.345Z" fill="white"/>
<path d="M154.926 103.451C154.911 103.463 154.894 103.468 154.874 103.467C154.854 103.463 154.838 103.454 154.826 103.439L153.68 101.992C153.667 101.975 153.661 101.958 153.664 101.939C153.667 101.919 153.676 101.904 153.691 101.892L154.01 101.64C154.026 101.627 154.044 101.621 154.062 101.623C154.081 101.626 154.097 101.635 154.11 101.651L155.256 103.099C155.268 103.114 155.273 103.131 155.272 103.151C155.27 103.17 155.261 103.186 155.245 103.199L154.926 103.451ZM156.173 102.463C156.158 102.475 156.141 102.48 156.121 102.479C156.101 102.476 156.085 102.467 156.073 102.452L154.928 101.006C154.916 100.99 154.91 100.972 154.912 100.954C154.913 100.934 154.922 100.917 154.938 100.904L155.19 100.705C155.224 100.678 155.261 100.672 155.299 100.687L156.483 101.102L155.837 100.286C155.824 100.27 155.819 100.253 155.821 100.234C155.822 100.214 155.831 100.197 155.847 100.184L156.13 99.9604C156.146 99.9475 156.164 99.9428 156.184 99.9465C156.203 99.9487 156.219 99.9579 156.231 99.9742L157.375 101.418C157.387 101.434 157.393 101.452 157.392 101.472C157.39 101.491 157.381 101.507 157.365 101.52L157.113 101.719C157.079 101.746 157.042 101.752 157.004 101.737L155.849 101.354L156.47 102.138C156.483 102.154 156.487 102.172 156.484 102.192C156.482 102.211 156.472 102.226 156.456 102.239L156.173 102.463ZM158.682 100.476C158.657 100.496 158.631 100.507 158.606 100.508C158.58 100.506 158.557 100.498 158.536 100.483L156.957 99.4143L156.936 99.3978C156.927 99.3859 156.923 99.372 156.925 99.356C156.927 99.3374 156.935 99.3228 156.948 99.3122L157.24 99.0811C157.262 99.0635 157.286 99.056 157.31 99.0588C157.334 99.0589 157.354 99.0647 157.37 99.076L158.47 99.8428L157.978 98.5944C157.97 98.5746 157.968 98.5534 157.972 98.5309C157.977 98.5073 157.991 98.4866 158.013 98.469L158.305 98.2379C158.318 98.2273 158.334 98.2237 158.351 98.2271C158.367 98.2289 158.379 98.2358 158.389 98.2477C158.395 98.2551 158.399 98.2624 158.402 98.2695L159.079 100.053C159.09 100.076 159.093 100.1 159.087 100.127C159.081 100.15 159.066 100.172 159.041 100.192L158.682 100.476ZM160.359 99.1479C160.345 99.1596 160.327 99.165 160.307 99.164C160.287 99.1604 160.271 99.1511 160.26 99.1363L159.115 97.6907C159.102 97.6744 159.096 97.6569 159.099 97.6383C159.1 97.6182 159.108 97.6016 159.125 97.5887L160.176 96.7561C160.192 96.7432 160.21 96.7385 160.23 96.7422C160.25 96.7432 160.267 96.7518 160.28 96.7682L160.454 96.9887C160.467 97.005 160.472 97.0231 160.468 97.0429C160.466 97.0615 160.457 97.0773 160.441 97.0902L159.737 97.6476L159.961 97.9305L160.616 97.4119C160.632 97.399 160.65 97.3943 160.67 97.398C160.69 97.3989 160.706 97.4076 160.719 97.4239L160.88 97.6266C160.893 97.643 160.898 97.6618 160.896 97.6831C160.893 97.7017 160.884 97.7175 160.868 97.7304L160.213 98.249L160.442 98.5386L161.164 97.967C161.18 97.9541 161.198 97.9495 161.218 97.9531C161.238 97.9541 161.255 97.9627 161.268 97.9791L161.442 98.1996C161.455 98.2159 161.46 98.234 161.456 98.2538C161.454 98.2724 161.445 98.2882 161.429 98.3011L160.359 99.1479ZM162.855 97.2079C162.711 97.322 162.572 97.3982 162.438 97.4366C162.304 97.475 162.184 97.4806 162.078 97.4535C161.972 97.4263 161.886 97.3738 161.819 97.296C161.808 97.2826 161.804 97.268 161.806 97.252C161.809 97.2349 161.818 97.221 161.831 97.2104L162.127 96.9758C162.145 96.9617 162.162 96.9535 162.177 96.9512C162.193 96.9477 162.214 96.9481 162.239 96.9524C162.287 96.9727 162.34 96.9789 162.399 96.9709C162.458 96.9603 162.522 96.9279 162.59 96.8738C162.67 96.8103 162.723 96.7496 162.747 96.6918C162.77 96.6324 162.764 96.5812 162.73 96.5381C162.706 96.507 162.674 96.4905 162.637 96.4889C162.598 96.4857 162.548 96.4961 162.488 96.5201C162.426 96.5426 162.341 96.5806 162.234 96.6342C162.026 96.7409 161.848 96.7931 161.702 96.7909C161.555 96.7887 161.428 96.72 161.321 96.5849C161.248 96.4928 161.209 96.3912 161.203 96.2799C161.197 96.166 161.225 96.052 161.287 95.9378C161.35 95.8224 161.444 95.7153 161.569 95.6166C161.7 95.5131 161.831 95.4467 161.962 95.4175C162.094 95.3856 162.212 95.3838 162.317 95.4121C162.422 95.4378 162.502 95.4821 162.556 95.5451C162.567 95.5585 162.572 95.5739 162.571 95.5913C162.569 95.6073 162.562 95.6206 162.548 95.6311L162.236 95.8781C162.204 95.904 162.168 95.9106 162.129 95.898C162.095 95.8739 162.052 95.8661 161.998 95.8747C161.943 95.8818 161.889 95.9072 161.834 95.9507C161.771 96.0001 161.732 96.0494 161.715 96.0987C161.699 96.1481 161.708 96.1943 161.742 96.2373C161.776 96.2804 161.825 96.2969 161.89 96.2869C161.953 96.2753 162.056 96.234 162.197 96.1628C162.357 96.0775 162.493 96.0218 162.605 95.9957C162.718 95.967 162.817 95.9678 162.904 95.9981C162.991 96.0257 163.071 96.0856 163.144 96.1776C163.224 96.2786 163.265 96.3892 163.265 96.5093C163.266 96.6294 163.231 96.75 163.161 96.8713C163.089 96.991 162.987 97.1032 162.855 97.2079ZM164.63 95.7657C164.614 95.7786 164.595 95.7846 164.575 95.7836C164.557 95.7815 164.541 95.7722 164.528 95.7559L163.625 94.6155L163.233 94.9259C163.216 94.9389 163.198 94.9449 163.178 94.9439C163.159 94.9417 163.144 94.9325 163.131 94.9161L162.933 94.6667C162.92 94.6503 162.915 94.6328 162.917 94.6142C162.92 94.5929 162.929 94.5758 162.945 94.5629L164.155 93.605C164.171 93.5921 164.189 93.5875 164.209 93.5911C164.229 93.5921 164.246 93.6007 164.258 93.6171L164.456 93.8665C164.469 93.8829 164.474 93.9009 164.47 93.9208C164.468 93.9394 164.459 93.9552 164.442 93.9681L164.05 94.2786L164.953 95.419C164.966 95.4353 164.971 95.4534 164.967 95.4732C164.965 95.4918 164.956 95.5076 164.94 95.5205L164.63 95.7657Z" fill="#33CF90"/>
<circle cx="148.953" cy="86.6215" r="2.16296" fill="#9D95F8" stroke="white" stroke-width="0.720988"/>
<path fill-rule="evenodd" clip-rule="evenodd" d="M170.499 117.394C170.194 117.65 170.154 118.105 170.41 118.41L171.337 119.514C171.593 119.82 172.048 119.859 172.353 119.603L173.458 118.676C173.763 118.421 173.802 117.966 173.546 117.661L172.62 116.556C172.364 116.251 171.909 116.211 171.604 116.467L170.499 117.394ZM166.082 121.104C165.777 121.36 165.737 121.814 165.993 122.119L166.92 123.224C167.176 123.529 167.631 123.569 167.936 123.313L169.041 122.386C169.346 122.13 169.385 121.675 169.129 121.37L168.203 120.266C167.947 119.961 167.492 119.921 167.187 120.177L166.082 121.104ZM174.829 114.704C174.573 114.399 174.613 113.944 174.918 113.688L176.022 112.761C176.327 112.505 176.782 112.545 177.038 112.85L177.965 113.954C178.221 114.259 178.181 114.714 177.876 114.97L176.771 115.897C176.466 116.153 176.012 116.113 175.756 115.808L174.829 114.704ZM179.336 109.98C179.031 110.236 178.991 110.691 179.247 110.996L180.174 112.1C180.43 112.405 180.885 112.445 181.19 112.189L182.295 111.262C182.6 111.006 182.639 110.552 182.384 110.247L181.457 109.142C181.201 108.837 180.746 108.797 180.441 109.053L179.336 109.98Z" fill="#C6C2F9"/>
<path fill-rule="evenodd" clip-rule="evenodd" d="M177.65 119.999C178.748 119.1 180.411 119.249 181.364 120.333C182.317 121.415 182.199 123.02 181.101 123.919C180.002 124.818 178.339 124.666 177.39 123.585C176.437 122.503 176.552 120.898 177.65 119.999Z" fill="#675AF6"/>
<path fill-rule="evenodd" clip-rule="evenodd" d="M179.573 119.248C181.124 119.386 182.29 120.715 182.179 122.212C182.125 122.962 181.76 123.611 181.215 124.054C180.671 124.5 179.948 124.74 179.174 124.669C177.623 124.53 176.457 123.202 176.568 121.705C176.622 120.958 176.987 120.306 177.532 119.863C178.076 119.417 178.799 119.177 179.573 119.248ZM181.1 123.92C182.199 123.021 182.317 121.415 181.364 120.334C180.411 119.252 178.748 119.1 177.65 119.999C176.551 120.898 176.433 122.504 177.386 123.585C178.339 124.667 180.002 124.819 181.1 123.92Z" fill="#9D95F8"/>
<path d="M194.318 115.257L193.835 116.926L169.599 136.751L170.083 135.078L194.318 115.257Z" fill="#8279F8"/>
<path d="M167.994 134.893L167.511 136.562L125.523 88.8453L126.006 87.1758L167.994 134.893Z" fill="#8279F8"/>
<path d="M170.083 135.078L169.6 136.748C168.981 137.251 168.048 137.167 167.511 136.558L167.994 134.889C168.532 135.501 169.465 135.585 170.083 135.078Z" fill="#8279F8"/>
<path d="M146.851 108.654C145.723 106.308 143.452 104.108 140.66 104.595C140.528 104.619 140.423 104.717 140.396 104.848C140.045 106.481 140.055 106.626 139.883 107.985C139.67 109.654 139.443 112.463 139.93 114.075C140.626 116.38 143.36 118.549 145.821 117.025C145.973 116.931 146.111 116.826 146.243 116.708C148.19 114.954 147.835 110.695 146.851 108.654Z" fill="url(#paint0_linear_14862_12172)"/>
<path d="M140.494 104.679C140.207 106.041 140.775 107.646 142.228 108.545" stroke="#C6C2F9" stroke-width="0.238719"/>
<path d="M149.744 117.45C151.728 116.723 154.029 118.541 154.905 120.035C155.78 121.529 155.881 123.448 155.172 125.03C155.003 125.402 154.79 125.76 154.506 126.054C153.573 127.004 151.812 126.723 150.491 126.581C149.413 126.466 147.324 126.054 146.858 124.807C146.185 123.009 147.987 118.301 149.717 117.48" fill="url(#paint1_linear_14862_12172)"/>
<path d="M149.241 117.76C148.403 118.91 149.133 120.539 150.417 120.86C150.457 120.87 150.498 120.88 150.542 120.89" stroke="#C6C2F9" stroke-width="0.238719"/>
<path d="M179.597 90.8666C178.846 90.5828 178.022 90.5591 177.258 90.8058C174.051 91.8332 165.304 94.6721 164.861 95.1858C163.908 96.3011 162.357 96.8891 164.033 99.9545C164.841 101.431 167.214 103.077 173.591 102.307C174.277 102.222 178.221 101.039 178.221 101.039C178.221 101.039 183.027 104.172 182.915 106.416C182.804 108.66 181.604 112.635 181.128 114.707C180.175 118.853 183.027 126.471 186.717 130.838C189.141 133.71 205.586 124.041 205.586 124.041C205.586 124.041 200.533 106.748 197.671 101.485C195.271 97.0818 183.402 92.3064 179.597 90.8666Z" fill="#B9B3F9"/>
<path d="M169.39 93.4211C169.167 94.2627 169.238 95.574 169.613 96.6149C167.491 97.5679 165.669 97.7775 163.354 98.2405" stroke="#B69AFF" stroke-width="0.238719"/>
<path d="M92.8049 116.284C91.1524 113.436 90.9082 109.836 91.7773 106.628C92.7568 103.022 94.994 99.8719 97.6182 97.2161C99.4994 95.3142 101.649 93.5923 104.174 92.7149C106.698 91.8375 109.652 91.9118 111.875 93.3981C114.098 94.8844 115.315 97.941 114.266 100.405C113.217 102.87 109.697 104.037 107.625 102.35C105.302 100.46 105.922 96.7304 107.255 94.0421C111.096 86.2803 119.278 80.8597 127.906 80.3594C136.259 79.8731 145.597 81.9284 150.395 88.7858" stroke="#B9B3F9" stroke-width="0.720988" stroke-linecap="round" stroke-linejoin="round" stroke-dasharray="1.44 1.44"/>
<path d="M101.368 70.0408C101.368 70.0408 101.787 75.9714 110.182 78.1839C118.577 80.3963 125.509 74.2975 135.199 77.4704C144.889 80.6432 146.79 84.4605 149.674 87.3445" stroke="#B9B3F9" stroke-width="0.720988" stroke-linecap="round" stroke-linejoin="round" stroke-dasharray="1.44 1.44"/>
<path d="M147.931 85.7373C147.931 85.7373 137.837 76.3645 136.395 69.1546C134.953 61.9447 139.279 55.4558 143.605 53.2929C147.931 51.1299 154.42 51.1299 155.141 56.8978C155.862 62.6657 149.373 65.5497 145.047 62.6657C140.721 59.7818 141.442 46.804 153.699 45.362C165.956 43.92 179.654 56.8978 187.585 59.0608" stroke="#B9B3F9" stroke-width="0.720988" stroke-linecap="round" stroke-linejoin="round" stroke-dasharray="1.44 1.44"/>
<path fill-rule="evenodd" clip-rule="evenodd" d="M153.689 48.6445C144.51 48.6445 137 56.1545 137 65.3334C137 74.5123 144.51 82.0223 153.689 82.0223C162.868 82.0223 170.378 74.5123 170.378 65.3334C170.378 56.1545 162.868 48.6445 153.689 48.6445Z" fill="white"/>
<path fill-rule="evenodd" clip-rule="evenodd" d="M137 65.3334C137 56.1545 144.51 48.6445 153.689 48.6445C162.868 48.6445 170.378 56.1545 170.378 65.3334C170.378 74.5123 162.868 82.0223 153.689 82.0223C144.51 82.0223 137 74.5123 137 65.3334ZM163.58 59.6097C162.862 58.8969 161.696 58.8969 160.977 59.6097L151.235 69.2711L146.401 64.4773C145.682 63.7645 144.516 63.7645 143.798 64.4773C143.079 65.1901 143.079 66.3459 143.798 67.0587L149.933 73.1432C150.652 73.8561 151.817 73.8561 152.536 73.1432L163.58 62.1911C164.299 61.4783 164.299 60.3226 163.58 59.6097Z" fill="#7ED321"/>
</g>
</g>
<defs>
<linearGradient id="paint0_linear_14862_12172" x1="138.895" y1="109.924" x2="144.997" y2="115.124" gradientUnits="userSpaceOnUse">
<stop stop-color="#DCDAFF"/>
<stop offset="1" stop-color="#8279F8"/>
</linearGradient>
<linearGradient id="paint1_linear_14862_12172" x1="145.883" y1="121.205" x2="150.216" y2="126.871" gradientUnits="userSpaceOnUse">
<stop stop-color="#DCDAFF"/>
<stop offset="1" stop-color="#8279F8"/>
</linearGradient>
<clipPath id="clip0_14862_12172">
<rect width="275.778" height="146" fill="white" transform="translate(16.1111 12)"/>
</clipPath>
</defs>
</svg>
