<svg width="80" height="60" viewBox="0 0 80 60" fill="none" xmlns="http://www.w3.org/2000/svg">
<rect width="80" height="60" rx="4" fill="#F0F7FF"/>
<path d="M57 14C57 11.7909 55.2091 10 53 10L26.0001 10C23.791 10 22.0001 11.7909 22.0001 14L22 46.3846C22 48.5938 23.7909 50.3846 26 50.3846H53C55.2091 50.3846 57 48.5938 57 46.3846V14Z" fill="#D7EAFF"/>
<path fill-rule="evenodd" clip-rule="evenodd" d="M27.3848 42.3076H44.436V43.6538H27.3848V42.3076ZM46.263 42.3076H48.6989V43.6538H46.263V42.3076ZM52.9617 44.9999H27.3848V46.3461H52.9617V44.9999Z" fill="#B3D3F6"/>
<path fill-rule="evenodd" clip-rule="evenodd" d="M27.3848 35.5771H44.436V36.9233H27.3848V35.5771ZM46.263 35.5771H48.6989V36.9233H46.263V35.5771ZM52.9617 38.2695H27.3848V39.6156H52.9617V38.2695Z" fill="#B3D3F6"/>
</svg>
