<svg width="80" height="60" viewBox="0 0 80 60" fill="none" xmlns="http://www.w3.org/2000/svg">
<rect width="80" height="60" rx="4" fill="#F0F7FF"/>
<path fill-rule="evenodd" clip-rule="evenodd" d="M38.8979 27.263L29.8955 42.9174C29.5792 43.4674 29.9746 44.1548 30.6071 44.1548H48.612C49.2446 44.1548 49.6399 43.4673 49.3237 42.9174L40.3212 27.263C40.0049 26.7131 39.2141 26.7131 38.8979 27.263Z" fill="#98C7FF"/>
<path d="M39.6092 37.5155C39.1235 37.5155 38.7224 37.1343 38.6959 36.6474L38.4939 32.9395C38.4589 32.297 38.9683 31.7568 39.6092 31.7568C40.25 31.7568 40.7595 32.2971 40.7244 32.9395L40.5224 36.6474C40.4959 37.1343 40.0949 37.5155 39.6092 37.5155Z" fill="white"/>
<ellipse cx="39.6091" cy="40.7387" rx="1.15795" ry="1.16254" fill="white"/>
<path fill-rule="evenodd" clip-rule="evenodd" d="M39.61 15.0352C36.0703 15.0352 32.7497 15.9765 29.8828 17.6233L32.9626 22.9788C34.9248 21.8555 37.194 21.2132 39.6099 21.2132C42.0258 21.2132 44.2951 21.8555 46.2572 22.9788L49.3371 17.6234C46.4704 15.9765 43.1497 15.0352 39.61 15.0352Z" fill="#A6CFFF"/>
<path fill-rule="evenodd" clip-rule="evenodd" d="M49.3366 17.6235L46.2568 22.9791C50.2076 25.241 52.9133 29.4533 53.0639 34.3008C53.0712 34.5385 53.2641 34.7276 53.5009 34.7276H58.7808C59.027 34.7276 59.2247 34.5238 59.2191 34.2767C59.0595 27.1438 55.1221 20.9469 49.3366 17.6235V17.6235Z" fill="#86BEFF"/>
<ellipse cx="23.2677" cy="39.942" rx="1.96011" ry="1.96787" fill="#E0EEFF"/>
<ellipse cx="56.6125" cy="39.2857" rx="1.96011" ry="1.96787" fill="#86BEFF"/>
<path fill-rule="evenodd" clip-rule="evenodd" d="M29.8826 17.6235C28.7229 18.2897 27.6375 19.0714 26.6419 19.9528L27.1139 21.7213C27.1886 22.0012 26.9335 22.2572 26.6548 22.1822L24.8933 21.7084C21.9366 25.0745 20.1077 29.4628 20.0001 34.2777C19.9946 34.5244 20.1926 34.7276 20.4384 34.7276H25.7184C25.9552 34.7276 26.148 34.5385 26.1554 34.3008C26.3059 29.4533 29.0117 25.241 32.9624 22.9791L29.8826 17.6235Z" fill="white"/>
<path fill-rule="evenodd" clip-rule="evenodd" d="M27.1136 21.721L25.9603 17.3998C25.8856 17.1199 25.5372 17.0262 25.3332 17.2311L22.1823 20.3945C21.9783 20.5993 22.0716 20.9491 22.3503 21.0241L26.6545 22.1819C26.9333 22.2569 27.1883 22.0008 27.1136 21.721Z" fill="#449AFF"/>
</svg>
