<svg width="80" height="60" viewBox="0 0 80 60" fill="none" xmlns="http://www.w3.org/2000/svg">
<rect width="80" height="60" rx="4" fill="#F0F7FF"/>
<mask id="mask0" mask-type="alpha" maskUnits="userSpaceOnUse" x="0" y="0" width="80" height="60">
<rect width="80" height="60" rx="4" fill="white"/>
</mask>
<g mask="url(#mask0)">
<path d="M33.377 41.0219C33.377 40.4171 33.8673 39.9268 34.4721 39.9268H37.7577C38.3625 39.9268 38.8528 40.4171 38.8528 41.0219C38.8528 41.6268 38.3625 42.1171 37.7577 42.1171H34.4721C33.8673 42.1171 33.377 41.6268 33.377 41.0219Z" fill="#90C5FF"/>
<path d="M25.7109 41.0219C25.7109 40.4171 26.2013 39.9268 26.8061 39.9268H30.0916C30.6965 39.9268 31.1868 40.4171 31.1868 41.0219C31.1868 41.6268 30.6965 42.1171 30.0916 42.1171H26.8061C26.2013 42.1171 25.7109 41.6268 25.7109 41.0219Z" fill="#90C5FF"/>
<path d="M43.2334 41.0219C43.2334 40.4171 43.7237 39.9268 44.3286 39.9268H47.6141C48.219 39.9268 48.7093 40.4171 48.7093 41.0219C48.7093 41.6268 48.219 42.1171 47.6141 42.1171H44.3286C43.7237 42.1171 43.2334 41.6268 43.2334 41.0219Z" fill="#90C5FF"/>
<path d="M50.9004 38.8315C50.9004 38.2267 51.3907 37.7363 51.9956 37.7363H55.2811C55.8859 37.7363 56.3763 38.2267 56.3763 38.8315C56.3763 39.4364 55.8859 39.9267 55.2811 39.9267H51.9956C51.3907 39.9267 50.9004 39.4364 50.9004 38.8315Z" fill="#90C5FF"/>
<path d="M33.377 36.6416C33.377 36.0367 33.8673 35.5464 34.4721 35.5464H37.7577C38.3625 35.5464 38.8528 36.0367 38.8528 36.6416C38.8528 37.2464 38.3625 37.7367 37.7577 37.7367H34.4721C33.8673 37.7367 33.377 37.2464 33.377 36.6416Z" fill="#90C5FF"/>
<path d="M42.1387 36.6416C42.1387 36.0367 42.629 35.5464 43.2338 35.5464H46.5194C47.1242 35.5464 47.6146 36.0367 47.6146 36.6416C47.6146 37.2464 47.1242 37.7367 46.5194 37.7367H43.2338C42.629 37.7367 42.1387 37.2464 42.1387 36.6416Z" fill="#90C5FF"/>
<path d="M50.9004 34.4511C50.9004 33.8463 51.3907 33.356 51.9956 33.356H55.2811C55.8859 33.356 56.3763 33.8463 56.3763 34.4511C56.3763 35.056 55.8859 35.5463 55.2811 35.5463H51.9956C51.3907 35.5463 50.9004 35.056 50.9004 34.4511Z" fill="#90C5FF"/>
<path d="M50.9004 30.0703C50.9004 29.4654 51.3907 28.9751 51.9956 28.9751H55.2811C55.8859 28.9751 56.3763 29.4654 56.3763 30.0703C56.3763 30.6751 55.8859 31.1654 55.2811 31.1654H51.9956C51.3907 31.1654 50.9004 30.6751 50.9004 30.0703Z" fill="#90C5FF"/>
<path d="M42.1387 32.2607C42.1387 31.6559 42.629 31.1655 43.2338 31.1655H46.5194C47.1242 31.1655 47.6146 31.6559 47.6146 32.2607C47.6146 32.8656 47.1242 33.3559 46.5194 33.3559H43.2338C42.629 33.3559 42.1387 32.8656 42.1387 32.2607Z" fill="#90C5FF"/>
<path d="M34.4717 38.832C34.4717 38.2271 34.962 37.7368 35.5669 37.7368H38.8524C39.4572 37.7368 39.9476 38.2271 39.9476 38.832C39.9476 39.4368 39.4572 39.9272 38.8524 39.9272H35.5669C34.962 39.9272 34.4717 39.4368 34.4717 38.832Z" fill="#B3D3F6"/>
<path d="M33.377 34.4511C33.377 33.8463 33.8673 33.356 34.4721 33.356H37.7577C38.3625 33.356 38.8528 33.8463 38.8528 34.4511C38.8528 35.056 38.3625 35.5463 37.7577 35.5463H34.4721C33.8673 35.5463 33.377 35.056 33.377 34.4511Z" fill="#B3D3F6"/>
<path d="M50.8994 41.0219C50.8994 40.4171 51.3897 39.9268 51.9946 39.9268H55.2801C55.885 39.9268 56.3753 40.4171 56.3753 41.0219C56.3753 41.6268 55.885 42.1171 55.2801 42.1171H51.9946C51.3897 42.1171 50.8994 41.6268 50.8994 41.0219Z" fill="#B3D3F6"/>
<path d="M24.6152 38.832C24.6152 38.2271 25.1056 37.7368 25.7104 37.7368H28.9959C29.6008 37.7368 30.0911 38.2271 30.0911 38.832C30.0911 39.4368 29.6008 39.9272 28.9959 39.9272H25.7104C25.1056 39.9272 24.6152 39.4368 24.6152 38.832Z" fill="#B3D3F6"/>
<path d="M42.1377 38.832C42.1377 38.2271 42.628 37.7368 43.2329 37.7368H46.5184C47.1232 37.7368 47.6136 38.2271 47.6136 38.832C47.6136 39.4368 47.1232 39.9272 46.5184 39.9272H43.2329C42.628 39.9272 42.1377 39.4368 42.1377 38.832Z" fill="#B3D3F6"/>
<path d="M49.8047 36.6416C49.8047 36.0367 50.295 35.5464 50.8999 35.5464H54.1854C54.7902 35.5464 55.2806 36.0367 55.2806 36.6416C55.2806 37.2464 54.7902 37.7367 54.1854 37.7367H50.8999C50.295 37.7367 49.8047 37.2464 49.8047 36.6416Z" fill="#B3D3F6"/>
<path d="M41.043 34.4511C41.043 33.8463 41.5333 33.356 42.1381 33.356H45.4237C46.0285 33.356 46.5188 33.8463 46.5188 34.4511C46.5188 35.056 46.0285 35.5463 45.4237 35.5463H42.1381C41.5333 35.5463 41.043 35.056 41.043 34.4511Z" fill="#B3D3F6"/>
<path d="M50.8994 32.2607C50.8994 31.6559 51.3897 31.1655 51.9946 31.1655H55.2801C55.885 31.1655 56.3753 31.6559 56.3753 32.2607C56.3753 32.8656 55.885 33.3559 55.2801 33.3559H51.9946C51.3897 33.3559 50.8994 32.8656 50.8994 32.2607Z" fill="#B3D3F6"/>
<path d="M49.8047 27.8798C49.8047 27.275 50.295 26.7847 50.8999 26.7847H54.1854C54.7902 26.7847 55.2806 27.275 55.2806 27.8798C55.2806 28.4847 54.7902 28.975 54.1854 28.975H50.8999C50.295 28.975 49.8047 28.4847 49.8047 27.8798Z" fill="#B3D3F6"/>
<path d="M54.6827 16.0941C54.5322 15.9922 54.3407 15.9717 54.1717 16.0393L51.4338 17.1345L51.8413 18.1518L53.041 17.6716L49.9362 22.7173L48.232 20.5866C48.1264 20.4481 47.9587 20.3711 47.7846 20.3807C47.6114 20.3868 47.4515 20.4748 47.3531 20.6179L41.6748 28.8777L38.3043 25.9884C38.1925 25.8924 38.0465 25.8456 37.8997 25.8587C37.7527 25.8718 37.6174 25.9435 37.5241 26.0574L33.0097 31.5744L30.1495 28.2386C30.0338 28.1033 29.8594 28.033 29.6824 28.0499C29.5052 28.0664 29.3471 28.1683 29.2586 28.3229L24.8779 35.9891L25.8287 36.5324L29.826 29.5413L32.6062 32.7835C32.7134 32.9038 32.8666 32.9736 33.0278 32.9752C33.1899 32.9734 33.3428 32.8998 33.4455 32.7742L38.019 27.1844L41.4267 30.1052C41.5446 30.2063 41.7 30.2525 41.854 30.2325C42.0082 30.2124 42.1465 30.1277 42.2344 29.9996L47.8379 21.8465L49.5673 24.0085C49.6798 24.1459 49.8512 24.2218 50.0287 24.2127C50.2065 24.2018 50.368 24.105 50.4614 23.9531L53.8279 18.4821V19.8331H54.9231V16.5476C54.9231 16.3658 54.833 16.196 54.6827 16.0941Z" fill="#90C5FF"/>
<path d="M23.2646 43.2124C23.2646 42.6075 23.755 42.1172 24.3598 42.1172H56.631C57.2359 42.1172 57.7262 42.6075 57.7262 43.2124C57.7262 43.8172 57.2359 44.3075 56.631 44.3075H24.3598C23.755 44.3075 23.2646 43.8172 23.2646 43.2124Z" fill="#C4E0FF"/>
</g>
</svg>
