<svg width="129" height="134" viewBox="0 0 129 134" fill="none" xmlns="http://www.w3.org/2000/svg">
<g clip-path="url(#clip0)">
<path d="M-51.4163 82.3266C-51.378 82.1477 -51.3418 81.9687 -51.2995 81.7918C-49.9788 75.7092 -47.8206 69.8479 -44.6115 64.465C-44.5048 64.2861 -44.3981 64.1071 -44.2894 63.9282C-42.1733 60.4649 -39.6413 57.2729 -36.7498 54.4233C-35.1512 52.8468 -33.4078 51.3488 -31.3341 50.269C-28.429 48.7529 -25.0326 48.1376 -21.6947 47.6349C-18.2279 47.1101 -14.7127 46.6718 -11.2077 46.1992C-9.96213 46.0344 -8.72398 45.8594 -7.49323 45.6744C-4.10693 45.1738 -0.744812 44.5947 2.53679 43.8265C6.59349 42.8795 10.5254 41.6388 14.2398 39.8935C14.5364 39.7594 14.8297 39.6174 15.1196 39.4672C15.4095 39.3224 15.7014 39.1757 15.9873 39.0269C16.2732 38.8781 16.555 38.7293 16.8349 38.5764C16.9798 38.498 17.1248 38.4196 17.2677 38.3372C17.4107 38.2547 17.5516 38.1823 17.6905 38.1019C18.1093 37.8687 18.52 37.6294 18.9307 37.3881L18.9468 37.378C19.2186 37.2192 19.4863 37.0563 19.7521 36.8934C21.2701 35.9725 22.7558 35.0114 24.2416 34.0442L25.1758 33.441L26.6233 32.506C26.9052 32.323 27.193 32.14 27.4769 31.959C27.6782 31.8263 27.8796 31.6936 28.099 31.5569C29.154 30.8933 30.223 30.2418 31.3202 29.6205C31.5799 29.4717 31.8416 29.3229 32.1054 29.1781C34.3222 27.9429 36.6404 26.8989 39.035 26.0574L39.0672 26.0454C40.2718 25.6256 41.5008 25.2792 42.7474 25.0078C43.4661 24.851 44.1869 24.7223 44.9157 24.6238C46.8639 24.3479 48.8392 24.3202 50.7944 24.5413C54.6336 24.9857 58.2313 26.4576 62.0686 26.9542C69.9686 27.9596 77.641 24.7203 85.0699 22.1827C86.8966 21.5593 88.7367 20.9756 90.5903 20.4313C91.8224 20.0674 93.0585 19.7235 94.3047 19.3917C101.94 17.377 109.732 16.0122 117.598 15.3119C120.886 14.9901 124.194 14.9168 127.493 15.0927C128.747 15.1691 129.988 15.2938 131.206 15.4949C135.373 16.1383 139.259 17.4875 142.395 19.9588C144.964 21.9876 146.802 24.6318 148.201 27.3986C149.634 30.2218 150.645 33.2391 151.203 36.3546C151.28 36.7788 151.348 37.2051 151.404 37.6314C151.505 38.3606 151.58 39.0939 151.63 39.8312C151.901 43.761 151.431 47.7067 150.245 51.4634C148.916 55.67 146.702 59.7076 145.727 63.9463C145.687 64.1259 145.649 64.3048 145.612 64.4831C145.479 65.1269 145.38 65.7773 145.316 66.4316C144.819 71.6394 146.726 76.7166 148.222 81.8099C148.274 81.9868 148.326 82.1658 148.377 82.3447C148.538 82.9104 148.692 83.4755 148.84 84.0398C150.225 89.4246 150.609 95.1895 149.375 100.564C149.337 100.743 149.291 100.922 149.246 101.099C148.42 104.497 146.866 107.675 144.692 110.415C142.381 113.311 139.347 115.721 136.106 117.839C134.526 118.871 132.893 119.835 131.206 120.732C129.998 121.376 128.76 121.985 127.493 122.56C117.336 127.185 105.75 129.443 94.2926 128.944C93.6887 128.918 93.0847 128.886 92.4807 128.842C91.8767 128.797 91.2164 128.745 90.5842 128.687C83.2037 127.971 76.0224 126.244 68.8915 124.356C66.5017 123.722 64.116 123.073 61.7323 122.435C60.6714 122.154 59.6124 121.872 58.5514 121.599C53.3552 120.258 48.0825 119.043 42.7434 118.136C41.5072 117.923 40.2698 117.729 39.031 117.553C34.7297 116.922 30.3938 116.555 26.0475 116.453C24.3577 116.42 22.6673 116.435 20.9761 116.498C20.1225 116.528 19.2682 116.575 18.4133 116.636C9.58517 117.258 1.05301 119.337 -7.49323 121.279C-8.72935 121.561 -9.9675 121.838 -11.2077 122.112C-12.8344 122.47 -14.4611 122.815 -16.0958 123.135C-26.2688 125.132 -35.3365 123.984 -44.7947 119.864C-46.9448 118.929 -49.093 117.799 -50.4097 116.043C-51.7263 114.288 -52.0565 112.132 -52.3021 110.051C-52.6504 107.087 -52.8779 104.085 -52.9645 101.067C-52.9645 100.89 -52.9645 100.711 -52.9765 100.532C-53.1134 94.4355 -52.6584 88.2805 -51.4163 82.3266Z" fill="#E4F0FF"/>
<path d="M-4.18078 54.0357C-2.94567 54.4107 -1.71897 55.0158 -0.838524 55.9646C1.0336 57.9822 0.459183 61.0316 -0.574303 63.2588C-1.68672 65.6561 -3.37246 68.0656 -2.42218 70.8162C-1.98541 72.0807 -1.25093 73.2259 -0.836601 74.5C-0.393929 75.8616 -0.202866 77.2797 -0.227207 78.7006C-0.272274 81.3105 -0.966488 84.0952 -2.85128 86.0179C-4.51076 87.7108 -7.22421 88.6996 -7.84477 91.1862C-8.49216 93.7802 -6.90945 96.6849 -6.20672 99.1425C-5.41142 101.924 -5.00288 105.209 -5.93352 107.981C-6.82526 110.638 -9.07634 112.726 -11.6246 113.903C-16.7161 116.255 -22.6277 115.893 -27.7331 113.615C-29.9007 112.648 -32.3132 111.459 -33.6603 109.453C-34.0766 108.833 -34.1997 108.29 -34.2904 107.57C-34.3717 106.925 -34.6315 106.414 -34.9424 105.845C-35.6256 104.596 -35.8981 103.199 -35.8431 101.796C-35.6289 96.3446 -31.5875 91.2759 -27.1546 88.3171C-26.1043 87.6161 -25.1818 86.9024 -24.9619 85.6091C-24.7322 84.2592 -25.0102 82.8265 -25.2226 81.4843C-25.4324 80.1579 -25.7582 78.8367 -25.7844 77.4916C-25.8117 76.0825 -25.4204 74.7932 -24.7533 73.5602C-23.5 71.2442 -21.4853 69.4875 -19.171 68.2043C-16.9419 66.9683 -14.5049 65.9205 -13.4139 63.4894C-12.2575 60.9128 -12.9419 57.8609 -11.042 55.5625C-10.2553 54.6108 -9.15182 53.7657 -7.88482 53.5479C-6.66973 53.339 -5.3424 53.683 -4.18078 54.0357Z" fill="#D7E6F4"/>
<path d="M44.7789 101.867C46.6042 82.6396 144.538 45.5296 162.719 63.741C180.9 81.9523 176.298 120.258 138.197 129.01C100.096 137.762 42.9537 121.093 44.7789 101.867Z" fill="#FCFEFF"/>
<path d="M34.2139 6.52393L43.2495 13.2919L39.1054 15.2691L70.486 81.0132L104.458 49.436L110.805 93.2618L123.09 83.3777L123.902 84.3871L109.848 95.6945L103.53 52.0674L70.0764 83.1628L37.9364 15.8271L33.7935 17.8053L34.2139 6.52393Z" fill="#DBEBFF"/>
<path d="M-51.9996 132.727L188 132.273" stroke="#DBEBFF"/>
<path fill-rule="evenodd" clip-rule="evenodd" d="M43.7188 75.9703L72.2147 75.6989C82.5301 75.6007 90.9721 83.8834 91.0704 94.1989C91.0709 94.2582 91.0712 94.3175 91.0712 94.3768V131.872H79.276H22.0004V97.8966C22.0004 85.8679 31.6908 76.0849 43.7188 75.9703Z" fill="#C6E0FF"/>
<path d="M56.6892 86.6586C56.6014 86.6586 56.5137 86.7463 56.426 86.7463C56.3383 86.7463 56.2506 86.6586 56.1629 86.6586H56.6892Z" fill="#84DBFF"/>
<path d="M68.9688 75.5193C68.9688 75.5193 68.9688 75.5193 68.9688 75.6071C68.9688 76.4841 68.5302 82.0975 56.6895 86.5707H56.1633C44.3226 82.0975 43.884 76.4841 43.884 75.6071C43.884 75.5193 43.884 75.5193 43.884 75.5193C43.884 74.3791 44.1472 73.2389 44.4103 72.0987C47.8309 76.3964 51.9533 79.2908 56.4264 79.2908C60.8996 79.2908 65.0219 76.3964 68.4425 72.0987C68.7057 73.2389 68.9688 74.3791 68.9688 75.5193Z" fill="#D4B69E"/>
<path d="M68.9684 75.5201C68.9684 75.5201 69.5824 81.8352 56.4261 86.7469C56.4261 86.7469 66.5069 87.35 69.5891 94.1925C69.6167 94.2537 69.6057 94.3776 69.6701 94.3776C69.7345 94.3776 69.7345 94.3071 69.8119 94.1379C70.7037 92.1883 75.1826 78.9904 68.9684 75.5201ZM43.8837 75.5201C37.1301 79.2916 43.0066 94.553 43.182 94.2899C46.2518 87.2731 56.4261 86.6592 56.4261 86.6592C43.2697 81.8352 43.8837 75.5201 43.8837 75.5201Z" fill="#2871C6"/>
<path d="M74.8452 53.3294C74.0558 58.7673 71.6877 63.8544 67.7408 67.7136C66.9514 68.503 66.2497 69.117 65.3727 69.7309L63.9693 65.2578H48.8834L47.48 69.7309C44.6733 67.6259 38.7968 61.7494 38.7091 56.2237C36.2533 24.7362 60.3732 31.4021 60.3732 31.4021C76.5994 30.2619 76.0731 44.5585 74.8452 53.3294Z" fill="#D4B69E"/>
<path d="M78.0904 59.0304C76.8625 61.0477 75.196 62.4511 73.6173 62.9773C74.2313 61.574 74.7575 60.0829 75.196 58.5919C75.196 58.5919 75.196 58.5919 75.196 58.5042C75.5469 57.1885 75.8977 55.8729 76.2486 54.5573H76.1608C76.5117 53.2416 76.8625 51.926 77.1256 50.6104C77.4765 50.6104 77.8273 50.7858 78.1782 50.9612C80.1077 52.1891 80.02 55.7852 78.0904 59.0304ZM39.2354 62.9773C37.6566 62.4511 35.9901 61.0477 34.7622 59.0304C32.7449 55.7852 32.7449 52.1891 34.6745 51.0489C34.8499 50.9612 34.9376 50.8735 35.1131 50.8735C36.1656 54.9958 37.3935 58.0656 37.6566 58.6796C38.0952 60.0829 38.6214 61.574 39.2354 62.9773Z" fill="#E3D2C8"/>
<path d="M65.9867 22.6308C66.6884 14.5616 53.8829 15.0879 53.8829 15.0879C34.4992 17.8946 32.3942 35.9626 32.3942 35.9626L35.0254 32.8051C30.9031 41.8391 37.1304 57.3636 37.6567 58.5915C40.9019 69.3797 48.0941 79.2908 56.4264 79.2908C64.7588 79.2908 71.9509 69.3797 75.1961 58.5915C75.1961 58.5915 75.1961 58.5915 75.1961 58.5038C75.547 57.1882 75.8978 55.8725 76.1609 54.5569H76.0732C77.8274 47.5402 79.757 40.4358 79.757 40.4358C84.7564 15.2633 65.9867 22.6308 65.9867 22.6308ZM74.8453 53.329C74.0559 58.7669 71.6878 63.854 67.7409 67.7132C66.9515 68.5026 66.1621 69.1166 65.3727 69.7305L63.9694 65.3451H48.8834L47.4801 69.8183C44.6734 67.7132 42.3053 64.8188 40.3757 61.4859C39.4986 59.7317 38.9723 57.8898 38.7092 56.3111C36.2534 24.8236 60.3733 31.4895 60.3733 31.4895C76.5995 30.2615 76.0732 44.5581 74.8453 53.329Z" fill="#324A5E"/>
<path d="M65.9867 22.6308C66.6884 14.5616 53.8829 15.0879 53.8829 15.0879C34.4992 17.8946 32.3942 35.9626 32.3942 35.9626L35.0254 32.8051C30.9031 41.8391 37.1304 57.3636 37.6567 58.5915C40.9019 69.3797 48.0941 79.2908 56.4264 79.2908C64.7588 79.2908 71.9509 69.3797 75.1961 58.5915C75.1961 58.5915 75.1961 58.5915 75.1961 58.5038C75.547 57.1882 75.8978 55.8725 76.1609 54.5569H76.0732C77.8274 47.5402 79.757 40.4358 79.757 40.4358C84.7564 15.2633 65.9867 22.6308 65.9867 22.6308ZM74.8453 53.329C74.0559 58.7669 71.6878 63.854 67.7409 67.7132C66.9515 68.5026 66.1621 69.1166 65.3727 69.7305L63.9694 65.3451H48.8834L47.4801 69.8183C44.6734 67.7132 42.3053 64.8188 40.3757 61.4859C39.4986 59.7317 38.9723 57.8898 38.7092 56.3111C36.2534 24.8236 60.3733 31.4895 60.3733 31.4895C76.5995 30.2615 76.0732 44.5581 74.8453 53.329Z" fill="#324A5E"/>
<path d="M65.9867 22.6308C66.6884 14.5616 53.8829 15.0879 53.8829 15.0879C34.4992 17.8946 32.3942 35.9626 32.3942 35.9626L35.0254 32.8051C30.9031 41.8391 37.1304 57.3636 37.6567 58.5915C40.9019 69.3797 48.0941 79.2908 56.4264 79.2908C64.7588 79.2908 71.9509 69.3797 75.1961 58.5915C75.1961 58.5915 75.1961 58.5915 75.1961 58.5038C75.547 57.1882 75.8978 55.8725 76.1609 54.5569H76.0732C77.8274 47.5402 79.757 40.4358 79.757 40.4358C84.7564 15.2633 65.9867 22.6308 65.9867 22.6308ZM74.8453 53.329C74.0559 58.7669 71.6878 63.854 67.7409 67.7132C66.9515 68.5026 66.1621 69.1166 65.3727 69.7305C64.5367 67.1179 62.108 65.3451 59.3649 65.3451H53.5716C50.7818 65.3451 48.3152 67.1565 47.4801 69.8183C44.6734 67.7132 38.7969 61.8367 38.7092 56.3111C36.2534 24.8236 60.3733 31.4895 60.3733 31.4895C76.5995 30.2615 76.0732 44.5581 74.8453 53.329Z" fill="#324A5E"/>
<path d="M50.2868 68.3272C51.7779 69.9937 53.9706 71.1339 56.4264 71.1339C58.8823 71.1339 61.075 70.0814 62.5661 68.3272H50.2868Z" fill="white"/>
<path d="M56.6454 101.955C57.1977 101.955 57.6454 101.507 57.6454 100.955C57.6454 100.403 57.1977 99.9552 56.6454 99.9552C56.0932 99.9552 55.6454 100.403 55.6454 100.955C55.6454 101.507 56.0932 101.955 56.6454 101.955Z" fill="#2871C6"/>
<path d="M56.6454 96.0342C57.1977 96.0342 57.6454 95.5865 57.6454 95.0342C57.6454 94.4819 57.1977 94.0342 56.6454 94.0342C56.0932 94.0342 55.6454 94.4819 55.6454 95.0342C55.6454 95.5865 56.0932 96.0342 56.6454 96.0342Z" fill="#2871C6"/>
<path d="M56.6454 90.1141C57.1977 90.1141 57.6454 89.6664 57.6454 89.1141C57.6454 88.5619 57.1977 88.1141 56.6454 88.1141C56.0932 88.1141 55.6454 88.5619 55.6454 89.1141C55.6454 89.6664 56.0932 90.1141 56.6454 90.1141Z" fill="#2871C6"/>
<path d="M54.2006 86.9215V103.066C54.2006 104.398 55.2805 105.478 56.6126 105.478H59.2438" stroke="#2871C6" stroke-width="0.644"/>
<path d="M34.5349 101.832L34.5004 131.5M78.5821 101.832L78.5004 131.5L78.5821 101.832Z" stroke="#555555" stroke-linecap="round" stroke-linejoin="round"/>
</g>
<g clip-path="url(#clip1)">
<rect x="99" width="30" height="30" rx="15" fill="#35CB5D"/>
<path fill-rule="evenodd" clip-rule="evenodd" d="M121.487 9.12059C122.225 8.38835 123.422 8.38835 124.16 9.12059C124.899 9.85282 124.899 11.04 124.16 11.7722L112.816 23.0222C112.078 23.7545 110.88 23.7545 110.142 23.0222L103.839 16.7722C103.101 16.04 103.101 14.8528 103.839 14.1206C104.578 13.3884 105.775 13.3884 106.513 14.1206L111.479 19.0448L121.487 9.12059Z" fill="white"/>
</g>
<defs>
<clipPath id="clip0">
<rect width="111" height="132" fill="white" transform="translate(0 2)"/>
</clipPath>
<clipPath id="clip1">
<rect width="30" height="30" fill="white" transform="translate(99)"/>
</clipPath>
</defs>
</svg>
