<svg width="51" height="50" viewBox="0 0 51 50" fill="none" xmlns="http://www.w3.org/2000/svg">
<path d="M46 0H4C1.79086 0 0 1.79086 0 4V46C0 48.2091 1.79086 50 4 50H46C48.2091 50 50 48.2091 50 46V4C50 1.79086 48.2091 0 46 0Z" fill="white"/>
<g opacity="0.254929" filter="url(#filter0_f)">
<path opacity="0.254929" fill-rule="evenodd" clip-rule="evenodd" d="M24.677 22.821L16.4378 36.9135C16.1483 37.4087 16.5102 38.0275 17.0891 38.0275H33.5677C34.1467 38.0275 34.5085 37.4086 34.2191 36.9135L25.9797 22.821C25.6902 22.326 24.9665 22.326 24.677 22.821Z" fill="url(#paint0_linear)"/>
</g>
<g opacity="0.254929" filter="url(#filter1_f)">
<path opacity="0.254929" d="M25.3269 32.0508C24.8824 32.0508 24.5154 31.7076 24.4911 31.2693L24.3062 27.9313C24.2742 27.353 24.7404 26.8667 25.3269 26.8667C25.9135 26.8667 26.3797 27.353 26.3477 27.9313L26.1628 31.2693C26.1385 31.7076 25.7715 32.0508 25.3269 32.0508Z" fill="white"/>
</g>
<g opacity="0.254929" filter="url(#filter2_f)">
<path opacity="0.254929" d="M25.3254 35.9989C25.9107 35.9989 26.3852 35.5303 26.3852 34.9523C26.3852 34.3743 25.9107 33.9058 25.3254 33.9058C24.7401 33.9058 24.2656 34.3743 24.2656 34.9523C24.2656 35.5303 24.7401 35.9989 25.3254 35.9989Z" fill="white"/>
</g>
<g opacity="0.254929" filter="url(#filter3_f)">
<path opacity="0.254929" fill-rule="evenodd" clip-rule="evenodd" d="M25.3284 11.8135C22.0888 11.8135 19.0496 12.6608 16.4258 14.1434L19.2445 18.9646C21.0403 17.9533 23.1172 17.3751 25.3283 17.3751C27.5394 17.3751 29.6163 17.9533 31.4121 18.9646L34.2309 14.1434C31.6072 12.6609 28.568 11.8135 25.3284 11.8135Z" fill="url(#paint1_linear)"/>
</g>
<g opacity="0.254929" filter="url(#filter4_f)">
<path opacity="0.254929" fill-rule="evenodd" clip-rule="evenodd" d="M34.2289 14.1431L31.4102 18.9643C35.026 21.0005 37.5024 24.7926 37.6402 29.1565C37.647 29.3704 37.8235 29.5406 38.0401 29.5406H42.8725C43.0978 29.5406 43.2787 29.3571 43.2736 29.1347C43.1276 22.7135 39.5239 17.1349 34.2289 14.1431Z" fill="url(#paint2_linear)"/>
</g>
<g opacity="0.254929" filter="url(#filter5_f)">
<path opacity="0.254929" d="M10.3682 36.0069C11.3589 36.0069 12.1621 35.2138 12.1621 34.2354C12.1621 33.257 11.3589 32.4639 10.3682 32.4639C9.3774 32.4639 8.57422 33.257 8.57422 34.2354C8.57422 35.2138 9.3774 36.0069 10.3682 36.0069Z" fill="#68AEFF"/>
</g>
<g opacity="0.254929" filter="url(#filter6_f)">
<path opacity="0.254929" d="M40.8877 35.4156C41.8785 35.4156 42.6817 34.6225 42.6817 33.6441C42.6817 32.6657 41.8785 31.8726 40.8877 31.8726C39.8969 31.8726 39.0938 32.6657 39.0938 33.6441C39.0938 34.6225 39.8969 35.4156 40.8877 35.4156Z" fill="#19487F"/>
</g>
<g opacity="0.254929" filter="url(#filter7_f)">
<path opacity="0.254929" fill-rule="evenodd" clip-rule="evenodd" d="M16.4238 14.1431C15.3624 14.7428 14.369 15.4465 13.4578 16.24L13.8898 17.832C13.9582 18.084 13.7247 18.3145 13.4696 18.247L11.8574 17.8204C9.15135 20.8506 7.47747 24.8012 7.37901 29.1356C7.37396 29.3577 7.55517 29.5406 7.78013 29.5406H12.6126C12.8293 29.5406 13.0058 29.3704 13.0125 29.1565C13.1503 24.7926 15.6267 21.0005 19.2425 18.9643L16.4238 14.1431Z" fill="url(#paint3_linear)"/>
</g>
<path fill-rule="evenodd" clip-rule="evenodd" d="M23.648 22.4526L15.2407 37.0723C14.9453 37.586 15.3145 38.2279 15.9053 38.2279H32.7202C33.3109 38.2279 33.6801 37.5859 33.3848 37.0723L24.9773 22.4526C24.6819 21.939 23.9434 21.939 23.648 22.4526Z" fill="#675AF6"/>
<path d="M24.3127 32.0275C23.8591 32.0275 23.4845 31.6715 23.4598 31.2167L23.2711 27.7539C23.2384 27.1539 23.7142 26.6494 24.3127 26.6494C24.9112 26.6494 25.3869 27.154 25.3542 27.7539L25.1655 31.2167C25.1408 31.6715 24.7663 32.0275 24.3127 32.0275Z" fill="white"/>
<path d="M24.3119 36.1236C24.9091 36.1236 25.3933 35.6375 25.3933 35.0378C25.3933 34.4382 24.9091 33.9521 24.3119 33.9521C23.7146 33.9521 23.2305 34.4382 23.2305 35.0378C23.2305 35.6375 23.7146 36.1236 24.3119 36.1236Z" fill="white"/>
<path fill-rule="evenodd" clip-rule="evenodd" d="M24.3148 11.0332C21.0091 11.0332 17.908 11.9123 15.2305 13.4503L18.1068 18.4518C19.9393 17.4027 22.0585 16.8028 24.3148 16.8028C26.571 16.8028 28.6903 17.4027 30.5227 18.4518L33.3991 13.4503C30.7218 11.9123 27.6206 11.0332 24.3148 11.0332Z" fill="#9D95F8"/>
<path fill-rule="evenodd" clip-rule="evenodd" d="M33.3997 13.4502L30.5234 18.4518C34.2131 20.5642 36.74 24.4981 36.8806 29.0252C36.8875 29.2472 37.0676 29.4238 37.2887 29.4238H42.2197C42.4496 29.4238 42.6342 29.2334 42.629 29.0027C42.4799 22.3412 38.8027 16.5539 33.3997 13.4502Z" fill="#4F44D0"/>
<path d="M9.05323 36.1317C10.0642 36.1317 10.8838 35.3089 10.8838 34.2939C10.8838 33.2789 10.0642 32.4561 9.05323 32.4561C8.04223 32.4561 7.22266 33.2789 7.22266 34.2939C7.22266 35.3089 8.04223 36.1317 9.05323 36.1317Z" fill="#C6C2F9"/>
<path d="M40.1939 35.5184C41.2048 35.5184 42.0244 34.6956 42.0244 33.6806C42.0244 32.6656 41.2048 31.8428 40.1939 31.8428C39.1829 31.8428 38.3633 32.6656 38.3633 33.6806C38.3633 34.6956 39.1829 35.5184 40.1939 35.5184Z" fill="#4F44D0"/>
<path fill-rule="evenodd" clip-rule="evenodd" d="M15.2294 13.4502C14.1463 14.0723 13.1327 14.8023 12.2029 15.6255L10.5698 17.265C7.80861 20.4087 6.10058 24.507 6.00011 29.0036C5.99496 29.234 6.17985 29.4238 6.4094 29.4238H11.3404C11.5615 29.4238 11.7416 29.2472 11.7485 29.0252C11.8891 24.4981 14.416 20.5642 18.1057 18.4518L15.2294 13.4502Z" fill="#C6C2F9"/>
<g filter="url(#filter8_f)">
<path fill-rule="evenodd" clip-rule="evenodd" d="M39.5462 25.3038L42.7765 25.5864C42.9857 25.6047 43.1363 25.3897 43.0475 25.1994L41.6771 22.2605C41.5884 22.0702 41.3269 22.0473 41.2064 22.2194L39.3466 24.8756C39.2261 25.0476 39.337 25.2855 39.5462 25.3038Z" fill="black" fill-opacity="0.7"/>
</g>
<path fill-rule="evenodd" clip-rule="evenodd" d="M39.9974 23.6984L44.158 24.0666C44.4275 24.0904 44.621 23.8146 44.5064 23.5701L42.7367 19.7944C42.6221 19.55 42.2853 19.5201 42.1305 19.7408L39.7395 23.1483C39.5847 23.3689 39.7279 23.6746 39.9974 23.6984Z" fill="#675AF6" stroke="white" stroke-width="0.4"/>
<defs>
<filter id="filter0_f" x="9.33714" y="15.4509" width="31.9826" height="29.5753" filterUnits="userSpaceOnUse" color-interpolation-filters="sRGB">
<feFlood flood-opacity="0" result="BackgroundImageFix"/>
<feBlend mode="normal" in="SourceGraphic" in2="BackgroundImageFix" result="shape"/>
<feGaussianBlur stdDeviation="3.4994" result="effect1_foregroundBlur"/>
</filter>
<filter id="filter1_f" x="17.3059" y="19.8679" width="16.0422" height="19.1817" filterUnits="userSpaceOnUse" color-interpolation-filters="sRGB">
<feFlood flood-opacity="0" result="BackgroundImageFix"/>
<feBlend mode="normal" in="SourceGraphic" in2="BackgroundImageFix" result="shape"/>
<feGaussianBlur stdDeviation="3.4994" result="effect1_foregroundBlur"/>
</filter>
<filter id="filter2_f" x="17.2668" y="26.907" width="16.1172" height="16.0907" filterUnits="userSpaceOnUse" color-interpolation-filters="sRGB">
<feFlood flood-opacity="0" result="BackgroundImageFix"/>
<feBlend mode="normal" in="SourceGraphic" in2="BackgroundImageFix" result="shape"/>
<feGaussianBlur stdDeviation="3.4994" result="effect1_foregroundBlur"/>
</filter>
<filter id="filter3_f" x="9.42698" y="4.81468" width="31.8027" height="21.1487" filterUnits="userSpaceOnUse" color-interpolation-filters="sRGB">
<feFlood flood-opacity="0" result="BackgroundImageFix"/>
<feBlend mode="normal" in="SourceGraphic" in2="BackgroundImageFix" result="shape"/>
<feGaussianBlur stdDeviation="3.4994" result="effect1_foregroundBlur"/>
</filter>
<filter id="filter4_f" x="24.4114" y="7.14427" width="25.8611" height="29.3951" filterUnits="userSpaceOnUse" color-interpolation-filters="sRGB">
<feFlood flood-opacity="0" result="BackgroundImageFix"/>
<feBlend mode="normal" in="SourceGraphic" in2="BackgroundImageFix" result="shape"/>
<feGaussianBlur stdDeviation="3.4994" result="effect1_foregroundBlur"/>
</filter>
<filter id="filter5_f" x="1.57542" y="25.4651" width="17.5855" height="17.5407" filterUnits="userSpaceOnUse" color-interpolation-filters="sRGB">
<feFlood flood-opacity="0" result="BackgroundImageFix"/>
<feBlend mode="normal" in="SourceGraphic" in2="BackgroundImageFix" result="shape"/>
<feGaussianBlur stdDeviation="3.4994" result="effect1_foregroundBlur"/>
</filter>
<filter id="filter6_f" x="32.095" y="24.8738" width="17.5855" height="17.5407" filterUnits="userSpaceOnUse" color-interpolation-filters="sRGB">
<feFlood flood-opacity="0" result="BackgroundImageFix"/>
<feBlend mode="normal" in="SourceGraphic" in2="BackgroundImageFix" result="shape"/>
<feGaussianBlur stdDeviation="3.4994" result="effect1_foregroundBlur"/>
</filter>
<filter id="filter7_f" x="0.380106" y="7.14427" width="25.8612" height="29.3951" filterUnits="userSpaceOnUse" color-interpolation-filters="sRGB">
<feFlood flood-opacity="0" result="BackgroundImageFix"/>
<feBlend mode="normal" in="SourceGraphic" in2="BackgroundImageFix" result="shape"/>
<feGaussianBlur stdDeviation="3.4994" result="effect1_foregroundBlur"/>
</filter>
<filter id="filter8_f" x="36.5786" y="19.3847" width="9.21318" height="8.92106" filterUnits="userSpaceOnUse" color-interpolation-filters="sRGB">
<feFlood flood-opacity="0" result="BackgroundImageFix"/>
<feBlend mode="normal" in="SourceGraphic" in2="BackgroundImageFix" result="shape"/>
<feGaussianBlur stdDeviation="1.35914" result="effect1_foregroundBlur"/>
</filter>
<linearGradient id="paint0_linear" x1="16.3359" y1="22.4498" x2="16.3359" y2="38.0275" gradientUnits="userSpaceOnUse">
<stop stop-color="#68C4FE"/>
<stop offset="1" stop-color="#3792FC"/>
</linearGradient>
<linearGradient id="paint1_linear" x1="16.4258" y1="11.8135" x2="16.4258" y2="18.9646" gradientUnits="userSpaceOnUse">
<stop stop-color="#51AAE5"/>
<stop offset="1" stop-color="#2871C6"/>
</linearGradient>
<linearGradient id="paint2_linear" x1="31.4102" y1="14.1431" x2="31.4102" y2="29.5406" gradientUnits="userSpaceOnUse">
<stop stop-color="#367EB6"/>
<stop offset="1" stop-color="#19487F"/>
</linearGradient>
<linearGradient id="paint3_linear" x1="7.37891" y1="14.1431" x2="7.37891" y2="29.5406" gradientUnits="userSpaceOnUse">
<stop stop-color="#A1D7FF"/>
<stop offset="1" stop-color="#68AEFF"/>
</linearGradient>
</defs>
</svg>
