<svg width="22" height="21" viewBox="0 0 22 21" fill="none" xmlns="http://www.w3.org/2000/svg">
<path d="M20.5729 12.349C21.7353 7.47636 18.4115 2.63471 13.1495 1.53414C11.7174 1.23487 10.2891 1.24326 8.94531 1.51219" stroke="#675AF6" stroke-linecap="round" stroke-linejoin="round"/>
<path d="M20.4762 12.8779C20.3742 13.1448 20.2547 13.4073 20.1172 13.6643" stroke="#675AF6" stroke-linecap="round" stroke-linejoin="round"/>
<path d="M19.4136 15.1337C17.7398 17.9508 14.5315 19.8559 10.8488 19.8559C5.43734 19.8559 1.05078 15.7423 1.05078 10.6679C1.05078 6.97137 3.37837 3.78493 6.73389 2.32666" stroke="#675AF6" stroke-linecap="round" stroke-linejoin="round" stroke-dasharray="4.99 4.99"/>
<path d="M7.53125 2.13544C7.80435 1.99925 8.08366 1.87972 8.36746 1.77686" stroke="#675AF6" stroke-linecap="round" stroke-linejoin="round"/>
<path d="M16.5 10.5239C16.5 13.3809 14.0608 15.7382 11 15.7382C7.93917 15.7382 5.5 13.3809 5.5 10.5239C5.5 7.66679 7.93917 5.30957 11 5.30957C14.0608 5.30957 16.5 7.66679 16.5 10.5239Z" stroke="#675AF6" stroke-linecap="round" stroke-linejoin="round"/>
<path d="M8.73438 1.92334L9.33782 5.00518" stroke="#675AF6" stroke-linecap="round" stroke-linejoin="round"/>
<path d="M20.091 13.6875L16.6797 12.8101L20.499 12.2871" stroke="#675AF6" stroke-linecap="round" stroke-linejoin="round"/>
<path d="M11.99 10.2277H11.4479C11.4117 9.92077 11.2593 9.69994 11.0627 9.56467H11.99C12.0344 9.56467 12.0707 9.5311 12.0707 9.48945C12.0707 9.4478 12.0344 9.41455 11.99 9.41455H9.70891C9.66512 9.41455 9.62891 9.44813 9.62891 9.48945C9.62891 9.53077 9.66512 9.56467 9.70891 9.56467H10.6786C10.9379 9.60955 11.2327 9.81132 11.2876 10.2277H9.70891C9.66512 10.2277 9.62891 10.2613 9.62891 10.3026C9.62891 10.344 9.66512 10.3775 9.70891 10.3775H11.2976C11.2941 10.5861 11.2182 10.7556 11.0686 10.8805C10.6444 11.2334 9.77891 11.143 9.77063 11.1427C9.73822 11.1395 9.70546 11.1546 9.68994 11.1817C9.67512 11.2092 9.67925 11.2424 9.69994 11.2663L11.2227 12.916C11.2382 12.9335 11.2603 12.9422 11.2834 12.9422C11.3017 12.9422 11.3203 12.9357 11.3358 12.9238C11.3689 12.8967 11.3727 12.8495 11.3438 12.8179L9.94615 11.3031C10.2479 11.3102 10.8251 11.2831 11.1744 10.9926C11.3596 10.8382 11.4541 10.631 11.4572 10.3775H11.9893C12.0338 10.3775 12.07 10.344 12.07 10.3026C12.071 10.2613 12.0344 10.2277 11.99 10.2277Z" fill="#FFBD00" stroke="#FFBD00" stroke-width="0.5"/>
<path d="M14.5 10.5239C14.5 12.329 12.9563 13.8334 11 13.8334C9.04373 13.8334 7.5 12.329 7.5 10.5239C7.5 8.71879 9.04373 7.21436 11 7.21436C12.9563 7.21436 14.5 8.71879 14.5 10.5239Z" stroke="#675AF6" stroke-linecap="round" stroke-linejoin="round"/>
<path d="M9.11328 3.86115L11.5388 1.64355" stroke="#675AF6" stroke-linecap="round" stroke-linejoin="round"/>
<path d="M10.8477 5.00516L14.4715 2.23486" stroke="#675AF6" stroke-linecap="round" stroke-linejoin="round"/>
<path d="M13.4336 5.53395L16.6661 3.34961" stroke="#675AF6" stroke-linecap="round" stroke-linejoin="round"/>
<path d="M15.5703 7.04605L18.5231 5.00537" stroke="#675AF6" stroke-linecap="round" stroke-linejoin="round"/>
<path d="M16.6797 8.82291L19.8841 7.13477" stroke="#675AF6" stroke-linecap="round" stroke-linejoin="round"/>
<path d="M17.0547 10.8164L20.4989 9.83203" stroke="#675AF6" stroke-linecap="round" stroke-linejoin="round"/>
</svg>
