<svg width="70" height="60" viewBox="0 0 70 60" fill="none" xmlns="http://www.w3.org/2000/svg">
<path fill-rule="evenodd" clip-rule="evenodd" d="M28.7095 34.2098V31.4385C28.0034 30.2139 27.6182 28.8605 27.4257 27.6359C26.9764 27.5715 26.4628 26.9914 25.8209 24.8646C24.9865 21.9644 25.8851 21.5132 26.5912 21.5777C26.0777 20.0309 26.0135 18.5485 26.3986 17.1306C26.7838 15.4549 27.6824 14.1659 28.6453 13.1347C29.2872 12.4902 29.9932 11.8458 30.7635 11.3946C31.4054 10.9435 32.0473 10.6212 32.8176 10.3634C33.3953 10.1701 34.0372 10.0412 34.6791 10.0412C36.6689 9.84781 38.2095 10.3634 39.3007 11.0079C40.9696 11.9102 41.5473 13.1347 41.5473 13.1347C41.5473 13.1347 45.6554 13.457 43.8581 22.0933C44.4358 22.2866 44.8209 23.06 44.1791 25.3157C43.4088 28.1515 42.6385 28.2804 42.2534 27.9582C42.0608 28.9249 41.8041 30.0206 41.2905 30.9873C41.2905 32.4052 41.2905 33.6942 41.2905 34.2098C41.2905 34.3387 41.3547 34.4676 41.4831 34.5321C42.3818 34.9832 46.5541 37.0456 50.7905 40.2681C52.7804 41.7504 54 44.1351 54 46.6486V48.8399C54 49.4844 53.4865 50 52.8446 50H17.1554C16.5135 50 16 49.4844 16 48.8399V46.6486C16 44.1351 17.1554 41.7504 19.2095 40.2681C23.4459 37.0456 27.6182 34.9832 28.5169 34.5321C28.6453 34.4676 28.7095 34.3387 28.7095 34.2098Z" fill="#C6C2F9"/>
</svg>
