<svg width="18" height="20" viewBox="0 0 18 20" fill="none" xmlns="http://www.w3.org/2000/svg">
<path d="M10.3345 9.1383C10.2887 9.10657 10.2435 9.07883 10.2001 9.05463V5.48132C12.2626 5.69064 14.0633 7.19523 14.2739 9.71505H10.8231C10.7021 9.44723 10.5101 9.26 10.3345 9.1383Z" stroke="#D6AF09" stroke-linecap="round" stroke-linejoin="round"/>
<path d="M8.61606 4.76136L8.61572 11.3038H15.1698" stroke="#008EFF" stroke-linecap="round" stroke-linejoin="round"/>
<ellipse cx="8.61571" cy="11.3038" rx="0.679245" ry="0.692281" stroke="#008EFF" stroke-linecap="round"/>
<path d="M16.6066 11.154C16.6066 15.6289 13.0235 19.2463 8.61605 19.2463C4.20858 19.2463 0.625488 15.6289 0.625488 11.154C0.625488 6.67912 4.20858 3.06171 8.61605 3.06171C13.0235 3.06171 16.6066 6.67912 16.6066 11.154Z" stroke="#008EFF" stroke-linecap="round"/>
<path d="M9.94185 0.886275C9.94185 0.995388 9.82447 1.1754 9.56053 1.1754H7.88449C7.62035 1.1754 7.50317 0.995506 7.50317 0.886275C7.50317 0.776676 7.62071 0.596802 7.88449 0.596802H9.56053C9.82432 0.596802 9.94185 0.776676 9.94185 0.886275Z" stroke="#008EFF" stroke-linecap="round"/>
<path d="M17.1895 5.71577L17.1895 5.71577L17.1885 5.71663C17.1228 5.77259 17.0283 5.76479 16.9724 5.69647L16.9722 5.69625L16.1705 4.71678C16.1705 4.71675 16.1705 4.71671 16.1705 4.71668C16.1093 4.64178 16.1208 4.52849 16.1917 4.46813L15.8677 4.08735L16.1915 4.46828C16.2574 4.41228 16.3524 4.42012 16.4084 4.48871L16.4087 4.489L17.2105 5.46829C17.2105 5.46829 17.2105 5.4683 17.2105 5.4683C17.2718 5.54319 17.2602 5.65581 17.1895 5.71577Z" stroke="#008EFF" stroke-linecap="round"/>
</svg>
