<svg width="310" height="108" viewBox="0 0 310 108" fill="none" xmlns="http://www.w3.org/2000/svg">
<path d="M22 6C22 2.68629 24.6863 0 28 0H281C284.314 0 287 2.68629 287 6V107.656H22V6Z" fill="white"/>
<mask id="mask0" mask-type="alpha" maskUnits="userSpaceOnUse" x="22" y="0" width="265" height="108">
<path d="M22 6C22 2.68629 24.6863 0 28 0H281C284.314 0 287 2.68629 287 6V107.656H22V6Z" fill="white"/>
</mask>
<g mask="url(#mask0)">
<path opacity="0.05" d="M244.417 -9.93747C235.308 -9.93747 219.574 -9.93747 216.261 -0.828094C212.949 8.28128 240.491 7.74701 246.902 14.1583C253.313 20.5696 263.651 19.875 273.402 19.875C283.153 19.875 281.305 30.6225 289.136 28.9844C296.967 27.3463 289.964 19.1375 292.449 14.1583C292.449 9.5166 292.449 -9.93747 292.449 -9.93747C292.449 -9.93747 259.738 -9.93747 244.417 -9.93747Z" fill="#675AF6"/>
<path opacity="0.05" d="M42.1549 90.7357C92.7997 72.7286 115.308 113.244 115.308 90.7357C115.308 68.2269 88.2979 56.9725 74.7926 43.4672C61.2874 29.9619 67.1976 7.45312 46.6566 7.45312C26.1157 7.45312 36.4643 20.0707 14.0189 29.9619C-8.42655 39.8531 -8.48992 108.743 42.1549 90.7357Z" fill="#675AF6"/>
<path opacity="0.05" d="M200.268 92.9474C153.818 76.4318 133.174 113.592 133.174 92.9474C133.174 72.3029 157.947 61.9806 170.334 49.5938C182.721 37.2071 177.3 16.5625 196.14 16.5625C214.979 16.5625 205.488 28.1351 226.074 37.2071C246.661 46.2791 267.363 22.7559 267.363 49.5938C267.363 76.4318 246.719 109.463 200.268 92.9474Z" fill="#675AF6"/>
<path opacity="0.1" d="M277.898 77.6466C277.97 77.1725 277.957 76.7226 278.22 76.3039C278.749 75.4735 279.5 75.6811 280.227 76.0479C280.967 76.4216 281.666 76.6431 282.469 76.297C283.725 75.7537 284.317 73.8575 283.116 72.9647C282.728 72.674 282.344 73.1515 282.396 73.5183C282.469 74.027 282.721 74.5911 282.285 75.0271C281.701 75.6119 281.016 75.1205 280.431 74.8575C279.801 74.5738 279.13 74.5115 278.483 74.7745C277.365 75.2278 276.552 76.7434 277.441 77.7677C277.566 77.9096 277.867 77.8438 277.898 77.6466Z" fill="#482998"/>
<path opacity="0.2" d="M19.1704 84.808C21.4532 84.1863 23.8092 83.4237 25.9457 82.4103C26.7292 82.0394 26.2225 80.9424 25.4233 81.1931C23.2084 81.8827 20.9883 82.8908 18.9301 83.9565C18.5175 84.1707 18.6533 84.949 19.1704 84.808Z" fill="#B9B3F9"/>
<path opacity="0.2" d="M228.94 37.6623C229.07 38.0831 229.47 38.2182 229.834 37.9688C231.263 36.9972 232.687 36.0463 234.043 34.9708C234.303 34.763 234.245 34.3473 233.991 34.1706C232.406 33.0847 230.271 31.4792 228.26 31.4688C227.751 31.4636 227.392 32.1858 227.912 32.482C228.722 32.9496 229.694 33.1159 230.561 33.4744C231.559 33.8901 232.551 34.3785 233.435 35.0072C233.456 34.7162 233.476 34.4252 233.492 34.1343C231.98 35.0643 230.556 36.1087 229.122 37.1479C229.403 37.205 229.689 37.2622 229.969 37.3193C229.356 35.5839 228.727 33.8641 228.047 32.1546C227.896 31.7961 227.283 31.9936 227.387 32.3729C227.865 34.1499 228.39 35.9061 228.94 37.6623Z" fill="#F6F2FF"/>
<path opacity="0.1" d="M37.0997 40.4871C38.429 40.5873 39.826 40.6256 41.1553 40.493C41.6446 40.4458 41.5827 39.7797 41.1082 39.762C39.7995 39.7119 38.429 39.8239 37.135 39.9978C36.8786 40.0332 36.799 40.4635 37.0997 40.4871Z" fill="#482998"/>
<path opacity="0.1" d="M273.215 7.99728C272.066 9.10034 271.631 10.8167 272.725 12.144C273.755 13.3936 275.755 13.6545 277.041 12.6612C280.153 10.2583 276.908 5.83236 273.553 6.74776C272.931 6.91711 273.086 7.80505 273.7 7.83709C274.679 7.89201 275.732 7.92863 276.515 8.61975C277.357 9.35665 277.375 10.6062 276.684 11.4575C274.853 13.7048 271.677 10.3956 273.599 8.38175C273.846 8.13002 273.471 7.7547 273.215 7.99728Z" fill="#B9B3F9"/>
<path opacity="0.2" d="M189.931 5.99035C189.141 7.12166 188.385 8.26982 187.641 9.4329C187.462 9.71043 187.577 10.0054 187.896 10.0941C189.143 10.4467 190.375 10.8062 191.647 11.0668C191.892 11.1159 192.103 10.8827 192.082 10.6512C191.942 9.21723 191.835 7.2163 190.871 6.05602C190.629 5.76096 190.041 5.90316 190.121 6.34446C190.243 7.03559 190.616 7.67398 190.829 8.34535C191.071 9.1189 191.269 9.92453 191.333 10.7351C191.51 10.6068 191.688 10.4784 191.862 10.3471C190.599 9.9268 189.313 9.61234 188.024 9.2894C188.127 9.47815 188.232 9.66989 188.334 9.85865C189.036 8.66976 189.721 7.47944 190.375 6.26427C190.51 6.00784 190.101 5.75078 189.931 5.99035Z" fill="#9D95F8"/>
<path opacity="0.2" d="M179.795 51.1883C179.448 49.9399 179.021 48.6484 178.459 47.4785C178.253 47.0493 177.653 47.3306 177.794 47.7686C178.18 48.9801 178.739 50.1961 179.33 51.3186C179.447 51.5487 179.873 51.4726 179.795 51.1883Z" fill="#B9B3F9"/>
<path opacity="0.2" d="M123.1 2.39145C122.856 1.11917 122.538 -0.20468 122.074 -1.41678C121.905 -1.86093 121.283 -1.63169 121.386 -1.18181C121.67 0.0589442 122.129 1.31403 122.624 2.48314C122.725 2.72098 123.157 2.68086 123.1 2.39145Z" fill="#9D95F8"/>
<path opacity="0.1" d="M37.8949 -6.3979C37.7341 -6.53813 37.5934 -6.67836 37.4326 -6.79856C35.4022 -8.60154 32.0652 -8.9421 30.0951 -6.79856C28.1049 -4.63498 28.1652 -1.65005 30.0951 0.513533C30.2358 0.673798 30.3765 0.814029 30.4971 0.974294C32.3064 3.01767 36.0656 2.95757 37.8949 0.974294C39.7042 -1.00899 40.066 -4.47472 37.8949 -6.3979Z" fill="#24154C"/>
<path d="M183.369 132.695C198.049 133.782 223.498 130.432 230.611 126.307C237.723 122.182 227.399 116.732 232.561 108.665C237.724 100.598 251.401 107.739 255.589 102.282C259.778 96.8253 245.836 89.5296 247.776 82.8736C249.716 76.2177 261.695 76.7903 264.996 70.0106C268.297 63.231 261.345 62.1755 261.106 55.5002C260.899 49.7182 266.717 37.1338 264.016 33.843C261.315 30.5522 255.798 39.2551 248.395 40.0144C240.991 40.7736 238.728 35.0856 235.011 36.8174C231.295 38.5491 241.031 46.6811 229.929 48.6185C218.827 50.5559 214.209 39.3178 208.515 43.5033C202.822 47.6889 208.994 60.8245 204.77 67.1131C200.547 73.4017 192.209 60.0052 185.574 70.8442C178.939 81.6831 184.025 91.7713 183.103 102.509C182.298 111.876 177.847 119.317 180.67 130.43C180.85 131.139 182.621 132.64 183.369 132.695Z" fill="#B9B3F9"/>
<path d="M224.377 121.103C224.377 121.103 216.112 116.863 209.416 115.909C202.719 114.955 192.257 119.911 192.257 119.911L193.163 118.831C193.163 118.831 203.82 114.304 209.869 115.369C215.917 116.433 224.377 121.103 224.377 121.103Z" fill="#C6C2F9"/>
<path d="M192.579 77.8618C192.579 77.8618 198.19 85.2656 200.292 91.6943C202.395 98.123 199.87 109.74 199.87 109.74L200.776 108.661C200.776 108.661 202.844 96.9263 200.745 91.1544C198.647 85.3826 192.579 77.8618 192.579 77.8618Z" fill="#C6C2F9"/>
<path d="M251.432 98.7262C251.432 98.7262 241.006 92.6739 234.31 91.7198C227.614 90.7657 214.452 93.4572 214.452 93.4572L215.358 92.3774C215.358 92.3774 228.715 90.1154 234.763 91.1799C240.812 92.2444 251.432 98.7262 251.432 98.7262Z" fill="#C6C2F9"/>
<path d="M210.459 47.7836C210.459 47.7836 218.23 56.9994 220.332 63.4282C222.434 69.8569 222.069 83.2863 222.069 83.2863L222.975 82.2065C222.975 82.2065 222.884 68.6601 220.785 62.8883C218.686 57.1164 210.459 47.7836 210.459 47.7836Z" fill="#C6C2F9"/>
<path d="M258.76 68.6428C258.76 68.6428 249.436 66.9758 244.236 68.0708C239.035 69.1658 230.041 74.69 230.041 74.69L230.42 73.6493C230.42 73.6493 239.673 68.3899 244.425 67.5505C249.177 66.711 258.76 68.6428 258.76 68.6428Z" fill="#9D95F8"/>
<path d="M237.224 39.6592C237.224 39.6592 240.899 45.9888 241.478 50.0543C242.058 54.1198 240.423 62.111 240.423 62.111L241.079 61.5609C241.079 61.5609 242.452 53.4516 241.806 49.7792C241.16 46.1069 237.224 39.6592 237.224 39.6592Z" fill="#9D95F8"/>
<path d="M264.007 33.8377L167.005 151.098L165.385 149.739L264.007 33.8377Z" fill="#9D95F8"/>
<path d="M211.712 110.329C225.838 116.688 237.692 117.149 247.314 111.594C262.081 103.068 264.182 79.0613 264.182 79.0613C264.182 79.0613 242.341 68.8779 227.574 77.4037C217.947 82.9621 212.421 93.44 210.868 108.868C210.833 109.217 211.384 110.182 211.712 110.329Z" fill="#C6C2F9"/>
<path d="M232.058 111.829C232.058 111.829 229.034 108.568 226.177 107.042C223.321 105.516 217.802 106.033 217.802 106.033L218.387 105.696C218.387 105.696 223.923 105.404 226.47 106.873C229.017 108.343 232.058 111.829 232.058 111.829Z" fill="#C6C2F9"/>
<path d="M224.832 87.1677C224.832 87.1677 226.144 91.4176 226.037 94.6541C225.93 97.8907 222.892 102.704 222.892 102.704L223.476 102.367C223.476 102.367 226.328 97.4259 226.329 94.4854C226.33 91.545 224.832 87.1677 224.832 87.1677Z" fill="#B9B3F9"/>
<path d="M247.897 106.192C247.897 106.192 244.198 101.762 241.341 100.236C238.485 98.7104 232.122 97.766 232.122 97.766L232.707 97.4286C232.707 97.4286 239.086 98.598 241.633 100.067C244.18 101.537 247.897 106.192 247.897 106.192Z" fill="#B9B3F9"/>
<path d="M237.802 76.5629C237.802 76.5629 239.789 81.9816 239.682 85.2182C239.576 88.4547 237.212 94.4369 237.212 94.4369L237.797 94.0995C237.797 94.0995 239.974 87.9899 239.975 85.0494C239.976 82.109 237.802 76.5629 237.802 76.5629Z" fill="#B9B3F9"/>
<path d="M256.12 93.8583C256.12 93.8583 252.198 91.5815 249.679 91.2226C247.16 90.8637 242.209 91.8761 242.209 91.8761L242.55 91.47C242.55 91.47 247.574 90.619 249.849 91.0195C252.125 91.4199 256.12 93.8583 256.12 93.8583Z" fill="#B9B3F9"/>
<path d="M251.175 77.291C251.175 77.291 251.792 80.7405 251.387 82.6644C250.982 84.5883 248.938 87.916 248.938 87.916L249.323 87.7759C249.323 87.7759 251.269 84.3524 251.579 82.5943C251.89 80.8363 251.175 77.291 251.175 77.291Z" fill="#B9B3F9"/>
<path d="M264.177 79.0579L211.54 110.037L211.033 109.16L264.177 79.0579Z" fill="#B9B3F9"/>
<path d="M98.3687 97.8491C96.5387 91.3672 91.1158 80.9495 88.2291 78.5367C85.3424 76.124 84.6148 81.4161 80.3383 80.4588C76.0619 79.5016 76.9921 72.5035 73.9903 71.5564C70.9884 70.6093 70.0334 77.7456 66.868 77.9531C63.7026 78.1605 62.0742 72.9207 58.6426 72.5622C55.211 72.2037 55.8452 75.3582 53.0124 76.5057C50.5588 77.4995 44.2375 76.9673 43.2453 78.6437C42.2531 80.3201 46.8583 81.33 48.3433 84.3945C49.8284 87.459 47.7369 89.3221 49.0632 90.6491C50.3894 91.9761 52.3622 86.5174 54.9326 90.9876C57.503 95.4579 53.3937 99.202 56.0843 100.995C58.7749 102.788 63.457 98.0788 66.8217 98.9105C70.1865 99.7423 65.7314 105.424 71.4301 106.58C77.1288 107.737 80.6704 103.971 85.4315 102.688C89.5848 101.568 93.481 102.317 97.8172 99.3642C98.0938 99.1759 98.4619 98.1794 98.3687 97.8491Z" fill="#C6C2F9"/>
<path d="M86.9666 82.0315C86.9666 82.0315 86.437 86.249 87.0747 89.2774C87.7124 92.3058 91.4808 96.0286 91.4808 96.0286L90.8748 95.808C90.8748 95.808 87.2605 91.9344 86.7717 89.1671C86.2828 86.3998 86.9666 82.0315 86.9666 82.0315Z" fill="#C6C2F9"/>
<path d="M73.3528 102.47C73.3528 102.47 75.658 98.8986 78.0931 96.9886C80.5282 95.0786 85.9183 94.346 85.9183 94.346L85.3123 94.1254C85.3123 94.1254 79.9434 95.0726 77.7901 96.8783C75.6368 98.6839 73.3528 102.47 73.3528 102.47Z" fill="#B9B3F9"/>
<path d="M73.1116 73.8995C73.1116 73.8995 72.1408 79.3291 72.7785 82.3575C73.4162 85.3859 76.6332 90.6238 76.6332 90.6238L76.0271 90.4032C76.0271 90.4032 72.9643 85.0144 72.4755 82.2472C71.9866 79.4799 73.1116 73.8995 73.1116 73.8995Z" fill="#B9B3F9"/>
<path d="M57.6189 99.4897C57.6189 99.4897 60.3653 94.7064 62.8004 92.7964C65.2355 90.8864 71.0668 88.9417 71.0668 88.9417L70.4607 88.7211C70.4607 88.7211 64.6506 90.8805 62.4974 92.6861C60.3441 94.4917 57.6189 99.4897 57.6189 99.4897Z" fill="#B9B3F9"/>
<path d="M59.0312 75.4562C59.0312 75.4562 59.7736 79.7259 61.0582 81.7905C62.3429 83.8551 66.1257 86.8579 66.1257 86.8579H65.6189C65.6189 86.8579 61.9094 83.7023 60.8049 81.7905C59.7003 79.8787 59.0312 75.4562 59.0312 75.4562Z" fill="#B9B3F9"/>
<path d="M49.9385 89.2526C49.9385 89.2526 52.085 86.6821 53.7423 85.7968C55.3997 84.9116 59.0913 84.3636 59.0913 84.3636L58.7522 84.1678C58.7522 84.1678 55.0506 84.8464 53.5728 85.699C52.0949 86.5516 49.9385 89.2526 49.9385 89.2526Z" fill="#B9B3F9"/>
<path d="M43.2422 78.6472L108.84 102.004L108.509 102.913L43.2422 78.6472Z" fill="#B9B3F9"/>
<path d="M111.789 98.7329C115.204 91.1462 118.344 76.9819 117.528 72.4066C116.713 67.8314 111.822 72.2614 108.535 67.96C105.249 63.6585 111.686 57.775 109.597 54.4952C107.508 51.2154 100.938 57.2101 97.778 54.8929C94.6179 52.5758 97.2376 46.3245 94.2749 43.2604C91.3123 40.1964 89.4076 43.685 85.816 42.5215C82.7049 41.5138 77.1457 35.9908 74.8757 36.7893C72.6057 37.5878 76.1616 42.2002 75.1337 46.2792C74.1057 50.3583 70.6471 50.4607 70.8484 52.7695C71.0497 55.0783 77.251 51.4792 76.1338 57.7504C75.0167 64.0215 68.1551 64.3016 69.2775 68.1348C70.3999 71.968 78.5698 71.2292 81.0934 74.688C83.617 78.1468 74.8898 79.9858 79.364 85.6052C83.8383 91.2247 90.1796 90.4734 95.7045 93.0391C100.524 95.2771 103.616 99.08 110.064 99.7288C110.475 99.7701 111.615 99.1195 111.789 98.7329Z" fill="#B9B3F9"/>
<path d="M113.56 74.7125C113.56 74.7125 109.71 78.283 107.909 81.655C106.108 85.0271 106.718 91.5423 106.718 91.5423L106.319 90.8523C106.319 90.8523 105.975 84.3169 107.71 81.3101C109.444 78.3032 113.56 74.7125 113.56 74.7125Z" fill="#9D95F8"/>
<path d="M84.4467 83.2415C84.4467 83.2415 89.4637 81.6926 93.2846 81.8187C97.1056 81.9448 102.788 85.5315 102.788 85.5315L102.389 84.8416C102.389 84.8416 96.5568 81.4748 93.0855 81.4737C89.6141 81.4726 84.4467 83.2415 84.4467 83.2415Z" fill="#9D95F8"/>
<path d="M106.907 56.0157C106.907 56.0157 101.677 60.3828 99.8758 63.7549C98.0746 67.1269 96.9597 74.638 96.9597 74.638L96.5614 73.948C96.5614 73.948 97.9419 66.4167 99.6766 63.4099C101.411 60.4031 106.907 56.0157 106.907 56.0157Z" fill="#9D95F8"/>
<path d="M71.9251 67.9311C71.9251 67.9311 78.3221 65.5855 82.143 65.7116C85.9639 65.8377 93.0261 68.6277 93.0261 68.6277L92.6278 67.9378C92.6278 67.9378 85.4152 65.3677 81.9438 65.3666C78.4725 65.3655 71.9251 67.9311 71.9251 67.9311Z" fill="#9D95F8"/>
<path d="M92.3463 46.3073C92.3463 46.3073 89.6585 50.9372 89.2348 53.9109C88.8111 56.8846 90.0063 62.7299 90.0063 62.7299L89.5268 62.3275C89.5268 62.3275 88.5223 56.3959 88.995 53.7097C89.4678 51.0235 92.3463 46.3073 92.3463 46.3073Z" fill="#9D95F8"/>
<path d="M72.7846 52.1442C72.7846 52.1442 76.8568 51.4162 79.1281 51.8944C81.3994 52.3727 85.3279 54.7854 85.3279 54.7854L85.1624 54.3309C85.1624 54.3309 81.1208 52.0338 79.0454 51.6671C76.9699 51.3005 72.7846 52.1442 72.7846 52.1442Z" fill="#9D95F8"/>
<path d="M74.8727 36.792L118.401 110.981L117.366 111.578L74.8727 36.792Z" fill="#9D95F8"/>
<path d="M136.075 107.853H221.828C224.657 107.853 226.645 105.558 226.258 102.722L216.43 30.5278H120.422L130.25 102.722C130.631 105.558 133.239 107.853 136.075 107.853Z" fill="#5A6389"/>
<path d="M216.423 30.5347H120.422L123.057 49.8911H219.059L216.423 30.5347Z" fill="#4F44D0"/>
<path opacity="0.3" d="M216.422 30.5347H180.945L225.657 105.772C226.17 104.918 226.404 103.87 226.25 102.729L216.422 30.5347Z" fill="#DCDEE6"/>
<path d="M200.934 107.853H115.182C112.353 107.853 110.364 105.558 110.751 102.722L120.58 30.5278H216.588L206.759 102.722C206.372 105.558 203.763 107.853 200.934 107.853Z" fill="white"/>
<path d="M134.012 83.4729C133.752 85.3945 131.984 86.9491 130.062 86.9491C128.141 86.9491 126.799 85.3945 127.06 83.4729C127.32 81.5512 129.088 79.9966 131.01 79.9966C132.931 79.9966 134.272 81.5512 134.012 83.4729Z" fill="#33CF90"/>
<path d="M172.04 70.0267C173.543 68.6229 173.767 66.4219 172.542 65.1106C171.317 63.7993 169.106 63.8742 167.603 65.278C166.101 66.6818 165.876 68.8829 167.101 70.1942C168.326 71.5055 170.538 71.4305 172.04 70.0267Z" fill="#33CF90"/>
<path d="M213.746 51.3993L214.607 45.0605H118.599L117.738 51.3993H213.746Z" fill="#4F44D0"/>
<path d="M213.953 49.8911H117.945L120.581 30.5347H216.589L213.953 49.8911Z" fill="#675AF6"/>
<path fill-rule="evenodd" clip-rule="evenodd" d="M141.855 66.3894L141.891 66.1273C142.141 66.1366 142.319 66.1196 142.424 66.0764C142.529 66.0332 142.619 65.9098 142.696 65.7061L142.966 65.7425L142.6 68.4508L142.236 68.4016L142.495 66.4758L141.855 66.3894Z" fill="#5A6389"/>
<path fill-rule="evenodd" clip-rule="evenodd" d="M150.429 68.2771C150.473 68.0445 150.549 67.8472 150.657 67.6851C150.764 67.523 150.95 67.3875 151.213 67.2787L151.606 67.1171C151.782 67.0441 151.908 66.9786 151.983 66.9203C152.101 66.8292 152.169 66.716 152.187 66.5805C152.209 66.4222 152.178 66.2901 152.096 66.1843C152.013 66.0784 151.893 66.0148 151.735 65.9934C151.5 65.9618 151.326 66.0286 151.213 66.1937C151.152 66.2822 151.107 66.4103 151.079 66.578L150.732 66.5311C150.768 66.2949 150.837 66.1077 150.941 65.9695C151.125 65.7262 151.404 65.6297 151.779 65.6803C152.09 65.7223 152.306 65.8372 152.427 66.025C152.548 66.2128 152.595 66.4099 152.567 66.6163C152.538 66.834 152.436 67.0098 152.262 67.1436C152.161 67.2216 151.988 67.309 151.741 67.406L151.462 67.5153C151.328 67.5669 151.222 67.6189 151.143 67.6714C151.001 67.7645 150.905 67.8759 150.854 68.0057L152.339 68.206L152.296 68.5289L150.429 68.2771Z" fill="#5A6389"/>
<path fill-rule="evenodd" clip-rule="evenodd" d="M160.909 67.0235C161.045 67.0821 161.145 67.1723 161.21 67.2941C161.275 67.417 161.297 67.5595 161.275 67.7216C161.24 67.9811 161.126 68.1811 160.933 68.3213C160.74 68.4616 160.487 68.5106 160.173 68.4682C159.851 68.4248 159.63 68.305 159.509 68.1089C159.387 67.9127 159.344 67.688 159.378 67.4347L159.735 67.4829C159.727 67.6609 159.742 67.7933 159.782 67.8799C159.852 68.0349 160.002 68.128 160.234 68.1593C160.414 68.1836 160.564 68.1549 160.686 68.0734C160.808 67.9918 160.879 67.8751 160.9 67.7232C160.925 67.5358 160.885 67.397 160.781 67.3068C160.676 67.2167 160.522 67.1578 160.318 67.1303C160.296 67.1273 160.272 67.1245 160.249 67.1219C160.225 67.1194 160.202 67.1171 160.177 67.1152L160.218 66.8132C160.253 66.8218 160.282 66.8283 160.306 66.8328C160.33 66.8373 160.356 66.8415 160.384 66.8452C160.512 66.8625 160.62 66.8564 160.707 66.827C160.861 66.7755 160.951 66.6587 160.975 66.4763C160.993 66.3409 160.959 66.2299 160.873 66.1435C160.787 66.0571 160.68 66.0052 160.552 65.988C160.324 65.9572 160.156 66.0119 160.048 66.1521C159.989 66.2292 159.945 66.3445 159.918 66.4981L159.58 66.4525C159.608 66.25 159.671 66.0832 159.771 65.9523C159.945 65.7179 160.207 65.6243 160.558 65.6716C160.835 65.709 161.041 65.7997 161.177 65.9437C161.312 66.0876 161.364 66.2767 161.332 66.511C161.31 66.6781 161.246 66.8075 161.142 66.8992C161.078 66.9563 160.999 66.9972 160.905 67.0219L160.909 67.0235Z" fill="#5A6389"/>
<path fill-rule="evenodd" clip-rule="evenodd" d="M169.41 67.4691L169.576 66.2365L168.538 67.3516L169.41 67.4691ZM169.286 68.432L169.375 67.7673L168.183 67.6065L168.228 67.2722L169.707 65.7119L169.995 65.7508L169.757 67.5152L170.158 67.5693L170.118 67.8674L169.717 67.8134L169.627 68.4781L169.286 68.432Z" fill="white"/>
<path fill-rule="evenodd" clip-rule="evenodd" d="M178.361 67.5777C178.358 67.7757 178.43 67.9228 178.578 68.0188C178.654 68.0677 178.745 68.0994 178.852 68.1137C179.054 68.1411 179.213 68.0967 179.328 67.9807C179.443 67.8647 179.511 67.7282 179.532 67.5712C179.558 67.3813 179.52 67.2266 179.418 67.1072C179.316 66.9877 179.184 66.917 179.022 66.8952C178.904 66.8793 178.8 66.8885 178.71 66.9227C178.619 66.9569 178.539 67.0105 178.469 67.0835L178.175 67.0265L178.579 65.5901L179.992 65.7807L179.948 66.1112L178.791 65.9551L178.573 66.6954C178.643 66.6558 178.708 66.6279 178.768 66.6115C178.875 66.5834 178.995 66.5783 179.128 66.5962C179.378 66.6299 179.578 66.7388 179.73 66.923C179.882 67.1072 179.941 67.3227 179.908 67.5696C179.873 67.8267 179.763 68.0426 179.578 68.2174C179.392 68.3922 179.125 68.4562 178.777 68.4092C178.556 68.3793 178.368 68.2905 178.215 68.1428C178.061 67.9951 177.992 67.7908 178.006 67.5297L178.361 67.5777Z" fill="#5A6389"/>
<path fill-rule="evenodd" clip-rule="evenodd" d="M122.359 74.5135C122.662 74.5545 122.864 74.6619 122.962 74.8357C123.06 75.0094 123.098 75.1799 123.076 75.347L122.738 75.3014C122.732 75.1911 122.711 75.1025 122.675 75.0358C122.608 74.9107 122.491 74.8369 122.324 74.8144C122.133 74.7886 121.969 74.8564 121.832 75.0179C121.696 75.1793 121.599 75.4238 121.542 75.7513C121.636 75.6466 121.746 75.5738 121.873 75.5329C121.989 75.497 122.114 75.488 122.248 75.5061C122.476 75.5368 122.665 75.6365 122.815 75.8049C122.965 75.9734 123.02 76.202 122.981 76.4907C122.948 76.7376 122.838 76.9455 122.652 77.1144C122.465 77.2832 122.223 77.3476 121.925 77.3075C121.671 77.2732 121.464 77.147 121.305 76.929C121.147 76.711 121.098 76.3734 121.16 75.9163C121.205 75.5783 121.285 75.297 121.399 75.0726C121.618 74.6432 121.938 74.4569 122.359 74.5135ZM121.997 77.0083C122.177 77.0326 122.32 76.9902 122.425 76.8814C122.531 76.7725 122.595 76.6357 122.617 76.4711C122.636 76.3319 122.614 76.1939 122.551 76.0571C122.488 75.9204 122.352 75.8378 122.142 75.8095C121.995 75.7897 121.859 75.8211 121.735 75.9036C121.611 75.9862 121.536 76.1256 121.51 76.3218C121.487 76.494 121.517 76.6455 121.602 76.7762C121.687 76.9069 121.819 76.9842 121.997 77.0083Z" fill="#5A6389"/>
<path fill-rule="evenodd" clip-rule="evenodd" d="M132.079 74.6331L132.039 74.9313C131.94 75.0043 131.804 75.1362 131.631 75.3268C131.457 75.5174 131.299 75.7268 131.154 75.9549C131.012 76.1768 130.9 76.3814 130.816 76.5687C130.763 76.6891 130.688 76.8846 130.592 77.1553L130.214 77.1043C130.37 76.5968 130.63 76.1059 130.993 75.6314C131.207 75.3535 131.425 75.1179 131.645 74.9246L130.141 74.7217L130.188 74.3779L132.079 74.6331Z" fill="#5A6389"/>
<path fill-rule="evenodd" clip-rule="evenodd" d="M139.805 75.6525C139.956 75.6728 140.08 75.6466 140.176 75.5738C140.272 75.5011 140.328 75.4065 140.344 75.29C140.357 75.1887 140.329 75.0901 140.26 74.9944C140.19 74.8986 140.072 74.8395 139.907 74.8172C139.742 74.795 139.617 74.8213 139.532 74.8963C139.447 74.9712 139.397 75.0656 139.382 75.1796C139.365 75.3075 139.399 75.4139 139.484 75.4989C139.569 75.5839 139.676 75.6351 139.805 75.6525ZM139.644 77.0022C139.802 77.0235 139.94 76.9985 140.056 76.9271C140.172 76.8558 140.241 76.7352 140.264 76.5656C140.288 76.3896 140.252 76.2487 140.157 76.1431C140.061 76.0374 139.929 75.9732 139.761 75.9505C139.598 75.9285 139.458 75.957 139.342 76.0362C139.227 76.1153 139.158 76.2372 139.135 76.4018C139.116 76.5436 139.147 76.6725 139.227 76.7884C139.308 76.9043 139.447 76.9756 139.644 77.0022ZM139.322 75.7211C139.233 75.6678 139.165 75.6103 139.119 75.5487C139.033 75.4339 139 75.2955 139.022 75.1334C139.05 74.9308 139.147 74.7666 139.313 74.6408C139.48 74.515 139.698 74.4703 139.967 74.5067C140.228 74.5419 140.424 74.6381 140.553 74.7955C140.683 74.9528 140.735 75.1233 140.71 75.3069C140.687 75.4766 140.626 75.6082 140.526 75.7016C140.469 75.7547 140.387 75.8028 140.278 75.8461C140.384 75.9132 140.464 75.9847 140.52 76.0605C140.623 76.2034 140.661 76.3761 140.634 76.5787C140.601 76.818 140.494 77.01 140.31 77.1548C140.127 77.2997 139.888 77.3523 139.595 77.3126C139.33 77.2769 139.116 77.1749 138.952 77.0065C138.789 76.8381 138.725 76.6172 138.762 76.3437C138.784 76.1829 138.842 76.0492 138.936 75.9427C139.031 75.8362 139.159 75.7623 139.322 75.7211Z" fill="#5A6389"/>
<path fill-rule="evenodd" clip-rule="evenodd" d="M148.939 76.4997C148.924 76.6897 148.979 76.8299 149.105 76.9204C149.169 76.9678 149.245 76.9973 149.332 77.0091C149.496 77.0311 149.644 76.9819 149.778 76.8613C149.911 76.7407 150.03 76.4754 150.135 76.0653C150.042 76.1754 149.937 76.2472 149.818 76.2808C149.7 76.3145 149.576 76.3226 149.447 76.3052C149.185 76.2698 148.988 76.1602 148.858 75.9763C148.727 75.7923 148.679 75.5719 148.714 75.3148C148.747 75.0679 148.852 74.861 149.028 74.6939C149.204 74.5268 149.439 74.4631 149.732 74.5027C150.129 74.5562 150.378 74.7716 150.481 75.149C150.538 75.3565 150.546 75.6078 150.507 75.9028C150.462 76.2358 150.372 76.524 150.237 76.7676C150.014 77.1732 149.704 77.3493 149.307 77.2958C149.041 77.2599 148.849 77.1631 148.73 77.0052C148.61 76.8473 148.565 76.6632 148.593 76.453L148.939 76.4997ZM149.533 76.0111C149.668 76.0294 149.798 76.0015 149.922 75.9273C150.046 75.8532 150.123 75.7047 150.154 75.4818C150.181 75.2818 150.15 75.1259 150.063 75.0142C149.975 74.9025 149.854 74.8361 149.698 74.8151C149.531 74.7926 149.391 74.8307 149.278 74.9296C149.164 75.0284 149.095 75.1715 149.07 75.3589C149.046 75.5361 149.07 75.6828 149.142 75.7989C149.214 75.9149 149.344 75.9857 149.533 76.0111Z" fill="#5A6389"/>
<path fill-rule="evenodd" clip-rule="evenodd" d="M156.592 75.0447L156.627 74.7826C156.878 74.7919 157.055 74.7749 157.16 74.7317C157.265 74.6885 157.356 74.5651 157.433 74.3614L157.702 74.3977L157.337 77.1061L156.972 77.0569L157.232 75.131L156.592 75.0447ZM159.542 74.634C159.894 74.6815 160.129 74.8608 160.247 75.1719C160.339 75.4125 160.358 75.7277 160.305 76.1177C160.256 76.4874 160.159 76.7857 160.016 77.0127C159.81 77.3381 159.526 77.4764 159.164 77.4276C158.837 77.3835 158.613 77.2089 158.492 76.9038C158.391 76.649 158.367 76.3223 158.421 75.9234C158.463 75.6145 158.538 75.3546 158.648 75.1438C158.853 74.7512 159.151 74.5813 159.542 74.634ZM159.204 77.1159C159.381 77.1398 159.533 77.0804 159.659 76.9375C159.785 76.7947 159.877 76.5093 159.935 76.0814C159.977 75.7724 159.973 75.5131 159.924 75.3034C159.875 75.0938 159.741 74.9742 159.522 74.9446C159.321 74.9174 159.161 74.9922 159.042 75.169C158.923 75.3457 158.839 75.6183 158.79 75.9868C158.752 76.2641 158.752 76.4909 158.789 76.6673C158.845 76.9367 158.984 77.0862 159.204 77.1159Z" fill="#5A6389"/>
<path fill-rule="evenodd" clip-rule="evenodd" d="M167.375 75.094L167.41 74.8319C167.66 74.8411 167.838 74.8242 167.943 74.781C168.048 74.7378 168.139 74.6143 168.215 74.4106L168.485 74.447L168.12 77.1554L167.755 77.1062L168.015 75.1803L167.375 75.094ZM169.251 75.3467L169.287 75.0846C169.537 75.0939 169.714 75.0769 169.82 75.0337C169.925 74.9905 170.015 74.8671 170.092 74.6634L170.362 74.6998L169.996 77.4081L169.632 77.3589L169.891 75.4331L169.251 75.3467Z" fill="#5A6389"/>
<path fill-rule="evenodd" clip-rule="evenodd" d="M176.212 75.0534L176.247 74.7913C176.497 74.8005 176.675 74.7836 176.78 74.7404C176.885 74.6972 176.976 74.5737 177.052 74.37L177.322 74.4064L176.957 77.1148L176.592 77.0656L176.852 75.1397L176.212 75.0534ZM177.864 77.2368C177.909 77.0042 177.985 76.8069 178.092 76.6448C178.2 76.4827 178.385 76.3472 178.649 76.2384L179.042 76.0768C179.218 76.0039 179.344 75.9383 179.418 75.8801C179.536 75.789 179.605 75.6757 179.623 75.5402C179.644 75.3819 179.614 75.2499 179.531 75.144C179.449 75.0381 179.328 74.9745 179.17 74.9531C178.936 74.9215 178.762 74.9883 178.648 75.1534C178.587 75.2419 178.543 75.37 178.515 75.5377L178.168 75.4908C178.203 75.2546 178.273 75.0674 178.377 74.9292C178.56 74.6859 178.84 74.5895 179.214 74.64C179.526 74.6821 179.742 74.797 179.863 74.9848C179.984 75.1725 180.031 75.3696 180.003 75.576C179.973 75.7938 179.872 75.9696 179.698 76.1034C179.597 76.1813 179.423 76.2688 179.177 76.3657L178.897 76.475C178.764 76.5266 178.658 76.5787 178.578 76.6311C178.437 76.7242 178.341 76.8356 178.29 76.9654L179.775 77.1658L179.731 77.4887L177.864 77.2368Z" fill="#5A6389"/>
<path fill-rule="evenodd" clip-rule="evenodd" d="M119.303 82.898L119.338 82.6359C119.588 82.6451 119.766 82.6281 119.871 82.585C119.976 82.5418 120.067 82.4183 120.143 82.2146L120.413 82.251L120.047 84.9593L119.683 84.9101L119.943 82.9843L119.303 82.898ZM122.567 83.8302C122.567 83.8302 122.567 83.8302 122.567 83.8302C122.568 83.8307 122.569 83.8312 122.571 83.8317L122.567 83.8302ZM122.571 83.8308C122.707 83.8894 122.807 83.9796 122.872 84.1014C122.937 84.2243 122.959 84.3668 122.937 84.5289C122.902 84.7885 122.788 84.9884 122.595 85.1287C122.402 85.2689 122.149 85.3179 121.835 85.2756C121.513 85.2322 121.292 85.1124 121.171 84.9162C121.049 84.72 121.006 84.4953 121.04 84.2421L121.397 84.2902C121.389 84.4683 121.404 84.6006 121.444 84.6872C121.513 84.8422 121.664 84.9354 121.896 84.9666C122.075 84.9909 122.226 84.9622 122.348 84.8807C122.47 84.7992 122.541 84.6824 122.562 84.5305C122.587 84.3431 122.547 84.2043 122.443 84.1142C122.338 84.024 122.184 83.9652 121.98 83.9377C121.958 83.9346 121.934 83.9318 121.911 83.9293C121.887 83.9267 121.863 83.9245 121.839 83.9225L121.88 83.6205C121.915 83.6291 121.944 83.6357 121.968 83.6402C121.992 83.6447 122.018 83.6488 122.046 83.6526C122.174 83.6698 122.282 83.6637 122.369 83.6343C122.523 83.5829 122.612 83.466 122.637 83.2837C122.655 83.1482 122.621 83.0372 122.535 82.9508C122.449 82.8644 122.342 82.8126 122.214 82.7953C121.986 82.7646 121.818 82.8193 121.71 82.9595C121.651 83.0365 121.607 83.1519 121.58 83.3055L121.242 83.2599C121.269 83.0573 121.333 82.8906 121.433 82.7597C121.607 82.5253 121.869 82.4317 122.22 82.479C122.497 82.5164 122.703 82.6071 122.839 82.751C122.974 82.8949 123.026 83.084 122.994 83.3183C122.972 83.4854 122.908 83.6148 122.804 83.7065C122.74 83.7636 122.661 83.8045 122.567 83.8293L122.571 83.8308Z" fill="#5A6389"/>
<path fill-rule="evenodd" clip-rule="evenodd" d="M128.13 82.8996L128.165 82.6375C128.416 82.6467 128.593 82.6298 128.698 82.5866C128.803 82.5434 128.894 82.4199 128.971 82.2163L129.24 82.2526L128.875 84.961L128.51 84.9118L128.77 82.9859L128.13 82.8996ZM131.076 84.277L131.243 83.0444L130.205 84.1595L131.076 84.277ZM130.953 85.2403L131.043 84.5756L129.85 84.4147L129.895 84.0804L131.374 82.5202L131.663 82.5591L131.425 84.3235L131.825 84.3776L131.785 84.6758L131.384 84.6217L131.295 85.2864L130.953 85.2403Z" fill="white"/>
<path fill-rule="evenodd" clip-rule="evenodd" d="M136.969 82.8826L137.004 82.6205C137.254 82.6297 137.432 82.6128 137.537 82.5696C137.642 82.5264 137.733 82.4029 137.809 82.1992L138.079 82.2356L137.714 84.9439L137.349 84.8948L137.609 82.9689L136.969 82.8826ZM139.074 84.4214C139.071 84.6195 139.143 84.7665 139.291 84.8626C139.367 84.9115 139.458 84.9431 139.565 84.9575C139.767 84.9848 139.926 84.9405 140.041 84.8245C140.156 84.7085 140.224 84.572 140.245 84.415C140.271 84.225 140.233 84.0704 140.131 83.9509C140.029 83.8315 139.897 83.7608 139.735 83.7389C139.617 83.7231 139.513 83.7322 139.423 83.7664C139.332 83.8007 139.252 83.8543 139.181 83.9273L138.888 83.8702L139.292 82.4338L140.705 82.6244L140.661 82.9549L139.504 82.7989L139.286 83.5392C139.356 83.4996 139.421 83.4716 139.481 83.4552C139.588 83.4271 139.708 83.422 139.841 83.44C140.09 83.4736 140.291 83.5825 140.443 83.7667C140.595 83.9509 140.654 84.1665 140.62 84.4134C140.586 84.6704 140.476 84.8863 140.29 85.0612C140.105 85.236 139.838 85.2999 139.49 85.253C139.268 85.2231 139.081 85.1343 138.927 84.9866C138.774 84.8389 138.704 84.6345 138.719 84.3735L139.074 84.4214Z" fill="#5A6389"/>
<path fill-rule="evenodd" clip-rule="evenodd" d="M146.778 82.9046L146.813 82.6425C147.064 82.6518 147.241 82.6348 147.346 82.5916C147.451 82.5484 147.542 82.425 147.619 82.2213L147.888 82.2577L147.523 84.966L147.158 84.9168L147.418 82.991L146.778 82.9046ZM149.816 82.4938C150.12 82.5348 150.321 82.6422 150.419 82.816C150.518 82.9898 150.556 83.1602 150.533 83.3274L150.195 83.2817C150.189 83.1714 150.168 83.0828 150.132 83.0161C150.065 82.891 149.948 82.8172 149.781 82.7947C149.59 82.7689 149.426 82.8367 149.29 82.9981C149.153 83.1595 149.056 83.404 148.999 83.7315C149.093 83.6269 149.204 83.5541 149.33 83.5132C149.446 83.4772 149.571 83.4683 149.705 83.4864C149.933 83.5171 150.122 83.6168 150.272 83.7853C150.422 83.9538 150.478 84.1824 150.439 84.471C150.405 84.718 150.296 84.9258 150.109 85.0947C149.923 85.2636 149.681 85.3279 149.383 85.2878C149.128 85.2534 148.922 85.1273 148.763 84.9092C148.604 84.6912 148.556 84.3536 148.617 83.8966C148.663 83.5585 148.743 83.2773 148.857 83.0528C149.076 82.6234 149.396 82.4371 149.816 82.4938ZM149.454 84.9883C149.634 85.0126 149.777 84.9703 149.882 84.8614C149.988 84.7525 150.052 84.6158 150.074 84.4512C150.093 84.3119 150.071 84.1739 150.008 84.0372C149.945 83.9004 149.809 83.8179 149.598 83.7895C149.451 83.7697 149.316 83.8011 149.192 83.8836C149.068 83.9662 148.993 84.1056 148.967 84.3018C148.943 84.474 148.974 84.6255 149.059 84.7562C149.144 84.8869 149.276 84.9643 149.454 84.9883Z" fill="#5A6389"/>
<path fill-rule="evenodd" clip-rule="evenodd" d="M155.605 82.8802L155.641 82.6181C155.891 82.6273 156.069 82.6103 156.174 82.5672C156.279 82.524 156.369 82.4005 156.446 82.1968L156.716 82.2332L156.35 84.9415L155.986 84.8924L156.245 82.9665L155.605 82.8802ZM159.531 82.6478L159.491 82.946C159.392 83.019 159.256 83.1509 159.083 83.3415C158.91 83.5321 158.751 83.7415 158.607 83.9695C158.465 84.1915 158.352 84.3961 158.269 84.5834C158.215 84.7038 158.14 84.8993 158.044 85.17L157.666 85.119C157.823 84.6115 158.082 84.1205 158.445 83.6461C158.659 83.3682 158.877 83.1326 159.098 82.9393L157.593 82.7364L157.64 82.3926L159.531 82.6478Z" fill="#5A6389"/>
<path fill-rule="evenodd" clip-rule="evenodd" d="M165.423 82.9028L165.458 82.6407C165.708 82.6499 165.886 82.6329 165.991 82.5897C166.096 82.5466 166.187 82.4231 166.264 82.2194L166.533 82.2558L166.168 84.9641L165.803 84.9149L166.063 82.9891L165.423 82.9028ZM168.225 83.6318C168.376 83.6521 168.5 83.6259 168.596 83.5531C168.692 83.4804 168.748 83.3857 168.764 83.2693C168.777 83.168 168.749 83.0694 168.68 82.9737C168.61 82.8779 168.492 82.8188 168.327 82.7965C168.162 82.7743 168.037 82.8006 167.952 82.8755C167.867 82.9505 167.817 83.0449 167.802 83.1589C167.785 83.2867 167.819 83.3932 167.904 83.4782C167.989 83.5631 168.096 83.6143 168.225 83.6318ZM168.064 84.9811C168.223 85.0025 168.36 84.9775 168.476 84.9061C168.592 84.8347 168.661 84.7142 168.684 84.5445C168.708 84.3685 168.672 84.2277 168.577 84.122C168.481 84.0163 168.349 83.9521 168.181 83.9294C168.018 83.9074 167.878 83.9359 167.762 84.015C167.647 84.0942 167.578 84.2161 167.555 84.3807C167.536 84.5225 167.567 84.6513 167.647 84.7673C167.728 84.8832 167.867 84.9545 168.064 84.9811ZM167.743 83.6998C167.653 83.6465 167.585 83.589 167.54 83.5274C167.453 83.4126 167.421 83.2742 167.443 83.1121C167.47 82.9095 167.567 82.7453 167.734 82.6195C167.9 82.4937 168.118 82.449 168.388 82.4854C168.649 82.5206 168.844 82.6169 168.974 82.7742C169.103 82.9316 169.156 83.1021 169.131 83.2857C169.108 83.4553 169.046 83.5869 168.946 83.6804C168.89 83.7334 168.807 83.7816 168.698 83.8249C168.804 83.892 168.885 83.9635 168.94 84.0393C169.043 84.1821 169.081 84.3549 169.054 84.5574C169.022 84.7967 168.914 84.9888 168.731 85.1336C168.547 85.2784 168.309 85.331 168.015 85.2914C167.751 85.2557 167.536 85.1536 167.373 84.9853C167.209 84.8169 167.146 84.5959 167.183 84.3224C167.205 84.1616 167.263 84.028 167.357 83.9214C167.451 83.8149 167.58 83.741 167.743 83.6998Z" fill="#5A6389"/>
<path fill-rule="evenodd" clip-rule="evenodd" d="M175.232 82.9002L175.268 82.6381C175.518 82.6474 175.695 82.6304 175.8 82.5872C175.905 82.544 175.996 82.4206 176.073 82.2169L176.342 82.2532L175.977 84.9616L175.612 84.9124L175.872 82.9865L175.232 82.9002ZM177.369 84.4797C177.353 84.6697 177.409 84.8099 177.534 84.9004C177.599 84.9478 177.675 84.9773 177.762 84.9891C177.925 85.0112 178.074 84.9619 178.207 84.8413C178.341 84.7207 178.46 84.4554 178.564 84.0453C178.472 84.1554 178.367 84.2272 178.248 84.2608C178.129 84.2945 178.006 84.3026 177.876 84.2852C177.614 84.2498 177.418 84.1402 177.287 83.9563C177.157 83.7724 177.109 83.5519 177.144 83.2949C177.177 83.0479 177.282 82.841 177.458 82.6739C177.634 82.5068 177.868 82.4431 178.162 82.4827C178.558 82.5362 178.808 82.7516 178.91 83.129C178.967 83.3365 178.976 83.5878 178.936 83.8828C178.891 84.2158 178.802 84.5041 178.667 84.7476C178.443 85.1532 178.133 85.3293 177.737 85.2758C177.471 85.2399 177.279 85.1431 177.159 84.9852C177.04 84.8273 176.995 84.6432 177.023 84.4331L177.369 84.4797ZM177.962 83.9917C178.098 84.0099 178.228 83.982 178.352 83.9078C178.476 83.8337 178.553 83.6852 178.583 83.4623C178.61 83.2623 178.58 83.1064 178.492 82.9947C178.405 82.883 178.283 82.8166 178.128 82.7956C177.96 82.7731 177.82 82.8112 177.707 82.9101C177.594 83.0089 177.525 83.152 177.499 83.3394C177.475 83.5166 177.499 83.6633 177.571 83.7794C177.643 83.8954 177.774 83.9662 177.962 83.9917Z" fill="#5A6389"/>
<path fill-rule="evenodd" clip-rule="evenodd" d="M118.066 92.6624C118.11 92.4299 118.186 92.2325 118.293 92.0704C118.401 91.9083 118.587 91.7729 118.85 91.664L119.243 91.5024C119.419 91.4295 119.545 91.3639 119.62 91.3057C119.738 91.2146 119.806 91.1013 119.824 90.9659C119.845 90.8076 119.815 90.6755 119.732 90.5696C119.65 90.4638 119.53 90.4001 119.371 90.3788C119.137 90.3472 118.963 90.4139 118.849 90.5791C118.788 90.6675 118.744 90.7956 118.716 90.9633L118.369 90.9164C118.404 90.6802 118.474 90.493 118.578 90.3548C118.762 90.1115 119.041 90.0151 119.416 90.0657C119.727 90.1077 119.943 90.2226 120.064 90.4104C120.185 90.5982 120.232 90.7953 120.204 91.0017C120.175 91.2195 120.073 91.3952 119.899 91.529C119.798 91.607 119.625 91.6944 119.378 91.7914L119.099 91.9006C118.965 91.9522 118.859 92.0043 118.78 92.0568C118.638 92.1498 118.542 92.2613 118.491 92.391L119.976 92.5915L119.933 92.9143L118.066 92.6624ZM121.525 90.3595C121.877 90.407 122.112 90.5863 122.23 90.8975C122.322 91.138 122.341 91.4532 122.288 91.8432C122.238 92.2129 122.142 92.5113 121.999 92.7383C121.793 93.0637 121.509 93.2019 121.147 93.1531C120.82 93.109 120.596 92.9343 120.475 92.6292C120.374 92.3745 120.35 92.0477 120.404 91.6488C120.446 91.3399 120.521 91.08 120.631 90.8692C120.836 90.4766 121.134 90.3067 121.525 90.3595ZM121.188 92.8418C121.365 92.8657 121.517 92.8063 121.643 92.6635C121.769 92.5206 121.861 92.2352 121.919 91.8073C121.961 91.4983 121.957 91.239 121.908 91.0293C121.859 90.8197 121.725 90.7 121.506 90.6705C121.304 90.6433 121.144 90.7181 121.026 90.8948C120.907 91.0715 120.823 91.3441 120.773 91.7126C120.736 91.9899 120.736 92.2168 120.773 92.3932C120.829 92.6625 120.967 92.8121 121.188 92.8418Z" fill="#5A6389"/>
<path fill-rule="evenodd" clip-rule="evenodd" d="M126.89 92.7039C126.934 92.4713 127.01 92.274 127.118 92.1119C127.225 91.9498 127.411 91.8144 127.674 91.7055L128.067 91.5439C128.243 91.471 128.369 91.4054 128.444 91.3472C128.562 91.2561 128.63 91.1428 128.648 91.0073C128.67 90.8491 128.639 90.717 128.557 90.6111C128.474 90.5052 128.354 90.4416 128.196 90.4203C127.961 90.3887 127.787 90.4554 127.674 90.6206C127.613 90.709 127.568 90.8371 127.541 91.0048L127.193 90.9579C127.229 90.7217 127.298 90.5345 127.402 90.3963C127.586 90.153 127.865 90.0566 128.24 90.1071C128.551 90.1492 128.768 90.2641 128.889 90.4519C129.01 90.6397 129.056 90.8367 129.028 91.0431C128.999 91.2609 128.897 91.4367 128.723 91.5705C128.622 91.6484 128.449 91.7359 128.202 91.8329L127.923 91.9421C127.789 91.9937 127.683 92.0458 127.604 92.0982C127.462 92.1913 127.366 92.3027 127.315 92.4325L128.8 92.6329L128.757 92.9558L126.89 92.7039ZM129.564 91.104L129.6 90.8419C129.85 90.8512 130.028 90.8342 130.133 90.791C130.238 90.7479 130.329 90.6244 130.405 90.4207L130.675 90.4571L130.309 93.1655L129.945 93.1163L130.205 91.1904L129.564 91.104Z" fill="#5A6389"/>
<path fill-rule="evenodd" clip-rule="evenodd" d="M135.722 92.6624C135.766 92.4298 135.842 92.2325 135.95 92.0704C136.057 91.9083 136.243 91.7728 136.506 91.664L136.899 91.5024C137.075 91.4294 137.201 91.3639 137.276 91.3056C137.394 91.2146 137.462 91.1013 137.48 90.9658C137.502 90.8075 137.471 90.6755 137.389 90.5696C137.306 90.4637 137.186 90.4001 137.028 90.3787C136.793 90.3471 136.619 90.4139 136.506 90.579C136.445 90.6675 136.4 90.7956 136.372 90.9633L136.025 90.9164C136.061 90.6802 136.13 90.493 136.234 90.3548C136.418 90.1115 136.697 90.015 137.072 90.0656C137.383 90.1076 137.599 90.2225 137.72 90.4103C137.841 90.5981 137.888 90.7952 137.86 91.0016C137.831 91.2194 137.729 91.3952 137.555 91.529C137.454 91.6069 137.281 91.6944 137.034 91.7913L136.755 91.9006C136.621 91.9522 136.515 92.0043 136.436 92.0567C136.294 92.1498 136.198 92.2612 136.147 92.391L137.632 92.5914L137.589 92.9143L135.722 92.6624ZM137.885 92.9538C137.929 92.7212 138.005 92.5239 138.113 92.3618C138.22 92.1997 138.406 92.0642 138.669 91.9554L139.063 91.7938C139.239 91.7209 139.364 91.6553 139.439 91.5971C139.557 91.506 139.625 91.3927 139.644 91.2572C139.665 91.0989 139.634 90.9669 139.552 90.861C139.47 90.7551 139.349 90.6915 139.191 90.6701C138.957 90.6385 138.783 90.7053 138.669 90.8704C138.608 90.9589 138.564 91.087 138.536 91.2547L138.188 91.2078C138.224 90.9716 138.294 90.7844 138.397 90.6462C138.581 90.4029 138.86 90.3065 139.235 90.357C139.547 90.3991 139.763 90.514 139.884 90.7018C140.005 90.8895 140.051 91.0866 140.024 91.293C139.994 91.5108 139.892 91.6866 139.718 91.8204C139.618 91.8983 139.444 91.9858 139.198 92.0827L138.918 92.192C138.785 92.2436 138.678 92.2957 138.599 92.3481C138.458 92.4412 138.361 92.5526 138.31 92.6824L139.796 92.8828L139.752 93.2057L137.885 92.9538Z" fill="#5A6389"/>
<path fill-rule="evenodd" clip-rule="evenodd" d="M145.538 92.6623C145.582 92.4298 145.658 92.2324 145.766 92.0703C145.873 91.9082 146.059 91.7727 146.322 91.6639L146.716 91.5022C146.892 91.4293 147.017 91.3637 147.092 91.3055C147.21 91.2144 147.278 91.1011 147.297 90.9656C147.318 90.8074 147.287 90.6753 147.205 90.5694C147.123 90.4636 147.002 90.3999 146.844 90.3786C146.61 90.347 146.436 90.4138 146.322 90.5789C146.261 90.6674 146.217 90.7955 146.189 90.9632L145.841 90.9164C145.877 90.6801 145.947 90.4929 146.05 90.3548C146.234 90.1114 146.513 90.015 146.888 90.0655C147.2 90.1075 147.416 90.2224 147.537 90.4102C147.658 90.5979 147.704 90.795 147.677 91.0014C147.647 91.2192 147.545 91.395 147.371 91.5288C147.271 91.6067 147.097 91.6942 146.851 91.7912L146.571 91.9004C146.438 91.9521 146.331 92.0041 146.252 92.0566C146.111 92.1497 146.014 92.2611 145.963 92.3909L147.448 92.5912L147.405 92.914L145.538 92.6623ZM149.313 91.7018C149.313 91.7018 149.313 91.7018 149.313 91.7018C149.314 91.7023 149.315 91.7029 149.316 91.7034L149.313 91.7018ZM149.317 91.7028C149.453 91.7614 149.554 91.8516 149.618 91.9735C149.684 92.0963 149.705 92.2388 149.683 92.4009C149.648 92.6605 149.534 92.8604 149.341 93.0007C149.148 93.141 148.895 93.1899 148.581 93.1476C148.259 93.1042 148.038 92.9845 147.917 92.7883C147.796 92.5921 147.752 92.3674 147.786 92.1142L148.143 92.1623C148.135 92.3404 148.151 92.4727 148.19 92.5593C148.26 92.7143 148.41 92.8074 148.642 92.8387C148.822 92.8629 148.973 92.8343 149.094 92.7527C149.216 92.6712 149.288 92.5544 149.308 92.4025C149.333 92.2151 149.294 92.0763 149.189 91.9862C149.085 91.896 148.931 91.8372 148.727 91.8097C148.704 91.8066 148.681 91.8038 148.657 91.8013C148.634 91.7988 148.61 91.7965 148.586 91.7946L148.626 91.4926C148.661 91.5012 148.691 91.5077 148.715 91.5122C148.738 91.5167 148.764 91.5209 148.792 91.5246C148.92 91.5419 149.028 91.5358 149.116 91.5064C149.27 91.4549 149.359 91.338 149.383 91.1557C149.402 91.0202 149.368 90.9093 149.281 90.8229C149.195 90.7364 149.088 90.6846 148.96 90.6674C148.732 90.6366 148.564 90.6914 148.456 90.8315C148.397 90.9086 148.354 91.0239 148.327 91.1776L147.989 91.132C148.016 90.9294 148.08 90.7627 148.18 90.6318C148.353 90.3973 148.615 90.3037 148.966 90.351C149.243 90.3884 149.45 90.4791 149.585 90.623C149.72 90.767 149.772 90.9561 149.74 91.1903C149.718 91.3574 149.655 91.4868 149.551 91.5785C149.486 91.6356 149.407 91.6765 149.314 91.7013L149.317 91.7028Z" fill="#5A6389"/>
<path fill-rule="evenodd" clip-rule="evenodd" d="M154.366 92.6594C154.41 92.4268 154.486 92.2295 154.594 92.0674C154.702 91.9053 154.887 91.7698 155.151 91.661L155.544 91.4993C155.72 91.4264 155.845 91.3608 155.92 91.3026C156.038 91.2115 156.106 91.0982 156.125 90.9627C156.146 90.8045 156.116 90.6724 156.033 90.5665C155.951 90.4607 155.83 90.397 155.672 90.3757C155.438 90.3441 155.264 90.4109 155.15 90.576C155.089 90.6645 155.045 90.7926 155.017 90.9603L154.669 90.9134C154.705 90.6772 154.775 90.49 154.879 90.3518C155.062 90.1085 155.341 90.012 155.716 90.0626C156.028 90.1046 156.244 90.2195 156.365 90.4073C156.486 90.595 156.533 90.7921 156.505 90.9985C156.475 91.2163 156.374 91.3921 156.2 91.5259C156.099 91.6038 155.925 91.6913 155.679 91.7883L155.399 91.8975C155.266 91.9492 155.159 92.0012 155.08 92.0537C154.939 92.1468 154.842 92.2582 154.791 92.388L156.277 92.5883L156.233 92.9112L154.366 92.6594ZM157.824 92.145L157.99 90.9124L156.952 92.0274L157.824 92.145ZM157.698 93.1082L157.788 92.4435L156.595 92.2826L156.64 91.9484L158.12 90.3881L158.408 90.427L158.17 92.1914L158.571 92.2454L158.531 92.5436L158.13 92.4896L158.04 93.1543L157.698 93.1082Z" fill="#5A6389"/>
<path fill-rule="evenodd" clip-rule="evenodd" d="M164.183 92.6623C164.227 92.4298 164.303 92.2325 164.41 92.0704C164.518 91.9083 164.704 91.7728 164.967 91.6639L165.36 91.5023C165.536 91.4294 165.662 91.3638 165.737 91.3056C165.855 91.2145 165.923 91.1012 165.941 90.9657C165.962 90.8074 165.932 90.6754 165.85 90.5695C165.767 90.4636 165.647 90.4 165.489 90.3787C165.254 90.3471 165.08 90.4138 164.966 90.579C164.906 90.6675 164.861 90.7955 164.833 90.9633L164.486 90.9164C164.522 90.6801 164.591 90.4929 164.695 90.3548C164.879 90.1114 165.158 90.015 165.533 90.0656C165.844 90.1076 166.06 90.2225 166.181 90.4103C166.302 90.598 166.349 90.7951 166.321 91.0015C166.292 91.2193 166.19 91.3951 166.016 91.5289C165.915 91.6068 165.742 91.6943 165.495 91.7913L165.216 91.9005C165.082 91.9521 164.976 92.0042 164.897 92.0567C164.755 92.1497 164.659 92.2612 164.608 92.3909L166.093 92.5913L166.05 92.9142L164.183 92.6623ZM166.797 92.3086C166.794 92.5066 166.866 92.6537 167.014 92.7498C167.09 92.7987 167.181 92.8303 167.288 92.8446C167.49 92.872 167.649 92.8276 167.764 92.7116C167.879 92.5956 167.947 92.4591 167.968 92.3021C167.994 92.1122 167.955 91.9575 167.854 91.8381C167.752 91.7186 167.62 91.648 167.458 91.6261C167.34 91.6102 167.236 91.6194 167.146 91.6536C167.055 91.6878 166.975 91.7414 166.904 91.8145L166.61 91.7574L167.015 90.321L168.428 90.5116L168.383 90.8421L167.227 90.6861L167.009 91.4263C167.079 91.3868 167.144 91.3588 167.204 91.3424C167.311 91.3143 167.431 91.3092 167.564 91.3271C167.813 91.3608 168.014 91.4697 168.166 91.6539C168.317 91.8381 168.377 92.0537 168.343 92.3006C168.309 92.5576 168.199 92.7735 168.013 92.9483C167.828 93.1232 167.561 93.1871 167.213 93.1401C166.991 93.1102 166.804 93.0214 166.65 92.8737C166.497 92.7261 166.427 92.5217 166.442 92.2607L166.797 92.3086Z" fill="#5A6389"/>
<path fill-rule="evenodd" clip-rule="evenodd" d="M173.995 92.6636C174.039 92.431 174.115 92.2337 174.223 92.0716C174.33 91.9095 174.516 91.774 174.779 91.6652L175.172 91.5036C175.349 91.4306 175.474 91.365 175.549 91.3068C175.667 91.2157 175.735 91.1025 175.753 90.967C175.775 90.8087 175.744 90.6766 175.662 90.5708C175.579 90.4649 175.459 90.4013 175.301 90.3799C175.067 90.3483 174.892 90.4151 174.779 90.5802C174.718 90.6687 174.673 90.7968 174.646 90.9645L174.298 90.9176C174.334 90.6814 174.404 90.4942 174.507 90.356C174.691 90.1127 174.97 90.0163 175.345 90.0668C175.656 90.1088 175.873 90.2237 175.994 90.4115C176.115 90.5993 176.161 90.7964 176.133 91.0028C176.104 91.2205 176.002 91.3963 175.828 91.5301C175.727 91.6081 175.554 91.6955 175.307 91.7925L175.028 91.9018C174.894 91.9534 174.788 92.0054 174.709 92.0579C174.567 92.151 174.471 92.2624 174.42 92.3922L175.905 92.5925L175.862 92.9154L173.995 92.6636ZM177.543 90.3611C177.847 90.402 178.048 90.5094 178.146 90.6832C178.245 90.857 178.283 91.0274 178.26 91.1946L177.922 91.149C177.916 91.0386 177.895 90.9501 177.859 90.8833C177.792 90.7582 177.675 90.6844 177.508 90.6619C177.317 90.6361 177.153 90.7039 177.017 90.8654C176.88 91.0268 176.783 91.2713 176.726 91.5988C176.82 91.4941 176.931 91.4213 177.057 91.3804C177.173 91.3445 177.298 91.3355 177.432 91.3536C177.66 91.3844 177.849 91.484 177.999 91.6525C178.149 91.821 178.205 92.0496 178.166 92.3383C178.133 92.5852 178.023 92.793 177.836 92.9619C177.65 93.1308 177.408 93.1951 177.11 93.155C176.855 93.1207 176.649 92.9945 176.49 92.7765C176.331 92.5585 176.283 92.2209 176.344 91.7638C176.39 91.4257 176.47 91.1445 176.584 90.9201C176.803 90.4907 177.123 90.3044 177.543 90.3611ZM177.18 92.8548C177.36 92.879 177.503 92.8367 177.608 92.7278C177.714 92.619 177.778 92.4822 177.8 92.3176C177.819 92.1783 177.797 92.0403 177.734 91.9036C177.671 91.7668 177.535 91.6843 177.325 91.6559C177.178 91.6361 177.042 91.6675 176.918 91.75C176.794 91.8326 176.719 91.972 176.693 92.1682C176.67 92.3404 176.7 92.4919 176.785 92.6226C176.87 92.7533 177.002 92.8307 177.18 92.8548Z" fill="#5A6389"/>
<path fill-rule="evenodd" clip-rule="evenodd" d="M117.077 100.51C117.122 100.277 117.197 100.08 117.305 99.9176C117.413 99.7555 117.598 99.62 117.862 99.5112L118.255 99.3496C118.431 99.2766 118.556 99.2111 118.631 99.1528C118.749 99.0618 118.817 98.9485 118.836 98.813C118.857 98.6547 118.827 98.5226 118.744 98.4168C118.662 98.3109 118.541 98.2473 118.383 98.2259C118.149 98.1943 117.975 98.2611 117.861 98.4262C117.8 98.5147 117.756 98.6428 117.728 98.8105L117.38 98.7636C117.416 98.5273 117.486 98.3401 117.59 98.202C117.773 97.9586 118.052 97.8622 118.427 97.9128C118.739 97.9548 118.955 98.0697 119.076 98.2575C119.197 98.4453 119.244 98.6424 119.216 98.8488C119.186 99.0666 119.085 99.2424 118.911 99.3762C118.81 99.4541 118.636 99.5416 118.39 99.6385L118.11 99.7478C117.977 99.7994 117.871 99.8514 117.791 99.9039C117.65 99.997 117.554 100.108 117.503 100.238L118.988 100.439L118.944 100.761L117.077 100.51ZM121.514 98.3842L121.474 98.6824C121.375 98.7555 121.239 98.8873 121.066 99.0779C120.893 99.2685 120.734 99.4779 120.59 99.706C120.448 99.9279 120.335 100.132 120.252 100.32C120.198 100.44 120.123 100.636 120.028 100.906L119.65 100.855C119.806 100.348 120.065 99.8569 120.428 99.3825C120.642 99.1046 120.86 98.869 121.081 98.6757L119.576 98.4727L119.623 98.129L121.514 98.3842Z" fill="#5A6389"/>
<path fill-rule="evenodd" clip-rule="evenodd" d="M125.913 100.512C125.957 100.279 126.033 100.082 126.141 99.9199C126.248 99.7578 126.434 99.6224 126.697 99.5135L127.091 99.3519C127.267 99.2789 127.392 99.2134 127.467 99.1551C127.585 99.064 127.653 98.9508 127.672 98.8153C127.693 98.657 127.662 98.5249 127.58 98.4191C127.498 98.3132 127.377 98.2496 127.219 98.2282C126.985 98.1966 126.811 98.2634 126.697 98.4286C126.636 98.517 126.592 98.6451 126.564 98.8128L126.216 98.766C126.252 98.5297 126.322 98.3425 126.425 98.2044C126.609 97.961 126.888 97.8646 127.263 97.9151C127.575 97.9571 127.791 98.072 127.912 98.2598C128.033 98.4476 128.079 98.6447 128.052 98.8511C128.022 99.0688 127.92 99.2446 127.746 99.3784C127.646 99.4564 127.472 99.5438 127.226 99.6408L126.946 99.7501C126.813 99.8017 126.706 99.8538 126.627 99.9062C126.486 99.9993 126.389 100.111 126.338 100.241L127.824 100.441L127.78 100.764L125.913 100.512ZM129.226 99.35C129.376 99.3703 129.5 99.3441 129.596 99.2713C129.692 99.1986 129.748 99.104 129.764 98.9875C129.778 98.8862 129.75 98.7877 129.68 98.6919C129.611 98.5961 129.493 98.5371 129.327 98.5147C129.162 98.4925 129.038 98.5189 128.953 98.5938C128.868 98.6687 128.818 98.7632 128.802 98.8771C128.785 99.005 128.819 99.1115 128.904 99.1964C128.989 99.2814 129.097 99.3326 129.226 99.35ZM129.065 100.699C129.224 100.721 129.361 100.696 129.477 100.624C129.593 100.553 129.662 100.432 129.685 100.263C129.709 100.087 129.673 99.9459 129.578 99.8402C129.482 99.7345 129.351 99.6704 129.182 99.6476C129.019 99.6256 128.879 99.6542 128.764 99.7333C128.648 99.8125 128.579 99.9343 128.557 100.099C128.538 100.241 128.568 100.37 128.649 100.486C128.729 100.601 128.868 100.673 129.065 100.699ZM128.743 99.4185C128.653 99.3652 128.586 99.3077 128.54 99.2461C128.454 99.1313 128.421 98.9929 128.443 98.8308C128.471 98.6282 128.567 98.464 128.734 98.3382C128.9 98.2124 129.119 98.1677 129.388 98.2041C129.649 98.2393 129.844 98.3355 129.974 98.4929C130.104 98.6502 130.156 98.8207 130.131 99.0043C130.108 99.174 130.047 99.3055 129.946 99.399C129.89 99.452 129.808 99.5002 129.699 99.5435C129.804 99.6106 129.885 99.6821 129.941 99.7579C130.044 99.9008 130.082 100.073 130.054 100.276C130.022 100.515 129.914 100.707 129.731 100.852C129.548 100.997 129.309 101.05 129.015 101.01C128.751 100.974 128.537 100.872 128.373 100.704C128.21 100.536 128.146 100.315 128.183 100.041C128.205 99.8803 128.263 99.7466 128.357 99.6401C128.451 99.5336 128.58 99.4597 128.743 99.4185Z" fill="#5A6389"/>
<path fill-rule="evenodd" clip-rule="evenodd" d="M135.725 100.514C135.77 100.281 135.846 100.084 135.953 99.9219C136.061 99.7598 136.246 99.6243 136.51 99.5154L136.903 99.3538C137.079 99.2809 137.205 99.2153 137.28 99.1571C137.398 99.066 137.466 98.9527 137.484 98.8172C137.505 98.6589 137.475 98.5269 137.392 98.421C137.31 98.3151 137.19 98.2515 137.031 98.2302C136.797 98.1986 136.623 98.2654 136.509 98.4305C136.448 98.519 136.404 98.6471 136.376 98.8148L136.029 98.7679C136.064 98.5317 136.134 98.3445 136.238 98.2063C136.422 97.9629 136.701 97.8665 137.076 97.9171C137.387 97.9591 137.603 98.074 137.724 98.2617C137.845 98.4495 137.892 98.6466 137.864 98.853C137.835 99.0708 137.733 99.2465 137.559 99.3804C137.458 99.4583 137.285 99.5458 137.038 99.6427L136.758 99.752C136.625 99.8036 136.519 99.8557 136.44 99.9082C136.298 100.001 136.202 100.113 136.151 100.242L137.636 100.443L137.592 100.766L135.725 100.514ZM138.372 100.202C138.357 100.392 138.412 100.532 138.538 100.622C138.602 100.67 138.678 100.699 138.766 100.711C138.929 100.733 139.077 100.684 139.211 100.563C139.345 100.443 139.464 100.177 139.568 99.7674C139.476 99.8774 139.37 99.9493 139.252 99.9829C139.133 100.017 139.009 100.025 138.88 100.007C138.618 99.9719 138.422 99.8622 138.291 99.6783C138.161 99.4944 138.113 99.274 138.147 99.0169C138.181 98.77 138.285 98.563 138.461 98.396C138.637 98.2289 138.872 98.1652 139.166 98.2048C139.562 98.2582 139.811 98.4736 139.914 98.851C139.971 99.0585 139.98 99.3098 139.94 99.6048C139.895 99.9378 139.805 100.226 139.67 100.47C139.447 100.875 139.137 101.051 138.741 100.998C138.475 100.962 138.282 100.865 138.163 100.707C138.044 100.549 137.998 100.365 138.027 100.155L138.372 100.202ZM138.966 99.7133C139.101 99.7316 139.231 99.7036 139.355 99.6295C139.479 99.5553 139.557 99.4068 139.587 99.184C139.614 98.9839 139.583 98.828 139.496 98.7163C139.409 98.6046 139.287 98.5383 139.131 98.5173C138.964 98.4947 138.824 98.5329 138.711 98.6317C138.597 98.7305 138.528 98.8736 138.503 99.061C138.479 99.2383 138.503 99.385 138.575 99.501C138.647 99.6171 138.777 99.6879 138.966 99.7133Z" fill="#5A6389"/>
<path fill-rule="evenodd" clip-rule="evenodd" d="M147.18 99.256C147.18 99.256 147.18 99.256 147.18 99.256C147.181 99.2566 147.182 99.2571 147.183 99.2576L147.18 99.256ZM147.182 99.2578C147.318 99.3164 147.419 99.4066 147.483 99.5285C147.549 99.6514 147.57 99.7939 147.549 99.9559C147.514 100.215 147.4 100.415 147.207 100.556C147.014 100.696 146.76 100.745 146.446 100.703C146.125 100.659 145.903 100.539 145.782 100.343C145.661 100.147 145.617 99.9223 145.652 99.6691L146.009 99.7172C146 99.8953 146.016 100.028 146.056 100.114C146.125 100.269 146.275 100.362 146.507 100.394C146.687 100.418 146.838 100.389 146.96 100.308C147.082 100.226 147.153 100.109 147.173 99.9575C147.199 99.7701 147.159 99.6313 147.054 99.5412C146.95 99.451 146.796 99.3922 146.592 99.3647C146.569 99.3616 146.546 99.3588 146.522 99.3563C146.499 99.3538 146.475 99.3515 146.451 99.3495L146.492 99.0475C146.526 99.0561 146.556 99.0627 146.58 99.0672C146.604 99.0717 146.63 99.0758 146.657 99.0796C146.785 99.0968 146.893 99.0907 146.981 99.0613C147.135 99.0099 147.224 98.893 147.249 98.7107C147.267 98.5752 147.233 98.4643 147.147 98.3778C147.06 98.2914 146.953 98.2396 146.825 98.2223C146.597 98.1916 146.429 98.2463 146.322 98.3865C146.262 98.4635 146.219 98.5789 146.192 98.7325L145.854 98.6869C145.881 98.4843 145.945 98.3176 146.045 98.1867C146.218 97.9522 146.48 97.8587 146.831 97.906C147.108 97.9434 147.315 98.0341 147.45 98.178C147.585 98.322 147.637 98.5111 147.606 98.7453C147.583 98.9124 147.52 99.0419 147.416 99.1336C147.351 99.1906 147.272 99.2315 147.179 99.2563L147.182 99.2578ZM149.028 98.2066C149.38 98.2541 149.615 98.4334 149.733 98.7445C149.824 98.985 149.843 99.3002 149.791 99.6902C149.741 100.06 149.645 100.358 149.502 100.585C149.295 100.911 149.011 101.049 148.649 101C148.322 100.956 148.098 100.781 147.977 100.476C147.876 100.222 147.852 99.8948 147.906 99.496C147.948 99.1871 148.024 98.9272 148.133 98.7164C148.338 98.3237 148.637 98.1538 149.028 98.2066ZM148.69 100.688C148.867 100.712 149.019 100.652 149.145 100.51C149.272 100.367 149.364 100.081 149.421 99.6535C149.463 99.3445 149.459 99.0852 149.41 98.8755C149.361 98.6659 149.227 98.5463 149.008 98.5167C148.807 98.4896 148.647 98.5644 148.528 98.7411C148.41 98.9179 148.325 99.1905 148.276 99.5589C148.238 99.8362 148.238 100.063 148.275 100.239C148.331 100.509 148.47 100.658 148.69 100.688Z" fill="#5A6389"/>
<path fill-rule="evenodd" clip-rule="evenodd" d="M123.431 59.6837C123.418 59.8432 123.438 59.9768 123.491 60.0844C123.591 60.2862 123.8 60.4084 124.116 60.4511C124.258 60.4702 124.39 60.4674 124.512 60.4426C124.748 60.3945 124.879 60.2691 124.907 60.0666C124.927 59.9146 124.894 59.8 124.808 59.7226C124.72 59.6463 124.577 59.5709 124.378 59.4964L124.012 59.3599C123.773 59.2709 123.606 59.1859 123.513 59.105C123.351 58.9646 123.286 58.7785 123.317 58.5468C123.351 58.2961 123.466 58.1021 123.661 57.9647C123.856 57.8272 124.112 57.78 124.43 57.8229C124.723 57.8623 124.962 57.9664 125.147 58.1352C125.332 58.3039 125.404 58.5434 125.362 58.8536L125.007 58.8057C125.008 58.6538 124.983 58.5337 124.932 58.4456C124.836 58.2844 124.651 58.1852 124.375 58.148C124.152 58.1179 123.985 58.1432 123.875 58.2237C123.765 58.3043 123.702 58.4066 123.685 58.5307C123.666 58.6674 123.71 58.7751 123.815 58.8538C123.885 58.9044 124.047 58.9778 124.302 59.0741L124.681 59.2162C124.864 59.2847 125.002 59.3632 125.094 59.4517C125.254 59.6061 125.317 59.8073 125.283 60.0555C125.242 60.3644 125.1 60.5702 124.857 60.6728C124.614 60.7755 124.344 60.8067 124.047 60.7666C123.7 60.7198 123.44 60.5945 123.268 60.3908C123.095 60.1883 123.031 59.9367 123.076 59.6358L123.431 59.6837Z" fill="#4F44D0"/>
<path fill-rule="evenodd" clip-rule="evenodd" d="M132.574 57.645L133.116 57.718L133.599 60.185L134.713 57.9335L135.248 58.0057L134.872 60.7957L134.513 60.7473L134.735 59.1007C134.743 59.0437 134.757 58.9495 134.777 58.8182C134.797 58.6869 134.818 58.5459 134.838 58.3952L133.725 60.641L133.351 60.5905L132.867 58.1292L132.855 58.2147C132.846 58.2831 132.833 58.3874 132.818 58.5278C132.802 58.6681 132.79 58.7712 132.781 58.837L132.559 60.4837L132.198 60.435L132.574 57.645Z" fill="#4F44D0"/>
<path fill-rule="evenodd" clip-rule="evenodd" d="M144.651 57.9778L144.606 58.3101L143.666 58.1833L143.334 60.6409L142.95 60.5892L143.282 58.1316L142.342 58.0047L142.387 57.6724L144.651 57.9778Z" fill="#4F44D0"/>
<path fill-rule="evenodd" clip-rule="evenodd" d="M151.629 57.6413L151.849 59.9818L152.786 57.7973L153.196 57.8526L153.52 60.2073L154.353 58.0087L154.767 58.0645L153.657 60.7556L153.26 60.7021L152.928 58.3019L151.969 60.5279L151.572 60.4743L151.219 57.5859L151.629 57.6413Z" fill="#4F44D0"/>
<path fill-rule="evenodd" clip-rule="evenodd" d="M163.295 57.9778L163.25 58.3101L162.31 58.1833L161.979 60.6409L161.595 60.5892L161.927 58.1316L160.986 58.0047L161.031 57.6724L163.295 57.9778Z" fill="#4F44D0"/>
<path fill-rule="evenodd" clip-rule="evenodd" d="M169.859 57.6948L171.795 57.9559L171.749 58.2978L170.191 58.0877L170.077 58.9347L171.446 59.1195L171.401 59.4518L170.032 59.2671L169.861 60.5358L169.483 60.4848L169.859 57.6948Z" fill="#4F44D0"/>
<path fill-rule="evenodd" clip-rule="evenodd" d="M178.802 59.6837C178.789 59.8432 178.809 59.9768 178.862 60.0844C178.962 60.2862 179.171 60.4084 179.487 60.4511C179.629 60.4702 179.761 60.4674 179.883 60.4426C180.119 60.3945 180.251 60.2691 180.278 60.0666C180.298 59.9146 180.265 59.8 180.179 59.7226C180.092 59.6463 179.948 59.5709 179.75 59.4964L179.383 59.3599C179.144 59.2709 178.977 59.1859 178.884 59.105C178.722 58.9646 178.657 58.7785 178.688 58.5468C178.722 58.2961 178.837 58.1021 179.032 57.9647C179.227 57.8272 179.483 57.78 179.801 57.8229C180.094 57.8623 180.333 57.9664 180.518 58.1352C180.704 58.3039 180.775 58.5434 180.733 58.8536L180.378 58.8057C180.38 58.6538 180.354 58.5337 180.303 58.4456C180.208 58.2844 180.022 58.1852 179.746 58.148C179.523 58.1179 179.356 58.1432 179.246 58.2237C179.136 58.3043 179.073 58.4066 179.056 58.5307C179.038 58.6674 179.081 58.7751 179.186 58.8538C179.256 58.9044 179.418 58.9778 179.673 59.0741L180.052 59.2162C180.235 59.2847 180.373 59.3632 180.465 59.4517C180.625 59.6061 180.688 59.8073 180.655 60.0555C180.613 60.3644 180.471 60.5702 180.228 60.6728C179.985 60.7755 179.715 60.8067 179.418 60.7666C179.071 60.7198 178.811 60.5945 178.639 60.3908C178.466 60.1883 178.402 59.9367 178.447 59.6358L178.802 59.6837Z" fill="#4F44D0"/>
<path fill-rule="evenodd" clip-rule="evenodd" d="M156.79 41.1292C156.649 40.9045 156.453 40.7172 156.202 40.5672C155.952 40.4173 155.705 40.3294 155.46 40.3037C155.334 40.2905 155.205 40.2881 155.073 40.2967C154.941 40.3054 154.82 40.3357 154.709 40.3878C154.599 40.4399 154.503 40.5123 154.422 40.6049C154.341 40.6976 154.293 40.8218 154.276 40.9774C154.262 41.1108 154.279 41.225 154.325 41.3197C154.371 41.4145 154.444 41.5009 154.545 41.5789C154.645 41.6569 154.767 41.7315 154.909 41.8027C155.052 41.8739 155.212 41.9489 155.391 42.0276C155.649 42.1446 155.916 42.2721 156.194 42.4099C156.472 42.5478 156.72 42.7181 156.939 42.9209C157.157 43.1238 157.33 43.3649 157.458 43.6444C157.586 43.9239 157.63 44.2601 157.588 44.653C157.541 45.1051 157.416 45.4873 157.215 45.7997C157.014 46.112 156.761 46.3608 156.456 46.5462C156.152 46.7315 155.813 46.857 155.439 46.9226C155.065 46.9882 154.685 47.0007 154.3 46.9602C153.736 46.901 153.202 46.7455 152.696 46.4938C152.191 46.2421 151.783 45.9163 151.472 45.5165L152.851 44.3798C153.019 44.6373 153.252 44.8622 153.55 45.0547C153.848 45.2472 154.153 45.3598 154.464 45.3925C154.605 45.4073 154.744 45.4069 154.88 45.3913C155.017 45.3757 155.139 45.3397 155.246 45.2836C155.353 45.2274 155.442 45.1468 155.513 45.0418C155.584 44.9369 155.628 44.8066 155.644 44.6509C155.66 44.5027 155.636 44.3728 155.573 44.2612C155.509 44.1496 155.414 44.044 155.285 43.9444C155.157 43.8447 154.995 43.749 154.799 43.6571C154.602 43.5653 154.378 43.465 154.128 43.3562C153.884 43.2481 153.648 43.1259 153.419 42.9894C153.189 42.8529 152.989 42.6876 152.819 42.4935C152.648 42.2995 152.518 42.0723 152.429 41.8119C152.341 41.5515 152.315 41.2434 152.352 40.8876C152.398 40.4503 152.527 40.0853 152.737 39.7927C152.948 39.5001 153.208 39.2689 153.518 39.0991C153.828 38.9294 154.17 38.8173 154.543 38.7628C154.916 38.7083 155.288 38.7006 155.658 38.7395C156.103 38.7863 156.548 38.9155 156.995 39.1273C157.441 39.339 157.821 39.6226 158.136 39.9779L156.79 41.1292Z" fill="white"/>
<path fill-rule="evenodd" clip-rule="evenodd" d="M161.102 46.6658L161.93 38.7939L163.842 38.9949L163.015 46.8668L161.102 46.6658Z" fill="white"/>
<path fill-rule="evenodd" clip-rule="evenodd" d="M173.318 42.7669C173.522 42.4698 173.648 42.0914 173.696 41.6319C173.744 41.1797 173.704 40.7915 173.577 40.4671C173.45 40.1427 173.257 39.8715 172.999 39.6532C172.741 39.435 172.43 39.2636 172.064 39.139C171.699 39.0144 171.301 38.9296 170.871 38.8844L167.98 38.5806L167.153 46.4524L169.054 46.6522L169.366 43.6836L170.311 43.7829C170.719 43.8258 171.117 43.8226 171.504 43.7734C171.891 43.7241 172.24 43.6184 172.549 43.456C172.858 43.2937 173.115 43.064 173.318 42.7669ZM171.73 40.9764C171.792 41.1028 171.813 41.2587 171.794 41.444C171.774 41.6293 171.721 41.7792 171.634 41.8937C171.547 42.0082 171.435 42.0957 171.297 42.1562C171.16 42.2167 171.008 42.2532 170.842 42.2657C170.675 42.2782 170.503 42.2751 170.325 42.2564L169.525 42.1723L169.72 40.3155L170.554 40.4031C170.725 40.4211 170.888 40.4495 171.045 40.4885C171.202 40.5275 171.34 40.587 171.459 40.6669C171.578 40.7469 171.669 40.85 171.73 40.9764Z" fill="white"/>
<path d="M129.633 26.8182C131.682 26.8182 133.35 28.4863 133.35 30.5347H134.718C134.718 27.7323 132.436 25.457 129.64 25.457C126.838 25.457 124.562 27.739 124.562 30.5347C124.562 33.337 126.844 35.6123 129.64 35.6123C130.02 35.6123 130.321 35.3054 130.321 34.9317C130.321 34.5514 130.014 34.2512 129.64 34.2512C127.592 34.2512 125.924 32.5831 125.924 30.5347C125.924 28.4863 127.585 26.8182 129.633 26.8182Z" fill="#C6C2F9"/>
<path d="M141.712 26.8182C143.76 26.8182 145.428 28.4863 145.428 30.5347H146.796C146.796 27.7323 144.514 25.457 141.718 25.457C138.916 25.457 136.641 27.739 136.641 30.5347C136.641 33.337 138.923 35.6123 141.718 35.6123C142.099 35.6123 142.399 35.3054 142.399 34.9317C142.399 34.5514 142.092 34.2512 141.718 34.2512C139.67 34.2512 138.002 32.5831 138.002 30.5347C137.995 28.4863 139.663 26.8182 141.712 26.8182Z" fill="#C6C2F9"/>
<path d="M153.782 26.8182C155.83 26.8182 157.498 28.4863 157.498 30.5347H158.866C158.866 27.7323 156.584 25.457 153.789 25.457C150.986 25.457 148.711 27.739 148.711 30.5347C148.711 33.337 150.993 35.6123 153.789 35.6123C154.169 35.6123 154.469 35.3054 154.469 34.9317C154.469 34.5514 154.162 34.2512 153.789 34.2512C151.74 34.2512 150.072 32.5831 150.072 30.5347C150.065 28.4863 151.733 26.8182 153.782 26.8182Z" fill="#C6C2F9"/>
<path d="M165.86 26.8182C167.908 26.8182 169.577 28.4863 169.577 30.5347H170.944C170.944 27.7323 168.662 25.457 165.867 25.457C163.064 25.457 160.789 27.739 160.789 30.5347C160.789 33.337 163.071 35.6123 165.867 35.6123C166.247 35.6123 166.547 35.3054 166.547 34.9317C166.547 34.5514 166.24 34.2512 165.867 34.2512C163.818 34.2512 162.15 32.5831 162.15 30.5347C162.144 28.4863 163.812 26.8182 165.86 26.8182Z" fill="#C6C2F9"/>
<path d="M177.926 26.8182C179.975 26.8182 181.643 28.4863 181.643 30.5347H183.011C183.011 27.7323 180.729 25.457 177.933 25.457C175.131 25.457 172.855 27.739 172.855 30.5347C172.855 33.337 175.137 35.6123 177.933 35.6123C178.313 35.6123 178.614 35.3054 178.614 34.9317C178.614 34.5514 178.307 34.2512 177.933 34.2512C175.885 34.2512 174.217 32.5831 174.217 30.5347C174.21 28.4863 175.878 26.8182 177.926 26.8182Z" fill="#C6C2F9"/>
<path d="M190.005 26.8182C192.053 26.8182 193.721 28.4863 193.721 30.5347H195.089C195.089 27.7323 192.807 25.457 190.011 25.457C187.209 25.457 184.934 27.739 184.934 30.5347C184.934 33.337 187.216 35.6123 190.011 35.6123C190.392 35.6123 190.692 35.3054 190.692 34.9317C190.692 34.5514 190.385 34.2512 190.011 34.2512C187.963 34.2512 186.295 32.5831 186.295 30.5347C186.288 28.4863 187.956 26.8182 190.005 26.8182Z" fill="#C6C2F9"/>
<path d="M202.075 26.8182C204.123 26.8182 205.791 28.4863 205.791 30.5347H207.159C207.159 27.7323 204.877 25.457 202.082 25.457C199.279 25.457 197.004 27.739 197.004 30.5347C197.004 33.337 199.286 35.6123 202.082 35.6123C202.462 35.6123 202.762 35.3054 202.762 34.9317C202.762 34.5514 202.455 34.2512 202.082 34.2512C200.033 34.2512 198.365 32.5831 198.365 30.5347C198.358 28.4863 200.026 26.8182 202.075 26.8182Z" fill="#C6C2F9"/>
<path fill-rule="evenodd" clip-rule="evenodd" d="M206.583 81.3605C206.568 81.6699 206.439 81.9312 206.19 82.1114L205.422 82.7239C204.501 83.4655 204.121 84.691 204.558 85.7726L204.891 86.668C205.011 86.9534 204.962 87.2688 204.832 87.5301C204.703 87.7914 204.455 87.9716 204.155 88.0586L203.18 88.2985C202.002 88.5743 201.157 89.5413 201.043 90.6858L200.934 91.6591C200.874 92.1127 200.524 92.515 200.049 92.599C199.913 92.6229 199.771 92.6139 199.629 92.6048L198.647 92.4031C198.284 92.3308 197.932 92.3247 197.558 92.3906C196.777 92.5284 196.053 92.9968 195.648 93.6815L195.131 94.5224C194.967 94.7897 194.719 94.9699 194.413 95.0238C194.107 95.0777 193.812 94.9935 193.573 94.8312L192.799 94.218C192.19 93.7461 191.384 93.5475 190.602 93.6853C190.228 93.7513 189.866 93.8833 189.555 94.1085L188.702 94.6338C188.571 94.6908 188.435 94.7148 188.3 94.7388C187.824 94.8227 187.363 94.5972 187.152 94.1915L186.717 93.3142C186.184 92.2835 185.059 91.6642 183.863 91.8409L182.906 91.9757C182.6 92.0296 182.305 91.9454 182.06 91.75C181.815 91.5546 181.695 91.2692 181.716 90.9928L181.723 90.0375C181.729 88.878 180.953 87.8562 179.8 87.4802L178.869 87.1674C178.573 87.0832 178.363 86.8818 178.242 86.5964C178.122 86.3109 178.137 86.0015 178.266 85.7402L178.704 84.8452C179.221 83.8 179 82.5442 178.123 81.7447L177.411 81.0865C177.2 80.8851 177.08 80.5997 177.095 80.2903C177.111 79.9809 177.24 79.7196 177.489 79.5394L178.257 78.9269C179.177 78.1853 179.557 76.9598 179.121 75.8782L178.748 74.9558C178.628 74.6703 178.677 74.3549 178.806 74.0936C178.969 73.8263 179.184 73.6522 179.484 73.5652L180.458 73.3253C181.636 73.0494 182.482 72.0825 182.596 70.938L182.705 69.9647C182.765 69.5111 183.114 69.1087 183.59 69.0248C183.726 69.0008 183.868 69.0099 184.01 69.019L184.992 69.2207C185.355 69.2929 185.706 69.2991 186.08 69.2332C186.862 69.0953 187.586 68.627 187.991 67.9422L188.508 67.1013C188.671 66.834 188.92 66.6539 189.226 66.5999C189.532 66.546 189.827 66.6302 190.066 66.7926L190.84 67.4057C191.449 67.8776 192.255 68.0763 193.037 67.9384C193.411 67.8725 193.773 67.7405 194.084 67.5153L194.937 66.9899C195.039 66.972 195.175 66.948 195.311 66.924C195.787 66.8401 196.247 67.0656 196.459 67.4713L196.894 68.3486C197.426 69.3793 198.552 69.9986 199.747 69.8219L200.739 69.6811C201.045 69.6272 201.34 69.7114 201.585 69.9068C201.829 70.1022 201.95 70.3876 201.929 70.664L201.922 71.6193C201.916 72.7788 202.692 73.8006 203.845 74.1766L204.776 74.4894C205.071 74.5736 205.282 74.775 205.402 75.0604C205.523 75.3459 205.507 75.6553 205.378 75.9166L204.974 76.8056C204.457 77.8508 204.679 79.1066 205.556 79.9061L206.268 80.5643C206.484 80.7987 206.565 81.0571 206.583 81.3605Z" stroke="#33CF90"/>
<path d="M190.296 72.1159C185.503 72.961 182.29 77.5506 183.135 82.3432C183.98 87.1357 188.569 90.3494 193.362 89.5044C198.154 88.6593 201.368 84.0697 200.523 79.2771C199.678 74.4845 195.088 71.2708 190.296 72.1159Z" stroke="#33CF90"/>
<rect x="175.324" y="79.6455" width="32.1031" height="8.02577" transform="rotate(-10 175.324 79.6455)" fill="white"/>
<path fill-rule="evenodd" clip-rule="evenodd" d="M185.37 81.6648C185.444 82.0802 185.43 82.4521 185.329 82.7808C185.228 83.1094 185.068 83.3931 184.85 83.6319C184.632 83.8706 184.373 84.0637 184.072 84.2112C183.771 84.3587 183.457 84.4611 183.131 84.5186L181.363 84.8304L180.526 80.0875L182.241 79.7851C182.576 79.726 182.914 79.7069 183.254 79.7275C183.593 79.7482 183.906 79.8265 184.193 79.9625C184.479 80.0985 184.728 80.3046 184.937 80.5807C185.147 80.8568 185.292 81.2182 185.37 81.6648ZM184.177 81.8747C184.13 81.6068 184.047 81.3923 183.929 81.2312C183.811 81.0702 183.67 80.95 183.506 80.8706C183.343 80.7912 183.164 80.7456 182.971 80.7336C182.778 80.7216 182.583 80.733 182.386 80.7676L181.817 80.868L182.306 83.6415L182.849 83.5458C183.054 83.5095 183.248 83.4513 183.429 83.3709C183.611 83.2905 183.765 83.1839 183.891 83.0512C184.017 82.9184 184.108 82.755 184.164 82.561C184.219 82.367 184.224 82.1382 184.177 81.8747ZM192.187 80.4558C192.253 80.831 192.249 81.1852 192.174 81.5184C192.099 81.8516 191.966 82.1491 191.775 82.4107C191.584 82.6723 191.341 82.8914 191.045 83.0679C190.749 83.2444 190.416 83.3653 190.045 83.4306C189.674 83.496 189.321 83.4961 188.985 83.4311C188.649 83.366 188.346 83.2432 188.077 83.0627C187.808 82.8822 187.581 82.6481 187.397 82.3606C187.213 82.073 187.088 81.7417 187.022 81.3665C186.955 80.9869 186.959 80.6327 187.035 80.304C187.11 79.9752 187.244 79.6834 187.436 79.4284C187.628 79.1735 187.872 78.9602 188.166 78.7886C188.461 78.617 188.793 78.4985 189.164 78.4331C189.534 78.3678 189.889 78.3652 190.226 78.4254C190.564 78.4856 190.866 78.6026 191.134 78.7764C191.402 78.9502 191.628 79.1787 191.811 79.4618C191.995 79.7449 192.12 80.0762 192.187 80.4558ZM190.96 80.6721C190.924 80.4666 190.857 80.2805 190.758 80.1137C190.66 79.9468 190.54 79.8102 190.399 79.7038C190.259 79.5974 190.098 79.5221 189.917 79.478C189.737 79.4338 189.546 79.4294 189.345 79.4649C189.144 79.5003 188.968 79.5694 188.815 79.6723C188.663 79.7751 188.538 79.9008 188.44 80.0493C188.342 80.1979 188.276 80.3672 188.243 80.5572C188.209 80.7473 188.211 80.945 188.247 81.1505C188.285 81.3648 188.353 81.5566 188.452 81.7256C188.551 81.8947 188.671 82.0335 188.812 82.1422C188.954 82.2508 189.113 82.3274 189.291 82.372C189.47 82.4166 189.659 82.4211 189.86 82.3857C190.061 82.3502 190.238 82.2811 190.39 82.1783C190.542 82.0755 190.667 81.9487 190.765 81.7979C190.863 81.6471 190.929 81.4754 190.964 81.2827C190.999 81.09 190.998 80.8865 190.96 80.6721ZM197.496 81.9857L195.04 79.2206L195.02 79.2242L195.594 82.3211L194.482 82.5172L193.645 77.7742L194.952 77.5439L197.4 80.3034L197.42 80.2999L196.848 77.2096L197.96 77.0136L198.796 81.7565L197.496 81.9857ZM200.89 81.3869L200.053 76.6439L203.242 76.0817L203.413 77.053L201.33 77.4204L201.487 78.3114L203.457 77.9641L203.618 78.8819L201.649 79.2291L201.823 80.2139L204.027 79.8253L204.199 80.8034L200.89 81.3869Z" fill="#33CF90"/>
<path opacity="0.16" fill-rule="evenodd" clip-rule="evenodd" d="M124.481 111.704C132.546 111.704 136.225 111.975 139.083 109.346C141.942 106.718 140.293 103.178 136.997 102.015C133.701 100.852 116.137 99.9545 111.965 102.015C107.793 104.075 107.073 105.856 109.879 108.436C112.684 111.016 116.416 111.704 124.481 111.704Z" fill="#B39712"/>
<path opacity="0.16" fill-rule="evenodd" clip-rule="evenodd" d="M99.563 112.013C107.628 112.013 111.307 112.29 114.165 109.592C117.024 106.894 115.375 103.26 112.079 102.067C108.783 100.873 91.2188 99.9516 87.0467 102.067C82.8746 104.181 82.1549 106.009 84.9606 108.658C87.7663 111.306 91.4983 112.013 99.563 112.013Z" fill="#B39712"/>
<path fill-rule="evenodd" clip-rule="evenodd" d="M99.563 110.374C107.628 110.374 111.307 109.76 114.165 107.234C117.024 104.709 115.375 100.433 112.079 99.3158C108.783 98.1987 91.2188 97.3362 87.0467 99.3158C82.8746 101.295 82.1549 104.755 84.9606 107.234C87.7663 109.713 91.4983 110.374 99.563 110.374Z" fill="#FFBD00"/>
<path fill-rule="evenodd" clip-rule="evenodd" d="M99.459 105.565C107.186 105.565 113.449 103.607 113.449 101.193C113.449 98.7782 107.186 96.8208 99.459 96.8208C91.7324 96.8208 85.4688 98.7782 85.4688 101.193C85.4688 103.607 91.7324 105.565 99.459 105.565Z" fill="#FFF5D9"/>
<path fill-rule="evenodd" clip-rule="evenodd" d="M99.4557 105.127C106.699 105.127 112.572 103.366 112.572 101.193C112.572 99.0195 106.699 97.2578 99.4557 97.2578C92.212 97.2578 86.3398 99.0195 86.3398 101.193C86.3398 103.366 92.212 105.127 99.4557 105.127Z" fill="#FFF5D9"/>
<path fill-rule="evenodd" clip-rule="evenodd" d="M102.618 98.134L97.8476 98.3753L95.539 98.4921C95.2814 98.5051 95.0787 98.6263 95.0861 98.7627C95.0935 98.8991 95.3083 98.9991 95.5658 98.9861L97.8744 98.8693C98.5706 98.834 99.2406 98.9813 99.6666 99.2632C99.8673 99.3961 100.005 99.5475 100.084 99.7058L95.6171 99.9318C95.3596 99.9448 95.1569 100.066 95.1643 100.202C95.1717 100.339 95.3864 100.439 95.6439 100.426L100.128 100.199C100.113 100.242 100.095 100.286 100.071 100.328C99.8935 100.643 99.4646 100.888 98.8634 101.017C97.9482 101.214 96.9159 101.247 95.9164 101.279L95.7063 101.286C95.5103 101.291 95.3338 101.364 95.2662 101.464C95.1986 101.564 95.2538 101.672 95.4043 101.734L101.302 104.152C101.393 104.189 101.505 104.204 101.615 104.199C101.744 104.192 101.87 104.158 101.959 104.098C102.125 103.988 102.099 103.833 101.902 103.752L96.9794 101.734C97.7119 101.696 98.4484 101.629 99.1631 101.475C100.056 101.283 100.696 100.916 100.963 100.442C101.017 100.346 101.048 100.249 101.069 100.151L102.722 100.068C102.98 100.055 103.183 99.9335 103.175 99.7971C103.168 99.6606 102.953 99.5606 102.696 99.5737L101.037 99.6576C100.942 99.3978 100.73 99.1499 100.409 98.9371C100.31 98.8714 100.198 98.8128 100.081 98.7576L102.644 98.6279C102.902 98.6149 103.105 98.4938 103.097 98.3573C103.09 98.2209 102.875 98.1209 102.618 98.134Z" fill="#FFBD00"/>
<path fill-rule="evenodd" clip-rule="evenodd" d="M123.468 107.815C131.047 110.573 134.714 111.254 138.264 109.858C141.814 108.463 141.727 103.881 139.012 101.704C136.297 99.5269 120.087 92.7089 115.489 93.1421C110.892 93.5754 109.032 96.5805 110.821 99.8696C112.609 103.159 115.89 105.056 123.468 107.815Z" fill="#FFBD00"/>
<path fill-rule="evenodd" clip-rule="evenodd" d="M125.015 103.259C132.276 105.902 138.831 106.205 139.657 103.936C140.483 101.667 135.267 97.6854 128.006 95.0428C120.745 92.4001 114.19 92.0972 113.364 94.3661C112.538 96.635 117.755 100.617 125.015 103.259Z" fill="#FFF5D9"/>
<path fill-rule="evenodd" clip-rule="evenodd" d="M125.165 102.849C131.971 105.327 138.092 105.68 138.835 103.637C139.578 101.595 134.663 97.9316 127.856 95.4541C121.049 92.9767 114.929 92.6237 114.185 94.6657C113.442 96.7078 118.358 100.372 125.165 102.849Z" fill="#FFF5D9"/>
<path fill-rule="evenodd" clip-rule="evenodd" d="M130.526 97.3568L125.961 95.9522L123.752 95.2724C123.506 95.1965 123.274 95.241 123.234 95.3717C123.194 95.5024 123.362 95.6699 123.608 95.7457L125.818 96.4255C126.484 96.6305 127.063 96.9981 127.367 97.4087C127.51 97.6022 127.588 97.7917 127.608 97.9674L123.333 96.652C123.087 96.5761 122.855 96.6206 122.815 96.7513C122.775 96.8821 122.943 97.0495 123.189 97.1253L127.48 98.4457C127.452 98.4816 127.42 98.516 127.383 98.5479C127.108 98.7829 126.622 98.866 126.012 98.7821C125.085 98.6544 124.104 98.3325 123.153 98.0206L122.954 97.9551C122.768 97.8924 122.577 97.9005 122.479 97.9718C122.381 98.043 122.396 98.1632 122.517 98.2727L127.232 102.562C127.305 102.628 127.404 102.681 127.51 102.713C127.633 102.751 127.763 102.762 127.868 102.736C128.061 102.689 128.09 102.534 127.932 102.391L123.997 98.811C124.698 99.0261 125.413 99.2155 126.137 99.3153C127.042 99.44 127.769 99.3136 128.182 98.9594C128.266 98.888 128.328 98.8074 128.381 98.7228L129.963 99.2098C130.21 99.2856 130.442 99.2411 130.482 99.1104C130.521 98.9797 130.354 98.8123 130.107 98.7364L128.52 98.2479C128.52 97.9714 128.405 97.666 128.176 97.3562C128.105 97.2604 128.02 97.1672 127.93 97.0754L130.382 97.8302C130.629 97.906 130.861 97.8615 130.901 97.7308C130.94 97.6001 130.773 97.4326 130.526 97.3568Z" fill="#FFBD00"/>
<path opacity="0.1" fill-rule="evenodd" clip-rule="evenodd" d="M105.141 105.973C108.817 105.973 112.153 105.151 114.759 104.527C117.871 103.782 120.023 103.11 121.578 101.595C124.437 98.8114 122.788 94.0983 119.492 92.867C116.197 91.6357 97.3203 92.1307 93.1482 94.3127C88.9761 96.4948 88.2564 100.309 91.0622 103.041C93.8679 105.774 97.0763 105.973 105.141 105.973Z" fill="#FFDA2C"/>
<path fill-rule="evenodd" clip-rule="evenodd" d="M107.123 99.436C114.702 96.6777 117.949 94.842 119.771 91.491C121.593 88.14 118.582 84.686 115.103 84.7636C111.623 84.8412 94.8231 90.0381 91.5796 93.3252C88.3362 96.6124 88.8433 100.11 92.3277 101.48C95.812 102.849 99.545 102.194 107.123 99.436Z" fill="#FFBD00"/>
<path fill-rule="evenodd" clip-rule="evenodd" d="M105.379 94.9531C112.64 92.3105 117.856 88.3288 117.03 86.0599C116.205 83.7909 109.649 84.0939 102.389 86.7365C95.1281 89.3792 89.9117 93.3608 90.7375 95.6298C91.5633 97.8987 98.1187 97.5958 105.379 94.9531Z" fill="#FFF5D9"/>
<path fill-rule="evenodd" clip-rule="evenodd" d="M105.231 94.5418C112.038 92.0644 116.954 88.4006 116.21 86.3585C115.467 84.3165 109.347 84.6694 102.54 87.1469C95.7329 89.6244 90.8174 93.2882 91.5606 95.3303C92.3039 97.3723 98.4244 97.0193 105.231 94.5418Z" fill="#FFF5D9"/>
<path fill-rule="evenodd" clip-rule="evenodd" d="M105.808 86.8895L101.408 88.7477L99.2791 89.647C99.0415 89.7474 98.8925 89.9305 98.9461 90.0562C98.9997 90.1818 99.2357 90.2024 99.4732 90.102L101.603 89.2027C102.245 88.9314 102.925 88.8407 103.422 88.9599C103.656 89.0161 103.837 89.1112 103.965 89.233L99.8449 90.9732C99.6074 91.0735 99.4583 91.2567 99.5119 91.3823C99.5655 91.508 99.8015 91.5285 100.039 91.4282L104.175 89.6815C104.176 89.7272 104.174 89.7742 104.166 89.8226C104.107 90.1789 103.787 90.5554 103.267 90.8828C102.474 91.3811 101.515 91.7653 100.587 92.1371L100.392 92.2153C100.209 92.2867 100.068 92.4155 100.039 92.533C100.01 92.6505 100.099 92.733 100.261 92.7395L106.63 92.9946C106.729 92.9986 106.839 92.9744 106.941 92.9315C107.059 92.8814 107.166 92.8058 107.23 92.7194C107.347 92.5588 107.27 92.4218 107.057 92.4132L101.741 92.2004C102.417 91.9145 103.086 91.6 103.705 91.2109C104.478 90.7246 104.954 90.1609 105.043 89.6237C105.061 89.5155 105.057 89.4134 105.043 89.3149L106.568 88.6706C106.806 88.5703 106.955 88.3872 106.901 88.2615C106.848 88.1358 106.612 88.1153 106.374 88.2156L104.844 88.8619C104.666 88.6501 104.382 88.4896 104.008 88.3995C103.892 88.3717 103.767 88.3549 103.638 88.343L106.002 87.3445C106.24 87.2441 106.389 87.061 106.335 86.9353C106.282 86.8097 106.046 86.7892 105.808 86.8895Z" fill="#FFBD00"/>
</g>
</svg>
