<svg width="140" height="158" viewBox="0 0 140 158" fill="none" xmlns="http://www.w3.org/2000/svg">
<mask id="mask0" mask-type="alpha" maskUnits="userSpaceOnUse" x="0" y="0" width="140" height="158">
<path d="M0 7.30379C0 3.27002 2.89196 0 6.47171 0H133.528C137.103 0 140 3.26379 140 7.30379V150.696C140 154.73 137.108 158 133.528 158H6.47171C2.89748 158 0 154.736 0 150.696V7.30379Z" fill="white"/>
</mask>
<g mask="url(#mask0)">
<g filter="url(#filter0_dd)">
<path d="M-5.38464 7.30379C-5.38464 3.27002 -1.89204 0 2.43119 0H155.876C160.193 0 163.692 3.26379 163.692 7.30379V150.696C163.692 154.73 160.2 158 155.876 158H2.43119C-1.88537 158 -5.38464 154.736 -5.38464 150.696V7.30379Z" fill="black"/>
</g>
<path d="M-5.38464 7.30379C-5.38464 3.27002 -1.89204 0 2.43119 0H155.876C160.193 0 163.692 3.26379 163.692 7.30379V150.696C163.692 154.73 160.2 158 155.876 158H2.43119C-1.88537 158 -5.38464 154.736 -5.38464 150.696V7.30379Z" fill="white"/>
<path d="M137.71 88.135C135.535 88.135 133.764 86.1372 133.764 83.6822C133.764 82.8615 133.175 82.198 132.449 82.198C131.723 82.198 131.134 82.8615 131.134 83.6822C131.134 86.1372 129.364 88.135 127.189 88.135C126.463 88.135 125.874 88.7984 125.874 89.6192C125.874 90.44 126.463 91.1035 127.189 91.1035C129.364 91.1035 131.134 93.1012 131.134 95.5562C131.134 96.377 131.723 97.0404 132.449 97.0404C133.175 97.0404 133.764 96.377 133.764 95.5562C133.764 93.1012 135.535 91.1035 137.71 91.1035C138.436 91.1035 139.025 90.44 139.025 89.6192C139.025 88.7984 138.436 88.135 137.71 88.135ZM132.449 91.1079C132.074 90.5439 131.629 90.0422 131.13 89.6192C131.629 89.1962 132.074 88.6945 132.449 88.1305C132.824 88.6945 133.27 89.1962 133.768 89.6192C133.27 90.0422 132.824 90.5439 132.449 91.1079Z" fill="#F5FAFF"/>
<path d="M65.6923 39.0212C65.6923 39.842 66.2814 40.5054 67.0074 40.5054C69.1827 40.5054 70.9529 42.5032 70.9529 44.9582C70.9529 45.7789 71.5421 46.4424 72.268 46.4424C72.994 46.4424 73.5832 45.7789 73.5832 44.9582C73.5832 42.5032 75.3534 40.5054 77.5286 40.5054C78.2546 40.5054 78.8438 39.842 78.8438 39.0212C78.8438 38.2004 78.2546 37.5369 77.5286 37.5369C75.3534 37.5369 73.5832 35.5392 73.5832 33.0842C73.5832 32.2634 72.994 31.6 72.268 31.6C71.5421 31.6 70.9529 32.2634 70.9529 33.0842C70.9529 35.5392 69.1827 37.5369 67.0074 37.5369C66.2814 37.5369 65.6923 38.2004 65.6923 39.0212ZM72.268 37.5325C72.6428 38.0965 73.0887 38.5982 73.5871 39.0212C73.0887 39.4442 72.6428 39.9459 72.268 40.5099C71.8932 39.9459 71.4474 39.4442 70.9489 39.0212C71.4474 38.5982 71.8932 38.0965 72.268 37.5325Z" fill="#F5F3F6"/>
<path opacity="0.05" d="M95.9836 -3.6462C82.4829 -3.6462 59.1637 -3.6462 54.2543 11.5762C49.345 26.7986 90.1637 25.9058 99.6656 36.6195C109.168 47.3332 124.488 46.1725 138.94 46.1725C153.392 46.1725 150.654 64.1324 162.259 61.3949C173.865 58.6575 163.487 44.9401 167.169 36.6195C167.169 31.4484 167.169 18.0265 167.169 -3.6462C134.849 -3.6462 111.121 -3.6462 95.9836 -3.6462Z" fill="#3792FC"/>
<path opacity="0.05" d="M56 70.2424C103.716 51.113 124.923 94.154 124.923 70.2424C124.923 46.3307 99.4745 34.3749 86.7503 20.0279C74.026 5.68088 79.5945 -18.2308 60.2414 -18.2308C40.8883 -18.2308 50.6385 -4.8268 29.4911 5.68088C8.34372 16.1886 -12.9231 -11.0573 -12.9231 20.0279C-12.9231 51.113 8.284 89.3717 56 70.2424Z" fill="#3792FC"/>
<path opacity="0.05" d="M120.615 171.119C72.8994 151.99 51.6923 195.031 51.6923 171.119C51.6923 147.208 77.1408 135.252 89.8651 120.905C102.589 106.558 97.0209 82.6462 116.374 82.6462C135.727 82.6462 125.977 96.0502 147.124 106.558C168.272 117.066 189.538 89.8197 189.538 120.905C189.538 151.99 168.331 190.249 120.615 171.119Z" fill="#3792FC"/>
</g>
<path d="M14.043 57.13C13.3323 57.13 12.7127 57.0173 12.184 56.792C11.664 56.5667 11.2653 56.272 10.988 55.908C10.7193 55.5353 10.5763 55.1367 10.559 54.712C10.559 54.6427 10.585 54.582 10.637 54.53C10.689 54.478 10.754 54.452 10.832 54.452H11.469C11.625 54.452 11.7333 54.5387 11.794 54.712C11.872 55.076 12.093 55.3923 12.457 55.661C12.8297 55.921 13.3583 56.051 14.043 56.051C14.7797 56.051 15.33 55.921 15.694 55.661C16.058 55.401 16.24 55.0413 16.24 54.582C16.24 54.2873 16.149 54.0447 15.967 53.854C15.7937 53.6633 15.5293 53.4987 15.174 53.36C14.8273 53.2127 14.303 53.035 13.601 52.827C12.9337 52.6363 12.4007 52.4327 12.002 52.216C11.612 51.9993 11.3173 51.735 11.118 51.423C10.9187 51.1023 10.819 50.6993 10.819 50.214C10.819 49.746 10.9447 49.33 11.196 48.966C11.4473 48.5933 11.8113 48.303 12.288 48.095C12.7647 47.8783 13.328 47.77 13.978 47.77C14.654 47.77 15.2303 47.8913 15.707 48.134C16.1923 48.368 16.5607 48.667 16.812 49.031C17.0633 49.3863 17.1977 49.746 17.215 50.11C17.215 50.188 17.189 50.253 17.137 50.305C17.085 50.357 17.02 50.383 16.942 50.383H16.292C16.2227 50.383 16.1577 50.3613 16.097 50.318C16.0363 50.2747 15.993 50.2097 15.967 50.123C15.915 49.7503 15.707 49.4427 15.343 49.2C14.979 48.9573 14.524 48.836 13.978 48.836C13.3887 48.836 12.9207 48.953 12.574 49.187C12.2273 49.4123 12.054 49.7503 12.054 50.201C12.054 50.5043 12.132 50.7513 12.288 50.942C12.4527 51.1327 12.6997 51.3017 13.029 51.449C13.367 51.5963 13.8567 51.7653 14.498 51.956C15.2347 52.164 15.811 52.372 16.227 52.58C16.6517 52.788 16.968 53.048 17.176 53.36C17.384 53.6633 17.488 54.0577 17.488 54.543C17.488 55.3577 17.176 55.9947 16.552 56.454C15.9367 56.9047 15.1003 57.13 14.043 57.13ZM19.4915 57C19.4049 57 19.3355 56.974 19.2835 56.922C19.2315 56.8613 19.2055 56.7877 19.2055 56.701V48.199C19.2055 48.1123 19.2315 48.043 19.2835 47.991C19.3355 47.9303 19.4049 47.9 19.4915 47.9H20.1415C20.2369 47.9 20.3105 47.926 20.3625 47.978C20.4145 48.03 20.4405 48.1037 20.4405 48.199V56.701C20.4405 56.7877 20.4102 56.8613 20.3495 56.922C20.2975 56.974 20.2282 57 20.1415 57H19.4915ZM23.0208 57C22.9342 57 22.8648 56.974 22.8128 56.922C22.7608 56.8613 22.7348 56.7877 22.7348 56.701V48.212C22.7348 48.1167 22.7608 48.043 22.8128 47.991C22.8648 47.9303 22.9342 47.9 23.0208 47.9H26.3098C27.2892 47.9 28.0562 48.1383 28.6108 48.615C29.1742 49.083 29.4558 49.7677 29.4558 50.669C29.4558 51.5703 29.1742 52.255 28.6108 52.723C28.0562 53.191 27.2892 53.425 26.3098 53.425H23.9698V56.701C23.9698 56.7877 23.9395 56.8613 23.8788 56.922C23.8268 56.974 23.7575 57 23.6708 57H23.0208ZM26.2448 52.372C27.5535 52.372 28.2078 51.8043 28.2078 50.669C28.2078 50.1143 28.0432 49.6897 27.7138 49.395C27.3932 49.1003 26.9035 48.953 26.2448 48.953H23.9698V52.372H26.2448ZM36.6485 56.571C36.5618 56.571 36.4881 56.545 36.4275 56.493C36.3755 56.4323 36.3495 56.3587 36.3495 56.272V53.555H33.6585C33.5718 53.555 33.4981 53.529 33.4375 53.477C33.3855 53.4163 33.3595 53.3427 33.3595 53.256V52.866C33.3595 52.7793 33.3855 52.71 33.4375 52.658C33.4981 52.5973 33.5718 52.567 33.6585 52.567H36.3495V49.928C36.3495 49.8327 36.3755 49.759 36.4275 49.707C36.4881 49.655 36.5618 49.629 36.6485 49.629H37.0645C37.1598 49.629 37.2335 49.655 37.2855 49.707C37.3375 49.759 37.3635 49.8327 37.3635 49.928V52.567H40.0545C40.1411 52.567 40.2105 52.5973 40.2625 52.658C40.3231 52.71 40.3535 52.7793 40.3535 52.866V53.256C40.3535 53.3427 40.3231 53.4163 40.2625 53.477C40.2105 53.529 40.1411 53.555 40.0545 53.555H37.3635V56.272C37.3635 56.3587 37.3331 56.4323 37.2725 56.493C37.2205 56.545 37.1511 56.571 37.0645 56.571H36.6485ZM47.7786 57.13C46.8513 57.13 46.1276 56.87 45.6076 56.35C45.0876 55.8213 44.8146 55.0847 44.7886 54.14L44.7756 53.62L44.7886 53.1C44.8146 52.1553 45.0876 51.423 45.6076 50.903C46.1276 50.3743 46.8513 50.11 47.7786 50.11C48.4026 50.11 48.9269 50.2227 49.3516 50.448C49.7849 50.6647 50.1056 50.9377 50.3136 51.267C50.5303 51.5963 50.6473 51.9257 50.6646 52.255C50.6733 52.333 50.6429 52.4023 50.5736 52.463C50.5129 52.5237 50.4436 52.554 50.3656 52.554H49.7936C49.7069 52.554 49.6419 52.5367 49.5986 52.502C49.5553 52.4587 49.5119 52.385 49.4686 52.281C49.3126 51.8563 49.0959 51.5573 48.8186 51.384C48.5499 51.202 48.2076 51.111 47.7916 51.111C47.2456 51.111 46.8123 51.28 46.4916 51.618C46.1709 51.956 45.9976 52.4717 45.9716 53.165L45.9586 53.62L45.9716 54.075C45.9976 54.7683 46.1709 55.284 46.4916 55.622C46.8123 55.96 47.2456 56.129 47.7916 56.129C48.2163 56.129 48.5629 56.0423 48.8316 55.869C49.1003 55.687 49.3126 55.3837 49.4686 54.959C49.5119 54.855 49.5553 54.7857 49.5986 54.751C49.6419 54.7077 49.7069 54.686 49.7936 54.686H50.3656C50.4436 54.686 50.5129 54.7163 50.5736 54.777C50.6429 54.8377 50.6733 54.907 50.6646 54.985C50.6473 55.3057 50.5303 55.6307 50.3136 55.96C50.1056 56.2893 49.7849 56.5667 49.3516 56.792C48.9269 57.0173 48.4026 57.13 47.7786 57.13ZM54.9651 57.13C54.0117 57.13 53.2751 56.8613 52.7551 56.324C52.2437 55.7867 51.9707 55.0717 51.9361 54.179L51.9231 53.62L51.9361 53.061C51.9707 52.1683 52.2481 51.4533 52.7681 50.916C53.2967 50.3787 54.0291 50.11 54.9651 50.11C55.9011 50.11 56.6291 50.3787 57.1491 50.916C57.6777 51.4533 57.9594 52.1683 57.9941 53.061C58.0114 53.2517 58.0201 53.438 58.0201 53.62C58.0201 53.802 58.0114 53.9883 57.9941 54.179C57.9594 55.0717 57.6821 55.7867 57.1621 56.324C56.6507 56.8613 55.9184 57.13 54.9651 57.13ZM54.9651 56.155C55.5197 56.155 55.9574 55.9817 56.2781 55.635C56.6074 55.2797 56.7851 54.7727 56.8111 54.114C56.8197 54.0273 56.8241 53.8627 56.8241 53.62C56.8241 53.3773 56.8197 53.2127 56.8111 53.126C56.7851 52.4673 56.6074 51.9647 56.2781 51.618C55.9574 51.2627 55.5197 51.085 54.9651 51.085C54.4104 51.085 53.9684 51.2627 53.6391 51.618C53.3184 51.9647 53.1451 52.4673 53.1191 53.126L53.1061 53.62L53.1191 54.114C53.1451 54.7727 53.3184 55.2797 53.6391 55.635C53.9684 55.9817 54.4104 56.155 54.9651 56.155ZM59.9605 57C59.8739 57 59.8002 56.974 59.7395 56.922C59.6875 56.8613 59.6615 56.7877 59.6615 56.701V50.552C59.6615 50.4653 59.6875 50.3917 59.7395 50.331C59.8002 50.2703 59.8739 50.24 59.9605 50.24H60.5065C60.6019 50.24 60.6755 50.2703 60.7275 50.331C60.7882 50.383 60.8185 50.4567 60.8185 50.552V51.124C61.1739 50.5347 61.7762 50.24 62.6255 50.24H63.1325C63.2279 50.24 63.3015 50.266 63.3535 50.318C63.4055 50.37 63.4315 50.4437 63.4315 50.539V51.02C63.4315 51.1067 63.4055 51.1803 63.3535 51.241C63.3015 51.293 63.2279 51.319 63.1325 51.319H62.3915C61.9149 51.319 61.5379 51.4577 61.2605 51.735C60.9919 52.0123 60.8575 52.3893 60.8575 52.866V56.701C60.8575 56.7877 60.8272 56.8613 60.7665 56.922C60.7059 56.974 60.6322 57 60.5455 57H59.9605ZM64.8612 59.47C64.7746 59.47 64.7009 59.444 64.6402 59.392C64.5882 59.34 64.5622 59.2663 64.5622 59.171V50.539C64.5622 50.4437 64.5882 50.37 64.6402 50.318C64.7009 50.266 64.7746 50.24 64.8612 50.24H65.4072C65.5026 50.24 65.5762 50.266 65.6282 50.318C65.6802 50.37 65.7062 50.4437 65.7062 50.539V51.111C66.2089 50.4437 66.9239 50.11 67.8512 50.11C68.7612 50.11 69.4416 50.4003 69.8922 50.981C70.3516 51.553 70.5942 52.2853 70.6202 53.178C70.6289 53.2733 70.6332 53.4207 70.6332 53.62C70.6332 53.8193 70.6289 53.9667 70.6202 54.062C70.5942 54.946 70.3516 55.6783 69.8922 56.259C69.4416 56.8397 68.7612 57.13 67.8512 57.13C66.9239 57.13 66.2219 56.8007 65.7452 56.142V59.171C65.7452 59.2577 65.7149 59.327 65.6542 59.379C65.6022 59.4397 65.5329 59.47 65.4462 59.47H64.8612ZM67.6042 56.116C68.2282 56.116 68.6832 55.921 68.9692 55.531C69.2552 55.141 69.4112 54.6297 69.4372 53.997C69.4459 53.9103 69.4502 53.7847 69.4502 53.62C69.4502 51.956 68.8349 51.124 67.6042 51.124C66.9976 51.124 66.5382 51.3277 66.2262 51.735C65.9229 52.1337 65.7626 52.606 65.7452 53.152C65.7366 53.2473 65.7322 53.4163 65.7322 53.659C65.7322 53.9017 65.7366 54.0707 65.7452 54.166C65.7626 54.6947 65.9272 55.154 66.2392 55.544C66.5599 55.9253 67.0149 56.116 67.6042 56.116ZM74.79 57.13C73.9666 57.13 73.3296 56.8657 72.879 56.337C72.4283 55.7997 72.203 55.089 72.203 54.205V50.539C72.203 50.4523 72.229 50.383 72.281 50.331C72.3416 50.2703 72.4153 50.24 72.502 50.24H73.1C73.1866 50.24 73.256 50.2703 73.308 50.331C73.3686 50.383 73.399 50.4523 73.399 50.539V54.14C73.399 55.4573 73.971 56.116 75.115 56.116C75.6696 56.116 76.1073 55.9427 76.428 55.596C76.7573 55.2407 76.922 54.7553 76.922 54.14V50.539C76.922 50.4523 76.948 50.383 77 50.331C77.0606 50.2703 77.1343 50.24 77.221 50.24H77.819C77.9056 50.24 77.975 50.2703 78.027 50.331C78.0876 50.383 78.118 50.4523 78.118 50.539V56.701C78.118 56.7877 78.0876 56.8613 78.027 56.922C77.975 56.974 77.9056 57 77.819 57H77.26C77.1733 57 77.0996 56.974 77.039 56.922C76.987 56.8613 76.961 56.7877 76.961 56.701V56.116C76.7096 56.454 76.415 56.7097 76.077 56.883C75.739 57.0477 75.31 57.13 74.79 57.13ZM82.3769 57.13C81.7789 57.13 81.2719 57.0347 80.8559 56.844C80.4486 56.6447 80.1452 56.4193 79.9459 56.168C79.7466 55.9167 79.6469 55.7087 79.6469 55.544C79.6469 55.4573 79.6772 55.3923 79.7379 55.349C79.7986 55.297 79.8636 55.271 79.9329 55.271H80.4789C80.5309 55.271 80.5699 55.2797 80.5959 55.297C80.6306 55.3143 80.6739 55.3533 80.7259 55.414C80.9252 55.6567 81.1462 55.8473 81.3889 55.986C81.6402 56.1247 81.9739 56.194 82.3899 56.194C82.8579 56.194 83.2306 56.1073 83.5079 55.934C83.7939 55.7607 83.9369 55.5093 83.9369 55.18C83.9369 54.9633 83.8762 54.79 83.7549 54.66C83.6336 54.53 83.4299 54.413 83.1439 54.309C82.8666 54.205 82.4506 54.0923 81.8959 53.971C81.1419 53.8063 80.6089 53.568 80.2969 53.256C79.9849 52.944 79.8289 52.541 79.8289 52.047C79.8289 51.7263 79.9242 51.4187 80.1149 51.124C80.3056 50.8207 80.5872 50.578 80.9599 50.396C81.3412 50.2053 81.7919 50.11 82.3119 50.11C82.8579 50.11 83.3216 50.201 83.7029 50.383C84.0929 50.565 84.3832 50.7773 84.5739 51.02C84.7732 51.2627 84.8729 51.4663 84.8729 51.631C84.8729 51.709 84.8426 51.774 84.7819 51.826C84.7299 51.878 84.6649 51.904 84.5869 51.904H84.0929C83.9716 51.904 83.8849 51.8563 83.8329 51.761C83.6856 51.5963 83.5599 51.4707 83.4559 51.384C83.3606 51.2887 83.2176 51.2107 83.0269 51.15C82.8362 51.0807 82.5979 51.046 82.3119 51.046C81.8872 51.046 81.5622 51.137 81.3369 51.319C81.1116 51.4923 80.9989 51.7263 80.9989 52.021C80.9989 52.203 81.0466 52.359 81.1419 52.489C81.2372 52.6103 81.4192 52.7273 81.6879 52.84C81.9566 52.944 82.3552 53.0523 82.8839 53.165C83.7072 53.3383 84.2879 53.5853 84.6259 53.906C84.9726 54.2267 85.1459 54.6383 85.1459 55.141C85.1459 55.5137 85.0376 55.8517 84.8209 56.155C84.6129 56.4583 84.2966 56.6967 83.8719 56.87C83.4559 57.0433 82.9576 57.13 82.3769 57.13ZM92.1777 57.13C91.5797 57.13 91.0727 57.0347 90.6567 56.844C90.2493 56.6447 89.946 56.4193 89.7467 56.168C89.5473 55.9167 89.4477 55.7087 89.4477 55.544C89.4477 55.4573 89.478 55.3923 89.5387 55.349C89.5993 55.297 89.6643 55.271 89.7337 55.271H90.2797C90.3317 55.271 90.3707 55.2797 90.3967 55.297C90.4313 55.3143 90.4747 55.3533 90.5267 55.414C90.726 55.6567 90.947 55.8473 91.1897 55.986C91.441 56.1247 91.7747 56.194 92.1907 56.194C92.6587 56.194 93.0313 56.1073 93.3087 55.934C93.5947 55.7607 93.7377 55.5093 93.7377 55.18C93.7377 54.9633 93.677 54.79 93.5557 54.66C93.4343 54.53 93.2307 54.413 92.9447 54.309C92.6673 54.205 92.2513 54.0923 91.6967 53.971C90.9427 53.8063 90.4097 53.568 90.0977 53.256C89.7857 52.944 89.6297 52.541 89.6297 52.047C89.6297 51.7263 89.725 51.4187 89.9157 51.124C90.1063 50.8207 90.388 50.578 90.7607 50.396C91.142 50.2053 91.5927 50.11 92.1127 50.11C92.6587 50.11 93.1223 50.201 93.5037 50.383C93.8937 50.565 94.184 50.7773 94.3747 51.02C94.574 51.2627 94.6737 51.4663 94.6737 51.631C94.6737 51.709 94.6433 51.774 94.5827 51.826C94.5307 51.878 94.4657 51.904 94.3877 51.904H93.8937C93.7723 51.904 93.6857 51.8563 93.6337 51.761C93.4863 51.5963 93.3607 51.4707 93.2567 51.384C93.1613 51.2887 93.0183 51.2107 92.8277 51.15C92.637 51.0807 92.3987 51.046 92.1127 51.046C91.688 51.046 91.363 51.137 91.1377 51.319C90.9123 51.4923 90.7997 51.7263 90.7997 52.021C90.7997 52.203 90.8473 52.359 90.9427 52.489C91.038 52.6103 91.22 52.7273 91.4887 52.84C91.7573 52.944 92.156 53.0523 92.6847 53.165C93.508 53.3383 94.0887 53.5853 94.4267 53.906C94.7733 54.2267 94.9467 54.6383 94.9467 55.141C94.9467 55.5137 94.8383 55.8517 94.6217 56.155C94.4137 56.4583 94.0973 56.6967 93.6727 56.87C93.2567 57.0433 92.7583 57.13 92.1777 57.13ZM98.0815 57C97.9602 57 97.8692 56.974 97.8085 56.922C97.7478 56.87 97.7002 56.7877 97.6655 56.675L95.8195 50.643L95.7935 50.513C95.7935 50.435 95.8195 50.37 95.8715 50.318C95.9235 50.266 95.9885 50.24 96.0665 50.24H96.5995C96.6862 50.24 96.7555 50.266 96.8075 50.318C96.8682 50.3613 96.9028 50.4047 96.9115 50.448L98.3805 55.414L99.9405 50.513C99.9578 50.4437 99.9968 50.383 100.058 50.331C100.118 50.2703 100.201 50.24 100.305 50.24H100.721C100.825 50.24 100.907 50.2703 100.968 50.331C101.028 50.383 101.067 50.4437 101.085 50.513L102.645 55.414L104.114 50.448C104.122 50.4047 104.153 50.3613 104.205 50.318C104.265 50.266 104.339 50.24 104.426 50.24H104.959C105.037 50.24 105.102 50.266 105.154 50.318C105.206 50.37 105.232 50.435 105.232 50.513L105.206 50.643L103.36 56.675C103.325 56.7877 103.277 56.87 103.217 56.922C103.156 56.974 103.065 57 102.944 57H102.475C102.25 57 102.103 56.8917 102.034 56.675L100.513 51.969L98.9915 56.675C98.9222 56.8917 98.7748 57 98.5495 57H98.0815ZM106.88 48.966C106.793 48.966 106.72 48.94 106.659 48.888C106.607 48.8273 106.581 48.7537 106.581 48.667V47.991C106.581 47.9043 106.607 47.8307 106.659 47.77C106.72 47.7093 106.793 47.679 106.88 47.679H107.647C107.734 47.679 107.807 47.7093 107.868 47.77C107.929 47.8307 107.959 47.9043 107.959 47.991V48.667C107.959 48.7537 107.929 48.8273 107.868 48.888C107.807 48.94 107.734 48.966 107.647 48.966H106.88ZM106.984 57C106.897 57 106.824 56.974 106.763 56.922C106.711 56.8613 106.685 56.7877 106.685 56.701V50.539C106.685 50.4523 106.711 50.383 106.763 50.331C106.824 50.2703 106.897 50.24 106.984 50.24H107.556C107.643 50.24 107.712 50.2703 107.764 50.331C107.825 50.383 107.855 50.4523 107.855 50.539V56.701C107.855 56.7877 107.825 56.8613 107.764 56.922C107.712 56.974 107.643 57 107.556 57H106.984ZM112.408 57C111.065 57 110.393 56.2417 110.393 54.725V51.241H109.366C109.279 51.241 109.21 51.215 109.158 51.163C109.106 51.111 109.08 51.0417 109.08 50.955V50.539C109.08 50.4523 109.106 50.383 109.158 50.331C109.21 50.2703 109.279 50.24 109.366 50.24H110.393V48.069C110.393 47.9823 110.419 47.913 110.471 47.861C110.523 47.8003 110.592 47.77 110.679 47.77H111.251C111.338 47.77 111.407 47.8003 111.459 47.861C111.52 47.913 111.55 47.9823 111.55 48.069V50.24H113.162C113.249 50.24 113.318 50.2703 113.37 50.331C113.431 50.383 113.461 50.4523 113.461 50.539V50.955C113.461 51.0417 113.431 51.111 113.37 51.163C113.318 51.215 113.249 51.241 113.162 51.241H111.55V54.634C111.55 55.076 111.619 55.4097 111.758 55.635C111.905 55.8603 112.152 55.973 112.499 55.973H113.292C113.379 55.973 113.448 56.0033 113.5 56.064C113.552 56.116 113.578 56.1853 113.578 56.272V56.701C113.578 56.7877 113.552 56.8613 113.5 56.922C113.448 56.974 113.379 57 113.292 57H112.408ZM117.552 57.13C116.625 57.13 115.901 56.87 115.381 56.35C114.861 55.8213 114.588 55.0847 114.562 54.14L114.549 53.62L114.562 53.1C114.588 52.1553 114.861 51.423 115.381 50.903C115.901 50.3743 116.625 50.11 117.552 50.11C118.176 50.11 118.7 50.2227 119.125 50.448C119.558 50.6647 119.879 50.9377 120.087 51.267C120.304 51.5963 120.421 51.9257 120.438 52.255C120.447 52.333 120.416 52.4023 120.347 52.463C120.286 52.5237 120.217 52.554 120.139 52.554H119.567C119.48 52.554 119.415 52.5367 119.372 52.502C119.329 52.4587 119.285 52.385 119.242 52.281C119.086 51.8563 118.869 51.5573 118.592 51.384C118.323 51.202 117.981 51.111 117.565 51.111C117.019 51.111 116.586 51.28 116.265 51.618C115.944 51.956 115.771 52.4717 115.745 53.165L115.732 53.62L115.745 54.075C115.771 54.7683 115.944 55.284 116.265 55.622C116.586 55.96 117.019 56.129 117.565 56.129C117.99 56.129 118.336 56.0423 118.605 55.869C118.874 55.687 119.086 55.3837 119.242 54.959C119.285 54.855 119.329 54.7857 119.372 54.751C119.415 54.7077 119.48 54.686 119.567 54.686H120.139C120.217 54.686 120.286 54.7163 120.347 54.777C120.416 54.8377 120.447 54.907 120.438 54.985C120.421 55.3057 120.304 55.6307 120.087 55.96C119.879 56.2893 119.558 56.5667 119.125 56.792C118.7 57.0173 118.176 57.13 117.552 57.13ZM122.308 57C122.221 57 122.147 56.974 122.087 56.922C122.035 56.8613 122.009 56.7877 122.009 56.701V48.069C122.009 47.9737 122.035 47.9 122.087 47.848C122.147 47.796 122.221 47.77 122.308 47.77H122.906C123.001 47.77 123.075 47.796 123.127 47.848C123.179 47.9 123.205 47.9737 123.205 48.069V51.098C123.456 50.7773 123.751 50.5347 124.089 50.37C124.435 50.1967 124.86 50.11 125.363 50.11C126.195 50.11 126.84 50.3787 127.3 50.916C127.768 51.4447 128.002 52.1467 128.002 53.022V56.701C128.002 56.7877 127.971 56.8613 127.911 56.922C127.859 56.974 127.789 57 127.703 57H127.092C127.005 57 126.931 56.974 126.871 56.922C126.819 56.8613 126.793 56.7877 126.793 56.701V53.1C126.793 52.476 126.641 51.9907 126.338 51.644C126.034 51.2973 125.597 51.124 125.025 51.124C124.47 51.124 124.028 51.3017 123.699 51.657C123.369 52.0037 123.205 52.4847 123.205 53.1V56.701C123.205 56.7877 123.174 56.8613 123.114 56.922C123.062 56.974 122.992 57 122.906 57H122.308Z" fill="#160D2E"/>
<rect x="16" y="29" width="2" height="5" fill="#A4D6FF"/>
<rect x="12" y="32" width="1.5" height="2.5" fill="#A4D6FF"/>
<rect x="21" y="25" width="2" height="9" fill="#A4D6FF"/>
<path d="M23.9101 34.4141H23.2675V25.0841C23.2675 24.6498 22.9142 24.2965 22.48 24.2965H21.0437C20.6095 24.2965 20.2562 24.6498 20.2562 25.0841V34.4141H18.6246V29.3113C18.6246 28.877 18.2713 28.5237 17.837 28.5237H16.4008C15.9665 28.5237 15.6132 28.877 15.6132 29.3113V34.4141H13.9816V31.7714C13.9816 31.3371 13.6283 30.9838 13.194 30.9838H11.7578C11.3235 30.9838 10.9702 31.3371 10.9702 31.7714V34.4141H10.293C10.1312 34.4141 10 34.5452 10 34.707C10 34.8688 10.1312 35 10.293 35H23.9101C24.0719 35 24.2031 34.8688 24.2031 34.707C24.2031 34.5452 24.0719 34.4141 23.9101 34.4141ZM13.3956 34.4141H11.5561V31.7714C11.5561 31.6602 11.6465 31.5697 11.7577 31.5697H13.194C13.3052 31.5697 13.3956 31.6602 13.3956 31.7714V34.4141ZM18.0386 34.4141H16.1991V29.3113C16.1991 29.2001 16.2895 29.1097 16.4007 29.1097H17.837C17.9481 29.1097 18.0386 29.2001 18.0386 29.3113V34.4141ZM22.6816 34.4141H20.8421V25.0841C20.8421 24.9729 20.9325 24.8824 21.0437 24.8824H22.48C22.5912 24.8824 22.6816 24.9729 22.6816 25.0841V34.4141Z" fill="#008EFF"/>
<path d="M23.2668 20.3081C23.2709 20.2281 23.2428 20.1468 23.1818 20.0858C23.1207 20.0247 23.0394 19.9966 22.9595 20.0007C22.9547 20.0005 22.9501 20 22.9453 20H21.1728C21.011 20 20.8799 20.1312 20.8799 20.293C20.8799 20.4548 21.011 20.5859 21.1728 20.5859H22.2673L19.3711 23.4822L18.2789 22.39C18.2239 22.335 18.1494 22.3042 18.0717 22.3042C17.994 22.3042 17.9195 22.335 17.8646 22.39L12.5979 27.6567C12.4835 27.7711 12.4835 27.9566 12.5979 28.071C12.6551 28.1282 12.7301 28.1568 12.805 28.1568C12.88 28.1568 12.955 28.1282 13.0122 28.071L18.0717 23.0114L19.1639 24.1036C19.2783 24.218 19.4638 24.218 19.5782 24.1036L22.6816 21.0003V21.9908C22.6816 22.1526 22.8128 22.2838 22.9746 22.2838C23.1364 22.2838 23.2675 22.1526 23.2675 21.9908V20.3223C23.2675 20.3175 23.267 20.3128 23.2668 20.3081Z" fill="#008EFF"/>
<path d="M11.8175 29.179C11.9793 29.179 12.1105 29.0478 12.1105 28.886C12.1105 28.7242 11.9793 28.5931 11.8175 28.5931C11.6557 28.5931 11.5245 28.7242 11.5245 28.886C11.5245 29.0478 11.6557 29.179 11.8175 29.179Z" fill="#008EFF"/>
<path d="M13.952 79.13C13.276 79.13 12.6867 79.0217 12.184 78.805C11.69 78.5797 11.3087 78.2893 11.04 77.934C10.78 77.5787 10.6413 77.1973 10.624 76.79C10.624 76.7207 10.65 76.66 10.702 76.608C10.754 76.556 10.819 76.53 10.897 76.53H11.157C11.313 76.53 11.4083 76.6167 11.443 76.79C11.5037 77.206 11.742 77.57 12.158 77.882C12.574 78.194 13.172 78.35 13.952 78.35C14.7753 78.35 15.3863 78.2027 15.785 77.908C16.1923 77.6047 16.396 77.1843 16.396 76.647C16.396 76.3177 16.2963 76.049 16.097 75.841C15.9063 75.6243 15.6247 75.438 15.252 75.282C14.8793 75.1173 14.316 74.9137 13.562 74.671C12.8947 74.4543 12.3703 74.242 11.989 74.034C11.6163 73.826 11.339 73.5703 11.157 73.267C10.975 72.9637 10.884 72.578 10.884 72.11C10.884 71.668 11.001 71.2693 11.235 70.914C11.4777 70.5587 11.8243 70.2813 12.275 70.082C12.7257 69.874 13.263 69.77 13.887 69.77C14.5283 69.77 15.0787 69.887 15.538 70.121C15.9973 70.3463 16.344 70.6367 16.578 70.992C16.812 71.3387 16.9377 71.6897 16.955 72.045C16.955 72.1143 16.929 72.175 16.877 72.227C16.8337 72.279 16.7687 72.305 16.682 72.305H16.422C16.3613 72.305 16.3007 72.2877 16.24 72.253C16.1793 72.2097 16.1447 72.1403 16.136 72.045C16.084 71.6117 15.85 71.2563 15.434 70.979C15.0267 70.693 14.511 70.55 13.887 70.55C13.2197 70.55 12.6867 70.68 12.288 70.94C11.898 71.2 11.703 71.59 11.703 72.11C11.703 72.448 11.7897 72.7297 11.963 72.955C12.145 73.1717 12.4137 73.3623 12.769 73.527C13.1243 73.683 13.6487 73.8737 14.342 74.099C15.0527 74.3243 15.6073 74.541 16.006 74.749C16.4047 74.957 16.7037 75.2083 16.903 75.503C17.111 75.7977 17.215 76.179 17.215 76.647C17.215 77.427 16.9247 78.038 16.344 78.48C15.7633 78.9133 14.966 79.13 13.952 79.13ZM20.6791 79C20.5664 79 20.4798 78.974 20.4191 78.922C20.3584 78.87 20.3064 78.7877 20.2631 78.675L18.4301 72.643L18.4041 72.5C18.4041 72.4307 18.4301 72.37 18.4821 72.318C18.5341 72.266 18.5948 72.24 18.6641 72.24H18.9111C18.9891 72.24 19.0541 72.2617 19.1061 72.305C19.1581 72.3483 19.1884 72.3917 19.1971 72.435L20.7961 77.843L22.4991 72.5C22.5164 72.4307 22.5554 72.37 22.6161 72.318C22.6768 72.266 22.7548 72.24 22.8501 72.24H23.1101C23.2054 72.24 23.2834 72.266 23.3441 72.318C23.4048 72.37 23.4438 72.4307 23.4611 72.5L25.1641 77.843L26.7631 72.435C26.7718 72.3917 26.8021 72.3483 26.8541 72.305C26.9061 72.2617 26.9711 72.24 27.0491 72.24H27.2961C27.3654 72.24 27.4261 72.266 27.4781 72.318C27.5301 72.37 27.5561 72.4307 27.5561 72.5L27.5301 72.643L25.6971 78.675C25.6538 78.7877 25.6018 78.87 25.5411 78.922C25.4804 78.974 25.3938 79 25.2811 79H25.0601C24.8261 79 24.6788 78.8917 24.6181 78.675L22.9801 73.553L21.3421 78.675C21.2814 78.8917 21.1341 79 20.9001 79H20.6791ZM29.2868 70.849C29.2002 70.849 29.1308 70.823 29.0788 70.771C29.0268 70.719 29.0008 70.6497 29.0008 70.563V70.069C29.0008 69.9823 29.0268 69.913 29.0788 69.861C29.1308 69.8003 29.2002 69.77 29.2868 69.77H29.7808C29.8675 69.77 29.9368 69.8003 29.9888 69.861C30.0495 69.913 30.0798 69.9823 30.0798 70.069V70.563C30.0798 70.6497 30.0495 70.719 29.9888 70.771C29.9368 70.823 29.8675 70.849 29.7808 70.849H29.2868ZM29.4298 79C29.3432 79 29.2738 78.974 29.2218 78.922C29.1698 78.87 29.1438 78.8007 29.1438 78.714V72.526C29.1438 72.4393 29.1698 72.37 29.2218 72.318C29.2738 72.266 29.3432 72.24 29.4298 72.24H29.6508C29.7375 72.24 29.8068 72.266 29.8588 72.318C29.9108 72.37 29.9368 72.4393 29.9368 72.526V78.714C29.9368 78.8007 29.9108 78.87 29.8588 78.922C29.8068 78.974 29.7375 79 29.6508 79H29.4298ZM34.3134 79C33.672 79 33.217 78.8093 32.9484 78.428C32.6797 78.038 32.5454 77.505 32.5454 76.829V72.994H31.5314C31.4447 72.994 31.3754 72.968 31.3234 72.916C31.2714 72.864 31.2454 72.7947 31.2454 72.708V72.526C31.2454 72.4393 31.2714 72.37 31.3234 72.318C31.3754 72.266 31.4447 72.24 31.5314 72.24H32.5454V70.056C32.5454 69.9693 32.5714 69.9 32.6234 69.848C32.6754 69.796 32.7447 69.77 32.8314 69.77H33.0524C33.139 69.77 33.2084 69.796 33.2604 69.848C33.3124 69.9 33.3384 69.9693 33.3384 70.056V72.24H34.9504C35.037 72.24 35.1064 72.266 35.1584 72.318C35.2104 72.37 35.2364 72.4393 35.2364 72.526V72.708C35.2364 72.7947 35.2104 72.864 35.1584 72.916C35.1064 72.968 35.037 72.994 34.9504 72.994H33.3384V76.777C33.3384 77.2623 33.4164 77.6307 33.5724 77.882C33.737 78.1247 34.0057 78.246 34.3784 78.246H35.0804C35.167 78.246 35.2364 78.272 35.2884 78.324C35.3404 78.376 35.3664 78.4453 35.3664 78.532V78.714C35.3664 78.8007 35.3404 78.87 35.2884 78.922C35.2364 78.974 35.167 79 35.0804 79H34.3134ZM39.2712 79.13C38.3699 79.13 37.6722 78.87 37.1782 78.35C36.6842 77.8213 36.4242 77.0847 36.3982 76.14L36.3852 75.62L36.3982 75.1C36.4242 74.1553 36.6842 73.423 37.1782 72.903C37.6722 72.3743 38.3699 72.11 39.2712 72.11C39.8432 72.11 40.3286 72.214 40.7272 72.422C41.1346 72.6213 41.4379 72.8813 41.6372 73.202C41.8366 73.514 41.9449 73.839 41.9622 74.177C41.9709 74.255 41.9449 74.3243 41.8842 74.385C41.8236 74.437 41.7542 74.463 41.6762 74.463H41.4942C41.4076 74.463 41.3426 74.4457 41.2992 74.411C41.2646 74.3677 41.2256 74.294 41.1822 74.19C41.0089 73.7133 40.7662 73.3753 40.4542 73.176C40.1422 72.968 39.7479 72.864 39.2712 72.864C38.6472 72.864 38.1489 73.0547 37.7762 73.436C37.4122 73.8087 37.2172 74.385 37.1912 75.165L37.1782 75.62L37.1912 76.075C37.2172 76.855 37.4122 77.4357 37.7762 77.817C38.1489 78.1897 38.6472 78.376 39.2712 78.376C39.7479 78.376 40.1422 78.2763 40.4542 78.077C40.7662 77.869 41.0089 77.5267 41.1822 77.05C41.2256 76.946 41.2646 76.8767 41.2992 76.842C41.3426 76.7987 41.4076 76.777 41.4942 76.777H41.6762C41.7542 76.777 41.8236 76.8073 41.8842 76.868C41.9449 76.92 41.9709 76.985 41.9622 77.063C41.9449 77.401 41.8366 77.7303 41.6372 78.051C41.4379 78.363 41.1346 78.623 40.7272 78.831C40.3286 79.0303 39.8432 79.13 39.2712 79.13ZM43.979 79C43.8923 79 43.823 78.974 43.771 78.922C43.719 78.87 43.693 78.8007 43.693 78.714V70.056C43.693 69.9693 43.719 69.9 43.771 69.848C43.823 69.796 43.8923 69.77 43.979 69.77H44.2C44.2866 69.77 44.356 69.796 44.408 69.848C44.46 69.9 44.486 69.9693 44.486 70.056V73.137C44.746 72.799 45.0406 72.5433 45.37 72.37C45.708 72.1967 46.1413 72.11 46.67 72.11C47.5193 72.11 48.1736 72.383 48.633 72.929C49.0923 73.4663 49.322 74.164 49.322 75.022V78.714C49.322 78.8007 49.296 78.87 49.244 78.922C49.192 78.974 49.1226 79 49.036 79H48.815C48.7283 79 48.659 78.974 48.607 78.922C48.555 78.87 48.529 78.8007 48.529 78.714V75.087C48.529 74.385 48.3556 73.839 48.009 73.449C47.671 73.059 47.1813 72.864 46.54 72.864C45.916 72.864 45.4176 73.0633 45.045 73.462C44.6723 73.852 44.486 74.3937 44.486 75.087V78.714C44.486 78.8007 44.46 78.87 44.408 78.922C44.356 78.974 44.2866 79 44.2 79H43.979ZM57.7022 79.13C56.7488 79.13 56.0208 78.7877 55.5182 78.103V78.714C55.5182 78.8007 55.4922 78.87 55.4402 78.922C55.3882 78.974 55.3188 79 55.2322 79H55.0112C54.9245 79 54.8552 78.974 54.8032 78.922C54.7512 78.87 54.7252 78.8007 54.7252 78.714V70.056C54.7252 69.9693 54.7512 69.9 54.8032 69.848C54.8552 69.796 54.9245 69.77 55.0112 69.77H55.2322C55.3188 69.77 55.3882 69.796 55.4402 69.848C55.4922 69.9 55.5182 69.9693 55.5182 70.056V73.137C56.0295 72.4523 56.7575 72.11 57.7022 72.11C58.6382 72.11 59.3272 72.4177 59.7692 73.033C60.2198 73.6397 60.4582 74.3807 60.4842 75.256C60.4928 75.3427 60.4972 75.464 60.4972 75.62C60.4972 75.776 60.4928 75.8973 60.4842 75.984C60.4582 76.8593 60.2198 77.6047 59.7692 78.22C59.3272 78.8267 58.6382 79.13 57.7022 79.13ZM57.6242 78.376C58.3262 78.376 58.8375 78.155 59.1582 77.713C59.4875 77.2623 59.6652 76.686 59.6912 75.984C59.6998 75.8973 59.7042 75.776 59.7042 75.62C59.7042 74.814 59.5482 74.1553 59.2362 73.644C58.9242 73.124 58.3868 72.864 57.6242 72.864C57.1648 72.864 56.7792 72.9723 56.4672 73.189C56.1552 73.4057 55.9212 73.683 55.7652 74.021C55.6092 74.3503 55.5268 74.7013 55.5182 75.074L55.5052 75.581L55.5182 76.088C55.5442 76.7033 55.7305 77.2407 56.0772 77.7C56.4238 78.1507 56.9395 78.376 57.6242 78.376ZM64.8272 79.13C63.9259 79.13 63.2239 78.857 62.7212 78.311C62.2272 77.7563 61.9672 77.0413 61.9412 76.166L61.9282 75.62L61.9412 75.074C61.9672 74.1987 62.2272 73.488 62.7212 72.942C63.2239 72.3873 63.9259 72.11 64.8272 72.11C65.7285 72.11 66.4262 72.3873 66.9202 72.942C67.4229 73.488 67.6872 74.1987 67.7132 75.074C67.7219 75.1607 67.7262 75.3427 67.7262 75.62C67.7262 75.8973 67.7219 76.0793 67.7132 76.166C67.6872 77.0413 67.4229 77.7563 66.9202 78.311C66.4262 78.857 65.7285 79.13 64.8272 79.13ZM64.8272 78.376C65.4425 78.376 65.9365 78.181 66.3092 77.791C66.6905 77.3923 66.8942 76.829 66.9202 76.101C66.9289 76.0143 66.9332 75.854 66.9332 75.62C66.9332 75.386 66.9289 75.2257 66.9202 75.139C66.8942 74.411 66.6905 73.852 66.3092 73.462C65.9365 73.0633 65.4425 72.864 64.8272 72.864C64.2119 72.864 63.7135 73.0633 63.3322 73.462C62.9595 73.852 62.7602 74.411 62.7342 75.139L62.7212 75.62L62.7342 76.101C62.7602 76.829 62.9595 77.3923 63.3322 77.791C63.7135 78.181 64.2119 78.376 64.8272 78.376ZM71.701 79C71.0597 79 70.6047 78.8093 70.336 78.428C70.0674 78.038 69.933 77.505 69.933 76.829V72.994H68.919C68.8324 72.994 68.763 72.968 68.711 72.916C68.659 72.864 68.633 72.7947 68.633 72.708V72.526C68.633 72.4393 68.659 72.37 68.711 72.318C68.763 72.266 68.8324 72.24 68.919 72.24H69.933V70.056C69.933 69.9693 69.959 69.9 70.011 69.848C70.063 69.796 70.1324 69.77 70.219 69.77H70.44C70.5267 69.77 70.596 69.796 70.648 69.848C70.7 69.9 70.726 69.9693 70.726 70.056V72.24H72.338C72.4247 72.24 72.494 72.266 72.546 72.318C72.598 72.37 72.624 72.4393 72.624 72.526V72.708C72.624 72.7947 72.598 72.864 72.546 72.916C72.494 72.968 72.4247 72.994 72.338 72.994H70.726V76.777C70.726 77.2623 70.804 77.6307 70.96 77.882C71.1247 78.1247 71.3934 78.246 71.766 78.246H72.468C72.5547 78.246 72.624 78.272 72.676 78.324C72.728 78.376 72.754 78.4453 72.754 78.532V78.714C72.754 78.8007 72.728 78.87 72.676 78.922C72.624 78.974 72.5547 79 72.468 79H71.701ZM74.3969 79C74.3103 79 74.2409 78.974 74.1889 78.922C74.1369 78.87 74.1109 78.8007 74.1109 78.714V70.056C74.1109 69.9693 74.1369 69.9 74.1889 69.848C74.2409 69.796 74.3103 69.77 74.3969 69.77H74.6179C74.7046 69.77 74.7739 69.796 74.8259 69.848C74.8779 69.9 74.9039 69.9693 74.9039 70.056V73.137C75.1639 72.799 75.4586 72.5433 75.7879 72.37C76.1259 72.1967 76.5593 72.11 77.0879 72.11C77.9373 72.11 78.5916 72.383 79.0509 72.929C79.5103 73.4663 79.7399 74.164 79.7399 75.022V78.714C79.7399 78.8007 79.7139 78.87 79.6619 78.922C79.6099 78.974 79.5406 79 79.4539 79H79.2329C79.1463 79 79.0769 78.974 79.0249 78.922C78.9729 78.87 78.9469 78.8007 78.9469 78.714V75.087C78.9469 74.385 78.7736 73.839 78.4269 73.449C78.0889 73.059 77.5993 72.864 76.9579 72.864C76.3339 72.864 75.8356 73.0633 75.4629 73.462C75.0903 73.852 74.9039 74.3937 74.9039 75.087V78.714C74.9039 78.8007 74.8779 78.87 74.8259 78.922C74.7739 78.974 74.7046 79 74.6179 79H74.3969ZM88.0291 79.13C87.3531 79.13 86.7638 79.0217 86.2611 78.805C85.7671 78.5797 85.3858 78.2893 85.1171 77.934C84.8571 77.5787 84.7185 77.1973 84.7011 76.79C84.7011 76.7207 84.7271 76.66 84.7791 76.608C84.8311 76.556 84.8961 76.53 84.9741 76.53H85.2341C85.3901 76.53 85.4855 76.6167 85.5201 76.79C85.5808 77.206 85.8191 77.57 86.2351 77.882C86.6511 78.194 87.2491 78.35 88.0291 78.35C88.8525 78.35 89.4635 78.2027 89.8621 77.908C90.2695 77.6047 90.4731 77.1843 90.4731 76.647C90.4731 76.3177 90.3735 76.049 90.1741 75.841C89.9835 75.6243 89.7018 75.438 89.3291 75.282C88.9565 75.1173 88.3931 74.9137 87.6391 74.671C86.9718 74.4543 86.4475 74.242 86.0661 74.034C85.6935 73.826 85.4161 73.5703 85.2341 73.267C85.0521 72.9637 84.9611 72.578 84.9611 72.11C84.9611 71.668 85.0781 71.2693 85.3121 70.914C85.5548 70.5587 85.9015 70.2813 86.3521 70.082C86.8028 69.874 87.3401 69.77 87.9641 69.77C88.6055 69.77 89.1558 69.887 89.6151 70.121C90.0745 70.3463 90.4211 70.6367 90.6551 70.992C90.8891 71.3387 91.0148 71.6897 91.0321 72.045C91.0321 72.1143 91.0061 72.175 90.9541 72.227C90.9108 72.279 90.8458 72.305 90.7591 72.305H90.4991C90.4385 72.305 90.3778 72.2877 90.3171 72.253C90.2565 72.2097 90.2218 72.1403 90.2131 72.045C90.1611 71.6117 89.9271 71.2563 89.5111 70.979C89.1038 70.693 88.5881 70.55 87.9641 70.55C87.2968 70.55 86.7638 70.68 86.3651 70.94C85.9751 71.2 85.7801 71.59 85.7801 72.11C85.7801 72.448 85.8668 72.7297 86.0401 72.955C86.2221 73.1717 86.4908 73.3623 86.8461 73.527C87.2015 73.683 87.7258 73.8737 88.4191 74.099C89.1298 74.3243 89.6845 74.541 90.0831 74.749C90.4818 74.957 90.7808 75.2083 90.9801 75.503C91.1881 75.7977 91.2921 76.179 91.2921 76.647C91.2921 77.427 91.0018 78.038 90.4211 78.48C89.8405 78.9133 89.0431 79.13 88.0291 79.13ZM93.4562 79C93.3696 79 93.3002 78.974 93.2482 78.922C93.1962 78.87 93.1702 78.8007 93.1702 78.714V70.186C93.1702 70.0993 93.1962 70.03 93.2482 69.978C93.3002 69.926 93.3696 69.9 93.4562 69.9H93.7032C93.7899 69.9 93.8592 69.926 93.9112 69.978C93.9632 70.03 93.9892 70.0993 93.9892 70.186V78.714C93.9892 78.8007 93.9632 78.87 93.9112 78.922C93.8592 78.974 93.7899 79 93.7032 79H93.4562ZM96.7189 79C96.6323 79 96.5629 78.974 96.5109 78.922C96.4589 78.87 96.4329 78.8007 96.4329 78.714V70.199C96.4329 70.1123 96.4589 70.043 96.5109 69.991C96.5629 69.9303 96.6323 69.9 96.7189 69.9H99.8779C100.805 69.9 101.533 70.134 102.062 70.602C102.599 71.0613 102.868 71.7243 102.868 72.591C102.868 73.4577 102.599 74.125 102.062 74.593C101.533 75.0523 100.805 75.282 99.8779 75.282H97.2519V78.714C97.2519 78.8007 97.2216 78.87 97.1609 78.922C97.1089 78.974 97.0396 79 96.9529 79H96.7189ZM99.8129 74.502C100.558 74.502 101.117 74.3417 101.49 74.021C101.863 73.6917 102.049 73.215 102.049 72.591C102.049 71.967 101.863 71.4947 101.49 71.174C101.117 70.8447 100.558 70.68 99.8129 70.68H97.2519V74.502H99.8129ZM12.873 96.13C12.457 96.13 12.0713 96.0433 11.716 95.87C11.3607 95.6967 11.0747 95.4627 10.858 95.168C10.65 94.8733 10.546 94.5483 10.546 94.193C10.546 93.621 10.7757 93.153 11.235 92.789C11.703 92.425 12.3313 92.191 13.12 92.087L15.174 91.801V91.346C15.174 90.8693 15.0267 90.5053 14.732 90.254C14.446 89.994 14.004 89.864 13.406 89.864C12.964 89.864 12.6 89.9507 12.314 90.124C12.0367 90.2973 11.859 90.5053 11.781 90.748C11.7463 90.852 11.703 90.9257 11.651 90.969C11.6077 91.0037 11.547 91.021 11.469 91.021H11.287C11.209 91.021 11.1397 90.995 11.079 90.943C11.027 90.8823 11.001 90.813 11.001 90.735C11.001 90.5443 11.0877 90.3233 11.261 90.072C11.4343 89.812 11.703 89.5867 12.067 89.396C12.431 89.2053 12.8773 89.11 13.406 89.11C14.3333 89.11 14.992 89.331 15.382 89.773C15.772 90.215 15.967 90.7523 15.967 91.385V95.714C15.967 95.8007 15.941 95.87 15.889 95.922C15.837 95.974 15.7677 96 15.681 96H15.46C15.3733 96 15.304 95.974 15.252 95.922C15.2 95.87 15.174 95.8007 15.174 95.714V95.103C14.9833 95.389 14.7017 95.6317 14.329 95.831C13.965 96.0303 13.4797 96.13 12.873 96.13ZM13.003 95.376C13.6357 95.376 14.1557 95.168 14.563 94.752C14.9703 94.336 15.174 93.738 15.174 92.958V92.516L13.497 92.75C12.7863 92.8453 12.249 93.01 11.885 93.244C11.521 93.478 11.339 93.7727 11.339 94.128C11.339 94.5267 11.5037 94.8343 11.833 95.051C12.171 95.2677 12.561 95.376 13.003 95.376ZM18.3087 96C18.2221 96 18.1527 95.974 18.1007 95.922C18.0487 95.87 18.0227 95.8007 18.0227 95.714V89.526C18.0227 89.4393 18.0487 89.37 18.1007 89.318C18.1527 89.266 18.2221 89.24 18.3087 89.24H18.5297C18.6164 89.24 18.6857 89.266 18.7377 89.318C18.7897 89.37 18.8157 89.4393 18.8157 89.526V90.137C19.0757 89.799 19.3704 89.5433 19.6997 89.37C20.0377 89.1967 20.4711 89.11 20.9997 89.11C21.8491 89.11 22.5034 89.383 22.9627 89.929C23.4221 90.4663 23.6517 91.164 23.6517 92.022V95.714C23.6517 95.8007 23.6257 95.87 23.5737 95.922C23.5217 95.974 23.4524 96 23.3657 96H23.1447C23.0581 96 22.9887 95.974 22.9367 95.922C22.8847 95.87 22.8587 95.8007 22.8587 95.714V92.087C22.8587 91.385 22.6854 90.839 22.3387 90.449C22.0007 90.059 21.5111 89.864 20.8697 89.864C20.2457 89.864 19.7474 90.0633 19.3747 90.462C19.0021 90.852 18.8157 91.3937 18.8157 92.087V95.714C18.8157 95.8007 18.7897 95.87 18.7377 95.922C18.6857 95.974 18.6164 96 18.5297 96H18.3087ZM28.1347 96.13C27.1987 96.13 26.5054 95.8267 26.0547 95.22C25.6127 94.6047 25.3787 93.8593 25.3527 92.984L25.3397 92.62L25.3527 92.256C25.3787 91.3807 25.6127 90.6397 26.0547 90.033C26.5054 89.4177 27.1987 89.11 28.1347 89.11C29.0794 89.11 29.8074 89.4523 30.3187 90.137V87.056C30.3187 86.9693 30.3447 86.9 30.3967 86.848C30.4487 86.796 30.518 86.77 30.6047 86.77H30.8257C30.9124 86.77 30.9817 86.796 31.0337 86.848C31.0857 86.9 31.1117 86.9693 31.1117 87.056V95.714C31.1117 95.8007 31.0857 95.87 31.0337 95.922C30.9817 95.974 30.9124 96 30.8257 96H30.6047C30.518 96 30.4487 95.974 30.3967 95.922C30.3447 95.87 30.3187 95.8007 30.3187 95.714V95.103C29.816 95.7877 29.088 96.13 28.1347 96.13ZM28.2127 95.376C28.8974 95.376 29.413 95.1507 29.7597 94.7C30.1064 94.2407 30.2927 93.7033 30.3187 93.088C30.3274 93.0013 30.3317 92.8323 30.3317 92.581C30.3317 92.3297 30.3274 92.1607 30.3187 92.074C30.31 91.7013 30.2277 91.3503 30.0717 91.021C29.9157 90.683 29.6817 90.4057 29.3697 90.189C29.0577 89.9723 28.672 89.864 28.2127 89.864C27.5107 89.864 26.995 90.0893 26.6657 90.54C26.345 90.982 26.1717 91.554 26.1457 92.256L26.1327 92.62C26.1327 93.426 26.2887 94.089 26.6007 94.609C26.9127 95.1203 27.45 95.376 28.2127 95.376ZM39.1443 96.13C38.2429 96.13 37.5453 95.87 37.0513 95.35C36.5573 94.8213 36.2973 94.0847 36.2713 93.14L36.2583 92.62L36.2713 92.1C36.2973 91.1553 36.5573 90.423 37.0513 89.903C37.5453 89.3743 38.2429 89.11 39.1443 89.11C39.7163 89.11 40.2016 89.214 40.6003 89.422C41.0076 89.6213 41.3109 89.8813 41.5103 90.202C41.7096 90.514 41.8179 90.839 41.8353 91.177C41.8439 91.255 41.8179 91.3243 41.7573 91.385C41.6966 91.437 41.6273 91.463 41.5493 91.463H41.3673C41.2806 91.463 41.2156 91.4457 41.1723 91.411C41.1376 91.3677 41.0986 91.294 41.0553 91.19C40.8819 90.7133 40.6393 90.3753 40.3273 90.176C40.0153 89.968 39.6209 89.864 39.1443 89.864C38.5203 89.864 38.0219 90.0547 37.6493 90.436C37.2853 90.8087 37.0903 91.385 37.0643 92.165L37.0513 92.62L37.0643 93.075C37.0903 93.855 37.2853 94.4357 37.6493 94.817C38.0219 95.1897 38.5203 95.376 39.1443 95.376C39.6209 95.376 40.0153 95.2763 40.3273 95.077C40.6393 94.869 40.8819 94.5267 41.0553 94.05C41.0986 93.946 41.1376 93.8767 41.1723 93.842C41.2156 93.7987 41.2806 93.777 41.3673 93.777H41.5493C41.6273 93.777 41.6966 93.8073 41.7573 93.868C41.8179 93.92 41.8439 93.985 41.8353 94.063C41.8179 94.401 41.7096 94.7303 41.5103 95.051C41.3109 95.363 41.0076 95.623 40.6003 95.831C40.2016 96.0303 39.7163 96.13 39.1443 96.13ZM46.127 96.13C45.2257 96.13 44.5237 95.857 44.021 95.311C43.527 94.7563 43.267 94.0413 43.241 93.166L43.228 92.62L43.241 92.074C43.267 91.1987 43.527 90.488 44.021 89.942C44.5237 89.3873 45.2257 89.11 46.127 89.11C47.0283 89.11 47.726 89.3873 48.22 89.942C48.7227 90.488 48.987 91.1987 49.013 92.074C49.0217 92.1607 49.026 92.3427 49.026 92.62C49.026 92.8973 49.0217 93.0793 49.013 93.166C48.987 94.0413 48.7227 94.7563 48.22 95.311C47.726 95.857 47.0283 96.13 46.127 96.13ZM46.127 95.376C46.7423 95.376 47.2363 95.181 47.609 94.791C47.9903 94.3923 48.194 93.829 48.22 93.101C48.2287 93.0143 48.233 92.854 48.233 92.62C48.233 92.386 48.2287 92.2257 48.22 92.139C48.194 91.411 47.9903 90.852 47.609 90.462C47.2363 90.0633 46.7423 89.864 46.127 89.864C45.5117 89.864 45.0133 90.0633 44.632 90.462C44.2593 90.852 44.06 91.411 44.034 92.139L44.021 92.62L44.034 93.101C44.06 93.829 44.2593 94.3923 44.632 94.791C45.0133 95.181 45.5117 95.376 46.127 95.376ZM51.088 96C51.0014 96 50.932 95.974 50.88 95.922C50.828 95.87 50.802 95.8007 50.802 95.714V89.539C50.802 89.4523 50.828 89.383 50.88 89.331C50.932 89.2703 51.0014 89.24 51.088 89.24H51.296C51.3827 89.24 51.452 89.2703 51.504 89.331C51.5647 89.383 51.595 89.4523 51.595 89.539V90.137C51.907 89.539 52.4964 89.24 53.363 89.24H53.844C53.9307 89.24 54 89.266 54.052 89.318C54.104 89.37 54.13 89.4393 54.13 89.526V89.708C54.13 89.7947 54.104 89.864 54.052 89.916C54 89.968 53.9307 89.994 53.844 89.994H53.285C52.765 89.994 52.3534 90.1457 52.05 90.449C51.7467 90.7523 51.595 91.164 51.595 91.684V95.714C51.595 95.8007 51.5647 95.87 51.504 95.922C51.452 95.974 51.3827 96 51.296 96H51.088ZM55.6206 98.47C55.5339 98.47 55.4646 98.444 55.4126 98.392C55.3606 98.34 55.3346 98.2707 55.3346 98.184V89.526C55.3346 89.4393 55.3606 89.37 55.4126 89.318C55.4646 89.266 55.5339 89.24 55.6206 89.24H55.8416C55.9282 89.24 55.9976 89.266 56.0496 89.318C56.1016 89.37 56.1276 89.4393 56.1276 89.526V90.137C56.6302 89.4523 57.3582 89.11 58.3116 89.11C59.2476 89.11 59.9366 89.409 60.3786 90.007C60.8292 90.5963 61.0676 91.3243 61.0936 92.191C61.1022 92.2777 61.1066 92.4207 61.1066 92.62C61.1066 92.8193 61.1022 92.9623 61.0936 93.049C61.0676 93.9157 60.8292 94.648 60.3786 95.246C59.9366 95.8353 59.2476 96.13 58.3116 96.13C57.3669 96.13 56.6389 95.7877 56.1276 95.103V98.184C56.1276 98.2707 56.1016 98.34 56.0496 98.392C55.9976 98.444 55.9282 98.47 55.8416 98.47H55.6206ZM58.2336 95.376C58.9356 95.376 59.4469 95.155 59.7676 94.713C60.0969 94.2623 60.2746 93.686 60.3006 92.984C60.3092 92.8973 60.3136 92.776 60.3136 92.62C60.3136 91.814 60.1576 91.1553 59.8456 90.644C59.5336 90.124 58.9962 89.864 58.2336 89.864C57.5489 89.864 57.0332 90.0937 56.6866 90.553C56.3399 91.0037 56.1536 91.5367 56.1276 92.152L56.1146 92.659L56.1276 93.166C56.1362 93.5387 56.2186 93.894 56.3746 94.232C56.5306 94.5613 56.7646 94.8343 57.0766 95.051C57.3886 95.2677 57.7742 95.376 58.2336 95.376ZM65.4103 96.13C64.5609 96.13 63.9153 95.8613 63.4733 95.324C63.0313 94.7867 62.8103 94.0847 62.8103 93.218V89.526C62.8103 89.4393 62.8363 89.37 62.8883 89.318C62.9403 89.266 63.0096 89.24 63.0963 89.24H63.3173C63.4039 89.24 63.4733 89.266 63.5253 89.318C63.5773 89.37 63.6033 89.4393 63.6033 89.526V93.153C63.6033 94.635 64.2489 95.376 65.5403 95.376C66.1643 95.376 66.6583 95.181 67.0223 94.791C67.3949 94.3923 67.5813 93.8463 67.5813 93.153V89.526C67.5813 89.4393 67.6073 89.37 67.6593 89.318C67.7113 89.266 67.7806 89.24 67.8673 89.24H68.0883C68.1749 89.24 68.2443 89.266 68.2963 89.318C68.3483 89.37 68.3743 89.4393 68.3743 89.526V95.714C68.3743 95.8007 68.3483 95.87 68.2963 95.922C68.2443 95.974 68.1749 96 68.0883 96H67.8673C67.7806 96 67.7113 95.974 67.6593 95.922C67.6073 95.87 67.5813 95.8007 67.5813 95.714V95.103C67.3213 95.441 67.0223 95.6967 66.6843 95.87C66.3549 96.0433 65.9303 96.13 65.4103 96.13ZM72.6248 96.13C72.0614 96.13 71.5848 96.0347 71.1948 95.844C70.8134 95.6533 70.5231 95.4367 70.3238 95.194C70.1331 94.9513 70.0378 94.7563 70.0378 94.609C70.0378 94.531 70.0681 94.4703 70.1288 94.427C70.1894 94.375 70.2544 94.349 70.3238 94.349H70.5188C70.5794 94.349 70.6271 94.362 70.6618 94.388C70.7051 94.4053 70.7528 94.4487 70.8048 94.518C70.9954 94.7867 71.2251 94.999 71.4938 95.155C71.7711 95.3023 72.1481 95.376 72.6248 95.376C73.1621 95.376 73.5954 95.2763 73.9248 95.077C74.2541 94.869 74.4188 94.5743 74.4188 94.193C74.4188 93.959 74.3494 93.7683 74.2108 93.621C74.0808 93.4737 73.8641 93.348 73.5608 93.244C73.2661 93.1313 72.8241 93.0057 72.2348 92.867C71.4634 92.6937 70.9348 92.4553 70.6488 92.152C70.3714 91.8487 70.2328 91.463 70.2328 90.995C70.2328 90.6743 70.3194 90.371 70.4928 90.085C70.6748 89.799 70.9391 89.565 71.2858 89.383C71.6411 89.201 72.0658 89.11 72.5598 89.11C73.0798 89.11 73.5174 89.201 73.8728 89.383C74.2368 89.5563 74.5054 89.76 74.6788 89.994C74.8608 90.228 74.9518 90.4187 74.9518 90.566C74.9518 90.644 74.9214 90.709 74.8608 90.761C74.8088 90.8043 74.7438 90.826 74.6658 90.826H74.4708C74.3494 90.826 74.2541 90.7697 74.1848 90.657C74.0114 90.397 73.8121 90.202 73.5868 90.072C73.3701 89.9333 73.0278 89.864 72.5598 89.864C72.0571 89.864 71.6758 89.968 71.4158 90.176C71.1558 90.384 71.0258 90.657 71.0258 90.995C71.0258 91.203 71.0778 91.3763 71.1818 91.515C71.2858 91.6537 71.4808 91.7837 71.7668 91.905C72.0528 92.0177 72.4688 92.1347 73.0148 92.256C73.8208 92.438 74.3884 92.6807 74.7178 92.984C75.0471 93.2873 75.2118 93.6903 75.2118 94.193C75.2118 94.5483 75.1121 94.8733 74.9128 95.168C74.7134 95.4627 74.4188 95.6967 74.0288 95.87C73.6388 96.0433 73.1708 96.13 72.6248 96.13ZM82.2128 96C81.5714 96 81.1164 95.8093 80.8478 95.428C80.5791 95.038 80.4448 94.505 80.4448 93.829V89.994H79.4308C79.3441 89.994 79.2748 89.968 79.2228 89.916C79.1708 89.864 79.1448 89.7947 79.1448 89.708V89.526C79.1448 89.4393 79.1708 89.37 79.2228 89.318C79.2748 89.266 79.3441 89.24 79.4308 89.24H80.4448V87.056C80.4448 86.9693 80.4708 86.9 80.5228 86.848C80.5748 86.796 80.6441 86.77 80.7308 86.77H80.9518C81.0384 86.77 81.1078 86.796 81.1598 86.848C81.2118 86.9 81.2378 86.9693 81.2378 87.056V89.24H82.8498C82.9364 89.24 83.0058 89.266 83.0578 89.318C83.1098 89.37 83.1358 89.4393 83.1358 89.526V89.708C83.1358 89.7947 83.1098 89.864 83.0578 89.916C83.0058 89.968 82.9364 89.994 82.8498 89.994H81.2378V93.777C81.2378 94.2623 81.3158 94.6307 81.4718 94.882C81.6364 95.1247 81.9051 95.246 82.2778 95.246H82.9798C83.0664 95.246 83.1358 95.272 83.1878 95.324C83.2398 95.376 83.2658 95.4453 83.2658 95.532V95.714C83.2658 95.8007 83.2398 95.87 83.1878 95.922C83.1358 95.974 83.0664 96 82.9798 96H82.2128ZM87.1836 96.13C86.2823 96.13 85.5803 95.857 85.0776 95.311C84.5836 94.7563 84.3236 94.0413 84.2976 93.166L84.2846 92.62L84.2976 92.074C84.3236 91.1987 84.5836 90.488 85.0776 89.942C85.5803 89.3873 86.2823 89.11 87.1836 89.11C88.085 89.11 88.7826 89.3873 89.2766 89.942C89.7793 90.488 90.0436 91.1987 90.0696 92.074C90.0783 92.1607 90.0826 92.3427 90.0826 92.62C90.0826 92.8973 90.0783 93.0793 90.0696 93.166C90.0436 94.0413 89.7793 94.7563 89.2766 95.311C88.7826 95.857 88.085 96.13 87.1836 96.13ZM87.1836 95.376C87.799 95.376 88.293 95.181 88.6656 94.791C89.047 94.3923 89.2506 93.829 89.2766 93.101C89.2853 93.0143 89.2896 92.854 89.2896 92.62C89.2896 92.386 89.2853 92.2257 89.2766 92.139C89.2506 91.411 89.047 90.852 88.6656 90.462C88.293 90.0633 87.799 89.864 87.1836 89.864C86.5683 89.864 86.07 90.0633 85.6886 90.462C85.316 90.852 85.1166 91.411 85.0906 92.139L85.0776 92.62L85.0906 93.101C85.1166 93.829 85.316 94.3923 85.6886 94.791C86.07 95.181 86.5683 95.376 87.1836 95.376ZM11.339 113C11.2523 113 11.183 112.974 11.131 112.922C11.079 112.87 11.053 112.801 11.053 112.714V106.539C11.053 106.452 11.079 106.383 11.131 106.331C11.183 106.27 11.2523 106.24 11.339 106.24H11.547C11.6337 106.24 11.703 106.27 11.755 106.331C11.8157 106.383 11.846 106.452 11.846 106.539V107.137C12.158 106.539 12.7473 106.24 13.614 106.24H14.095C14.1817 106.24 14.251 106.266 14.303 106.318C14.355 106.37 14.381 106.439 14.381 106.526V106.708C14.381 106.795 14.355 106.864 14.303 106.916C14.251 106.968 14.1817 106.994 14.095 106.994H13.536C13.016 106.994 12.6043 107.146 12.301 107.449C11.9977 107.752 11.846 108.164 11.846 108.684V112.714C11.846 112.801 11.8157 112.87 11.755 112.922C11.703 112.974 11.6337 113 11.547 113H11.339ZM17.9292 113.13C17.1059 113.13 16.4429 112.861 15.9402 112.324C15.4375 111.778 15.1515 111.05 15.0822 110.14L15.0692 109.62L15.0822 109.1C15.1515 108.199 15.4332 107.475 15.9272 106.929C16.4299 106.383 17.0972 106.11 17.9292 106.11C18.8305 106.11 19.5325 106.409 20.0352 107.007C20.5465 107.605 20.8022 108.424 20.8022 109.464V109.659C20.8022 109.746 20.7719 109.815 20.7112 109.867C20.6592 109.919 20.5899 109.945 20.5032 109.945H15.8752V110.075C15.8925 110.482 15.9835 110.864 16.1482 111.219C16.3215 111.566 16.5599 111.847 16.8632 112.064C17.1665 112.272 17.5219 112.376 17.9292 112.376C18.4059 112.376 18.7915 112.285 19.0862 112.103C19.3895 111.912 19.6062 111.722 19.7362 111.531C19.8142 111.427 19.8705 111.362 19.9052 111.336C19.9485 111.31 20.0222 111.297 20.1262 111.297H20.3342C20.4122 111.297 20.4772 111.319 20.5292 111.362C20.5812 111.405 20.6072 111.462 20.6072 111.531C20.6072 111.713 20.4902 111.934 20.2562 112.194C20.0309 112.445 19.7145 112.666 19.3072 112.857C18.8999 113.039 18.4405 113.13 17.9292 113.13ZM20.0092 109.217V109.165C20.0092 108.498 19.8185 107.947 19.4372 107.514C19.0645 107.081 18.5619 106.864 17.9292 106.864C17.2965 106.864 16.7939 107.081 16.4212 107.514C16.0572 107.947 15.8752 108.498 15.8752 109.165V109.217H20.0092ZM25.0779 113.13C24.1765 113.13 23.4789 112.87 22.9849 112.35C22.4909 111.821 22.2309 111.085 22.2049 110.14L22.1919 109.62L22.2049 109.1C22.2309 108.155 22.4909 107.423 22.9849 106.903C23.4789 106.374 24.1765 106.11 25.0779 106.11C25.6499 106.11 26.1352 106.214 26.5339 106.422C26.9412 106.621 27.2445 106.881 27.4439 107.202C27.6432 107.514 27.7515 107.839 27.7689 108.177C27.7775 108.255 27.7515 108.324 27.6909 108.385C27.6302 108.437 27.5609 108.463 27.4829 108.463H27.3009C27.2142 108.463 27.1492 108.446 27.1059 108.411C27.0712 108.368 27.0322 108.294 26.9889 108.19C26.8155 107.713 26.5729 107.375 26.2609 107.176C25.9489 106.968 25.5545 106.864 25.0779 106.864C24.4539 106.864 23.9555 107.055 23.5829 107.436C23.2189 107.809 23.0239 108.385 22.9979 109.165L22.9849 109.62L22.9979 110.075C23.0239 110.855 23.2189 111.436 23.5829 111.817C23.9555 112.19 24.4539 112.376 25.0779 112.376C25.5545 112.376 25.9489 112.276 26.2609 112.077C26.5729 111.869 26.8155 111.527 26.9889 111.05C27.0322 110.946 27.0712 110.877 27.1059 110.842C27.1492 110.799 27.2142 110.777 27.3009 110.777H27.4829C27.5609 110.777 27.6302 110.807 27.6909 110.868C27.7515 110.92 27.7775 110.985 27.7689 111.063C27.7515 111.401 27.6432 111.73 27.4439 112.051C27.2445 112.363 26.9412 112.623 26.5339 112.831C26.1352 113.03 25.6499 113.13 25.0779 113.13ZM32.0606 113.13C31.1593 113.13 30.4573 112.857 29.9546 112.311C29.4606 111.756 29.2006 111.041 29.1746 110.166L29.1616 109.62L29.1746 109.074C29.2006 108.199 29.4606 107.488 29.9546 106.942C30.4573 106.387 31.1593 106.11 32.0606 106.11C32.9619 106.11 33.6596 106.387 34.1536 106.942C34.6563 107.488 34.9206 108.199 34.9466 109.074C34.9553 109.161 34.9596 109.343 34.9596 109.62C34.9596 109.897 34.9553 110.079 34.9466 110.166C34.9206 111.041 34.6563 111.756 34.1536 112.311C33.6596 112.857 32.9619 113.13 32.0606 113.13ZM32.0606 112.376C32.6759 112.376 33.1699 112.181 33.5426 111.791C33.9239 111.392 34.1276 110.829 34.1536 110.101C34.1623 110.014 34.1666 109.854 34.1666 109.62C34.1666 109.386 34.1623 109.226 34.1536 109.139C34.1276 108.411 33.9239 107.852 33.5426 107.462C33.1699 107.063 32.6759 106.864 32.0606 106.864C31.4453 106.864 30.9469 107.063 30.5656 107.462C30.1929 107.852 29.9936 108.411 29.9676 109.139L29.9546 109.62L29.9676 110.101C29.9936 110.829 30.1929 111.392 30.5656 111.791C30.9469 112.181 31.4453 112.376 32.0606 112.376ZM37.0216 113C36.935 113 36.8656 112.974 36.8136 112.922C36.7616 112.87 36.7356 112.801 36.7356 112.714V106.526C36.7356 106.439 36.7616 106.37 36.8136 106.318C36.8656 106.266 36.935 106.24 37.0216 106.24H37.2426C37.3293 106.24 37.3986 106.266 37.4506 106.318C37.5026 106.37 37.5286 106.439 37.5286 106.526V106.981C37.754 106.695 38.014 106.478 38.3086 106.331C38.612 106.184 38.9716 106.11 39.3876 106.11C40.3583 106.11 41.0516 106.517 41.4676 107.332C41.6756 106.959 41.9703 106.665 42.3516 106.448C42.7416 106.223 43.1836 106.11 43.6776 106.11C44.397 106.11 44.982 106.357 45.4326 106.851C45.8833 107.336 46.1086 108.03 46.1086 108.931V112.714C46.1086 112.801 46.0826 112.87 46.0306 112.922C45.9786 112.974 45.9093 113 45.8226 113H45.6016C45.515 113 45.4456 112.974 45.3936 112.922C45.3416 112.87 45.3156 112.801 45.3156 112.714V109.061C45.3156 108.272 45.151 107.709 44.8216 107.371C44.501 107.033 44.0763 106.864 43.5476 106.864C43.0796 106.864 42.6723 107.037 42.3256 107.384C41.9876 107.722 41.8186 108.281 41.8186 109.061V112.714C41.8186 112.801 41.7926 112.87 41.7406 112.922C41.6886 112.974 41.6193 113 41.5326 113H41.3116C41.225 113 41.1556 112.974 41.1036 112.922C41.0516 112.87 41.0256 112.801 41.0256 112.714V109.061C41.0256 108.281 40.8566 107.722 40.5186 107.384C40.1806 107.037 39.7603 106.864 39.2576 106.864C38.7896 106.864 38.3823 107.037 38.0356 107.384C37.6976 107.722 37.5286 108.277 37.5286 109.048V112.714C37.5286 112.801 37.5026 112.87 37.4506 112.922C37.3986 112.974 37.3293 113 37.2426 113H37.0216ZM48.4347 113C48.348 113 48.2787 112.974 48.2267 112.922C48.1747 112.87 48.1487 112.801 48.1487 112.714V106.526C48.1487 106.439 48.1747 106.37 48.2267 106.318C48.2787 106.266 48.348 106.24 48.4347 106.24H48.6557C48.7424 106.24 48.8117 106.266 48.8637 106.318C48.9157 106.37 48.9417 106.439 48.9417 106.526V106.981C49.167 106.695 49.427 106.478 49.7217 106.331C50.025 106.184 50.3847 106.11 50.8007 106.11C51.7714 106.11 52.4647 106.517 52.8807 107.332C53.0887 106.959 53.3834 106.665 53.7647 106.448C54.1547 106.223 54.5967 106.11 55.0907 106.11C55.81 106.11 56.395 106.357 56.8457 106.851C57.2964 107.336 57.5217 108.03 57.5217 108.931V112.714C57.5217 112.801 57.4957 112.87 57.4437 112.922C57.3917 112.974 57.3224 113 57.2357 113H57.0147C56.928 113 56.8587 112.974 56.8067 112.922C56.7547 112.87 56.7287 112.801 56.7287 112.714V109.061C56.7287 108.272 56.564 107.709 56.2347 107.371C55.914 107.033 55.4894 106.864 54.9607 106.864C54.4927 106.864 54.0854 107.037 53.7387 107.384C53.4007 107.722 53.2317 108.281 53.2317 109.061V112.714C53.2317 112.801 53.2057 112.87 53.1537 112.922C53.1017 112.974 53.0324 113 52.9457 113H52.7247C52.638 113 52.5687 112.974 52.5167 112.922C52.4647 112.87 52.4387 112.801 52.4387 112.714V109.061C52.4387 108.281 52.2697 107.722 51.9317 107.384C51.5937 107.037 51.1734 106.864 50.6707 106.864C50.2027 106.864 49.7954 107.037 49.4487 107.384C49.1107 107.722 48.9417 108.277 48.9417 109.048V112.714C48.9417 112.801 48.9157 112.87 48.8637 112.922C48.8117 112.974 48.7424 113 48.6557 113H48.4347ZM62.0708 113.13C61.2475 113.13 60.5845 112.861 60.0818 112.324C59.5791 111.778 59.2931 111.05 59.2238 110.14L59.2108 109.62L59.2238 109.1C59.2931 108.199 59.5748 107.475 60.0688 106.929C60.5715 106.383 61.2388 106.11 62.0708 106.11C62.9721 106.11 63.6741 106.409 64.1768 107.007C64.6881 107.605 64.9438 108.424 64.9438 109.464V109.659C64.9438 109.746 64.9135 109.815 64.8528 109.867C64.8008 109.919 64.7315 109.945 64.6448 109.945H60.0168V110.075C60.0341 110.482 60.1251 110.864 60.2898 111.219C60.4631 111.566 60.7015 111.847 61.0048 112.064C61.3081 112.272 61.6635 112.376 62.0708 112.376C62.5475 112.376 62.9331 112.285 63.2278 112.103C63.5311 111.912 63.7478 111.722 63.8778 111.531C63.9558 111.427 64.0121 111.362 64.0468 111.336C64.0901 111.31 64.1638 111.297 64.2678 111.297H64.4758C64.5538 111.297 64.6188 111.319 64.6708 111.362C64.7228 111.405 64.7488 111.462 64.7488 111.531C64.7488 111.713 64.6318 111.934 64.3978 112.194C64.1725 112.445 63.8561 112.666 63.4488 112.857C63.0415 113.039 62.5821 113.13 62.0708 113.13ZM64.1508 109.217V109.165C64.1508 108.498 63.9601 107.947 63.5788 107.514C63.2061 107.081 62.7035 106.864 62.0708 106.864C61.4381 106.864 60.9355 107.081 60.5628 107.514C60.1988 107.947 60.0168 108.498 60.0168 109.165V109.217H64.1508ZM66.9445 113C66.8578 113 66.7885 112.974 66.7365 112.922C66.6845 112.87 66.6585 112.801 66.6585 112.714V106.526C66.6585 106.439 66.6845 106.37 66.7365 106.318C66.7885 106.266 66.8578 106.24 66.9445 106.24H67.1655C67.2521 106.24 67.3215 106.266 67.3735 106.318C67.4255 106.37 67.4515 106.439 67.4515 106.526V107.137C67.7115 106.799 68.0061 106.543 68.3355 106.37C68.6735 106.197 69.1068 106.11 69.6355 106.11C70.4848 106.11 71.1391 106.383 71.5985 106.929C72.0578 107.466 72.2875 108.164 72.2875 109.022V112.714C72.2875 112.801 72.2615 112.87 72.2095 112.922C72.1575 112.974 72.0881 113 72.0015 113H71.7805C71.6938 113 71.6245 112.974 71.5725 112.922C71.5205 112.87 71.4945 112.801 71.4945 112.714V109.087C71.4945 108.385 71.3211 107.839 70.9745 107.449C70.6365 107.059 70.1468 106.864 69.5055 106.864C68.8815 106.864 68.3831 107.063 68.0105 107.462C67.6378 107.852 67.4515 108.394 67.4515 109.087V112.714C67.4515 112.801 67.4255 112.87 67.3735 112.922C67.3215 112.974 67.2521 113 67.1655 113H66.9445ZM76.7704 113.13C75.8344 113.13 75.1411 112.827 74.6904 112.22C74.2484 111.605 74.0144 110.859 73.9884 109.984L73.9754 109.62L73.9884 109.256C74.0144 108.381 74.2484 107.64 74.6904 107.033C75.1411 106.418 75.8344 106.11 76.7704 106.11C77.7151 106.11 78.4431 106.452 78.9544 107.137V104.056C78.9544 103.969 78.9804 103.9 79.0324 103.848C79.0844 103.796 79.1538 103.77 79.2404 103.77H79.4614C79.5481 103.77 79.6174 103.796 79.6694 103.848C79.7214 103.9 79.7474 103.969 79.7474 104.056V112.714C79.7474 112.801 79.7214 112.87 79.6694 112.922C79.6174 112.974 79.5481 113 79.4614 113H79.2404C79.1538 113 79.0844 112.974 79.0324 112.922C78.9804 112.87 78.9544 112.801 78.9544 112.714V112.103C78.4518 112.788 77.7238 113.13 76.7704 113.13ZM76.8484 112.376C77.5331 112.376 78.0488 112.151 78.3954 111.7C78.7421 111.241 78.9284 110.703 78.9544 110.088C78.9631 110.001 78.9674 109.832 78.9674 109.581C78.9674 109.33 78.9631 109.161 78.9544 109.074C78.9458 108.701 78.8634 108.35 78.7074 108.021C78.5514 107.683 78.3174 107.406 78.0054 107.189C77.6934 106.972 77.3078 106.864 76.8484 106.864C76.1464 106.864 75.6308 107.089 75.3014 107.54C74.9808 107.982 74.8074 108.554 74.7814 109.256L74.7684 109.62C74.7684 110.426 74.9244 111.089 75.2364 111.609C75.5484 112.12 76.0858 112.376 76.8484 112.376ZM84.3765 113.13C83.5531 113.13 82.8901 112.861 82.3875 112.324C81.8848 111.778 81.5988 111.05 81.5295 110.14L81.5165 109.62L81.5295 109.1C81.5988 108.199 81.8805 107.475 82.3745 106.929C82.8771 106.383 83.5445 106.11 84.3765 106.11C85.2778 106.11 85.9798 106.409 86.4825 107.007C86.9938 107.605 87.2495 108.424 87.2495 109.464V109.659C87.2495 109.746 87.2191 109.815 87.1585 109.867C87.1065 109.919 87.0371 109.945 86.9505 109.945H82.3225V110.075C82.3398 110.482 82.4308 110.864 82.5955 111.219C82.7688 111.566 83.0071 111.847 83.3105 112.064C83.6138 112.272 83.9691 112.376 84.3765 112.376C84.8531 112.376 85.2388 112.285 85.5335 112.103C85.8368 111.912 86.0535 111.722 86.1835 111.531C86.2615 111.427 86.3178 111.362 86.3525 111.336C86.3958 111.31 86.4695 111.297 86.5735 111.297H86.7815C86.8595 111.297 86.9245 111.319 86.9765 111.362C87.0285 111.405 87.0545 111.462 87.0545 111.531C87.0545 111.713 86.9375 111.934 86.7035 112.194C86.4781 112.445 86.1618 112.666 85.7545 112.857C85.3471 113.039 84.8878 113.13 84.3765 113.13ZM86.4565 109.217V109.165C86.4565 108.498 86.2658 107.947 85.8845 107.514C85.5118 107.081 85.0091 106.864 84.3765 106.864C83.7438 106.864 83.2411 107.081 82.8685 107.514C82.5045 107.947 82.3225 108.498 82.3225 109.165V109.217H86.4565ZM91.4081 113.13C90.4721 113.13 89.7788 112.827 89.3281 112.22C88.8861 111.605 88.6521 110.859 88.6261 109.984L88.6131 109.62L88.6261 109.256C88.6521 108.381 88.8861 107.64 89.3281 107.033C89.7788 106.418 90.4721 106.11 91.4081 106.11C92.3528 106.11 93.0808 106.452 93.5921 107.137V104.056C93.5921 103.969 93.6181 103.9 93.6701 103.848C93.7221 103.796 93.7915 103.77 93.8781 103.77H94.0991C94.1858 103.77 94.2551 103.796 94.3071 103.848C94.3591 103.9 94.3851 103.969 94.3851 104.056V112.714C94.3851 112.801 94.3591 112.87 94.3071 112.922C94.2551 112.974 94.1858 113 94.0991 113H93.8781C93.7915 113 93.7221 112.974 93.6701 112.922C93.6181 112.87 93.5921 112.801 93.5921 112.714V112.103C93.0895 112.788 92.3615 113.13 91.4081 113.13ZM91.4861 112.376C92.1708 112.376 92.6865 112.151 93.0331 111.7C93.3798 111.241 93.5661 110.703 93.5921 110.088C93.6008 110.001 93.6051 109.832 93.6051 109.581C93.6051 109.33 93.6008 109.161 93.5921 109.074C93.5835 108.701 93.5011 108.35 93.3451 108.021C93.1891 107.683 92.9551 107.406 92.6431 107.189C92.3311 106.972 91.9455 106.864 91.4861 106.864C90.7841 106.864 90.2685 107.089 89.9391 107.54C89.6185 107.982 89.4451 108.554 89.4191 109.256L89.4061 109.62C89.4061 110.426 89.5621 111.089 89.8741 111.609C90.1861 112.12 90.7235 112.376 91.4861 112.376ZM11.976 130C11.8893 130 11.82 129.974 11.768 129.922C11.716 129.87 11.69 129.801 11.69 129.714V123.994H10.533C10.4463 123.994 10.377 123.968 10.325 123.916C10.273 123.864 10.247 123.795 10.247 123.708V123.526C10.247 123.439 10.273 123.37 10.325 123.318C10.377 123.266 10.4463 123.24 10.533 123.24H11.69V122.499C11.69 121.84 11.833 121.325 12.119 120.952C12.405 120.571 12.9163 120.38 13.653 120.38H14.329C14.4157 120.38 14.485 120.406 14.537 120.458C14.589 120.51 14.615 120.579 14.615 120.666V120.848C14.615 120.935 14.589 121.004 14.537 121.056C14.485 121.108 14.4157 121.134 14.329 121.134H13.653C13.211 121.134 12.9033 121.251 12.73 121.485C12.5653 121.71 12.483 122.07 12.483 122.564V123.24H14.199C14.2857 123.24 14.355 123.266 14.407 123.318C14.459 123.37 14.485 123.439 14.485 123.526V123.708C14.485 123.795 14.459 123.864 14.407 123.916C14.355 123.968 14.2857 123.994 14.199 123.994H12.483V129.714C12.483 129.801 12.457 129.87 12.405 129.922C12.353 129.974 12.2837 130 12.197 130H11.976ZM18.2726 130.13C17.4232 130.13 16.7776 129.861 16.3356 129.324C15.8936 128.787 15.6726 128.085 15.6726 127.218V123.526C15.6726 123.439 15.6986 123.37 15.7506 123.318C15.8026 123.266 15.8719 123.24 15.9586 123.24H16.1796C16.2662 123.24 16.3356 123.266 16.3876 123.318C16.4396 123.37 16.4656 123.439 16.4656 123.526V127.153C16.4656 128.635 17.1112 129.376 18.4026 129.376C19.0266 129.376 19.5206 129.181 19.8846 128.791C20.2572 128.392 20.4436 127.846 20.4436 127.153V123.526C20.4436 123.439 20.4696 123.37 20.5216 123.318C20.5736 123.266 20.6429 123.24 20.7296 123.24H20.9506C21.0372 123.24 21.1066 123.266 21.1586 123.318C21.2106 123.37 21.2366 123.439 21.2366 123.526V129.714C21.2366 129.801 21.2106 129.87 21.1586 129.922C21.1066 129.974 21.0372 130 20.9506 130H20.7296C20.6429 130 20.5736 129.974 20.5216 129.922C20.4696 129.87 20.4436 129.801 20.4436 129.714V129.103C20.1836 129.441 19.8846 129.697 19.5466 129.87C19.2172 130.043 18.7926 130.13 18.2726 130.13ZM23.6281 130C23.5414 130 23.4721 129.974 23.4201 129.922C23.3681 129.87 23.3421 129.801 23.3421 129.714V123.526C23.3421 123.439 23.3681 123.37 23.4201 123.318C23.4721 123.266 23.5414 123.24 23.6281 123.24H23.8491C23.9357 123.24 24.0051 123.266 24.0571 123.318C24.1091 123.37 24.1351 123.439 24.1351 123.526V124.137C24.3951 123.799 24.6897 123.543 25.0191 123.37C25.3571 123.197 25.7904 123.11 26.3191 123.11C27.1684 123.11 27.8227 123.383 28.2821 123.929C28.7414 124.466 28.9711 125.164 28.9711 126.022V129.714C28.9711 129.801 28.9451 129.87 28.8931 129.922C28.8411 129.974 28.7717 130 28.6851 130H28.4641C28.3774 130 28.3081 129.974 28.2561 129.922C28.2041 129.87 28.1781 129.801 28.1781 129.714V126.087C28.1781 125.385 28.0047 124.839 27.6581 124.449C27.3201 124.059 26.8304 123.864 26.1891 123.864C25.5651 123.864 25.0667 124.063 24.6941 124.462C24.3214 124.852 24.1351 125.394 24.1351 126.087V129.714C24.1351 129.801 24.1091 129.87 24.0571 129.922C24.0051 129.974 23.9357 130 23.8491 130H23.6281ZM33.454 130.13C32.518 130.13 31.8247 129.827 31.374 129.22C30.932 128.605 30.698 127.859 30.672 126.984L30.659 126.62L30.672 126.256C30.698 125.381 30.932 124.64 31.374 124.033C31.8247 123.418 32.518 123.11 33.454 123.11C34.3987 123.11 35.1267 123.452 35.638 124.137V121.056C35.638 120.969 35.664 120.9 35.716 120.848C35.768 120.796 35.8374 120.77 35.924 120.77H36.145C36.2317 120.77 36.301 120.796 36.353 120.848C36.405 120.9 36.431 120.969 36.431 121.056V129.714C36.431 129.801 36.405 129.87 36.353 129.922C36.301 129.974 36.2317 130 36.145 130H35.924C35.8374 130 35.768 129.974 35.716 129.922C35.664 129.87 35.638 129.801 35.638 129.714V129.103C35.1354 129.788 34.4074 130.13 33.454 130.13ZM33.532 129.376C34.2167 129.376 34.7324 129.151 35.079 128.7C35.4257 128.241 35.612 127.703 35.638 127.088C35.6467 127.001 35.651 126.832 35.651 126.581C35.651 126.33 35.6467 126.161 35.638 126.074C35.6294 125.701 35.547 125.35 35.391 125.021C35.235 124.683 35.001 124.406 34.689 124.189C34.377 123.972 33.9914 123.864 33.532 123.864C32.83 123.864 32.3144 124.089 31.985 124.54C31.6644 124.982 31.491 125.554 31.465 126.256L31.452 126.62C31.452 127.426 31.608 128.089 31.92 128.609C32.232 129.12 32.7694 129.376 33.532 129.376ZM40.696 130.13C40.1327 130.13 39.656 130.035 39.266 129.844C38.8847 129.653 38.5944 129.437 38.395 129.194C38.2044 128.951 38.109 128.756 38.109 128.609C38.109 128.531 38.1394 128.47 38.2 128.427C38.2607 128.375 38.3257 128.349 38.395 128.349H38.59C38.6507 128.349 38.6984 128.362 38.733 128.388C38.7764 128.405 38.824 128.449 38.876 128.518C39.0667 128.787 39.2964 128.999 39.565 129.155C39.8424 129.302 40.2194 129.376 40.696 129.376C41.2334 129.376 41.6667 129.276 41.996 129.077C42.3254 128.869 42.49 128.574 42.49 128.193C42.49 127.959 42.4207 127.768 42.282 127.621C42.152 127.474 41.9354 127.348 41.632 127.244C41.3374 127.131 40.8954 127.006 40.306 126.867C39.5347 126.694 39.006 126.455 38.72 126.152C38.4427 125.849 38.304 125.463 38.304 124.995C38.304 124.674 38.3907 124.371 38.564 124.085C38.746 123.799 39.0104 123.565 39.357 123.383C39.7124 123.201 40.137 123.11 40.631 123.11C41.151 123.11 41.5887 123.201 41.944 123.383C42.308 123.556 42.5767 123.76 42.75 123.994C42.932 124.228 43.023 124.419 43.023 124.566C43.023 124.644 42.9927 124.709 42.932 124.761C42.88 124.804 42.815 124.826 42.737 124.826H42.542C42.4207 124.826 42.3254 124.77 42.256 124.657C42.0827 124.397 41.8834 124.202 41.658 124.072C41.4414 123.933 41.099 123.864 40.631 123.864C40.1284 123.864 39.747 123.968 39.487 124.176C39.227 124.384 39.097 124.657 39.097 124.995C39.097 125.203 39.149 125.376 39.253 125.515C39.357 125.654 39.552 125.784 39.838 125.905C40.124 126.018 40.54 126.135 41.086 126.256C41.892 126.438 42.4597 126.681 42.789 126.984C43.1184 127.287 43.283 127.69 43.283 128.193C43.283 128.548 43.1834 128.873 42.984 129.168C42.7847 129.463 42.49 129.697 42.1 129.87C41.71 130.043 41.242 130.13 40.696 130.13ZM45.1315 130C45.0448 130 44.9755 129.974 44.9235 129.922C44.8715 129.87 44.8455 129.801 44.8455 129.714V129.09C44.8455 129.003 44.8715 128.934 44.9235 128.882C44.9755 128.821 45.0448 128.791 45.1315 128.791H45.7555C45.8422 128.791 45.9115 128.821 45.9635 128.882C46.0242 128.934 46.0545 129.003 46.0545 129.09V129.714C46.0545 129.801 46.0242 129.87 45.9635 129.922C45.9115 129.974 45.8422 130 45.7555 130H45.1315Z" fill="#767E86"/>
<defs>
<filter id="filter0_dd" x="-7.38464" y="-2" width="173.077" height="164" filterUnits="userSpaceOnUse" color-interpolation-filters="sRGB">
<feFlood flood-opacity="0" result="BackgroundImageFix"/>
<feColorMatrix in="SourceAlpha" type="matrix" values="0 0 0 0 0 0 0 0 0 0 0 0 0 0 0 0 0 0 127 0"/>
<feOffset dy="2"/>
<feGaussianBlur stdDeviation="1"/>
<feColorMatrix type="matrix" values="0 0 0 0 0 0 0 0 0 0 0 0 0 0 0 0 0 0 0.0483186 0"/>
<feBlend mode="normal" in2="BackgroundImageFix" result="effect1_dropShadow"/>
<feColorMatrix in="SourceAlpha" type="matrix" values="0 0 0 0 0 0 0 0 0 0 0 0 0 0 0 0 0 0 127 0"/>
<feOffset/>
<feGaussianBlur stdDeviation="1"/>
<feColorMatrix type="matrix" values="0 0 0 0 0 0 0 0 0 0 0 0 0 0 0 0 0 0 0.12 0"/>
<feBlend mode="normal" in2="effect1_dropShadow" result="effect2_dropShadow"/>
<feBlend mode="normal" in="SourceGraphic" in2="effect2_dropShadow" result="shape"/>
</filter>
</defs>
</svg>
