<svg width="95" height="52" viewBox="0 0 95 52" fill="none" xmlns="http://www.w3.org/2000/svg">
<rect x="13.5713" y="9.49268" width="69.0546" height="42.3226" rx="6.00476" fill="#8279F8"/>
<path d="M23.5498 9.49316H27.5414V15.0126C27.5414 16.1148 26.6479 17.0084 25.5456 17.0084C24.4434 17.0084 23.5498 16.1148 23.5498 15.0126V9.49316Z" fill="#9D95F8"/>
<path d="M68.6553 9.49316H72.6469V15.0126C72.6469 16.1148 71.7533 17.0084 70.6511 17.0084C69.5488 17.0084 68.6553 16.1148 68.6553 15.0126V9.49316Z" fill="#9D95F8"/>
<rect x="39.5166" y="22.1504" width="16.7647" height="16.6126" rx="2.40191" fill="#EFEEFB"/>
<path fill-rule="evenodd" clip-rule="evenodd" d="M42.71 35.2998C42.71 32.6249 44.8783 30.4565 47.5532 30.4565H48.2449C50.9197 30.4565 53.0881 32.6249 53.0881 35.2998V36.7852H42.71V35.2998Z" fill="#675AF6"/>
<ellipse cx="47.8986" cy="26.8967" rx="2.79412" ry="2.76877" fill="#675AF6"/>
<path fill-rule="evenodd" clip-rule="evenodd" d="M36.337 0C33.6839 0 31.5332 2.15074 31.5332 4.80381V9.49292H34.3273V7.17704C34.3273 4.52397 36.478 2.37323 39.1311 2.37323H56.2672C58.9203 2.37323 61.071 4.52397 61.071 7.17704V9.49292H63.8651V4.80381C63.8651 2.15074 61.7144 0 59.0613 0H36.337Z" fill="#9D95F8"/>
<rect y="25.71" width="33.9286" height="20.1725" rx="3.60286" fill="white"/>
<path fill-rule="evenodd" clip-rule="evenodd" d="M27.4585 37.5759C28.1256 37.5759 28.5032 36.811 28.0975 36.2814L26.319 33.9596C26.0369 33.5873 25.8445 33.348 25.7419 33.2682C26.4216 33.1087 26.9602 32.8162 27.3706 32.3907C27.6527 32.0716 27.8451 31.6728 27.922 31.2207H28.936C29.1266 31.2207 29.2953 31.0977 29.3537 30.9163C29.4447 30.633 29.2335 30.3432 28.936 30.3432H27.9477C27.8964 29.7981 27.7297 29.3328 27.4604 28.9605H28.9232C29.1137 28.9605 29.2825 28.8375 29.3408 28.6561C29.4319 28.3728 29.2207 28.083 28.9232 28.083H23.7533C23.5627 28.083 23.3939 28.206 23.3356 28.3875C23.2446 28.6707 23.4558 28.9605 23.7533 28.9605H24.5236C25.152 28.9605 25.6265 29.0935 25.9599 29.386C26.2164 29.612 26.3703 29.9311 26.4344 30.3432H23.779C23.5884 30.3432 23.4196 30.4663 23.3613 30.6477C23.2702 30.9309 23.4814 31.2207 23.779 31.2207H26.4088C26.3318 31.5531 26.1523 31.819 25.883 32.0184C25.4854 32.3109 24.8827 32.4572 24.0747 32.4572H23.7981C23.5118 32.4572 23.2796 32.6893 23.2796 32.9757C23.2796 33.2621 23.5199 33.4869 23.7847 33.5959C23.8929 33.6404 23.9986 33.6996 24.1004 33.7734C24.3312 33.933 24.5492 34.1457 24.7544 34.4382L26.8088 37.2463C26.9604 37.4535 27.2017 37.5759 27.4585 37.5759Z" fill="#9D95F8"/>
<rect x="2.79395" y="29.6655" width="16.3655" height="1.18662" rx="0.593308" fill="#EFEEFB"/>
<rect x="2.79395" y="32.0386" width="16.3655" height="1.18662" rx="0.593308" fill="#EFEEFB"/>
<rect x="2.79395" y="39.1582" width="28.3403" height="1.18662" rx="0.593308" fill="#EFEEFB"/>
<rect x="2.79395" y="34.4116" width="16.3655" height="1.18662" rx="0.593308" fill="#EFEEFB"/>
<rect x="2.79395" y="36.7852" width="16.3655" height="1.18662" rx="0.593308" fill="#EFEEFB"/>
<rect x="2.79395" y="41.5317" width="28.3403" height="1.18662" rx="0.593308" fill="#EFEEFB"/>
<path d="M70.6504 19.7865C70.6504 19.3443 71.0088 18.9858 71.451 18.9858H93.001C93.4432 18.9858 93.8017 19.3443 93.8017 19.7865V48.6512H70.6504V19.7865Z" fill="#EFEEFB"/>
<rect x="72.2471" y="23.3369" width="19.958" height="1.18662" rx="0.593308" fill="#EFEEFB"/>
<rect x="72.2471" y="25.71" width="19.958" height="1.18662" rx="0.593308" fill="#EFEEFB"/>
<rect x="72.2471" y="28.083" width="19.958" height="1.18662" rx="0.593308" fill="#EFEEFB"/>
<rect x="72.2471" y="30.4565" width="19.958" height="1.18662" rx="0.593308" fill="#EFEEFB"/>
<rect x="72.2471" y="32.8296" width="19.958" height="1.18662" rx="0.593308" fill="#EFEEFB"/>
<path fill-rule="evenodd" clip-rule="evenodd" d="M69.8525 35.8067C69.8525 34.7013 70.7487 33.8051 71.8541 33.8051H82.5173C83.2063 33.8051 83.8469 33.4508 84.213 32.8672L85.4366 30.9164C85.8027 30.3328 86.4432 29.9784 87.1322 29.9784H89.5012C91.2472 29.9784 92.6626 28.5631 92.6626 26.8171C92.6626 26.6425 92.8041 26.501 92.9787 26.501H94.5993C94.8204 26.501 94.9996 26.6802 94.9996 26.9013V49.9983C94.9996 51.1038 94.1035 51.9999 92.998 51.9999H71.8541C70.7487 51.9999 69.8525 51.1038 69.8525 49.9983V35.8067Z" fill="#9D95F8"/>
</svg>
