<svg width="241" height="132" viewBox="0 0 241 132" fill="none" xmlns="http://www.w3.org/2000/svg">
<g clip-path="url(#clip0)">
<path d="M1.58373 80.3261C1.62198 80.1471 1.65822 79.9682 1.7005 79.7912C3.0212 73.7087 5.17939 67.8473 8.38851 62.4645C8.49521 62.2855 8.60192 62.1066 8.71064 61.9276C10.8267 58.4643 13.3587 55.2724 16.2502 52.4227C17.8487 50.8463 19.5922 49.3483 21.6659 48.2685C24.571 46.7524 27.9673 46.1371 31.3053 45.6344C34.7721 45.1096 38.2872 44.6712 41.7923 44.1987C43.0378 44.0338 44.276 43.8589 45.5067 43.6739C48.893 43.1732 52.2552 42.5941 55.5368 41.826C59.5935 40.8789 63.5253 39.6383 67.2398 37.8929C67.5364 37.7589 67.8297 37.6168 68.1196 37.4667C68.4095 37.3219 68.7014 37.1751 68.9873 37.0263C69.2732 36.8775 69.555 36.7287 69.8349 36.5759C69.9798 36.4975 70.1248 36.4191 70.2677 36.3366C70.4106 36.2542 70.5516 36.1818 70.6905 36.1014C71.1092 35.8681 71.5199 35.6288 71.9307 35.3875L71.9468 35.3775C72.2185 35.2186 72.4863 35.0558 72.752 34.8929C74.27 33.972 75.7558 33.0108 77.2416 32.0436L78.1757 31.4404L79.6233 30.5054C79.9051 30.3224 80.193 30.1394 80.4769 29.9585C80.6782 29.8258 80.8795 29.6931 81.099 29.5563C82.1539 28.8928 83.223 28.2413 84.3202 27.6199C84.5799 27.4711 84.8416 27.3224 85.1053 27.1776C87.3221 25.9424 89.6404 24.8984 92.035 24.0569L92.0672 24.0448C93.2718 23.6251 94.5008 23.2786 95.7474 23.0073C96.4661 22.8504 97.1869 22.7217 97.9157 22.6232C99.8638 22.3473 101.839 22.3196 103.794 22.5408C107.633 22.9851 111.231 24.457 115.068 24.9537C122.968 25.9591 130.641 22.7197 138.07 20.1821C139.896 19.5588 141.736 18.975 143.59 18.4308C144.822 18.0668 146.058 17.723 147.304 17.3912C154.939 15.3764 162.732 14.0116 170.598 13.3114C173.886 12.9895 177.193 12.9163 180.493 13.0922C181.747 13.1686 182.987 13.2932 184.205 13.4943C188.373 14.1378 192.258 15.487 195.395 17.9582C197.964 19.9871 199.802 22.6312 201.201 25.3981C202.633 28.2213 203.645 31.2385 204.203 34.354C204.279 34.7783 204.348 35.2045 204.404 35.6308C204.505 36.3601 204.58 37.0933 204.63 37.8306C204.9 41.7604 204.431 45.7061 203.244 49.4629C201.916 53.6694 199.701 57.707 198.727 61.9457C198.686 62.1253 198.648 62.3043 198.612 62.4826C198.479 63.1264 198.38 63.7768 198.316 64.431C197.819 69.6389 199.725 74.7161 201.221 79.8093C201.273 79.9863 201.326 80.1652 201.376 80.3442C201.537 80.9099 201.692 81.4749 201.839 82.0393C203.224 87.4241 203.609 93.189 202.375 98.5637C202.336 98.7427 202.29 98.9216 202.246 99.0986C201.42 102.496 199.866 105.675 197.692 108.415C195.381 111.31 192.347 113.721 189.105 115.839C187.526 116.871 185.892 117.835 184.205 118.732C182.997 119.376 181.76 119.985 180.493 120.56C170.336 125.185 158.75 127.443 147.292 126.944C146.688 126.918 146.084 126.886 145.48 126.842C144.876 126.797 144.216 126.745 143.584 126.687C136.203 125.971 129.022 124.244 121.891 122.355C119.501 121.722 117.116 121.073 114.732 120.435C113.671 120.154 112.612 119.872 111.551 119.599C106.355 118.258 101.082 117.043 95.7434 116.136C94.5072 115.923 93.2697 115.729 92.0309 115.553C87.7297 114.922 83.3937 114.554 79.0475 114.453C77.3577 114.42 75.6672 114.434 73.9761 114.497C73.1225 114.528 72.2682 114.574 71.4132 114.636C62.5851 115.257 54.053 117.337 45.5067 119.279C44.2706 119.561 43.0325 119.838 41.7923 120.111C40.1656 120.469 38.5389 120.815 36.9041 121.135C26.7312 123.132 17.6635 121.983 8.20531 117.863C6.05516 116.928 3.90702 115.798 2.59035 114.043C1.27368 112.288 0.943514 110.132 0.697893 108.051C0.349596 105.087 0.122103 102.085 0.0355393 99.0664C0.0355393 98.8895 0.0355393 98.7105 0.0234543 98.5316C-0.113447 92.4349 0.341554 86.28 1.58373 80.3261Z" fill="#E6E5F4"/>
<path d="M22.4677 48.0603C23.4658 47.9384 24.531 47.9814 25.4592 48.3754C27.4329 49.2132 27.994 51.5449 27.9669 53.4401C27.9377 55.48 27.5045 57.7081 29.0554 59.3516C29.7683 60.1072 30.6551 60.6855 31.3551 61.455C32.1031 62.2773 32.69 63.2182 33.1246 64.2285C33.9225 66.0844 34.3141 68.2668 33.5845 70.2136C32.942 71.9276 31.3257 73.4747 31.675 75.4237C32.0393 77.4569 34.0891 79.0113 35.3707 80.5257C36.8211 82.2395 38.1566 84.43 38.3759 86.6775C38.5863 88.8314 37.6487 91.0098 36.2099 92.6379C33.335 95.8913 29.0136 97.4862 24.6564 97.4764C22.8064 97.4721 20.7118 97.3885 19.1153 96.3944C18.6219 96.0871 18.3616 95.7423 18.0683 95.2631C17.8053 94.8334 17.4579 94.5538 17.0558 94.2497C16.1723 93.5818 15.5343 92.6817 15.1271 91.674C13.546 87.7602 14.8097 82.9184 17.0229 79.4429C17.5474 78.6195 17.9767 77.8271 17.7219 76.8457C17.4561 75.8211 16.8027 74.8971 16.2247 74.0164C15.6536 73.146 15.0016 72.3157 14.5552 71.3746C14.0877 70.3888 13.9561 69.3565 14.0387 68.2776C14.1939 66.2509 15.0688 64.3807 16.3074 62.7508C17.5004 61.1809 18.9013 59.6787 18.9044 57.6216C18.9078 55.4414 17.4503 53.5019 18.0712 51.2853C18.3283 50.3674 18.8448 49.4257 19.677 48.8754C20.4751 48.3477 21.529 48.175 22.4677 48.0603Z" fill="#9D95F8"/>
<path d="M21.815 51.5456C21.8337 51.2528 22.181 51.0772 22.4545 51.1536C22.8144 51.2542 22.8075 51.5905 22.798 51.8901C22.7688 52.8111 22.9021 53.7061 23.1235 54.5996C23.5836 56.4574 24.4339 58.1691 25.1076 59.9537C25.7807 61.7367 26.0967 63.5777 25.7018 65.4645C25.3296 67.2434 24.7448 68.9763 24.3638 70.7575C24.028 72.3274 23.6708 73.9829 24.1821 75.5488C24.6742 77.0561 25.762 78.2836 26.5453 79.6457C28.1669 82.4655 28.8863 85.5936 28.9825 88.8128C29.0271 90.3076 28.987 91.8162 28.6402 93.2823C28.4406 94.1265 28.1724 95.2674 27.4489 95.8503C27.1154 96.119 26.5448 96.212 26.2641 95.8139C26.0005 95.4406 26.2317 94.8627 26.3154 94.4648C26.6778 92.7424 26.7507 90.9821 26.6639 89.2332C26.58 87.5391 26.3798 85.8478 25.8466 84.2299C25.3518 82.7284 24.6 81.3798 23.7152 80.0664C22.8136 78.7278 21.8763 77.3865 21.5037 75.8005C21.1252 74.1897 21.4327 72.5506 21.8439 70.9706C22.2787 69.2994 22.8483 67.6761 23.4371 66.0501C24.0109 64.4657 24.2143 62.9666 23.8975 61.3084C23.2718 58.0323 21.5968 54.9573 21.815 51.5456Z" fill="#EFEEFB"/>
<path d="M48.8176 52.0347C50.0527 52.4097 51.2794 53.0148 52.1598 53.9635C54.032 55.9812 53.4576 59.0306 52.4241 61.2578C51.3117 63.655 49.6259 66.0646 50.5762 68.8151C51.013 70.0796 51.7474 71.2248 52.1618 72.499C52.6044 73.8606 52.7955 75.2787 52.7712 76.6996C52.7261 79.3094 52.0319 82.0942 50.1471 84.0169C48.4876 85.7098 45.7742 86.6985 45.1536 89.1852C44.5062 91.7792 46.0889 94.6838 46.7916 97.1415C47.587 99.9229 47.9955 103.208 47.0649 105.98C46.1731 108.637 43.922 110.725 41.3738 111.902C36.2822 114.254 30.3707 113.892 25.2653 111.614C23.0977 110.646 20.6851 109.458 19.3381 107.452C18.9218 106.832 18.7987 106.289 18.708 105.569C18.6266 104.924 18.3669 104.413 18.056 103.844C17.3728 102.595 17.1002 101.198 17.1553 99.7946C17.3695 94.3435 21.4109 89.2749 25.8438 86.316C26.8941 85.6151 27.8165 84.9014 28.0365 83.6081C28.2662 82.2582 27.9882 80.8254 27.7758 79.4833C27.566 78.1568 27.2401 76.8357 27.214 75.4906C27.1867 74.0815 27.578 72.7921 28.2451 71.5592C29.4984 69.2431 31.5131 67.4865 33.8274 66.2033C36.0565 64.9673 38.4935 63.9195 39.5845 61.4884C40.7409 58.9118 40.0564 55.8599 41.9564 53.5615C42.7431 52.6097 43.8466 51.7647 45.1136 51.5469C46.3286 51.3379 47.656 51.682 48.8176 52.0347Z" fill="#B9B3F9"/>
<path d="M46.2973 56.2962C46.4727 55.9593 46.9708 55.9334 47.2505 56.1671C47.6186 56.4749 47.4344 56.8696 47.2664 57.2194C46.75 58.2947 46.4371 59.4245 46.2279 60.5987C45.793 63.0399 45.8909 65.5126 45.744 67.9791C45.5972 70.4435 45.0025 72.7892 43.5527 74.8166C42.1857 76.7282 40.5944 78.4738 39.2161 80.3835C38.0013 82.0666 36.7164 83.8399 36.4943 85.9623C36.2802 88.0052 36.9093 90.029 37.1118 92.0527C37.5312 96.2418 36.7342 100.323 35.1607 104.186C34.43 105.98 33.593 107.745 32.4196 109.3C31.7441 110.195 30.8329 111.405 29.6818 111.716C29.151 111.86 28.4351 111.671 28.3153 111.052C28.2026 110.472 28.7757 109.909 29.0819 109.482C30.4078 107.632 31.4149 105.585 32.2294 103.469C33.0185 101.418 33.6702 99.3106 33.8941 97.1152C34.1018 95.0777 33.929 93.0866 33.5823 91.0674C33.2291 89.0097 32.8356 86.93 33.2306 84.8565C33.6316 82.7506 34.8496 80.9707 36.1579 79.3151C37.5416 77.5639 39.0577 75.94 40.5978 74.3231C42.0986 72.7476 43.1215 71.0789 43.6196 68.9492C44.6036 64.7415 44.2555 60.2221 46.2973 56.2962Z" fill="#EFEEFB"/>
<path d="M10.6361 67.5117C12.6899 67.5117 14.4954 68.6003 15.7396 70.1451C17.196 71.9535 17.4901 74.1618 18.0815 76.3171C18.3758 77.3897 18.8819 78.4544 19.7688 79.1832C20.5756 79.8459 21.5997 79.9785 22.5654 80.3023C24.4952 80.9494 26.0535 82.5082 26.6689 84.4102C27.4197 86.7302 26.6245 89.07 26.7614 91.4212C26.8871 93.5805 29.0161 94.9276 30.7291 95.9627C32.4181 96.9835 33.9397 97.9389 34.4485 99.9274C34.9879 102.036 35.1689 104.39 34.4217 106.474C33.1777 109.943 29.537 111.47 26.0191 111.707C22.8266 111.922 18.8123 111.584 16.4147 109.267C14.98 107.88 14.4604 105.941 14.5249 104.011C14.5649 102.811 14.8026 101.622 15.1099 100.463C15.3277 99.6409 15.622 98.8226 15.7058 97.9734C15.9287 95.714 13.8405 95.2801 12.0629 94.6597C9.80421 93.8713 8.22291 92.3822 7.12332 90.3076C6.0993 88.3759 5.66965 86.2076 6.28351 84.0808C6.59704 82.9949 7.16569 82.0096 7.9369 81.1716C8.27639 80.8028 8.75488 80.4951 9.06129 80.1076C9.3473 79.7457 9.28504 79.2768 9.18647 78.8529C8.73072 76.895 7.31076 75.2738 6.80295 73.3194C6.34449 71.5553 6.61551 69.3598 8.22833 68.2218C8.92514 67.73 9.78445 67.5171 10.6361 67.5117Z" fill="#C6C2F9"/>
<path d="M13.4364 72.6131C15.6131 74.9318 16.2048 78.0777 16.3784 81.1268C16.4757 82.8366 16.3745 84.6401 16.8768 86.2985C17.3066 87.718 18.3142 88.803 19.3529 89.8285C21.4436 91.8929 23.7753 93.9916 24.3868 96.9793C24.7456 98.7327 24.5034 100.544 24.9992 102.278C25.45 103.854 26.2438 105.403 27.2092 106.734C27.9866 107.805 28.9993 108.626 29.8491 109.625C30.1083 109.93 30.4797 110.379 30.3727 110.81C30.2475 111.314 29.6052 111.473 29.1495 111.394C28.0871 111.21 27.1927 110.195 26.498 109.457C25.4822 108.379 24.619 107.219 23.9174 105.918C23.1385 104.473 22.5113 102.939 22.2434 101.318C21.9653 99.636 22.1037 97.8832 21.4687 96.269C20.4002 93.553 17.8086 91.9502 15.9348 89.8333C13.6002 87.1956 13.9484 83.9126 14.1875 80.6679C14.3188 78.8848 14.4494 76.8711 13.5484 75.2431C13.2045 74.6216 12.4376 74.0422 12.2897 73.3358C12.1543 72.6886 12.8936 72.0346 13.4364 72.6131Z" fill="#EFEEFB"/>
<path d="M15.7578 110.717C15.7578 123.977 17.922 130.925 29.3464 130.925C40.7709 130.925 42.935 123.977 42.935 110.717H15.7578Z" fill="#9D95F8"/>
<path d="M97.777 99.8659C99.6023 80.639 197.536 43.529 215.717 61.7404C233.898 79.9517 229.296 118.258 191.196 127.01C153.095 135.762 95.9517 119.093 97.777 99.8659Z" fill="#EFEEFB"/>
<path d="M1 130.726L241 130.272" stroke="#9D95F8"/>
<path fill-rule="evenodd" clip-rule="evenodd" d="M96.7184 73.9695L125.214 73.6981C135.53 73.5998 143.972 81.8825 144.07 92.198C144.071 92.2573 144.071 92.3166 144.071 92.3759V129.871H132.276H75V95.8957C75 83.8671 84.6904 74.084 96.7184 73.9695Z" fill="#9D95F8"/>
<path d="M109.691 84.6582C109.603 84.6582 109.515 84.746 109.428 84.746C109.34 84.746 109.252 84.6582 109.164 84.6582H109.691Z" fill="#8279F8"/>
<path d="M121.967 73.5184C121.967 73.5184 121.967 73.5184 121.967 73.6061C121.967 74.4832 121.529 80.0966 109.688 84.5697H109.162C97.3213 80.0966 96.8828 74.4832 96.8828 73.6061C96.8828 73.5184 96.8828 73.5184 96.8828 73.5184C96.8828 72.3782 97.1459 71.238 97.409 70.0977C100.829 74.3955 104.952 77.2899 109.425 77.2899C113.898 77.2899 118.02 74.3955 121.441 70.0977C121.704 71.238 121.967 72.3782 121.967 73.5184Z" fill="#FFEBE4"/>
<path d="M121.968 73.5195C121.968 73.5195 122.582 79.8346 109.426 84.7463C109.426 84.7463 119.506 85.3494 122.589 92.1919C122.616 92.2531 122.605 92.3769 122.67 92.3769C122.734 92.3769 122.734 92.3065 122.811 92.1372C123.703 90.1876 128.182 76.9898 121.968 73.5195ZM96.8833 73.5195C90.1297 77.291 96.0062 92.5524 96.1816 92.2892C99.2515 85.2725 109.426 84.6586 109.426 84.6586C96.2694 79.8346 96.8833 73.5195 96.8833 73.5195Z" fill="#4F44D0"/>
<path d="M127.847 51.3285C127.057 56.7665 124.689 61.8536 120.742 65.7128C119.953 66.5022 119.251 67.1161 118.374 67.7301L116.971 63.2569H101.885L100.482 67.7301C97.6749 65.6251 91.7984 59.7486 91.7107 54.2229C89.2548 22.7354 113.375 29.4013 113.375 29.4013C129.601 28.2611 129.075 42.5576 127.847 51.3285Z" fill="#FFEBE4"/>
<path d="M131.091 57.0304C129.863 59.0477 128.197 60.4511 126.618 60.9773C127.232 59.574 127.758 58.0829 128.197 56.5919C128.197 56.5919 128.197 56.5919 128.197 56.5042C128.547 55.1885 128.898 53.8729 129.249 52.5573H129.161C129.512 51.2416 129.863 49.926 130.126 48.6104C130.477 48.6104 130.828 48.7858 131.179 48.9612C133.108 50.1891 133.021 53.7852 131.091 57.0304ZM92.2355 60.9773C90.6568 60.4511 88.9903 59.0477 87.7624 57.0304C85.7451 53.7852 85.7451 50.1891 87.6747 49.0489C87.8501 48.9612 87.9378 48.8735 88.1132 48.8735C89.1657 52.9958 90.3936 56.0656 90.6568 56.6796C91.0953 58.0829 91.6216 59.574 92.2355 60.9773Z" fill="#FFEBE4"/>
<path d="M118.987 20.6301C119.689 12.5609 106.883 13.0871 106.883 13.0871C87.4995 15.8938 85.3945 33.9619 85.3945 33.9619L88.0258 30.8043C83.9035 39.8384 90.1308 55.3628 90.657 56.5908C93.9023 67.379 101.095 77.2901 109.427 77.2901C117.759 77.2901 124.951 67.379 128.197 56.5908C128.197 56.5908 128.197 56.5908 128.197 56.5031C128.548 55.1874 128.898 53.8718 129.161 52.5561H129.074C130.828 45.5394 132.758 38.435 132.758 38.435C137.757 13.2625 118.987 20.6301 118.987 20.6301ZM127.846 51.3282C127.056 56.7662 124.688 61.8533 120.741 65.7125C119.952 66.5019 119.163 67.1158 118.373 67.7298L116.97 63.3443H101.884L100.481 67.8175C97.6738 65.7125 95.3056 62.8181 93.376 59.4852C92.4989 57.731 91.9727 55.8891 91.7096 54.3103C89.2537 22.8228 113.374 29.4887 113.374 29.4887C129.6 28.2608 129.074 42.5573 127.846 51.3282Z" fill="#132056"/>
<path d="M118.987 20.6301C119.689 12.5609 106.883 13.0871 106.883 13.0871C87.4995 15.8938 85.3945 33.9619 85.3945 33.9619L88.0258 30.8043C83.9035 39.8384 90.1308 55.3628 90.657 56.5908C93.9023 67.379 101.095 77.2901 109.427 77.2901C117.759 77.2901 124.951 67.379 128.197 56.5908C128.197 56.5908 128.197 56.5908 128.197 56.5031C128.548 55.1874 128.898 53.8718 129.161 52.5561H129.074C130.828 45.5394 132.758 38.435 132.758 38.435C137.757 13.2625 118.987 20.6301 118.987 20.6301ZM127.846 51.3282C127.056 56.7662 124.688 61.8533 120.741 65.7125C119.952 66.5019 119.163 67.1158 118.373 67.7298L116.97 63.3443H101.884L100.481 67.8175C97.6738 65.7125 95.3056 62.8181 93.376 59.4852C92.4989 57.731 91.9727 55.8891 91.7096 54.3103C89.2537 22.8228 113.374 29.4887 113.374 29.4887C129.6 28.2608 129.074 42.5573 127.846 51.3282Z" fill="#132056"/>
<path d="M118.987 20.6301C119.689 12.5609 106.883 13.0871 106.883 13.0871C87.4995 15.8938 85.3945 33.9619 85.3945 33.9619L88.0258 30.8043C83.9035 39.8384 90.1308 55.3628 90.657 56.5908C93.9023 67.379 101.095 77.2901 109.427 77.2901C117.759 77.2901 124.951 67.379 128.197 56.5908C128.197 56.5908 128.197 56.5908 128.197 56.5031C128.548 55.1874 128.898 53.8718 129.161 52.5561H129.074C130.828 45.5394 132.758 38.435 132.758 38.435C137.757 13.2625 118.987 20.6301 118.987 20.6301ZM127.846 51.3282C127.056 56.7662 124.688 61.8533 120.741 65.7125C119.952 66.5019 119.163 67.1158 118.373 67.7298C117.537 65.1172 115.109 63.3443 112.365 63.3443H106.572C103.782 63.3443 101.316 65.1557 100.481 67.8175C97.6738 65.7125 91.7973 59.836 91.7096 54.3103C89.2537 22.8228 113.374 29.4887 113.374 29.4887C129.6 28.2608 129.074 42.5573 127.846 51.3282Z" fill="#132056"/>
<path d="M103.285 66.3271C104.776 67.9935 106.969 69.1337 109.425 69.1337C111.881 69.1337 114.074 68.0812 115.565 66.3271H103.285Z" fill="white"/>
<path d="M109.645 99.9551C110.197 99.9551 110.645 99.5074 110.645 98.9551C110.645 98.4028 110.197 97.9551 109.645 97.9551C109.093 97.9551 108.645 98.4028 108.645 98.9551C108.645 99.5074 109.093 99.9551 109.645 99.9551Z" fill="#4F44D0"/>
<path d="M109.645 94.0332C110.197 94.0332 110.645 93.5855 110.645 93.0332C110.645 92.4809 110.197 92.0332 109.645 92.0332C109.093 92.0332 108.645 92.4809 108.645 93.0332C108.645 93.5855 109.093 94.0332 109.645 94.0332Z" fill="#4F44D0"/>
<path d="M109.645 88.1133C110.197 88.1133 110.645 87.6656 110.645 87.1133C110.645 86.561 110.197 86.1133 109.645 86.1133C109.093 86.1133 108.645 86.561 108.645 87.1133C108.645 87.6656 109.093 88.1133 109.645 88.1133Z" fill="#4F44D0"/>
<path d="M107.199 84.9209V101.065C107.199 102.397 108.279 103.477 109.611 103.477H112.242" stroke="#4F2DA7" stroke-width="0.644"/>
<path d="M87.5345 99.8311L87.5 129.499L87.5345 99.8311ZM131.582 99.8311L131.5 129.499L131.582 99.8311Z" stroke="#4F44D0" stroke-linecap="round" stroke-linejoin="round"/>
<path fill-rule="evenodd" clip-rule="evenodd" d="M145.544 55.6266C148.519 54.7317 150.737 53.9146 152.191 53.1794C153.193 52.6729 154.115 52.0621 154.957 51.3468L155.08 51.2425L193.186 51.2428C199.605 51.2428 204.808 46.0397 204.808 39.6214C204.808 33.2031 199.605 28 193.186 28H152.621C146.203 28 141 33.2031 141 39.6214C141 44.9635 144.634 49.5795 149.739 50.8815L150.432 51.0582L149.96 51.5957C148.833 52.88 147.351 54.2318 145.544 55.6266Z" fill="white" stroke="#5A6389" stroke-width="0.877"/>
<path d="M155.273 44.0621C155.193 44.0621 155.121 44.0341 155.057 43.9781C155.001 43.9141 154.973 43.8421 154.973 43.7621V38.1461L153.365 39.3821C153.301 39.4221 153.241 39.4421 153.185 39.4421C153.089 39.4421 153.005 39.3941 152.933 39.2981L152.189 38.3381C152.157 38.2821 152.141 38.2221 152.141 38.1581C152.141 38.0461 152.185 37.9581 152.273 37.8941L155.057 35.7461C155.137 35.6901 155.229 35.6621 155.333 35.6621H156.917C157.005 35.6621 157.077 35.6901 157.133 35.7461C157.197 35.8021 157.229 35.8741 157.229 35.9621V43.7621C157.229 43.8501 157.197 43.9221 157.133 43.9781C157.077 44.0341 157.005 44.0621 156.917 44.0621H155.273Z" fill="#5A6389"/>
<path d="M162.788 44.0628C162.708 44.0628 162.636 44.0348 162.572 43.9788C162.516 43.9148 162.488 43.8428 162.488 43.7628V42.8628C162.488 42.6228 162.588 42.4228 162.788 42.2628L163.904 41.1708C164.664 40.5948 165.236 40.1468 165.62 39.8268C166.012 39.5068 166.308 39.2188 166.508 38.9628C166.716 38.6988 166.82 38.4508 166.82 38.2188C166.82 37.6268 166.524 37.3308 165.932 37.3308C165.62 37.3308 165.38 37.4268 165.212 37.6188C165.044 37.8028 164.932 38.0348 164.876 38.3148C164.828 38.4988 164.692 38.5908 164.468 38.5908H162.884C162.812 38.5908 162.748 38.5668 162.692 38.5188C162.644 38.4628 162.62 38.4028 162.62 38.3388C162.636 37.8108 162.78 37.3348 163.052 36.9108C163.332 36.4788 163.72 36.1388 164.216 35.8908C164.712 35.6348 165.284 35.5068 165.932 35.5068C166.604 35.5068 167.184 35.6148 167.672 35.8308C168.16 36.0468 168.528 36.3508 168.776 36.7428C169.032 37.1348 169.16 37.5908 169.16 38.1108C169.16 38.6868 168.98 39.2068 168.62 39.6708C168.268 40.1348 167.728 40.6388 167 41.1828L166.004 42.1788H169.04C169.128 42.1788 169.2 42.2068 169.256 42.2628C169.312 42.3188 169.34 42.3908 169.34 42.4788V43.7628C169.34 43.8428 169.312 43.9148 169.256 43.9788C169.2 44.0348 169.128 44.0628 169.04 44.0628H162.788Z" fill="#5A6389"/>
<path d="M177.794 44.1821C177.01 44.1821 176.35 44.0621 175.814 43.8221C175.286 43.5741 174.894 43.2701 174.638 42.9101C174.39 42.5501 174.258 42.1901 174.242 41.8301C174.242 41.7581 174.266 41.6981 174.314 41.6501C174.37 41.6021 174.434 41.5781 174.506 41.5781H176.162C176.258 41.5781 176.334 41.5981 176.39 41.6381C176.446 41.6701 176.498 41.7261 176.546 41.8061C176.698 42.1981 177.118 42.3941 177.806 42.3941C178.198 42.3941 178.502 42.3021 178.718 42.1181C178.934 41.9341 179.042 41.6861 179.042 41.3741C179.042 40.7741 178.642 40.4741 177.842 40.4741H176.498C176.41 40.4741 176.334 40.4461 176.27 40.3901C176.214 40.3261 176.186 40.2501 176.186 40.1621V39.4541C176.186 39.2701 176.254 39.1341 176.39 39.0461L178.322 37.4621H175.01C174.93 37.4621 174.858 37.4341 174.794 37.3781C174.738 37.3141 174.71 37.2421 174.71 37.1621V35.9741C174.71 35.8861 174.738 35.8141 174.794 35.7581C174.85 35.6941 174.922 35.6621 175.01 35.6621H180.602C180.69 35.6621 180.762 35.6941 180.818 35.7581C180.874 35.8141 180.902 35.8861 180.902 35.9741V37.0421C180.902 37.2101 180.838 37.3421 180.71 37.4381L178.934 39.0581L179.018 39.0821C179.738 39.1861 180.31 39.4341 180.734 39.8261C181.158 40.2181 181.37 40.7821 181.37 41.5181C181.37 42.0541 181.214 42.5261 180.902 42.9341C180.598 43.3341 180.174 43.6421 179.63 43.8581C179.094 44.0741 178.482 44.1821 177.794 44.1821Z" fill="#5A6389"/>
<path d="M190.507 44.0621C190.427 44.0621 190.355 44.0341 190.291 43.9781C190.235 43.9141 190.207 43.8421 190.207 43.7621V42.4421H186.487C186.407 42.4421 186.335 42.4141 186.271 42.3581C186.215 42.2941 186.188 42.2221 186.188 42.1421V40.9301C186.188 40.8101 186.231 40.6901 186.319 40.5701L189.799 35.8661C189.911 35.7301 190.059 35.6621 190.243 35.6621H192.067C192.155 35.6621 192.227 35.6901 192.283 35.7461C192.347 35.8021 192.38 35.8741 192.38 35.9621V40.5821H193.436C193.532 40.5821 193.607 40.6141 193.663 40.6781C193.719 40.7341 193.747 40.8021 193.747 40.8821V42.1421C193.747 42.2221 193.719 42.2941 193.663 42.3581C193.607 42.4141 193.535 42.4421 193.447 42.4421H192.38V43.7621C192.38 43.8501 192.347 43.9221 192.283 43.9781C192.227 44.0341 192.155 44.0621 192.067 44.0621H190.507ZM188.324 40.6661H190.255V37.9661L188.324 40.6661Z" fill="#5A6389"/>
<path d="M157.713 60.0068C157.291 60.0401 156.925 60.307 156.773 60.7018L151.794 73.4433L147.374 75.9951C146.326 76.6001 145.966 77.9471 146.571 78.9951L150.963 86.6029C151.569 87.6528 152.915 88.0118 153.963 87.4067L158.383 84.8548L171.905 86.9153C172.157 86.9523 172.408 86.9008 172.62 86.7789C172.76 86.6976 172.882 86.584 172.977 86.4454C173.215 86.0977 173.232 85.644 173.022 85.2789L158.747 60.5539C158.536 60.1887 158.134 59.9766 157.713 60.0068Z" fill="#9D95F8"/>
<path d="M166.813 63.4115C166.225 63.2589 165.628 63.6116 165.473 64.1955C165.32 64.7832 165.671 65.382 166.258 65.5377C168.515 66.1264 170.407 67.5773 171.588 69.6219C172.768 71.6664 173.078 74.0308 172.46 76.2797C172.299 76.8621 172.643 77.4671 173.228 77.6288C173.524 77.7095 173.823 77.661 174.066 77.5204C174.308 77.3811 174.497 77.1502 174.576 76.8581C175.355 74.0427 174.967 71.0818 173.49 68.5237C172.013 65.9656 169.643 64.1489 166.813 63.4115Z" fill="#9D95F8"/>
<path d="M167.949 59.183C167.361 59.0284 166.762 59.3792 166.606 59.9661C166.452 60.5519 166.804 61.1526 167.388 61.3075C170.788 62.2024 173.631 64.3755 175.393 67.4262C177.154 70.4769 177.613 74.0229 176.688 77.4149C176.531 77.9999 176.875 78.605 177.459 78.7647C177.755 78.8424 178.053 78.795 178.296 78.6545C178.538 78.515 178.729 78.2832 178.809 77.9911C179.891 74.0318 179.351 69.8904 177.294 66.3281C175.238 62.7658 171.92 60.2276 167.949 59.183Z" fill="#9D95F8"/>
</g>
<defs>
<clipPath id="clip0">
<rect width="241" height="132" fill="white"/>
</clipPath>
</defs>
</svg>
