<svg width="320" height="160" viewBox="0 0 320 160" fill="none" xmlns="http://www.w3.org/2000/svg">
<path d="M279.84 156.902C274.754 159.878 88.834 159.571 65.8273 159.571C56.2992 159.571 47.7155 161.818 41.0486 156.024C34.0965 149.981 28.6546 141.241 23.5259 134.105C12.9318 119.365 4.37615 103.224 3.12786 85.9416C2.65099 79.3152 3.37097 72.3361 7.64413 66.6991C11.9173 61.0621 20.529 57.2351 28.2665 59.1832C35.6253 61.0353 42.3389 67.6041 49.3705 65.0349C54.1018 63.3054 55.4109 58.4162 56.2805 54.2288C59.5344 38.5334 65.5187 22.4124 79.348 11.242C93.182 0.0754223 116.703 -4.27694 132.309 5.19088C140.916 10.4137 145.788 18.7656 149.406 27.0332C153.025 35.3008 155.802 43.9518 161.609 51.3297C167.415 58.7077 177.154 64.7703 187.846 64.3446C197.234 63.9688 205.256 58.8112 211.984 53.4273C218.712 48.0396 225.159 42.0153 233.845 39.0703C242.532 36.1214 254.356 37.5326 258.666 44.3851C262.416 50.3481 259.171 57.5036 256.389 63.8116C253.154 71.155 250.573 78.9778 251.957 86.7008C253.341 94.4239 259.573 102.013 268.797 103.934C277.231 105.69 286.353 102.55 294.754 104.406C307.228 107.163 312.637 120.304 308.77 130.412C304.904 140.521 294.576 147.975 284.188 154.272C284.188 154.272 284.188 154.272 284.183 154.272C282.524 155.284 281.117 156.155 279.84 156.902Z" fill="#FAFCFF"/>
<path d="M222.649 13C224.797 13.0224 226.82 13.8497 228.627 14.8379C236.246 19.0012 241.134 26.1337 243.481 33.5881C245.834 41.0426 245.892 48.8727 245.604 56.5865C245.488 59.766 246.196 71.6743 240.558 68.8884C236.796 67.0281 233.055 57.5971 231.184 54.3417C227.485 47.9113 224.865 41.0247 223.419 33.9682C223.068 32.2689 220.957 12.9821 222.649 13Z" fill="#EDF5FF"/>
<path d="M252.064 74.022C260.306 63.1779 271.765 54.1315 285.073 47.9649C285.429 52.3338 283.208 56.5686 280.457 60.2713C273.939 69.036 267.83 75.1578 259.011 82.1517C256.502 84.1416 245.944 90.0578 245.231 89.0427C242.978 85.8365 249.973 76.7677 252.064 74.022Z" fill="#E3EFFF"/>
<path d="M238.19 128.9L237.194 128.685C239.248 121.705 240.736 114.344 241.616 106.814C242.449 99.6945 242.764 92.2177 242.549 84.5933C242.35 77.4384 241.679 69.9437 240.558 62.3193C239.489 55.0571 238.032 47.6832 236.23 40.3986C234.794 34.6032 232.657 27.0504 228.821 20.0073C228.397 19.2292 227.952 18.4556 227.496 17.7088L228.407 17.3063C228.868 18.0665 229.324 18.8491 229.754 19.6406C233.636 26.7642 235.79 34.3796 237.236 40.2198C239.044 47.5267 240.505 54.9275 241.574 62.212C242.701 69.8677 243.371 77.3937 243.576 84.5754C243.791 92.2356 243.476 99.7482 242.638 106.903C241.752 114.474 240.254 121.875 238.19 128.9Z" fill="#E3EFFF"/>
<path d="M242.858 98.1965C242.853 98.1965 242.842 98.1965 242.837 98.1965C242.554 98.1875 242.334 97.9818 242.344 97.7403C242.565 92.9198 245.483 87.2987 251.026 81.0293C258.949 72.0723 267.138 62.8112 278.324 56.3897C278.56 56.2556 278.88 56.3092 279.037 56.5105C279.194 56.7117 279.131 56.9845 278.896 57.1186C267.851 63.4552 259.714 72.6581 251.844 81.5569C246.431 87.6788 243.581 93.1344 243.371 97.7716C243.361 98.0131 243.13 98.1965 242.858 98.1965Z" fill="#EFF6FF"/>
<path d="M242.942 83.1936C242.895 83.1936 242.847 83.1847 242.8 83.1668C242.617 83.0997 242.533 82.9208 242.612 82.7643C246.012 76.0209 249.559 68.0253 250.073 59.8509C250.183 55.9739 249.842 51.9671 249.512 48.0856C249.35 46.1717 249.182 44.1952 249.072 42.2634C248.779 36.4187 248.993 28.8927 253.274 22.4757L253.541 22.0732L253.871 22.4399C255.223 23.9335 255.559 24.3539 255.548 24.5596C258.498 28.8659 259.232 33.5523 259.284 36.9419C259.357 41.928 258.037 47.1331 255.129 53.3221C253.714 56.3316 252.305 59.2785 250.586 62.2746C250.576 62.2925 250.56 62.3104 250.55 62.3283C249.565 69.738 246.358 76.8839 243.272 83.0058C243.214 83.1265 243.083 83.1936 242.942 83.1936ZM253.541 23.3477C249.701 29.5053 249.512 36.6513 249.79 42.241C249.9 44.1639 250.068 46.1359 250.23 48.0454C250.56 51.9403 250.901 55.9649 250.791 59.8777C250.775 60.1102 250.759 60.3473 250.738 60.5798C252.095 58.089 253.279 55.6161 254.458 53.0985C257.335 46.9856 258.639 41.8564 258.561 36.9553C258.508 33.5836 257.77 28.8972 254.762 24.64C254.5 24.4075 253.908 23.853 253.541 23.3477Z" fill="#E3EFFF"/>
<path d="M303.587 92.9595C302.56 91.6 300.889 90.7012 299.176 90.0081C291.961 87.1059 283.426 87.3295 275.797 89.3239C268.168 91.3183 261.283 94.9539 254.666 98.7549C251.936 100.32 241.179 105.454 246.262 107.743C249.652 109.273 259.664 107.233 263.395 106.902C270.762 106.245 278.018 104.689 284.877 102.301C286.517 101.724 304.394 94.0282 303.587 92.9595Z" fill="#F2F8FF"/>
<path d="M297.123 91.3005C296.26 91.3762 295.377 91.4682 294.499 91.5873C286.6 92.6317 279.076 95.2889 273.396 97.4914C266.294 100.241 259.273 103.314 252.53 106.621C245.443 110.095 238.674 113.846 232.419 117.769C231.669 118.24 230.929 118.711 230.19 119.192C230.703 119.225 231.217 119.263 231.731 119.3C232.111 119.057 232.486 118.813 232.871 118.575C239.1 114.673 245.843 110.934 252.9 107.476C259.622 104.18 266.622 101.117 273.699 98.3735C279.333 96.1926 286.795 93.5517 294.607 92.5181C295.469 92.4045 296.337 92.307 297.19 92.2367L297.123 91.3005Z" fill="#E2EEFF"/>
<path d="M232.55 120.407C238.13 113.503 244.915 105.802 253.513 99.9489C253.524 99.9265 253.539 99.8997 253.555 99.8773C256.149 96.3133 258.889 93.0534 261.697 89.7532C267.482 82.965 273.098 78.2786 279.381 75.0142C283.646 72.7962 289.996 70.3233 297.352 70.1265C297.599 69.9745 298.353 70.0013 301.12 70.2294L301.801 70.2875L301.471 70.7973C296.32 78.9851 287.062 84.2171 279.564 87.8616C277.081 89.0511 274.497 90.2227 271.998 91.3541C266.932 93.6481 261.697 96.0226 256.929 98.7191C247.063 104.653 239.445 113.235 233.299 120.841C233.157 121.015 232.875 121.06 232.67 120.939C232.618 120.908 232.576 120.868 232.544 120.828C232.445 120.707 232.445 120.541 232.55 120.407ZM297.777 70.8912C290.447 70.9985 284.096 73.4625 279.847 75.6715C273.675 78.8823 268.137 83.5016 262.426 90.2093C260.073 92.9684 257.773 95.7007 255.567 98.6029C255.845 98.4285 256.128 98.2585 256.411 98.0886C261.226 95.3698 266.481 92.9863 271.569 90.6789C274.063 89.5475 276.64 88.3804 279.113 87.1953C286.281 83.7073 295.089 78.7526 300.213 71.1371C299.333 71.1461 298.248 70.9762 297.777 70.8912Z" fill="#D3E6FD"/>
<path d="M254.142 99.0947L254.702 99.7029C256.107 98.7549 257.904 97.3999 259.806 95.96C262.059 94.2607 264.385 92.4988 266.093 91.4122C271.668 87.8482 277.411 84.3513 283.169 81.0108C288.927 77.6749 294.853 74.406 300.789 71.2936L300.318 70.6363C294.371 73.7531 288.429 77.0265 282.661 80.3714C276.892 83.7163 271.134 87.2221 265.548 90.7906C263.814 91.8996 261.472 93.6705 259.203 95.3787C257.317 96.8141 255.525 98.1646 254.142 99.0947Z" fill="#D3E6FD"/>
<path d="M188.389 53.1744C182.249 43.1316 173.519 35.1511 163.244 30.1867C162.824 34.5544 164.437 38.5655 166.487 41.9997C171.34 50.1315 175.95 55.6788 182.667 61.8502C184.58 63.608 192.694 68.559 193.289 67.4928C195.161 64.1083 189.946 55.7188 188.389 53.1744Z" fill="#F3F9FF"/>
<path d="M193.481 67.8397C192.435 65.3417 190.933 62.7381 188.978 60.0425C183.03 51.8408 176.881 43.3601 168.28 37.9647C168.099 37.8483 167.845 37.9313 167.715 38.1467C167.582 38.3602 167.624 38.6267 167.807 38.7385C176.292 44.0669 182.406 52.4913 188.317 60.6412C190.37 63.4719 191.91 66.1882 192.935 68.7767C193.122 68.4613 193.299 68.146 193.481 67.8397Z" fill="#D5E8FF"/>
<path d="M239.691 115.773C238.927 112.861 238.395 109.46 240.386 107.6C240.678 107.325 241.053 107.091 241.493 107.145C242.278 107.237 242.773 108.131 243.453 108.608C244.888 109.62 246.698 108.425 246.987 106.898C247.276 105.372 246.658 103.704 246.496 102.096C246.354 100.693 246.56 99.3132 247.096 98.1046C247.797 96.5272 249.755 95.2047 251.394 96.3407C252.581 97.1675 252.776 98.7204 253.061 100.051C253.346 101.382 254.264 103.011 255.618 103.02C256.781 103.027 257.306 101.815 257.691 100.802C258.624 98.321 260.014 96.061 261.785 94.1379C263.019 92.7976 264.513 91.5877 266.422 91.269C268.327 90.9469 270.713 91.7467 271.828 93.5232C272.865 95.1812 272.545 97.1602 271.808 98.7073C269.801 102.925 265.322 105.214 261.907 108.355C261.1 109.097 260.351 110.372 261.208 111.324C261.81 111.992 262.788 111.984 263.635 112.042C265.697 112.177 267.823 113.092 269.465 114.558C269.746 114.81 270.024 115.09 270.15 115.429C270.441 116.199 269.837 116.878 269.192 117.247C266.202 118.952 261.675 117.728 258.914 119.731C258.545 120 258.197 120.373 258.234 120.859C258.261 121.209 258.491 121.548 258.748 121.828C259.813 122.996 261.395 123.483 262.779 124.23C264.163 124.977 265.56 126.394 265.286 127.763C265.079 128.792 264.005 129.322 262.975 129.596C259.801 130.428 256.176 129.897 252.794 128.711C249.763 127.645 245.789 126.056 243.222 123.931C240.805 121.92 240.392 118.451 239.691 115.773Z" fill="#E8F3FF"/>
<path d="M267.339 96.8024L241.237 127.91" stroke="#E5EDF7" stroke-linecap="round"/>
<path d="M249.837 97.8367C250.811 103.271 251.65 108.71 252.355 114.146" stroke="#E5EDF7" stroke-linecap="round"/>
<path d="M241.635 109.266C242.916 113.739 244.09 118.226 245.161 122.721" stroke="#E5EDF7" stroke-linecap="round"/>
<path d="M251.539 116.334C256.473 116.078 261.423 115.9 266.388 115.804" stroke="#E5EDF7" stroke-linecap="round"/>
<path d="M179.857 63.3683C178.672 63.2083 177.413 63.2056 176.2 63.4124C174.501 63.5595 172.751 64.2254 171.401 65.4865C168.482 68.2075 168.309 72.727 169.503 76.0618C170.701 79.4132 173.007 82.1892 176.005 83.8972C178.137 85.1123 180.714 85.7906 183.336 85.2131C183.509 85.1737 183.679 85.1314 183.852 85.0782C186.128 85.1345 188.155 83.9771 189.748 82.0166C190.94 80.5475 191.8 78.1234 191.949 76.3534C192.128 74.1713 191.819 72.1745 190.763 70.4408C188.58 66.851 184.148 63.9593 179.857 63.3683Z" fill="#F2F8FF"/>
<path d="M173.589 68.8202L192.509 84.6955" stroke="#E2EEFF" stroke-linecap="round"/>
<path d="M171.586 77.7888C174.839 77.4881 178.091 77.1875 181.344 76.8869" stroke="#E2EEFF" stroke-linecap="round"/>
<path d="M176.006 82.0449C177.389 81.8785 178.769 81.7574 180.149 81.6708" stroke="#E2EEFF" stroke-linecap="round"/>
<path d="M182.741 81.6431C184.434 81.511 186.13 81.3266 187.829 81.09" stroke="#E2EEFF" stroke-linecap="round"/>
<path d="M179.768 73.9023C179.414 71.4508 178.992 69.0177 178.513 66.6045" stroke="#E2EEFF" stroke-linecap="round"/>
<path d="M186.018 78.9139C185.888 76.8766 185.8 74.8325 185.742 72.7797" stroke="#E2EEFF" stroke-linecap="round"/>
<path d="M64.3052 13.2968C62.6708 14.2296 61.5117 15.7174 60.5977 17.235C56.7456 23.61 56.3951 31.0423 58.1472 37.6331C59.8978 44.2198 63.5913 50.1088 67.4903 55.766C69.0975 58.0982 74.2317 67.3174 77.2281 62.8195C79.2247 59.8181 77.5941 51.1558 77.4791 47.9141C77.2507 41.511 75.9762 35.2365 73.7166 29.3348C73.1754 27.909 65.5981 12.5598 64.3052 13.2968Z" fill="#EDF5FF"/>
<path d="M70.855 71.5825C59.3644 66.9896 46.266 65.1185 33.1187 66.1919C34.9282 69.6163 38.6534 71.8391 42.5283 73.4315C51.7078 77.2048 59.3067 79.1787 69.4058 80.6377C72.2781 81.0532 83.1926 80.9686 83.2564 79.9032C83.4551 76.5425 73.7716 72.748 70.855 71.5825Z" fill="#EDF5FF"/>
<path d="M107.667 106.742L108.33 106.159C103.424 101.81 98.773 96.9359 94.5085 91.6687C90.4732 86.6941 86.6721 81.2297 83.1946 75.4286C79.9366 69.9854 76.8748 64.0854 74.0979 57.8961C71.4558 52.0004 69.0522 45.856 66.9596 39.6318C65.2963 34.6789 63.3338 28.1075 62.9123 21.1894C62.8683 20.425 62.839 19.6552 62.8322 18.901L61.9433 18.9866C61.9498 19.7552 61.9772 20.5352 62.0259 21.3122C62.4472 28.3065 64.4246 34.9343 66.1017 39.925C68.2019 46.1703 70.6083 52.3374 73.263 58.2524C76.049 64.4669 79.125 70.3903 82.3971 75.8569C85.8853 81.6874 89.7118 87.1759 93.7628 92.1781C98.0512 97.4651 102.729 102.368 107.667 106.742Z" fill="#E3EFFF"/>
<path d="M89.4439 85.7506C89.4488 85.7488 89.4538 85.747 89.4572 85.741C89.6668 85.6123 89.7442 85.3653 89.6197 85.1917C87.1516 81.6738 82.2329 78.7149 74.9968 76.3899C64.6498 73.0701 53.9555 69.6388 42.3176 69.6203C42.0719 69.6193 41.8529 69.7989 41.8301 70.0119C41.8038 70.2308 41.9803 70.4093 42.2244 70.4061C53.7126 70.4267 64.3423 73.834 74.6199 77.1315C81.6898 79.3979 86.474 82.2631 88.8491 85.6482C88.9702 85.8278 89.2297 85.8666 89.4439 85.7506Z" fill="#E3EFFF"/>
<path d="M81.6172 74.6179C74.0741 69.9635 65.7005 64.2836 59.5814 56.9695C59.5556 56.9598 59.5298 56.9502 59.5024 56.9363C55.5852 54.7835 52.0358 52.492 48.4437 50.1447C41.0464 45.3087 36.0589 40.5521 32.7488 35.1803C30.4987 31.526 28.1116 26.0704 28.4072 19.667C28.2526 19.4568 28.3363 18.7982 28.7945 16.3805L28.906 15.7831L29.4726 16.0528C38.5208 20.2926 43.8774 28.2079 47.5357 34.6285C48.7293 36.759 49.8933 38.9765 51.0134 41.1195C53.2914 45.4632 55.652 49.9576 58.4065 54.0326C64.5324 62.4531 73.8515 68.831 82.163 73.9577C82.3571 74.0774 82.384 74.3198 82.2333 74.5031C82.1948 74.5505 82.1467 74.587 82.0956 74.6151C81.9537 74.7001 81.7615 74.7082 81.6172 74.6179ZM29.3212 19.2677C28.9252 25.6554 31.3074 31.1127 33.5448 34.7478C36.8001 40.0302 41.7176 44.717 49.0203 49.4923C52.0273 51.4577 55.0028 53.3823 58.1838 55.213C58.0022 54.9745 57.8255 54.7343 57.6489 54.494C54.8628 50.3781 52.4975 45.8711 50.207 41.5082C49.0819 39.3669 47.926 37.1561 46.7354 35.034C43.2334 28.8897 38.1638 21.3648 29.7712 17.1338C29.7224 17.9034 29.4496 18.8545 29.3212 19.2677Z" fill="#E3EFFF"/>
<path d="M58.6482 56.443L59.3841 55.9372C58.3981 54.7448 56.9609 53.2168 55.4413 51.5999C53.647 49.688 51.7907 47.713 50.6594 46.2593C46.9572 41.5108 43.3433 36.6064 39.9152 31.6916C36.487 26.7767 33.152 21.7042 29.9994 16.6272L29.2083 17.0579C32.3655 22.1475 35.7134 27.2248 39.1461 32.1523C42.5789 37.0798 46.2008 41.9908 49.9124 46.7501C51.0643 48.2296 52.9316 50.2196 54.7404 52.1405C56.2456 53.7484 57.6732 55.2656 58.6482 56.443Z" fill="#E3EFFF"/>
<path d="M133.285 61.0359C138.451 55.1062 146.129 51.4583 154.009 48.5825C159.374 61.9557 155.824 76.6771 145.303 84.7043C143.467 86.1024 141.391 87.3305 138.934 87.771C132.203 88.9711 128.637 84.4283 127.983 79.0423C127.144 72.1859 128.972 65.9916 133.285 61.0359Z" fill="#F2F8FF"/>
<path d="M151.915 53.5081L128.69 93.7364" stroke="#EAF3FE" stroke-linecap="round"/>
<path d="M143.877 53.8914C144.004 57.4033 144.175 60.9206 144.392 64.4434" stroke="#EAF3FE" stroke-linecap="round"/>
<path d="M141.375 72.3728C145.625 71.4551 149.757 70.2205 153.714 68.6791" stroke="#EAF3FE" stroke-linecap="round"/>
<path d="M92.8505 32.3399C94.4877 32.8115 95.9258 34.0498 97.1869 35.4009C102.482 41.0965 105.332 49.1449 106.204 56.9817C107.076 64.8185 106.149 72.5489 104.972 80.0891C104.489 83.1984 103.551 95.0805 99.5925 91.1562C96.9499 88.5394 95.2653 78.461 94.2373 74.8596C92.211 67.7465 91.0632 60.4141 90.8347 53.1553C90.7855 51.4175 91.5636 31.9696 92.8505 32.3399Z" fill="#F2F8FF"/>
<path d="M96.7165 37.7815C96.9735 38.6257 97.2255 39.4943 97.4547 40.366C99.5369 48.1985 100.238 56.1515 100.615 62.2137C101.092 69.7928 101.287 77.3898 101.202 84.7915C101.113 92.5707 100.694 100.128 99.9546 107.248C99.8656 108.102 99.7727 108.945 99.6716 109.792C99.4588 109.313 99.2418 108.835 99.0248 108.357C99.0737 107.923 99.1245 107.494 99.1674 107.056C99.8997 99.9675 100.319 92.4375 100.407 84.6925C100.491 77.3136 100.295 69.7394 99.8242 62.1863C99.4468 56.1745 98.7558 48.2851 96.6972 40.539C96.4695 39.6835 96.2273 38.828 95.9699 37.9952L96.7165 37.7815Z" fill="#E2EEFF"/>
<path d="M100.152 105.629C104.598 97.945 109.356 88.8509 111.739 78.7261C111.756 78.7084 111.776 78.6841 111.791 78.6614C114.189 74.9628 116.25 71.2363 118.325 67.4318C122.589 59.5989 124.951 52.6757 125.748 45.6409C126.29 40.8643 126.323 34.0495 123.87 27.1113C123.924 26.8269 123.628 26.1322 122.424 23.6312L122.126 23.0161L121.768 23.5069C115.97 31.2496 114.403 41.7679 113.688 50.0738C113.467 52.8186 113.299 55.65 113.139 58.3887C112.813 63.9409 112.472 69.6785 111.663 75.0962C109.659 86.4335 104.377 96.6211 99.4787 105.085C99.3666 105.279 99.4262 105.56 99.6122 105.707C99.6602 105.745 99.7128 105.769 99.7616 105.784C99.91 105.834 100.064 105.775 100.152 105.629ZM123.004 26.9891C125.531 33.8708 125.506 40.6824 124.967 45.4411C124.181 52.3539 121.853 59.1797 117.638 66.9153C115.905 70.1004 114.179 73.2269 112.26 76.3263C112.323 76.0045 112.38 75.6795 112.437 75.3545C113.25 69.8848 113.592 64.1244 113.923 58.5478C114.085 55.814 114.251 52.9891 114.471 50.2557C115.159 42.314 116.628 32.3158 121.901 24.8027C122.208 25.6277 122.756 26.5793 123.004 26.9891Z" fill="#D3E6FD"/>
<path d="M112.311 77.8331L111.542 77.5276C111.924 75.8769 112.545 73.7136 113.208 71.4219C113.987 68.7096 114.798 65.9064 115.2 63.9223C116.53 57.4405 117.737 50.8262 118.792 44.2533C119.842 37.682 120.77 30.9782 121.549 24.3207L122.331 24.5254C121.553 31.1942 120.626 37.9143 119.571 44.4986C118.515 51.0829 117.306 57.7151 115.976 64.2083C115.562 66.2248 114.748 69.0459 113.967 71.7761C113.302 74.0515 112.684 76.2084 112.311 77.8331Z" fill="#D3E6FD"/>
<path d="M48.3555 118.919C42.6841 111.376 40.318 101.453 38.9084 91.4868C55.9442 88.5256 72.3381 96.3659 79.1353 110.718C80.3183 113.222 81.2417 115.965 81.1459 118.959C80.8752 127.159 74.6532 130.212 68.1682 129.635C59.9152 128.905 53.0962 125.218 48.3555 118.919Z" fill="#F2F8FF"/>
<path d="M44.1676 95.1731L83.4056 130.503" stroke="#EAF3FE" stroke-linecap="round"/>
<path d="M42.6122 104.704C46.7658 105.432 50.9371 106.108 55.1262 106.732" stroke="#EAF3FE" stroke-linecap="round"/>
<path d="M63.6808 112.252C63.6641 107.034 63.2457 101.877 62.4237 96.8472" stroke="#EAF3FE" stroke-linecap="round"/>
<path d="M64.8981 134.951C62.9768 136.281 60.6354 137.576 58.744 136.614C58.4666 136.474 58.1957 136.264 58.1136 135.927C57.974 135.33 58.4914 134.732 58.6632 134.103C59.0181 132.789 57.666 131.783 56.476 131.98C55.286 132.177 54.2285 133.069 53.0967 133.616C52.1093 134.093 51.046 134.308 50.0247 134.238C48.6873 134.147 47.2013 133.065 47.5937 131.569C47.8805 130.48 48.9667 129.927 49.861 129.366C50.7552 128.805 51.7002 127.7 51.3476 126.707C51.0439 125.855 50.0191 125.794 49.1761 125.783C47.1153 125.758 45.0952 125.346 43.2239 124.564C41.9193 124.017 40.6378 123.249 39.8954 121.942C39.1529 120.635 39.1024 118.682 40.1035 117.395C41.0393 116.197 42.5681 115.906 43.8972 116.033C47.5119 116.378 50.3707 119.036 53.5729 120.698C54.3295 121.09 55.4589 121.295 55.9243 120.422C56.2533 119.805 55.9858 119.089 55.8012 118.459C55.3488 116.917 55.4551 115.121 56.0897 113.534C56.1985 113.262 56.3276 112.985 56.5421 112.801C57.0262 112.387 57.6848 112.643 58.1233 113.02C60.1635 114.749 60.4741 118.381 62.6699 119.866C62.963 120.067 63.3316 120.218 63.6733 120.064C63.9245 119.949 64.1083 119.692 64.2465 119.43C64.8135 118.343 64.7478 117.059 64.9313 115.849C65.1088 114.642 65.7701 113.244 66.8426 113.082C67.6493 112.958 68.3187 113.603 68.7943 114.283C70.2489 116.38 70.8227 119.17 70.8524 121.952C70.8809 124.449 70.7752 127.773 69.9051 130.216C69.0921 132.502 66.6666 133.727 64.8981 134.951Z" fill="#E8F3FF"/>
<path d="M44.3412 120.443L69.7129 129.678" stroke="#E5EDF7" stroke-linecap="round"/>
<path d="M50.6927 131.788C52.2194 130.888 53.7436 129.982 55.2703 129.083" stroke="#E5EDF7" stroke-linecap="round"/>
<path d="M57.2318 127.733C58.0471 127.311 58.8581 126.887 59.6734 126.464" stroke="#E5EDF7" stroke-linecap="round"/>
<path d="M60.1229 134.473C62.7012 132.763 65.2981 131.093 67.918 129.465" stroke="#E5EDF7" stroke-linecap="round"/>
<path d="M63.9207 127.347C62.2269 124.26 60.5709 121.148 58.9484 118.01" stroke="#E5EDF7" stroke-linecap="round"/>
<path fill-rule="evenodd" clip-rule="evenodd" d="M60.3197 159.254C59.1812 159.254 58.1687 158.423 58.0144 157.363L52.9596 122.64C52.8846 122.126 53.0259 121.634 53.3566 121.254C53.7074 120.852 54.2425 120.622 54.8257 120.622H108.859C109.998 120.622 111.011 121.452 111.165 122.512L116.22 157.236C116.295 157.75 116.154 158.242 115.823 158.622C115.472 159.024 114.937 159.254 114.354 159.254H60.3197Z" fill="#9FCAFD"/>
<path fill-rule="evenodd" clip-rule="evenodd" d="M108.859 120.176H54.8257C54.1125 120.176 53.4535 120.463 53.0179 120.963C52.5998 121.441 52.4217 122.059 52.5154 122.703L57.5703 157.427C57.7555 158.701 58.9636 159.699 60.3202 159.699H114.354C115.067 159.699 115.726 159.413 116.162 158.913C116.579 158.434 116.758 157.816 116.664 157.172L111.609 122.448C111.424 121.175 110.216 120.176 108.859 120.176ZM108.859 121.067C109.766 121.067 110.6 121.743 110.721 122.576L115.776 157.299C115.897 158.133 115.26 158.808 114.354 158.808H60.3202C59.4131 158.808 58.5796 158.133 58.458 157.299L53.4032 122.576C53.2821 121.743 53.9187 121.067 54.8257 121.067H108.859Z" fill="#9FCAFD"/>
<path fill-rule="evenodd" clip-rule="evenodd" d="M62.1805 154.633C61.9324 154.633 61.7319 154.434 61.7319 154.188V102.614C61.7319 102.367 61.9324 102.168 62.1805 102.168H105.965C106.213 102.168 106.414 102.367 106.414 102.614V154.188C106.414 154.434 106.213 154.633 105.965 154.633H62.1805Z" fill="#8AC0FE"/>
<path fill-rule="evenodd" clip-rule="evenodd" d="M82.8945 107.758H65.6908C65.5405 107.758 65.4176 107.88 65.4176 108.029C65.4176 108.178 65.5405 108.3 65.6908 108.3H82.8945C83.0444 108.3 83.1673 108.178 83.1673 108.029C83.1673 107.88 83.0444 107.758 82.8945 107.758Z" fill="#0F1528"/>
<path fill-rule="evenodd" clip-rule="evenodd" d="M102.952 142.574H85.7485C85.5982 142.574 85.4753 142.696 85.4753 142.845C85.4753 142.994 85.5982 143.116 85.7485 143.116H102.952C103.102 143.116 103.225 142.994 103.225 142.845C103.225 142.696 103.102 142.574 102.952 142.574Z" fill="#0F1528"/>
<path fill-rule="evenodd" clip-rule="evenodd" d="M103.401 104.912H89.4225C89.2866 104.912 89.1758 105.022 89.1758 105.157V105.209C89.1758 105.344 89.2866 105.454 89.4225 105.454H103.401C103.537 105.454 103.648 105.344 103.648 105.209V105.157C103.648 105.022 103.537 104.912 103.401 104.912Z" fill="#0F1528"/>
<path fill-rule="evenodd" clip-rule="evenodd" d="M103.259 112.013H65.5746C65.4054 112.013 65.2673 111.876 65.2673 111.708C65.2673 111.541 65.4054 111.404 65.5746 111.404H103.259C103.428 111.404 103.566 111.541 103.566 111.708C103.566 111.876 103.428 112.013 103.259 112.013Z" fill="#0F1528"/>
<path fill-rule="evenodd" clip-rule="evenodd" d="M103.259 114.148H65.5746C65.4054 114.148 65.2673 114.011 65.2673 113.843C65.2673 113.675 65.4054 113.538 65.5746 113.538H103.259C103.428 113.538 103.566 113.675 103.566 113.843C103.566 114.011 103.428 114.148 103.259 114.148Z" fill="#0F1528"/>
<path fill-rule="evenodd" clip-rule="evenodd" d="M103.259 116.486H65.5746C65.4054 116.486 65.2673 116.349 65.2673 116.181C65.2673 116.013 65.4054 115.876 65.5746 115.876H103.259C103.428 115.876 103.566 116.013 103.566 116.181C103.566 116.349 103.428 116.486 103.259 116.486Z" fill="#0F1528"/>
<path fill-rule="evenodd" clip-rule="evenodd" d="M103.259 118.519H65.5746C65.4054 118.519 65.2673 118.381 65.2673 118.214C65.2673 118.046 65.4054 117.909 65.5746 117.909H103.259C103.428 117.909 103.566 118.046 103.566 118.214C103.566 118.381 103.428 118.519 103.259 118.519Z" fill="#0F1528"/>
<path fill-rule="evenodd" clip-rule="evenodd" d="M103.259 120.755H65.5746C65.4054 120.755 65.2673 120.618 65.2673 120.45C65.2673 120.282 65.4054 120.145 65.5746 120.145H103.259C103.428 120.145 103.566 120.282 103.566 120.45C103.566 120.618 103.428 120.755 103.259 120.755Z" fill="#0F1528"/>
<path fill-rule="evenodd" clip-rule="evenodd" d="M103.259 127.666H65.5746C65.4054 127.666 65.2673 127.529 65.2673 127.361C65.2673 127.194 65.4054 127.056 65.5746 127.056H103.259C103.428 127.056 103.566 127.194 103.566 127.361C103.566 127.529 103.428 127.666 103.259 127.666Z" fill="#0F1528"/>
<path fill-rule="evenodd" clip-rule="evenodd" d="M103.259 129.801H65.5746C65.4054 129.801 65.2673 129.664 65.2673 129.496C65.2673 129.328 65.4054 129.191 65.5746 129.191H103.259C103.428 129.191 103.566 129.328 103.566 129.496C103.566 129.664 103.428 129.801 103.259 129.801Z" fill="#0F1528"/>
<path fill-rule="evenodd" clip-rule="evenodd" d="M103.259 132.139H65.5746C65.4054 132.139 65.2673 132.001 65.2673 131.834C65.2673 131.666 65.4054 131.529 65.5746 131.529H103.259C103.428 131.529 103.566 131.666 103.566 131.834C103.566 132.001 103.428 132.139 103.259 132.139Z" fill="#0F1528"/>
<path fill-rule="evenodd" clip-rule="evenodd" d="M103.259 134.171H65.5746C65.4054 134.171 65.2673 134.034 65.2673 133.867C65.2673 133.699 65.4054 133.562 65.5746 133.562H103.259C103.428 133.562 103.566 133.699 103.566 133.867C103.566 134.034 103.428 134.171 103.259 134.171Z" fill="#0F1528"/>
<path fill-rule="evenodd" clip-rule="evenodd" d="M103.259 136.408H65.5746C65.4054 136.408 65.2673 136.27 65.2673 136.103C65.2673 135.935 65.4054 135.798 65.5746 135.798H103.259C103.428 135.798 103.566 135.935 103.566 136.103C103.566 136.27 103.428 136.408 103.259 136.408Z" fill="#0F1528"/>
<path fill-rule="evenodd" clip-rule="evenodd" d="M63.1001 118.264V102.614H63.6384V117.764C63.4388 117.907 63.2576 118.076 63.1001 118.264Z" fill="#0071CD"/>
<path fill-rule="evenodd" clip-rule="evenodd" d="M64.5356 153.515C64.288 153.515 64.087 153.316 64.087 153.07V101.496C64.087 101.249 64.288 101.05 64.5356 101.05H108.321C108.568 101.05 108.769 101.249 108.769 101.496V153.07C108.769 153.316 108.568 153.515 108.321 153.515H64.5356Z" fill="#8AC0FE"/>
<path fill-rule="evenodd" clip-rule="evenodd" d="M85.2497 106.64H68.0459C67.8957 106.64 67.7732 106.762 67.7732 106.911C67.7732 107.06 67.8957 107.182 68.0459 107.182H85.2497C85.4 107.182 85.5229 107.06 85.5229 106.911C85.5229 106.762 85.4 106.64 85.2497 106.64Z" fill="#0F1528"/>
<path fill-rule="evenodd" clip-rule="evenodd" d="M105.307 141.456H88.1041C87.9538 141.456 87.8309 141.578 87.8309 141.727C87.8309 141.876 87.9538 141.998 88.1041 141.998H105.307C105.458 141.998 105.581 141.876 105.581 141.727C105.581 141.578 105.458 141.456 105.307 141.456Z" fill="#0F1528"/>
<path fill-rule="evenodd" clip-rule="evenodd" d="M105.756 103.794H91.7777C91.6422 103.794 91.5309 103.904 91.5309 104.038V104.091C91.5309 104.225 91.6422 104.336 91.7777 104.336H105.756C105.892 104.336 106.003 104.225 106.003 104.091V104.038C106.003 103.904 105.892 103.794 105.756 103.794Z" fill="#0F1528"/>
<path fill-rule="evenodd" clip-rule="evenodd" d="M105.615 110.895H67.9297C67.7606 110.895 67.6224 110.758 67.6224 110.59C67.6224 110.423 67.7606 110.286 67.9297 110.286H105.615C105.783 110.286 105.922 110.423 105.922 110.59C105.922 110.758 105.783 110.895 105.615 110.895Z" fill="#0F1528"/>
<path fill-rule="evenodd" clip-rule="evenodd" d="M105.615 113.03H67.9297C67.7606 113.03 67.6224 112.893 67.6224 112.725C67.6224 112.557 67.7606 112.42 67.9297 112.42H105.615C105.783 112.42 105.922 112.557 105.922 112.725C105.922 112.893 105.783 113.03 105.615 113.03Z" fill="#0F1528"/>
<path fill-rule="evenodd" clip-rule="evenodd" d="M105.615 115.368H67.9297C67.7606 115.368 67.6224 115.23 67.6224 115.063C67.6224 114.895 67.7606 114.758 67.9297 114.758H105.615C105.783 114.758 105.922 114.895 105.922 115.063C105.922 115.23 105.783 115.368 105.615 115.368Z" fill="#0F1528"/>
<path fill-rule="evenodd" clip-rule="evenodd" d="M105.615 117.401H67.9297C67.7606 117.401 67.6224 117.264 67.6224 117.096C67.6224 116.928 67.7606 116.791 67.9297 116.791H105.615C105.783 116.791 105.922 116.928 105.922 117.096C105.922 117.264 105.783 117.401 105.615 117.401Z" fill="#0F1528"/>
<path fill-rule="evenodd" clip-rule="evenodd" d="M105.615 119.637H67.9297C67.7606 119.637 67.6224 119.5 67.6224 119.332C67.6224 119.164 67.7606 119.027 67.9297 119.027H105.615C105.783 119.027 105.922 119.164 105.922 119.332C105.922 119.5 105.783 119.637 105.615 119.637Z" fill="#0F1528"/>
<path fill-rule="evenodd" clip-rule="evenodd" d="M105.615 126.548H67.9297C67.7606 126.548 67.6224 126.411 67.6224 126.243C67.6224 126.076 67.7606 125.938 67.9297 125.938H105.615C105.783 125.938 105.922 126.076 105.922 126.243C105.922 126.411 105.783 126.548 105.615 126.548Z" fill="#0F1528"/>
<path fill-rule="evenodd" clip-rule="evenodd" d="M105.615 128.683H67.9297C67.7606 128.683 67.6224 128.546 67.6224 128.378C67.6224 128.21 67.7606 128.073 67.9297 128.073H105.615C105.783 128.073 105.922 128.21 105.922 128.378C105.922 128.546 105.783 128.683 105.615 128.683Z" fill="#0F1528"/>
<path fill-rule="evenodd" clip-rule="evenodd" d="M105.615 131.021H67.9297C67.7606 131.021 67.6224 130.883 67.6224 130.716C67.6224 130.548 67.7606 130.411 67.9297 130.411H105.615C105.783 130.411 105.922 130.548 105.922 130.716C105.922 130.883 105.783 131.021 105.615 131.021Z" fill="#0F1528"/>
<path fill-rule="evenodd" clip-rule="evenodd" d="M105.615 133.053H67.9297C67.7606 133.053 67.6224 132.916 67.6224 132.749C67.6224 132.581 67.7606 132.444 67.9297 132.444H105.615C105.783 132.444 105.922 132.581 105.922 132.749C105.922 132.916 105.783 133.053 105.615 133.053Z" fill="#0F1528"/>
<path fill-rule="evenodd" clip-rule="evenodd" d="M105.615 135.29H67.9297C67.7606 135.29 67.6224 135.152 67.6224 134.985C67.6224 134.817 67.7606 134.68 67.9297 134.68H105.615C105.783 134.68 105.922 134.817 105.922 134.985C105.922 135.152 105.783 135.29 105.615 135.29Z" fill="#0F1528"/>
<path fill-rule="evenodd" clip-rule="evenodd" d="M66.0698 117.239V101.496H66.6081V117.237L66.0698 117.239Z" fill="#0071CD"/>
<path fill-rule="evenodd" clip-rule="evenodd" d="M67.5054 152.804C67.2577 152.804 67.0568 152.605 67.0568 152.359V100.784C67.0568 100.538 67.2577 100.339 67.5054 100.339H111.29C111.538 100.339 111.739 100.538 111.739 100.784V152.359C111.739 152.605 111.538 152.804 111.29 152.804H67.5054Z" fill="#8AC0FE"/>
<path fill-rule="evenodd" clip-rule="evenodd" d="M88.2193 105.928H71.0156C70.8658 105.928 70.7429 106.05 70.7429 106.199C70.7429 106.348 70.8658 106.47 71.0156 106.47H88.2193C88.3696 106.47 88.4925 106.348 88.4925 106.199C88.4925 106.05 88.3696 105.928 88.2193 105.928Z" fill="#0071CD"/>
<path fill-rule="evenodd" clip-rule="evenodd" d="M108.277 140.744H91.0733C90.9235 140.744 90.8006 140.866 90.8006 141.015C90.8006 141.164 90.9235 141.286 91.0733 141.286H108.277C108.427 141.286 108.55 141.164 108.55 141.015C108.55 140.866 108.427 140.744 108.277 140.744Z" fill="#0F1528"/>
<path fill-rule="evenodd" clip-rule="evenodd" d="M108.726 103.082H94.7474C94.6119 103.082 94.5007 103.193 94.5007 103.327V103.38C94.5007 103.514 94.6119 103.624 94.7474 103.624H108.726C108.862 103.624 108.973 103.514 108.973 103.38V103.327C108.973 103.193 108.862 103.082 108.726 103.082Z" fill="#0071CD"/>
<path fill-rule="evenodd" clip-rule="evenodd" d="M108.584 110.184H70.8995C70.7303 110.184 70.5922 110.047 70.5922 109.879C70.5922 109.711 70.7303 109.574 70.8995 109.574H108.584C108.753 109.574 108.892 109.711 108.892 109.879C108.892 110.047 108.753 110.184 108.584 110.184Z" fill="#0071CD"/>
<path fill-rule="evenodd" clip-rule="evenodd" d="M108.584 112.318H70.8995C70.7303 112.318 70.5922 112.181 70.5922 112.013C70.5922 111.846 70.7303 111.708 70.8995 111.708H108.584C108.753 111.708 108.892 111.846 108.892 112.013C108.892 112.181 108.753 112.318 108.584 112.318Z" fill="#0071CD"/>
<path fill-rule="evenodd" clip-rule="evenodd" d="M108.584 114.656H70.8995C70.7303 114.656 70.5922 114.519 70.5922 114.352C70.5922 114.184 70.7303 114.047 70.8995 114.047H108.584C108.753 114.047 108.892 114.184 108.892 114.352C108.892 114.519 108.753 114.656 108.584 114.656Z" fill="#0071CD"/>
<path fill-rule="evenodd" clip-rule="evenodd" d="M108.584 116.689H70.8995C70.7303 116.689 70.5922 116.552 70.5922 116.384C70.5922 116.216 70.7303 116.079 70.8995 116.079H108.584C108.753 116.079 108.892 116.216 108.892 116.384C108.892 116.552 108.753 116.689 108.584 116.689Z" fill="#0071CD"/>
<path fill-rule="evenodd" clip-rule="evenodd" d="M108.584 118.925H70.8995C70.7303 118.925 70.5922 118.788 70.5922 118.62C70.5922 118.453 70.7303 118.315 70.8995 118.315H108.584C108.753 118.315 108.892 118.453 108.892 118.62C108.892 118.788 108.753 118.925 108.584 118.925Z" fill="#0F1528"/>
<path fill-rule="evenodd" clip-rule="evenodd" d="M108.584 125.837H70.8995C70.7303 125.837 70.5922 125.7 70.5922 125.532C70.5922 125.364 70.7303 125.227 70.8995 125.227H108.584C108.753 125.227 108.892 125.364 108.892 125.532C108.892 125.7 108.753 125.837 108.584 125.837Z" fill="#0F1528"/>
<path fill-rule="evenodd" clip-rule="evenodd" d="M108.584 127.971H70.8995C70.7303 127.971 70.5922 127.834 70.5922 127.666C70.5922 127.499 70.7303 127.361 70.8995 127.361H108.584C108.753 127.361 108.892 127.499 108.892 127.666C108.892 127.834 108.753 127.971 108.584 127.971Z" fill="#0F1528"/>
<path fill-rule="evenodd" clip-rule="evenodd" d="M108.584 130.309H70.8995C70.7303 130.309 70.5922 130.172 70.5922 130.004C70.5922 129.837 70.7303 129.699 70.8995 129.699H108.584C108.753 129.699 108.892 129.837 108.892 130.004C108.892 130.172 108.753 130.309 108.584 130.309Z" fill="#0F1528"/>
<path fill-rule="evenodd" clip-rule="evenodd" d="M108.584 132.342H70.8995C70.7303 132.342 70.5922 132.204 70.5922 132.037C70.5922 131.869 70.7303 131.732 70.8995 131.732H108.584C108.753 131.732 108.892 131.869 108.892 132.037C108.892 132.204 108.753 132.342 108.584 132.342Z" fill="#0F1528"/>
<path fill-rule="evenodd" clip-rule="evenodd" d="M108.584 134.578H70.8995C70.7303 134.578 70.5922 134.441 70.5922 134.273C70.5922 134.105 70.7303 133.968 70.8995 133.968H108.584C108.753 133.968 108.892 134.105 108.892 134.273C108.892 134.441 108.753 134.578 108.584 134.578Z" fill="#0F1528"/>
<path fill-rule="evenodd" clip-rule="evenodd" d="M192.738 94.2175C192.654 94.2175 192.57 94.1939 192.498 94.148C183.741 88.6242 173.619 83.8996 160.642 79.2801C160.467 79.2182 160.349 79.057 160.344 78.8736C160.339 78.6901 160.448 78.5227 160.618 78.451C173.067 73.221 183.948 59.4889 192.085 38.7396C192.136 38.6091 192.246 38.5103 192.382 38.4724C192.422 38.4613 192.462 38.4559 192.503 38.4559C192.601 38.4559 192.697 38.4871 192.776 38.5472C201.21 44.9353 208.101 53.7968 213.843 65.6374C213.89 65.7345 213.9 65.8449 213.871 65.9487C209.724 80.9529 202.668 90.4542 192.9 94.1877C192.848 94.2073 192.793 94.2175 192.738 94.2175Z" fill="#8AC0FE"/>
<path fill-rule="evenodd" clip-rule="evenodd" d="M201.138 55.1192C198.201 51.9325 195.093 49.1755 191.812 46.7907C191.726 46.7284 191.592 46.8214 191.514 46.9968C191.435 47.1723 191.441 47.3655 191.528 47.4274C194.826 49.7939 197.952 52.5296 200.907 55.6913C200.984 55.7742 201.1 55.7145 201.163 55.5573C201.226 55.4006 201.215 55.2025 201.138 55.1192Z" fill="#3792FC"/>
<path fill-rule="evenodd" clip-rule="evenodd" d="M196.607 89.2346C192.986 86.5511 189.211 84.165 185.298 82.0197C185.196 81.9636 185.043 81.9712 184.958 82.0358C184.873 82.0999 184.888 82.1974 184.991 82.2535C188.917 84.3876 192.706 86.7595 196.343 89.4261C196.438 89.496 196.576 89.5107 196.648 89.4586C196.721 89.4065 196.703 89.305 196.607 89.2346Z" fill="#3792FC"/>
<path fill-rule="evenodd" clip-rule="evenodd" d="M211.755 65.8948C209.773 62.2642 207.682 58.9751 205.479 55.9954C205.416 55.9086 205.322 55.9549 205.273 56.0974L205.253 56.1531C205.203 56.2951 205.215 56.4812 205.28 56.5672C207.498 59.5241 209.603 62.7883 211.599 66.3917C211.657 66.4964 211.737 66.4825 211.775 66.3597L211.79 66.3116C211.829 66.1887 211.813 66.0003 211.755 65.8948Z" fill="#3792FC"/>
<path fill-rule="evenodd" clip-rule="evenodd" d="M209.489 71.9133C203.63 63.0608 196.955 56.4852 189.464 51.5736C189.363 51.5077 189.356 51.3042 189.448 51.1203C189.54 50.936 189.697 50.8385 189.797 50.9053C197.246 55.8583 203.877 62.4922 209.692 71.4195C209.77 71.5398 209.789 71.7499 209.733 71.8848C209.678 72.0202 209.568 72.0322 209.489 71.9133Z" fill="#3792FC"/>
<path fill-rule="evenodd" clip-rule="evenodd" d="M208.763 73.5928C202.751 64.9985 195.921 58.6216 188.285 53.8502C188.182 53.7861 188.175 53.5906 188.268 53.4139H188.268C188.362 53.2375 188.522 53.1449 188.624 53.2095C196.219 58.02 203.005 64.4531 208.973 73.1204C209.054 73.2371 209.072 73.4397 209.015 73.5688C208.957 73.6984 208.844 73.7082 208.763 73.5928Z" fill="#3792FC"/>
<path fill-rule="evenodd" clip-rule="evenodd" d="M207.936 75.3485C201.758 67.028 194.76 60.8594 186.968 56.2328C186.863 56.1704 186.856 55.9834 186.951 55.8151C187.046 55.6473 187.21 55.5595 187.314 55.6223C195.065 60.2859 202.02 66.5079 208.155 74.8988C208.237 75.0119 208.256 75.2064 208.196 75.3293C208.136 75.4527 208.019 75.4602 207.936 75.3485Z" fill="#3792FC"/>
<path fill-rule="evenodd" clip-rule="evenodd" d="M207.191 76.8049C200.87 68.715 193.727 62.7201 185.804 58.2119C185.698 58.1514 185.689 57.971 185.786 57.8098C185.883 57.6491 186.049 57.5658 186.155 57.6268C194.039 62.1702 201.138 68.2164 207.417 76.3748C207.501 76.4847 207.52 76.6722 207.458 76.7897C207.396 76.9073 207.276 76.9135 207.191 76.8049Z" fill="#3792FC"/>
<path fill-rule="evenodd" clip-rule="evenodd" d="M206.345 78.3326C199.867 70.4876 192.568 64.6761 184.504 60.2899C184.395 60.2307 184.387 60.0584 184.485 59.9052C184.584 59.7516 184.752 59.6737 184.86 59.7333C192.887 64.1521 200.142 70.013 206.578 77.9238C206.665 78.0302 206.683 78.2101 206.619 78.3219C206.556 78.4341 206.432 78.4381 206.345 78.3326Z" fill="#3792FC"/>
<path fill-rule="evenodd" clip-rule="evenodd" d="M203.563 82.5737C196.609 75.4322 188.846 70.1323 180.369 66.0712C180.254 66.0164 180.245 65.8668 180.347 65.7368C180.45 65.6068 180.626 65.544 180.74 65.5992C189.182 69.6862 196.905 75.0279 203.818 82.2281C203.911 82.3248 203.93 82.4828 203.86 82.5772C203.79 82.6716 203.656 82.6694 203.563 82.5737Z" fill="#3792FC"/>
<path fill-rule="evenodd" clip-rule="evenodd" d="M202.656 83.7397C195.558 76.7991 187.657 71.6412 179.06 67.6642C178.945 67.6108 178.934 67.4674 179.038 67.3445C179.142 67.2216 179.32 67.1642 179.436 67.2181C187.998 71.2187 195.86 76.4162 202.917 83.4134C203.012 83.5077 203.031 83.6587 202.96 83.7482C202.888 83.8377 202.751 83.8332 202.656 83.7397Z" fill="#3792FC"/>
<path fill-rule="evenodd" clip-rule="evenodd" d="M201.638 84.942C194.385 78.2124 186.335 73.201 177.613 69.3073C177.495 69.2547 177.485 69.1189 177.59 69.0036C177.694 68.8883 177.875 68.8362 177.992 68.8887C186.682 72.8034 194.693 77.8522 201.906 84.6361C202.003 84.7273 202.022 84.8716 201.949 84.9553C201.876 85.039 201.736 85.0328 201.638 84.942Z" fill="#3792FC"/>
<path fill-rule="evenodd" clip-rule="evenodd" d="M200.733 85.9242C193.346 79.37 185.171 74.4789 176.342 70.6506C176.224 70.5989 176.213 70.4689 176.318 70.3603C176.424 70.2516 176.607 70.204 176.725 70.2556C185.522 74.1031 193.659 79.0298 201.006 85.6356C201.105 85.7247 201.125 85.8627 201.05 85.942C200.975 86.0208 200.832 86.0123 200.733 85.9242Z" fill="#3792FC"/>
<path fill-rule="evenodd" clip-rule="evenodd" d="M199.716 86.9376C192.184 80.5691 183.874 75.8013 174.934 72.0371C174.814 71.9863 174.802 71.863 174.908 71.7615C175.015 71.66 175.199 71.6172 175.319 71.668C184.229 75.4491 192.503 80.2498 199.995 86.6682C200.096 86.7546 200.116 86.8868 200.04 86.9603C199.963 87.0337 199.818 87.0235 199.716 86.9376Z" fill="#3792FC"/>
<path fill-rule="evenodd" clip-rule="evenodd" d="M142.585 68.5129C142.552 68.5129 142.52 68.5067 142.491 68.4942C138.418 66.6891 134.444 64.6503 130.586 62.3964C130.484 62.3377 130.467 62.2139 130.547 62.1222C130.598 62.0629 130.677 62.0309 130.754 62.0309C130.797 62.0309 130.839 62.0407 130.875 62.0616C134.732 64.3039 138.703 66.3307 142.774 68.1242C142.88 68.171 142.904 68.2925 142.827 68.3945C142.77 68.4688 142.674 68.5129 142.585 68.5129Z" fill="#8BBABC"/>
<path fill-rule="evenodd" clip-rule="evenodd" d="M138.305 98.4425C138.263 98.4425 138.221 98.4345 138.185 98.4181C133.7 96.3921 129.331 94.1084 125.093 91.5865C124.982 91.5206 124.964 91.3959 125.052 91.3091C125.105 91.2583 125.183 91.2316 125.261 91.2316C125.315 91.2316 125.37 91.2445 125.415 91.2717C129.652 93.7807 134.019 96.0511 138.502 98.0641C138.619 98.1166 138.644 98.2395 138.557 98.337C138.497 98.4042 138.399 98.4425 138.305 98.4425Z" fill="#8BBABC"/>
<path fill-rule="evenodd" clip-rule="evenodd" d="M158.916 71.7539C158.898 71.7539 158.882 71.7517 158.865 71.7473C155.398 70.806 151.982 69.6951 148.626 68.4248C148.529 68.3878 148.505 68.2787 148.573 68.1825L148.6 68.1447C148.653 68.0703 148.746 68.0245 148.83 68.0245C148.855 68.0245 148.879 68.0285 148.901 68.0369C152.254 69.2979 155.667 70.3995 159.131 71.3314C159.232 71.3585 159.26 71.4654 159.194 71.5687L159.169 71.6092C159.114 71.6961 159.008 71.7539 158.916 71.7539Z" fill="#8BBABC"/>
<path fill-rule="evenodd" clip-rule="evenodd" d="M155.554 76.6949C155.529 76.6949 155.504 76.6918 155.481 76.6847C146.028 73.8288 136.982 69.7391 128.507 64.6187C128.393 64.5497 128.374 64.4103 128.465 64.3088C128.522 64.2456 128.609 64.2113 128.694 64.2113C128.745 64.2113 128.795 64.2238 128.838 64.2491C137.309 69.3406 146.347 73.4009 155.79 76.2279C155.917 76.2657 155.952 76.3997 155.867 76.5257C155.798 76.6286 155.669 76.6949 155.554 76.6949Z" fill="#8BBABC"/>
<path fill-rule="evenodd" clip-rule="evenodd" d="M154.466 78.2867C154.439 78.2867 154.413 78.2827 154.388 78.2752C144.902 75.3173 135.834 71.1252 127.345 65.9015C127.23 65.8316 127.212 65.6918 127.304 65.5916C127.36 65.5302 127.446 65.4968 127.53 65.4968C127.582 65.4968 127.634 65.5097 127.678 65.5364C136.163 70.7307 145.225 74.8934 154.702 77.8223C154.829 77.8615 154.863 77.996 154.777 78.1206C154.707 78.2217 154.58 78.2867 154.466 78.2867Z" fill="#8BBABC"/>
<path fill-rule="evenodd" clip-rule="evenodd" d="M153.26 80.0147C153.231 80.0147 153.204 80.0112 153.178 80.0027C143.657 76.9322 134.564 72.627 126.061 67.2898C125.947 67.2181 125.929 67.0783 126.021 66.9794C126.077 66.9193 126.161 66.8877 126.244 66.8877C126.298 66.8877 126.352 66.9011 126.397 66.9296C134.896 72.237 143.983 76.5123 153.495 79.5534C153.623 79.5944 153.657 79.7289 153.57 79.8526C153.5 79.9519 153.373 80.0147 153.26 80.0147Z" fill="#8BBABC"/>
<path fill-rule="evenodd" clip-rule="evenodd" d="M152.199 81.5055C152.169 81.5055 152.141 81.501 152.114 81.4925C142.563 78.3228 133.451 73.9187 124.937 68.4822C124.822 68.4087 124.805 68.2689 124.898 68.1714C124.953 68.1131 125.036 68.0823 125.118 68.0823C125.173 68.0823 125.229 68.0966 125.275 68.126C133.786 73.5327 142.892 77.9069 152.434 81.0468C152.563 81.0887 152.596 81.2236 152.508 81.3465C152.438 81.444 152.312 81.5055 152.199 81.5055Z" fill="#8BBABC"/>
<path fill-rule="evenodd" clip-rule="evenodd" d="M151.02 83.1311C150.989 83.1311 150.959 83.1266 150.931 83.1173C141.349 79.838 132.216 75.3244 123.69 69.7774C123.576 69.7026 123.559 69.5628 123.652 69.4662C123.707 69.4096 123.788 69.3802 123.869 69.3802C123.926 69.3802 123.984 69.3949 124.031 69.4257C132.553 74.9428 141.681 79.4265 151.255 82.6751C151.384 82.7192 151.417 82.8541 151.328 82.9757C151.258 83.0714 151.133 83.1311 151.02 83.1311Z" fill="#8BBABC"/>
<path fill-rule="evenodd" clip-rule="evenodd" d="M147.297 88.0632C147.261 88.0632 147.226 88.0574 147.195 88.0458C137.522 84.4233 128.332 79.5655 119.78 73.6726C119.665 73.5933 119.65 73.4526 119.746 73.3604C119.798 73.3092 119.875 73.283 119.952 73.283C120.014 73.283 120.077 73.3003 120.129 73.3355C128.678 79.1977 137.864 84.0247 147.529 87.6166C147.659 87.6647 147.691 87.801 147.599 87.9194C147.529 88.0089 147.408 88.0632 147.297 88.0632Z" fill="#8BBABC"/>
<path fill-rule="evenodd" clip-rule="evenodd" d="M146.123 89.557C146.086 89.557 146.049 89.5512 146.017 89.5383C136.319 85.8084 127.112 80.8429 118.555 74.8418C118.441 74.7612 118.425 74.6205 118.522 74.5292C118.574 74.4798 118.649 74.4544 118.724 74.4544C118.789 74.4544 118.854 74.4727 118.906 74.5092C127.462 80.4796 136.663 85.4144 146.354 89.1136C146.485 89.163 146.516 89.2997 146.423 89.4168C146.353 89.5045 146.233 89.557 146.123 89.557Z" fill="#8BBABC"/>
<path fill-rule="evenodd" clip-rule="evenodd" d="M144.825 91.1773C144.786 91.1773 144.748 91.1711 144.714 91.1573C134.989 87.3089 125.768 82.2241 117.206 76.1036C117.09 76.0213 117.075 75.8801 117.173 75.7906C117.224 75.743 117.297 75.7189 117.372 75.7189C117.437 75.7189 117.504 75.7376 117.559 75.7764C126.119 81.8657 135.337 86.9193 145.055 90.737C145.186 90.7882 145.216 90.9249 145.122 91.0406C145.053 91.1266 144.935 91.1773 144.825 91.1773Z" fill="#8BBABC"/>
<path fill-rule="evenodd" clip-rule="evenodd" d="M143.685 92.5723C143.645 92.5723 143.606 92.5656 143.57 92.5514C133.823 88.5988 124.589 83.4098 116.024 77.1847C115.909 77.101 115.895 76.9599 115.992 76.8713C116.043 76.8254 116.115 76.8022 116.188 76.8022C116.255 76.8022 116.324 76.8218 116.379 76.8619C124.943 83.0554 134.174 88.2133 143.914 92.1346C144.045 92.1872 144.075 92.3243 143.981 92.4392C143.912 92.5229 143.794 92.5723 143.685 92.5723Z" fill="#8BBABC"/>
<path fill-rule="evenodd" clip-rule="evenodd" d="M142.421 94.092C142.379 94.092 142.338 94.0848 142.301 94.0692C132.531 90.0018 123.284 84.6975 114.717 78.3566C114.601 78.2711 114.588 78.13 114.686 78.0427C114.736 77.9986 114.806 77.9764 114.877 77.9764C114.946 77.9764 115.017 77.9973 115.074 78.0387C123.641 84.348 132.884 89.6207 142.648 93.6569C142.78 93.7113 142.809 93.8484 142.714 93.9619C142.645 94.0439 142.529 94.092 142.421 94.092Z" fill="#8BBABC"/>
<path fill-rule="evenodd" clip-rule="evenodd" d="M134.36 106.838C134.308 106.838 134.256 106.829 134.206 106.811C120.426 101.82 109.835 94.709 101.827 85.0719C101.746 84.9744 101.711 84.8462 101.73 84.7211C101.75 84.5951 101.822 84.4842 101.929 84.4152C116.01 75.3618 121.499 70.2418 131.297 57.0222C131.385 56.9042 131.521 56.8405 131.659 56.8405C131.737 56.8405 131.816 56.8606 131.887 56.9024C141.7 62.6444 152.053 66.8427 162.658 69.3816C162.797 69.415 162.912 69.512 162.967 69.6434C163.022 69.7747 163.01 69.9239 162.936 70.0455C154.698 83.5207 145.192 95.8534 134.683 106.701C134.597 106.79 134.48 106.838 134.36 106.838Z" fill="#8AC0FE"/>
<path fill-rule="evenodd" clip-rule="evenodd" d="M143.176 67.9043C139.105 66.1112 135.134 64.084 131.278 61.8421C131.177 61.7833 131.029 61.8105 130.949 61.9022C130.869 61.9944 130.887 62.1177 130.988 62.1769C134.847 64.4308 138.82 66.4696 142.894 68.2743C143 68.3219 143.151 68.2769 143.229 68.175C143.306 68.073 143.283 67.9514 143.176 67.9043Z" fill="#3792FC"/>
<path fill-rule="evenodd" clip-rule="evenodd" d="M138.904 97.8445C134.421 95.8315 130.054 93.5607 125.817 91.0522C125.706 90.9863 125.543 91.0032 125.455 91.0896C125.366 91.176 125.385 91.3006 125.496 91.367C129.734 93.8889 134.102 96.1726 138.587 98.1985C138.704 98.2515 138.872 98.215 138.959 98.1175C139.046 98.02 139.021 97.8971 138.904 97.8445Z" fill="#3792FC"/>
<path fill-rule="evenodd" clip-rule="evenodd" d="M159.533 71.1118C156.069 70.1799 152.656 69.0784 149.304 67.8174C149.206 67.7804 149.07 67.829 149.002 67.9251L148.976 67.963C148.907 68.0587 148.931 68.1678 149.029 68.2048C152.384 69.4751 155.8 70.5864 159.267 71.5277C159.368 71.5549 159.505 71.493 159.571 71.3892L159.597 71.3492C159.663 71.2454 159.634 71.139 159.533 71.1118Z" fill="#3792FC"/>
<path fill-rule="evenodd" clip-rule="evenodd" d="M155.883 76.4651C146.43 73.6093 137.384 69.5196 128.909 64.3987C128.795 64.3301 128.777 64.1908 128.867 64.0893C128.958 63.9877 129.126 63.961 129.24 64.0296C137.711 69.1211 146.749 73.1814 156.193 76.0083C156.32 76.0462 156.354 76.1802 156.269 76.3062C156.184 76.4317 156.01 76.5034 155.883 76.4651Z" fill="#3792FC"/>
<path fill-rule="evenodd" clip-rule="evenodd" d="M154.791 78.0556C145.304 75.0978 136.236 70.9057 127.747 65.682C127.633 65.6116 127.614 65.4722 127.706 65.3721C127.798 65.2719 127.966 65.2469 128.08 65.3168C136.565 70.5112 145.627 74.6734 155.104 77.6023C155.231 77.642 155.266 77.776 155.179 77.9011C155.093 78.0258 154.918 78.0957 154.791 78.0556Z" fill="#3792FC"/>
<path fill-rule="evenodd" clip-rule="evenodd" d="M153.581 79.7832C144.059 76.7123 134.966 72.4075 126.464 67.0703C126.349 66.9981 126.331 66.8588 126.424 66.7595C126.516 66.6606 126.685 66.6384 126.799 66.7096C135.299 72.0175 144.385 76.2928 153.898 79.3339C154.026 79.3749 154.059 79.5094 153.972 79.6331C153.885 79.7569 153.708 79.8246 153.581 79.7832Z" fill="#3792FC"/>
<path fill-rule="evenodd" clip-rule="evenodd" d="M152.516 81.2726C142.965 78.1032 133.853 73.6992 125.339 68.2622C125.224 68.1892 125.207 68.0494 125.3 67.9514C125.393 67.8539 125.562 67.8334 125.677 67.906C134.188 73.3132 143.295 77.6874 152.837 80.8269C152.965 80.8692 152.998 81.0041 152.91 81.127C152.822 81.2494 152.645 81.3153 152.516 81.2726Z" fill="#3792FC"/>
<path fill-rule="evenodd" clip-rule="evenodd" d="M151.334 82.8973C141.751 79.6184 132.618 75.1049 124.092 69.5579C123.978 69.4831 123.961 69.3428 124.055 69.2467C124.149 69.15 124.319 69.1318 124.433 69.2061C132.956 74.7229 142.083 79.2066 151.657 82.4556C151.786 82.4992 151.819 82.6346 151.73 82.7562C151.641 82.8782 151.462 82.9414 151.334 82.8973Z" fill="#3792FC"/>
<path fill-rule="evenodd" clip-rule="evenodd" d="M147.597 87.8258C137.924 84.2037 128.734 79.3455 120.182 73.453C120.068 73.3737 120.052 73.233 120.148 73.1409C120.243 73.0483 120.416 73.0371 120.531 73.1159C129.08 78.9777 138.266 83.8052 147.931 87.3966C148.061 87.4452 148.093 87.5814 148.001 87.6994C147.909 87.8178 147.727 87.8748 147.597 87.8258Z" fill="#3792FC"/>
<path fill-rule="evenodd" clip-rule="evenodd" d="M146.419 89.3188C136.721 85.5889 127.515 80.6229 118.958 74.6222C118.843 74.5412 118.828 74.4005 118.924 74.3092C119.021 74.2184 119.193 74.2095 119.309 74.2896C127.864 80.2596 137.066 85.1948 146.757 88.8936C146.887 88.9434 146.918 89.0801 146.825 89.1968C146.732 89.3143 146.549 89.3691 146.419 89.3188Z" fill="#3792FC"/>
<path fill-rule="evenodd" clip-rule="evenodd" d="M145.116 90.9377C135.391 87.0889 126.169 82.0041 117.608 75.8836C117.493 75.8013 117.478 75.6606 117.575 75.5706C117.672 75.4811 117.846 75.4749 117.961 75.5564C126.522 81.6457 135.739 86.6993 145.457 90.517C145.588 90.5682 145.618 90.7049 145.525 90.8211C145.431 90.9368 145.247 90.9894 145.116 90.9377Z" fill="#3792FC"/>
<path fill-rule="evenodd" clip-rule="evenodd" d="M143.973 92.3314C134.225 88.3789 124.991 83.1899 116.426 76.9652C116.311 76.8811 116.297 76.7403 116.395 76.6517C116.492 76.5631 116.666 76.5591 116.781 76.6424C125.346 82.8359 134.576 87.9933 144.317 91.9147C144.448 91.9676 144.478 92.1043 144.383 92.2192C144.288 92.3341 144.104 92.3848 143.973 92.3314Z" fill="#3792FC"/>
<path fill-rule="evenodd" clip-rule="evenodd" d="M142.703 93.8497C132.933 89.7818 123.686 84.4775 115.119 78.1371C115.004 78.0516 114.99 77.9104 115.088 77.8232C115.186 77.7359 115.361 77.7341 115.476 77.8192C124.043 84.128 133.286 89.4011 143.051 93.4374C143.182 93.4913 143.212 93.6288 143.116 93.7424C143.021 93.8559 142.835 93.9045 142.703 93.8497Z" fill="#3792FC"/>
<path fill-rule="evenodd" clip-rule="evenodd" d="M59.8801 159.363C59.3144 159.363 58.808 159.143 58.454 158.744C58.0956 158.34 57.939 157.804 58.0121 157.236L62.9243 119.714C63.0764 118.583 64.0866 117.693 65.2243 117.687L119.258 117.487C119.829 117.487 120.339 117.709 120.695 118.113C121.052 118.518 121.207 119.052 121.131 119.617L116.22 157.141C116.073 158.269 115.063 159.157 113.92 159.163L59.8801 159.363Z" fill="#D2E7FF"/>
<path fill-rule="evenodd" clip-rule="evenodd" d="M119.26 117.042H119.257L93.6909 117.135L65.2229 117.242C63.8654 117.249 62.6609 118.308 62.4797 119.653L57.5675 157.178C57.4774 157.877 57.6725 158.537 58.1175 159.038C58.5576 159.535 59.1838 159.809 59.8796 159.809L97.1025 159.671L113.92 159.608C115.285 159.601 116.49 158.543 116.664 157.197L121.576 119.672C121.668 118.992 121.47 118.316 121.033 117.82C120.596 117.325 119.95 117.042 119.26 117.042ZM119.26 117.932C120.166 117.932 120.808 118.658 120.687 119.557L115.774 157.084C115.658 157.983 114.828 158.713 113.917 158.718L97.0993 158.78L59.8881 158.918H59.8796C58.9734 158.918 58.3409 158.194 58.4571 157.293L63.3693 119.771C63.4904 118.872 64.3203 118.137 65.2265 118.133L93.6945 118.026L119.26 117.932Z" fill="#9FCAFD"/>
<path fill-rule="evenodd" clip-rule="evenodd" d="M208.7 159.254C207.561 159.254 206.549 158.423 206.394 157.363L201.34 122.64C201.265 122.126 201.406 121.634 201.737 121.254C202.087 120.852 202.623 120.622 203.206 120.622H257.24C258.378 120.622 259.391 121.452 259.545 122.512L264.6 157.236C264.675 157.75 264.534 158.242 264.203 158.622C263.852 159.024 263.317 159.254 262.734 159.254H208.7Z" fill="#3792FC" fill-opacity="0.69"/>
<path fill-rule="evenodd" clip-rule="evenodd" d="M257.24 120.176H203.206C202.493 120.176 201.834 120.463 201.398 120.963C200.98 121.441 200.802 122.059 200.896 122.703L205.95 157.427C206.136 158.701 207.344 159.699 208.7 159.699H262.734C263.447 159.699 264.106 159.413 264.542 158.913C264.959 158.434 265.138 157.816 265.044 157.172L259.989 122.448C259.804 121.175 258.596 120.176 257.24 120.176ZM257.24 121.067C258.147 121.067 258.98 121.743 259.101 122.576L264.156 157.299C264.278 158.133 263.641 158.808 262.734 158.808H208.7C207.793 158.808 206.96 158.133 206.839 157.299L201.784 122.576C201.662 121.743 202.299 121.067 203.206 121.067H257.24Z" fill="#3792FC" fill-opacity="0.5"/>
<path fill-rule="evenodd" clip-rule="evenodd" d="M208.189 159.254C207.622 159.254 207.114 159.032 206.76 158.63C206.402 158.223 206.246 157.687 206.323 157.12L211.377 119.615C211.53 118.484 212.543 117.599 213.684 117.599H267.717C268.284 117.599 268.792 117.82 269.147 118.223C269.506 118.629 269.661 119.166 269.584 119.732L264.53 157.238C264.377 158.369 263.364 159.254 262.223 159.254H208.189Z" fill="#B9D9FF"/>
<path fill-rule="evenodd" clip-rule="evenodd" d="M267.717 117.154H213.684C212.323 117.154 211.114 118.209 210.933 119.556L205.878 157.06C205.785 157.747 205.984 158.426 206.422 158.923C206.857 159.416 207.501 159.699 208.189 159.699H262.223C263.584 159.699 264.793 158.644 264.974 157.297L270.029 119.792C270.121 119.106 269.923 118.427 269.485 117.93C269.05 117.437 268.406 117.154 267.717 117.154ZM267.717 118.044C268.624 118.044 269.261 118.774 269.139 119.674L264.085 157.179C263.964 158.079 263.13 158.808 262.223 158.808H208.189C207.283 158.808 206.646 158.079 206.767 157.179L211.822 119.674C211.943 118.774 212.777 118.044 213.684 118.044H267.717Z" fill="#3792FC"/>
<path fill-rule="evenodd" clip-rule="evenodd" d="M115.92 158.731C116.316 158.316 116.588 157.784 116.664 157.197L116.666 157.186C116.744 157.745 116.617 158.284 116.306 158.729L115.92 158.731Z" fill="#000515"/>
<path fill-rule="evenodd" clip-rule="evenodd" d="M102.603 158.76C118.349 141.963 106.125 125.227 99.1791 118.026L119.51 117.951C120.281 118.072 120.796 118.744 120.687 119.557L115.775 157.084C115.658 157.983 114.828 158.713 113.917 158.718L102.603 158.76Z" fill="#9FCAFD"/>
<path fill-rule="evenodd" clip-rule="evenodd" d="M102.584 158.78C102.591 158.773 102.596 158.767 102.603 158.76L113.917 158.718C114.828 158.713 115.658 157.983 115.775 157.084L120.687 119.557C120.796 118.744 120.281 118.072 119.51 117.951L121.135 117.946C121.5 118.427 121.661 119.048 121.576 119.672L116.666 157.186L116.664 157.197C116.588 157.784 116.316 158.316 115.92 158.731L102.584 158.78Z" fill="#9FCAFD"/>
<path fill-rule="evenodd" clip-rule="evenodd" d="M245.693 158.78C261.456 141.99 249.258 125.258 242.306 118.044H267.717C268.624 118.044 269.261 118.774 269.139 119.674L264.085 157.179C263.995 157.845 263.514 158.418 262.903 158.671C262.775 158.701 262.644 158.717 262.511 158.718L245.693 158.78Z" fill="#3792FC" fill-opacity="0.5"/>
<path fill-rule="evenodd" clip-rule="evenodd" d="M278.181 159.769H43.3208C42.4574 159.769 41.751 159.094 41.751 158.269C41.751 157.444 42.4574 156.769 43.3208 156.769H278.181C279.045 156.769 279.751 157.444 279.751 158.269C279.751 159.094 279.045 159.769 278.181 159.769Z" fill="#3792FC"/>
<path fill-rule="evenodd" clip-rule="evenodd" d="M76.844 139.261C76.844 139.689 77.1918 140.039 77.6161 140.039H90.2605C90.6848 140.039 91.0325 139.689 91.0325 139.261C91.0325 138.834 90.6848 138.484 90.2605 138.484H77.6161C77.1918 138.484 76.844 138.834 76.844 139.261Z" fill="#3792FC"/>
<path fill-rule="evenodd" clip-rule="evenodd" d="M84.8784 135.977L91.1565 139.49L84.8784 143.003C84.6335 143.141 84.4813 143.401 84.4813 143.683C84.4813 144.276 85.1135 144.651 85.6282 144.363L93.0689 140.2C93.3307 140.053 93.4714 139.773 93.4616 139.49C93.4714 139.207 93.3307 138.927 93.0689 138.781L85.6282 134.618C85.1135 134.33 84.4813 134.705 84.4813 135.297C84.4813 135.58 84.6335 135.84 84.8784 135.977Z" fill="#3792FC"/>
<path fill-rule="evenodd" clip-rule="evenodd" d="M235.938 131.167C235.51 131.167 235.161 131.515 235.161 131.939V144.584C235.161 145.008 235.51 145.356 235.938 145.356C236.366 145.356 236.716 145.008 236.716 144.584V131.939C236.716 131.515 236.366 131.167 235.938 131.167Z" fill="#3792FC"/>
<path fill-rule="evenodd" clip-rule="evenodd" d="M239.485 137.397L235.972 143.675L232.459 137.397C232.321 137.152 232.061 137 231.779 137C231.186 137 230.811 137.632 231.099 138.147L235.262 145.588C235.409 145.849 235.689 145.99 235.972 145.98C236.255 145.99 236.535 145.849 236.681 145.588L240.844 138.147C241.132 137.632 240.757 137 240.165 137C239.882 137 239.622 137.152 239.485 137.397Z" fill="#3792FC"/>
<path d="M123.994 136.103C127.648 132.139 132.14 128.942 133.667 127.928C157.93 111.804 177.512 116.409 198.625 137" stroke="#3792FC" stroke-dasharray="3 3"/>
<path d="M198.625 133.428L199.162 137.414L195.113 137" stroke="#3792FC" stroke-linecap="round" stroke-linejoin="round"/>
<path d="M174.889 117.951L177.052 121.553L172.954 122.332" stroke="#3792FC" stroke-linecap="round" stroke-linejoin="round"/>
<path d="M139.011 122.332H142.77L141.532 125.938" stroke="#3792FC" stroke-linecap="round" stroke-linejoin="round"/>
</svg>
