<svg width="20" height="20" viewBox="0 0 20 20" fill="none" xmlns="http://www.w3.org/2000/svg">
<circle cx="10" cy="10" r="9.5" fill="#D6ECFF" stroke="#A9D1FF"/>
<path d="M6.56001 14C6.49334 14 6.43668 13.9767 6.39001 13.93C6.34334 13.8833 6.32001 13.8267 6.32001 13.76V8.25H4.47001C4.40334 8.25 4.34668 8.22667 4.30001 8.18C4.25334 8.13333 4.23001 8.07333 4.23001 8V7.25C4.23001 7.17667 4.25001 7.11667 4.29001 7.07C4.33668 7.02333 4.39668 7 4.47001 7H9.58001C9.65334 7 9.71334 7.02333 9.76001 7.07C9.80668 7.11667 9.83001 7.17667 9.83001 7.25V8C9.83001 8.07333 9.80668 8.13333 9.76001 8.18C9.71334 8.22667 9.65334 8.25 9.58001 8.25H7.74001V13.76C7.74001 13.8267 7.71668 13.8833 7.67001 13.93C7.63001 13.9767 7.57334 14 7.50001 14H6.56001Z" fill="#0D7DFF"/>
<path d="M11.0845 14C11.0178 14 10.9611 13.9767 10.9145 13.93C10.8678 13.8833 10.8445 13.8267 10.8445 13.76V7.25C10.8445 7.17667 10.8645 7.11667 10.9045 7.07C10.9511 7.02333 11.0111 7 11.0845 7H15.4345C15.5078 7 15.5678 7.02333 15.6145 7.07C15.6611 7.11667 15.6845 7.17667 15.6845 7.25V7.97C15.6845 8.03667 15.6611 8.09333 15.6145 8.14C15.5678 8.18667 15.5078 8.21 15.4345 8.21H12.2345V10.09H15.2345C15.3078 10.09 15.3678 10.1133 15.4145 10.16C15.4611 10.2067 15.4845 10.2633 15.4845 10.33V11.05C15.4845 11.1167 15.4611 11.1733 15.4145 11.22C15.3678 11.2667 15.3078 11.29 15.2345 11.29H12.2345V13.76C12.2345 13.8267 12.2111 13.8833 12.1645 13.93C12.1178 13.9767 12.0578 14 11.9845 14H11.0845Z" fill="#0D7DFF"/>
</svg>
