<svg width="18" height="20" viewBox="0 0 18 20" fill="none" xmlns="http://www.w3.org/2000/svg">
<path d="M9.99219 8.51779V5.24902C11.1222 5.33996 11.8422 5.82097 12.2929 6.29069C12.5304 6.53827 12.6972 6.78753 12.8079 6.98466L9.99219 8.51779Z" stroke="#FFBD00" stroke-linecap="round" stroke-linejoin="round"/>
<path d="M8.58644 4.49854L8.48828 11.2069L13.9267 8.21292" stroke="#675AF6" stroke-linecap="round" stroke-linejoin="round"/>
<path d="M8.49174 11.8994C8.86688 11.8994 9.17099 11.5893 9.17099 11.2068C9.17099 10.8243 8.86688 10.5142 8.49174 10.5142C8.11661 10.5142 7.8125 10.8243 7.8125 11.2068C7.8125 11.5893 8.11661 11.8994 8.49174 11.8994Z" stroke="#675AF6" stroke-linecap="round"/>
<path d="M16.4811 11.0577C16.4811 15.5324 12.8981 19.1497 8.49057 19.1497C4.08308 19.1497 0.5 15.5324 0.5 11.0577C0.5 6.58309 4.08308 2.96582 8.49057 2.96582C12.8981 2.96582 16.4811 6.58309 16.4811 11.0577Z" stroke="#675AF6" stroke-linecap="round"/>
<path d="M9.81758 0.789474C9.81758 0.898587 9.7002 1.0786 9.43626 1.0786H7.76023C7.49608 1.0786 7.37891 0.898704 7.37891 0.789474C7.37891 0.679874 7.49644 0.5 7.76023 0.5H9.43626C9.6999 0.5 9.81758 0.680089 9.81758 0.789474Z" stroke="#675AF6" stroke-linecap="round"/>
<path d="M17.0627 5.61901L17.0614 5.62011C16.9963 5.67566 16.9019 5.66822 16.8459 5.59976L16.8457 5.59945L16.0437 4.62006C16.0437 4.62003 16.0436 4.61999 16.0436 4.61995C15.9823 4.5448 15.994 4.43189 16.0648 4.3718L16.0655 4.37118C16.1302 4.31607 16.2254 4.32294 16.2822 4.39227V4.39229L17.084 5.37157C17.084 5.37158 17.084 5.37158 17.084 5.37159C17.1449 5.44599 17.1335 5.559 17.0627 5.61901Z" stroke="#675AF6" stroke-linecap="round"/>
</svg>
