<svg width="338" height="321" viewBox="0 0 338 321" fill="none" xmlns="http://www.w3.org/2000/svg">
<path opacity="0.3" d="M168.329 321C261.295 321 336.66 303.944 336.66 282.906C336.66 261.866 261.295 244.81 168.329 244.81C75.3635 244.81 0 261.866 0 282.906C0 303.944 75.3635 321 168.329 321Z" fill="#EFEEFB"/>
<path opacity="0.4" d="M161.82 297.739C211.346 297.739 251.495 291.68 251.495 284.206C251.495 276.731 211.346 270.672 161.82 270.672C112.294 270.672 72.1445 276.731 72.1445 284.206C72.1445 291.68 112.294 297.739 161.82 297.739Z" fill="#E6E5F4"/>
<path d="M137.942 271.197C141.587 263.09 144.945 247.959 144.08 243.073C143.215 238.187 138.002 242.923 134.505 238.332C131.007 233.741 137.869 227.451 135.648 223.95C133.426 220.449 126.422 226.857 123.058 224.385C119.694 221.913 122.49 215.234 119.337 211.964C116.184 208.694 114.152 212.422 110.327 211.183C107.014 210.109 101.097 204.215 98.6785 205.07C96.2598 205.925 100.043 210.848 98.9448 215.206C97.8461 219.563 94.162 219.676 94.3743 222.142C94.5867 224.607 101.195 220.758 99.9998 227.457C98.8042 234.156 91.495 234.461 92.6871 238.554C93.8792 242.647 102.582 241.851 105.267 245.543C107.953 249.235 98.6547 251.207 103.416 257.205C108.176 263.203 114.932 262.394 120.815 265.13C125.946 267.516 129.236 271.575 136.104 272.262C136.542 272.306 137.757 271.61 137.942 271.197Z" fill="#9D95F8"/>
<path d="M139.853 245.539C139.853 245.539 135.749 249.356 133.827 252.959C131.906 256.563 132.549 263.521 132.549 263.521L132.126 262.784C132.126 262.784 131.765 255.804 133.615 252.591C135.466 249.378 139.853 245.539 139.853 245.539Z" fill="#675AF6"/>
<path d="M108.834 254.675C108.834 254.675 114.179 253.016 118.249 253.148C122.319 253.279 128.368 257.105 128.368 257.105L127.945 256.368C127.945 256.368 121.735 252.777 118.037 252.779C114.34 252.781 108.834 254.675 108.834 254.675Z" fill="#675AF6"/>
<path d="M132.781 225.576C132.781 225.576 127.207 230.245 125.285 233.848C123.363 237.452 122.169 245.475 122.169 245.475L121.745 244.738C121.745 244.738 123.222 236.693 125.073 233.48C126.923 230.267 132.781 225.576 132.781 225.576Z" fill="#675AF6"/>
<path d="M95.5117 238.334C95.5117 238.334 102.328 235.823 106.398 235.954C110.468 236.085 117.988 239.059 117.988 239.059L117.564 238.322C117.564 238.322 109.884 235.584 106.186 235.586C102.488 235.588 95.5117 238.334 95.5117 238.334Z" fill="#675AF6"/>
<path d="M117.279 215.22C117.279 215.22 114.412 220.168 113.958 223.344C113.504 226.521 114.772 232.763 114.772 232.763L114.262 232.333C114.262 232.333 113.197 225.999 113.703 223.129C114.209 220.26 117.279 215.22 117.279 215.22Z" fill="#675AF6"/>
<path d="M96.4412 221.472C96.4412 221.472 100.78 220.69 103.198 221.199C105.617 221.708 109.8 224.281 109.8 224.281L109.624 223.796C109.624 223.796 105.321 221.346 103.111 220.956C100.9 220.567 96.4412 221.472 96.4412 221.472Z" fill="#675AF6"/>
<path d="M98.6771 205.073L144.977 284.272L143.874 284.911L98.6771 205.073Z" fill="#675AF6"/>
<path d="M140.401 277.836C139.687 270.673 135.939 258.701 133.362 255.627C130.785 252.553 129.04 257.991 124.737 256.193C120.434 254.395 122.708 247.197 119.738 245.645C116.769 244.093 114.443 251.432 111.088 251.065C107.732 250.699 106.999 244.88 103.47 243.869C99.9406 242.857 100.019 246.296 96.8382 246.981C94.0826 247.574 87.5577 245.846 86.2068 247.428C84.8559 249.01 89.4939 250.924 90.481 254.426C91.4681 257.927 88.9306 259.503 90.0739 261.145C91.2171 262.787 94.2979 257.404 96.1612 262.586C98.0246 267.768 93.0235 270.951 95.5099 273.337C97.9963 275.722 103.777 271.628 107.148 273.125C110.519 274.623 104.796 279.783 110.553 282.054C116.309 284.324 120.719 281.013 125.947 280.541C130.507 280.129 134.45 281.638 139.542 279.33C139.867 279.183 140.437 278.201 140.401 277.836Z" fill="#B9B3F9"/>
<path d="M131.386 259.073C131.386 259.073 130.048 263.416 130.154 266.723C130.259 270.029 133.517 274.646 133.517 274.646L132.923 274.302C132.923 274.302 129.855 269.555 129.856 266.55C129.858 263.546 131.386 259.073 131.386 259.073Z" fill="#9D95F8"/>
<path d="M113.323 278.079C113.323 278.079 116.402 274.744 119.308 273.183C122.214 271.622 127.998 271.846 127.998 271.846L127.404 271.502C127.404 271.502 121.603 271.507 119.011 273.011C116.42 274.515 113.323 278.079 113.323 278.079Z" fill="#9D95F8"/>
<path d="M118.377 247.95C118.377 247.95 116.352 253.488 116.458 256.795C116.564 260.101 118.962 266.212 118.962 266.212L118.368 265.867C118.368 265.867 116.159 259.627 116.161 256.623C116.162 253.618 118.377 247.95 118.377 247.95Z" fill="#9D95F8"/>
<path d="M97.3936 272.035C97.3936 272.035 101.16 267.505 104.066 265.944C106.972 264.382 113.443 263.412 113.443 263.412L112.849 263.068C112.849 263.068 106.36 264.268 103.769 265.772C101.177 267.275 97.3936 272.035 97.3936 272.035Z" fill="#9D95F8"/>
<path d="M103.333 246.987C103.333 246.987 103.318 251.621 104.281 254.032C105.243 256.443 108.65 260.304 108.65 260.304L108.119 260.211C108.119 260.211 104.818 256.202 104.015 253.985C103.213 251.768 103.333 246.987 103.333 246.987Z" fill="#9D95F8"/>
<path d="M91.245 259.835C91.245 259.835 93.9713 257.525 95.8723 256.899C97.7734 256.273 101.743 256.378 101.743 256.378L101.424 256.109C101.424 256.109 97.4197 256.14 95.7129 256.765C94.006 257.39 91.245 259.835 91.245 259.835Z" fill="#9D95F8"/>
<path d="M86.1992 247.431L150.598 284.145L150.082 285.042L86.1992 247.431Z" fill="#9D95F8"/>
<path d="M194.683 273.323C191.038 265.216 187.68 250.085 188.545 245.199C189.41 240.313 194.623 245.049 198.12 240.458C201.618 235.867 194.756 229.577 196.977 226.076C199.199 222.575 206.203 228.983 209.567 226.511C212.931 224.039 210.135 217.36 213.288 214.09C216.441 210.82 218.473 214.548 222.298 213.309C225.611 212.235 231.528 206.341 233.946 207.196C236.365 208.051 232.582 212.974 233.68 217.332C234.779 221.689 238.463 221.802 238.251 224.268C238.038 226.733 231.43 222.884 232.625 229.583C233.821 236.282 241.13 236.587 239.938 240.68C238.746 244.773 230.043 243.977 227.358 247.669C224.672 251.361 233.97 253.333 229.209 259.331C224.449 265.329 217.693 264.52 211.81 267.256C206.679 269.642 203.389 273.701 196.521 274.388C196.083 274.432 194.868 273.736 194.683 273.323Z" fill="#9D95F8"/>
<path d="M192.772 247.665C192.772 247.665 196.876 251.482 198.798 255.085C200.719 258.689 200.076 265.647 200.076 265.647L200.499 264.91C200.499 264.91 200.86 257.93 199.01 254.717C197.159 251.504 192.772 247.665 192.772 247.665Z" fill="#675AF6"/>
<path d="M223.791 256.801C223.791 256.801 218.446 255.142 214.376 255.274C210.306 255.405 204.257 259.231 204.257 259.231L204.68 258.494C204.68 258.494 210.89 254.903 214.588 254.905C218.285 254.907 223.791 256.801 223.791 256.801Z" fill="#675AF6"/>
<path d="M199.844 227.702C199.844 227.702 205.418 232.371 207.34 235.974C209.262 239.578 210.456 247.601 210.456 247.601L210.88 246.864C210.88 246.864 209.403 238.819 207.552 235.606C205.702 232.393 199.844 227.702 199.844 227.702Z" fill="#675AF6"/>
<path d="M237.113 240.46C237.113 240.46 230.297 237.949 226.227 238.08C222.157 238.211 214.637 241.185 214.637 241.185L215.061 240.448C215.061 240.448 222.741 237.71 226.439 237.712C230.137 237.714 237.113 240.46 237.113 240.46Z" fill="#675AF6"/>
<path d="M215.346 217.346C215.346 217.346 218.213 222.293 218.667 225.47C219.121 228.647 217.853 234.889 217.853 234.889L218.363 234.459C218.363 234.459 219.428 228.125 218.922 225.255C218.416 222.386 215.346 217.346 215.346 217.346Z" fill="#675AF6"/>
<path d="M236.184 223.597C236.184 223.597 231.845 222.816 229.427 223.325C227.008 223.834 222.825 226.407 222.825 226.407L223.001 225.922C223.001 225.922 227.304 223.472 229.514 223.082C231.725 222.693 236.184 223.597 236.184 223.597Z" fill="#675AF6"/>
<path d="M233.948 207.199L187.648 286.398L188.751 287.037L233.948 207.199Z" fill="#675AF6"/>
<path d="M192.22 279.962C192.934 272.799 196.682 260.827 199.259 257.753C201.836 254.678 203.581 260.117 207.884 258.319C212.187 256.521 209.913 249.323 212.883 247.771C215.852 246.219 218.178 253.558 221.533 253.191C224.889 252.825 225.622 247.006 229.151 245.995C232.68 244.983 232.602 248.422 235.783 249.107C238.538 249.7 245.063 247.972 246.414 249.554C247.765 251.136 243.127 253.05 242.14 256.552C241.153 260.053 243.69 261.629 242.547 263.271C241.404 264.913 238.323 259.53 236.46 264.712C234.597 269.894 239.598 273.077 237.111 275.463C234.625 277.848 228.844 273.754 225.473 275.251C222.102 276.749 227.825 281.909 222.068 284.179C216.312 286.45 211.902 283.139 206.674 282.667C202.115 282.255 198.171 283.764 193.079 281.456C192.754 281.309 192.184 280.327 192.22 279.962Z" fill="#B9B3F9"/>
<path d="M201.235 261.198C201.235 261.198 202.573 265.542 202.468 268.849C202.362 272.155 199.104 276.772 199.104 276.772L199.698 276.428C199.698 276.428 202.766 271.681 202.765 268.676C202.763 265.672 201.235 261.198 201.235 261.198Z" fill="#9D95F8"/>
<path d="M219.298 280.205C219.298 280.205 216.219 276.87 213.313 275.309C210.407 273.748 204.623 273.972 204.623 273.972L205.217 273.628C205.217 273.628 211.018 273.633 213.61 275.137C216.201 276.641 219.298 280.205 219.298 280.205Z" fill="#9D95F8"/>
<path d="M214.244 250.076C214.244 250.076 216.269 255.614 216.163 258.921C216.058 262.227 213.659 268.338 213.659 268.338L214.253 267.993C214.253 267.993 216.462 261.753 216.46 258.749C216.459 255.744 214.244 250.076 214.244 250.076Z" fill="#9D95F8"/>
<path d="M235.228 274.161C235.228 274.161 231.462 269.631 228.555 268.07C225.649 266.508 219.178 265.538 219.178 265.538L219.772 265.194C219.772 265.194 226.261 266.394 228.852 267.898C231.444 269.401 235.228 274.161 235.228 274.161Z" fill="#9D95F8"/>
<path d="M229.288 249.113C229.288 249.113 229.303 253.747 228.34 256.158C227.378 258.569 223.971 262.43 223.971 262.43L224.502 262.337C224.502 262.337 227.803 258.328 228.606 256.111C229.408 253.894 229.288 249.113 229.288 249.113Z" fill="#9D95F8"/>
<path d="M241.376 261.961C241.376 261.961 238.65 259.651 236.749 259.025C234.848 258.399 230.878 258.504 230.878 258.504L231.197 258.235C231.197 258.235 235.201 258.266 236.908 258.891C238.615 259.516 241.376 261.961 241.376 261.961Z" fill="#9D95F8"/>
<path d="M246.422 249.557L182.023 286.271L182.539 287.168L246.422 249.557Z" fill="#9D95F8"/>
<path opacity="0.4" d="M335.456 108.248C335.394 107.96 335.336 107.672 335.269 107.388C333.146 97.6087 329.677 88.1843 324.52 79.5305C324.348 79.2424 324.177 78.9544 324.003 78.6674C320.602 73.0984 316.533 67.9663 311.886 63.3848C309.317 60.8506 306.514 58.4419 303.182 56.706C298.513 54.2686 293.054 53.2789 287.69 52.4711C282.118 51.6271 276.47 50.9223 270.837 50.1623C268.835 49.8976 266.845 49.6159 264.867 49.3182C259.425 48.5136 254.021 47.5824 248.748 46.3483C242.229 44.825 235.909 42.8298 229.939 40.0245C229.463 39.8088 228.992 39.5802 228.525 39.3389C228.06 39.1061 227.59 38.8701 227.131 38.631C226.671 38.3918 226.219 38.1526 225.769 37.9071C225.536 37.7806 225.303 37.6541 225.073 37.5223C224.844 37.3894 224.618 37.2725 224.393 37.1438C223.721 36.7686 223.061 36.3838 222.401 35.9958L222.375 35.9799C221.938 35.7248 221.508 35.4622 221.081 35.2007C218.642 33.72 216.253 32.1744 213.866 30.6192L212.365 29.6498L210.038 28.1467C209.585 27.8523 209.122 27.5578 208.666 27.2676C208.342 27.054 208.019 26.8403 207.667 26.6203C205.971 25.5541 204.253 24.506 202.489 23.5078C202.072 23.2676 201.651 23.0284 201.228 22.7956C197.665 20.81 193.939 19.1315 190.091 17.7783L190.04 17.7592C188.103 17.0842 186.128 16.5272 184.125 16.0914C182.969 15.8384 181.811 15.6321 180.641 15.4738C177.51 15.0294 174.335 14.9859 171.192 15.3409C165.023 16.0552 159.241 18.4214 153.074 19.2208C140.378 20.8365 128.047 15.629 116.109 11.5492C113.173 10.5468 110.215 9.60819 107.236 8.73335C105.257 8.14765 103.27 7.59489 101.266 7.06127C88.9964 3.82235 76.4735 1.62834 63.8317 0.50157C58.5482 -0.0150421 53.2318 -0.133034 47.9292 0.149721C45.9138 0.271965 43.9207 0.47287 41.9637 0.796018C35.2661 1.83031 29.0212 3.99987 23.981 7.97332C19.8524 11.2356 16.8978 15.4865 14.6497 19.9351C12.3474 24.4741 10.7219 29.3256 9.8252 34.3344C9.70196 35.0168 9.59253 35.7014 9.50116 36.387C9.33967 37.5595 9.21962 38.7383 9.13887 39.9236C8.70434 46.242 9.45866 52.5859 11.3657 58.6258C13.5012 65.3896 17.0603 71.8812 18.6253 78.6961C18.6901 78.9852 18.7517 79.2722 18.8102 79.5592C19.0237 80.5946 19.1831 81.6395 19.2861 82.6918C20.0851 91.065 17.021 99.2287 14.6168 107.417C14.5328 107.702 14.4489 107.99 14.3681 108.277C14.1089 109.187 13.8614 110.095 13.6234 111.002C11.3976 119.66 10.7793 128.929 12.7628 137.571C12.8244 137.858 12.8988 138.146 12.97 138.431C14.298 143.892 16.7947 149.003 20.2891 153.408C24.0033 158.064 28.8788 161.94 34.0879 165.344C36.6271 167.004 39.2524 168.555 41.9637 169.996C43.9048 171.03 45.8936 172.01 47.9292 172.935C64.2524 180.371 82.8736 184.001 101.287 183.2C102.257 183.157 103.228 183.106 104.199 183.035C105.169 182.964 106.23 182.88 107.246 182.786C119.108 181.635 130.649 178.858 142.108 175.822C145.949 174.804 149.783 173.759 153.614 172.734C155.32 172.282 157.022 171.83 158.726 171.39C167.078 169.233 175.55 167.281 184.132 165.823C186.118 165.479 188.107 165.167 190.097 164.885C197.01 163.87 203.979 163.279 210.963 163.116C213.679 163.063 216.396 163.087 219.113 163.188C220.486 163.238 221.859 163.312 223.232 163.411C237.42 164.41 251.132 167.753 264.867 170.875C266.853 171.328 268.843 171.775 270.837 172.215C273.451 172.79 276.065 173.346 278.692 173.86C295.041 177.07 309.614 175.224 324.814 168.599C328.269 167.096 331.722 165.28 333.838 162.457C335.954 159.635 336.485 156.169 336.879 152.824C337.439 148.058 337.805 143.231 337.944 138.379C337.944 138.094 337.944 137.807 337.963 137.519C338.183 127.717 337.452 117.82 335.456 108.248Z" fill="#EFEEFB"/>
<path d="M335.401 191.44C335.401 231.61 311.533 245.635 282.091 245.635C252.649 245.635 228.781 231.61 228.781 191.44C228.781 151.271 282.091 100.169 282.091 100.169C282.091 100.169 335.401 151.271 335.401 191.44Z" fill="#EFEEFB"/>
<path d="M280.695 205.872L303.417 164.282L280.781 200.599L281.026 185.483L296.685 155.392L281.091 181.482L281.532 154.295L298.301 130.339L281.602 150.019L281.877 100.169L280.144 166.163L280.287 163.441L263.238 137.331L280.013 168.666L278.424 199.03L278.378 198.224L258.723 170.747L278.318 201.071L278.119 204.869L278.083 204.925L278.1 205.237L274.069 282.272H279.454L280.101 242.481L299.647 212.232L280.149 239.491L280.695 205.872Z" fill="#C6C2F9"/>
<path d="M43.8645 257.989C43.8645 268.852 37.4092 272.645 29.4474 272.645C21.4855 272.645 15.0312 268.852 15.0312 257.989C15.0312 247.127 29.4474 233.308 29.4474 233.308C29.4474 233.308 43.8645 247.127 43.8645 257.989Z" fill="#EFEEFB"/>
<path d="M28.9184 270.983L29.0661 261.893L35.2112 250.645L29.0895 260.466L29.1554 256.379L33.3902 248.241L29.1734 255.297L29.2924 247.944L33.8279 241.466L29.3115 246.789L29.3859 233.308L28.9174 251.154L28.9556 250.418L24.3457 243.357L28.8823 251.831L28.452 260.042L28.4393 259.824L23.125 252.394L28.4233 260.594L28.3702 261.62L28.3596 261.636L28.3638 261.72L27.2749 282.553H28.7304L28.9057 271.792L34.1913 263.613L28.9184 270.983Z" fill="#C6C2F9"/>
<path d="M307.447 272.816C307.447 280.163 303.082 282.729 297.696 282.729C297.572 282.729 297.447 282.727 297.322 282.725C297.073 282.72 296.826 282.708 296.582 282.691C291.721 282.347 287.945 279.65 287.945 272.816C287.945 265.745 296.977 256.821 297.656 256.161L297.657 256.16C297.684 256.134 297.696 256.122 297.696 256.122C297.696 256.122 307.447 265.469 307.447 272.816Z" fill="#EFEEFB"/>
<path d="M297.345 281.605L300.911 276.619L297.336 282.152L297.326 282.725C297.076 282.72 296.83 282.708 296.585 282.691L296.97 275.341L296.967 275.283L296.973 275.272L297.009 274.578L293.426 269.031L297.021 274.057L297.03 274.205L297.32 268.651L294.251 262.918L297.357 267.675L297.66 256.161L297.661 256.122V256.16L297.611 265.24L300.665 261.641L297.598 266.022L297.517 270.995L300.369 266.222L297.506 271.726L297.46 274.491L301.601 267.849L297.445 275.456L297.345 281.605Z" fill="#C6C2F9"/>
<path d="M226.655 109.412H228.527C228.726 109.412 228.916 109.491 229.057 109.631C229.198 109.773 229.276 109.963 229.276 110.162V136.465C229.276 136.664 229.198 136.854 229.057 136.996C228.916 137.136 228.726 137.215 228.527 137.215H226.655C226.457 137.215 226.266 137.136 226.125 136.996C225.985 136.854 225.906 136.664 225.906 136.465V110.162C225.906 109.963 225.985 109.773 226.125 109.631C226.266 109.491 226.457 109.412 226.655 109.412Z" fill="#5A6389"/>
<path d="M114.354 87.6305H115.264C115.35 87.6305 115.435 87.6528 115.509 87.6964C115.584 87.74 115.646 87.8016 115.689 87.8771C115.732 87.9515 115.754 88.0366 115.754 88.1227V96.2917C115.754 96.3778 115.732 96.4629 115.689 96.5373C115.646 96.6127 115.584 96.6744 115.509 96.718C115.435 96.7616 115.35 96.7839 115.264 96.7839H114.354C114.268 96.7839 114.183 96.7616 114.109 96.718C114.033 96.6744 113.972 96.6127 113.929 96.5373C113.886 96.4629 113.863 96.3778 113.863 96.2917V88.1227C113.863 88.0366 113.886 87.9515 113.929 87.8771C113.972 87.8016 114.033 87.74 114.109 87.6964C114.183 87.6528 114.268 87.6305 114.354 87.6305Z" fill="#5A6389"/>
<path d="M114.346 104.389H115.372C115.518 104.389 115.66 104.447 115.763 104.551C115.867 104.654 115.925 104.796 115.925 104.942V119.766C115.925 119.913 115.867 120.054 115.763 120.157C115.66 120.261 115.518 120.32 115.372 120.32H114.346C114.2 120.32 114.059 120.261 113.956 120.157C113.851 120.054 113.793 119.913 113.793 119.766V104.942C113.793 104.796 113.851 104.654 113.956 104.551C114.059 104.447 114.2 104.389 114.346 104.389Z" fill="#5A6389"/>
<path d="M114.351 125.894H115.326C115.466 125.894 115.601 125.949 115.699 126.048C115.798 126.147 115.853 126.282 115.853 126.421V141.436C115.853 141.575 115.798 141.71 115.699 141.809C115.601 141.908 115.466 141.963 115.326 141.963H114.351C114.212 141.963 114.077 141.908 113.978 141.809C113.879 141.71 113.824 141.575 113.824 141.436V126.421C113.824 126.282 113.879 126.147 113.978 126.048C114.077 125.949 114.212 125.894 114.351 125.894Z" fill="#5A6389"/>
<path d="M126.596 53.1321H216.056C219.149 53.1321 222.118 54.3631 224.305 56.5507C226.492 58.7383 227.723 61.7094 227.723 64.8038V270.815C227.723 273.91 226.492 276.881 224.306 279.069C222.118 281.257 219.149 282.488 216.056 282.488H126.596C123.503 282.488 120.534 281.257 118.346 279.069C116.16 276.881 114.93 273.91 114.93 270.815V64.8038C114.93 61.7094 116.16 58.7383 118.348 56.5507C120.534 54.3631 123.503 53.1321 126.596 53.1321Z" fill="#132056"/>
<path d="M161.276 59.9811H175.366C175.586 59.9811 175.797 60.0683 175.954 60.2246C176.11 60.3808 176.197 60.5924 176.197 60.8124V62.3495C176.197 62.5695 176.11 62.7811 175.954 62.9373C175.797 63.0936 175.586 63.1807 175.366 63.1807H161.276C161.056 63.1807 160.845 63.0936 160.689 62.9373C160.532 62.7811 160.445 62.5695 160.445 62.3495V60.8124C160.445 60.5924 160.532 60.3808 160.689 60.2246C160.845 60.0683 161.056 59.9811 161.276 59.9811Z" fill="#DCDEE6"/>
<path d="M180.399 63.3966C181.401 63.3966 182.214 62.5834 182.214 61.581C182.214 60.5786 181.401 59.7654 180.399 59.7654C179.398 59.7654 178.586 60.5786 178.586 61.581C178.586 62.5834 179.398 63.3966 180.399 63.3966Z" fill="#DCDEE6"/>
<path d="M220.76 68.0694V267.552C220.759 272.501 216.748 276.513 211.801 276.512H130.857C125.91 276.513 121.9 272.501 121.898 267.552V68.0694C121.897 65.6925 122.842 63.4124 124.522 61.7318C126.202 60.0502 128.48 59.1063 130.857 59.1063H142.97V60.6625C142.971 64.739 146.273 68.0417 150.346 68.0428H191.511C195.585 68.0428 198.888 64.739 198.888 60.6625V59.1063H211.801C214.177 59.1063 216.456 60.0502 218.137 61.7318C219.816 63.4124 220.76 65.6925 220.76 68.0694Z" fill="#EFEEFB"/>
<path d="M128.688 91.7166H216.349C216.588 91.7166 216.824 91.7793 217.032 91.8995C217.24 92.0185 217.412 92.1907 217.532 92.3991C217.652 92.6063 217.715 92.8423 217.715 93.0815V144.273C217.715 144.512 217.652 144.748 217.532 144.955C217.412 145.164 217.24 145.336 217.032 145.455C216.824 145.575 216.588 145.638 216.349 145.638H128.688C128.327 145.638 127.98 145.494 127.724 145.238C127.468 144.982 127.324 144.634 127.324 144.273V93.0815C127.324 92.7201 127.468 92.3725 127.724 92.1163C127.98 91.8601 128.327 91.7166 128.688 91.7166Z" fill="#E6E5F4"/>
<path d="M128.157 91.1862H215.818C216.057 91.1862 216.293 91.2489 216.5 91.369C216.709 91.4881 216.881 91.6603 217.001 91.8686C217.121 92.0759 217.183 92.3119 217.183 92.551V143.742C217.183 143.982 217.121 144.218 217.001 144.425C216.881 144.633 216.709 144.805 216.5 144.924C216.293 145.045 216.057 145.107 215.818 145.107H128.157C127.796 145.107 127.448 144.964 127.192 144.708C126.936 144.451 126.793 144.104 126.793 143.742V92.551C126.793 92.1896 126.936 91.842 127.192 91.5858C127.448 91.3297 127.796 91.1862 128.157 91.1862Z" fill="white"/>
<path d="M133.278 129.067H160.566C160.927 129.067 161.274 129.21 161.53 129.467C161.786 129.723 161.93 130.07 161.93 130.432V137.94C161.93 138.179 161.867 138.415 161.747 138.622C161.628 138.83 161.456 139.003 161.248 139.123C161.041 139.243 160.805 139.306 160.566 139.306H133.278C133.039 139.306 132.803 139.243 132.596 139.123C132.388 139.003 132.216 138.83 132.097 138.622C131.977 138.415 131.914 138.179 131.914 137.94V130.432C131.914 130.07 132.057 129.723 132.314 129.467C132.57 129.21 132.917 129.067 133.278 129.067Z" fill="#B9B3F9"/>
<path d="M139.672 135.708V133.05H140.317V135.708H139.672ZM142.895 135.708L141.826 133.97H141.815L141.83 135.708H141.207V133.05H141.939L143.005 134.785H143.015L143 133.05H143.624V135.708H142.895ZM145.83 135.708H145.188L144.183 133.05H144.903L145.518 134.935H145.533L146.145 133.05H146.854L145.83 135.708ZM147.412 135.708V133.05H149.198V133.594H148.03V134.094H149.134V134.608H148.03V135.16H149.265V135.708H147.412ZM151.435 133.741C151.38 133.671 151.308 133.615 151.217 133.576C151.129 133.533 151.044 133.512 150.962 133.512C150.92 133.512 150.875 133.515 150.831 133.523C150.788 133.53 150.75 133.545 150.715 133.569C150.68 133.588 150.649 133.615 150.624 133.65C150.602 133.683 150.59 133.726 150.59 133.778C150.59 133.824 150.599 133.861 150.617 133.891C150.637 133.921 150.665 133.947 150.699 133.97C150.737 133.993 150.781 134.014 150.831 134.034C150.881 134.051 150.937 134.07 151 134.09C151.09 134.12 151.183 134.154 151.281 134.191C151.379 134.227 151.467 134.274 151.548 134.334C151.627 134.395 151.693 134.469 151.746 134.559C151.798 134.646 151.825 134.757 151.825 134.89C151.825 135.042 151.796 135.175 151.739 135.287C151.684 135.398 151.608 135.489 151.514 135.562C151.418 135.634 151.31 135.688 151.188 135.723C151.064 135.758 150.938 135.775 150.808 135.775C150.618 135.775 150.434 135.743 150.257 135.678C150.079 135.611 149.932 135.515 149.814 135.393L150.235 134.964C150.299 135.045 150.384 135.112 150.49 135.167C150.597 135.22 150.703 135.246 150.808 135.246C150.856 135.246 150.902 135.242 150.947 135.231C150.992 135.222 151.03 135.204 151.063 135.182C151.098 135.16 151.126 135.13 151.146 135.092C151.166 135.055 151.176 135.01 151.176 134.957C151.176 134.907 151.163 134.864 151.139 134.829C151.113 134.794 151.077 134.763 151.029 134.736C150.985 134.706 150.927 134.679 150.857 134.657C150.789 134.632 150.712 134.606 150.624 134.578C150.539 134.551 150.456 134.518 150.373 134.481C150.293 134.442 150.221 134.396 150.155 134.338C150.093 134.278 150.041 134.206 150.002 134.123C149.964 134.038 149.946 133.936 149.946 133.816C149.946 133.668 149.975 133.542 150.035 133.437C150.095 133.332 150.174 133.245 150.272 133.177C150.369 133.11 150.479 133.062 150.602 133.032C150.724 132.999 150.849 132.983 150.973 132.983C151.124 132.983 151.276 133.01 151.431 133.065C151.588 133.12 151.726 133.202 151.844 133.309L151.435 133.741ZM153.679 133.598V135.708H153.037V133.598H152.286V133.05H154.429V133.598H153.679Z" fill="#9D95F8"/>
<path d="M133.786 98.0117H177.105C177.602 98.0117 178.079 98.2094 178.431 98.5612C178.782 98.9131 178.981 99.3904 178.981 99.8878C178.981 100.385 178.783 100.864 178.432 101.216C178.08 101.567 177.602 101.765 177.105 101.765H133.786C133.289 101.765 132.811 101.567 132.459 101.216C132.108 100.864 131.91 100.385 131.91 99.8878C131.91 99.3904 132.109 98.9131 132.46 98.5612C132.812 98.2094 133.289 98.0117 133.786 98.0117Z" fill="#DCDEE6"/>
<path d="M133.786 105.178H163.802C164.132 105.178 164.456 105.265 164.74 105.43C165.025 105.595 165.262 105.832 165.427 106.117C165.591 106.402 165.678 106.726 165.678 107.056C165.678 107.553 165.48 108.03 165.128 108.382C164.776 108.734 164.299 108.932 163.802 108.932H133.786C133.289 108.932 132.812 108.734 132.46 108.382C132.109 108.03 131.91 107.553 131.91 107.056C131.91 106.726 131.997 106.402 132.162 106.117C132.327 105.832 132.564 105.595 132.848 105.43C133.133 105.265 133.457 105.178 133.786 105.178Z" fill="#DCDEE6"/>
<path d="M133.786 112.345H178.811C179.308 112.345 179.785 112.544 180.137 112.896C180.489 113.247 180.686 113.725 180.686 114.222C180.686 114.72 180.489 115.197 180.137 115.549C179.785 115.901 179.308 116.099 178.811 116.099H133.786C133.289 116.099 132.811 115.902 132.459 115.55C132.108 115.198 131.91 114.72 131.91 114.222C131.91 113.725 132.108 113.246 132.459 112.895C132.811 112.543 133.289 112.345 133.786 112.345Z" fill="#DCDEE6"/>
<path d="M194.669 96.988H210.36C210.721 96.988 211.068 97.1315 211.325 97.3877C211.581 97.6438 211.724 97.9914 211.724 98.3529V114.051C211.724 114.412 211.581 114.76 211.325 115.016C211.068 115.272 210.721 115.416 210.36 115.416H194.669C194.308 115.416 193.96 115.272 193.704 115.016C193.448 114.76 193.305 114.412 193.305 114.051V98.3529C193.305 97.9914 193.448 97.6438 193.704 97.3877C193.96 97.1315 194.308 96.988 194.669 96.988Z" fill="#C6C2F9"/>
<path fill-rule="evenodd" clip-rule="evenodd" d="M208.66 118.147C211.486 118.147 213.776 115.855 213.776 113.027C213.776 110.2 211.486 107.908 208.66 107.908C205.835 107.908 203.543 110.2 203.543 113.027C203.543 115.855 205.835 118.147 208.66 118.147Z" fill="#B9B3F9"/>
<path d="M192.282 111.321H196.376C196.615 111.321 196.851 111.384 197.058 111.504C197.265 111.624 197.437 111.796 197.557 112.004C197.677 112.211 197.74 112.447 197.74 112.686V116.782C197.74 117.143 197.596 117.491 197.34 117.747C197.084 118.003 196.737 118.147 196.376 118.147H192.282C191.921 118.147 191.573 118.003 191.317 117.747C191.061 117.491 190.918 117.143 190.918 116.782V112.686C190.918 112.447 190.981 112.211 191.101 112.004C191.221 111.796 191.393 111.624 191.6 111.504C191.807 111.384 192.043 111.321 192.282 111.321Z" fill="#675AF6"/>
<path d="M191.573 96.988H207.604C208.598 96.988 209.553 97.3845 210.257 98.0871C210.959 98.7908 211.355 99.7464 211.355 100.741C211.355 101.736 210.96 102.692 210.257 103.396C209.553 104.099 208.598 104.496 207.604 104.496H191.573C190.578 104.496 189.623 104.1 188.919 103.397C188.216 102.692 187.82 101.736 187.82 100.741C187.82 99.7464 188.217 98.7908 188.92 98.0871C189.623 97.3834 190.578 96.988 191.573 96.988Z" fill="#9D95F8"/>
<path d="M133.646 120.523C133.769 120.262 134.139 120.262 134.262 120.523L134.402 120.817C134.45 120.919 134.547 120.99 134.659 121.007L134.992 121.058C135.268 121.1 135.38 121.437 135.184 121.635L134.927 121.896C134.849 121.974 134.815 122.083 134.832 122.191L134.891 122.545C134.938 122.826 134.641 123.037 134.392 122.9L134.117 122.751C134.015 122.695 133.892 122.695 133.79 122.751L133.516 122.9C133.267 123.037 132.97 122.826 133.017 122.545L133.075 122.191C133.093 122.083 133.058 121.974 132.981 121.896L132.724 121.635C132.528 121.437 132.64 121.1 132.916 121.058L133.248 121.007C133.361 120.99 133.458 120.919 133.507 120.817L133.646 120.523Z" fill="#FFF5D9"/>
<path d="M138.763 120.523C138.886 120.262 139.256 120.262 139.379 120.523L139.518 120.817C139.567 120.919 139.664 120.99 139.775 121.007L140.109 121.058C140.385 121.1 140.497 121.437 140.301 121.635L140.044 121.896C139.967 121.974 139.932 122.083 139.95 122.191L140.008 122.545C140.055 122.826 139.757 123.037 139.509 122.9L139.235 122.751C139.133 122.695 139.009 122.695 138.907 122.751L138.633 122.9C138.384 123.037 138.087 122.826 138.134 122.545L138.192 122.191C138.209 122.083 138.174 121.974 138.098 121.896L137.841 121.635C137.645 121.437 137.757 121.1 138.033 121.058L138.366 121.007C138.478 120.99 138.575 120.919 138.623 120.817L138.763 120.523Z" fill="#FFF5D9"/>
<path d="M148.993 120.523C149.116 120.262 149.486 120.262 149.609 120.523L149.75 120.817C149.798 120.919 149.894 120.99 150.007 121.007L150.34 121.058C150.615 121.1 150.728 121.437 150.531 121.635L150.274 121.896C150.198 121.974 150.163 122.083 150.181 122.191L150.239 122.545C150.285 122.826 149.989 123.037 149.739 122.9L149.465 122.751C149.363 122.695 149.24 122.695 149.139 122.751L148.865 122.9C148.615 123.037 148.317 122.826 148.364 122.545L148.423 122.191C148.441 122.083 148.406 121.974 148.329 121.896L148.072 121.635C147.875 121.437 147.987 121.1 148.263 121.058L148.597 121.007C148.708 120.99 148.805 120.919 148.854 120.817L148.993 120.523Z" fill="#FFF5D9"/>
<path d="M143.881 120.523C144.004 120.262 144.374 120.262 144.497 120.523L144.636 120.817C144.685 120.919 144.782 120.99 144.893 121.007L145.227 121.058C145.503 121.1 145.615 121.437 145.418 121.635L145.161 121.896C145.084 121.974 145.049 122.083 145.067 122.191L145.126 122.545C145.173 122.826 144.875 123.037 144.625 122.9L144.352 122.751C144.25 122.695 144.127 122.695 144.025 122.751L143.751 122.9C143.501 123.037 143.205 122.826 143.251 122.545L143.309 122.191C143.327 122.083 143.292 121.974 143.216 121.896L142.958 121.635C142.762 121.437 142.874 121.1 143.15 121.058L143.483 121.007C143.596 120.99 143.692 120.919 143.74 120.817L143.881 120.523Z" fill="#FFF5D9"/>
<path d="M154.111 120.523C154.234 120.262 154.604 120.262 154.727 120.523L154.867 120.817C154.915 120.919 155.011 120.99 155.124 121.007L155.457 121.058C155.733 121.1 155.844 121.437 155.649 121.635L155.392 121.896C155.315 121.974 155.28 122.083 155.297 122.191L155.356 122.545C155.402 122.826 155.106 123.037 154.856 122.9L154.582 122.751C154.48 122.695 154.357 122.695 154.255 122.751L153.981 122.9C153.732 123.037 153.435 122.826 153.482 122.545L153.54 122.191C153.558 122.083 153.523 121.974 153.445 121.896L153.188 121.635C152.993 121.437 153.104 121.1 153.381 121.058L153.714 121.007C153.826 120.99 153.923 120.919 153.971 120.817L154.111 120.523Z" fill="#DCDEE6"/>
<path d="M127.688 215.023H215.349C215.589 215.023 215.824 215.086 216.032 215.206C216.24 215.325 216.412 215.497 216.532 215.706C216.652 215.913 216.715 216.149 216.715 216.388V267.58C216.715 267.819 216.652 268.055 216.532 268.262C216.412 268.47 216.24 268.643 216.032 268.762C215.824 268.882 215.589 268.944 215.349 268.944H127.688C127.327 268.944 126.98 268.801 126.724 268.545C126.468 268.289 126.324 267.941 126.324 267.58V216.388C126.324 216.027 126.468 215.679 126.724 215.423C126.98 215.167 127.327 215.023 127.688 215.023Z" fill="#E6E5F4"/>
<path d="M127.157 214.492H214.818C215.057 214.492 215.293 214.555 215.5 214.675C215.709 214.794 215.881 214.966 216.001 215.174C216.121 215.382 216.183 215.618 216.183 215.857V267.048C216.183 267.287 216.121 267.523 216.001 267.731C215.881 267.939 215.709 268.111 215.5 268.23C215.293 268.35 215.057 268.413 214.818 268.413H127.157C126.796 268.413 126.448 268.269 126.192 268.013C125.936 267.757 125.793 267.41 125.793 267.048V215.857C125.793 215.495 125.936 215.148 126.192 214.892C126.448 214.635 126.796 214.492 127.157 214.492Z" fill="white"/>
<path d="M132.274 252.373H159.562C159.801 252.373 160.037 252.436 160.244 252.556C160.452 252.675 160.624 252.848 160.744 253.056C160.864 253.263 160.927 253.499 160.927 253.738V261.246C160.927 261.486 160.864 261.721 160.744 261.93C160.624 262.137 160.452 262.309 160.245 262.429C160.037 262.549 159.802 262.612 159.562 262.612H132.274C132.035 262.612 131.799 262.549 131.592 262.429C131.384 262.309 131.212 262.137 131.093 261.929C130.973 261.721 130.91 261.485 130.91 261.246V253.738C130.91 253.377 131.054 253.029 131.31 252.773C131.566 252.517 131.913 252.373 132.274 252.373Z" fill="#B9B3F9"/>
<path d="M138.668 259.014V256.357H139.313V259.014H138.668ZM141.891 259.014L140.823 257.276H140.811L140.826 259.014H140.203V256.357H140.935L142.001 258.09H142.011L141.997 256.357H142.619V259.014H141.891ZM144.826 259.014H144.184L143.178 256.357H143.899L144.515 258.241H144.529L145.14 256.357H145.85L144.826 259.014ZM146.408 259.014V256.357H148.194V256.901H147.026V257.4H148.13V257.915H147.026V258.467H148.261V259.014H146.408ZM150.431 257.047C150.376 256.977 150.303 256.922 150.213 256.882C150.125 256.839 150.04 256.818 149.958 256.818C149.916 256.818 149.871 256.822 149.827 256.83C149.784 256.837 149.745 256.852 149.71 256.874C149.676 256.894 149.645 256.922 149.621 256.957C149.598 256.99 149.587 257.033 149.587 257.085C149.587 257.129 149.595 257.168 149.613 257.197C149.633 257.227 149.66 257.254 149.695 257.276C149.733 257.298 149.777 257.32 149.827 257.34C149.877 257.358 149.933 257.376 149.996 257.396C150.086 257.426 150.179 257.46 150.277 257.498C150.375 257.532 150.463 257.58 150.543 257.641C150.623 257.7 150.689 257.776 150.742 257.866C150.795 257.953 150.821 258.064 150.821 258.196C150.821 258.349 150.792 258.481 150.735 258.594C150.68 258.704 150.604 258.795 150.51 258.868C150.414 258.941 150.306 258.994 150.183 259.029C150.06 259.064 149.934 259.082 149.804 259.082C149.614 259.082 149.43 259.049 149.253 258.984C149.074 258.916 148.928 258.822 148.81 258.699L149.23 258.271C149.295 258.351 149.38 258.419 149.486 258.474C149.593 258.526 149.699 258.553 149.804 258.553C149.852 258.553 149.898 258.547 149.942 258.538C149.988 258.527 150.026 258.511 150.059 258.489C150.094 258.467 150.122 258.436 150.142 258.399C150.161 258.361 150.172 258.316 150.172 258.264C150.172 258.214 150.159 258.171 150.135 258.136C150.109 258.101 150.073 258.069 150.025 258.042C149.981 258.012 149.923 257.986 149.853 257.963C149.785 257.938 149.708 257.912 149.621 257.884C149.536 257.856 149.452 257.825 149.369 257.786C149.289 257.749 149.216 257.701 149.151 257.644C149.088 257.584 149.037 257.513 148.997 257.43C148.96 257.345 148.942 257.242 148.942 257.122C148.942 256.974 148.971 256.849 149.031 256.743C149.091 256.638 149.17 256.552 149.268 256.484C149.366 256.416 149.475 256.368 149.598 256.337C149.72 256.306 149.844 256.289 149.969 256.289C150.119 256.289 150.272 256.316 150.427 256.371C150.584 256.427 150.722 256.507 150.839 256.616L150.431 257.047ZM152.675 256.905V259.014H152.033V256.905H151.282V256.357H153.425V256.905H152.675Z" fill="#9D95F8"/>
<path d="M132.786 221.317H176.105C176.434 221.317 176.758 221.404 177.043 221.569C177.328 221.734 177.565 221.971 177.729 222.256C177.894 222.541 177.981 222.865 177.981 223.194C177.981 223.524 177.894 223.848 177.729 224.133C177.565 224.418 177.328 224.655 177.043 224.82C176.758 224.985 176.434 225.072 176.105 225.072H132.786C132.289 225.072 131.811 224.874 131.459 224.522C131.108 224.17 130.91 223.692 130.91 223.194C130.91 222.697 131.108 222.219 131.459 221.867C131.811 221.515 132.289 221.317 132.786 221.317Z" fill="#DCDEE6"/>
<path d="M132.786 228.484H162.802C163.299 228.484 163.777 228.682 164.129 229.033C164.481 229.385 164.678 229.864 164.678 230.361C164.678 230.859 164.481 231.337 164.129 231.689C163.777 232.041 163.299 232.238 162.802 232.238H132.786C132.289 232.238 131.811 232.041 131.459 231.689C131.108 231.337 130.91 230.859 130.91 230.361C130.91 229.864 131.108 229.385 131.459 229.033C131.811 228.682 132.289 228.484 132.786 228.484Z" fill="#DCDEE6"/>
<path d="M132.786 235.651H177.811C178.308 235.651 178.785 235.849 179.137 236.201C179.489 236.553 179.686 237.03 179.686 237.528C179.686 238.025 179.489 238.503 179.137 238.854C178.785 239.206 178.308 239.405 177.811 239.405H132.786C132.289 239.405 131.811 239.207 131.459 238.856C131.108 238.504 130.91 238.025 130.91 237.528C130.91 237.03 131.108 236.552 131.459 236.2C131.811 235.848 132.289 235.651 132.786 235.651Z" fill="#DCDEE6"/>
<path d="M193.669 220.294H209.36C209.721 220.294 210.069 220.437 210.325 220.693C210.581 220.949 210.724 221.297 210.724 221.658V237.358C210.724 237.719 210.581 238.067 210.325 238.323C210.069 238.579 209.721 238.723 209.36 238.723H193.669C193.43 238.723 193.194 238.66 192.987 238.54C192.78 238.42 192.607 238.247 192.487 238.04C192.367 237.833 192.305 237.597 192.305 237.358V221.658C192.305 221.419 192.367 221.183 192.487 220.976C192.607 220.769 192.78 220.597 192.987 220.476C193.194 220.356 193.43 220.294 193.669 220.294Z" fill="#C6C2F9"/>
<path fill-rule="evenodd" clip-rule="evenodd" d="M207.652 241.452C210.478 241.452 212.769 239.161 212.769 236.334C212.769 233.507 210.478 231.215 207.652 231.215C204.826 231.215 202.535 233.507 202.535 236.334C202.535 239.161 204.826 241.452 207.652 241.452Z" fill="#B9B3F9"/>
<path d="M193.286 231.62H197.38C197.741 231.62 198.088 231.763 198.344 232.019C198.6 232.276 198.744 232.623 198.744 232.985V237.08C198.744 237.442 198.6 237.789 198.344 238.046C198.088 238.302 197.741 238.445 197.38 238.445H193.286C192.925 238.445 192.577 238.302 192.321 238.046C192.065 237.789 191.922 237.442 191.922 237.08V232.985C191.922 232.623 192.065 232.276 192.321 232.019C192.577 231.763 192.925 231.62 193.286 231.62Z" fill="#B9B3F9"/>
<path d="M186.167 220.294H202.198C203.192 220.294 204.147 220.69 204.85 221.394C205.554 222.097 205.949 223.053 205.949 224.048C205.949 225.043 205.553 225.999 204.85 226.702C204.147 227.405 203.192 227.801 202.198 227.801H186.167C185.172 227.801 184.217 227.406 183.514 226.702C182.81 225.999 182.414 225.043 182.414 224.048C182.414 223.053 182.809 222.097 183.513 221.393C184.217 220.689 185.172 220.294 186.167 220.294Z" fill="#B9B3F9"/>
<path d="M132.642 243.828C132.765 243.569 133.135 243.569 133.258 243.828L133.397 244.123C133.446 244.226 133.543 244.297 133.655 244.314L133.988 244.364C134.264 244.405 134.376 244.743 134.18 244.941L133.923 245.202C133.846 245.279 133.812 245.39 133.829 245.497L133.887 245.852C133.934 246.133 133.637 246.343 133.388 246.207L133.114 246.057C133.012 246.002 132.888 246.002 132.786 246.057L132.512 246.207C132.263 246.343 131.966 246.133 132.013 245.852L132.071 245.497C132.088 245.39 132.054 245.279 131.977 245.202L131.72 244.941C131.524 244.743 131.636 244.405 131.912 244.364L132.244 244.314C132.357 244.297 132.454 244.226 132.502 244.123L132.642 243.828Z" fill="#FFF5D9"/>
<path d="M137.76 243.828C137.883 243.569 138.252 243.569 138.376 243.828L138.515 244.123C138.564 244.226 138.66 244.297 138.772 244.314L139.106 244.364C139.382 244.405 139.493 244.743 139.298 244.941L139.04 245.202C138.963 245.279 138.928 245.39 138.946 245.497L139.005 245.852C139.051 246.133 138.754 246.343 138.504 246.207L138.231 246.057C138.129 246.002 138.006 246.002 137.904 246.057L137.63 246.207C137.38 246.343 137.084 246.133 137.129 245.852L137.188 245.497C137.206 245.39 137.171 245.279 137.094 245.202L136.837 244.941C136.641 244.743 136.753 244.405 137.029 244.364L137.362 244.314C137.475 244.297 137.57 244.226 137.619 244.123L137.76 243.828Z" fill="#FFF5D9"/>
<path d="M147.993 243.828C148.117 243.569 148.486 243.569 148.61 243.828L148.75 244.123C148.799 244.226 148.894 244.297 149.007 244.314L149.341 244.364C149.616 244.405 149.727 244.743 149.532 244.941L149.275 245.202C149.198 245.279 149.163 245.39 149.181 245.497L149.24 245.852C149.285 246.133 148.989 246.343 148.739 246.207L148.465 246.057C148.363 246.002 148.24 246.002 148.138 246.057L147.864 246.207C147.615 246.343 147.318 246.133 147.364 245.852L147.423 245.497C147.441 245.39 147.406 245.279 147.329 245.202L147.071 244.941C146.876 244.743 146.987 244.405 147.263 244.364L147.597 244.314C147.709 244.297 147.805 244.226 147.854 244.123L147.993 243.828Z" fill="#FFF5D9"/>
<path d="M142.881 243.828C143.004 243.569 143.373 243.569 143.497 243.828L143.636 244.123C143.685 244.226 143.782 244.297 143.893 244.314L144.227 244.364C144.502 244.405 144.615 244.743 144.418 244.941L144.161 245.202C144.084 245.279 144.049 245.39 144.067 245.497L144.126 245.852C144.171 246.133 143.875 246.343 143.625 246.207L143.351 246.057C143.25 246.002 143.127 246.002 143.025 246.057L142.751 246.207C142.501 246.343 142.205 246.133 142.251 245.852L142.309 245.497C142.327 245.39 142.292 245.279 142.216 245.202L141.958 244.941C141.762 244.743 141.875 244.405 142.15 244.364L142.483 244.314C142.595 244.297 142.692 244.226 142.74 244.123L142.881 243.828Z" fill="#FFF5D9"/>
<path d="M153.111 243.828C153.234 243.569 153.604 243.569 153.727 243.828L153.867 244.123C153.915 244.226 154.011 244.297 154.124 244.314L154.457 244.364C154.733 244.405 154.844 244.743 154.649 244.941L154.392 245.202C154.314 245.279 154.28 245.39 154.297 245.497L154.356 245.852C154.402 246.133 154.106 246.343 153.856 246.207L153.582 246.057C153.48 246.002 153.357 246.002 153.255 246.057L152.981 246.207C152.731 246.343 152.435 246.133 152.482 245.852L152.54 245.497C152.557 245.39 152.523 245.279 152.445 245.202L152.188 244.941C151.993 244.743 152.104 244.405 152.381 244.364L152.713 244.314C152.826 244.297 152.923 244.226 152.97 244.123L153.111 243.828Z" fill="#DCDEE6"/>
<path d="M128.145 155.39H216.056C216.414 155.39 216.758 155.533 217.012 155.786C217.265 156.04 217.408 156.385 217.408 156.743V206.884C217.408 207.242 217.265 207.587 217.011 207.84C216.758 208.094 216.414 208.236 216.056 208.236H128.145C127.787 208.236 127.443 208.094 127.189 207.841C126.936 207.587 126.793 207.242 126.793 206.884V156.743C126.793 156.506 126.856 156.272 126.975 156.067C127.093 155.861 127.264 155.689 127.47 155.571C127.675 155.452 127.909 155.39 128.145 155.39Z" fill="#DCDEE6"/>
<path d="M128.145 153.34H215.031C215.389 153.34 215.734 153.483 215.987 153.737C216.241 153.99 216.383 154.335 216.383 154.693V205.432C216.383 205.79 216.24 206.135 215.987 206.389C215.733 206.642 215.389 206.784 215.031 206.784H128.145C127.787 206.784 127.443 206.642 127.189 206.389C126.936 206.135 126.793 205.79 126.793 205.432V154.693C126.793 154.456 126.856 154.222 126.975 154.017C127.093 153.811 127.264 153.64 127.47 153.522C127.675 153.403 127.909 153.34 128.145 153.34Z" fill="white"/>
<path d="M133.22 190.886H160.266C160.624 190.886 160.969 191.028 161.222 191.282C161.476 191.535 161.618 191.881 161.618 192.239V199.681C161.618 200.039 161.475 200.384 161.222 200.638C160.968 200.891 160.624 201.033 160.266 201.033H133.22C132.862 201.033 132.517 200.891 132.263 200.638C132.011 200.384 131.867 200.039 131.867 199.681V192.239C131.867 191.881 132.01 191.535 132.263 191.282C132.516 191.028 132.862 190.886 133.22 190.886Z" fill="#B9B3F9"/>
<path d="M139.555 197.506V194.872H140.194V197.506H139.555ZM142.749 197.506L141.69 195.783H141.678L141.693 197.506H141.076V194.872H141.802L142.858 196.591H142.868L142.854 194.872H143.472V197.506H142.749ZM145.658 197.506H145.022L144.025 194.872H144.739L145.349 196.74H145.364L145.971 194.872H146.673L145.658 197.506ZM147.225 197.506V194.872H148.995V195.411H147.84V195.907H148.933V196.416H147.84V196.963H149.062V197.506H147.225ZM151.214 195.557C151.159 195.487 151.087 195.432 150.998 195.393C150.911 195.351 150.827 195.329 150.745 195.329C150.703 195.329 150.659 195.334 150.615 195.341C150.572 195.348 150.534 195.363 150.5 195.386C150.465 195.405 150.435 195.432 150.411 195.467C150.388 195.499 150.377 195.542 150.377 195.594C150.377 195.639 150.385 195.676 150.403 195.706C150.422 195.735 150.45 195.761 150.485 195.783C150.522 195.806 150.565 195.827 150.615 195.847C150.665 195.864 150.72 195.883 150.782 195.902C150.872 195.932 150.964 195.966 151.061 196.003C151.157 196.038 151.246 196.085 151.325 196.145C151.404 196.204 151.47 196.279 151.522 196.368C151.574 196.455 151.601 196.563 151.601 196.695C151.601 196.846 151.572 196.978 151.514 197.09C151.46 197.199 151.386 197.289 151.291 197.361C151.197 197.433 151.09 197.486 150.968 197.521C150.846 197.556 150.721 197.573 150.592 197.573C150.404 197.573 150.221 197.541 150.046 197.477C149.87 197.41 149.723 197.315 149.606 197.194L150.024 196.77C150.088 196.849 150.173 196.916 150.277 196.971C150.383 197.023 150.488 197.048 150.592 197.048C150.639 197.048 150.686 197.044 150.73 197.033C150.775 197.024 150.813 197.008 150.845 196.985C150.88 196.963 150.907 196.933 150.927 196.896C150.947 196.859 150.957 196.814 150.957 196.762C150.957 196.712 150.944 196.671 150.92 196.636C150.895 196.601 150.859 196.57 150.812 196.542C150.768 196.512 150.71 196.487 150.641 196.465C150.574 196.44 150.497 196.414 150.411 196.386C150.326 196.359 150.243 196.326 150.161 196.289C150.081 196.252 150.01 196.205 149.945 196.148C149.884 196.088 149.833 196.018 149.792 195.936C149.755 195.851 149.737 195.75 149.737 195.631C149.737 195.484 149.767 195.359 149.826 195.255C149.886 195.151 149.964 195.066 150.061 194.999C150.158 194.932 150.266 194.883 150.388 194.853C150.509 194.821 150.632 194.805 150.756 194.805C150.905 194.805 151.056 194.832 151.21 194.887C151.366 194.941 151.502 195.022 151.619 195.128L151.214 195.557ZM153.437 195.415V197.506H152.801V195.415H152.057V194.872H154.181V195.415H153.437Z" fill="#9D95F8"/>
<path d="M133.726 160.105H176.662C177.155 160.105 177.628 160.302 177.977 160.65C178.325 160.999 178.522 161.472 178.522 161.965C178.522 162.458 178.325 162.931 177.977 163.28C177.628 163.629 177.155 163.825 176.662 163.825H133.726C133.233 163.825 132.761 163.629 132.412 163.28C132.064 162.931 131.867 162.458 131.867 161.965C131.867 161.472 132.064 160.999 132.412 160.65C132.761 160.302 133.233 160.105 133.726 160.105Z" fill="#DCDEE6"/>
<path d="M133.726 167.209H163.478C163.971 167.209 164.443 167.406 164.792 167.754C165.14 168.103 165.337 168.576 165.337 169.069C165.337 169.562 165.14 170.035 164.792 170.384C164.443 170.733 163.971 170.929 163.478 170.929H133.726C133.233 170.929 132.761 170.733 132.412 170.384C132.064 170.035 131.867 169.562 131.867 169.069C131.867 168.576 132.064 168.103 132.412 167.754C132.761 167.406 133.233 167.209 133.726 167.209Z" fill="#DCDEE6"/>
<path d="M133.726 174.312H178.353C178.846 174.312 179.318 174.508 179.667 174.857C180.015 175.206 180.212 175.679 180.212 176.172C180.212 176.665 180.015 177.138 179.667 177.487C179.318 177.836 178.846 178.032 178.353 178.032H133.726C133.233 178.032 132.761 177.836 132.412 177.487C132.064 177.138 131.867 176.665 131.867 176.172C131.867 175.679 132.064 175.206 132.412 174.857C132.761 174.508 133.233 174.312 133.726 174.312Z" fill="#DCDEE6"/>
<path d="M194.071 159.09H209.623C209.981 159.09 210.325 159.233 210.579 159.486C210.832 159.74 210.974 160.085 210.974 160.443V176.003C210.974 176.361 210.832 176.706 210.578 176.959C210.325 177.213 209.981 177.355 209.623 177.355H194.071C193.713 177.355 193.369 177.213 193.115 176.96C192.862 176.706 192.719 176.361 192.719 176.003V160.443C192.719 160.085 192.861 159.739 193.115 159.486C193.368 159.232 193.713 159.09 194.071 159.09Z" fill="#C6C2F9"/>
<path fill-rule="evenodd" clip-rule="evenodd" d="M207.934 180.063C210.735 180.063 213.005 177.791 213.005 174.988C213.005 172.186 210.735 169.914 207.934 169.914C205.134 169.914 202.863 172.186 202.863 174.988C202.863 177.791 205.134 180.063 207.934 180.063Z" fill="#B9B3F9"/>
<path d="M191.704 173.297H195.76C196.118 173.297 196.464 173.439 196.717 173.693C196.97 173.946 197.113 174.292 197.113 174.65V178.708C197.113 179.067 196.97 179.412 196.717 179.665C196.464 179.919 196.118 180.062 195.76 180.062H191.704C191.346 180.062 191.001 179.919 190.748 179.665C190.494 179.412 190.352 179.067 190.352 178.708V174.65C190.352 174.292 190.494 173.946 190.748 173.693C191.001 173.439 191.346 173.297 191.704 173.297Z" fill="#9D95F8"/>
<path d="M186.633 159.09H202.522C203.175 159.09 203.816 159.261 204.382 159.588C204.948 159.915 205.417 160.385 205.744 160.95C206.07 161.516 206.242 162.158 206.242 162.81C206.242 163.464 206.07 164.105 205.744 164.672C205.417 165.237 204.948 165.707 204.383 166.033C203.816 166.36 203.176 166.532 202.522 166.532H186.633C185.98 166.532 185.339 166.36 184.773 166.033C184.208 165.707 183.739 165.237 183.412 164.671C183.085 164.105 182.914 163.463 182.914 162.81C182.914 161.824 183.306 160.877 184.003 160.179C184.7 159.482 185.647 159.09 186.633 159.09Z" fill="#675AF6"/>
<path d="M133.586 182.417C133.708 182.16 134.075 182.16 134.197 182.417L134.335 182.708C134.384 182.81 134.479 182.882 134.59 182.898L134.92 182.948C135.193 182.989 135.305 183.324 135.11 183.521L134.855 183.779C134.779 183.855 134.745 183.964 134.762 184.071L134.82 184.422C134.866 184.7 134.572 184.91 134.325 184.775L134.053 184.626C133.952 184.571 133.83 184.571 133.729 184.626L133.457 184.775C133.211 184.91 132.916 184.7 132.962 184.422L133.021 184.071C133.038 183.964 133.004 183.855 132.927 183.779L132.672 183.521C132.478 183.324 132.589 182.989 132.862 182.948L133.193 182.898C133.303 182.882 133.399 182.81 133.448 182.708L133.586 182.417Z" fill="#FFF5D9"/>
<path d="M138.656 182.417C138.778 182.16 139.145 182.16 139.267 182.417L139.405 182.708C139.454 182.81 139.55 182.882 139.66 182.898L139.991 182.948C140.265 182.989 140.375 183.324 140.181 183.521L139.926 183.779C139.85 183.855 139.815 183.964 139.833 184.071L139.891 184.422C139.936 184.7 139.643 184.91 139.396 184.775L139.124 184.626C139.023 184.571 138.9 184.571 138.8 184.626L138.529 184.775C138.281 184.91 137.987 184.7 138.032 184.422L138.091 184.071C138.108 183.964 138.074 183.855 137.997 183.779L137.742 183.521C137.548 183.324 137.66 182.989 137.933 182.948L138.263 182.898C138.375 182.882 138.469 182.81 138.518 182.708L138.656 182.417Z" fill="#FFF5D9"/>
<path d="M148.797 182.417C148.919 182.16 149.285 182.16 149.407 182.417L149.546 182.708C149.594 182.81 149.689 182.882 149.801 182.898L150.131 182.948C150.405 182.989 150.515 183.324 150.322 183.521L150.067 183.779C149.99 183.855 149.955 183.964 149.973 184.071L150.032 184.422C150.077 184.7 149.783 184.91 149.535 184.775L149.265 184.626C149.164 184.571 149.041 184.571 148.94 184.626L148.668 184.775C148.421 184.91 148.127 184.7 148.173 184.422L148.231 184.071C148.249 183.964 148.214 183.855 148.137 183.779L147.883 183.521C147.689 183.324 147.799 182.989 148.072 182.948L148.403 182.898C148.514 182.882 148.61 182.81 148.658 182.708L148.797 182.417Z" fill="#FFF5D9"/>
<path d="M143.726 182.417C143.85 182.16 144.215 182.16 144.337 182.417L144.477 182.708C144.524 182.81 144.62 182.882 144.731 182.898L145.062 182.948C145.335 182.989 145.445 183.324 145.251 183.521L144.996 183.779C144.921 183.855 144.886 183.964 144.904 184.071L144.961 184.422C145.008 184.7 144.713 184.91 144.466 184.775L144.194 184.626C144.093 184.571 143.971 184.571 143.87 184.626L143.599 184.775C143.351 184.91 143.057 184.7 143.103 184.422L143.161 184.071C143.178 183.964 143.144 183.855 143.068 183.779L142.813 183.521C142.618 183.324 142.73 182.989 143.003 182.948L143.333 182.898C143.445 182.882 143.541 182.81 143.588 182.708L143.726 182.417Z" fill="#FFF5D9"/>
<path d="M153.871 182.417C153.993 182.16 154.359 182.16 154.482 182.417L154.62 182.708C154.668 182.81 154.764 182.882 154.875 182.898L155.206 182.948C155.479 182.989 155.59 183.324 155.396 183.521L155.141 183.779C155.064 183.855 155.03 183.964 155.047 184.071L155.106 184.422C155.151 184.7 154.857 184.91 154.61 184.775L154.339 184.626C154.238 184.571 154.116 184.571 154.015 184.626L153.743 184.775C153.495 184.91 153.201 184.7 153.248 184.422L153.305 184.071C153.323 183.964 153.288 183.855 153.213 183.779L152.958 183.521C152.763 183.324 152.874 182.989 153.147 182.948L153.477 182.898C153.589 182.882 153.684 182.81 153.732 182.708L153.871 182.417Z" fill="#FFF5D9"/>
</svg>
