<svg xmlns="http://www.w3.org/2000/svg" xmlns:xlink="http://www.w3.org/1999/xlink" width="320" height="160" viewBox="0 0 320 160">
  <defs>
    <path id="upload_doc_banner-a" d="M0,6.0042685 C0,2.68820258 2.69417877,0 6.00121896,0 L313.998781,0 C317.313163,0 320,2.67668944 320,6.0042685 L320,160 L0,160 L0,6.0042685 Z"/>
    <path id="upload_doc_banner-c" d="M0,6.0042685 C0,2.68820258 2.69417877,0 6.00121896,0 L313.998781,0 C317.313163,0 320,2.67668944 320,6.0042685 L320,160 L0,160 L0,6.0042685 Z"/>
    <path id="upload_doc_banner-e" d="M0,6.0042685 C0,2.68820258 2.69417877,0 6.00121896,0 L313.998781,0 C317.313163,0 320,2.67668944 320,6.0042685 L320,160 L0,160 L0,6.0042685 Z"/>
    <path id="upload_doc_banner-g" d="M0,6.0042685 C0,2.68820258 2.69417877,0 6.00121896,0 L313.998781,0 C317.313163,0 320,2.67668944 320,6.0042685 L320,160 L0,160 L0,6.0042685 Z"/>
    <path id="upload_doc_banner-i" d="M0,6.0042685 C0,2.68820258 2.69417877,0 6.00121896,0 L313.998781,0 C317.313163,0 320,2.67668944 320,6.0042685 L320,160 L0,160 L0,6.0042685 Z"/>
    <path id="upload_doc_banner-k" d="M0,6.0042685 C0,2.68820258 2.69417877,0 6.00121896,0 L313.998781,0 C317.313163,0 320,2.67668944 320,6.0042685 L320,160 L0,160 L0,6.0042685 Z"/>
    <path id="upload_doc_banner-m" d="M0,6.0042685 C0,2.68820258 2.69417877,0 6.00121896,0 L313.998781,0 C317.313163,0 320,2.67668944 320,6.0042685 L320,160 L0,160 L0,6.0042685 Z"/>
    <linearGradient id="upload_doc_banner-o" x1="50%" x2="50%" y1="98.144%" y2="3.075%">
      <stop offset="0%" stop-color="#94C5FF"/>
      <stop offset="100%" stop-color="#C6E0FF"/>
    </linearGradient>
    <path id="upload_doc_banner-p" d="M0,6.0042685 C0,2.68820258 2.69417877,0 6.00121896,0 L313.998781,0 C317.313163,0 320,2.67668944 320,6.0042685 L320,160 L0,160 L0,6.0042685 Z"/>
    <linearGradient id="upload_doc_banner-r" x1="50%" x2="50%" y1="100%" y2="5.57%">
      <stop offset="0%" stop-color="#94C5FF"/>
      <stop offset="100%" stop-color="#C6E0FF"/>
    </linearGradient>
    <path id="upload_doc_banner-s" d="M0,6.0042685 C0,2.68820258 2.69417877,0 6.00121896,0 L313.998781,0 C317.313163,0 320,2.67668944 320,6.0042685 L320,160 L0,160 L0,6.0042685 Z"/>
    <linearGradient id="upload_doc_banner-u" x1="50%" x2="50%" y1="100%" y2="3.075%">
      <stop offset="0%" stop-color="#68AEFF"/>
      <stop offset="100%" stop-color="#C6E0FF"/>
    </linearGradient>
    <path id="upload_doc_banner-v" d="M0,6.0042685 C0,2.68820258 2.69417877,0 6.00121896,0 L313.998781,0 C317.313163,0 320,2.67668944 320,6.0042685 L320,160 L0,160 L0,6.0042685 Z"/>
    <linearGradient id="upload_doc_banner-x" x1="50%" x2="50%" y1="98.144%" y2="3.075%">
      <stop offset="0%" stop-color="#C9DBFF"/>
      <stop offset="100%" stop-color="#C6E0FF"/>
    </linearGradient>
    <path id="upload_doc_banner-y" d="M0,6.0042685 C0,2.68820258 2.69417877,0 6.00121896,0 L313.998781,0 C317.313163,0 320,2.67668944 320,6.0042685 L320,160 L0,160 L0,6.0042685 Z"/>
    <path id="upload_doc_banner-A" d="M0,6.0042685 C0,2.68820258 2.69417877,0 6.00121896,0 L313.998781,0 C317.313163,0 320,2.67668944 320,6.0042685 L320,160 L0,160 L0,6.0042685 Z"/>
    <path id="upload_doc_banner-C" d="M0,6.0042685 C0,2.68820258 2.69417877,0 6.00121896,0 L313.998781,0 C317.313163,0 320,2.67668944 320,6.0042685 L320,160 L0,160 L0,6.0042685 Z"/>
  </defs>
  <g fill="none" fill-rule="evenodd">
    <path fill="#FBFDFF" fill-rule="nonzero" d="M0,6.0042685 C0,2.68820258 2.69417877,0 6.00121896,0 L313.998781,0 C317.313163,0 320,2.67668944 320,6.0042685 L320,160 L0,160 L0,6.0042685 Z"/>
    <mask id="upload_doc_banner-b" fill="#fff">
      <use xlink:href="#upload_doc_banner-a"/>
    </mask>
    <path fill="#F7FBFF" fill-rule="nonzero" d="M21.621425,49.5059338 C7.63261487,40.4885004 0.425473189,23.9865225 0,0 L215,0 L215,142 C187.677309,142 163.343037,142 141.997184,142 C131.788287,137.460228 123.411325,124.612655 119.686128,116.029532 C104.242868,80.4471425 109.553042,71.3196264 88.7996073,57.241236 C68.0461725,43.1628456 42.6046403,63.0320839 21.621425,49.5059338 Z" mask="url(#upload_doc_banner-b)" transform="matrix(-1 0 0 1 215 0)"/>
    <mask id="upload_doc_banner-d" fill="#fff">
      <use xlink:href="#upload_doc_banner-c"/>
    </mask>
    <path fill="#E8F3FF" fill-rule="nonzero" d="M0,3.07727245 C6.91187547,-0.334375665 13.6811062,-0.909256063 20.3076923,1.35263126 C26.9342784,3.61451858 30.8317143,7.83030816 32,14 L0,14 L0,3.07727245 Z" mask="url(#upload_doc_banner-d)" transform="matrix(1 0 0 -1 0 14)"/>
    <mask id="upload_doc_banner-f" fill="#fff">
      <use xlink:href="#upload_doc_banner-e"/>
    </mask>
    <path fill="#F5F9FF" fill-rule="nonzero" d="M322.685039,166.4689 L288.997293,-24.5838044 L131.428052,3.19990406 C145.796726,84.6887017 153.95819,130.974666 155.912445,142.057797 C168.8356,135.493702 183.853139,139.718674 184.050736,152.818193 C184.248334,165.917712 196.953671,195.857071 229.745642,182.779561 C251.606956,174.0633 282.586755,168.626413 322.685039,166.4689 Z" mask="url(#upload_doc_banner-f)" transform="rotate(100 227.057 80.715)"/>
    <mask id="upload_doc_banner-h" fill="#fff">
      <use xlink:href="#upload_doc_banner-g"/>
    </mask>
    <path fill="#F7FAFF" fill-rule="nonzero" d="M3.09237846,65.9558824 C15.5811708,34.1298205 42.1607384,38.7755712 54.3691837,52.5993493 C71.65725,72.1769163 65.1825688,84.9393808 104.017306,72.0834673 C117.200291,67.7180637 132.599353,68.4122563 144.153655,76.6624687 C152.463942,82.5964806 158.184356,92.2350782 158.791774,102.43437 C159.125521,108.10806 157.950733,113.75505 157.730461,119.428739 C157.510188,125.109104 158.424653,131.209989 162.236038,135.421869 C163.04976,136.321403 161.634157,136.240737 167.44949,137 C167.44949,141 167.44949,148.666667 167.44949,160 C85.4494897,160 38.1161564,160 25.4494897,160 C52.6031012,120.738067 -14.8898805,111.79262 3.09237846,65.9558824 Z" mask="url(#upload_doc_banner-h)" transform="matrix(-1 0 0 1 167.45 0)"/>
    <mask id="upload_doc_banner-j" fill="#fff">
      <use xlink:href="#upload_doc_banner-i"/>
    </mask>
    <circle cx="107.5" cy="41.5" r="21.5" fill="#F3F7FF" fill-rule="nonzero" mask="url(#upload_doc_banner-j)"/>
    <mask id="upload_doc_banner-l" fill="#fff">
      <use xlink:href="#upload_doc_banner-k"/>
    </mask>
    <path fill="#ECF5FF" fill-rule="nonzero" d="M212.875246,53.3491652 C210.72861,53.3491652 208.586273,53.5629651 206.482627,53.9891306 C204.896295,46.0613105 199.767584,39.2986286 192.566754,35.6382001 C185.367356,31.9777712 176.888288,31.8242369 169.559921,35.2206442 C162.927992,16.9285446 142.742738,7.48403544 124.47484,14.1247506 C106.206942,20.7654658 96.7749285,40.9788961 103.406858,59.269561 C87.4045342,59.7760804 74.7640314,73.0388572 75.0033425,89.06812 C75.2440865,105.098818 88.2772317,117.974172 104.288153,118 L212.875246,118 C230.703212,118 245.157895,103.527603 245.157895,85.6745826 C245.157895,67.8215624 230.703212,53.3491652 212.875246,53.3491652 Z" mask="url(#upload_doc_banner-l)"/>
    <mask id="upload_doc_banner-n" fill="#fff">
      <use xlink:href="#upload_doc_banner-m"/>
    </mask>
    <g mask="url(#upload_doc_banner-n)">
      <g transform="rotate(-60 119.475 17.544)">
        <path fill="url(#upload_doc_banner-o)" fill-rule="nonzero" d="M26.8225641,87.905641 C34.9746816,82.0336855 46.8107417,69.1172636 48.72,63.84 C50.6292583,58.5627364 42.84,60.2427364 42,53.76 C41.16,47.2772636 51.443953,45.0109195 51.24,40.32 C51.036047,35.6290805 40.5457194,37.9311806 38.64,33.6 C36.7342806,29.2688194 43.2482648,24.3130594 42,19.32 C40.7517352,14.3269406 36.6535885,16.8252928 33.6,13.44 C30.9550761,10.5077641 28.4760457,1.37550857 25.62,0.84 C22.7639543,0.304491434 23.6978734,7.27491827 20.16,10.92 C16.6221266,14.5650817 12.9434626,12.5840087 11.76,15.12 C10.5765374,17.6559913 19.2346284,17.6363788 14.28,23.52 C9.32537161,29.4036212 1.98060369,25.5537244 0.84,30.24 C-0.30060369,34.9262756 8.68920006,39.0865061 9.24,44.2273056 C9.79079994,49.3681051 -0.446126588,46.0219355 0.84,54.6 C2.12612659,63.1780645 9.21130511,66.2211779 13.44,72.24 C17.1287785,77.4903437 18.0659979,83.3340128 24.4174359,87.905641 C24.8225478,88.1972319 26.4071468,88.2048654 26.8225641,87.905641 Z"/>
        <path fill="#C6E0FF" fill-rule="nonzero" d="M43.1774359,63.854359 C39.0561549,64.7939139 35.6889754,66.0766489 33.0758974,67.7025641 C30.4628195,69.3284793 28.0576913,72.5353169 25.8605128,77.3230769 L25.8605128,76.3610256 C28.2510851,71.6660739 30.6562134,68.6195782 33.0758974,67.2215385 C35.4955815,65.8234988 38.862761,64.7011056 43.1774359,63.854359 Z"/>
        <path fill="#C6E0FF" fill-rule="nonzero" d="M25.3794875,55.1958974 C21.2582065,56.1354523 17.891027,57.4181874 15.277949,59.0441026 C12.6648711,60.6700177 10.099401,63.8768553 7.5815388,68.6646154 L7.5815388,67.7025641 C10.2927949,63.0076123 12.8582649,59.9611166 15.277949,58.5630769 C17.6976331,57.1650372 21.0648126,56.0426441 25.3794875,55.1958974 Z" transform="matrix(-1 0 0 1 32.961 0)"/>
        <path fill="#C6E0FF" fill-rule="nonzero" d="M47.5066667,40.2841026 C42.1026506,41.2236575 38.0941036,42.5063925 35.4810256,44.1323077 C32.8679477,45.7582229 29.6611101,48.9650605 25.8605128,53.7528205 L25.8605128,52.7907692 C29.854504,48.0958175 33.0613416,45.0493217 35.4810256,43.6512821 C37.9007097,42.2532424 41.9092567,41.1308492 47.5066667,40.2841026 Z"/>
        <path fill="#C6E0FF" fill-rule="nonzero" d="M25.3794867,31.625641 C19.9754706,32.5651959 15.9669236,33.847931 13.3538457,35.4738462 C10.7407677,37.0997613 7.53393006,40.3065989 3.7333328,45.094359 L3.7333328,44.1323077 C7.72732394,39.4373559 10.9341616,36.3908602 13.3538457,34.9928205 C15.7735297,33.5947808 19.7820767,32.4723877 25.3794867,31.625641 Z" transform="matrix(-1 0 0 1 29.113 0)"/>
        <path fill="#C6E0FF" fill-rule="nonzero" d="M40.4630769,23.9292309 C36.2170643,24.6674526 33.0674917,25.6753158 31.014359,26.9528206 C28.9612263,28.2303254 26.4415682,30.7499835 23.4553846,34.511795 L23.4553846,33.7558975 C26.5935205,30.0670069 29.1131786,27.6733317 31.014359,26.5748719 C32.9155393,25.4764121 36.065112,24.5945318 40.4630769,23.9292309 Z" transform="rotate(-20 31.96 29.22)"/>
        <path fill="#C6E0FF" fill-rule="nonzero" d="M26.4961538,16.7138462 C23.2151441,17.2842902 20.7813834,18.0630936 19.1948718,19.0502564 C17.6083602,20.0374192 15.6613516,21.9844277 13.3538462,24.8912821 L13.3538462,24.3071795 C15.7787693,21.4566731 17.7257779,19.6070149 19.1948718,18.7582051 C20.6639657,17.9093953 23.0977264,17.2279423 26.4961538,16.7138462 Z" transform="scale(-1 1) rotate(-10 0 248.546)"/>
        <polygon fill="#C6E0FF" fill-rule="nonzero" points="25.614 .84 26.342 104.706 24.898 104.706"/>
      </g>
    </g>
    <mask id="upload_doc_banner-q" fill="#fff">
      <use xlink:href="#upload_doc_banner-p"/>
    </mask>
    <g mask="url(#upload_doc_banner-q)">
      <g transform="rotate(-40 119.938 -47.565)">
        <path fill="url(#upload_doc_banner-r)" fill-rule="nonzero" d="M21.7135043,71.1617094 C28.3128375,66.4082216 37.8944099,55.9520705 39.44,51.68 C40.9855901,47.4079295 34.68,48.7679295 34,43.52 C33.32,38.2720705 41.6451048,36.4374111 41.48,32.64 C41.3148952,28.8425889 32.8227253,30.7061938 31.28,27.2 C29.7372747,23.6938062 35.0105001,19.6820004 34,15.64 C32.9894999,11.5979996 29.6719526,13.6204751 27.2,10.88 C25.0588712,8.50628522 23.052037,1.11350693 20.74,0.68 C18.427963,0.246493066 19.1839928,5.88921955 16.32,8.84 C13.4560072,11.7907804 10.4780412,10.1870546 9.52,12.24 C8.56195883,14.2929454 15.5708896,14.2770685 11.56,19.04 C7.54911035,23.8029315 1.60334584,20.6863483 0.68,24.48 C-0.243345844,28.2736517 7.03411433,31.6414574 7.48,35.8030569 C7.92588567,39.9646565 -0.361150095,37.2558525 0.68,44.2 C1.72115009,51.1441475 7.4567708,53.6076202 10.88,58.48 C13.866154,62.7302782 14.6248554,67.4608675 19.7664957,71.1617094 C20.0944435,71.3977591 21.3772141,71.4039386 21.7135043,71.1617094 Z"/>
        <path fill="#C6E0FF" fill-rule="nonzero" d="M34.9531624,51.6916239 C31.6168873,52.452216 28.8910753,53.4906206 26.7757265,54.8068376 C24.6603777,56.1230547 22.7133691,58.719066 20.9347009,62.5948718 L20.9347009,61.8160684 C22.8699261,58.0153931 24.8169346,55.5491823 26.7757265,54.4174359 C28.7345184,53.2856895 31.4603303,52.3770855 34.9531624,51.6916239 Z"/>
        <path fill="#C6E0FF" fill-rule="nonzero" d="M20.5453001,44.6823932 C17.209025,45.4429852 14.4832131,46.4813898 12.3678642,47.7976068 C10.2525154,49.1138239 8.17570631,51.7098353 6.1374369,55.585641 L6.1374369,54.8068376 C8.33226326,51.0061624 10.4090724,48.5399515 12.3678642,47.4082051 C14.3266561,46.2764587 17.0524681,45.3678547 20.5453001,44.6823932 Z" transform="matrix(-1 0 0 1 26.683 0)"/>
        <path fill="#C6E0FF" fill-rule="nonzero" d="M38.4577778,32.6109402 C34.0830981,33.3715322 30.8380839,34.4099368 28.722735,35.7261538 C26.6073862,37.0423709 24.0113748,39.6383823 20.9347009,43.514188 L20.9347009,42.7353846 C24.1679318,38.9347094 26.7639432,36.4684986 28.722735,35.3367521 C30.6815269,34.2050057 33.9265412,33.2964017 38.4577778,32.6109402 Z"/>
        <path fill="#C6E0FF" fill-rule="nonzero" d="M20.5452998,25.6017094 C16.1706202,26.3623015 12.9256059,27.400706 10.8102571,28.7169231 C8.69490827,30.0331401 6.09889687,32.6291515 3.0222229,36.5049573 L3.0222229,35.7261538 C6.25545382,31.9254786 8.85146522,29.4592678 10.8102571,28.3275214 C12.769049,27.195775 16.0140632,26.287171 20.5452998,25.6017094 Z" transform="matrix(-1 0 0 1 23.568 0)"/>
        <path fill="#C6E0FF" fill-rule="nonzero" d="M32.7558242,19.371282 C29.3185759,19.96889 26.7689218,20.7847793 25.106862,21.8189498 C23.4448022,22.8531204 21.405079,24.8928436 18.9876923,27.9381196 L18.9876923,27.3262026 C21.528088,24.3399578 23.5678113,22.4022207 25.106862,21.5129914 C26.6459128,20.623762 29.1955668,19.9098589 32.7558242,19.371282 Z" transform="rotate(-20 25.872 23.655)"/>
        <path fill="#C6E0FF" fill-rule="nonzero" d="M21.4492676,13.5302564 C18.7932121,13.9920445 16.8230249,14.6225044 15.5387059,15.4216361 C14.254387,16.2207679 12.6782372,17.7969177 10.8102566,20.1500855 L10.8102566,19.6772405 C12.7732897,17.3696877 14.3494394,15.8723454 15.5387059,15.1852137 C16.7279724,14.4980819 18.6981597,13.9464295 21.4492676,13.5302564 Z" transform="scale(-1 1) rotate(-10 0 201.204)"/>
        <polygon fill="#C6E0FF" fill-rule="nonzero" points="20.735 .68 21.324 84.762 20.156 84.762"/>
      </g>
    </g>
    <mask id="upload_doc_banner-t" fill="#fff">
      <use xlink:href="#upload_doc_banner-s"/>
    </mask>
    <g mask="url(#upload_doc_banner-t)">
      <g transform="rotate(40 68.707 317)">
        <path fill="url(#upload_doc_banner-u)" fill-rule="nonzero" d="M26.8225641,87.905641 C34.9746816,82.0336855 46.8107417,69.1172636 48.72,63.84 C50.6292583,58.5627364 42.84,60.2427364 42,53.76 C41.16,47.2772636 51.443953,45.0109195 51.24,40.32 C51.036047,35.6290805 40.5457194,37.9311806 38.64,33.6 C36.7342806,29.2688194 43.2482648,24.3130594 42,19.32 C40.7517352,14.3269406 36.6535885,16.8252928 33.6,13.44 C30.9550761,10.5077641 28.4760457,1.37550857 25.62,0.84 C22.7639543,0.304491434 23.6978734,7.27491827 20.16,10.92 C16.6221266,14.5650817 12.9434626,12.5840087 11.76,15.12 C10.5765374,17.6559913 19.2346284,17.6363788 14.28,23.52 C9.32537161,29.4036212 1.98060369,25.5537244 0.84,30.24 C-0.30060369,34.9262756 8.68920006,39.0865061 9.24,44.2273056 C9.79079994,49.3681051 -0.446126588,46.0219355 0.84,54.6 C2.12612659,63.1780645 9.21130511,66.2211779 13.44,72.24 C17.1287785,77.4903437 18.0659979,83.3340128 24.4174359,87.905641 C24.8225478,88.1972319 26.4071468,88.2048654 26.8225641,87.905641 Z"/>
        <path fill="#C6E0FF" fill-rule="nonzero" d="M43.1774359,63.854359 C39.0561549,64.7939139 35.6889754,66.0766489 33.0758974,67.7025641 C30.4628195,69.3284793 28.0576913,72.5353169 25.8605128,77.3230769 L25.8605128,76.3610256 C28.2510851,71.6660739 30.6562134,68.6195782 33.0758974,67.2215385 C35.4955815,65.8234988 38.862761,64.7011056 43.1774359,63.854359 Z"/>
        <path fill="#C6E0FF" fill-rule="nonzero" d="M25.3794875,55.1958974 C21.2582065,56.1354523 17.891027,57.4181874 15.277949,59.0441026 C12.6648711,60.6700177 10.099401,63.8768553 7.5815388,68.6646154 L7.5815388,67.7025641 C10.2927949,63.0076123 12.8582649,59.9611166 15.277949,58.5630769 C17.6976331,57.1650372 21.0648126,56.0426441 25.3794875,55.1958974 Z" transform="matrix(-1 0 0 1 32.961 0)"/>
        <path fill="#C6E0FF" fill-rule="nonzero" d="M47.5066667,40.2841026 C42.1026506,41.2236575 38.0941036,42.5063925 35.4810256,44.1323077 C32.8679477,45.7582229 29.6611101,48.9650605 25.8605128,53.7528205 L25.8605128,52.7907692 C29.854504,48.0958175 33.0613416,45.0493217 35.4810256,43.6512821 C37.9007097,42.2532424 41.9092567,41.1308492 47.5066667,40.2841026 Z"/>
        <path fill="#C6E0FF" fill-rule="nonzero" d="M25.3794867,31.625641 C19.9754706,32.5651959 15.9669236,33.847931 13.3538457,35.4738462 C10.7407677,37.0997613 7.53393006,40.3065989 3.7333328,45.094359 L3.7333328,44.1323077 C7.72732394,39.4373559 10.9341616,36.3908602 13.3538457,34.9928205 C15.7735297,33.5947808 19.7820767,32.4723877 25.3794867,31.625641 Z" transform="matrix(-1 0 0 1 29.113 0)"/>
        <path fill="#C6E0FF" fill-rule="nonzero" d="M40.4630769,23.9292309 C36.2170643,24.6674526 33.0674917,25.6753158 31.014359,26.9528206 C28.9612263,28.2303254 26.4415682,30.7499835 23.4553846,34.511795 L23.4553846,33.7558975 C26.5935205,30.0670069 29.1131786,27.6733317 31.014359,26.5748719 C32.9155393,25.4764121 36.065112,24.5945318 40.4630769,23.9292309 Z" transform="rotate(-20 31.96 29.22)"/>
        <path fill="#C6E0FF" fill-rule="nonzero" d="M26.4961538,16.7138462 C23.2151441,17.2842902 20.7813834,18.0630936 19.1948718,19.0502564 C17.6083602,20.0374192 15.6613516,21.9844277 13.3538462,24.8912821 L13.3538462,24.3071795 C15.7787693,21.4566731 17.7257779,19.6070149 19.1948718,18.7582051 C20.6639657,17.9093953 23.0977264,17.2279423 26.4961538,16.7138462 Z" transform="scale(-1 1) rotate(-10 0 248.546)"/>
        <polygon fill="#C6E0FF" fill-rule="nonzero" points="25.614 .84 26.342 104.706 24.898 104.706"/>
      </g>
    </g>
    <mask id="upload_doc_banner-w" fill="#fff">
      <use xlink:href="#upload_doc_banner-v"/>
    </mask>
    <g mask="url(#upload_doc_banner-w)">
      <g transform="rotate(50 49.915 294.52)">
        <path fill="url(#upload_doc_banner-x)" fill-rule="nonzero" d="M24.855194,73.7506575 C40.0342872,62.8171839 47.6730769,50.6989179 47.6730769,37.2827909 C47.6730769,23.5556464 39.7275641,11.1280494 23.8365385,0 C7.94551282,11.1280494 0,23.5556464 0,37.2827909 C0,50.7068117 7.62092209,62.8122124 22.817883,73.7506575 C23.161041,73.9976552 24.5033066,74.0041213 24.855194,73.7506575 Z"/>
        <path fill="#C6E0FF" fill-rule="nonzero" d="M38.7089086,53.3775477 C35.2178968,54.1734161 32.3656614,55.2599819 30.1522025,56.6372452 C27.9387436,58.0145085 25.9014326,60.7309232 24.0402696,64.7864892 L24.0402696,63.9715648 C26.0652507,59.9946139 28.1025617,57.41402 30.1522025,56.229783 C32.2018433,55.0455461 35.0540787,54.094801 38.7089086,53.3775477 Z"/>
        <path fill="#C6E0FF" fill-rule="nonzero" d="M23.6328079,46.0432281 C20.141796,46.8390965 17.2895606,47.9256624 15.0761017,49.3029257 C12.8626429,50.680189 10.6895111,53.3966037 8.5567066,57.4521696 L8.5567066,56.6372452 C10.8533292,52.6602943 13.0264609,50.0797004 15.0761017,48.8954635 C17.1257426,47.7112266 19.9779779,46.7604815 23.6328079,46.0432281 Z" transform="matrix(-1 0 0 1 32.19 0)"/>
        <path fill="#C6E0FF" fill-rule="nonzero" d="M42.3760684,33.4119001 C37.7984907,34.2077685 34.4029724,35.2943343 32.1895135,36.6715976 C29.9760546,38.0488609 27.2596399,40.7652756 24.0402696,44.8208416 L24.0402696,44.0059172 C27.423458,40.0289663 30.1398727,37.4483724 32.1895135,36.2641354 C34.2391543,35.0798985 37.6346726,34.1291534 42.3760684,33.4119001 Z"/>
        <path fill="#C6E0FF" fill-rule="nonzero" d="M23.6328074,26.0775805 C19.0552297,26.8734489 15.6597114,27.9600148 13.4462525,29.3372781 C11.2327936,30.7145414 8.51637898,33.4309561 5.2970086,37.486522 L5.2970086,36.6715976 C8.68019706,32.6946467 11.3966116,30.1140528 13.4462525,28.9298159 C15.4958933,27.745579 18.8914116,26.7948339 23.6328074,26.0775805 Z" transform="matrix(-1 0 0 1 28.93 0)"/>
        <path fill="#C6E0FF" fill-rule="nonzero" d="M36.4096575,19.5581854 C32.8129893,20.1835106 30.145082,21.0372409 28.4059357,22.1193764 C26.6667895,23.2015118 24.5324637,25.3358376 22.0029584,28.5223537 L22.0029584,27.882056 C24.6611779,24.7573088 26.7955037,22.7296993 28.4059357,21.7992275 C30.0163678,20.8687556 32.6842751,20.1217416 36.4096575,19.5581854 Z" transform="rotate(-20 29.206 24.04)"/>
        <path fill="#C6E0FF" fill-rule="nonzero" d="M24.5787015,13.4462525 C21.7994579,13.9294583 19.7378933,14.589159 18.3940075,15.4253546 C17.0501217,16.2615501 15.40087,17.9108019 13.4462523,20.3731098 L13.4462523,19.8783343 C15.500331,17.4637569 17.1495827,15.8969678 18.3940075,15.1779668 C19.6384323,14.4589658 21.699997,13.8817277 24.5787015,13.4462525 Z" transform="scale(-1 1) rotate(-10 0 234.223)"/>
        <polygon fill="#C6E0FF" fill-rule="nonzero" points="23.832 0 24.448 73.751 23.225 73.751"/>
      </g>
    </g>
    <mask id="upload_doc_banner-z" fill="#fff">
      <use xlink:href="#upload_doc_banner-y"/>
    </mask>
    <g mask="url(#upload_doc_banner-z)">
      <g transform="translate(108 63)">
        <path fill="#FFDA2C" fill-rule="nonzero" d="M9,22 L97,22 C100.313708,22 103,24.6862915 103,28 L103,78.9117647 C103,80.61735 101.61735,82 99.9117647,82 L7.11764706,82 C4.84353338,82 3,80.1564666 3,77.8823529 L3,28 C3,24.6862915 5.6862915,22 9,22 Z"/>
        <path fill="#B39712" fill-rule="nonzero" d="M3,28 L103,28 L103,77.9245283 C103,80.1753492 101.172591,82 98.9183673,82 L7.08163265,82 C4.82740918,82 3,80.1753492 3,77.9245283 L3,28 Z"/>
        <path fill="#C6E0FF" fill-rule="nonzero" d="M20,1 L84,1 C85.1045695,1 86,1.8954305 86,3 L86,36 L20,36 L20,1 Z"/>
        <path fill="#FFF" fill-rule="nonzero" d="M20,0 L82,0 C83.1045695,0 84,0.8954305 84,2 L84,36 L18,36 L18,2 C18,0.8954305 18.8954305,0 20,0 Z"/>
        <path fill="#C6E0FF" fill-rule="nonzero" d="M48,14 L78,14 C78.5522847,14 79,14.4477153 79,15 C79,15.5522847 78.5522847,16 78,16 L48,16 C47.4477153,16 47,15.5522847 47,15 C47,14.4477153 47.4477153,14 48,14 Z M48,20 L64,20 C64.5522847,20 65,20.4477153 65,21 C65,21.5522847 64.5522847,22 64,22 L48,22 C47.4477153,22 47,21.5522847 47,21 C47,20.4477153 47.4477153,20 48,20 Z M26,30 L78,30 C78.5522847,30 79,30.4477153 79,31 C79,31.5522847 78.5522847,32 78,32 L26,32 C25.4477153,32 25,31.5522847 25,31 C25,30.4477153 25.4477153,30 26,30 Z M27,10 L39,10 C40.1045695,10 41,10.8954305 41,12 L41,24 C41,25.1045695 40.1045695,26 39,26 L27,26 C25.8954305,26 25,25.1045695 25,24 L25,12 C25,10.8954305 25.8954305,10 27,10 Z"/>
        <path fill="#FFDA2C" fill-rule="nonzero" d="M3.85458012,36 L97.0685456,36 C99.0025138,36 100.637001,37.4255924 100.889583,39.3326903 L102.966551,77.6660237 C103.244543,79.7649819 101.759163,81.6906693 99.648863,81.9671667 C99.4819808,81.9890321 99.3138383,82 99.1455147,82 L6.700953,82 C4.79563447,82 3.17625453,80.6152279 2.89049756,78.7415845 L0.0441246652,40.4082512 C-0.275109507,38.3151056 1.17209908,36.3608763 3.27655552,36.0433579 C3.46786291,36.0144936 3.66108416,36 3.85458012,36 Z"/>
      </g>
    </g>
    <mask id="upload_doc_banner-B" fill="#fff">
      <use xlink:href="#upload_doc_banner-A"/>
    </mask>
    <path fill="#C6E0FF" fill-rule="nonzero" d="M159,46 L153.06066,51.9393398 C152.818019,52.1819805 152.424621,52.1819805 152.181981,51.9393398 C152.06546,51.8228197 152,51.6647844 152,51.5 C152,50.5395661 152.381531,49.6184691 153.06066,48.9393398 L160,42 L166.93934,48.9393398 C167.618469,49.6184691 168,50.5395661 168,51.5 C168,51.8431458 167.721825,52.1213203 167.37868,52.1213203 C167.213895,52.1213203 167.05586,52.05586 166.93934,51.9393398 L161,46 L161,56 C161,56.5522847 160.552285,57 160,57 C159.447715,57 159,56.5522847 159,56 L159,46 Z" mask="url(#upload_doc_banner-B)"/>
    <mask id="upload_doc_banner-D" fill="#fff">
      <use xlink:href="#upload_doc_banner-C"/>
    </mask>
    <g mask="url(#upload_doc_banner-D)">
      <g transform="translate(146 108)">
        <g fill-rule="nonzero">
          <path fill="#3792FC" stroke="#0A1D32" d="M13.8795443,0.5 L14.1204565,0.5 L27.5162472,7.3474314 L27.4993178,7.67118968 C27.4872415,7.90213747 27.4687728,8.15325894 27.4438663,8.42053189 C27.3518246,9.40818475 27.1878604,10.4608424 26.9512076,11.5491863 C26.2157036,14.9320252 24.9056875,18.1355489 23.0158051,21.0326796 C20.8009013,24.4281719 17.8831417,27.2436423 14.258096,29.4282465 L14.0000314,29.5837671 L13.7419589,29.4282595 C10.1162723,27.2435174 7.19815814,24.4275178 4.98299072,21.0311487 C3.0935852,18.1340288 1.78392222,14.9309026 1.04864218,11.5486807 C0.812042591,10.4603793 0.648128207,9.40786709 0.556117995,8.4203265 C0.531223662,8.15315838 0.512759435,7.90207199 0.500682369,7.67114391 L0.483750282,7.34738194 L13.8795443,0.5 Z"/>
          <path fill="#3792FC" d="M1,7.64503062 C1.01127302,7.86058442 1.02883082,8.10423389 1.05396147,8.37393817 C1.14007077,9.29814464 1.29538954,10.330056 1.53722921,11.4424606 C2.22823429,14.6210217 3.47169235,17.7984904 5.40179737,20.7580169 C7.52704958,24.016525 10.3625553,26.8081628 14.0000839,29 C14.0000839,24 14.0000839,14.999861 14.0000839,1 C9.66666841,3.21498601 5.33330711,5.42999622 1,7.64503062 Z"/>
          <path fill="#68AEFF" d="M14.0000001,7.64503062 C14.0112731,7.86058442 14.0288309,8.10423389 14.0539616,8.37393817 C14.1400709,9.29814464 14.2953896,10.330056 14.5372293,11.4424606 C15.2282344,14.6210217 16.4716925,17.7984904 18.4017975,20.7580169 C20.5270497,24.016525 23.3625554,26.8081628 27.000084,29 C27.000084,24 27.000084,14.999861 27.000084,1 C22.6666685,3.21498601 18.3333072,5.42999622 14.0000001,7.64503062 Z" transform="matrix(-1 0 0 1 41 0)"/>
        </g>
        <g transform="translate(8 5)">
          <rect width="7.471" height="8.716" x="1.868" y=".623" stroke="#FFF" stroke-width="1.038" rx="2.075"/>
          <rect width="11.207" height="11.207" y="6.226" fill="#C6E0FF" fill-rule="nonzero" rx="2.075"/>
          <circle cx="5.603" cy="11.829" r="1.868" fill="#68AEFF" fill-rule="nonzero"/>
          <path fill="#68AEFF" fill-rule="nonzero" d="M5.05864932,12.4517647 C4.96297036,14.5775225 5.14451862,15.6404014 5.60329412,15.6404014 C6.06206961,15.6404014 6.24084221,14.5775225 6.13961191,12.4517647 L5.05864932,12.4517647 Z"/>
        </g>
      </g>
    </g>
  </g>
</svg>
