<svg width="300" height="256" viewBox="0 0 300 256" fill="none" xmlns="http://www.w3.org/2000/svg">
<path d="M6 0H294C297.314 0 300 2.6863 300 6V256H0V6C0 2.6863 2.6863 0 6 0Z" fill="white"/>
<path d="M275 227H25V228H275V227Z" fill="#9D95F8"/>
<path opacity="0.2" d="M29.5793 119.334C29.6176 119.155 29.6538 118.976 29.6961 118.8C31.0168 112.717 33.175 106.856 36.3841 101.473C36.4908 101.294 36.5975 101.115 36.7062 100.936C38.8223 97.4724 41.3543 94.2805 44.2458 91.4308C45.8443 89.8544 47.5878 88.3563 49.6614 87.2766C52.5665 85.7605 55.9629 85.1452 59.3008 84.6425C62.7676 84.1177 66.2827 83.6793 69.7878 83.2068C71.0333 83.0419 72.2715 82.867 73.5022 82.682C76.8885 82.1813 80.2506 81.6022 83.5322 80.8341C87.5889 79.887 91.5208 78.6464 95.2352 76.901C95.5318 76.7669 95.8251 76.6248 96.115 76.4747C96.4049 76.3299 96.6968 76.1831 96.9827 76.0343C97.2686 75.8855 97.5504 75.7367 97.8303 75.5839C97.9752 75.5055 98.1202 75.4271 98.2631 75.3446C98.4061 75.2622 98.547 75.1898 98.6859 75.1094C99.1047 74.8761 99.5154 74.6368 99.9261 74.3955L99.9422 74.3855C100.214 74.2266 100.482 74.0638 100.748 73.9009C102.266 72.98 103.751 72.0188 105.237 71.0516L106.171 70.4484L107.619 69.5134C107.901 69.3304 108.188 69.1474 108.472 68.9664C108.674 68.8337 108.875 68.701 109.094 68.5643C110.149 67.9007 111.218 67.2493 112.316 66.6279C112.575 66.4791 112.837 66.3303 113.101 66.1855C115.318 64.9503 117.636 63.9063 120.03 63.0648L120.063 63.0527C121.267 62.633 122.496 62.2866 123.743 62.0152C124.461 61.8583 125.182 61.7296 125.911 61.6311C127.859 61.3552 129.835 61.3275 131.79 61.5487C135.629 61.993 139.227 63.465 143.064 63.9615C150.964 64.9669 158.636 61.7275 166.065 59.19C167.891 58.5667 169.732 57.983 171.585 57.4387C172.817 57.0747 174.053 56.7309 175.299 56.399C182.935 54.3842 190.726 53.0195 198.592 52.3193C201.881 51.9975 205.188 51.9242 208.488 52.1001C209.742 52.1765 210.982 52.3012 212.2 52.5022C216.367 53.1457 220.253 54.4949 223.39 56.9661C225.959 58.995 227.797 61.6391 229.196 64.4059C230.628 67.2291 231.64 70.2464 232.198 73.3618C232.274 73.7861 232.343 74.2124 232.399 74.6386C232.5 75.3679 232.575 76.1011 232.625 76.8384C232.896 80.7682 232.426 84.7139 231.24 88.4704C229.911 92.6769 227.696 96.7145 226.722 100.953C226.682 101.133 226.643 101.312 226.607 101.49C226.474 102.134 226.375 102.785 226.311 103.439C225.814 108.647 227.721 113.724 229.216 118.817C229.269 118.994 229.321 119.173 229.371 119.352C229.532 119.917 229.687 120.482 229.834 121.047C231.22 126.431 231.604 132.197 230.37 137.571C230.332 137.75 230.285 137.929 230.241 138.106C229.415 141.503 227.861 144.681 225.687 147.421C223.376 150.317 220.342 152.728 217.101 154.845C215.521 155.877 213.888 156.842 212.2 157.739C210.993 158.382 209.755 158.991 208.488 159.566C198.331 164.191 186.745 166.449 175.288 165.951C174.684 165.924 174.08 165.892 173.476 165.848C172.872 165.804 172.212 165.752 171.58 165.693C164.199 164.977 157.018 163.25 149.887 161.362C147.497 160.729 145.111 160.079 142.727 159.442C141.666 159.16 140.607 158.879 139.547 158.605C134.35 157.264 129.078 156.05 123.739 155.143C122.503 154.93 121.265 154.735 120.026 154.56C115.725 153.928 111.389 153.561 107.043 153.46C105.353 153.426 103.663 153.441 101.972 153.504C101.118 153.535 100.264 153.581 99.4089 153.643C90.5808 154.264 82.0489 156.343 73.5029 158.286C72.2668 158.567 71.0286 158.845 69.7885 159.118C68.1618 159.476 66.5351 159.822 64.9003 160.142C54.7273 162.138 45.6593 160.99 36.2013 156.87C34.0511 155.935 31.903 154.805 30.5863 153.05C29.2696 151.294 28.9395 149.139 28.6938 147.057C28.3455 144.094 28.118 141.092 28.0314 138.073C28.0314 137.896 28.0314 137.717 28.0194 137.539C27.8825 131.442 28.3374 125.287 29.5797 119.334L29.5793 119.334Z" fill="#EFEEFB"/>
<path opacity="0.3" d="M149.039 172.02C150.864 152.793 248.798 115.683 266.979 133.894C285.16 152.105 280.558 190.411 242.457 199.163C204.356 207.915 147.214 191.246 149.039 172.02Z" fill="white"/>
<path d="M225 43.7621V227.002H75V43.7621C75 40.0228 77.7017 37 81.0215 37H218.971C222.301 37 225.003 40.0228 225.003 43.7621H225Z" fill="#E6E5F4"/>
<path d="M225 42.9475V55.0005H75V42.9475C75 39.6587 77.5329 37 80.6452 37H219.345C222.467 37 225 39.6586 225 42.9475Z" fill="#675AF6"/>
<path d="M128.481 157.518L161.297 154.727C173.39 153.698 184.756 160.622 189.389 171.84L189.498 172.102C192.362 176.676 194.475 180.119 195.836 182.429C197.738 185.661 199.948 188.644 201.425 191.116C203.375 194.381 204.62 197.534 206.465 200.083C208.965 203.535 211.268 204.224 212.418 203.59C214.418 202.488 215.132 190.832 214.571 185.639C214.12 181.464 229.243 182.143 229.243 186.998C229.243 190.732 230.219 200.086 227.361 210.372C224.503 220.658 212.036 221.994 209.532 221.994C207.863 221.994 203.84 219.757 197.464 215.284L178.309 191.033C177.881 190.491 177.093 190.398 176.55 190.827C176.253 191.062 176.078 191.418 176.074 191.797L175.722 226.392H103V185.259C103 170.798 114.072 158.744 128.481 157.518L128.481 157.518Z" fill="#9D95F8"/>
<path d="M176.001 187C183.123 184.319 190.001 204 197.465 215.284L178.31 191.033C177.881 190.49 177.094 190.398 176.551 190.827C176.254 191.061 176.079 191.418 176.075 191.796L175.722 226.391C173.907 226.13 171.667 226 169 226C172 222 168.878 189.681 176 187L176.001 187Z" fill="#8279F8"/>
<path d="M147.043 168.984C146.932 168.984 146.82 169.096 146.709 169.096C146.598 169.096 146.486 168.984 146.375 168.984H147.043Z" fill="#8279F8"/>
<path d="M162.632 154.841V154.953C162.632 156.066 162.075 163.194 147.04 168.873H146.372C131.338 163.193 130.781 156.066 130.781 154.953V154.841C130.781 153.394 131.115 151.946 131.449 150.498C135.793 155.955 141.027 159.63 146.706 159.63C152.386 159.63 157.62 155.955 161.963 150.498C162.298 151.946 162.632 153.393 162.632 154.841Z" fill="#FFEBE4"/>
<path d="M162.634 154.841C162.634 154.841 163.414 162.859 146.709 169.096C146.709 169.096 159.509 169.862 163.422 178.55C163.457 178.627 163.443 178.784 163.525 178.784C163.607 178.784 163.607 178.695 163.705 178.48C164.837 176.005 170.524 159.247 162.634 154.841L162.634 154.841ZM130.784 154.841C122.209 159.629 129.67 179.007 129.893 178.673C133.791 169.764 146.709 168.984 146.709 168.984C130.005 162.859 130.784 154.841 130.784 154.841L130.784 154.841Z" fill="#4F44D0"/>
<path d="M170.096 126.666C169.094 133.57 166.087 140.03 161.076 144.93C160.073 145.932 159.182 146.711 158.069 147.491L156.287 141.811H137.133L135.351 147.491C131.788 144.818 124.326 137.357 124.215 130.341C121.097 90.3619 151.722 98.8249 151.722 98.8249C172.324 97.3772 171.656 115.529 170.097 126.666L170.096 126.666Z" fill="#FFEBE4"/>
<path d="M174.214 133.905C172.655 136.466 170.539 138.248 168.535 138.916C169.314 137.134 169.983 135.241 170.539 133.348V133.236C170.985 131.566 171.43 129.896 171.876 128.225H171.764C172.21 126.555 172.655 124.884 172.989 123.214C173.435 123.214 173.88 123.437 174.326 123.659C176.776 125.218 176.664 129.784 174.214 133.904L174.214 133.905ZM124.88 138.916C122.876 138.248 120.76 136.466 119.201 133.905C116.639 129.784 116.639 125.218 119.089 123.771C119.312 123.659 119.424 123.548 119.646 123.548C120.983 128.782 122.542 132.68 122.876 133.459C123.433 135.241 124.101 137.134 124.88 138.916Z" fill="#FFEBE4"/>
<path d="M158.847 87.6886C159.738 77.4436 143.479 78.1114 143.479 78.1114C118.868 81.675 116.195 104.615 116.195 104.615L119.536 100.606C114.302 112.076 122.209 131.788 122.877 133.347C126.998 147.045 136.129 159.629 146.709 159.629C157.289 159.629 166.42 147.045 170.541 133.347V133.236C170.987 131.566 171.432 129.895 171.766 128.225H171.655C173.882 119.316 176.332 110.296 176.332 110.296C182.68 78.3347 158.848 87.6887 158.848 87.6887L158.847 87.6886ZM170.095 126.666C169.093 133.57 166.086 140.03 161.075 144.93C160.073 145.932 159.07 146.711 158.068 147.491L156.286 141.923H137.132L135.351 147.602C131.787 144.93 128.78 141.255 126.33 137.022C125.217 134.795 124.548 132.456 124.214 130.452C121.096 90.4729 151.721 98.9359 151.721 98.9359C172.323 97.3768 171.655 115.529 170.096 126.665L170.095 126.666Z" fill="#132056"/>
<path d="M138.914 145.709C140.807 147.825 143.592 149.273 146.71 149.273C149.828 149.273 152.612 147.936 154.505 145.709H138.914H138.914Z" fill="white"/>
<path d="M146.99 188.392C147.682 188.392 148.242 187.831 148.242 187.14C148.242 186.448 147.682 185.888 146.99 185.888C146.299 185.888 145.738 186.448 145.738 187.14C145.738 187.831 146.299 188.392 146.99 188.392Z" fill="#4F44D0"/>
<path d="M146.99 180.872C147.682 180.872 148.242 180.312 148.242 179.62C148.242 178.929 147.682 178.368 146.99 178.368C146.299 178.368 145.738 178.929 145.738 179.62C145.738 180.312 146.299 180.872 146.99 180.872Z" fill="#4F44D0"/>
<path d="M146.99 173.354C147.682 173.354 148.242 172.793 148.242 172.102C148.242 171.41 147.682 170.85 146.99 170.85C146.299 170.85 145.738 171.41 145.738 172.102C145.738 172.793 146.299 173.354 146.99 173.354Z" fill="#4F44D0"/>
<path d="M143.883 169.318V189.817C143.883 191.509 145.254 192.88 146.945 192.88H150.286" stroke="#4F44D0" stroke-width="0.618"/>
<path d="M119 192C118.333 210 118.667 221.333 120 226H117C117.667 224.667 118.333 213.333 119 192Z" fill="#4F44D0"/>
<path d="M227.878 167.941L227.229 167.615L214.19 167.941L213.965 168.785L221.612 171.791L227.407 168.422L227.878 167.941Z" fill="#5A6389"/>
<path d="M214.918 182.15L215.565 199.883L229.243 200.082L228.338 182.15H214.918Z" fill="#8279F8"/>
<path d="M210.153 157.726H228.504C227.389 161.182 227.008 164.599 227.362 167.976C227.716 171.353 228.041 176.171 228.337 182.43H215.564C215.172 174.888 214.436 168.652 213.356 163.723C212.277 158.793 211.209 156.794 210.152 157.726L210.153 157.726Z" fill="#FFEBE4"/>
<path d="M206.876 130.723H232.756C235.611 140.764 236.014 147.553 233.964 151.089C230.888 156.392 229.818 157.994 228.3 159.447C227.314 160.391 222.857 155.314 217.978 159.989C215.673 162.199 210.57 158.561 209.68 158.315C207.985 157.845 207.025 156.139 206.801 153.198L206.875 130.723H206.876Z" fill="#FFEBE4"/>
<path d="M206.876 130.723H232.756C235.611 140.764 236.014 147.553 233.964 151.089C230.888 156.392 229.818 157.994 228.3 159.447C227.314 160.391 222.857 155.314 217.978 159.989C215.673 162.199 210.57 158.561 209.68 158.315C207.985 157.845 207.025 156.139 206.801 153.198L206.875 130.723H206.876Z" fill="#FFEBE4"/>
<mask id="mask0" mask-type="alpha" maskUnits="userSpaceOnUse" x="206" y="130" width="30" height="31">
<path d="M206.876 130.723H232.756C235.611 140.764 236.014 147.553 233.964 151.089C230.888 156.392 229.818 157.994 228.3 159.447C227.314 160.391 222.857 155.314 217.978 159.989C215.673 162.199 210.57 158.561 209.68 158.315C207.985 157.845 207.025 156.139 206.801 153.198L206.875 130.723H206.876Z" fill="#FFEBE4"/>
</mask>
<g mask="url(#mask0)">
<path d="M217.423 160.698C216.937 154.639 213.416 149.884 206.859 146.433C200.302 142.982 200.302 148.746 206.859 163.723L217.423 160.698V160.698Z" fill="#FFEBE4"/>
</g>
<path d="M234.485 130.67H203.706C202.979 130.67 202.391 131.259 202.391 131.985V150.529C202.391 151.255 202.979 151.844 203.706 151.844H234.485C235.211 151.844 235.8 151.255 235.8 150.529V131.985C235.8 131.259 235.211 130.67 234.485 130.67Z" fill="#C6C2F9"/>
<path d="M212.827 139.67H205.955C205.643 139.67 205.391 139.922 205.391 140.234V147.106C205.391 147.417 205.643 147.67 205.955 147.67H212.827C213.138 147.67 213.391 147.417 213.391 147.106V140.234C213.391 139.922 213.138 139.67 212.827 139.67Z" fill="#EFEEFB"/>
<mask id="mask1" mask-type="alpha" maskUnits="userSpaceOnUse" x="205" y="139" width="9" height="9">
<path d="M212.827 139.67H205.955C205.643 139.67 205.391 139.922 205.391 140.234V147.106C205.391 147.417 205.643 147.67 205.955 147.67H212.827C213.138 147.67 213.391 147.417 213.391 147.106V140.234C213.391 139.922 213.138 139.67 212.827 139.67Z" fill="white"/>
</mask>
<g mask="url(#mask1)">
<path d="M209.391 144.67C210.495 144.67 211.391 143.774 211.391 142.67C211.391 141.565 210.495 140.67 209.391 140.67C208.286 140.67 207.391 141.565 207.391 142.67C207.391 143.774 208.286 144.67 209.391 144.67Z" fill="#5A6389"/>
</g>
<mask id="mask2" mask-type="alpha" maskUnits="userSpaceOnUse" x="205" y="139" width="9" height="9">
<path d="M212.827 139.67H205.955C205.643 139.67 205.391 139.922 205.391 140.234V147.106C205.391 147.417 205.643 147.67 205.955 147.67H212.827C213.138 147.67 213.391 147.417 213.391 147.106V140.234C213.391 139.922 213.138 139.67 212.827 139.67Z" fill="white"/>
</mask>
<g mask="url(#mask2)">
<path d="M212.391 147.67C212.391 146.622 210.968 145.67 209.311 145.67C207.654 145.67 206.391 146.622 206.391 147.67H212.391Z" fill="#5A6389"/>
</g>
<path d="M229.891 135.67H216.891C216.614 135.67 216.391 135.894 216.391 136.17C216.391 136.446 216.614 136.67 216.891 136.67H229.891C230.167 136.67 230.391 136.446 230.391 136.17C230.391 135.894 230.167 135.67 229.891 135.67Z" fill="white"/>
<path d="M223.891 138.67H216.891C216.614 138.67 216.391 138.894 216.391 139.17C216.391 139.446 216.614 139.67 216.891 139.67H223.891C224.167 139.67 224.391 139.446 224.391 139.17C224.391 138.894 224.167 138.67 223.891 138.67Z" fill="white"/>
<path d="M231.891 143.67H216.891C216.614 143.67 216.391 143.894 216.391 144.17C216.391 144.446 216.614 144.67 216.891 144.67H231.891C232.167 144.67 232.391 144.446 232.391 144.17C232.391 143.894 232.167 143.67 231.891 143.67Z" fill="white"/>
<path d="M205.449 135.975H206.142C206.264 135.975 206.374 135.986 206.472 136.008C206.57 136.03 206.654 136.066 206.724 136.116C206.794 136.166 206.848 136.23 206.886 136.308C206.924 136.386 206.943 136.48 206.943 136.59C206.943 136.708 206.921 136.807 206.877 136.887C206.833 136.967 206.774 137.031 206.699 137.08C206.624 137.129 206.536 137.165 206.436 137.187C206.336 137.209 206.23 137.22 206.118 137.22H205.827V138.099H205.449V135.975ZM206.091 136.902C206.153 136.902 206.212 136.897 206.268 136.888C206.324 136.879 206.374 136.863 206.418 136.84C206.462 136.817 206.497 136.786 206.523 136.746C206.549 136.706 206.562 136.654 206.562 136.59C206.562 136.528 206.549 136.477 206.523 136.438C206.497 136.399 206.463 136.369 206.42 136.347C206.377 136.325 206.328 136.31 206.273 136.303C206.218 136.296 206.161 136.293 206.103 136.293H205.827V136.902H206.091ZM207.765 135.975H208.092L209.007 138.099H208.575L208.377 137.613H207.456L207.264 138.099H206.841L207.765 135.975ZM208.245 137.289L207.918 136.425L207.585 137.289H208.245ZM209.217 135.975H209.718L210.705 137.565H210.711V135.975H211.089V138.099H210.609L209.601 136.458H209.595V138.099H209.217V135.975Z" fill="#5A6389"/>
<path d="M207.213 152.228L212.045 148.415C213.349 147.387 215.239 147.61 216.267 148.913C216.273 148.92 216.279 148.928 216.285 148.936L217.199 150.117C218.208 151.421 217.978 153.295 216.683 154.316L211.851 158.129C210.548 159.157 208.658 158.934 207.629 157.631C207.623 157.624 207.617 157.616 207.612 157.608L206.698 156.427C205.689 155.123 205.919 153.249 207.213 152.228L207.213 152.228Z" fill="#FFEBE4"/>
<path d="M210.432 151.277L212.387 149.789C213.466 148.967 215.001 149.185 215.815 150.275C216.628 151.366 216.412 152.916 215.333 153.737L213.378 155.225L210.432 151.277L210.432 151.277Z" fill="white"/>
<path d="M207.592 131.27C209.419 132.329 211.271 132.329 213.146 131.27C213.917 132.051 214.902 132.441 216.1 132.441C217.093 132.32 218.053 131.753 218.981 130.738C220.243 131.868 220.275 132.04 221.469 132.04C222.662 132.04 223.795 131.766 224.169 131.174C224.543 130.581 224.479 128.26 222.25 127.696C220.765 127.32 219.681 127.777 218.999 129.066C218.414 127.819 217.448 127.195 216.1 127.195C214.753 127.195 213.768 127.952 213.146 129.464C212.445 128.525 211.54 128.056 210.43 128.056C209.606 128.056 208.624 128.281 207.98 129.464C207.551 130.253 207.422 130.855 207.592 131.27L207.592 131.27ZM226.422 127.822C227.255 127.021 228.574 127.054 229.367 127.895C229.588 128.13 229.753 128.413 229.848 128.722L230.629 131.266H225.734C225.377 129.755 225.606 128.607 226.422 127.822L226.422 127.822Z" fill="#FFEBE4"/>
<path d="M228.066 129.147C228.581 129.147 228.998 129.569 228.998 130.089V131.266H227.133V130.089C227.133 129.569 227.551 129.147 228.066 129.147ZM215.508 127.734H216.607C216.81 127.734 217.005 127.811 217.155 127.949L218.307 129.005C218.402 129.092 218.409 129.241 218.322 129.337C218.267 129.399 218.183 129.426 218.102 129.409C217.344 129.248 216.694 129.168 216.15 129.168C215.481 129.168 214.729 129.289 213.894 129.532C213.842 129.329 213.846 129.326 213.849 129.322L214.873 128.041C215.027 127.847 215.261 127.734 215.508 127.734L215.508 127.734Z" fill="white"/>
<path d="M212.328 131.666C212.563 131.523 212.747 131.358 212.88 131.17C213.013 130.983 213.102 130.462 213.147 129.608C213.219 130.49 213.298 131.011 213.385 131.17C213.472 131.33 213.627 131.553 213.85 131.839C213.662 131.72 213.521 131.622 213.427 131.545C213.332 131.469 213.239 131.377 213.147 131.27L212.328 131.666V131.666ZM218.276 131.412C218.465 131.282 218.632 130.983 218.777 130.514C218.921 130.046 218.996 129.563 219 129.066C219.021 129.872 219.075 130.355 219.162 130.514C219.248 130.674 219.431 130.957 219.708 131.364C219.517 131.2 219.374 131.08 219.28 131.003C219.185 130.927 219.089 130.84 218.992 130.741L218.733 131.003L218.276 131.412Z" fill="#5A6389"/>
<path d="M213.859 168.812C216.589 169.468 218.908 169.767 220.817 169.709C223.68 169.621 224.858 170.661 227.588 168.002C227.565 168.002 227.736 172.73 228.101 182.185L214.689 182.465L213.86 168.812L213.859 168.812Z" fill="#4F44D0"/>
<path d="M217.839 176.867C218.524 176.867 219.08 176.306 219.08 175.614C219.08 174.922 218.524 174.361 217.839 174.361C217.153 174.361 216.598 174.922 216.598 175.614C216.598 176.306 217.153 176.867 217.839 176.867Z" fill="#EFEEFB"/>
<path d="M47.4677 145.06C48.4658 144.938 49.531 144.981 50.4592 145.375C52.4329 146.213 52.994 148.545 52.9669 150.44C52.9377 152.48 52.5045 154.708 54.0554 156.352C54.7683 157.107 55.6551 157.685 56.3551 158.455C57.1031 159.277 57.69 160.218 58.1246 161.228C58.9225 163.084 59.3141 165.267 58.5845 167.214C57.942 168.928 56.3257 170.475 56.675 172.424C57.0393 174.457 59.0891 176.011 60.3707 177.526C61.8211 179.239 63.1566 181.43 63.3759 183.677C63.5863 185.831 62.6487 188.01 61.2099 189.638C58.335 192.891 54.0136 194.486 49.6564 194.476C47.8064 194.472 45.7118 194.388 44.1153 193.394C43.6219 193.087 43.3616 192.742 43.0683 192.263C42.8053 191.833 42.4579 191.554 42.0558 191.25C41.1723 190.582 40.5343 189.682 40.1271 188.674C38.546 184.76 39.8097 179.918 42.0229 176.443C42.5474 175.619 42.9767 174.827 42.7219 173.846C42.4561 172.821 41.8027 171.897 41.2247 171.016C40.6536 170.146 40.0016 169.316 39.5552 168.375C39.0877 167.389 38.9561 166.356 39.0387 165.278C39.1939 163.251 40.0688 161.381 41.3074 159.751C42.5004 158.181 43.9013 156.679 43.9044 154.622C43.9078 152.441 42.4503 150.502 43.0712 148.285C43.3283 147.367 43.8448 146.426 44.677 145.875C45.4751 145.348 46.529 145.175 47.4677 145.06Z" fill="#9D95F8"/>
<path d="M46.815 148.546C46.8337 148.253 47.181 148.077 47.4545 148.154C47.8144 148.254 47.8075 148.591 47.798 148.89C47.7688 149.811 47.9021 150.706 48.1235 151.6C48.5836 153.457 49.4339 155.169 50.1076 156.954C50.7807 158.737 51.0967 160.578 50.7018 162.465C50.3296 164.243 49.7448 165.976 49.3638 167.758C49.028 169.327 48.6708 170.983 49.1821 172.549C49.6742 174.056 50.762 175.284 51.5453 176.646C53.1669 179.466 53.8863 182.594 53.9825 185.813C54.0271 187.308 53.987 188.816 53.6402 190.282C53.4406 191.127 53.1724 192.267 52.4489 192.85C52.1154 193.119 51.5448 193.212 51.2641 192.814C51.0005 192.441 51.2317 191.863 51.3154 191.465C51.6778 189.742 51.7507 187.982 51.6639 186.233C51.58 184.539 51.3798 182.848 50.8466 181.23C50.3518 179.728 49.6 178.38 48.7152 177.066C47.8136 175.728 46.8763 174.387 46.5037 172.801C46.1252 171.19 46.4327 169.551 46.8439 167.971C47.2787 166.299 47.8483 164.676 48.4371 163.05C49.0109 161.466 49.2143 159.967 48.8975 158.308C48.2718 155.032 46.5968 151.957 46.815 148.546Z" fill="#EFEEFB"/>
<path d="M73.8176 149.036C75.0527 149.411 76.2794 150.016 77.1598 150.965C79.032 152.982 78.4576 156.032 77.4241 158.259C76.3117 160.656 74.6259 163.066 75.5762 165.816C76.013 167.081 76.7474 168.226 77.1618 169.5C77.6044 170.862 77.7955 172.28 77.7712 173.701C77.7261 176.31 77.0319 179.095 75.1471 181.018C73.4876 182.711 70.7742 183.7 70.1536 186.186C69.5062 188.78 71.0889 191.685 71.7916 194.143C72.587 196.924 72.9955 200.209 72.0649 202.981C71.1731 205.638 68.922 207.726 66.3738 208.903C61.2822 211.255 55.3707 210.893 50.2653 208.615C48.0977 207.647 45.6851 206.459 44.3381 204.453C43.9218 203.833 43.7987 203.29 43.708 202.57C43.6266 201.925 43.3669 201.414 43.056 200.845C42.3728 199.596 42.1002 198.199 42.1553 196.796C42.3695 191.345 46.4109 186.276 50.8438 183.317C51.8941 182.616 52.8165 181.902 53.0365 180.609C53.2662 179.259 52.9882 177.826 52.7758 176.484C52.566 175.158 52.2401 173.837 52.214 172.492C52.1867 171.083 52.578 169.793 53.2451 168.56C54.4984 166.244 56.5131 164.488 58.8274 163.204C61.0565 161.968 63.4935 160.921 64.5845 158.489C65.7409 155.913 65.0564 152.861 66.9564 150.563C67.7431 149.611 68.8466 148.766 70.1136 148.548C71.3286 148.339 72.656 148.683 73.8176 149.036Z" fill="#B9B3F9"/>
<path d="M71.2973 153.296C71.4727 152.959 71.9708 152.933 72.2505 153.167C72.6186 153.475 72.4344 153.87 72.2664 154.219C71.75 155.295 71.4371 156.424 71.2279 157.599C70.793 160.04 70.8909 162.513 70.744 164.979C70.5972 167.443 70.0025 169.789 68.5527 171.817C67.1857 173.728 65.5944 175.474 64.2161 177.383C63.0013 179.067 61.7164 180.84 61.4943 182.962C61.2802 185.005 61.9093 187.029 62.1118 189.053C62.5312 193.242 61.7342 197.323 60.1607 201.186C59.43 202.98 58.593 204.745 57.4196 206.3C56.7441 207.195 55.8329 208.405 54.6818 208.716C54.151 208.86 53.4351 208.671 53.3153 208.052C53.2026 207.472 53.7757 206.909 54.0819 206.482C55.4078 204.632 56.4149 202.585 57.2294 200.469C58.0185 198.418 58.6702 196.311 58.8941 194.115C59.1018 192.078 58.929 190.087 58.5823 188.067C58.2291 186.01 57.8356 183.93 58.2306 181.856C58.6316 179.751 59.8496 177.971 61.1579 176.315C62.5416 174.564 64.0577 172.94 65.5978 171.323C67.0986 169.748 68.1215 168.079 68.6196 165.949C69.6036 161.741 69.2555 157.222 71.2973 153.296Z" fill="#EFEEFB"/>
<path d="M35.6361 164.512C37.6899 164.512 39.4954 165.6 40.7396 167.145C42.196 168.954 42.4901 171.162 43.0815 173.317C43.3758 174.39 43.8819 175.454 44.7688 176.183C45.5756 176.846 46.5997 176.979 47.5654 177.302C49.4952 177.949 51.0535 179.508 51.6689 181.41C52.4197 183.73 51.6245 186.07 51.7614 188.421C51.8871 190.581 54.0161 191.928 55.7291 192.963C57.4181 193.984 58.9397 194.939 59.4485 196.927C59.9879 199.036 60.1689 201.39 59.4217 203.474C58.1777 206.943 54.537 208.47 51.0191 208.707C47.8266 208.922 43.8123 208.584 41.4147 206.267C39.98 204.88 39.4604 202.941 39.5249 201.011C39.5649 199.811 39.8026 198.622 40.1099 197.463C40.3277 196.641 40.622 195.823 40.7058 194.973C40.9287 192.714 38.8405 192.28 37.0629 191.66C34.8042 190.871 33.2229 189.382 32.1233 187.308C31.0993 185.376 30.6696 183.208 31.2835 181.081C31.597 179.995 32.1657 179.01 32.9369 178.172C33.2764 177.803 33.7549 177.495 34.0613 177.108C34.3473 176.746 34.285 176.277 34.1865 175.853C33.7307 173.895 32.3108 172.274 31.8029 170.319C31.3445 168.555 31.6155 166.36 33.2283 165.222C33.9251 164.73 34.7844 164.517 35.6361 164.512Z" fill="#C6C2F9"/>
<path d="M38.4364 169.613C40.6131 171.932 41.2048 175.078 41.3784 178.127C41.4757 179.837 41.3745 181.64 41.8768 183.298C42.3066 184.718 43.3142 185.803 44.3529 186.828C46.4436 188.893 48.7753 190.992 49.3868 193.979C49.7456 195.733 49.5034 197.544 49.9992 199.278C50.45 200.854 51.2438 202.403 52.2092 203.734C52.9866 204.805 53.9993 205.626 54.8491 206.625C55.1083 206.93 55.4797 207.379 55.3727 207.81C55.2475 208.314 54.6052 208.473 54.1495 208.394C53.0871 208.21 52.1927 207.195 51.498 206.457C50.4822 205.379 49.619 204.219 48.9174 202.918C48.1385 201.473 47.5113 199.939 47.2434 198.318C46.9653 196.636 47.1037 194.883 46.4687 193.269C45.4002 190.553 42.8086 188.95 40.9348 186.833C38.6002 184.196 38.9484 180.913 39.1875 177.668C39.3188 175.885 39.4494 173.871 38.5484 172.243C38.2045 171.622 37.4376 171.042 37.2897 170.336C37.1543 169.689 37.8936 169.035 38.4364 169.613Z" fill="#EFEEFB"/>
<path d="M40.7578 207.717C40.7578 220.977 42.922 227.925 54.3464 227.925C65.7709 227.925 67.935 220.977 67.935 207.717H40.7578Z" fill="#9D95F8"/>
<path d="M223 33C215.3 33 209 39.3 209 47C209 54.7 215.3 61 223 61C230.7 61 237 54.7 237 47C237 39.3 230.7 33 223 33Z" fill="white"/>
<path d="M223 33C230.7 33 237 39.3 237 47C237 54.7 230.7 61 223 61C215.3 61 209 54.7 209 47C209 39.3 215.3 33 223 33ZM231.298 42.1985C230.695 41.6005 229.717 41.6005 229.114 42.1985L220.941 50.3032L216.886 46.2818C216.283 45.6838 215.305 45.6838 214.702 46.2818C214.099 46.8798 214.099 47.8493 214.702 48.4473L219.849 53.5515C220.452 54.1495 221.43 54.1495 222.033 53.5515L231.298 44.364C231.901 43.766 231.901 42.7965 231.298 42.1985H231.298Z" fill="#33CF90"/>
</svg>
