<svg width="119" height="100" viewBox="0 0 119 100" fill="none" xmlns="http://www.w3.org/2000/svg">
<path d="M60 90C84.8528 90 105 69.8528 105 45C105 20.1472 84.8528 0 60 0C35.1472 0 15 20.1472 15 45C15 69.8528 35.1472 90 60 90Z" fill="#F2FFF8"/>
<path d="M60 83C80.9868 83 98 65.9868 98 45C98 24.0132 80.9868 7 60 7C39.0132 7 22 24.0132 22 45C22 65.9868 39.0132 83 60 83Z" fill="#BCFFD9"/>
<path d="M60 76C77.1208 76 91 62.1208 91 45C91 27.8792 77.1208 14 60 14C42.8792 14 29 27.8792 29 45C29 62.1208 42.8792 76 60 76Z" fill="#35CB5D"/>
<path d="M55.814 60C54.8094 60.0002 53.8476 59.5921 53.1483 58.8689L41.0746 46.3939C40.1349 45.4417 39.7773 44.0568 40.1382 42.7668C40.499 41.4769 41.5227 40.4806 42.8192 40.1576C44.1156 39.8346 45.4852 40.2346 46.406 41.2052L55.7202 50.8286L72.5676 32.1844C73.9528 30.6953 76.2735 30.5973 77.7786 31.9644C79.2837 33.3315 79.4157 35.6572 78.075 37.1867L58.5718 58.779C57.8805 59.542 56.905 59.984 55.8771 60H55.814Z" fill="white"/>
<path opacity="0.4" d="M111.541 90.4049H113.551V87.3902H116.566V85.3805H113.551V82.3658H111.541V85.3805H108.527V87.3902H111.541V90.4049Z" fill="#9ACFFF"/>
<path opacity="0.4" d="M6.02927 11.0195V9.00976H4.01951V7H2.00976V9.00976H0V11.0195H2.00976V13.0293H4.01951V11.0195H6.02927Z" fill="#62B4FF"/>
<path opacity="0.4" d="M23.1122 48.2H21.1024V51.2146H18.0878V53.2243H21.1024V56.239H23.1122V53.2243H26.1268V51.2146H23.1122V48.2Z" fill="#62B4FF"/>
<path opacity="0.4" d="M15.5756 87.3903H12.561V91.9122H8.03903V94.9268H12.561V99.4488H15.5756V94.9268H20.0976V91.9122H15.5756V87.3903Z" fill="#62B4FF"/>
<path opacity="0.4" d="M117.221 14.4452L116.155 13.3793L114.556 14.9781L112.957 13.3793L111.892 14.4452L113.49 16.0439L111.892 17.6427L112.957 18.7085L114.556 17.1097L116.155 18.7085L117.221 17.6427L115.622 16.0439L117.221 14.4452Z" fill="#7ED321"/>
</svg>
