<svg xmlns="http://www.w3.org/2000/svg" width="20" height="24" viewBox="0 0 20 24">
    <g opacity=".8">
        <g opacity=".6">
            <path d="M19.765 6.075c0-.613-.03-1.226-.03-1.781 0-.438-.353-.818-.823-.818-3.47 0-6.147-.993-8.353-3.125-.324-.293-.824-.293-1.147 0-2.206 2.132-4.853 3.125-8.353 3.125-.441 0-.824.35-.824.818 0 .584 0 1.168-.03 1.781-.117 5.813-.264 13.758 9.5 17.117.09.03.177.058.266.058.088 0 .176-.029.264-.058 9.765-3.36 9.618-11.304 9.53-17.117zM10 21.585c-8.353-3.008-8.235-9.639-8.118-15.451 0-.35 0-.701.03-1.022 3.264-.146 5.882-1.11 8.117-3.038 2.236 1.928 4.853 2.92 8.118 3.038 0 .32 0 .671.03 1.022.058 5.812.176 12.414-8.177 15.451z"/>
            <path d="M12.794 8.88l-3.912 3.884L7.206 11.1c-.324-.32-.824-.32-1.147 0-.324.322-.324.818 0 1.14l2.265 2.249c.147.146.352.233.588.233.206 0 .412-.087.588-.233l4.5-4.47c.324-.32.324-.817 0-1.138-.353-.322-.882-.322-1.206 0z"/>
        </g>
    </g>
</svg>
