<svg xmlns="http://www.w3.org/2000/svg" width="30" height="30" viewBox="0 0 30 30">
    <g fill="none">
        <path fill="#A692C9" d="M27.49 6.748c-.485.327-1.07.518-1.699.518-1.683 0-3.047-1.364-3.047-3.047s1.364-3.047 3.047-3.047c.63 0 1.214.19 1.7.517-.814.548-1.348 1.476-1.348 2.53 0 1.053.534 1.982 1.347 2.529zm-1.357 8.076c0-1.053.535-1.982 1.347-2.53-.485-.326-1.07-.517-1.699-.517-1.683 0-3.047 1.364-3.047 3.047s1.364 3.047 3.047 3.047c.63 0 1.214-.19 1.7-.517-.813-.548-1.348-1.476-1.348-2.53zm0 10.957c0-1.053.535-1.982 1.347-2.53-.485-.326-1.07-.517-1.699-.517-1.683 0-3.047 1.364-3.047 3.047s1.364 3.047 3.047 3.047c.63 0 1.214-.19 1.7-.517-.813-.548-1.348-1.476-1.348-2.53zM6.798 27.456c0-4.956-2.11-7.534-2.11-7.534v-4.943c0-1.734 1.097-3.212 2.636-3.777-.432-.158-.898-.245-1.385-.245h-.745c-2.221 0-4.022 1.8-4.022 4.022v4.943s2.11 2.578 2.11 7.534c0 .779.716 1.372 1.495 1.372h1.579c.357 0 .7-.125.968-.335-.316-.248-.526-.615-.526-1.037z" opacity=".3"/>
        <path fill="#4D2493" d="M25.781 19.102c-2.326 0-4.218-1.893-4.218-4.22 0-2.325 1.892-4.218 4.218-4.218S30 12.557 30 14.883c0 2.326-1.893 4.219-4.219 4.219zm0-6.094c-1.034 0-1.875.84-1.875 1.875 0 1.034.841 1.875 1.875 1.875s1.875-.841 1.875-1.875-.84-1.875-1.875-1.875zm0-4.57c-2.326 0-4.218-1.893-4.218-4.22C21.563 1.894 23.454 0 25.78 0S30 1.893 30 4.219c0 2.326-1.893 4.218-4.219 4.218zm0-6.094c-1.034 0-1.875.84-1.875 1.875 0 1.034.841 1.875 1.875 1.875s1.875-.841 1.875-1.875-.84-1.875-1.875-1.875zM6.356 30h-1.58c-1.47 0-2.665-1.141-2.665-2.544 0-4.414-1.827-6.77-1.846-6.792-.171-.21-.265-.471-.265-.742v-4.943c0-2.864 2.33-5.194 5.194-5.194h.745c2.864 0 5.194 2.33 5.194 5.194v4.943c0 .275-.087.528-.263.739-.074.096-1.848 2.443-1.848 6.795C9.022 28.86 7.826 30 6.356 30zM2.344 19.547c.622.933 2.11 3.615 2.11 7.91 0 .076.148.2.323.2h1.579c.175 0 .322-.124.322-.2 0-4.295 1.489-6.977 2.111-7.91v-4.568c0-1.571-1.279-2.85-2.85-2.85h-.745c-1.572 0-2.85 1.279-2.85 2.85v4.568zM5.508 7.969c-2.197 0-3.985-1.788-3.985-3.985S3.311 0 5.508 0s3.984 1.787 3.984 3.984S7.705 7.97 5.508 7.97zm0-5.625c-.905 0-1.64.736-1.64 1.64 0 .905.735 1.641 1.64 1.641.904 0 1.64-.736 1.64-1.64 0-.905-.736-1.641-1.64-1.641zM25.78 30c-2.326 0-4.218-1.893-4.218-4.219 0-2.326 1.892-4.218 4.218-4.218S30 23.454 30 25.78 28.107 30 25.781 30zm0-6.094c-1.034 0-1.875.841-1.875 1.875s.841 1.875 1.875 1.875 1.875-.84 1.875-1.875c0-1.034-.84-1.875-1.875-1.875z"/>
        <path fill="#A692C9" d="M18.34 24.668c-1.311 0-2.378-1.067-2.378-2.378v-6.235h2.26c.648 0 1.173-.525 1.173-1.172 0-.647-.525-1.172-1.172-1.172h-2.26V7.65c0-1.311 1.066-2.378 2.377-2.378.647 0 1.172-.524 1.172-1.171 0-.648-.525-1.172-1.172-1.172-2.603 0-4.721 2.118-4.721 4.72v14.64c0 2.604 2.118 4.722 4.72 4.722.648 0 1.173-.525 1.173-1.172 0-.647-.525-1.172-1.172-1.172z" opacity=".3"/>
    </g>
</svg>
