<svg xmlns="http://www.w3.org/2000/svg" width="30" height="30" viewBox="0 0 30 30">
    <g fill="none">
        <path fill="#EAE4FE" d="M25 3.333h1.675C28.51 3.333 30 4.824 30 6.657v20.02C30 28.512 28.512 30 26.675 30H3.325C1.49 30 0 28.51 0 26.677V6.657C0 4.82 1.488 3.333 3.325 3.333H5V.817C5 .366 5.387 0 5.833 0c.46 0 .834.358.834.817v2.516h16.666V.817c0-.451.387-.817.834-.817.46 0 .833.358.833.817v2.516z"/>
        <path fill="#AD95D6" d="M25 5v.85c0 .45-.387.817-.833.817-.46 0-.834-.359-.834-.818V5H6.667v.85c0 .45-.387.817-.834.817-.46 0-.833-.359-.833-.818V5H3.325c-.917 0-1.658.742-1.658 1.657v20.02c0 .913.743 1.656 1.658 1.656h23.35c.917 0 1.658-.741 1.658-1.656V6.657c0-.913-.743-1.657-1.658-1.657H25z"/>
        <path fill="#EAE4FE" d="M1.667 9.333L28.333 9.333 28.333 11 1.667 11z"/>
        <path fill="#FFF" d="M21.667 14.174c0-.464.356-.84.84-.84h1.652c.464 0 .841.356.841.84v1.652c0 .464-.357.84-.841.84h-1.651c-.465 0-.841-.356-.841-.84v-1.652zM13.333 14.174c0-.464.357-.84.841-.84h1.652c.464 0 .84.356.84.84v1.652c0 .464-.356.84-.84.84h-1.652c-.464 0-.84-.356-.84-.84v-1.652zM5 14.174c0-.464.357-.84.841-.84h1.651c.465 0 .841.356.841.84v1.652c0 .464-.356.84-.84.84H5.84c-.464 0-.841-.356-.841-.84v-1.652zM5 22.508c0-.465.357-.841.841-.841h1.651c.465 0 .841.356.841.84v1.652c0 .464-.356.841-.84.841H5.84C5.377 25 5 24.643 5 24.159v-1.651zM13.333 22.508c0-.465.357-.841.841-.841h1.652c.464 0 .84.356.84.84v1.652c0 .464-.356.841-.84.841h-1.652c-.464 0-.84-.357-.84-.841v-1.651z"/>
        <path fill="#5721AE" d="M21.667 22.508c0-.465.356-.841.84-.841h1.652c.464 0 .841.356.841.84v1.652c0 .464-.357.841-.841.841h-1.651c-.465 0-.841-.357-.841-.841v-1.651z"/>
    </g>
</svg>
