<svg xmlns="http://www.w3.org/2000/svg" xmlns:xlink="http://www.w3.org/1999/xlink" width="100" height="60" viewBox="0 0 100 60">
  <defs>
    <rect id="ic_get_money-a" width="100" height="60" x="0" y="0" rx="3"/>
  </defs>
  <g fill="none" fill-rule="evenodd">
    <mask id="ic_get_money-b" fill="#fff">
      <use xlink:href="#ic_get_money-a"/>
    </mask>
    <use fill="#FFF" xlink:href="#ic_get_money-a"/>
    <path fill="#4F2DA7" fill-rule="nonzero" d="M74.9745113,23.403866 C83.2245113,23.403866 97.4745113,23.403866 100.474511,15.153866 C103.474511,6.90386604 78.5309629,7.38773701 72.7245113,1.5812854 C66.9180597,-4.22516622 57.5558925,-3.59613396 48.7245113,-3.59613396 C39.8931301,-3.59613396 41.5666067,-13.3297199 34.4745113,-11.846134 C27.382416,-10.362548 33.7245113,-2.92821923 31.4745113,1.5812854 C31.4745113,4.38381957 31.4745113,11.6580131 31.4745113,23.403866 C51.2245113,23.403866 65.7245113,23.403866 74.9745113,23.403866 Z" mask="url(#ic_get_money-b)" opacity=".05" transform="rotate(180 65.862 5.702)"/>
    <path fill="#4F2DA7" fill-rule="nonzero" d="M17.2856144,59.675161 C46.7333474,49.2048559 59.8212288,72.7630423 59.8212288,59.675161 C59.8212288,46.5872797 44.1157711,40.043339 36.2630423,32.1906102 C28.4103136,24.3378814 31.8468778,11.25 19.9031907,11.25 C7.95950355,11.25 13.9767953,18.5865724 0.925762739,24.3378814 C-12.12527,30.0891903 -12.1621186,70.1454661 17.2856144,59.675161 Z" mask="url(#ic_get_money-b)" opacity=".05"/>
    <path fill="#4F2DA7" fill-rule="nonzero" d="M66.0356144,45.425161 C95.4833474,34.9548559 108.571229,58.5130423 108.571229,45.425161 C108.571229,32.3372797 92.8657711,25.793339 85.0130423,17.9406102 C77.1603136,10.0878814 80.5968778,-3 68.6531907,-3 C56.7095035,-3 62.7267953,4.33657244 49.6757627,10.0878814 C36.62473,15.8391903 23.5,0.926364402 23.5,17.9406102 C23.5,34.9548559 36.5878814,55.8954661 66.0356144,45.425161 Z" mask="url(#ic_get_money-b)" opacity=".05" transform="matrix(-1 0 0 1 132.071 0)"/>
    <path fill="#4F2DA7" fill-rule="nonzero" d="M19.2770509 25.6172581C20.3358744 25.1112028 21.4206495 24.5272927 22.3756668 23.8421716 22.7260128 23.5904415 22.3808571 23.0999571 22.012345 23.2945938 20.9924488 23.8291958 19.995909 24.5195073 19.0876045 25.2227945 18.9007533 25.3629329 19.0357014 25.731445 19.2770509 25.6172581L19.2770509 25.6172581zM88.8122953 35.9158402C88.5917071 34.763591 88.3036448 33.5646291 87.8832296 32.4668782 87.7301154 32.0646291 87.1669666 32.2722416 87.2603922 32.679681 87.5173126 33.8033834 87.9325375 34.9400616 88.3814995 35.9988852 88.4723299 36.2142831 88.8641984 36.1779509 88.8122953 35.9158402L88.8122953 35.9158402zM23.1967024 4.74397584C23.1759412 4.72580975 23.1577751 4.70764366 23.1370138 4.69207273 22.8749031 4.45850871 22.4441072 4.41439107 22.189782 4.69207273 21.9328616 4.97234954 21.940647 5.35902774 22.189782 5.63930456 22.2079481 5.66006581 22.2261142 5.6782319 22.2416851 5.69899314 22.4752491 5.96369902 22.9605432 5.95591356 23.1967024 5.69899314 23.4302664 5.44207273 23.4769792 4.99311079 23.1967024 4.74397584L23.1967024 4.74397584zM83.5064484 8.82141525C83.5722606 8.39206882 83.5597249 7.98465979 83.7979025 7.60545601 84.2773916 6.85331628 84.9574513 7.04135121 85.6155735 7.37354626 86.2862315 7.71200914 86.9192824 7.91257974 87.6463508 7.59918818 88.7839622 7.10716344 89.3198617 5.38977771 88.232393 4.58122749 87.8813945 4.31797858 87.5335299 4.75045893 87.5805386 5.08265398 87.6463508 5.54333957 87.8751267 6.05416781 87.4802533 6.44904117 86.9506216 6.9786729 86.3301063 6.53365689 85.8004746 6.29547931 85.2301019 6.03849823 84.6221223 5.98208775 84.0360801 6.22026533 83.0238254 6.63080827 82.2873552 8.00346329 83.0927715 8.93110229 83.2055925 9.05959283 83.4782431 9.00004844 83.5064484 8.82141525L83.5064484 8.82141525zM71.7650465 52.2428221C70.7245991 53.2418174 70.3308043 54.7962706 71.3215091 55.9983811 72.2541811 57.1300231 74.0656373 57.3663 75.2304409 56.4667897 78.0491828 54.2905551 75.1102299 50.2821384 72.0717919 51.1111801 71.5080435 51.2645528 71.6489806 52.0687233 72.2044386 52.0977398 73.0915132 52.1474823 74.0449112 52.1806439 74.7537419 52.8065704 75.5164603 53.473949 75.5330411 54.605591 74.9071146 55.3765998 73.2490312 57.4118973 70.3722564 54.4149114 72.113244 52.5910196 72.3370853 52.3630331 71.9971782 52.023126 71.7650465 52.2428221L71.7650465 52.2428221zM10.757268 45.6141129C11.0819614 46.8211253 11.4384183 48.0140205 11.8125215 49.2069157 11.9007534 49.4927871 12.1725076 49.5845482 12.4195569 49.415143 13.3901078 48.7551684 14.3571294 48.1093109 15.2782704 47.3787508 15.4547342 47.2375798 15.4159121 46.9552377 15.2429776 46.8352424 14.1665485 46.0976237 12.7160161 45.0070775 11.3501864 45 11.0043173 44.9964897 10.7607973 45.487059 11.1137249 45.6882277 11.6642919 46.0058626 12.3242665 46.1187994 12.9136556 46.3623194 13.5912765 46.6446615 14.2653682 46.9764134 14.8653451 47.4034558 14.8794622 47.2058163 14.8935793 47.0081769 14.9041671 46.8105374 13.8771479 47.4422778 12.9101263 48.1516622 11.9360462 48.8575174 12.1266271 48.8963394 12.3207372 48.9351615 12.5113181 48.9739835 12.0948636 47.7952054 11.6678212 46.6270151 11.2054861 45.4658834 11.1066663 45.2223633 10.6902118 45.3564758 10.757268 45.6141129L10.757268 45.6141129z" mask="url(#ic_get_money-b)" opacity=".05"/>
    <g mask="url(#ic_get_money-b)">
      <g transform="translate(36 9)">
        <path fill="#BA8EE0" fill-rule="nonzero" d="M27.8794968,2.76611466 L27.8391466,2.29707966 L27.3838479,2.17831851 C26.6867342,1.99602729 25.9681577,1.90388009 25.2470057,1.90388009 C23.271278,1.90388009 21.350209,2.60614482 19.8372206,3.88161097 C17.8334481,5.57202572 16.7394146,8.11008031 16.8670471,10.7225395 C16.7073634,10.9245765 16.5556926,11.1280444 16.4086004,11.3317985 C16.4008738,8.96687763 15.6576866,6.6297154 14.226257,4.68060166 C12.0670934,1.73904533 8.5697921,0.00484634863 4.90307732,0.0738136679 L4.43232529,0.08211264 L4.28322996,0.528826272 C3.11965685,4.0106743 3.71947221,7.85223983 5.88750711,10.8040983 C7.7739493,13.3736318 10.6825959,15.0176868 13.8316265,15.3482148 C13.8837097,15.9116864 13.8333436,16.4989102 13.6627854,17.1442268 C13.548603,17.5783489 13.229808,19.8176405 13.229808,22.1070121 C13.229808,24.3963837 13.8092199,24.843561 13.8281925,24.9010493 C13.8522309,24.9743092 13.8880023,25.0398425 13.9320727,25.0979353 C14.059419,25.2630562 14.2545879,25.3600683 14.4609176,25.3600683 C14.5295987,25.3600683 14.5994245,25.34948 14.6681057,25.3271586 C15.0178072,25.2132624 15.2089697,24.8369469 15.0950735,24.4872454 C15.0936426,24.4829528 15.0759,24.4271494 15.0464243,24.3241277 C15.036213,24.2880875 14.412048,24.986401 14.3744938,22.3931835 C14.3404816,20.0445517 14.8887034,17.7211033 14.9511293,17.4839123 C14.9628623,17.4398419 14.9720198,17.39663 14.9828943,17.353132 C15.1634685,16.6820599 15.3815311,16.0321645 15.6376546,15.403732 L15.8299618,14.9561599 C16.3470736,13.7885804 16.9918179,12.7108587 17.7661978,11.7075416 C18.3402577,11.8288783 18.9263369,11.893553 19.5138468,11.893553 C21.490433,11.893553 23.4123605,11.1910021 24.9247766,9.91582216 C27.0086771,8.15987414 28.1130127,5.48674663 27.8794968,2.76611466 Z"/>
        <path fill="#EDDEFF" fill-rule="nonzero" d="M6.9620809 10.015696C5.14431986 7.54059913 4.5765557 4.35665558 5.40673907 1.40937582 8.46419484 1.50066451 11.3419349 3.00363697 13.1522555 5.46957635 14.8878854 7.83278018 15.4808326 10.8415868 14.8086159 13.6741118 14.2548741 12.1674191 13.1416672 10.7294076 11.7648963 8.9511382 11.1997077 8.221401 10.5598284 7.39493786 9.89819997 6.48405413 9.68214053 6.18614966 9.26518873 6.12033022 8.96757042 6.33638967 8.66966594 6.55273528 8.60384651 6.96911474 8.81990595 7.26701922 9.49355354 8.19450089 10.1400148 9.02983535 10.7106407 9.767013 12.014724 11.451132 12.9925719 12.7165821 13.488507 13.9617141 10.8975107 13.5616464 8.52944193 12.1502488 6.9620809 10.015696zM24.0665484 8.8970518C22.7942302 9.97019473 21.1776477 10.5608526 19.5149915 10.5608526 19.2680256 10.5608526 19.0210596 10.546544 18.7755245 10.5207886 19.9336604 9.28166622 21.3150099 8.17361037 22.9195733 7.20177213 23.234648 7.01118194 23.3350942 6.60138443 23.1442179 6.28659583 22.9536277 5.97180724 22.5438301 5.87136106 22.2290416 6.06166507 20.6714104 7.00517234 19.3733367 8.04111299 18.2881745 9.12684747 18.5654747 7.49481169 19.4068187 5.98811901 20.6968796 4.90009516 21.9691979 3.8272384 23.5854942 3.23629436 25.2470057 3.23629436 25.6934331 3.23629436 26.1384297 3.27807539 26.576272 3.36163745 26.6134743 5.48245406 25.6960087 7.52342884 24.0665484 8.8970518z"/>
        <path fill="#F19920" fill-rule="nonzero" d="M5.01422044 37.1088018L5.01422044 36.1018286C5.01422044 35.900434 4.87823315 35.7661901 4.674223 35.7661901 4.47021286 35.7661901 4.33422557 35.900434 4.33422557 36.1018286L4.33422557 37.1088018M7.05426348 37.1088018L7.05426348 36.1018286C7.05426348 35.900434 6.91827619 35.7661901 6.71426604 35.7661901 6.51025589 35.7661901 6.37426861 35.900434 6.37426861 36.1018286L6.37426861 37.1088018M9.09430652 37.1088018L9.09430652 36.1018286C9.09430652 35.900434 8.95831923 35.7661901 8.75430909 35.7661901 8.55029893 35.7661901 8.41431165 35.900434 8.41431165 36.1018286L8.41431165 37.1088018M11.1343495 37.1088018L11.1343495 36.1018286C11.1343495 35.900434 10.9983623 35.7661901 10.7943521 35.7661901 10.590342 35.7661901 10.4543547 35.900434 10.4543547 36.1018286L10.4543547 37.1088018M5.69494868 34.4223032L5.69494868 33.4153301C5.69494868 33.2139354 5.5589614 33.0796916 5.35495125 33.0796916 5.1509411 33.0796916 5.01495382 33.2139354 5.01495382 33.4153301L5.01495382 34.4223032M7.73499172 34.4223032L7.73499172 33.4153301C7.73499172 33.2139354 7.59900444 33.0796916 7.39499429 33.0796916 7.19098414 33.0796916 7.05499685 33.2139354 7.05499685 33.4153301L7.05499685 34.4223032M9.77503476 34.4223032L9.77503476 33.4153301C9.77503476 33.2139354 9.63904748 33.0796916 9.43503732 33.0796916 9.23102718 33.0796916 9.09503989 33.2139354 9.09503989 33.4153301L9.09503989 34.4223032M4.33499487 39.793553L4.33499487 38.7865798C4.33499487 38.5851852 4.19900758 38.4509413 3.99499743 38.4509413 3.79098729 38.4509413 3.655 38.5851852 3.655 38.7865798L3.655 39.793553M6.37503791 39.793553L6.37503791 38.7865798C6.37503791 38.5851852 6.23905062 38.4509413 6.03504048 38.4509413 5.83103032 38.4509413 5.69504304 38.5851852 5.69504304 38.7865798L5.69504304 39.793553M8.41513938 39.793553L8.41513938 38.7865798C8.41513938 38.5851852 8.2791521 38.4509413 8.07514195 38.4509413 7.8711318 38.4509413 7.73514452 38.5851852 7.73514452 38.7865798L7.73514452 39.793553"/>
        <path fill="#EDDEFF" fill-rule="nonzero" d="M24.7353779,38.06384 C23.8513729,37.5460566 23.3753297,36.6831338 23.3753297,35.7626631 C23.3753297,32.2533249 21.743307,28.9165813 18.8192005,26.4428099 L15.8951525,23.9690385 L15.8951525,22.2431434 L18.2751929,19.711824 C18.4792615,19.4816816 18.6152488,19.1940407 18.6152488,18.9063503 C18.6152488,18.2159725 17.9352539,17.6406906 17.1192133,17.6406906 L14.5351627,17.6406906 L13.8551679,18.7913038 L12.4951197,17.6406906 L9.23101576,17.6406906 C8.41497516,17.6406906 7.7349803,18.2159725 7.7349803,18.9063503 C7.7349803,19.1939913 7.87096758,19.4816322 8.07497773,19.7117746 L10.4550182,22.243094 L10.4550182,23.968989 L7.53097015,26.4427604 C4.6069221,28.9165318 2.97484091,32.2532755 2.97484091,35.7626136 L2.97484091,35.7626136 C2.97484091,36.6830844 2.4988562,37.5460566 1.61479274,38.0637906 C0.730729288,38.5815245 0.254744569,39.4444967 0.254744569,40.3649675 L0.254744569,40.3649675 C0.254744569,41.1703918 1.0027623,41.8032216 1.95479017,41.8032216 L24.395322,41.8032216 C25.3473499,41.8032216 26.0953677,41.1703918 26.0953677,40.3649675 L26.0953677,40.3649675 C26.0953677,39.4445956 25.6194414,38.5816234 24.7353779,38.06384 Z"/>
        <path fill="#BA8EE0" d="M24.7353779,38.112556 C23.8513729,37.5359019 23.3753297,36.6708712 23.3753297,35.7482048 C23.4433526,32.1151748 21.471274,28.7127867 18.4792031,26.1177936 L15.8951525,23.9840841 L15.8951525,22.2540722 L18.2751929,19.7167148 C18.6832132,19.3130669 18.7511776,18.7363632 18.4111802,18.2173447 C18.1391472,17.8136968 17.5951396,17.6406906 17.051132,17.6406906 C16.5751473,17.6406906 16.3031143,18.1020238 16.4391016,18.4480361 C16.5071245,18.563357 16.5750889,18.7363632 16.5750889,18.9093693 C16.5750889,19.1976964 16.4391016,19.4860235 16.2350914,19.7167148 L13.855051,22.2540722 L13.855051,23.9840841 L10.4549598,23.9840841 L9.7749649,24.5607383 L14.5351043,24.5607383 L17.0511905,26.6944477 C19.8392512,29.0587989 20.9272664,32.2881809 20.6552918,35.5751986 C20.587269,36.5555502 21.0633121,37.4782167 21.9473171,38.0548708 C22.01534,38.112556 22.0833044,38.1701917 22.1513273,38.1701917 C23.171378,39.0928581 22.2873146,40.6498639 20.7233147,40.6498639 L0.32282587,40.6498639 C0.458813156,41.2842032 1.13886646,41.8032216 1.95484861,41.8032216 L21.6753426,41.8032216 L23.3753882,41.8032216 L24.3954389,41.8032216 C25.3474084,41.8032216 26.0954261,41.1689319 26.0954261,40.3615864 L26.0954261,40.2462654 C26.0954261,39.3812347 25.5514185,38.6315744 24.7353779,38.112556 Z"/>
        <path fill="#4F2DA7" d="M16.2352083,25.0249682 L10.1150208,25.0249682 C9.57101319,25.0249682 9.09497003,24.5550859 9.09497003,24.017995 L9.09497003,24.017995 C9.09497003,23.4809619 9.57095475,23.0110219 10.1150208,23.0110219 L16.2351499,23.0110219 C16.7791575,23.0110219 17.2552006,23.4809042 17.2552006,24.017995 L17.2552006,24.017995 C17.2552006,24.5550859 16.7792159,25.0249682 16.2352083,25.0249682 Z"/>
        <ellipse cx="12.454" cy="32.382" fill="#4F2DA7" rx="4.48" ry="4.423"/>
        <path fill="#FFF" fill-rule="nonzero" d="M14.566415,30.2961905 C14.566415,30.1765155 14.455325,30.0795229 14.3182558,30.0795229 L11.7793739,30.0795229 L10.5505981,30.0795229 C10.4135289,30.0795229 10.3024389,30.1765155 10.3024389,30.2961905 C10.3024389,30.4158655 10.4135289,30.5128581 10.5505981,30.5128581 L11.7793739,30.5128581 C12.1499648,30.5128581 12.5013621,30.6713809 12.7193738,30.9368833 C12.8220667,31.061975 12.8909163,31.2005661 12.9281765,31.3425426 L10.5505981,31.3425426 C10.4135289,31.3425426 10.3024389,31.4395352 10.3024389,31.5592102 C10.3024389,31.6788852 10.4135289,31.7758778 10.5505981,31.7758778 L12.9371311,31.7758778 C12.9282614,31.8132868 12.9173074,31.8503467 12.9032637,31.8866661 C12.8000256,32.1540305 12.5653406,32.3490313 12.2424428,32.435783 C11.7509713,32.5677302 11.202113,32.5510569 10.6706064,32.5347222 L10.5589347,32.5313368 C10.4547273,32.5266818 10.3589533,32.5826261 10.3201784,32.6675158 C10.2814036,32.7523208 10.3075766,32.8491442 10.385708,32.909828 L13.4465966,35.2864007 C13.4939019,35.3231326 13.5527428,35.34116 13.6113898,35.34116 C13.6798275,35.34116 13.7478774,35.3166156 13.7969276,35.2684579 C13.8880485,35.1790825 13.8788395,35.0421418 13.7763769,34.9625842 L11.2217912,32.9791447 C11.6116726,32.9786369 12.004559,32.9529922 12.3883333,32.8499905 C12.8679785,32.7211748 13.2179218,32.4282504 13.3736029,32.0251302 C13.4049863,31.9438798 13.4243738,31.8602174 13.4380056,31.7758778 L14.3182558,31.7758778 C14.455325,31.7758778 14.566415,31.6788852 14.566415,31.5592102 C14.566415,31.4395352 14.455325,31.3425426 14.3182558,31.3425426 L13.4351944,31.3425426 C13.3925541,31.1110743 13.2872925,30.88479 13.1228264,30.6844148 C13.0719707,30.6224931 13.0143779,30.5663056 12.9540103,30.5128581 L14.3182558,30.5128581 C14.455325,30.5128581 14.566415,30.4158655 14.566415,30.2961905 L14.566415,30.2961905 Z"/>
      </g>
    </g>
  </g>
</svg>
