<svg xmlns="http://www.w3.org/2000/svg" width="40" height="40" viewBox="0 0 40 40">
  <g fill="none" fill-rule="evenodd">
    <path fill="#CAB7F4" d="M7.06811739,7 L32.9318826,7 C34.0068282,7 34.8895123,7.84969835 34.9304329,8.92386475 L36,37 L36,37 L4,37 L5.06956706,8.92386475 C5.11048768,7.84969835 5.99317183,7 7.06811739,7 Z"/>
    <polygon fill="#A998D2" points="5.143 36 34.857 36 36 37 4 37"/>
    <path fill="#4F2DA7" d="M20.560584,18.1911883 C20.4282174,18.0601507 20.2466618,18 20.0563847,18 C20.0534942,18 20.0500555,18 20.0471649,18 C19.8607253,18 19.6806648,18.0533448 19.5463545,18.179254 L15.2162806,22.2326468 C14.933008,22.4984603 14.9271771,22.9309704 15.2036221,23.2033502 C15.4805654,23.4762572 15.9721061,23.4792768 16.2563256,23.2134153 L19.3526487,20.3419006 L19.3526487,29.3105432 C19.3526487,29.6915777 19.7045416,30 20.1002013,30 C20.4963444,30 20.8477539,29.6915777 20.8477539,29.3105432 L20.8477539,20.2986208 L23.8252958,23.3044802 C23.9654868,23.443239 24.1172898,23.5129755 24.304178,23.5129755 C24.4847867,23.5129755 24.6483113,23.4476964 24.787994,23.3171382 C25.0717152,23.0515116 25.0683263,22.6232239 24.7918813,22.3505566 L20.560584,18.1911883 Z"/>
    <path stroke="#5F40AF" d="M15,1 L21,1 C23.209139,1 25,2.790861 25,5 L25,10 C25,12.209139 23.209139,14 21,14 L15,14 L15,14" transform="rotate(-90 20 7.5)"/>
    <circle cx="13" cy="12" r="1" fill="#5F40AF" stroke="#5F40AF"/>
    <circle cx="27" cy="12" r="1" fill="#5F40AF" stroke="#5F40AF"/>
  </g>
</svg>
