<svg xmlns="http://www.w3.org/2000/svg" xmlns:xlink="http://www.w3.org/1999/xlink" width="80" height="60" viewBox="0 0 80 60">
    <defs>
        <rect id="prefix__a" width="80" height="60" x="0" y="0" rx="3"/>
    </defs>
    <g fill="none" fill-rule="evenodd">
        <g transform="translate(-49 -49) translate(49 49)">
            <mask id="prefix__b" fill="#fff">
                <use xlink:href="#prefix__a"/>
            </mask>
            <use fill="#FFF" xlink:href="#prefix__a"/>
            <path fill="#4F2DA7" fill-rule="nonzero" d="M67.975 23.404c8.25 0 22.5 0 25.5-8.25S71.53 7.388 65.725 1.58c-5.807-5.806-15.17-5.177-24-5.177-8.832 0-7.158-9.734-14.25-8.25-7.093 1.483-.75 8.918-3 13.427v21.823h43.5z" mask="url(#prefix__b)" opacity=".05" transform="rotate(180 58.862 5.702)"/>
            <path fill="#4F2DA7" fill-rule="nonzero" d="M10.286 59.675c29.447-10.47 42.535 13.088 42.535 0S37.116 40.043 29.263 32.191c-7.853-7.853-4.416-20.941-16.36-20.941-11.943 0-5.926 7.337-18.977 13.088-13.051 5.751-13.088 45.807 16.36 35.337z" mask="url(#prefix__b)" opacity=".05"/>
            <path fill="#4F2DA7" fill-rule="nonzero" d="M59.036 45.425c29.447-10.47 42.535 13.088 42.535 0S85.866 25.793 78.013 17.941C70.16 10.088 73.597-3 61.653-3 49.71-3 55.727 4.337 42.676 10.088 29.625 15.839 16.5.926 16.5 17.94c0 17.014 13.088 37.954 42.536 27.484z" mask="url(#prefix__b)" opacity=".05" transform="matrix(-1 0 0 1 118.071 0)"/>
            <path fill="#3792FC" fill-rule="nonzero" d="M12.277 25.617c1.059-.506 2.144-1.09 3.099-1.775.35-.252.005-.742-.364-.547-1.02.534-2.016 1.225-2.924 1.928-.187.14-.052.508.19.394zM16.197 4.744c-.021-.018-.04-.036-.06-.052-.262-.233-.693-.278-.947 0-.257.28-.25.667 0 .947.018.021.036.04.052.06.233.265.719.257.955 0 .233-.257.28-.706 0-.955zM76.506 8.821c.066-.429.054-.836.292-1.216.48-.752 1.16-.564 1.818-.231.67.338 1.303.539 2.03.225 1.138-.492 1.674-2.21.586-3.018-.35-.263-.698.17-.651.502.065.46.294.971-.1 1.366-.53.53-1.15.085-1.68-.154-.57-.257-1.179-.313-1.765-.075-1.012.41-1.749 1.783-.943 2.711.113.129.385.069.413-.11zM64.765 52.243c-1.04.999-1.434 2.553-.443 3.755.932 1.132 2.744 1.368 3.908.469 2.82-2.176-.12-6.185-3.158-5.356-.564.154-.423.958.132.987.888.05 1.84.083 2.55.709.762.667.779 1.799.153 2.57-1.658 2.035-4.535-.962-2.794-2.786.224-.228-.116-.568-.348-.348zM3.757 45.614c.325 1.207.681 2.4 1.056 3.593.088.286.36.378.607.208.97-.66 1.937-1.306 2.858-2.036.177-.141.138-.424-.035-.544C7.167 46.098 5.716 45.007 4.35 45c-.346-.004-.59.487-.236.688.55.318 1.21.43 1.8.674.677.283 1.351.614 1.951 1.041.014-.197.029-.395.04-.592-1.028.631-1.995 1.34-2.969 2.047l.575.116c-.416-1.179-.843-2.347-1.306-3.508-.098-.244-.515-.11-.448.148z" mask="url(#prefix__b)" opacity=".05"/>
        </g>
        <g fill-rule="nonzero">
            <path fill="#E8E0FF" d="M18.683 11.134c.414-.399.111-1.14-.378-1.443-.49-.302-1.095-.35-1.622-.583-.526-.234-1.001-.815-.779-1.344.326-.701.853-.62 1.015-1.13.162-.509-.396-1.037.003-1.838.399-.801 1.46-1.587 1.098-2.426-.306-.594-1.127-.686-1.787-.563-.66.123-1.335.38-1.98.2-.55-.154-.962-.596-1.46-.87C11.39.361 8.2.466 8.2 1.695c0 1.77.81 2.02.99 2.514.449 1.232.896 2.61.378 3.814-.22.512-.596.939-.966 1.356l-3.03 3.419c-1.016-.353-2.26.39-2.425 1.448-.183 1.164.102 1.828-.253 2.58-.355.751-2.203 1.8-2.203 2.527 0 2.44 4.784 3.126 5.093 4.28l.814 4.747c.575 3.354.377 2.46 4.738 14.157.334.895.81 1.097 1.486.394 1.608-1.675 3.29-3.486 3.711-5.764.205-1.104.094-2.246.28-3.354.185-1.107.776-2.263 1.843-2.63.455-.156.97-.158 1.38-.41.394-.244.62-.675.86-1.07.982-1.62 2.474-2.93 4.212-3.695.306-.135.636-.267.823-.542.195-.285.189-.658.302-.983.306-.877 1.617-1.19 2.288-.546.457-.434.827-.96 1.082-1.536-1.173-1.24-1.414-3.06-1.066-3.348.516-.428 2.926-.343 2.668.257-.5 1.162 1.495 1.148 1.463 2.912-.013.673 1.037 2.338 1.981 1.64.944-.698.846-3.24 1.648-4.723 1.351-2.497 1.845-3.615 2.871-4.309.374-.253-.012-3.993-.847-4.168-.834-.174-6.084 1.967-6.342 2.224-.258.257-.256 1.206-.472 1.331-.216.125-1.684.42-2.112.273-.427-.148-1.051-1.489-1.987-1.247-.936.242-.592 1.784-.936 1.956-.344.17-2.525.205-3.726-.52-.3-.182-.596-.392-.94-.461-.338-.069-.687.005-1.031.013-.907.02-3.61-1.491-2.66-2.684.146-.184.4-.25.569-.414z" transform="translate(-49 -49) translate(69 57)"/>
            <path fill="#51B842" d="M10.207 1.136c.498.275.91.717 1.459.87.646.182 1.321-.076 1.981-.2l.117-.018c-.33-.199-.63-.464-.97-.652C11.901.644 10.29.508 9.231.789c.368.082.705.198.975.347z" transform="translate(-49 -49) translate(69 57)"/>
            <path fill="#B099EC" d="M39.167 14.832c-.646.436-1.08 1.042-1.653 2.054H2.862l.03-.059c.355-.752.071-1.416.254-2.58.164-1.058 1.41-1.801 2.425-1.449L8.6 9.38c.37-.417.746-.844.966-1.356.518-1.204.071-2.583-.378-3.814-.18-.494-.99-.745-.99-2.514 0-1.228 3.19-1.334 4.595-.56.497.275.91.717 1.458.87.646.182 1.322-.076 1.981-.199.66-.123 1.482-.031 1.788.564.36.838-.7 1.624-1.1 2.425-.399.802.16 1.33-.002 1.839-.162.509-.688.428-1.015 1.129-.222.529.253 1.11.78 1.343.525.234 1.13.282 1.621.585.49.302.792 1.044.378 1.442-.17.164-.423.23-.57.414-.948 1.193 1.754 2.704 2.66 2.684.345-.008.693-.082 1.031-.013.345.07.64.278.941.46 1.2.726 3.382.691 3.726.52.344-.17 0-1.712.936-1.955.935-.242 1.56 1.098 1.987 1.247.428.147 1.896-.149 2.112-.273.215-.126.214-1.074.472-1.331.258-.257 5.507-2.399 6.343-2.224.834.174 1.22 3.915.846 4.169z" transform="translate(-49 -49) translate(69 57)"/>
            <path fill="#F5F5F5" d="M37.514 16.886c-.336.595-.717 1.33-1.218 2.255-.801 1.482-.704 4.024-1.648 4.722-.944.698-1.994-.968-1.982-1.64.034-1.764-1.963-1.75-1.462-2.912.258-.6-2.152-.685-2.668-.257-.348.288-.107 2.108 1.066 3.349-.255.576-.624 1.1-1.081 1.535-.672-.644-1.983-.331-2.288.545-.114.327-.108.699-.303.984-.187.275-.518.408-.822.542-1.74.765-3.231 2.074-4.213 3.694-.084.138-.166.28-.255.418H6.913c-.105-.495-.193-1.02-.316-1.74l-.814-4.747C5.474 22.48.69 21.794.69 19.354c0-.708 1.753-1.722 2.172-2.468h34.652z" transform="translate(-49 -49) translate(69 57)"/>
            <path fill="#03A9F4" d="M18.103 23.203c0 2.04-1.66 3.695-3.706 3.695-2.048 0-3.707-1.655-3.707-3.695 0-2.041 1.66-3.696 3.707-3.696 2.047 0 3.706 1.655 3.706 3.696z" transform="translate(-49 -49) translate(69 57)"/>
            <path fill="#6650AB" d="M39.956 13.93c-.02-1.098-.321-3.651-1.503-3.898-1.073-.224-6.52 1.99-6.932 2.398-.324.323-.378.845-.476 1.267-.383.1-1.144.218-1.414.187-.367-.322-1.154-1.583-2.387-1.264-.965.25-1.11 1.14-1.234 2.02-2.524.23-3.085-.853-4.077-1.053-.447-.09-.854-.007-1.174 0-.44.008-1.823-.683-2.15-1.337-.179-.36.159-.302.523-.652.293-.283.43-.673.384-1.1-.057-.532-.399-1.063-.871-1.355-.585-.361-1.237-.42-1.699-.624-.29-.13-.479-.398-.448-.5.093-.193.197-.263.365-.377.21-.142.527-.357.672-.813.123-.385.033-.731-.039-1.01-.143-.555-.121-.64.45-1.389.45-.589 1.065-1.395.668-2.315l-.019-.04c-.55-1.07-1.8-1.068-2.972-.796-.443.103-.86.2-1.196.107-.392-.11-.805-.53-1.32-.814C11.813-.142 9.447-.198 8.33.46c-.501.294-.777.733-.777 1.235 0 1.501.543 2.143.868 2.526.297.35.597 1.528.667 1.927.062.35.397.585.749.523.351-.061.587-.395.525-.746-.095-.54-.43-1.918-.953-2.535-.264-.312-.563-.665-.563-1.7.005-.017.074-.105.3-.197.843-.343 2.526-.24 3.334.207.452.249.912.734 1.597.926.655.184 1.285.038 1.84-.092.428-.099 1.276-.28 1.516.11.07.213-.171.553-.517 1.006-.694.91-.957 1.389-.672 2.491.091.353.094.298-.108.435-.228.154-.573.388-.818.916l-.01.022c-.294.7.042 1.706 1.112 2.182.568.252 1.165.309 1.544.543.19.118.283.359.266.434-.09.078-.396.188-.623.474-.393.494-.448 1.089-.155 1.677.537 1.076 2.38 2.074 3.336 2.052.348-.008.668-.07.888-.026.218.044.476.224.734.38 1.32.798 3.727.855 4.35.546.767-.382.43-1.81.809-1.909.425-.11 1.002 1.021 1.613 1.232.643.222 2.303-.125 2.649-.325.495-.287.472-.983.62-1.424.91-.479 4.616-1.933 5.667-2.049.38.594.615 2.4.528 3.108-.591.44-1.016 1-1.506 1.832h-1.235c-.357 0-.647.289-.647.645 0 .356.29.644.647.644h.521c-.949 1.771-1.04 1.77-1.464 3.804-.173.828-.368 1.766-.7 2.01-.056.043-.093.064-.205.007-.388-.198-.747-.888-.744-1.117.032-1.71-1.438-2.263-1.543-2.574 0-.008.004-.04.028-.095.162-.378.044-.789-.302-1.046-.705-.524-2.723-.501-3.374.039-.224.186-.35.483-.374.883-.05.808.31 2.058 1.085 3.055-.122.215-.263.421-.421.612-.398-.168-.861-.205-1.324-.095-.702.168-1.25.639-1.466 1.259-.119.34-.136.7-.226.832-.227.332-3.097.983-5.118 4.372H7.445c-.169-.904-1.008-5.9-1.037-6.008-.198-.741-1.087-1.16-2.213-1.69-1.264-.596-2.835-1.336-2.858-2.4.076-.208.613-.678.937-.96.345-.302.677-.592.921-.887H33.06c.357 0 .647-.29.647-.645 0-.356-.29-.644-.647-.644H3.71c.026-.255.022-.503.017-.746-.014-.85-.057-1.53.644-1.949.32-.191.689-.244.987-.14.248.086.523.014.697-.182 3.432-3.872 3.393-3.81 3.666-4.186.208-.289.143-.692-.147-.9-.29-.208-.693-.143-.902.146-.224.31-.22.29-3.332 3.8-.545-.073-1.122.05-1.635.357-1.193.713-1.294 1.731-1.27 3.076.018 1.038-.03 1.07-1.014 1.93-.708.62-1.378 1.205-1.378 1.906 0 1.893 2.08 2.874 3.6 3.59.546.257 1.365.643 1.513.862 1.558 9.09.614 5.655 5.573 18.957.246.658.66 1.237 1.363 1.237.397 0 .798-.209 1.196-.623 1.469-1.53 2.743-2.936 3.456-4.668.135-.33-.023-.706-.353-.841-.33-.135-.708.022-.843.351-.627 1.523-1.818 2.834-3.194 4.266-.106.11-.182.168-.229.197-.04-.055-.107-.164-.184-.369C9.066 34.6 8.163 32.34 7.734 30.765h10.281c-.938.514-1.613 1.58-1.841 2.943-.116.69-.123 1.372-.152 2.041-.015.356.261.656.618.672h.028c.345 0 .631-.27.646-.617.028-.656.035-1.282.135-1.884.141-.841.587-1.841 1.416-2.126.902-.31 1.54-.01 2.508-1.632 2.02-3.385 4.424-3.354 5.092-4.333.283-.415.287-.872.378-1.135.07-.2.28-.363.546-.427.268-.064.53-.012.683.135.25.24.644.24.894.002.516-.49.94-1.092 1.227-1.742.105-.237.057-.514-.12-.702-.822-.87-1.07-2.03-1.038-2.443.32-.102 1.04-.114 1.452-.037-.193 1.388 1.556 1.481 1.533 2.73-.013.707.614 1.86 1.443 2.286.53.272 1.103.23 1.57-.116.727-.537.954-1.629 1.195-2.784.378-1.815.442-1.782 1.148-3.103.962-1.799 1.4-2.62 2.154-3.129.321-.217.44-.619.426-1.434z" transform="translate(-49 -49) translate(69 57)"/>
            <path fill="#3792FC" d="M17.457 23.202c0 1.683-1.373 3.051-3.06 3.051-1.688 0-3.06-1.368-3.06-3.05 0-1.683 1.372-3.051 3.06-3.051 1.687 0 3.06 1.368 3.06 3.05z" transform="translate(-49 -49) translate(69 57)"/>
            <path fill="#6650AB" d="M10.043 23.202c0 2.394 1.953 4.34 4.354 4.34 2.4 0 4.353-1.946 4.353-4.34 0-2.392-1.953-4.34-4.353-4.34-2.401 0-4.354 1.948-4.354 4.34z" transform="translate(-49 -49) translate(69 57)"/>
        </g>
    </g>
</svg>
